{"title":"Scherzo in b-moll Opus 31","artist":"Chopin","durationMs":515672,"midiSha256":"2888660d422f936d099e8d3128c257df28574e43be2089558bd876aaff1c04d6","midiObject":[{"NoteNumber":58,"Velocity":41,"Duration":449394,"SoundDuration":449394,"Delta":0},{"NoteNumber":46,"Velocity":41,"Duration":449394,"SoundDuration":449394,"Delta":0},{"NoteNumber":57,"Velocity":29,"Duration":71428,"SoundDuration":71428,"Delta":448502},{"NoteNumber":45,"Velocity":27,"Duration":71428,"SoundDuration":71428,"Delta":448502},{"NoteNumber":58,"Velocity":31,"Duration":71428,"SoundDuration":71428,"Delta":519930},{"NoteNumber":46,"Velocity":28,"Duration":71428,"SoundDuration":71428,"Delta":519930},{"NoteNumber":61,"Velocity":33,"Duration":71428,"SoundDuration":71428,"Delta":591359},{"NoteNumber":49,"Velocity":29,"Duration":71428,"SoundDuration":71428,"Delta":591359},{"NoteNumber":65,"Velocity":37,"Duration":113636,"SoundDuration":113636,"Delta":662787},{"NoteNumber":53,"Velocity":33,"Duration":113636,"SoundDuration":113636,"Delta":662787},{"NoteNumber":57,"Velocity":29,"Duration":71428,"SoundDuration":71428,"Delta":1117332},{"NoteNumber":45,"Velocity":26,"Duration":71428,"SoundDuration":71428,"Delta":1117332},{"NoteNumber":58,"Velocity":31,"Duration":71428,"SoundDuration":71428,"Delta":1188761},{"NoteNumber":46,"Velocity":27,"Duration":71428,"SoundDuration":71428,"Delta":1188761},{"NoteNumber":61,"Velocity":32,"Duration":71428,"SoundDuration":71428,"Delta":1260189},{"NoteNumber":49,"Velocity":29,"Duration":71428,"SoundDuration":71428,"Delta":1260189},{"NoteNumber":65,"Velocity":37,"Duration":112781,"SoundDuration":112781,"Delta":1331618},{"NoteNumber":53,"Velocity":32,"Duration":112781,"SoundDuration":112781,"Delta":1331618},{"NoteNumber":58,"Velocity":100,"Duration":93750,"SoundDuration":93750,"Delta":2685002},{"NoteNumber":34,"Velocity":95,"Duration":93750,"SoundDuration":93750,"Delta":2685002},{"NoteNumber":46,"Velocity":95,"Duration":93750,"SoundDuration":93750,"Delta":2685002},{"NoteNumber":90,"Velocity":92,"Duration":1125000,"SoundDuration":1125000,"Delta":3247502},{"NoteNumber":82,"Velocity":78,"Duration":1125000,"SoundDuration":1125000,"Delta":3247502},{"NoteNumber":94,"Velocity":92,"Duration":1125000,"SoundDuration":1125000,"Delta":3247502},{"NoteNumber":58,"Velocity":72,"Duration":1125000,"SoundDuration":1125000,"Delta":3247502},{"NoteNumber":60,"Velocity":72,"Duration":1125000,"SoundDuration":1125000,"Delta":3247502},{"NoteNumber":63,"Velocity":85,"Duration":1125000,"SoundDuration":1125000,"Delta":3247502},{"NoteNumber":66,"Velocity":85,"Duration":1125000,"SoundDuration":1125000,"Delta":3247502},{"NoteNumber":70,"Velocity":85,"Duration":1125000,"SoundDuration":1125000,"Delta":3247502},{"NoteNumber":75,"Velocity":51,"Duration":281250,"SoundDuration":281250,"Delta":4372502},{"NoteNumber":84,"Velocity":61,"Duration":281250,"SoundDuration":281250,"Delta":4372502},{"NoteNumber":87,"Velocity":61,"Duration":281250,"SoundDuration":281250,"Delta":4372502},{"NoteNumber":58,"Velocity":47,"Duration":281250,"SoundDuration":281250,"Delta":4372502},{"NoteNumber":60,"Velocity":47,"Duration":281250,"SoundDuration":281250,"Delta":4372502},{"NoteNumber":63,"Velocity":56,"Duration":281250,"SoundDuration":281250,"Delta":4372502},{"NoteNumber":66,"Velocity":56,"Duration":281250,"SoundDuration":281250,"Delta":4372502},{"NoteNumber":70,"Velocity":56,"Duration":281250,"SoundDuration":281250,"Delta":4372502},{"NoteNumber":84,"Velocity":68,"Duration":93750,"SoundDuration":93750,"Delta":4653752},{"NoteNumber":77,"Velocity":57,"Duration":93750,"SoundDuration":93750,"Delta":4653752},{"NoteNumber":89,"Velocity":68,"Duration":93750,"SoundDuration":93750,"Delta":4653752},{"NoteNumber":58,"Velocity":51,"Duration":93750,"SoundDuration":93750,"Delta":4653752},{"NoteNumber":60,"Velocity":51,"Duration":93750,"SoundDuration":93750,"Delta":4653752},{"NoteNumber":63,"Velocity":61,"Duration":93750,"SoundDuration":93750,"Delta":4653752},{"NoteNumber":66,"Velocity":61,"Duration":93750,"SoundDuration":93750,"Delta":4653752},{"NoteNumber":70,"Velocity":61,"Duration":93750,"SoundDuration":93750,"Delta":4653752},{"NoteNumber":90,"Velocity":71,"Duration":204081,"SoundDuration":204081,"Delta":4747502},{"NoteNumber":78,"Velocity":60,"Duration":204081,"SoundDuration":204081,"Delta":4747502},{"NoteNumber":84,"Velocity":71,"Duration":204081,"SoundDuration":204081,"Delta":4747502},{"NoteNumber":58,"Velocity":56,"Duration":204081,"SoundDuration":204081,"Delta":4747502},{"NoteNumber":60,"Velocity":56,"Duration":204081,"SoundDuration":204081,"Delta":4747502},{"NoteNumber":63,"Velocity":66,"Duration":204081,"SoundDuration":204081,"Delta":4747502},{"NoteNumber":66,"Velocity":66,"Duration":204081,"SoundDuration":204081,"Delta":4747502},{"NoteNumber":70,"Velocity":66,"Duration":204081,"SoundDuration":204081,"Delta":4747502},{"NoteNumber":85,"Velocity":68,"Duration":204081,"SoundDuration":204081,"Delta":4951583},{"NoteNumber":77,"Velocity":57,"Duration":204081,"SoundDuration":204081,"Delta":4951583},{"NoteNumber":89,"Velocity":68,"Duration":204081,"SoundDuration":204081,"Delta":4951583},{"NoteNumber":58,"Velocity":52,"Duration":204081,"SoundDuration":204081,"Delta":4951583},{"NoteNumber":61,"Velocity":52,"Duration":204081,"SoundDuration":204081,"Delta":4951583},{"NoteNumber":65,"Velocity":62,"Duration":204081,"SoundDuration":204081,"Delta":4951583},{"NoteNumber":70,"Velocity":62,"Duration":204081,"SoundDuration":204081,"Delta":4951583},{"NoteNumber":57,"Velocity":27,"Duration":68027,"SoundDuration":68027,"Delta":5359746},{"NoteNumber":45,"Velocity":27,"Duration":68027,"SoundDuration":68027,"Delta":5359746},{"NoteNumber":58,"Velocity":29,"Duration":68027,"SoundDuration":68027,"Delta":5427773},{"NoteNumber":46,"Velocity":28,"Duration":68027,"SoundDuration":68027,"Delta":5427773},{"NoteNumber":61,"Velocity":30,"Duration":68027,"SoundDuration":68027,"Delta":5495800},{"NoteNumber":49,"Velocity":30,"Duration":68027,"SoundDuration":68027,"Delta":5495800},{"NoteNumber":65,"Velocity":35,"Duration":102040,"SoundDuration":102040,"Delta":5563828},{"NoteNumber":53,"Velocity":33,"Duration":102040,"SoundDuration":102040,"Delta":5563828},{"NoteNumber":57,"Velocity":27,"Duration":68027,"SoundDuration":68027,"Delta":5971991},{"NoteNumber":45,"Velocity":26,"Duration":68027,"SoundDuration":68027,"Delta":5971991},{"NoteNumber":58,"Velocity":29,"Duration":68027,"SoundDuration":68027,"Delta":6040018},{"NoteNumber":46,"Velocity":28,"Duration":68027,"SoundDuration":68027,"Delta":6040018},{"NoteNumber":61,"Velocity":30,"Duration":68027,"SoundDuration":68027,"Delta":6108045},{"NoteNumber":49,"Velocity":30,"Duration":68027,"SoundDuration":68027,"Delta":6108045},{"NoteNumber":65,"Velocity":35,"Duration":94339,"SoundDuration":94339,"Delta":6176072},{"NoteNumber":53,"Velocity":34,"Duration":94339,"SoundDuration":94339,"Delta":6176072},{"NoteNumber":56,"Velocity":100,"Duration":86956,"SoundDuration":86956,"Delta":7308146},{"NoteNumber":32,"Velocity":95,"Duration":86956,"SoundDuration":86956,"Delta":7308146},{"NoteNumber":44,"Velocity":95,"Duration":86956,"SoundDuration":86956,"Delta":7308146},{"NoteNumber":56,"Velocity":72,"Duration":1086956,"SoundDuration":1086956,"Delta":7786407},{"NoteNumber":65,"Velocity":76,"Duration":1065217,"SoundDuration":1065217,"Delta":7808146},{"NoteNumber":92,"Velocity":90,"Duration":1043478,"SoundDuration":1043478,"Delta":7829885},{"NoteNumber":89,"Velocity":90,"Duration":1043478,"SoundDuration":1043478,"Delta":7829885},{"NoteNumber":80,"Velocity":76,"Duration":1043478,"SoundDuration":1043478,"Delta":7829885},{"NoteNumber":73,"Velocity":89,"Duration":1043478,"SoundDuration":1043478,"Delta":7829885},{"NoteNumber":84,"Velocity":60,"Duration":260869,"SoundDuration":260869,"Delta":8873363},{"NoteNumber":75,"Velocity":51,"Duration":260869,"SoundDuration":260869,"Delta":8873363},{"NoteNumber":87,"Velocity":60,"Duration":260869,"SoundDuration":260869,"Delta":8873363},{"NoteNumber":56,"Velocity":49,"Duration":260869,"SoundDuration":260869,"Delta":8873363},{"NoteNumber":63,"Velocity":58,"Duration":260869,"SoundDuration":260869,"Delta":8873363},{"NoteNumber":66,"Velocity":58,"Duration":260869,"SoundDuration":260869,"Delta":8873363},{"NoteNumber":68,"Velocity":58,"Duration":260869,"SoundDuration":260869,"Delta":8873363},{"NoteNumber":84,"Velocity":65,"Duration":90634,"SoundDuration":90634,"Delta":9134233},{"NoteNumber":89,"Velocity":65,"Duration":90634,"SoundDuration":90634,"Delta":9134233},{"NoteNumber":77,"Velocity":55,"Duration":90634,"SoundDuration":90634,"Delta":9134233},{"NoteNumber":56,"Velocity":53,"Duration":90634,"SoundDuration":90634,"Delta":9134233},{"NoteNumber":63,"Velocity":63,"Duration":90634,"SoundDuration":90634,"Delta":9134233},{"NoteNumber":66,"Velocity":63,"Duration":90634,"SoundDuration":90634,"Delta":9134233},{"NoteNumber":68,"Velocity":63,"Duration":90634,"SoundDuration":90634,"Delta":9134233},{"NoteNumber":84,"Velocity":70,"Duration":193548,"SoundDuration":193548,"Delta":9224867},{"NoteNumber":90,"Velocity":70,"Duration":193548,"SoundDuration":193548,"Delta":9224867},{"NoteNumber":78,"Velocity":59,"Duration":193548,"SoundDuration":193548,"Delta":9224867},{"NoteNumber":56,"Velocity":57,"Duration":193548,"SoundDuration":193548,"Delta":9224867},{"NoteNumber":63,"Velocity":68,"Duration":193548,"SoundDuration":193548,"Delta":9224867},{"NoteNumber":66,"Velocity":68,"Duration":193548,"SoundDuration":193548,"Delta":9224867},{"NoteNumber":68,"Velocity":68,"Duration":193548,"SoundDuration":193548,"Delta":9224867},{"NoteNumber":77,"Velocity":56,"Duration":173913,"SoundDuration":173913,"Delta":9418416},{"NoteNumber":85,"Velocity":67,"Duration":173913,"SoundDuration":173913,"Delta":9418416},{"NoteNumber":89,"Velocity":67,"Duration":173913,"SoundDuration":173913,"Delta":9418416},{"NoteNumber":68,"Velocity":65,"Duration":173913,"SoundDuration":173913,"Delta":9418416},{"NoteNumber":61,"Velocity":55,"Duration":173913,"SoundDuration":173913,"Delta":9418416},{"NoteNumber":65,"Velocity":65,"Duration":173913,"SoundDuration":173913,"Delta":9418416},{"NoteNumber":77,"Velocity":81,"Duration":347825,"SoundDuration":347825,"Delta":9940155},{"NoteNumber":69,"Velocity":81,"Duration":347825,"SoundDuration":347825,"Delta":9940155},{"NoteNumber":65,"Velocity":77,"Duration":347825,"SoundDuration":347825,"Delta":9940155},{"NoteNumber":60,"Velocity":77,"Duration":347825,"SoundDuration":347825,"Delta":9940155},{"NoteNumber":53,"Velocity":65,"Duration":347825,"SoundDuration":347825,"Delta":9940155},{"NoteNumber":57,"Velocity":81,"Duration":378548,"SoundDuration":378548,"Delta":10461894},{"NoteNumber":65,"Velocity":81,"Duration":378548,"SoundDuration":378548,"Delta":10461894},{"NoteNumber":41,"Velocity":65,"Duration":378548,"SoundDuration":378548,"Delta":10461894},{"NoteNumber":48,"Velocity":77,"Duration":378548,"SoundDuration":378548,"Delta":10461894},{"NoteNumber":53,"Velocity":77,"Duration":378548,"SoundDuration":378548,"Delta":10461894},{"NoteNumber":29,"Velocity":79,"Duration":1381579,"SoundDuration":1381579,"Delta":11029717},{"NoteNumber":41,"Velocity":94,"Duration":1381579,"SoundDuration":1381579,"Delta":11029717},{"NoteNumber":30,"Velocity":82,"Duration":148026,"SoundDuration":148026,"Delta":12411297},{"NoteNumber":42,"Velocity":97,"Duration":148026,"SoundDuration":148026,"Delta":12411297},{"NoteNumber":57,"Velocity":27,"Duration":68965,"SoundDuration":68965,"Delta":14404038},{"NoteNumber":45,"Velocity":27,"Duration":68965,"SoundDuration":68965,"Delta":14404038},{"NoteNumber":58,"Velocity":29,"Duration":68965,"SoundDuration":68965,"Delta":14473003},{"NoteNumber":46,"Velocity":28,"Duration":68965,"SoundDuration":68965,"Delta":14473003},{"NoteNumber":61,"Velocity":30,"Duration":68965,"SoundDuration":68965,"Delta":14541969},{"NoteNumber":49,"Velocity":29,"Duration":68965,"SoundDuration":68965,"Delta":14541969},{"NoteNumber":65,"Velocity":34,"Duration":103448,"SoundDuration":103448,"Delta":14610934},{"NoteNumber":53,"Velocity":33,"Duration":103448,"SoundDuration":103448,"Delta":14610934},{"NoteNumber":57,"Velocity":29,"Duration":68965,"SoundDuration":68965,"Delta":15024727},{"NoteNumber":45,"Velocity":27,"Duration":68965,"SoundDuration":68965,"Delta":15024727},{"NoteNumber":58,"Velocity":30,"Duration":68965,"SoundDuration":68965,"Delta":15093693},{"NoteNumber":46,"Velocity":28,"Duration":68965,"SoundDuration":68965,"Delta":15093693},{"NoteNumber":61,"Velocity":31,"Duration":68965,"SoundDuration":68965,"Delta":15162658},{"NoteNumber":49,"Velocity":29,"Duration":68965,"SoundDuration":68965,"Delta":15162658},{"NoteNumber":65,"Velocity":36,"Duration":103448,"SoundDuration":103448,"Delta":15231624},{"NoteNumber":53,"Velocity":33,"Duration":103448,"SoundDuration":103448,"Delta":15231624},{"NoteNumber":58,"Velocity":100,"Duration":93750,"SoundDuration":93750,"Delta":16473003},{"NoteNumber":46,"Velocity":95,"Duration":93750,"SoundDuration":93750,"Delta":16473003},{"NoteNumber":34,"Velocity":95,"Duration":93750,"SoundDuration":93750,"Delta":16473003},{"NoteNumber":90,"Velocity":92,"Duration":843750,"SoundDuration":843750,"Delta":17035503},{"NoteNumber":94,"Velocity":92,"Duration":843750,"SoundDuration":843750,"Delta":17035503},{"NoteNumber":82,"Velocity":78,"Duration":843750,"SoundDuration":843750,"Delta":17035503},{"NoteNumber":63,"Velocity":85,"Duration":843750,"SoundDuration":843750,"Delta":17035503},{"NoteNumber":58,"Velocity":72,"Duration":843750,"SoundDuration":843750,"Delta":17035503},{"NoteNumber":60,"Velocity":72,"Duration":843750,"SoundDuration":843750,"Delta":17035503},{"NoteNumber":70,"Velocity":85,"Duration":843750,"SoundDuration":843750,"Delta":17035503},{"NoteNumber":66,"Velocity":85,"Duration":843750,"SoundDuration":843750,"Delta":17035503},{"NoteNumber":87,"Velocity":58,"Duration":93750,"SoundDuration":93750,"Delta":17879253},{"NoteNumber":84,"Velocity":58,"Duration":93750,"SoundDuration":93750,"Delta":17879253},{"NoteNumber":75,"Velocity":49,"Duration":93750,"SoundDuration":93750,"Delta":17879253},{"NoteNumber":58,"Velocity":47,"Duration":93750,"SoundDuration":93750,"Delta":17879253},{"NoteNumber":60,"Velocity":47,"Duration":93750,"SoundDuration":93750,"Delta":17879253},{"NoteNumber":63,"Velocity":56,"Duration":93750,"SoundDuration":93750,"Delta":17879253},{"NoteNumber":66,"Velocity":56,"Duration":93750,"SoundDuration":93750,"Delta":17879253},{"NoteNumber":70,"Velocity":56,"Duration":93750,"SoundDuration":93750,"Delta":17879253},{"NoteNumber":84,"Velocity":58,"Duration":187500,"SoundDuration":187500,"Delta":17973003},{"NoteNumber":75,"Velocity":49,"Duration":187500,"SoundDuration":187500,"Delta":17973003},{"NoteNumber":87,"Velocity":58,"Duration":187500,"SoundDuration":187500,"Delta":17973003},{"NoteNumber":58,"Velocity":47,"Duration":187500,"SoundDuration":187500,"Delta":17973003},{"NoteNumber":60,"Velocity":47,"Duration":187500,"SoundDuration":187500,"Delta":17973003},{"NoteNumber":63,"Velocity":56,"Duration":187500,"SoundDuration":187500,"Delta":17973003},{"NoteNumber":66,"Velocity":56,"Duration":187500,"SoundDuration":187500,"Delta":17973003},{"NoteNumber":70,"Velocity":56,"Duration":187500,"SoundDuration":187500,"Delta":17973003},{"NoteNumber":75,"Velocity":51,"Duration":281250,"SoundDuration":281250,"Delta":18160503},{"NoteNumber":84,"Velocity":61,"Duration":281250,"SoundDuration":281250,"Delta":18160503},{"NoteNumber":87,"Velocity":61,"Duration":281250,"SoundDuration":281250,"Delta":18160503},{"NoteNumber":63,"Velocity":56,"Duration":281250,"SoundDuration":281250,"Delta":18160503},{"NoteNumber":58,"Velocity":47,"Duration":281250,"SoundDuration":281250,"Delta":18160503},{"NoteNumber":60,"Velocity":47,"Duration":281250,"SoundDuration":281250,"Delta":18160503},{"NoteNumber":66,"Velocity":56,"Duration":281250,"SoundDuration":281250,"Delta":18160503},{"NoteNumber":70,"Velocity":56,"Duration":281250,"SoundDuration":281250,"Delta":18160503},{"NoteNumber":89,"Velocity":68,"Duration":93750,"SoundDuration":93750,"Delta":18441753},{"NoteNumber":84,"Velocity":68,"Duration":93750,"SoundDuration":93750,"Delta":18441753},{"NoteNumber":77,"Velocity":57,"Duration":93750,"SoundDuration":93750,"Delta":18441753},{"NoteNumber":60,"Velocity":51,"Duration":93750,"SoundDuration":93750,"Delta":18441753},{"NoteNumber":63,"Velocity":61,"Duration":93750,"SoundDuration":93750,"Delta":18441753},{"NoteNumber":58,"Velocity":51,"Duration":93750,"SoundDuration":93750,"Delta":18441753},{"NoteNumber":66,"Velocity":61,"Duration":93750,"SoundDuration":93750,"Delta":18441753},{"NoteNumber":70,"Velocity":61,"Duration":93750,"SoundDuration":93750,"Delta":18441753},{"NoteNumber":84,"Velocity":71,"Duration":204081,"SoundDuration":204081,"Delta":18535503},{"NoteNumber":90,"Velocity":71,"Duration":204081,"SoundDuration":204081,"Delta":18535503},{"NoteNumber":78,"Velocity":60,"Duration":204081,"SoundDuration":204081,"Delta":18535503},{"NoteNumber":63,"Velocity":66,"Duration":204081,"SoundDuration":204081,"Delta":18535503},{"NoteNumber":66,"Velocity":66,"Duration":204081,"SoundDuration":204081,"Delta":18535503},{"NoteNumber":58,"Velocity":56,"Duration":204081,"SoundDuration":204081,"Delta":18535503},{"NoteNumber":60,"Velocity":56,"Duration":204081,"SoundDuration":204081,"Delta":18535503},{"NoteNumber":70,"Velocity":66,"Duration":204081,"SoundDuration":204081,"Delta":18535503},{"NoteNumber":85,"Velocity":68,"Duration":204081,"SoundDuration":204081,"Delta":18739584},{"NoteNumber":89,"Velocity":68,"Duration":204081,"SoundDuration":204081,"Delta":18739584},{"NoteNumber":77,"Velocity":57,"Duration":204081,"SoundDuration":204081,"Delta":18739584},{"NoteNumber":65,"Velocity":62,"Duration":204081,"SoundDuration":204081,"Delta":18739584},{"NoteNumber":58,"Velocity":52,"Duration":204081,"SoundDuration":204081,"Delta":18739584},{"NoteNumber":61,"Velocity":52,"Duration":204081,"SoundDuration":204081,"Delta":18739584},{"NoteNumber":70,"Velocity":62,"Duration":204081,"SoundDuration":204081,"Delta":18739584},{"NoteNumber":57,"Velocity":29,"Duration":68027,"SoundDuration":68027,"Delta":19147747},{"NoteNumber":45,"Velocity":27,"Duration":68027,"SoundDuration":68027,"Delta":19147747},{"NoteNumber":58,"Velocity":30,"Duration":68027,"SoundDuration":68027,"Delta":19215774},{"NoteNumber":46,"Velocity":29,"Duration":68027,"SoundDuration":68027,"Delta":19215774},{"NoteNumber":61,"Velocity":32,"Duration":68027,"SoundDuration":68027,"Delta":19283801},{"NoteNumber":49,"Velocity":30,"Duration":68027,"SoundDuration":68027,"Delta":19283801},{"NoteNumber":65,"Velocity":37,"Duration":102040,"SoundDuration":102040,"Delta":19351829},{"NoteNumber":53,"Velocity":34,"Duration":102040,"SoundDuration":102040,"Delta":19351829},{"NoteNumber":57,"Velocity":29,"Duration":68027,"SoundDuration":68027,"Delta":19759992},{"NoteNumber":45,"Velocity":24,"Duration":68027,"SoundDuration":68027,"Delta":19759992},{"NoteNumber":58,"Velocity":30,"Duration":68027,"SoundDuration":68027,"Delta":19828019},{"NoteNumber":46,"Velocity":26,"Duration":68027,"SoundDuration":68027,"Delta":19828019},{"NoteNumber":61,"Velocity":32,"Duration":68027,"SoundDuration":68027,"Delta":19896046},{"NoteNumber":49,"Velocity":27,"Duration":68027,"SoundDuration":68027,"Delta":19896046},{"NoteNumber":65,"Velocity":37,"Duration":94339,"SoundDuration":94339,"Delta":19964073},{"NoteNumber":53,"Velocity":32,"Duration":94339,"SoundDuration":94339,"Delta":19964073},{"NoteNumber":48,"Velocity":100,"Duration":83565,"SoundDuration":83565,"Delta":21031503},{"NoteNumber":24,"Velocity":95,"Duration":83565,"SoundDuration":83565,"Delta":21031503},{"NoteNumber":36,"Velocity":95,"Duration":83565,"SoundDuration":83565,"Delta":21031503},{"NoteNumber":84,"Velocity":64,"Duration":1002786,"SoundDuration":1002786,"Delta":21532896},{"NoteNumber":92,"Velocity":90,"Duration":1002786,"SoundDuration":1002786,"Delta":21532896},{"NoteNumber":96,"Velocity":90,"Duration":1002786,"SoundDuration":1002786,"Delta":21532896},{"NoteNumber":68,"Velocity":89,"Duration":1002786,"SoundDuration":1002786,"Delta":21532896},{"NoteNumber":72,"Velocity":89,"Duration":1002786,"SoundDuration":1002786,"Delta":21532896},{"NoteNumber":65,"Velocity":63,"Duration":1002786,"SoundDuration":1002786,"Delta":21532896},{"NoteNumber":60,"Velocity":63,"Duration":1002786,"SoundDuration":1002786,"Delta":21532896},{"NoteNumber":88,"Velocity":60,"Duration":250696,"SoundDuration":250696,"Delta":22535682},{"NoteNumber":79,"Velocity":43,"Duration":250696,"SoundDuration":250696,"Delta":22535682},{"NoteNumber":91,"Velocity":60,"Duration":250696,"SoundDuration":250696,"Delta":22535682},{"NoteNumber":60,"Velocity":41,"Duration":250696,"SoundDuration":250696,"Delta":22535682},{"NoteNumber":70,"Velocity":58,"Duration":250696,"SoundDuration":250696,"Delta":22535682},{"NoteNumber":64,"Velocity":41,"Duration":250696,"SoundDuration":250696,"Delta":22535682},{"NoteNumber":72,"Velocity":58,"Duration":250696,"SoundDuration":250696,"Delta":22535682},{"NoteNumber":80,"Velocity":46,"Duration":90634,"SoundDuration":90634,"Delta":22786379},{"NoteNumber":88,"Velocity":65,"Duration":90634,"SoundDuration":90634,"Delta":22786379},{"NoteNumber":92,"Velocity":65,"Duration":90634,"SoundDuration":90634,"Delta":22786379},{"NoteNumber":64,"Velocity":45,"Duration":90634,"SoundDuration":90634,"Delta":22786379},{"NoteNumber":60,"Velocity":45,"Duration":90634,"SoundDuration":90634,"Delta":22786379},{"NoteNumber":72,"Velocity":63,"Duration":90634,"SoundDuration":90634,"Delta":22786379},{"NoteNumber":70,"Velocity":63,"Duration":90634,"SoundDuration":90634,"Delta":22786379},{"NoteNumber":88,"Velocity":70,"Duration":193548,"SoundDuration":193548,"Delta":22877013},{"NoteNumber":82,"Velocity":50,"Duration":193548,"SoundDuration":193548,"Delta":22877013},{"NoteNumber":94,"Velocity":70,"Duration":193548,"SoundDuration":193548,"Delta":22877013},{"NoteNumber":70,"Velocity":68,"Duration":193548,"SoundDuration":193548,"Delta":22877013},{"NoteNumber":60,"Velocity":48,"Duration":193548,"SoundDuration":193548,"Delta":22877013},{"NoteNumber":64,"Velocity":48,"Duration":193548,"SoundDuration":193548,"Delta":22877013},{"NoteNumber":72,"Velocity":68,"Duration":193548,"SoundDuration":193548,"Delta":22877013},{"NoteNumber":80,"Velocity":47,"Duration":173912,"SoundDuration":173912,"Delta":23070562},{"NoteNumber":92,"Velocity":67,"Duration":173912,"SoundDuration":173912,"Delta":23070562},{"NoteNumber":89,"Velocity":67,"Duration":173912,"SoundDuration":173912,"Delta":23070562},{"NoteNumber":72,"Velocity":65,"Duration":173912,"SoundDuration":173912,"Delta":23070562},{"NoteNumber":65,"Velocity":46,"Duration":173912,"SoundDuration":173912,"Delta":23070562},{"NoteNumber":68,"Velocity":65,"Duration":173912,"SoundDuration":173912,"Delta":23070562},{"NoteNumber":80,"Velocity":81,"Duration":362538,"SoundDuration":362538,"Delta":23592301},{"NoteNumber":72,"Velocity":68,"Duration":362538,"SoundDuration":362538,"Delta":23592301},{"NoteNumber":68,"Velocity":68,"Duration":362538,"SoundDuration":362538,"Delta":23592301},{"NoteNumber":77,"Velocity":81,"Duration":362538,"SoundDuration":362538,"Delta":23592301},{"NoteNumber":53,"Velocity":65,"Duration":362538,"SoundDuration":362538,"Delta":23592301},{"NoteNumber":65,"Velocity":77,"Duration":362538,"SoundDuration":362538,"Delta":23592301},{"NoteNumber":60,"Velocity":77,"Duration":362538,"SoundDuration":362538,"Delta":23592301},{"NoteNumber":68,"Velocity":81,"Duration":422534,"SoundDuration":422534,"Delta":24136108},{"NoteNumber":56,"Velocity":68,"Duration":422534,"SoundDuration":422534,"Delta":24136108},{"NoteNumber":60,"Velocity":68,"Duration":422534,"SoundDuration":422534,"Delta":24136108},{"NoteNumber":65,"Velocity":81,"Duration":422534,"SoundDuration":422534,"Delta":24136108},{"NoteNumber":53,"Velocity":77,"Duration":422534,"SoundDuration":422534,"Delta":24136108},{"NoteNumber":48,"Velocity":77,"Duration":422534,"SoundDuration":422534,"Delta":24136108},{"NoteNumber":41,"Velocity":65,"Duration":422534,"SoundDuration":422534,"Delta":24136108},{"NoteNumber":28,"Velocity":79,"Duration":1381579,"SoundDuration":1381579,"Delta":24769910},{"NoteNumber":40,"Velocity":94,"Duration":1381579,"SoundDuration":1381579,"Delta":24769910},{"NoteNumber":29,"Velocity":82,"Duration":148026,"SoundDuration":148026,"Delta":26151490},{"NoteNumber":41,"Velocity":97,"Duration":148026,"SoundDuration":148026,"Delta":26151490},{"NoteNumber":101,"Velocity":97,"Duration":957457,"SoundDuration":957457,"Delta":27730438},{"NoteNumber":25,"Velocity":71,"Duration":126582,"SoundDuration":126582,"Delta":27730438},{"NoteNumber":37,"Velocity":84,"Duration":126582,"SoundDuration":126582,"Delta":27730438},{"NoteNumber":44,"Velocity":45,"Duration":225563,"SoundDuration":225563,"Delta":28236767},{"NoteNumber":56,"Velocity":45,"Duration":225563,"SoundDuration":225563,"Delta":28236767},{"NoteNumber":61,"Velocity":53,"Duration":225564,"SoundDuration":225564,"Delta":28462331},{"NoteNumber":53,"Velocity":53,"Duration":225564,"SoundDuration":225564,"Delta":28462331},{"NoteNumber":99,"Velocity":68,"Duration":88495,"SoundDuration":88495,"Delta":28687895},{"NoteNumber":97,"Velocity":62,"Duration":88495,"SoundDuration":88495,"Delta":28776390},{"NoteNumber":92,"Velocity":65,"Duration":88495,"SoundDuration":88495,"Delta":28864886},{"NoteNumber":44,"Velocity":42,"Duration":176990,"SoundDuration":176990,"Delta":28864886},{"NoteNumber":56,"Velocity":42,"Duration":176990,"SoundDuration":176990,"Delta":28864886},{"NoteNumber":89,"Velocity":59,"Duration":88495,"SoundDuration":88495,"Delta":28953381},{"NoteNumber":87,"Velocity":62,"Duration":88495,"SoundDuration":88495,"Delta":29041877},{"NoteNumber":53,"Velocity":47,"Duration":176991,"SoundDuration":176991,"Delta":29041877},{"NoteNumber":61,"Velocity":47,"Duration":176991,"SoundDuration":176991,"Delta":29041877},{"NoteNumber":85,"Velocity":57,"Duration":88495,"SoundDuration":88495,"Delta":29130372},{"NoteNumber":80,"Velocity":58,"Duration":88495,"SoundDuration":88495,"Delta":29218868},{"NoteNumber":77,"Velocity":53,"Duration":88495,"SoundDuration":88495,"Delta":29307363},{"NoteNumber":75,"Velocity":55,"Duration":88495,"SoundDuration":88495,"Delta":29395859},{"NoteNumber":73,"Velocity":51,"Duration":88495,"SoundDuration":88495,"Delta":29484354},{"NoteNumber":68,"Velocity":52,"Duration":176990,"SoundDuration":176990,"Delta":29572850},{"NoteNumber":72,"Velocity":55,"Duration":88845,"SoundDuration":88845,"Delta":30103823},{"NoteNumber":32,"Velocity":44,"Duration":88845,"SoundDuration":88845,"Delta":30103823},{"NoteNumber":44,"Velocity":52,"Duration":88845,"SoundDuration":88845,"Delta":30103823},{"NoteNumber":73,"Velocity":52,"Duration":89197,"SoundDuration":89197,"Delta":30192668},{"NoteNumber":75,"Velocity":50,"Duration":89641,"SoundDuration":89641,"Delta":30281865},{"NoteNumber":77,"Velocity":47,"Duration":90000,"SoundDuration":90000,"Delta":30371507},{"NoteNumber":78,"Velocity":45,"Duration":90452,"SoundDuration":90452,"Delta":30461507},{"NoteNumber":80,"Velocity":42,"Duration":90813,"SoundDuration":90813,"Delta":30546672},{"NoteNumber":81,"Velocity":40,"Duration":109090,"SoundDuration":109090,"Delta":30642804},{"NoteNumber":66,"Velocity":38,"Duration":218181,"SoundDuration":218181,"Delta":30642804},{"NoteNumber":55,"Velocity":38,"Duration":218181,"SoundDuration":218181,"Delta":30642804},{"NoteNumber":60,"Velocity":38,"Duration":218181,"SoundDuration":218181,"Delta":30642804},{"NoteNumber":56,"Velocity":35,"Duration":197368,"SoundDuration":197368,"Delta":30860986},{"NoteNumber":60,"Velocity":35,"Duration":197368,"SoundDuration":197368,"Delta":30860986},{"NoteNumber":66,"Velocity":35,"Duration":197368,"SoundDuration":197368,"Delta":30860986},{"NoteNumber":66,"Velocity":31,"Duration":98684,"SoundDuration":98684,"Delta":31058355},{"NoteNumber":56,"Velocity":31,"Duration":98684,"SoundDuration":98684,"Delta":31058355},{"NoteNumber":60,"Velocity":31,"Duration":98684,"SoundDuration":98684,"Delta":31058355},{"NoteNumber":81,"Velocity":50,"Duration":90271,"SoundDuration":90271,"Delta":31255723},{"NoteNumber":80,"Velocity":49,"Duration":89910,"SoundDuration":89910,"Delta":31345994},{"NoteNumber":79,"Velocity":47,"Duration":89463,"SoundDuration":89463,"Delta":31435905},{"NoteNumber":78,"Velocity":46,"Duration":89109,"SoundDuration":89109,"Delta":31525368},{"NoteNumber":77,"Velocity":44,"Duration":88670,"SoundDuration":88670,"Delta":31614477},{"NoteNumber":76,"Velocity":42,"Duration":88296,"SoundDuration":88296,"Delta":31703147},{"NoteNumber":75,"Velocity":41,"Duration":107527,"SoundDuration":107527,"Delta":31791443},{"NoteNumber":57,"Velocity":35,"Duration":215054,"SoundDuration":215054,"Delta":31791443},{"NoteNumber":60,"Velocity":35,"Duration":215054,"SoundDuration":215054,"Delta":31791443},{"NoteNumber":66,"Velocity":35,"Duration":215054,"SoundDuration":215054,"Delta":31791443},{"NoteNumber":66,"Velocity":32,"Duration":197368,"SoundDuration":197368,"Delta":32006497},{"NoteNumber":60,"Velocity":32,"Duration":197368,"SoundDuration":197368,"Delta":32006497},{"NoteNumber":56,"Velocity":32,"Duration":197368,"SoundDuration":197368,"Delta":32006497},{"NoteNumber":66,"Velocity":28,"Duration":98684,"SoundDuration":98684,"Delta":32203866},{"NoteNumber":60,"Velocity":28,"Duration":98684,"SoundDuration":98684,"Delta":32203866},{"NoteNumber":56,"Velocity":28,"Duration":98684,"SoundDuration":98684,"Delta":32203866},{"NoteNumber":101,"Velocity":97,"Duration":872180,"SoundDuration":872180,"Delta":32401234},{"NoteNumber":25,"Velocity":68,"Duration":112782,"SoundDuration":112782,"Delta":32401234},{"NoteNumber":37,"Velocity":82,"Duration":112782,"SoundDuration":112782,"Delta":32401234},{"NoteNumber":44,"Velocity":45,"Duration":210526,"SoundDuration":210526,"Delta":32852362},{"NoteNumber":56,"Velocity":45,"Duration":210526,"SoundDuration":210526,"Delta":32852362},{"NoteNumber":61,"Velocity":53,"Duration":210526,"SoundDuration":210526,"Delta":33062889},{"NoteNumber":53,"Velocity":53,"Duration":210526,"SoundDuration":210526,"Delta":33062889},{"NoteNumber":99,"Velocity":68,"Duration":86705,"SoundDuration":86705,"Delta":33273415},{"NoteNumber":97,"Velocity":60,"Duration":86705,"SoundDuration":86705,"Delta":33360121},{"NoteNumber":92,"Velocity":65,"Duration":86705,"SoundDuration":86705,"Delta":33446826},{"NoteNumber":44,"Velocity":42,"Duration":173410,"SoundDuration":173410,"Delta":33446826},{"NoteNumber":56,"Velocity":42,"Duration":173410,"SoundDuration":173410,"Delta":33446826},{"NoteNumber":89,"Velocity":58,"Duration":86705,"SoundDuration":86705,"Delta":33533531},{"NoteNumber":87,"Velocity":62,"Duration":86705,"SoundDuration":86705,"Delta":33620236},{"NoteNumber":53,"Velocity":47,"Duration":173410,"SoundDuration":173410,"Delta":33620236},{"NoteNumber":61,"Velocity":47,"Duration":173410,"SoundDuration":173410,"Delta":33620236},{"NoteNumber":85,"Velocity":57,"Duration":86705,"SoundDuration":86705,"Delta":33706942},{"NoteNumber":80,"Velocity":58,"Duration":86705,"SoundDuration":86705,"Delta":33793647},{"NoteNumber":77,"Velocity":53,"Duration":86705,"SoundDuration":86705,"Delta":33880352},{"NoteNumber":75,"Velocity":55,"Duration":86705,"SoundDuration":86705,"Delta":33967057},{"NoteNumber":73,"Velocity":49,"Duration":86705,"SoundDuration":86705,"Delta":34053763},{"NoteNumber":68,"Velocity":52,"Duration":172910,"SoundDuration":172910,"Delta":34140468},{"NoteNumber":72,"Velocity":42,"Duration":88278,"SoundDuration":88278,"Delta":34659199},{"NoteNumber":44,"Velocity":20,"Duration":534214,"SoundDuration":534214,"Delta":34659199},{"NoteNumber":51,"Velocity":20,"Duration":534214,"SoundDuration":534214,"Delta":34659199},{"NoteNumber":54,"Velocity":20,"Duration":534214,"SoundDuration":534214,"Delta":34659199},{"NoteNumber":73,"Velocity":41,"Duration":88565,"SoundDuration":88565,"Delta":34747478},{"NoteNumber":75,"Velocity":41,"Duration":88871,"SoundDuration":88871,"Delta":34836043},{"NoteNumber":77,"Velocity":40,"Duration":89179,"SoundDuration":89179,"Delta":34924915},{"NoteNumber":78,"Velocity":39,"Duration":89490,"SoundDuration":89490,"Delta":35014095},{"NoteNumber":80,"Velocity":38,"Duration":89797,"SoundDuration":89797,"Delta":35098361},{"NoteNumber":81,"Velocity":37,"Duration":89820,"SoundDuration":89820,"Delta":35193414},{"NoteNumber":60,"Velocity":32,"Duration":89820,"SoundDuration":89820,"Delta":35193414},{"NoteNumber":61,"Velocity":32,"Duration":89820,"SoundDuration":89820,"Delta":35283234},{"NoteNumber":63,"Velocity":32,"Duration":89820,"SoundDuration":89820,"Delta":35373055},{"NoteNumber":65,"Velocity":32,"Duration":89820,"SoundDuration":89820,"Delta":35462875},{"NoteNumber":66,"Velocity":32,"Duration":89820,"SoundDuration":89820,"Delta":35552695},{"NoteNumber":68,"Velocity":32,"Duration":89820,"SoundDuration":89820,"Delta":35642515},{"NoteNumber":81,"Velocity":42,"Duration":88235,"SoundDuration":88235,"Delta":35732336},{"NoteNumber":69,"Velocity":32,"Duration":88235,"SoundDuration":88235,"Delta":35732336},{"NoteNumber":80,"Velocity":41,"Duration":88235,"SoundDuration":88235,"Delta":35820571},{"NoteNumber":79,"Velocity":40,"Duration":88235,"SoundDuration":88235,"Delta":35908806},{"NoteNumber":78,"Velocity":39,"Duration":88235,"SoundDuration":88235,"Delta":35997041},{"NoteNumber":77,"Velocity":37,"Duration":88235,"SoundDuration":88235,"Delta":36085277},{"NoteNumber":76,"Velocity":36,"Duration":88235,"SoundDuration":88235,"Delta":36173512},{"NoteNumber":75,"Velocity":35,"Duration":94020,"SoundDuration":94020,"Delta":36261747},{"NoteNumber":57,"Velocity":30,"Duration":94020,"SoundDuration":94020,"Delta":36261747},{"NoteNumber":56,"Velocity":29,"Duration":96593,"SoundDuration":96593,"Delta":36355767},{"NoteNumber":55,"Velocity":28,"Duration":99344,"SoundDuration":99344,"Delta":36452361},{"NoteNumber":54,"Velocity":27,"Duration":102303,"SoundDuration":102303,"Delta":36551705},{"NoteNumber":53,"Velocity":26,"Duration":105357,"SoundDuration":105357,"Delta":36654009},{"NoteNumber":51,"Velocity":25,"Duration":108664,"SoundDuration":108664,"Delta":36759366},{"NoteNumber":71,"Velocity":38,"Duration":1412432,"SoundDuration":1412432,"Delta":36868031},{"NoteNumber":77,"Velocity":59,"Duration":930231,"SoundDuration":930231,"Delta":36868031},{"NoteNumber":49,"Velocity":30,"Duration":116278,"SoundDuration":116278,"Delta":36868031},{"NoteNumber":56,"Velocity":28,"Duration":116278,"SoundDuration":116278,"Delta":36984310},{"NoteNumber":61,"Velocity":30,"Duration":116279,"SoundDuration":116279,"Delta":37100589},{"NoteNumber":65,"Velocity":34,"Duration":116278,"SoundDuration":116278,"Delta":37216868},{"NoteNumber":61,"Velocity":31,"Duration":116278,"SoundDuration":116278,"Delta":37333147},{"NoteNumber":56,"Velocity":30,"Duration":116278,"SoundDuration":116278,"Delta":37449426},{"NoteNumber":49,"Velocity":28,"Duration":116278,"SoundDuration":116278,"Delta":37565705},{"NoteNumber":59,"Velocity":28,"Duration":116278,"SoundDuration":116278,"Delta":37681984},{"NoteNumber":75,"Velocity":53,"Duration":353995,"SoundDuration":353995,"Delta":37798263},{"NoteNumber":61,"Velocity":30,"Duration":116371,"SoundDuration":116371,"Delta":37798263},{"NoteNumber":65,"Velocity":31,"Duration":117972,"SoundDuration":117972,"Delta":37914634},{"NoteNumber":61,"Velocity":30,"Duration":119651,"SoundDuration":119651,"Delta":38032607},{"NoteNumber":73,"Velocity":52,"Duration":117521,"SoundDuration":117521,"Delta":38152258},{"NoteNumber":59,"Velocity":29,"Duration":128205,"SoundDuration":128205,"Delta":38152258},{"NoteNumber":71,"Velocity":38,"Duration":694980,"SoundDuration":694980,"Delta":38280464},{"NoteNumber":73,"Velocity":54,"Duration":694980,"SoundDuration":694980,"Delta":38280464},{"NoteNumber":54,"Velocity":28,"Duration":115830,"SoundDuration":115830,"Delta":38280464},{"NoteNumber":59,"Velocity":28,"Duration":115829,"SoundDuration":115829,"Delta":38396294},{"NoteNumber":61,"Velocity":31,"Duration":115830,"SoundDuration":115830,"Delta":38512124},{"NoteNumber":66,"Velocity":34,"Duration":115830,"SoundDuration":115830,"Delta":38627954},{"NoteNumber":61,"Velocity":31,"Duration":115829,"SoundDuration":115829,"Delta":38743784},{"NoteNumber":59,"Velocity":29,"Duration":115830,"SoundDuration":115830,"Delta":38859614},{"NoteNumber":70,"Velocity":56,"Duration":646492,"SoundDuration":646492,"Delta":38975444},{"NoteNumber":78,"Velocity":56,"Duration":1069027,"SoundDuration":1069027,"Delta":38975444},{"NoteNumber":49,"Velocity":30,"Duration":109356,"SoundDuration":109356,"Delta":38975444},{"NoteNumber":58,"Velocity":28,"Duration":108722,"SoundDuration":108722,"Delta":39084800},{"NoteNumber":61,"Velocity":30,"Duration":108069,"SoundDuration":108069,"Delta":39193522},{"NoteNumber":66,"Velocity":33,"Duration":107398,"SoundDuration":107398,"Delta":39301592},{"NoteNumber":61,"Velocity":31,"Duration":106787,"SoundDuration":106787,"Delta":39408991},{"NoteNumber":58,"Velocity":30,"Duration":106157,"SoundDuration":106157,"Delta":39515778},{"NoteNumber":71,"Velocity":50,"Duration":1323589,"SoundDuration":1323589,"Delta":39621936},{"NoteNumber":56,"Velocity":30,"Duration":105633,"SoundDuration":105633,"Delta":39621936},{"NoteNumber":59,"Velocity":28,"Duration":105633,"SoundDuration":105633,"Delta":39727569},{"NoteNumber":61,"Velocity":30,"Duration":105633,"SoundDuration":105633,"Delta":39833203},{"NoteNumber":68,"Velocity":33,"Duration":105633,"SoundDuration":105633,"Delta":39938837},{"NoteNumber":77,"Velocity":52,"Duration":209853,"SoundDuration":209853,"Delta":40044471},{"NoteNumber":61,"Velocity":31,"Duration":109489,"SoundDuration":109489,"Delta":40044471},{"NoteNumber":59,"Velocity":29,"Duration":109488,"SoundDuration":109488,"Delta":40153960},{"NoteNumber":77,"Velocity":51,"Duration":215160,"SoundDuration":215160,"Delta":40263449},{"NoteNumber":49,"Velocity":30,"Duration":107401,"SoundDuration":107401,"Delta":40263449},{"NoteNumber":59,"Velocity":28,"Duration":107759,"SoundDuration":107759,"Delta":40370850},{"NoteNumber":75,"Velocity":50,"Duration":217433,"SoundDuration":217433,"Delta":40478609},{"NoteNumber":61,"Velocity":30,"Duration":108434,"SoundDuration":108434,"Delta":40478609},{"NoteNumber":65,"Velocity":31,"Duration":108999,"SoundDuration":108999,"Delta":40587043},{"NoteNumber":73,"Velocity":49,"Duration":249482,"SoundDuration":249482,"Delta":40696042},{"NoteNumber":61,"Velocity":30,"Duration":125523,"SoundDuration":125523,"Delta":40696042},{"NoteNumber":59,"Velocity":29,"Duration":123959,"SoundDuration":123959,"Delta":40821565},{"NoteNumber":70,"Velocity":44,"Duration":643625,"SoundDuration":643625,"Delta":40945525},{"NoteNumber":73,"Velocity":44,"Duration":643625,"SoundDuration":643625,"Delta":40945525},{"NoteNumber":82,"Velocity":56,"Duration":643625,"SoundDuration":643625,"Delta":40945525},{"NoteNumber":54,"Velocity":32,"Duration":109583,"SoundDuration":109583,"Delta":40945525},{"NoteNumber":58,"Velocity":30,"Duration":108657,"SoundDuration":108657,"Delta":41055108},{"NoteNumber":61,"Velocity":34,"Duration":107707,"SoundDuration":107707,"Delta":41163765},{"NoteNumber":66,"Velocity":35,"Duration":106787,"SoundDuration":106787,"Delta":41271473},{"NoteNumber":61,"Velocity":34,"Duration":105907,"SoundDuration":105907,"Delta":41378261},{"NoteNumber":58,"Velocity":33,"Duration":104981,"SoundDuration":104981,"Delta":41484169},{"NoteNumber":68,"Velocity":44,"Duration":759960,"SoundDuration":759960,"Delta":41589150},{"NoteNumber":73,"Velocity":44,"Duration":759960,"SoundDuration":759960,"Delta":41589150},{"NoteNumber":82,"Velocity":62,"Duration":489690,"SoundDuration":489690,"Delta":41589150},{"NoteNumber":52,"Velocity":33,"Duration":120482,"SoundDuration":120482,"Delta":41589150},{"NoteNumber":58,"Velocity":36,"Duration":119928,"SoundDuration":119928,"Delta":41709632},{"NoteNumber":61,"Velocity":39,"Duration":124481,"SoundDuration":124481,"Delta":41829560},{"NoteNumber":68,"Velocity":37,"Duration":124799,"SoundDuration":124799,"Delta":41954042},{"NoteNumber":82,"Velocity":64,"Duration":260135,"SoundDuration":260135,"Delta":42078841},{"NoteNumber":61,"Velocity":34,"Duration":135135,"SoundDuration":135135,"Delta":42078841},{"NoteNumber":58,"Velocity":31,"Duration":135135,"SoundDuration":135135,"Delta":42213976},{"NoteNumber":67,"Velocity":44,"Duration":67567,"SoundDuration":67567,"Delta":42281544},{"NoteNumber":73,"Velocity":45,"Duration":1498589,"SoundDuration":1498589,"Delta":42349111},{"NoteNumber":82,"Velocity":68,"Duration":478087,"SoundDuration":478087,"Delta":42349111},{"NoteNumber":51,"Velocity":36,"Duration":119522,"SoundDuration":119522,"Delta":42349111},{"NoteNumber":58,"Velocity":38,"Duration":119521,"SoundDuration":119521,"Delta":42468633},{"NoteNumber":61,"Velocity":41,"Duration":119522,"SoundDuration":119522,"Delta":42588155},{"NoteNumber":67,"Velocity":45,"Duration":119521,"SoundDuration":119521,"Delta":42707677},{"NoteNumber":75,"Velocity":57,"Duration":265119,"SoundDuration":265119,"Delta":42827199},{"NoteNumber":61,"Velocity":42,"Duration":132158,"SoundDuration":132158,"Delta":42827199},{"NoteNumber":58,"Velocity":39,"Duration":132961,"SoundDuration":132961,"Delta":42959358},{"NoteNumber":75,"Velocity":57,"Duration":236220,"SoundDuration":236220,"Delta":43092319},{"NoteNumber":55,"Velocity":39,"Duration":118110,"SoundDuration":118110,"Delta":43092319},{"NoteNumber":61,"Velocity":38,"Duration":118110,"SoundDuration":118110,"Delta":43210429},{"NoteNumber":77,"Velocity":51,"Duration":59055,"SoundDuration":59055,"Delta":43328539},{"NoteNumber":63,"Velocity":41,"Duration":118110,"SoundDuration":118110,"Delta":43328539},{"NoteNumber":79,"Velocity":51,"Duration":59055,"SoundDuration":59055,"Delta":43387595},{"NoteNumber":77,"Velocity":56,"Duration":257510,"SoundDuration":257510,"Delta":43446650},{"NoteNumber":70,"Velocity":46,"Duration":128755,"SoundDuration":128755,"Delta":43446650},{"NoteNumber":63,"Velocity":42,"Duration":128755,"SoundDuration":128755,"Delta":43575405},{"NoteNumber":75,"Velocity":56,"Duration":131579,"SoundDuration":131579,"Delta":43704160},{"NoteNumber":61,"Velocity":39,"Duration":143540,"SoundDuration":143540,"Delta":43704160},{"NoteNumber":73,"Velocity":49,"Duration":647482,"SoundDuration":647482,"Delta":43847701},{"NoteNumber":75,"Velocity":59,"Duration":647482,"SoundDuration":647482,"Delta":43847701},{"NoteNumber":56,"Velocity":38,"Duration":107913,"SoundDuration":107913,"Delta":43847701},{"NoteNumber":61,"Velocity":38,"Duration":107913,"SoundDuration":107913,"Delta":43955615},{"NoteNumber":63,"Velocity":42,"Duration":107913,"SoundDuration":107913,"Delta":44063529},{"NoteNumber":68,"Velocity":45,"Duration":107913,"SoundDuration":107913,"Delta":44171442},{"NoteNumber":63,"Velocity":41,"Duration":107913,"SoundDuration":107913,"Delta":44279356},{"NoteNumber":61,"Velocity":38,"Duration":107913,"SoundDuration":107913,"Delta":44387270},{"NoteNumber":72,"Velocity":53,"Duration":608107,"SoundDuration":608107,"Delta":44495184},{"NoteNumber":80,"Velocity":64,"Duration":810809,"SoundDuration":810809,"Delta":44495184},{"NoteNumber":51,"Velocity":38,"Duration":101351,"SoundDuration":101351,"Delta":44495184},{"NoteNumber":60,"Velocity":37,"Duration":101351,"SoundDuration":101351,"Delta":44596535},{"NoteNumber":63,"Velocity":40,"Duration":101351,"SoundDuration":101351,"Delta":44697886},{"NoteNumber":68,"Velocity":44,"Duration":101351,"SoundDuration":101351,"Delta":44799237},{"NoteNumber":63,"Velocity":41,"Duration":101351,"SoundDuration":101351,"Delta":44900589},{"NoteNumber":60,"Velocity":39,"Duration":101351,"SoundDuration":101351,"Delta":45001940},{"NoteNumber":73,"Velocity":55,"Duration":1409974,"SoundDuration":1409974,"Delta":45103291},{"NoteNumber":58,"Velocity":39,"Duration":101351,"SoundDuration":101351,"Delta":45103291},{"NoteNumber":61,"Velocity":37,"Duration":101351,"SoundDuration":101351,"Delta":45204642},{"NoteNumber":79,"Velocity":60,"Duration":202702,"SoundDuration":202702,"Delta":45305993},{"NoteNumber":63,"Velocity":40,"Duration":101351,"SoundDuration":101351,"Delta":45305993},{"NoteNumber":70,"Velocity":42,"Duration":101351,"SoundDuration":101351,"Delta":45407345},{"NoteNumber":77,"Velocity":59,"Duration":209789,"SoundDuration":209789,"Delta":45508696},{"NoteNumber":63,"Velocity":41,"Duration":104894,"SoundDuration":104894,"Delta":45508696},{"NoteNumber":61,"Velocity":39,"Duration":104894,"SoundDuration":104894,"Delta":45613591},{"NoteNumber":79,"Velocity":60,"Duration":209790,"SoundDuration":209790,"Delta":45718486},{"NoteNumber":51,"Velocity":38,"Duration":104894,"SoundDuration":104894,"Delta":45718486},{"NoteNumber":61,"Velocity":36,"Duration":104895,"SoundDuration":104895,"Delta":45823381},{"NoteNumber":77,"Velocity":59,"Duration":420154,"SoundDuration":420154,"Delta":45928276},{"NoteNumber":63,"Velocity":38,"Duration":127659,"SoundDuration":127659,"Delta":45928276},{"NoteNumber":67,"Velocity":40,"Duration":127659,"SoundDuration":127659,"Delta":46055936},{"NoteNumber":63,"Velocity":40,"Duration":164835,"SoundDuration":164835,"Delta":46183595},{"NoteNumber":75,"Velocity":56,"Duration":164835,"SoundDuration":164835,"Delta":46348430},{"NoteNumber":61,"Velocity":37,"Duration":164835,"SoundDuration":164835,"Delta":46348430},{"NoteNumber":72,"Velocity":56,"Duration":1517152,"SoundDuration":1517152,"Delta":46513266},{"NoteNumber":84,"Velocity":56,"Duration":648711,"SoundDuration":648711,"Delta":46513266},{"NoteNumber":56,"Velocity":38,"Duration":110091,"SoundDuration":110091,"Delta":46513266},{"NoteNumber":60,"Velocity":40,"Duration":109290,"SoundDuration":109290,"Delta":46623357},{"NoteNumber":63,"Velocity":44,"Duration":108499,"SoundDuration":108499,"Delta":46732647},{"NoteNumber":68,"Velocity":45,"Duration":107720,"SoundDuration":107720,"Delta":46841147},{"NoteNumber":63,"Velocity":44,"Duration":106952,"SoundDuration":106952,"Delta":46948867},{"NoteNumber":60,"Velocity":42,"Duration":106157,"SoundDuration":106157,"Delta":47055819},{"NoteNumber":84,"Velocity":64,"Duration":560747,"SoundDuration":560747,"Delta":47161977},{"NoteNumber":55,"Velocity":40,"Duration":868440,"SoundDuration":868440,"Delta":47161977},{"NoteNumber":56,"Velocity":41,"Duration":140187,"SoundDuration":140187,"Delta":47302164},{"NoteNumber":60,"Velocity":45,"Duration":140186,"SoundDuration":140186,"Delta":47442351},{"NoteNumber":63,"Velocity":49,"Duration":140186,"SoundDuration":140186,"Delta":47582538},{"NoteNumber":84,"Velocity":63,"Duration":294871,"SoundDuration":294871,"Delta":47722725},{"NoteNumber":60,"Velocity":47,"Duration":153846,"SoundDuration":153846,"Delta":47722725},{"NoteNumber":56,"Velocity":41,"Duration":153846,"SoundDuration":153846,"Delta":47876571},{"NoteNumber":84,"Velocity":68,"Duration":1004184,"SoundDuration":1004184,"Delta":48030418},{"NoteNumber":54,"Velocity":36,"Duration":753137,"SoundDuration":753137,"Delta":48030418},{"NoteNumber":56,"Velocity":36,"Duration":125523,"SoundDuration":125523,"Delta":48155941},{"NoteNumber":60,"Velocity":39,"Duration":125523,"SoundDuration":125523,"Delta":48281464},{"NoteNumber":63,"Velocity":42,"Duration":125522,"SoundDuration":125522,"Delta":48406987},{"NoteNumber":60,"Velocity":41,"Duration":125523,"SoundDuration":125523,"Delta":48532510},{"NoteNumber":56,"Velocity":38,"Duration":125523,"SoundDuration":125523,"Delta":48658033},{"NoteNumber":54,"Velocity":38,"Duration":722020,"SoundDuration":722020,"Delta":48783556},{"NoteNumber":56,"Velocity":41,"Duration":125523,"SoundDuration":125523,"Delta":48909079},{"NoteNumber":82,"Velocity":63,"Duration":354330,"SoundDuration":354330,"Delta":49034602},{"NoteNumber":60,"Velocity":41,"Duration":118110,"SoundDuration":118110,"Delta":49034602},{"NoteNumber":63,"Velocity":41,"Duration":118110,"SoundDuration":118110,"Delta":49152712},{"NoteNumber":60,"Velocity":38,"Duration":118110,"SoundDuration":118110,"Delta":49270822},{"NoteNumber":80,"Velocity":63,"Duration":108023,"SoundDuration":108023,"Delta":49388932},{"NoteNumber":56,"Velocity":35,"Duration":116644,"SoundDuration":116644,"Delta":49388932},{"NoteNumber":80,"Velocity":63,"Duration":608168,"SoundDuration":608168,"Delta":49505576},{"NoteNumber":53,"Velocity":33,"Duration":608168,"SoundDuration":608168,"Delta":49505576},{"NoteNumber":56,"Velocity":33,"Duration":102447,"SoundDuration":102447,"Delta":49608776},{"NoteNumber":61,"Velocity":36,"Duration":101718,"SoundDuration":101718,"Delta":49711224},{"NoteNumber":65,"Velocity":39,"Duration":100976,"SoundDuration":100976,"Delta":49812943},{"NoteNumber":61,"Velocity":37,"Duration":100279,"SoundDuration":100279,"Delta":49913919},{"NoteNumber":56,"Velocity":35,"Duration":99546,"SoundDuration":99546,"Delta":50014198},{"NoteNumber":85,"Velocity":75,"Duration":594059,"SoundDuration":594059,"Delta":50113745},{"NoteNumber":53,"Velocity":35,"Duration":99009,"SoundDuration":99009,"Delta":50113745},{"NoteNumber":56,"Velocity":38,"Duration":99009,"SoundDuration":99009,"Delta":50212755},{"NoteNumber":61,"Velocity":41,"Duration":99009,"SoundDuration":99009,"Delta":50311765},{"NoteNumber":68,"Velocity":42,"Duration":99009,"SoundDuration":99009,"Delta":50410775},{"NoteNumber":61,"Velocity":40,"Duration":99009,"SoundDuration":99009,"Delta":50509785},{"NoteNumber":56,"Velocity":37,"Duration":99009,"SoundDuration":99009,"Delta":50608795},{"NoteNumber":85,"Velocity":82,"Duration":396039,"SoundDuration":396039,"Delta":50707805},{"NoteNumber":51,"Velocity":35,"Duration":99009,"SoundDuration":99009,"Delta":50707805},{"NoteNumber":56,"Velocity":38,"Duration":99009,"SoundDuration":99009,"Delta":50806815},{"NoteNumber":60,"Velocity":41,"Duration":99009,"SoundDuration":99009,"Delta":50905825},{"NoteNumber":66,"Velocity":41,"Duration":99009,"SoundDuration":99009,"Delta":51004835},{"NoteNumber":84,"Velocity":78,"Duration":198019,"SoundDuration":198019,"Delta":51103845},{"NoteNumber":60,"Velocity":39,"Duration":99009,"SoundDuration":99009,"Delta":51103845},{"NoteNumber":56,"Velocity":36,"Duration":99009,"SoundDuration":99009,"Delta":51202855},{"NoteNumber":84,"Velocity":75,"Duration":208333,"SoundDuration":208333,"Delta":51301865},{"NoteNumber":51,"Velocity":35,"Duration":104166,"SoundDuration":104166,"Delta":51301865},{"NoteNumber":56,"Velocity":34,"Duration":104166,"SoundDuration":104166,"Delta":51406032},{"NoteNumber":82,"Velocity":71,"Duration":360817,"SoundDuration":360817,"Delta":51510199},{"NoteNumber":60,"Velocity":37,"Duration":117646,"SoundDuration":117646,"Delta":51510199},{"NoteNumber":66,"Velocity":39,"Duration":117647,"SoundDuration":117647,"Delta":51627846},{"NoteNumber":60,"Velocity":36,"Duration":125523,"SoundDuration":125523,"Delta":51745493},{"NoteNumber":80,"Velocity":63,"Duration":125523,"SoundDuration":125523,"Delta":51871016},{"NoteNumber":56,"Velocity":31,"Duration":125523,"SoundDuration":125523,"Delta":51871016},{"NoteNumber":89,"Velocity":80,"Duration":753137,"SoundDuration":753137,"Delta":51996539},{"NoteNumber":50,"Velocity":32,"Duration":125523,"SoundDuration":125523,"Delta":51996539},{"NoteNumber":56,"Velocity":31,"Duration":125522,"SoundDuration":125522,"Delta":52122062},{"NoteNumber":59,"Velocity":35,"Duration":125523,"SoundDuration":125523,"Delta":52247585},{"NoteNumber":65,"Velocity":37,"Duration":125523,"SoundDuration":125523,"Delta":52373108},{"NoteNumber":59,"Velocity":36,"Duration":125523,"SoundDuration":125523,"Delta":52498631},{"NoteNumber":56,"Velocity":34,"Duration":125523,"SoundDuration":125523,"Delta":52624154},{"NoteNumber":89,"Velocity":77,"Duration":582523,"SoundDuration":582523,"Delta":52749677},{"NoteNumber":50,"Velocity":33,"Duration":145631,"SoundDuration":145631,"Delta":52749677},{"NoteNumber":56,"Velocity":30,"Duration":145631,"SoundDuration":145631,"Delta":52895308},{"NoteNumber":58,"Velocity":35,"Duration":145630,"SoundDuration":145630,"Delta":53040939},{"NoteNumber":65,"Velocity":37,"Duration":145631,"SoundDuration":145631,"Delta":53186570},{"NoteNumber":89,"Velocity":81,"Duration":342262,"SoundDuration":342262,"Delta":53332201},{"NoteNumber":58,"Velocity":36,"Duration":178571,"SoundDuration":178571,"Delta":53332201},{"NoteNumber":56,"Velocity":34,"Duration":178571,"SoundDuration":178571,"Delta":53510772},{"NoteNumber":89,"Velocity":85,"Duration":780697,"SoundDuration":780697,"Delta":53689344},{"NoteNumber":51,"Velocity":35,"Duration":134010,"SoundDuration":134010,"Delta":53689344},{"NoteNumber":54,"Velocity":35,"Duration":132452,"SoundDuration":132452,"Delta":53823354},{"NoteNumber":58,"Velocity":38,"Duration":130835,"SoundDuration":130835,"Delta":53955807},{"NoteNumber":63,"Velocity":39,"Duration":129311,"SoundDuration":129311,"Delta":54086642},{"NoteNumber":58,"Velocity":38,"Duration":127770,"SoundDuration":127770,"Delta":54215954},{"NoteNumber":54,"Velocity":36,"Duration":126317,"SoundDuration":126317,"Delta":54343724},{"NoteNumber":87,"Velocity":72,"Duration":263157,"SoundDuration":263157,"Delta":54470042},{"NoteNumber":42,"Velocity":32,"Duration":131579,"SoundDuration":131579,"Delta":54470042},{"NoteNumber":54,"Velocity":31,"Duration":131578,"SoundDuration":131578,"Delta":54601621},{"NoteNumber":85,"Velocity":71,"Duration":263158,"SoundDuration":263158,"Delta":54733200},{"NoteNumber":58,"Velocity":36,"Duration":131579,"SoundDuration":131579,"Delta":54733200},{"NoteNumber":63,"Velocity":38,"Duration":131579,"SoundDuration":131579,"Delta":54864779},{"NoteNumber":82,"Velocity":70,"Duration":263157,"SoundDuration":263157,"Delta":54996358},{"NoteNumber":58,"Velocity":36,"Duration":131579,"SoundDuration":131579,"Delta":54996358},{"NoteNumber":54,"Velocity":34,"Duration":131578,"SoundDuration":131578,"Delta":55127937},{"NoteNumber":84,"Velocity":75,"Duration":789473,"SoundDuration":789473,"Delta":55259516},{"NoteNumber":44,"Velocity":34,"Duration":131579,"SoundDuration":131579,"Delta":55259516},{"NoteNumber":53,"Velocity":36,"Duration":131579,"SoundDuration":131579,"Delta":55391095},{"NoteNumber":56,"Velocity":37,"Duration":131578,"SoundDuration":131578,"Delta":55522674},{"NoteNumber":61,"Velocity":39,"Duration":131579,"SoundDuration":131579,"Delta":55654253},{"NoteNumber":56,"Velocity":37,"Duration":131579,"SoundDuration":131579,"Delta":55785832},{"NoteNumber":53,"Velocity":35,"Duration":131578,"SoundDuration":131578,"Delta":55917411},{"NoteNumber":82,"Velocity":71,"Duration":263158,"SoundDuration":263158,"Delta":56048990},{"NoteNumber":44,"Velocity":36,"Duration":131579,"SoundDuration":131579,"Delta":56048990},{"NoteNumber":53,"Velocity":34,"Duration":131579,"SoundDuration":131579,"Delta":56180569},{"NoteNumber":80,"Velocity":68,"Duration":263157,"SoundDuration":263157,"Delta":56312148},{"NoteNumber":56,"Velocity":35,"Duration":131579,"SoundDuration":131579,"Delta":56312148},{"NoteNumber":61,"Velocity":38,"Duration":131578,"SoundDuration":131578,"Delta":56443727},{"NoteNumber":77,"Velocity":63,"Duration":263158,"SoundDuration":263158,"Delta":56575306},{"NoteNumber":56,"Velocity":37,"Duration":131579,"SoundDuration":131579,"Delta":56575306},{"NoteNumber":53,"Velocity":36,"Duration":131579,"SoundDuration":131579,"Delta":56706885},{"NoteNumber":82,"Velocity":69,"Duration":263157,"SoundDuration":263157,"Delta":56838464},{"NoteNumber":44,"Velocity":36,"Duration":131578,"SoundDuration":131578,"Delta":56838464},{"NoteNumber":54,"Velocity":34,"Duration":131579,"SoundDuration":131579,"Delta":56970043},{"NoteNumber":80,"Velocity":64,"Duration":263157,"SoundDuration":263157,"Delta":57101622},{"NoteNumber":56,"Velocity":36,"Duration":131579,"SoundDuration":131579,"Delta":57101622},{"NoteNumber":60,"Velocity":36,"Duration":131578,"SoundDuration":131578,"Delta":57233201},{"NoteNumber":78,"Velocity":61,"Duration":263158,"SoundDuration":263158,"Delta":57364780},{"NoteNumber":56,"Velocity":35,"Duration":131579,"SoundDuration":131579,"Delta":57364780},{"NoteNumber":54,"Velocity":34,"Duration":131579,"SoundDuration":131579,"Delta":57496359},{"NoteNumber":78,"Velocity":55,"Duration":68493,"SoundDuration":68493,"Delta":57627938},{"NoteNumber":44,"Velocity":34,"Duration":136986,"SoundDuration":136986,"Delta":57627938},{"NoteNumber":80,"Velocity":55,"Duration":68493,"SoundDuration":68493,"Delta":57696431},{"NoteNumber":78,"Velocity":63,"Duration":136986,"SoundDuration":136986,"Delta":57764924},{"NoteNumber":54,"Velocity":31,"Duration":136986,"SoundDuration":136986,"Delta":57764924},{"NoteNumber":77,"Velocity":58,"Duration":471961,"SoundDuration":471961,"Delta":57901910},{"NoteNumber":56,"Velocity":35,"Duration":150753,"SoundDuration":150753,"Delta":57901910},{"NoteNumber":60,"Velocity":37,"Duration":150753,"SoundDuration":150753,"Delta":58052664},{"NoteNumber":56,"Velocity":35,"Duration":170454,"SoundDuration":170454,"Delta":58203418},{"NoteNumber":76,"Velocity":59,"Duration":156249,"SoundDuration":156249,"Delta":58373872},{"NoteNumber":54,"Velocity":33,"Duration":170454,"SoundDuration":170454,"Delta":58373872},{"NoteNumber":76,"Velocity":59,"Duration":867948,"SoundDuration":867948,"Delta":58544327},{"NoteNumber":49,"Velocity":34,"Duration":150002,"SoundDuration":150002,"Delta":58544327},{"NoteNumber":56,"Velocity":33,"Duration":147785,"SoundDuration":147785,"Delta":58694329},{"NoteNumber":61,"Velocity":36,"Duration":145633,"SoundDuration":145633,"Delta":58842115},{"NoteNumber":65,"Velocity":37,"Duration":143542,"SoundDuration":143542,"Delta":58987748},{"NoteNumber":61,"Velocity":36,"Duration":141511,"SoundDuration":141511,"Delta":59131291},{"NoteNumber":58,"Velocity":35,"Duration":139472,"SoundDuration":139472,"Delta":59272803},{"NoteNumber":77,"Velocity":63,"Duration":552995,"SoundDuration":552995,"Delta":59412275},{"NoteNumber":56,"Velocity":37,"Duration":276497,"SoundDuration":276497,"Delta":59412275},{"NoteNumber":61,"Velocity":36,"Duration":138248,"SoundDuration":138248,"Delta":59550524},{"NoteNumber":65,"Velocity":39,"Duration":138248,"SoundDuration":138248,"Delta":59688773},{"NoteNumber":68,"Velocity":40,"Duration":138248,"SoundDuration":138248,"Delta":59827022},{"NoteNumber":80,"Velocity":57,"Duration":258620,"SoundDuration":258620,"Delta":59965271},{"NoteNumber":65,"Velocity":39,"Duration":129310,"SoundDuration":129310,"Delta":59965271},{"NoteNumber":61,"Velocity":38,"Duration":129310,"SoundDuration":129310,"Delta":60094581},{"NoteNumber":68,"Velocity":57,"Duration":517240,"SoundDuration":517240,"Delta":60223891},{"NoteNumber":54,"Velocity":42,"Duration":775861,"SoundDuration":775861,"Delta":60223891},{"NoteNumber":80,"Velocity":57,"Duration":711206,"SoundDuration":711206,"Delta":60288546},{"NoteNumber":56,"Velocity":42,"Duration":129310,"SoundDuration":129310,"Delta":60353201},{"NoteNumber":60,"Velocity":42,"Duration":129310,"SoundDuration":129310,"Delta":60482511},{"NoteNumber":63,"Velocity":42,"Duration":129310,"SoundDuration":129310,"Delta":60611822},{"NoteNumber":72,"Velocity":63,"Duration":558620,"SoundDuration":558620,"Delta":60741132},{"NoteNumber":60,"Velocity":42,"Duration":129310,"SoundDuration":129310,"Delta":60741132},{"NoteNumber":56,"Velocity":42,"Duration":129310,"SoundDuration":129310,"Delta":60870442},{"NoteNumber":84,"Velocity":63,"Duration":299999,"SoundDuration":299999,"Delta":60999752},{"NoteNumber":54,"Velocity":51,"Duration":770974,"SoundDuration":770974,"Delta":60999752},{"NoteNumber":56,"Velocity":45,"Duration":149999,"SoundDuration":149999,"Delta":61149752},{"NoteNumber":70,"Velocity":63,"Duration":354330,"SoundDuration":354330,"Delta":61299752},{"NoteNumber":82,"Velocity":63,"Duration":354330,"SoundDuration":354330,"Delta":61299752},{"NoteNumber":60,"Velocity":45,"Duration":118110,"SoundDuration":118110,"Delta":61299752},{"NoteNumber":63,"Velocity":45,"Duration":118110,"SoundDuration":118110,"Delta":61417863},{"NoteNumber":60,"Velocity":41,"Duration":118110,"SoundDuration":118110,"Delta":61535973},{"NoteNumber":68,"Velocity":63,"Duration":108023,"SoundDuration":108023,"Delta":61654083},{"NoteNumber":80,"Velocity":63,"Duration":108023,"SoundDuration":108023,"Delta":61654083},{"NoteNumber":56,"Velocity":38,"Duration":116644,"SoundDuration":116644,"Delta":61654083},{"NoteNumber":68,"Velocity":63,"Duration":608168,"SoundDuration":608168,"Delta":61770727},{"NoteNumber":80,"Velocity":63,"Duration":1202228,"SoundDuration":1202228,"Delta":61770727},{"NoteNumber":53,"Velocity":37,"Duration":608168,"SoundDuration":608168,"Delta":61770727},{"NoteNumber":56,"Velocity":36,"Duration":102447,"SoundDuration":102447,"Delta":61873927},{"NoteNumber":61,"Velocity":39,"Duration":101718,"SoundDuration":101718,"Delta":61976375},{"NoteNumber":65,"Velocity":42,"Duration":100976,"SoundDuration":100976,"Delta":62078093},{"NoteNumber":61,"Velocity":40,"Duration":100279,"SoundDuration":100279,"Delta":62179070},{"NoteNumber":56,"Velocity":38,"Duration":99546,"SoundDuration":99546,"Delta":62279349},{"NoteNumber":73,"Velocity":75,"Duration":594059,"SoundDuration":594059,"Delta":62378896},{"NoteNumber":85,"Velocity":75,"Duration":594059,"SoundDuration":594059,"Delta":62378896},{"NoteNumber":53,"Velocity":39,"Duration":99009,"SoundDuration":99009,"Delta":62378896},{"NoteNumber":56,"Velocity":41,"Duration":99009,"SoundDuration":99009,"Delta":62477906},{"NoteNumber":61,"Velocity":45,"Duration":99009,"SoundDuration":99009,"Delta":62576916},{"NoteNumber":68,"Velocity":46,"Duration":99009,"SoundDuration":99009,"Delta":62675926},{"NoteNumber":61,"Velocity":44,"Duration":99009,"SoundDuration":99009,"Delta":62774936},{"NoteNumber":56,"Velocity":40,"Duration":99009,"SoundDuration":99009,"Delta":62873946},{"NoteNumber":80,"Velocity":60,"Duration":920040,"SoundDuration":920040,"Delta":62972956},{"NoteNumber":73,"Velocity":75,"Duration":396039,"SoundDuration":396039,"Delta":62972956},{"NoteNumber":85,"Velocity":75,"Duration":396039,"SoundDuration":396039,"Delta":62972956},{"NoteNumber":51,"Velocity":39,"Duration":99009,"SoundDuration":99009,"Delta":62972956},{"NoteNumber":56,"Velocity":41,"Duration":99009,"SoundDuration":99009,"Delta":63071966},{"NoteNumber":60,"Velocity":45,"Duration":99009,"SoundDuration":99009,"Delta":63170976},{"NoteNumber":66,"Velocity":45,"Duration":99009,"SoundDuration":99009,"Delta":63269986},{"NoteNumber":72,"Velocity":78,"Duration":198019,"SoundDuration":198019,"Delta":63368996},{"NoteNumber":84,"Velocity":78,"Duration":198019,"SoundDuration":198019,"Delta":63368996},{"NoteNumber":60,"Velocity":42,"Duration":99009,"SoundDuration":99009,"Delta":63368996},{"NoteNumber":56,"Velocity":39,"Duration":99009,"SoundDuration":99009,"Delta":63468006},{"NoteNumber":72,"Velocity":75,"Duration":325980,"SoundDuration":325980,"Delta":63567016},{"NoteNumber":84,"Velocity":75,"Duration":325980,"SoundDuration":325980,"Delta":63567016},{"NoteNumber":51,"Velocity":37,"Duration":104166,"SoundDuration":104166,"Delta":63567016},{"NoteNumber":56,"Velocity":37,"Duration":104166,"SoundDuration":104166,"Delta":63671183},{"NoteNumber":60,"Velocity":40,"Duration":117646,"SoundDuration":117646,"Delta":63775350},{"NoteNumber":70,"Velocity":71,"Duration":117647,"SoundDuration":117647,"Delta":63892997},{"NoteNumber":82,"Velocity":71,"Duration":117647,"SoundDuration":117647,"Delta":63892997},{"NoteNumber":66,"Velocity":42,"Duration":117647,"SoundDuration":117647,"Delta":63892997},{"NoteNumber":68,"Velocity":63,"Duration":240964,"SoundDuration":240964,"Delta":64010644},{"NoteNumber":80,"Velocity":63,"Duration":240964,"SoundDuration":240964,"Delta":64010644},{"NoteNumber":60,"Velocity":39,"Duration":120481,"SoundDuration":120481,"Delta":64010644},{"NoteNumber":56,"Velocity":34,"Duration":120482,"SoundDuration":120482,"Delta":64131126},{"NoteNumber":80,"Velocity":80,"Duration":722892,"SoundDuration":722892,"Delta":64251608},{"NoteNumber":77,"Velocity":68,"Duration":722892,"SoundDuration":722892,"Delta":64251608},{"NoteNumber":89,"Velocity":80,"Duration":722892,"SoundDuration":722892,"Delta":64251608},{"NoteNumber":50,"Velocity":39,"Duration":120481,"SoundDuration":120481,"Delta":64251608},{"NoteNumber":56,"Velocity":37,"Duration":120481,"SoundDuration":120481,"Delta":64372090},{"NoteNumber":59,"Velocity":41,"Duration":120482,"SoundDuration":120482,"Delta":64492572},{"NoteNumber":65,"Velocity":44,"Duration":120481,"SoundDuration":120481,"Delta":64613054},{"NoteNumber":59,"Velocity":42,"Duration":120481,"SoundDuration":120481,"Delta":64733536},{"NoteNumber":56,"Velocity":40,"Duration":120482,"SoundDuration":120482,"Delta":64854018},{"NoteNumber":77,"Velocity":65,"Duration":526315,"SoundDuration":526315,"Delta":64974500},{"NoteNumber":80,"Velocity":77,"Duration":526315,"SoundDuration":526315,"Delta":64974500},{"NoteNumber":89,"Velocity":77,"Duration":526315,"SoundDuration":526315,"Delta":64974500},{"NoteNumber":50,"Velocity":35,"Duration":131579,"SoundDuration":131579,"Delta":64974500},{"NoteNumber":56,"Velocity":36,"Duration":131579,"SoundDuration":131579,"Delta":65106079},{"NoteNumber":58,"Velocity":41,"Duration":131579,"SoundDuration":131579,"Delta":65237658},{"NoteNumber":65,"Velocity":44,"Duration":131578,"SoundDuration":131578,"Delta":65369237},{"NoteNumber":77,"Velocity":62,"Duration":287499,"SoundDuration":287499,"Delta":65500816},{"NoteNumber":80,"Velocity":74,"Duration":287499,"SoundDuration":287499,"Delta":65500816},{"NoteNumber":89,"Velocity":74,"Duration":287499,"SoundDuration":287499,"Delta":65500816},{"NoteNumber":58,"Velocity":42,"Duration":150000,"SoundDuration":150000,"Delta":65500816},{"NoteNumber":56,"Velocity":40,"Duration":149999,"SoundDuration":149999,"Delta":65650816},{"NoteNumber":77,"Velocity":69,"Duration":780697,"SoundDuration":780697,"Delta":65800816},{"NoteNumber":80,"Velocity":82,"Duration":780697,"SoundDuration":780697,"Delta":65800816},{"NoteNumber":89,"Velocity":82,"Duration":780697,"SoundDuration":780697,"Delta":65800816},{"NoteNumber":51,"Velocity":35,"Duration":134010,"SoundDuration":134010,"Delta":65800816},{"NoteNumber":54,"Velocity":38,"Duration":132452,"SoundDuration":132452,"Delta":65934826},{"NoteNumber":58,"Velocity":41,"Duration":130835,"SoundDuration":130835,"Delta":66067278},{"NoteNumber":63,"Velocity":42,"Duration":129311,"SoundDuration":129311,"Delta":66198113},{"NoteNumber":58,"Velocity":41,"Duration":127770,"SoundDuration":127770,"Delta":66327425},{"NoteNumber":54,"Velocity":39,"Duration":126317,"SoundDuration":126317,"Delta":66455196},{"NoteNumber":78,"Velocity":67,"Duration":263158,"SoundDuration":263158,"Delta":66581514},{"NoteNumber":75,"Velocity":56,"Duration":263158,"SoundDuration":263158,"Delta":66581514},{"NoteNumber":87,"Velocity":67,"Duration":263158,"SoundDuration":263158,"Delta":66581514},{"NoteNumber":42,"Velocity":34,"Duration":131579,"SoundDuration":131579,"Delta":66581514},{"NoteNumber":54,"Velocity":34,"Duration":131579,"SoundDuration":131579,"Delta":66713093},{"NoteNumber":73,"Velocity":55,"Duration":406808,"SoundDuration":406808,"Delta":66844672},{"NoteNumber":78,"Velocity":65,"Duration":406808,"SoundDuration":406808,"Delta":66844672},{"NoteNumber":85,"Velocity":65,"Duration":406808,"SoundDuration":406808,"Delta":66844672},{"NoteNumber":58,"Velocity":39,"Duration":131579,"SoundDuration":131579,"Delta":66844672},{"NoteNumber":63,"Velocity":41,"Duration":137614,"SoundDuration":137614,"Delta":66976251},{"NoteNumber":58,"Velocity":39,"Duration":137614,"SoundDuration":137614,"Delta":67113865},{"NoteNumber":70,"Velocity":54,"Duration":147058,"SoundDuration":147058,"Delta":67251480},{"NoteNumber":78,"Velocity":64,"Duration":147058,"SoundDuration":147058,"Delta":67251480},{"NoteNumber":82,"Velocity":64,"Duration":147058,"SoundDuration":147058,"Delta":67251480},{"NoteNumber":54,"Velocity":37,"Duration":147058,"SoundDuration":147058,"Delta":67251480},{"NoteNumber":72,"Velocity":52,"Duration":789473,"SoundDuration":789473,"Delta":67398539},{"NoteNumber":80,"Velocity":62,"Duration":789473,"SoundDuration":789473,"Delta":67398539},{"NoteNumber":84,"Velocity":62,"Duration":789473,"SoundDuration":789473,"Delta":67398539},{"NoteNumber":44,"Velocity":36,"Duration":131579,"SoundDuration":131579,"Delta":67398539},{"NoteNumber":53,"Velocity":39,"Duration":131579,"SoundDuration":131579,"Delta":67530118},{"NoteNumber":56,"Velocity":40,"Duration":131579,"SoundDuration":131579,"Delta":67661697},{"NoteNumber":61,"Velocity":42,"Duration":131578,"SoundDuration":131578,"Delta":67793276},{"NoteNumber":56,"Velocity":40,"Duration":131579,"SoundDuration":131579,"Delta":67924855},{"NoteNumber":53,"Velocity":38,"Duration":131579,"SoundDuration":131579,"Delta":68056434},{"NoteNumber":70,"Velocity":54,"Duration":216606,"SoundDuration":216606,"Delta":68188013},{"NoteNumber":78,"Velocity":64,"Duration":216606,"SoundDuration":216606,"Delta":68188013},{"NoteNumber":82,"Velocity":64,"Duration":216606,"SoundDuration":216606,"Delta":68188013},{"NoteNumber":44,"Velocity":35,"Duration":108303,"SoundDuration":108303,"Delta":68188013},{"NoteNumber":53,"Velocity":35,"Duration":108303,"SoundDuration":108303,"Delta":68296316},{"NoteNumber":68,"Velocity":57,"Duration":216606,"SoundDuration":216606,"Delta":68404619},{"NoteNumber":77,"Velocity":68,"Duration":216606,"SoundDuration":216606,"Delta":68404619},{"NoteNumber":80,"Velocity":68,"Duration":216606,"SoundDuration":216606,"Delta":68404619},{"NoteNumber":56,"Velocity":37,"Duration":108303,"SoundDuration":108303,"Delta":68404619},{"NoteNumber":61,"Velocity":39,"Duration":108303,"SoundDuration":108303,"Delta":68512923},{"NoteNumber":70,"Velocity":61,"Duration":235293,"SoundDuration":235293,"Delta":68621226},{"NoteNumber":77,"Velocity":72,"Duration":235293,"SoundDuration":235293,"Delta":68621226},{"NoteNumber":82,"Velocity":72,"Duration":235293,"SoundDuration":235293,"Delta":68621226},{"NoteNumber":56,"Velocity":37,"Duration":117647,"SoundDuration":117647,"Delta":68621226},{"NoteNumber":53,"Velocity":35,"Duration":117646,"SoundDuration":117646,"Delta":68738873},{"NoteNumber":77,"Velocity":77,"Duration":470588,"SoundDuration":470588,"Delta":68856520},{"NoteNumber":71,"Velocity":65,"Duration":470588,"SoundDuration":470588,"Delta":68856520},{"NoteNumber":83,"Velocity":77,"Duration":470588,"SoundDuration":470588,"Delta":68856520},{"NoteNumber":44,"Velocity":35,"Duration":117647,"SoundDuration":117647,"Delta":68856520},{"NoteNumber":53,"Velocity":37,"Duration":117647,"SoundDuration":117647,"Delta":68974167},{"NoteNumber":56,"Velocity":39,"Duration":117646,"SoundDuration":117646,"Delta":69091814},{"NoteNumber":62,"Velocity":41,"Duration":117647,"SoundDuration":117647,"Delta":69209461},{"NoteNumber":77,"Velocity":75,"Duration":235293,"SoundDuration":235293,"Delta":69327108},{"NoteNumber":70,"Velocity":63,"Duration":235293,"SoundDuration":235293,"Delta":69327108},{"NoteNumber":82,"Velocity":75,"Duration":235293,"SoundDuration":235293,"Delta":69327108},{"NoteNumber":56,"Velocity":39,"Duration":117646,"SoundDuration":117646,"Delta":69327108},{"NoteNumber":53,"Velocity":36,"Duration":117647,"SoundDuration":117647,"Delta":69444755},{"NoteNumber":71,"Velocity":66,"Duration":1176469,"SoundDuration":1176469,"Delta":69562402},{"NoteNumber":77,"Velocity":78,"Duration":1176469,"SoundDuration":1176469,"Delta":69562402},{"NoteNumber":83,"Velocity":78,"Duration":1176469,"SoundDuration":1176469,"Delta":69562402},{"NoteNumber":44,"Velocity":37,"Duration":117647,"SoundDuration":117647,"Delta":69562402},{"NoteNumber":53,"Velocity":39,"Duration":117646,"SoundDuration":117646,"Delta":69680049},{"NoteNumber":56,"Velocity":43,"Duration":117647,"SoundDuration":117647,"Delta":69797696},{"NoteNumber":62,"Velocity":48,"Duration":117647,"SoundDuration":117647,"Delta":69915343},{"NoteNumber":56,"Velocity":45,"Duration":117646,"SoundDuration":117646,"Delta":70032990},{"NoteNumber":53,"Velocity":41,"Duration":117647,"SoundDuration":117647,"Delta":70150637},{"NoteNumber":44,"Velocity":39,"Duration":117647,"SoundDuration":117647,"Delta":70268284},{"NoteNumber":53,"Velocity":40,"Duration":117646,"SoundDuration":117646,"Delta":70385931},{"NoteNumber":56,"Velocity":43,"Duration":117647,"SoundDuration":117647,"Delta":70503578},{"NoteNumber":62,"Velocity":45,"Duration":117646,"SoundDuration":117646,"Delta":70621225},{"NoteNumber":70,"Velocity":64,"Duration":209058,"SoundDuration":209058,"Delta":70738872},{"NoteNumber":77,"Velocity":76,"Duration":209058,"SoundDuration":209058,"Delta":70738872},{"NoteNumber":82,"Velocity":76,"Duration":209058,"SoundDuration":209058,"Delta":70738872},{"NoteNumber":56,"Velocity":42,"Duration":104529,"SoundDuration":104529,"Delta":70738872},{"NoteNumber":53,"Velocity":36,"Duration":104529,"SoundDuration":104529,"Delta":70843401},{"NoteNumber":71,"Velocity":68,"Duration":206185,"SoundDuration":206185,"Delta":70947931},{"NoteNumber":77,"Velocity":81,"Duration":206185,"SoundDuration":206185,"Delta":70947931},{"NoteNumber":83,"Velocity":81,"Duration":206185,"SoundDuration":206185,"Delta":70947931},{"NoteNumber":44,"Velocity":39,"Duration":103092,"SoundDuration":103092,"Delta":70947931},{"NoteNumber":53,"Velocity":40,"Duration":103092,"SoundDuration":103092,"Delta":71051024},{"NoteNumber":70,"Velocity":66,"Duration":206185,"SoundDuration":206185,"Delta":71154116},{"NoteNumber":77,"Velocity":78,"Duration":206185,"SoundDuration":206185,"Delta":71154116},{"NoteNumber":82,"Velocity":78,"Duration":206185,"SoundDuration":206185,"Delta":71154116},{"NoteNumber":56,"Velocity":43,"Duration":103092,"SoundDuration":103092,"Delta":71154116},{"NoteNumber":62,"Velocity":47,"Duration":103092,"SoundDuration":103092,"Delta":71257209},{"NoteNumber":71,"Velocity":66,"Duration":206185,"SoundDuration":206185,"Delta":71360302},{"NoteNumber":77,"Velocity":78,"Duration":206185,"SoundDuration":206185,"Delta":71360302},{"NoteNumber":83,"Velocity":78,"Duration":206185,"SoundDuration":206185,"Delta":71360302},{"NoteNumber":56,"Velocity":44,"Duration":103092,"SoundDuration":103092,"Delta":71360302},{"NoteNumber":53,"Velocity":40,"Duration":103092,"SoundDuration":103092,"Delta":71463395},{"NoteNumber":71,"Velocity":68,"Duration":412371,"SoundDuration":412371,"Delta":71566487},{"NoteNumber":78,"Velocity":81,"Duration":412371,"SoundDuration":412371,"Delta":71566487},{"NoteNumber":83,"Velocity":81,"Duration":412371,"SoundDuration":412371,"Delta":71566487},{"NoteNumber":44,"Velocity":41,"Duration":103092,"SoundDuration":103092,"Delta":71566487},{"NoteNumber":51,"Velocity":43,"Duration":103092,"SoundDuration":103092,"Delta":71669580},{"NoteNumber":54,"Velocity":47,"Duration":103092,"SoundDuration":103092,"Delta":71772673},{"NoteNumber":63,"Velocity":50,"Duration":103092,"SoundDuration":103092,"Delta":71875766},{"NoteNumber":70,"Velocity":69,"Duration":206185,"SoundDuration":206185,"Delta":71978858},{"NoteNumber":78,"Velocity":82,"Duration":206185,"SoundDuration":206185,"Delta":71978858},{"NoteNumber":82,"Velocity":82,"Duration":206185,"SoundDuration":206185,"Delta":71978858},{"NoteNumber":54,"Velocity":46,"Duration":103092,"SoundDuration":103092,"Delta":71978858},{"NoteNumber":51,"Velocity":43,"Duration":103092,"SoundDuration":103092,"Delta":72081951},{"NoteNumber":94,"Velocity":96,"Duration":927834,"SoundDuration":927834,"Delta":72185044},{"NoteNumber":90,"Velocity":96,"Duration":927834,"SoundDuration":927834,"Delta":72185044},{"NoteNumber":82,"Velocity":81,"Duration":927834,"SoundDuration":927834,"Delta":72185044},{"NoteNumber":44,"Velocity":67,"Duration":103092,"SoundDuration":103092,"Delta":72185044},{"NoteNumber":51,"Velocity":50,"Duration":103092,"SoundDuration":103092,"Delta":72288137},{"NoteNumber":54,"Velocity":55,"Duration":103092,"SoundDuration":103092,"Delta":72391229},{"NoteNumber":63,"Velocity":58,"Duration":103092,"SoundDuration":103092,"Delta":72494322},{"NoteNumber":54,"Velocity":55,"Duration":103092,"SoundDuration":103092,"Delta":72597415},{"NoteNumber":51,"Velocity":52,"Duration":103092,"SoundDuration":103092,"Delta":72700508},{"NoteNumber":44,"Velocity":62,"Duration":103092,"SoundDuration":103092,"Delta":72803600},{"NoteNumber":51,"Velocity":50,"Duration":103092,"SoundDuration":103092,"Delta":72906693},{"NoteNumber":54,"Velocity":55,"Duration":103092,"SoundDuration":103092,"Delta":73009786},{"NoteNumber":84,"Velocity":80,"Duration":94501,"SoundDuration":94501,"Delta":73112879},{"NoteNumber":78,"Velocity":80,"Duration":94501,"SoundDuration":94501,"Delta":73112879},{"NoteNumber":72,"Velocity":68,"Duration":94501,"SoundDuration":94501,"Delta":73112879},{"NoteNumber":60,"Velocity":58,"Duration":103092,"SoundDuration":103092,"Delta":73112879},{"NoteNumber":72,"Velocity":68,"Duration":197594,"SoundDuration":197594,"Delta":73215971},{"NoteNumber":78,"Velocity":80,"Duration":197594,"SoundDuration":197594,"Delta":73215971},{"NoteNumber":84,"Velocity":80,"Duration":197594,"SoundDuration":197594,"Delta":73215971},{"NoteNumber":54,"Velocity":55,"Duration":103092,"SoundDuration":103092,"Delta":73215971},{"NoteNumber":51,"Velocity":51,"Duration":103092,"SoundDuration":103092,"Delta":73319064},{"NoteNumber":72,"Velocity":79,"Duration":309278,"SoundDuration":309278,"Delta":73422157},{"NoteNumber":78,"Velocity":93,"Duration":309278,"SoundDuration":309278,"Delta":73422157},{"NoteNumber":84,"Velocity":93,"Duration":309278,"SoundDuration":309278,"Delta":73422157},{"NoteNumber":44,"Velocity":67,"Duration":103092,"SoundDuration":103092,"Delta":73422157},{"NoteNumber":51,"Velocity":57,"Duration":103092,"SoundDuration":103092,"Delta":73525250},{"NoteNumber":54,"Velocity":61,"Duration":103092,"SoundDuration":103092,"Delta":73628342},{"NoteNumber":89,"Velocity":89,"Duration":103092,"SoundDuration":103092,"Delta":73731435},{"NoteNumber":80,"Velocity":89,"Duration":103092,"SoundDuration":103092,"Delta":73731435},{"NoteNumber":77,"Velocity":75,"Duration":103092,"SoundDuration":103092,"Delta":73731435},{"NoteNumber":60,"Velocity":65,"Duration":103092,"SoundDuration":103092,"Delta":73731435},{"NoteNumber":87,"Velocity":92,"Duration":206185,"SoundDuration":206185,"Delta":73834528},{"NoteNumber":78,"Velocity":92,"Duration":206185,"SoundDuration":206185,"Delta":73834528},{"NoteNumber":75,"Velocity":78,"Duration":206185,"SoundDuration":206185,"Delta":73834528},{"NoteNumber":54,"Velocity":62,"Duration":103092,"SoundDuration":103092,"Delta":73834528},{"NoteNumber":51,"Velocity":59,"Duration":103092,"SoundDuration":103092,"Delta":73937621},{"NoteNumber":85,"Velocity":104,"Duration":103092,"SoundDuration":103092,"Delta":74040713},{"NoteNumber":77,"Velocity":104,"Duration":103092,"SoundDuration":103092,"Delta":74040713},{"NoteNumber":73,"Velocity":88,"Duration":103092,"SoundDuration":103092,"Delta":74040713},{"NoteNumber":37,"Velocity":71,"Duration":103092,"SoundDuration":103092,"Delta":74040713},{"NoteNumber":44,"Velocity":70,"Duration":103092,"SoundDuration":103092,"Delta":74453084},{"NoteNumber":53,"Velocity":75,"Duration":103092,"SoundDuration":103092,"Delta":74556177},{"NoteNumber":65,"Velocity":97,"Duration":96462,"SoundDuration":96462,"Delta":74659270},{"NoteNumber":61,"Velocity":83,"Duration":192925,"SoundDuration":192925,"Delta":74659270},{"NoteNumber":73,"Velocity":75,"Duration":96462,"SoundDuration":96462,"Delta":74755733},{"NoteNumber":80,"Velocity":79,"Duration":96462,"SoundDuration":96462,"Delta":74852196},{"NoteNumber":77,"Velocity":83,"Duration":96462,"SoundDuration":96462,"Delta":74948659},{"NoteNumber":85,"Velocity":87,"Duration":96462,"SoundDuration":96462,"Delta":75045122},{"NoteNumber":94,"Velocity":91,"Duration":96462,"SoundDuration":96462,"Delta":75141585},{"NoteNumber":84,"Velocity":86,"Duration":192925,"SoundDuration":192925,"Delta":75238048},{"NoteNumber":92,"Velocity":96,"Duration":192925,"SoundDuration":192925,"Delta":75238048},{"NoteNumber":32,"Velocity":73,"Duration":96462,"SoundDuration":96462,"Delta":75238048},{"NoteNumber":44,"Velocity":68,"Duration":96462,"SoundDuration":96462,"Delta":75623900},{"NoteNumber":51,"Velocity":74,"Duration":96462,"SoundDuration":96462,"Delta":75720363},{"NoteNumber":66,"Velocity":97,"Duration":92307,"SoundDuration":92307,"Delta":75816826},{"NoteNumber":60,"Velocity":84,"Duration":184615,"SoundDuration":184615,"Delta":75816826},{"NoteNumber":72,"Velocity":75,"Duration":92307,"SoundDuration":92307,"Delta":75909134},{"NoteNumber":80,"Velocity":80,"Duration":92307,"SoundDuration":92307,"Delta":76001441},{"NoteNumber":78,"Velocity":84,"Duration":92307,"SoundDuration":92307,"Delta":76093749},{"NoteNumber":84,"Velocity":88,"Duration":92307,"SoundDuration":92307,"Delta":76186057},{"NoteNumber":92,"Velocity":93,"Duration":92307,"SoundDuration":92307,"Delta":76278365},{"NoteNumber":85,"Velocity":87,"Duration":184615,"SoundDuration":184615,"Delta":76370672},{"NoteNumber":89,"Velocity":97,"Duration":184615,"SoundDuration":184615,"Delta":76370672},{"NoteNumber":37,"Velocity":78,"Duration":92307,"SoundDuration":92307,"Delta":76370672},{"NoteNumber":44,"Velocity":70,"Duration":92307,"SoundDuration":92307,"Delta":76739903},{"NoteNumber":53,"Velocity":75,"Duration":92307,"SoundDuration":92307,"Delta":76832211},{"NoteNumber":65,"Velocity":97,"Duration":94637,"SoundDuration":94637,"Delta":76924519},{"NoteNumber":61,"Velocity":83,"Duration":189274,"SoundDuration":189274,"Delta":76924519},{"NoteNumber":73,"Velocity":75,"Duration":94637,"SoundDuration":94637,"Delta":77019156},{"NoteNumber":80,"Velocity":79,"Duration":94637,"SoundDuration":94637,"Delta":77113793},{"NoteNumber":77,"Velocity":83,"Duration":94637,"SoundDuration":94637,"Delta":77208431},{"NoteNumber":85,"Velocity":87,"Duration":94637,"SoundDuration":94637,"Delta":77303068},{"NoteNumber":94,"Velocity":91,"Duration":94637,"SoundDuration":94637,"Delta":77397705},{"NoteNumber":84,"Velocity":86,"Duration":189274,"SoundDuration":189274,"Delta":77492342},{"NoteNumber":92,"Velocity":96,"Duration":189274,"SoundDuration":189274,"Delta":77492342},{"NoteNumber":32,"Velocity":78,"Duration":94637,"SoundDuration":94637,"Delta":77492342},{"NoteNumber":44,"Velocity":68,"Duration":94637,"SoundDuration":94637,"Delta":77870891},{"NoteNumber":51,"Velocity":74,"Duration":94637,"SoundDuration":94637,"Delta":77965529},{"NoteNumber":66,"Velocity":97,"Duration":91463,"SoundDuration":91463,"Delta":78060166},{"NoteNumber":60,"Velocity":84,"Duration":182927,"SoundDuration":182927,"Delta":78060166},{"NoteNumber":72,"Velocity":75,"Duration":91463,"SoundDuration":91463,"Delta":78151629},{"NoteNumber":80,"Velocity":80,"Duration":91463,"SoundDuration":91463,"Delta":78243093},{"NoteNumber":78,"Velocity":84,"Duration":91463,"SoundDuration":91463,"Delta":78334556},{"NoteNumber":84,"Velocity":88,"Duration":91463,"SoundDuration":91463,"Delta":78426020},{"NoteNumber":92,"Velocity":93,"Duration":91463,"SoundDuration":91463,"Delta":78517483},{"NoteNumber":85,"Velocity":87,"Duration":166666,"SoundDuration":166666,"Delta":78608947},{"NoteNumber":89,"Velocity":97,"Duration":166666,"SoundDuration":166666,"Delta":78608947},{"NoteNumber":25,"Velocity":82,"Duration":166666,"SoundDuration":166666,"Delta":78608947},{"NoteNumber":44,"Velocity":68,"Duration":83333,"SoundDuration":83333,"Delta":78942280},{"NoteNumber":53,"Velocity":74,"Duration":83333,"SoundDuration":83333,"Delta":79025613},{"NoteNumber":65,"Velocity":97,"Duration":83488,"SoundDuration":83488,"Delta":79108946},{"NoteNumber":61,"Velocity":84,"Duration":166606,"SoundDuration":166606,"Delta":79108946},{"NoteNumber":73,"Velocity":75,"Duration":83118,"SoundDuration":83118,"Delta":79192434},{"NoteNumber":80,"Velocity":78,"Duration":82736,"SoundDuration":82736,"Delta":79275552},{"NoteNumber":77,"Velocity":75,"Duration":82342,"SoundDuration":82342,"Delta":79358288},{"NoteNumber":85,"Velocity":79,"Duration":81982,"SoundDuration":81982,"Delta":79440631},{"NoteNumber":92,"Velocity":75,"Duration":81610,"SoundDuration":81610,"Delta":79522613},{"NoteNumber":85,"Velocity":78,"Duration":81300,"SoundDuration":81300,"Delta":79604224},{"NoteNumber":77,"Velocity":75,"Duration":81300,"SoundDuration":81300,"Delta":79685524},{"NoteNumber":80,"Velocity":80,"Duration":81300,"SoundDuration":81300,"Delta":79766825},{"NoteNumber":73,"Velocity":75,"Duration":81300,"SoundDuration":81300,"Delta":79848126},{"NoteNumber":65,"Velocity":79,"Duration":81300,"SoundDuration":81300,"Delta":79929427},{"NoteNumber":68,"Velocity":75,"Duration":81300,"SoundDuration":81300,"Delta":80010727},{"NoteNumber":61,"Velocity":78,"Duration":81300,"SoundDuration":81300,"Delta":80092028},{"NoteNumber":53,"Velocity":77,"Duration":81300,"SoundDuration":81300,"Delta":80173329},{"NoteNumber":56,"Velocity":82,"Duration":81300,"SoundDuration":81300,"Delta":80254630},{"NoteNumber":49,"Velocity":79,"Duration":81300,"SoundDuration":81300,"Delta":80335930},{"NoteNumber":41,"Velocity":87,"Duration":81300,"SoundDuration":81300,"Delta":80417231},{"NoteNumber":49,"Velocity":85,"Duration":81300,"SoundDuration":81300,"Delta":80498532},{"NoteNumber":25,"Velocity":86,"Duration":97402,"SoundDuration":97402,"Delta":80579833},{"NoteNumber":37,"Velocity":102,"Duration":97402,"SoundDuration":97402,"Delta":80579833},{"NoteNumber":97,"Velocity":101,"Duration":584414,"SoundDuration":584414,"Delta":81164248},{"NoteNumber":85,"Velocity":85,"Duration":584414,"SoundDuration":584414,"Delta":81164248},{"NoteNumber":61,"Velocity":86,"Duration":584414,"SoundDuration":584414,"Delta":81164248},{"NoteNumber":73,"Velocity":102,"Duration":584414,"SoundDuration":584414,"Delta":81164248},{"NoteNumber":57,"Velocity":29,"Duration":74626,"SoundDuration":74626,"Delta":83365254},{"NoteNumber":45,"Velocity":27,"Duration":74626,"SoundDuration":74626,"Delta":83365254},{"NoteNumber":58,"Velocity":31,"Duration":74626,"SoundDuration":74626,"Delta":83439881},{"NoteNumber":46,"Velocity":28,"Duration":74626,"SoundDuration":74626,"Delta":83439881},{"NoteNumber":61,"Velocity":33,"Duration":74626,"SoundDuration":74626,"Delta":83514507},{"NoteNumber":49,"Velocity":29,"Duration":74626,"SoundDuration":74626,"Delta":83514507},{"NoteNumber":65,"Velocity":38,"Duration":111940,"SoundDuration":111940,"Delta":83589134},{"NoteNumber":53,"Velocity":34,"Duration":111940,"SoundDuration":111940,"Delta":83589134},{"NoteNumber":57,"Velocity":29,"Duration":74626,"SoundDuration":74626,"Delta":84036895},{"NoteNumber":45,"Velocity":26,"Duration":74626,"SoundDuration":74626,"Delta":84036895},{"NoteNumber":58,"Velocity":31,"Duration":74626,"SoundDuration":74626,"Delta":84111522},{"NoteNumber":46,"Velocity":27,"Duration":74626,"SoundDuration":74626,"Delta":84111522},{"NoteNumber":61,"Velocity":32,"Duration":74626,"SoundDuration":74626,"Delta":84186149},{"NoteNumber":49,"Velocity":29,"Duration":74626,"SoundDuration":74626,"Delta":84186149},{"NoteNumber":65,"Velocity":38,"Duration":111940,"SoundDuration":111940,"Delta":84260776},{"NoteNumber":53,"Velocity":34,"Duration":111940,"SoundDuration":111940,"Delta":84260776},{"NoteNumber":58,"Velocity":100,"Duration":93750,"SoundDuration":93750,"Delta":85604059},{"NoteNumber":34,"Velocity":95,"Duration":93750,"SoundDuration":93750,"Delta":85604059},{"NoteNumber":46,"Velocity":95,"Duration":93750,"SoundDuration":93750,"Delta":85604059},{"NoteNumber":94,"Velocity":92,"Duration":1125000,"SoundDuration":1125000,"Delta":86166559},{"NoteNumber":90,"Velocity":92,"Duration":1125000,"SoundDuration":1125000,"Delta":86166559},{"NoteNumber":82,"Velocity":78,"Duration":1125000,"SoundDuration":1125000,"Delta":86166559},{"NoteNumber":58,"Velocity":72,"Duration":1125000,"SoundDuration":1125000,"Delta":86166559},{"NoteNumber":60,"Velocity":72,"Duration":1125000,"SoundDuration":1125000,"Delta":86166559},{"NoteNumber":63,"Velocity":85,"Duration":1125000,"SoundDuration":1125000,"Delta":86166559},{"NoteNumber":66,"Velocity":85,"Duration":1125000,"SoundDuration":1125000,"Delta":86166559},{"NoteNumber":70,"Velocity":85,"Duration":1125000,"SoundDuration":1125000,"Delta":86166559},{"NoteNumber":75,"Velocity":51,"Duration":287167,"SoundDuration":287167,"Delta":87291559},{"NoteNumber":84,"Velocity":61,"Duration":287167,"SoundDuration":287167,"Delta":87291559},{"NoteNumber":87,"Velocity":61,"Duration":287167,"SoundDuration":287167,"Delta":87291559},{"NoteNumber":58,"Velocity":47,"Duration":287167,"SoundDuration":287167,"Delta":87291559},{"NoteNumber":60,"Velocity":47,"Duration":287167,"SoundDuration":287167,"Delta":87291559},{"NoteNumber":63,"Velocity":56,"Duration":287167,"SoundDuration":287167,"Delta":87291559},{"NoteNumber":66,"Velocity":56,"Duration":287167,"SoundDuration":287167,"Delta":87291559},{"NoteNumber":70,"Velocity":56,"Duration":287167,"SoundDuration":287167,"Delta":87291559},{"NoteNumber":77,"Velocity":57,"Duration":99667,"SoundDuration":99667,"Delta":87578726},{"NoteNumber":84,"Velocity":68,"Duration":99667,"SoundDuration":99667,"Delta":87578726},{"NoteNumber":89,"Velocity":68,"Duration":99667,"SoundDuration":99667,"Delta":87578726},{"NoteNumber":58,"Velocity":51,"Duration":99667,"SoundDuration":99667,"Delta":87578726},{"NoteNumber":60,"Velocity":51,"Duration":99667,"SoundDuration":99667,"Delta":87578726},{"NoteNumber":63,"Velocity":61,"Duration":99667,"SoundDuration":99667,"Delta":87578726},{"NoteNumber":66,"Velocity":61,"Duration":99667,"SoundDuration":99667,"Delta":87578726},{"NoteNumber":70,"Velocity":61,"Duration":99667,"SoundDuration":99667,"Delta":87578726},{"NoteNumber":78,"Velocity":60,"Duration":241935,"SoundDuration":241935,"Delta":87678394},{"NoteNumber":84,"Velocity":71,"Duration":241935,"SoundDuration":241935,"Delta":87678394},{"NoteNumber":90,"Velocity":71,"Duration":241935,"SoundDuration":241935,"Delta":87678394},{"NoteNumber":58,"Velocity":56,"Duration":241935,"SoundDuration":241935,"Delta":87678394},{"NoteNumber":60,"Velocity":56,"Duration":241935,"SoundDuration":241935,"Delta":87678394},{"NoteNumber":63,"Velocity":66,"Duration":241935,"SoundDuration":241935,"Delta":87678394},{"NoteNumber":66,"Velocity":66,"Duration":241935,"SoundDuration":241935,"Delta":87678394},{"NoteNumber":70,"Velocity":66,"Duration":241935,"SoundDuration":241935,"Delta":87678394},{"NoteNumber":77,"Velocity":57,"Duration":204081,"SoundDuration":204081,"Delta":87920330},{"NoteNumber":85,"Velocity":68,"Duration":204081,"SoundDuration":204081,"Delta":87920330},{"NoteNumber":89,"Velocity":68,"Duration":204081,"SoundDuration":204081,"Delta":87920330},{"NoteNumber":58,"Velocity":52,"Duration":204081,"SoundDuration":204081,"Delta":87920330},{"NoteNumber":61,"Velocity":52,"Duration":204081,"SoundDuration":204081,"Delta":87920330},{"NoteNumber":65,"Velocity":62,"Duration":204081,"SoundDuration":204081,"Delta":87920330},{"NoteNumber":70,"Velocity":62,"Duration":204081,"SoundDuration":204081,"Delta":87920330},{"NoteNumber":57,"Velocity":27,"Duration":68027,"SoundDuration":68027,"Delta":88328493},{"NoteNumber":45,"Velocity":27,"Duration":68027,"SoundDuration":68027,"Delta":88328493},{"NoteNumber":58,"Velocity":29,"Duration":68027,"SoundDuration":68027,"Delta":88396520},{"NoteNumber":46,"Velocity":28,"Duration":68027,"SoundDuration":68027,"Delta":88396520},{"NoteNumber":61,"Velocity":30,"Duration":68027,"SoundDuration":68027,"Delta":88464547},{"NoteNumber":49,"Velocity":30,"Duration":68027,"SoundDuration":68027,"Delta":88464547},{"NoteNumber":65,"Velocity":35,"Duration":102040,"SoundDuration":102040,"Delta":88532574},{"NoteNumber":53,"Velocity":35,"Duration":102040,"SoundDuration":102040,"Delta":88532574},{"NoteNumber":57,"Velocity":27,"Duration":68027,"SoundDuration":68027,"Delta":88940737},{"NoteNumber":45,"Velocity":26,"Duration":68027,"SoundDuration":68027,"Delta":88940737},{"NoteNumber":58,"Velocity":29,"Duration":68027,"SoundDuration":68027,"Delta":89008764},{"NoteNumber":46,"Velocity":28,"Duration":68027,"SoundDuration":68027,"Delta":89008764},{"NoteNumber":61,"Velocity":30,"Duration":68027,"SoundDuration":68027,"Delta":89076792},{"NoteNumber":49,"Velocity":30,"Duration":68027,"SoundDuration":68027,"Delta":89076792},{"NoteNumber":65,"Velocity":35,"Duration":94339,"SoundDuration":94339,"Delta":89144819},{"NoteNumber":53,"Velocity":34,"Duration":94339,"SoundDuration":94339,"Delta":89144819},{"NoteNumber":56,"Velocity":100,"Duration":86956,"SoundDuration":86956,"Delta":90276893},{"NoteNumber":32,"Velocity":95,"Duration":86956,"SoundDuration":86956,"Delta":90276893},{"NoteNumber":44,"Velocity":95,"Duration":86956,"SoundDuration":86956,"Delta":90276893},{"NoteNumber":56,"Velocity":75,"Duration":1086956,"SoundDuration":1086956,"Delta":90755153},{"NoteNumber":65,"Velocity":89,"Duration":1065217,"SoundDuration":1065217,"Delta":90776893},{"NoteNumber":92,"Velocity":90,"Duration":1043478,"SoundDuration":1043478,"Delta":90798632},{"NoteNumber":89,"Velocity":90,"Duration":1043478,"SoundDuration":1043478,"Delta":90798632},{"NoteNumber":80,"Velocity":76,"Duration":1043478,"SoundDuration":1043478,"Delta":90798632},{"NoteNumber":73,"Velocity":89,"Duration":1043478,"SoundDuration":1043478,"Delta":90798632},{"NoteNumber":75,"Velocity":51,"Duration":133333,"SoundDuration":133333,"Delta":91842110},{"NoteNumber":84,"Velocity":60,"Duration":133333,"SoundDuration":133333,"Delta":91842110},{"NoteNumber":87,"Velocity":60,"Duration":133333,"SoundDuration":133333,"Delta":91842110},{"NoteNumber":56,"Velocity":44,"Duration":133333,"SoundDuration":133333,"Delta":91842110},{"NoteNumber":63,"Velocity":52,"Duration":133333,"SoundDuration":133333,"Delta":91842110},{"NoteNumber":66,"Velocity":52,"Duration":133333,"SoundDuration":133333,"Delta":91842110},{"NoteNumber":68,"Velocity":52,"Duration":133333,"SoundDuration":133333,"Delta":91842110},{"NoteNumber":84,"Velocity":60,"Duration":133333,"SoundDuration":133333,"Delta":91975443},{"NoteNumber":76,"Velocity":51,"Duration":133333,"SoundDuration":133333,"Delta":91975443},{"NoteNumber":88,"Velocity":60,"Duration":133333,"SoundDuration":133333,"Delta":91975443},{"NoteNumber":66,"Velocity":52,"Duration":133333,"SoundDuration":133333,"Delta":91975443},{"NoteNumber":63,"Velocity":52,"Duration":133333,"SoundDuration":133333,"Delta":91975443},{"NoteNumber":56,"Velocity":44,"Duration":133333,"SoundDuration":133333,"Delta":91975443},{"NoteNumber":68,"Velocity":52,"Duration":133333,"SoundDuration":133333,"Delta":91975443},{"NoteNumber":77,"Velocity":55,"Duration":133333,"SoundDuration":133333,"Delta":92108776},{"NoteNumber":84,"Velocity":65,"Duration":133333,"SoundDuration":133333,"Delta":92108776},{"NoteNumber":89,"Velocity":65,"Duration":133333,"SoundDuration":133333,"Delta":92108776},{"NoteNumber":68,"Velocity":54,"Duration":133333,"SoundDuration":133333,"Delta":92108776},{"NoteNumber":66,"Velocity":54,"Duration":133333,"SoundDuration":133333,"Delta":92108776},{"NoteNumber":63,"Velocity":54,"Duration":133333,"SoundDuration":133333,"Delta":92108776},{"NoteNumber":56,"Velocity":45,"Duration":133333,"SoundDuration":133333,"Delta":92108776},{"NoteNumber":80,"Velocity":61,"Duration":123391,"SoundDuration":123391,"Delta":92242109},{"NoteNumber":84,"Velocity":72,"Duration":123391,"SoundDuration":123391,"Delta":92242109},{"NoteNumber":92,"Velocity":72,"Duration":123391,"SoundDuration":123391,"Delta":92242109},{"NoteNumber":68,"Velocity":61,"Duration":123391,"SoundDuration":123391,"Delta":92242109},{"NoteNumber":66,"Velocity":61,"Duration":123391,"SoundDuration":123391,"Delta":92242109},{"NoteNumber":63,"Velocity":61,"Duration":123391,"SoundDuration":123391,"Delta":92242109},{"NoteNumber":56,"Velocity":51,"Duration":123391,"SoundDuration":123391,"Delta":92242109},{"NoteNumber":90,"Velocity":70,"Duration":118421,"SoundDuration":118421,"Delta":92365501},{"NoteNumber":84,"Velocity":70,"Duration":118421,"SoundDuration":118421,"Delta":92365501},{"NoteNumber":78,"Velocity":70,"Duration":118421,"SoundDuration":118421,"Delta":92365501},{"NoteNumber":68,"Velocity":58,"Duration":118421,"SoundDuration":118421,"Delta":92365501},{"NoteNumber":66,"Velocity":58,"Duration":118421,"SoundDuration":118421,"Delta":92365501},{"NoteNumber":63,"Velocity":58,"Duration":118421,"SoundDuration":118421,"Delta":92365501},{"NoteNumber":56,"Velocity":49,"Duration":118421,"SoundDuration":118421,"Delta":92365501},{"NoteNumber":77,"Velocity":56,"Duration":173912,"SoundDuration":173912,"Delta":92483922},{"NoteNumber":85,"Velocity":67,"Duration":173912,"SoundDuration":173912,"Delta":92483922},{"NoteNumber":89,"Velocity":67,"Duration":173912,"SoundDuration":173912,"Delta":92483922},{"NoteNumber":68,"Velocity":58,"Duration":173912,"SoundDuration":173912,"Delta":92483922},{"NoteNumber":61,"Velocity":49,"Duration":173912,"SoundDuration":173912,"Delta":92483922},{"NoteNumber":65,"Velocity":58,"Duration":173912,"SoundDuration":173912,"Delta":92483922},{"NoteNumber":69,"Velocity":81,"Duration":347825,"SoundDuration":347825,"Delta":93005661},{"NoteNumber":77,"Velocity":81,"Duration":347825,"SoundDuration":347825,"Delta":93005661},{"NoteNumber":65,"Velocity":77,"Duration":347825,"SoundDuration":347825,"Delta":93005661},{"NoteNumber":60,"Velocity":77,"Duration":347825,"SoundDuration":347825,"Delta":93005661},{"NoteNumber":53,"Velocity":77,"Duration":347825,"SoundDuration":347825,"Delta":93005661},{"NoteNumber":57,"Velocity":81,"Duration":378549,"SoundDuration":378549,"Delta":93527400},{"NoteNumber":65,"Velocity":81,"Duration":378549,"SoundDuration":378549,"Delta":93527400},{"NoteNumber":41,"Velocity":77,"Duration":378549,"SoundDuration":378549,"Delta":93527400},{"NoteNumber":48,"Velocity":77,"Duration":378549,"SoundDuration":378549,"Delta":93527400},{"NoteNumber":53,"Velocity":77,"Duration":378549,"SoundDuration":378549,"Delta":93527400},{"NoteNumber":29,"Velocity":79,"Duration":1381579,"SoundDuration":1381579,"Delta":94095224},{"NoteNumber":41,"Velocity":94,"Duration":1381579,"SoundDuration":1381579,"Delta":94095224},{"NoteNumber":30,"Velocity":82,"Duration":148026,"SoundDuration":148026,"Delta":95476803},{"NoteNumber":42,"Velocity":97,"Duration":148026,"SoundDuration":148026,"Delta":95476803},{"NoteNumber":57,"Velocity":27,"Duration":68965,"SoundDuration":68965,"Delta":97469544},{"NoteNumber":45,"Velocity":27,"Duration":68965,"SoundDuration":68965,"Delta":97469544},{"NoteNumber":58,"Velocity":29,"Duration":68965,"SoundDuration":68965,"Delta":97538510},{"NoteNumber":46,"Velocity":28,"Duration":68965,"SoundDuration":68965,"Delta":97538510},{"NoteNumber":61,"Velocity":30,"Duration":68965,"SoundDuration":68965,"Delta":97607475},{"NoteNumber":49,"Velocity":29,"Duration":68965,"SoundDuration":68965,"Delta":97607475},{"NoteNumber":65,"Velocity":35,"Duration":103448,"SoundDuration":103448,"Delta":97676441},{"NoteNumber":53,"Velocity":34,"Duration":103448,"SoundDuration":103448,"Delta":97676441},{"NoteNumber":57,"Velocity":29,"Duration":68965,"SoundDuration":68965,"Delta":98090234},{"NoteNumber":45,"Velocity":27,"Duration":68965,"SoundDuration":68965,"Delta":98090234},{"NoteNumber":58,"Velocity":30,"Duration":68965,"SoundDuration":68965,"Delta":98159199},{"NoteNumber":46,"Velocity":28,"Duration":68965,"SoundDuration":68965,"Delta":98159199},{"NoteNumber":61,"Velocity":31,"Duration":68965,"SoundDuration":68965,"Delta":98228165},{"NoteNumber":49,"Velocity":29,"Duration":68965,"SoundDuration":68965,"Delta":98228165},{"NoteNumber":65,"Velocity":35,"Duration":103448,"SoundDuration":103448,"Delta":98297130},{"NoteNumber":53,"Velocity":34,"Duration":103448,"SoundDuration":103448,"Delta":98297130},{"NoteNumber":58,"Velocity":100,"Duration":93750,"SoundDuration":93750,"Delta":99538509},{"NoteNumber":46,"Velocity":95,"Duration":93750,"SoundDuration":93750,"Delta":99538509},{"NoteNumber":34,"Velocity":95,"Duration":93750,"SoundDuration":93750,"Delta":99538509},{"NoteNumber":82,"Velocity":78,"Duration":843750,"SoundDuration":843750,"Delta":100101009},{"NoteNumber":90,"Velocity":92,"Duration":843750,"SoundDuration":843750,"Delta":100101009},{"NoteNumber":94,"Velocity":92,"Duration":843750,"SoundDuration":843750,"Delta":100101009},{"NoteNumber":63,"Velocity":85,"Duration":843750,"SoundDuration":843750,"Delta":100101009},{"NoteNumber":58,"Velocity":72,"Duration":843750,"SoundDuration":843750,"Delta":100101009},{"NoteNumber":60,"Velocity":72,"Duration":843750,"SoundDuration":843750,"Delta":100101009},{"NoteNumber":70,"Velocity":85,"Duration":843750,"SoundDuration":843750,"Delta":100101009},{"NoteNumber":66,"Velocity":85,"Duration":843750,"SoundDuration":843750,"Delta":100101009},{"NoteNumber":87,"Velocity":58,"Duration":93750,"SoundDuration":93750,"Delta":100944759},{"NoteNumber":84,"Velocity":58,"Duration":93750,"SoundDuration":93750,"Delta":100944759},{"NoteNumber":75,"Velocity":49,"Duration":93750,"SoundDuration":93750,"Delta":100944759},{"NoteNumber":58,"Velocity":47,"Duration":93750,"SoundDuration":93750,"Delta":100944759},{"NoteNumber":60,"Velocity":47,"Duration":93750,"SoundDuration":93750,"Delta":100944759},{"NoteNumber":63,"Velocity":56,"Duration":93750,"SoundDuration":93750,"Delta":100944759},{"NoteNumber":66,"Velocity":56,"Duration":93750,"SoundDuration":93750,"Delta":100944759},{"NoteNumber":70,"Velocity":56,"Duration":93750,"SoundDuration":93750,"Delta":100944759},{"NoteNumber":87,"Velocity":58,"Duration":187500,"SoundDuration":187500,"Delta":101038509},{"NoteNumber":84,"Velocity":58,"Duration":187500,"SoundDuration":187500,"Delta":101038509},{"NoteNumber":75,"Velocity":49,"Duration":187500,"SoundDuration":187500,"Delta":101038509},{"NoteNumber":58,"Velocity":47,"Duration":187500,"SoundDuration":187500,"Delta":101038509},{"NoteNumber":60,"Velocity":47,"Duration":187500,"SoundDuration":187500,"Delta":101038509},{"NoteNumber":63,"Velocity":56,"Duration":187500,"SoundDuration":187500,"Delta":101038509},{"NoteNumber":66,"Velocity":56,"Duration":187500,"SoundDuration":187500,"Delta":101038509},{"NoteNumber":70,"Velocity":56,"Duration":187500,"SoundDuration":187500,"Delta":101038509},{"NoteNumber":75,"Velocity":51,"Duration":281250,"SoundDuration":281250,"Delta":101226009},{"NoteNumber":84,"Velocity":61,"Duration":281250,"SoundDuration":281250,"Delta":101226009},{"NoteNumber":87,"Velocity":61,"Duration":281250,"SoundDuration":281250,"Delta":101226009},{"NoteNumber":63,"Velocity":56,"Duration":281250,"SoundDuration":281250,"Delta":101226009},{"NoteNumber":58,"Velocity":47,"Duration":281250,"SoundDuration":281250,"Delta":101226009},{"NoteNumber":60,"Velocity":47,"Duration":281250,"SoundDuration":281250,"Delta":101226009},{"NoteNumber":66,"Velocity":56,"Duration":281250,"SoundDuration":281250,"Delta":101226009},{"NoteNumber":70,"Velocity":56,"Duration":281250,"SoundDuration":281250,"Delta":101226009},{"NoteNumber":84,"Velocity":68,"Duration":93750,"SoundDuration":93750,"Delta":101507259},{"NoteNumber":89,"Velocity":68,"Duration":93750,"SoundDuration":93750,"Delta":101507259},{"NoteNumber":77,"Velocity":57,"Duration":93750,"SoundDuration":93750,"Delta":101507259},{"NoteNumber":60,"Velocity":51,"Duration":93750,"SoundDuration":93750,"Delta":101507259},{"NoteNumber":63,"Velocity":61,"Duration":93750,"SoundDuration":93750,"Delta":101507259},{"NoteNumber":58,"Velocity":51,"Duration":93750,"SoundDuration":93750,"Delta":101507259},{"NoteNumber":66,"Velocity":61,"Duration":93750,"SoundDuration":93750,"Delta":101507259},{"NoteNumber":70,"Velocity":61,"Duration":93750,"SoundDuration":93750,"Delta":101507259},{"NoteNumber":84,"Velocity":71,"Duration":233463,"SoundDuration":233463,"Delta":101601009},{"NoteNumber":78,"Velocity":60,"Duration":233463,"SoundDuration":233463,"Delta":101601009},{"NoteNumber":90,"Velocity":71,"Duration":233463,"SoundDuration":233463,"Delta":101601009},{"NoteNumber":63,"Velocity":66,"Duration":233463,"SoundDuration":233463,"Delta":101601009},{"NoteNumber":66,"Velocity":66,"Duration":233463,"SoundDuration":233463,"Delta":101601009},{"NoteNumber":58,"Velocity":56,"Duration":233463,"SoundDuration":233463,"Delta":101601009},{"NoteNumber":60,"Velocity":56,"Duration":233463,"SoundDuration":233463,"Delta":101601009},{"NoteNumber":70,"Velocity":66,"Duration":233463,"SoundDuration":233463,"Delta":101601009},{"NoteNumber":85,"Velocity":68,"Duration":204081,"SoundDuration":204081,"Delta":101834472},{"NoteNumber":77,"Velocity":57,"Duration":204081,"SoundDuration":204081,"Delta":101834472},{"NoteNumber":89,"Velocity":68,"Duration":204081,"SoundDuration":204081,"Delta":101834472},{"NoteNumber":65,"Velocity":62,"Duration":204081,"SoundDuration":204081,"Delta":101834472},{"NoteNumber":58,"Velocity":52,"Duration":204081,"SoundDuration":204081,"Delta":101834472},{"NoteNumber":61,"Velocity":52,"Duration":204081,"SoundDuration":204081,"Delta":101834472},{"NoteNumber":70,"Velocity":62,"Duration":204081,"SoundDuration":204081,"Delta":101834472},{"NoteNumber":57,"Velocity":29,"Duration":68027,"SoundDuration":68027,"Delta":102242635},{"NoteNumber":45,"Velocity":27,"Duration":68027,"SoundDuration":68027,"Delta":102242635},{"NoteNumber":58,"Velocity":30,"Duration":68027,"SoundDuration":68027,"Delta":102310662},{"NoteNumber":46,"Velocity":29,"Duration":68027,"SoundDuration":68027,"Delta":102310662},{"NoteNumber":61,"Velocity":32,"Duration":68027,"SoundDuration":68027,"Delta":102378690},{"NoteNumber":49,"Velocity":30,"Duration":68027,"SoundDuration":68027,"Delta":102378690},{"NoteNumber":65,"Velocity":37,"Duration":102040,"SoundDuration":102040,"Delta":102446717},{"NoteNumber":53,"Velocity":35,"Duration":102040,"SoundDuration":102040,"Delta":102446717},{"NoteNumber":57,"Velocity":29,"Duration":68027,"SoundDuration":68027,"Delta":102854880},{"NoteNumber":45,"Velocity":24,"Duration":68027,"SoundDuration":68027,"Delta":102854880},{"NoteNumber":58,"Velocity":30,"Duration":68027,"SoundDuration":68027,"Delta":102922907},{"NoteNumber":46,"Velocity":26,"Duration":68027,"SoundDuration":68027,"Delta":102922907},{"NoteNumber":61,"Velocity":32,"Duration":68027,"SoundDuration":68027,"Delta":102990934},{"NoteNumber":49,"Velocity":27,"Duration":68027,"SoundDuration":68027,"Delta":102990934},{"NoteNumber":65,"Velocity":37,"Duration":94339,"SoundDuration":94339,"Delta":103058961},{"NoteNumber":53,"Velocity":34,"Duration":94339,"SoundDuration":94339,"Delta":103058961},{"NoteNumber":48,"Velocity":100,"Duration":83565,"SoundDuration":83565,"Delta":104126391},{"NoteNumber":24,"Velocity":95,"Duration":83565,"SoundDuration":83565,"Delta":104126391},{"NoteNumber":36,"Velocity":95,"Duration":83565,"SoundDuration":83565,"Delta":104126391},{"NoteNumber":84,"Velocity":76,"Duration":1002786,"SoundDuration":1002786,"Delta":104627784},{"NoteNumber":92,"Velocity":90,"Duration":1002786,"SoundDuration":1002786,"Delta":104627784},{"NoteNumber":96,"Velocity":90,"Duration":1002786,"SoundDuration":1002786,"Delta":104627784},{"NoteNumber":68,"Velocity":89,"Duration":1002786,"SoundDuration":1002786,"Delta":104627784},{"NoteNumber":72,"Velocity":89,"Duration":1002786,"SoundDuration":1002786,"Delta":104627784},{"NoteNumber":65,"Velocity":89,"Duration":1002786,"SoundDuration":1002786,"Delta":104627784},{"NoteNumber":60,"Velocity":75,"Duration":1002786,"SoundDuration":1002786,"Delta":104627784},{"NoteNumber":91,"Velocity":73,"Duration":184426,"SoundDuration":184426,"Delta":105630570},{"NoteNumber":97,"Velocity":73,"Duration":184426,"SoundDuration":184426,"Delta":105630570},{"NoteNumber":85,"Velocity":62,"Duration":184426,"SoundDuration":184426,"Delta":105630570},{"NoteNumber":60,"Velocity":58,"Duration":184426,"SoundDuration":184426,"Delta":105630570},{"NoteNumber":70,"Velocity":69,"Duration":184426,"SoundDuration":184426,"Delta":105630570},{"NoteNumber":64,"Velocity":69,"Duration":184426,"SoundDuration":184426,"Delta":105630570},{"NoteNumber":72,"Velocity":69,"Duration":184426,"SoundDuration":184426,"Delta":105630570},{"NoteNumber":84,"Velocity":60,"Duration":184426,"SoundDuration":184426,"Delta":105814996},{"NoteNumber":91,"Velocity":71,"Duration":184426,"SoundDuration":184426,"Delta":105814996},{"NoteNumber":96,"Velocity":71,"Duration":184426,"SoundDuration":184426,"Delta":105814996},{"NoteNumber":60,"Velocity":53,"Duration":184426,"SoundDuration":184426,"Delta":105814996},{"NoteNumber":64,"Velocity":63,"Duration":184426,"SoundDuration":184426,"Delta":105814996},{"NoteNumber":70,"Velocity":63,"Duration":184426,"SoundDuration":184426,"Delta":105814996},{"NoteNumber":72,"Velocity":63,"Duration":184426,"SoundDuration":184426,"Delta":105814996},{"NoteNumber":89,"Velocity":67,"Duration":150000,"SoundDuration":150000,"Delta":105999422},{"NoteNumber":77,"Velocity":56,"Duration":150000,"SoundDuration":150000,"Delta":105999422},{"NoteNumber":84,"Velocity":67,"Duration":150000,"SoundDuration":150000,"Delta":105999422},{"NoteNumber":64,"Velocity":61,"Duration":150000,"SoundDuration":150000,"Delta":105999422},{"NoteNumber":60,"Velocity":51,"Duration":150000,"SoundDuration":150000,"Delta":105999422},{"NoteNumber":72,"Velocity":61,"Duration":150000,"SoundDuration":150000,"Delta":105999422},{"NoteNumber":70,"Velocity":61,"Duration":150000,"SoundDuration":150000,"Delta":105999422},{"NoteNumber":91,"Velocity":68,"Duration":149999,"SoundDuration":149999,"Delta":106149422},{"NoteNumber":84,"Velocity":68,"Duration":149999,"SoundDuration":149999,"Delta":106149422},{"NoteNumber":79,"Velocity":57,"Duration":149999,"SoundDuration":149999,"Delta":106149422},{"NoteNumber":72,"Velocity":62,"Duration":149999,"SoundDuration":149999,"Delta":106149422},{"NoteNumber":64,"Velocity":62,"Duration":149999,"SoundDuration":149999,"Delta":106149422},{"NoteNumber":60,"Velocity":52,"Duration":149999,"SoundDuration":149999,"Delta":106149422},{"NoteNumber":70,"Velocity":62,"Duration":149999,"SoundDuration":149999,"Delta":106149422},{"NoteNumber":92,"Velocity":73,"Duration":173912,"SoundDuration":173912,"Delta":106299422},{"NoteNumber":84,"Velocity":73,"Duration":173912,"SoundDuration":173912,"Delta":106299422},{"NoteNumber":80,"Velocity":62,"Duration":173912,"SoundDuration":173912,"Delta":106299422},{"NoteNumber":72,"Velocity":68,"Duration":173912,"SoundDuration":173912,"Delta":106299422},{"NoteNumber":65,"Velocity":68,"Duration":173912,"SoundDuration":173912,"Delta":106299422},{"NoteNumber":68,"Velocity":68,"Duration":173912,"SoundDuration":173912,"Delta":106299422},{"NoteNumber":72,"Velocity":81,"Duration":362538,"SoundDuration":362538,"Delta":106821161},{"NoteNumber":80,"Velocity":81,"Duration":362538,"SoundDuration":362538,"Delta":106821161},{"NoteNumber":68,"Velocity":68,"Duration":362538,"SoundDuration":362538,"Delta":106821161},{"NoteNumber":77,"Velocity":81,"Duration":362538,"SoundDuration":362538,"Delta":106821161},{"NoteNumber":53,"Velocity":65,"Duration":362538,"SoundDuration":362538,"Delta":106821161},{"NoteNumber":65,"Velocity":77,"Duration":362538,"SoundDuration":362538,"Delta":106821161},{"NoteNumber":60,"Velocity":77,"Duration":362538,"SoundDuration":362538,"Delta":106821161},{"NoteNumber":60,"Velocity":81,"Duration":422534,"SoundDuration":422534,"Delta":107364968},{"NoteNumber":68,"Velocity":81,"Duration":422534,"SoundDuration":422534,"Delta":107364968},{"NoteNumber":56,"Velocity":68,"Duration":422534,"SoundDuration":422534,"Delta":107364968},{"NoteNumber":65,"Velocity":81,"Duration":422534,"SoundDuration":422534,"Delta":107364968},{"NoteNumber":53,"Velocity":77,"Duration":422534,"SoundDuration":422534,"Delta":107364968},{"NoteNumber":48,"Velocity":77,"Duration":422534,"SoundDuration":422534,"Delta":107364968},{"NoteNumber":41,"Velocity":65,"Duration":422534,"SoundDuration":422534,"Delta":107364968},{"NoteNumber":28,"Velocity":79,"Duration":1184211,"SoundDuration":1184211,"Delta":107998771},{"NoteNumber":40,"Velocity":94,"Duration":1184211,"SoundDuration":1184211,"Delta":107998771},{"NoteNumber":41,"Velocity":94,"Duration":753138,"SoundDuration":753138,"Delta":109182982},{"NoteNumber":29,"Velocity":94,"Duration":753138,"SoundDuration":753138,"Delta":109182982},{"NoteNumber":38,"Velocity":50,"Duration":100600,"SoundDuration":100600,"Delta":109936120},{"NoteNumber":26,"Velocity":45,"Duration":100600,"SoundDuration":100600,"Delta":109936120},{"NoteNumber":39,"Velocity":51,"Duration":98330,"SoundDuration":98330,"Delta":110025659},{"NoteNumber":27,"Velocity":45,"Duration":98330,"SoundDuration":98330,"Delta":110025659},{"NoteNumber":41,"Velocity":51,"Duration":96046,"SoundDuration":96046,"Delta":110113190},{"NoteNumber":29,"Velocity":45,"Duration":96046,"SoundDuration":96046,"Delta":110113190},{"NoteNumber":39,"Velocity":52,"Duration":93884,"SoundDuration":93884,"Delta":110198732},{"NoteNumber":27,"Velocity":46,"Duration":93884,"SoundDuration":93884,"Delta":110198732},{"NoteNumber":41,"Velocity":53,"Duration":91904,"SoundDuration":91904,"Delta":110282286},{"NoteNumber":29,"Velocity":47,"Duration":91904,"SoundDuration":91904,"Delta":110282286},{"NoteNumber":39,"Velocity":55,"Duration":90665,"SoundDuration":90665,"Delta":110364089},{"NoteNumber":27,"Velocity":49,"Duration":90665,"SoundDuration":90665,"Delta":110364089},{"NoteNumber":41,"Velocity":56,"Duration":91464,"SoundDuration":91464,"Delta":110444633},{"NoteNumber":29,"Velocity":50,"Duration":91464,"SoundDuration":91464,"Delta":110444633},{"NoteNumber":39,"Velocity":56,"Duration":92066,"SoundDuration":92066,"Delta":110525893},{"NoteNumber":27,"Velocity":51,"Duration":92066,"SoundDuration":92066,"Delta":110525893},{"NoteNumber":41,"Velocity":57,"Duration":92912,"SoundDuration":92912,"Delta":110607693},{"NoteNumber":29,"Velocity":51,"Duration":92912,"SoundDuration":92912,"Delta":110607693},{"NoteNumber":39,"Velocity":58,"Duration":72614,"SoundDuration":72614,"Delta":110690232},{"NoteNumber":27,"Velocity":52,"Duration":72614,"SoundDuration":72614,"Delta":110690232},{"NoteNumber":41,"Velocity":59,"Duration":72614,"SoundDuration":72614,"Delta":110752473},{"NoteNumber":29,"Velocity":53,"Duration":72614,"SoundDuration":72614,"Delta":110752473},{"NoteNumber":39,"Velocity":60,"Duration":72614,"SoundDuration":72614,"Delta":110814714},{"NoteNumber":27,"Velocity":53,"Duration":72614,"SoundDuration":72614,"Delta":110814714},{"NoteNumber":41,"Velocity":61,"Duration":62240,"SoundDuration":62240,"Delta":110876954},{"NoteNumber":29,"Velocity":54,"Duration":62240,"SoundDuration":62240,"Delta":110876954},{"NoteNumber":39,"Velocity":62,"Duration":63385,"SoundDuration":63385,"Delta":110939195},{"NoteNumber":27,"Velocity":55,"Duration":63385,"SoundDuration":63385,"Delta":110939195},{"NoteNumber":41,"Velocity":62,"Duration":65797,"SoundDuration":65797,"Delta":111002580},{"NoteNumber":29,"Velocity":55,"Duration":65797,"SoundDuration":65797,"Delta":111002580},{"NoteNumber":39,"Velocity":62,"Duration":68190,"SoundDuration":68190,"Delta":111068377},{"NoteNumber":27,"Velocity":56,"Duration":68190,"SoundDuration":68190,"Delta":111068377},{"NoteNumber":41,"Velocity":63,"Duration":70984,"SoundDuration":70984,"Delta":111136567},{"NoteNumber":29,"Velocity":56,"Duration":70984,"SoundDuration":70984,"Delta":111136567},{"NoteNumber":39,"Velocity":64,"Duration":124035,"SoundDuration":124035,"Delta":111207552},{"NoteNumber":27,"Velocity":59,"Duration":124035,"SoundDuration":124035,"Delta":111207552},{"NoteNumber":38,"Velocity":73,"Duration":222772,"SoundDuration":222772,"Delta":111306835},{"NoteNumber":26,"Velocity":73,"Duration":222772,"SoundDuration":222772,"Delta":111306835},{"NoteNumber":39,"Velocity":73,"Duration":208568,"SoundDuration":208568,"Delta":111504855},{"NoteNumber":27,"Velocity":73,"Duration":208568,"SoundDuration":208568,"Delta":111504855},{"NoteNumber":101,"Velocity":97,"Duration":957456,"SoundDuration":957456,"Delta":111702875},{"NoteNumber":25,"Velocity":74,"Duration":126582,"SoundDuration":126582,"Delta":111702875},{"NoteNumber":37,"Velocity":88,"Duration":126582,"SoundDuration":126582,"Delta":111702875},{"NoteNumber":44,"Velocity":45,"Duration":225564,"SoundDuration":225564,"Delta":112209204},{"NoteNumber":56,"Velocity":45,"Duration":225564,"SoundDuration":225564,"Delta":112209204},{"NoteNumber":61,"Velocity":53,"Duration":225563,"SoundDuration":225563,"Delta":112434768},{"NoteNumber":53,"Velocity":53,"Duration":225563,"SoundDuration":225563,"Delta":112434768},{"NoteNumber":99,"Velocity":68,"Duration":88495,"SoundDuration":88495,"Delta":112660332},{"NoteNumber":97,"Velocity":61,"Duration":88495,"SoundDuration":88495,"Delta":112748827},{"NoteNumber":92,"Velocity":65,"Duration":88495,"SoundDuration":88495,"Delta":112837323},{"NoteNumber":44,"Velocity":42,"Duration":176991,"SoundDuration":176991,"Delta":112837323},{"NoteNumber":56,"Velocity":42,"Duration":176991,"SoundDuration":176991,"Delta":112837323},{"NoteNumber":89,"Velocity":59,"Duration":88495,"SoundDuration":88495,"Delta":112925818},{"NoteNumber":87,"Velocity":62,"Duration":88495,"SoundDuration":88495,"Delta":113014314},{"NoteNumber":53,"Velocity":47,"Duration":176991,"SoundDuration":176991,"Delta":113014314},{"NoteNumber":61,"Velocity":47,"Duration":176991,"SoundDuration":176991,"Delta":113014314},{"NoteNumber":85,"Velocity":56,"Duration":88495,"SoundDuration":88495,"Delta":113102809},{"NoteNumber":80,"Velocity":58,"Duration":88495,"SoundDuration":88495,"Delta":113191305},{"NoteNumber":77,"Velocity":53,"Duration":88495,"SoundDuration":88495,"Delta":113279800},{"NoteNumber":75,"Velocity":55,"Duration":88495,"SoundDuration":88495,"Delta":113368296},{"NoteNumber":73,"Velocity":50,"Duration":88495,"SoundDuration":88495,"Delta":113456791},{"NoteNumber":68,"Velocity":52,"Duration":176991,"SoundDuration":176991,"Delta":113545287},{"NoteNumber":72,"Velocity":55,"Duration":88845,"SoundDuration":88845,"Delta":114076260},{"NoteNumber":32,"Velocity":52,"Duration":88845,"SoundDuration":88845,"Delta":114076260},{"NoteNumber":44,"Velocity":52,"Duration":88845,"SoundDuration":88845,"Delta":114076260},{"NoteNumber":73,"Velocity":52,"Duration":89197,"SoundDuration":89197,"Delta":114165105},{"NoteNumber":75,"Velocity":50,"Duration":89641,"SoundDuration":89641,"Delta":114254302},{"NoteNumber":77,"Velocity":47,"Duration":90000,"SoundDuration":90000,"Delta":114343944},{"NoteNumber":78,"Velocity":45,"Duration":90452,"SoundDuration":90452,"Delta":114433944},{"NoteNumber":80,"Velocity":42,"Duration":90813,"SoundDuration":90813,"Delta":114519110},{"NoteNumber":81,"Velocity":40,"Duration":109091,"SoundDuration":109091,"Delta":114615242},{"NoteNumber":66,"Velocity":38,"Duration":218181,"SoundDuration":218181,"Delta":114615242},{"NoteNumber":55,"Velocity":38,"Duration":218181,"SoundDuration":218181,"Delta":114615242},{"NoteNumber":60,"Velocity":38,"Duration":218181,"SoundDuration":218181,"Delta":114615242},{"NoteNumber":56,"Velocity":35,"Duration":197368,"SoundDuration":197368,"Delta":114833424},{"NoteNumber":60,"Velocity":35,"Duration":197368,"SoundDuration":197368,"Delta":114833424},{"NoteNumber":66,"Velocity":35,"Duration":197368,"SoundDuration":197368,"Delta":114833424},{"NoteNumber":66,"Velocity":31,"Duration":98684,"SoundDuration":98684,"Delta":115030792},{"NoteNumber":56,"Velocity":31,"Duration":98684,"SoundDuration":98684,"Delta":115030792},{"NoteNumber":60,"Velocity":31,"Duration":98684,"SoundDuration":98684,"Delta":115030792},{"NoteNumber":81,"Velocity":50,"Duration":90271,"SoundDuration":90271,"Delta":115228161},{"NoteNumber":80,"Velocity":49,"Duration":89910,"SoundDuration":89910,"Delta":115318432},{"NoteNumber":79,"Velocity":47,"Duration":89463,"SoundDuration":89463,"Delta":115408342},{"NoteNumber":78,"Velocity":46,"Duration":89109,"SoundDuration":89109,"Delta":115497805},{"NoteNumber":77,"Velocity":44,"Duration":88670,"SoundDuration":88670,"Delta":115586914},{"NoteNumber":76,"Velocity":42,"Duration":88296,"SoundDuration":88296,"Delta":115675585},{"NoteNumber":75,"Velocity":41,"Duration":107527,"SoundDuration":107527,"Delta":115763881},{"NoteNumber":57,"Velocity":35,"Duration":215053,"SoundDuration":215053,"Delta":115763881},{"NoteNumber":60,"Velocity":35,"Duration":215053,"SoundDuration":215053,"Delta":115763881},{"NoteNumber":66,"Velocity":35,"Duration":215053,"SoundDuration":215053,"Delta":115763881},{"NoteNumber":66,"Velocity":32,"Duration":197368,"SoundDuration":197368,"Delta":115978935},{"NoteNumber":60,"Velocity":32,"Duration":197368,"SoundDuration":197368,"Delta":115978935},{"NoteNumber":56,"Velocity":32,"Duration":197368,"SoundDuration":197368,"Delta":115978935},{"NoteNumber":66,"Velocity":28,"Duration":98684,"SoundDuration":98684,"Delta":116176303},{"NoteNumber":60,"Velocity":28,"Duration":98684,"SoundDuration":98684,"Delta":116176303},{"NoteNumber":56,"Velocity":28,"Duration":98684,"SoundDuration":98684,"Delta":116176303},{"NoteNumber":101,"Velocity":97,"Duration":872180,"SoundDuration":872180,"Delta":116373672},{"NoteNumber":25,"Velocity":74,"Duration":112781,"SoundDuration":112781,"Delta":116373672},{"NoteNumber":37,"Velocity":88,"Duration":112781,"SoundDuration":112781,"Delta":116373672},{"NoteNumber":44,"Velocity":45,"Duration":210526,"SoundDuration":210526,"Delta":116824800},{"NoteNumber":56,"Velocity":45,"Duration":210526,"SoundDuration":210526,"Delta":116824800},{"NoteNumber":61,"Velocity":53,"Duration":210526,"SoundDuration":210526,"Delta":117035326},{"NoteNumber":53,"Velocity":53,"Duration":210526,"SoundDuration":210526,"Delta":117035326},{"NoteNumber":99,"Velocity":68,"Duration":86705,"SoundDuration":86705,"Delta":117245853},{"NoteNumber":97,"Velocity":61,"Duration":86705,"SoundDuration":86705,"Delta":117332558},{"NoteNumber":92,"Velocity":65,"Duration":86705,"SoundDuration":86705,"Delta":117419263},{"NoteNumber":44,"Velocity":42,"Duration":173410,"SoundDuration":173410,"Delta":117419263},{"NoteNumber":56,"Velocity":42,"Duration":173410,"SoundDuration":173410,"Delta":117419263},{"NoteNumber":89,"Velocity":59,"Duration":86705,"SoundDuration":86705,"Delta":117505968},{"NoteNumber":87,"Velocity":62,"Duration":86705,"SoundDuration":86705,"Delta":117592674},{"NoteNumber":53,"Velocity":47,"Duration":173410,"SoundDuration":173410,"Delta":117592674},{"NoteNumber":61,"Velocity":47,"Duration":173410,"SoundDuration":173410,"Delta":117592674},{"NoteNumber":85,"Velocity":57,"Duration":86705,"SoundDuration":86705,"Delta":117679379},{"NoteNumber":80,"Velocity":58,"Duration":86705,"SoundDuration":86705,"Delta":117766084},{"NoteNumber":77,"Velocity":53,"Duration":86705,"SoundDuration":86705,"Delta":117852789},{"NoteNumber":75,"Velocity":55,"Duration":86705,"SoundDuration":86705,"Delta":117939495},{"NoteNumber":73,"Velocity":51,"Duration":86705,"SoundDuration":86705,"Delta":118026200},{"NoteNumber":68,"Velocity":52,"Duration":172910,"SoundDuration":172910,"Delta":118112905},{"NoteNumber":72,"Velocity":42,"Duration":88278,"SoundDuration":88278,"Delta":118631637},{"NoteNumber":44,"Velocity":25,"Duration":534214,"SoundDuration":534214,"Delta":118631637},{"NoteNumber":51,"Velocity":25,"Duration":534214,"SoundDuration":534214,"Delta":118631637},{"NoteNumber":54,"Velocity":25,"Duration":534214,"SoundDuration":534214,"Delta":118631637},{"NoteNumber":73,"Velocity":41,"Duration":88565,"SoundDuration":88565,"Delta":118719915},{"NoteNumber":75,"Velocity":41,"Duration":88871,"SoundDuration":88871,"Delta":118808481},{"NoteNumber":77,"Velocity":40,"Duration":89179,"SoundDuration":89179,"Delta":118897352},{"NoteNumber":78,"Velocity":39,"Duration":89490,"SoundDuration":89490,"Delta":118986532},{"NoteNumber":80,"Velocity":38,"Duration":89797,"SoundDuration":89797,"Delta":119070798},{"NoteNumber":81,"Velocity":37,"Duration":89820,"SoundDuration":89820,"Delta":119165851},{"NoteNumber":60,"Velocity":32,"Duration":89820,"SoundDuration":89820,"Delta":119165851},{"NoteNumber":61,"Velocity":32,"Duration":89820,"SoundDuration":89820,"Delta":119255672},{"NoteNumber":63,"Velocity":32,"Duration":89820,"SoundDuration":89820,"Delta":119345492},{"NoteNumber":65,"Velocity":32,"Duration":89820,"SoundDuration":89820,"Delta":119435312},{"NoteNumber":66,"Velocity":32,"Duration":89820,"SoundDuration":89820,"Delta":119525132},{"NoteNumber":68,"Velocity":32,"Duration":89820,"SoundDuration":89820,"Delta":119614953},{"NoteNumber":81,"Velocity":42,"Duration":88235,"SoundDuration":88235,"Delta":119704773},{"NoteNumber":69,"Velocity":32,"Duration":88235,"SoundDuration":88235,"Delta":119704773},{"NoteNumber":80,"Velocity":41,"Duration":88235,"SoundDuration":88235,"Delta":119793008},{"NoteNumber":79,"Velocity":40,"Duration":88235,"SoundDuration":88235,"Delta":119881243},{"NoteNumber":78,"Velocity":39,"Duration":88235,"SoundDuration":88235,"Delta":119969479},{"NoteNumber":77,"Velocity":37,"Duration":88235,"SoundDuration":88235,"Delta":120057714},{"NoteNumber":76,"Velocity":36,"Duration":88235,"SoundDuration":88235,"Delta":120145949},{"NoteNumber":75,"Velocity":35,"Duration":190613,"SoundDuration":190613,"Delta":120234184},{"NoteNumber":57,"Velocity":30,"Duration":94020,"SoundDuration":94020,"Delta":120234184},{"NoteNumber":56,"Velocity":29,"Duration":96593,"SoundDuration":96593,"Delta":120328204},{"NoteNumber":55,"Velocity":28,"Duration":99344,"SoundDuration":99344,"Delta":120424798},{"NoteNumber":54,"Velocity":27,"Duration":102303,"SoundDuration":102303,"Delta":120524142},{"NoteNumber":53,"Velocity":26,"Duration":105357,"SoundDuration":105357,"Delta":120626446},{"NoteNumber":51,"Velocity":25,"Duration":108664,"SoundDuration":108664,"Delta":120731803},{"NoteNumber":71,"Velocity":40,"Duration":1412432,"SoundDuration":1412432,"Delta":120840468},{"NoteNumber":77,"Velocity":59,"Duration":930232,"SoundDuration":930232,"Delta":120840468},{"NoteNumber":49,"Velocity":27,"Duration":116279,"SoundDuration":116279,"Delta":120840468},{"NoteNumber":56,"Velocity":28,"Duration":116278,"SoundDuration":116278,"Delta":120956747},{"NoteNumber":61,"Velocity":30,"Duration":116279,"SoundDuration":116279,"Delta":121073026},{"NoteNumber":65,"Velocity":34,"Duration":116278,"SoundDuration":116278,"Delta":121189305},{"NoteNumber":61,"Velocity":31,"Duration":116279,"SoundDuration":116279,"Delta":121305584},{"NoteNumber":56,"Velocity":30,"Duration":116279,"SoundDuration":116279,"Delta":121421863},{"NoteNumber":49,"Velocity":29,"Duration":116278,"SoundDuration":116278,"Delta":121538142},{"NoteNumber":59,"Velocity":28,"Duration":116279,"SoundDuration":116279,"Delta":121654421},{"NoteNumber":75,"Velocity":53,"Duration":353995,"SoundDuration":353995,"Delta":121770700},{"NoteNumber":61,"Velocity":30,"Duration":116371,"SoundDuration":116371,"Delta":121770700},{"NoteNumber":65,"Velocity":31,"Duration":117972,"SoundDuration":117972,"Delta":121887071},{"NoteNumber":61,"Velocity":30,"Duration":119651,"SoundDuration":119651,"Delta":122005044},{"NoteNumber":73,"Velocity":52,"Duration":117521,"SoundDuration":117521,"Delta":122124696},{"NoteNumber":59,"Velocity":29,"Duration":128205,"SoundDuration":128205,"Delta":122124696},{"NoteNumber":71,"Velocity":43,"Duration":694980,"SoundDuration":694980,"Delta":122252901},{"NoteNumber":73,"Velocity":58,"Duration":694980,"SoundDuration":694980,"Delta":122252901},{"NoteNumber":54,"Velocity":28,"Duration":115830,"SoundDuration":115830,"Delta":122252901},{"NoteNumber":59,"Velocity":28,"Duration":115830,"SoundDuration":115830,"Delta":122368731},{"NoteNumber":61,"Velocity":31,"Duration":115829,"SoundDuration":115829,"Delta":122484561},{"NoteNumber":66,"Velocity":34,"Duration":115830,"SoundDuration":115830,"Delta":122600391},{"NoteNumber":61,"Velocity":31,"Duration":115830,"SoundDuration":115830,"Delta":122716221},{"NoteNumber":59,"Velocity":29,"Duration":115830,"SoundDuration":115830,"Delta":122832051},{"NoteNumber":70,"Velocity":56,"Duration":646492,"SoundDuration":646492,"Delta":122947881},{"NoteNumber":78,"Velocity":56,"Duration":1069027,"SoundDuration":1069027,"Delta":122947881},{"NoteNumber":49,"Velocity":29,"Duration":109356,"SoundDuration":109356,"Delta":122947881},{"NoteNumber":58,"Velocity":28,"Duration":108722,"SoundDuration":108722,"Delta":123057237},{"NoteNumber":61,"Velocity":30,"Duration":108069,"SoundDuration":108069,"Delta":123165960},{"NoteNumber":66,"Velocity":33,"Duration":107398,"SoundDuration":107398,"Delta":123274029},{"NoteNumber":61,"Velocity":31,"Duration":106787,"SoundDuration":106787,"Delta":123381428},{"NoteNumber":58,"Velocity":30,"Duration":106157,"SoundDuration":106157,"Delta":123488216},{"NoteNumber":71,"Velocity":50,"Duration":1323589,"SoundDuration":1323589,"Delta":123594373},{"NoteNumber":56,"Velocity":28,"Duration":105633,"SoundDuration":105633,"Delta":123594373},{"NoteNumber":59,"Velocity":28,"Duration":105633,"SoundDuration":105633,"Delta":123700007},{"NoteNumber":61,"Velocity":30,"Duration":105633,"SoundDuration":105633,"Delta":123805640},{"NoteNumber":68,"Velocity":33,"Duration":105633,"SoundDuration":105633,"Delta":123911274},{"NoteNumber":77,"Velocity":52,"Duration":218978,"SoundDuration":218978,"Delta":124016908},{"NoteNumber":61,"Velocity":31,"Duration":109488,"SoundDuration":109488,"Delta":124016908},{"NoteNumber":59,"Velocity":29,"Duration":109489,"SoundDuration":109489,"Delta":124126397},{"NoteNumber":77,"Velocity":51,"Duration":215160,"SoundDuration":215160,"Delta":124235886},{"NoteNumber":49,"Velocity":29,"Duration":107401,"SoundDuration":107401,"Delta":124235886},{"NoteNumber":59,"Velocity":28,"Duration":107759,"SoundDuration":107759,"Delta":124343288},{"NoteNumber":75,"Velocity":50,"Duration":217433,"SoundDuration":217433,"Delta":124451047},{"NoteNumber":61,"Velocity":30,"Duration":108434,"SoundDuration":108434,"Delta":124451047},{"NoteNumber":65,"Velocity":31,"Duration":108999,"SoundDuration":108999,"Delta":124559481},{"NoteNumber":73,"Velocity":49,"Duration":240325,"SoundDuration":240325,"Delta":124668480},{"NoteNumber":61,"Velocity":30,"Duration":125523,"SoundDuration":125523,"Delta":124668480},{"NoteNumber":59,"Velocity":29,"Duration":123959,"SoundDuration":123959,"Delta":124794003},{"NoteNumber":70,"Velocity":44,"Duration":643625,"SoundDuration":643625,"Delta":124917962},{"NoteNumber":73,"Velocity":44,"Duration":643625,"SoundDuration":643625,"Delta":124917962},{"NoteNumber":82,"Velocity":56,"Duration":643625,"SoundDuration":643625,"Delta":124917962},{"NoteNumber":54,"Velocity":29,"Duration":109583,"SoundDuration":109583,"Delta":124917962},{"NoteNumber":58,"Velocity":30,"Duration":108657,"SoundDuration":108657,"Delta":125027545},{"NoteNumber":61,"Velocity":34,"Duration":107707,"SoundDuration":107707,"Delta":125136203},{"NoteNumber":66,"Velocity":35,"Duration":106787,"SoundDuration":106787,"Delta":125243911},{"NoteNumber":61,"Velocity":34,"Duration":105907,"SoundDuration":105907,"Delta":125350698},{"NoteNumber":58,"Velocity":33,"Duration":104981,"SoundDuration":104981,"Delta":125456606},{"NoteNumber":68,"Velocity":44,"Duration":759960,"SoundDuration":759960,"Delta":125561588},{"NoteNumber":73,"Velocity":44,"Duration":759960,"SoundDuration":759960,"Delta":125561588},{"NoteNumber":82,"Velocity":62,"Duration":489690,"SoundDuration":489690,"Delta":125561588},{"NoteNumber":52,"Velocity":35,"Duration":120481,"SoundDuration":120481,"Delta":125561588},{"NoteNumber":58,"Velocity":36,"Duration":119928,"SoundDuration":119928,"Delta":125682070},{"NoteNumber":61,"Velocity":39,"Duration":124481,"SoundDuration":124481,"Delta":125801998},{"NoteNumber":68,"Velocity":37,"Duration":124799,"SoundDuration":124799,"Delta":125926479},{"NoteNumber":82,"Velocity":64,"Duration":270270,"SoundDuration":270270,"Delta":126051278},{"NoteNumber":61,"Velocity":34,"Duration":135135,"SoundDuration":135135,"Delta":126051278},{"NoteNumber":58,"Velocity":31,"Duration":135135,"SoundDuration":135135,"Delta":126186413},{"NoteNumber":67,"Velocity":44,"Duration":67567,"SoundDuration":67567,"Delta":126253981},{"NoteNumber":73,"Velocity":45,"Duration":1498589,"SoundDuration":1498589,"Delta":126321548},{"NoteNumber":82,"Velocity":68,"Duration":478088,"SoundDuration":478088,"Delta":126321548},{"NoteNumber":51,"Velocity":36,"Duration":119522,"SoundDuration":119522,"Delta":126321548},{"NoteNumber":58,"Velocity":38,"Duration":119522,"SoundDuration":119522,"Delta":126441070},{"NoteNumber":61,"Velocity":41,"Duration":119521,"SoundDuration":119521,"Delta":126560592},{"NoteNumber":67,"Velocity":45,"Duration":119522,"SoundDuration":119522,"Delta":126680114},{"NoteNumber":75,"Velocity":57,"Duration":265119,"SoundDuration":265119,"Delta":126799636},{"NoteNumber":61,"Velocity":42,"Duration":132158,"SoundDuration":132158,"Delta":126799636},{"NoteNumber":58,"Velocity":39,"Duration":132961,"SoundDuration":132961,"Delta":126931795},{"NoteNumber":75,"Velocity":57,"Duration":236220,"SoundDuration":236220,"Delta":127064756},{"NoteNumber":55,"Velocity":36,"Duration":118110,"SoundDuration":118110,"Delta":127064756},{"NoteNumber":61,"Velocity":38,"Duration":118110,"SoundDuration":118110,"Delta":127182866},{"NoteNumber":77,"Velocity":51,"Duration":59055,"SoundDuration":59055,"Delta":127300977},{"NoteNumber":63,"Velocity":41,"Duration":118110,"SoundDuration":118110,"Delta":127300977},{"NoteNumber":79,"Velocity":51,"Duration":59055,"SoundDuration":59055,"Delta":127360032},{"NoteNumber":77,"Velocity":56,"Duration":257510,"SoundDuration":257510,"Delta":127419087},{"NoteNumber":70,"Velocity":46,"Duration":128755,"SoundDuration":128755,"Delta":127419087},{"NoteNumber":63,"Velocity":42,"Duration":128755,"SoundDuration":128755,"Delta":127547842},{"NoteNumber":75,"Velocity":56,"Duration":131579,"SoundDuration":131579,"Delta":127676597},{"NoteNumber":61,"Velocity":39,"Duration":143540,"SoundDuration":143540,"Delta":127676597},{"NoteNumber":73,"Velocity":49,"Duration":647482,"SoundDuration":647482,"Delta":127820138},{"NoteNumber":75,"Velocity":59,"Duration":647482,"SoundDuration":647482,"Delta":127820138},{"NoteNumber":56,"Velocity":37,"Duration":107913,"SoundDuration":107913,"Delta":127820138},{"NoteNumber":61,"Velocity":38,"Duration":107913,"SoundDuration":107913,"Delta":127928052},{"NoteNumber":63,"Velocity":42,"Duration":107913,"SoundDuration":107913,"Delta":128035966},{"NoteNumber":68,"Velocity":45,"Duration":107913,"SoundDuration":107913,"Delta":128143879},{"NoteNumber":63,"Velocity":41,"Duration":107913,"SoundDuration":107913,"Delta":128251793},{"NoteNumber":61,"Velocity":38,"Duration":107913,"SoundDuration":107913,"Delta":128359707},{"NoteNumber":72,"Velocity":53,"Duration":608107,"SoundDuration":608107,"Delta":128467621},{"NoteNumber":80,"Velocity":64,"Duration":810810,"SoundDuration":810810,"Delta":128467621},{"NoteNumber":51,"Velocity":36,"Duration":101351,"SoundDuration":101351,"Delta":128467621},{"NoteNumber":60,"Velocity":37,"Duration":101351,"SoundDuration":101351,"Delta":128568972},{"NoteNumber":63,"Velocity":40,"Duration":101351,"SoundDuration":101351,"Delta":128670323},{"NoteNumber":68,"Velocity":44,"Duration":101351,"SoundDuration":101351,"Delta":128771674},{"NoteNumber":63,"Velocity":41,"Duration":101351,"SoundDuration":101351,"Delta":128873026},{"NoteNumber":60,"Velocity":39,"Duration":101351,"SoundDuration":101351,"Delta":128974377},{"NoteNumber":73,"Velocity":55,"Duration":1409974,"SoundDuration":1409974,"Delta":129075728},{"NoteNumber":58,"Velocity":36,"Duration":101351,"SoundDuration":101351,"Delta":129075728},{"NoteNumber":61,"Velocity":37,"Duration":101351,"SoundDuration":101351,"Delta":129177079},{"NoteNumber":79,"Velocity":60,"Duration":202702,"SoundDuration":202702,"Delta":129278431},{"NoteNumber":63,"Velocity":40,"Duration":101351,"SoundDuration":101351,"Delta":129278431},{"NoteNumber":70,"Velocity":42,"Duration":101351,"SoundDuration":101351,"Delta":129379782},{"NoteNumber":77,"Velocity":59,"Duration":209789,"SoundDuration":209789,"Delta":129481133},{"NoteNumber":63,"Velocity":41,"Duration":104894,"SoundDuration":104894,"Delta":129481133},{"NoteNumber":61,"Velocity":39,"Duration":104894,"SoundDuration":104894,"Delta":129586028},{"NoteNumber":79,"Velocity":60,"Duration":209789,"SoundDuration":209789,"Delta":129690923},{"NoteNumber":51,"Velocity":37,"Duration":104894,"SoundDuration":104894,"Delta":129690923},{"NoteNumber":61,"Velocity":36,"Duration":104894,"SoundDuration":104894,"Delta":129795818},{"NoteNumber":77,"Velocity":59,"Duration":420154,"SoundDuration":420154,"Delta":129900713},{"NoteNumber":63,"Velocity":38,"Duration":127659,"SoundDuration":127659,"Delta":129900713},{"NoteNumber":67,"Velocity":40,"Duration":127659,"SoundDuration":127659,"Delta":130028373},{"NoteNumber":63,"Velocity":40,"Duration":164835,"SoundDuration":164835,"Delta":130156032},{"NoteNumber":75,"Velocity":56,"Duration":164835,"SoundDuration":164835,"Delta":130320867},{"NoteNumber":61,"Velocity":37,"Duration":164835,"SoundDuration":164835,"Delta":130320867},{"NoteNumber":72,"Velocity":56,"Duration":1517152,"SoundDuration":1517152,"Delta":130485703},{"NoteNumber":84,"Velocity":56,"Duration":648711,"SoundDuration":648711,"Delta":130485703},{"NoteNumber":56,"Velocity":50,"Duration":110092,"SoundDuration":110092,"Delta":130485703},{"NoteNumber":60,"Velocity":40,"Duration":109289,"SoundDuration":109289,"Delta":130595795},{"NoteNumber":63,"Velocity":44,"Duration":108499,"SoundDuration":108499,"Delta":130705085},{"NoteNumber":68,"Velocity":45,"Duration":107720,"SoundDuration":107720,"Delta":130813584},{"NoteNumber":63,"Velocity":44,"Duration":106952,"SoundDuration":106952,"Delta":130921305},{"NoteNumber":60,"Velocity":42,"Duration":106157,"SoundDuration":106157,"Delta":131028257},{"NoteNumber":84,"Velocity":64,"Duration":560747,"SoundDuration":560747,"Delta":131134414},{"NoteNumber":55,"Velocity":39,"Duration":868440,"SoundDuration":868440,"Delta":131134414},{"NoteNumber":56,"Velocity":41,"Duration":140186,"SoundDuration":140186,"Delta":131274601},{"NoteNumber":60,"Velocity":45,"Duration":140186,"SoundDuration":140186,"Delta":131414788},{"NoteNumber":63,"Velocity":49,"Duration":140186,"SoundDuration":140186,"Delta":131554975},{"NoteNumber":84,"Velocity":63,"Duration":294871,"SoundDuration":294871,"Delta":131695162},{"NoteNumber":60,"Velocity":47,"Duration":153846,"SoundDuration":153846,"Delta":131695162},{"NoteNumber":56,"Velocity":41,"Duration":153846,"SoundDuration":153846,"Delta":131849009},{"NoteNumber":84,"Velocity":68,"Duration":1004184,"SoundDuration":1004184,"Delta":132002855},{"NoteNumber":54,"Velocity":38,"Duration":753138,"SoundDuration":753138,"Delta":132002855},{"NoteNumber":56,"Velocity":36,"Duration":125523,"SoundDuration":125523,"Delta":132128378},{"NoteNumber":60,"Velocity":39,"Duration":125522,"SoundDuration":125522,"Delta":132253901},{"NoteNumber":63,"Velocity":42,"Duration":125523,"SoundDuration":125523,"Delta":132379424},{"NoteNumber":60,"Velocity":41,"Duration":125522,"SoundDuration":125522,"Delta":132504947},{"NoteNumber":56,"Velocity":38,"Duration":125523,"SoundDuration":125523,"Delta":132630470},{"NoteNumber":54,"Velocity":47,"Duration":722020,"SoundDuration":722020,"Delta":132755993},{"NoteNumber":56,"Velocity":41,"Duration":125523,"SoundDuration":125523,"Delta":132881516},{"NoteNumber":82,"Velocity":63,"Duration":354330,"SoundDuration":354330,"Delta":133007039},{"NoteNumber":60,"Velocity":41,"Duration":118110,"SoundDuration":118110,"Delta":133007039},{"NoteNumber":63,"Velocity":41,"Duration":118110,"SoundDuration":118110,"Delta":133125149},{"NoteNumber":60,"Velocity":38,"Duration":118110,"SoundDuration":118110,"Delta":133243259},{"NoteNumber":80,"Velocity":63,"Duration":108023,"SoundDuration":108023,"Delta":133361370},{"NoteNumber":56,"Velocity":35,"Duration":116644,"SoundDuration":116644,"Delta":133361370},{"NoteNumber":80,"Velocity":63,"Duration":608168,"SoundDuration":608168,"Delta":133478014},{"NoteNumber":53,"Velocity":34,"Duration":608168,"SoundDuration":608168,"Delta":133478014},{"NoteNumber":56,"Velocity":33,"Duration":102447,"SoundDuration":102447,"Delta":133581213},{"NoteNumber":61,"Velocity":36,"Duration":101718,"SoundDuration":101718,"Delta":133683661},{"NoteNumber":65,"Velocity":39,"Duration":100976,"SoundDuration":100976,"Delta":133785380},{"NoteNumber":61,"Velocity":37,"Duration":100279,"SoundDuration":100279,"Delta":133886357},{"NoteNumber":56,"Velocity":35,"Duration":99546,"SoundDuration":99546,"Delta":133986636},{"NoteNumber":85,"Velocity":75,"Duration":594060,"SoundDuration":594060,"Delta":134086183},{"NoteNumber":53,"Velocity":36,"Duration":99009,"SoundDuration":99009,"Delta":134086183},{"NoteNumber":56,"Velocity":38,"Duration":99010,"SoundDuration":99010,"Delta":134185193},{"NoteNumber":61,"Velocity":41,"Duration":99009,"SoundDuration":99009,"Delta":134284203},{"NoteNumber":68,"Velocity":42,"Duration":99009,"SoundDuration":99009,"Delta":134383213},{"NoteNumber":61,"Velocity":40,"Duration":99009,"SoundDuration":99009,"Delta":134482223},{"NoteNumber":56,"Velocity":37,"Duration":99010,"SoundDuration":99010,"Delta":134581233},{"NoteNumber":85,"Velocity":82,"Duration":396039,"SoundDuration":396039,"Delta":134680243},{"NoteNumber":51,"Velocity":35,"Duration":99009,"SoundDuration":99009,"Delta":134680243},{"NoteNumber":56,"Velocity":38,"Duration":99009,"SoundDuration":99009,"Delta":134779253},{"NoteNumber":60,"Velocity":41,"Duration":99009,"SoundDuration":99009,"Delta":134878263},{"NoteNumber":66,"Velocity":41,"Duration":99010,"SoundDuration":99010,"Delta":134977273},{"NoteNumber":84,"Velocity":78,"Duration":189769,"SoundDuration":189769,"Delta":135076283},{"NoteNumber":60,"Velocity":39,"Duration":99009,"SoundDuration":99009,"Delta":135076283},{"NoteNumber":56,"Velocity":36,"Duration":99009,"SoundDuration":99009,"Delta":135175293},{"NoteNumber":84,"Velocity":75,"Duration":208333,"SoundDuration":208333,"Delta":135274303},{"NoteNumber":51,"Velocity":34,"Duration":104166,"SoundDuration":104166,"Delta":135274303},{"NoteNumber":56,"Velocity":34,"Duration":104166,"SoundDuration":104166,"Delta":135378469},{"NoteNumber":82,"Velocity":71,"Duration":360816,"SoundDuration":360816,"Delta":135482636},{"NoteNumber":60,"Velocity":37,"Duration":117647,"SoundDuration":117647,"Delta":135482636},{"NoteNumber":66,"Velocity":39,"Duration":117647,"SoundDuration":117647,"Delta":135600283},{"NoteNumber":60,"Velocity":36,"Duration":125522,"SoundDuration":125522,"Delta":135717930},{"NoteNumber":80,"Velocity":63,"Duration":125523,"SoundDuration":125523,"Delta":135843453},{"NoteNumber":56,"Velocity":31,"Duration":125523,"SoundDuration":125523,"Delta":135843453},{"NoteNumber":89,"Velocity":80,"Duration":753138,"SoundDuration":753138,"Delta":135968976},{"NoteNumber":50,"Velocity":31,"Duration":125522,"SoundDuration":125522,"Delta":135968976},{"NoteNumber":56,"Velocity":31,"Duration":125523,"SoundDuration":125523,"Delta":136094499},{"NoteNumber":59,"Velocity":35,"Duration":125522,"SoundDuration":125522,"Delta":136220022},{"NoteNumber":65,"Velocity":37,"Duration":125523,"SoundDuration":125523,"Delta":136345545},{"NoteNumber":59,"Velocity":36,"Duration":125522,"SoundDuration":125522,"Delta":136471068},{"NoteNumber":56,"Velocity":34,"Duration":125523,"SoundDuration":125523,"Delta":136596591},{"NoteNumber":89,"Velocity":77,"Duration":582524,"SoundDuration":582524,"Delta":136722114},{"NoteNumber":50,"Velocity":34,"Duration":145631,"SoundDuration":145631,"Delta":136722114},{"NoteNumber":56,"Velocity":30,"Duration":145630,"SoundDuration":145630,"Delta":136867745},{"NoteNumber":58,"Velocity":35,"Duration":145631,"SoundDuration":145631,"Delta":137013376},{"NoteNumber":65,"Velocity":37,"Duration":145631,"SoundDuration":145631,"Delta":137159007},{"NoteNumber":89,"Velocity":81,"Duration":342262,"SoundDuration":342262,"Delta":137304638},{"NoteNumber":58,"Velocity":36,"Duration":178571,"SoundDuration":178571,"Delta":137304638},{"NoteNumber":56,"Velocity":34,"Duration":178571,"SoundDuration":178571,"Delta":137483210},{"NoteNumber":89,"Velocity":85,"Duration":780697,"SoundDuration":780697,"Delta":137661781},{"NoteNumber":51,"Velocity":34,"Duration":134010,"SoundDuration":134010,"Delta":137661781},{"NoteNumber":54,"Velocity":35,"Duration":132452,"SoundDuration":132452,"Delta":137795791},{"NoteNumber":58,"Velocity":38,"Duration":130835,"SoundDuration":130835,"Delta":137928244},{"NoteNumber":63,"Velocity":39,"Duration":129311,"SoundDuration":129311,"Delta":138059079},{"NoteNumber":58,"Velocity":38,"Duration":127770,"SoundDuration":127770,"Delta":138188391},{"NoteNumber":54,"Velocity":36,"Duration":126317,"SoundDuration":126317,"Delta":138316161},{"NoteNumber":87,"Velocity":72,"Duration":263158,"SoundDuration":263158,"Delta":138442479},{"NoteNumber":42,"Velocity":34,"Duration":131578,"SoundDuration":131578,"Delta":138442479},{"NoteNumber":54,"Velocity":31,"Duration":131579,"SoundDuration":131579,"Delta":138574058},{"NoteNumber":85,"Velocity":71,"Duration":263158,"SoundDuration":263158,"Delta":138705637},{"NoteNumber":58,"Velocity":36,"Duration":131578,"SoundDuration":131578,"Delta":138705637},{"NoteNumber":63,"Velocity":38,"Duration":131579,"SoundDuration":131579,"Delta":138837216},{"NoteNumber":82,"Velocity":70,"Duration":263158,"SoundDuration":263158,"Delta":138968795},{"NoteNumber":58,"Velocity":36,"Duration":131578,"SoundDuration":131578,"Delta":138968795},{"NoteNumber":54,"Velocity":34,"Duration":131579,"SoundDuration":131579,"Delta":139100374},{"NoteNumber":84,"Velocity":75,"Duration":789473,"SoundDuration":789473,"Delta":139231953},{"NoteNumber":44,"Velocity":35,"Duration":131578,"SoundDuration":131578,"Delta":139231953},{"NoteNumber":53,"Velocity":36,"Duration":131578,"SoundDuration":131578,"Delta":139363532},{"NoteNumber":56,"Velocity":37,"Duration":131579,"SoundDuration":131579,"Delta":139495111},{"NoteNumber":61,"Velocity":39,"Duration":131578,"SoundDuration":131578,"Delta":139626690},{"NoteNumber":56,"Velocity":37,"Duration":131579,"SoundDuration":131579,"Delta":139758269},{"NoteNumber":53,"Velocity":35,"Duration":131578,"SoundDuration":131578,"Delta":139889848},{"NoteNumber":82,"Velocity":71,"Duration":263158,"SoundDuration":263158,"Delta":140021427},{"NoteNumber":44,"Velocity":33,"Duration":131579,"SoundDuration":131579,"Delta":140021427},{"NoteNumber":53,"Velocity":34,"Duration":131578,"SoundDuration":131578,"Delta":140153006},{"NoteNumber":80,"Velocity":68,"Duration":263158,"SoundDuration":263158,"Delta":140284585},{"NoteNumber":56,"Velocity":35,"Duration":131578,"SoundDuration":131578,"Delta":140284585},{"NoteNumber":61,"Velocity":38,"Duration":131579,"SoundDuration":131579,"Delta":140416164},{"NoteNumber":77,"Velocity":63,"Duration":263158,"SoundDuration":263158,"Delta":140547743},{"NoteNumber":56,"Velocity":37,"Duration":131578,"SoundDuration":131578,"Delta":140547743},{"NoteNumber":53,"Velocity":36,"Duration":131579,"SoundDuration":131579,"Delta":140679322},{"NoteNumber":82,"Velocity":69,"Duration":263158,"SoundDuration":263158,"Delta":140810901},{"NoteNumber":44,"Velocity":39,"Duration":131578,"SoundDuration":131578,"Delta":140810901},{"NoteNumber":54,"Velocity":34,"Duration":131579,"SoundDuration":131579,"Delta":140942480},{"NoteNumber":80,"Velocity":64,"Duration":263157,"SoundDuration":263157,"Delta":141074059},{"NoteNumber":56,"Velocity":36,"Duration":131578,"SoundDuration":131578,"Delta":141074059},{"NoteNumber":60,"Velocity":36,"Duration":131578,"SoundDuration":131578,"Delta":141205638},{"NoteNumber":78,"Velocity":61,"Duration":252193,"SoundDuration":252193,"Delta":141337217},{"NoteNumber":56,"Velocity":35,"Duration":131579,"SoundDuration":131579,"Delta":141337217},{"NoteNumber":54,"Velocity":34,"Duration":131578,"SoundDuration":131578,"Delta":141468796},{"NoteNumber":78,"Velocity":55,"Duration":68493,"SoundDuration":68493,"Delta":141600375},{"NoteNumber":44,"Velocity":31,"Duration":136986,"SoundDuration":136986,"Delta":141600375},{"NoteNumber":80,"Velocity":55,"Duration":68493,"SoundDuration":68493,"Delta":141668868},{"NoteNumber":78,"Velocity":63,"Duration":136986,"SoundDuration":136986,"Delta":141737361},{"NoteNumber":54,"Velocity":31,"Duration":136986,"SoundDuration":136986,"Delta":141737361},{"NoteNumber":77,"Velocity":58,"Duration":471962,"SoundDuration":471962,"Delta":141874347},{"NoteNumber":56,"Velocity":35,"Duration":150753,"SoundDuration":150753,"Delta":141874347},{"NoteNumber":60,"Velocity":37,"Duration":150753,"SoundDuration":150753,"Delta":142025101},{"NoteNumber":56,"Velocity":35,"Duration":170454,"SoundDuration":170454,"Delta":142175855},{"NoteNumber":76,"Velocity":59,"Duration":156249,"SoundDuration":156249,"Delta":142346309},{"NoteNumber":54,"Velocity":33,"Duration":170454,"SoundDuration":170454,"Delta":142346309},{"NoteNumber":76,"Velocity":59,"Duration":867948,"SoundDuration":867948,"Delta":142516764},{"NoteNumber":49,"Velocity":33,"Duration":150002,"SoundDuration":150002,"Delta":142516764},{"NoteNumber":56,"Velocity":33,"Duration":147785,"SoundDuration":147785,"Delta":142666766},{"NoteNumber":61,"Velocity":36,"Duration":145633,"SoundDuration":145633,"Delta":142814552},{"NoteNumber":65,"Velocity":37,"Duration":143542,"SoundDuration":143542,"Delta":142960185},{"NoteNumber":61,"Velocity":36,"Duration":141511,"SoundDuration":141511,"Delta":143103728},{"NoteNumber":58,"Velocity":35,"Duration":139472,"SoundDuration":139472,"Delta":143245240},{"NoteNumber":77,"Velocity":63,"Duration":552995,"SoundDuration":552995,"Delta":143384713},{"NoteNumber":56,"Velocity":36,"Duration":138248,"SoundDuration":138248,"Delta":143384713},{"NoteNumber":61,"Velocity":36,"Duration":138248,"SoundDuration":138248,"Delta":143522961},{"NoteNumber":65,"Velocity":39,"Duration":138248,"SoundDuration":138248,"Delta":143661210},{"NoteNumber":68,"Velocity":40,"Duration":138248,"SoundDuration":138248,"Delta":143799459},{"NoteNumber":80,"Velocity":57,"Duration":258620,"SoundDuration":258620,"Delta":143937708},{"NoteNumber":65,"Velocity":39,"Duration":129310,"SoundDuration":129310,"Delta":143937708},{"NoteNumber":61,"Velocity":38,"Duration":129310,"SoundDuration":129310,"Delta":144067018},{"NoteNumber":68,"Velocity":57,"Duration":506328,"SoundDuration":506328,"Delta":144196328},{"NoteNumber":54,"Velocity":38,"Duration":759493,"SoundDuration":759493,"Delta":144196328},{"NoteNumber":80,"Velocity":57,"Duration":696202,"SoundDuration":696202,"Delta":144259619},{"NoteNumber":56,"Velocity":42,"Duration":126582,"SoundDuration":126582,"Delta":144322910},{"NoteNumber":60,"Velocity":42,"Duration":126582,"SoundDuration":126582,"Delta":144449493},{"NoteNumber":63,"Velocity":42,"Duration":126582,"SoundDuration":126582,"Delta":144576075},{"NoteNumber":72,"Velocity":63,"Duration":553164,"SoundDuration":553164,"Delta":144702657},{"NoteNumber":60,"Velocity":42,"Duration":126582,"SoundDuration":126582,"Delta":144702657},{"NoteNumber":56,"Velocity":42,"Duration":126582,"SoundDuration":126582,"Delta":144829239},{"NoteNumber":84,"Velocity":63,"Duration":300000,"SoundDuration":300000,"Delta":144955822},{"NoteNumber":54,"Velocity":41,"Duration":770974,"SoundDuration":770974,"Delta":144955822},{"NoteNumber":56,"Velocity":45,"Duration":150000,"SoundDuration":150000,"Delta":145105822},{"NoteNumber":70,"Velocity":63,"Duration":354330,"SoundDuration":354330,"Delta":145255822},{"NoteNumber":82,"Velocity":63,"Duration":354330,"SoundDuration":354330,"Delta":145255822},{"NoteNumber":60,"Velocity":45,"Duration":118110,"SoundDuration":118110,"Delta":145255822},{"NoteNumber":63,"Velocity":45,"Duration":118110,"SoundDuration":118110,"Delta":145373932},{"NoteNumber":60,"Velocity":41,"Duration":118110,"SoundDuration":118110,"Delta":145492042},{"NoteNumber":68,"Velocity":63,"Duration":108023,"SoundDuration":108023,"Delta":145610152},{"NoteNumber":80,"Velocity":63,"Duration":108023,"SoundDuration":108023,"Delta":145610152},{"NoteNumber":56,"Velocity":38,"Duration":116644,"SoundDuration":116644,"Delta":145610152},{"NoteNumber":68,"Velocity":63,"Duration":608168,"SoundDuration":608168,"Delta":145726797},{"NoteNumber":80,"Velocity":63,"Duration":1202228,"SoundDuration":1202228,"Delta":145726797},{"NoteNumber":53,"Velocity":37,"Duration":608168,"SoundDuration":608168,"Delta":145726797},{"NoteNumber":56,"Velocity":36,"Duration":102447,"SoundDuration":102447,"Delta":145829996},{"NoteNumber":61,"Velocity":39,"Duration":101718,"SoundDuration":101718,"Delta":145932444},{"NoteNumber":65,"Velocity":42,"Duration":100976,"SoundDuration":100976,"Delta":146034163},{"NoteNumber":61,"Velocity":40,"Duration":100279,"SoundDuration":100279,"Delta":146135139},{"NoteNumber":56,"Velocity":38,"Duration":99546,"SoundDuration":99546,"Delta":146235418},{"NoteNumber":73,"Velocity":75,"Duration":594060,"SoundDuration":594060,"Delta":146334965},{"NoteNumber":85,"Velocity":75,"Duration":594060,"SoundDuration":594060,"Delta":146334965},{"NoteNumber":53,"Velocity":39,"Duration":99009,"SoundDuration":99009,"Delta":146334965},{"NoteNumber":56,"Velocity":41,"Duration":99010,"SoundDuration":99010,"Delta":146433975},{"NoteNumber":61,"Velocity":45,"Duration":99009,"SoundDuration":99009,"Delta":146532985},{"NoteNumber":68,"Velocity":46,"Duration":99009,"SoundDuration":99009,"Delta":146631995},{"NoteNumber":61,"Velocity":44,"Duration":99009,"SoundDuration":99009,"Delta":146731005},{"NoteNumber":56,"Velocity":40,"Duration":99010,"SoundDuration":99010,"Delta":146830015},{"NoteNumber":78,"Velocity":60,"Duration":594059,"SoundDuration":594059,"Delta":146929025},{"NoteNumber":80,"Velocity":60,"Duration":594059,"SoundDuration":594059,"Delta":146929025},{"NoteNumber":73,"Velocity":75,"Duration":297029,"SoundDuration":297029,"Delta":146929025},{"NoteNumber":85,"Velocity":75,"Duration":297029,"SoundDuration":297029,"Delta":146929025},{"NoteNumber":51,"Velocity":39,"Duration":99009,"SoundDuration":99009,"Delta":146929025},{"NoteNumber":56,"Velocity":41,"Duration":99009,"SoundDuration":99009,"Delta":147028035},{"NoteNumber":60,"Velocity":45,"Duration":99009,"SoundDuration":99009,"Delta":147127045},{"NoteNumber":84,"Velocity":71,"Duration":99010,"SoundDuration":99010,"Delta":147226055},{"NoteNumber":72,"Velocity":71,"Duration":99010,"SoundDuration":99010,"Delta":147226055},{"NoteNumber":66,"Velocity":45,"Duration":99010,"SoundDuration":99010,"Delta":147226055},{"NoteNumber":80,"Velocity":70,"Duration":198019,"SoundDuration":198019,"Delta":147325065},{"NoteNumber":78,"Velocity":70,"Duration":198019,"SoundDuration":198019,"Delta":147325065},{"NoteNumber":72,"Velocity":70,"Duration":198019,"SoundDuration":198019,"Delta":147325065},{"NoteNumber":84,"Velocity":70,"Duration":198019,"SoundDuration":198019,"Delta":147325065},{"NoteNumber":60,"Velocity":42,"Duration":99009,"SoundDuration":99009,"Delta":147325065},{"NoteNumber":56,"Velocity":39,"Duration":99009,"SoundDuration":99009,"Delta":147424075},{"NoteNumber":80,"Velocity":60,"Duration":325980,"SoundDuration":325980,"Delta":147523085},{"NoteNumber":78,"Velocity":60,"Duration":325980,"SoundDuration":325980,"Delta":147523085},{"NoteNumber":72,"Velocity":75,"Duration":325980,"SoundDuration":325980,"Delta":147523085},{"NoteNumber":84,"Velocity":75,"Duration":325980,"SoundDuration":325980,"Delta":147523085},{"NoteNumber":51,"Velocity":38,"Duration":104166,"SoundDuration":104166,"Delta":147523085},{"NoteNumber":56,"Velocity":37,"Duration":104166,"SoundDuration":104166,"Delta":147627252},{"NoteNumber":60,"Velocity":40,"Duration":117647,"SoundDuration":117647,"Delta":147731419},{"NoteNumber":70,"Velocity":71,"Duration":117647,"SoundDuration":117647,"Delta":147849066},{"NoteNumber":82,"Velocity":71,"Duration":117647,"SoundDuration":117647,"Delta":147849066},{"NoteNumber":66,"Velocity":42,"Duration":117647,"SoundDuration":117647,"Delta":147849066},{"NoteNumber":78,"Velocity":60,"Duration":240963,"SoundDuration":240963,"Delta":147966713},{"NoteNumber":68,"Velocity":63,"Duration":240963,"SoundDuration":240963,"Delta":147966713},{"NoteNumber":80,"Velocity":63,"Duration":240963,"SoundDuration":240963,"Delta":147966713},{"NoteNumber":60,"Velocity":39,"Duration":120482,"SoundDuration":120482,"Delta":147966713},{"NoteNumber":56,"Velocity":34,"Duration":120481,"SoundDuration":120481,"Delta":148087195},{"NoteNumber":80,"Velocity":80,"Duration":722892,"SoundDuration":722892,"Delta":148207677},{"NoteNumber":77,"Velocity":68,"Duration":722892,"SoundDuration":722892,"Delta":148207677},{"NoteNumber":89,"Velocity":80,"Duration":722892,"SoundDuration":722892,"Delta":148207677},{"NoteNumber":50,"Velocity":35,"Duration":120482,"SoundDuration":120482,"Delta":148207677},{"NoteNumber":56,"Velocity":37,"Duration":120482,"SoundDuration":120482,"Delta":148328159},{"NoteNumber":59,"Velocity":41,"Duration":120481,"SoundDuration":120481,"Delta":148448641},{"NoteNumber":65,"Velocity":44,"Duration":120482,"SoundDuration":120482,"Delta":148569123},{"NoteNumber":59,"Velocity":42,"Duration":120482,"SoundDuration":120482,"Delta":148689605},{"NoteNumber":56,"Velocity":40,"Duration":120481,"SoundDuration":120481,"Delta":148810087},{"NoteNumber":77,"Velocity":65,"Duration":526316,"SoundDuration":526316,"Delta":148930569},{"NoteNumber":80,"Velocity":77,"Duration":526316,"SoundDuration":526316,"Delta":148930569},{"NoteNumber":89,"Velocity":77,"Duration":526316,"SoundDuration":526316,"Delta":148930569},{"NoteNumber":50,"Velocity":35,"Duration":131578,"SoundDuration":131578,"Delta":148930569},{"NoteNumber":56,"Velocity":36,"Duration":131579,"SoundDuration":131579,"Delta":149062148},{"NoteNumber":58,"Velocity":41,"Duration":131578,"SoundDuration":131578,"Delta":149193727},{"NoteNumber":65,"Velocity":44,"Duration":131579,"SoundDuration":131579,"Delta":149325306},{"NoteNumber":77,"Velocity":66,"Duration":287499,"SoundDuration":287499,"Delta":149456885},{"NoteNumber":80,"Velocity":78,"Duration":287499,"SoundDuration":287499,"Delta":149456885},{"NoteNumber":89,"Velocity":78,"Duration":287499,"SoundDuration":287499,"Delta":149456885},{"NoteNumber":58,"Velocity":42,"Duration":150000,"SoundDuration":150000,"Delta":149456885},{"NoteNumber":56,"Velocity":40,"Duration":150000,"SoundDuration":150000,"Delta":149606885},{"NoteNumber":77,"Velocity":69,"Duration":780697,"SoundDuration":780697,"Delta":149756885},{"NoteNumber":80,"Velocity":82,"Duration":780697,"SoundDuration":780697,"Delta":149756885},{"NoteNumber":89,"Velocity":82,"Duration":780697,"SoundDuration":780697,"Delta":149756885},{"NoteNumber":51,"Velocity":37,"Duration":134010,"SoundDuration":134010,"Delta":149756885},{"NoteNumber":54,"Velocity":38,"Duration":132452,"SoundDuration":132452,"Delta":149890895},{"NoteNumber":58,"Velocity":41,"Duration":130835,"SoundDuration":130835,"Delta":150023348},{"NoteNumber":63,"Velocity":42,"Duration":129311,"SoundDuration":129311,"Delta":150154183},{"NoteNumber":58,"Velocity":41,"Duration":127770,"SoundDuration":127770,"Delta":150283495},{"NoteNumber":54,"Velocity":39,"Duration":126317,"SoundDuration":126317,"Delta":150411265},{"NoteNumber":78,"Velocity":67,"Duration":263158,"SoundDuration":263158,"Delta":150537583},{"NoteNumber":75,"Velocity":56,"Duration":263158,"SoundDuration":263158,"Delta":150537583},{"NoteNumber":87,"Velocity":67,"Duration":263158,"SoundDuration":263158,"Delta":150537583},{"NoteNumber":42,"Velocity":37,"Duration":131578,"SoundDuration":131578,"Delta":150537583},{"NoteNumber":54,"Velocity":34,"Duration":131579,"SoundDuration":131579,"Delta":150669162},{"NoteNumber":73,"Velocity":55,"Duration":406808,"SoundDuration":406808,"Delta":150800741},{"NoteNumber":78,"Velocity":65,"Duration":406808,"SoundDuration":406808,"Delta":150800741},{"NoteNumber":85,"Velocity":65,"Duration":406808,"SoundDuration":406808,"Delta":150800741},{"NoteNumber":58,"Velocity":39,"Duration":131578,"SoundDuration":131578,"Delta":150800741},{"NoteNumber":63,"Velocity":41,"Duration":137614,"SoundDuration":137614,"Delta":150932320},{"NoteNumber":58,"Velocity":39,"Duration":137614,"SoundDuration":137614,"Delta":151069934},{"NoteNumber":70,"Velocity":54,"Duration":147058,"SoundDuration":147058,"Delta":151207549},{"NoteNumber":78,"Velocity":64,"Duration":147058,"SoundDuration":147058,"Delta":151207549},{"NoteNumber":82,"Velocity":64,"Duration":147058,"SoundDuration":147058,"Delta":151207549},{"NoteNumber":54,"Velocity":37,"Duration":147058,"SoundDuration":147058,"Delta":151207549},{"NoteNumber":72,"Velocity":52,"Duration":789474,"SoundDuration":789474,"Delta":151354608},{"NoteNumber":80,"Velocity":62,"Duration":789474,"SoundDuration":789474,"Delta":151354608},{"NoteNumber":84,"Velocity":62,"Duration":789474,"SoundDuration":789474,"Delta":151354608},{"NoteNumber":44,"Velocity":37,"Duration":131578,"SoundDuration":131578,"Delta":151354608},{"NoteNumber":53,"Velocity":39,"Duration":131579,"SoundDuration":131579,"Delta":151486187},{"NoteNumber":56,"Velocity":40,"Duration":131578,"SoundDuration":131578,"Delta":151617766},{"NoteNumber":61,"Velocity":42,"Duration":131579,"SoundDuration":131579,"Delta":151749345},{"NoteNumber":56,"Velocity":40,"Duration":131578,"SoundDuration":131578,"Delta":151880924},{"NoteNumber":53,"Velocity":38,"Duration":131579,"SoundDuration":131579,"Delta":152012503},{"NoteNumber":70,"Velocity":54,"Duration":216606,"SoundDuration":216606,"Delta":152144082},{"NoteNumber":78,"Velocity":64,"Duration":216606,"SoundDuration":216606,"Delta":152144082},{"NoteNumber":82,"Velocity":64,"Duration":216606,"SoundDuration":216606,"Delta":152144082},{"NoteNumber":44,"Velocity":35,"Duration":108303,"SoundDuration":108303,"Delta":152144082},{"NoteNumber":53,"Velocity":35,"Duration":108303,"SoundDuration":108303,"Delta":152252385},{"NoteNumber":68,"Velocity":57,"Duration":216606,"SoundDuration":216606,"Delta":152360688},{"NoteNumber":77,"Velocity":68,"Duration":216606,"SoundDuration":216606,"Delta":152360688},{"NoteNumber":80,"Velocity":68,"Duration":216606,"SoundDuration":216606,"Delta":152360688},{"NoteNumber":56,"Velocity":37,"Duration":108303,"SoundDuration":108303,"Delta":152360688},{"NoteNumber":61,"Velocity":39,"Duration":108303,"SoundDuration":108303,"Delta":152468992},{"NoteNumber":70,"Velocity":61,"Duration":235294,"SoundDuration":235294,"Delta":152577295},{"NoteNumber":77,"Velocity":72,"Duration":235294,"SoundDuration":235294,"Delta":152577295},{"NoteNumber":82,"Velocity":72,"Duration":235294,"SoundDuration":235294,"Delta":152577295},{"NoteNumber":56,"Velocity":37,"Duration":117647,"SoundDuration":117647,"Delta":152577295},{"NoteNumber":53,"Velocity":35,"Duration":117647,"SoundDuration":117647,"Delta":152694942},{"NoteNumber":77,"Velocity":77,"Duration":470587,"SoundDuration":470587,"Delta":152812589},{"NoteNumber":71,"Velocity":65,"Duration":470587,"SoundDuration":470587,"Delta":152812589},{"NoteNumber":83,"Velocity":77,"Duration":470587,"SoundDuration":470587,"Delta":152812589},{"NoteNumber":44,"Velocity":38,"Duration":117646,"SoundDuration":117646,"Delta":152812589},{"NoteNumber":53,"Velocity":37,"Duration":117647,"SoundDuration":117647,"Delta":152930236},{"NoteNumber":56,"Velocity":39,"Duration":117647,"SoundDuration":117647,"Delta":153047883},{"NoteNumber":62,"Velocity":41,"Duration":117647,"SoundDuration":117647,"Delta":153165530},{"NoteNumber":77,"Velocity":75,"Duration":235294,"SoundDuration":235294,"Delta":153283177},{"NoteNumber":70,"Velocity":63,"Duration":235294,"SoundDuration":235294,"Delta":153283177},{"NoteNumber":82,"Velocity":75,"Duration":235294,"SoundDuration":235294,"Delta":153283177},{"NoteNumber":56,"Velocity":39,"Duration":117647,"SoundDuration":117647,"Delta":153283177},{"NoteNumber":53,"Velocity":36,"Duration":117647,"SoundDuration":117647,"Delta":153400824},{"NoteNumber":71,"Velocity":66,"Duration":1176469,"SoundDuration":1176469,"Delta":153518471},{"NoteNumber":77,"Velocity":78,"Duration":1176469,"SoundDuration":1176469,"Delta":153518471},{"NoteNumber":83,"Velocity":78,"Duration":1176469,"SoundDuration":1176469,"Delta":153518471},{"NoteNumber":44,"Velocity":40,"Duration":117646,"SoundDuration":117646,"Delta":153518471},{"NoteNumber":53,"Velocity":39,"Duration":117647,"SoundDuration":117647,"Delta":153636118},{"NoteNumber":56,"Velocity":43,"Duration":117647,"SoundDuration":117647,"Delta":153753765},{"NoteNumber":62,"Velocity":48,"Duration":117647,"SoundDuration":117647,"Delta":153871412},{"NoteNumber":56,"Velocity":45,"Duration":117647,"SoundDuration":117647,"Delta":153989059},{"NoteNumber":53,"Velocity":41,"Duration":117646,"SoundDuration":117646,"Delta":154106706},{"NoteNumber":44,"Velocity":40,"Duration":117647,"SoundDuration":117647,"Delta":154224353},{"NoteNumber":53,"Velocity":40,"Duration":117647,"SoundDuration":117647,"Delta":154342000},{"NoteNumber":56,"Velocity":43,"Duration":117647,"SoundDuration":117647,"Delta":154459647},{"NoteNumber":62,"Velocity":45,"Duration":117647,"SoundDuration":117647,"Delta":154577294},{"NoteNumber":70,"Velocity":64,"Duration":209058,"SoundDuration":209058,"Delta":154694941},{"NoteNumber":77,"Velocity":76,"Duration":209058,"SoundDuration":209058,"Delta":154694941},{"NoteNumber":82,"Velocity":76,"Duration":209058,"SoundDuration":209058,"Delta":154694941},{"NoteNumber":56,"Velocity":42,"Duration":104529,"SoundDuration":104529,"Delta":154694941},{"NoteNumber":53,"Velocity":36,"Duration":104529,"SoundDuration":104529,"Delta":154799470},{"NoteNumber":71,"Velocity":68,"Duration":206185,"SoundDuration":206185,"Delta":154904000},{"NoteNumber":77,"Velocity":81,"Duration":206185,"SoundDuration":206185,"Delta":154904000},{"NoteNumber":83,"Velocity":81,"Duration":206185,"SoundDuration":206185,"Delta":154904000},{"NoteNumber":44,"Velocity":52,"Duration":103092,"SoundDuration":103092,"Delta":154904000},{"NoteNumber":53,"Velocity":40,"Duration":103092,"SoundDuration":103092,"Delta":155007093},{"NoteNumber":70,"Velocity":66,"Duration":206185,"SoundDuration":206185,"Delta":155110185},{"NoteNumber":77,"Velocity":78,"Duration":206185,"SoundDuration":206185,"Delta":155110185},{"NoteNumber":82,"Velocity":78,"Duration":206185,"SoundDuration":206185,"Delta":155110185},{"NoteNumber":56,"Velocity":43,"Duration":103092,"SoundDuration":103092,"Delta":155110185},{"NoteNumber":62,"Velocity":47,"Duration":103092,"SoundDuration":103092,"Delta":155213278},{"NoteNumber":71,"Velocity":66,"Duration":206185,"SoundDuration":206185,"Delta":155316371},{"NoteNumber":77,"Velocity":78,"Duration":206185,"SoundDuration":206185,"Delta":155316371},{"NoteNumber":83,"Velocity":78,"Duration":206185,"SoundDuration":206185,"Delta":155316371},{"NoteNumber":56,"Velocity":44,"Duration":103092,"SoundDuration":103092,"Delta":155316371},{"NoteNumber":53,"Velocity":40,"Duration":103092,"SoundDuration":103092,"Delta":155419464},{"NoteNumber":71,"Velocity":68,"Duration":412370,"SoundDuration":412370,"Delta":155522556},{"NoteNumber":78,"Velocity":81,"Duration":412370,"SoundDuration":412370,"Delta":155522556},{"NoteNumber":83,"Velocity":81,"Duration":412370,"SoundDuration":412370,"Delta":155522556},{"NoteNumber":44,"Velocity":54,"Duration":103092,"SoundDuration":103092,"Delta":155522556},{"NoteNumber":51,"Velocity":43,"Duration":103092,"SoundDuration":103092,"Delta":155625649},{"NoteNumber":54,"Velocity":47,"Duration":103092,"SoundDuration":103092,"Delta":155728742},{"NoteNumber":63,"Velocity":50,"Duration":103092,"SoundDuration":103092,"Delta":155831835},{"NoteNumber":70,"Velocity":69,"Duration":206185,"SoundDuration":206185,"Delta":155934927},{"NoteNumber":78,"Velocity":82,"Duration":206185,"SoundDuration":206185,"Delta":155934927},{"NoteNumber":82,"Velocity":82,"Duration":206185,"SoundDuration":206185,"Delta":155934927},{"NoteNumber":54,"Velocity":46,"Duration":103092,"SoundDuration":103092,"Delta":155934927},{"NoteNumber":51,"Velocity":43,"Duration":103092,"SoundDuration":103092,"Delta":156038020},{"NoteNumber":94,"Velocity":95,"Duration":927834,"SoundDuration":927834,"Delta":156141113},{"NoteNumber":90,"Velocity":95,"Duration":927834,"SoundDuration":927834,"Delta":156141113},{"NoteNumber":82,"Velocity":80,"Duration":927834,"SoundDuration":927834,"Delta":156141113},{"NoteNumber":44,"Velocity":67,"Duration":103092,"SoundDuration":103092,"Delta":156141113},{"NoteNumber":51,"Velocity":50,"Duration":103092,"SoundDuration":103092,"Delta":156244206},{"NoteNumber":54,"Velocity":55,"Duration":103092,"SoundDuration":103092,"Delta":156347298},{"NoteNumber":63,"Velocity":58,"Duration":103092,"SoundDuration":103092,"Delta":156450391},{"NoteNumber":54,"Velocity":55,"Duration":103092,"SoundDuration":103092,"Delta":156553484},{"NoteNumber":51,"Velocity":52,"Duration":103092,"SoundDuration":103092,"Delta":156656577},{"NoteNumber":44,"Velocity":62,"Duration":103092,"SoundDuration":103092,"Delta":156759669},{"NoteNumber":51,"Velocity":50,"Duration":103092,"SoundDuration":103092,"Delta":156862762},{"NoteNumber":54,"Velocity":55,"Duration":103092,"SoundDuration":103092,"Delta":156965855},{"NoteNumber":84,"Velocity":80,"Duration":94501,"SoundDuration":94501,"Delta":157068948},{"NoteNumber":78,"Velocity":80,"Duration":94501,"SoundDuration":94501,"Delta":157068948},{"NoteNumber":72,"Velocity":68,"Duration":94501,"SoundDuration":94501,"Delta":157068948},{"NoteNumber":60,"Velocity":58,"Duration":103092,"SoundDuration":103092,"Delta":157068948},{"NoteNumber":72,"Velocity":68,"Duration":197594,"SoundDuration":197594,"Delta":157172040},{"NoteNumber":78,"Velocity":80,"Duration":197594,"SoundDuration":197594,"Delta":157172040},{"NoteNumber":84,"Velocity":80,"Duration":197594,"SoundDuration":197594,"Delta":157172040},{"NoteNumber":54,"Velocity":55,"Duration":103092,"SoundDuration":103092,"Delta":157172040},{"NoteNumber":51,"Velocity":51,"Duration":103092,"SoundDuration":103092,"Delta":157275133},{"NoteNumber":72,"Velocity":79,"Duration":309278,"SoundDuration":309278,"Delta":157378226},{"NoteNumber":78,"Velocity":93,"Duration":309278,"SoundDuration":309278,"Delta":157378226},{"NoteNumber":84,"Velocity":93,"Duration":309278,"SoundDuration":309278,"Delta":157378226},{"NoteNumber":44,"Velocity":67,"Duration":103092,"SoundDuration":103092,"Delta":157378226},{"NoteNumber":51,"Velocity":57,"Duration":103092,"SoundDuration":103092,"Delta":157481319},{"NoteNumber":54,"Velocity":61,"Duration":103092,"SoundDuration":103092,"Delta":157584411},{"NoteNumber":89,"Velocity":89,"Duration":103092,"SoundDuration":103092,"Delta":157687504},{"NoteNumber":80,"Velocity":89,"Duration":103092,"SoundDuration":103092,"Delta":157687504},{"NoteNumber":77,"Velocity":75,"Duration":103092,"SoundDuration":103092,"Delta":157687504},{"NoteNumber":60,"Velocity":65,"Duration":103092,"SoundDuration":103092,"Delta":157687504},{"NoteNumber":87,"Velocity":92,"Duration":206185,"SoundDuration":206185,"Delta":157790597},{"NoteNumber":78,"Velocity":92,"Duration":206185,"SoundDuration":206185,"Delta":157790597},{"NoteNumber":75,"Velocity":78,"Duration":206185,"SoundDuration":206185,"Delta":157790597},{"NoteNumber":54,"Velocity":62,"Duration":103092,"SoundDuration":103092,"Delta":157790597},{"NoteNumber":51,"Velocity":59,"Duration":103092,"SoundDuration":103092,"Delta":157893690},{"NoteNumber":85,"Velocity":101,"Duration":103092,"SoundDuration":103092,"Delta":157996782},{"NoteNumber":77,"Velocity":101,"Duration":103092,"SoundDuration":103092,"Delta":157996782},{"NoteNumber":73,"Velocity":85,"Duration":103092,"SoundDuration":103092,"Delta":157996782},{"NoteNumber":37,"Velocity":71,"Duration":103092,"SoundDuration":103092,"Delta":157996782},{"NoteNumber":44,"Velocity":70,"Duration":103092,"SoundDuration":103092,"Delta":158409153},{"NoteNumber":53,"Velocity":75,"Duration":103092,"SoundDuration":103092,"Delta":158512246},{"NoteNumber":65,"Velocity":97,"Duration":96462,"SoundDuration":96462,"Delta":158615339},{"NoteNumber":61,"Velocity":83,"Duration":192925,"SoundDuration":192925,"Delta":158615339},{"NoteNumber":73,"Velocity":75,"Duration":96462,"SoundDuration":96462,"Delta":158711802},{"NoteNumber":80,"Velocity":79,"Duration":96462,"SoundDuration":96462,"Delta":158808265},{"NoteNumber":77,"Velocity":83,"Duration":96462,"SoundDuration":96462,"Delta":158904728},{"NoteNumber":85,"Velocity":87,"Duration":96462,"SoundDuration":96462,"Delta":159001191},{"NoteNumber":94,"Velocity":91,"Duration":96462,"SoundDuration":96462,"Delta":159097654},{"NoteNumber":84,"Velocity":86,"Duration":192925,"SoundDuration":192925,"Delta":159194117},{"NoteNumber":92,"Velocity":96,"Duration":192925,"SoundDuration":192925,"Delta":159194117},{"NoteNumber":32,"Velocity":87,"Duration":96462,"SoundDuration":96462,"Delta":159194117},{"NoteNumber":44,"Velocity":68,"Duration":96462,"SoundDuration":96462,"Delta":159579969},{"NoteNumber":51,"Velocity":74,"Duration":96462,"SoundDuration":96462,"Delta":159676432},{"NoteNumber":66,"Velocity":97,"Duration":92307,"SoundDuration":92307,"Delta":159772895},{"NoteNumber":60,"Velocity":84,"Duration":184615,"SoundDuration":184615,"Delta":159772895},{"NoteNumber":72,"Velocity":75,"Duration":92307,"SoundDuration":92307,"Delta":159865203},{"NoteNumber":80,"Velocity":80,"Duration":92307,"SoundDuration":92307,"Delta":159957510},{"NoteNumber":78,"Velocity":84,"Duration":92307,"SoundDuration":92307,"Delta":160049818},{"NoteNumber":84,"Velocity":88,"Duration":92307,"SoundDuration":92307,"Delta":160142126},{"NoteNumber":92,"Velocity":93,"Duration":92307,"SoundDuration":92307,"Delta":160234434},{"NoteNumber":85,"Velocity":87,"Duration":184615,"SoundDuration":184615,"Delta":160326741},{"NoteNumber":89,"Velocity":97,"Duration":184615,"SoundDuration":184615,"Delta":160326741},{"NoteNumber":37,"Velocity":87,"Duration":92307,"SoundDuration":92307,"Delta":160326741},{"NoteNumber":44,"Velocity":70,"Duration":92307,"SoundDuration":92307,"Delta":160695972},{"NoteNumber":53,"Velocity":75,"Duration":92307,"SoundDuration":92307,"Delta":160788280},{"NoteNumber":65,"Velocity":97,"Duration":94637,"SoundDuration":94637,"Delta":160880588},{"NoteNumber":61,"Velocity":83,"Duration":189274,"SoundDuration":189274,"Delta":160880588},{"NoteNumber":73,"Velocity":75,"Duration":94637,"SoundDuration":94637,"Delta":160975225},{"NoteNumber":80,"Velocity":79,"Duration":94637,"SoundDuration":94637,"Delta":161069862},{"NoteNumber":77,"Velocity":83,"Duration":94637,"SoundDuration":94637,"Delta":161164500},{"NoteNumber":85,"Velocity":87,"Duration":94637,"SoundDuration":94637,"Delta":161259137},{"NoteNumber":94,"Velocity":91,"Duration":94637,"SoundDuration":94637,"Delta":161353774},{"NoteNumber":84,"Velocity":86,"Duration":189274,"SoundDuration":189274,"Delta":161448411},{"NoteNumber":92,"Velocity":96,"Duration":189274,"SoundDuration":189274,"Delta":161448411},{"NoteNumber":32,"Velocity":87,"Duration":94637,"SoundDuration":94637,"Delta":161448411},{"NoteNumber":44,"Velocity":68,"Duration":94637,"SoundDuration":94637,"Delta":161826960},{"NoteNumber":51,"Velocity":74,"Duration":94637,"SoundDuration":94637,"Delta":161921598},{"NoteNumber":66,"Velocity":97,"Duration":91463,"SoundDuration":91463,"Delta":162016235},{"NoteNumber":60,"Velocity":84,"Duration":182927,"SoundDuration":182927,"Delta":162016235},{"NoteNumber":72,"Velocity":75,"Duration":91463,"SoundDuration":91463,"Delta":162107698},{"NoteNumber":80,"Velocity":80,"Duration":91463,"SoundDuration":91463,"Delta":162199162},{"NoteNumber":78,"Velocity":84,"Duration":91463,"SoundDuration":91463,"Delta":162290625},{"NoteNumber":84,"Velocity":88,"Duration":91463,"SoundDuration":91463,"Delta":162382089},{"NoteNumber":92,"Velocity":93,"Duration":91463,"SoundDuration":91463,"Delta":162473552},{"NoteNumber":85,"Velocity":97,"Duration":166666,"SoundDuration":166666,"Delta":162565016},{"NoteNumber":89,"Velocity":97,"Duration":166666,"SoundDuration":166666,"Delta":162565016},{"NoteNumber":25,"Velocity":82,"Duration":166666,"SoundDuration":166666,"Delta":162565016},{"NoteNumber":44,"Velocity":68,"Duration":83333,"SoundDuration":83333,"Delta":162898349},{"NoteNumber":53,"Velocity":74,"Duration":83333,"SoundDuration":83333,"Delta":162981682},{"NoteNumber":65,"Velocity":97,"Duration":83488,"SoundDuration":83488,"Delta":163065015},{"NoteNumber":61,"Velocity":84,"Duration":166606,"SoundDuration":166606,"Delta":163065015},{"NoteNumber":73,"Velocity":75,"Duration":83118,"SoundDuration":83118,"Delta":163148504},{"NoteNumber":80,"Velocity":78,"Duration":82736,"SoundDuration":82736,"Delta":163231622},{"NoteNumber":77,"Velocity":75,"Duration":82342,"SoundDuration":82342,"Delta":163314358},{"NoteNumber":85,"Velocity":79,"Duration":81982,"SoundDuration":81982,"Delta":163396700},{"NoteNumber":92,"Velocity":75,"Duration":81610,"SoundDuration":81610,"Delta":163478682},{"NoteNumber":85,"Velocity":78,"Duration":81300,"SoundDuration":81300,"Delta":163560293},{"NoteNumber":77,"Velocity":75,"Duration":81300,"SoundDuration":81300,"Delta":163641594},{"NoteNumber":80,"Velocity":80,"Duration":81300,"SoundDuration":81300,"Delta":163722894},{"NoteNumber":73,"Velocity":75,"Duration":81300,"SoundDuration":81300,"Delta":163804195},{"NoteNumber":65,"Velocity":79,"Duration":81300,"SoundDuration":81300,"Delta":163885496},{"NoteNumber":68,"Velocity":75,"Duration":81300,"SoundDuration":81300,"Delta":163966797},{"NoteNumber":61,"Velocity":78,"Duration":81300,"SoundDuration":81300,"Delta":164048097},{"NoteNumber":53,"Velocity":77,"Duration":81300,"SoundDuration":81300,"Delta":164129398},{"NoteNumber":56,"Velocity":82,"Duration":81300,"SoundDuration":81300,"Delta":164210699},{"NoteNumber":49,"Velocity":79,"Duration":81300,"SoundDuration":81300,"Delta":164292000},{"NoteNumber":41,"Velocity":87,"Duration":81300,"SoundDuration":81300,"Delta":164373300},{"NoteNumber":49,"Velocity":85,"Duration":81300,"SoundDuration":81300,"Delta":164454601},{"NoteNumber":25,"Velocity":96,"Duration":97402,"SoundDuration":97402,"Delta":164535902},{"NoteNumber":37,"Velocity":96,"Duration":97402,"SoundDuration":97402,"Delta":164535902},{"NoteNumber":97,"Velocity":101,"Duration":584415,"SoundDuration":584415,"Delta":165120317},{"NoteNumber":85,"Velocity":85,"Duration":584415,"SoundDuration":584415,"Delta":165120317},{"NoteNumber":61,"Velocity":86,"Duration":584415,"SoundDuration":584415,"Delta":165120317},{"NoteNumber":73,"Velocity":102,"Duration":584415,"SoundDuration":584415,"Delta":165120317},{"NoteNumber":52,"Velocity":44,"Duration":1132075,"SoundDuration":1132075,"Delta":166873562},{"NoteNumber":61,"Velocity":52,"Duration":1132075,"SoundDuration":1132075,"Delta":166873562},{"NoteNumber":64,"Velocity":52,"Duration":1132075,"SoundDuration":1132075,"Delta":166873562},{"NoteNumber":33,"Velocity":40,"Duration":1132075,"SoundDuration":1132075,"Delta":166873562},{"NoteNumber":45,"Velocity":40,"Duration":3822129,"SoundDuration":3822129,"Delta":166873562},{"NoteNumber":54,"Velocity":37,"Duration":1132075,"SoundDuration":1132075,"Delta":168005637},{"NoteNumber":61,"Velocity":44,"Duration":1509433,"SoundDuration":1509433,"Delta":168005637},{"NoteNumber":66,"Velocity":44,"Duration":2690054,"SoundDuration":2690054,"Delta":168005637},{"NoteNumber":38,"Velocity":36,"Duration":2690054,"SoundDuration":2690054,"Delta":168005637},{"NoteNumber":59,"Velocity":57,"Duration":240963,"SoundDuration":240963,"Delta":169515071},{"NoteNumber":61,"Velocity":57,"Duration":240964,"SoundDuration":240964,"Delta":169756035},{"NoteNumber":64,"Velocity":60,"Duration":230769,"SoundDuration":230769,"Delta":169996999},{"NoteNumber":62,"Velocity":56,"Duration":230768,"SoundDuration":230768,"Delta":170227768},{"NoteNumber":61,"Velocity":56,"Duration":227272,"SoundDuration":227272,"Delta":170458537},{"NoteNumber":52,"Velocity":44,"Duration":989011,"SoundDuration":989011,"Delta":170695691},{"NoteNumber":61,"Velocity":52,"Duration":989011,"SoundDuration":989011,"Delta":170695691},{"NoteNumber":64,"Velocity":52,"Duration":989011,"SoundDuration":989011,"Delta":170695691},{"NoteNumber":33,"Velocity":40,"Duration":989011,"SoundDuration":989011,"Delta":170695691},{"NoteNumber":45,"Velocity":40,"Duration":4050710,"SoundDuration":4050710,"Delta":170695691},{"NoteNumber":54,"Velocity":37,"Duration":989011,"SoundDuration":989011,"Delta":171684703},{"NoteNumber":61,"Velocity":44,"Duration":1318681,"SoundDuration":1318681,"Delta":171684703},{"NoteNumber":66,"Velocity":44,"Duration":3061698,"SoundDuration":3061698,"Delta":171684703},{"NoteNumber":38,"Velocity":36,"Duration":3061698,"SoundDuration":3061698,"Delta":171684703},{"NoteNumber":59,"Velocity":57,"Duration":230769,"SoundDuration":230769,"Delta":173003385},{"NoteNumber":61,"Velocity":57,"Duration":258620,"SoundDuration":258620,"Delta":173234154},{"NoteNumber":64,"Velocity":60,"Duration":238094,"SoundDuration":238094,"Delta":173492774},{"NoteNumber":62,"Velocity":56,"Duration":692951,"SoundDuration":692951,"Delta":173730869},{"NoteNumber":61,"Velocity":56,"Duration":295699,"SoundDuration":295699,"Delta":174423821},{"NoteNumber":56,"Velocity":37,"Duration":2308545,"SoundDuration":2308545,"Delta":174746401},{"NoteNumber":61,"Velocity":44,"Duration":1176470,"SoundDuration":1176470,"Delta":174746401},{"NoteNumber":64,"Velocity":44,"Duration":2874583,"SoundDuration":2874583,"Delta":174746401},{"NoteNumber":40,"Velocity":34,"Duration":2308545,"SoundDuration":2308545,"Delta":174746401},{"NoteNumber":50,"Velocity":34,"Duration":2308545,"SoundDuration":2308545,"Delta":174746401},{"NoteNumber":59,"Velocity":37,"Duration":1132074,"SoundDuration":1132074,"Delta":175922872},{"NoteNumber":57,"Velocity":32,"Duration":566037,"SoundDuration":566037,"Delta":177054947},{"NoteNumber":45,"Velocity":30,"Duration":2844519,"SoundDuration":2844519,"Delta":177054947},{"NoteNumber":49,"Velocity":30,"Duration":566037,"SoundDuration":566037,"Delta":177054947},{"NoteNumber":61,"Velocity":30,"Duration":2278481,"SoundDuration":2278481,"Delta":177620985},{"NoteNumber":52,"Velocity":26,"Duration":2278481,"SoundDuration":2278481,"Delta":177620985},{"NoteNumber":73,"Velocity":53,"Duration":802138,"SoundDuration":802138,"Delta":179899467},{"NoteNumber":52,"Velocity":32,"Duration":320855,"SoundDuration":320855,"Delta":180541178},{"NoteNumber":55,"Velocity":32,"Duration":320855,"SoundDuration":320855,"Delta":180541178},{"NoteNumber":58,"Velocity":32,"Duration":320855,"SoundDuration":320855,"Delta":180541178},{"NoteNumber":71,"Velocity":45,"Duration":80213,"SoundDuration":80213,"Delta":180701606},{"NoteNumber":73,"Velocity":45,"Duration":80213,"SoundDuration":80213,"Delta":180781820},{"NoteNumber":71,"Velocity":50,"Duration":405405,"SoundDuration":405405,"Delta":180862033},{"NoteNumber":50,"Velocity":38,"Duration":270270,"SoundDuration":270270,"Delta":180862033},{"NoteNumber":54,"Velocity":38,"Duration":270270,"SoundDuration":270270,"Delta":180862033},{"NoteNumber":59,"Velocity":38,"Duration":270270,"SoundDuration":270270,"Delta":180862033},{"NoteNumber":69,"Velocity":47,"Duration":135135,"SoundDuration":135135,"Delta":181267439},{"NoteNumber":71,"Velocity":50,"Duration":270270,"SoundDuration":270270,"Delta":181402574},{"NoteNumber":54,"Velocity":32,"Duration":270270,"SoundDuration":270270,"Delta":181402574},{"NoteNumber":57,"Velocity":32,"Duration":270270,"SoundDuration":270270,"Delta":181402574},{"NoteNumber":62,"Velocity":32,"Duration":270270,"SoundDuration":270270,"Delta":181402574},{"NoteNumber":73,"Velocity":53,"Duration":405405,"SoundDuration":405405,"Delta":181672845},{"NoteNumber":53,"Velocity":36,"Duration":540540,"SoundDuration":540540,"Delta":181672845},{"NoteNumber":56,"Velocity":36,"Duration":540540,"SoundDuration":540540,"Delta":181672845},{"NoteNumber":61,"Velocity":36,"Duration":540540,"SoundDuration":540540,"Delta":181672845},{"NoteNumber":74,"Velocity":50,"Duration":135135,"SoundDuration":135135,"Delta":182078251},{"NoteNumber":73,"Velocity":48,"Duration":135135,"SoundDuration":135135,"Delta":182213386},{"NoteNumber":52,"Velocity":31,"Duration":270270,"SoundDuration":270270,"Delta":182213386},{"NoteNumber":55,"Velocity":31,"Duration":270270,"SoundDuration":270270,"Delta":182213386},{"NoteNumber":58,"Velocity":31,"Duration":270270,"SoundDuration":270270,"Delta":182213386},{"NoteNumber":71,"Velocity":43,"Duration":67567,"SoundDuration":67567,"Delta":182348521},{"NoteNumber":73,"Velocity":43,"Duration":67567,"SoundDuration":67567,"Delta":182416089},{"NoteNumber":71,"Velocity":52,"Duration":459183,"SoundDuration":459183,"Delta":182483656},{"NoteNumber":50,"Velocity":37,"Duration":306122,"SoundDuration":306122,"Delta":182483656},{"NoteNumber":54,"Velocity":37,"Duration":306122,"SoundDuration":306122,"Delta":182483656},{"NoteNumber":59,"Velocity":37,"Duration":306122,"SoundDuration":306122,"Delta":182483656},{"NoteNumber":69,"Velocity":48,"Duration":153061,"SoundDuration":153061,"Delta":182942840},{"NoteNumber":71,"Velocity":47,"Duration":487805,"SoundDuration":487805,"Delta":183095901},{"NoteNumber":54,"Velocity":32,"Duration":487805,"SoundDuration":487805,"Delta":183095901},{"NoteNumber":57,"Velocity":32,"Duration":487805,"SoundDuration":487805,"Delta":183095901},{"NoteNumber":62,"Velocity":32,"Duration":487805,"SoundDuration":487805,"Delta":183095901},{"NoteNumber":73,"Velocity":39,"Duration":243902,"SoundDuration":243902,"Delta":183583706},{"NoteNumber":49,"Velocity":29,"Duration":358406,"SoundDuration":358406,"Delta":183583706},{"NoteNumber":56,"Velocity":29,"Duration":297430,"SoundDuration":297430,"Delta":183644682},{"NoteNumber":65,"Velocity":29,"Duration":236455,"SoundDuration":236455,"Delta":183705658},{"NoteNumber":61,"Velocity":29,"Duration":114503,"SoundDuration":114503,"Delta":183827609},{"NoteNumber":73,"Velocity":29,"Duration":114503,"SoundDuration":114503,"Delta":183942113},{"NoteNumber":68,"Velocity":29,"Duration":114503,"SoundDuration":114503,"Delta":184056616},{"NoteNumber":73,"Velocity":29,"Duration":114503,"SoundDuration":114503,"Delta":184171120},{"NoteNumber":68,"Velocity":29,"Duration":114503,"SoundDuration":114503,"Delta":184285624},{"NoteNumber":80,"Velocity":29,"Duration":114503,"SoundDuration":114503,"Delta":184400128},{"NoteNumber":37,"Velocity":25,"Duration":114503,"SoundDuration":114503,"Delta":184400128},{"NoteNumber":73,"Velocity":29,"Duration":114503,"SoundDuration":114503,"Delta":184514631},{"NoteNumber":80,"Velocity":29,"Duration":114503,"SoundDuration":114503,"Delta":184629135},{"NoteNumber":73,"Velocity":29,"Duration":114503,"SoundDuration":114503,"Delta":184743639},{"NoteNumber":85,"Velocity":29,"Duration":114503,"SoundDuration":114503,"Delta":184858143},{"NoteNumber":80,"Velocity":29,"Duration":114503,"SoundDuration":114503,"Delta":184972646},{"NoteNumber":85,"Velocity":29,"Duration":119047,"SoundDuration":119047,"Delta":185087150},{"NoteNumber":80,"Velocity":29,"Duration":119047,"SoundDuration":119047,"Delta":185206198},{"NoteNumber":92,"Velocity":29,"Duration":122950,"SoundDuration":122950,"Delta":185325245},{"NoteNumber":85,"Velocity":29,"Duration":122950,"SoundDuration":122950,"Delta":185448196},{"NoteNumber":92,"Velocity":29,"Duration":122950,"SoundDuration":122950,"Delta":185571147},{"NoteNumber":85,"Velocity":29,"Duration":122950,"SoundDuration":122950,"Delta":185694097},{"NoteNumber":97,"Velocity":39,"Duration":141509,"SoundDuration":141509,"Delta":185817048},{"NoteNumber":52,"Velocity":44,"Duration":1132075,"SoundDuration":1132075,"Delta":186666105},{"NoteNumber":61,"Velocity":52,"Duration":2641509,"SoundDuration":2641509,"Delta":186666105},{"NoteNumber":64,"Velocity":52,"Duration":1132075,"SoundDuration":1132075,"Delta":186666105},{"NoteNumber":33,"Velocity":40,"Duration":1132075,"SoundDuration":1132075,"Delta":186666105},{"NoteNumber":45,"Velocity":40,"Duration":3822129,"SoundDuration":3822129,"Delta":186666105},{"NoteNumber":54,"Velocity":37,"Duration":1132075,"SoundDuration":1132075,"Delta":187798181},{"NoteNumber":66,"Velocity":44,"Duration":2690054,"SoundDuration":2690054,"Delta":187798181},{"NoteNumber":38,"Velocity":36,"Duration":2690054,"SoundDuration":2690054,"Delta":187798181},{"NoteNumber":59,"Velocity":57,"Duration":240963,"SoundDuration":240963,"Delta":189307615},{"NoteNumber":61,"Velocity":57,"Duration":240964,"SoundDuration":240964,"Delta":189548579},{"NoteNumber":64,"Velocity":60,"Duration":230769,"SoundDuration":230769,"Delta":189789543},{"NoteNumber":62,"Velocity":56,"Duration":230768,"SoundDuration":230768,"Delta":190020312},{"NoteNumber":61,"Velocity":56,"Duration":237154,"SoundDuration":237154,"Delta":190251081},{"NoteNumber":52,"Velocity":44,"Duration":989011,"SoundDuration":989011,"Delta":190488235},{"NoteNumber":61,"Velocity":52,"Duration":2307693,"SoundDuration":2307693,"Delta":190488235},{"NoteNumber":64,"Velocity":52,"Duration":989011,"SoundDuration":989011,"Delta":190488235},{"NoteNumber":33,"Velocity":40,"Duration":989011,"SoundDuration":989011,"Delta":190488235},{"NoteNumber":45,"Velocity":40,"Duration":5029567,"SoundDuration":5029567,"Delta":190488235},{"NoteNumber":54,"Velocity":37,"Duration":4040555,"SoundDuration":4040555,"Delta":191477246},{"NoteNumber":66,"Velocity":44,"Duration":3001594,"SoundDuration":3001594,"Delta":191477246},{"NoteNumber":38,"Velocity":36,"Duration":4040555,"SoundDuration":4040555,"Delta":191477246},{"NoteNumber":59,"Velocity":57,"Duration":230769,"SoundDuration":230769,"Delta":192795928},{"NoteNumber":61,"Velocity":57,"Duration":258620,"SoundDuration":258620,"Delta":193026697},{"NoteNumber":64,"Velocity":60,"Duration":238094,"SoundDuration":238094,"Delta":193285318},{"NoteNumber":62,"Velocity":56,"Duration":719207,"SoundDuration":719207,"Delta":193523413},{"NoteNumber":61,"Velocity":56,"Duration":98425,"SoundDuration":98425,"Delta":194242620},{"NoteNumber":61,"Velocity":50,"Duration":118110,"SoundDuration":118110,"Delta":194360731},{"NoteNumber":69,"Velocity":56,"Duration":357143,"SoundDuration":357143,"Delta":194478841},{"NoteNumber":66,"Velocity":53,"Duration":340909,"SoundDuration":340909,"Delta":194835984},{"NoteNumber":62,"Velocity":51,"Duration":340908,"SoundDuration":340908,"Delta":195176893},{"NoteNumber":56,"Velocity":37,"Duration":2058823,"SoundDuration":2058823,"Delta":195517802},{"NoteNumber":61,"Velocity":44,"Duration":1176470,"SoundDuration":1176470,"Delta":195517802},{"NoteNumber":64,"Velocity":44,"Duration":2535014,"SoundDuration":2535014,"Delta":195517802},{"NoteNumber":40,"Velocity":34,"Duration":2058823,"SoundDuration":2058823,"Delta":195517802},{"NoteNumber":52,"Velocity":34,"Duration":1176470,"SoundDuration":1176470,"Delta":195517802},{"NoteNumber":59,"Velocity":37,"Duration":882352,"SoundDuration":882352,"Delta":196694273},{"NoteNumber":50,"Velocity":34,"Duration":882352,"SoundDuration":882352,"Delta":196694273},{"NoteNumber":57,"Velocity":32,"Duration":476190,"SoundDuration":476190,"Delta":197576626},{"NoteNumber":45,"Velocity":30,"Duration":476190,"SoundDuration":476190,"Delta":197576626},{"NoteNumber":49,"Velocity":30,"Duration":476190,"SoundDuration":476190,"Delta":197576626},{"NoteNumber":61,"Velocity":30,"Duration":2278481,"SoundDuration":2278481,"Delta":198052816},{"NoteNumber":45,"Velocity":26,"Duration":2278481,"SoundDuration":2278481,"Delta":198052816},{"NoteNumber":52,"Velocity":26,"Duration":2278481,"SoundDuration":2278481,"Delta":198052816},{"NoteNumber":73,"Velocity":42,"Duration":2074468,"SoundDuration":2074468,"Delta":201470539},{"NoteNumber":75,"Velocity":42,"Duration":277777,"SoundDuration":277777,"Delta":203545008},{"NoteNumber":78,"Velocity":43,"Duration":225563,"SoundDuration":225563,"Delta":203822786},{"NoteNumber":76,"Velocity":41,"Duration":178571,"SoundDuration":178571,"Delta":204048350},{"NoteNumber":73,"Velocity":39,"Duration":178571,"SoundDuration":178571,"Delta":204226921},{"NoteNumber":69,"Velocity":39,"Duration":241935,"SoundDuration":241935,"Delta":204405493},{"NoteNumber":68,"Velocity":35,"Duration":60483,"SoundDuration":60483,"Delta":204647428},{"NoteNumber":68,"Velocity":35,"Duration":120967,"SoundDuration":120967,"Delta":204768396},{"NoteNumber":80,"Velocity":43,"Duration":681817,"SoundDuration":681817,"Delta":204889364},{"NoteNumber":59,"Velocity":26,"Duration":340909,"SoundDuration":340909,"Delta":205400727},{"NoteNumber":62,"Velocity":26,"Duration":340909,"SoundDuration":340909,"Delta":205400727},{"NoteNumber":65,"Velocity":26,"Duration":340909,"SoundDuration":340909,"Delta":205400727},{"NoteNumber":78,"Velocity":37,"Duration":85227,"SoundDuration":85227,"Delta":205571182},{"NoteNumber":80,"Velocity":37,"Duration":85227,"SoundDuration":85227,"Delta":205656409},{"NoteNumber":78,"Velocity":43,"Duration":430622,"SoundDuration":430622,"Delta":205741636},{"NoteNumber":57,"Velocity":31,"Duration":287081,"SoundDuration":287081,"Delta":205741636},{"NoteNumber":61,"Velocity":31,"Duration":287081,"SoundDuration":287081,"Delta":205741636},{"NoteNumber":66,"Velocity":31,"Duration":287081,"SoundDuration":287081,"Delta":205741636},{"NoteNumber":76,"Velocity":39,"Duration":143540,"SoundDuration":143540,"Delta":206172258},{"NoteNumber":78,"Velocity":39,"Duration":287081,"SoundDuration":287081,"Delta":206315799},{"NoteNumber":61,"Velocity":28,"Duration":287081,"SoundDuration":287081,"Delta":206315799},{"NoteNumber":64,"Velocity":28,"Duration":287081,"SoundDuration":287081,"Delta":206315799},{"NoteNumber":69,"Velocity":28,"Duration":287081,"SoundDuration":287081,"Delta":206315799},{"NoteNumber":80,"Velocity":42,"Duration":430622,"SoundDuration":430622,"Delta":206602881},{"NoteNumber":60,"Velocity":31,"Duration":574162,"SoundDuration":574162,"Delta":206602881},{"NoteNumber":63,"Velocity":31,"Duration":574162,"SoundDuration":574162,"Delta":206602881},{"NoteNumber":68,"Velocity":31,"Duration":574162,"SoundDuration":574162,"Delta":206602881},{"NoteNumber":81,"Velocity":40,"Duration":143540,"SoundDuration":143540,"Delta":207033503},{"NoteNumber":80,"Velocity":40,"Duration":143540,"SoundDuration":143540,"Delta":207177044},{"NoteNumber":59,"Velocity":27,"Duration":287081,"SoundDuration":287081,"Delta":207177044},{"NoteNumber":62,"Velocity":27,"Duration":287081,"SoundDuration":287081,"Delta":207177044},{"NoteNumber":65,"Velocity":27,"Duration":287081,"SoundDuration":287081,"Delta":207177044},{"NoteNumber":78,"Velocity":37,"Duration":71770,"SoundDuration":71770,"Delta":207320584},{"NoteNumber":80,"Velocity":37,"Duration":71770,"SoundDuration":71770,"Delta":207392355},{"NoteNumber":78,"Velocity":44,"Duration":594893,"SoundDuration":594893,"Delta":207464125},{"NoteNumber":57,"Velocity":31,"Duration":372670,"SoundDuration":372670,"Delta":207464125},{"NoteNumber":61,"Velocity":31,"Duration":372670,"SoundDuration":372670,"Delta":207464125},{"NoteNumber":66,"Velocity":31,"Duration":372670,"SoundDuration":372670,"Delta":207464125},{"NoteNumber":76,"Velocity":33,"Duration":222222,"SoundDuration":222222,"Delta":208059018},{"NoteNumber":78,"Velocity":31,"Duration":422535,"SoundDuration":422535,"Delta":208281241},{"NoteNumber":61,"Velocity":25,"Duration":422535,"SoundDuration":422535,"Delta":208281241},{"NoteNumber":64,"Velocity":25,"Duration":422535,"SoundDuration":422535,"Delta":208281241},{"NoteNumber":69,"Velocity":25,"Duration":422535,"SoundDuration":422535,"Delta":208281241},{"NoteNumber":80,"Velocity":31,"Duration":1588234,"SoundDuration":1588234,"Delta":208703776},{"NoteNumber":56,"Velocity":24,"Duration":352940,"SoundDuration":352940,"Delta":208703776},{"NoteNumber":63,"Velocity":24,"Duration":352940,"SoundDuration":352940,"Delta":208703776},{"NoteNumber":72,"Velocity":24,"Duration":352940,"SoundDuration":352940,"Delta":208703776},{"NoteNumber":44,"Velocity":24,"Duration":352941,"SoundDuration":352941,"Delta":209762599},{"NoteNumber":68,"Velocity":25,"Duration":130434,"SoundDuration":130434,"Delta":210292010},{"NoteNumber":80,"Velocity":25,"Duration":130434,"SoundDuration":130434,"Delta":210422445},{"NoteNumber":75,"Velocity":25,"Duration":130434,"SoundDuration":130434,"Delta":210552880},{"NoteNumber":80,"Velocity":25,"Duration":130434,"SoundDuration":130434,"Delta":210683314},{"NoteNumber":75,"Velocity":25,"Duration":130434,"SoundDuration":130434,"Delta":210813749},{"NoteNumber":87,"Velocity":21,"Duration":147058,"SoundDuration":147058,"Delta":210944184},{"NoteNumber":80,"Velocity":21,"Duration":147058,"SoundDuration":147058,"Delta":211091243},{"NoteNumber":87,"Velocity":21,"Duration":174418,"SoundDuration":174418,"Delta":211238301},{"NoteNumber":80,"Velocity":21,"Duration":229007,"SoundDuration":229007,"Delta":211412720},{"NoteNumber":92,"Velocity":28,"Duration":500000,"SoundDuration":500000,"Delta":211641728},{"NoteNumber":80,"Velocity":44,"Duration":363636,"SoundDuration":363636,"Delta":212641728},{"NoteNumber":78,"Velocity":44,"Duration":375000,"SoundDuration":375000,"Delta":213005364},{"NoteNumber":76,"Velocity":45,"Duration":1371381,"SoundDuration":1371381,"Delta":213380364},{"NoteNumber":49,"Velocity":33,"Duration":1041710,"SoundDuration":1041710,"Delta":213380364},{"NoteNumber":67,"Velocity":34,"Duration":160427,"SoundDuration":160427,"Delta":213780364},{"NoteNumber":64,"Velocity":30,"Duration":320855,"SoundDuration":320855,"Delta":213780364},{"NoteNumber":68,"Velocity":34,"Duration":160427,"SoundDuration":160427,"Delta":213940792},{"NoteNumber":71,"Velocity":34,"Duration":106951,"SoundDuration":106951,"Delta":214101220},{"NoteNumber":56,"Velocity":30,"Duration":650525,"SoundDuration":650525,"Delta":214101220},{"NoteNumber":69,"Velocity":34,"Duration":106951,"SoundDuration":106951,"Delta":214208171},{"NoteNumber":68,"Velocity":34,"Duration":106951,"SoundDuration":106951,"Delta":214315123},{"NoteNumber":68,"Velocity":43,"Duration":1179913,"SoundDuration":1179913,"Delta":214422075},{"NoteNumber":51,"Velocity":33,"Duration":917905,"SoundDuration":917905,"Delta":214422075},{"NoteNumber":54,"Velocity":33,"Duration":917905,"SoundDuration":917905,"Delta":214422075},{"NoteNumber":76,"Velocity":42,"Duration":294117,"SoundDuration":294117,"Delta":214751746},{"NoteNumber":60,"Velocity":32,"Duration":294117,"SoundDuration":294117,"Delta":214751746},{"NoteNumber":75,"Velocity":42,"Duration":294117,"SoundDuration":294117,"Delta":215045863},{"NoteNumber":56,"Velocity":32,"Duration":556126,"SoundDuration":556126,"Delta":215045863},{"NoteNumber":73,"Velocity":44,"Duration":262008,"SoundDuration":262008,"Delta":215339981},{"NoteNumber":52,"Velocity":33,"Duration":768337,"SoundDuration":768337,"Delta":215339981},{"NoteNumber":67,"Velocity":36,"Duration":126582,"SoundDuration":126582,"Delta":215601989},{"NoteNumber":61,"Velocity":32,"Duration":253164,"SoundDuration":253164,"Delta":215601989},{"NoteNumber":68,"Velocity":32,"Duration":126582,"SoundDuration":126582,"Delta":215728571},{"NoteNumber":71,"Velocity":36,"Duration":84388,"SoundDuration":84388,"Delta":215855154},{"NoteNumber":56,"Velocity":32,"Duration":506328,"SoundDuration":506328,"Delta":215855154},{"NoteNumber":69,"Velocity":36,"Duration":84388,"SoundDuration":84388,"Delta":215939542},{"NoteNumber":68,"Velocity":32,"Duration":84388,"SoundDuration":84388,"Delta":216023930},{"NoteNumber":68,"Velocity":44,"Duration":1002196,"SoundDuration":1002196,"Delta":216108318},{"NoteNumber":48,"Velocity":33,"Duration":749032,"SoundDuration":749032,"Delta":216108318},{"NoteNumber":80,"Velocity":43,"Duration":247933,"SoundDuration":247933,"Delta":216361483},{"NoteNumber":63,"Velocity":31,"Duration":247933,"SoundDuration":247933,"Delta":216361483},{"NoteNumber":78,"Velocity":40,"Duration":247934,"SoundDuration":247934,"Delta":216609417},{"NoteNumber":56,"Velocity":31,"Duration":501098,"SoundDuration":501098,"Delta":216609417},{"NoteNumber":76,"Velocity":46,"Duration":994006,"SoundDuration":994006,"Delta":216857351},{"NoteNumber":49,"Velocity":33,"Duration":742960,"SoundDuration":742960,"Delta":216857351},{"NoteNumber":67,"Velocity":38,"Duration":122448,"SoundDuration":122448,"Delta":217110515},{"NoteNumber":64,"Velocity":33,"Duration":244898,"SoundDuration":244898,"Delta":217110515},{"NoteNumber":68,"Velocity":34,"Duration":122449,"SoundDuration":122449,"Delta":217232964},{"NoteNumber":71,"Velocity":38,"Duration":81632,"SoundDuration":81632,"Delta":217355413},{"NoteNumber":56,"Velocity":31,"Duration":495944,"SoundDuration":495944,"Delta":217355413},{"NoteNumber":69,"Velocity":38,"Duration":81632,"SoundDuration":81632,"Delta":217437046},{"NoteNumber":68,"Velocity":35,"Duration":81632,"SoundDuration":81632,"Delta":217518678},{"NoteNumber":68,"Velocity":42,"Duration":738851,"SoundDuration":738851,"Delta":217600311},{"NoteNumber":51,"Velocity":33,"Duration":738851,"SoundDuration":738851,"Delta":217600311},{"NoteNumber":54,"Velocity":33,"Duration":738851,"SoundDuration":738851,"Delta":217600311},{"NoteNumber":76,"Velocity":43,"Duration":243902,"SoundDuration":243902,"Delta":217851357},{"NoteNumber":60,"Velocity":31,"Duration":243902,"SoundDuration":243902,"Delta":217851357},{"NoteNumber":75,"Velocity":41,"Duration":243902,"SoundDuration":243902,"Delta":218095260},{"NoteNumber":56,"Velocity":31,"Duration":493902,"SoundDuration":493902,"Delta":218095260},{"NoteNumber":73,"Velocity":47,"Duration":250000,"SoundDuration":250000,"Delta":218339162},{"NoteNumber":52,"Velocity":33,"Duration":733870,"SoundDuration":733870,"Delta":218339162},{"NoteNumber":72,"Velocity":37,"Duration":120967,"SoundDuration":120967,"Delta":218589162},{"NoteNumber":61,"Velocity":31,"Duration":241935,"SoundDuration":241935,"Delta":218589162},{"NoteNumber":73,"Velocity":37,"Duration":120967,"SoundDuration":120967,"Delta":218710130},{"NoteNumber":76,"Velocity":37,"Duration":80645,"SoundDuration":80645,"Delta":218831098},{"NoteNumber":56,"Velocity":31,"Duration":241935,"SoundDuration":241935,"Delta":218831098},{"NoteNumber":74,"Velocity":37,"Duration":80645,"SoundDuration":80645,"Delta":218911743},{"NoteNumber":73,"Velocity":34,"Duration":80645,"SoundDuration":80645,"Delta":218992388},{"NoteNumber":73,"Velocity":41,"Duration":1032438,"SoundDuration":1032438,"Delta":219073033},{"NoteNumber":59,"Velocity":31,"Duration":250000,"SoundDuration":250000,"Delta":219073033},{"NoteNumber":53,"Velocity":33,"Duration":741259,"SoundDuration":741259,"Delta":219073033},{"NoteNumber":85,"Velocity":46,"Duration":238094,"SoundDuration":238094,"Delta":219323033},{"NoteNumber":68,"Velocity":31,"Duration":238094,"SoundDuration":238094,"Delta":219323033},{"NoteNumber":83,"Velocity":44,"Duration":253164,"SoundDuration":253164,"Delta":219561128},{"NoteNumber":61,"Velocity":31,"Duration":544343,"SoundDuration":544343,"Delta":219561128},{"NoteNumber":81,"Velocity":53,"Duration":1058698,"SoundDuration":1058698,"Delta":219814293},{"NoteNumber":54,"Velocity":36,"Duration":777008,"SoundDuration":777008,"Delta":219814293},{"NoteNumber":57,"Velocity":36,"Duration":777008,"SoundDuration":777008,"Delta":219814293},{"NoteNumber":72,"Velocity":32,"Duration":121457,"SoundDuration":121457,"Delta":220105472},{"NoteNumber":66,"Velocity":31,"Duration":242915,"SoundDuration":242915,"Delta":220105472},{"NoteNumber":73,"Velocity":30,"Duration":121457,"SoundDuration":121457,"Delta":220226929},{"NoteNumber":76,"Velocity":32,"Duration":80971,"SoundDuration":80971,"Delta":220348387},{"NoteNumber":61,"Velocity":31,"Duration":524605,"SoundDuration":524605,"Delta":220348387},{"NoteNumber":74,"Velocity":32,"Duration":80971,"SoundDuration":80971,"Delta":220429358},{"NoteNumber":73,"Velocity":30,"Duration":80971,"SoundDuration":80971,"Delta":220510330},{"NoteNumber":73,"Velocity":37,"Duration":1086955,"SoundDuration":1086955,"Delta":220591302},{"NoteNumber":56,"Velocity":33,"Duration":769495,"SoundDuration":769495,"Delta":220591302},{"NoteNumber":59,"Velocity":33,"Duration":769495,"SoundDuration":769495,"Delta":220591302},{"NoteNumber":81,"Velocity":38,"Duration":243902,"SoundDuration":243902,"Delta":220872992},{"NoteNumber":65,"Velocity":31,"Duration":243902,"SoundDuration":243902,"Delta":220872992},{"NoteNumber":80,"Velocity":36,"Duration":243902,"SoundDuration":243902,"Delta":221116894},{"NoteNumber":61,"Velocity":31,"Duration":561363,"SoundDuration":561363,"Delta":221116894},{"NoteNumber":78,"Velocity":40,"Duration":317460,"SoundDuration":317460,"Delta":221360797},{"NoteNumber":57,"Velocity":33,"Duration":853174,"SoundDuration":853174,"Delta":221360797},{"NoteNumber":72,"Velocity":27,"Duration":133928,"SoundDuration":133928,"Delta":221678257},{"NoteNumber":66,"Velocity":27,"Duration":267856,"SoundDuration":267856,"Delta":221678257},{"NoteNumber":73,"Velocity":28,"Duration":133928,"SoundDuration":133928,"Delta":221812186},{"NoteNumber":76,"Velocity":30,"Duration":89285,"SoundDuration":89285,"Delta":221946114},{"NoteNumber":61,"Velocity":27,"Duration":524267,"SoundDuration":524267,"Delta":221946114},{"NoteNumber":74,"Velocity":30,"Duration":89285,"SoundDuration":89285,"Delta":222035400},{"NoteNumber":73,"Velocity":27,"Duration":89285,"SoundDuration":89285,"Delta":222124685},{"NoteNumber":73,"Velocity":38,"Duration":968903,"SoundDuration":968903,"Delta":222213971},{"NoteNumber":53,"Velocity":30,"Duration":727939,"SoundDuration":727939,"Delta":222213971},{"NoteNumber":85,"Velocity":40,"Duration":234375,"SoundDuration":234375,"Delta":222470382},{"NoteNumber":68,"Velocity":31,"Duration":234375,"SoundDuration":234375,"Delta":222470382},{"NoteNumber":83,"Velocity":37,"Duration":237154,"SoundDuration":237154,"Delta":222704757},{"NoteNumber":61,"Velocity":31,"Duration":478117,"SoundDuration":478117,"Delta":222704757},{"NoteNumber":81,"Velocity":45,"Duration":947647,"SoundDuration":947647,"Delta":222941911},{"NoteNumber":54,"Velocity":33,"Duration":700733,"SoundDuration":700733,"Delta":222941911},{"NoteNumber":57,"Velocity":33,"Duration":700733,"SoundDuration":700733,"Delta":222941911},{"NoteNumber":72,"Velocity":37,"Duration":114942,"SoundDuration":114942,"Delta":223182875},{"NoteNumber":69,"Velocity":31,"Duration":229884,"SoundDuration":229884,"Delta":223182875},{"NoteNumber":73,"Velocity":37,"Duration":114942,"SoundDuration":114942,"Delta":223297817},{"NoteNumber":76,"Velocity":37,"Duration":76628,"SoundDuration":76628,"Delta":223412760},{"NoteNumber":61,"Velocity":31,"Duration":476798,"SoundDuration":476798,"Delta":223412760},{"NoteNumber":74,"Velocity":37,"Duration":76628,"SoundDuration":76628,"Delta":223489388},{"NoteNumber":73,"Velocity":34,"Duration":76628,"SoundDuration":76628,"Delta":223566016},{"NoteNumber":73,"Velocity":42,"Duration":963397,"SoundDuration":963397,"Delta":223642645},{"NoteNumber":56,"Velocity":33,"Duration":705886,"SoundDuration":705886,"Delta":223642645},{"NoteNumber":59,"Velocity":33,"Duration":705886,"SoundDuration":705886,"Delta":223642645},{"NoteNumber":81,"Velocity":44,"Duration":226415,"SoundDuration":226415,"Delta":223889558},{"NoteNumber":65,"Velocity":31,"Duration":226415,"SoundDuration":226415,"Delta":223889558},{"NoteNumber":80,"Velocity":42,"Duration":232558,"SoundDuration":232558,"Delta":224115973},{"NoteNumber":61,"Velocity":31,"Duration":490068,"SoundDuration":490068,"Delta":224115973},{"NoteNumber":78,"Velocity":47,"Duration":1033673,"SoundDuration":1033673,"Delta":224348531},{"NoteNumber":57,"Velocity":33,"Duration":749313,"SoundDuration":749313,"Delta":224348531},{"NoteNumber":72,"Velocity":37,"Duration":122950,"SoundDuration":122950,"Delta":224606042},{"NoteNumber":66,"Velocity":31,"Duration":245901,"SoundDuration":245901,"Delta":224606042},{"NoteNumber":73,"Velocity":34,"Duration":122950,"SoundDuration":122950,"Delta":224728992},{"NoteNumber":76,"Velocity":37,"Duration":81967,"SoundDuration":81967,"Delta":224851943},{"NoteNumber":61,"Velocity":31,"Duration":245901,"SoundDuration":245901,"Delta":224851943},{"NoteNumber":74,"Velocity":37,"Duration":81967,"SoundDuration":81967,"Delta":224933910},{"NoteNumber":73,"Velocity":34,"Duration":81967,"SoundDuration":81967,"Delta":225015877},{"NoteNumber":73,"Velocity":41,"Duration":804191,"SoundDuration":804191,"Delta":225097845},{"NoteNumber":45,"Velocity":31,"Duration":142179,"SoundDuration":142179,"Delta":225097845},{"NoteNumber":80,"Velocity":43,"Duration":253164,"SoundDuration":253164,"Delta":225382205},{"NoteNumber":61,"Velocity":28,"Duration":253164,"SoundDuration":253164,"Delta":225382205},{"NoteNumber":81,"Velocity":42,"Duration":266666,"SoundDuration":266666,"Delta":225635369},{"NoteNumber":54,"Velocity":28,"Duration":266666,"SoundDuration":266666,"Delta":225635369},{"NoteNumber":80,"Velocity":50,"Duration":252101,"SoundDuration":252101,"Delta":225902036},{"NoteNumber":44,"Velocity":30,"Duration":252101,"SoundDuration":252101,"Delta":225902036},{"NoteNumber":51,"Velocity":30,"Duration":713639,"SoundDuration":713639,"Delta":225902036},{"NoteNumber":67,"Velocity":32,"Duration":115384,"SoundDuration":115384,"Delta":226154137},{"NoteNumber":60,"Velocity":27,"Duration":230769,"SoundDuration":230769,"Delta":226154137},{"NoteNumber":68,"Velocity":30,"Duration":115384,"SoundDuration":115384,"Delta":226269521},{"NoteNumber":71,"Velocity":32,"Duration":76922,"SoundDuration":76922,"Delta":226384906},{"NoteNumber":54,"Velocity":27,"Duration":230768,"SoundDuration":230768,"Delta":226384906},{"NoteNumber":69,"Velocity":32,"Duration":76922,"SoundDuration":76922,"Delta":226461829},{"NoteNumber":68,"Velocity":30,"Duration":76922,"SoundDuration":76922,"Delta":226538752},{"NoteNumber":68,"Velocity":37,"Duration":976568,"SoundDuration":976568,"Delta":226615675},{"NoteNumber":52,"Velocity":31,"Duration":717948,"SoundDuration":717948,"Delta":226615675},{"NoteNumber":78,"Velocity":47,"Duration":230769,"SoundDuration":230769,"Delta":226872085},{"NoteNumber":61,"Velocity":33,"Duration":230769,"SoundDuration":230769,"Delta":226872085},{"NoteNumber":76,"Velocity":47,"Duration":230768,"SoundDuration":230768,"Delta":227102854},{"NoteNumber":56,"Velocity":33,"Duration":230768,"SoundDuration":230768,"Delta":227102854},{"NoteNumber":75,"Velocity":53,"Duration":1035615,"SoundDuration":1035615,"Delta":227333623},{"NoteNumber":44,"Velocity":38,"Duration":258620,"SoundDuration":258620,"Delta":227333623},{"NoteNumber":54,"Velocity":38,"Duration":756545,"SoundDuration":756545,"Delta":227333623},{"NoteNumber":67,"Velocity":38,"Duration":124481,"SoundDuration":124481,"Delta":227592244},{"NoteNumber":60,"Velocity":32,"Duration":248962,"SoundDuration":248962,"Delta":227592244},{"NoteNumber":68,"Velocity":35,"Duration":124481,"SoundDuration":124481,"Delta":227716725},{"NoteNumber":71,"Velocity":38,"Duration":82987,"SoundDuration":82987,"Delta":227841206},{"NoteNumber":56,"Velocity":32,"Duration":528032,"SoundDuration":528032,"Delta":227841206},{"NoteNumber":69,"Velocity":38,"Duration":82987,"SoundDuration":82987,"Delta":227924194},{"NoteNumber":68,"Velocity":35,"Duration":82987,"SoundDuration":82987,"Delta":228007181},{"NoteNumber":68,"Velocity":46,"Duration":1100864,"SoundDuration":1100864,"Delta":228090169},{"NoteNumber":52,"Velocity":37,"Duration":812402,"SoundDuration":812402,"Delta":228090169},{"NoteNumber":75,"Velocity":47,"Duration":266666,"SoundDuration":266666,"Delta":228369239},{"NoteNumber":61,"Velocity":31,"Duration":266666,"SoundDuration":266666,"Delta":228369239},{"NoteNumber":73,"Velocity":44,"Duration":266666,"SoundDuration":266666,"Delta":228635905},{"NoteNumber":56,"Velocity":31,"Duration":266666,"SoundDuration":266666,"Delta":228635905},{"NoteNumber":72,"Velocity":52,"Duration":288461,"SoundDuration":288461,"Delta":228902572},{"NoteNumber":44,"Velocity":36,"Duration":288461,"SoundDuration":288461,"Delta":228902572},{"NoteNumber":51,"Velocity":36,"Duration":849209,"SoundDuration":849209,"Delta":228902572},{"NoteNumber":67,"Velocity":41,"Duration":140186,"SoundDuration":140186,"Delta":229191033},{"NoteNumber":60,"Velocity":34,"Duration":280373,"SoundDuration":280373,"Delta":229191033},{"NoteNumber":68,"Velocity":39,"Duration":140186,"SoundDuration":140186,"Delta":229331220},{"NoteNumber":71,"Velocity":41,"Duration":93457,"SoundDuration":93457,"Delta":229471407},{"NoteNumber":56,"Velocity":34,"Duration":549432,"SoundDuration":549432,"Delta":229471407},{"NoteNumber":69,"Velocity":41,"Duration":93457,"SoundDuration":93457,"Delta":229564865},{"NoteNumber":68,"Velocity":38,"Duration":93457,"SoundDuration":93457,"Delta":229658323},{"NoteNumber":68,"Velocity":52,"Duration":1006887,"SoundDuration":1006887,"Delta":229751781},{"NoteNumber":52,"Velocity":38,"Duration":747146,"SoundDuration":747146,"Delta":229751781},{"NoteNumber":78,"Velocity":43,"Duration":239044,"SoundDuration":239044,"Delta":230020840},{"NoteNumber":61,"Velocity":31,"Duration":239044,"SoundDuration":239044,"Delta":230020840},{"NoteNumber":76,"Velocity":41,"Duration":239044,"SoundDuration":239044,"Delta":230259884},{"NoteNumber":56,"Velocity":31,"Duration":239044,"SoundDuration":239044,"Delta":230259884},{"NoteNumber":75,"Velocity":47,"Duration":259740,"SoundDuration":259740,"Delta":230498928},{"NoteNumber":47,"Velocity":33,"Duration":2389421,"SoundDuration":2389421,"Delta":230498928},{"NoteNumber":70,"Velocity":38,"Duration":125522,"SoundDuration":125522,"Delta":230758668},{"NoteNumber":54,"Velocity":29,"Duration":2129681,"SoundDuration":2129681,"Delta":230758668},{"NoteNumber":71,"Velocity":36,"Duration":125523,"SoundDuration":125523,"Delta":230884191},{"NoteNumber":75,"Velocity":38,"Duration":95238,"SoundDuration":95238,"Delta":231009714},{"NoteNumber":57,"Velocity":29,"Duration":1878635,"SoundDuration":1878635,"Delta":231009714},{"NoteNumber":73,"Velocity":38,"Duration":95238,"SoundDuration":95238,"Delta":231104952},{"NoteNumber":71,"Velocity":35,"Duration":95238,"SoundDuration":95238,"Delta":231200190},{"NoteNumber":71,"Velocity":41,"Duration":1592920,"SoundDuration":1592920,"Delta":231295429},{"NoteNumber":63,"Velocity":33,"Duration":1592920,"SoundDuration":1592920,"Delta":231295429},{"NoteNumber":76,"Velocity":34,"Duration":530973,"SoundDuration":530973,"Delta":231826402},{"NoteNumber":78,"Velocity":34,"Duration":530973,"SoundDuration":530973,"Delta":232357376},{"NoteNumber":68,"Velocity":35,"Duration":93750,"SoundDuration":93750,"Delta":232888349},{"NoteNumber":52,"Velocity":32,"Duration":562500,"SoundDuration":562500,"Delta":232888349},{"NoteNumber":71,"Velocity":37,"Duration":93750,"SoundDuration":93750,"Delta":232982099},{"NoteNumber":76,"Velocity":40,"Duration":93750,"SoundDuration":93750,"Delta":233075849},{"NoteNumber":64,"Velocity":29,"Duration":187500,"SoundDuration":187500,"Delta":233075849},{"NoteNumber":59,"Velocity":29,"Duration":187500,"SoundDuration":187500,"Delta":233075849},{"NoteNumber":80,"Velocity":42,"Duration":93750,"SoundDuration":93750,"Delta":233169599},{"NoteNumber":78,"Velocity":44,"Duration":93750,"SoundDuration":93750,"Delta":233263349},{"NoteNumber":56,"Velocity":30,"Duration":187500,"SoundDuration":187500,"Delta":233263349},{"NoteNumber":76,"Velocity":42,"Duration":93750,"SoundDuration":93750,"Delta":233357099},{"NoteNumber":80,"Velocity":38,"Duration":79787,"SoundDuration":79787,"Delta":233450849},{"NoteNumber":51,"Velocity":35,"Duration":478688,"SoundDuration":478688,"Delta":233450849},{"NoteNumber":83,"Velocity":40,"Duration":79787,"SoundDuration":79787,"Delta":233530636},{"NoteNumber":88,"Velocity":43,"Duration":79787,"SoundDuration":79787,"Delta":233610424},{"NoteNumber":64,"Velocity":30,"Duration":159574,"SoundDuration":159574,"Delta":233610424},{"NoteNumber":59,"Velocity":30,"Duration":159574,"SoundDuration":159574,"Delta":233610424},{"NoteNumber":92,"Velocity":46,"Duration":79787,"SoundDuration":79787,"Delta":233690211},{"NoteNumber":90,"Velocity":50,"Duration":79787,"SoundDuration":79787,"Delta":233769998},{"NoteNumber":56,"Velocity":32,"Duration":159539,"SoundDuration":159539,"Delta":233769998},{"NoteNumber":88,"Velocity":47,"Duration":79751,"SoundDuration":79751,"Delta":233849785},{"NoteNumber":83,"Velocity":44,"Duration":79575,"SoundDuration":79575,"Delta":233929537},{"NoteNumber":52,"Velocity":32,"Duration":159327,"SoundDuration":159327,"Delta":233929537},{"NoteNumber":80,"Velocity":43,"Duration":79751,"SoundDuration":79751,"Delta":234009113},{"NoteNumber":78,"Velocity":42,"Duration":79929,"SoundDuration":79929,"Delta":234088865},{"NoteNumber":64,"Velocity":30,"Duration":160036,"SoundDuration":160036,"Delta":234088865},{"NoteNumber":59,"Velocity":30,"Duration":160036,"SoundDuration":160036,"Delta":234088865},{"NoteNumber":76,"Velocity":41,"Duration":80106,"SoundDuration":80106,"Delta":234168794},{"NoteNumber":71,"Velocity":40,"Duration":80285,"SoundDuration":80285,"Delta":234248901},{"NoteNumber":56,"Velocity":30,"Duration":160750,"SoundDuration":160750,"Delta":234248901},{"NoteNumber":68,"Velocity":39,"Duration":80465,"SoundDuration":80465,"Delta":234329186},{"NoteNumber":66,"Velocity":38,"Duration":80645,"SoundDuration":80645,"Delta":234409651},{"NoteNumber":47,"Velocity":32,"Duration":486786,"SoundDuration":486786,"Delta":234409651},{"NoteNumber":64,"Velocity":37,"Duration":80862,"SoundDuration":80862,"Delta":234490297},{"NoteNumber":59,"Velocity":36,"Duration":81044,"SoundDuration":81044,"Delta":234571159},{"NoteNumber":68,"Velocity":39,"Duration":81227,"SoundDuration":81227,"Delta":234652204},{"NoteNumber":66,"Velocity":38,"Duration":81411,"SoundDuration":81411,"Delta":234733431},{"NoteNumber":64,"Velocity":37,"Duration":81595,"SoundDuration":81595,"Delta":234814843},{"NoteNumber":61,"Velocity":36,"Duration":80576,"SoundDuration":80576,"Delta":234896438},{"NoteNumber":45,"Velocity":36,"Duration":80576,"SoundDuration":80576,"Delta":234896438},{"NoteNumber":64,"Velocity":34,"Duration":79787,"SoundDuration":79787,"Delta":234977015},{"NoteNumber":66,"Velocity":37,"Duration":79155,"SoundDuration":79155,"Delta":235056802},{"NoteNumber":64,"Velocity":31,"Duration":157758,"SoundDuration":157758,"Delta":235056802},{"NoteNumber":61,"Velocity":31,"Duration":157758,"SoundDuration":157758,"Delta":235056802},{"NoteNumber":69,"Velocity":39,"Duration":78602,"SoundDuration":78602,"Delta":235135958},{"NoteNumber":73,"Velocity":41,"Duration":78023,"SoundDuration":78023,"Delta":235214561},{"NoteNumber":54,"Velocity":31,"Duration":155443,"SoundDuration":155443,"Delta":235214561},{"NoteNumber":76,"Velocity":43,"Duration":77419,"SoundDuration":77419,"Delta":235292585},{"NoteNumber":78,"Velocity":46,"Duration":76988,"SoundDuration":76988,"Delta":235370005},{"NoteNumber":42,"Velocity":40,"Duration":76988,"SoundDuration":76988,"Delta":235370005},{"NoteNumber":81,"Velocity":48,"Duration":77253,"SoundDuration":77253,"Delta":235446994},{"NoteNumber":85,"Velocity":50,"Duration":77619,"SoundDuration":77619,"Delta":235524247},{"NoteNumber":64,"Velocity":35,"Duration":155609,"SoundDuration":155609,"Delta":235524247},{"NoteNumber":61,"Velocity":35,"Duration":155609,"SoundDuration":155609,"Delta":235524247},{"NoteNumber":88,"Velocity":51,"Duration":77989,"SoundDuration":77989,"Delta":235601867},{"NoteNumber":90,"Velocity":49,"Duration":78329,"SoundDuration":78329,"Delta":235679857},{"NoteNumber":54,"Velocity":35,"Duration":157035,"SoundDuration":157035,"Delta":235679857},{"NoteNumber":93,"Velocity":47,"Duration":78706,"SoundDuration":78706,"Delta":235758186},{"NoteNumber":92,"Velocity":50,"Duration":80645,"SoundDuration":80645,"Delta":235836892},{"NoteNumber":47,"Velocity":38,"Duration":80645,"SoundDuration":80645,"Delta":235836892},{"NoteNumber":90,"Velocity":49,"Duration":80645,"SoundDuration":80645,"Delta":235917537},{"NoteNumber":87,"Velocity":49,"Duration":78533,"SoundDuration":78533,"Delta":235998182},{"NoteNumber":59,"Velocity":34,"Duration":788181,"SoundDuration":788181,"Delta":235998182},{"NoteNumber":63,"Velocity":34,"Duration":788181,"SoundDuration":788181,"Delta":235998182},{"NoteNumber":81,"Velocity":48,"Duration":78534,"SoundDuration":78534,"Delta":236076716},{"NoteNumber":80,"Velocity":47,"Duration":78533,"SoundDuration":78533,"Delta":236155250},{"NoteNumber":54,"Velocity":31,"Duration":157033,"SoundDuration":157033,"Delta":236155250},{"NoteNumber":78,"Velocity":46,"Duration":78499,"SoundDuration":78499,"Delta":236233784},{"NoteNumber":75,"Velocity":45,"Duration":78397,"SoundDuration":78397,"Delta":236312284},{"NoteNumber":56,"Velocity":38,"Duration":157034,"SoundDuration":157034,"Delta":236312284},{"NoteNumber":71,"Velocity":44,"Duration":78637,"SoundDuration":78637,"Delta":236390682},{"NoteNumber":75,"Velocity":45,"Duration":78878,"SoundDuration":78878,"Delta":236469319},{"NoteNumber":54,"Velocity":40,"Duration":157999,"SoundDuration":157999,"Delta":236469319},{"NoteNumber":73,"Velocity":42,"Duration":79121,"SoundDuration":79121,"Delta":236548197},{"NoteNumber":71,"Velocity":39,"Duration":79400,"SoundDuration":79400,"Delta":236627318},{"NoteNumber":56,"Velocity":48,"Duration":159046,"SoundDuration":159046,"Delta":236627318},{"NoteNumber":69,"Velocity":37,"Duration":79646,"SoundDuration":79646,"Delta":236706718},{"NoteNumber":68,"Velocity":35,"Duration":78091,"SoundDuration":78091,"Delta":236786364},{"NoteNumber":52,"Velocity":35,"Duration":464500,"SoundDuration":464500,"Delta":236786364},{"NoteNumber":71,"Velocity":37,"Duration":77821,"SoundDuration":77821,"Delta":236864455},{"NoteNumber":76,"Velocity":40,"Duration":77586,"SoundDuration":77586,"Delta":236942276},{"NoteNumber":64,"Velocity":31,"Duration":154839,"SoundDuration":154839,"Delta":236942276},{"NoteNumber":59,"Velocity":31,"Duration":154839,"SoundDuration":154839,"Delta":236942276},{"NoteNumber":80,"Velocity":42,"Duration":77253,"SoundDuration":77253,"Delta":237019863},{"NoteNumber":78,"Velocity":44,"Duration":77021,"SoundDuration":77021,"Delta":237097116},{"NoteNumber":56,"Velocity":33,"Duration":153748,"SoundDuration":153748,"Delta":237097116},{"NoteNumber":76,"Velocity":42,"Duration":76726,"SoundDuration":76726,"Delta":237174138},{"NoteNumber":80,"Velocity":38,"Duration":76530,"SoundDuration":76530,"Delta":237250864},{"NoteNumber":51,"Velocity":38,"Duration":460950,"SoundDuration":460950,"Delta":237250864},{"NoteNumber":83,"Velocity":40,"Duration":76628,"SoundDuration":76628,"Delta":237327395},{"NoteNumber":88,"Velocity":43,"Duration":76726,"SoundDuration":76726,"Delta":237404023},{"NoteNumber":64,"Velocity":33,"Duration":153649,"SoundDuration":153649,"Delta":237404023},{"NoteNumber":59,"Velocity":33,"Duration":153649,"SoundDuration":153649,"Delta":237404023},{"NoteNumber":92,"Velocity":46,"Duration":76922,"SoundDuration":76922,"Delta":237480749},{"NoteNumber":90,"Velocity":50,"Duration":77021,"SoundDuration":77021,"Delta":237557672},{"NoteNumber":56,"Velocity":35,"Duration":154142,"SoundDuration":154142,"Delta":237557672},{"NoteNumber":88,"Velocity":47,"Duration":77120,"SoundDuration":77120,"Delta":237634694},{"NoteNumber":83,"Velocity":44,"Duration":77120,"SoundDuration":77120,"Delta":237711815},{"NoteNumber":52,"Velocity":35,"Duration":154440,"SoundDuration":154440,"Delta":237711815},{"NoteNumber":80,"Velocity":43,"Duration":77319,"SoundDuration":77319,"Delta":237788936},{"NoteNumber":78,"Velocity":42,"Duration":77519,"SoundDuration":77519,"Delta":237866255},{"NoteNumber":64,"Velocity":33,"Duration":155239,"SoundDuration":155239,"Delta":237866255},{"NoteNumber":59,"Velocity":33,"Duration":155239,"SoundDuration":155239,"Delta":237866255},{"NoteNumber":76,"Velocity":41,"Duration":77720,"SoundDuration":77720,"Delta":237943775},{"NoteNumber":71,"Velocity":40,"Duration":77922,"SoundDuration":77922,"Delta":238021495},{"NoteNumber":56,"Velocity":33,"Duration":156047,"SoundDuration":156047,"Delta":238021495},{"NoteNumber":68,"Velocity":39,"Duration":78125,"SoundDuration":78125,"Delta":238099417},{"NoteNumber":66,"Velocity":38,"Duration":78328,"SoundDuration":78328,"Delta":238177542},{"NoteNumber":47,"Velocity":35,"Duration":473106,"SoundDuration":473106,"Delta":238177542},{"NoteNumber":64,"Velocity":37,"Duration":78533,"SoundDuration":78533,"Delta":238255871},{"NoteNumber":59,"Velocity":36,"Duration":78740,"SoundDuration":78740,"Delta":238334405},{"NoteNumber":68,"Velocity":39,"Duration":78947,"SoundDuration":78947,"Delta":238413145},{"NoteNumber":66,"Velocity":38,"Duration":79155,"SoundDuration":79155,"Delta":238492093},{"NoteNumber":64,"Velocity":37,"Duration":79400,"SoundDuration":79400,"Delta":238571248},{"NoteNumber":61,"Velocity":36,"Duration":79470,"SoundDuration":79470,"Delta":238650648},{"NoteNumber":45,"Velocity":36,"Duration":79470,"SoundDuration":79470,"Delta":238650648},{"NoteNumber":64,"Velocity":34,"Duration":74550,"SoundDuration":74550,"Delta":238730119},{"NoteNumber":66,"Velocity":37,"Duration":78809,"SoundDuration":78809,"Delta":238809275},{"NoteNumber":64,"Velocity":31,"Duration":157274,"SoundDuration":157274,"Delta":238809275},{"NoteNumber":61,"Velocity":31,"Duration":157274,"SoundDuration":157274,"Delta":238809275},{"NoteNumber":69,"Velocity":39,"Duration":78465,"SoundDuration":78465,"Delta":238888084},{"NoteNumber":73,"Velocity":41,"Duration":78125,"SoundDuration":78125,"Delta":238966549},{"NoteNumber":54,"Velocity":31,"Duration":155946,"SoundDuration":155946,"Delta":238966549},{"NoteNumber":76,"Velocity":43,"Duration":77821,"SoundDuration":77821,"Delta":239044675},{"NoteNumber":78,"Velocity":46,"Duration":77519,"SoundDuration":77519,"Delta":239122496},{"NoteNumber":42,"Velocity":40,"Duration":77519,"SoundDuration":77519,"Delta":239122496},{"NoteNumber":81,"Velocity":48,"Duration":77653,"SoundDuration":77653,"Delta":239200015},{"NoteNumber":85,"Velocity":50,"Duration":77821,"SoundDuration":77821,"Delta":239277669},{"NoteNumber":64,"Velocity":35,"Duration":155776,"SoundDuration":155776,"Delta":239277669},{"NoteNumber":61,"Velocity":35,"Duration":155776,"SoundDuration":155776,"Delta":239277669},{"NoteNumber":88,"Velocity":51,"Duration":77955,"SoundDuration":77955,"Delta":239355490},{"NoteNumber":90,"Velocity":49,"Duration":78124,"SoundDuration":78124,"Delta":239433446},{"NoteNumber":54,"Velocity":35,"Duration":156453,"SoundDuration":156453,"Delta":239433446},{"NoteNumber":93,"Velocity":47,"Duration":78328,"SoundDuration":78328,"Delta":239511571},{"NoteNumber":92,"Velocity":47,"Duration":80214,"SoundDuration":80214,"Delta":239589900},{"NoteNumber":47,"Velocity":42,"Duration":80214,"SoundDuration":80214,"Delta":239589900},{"NoteNumber":90,"Velocity":48,"Duration":80213,"SoundDuration":80213,"Delta":239670114},{"NoteNumber":87,"Velocity":49,"Duration":78328,"SoundDuration":78328,"Delta":239750328},{"NoteNumber":59,"Velocity":36,"Duration":786113,"SoundDuration":786113,"Delta":239750328},{"NoteNumber":63,"Velocity":36,"Duration":786113,"SoundDuration":786113,"Delta":239750328},{"NoteNumber":81,"Velocity":50,"Duration":78328,"SoundDuration":78328,"Delta":239828657},{"NoteNumber":80,"Velocity":51,"Duration":78328,"SoundDuration":78328,"Delta":239906986},{"NoteNumber":54,"Velocity":36,"Duration":157008,"SoundDuration":157008,"Delta":239906986},{"NoteNumber":78,"Velocity":52,"Duration":78679,"SoundDuration":78679,"Delta":239985315},{"NoteNumber":75,"Velocity":53,"Duration":78328,"SoundDuration":78328,"Delta":240063994},{"NoteNumber":56,"Velocity":38,"Duration":156828,"SoundDuration":156828,"Delta":240063994},{"NoteNumber":71,"Velocity":52,"Duration":78499,"SoundDuration":78499,"Delta":240142323},{"NoteNumber":75,"Velocity":51,"Duration":78671,"SoundDuration":78671,"Delta":240220822},{"NoteNumber":54,"Velocity":40,"Duration":157480,"SoundDuration":157480,"Delta":240220822},{"NoteNumber":73,"Velocity":51,"Duration":78809,"SoundDuration":78809,"Delta":240299494},{"NoteNumber":71,"Velocity":53,"Duration":78981,"SoundDuration":78981,"Delta":240378303},{"NoteNumber":56,"Velocity":45,"Duration":158137,"SoundDuration":158137,"Delta":240378303},{"NoteNumber":69,"Velocity":57,"Duration":79155,"SoundDuration":79155,"Delta":240457285},{"NoteNumber":68,"Velocity":56,"Duration":79295,"SoundDuration":79295,"Delta":240536441},{"NoteNumber":52,"Velocity":49,"Duration":471225,"SoundDuration":471225,"Delta":240536441},{"NoteNumber":71,"Velocity":59,"Duration":79016,"SoundDuration":79016,"Delta":240615736},{"NoteNumber":76,"Velocity":61,"Duration":78671,"SoundDuration":78671,"Delta":240694753},{"NoteNumber":64,"Velocity":44,"Duration":157068,"SoundDuration":157068,"Delta":240694753},{"NoteNumber":59,"Velocity":44,"Duration":157068,"SoundDuration":157068,"Delta":240694753},{"NoteNumber":80,"Velocity":63,"Duration":78397,"SoundDuration":78397,"Delta":240773424},{"NoteNumber":78,"Velocity":65,"Duration":78057,"SoundDuration":78057,"Delta":240851822},{"NoteNumber":56,"Velocity":44,"Duration":155844,"SoundDuration":155844,"Delta":240851822},{"NoteNumber":76,"Velocity":63,"Duration":77787,"SoundDuration":77787,"Delta":240929879},{"NoteNumber":80,"Velocity":61,"Duration":77720,"SoundDuration":77720,"Delta":241007667},{"NoteNumber":47,"Velocity":67,"Duration":77720,"SoundDuration":77720,"Delta":241007667},{"NoteNumber":83,"Velocity":61,"Duration":77720,"SoundDuration":77720,"Delta":241085387},{"NoteNumber":88,"Velocity":64,"Duration":77720,"SoundDuration":77720,"Delta":241163107},{"NoteNumber":64,"Velocity":74,"Duration":155440,"SoundDuration":155440,"Delta":241163107},{"NoteNumber":59,"Velocity":74,"Duration":155440,"SoundDuration":155440,"Delta":241163107},{"NoteNumber":92,"Velocity":66,"Duration":77720,"SoundDuration":77720,"Delta":241240827},{"NoteNumber":90,"Velocity":69,"Duration":77720,"SoundDuration":77720,"Delta":241318548},{"NoteNumber":56,"Velocity":74,"Duration":155440,"SoundDuration":155440,"Delta":241318548},{"NoteNumber":88,"Velocity":65,"Duration":77720,"SoundDuration":77720,"Delta":241396268},{"NoteNumber":84,"Velocity":62,"Duration":77720,"SoundDuration":77720,"Delta":241473988},{"NoteNumber":45,"Velocity":70,"Duration":155440,"SoundDuration":155440,"Delta":241473988},{"NoteNumber":57,"Velocity":70,"Duration":155440,"SoundDuration":155440,"Delta":241473988},{"NoteNumber":81,"Velocity":61,"Duration":77720,"SoundDuration":77720,"Delta":241551708},{"NoteNumber":78,"Velocity":60,"Duration":77720,"SoundDuration":77720,"Delta":241629429},{"NoteNumber":48,"Velocity":77,"Duration":310880,"SoundDuration":310880,"Delta":241629429},{"NoteNumber":60,"Velocity":77,"Duration":310880,"SoundDuration":310880,"Delta":241629429},{"NoteNumber":76,"Velocity":60,"Duration":77720,"SoundDuration":77720,"Delta":241707149},{"NoteNumber":72,"Velocity":59,"Duration":77720,"SoundDuration":77720,"Delta":241784869},{"NoteNumber":69,"Velocity":58,"Duration":77720,"SoundDuration":77720,"Delta":241862589},{"NoteNumber":66,"Velocity":57,"Duration":77787,"SoundDuration":77787,"Delta":241940310},{"NoteNumber":64,"Velocity":56,"Duration":78057,"SoundDuration":78057,"Delta":242018097},{"NoteNumber":60,"Velocity":55,"Duration":78329,"SoundDuration":78329,"Delta":242096154},{"NoteNumber":57,"Velocity":54,"Duration":78602,"SoundDuration":78602,"Delta":242174484},{"NoteNumber":54,"Velocity":53,"Duration":78878,"SoundDuration":78878,"Delta":242253086},{"NoteNumber":52,"Velocity":52,"Duration":79155,"SoundDuration":79155,"Delta":242331965},{"NoteNumber":56,"Velocity":52,"Duration":79260,"SoundDuration":79260,"Delta":242411120},{"NoteNumber":40,"Velocity":66,"Duration":470410,"SoundDuration":470410,"Delta":242411120},{"NoteNumber":59,"Velocity":51,"Duration":78913,"SoundDuration":78913,"Delta":242490381},{"NoteNumber":64,"Velocity":52,"Duration":78568,"SoundDuration":78568,"Delta":242569294},{"NoteNumber":52,"Velocity":52,"Duration":156795,"SoundDuration":156795,"Delta":242569294},{"NoteNumber":68,"Velocity":53,"Duration":78226,"SoundDuration":78226,"Delta":242647862},{"NoteNumber":66,"Velocity":54,"Duration":77888,"SoundDuration":77888,"Delta":242726089},{"NoteNumber":47,"Velocity":52,"Duration":155441,"SoundDuration":155441,"Delta":242726089},{"NoteNumber":64,"Velocity":52,"Duration":77553,"SoundDuration":77553,"Delta":242803978},{"NoteNumber":68,"Velocity":49,"Duration":77220,"SoundDuration":77220,"Delta":242881531},{"NoteNumber":35,"Velocity":68,"Duration":77220,"SoundDuration":77220,"Delta":242881531},{"NoteNumber":71,"Velocity":51,"Duration":76890,"SoundDuration":76890,"Delta":242958751},{"NoteNumber":76,"Velocity":54,"Duration":76563,"SoundDuration":76563,"Delta":243035642},{"NoteNumber":52,"Velocity":68,"Duration":152802,"SoundDuration":152802,"Delta":243035642},{"NoteNumber":80,"Velocity":57,"Duration":76239,"SoundDuration":76239,"Delta":243112205},{"NoteNumber":78,"Velocity":59,"Duration":75949,"SoundDuration":75949,"Delta":243188444},{"NoteNumber":47,"Velocity":68,"Duration":151898,"SoundDuration":151898,"Delta":243188444},{"NoteNumber":76,"Velocity":57,"Duration":75949,"SoundDuration":75949,"Delta":243264393},{"NoteNumber":72,"Velocity":59,"Duration":75949,"SoundDuration":75949,"Delta":243340343},{"NoteNumber":33,"Velocity":75,"Duration":151898,"SoundDuration":151898,"Delta":243340343},{"NoteNumber":45,"Velocity":75,"Duration":151898,"SoundDuration":151898,"Delta":243340343},{"NoteNumber":69,"Velocity":61,"Duration":75949,"SoundDuration":75949,"Delta":243416292},{"NoteNumber":66,"Velocity":62,"Duration":75949,"SoundDuration":75949,"Delta":243492241},{"NoteNumber":36,"Velocity":86,"Duration":303797,"SoundDuration":303797,"Delta":243492241},{"NoteNumber":48,"Velocity":86,"Duration":303797,"SoundDuration":303797,"Delta":243492241},{"NoteNumber":64,"Velocity":64,"Duration":75949,"SoundDuration":75949,"Delta":243568190},{"NoteNumber":60,"Velocity":66,"Duration":75949,"SoundDuration":75949,"Delta":243644140},{"NoteNumber":57,"Velocity":67,"Duration":75949,"SoundDuration":75949,"Delta":243720089},{"NoteNumber":54,"Velocity":69,"Duration":76078,"SoundDuration":76078,"Delta":243796038},{"NoteNumber":52,"Velocity":71,"Duration":76628,"SoundDuration":76628,"Delta":243872116},{"NoteNumber":48,"Velocity":73,"Duration":77220,"SoundDuration":77220,"Delta":243948745},{"NoteNumber":45,"Velocity":74,"Duration":77821,"SoundDuration":77821,"Delta":244025965},{"NoteNumber":42,"Velocity":76,"Duration":78431,"SoundDuration":78431,"Delta":244103787},{"NoteNumber":40,"Velocity":78,"Duration":79051,"SoundDuration":79051,"Delta":244182219},{"NoteNumber":28,"Velocity":98,"Duration":162601,"SoundDuration":162601,"Delta":244261271},{"NoteNumber":47,"Velocity":73,"Duration":76530,"SoundDuration":76530,"Delta":244423872},{"NoteNumber":52,"Velocity":68,"Duration":76530,"SoundDuration":76530,"Delta":244500403},{"NoteNumber":57,"Velocity":68,"Duration":76530,"SoundDuration":76530,"Delta":244576933},{"NoteNumber":56,"Velocity":68,"Duration":76530,"SoundDuration":76530,"Delta":244653464},{"NoteNumber":59,"Velocity":73,"Duration":76530,"SoundDuration":76530,"Delta":244729994},{"NoteNumber":64,"Velocity":67,"Duration":76530,"SoundDuration":76530,"Delta":244806525},{"NoteNumber":69,"Velocity":67,"Duration":76530,"SoundDuration":76530,"Delta":244883055},{"NoteNumber":68,"Velocity":68,"Duration":76530,"SoundDuration":76530,"Delta":244959586},{"NoteNumber":71,"Velocity":72,"Duration":76530,"SoundDuration":76530,"Delta":245036116},{"NoteNumber":76,"Velocity":73,"Duration":76530,"SoundDuration":76530,"Delta":245112647},{"NoteNumber":81,"Velocity":76,"Duration":76530,"SoundDuration":76530,"Delta":245189177},{"NoteNumber":68,"Velocity":80,"Duration":153060,"SoundDuration":153060,"Delta":245189177},{"NoteNumber":59,"Velocity":80,"Duration":153060,"SoundDuration":153060,"Delta":245189177},{"NoteNumber":52,"Velocity":80,"Duration":153060,"SoundDuration":153060,"Delta":245189177},{"NoteNumber":80,"Velocity":71,"Duration":76530,"SoundDuration":76530,"Delta":245265708},{"NoteNumber":83,"Velocity":71,"Duration":76530,"SoundDuration":76530,"Delta":245342238},{"NoteNumber":88,"Velocity":71,"Duration":76530,"SoundDuration":76530,"Delta":245418769},{"NoteNumber":93,"Velocity":71,"Duration":76530,"SoundDuration":76530,"Delta":245495299},{"NoteNumber":92,"Velocity":71,"Duration":76530,"SoundDuration":76530,"Delta":245571830},{"NoteNumber":88,"Velocity":77,"Duration":76530,"SoundDuration":76530,"Delta":245648360},{"NoteNumber":83,"Velocity":71,"Duration":76530,"SoundDuration":76530,"Delta":245724891},{"NoteNumber":81,"Velocity":71,"Duration":76530,"SoundDuration":76530,"Delta":245801421},{"NoteNumber":80,"Velocity":71,"Duration":76530,"SoundDuration":76530,"Delta":245877952},{"NoteNumber":76,"Velocity":71,"Duration":76530,"SoundDuration":76530,"Delta":245954482},{"NoteNumber":71,"Velocity":71,"Duration":76530,"SoundDuration":76530,"Delta":246031013},{"NoteNumber":69,"Velocity":71,"Duration":76335,"SoundDuration":76335,"Delta":246107543},{"NoteNumber":68,"Velocity":72,"Duration":76530,"SoundDuration":76530,"Delta":246183879},{"NoteNumber":64,"Velocity":73,"Duration":76759,"SoundDuration":76759,"Delta":246260410},{"NoteNumber":59,"Velocity":75,"Duration":76955,"SoundDuration":76955,"Delta":246337169},{"NoteNumber":57,"Velocity":77,"Duration":77186,"SoundDuration":77186,"Delta":246414125},{"NoteNumber":56,"Velocity":78,"Duration":77386,"SoundDuration":77386,"Delta":246491312},{"NoteNumber":52,"Velocity":80,"Duration":77619,"SoundDuration":77619,"Delta":246568698},{"NoteNumber":47,"Velocity":81,"Duration":77821,"SoundDuration":77821,"Delta":246646318},{"NoteNumber":45,"Velocity":82,"Duration":78057,"SoundDuration":78057,"Delta":246724139},{"NoteNumber":44,"Velocity":84,"Duration":78260,"SoundDuration":78260,"Delta":246802196},{"NoteNumber":40,"Velocity":86,"Duration":78499,"SoundDuration":78499,"Delta":246880457},{"NoteNumber":35,"Velocity":88,"Duration":78705,"SoundDuration":78705,"Delta":246958957},{"NoteNumber":28,"Velocity":96,"Duration":473683,"SoundDuration":473683,"Delta":247037663},{"NoteNumber":52,"Velocity":55,"Duration":1132075,"SoundDuration":1132075,"Delta":247985030},{"NoteNumber":61,"Velocity":65,"Duration":1132075,"SoundDuration":1132075,"Delta":247985030},{"NoteNumber":64,"Velocity":65,"Duration":1132075,"SoundDuration":1132075,"Delta":247985030},{"NoteNumber":33,"Velocity":50,"Duration":1132075,"SoundDuration":1132075,"Delta":247985030},{"NoteNumber":45,"Velocity":50,"Duration":4194547,"SoundDuration":4194547,"Delta":247985030},{"NoteNumber":54,"Velocity":46,"Duration":1132075,"SoundDuration":1132075,"Delta":249117105},{"NoteNumber":61,"Velocity":55,"Duration":1509433,"SoundDuration":1509433,"Delta":249117105},{"NoteNumber":66,"Velocity":55,"Duration":3062471,"SoundDuration":3062471,"Delta":249117105},{"NoteNumber":38,"Velocity":44,"Duration":3062471,"SoundDuration":3062471,"Delta":249117105},{"NoteNumber":59,"Velocity":71,"Duration":266666,"SoundDuration":266666,"Delta":250626539},{"NoteNumber":61,"Velocity":71,"Duration":266666,"SoundDuration":266666,"Delta":250893206},{"NoteNumber":64,"Velocity":75,"Duration":295566,"SoundDuration":295566,"Delta":251159872},{"NoteNumber":62,"Velocity":70,"Duration":509852,"SoundDuration":509852,"Delta":251455439},{"NoteNumber":61,"Velocity":64,"Duration":196428,"SoundDuration":196428,"Delta":251965291},{"NoteNumber":52,"Velocity":55,"Duration":1058822,"SoundDuration":1058822,"Delta":252179577},{"NoteNumber":61,"Velocity":65,"Duration":1058822,"SoundDuration":1058822,"Delta":252179577},{"NoteNumber":64,"Velocity":65,"Duration":1058822,"SoundDuration":1058822,"Delta":252179577},{"NoteNumber":33,"Velocity":50,"Duration":1058822,"SoundDuration":1058822,"Delta":252179577},{"NoteNumber":45,"Velocity":50,"Duration":5228838,"SoundDuration":5228838,"Delta":252179577},{"NoteNumber":54,"Velocity":46,"Duration":4170015,"SoundDuration":4170015,"Delta":253238400},{"NoteNumber":61,"Velocity":55,"Duration":1411764,"SoundDuration":1411764,"Delta":253238400},{"NoteNumber":66,"Velocity":55,"Duration":3112737,"SoundDuration":3112737,"Delta":253238400},{"NoteNumber":38,"Velocity":44,"Duration":4170015,"SoundDuration":4170015,"Delta":253238400},{"NoteNumber":59,"Velocity":67,"Duration":270270,"SoundDuration":270270,"Delta":254650164},{"NoteNumber":61,"Velocity":67,"Duration":270270,"SoundDuration":270270,"Delta":254920434},{"NoteNumber":64,"Velocity":72,"Duration":298507,"SoundDuration":298507,"Delta":255190705},{"NoteNumber":62,"Velocity":66,"Duration":581526,"SoundDuration":581526,"Delta":255489212},{"NoteNumber":61,"Velocity":57,"Duration":117924,"SoundDuration":117924,"Delta":256070739},{"NoteNumber":61,"Velocity":54,"Duration":849346,"SoundDuration":849346,"Delta":256212248},{"NoteNumber":69,"Velocity":63,"Duration":363636,"SoundDuration":363636,"Delta":256351137},{"NoteNumber":66,"Velocity":62,"Duration":693642,"SoundDuration":693642,"Delta":256714773},{"NoteNumber":62,"Velocity":57,"Duration":346821,"SoundDuration":346821,"Delta":257061594},{"NoteNumber":56,"Velocity":52,"Duration":2071993,"SoundDuration":2071993,"Delta":257408415},{"NoteNumber":61,"Velocity":52,"Duration":1176470,"SoundDuration":1176470,"Delta":257408415},{"NoteNumber":64,"Velocity":52,"Duration":2464150,"SoundDuration":2464150,"Delta":257408415},{"NoteNumber":40,"Velocity":41,"Duration":2071993,"SoundDuration":2071993,"Delta":257408415},{"NoteNumber":52,"Velocity":41,"Duration":1176470,"SoundDuration":1176470,"Delta":257408415},{"NoteNumber":59,"Velocity":43,"Duration":895522,"SoundDuration":895522,"Delta":258584886},{"NoteNumber":50,"Velocity":39,"Duration":895522,"SoundDuration":895522,"Delta":258584886},{"NoteNumber":57,"Velocity":37,"Duration":392156,"SoundDuration":392156,"Delta":259480408},{"NoteNumber":45,"Velocity":36,"Duration":2670638,"SoundDuration":2670638,"Delta":259480408},{"NoteNumber":49,"Velocity":36,"Duration":392156,"SoundDuration":392156,"Delta":259480408},{"NoteNumber":61,"Velocity":35,"Duration":2278481,"SoundDuration":2278481,"Delta":259872565},{"NoteNumber":52,"Velocity":32,"Duration":2278481,"SoundDuration":2278481,"Delta":259872565},{"NoteNumber":73,"Velocity":53,"Duration":828728,"SoundDuration":828728,"Delta":262151047},{"NoteNumber":52,"Velocity":32,"Duration":331491,"SoundDuration":331491,"Delta":262814030},{"NoteNumber":55,"Velocity":32,"Duration":331491,"SoundDuration":331491,"Delta":262814030},{"NoteNumber":58,"Velocity":32,"Duration":331491,"SoundDuration":331491,"Delta":262814030},{"NoteNumber":71,"Velocity":45,"Duration":82872,"SoundDuration":82872,"Delta":262979776},{"NoteNumber":73,"Velocity":45,"Duration":82872,"SoundDuration":82872,"Delta":263062649},{"NoteNumber":71,"Velocity":50,"Duration":424528,"SoundDuration":424528,"Delta":263145522},{"NoteNumber":50,"Velocity":38,"Duration":283019,"SoundDuration":283019,"Delta":263145522},{"NoteNumber":54,"Velocity":38,"Duration":283019,"SoundDuration":283019,"Delta":263145522},{"NoteNumber":59,"Velocity":38,"Duration":283019,"SoundDuration":283019,"Delta":263145522},{"NoteNumber":69,"Velocity":47,"Duration":141509,"SoundDuration":141509,"Delta":263570050},{"NoteNumber":71,"Velocity":50,"Duration":283019,"SoundDuration":283019,"Delta":263711560},{"NoteNumber":54,"Velocity":32,"Duration":283019,"SoundDuration":283019,"Delta":263711560},{"NoteNumber":57,"Velocity":32,"Duration":283019,"SoundDuration":283019,"Delta":263711560},{"NoteNumber":62,"Velocity":32,"Duration":283019,"SoundDuration":283019,"Delta":263711560},{"NoteNumber":73,"Velocity":53,"Duration":424528,"SoundDuration":424528,"Delta":263994579},{"NoteNumber":53,"Velocity":36,"Duration":566037,"SoundDuration":566037,"Delta":263994579},{"NoteNumber":56,"Velocity":36,"Duration":566037,"SoundDuration":566037,"Delta":263994579},{"NoteNumber":61,"Velocity":36,"Duration":566037,"SoundDuration":566037,"Delta":263994579},{"NoteNumber":74,"Velocity":50,"Duration":141509,"SoundDuration":141509,"Delta":264419107},{"NoteNumber":73,"Velocity":48,"Duration":141509,"SoundDuration":141509,"Delta":264560617},{"NoteNumber":52,"Velocity":31,"Duration":283018,"SoundDuration":283018,"Delta":264560617},{"NoteNumber":55,"Velocity":31,"Duration":283018,"SoundDuration":283018,"Delta":264560617},{"NoteNumber":58,"Velocity":31,"Duration":283018,"SoundDuration":283018,"Delta":264560617},{"NoteNumber":71,"Velocity":43,"Duration":70754,"SoundDuration":70754,"Delta":264702126},{"NoteNumber":73,"Velocity":43,"Duration":70754,"SoundDuration":70754,"Delta":264772881},{"NoteNumber":71,"Velocity":52,"Duration":459183,"SoundDuration":459183,"Delta":264843636},{"NoteNumber":50,"Velocity":37,"Duration":306122,"SoundDuration":306122,"Delta":264843636},{"NoteNumber":54,"Velocity":37,"Duration":306122,"SoundDuration":306122,"Delta":264843636},{"NoteNumber":59,"Velocity":37,"Duration":306122,"SoundDuration":306122,"Delta":264843636},{"NoteNumber":69,"Velocity":48,"Duration":153061,"SoundDuration":153061,"Delta":265302820},{"NoteNumber":71,"Velocity":47,"Duration":487804,"SoundDuration":487804,"Delta":265455881},{"NoteNumber":54,"Velocity":32,"Duration":487804,"SoundDuration":487804,"Delta":265455881},{"NoteNumber":57,"Velocity":32,"Duration":487804,"SoundDuration":487804,"Delta":265455881},{"NoteNumber":62,"Velocity":32,"Duration":487804,"SoundDuration":487804,"Delta":265455881},{"NoteNumber":73,"Velocity":39,"Duration":243902,"SoundDuration":243902,"Delta":265943686},{"NoteNumber":49,"Velocity":29,"Duration":358406,"SoundDuration":358406,"Delta":265943686},{"NoteNumber":56,"Velocity":29,"Duration":297430,"SoundDuration":297430,"Delta":266004661},{"NoteNumber":65,"Velocity":29,"Duration":236455,"SoundDuration":236455,"Delta":266065637},{"NoteNumber":61,"Velocity":29,"Duration":114503,"SoundDuration":114503,"Delta":266187588},{"NoteNumber":73,"Velocity":29,"Duration":114503,"SoundDuration":114503,"Delta":266302092},{"NoteNumber":68,"Velocity":29,"Duration":114503,"SoundDuration":114503,"Delta":266416596},{"NoteNumber":73,"Velocity":29,"Duration":114503,"SoundDuration":114503,"Delta":266531100},{"NoteNumber":68,"Velocity":29,"Duration":114503,"SoundDuration":114503,"Delta":266645603},{"NoteNumber":80,"Velocity":29,"Duration":114503,"SoundDuration":114503,"Delta":266760107},{"NoteNumber":37,"Velocity":25,"Duration":114503,"SoundDuration":114503,"Delta":266760107},{"NoteNumber":73,"Velocity":29,"Duration":114503,"SoundDuration":114503,"Delta":266874611},{"NoteNumber":80,"Velocity":29,"Duration":114503,"SoundDuration":114503,"Delta":266989115},{"NoteNumber":73,"Velocity":29,"Duration":114503,"SoundDuration":114503,"Delta":267103618},{"NoteNumber":85,"Velocity":29,"Duration":114503,"SoundDuration":114503,"Delta":267218122},{"NoteNumber":80,"Velocity":29,"Duration":114503,"SoundDuration":114503,"Delta":267332626},{"NoteNumber":85,"Velocity":29,"Duration":119047,"SoundDuration":119047,"Delta":267447130},{"NoteNumber":80,"Velocity":29,"Duration":119047,"SoundDuration":119047,"Delta":267566177},{"NoteNumber":92,"Velocity":29,"Duration":122950,"SoundDuration":122950,"Delta":267685225},{"NoteNumber":85,"Velocity":29,"Duration":122950,"SoundDuration":122950,"Delta":267808175},{"NoteNumber":92,"Velocity":29,"Duration":122950,"SoundDuration":122950,"Delta":267931126},{"NoteNumber":85,"Velocity":29,"Duration":122950,"SoundDuration":122950,"Delta":268054077},{"NoteNumber":97,"Velocity":39,"Duration":149999,"SoundDuration":149999,"Delta":268177028},{"NoteNumber":52,"Velocity":37,"Duration":1208215,"SoundDuration":1208215,"Delta":269077028},{"NoteNumber":61,"Velocity":44,"Duration":2819169,"SoundDuration":2819169,"Delta":269077028},{"NoteNumber":64,"Velocity":44,"Duration":1208215,"SoundDuration":1208215,"Delta":269077028},{"NoteNumber":45,"Velocity":34,"Duration":4685231,"SoundDuration":4685231,"Delta":269077028},{"NoteNumber":54,"Velocity":31,"Duration":1208215,"SoundDuration":1208215,"Delta":270285243},{"NoteNumber":66,"Velocity":37,"Duration":3477016,"SoundDuration":3477016,"Delta":270285243},{"NoteNumber":38,"Velocity":30,"Duration":3477016,"SoundDuration":3477016,"Delta":270285243},{"NoteNumber":59,"Velocity":48,"Duration":298507,"SoundDuration":298507,"Delta":271896197},{"NoteNumber":61,"Velocity":48,"Duration":298507,"SoundDuration":298507,"Delta":272194705},{"NoteNumber":64,"Velocity":51,"Duration":361446,"SoundDuration":361446,"Delta":272493212},{"NoteNumber":62,"Velocity":47,"Duration":632372,"SoundDuration":632372,"Delta":272854658},{"NoteNumber":61,"Velocity":47,"Duration":275229,"SoundDuration":275229,"Delta":273487030},{"NoteNumber":52,"Velocity":37,"Duration":1055594,"SoundDuration":1055594,"Delta":273762260},{"NoteNumber":61,"Velocity":44,"Duration":2463054,"SoundDuration":2463054,"Delta":273762260},{"NoteNumber":64,"Velocity":44,"Duration":1055594,"SoundDuration":1055594,"Delta":273762260},{"NoteNumber":33,"Velocity":34,"Duration":1055594,"SoundDuration":1055594,"Delta":273762260},{"NoteNumber":45,"Velocity":34,"Duration":5746693,"SoundDuration":5746693,"Delta":273762260},{"NoteNumber":54,"Velocity":31,"Duration":4691098,"SoundDuration":4691098,"Delta":274817855},{"NoteNumber":66,"Velocity":37,"Duration":3287589,"SoundDuration":3287589,"Delta":274817855},{"NoteNumber":38,"Velocity":30,"Duration":4691098,"SoundDuration":4691098,"Delta":274817855},{"NoteNumber":59,"Velocity":48,"Duration":307692,"SoundDuration":307692,"Delta":276225315},{"NoteNumber":61,"Velocity":48,"Duration":307692,"SoundDuration":307692,"Delta":276533007},{"NoteNumber":64,"Velocity":51,"Duration":357143,"SoundDuration":357143,"Delta":276840700},{"NoteNumber":62,"Velocity":47,"Duration":357143,"SoundDuration":357143,"Delta":277197843},{"NoteNumber":61,"Velocity":47,"Duration":389908,"SoundDuration":389908,"Delta":277554986},{"NoteNumber":61,"Velocity":40,"Duration":1303028,"SoundDuration":1303028,"Delta":277967829},{"NoteNumber":69,"Velocity":36,"Duration":225564,"SoundDuration":225564,"Delta":278105444},{"NoteNumber":68,"Velocity":33,"Duration":225563,"SoundDuration":225563,"Delta":278331008},{"NoteNumber":71,"Velocity":39,"Duration":238095,"SoundDuration":238095,"Delta":278556572},{"NoteNumber":69,"Velocity":38,"Duration":238095,"SoundDuration":238095,"Delta":278794667},{"NoteNumber":66,"Velocity":36,"Duration":238095,"SoundDuration":238095,"Delta":279032763},{"NoteNumber":62,"Velocity":35,"Duration":238095,"SoundDuration":238095,"Delta":279270858},{"NoteNumber":56,"Velocity":31,"Duration":2231191,"SoundDuration":2231191,"Delta":279508953},{"NoteNumber":61,"Velocity":37,"Duration":1255581,"SoundDuration":1255581,"Delta":279508953},{"NoteNumber":64,"Velocity":37,"Duration":2762164,"SoundDuration":2762164,"Delta":279508953},{"NoteNumber":40,"Velocity":28,"Duration":2231191,"SoundDuration":2231191,"Delta":279508953},{"NoteNumber":52,"Velocity":28,"Duration":1255581,"SoundDuration":1255581,"Delta":279508953},{"NoteNumber":59,"Velocity":31,"Duration":975610,"SoundDuration":975610,"Delta":280764534},{"NoteNumber":50,"Velocity":28,"Duration":975610,"SoundDuration":975610,"Delta":280764534},{"NoteNumber":57,"Velocity":27,"Duration":530973,"SoundDuration":530973,"Delta":281740144},{"NoteNumber":45,"Velocity":25,"Duration":2962749,"SoundDuration":2962749,"Delta":281740144},{"NoteNumber":49,"Velocity":25,"Duration":530973,"SoundDuration":530973,"Delta":281740144},{"NoteNumber":61,"Velocity":25,"Duration":2431776,"SoundDuration":2431776,"Delta":282271118},{"NoteNumber":52,"Velocity":22,"Duration":2431776,"SoundDuration":2431776,"Delta":282271118},{"NoteNumber":73,"Velocity":42,"Duration":2074468,"SoundDuration":2074468,"Delta":285842135},{"NoteNumber":75,"Velocity":42,"Duration":277777,"SoundDuration":277777,"Delta":287916603},{"NoteNumber":78,"Velocity":43,"Duration":225564,"SoundDuration":225564,"Delta":288194381},{"NoteNumber":76,"Velocity":41,"Duration":178571,"SoundDuration":178571,"Delta":288419945},{"NoteNumber":73,"Velocity":39,"Duration":178571,"SoundDuration":178571,"Delta":288598516},{"NoteNumber":69,"Velocity":39,"Duration":241935,"SoundDuration":241935,"Delta":288777088},{"NoteNumber":68,"Velocity":35,"Duration":60483,"SoundDuration":60483,"Delta":289019023},{"NoteNumber":68,"Velocity":35,"Duration":120967,"SoundDuration":120967,"Delta":289139991},{"NoteNumber":80,"Velocity":43,"Duration":681818,"SoundDuration":681818,"Delta":289260959},{"NoteNumber":59,"Velocity":26,"Duration":340909,"SoundDuration":340909,"Delta":289772322},{"NoteNumber":62,"Velocity":26,"Duration":340909,"SoundDuration":340909,"Delta":289772322},{"NoteNumber":65,"Velocity":26,"Duration":340909,"SoundDuration":340909,"Delta":289772322},{"NoteNumber":78,"Velocity":37,"Duration":85227,"SoundDuration":85227,"Delta":289942777},{"NoteNumber":80,"Velocity":37,"Duration":85227,"SoundDuration":85227,"Delta":290028004},{"NoteNumber":78,"Velocity":43,"Duration":430622,"SoundDuration":430622,"Delta":290113231},{"NoteNumber":57,"Velocity":31,"Duration":287081,"SoundDuration":287081,"Delta":290113231},{"NoteNumber":61,"Velocity":31,"Duration":287081,"SoundDuration":287081,"Delta":290113231},{"NoteNumber":66,"Velocity":31,"Duration":287081,"SoundDuration":287081,"Delta":290113231},{"NoteNumber":76,"Velocity":39,"Duration":143540,"SoundDuration":143540,"Delta":290543854},{"NoteNumber":78,"Velocity":39,"Duration":287081,"SoundDuration":287081,"Delta":290687394},{"NoteNumber":61,"Velocity":28,"Duration":287081,"SoundDuration":287081,"Delta":290687394},{"NoteNumber":64,"Velocity":28,"Duration":287081,"SoundDuration":287081,"Delta":290687394},{"NoteNumber":69,"Velocity":28,"Duration":287081,"SoundDuration":287081,"Delta":290687394},{"NoteNumber":80,"Velocity":42,"Duration":430622,"SoundDuration":430622,"Delta":290974476},{"NoteNumber":60,"Velocity":31,"Duration":574162,"SoundDuration":574162,"Delta":290974476},{"NoteNumber":63,"Velocity":31,"Duration":574162,"SoundDuration":574162,"Delta":290974476},{"NoteNumber":68,"Velocity":31,"Duration":574162,"SoundDuration":574162,"Delta":290974476},{"NoteNumber":81,"Velocity":40,"Duration":143540,"SoundDuration":143540,"Delta":291405098},{"NoteNumber":80,"Velocity":40,"Duration":143540,"SoundDuration":143540,"Delta":291548639},{"NoteNumber":59,"Velocity":27,"Duration":287081,"SoundDuration":287081,"Delta":291548639},{"NoteNumber":62,"Velocity":27,"Duration":287081,"SoundDuration":287081,"Delta":291548639},{"NoteNumber":65,"Velocity":27,"Duration":287081,"SoundDuration":287081,"Delta":291548639},{"NoteNumber":78,"Velocity":37,"Duration":71770,"SoundDuration":71770,"Delta":291692180},{"NoteNumber":80,"Velocity":37,"Duration":71770,"SoundDuration":71770,"Delta":291763950},{"NoteNumber":78,"Velocity":44,"Duration":594893,"SoundDuration":594893,"Delta":291835720},{"NoteNumber":57,"Velocity":31,"Duration":372671,"SoundDuration":372671,"Delta":291835720},{"NoteNumber":61,"Velocity":31,"Duration":372671,"SoundDuration":372671,"Delta":291835720},{"NoteNumber":66,"Velocity":31,"Duration":372671,"SoundDuration":372671,"Delta":291835720},{"NoteNumber":76,"Velocity":33,"Duration":222222,"SoundDuration":222222,"Delta":292430614},{"NoteNumber":78,"Velocity":31,"Duration":422534,"SoundDuration":422534,"Delta":292652836},{"NoteNumber":61,"Velocity":25,"Duration":422534,"SoundDuration":422534,"Delta":292652836},{"NoteNumber":64,"Velocity":25,"Duration":422534,"SoundDuration":422534,"Delta":292652836},{"NoteNumber":69,"Velocity":25,"Duration":422534,"SoundDuration":422534,"Delta":292652836},{"NoteNumber":80,"Velocity":31,"Duration":1588234,"SoundDuration":1588234,"Delta":293075371},{"NoteNumber":56,"Velocity":24,"Duration":352940,"SoundDuration":352940,"Delta":293075371},{"NoteNumber":63,"Velocity":24,"Duration":352940,"SoundDuration":352940,"Delta":293075371},{"NoteNumber":72,"Velocity":24,"Duration":352940,"SoundDuration":352940,"Delta":293075371},{"NoteNumber":44,"Velocity":24,"Duration":352940,"SoundDuration":352940,"Delta":294134194},{"NoteNumber":68,"Velocity":25,"Duration":130434,"SoundDuration":130434,"Delta":294663605},{"NoteNumber":80,"Velocity":25,"Duration":130434,"SoundDuration":130434,"Delta":294794040},{"NoteNumber":75,"Velocity":25,"Duration":130434,"SoundDuration":130434,"Delta":294924475},{"NoteNumber":80,"Velocity":25,"Duration":130434,"SoundDuration":130434,"Delta":295054910},{"NoteNumber":75,"Velocity":25,"Duration":130434,"SoundDuration":130434,"Delta":295185344},{"NoteNumber":87,"Velocity":21,"Duration":147058,"SoundDuration":147058,"Delta":295315779},{"NoteNumber":80,"Velocity":21,"Duration":147058,"SoundDuration":147058,"Delta":295462838},{"NoteNumber":87,"Velocity":21,"Duration":174418,"SoundDuration":174418,"Delta":295609897},{"NoteNumber":80,"Velocity":21,"Duration":229007,"SoundDuration":229007,"Delta":295784315},{"NoteNumber":92,"Velocity":28,"Duration":500000,"SoundDuration":500000,"Delta":296013323},{"NoteNumber":80,"Velocity":44,"Duration":363636,"SoundDuration":363636,"Delta":297013323},{"NoteNumber":78,"Velocity":44,"Duration":375000,"SoundDuration":375000,"Delta":297376959},{"NoteNumber":76,"Velocity":45,"Duration":1371381,"SoundDuration":1371381,"Delta":297751959},{"NoteNumber":49,"Velocity":33,"Duration":1041710,"SoundDuration":1041710,"Delta":297751959},{"NoteNumber":67,"Velocity":34,"Duration":160427,"SoundDuration":160427,"Delta":298151959},{"NoteNumber":64,"Velocity":30,"Duration":320855,"SoundDuration":320855,"Delta":298151959},{"NoteNumber":68,"Velocity":31,"Duration":160427,"SoundDuration":160427,"Delta":298312387},{"NoteNumber":71,"Velocity":34,"Duration":106951,"SoundDuration":106951,"Delta":298472815},{"NoteNumber":56,"Velocity":30,"Duration":650526,"SoundDuration":650526,"Delta":298472815},{"NoteNumber":69,"Velocity":34,"Duration":106951,"SoundDuration":106951,"Delta":298579767},{"NoteNumber":68,"Velocity":32,"Duration":106951,"SoundDuration":106951,"Delta":298686718},{"NoteNumber":68,"Velocity":43,"Duration":1179913,"SoundDuration":1179913,"Delta":298793670},{"NoteNumber":51,"Velocity":33,"Duration":917905,"SoundDuration":917905,"Delta":298793670},{"NoteNumber":54,"Velocity":33,"Duration":917905,"SoundDuration":917905,"Delta":298793670},{"NoteNumber":76,"Velocity":42,"Duration":294117,"SoundDuration":294117,"Delta":299123341},{"NoteNumber":60,"Velocity":32,"Duration":294117,"SoundDuration":294117,"Delta":299123341},{"NoteNumber":75,"Velocity":39,"Duration":294117,"SoundDuration":294117,"Delta":299417458},{"NoteNumber":56,"Velocity":32,"Duration":556125,"SoundDuration":556125,"Delta":299417458},{"NoteNumber":73,"Velocity":44,"Duration":262008,"SoundDuration":262008,"Delta":299711576},{"NoteNumber":52,"Velocity":33,"Duration":768337,"SoundDuration":768337,"Delta":299711576},{"NoteNumber":67,"Velocity":36,"Duration":126582,"SoundDuration":126582,"Delta":299973584},{"NoteNumber":61,"Velocity":32,"Duration":253164,"SoundDuration":253164,"Delta":299973584},{"NoteNumber":68,"Velocity":33,"Duration":126582,"SoundDuration":126582,"Delta":300100167},{"NoteNumber":71,"Velocity":36,"Duration":84388,"SoundDuration":84388,"Delta":300226749},{"NoteNumber":56,"Velocity":32,"Duration":506328,"SoundDuration":506328,"Delta":300226749},{"NoteNumber":69,"Velocity":36,"Duration":84388,"SoundDuration":84388,"Delta":300311137},{"NoteNumber":68,"Velocity":33,"Duration":84388,"SoundDuration":84388,"Delta":300395525},{"NoteNumber":68,"Velocity":44,"Duration":1002197,"SoundDuration":1002197,"Delta":300479913},{"NoteNumber":48,"Velocity":33,"Duration":749032,"SoundDuration":749032,"Delta":300479913},{"NoteNumber":80,"Velocity":43,"Duration":247933,"SoundDuration":247933,"Delta":300733078},{"NoteNumber":63,"Velocity":31,"Duration":247933,"SoundDuration":247933,"Delta":300733078},{"NoteNumber":78,"Velocity":39,"Duration":247933,"SoundDuration":247933,"Delta":300981012},{"NoteNumber":56,"Velocity":31,"Duration":501098,"SoundDuration":501098,"Delta":300981012},{"NoteNumber":76,"Velocity":46,"Duration":994006,"SoundDuration":994006,"Delta":301228946},{"NoteNumber":49,"Velocity":33,"Duration":742960,"SoundDuration":742960,"Delta":301228946},{"NoteNumber":67,"Velocity":38,"Duration":122449,"SoundDuration":122449,"Delta":301482110},{"NoteNumber":64,"Velocity":33,"Duration":244897,"SoundDuration":244897,"Delta":301482110},{"NoteNumber":68,"Velocity":35,"Duration":122448,"SoundDuration":122448,"Delta":301604559},{"NoteNumber":71,"Velocity":38,"Duration":81632,"SoundDuration":81632,"Delta":301727008},{"NoteNumber":56,"Velocity":31,"Duration":495944,"SoundDuration":495944,"Delta":301727008},{"NoteNumber":69,"Velocity":38,"Duration":81632,"SoundDuration":81632,"Delta":301808641},{"NoteNumber":68,"Velocity":36,"Duration":81632,"SoundDuration":81632,"Delta":301890274},{"NoteNumber":68,"Velocity":42,"Duration":738850,"SoundDuration":738850,"Delta":301971906},{"NoteNumber":51,"Velocity":33,"Duration":738850,"SoundDuration":738850,"Delta":301971906},{"NoteNumber":54,"Velocity":33,"Duration":738850,"SoundDuration":738850,"Delta":301971906},{"NoteNumber":76,"Velocity":43,"Duration":243902,"SoundDuration":243902,"Delta":302222952},{"NoteNumber":60,"Velocity":31,"Duration":243902,"SoundDuration":243902,"Delta":302222952},{"NoteNumber":75,"Velocity":38,"Duration":243902,"SoundDuration":243902,"Delta":302466855},{"NoteNumber":56,"Velocity":31,"Duration":493902,"SoundDuration":493902,"Delta":302466855},{"NoteNumber":73,"Velocity":47,"Duration":250000,"SoundDuration":250000,"Delta":302710757},{"NoteNumber":52,"Velocity":33,"Duration":733871,"SoundDuration":733871,"Delta":302710757},{"NoteNumber":72,"Velocity":37,"Duration":120967,"SoundDuration":120967,"Delta":302960757},{"NoteNumber":61,"Velocity":31,"Duration":241935,"SoundDuration":241935,"Delta":302960757},{"NoteNumber":73,"Velocity":35,"Duration":120967,"SoundDuration":120967,"Delta":303081725},{"NoteNumber":76,"Velocity":37,"Duration":80645,"SoundDuration":80645,"Delta":303202693},{"NoteNumber":56,"Velocity":31,"Duration":241935,"SoundDuration":241935,"Delta":303202693},{"NoteNumber":74,"Velocity":37,"Duration":80645,"SoundDuration":80645,"Delta":303283338},{"NoteNumber":73,"Velocity":35,"Duration":70564,"SoundDuration":70564,"Delta":303363983},{"NoteNumber":73,"Velocity":41,"Duration":1016953,"SoundDuration":1016953,"Delta":303444628},{"NoteNumber":59,"Velocity":31,"Duration":250000,"SoundDuration":250000,"Delta":303444628},{"NoteNumber":53,"Velocity":33,"Duration":731009,"SoundDuration":731009,"Delta":303444628},{"NoteNumber":85,"Velocity":46,"Duration":238094,"SoundDuration":238094,"Delta":303694628},{"NoteNumber":68,"Velocity":31,"Duration":238094,"SoundDuration":238094,"Delta":303694628},{"NoteNumber":83,"Velocity":43,"Duration":242914,"SoundDuration":242914,"Delta":303932723},{"NoteNumber":61,"Velocity":31,"Duration":528858,"SoundDuration":528858,"Delta":303932723},{"NoteNumber":81,"Velocity":53,"Duration":1036090,"SoundDuration":1036090,"Delta":304175638},{"NoteNumber":54,"Velocity":36,"Duration":771773,"SoundDuration":771773,"Delta":304175638},{"NoteNumber":57,"Velocity":36,"Duration":771773,"SoundDuration":771773,"Delta":304175638},{"NoteNumber":72,"Velocity":32,"Duration":121457,"SoundDuration":121457,"Delta":304461582},{"NoteNumber":66,"Velocity":31,"Duration":242914,"SoundDuration":242914,"Delta":304461582},{"NoteNumber":73,"Velocity":30,"Duration":121457,"SoundDuration":121457,"Delta":304583039},{"NoteNumber":76,"Velocity":32,"Duration":80971,"SoundDuration":80971,"Delta":304704497},{"NoteNumber":61,"Velocity":31,"Duration":507231,"SoundDuration":507231,"Delta":304704497},{"NoteNumber":74,"Velocity":32,"Duration":80971,"SoundDuration":80971,"Delta":304785468},{"NoteNumber":73,"Velocity":30,"Duration":70850,"SoundDuration":70850,"Delta":304866440},{"NoteNumber":73,"Velocity":37,"Duration":1039014,"SoundDuration":1039014,"Delta":304947412},{"NoteNumber":56,"Velocity":33,"Duration":740506,"SoundDuration":740506,"Delta":304947412},{"NoteNumber":59,"Velocity":33,"Duration":740506,"SoundDuration":740506,"Delta":304947412},{"NoteNumber":81,"Velocity":38,"Duration":238094,"SoundDuration":238094,"Delta":305211729},{"NoteNumber":65,"Velocity":31,"Duration":238094,"SoundDuration":238094,"Delta":305211729},{"NoteNumber":80,"Velocity":36,"Duration":238094,"SoundDuration":238094,"Delta":305449824},{"NoteNumber":61,"Velocity":31,"Duration":536602,"SoundDuration":536602,"Delta":305449824},{"NoteNumber":78,"Velocity":40,"Duration":298507,"SoundDuration":298507,"Delta":305687919},{"NoteNumber":57,"Velocity":33,"Duration":839048,"SoundDuration":839048,"Delta":305687919},{"NoteNumber":72,"Velocity":27,"Duration":135135,"SoundDuration":135135,"Delta":305986426},{"NoteNumber":66,"Velocity":27,"Duration":270270,"SoundDuration":270270,"Delta":305986426},{"NoteNumber":73,"Velocity":27,"Duration":135135,"SoundDuration":135135,"Delta":306121561},{"NoteNumber":76,"Velocity":30,"Duration":90090,"SoundDuration":90090,"Delta":306256697},{"NoteNumber":61,"Velocity":27,"Duration":531140,"SoundDuration":531140,"Delta":306256697},{"NoteNumber":74,"Velocity":30,"Duration":90090,"SoundDuration":90090,"Delta":306346787},{"NoteNumber":73,"Velocity":29,"Duration":78828,"SoundDuration":78828,"Delta":306436877},{"NoteNumber":73,"Velocity":38,"Duration":973362,"SoundDuration":973362,"Delta":306526967},{"NoteNumber":53,"Velocity":30,"Duration":732398,"SoundDuration":732398,"Delta":306526967},{"NoteNumber":85,"Velocity":40,"Duration":234375,"SoundDuration":234375,"Delta":306787837},{"NoteNumber":68,"Velocity":31,"Duration":234375,"SoundDuration":234375,"Delta":306787837},{"NoteNumber":83,"Velocity":38,"Duration":237153,"SoundDuration":237153,"Delta":307022212},{"NoteNumber":61,"Velocity":31,"Duration":478117,"SoundDuration":478117,"Delta":307022212},{"NoteNumber":81,"Velocity":45,"Duration":947647,"SoundDuration":947647,"Delta":307259366},{"NoteNumber":54,"Velocity":33,"Duration":700734,"SoundDuration":700734,"Delta":307259366},{"NoteNumber":57,"Velocity":33,"Duration":700734,"SoundDuration":700734,"Delta":307259366},{"NoteNumber":72,"Velocity":37,"Duration":114942,"SoundDuration":114942,"Delta":307500330},{"NoteNumber":69,"Velocity":31,"Duration":229885,"SoundDuration":229885,"Delta":307500330},{"NoteNumber":73,"Velocity":37,"Duration":114942,"SoundDuration":114942,"Delta":307615272},{"NoteNumber":76,"Velocity":37,"Duration":76628,"SoundDuration":76628,"Delta":307730215},{"NoteNumber":61,"Velocity":31,"Duration":476798,"SoundDuration":476798,"Delta":307730215},{"NoteNumber":74,"Velocity":37,"Duration":76628,"SoundDuration":76628,"Delta":307806843},{"NoteNumber":73,"Velocity":34,"Duration":67049,"SoundDuration":67049,"Delta":307883471},{"NoteNumber":73,"Velocity":42,"Duration":963396,"SoundDuration":963396,"Delta":307960100},{"NoteNumber":56,"Velocity":33,"Duration":705886,"SoundDuration":705886,"Delta":307960100},{"NoteNumber":59,"Velocity":33,"Duration":705886,"SoundDuration":705886,"Delta":307960100},{"NoteNumber":81,"Velocity":44,"Duration":226414,"SoundDuration":226414,"Delta":308207013},{"NoteNumber":65,"Velocity":31,"Duration":226414,"SoundDuration":226414,"Delta":308207013},{"NoteNumber":80,"Velocity":40,"Duration":232557,"SoundDuration":232557,"Delta":308433428},{"NoteNumber":61,"Velocity":31,"Duration":490068,"SoundDuration":490068,"Delta":308433428},{"NoteNumber":78,"Velocity":47,"Duration":1033673,"SoundDuration":1033673,"Delta":308665986},{"NoteNumber":57,"Velocity":33,"Duration":749313,"SoundDuration":749313,"Delta":308665986},{"NoteNumber":72,"Velocity":37,"Duration":122950,"SoundDuration":122950,"Delta":308923497},{"NoteNumber":66,"Velocity":31,"Duration":245901,"SoundDuration":245901,"Delta":308923497},{"NoteNumber":73,"Velocity":35,"Duration":122950,"SoundDuration":122950,"Delta":309046447},{"NoteNumber":76,"Velocity":37,"Duration":81967,"SoundDuration":81967,"Delta":309169398},{"NoteNumber":61,"Velocity":31,"Duration":245901,"SoundDuration":245901,"Delta":309169398},{"NoteNumber":74,"Velocity":37,"Duration":81967,"SoundDuration":81967,"Delta":309251365},{"NoteNumber":73,"Velocity":35,"Duration":71721,"SoundDuration":71721,"Delta":309333332},{"NoteNumber":73,"Velocity":41,"Duration":804191,"SoundDuration":804191,"Delta":309415300},{"NoteNumber":45,"Velocity":31,"Duration":142179,"SoundDuration":142179,"Delta":309415300},{"NoteNumber":80,"Velocity":43,"Duration":253164,"SoundDuration":253164,"Delta":309699660},{"NoteNumber":61,"Velocity":28,"Duration":253164,"SoundDuration":253164,"Delta":309699660},{"NoteNumber":81,"Velocity":40,"Duration":266666,"SoundDuration":266666,"Delta":309952824},{"NoteNumber":54,"Velocity":28,"Duration":266666,"SoundDuration":266666,"Delta":309952824},{"NoteNumber":80,"Velocity":50,"Duration":252100,"SoundDuration":252100,"Delta":310219491},{"NoteNumber":44,"Velocity":30,"Duration":252100,"SoundDuration":252100,"Delta":310219491},{"NoteNumber":51,"Velocity":30,"Duration":713639,"SoundDuration":713639,"Delta":310219491},{"NoteNumber":67,"Velocity":32,"Duration":115384,"SoundDuration":115384,"Delta":310471592},{"NoteNumber":60,"Velocity":27,"Duration":230769,"SoundDuration":230769,"Delta":310471592},{"NoteNumber":68,"Velocity":30,"Duration":115384,"SoundDuration":115384,"Delta":310586976},{"NoteNumber":71,"Velocity":32,"Duration":76922,"SoundDuration":76922,"Delta":310702361},{"NoteNumber":54,"Velocity":27,"Duration":230769,"SoundDuration":230769,"Delta":310702361},{"NoteNumber":69,"Velocity":32,"Duration":76923,"SoundDuration":76923,"Delta":310779284},{"NoteNumber":68,"Velocity":30,"Duration":67307,"SoundDuration":67307,"Delta":310856207},{"NoteNumber":68,"Velocity":37,"Duration":976569,"SoundDuration":976569,"Delta":310933130},{"NoteNumber":52,"Velocity":31,"Duration":717948,"SoundDuration":717948,"Delta":310933130},{"NoteNumber":78,"Velocity":47,"Duration":230769,"SoundDuration":230769,"Delta":311189540},{"NoteNumber":61,"Velocity":33,"Duration":230769,"SoundDuration":230769,"Delta":311189540},{"NoteNumber":76,"Velocity":44,"Duration":230769,"SoundDuration":230769,"Delta":311420309},{"NoteNumber":56,"Velocity":33,"Duration":230769,"SoundDuration":230769,"Delta":311420309},{"NoteNumber":75,"Velocity":53,"Duration":1035615,"SoundDuration":1035615,"Delta":311651078},{"NoteNumber":44,"Velocity":38,"Duration":258620,"SoundDuration":258620,"Delta":311651078},{"NoteNumber":54,"Velocity":38,"Duration":756545,"SoundDuration":756545,"Delta":311651078},{"NoteNumber":67,"Velocity":38,"Duration":124481,"SoundDuration":124481,"Delta":311909699},{"NoteNumber":60,"Velocity":32,"Duration":248962,"SoundDuration":248962,"Delta":311909699},{"NoteNumber":68,"Velocity":38,"Duration":124481,"SoundDuration":124481,"Delta":312034180},{"NoteNumber":71,"Velocity":38,"Duration":82987,"SoundDuration":82987,"Delta":312158661},{"NoteNumber":56,"Velocity":32,"Duration":528032,"SoundDuration":528032,"Delta":312158661},{"NoteNumber":69,"Velocity":38,"Duration":82987,"SoundDuration":82987,"Delta":312241649},{"NoteNumber":68,"Velocity":35,"Duration":72614,"SoundDuration":72614,"Delta":312324636},{"NoteNumber":68,"Velocity":46,"Duration":1100864,"SoundDuration":1100864,"Delta":312407624},{"NoteNumber":52,"Velocity":37,"Duration":812403,"SoundDuration":812403,"Delta":312407624},{"NoteNumber":75,"Velocity":47,"Duration":266666,"SoundDuration":266666,"Delta":312686694},{"NoteNumber":61,"Velocity":31,"Duration":266666,"SoundDuration":266666,"Delta":312686694},{"NoteNumber":73,"Velocity":44,"Duration":266666,"SoundDuration":266666,"Delta":312953360},{"NoteNumber":56,"Velocity":31,"Duration":266666,"SoundDuration":266666,"Delta":312953360},{"NoteNumber":72,"Velocity":52,"Duration":288461,"SoundDuration":288461,"Delta":313220027},{"NoteNumber":44,"Velocity":36,"Duration":288461,"SoundDuration":288461,"Delta":313220027},{"NoteNumber":51,"Velocity":36,"Duration":849209,"SoundDuration":849209,"Delta":313220027},{"NoteNumber":67,"Velocity":41,"Duration":140187,"SoundDuration":140187,"Delta":313508488},{"NoteNumber":60,"Velocity":34,"Duration":280373,"SoundDuration":280373,"Delta":313508488},{"NoteNumber":68,"Velocity":38,"Duration":140186,"SoundDuration":140186,"Delta":313648675},{"NoteNumber":71,"Velocity":41,"Duration":93457,"SoundDuration":93457,"Delta":313788862},{"NoteNumber":56,"Velocity":34,"Duration":549432,"SoundDuration":549432,"Delta":313788862},{"NoteNumber":69,"Velocity":41,"Duration":93457,"SoundDuration":93457,"Delta":313882320},{"NoteNumber":68,"Velocity":38,"Duration":81775,"SoundDuration":81775,"Delta":313975778},{"NoteNumber":68,"Velocity":52,"Duration":1006887,"SoundDuration":1006887,"Delta":314069236},{"NoteNumber":52,"Velocity":38,"Duration":747146,"SoundDuration":747146,"Delta":314069236},{"NoteNumber":78,"Velocity":43,"Duration":239043,"SoundDuration":239043,"Delta":314338295},{"NoteNumber":61,"Velocity":31,"Duration":239043,"SoundDuration":239043,"Delta":314338295},{"NoteNumber":76,"Velocity":39,"Duration":239044,"SoundDuration":239044,"Delta":314577339},{"NoteNumber":56,"Velocity":31,"Duration":239044,"SoundDuration":239044,"Delta":314577339},{"NoteNumber":75,"Velocity":47,"Duration":259740,"SoundDuration":259740,"Delta":314816383},{"NoteNumber":47,"Velocity":33,"Duration":2389421,"SoundDuration":2389421,"Delta":314816383},{"NoteNumber":70,"Velocity":38,"Duration":125522,"SoundDuration":125522,"Delta":315076123},{"NoteNumber":54,"Velocity":29,"Duration":2129680,"SoundDuration":2129680,"Delta":315076123},{"NoteNumber":71,"Velocity":36,"Duration":125522,"SoundDuration":125522,"Delta":315201646},{"NoteNumber":75,"Velocity":38,"Duration":95238,"SoundDuration":95238,"Delta":315327169},{"NoteNumber":57,"Velocity":29,"Duration":1878634,"SoundDuration":1878634,"Delta":315327169},{"NoteNumber":73,"Velocity":38,"Duration":95238,"SoundDuration":95238,"Delta":315422407},{"NoteNumber":71,"Velocity":35,"Duration":83333,"SoundDuration":83333,"Delta":315517645},{"NoteNumber":71,"Velocity":41,"Duration":1592920,"SoundDuration":1592920,"Delta":315612884},{"NoteNumber":63,"Velocity":33,"Duration":1592920,"SoundDuration":1592920,"Delta":315612884},{"NoteNumber":76,"Velocity":34,"Duration":530973,"SoundDuration":530973,"Delta":316143857},{"NoteNumber":78,"Velocity":34,"Duration":530973,"SoundDuration":530973,"Delta":316674831},{"NoteNumber":68,"Velocity":35,"Duration":93750,"SoundDuration":93750,"Delta":317205804},{"NoteNumber":52,"Velocity":32,"Duration":562500,"SoundDuration":562500,"Delta":317205804},{"NoteNumber":71,"Velocity":37,"Duration":93750,"SoundDuration":93750,"Delta":317299554},{"NoteNumber":76,"Velocity":40,"Duration":93750,"SoundDuration":93750,"Delta":317393304},{"NoteNumber":64,"Velocity":29,"Duration":187500,"SoundDuration":187500,"Delta":317393304},{"NoteNumber":59,"Velocity":29,"Duration":187500,"SoundDuration":187500,"Delta":317393304},{"NoteNumber":80,"Velocity":42,"Duration":93750,"SoundDuration":93750,"Delta":317487054},{"NoteNumber":78,"Velocity":44,"Duration":93750,"SoundDuration":93750,"Delta":317580804},{"NoteNumber":56,"Velocity":30,"Duration":187500,"SoundDuration":187500,"Delta":317580804},{"NoteNumber":76,"Velocity":42,"Duration":93750,"SoundDuration":93750,"Delta":317674554},{"NoteNumber":80,"Velocity":38,"Duration":79787,"SoundDuration":79787,"Delta":317768304},{"NoteNumber":51,"Velocity":35,"Duration":478688,"SoundDuration":478688,"Delta":317768304},{"NoteNumber":83,"Velocity":40,"Duration":79787,"SoundDuration":79787,"Delta":317848091},{"NoteNumber":88,"Velocity":43,"Duration":79787,"SoundDuration":79787,"Delta":317927879},{"NoteNumber":64,"Velocity":30,"Duration":159574,"SoundDuration":159574,"Delta":317927879},{"NoteNumber":59,"Velocity":30,"Duration":159574,"SoundDuration":159574,"Delta":317927879},{"NoteNumber":92,"Velocity":46,"Duration":79787,"SoundDuration":79787,"Delta":318007666},{"NoteNumber":90,"Velocity":50,"Duration":79787,"SoundDuration":79787,"Delta":318087453},{"NoteNumber":56,"Velocity":32,"Duration":159539,"SoundDuration":159539,"Delta":318087453},{"NoteNumber":88,"Velocity":47,"Duration":79751,"SoundDuration":79751,"Delta":318167240},{"NoteNumber":83,"Velocity":44,"Duration":79575,"SoundDuration":79575,"Delta":318246992},{"NoteNumber":52,"Velocity":32,"Duration":159327,"SoundDuration":159327,"Delta":318246992},{"NoteNumber":80,"Velocity":43,"Duration":79751,"SoundDuration":79751,"Delta":318326568},{"NoteNumber":78,"Velocity":42,"Duration":79929,"SoundDuration":79929,"Delta":318406320},{"NoteNumber":64,"Velocity":30,"Duration":160036,"SoundDuration":160036,"Delta":318406320},{"NoteNumber":59,"Velocity":30,"Duration":160036,"SoundDuration":160036,"Delta":318406320},{"NoteNumber":76,"Velocity":41,"Duration":80106,"SoundDuration":80106,"Delta":318486249},{"NoteNumber":71,"Velocity":40,"Duration":80285,"SoundDuration":80285,"Delta":318566356},{"NoteNumber":56,"Velocity":30,"Duration":160750,"SoundDuration":160750,"Delta":318566356},{"NoteNumber":68,"Velocity":39,"Duration":80465,"SoundDuration":80465,"Delta":318646642},{"NoteNumber":66,"Velocity":38,"Duration":80645,"SoundDuration":80645,"Delta":318727107},{"NoteNumber":47,"Velocity":32,"Duration":486786,"SoundDuration":486786,"Delta":318727107},{"NoteNumber":64,"Velocity":37,"Duration":80862,"SoundDuration":80862,"Delta":318807752},{"NoteNumber":59,"Velocity":36,"Duration":81044,"SoundDuration":81044,"Delta":318888614},{"NoteNumber":68,"Velocity":39,"Duration":81227,"SoundDuration":81227,"Delta":318969659},{"NoteNumber":66,"Velocity":38,"Duration":81411,"SoundDuration":81411,"Delta":319050886},{"NoteNumber":64,"Velocity":37,"Duration":81595,"SoundDuration":81595,"Delta":319132298},{"NoteNumber":61,"Velocity":36,"Duration":80576,"SoundDuration":80576,"Delta":319213893},{"NoteNumber":45,"Velocity":36,"Duration":80576,"SoundDuration":80576,"Delta":319213893},{"NoteNumber":64,"Velocity":34,"Duration":79787,"SoundDuration":79787,"Delta":319294470},{"NoteNumber":66,"Velocity":37,"Duration":79156,"SoundDuration":79156,"Delta":319374257},{"NoteNumber":64,"Velocity":31,"Duration":157758,"SoundDuration":157758,"Delta":319374257},{"NoteNumber":61,"Velocity":31,"Duration":157758,"SoundDuration":157758,"Delta":319374257},{"NoteNumber":69,"Velocity":39,"Duration":78602,"SoundDuration":78602,"Delta":319453413},{"NoteNumber":73,"Velocity":41,"Duration":78023,"SoundDuration":78023,"Delta":319532016},{"NoteNumber":54,"Velocity":31,"Duration":155443,"SoundDuration":155443,"Delta":319532016},{"NoteNumber":76,"Velocity":43,"Duration":77419,"SoundDuration":77419,"Delta":319610040},{"NoteNumber":78,"Velocity":46,"Duration":76988,"SoundDuration":76988,"Delta":319687460},{"NoteNumber":42,"Velocity":40,"Duration":76988,"SoundDuration":76988,"Delta":319687460},{"NoteNumber":81,"Velocity":48,"Duration":77253,"SoundDuration":77253,"Delta":319764449},{"NoteNumber":85,"Velocity":50,"Duration":77619,"SoundDuration":77619,"Delta":319841702},{"NoteNumber":64,"Velocity":35,"Duration":155609,"SoundDuration":155609,"Delta":319841702},{"NoteNumber":61,"Velocity":35,"Duration":155609,"SoundDuration":155609,"Delta":319841702},{"NoteNumber":88,"Velocity":51,"Duration":77989,"SoundDuration":77989,"Delta":319919322},{"NoteNumber":90,"Velocity":49,"Duration":78329,"SoundDuration":78329,"Delta":319997312},{"NoteNumber":54,"Velocity":35,"Duration":157035,"SoundDuration":157035,"Delta":319997312},{"NoteNumber":93,"Velocity":47,"Duration":78706,"SoundDuration":78706,"Delta":320075641},{"NoteNumber":92,"Velocity":50,"Duration":80645,"SoundDuration":80645,"Delta":320154347},{"NoteNumber":47,"Velocity":38,"Duration":80645,"SoundDuration":80645,"Delta":320154347},{"NoteNumber":90,"Velocity":49,"Duration":80645,"SoundDuration":80645,"Delta":320234992},{"NoteNumber":87,"Velocity":49,"Duration":78533,"SoundDuration":78533,"Delta":320315637},{"NoteNumber":59,"Velocity":34,"Duration":788181,"SoundDuration":788181,"Delta":320315637},{"NoteNumber":63,"Velocity":34,"Duration":788181,"SoundDuration":788181,"Delta":320315637},{"NoteNumber":81,"Velocity":48,"Duration":78533,"SoundDuration":78533,"Delta":320394171},{"NoteNumber":80,"Velocity":47,"Duration":78533,"SoundDuration":78533,"Delta":320472705},{"NoteNumber":54,"Velocity":31,"Duration":157033,"SoundDuration":157033,"Delta":320472705},{"NoteNumber":78,"Velocity":46,"Duration":78499,"SoundDuration":78499,"Delta":320551239},{"NoteNumber":75,"Velocity":45,"Duration":78397,"SoundDuration":78397,"Delta":320629739},{"NoteNumber":56,"Velocity":38,"Duration":157034,"SoundDuration":157034,"Delta":320629739},{"NoteNumber":71,"Velocity":44,"Duration":78637,"SoundDuration":78637,"Delta":320708137},{"NoteNumber":75,"Velocity":45,"Duration":78878,"SoundDuration":78878,"Delta":320786774},{"NoteNumber":54,"Velocity":40,"Duration":157999,"SoundDuration":157999,"Delta":320786774},{"NoteNumber":73,"Velocity":42,"Duration":79120,"SoundDuration":79120,"Delta":320865652},{"NoteNumber":71,"Velocity":39,"Duration":79400,"SoundDuration":79400,"Delta":320944773},{"NoteNumber":56,"Velocity":48,"Duration":159046,"SoundDuration":159046,"Delta":320944773},{"NoteNumber":69,"Velocity":37,"Duration":79646,"SoundDuration":79646,"Delta":321024173},{"NoteNumber":68,"Velocity":35,"Duration":78091,"SoundDuration":78091,"Delta":321103819},{"NoteNumber":52,"Velocity":35,"Duration":464500,"SoundDuration":464500,"Delta":321103819},{"NoteNumber":71,"Velocity":37,"Duration":77821,"SoundDuration":77821,"Delta":321181910},{"NoteNumber":76,"Velocity":40,"Duration":77586,"SoundDuration":77586,"Delta":321259731},{"NoteNumber":64,"Velocity":31,"Duration":154839,"SoundDuration":154839,"Delta":321259731},{"NoteNumber":59,"Velocity":31,"Duration":154839,"SoundDuration":154839,"Delta":321259731},{"NoteNumber":80,"Velocity":42,"Duration":77253,"SoundDuration":77253,"Delta":321337318},{"NoteNumber":78,"Velocity":44,"Duration":77021,"SoundDuration":77021,"Delta":321414571},{"NoteNumber":56,"Velocity":33,"Duration":153748,"SoundDuration":153748,"Delta":321414571},{"NoteNumber":76,"Velocity":42,"Duration":76726,"SoundDuration":76726,"Delta":321491593},{"NoteNumber":80,"Velocity":38,"Duration":76530,"SoundDuration":76530,"Delta":321568319},{"NoteNumber":51,"Velocity":38,"Duration":460950,"SoundDuration":460950,"Delta":321568319},{"NoteNumber":83,"Velocity":40,"Duration":76628,"SoundDuration":76628,"Delta":321644850},{"NoteNumber":88,"Velocity":43,"Duration":76726,"SoundDuration":76726,"Delta":321721478},{"NoteNumber":64,"Velocity":33,"Duration":153649,"SoundDuration":153649,"Delta":321721478},{"NoteNumber":59,"Velocity":33,"Duration":153649,"SoundDuration":153649,"Delta":321721478},{"NoteNumber":92,"Velocity":46,"Duration":76923,"SoundDuration":76923,"Delta":321798205},{"NoteNumber":90,"Velocity":50,"Duration":77021,"SoundDuration":77021,"Delta":321875128},{"NoteNumber":56,"Velocity":35,"Duration":154142,"SoundDuration":154142,"Delta":321875128},{"NoteNumber":88,"Velocity":47,"Duration":77120,"SoundDuration":77120,"Delta":321952149},{"NoteNumber":83,"Velocity":44,"Duration":77120,"SoundDuration":77120,"Delta":322029270},{"NoteNumber":52,"Velocity":35,"Duration":154440,"SoundDuration":154440,"Delta":322029270},{"NoteNumber":80,"Velocity":43,"Duration":77319,"SoundDuration":77319,"Delta":322106391},{"NoteNumber":78,"Velocity":42,"Duration":77519,"SoundDuration":77519,"Delta":322183710},{"NoteNumber":64,"Velocity":33,"Duration":155239,"SoundDuration":155239,"Delta":322183710},{"NoteNumber":59,"Velocity":33,"Duration":155239,"SoundDuration":155239,"Delta":322183710},{"NoteNumber":76,"Velocity":41,"Duration":77720,"SoundDuration":77720,"Delta":322261230},{"NoteNumber":71,"Velocity":40,"Duration":77922,"SoundDuration":77922,"Delta":322338950},{"NoteNumber":56,"Velocity":33,"Duration":156047,"SoundDuration":156047,"Delta":322338950},{"NoteNumber":68,"Velocity":39,"Duration":78125,"SoundDuration":78125,"Delta":322416872},{"NoteNumber":66,"Velocity":38,"Duration":78328,"SoundDuration":78328,"Delta":322494997},{"NoteNumber":47,"Velocity":35,"Duration":473106,"SoundDuration":473106,"Delta":322494997},{"NoteNumber":64,"Velocity":37,"Duration":78533,"SoundDuration":78533,"Delta":322573326},{"NoteNumber":59,"Velocity":36,"Duration":78740,"SoundDuration":78740,"Delta":322651860},{"NoteNumber":68,"Velocity":39,"Duration":78947,"SoundDuration":78947,"Delta":322730600},{"NoteNumber":66,"Velocity":38,"Duration":79155,"SoundDuration":79155,"Delta":322809548},{"NoteNumber":64,"Velocity":37,"Duration":79400,"SoundDuration":79400,"Delta":322888703},{"NoteNumber":61,"Velocity":36,"Duration":79470,"SoundDuration":79470,"Delta":322968104},{"NoteNumber":45,"Velocity":36,"Duration":79470,"SoundDuration":79470,"Delta":322968104},{"NoteNumber":64,"Velocity":34,"Duration":74550,"SoundDuration":74550,"Delta":323047574},{"NoteNumber":66,"Velocity":37,"Duration":78809,"SoundDuration":78809,"Delta":323126730},{"NoteNumber":64,"Velocity":31,"Duration":157274,"SoundDuration":157274,"Delta":323126730},{"NoteNumber":61,"Velocity":31,"Duration":157274,"SoundDuration":157274,"Delta":323126730},{"NoteNumber":69,"Velocity":39,"Duration":78465,"SoundDuration":78465,"Delta":323205539},{"NoteNumber":73,"Velocity":41,"Duration":78125,"SoundDuration":78125,"Delta":323284005},{"NoteNumber":54,"Velocity":31,"Duration":155946,"SoundDuration":155946,"Delta":323284005},{"NoteNumber":76,"Velocity":43,"Duration":77821,"SoundDuration":77821,"Delta":323362130},{"NoteNumber":78,"Velocity":46,"Duration":77519,"SoundDuration":77519,"Delta":323439951},{"NoteNumber":42,"Velocity":40,"Duration":77519,"SoundDuration":77519,"Delta":323439951},{"NoteNumber":81,"Velocity":48,"Duration":77653,"SoundDuration":77653,"Delta":323517470},{"NoteNumber":85,"Velocity":50,"Duration":77821,"SoundDuration":77821,"Delta":323595124},{"NoteNumber":64,"Velocity":35,"Duration":155776,"SoundDuration":155776,"Delta":323595124},{"NoteNumber":61,"Velocity":35,"Duration":155776,"SoundDuration":155776,"Delta":323595124},{"NoteNumber":88,"Velocity":51,"Duration":77955,"SoundDuration":77955,"Delta":323672945},{"NoteNumber":90,"Velocity":49,"Duration":78125,"SoundDuration":78125,"Delta":323750901},{"NoteNumber":54,"Velocity":35,"Duration":156453,"SoundDuration":156453,"Delta":323750901},{"NoteNumber":93,"Velocity":47,"Duration":78328,"SoundDuration":78328,"Delta":323829026},{"NoteNumber":92,"Velocity":47,"Duration":80214,"SoundDuration":80214,"Delta":323907355},{"NoteNumber":47,"Velocity":42,"Duration":80214,"SoundDuration":80214,"Delta":323907355},{"NoteNumber":90,"Velocity":48,"Duration":80214,"SoundDuration":80214,"Delta":323987569},{"NoteNumber":87,"Velocity":49,"Duration":78328,"SoundDuration":78328,"Delta":324067783},{"NoteNumber":59,"Velocity":36,"Duration":786113,"SoundDuration":786113,"Delta":324067783},{"NoteNumber":63,"Velocity":36,"Duration":786113,"SoundDuration":786113,"Delta":324067783},{"NoteNumber":81,"Velocity":50,"Duration":78328,"SoundDuration":78328,"Delta":324146112},{"NoteNumber":80,"Velocity":51,"Duration":78328,"SoundDuration":78328,"Delta":324224441},{"NoteNumber":54,"Velocity":36,"Duration":157008,"SoundDuration":157008,"Delta":324224441},{"NoteNumber":78,"Velocity":52,"Duration":78679,"SoundDuration":78679,"Delta":324302770},{"NoteNumber":75,"Velocity":53,"Duration":78328,"SoundDuration":78328,"Delta":324381449},{"NoteNumber":56,"Velocity":38,"Duration":156828,"SoundDuration":156828,"Delta":324381449},{"NoteNumber":71,"Velocity":52,"Duration":78499,"SoundDuration":78499,"Delta":324459778},{"NoteNumber":75,"Velocity":51,"Duration":78671,"SoundDuration":78671,"Delta":324538277},{"NoteNumber":54,"Velocity":40,"Duration":157480,"SoundDuration":157480,"Delta":324538277},{"NoteNumber":73,"Velocity":51,"Duration":78809,"SoundDuration":78809,"Delta":324616949},{"NoteNumber":71,"Velocity":53,"Duration":78982,"SoundDuration":78982,"Delta":324695758},{"NoteNumber":56,"Velocity":45,"Duration":158137,"SoundDuration":158137,"Delta":324695758},{"NoteNumber":69,"Velocity":57,"Duration":79155,"SoundDuration":79155,"Delta":324774740},{"NoteNumber":68,"Velocity":56,"Duration":79295,"SoundDuration":79295,"Delta":324853896},{"NoteNumber":52,"Velocity":49,"Duration":471225,"SoundDuration":471225,"Delta":324853896},{"NoteNumber":71,"Velocity":59,"Duration":79016,"SoundDuration":79016,"Delta":324933191},{"NoteNumber":76,"Velocity":61,"Duration":78671,"SoundDuration":78671,"Delta":325012208},{"NoteNumber":64,"Velocity":44,"Duration":157068,"SoundDuration":157068,"Delta":325012208},{"NoteNumber":59,"Velocity":44,"Duration":157068,"SoundDuration":157068,"Delta":325012208},{"NoteNumber":80,"Velocity":63,"Duration":78397,"SoundDuration":78397,"Delta":325090879},{"NoteNumber":78,"Velocity":65,"Duration":78057,"SoundDuration":78057,"Delta":325169277},{"NoteNumber":56,"Velocity":44,"Duration":155844,"SoundDuration":155844,"Delta":325169277},{"NoteNumber":76,"Velocity":63,"Duration":77787,"SoundDuration":77787,"Delta":325247334},{"NoteNumber":80,"Velocity":61,"Duration":77720,"SoundDuration":77720,"Delta":325325122},{"NoteNumber":47,"Velocity":62,"Duration":77720,"SoundDuration":77720,"Delta":325325122},{"NoteNumber":83,"Velocity":61,"Duration":77720,"SoundDuration":77720,"Delta":325402842},{"NoteNumber":88,"Velocity":64,"Duration":77720,"SoundDuration":77720,"Delta":325480562},{"NoteNumber":64,"Velocity":67,"Duration":155440,"SoundDuration":155440,"Delta":325480562},{"NoteNumber":59,"Velocity":67,"Duration":155440,"SoundDuration":155440,"Delta":325480562},{"NoteNumber":92,"Velocity":66,"Duration":77720,"SoundDuration":77720,"Delta":325558282},{"NoteNumber":90,"Velocity":69,"Duration":77720,"SoundDuration":77720,"Delta":325636003},{"NoteNumber":56,"Velocity":67,"Duration":155440,"SoundDuration":155440,"Delta":325636003},{"NoteNumber":88,"Velocity":65,"Duration":77720,"SoundDuration":77720,"Delta":325713723},{"NoteNumber":84,"Velocity":62,"Duration":77720,"SoundDuration":77720,"Delta":325791443},{"NoteNumber":45,"Velocity":70,"Duration":155440,"SoundDuration":155440,"Delta":325791443},{"NoteNumber":57,"Velocity":70,"Duration":155440,"SoundDuration":155440,"Delta":325791443},{"NoteNumber":81,"Velocity":61,"Duration":77720,"SoundDuration":77720,"Delta":325869163},{"NoteNumber":78,"Velocity":60,"Duration":77720,"SoundDuration":77720,"Delta":325946884},{"NoteNumber":48,"Velocity":77,"Duration":310880,"SoundDuration":310880,"Delta":325946884},{"NoteNumber":60,"Velocity":77,"Duration":310880,"SoundDuration":310880,"Delta":325946884},{"NoteNumber":76,"Velocity":60,"Duration":77720,"SoundDuration":77720,"Delta":326024604},{"NoteNumber":72,"Velocity":59,"Duration":77720,"SoundDuration":77720,"Delta":326102324},{"NoteNumber":69,"Velocity":58,"Duration":77720,"SoundDuration":77720,"Delta":326180044},{"NoteNumber":66,"Velocity":57,"Duration":77787,"SoundDuration":77787,"Delta":326257765},{"NoteNumber":64,"Velocity":56,"Duration":78057,"SoundDuration":78057,"Delta":326335552},{"NoteNumber":60,"Velocity":55,"Duration":78329,"SoundDuration":78329,"Delta":326413609},{"NoteNumber":57,"Velocity":54,"Duration":78602,"SoundDuration":78602,"Delta":326491939},{"NoteNumber":54,"Velocity":53,"Duration":78878,"SoundDuration":78878,"Delta":326570541},{"NoteNumber":52,"Velocity":52,"Duration":79155,"SoundDuration":79155,"Delta":326649420},{"NoteNumber":56,"Velocity":52,"Duration":79260,"SoundDuration":79260,"Delta":326728576},{"NoteNumber":40,"Velocity":66,"Duration":470410,"SoundDuration":470410,"Delta":326728576},{"NoteNumber":59,"Velocity":51,"Duration":78913,"SoundDuration":78913,"Delta":326807836},{"NoteNumber":64,"Velocity":52,"Duration":78568,"SoundDuration":78568,"Delta":326886749},{"NoteNumber":52,"Velocity":52,"Duration":156795,"SoundDuration":156795,"Delta":326886749},{"NoteNumber":68,"Velocity":53,"Duration":78226,"SoundDuration":78226,"Delta":326965317},{"NoteNumber":66,"Velocity":54,"Duration":77888,"SoundDuration":77888,"Delta":327043544},{"NoteNumber":47,"Velocity":52,"Duration":155441,"SoundDuration":155441,"Delta":327043544},{"NoteNumber":64,"Velocity":52,"Duration":77553,"SoundDuration":77553,"Delta":327121433},{"NoteNumber":68,"Velocity":49,"Duration":77220,"SoundDuration":77220,"Delta":327198986},{"NoteNumber":35,"Velocity":68,"Duration":77220,"SoundDuration":77220,"Delta":327198986},{"NoteNumber":71,"Velocity":51,"Duration":76890,"SoundDuration":76890,"Delta":327276206},{"NoteNumber":76,"Velocity":54,"Duration":76563,"SoundDuration":76563,"Delta":327353097},{"NoteNumber":52,"Velocity":66,"Duration":152802,"SoundDuration":152802,"Delta":327353097},{"NoteNumber":80,"Velocity":57,"Duration":76239,"SoundDuration":76239,"Delta":327429660},{"NoteNumber":78,"Velocity":59,"Duration":75949,"SoundDuration":75949,"Delta":327505899},{"NoteNumber":47,"Velocity":66,"Duration":151898,"SoundDuration":151898,"Delta":327505899},{"NoteNumber":76,"Velocity":57,"Duration":75949,"SoundDuration":75949,"Delta":327581848},{"NoteNumber":72,"Velocity":59,"Duration":75949,"SoundDuration":75949,"Delta":327657798},{"NoteNumber":33,"Velocity":75,"Duration":151898,"SoundDuration":151898,"Delta":327657798},{"NoteNumber":45,"Velocity":75,"Duration":151898,"SoundDuration":151898,"Delta":327657798},{"NoteNumber":69,"Velocity":61,"Duration":75949,"SoundDuration":75949,"Delta":327733747},{"NoteNumber":66,"Velocity":62,"Duration":75949,"SoundDuration":75949,"Delta":327809696},{"NoteNumber":36,"Velocity":86,"Duration":303797,"SoundDuration":303797,"Delta":327809696},{"NoteNumber":48,"Velocity":86,"Duration":303797,"SoundDuration":303797,"Delta":327809696},{"NoteNumber":64,"Velocity":64,"Duration":75949,"SoundDuration":75949,"Delta":327885645},{"NoteNumber":60,"Velocity":66,"Duration":75949,"SoundDuration":75949,"Delta":327961595},{"NoteNumber":57,"Velocity":67,"Duration":75949,"SoundDuration":75949,"Delta":328037544},{"NoteNumber":54,"Velocity":69,"Duration":76078,"SoundDuration":76078,"Delta":328113493},{"NoteNumber":52,"Velocity":71,"Duration":76628,"SoundDuration":76628,"Delta":328189571},{"NoteNumber":48,"Velocity":73,"Duration":77220,"SoundDuration":77220,"Delta":328266200},{"NoteNumber":45,"Velocity":74,"Duration":77821,"SoundDuration":77821,"Delta":328343420},{"NoteNumber":42,"Velocity":76,"Duration":78431,"SoundDuration":78431,"Delta":328421242},{"NoteNumber":40,"Velocity":78,"Duration":79051,"SoundDuration":79051,"Delta":328499674},{"NoteNumber":28,"Velocity":104,"Duration":162601,"SoundDuration":162601,"Delta":328578726},{"NoteNumber":47,"Velocity":73,"Duration":76530,"SoundDuration":76530,"Delta":328741327},{"NoteNumber":52,"Velocity":68,"Duration":76530,"SoundDuration":76530,"Delta":328817858},{"NoteNumber":57,"Velocity":68,"Duration":76530,"SoundDuration":76530,"Delta":328894388},{"NoteNumber":56,"Velocity":68,"Duration":76530,"SoundDuration":76530,"Delta":328970919},{"NoteNumber":59,"Velocity":73,"Duration":76530,"SoundDuration":76530,"Delta":329047449},{"NoteNumber":64,"Velocity":67,"Duration":76530,"SoundDuration":76530,"Delta":329123980},{"NoteNumber":69,"Velocity":67,"Duration":76530,"SoundDuration":76530,"Delta":329200510},{"NoteNumber":68,"Velocity":68,"Duration":76530,"SoundDuration":76530,"Delta":329277041},{"NoteNumber":71,"Velocity":72,"Duration":76530,"SoundDuration":76530,"Delta":329353571},{"NoteNumber":76,"Velocity":73,"Duration":76530,"SoundDuration":76530,"Delta":329430102},{"NoteNumber":81,"Velocity":76,"Duration":76530,"SoundDuration":76530,"Delta":329506632},{"NoteNumber":68,"Velocity":80,"Duration":153060,"SoundDuration":153060,"Delta":329506632},{"NoteNumber":59,"Velocity":80,"Duration":153060,"SoundDuration":153060,"Delta":329506632},{"NoteNumber":52,"Velocity":80,"Duration":153060,"SoundDuration":153060,"Delta":329506632},{"NoteNumber":80,"Velocity":71,"Duration":76530,"SoundDuration":76530,"Delta":329583163},{"NoteNumber":83,"Velocity":71,"Duration":76530,"SoundDuration":76530,"Delta":329659693},{"NoteNumber":88,"Velocity":71,"Duration":76530,"SoundDuration":76530,"Delta":329736224},{"NoteNumber":93,"Velocity":71,"Duration":76530,"SoundDuration":76530,"Delta":329812754},{"NoteNumber":92,"Velocity":71,"Duration":76530,"SoundDuration":76530,"Delta":329889285},{"NoteNumber":88,"Velocity":77,"Duration":76530,"SoundDuration":76530,"Delta":329965815},{"NoteNumber":83,"Velocity":71,"Duration":76530,"SoundDuration":76530,"Delta":330042346},{"NoteNumber":81,"Velocity":71,"Duration":76530,"SoundDuration":76530,"Delta":330118876},{"NoteNumber":80,"Velocity":71,"Duration":76530,"SoundDuration":76530,"Delta":330195407},{"NoteNumber":76,"Velocity":71,"Duration":76530,"SoundDuration":76530,"Delta":330271937},{"NoteNumber":71,"Velocity":71,"Duration":76530,"SoundDuration":76530,"Delta":330348468},{"NoteNumber":69,"Velocity":71,"Duration":76336,"SoundDuration":76336,"Delta":330424998},{"NoteNumber":68,"Velocity":72,"Duration":76530,"SoundDuration":76530,"Delta":330501334},{"NoteNumber":64,"Velocity":73,"Duration":76759,"SoundDuration":76759,"Delta":330577865},{"NoteNumber":59,"Velocity":75,"Duration":76955,"SoundDuration":76955,"Delta":330654624},{"NoteNumber":57,"Velocity":77,"Duration":77186,"SoundDuration":77186,"Delta":330731580},{"NoteNumber":56,"Velocity":78,"Duration":77386,"SoundDuration":77386,"Delta":330808767},{"NoteNumber":52,"Velocity":80,"Duration":77619,"SoundDuration":77619,"Delta":330886153},{"NoteNumber":47,"Velocity":81,"Duration":77821,"SoundDuration":77821,"Delta":330963773},{"NoteNumber":45,"Velocity":82,"Duration":78057,"SoundDuration":78057,"Delta":331041594},{"NoteNumber":44,"Velocity":84,"Duration":78260,"SoundDuration":78260,"Delta":331119651},{"NoteNumber":40,"Velocity":86,"Duration":78499,"SoundDuration":78499,"Delta":331197912},{"NoteNumber":35,"Velocity":88,"Duration":78705,"SoundDuration":78705,"Delta":331276412},{"NoteNumber":28,"Velocity":96,"Duration":473683,"SoundDuration":473683,"Delta":331355118},{"NoteNumber":38,"Velocity":98,"Duration":175952,"SoundDuration":175952,"Delta":332302485},{"NoteNumber":26,"Velocity":83,"Duration":175952,"SoundDuration":175952,"Delta":332302485},{"NoteNumber":47,"Velocity":73,"Duration":76530,"SoundDuration":76530,"Delta":332478438},{"NoteNumber":53,"Velocity":68,"Duration":76530,"SoundDuration":76530,"Delta":332554968},{"NoteNumber":57,"Velocity":68,"Duration":76530,"SoundDuration":76530,"Delta":332631499},{"NoteNumber":56,"Velocity":68,"Duration":76530,"SoundDuration":76530,"Delta":332708029},{"NoteNumber":59,"Velocity":73,"Duration":76530,"SoundDuration":76530,"Delta":332784560},{"NoteNumber":65,"Velocity":67,"Duration":76530,"SoundDuration":76530,"Delta":332861090},{"NoteNumber":69,"Velocity":67,"Duration":76530,"SoundDuration":76530,"Delta":332937621},{"NoteNumber":68,"Velocity":68,"Duration":76530,"SoundDuration":76530,"Delta":333014151},{"NoteNumber":71,"Velocity":72,"Duration":76530,"SoundDuration":76530,"Delta":333090682},{"NoteNumber":77,"Velocity":73,"Duration":76530,"SoundDuration":76530,"Delta":333167212},{"NoteNumber":81,"Velocity":76,"Duration":76530,"SoundDuration":76530,"Delta":333243743},{"NoteNumber":56,"Velocity":80,"Duration":153060,"SoundDuration":153060,"Delta":333243743},{"NoteNumber":65,"Velocity":80,"Duration":153060,"SoundDuration":153060,"Delta":333243743},{"NoteNumber":59,"Velocity":80,"Duration":153060,"SoundDuration":153060,"Delta":333243743},{"NoteNumber":50,"Velocity":68,"Duration":153060,"SoundDuration":153060,"Delta":333243743},{"NoteNumber":80,"Velocity":71,"Duration":76530,"SoundDuration":76530,"Delta":333320273},{"NoteNumber":83,"Velocity":71,"Duration":76530,"SoundDuration":76530,"Delta":333396804},{"NoteNumber":89,"Velocity":71,"Duration":76530,"SoundDuration":76530,"Delta":333473334},{"NoteNumber":93,"Velocity":71,"Duration":76530,"SoundDuration":76530,"Delta":333549865},{"NoteNumber":92,"Velocity":71,"Duration":76530,"SoundDuration":76530,"Delta":333626395},{"NoteNumber":89,"Velocity":77,"Duration":76530,"SoundDuration":76530,"Delta":333702926},{"NoteNumber":83,"Velocity":71,"Duration":76530,"SoundDuration":76530,"Delta":333779456},{"NoteNumber":81,"Velocity":71,"Duration":76530,"SoundDuration":76530,"Delta":333855987},{"NoteNumber":80,"Velocity":71,"Duration":76530,"SoundDuration":76530,"Delta":333932517},{"NoteNumber":77,"Velocity":71,"Duration":76530,"SoundDuration":76530,"Delta":334009048},{"NoteNumber":71,"Velocity":71,"Duration":76530,"SoundDuration":76530,"Delta":334085578},{"NoteNumber":69,"Velocity":71,"Duration":76336,"SoundDuration":76336,"Delta":334162109},{"NoteNumber":68,"Velocity":72,"Duration":76530,"SoundDuration":76530,"Delta":334238445},{"NoteNumber":65,"Velocity":73,"Duration":76759,"SoundDuration":76759,"Delta":334314975},{"NoteNumber":59,"Velocity":75,"Duration":76955,"SoundDuration":76955,"Delta":334391734},{"NoteNumber":57,"Velocity":77,"Duration":77186,"SoundDuration":77186,"Delta":334468690},{"NoteNumber":56,"Velocity":78,"Duration":77386,"SoundDuration":77386,"Delta":334545877},{"NoteNumber":53,"Velocity":80,"Duration":77619,"SoundDuration":77619,"Delta":334623264},{"NoteNumber":47,"Velocity":81,"Duration":77821,"SoundDuration":77821,"Delta":334700883},{"NoteNumber":45,"Velocity":82,"Duration":78057,"SoundDuration":78057,"Delta":334778705},{"NoteNumber":44,"Velocity":84,"Duration":78260,"SoundDuration":78260,"Delta":334856762},{"NoteNumber":41,"Velocity":86,"Duration":78499,"SoundDuration":78499,"Delta":334935023},{"NoteNumber":35,"Velocity":88,"Duration":78705,"SoundDuration":78705,"Delta":335013523},{"NoteNumber":26,"Velocity":96,"Duration":947366,"SoundDuration":947366,"Delta":335092229},{"NoteNumber":25,"Velocity":86,"Duration":175952,"SoundDuration":175952,"Delta":336039596},{"NoteNumber":37,"Velocity":102,"Duration":175952,"SoundDuration":175952,"Delta":336039596},{"NoteNumber":70,"Velocity":66,"Duration":76923,"SoundDuration":76923,"Delta":336215549},{"NoteNumber":68,"Velocity":67,"Duration":76922,"SoundDuration":76922,"Delta":336292472},{"NoteNumber":71,"Velocity":68,"Duration":76923,"SoundDuration":76923,"Delta":336369395},{"NoteNumber":77,"Velocity":69,"Duration":76922,"SoundDuration":76922,"Delta":336446318},{"NoteNumber":82,"Velocity":71,"Duration":78328,"SoundDuration":78328,"Delta":336523241},{"NoteNumber":44,"Velocity":84,"Duration":156657,"SoundDuration":156657,"Delta":336523241},{"NoteNumber":56,"Velocity":84,"Duration":156657,"SoundDuration":156657,"Delta":336523241},{"NoteNumber":80,"Velocity":72,"Duration":78328,"SoundDuration":78328,"Delta":336601570},{"NoteNumber":83,"Velocity":73,"Duration":78328,"SoundDuration":78328,"Delta":336679899},{"NoteNumber":51,"Velocity":90,"Duration":156657,"SoundDuration":156657,"Delta":336679899},{"NoteNumber":63,"Velocity":90,"Duration":156657,"SoundDuration":156657,"Delta":336679899},{"NoteNumber":89,"Velocity":74,"Duration":78328,"SoundDuration":78328,"Delta":336758228},{"NoteNumber":94,"Velocity":75,"Duration":78328,"SoundDuration":78328,"Delta":336836557},{"NoteNumber":49,"Velocity":84,"Duration":156657,"SoundDuration":156657,"Delta":336836557},{"NoteNumber":61,"Velocity":84,"Duration":156657,"SoundDuration":156657,"Delta":336836557},{"NoteNumber":92,"Velocity":77,"Duration":78328,"SoundDuration":78328,"Delta":336914886},{"NoteNumber":82,"Velocity":80,"Duration":76923,"SoundDuration":76923,"Delta":336993215},{"NoteNumber":49,"Velocity":95,"Duration":307691,"SoundDuration":307691,"Delta":336993215},{"NoteNumber":61,"Velocity":95,"Duration":307691,"SoundDuration":307691,"Delta":336993215},{"NoteNumber":88,"Velocity":74,"Duration":76922,"SoundDuration":76922,"Delta":337070138},{"NoteNumber":92,"Velocity":77,"Duration":76923,"SoundDuration":76923,"Delta":337147061},{"NoteNumber":91,"Velocity":81,"Duration":76922,"SoundDuration":76922,"Delta":337223984},{"NoteNumber":88,"Velocity":80,"Duration":76923,"SoundDuration":76923,"Delta":337300907},{"NoteNumber":82,"Velocity":78,"Duration":76923,"SoundDuration":76923,"Delta":337377830},{"NoteNumber":80,"Velocity":76,"Duration":76791,"SoundDuration":76791,"Delta":337454753},{"NoteNumber":37,"Velocity":90,"Duration":76791,"SoundDuration":76791,"Delta":337454753},{"NoteNumber":49,"Velocity":90,"Duration":76791,"SoundDuration":76791,"Delta":337454753},{"NoteNumber":79,"Velocity":76,"Duration":77054,"SoundDuration":77054,"Delta":337531544},{"NoteNumber":76,"Velocity":76,"Duration":77419,"SoundDuration":77419,"Delta":337608599},{"NoteNumber":70,"Velocity":76,"Duration":77720,"SoundDuration":77720,"Delta":337686019},{"NoteNumber":68,"Velocity":74,"Duration":78057,"SoundDuration":78057,"Delta":337763739},{"NoteNumber":67,"Velocity":73,"Duration":78397,"SoundDuration":78397,"Delta":337841796},{"NoteNumber":57,"Velocity":73,"Duration":84745,"SoundDuration":84745,"Delta":337920194},{"NoteNumber":25,"Velocity":90,"Duration":169491,"SoundDuration":169491,"Delta":337920194},{"NoteNumber":37,"Velocity":90,"Duration":169491,"SoundDuration":169491,"Delta":337920194},{"NoteNumber":63,"Velocity":73,"Duration":84745,"SoundDuration":84745,"Delta":338004940},{"NoteNumber":68,"Velocity":74,"Duration":76923,"SoundDuration":76923,"Delta":338089685},{"NoteNumber":66,"Velocity":75,"Duration":76922,"SoundDuration":76922,"Delta":338166608},{"NoteNumber":69,"Velocity":76,"Duration":76923,"SoundDuration":76923,"Delta":338243531},{"NoteNumber":75,"Velocity":76,"Duration":76922,"SoundDuration":76922,"Delta":338320454},{"NoteNumber":80,"Velocity":77,"Duration":78740,"SoundDuration":78740,"Delta":338397377},{"NoteNumber":42,"Velocity":82,"Duration":157480,"SoundDuration":157480,"Delta":338397377},{"NoteNumber":54,"Velocity":82,"Duration":157480,"SoundDuration":157480,"Delta":338397377},{"NoteNumber":78,"Velocity":76,"Duration":78740,"SoundDuration":78740,"Delta":338476118},{"NoteNumber":81,"Velocity":79,"Duration":78740,"SoundDuration":78740,"Delta":338554858},{"NoteNumber":51,"Velocity":87,"Duration":157480,"SoundDuration":157480,"Delta":338554858},{"NoteNumber":63,"Velocity":87,"Duration":157480,"SoundDuration":157480,"Delta":338554858},{"NoteNumber":87,"Velocity":81,"Duration":78740,"SoundDuration":78740,"Delta":338633598},{"NoteNumber":92,"Velocity":84,"Duration":78740,"SoundDuration":78740,"Delta":338712338},{"NoteNumber":49,"Velocity":82,"Duration":157480,"SoundDuration":157480,"Delta":338712338},{"NoteNumber":61,"Velocity":82,"Duration":157480,"SoundDuration":157480,"Delta":338712338},{"NoteNumber":90,"Velocity":86,"Duration":78740,"SoundDuration":78740,"Delta":338791079},{"NoteNumber":80,"Velocity":88,"Duration":78740,"SoundDuration":78740,"Delta":338869819},{"NoteNumber":49,"Velocity":93,"Duration":78740,"SoundDuration":78740,"Delta":338869819},{"NoteNumber":61,"Velocity":93,"Duration":78740,"SoundDuration":78740,"Delta":338869819},{"NoteNumber":85,"Velocity":87,"Duration":78740,"SoundDuration":78740,"Delta":338948559},{"NoteNumber":90,"Velocity":87,"Duration":77120,"SoundDuration":77120,"Delta":339027299},{"NoteNumber":31,"Velocity":71,"Duration":154241,"SoundDuration":154241,"Delta":339027299},{"NoteNumber":43,"Velocity":71,"Duration":154241,"SoundDuration":154241,"Delta":339027299},{"NoteNumber":89,"Velocity":85,"Duration":77120,"SoundDuration":77120,"Delta":339104420},{"NoteNumber":85,"Velocity":83,"Duration":77120,"SoundDuration":77120,"Delta":339181541},{"NoteNumber":32,"Velocity":71,"Duration":154241,"SoundDuration":154241,"Delta":339181541},{"NoteNumber":44,"Velocity":71,"Duration":154241,"SoundDuration":154241,"Delta":339181541},{"NoteNumber":80,"Velocity":82,"Duration":77120,"SoundDuration":77120,"Delta":339258662},{"NoteNumber":78,"Velocity":80,"Duration":77120,"SoundDuration":77120,"Delta":339335782},{"NoteNumber":32,"Velocity":71,"Duration":154241,"SoundDuration":154241,"Delta":339335782},{"NoteNumber":44,"Velocity":71,"Duration":154241,"SoundDuration":154241,"Delta":339335782},{"NoteNumber":77,"Velocity":78,"Duration":77120,"SoundDuration":77120,"Delta":339412903},{"NoteNumber":73,"Velocity":76,"Duration":77120,"SoundDuration":77120,"Delta":339490024},{"NoteNumber":39,"Velocity":75,"Duration":154241,"SoundDuration":154241,"Delta":339490024},{"NoteNumber":51,"Velocity":75,"Duration":154241,"SoundDuration":154241,"Delta":339490024},{"NoteNumber":68,"Velocity":74,"Duration":77120,"SoundDuration":77120,"Delta":339567145},{"NoteNumber":66,"Velocity":72,"Duration":77120,"SoundDuration":77120,"Delta":339644265},{"NoteNumber":37,"Velocity":74,"Duration":154241,"SoundDuration":154241,"Delta":339644265},{"NoteNumber":49,"Velocity":74,"Duration":154241,"SoundDuration":154241,"Delta":339644265},{"NoteNumber":65,"Velocity":71,"Duration":77120,"SoundDuration":77120,"Delta":339721386},{"NoteNumber":60,"Velocity":71,"Duration":80428,"SoundDuration":80428,"Delta":339798507},{"NoteNumber":38,"Velocity":93,"Duration":160858,"SoundDuration":160858,"Delta":339798507},{"NoteNumber":50,"Velocity":93,"Duration":160858,"SoundDuration":160858,"Delta":339798507},{"NoteNumber":66,"Velocity":71,"Duration":80429,"SoundDuration":80429,"Delta":339878936},{"NoteNumber":71,"Velocity":71,"Duration":76923,"SoundDuration":76923,"Delta":339959365},{"NoteNumber":69,"Velocity":71,"Duration":76922,"SoundDuration":76922,"Delta":340036288},{"NoteNumber":72,"Velocity":71,"Duration":76923,"SoundDuration":76923,"Delta":340113211},{"NoteNumber":78,"Velocity":71,"Duration":76922,"SoundDuration":76922,"Delta":340190134},{"NoteNumber":83,"Velocity":69,"Duration":79155,"SoundDuration":79155,"Delta":340267057},{"NoteNumber":45,"Velocity":81,"Duration":158311,"SoundDuration":158311,"Delta":340267057},{"NoteNumber":57,"Velocity":81,"Duration":158311,"SoundDuration":158311,"Delta":340267057},{"NoteNumber":81,"Velocity":71,"Duration":79155,"SoundDuration":79155,"Delta":340346213},{"NoteNumber":84,"Velocity":73,"Duration":79155,"SoundDuration":79155,"Delta":340425368},{"NoteNumber":64,"Velocity":86,"Duration":158311,"SoundDuration":158311,"Delta":340425368},{"NoteNumber":52,"Velocity":86,"Duration":158311,"SoundDuration":158311,"Delta":340425368},{"NoteNumber":90,"Velocity":75,"Duration":79155,"SoundDuration":79155,"Delta":340504524},{"NoteNumber":95,"Velocity":76,"Duration":79155,"SoundDuration":79155,"Delta":340583680},{"NoteNumber":50,"Velocity":79,"Duration":158311,"SoundDuration":158311,"Delta":340583680},{"NoteNumber":62,"Velocity":79,"Duration":158311,"SoundDuration":158311,"Delta":340583680},{"NoteNumber":93,"Velocity":78,"Duration":79155,"SoundDuration":79155,"Delta":340662836},{"NoteNumber":83,"Velocity":80,"Duration":76923,"SoundDuration":76923,"Delta":340741991},{"NoteNumber":50,"Velocity":93,"Duration":307691,"SoundDuration":307691,"Delta":340741991},{"NoteNumber":62,"Velocity":93,"Duration":307691,"SoundDuration":307691,"Delta":340741991},{"NoteNumber":89,"Velocity":82,"Duration":76922,"SoundDuration":76922,"Delta":340818914},{"NoteNumber":93,"Velocity":82,"Duration":76923,"SoundDuration":76923,"Delta":340895837},{"NoteNumber":92,"Velocity":80,"Duration":76922,"SoundDuration":76922,"Delta":340972760},{"NoteNumber":89,"Velocity":79,"Duration":76923,"SoundDuration":76923,"Delta":341049683},{"NoteNumber":83,"Velocity":78,"Duration":76923,"SoundDuration":76923,"Delta":341126606},{"NoteNumber":81,"Velocity":77,"Duration":76922,"SoundDuration":76922,"Delta":341203529},{"NoteNumber":38,"Velocity":97,"Duration":76922,"SoundDuration":76922,"Delta":341203529},{"NoteNumber":50,"Velocity":97,"Duration":76922,"SoundDuration":76922,"Delta":341203529},{"NoteNumber":80,"Velocity":76,"Duration":76923,"SoundDuration":76923,"Delta":341280452},{"NoteNumber":77,"Velocity":75,"Duration":76923,"SoundDuration":76923,"Delta":341357375},{"NoteNumber":71,"Velocity":74,"Duration":76922,"SoundDuration":76922,"Delta":341434298},{"NoteNumber":69,"Velocity":73,"Duration":76923,"SoundDuration":76923,"Delta":341511221},{"NoteNumber":68,"Velocity":72,"Duration":76922,"SoundDuration":76922,"Delta":341588144},{"NoteNumber":58,"Velocity":71,"Duration":80428,"SoundDuration":80428,"Delta":341665067},{"NoteNumber":38,"Velocity":93,"Duration":160858,"SoundDuration":160858,"Delta":341665067},{"NoteNumber":26,"Velocity":79,"Duration":160858,"SoundDuration":160858,"Delta":341665067},{"NoteNumber":64,"Velocity":71,"Duration":80429,"SoundDuration":80429,"Delta":341745496},{"NoteNumber":69,"Velocity":71,"Duration":76923,"SoundDuration":76923,"Delta":341825925},{"NoteNumber":67,"Velocity":71,"Duration":76922,"SoundDuration":76922,"Delta":341902848},{"NoteNumber":70,"Velocity":71,"Duration":76923,"SoundDuration":76923,"Delta":341979771},{"NoteNumber":76,"Velocity":71,"Duration":76922,"SoundDuration":76922,"Delta":342056694},{"NoteNumber":81,"Velocity":69,"Duration":79155,"SoundDuration":79155,"Delta":342133617},{"NoteNumber":43,"Velocity":81,"Duration":158311,"SoundDuration":158311,"Delta":342133617},{"NoteNumber":55,"Velocity":81,"Duration":158311,"SoundDuration":158311,"Delta":342133617},{"NoteNumber":79,"Velocity":71,"Duration":79155,"SoundDuration":79155,"Delta":342212773},{"NoteNumber":82,"Velocity":73,"Duration":79155,"SoundDuration":79155,"Delta":342291929},{"NoteNumber":64,"Velocity":86,"Duration":158311,"SoundDuration":158311,"Delta":342291929},{"NoteNumber":52,"Velocity":86,"Duration":158311,"SoundDuration":158311,"Delta":342291929},{"NoteNumber":88,"Velocity":75,"Duration":79155,"SoundDuration":79155,"Delta":342371085},{"NoteNumber":93,"Velocity":76,"Duration":79155,"SoundDuration":79155,"Delta":342450240},{"NoteNumber":50,"Velocity":79,"Duration":158311,"SoundDuration":158311,"Delta":342450240},{"NoteNumber":62,"Velocity":79,"Duration":158311,"SoundDuration":158311,"Delta":342450240},{"NoteNumber":91,"Velocity":78,"Duration":79155,"SoundDuration":79155,"Delta":342529396},{"NoteNumber":81,"Velocity":80,"Duration":76923,"SoundDuration":76923,"Delta":342608552},{"NoteNumber":50,"Velocity":86,"Duration":76923,"SoundDuration":76923,"Delta":342608552},{"NoteNumber":62,"Velocity":86,"Duration":76923,"SoundDuration":76923,"Delta":342608552},{"NoteNumber":86,"Velocity":82,"Duration":76922,"SoundDuration":76922,"Delta":342685475},{"NoteNumber":91,"Velocity":82,"Duration":76923,"SoundDuration":76923,"Delta":342762398},{"NoteNumber":37,"Velocity":71,"Duration":153845,"SoundDuration":153845,"Delta":342762398},{"NoteNumber":49,"Velocity":71,"Duration":153845,"SoundDuration":153845,"Delta":342762398},{"NoteNumber":90,"Velocity":80,"Duration":76922,"SoundDuration":76922,"Delta":342839321},{"NoteNumber":86,"Velocity":79,"Duration":76923,"SoundDuration":76923,"Delta":342916244},{"NoteNumber":38,"Velocity":71,"Duration":153846,"SoundDuration":153846,"Delta":342916244},{"NoteNumber":50,"Velocity":71,"Duration":153846,"SoundDuration":153846,"Delta":342916244},{"NoteNumber":81,"Velocity":78,"Duration":76923,"SoundDuration":76923,"Delta":342993167},{"NoteNumber":79,"Velocity":76,"Duration":76922,"SoundDuration":76922,"Delta":343070090},{"NoteNumber":38,"Velocity":77,"Duration":76922,"SoundDuration":76922,"Delta":343070090},{"NoteNumber":50,"Velocity":77,"Duration":76922,"SoundDuration":76922,"Delta":343070090},{"NoteNumber":78,"Velocity":75,"Duration":76923,"SoundDuration":76923,"Delta":343147013},{"NoteNumber":74,"Velocity":73,"Duration":76923,"SoundDuration":76923,"Delta":343223936},{"NoteNumber":35,"Velocity":70,"Duration":153845,"SoundDuration":153845,"Delta":343223936},{"NoteNumber":47,"Velocity":70,"Duration":153845,"SoundDuration":153845,"Delta":343223936},{"NoteNumber":69,"Velocity":71,"Duration":76922,"SoundDuration":76922,"Delta":343300859},{"NoteNumber":67,"Velocity":70,"Duration":76923,"SoundDuration":76923,"Delta":343377782},{"NoteNumber":36,"Velocity":71,"Duration":153845,"SoundDuration":153845,"Delta":343377782},{"NoteNumber":48,"Velocity":71,"Duration":153845,"SoundDuration":153845,"Delta":343377782},{"NoteNumber":66,"Velocity":68,"Duration":76922,"SoundDuration":76922,"Delta":343454705},{"NoteNumber":62,"Velocity":66,"Duration":239043,"SoundDuration":239043,"Delta":343531628},{"NoteNumber":67,"Velocity":66,"Duration":239043,"SoundDuration":239043,"Delta":343531628},{"NoteNumber":74,"Velocity":66,"Duration":239043,"SoundDuration":239043,"Delta":343531628},{"NoteNumber":34,"Velocity":84,"Duration":239043,"SoundDuration":239043,"Delta":343531628},{"NoteNumber":46,"Velocity":84,"Duration":239043,"SoundDuration":239043,"Delta":343531628},{"NoteNumber":73,"Velocity":58,"Duration":114503,"SoundDuration":114503,"Delta":343770672},{"NoteNumber":62,"Velocity":56,"Duration":229007,"SoundDuration":229007,"Delta":343770672},{"NoteNumber":74,"Velocity":55,"Duration":114503,"SoundDuration":114503,"Delta":343885176},{"NoteNumber":77,"Velocity":58,"Duration":76335,"SoundDuration":76335,"Delta":343999679},{"NoteNumber":50,"Velocity":56,"Duration":229007,"SoundDuration":229007,"Delta":343999679},{"NoteNumber":55,"Velocity":56,"Duration":229007,"SoundDuration":229007,"Delta":343999679},{"NoteNumber":75,"Velocity":58,"Duration":76335,"SoundDuration":76335,"Delta":344076015},{"NoteNumber":74,"Velocity":55,"Duration":76335,"SoundDuration":76335,"Delta":344152351},{"NoteNumber":74,"Velocity":67,"Duration":906182,"SoundDuration":906182,"Delta":344228687},{"NoteNumber":45,"Velocity":68,"Duration":240000,"SoundDuration":240000,"Delta":344228687},{"NoteNumber":86,"Velocity":66,"Duration":225564,"SoundDuration":225564,"Delta":344468687},{"NoteNumber":78,"Velocity":66,"Duration":451127,"SoundDuration":451127,"Delta":344468687},{"NoteNumber":62,"Velocity":56,"Duration":225564,"SoundDuration":225564,"Delta":344468687},{"NoteNumber":84,"Velocity":64,"Duration":225563,"SoundDuration":225563,"Delta":344694251},{"NoteNumber":50,"Velocity":56,"Duration":225563,"SoundDuration":225563,"Delta":344694251},{"NoteNumber":57,"Velocity":56,"Duration":225563,"SoundDuration":225563,"Delta":344694251},{"NoteNumber":79,"Velocity":70,"Duration":215054,"SoundDuration":215054,"Delta":344919815},{"NoteNumber":82,"Velocity":70,"Duration":215054,"SoundDuration":215054,"Delta":344919815},{"NoteNumber":43,"Velocity":66,"Duration":215054,"SoundDuration":215054,"Delta":344919815},{"NoteNumber":73,"Velocity":59,"Duration":103448,"SoundDuration":103448,"Delta":345134869},{"NoteNumber":62,"Velocity":56,"Duration":206896,"SoundDuration":206896,"Delta":345134869},{"NoteNumber":74,"Velocity":55,"Duration":103448,"SoundDuration":103448,"Delta":345238317},{"NoteNumber":77,"Velocity":59,"Duration":68965,"SoundDuration":68965,"Delta":345341765},{"NoteNumber":50,"Velocity":56,"Duration":206896,"SoundDuration":206896,"Delta":345341765},{"NoteNumber":58,"Velocity":56,"Duration":206896,"SoundDuration":206896,"Delta":345341765},{"NoteNumber":75,"Velocity":59,"Duration":68965,"SoundDuration":68965,"Delta":345410731},{"NoteNumber":74,"Velocity":55,"Duration":68965,"SoundDuration":68965,"Delta":345479696},{"NoteNumber":74,"Velocity":69,"Duration":802397,"SoundDuration":802397,"Delta":345548662},{"NoteNumber":48,"Velocity":65,"Duration":594785,"SoundDuration":594785,"Delta":345548662},{"NoteNumber":70,"Velocity":65,"Duration":196721,"SoundDuration":196721,"Delta":345750004},{"NoteNumber":82,"Velocity":65,"Duration":196721,"SoundDuration":196721,"Delta":345750004},{"NoteNumber":62,"Velocity":56,"Duration":196721,"SoundDuration":196721,"Delta":345750004},{"NoteNumber":69,"Velocity":62,"Duration":196721,"SoundDuration":196721,"Delta":345946726},{"NoteNumber":81,"Velocity":62,"Duration":196721,"SoundDuration":196721,"Delta":345946726},{"NoteNumber":54,"Velocity":56,"Duration":196721,"SoundDuration":196721,"Delta":345946726},{"NoteNumber":57,"Velocity":56,"Duration":196721,"SoundDuration":196721,"Delta":345946726},{"NoteNumber":67,"Velocity":69,"Duration":207612,"SoundDuration":207612,"Delta":346143447},{"NoteNumber":79,"Velocity":69,"Duration":207612,"SoundDuration":207612,"Delta":346143447},{"NoteNumber":46,"Velocity":65,"Duration":207612,"SoundDuration":207612,"Delta":346143447},{"NoteNumber":73,"Velocity":59,"Duration":96153,"SoundDuration":96153,"Delta":346351060},{"NoteNumber":62,"Velocity":56,"Duration":192307,"SoundDuration":192307,"Delta":346351060},{"NoteNumber":74,"Velocity":55,"Duration":96153,"SoundDuration":96153,"Delta":346447214},{"NoteNumber":77,"Velocity":59,"Duration":64102,"SoundDuration":64102,"Delta":346543367},{"NoteNumber":50,"Velocity":56,"Duration":192307,"SoundDuration":192307,"Delta":346543367},{"NoteNumber":55,"Velocity":56,"Duration":192307,"SoundDuration":192307,"Delta":346543367},{"NoteNumber":75,"Velocity":59,"Duration":64102,"SoundDuration":64102,"Delta":346607470},{"NoteNumber":74,"Velocity":55,"Duration":64102,"SoundDuration":64102,"Delta":346671572},{"NoteNumber":74,"Velocity":70,"Duration":782236,"SoundDuration":782236,"Delta":346735675},{"NoteNumber":45,"Velocity":66,"Duration":197368,"SoundDuration":197368,"Delta":346735675},{"NoteNumber":86,"Velocity":65,"Duration":191082,"SoundDuration":191082,"Delta":346933043},{"NoteNumber":78,"Velocity":65,"Duration":382165,"SoundDuration":382165,"Delta":346933043},{"NoteNumber":62,"Velocity":56,"Duration":191082,"SoundDuration":191082,"Delta":346933043},{"NoteNumber":84,"Velocity":65,"Duration":191082,"SoundDuration":191082,"Delta":347124126},{"NoteNumber":50,"Velocity":56,"Duration":191082,"SoundDuration":191082,"Delta":347124126},{"NoteNumber":57,"Velocity":56,"Duration":191082,"SoundDuration":191082,"Delta":347124126},{"NoteNumber":79,"Velocity":69,"Duration":202702,"SoundDuration":202702,"Delta":347315209},{"NoteNumber":82,"Velocity":69,"Duration":202702,"SoundDuration":202702,"Delta":347315209},{"NoteNumber":43,"Velocity":65,"Duration":202702,"SoundDuration":202702,"Delta":347315209},{"NoteNumber":66,"Velocity":58,"Duration":97087,"SoundDuration":97087,"Delta":347517912},{"NoteNumber":62,"Velocity":56,"Duration":194174,"SoundDuration":194174,"Delta":347517912},{"NoteNumber":67,"Velocity":53,"Duration":97087,"SoundDuration":97087,"Delta":347614999},{"NoteNumber":70,"Velocity":58,"Duration":64725,"SoundDuration":64725,"Delta":347712087},{"NoteNumber":55,"Velocity":56,"Duration":194175,"SoundDuration":194175,"Delta":347712087},{"NoteNumber":68,"Velocity":58,"Duration":64725,"SoundDuration":64725,"Delta":347776812},{"NoteNumber":67,"Velocity":55,"Duration":64725,"SoundDuration":64725,"Delta":347841537},{"NoteNumber":67,"Velocity":70,"Duration":785227,"SoundDuration":785227,"Delta":347906262},{"NoteNumber":47,"Velocity":64,"Duration":202702,"SoundDuration":202702,"Delta":347906262},{"NoteNumber":79,"Velocity":63,"Duration":194174,"SoundDuration":194174,"Delta":348108964},{"NoteNumber":74,"Velocity":63,"Duration":388350,"SoundDuration":388350,"Delta":348108964},{"NoteNumber":62,"Velocity":56,"Duration":194174,"SoundDuration":194174,"Delta":348108964},{"NoteNumber":77,"Velocity":63,"Duration":194175,"SoundDuration":194175,"Delta":348303139},{"NoteNumber":55,"Velocity":56,"Duration":194175,"SoundDuration":194175,"Delta":348303139},{"NoteNumber":72,"Velocity":71,"Duration":194174,"SoundDuration":194174,"Delta":348497314},{"NoteNumber":75,"Velocity":71,"Duration":194174,"SoundDuration":194174,"Delta":348497314},{"NoteNumber":48,"Velocity":65,"Duration":194174,"SoundDuration":194174,"Delta":348497314},{"NoteNumber":78,"Velocity":57,"Duration":95237,"SoundDuration":95237,"Delta":348691489},{"NoteNumber":63,"Velocity":56,"Duration":190475,"SoundDuration":190475,"Delta":348691489},{"NoteNumber":79,"Velocity":57,"Duration":95237,"SoundDuration":95237,"Delta":348786727},{"NoteNumber":82,"Velocity":57,"Duration":63491,"SoundDuration":63491,"Delta":348881965},{"NoteNumber":55,"Velocity":56,"Duration":190475,"SoundDuration":190475,"Delta":348881965},{"NoteNumber":80,"Velocity":57,"Duration":63491,"SoundDuration":63491,"Delta":348945457},{"NoteNumber":79,"Velocity":54,"Duration":63491,"SoundDuration":63491,"Delta":349008949},{"NoteNumber":79,"Velocity":71,"Duration":762893,"SoundDuration":762893,"Delta":349072441},{"NoteNumber":50,"Velocity":65,"Duration":197368,"SoundDuration":197368,"Delta":349072441},{"NoteNumber":91,"Velocity":63,"Duration":186915,"SoundDuration":186915,"Delta":349269810},{"NoteNumber":83,"Velocity":63,"Duration":373831,"SoundDuration":373831,"Delta":349269810},{"NoteNumber":65,"Velocity":54,"Duration":186915,"SoundDuration":186915,"Delta":349269810},{"NoteNumber":89,"Velocity":63,"Duration":186915,"SoundDuration":186915,"Delta":349456726},{"NoteNumber":55,"Velocity":54,"Duration":186915,"SoundDuration":186915,"Delta":349456726},{"NoteNumber":59,"Velocity":54,"Duration":186915,"SoundDuration":186915,"Delta":349456726},{"NoteNumber":84,"Velocity":71,"Duration":191693,"SoundDuration":191693,"Delta":349643642},{"NoteNumber":87,"Velocity":71,"Duration":191693,"SoundDuration":191693,"Delta":349643642},{"NoteNumber":51,"Velocity":66,"Duration":191693,"SoundDuration":191693,"Delta":349643642},{"NoteNumber":78,"Velocity":59,"Duration":92592,"SoundDuration":92592,"Delta":349835335},{"NoteNumber":67,"Velocity":54,"Duration":185184,"SoundDuration":185184,"Delta":349835335},{"NoteNumber":79,"Velocity":56,"Duration":92592,"SoundDuration":92592,"Delta":349927928},{"NoteNumber":82,"Velocity":59,"Duration":61728,"SoundDuration":61728,"Delta":350020520},{"NoteNumber":55,"Velocity":54,"Duration":185184,"SoundDuration":185184,"Delta":350020520},{"NoteNumber":60,"Velocity":54,"Duration":185184,"SoundDuration":185184,"Delta":350020520},{"NoteNumber":80,"Velocity":59,"Duration":61728,"SoundDuration":61728,"Delta":350082249},{"NoteNumber":79,"Velocity":55,"Duration":61728,"SoundDuration":61728,"Delta":350143977},{"NoteNumber":79,"Velocity":70,"Duration":555620,"SoundDuration":555620,"Delta":350205705},{"NoteNumber":53,"Velocity":64,"Duration":555620,"SoundDuration":555620,"Delta":350205705},{"NoteNumber":75,"Velocity":64,"Duration":180723,"SoundDuration":180723,"Delta":350399880},{"NoteNumber":87,"Velocity":64,"Duration":180723,"SoundDuration":180723,"Delta":350399880},{"NoteNumber":67,"Velocity":54,"Duration":180723,"SoundDuration":180723,"Delta":350399880},{"NoteNumber":74,"Velocity":64,"Duration":180723,"SoundDuration":180723,"Delta":350580603},{"NoteNumber":86,"Velocity":64,"Duration":180723,"SoundDuration":180723,"Delta":350580603},{"NoteNumber":55,"Velocity":54,"Duration":180723,"SoundDuration":180723,"Delta":350580603},{"NoteNumber":59,"Velocity":54,"Duration":180723,"SoundDuration":180723,"Delta":350580603},{"NoteNumber":79,"Velocity":70,"Duration":199999,"SoundDuration":199999,"Delta":350761326},{"NoteNumber":72,"Velocity":70,"Duration":199999,"SoundDuration":199999,"Delta":350761326},{"NoteNumber":84,"Velocity":70,"Duration":199999,"SoundDuration":199999,"Delta":350761326},{"NoteNumber":51,"Velocity":63,"Duration":637955,"SoundDuration":637955,"Delta":350761326},{"NoteNumber":66,"Velocity":59,"Duration":109488,"SoundDuration":109488,"Delta":350961326},{"NoteNumber":63,"Velocity":52,"Duration":218977,"SoundDuration":218977,"Delta":350961326},{"NoteNumber":67,"Velocity":55,"Duration":109488,"SoundDuration":109488,"Delta":351070815},{"NoteNumber":70,"Velocity":59,"Duration":72992,"SoundDuration":72992,"Delta":351180304},{"NoteNumber":55,"Velocity":52,"Duration":218977,"SoundDuration":218977,"Delta":351180304},{"NoteNumber":60,"Velocity":52,"Duration":218977,"SoundDuration":218977,"Delta":351180304},{"NoteNumber":68,"Velocity":59,"Duration":72992,"SoundDuration":72992,"Delta":351253297},{"NoteNumber":67,"Velocity":56,"Duration":72992,"SoundDuration":72992,"Delta":351326290},{"NoteNumber":67,"Velocity":71,"Duration":962465,"SoundDuration":962465,"Delta":351399282},{"NoteNumber":50,"Velocity":58,"Duration":713503,"SoundDuration":713503,"Delta":351399282},{"NoteNumber":79,"Velocity":56,"Duration":235294,"SoundDuration":235294,"Delta":351642197},{"NoteNumber":71,"Velocity":56,"Duration":470588,"SoundDuration":470588,"Delta":351642197},{"NoteNumber":62,"Velocity":51,"Duration":235294,"SoundDuration":235294,"Delta":351642197},{"NoteNumber":77,"Velocity":55,"Duration":235294,"SoundDuration":235294,"Delta":351877491},{"NoteNumber":55,"Velocity":51,"Duration":235294,"SoundDuration":235294,"Delta":351877491},{"NoteNumber":72,"Velocity":60,"Duration":248962,"SoundDuration":248962,"Delta":352112785},{"NoteNumber":75,"Velocity":60,"Duration":248962,"SoundDuration":248962,"Delta":352112785},{"NoteNumber":48,"Velocity":57,"Duration":723270,"SoundDuration":723270,"Delta":352112785},{"NoteNumber":62,"Velocity":53,"Duration":118577,"SoundDuration":118577,"Delta":352361748},{"NoteNumber":60,"Velocity":49,"Duration":237153,"SoundDuration":237153,"Delta":352361748},{"NoteNumber":63,"Velocity":53,"Duration":118576,"SoundDuration":118576,"Delta":352480325},{"NoteNumber":67,"Velocity":53,"Duration":79051,"SoundDuration":79051,"Delta":352598902},{"NoteNumber":51,"Velocity":49,"Duration":237154,"SoundDuration":237154,"Delta":352598902},{"NoteNumber":55,"Velocity":49,"Duration":237154,"SoundDuration":237154,"Delta":352598902},{"NoteNumber":65,"Velocity":53,"Duration":79051,"SoundDuration":79051,"Delta":352677953},{"NoteNumber":63,"Velocity":50,"Duration":79051,"SoundDuration":79051,"Delta":352757004},{"NoteNumber":63,"Velocity":61,"Duration":911040,"SoundDuration":911040,"Delta":352836056},{"NoteNumber":46,"Velocity":55,"Duration":683768,"SoundDuration":683768,"Delta":352836056},{"NoteNumber":75,"Velocity":58,"Duration":221402,"SoundDuration":221402,"Delta":353077020},{"NoteNumber":67,"Velocity":58,"Duration":442804,"SoundDuration":442804,"Delta":353077020},{"NoteNumber":61,"Velocity":50,"Duration":221402,"SoundDuration":221402,"Delta":353077020},{"NoteNumber":73,"Velocity":56,"Duration":221402,"SoundDuration":221402,"Delta":353298422},{"NoteNumber":51,"Velocity":50,"Duration":221402,"SoundDuration":221402,"Delta":353298422},{"NoteNumber":55,"Velocity":50,"Duration":221402,"SoundDuration":221402,"Delta":353298422},{"NoteNumber":68,"Velocity":63,"Duration":227272,"SoundDuration":227272,"Delta":353519824},{"NoteNumber":71,"Velocity":63,"Duration":227272,"SoundDuration":227272,"Delta":353519824},{"NoteNumber":44,"Velocity":56,"Duration":227272,"SoundDuration":227272,"Delta":353519824},{"NoteNumber":74,"Velocity":54,"Duration":105263,"SoundDuration":105263,"Delta":353747096},{"NoteNumber":59,"Velocity":50,"Duration":210526,"SoundDuration":210526,"Delta":353747096},{"NoteNumber":75,"Velocity":51,"Duration":105263,"SoundDuration":105263,"Delta":353852360},{"NoteNumber":78,"Velocity":54,"Duration":70175,"SoundDuration":70175,"Delta":353957623},{"NoteNumber":51,"Velocity":50,"Duration":210526,"SoundDuration":210526,"Delta":353957623},{"NoteNumber":56,"Velocity":50,"Duration":210526,"SoundDuration":210526,"Delta":353957623},{"NoteNumber":76,"Velocity":54,"Duration":70175,"SoundDuration":70175,"Delta":354027798},{"NoteNumber":75,"Velocity":51,"Duration":70175,"SoundDuration":70175,"Delta":354097974},{"NoteNumber":75,"Velocity":62,"Duration":778191,"SoundDuration":778191,"Delta":354168149},{"NoteNumber":43,"Velocity":57,"Duration":199999,"SoundDuration":199999,"Delta":354168149},{"NoteNumber":87,"Velocity":58,"Duration":191693,"SoundDuration":191693,"Delta":354368149},{"NoteNumber":82,"Velocity":58,"Duration":383387,"SoundDuration":383387,"Delta":354368149},{"NoteNumber":63,"Velocity":52,"Duration":191693,"SoundDuration":191693,"Delta":354368149},{"NoteNumber":85,"Velocity":59,"Duration":191693,"SoundDuration":191693,"Delta":354559843},{"NoteNumber":51,"Velocity":52,"Duration":191693,"SoundDuration":191693,"Delta":354559843},{"NoteNumber":58,"Velocity":52,"Duration":191693,"SoundDuration":191693,"Delta":354559843},{"NoteNumber":80,"Velocity":67,"Duration":194804,"SoundDuration":194804,"Delta":354751536},{"NoteNumber":83,"Velocity":67,"Duration":194804,"SoundDuration":194804,"Delta":354751536},{"NoteNumber":44,"Velocity":59,"Duration":194804,"SoundDuration":194804,"Delta":354751536},{"NoteNumber":74,"Velocity":59,"Duration":94637,"SoundDuration":94637,"Delta":354946341},{"NoteNumber":63,"Velocity":53,"Duration":189274,"SoundDuration":189274,"Delta":354946341},{"NoteNumber":75,"Velocity":56,"Duration":94637,"SoundDuration":94637,"Delta":355040979},{"NoteNumber":78,"Velocity":59,"Duration":63091,"SoundDuration":63091,"Delta":355135616},{"NoteNumber":51,"Velocity":53,"Duration":189274,"SoundDuration":189274,"Delta":355135616},{"NoteNumber":56,"Velocity":53,"Duration":189274,"SoundDuration":189274,"Delta":355135616},{"NoteNumber":59,"Velocity":53,"Duration":189274,"SoundDuration":189274,"Delta":355135616},{"NoteNumber":76,"Velocity":59,"Duration":63091,"SoundDuration":63091,"Delta":355198707},{"NoteNumber":75,"Velocity":55,"Duration":57570,"SoundDuration":57570,"Delta":355261799},{"NoteNumber":75,"Velocity":68,"Duration":573436,"SoundDuration":573436,"Delta":355324890},{"NoteNumber":46,"Velocity":64,"Duration":196078,"SoundDuration":196078,"Delta":355324890},{"NoteNumber":71,"Velocity":63,"Duration":188678,"SoundDuration":188678,"Delta":355520969},{"NoteNumber":83,"Velocity":63,"Duration":188678,"SoundDuration":188678,"Delta":355520969},{"NoteNumber":63,"Velocity":54,"Duration":188678,"SoundDuration":188678,"Delta":355520969},{"NoteNumber":70,"Velocity":63,"Duration":188679,"SoundDuration":188679,"Delta":355709648},{"NoteNumber":82,"Velocity":63,"Duration":188679,"SoundDuration":188679,"Delta":355709648},{"NoteNumber":51,"Velocity":54,"Duration":188679,"SoundDuration":188679,"Delta":355709648},{"NoteNumber":55,"Velocity":54,"Duration":188679,"SoundDuration":188679,"Delta":355709648},{"NoteNumber":61,"Velocity":54,"Duration":188679,"SoundDuration":188679,"Delta":355709648},{"NoteNumber":75,"Velocity":69,"Duration":202702,"SoundDuration":202702,"Delta":355898327},{"NoteNumber":68,"Velocity":69,"Duration":202702,"SoundDuration":202702,"Delta":355898327},{"NoteNumber":80,"Velocity":69,"Duration":202702,"SoundDuration":202702,"Delta":355898327},{"NoteNumber":47,"Velocity":66,"Duration":202702,"SoundDuration":202702,"Delta":355898327},{"NoteNumber":74,"Velocity":60,"Duration":98684,"SoundDuration":98684,"Delta":356101029},{"NoteNumber":63,"Velocity":57,"Duration":197368,"SoundDuration":197368,"Delta":356101029},{"NoteNumber":75,"Velocity":56,"Duration":98684,"SoundDuration":98684,"Delta":356199714},{"NoteNumber":78,"Velocity":60,"Duration":65789,"SoundDuration":65789,"Delta":356298398},{"NoteNumber":51,"Velocity":57,"Duration":197368,"SoundDuration":197368,"Delta":356298398},{"NoteNumber":56,"Velocity":57,"Duration":197368,"SoundDuration":197368,"Delta":356298398},{"NoteNumber":59,"Velocity":57,"Duration":197368,"SoundDuration":197368,"Delta":356298398},{"NoteNumber":76,"Velocity":60,"Duration":65789,"SoundDuration":65789,"Delta":356364187},{"NoteNumber":75,"Velocity":56,"Duration":58388,"SoundDuration":58388,"Delta":356429977},{"NoteNumber":75,"Velocity":74,"Duration":760685,"SoundDuration":760685,"Delta":356495766},{"NoteNumber":43,"Velocity":68,"Duration":191693,"SoundDuration":191693,"Delta":356495766},{"NoteNumber":87,"Velocity":65,"Duration":183486,"SoundDuration":183486,"Delta":356687460},{"NoteNumber":82,"Velocity":65,"Duration":366971,"SoundDuration":366971,"Delta":356687460},{"NoteNumber":63,"Velocity":60,"Duration":183486,"SoundDuration":183486,"Delta":356687460},{"NoteNumber":85,"Velocity":65,"Duration":183485,"SoundDuration":183485,"Delta":356870946},{"NoteNumber":51,"Velocity":60,"Duration":183485,"SoundDuration":183485,"Delta":356870946},{"NoteNumber":58,"Velocity":60,"Duration":183485,"SoundDuration":183485,"Delta":356870946},{"NoteNumber":80,"Velocity":76,"Duration":202020,"SoundDuration":202020,"Delta":357054432},{"NoteNumber":83,"Velocity":76,"Duration":202020,"SoundDuration":202020,"Delta":357054432},{"NoteNumber":44,"Velocity":70,"Duration":202020,"SoundDuration":202020,"Delta":357054432},{"NoteNumber":74,"Velocity":66,"Duration":105263,"SoundDuration":105263,"Delta":357256452},{"NoteNumber":63,"Velocity":60,"Duration":210526,"SoundDuration":210526,"Delta":357256452},{"NoteNumber":75,"Velocity":61,"Duration":105263,"SoundDuration":105263,"Delta":357361715},{"NoteNumber":78,"Velocity":66,"Duration":70175,"SoundDuration":70175,"Delta":357466978},{"NoteNumber":51,"Velocity":60,"Duration":210526,"SoundDuration":210526,"Delta":357466978},{"NoteNumber":56,"Velocity":60,"Duration":210526,"SoundDuration":210526,"Delta":357466978},{"NoteNumber":59,"Velocity":60,"Duration":210526,"SoundDuration":210526,"Delta":357466978},{"NoteNumber":76,"Velocity":66,"Duration":70175,"SoundDuration":70175,"Delta":357537154},{"NoteNumber":75,"Velocity":61,"Duration":64912,"SoundDuration":64912,"Delta":357607329},{"NoteNumber":75,"Velocity":82,"Duration":720205,"SoundDuration":720205,"Delta":357677505},{"NoteNumber":46,"Velocity":72,"Duration":234375,"SoundDuration":234375,"Delta":357677505},{"NoteNumber":71,"Velocity":73,"Duration":242914,"SoundDuration":242914,"Delta":357911880},{"NoteNumber":83,"Velocity":73,"Duration":242914,"SoundDuration":242914,"Delta":357911880},{"NoteNumber":63,"Velocity":67,"Duration":242914,"SoundDuration":242914,"Delta":357911880},{"NoteNumber":70,"Velocity":73,"Duration":242915,"SoundDuration":242915,"Delta":358154795},{"NoteNumber":82,"Velocity":73,"Duration":242915,"SoundDuration":242915,"Delta":358154795},{"NoteNumber":51,"Velocity":72,"Duration":242915,"SoundDuration":242915,"Delta":358154795},{"NoteNumber":55,"Velocity":72,"Duration":242915,"SoundDuration":242915,"Delta":358154795},{"NoteNumber":61,"Velocity":72,"Duration":242915,"SoundDuration":242915,"Delta":358154795},{"NoteNumber":76,"Velocity":87,"Duration":242914,"SoundDuration":242914,"Delta":358397710},{"NoteNumber":68,"Velocity":73,"Duration":242914,"SoundDuration":242914,"Delta":358397710},{"NoteNumber":80,"Velocity":87,"Duration":242914,"SoundDuration":242914,"Delta":358397710},{"NoteNumber":35,"Velocity":86,"Duration":121457,"SoundDuration":121457,"Delta":358397710},{"NoteNumber":47,"Velocity":86,"Duration":121457,"SoundDuration":121457,"Delta":358397710},{"NoteNumber":64,"Velocity":50,"Duration":242915,"SoundDuration":242915,"Delta":358883540},{"NoteNumber":56,"Velocity":50,"Duration":242915,"SoundDuration":242915,"Delta":358883540},{"NoteNumber":80,"Velocity":70,"Duration":60728,"SoundDuration":60728,"Delta":359065726},{"NoteNumber":92,"Velocity":95,"Duration":300000,"SoundDuration":300000,"Delta":359126455},{"NoteNumber":71,"Velocity":62,"Duration":300000,"SoundDuration":300000,"Delta":359126455},{"NoteNumber":59,"Velocity":62,"Duration":300000,"SoundDuration":300000,"Delta":359126455},{"NoteNumber":90,"Velocity":81,"Duration":88495,"SoundDuration":88495,"Delta":359426455},{"NoteNumber":88,"Velocity":76,"Duration":88495,"SoundDuration":88495,"Delta":359514950},{"NoteNumber":83,"Velocity":79,"Duration":88495,"SoundDuration":88495,"Delta":359603446},{"NoteNumber":56,"Velocity":51,"Duration":176990,"SoundDuration":176990,"Delta":359603446},{"NoteNumber":64,"Velocity":51,"Duration":176990,"SoundDuration":176990,"Delta":359603446},{"NoteNumber":80,"Velocity":72,"Duration":88495,"SoundDuration":88495,"Delta":359691941},{"NoteNumber":78,"Velocity":76,"Duration":88495,"SoundDuration":88495,"Delta":359780437},{"NoteNumber":59,"Velocity":61,"Duration":176991,"SoundDuration":176991,"Delta":359780437},{"NoteNumber":71,"Velocity":61,"Duration":176991,"SoundDuration":176991,"Delta":359780437},{"NoteNumber":76,"Velocity":71,"Duration":88495,"SoundDuration":88495,"Delta":359868932},{"NoteNumber":71,"Velocity":74,"Duration":88495,"SoundDuration":88495,"Delta":359957428},{"NoteNumber":68,"Velocity":68,"Duration":88495,"SoundDuration":88495,"Delta":360045923},{"NoteNumber":66,"Velocity":71,"Duration":88495,"SoundDuration":88495,"Delta":360134419},{"NoteNumber":64,"Velocity":66,"Duration":88495,"SoundDuration":88495,"Delta":360222914},{"NoteNumber":59,"Velocity":69,"Duration":176990,"SoundDuration":176990,"Delta":360311410},{"NoteNumber":75,"Velocity":55,"Duration":88845,"SoundDuration":88845,"Delta":360842383},{"NoteNumber":35,"Velocity":40,"Duration":88845,"SoundDuration":88845,"Delta":360842383},{"NoteNumber":47,"Velocity":40,"Duration":88845,"SoundDuration":88845,"Delta":360842383},{"NoteNumber":76,"Velocity":52,"Duration":89197,"SoundDuration":89197,"Delta":360931228},{"NoteNumber":78,"Velocity":50,"Duration":89641,"SoundDuration":89641,"Delta":361020425},{"NoteNumber":80,"Velocity":44,"Duration":90000,"SoundDuration":90000,"Delta":361110067},{"NoteNumber":81,"Velocity":45,"Duration":90452,"SoundDuration":90452,"Delta":361200067},{"NoteNumber":83,"Velocity":42,"Duration":90845,"SoundDuration":90845,"Delta":361290520},{"NoteNumber":84,"Velocity":40,"Duration":218182,"SoundDuration":218182,"Delta":361381365},{"NoteNumber":63,"Velocity":38,"Duration":218182,"SoundDuration":218182,"Delta":361381365},{"NoteNumber":66,"Velocity":38,"Duration":218182,"SoundDuration":218182,"Delta":361381365},{"NoteNumber":57,"Velocity":38,"Duration":218182,"SoundDuration":218182,"Delta":361381365},{"NoteNumber":60,"Velocity":38,"Duration":218182,"SoundDuration":218182,"Delta":361381365},{"NoteNumber":60,"Velocity":44,"Duration":197368,"SoundDuration":197368,"Delta":361599547},{"NoteNumber":57,"Velocity":44,"Duration":197368,"SoundDuration":197368,"Delta":361599547},{"NoteNumber":63,"Velocity":44,"Duration":197368,"SoundDuration":197368,"Delta":361599547},{"NoteNumber":68,"Velocity":44,"Duration":197368,"SoundDuration":197368,"Delta":361599547},{"NoteNumber":63,"Velocity":42,"Duration":197368,"SoundDuration":197368,"Delta":361796915},{"NoteNumber":66,"Velocity":42,"Duration":197368,"SoundDuration":197368,"Delta":361796915},{"NoteNumber":57,"Velocity":42,"Duration":197368,"SoundDuration":197368,"Delta":361796915},{"NoteNumber":60,"Velocity":42,"Duration":197368,"SoundDuration":197368,"Delta":361796915},{"NoteNumber":84,"Velocity":50,"Duration":87976,"SoundDuration":87976,"Delta":361994284},{"NoteNumber":66,"Velocity":39,"Duration":87976,"SoundDuration":87976,"Delta":361994284},{"NoteNumber":63,"Velocity":39,"Duration":87976,"SoundDuration":87976,"Delta":361994284},{"NoteNumber":60,"Velocity":39,"Duration":87976,"SoundDuration":87976,"Delta":361994284},{"NoteNumber":57,"Velocity":39,"Duration":87976,"SoundDuration":87976,"Delta":361994284},{"NoteNumber":83,"Velocity":46,"Duration":87976,"SoundDuration":87976,"Delta":362082260},{"NoteNumber":81,"Velocity":47,"Duration":87976,"SoundDuration":87976,"Delta":362170237},{"NoteNumber":80,"Velocity":43,"Duration":87976,"SoundDuration":87976,"Delta":362258213},{"NoteNumber":78,"Velocity":44,"Duration":87976,"SoundDuration":87976,"Delta":362346190},{"NoteNumber":76,"Velocity":42,"Duration":88123,"SoundDuration":88123,"Delta":362434166},{"NoteNumber":75,"Velocity":41,"Duration":208333,"SoundDuration":208333,"Delta":362522289},{"NoteNumber":35,"Velocity":53,"Duration":208333,"SoundDuration":208333,"Delta":362522289},{"NoteNumber":47,"Velocity":53,"Duration":208333,"SoundDuration":208333,"Delta":362522289},{"NoteNumber":45,"Velocity":49,"Duration":195439,"SoundDuration":195439,"Delta":362730623},{"NoteNumber":33,"Velocity":49,"Duration":195439,"SoundDuration":195439,"Delta":362730623},{"NoteNumber":36,"Velocity":53,"Duration":195439,"SoundDuration":195439,"Delta":362926062},{"NoteNumber":48,"Velocity":53,"Duration":195439,"SoundDuration":195439,"Delta":362926062},{"NoteNumber":80,"Velocity":81,"Duration":48859,"SoundDuration":48859,"Delta":363072642},{"NoteNumber":92,"Velocity":115,"Duration":748835,"SoundDuration":748835,"Delta":363121502},{"NoteNumber":35,"Velocity":52,"Duration":93457,"SoundDuration":93457,"Delta":363121502},{"NoteNumber":47,"Velocity":52,"Duration":93457,"SoundDuration":93457,"Delta":363121502},{"NoteNumber":64,"Velocity":45,"Duration":186915,"SoundDuration":186915,"Delta":363308418},{"NoteNumber":56,"Velocity":45,"Duration":186915,"SoundDuration":186915,"Delta":363308418},{"NoteNumber":64,"Velocity":45,"Duration":186915,"SoundDuration":186915,"Delta":363495334},{"NoteNumber":56,"Velocity":45,"Duration":186915,"SoundDuration":186915,"Delta":363495334},{"NoteNumber":71,"Velocity":51,"Duration":274294,"SoundDuration":274294,"Delta":363682250},{"NoteNumber":59,"Velocity":51,"Duration":274294,"SoundDuration":274294,"Delta":363682250},{"NoteNumber":90,"Velocity":81,"Duration":86207,"SoundDuration":86207,"Delta":363870338},{"NoteNumber":88,"Velocity":73,"Duration":86207,"SoundDuration":86207,"Delta":363956545},{"NoteNumber":64,"Velocity":45,"Duration":86207,"SoundDuration":86207,"Delta":363956545},{"NoteNumber":56,"Velocity":45,"Duration":86207,"SoundDuration":86207,"Delta":363956545},{"NoteNumber":83,"Velocity":79,"Duration":86207,"SoundDuration":86207,"Delta":364042752},{"NoteNumber":56,"Velocity":45,"Duration":172414,"SoundDuration":172414,"Delta":364042752},{"NoteNumber":64,"Velocity":45,"Duration":172414,"SoundDuration":172414,"Delta":364042752},{"NoteNumber":80,"Velocity":73,"Duration":86207,"SoundDuration":86207,"Delta":364128959},{"NoteNumber":78,"Velocity":76,"Duration":86207,"SoundDuration":86207,"Delta":364215166},{"NoteNumber":59,"Velocity":52,"Duration":172414,"SoundDuration":172414,"Delta":364215166},{"NoteNumber":71,"Velocity":52,"Duration":172414,"SoundDuration":172414,"Delta":364215166},{"NoteNumber":76,"Velocity":70,"Duration":86207,"SoundDuration":86207,"Delta":364301373},{"NoteNumber":71,"Velocity":74,"Duration":86207,"SoundDuration":86207,"Delta":364387580},{"NoteNumber":68,"Velocity":69,"Duration":86207,"SoundDuration":86207,"Delta":364473787},{"NoteNumber":66,"Velocity":71,"Duration":86207,"SoundDuration":86207,"Delta":364559994},{"NoteNumber":64,"Velocity":70,"Duration":86207,"SoundDuration":86207,"Delta":364646201},{"NoteNumber":59,"Velocity":69,"Duration":169014,"SoundDuration":169014,"Delta":364732408},{"NoteNumber":77,"Velocity":57,"Duration":83798,"SoundDuration":83798,"Delta":365239450},{"NoteNumber":38,"Velocity":40,"Duration":83798,"SoundDuration":83798,"Delta":365239450},{"NoteNumber":50,"Velocity":40,"Duration":83798,"SoundDuration":83798,"Delta":365239450},{"NoteNumber":78,"Velocity":55,"Duration":83798,"SoundDuration":83798,"Delta":365323249},{"NoteNumber":80,"Velocity":53,"Duration":83798,"SoundDuration":83798,"Delta":365407048},{"NoteNumber":81,"Velocity":52,"Duration":83798,"SoundDuration":83798,"Delta":365490847},{"NoteNumber":83,"Velocity":50,"Duration":83798,"SoundDuration":83798,"Delta":365574646},{"NoteNumber":85,"Velocity":48,"Duration":84537,"SoundDuration":84537,"Delta":365658445},{"NoteNumber":86,"Velocity":46,"Duration":179104,"SoundDuration":179104,"Delta":365742983},{"NoteNumber":66,"Velocity":38,"Duration":179104,"SoundDuration":179104,"Delta":365742983},{"NoteNumber":68,"Velocity":38,"Duration":179104,"SoundDuration":179104,"Delta":365742983},{"NoteNumber":59,"Velocity":38,"Duration":179104,"SoundDuration":179104,"Delta":365742983},{"NoteNumber":59,"Velocity":44,"Duration":174927,"SoundDuration":174927,"Delta":365922087},{"NoteNumber":66,"Velocity":44,"Duration":174927,"SoundDuration":174927,"Delta":365922087},{"NoteNumber":69,"Velocity":44,"Duration":174927,"SoundDuration":174927,"Delta":365922087},{"NoteNumber":66,"Velocity":42,"Duration":174926,"SoundDuration":174926,"Delta":366097014},{"NoteNumber":68,"Velocity":42,"Duration":174926,"SoundDuration":174926,"Delta":366097014},{"NoteNumber":59,"Velocity":42,"Duration":174926,"SoundDuration":174926,"Delta":366097014},{"NoteNumber":86,"Velocity":56,"Duration":83798,"SoundDuration":83798,"Delta":366271941},{"NoteNumber":68,"Velocity":39,"Duration":83798,"SoundDuration":83798,"Delta":366271941},{"NoteNumber":65,"Velocity":39,"Duration":83798,"SoundDuration":83798,"Delta":366271941},{"NoteNumber":59,"Velocity":39,"Duration":83798,"SoundDuration":83798,"Delta":366271941},{"NoteNumber":85,"Velocity":54,"Duration":83798,"SoundDuration":83798,"Delta":366355740},{"NoteNumber":83,"Velocity":53,"Duration":83798,"SoundDuration":83798,"Delta":366439539},{"NoteNumber":81,"Velocity":52,"Duration":83798,"SoundDuration":83798,"Delta":366523338},{"NoteNumber":80,"Velocity":51,"Duration":83798,"SoundDuration":83798,"Delta":366607137},{"NoteNumber":78,"Velocity":50,"Duration":84216,"SoundDuration":84216,"Delta":366690936},{"NoteNumber":77,"Velocity":48,"Duration":179104,"SoundDuration":179104,"Delta":366775153},{"NoteNumber":38,"Velocity":53,"Duration":179104,"SoundDuration":179104,"Delta":366775153},{"NoteNumber":50,"Velocity":53,"Duration":179104,"SoundDuration":179104,"Delta":366775153},{"NoteNumber":48,"Velocity":53,"Duration":173410,"SoundDuration":173410,"Delta":366954257},{"NoteNumber":36,"Velocity":53,"Duration":173410,"SoundDuration":173410,"Delta":366954257},{"NoteNumber":37,"Velocity":53,"Duration":173410,"SoundDuration":173410,"Delta":367127668},{"NoteNumber":49,"Velocity":53,"Duration":173410,"SoundDuration":173410,"Delta":367127668},{"NoteNumber":79,"Velocity":66,"Duration":83798,"SoundDuration":83798,"Delta":367301078},{"NoteNumber":40,"Velocity":47,"Duration":83798,"SoundDuration":83798,"Delta":367301078},{"NoteNumber":52,"Velocity":47,"Duration":83798,"SoundDuration":83798,"Delta":367301078},{"NoteNumber":80,"Velocity":65,"Duration":83798,"SoundDuration":83798,"Delta":367384877},{"NoteNumber":82,"Velocity":64,"Duration":83798,"SoundDuration":83798,"Delta":367468676},{"NoteNumber":83,"Velocity":63,"Duration":83798,"SoundDuration":83798,"Delta":367552475},{"NoteNumber":85,"Velocity":62,"Duration":83798,"SoundDuration":83798,"Delta":367636274},{"NoteNumber":87,"Velocity":61,"Duration":84537,"SoundDuration":84537,"Delta":367720073},{"NoteNumber":88,"Velocity":60,"Duration":176990,"SoundDuration":176990,"Delta":367804611},{"NoteNumber":68,"Velocity":48,"Duration":176990,"SoundDuration":176990,"Delta":367804611},{"NoteNumber":70,"Velocity":48,"Duration":176990,"SoundDuration":176990,"Delta":367804611},{"NoteNumber":61,"Velocity":48,"Duration":176990,"SoundDuration":176990,"Delta":367804611},{"NoteNumber":61,"Velocity":53,"Duration":172910,"SoundDuration":172910,"Delta":367981602},{"NoteNumber":68,"Velocity":53,"Duration":172910,"SoundDuration":172910,"Delta":367981602},{"NoteNumber":71,"Velocity":53,"Duration":172910,"SoundDuration":172910,"Delta":367981602},{"NoteNumber":68,"Velocity":51,"Duration":172910,"SoundDuration":172910,"Delta":368154512},{"NoteNumber":70,"Velocity":51,"Duration":172910,"SoundDuration":172910,"Delta":368154512},{"NoteNumber":61,"Velocity":51,"Duration":172910,"SoundDuration":172910,"Delta":368154512},{"NoteNumber":88,"Velocity":65,"Duration":83565,"SoundDuration":83565,"Delta":368327423},{"NoteNumber":70,"Velocity":49,"Duration":83565,"SoundDuration":83565,"Delta":368327423},{"NoteNumber":67,"Velocity":49,"Duration":83565,"SoundDuration":83565,"Delta":368327423},{"NoteNumber":61,"Velocity":49,"Duration":83565,"SoundDuration":83565,"Delta":368327423},{"NoteNumber":87,"Velocity":64,"Duration":83565,"SoundDuration":83565,"Delta":368410988},{"NoteNumber":85,"Velocity":62,"Duration":83565,"SoundDuration":83565,"Delta":368494554},{"NoteNumber":83,"Velocity":61,"Duration":83565,"SoundDuration":83565,"Delta":368578119},{"NoteNumber":82,"Velocity":59,"Duration":83565,"SoundDuration":83565,"Delta":368661685},{"NoteNumber":80,"Velocity":58,"Duration":84006,"SoundDuration":84006,"Delta":368745250},{"NoteNumber":79,"Velocity":56,"Duration":179104,"SoundDuration":179104,"Delta":368829257},{"NoteNumber":40,"Velocity":58,"Duration":179104,"SoundDuration":179104,"Delta":368829257},{"NoteNumber":52,"Velocity":58,"Duration":179104,"SoundDuration":179104,"Delta":368829257},{"NoteNumber":50,"Velocity":58,"Duration":173410,"SoundDuration":173410,"Delta":369008362},{"NoteNumber":38,"Velocity":58,"Duration":173410,"SoundDuration":173410,"Delta":369008362},{"NoteNumber":39,"Velocity":58,"Duration":173410,"SoundDuration":173410,"Delta":369181772},{"NoteNumber":51,"Velocity":58,"Duration":173410,"SoundDuration":173410,"Delta":369181772},{"NoteNumber":81,"Velocity":71,"Duration":84506,"SoundDuration":84506,"Delta":369355183},{"NoteNumber":42,"Velocity":55,"Duration":84506,"SoundDuration":84506,"Delta":369355183},{"NoteNumber":54,"Velocity":55,"Duration":84506,"SoundDuration":84506,"Delta":369355183},{"NoteNumber":82,"Velocity":72,"Duration":84507,"SoundDuration":84507,"Delta":369439690},{"NoteNumber":84,"Velocity":73,"Duration":84506,"SoundDuration":84506,"Delta":369524197},{"NoteNumber":85,"Velocity":75,"Duration":84507,"SoundDuration":84507,"Delta":369608704},{"NoteNumber":87,"Velocity":76,"Duration":84506,"SoundDuration":84506,"Delta":369693211},{"NoteNumber":60,"Velocity":49,"Duration":169014,"SoundDuration":169014,"Delta":369693211},{"NoteNumber":63,"Velocity":49,"Duration":169014,"SoundDuration":169014,"Delta":369693211},{"NoteNumber":69,"Velocity":49,"Duration":169014,"SoundDuration":169014,"Delta":369693211},{"NoteNumber":89,"Velocity":77,"Duration":84507,"SoundDuration":84507,"Delta":369777718},{"NoteNumber":90,"Velocity":78,"Duration":84506,"SoundDuration":84506,"Delta":369862225},{"NoteNumber":63,"Velocity":54,"Duration":169014,"SoundDuration":169014,"Delta":369862225},{"NoteNumber":69,"Velocity":54,"Duration":169014,"SoundDuration":169014,"Delta":369862225},{"NoteNumber":75,"Velocity":54,"Duration":169014,"SoundDuration":169014,"Delta":369862225},{"NoteNumber":99,"Velocity":78,"Duration":84507,"SoundDuration":84507,"Delta":369946732},{"NoteNumber":90,"Velocity":77,"Duration":84506,"SoundDuration":84506,"Delta":370031239},{"NoteNumber":89,"Velocity":76,"Duration":84507,"SoundDuration":84507,"Delta":370115746},{"NoteNumber":87,"Velocity":75,"Duration":84506,"SoundDuration":84506,"Delta":370200253},{"NoteNumber":60,"Velocity":52,"Duration":169014,"SoundDuration":169014,"Delta":370200253},{"NoteNumber":63,"Velocity":52,"Duration":169014,"SoundDuration":169014,"Delta":370200253},{"NoteNumber":69,"Velocity":52,"Duration":169014,"SoundDuration":169014,"Delta":370200253},{"NoteNumber":85,"Velocity":75,"Duration":84507,"SoundDuration":84507,"Delta":370284760},{"NoteNumber":84,"Velocity":71,"Duration":84506,"SoundDuration":84506,"Delta":370369267},{"NoteNumber":63,"Velocity":56,"Duration":169013,"SoundDuration":169013,"Delta":370369267},{"NoteNumber":69,"Velocity":56,"Duration":169013,"SoundDuration":169013,"Delta":370369267},{"NoteNumber":75,"Velocity":56,"Duration":169013,"SoundDuration":169013,"Delta":370369267},{"NoteNumber":85,"Velocity":72,"Duration":84506,"SoundDuration":84506,"Delta":370453774},{"NoteNumber":86,"Velocity":73,"Duration":84507,"SoundDuration":84507,"Delta":370538281},{"NoteNumber":87,"Velocity":74,"Duration":84506,"SoundDuration":84506,"Delta":370622788},{"NoteNumber":88,"Velocity":76,"Duration":84507,"SoundDuration":84507,"Delta":370707295},{"NoteNumber":54,"Velocity":70,"Duration":160563,"SoundDuration":160563,"Delta":370707295},{"NoteNumber":66,"Velocity":70,"Duration":160563,"SoundDuration":160563,"Delta":370707295},{"NoteNumber":89,"Velocity":77,"Duration":84506,"SoundDuration":84506,"Delta":370791802},{"NoteNumber":90,"Velocity":78,"Duration":84507,"SoundDuration":84507,"Delta":370876309},{"NoteNumber":54,"Velocity":70,"Duration":160563,"SoundDuration":160563,"Delta":370876309},{"NoteNumber":66,"Velocity":70,"Duration":160563,"SoundDuration":160563,"Delta":370876309},{"NoteNumber":99,"Velocity":79,"Duration":84506,"SoundDuration":84506,"Delta":370960816},{"NoteNumber":90,"Velocity":80,"Duration":84507,"SoundDuration":84507,"Delta":371045323},{"NoteNumber":54,"Velocity":70,"Duration":160563,"SoundDuration":160563,"Delta":371045323},{"NoteNumber":66,"Velocity":70,"Duration":160563,"SoundDuration":160563,"Delta":371045323},{"NoteNumber":89,"Velocity":82,"Duration":84506,"SoundDuration":84506,"Delta":371129830},{"NoteNumber":87,"Velocity":83,"Duration":84507,"SoundDuration":84507,"Delta":371214337},{"NoteNumber":54,"Velocity":70,"Duration":160563,"SoundDuration":160563,"Delta":371214337},{"NoteNumber":66,"Velocity":70,"Duration":160563,"SoundDuration":160563,"Delta":371214337},{"NoteNumber":85,"Velocity":84,"Duration":84506,"SoundDuration":84506,"Delta":371298844},{"NoteNumber":84,"Velocity":85,"Duration":84507,"SoundDuration":84507,"Delta":371383351},{"NoteNumber":53,"Velocity":73,"Duration":169014,"SoundDuration":169014,"Delta":371383351},{"NoteNumber":60,"Velocity":73,"Duration":169014,"SoundDuration":169014,"Delta":371383351},{"NoteNumber":63,"Velocity":73,"Duration":169014,"SoundDuration":169014,"Delta":371383351},{"NoteNumber":69,"Velocity":73,"Duration":169014,"SoundDuration":169014,"Delta":371383351},{"NoteNumber":101,"Velocity":93,"Duration":80862,"SoundDuration":80862,"Delta":371552365},{"NoteNumber":100,"Velocity":83,"Duration":80862,"SoundDuration":80862,"Delta":371633227},{"NoteNumber":99,"Velocity":81,"Duration":80862,"SoundDuration":80862,"Delta":371714090},{"NoteNumber":96,"Velocity":78,"Duration":80862,"SoundDuration":80862,"Delta":371794952},{"NoteNumber":93,"Velocity":76,"Duration":161725,"SoundDuration":161725,"Delta":371875815},{"NoteNumber":89,"Velocity":89,"Duration":80862,"SoundDuration":80862,"Delta":371875815},{"NoteNumber":88,"Velocity":81,"Duration":80862,"SoundDuration":80862,"Delta":371956677},{"NoteNumber":87,"Velocity":79,"Duration":80862,"SoundDuration":80862,"Delta":372037540},{"NoteNumber":84,"Velocity":78,"Duration":80862,"SoundDuration":80862,"Delta":372118402},{"NoteNumber":77,"Velocity":90,"Duration":80862,"SoundDuration":80862,"Delta":372199265},{"NoteNumber":81,"Velocity":76,"Duration":161724,"SoundDuration":161724,"Delta":372199265},{"NoteNumber":76,"Velocity":82,"Duration":80862,"SoundDuration":80862,"Delta":372280127},{"NoteNumber":75,"Velocity":80,"Duration":80862,"SoundDuration":80862,"Delta":372360990},{"NoteNumber":72,"Velocity":78,"Duration":80862,"SoundDuration":80862,"Delta":372441852},{"NoteNumber":69,"Velocity":76,"Duration":161724,"SoundDuration":161724,"Delta":372522715},{"NoteNumber":65,"Velocity":88,"Duration":80862,"SoundDuration":80862,"Delta":372522715},{"NoteNumber":64,"Velocity":81,"Duration":80862,"SoundDuration":80862,"Delta":372603577},{"NoteNumber":63,"Velocity":79,"Duration":80862,"SoundDuration":80862,"Delta":372684440},{"NoteNumber":60,"Velocity":77,"Duration":80862,"SoundDuration":80862,"Delta":372765302},{"NoteNumber":53,"Velocity":90,"Duration":80862,"SoundDuration":80862,"Delta":372846165},{"NoteNumber":57,"Velocity":75,"Duration":161725,"SoundDuration":161725,"Delta":372846165},{"NoteNumber":52,"Velocity":84,"Duration":80862,"SoundDuration":80862,"Delta":372927027},{"NoteNumber":51,"Velocity":82,"Duration":80862,"SoundDuration":80862,"Delta":373007890},{"NoteNumber":48,"Velocity":80,"Duration":80862,"SoundDuration":80862,"Delta":373088752},{"NoteNumber":41,"Velocity":117,"Duration":182927,"SoundDuration":182927,"Delta":373169615},{"NoteNumber":85,"Velocity":89,"Duration":208333,"SoundDuration":208333,"Delta":373352542},{"NoteNumber":73,"Velocity":89,"Duration":208333,"SoundDuration":208333,"Delta":373352542},{"NoteNumber":34,"Velocity":100,"Duration":208333,"SoundDuration":208333,"Delta":373352542},{"NoteNumber":46,"Velocity":100,"Duration":208333,"SoundDuration":208333,"Delta":373352542},{"NoteNumber":76,"Velocity":74,"Duration":95541,"SoundDuration":95541,"Delta":373560875},{"NoteNumber":70,"Velocity":58,"Duration":191082,"SoundDuration":191082,"Delta":373560875},{"NoteNumber":58,"Velocity":58,"Duration":191082,"SoundDuration":191082,"Delta":373560875},{"NoteNumber":77,"Velocity":71,"Duration":95541,"SoundDuration":95541,"Delta":373656417},{"NoteNumber":80,"Velocity":74,"Duration":63694,"SoundDuration":63694,"Delta":373751958},{"NoteNumber":65,"Velocity":58,"Duration":191082,"SoundDuration":191082,"Delta":373751958},{"NoteNumber":61,"Velocity":58,"Duration":191082,"SoundDuration":191082,"Delta":373751958},{"NoteNumber":78,"Velocity":74,"Duration":63694,"SoundDuration":63694,"Delta":373815652},{"NoteNumber":77,"Velocity":71,"Duration":55732,"SoundDuration":55732,"Delta":373879347},{"NoteNumber":77,"Velocity":89,"Duration":206896,"SoundDuration":206896,"Delta":373943041},{"NoteNumber":44,"Velocity":81,"Duration":206896,"SoundDuration":206896,"Delta":373943041},{"NoteNumber":56,"Velocity":81,"Duration":206896,"SoundDuration":206896,"Delta":373943041},{"NoteNumber":88,"Velocity":81,"Duration":192307,"SoundDuration":192307,"Delta":374149938},{"NoteNumber":76,"Velocity":81,"Duration":192307,"SoundDuration":192307,"Delta":374149938},{"NoteNumber":68,"Velocity":58,"Duration":192307,"SoundDuration":192307,"Delta":374149938},{"NoteNumber":56,"Velocity":58,"Duration":192307,"SoundDuration":192307,"Delta":374149938},{"NoteNumber":77,"Velocity":81,"Duration":196078,"SoundDuration":196078,"Delta":374342245},{"NoteNumber":89,"Velocity":81,"Duration":196078,"SoundDuration":196078,"Delta":374342245},{"NoteNumber":65,"Velocity":58,"Duration":196078,"SoundDuration":196078,"Delta":374342245},{"NoteNumber":60,"Velocity":58,"Duration":196078,"SoundDuration":196078,"Delta":374342245},{"NoteNumber":70,"Velocity":89,"Duration":202702,"SoundDuration":202702,"Delta":374538324},{"NoteNumber":82,"Velocity":89,"Duration":202702,"SoundDuration":202702,"Delta":374538324},{"NoteNumber":42,"Velocity":81,"Duration":202702,"SoundDuration":202702,"Delta":374538324},{"NoteNumber":54,"Velocity":81,"Duration":202702,"SoundDuration":202702,"Delta":374538324},{"NoteNumber":72,"Velocity":73,"Duration":97402,"SoundDuration":97402,"Delta":374741026},{"NoteNumber":66,"Velocity":58,"Duration":194804,"SoundDuration":194804,"Delta":374741026},{"NoteNumber":54,"Velocity":58,"Duration":194804,"SoundDuration":194804,"Delta":374741026},{"NoteNumber":73,"Velocity":71,"Duration":97402,"SoundDuration":97402,"Delta":374838429},{"NoteNumber":77,"Velocity":73,"Duration":64935,"SoundDuration":64935,"Delta":374935831},{"NoteNumber":61,"Velocity":58,"Duration":194805,"SoundDuration":194805,"Delta":374935831},{"NoteNumber":58,"Velocity":58,"Duration":194805,"SoundDuration":194805,"Delta":374935831},{"NoteNumber":75,"Velocity":73,"Duration":64934,"SoundDuration":64934,"Delta":375000766},{"NoteNumber":73,"Velocity":69,"Duration":56818,"SoundDuration":56818,"Delta":375065701},{"NoteNumber":73,"Velocity":89,"Duration":209789,"SoundDuration":209789,"Delta":375130636},{"NoteNumber":41,"Velocity":80,"Duration":209789,"SoundDuration":209789,"Delta":375130636},{"NoteNumber":53,"Velocity":80,"Duration":209789,"SoundDuration":209789,"Delta":375130636},{"NoteNumber":84,"Velocity":81,"Duration":197368,"SoundDuration":197368,"Delta":375340426},{"NoteNumber":72,"Velocity":81,"Duration":197368,"SoundDuration":197368,"Delta":375340426},{"NoteNumber":65,"Velocity":56,"Duration":197368,"SoundDuration":197368,"Delta":375340426},{"NoteNumber":53,"Velocity":56,"Duration":197368,"SoundDuration":197368,"Delta":375340426},{"NoteNumber":73,"Velocity":81,"Duration":197368,"SoundDuration":197368,"Delta":375537795},{"NoteNumber":85,"Velocity":81,"Duration":197368,"SoundDuration":197368,"Delta":375537795},{"NoteNumber":61,"Velocity":56,"Duration":197368,"SoundDuration":197368,"Delta":375537795},{"NoteNumber":56,"Velocity":56,"Duration":197368,"SoundDuration":197368,"Delta":375537795},{"NoteNumber":66,"Velocity":89,"Duration":204777,"SoundDuration":204777,"Delta":375735163},{"NoteNumber":78,"Velocity":89,"Duration":204777,"SoundDuration":204777,"Delta":375735163},{"NoteNumber":39,"Velocity":81,"Duration":204777,"SoundDuration":204777,"Delta":375735163},{"NoteNumber":51,"Velocity":81,"Duration":204777,"SoundDuration":204777,"Delta":375735163},{"NoteNumber":69,"Velocity":73,"Duration":101695,"SoundDuration":101695,"Delta":375939941},{"NoteNumber":63,"Velocity":56,"Duration":203390,"SoundDuration":203390,"Delta":375939941},{"NoteNumber":51,"Velocity":56,"Duration":203390,"SoundDuration":203390,"Delta":375939941},{"NoteNumber":70,"Velocity":69,"Duration":101695,"SoundDuration":101695,"Delta":376041636},{"NoteNumber":73,"Velocity":73,"Duration":67796,"SoundDuration":67796,"Delta":376143331},{"NoteNumber":58,"Velocity":56,"Duration":203390,"SoundDuration":203390,"Delta":376143331},{"NoteNumber":54,"Velocity":56,"Duration":203390,"SoundDuration":203390,"Delta":376143331},{"NoteNumber":72,"Velocity":73,"Duration":67796,"SoundDuration":67796,"Delta":376211128},{"NoteNumber":70,"Velocity":69,"Duration":59322,"SoundDuration":59322,"Delta":376278924},{"NoteNumber":70,"Velocity":89,"Duration":203389,"SoundDuration":203389,"Delta":376346721},{"NoteNumber":37,"Velocity":81,"Duration":203389,"SoundDuration":203389,"Delta":376346721},{"NoteNumber":49,"Velocity":81,"Duration":203389,"SoundDuration":203389,"Delta":376346721},{"NoteNumber":81,"Velocity":81,"Duration":203390,"SoundDuration":203390,"Delta":376550111},{"NoteNumber":69,"Velocity":81,"Duration":203390,"SoundDuration":203390,"Delta":376550111},{"NoteNumber":61,"Velocity":62,"Duration":203390,"SoundDuration":203390,"Delta":376550111},{"NoteNumber":49,"Velocity":62,"Duration":203390,"SoundDuration":203390,"Delta":376550111},{"NoteNumber":70,"Velocity":81,"Duration":209059,"SoundDuration":209059,"Delta":376753501},{"NoteNumber":82,"Velocity":81,"Duration":209059,"SoundDuration":209059,"Delta":376753501},{"NoteNumber":53,"Velocity":61,"Duration":209059,"SoundDuration":209059,"Delta":376753501},{"NoteNumber":58,"Velocity":61,"Duration":209059,"SoundDuration":209059,"Delta":376753501},{"NoteNumber":63,"Velocity":89,"Duration":204081,"SoundDuration":204081,"Delta":376962560},{"NoteNumber":75,"Velocity":89,"Duration":204081,"SoundDuration":204081,"Delta":376962560},{"NoteNumber":36,"Velocity":81,"Duration":204081,"SoundDuration":204081,"Delta":376962560},{"NoteNumber":48,"Velocity":81,"Duration":204081,"SoundDuration":204081,"Delta":376962560},{"NoteNumber":65,"Velocity":74,"Duration":102040,"SoundDuration":102040,"Delta":377166642},{"NoteNumber":60,"Velocity":57,"Duration":204081,"SoundDuration":204081,"Delta":377166642},{"NoteNumber":48,"Velocity":57,"Duration":204081,"SoundDuration":204081,"Delta":377166642},{"NoteNumber":66,"Velocity":70,"Duration":102040,"SoundDuration":102040,"Delta":377268682},{"NoteNumber":70,"Velocity":74,"Duration":68027,"SoundDuration":68027,"Delta":377370723},{"NoteNumber":51,"Velocity":57,"Duration":204081,"SoundDuration":204081,"Delta":377370723},{"NoteNumber":54,"Velocity":57,"Duration":204081,"SoundDuration":204081,"Delta":377370723},{"NoteNumber":68,"Velocity":74,"Duration":68027,"SoundDuration":68027,"Delta":377438750},{"NoteNumber":66,"Velocity":71,"Duration":59523,"SoundDuration":59523,"Delta":377506777},{"NoteNumber":66,"Velocity":89,"Duration":638864,"SoundDuration":638864,"Delta":377574805},{"NoteNumber":34,"Velocity":80,"Duration":204081,"SoundDuration":204081,"Delta":377574805},{"NoteNumber":46,"Velocity":80,"Duration":204081,"SoundDuration":204081,"Delta":377574805},{"NoteNumber":74,"Velocity":85,"Duration":217391,"SoundDuration":217391,"Delta":377778886},{"NoteNumber":77,"Velocity":85,"Duration":217391,"SoundDuration":217391,"Delta":377778886},{"NoteNumber":58,"Velocity":58,"Duration":434782,"SoundDuration":434782,"Delta":377778886},{"NoteNumber":46,"Velocity":58,"Duration":434782,"SoundDuration":434782,"Delta":377778886},{"NoteNumber":75,"Velocity":85,"Duration":217391,"SoundDuration":217391,"Delta":377996278},{"NoteNumber":78,"Velocity":85,"Duration":217391,"SoundDuration":217391,"Delta":377996278},{"NoteNumber":51,"Velocity":58,"Duration":217391,"SoundDuration":217391,"Delta":377996278},{"NoteNumber":54,"Velocity":58,"Duration":217391,"SoundDuration":217391,"Delta":377996278},{"NoteNumber":65,"Velocity":84,"Duration":224718,"SoundDuration":224718,"Delta":378213669},{"NoteNumber":72,"Velocity":84,"Duration":224718,"SoundDuration":224718,"Delta":378213669},{"NoteNumber":75,"Velocity":84,"Duration":224718,"SoundDuration":224718,"Delta":378213669},{"NoteNumber":77,"Velocity":84,"Duration":224718,"SoundDuration":224718,"Delta":378213669},{"NoteNumber":48,"Velocity":76,"Duration":224718,"SoundDuration":224718,"Delta":378213669},{"NoteNumber":45,"Velocity":76,"Duration":224718,"SoundDuration":224718,"Delta":378213669},{"NoteNumber":53,"Velocity":76,"Duration":224718,"SoundDuration":224718,"Delta":378213669},{"NoteNumber":57,"Velocity":76,"Duration":224718,"SoundDuration":224718,"Delta":378213669},{"NoteNumber":64,"Velocity":68,"Duration":112359,"SoundDuration":112359,"Delta":378438388},{"NoteNumber":52,"Velocity":64,"Duration":112359,"SoundDuration":112359,"Delta":378438388},{"NoteNumber":65,"Velocity":66,"Duration":112359,"SoundDuration":112359,"Delta":378550748},{"NoteNumber":53,"Velocity":61,"Duration":112359,"SoundDuration":112359,"Delta":378550748},{"NoteNumber":68,"Velocity":68,"Duration":93632,"SoundDuration":93632,"Delta":378663107},{"NoteNumber":56,"Velocity":64,"Duration":93632,"SoundDuration":93632,"Delta":378663107},{"NoteNumber":66,"Velocity":68,"Duration":93632,"SoundDuration":93632,"Delta":378738013},{"NoteNumber":54,"Velocity":64,"Duration":93632,"SoundDuration":93632,"Delta":378738013},{"NoteNumber":65,"Velocity":66,"Duration":65543,"SoundDuration":65543,"Delta":378812920},{"NoteNumber":53,"Velocity":61,"Duration":65543,"SoundDuration":65543,"Delta":378812920},{"NoteNumber":53,"Velocity":59,"Duration":212765,"SoundDuration":212765,"Delta":378887826},{"NoteNumber":34,"Velocity":57,"Duration":212765,"SoundDuration":212765,"Delta":378887826},{"NoteNumber":58,"Velocity":59,"Duration":199468,"SoundDuration":199468,"Delta":378901124},{"NoteNumber":61,"Velocity":59,"Duration":186170,"SoundDuration":186170,"Delta":378914422},{"NoteNumber":46,"Velocity":57,"Duration":186170,"SoundDuration":186170,"Delta":378914422},{"NoteNumber":65,"Velocity":59,"Duration":172872,"SoundDuration":172872,"Delta":378927720},{"NoteNumber":87,"Velocity":73,"Duration":205479,"SoundDuration":205479,"Delta":379100592},{"NoteNumber":75,"Velocity":73,"Duration":205479,"SoundDuration":205479,"Delta":379100592},{"NoteNumber":63,"Velocity":71,"Duration":205479,"SoundDuration":205479,"Delta":379100592},{"NoteNumber":51,"Velocity":71,"Duration":205479,"SoundDuration":205479,"Delta":379100592},{"NoteNumber":85,"Velocity":73,"Duration":210526,"SoundDuration":210526,"Delta":379306072},{"NoteNumber":73,"Velocity":73,"Duration":210526,"SoundDuration":210526,"Delta":379306072},{"NoteNumber":49,"Velocity":72,"Duration":210526,"SoundDuration":210526,"Delta":379306072},{"NoteNumber":61,"Velocity":72,"Duration":210526,"SoundDuration":210526,"Delta":379306072},{"NoteNumber":72,"Velocity":68,"Duration":197433,"SoundDuration":197433,"Delta":379516598},{"NoteNumber":41,"Velocity":74,"Duration":197433,"SoundDuration":197433,"Delta":379516598},{"NoteNumber":77,"Velocity":69,"Duration":185093,"SoundDuration":185093,"Delta":379528938},{"NoteNumber":48,"Velocity":74,"Duration":185093,"SoundDuration":185093,"Delta":379528938},{"NoteNumber":81,"Velocity":72,"Duration":172754,"SoundDuration":172754,"Delta":379541277},{"NoteNumber":57,"Velocity":74,"Duration":172754,"SoundDuration":172754,"Delta":379541277},{"NoteNumber":84,"Velocity":77,"Duration":160414,"SoundDuration":160414,"Delta":379553617},{"NoteNumber":64,"Velocity":68,"Duration":97478,"SoundDuration":97478,"Delta":379714032},{"NoteNumber":52,"Velocity":62,"Duration":97478,"SoundDuration":97478,"Delta":379714032},{"NoteNumber":65,"Velocity":66,"Duration":97478,"SoundDuration":97478,"Delta":379811510},{"NoteNumber":53,"Velocity":59,"Duration":97478,"SoundDuration":97478,"Delta":379811510},{"NoteNumber":68,"Velocity":69,"Duration":81232,"SoundDuration":81232,"Delta":379908989},{"NoteNumber":56,"Velocity":62,"Duration":81232,"SoundDuration":81232,"Delta":379908989},{"NoteNumber":66,"Velocity":69,"Duration":81232,"SoundDuration":81232,"Delta":379973974},{"NoteNumber":54,"Velocity":62,"Duration":81232,"SoundDuration":81232,"Delta":379973974},{"NoteNumber":65,"Velocity":67,"Duration":56862,"SoundDuration":56862,"Delta":380038960},{"NoteNumber":53,"Velocity":58,"Duration":56862,"SoundDuration":56862,"Delta":380038960},{"NoteNumber":53,"Velocity":60,"Duration":198019,"SoundDuration":198019,"Delta":380103946},{"NoteNumber":34,"Velocity":54,"Duration":198019,"SoundDuration":198019,"Delta":380103946},{"NoteNumber":58,"Velocity":60,"Duration":185643,"SoundDuration":185643,"Delta":380116322},{"NoteNumber":61,"Velocity":60,"Duration":173267,"SoundDuration":173267,"Delta":380128698},{"NoteNumber":46,"Velocity":54,"Duration":173267,"SoundDuration":173267,"Delta":380128698},{"NoteNumber":65,"Velocity":60,"Duration":160891,"SoundDuration":160891,"Delta":380141074},{"NoteNumber":84,"Velocity":74,"Duration":199335,"SoundDuration":199335,"Delta":380301966},{"NoteNumber":72,"Velocity":74,"Duration":199335,"SoundDuration":199335,"Delta":380301966},{"NoteNumber":60,"Velocity":69,"Duration":199335,"SoundDuration":199335,"Delta":380301966},{"NoteNumber":48,"Velocity":69,"Duration":199335,"SoundDuration":199335,"Delta":380301966},{"NoteNumber":70,"Velocity":74,"Duration":206896,"SoundDuration":206896,"Delta":380501301},{"NoteNumber":82,"Velocity":74,"Duration":206896,"SoundDuration":206896,"Delta":380501301},{"NoteNumber":46,"Velocity":69,"Duration":206896,"SoundDuration":206896,"Delta":380501301},{"NoteNumber":58,"Velocity":69,"Duration":206896,"SoundDuration":206896,"Delta":380501301},{"NoteNumber":69,"Velocity":69,"Duration":200628,"SoundDuration":200628,"Delta":380708198},{"NoteNumber":41,"Velocity":75,"Duration":200628,"SoundDuration":200628,"Delta":380708198},{"NoteNumber":72,"Velocity":70,"Duration":188089,"SoundDuration":188089,"Delta":380720737},{"NoteNumber":48,"Velocity":75,"Duration":188089,"SoundDuration":188089,"Delta":380720737},{"NoteNumber":77,"Velocity":74,"Duration":175549,"SoundDuration":175549,"Delta":380733276},{"NoteNumber":57,"Velocity":75,"Duration":175549,"SoundDuration":175549,"Delta":380733276},{"NoteNumber":81,"Velocity":76,"Duration":163010,"SoundDuration":163010,"Delta":380745815},{"NoteNumber":64,"Velocity":65,"Duration":101964,"SoundDuration":101964,"Delta":380908826},{"NoteNumber":52,"Velocity":61,"Duration":101964,"SoundDuration":101964,"Delta":380908826},{"NoteNumber":65,"Velocity":60,"Duration":101964,"SoundDuration":101964,"Delta":381010791},{"NoteNumber":53,"Velocity":58,"Duration":101964,"SoundDuration":101964,"Delta":381010791},{"NoteNumber":68,"Velocity":65,"Duration":84970,"SoundDuration":84970,"Delta":381112755},{"NoteNumber":56,"Velocity":61,"Duration":84970,"SoundDuration":84970,"Delta":381112755},{"NoteNumber":66,"Velocity":65,"Duration":84970,"SoundDuration":84970,"Delta":381180731},{"NoteNumber":54,"Velocity":61,"Duration":84970,"SoundDuration":84970,"Delta":381180731},{"NoteNumber":65,"Velocity":61,"Duration":59479,"SoundDuration":59479,"Delta":381248708},{"NoteNumber":53,"Velocity":57,"Duration":59479,"SoundDuration":59479,"Delta":381248708},{"NoteNumber":53,"Velocity":56,"Duration":199986,"SoundDuration":199986,"Delta":381316684},{"NoteNumber":34,"Velocity":55,"Duration":199986,"SoundDuration":199986,"Delta":381316684},{"NoteNumber":58,"Velocity":56,"Duration":187487,"SoundDuration":187487,"Delta":381329183},{"NoteNumber":61,"Velocity":56,"Duration":174988,"SoundDuration":174988,"Delta":381341682},{"NoteNumber":46,"Velocity":55,"Duration":174988,"SoundDuration":174988,"Delta":381341682},{"NoteNumber":65,"Velocity":56,"Duration":162489,"SoundDuration":162489,"Delta":381354182},{"NoteNumber":87,"Velocity":78,"Duration":202702,"SoundDuration":202702,"Delta":381516671},{"NoteNumber":75,"Velocity":78,"Duration":202702,"SoundDuration":202702,"Delta":381516671},{"NoteNumber":63,"Velocity":74,"Duration":202702,"SoundDuration":202702,"Delta":381516671},{"NoteNumber":51,"Velocity":74,"Duration":202702,"SoundDuration":202702,"Delta":381516671},{"NoteNumber":73,"Velocity":78,"Duration":212014,"SoundDuration":212014,"Delta":381719373},{"NoteNumber":85,"Velocity":78,"Duration":212014,"SoundDuration":212014,"Delta":381719373},{"NoteNumber":49,"Velocity":73,"Duration":212014,"SoundDuration":212014,"Delta":381719373},{"NoteNumber":61,"Velocity":73,"Duration":212014,"SoundDuration":212014,"Delta":381719373},{"NoteNumber":72,"Velocity":74,"Duration":200628,"SoundDuration":200628,"Delta":381931387},{"NoteNumber":41,"Velocity":75,"Duration":200628,"SoundDuration":200628,"Delta":381931387},{"NoteNumber":77,"Velocity":75,"Duration":188089,"SoundDuration":188089,"Delta":381943926},{"NoteNumber":48,"Velocity":75,"Duration":188089,"SoundDuration":188089,"Delta":381943926},{"NoteNumber":81,"Velocity":77,"Duration":175549,"SoundDuration":175549,"Delta":381956466},{"NoteNumber":57,"Velocity":74,"Duration":175549,"SoundDuration":175549,"Delta":381956466},{"NoteNumber":84,"Velocity":80,"Duration":163010,"SoundDuration":163010,"Delta":381969005},{"NoteNumber":64,"Velocity":70,"Duration":100969,"SoundDuration":100969,"Delta":382132016},{"NoteNumber":52,"Velocity":67,"Duration":100969,"SoundDuration":100969,"Delta":382132016},{"NoteNumber":65,"Velocity":67,"Duration":100969,"SoundDuration":100969,"Delta":382232985},{"NoteNumber":53,"Velocity":63,"Duration":100969,"SoundDuration":100969,"Delta":382232985},{"NoteNumber":68,"Velocity":70,"Duration":84141,"SoundDuration":84141,"Delta":382333954},{"NoteNumber":56,"Velocity":67,"Duration":84141,"SoundDuration":84141,"Delta":382333954},{"NoteNumber":66,"Velocity":70,"Duration":84141,"SoundDuration":84141,"Delta":382401267},{"NoteNumber":54,"Velocity":67,"Duration":84141,"SoundDuration":84141,"Delta":382401267},{"NoteNumber":65,"Velocity":68,"Duration":58898,"SoundDuration":58898,"Delta":382468580},{"NoteNumber":53,"Velocity":62,"Duration":58898,"SoundDuration":58898,"Delta":382468580},{"NoteNumber":53,"Velocity":62,"Duration":198702,"SoundDuration":198702,"Delta":382535893},{"NoteNumber":34,"Velocity":60,"Duration":198702,"SoundDuration":198702,"Delta":382535893},{"NoteNumber":58,"Velocity":62,"Duration":186283,"SoundDuration":186283,"Delta":382548311},{"NoteNumber":61,"Velocity":62,"Duration":173864,"SoundDuration":173864,"Delta":382560730},{"NoteNumber":46,"Velocity":60,"Duration":173864,"SoundDuration":173864,"Delta":382560730},{"NoteNumber":65,"Velocity":62,"Duration":161445,"SoundDuration":161445,"Delta":382573149},{"NoteNumber":84,"Velocity":77,"Duration":201342,"SoundDuration":201342,"Delta":382734595},{"NoteNumber":72,"Velocity":77,"Duration":201342,"SoundDuration":201342,"Delta":382734595},{"NoteNumber":60,"Velocity":74,"Duration":201342,"SoundDuration":201342,"Delta":382734595},{"NoteNumber":48,"Velocity":74,"Duration":201342,"SoundDuration":201342,"Delta":382734595},{"NoteNumber":70,"Velocity":77,"Duration":200628,"SoundDuration":200628,"Delta":382935937},{"NoteNumber":82,"Velocity":77,"Duration":200628,"SoundDuration":200628,"Delta":382935937},{"NoteNumber":46,"Velocity":74,"Duration":200628,"SoundDuration":200628,"Delta":382935937},{"NoteNumber":58,"Velocity":74,"Duration":200628,"SoundDuration":200628,"Delta":382935937},{"NoteNumber":69,"Velocity":73,"Duration":200628,"SoundDuration":200628,"Delta":383136566},{"NoteNumber":41,"Velocity":75,"Duration":200628,"SoundDuration":200628,"Delta":383136566},{"NoteNumber":72,"Velocity":74,"Duration":188089,"SoundDuration":188089,"Delta":383149105},{"NoteNumber":48,"Velocity":75,"Duration":188089,"SoundDuration":188089,"Delta":383149105},{"NoteNumber":77,"Velocity":77,"Duration":175549,"SoundDuration":175549,"Delta":383161644},{"NoteNumber":57,"Velocity":74,"Duration":175549,"SoundDuration":175549,"Delta":383161644},{"NoteNumber":81,"Velocity":81,"Duration":163010,"SoundDuration":163010,"Delta":383174183},{"NoteNumber":64,"Velocity":67,"Duration":98716,"SoundDuration":98716,"Delta":383337194},{"NoteNumber":52,"Velocity":63,"Duration":98716,"SoundDuration":98716,"Delta":383337194},{"NoteNumber":65,"Velocity":64,"Duration":98716,"SoundDuration":98716,"Delta":383435911},{"NoteNumber":53,"Velocity":60,"Duration":98716,"SoundDuration":98716,"Delta":383435911},{"NoteNumber":68,"Velocity":67,"Duration":82263,"SoundDuration":82263,"Delta":383534628},{"NoteNumber":56,"Velocity":63,"Duration":82263,"SoundDuration":82263,"Delta":383534628},{"NoteNumber":66,"Velocity":67,"Duration":82263,"SoundDuration":82263,"Delta":383600439},{"NoteNumber":54,"Velocity":63,"Duration":82263,"SoundDuration":82263,"Delta":383600439},{"NoteNumber":65,"Velocity":64,"Duration":57584,"SoundDuration":57584,"Delta":383666250},{"NoteNumber":53,"Velocity":60,"Duration":57584,"SoundDuration":57584,"Delta":383666250},{"NoteNumber":65,"Velocity":80,"Duration":197433,"SoundDuration":197433,"Delta":383732061},{"NoteNumber":53,"Velocity":74,"Duration":197433,"SoundDuration":197433,"Delta":383732061},{"NoteNumber":85,"Velocity":77,"Duration":203265,"SoundDuration":203265,"Delta":383929495},{"NoteNumber":73,"Velocity":77,"Duration":203265,"SoundDuration":203265,"Delta":383929495},{"NoteNumber":61,"Velocity":71,"Duration":203265,"SoundDuration":203265,"Delta":383929495},{"NoteNumber":72,"Velocity":78,"Duration":209438,"SoundDuration":209438,"Delta":384132761},{"NoteNumber":84,"Velocity":78,"Duration":209438,"SoundDuration":209438,"Delta":384132761},{"NoteNumber":60,"Velocity":73,"Duration":209438,"SoundDuration":209438,"Delta":384132761},{"NoteNumber":69,"Velocity":74,"Duration":197433,"SoundDuration":197433,"Delta":384342199},{"NoteNumber":41,"Velocity":76,"Duration":197433,"SoundDuration":197433,"Delta":384342199},{"NoteNumber":72,"Velocity":75,"Duration":185093,"SoundDuration":185093,"Delta":384354539},{"NoteNumber":48,"Velocity":76,"Duration":185093,"SoundDuration":185093,"Delta":384354539},{"NoteNumber":77,"Velocity":78,"Duration":172754,"SoundDuration":172754,"Delta":384366878},{"NoteNumber":57,"Velocity":76,"Duration":172754,"SoundDuration":172754,"Delta":384366878},{"NoteNumber":81,"Velocity":83,"Duration":160414,"SoundDuration":160414,"Delta":384379218},{"NoteNumber":59,"Velocity":70,"Duration":101296,"SoundDuration":101296,"Delta":384539633},{"NoteNumber":47,"Velocity":67,"Duration":101296,"SoundDuration":101296,"Delta":384539633},{"NoteNumber":60,"Velocity":66,"Duration":101296,"SoundDuration":101296,"Delta":384640929},{"NoteNumber":48,"Velocity":64,"Duration":101296,"SoundDuration":101296,"Delta":384640929},{"NoteNumber":63,"Velocity":70,"Duration":84413,"SoundDuration":84413,"Delta":384742226},{"NoteNumber":51,"Velocity":67,"Duration":84413,"SoundDuration":84413,"Delta":384742226},{"NoteNumber":61,"Velocity":70,"Duration":84413,"SoundDuration":84413,"Delta":384809757},{"NoteNumber":49,"Velocity":67,"Duration":84413,"SoundDuration":84413,"Delta":384809757},{"NoteNumber":60,"Velocity":66,"Duration":59089,"SoundDuration":59089,"Delta":384877288},{"NoteNumber":48,"Velocity":64,"Duration":59089,"SoundDuration":59089,"Delta":384877288},{"NoteNumber":60,"Velocity":80,"Duration":198072,"SoundDuration":198072,"Delta":384944819},{"NoteNumber":36,"Velocity":74,"Duration":198072,"SoundDuration":198072,"Delta":384944819},{"NoteNumber":48,"Velocity":74,"Duration":198072,"SoundDuration":198072,"Delta":384944819},{"NoteNumber":70,"Velocity":78,"Duration":205479,"SoundDuration":205479,"Delta":385142891},{"NoteNumber":58,"Velocity":73,"Duration":205479,"SoundDuration":205479,"Delta":385142891},{"NoteNumber":69,"Velocity":75,"Duration":210526,"SoundDuration":210526,"Delta":385348370},{"NoteNumber":57,"Velocity":70,"Duration":210526,"SoundDuration":210526,"Delta":385348370},{"NoteNumber":69,"Velocity":65,"Duration":200628,"SoundDuration":200628,"Delta":385558897},{"NoteNumber":41,"Velocity":69,"Duration":200628,"SoundDuration":200628,"Delta":385558897},{"NoteNumber":72,"Velocity":67,"Duration":188089,"SoundDuration":188089,"Delta":385571436},{"NoteNumber":48,"Velocity":69,"Duration":188089,"SoundDuration":188089,"Delta":385571436},{"NoteNumber":77,"Velocity":71,"Duration":175549,"SoundDuration":175549,"Delta":385583975},{"NoteNumber":57,"Velocity":69,"Duration":175549,"SoundDuration":175549,"Delta":385583975},{"NoteNumber":81,"Velocity":71,"Duration":163010,"SoundDuration":163010,"Delta":385596514},{"NoteNumber":64,"Velocity":70,"Duration":100314,"SoundDuration":100314,"Delta":385759525},{"NoteNumber":52,"Velocity":66,"Duration":100314,"SoundDuration":100314,"Delta":385759525},{"NoteNumber":65,"Velocity":67,"Duration":100314,"SoundDuration":100314,"Delta":385859839},{"NoteNumber":53,"Velocity":63,"Duration":100314,"SoundDuration":100314,"Delta":385859839},{"NoteNumber":68,"Velocity":70,"Duration":83595,"SoundDuration":83595,"Delta":385960154},{"NoteNumber":56,"Velocity":66,"Duration":83595,"SoundDuration":83595,"Delta":385960154},{"NoteNumber":66,"Velocity":70,"Duration":83595,"SoundDuration":83595,"Delta":386027030},{"NoteNumber":54,"Velocity":66,"Duration":83595,"SoundDuration":83595,"Delta":386027030},{"NoteNumber":65,"Velocity":66,"Duration":58516,"SoundDuration":58516,"Delta":386093906},{"NoteNumber":53,"Velocity":63,"Duration":58516,"SoundDuration":58516,"Delta":386093906},{"NoteNumber":65,"Velocity":80,"Duration":199363,"SoundDuration":199363,"Delta":386160782},{"NoteNumber":53,"Velocity":74,"Duration":199363,"SoundDuration":199363,"Delta":386160782},{"NoteNumber":85,"Velocity":77,"Duration":212765,"SoundDuration":212765,"Delta":386360145},{"NoteNumber":73,"Velocity":77,"Duration":212765,"SoundDuration":212765,"Delta":386360145},{"NoteNumber":61,"Velocity":74,"Duration":212765,"SoundDuration":212765,"Delta":386360145},{"NoteNumber":72,"Velocity":77,"Duration":212765,"SoundDuration":212765,"Delta":386572911},{"NoteNumber":84,"Velocity":77,"Duration":212765,"SoundDuration":212765,"Delta":386572911},{"NoteNumber":60,"Velocity":71,"Duration":212765,"SoundDuration":212765,"Delta":386572911},{"NoteNumber":69,"Velocity":65,"Duration":212766,"SoundDuration":212766,"Delta":386785677},{"NoteNumber":41,"Velocity":68,"Duration":212766,"SoundDuration":212766,"Delta":386785677},{"NoteNumber":72,"Velocity":66,"Duration":199468,"SoundDuration":199468,"Delta":386798975},{"NoteNumber":48,"Velocity":68,"Duration":199468,"SoundDuration":199468,"Delta":386798975},{"NoteNumber":77,"Velocity":70,"Duration":186170,"SoundDuration":186170,"Delta":386812273},{"NoteNumber":57,"Velocity":68,"Duration":186170,"SoundDuration":186170,"Delta":386812273},{"NoteNumber":81,"Velocity":76,"Duration":172872,"SoundDuration":172872,"Delta":386825571},{"NoteNumber":59,"Velocity":69,"Duration":110294,"SoundDuration":110294,"Delta":386998443},{"NoteNumber":47,"Velocity":66,"Duration":110294,"SoundDuration":110294,"Delta":386998443},{"NoteNumber":60,"Velocity":67,"Duration":110294,"SoundDuration":110294,"Delta":387108737},{"NoteNumber":48,"Velocity":64,"Duration":110294,"SoundDuration":110294,"Delta":387108737},{"NoteNumber":63,"Velocity":69,"Duration":91911,"SoundDuration":91911,"Delta":387219031},{"NoteNumber":51,"Velocity":66,"Duration":91911,"SoundDuration":91911,"Delta":387219031},{"NoteNumber":61,"Velocity":69,"Duration":91911,"SoundDuration":91911,"Delta":387292561},{"NoteNumber":49,"Velocity":66,"Duration":91911,"SoundDuration":91911,"Delta":387292561},{"NoteNumber":60,"Velocity":66,"Duration":64338,"SoundDuration":64338,"Delta":387366090},{"NoteNumber":48,"Velocity":63,"Duration":64338,"SoundDuration":64338,"Delta":387366090},{"NoteNumber":60,"Velocity":78,"Duration":237153,"SoundDuration":237153,"Delta":387439619},{"NoteNumber":36,"Velocity":75,"Duration":237153,"SoundDuration":237153,"Delta":387439619},{"NoteNumber":48,"Velocity":75,"Duration":237153,"SoundDuration":237153,"Delta":387439619},{"NoteNumber":70,"Velocity":77,"Duration":223880,"SoundDuration":223880,"Delta":387676773},{"NoteNumber":58,"Velocity":69,"Duration":223880,"SoundDuration":223880,"Delta":387676773},{"NoteNumber":69,"Velocity":74,"Duration":223880,"SoundDuration":223880,"Delta":387900654},{"NoteNumber":57,"Velocity":71,"Duration":223880,"SoundDuration":223880,"Delta":387900654},{"NoteNumber":69,"Velocity":62,"Duration":223880,"SoundDuration":223880,"Delta":388124534},{"NoteNumber":41,"Velocity":59,"Duration":223880,"SoundDuration":223880,"Delta":388124534},{"NoteNumber":72,"Velocity":63,"Duration":209887,"SoundDuration":209887,"Delta":388138527},{"NoteNumber":48,"Velocity":59,"Duration":209887,"SoundDuration":209887,"Delta":388138527},{"NoteNumber":77,"Velocity":65,"Duration":195895,"SoundDuration":195895,"Delta":388152519},{"NoteNumber":57,"Velocity":59,"Duration":195895,"SoundDuration":195895,"Delta":388152519},{"NoteNumber":81,"Velocity":69,"Duration":181902,"SoundDuration":181902,"Delta":388166512},{"NoteNumber":59,"Velocity":64,"Duration":111940,"SoundDuration":111940,"Delta":388348415},{"NoteNumber":47,"Velocity":61,"Duration":111940,"SoundDuration":111940,"Delta":388348415},{"NoteNumber":60,"Velocity":59,"Duration":111940,"SoundDuration":111940,"Delta":388460355},{"NoteNumber":48,"Velocity":57,"Duration":111940,"SoundDuration":111940,"Delta":388460355},{"NoteNumber":63,"Velocity":64,"Duration":93283,"SoundDuration":93283,"Delta":388572295},{"NoteNumber":51,"Velocity":61,"Duration":93283,"SoundDuration":93283,"Delta":388572295},{"NoteNumber":61,"Velocity":64,"Duration":93283,"SoundDuration":93283,"Delta":388646922},{"NoteNumber":49,"Velocity":61,"Duration":93283,"SoundDuration":93283,"Delta":388646922},{"NoteNumber":60,"Velocity":60,"Duration":65298,"SoundDuration":65298,"Delta":388721549},{"NoteNumber":48,"Velocity":57,"Duration":65298,"SoundDuration":65298,"Delta":388721549},{"NoteNumber":60,"Velocity":72,"Duration":223880,"SoundDuration":223880,"Delta":388796176},{"NoteNumber":36,"Velocity":69,"Duration":223880,"SoundDuration":223880,"Delta":388796176},{"NoteNumber":48,"Velocity":69,"Duration":223880,"SoundDuration":223880,"Delta":388796176},{"NoteNumber":70,"Velocity":71,"Duration":227272,"SoundDuration":227272,"Delta":389020056},{"NoteNumber":58,"Velocity":67,"Duration":227272,"SoundDuration":227272,"Delta":389020056},{"NoteNumber":69,"Velocity":69,"Duration":227272,"SoundDuration":227272,"Delta":389247329},{"NoteNumber":57,"Velocity":65,"Duration":227272,"SoundDuration":227272,"Delta":389247329},{"NoteNumber":69,"Velocity":58,"Duration":227272,"SoundDuration":227272,"Delta":389474601},{"NoteNumber":41,"Velocity":62,"Duration":227272,"SoundDuration":227272,"Delta":389474601},{"NoteNumber":72,"Velocity":59,"Duration":213067,"SoundDuration":213067,"Delta":389488806},{"NoteNumber":48,"Velocity":62,"Duration":213067,"SoundDuration":213067,"Delta":389488806},{"NoteNumber":77,"Velocity":61,"Duration":198863,"SoundDuration":198863,"Delta":389503010},{"NoteNumber":57,"Velocity":62,"Duration":198863,"SoundDuration":198863,"Delta":389503010},{"NoteNumber":81,"Velocity":63,"Duration":184658,"SoundDuration":184658,"Delta":389517215},{"NoteNumber":59,"Velocity":59,"Duration":111940,"SoundDuration":111940,"Delta":389701874},{"NoteNumber":47,"Velocity":56,"Duration":111940,"SoundDuration":111940,"Delta":389701874},{"NoteNumber":60,"Velocity":56,"Duration":111940,"SoundDuration":111940,"Delta":389813814},{"NoteNumber":48,"Velocity":53,"Duration":111940,"SoundDuration":111940,"Delta":389813814},{"NoteNumber":63,"Velocity":59,"Duration":93283,"SoundDuration":93283,"Delta":389925754},{"NoteNumber":51,"Velocity":57,"Duration":93283,"SoundDuration":93283,"Delta":389925754},{"NoteNumber":61,"Velocity":59,"Duration":93283,"SoundDuration":93283,"Delta":390000381},{"NoteNumber":49,"Velocity":57,"Duration":93283,"SoundDuration":93283,"Delta":390000381},{"NoteNumber":60,"Velocity":55,"Duration":65298,"SoundDuration":65298,"Delta":390075008},{"NoteNumber":48,"Velocity":54,"Duration":65298,"SoundDuration":65298,"Delta":390075008},{"NoteNumber":60,"Velocity":67,"Duration":223880,"SoundDuration":223880,"Delta":390149635},{"NoteNumber":36,"Velocity":65,"Duration":223880,"SoundDuration":223880,"Delta":390149635},{"NoteNumber":48,"Velocity":65,"Duration":223880,"SoundDuration":223880,"Delta":390149635},{"NoteNumber":70,"Velocity":67,"Duration":223880,"SoundDuration":223880,"Delta":390373515},{"NoteNumber":58,"Velocity":60,"Duration":223880,"SoundDuration":223880,"Delta":390373515},{"NoteNumber":69,"Velocity":64,"Duration":223880,"SoundDuration":223880,"Delta":390597396},{"NoteNumber":57,"Velocity":60,"Duration":223880,"SoundDuration":223880,"Delta":390597396},{"NoteNumber":69,"Velocity":54,"Duration":227272,"SoundDuration":227272,"Delta":390821276},{"NoteNumber":41,"Velocity":56,"Duration":227272,"SoundDuration":227272,"Delta":390821276},{"NoteNumber":72,"Velocity":54,"Duration":213067,"SoundDuration":213067,"Delta":390835481},{"NoteNumber":48,"Velocity":56,"Duration":213067,"SoundDuration":213067,"Delta":390835481},{"NoteNumber":77,"Velocity":56,"Duration":198863,"SoundDuration":198863,"Delta":390849685},{"NoteNumber":53,"Velocity":56,"Duration":198863,"SoundDuration":198863,"Delta":390849685},{"NoteNumber":81,"Velocity":58,"Duration":184658,"SoundDuration":184658,"Delta":390863890},{"NoteNumber":47,"Velocity":53,"Duration":139925,"SoundDuration":139925,"Delta":391048549},{"NoteNumber":35,"Velocity":48,"Duration":139925,"SoundDuration":139925,"Delta":391048549},{"NoteNumber":48,"Velocity":51,"Duration":139925,"SoundDuration":139925,"Delta":391160489},{"NoteNumber":36,"Velocity":44,"Duration":139925,"SoundDuration":139925,"Delta":391160489},{"NoteNumber":51,"Velocity":53,"Duration":93283,"SoundDuration":93283,"Delta":391272429},{"NoteNumber":39,"Velocity":48,"Duration":93283,"SoundDuration":93283,"Delta":391272429},{"NoteNumber":49,"Velocity":53,"Duration":93283,"SoundDuration":93283,"Delta":391347056},{"NoteNumber":37,"Velocity":48,"Duration":93283,"SoundDuration":93283,"Delta":391347056},{"NoteNumber":48,"Velocity":49,"Duration":65298,"SoundDuration":65298,"Delta":391421683},{"NoteNumber":36,"Velocity":45,"Duration":65298,"SoundDuration":65298,"Delta":391421683},{"NoteNumber":48,"Velocity":59,"Duration":256410,"SoundDuration":256410,"Delta":391496310},{"NoteNumber":36,"Velocity":55,"Duration":256410,"SoundDuration":256410,"Delta":391496310},{"NoteNumber":58,"Velocity":56,"Duration":122950,"SoundDuration":122950,"Delta":391752720},{"NoteNumber":46,"Velocity":55,"Duration":122950,"SoundDuration":122950,"Delta":391752720},{"NoteNumber":57,"Velocity":58,"Duration":122950,"SoundDuration":122950,"Delta":391998622},{"NoteNumber":45,"Velocity":53,"Duration":122950,"SoundDuration":122950,"Delta":391998622},{"NoteNumber":53,"Velocity":62,"Duration":239043,"SoundDuration":239043,"Delta":392244523},{"NoteNumber":41,"Velocity":56,"Duration":239043,"SoundDuration":239043,"Delta":392244523},{"NoteNumber":47,"Velocity":46,"Duration":149402,"SoundDuration":149402,"Delta":392483567},{"NoteNumber":35,"Velocity":43,"Duration":149402,"SoundDuration":149402,"Delta":392483567},{"NoteNumber":48,"Velocity":43,"Duration":149402,"SoundDuration":149402,"Delta":392603089},{"NoteNumber":36,"Velocity":40,"Duration":149402,"SoundDuration":149402,"Delta":392603089},{"NoteNumber":51,"Velocity":46,"Duration":99601,"SoundDuration":99601,"Delta":392722611},{"NoteNumber":39,"Velocity":43,"Duration":99601,"SoundDuration":99601,"Delta":392722611},{"NoteNumber":49,"Velocity":46,"Duration":99601,"SoundDuration":99601,"Delta":392802293},{"NoteNumber":37,"Velocity":43,"Duration":99601,"SoundDuration":99601,"Delta":392802293},{"NoteNumber":48,"Velocity":42,"Duration":69721,"SoundDuration":69721,"Delta":392881974},{"NoteNumber":36,"Velocity":40,"Duration":69721,"SoundDuration":69721,"Delta":392881974},{"NoteNumber":48,"Velocity":51,"Duration":257510,"SoundDuration":257510,"Delta":392961655},{"NoteNumber":36,"Velocity":46,"Duration":257510,"SoundDuration":257510,"Delta":392961655},{"NoteNumber":58,"Velocity":52,"Duration":134529,"SoundDuration":134529,"Delta":393219166},{"NoteNumber":46,"Velocity":49,"Duration":134529,"SoundDuration":134529,"Delta":393219166},{"NoteNumber":57,"Velocity":52,"Duration":147058,"SoundDuration":147058,"Delta":393488224},{"NoteNumber":45,"Velocity":49,"Duration":147058,"SoundDuration":147058,"Delta":393488224},{"NoteNumber":53,"Velocity":56,"Duration":267856,"SoundDuration":267856,"Delta":393782342},{"NoteNumber":41,"Velocity":52,"Duration":267856,"SoundDuration":267856,"Delta":393782342},{"NoteNumber":47,"Velocity":47,"Duration":162337,"SoundDuration":162337,"Delta":395605147},{"NoteNumber":35,"Velocity":44,"Duration":162337,"SoundDuration":162337,"Delta":395605147},{"NoteNumber":48,"Velocity":44,"Duration":162337,"SoundDuration":162337,"Delta":395735017},{"NoteNumber":36,"Velocity":41,"Duration":162337,"SoundDuration":162337,"Delta":395735017},{"NoteNumber":51,"Velocity":47,"Duration":108225,"SoundDuration":108225,"Delta":395864887},{"NoteNumber":39,"Velocity":44,"Duration":108225,"SoundDuration":108225,"Delta":395864887},{"NoteNumber":49,"Velocity":47,"Duration":108225,"SoundDuration":108225,"Delta":395951467},{"NoteNumber":37,"Velocity":44,"Duration":108225,"SoundDuration":108225,"Delta":395951467},{"NoteNumber":48,"Velocity":44,"Duration":75757,"SoundDuration":75757,"Delta":396038048},{"NoteNumber":36,"Velocity":41,"Duration":75757,"SoundDuration":75757,"Delta":396038048},{"NoteNumber":48,"Velocity":55,"Duration":129870,"SoundDuration":129870,"Delta":396124628},{"NoteNumber":36,"Velocity":52,"Duration":129870,"SoundDuration":129870,"Delta":396124628},{"NoteNumber":58,"Velocity":52,"Duration":137614,"SoundDuration":137614,"Delta":396384368},{"NoteNumber":46,"Velocity":49,"Duration":137614,"SoundDuration":137614,"Delta":396384368},{"NoteNumber":57,"Velocity":49,"Duration":147058,"SoundDuration":147058,"Delta":396659598},{"NoteNumber":45,"Velocity":46,"Duration":147058,"SoundDuration":147058,"Delta":396659598},{"NoteNumber":53,"Velocity":55,"Duration":287081,"SoundDuration":287081,"Delta":396953715},{"NoteNumber":41,"Velocity":52,"Duration":287081,"SoundDuration":287081,"Delta":396953715},{"NoteNumber":46,"Velocity":46,"Duration":329670,"SoundDuration":329670,"Delta":398102041},{"NoteNumber":34,"Velocity":43,"Duration":329670,"SoundDuration":329670,"Delta":398102041},{"NoteNumber":45,"Velocity":45,"Duration":413792,"SoundDuration":413792,"Delta":398431712},{"NoteNumber":33,"Velocity":43,"Duration":413792,"SoundDuration":413792,"Delta":398431712},{"NoteNumber":41,"Velocity":46,"Duration":1028570,"SoundDuration":1028570,"Delta":398845505},{"NoteNumber":29,"Velocity":43,"Duration":1028570,"SoundDuration":1028570,"Delta":398845505},{"NoteNumber":57,"Velocity":29,"Duration":71428,"SoundDuration":71428,"Delta":401092183},{"NoteNumber":45,"Velocity":27,"Duration":71428,"SoundDuration":71428,"Delta":401092183},{"NoteNumber":58,"Velocity":31,"Duration":71428,"SoundDuration":71428,"Delta":401163612},{"NoteNumber":46,"Velocity":28,"Duration":71428,"SoundDuration":71428,"Delta":401163612},{"NoteNumber":61,"Velocity":33,"Duration":71428,"SoundDuration":71428,"Delta":401235040},{"NoteNumber":49,"Velocity":29,"Duration":71428,"SoundDuration":71428,"Delta":401235040},{"NoteNumber":65,"Velocity":37,"Duration":113636,"SoundDuration":113636,"Delta":401306469},{"NoteNumber":53,"Velocity":33,"Duration":113636,"SoundDuration":113636,"Delta":401306469},{"NoteNumber":57,"Velocity":29,"Duration":71428,"SoundDuration":71428,"Delta":401761014},{"NoteNumber":45,"Velocity":26,"Duration":71428,"SoundDuration":71428,"Delta":401761014},{"NoteNumber":58,"Velocity":31,"Duration":71428,"SoundDuration":71428,"Delta":401832442},{"NoteNumber":46,"Velocity":27,"Duration":71428,"SoundDuration":71428,"Delta":401832442},{"NoteNumber":61,"Velocity":32,"Duration":71428,"SoundDuration":71428,"Delta":401903871},{"NoteNumber":49,"Velocity":29,"Duration":71428,"SoundDuration":71428,"Delta":401903871},{"NoteNumber":65,"Velocity":43,"Duration":1353384,"SoundDuration":1353384,"Delta":401975299},{"NoteNumber":53,"Velocity":38,"Duration":1353384,"SoundDuration":1353384,"Delta":401975299},{"NoteNumber":58,"Velocity":100,"Duration":93750,"SoundDuration":93750,"Delta":403328683},{"NoteNumber":34,"Velocity":95,"Duration":93750,"SoundDuration":93750,"Delta":403328683},{"NoteNumber":46,"Velocity":95,"Duration":93750,"SoundDuration":93750,"Delta":403328683},{"NoteNumber":94,"Velocity":92,"Duration":1125000,"SoundDuration":1125000,"Delta":403891183},{"NoteNumber":90,"Velocity":92,"Duration":1125000,"SoundDuration":1125000,"Delta":403891183},{"NoteNumber":82,"Velocity":78,"Duration":1125000,"SoundDuration":1125000,"Delta":403891183},{"NoteNumber":58,"Velocity":72,"Duration":1125000,"SoundDuration":1125000,"Delta":403891183},{"NoteNumber":60,"Velocity":72,"Duration":1125000,"SoundDuration":1125000,"Delta":403891183},{"NoteNumber":63,"Velocity":85,"Duration":1125000,"SoundDuration":1125000,"Delta":403891183},{"NoteNumber":66,"Velocity":85,"Duration":1125000,"SoundDuration":1125000,"Delta":403891183},{"NoteNumber":70,"Velocity":85,"Duration":1125000,"SoundDuration":1125000,"Delta":403891183},{"NoteNumber":75,"Velocity":51,"Duration":281250,"SoundDuration":281250,"Delta":405016183},{"NoteNumber":84,"Velocity":61,"Duration":281250,"SoundDuration":281250,"Delta":405016183},{"NoteNumber":87,"Velocity":61,"Duration":281250,"SoundDuration":281250,"Delta":405016183},{"NoteNumber":58,"Velocity":47,"Duration":281250,"SoundDuration":281250,"Delta":405016183},{"NoteNumber":60,"Velocity":47,"Duration":281250,"SoundDuration":281250,"Delta":405016183},{"NoteNumber":63,"Velocity":56,"Duration":281250,"SoundDuration":281250,"Delta":405016183},{"NoteNumber":66,"Velocity":56,"Duration":281250,"SoundDuration":281250,"Delta":405016183},{"NoteNumber":70,"Velocity":56,"Duration":281250,"SoundDuration":281250,"Delta":405016183},{"NoteNumber":77,"Velocity":57,"Duration":93750,"SoundDuration":93750,"Delta":405297433},{"NoteNumber":84,"Velocity":68,"Duration":93750,"SoundDuration":93750,"Delta":405297433},{"NoteNumber":89,"Velocity":68,"Duration":93750,"SoundDuration":93750,"Delta":405297433},{"NoteNumber":58,"Velocity":51,"Duration":93750,"SoundDuration":93750,"Delta":405297433},{"NoteNumber":60,"Velocity":51,"Duration":93750,"SoundDuration":93750,"Delta":405297433},{"NoteNumber":63,"Velocity":61,"Duration":93750,"SoundDuration":93750,"Delta":405297433},{"NoteNumber":66,"Velocity":61,"Duration":93750,"SoundDuration":93750,"Delta":405297433},{"NoteNumber":70,"Velocity":61,"Duration":93750,"SoundDuration":93750,"Delta":405297433},{"NoteNumber":78,"Velocity":60,"Duration":204081,"SoundDuration":204081,"Delta":405391183},{"NoteNumber":84,"Velocity":71,"Duration":204081,"SoundDuration":204081,"Delta":405391183},{"NoteNumber":90,"Velocity":71,"Duration":204081,"SoundDuration":204081,"Delta":405391183},{"NoteNumber":58,"Velocity":56,"Duration":204081,"SoundDuration":204081,"Delta":405391183},{"NoteNumber":60,"Velocity":56,"Duration":204081,"SoundDuration":204081,"Delta":405391183},{"NoteNumber":63,"Velocity":66,"Duration":204081,"SoundDuration":204081,"Delta":405391183},{"NoteNumber":66,"Velocity":66,"Duration":204081,"SoundDuration":204081,"Delta":405391183},{"NoteNumber":70,"Velocity":66,"Duration":204081,"SoundDuration":204081,"Delta":405391183},{"NoteNumber":77,"Velocity":57,"Duration":204081,"SoundDuration":204081,"Delta":405595265},{"NoteNumber":85,"Velocity":68,"Duration":204081,"SoundDuration":204081,"Delta":405595265},{"NoteNumber":89,"Velocity":68,"Duration":204081,"SoundDuration":204081,"Delta":405595265},{"NoteNumber":58,"Velocity":52,"Duration":204081,"SoundDuration":204081,"Delta":405595265},{"NoteNumber":61,"Velocity":52,"Duration":204081,"SoundDuration":204081,"Delta":405595265},{"NoteNumber":65,"Velocity":62,"Duration":204081,"SoundDuration":204081,"Delta":405595265},{"NoteNumber":70,"Velocity":62,"Duration":204081,"SoundDuration":204081,"Delta":405595265},{"NoteNumber":57,"Velocity":27,"Duration":68027,"SoundDuration":68027,"Delta":406003428},{"NoteNumber":45,"Velocity":27,"Duration":68027,"SoundDuration":68027,"Delta":406003428},{"NoteNumber":58,"Velocity":29,"Duration":68027,"SoundDuration":68027,"Delta":406071455},{"NoteNumber":46,"Velocity":28,"Duration":68027,"SoundDuration":68027,"Delta":406071455},{"NoteNumber":61,"Velocity":30,"Duration":68027,"SoundDuration":68027,"Delta":406139482},{"NoteNumber":49,"Velocity":30,"Duration":68027,"SoundDuration":68027,"Delta":406139482},{"NoteNumber":65,"Velocity":35,"Duration":102040,"SoundDuration":102040,"Delta":406207509},{"NoteNumber":53,"Velocity":33,"Duration":102040,"SoundDuration":102040,"Delta":406207509},{"NoteNumber":57,"Velocity":27,"Duration":68027,"SoundDuration":68027,"Delta":406615672},{"NoteNumber":45,"Velocity":26,"Duration":68027,"SoundDuration":68027,"Delta":406615672},{"NoteNumber":58,"Velocity":29,"Duration":68027,"SoundDuration":68027,"Delta":406683699},{"NoteNumber":46,"Velocity":28,"Duration":68027,"SoundDuration":68027,"Delta":406683699},{"NoteNumber":61,"Velocity":30,"Duration":68027,"SoundDuration":68027,"Delta":406751726},{"NoteNumber":49,"Velocity":30,"Duration":68027,"SoundDuration":68027,"Delta":406751726},{"NoteNumber":65,"Velocity":39,"Duration":1132073,"SoundDuration":1132073,"Delta":406819754},{"NoteNumber":53,"Velocity":37,"Duration":1132073,"SoundDuration":1132073,"Delta":406819754},{"NoteNumber":56,"Velocity":100,"Duration":86956,"SoundDuration":86956,"Delta":407951828},{"NoteNumber":32,"Velocity":95,"Duration":86956,"SoundDuration":86956,"Delta":407951828},{"NoteNumber":44,"Velocity":95,"Duration":86956,"SoundDuration":86956,"Delta":407951828},{"NoteNumber":56,"Velocity":75,"Duration":1086956,"SoundDuration":1086956,"Delta":408430088},{"NoteNumber":65,"Velocity":89,"Duration":1065217,"SoundDuration":1065217,"Delta":408451827},{"NoteNumber":92,"Velocity":90,"Duration":1043477,"SoundDuration":1043477,"Delta":408473567},{"NoteNumber":89,"Velocity":90,"Duration":1043477,"SoundDuration":1043477,"Delta":408473567},{"NoteNumber":80,"Velocity":76,"Duration":1043477,"SoundDuration":1043477,"Delta":408473567},{"NoteNumber":73,"Velocity":89,"Duration":1043477,"SoundDuration":1043477,"Delta":408473567},{"NoteNumber":75,"Velocity":51,"Duration":260869,"SoundDuration":260869,"Delta":409517045},{"NoteNumber":84,"Velocity":60,"Duration":260869,"SoundDuration":260869,"Delta":409517045},{"NoteNumber":87,"Velocity":60,"Duration":260869,"SoundDuration":260869,"Delta":409517045},{"NoteNumber":56,"Velocity":49,"Duration":260869,"SoundDuration":260869,"Delta":409517045},{"NoteNumber":63,"Velocity":58,"Duration":260869,"SoundDuration":260869,"Delta":409517045},{"NoteNumber":66,"Velocity":58,"Duration":260869,"SoundDuration":260869,"Delta":409517045},{"NoteNumber":68,"Velocity":58,"Duration":260869,"SoundDuration":260869,"Delta":409517045},{"NoteNumber":77,"Velocity":55,"Duration":90634,"SoundDuration":90634,"Delta":409777914},{"NoteNumber":84,"Velocity":65,"Duration":90634,"SoundDuration":90634,"Delta":409777914},{"NoteNumber":89,"Velocity":65,"Duration":90634,"SoundDuration":90634,"Delta":409777914},{"NoteNumber":56,"Velocity":53,"Duration":90634,"SoundDuration":90634,"Delta":409777914},{"NoteNumber":63,"Velocity":63,"Duration":90634,"SoundDuration":90634,"Delta":409777914},{"NoteNumber":66,"Velocity":63,"Duration":90634,"SoundDuration":90634,"Delta":409777914},{"NoteNumber":68,"Velocity":63,"Duration":90634,"SoundDuration":90634,"Delta":409777914},{"NoteNumber":78,"Velocity":59,"Duration":193548,"SoundDuration":193548,"Delta":409868549},{"NoteNumber":84,"Velocity":70,"Duration":193548,"SoundDuration":193548,"Delta":409868549},{"NoteNumber":90,"Velocity":70,"Duration":193548,"SoundDuration":193548,"Delta":409868549},{"NoteNumber":56,"Velocity":57,"Duration":193548,"SoundDuration":193548,"Delta":409868549},{"NoteNumber":63,"Velocity":68,"Duration":193548,"SoundDuration":193548,"Delta":409868549},{"NoteNumber":66,"Velocity":68,"Duration":193548,"SoundDuration":193548,"Delta":409868549},{"NoteNumber":68,"Velocity":68,"Duration":193548,"SoundDuration":193548,"Delta":409868549},{"NoteNumber":77,"Velocity":56,"Duration":173913,"SoundDuration":173913,"Delta":410062097},{"NoteNumber":85,"Velocity":67,"Duration":173913,"SoundDuration":173913,"Delta":410062097},{"NoteNumber":89,"Velocity":67,"Duration":173913,"SoundDuration":173913,"Delta":410062097},{"NoteNumber":68,"Velocity":65,"Duration":173913,"SoundDuration":173913,"Delta":410062097},{"NoteNumber":61,"Velocity":55,"Duration":173913,"SoundDuration":173913,"Delta":410062097},{"NoteNumber":65,"Velocity":65,"Duration":173913,"SoundDuration":173913,"Delta":410062097},{"NoteNumber":69,"Velocity":81,"Duration":347825,"SoundDuration":347825,"Delta":410583836},{"NoteNumber":77,"Velocity":81,"Duration":347825,"SoundDuration":347825,"Delta":410583836},{"NoteNumber":65,"Velocity":77,"Duration":347825,"SoundDuration":347825,"Delta":410583836},{"NoteNumber":60,"Velocity":77,"Duration":347825,"SoundDuration":347825,"Delta":410583836},{"NoteNumber":53,"Velocity":65,"Duration":347825,"SoundDuration":347825,"Delta":410583836},{"NoteNumber":57,"Velocity":81,"Duration":378549,"SoundDuration":378549,"Delta":411105575},{"NoteNumber":65,"Velocity":81,"Duration":378549,"SoundDuration":378549,"Delta":411105575},{"NoteNumber":41,"Velocity":65,"Duration":378549,"SoundDuration":378549,"Delta":411105575},{"NoteNumber":48,"Velocity":77,"Duration":378549,"SoundDuration":378549,"Delta":411105575},{"NoteNumber":53,"Velocity":77,"Duration":378549,"SoundDuration":378549,"Delta":411105575},{"NoteNumber":29,"Velocity":79,"Duration":1381579,"SoundDuration":1381579,"Delta":411673399},{"NoteNumber":41,"Velocity":94,"Duration":1381579,"SoundDuration":1381579,"Delta":411673399},{"NoteNumber":30,"Velocity":82,"Duration":148026,"SoundDuration":148026,"Delta":413054978},{"NoteNumber":42,"Velocity":97,"Duration":148026,"SoundDuration":148026,"Delta":413054978},{"NoteNumber":57,"Velocity":27,"Duration":68965,"SoundDuration":68965,"Delta":415047719},{"NoteNumber":45,"Velocity":27,"Duration":68965,"SoundDuration":68965,"Delta":415047719},{"NoteNumber":58,"Velocity":29,"Duration":68965,"SoundDuration":68965,"Delta":415116685},{"NoteNumber":46,"Velocity":28,"Duration":68965,"SoundDuration":68965,"Delta":415116685},{"NoteNumber":61,"Velocity":30,"Duration":68965,"SoundDuration":68965,"Delta":415185650},{"NoteNumber":49,"Velocity":29,"Duration":68965,"SoundDuration":68965,"Delta":415185650},{"NoteNumber":65,"Velocity":34,"Duration":103448,"SoundDuration":103448,"Delta":415254616},{"NoteNumber":53,"Velocity":33,"Duration":103448,"SoundDuration":103448,"Delta":415254616},{"NoteNumber":57,"Velocity":29,"Duration":68965,"SoundDuration":68965,"Delta":415668409},{"NoteNumber":45,"Velocity":27,"Duration":68965,"SoundDuration":68965,"Delta":415668409},{"NoteNumber":58,"Velocity":30,"Duration":68965,"SoundDuration":68965,"Delta":415737374},{"NoteNumber":46,"Velocity":28,"Duration":68965,"SoundDuration":68965,"Delta":415737374},{"NoteNumber":61,"Velocity":31,"Duration":68965,"SoundDuration":68965,"Delta":415806340},{"NoteNumber":49,"Velocity":29,"Duration":68965,"SoundDuration":68965,"Delta":415806340},{"NoteNumber":65,"Velocity":39,"Duration":1241378,"SoundDuration":1241378,"Delta":415875305},{"NoteNumber":53,"Velocity":37,"Duration":1241378,"SoundDuration":1241378,"Delta":415875305},{"NoteNumber":58,"Velocity":100,"Duration":93750,"SoundDuration":93750,"Delta":417116684},{"NoteNumber":46,"Velocity":95,"Duration":93750,"SoundDuration":93750,"Delta":417116684},{"NoteNumber":34,"Velocity":95,"Duration":93750,"SoundDuration":93750,"Delta":417116684},{"NoteNumber":82,"Velocity":78,"Duration":843750,"SoundDuration":843750,"Delta":417679184},{"NoteNumber":90,"Velocity":92,"Duration":843750,"SoundDuration":843750,"Delta":417679184},{"NoteNumber":94,"Velocity":92,"Duration":843750,"SoundDuration":843750,"Delta":417679184},{"NoteNumber":63,"Velocity":85,"Duration":843750,"SoundDuration":843750,"Delta":417679184},{"NoteNumber":58,"Velocity":72,"Duration":843750,"SoundDuration":843750,"Delta":417679184},{"NoteNumber":60,"Velocity":72,"Duration":843750,"SoundDuration":843750,"Delta":417679184},{"NoteNumber":70,"Velocity":85,"Duration":843750,"SoundDuration":843750,"Delta":417679184},{"NoteNumber":66,"Velocity":85,"Duration":843750,"SoundDuration":843750,"Delta":417679184},{"NoteNumber":87,"Velocity":58,"Duration":93750,"SoundDuration":93750,"Delta":418522934},{"NoteNumber":84,"Velocity":58,"Duration":93750,"SoundDuration":93750,"Delta":418522934},{"NoteNumber":75,"Velocity":49,"Duration":93750,"SoundDuration":93750,"Delta":418522934},{"NoteNumber":58,"Velocity":47,"Duration":93750,"SoundDuration":93750,"Delta":418522934},{"NoteNumber":60,"Velocity":47,"Duration":93750,"SoundDuration":93750,"Delta":418522934},{"NoteNumber":63,"Velocity":56,"Duration":93750,"SoundDuration":93750,"Delta":418522934},{"NoteNumber":66,"Velocity":56,"Duration":93750,"SoundDuration":93750,"Delta":418522934},{"NoteNumber":70,"Velocity":56,"Duration":93750,"SoundDuration":93750,"Delta":418522934},{"NoteNumber":87,"Velocity":58,"Duration":187500,"SoundDuration":187500,"Delta":418616684},{"NoteNumber":84,"Velocity":58,"Duration":187500,"SoundDuration":187500,"Delta":418616684},{"NoteNumber":75,"Velocity":49,"Duration":187500,"SoundDuration":187500,"Delta":418616684},{"NoteNumber":58,"Velocity":47,"Duration":187500,"SoundDuration":187500,"Delta":418616684},{"NoteNumber":60,"Velocity":47,"Duration":187500,"SoundDuration":187500,"Delta":418616684},{"NoteNumber":63,"Velocity":56,"Duration":187500,"SoundDuration":187500,"Delta":418616684},{"NoteNumber":66,"Velocity":56,"Duration":187500,"SoundDuration":187500,"Delta":418616684},{"NoteNumber":70,"Velocity":56,"Duration":187500,"SoundDuration":187500,"Delta":418616684},{"NoteNumber":75,"Velocity":51,"Duration":281250,"SoundDuration":281250,"Delta":418804184},{"NoteNumber":84,"Velocity":61,"Duration":281250,"SoundDuration":281250,"Delta":418804184},{"NoteNumber":87,"Velocity":61,"Duration":281250,"SoundDuration":281250,"Delta":418804184},{"NoteNumber":63,"Velocity":56,"Duration":281250,"SoundDuration":281250,"Delta":418804184},{"NoteNumber":58,"Velocity":47,"Duration":281250,"SoundDuration":281250,"Delta":418804184},{"NoteNumber":60,"Velocity":47,"Duration":281250,"SoundDuration":281250,"Delta":418804184},{"NoteNumber":66,"Velocity":56,"Duration":281250,"SoundDuration":281250,"Delta":418804184},{"NoteNumber":70,"Velocity":56,"Duration":281250,"SoundDuration":281250,"Delta":418804184},{"NoteNumber":84,"Velocity":68,"Duration":93750,"SoundDuration":93750,"Delta":419085434},{"NoteNumber":89,"Velocity":68,"Duration":93750,"SoundDuration":93750,"Delta":419085434},{"NoteNumber":77,"Velocity":57,"Duration":93750,"SoundDuration":93750,"Delta":419085434},{"NoteNumber":60,"Velocity":51,"Duration":93750,"SoundDuration":93750,"Delta":419085434},{"NoteNumber":63,"Velocity":61,"Duration":93750,"SoundDuration":93750,"Delta":419085434},{"NoteNumber":58,"Velocity":51,"Duration":93750,"SoundDuration":93750,"Delta":419085434},{"NoteNumber":66,"Velocity":61,"Duration":93750,"SoundDuration":93750,"Delta":419085434},{"NoteNumber":70,"Velocity":61,"Duration":93750,"SoundDuration":93750,"Delta":419085434},{"NoteNumber":84,"Velocity":71,"Duration":204081,"SoundDuration":204081,"Delta":419179184},{"NoteNumber":78,"Velocity":60,"Duration":204081,"SoundDuration":204081,"Delta":419179184},{"NoteNumber":90,"Velocity":71,"Duration":204081,"SoundDuration":204081,"Delta":419179184},{"NoteNumber":63,"Velocity":66,"Duration":204081,"SoundDuration":204081,"Delta":419179184},{"NoteNumber":66,"Velocity":66,"Duration":204081,"SoundDuration":204081,"Delta":419179184},{"NoteNumber":58,"Velocity":56,"Duration":204081,"SoundDuration":204081,"Delta":419179184},{"NoteNumber":60,"Velocity":56,"Duration":204081,"SoundDuration":204081,"Delta":419179184},{"NoteNumber":70,"Velocity":66,"Duration":204081,"SoundDuration":204081,"Delta":419179184},{"NoteNumber":85,"Velocity":68,"Duration":204081,"SoundDuration":204081,"Delta":419383266},{"NoteNumber":77,"Velocity":57,"Duration":204081,"SoundDuration":204081,"Delta":419383266},{"NoteNumber":89,"Velocity":68,"Duration":204081,"SoundDuration":204081,"Delta":419383266},{"NoteNumber":65,"Velocity":62,"Duration":204081,"SoundDuration":204081,"Delta":419383266},{"NoteNumber":58,"Velocity":52,"Duration":204081,"SoundDuration":204081,"Delta":419383266},{"NoteNumber":61,"Velocity":62,"Duration":204081,"SoundDuration":204081,"Delta":419383266},{"NoteNumber":70,"Velocity":62,"Duration":204081,"SoundDuration":204081,"Delta":419383266},{"NoteNumber":57,"Velocity":29,"Duration":68027,"SoundDuration":68027,"Delta":419791429},{"NoteNumber":45,"Velocity":27,"Duration":68027,"SoundDuration":68027,"Delta":419791429},{"NoteNumber":58,"Velocity":30,"Duration":68027,"SoundDuration":68027,"Delta":419859456},{"NoteNumber":46,"Velocity":29,"Duration":68027,"SoundDuration":68027,"Delta":419859456},{"NoteNumber":61,"Velocity":32,"Duration":68027,"SoundDuration":68027,"Delta":419927483},{"NoteNumber":49,"Velocity":30,"Duration":68027,"SoundDuration":68027,"Delta":419927483},{"NoteNumber":65,"Velocity":37,"Duration":102040,"SoundDuration":102040,"Delta":419995510},{"NoteNumber":53,"Velocity":34,"Duration":102040,"SoundDuration":102040,"Delta":419995510},{"NoteNumber":57,"Velocity":29,"Duration":68027,"SoundDuration":68027,"Delta":420403673},{"NoteNumber":45,"Velocity":24,"Duration":68027,"SoundDuration":68027,"Delta":420403673},{"NoteNumber":58,"Velocity":30,"Duration":68027,"SoundDuration":68027,"Delta":420471700},{"NoteNumber":46,"Velocity":26,"Duration":68027,"SoundDuration":68027,"Delta":420471700},{"NoteNumber":61,"Velocity":32,"Duration":68027,"SoundDuration":68027,"Delta":420539727},{"NoteNumber":49,"Velocity":27,"Duration":68027,"SoundDuration":68027,"Delta":420539727},{"NoteNumber":65,"Velocity":39,"Duration":1067430,"SoundDuration":1067430,"Delta":420607755},{"NoteNumber":53,"Velocity":37,"Duration":1067430,"SoundDuration":1067430,"Delta":420607755},{"NoteNumber":48,"Velocity":100,"Duration":83565,"SoundDuration":83565,"Delta":421675185},{"NoteNumber":24,"Velocity":95,"Duration":83565,"SoundDuration":83565,"Delta":421675185},{"NoteNumber":36,"Velocity":95,"Duration":83565,"SoundDuration":83565,"Delta":421675185},{"NoteNumber":84,"Velocity":76,"Duration":1002785,"SoundDuration":1002785,"Delta":422176578},{"NoteNumber":92,"Velocity":90,"Duration":1002785,"SoundDuration":1002785,"Delta":422176578},{"NoteNumber":96,"Velocity":90,"Duration":1002785,"SoundDuration":1002785,"Delta":422176578},{"NoteNumber":68,"Velocity":89,"Duration":1002785,"SoundDuration":1002785,"Delta":422176578},{"NoteNumber":72,"Velocity":89,"Duration":1002785,"SoundDuration":1002785,"Delta":422176578},{"NoteNumber":65,"Velocity":75,"Duration":1002785,"SoundDuration":1002785,"Delta":422176578},{"NoteNumber":60,"Velocity":75,"Duration":1002785,"SoundDuration":1002785,"Delta":422176578},{"NoteNumber":91,"Velocity":60,"Duration":250696,"SoundDuration":250696,"Delta":423179364},{"NoteNumber":88,"Velocity":60,"Duration":250696,"SoundDuration":250696,"Delta":423179364},{"NoteNumber":79,"Velocity":51,"Duration":250696,"SoundDuration":250696,"Delta":423179364},{"NoteNumber":60,"Velocity":49,"Duration":250696,"SoundDuration":250696,"Delta":423179364},{"NoteNumber":70,"Velocity":58,"Duration":250696,"SoundDuration":250696,"Delta":423179364},{"NoteNumber":64,"Velocity":58,"Duration":250696,"SoundDuration":250696,"Delta":423179364},{"NoteNumber":72,"Velocity":58,"Duration":250696,"SoundDuration":250696,"Delta":423179364},{"NoteNumber":80,"Velocity":55,"Duration":90634,"SoundDuration":90634,"Delta":423430060},{"NoteNumber":88,"Velocity":65,"Duration":90634,"SoundDuration":90634,"Delta":423430060},{"NoteNumber":92,"Velocity":65,"Duration":90634,"SoundDuration":90634,"Delta":423430060},{"NoteNumber":64,"Velocity":63,"Duration":90634,"SoundDuration":90634,"Delta":423430060},{"NoteNumber":60,"Velocity":53,"Duration":90634,"SoundDuration":90634,"Delta":423430060},{"NoteNumber":72,"Velocity":63,"Duration":90634,"SoundDuration":90634,"Delta":423430060},{"NoteNumber":70,"Velocity":63,"Duration":90634,"SoundDuration":90634,"Delta":423430060},{"NoteNumber":82,"Velocity":59,"Duration":193548,"SoundDuration":193548,"Delta":423520695},{"NoteNumber":88,"Velocity":70,"Duration":193548,"SoundDuration":193548,"Delta":423520695},{"NoteNumber":94,"Velocity":70,"Duration":193548,"SoundDuration":193548,"Delta":423520695},{"NoteNumber":70,"Velocity":68,"Duration":193548,"SoundDuration":193548,"Delta":423520695},{"NoteNumber":60,"Velocity":57,"Duration":193548,"SoundDuration":193548,"Delta":423520695},{"NoteNumber":64,"Velocity":68,"Duration":193548,"SoundDuration":193548,"Delta":423520695},{"NoteNumber":72,"Velocity":68,"Duration":193548,"SoundDuration":193548,"Delta":423520695},{"NoteNumber":92,"Velocity":67,"Duration":173913,"SoundDuration":173913,"Delta":423714243},{"NoteNumber":89,"Velocity":67,"Duration":173913,"SoundDuration":173913,"Delta":423714243},{"NoteNumber":80,"Velocity":56,"Duration":173913,"SoundDuration":173913,"Delta":423714243},{"NoteNumber":72,"Velocity":65,"Duration":173913,"SoundDuration":173913,"Delta":423714243},{"NoteNumber":65,"Velocity":55,"Duration":173913,"SoundDuration":173913,"Delta":423714243},{"NoteNumber":68,"Velocity":65,"Duration":173913,"SoundDuration":173913,"Delta":423714243},{"NoteNumber":72,"Velocity":81,"Duration":362537,"SoundDuration":362537,"Delta":424235982},{"NoteNumber":80,"Velocity":81,"Duration":362537,"SoundDuration":362537,"Delta":424235982},{"NoteNumber":68,"Velocity":68,"Duration":362537,"SoundDuration":362537,"Delta":424235982},{"NoteNumber":77,"Velocity":81,"Duration":362537,"SoundDuration":362537,"Delta":424235982},{"NoteNumber":53,"Velocity":65,"Duration":362537,"SoundDuration":362537,"Delta":424235982},{"NoteNumber":65,"Velocity":77,"Duration":362537,"SoundDuration":362537,"Delta":424235982},{"NoteNumber":60,"Velocity":77,"Duration":362537,"SoundDuration":362537,"Delta":424235982},{"NoteNumber":60,"Velocity":81,"Duration":422534,"SoundDuration":422534,"Delta":424779789},{"NoteNumber":68,"Velocity":81,"Duration":422534,"SoundDuration":422534,"Delta":424779789},{"NoteNumber":56,"Velocity":68,"Duration":422534,"SoundDuration":422534,"Delta":424779789},{"NoteNumber":65,"Velocity":81,"Duration":422534,"SoundDuration":422534,"Delta":424779789},{"NoteNumber":53,"Velocity":77,"Duration":422534,"SoundDuration":422534,"Delta":424779789},{"NoteNumber":48,"Velocity":77,"Duration":422534,"SoundDuration":422534,"Delta":424779789},{"NoteNumber":41,"Velocity":65,"Duration":422534,"SoundDuration":422534,"Delta":424779789},{"NoteNumber":28,"Velocity":79,"Duration":1184211,"SoundDuration":1184211,"Delta":425413592},{"NoteNumber":40,"Velocity":94,"Duration":1184211,"SoundDuration":1184211,"Delta":425413592},{"NoteNumber":41,"Velocity":94,"Duration":753967,"SoundDuration":753967,"Delta":426597803},{"NoteNumber":29,"Velocity":94,"Duration":753967,"SoundDuration":753967,"Delta":426597803},{"NoteNumber":38,"Velocity":50,"Duration":98185,"SoundDuration":98185,"Delta":427351770},{"NoteNumber":26,"Velocity":45,"Duration":98185,"SoundDuration":98185,"Delta":427351770},{"NoteNumber":39,"Velocity":51,"Duration":96454,"SoundDuration":96454,"Delta":427439133},{"NoteNumber":27,"Velocity":45,"Duration":96454,"SoundDuration":96454,"Delta":427439133},{"NoteNumber":41,"Velocity":51,"Duration":94784,"SoundDuration":94784,"Delta":427524972},{"NoteNumber":29,"Velocity":45,"Duration":94784,"SoundDuration":94784,"Delta":427524972},{"NoteNumber":39,"Velocity":52,"Duration":82584,"SoundDuration":82584,"Delta":427609340},{"NoteNumber":27,"Velocity":46,"Duration":92788,"SoundDuration":92788,"Delta":427609340},{"NoteNumber":41,"Velocity":53,"Duration":90911,"SoundDuration":90911,"Delta":427691924},{"NoteNumber":29,"Velocity":47,"Duration":80851,"SoundDuration":80851,"Delta":427691924},{"NoteNumber":39,"Velocity":55,"Duration":91074,"SoundDuration":91074,"Delta":427772776},{"NoteNumber":27,"Velocity":49,"Duration":91074,"SoundDuration":91074,"Delta":427772776},{"NoteNumber":41,"Velocity":56,"Duration":92227,"SoundDuration":92227,"Delta":427850597},{"NoteNumber":29,"Velocity":50,"Duration":92277,"SoundDuration":92277,"Delta":427853646},{"NoteNumber":39,"Velocity":56,"Duration":92656,"SoundDuration":92656,"Delta":427935593},{"NoteNumber":27,"Velocity":51,"Duration":92656,"SoundDuration":92656,"Delta":427935593},{"NoteNumber":41,"Velocity":57,"Duration":92996,"SoundDuration":92996,"Delta":428017940},{"NoteNumber":29,"Velocity":51,"Duration":92996,"SoundDuration":92996,"Delta":428017940},{"NoteNumber":39,"Velocity":58,"Duration":72614,"SoundDuration":72614,"Delta":428100564},{"NoteNumber":27,"Velocity":52,"Duration":72614,"SoundDuration":72614,"Delta":428100564},{"NoteNumber":41,"Velocity":59,"Duration":72614,"SoundDuration":72614,"Delta":428162804},{"NoteNumber":29,"Velocity":53,"Duration":72614,"SoundDuration":72614,"Delta":428162804},{"NoteNumber":39,"Velocity":60,"Duration":72614,"SoundDuration":72614,"Delta":428225045},{"NoteNumber":27,"Velocity":53,"Duration":72614,"SoundDuration":72614,"Delta":428225045},{"NoteNumber":41,"Velocity":61,"Duration":72700,"SoundDuration":72700,"Delta":428287285},{"NoteNumber":29,"Velocity":54,"Duration":72700,"SoundDuration":72700,"Delta":428287285},{"NoteNumber":39,"Velocity":62,"Duration":63291,"SoundDuration":63291,"Delta":428346414},{"NoteNumber":27,"Velocity":55,"Duration":74207,"SoundDuration":74207,"Delta":428349526},{"NoteNumber":41,"Velocity":62,"Duration":77007,"SoundDuration":77007,"Delta":428412911},{"NoteNumber":29,"Velocity":55,"Duration":77007,"SoundDuration":77007,"Delta":428412911},{"NoteNumber":39,"Velocity":62,"Duration":79872,"SoundDuration":79872,"Delta":428478708},{"NoteNumber":27,"Velocity":56,"Duration":79872,"SoundDuration":79872,"Delta":428478708},{"NoteNumber":41,"Velocity":63,"Duration":83120,"SoundDuration":83120,"Delta":428546899},{"NoteNumber":29,"Velocity":56,"Duration":83120,"SoundDuration":83120,"Delta":428546899},{"NoteNumber":39,"Velocity":64,"Duration":124035,"SoundDuration":124035,"Delta":428617883},{"NoteNumber":27,"Velocity":59,"Duration":124035,"SoundDuration":124035,"Delta":428617883},{"NoteNumber":38,"Velocity":73,"Duration":222772,"SoundDuration":222772,"Delta":428717166},{"NoteNumber":26,"Velocity":73,"Duration":222772,"SoundDuration":222772,"Delta":428717166},{"NoteNumber":39,"Velocity":73,"Duration":208568,"SoundDuration":208568,"Delta":428915186},{"NoteNumber":27,"Velocity":73,"Duration":208568,"SoundDuration":208568,"Delta":428915186},{"NoteNumber":101,"Velocity":97,"Duration":957456,"SoundDuration":957456,"Delta":429113206},{"NoteNumber":25,"Velocity":74,"Duration":126582,"SoundDuration":126582,"Delta":429113206},{"NoteNumber":37,"Velocity":88,"Duration":126582,"SoundDuration":126582,"Delta":429113206},{"NoteNumber":44,"Velocity":45,"Duration":225564,"SoundDuration":225564,"Delta":429619535},{"NoteNumber":56,"Velocity":45,"Duration":225564,"SoundDuration":225564,"Delta":429619535},{"NoteNumber":61,"Velocity":53,"Duration":225563,"SoundDuration":225563,"Delta":429845099},{"NoteNumber":53,"Velocity":53,"Duration":225563,"SoundDuration":225563,"Delta":429845099},{"NoteNumber":99,"Velocity":68,"Duration":88495,"SoundDuration":88495,"Delta":430070663},{"NoteNumber":97,"Velocity":62,"Duration":88495,"SoundDuration":88495,"Delta":430159158},{"NoteNumber":92,"Velocity":65,"Duration":88495,"SoundDuration":88495,"Delta":430247654},{"NoteNumber":44,"Velocity":42,"Duration":176990,"SoundDuration":176990,"Delta":430247654},{"NoteNumber":56,"Velocity":42,"Duration":176990,"SoundDuration":176990,"Delta":430247654},{"NoteNumber":89,"Velocity":60,"Duration":88495,"SoundDuration":88495,"Delta":430336149},{"NoteNumber":87,"Velocity":62,"Duration":88495,"SoundDuration":88495,"Delta":430424645},{"NoteNumber":53,"Velocity":47,"Duration":176991,"SoundDuration":176991,"Delta":430424645},{"NoteNumber":61,"Velocity":47,"Duration":176991,"SoundDuration":176991,"Delta":430424645},{"NoteNumber":85,"Velocity":57,"Duration":88495,"SoundDuration":88495,"Delta":430513140},{"NoteNumber":80,"Velocity":58,"Duration":88495,"SoundDuration":88495,"Delta":430601636},{"NoteNumber":77,"Velocity":52,"Duration":88495,"SoundDuration":88495,"Delta":430690131},{"NoteNumber":75,"Velocity":55,"Duration":88495,"SoundDuration":88495,"Delta":430778627},{"NoteNumber":73,"Velocity":51,"Duration":88495,"SoundDuration":88495,"Delta":430867122},{"NoteNumber":68,"Velocity":52,"Duration":176990,"SoundDuration":176990,"Delta":430955618},{"NoteNumber":72,"Velocity":55,"Duration":88845,"SoundDuration":88845,"Delta":431486591},{"NoteNumber":32,"Velocity":52,"Duration":88845,"SoundDuration":88845,"Delta":431486591},{"NoteNumber":44,"Velocity":52,"Duration":88845,"SoundDuration":88845,"Delta":431486591},{"NoteNumber":73,"Velocity":52,"Duration":89197,"SoundDuration":89197,"Delta":431575436},{"NoteNumber":75,"Velocity":50,"Duration":89641,"SoundDuration":89641,"Delta":431664634},{"NoteNumber":77,"Velocity":47,"Duration":90000,"SoundDuration":90000,"Delta":431754275},{"NoteNumber":78,"Velocity":45,"Duration":90452,"SoundDuration":90452,"Delta":431844275},{"NoteNumber":80,"Velocity":42,"Duration":90813,"SoundDuration":90813,"Delta":431929441},{"NoteNumber":81,"Velocity":40,"Duration":109090,"SoundDuration":109090,"Delta":432025573},{"NoteNumber":66,"Velocity":38,"Duration":218182,"SoundDuration":218182,"Delta":432025573},{"NoteNumber":55,"Velocity":38,"Duration":218182,"SoundDuration":218182,"Delta":432025573},{"NoteNumber":60,"Velocity":38,"Duration":218182,"SoundDuration":218182,"Delta":432025573},{"NoteNumber":56,"Velocity":35,"Duration":197368,"SoundDuration":197368,"Delta":432243755},{"NoteNumber":60,"Velocity":35,"Duration":197368,"SoundDuration":197368,"Delta":432243755},{"NoteNumber":66,"Velocity":35,"Duration":197368,"SoundDuration":197368,"Delta":432243755},{"NoteNumber":66,"Velocity":31,"Duration":98684,"SoundDuration":98684,"Delta":432441123},{"NoteNumber":56,"Velocity":31,"Duration":98684,"SoundDuration":98684,"Delta":432441123},{"NoteNumber":60,"Velocity":31,"Duration":98684,"SoundDuration":98684,"Delta":432441123},{"NoteNumber":81,"Velocity":50,"Duration":90270,"SoundDuration":90270,"Delta":432638492},{"NoteNumber":80,"Velocity":49,"Duration":89910,"SoundDuration":89910,"Delta":432728763},{"NoteNumber":79,"Velocity":47,"Duration":89463,"SoundDuration":89463,"Delta":432818673},{"NoteNumber":78,"Velocity":46,"Duration":89109,"SoundDuration":89109,"Delta":432908137},{"NoteNumber":77,"Velocity":44,"Duration":88670,"SoundDuration":88670,"Delta":432997246},{"NoteNumber":76,"Velocity":42,"Duration":88296,"SoundDuration":88296,"Delta":433085916},{"NoteNumber":75,"Velocity":41,"Duration":107527,"SoundDuration":107527,"Delta":433174212},{"NoteNumber":57,"Velocity":35,"Duration":215054,"SoundDuration":215054,"Delta":433174212},{"NoteNumber":60,"Velocity":35,"Duration":215054,"SoundDuration":215054,"Delta":433174212},{"NoteNumber":66,"Velocity":35,"Duration":215054,"SoundDuration":215054,"Delta":433174212},{"NoteNumber":66,"Velocity":32,"Duration":197368,"SoundDuration":197368,"Delta":433389266},{"NoteNumber":60,"Velocity":32,"Duration":197368,"SoundDuration":197368,"Delta":433389266},{"NoteNumber":56,"Velocity":32,"Duration":197368,"SoundDuration":197368,"Delta":433389266},{"NoteNumber":66,"Velocity":28,"Duration":98684,"SoundDuration":98684,"Delta":433586634},{"NoteNumber":60,"Velocity":28,"Duration":98684,"SoundDuration":98684,"Delta":433586634},{"NoteNumber":56,"Velocity":28,"Duration":98684,"SoundDuration":98684,"Delta":433586634},{"NoteNumber":101,"Velocity":97,"Duration":872180,"SoundDuration":872180,"Delta":433784003},{"NoteNumber":25,"Velocity":74,"Duration":112781,"SoundDuration":112781,"Delta":433784003},{"NoteNumber":37,"Velocity":88,"Duration":112781,"SoundDuration":112781,"Delta":433784003},{"NoteNumber":44,"Velocity":45,"Duration":210526,"SoundDuration":210526,"Delta":434235131},{"NoteNumber":56,"Velocity":45,"Duration":210526,"SoundDuration":210526,"Delta":434235131},{"NoteNumber":61,"Velocity":53,"Duration":210526,"SoundDuration":210526,"Delta":434445657},{"NoteNumber":53,"Velocity":53,"Duration":210526,"SoundDuration":210526,"Delta":434445657},{"NoteNumber":99,"Velocity":68,"Duration":86705,"SoundDuration":86705,"Delta":434656184},{"NoteNumber":97,"Velocity":61,"Duration":86705,"SoundDuration":86705,"Delta":434742889},{"NoteNumber":92,"Velocity":65,"Duration":86705,"SoundDuration":86705,"Delta":434829594},{"NoteNumber":44,"Velocity":42,"Duration":173410,"SoundDuration":173410,"Delta":434829594},{"NoteNumber":56,"Velocity":42,"Duration":173410,"SoundDuration":173410,"Delta":434829594},{"NoteNumber":89,"Velocity":59,"Duration":86705,"SoundDuration":86705,"Delta":434916300},{"NoteNumber":87,"Velocity":62,"Duration":86705,"SoundDuration":86705,"Delta":435003005},{"NoteNumber":53,"Velocity":47,"Duration":173410,"SoundDuration":173410,"Delta":435003005},{"NoteNumber":61,"Velocity":47,"Duration":173410,"SoundDuration":173410,"Delta":435003005},{"NoteNumber":85,"Velocity":57,"Duration":86705,"SoundDuration":86705,"Delta":435089710},{"NoteNumber":80,"Velocity":58,"Duration":86705,"SoundDuration":86705,"Delta":435176415},{"NoteNumber":77,"Velocity":57,"Duration":86705,"SoundDuration":86705,"Delta":435263121},{"NoteNumber":75,"Velocity":55,"Duration":86705,"SoundDuration":86705,"Delta":435349826},{"NoteNumber":73,"Velocity":51,"Duration":86705,"SoundDuration":86705,"Delta":435436531},{"NoteNumber":68,"Velocity":52,"Duration":172910,"SoundDuration":172910,"Delta":435523236},{"NoteNumber":72,"Velocity":42,"Duration":88278,"SoundDuration":88278,"Delta":436041968},{"NoteNumber":44,"Velocity":25,"Duration":534214,"SoundDuration":534214,"Delta":436041968},{"NoteNumber":51,"Velocity":25,"Duration":534214,"SoundDuration":534214,"Delta":436041968},{"NoteNumber":54,"Velocity":25,"Duration":534214,"SoundDuration":534214,"Delta":436041968},{"NoteNumber":73,"Velocity":41,"Duration":88565,"SoundDuration":88565,"Delta":436130247},{"NoteNumber":75,"Velocity":41,"Duration":88871,"SoundDuration":88871,"Delta":436218812},{"NoteNumber":77,"Velocity":40,"Duration":89179,"SoundDuration":89179,"Delta":436307683},{"NoteNumber":78,"Velocity":39,"Duration":89490,"SoundDuration":89490,"Delta":436396863},{"NoteNumber":80,"Velocity":38,"Duration":89797,"SoundDuration":89797,"Delta":436481129},{"NoteNumber":81,"Velocity":37,"Duration":89820,"SoundDuration":89820,"Delta":436576183},{"NoteNumber":60,"Velocity":32,"Duration":89820,"SoundDuration":89820,"Delta":436576183},{"NoteNumber":61,"Velocity":32,"Duration":89820,"SoundDuration":89820,"Delta":436666003},{"NoteNumber":63,"Velocity":32,"Duration":89820,"SoundDuration":89820,"Delta":436755823},{"NoteNumber":65,"Velocity":32,"Duration":89820,"SoundDuration":89820,"Delta":436845643},{"NoteNumber":66,"Velocity":32,"Duration":89820,"SoundDuration":89820,"Delta":436935464},{"NoteNumber":68,"Velocity":32,"Duration":89820,"SoundDuration":89820,"Delta":437025284},{"NoteNumber":81,"Velocity":42,"Duration":88235,"SoundDuration":88235,"Delta":437115104},{"NoteNumber":69,"Velocity":32,"Duration":88235,"SoundDuration":88235,"Delta":437115104},{"NoteNumber":80,"Velocity":41,"Duration":88235,"SoundDuration":88235,"Delta":437203339},{"NoteNumber":79,"Velocity":40,"Duration":88235,"SoundDuration":88235,"Delta":437291575},{"NoteNumber":78,"Velocity":39,"Duration":88235,"SoundDuration":88235,"Delta":437379810},{"NoteNumber":77,"Velocity":37,"Duration":88235,"SoundDuration":88235,"Delta":437468045},{"NoteNumber":76,"Velocity":36,"Duration":88235,"SoundDuration":88235,"Delta":437556280},{"NoteNumber":75,"Velocity":35,"Duration":190613,"SoundDuration":190613,"Delta":437644516},{"NoteNumber":57,"Velocity":30,"Duration":94020,"SoundDuration":94020,"Delta":437644516},{"NoteNumber":56,"Velocity":29,"Duration":96593,"SoundDuration":96593,"Delta":437738536},{"NoteNumber":55,"Velocity":28,"Duration":99344,"SoundDuration":99344,"Delta":437835129},{"NoteNumber":54,"Velocity":27,"Duration":102303,"SoundDuration":102303,"Delta":437934473},{"NoteNumber":53,"Velocity":26,"Duration":105357,"SoundDuration":105357,"Delta":438036777},{"NoteNumber":51,"Velocity":25,"Duration":108664,"SoundDuration":108664,"Delta":438142135},{"NoteNumber":71,"Velocity":40,"Duration":1412432,"SoundDuration":1412432,"Delta":438250800},{"NoteNumber":77,"Velocity":59,"Duration":930231,"SoundDuration":930231,"Delta":438250800},{"NoteNumber":49,"Velocity":27,"Duration":116279,"SoundDuration":116279,"Delta":438250800},{"NoteNumber":56,"Velocity":28,"Duration":116278,"SoundDuration":116278,"Delta":438367079},{"NoteNumber":61,"Velocity":30,"Duration":116279,"SoundDuration":116279,"Delta":438483358},{"NoteNumber":65,"Velocity":34,"Duration":116279,"SoundDuration":116279,"Delta":438599637},{"NoteNumber":61,"Velocity":31,"Duration":116278,"SoundDuration":116278,"Delta":438715916},{"NoteNumber":56,"Velocity":30,"Duration":116279,"SoundDuration":116279,"Delta":438832195},{"NoteNumber":49,"Velocity":29,"Duration":116279,"SoundDuration":116279,"Delta":438948474},{"NoteNumber":59,"Velocity":28,"Duration":116278,"SoundDuration":116278,"Delta":439064753},{"NoteNumber":75,"Velocity":53,"Duration":353995,"SoundDuration":353995,"Delta":439181032},{"NoteNumber":61,"Velocity":30,"Duration":116371,"SoundDuration":116371,"Delta":439181032},{"NoteNumber":65,"Velocity":31,"Duration":117972,"SoundDuration":117972,"Delta":439297403},{"NoteNumber":61,"Velocity":30,"Duration":119651,"SoundDuration":119651,"Delta":439415375},{"NoteNumber":73,"Velocity":52,"Duration":117521,"SoundDuration":117521,"Delta":439535027},{"NoteNumber":59,"Velocity":29,"Duration":128205,"SoundDuration":128205,"Delta":439535027},{"NoteNumber":71,"Velocity":38,"Duration":694979,"SoundDuration":694979,"Delta":439663232},{"NoteNumber":73,"Velocity":56,"Duration":694979,"SoundDuration":694979,"Delta":439663232},{"NoteNumber":54,"Velocity":28,"Duration":115830,"SoundDuration":115830,"Delta":439663232},{"NoteNumber":59,"Velocity":28,"Duration":115829,"SoundDuration":115829,"Delta":439779062},{"NoteNumber":61,"Velocity":31,"Duration":115830,"SoundDuration":115830,"Delta":439894892},{"NoteNumber":66,"Velocity":34,"Duration":115830,"SoundDuration":115830,"Delta":440010722},{"NoteNumber":61,"Velocity":31,"Duration":115830,"SoundDuration":115830,"Delta":440126552},{"NoteNumber":59,"Velocity":29,"Duration":115829,"SoundDuration":115829,"Delta":440242382},{"NoteNumber":70,"Velocity":56,"Duration":646492,"SoundDuration":646492,"Delta":440358212},{"NoteNumber":78,"Velocity":56,"Duration":1069027,"SoundDuration":1069027,"Delta":440358212},{"NoteNumber":49,"Velocity":29,"Duration":109356,"SoundDuration":109356,"Delta":440358212},{"NoteNumber":58,"Velocity":28,"Duration":108722,"SoundDuration":108722,"Delta":440467568},{"NoteNumber":61,"Velocity":30,"Duration":108069,"SoundDuration":108069,"Delta":440576291},{"NoteNumber":66,"Velocity":33,"Duration":107398,"SoundDuration":107398,"Delta":440684360},{"NoteNumber":61,"Velocity":31,"Duration":106787,"SoundDuration":106787,"Delta":440791759},{"NoteNumber":58,"Velocity":30,"Duration":106157,"SoundDuration":106157,"Delta":440898547},{"NoteNumber":71,"Velocity":50,"Duration":1323589,"SoundDuration":1323589,"Delta":441004704},{"NoteNumber":56,"Velocity":28,"Duration":105633,"SoundDuration":105633,"Delta":441004704},{"NoteNumber":59,"Velocity":28,"Duration":105633,"SoundDuration":105633,"Delta":441110338},{"NoteNumber":61,"Velocity":30,"Duration":105633,"SoundDuration":105633,"Delta":441215972},{"NoteNumber":68,"Velocity":33,"Duration":105633,"SoundDuration":105633,"Delta":441321605},{"NoteNumber":77,"Velocity":52,"Duration":209853,"SoundDuration":209853,"Delta":441427239},{"NoteNumber":61,"Velocity":31,"Duration":109488,"SoundDuration":109488,"Delta":441427239},{"NoteNumber":59,"Velocity":29,"Duration":109488,"SoundDuration":109488,"Delta":441536728},{"NoteNumber":77,"Velocity":51,"Duration":215160,"SoundDuration":215160,"Delta":441646217},{"NoteNumber":49,"Velocity":29,"Duration":107401,"SoundDuration":107401,"Delta":441646217},{"NoteNumber":59,"Velocity":28,"Duration":107759,"SoundDuration":107759,"Delta":441753619},{"NoteNumber":75,"Velocity":50,"Duration":217433,"SoundDuration":217433,"Delta":441861378},{"NoteNumber":61,"Velocity":30,"Duration":108434,"SoundDuration":108434,"Delta":441861378},{"NoteNumber":65,"Velocity":31,"Duration":108999,"SoundDuration":108999,"Delta":441969812},{"NoteNumber":73,"Velocity":49,"Duration":249482,"SoundDuration":249482,"Delta":442078811},{"NoteNumber":61,"Velocity":30,"Duration":125522,"SoundDuration":125522,"Delta":442078811},{"NoteNumber":59,"Velocity":29,"Duration":123959,"SoundDuration":123959,"Delta":442204334},{"NoteNumber":70,"Velocity":44,"Duration":643625,"SoundDuration":643625,"Delta":442328294},{"NoteNumber":73,"Velocity":44,"Duration":643625,"SoundDuration":643625,"Delta":442328294},{"NoteNumber":82,"Velocity":56,"Duration":643625,"SoundDuration":643625,"Delta":442328294},{"NoteNumber":54,"Velocity":29,"Duration":109583,"SoundDuration":109583,"Delta":442328294},{"NoteNumber":58,"Velocity":30,"Duration":108657,"SoundDuration":108657,"Delta":442437877},{"NoteNumber":61,"Velocity":34,"Duration":107707,"SoundDuration":107707,"Delta":442546534},{"NoteNumber":66,"Velocity":35,"Duration":106787,"SoundDuration":106787,"Delta":442654242},{"NoteNumber":61,"Velocity":34,"Duration":105907,"SoundDuration":105907,"Delta":442761029},{"NoteNumber":58,"Velocity":33,"Duration":104981,"SoundDuration":104981,"Delta":442866937},{"NoteNumber":68,"Velocity":44,"Duration":759960,"SoundDuration":759960,"Delta":442971919},{"NoteNumber":73,"Velocity":44,"Duration":759960,"SoundDuration":759960,"Delta":442971919},{"NoteNumber":82,"Velocity":62,"Duration":489690,"SoundDuration":489690,"Delta":442971919},{"NoteNumber":52,"Velocity":35,"Duration":120481,"SoundDuration":120481,"Delta":442971919},{"NoteNumber":58,"Velocity":36,"Duration":119928,"SoundDuration":119928,"Delta":443092401},{"NoteNumber":61,"Velocity":39,"Duration":124481,"SoundDuration":124481,"Delta":443212329},{"NoteNumber":68,"Velocity":37,"Duration":124799,"SoundDuration":124799,"Delta":443336810},{"NoteNumber":82,"Velocity":64,"Duration":270270,"SoundDuration":270270,"Delta":443461609},{"NoteNumber":61,"Velocity":34,"Duration":135135,"SoundDuration":135135,"Delta":443461609},{"NoteNumber":58,"Velocity":31,"Duration":135135,"SoundDuration":135135,"Delta":443596744},{"NoteNumber":67,"Velocity":44,"Duration":67567,"SoundDuration":67567,"Delta":443664312},{"NoteNumber":73,"Velocity":45,"Duration":1498589,"SoundDuration":1498589,"Delta":443731880},{"NoteNumber":82,"Velocity":68,"Duration":478088,"SoundDuration":478088,"Delta":443731880},{"NoteNumber":51,"Velocity":36,"Duration":119522,"SoundDuration":119522,"Delta":443731880},{"NoteNumber":58,"Velocity":38,"Duration":119521,"SoundDuration":119521,"Delta":443851402},{"NoteNumber":61,"Velocity":41,"Duration":119522,"SoundDuration":119522,"Delta":443970924},{"NoteNumber":67,"Velocity":45,"Duration":119522,"SoundDuration":119522,"Delta":444090446},{"NoteNumber":75,"Velocity":57,"Duration":265119,"SoundDuration":265119,"Delta":444209968},{"NoteNumber":61,"Velocity":42,"Duration":132158,"SoundDuration":132158,"Delta":444209968},{"NoteNumber":58,"Velocity":39,"Duration":132961,"SoundDuration":132961,"Delta":444342126},{"NoteNumber":75,"Velocity":57,"Duration":236220,"SoundDuration":236220,"Delta":444475087},{"NoteNumber":55,"Velocity":36,"Duration":118110,"SoundDuration":118110,"Delta":444475087},{"NoteNumber":61,"Velocity":38,"Duration":118110,"SoundDuration":118110,"Delta":444593198},{"NoteNumber":77,"Velocity":51,"Duration":59055,"SoundDuration":59055,"Delta":444711308},{"NoteNumber":63,"Velocity":41,"Duration":118110,"SoundDuration":118110,"Delta":444711308},{"NoteNumber":79,"Velocity":51,"Duration":59055,"SoundDuration":59055,"Delta":444770363},{"NoteNumber":77,"Velocity":56,"Duration":257510,"SoundDuration":257510,"Delta":444829418},{"NoteNumber":70,"Velocity":46,"Duration":128755,"SoundDuration":128755,"Delta":444829418},{"NoteNumber":63,"Velocity":42,"Duration":128755,"SoundDuration":128755,"Delta":444958173},{"NoteNumber":75,"Velocity":56,"Duration":131579,"SoundDuration":131579,"Delta":445086929},{"NoteNumber":61,"Velocity":39,"Duration":143540,"SoundDuration":143540,"Delta":445086929},{"NoteNumber":73,"Velocity":49,"Duration":647482,"SoundDuration":647482,"Delta":445230469},{"NoteNumber":75,"Velocity":59,"Duration":647482,"SoundDuration":647482,"Delta":445230469},{"NoteNumber":56,"Velocity":37,"Duration":107913,"SoundDuration":107913,"Delta":445230469},{"NoteNumber":61,"Velocity":38,"Duration":107913,"SoundDuration":107913,"Delta":445338383},{"NoteNumber":63,"Velocity":42,"Duration":107913,"SoundDuration":107913,"Delta":445446297},{"NoteNumber":68,"Velocity":45,"Duration":107913,"SoundDuration":107913,"Delta":445554211},{"NoteNumber":63,"Velocity":41,"Duration":107913,"SoundDuration":107913,"Delta":445662124},{"NoteNumber":61,"Velocity":38,"Duration":107913,"SoundDuration":107913,"Delta":445770038},{"NoteNumber":72,"Velocity":53,"Duration":608107,"SoundDuration":608107,"Delta":445877952},{"NoteNumber":80,"Velocity":64,"Duration":810810,"SoundDuration":810810,"Delta":445877952},{"NoteNumber":51,"Velocity":36,"Duration":101351,"SoundDuration":101351,"Delta":445877952},{"NoteNumber":60,"Velocity":37,"Duration":101351,"SoundDuration":101351,"Delta":445979303},{"NoteNumber":63,"Velocity":40,"Duration":101351,"SoundDuration":101351,"Delta":446080654},{"NoteNumber":68,"Velocity":44,"Duration":101351,"SoundDuration":101351,"Delta":446182006},{"NoteNumber":63,"Velocity":41,"Duration":101351,"SoundDuration":101351,"Delta":446283357},{"NoteNumber":60,"Velocity":39,"Duration":101351,"SoundDuration":101351,"Delta":446384708},{"NoteNumber":73,"Velocity":55,"Duration":1409974,"SoundDuration":1409974,"Delta":446486059},{"NoteNumber":58,"Velocity":36,"Duration":101351,"SoundDuration":101351,"Delta":446486059},{"NoteNumber":61,"Velocity":37,"Duration":101351,"SoundDuration":101351,"Delta":446587411},{"NoteNumber":79,"Velocity":60,"Duration":202702,"SoundDuration":202702,"Delta":446688762},{"NoteNumber":63,"Velocity":40,"Duration":101351,"SoundDuration":101351,"Delta":446688762},{"NoteNumber":70,"Velocity":42,"Duration":101351,"SoundDuration":101351,"Delta":446790113},{"NoteNumber":77,"Velocity":59,"Duration":209789,"SoundDuration":209789,"Delta":446891464},{"NoteNumber":63,"Velocity":41,"Duration":104894,"SoundDuration":104894,"Delta":446891464},{"NoteNumber":61,"Velocity":39,"Duration":104894,"SoundDuration":104894,"Delta":446996359},{"NoteNumber":79,"Velocity":60,"Duration":209789,"SoundDuration":209789,"Delta":447101254},{"NoteNumber":51,"Velocity":37,"Duration":104894,"SoundDuration":104894,"Delta":447101254},{"NoteNumber":61,"Velocity":36,"Duration":104894,"SoundDuration":104894,"Delta":447206149},{"NoteNumber":77,"Velocity":59,"Duration":420154,"SoundDuration":420154,"Delta":447311044},{"NoteNumber":63,"Velocity":38,"Duration":127659,"SoundDuration":127659,"Delta":447311044},{"NoteNumber":67,"Velocity":40,"Duration":127659,"SoundDuration":127659,"Delta":447438704},{"NoteNumber":63,"Velocity":40,"Duration":164835,"SoundDuration":164835,"Delta":447566363},{"NoteNumber":75,"Velocity":56,"Duration":164835,"SoundDuration":164835,"Delta":447731199},{"NoteNumber":61,"Velocity":37,"Duration":164835,"SoundDuration":164835,"Delta":447731199},{"NoteNumber":72,"Velocity":56,"Duration":1517152,"SoundDuration":1517152,"Delta":447896034},{"NoteNumber":84,"Velocity":56,"Duration":648711,"SoundDuration":648711,"Delta":447896034},{"NoteNumber":56,"Velocity":50,"Duration":110091,"SoundDuration":110091,"Delta":447896034},{"NoteNumber":60,"Velocity":40,"Duration":109290,"SoundDuration":109290,"Delta":448006126},{"NoteNumber":63,"Velocity":44,"Duration":108499,"SoundDuration":108499,"Delta":448115416},{"NoteNumber":68,"Velocity":45,"Duration":107720,"SoundDuration":107720,"Delta":448223915},{"NoteNumber":63,"Velocity":44,"Duration":106952,"SoundDuration":106952,"Delta":448331636},{"NoteNumber":60,"Velocity":42,"Duration":106157,"SoundDuration":106157,"Delta":448438588},{"NoteNumber":84,"Velocity":64,"Duration":560747,"SoundDuration":560747,"Delta":448544746},{"NoteNumber":55,"Velocity":39,"Duration":868440,"SoundDuration":868440,"Delta":448544746},{"NoteNumber":56,"Velocity":41,"Duration":140186,"SoundDuration":140186,"Delta":448684933},{"NoteNumber":60,"Velocity":45,"Duration":140187,"SoundDuration":140187,"Delta":448825120},{"NoteNumber":63,"Velocity":49,"Duration":140186,"SoundDuration":140186,"Delta":448965307},{"NoteNumber":84,"Velocity":63,"Duration":294871,"SoundDuration":294871,"Delta":449105494},{"NoteNumber":60,"Velocity":47,"Duration":153846,"SoundDuration":153846,"Delta":449105494},{"NoteNumber":56,"Velocity":41,"Duration":153846,"SoundDuration":153846,"Delta":449259340},{"NoteNumber":84,"Velocity":68,"Duration":1004184,"SoundDuration":1004184,"Delta":449413186},{"NoteNumber":54,"Velocity":38,"Duration":753137,"SoundDuration":753137,"Delta":449413186},{"NoteNumber":56,"Velocity":36,"Duration":125522,"SoundDuration":125522,"Delta":449538709},{"NoteNumber":60,"Velocity":39,"Duration":125523,"SoundDuration":125523,"Delta":449664232},{"NoteNumber":63,"Velocity":42,"Duration":125522,"SoundDuration":125522,"Delta":449789755},{"NoteNumber":60,"Velocity":41,"Duration":125522,"SoundDuration":125522,"Delta":449915278},{"NoteNumber":56,"Velocity":38,"Duration":125522,"SoundDuration":125522,"Delta":450040801},{"NoteNumber":54,"Velocity":47,"Duration":722020,"SoundDuration":722020,"Delta":450166324},{"NoteNumber":56,"Velocity":41,"Duration":125522,"SoundDuration":125522,"Delta":450291847},{"NoteNumber":82,"Velocity":63,"Duration":354330,"SoundDuration":354330,"Delta":450417370},{"NoteNumber":60,"Velocity":41,"Duration":118110,"SoundDuration":118110,"Delta":450417370},{"NoteNumber":63,"Velocity":41,"Duration":118110,"SoundDuration":118110,"Delta":450535480},{"NoteNumber":60,"Velocity":38,"Duration":118110,"SoundDuration":118110,"Delta":450653591},{"NoteNumber":80,"Velocity":63,"Duration":108023,"SoundDuration":108023,"Delta":450771701},{"NoteNumber":56,"Velocity":35,"Duration":116644,"SoundDuration":116644,"Delta":450771701},{"NoteNumber":80,"Velocity":63,"Duration":608168,"SoundDuration":608168,"Delta":450888345},{"NoteNumber":53,"Velocity":34,"Duration":608168,"SoundDuration":608168,"Delta":450888345},{"NoteNumber":56,"Velocity":33,"Duration":102447,"SoundDuration":102447,"Delta":450991545},{"NoteNumber":61,"Velocity":36,"Duration":101718,"SoundDuration":101718,"Delta":451093992},{"NoteNumber":65,"Velocity":39,"Duration":100976,"SoundDuration":100976,"Delta":451195711},{"NoteNumber":61,"Velocity":37,"Duration":100279,"SoundDuration":100279,"Delta":451296688},{"NoteNumber":56,"Velocity":35,"Duration":99546,"SoundDuration":99546,"Delta":451396967},{"NoteNumber":85,"Velocity":75,"Duration":594060,"SoundDuration":594060,"Delta":451496514},{"NoteNumber":53,"Velocity":36,"Duration":99010,"SoundDuration":99010,"Delta":451496514},{"NoteNumber":56,"Velocity":38,"Duration":99009,"SoundDuration":99009,"Delta":451595524},{"NoteNumber":61,"Velocity":41,"Duration":99010,"SoundDuration":99010,"Delta":451694534},{"NoteNumber":68,"Velocity":42,"Duration":99010,"SoundDuration":99010,"Delta":451793544},{"NoteNumber":61,"Velocity":40,"Duration":99009,"SoundDuration":99009,"Delta":451892554},{"NoteNumber":56,"Velocity":37,"Duration":99010,"SoundDuration":99010,"Delta":451991564},{"NoteNumber":85,"Velocity":82,"Duration":396039,"SoundDuration":396039,"Delta":452090574},{"NoteNumber":51,"Velocity":35,"Duration":99009,"SoundDuration":99009,"Delta":452090574},{"NoteNumber":56,"Velocity":38,"Duration":99010,"SoundDuration":99010,"Delta":452189584},{"NoteNumber":60,"Velocity":41,"Duration":99010,"SoundDuration":99010,"Delta":452288594},{"NoteNumber":66,"Velocity":41,"Duration":99009,"SoundDuration":99009,"Delta":452387604},{"NoteNumber":84,"Velocity":78,"Duration":189769,"SoundDuration":189769,"Delta":452486614},{"NoteNumber":60,"Velocity":39,"Duration":99010,"SoundDuration":99010,"Delta":452486614},{"NoteNumber":56,"Velocity":36,"Duration":99010,"SoundDuration":99010,"Delta":452585624},{"NoteNumber":84,"Velocity":75,"Duration":208333,"SoundDuration":208333,"Delta":452684634},{"NoteNumber":51,"Velocity":34,"Duration":104166,"SoundDuration":104166,"Delta":452684634},{"NoteNumber":56,"Velocity":34,"Duration":104166,"SoundDuration":104166,"Delta":452788801},{"NoteNumber":82,"Velocity":71,"Duration":360816,"SoundDuration":360816,"Delta":452892967},{"NoteNumber":60,"Velocity":37,"Duration":117646,"SoundDuration":117646,"Delta":452892967},{"NoteNumber":66,"Velocity":39,"Duration":117647,"SoundDuration":117647,"Delta":453010614},{"NoteNumber":60,"Velocity":36,"Duration":125522,"SoundDuration":125522,"Delta":453128261},{"NoteNumber":80,"Velocity":63,"Duration":125522,"SoundDuration":125522,"Delta":453253784},{"NoteNumber":56,"Velocity":31,"Duration":125522,"SoundDuration":125522,"Delta":453253784},{"NoteNumber":89,"Velocity":80,"Duration":753138,"SoundDuration":753138,"Delta":453379307},{"NoteNumber":50,"Velocity":31,"Duration":125523,"SoundDuration":125523,"Delta":453379307},{"NoteNumber":56,"Velocity":31,"Duration":125522,"SoundDuration":125522,"Delta":453504830},{"NoteNumber":59,"Velocity":35,"Duration":125522,"SoundDuration":125522,"Delta":453630353},{"NoteNumber":65,"Velocity":37,"Duration":125522,"SoundDuration":125522,"Delta":453755876},{"NoteNumber":59,"Velocity":36,"Duration":125523,"SoundDuration":125523,"Delta":453881399},{"NoteNumber":56,"Velocity":34,"Duration":125522,"SoundDuration":125522,"Delta":454006922},{"NoteNumber":89,"Velocity":77,"Duration":582523,"SoundDuration":582523,"Delta":454132445},{"NoteNumber":50,"Velocity":34,"Duration":145630,"SoundDuration":145630,"Delta":454132445},{"NoteNumber":56,"Velocity":30,"Duration":145631,"SoundDuration":145631,"Delta":454278076},{"NoteNumber":58,"Velocity":35,"Duration":145630,"SoundDuration":145630,"Delta":454423707},{"NoteNumber":65,"Velocity":37,"Duration":145630,"SoundDuration":145630,"Delta":454569338},{"NoteNumber":89,"Velocity":81,"Duration":342262,"SoundDuration":342262,"Delta":454714969},{"NoteNumber":58,"Velocity":36,"Duration":178571,"SoundDuration":178571,"Delta":454714969},{"NoteNumber":56,"Velocity":34,"Duration":178571,"SoundDuration":178571,"Delta":454893541},{"NoteNumber":89,"Velocity":85,"Duration":780697,"SoundDuration":780697,"Delta":455072112},{"NoteNumber":51,"Velocity":34,"Duration":134010,"SoundDuration":134010,"Delta":455072112},{"NoteNumber":54,"Velocity":35,"Duration":132452,"SoundDuration":132452,"Delta":455206122},{"NoteNumber":58,"Velocity":38,"Duration":130835,"SoundDuration":130835,"Delta":455338575},{"NoteNumber":63,"Velocity":39,"Duration":129311,"SoundDuration":129311,"Delta":455469410},{"NoteNumber":58,"Velocity":38,"Duration":127770,"SoundDuration":127770,"Delta":455598722},{"NoteNumber":54,"Velocity":36,"Duration":126317,"SoundDuration":126317,"Delta":455726492},{"NoteNumber":87,"Velocity":72,"Duration":263157,"SoundDuration":263157,"Delta":455852810},{"NoteNumber":42,"Velocity":34,"Duration":131578,"SoundDuration":131578,"Delta":455852810},{"NoteNumber":54,"Velocity":31,"Duration":131578,"SoundDuration":131578,"Delta":455984389},{"NoteNumber":85,"Velocity":71,"Duration":263158,"SoundDuration":263158,"Delta":456115968},{"NoteNumber":58,"Velocity":36,"Duration":131579,"SoundDuration":131579,"Delta":456115968},{"NoteNumber":63,"Velocity":38,"Duration":131578,"SoundDuration":131578,"Delta":456247547},{"NoteNumber":82,"Velocity":70,"Duration":263157,"SoundDuration":263157,"Delta":456379126},{"NoteNumber":58,"Velocity":36,"Duration":131578,"SoundDuration":131578,"Delta":456379126},{"NoteNumber":54,"Velocity":34,"Duration":131578,"SoundDuration":131578,"Delta":456510705},{"NoteNumber":84,"Velocity":75,"Duration":789474,"SoundDuration":789474,"Delta":456642284},{"NoteNumber":44,"Velocity":35,"Duration":131578,"SoundDuration":131578,"Delta":456642284},{"NoteNumber":53,"Velocity":36,"Duration":131579,"SoundDuration":131579,"Delta":456773863},{"NoteNumber":56,"Velocity":37,"Duration":131578,"SoundDuration":131578,"Delta":456905442},{"NoteNumber":61,"Velocity":39,"Duration":131578,"SoundDuration":131578,"Delta":457037021},{"NoteNumber":56,"Velocity":37,"Duration":131578,"SoundDuration":131578,"Delta":457168600},{"NoteNumber":53,"Velocity":35,"Duration":131579,"SoundDuration":131579,"Delta":457300179},{"NoteNumber":82,"Velocity":71,"Duration":263157,"SoundDuration":263157,"Delta":457431758},{"NoteNumber":44,"Velocity":33,"Duration":131578,"SoundDuration":131578,"Delta":457431758},{"NoteNumber":53,"Velocity":34,"Duration":131578,"SoundDuration":131578,"Delta":457563337},{"NoteNumber":80,"Velocity":68,"Duration":263157,"SoundDuration":263157,"Delta":457694916},{"NoteNumber":56,"Velocity":35,"Duration":131578,"SoundDuration":131578,"Delta":457694916},{"NoteNumber":61,"Velocity":38,"Duration":131578,"SoundDuration":131578,"Delta":457826495},{"NoteNumber":77,"Velocity":63,"Duration":263158,"SoundDuration":263158,"Delta":457958074},{"NoteNumber":56,"Velocity":37,"Duration":131579,"SoundDuration":131579,"Delta":457958074},{"NoteNumber":53,"Velocity":36,"Duration":131578,"SoundDuration":131578,"Delta":458089653},{"NoteNumber":82,"Velocity":69,"Duration":263157,"SoundDuration":263157,"Delta":458221232},{"NoteNumber":44,"Velocity":39,"Duration":131578,"SoundDuration":131578,"Delta":458221232},{"NoteNumber":54,"Velocity":34,"Duration":131578,"SoundDuration":131578,"Delta":458352811},{"NoteNumber":80,"Velocity":64,"Duration":263158,"SoundDuration":263158,"Delta":458484390},{"NoteNumber":56,"Velocity":36,"Duration":131578,"SoundDuration":131578,"Delta":458484390},{"NoteNumber":60,"Velocity":36,"Duration":131579,"SoundDuration":131579,"Delta":458615969},{"NoteNumber":78,"Velocity":61,"Duration":252193,"SoundDuration":252193,"Delta":458747548},{"NoteNumber":56,"Velocity":35,"Duration":131578,"SoundDuration":131578,"Delta":458747548},{"NoteNumber":54,"Velocity":34,"Duration":131578,"SoundDuration":131578,"Delta":458879127},{"NoteNumber":78,"Velocity":55,"Duration":68493,"SoundDuration":68493,"Delta":459010706},{"NoteNumber":44,"Velocity":31,"Duration":136986,"SoundDuration":136986,"Delta":459010706},{"NoteNumber":80,"Velocity":55,"Duration":68493,"SoundDuration":68493,"Delta":459079199},{"NoteNumber":78,"Velocity":63,"Duration":136986,"SoundDuration":136986,"Delta":459147692},{"NoteNumber":54,"Velocity":31,"Duration":136986,"SoundDuration":136986,"Delta":459147692},{"NoteNumber":77,"Velocity":58,"Duration":471962,"SoundDuration":471962,"Delta":459284679},{"NoteNumber":56,"Velocity":35,"Duration":150753,"SoundDuration":150753,"Delta":459284679},{"NoteNumber":60,"Velocity":37,"Duration":150753,"SoundDuration":150753,"Delta":459435432},{"NoteNumber":56,"Velocity":35,"Duration":170454,"SoundDuration":170454,"Delta":459586186},{"NoteNumber":76,"Velocity":59,"Duration":156249,"SoundDuration":156249,"Delta":459756641},{"NoteNumber":54,"Velocity":33,"Duration":170454,"SoundDuration":170454,"Delta":459756641},{"NoteNumber":76,"Velocity":59,"Duration":867948,"SoundDuration":867948,"Delta":459927095},{"NoteNumber":49,"Velocity":33,"Duration":150002,"SoundDuration":150002,"Delta":459927095},{"NoteNumber":56,"Velocity":33,"Duration":147785,"SoundDuration":147785,"Delta":460077098},{"NoteNumber":61,"Velocity":36,"Duration":145633,"SoundDuration":145633,"Delta":460224883},{"NoteNumber":65,"Velocity":37,"Duration":143542,"SoundDuration":143542,"Delta":460370517},{"NoteNumber":61,"Velocity":36,"Duration":141511,"SoundDuration":141511,"Delta":460514059},{"NoteNumber":58,"Velocity":35,"Duration":139472,"SoundDuration":139472,"Delta":460655571},{"NoteNumber":77,"Velocity":63,"Duration":552995,"SoundDuration":552995,"Delta":460795044},{"NoteNumber":56,"Velocity":36,"Duration":276497,"SoundDuration":276497,"Delta":460795044},{"NoteNumber":61,"Velocity":36,"Duration":138248,"SoundDuration":138248,"Delta":460933293},{"NoteNumber":65,"Velocity":39,"Duration":138248,"SoundDuration":138248,"Delta":461071541},{"NoteNumber":68,"Velocity":40,"Duration":138248,"SoundDuration":138248,"Delta":461209790},{"NoteNumber":80,"Velocity":57,"Duration":258620,"SoundDuration":258620,"Delta":461348039},{"NoteNumber":65,"Velocity":39,"Duration":129310,"SoundDuration":129310,"Delta":461348039},{"NoteNumber":61,"Velocity":38,"Duration":129310,"SoundDuration":129310,"Delta":461477349},{"NoteNumber":68,"Velocity":57,"Duration":506328,"SoundDuration":506328,"Delta":461606659},{"NoteNumber":54,"Velocity":38,"Duration":759493,"SoundDuration":759493,"Delta":461606659},{"NoteNumber":80,"Velocity":57,"Duration":696202,"SoundDuration":696202,"Delta":461669951},{"NoteNumber":56,"Velocity":42,"Duration":126582,"SoundDuration":126582,"Delta":461733242},{"NoteNumber":60,"Velocity":42,"Duration":126582,"SoundDuration":126582,"Delta":461859824},{"NoteNumber":63,"Velocity":42,"Duration":126582,"SoundDuration":126582,"Delta":461986406},{"NoteNumber":72,"Velocity":63,"Duration":553164,"SoundDuration":553164,"Delta":462112988},{"NoteNumber":60,"Velocity":42,"Duration":126582,"SoundDuration":126582,"Delta":462112988},{"NoteNumber":56,"Velocity":42,"Duration":126582,"SoundDuration":126582,"Delta":462239571},{"NoteNumber":84,"Velocity":63,"Duration":300000,"SoundDuration":300000,"Delta":462366153},{"NoteNumber":54,"Velocity":41,"Duration":770974,"SoundDuration":770974,"Delta":462366153},{"NoteNumber":56,"Velocity":45,"Duration":150000,"SoundDuration":150000,"Delta":462516153},{"NoteNumber":70,"Velocity":63,"Duration":354330,"SoundDuration":354330,"Delta":462666153},{"NoteNumber":82,"Velocity":63,"Duration":354330,"SoundDuration":354330,"Delta":462666153},{"NoteNumber":60,"Velocity":45,"Duration":118110,"SoundDuration":118110,"Delta":462666153},{"NoteNumber":63,"Velocity":45,"Duration":118110,"SoundDuration":118110,"Delta":462784263},{"NoteNumber":60,"Velocity":41,"Duration":118110,"SoundDuration":118110,"Delta":462902373},{"NoteNumber":68,"Velocity":63,"Duration":108023,"SoundDuration":108023,"Delta":463020484},{"NoteNumber":80,"Velocity":63,"Duration":108023,"SoundDuration":108023,"Delta":463020484},{"NoteNumber":56,"Velocity":38,"Duration":116644,"SoundDuration":116644,"Delta":463020484},{"NoteNumber":68,"Velocity":63,"Duration":608168,"SoundDuration":608168,"Delta":463137128},{"NoteNumber":80,"Velocity":63,"Duration":1202228,"SoundDuration":1202228,"Delta":463137128},{"NoteNumber":53,"Velocity":37,"Duration":608168,"SoundDuration":608168,"Delta":463137128},{"NoteNumber":56,"Velocity":36,"Duration":102447,"SoundDuration":102447,"Delta":463240327},{"NoteNumber":61,"Velocity":39,"Duration":101718,"SoundDuration":101718,"Delta":463342775},{"NoteNumber":65,"Velocity":42,"Duration":100976,"SoundDuration":100976,"Delta":463444494},{"NoteNumber":61,"Velocity":40,"Duration":100279,"SoundDuration":100279,"Delta":463545471},{"NoteNumber":56,"Velocity":38,"Duration":99546,"SoundDuration":99546,"Delta":463645750},{"NoteNumber":73,"Velocity":75,"Duration":594060,"SoundDuration":594060,"Delta":463745297},{"NoteNumber":85,"Velocity":75,"Duration":594060,"SoundDuration":594060,"Delta":463745297},{"NoteNumber":53,"Velocity":39,"Duration":99010,"SoundDuration":99010,"Delta":463745297},{"NoteNumber":56,"Velocity":41,"Duration":99009,"SoundDuration":99009,"Delta":463844307},{"NoteNumber":61,"Velocity":45,"Duration":99010,"SoundDuration":99010,"Delta":463943317},{"NoteNumber":68,"Velocity":46,"Duration":99010,"SoundDuration":99010,"Delta":464042327},{"NoteNumber":61,"Velocity":44,"Duration":99009,"SoundDuration":99009,"Delta":464141337},{"NoteNumber":56,"Velocity":40,"Duration":99010,"SoundDuration":99010,"Delta":464240347},{"NoteNumber":78,"Velocity":60,"Duration":396039,"SoundDuration":396039,"Delta":464339357},{"NoteNumber":80,"Velocity":60,"Duration":396039,"SoundDuration":396039,"Delta":464339357},{"NoteNumber":73,"Velocity":75,"Duration":297030,"SoundDuration":297030,"Delta":464339357},{"NoteNumber":85,"Velocity":75,"Duration":297030,"SoundDuration":297030,"Delta":464339357},{"NoteNumber":51,"Velocity":39,"Duration":99009,"SoundDuration":99009,"Delta":464339357},{"NoteNumber":56,"Velocity":41,"Duration":99010,"SoundDuration":99010,"Delta":464438367},{"NoteNumber":60,"Velocity":45,"Duration":99010,"SoundDuration":99010,"Delta":464537377},{"NoteNumber":75,"Velocity":71,"Duration":99009,"SoundDuration":99009,"Delta":464636387},{"NoteNumber":84,"Velocity":71,"Duration":99009,"SoundDuration":99009,"Delta":464636387},{"NoteNumber":66,"Velocity":45,"Duration":99009,"SoundDuration":99009,"Delta":464636387},{"NoteNumber":80,"Velocity":60,"Duration":198020,"SoundDuration":198020,"Delta":464735397},{"NoteNumber":78,"Velocity":60,"Duration":198020,"SoundDuration":198020,"Delta":464735397},{"NoteNumber":72,"Velocity":78,"Duration":198020,"SoundDuration":198020,"Delta":464735397},{"NoteNumber":84,"Velocity":78,"Duration":198020,"SoundDuration":198020,"Delta":464735397},{"NoteNumber":60,"Velocity":42,"Duration":99010,"SoundDuration":99010,"Delta":464735397},{"NoteNumber":56,"Velocity":39,"Duration":99010,"SoundDuration":99010,"Delta":464834407},{"NoteNumber":80,"Velocity":60,"Duration":325980,"SoundDuration":325980,"Delta":464933417},{"NoteNumber":78,"Velocity":60,"Duration":325980,"SoundDuration":325980,"Delta":464933417},{"NoteNumber":72,"Velocity":75,"Duration":325980,"SoundDuration":325980,"Delta":464933417},{"NoteNumber":84,"Velocity":75,"Duration":325980,"SoundDuration":325980,"Delta":464933417},{"NoteNumber":51,"Velocity":38,"Duration":104166,"SoundDuration":104166,"Delta":464933417},{"NoteNumber":56,"Velocity":37,"Duration":104166,"SoundDuration":104166,"Delta":465037583},{"NoteNumber":60,"Velocity":40,"Duration":117646,"SoundDuration":117646,"Delta":465141750},{"NoteNumber":70,"Velocity":71,"Duration":117647,"SoundDuration":117647,"Delta":465259397},{"NoteNumber":82,"Velocity":71,"Duration":117647,"SoundDuration":117647,"Delta":465259397},{"NoteNumber":66,"Velocity":42,"Duration":117647,"SoundDuration":117647,"Delta":465259397},{"NoteNumber":78,"Velocity":60,"Duration":240964,"SoundDuration":240964,"Delta":465377044},{"NoteNumber":68,"Velocity":63,"Duration":240964,"SoundDuration":240964,"Delta":465377044},{"NoteNumber":80,"Velocity":63,"Duration":240964,"SoundDuration":240964,"Delta":465377044},{"NoteNumber":60,"Velocity":39,"Duration":120481,"SoundDuration":120481,"Delta":465377044},{"NoteNumber":56,"Velocity":34,"Duration":120482,"SoundDuration":120482,"Delta":465497526},{"NoteNumber":80,"Velocity":80,"Duration":722892,"SoundDuration":722892,"Delta":465618008},{"NoteNumber":77,"Velocity":68,"Duration":722892,"SoundDuration":722892,"Delta":465618008},{"NoteNumber":89,"Velocity":80,"Duration":722892,"SoundDuration":722892,"Delta":465618008},{"NoteNumber":50,"Velocity":35,"Duration":120481,"SoundDuration":120481,"Delta":465618008},{"NoteNumber":56,"Velocity":37,"Duration":120481,"SoundDuration":120481,"Delta":465738490},{"NoteNumber":59,"Velocity":41,"Duration":120482,"SoundDuration":120482,"Delta":465858972},{"NoteNumber":65,"Velocity":44,"Duration":120481,"SoundDuration":120481,"Delta":465979454},{"NoteNumber":59,"Velocity":42,"Duration":120481,"SoundDuration":120481,"Delta":466099936},{"NoteNumber":56,"Velocity":40,"Duration":120482,"SoundDuration":120482,"Delta":466220418},{"NoteNumber":77,"Velocity":65,"Duration":526316,"SoundDuration":526316,"Delta":466340900},{"NoteNumber":80,"Velocity":77,"Duration":526316,"SoundDuration":526316,"Delta":466340900},{"NoteNumber":89,"Velocity":77,"Duration":526316,"SoundDuration":526316,"Delta":466340900},{"NoteNumber":50,"Velocity":35,"Duration":131578,"SoundDuration":131578,"Delta":466340900},{"NoteNumber":56,"Velocity":36,"Duration":131578,"SoundDuration":131578,"Delta":466472479},{"NoteNumber":58,"Velocity":41,"Duration":131579,"SoundDuration":131579,"Delta":466604058},{"NoteNumber":65,"Velocity":44,"Duration":131578,"SoundDuration":131578,"Delta":466735637},{"NoteNumber":77,"Velocity":66,"Duration":300000,"SoundDuration":300000,"Delta":466867216},{"NoteNumber":80,"Velocity":78,"Duration":300000,"SoundDuration":300000,"Delta":466867216},{"NoteNumber":89,"Velocity":78,"Duration":300000,"SoundDuration":300000,"Delta":466867216},{"NoteNumber":58,"Velocity":42,"Duration":149999,"SoundDuration":149999,"Delta":466867216},{"NoteNumber":56,"Velocity":40,"Duration":150000,"SoundDuration":150000,"Delta":467017216},{"NoteNumber":77,"Velocity":69,"Duration":780697,"SoundDuration":780697,"Delta":467167216},{"NoteNumber":80,"Velocity":82,"Duration":780697,"SoundDuration":780697,"Delta":467167216},{"NoteNumber":89,"Velocity":82,"Duration":780697,"SoundDuration":780697,"Delta":467167216},{"NoteNumber":51,"Velocity":37,"Duration":134010,"SoundDuration":134010,"Delta":467167216},{"NoteNumber":54,"Velocity":38,"Duration":132452,"SoundDuration":132452,"Delta":467301226},{"NoteNumber":58,"Velocity":41,"Duration":130835,"SoundDuration":130835,"Delta":467433679},{"NoteNumber":63,"Velocity":42,"Duration":129311,"SoundDuration":129311,"Delta":467564514},{"NoteNumber":58,"Velocity":41,"Duration":127770,"SoundDuration":127770,"Delta":467693826},{"NoteNumber":54,"Velocity":39,"Duration":126317,"SoundDuration":126317,"Delta":467821596},{"NoteNumber":78,"Velocity":67,"Duration":263157,"SoundDuration":263157,"Delta":467947914},{"NoteNumber":75,"Velocity":56,"Duration":263157,"SoundDuration":263157,"Delta":467947914},{"NoteNumber":87,"Velocity":67,"Duration":263157,"SoundDuration":263157,"Delta":467947914},{"NoteNumber":42,"Velocity":37,"Duration":131578,"SoundDuration":131578,"Delta":467947914},{"NoteNumber":54,"Velocity":34,"Duration":131578,"SoundDuration":131578,"Delta":468079493},{"NoteNumber":73,"Velocity":55,"Duration":406808,"SoundDuration":406808,"Delta":468211072},{"NoteNumber":78,"Velocity":65,"Duration":406808,"SoundDuration":406808,"Delta":468211072},{"NoteNumber":85,"Velocity":65,"Duration":406808,"SoundDuration":406808,"Delta":468211072},{"NoteNumber":58,"Velocity":39,"Duration":131579,"SoundDuration":131579,"Delta":468211072},{"NoteNumber":63,"Velocity":41,"Duration":137614,"SoundDuration":137614,"Delta":468342651},{"NoteNumber":58,"Velocity":39,"Duration":137614,"SoundDuration":137614,"Delta":468480266},{"NoteNumber":70,"Velocity":54,"Duration":147058,"SoundDuration":147058,"Delta":468617880},{"NoteNumber":78,"Velocity":64,"Duration":147058,"SoundDuration":147058,"Delta":468617880},{"NoteNumber":82,"Velocity":64,"Duration":147058,"SoundDuration":147058,"Delta":468617880},{"NoteNumber":54,"Velocity":37,"Duration":147058,"SoundDuration":147058,"Delta":468617880},{"NoteNumber":72,"Velocity":52,"Duration":789473,"SoundDuration":789473,"Delta":468764939},{"NoteNumber":80,"Velocity":62,"Duration":789473,"SoundDuration":789473,"Delta":468764939},{"NoteNumber":84,"Velocity":62,"Duration":789473,"SoundDuration":789473,"Delta":468764939},{"NoteNumber":44,"Velocity":37,"Duration":131578,"SoundDuration":131578,"Delta":468764939},{"NoteNumber":53,"Velocity":39,"Duration":131578,"SoundDuration":131578,"Delta":468896518},{"NoteNumber":56,"Velocity":40,"Duration":131579,"SoundDuration":131579,"Delta":469028097},{"NoteNumber":61,"Velocity":42,"Duration":131578,"SoundDuration":131578,"Delta":469159676},{"NoteNumber":56,"Velocity":40,"Duration":131578,"SoundDuration":131578,"Delta":469291255},{"NoteNumber":53,"Velocity":38,"Duration":131578,"SoundDuration":131578,"Delta":469422834},{"NoteNumber":70,"Velocity":54,"Duration":216606,"SoundDuration":216606,"Delta":469554413},{"NoteNumber":78,"Velocity":64,"Duration":216606,"SoundDuration":216606,"Delta":469554413},{"NoteNumber":82,"Velocity":64,"Duration":216606,"SoundDuration":216606,"Delta":469554413},{"NoteNumber":44,"Velocity":35,"Duration":108303,"SoundDuration":108303,"Delta":469554413},{"NoteNumber":53,"Velocity":35,"Duration":108303,"SoundDuration":108303,"Delta":469662716},{"NoteNumber":68,"Velocity":57,"Duration":216606,"SoundDuration":216606,"Delta":469771020},{"NoteNumber":77,"Velocity":68,"Duration":216606,"SoundDuration":216606,"Delta":469771020},{"NoteNumber":80,"Velocity":68,"Duration":216606,"SoundDuration":216606,"Delta":469771020},{"NoteNumber":56,"Velocity":37,"Duration":108303,"SoundDuration":108303,"Delta":469771020},{"NoteNumber":61,"Velocity":39,"Duration":108303,"SoundDuration":108303,"Delta":469879323},{"NoteNumber":70,"Velocity":61,"Duration":235294,"SoundDuration":235294,"Delta":469987626},{"NoteNumber":77,"Velocity":72,"Duration":235294,"SoundDuration":235294,"Delta":469987626},{"NoteNumber":82,"Velocity":72,"Duration":235294,"SoundDuration":235294,"Delta":469987626},{"NoteNumber":56,"Velocity":37,"Duration":117646,"SoundDuration":117646,"Delta":469987626},{"NoteNumber":53,"Velocity":35,"Duration":117647,"SoundDuration":117647,"Delta":470105273},{"NoteNumber":77,"Velocity":77,"Duration":470587,"SoundDuration":470587,"Delta":470222920},{"NoteNumber":71,"Velocity":65,"Duration":470587,"SoundDuration":470587,"Delta":470222920},{"NoteNumber":83,"Velocity":77,"Duration":470587,"SoundDuration":470587,"Delta":470222920},{"NoteNumber":44,"Velocity":38,"Duration":117646,"SoundDuration":117646,"Delta":470222920},{"NoteNumber":53,"Velocity":37,"Duration":117647,"SoundDuration":117647,"Delta":470340567},{"NoteNumber":56,"Velocity":39,"Duration":117646,"SoundDuration":117646,"Delta":470458214},{"NoteNumber":62,"Velocity":41,"Duration":117646,"SoundDuration":117646,"Delta":470575861},{"NoteNumber":77,"Velocity":75,"Duration":235294,"SoundDuration":235294,"Delta":470693508},{"NoteNumber":70,"Velocity":63,"Duration":235294,"SoundDuration":235294,"Delta":470693508},{"NoteNumber":82,"Velocity":75,"Duration":235294,"SoundDuration":235294,"Delta":470693508},{"NoteNumber":56,"Velocity":39,"Duration":117647,"SoundDuration":117647,"Delta":470693508},{"NoteNumber":53,"Velocity":36,"Duration":117646,"SoundDuration":117646,"Delta":470811155},{"NoteNumber":71,"Velocity":66,"Duration":1176469,"SoundDuration":1176469,"Delta":470928802},{"NoteNumber":77,"Velocity":78,"Duration":1176469,"SoundDuration":1176469,"Delta":470928802},{"NoteNumber":83,"Velocity":78,"Duration":1176469,"SoundDuration":1176469,"Delta":470928802},{"NoteNumber":44,"Velocity":40,"Duration":117647,"SoundDuration":117647,"Delta":470928802},{"NoteNumber":53,"Velocity":39,"Duration":117646,"SoundDuration":117646,"Delta":471046449},{"NoteNumber":56,"Velocity":43,"Duration":117646,"SoundDuration":117646,"Delta":471164096},{"NoteNumber":62,"Velocity":48,"Duration":117647,"SoundDuration":117647,"Delta":471281743},{"NoteNumber":56,"Velocity":45,"Duration":117646,"SoundDuration":117646,"Delta":471399390},{"NoteNumber":53,"Velocity":41,"Duration":117647,"SoundDuration":117647,"Delta":471517037},{"NoteNumber":44,"Velocity":40,"Duration":117646,"SoundDuration":117646,"Delta":471634684},{"NoteNumber":53,"Velocity":40,"Duration":117647,"SoundDuration":117647,"Delta":471752331},{"NoteNumber":56,"Velocity":43,"Duration":117646,"SoundDuration":117646,"Delta":471869978},{"NoteNumber":62,"Velocity":45,"Duration":117646,"SoundDuration":117646,"Delta":471987625},{"NoteNumber":70,"Velocity":64,"Duration":209059,"SoundDuration":209059,"Delta":472105272},{"NoteNumber":77,"Velocity":76,"Duration":209059,"SoundDuration":209059,"Delta":472105272},{"NoteNumber":82,"Velocity":76,"Duration":209059,"SoundDuration":209059,"Delta":472105272},{"NoteNumber":56,"Velocity":42,"Duration":104529,"SoundDuration":104529,"Delta":472105272},{"NoteNumber":53,"Velocity":36,"Duration":104529,"SoundDuration":104529,"Delta":472209802},{"NoteNumber":71,"Velocity":68,"Duration":206185,"SoundDuration":206185,"Delta":472314331},{"NoteNumber":77,"Velocity":81,"Duration":206185,"SoundDuration":206185,"Delta":472314331},{"NoteNumber":83,"Velocity":81,"Duration":206185,"SoundDuration":206185,"Delta":472314331},{"NoteNumber":44,"Velocity":52,"Duration":103092,"SoundDuration":103092,"Delta":472314331},{"NoteNumber":53,"Velocity":40,"Duration":103092,"SoundDuration":103092,"Delta":472417424},{"NoteNumber":70,"Velocity":66,"Duration":206185,"SoundDuration":206185,"Delta":472520517},{"NoteNumber":77,"Velocity":78,"Duration":206185,"SoundDuration":206185,"Delta":472520517},{"NoteNumber":82,"Velocity":78,"Duration":206185,"SoundDuration":206185,"Delta":472520517},{"NoteNumber":56,"Velocity":43,"Duration":103092,"SoundDuration":103092,"Delta":472520517},{"NoteNumber":62,"Velocity":47,"Duration":103092,"SoundDuration":103092,"Delta":472623609},{"NoteNumber":71,"Velocity":66,"Duration":206185,"SoundDuration":206185,"Delta":472726702},{"NoteNumber":77,"Velocity":78,"Duration":206185,"SoundDuration":206185,"Delta":472726702},{"NoteNumber":83,"Velocity":78,"Duration":206185,"SoundDuration":206185,"Delta":472726702},{"NoteNumber":56,"Velocity":44,"Duration":103092,"SoundDuration":103092,"Delta":472726702},{"NoteNumber":53,"Velocity":40,"Duration":103092,"SoundDuration":103092,"Delta":472829795},{"NoteNumber":71,"Velocity":68,"Duration":412371,"SoundDuration":412371,"Delta":472932888},{"NoteNumber":78,"Velocity":81,"Duration":412371,"SoundDuration":412371,"Delta":472932888},{"NoteNumber":83,"Velocity":81,"Duration":412371,"SoundDuration":412371,"Delta":472932888},{"NoteNumber":44,"Velocity":54,"Duration":103092,"SoundDuration":103092,"Delta":472932888},{"NoteNumber":51,"Velocity":43,"Duration":103092,"SoundDuration":103092,"Delta":473035980},{"NoteNumber":54,"Velocity":47,"Duration":103092,"SoundDuration":103092,"Delta":473139073},{"NoteNumber":63,"Velocity":50,"Duration":103092,"SoundDuration":103092,"Delta":473242166},{"NoteNumber":70,"Velocity":69,"Duration":255318,"SoundDuration":255318,"Delta":473345259},{"NoteNumber":78,"Velocity":82,"Duration":255318,"SoundDuration":255318,"Delta":473345259},{"NoteNumber":82,"Velocity":82,"Duration":255318,"SoundDuration":255318,"Delta":473345259},{"NoteNumber":54,"Velocity":46,"Duration":127659,"SoundDuration":127659,"Delta":473345259},{"NoteNumber":51,"Velocity":43,"Duration":127659,"SoundDuration":127659,"Delta":473472918},{"NoteNumber":73,"Velocity":74,"Duration":1167314,"SoundDuration":1167314,"Delta":473600578},{"NoteNumber":79,"Velocity":88,"Duration":1167314,"SoundDuration":1167314,"Delta":473600578},{"NoteNumber":85,"Velocity":88,"Duration":1167314,"SoundDuration":1167314,"Delta":473600578},{"NoteNumber":44,"Velocity":56,"Duration":116731,"SoundDuration":116731,"Delta":473600578},{"NoteNumber":52,"Velocity":47,"Duration":116731,"SoundDuration":116731,"Delta":473717309},{"NoteNumber":55,"Velocity":49,"Duration":116731,"SoundDuration":116731,"Delta":473834041},{"NoteNumber":64,"Velocity":51,"Duration":116731,"SoundDuration":116731,"Delta":473950772},{"NoteNumber":55,"Velocity":49,"Duration":116731,"SoundDuration":116731,"Delta":474067504},{"NoteNumber":52,"Velocity":47,"Duration":116731,"SoundDuration":116731,"Delta":474184235},{"NoteNumber":44,"Velocity":57,"Duration":116731,"SoundDuration":116731,"Delta":474300967},{"NoteNumber":52,"Velocity":48,"Duration":116731,"SoundDuration":116731,"Delta":474417698},{"NoteNumber":55,"Velocity":51,"Duration":116731,"SoundDuration":116731,"Delta":474534430},{"NoteNumber":64,"Velocity":53,"Duration":116731,"SoundDuration":116731,"Delta":474651161},{"NoteNumber":72,"Velocity":69,"Duration":209059,"SoundDuration":209059,"Delta":474767893},{"NoteNumber":79,"Velocity":82,"Duration":209059,"SoundDuration":209059,"Delta":474767893},{"NoteNumber":84,"Velocity":82,"Duration":209059,"SoundDuration":209059,"Delta":474767893},{"NoteNumber":55,"Velocity":51,"Duration":104529,"SoundDuration":104529,"Delta":474767893},{"NoteNumber":52,"Velocity":49,"Duration":104529,"SoundDuration":104529,"Delta":474872422},{"NoteNumber":73,"Velocity":73,"Duration":206185,"SoundDuration":206185,"Delta":474976952},{"NoteNumber":79,"Velocity":86,"Duration":206185,"SoundDuration":206185,"Delta":474976952},{"NoteNumber":85,"Velocity":86,"Duration":206185,"SoundDuration":206185,"Delta":474976952},{"NoteNumber":44,"Velocity":61,"Duration":103092,"SoundDuration":103092,"Delta":474976952},{"NoteNumber":52,"Velocity":51,"Duration":103092,"SoundDuration":103092,"Delta":475080044},{"NoteNumber":72,"Velocity":68,"Duration":206185,"SoundDuration":206185,"Delta":475183137},{"NoteNumber":79,"Velocity":81,"Duration":206185,"SoundDuration":206185,"Delta":475183137},{"NoteNumber":84,"Velocity":81,"Duration":206185,"SoundDuration":206185,"Delta":475183137},{"NoteNumber":55,"Velocity":54,"Duration":103092,"SoundDuration":103092,"Delta":475183137},{"NoteNumber":64,"Velocity":56,"Duration":103092,"SoundDuration":103092,"Delta":475286230},{"NoteNumber":73,"Velocity":72,"Duration":206185,"SoundDuration":206185,"Delta":475389323},{"NoteNumber":79,"Velocity":85,"Duration":206185,"SoundDuration":206185,"Delta":475389323},{"NoteNumber":85,"Velocity":85,"Duration":206185,"SoundDuration":206185,"Delta":475389323},{"NoteNumber":55,"Velocity":54,"Duration":103092,"SoundDuration":103092,"Delta":475389323},{"NoteNumber":52,"Velocity":51,"Duration":103092,"SoundDuration":103092,"Delta":475492415},{"NoteNumber":73,"Velocity":74,"Duration":412371,"SoundDuration":412371,"Delta":475595508},{"NoteNumber":80,"Velocity":88,"Duration":412371,"SoundDuration":412371,"Delta":475595508},{"NoteNumber":85,"Velocity":88,"Duration":412371,"SoundDuration":412371,"Delta":475595508},{"NoteNumber":44,"Velocity":64,"Duration":103092,"SoundDuration":103092,"Delta":475595508},{"NoteNumber":53,"Velocity":54,"Duration":103092,"SoundDuration":103092,"Delta":475698601},{"NoteNumber":56,"Velocity":56,"Duration":103092,"SoundDuration":103092,"Delta":475801694},{"NoteNumber":65,"Velocity":59,"Duration":103092,"SoundDuration":103092,"Delta":475904786},{"NoteNumber":72,"Velocity":77,"Duration":233462,"SoundDuration":233462,"Delta":476007879},{"NoteNumber":80,"Velocity":91,"Duration":233462,"SoundDuration":233462,"Delta":476007879},{"NoteNumber":84,"Velocity":91,"Duration":233462,"SoundDuration":233462,"Delta":476007879},{"NoteNumber":56,"Velocity":55,"Duration":116731,"SoundDuration":116731,"Delta":476007879},{"NoteNumber":53,"Velocity":52,"Duration":116731,"SoundDuration":116731,"Delta":476124611},{"NoteNumber":81,"Velocity":90,"Duration":412371,"SoundDuration":412371,"Delta":476241342},{"NoteNumber":75,"Velocity":76,"Duration":412371,"SoundDuration":412371,"Delta":476241342},{"NoteNumber":87,"Velocity":90,"Duration":412371,"SoundDuration":412371,"Delta":476241342},{"NoteNumber":44,"Velocity":67,"Duration":103092,"SoundDuration":103092,"Delta":476241342},{"NoteNumber":51,"Velocity":55,"Duration":103092,"SoundDuration":103092,"Delta":476344435},{"NoteNumber":54,"Velocity":57,"Duration":103092,"SoundDuration":103092,"Delta":476447528},{"NoteNumber":60,"Velocity":60,"Duration":103092,"SoundDuration":103092,"Delta":476550620},{"NoteNumber":87,"Velocity":88,"Duration":206185,"SoundDuration":206185,"Delta":476653713},{"NoteNumber":81,"Velocity":88,"Duration":206185,"SoundDuration":206185,"Delta":476653713},{"NoteNumber":75,"Velocity":74,"Duration":206185,"SoundDuration":206185,"Delta":476653713},{"NoteNumber":54,"Velocity":58,"Duration":103092,"SoundDuration":103092,"Delta":476653713},{"NoteNumber":51,"Velocity":55,"Duration":103092,"SoundDuration":103092,"Delta":476756806},{"NoteNumber":87,"Velocity":92,"Duration":412371,"SoundDuration":412371,"Delta":476859899},{"NoteNumber":80,"Velocity":92,"Duration":412371,"SoundDuration":412371,"Delta":476859899},{"NoteNumber":75,"Velocity":78,"Duration":412371,"SoundDuration":412371,"Delta":476859899},{"NoteNumber":44,"Velocity":68,"Duration":103092,"SoundDuration":103092,"Delta":476859899},{"NoteNumber":47,"Velocity":57,"Duration":103092,"SoundDuration":103092,"Delta":476962991},{"NoteNumber":53,"Velocity":59,"Duration":103092,"SoundDuration":103092,"Delta":477066084},{"NoteNumber":59,"Velocity":60,"Duration":103092,"SoundDuration":103092,"Delta":477169177},{"NoteNumber":86,"Velocity":88,"Duration":229885,"SoundDuration":229885,"Delta":477272270},{"NoteNumber":80,"Velocity":88,"Duration":229885,"SoundDuration":229885,"Delta":477272270},{"NoteNumber":74,"Velocity":74,"Duration":229885,"SoundDuration":229885,"Delta":477272270},{"NoteNumber":53,"Velocity":59,"Duration":114942,"SoundDuration":114942,"Delta":477272270},{"NoteNumber":47,"Velocity":57,"Duration":114942,"SoundDuration":114942,"Delta":477387212},{"NoteNumber":89,"Velocity":99,"Duration":412371,"SoundDuration":412371,"Delta":477502155},{"NoteNumber":83,"Velocity":99,"Duration":412371,"SoundDuration":412371,"Delta":477502155},{"NoteNumber":77,"Velocity":84,"Duration":412371,"SoundDuration":412371,"Delta":477502155},{"NoteNumber":44,"Velocity":68,"Duration":103092,"SoundDuration":103092,"Delta":477502155},{"NoteNumber":53,"Velocity":56,"Duration":103092,"SoundDuration":103092,"Delta":477605247},{"NoteNumber":56,"Velocity":60,"Duration":103092,"SoundDuration":103092,"Delta":477708340},{"NoteNumber":62,"Velocity":62,"Duration":103092,"SoundDuration":103092,"Delta":477811433},{"NoteNumber":89,"Velocity":95,"Duration":206185,"SoundDuration":206185,"Delta":477914526},{"NoteNumber":83,"Velocity":95,"Duration":206185,"SoundDuration":206185,"Delta":477914526},{"NoteNumber":77,"Velocity":80,"Duration":206185,"SoundDuration":206185,"Delta":477914526},{"NoteNumber":56,"Velocity":60,"Duration":103092,"SoundDuration":103092,"Delta":477914526},{"NoteNumber":53,"Velocity":57,"Duration":103092,"SoundDuration":103092,"Delta":478017618},{"NoteNumber":89,"Velocity":96,"Duration":412371,"SoundDuration":412371,"Delta":478120711},{"NoteNumber":82,"Velocity":96,"Duration":412371,"SoundDuration":412371,"Delta":478120711},{"NoteNumber":77,"Velocity":81,"Duration":412371,"SoundDuration":412371,"Delta":478120711},{"NoteNumber":44,"Velocity":70,"Duration":103092,"SoundDuration":103092,"Delta":478120711},{"NoteNumber":49,"Velocity":59,"Duration":103092,"SoundDuration":103092,"Delta":478223804},{"NoteNumber":55,"Velocity":62,"Duration":103092,"SoundDuration":103092,"Delta":478326897},{"NoteNumber":61,"Velocity":65,"Duration":103092,"SoundDuration":103092,"Delta":478429989},{"NoteNumber":88,"Velocity":96,"Duration":241935,"SoundDuration":241935,"Delta":478533082},{"NoteNumber":82,"Velocity":96,"Duration":241935,"SoundDuration":241935,"Delta":478533082},{"NoteNumber":76,"Velocity":81,"Duration":241935,"SoundDuration":241935,"Delta":478533082},{"NoteNumber":55,"Velocity":62,"Duration":120967,"SoundDuration":120967,"Delta":478533082},{"NoteNumber":49,"Velocity":59,"Duration":120967,"SoundDuration":120967,"Delta":478654050},{"NoteNumber":91,"Velocity":101,"Duration":415225,"SoundDuration":415225,"Delta":478775018},{"NoteNumber":85,"Velocity":101,"Duration":415225,"SoundDuration":415225,"Delta":478775018},{"NoteNumber":79,"Velocity":85,"Duration":415225,"SoundDuration":415225,"Delta":478775018},{"NoteNumber":44,"Velocity":72,"Duration":103806,"SoundDuration":103806,"Delta":478775018},{"NoteNumber":52,"Velocity":59,"Duration":103806,"SoundDuration":103806,"Delta":478878824},{"NoteNumber":58,"Velocity":64,"Duration":103806,"SoundDuration":103806,"Delta":478982630},{"NoteNumber":64,"Velocity":66,"Duration":103806,"SoundDuration":103806,"Delta":479086436},{"NoteNumber":91,"Velocity":98,"Duration":218182,"SoundDuration":218182,"Delta":479190243},{"NoteNumber":85,"Velocity":98,"Duration":218182,"SoundDuration":218182,"Delta":479190243},{"NoteNumber":79,"Velocity":83,"Duration":218182,"SoundDuration":218182,"Delta":479190243},{"NoteNumber":58,"Velocity":62,"Duration":109090,"SoundDuration":109090,"Delta":479190243},{"NoteNumber":52,"Velocity":59,"Duration":109091,"SoundDuration":109091,"Delta":479299334},{"NoteNumber":91,"Velocity":98,"Duration":436363,"SoundDuration":436363,"Delta":479408425},{"NoteNumber":84,"Velocity":98,"Duration":436363,"SoundDuration":436363,"Delta":479408425},{"NoteNumber":79,"Velocity":83,"Duration":436363,"SoundDuration":436363,"Delta":479408425},{"NoteNumber":44,"Velocity":72,"Duration":109090,"SoundDuration":109090,"Delta":479408425},{"NoteNumber":51,"Velocity":58,"Duration":109091,"SoundDuration":109091,"Delta":479517516},{"NoteNumber":54,"Velocity":63,"Duration":109090,"SoundDuration":109090,"Delta":479626607},{"NoteNumber":63,"Velocity":68,"Duration":109090,"SoundDuration":109090,"Delta":479735698},{"NoteNumber":92,"Velocity":94,"Duration":281690,"SoundDuration":281690,"Delta":479844789},{"NoteNumber":84,"Velocity":94,"Duration":281690,"SoundDuration":281690,"Delta":479844789},{"NoteNumber":80,"Velocity":79,"Duration":281690,"SoundDuration":281690,"Delta":479844789},{"NoteNumber":54,"Velocity":65,"Duration":140845,"SoundDuration":140845,"Delta":479844789},{"NoteNumber":51,"Velocity":62,"Duration":140845,"SoundDuration":140845,"Delta":479985634},{"NoteNumber":93,"Velocity":110,"Duration":521739,"SoundDuration":521739,"Delta":480126479},{"NoteNumber":84,"Velocity":110,"Duration":521739,"SoundDuration":521739,"Delta":480126479},{"NoteNumber":81,"Velocity":93,"Duration":521739,"SoundDuration":521739,"Delta":480126479},{"NoteNumber":44,"Velocity":72,"Duration":130434,"SoundDuration":130434,"Delta":480126479},{"NoteNumber":51,"Velocity":60,"Duration":130434,"SoundDuration":130434,"Delta":480256913},{"NoteNumber":54,"Velocity":64,"Duration":130434,"SoundDuration":130434,"Delta":480387348},{"NoteNumber":60,"Velocity":69,"Duration":130434,"SoundDuration":130434,"Delta":480517783},{"NoteNumber":84,"Velocity":94,"Duration":251045,"SoundDuration":251045,"Delta":480648218},{"NoteNumber":78,"Velocity":94,"Duration":251045,"SoundDuration":251045,"Delta":480648218},{"NoteNumber":72,"Velocity":79,"Duration":251045,"SoundDuration":251045,"Delta":480648218},{"NoteNumber":54,"Velocity":65,"Duration":125522,"SoundDuration":125522,"Delta":480648218},{"NoteNumber":51,"Velocity":63,"Duration":125522,"SoundDuration":125522,"Delta":480773741},{"NoteNumber":85,"Velocity":109,"Duration":161290,"SoundDuration":161290,"Delta":480899264},{"NoteNumber":77,"Velocity":109,"Duration":161290,"SoundDuration":161290,"Delta":480899264},{"NoteNumber":73,"Velocity":92,"Duration":161290,"SoundDuration":161290,"Delta":480899264},{"NoteNumber":37,"Velocity":78,"Duration":161290,"SoundDuration":161290,"Delta":480899264},{"NoteNumber":44,"Velocity":68,"Duration":94936,"SoundDuration":94936,"Delta":481332536},{"NoteNumber":51,"Velocity":68,"Duration":94936,"SoundDuration":94936,"Delta":481424308},{"NoteNumber":65,"Velocity":97,"Duration":94637,"SoundDuration":94637,"Delta":481519245},{"NoteNumber":61,"Velocity":83,"Duration":189274,"SoundDuration":189274,"Delta":481519245},{"NoteNumber":73,"Velocity":75,"Duration":94637,"SoundDuration":94637,"Delta":481613882},{"NoteNumber":80,"Velocity":79,"Duration":94637,"SoundDuration":94637,"Delta":481708520},{"NoteNumber":77,"Velocity":83,"Duration":94637,"SoundDuration":94637,"Delta":481803157},{"NoteNumber":85,"Velocity":87,"Duration":94637,"SoundDuration":94637,"Delta":481897794},{"NoteNumber":94,"Velocity":91,"Duration":94637,"SoundDuration":94637,"Delta":481992431},{"NoteNumber":84,"Velocity":96,"Duration":189274,"SoundDuration":189274,"Delta":482087069},{"NoteNumber":92,"Velocity":96,"Duration":189274,"SoundDuration":189274,"Delta":482087069},{"NoteNumber":32,"Velocity":87,"Duration":94637,"SoundDuration":94637,"Delta":482087069},{"NoteNumber":44,"Velocity":68,"Duration":94637,"SoundDuration":94637,"Delta":482465618},{"NoteNumber":51,"Velocity":74,"Duration":94637,"SoundDuration":94637,"Delta":482560255},{"NoteNumber":66,"Velocity":97,"Duration":92307,"SoundDuration":92307,"Delta":482654892},{"NoteNumber":60,"Velocity":84,"Duration":184615,"SoundDuration":184615,"Delta":482654892},{"NoteNumber":72,"Velocity":75,"Duration":92307,"SoundDuration":92307,"Delta":482747200},{"NoteNumber":80,"Velocity":80,"Duration":92307,"SoundDuration":92307,"Delta":482839508},{"NoteNumber":78,"Velocity":84,"Duration":92307,"SoundDuration":92307,"Delta":482931815},{"NoteNumber":84,"Velocity":88,"Duration":92307,"SoundDuration":92307,"Delta":483024123},{"NoteNumber":92,"Velocity":93,"Duration":92307,"SoundDuration":92307,"Delta":483116431},{"NoteNumber":85,"Velocity":97,"Duration":184615,"SoundDuration":184615,"Delta":483208739},{"NoteNumber":89,"Velocity":97,"Duration":184615,"SoundDuration":184615,"Delta":483208739},{"NoteNumber":37,"Velocity":87,"Duration":92307,"SoundDuration":92307,"Delta":483208739},{"NoteNumber":44,"Velocity":70,"Duration":92307,"SoundDuration":92307,"Delta":483577970},{"NoteNumber":53,"Velocity":75,"Duration":92307,"SoundDuration":92307,"Delta":483670277},{"NoteNumber":65,"Velocity":97,"Duration":94637,"SoundDuration":94637,"Delta":483762585},{"NoteNumber":61,"Velocity":83,"Duration":189274,"SoundDuration":189274,"Delta":483762585},{"NoteNumber":73,"Velocity":75,"Duration":94637,"SoundDuration":94637,"Delta":483857222},{"NoteNumber":80,"Velocity":79,"Duration":94637,"SoundDuration":94637,"Delta":483951860},{"NoteNumber":77,"Velocity":83,"Duration":94637,"SoundDuration":94637,"Delta":484046497},{"NoteNumber":85,"Velocity":87,"Duration":94637,"SoundDuration":94637,"Delta":484141134},{"NoteNumber":94,"Velocity":91,"Duration":94637,"SoundDuration":94637,"Delta":484235771},{"NoteNumber":84,"Velocity":96,"Duration":189274,"SoundDuration":189274,"Delta":484330409},{"NoteNumber":92,"Velocity":96,"Duration":189274,"SoundDuration":189274,"Delta":484330409},{"NoteNumber":32,"Velocity":87,"Duration":94637,"SoundDuration":94637,"Delta":484330409},{"NoteNumber":44,"Velocity":68,"Duration":94637,"SoundDuration":94637,"Delta":484708958},{"NoteNumber":51,"Velocity":74,"Duration":94637,"SoundDuration":94637,"Delta":484803595},{"NoteNumber":66,"Velocity":97,"Duration":91463,"SoundDuration":91463,"Delta":484898232},{"NoteNumber":60,"Velocity":84,"Duration":182927,"SoundDuration":182927,"Delta":484898232},{"NoteNumber":72,"Velocity":75,"Duration":91463,"SoundDuration":91463,"Delta":484989696},{"NoteNumber":80,"Velocity":80,"Duration":91463,"SoundDuration":91463,"Delta":485081159},{"NoteNumber":78,"Velocity":84,"Duration":91463,"SoundDuration":91463,"Delta":485172623},{"NoteNumber":84,"Velocity":88,"Duration":91463,"SoundDuration":91463,"Delta":485264086},{"NoteNumber":92,"Velocity":93,"Duration":45731,"SoundDuration":45731,"Delta":485355550},{"NoteNumber":85,"Velocity":100,"Duration":93167,"SoundDuration":93167,"Delta":485401281},{"NoteNumber":97,"Velocity":113,"Duration":169014,"SoundDuration":169014,"Delta":485494449},{"NoteNumber":33,"Velocity":97,"Duration":84506,"SoundDuration":84506,"Delta":485494449},{"NoteNumber":45,"Velocity":97,"Duration":84506,"SoundDuration":84506,"Delta":485494449},{"NoteNumber":95,"Velocity":111,"Duration":84506,"SoundDuration":84506,"Delta":485663463},{"NoteNumber":39,"Velocity":82,"Duration":169014,"SoundDuration":169014,"Delta":485663463},{"NoteNumber":51,"Velocity":82,"Duration":169014,"SoundDuration":169014,"Delta":485663463},{"NoteNumber":93,"Velocity":103,"Duration":84507,"SoundDuration":84507,"Delta":485747970},{"NoteNumber":88,"Velocity":107,"Duration":88495,"SoundDuration":88495,"Delta":485832477},{"NoteNumber":40,"Velocity":90,"Duration":176990,"SoundDuration":176990,"Delta":485832477},{"NoteNumber":52,"Velocity":90,"Duration":176990,"SoundDuration":176990,"Delta":485832477},{"NoteNumber":85,"Velocity":98,"Duration":88495,"SoundDuration":88495,"Delta":485920973},{"NoteNumber":83,"Velocity":102,"Duration":82682,"SoundDuration":82682,"Delta":486009468},{"NoteNumber":40,"Velocity":90,"Duration":500638,"SoundDuration":500638,"Delta":486009468},{"NoteNumber":52,"Velocity":90,"Duration":500638,"SoundDuration":500638,"Delta":486009468},{"NoteNumber":81,"Velocity":94,"Duration":82987,"SoundDuration":82987,"Delta":486092151},{"NoteNumber":76,"Velocity":98,"Duration":83256,"SoundDuration":83256,"Delta":486175139},{"NoteNumber":73,"Velocity":91,"Duration":83604,"SoundDuration":83604,"Delta":486258395},{"NoteNumber":71,"Velocity":94,"Duration":83916,"SoundDuration":83916,"Delta":486341999},{"NoteNumber":69,"Velocity":85,"Duration":84190,"SoundDuration":84190,"Delta":486425916},{"NoteNumber":64,"Velocity":90,"Duration":84506,"SoundDuration":84506,"Delta":486510107},{"NoteNumber":61,"Velocity":82,"Duration":84507,"SoundDuration":84507,"Delta":486594614},{"NoteNumber":59,"Velocity":85,"Duration":84506,"SoundDuration":84506,"Delta":486679121},{"NoteNumber":39,"Velocity":77,"Duration":169014,"SoundDuration":169014,"Delta":486679121},{"NoteNumber":57,"Velocity":77,"Duration":84507,"SoundDuration":84507,"Delta":486763628},{"NoteNumber":52,"Velocity":81,"Duration":176470,"SoundDuration":176470,"Delta":486848135},{"NoteNumber":40,"Velocity":77,"Duration":176470,"SoundDuration":176470,"Delta":486848135},{"NoteNumber":53,"Velocity":93,"Duration":340909,"SoundDuration":340909,"Delta":487024605},{"NoteNumber":65,"Velocity":93,"Duration":340909,"SoundDuration":340909,"Delta":487024605},{"NoteNumber":33,"Velocity":81,"Duration":340909,"SoundDuration":340909,"Delta":487024605},{"NoteNumber":41,"Velocity":81,"Duration":340909,"SoundDuration":340909,"Delta":487024605},{"NoteNumber":52,"Velocity":87,"Duration":127840,"SoundDuration":127840,"Delta":487365514},{"NoteNumber":64,"Velocity":87,"Duration":127840,"SoundDuration":127840,"Delta":487365514},{"NoteNumber":40,"Velocity":75,"Duration":221008,"SoundDuration":221008,"Delta":487365514},{"NoteNumber":33,"Velocity":75,"Duration":221008,"SoundDuration":221008,"Delta":487365514},{"NoteNumber":85,"Velocity":100,"Duration":93167,"SoundDuration":93167,"Delta":487493355},{"NoteNumber":97,"Velocity":113,"Duration":169014,"SoundDuration":169014,"Delta":487586523},{"NoteNumber":33,"Velocity":97,"Duration":84506,"SoundDuration":84506,"Delta":487586523},{"NoteNumber":45,"Velocity":97,"Duration":84506,"SoundDuration":84506,"Delta":487586523},{"NoteNumber":95,"Velocity":111,"Duration":84506,"SoundDuration":84506,"Delta":487755537},{"NoteNumber":39,"Velocity":82,"Duration":169014,"SoundDuration":169014,"Delta":487755537},{"NoteNumber":51,"Velocity":82,"Duration":169014,"SoundDuration":169014,"Delta":487755537},{"NoteNumber":93,"Velocity":103,"Duration":84507,"SoundDuration":84507,"Delta":487840044},{"NoteNumber":88,"Velocity":107,"Duration":88495,"SoundDuration":88495,"Delta":487924551},{"NoteNumber":40,"Velocity":90,"Duration":176990,"SoundDuration":176990,"Delta":487924551},{"NoteNumber":52,"Velocity":90,"Duration":176990,"SoundDuration":176990,"Delta":487924551},{"NoteNumber":85,"Velocity":98,"Duration":88495,"SoundDuration":88495,"Delta":488013046},{"NoteNumber":83,"Velocity":102,"Duration":83102,"SoundDuration":83102,"Delta":488101542},{"NoteNumber":40,"Velocity":90,"Duration":502103,"SoundDuration":502103,"Delta":488101542},{"NoteNumber":52,"Velocity":90,"Duration":502103,"SoundDuration":502103,"Delta":488101542},{"NoteNumber":81,"Velocity":96,"Duration":83333,"SoundDuration":83333,"Delta":488184644},{"NoteNumber":76,"Velocity":98,"Duration":83565,"SoundDuration":83565,"Delta":488267978},{"NoteNumber":73,"Velocity":91,"Duration":83798,"SoundDuration":83798,"Delta":488351543},{"NoteNumber":71,"Velocity":94,"Duration":84033,"SoundDuration":84033,"Delta":488435342},{"NoteNumber":69,"Velocity":87,"Duration":84269,"SoundDuration":84269,"Delta":488519376},{"NoteNumber":64,"Velocity":90,"Duration":84506,"SoundDuration":84506,"Delta":488603645},{"NoteNumber":61,"Velocity":82,"Duration":84507,"SoundDuration":84507,"Delta":488688152},{"NoteNumber":59,"Velocity":85,"Duration":84506,"SoundDuration":84506,"Delta":488772659},{"NoteNumber":39,"Velocity":77,"Duration":169014,"SoundDuration":169014,"Delta":488772659},{"NoteNumber":57,"Velocity":78,"Duration":84507,"SoundDuration":84507,"Delta":488857166},{"NoteNumber":52,"Velocity":81,"Duration":176470,"SoundDuration":176470,"Delta":488941673},{"NoteNumber":40,"Velocity":77,"Duration":176470,"SoundDuration":176470,"Delta":488941673},{"NoteNumber":53,"Velocity":93,"Duration":332409,"SoundDuration":332409,"Delta":489118144},{"NoteNumber":65,"Velocity":93,"Duration":332409,"SoundDuration":332409,"Delta":489118144},{"NoteNumber":33,"Velocity":81,"Duration":332409,"SoundDuration":332409,"Delta":489118144},{"NoteNumber":41,"Velocity":81,"Duration":332409,"SoundDuration":332409,"Delta":489118144},{"NoteNumber":52,"Velocity":87,"Duration":166204,"SoundDuration":166204,"Delta":489450554},{"NoteNumber":64,"Velocity":87,"Duration":166204,"SoundDuration":166204,"Delta":489450554},{"NoteNumber":40,"Velocity":75,"Duration":166204,"SoundDuration":166204,"Delta":489450554},{"NoteNumber":33,"Velocity":75,"Duration":166204,"SoundDuration":166204,"Delta":489450554},{"NoteNumber":53,"Velocity":87,"Duration":106634,"SoundDuration":106634,"Delta":489616759},{"NoteNumber":65,"Velocity":87,"Duration":106634,"SoundDuration":106634,"Delta":489616759},{"NoteNumber":33,"Velocity":87,"Duration":106634,"SoundDuration":106634,"Delta":489616759},{"NoteNumber":41,"Velocity":87,"Duration":106634,"SoundDuration":106634,"Delta":489616759},{"NoteNumber":53,"Velocity":43,"Duration":71090,"SoundDuration":71090,"Delta":489758939},{"NoteNumber":57,"Velocity":45,"Duration":71089,"SoundDuration":71089,"Delta":489830029},{"NoteNumber":61,"Velocity":46,"Duration":71090,"SoundDuration":71090,"Delta":489901119},{"NoteNumber":33,"Velocity":38,"Duration":142179,"SoundDuration":142179,"Delta":489901119},{"NoteNumber":45,"Velocity":38,"Duration":142179,"SoundDuration":142179,"Delta":489901119},{"NoteNumber":65,"Velocity":48,"Duration":71089,"SoundDuration":71089,"Delta":489972209},{"NoteNumber":73,"Velocity":54,"Duration":142179,"SoundDuration":142179,"Delta":490043299},{"NoteNumber":77,"Velocity":54,"Duration":142179,"SoundDuration":142179,"Delta":490043299},{"NoteNumber":41,"Velocity":42,"Duration":142179,"SoundDuration":142179,"Delta":490043299},{"NoteNumber":53,"Velocity":42,"Duration":142179,"SoundDuration":142179,"Delta":490043299},{"NoteNumber":53,"Velocity":43,"Duration":71090,"SoundDuration":71090,"Delta":490185479},{"NoteNumber":57,"Velocity":44,"Duration":71089,"SoundDuration":71089,"Delta":490256569},{"NoteNumber":61,"Velocity":45,"Duration":71090,"SoundDuration":71090,"Delta":490327659},{"NoteNumber":33,"Velocity":39,"Duration":142179,"SoundDuration":142179,"Delta":490327659},{"NoteNumber":45,"Velocity":39,"Duration":142179,"SoundDuration":142179,"Delta":490327659},{"NoteNumber":65,"Velocity":46,"Duration":71089,"SoundDuration":71089,"Delta":490398749},{"NoteNumber":73,"Velocity":54,"Duration":142179,"SoundDuration":142179,"Delta":490469839},{"NoteNumber":77,"Velocity":54,"Duration":142179,"SoundDuration":142179,"Delta":490469839},{"NoteNumber":41,"Velocity":43,"Duration":142179,"SoundDuration":142179,"Delta":490469839},{"NoteNumber":53,"Velocity":43,"Duration":142179,"SoundDuration":142179,"Delta":490469839},{"NoteNumber":53,"Velocity":46,"Duration":72463,"SoundDuration":72463,"Delta":490612019},{"NoteNumber":58,"Velocity":46,"Duration":72463,"SoundDuration":72463,"Delta":490684483},{"NoteNumber":61,"Velocity":47,"Duration":72463,"SoundDuration":72463,"Delta":490756946},{"NoteNumber":34,"Velocity":39,"Duration":144927,"SoundDuration":144927,"Delta":490756946},{"NoteNumber":46,"Velocity":39,"Duration":144927,"SoundDuration":144927,"Delta":490756946},{"NoteNumber":65,"Velocity":47,"Duration":72463,"SoundDuration":72463,"Delta":490829410},{"NoteNumber":73,"Velocity":54,"Duration":144927,"SoundDuration":144927,"Delta":490901874},{"NoteNumber":77,"Velocity":54,"Duration":144927,"SoundDuration":144927,"Delta":490901874},{"NoteNumber":41,"Velocity":43,"Duration":144927,"SoundDuration":144927,"Delta":490901874},{"NoteNumber":53,"Velocity":43,"Duration":144927,"SoundDuration":144927,"Delta":490901874},{"NoteNumber":53,"Velocity":45,"Duration":73170,"SoundDuration":73170,"Delta":491046801},{"NoteNumber":58,"Velocity":46,"Duration":73170,"SoundDuration":73170,"Delta":491119972},{"NoteNumber":62,"Velocity":47,"Duration":73170,"SoundDuration":73170,"Delta":491193143},{"NoteNumber":34,"Velocity":40,"Duration":146341,"SoundDuration":146341,"Delta":491193143},{"NoteNumber":46,"Velocity":40,"Duration":146341,"SoundDuration":146341,"Delta":491193143},{"NoteNumber":65,"Velocity":49,"Duration":73170,"SoundDuration":73170,"Delta":491266314},{"NoteNumber":74,"Velocity":55,"Duration":146341,"SoundDuration":146341,"Delta":491339484},{"NoteNumber":77,"Velocity":55,"Duration":146341,"SoundDuration":146341,"Delta":491339484},{"NoteNumber":41,"Velocity":44,"Duration":146341,"SoundDuration":146341,"Delta":491339484},{"NoteNumber":53,"Velocity":44,"Duration":146341,"SoundDuration":146341,"Delta":491339484},{"NoteNumber":54,"Velocity":46,"Duration":73170,"SoundDuration":73170,"Delta":491485826},{"NoteNumber":58,"Velocity":47,"Duration":73170,"SoundDuration":73170,"Delta":491558997},{"NoteNumber":62,"Velocity":48,"Duration":73170,"SoundDuration":73170,"Delta":491632167},{"NoteNumber":34,"Velocity":42,"Duration":146341,"SoundDuration":146341,"Delta":491632167},{"NoteNumber":46,"Velocity":42,"Duration":146341,"SoundDuration":146341,"Delta":491632167},{"NoteNumber":66,"Velocity":49,"Duration":73170,"SoundDuration":73170,"Delta":491705338},{"NoteNumber":74,"Velocity":57,"Duration":146341,"SoundDuration":146341,"Delta":491778509},{"NoteNumber":78,"Velocity":57,"Duration":146341,"SoundDuration":146341,"Delta":491778509},{"NoteNumber":42,"Velocity":48,"Duration":146341,"SoundDuration":146341,"Delta":491778509},{"NoteNumber":54,"Velocity":48,"Duration":146341,"SoundDuration":146341,"Delta":491778509},{"NoteNumber":54,"Velocity":47,"Duration":74257,"SoundDuration":74257,"Delta":491924850},{"NoteNumber":58,"Velocity":48,"Duration":74257,"SoundDuration":74257,"Delta":491999108},{"NoteNumber":63,"Velocity":49,"Duration":74257,"SoundDuration":74257,"Delta":492073365},{"NoteNumber":34,"Velocity":44,"Duration":148515,"SoundDuration":148515,"Delta":492073365},{"NoteNumber":46,"Velocity":44,"Duration":148515,"SoundDuration":148515,"Delta":492073365},{"NoteNumber":66,"Velocity":51,"Duration":74257,"SoundDuration":74257,"Delta":492147623},{"NoteNumber":75,"Velocity":57,"Duration":148514,"SoundDuration":148514,"Delta":492221880},{"NoteNumber":78,"Velocity":57,"Duration":148514,"SoundDuration":148514,"Delta":492221880},{"NoteNumber":42,"Velocity":48,"Duration":148514,"SoundDuration":148514,"Delta":492221880},{"NoteNumber":54,"Velocity":48,"Duration":148514,"SoundDuration":148514,"Delta":492221880},{"NoteNumber":55,"Velocity":47,"Duration":74257,"SoundDuration":74257,"Delta":492370395},{"NoteNumber":61,"Velocity":48,"Duration":74257,"SoundDuration":74257,"Delta":492444653},{"NoteNumber":64,"Velocity":50,"Duration":74257,"SoundDuration":74257,"Delta":492518910},{"NoteNumber":33,"Velocity":46,"Duration":148514,"SoundDuration":148514,"Delta":492518910},{"NoteNumber":45,"Velocity":46,"Duration":148514,"SoundDuration":148514,"Delta":492518910},{"NoteNumber":67,"Velocity":51,"Duration":74257,"SoundDuration":74257,"Delta":492593168},{"NoteNumber":76,"Velocity":60,"Duration":148515,"SoundDuration":148515,"Delta":492667425},{"NoteNumber":79,"Velocity":60,"Duration":148515,"SoundDuration":148515,"Delta":492667425},{"NoteNumber":45,"Velocity":51,"Duration":148515,"SoundDuration":148515,"Delta":492667425},{"NoteNumber":57,"Velocity":51,"Duration":148515,"SoundDuration":148515,"Delta":492667425},{"NoteNumber":68,"Velocity":56,"Duration":75188,"SoundDuration":75188,"Delta":492815940},{"NoteNumber":73,"Velocity":60,"Duration":75187,"SoundDuration":75187,"Delta":492891128},{"NoteNumber":77,"Velocity":63,"Duration":75188,"SoundDuration":75188,"Delta":492966316},{"NoteNumber":32,"Velocity":54,"Duration":150375,"SoundDuration":150375,"Delta":492966316},{"NoteNumber":44,"Velocity":54,"Duration":150375,"SoundDuration":150375,"Delta":492966316},{"NoteNumber":80,"Velocity":67,"Duration":225563,"SoundDuration":225563,"Delta":493041504},{"NoteNumber":92,"Velocity":77,"Duration":150375,"SoundDuration":150375,"Delta":493116692},{"NoteNumber":89,"Velocity":77,"Duration":150375,"SoundDuration":150375,"Delta":493116692},{"NoteNumber":85,"Velocity":77,"Duration":150375,"SoundDuration":150375,"Delta":493116692},{"NoteNumber":65,"Velocity":65,"Duration":150375,"SoundDuration":150375,"Delta":493116692},{"NoteNumber":61,"Velocity":65,"Duration":150375,"SoundDuration":150375,"Delta":493116692},{"NoteNumber":56,"Velocity":65,"Duration":150375,"SoundDuration":150375,"Delta":493116692},{"NoteNumber":53,"Velocity":65,"Duration":150375,"SoundDuration":150375,"Delta":493116692},{"NoteNumber":60,"Velocity":63,"Duration":48426,"SoundDuration":48426,"Delta":493417444},{"NoteNumber":48,"Velocity":58,"Duration":48426,"SoundDuration":48426,"Delta":493417444},{"NoteNumber":61,"Velocity":64,"Duration":48426,"SoundDuration":48426,"Delta":493465871},{"NoteNumber":49,"Velocity":60,"Duration":48426,"SoundDuration":48426,"Delta":493465871},{"NoteNumber":65,"Velocity":66,"Duration":48426,"SoundDuration":48426,"Delta":493514297},{"NoteNumber":53,"Velocity":61,"Duration":48426,"SoundDuration":48426,"Delta":493514297},{"NoteNumber":68,"Velocity":68,"Duration":145278,"SoundDuration":145278,"Delta":493562723},{"NoteNumber":56,"Velocity":63,"Duration":145278,"SoundDuration":145278,"Delta":493562723},{"NoteNumber":59,"Velocity":62,"Duration":48426,"SoundDuration":48426,"Delta":493853280},{"NoteNumber":47,"Velocity":58,"Duration":48426,"SoundDuration":48426,"Delta":493853280},{"NoteNumber":60,"Velocity":63,"Duration":48426,"SoundDuration":48426,"Delta":493901706},{"NoteNumber":48,"Velocity":60,"Duration":48426,"SoundDuration":48426,"Delta":493901706},{"NoteNumber":65,"Velocity":65,"Duration":48426,"SoundDuration":48426,"Delta":493950132},{"NoteNumber":53,"Velocity":62,"Duration":48426,"SoundDuration":48426,"Delta":493950132},{"NoteNumber":68,"Velocity":67,"Duration":145278,"SoundDuration":145278,"Delta":493998558},{"NoteNumber":56,"Velocity":64,"Duration":145278,"SoundDuration":145278,"Delta":493998558},{"NoteNumber":57,"Velocity":62,"Duration":48426,"SoundDuration":48426,"Delta":494289115},{"NoteNumber":45,"Velocity":57,"Duration":48426,"SoundDuration":48426,"Delta":494289115},{"NoteNumber":58,"Velocity":64,"Duration":48426,"SoundDuration":48426,"Delta":494337542},{"NoteNumber":46,"Velocity":58,"Duration":48426,"SoundDuration":48426,"Delta":494337542},{"NoteNumber":65,"Velocity":66,"Duration":48426,"SoundDuration":48426,"Delta":494385968},{"NoteNumber":53,"Velocity":61,"Duration":48426,"SoundDuration":48426,"Delta":494385968},{"NoteNumber":68,"Velocity":68,"Duration":141509,"SoundDuration":141509,"Delta":494434394},{"NoteNumber":56,"Velocity":63,"Duration":141509,"SoundDuration":141509,"Delta":494434394},{"NoteNumber":56,"Velocity":86,"Duration":141509,"SoundDuration":141509,"Delta":494858922},{"NoteNumber":32,"Velocity":81,"Duration":141509,"SoundDuration":141509,"Delta":494858922},{"NoteNumber":44,"Velocity":81,"Duration":141509,"SoundDuration":141509,"Delta":494858922},{"NoteNumber":92,"Velocity":90,"Duration":566037,"SoundDuration":566037,"Delta":495283451},{"NoteNumber":89,"Velocity":90,"Duration":566037,"SoundDuration":566037,"Delta":495283451},{"NoteNumber":80,"Velocity":90,"Duration":566037,"SoundDuration":566037,"Delta":495283451},{"NoteNumber":66,"Velocity":85,"Duration":566037,"SoundDuration":566037,"Delta":495283451},{"NoteNumber":72,"Velocity":85,"Duration":566037,"SoundDuration":566037,"Delta":495283451},{"NoteNumber":77,"Velocity":85,"Duration":566037,"SoundDuration":566037,"Delta":495283451},{"NoteNumber":80,"Velocity":77,"Duration":155440,"SoundDuration":155440,"Delta":495849489},{"NoteNumber":87,"Velocity":77,"Duration":155440,"SoundDuration":155440,"Delta":495849489},{"NoteNumber":92,"Velocity":77,"Duration":155440,"SoundDuration":155440,"Delta":495849489},{"NoteNumber":66,"Velocity":65,"Duration":155440,"SoundDuration":155440,"Delta":495849489},{"NoteNumber":72,"Velocity":65,"Duration":155440,"SoundDuration":155440,"Delta":495849489},{"NoteNumber":75,"Velocity":65,"Duration":155440,"SoundDuration":155440,"Delta":495849489},{"NoteNumber":80,"Velocity":77,"Duration":149626,"SoundDuration":149626,"Delta":496004929},{"NoteNumber":89,"Velocity":77,"Duration":149626,"SoundDuration":149626,"Delta":496004929},{"NoteNumber":92,"Velocity":77,"Duration":149626,"SoundDuration":149626,"Delta":496004929},{"NoteNumber":66,"Velocity":65,"Duration":149626,"SoundDuration":149626,"Delta":496004929},{"NoteNumber":72,"Velocity":65,"Duration":149626,"SoundDuration":149626,"Delta":496004929},{"NoteNumber":77,"Velocity":65,"Duration":149626,"SoundDuration":149626,"Delta":496004929},{"NoteNumber":80,"Velocity":75,"Duration":146699,"SoundDuration":146699,"Delta":496154555},{"NoteNumber":87,"Velocity":75,"Duration":146699,"SoundDuration":146699,"Delta":496154555},{"NoteNumber":92,"Velocity":75,"Duration":146699,"SoundDuration":146699,"Delta":496154555},{"NoteNumber":66,"Velocity":63,"Duration":146699,"SoundDuration":146699,"Delta":496154555},{"NoteNumber":72,"Velocity":63,"Duration":146699,"SoundDuration":146699,"Delta":496154555},{"NoteNumber":75,"Velocity":63,"Duration":146699,"SoundDuration":146699,"Delta":496154555},{"NoteNumber":80,"Velocity":80,"Duration":146699,"SoundDuration":146699,"Delta":496301255},{"NoteNumber":89,"Velocity":80,"Duration":146699,"SoundDuration":146699,"Delta":496301255},{"NoteNumber":92,"Velocity":80,"Duration":146699,"SoundDuration":146699,"Delta":496301255},{"NoteNumber":66,"Velocity":67,"Duration":146699,"SoundDuration":146699,"Delta":496301255},{"NoteNumber":72,"Velocity":67,"Duration":146699,"SoundDuration":146699,"Delta":496301255},{"NoteNumber":77,"Velocity":67,"Duration":146699,"SoundDuration":146699,"Delta":496301255},{"NoteNumber":80,"Velocity":79,"Duration":138568,"SoundDuration":138568,"Delta":496447954},{"NoteNumber":92,"Velocity":79,"Duration":138568,"SoundDuration":138568,"Delta":496447954},{"NoteNumber":87,"Velocity":79,"Duration":138568,"SoundDuration":138568,"Delta":496447954},{"NoteNumber":75,"Velocity":66,"Duration":138568,"SoundDuration":138568,"Delta":496447954},{"NoteNumber":72,"Velocity":66,"Duration":138568,"SoundDuration":138568,"Delta":496447954},{"NoteNumber":66,"Velocity":66,"Duration":138568,"SoundDuration":138568,"Delta":496447954},{"NoteNumber":92,"Velocity":90,"Duration":103926,"SoundDuration":103926,"Delta":496586522},{"NoteNumber":89,"Velocity":90,"Duration":103926,"SoundDuration":103926,"Delta":496586522},{"NoteNumber":85,"Velocity":90,"Duration":103926,"SoundDuration":103926,"Delta":496586522},{"NoteNumber":80,"Velocity":90,"Duration":103926,"SoundDuration":103926,"Delta":496586522},{"NoteNumber":65,"Velocity":76,"Duration":103926,"SoundDuration":103926,"Delta":496586522},{"NoteNumber":68,"Velocity":76,"Duration":103926,"SoundDuration":103926,"Delta":496586522},{"NoteNumber":73,"Velocity":76,"Duration":103926,"SoundDuration":103926,"Delta":496586522},{"NoteNumber":77,"Velocity":76,"Duration":103926,"SoundDuration":103926,"Delta":496586522},{"NoteNumber":60,"Velocity":63,"Duration":48426,"SoundDuration":48426,"Delta":496863658},{"NoteNumber":48,"Velocity":58,"Duration":48426,"SoundDuration":48426,"Delta":496863658},{"NoteNumber":61,"Velocity":64,"Duration":48426,"SoundDuration":48426,"Delta":496912085},{"NoteNumber":49,"Velocity":60,"Duration":48426,"SoundDuration":48426,"Delta":496912085},{"NoteNumber":65,"Velocity":66,"Duration":48426,"SoundDuration":48426,"Delta":496960511},{"NoteNumber":53,"Velocity":61,"Duration":48426,"SoundDuration":48426,"Delta":496960511},{"NoteNumber":68,"Velocity":68,"Duration":145278,"SoundDuration":145278,"Delta":497008937},{"NoteNumber":56,"Velocity":63,"Duration":145278,"SoundDuration":145278,"Delta":497008937},{"NoteNumber":59,"Velocity":62,"Duration":48426,"SoundDuration":48426,"Delta":497299494},{"NoteNumber":47,"Velocity":58,"Duration":48426,"SoundDuration":48426,"Delta":497299494},{"NoteNumber":60,"Velocity":63,"Duration":48426,"SoundDuration":48426,"Delta":497347920},{"NoteNumber":48,"Velocity":60,"Duration":48426,"SoundDuration":48426,"Delta":497347920},{"NoteNumber":65,"Velocity":65,"Duration":48426,"SoundDuration":48426,"Delta":497396346},{"NoteNumber":53,"Velocity":62,"Duration":48426,"SoundDuration":48426,"Delta":497396346},{"NoteNumber":68,"Velocity":67,"Duration":145278,"SoundDuration":145278,"Delta":497444772},{"NoteNumber":56,"Velocity":64,"Duration":145278,"SoundDuration":145278,"Delta":497444772},{"NoteNumber":57,"Velocity":62,"Duration":48426,"SoundDuration":48426,"Delta":497735329},{"NoteNumber":45,"Velocity":57,"Duration":48426,"SoundDuration":48426,"Delta":497735329},{"NoteNumber":58,"Velocity":64,"Duration":48426,"SoundDuration":48426,"Delta":497783756},{"NoteNumber":46,"Velocity":58,"Duration":48426,"SoundDuration":48426,"Delta":497783756},{"NoteNumber":65,"Velocity":66,"Duration":48426,"SoundDuration":48426,"Delta":497832182},{"NoteNumber":53,"Velocity":61,"Duration":48426,"SoundDuration":48426,"Delta":497832182},{"NoteNumber":68,"Velocity":68,"Duration":141509,"SoundDuration":141509,"Delta":497880608},{"NoteNumber":56,"Velocity":63,"Duration":141509,"SoundDuration":141509,"Delta":497880608},{"NoteNumber":56,"Velocity":86,"Duration":141509,"SoundDuration":141509,"Delta":498305136},{"NoteNumber":32,"Velocity":81,"Duration":141509,"SoundDuration":141509,"Delta":498305136},{"NoteNumber":44,"Velocity":81,"Duration":141509,"SoundDuration":141509,"Delta":498305136},{"NoteNumber":92,"Velocity":90,"Duration":566037,"SoundDuration":566037,"Delta":498729665},{"NoteNumber":89,"Velocity":90,"Duration":566037,"SoundDuration":566037,"Delta":498729665},{"NoteNumber":80,"Velocity":90,"Duration":566037,"SoundDuration":566037,"Delta":498729665},{"NoteNumber":66,"Velocity":85,"Duration":566037,"SoundDuration":566037,"Delta":498729665},{"NoteNumber":72,"Velocity":85,"Duration":566037,"SoundDuration":566037,"Delta":498729665},{"NoteNumber":77,"Velocity":85,"Duration":566037,"SoundDuration":566037,"Delta":498729665},{"NoteNumber":80,"Velocity":74,"Duration":155440,"SoundDuration":155440,"Delta":499295703},{"NoteNumber":87,"Velocity":74,"Duration":155440,"SoundDuration":155440,"Delta":499295703},{"NoteNumber":92,"Velocity":74,"Duration":155440,"SoundDuration":155440,"Delta":499295703},{"NoteNumber":66,"Velocity":70,"Duration":155440,"SoundDuration":155440,"Delta":499295703},{"NoteNumber":72,"Velocity":70,"Duration":155440,"SoundDuration":155440,"Delta":499295703},{"NoteNumber":75,"Velocity":70,"Duration":155440,"SoundDuration":155440,"Delta":499295703},{"NoteNumber":80,"Velocity":71,"Duration":149626,"SoundDuration":149626,"Delta":499451143},{"NoteNumber":89,"Velocity":71,"Duration":149626,"SoundDuration":149626,"Delta":499451143},{"NoteNumber":92,"Velocity":71,"Duration":149626,"SoundDuration":149626,"Delta":499451143},{"NoteNumber":66,"Velocity":68,"Duration":149626,"SoundDuration":149626,"Delta":499451143},{"NoteNumber":72,"Velocity":68,"Duration":149626,"SoundDuration":149626,"Delta":499451143},{"NoteNumber":77,"Velocity":68,"Duration":149626,"SoundDuration":149626,"Delta":499451143},{"NoteNumber":80,"Velocity":68,"Duration":146699,"SoundDuration":146699,"Delta":499600769},{"NoteNumber":87,"Velocity":68,"Duration":146699,"SoundDuration":146699,"Delta":499600769},{"NoteNumber":92,"Velocity":68,"Duration":146699,"SoundDuration":146699,"Delta":499600769},{"NoteNumber":66,"Velocity":66,"Duration":146699,"SoundDuration":146699,"Delta":499600769},{"NoteNumber":72,"Velocity":66,"Duration":146699,"SoundDuration":146699,"Delta":499600769},{"NoteNumber":75,"Velocity":66,"Duration":146699,"SoundDuration":146699,"Delta":499600769},{"NoteNumber":80,"Velocity":66,"Duration":146699,"SoundDuration":146699,"Delta":499747469},{"NoteNumber":89,"Velocity":66,"Duration":146699,"SoundDuration":146699,"Delta":499747469},{"NoteNumber":92,"Velocity":66,"Duration":146699,"SoundDuration":146699,"Delta":499747469},{"NoteNumber":66,"Velocity":64,"Duration":146699,"SoundDuration":146699,"Delta":499747469},{"NoteNumber":72,"Velocity":64,"Duration":146699,"SoundDuration":146699,"Delta":499747469},{"NoteNumber":77,"Velocity":64,"Duration":146699,"SoundDuration":146699,"Delta":499747469},{"NoteNumber":80,"Velocity":63,"Duration":138568,"SoundDuration":138568,"Delta":499894168},{"NoteNumber":92,"Velocity":63,"Duration":138568,"SoundDuration":138568,"Delta":499894168},{"NoteNumber":87,"Velocity":63,"Duration":138568,"SoundDuration":138568,"Delta":499894168},{"NoteNumber":75,"Velocity":61,"Duration":138568,"SoundDuration":138568,"Delta":499894168},{"NoteNumber":72,"Velocity":61,"Duration":138568,"SoundDuration":138568,"Delta":499894168},{"NoteNumber":66,"Velocity":61,"Duration":138568,"SoundDuration":138568,"Delta":499894168},{"NoteNumber":89,"Velocity":59,"Duration":275229,"SoundDuration":275229,"Delta":500032736},{"NoteNumber":92,"Velocity":59,"Duration":412843,"SoundDuration":412843,"Delta":500032736},{"NoteNumber":80,"Velocity":59,"Duration":412843,"SoundDuration":412843,"Delta":500032736},{"NoteNumber":77,"Velocity":59,"Duration":275229,"SoundDuration":275229,"Delta":500032736},{"NoteNumber":66,"Velocity":59,"Duration":412843,"SoundDuration":412843,"Delta":500032736},{"NoteNumber":72,"Velocity":59,"Duration":412843,"SoundDuration":412843,"Delta":500032736},{"NoteNumber":87,"Velocity":59,"Duration":137614,"SoundDuration":137614,"Delta":500307965},{"NoteNumber":75,"Velocity":56,"Duration":137614,"SoundDuration":137614,"Delta":500307965},{"NoteNumber":89,"Velocity":58,"Duration":275228,"SoundDuration":275228,"Delta":500445580},{"NoteNumber":93,"Velocity":58,"Duration":410975,"SoundDuration":410975,"Delta":500445580},{"NoteNumber":81,"Velocity":58,"Duration":410975,"SoundDuration":410975,"Delta":500445580},{"NoteNumber":77,"Velocity":55,"Duration":275228,"SoundDuration":275228,"Delta":500445580},{"NoteNumber":66,"Velocity":55,"Duration":410975,"SoundDuration":410975,"Delta":500445580},{"NoteNumber":72,"Velocity":55,"Duration":410975,"SoundDuration":410975,"Delta":500445580},{"NoteNumber":87,"Velocity":58,"Duration":135746,"SoundDuration":135746,"Delta":500720809},{"NoteNumber":75,"Velocity":58,"Duration":135746,"SoundDuration":135746,"Delta":500720809},{"NoteNumber":89,"Velocity":60,"Duration":271493,"SoundDuration":271493,"Delta":500856555},{"NoteNumber":81,"Velocity":60,"Duration":407239,"SoundDuration":407239,"Delta":500856555},{"NoteNumber":93,"Velocity":60,"Duration":407239,"SoundDuration":407239,"Delta":500856555},{"NoteNumber":77,"Velocity":60,"Duration":271493,"SoundDuration":271493,"Delta":500856555},{"NoteNumber":66,"Velocity":60,"Duration":407239,"SoundDuration":407239,"Delta":500856555},{"NoteNumber":72,"Velocity":60,"Duration":407239,"SoundDuration":407239,"Delta":500856555},{"NoteNumber":87,"Velocity":58,"Duration":135746,"SoundDuration":135746,"Delta":501128048},{"NoteNumber":75,"Velocity":57,"Duration":135746,"SoundDuration":135746,"Delta":501128048},{"NoteNumber":90,"Velocity":62,"Duration":271493,"SoundDuration":271493,"Delta":501263795},{"NoteNumber":82,"Velocity":62,"Duration":406022,"SoundDuration":406022,"Delta":501263795},{"NoteNumber":94,"Velocity":62,"Duration":406022,"SoundDuration":406022,"Delta":501263795},{"NoteNumber":78,"Velocity":61,"Duration":271493,"SoundDuration":271493,"Delta":501263795},{"NoteNumber":67,"Velocity":61,"Duration":406022,"SoundDuration":406022,"Delta":501263795},{"NoteNumber":73,"Velocity":61,"Duration":406022,"SoundDuration":406022,"Delta":501263795},{"NoteNumber":88,"Velocity":63,"Duration":134528,"SoundDuration":134528,"Delta":501535288},{"NoteNumber":76,"Velocity":63,"Duration":134528,"SoundDuration":134528,"Delta":501535288},{"NoteNumber":90,"Velocity":64,"Duration":269058,"SoundDuration":269058,"Delta":501669817},{"NoteNumber":82,"Velocity":64,"Duration":403587,"SoundDuration":403587,"Delta":501669817},{"NoteNumber":94,"Velocity":64,"Duration":403587,"SoundDuration":403587,"Delta":501669817},{"NoteNumber":78,"Velocity":67,"Duration":269058,"SoundDuration":269058,"Delta":501669817},{"NoteNumber":67,"Velocity":67,"Duration":403587,"SoundDuration":403587,"Delta":501669817},{"NoteNumber":73,"Velocity":67,"Duration":403587,"SoundDuration":403587,"Delta":501669817},{"NoteNumber":88,"Velocity":70,"Duration":134528,"SoundDuration":134528,"Delta":501938875},{"NoteNumber":76,"Velocity":69,"Duration":134528,"SoundDuration":134528,"Delta":501938875},{"NoteNumber":91,"Velocity":74,"Duration":269057,"SoundDuration":269057,"Delta":502073404},{"NoteNumber":83,"Velocity":74,"Duration":403587,"SoundDuration":403587,"Delta":502073404},{"NoteNumber":95,"Velocity":74,"Duration":403587,"SoundDuration":403587,"Delta":502073404},{"NoteNumber":79,"Velocity":72,"Duration":269057,"SoundDuration":269057,"Delta":502073404},{"NoteNumber":68,"Velocity":72,"Duration":403587,"SoundDuration":403587,"Delta":502073404},{"NoteNumber":74,"Velocity":72,"Duration":403587,"SoundDuration":403587,"Delta":502073404},{"NoteNumber":89,"Velocity":73,"Duration":134529,"SoundDuration":134529,"Delta":502342462},{"NoteNumber":77,"Velocity":74,"Duration":134529,"SoundDuration":134529,"Delta":502342462},{"NoteNumber":91,"Velocity":78,"Duration":269057,"SoundDuration":269057,"Delta":502476991},{"NoteNumber":83,"Velocity":78,"Duration":409572,"SoundDuration":409572,"Delta":502476991},{"NoteNumber":95,"Velocity":78,"Duration":409572,"SoundDuration":409572,"Delta":502476991},{"NoteNumber":79,"Velocity":75,"Duration":269057,"SoundDuration":269057,"Delta":502476991},{"NoteNumber":68,"Velocity":75,"Duration":409572,"SoundDuration":409572,"Delta":502476991},{"NoteNumber":74,"Velocity":75,"Duration":409572,"SoundDuration":409572,"Delta":502476991},{"NoteNumber":89,"Velocity":78,"Duration":140514,"SoundDuration":140514,"Delta":502746049},{"NoteNumber":77,"Velocity":79,"Duration":140514,"SoundDuration":140514,"Delta":502746049},{"NoteNumber":92,"Velocity":84,"Duration":281029,"SoundDuration":281029,"Delta":502886564},{"NoteNumber":96,"Velocity":84,"Duration":440180,"SoundDuration":440180,"Delta":502886564},{"NoteNumber":84,"Velocity":84,"Duration":440180,"SoundDuration":440180,"Delta":502886564},{"NoteNumber":80,"Velocity":83,"Duration":281029,"SoundDuration":281029,"Delta":502886564},{"NoteNumber":68,"Velocity":83,"Duration":440180,"SoundDuration":440180,"Delta":502886564},{"NoteNumber":75,"Velocity":83,"Duration":440180,"SoundDuration":440180,"Delta":502886564},{"NoteNumber":90,"Velocity":86,"Duration":159151,"SoundDuration":159151,"Delta":503167594},{"NoteNumber":78,"Velocity":86,"Duration":159151,"SoundDuration":159151,"Delta":503167594},{"NoteNumber":101,"Velocity":101,"Duration":153845,"SoundDuration":153845,"Delta":503326745},{"NoteNumber":37,"Velocity":90,"Duration":153845,"SoundDuration":153845,"Delta":503326745},{"NoteNumber":49,"Velocity":90,"Duration":153845,"SoundDuration":153845,"Delta":503326745},{"NoteNumber":99,"Velocity":100,"Duration":76923,"SoundDuration":76923,"Delta":503480591},{"NoteNumber":43,"Velocity":74,"Duration":153845,"SoundDuration":153845,"Delta":503480591},{"NoteNumber":97,"Velocity":96,"Duration":76922,"SoundDuration":76922,"Delta":503557514},{"NoteNumber":92,"Velocity":98,"Duration":76923,"SoundDuration":76923,"Delta":503634437},{"NoteNumber":44,"Velocity":74,"Duration":153846,"SoundDuration":153846,"Delta":503634437},{"NoteNumber":89,"Velocity":93,"Duration":76923,"SoundDuration":76923,"Delta":503711360},{"NoteNumber":87,"Velocity":95,"Duration":75981,"SoundDuration":75981,"Delta":503788283},{"NoteNumber":44,"Velocity":79,"Duration":152220,"SoundDuration":152220,"Delta":503788283},{"NoteNumber":85,"Velocity":89,"Duration":76239,"SoundDuration":76239,"Delta":503864264},{"NoteNumber":80,"Velocity":92,"Duration":76465,"SoundDuration":76465,"Delta":503940503},{"NoteNumber":42,"Velocity":62,"Duration":153257,"SoundDuration":153257,"Delta":503940503},{"NoteNumber":54,"Velocity":62,"Duration":153257,"SoundDuration":153257,"Delta":503940503},{"NoteNumber":77,"Velocity":86,"Duration":76791,"SoundDuration":76791,"Delta":504016969},{"NoteNumber":75,"Velocity":89,"Duration":77021,"SoundDuration":77021,"Delta":504093761},{"NoteNumber":41,"Velocity":58,"Duration":154341,"SoundDuration":154341,"Delta":504093761},{"NoteNumber":53,"Velocity":58,"Duration":154341,"SoundDuration":154341,"Delta":504093761},{"NoteNumber":73,"Velocity":83,"Duration":77319,"SoundDuration":77319,"Delta":504170783},{"NoteNumber":68,"Velocity":86,"Duration":77319,"SoundDuration":77319,"Delta":504248102},{"NoteNumber":41,"Velocity":68,"Duration":77319,"SoundDuration":77319,"Delta":504248102},{"NoteNumber":53,"Velocity":68,"Duration":77319,"SoundDuration":77319,"Delta":504248102},{"NoteNumber":65,"Velocity":81,"Duration":77319,"SoundDuration":77319,"Delta":504325422},{"NoteNumber":63,"Velocity":83,"Duration":77319,"SoundDuration":77319,"Delta":504402741},{"NoteNumber":43,"Velocity":59,"Duration":154639,"SoundDuration":154639,"Delta":504402741},{"NoteNumber":61,"Velocity":79,"Duration":77319,"SoundDuration":77319,"Delta":504480061},{"NoteNumber":56,"Velocity":80,"Duration":156657,"SoundDuration":156657,"Delta":504557380},{"NoteNumber":44,"Velocity":59,"Duration":156657,"SoundDuration":156657,"Delta":504557380},{"NoteNumber":65,"Velocity":64,"Duration":452262,"SoundDuration":452262,"Delta":504714038},{"NoteNumber":57,"Velocity":88,"Duration":301508,"SoundDuration":301508,"Delta":504714038},{"NoteNumber":69,"Velocity":88,"Duration":301508,"SoundDuration":301508,"Delta":504714038},{"NoteNumber":45,"Velocity":73,"Duration":301508,"SoundDuration":301508,"Delta":504714038},{"NoteNumber":56,"Velocity":83,"Duration":150754,"SoundDuration":150754,"Delta":505015546},{"NoteNumber":68,"Velocity":83,"Duration":150754,"SoundDuration":150754,"Delta":505015546},{"NoteNumber":44,"Velocity":70,"Duration":150754,"SoundDuration":150754,"Delta":505015546},{"NoteNumber":101,"Velocity":100,"Duration":153845,"SoundDuration":153845,"Delta":505166300},{"NoteNumber":37,"Velocity":90,"Duration":153845,"SoundDuration":153845,"Delta":505166300},{"NoteNumber":49,"Velocity":90,"Duration":153845,"SoundDuration":153845,"Delta":505166300},{"NoteNumber":99,"Velocity":99,"Duration":76923,"SoundDuration":76923,"Delta":505320146},{"NoteNumber":43,"Velocity":73,"Duration":153845,"SoundDuration":153845,"Delta":505320146},{"NoteNumber":97,"Velocity":92,"Duration":76922,"SoundDuration":76922,"Delta":505397069},{"NoteNumber":92,"Velocity":96,"Duration":76923,"SoundDuration":76923,"Delta":505473992},{"NoteNumber":44,"Velocity":75,"Duration":153846,"SoundDuration":153846,"Delta":505473992},{"NoteNumber":89,"Velocity":91,"Duration":76923,"SoundDuration":76923,"Delta":505550915},{"NoteNumber":87,"Velocity":93,"Duration":75981,"SoundDuration":75981,"Delta":505627838},{"NoteNumber":44,"Velocity":77,"Duration":152220,"SoundDuration":152220,"Delta":505627838},{"NoteNumber":85,"Velocity":88,"Duration":76239,"SoundDuration":76239,"Delta":505703820},{"NoteNumber":80,"Velocity":90,"Duration":76465,"SoundDuration":76465,"Delta":505780059},{"NoteNumber":42,"Velocity":62,"Duration":153257,"SoundDuration":153257,"Delta":505780059},{"NoteNumber":54,"Velocity":62,"Duration":153257,"SoundDuration":153257,"Delta":505780059},{"NoteNumber":77,"Velocity":86,"Duration":76791,"SoundDuration":76791,"Delta":505856525},{"NoteNumber":75,"Velocity":87,"Duration":77021,"SoundDuration":77021,"Delta":505933317},{"NoteNumber":41,"Velocity":58,"Duration":154341,"SoundDuration":154341,"Delta":505933317},{"NoteNumber":53,"Velocity":58,"Duration":154341,"SoundDuration":154341,"Delta":505933317},{"NoteNumber":73,"Velocity":81,"Duration":77319,"SoundDuration":77319,"Delta":506010338},{"NoteNumber":68,"Velocity":84,"Duration":77319,"SoundDuration":77319,"Delta":506087658},{"NoteNumber":41,"Velocity":68,"Duration":77319,"SoundDuration":77319,"Delta":506087658},{"NoteNumber":53,"Velocity":68,"Duration":77319,"SoundDuration":77319,"Delta":506087658},{"NoteNumber":65,"Velocity":79,"Duration":77319,"SoundDuration":77319,"Delta":506164978},{"NoteNumber":63,"Velocity":82,"Duration":77319,"SoundDuration":77319,"Delta":506242297},{"NoteNumber":43,"Velocity":59,"Duration":154639,"SoundDuration":154639,"Delta":506242297},{"NoteNumber":61,"Velocity":76,"Duration":77319,"SoundDuration":77319,"Delta":506319617},{"NoteNumber":56,"Velocity":79,"Duration":156657,"SoundDuration":156657,"Delta":506396936},{"NoteNumber":44,"Velocity":59,"Duration":156657,"SoundDuration":156657,"Delta":506396936},{"NoteNumber":65,"Velocity":82,"Duration":441176,"SoundDuration":441176,"Delta":506553594},{"NoteNumber":57,"Velocity":82,"Duration":294118,"SoundDuration":294118,"Delta":506553594},{"NoteNumber":69,"Velocity":82,"Duration":294118,"SoundDuration":294118,"Delta":506553594},{"NoteNumber":45,"Velocity":73,"Duration":294118,"SoundDuration":294118,"Delta":506553594},{"NoteNumber":56,"Velocity":77,"Duration":147058,"SoundDuration":147058,"Delta":506847712},{"NoteNumber":68,"Velocity":77,"Duration":147058,"SoundDuration":147058,"Delta":506847712},{"NoteNumber":44,"Velocity":70,"Duration":147058,"SoundDuration":147058,"Delta":506847712},{"NoteNumber":56,"Velocity":70,"Duration":147059,"SoundDuration":147059,"Delta":506994771},{"NoteNumber":65,"Velocity":70,"Duration":147059,"SoundDuration":147059,"Delta":506994771},{"NoteNumber":68,"Velocity":70,"Duration":147059,"SoundDuration":147059,"Delta":506994771},{"NoteNumber":37,"Velocity":60,"Duration":73529,"SoundDuration":73529,"Delta":506994771},{"NoteNumber":49,"Velocity":60,"Duration":73529,"SoundDuration":73529,"Delta":506994771},{"NoteNumber":43,"Velocity":68,"Duration":143197,"SoundDuration":143197,"Delta":507141830},{"NoteNumber":44,"Velocity":68,"Duration":143198,"SoundDuration":143198,"Delta":507285028},{"NoteNumber":57,"Velocity":82,"Duration":288461,"SoundDuration":288461,"Delta":507428226},{"NoteNumber":69,"Velocity":82,"Duration":288461,"SoundDuration":288461,"Delta":507428226},{"NoteNumber":42,"Velocity":70,"Duration":144230,"SoundDuration":144230,"Delta":507572457},{"NoteNumber":54,"Velocity":70,"Duration":144230,"SoundDuration":144230,"Delta":507572457},{"NoteNumber":56,"Velocity":77,"Duration":144230,"SoundDuration":144230,"Delta":507716688},{"NoteNumber":68,"Velocity":77,"Duration":144230,"SoundDuration":144230,"Delta":507716688},{"NoteNumber":41,"Velocity":70,"Duration":144230,"SoundDuration":144230,"Delta":507716688},{"NoteNumber":53,"Velocity":70,"Duration":144230,"SoundDuration":144230,"Delta":507716688},{"NoteNumber":56,"Velocity":71,"Duration":144231,"SoundDuration":144231,"Delta":507860919},{"NoteNumber":65,"Velocity":71,"Duration":144231,"SoundDuration":144231,"Delta":507860919},{"NoteNumber":68,"Velocity":71,"Duration":144231,"SoundDuration":144231,"Delta":507860919},{"NoteNumber":37,"Velocity":63,"Duration":72115,"SoundDuration":72115,"Delta":507860919},{"NoteNumber":49,"Velocity":63,"Duration":72115,"SoundDuration":72115,"Delta":507860919},{"NoteNumber":43,"Velocity":69,"Duration":139535,"SoundDuration":139535,"Delta":508005150},{"NoteNumber":44,"Velocity":69,"Duration":139534,"SoundDuration":139534,"Delta":508144685},{"NoteNumber":57,"Velocity":83,"Duration":281690,"SoundDuration":281690,"Delta":508284220},{"NoteNumber":69,"Velocity":83,"Duration":281690,"SoundDuration":281690,"Delta":508284220},{"NoteNumber":42,"Velocity":70,"Duration":140845,"SoundDuration":140845,"Delta":508425065},{"NoteNumber":54,"Velocity":70,"Duration":140845,"SoundDuration":140845,"Delta":508425065},{"NoteNumber":56,"Velocity":77,"Duration":140844,"SoundDuration":140844,"Delta":508565910},{"NoteNumber":68,"Velocity":77,"Duration":140844,"SoundDuration":140844,"Delta":508565910},{"NoteNumber":41,"Velocity":70,"Duration":140844,"SoundDuration":140844,"Delta":508565910},{"NoteNumber":53,"Velocity":70,"Duration":140844,"SoundDuration":140844,"Delta":508565910},{"NoteNumber":56,"Velocity":74,"Duration":137614,"SoundDuration":137614,"Delta":508706755},{"NoteNumber":65,"Velocity":74,"Duration":137614,"SoundDuration":137614,"Delta":508706755},{"NoteNumber":68,"Velocity":74,"Duration":137614,"SoundDuration":137614,"Delta":508706755},{"NoteNumber":37,"Velocity":64,"Duration":68807,"SoundDuration":68807,"Delta":508706755},{"NoteNumber":49,"Velocity":64,"Duration":68807,"SoundDuration":68807,"Delta":508706755},{"NoteNumber":43,"Velocity":69,"Duration":137614,"SoundDuration":137614,"Delta":508844370},{"NoteNumber":44,"Velocity":69,"Duration":137614,"SoundDuration":137614,"Delta":508981984},{"NoteNumber":57,"Velocity":86,"Duration":278421,"SoundDuration":278421,"Delta":509119599},{"NoteNumber":69,"Velocity":86,"Duration":278421,"SoundDuration":278421,"Delta":509119599},{"NoteNumber":42,"Velocity":70,"Duration":139210,"SoundDuration":139210,"Delta":509258810},{"NoteNumber":54,"Velocity":70,"Duration":139210,"SoundDuration":139210,"Delta":509258810},{"NoteNumber":56,"Velocity":81,"Duration":143197,"SoundDuration":143197,"Delta":509398021},{"NoteNumber":68,"Velocity":81,"Duration":143197,"SoundDuration":143197,"Delta":509398021},{"NoteNumber":41,"Velocity":70,"Duration":143197,"SoundDuration":143197,"Delta":509398021},{"NoteNumber":53,"Velocity":70,"Duration":143197,"SoundDuration":143197,"Delta":509398021},{"NoteNumber":57,"Velocity":71,"Duration":107398,"SoundDuration":107398,"Delta":509541219},{"NoteNumber":65,"Velocity":71,"Duration":107398,"SoundDuration":107398,"Delta":509541219},{"NoteNumber":69,"Velocity":71,"Duration":107398,"SoundDuration":107398,"Delta":509541219},{"NoteNumber":37,"Velocity":67,"Duration":107398,"SoundDuration":107398,"Delta":509541219},{"NoteNumber":45,"Velocity":67,"Duration":107398,"SoundDuration":107398,"Delta":509541219},{"NoteNumber":56,"Velocity":73,"Duration":107398,"SoundDuration":107398,"Delta":509684417},{"NoteNumber":65,"Velocity":73,"Duration":107398,"SoundDuration":107398,"Delta":509684417},{"NoteNumber":68,"Velocity":73,"Duration":107398,"SoundDuration":107398,"Delta":509684417},{"NoteNumber":37,"Velocity":68,"Duration":107398,"SoundDuration":107398,"Delta":509684417},{"NoteNumber":44,"Velocity":68,"Duration":107398,"SoundDuration":107398,"Delta":509684417},{"NoteNumber":57,"Velocity":74,"Duration":105386,"SoundDuration":105386,"Delta":509827615},{"NoteNumber":65,"Velocity":74,"Duration":105386,"SoundDuration":105386,"Delta":509827615},{"NoteNumber":69,"Velocity":74,"Duration":105386,"SoundDuration":105386,"Delta":509827615},{"NoteNumber":37,"Velocity":70,"Duration":105386,"SoundDuration":105386,"Delta":509827615},{"NoteNumber":45,"Velocity":70,"Duration":105386,"SoundDuration":105386,"Delta":509827615},{"NoteNumber":56,"Velocity":76,"Duration":105386,"SoundDuration":105386,"Delta":509968130},{"NoteNumber":65,"Velocity":76,"Duration":105386,"SoundDuration":105386,"Delta":509968130},{"NoteNumber":68,"Velocity":76,"Duration":105386,"SoundDuration":105386,"Delta":509968130},{"NoteNumber":37,"Velocity":71,"Duration":105386,"SoundDuration":105386,"Delta":509968130},{"NoteNumber":44,"Velocity":71,"Duration":105386,"SoundDuration":105386,"Delta":509968130},{"NoteNumber":57,"Velocity":77,"Duration":103448,"SoundDuration":103448,"Delta":510108645},{"NoteNumber":65,"Velocity":77,"Duration":103448,"SoundDuration":103448,"Delta":510108645},{"NoteNumber":69,"Velocity":77,"Duration":103448,"SoundDuration":103448,"Delta":510108645},{"NoteNumber":37,"Velocity":73,"Duration":103448,"SoundDuration":103448,"Delta":510108645},{"NoteNumber":45,"Velocity":73,"Duration":103448,"SoundDuration":103448,"Delta":510108645},{"NoteNumber":56,"Velocity":79,"Duration":103448,"SoundDuration":103448,"Delta":510246576},{"NoteNumber":65,"Velocity":79,"Duration":103448,"SoundDuration":103448,"Delta":510246576},{"NoteNumber":68,"Velocity":79,"Duration":103448,"SoundDuration":103448,"Delta":510246576},{"NoteNumber":37,"Velocity":74,"Duration":103448,"SoundDuration":103448,"Delta":510246576},{"NoteNumber":44,"Velocity":74,"Duration":103448,"SoundDuration":103448,"Delta":510246576},{"NoteNumber":57,"Velocity":89,"Duration":106382,"SoundDuration":106382,"Delta":510384507},{"NoteNumber":65,"Velocity":89,"Duration":106382,"SoundDuration":106382,"Delta":510384507},{"NoteNumber":69,"Velocity":89,"Duration":106382,"SoundDuration":106382,"Delta":510384507},{"NoteNumber":36,"Velocity":84,"Duration":106382,"SoundDuration":106382,"Delta":510384507},{"NoteNumber":45,"Velocity":84,"Duration":106382,"SoundDuration":106382,"Delta":510384507},{"NoteNumber":60,"Velocity":85,"Duration":141844,"SoundDuration":141844,"Delta":510810039},{"NoteNumber":64,"Velocity":85,"Duration":141844,"SoundDuration":141844,"Delta":510810039},{"NoteNumber":70,"Velocity":100,"Duration":141844,"SoundDuration":141844,"Delta":510810039},{"NoteNumber":72,"Velocity":100,"Duration":141844,"SoundDuration":141844,"Delta":510810039},{"NoteNumber":36,"Velocity":85,"Duration":141844,"SoundDuration":141844,"Delta":510810039},{"NoteNumber":43,"Velocity":101,"Duration":141844,"SoundDuration":141844,"Delta":510810039},{"NoteNumber":48,"Velocity":101,"Duration":141844,"SoundDuration":141844,"Delta":510810039},{"NoteNumber":69,"Velocity":85,"Duration":141843,"SoundDuration":141843,"Delta":511235571},{"NoteNumber":72,"Velocity":100,"Duration":141843,"SoundDuration":141843,"Delta":511235571},{"NoteNumber":81,"Velocity":100,"Duration":141843,"SoundDuration":141843,"Delta":511235571},{"NoteNumber":77,"Velocity":100,"Duration":141843,"SoundDuration":141843,"Delta":511235571},{"NoteNumber":41,"Velocity":85,"Duration":141843,"SoundDuration":141843,"Delta":511235571},{"NoteNumber":48,"Velocity":101,"Duration":141843,"SoundDuration":141843,"Delta":511235571},{"NoteNumber":53,"Velocity":101,"Duration":141843,"SoundDuration":141843,"Delta":511235571},{"NoteNumber":66,"Velocity":85,"Duration":141843,"SoundDuration":141843,"Delta":511661103},{"NoteNumber":68,"Velocity":85,"Duration":141843,"SoundDuration":141843,"Delta":511661103},{"NoteNumber":72,"Velocity":100,"Duration":141843,"SoundDuration":141843,"Delta":511661103},{"NoteNumber":75,"Velocity":100,"Duration":141843,"SoundDuration":141843,"Delta":511661103},{"NoteNumber":78,"Velocity":100,"Duration":141843,"SoundDuration":141843,"Delta":511661103},{"NoteNumber":80,"Velocity":100,"Duration":141843,"SoundDuration":141843,"Delta":511661103},{"NoteNumber":44,"Velocity":85,"Duration":141843,"SoundDuration":141843,"Delta":511661103},{"NoteNumber":51,"Velocity":101,"Duration":141843,"SoundDuration":141843,"Delta":511661103},{"NoteNumber":56,"Velocity":101,"Duration":141843,"SoundDuration":141843,"Delta":511661103},{"NoteNumber":65,"Velocity":85,"Duration":425531,"SoundDuration":425531,"Delta":512086635},{"NoteNumber":68,"Velocity":85,"Duration":425531,"SoundDuration":425531,"Delta":512086635},{"NoteNumber":73,"Velocity":100,"Duration":425531,"SoundDuration":425531,"Delta":512086635},{"NoteNumber":77,"Velocity":100,"Duration":425531,"SoundDuration":425531,"Delta":512086635},{"NoteNumber":49,"Velocity":85,"Duration":425531,"SoundDuration":425531,"Delta":512086635},{"NoteNumber":56,"Velocity":101,"Duration":425531,"SoundDuration":425531,"Delta":512086635},{"NoteNumber":61,"Velocity":101,"Duration":425531,"SoundDuration":425531,"Delta":512086635},{"NoteNumber":53,"Velocity":85,"Duration":440098,"SoundDuration":440098,"Delta":512937699},{"NoteNumber":56,"Velocity":85,"Duration":440098,"SoundDuration":440098,"Delta":512937699},{"NoteNumber":61,"Velocity":101,"Duration":440098,"SoundDuration":440098,"Delta":512937699},{"NoteNumber":65,"Velocity":101,"Duration":440098,"SoundDuration":440098,"Delta":512937699},{"NoteNumber":37,"Velocity":85,"Duration":440098,"SoundDuration":440098,"Delta":512937699},{"NoteNumber":44,"Velocity":100,"Duration":440098,"SoundDuration":440098,"Delta":512937699},{"NoteNumber":49,"Velocity":100,"Duration":440098,"SoundDuration":440098,"Delta":512937699},{"NoteNumber":49,"Velocity":69,"Duration":245008,"SoundDuration":245008,"Delta":513707871},{"NoteNumber":56,"Velocity":82,"Duration":226670,"SoundDuration":226670,"Delta":513726208},{"NoteNumber":61,"Velocity":73,"Duration":208333,"SoundDuration":208333,"Delta":513744546},{"NoteNumber":68,"Velocity":87,"Duration":208333,"SoundDuration":208333,"Delta":513744546},{"NoteNumber":73,"Velocity":87,"Duration":208333,"SoundDuration":208333,"Delta":513744546},{"NoteNumber":65,"Velocity":82,"Duration":208333,"SoundDuration":208333,"Delta":513744546},{"NoteNumber":101,"Velocity":123,"Duration":1719526,"SoundDuration":1719526,"Delta":513952879},{"NoteNumber":25,"Velocity":100,"Duration":1719526,"SoundDuration":1719526,"Delta":513952879},{"NoteNumber":37,"Velocity":109,"Duration":1719526,"SoundDuration":1719526,"Delta":513952879}],"license":{"name":"Creative Commons Attribution-ShareAlike 3.0 Germany","url":"http://creativecommons.org/licenses/by-sa/3.0/de/deed.en","text":"The MIDI, audio (MP3, OGG) and video files of Bernd Krueger are licensed under the cc-by-sa Germany License. This means that you can use and adapt the files, as long as you attribute the copyright holder.\n\nName: Bernd Krueger\nSource: http://www.piano-midi.de\n\nThe distribution or public playback of the files is only allowed under identical license conditions.\n\nThe scores are open source.","attribution":"MIDI files by Bernd Krueger (piano-midi.de)"}}