{"title":"Sonate opus 35, 2. Satz","artist":"Chopin","durationMs":392304,"midiSha256":"6996120297b1582797e16355a95c7b3ade868dbd1e2ef581959e328ebbd6e0b8","midiObject":[{"NoteNumber":58,"Velocity":72,"Duration":282992,"SoundDuration":282992,"Delta":0},{"NoteNumber":34,"Velocity":40,"Duration":282992,"SoundDuration":282992,"Delta":0},{"NoteNumber":46,"Velocity":47,"Duration":282992,"SoundDuration":282992,"Delta":0},{"NoteNumber":51,"Velocity":47,"Duration":49550,"SoundDuration":49550,"Delta":282992},{"NoteNumber":63,"Velocity":56,"Duration":49550,"SoundDuration":49550,"Delta":282992},{"NoteNumber":27,"Velocity":36,"Duration":266748,"SoundDuration":266748,"Delta":282992},{"NoteNumber":39,"Velocity":42,"Duration":266748,"SoundDuration":266748,"Delta":282992},{"NoteNumber":51,"Velocity":49,"Duration":50480,"SoundDuration":50480,"Delta":415127},{"NoteNumber":63,"Velocity":58,"Duration":50480,"SoundDuration":50480,"Delta":415127},{"NoteNumber":51,"Velocity":54,"Duration":49437,"SoundDuration":49437,"Delta":549741},{"NoteNumber":63,"Velocity":64,"Duration":49437,"SoundDuration":49437,"Delta":549741},{"NoteNumber":28,"Velocity":36,"Duration":49437,"SoundDuration":49437,"Delta":549741},{"NoteNumber":40,"Velocity":42,"Duration":49437,"SoundDuration":49437,"Delta":549741},{"NoteNumber":51,"Velocity":56,"Duration":52700,"SoundDuration":52700,"Delta":681574},{"NoteNumber":63,"Velocity":65,"Duration":52700,"SoundDuration":52700,"Delta":681574},{"NoteNumber":29,"Velocity":36,"Duration":52700,"SoundDuration":52700,"Delta":681574},{"NoteNumber":41,"Velocity":45,"Duration":52700,"SoundDuration":52700,"Delta":681574},{"NoteNumber":51,"Velocity":61,"Duration":283151,"SoundDuration":283151,"Delta":819565},{"NoteNumber":63,"Velocity":72,"Duration":283151,"SoundDuration":283151,"Delta":819565},{"NoteNumber":30,"Velocity":42,"Duration":283151,"SoundDuration":283151,"Delta":819565},{"NoteNumber":42,"Velocity":50,"Duration":283151,"SoundDuration":283151,"Delta":819565},{"NoteNumber":65,"Velocity":80,"Duration":275141,"SoundDuration":275141,"Delta":1102717},{"NoteNumber":59,"Velocity":67,"Duration":275141,"SoundDuration":275141,"Delta":1102717},{"NoteNumber":63,"Velocity":67,"Duration":275141,"SoundDuration":275141,"Delta":1102717},{"NoteNumber":53,"Velocity":67,"Duration":275141,"SoundDuration":275141,"Delta":1102717},{"NoteNumber":32,"Velocity":50,"Duration":223552,"SoundDuration":223552,"Delta":1102717},{"NoteNumber":44,"Velocity":59,"Duration":223552,"SoundDuration":223552,"Delta":1102717},{"NoteNumber":44,"Velocity":37,"Duration":272067,"SoundDuration":272067,"Delta":1326269},{"NoteNumber":51,"Velocity":37,"Duration":254871,"SoundDuration":254871,"Delta":1343465},{"NoteNumber":53,"Velocity":37,"Duration":237674,"SoundDuration":237674,"Delta":1360661},{"NoteNumber":65,"Velocity":56,"Duration":135679,"SoundDuration":135679,"Delta":1377858},{"NoteNumber":71,"Velocity":56,"Duration":135679,"SoundDuration":135679,"Delta":1377858},{"NoteNumber":75,"Velocity":56,"Duration":135679,"SoundDuration":135679,"Delta":1377858},{"NoteNumber":77,"Velocity":68,"Duration":135679,"SoundDuration":135679,"Delta":1377858},{"NoteNumber":59,"Velocity":46,"Duration":220478,"SoundDuration":220478,"Delta":1377858},{"NoteNumber":63,"Velocity":55,"Duration":135679,"SoundDuration":135679,"Delta":1513537},{"NoteNumber":75,"Velocity":66,"Duration":135679,"SoundDuration":135679,"Delta":1513537},{"NoteNumber":46,"Velocity":37,"Duration":327104,"SoundDuration":327104,"Delta":1598336},{"NoteNumber":53,"Velocity":37,"Duration":310144,"SoundDuration":310144,"Delta":1615296},{"NoteNumber":56,"Velocity":37,"Duration":277218,"SoundDuration":277218,"Delta":1632256},{"NoteNumber":65,"Velocity":56,"Duration":134300,"SoundDuration":134300,"Delta":1649216},{"NoteNumber":70,"Velocity":56,"Duration":134300,"SoundDuration":134300,"Delta":1649216},{"NoteNumber":74,"Velocity":56,"Duration":134300,"SoundDuration":134300,"Delta":1649216},{"NoteNumber":77,"Velocity":68,"Duration":134300,"SoundDuration":134300,"Delta":1649216},{"NoteNumber":62,"Velocity":46,"Duration":276225,"SoundDuration":276225,"Delta":1649216},{"NoteNumber":66,"Velocity":53,"Duration":141924,"SoundDuration":141924,"Delta":1783516},{"NoteNumber":78,"Velocity":65,"Duration":141924,"SoundDuration":141924,"Delta":1783516},{"NoteNumber":54,"Velocity":49,"Duration":49437,"SoundDuration":49437,"Delta":1925441},{"NoteNumber":66,"Velocity":59,"Duration":49437,"SoundDuration":49437,"Delta":1925441},{"NoteNumber":30,"Velocity":38,"Duration":266446,"SoundDuration":266446,"Delta":1925441},{"NoteNumber":42,"Velocity":44,"Duration":266446,"SoundDuration":266446,"Delta":1925441},{"NoteNumber":54,"Velocity":52,"Duration":50480,"SoundDuration":50480,"Delta":2057274},{"NoteNumber":66,"Velocity":61,"Duration":50480,"SoundDuration":50480,"Delta":2057274},{"NoteNumber":54,"Velocity":57,"Duration":49437,"SoundDuration":49437,"Delta":2191888},{"NoteNumber":66,"Velocity":67,"Duration":49437,"SoundDuration":49437,"Delta":2191888},{"NoteNumber":31,"Velocity":38,"Duration":49437,"SoundDuration":49437,"Delta":2191888},{"NoteNumber":43,"Velocity":44,"Duration":49437,"SoundDuration":49437,"Delta":2191888},{"NoteNumber":54,"Velocity":57,"Duration":53352,"SoundDuration":53352,"Delta":2323721},{"NoteNumber":66,"Velocity":66,"Duration":53352,"SoundDuration":53352,"Delta":2323721},{"NoteNumber":32,"Velocity":35,"Duration":53352,"SoundDuration":53352,"Delta":2323721},{"NoteNumber":44,"Velocity":43,"Duration":53352,"SoundDuration":53352,"Delta":2323721},{"NoteNumber":54,"Velocity":64,"Duration":279707,"SoundDuration":279707,"Delta":2462923},{"NoteNumber":66,"Velocity":75,"Duration":279707,"SoundDuration":279707,"Delta":2462923},{"NoteNumber":33,"Velocity":43,"Duration":279707,"SoundDuration":279707,"Delta":2462923},{"NoteNumber":45,"Velocity":51,"Duration":279707,"SoundDuration":279707,"Delta":2462923},{"NoteNumber":56,"Velocity":67,"Duration":273623,"SoundDuration":273623,"Delta":2742630},{"NoteNumber":62,"Velocity":69,"Duration":273623,"SoundDuration":273623,"Delta":2742630},{"NoteNumber":66,"Velocity":69,"Duration":273623,"SoundDuration":273623,"Delta":2742630},{"NoteNumber":68,"Velocity":82,"Duration":273623,"SoundDuration":273623,"Delta":2742630},{"NoteNumber":35,"Velocity":53,"Duration":222318,"SoundDuration":222318,"Delta":2742630},{"NoteNumber":47,"Velocity":63,"Duration":222318,"SoundDuration":222318,"Delta":2742630},{"NoteNumber":48,"Velocity":39,"Duration":271196,"SoundDuration":271196,"Delta":2964948},{"NoteNumber":54,"Velocity":39,"Duration":254094,"SoundDuration":254094,"Delta":2982050},{"NoteNumber":56,"Velocity":39,"Duration":236993,"SoundDuration":236993,"Delta":2999151},{"NoteNumber":80,"Velocity":72,"Duration":135317,"SoundDuration":135317,"Delta":3016253},{"NoteNumber":74,"Velocity":59,"Duration":135317,"SoundDuration":135317,"Delta":3016253},{"NoteNumber":78,"Velocity":59,"Duration":135317,"SoundDuration":135317,"Delta":3016253},{"NoteNumber":68,"Velocity":59,"Duration":135317,"SoundDuration":135317,"Delta":3016253},{"NoteNumber":62,"Velocity":48,"Duration":219891,"SoundDuration":219891,"Delta":3016253},{"NoteNumber":66,"Velocity":58,"Duration":135318,"SoundDuration":135318,"Delta":3151571},{"NoteNumber":78,"Velocity":70,"Duration":135318,"SoundDuration":135318,"Delta":3151571},{"NoteNumber":49,"Velocity":39,"Duration":325645,"SoundDuration":325645,"Delta":3236145},{"NoteNumber":56,"Velocity":39,"Duration":308730,"SoundDuration":308730,"Delta":3253059},{"NoteNumber":59,"Velocity":39,"Duration":291816,"SoundDuration":291816,"Delta":3269974},{"NoteNumber":80,"Velocity":72,"Duration":133671,"SoundDuration":133671,"Delta":3286889},{"NoteNumber":73,"Velocity":59,"Duration":133671,"SoundDuration":133671,"Delta":3286889},{"NoteNumber":77,"Velocity":59,"Duration":133671,"SoundDuration":133671,"Delta":3286889},{"NoteNumber":68,"Velocity":59,"Duration":133671,"SoundDuration":133671,"Delta":3286889},{"NoteNumber":65,"Velocity":48,"Duration":274901,"SoundDuration":274901,"Delta":3286889},{"NoteNumber":69,"Velocity":54,"Duration":141229,"SoundDuration":141229,"Delta":3420561},{"NoteNumber":81,"Velocity":65,"Duration":141229,"SoundDuration":141229,"Delta":3420561},{"NoteNumber":57,"Velocity":47,"Duration":48876,"SoundDuration":48876,"Delta":3561790},{"NoteNumber":69,"Velocity":56,"Duration":48876,"SoundDuration":48876,"Delta":3561790},{"NoteNumber":33,"Velocity":36,"Duration":263445,"SoundDuration":263445,"Delta":3561790},{"NoteNumber":45,"Velocity":42,"Duration":263445,"SoundDuration":263445,"Delta":3561790},{"NoteNumber":57,"Velocity":51,"Duration":49895,"SoundDuration":49895,"Delta":3692129},{"NoteNumber":69,"Velocity":60,"Duration":49895,"SoundDuration":49895,"Delta":3692129},{"NoteNumber":57,"Velocity":54,"Duration":49098,"SoundDuration":49098,"Delta":3825236},{"NoteNumber":69,"Velocity":64,"Duration":49098,"SoundDuration":49098,"Delta":3825236},{"NoteNumber":35,"Velocity":36,"Duration":49098,"SoundDuration":49098,"Delta":3825236},{"NoteNumber":47,"Velocity":42,"Duration":49098,"SoundDuration":49098,"Delta":3825236},{"NoteNumber":57,"Velocity":59,"Duration":53221,"SoundDuration":53221,"Delta":3956166},{"NoteNumber":69,"Velocity":69,"Duration":53221,"SoundDuration":53221,"Delta":3956166},{"NoteNumber":36,"Velocity":37,"Duration":53221,"SoundDuration":53221,"Delta":3956166},{"NoteNumber":48,"Velocity":45,"Duration":53221,"SoundDuration":53221,"Delta":3956166},{"NoteNumber":57,"Velocity":68,"Duration":273622,"SoundDuration":273622,"Delta":4096561},{"NoteNumber":69,"Velocity":79,"Duration":273622,"SoundDuration":273622,"Delta":4096561},{"NoteNumber":37,"Velocity":46,"Duration":273622,"SoundDuration":273622,"Delta":4096561},{"NoteNumber":49,"Velocity":54,"Duration":273622,"SoundDuration":273622,"Delta":4096561},{"NoteNumber":58,"Velocity":52,"Duration":49437,"SoundDuration":49437,"Delta":4370184},{"NoteNumber":70,"Velocity":63,"Duration":49437,"SoundDuration":49437,"Delta":4370184},{"NoteNumber":68,"Velocity":52,"Duration":49437,"SoundDuration":49437,"Delta":4370184},{"NoteNumber":56,"Velocity":52,"Duration":49437,"SoundDuration":49437,"Delta":4370184},{"NoteNumber":65,"Velocity":52,"Duration":49437,"SoundDuration":49437,"Delta":4370184},{"NoteNumber":38,"Velocity":40,"Duration":265816,"SoundDuration":265816,"Delta":4370184},{"NoteNumber":50,"Velocity":47,"Duration":265816,"SoundDuration":265816,"Delta":4370184},{"NoteNumber":58,"Velocity":55,"Duration":50243,"SoundDuration":50243,"Delta":4502017},{"NoteNumber":65,"Velocity":55,"Duration":50243,"SoundDuration":50243,"Delta":4502017},{"NoteNumber":68,"Velocity":55,"Duration":50243,"SoundDuration":50243,"Delta":4502017},{"NoteNumber":56,"Velocity":55,"Duration":50243,"SoundDuration":50243,"Delta":4502017},{"NoteNumber":70,"Velocity":66,"Duration":50243,"SoundDuration":50243,"Delta":4502017},{"NoteNumber":58,"Velocity":57,"Duration":49550,"SoundDuration":49550,"Delta":4636000},{"NoteNumber":65,"Velocity":57,"Duration":49550,"SoundDuration":49550,"Delta":4636000},{"NoteNumber":68,"Velocity":57,"Duration":49550,"SoundDuration":49550,"Delta":4636000},{"NoteNumber":56,"Velocity":57,"Duration":49550,"SoundDuration":49550,"Delta":4636000},{"NoteNumber":70,"Velocity":67,"Duration":49550,"SoundDuration":49550,"Delta":4636000},{"NoteNumber":39,"Velocity":38,"Duration":49550,"SoundDuration":49550,"Delta":4636000},{"NoteNumber":51,"Velocity":44,"Duration":49550,"SoundDuration":49550,"Delta":4636000},{"NoteNumber":56,"Velocity":57,"Duration":53352,"SoundDuration":53352,"Delta":4768135},{"NoteNumber":65,"Velocity":57,"Duration":53352,"SoundDuration":53352,"Delta":4768135},{"NoteNumber":68,"Velocity":68,"Duration":53352,"SoundDuration":53352,"Delta":4768135},{"NoteNumber":58,"Velocity":57,"Duration":53352,"SoundDuration":53352,"Delta":4768135},{"NoteNumber":70,"Velocity":68,"Duration":53352,"SoundDuration":53352,"Delta":4768135},{"NoteNumber":40,"Velocity":37,"Duration":53352,"SoundDuration":53352,"Delta":4768135},{"NoteNumber":52,"Velocity":45,"Duration":53352,"SoundDuration":53352,"Delta":4768135},{"NoteNumber":56,"Velocity":68,"Duration":277008,"SoundDuration":277008,"Delta":4910410},{"NoteNumber":70,"Velocity":81,"Duration":277008,"SoundDuration":277008,"Delta":4910410},{"NoteNumber":68,"Velocity":68,"Duration":277008,"SoundDuration":277008,"Delta":4910410},{"NoteNumber":58,"Velocity":68,"Duration":277008,"SoundDuration":277008,"Delta":4910410},{"NoteNumber":62,"Velocity":68,"Duration":277008,"SoundDuration":277008,"Delta":4910410},{"NoteNumber":41,"Velocity":45,"Duration":277008,"SoundDuration":277008,"Delta":4910410},{"NoteNumber":53,"Velocity":53,"Duration":277008,"SoundDuration":277008,"Delta":4910410},{"NoteNumber":70,"Velocity":63,"Duration":49780,"SoundDuration":49780,"Delta":5187418},{"NoteNumber":63,"Velocity":52,"Duration":49780,"SoundDuration":49780,"Delta":5187418},{"NoteNumber":66,"Velocity":52,"Duration":49780,"SoundDuration":49780,"Delta":5187418},{"NoteNumber":58,"Velocity":52,"Duration":49780,"SoundDuration":49780,"Delta":5187418},{"NoteNumber":42,"Velocity":40,"Duration":267677,"SoundDuration":267677,"Delta":5187418},{"NoteNumber":54,"Velocity":47,"Duration":267677,"SoundDuration":267677,"Delta":5187418},{"NoteNumber":58,"Velocity":55,"Duration":50598,"SoundDuration":50598,"Delta":5320167},{"NoteNumber":63,"Velocity":55,"Duration":50598,"SoundDuration":50598,"Delta":5320167},{"NoteNumber":66,"Velocity":55,"Duration":50598,"SoundDuration":50598,"Delta":5320167},{"NoteNumber":70,"Velocity":66,"Duration":50598,"SoundDuration":50598,"Delta":5320167},{"NoteNumber":63,"Velocity":57,"Duration":50126,"SoundDuration":50126,"Delta":5455095},{"NoteNumber":66,"Velocity":57,"Duration":50126,"SoundDuration":50126,"Delta":5455095},{"NoteNumber":70,"Velocity":67,"Duration":50126,"SoundDuration":50126,"Delta":5455095},{"NoteNumber":44,"Velocity":38,"Duration":50126,"SoundDuration":50126,"Delta":5455095},{"NoteNumber":56,"Velocity":44,"Duration":50126,"SoundDuration":50126,"Delta":5455095},{"NoteNumber":63,"Velocity":56,"Duration":51690,"SoundDuration":51690,"Delta":5588767},{"NoteNumber":66,"Velocity":56,"Duration":51690,"SoundDuration":51690,"Delta":5588767},{"NoteNumber":70,"Velocity":67,"Duration":51690,"SoundDuration":51690,"Delta":5588767},{"NoteNumber":45,"Velocity":37,"Duration":51690,"SoundDuration":51690,"Delta":5588767},{"NoteNumber":57,"Velocity":45,"Duration":51690,"SoundDuration":51690,"Delta":5588767},{"NoteNumber":63,"Velocity":70,"Duration":279030,"SoundDuration":279030,"Delta":5726610},{"NoteNumber":66,"Velocity":72,"Duration":279030,"SoundDuration":279030,"Delta":5726610},{"NoteNumber":70,"Velocity":85,"Duration":279030,"SoundDuration":279030,"Delta":5726610},{"NoteNumber":46,"Velocity":47,"Duration":279030,"SoundDuration":279030,"Delta":5726610},{"NoteNumber":58,"Velocity":56,"Duration":279030,"SoundDuration":279030,"Delta":5726610},{"NoteNumber":58,"Velocity":66,"Duration":284157,"SoundDuration":284157,"Delta":6005641},{"NoteNumber":63,"Velocity":66,"Duration":284157,"SoundDuration":284157,"Delta":6005641},{"NoteNumber":70,"Velocity":78,"Duration":284157,"SoundDuration":284157,"Delta":6005641},{"NoteNumber":47,"Velocity":48,"Duration":284157,"SoundDuration":284157,"Delta":6005641},{"NoteNumber":59,"Velocity":57,"Duration":284157,"SoundDuration":284157,"Delta":6005641},{"NoteNumber":56,"Velocity":66,"Duration":276676,"SoundDuration":276676,"Delta":6289799},{"NoteNumber":63,"Velocity":66,"Duration":276676,"SoundDuration":276676,"Delta":6289799},{"NoteNumber":68,"Velocity":78,"Duration":276676,"SoundDuration":276676,"Delta":6289799},{"NoteNumber":35,"Velocity":43,"Duration":276676,"SoundDuration":276676,"Delta":6289799},{"NoteNumber":47,"Velocity":52,"Duration":276676,"SoundDuration":276676,"Delta":6289799},{"NoteNumber":54,"Velocity":63,"Duration":280746,"SoundDuration":280746,"Delta":6566475},{"NoteNumber":57,"Velocity":63,"Duration":280746,"SoundDuration":280746,"Delta":6566475},{"NoteNumber":63,"Velocity":63,"Duration":280746,"SoundDuration":280746,"Delta":6566475},{"NoteNumber":66,"Velocity":74,"Duration":280746,"SoundDuration":280746,"Delta":6566475},{"NoteNumber":36,"Velocity":43,"Duration":280746,"SoundDuration":280746,"Delta":6566475},{"NoteNumber":48,"Velocity":52,"Duration":280746,"SoundDuration":280746,"Delta":6566475},{"NoteNumber":58,"Velocity":52,"Duration":136692,"SoundDuration":136692,"Delta":6847221},{"NoteNumber":61,"Velocity":52,"Duration":136692,"SoundDuration":136692,"Delta":6847221},{"NoteNumber":65,"Velocity":61,"Duration":136692,"SoundDuration":136692,"Delta":6847221},{"NoteNumber":37,"Velocity":50,"Duration":272741,"SoundDuration":272741,"Delta":6847221},{"NoteNumber":49,"Velocity":60,"Duration":272741,"SoundDuration":272741,"Delta":6847221},{"NoteNumber":61,"Velocity":59,"Duration":136048,"SoundDuration":136048,"Delta":6983914},{"NoteNumber":66,"Velocity":66,"Duration":135403,"SoundDuration":135403,"Delta":7119963},{"NoteNumber":73,"Velocity":78,"Duration":135403,"SoundDuration":135403,"Delta":7119963},{"NoteNumber":49,"Velocity":48,"Duration":270227,"SoundDuration":270227,"Delta":7119963},{"NoteNumber":58,"Velocity":57,"Duration":270227,"SoundDuration":270227,"Delta":7119963},{"NoteNumber":66,"Velocity":73,"Duration":134823,"SoundDuration":134823,"Delta":7255366},{"NoteNumber":70,"Velocity":69,"Duration":134246,"SoundDuration":134246,"Delta":7390190},{"NoteNumber":78,"Velocity":82,"Duration":134246,"SoundDuration":134246,"Delta":7390190},{"NoteNumber":61,"Velocity":57,"Duration":267867,"SoundDuration":267867,"Delta":7390190},{"NoteNumber":54,"Velocity":48,"Duration":267867,"SoundDuration":267867,"Delta":7390190},{"NoteNumber":70,"Velocity":71,"Duration":133620,"SoundDuration":133620,"Delta":7524436},{"NoteNumber":73,"Velocity":65,"Duration":133106,"SoundDuration":133106,"Delta":7658057},{"NoteNumber":82,"Velocity":76,"Duration":133106,"SoundDuration":133106,"Delta":7658057},{"NoteNumber":58,"Velocity":42,"Duration":266162,"SoundDuration":266162,"Delta":7658057},{"NoteNumber":66,"Velocity":60,"Duration":266162,"SoundDuration":266162,"Delta":7658057},{"NoteNumber":73,"Velocity":69,"Duration":133055,"SoundDuration":133055,"Delta":7791164},{"NoteNumber":78,"Velocity":66,"Duration":134613,"SoundDuration":134613,"Delta":7924219},{"NoteNumber":85,"Velocity":78,"Duration":134613,"SoundDuration":134613,"Delta":7924219},{"NoteNumber":61,"Velocity":40,"Duration":269227,"SoundDuration":269227,"Delta":7924219},{"NoteNumber":70,"Velocity":57,"Duration":269227,"SoundDuration":269227,"Delta":7924219},{"NoteNumber":78,"Velocity":73,"Duration":134613,"SoundDuration":134613,"Delta":8058833},{"NoteNumber":82,"Velocity":69,"Duration":138837,"SoundDuration":138837,"Delta":8193446},{"NoteNumber":90,"Velocity":82,"Duration":138837,"SoundDuration":138837,"Delta":8193446},{"NoteNumber":73,"Velocity":57,"Duration":277675,"SoundDuration":277675,"Delta":8193446},{"NoteNumber":66,"Velocity":40,"Duration":277675,"SoundDuration":277675,"Delta":8193446},{"NoteNumber":82,"Velocity":75,"Duration":138837,"SoundDuration":138837,"Delta":8332284},{"NoteNumber":85,"Velocity":69,"Duration":277675,"SoundDuration":277675,"Delta":8471121},{"NoteNumber":82,"Velocity":69,"Duration":277675,"SoundDuration":277675,"Delta":8471121},{"NoteNumber":94,"Velocity":82,"Duration":277675,"SoundDuration":277675,"Delta":8471121},{"NoteNumber":70,"Velocity":48,"Duration":277675,"SoundDuration":277675,"Delta":8471121},{"NoteNumber":78,"Velocity":57,"Duration":277675,"SoundDuration":277675,"Delta":8471121},{"NoteNumber":85,"Velocity":66,"Duration":273061,"SoundDuration":273061,"Delta":8748796},{"NoteNumber":80,"Velocity":64,"Duration":273061,"SoundDuration":273061,"Delta":8748796},{"NoteNumber":92,"Velocity":76,"Duration":273061,"SoundDuration":273061,"Delta":8748796},{"NoteNumber":71,"Velocity":46,"Duration":273061,"SoundDuration":273061,"Delta":8748796},{"NoteNumber":77,"Velocity":51,"Duration":273061,"SoundDuration":273061,"Delta":8748796},{"NoteNumber":85,"Velocity":73,"Duration":282992,"SoundDuration":282992,"Delta":9021858},{"NoteNumber":80,"Velocity":61,"Duration":282992,"SoundDuration":282992,"Delta":9021858},{"NoteNumber":73,"Velocity":61,"Duration":282992,"SoundDuration":282992,"Delta":9021858},{"NoteNumber":61,"Velocity":42,"Duration":282992,"SoundDuration":282992,"Delta":9021858},{"NoteNumber":65,"Velocity":42,"Duration":282992,"SoundDuration":282992,"Delta":9021858},{"NoteNumber":71,"Velocity":51,"Duration":282992,"SoundDuration":282992,"Delta":9021858},{"NoteNumber":73,"Velocity":57,"Duration":277008,"SoundDuration":277008,"Delta":9304850},{"NoteNumber":80,"Velocity":61,"Duration":277008,"SoundDuration":277008,"Delta":9304850},{"NoteNumber":85,"Velocity":75,"Duration":556039,"SoundDuration":556039,"Delta":9304850},{"NoteNumber":61,"Velocity":46,"Duration":556039,"SoundDuration":556039,"Delta":9304850},{"NoteNumber":65,"Velocity":46,"Duration":277008,"SoundDuration":277008,"Delta":9304850},{"NoteNumber":71,"Velocity":52,"Duration":277008,"SoundDuration":277008,"Delta":9304850},{"NoteNumber":90,"Velocity":68,"Duration":279030,"SoundDuration":279030,"Delta":9581858},{"NoteNumber":78,"Velocity":58,"Duration":279030,"SoundDuration":279030,"Delta":9581858},{"NoteNumber":54,"Velocity":38,"Duration":279030,"SoundDuration":279030,"Delta":9581858},{"NoteNumber":70,"Velocity":47,"Duration":279030,"SoundDuration":279030,"Delta":9581858},{"NoteNumber":73,"Velocity":56,"Duration":281755,"SoundDuration":281755,"Delta":9860889},{"NoteNumber":68,"Velocity":49,"Duration":281755,"SoundDuration":281755,"Delta":9860889},{"NoteNumber":61,"Velocity":40,"Duration":281755,"SoundDuration":281755,"Delta":9860889},{"NoteNumber":49,"Velocity":28,"Duration":281755,"SoundDuration":281755,"Delta":9860889},{"NoteNumber":53,"Velocity":33,"Duration":281755,"SoundDuration":281755,"Delta":9860889},{"NoteNumber":59,"Velocity":38,"Duration":281755,"SoundDuration":281755,"Delta":9860889},{"NoteNumber":61,"Velocity":40,"Duration":279799,"SoundDuration":279799,"Delta":10142645},{"NoteNumber":68,"Velocity":48,"Duration":279799,"SoundDuration":279799,"Delta":10142645},{"NoteNumber":73,"Velocity":56,"Duration":560185,"SoundDuration":560185,"Delta":10142645},{"NoteNumber":49,"Velocity":31,"Duration":560185,"SoundDuration":560185,"Delta":10142645},{"NoteNumber":53,"Velocity":34,"Duration":279799,"SoundDuration":279799,"Delta":10142645},{"NoteNumber":59,"Velocity":42,"Duration":279799,"SoundDuration":279799,"Delta":10142645},{"NoteNumber":78,"Velocity":56,"Duration":280386,"SoundDuration":280386,"Delta":10422444},{"NoteNumber":66,"Velocity":49,"Duration":280386,"SoundDuration":280386,"Delta":10422444},{"NoteNumber":42,"Velocity":32,"Duration":280386,"SoundDuration":280386,"Delta":10422444},{"NoteNumber":58,"Velocity":38,"Duration":280386,"SoundDuration":280386,"Delta":10422444},{"NoteNumber":73,"Velocity":55,"Duration":288017,"SoundDuration":288017,"Delta":10702831},{"NoteNumber":68,"Velocity":46,"Duration":288017,"SoundDuration":288017,"Delta":10702831},{"NoteNumber":61,"Velocity":38,"Duration":288017,"SoundDuration":288017,"Delta":10702831},{"NoteNumber":49,"Velocity":29,"Duration":288017,"SoundDuration":288017,"Delta":10702831},{"NoteNumber":53,"Velocity":31,"Duration":288017,"SoundDuration":288017,"Delta":10702831},{"NoteNumber":59,"Velocity":36,"Duration":288017,"SoundDuration":288017,"Delta":10702831},{"NoteNumber":61,"Velocity":40,"Duration":284914,"SoundDuration":284914,"Delta":10990849},{"NoteNumber":68,"Velocity":48,"Duration":284914,"SoundDuration":284914,"Delta":10990849},{"NoteNumber":73,"Velocity":55,"Duration":578183,"SoundDuration":578183,"Delta":10990849},{"NoteNumber":49,"Velocity":30,"Duration":578183,"SoundDuration":578183,"Delta":10990849},{"NoteNumber":53,"Velocity":34,"Duration":284914,"SoundDuration":284914,"Delta":10990849},{"NoteNumber":59,"Velocity":38,"Duration":284914,"SoundDuration":284914,"Delta":10990849},{"NoteNumber":78,"Velocity":56,"Duration":293269,"SoundDuration":293269,"Delta":11275763},{"NoteNumber":66,"Velocity":48,"Duration":293269,"SoundDuration":293269,"Delta":11275763},{"NoteNumber":42,"Velocity":32,"Duration":293269,"SoundDuration":293269,"Delta":11275763},{"NoteNumber":58,"Velocity":38,"Duration":293269,"SoundDuration":293269,"Delta":11275763},{"NoteNumber":61,"Velocity":52,"Duration":284549,"SoundDuration":284549,"Delta":11569032},{"NoteNumber":73,"Velocity":52,"Duration":284549,"SoundDuration":284549,"Delta":11569032},{"NoteNumber":61,"Velocity":51,"Duration":868767,"SoundDuration":868767,"Delta":11853581},{"NoteNumber":73,"Velocity":56,"Duration":868767,"SoundDuration":868767,"Delta":11853581},{"NoteNumber":58,"Velocity":46,"Duration":3401565,"SoundDuration":3401565,"Delta":12722348},{"NoteNumber":70,"Velocity":53,"Duration":3401565,"SoundDuration":3401565,"Delta":12722348},{"NoteNumber":44,"Velocity":36,"Duration":276726,"SoundDuration":276726,"Delta":13591115},{"NoteNumber":56,"Velocity":43,"Duration":276726,"SoundDuration":276726,"Delta":13591115},{"NoteNumber":42,"Velocity":30,"Duration":283393,"SoundDuration":283393,"Delta":13867842},{"NoteNumber":54,"Velocity":37,"Duration":283393,"SoundDuration":283393,"Delta":13867842},{"NoteNumber":39,"Velocity":30,"Duration":283393,"SoundDuration":283393,"Delta":14151235},{"NoteNumber":51,"Velocity":37,"Duration":283393,"SoundDuration":283393,"Delta":14151235},{"NoteNumber":42,"Velocity":36,"Duration":276726,"SoundDuration":276726,"Delta":14434628},{"NoteNumber":54,"Velocity":43,"Duration":276726,"SoundDuration":276726,"Delta":14434628},{"NoteNumber":41,"Velocity":30,"Duration":284157,"SoundDuration":284157,"Delta":14711355},{"NoteNumber":53,"Velocity":37,"Duration":284157,"SoundDuration":284157,"Delta":14711355},{"NoteNumber":37,"Velocity":30,"Duration":284157,"SoundDuration":284157,"Delta":14995513},{"NoteNumber":49,"Velocity":37,"Duration":284157,"SoundDuration":284157,"Delta":14995513},{"NoteNumber":39,"Velocity":36,"Duration":277456,"SoundDuration":277456,"Delta":15279671},{"NoteNumber":51,"Velocity":43,"Duration":277456,"SoundDuration":277456,"Delta":15279671},{"NoteNumber":37,"Velocity":30,"Duration":283393,"SoundDuration":283393,"Delta":15557128},{"NoteNumber":49,"Velocity":37,"Duration":283393,"SoundDuration":283393,"Delta":15557128},{"NoteNumber":34,"Velocity":30,"Duration":283393,"SoundDuration":283393,"Delta":15840521},{"NoteNumber":46,"Velocity":37,"Duration":283393,"SoundDuration":283393,"Delta":15840521},{"NoteNumber":35,"Velocity":32,"Duration":283393,"SoundDuration":283393,"Delta":16123914},{"NoteNumber":47,"Velocity":39,"Duration":283393,"SoundDuration":283393,"Delta":16123914},{"NoteNumber":34,"Velocity":29,"Duration":283393,"SoundDuration":283393,"Delta":16407307},{"NoteNumber":46,"Velocity":35,"Duration":283393,"SoundDuration":283393,"Delta":16407307},{"NoteNumber":30,"Velocity":29,"Duration":283393,"SoundDuration":283393,"Delta":16690700},{"NoteNumber":42,"Velocity":35,"Duration":283393,"SoundDuration":283393,"Delta":16690700},{"NoteNumber":51,"Velocity":52,"Duration":49324,"SoundDuration":49324,"Delta":16974093},{"NoteNumber":63,"Velocity":63,"Duration":49324,"SoundDuration":49324,"Delta":16974093},{"NoteNumber":27,"Velocity":40,"Duration":265835,"SoundDuration":265835,"Delta":16974093},{"NoteNumber":39,"Velocity":47,"Duration":265835,"SoundDuration":265835,"Delta":16974093},{"NoteNumber":51,"Velocity":55,"Duration":50480,"SoundDuration":50480,"Delta":17105626},{"NoteNumber":63,"Velocity":66,"Duration":50480,"SoundDuration":50480,"Delta":17105626},{"NoteNumber":51,"Velocity":57,"Duration":49780,"SoundDuration":49780,"Delta":17239929},{"NoteNumber":63,"Velocity":67,"Duration":49780,"SoundDuration":49780,"Delta":17239929},{"NoteNumber":28,"Velocity":38,"Duration":49780,"SoundDuration":49780,"Delta":17239929},{"NoteNumber":40,"Velocity":44,"Duration":49780,"SoundDuration":49780,"Delta":17239929},{"NoteNumber":51,"Velocity":59,"Duration":53221,"SoundDuration":53221,"Delta":17372678},{"NoteNumber":63,"Velocity":68,"Duration":53221,"SoundDuration":53221,"Delta":17372678},{"NoteNumber":29,"Velocity":38,"Duration":53221,"SoundDuration":53221,"Delta":17372678},{"NoteNumber":41,"Velocity":47,"Duration":53221,"SoundDuration":53221,"Delta":17372678},{"NoteNumber":51,"Velocity":69,"Duration":279005,"SoundDuration":279005,"Delta":17511658},{"NoteNumber":63,"Velocity":80,"Duration":279005,"SoundDuration":279005,"Delta":17511658},{"NoteNumber":30,"Velocity":47,"Duration":279005,"SoundDuration":279005,"Delta":17511658},{"NoteNumber":42,"Velocity":56,"Duration":279005,"SoundDuration":279005,"Delta":17511658},{"NoteNumber":65,"Velocity":90,"Duration":275141,"SoundDuration":275141,"Delta":17790663},{"NoteNumber":59,"Velocity":75,"Duration":275141,"SoundDuration":275141,"Delta":17790663},{"NoteNumber":63,"Velocity":75,"Duration":275141,"SoundDuration":275141,"Delta":17790663},{"NoteNumber":53,"Velocity":75,"Duration":275141,"SoundDuration":275141,"Delta":17790663},{"NoteNumber":32,"Velocity":56,"Duration":275141,"SoundDuration":275141,"Delta":17790663},{"NoteNumber":44,"Velocity":67,"Duration":275141,"SoundDuration":275141,"Delta":17790663},{"NoteNumber":77,"Velocity":76,"Duration":135678,"SoundDuration":135678,"Delta":18065804},{"NoteNumber":71,"Velocity":63,"Duration":135678,"SoundDuration":135678,"Delta":18065804},{"NoteNumber":75,"Velocity":63,"Duration":135678,"SoundDuration":135678,"Delta":18065804},{"NoteNumber":65,"Velocity":63,"Duration":135678,"SoundDuration":135678,"Delta":18065804},{"NoteNumber":44,"Velocity":43,"Duration":271357,"SoundDuration":271357,"Delta":18065804},{"NoteNumber":51,"Velocity":43,"Duration":271357,"SoundDuration":271357,"Delta":18065804},{"NoteNumber":53,"Velocity":43,"Duration":271357,"SoundDuration":271357,"Delta":18065804},{"NoteNumber":59,"Velocity":51,"Duration":271357,"SoundDuration":271357,"Delta":18065804},{"NoteNumber":63,"Velocity":61,"Duration":135678,"SoundDuration":135678,"Delta":18201483},{"NoteNumber":75,"Velocity":74,"Duration":135678,"SoundDuration":135678,"Delta":18201483},{"NoteNumber":77,"Velocity":76,"Duration":133982,"SoundDuration":133982,"Delta":18337162},{"NoteNumber":70,"Velocity":63,"Duration":133982,"SoundDuration":133982,"Delta":18337162},{"NoteNumber":74,"Velocity":63,"Duration":133982,"SoundDuration":133982,"Delta":18337162},{"NoteNumber":65,"Velocity":63,"Duration":133982,"SoundDuration":133982,"Delta":18337162},{"NoteNumber":46,"Velocity":43,"Duration":275558,"SoundDuration":275558,"Delta":18337162},{"NoteNumber":53,"Velocity":43,"Duration":275558,"SoundDuration":275558,"Delta":18337162},{"NoteNumber":56,"Velocity":43,"Duration":275558,"SoundDuration":275558,"Delta":18337162},{"NoteNumber":62,"Velocity":51,"Duration":275558,"SoundDuration":275558,"Delta":18337162},{"NoteNumber":66,"Velocity":59,"Duration":141576,"SoundDuration":141576,"Delta":18471145},{"NoteNumber":78,"Velocity":72,"Duration":141576,"SoundDuration":141576,"Delta":18471145},{"NoteNumber":54,"Velocity":52,"Duration":49324,"SoundDuration":49324,"Delta":18612721},{"NoteNumber":66,"Velocity":63,"Duration":49324,"SoundDuration":49324,"Delta":18612721},{"NoteNumber":30,"Velocity":40,"Duration":265515,"SoundDuration":265515,"Delta":18612721},{"NoteNumber":42,"Velocity":47,"Duration":265515,"SoundDuration":265515,"Delta":18612721},{"NoteNumber":54,"Velocity":55,"Duration":50243,"SoundDuration":50243,"Delta":18744254},{"NoteNumber":66,"Velocity":66,"Duration":50243,"SoundDuration":50243,"Delta":18744254},{"NoteNumber":54,"Velocity":57,"Duration":49664,"SoundDuration":49664,"Delta":18878236},{"NoteNumber":66,"Velocity":67,"Duration":49664,"SoundDuration":49664,"Delta":18878236},{"NoteNumber":31,"Velocity":38,"Duration":49664,"SoundDuration":49664,"Delta":18878236},{"NoteNumber":43,"Velocity":44,"Duration":49664,"SoundDuration":49664,"Delta":18878236},{"NoteNumber":54,"Velocity":57,"Duration":53484,"SoundDuration":53484,"Delta":19010675},{"NoteNumber":66,"Velocity":66,"Duration":53484,"SoundDuration":53484,"Delta":19010675},{"NoteNumber":32,"Velocity":35,"Duration":53484,"SoundDuration":53484,"Delta":19010675},{"NoteNumber":44,"Velocity":43,"Duration":53484,"SoundDuration":53484,"Delta":19010675},{"NoteNumber":54,"Velocity":68,"Duration":278228,"SoundDuration":278228,"Delta":19151654},{"NoteNumber":66,"Velocity":79,"Duration":278228,"SoundDuration":278228,"Delta":19151654},{"NoteNumber":33,"Velocity":46,"Duration":278228,"SoundDuration":278228,"Delta":19151654},{"NoteNumber":45,"Velocity":54,"Duration":278228,"SoundDuration":278228,"Delta":19151654},{"NoteNumber":56,"Velocity":72,"Duration":273623,"SoundDuration":273623,"Delta":19429883},{"NoteNumber":62,"Velocity":73,"Duration":273623,"SoundDuration":273623,"Delta":19429883},{"NoteNumber":66,"Velocity":75,"Duration":273623,"SoundDuration":273623,"Delta":19429883},{"NoteNumber":68,"Velocity":87,"Duration":273623,"SoundDuration":273623,"Delta":19429883},{"NoteNumber":35,"Velocity":56,"Duration":273623,"SoundDuration":273623,"Delta":19429883},{"NoteNumber":47,"Velocity":67,"Duration":273623,"SoundDuration":273623,"Delta":19429883},{"NoteNumber":80,"Velocity":76,"Duration":135318,"SoundDuration":135318,"Delta":19703506},{"NoteNumber":74,"Velocity":63,"Duration":135318,"SoundDuration":135318,"Delta":19703506},{"NoteNumber":78,"Velocity":63,"Duration":135318,"SoundDuration":135318,"Delta":19703506},{"NoteNumber":68,"Velocity":63,"Duration":135318,"SoundDuration":135318,"Delta":19703506},{"NoteNumber":48,"Velocity":43,"Duration":270635,"SoundDuration":270635,"Delta":19703506},{"NoteNumber":54,"Velocity":43,"Duration":270635,"SoundDuration":270635,"Delta":19703506},{"NoteNumber":56,"Velocity":43,"Duration":270635,"SoundDuration":270635,"Delta":19703506},{"NoteNumber":62,"Velocity":51,"Duration":270635,"SoundDuration":270635,"Delta":19703506},{"NoteNumber":66,"Velocity":61,"Duration":135317,"SoundDuration":135317,"Delta":19838824},{"NoteNumber":78,"Velocity":74,"Duration":135317,"SoundDuration":135317,"Delta":19838824},{"NoteNumber":80,"Velocity":76,"Duration":133672,"SoundDuration":133672,"Delta":19974142},{"NoteNumber":73,"Velocity":63,"Duration":133672,"SoundDuration":133672,"Delta":19974142},{"NoteNumber":77,"Velocity":63,"Duration":133672,"SoundDuration":133672,"Delta":19974142},{"NoteNumber":68,"Velocity":63,"Duration":133672,"SoundDuration":133672,"Delta":19974142},{"NoteNumber":49,"Velocity":43,"Duration":273525,"SoundDuration":273525,"Delta":19974142},{"NoteNumber":56,"Velocity":43,"Duration":273525,"SoundDuration":273525,"Delta":19974142},{"NoteNumber":59,"Velocity":43,"Duration":273525,"SoundDuration":273525,"Delta":19974142},{"NoteNumber":65,"Velocity":51,"Duration":273525,"SoundDuration":273525,"Delta":19974142},{"NoteNumber":69,"Velocity":58,"Duration":139853,"SoundDuration":139853,"Delta":20107814},{"NoteNumber":81,"Velocity":71,"Duration":139853,"SoundDuration":139853,"Delta":20107814},{"NoteNumber":57,"Velocity":47,"Duration":48766,"SoundDuration":48766,"Delta":20247668},{"NoteNumber":69,"Velocity":56,"Duration":48766,"SoundDuration":48766,"Delta":20247668},{"NoteNumber":33,"Velocity":36,"Duration":262384,"SoundDuration":262384,"Delta":20247668},{"NoteNumber":45,"Velocity":42,"Duration":262384,"SoundDuration":262384,"Delta":20247668},{"NoteNumber":57,"Velocity":51,"Duration":49550,"SoundDuration":49550,"Delta":20377712},{"NoteNumber":69,"Velocity":60,"Duration":49550,"SoundDuration":49550,"Delta":20377712},{"NoteNumber":57,"Velocity":54,"Duration":48987,"SoundDuration":48987,"Delta":20510053},{"NoteNumber":69,"Velocity":64,"Duration":48987,"SoundDuration":48987,"Delta":20510053},{"NoteNumber":35,"Velocity":36,"Duration":48987,"SoundDuration":48987,"Delta":20510053},{"NoteNumber":47,"Velocity":42,"Duration":48987,"SoundDuration":48987,"Delta":20510053},{"NoteNumber":57,"Velocity":57,"Duration":51690,"SoundDuration":51690,"Delta":20640686},{"NoteNumber":69,"Velocity":68,"Duration":51690,"SoundDuration":51690,"Delta":20640686},{"NoteNumber":36,"Velocity":37,"Duration":51690,"SoundDuration":51690,"Delta":20640686},{"NoteNumber":48,"Velocity":45,"Duration":51690,"SoundDuration":51690,"Delta":20640686},{"NoteNumber":57,"Velocity":68,"Duration":273623,"SoundDuration":273623,"Delta":20778529},{"NoteNumber":69,"Velocity":80,"Duration":273623,"SoundDuration":273623,"Delta":20778529},{"NoteNumber":37,"Velocity":46,"Duration":273623,"SoundDuration":273623,"Delta":20778529},{"NoteNumber":49,"Velocity":54,"Duration":273623,"SoundDuration":273623,"Delta":20778529},{"NoteNumber":71,"Velocity":64,"Duration":49437,"SoundDuration":49437,"Delta":21052152},{"NoteNumber":65,"Velocity":53,"Duration":49437,"SoundDuration":49437,"Delta":21052152},{"NoteNumber":69,"Velocity":53,"Duration":49437,"SoundDuration":49437,"Delta":21052152},{"NoteNumber":59,"Velocity":53,"Duration":49437,"SoundDuration":49437,"Delta":21052152},{"NoteNumber":38,"Velocity":40,"Duration":266187,"SoundDuration":266187,"Delta":21052152},{"NoteNumber":50,"Velocity":47,"Duration":266187,"SoundDuration":266187,"Delta":21052152},{"NoteNumber":59,"Velocity":56,"Duration":50480,"SoundDuration":50480,"Delta":21183985},{"NoteNumber":65,"Velocity":56,"Duration":50480,"SoundDuration":50480,"Delta":21183985},{"NoteNumber":69,"Velocity":56,"Duration":50480,"SoundDuration":50480,"Delta":21183985},{"NoteNumber":71,"Velocity":67,"Duration":50480,"SoundDuration":50480,"Delta":21183985},{"NoteNumber":71,"Velocity":71,"Duration":49780,"SoundDuration":49780,"Delta":21318339},{"NoteNumber":65,"Velocity":60,"Duration":49780,"SoundDuration":49780,"Delta":21318339},{"NoteNumber":69,"Velocity":60,"Duration":49780,"SoundDuration":49780,"Delta":21318339},{"NoteNumber":59,"Velocity":60,"Duration":49780,"SoundDuration":49780,"Delta":21318339},{"NoteNumber":39,"Velocity":40,"Duration":49780,"SoundDuration":49780,"Delta":21318339},{"NoteNumber":51,"Velocity":47,"Duration":49780,"SoundDuration":49780,"Delta":21318339},{"NoteNumber":71,"Velocity":72,"Duration":50910,"SoundDuration":50910,"Delta":21451088},{"NoteNumber":65,"Velocity":60,"Duration":50910,"SoundDuration":50910,"Delta":21451088},{"NoteNumber":69,"Velocity":72,"Duration":50910,"SoundDuration":50910,"Delta":21451088},{"NoteNumber":59,"Velocity":60,"Duration":50910,"SoundDuration":50910,"Delta":21451088},{"NoteNumber":40,"Velocity":39,"Duration":50910,"SoundDuration":50910,"Delta":21451088},{"NoteNumber":52,"Velocity":48,"Duration":50910,"SoundDuration":50910,"Delta":21451088},{"NoteNumber":59,"Velocity":68,"Duration":273623,"SoundDuration":273623,"Delta":21588356},{"NoteNumber":65,"Velocity":68,"Duration":273623,"SoundDuration":273623,"Delta":21588356},{"NoteNumber":69,"Velocity":68,"Duration":273623,"SoundDuration":273623,"Delta":21588356},{"NoteNumber":71,"Velocity":81,"Duration":273623,"SoundDuration":273623,"Delta":21588356},{"NoteNumber":41,"Velocity":45,"Duration":273623,"SoundDuration":273623,"Delta":21588356},{"NoteNumber":53,"Velocity":53,"Duration":273623,"SoundDuration":273623,"Delta":21588356},{"NoteNumber":72,"Velocity":66,"Duration":49324,"SoundDuration":49324,"Delta":21861979},{"NoteNumber":63,"Velocity":54,"Duration":49324,"SoundDuration":49324,"Delta":21861979},{"NoteNumber":69,"Velocity":54,"Duration":49324,"SoundDuration":49324,"Delta":21861979},{"NoteNumber":60,"Velocity":54,"Duration":49324,"SoundDuration":49324,"Delta":21861979},{"NoteNumber":42,"Velocity":42,"Duration":265833,"SoundDuration":265833,"Delta":21861979},{"NoteNumber":54,"Velocity":49,"Duration":265833,"SoundDuration":265833,"Delta":21861979},{"NoteNumber":72,"Velocity":69,"Duration":50362,"SoundDuration":50362,"Delta":21993512},{"NoteNumber":63,"Velocity":57,"Duration":50362,"SoundDuration":50362,"Delta":21993512},{"NoteNumber":69,"Velocity":57,"Duration":50362,"SoundDuration":50362,"Delta":21993512},{"NoteNumber":60,"Velocity":57,"Duration":50362,"SoundDuration":50362,"Delta":21993512},{"NoteNumber":60,"Velocity":63,"Duration":49780,"SoundDuration":49780,"Delta":22127813},{"NoteNumber":63,"Velocity":63,"Duration":49780,"SoundDuration":49780,"Delta":22127813},{"NoteNumber":72,"Velocity":74,"Duration":49780,"SoundDuration":49780,"Delta":22127813},{"NoteNumber":43,"Velocity":42,"Duration":49780,"SoundDuration":49780,"Delta":22127813},{"NoteNumber":55,"Velocity":49,"Duration":49780,"SoundDuration":49780,"Delta":22127813},{"NoteNumber":60,"Velocity":55,"Duration":50362,"SoundDuration":50362,"Delta":22260562},{"NoteNumber":63,"Velocity":55,"Duration":50362,"SoundDuration":50362,"Delta":22260562},{"NoteNumber":72,"Velocity":76,"Duration":50362,"SoundDuration":50362,"Delta":22260562},{"NoteNumber":44,"Velocity":40,"Duration":50362,"SoundDuration":50362,"Delta":22260562},{"NoteNumber":56,"Velocity":50,"Duration":50362,"SoundDuration":50362,"Delta":22260562},{"NoteNumber":66,"Velocity":73,"Duration":286450,"SoundDuration":286450,"Delta":22394862},{"NoteNumber":60,"Velocity":73,"Duration":286450,"SoundDuration":286450,"Delta":22394862},{"NoteNumber":63,"Velocity":73,"Duration":286450,"SoundDuration":286450,"Delta":22394862},{"NoteNumber":72,"Velocity":86,"Duration":286450,"SoundDuration":286450,"Delta":22394862},{"NoteNumber":45,"Velocity":49,"Duration":286450,"SoundDuration":286450,"Delta":22394862},{"NoteNumber":57,"Velocity":58,"Duration":286450,"SoundDuration":286450,"Delta":22394862},{"NoteNumber":76,"Velocity":81,"Duration":284158,"SoundDuration":284158,"Delta":22681313},{"NoteNumber":66,"Velocity":69,"Duration":284158,"SoundDuration":284158,"Delta":22681313},{"NoteNumber":69,"Velocity":69,"Duration":284158,"SoundDuration":284158,"Delta":22681313},{"NoteNumber":64,"Velocity":69,"Duration":284158,"SoundDuration":284158,"Delta":22681313},{"NoteNumber":54,"Velocity":50,"Duration":284158,"SoundDuration":284158,"Delta":22681313},{"NoteNumber":48,"Velocity":50,"Duration":284158,"SoundDuration":284158,"Delta":22681313},{"NoteNumber":60,"Velocity":59,"Duration":284158,"SoundDuration":284158,"Delta":22681313},{"NoteNumber":62,"Velocity":69,"Duration":276675,"SoundDuration":276675,"Delta":22965471},{"NoteNumber":67,"Velocity":69,"Duration":276675,"SoundDuration":276675,"Delta":22965471},{"NoteNumber":74,"Velocity":81,"Duration":276675,"SoundDuration":276675,"Delta":22965471},{"NoteNumber":55,"Velocity":45,"Duration":276675,"SoundDuration":276675,"Delta":22965471},{"NoteNumber":47,"Velocity":45,"Duration":276675,"SoundDuration":276675,"Delta":22965471},{"NoteNumber":59,"Velocity":54,"Duration":276675,"SoundDuration":276675,"Delta":22965471},{"NoteNumber":50,"Velocity":72,"Duration":281386,"SoundDuration":281386,"Delta":23242147},{"NoteNumber":62,"Velocity":85,"Duration":281386,"SoundDuration":281386,"Delta":23242147},{"NoteNumber":26,"Velocity":49,"Duration":281386,"SoundDuration":281386,"Delta":23242147},{"NoteNumber":38,"Velocity":59,"Duration":281386,"SoundDuration":281386,"Delta":23242147},{"NoteNumber":61,"Velocity":61,"Duration":136712,"SoundDuration":136712,"Delta":23523533},{"NoteNumber":49,"Velocity":61,"Duration":136712,"SoundDuration":136712,"Delta":23523533},{"NoteNumber":25,"Velocity":50,"Duration":272707,"SoundDuration":272707,"Delta":23523533},{"NoteNumber":37,"Velocity":60,"Duration":272707,"SoundDuration":272707,"Delta":23523533},{"NoteNumber":61,"Velocity":59,"Duration":135994,"SoundDuration":135994,"Delta":23660246},{"NoteNumber":66,"Velocity":66,"Duration":135403,"SoundDuration":135403,"Delta":23796241},{"NoteNumber":73,"Velocity":78,"Duration":135403,"SoundDuration":135403,"Delta":23796241},{"NoteNumber":49,"Velocity":48,"Duration":270279,"SoundDuration":270279,"Delta":23796241},{"NoteNumber":57,"Velocity":57,"Duration":270279,"SoundDuration":270279,"Delta":23796241},{"NoteNumber":66,"Velocity":75,"Duration":134876,"SoundDuration":134876,"Delta":23931645},{"NoteNumber":69,"Velocity":69,"Duration":134351,"SoundDuration":134351,"Delta":24066521},{"NoteNumber":78,"Velocity":82,"Duration":134351,"SoundDuration":134351,"Delta":24066521},{"NoteNumber":61,"Velocity":57,"Duration":268179,"SoundDuration":268179,"Delta":24066521},{"NoteNumber":54,"Velocity":48,"Duration":268179,"SoundDuration":268179,"Delta":24066521},{"NoteNumber":69,"Velocity":75,"Duration":133827,"SoundDuration":133827,"Delta":24200873},{"NoteNumber":73,"Velocity":65,"Duration":133362,"SoundDuration":133362,"Delta":24334700},{"NoteNumber":81,"Velocity":76,"Duration":133362,"SoundDuration":133362,"Delta":24334700},{"NoteNumber":57,"Velocity":42,"Duration":266725,"SoundDuration":266725,"Delta":24334700},{"NoteNumber":66,"Velocity":60,"Duration":266725,"SoundDuration":266725,"Delta":24334700},{"NoteNumber":73,"Velocity":71,"Duration":133362,"SoundDuration":133362,"Delta":24468063},{"NoteNumber":78,"Velocity":66,"Duration":135678,"SoundDuration":135678,"Delta":24601426},{"NoteNumber":85,"Velocity":78,"Duration":135678,"SoundDuration":135678,"Delta":24601426},{"NoteNumber":61,"Velocity":40,"Duration":271357,"SoundDuration":271357,"Delta":24601426},{"NoteNumber":69,"Velocity":57,"Duration":271357,"SoundDuration":271357,"Delta":24601426},{"NoteNumber":78,"Velocity":75,"Duration":135678,"SoundDuration":135678,"Delta":24737105},{"NoteNumber":81,"Velocity":69,"Duration":138837,"SoundDuration":138837,"Delta":24872784},{"NoteNumber":90,"Velocity":82,"Duration":138837,"SoundDuration":138837,"Delta":24872784},{"NoteNumber":73,"Velocity":57,"Duration":277674,"SoundDuration":277674,"Delta":24872784},{"NoteNumber":66,"Velocity":40,"Duration":277674,"SoundDuration":277674,"Delta":24872784},{"NoteNumber":81,"Velocity":75,"Duration":138837,"SoundDuration":138837,"Delta":25011622},{"NoteNumber":85,"Velocity":69,"Duration":277675,"SoundDuration":277675,"Delta":25150459},{"NoteNumber":81,"Velocity":69,"Duration":277675,"SoundDuration":277675,"Delta":25150459},{"NoteNumber":93,"Velocity":82,"Duration":277675,"SoundDuration":277675,"Delta":25150459},{"NoteNumber":69,"Velocity":48,"Duration":277675,"SoundDuration":277675,"Delta":25150459},{"NoteNumber":78,"Velocity":57,"Duration":277675,"SoundDuration":277675,"Delta":25150459},{"NoteNumber":85,"Velocity":66,"Duration":274360,"SoundDuration":274360,"Delta":25428134},{"NoteNumber":80,"Velocity":66,"Duration":274360,"SoundDuration":274360,"Delta":25428134},{"NoteNumber":92,"Velocity":78,"Duration":274360,"SoundDuration":274360,"Delta":25428134},{"NoteNumber":71,"Velocity":46,"Duration":274360,"SoundDuration":274360,"Delta":25428134},{"NoteNumber":77,"Velocity":54,"Duration":274360,"SoundDuration":274360,"Delta":25428134},{"NoteNumber":85,"Velocity":73,"Duration":282992,"SoundDuration":282992,"Delta":25702495},{"NoteNumber":80,"Velocity":61,"Duration":282992,"SoundDuration":282992,"Delta":25702495},{"NoteNumber":73,"Velocity":61,"Duration":282992,"SoundDuration":282992,"Delta":25702495},{"NoteNumber":61,"Velocity":42,"Duration":282992,"SoundDuration":282992,"Delta":25702495},{"NoteNumber":65,"Velocity":42,"Duration":282992,"SoundDuration":282992,"Delta":25702495},{"NoteNumber":71,"Velocity":51,"Duration":282992,"SoundDuration":282992,"Delta":25702495},{"NoteNumber":73,"Velocity":61,"Duration":277007,"SoundDuration":277007,"Delta":25985487},{"NoteNumber":80,"Velocity":61,"Duration":277007,"SoundDuration":277007,"Delta":25985487},{"NoteNumber":85,"Velocity":75,"Duration":556714,"SoundDuration":556714,"Delta":25985487},{"NoteNumber":61,"Velocity":46,"Duration":556714,"SoundDuration":556714,"Delta":25985487},{"NoteNumber":65,"Velocity":46,"Duration":277007,"SoundDuration":277007,"Delta":25985487},{"NoteNumber":71,"Velocity":54,"Duration":277007,"SoundDuration":277007,"Delta":25985487},{"NoteNumber":90,"Velocity":68,"Duration":279706,"SoundDuration":279706,"Delta":26262495},{"NoteNumber":78,"Velocity":58,"Duration":279706,"SoundDuration":279706,"Delta":26262495},{"NoteNumber":54,"Velocity":38,"Duration":279706,"SoundDuration":279706,"Delta":26262495},{"NoteNumber":69,"Velocity":47,"Duration":279706,"SoundDuration":279706,"Delta":26262495},{"NoteNumber":73,"Velocity":58,"Duration":281756,"SoundDuration":281756,"Delta":26542202},{"NoteNumber":68,"Velocity":48,"Duration":281756,"SoundDuration":281756,"Delta":26542202},{"NoteNumber":61,"Velocity":40,"Duration":281756,"SoundDuration":281756,"Delta":26542202},{"NoteNumber":49,"Velocity":28,"Duration":281756,"SoundDuration":281756,"Delta":26542202},{"NoteNumber":53,"Velocity":33,"Duration":281756,"SoundDuration":281756,"Delta":26542202},{"NoteNumber":59,"Velocity":38,"Duration":281756,"SoundDuration":281756,"Delta":26542202},{"NoteNumber":61,"Velocity":42,"Duration":279799,"SoundDuration":279799,"Delta":26823958},{"NoteNumber":68,"Velocity":50,"Duration":279799,"SoundDuration":279799,"Delta":26823958},{"NoteNumber":73,"Velocity":58,"Duration":560186,"SoundDuration":560186,"Delta":26823958},{"NoteNumber":49,"Velocity":30,"Duration":560186,"SoundDuration":560186,"Delta":26823958},{"NoteNumber":53,"Velocity":36,"Duration":279799,"SoundDuration":279799,"Delta":26823958},{"NoteNumber":59,"Velocity":42,"Duration":279799,"SoundDuration":279799,"Delta":26823958},{"NoteNumber":78,"Velocity":56,"Duration":280387,"SoundDuration":280387,"Delta":27103757},{"NoteNumber":66,"Velocity":49,"Duration":280387,"SoundDuration":280387,"Delta":27103757},{"NoteNumber":42,"Velocity":32,"Duration":280387,"SoundDuration":280387,"Delta":27103757},{"NoteNumber":57,"Velocity":38,"Duration":280387,"SoundDuration":280387,"Delta":27103757},{"NoteNumber":73,"Velocity":56,"Duration":288018,"SoundDuration":288018,"Delta":27384144},{"NoteNumber":68,"Velocity":46,"Duration":288018,"SoundDuration":288018,"Delta":27384144},{"NoteNumber":61,"Velocity":38,"Duration":288018,"SoundDuration":288018,"Delta":27384144},{"NoteNumber":49,"Velocity":26,"Duration":288018,"SoundDuration":288018,"Delta":27384144},{"NoteNumber":53,"Velocity":31,"Duration":288018,"SoundDuration":288018,"Delta":27384144},{"NoteNumber":59,"Velocity":36,"Duration":288018,"SoundDuration":288018,"Delta":27384144},{"NoteNumber":61,"Velocity":40,"Duration":284914,"SoundDuration":284914,"Delta":27672162},{"NoteNumber":68,"Velocity":48,"Duration":284914,"SoundDuration":284914,"Delta":27672162},{"NoteNumber":73,"Velocity":56,"Duration":568066,"SoundDuration":568066,"Delta":27672162},{"NoteNumber":49,"Velocity":29,"Duration":568066,"SoundDuration":568066,"Delta":27672162},{"NoteNumber":53,"Velocity":34,"Duration":284914,"SoundDuration":284914,"Delta":27672162},{"NoteNumber":59,"Velocity":38,"Duration":284914,"SoundDuration":284914,"Delta":27672162},{"NoteNumber":78,"Velocity":55,"Duration":283152,"SoundDuration":283152,"Delta":27957076},{"NoteNumber":66,"Velocity":46,"Duration":283152,"SoundDuration":283152,"Delta":27957076},{"NoteNumber":42,"Velocity":30,"Duration":283152,"SoundDuration":283152,"Delta":27957076},{"NoteNumber":57,"Velocity":37,"Duration":283152,"SoundDuration":283152,"Delta":27957076},{"NoteNumber":61,"Velocity":69,"Duration":562139,"SoundDuration":562139,"Delta":28240228},{"NoteNumber":73,"Velocity":81,"Duration":562139,"SoundDuration":562139,"Delta":28240228},{"NoteNumber":37,"Velocity":57,"Duration":562139,"SoundDuration":562139,"Delta":28240228},{"NoteNumber":49,"Velocity":69,"Duration":562139,"SoundDuration":562139,"Delta":28240228},{"NoteNumber":62,"Velocity":64,"Duration":136855,"SoundDuration":136855,"Delta":28802368},{"NoteNumber":74,"Velocity":75,"Duration":136855,"SoundDuration":136855,"Delta":28802368},{"NoteNumber":38,"Velocity":52,"Duration":136855,"SoundDuration":136855,"Delta":28802368},{"NoteNumber":50,"Velocity":63,"Duration":136855,"SoundDuration":136855,"Delta":28802368},{"NoteNumber":61,"Velocity":59,"Duration":136855,"SoundDuration":136855,"Delta":28939223},{"NoteNumber":73,"Velocity":71,"Duration":136855,"SoundDuration":136855,"Delta":28939223},{"NoteNumber":37,"Velocity":48,"Duration":136855,"SoundDuration":136855,"Delta":28939223},{"NoteNumber":49,"Velocity":57,"Duration":136855,"SoundDuration":136855,"Delta":28939223},{"NoteNumber":56,"Velocity":63,"Duration":139172,"SoundDuration":139172,"Delta":29076078},{"NoteNumber":68,"Velocity":73,"Duration":139172,"SoundDuration":139172,"Delta":29076078},{"NoteNumber":32,"Velocity":53,"Duration":139172,"SoundDuration":139172,"Delta":29076078},{"NoteNumber":44,"Velocity":64,"Duration":139172,"SoundDuration":139172,"Delta":29076078},{"NoteNumber":57,"Velocity":54,"Duration":139172,"SoundDuration":139172,"Delta":29215251},{"NoteNumber":69,"Velocity":65,"Duration":139172,"SoundDuration":139172,"Delta":29215251},{"NoteNumber":33,"Velocity":47,"Duration":139172,"SoundDuration":139172,"Delta":29215251},{"NoteNumber":45,"Velocity":55,"Duration":139172,"SoundDuration":139172,"Delta":29215251},{"NoteNumber":54,"Velocity":58,"Duration":853646,"SoundDuration":853646,"Delta":29354423},{"NoteNumber":66,"Velocity":70,"Duration":853646,"SoundDuration":853646,"Delta":29354423},{"NoteNumber":30,"Velocity":52,"Duration":853646,"SoundDuration":853646,"Delta":29354423},{"NoteNumber":42,"Velocity":63,"Duration":853646,"SoundDuration":853646,"Delta":29354423},{"NoteNumber":62,"Velocity":84,"Duration":284327,"SoundDuration":284327,"Delta":30208070},{"NoteNumber":74,"Velocity":84,"Duration":284327,"SoundDuration":284327,"Delta":30208070},{"NoteNumber":26,"Velocity":72,"Duration":284327,"SoundDuration":284327,"Delta":30208070},{"NoteNumber":38,"Velocity":72,"Duration":284327,"SoundDuration":284327,"Delta":30208070},{"NoteNumber":57,"Velocity":48,"Duration":140193,"SoundDuration":140193,"Delta":30492398},{"NoteNumber":62,"Velocity":48,"Duration":140193,"SoundDuration":140193,"Delta":30492398},{"NoteNumber":54,"Velocity":38,"Duration":140193,"SoundDuration":140193,"Delta":30492398},{"NoteNumber":57,"Velocity":49,"Duration":139827,"SoundDuration":139827,"Delta":30632591},{"NoteNumber":62,"Velocity":49,"Duration":139827,"SoundDuration":139827,"Delta":30632591},{"NoteNumber":54,"Velocity":39,"Duration":139827,"SoundDuration":139827,"Delta":30632591},{"NoteNumber":56,"Velocity":50,"Duration":139457,"SoundDuration":139457,"Delta":30772419},{"NoteNumber":61,"Velocity":50,"Duration":139457,"SoundDuration":139457,"Delta":30772419},{"NoteNumber":53,"Velocity":40,"Duration":139457,"SoundDuration":139457,"Delta":30772419},{"NoteNumber":57,"Velocity":51,"Duration":139095,"SoundDuration":139095,"Delta":30911876},{"NoteNumber":62,"Velocity":51,"Duration":139095,"SoundDuration":139095,"Delta":30911876},{"NoteNumber":54,"Velocity":42,"Duration":139095,"SoundDuration":139095,"Delta":30911876},{"NoteNumber":58,"Velocity":52,"Duration":138728,"SoundDuration":138728,"Delta":31050971},{"NoteNumber":63,"Velocity":52,"Duration":138728,"SoundDuration":138728,"Delta":31050971},{"NoteNumber":55,"Velocity":43,"Duration":138728,"SoundDuration":138728,"Delta":31050971},{"NoteNumber":59,"Velocity":53,"Duration":138363,"SoundDuration":138363,"Delta":31189699},{"NoteNumber":64,"Velocity":53,"Duration":138363,"SoundDuration":138363,"Delta":31189699},{"NoteNumber":56,"Velocity":45,"Duration":138363,"SoundDuration":138363,"Delta":31189699},{"NoteNumber":60,"Velocity":54,"Duration":138007,"SoundDuration":138007,"Delta":31328063},{"NoteNumber":65,"Velocity":54,"Duration":138007,"SoundDuration":138007,"Delta":31328063},{"NoteNumber":57,"Velocity":46,"Duration":138007,"SoundDuration":138007,"Delta":31328063},{"NoteNumber":61,"Velocity":55,"Duration":137645,"SoundDuration":137645,"Delta":31466070},{"NoteNumber":66,"Velocity":55,"Duration":137645,"SoundDuration":137645,"Delta":31466070},{"NoteNumber":58,"Velocity":47,"Duration":137645,"SoundDuration":137645,"Delta":31466070},{"NoteNumber":62,"Velocity":57,"Duration":137287,"SoundDuration":137287,"Delta":31603716},{"NoteNumber":67,"Velocity":57,"Duration":137287,"SoundDuration":137287,"Delta":31603716},{"NoteNumber":59,"Velocity":49,"Duration":137287,"SoundDuration":137287,"Delta":31603716},{"NoteNumber":63,"Velocity":59,"Duration":136936,"SoundDuration":136936,"Delta":31741003},{"NoteNumber":68,"Velocity":59,"Duration":136936,"SoundDuration":136936,"Delta":31741003},{"NoteNumber":60,"Velocity":50,"Duration":136936,"SoundDuration":136936,"Delta":31741003},{"NoteNumber":64,"Velocity":59,"Duration":136580,"SoundDuration":136580,"Delta":31877939},{"NoteNumber":69,"Velocity":59,"Duration":136580,"SoundDuration":136580,"Delta":31877939},{"NoteNumber":61,"Velocity":51,"Duration":136580,"SoundDuration":136580,"Delta":31877939},{"NoteNumber":65,"Velocity":60,"Duration":136580,"SoundDuration":136580,"Delta":32014520},{"NoteNumber":70,"Velocity":60,"Duration":136580,"SoundDuration":136580,"Delta":32014520},{"NoteNumber":62,"Velocity":53,"Duration":136580,"SoundDuration":136580,"Delta":32014520},{"NoteNumber":66,"Velocity":64,"Duration":136580,"SoundDuration":136580,"Delta":32151101},{"NoteNumber":71,"Velocity":64,"Duration":136580,"SoundDuration":136580,"Delta":32151101},{"NoteNumber":63,"Velocity":55,"Duration":136580,"SoundDuration":136580,"Delta":32151101},{"NoteNumber":67,"Velocity":65,"Duration":136580,"SoundDuration":136580,"Delta":32287682},{"NoteNumber":72,"Velocity":65,"Duration":136580,"SoundDuration":136580,"Delta":32287682},{"NoteNumber":64,"Velocity":55,"Duration":136580,"SoundDuration":136580,"Delta":32287682},{"NoteNumber":68,"Velocity":66,"Duration":136580,"SoundDuration":136580,"Delta":32424263},{"NoteNumber":73,"Velocity":66,"Duration":136580,"SoundDuration":136580,"Delta":32424263},{"NoteNumber":65,"Velocity":55,"Duration":136580,"SoundDuration":136580,"Delta":32424263},{"NoteNumber":69,"Velocity":67,"Duration":136580,"SoundDuration":136580,"Delta":32560844},{"NoteNumber":74,"Velocity":67,"Duration":136580,"SoundDuration":136580,"Delta":32560844},{"NoteNumber":66,"Velocity":57,"Duration":136580,"SoundDuration":136580,"Delta":32560844},{"NoteNumber":69,"Velocity":68,"Duration":273161,"SoundDuration":273161,"Delta":32697425},{"NoteNumber":74,"Velocity":68,"Duration":273161,"SoundDuration":273161,"Delta":32697425},{"NoteNumber":66,"Velocity":58,"Duration":273161,"SoundDuration":273161,"Delta":32697425},{"NoteNumber":70,"Velocity":73,"Duration":276273,"SoundDuration":276273,"Delta":32970587},{"NoteNumber":75,"Velocity":73,"Duration":276273,"SoundDuration":276273,"Delta":32970587},{"NoteNumber":67,"Velocity":64,"Duration":276273,"SoundDuration":276273,"Delta":32970587},{"NoteNumber":87,"Velocity":80,"Duration":142457,"SoundDuration":142457,"Delta":33246861},{"NoteNumber":82,"Velocity":80,"Duration":142457,"SoundDuration":142457,"Delta":33246861},{"NoteNumber":75,"Velocity":80,"Duration":142457,"SoundDuration":142457,"Delta":33246861},{"NoteNumber":67,"Velocity":74,"Duration":142457,"SoundDuration":142457,"Delta":33246861},{"NoteNumber":63,"Velocity":74,"Duration":142457,"SoundDuration":142457,"Delta":33246861},{"NoteNumber":58,"Velocity":74,"Duration":142457,"SoundDuration":142457,"Delta":33246861},{"NoteNumber":55,"Velocity":74,"Duration":142457,"SoundDuration":142457,"Delta":33246861},{"NoteNumber":87,"Velocity":91,"Duration":284914,"SoundDuration":284914,"Delta":33531775},{"NoteNumber":99,"Velocity":79,"Duration":284914,"SoundDuration":284914,"Delta":33531775},{"NoteNumber":39,"Velocity":79,"Duration":284914,"SoundDuration":284914,"Delta":33531775},{"NoteNumber":51,"Velocity":79,"Duration":284914,"SoundDuration":284914,"Delta":33531775},{"NoteNumber":58,"Velocity":48,"Duration":139827,"SoundDuration":139827,"Delta":33816689},{"NoteNumber":63,"Velocity":48,"Duration":139827,"SoundDuration":139827,"Delta":33816689},{"NoteNumber":55,"Velocity":38,"Duration":139827,"SoundDuration":139827,"Delta":33816689},{"NoteNumber":63,"Velocity":49,"Duration":139518,"SoundDuration":139518,"Delta":33956516},{"NoteNumber":58,"Velocity":49,"Duration":139518,"SoundDuration":139518,"Delta":33956516},{"NoteNumber":55,"Velocity":39,"Duration":139518,"SoundDuration":139518,"Delta":33956516},{"NoteNumber":57,"Velocity":50,"Duration":139215,"SoundDuration":139215,"Delta":34096035},{"NoteNumber":62,"Velocity":50,"Duration":139215,"SoundDuration":139215,"Delta":34096035},{"NoteNumber":54,"Velocity":40,"Duration":139215,"SoundDuration":139215,"Delta":34096035},{"NoteNumber":58,"Velocity":51,"Duration":138850,"SoundDuration":138850,"Delta":34235251},{"NoteNumber":63,"Velocity":51,"Duration":138850,"SoundDuration":138850,"Delta":34235251},{"NoteNumber":55,"Velocity":42,"Duration":138850,"SoundDuration":138850,"Delta":34235251},{"NoteNumber":59,"Velocity":52,"Duration":138545,"SoundDuration":138545,"Delta":34374101},{"NoteNumber":64,"Velocity":52,"Duration":138545,"SoundDuration":138545,"Delta":34374101},{"NoteNumber":56,"Velocity":43,"Duration":138545,"SoundDuration":138545,"Delta":34374101},{"NoteNumber":60,"Velocity":53,"Duration":138244,"SoundDuration":138244,"Delta":34512647},{"NoteNumber":65,"Velocity":53,"Duration":138244,"SoundDuration":138244,"Delta":34512647},{"NoteNumber":57,"Velocity":45,"Duration":138244,"SoundDuration":138244,"Delta":34512647},{"NoteNumber":61,"Velocity":54,"Duration":137886,"SoundDuration":137886,"Delta":34650892},{"NoteNumber":66,"Velocity":54,"Duration":137886,"SoundDuration":137886,"Delta":34650892},{"NoteNumber":58,"Velocity":46,"Duration":137886,"SoundDuration":137886,"Delta":34650892},{"NoteNumber":62,"Velocity":55,"Duration":137586,"SoundDuration":137586,"Delta":34788779},{"NoteNumber":67,"Velocity":55,"Duration":137586,"SoundDuration":137586,"Delta":34788779},{"NoteNumber":59,"Velocity":47,"Duration":137586,"SoundDuration":137586,"Delta":34788779},{"NoteNumber":63,"Velocity":57,"Duration":137287,"SoundDuration":137287,"Delta":34926365},{"NoteNumber":68,"Velocity":57,"Duration":137287,"SoundDuration":137287,"Delta":34926365},{"NoteNumber":60,"Velocity":49,"Duration":137287,"SoundDuration":137287,"Delta":34926365},{"NoteNumber":64,"Velocity":59,"Duration":136936,"SoundDuration":136936,"Delta":35063652},{"NoteNumber":69,"Velocity":59,"Duration":136936,"SoundDuration":136936,"Delta":35063652},{"NoteNumber":61,"Velocity":50,"Duration":136936,"SoundDuration":136936,"Delta":35063652},{"NoteNumber":65,"Velocity":59,"Duration":136580,"SoundDuration":136580,"Delta":35200588},{"NoteNumber":70,"Velocity":59,"Duration":136580,"SoundDuration":136580,"Delta":35200588},{"NoteNumber":62,"Velocity":51,"Duration":136580,"SoundDuration":136580,"Delta":35200588},{"NoteNumber":66,"Velocity":60,"Duration":136580,"SoundDuration":136580,"Delta":35337169},{"NoteNumber":71,"Velocity":60,"Duration":136580,"SoundDuration":136580,"Delta":35337169},{"NoteNumber":63,"Velocity":53,"Duration":136580,"SoundDuration":136580,"Delta":35337169},{"NoteNumber":67,"Velocity":64,"Duration":136580,"SoundDuration":136580,"Delta":35473750},{"NoteNumber":72,"Velocity":64,"Duration":136580,"SoundDuration":136580,"Delta":35473750},{"NoteNumber":64,"Velocity":55,"Duration":136580,"SoundDuration":136580,"Delta":35473750},{"NoteNumber":68,"Velocity":65,"Duration":136580,"SoundDuration":136580,"Delta":35610331},{"NoteNumber":73,"Velocity":65,"Duration":136580,"SoundDuration":136580,"Delta":35610331},{"NoteNumber":65,"Velocity":55,"Duration":136580,"SoundDuration":136580,"Delta":35610331},{"NoteNumber":69,"Velocity":66,"Duration":136580,"SoundDuration":136580,"Delta":35746912},{"NoteNumber":74,"Velocity":66,"Duration":136580,"SoundDuration":136580,"Delta":35746912},{"NoteNumber":66,"Velocity":55,"Duration":136580,"SoundDuration":136580,"Delta":35746912},{"NoteNumber":70,"Velocity":67,"Duration":136580,"SoundDuration":136580,"Delta":35883493},{"NoteNumber":75,"Velocity":67,"Duration":136580,"SoundDuration":136580,"Delta":35883493},{"NoteNumber":67,"Velocity":57,"Duration":136580,"SoundDuration":136580,"Delta":35883493},{"NoteNumber":70,"Velocity":68,"Duration":273161,"SoundDuration":273161,"Delta":36020074},{"NoteNumber":75,"Velocity":68,"Duration":273161,"SoundDuration":273161,"Delta":36020074},{"NoteNumber":67,"Velocity":58,"Duration":273161,"SoundDuration":273161,"Delta":36020074},{"NoteNumber":71,"Velocity":73,"Duration":273233,"SoundDuration":273233,"Delta":36293236},{"NoteNumber":76,"Velocity":73,"Duration":273233,"SoundDuration":273233,"Delta":36293236},{"NoteNumber":68,"Velocity":64,"Duration":273233,"SoundDuration":273233,"Delta":36293236},{"NoteNumber":88,"Velocity":80,"Duration":142457,"SoundDuration":142457,"Delta":36566470},{"NoteNumber":83,"Velocity":80,"Duration":142457,"SoundDuration":142457,"Delta":36566470},{"NoteNumber":76,"Velocity":80,"Duration":142457,"SoundDuration":142457,"Delta":36566470},{"NoteNumber":68,"Velocity":74,"Duration":142457,"SoundDuration":142457,"Delta":36566470},{"NoteNumber":64,"Velocity":74,"Duration":142457,"SoundDuration":142457,"Delta":36566470},{"NoteNumber":59,"Velocity":74,"Duration":142457,"SoundDuration":142457,"Delta":36566470},{"NoteNumber":56,"Velocity":74,"Duration":142457,"SoundDuration":142457,"Delta":36566470},{"NoteNumber":88,"Velocity":91,"Duration":284914,"SoundDuration":284914,"Delta":36851384},{"NoteNumber":100,"Velocity":85,"Duration":284914,"SoundDuration":284914,"Delta":36851384},{"NoteNumber":40,"Velocity":79,"Duration":284914,"SoundDuration":284914,"Delta":36851384},{"NoteNumber":52,"Velocity":79,"Duration":284914,"SoundDuration":284914,"Delta":36851384},{"NoteNumber":64,"Velocity":58,"Duration":137645,"SoundDuration":137645,"Delta":37136298},{"NoteNumber":76,"Velocity":70,"Duration":137645,"SoundDuration":137645,"Delta":37136298},{"NoteNumber":56,"Velocity":50,"Duration":137645,"SoundDuration":137645,"Delta":37136298},{"NoteNumber":59,"Velocity":59,"Duration":137645,"SoundDuration":137645,"Delta":37136298},{"NoteNumber":64,"Velocity":58,"Duration":137646,"SoundDuration":137646,"Delta":37273944},{"NoteNumber":76,"Velocity":70,"Duration":137646,"SoundDuration":137646,"Delta":37273944},{"NoteNumber":56,"Velocity":49,"Duration":137646,"SoundDuration":137646,"Delta":37273944},{"NoteNumber":59,"Velocity":58,"Duration":137646,"SoundDuration":137646,"Delta":37273944},{"NoteNumber":63,"Velocity":53,"Duration":139827,"SoundDuration":139827,"Delta":37411590},{"NoteNumber":75,"Velocity":64,"Duration":139827,"SoundDuration":139827,"Delta":37411590},{"NoteNumber":55,"Velocity":46,"Duration":139827,"SoundDuration":139827,"Delta":37411590},{"NoteNumber":58,"Velocity":54,"Duration":139827,"SoundDuration":139827,"Delta":37411590},{"NoteNumber":64,"Velocity":53,"Duration":139095,"SoundDuration":139095,"Delta":37551418},{"NoteNumber":76,"Velocity":64,"Duration":139095,"SoundDuration":139095,"Delta":37551418},{"NoteNumber":56,"Velocity":46,"Duration":139095,"SoundDuration":139095,"Delta":37551418},{"NoteNumber":59,"Velocity":54,"Duration":139095,"SoundDuration":139095,"Delta":37551418},{"NoteNumber":65,"Velocity":58,"Duration":138066,"SoundDuration":138066,"Delta":37690513},{"NoteNumber":77,"Velocity":70,"Duration":138066,"SoundDuration":138066,"Delta":37690513},{"NoteNumber":57,"Velocity":49,"Duration":138066,"SoundDuration":138066,"Delta":37690513},{"NoteNumber":60,"Velocity":58,"Duration":138066,"SoundDuration":138066,"Delta":37690513},{"NoteNumber":66,"Velocity":53,"Duration":138006,"SoundDuration":138006,"Delta":37828580},{"NoteNumber":78,"Velocity":64,"Duration":138006,"SoundDuration":138006,"Delta":37828580},{"NoteNumber":58,"Velocity":49,"Duration":138006,"SoundDuration":138006,"Delta":37828580},{"NoteNumber":61,"Velocity":58,"Duration":138006,"SoundDuration":138006,"Delta":37828580},{"NoteNumber":67,"Velocity":58,"Duration":68427,"SoundDuration":68427,"Delta":37966587},{"NoteNumber":79,"Velocity":70,"Duration":68427,"SoundDuration":68427,"Delta":37966587},{"NoteNumber":59,"Velocity":49,"Duration":68427,"SoundDuration":68427,"Delta":37966587},{"NoteNumber":62,"Velocity":58,"Duration":68427,"SoundDuration":68427,"Delta":37966587},{"NoteNumber":67,"Velocity":54,"Duration":68427,"SoundDuration":68427,"Delta":38103442},{"NoteNumber":79,"Velocity":65,"Duration":68427,"SoundDuration":68427,"Delta":38103442},{"NoteNumber":59,"Velocity":45,"Duration":68427,"SoundDuration":68427,"Delta":38103442},{"NoteNumber":62,"Velocity":53,"Duration":68427,"SoundDuration":68427,"Delta":38103442},{"NoteNumber":67,"Velocity":54,"Duration":70284,"SoundDuration":70284,"Delta":38240297},{"NoteNumber":79,"Velocity":65,"Duration":70284,"SoundDuration":70284,"Delta":38240297},{"NoteNumber":59,"Velocity":45,"Duration":70284,"SoundDuration":70284,"Delta":38240297},{"NoteNumber":62,"Velocity":53,"Duration":70284,"SoundDuration":70284,"Delta":38240297},{"NoteNumber":67,"Velocity":54,"Duration":70284,"SoundDuration":70284,"Delta":38380865},{"NoteNumber":79,"Velocity":65,"Duration":70284,"SoundDuration":70284,"Delta":38380865},{"NoteNumber":59,"Velocity":46,"Duration":70284,"SoundDuration":70284,"Delta":38380865},{"NoteNumber":62,"Velocity":54,"Duration":70284,"SoundDuration":70284,"Delta":38380865},{"NoteNumber":67,"Velocity":58,"Duration":137645,"SoundDuration":137645,"Delta":38521433},{"NoteNumber":79,"Velocity":70,"Duration":137645,"SoundDuration":137645,"Delta":38521433},{"NoteNumber":59,"Velocity":49,"Duration":137645,"SoundDuration":137645,"Delta":38521433},{"NoteNumber":62,"Velocity":58,"Duration":137645,"SoundDuration":137645,"Delta":38521433},{"NoteNumber":66,"Velocity":54,"Duration":137646,"SoundDuration":137646,"Delta":38659079},{"NoteNumber":78,"Velocity":65,"Duration":137646,"SoundDuration":137646,"Delta":38659079},{"NoteNumber":58,"Velocity":46,"Duration":137646,"SoundDuration":137646,"Delta":38659079},{"NoteNumber":61,"Velocity":54,"Duration":137646,"SoundDuration":137646,"Delta":38659079},{"NoteNumber":66,"Velocity":58,"Duration":68265,"SoundDuration":68265,"Delta":38796725},{"NoteNumber":78,"Velocity":70,"Duration":68265,"SoundDuration":68265,"Delta":38796725},{"NoteNumber":58,"Velocity":49,"Duration":68265,"SoundDuration":68265,"Delta":38796725},{"NoteNumber":61,"Velocity":58,"Duration":68265,"SoundDuration":68265,"Delta":38796725},{"NoteNumber":66,"Velocity":54,"Duration":68265,"SoundDuration":68265,"Delta":38933256},{"NoteNumber":78,"Velocity":65,"Duration":68265,"SoundDuration":68265,"Delta":38933256},{"NoteNumber":58,"Velocity":46,"Duration":68265,"SoundDuration":68265,"Delta":38933256},{"NoteNumber":61,"Velocity":54,"Duration":68265,"SoundDuration":68265,"Delta":38933256},{"NoteNumber":65,"Velocity":54,"Duration":70284,"SoundDuration":70284,"Delta":39069787},{"NoteNumber":77,"Velocity":65,"Duration":70284,"SoundDuration":70284,"Delta":39069787},{"NoteNumber":57,"Velocity":46,"Duration":70284,"SoundDuration":70284,"Delta":39069787},{"NoteNumber":60,"Velocity":54,"Duration":70284,"SoundDuration":70284,"Delta":39069787},{"NoteNumber":66,"Velocity":54,"Duration":70284,"SoundDuration":70284,"Delta":39210355},{"NoteNumber":78,"Velocity":65,"Duration":70284,"SoundDuration":70284,"Delta":39210355},{"NoteNumber":58,"Velocity":46,"Duration":70284,"SoundDuration":70284,"Delta":39210355},{"NoteNumber":61,"Velocity":54,"Duration":70284,"SoundDuration":70284,"Delta":39210355},{"NoteNumber":67,"Velocity":58,"Duration":137645,"SoundDuration":137645,"Delta":39350923},{"NoteNumber":79,"Velocity":70,"Duration":137645,"SoundDuration":137645,"Delta":39350923},{"NoteNumber":59,"Velocity":49,"Duration":137645,"SoundDuration":137645,"Delta":39350923},{"NoteNumber":62,"Velocity":58,"Duration":137645,"SoundDuration":137645,"Delta":39350923},{"NoteNumber":68,"Velocity":53,"Duration":137646,"SoundDuration":137646,"Delta":39488569},{"NoteNumber":80,"Velocity":63,"Duration":137646,"SoundDuration":137646,"Delta":39488569},{"NoteNumber":60,"Velocity":46,"Duration":137646,"SoundDuration":137646,"Delta":39488569},{"NoteNumber":63,"Velocity":54,"Duration":137646,"SoundDuration":137646,"Delta":39488569},{"NoteNumber":69,"Velocity":54,"Duration":68104,"SoundDuration":68104,"Delta":39626215},{"NoteNumber":81,"Velocity":65,"Duration":68104,"SoundDuration":68104,"Delta":39626215},{"NoteNumber":61,"Velocity":49,"Duration":68104,"SoundDuration":68104,"Delta":39626215},{"NoteNumber":64,"Velocity":58,"Duration":68104,"SoundDuration":68104,"Delta":39626215},{"NoteNumber":69,"Velocity":56,"Duration":68104,"SoundDuration":68104,"Delta":39762424},{"NoteNumber":81,"Velocity":67,"Duration":68104,"SoundDuration":68104,"Delta":39762424},{"NoteNumber":61,"Velocity":51,"Duration":68104,"SoundDuration":68104,"Delta":39762424},{"NoteNumber":64,"Velocity":60,"Duration":68104,"SoundDuration":68104,"Delta":39762424},{"NoteNumber":69,"Velocity":58,"Duration":69913,"SoundDuration":69913,"Delta":39898633},{"NoteNumber":81,"Velocity":70,"Duration":69913,"SoundDuration":69913,"Delta":39898633},{"NoteNumber":61,"Velocity":53,"Duration":69913,"SoundDuration":69913,"Delta":39898633},{"NoteNumber":64,"Velocity":63,"Duration":69913,"SoundDuration":69913,"Delta":39898633},{"NoteNumber":69,"Velocity":60,"Duration":69913,"SoundDuration":69913,"Delta":40038460},{"NoteNumber":81,"Velocity":72,"Duration":69913,"SoundDuration":69913,"Delta":40038460},{"NoteNumber":61,"Velocity":53,"Duration":69913,"SoundDuration":69913,"Delta":40038460},{"NoteNumber":64,"Velocity":64,"Duration":69913,"SoundDuration":69913,"Delta":40038460},{"NoteNumber":69,"Velocity":66,"Duration":137645,"SoundDuration":137645,"Delta":40178288},{"NoteNumber":81,"Velocity":78,"Duration":137645,"SoundDuration":137645,"Delta":40178288},{"NoteNumber":61,"Velocity":56,"Duration":137645,"SoundDuration":137645,"Delta":40178288},{"NoteNumber":64,"Velocity":67,"Duration":137645,"SoundDuration":137645,"Delta":40178288},{"NoteNumber":68,"Velocity":60,"Duration":137646,"SoundDuration":137646,"Delta":40315934},{"NoteNumber":80,"Velocity":72,"Duration":137646,"SoundDuration":137646,"Delta":40315934},{"NoteNumber":60,"Velocity":50,"Duration":137646,"SoundDuration":137646,"Delta":40315934},{"NoteNumber":63,"Velocity":59,"Duration":137646,"SoundDuration":137646,"Delta":40315934},{"NoteNumber":68,"Velocity":63,"Duration":68104,"SoundDuration":68104,"Delta":40453580},{"NoteNumber":80,"Velocity":74,"Duration":68104,"SoundDuration":68104,"Delta":40453580},{"NoteNumber":60,"Velocity":50,"Duration":68104,"SoundDuration":68104,"Delta":40453580},{"NoteNumber":63,"Velocity":59,"Duration":68104,"SoundDuration":68104,"Delta":40453580},{"NoteNumber":68,"Velocity":65,"Duration":68104,"SoundDuration":68104,"Delta":40589789},{"NoteNumber":80,"Velocity":76,"Duration":68104,"SoundDuration":68104,"Delta":40589789},{"NoteNumber":60,"Velocity":52,"Duration":68104,"SoundDuration":68104,"Delta":40589789},{"NoteNumber":63,"Velocity":61,"Duration":68104,"SoundDuration":68104,"Delta":40589789},{"NoteNumber":67,"Velocity":65,"Duration":69913,"SoundDuration":69913,"Delta":40725998},{"NoteNumber":79,"Velocity":77,"Duration":69913,"SoundDuration":69913,"Delta":40725998},{"NoteNumber":59,"Velocity":53,"Duration":69913,"SoundDuration":69913,"Delta":40725998},{"NoteNumber":62,"Velocity":64,"Duration":69913,"SoundDuration":69913,"Delta":40725998},{"NoteNumber":68,"Velocity":68,"Duration":69913,"SoundDuration":69913,"Delta":40865825},{"NoteNumber":80,"Velocity":80,"Duration":69913,"SoundDuration":69913,"Delta":40865825},{"NoteNumber":60,"Velocity":54,"Duration":69913,"SoundDuration":69913,"Delta":40865825},{"NoteNumber":63,"Velocity":65,"Duration":69913,"SoundDuration":69913,"Delta":40865825},{"NoteNumber":68,"Velocity":77,"Duration":248641,"SoundDuration":248641,"Delta":41005653},{"NoteNumber":73,"Velocity":77,"Duration":248641,"SoundDuration":248641,"Delta":41005653},{"NoteNumber":80,"Velocity":91,"Duration":248641,"SoundDuration":248641,"Delta":41005653},{"NoteNumber":59,"Velocity":56,"Duration":285966,"SoundDuration":285966,"Delta":41005653},{"NoteNumber":65,"Velocity":67,"Duration":285966,"SoundDuration":285966,"Delta":41005653},{"NoteNumber":61,"Velocity":56,"Duration":285966,"SoundDuration":285966,"Delta":41005653},{"NoteNumber":70,"Velocity":55,"Duration":37324,"SoundDuration":37324,"Delta":41254294},{"NoteNumber":82,"Velocity":63,"Duration":37324,"SoundDuration":37324,"Delta":41254294},{"NoteNumber":68,"Velocity":73,"Duration":137842,"SoundDuration":137842,"Delta":41291619},{"NoteNumber":73,"Velocity":73,"Duration":137842,"SoundDuration":137842,"Delta":41291619},{"NoteNumber":80,"Velocity":86,"Duration":137842,"SoundDuration":137842,"Delta":41291619},{"NoteNumber":37,"Velocity":49,"Duration":277014,"SoundDuration":277014,"Delta":41291619},{"NoteNumber":49,"Velocity":59,"Duration":277014,"SoundDuration":277014,"Delta":41291619},{"NoteNumber":67,"Velocity":66,"Duration":139172,"SoundDuration":139172,"Delta":41429461},{"NoteNumber":79,"Velocity":79,"Duration":139172,"SoundDuration":139172,"Delta":41429461},{"NoteNumber":68,"Velocity":73,"Duration":142986,"SoundDuration":142986,"Delta":41568634},{"NoteNumber":73,"Velocity":73,"Duration":142986,"SoundDuration":142986,"Delta":41568634},{"NoteNumber":80,"Velocity":88,"Duration":142986,"SoundDuration":142986,"Delta":41568634},{"NoteNumber":65,"Velocity":65,"Duration":288744,"SoundDuration":288744,"Delta":41568634},{"NoteNumber":61,"Velocity":54,"Duration":288744,"SoundDuration":288744,"Delta":41568634},{"NoteNumber":59,"Velocity":54,"Duration":288744,"SoundDuration":288744,"Delta":41568634},{"NoteNumber":70,"Velocity":69,"Duration":145758,"SoundDuration":145758,"Delta":41711620},{"NoteNumber":82,"Velocity":82,"Duration":145758,"SoundDuration":145758,"Delta":41711620},{"NoteNumber":73,"Velocity":76,"Duration":286684,"SoundDuration":286684,"Delta":41857378},{"NoteNumber":68,"Velocity":76,"Duration":286684,"SoundDuration":286684,"Delta":41857378},{"NoteNumber":80,"Velocity":90,"Duration":286684,"SoundDuration":286684,"Delta":41857378},{"NoteNumber":64,"Velocity":67,"Duration":286684,"SoundDuration":286684,"Delta":41857378},{"NoteNumber":61,"Velocity":56,"Duration":286684,"SoundDuration":286684,"Delta":41857378},{"NoteNumber":59,"Velocity":56,"Duration":286684,"SoundDuration":286684,"Delta":41857378},{"NoteNumber":54,"Velocity":56,"Duration":286684,"SoundDuration":286684,"Delta":41857378},{"NoteNumber":92,"Velocity":95,"Duration":138503,"SoundDuration":138503,"Delta":42144062},{"NoteNumber":80,"Velocity":79,"Duration":138503,"SoundDuration":138503,"Delta":42144062},{"NoteNumber":30,"Velocity":51,"Duration":138503,"SoundDuration":138503,"Delta":42144062},{"NoteNumber":42,"Velocity":60,"Duration":138503,"SoundDuration":138503,"Delta":42144062},{"NoteNumber":66,"Velocity":73,"Duration":281756,"SoundDuration":281756,"Delta":42421070},{"NoteNumber":73,"Velocity":73,"Duration":281756,"SoundDuration":281756,"Delta":42421070},{"NoteNumber":78,"Velocity":88,"Duration":281756,"SoundDuration":281756,"Delta":42421070},{"NoteNumber":64,"Velocity":61,"Duration":281756,"SoundDuration":281756,"Delta":42421070},{"NoteNumber":61,"Velocity":52,"Duration":281756,"SoundDuration":281756,"Delta":42421070},{"NoteNumber":58,"Velocity":52,"Duration":281756,"SoundDuration":281756,"Delta":42421070},{"NoteNumber":54,"Velocity":52,"Duration":281756,"SoundDuration":281756,"Delta":42421070},{"NoteNumber":66,"Velocity":65,"Duration":251360,"SoundDuration":251360,"Delta":42702826},{"NoteNumber":71,"Velocity":65,"Duration":251360,"SoundDuration":251360,"Delta":42702826},{"NoteNumber":78,"Velocity":77,"Duration":251360,"SoundDuration":251360,"Delta":42702826},{"NoteNumber":57,"Velocity":54,"Duration":288781,"SoundDuration":288781,"Delta":42702826},{"NoteNumber":63,"Velocity":63,"Duration":288781,"SoundDuration":288781,"Delta":42702826},{"NoteNumber":59,"Velocity":54,"Duration":288781,"SoundDuration":288781,"Delta":42702826},{"NoteNumber":68,"Velocity":61,"Duration":37421,"SoundDuration":37421,"Delta":42954187},{"NoteNumber":80,"Velocity":61,"Duration":37421,"SoundDuration":37421,"Delta":42954187},{"NoteNumber":66,"Velocity":70,"Duration":138064,"SoundDuration":138064,"Delta":42991608},{"NoteNumber":71,"Velocity":70,"Duration":138064,"SoundDuration":138064,"Delta":42991608},{"NoteNumber":78,"Velocity":82,"Duration":138064,"SoundDuration":138064,"Delta":42991608},{"NoteNumber":35,"Velocity":47,"Duration":277236,"SoundDuration":277236,"Delta":42991608},{"NoteNumber":47,"Velocity":57,"Duration":277236,"SoundDuration":277236,"Delta":42991608},{"NoteNumber":65,"Velocity":67,"Duration":139172,"SoundDuration":139172,"Delta":43129672},{"NoteNumber":77,"Velocity":79,"Duration":139172,"SoundDuration":139172,"Delta":43129672},{"NoteNumber":66,"Velocity":70,"Duration":144787,"SoundDuration":144787,"Delta":43268845},{"NoteNumber":71,"Velocity":70,"Duration":144787,"SoundDuration":144787,"Delta":43268845},{"NoteNumber":78,"Velocity":84,"Duration":144787,"SoundDuration":144787,"Delta":43268845},{"NoteNumber":63,"Velocity":61,"Duration":289574,"SoundDuration":289574,"Delta":43268845},{"NoteNumber":59,"Velocity":51,"Duration":289574,"SoundDuration":289574,"Delta":43268845},{"NoteNumber":57,"Velocity":51,"Duration":289574,"SoundDuration":289574,"Delta":43268845},{"NoteNumber":68,"Velocity":67,"Duration":144787,"SoundDuration":144787,"Delta":43413632},{"NoteNumber":80,"Velocity":79,"Duration":144787,"SoundDuration":144787,"Delta":43413632},{"NoteNumber":71,"Velocity":76,"Duration":285251,"SoundDuration":285251,"Delta":43558420},{"NoteNumber":66,"Velocity":76,"Duration":285251,"SoundDuration":285251,"Delta":43558420},{"NoteNumber":78,"Velocity":90,"Duration":285251,"SoundDuration":285251,"Delta":43558420},{"NoteNumber":62,"Velocity":67,"Duration":285251,"SoundDuration":285251,"Delta":43558420},{"NoteNumber":59,"Velocity":56,"Duration":285251,"SoundDuration":285251,"Delta":43558420},{"NoteNumber":57,"Velocity":56,"Duration":285251,"SoundDuration":285251,"Delta":43558420},{"NoteNumber":52,"Velocity":56,"Duration":285251,"SoundDuration":285251,"Delta":43558420},{"NoteNumber":90,"Velocity":92,"Duration":139515,"SoundDuration":139515,"Delta":43843672},{"NoteNumber":78,"Velocity":79,"Duration":139515,"SoundDuration":139515,"Delta":43843672},{"NoteNumber":28,"Velocity":51,"Duration":139515,"SoundDuration":139515,"Delta":43843672},{"NoteNumber":40,"Velocity":60,"Duration":139515,"SoundDuration":139515,"Delta":43843672},{"NoteNumber":64,"Velocity":73,"Duration":281528,"SoundDuration":281528,"Delta":44122703},{"NoteNumber":71,"Velocity":73,"Duration":281528,"SoundDuration":281528,"Delta":44122703},{"NoteNumber":76,"Velocity":88,"Duration":281528,"SoundDuration":281528,"Delta":44122703},{"NoteNumber":62,"Velocity":61,"Duration":281528,"SoundDuration":281528,"Delta":44122703},{"NoteNumber":56,"Velocity":52,"Duration":281528,"SoundDuration":281528,"Delta":44122703},{"NoteNumber":52,"Velocity":52,"Duration":281528,"SoundDuration":281528,"Delta":44122703},{"NoteNumber":64,"Velocity":77,"Duration":251457,"SoundDuration":251457,"Delta":44404232},{"NoteNumber":69,"Velocity":77,"Duration":251457,"SoundDuration":251457,"Delta":44404232},{"NoteNumber":76,"Velocity":91,"Duration":251457,"SoundDuration":251457,"Delta":44404232},{"NoteNumber":55,"Velocity":56,"Duration":288976,"SoundDuration":288976,"Delta":44404232},{"NoteNumber":61,"Velocity":67,"Duration":288976,"SoundDuration":288976,"Delta":44404232},{"NoteNumber":57,"Velocity":56,"Duration":288976,"SoundDuration":288976,"Delta":44404232},{"NoteNumber":66,"Velocity":55,"Duration":37518,"SoundDuration":37518,"Delta":44655689},{"NoteNumber":78,"Velocity":63,"Duration":37518,"SoundDuration":37518,"Delta":44655689},{"NoteNumber":64,"Velocity":77,"Duration":138728,"SoundDuration":138728,"Delta":44693208},{"NoteNumber":69,"Velocity":77,"Duration":138728,"SoundDuration":138728,"Delta":44693208},{"NoteNumber":76,"Velocity":91,"Duration":138728,"SoundDuration":138728,"Delta":44693208},{"NoteNumber":33,"Velocity":50,"Duration":277456,"SoundDuration":277456,"Delta":44693208},{"NoteNumber":45,"Velocity":59,"Duration":277456,"SoundDuration":277456,"Delta":44693208},{"NoteNumber":63,"Velocity":69,"Duration":138728,"SoundDuration":138728,"Delta":44831937},{"NoteNumber":75,"Velocity":82,"Duration":138728,"SoundDuration":138728,"Delta":44831937},{"NoteNumber":64,"Velocity":73,"Duration":143225,"SoundDuration":143225,"Delta":44970665},{"NoteNumber":69,"Velocity":73,"Duration":143225,"SoundDuration":143225,"Delta":44970665},{"NoteNumber":76,"Velocity":88,"Duration":143225,"SoundDuration":143225,"Delta":44970665},{"NoteNumber":61,"Velocity":60,"Duration":286450,"SoundDuration":286450,"Delta":44970665},{"NoteNumber":57,"Velocity":51,"Duration":286450,"SoundDuration":286450,"Delta":44970665},{"NoteNumber":55,"Velocity":51,"Duration":286450,"SoundDuration":286450,"Delta":44970665},{"NoteNumber":66,"Velocity":69,"Duration":143225,"SoundDuration":143225,"Delta":45113891},{"NoteNumber":78,"Velocity":82,"Duration":143225,"SoundDuration":143225,"Delta":45113891},{"NoteNumber":63,"Velocity":76,"Duration":140944,"SoundDuration":140944,"Delta":45257116},{"NoteNumber":69,"Velocity":76,"Duration":140944,"SoundDuration":140944,"Delta":45257116},{"NoteNumber":75,"Velocity":90,"Duration":140944,"SoundDuration":140944,"Delta":45257116},{"NoteNumber":54,"Velocity":56,"Duration":281888,"SoundDuration":281888,"Delta":45257116},{"NoteNumber":60,"Velocity":67,"Duration":281888,"SoundDuration":281888,"Delta":45257116},{"NoteNumber":63,"Velocity":74,"Duration":140944,"SoundDuration":140944,"Delta":45398061},{"NoteNumber":66,"Velocity":71,"Duration":140756,"SoundDuration":140756,"Delta":45539005},{"NoteNumber":75,"Velocity":84,"Duration":140756,"SoundDuration":140756,"Delta":45539005},{"NoteNumber":57,"Velocity":48,"Duration":282453,"SoundDuration":282453,"Delta":45539005},{"NoteNumber":60,"Velocity":58,"Duration":282453,"SoundDuration":282453,"Delta":45539005},{"NoteNumber":75,"Velocity":81,"Duration":141697,"SoundDuration":141697,"Delta":45679761},{"NoteNumber":87,"Velocity":89,"Duration":142713,"SoundDuration":142713,"Delta":45821459},{"NoteNumber":78,"Velocity":74,"Duration":142713,"SoundDuration":142713,"Delta":45821459},{"NoteNumber":69,"Velocity":55,"Duration":286523,"SoundDuration":286523,"Delta":45821459},{"NoteNumber":72,"Velocity":65,"Duration":286523,"SoundDuration":286523,"Delta":45821459},{"NoteNumber":87,"Velocity":88,"Duration":143809,"SoundDuration":143809,"Delta":45964173},{"NoteNumber":99,"Velocity":93,"Duration":288795,"SoundDuration":288795,"Delta":46107983},{"NoteNumber":90,"Velocity":77,"Duration":288795,"SoundDuration":288795,"Delta":46107983},{"NoteNumber":84,"Velocity":68,"Duration":288795,"SoundDuration":288795,"Delta":46107983},{"NoteNumber":81,"Velocity":56,"Duration":288795,"SoundDuration":288795,"Delta":46107983},{"NoteNumber":63,"Velocity":70,"Duration":144418,"SoundDuration":144418,"Delta":46396778},{"NoteNumber":69,"Velocity":82,"Duration":144418,"SoundDuration":144418,"Delta":46396778},{"NoteNumber":66,"Velocity":70,"Duration":144418,"SoundDuration":144418,"Delta":46396778},{"NoteNumber":48,"Velocity":48,"Duration":144418,"SoundDuration":144418,"Delta":46396778},{"NoteNumber":60,"Velocity":58,"Duration":144418,"SoundDuration":144418,"Delta":46396778},{"NoteNumber":66,"Velocity":67,"Duration":142625,"SoundDuration":142625,"Delta":46685614},{"NoteNumber":69,"Velocity":67,"Duration":142625,"SoundDuration":142625,"Delta":46685614},{"NoteNumber":78,"Velocity":79,"Duration":142625,"SoundDuration":142625,"Delta":46685614},{"NoteNumber":24,"Velocity":48,"Duration":142625,"SoundDuration":142625,"Delta":46685614},{"NoteNumber":36,"Velocity":57,"Duration":142625,"SoundDuration":142625,"Delta":46685614},{"NoteNumber":65,"Velocity":70,"Duration":144057,"SoundDuration":144057,"Delta":46970866},{"NoteNumber":70,"Velocity":70,"Duration":144057,"SoundDuration":144057,"Delta":46970866},{"NoteNumber":77,"Velocity":82,"Duration":144057,"SoundDuration":144057,"Delta":46970866},{"NoteNumber":25,"Velocity":50,"Duration":144057,"SoundDuration":144057,"Delta":46970866},{"NoteNumber":37,"Velocity":59,"Duration":144057,"SoundDuration":144057,"Delta":46970866},{"NoteNumber":58,"Velocity":52,"Duration":143341,"SoundDuration":143341,"Delta":47258981},{"NoteNumber":65,"Velocity":52,"Duration":143341,"SoundDuration":143341,"Delta":47258981},{"NoteNumber":70,"Velocity":61,"Duration":143341,"SoundDuration":143341,"Delta":47258981},{"NoteNumber":37,"Velocity":34,"Duration":143341,"SoundDuration":143341,"Delta":47258981},{"NoteNumber":49,"Velocity":40,"Duration":143341,"SoundDuration":143341,"Delta":47258981},{"NoteNumber":75,"Velocity":66,"Duration":144787,"SoundDuration":144787,"Delta":47545665},{"NoteNumber":66,"Velocity":56,"Duration":144787,"SoundDuration":144787,"Delta":47545665},{"NoteNumber":72,"Velocity":66,"Duration":144787,"SoundDuration":144787,"Delta":47545665},{"NoteNumber":63,"Velocity":56,"Duration":144787,"SoundDuration":144787,"Delta":47545665},{"NoteNumber":27,"Velocity":37,"Duration":144787,"SoundDuration":144787,"Delta":47545665},{"NoteNumber":39,"Velocity":46,"Duration":144787,"SoundDuration":144787,"Delta":47545665},{"NoteNumber":61,"Velocity":57,"Duration":144057,"SoundDuration":144057,"Delta":47835240},{"NoteNumber":65,"Velocity":57,"Duration":144057,"SoundDuration":144057,"Delta":47835240},{"NoteNumber":70,"Velocity":68,"Duration":144057,"SoundDuration":144057,"Delta":47835240},{"NoteNumber":73,"Velocity":68,"Duration":144057,"SoundDuration":144057,"Delta":47835240},{"NoteNumber":29,"Velocity":40,"Duration":144057,"SoundDuration":144057,"Delta":47835240},{"NoteNumber":41,"Velocity":49,"Duration":144057,"SoundDuration":144057,"Delta":47835240},{"NoteNumber":61,"Velocity":50,"Duration":144057,"SoundDuration":144057,"Delta":48123355},{"NoteNumber":65,"Velocity":60,"Duration":144057,"SoundDuration":144057,"Delta":48123355},{"NoteNumber":41,"Velocity":35,"Duration":144057,"SoundDuration":144057,"Delta":48123355},{"NoteNumber":53,"Velocity":44,"Duration":144057,"SoundDuration":144057,"Delta":48123355},{"NoteNumber":63,"Velocity":49,"Duration":144057,"SoundDuration":144057,"Delta":48411470},{"NoteNumber":65,"Velocity":49,"Duration":144057,"SoundDuration":144057,"Delta":48411470},{"NoteNumber":69,"Velocity":58,"Duration":144057,"SoundDuration":144057,"Delta":48411470},{"NoteNumber":72,"Velocity":58,"Duration":144057,"SoundDuration":144057,"Delta":48411470},{"NoteNumber":29,"Velocity":35,"Duration":144057,"SoundDuration":144057,"Delta":48411470},{"NoteNumber":41,"Velocity":43,"Duration":144057,"SoundDuration":144057,"Delta":48411470},{"NoteNumber":61,"Velocity":46,"Duration":144057,"SoundDuration":144057,"Delta":48699585},{"NoteNumber":65,"Velocity":46,"Duration":144057,"SoundDuration":144057,"Delta":48699585},{"NoteNumber":70,"Velocity":55,"Duration":144057,"SoundDuration":144057,"Delta":48699585},{"NoteNumber":34,"Velocity":30,"Duration":144057,"SoundDuration":144057,"Delta":48699585},{"NoteNumber":46,"Velocity":37,"Duration":144057,"SoundDuration":144057,"Delta":48699585},{"NoteNumber":53,"Velocity":38,"Duration":145152,"SoundDuration":145152,"Delta":48987700},{"NoteNumber":58,"Velocity":48,"Duration":145152,"SoundDuration":145152,"Delta":48987700},{"NoteNumber":37,"Velocity":25,"Duration":145152,"SoundDuration":145152,"Delta":48987700},{"NoteNumber":49,"Velocity":31,"Duration":145152,"SoundDuration":145152,"Delta":48987700},{"NoteNumber":63,"Velocity":50,"Duration":142986,"SoundDuration":142986,"Delta":49278004},{"NoteNumber":58,"Velocity":40,"Duration":142986,"SoundDuration":142986,"Delta":49278004},{"NoteNumber":54,"Velocity":40,"Duration":142986,"SoundDuration":142986,"Delta":49278004},{"NoteNumber":39,"Velocity":33,"Duration":142986,"SoundDuration":142986,"Delta":49278004},{"NoteNumber":53,"Velocity":43,"Duration":144057,"SoundDuration":144057,"Delta":49563977},{"NoteNumber":58,"Velocity":43,"Duration":144057,"SoundDuration":144057,"Delta":49563977},{"NoteNumber":61,"Velocity":51,"Duration":144057,"SoundDuration":144057,"Delta":49563977},{"NoteNumber":41,"Velocity":38,"Duration":144057,"SoundDuration":144057,"Delta":49563977},{"NoteNumber":53,"Velocity":45,"Duration":144057,"SoundDuration":144057,"Delta":49852092},{"NoteNumber":60,"Velocity":45,"Duration":144057,"SoundDuration":144057,"Delta":50140207},{"NoteNumber":57,"Velocity":37,"Duration":144057,"SoundDuration":144057,"Delta":50140207},{"NoteNumber":51,"Velocity":37,"Duration":144057,"SoundDuration":144057,"Delta":50140207},{"NoteNumber":29,"Velocity":28,"Duration":144057,"SoundDuration":144057,"Delta":50140207},{"NoteNumber":41,"Velocity":34,"Duration":144057,"SoundDuration":144057,"Delta":50140207},{"NoteNumber":58,"Velocity":46,"Duration":1124186,"SoundDuration":1124186,"Delta":50428322},{"NoteNumber":70,"Velocity":46,"Duration":1124186,"SoundDuration":1124186,"Delta":50428322},{"NoteNumber":34,"Velocity":30,"Duration":278345,"SoundDuration":278345,"Delta":50428322},{"NoteNumber":46,"Velocity":36,"Duration":278345,"SoundDuration":278345,"Delta":50428322},{"NoteNumber":44,"Velocity":26,"Duration":284548,"SoundDuration":284548,"Delta":50706667},{"NoteNumber":56,"Velocity":31,"Duration":284548,"SoundDuration":284548,"Delta":50706667},{"NoteNumber":41,"Velocity":26,"Duration":284548,"SoundDuration":284548,"Delta":50991216},{"NoteNumber":53,"Velocity":31,"Duration":284548,"SoundDuration":284548,"Delta":50991216},{"NoteNumber":42,"Velocity":30,"Duration":276743,"SoundDuration":276743,"Delta":51275765},{"NoteNumber":54,"Velocity":36,"Duration":276743,"SoundDuration":276743,"Delta":51275765},{"NoteNumber":70,"Velocity":46,"Duration":284142,"SoundDuration":284142,"Delta":51552508},{"NoteNumber":82,"Velocity":46,"Duration":284142,"SoundDuration":284142,"Delta":51552508},{"NoteNumber":41,"Velocity":26,"Duration":284142,"SoundDuration":284142,"Delta":51552508},{"NoteNumber":53,"Velocity":31,"Duration":284142,"SoundDuration":284142,"Delta":51552508},{"NoteNumber":94,"Velocity":46,"Duration":284157,"SoundDuration":284157,"Delta":51836650},{"NoteNumber":82,"Velocity":46,"Duration":284157,"SoundDuration":284157,"Delta":51836650},{"NoteNumber":37,"Velocity":26,"Duration":284157,"SoundDuration":284157,"Delta":51836650},{"NoteNumber":49,"Velocity":31,"Duration":284157,"SoundDuration":284157,"Delta":51836650},{"NoteNumber":70,"Velocity":46,"Duration":1127637,"SoundDuration":1127637,"Delta":52120808},{"NoteNumber":58,"Velocity":46,"Duration":1127637,"SoundDuration":1127637,"Delta":52120808},{"NoteNumber":39,"Velocity":30,"Duration":277470,"SoundDuration":277470,"Delta":52120808},{"NoteNumber":51,"Velocity":36,"Duration":277470,"SoundDuration":277470,"Delta":52120808},{"NoteNumber":37,"Velocity":26,"Duration":283380,"SoundDuration":283380,"Delta":52398279},{"NoteNumber":49,"Velocity":31,"Duration":283380,"SoundDuration":283380,"Delta":52398279},{"NoteNumber":34,"Velocity":31,"Duration":283393,"SoundDuration":283393,"Delta":52681660},{"NoteNumber":46,"Velocity":31,"Duration":283393,"SoundDuration":283393,"Delta":52681660},{"NoteNumber":35,"Velocity":38,"Duration":283392,"SoundDuration":283392,"Delta":52965053},{"NoteNumber":47,"Velocity":38,"Duration":283392,"SoundDuration":283392,"Delta":52965053},{"NoteNumber":70,"Velocity":53,"Duration":283393,"SoundDuration":283393,"Delta":53248446},{"NoteNumber":82,"Velocity":53,"Duration":283393,"SoundDuration":283393,"Delta":53248446},{"NoteNumber":34,"Velocity":38,"Duration":283393,"SoundDuration":283393,"Delta":53248446},{"NoteNumber":46,"Velocity":38,"Duration":283393,"SoundDuration":283393,"Delta":53248446},{"NoteNumber":94,"Velocity":59,"Duration":283392,"SoundDuration":283392,"Delta":53531839},{"NoteNumber":82,"Velocity":59,"Duration":283392,"SoundDuration":283392,"Delta":53531839},{"NoteNumber":30,"Velocity":40,"Duration":283392,"SoundDuration":283392,"Delta":53531839},{"NoteNumber":42,"Velocity":40,"Duration":283392,"SoundDuration":283392,"Delta":53531839},{"NoteNumber":51,"Velocity":52,"Duration":49550,"SoundDuration":49550,"Delta":53815232},{"NoteNumber":63,"Velocity":63,"Duration":49550,"SoundDuration":49550,"Delta":53815232},{"NoteNumber":27,"Velocity":40,"Duration":267063,"SoundDuration":267063,"Delta":53815232},{"NoteNumber":39,"Velocity":47,"Duration":267063,"SoundDuration":267063,"Delta":53815232},{"NoteNumber":51,"Velocity":55,"Duration":50598,"SoundDuration":50598,"Delta":53947367},{"NoteNumber":63,"Velocity":66,"Duration":50598,"SoundDuration":50598,"Delta":53947367},{"NoteNumber":63,"Velocity":67,"Duration":50127,"SoundDuration":50127,"Delta":54082296},{"NoteNumber":51,"Velocity":57,"Duration":50127,"SoundDuration":50127,"Delta":54082296},{"NoteNumber":28,"Velocity":38,"Duration":50127,"SoundDuration":50127,"Delta":54082296},{"NoteNumber":40,"Velocity":44,"Duration":50127,"SoundDuration":50127,"Delta":54082296},{"NoteNumber":63,"Velocity":68,"Duration":51814,"SoundDuration":51814,"Delta":54215814},{"NoteNumber":51,"Velocity":59,"Duration":51814,"SoundDuration":51814,"Delta":54215814},{"NoteNumber":29,"Velocity":38,"Duration":51814,"SoundDuration":51814,"Delta":54215814},{"NoteNumber":41,"Velocity":47,"Duration":51814,"SoundDuration":51814,"Delta":54215814},{"NoteNumber":63,"Velocity":79,"Duration":281949,"SoundDuration":281949,"Delta":54353987},{"NoteNumber":51,"Velocity":66,"Duration":281949,"SoundDuration":281949,"Delta":54353987},{"NoteNumber":30,"Velocity":46,"Duration":281949,"SoundDuration":281949,"Delta":54353987},{"NoteNumber":42,"Velocity":54,"Duration":281949,"SoundDuration":281949,"Delta":54353987},{"NoteNumber":53,"Velocity":73,"Duration":275156,"SoundDuration":275156,"Delta":54635936},{"NoteNumber":63,"Velocity":75,"Duration":275156,"SoundDuration":275156,"Delta":54635936},{"NoteNumber":59,"Velocity":71,"Duration":275156,"SoundDuration":275156,"Delta":54635936},{"NoteNumber":65,"Velocity":88,"Duration":275156,"SoundDuration":275156,"Delta":54635936},{"NoteNumber":32,"Velocity":56,"Duration":275156,"SoundDuration":275156,"Delta":54635936},{"NoteNumber":44,"Velocity":67,"Duration":275156,"SoundDuration":275156,"Delta":54635936},{"NoteNumber":71,"Velocity":63,"Duration":135686,"SoundDuration":135686,"Delta":54911092},{"NoteNumber":77,"Velocity":76,"Duration":135686,"SoundDuration":135686,"Delta":54911092},{"NoteNumber":75,"Velocity":63,"Duration":135686,"SoundDuration":135686,"Delta":54911092},{"NoteNumber":65,"Velocity":63,"Duration":135686,"SoundDuration":135686,"Delta":54911092},{"NoteNumber":44,"Velocity":43,"Duration":271365,"SoundDuration":271365,"Delta":54911092},{"NoteNumber":51,"Velocity":43,"Duration":271365,"SoundDuration":271365,"Delta":54911092},{"NoteNumber":53,"Velocity":43,"Duration":271365,"SoundDuration":271365,"Delta":54911092},{"NoteNumber":59,"Velocity":51,"Duration":271365,"SoundDuration":271365,"Delta":54911092},{"NoteNumber":63,"Velocity":61,"Duration":135678,"SoundDuration":135678,"Delta":55046779},{"NoteNumber":75,"Velocity":74,"Duration":135678,"SoundDuration":135678,"Delta":55046779},{"NoteNumber":65,"Velocity":63,"Duration":135679,"SoundDuration":135679,"Delta":55182458},{"NoteNumber":74,"Velocity":63,"Duration":135679,"SoundDuration":135679,"Delta":55182458},{"NoteNumber":77,"Velocity":76,"Duration":135679,"SoundDuration":135679,"Delta":55182458},{"NoteNumber":70,"Velocity":63,"Duration":135679,"SoundDuration":135679,"Delta":55182458},{"NoteNumber":46,"Velocity":43,"Duration":275165,"SoundDuration":275165,"Delta":55182458},{"NoteNumber":53,"Velocity":43,"Duration":275165,"SoundDuration":275165,"Delta":55182458},{"NoteNumber":56,"Velocity":43,"Duration":275165,"SoundDuration":275165,"Delta":55182458},{"NoteNumber":62,"Velocity":51,"Duration":275165,"SoundDuration":275165,"Delta":55182458},{"NoteNumber":78,"Velocity":72,"Duration":139486,"SoundDuration":139486,"Delta":55318137},{"NoteNumber":66,"Velocity":59,"Duration":139486,"SoundDuration":139486,"Delta":55318137},{"NoteNumber":66,"Velocity":63,"Duration":49437,"SoundDuration":49437,"Delta":55457624},{"NoteNumber":54,"Velocity":52,"Duration":49437,"SoundDuration":49437,"Delta":55457624},{"NoteNumber":30,"Velocity":40,"Duration":266446,"SoundDuration":266446,"Delta":55457624},{"NoteNumber":42,"Velocity":47,"Duration":266446,"SoundDuration":266446,"Delta":55457624},{"NoteNumber":54,"Velocity":55,"Duration":50480,"SoundDuration":50480,"Delta":55589457},{"NoteNumber":66,"Velocity":66,"Duration":50480,"SoundDuration":50480,"Delta":55589457},{"NoteNumber":54,"Velocity":57,"Duration":49664,"SoundDuration":49664,"Delta":55724071},{"NoteNumber":66,"Velocity":67,"Duration":49664,"SoundDuration":49664,"Delta":55724071},{"NoteNumber":31,"Velocity":38,"Duration":49664,"SoundDuration":49664,"Delta":55724071},{"NoteNumber":43,"Velocity":44,"Duration":49664,"SoundDuration":49664,"Delta":55724071},{"NoteNumber":66,"Velocity":66,"Duration":52318,"SoundDuration":52318,"Delta":55856509},{"NoteNumber":54,"Velocity":57,"Duration":52318,"SoundDuration":52318,"Delta":55856509},{"NoteNumber":32,"Velocity":35,"Duration":52318,"SoundDuration":52318,"Delta":55856509},{"NoteNumber":44,"Velocity":43,"Duration":52318,"SoundDuration":52318,"Delta":55856509},{"NoteNumber":66,"Velocity":79,"Duration":283152,"SoundDuration":283152,"Delta":55996025},{"NoteNumber":54,"Velocity":68,"Duration":283152,"SoundDuration":283152,"Delta":55996025},{"NoteNumber":33,"Velocity":46,"Duration":283152,"SoundDuration":283152,"Delta":55996025},{"NoteNumber":45,"Velocity":54,"Duration":283152,"SoundDuration":283152,"Delta":55996025},{"NoteNumber":56,"Velocity":72,"Duration":273642,"SoundDuration":273642,"Delta":56279177},{"NoteNumber":62,"Velocity":73,"Duration":273642,"SoundDuration":273642,"Delta":56279177},{"NoteNumber":66,"Velocity":75,"Duration":273642,"SoundDuration":273642,"Delta":56279177},{"NoteNumber":68,"Velocity":87,"Duration":273642,"SoundDuration":273642,"Delta":56279177},{"NoteNumber":35,"Velocity":56,"Duration":273642,"SoundDuration":273642,"Delta":56279177},{"NoteNumber":47,"Velocity":67,"Duration":273642,"SoundDuration":273642,"Delta":56279177},{"NoteNumber":68,"Velocity":63,"Duration":135324,"SoundDuration":135324,"Delta":56552820},{"NoteNumber":78,"Velocity":63,"Duration":135324,"SoundDuration":135324,"Delta":56552820},{"NoteNumber":80,"Velocity":76,"Duration":135324,"SoundDuration":135324,"Delta":56552820},{"NoteNumber":74,"Velocity":63,"Duration":135324,"SoundDuration":135324,"Delta":56552820},{"NoteNumber":48,"Velocity":43,"Duration":270642,"SoundDuration":270642,"Delta":56552820},{"NoteNumber":54,"Velocity":43,"Duration":270642,"SoundDuration":270642,"Delta":56552820},{"NoteNumber":56,"Velocity":43,"Duration":270642,"SoundDuration":270642,"Delta":56552820},{"NoteNumber":62,"Velocity":51,"Duration":270642,"SoundDuration":270642,"Delta":56552820},{"NoteNumber":66,"Velocity":61,"Duration":135318,"SoundDuration":135318,"Delta":56688144},{"NoteNumber":78,"Velocity":74,"Duration":135318,"SoundDuration":135318,"Delta":56688144},{"NoteNumber":68,"Velocity":63,"Duration":135317,"SoundDuration":135317,"Delta":56823462},{"NoteNumber":77,"Velocity":63,"Duration":135317,"SoundDuration":135317,"Delta":56823462},{"NoteNumber":80,"Velocity":76,"Duration":135317,"SoundDuration":135317,"Delta":56823462},{"NoteNumber":73,"Velocity":63,"Duration":135317,"SoundDuration":135317,"Delta":56823462},{"NoteNumber":49,"Velocity":43,"Duration":274025,"SoundDuration":274025,"Delta":56823462},{"NoteNumber":56,"Velocity":43,"Duration":274025,"SoundDuration":274025,"Delta":56823462},{"NoteNumber":59,"Velocity":43,"Duration":274025,"SoundDuration":274025,"Delta":56823462},{"NoteNumber":65,"Velocity":51,"Duration":274025,"SoundDuration":274025,"Delta":56823462},{"NoteNumber":81,"Velocity":72,"Duration":138707,"SoundDuration":138707,"Delta":56958780},{"NoteNumber":69,"Velocity":59,"Duration":138707,"SoundDuration":138707,"Delta":56958780},{"NoteNumber":69,"Velocity":56,"Duration":49098,"SoundDuration":49098,"Delta":57097488},{"NoteNumber":57,"Velocity":47,"Duration":49098,"SoundDuration":49098,"Delta":57097488},{"NoteNumber":33,"Velocity":36,"Duration":263678,"SoundDuration":263678,"Delta":57097488},{"NoteNumber":45,"Velocity":42,"Duration":263678,"SoundDuration":263678,"Delta":57097488},{"NoteNumber":57,"Velocity":51,"Duration":49780,"SoundDuration":49780,"Delta":57228418},{"NoteNumber":69,"Velocity":60,"Duration":49780,"SoundDuration":49780,"Delta":57228418},{"NoteNumber":57,"Velocity":54,"Duration":49098,"SoundDuration":49098,"Delta":57361167},{"NoteNumber":69,"Velocity":64,"Duration":49098,"SoundDuration":49098,"Delta":57361167},{"NoteNumber":35,"Velocity":36,"Duration":49098,"SoundDuration":49098,"Delta":57361167},{"NoteNumber":47,"Velocity":42,"Duration":49098,"SoundDuration":49098,"Delta":57361167},{"NoteNumber":57,"Velocity":57,"Duration":52829,"SoundDuration":52829,"Delta":57492097},{"NoteNumber":69,"Velocity":68,"Duration":52829,"SoundDuration":52829,"Delta":57492097},{"NoteNumber":36,"Velocity":37,"Duration":52829,"SoundDuration":52829,"Delta":57492097},{"NoteNumber":48,"Velocity":45,"Duration":52829,"SoundDuration":52829,"Delta":57492097},{"NoteNumber":69,"Velocity":82,"Duration":278345,"SoundDuration":278345,"Delta":57631833},{"NoteNumber":57,"Velocity":70,"Duration":278345,"SoundDuration":278345,"Delta":57631833},{"NoteNumber":37,"Velocity":47,"Duration":278345,"SoundDuration":278345,"Delta":57631833},{"NoteNumber":49,"Velocity":56,"Duration":278345,"SoundDuration":278345,"Delta":57631833},{"NoteNumber":70,"Velocity":63,"Duration":49550,"SoundDuration":49550,"Delta":57910178},{"NoteNumber":58,"Velocity":52,"Duration":49550,"SoundDuration":49550,"Delta":57910178},{"NoteNumber":68,"Velocity":52,"Duration":49550,"SoundDuration":49550,"Delta":57910178},{"NoteNumber":56,"Velocity":52,"Duration":49550,"SoundDuration":49550,"Delta":57910178},{"NoteNumber":65,"Velocity":52,"Duration":49550,"SoundDuration":49550,"Delta":57910178},{"NoteNumber":38,"Velocity":40,"Duration":267380,"SoundDuration":267380,"Delta":57910178},{"NoteNumber":50,"Velocity":47,"Duration":267380,"SoundDuration":267380,"Delta":57910178},{"NoteNumber":65,"Velocity":55,"Duration":50716,"SoundDuration":50716,"Delta":58042313},{"NoteNumber":70,"Velocity":66,"Duration":50716,"SoundDuration":50716,"Delta":58042313},{"NoteNumber":68,"Velocity":55,"Duration":50716,"SoundDuration":50716,"Delta":58042313},{"NoteNumber":56,"Velocity":55,"Duration":50716,"SoundDuration":50716,"Delta":58042313},{"NoteNumber":58,"Velocity":55,"Duration":50716,"SoundDuration":50716,"Delta":58042313},{"NoteNumber":56,"Velocity":60,"Duration":50362,"SoundDuration":50362,"Delta":58177558},{"NoteNumber":68,"Velocity":60,"Duration":50362,"SoundDuration":50362,"Delta":58177558},{"NoteNumber":58,"Velocity":60,"Duration":50362,"SoundDuration":50362,"Delta":58177558},{"NoteNumber":70,"Velocity":71,"Duration":50362,"SoundDuration":50362,"Delta":58177558},{"NoteNumber":65,"Velocity":60,"Duration":50362,"SoundDuration":50362,"Delta":58177558},{"NoteNumber":39,"Velocity":40,"Duration":50362,"SoundDuration":50362,"Delta":58177558},{"NoteNumber":51,"Velocity":47,"Duration":50362,"SoundDuration":50362,"Delta":58177558},{"NoteNumber":56,"Velocity":61,"Duration":52572,"SoundDuration":52572,"Delta":58311859},{"NoteNumber":65,"Velocity":61,"Duration":52572,"SoundDuration":52572,"Delta":58311859},{"NoteNumber":68,"Velocity":73,"Duration":52572,"SoundDuration":52572,"Delta":58311859},{"NoteNumber":70,"Velocity":73,"Duration":52572,"SoundDuration":52572,"Delta":58311859},{"NoteNumber":58,"Velocity":61,"Duration":52572,"SoundDuration":52572,"Delta":58311859},{"NoteNumber":40,"Velocity":39,"Duration":52572,"SoundDuration":52572,"Delta":58311859},{"NoteNumber":52,"Velocity":48,"Duration":52572,"SoundDuration":52572,"Delta":58311859},{"NoteNumber":56,"Velocity":68,"Duration":280386,"SoundDuration":280386,"Delta":58452052},{"NoteNumber":58,"Velocity":68,"Duration":280386,"SoundDuration":280386,"Delta":58452052},{"NoteNumber":62,"Velocity":68,"Duration":280386,"SoundDuration":280386,"Delta":58452052},{"NoteNumber":68,"Velocity":68,"Duration":280386,"SoundDuration":280386,"Delta":58452052},{"NoteNumber":70,"Velocity":81,"Duration":280386,"SoundDuration":280386,"Delta":58452052},{"NoteNumber":41,"Velocity":45,"Duration":280386,"SoundDuration":280386,"Delta":58452052},{"NoteNumber":53,"Velocity":53,"Duration":280386,"SoundDuration":280386,"Delta":58452052},{"NoteNumber":66,"Velocity":53,"Duration":50127,"SoundDuration":50127,"Delta":58732439},{"NoteNumber":63,"Velocity":53,"Duration":50127,"SoundDuration":50127,"Delta":58732439},{"NoteNumber":70,"Velocity":64,"Duration":50127,"SoundDuration":50127,"Delta":58732439},{"NoteNumber":58,"Velocity":53,"Duration":50127,"SoundDuration":50127,"Delta":58732439},{"NoteNumber":42,"Velocity":42,"Duration":268916,"SoundDuration":268916,"Delta":58732439},{"NoteNumber":54,"Velocity":50,"Duration":268916,"SoundDuration":268916,"Delta":58732439},{"NoteNumber":66,"Velocity":56,"Duration":50716,"SoundDuration":50716,"Delta":58866111},{"NoteNumber":58,"Velocity":56,"Duration":50716,"SoundDuration":50716,"Delta":58866111},{"NoteNumber":70,"Velocity":68,"Duration":50716,"SoundDuration":50716,"Delta":58866111},{"NoteNumber":63,"Velocity":56,"Duration":50716,"SoundDuration":50716,"Delta":58866111},{"NoteNumber":66,"Velocity":61,"Duration":50362,"SoundDuration":50362,"Delta":59001356},{"NoteNumber":70,"Velocity":73,"Duration":50362,"SoundDuration":50362,"Delta":59001356},{"NoteNumber":63,"Velocity":61,"Duration":50362,"SoundDuration":50362,"Delta":59001356},{"NoteNumber":44,"Velocity":42,"Duration":50362,"SoundDuration":50362,"Delta":59001356},{"NoteNumber":56,"Velocity":48,"Duration":50362,"SoundDuration":50362,"Delta":59001356},{"NoteNumber":66,"Velocity":64,"Duration":52064,"SoundDuration":52064,"Delta":59135657},{"NoteNumber":63,"Velocity":64,"Duration":52064,"SoundDuration":52064,"Delta":59135657},{"NoteNumber":70,"Velocity":75,"Duration":52064,"SoundDuration":52064,"Delta":59135657},{"NoteNumber":45,"Velocity":39,"Duration":52064,"SoundDuration":52064,"Delta":59135657},{"NoteNumber":57,"Velocity":50,"Duration":52064,"SoundDuration":52064,"Delta":59135657},{"NoteNumber":66,"Velocity":72,"Duration":286432,"SoundDuration":286432,"Delta":59274494},{"NoteNumber":70,"Velocity":84,"Duration":286432,"SoundDuration":286432,"Delta":59274494},{"NoteNumber":63,"Velocity":72,"Duration":286432,"SoundDuration":286432,"Delta":59274494},{"NoteNumber":46,"Velocity":48,"Duration":286432,"SoundDuration":286432,"Delta":59274494},{"NoteNumber":58,"Velocity":57,"Duration":286432,"SoundDuration":286432,"Delta":59274494},{"NoteNumber":56,"Velocity":75,"Duration":284157,"SoundDuration":284157,"Delta":59560927},{"NoteNumber":63,"Velocity":75,"Duration":284157,"SoundDuration":284157,"Delta":59560927},{"NoteNumber":68,"Velocity":90,"Duration":284157,"SoundDuration":284157,"Delta":59560927},{"NoteNumber":47,"Velocity":54,"Duration":284157,"SoundDuration":284157,"Delta":59560927},{"NoteNumber":59,"Velocity":66,"Duration":284157,"SoundDuration":284157,"Delta":59560927},{"NoteNumber":63,"Velocity":75,"Duration":276676,"SoundDuration":276676,"Delta":59845085},{"NoteNumber":68,"Velocity":75,"Duration":276676,"SoundDuration":276676,"Delta":59845085},{"NoteNumber":75,"Velocity":90,"Duration":276676,"SoundDuration":276676,"Delta":59845085},{"NoteNumber":35,"Velocity":49,"Duration":276676,"SoundDuration":276676,"Delta":59845085},{"NoteNumber":47,"Velocity":59,"Duration":276676,"SoundDuration":276676,"Delta":59845085},{"NoteNumber":77,"Velocity":85,"Duration":281385,"SoundDuration":281385,"Delta":60121761},{"NoteNumber":71,"Velocity":72,"Duration":281385,"SoundDuration":281385,"Delta":60121761},{"NoteNumber":65,"Velocity":72,"Duration":281385,"SoundDuration":281385,"Delta":60121761},{"NoteNumber":75,"Velocity":72,"Duration":281385,"SoundDuration":281385,"Delta":60121761},{"NoteNumber":32,"Velocity":49,"Duration":281385,"SoundDuration":281385,"Delta":60121761},{"NoteNumber":44,"Velocity":59,"Duration":281385,"SoundDuration":281385,"Delta":60121761},{"NoteNumber":70,"Velocity":72,"Duration":281386,"SoundDuration":281386,"Delta":60403147},{"NoteNumber":66,"Velocity":72,"Duration":281386,"SoundDuration":281386,"Delta":60403147},{"NoteNumber":75,"Velocity":72,"Duration":281386,"SoundDuration":281386,"Delta":60403147},{"NoteNumber":78,"Velocity":85,"Duration":281386,"SoundDuration":281386,"Delta":60403147},{"NoteNumber":51,"Velocity":49,"Duration":281386,"SoundDuration":281386,"Delta":60403147},{"NoteNumber":54,"Velocity":49,"Duration":281386,"SoundDuration":281386,"Delta":60403147},{"NoteNumber":58,"Velocity":49,"Duration":281386,"SoundDuration":281386,"Delta":60403147},{"NoteNumber":63,"Velocity":59,"Duration":281386,"SoundDuration":281386,"Delta":60403147},{"NoteNumber":87,"Velocity":87,"Duration":140692,"SoundDuration":140692,"Delta":60684533},{"NoteNumber":99,"Velocity":101,"Duration":140692,"SoundDuration":140692,"Delta":60684533},{"NoteNumber":30,"Velocity":55,"Duration":140692,"SoundDuration":140692,"Delta":60684533},{"NoteNumber":42,"Velocity":67,"Duration":140692,"SoundDuration":140692,"Delta":60684533},{"NoteNumber":83,"Velocity":86,"Duration":283848,"SoundDuration":283848,"Delta":60965919},{"NoteNumber":71,"Velocity":72,"Duration":283848,"SoundDuration":283848,"Delta":60965919},{"NoteNumber":75,"Velocity":72,"Duration":283848,"SoundDuration":283848,"Delta":60965919},{"NoteNumber":63,"Velocity":63,"Duration":283848,"SoundDuration":283848,"Delta":60965919},{"NoteNumber":59,"Velocity":52,"Duration":283848,"SoundDuration":283848,"Delta":60965919},{"NoteNumber":56,"Velocity":52,"Duration":283848,"SoundDuration":283848,"Delta":60965919},{"NoteNumber":51,"Velocity":52,"Duration":283848,"SoundDuration":283848,"Delta":60965919},{"NoteNumber":83,"Velocity":84,"Duration":140534,"SoundDuration":140534,"Delta":61249768},{"NoteNumber":95,"Velocity":99,"Duration":140534,"SoundDuration":140534,"Delta":61249768},{"NoteNumber":32,"Velocity":55,"Duration":140534,"SoundDuration":140534,"Delta":61249768},{"NoteNumber":44,"Velocity":67,"Duration":140534,"SoundDuration":140534,"Delta":61249768},{"NoteNumber":68,"Velocity":71,"Duration":284548,"SoundDuration":284548,"Delta":61530838},{"NoteNumber":71,"Velocity":71,"Duration":284548,"SoundDuration":284548,"Delta":61530838},{"NoteNumber":75,"Velocity":71,"Duration":284548,"SoundDuration":284548,"Delta":61530838},{"NoteNumber":80,"Velocity":85,"Duration":284548,"SoundDuration":284548,"Delta":61530838},{"NoteNumber":63,"Velocity":57,"Duration":284548,"SoundDuration":284548,"Delta":61530838},{"NoteNumber":59,"Velocity":48,"Duration":284548,"SoundDuration":284548,"Delta":61530838},{"NoteNumber":56,"Velocity":48,"Duration":284548,"SoundDuration":284548,"Delta":61530838},{"NoteNumber":53,"Velocity":48,"Duration":284548,"SoundDuration":284548,"Delta":61530838},{"NoteNumber":80,"Velocity":84,"Duration":140534,"SoundDuration":140534,"Delta":61815387},{"NoteNumber":92,"Velocity":99,"Duration":140534,"SoundDuration":140534,"Delta":61815387},{"NoteNumber":35,"Velocity":55,"Duration":140534,"SoundDuration":140534,"Delta":61815387},{"NoteNumber":47,"Velocity":66,"Duration":140534,"SoundDuration":140534,"Delta":61815387},{"NoteNumber":70,"Velocity":75,"Duration":289571,"SoundDuration":289571,"Delta":62096457},{"NoteNumber":66,"Velocity":75,"Duration":289571,"SoundDuration":289571,"Delta":62096457},{"NoteNumber":75,"Velocity":75,"Duration":289571,"SoundDuration":289571,"Delta":62096457},{"NoteNumber":78,"Velocity":89,"Duration":289571,"SoundDuration":289571,"Delta":62096457},{"NoteNumber":63,"Velocity":60,"Duration":289571,"SoundDuration":289571,"Delta":62096457},{"NoteNumber":58,"Velocity":51,"Duration":289571,"SoundDuration":289571,"Delta":62096457},{"NoteNumber":54,"Velocity":51,"Duration":289571,"SoundDuration":289571,"Delta":62096457},{"NoteNumber":90,"Velocity":99,"Duration":142274,"SoundDuration":142274,"Delta":62386028},{"NoteNumber":78,"Velocity":84,"Duration":142274,"SoundDuration":142274,"Delta":62386028},{"NoteNumber":34,"Velocity":55,"Duration":142274,"SoundDuration":142274,"Delta":62386028},{"NoteNumber":46,"Velocity":66,"Duration":142274,"SoundDuration":142274,"Delta":62386028},{"NoteNumber":65,"Velocity":72,"Duration":290303,"SoundDuration":290303,"Delta":62670577},{"NoteNumber":70,"Velocity":72,"Duration":290303,"SoundDuration":290303,"Delta":62670577},{"NoteNumber":77,"Velocity":86,"Duration":290303,"SoundDuration":290303,"Delta":62670577},{"NoteNumber":75,"Velocity":72,"Duration":290303,"SoundDuration":290303,"Delta":62670577},{"NoteNumber":63,"Velocity":60,"Duration":290303,"SoundDuration":290303,"Delta":62670577},{"NoteNumber":58,"Velocity":51,"Duration":290303,"SoundDuration":290303,"Delta":62670577},{"NoteNumber":53,"Velocity":51,"Duration":290303,"SoundDuration":290303,"Delta":62670577},{"NoteNumber":89,"Velocity":99,"Duration":143341,"SoundDuration":143341,"Delta":62960881},{"NoteNumber":77,"Velocity":84,"Duration":143341,"SoundDuration":143341,"Delta":62960881},{"NoteNumber":34,"Velocity":57,"Duration":143341,"SoundDuration":143341,"Delta":62960881},{"NoteNumber":46,"Velocity":69,"Duration":143341,"SoundDuration":143341,"Delta":62960881},{"NoteNumber":65,"Velocity":75,"Duration":291771,"SoundDuration":291771,"Delta":63247565},{"NoteNumber":70,"Velocity":75,"Duration":291771,"SoundDuration":291771,"Delta":63247565},{"NoteNumber":74,"Velocity":75,"Duration":291771,"SoundDuration":291771,"Delta":63247565},{"NoteNumber":77,"Velocity":89,"Duration":291771,"SoundDuration":291771,"Delta":63247565},{"NoteNumber":62,"Velocity":60,"Duration":291771,"SoundDuration":291771,"Delta":63247565},{"NoteNumber":58,"Velocity":51,"Duration":291771,"SoundDuration":291771,"Delta":63247565},{"NoteNumber":56,"Velocity":51,"Duration":291771,"SoundDuration":291771,"Delta":63247565},{"NoteNumber":53,"Velocity":51,"Duration":291771,"SoundDuration":291771,"Delta":63247565},{"NoteNumber":87,"Velocity":102,"Duration":271476,"SoundDuration":271476,"Delta":63539337},{"NoteNumber":75,"Velocity":85,"Duration":271476,"SoundDuration":271476,"Delta":63539337},{"NoteNumber":27,"Velocity":62,"Duration":271476,"SoundDuration":271476,"Delta":63539337},{"NoteNumber":39,"Velocity":74,"Duration":271476,"SoundDuration":271476,"Delta":63539337},{"NoteNumber":63,"Velocity":78,"Duration":860414,"SoundDuration":860414,"Delta":63828912},{"NoteNumber":75,"Velocity":94,"Duration":860414,"SoundDuration":860414,"Delta":63828912},{"NoteNumber":39,"Velocity":52,"Duration":860414,"SoundDuration":860414,"Delta":63828912},{"NoteNumber":51,"Velocity":63,"Duration":860414,"SoundDuration":860414,"Delta":63828912},{"NoteNumber":58,"Velocity":69,"Duration":284548,"SoundDuration":284548,"Delta":64689327},{"NoteNumber":70,"Velocity":81,"Duration":284548,"SoundDuration":284548,"Delta":64689327},{"NoteNumber":34,"Velocity":57,"Duration":284548,"SoundDuration":284548,"Delta":64689327},{"NoteNumber":46,"Velocity":69,"Duration":284548,"SoundDuration":284548,"Delta":64689327},{"NoteNumber":59,"Velocity":64,"Duration":138837,"SoundDuration":138837,"Delta":64973876},{"NoteNumber":71,"Velocity":75,"Duration":138837,"SoundDuration":138837,"Delta":64973876},{"NoteNumber":35,"Velocity":52,"Duration":138837,"SoundDuration":138837,"Delta":64973876},{"NoteNumber":47,"Velocity":63,"Duration":138837,"SoundDuration":138837,"Delta":64973876},{"NoteNumber":58,"Velocity":59,"Duration":138837,"SoundDuration":138837,"Delta":65112713},{"NoteNumber":70,"Velocity":71,"Duration":138837,"SoundDuration":138837,"Delta":65112713},{"NoteNumber":34,"Velocity":48,"Duration":138837,"SoundDuration":138837,"Delta":65112713},{"NoteNumber":46,"Velocity":57,"Duration":138837,"SoundDuration":138837,"Delta":65112713},{"NoteNumber":53,"Velocity":63,"Duration":142626,"SoundDuration":142626,"Delta":65251551},{"NoteNumber":65,"Velocity":73,"Duration":142626,"SoundDuration":142626,"Delta":65251551},{"NoteNumber":29,"Velocity":53,"Duration":142626,"SoundDuration":142626,"Delta":65251551},{"NoteNumber":41,"Velocity":64,"Duration":142626,"SoundDuration":142626,"Delta":65251551},{"NoteNumber":54,"Velocity":54,"Duration":142625,"SoundDuration":142625,"Delta":65394177},{"NoteNumber":66,"Velocity":65,"Duration":142625,"SoundDuration":142625,"Delta":65394177},{"NoteNumber":30,"Velocity":47,"Duration":142625,"SoundDuration":142625,"Delta":65394177},{"NoteNumber":42,"Velocity":55,"Duration":142625,"SoundDuration":142625,"Delta":65394177},{"NoteNumber":51,"Velocity":58,"Duration":1141007,"SoundDuration":1141007,"Delta":65536803},{"NoteNumber":63,"Velocity":70,"Duration":1141007,"SoundDuration":1141007,"Delta":65536803},{"NoteNumber":27,"Velocity":52,"Duration":1141007,"SoundDuration":1141007,"Delta":65536803},{"NoteNumber":39,"Velocity":63,"Duration":1141007,"SoundDuration":1141007,"Delta":65536803},{"NoteNumber":30,"Velocity":27,"Duration":528867,"SoundDuration":528867,"Delta":67248315},{"NoteNumber":58,"Velocity":30,"Duration":504978,"SoundDuration":504978,"Delta":67777182},{"NoteNumber":63,"Velocity":22,"Duration":504978,"SoundDuration":504978,"Delta":67777182},{"NoteNumber":49,"Velocity":17,"Duration":504978,"SoundDuration":504978,"Delta":67777182},{"NoteNumber":54,"Velocity":17,"Duration":504978,"SoundDuration":504978,"Delta":67777182},{"NoteNumber":58,"Velocity":32,"Duration":1021364,"SoundDuration":1021364,"Delta":68282161},{"NoteNumber":49,"Velocity":16,"Duration":510682,"SoundDuration":510682,"Delta":68282161},{"NoteNumber":54,"Velocity":16,"Duration":510682,"SoundDuration":510682,"Delta":68282161},{"NoteNumber":61,"Velocity":20,"Duration":510682,"SoundDuration":510682,"Delta":68282161},{"NoteNumber":42,"Velocity":25,"Duration":510682,"SoundDuration":510682,"Delta":68792843},{"NoteNumber":58,"Velocity":28,"Duration":504413,"SoundDuration":504413,"Delta":69303525},{"NoteNumber":63,"Velocity":24,"Duration":504413,"SoundDuration":504413,"Delta":69303525},{"NoteNumber":54,"Velocity":20,"Duration":504413,"SoundDuration":504413,"Delta":69303525},{"NoteNumber":49,"Velocity":20,"Duration":504413,"SoundDuration":504413,"Delta":69303525},{"NoteNumber":58,"Velocity":32,"Duration":1021364,"SoundDuration":1021364,"Delta":69807939},{"NoteNumber":49,"Velocity":15,"Duration":510682,"SoundDuration":510682,"Delta":69807939},{"NoteNumber":54,"Velocity":15,"Duration":510682,"SoundDuration":510682,"Delta":69807939},{"NoteNumber":61,"Velocity":18,"Duration":510682,"SoundDuration":510682,"Delta":69807939},{"NoteNumber":42,"Velocity":27,"Duration":510682,"SoundDuration":510682,"Delta":70318621},{"NoteNumber":58,"Velocity":27,"Duration":502807,"SoundDuration":502807,"Delta":70829303},{"NoteNumber":63,"Velocity":24,"Duration":502807,"SoundDuration":502807,"Delta":70829303},{"NoteNumber":54,"Velocity":20,"Duration":502807,"SoundDuration":502807,"Delta":70829303},{"NoteNumber":49,"Velocity":20,"Duration":502807,"SoundDuration":502807,"Delta":70829303},{"NoteNumber":58,"Velocity":32,"Duration":1021364,"SoundDuration":1021364,"Delta":71332110},{"NoteNumber":49,"Velocity":15,"Duration":510682,"SoundDuration":510682,"Delta":71332110},{"NoteNumber":54,"Velocity":15,"Duration":510682,"SoundDuration":510682,"Delta":71332110},{"NoteNumber":61,"Velocity":18,"Duration":510682,"SoundDuration":510682,"Delta":71332110},{"NoteNumber":42,"Velocity":27,"Duration":510682,"SoundDuration":510682,"Delta":71842792},{"NoteNumber":58,"Velocity":27,"Duration":502807,"SoundDuration":502807,"Delta":72353474},{"NoteNumber":63,"Velocity":27,"Duration":502807,"SoundDuration":502807,"Delta":72353474},{"NoteNumber":49,"Velocity":22,"Duration":502807,"SoundDuration":502807,"Delta":72353474},{"NoteNumber":54,"Velocity":22,"Duration":502807,"SoundDuration":502807,"Delta":72353474},{"NoteNumber":58,"Velocity":33,"Duration":520426,"SoundDuration":520426,"Delta":72856281},{"NoteNumber":49,"Velocity":17,"Duration":520426,"SoundDuration":520426,"Delta":72856281},{"NoteNumber":54,"Velocity":17,"Duration":520426,"SoundDuration":520426,"Delta":72856281},{"NoteNumber":61,"Velocity":21,"Duration":520426,"SoundDuration":520426,"Delta":72856281},{"NoteNumber":70,"Velocity":57,"Duration":521784,"SoundDuration":521784,"Delta":73376708},{"NoteNumber":42,"Velocity":34,"Duration":521784,"SoundDuration":521784,"Delta":73376708},{"NoteNumber":65,"Velocity":49,"Duration":504413,"SoundDuration":504413,"Delta":73898493},{"NoteNumber":58,"Velocity":25,"Duration":504413,"SoundDuration":504413,"Delta":73898493},{"NoteNumber":63,"Velocity":24,"Duration":504413,"SoundDuration":504413,"Delta":73898493},{"NoteNumber":54,"Velocity":20,"Duration":504413,"SoundDuration":504413,"Delta":73898493},{"NoteNumber":49,"Velocity":20,"Duration":504413,"SoundDuration":504413,"Delta":73898493},{"NoteNumber":66,"Velocity":52,"Duration":517151,"SoundDuration":517151,"Delta":74402907},{"NoteNumber":58,"Velocity":25,"Duration":517151,"SoundDuration":517151,"Delta":74402907},{"NoteNumber":49,"Velocity":16,"Duration":517151,"SoundDuration":517151,"Delta":74402907},{"NoteNumber":54,"Velocity":16,"Duration":517151,"SoundDuration":517151,"Delta":74402907},{"NoteNumber":61,"Velocity":21,"Duration":517151,"SoundDuration":517151,"Delta":74402907},{"NoteNumber":75,"Velocity":57,"Duration":1011262,"SoundDuration":1011262,"Delta":74920059},{"NoteNumber":42,"Velocity":34,"Duration":503777,"SoundDuration":503777,"Delta":74920059},{"NoteNumber":58,"Velocity":19,"Duration":507485,"SoundDuration":507485,"Delta":75423837},{"NoteNumber":66,"Velocity":24,"Duration":507485,"SoundDuration":507485,"Delta":75423837},{"NoteNumber":63,"Velocity":21,"Duration":507485,"SoundDuration":507485,"Delta":75423837},{"NoteNumber":49,"Velocity":17,"Duration":507485,"SoundDuration":507485,"Delta":75423837},{"NoteNumber":54,"Velocity":17,"Duration":507485,"SoundDuration":507485,"Delta":75423837},{"NoteNumber":73,"Velocity":52,"Duration":512294,"SoundDuration":512294,"Delta":75931322},{"NoteNumber":58,"Velocity":19,"Duration":512294,"SoundDuration":512294,"Delta":75931322},{"NoteNumber":66,"Velocity":24,"Duration":512294,"SoundDuration":512294,"Delta":75931322},{"NoteNumber":49,"Velocity":15,"Duration":512294,"SoundDuration":512294,"Delta":75931322},{"NoteNumber":54,"Velocity":15,"Duration":512294,"SoundDuration":512294,"Delta":75931322},{"NoteNumber":61,"Velocity":18,"Duration":512294,"SoundDuration":512294,"Delta":75931322},{"NoteNumber":73,"Velocity":52,"Duration":509122,"SoundDuration":509122,"Delta":76443617},{"NoteNumber":37,"Velocity":33,"Duration":509122,"SoundDuration":509122,"Delta":76443617},{"NoteNumber":66,"Velocity":44,"Duration":514888,"SoundDuration":514888,"Delta":76952739},{"NoteNumber":59,"Velocity":22,"Duration":514888,"SoundDuration":514888,"Delta":76952739},{"NoteNumber":63,"Velocity":24,"Duration":514888,"SoundDuration":514888,"Delta":76952739},{"NoteNumber":54,"Velocity":20,"Duration":514888,"SoundDuration":514888,"Delta":76952739},{"NoteNumber":49,"Velocity":20,"Duration":514888,"SoundDuration":514888,"Delta":76952739},{"NoteNumber":68,"Velocity":45,"Duration":524108,"SoundDuration":524108,"Delta":77467628},{"NoteNumber":65,"Velocity":25,"Duration":524108,"SoundDuration":524108,"Delta":77467628},{"NoteNumber":59,"Velocity":21,"Duration":524108,"SoundDuration":524108,"Delta":77467628},{"NoteNumber":49,"Velocity":16,"Duration":524108,"SoundDuration":524108,"Delta":77467628},{"NoteNumber":54,"Velocity":16,"Duration":524108,"SoundDuration":524108,"Delta":77467628},{"NoteNumber":61,"Velocity":21,"Duration":524108,"SoundDuration":524108,"Delta":77467628},{"NoteNumber":70,"Velocity":52,"Duration":3593226,"SoundDuration":3593226,"Delta":77991737},{"NoteNumber":42,"Velocity":34,"Duration":524109,"SoundDuration":524109,"Delta":77991737},{"NoteNumber":58,"Velocity":22,"Duration":509122,"SoundDuration":509122,"Delta":78515846},{"NoteNumber":66,"Velocity":26,"Duration":509122,"SoundDuration":509122,"Delta":78515846},{"NoteNumber":63,"Velocity":24,"Duration":509122,"SoundDuration":509122,"Delta":78515846},{"NoteNumber":49,"Velocity":20,"Duration":509122,"SoundDuration":509122,"Delta":78515846},{"NoteNumber":54,"Velocity":20,"Duration":509122,"SoundDuration":509122,"Delta":78515846},{"NoteNumber":58,"Velocity":22,"Duration":515552,"SoundDuration":515552,"Delta":79024968},{"NoteNumber":66,"Velocity":26,"Duration":515552,"SoundDuration":515552,"Delta":79024968},{"NoteNumber":49,"Velocity":16,"Duration":515552,"SoundDuration":515552,"Delta":79024968},{"NoteNumber":54,"Velocity":16,"Duration":515552,"SoundDuration":515552,"Delta":79024968},{"NoteNumber":61,"Velocity":21,"Duration":515552,"SoundDuration":515552,"Delta":79024968},{"NoteNumber":58,"Velocity":21,"Duration":515552,"SoundDuration":515552,"Delta":79540521},{"NoteNumber":66,"Velocity":25,"Duration":515552,"SoundDuration":515552,"Delta":79540521},{"NoteNumber":49,"Velocity":20,"Duration":515552,"SoundDuration":515552,"Delta":79540521},{"NoteNumber":54,"Velocity":18,"Duration":515552,"SoundDuration":515552,"Delta":79540521},{"NoteNumber":61,"Velocity":22,"Duration":515552,"SoundDuration":515552,"Delta":79540521},{"NoteNumber":61,"Velocity":20,"Duration":507485,"SoundDuration":507485,"Delta":80056074},{"NoteNumber":66,"Velocity":24,"Duration":507485,"SoundDuration":507485,"Delta":80056074},{"NoteNumber":49,"Velocity":17,"Duration":507485,"SoundDuration":507485,"Delta":80056074},{"NoteNumber":54,"Velocity":17,"Duration":507485,"SoundDuration":507485,"Delta":80056074},{"NoteNumber":59,"Velocity":22,"Duration":507485,"SoundDuration":507485,"Delta":80056074},{"NoteNumber":61,"Velocity":20,"Duration":513919,"SoundDuration":513919,"Delta":80563559},{"NoteNumber":66,"Velocity":24,"Duration":513919,"SoundDuration":513919,"Delta":80563559},{"NoteNumber":49,"Velocity":18,"Duration":513919,"SoundDuration":513919,"Delta":80563559},{"NoteNumber":54,"Velocity":18,"Duration":513919,"SoundDuration":513919,"Delta":80563559},{"NoteNumber":58,"Velocity":23,"Duration":513919,"SoundDuration":513919,"Delta":80563559},{"NoteNumber":61,"Velocity":21,"Duration":507485,"SoundDuration":507485,"Delta":81077478},{"NoteNumber":66,"Velocity":25,"Duration":507485,"SoundDuration":507485,"Delta":81077478},{"NoteNumber":49,"Velocity":18,"Duration":507485,"SoundDuration":507485,"Delta":81077478},{"NoteNumber":54,"Velocity":18,"Duration":507485,"SoundDuration":507485,"Delta":81077478},{"NoteNumber":58,"Velocity":23,"Duration":507485,"SoundDuration":507485,"Delta":81077478},{"NoteNumber":56,"Velocity":20,"Duration":507485,"SoundDuration":507485,"Delta":81584963},{"NoteNumber":61,"Velocity":24,"Duration":507485,"SoundDuration":507485,"Delta":81584963},{"NoteNumber":47,"Velocity":18,"Duration":507485,"SoundDuration":507485,"Delta":81584963},{"NoteNumber":49,"Velocity":23,"Duration":507485,"SoundDuration":507485,"Delta":81584963},{"NoteNumber":54,"Velocity":20,"Duration":513919,"SoundDuration":513919,"Delta":82092448},{"NoteNumber":61,"Velocity":24,"Duration":513919,"SoundDuration":513919,"Delta":82092448},{"NoteNumber":46,"Velocity":18,"Duration":513919,"SoundDuration":513919,"Delta":82092448},{"NoteNumber":49,"Velocity":23,"Duration":513919,"SoundDuration":513919,"Delta":82092448},{"NoteNumber":54,"Velocity":21,"Duration":518761,"SoundDuration":518761,"Delta":82606367},{"NoteNumber":61,"Velocity":25,"Duration":518761,"SoundDuration":518761,"Delta":82606367},{"NoteNumber":46,"Velocity":18,"Duration":518761,"SoundDuration":518761,"Delta":82606367},{"NoteNumber":49,"Velocity":23,"Duration":518761,"SoundDuration":518761,"Delta":82606367},{"NoteNumber":56,"Velocity":20,"Duration":512294,"SoundDuration":512294,"Delta":83125129},{"NoteNumber":61,"Velocity":24,"Duration":512294,"SoundDuration":512294,"Delta":83125129},{"NoteNumber":47,"Velocity":18,"Duration":512294,"SoundDuration":512294,"Delta":83125129},{"NoteNumber":49,"Velocity":23,"Duration":512294,"SoundDuration":512294,"Delta":83125129},{"NoteNumber":54,"Velocity":20,"Duration":512295,"SoundDuration":512295,"Delta":83637424},{"NoteNumber":61,"Velocity":24,"Duration":512295,"SoundDuration":512295,"Delta":83637424},{"NoteNumber":46,"Velocity":18,"Duration":512295,"SoundDuration":512295,"Delta":83637424},{"NoteNumber":49,"Velocity":23,"Duration":512295,"SoundDuration":512295,"Delta":83637424},{"NoteNumber":54,"Velocity":21,"Duration":512294,"SoundDuration":512294,"Delta":84149719},{"NoteNumber":61,"Velocity":25,"Duration":512294,"SoundDuration":512294,"Delta":84149719},{"NoteNumber":46,"Velocity":17,"Duration":512294,"SoundDuration":512294,"Delta":84149719},{"NoteNumber":49,"Velocity":22,"Duration":512294,"SoundDuration":512294,"Delta":84149719},{"NoteNumber":56,"Velocity":20,"Duration":518761,"SoundDuration":518761,"Delta":84662014},{"NoteNumber":61,"Velocity":24,"Duration":518761,"SoundDuration":518761,"Delta":84662014},{"NoteNumber":47,"Velocity":17,"Duration":518761,"SoundDuration":518761,"Delta":84662014},{"NoteNumber":49,"Velocity":22,"Duration":518761,"SoundDuration":518761,"Delta":84662014},{"NoteNumber":54,"Velocity":21,"Duration":528773,"SoundDuration":528773,"Delta":85180776},{"NoteNumber":61,"Velocity":25,"Duration":528773,"SoundDuration":528773,"Delta":85180776},{"NoteNumber":46,"Velocity":16,"Duration":528773,"SoundDuration":528773,"Delta":85180776},{"NoteNumber":49,"Velocity":20,"Duration":528773,"SoundDuration":528773,"Delta":85180776},{"NoteNumber":73,"Velocity":53,"Duration":515552,"SoundDuration":515552,"Delta":85709550},{"NoteNumber":46,"Velocity":34,"Duration":515552,"SoundDuration":515552,"Delta":85709550},{"NoteNumber":69,"Velocity":49,"Duration":504413,"SoundDuration":504413,"Delta":86225103},{"NoteNumber":61,"Velocity":27,"Duration":504413,"SoundDuration":504413,"Delta":86225103},{"NoteNumber":66,"Velocity":24,"Duration":504413,"SoundDuration":504413,"Delta":86225103},{"NoteNumber":58,"Velocity":20,"Duration":504413,"SoundDuration":504413,"Delta":86225103},{"NoteNumber":53,"Velocity":20,"Duration":504413,"SoundDuration":504413,"Delta":86225103},{"NoteNumber":70,"Velocity":54,"Duration":517151,"SoundDuration":517151,"Delta":86729517},{"NoteNumber":61,"Velocity":27,"Duration":517151,"SoundDuration":517151,"Delta":86729517},{"NoteNumber":53,"Velocity":16,"Duration":517151,"SoundDuration":517151,"Delta":86729517},{"NoteNumber":58,"Velocity":16,"Duration":517151,"SoundDuration":517151,"Delta":86729517},{"NoteNumber":65,"Velocity":21,"Duration":517151,"SoundDuration":517151,"Delta":86729517},{"NoteNumber":78,"Velocity":58,"Duration":1016406,"SoundDuration":1016406,"Delta":87246669},{"NoteNumber":46,"Velocity":34,"Duration":508921,"SoundDuration":508921,"Delta":87246669},{"NoteNumber":61,"Velocity":22,"Duration":507485,"SoundDuration":507485,"Delta":87755590},{"NoteNumber":70,"Velocity":26,"Duration":507485,"SoundDuration":507485,"Delta":87755590},{"NoteNumber":66,"Velocity":22,"Duration":507485,"SoundDuration":507485,"Delta":87755590},{"NoteNumber":53,"Velocity":17,"Duration":507485,"SoundDuration":507485,"Delta":87755590},{"NoteNumber":58,"Velocity":17,"Duration":507485,"SoundDuration":507485,"Delta":87755590},{"NoteNumber":77,"Velocity":52,"Duration":512294,"SoundDuration":512294,"Delta":88263075},{"NoteNumber":61,"Velocity":20,"Duration":512294,"SoundDuration":512294,"Delta":88263075},{"NoteNumber":70,"Velocity":24,"Duration":512294,"SoundDuration":512294,"Delta":88263075},{"NoteNumber":53,"Velocity":14,"Duration":512294,"SoundDuration":512294,"Delta":88263075},{"NoteNumber":58,"Velocity":14,"Duration":512294,"SoundDuration":512294,"Delta":88263075},{"NoteNumber":65,"Velocity":17,"Duration":512294,"SoundDuration":512294,"Delta":88263075},{"NoteNumber":77,"Velocity":52,"Duration":509122,"SoundDuration":509122,"Delta":88775370},{"NoteNumber":41,"Velocity":33,"Duration":509122,"SoundDuration":509122,"Delta":88775370},{"NoteNumber":70,"Velocity":52,"Duration":509121,"SoundDuration":509121,"Delta":89284492},{"NoteNumber":63,"Velocity":22,"Duration":509121,"SoundDuration":509121,"Delta":89284492},{"NoteNumber":66,"Velocity":24,"Duration":509121,"SoundDuration":509121,"Delta":89284492},{"NoteNumber":60,"Velocity":13,"Duration":509121,"SoundDuration":509121,"Delta":89284492},{"NoteNumber":53,"Velocity":13,"Duration":509121,"SoundDuration":509121,"Delta":89284492},{"NoteNumber":72,"Velocity":53,"Duration":515552,"SoundDuration":515552,"Delta":89793614},{"NoteNumber":69,"Velocity":26,"Duration":515552,"SoundDuration":515552,"Delta":89793614},{"NoteNumber":63,"Velocity":22,"Duration":515552,"SoundDuration":515552,"Delta":89793614},{"NoteNumber":53,"Velocity":16,"Duration":515552,"SoundDuration":515552,"Delta":89793614},{"NoteNumber":60,"Velocity":16,"Duration":515552,"SoundDuration":515552,"Delta":89793614},{"NoteNumber":65,"Velocity":20,"Duration":515552,"SoundDuration":515552,"Delta":89793614},{"NoteNumber":75,"Velocity":57,"Duration":515552,"SoundDuration":515552,"Delta":90309167},{"NoteNumber":46,"Velocity":34,"Duration":515552,"SoundDuration":515552,"Delta":90309167},{"NoteNumber":73,"Velocity":57,"Duration":3063321,"SoundDuration":3063321,"Delta":90824720},{"NoteNumber":61,"Velocity":21,"Duration":509122,"SoundDuration":509122,"Delta":90824720},{"NoteNumber":70,"Velocity":25,"Duration":509122,"SoundDuration":509122,"Delta":90824720},{"NoteNumber":66,"Velocity":24,"Duration":509122,"SoundDuration":509122,"Delta":90824720},{"NoteNumber":53,"Velocity":20,"Duration":509122,"SoundDuration":509122,"Delta":90824720},{"NoteNumber":58,"Velocity":20,"Duration":509122,"SoundDuration":509122,"Delta":90824720},{"NoteNumber":61,"Velocity":21,"Duration":510420,"SoundDuration":510420,"Delta":91333842},{"NoteNumber":70,"Velocity":25,"Duration":510420,"SoundDuration":510420,"Delta":91333842},{"NoteNumber":53,"Velocity":17,"Duration":510420,"SoundDuration":510420,"Delta":91333842},{"NoteNumber":58,"Velocity":17,"Duration":510420,"SoundDuration":510420,"Delta":91333842},{"NoteNumber":65,"Velocity":22,"Duration":510420,"SoundDuration":510420,"Delta":91333842},{"NoteNumber":61,"Velocity":23,"Duration":514888,"SoundDuration":514888,"Delta":91844263},{"NoteNumber":70,"Velocity":27,"Duration":514888,"SoundDuration":514888,"Delta":91844263},{"NoteNumber":53,"Velocity":14,"Duration":514888,"SoundDuration":514888,"Delta":91844263},{"NoteNumber":58,"Velocity":17,"Duration":514888,"SoundDuration":514888,"Delta":91844263},{"NoteNumber":65,"Velocity":23,"Duration":514888,"SoundDuration":514888,"Delta":91844263},{"NoteNumber":65,"Velocity":24,"Duration":507485,"SoundDuration":507485,"Delta":92359152},{"NoteNumber":70,"Velocity":28,"Duration":507485,"SoundDuration":507485,"Delta":92359152},{"NoteNumber":53,"Velocity":20,"Duration":507485,"SoundDuration":507485,"Delta":92359152},{"NoteNumber":58,"Velocity":20,"Duration":507485,"SoundDuration":507485,"Delta":92359152},{"NoteNumber":63,"Velocity":24,"Duration":507485,"SoundDuration":507485,"Delta":92359152},{"NoteNumber":65,"Velocity":23,"Duration":513919,"SoundDuration":513919,"Delta":92866637},{"NoteNumber":70,"Velocity":27,"Duration":513919,"SoundDuration":513919,"Delta":92866637},{"NoteNumber":53,"Velocity":20,"Duration":513919,"SoundDuration":513919,"Delta":92866637},{"NoteNumber":58,"Velocity":20,"Duration":513919,"SoundDuration":513919,"Delta":92866637},{"NoteNumber":61,"Velocity":24,"Duration":513919,"SoundDuration":513919,"Delta":92866637},{"NoteNumber":65,"Velocity":22,"Duration":507485,"SoundDuration":507485,"Delta":93380556},{"NoteNumber":70,"Velocity":27,"Duration":507485,"SoundDuration":507485,"Delta":93380556},{"NoteNumber":53,"Velocity":16,"Duration":507485,"SoundDuration":507485,"Delta":93380556},{"NoteNumber":58,"Velocity":16,"Duration":507485,"SoundDuration":507485,"Delta":93380556},{"NoteNumber":61,"Velocity":25,"Duration":507485,"SoundDuration":507485,"Delta":93380556},{"NoteNumber":60,"Velocity":22,"Duration":507485,"SoundDuration":507485,"Delta":93888041},{"NoteNumber":65,"Velocity":26,"Duration":507485,"SoundDuration":507485,"Delta":93888041},{"NoteNumber":51,"Velocity":20,"Duration":507485,"SoundDuration":507485,"Delta":93888041},{"NoteNumber":53,"Velocity":24,"Duration":507485,"SoundDuration":507485,"Delta":93888041},{"NoteNumber":58,"Velocity":22,"Duration":513919,"SoundDuration":513919,"Delta":94395526},{"NoteNumber":65,"Velocity":26,"Duration":513919,"SoundDuration":513919,"Delta":94395526},{"NoteNumber":49,"Velocity":20,"Duration":513919,"SoundDuration":513919,"Delta":94395526},{"NoteNumber":53,"Velocity":24,"Duration":513919,"SoundDuration":513919,"Delta":94395526},{"NoteNumber":58,"Velocity":22,"Duration":518761,"SoundDuration":518761,"Delta":94909445},{"NoteNumber":65,"Velocity":26,"Duration":518761,"SoundDuration":518761,"Delta":94909445},{"NoteNumber":49,"Velocity":20,"Duration":518761,"SoundDuration":518761,"Delta":94909445},{"NoteNumber":53,"Velocity":24,"Duration":518761,"SoundDuration":518761,"Delta":94909445},{"NoteNumber":60,"Velocity":22,"Duration":512294,"SoundDuration":512294,"Delta":95428207},{"NoteNumber":65,"Velocity":26,"Duration":512294,"SoundDuration":512294,"Delta":95428207},{"NoteNumber":51,"Velocity":20,"Duration":512294,"SoundDuration":512294,"Delta":95428207},{"NoteNumber":53,"Velocity":24,"Duration":512294,"SoundDuration":512294,"Delta":95428207},{"NoteNumber":58,"Velocity":22,"Duration":512295,"SoundDuration":512295,"Delta":95940502},{"NoteNumber":65,"Velocity":26,"Duration":512295,"SoundDuration":512295,"Delta":95940502},{"NoteNumber":49,"Velocity":20,"Duration":512295,"SoundDuration":512295,"Delta":95940502},{"NoteNumber":53,"Velocity":24,"Duration":512295,"SoundDuration":512295,"Delta":95940502},{"NoteNumber":58,"Velocity":22,"Duration":512294,"SoundDuration":512294,"Delta":96452797},{"NoteNumber":65,"Velocity":26,"Duration":512294,"SoundDuration":512294,"Delta":96452797},{"NoteNumber":49,"Velocity":20,"Duration":512294,"SoundDuration":512294,"Delta":96452797},{"NoteNumber":53,"Velocity":24,"Duration":512294,"SoundDuration":512294,"Delta":96452797},{"NoteNumber":60,"Velocity":22,"Duration":512295,"SoundDuration":512295,"Delta":96965092},{"NoteNumber":65,"Velocity":26,"Duration":512295,"SoundDuration":512295,"Delta":96965092},{"NoteNumber":51,"Velocity":24,"Duration":512295,"SoundDuration":512295,"Delta":96965092},{"NoteNumber":53,"Velocity":24,"Duration":512295,"SoundDuration":512295,"Delta":96965092},{"NoteNumber":58,"Velocity":22,"Duration":512294,"SoundDuration":512294,"Delta":97477387},{"NoteNumber":65,"Velocity":26,"Duration":512294,"SoundDuration":512294,"Delta":97477387},{"NoteNumber":49,"Velocity":20,"Duration":512294,"SoundDuration":512294,"Delta":97477387},{"NoteNumber":53,"Velocity":24,"Duration":512294,"SoundDuration":512294,"Delta":97477387},{"NoteNumber":70,"Velocity":60,"Duration":515552,"SoundDuration":515552,"Delta":97989682},{"NoteNumber":42,"Velocity":36,"Duration":515552,"SoundDuration":515552,"Delta":97989682},{"NoteNumber":65,"Velocity":53,"Duration":504413,"SoundDuration":504413,"Delta":98505235},{"NoteNumber":58,"Velocity":27,"Duration":504413,"SoundDuration":504413,"Delta":98505235},{"NoteNumber":63,"Velocity":25,"Duration":504413,"SoundDuration":504413,"Delta":98505235},{"NoteNumber":54,"Velocity":21,"Duration":504413,"SoundDuration":504413,"Delta":98505235},{"NoteNumber":49,"Velocity":21,"Duration":504413,"SoundDuration":504413,"Delta":98505235},{"NoteNumber":66,"Velocity":57,"Duration":517151,"SoundDuration":517151,"Delta":99009649},{"NoteNumber":58,"Velocity":26,"Duration":517151,"SoundDuration":517151,"Delta":99009649},{"NoteNumber":49,"Velocity":16,"Duration":517151,"SoundDuration":517151,"Delta":99009649},{"NoteNumber":54,"Velocity":16,"Duration":517151,"SoundDuration":517151,"Delta":99009649},{"NoteNumber":61,"Velocity":21,"Duration":517151,"SoundDuration":517151,"Delta":99009649},{"NoteNumber":75,"Velocity":59,"Duration":1015658,"SoundDuration":1015658,"Delta":99526801},{"NoteNumber":42,"Velocity":34,"Duration":508172,"SoundDuration":508172,"Delta":99526801},{"NoteNumber":58,"Velocity":22,"Duration":507485,"SoundDuration":507485,"Delta":100034974},{"NoteNumber":66,"Velocity":27,"Duration":507485,"SoundDuration":507485,"Delta":100034974},{"NoteNumber":63,"Velocity":21,"Duration":507485,"SoundDuration":507485,"Delta":100034974},{"NoteNumber":49,"Velocity":17,"Duration":507485,"SoundDuration":507485,"Delta":100034974},{"NoteNumber":54,"Velocity":17,"Duration":507485,"SoundDuration":507485,"Delta":100034974},{"NoteNumber":73,"Velocity":57,"Duration":512294,"SoundDuration":512294,"Delta":100542459},{"NoteNumber":58,"Velocity":22,"Duration":512294,"SoundDuration":512294,"Delta":100542459},{"NoteNumber":66,"Velocity":26,"Duration":512294,"SoundDuration":512294,"Delta":100542459},{"NoteNumber":49,"Velocity":15,"Duration":512294,"SoundDuration":512294,"Delta":100542459},{"NoteNumber":54,"Velocity":15,"Duration":512294,"SoundDuration":512294,"Delta":100542459},{"NoteNumber":61,"Velocity":18,"Duration":512294,"SoundDuration":512294,"Delta":100542459},{"NoteNumber":73,"Velocity":57,"Duration":509122,"SoundDuration":509122,"Delta":101054754},{"NoteNumber":37,"Velocity":34,"Duration":509122,"SoundDuration":509122,"Delta":101054754},{"NoteNumber":66,"Velocity":53,"Duration":514888,"SoundDuration":514888,"Delta":101563876},{"NoteNumber":59,"Velocity":22,"Duration":514888,"SoundDuration":514888,"Delta":101563876},{"NoteNumber":63,"Velocity":26,"Duration":514888,"SoundDuration":514888,"Delta":101563876},{"NoteNumber":54,"Velocity":22,"Duration":514888,"SoundDuration":514888,"Delta":101563876},{"NoteNumber":49,"Velocity":22,"Duration":514888,"SoundDuration":514888,"Delta":101563876},{"NoteNumber":68,"Velocity":52,"Duration":521784,"SoundDuration":521784,"Delta":102078765},{"NoteNumber":65,"Velocity":27,"Duration":521784,"SoundDuration":521784,"Delta":102078765},{"NoteNumber":59,"Velocity":22,"Duration":521784,"SoundDuration":521784,"Delta":102078765},{"NoteNumber":49,"Velocity":18,"Duration":521784,"SoundDuration":521784,"Delta":102078765},{"NoteNumber":54,"Velocity":18,"Duration":521784,"SoundDuration":521784,"Delta":102078765},{"NoteNumber":61,"Velocity":23,"Duration":521784,"SoundDuration":521784,"Delta":102078765},{"NoteNumber":70,"Velocity":57,"Duration":3590902,"SoundDuration":3590902,"Delta":102600550},{"NoteNumber":42,"Velocity":34,"Duration":521785,"SoundDuration":521785,"Delta":102600550},{"NoteNumber":58,"Velocity":24,"Duration":509122,"SoundDuration":509122,"Delta":103122335},{"NoteNumber":66,"Velocity":28,"Duration":509122,"SoundDuration":509122,"Delta":103122335},{"NoteNumber":63,"Velocity":25,"Duration":509122,"SoundDuration":509122,"Delta":103122335},{"NoteNumber":49,"Velocity":21,"Duration":509122,"SoundDuration":509122,"Delta":103122335},{"NoteNumber":54,"Velocity":21,"Duration":509122,"SoundDuration":509122,"Delta":103122335},{"NoteNumber":58,"Velocity":24,"Duration":515552,"SoundDuration":515552,"Delta":103631457},{"NoteNumber":66,"Velocity":27,"Duration":515552,"SoundDuration":515552,"Delta":103631457},{"NoteNumber":49,"Velocity":20,"Duration":515552,"SoundDuration":515552,"Delta":103631457},{"NoteNumber":54,"Velocity":20,"Duration":515552,"SoundDuration":515552,"Delta":103631457},{"NoteNumber":61,"Velocity":24,"Duration":515552,"SoundDuration":515552,"Delta":103631457},{"NoteNumber":58,"Velocity":23,"Duration":515552,"SoundDuration":515552,"Delta":104147010},{"NoteNumber":66,"Velocity":27,"Duration":515552,"SoundDuration":515552,"Delta":104147010},{"NoteNumber":49,"Velocity":21,"Duration":515552,"SoundDuration":515552,"Delta":104147010},{"NoteNumber":54,"Velocity":21,"Duration":515552,"SoundDuration":515552,"Delta":104147010},{"NoteNumber":61,"Velocity":25,"Duration":515552,"SoundDuration":515552,"Delta":104147010},{"NoteNumber":61,"Velocity":22,"Duration":507485,"SoundDuration":507485,"Delta":104662563},{"NoteNumber":66,"Velocity":27,"Duration":507485,"SoundDuration":507485,"Delta":104662563},{"NoteNumber":49,"Velocity":20,"Duration":507485,"SoundDuration":507485,"Delta":104662563},{"NoteNumber":54,"Velocity":20,"Duration":507485,"SoundDuration":507485,"Delta":104662563},{"NoteNumber":59,"Velocity":24,"Duration":507485,"SoundDuration":507485,"Delta":104662563},{"NoteNumber":61,"Velocity":22,"Duration":513919,"SoundDuration":513919,"Delta":105170048},{"NoteNumber":66,"Velocity":27,"Duration":513919,"SoundDuration":513919,"Delta":105170048},{"NoteNumber":49,"Velocity":21,"Duration":513919,"SoundDuration":513919,"Delta":105170048},{"NoteNumber":54,"Velocity":21,"Duration":513919,"SoundDuration":513919,"Delta":105170048},{"NoteNumber":58,"Velocity":25,"Duration":513919,"SoundDuration":513919,"Delta":105170048},{"NoteNumber":61,"Velocity":22,"Duration":507485,"SoundDuration":507485,"Delta":105683967},{"NoteNumber":66,"Velocity":26,"Duration":507485,"SoundDuration":507485,"Delta":105683967},{"NoteNumber":49,"Velocity":21,"Duration":507485,"SoundDuration":507485,"Delta":105683967},{"NoteNumber":54,"Velocity":21,"Duration":507485,"SoundDuration":507485,"Delta":105683967},{"NoteNumber":58,"Velocity":25,"Duration":507485,"SoundDuration":507485,"Delta":105683967},{"NoteNumber":56,"Velocity":22,"Duration":507485,"SoundDuration":507485,"Delta":106191452},{"NoteNumber":61,"Velocity":26,"Duration":507485,"SoundDuration":507485,"Delta":106191452},{"NoteNumber":47,"Velocity":21,"Duration":507485,"SoundDuration":507485,"Delta":106191452},{"NoteNumber":49,"Velocity":25,"Duration":507485,"SoundDuration":507485,"Delta":106191452},{"NoteNumber":54,"Velocity":21,"Duration":513919,"SoundDuration":513919,"Delta":106698937},{"NoteNumber":61,"Velocity":25,"Duration":513919,"SoundDuration":513919,"Delta":106698937},{"NoteNumber":46,"Velocity":21,"Duration":513919,"SoundDuration":513919,"Delta":106698937},{"NoteNumber":49,"Velocity":25,"Duration":513919,"SoundDuration":513919,"Delta":106698937},{"NoteNumber":54,"Velocity":22,"Duration":518761,"SoundDuration":518761,"Delta":107212856},{"NoteNumber":61,"Velocity":27,"Duration":518761,"SoundDuration":518761,"Delta":107212856},{"NoteNumber":46,"Velocity":21,"Duration":518761,"SoundDuration":518761,"Delta":107212856},{"NoteNumber":49,"Velocity":25,"Duration":518761,"SoundDuration":518761,"Delta":107212856},{"NoteNumber":56,"Velocity":22,"Duration":512294,"SoundDuration":512294,"Delta":107731618},{"NoteNumber":61,"Velocity":26,"Duration":512294,"SoundDuration":512294,"Delta":107731618},{"NoteNumber":47,"Velocity":21,"Duration":512294,"SoundDuration":512294,"Delta":107731618},{"NoteNumber":49,"Velocity":25,"Duration":512294,"SoundDuration":512294,"Delta":107731618},{"NoteNumber":54,"Velocity":22,"Duration":512295,"SoundDuration":512295,"Delta":108243913},{"NoteNumber":61,"Velocity":26,"Duration":512295,"SoundDuration":512295,"Delta":108243913},{"NoteNumber":46,"Velocity":21,"Duration":512295,"SoundDuration":512295,"Delta":108243913},{"NoteNumber":49,"Velocity":25,"Duration":512295,"SoundDuration":512295,"Delta":108243913},{"NoteNumber":54,"Velocity":22,"Duration":512294,"SoundDuration":512294,"Delta":108756208},{"NoteNumber":61,"Velocity":27,"Duration":512294,"SoundDuration":512294,"Delta":108756208},{"NoteNumber":46,"Velocity":18,"Duration":512294,"SoundDuration":512294,"Delta":108756208},{"NoteNumber":49,"Velocity":23,"Duration":512294,"SoundDuration":512294,"Delta":108756208},{"NoteNumber":56,"Velocity":22,"Duration":518761,"SoundDuration":518761,"Delta":109268503},{"NoteNumber":61,"Velocity":26,"Duration":518761,"SoundDuration":518761,"Delta":109268503},{"NoteNumber":44,"Velocity":16,"Duration":518761,"SoundDuration":518761,"Delta":109268503},{"NoteNumber":49,"Velocity":22,"Duration":518761,"SoundDuration":518761,"Delta":109268503},{"NoteNumber":58,"Velocity":22,"Duration":528773,"SoundDuration":528773,"Delta":109787265},{"NoteNumber":61,"Velocity":26,"Duration":528773,"SoundDuration":528773,"Delta":109787265},{"NoteNumber":42,"Velocity":16,"Duration":528773,"SoundDuration":528773,"Delta":109787265},{"NoteNumber":49,"Velocity":22,"Duration":528773,"SoundDuration":528773,"Delta":109787265},{"NoteNumber":70,"Velocity":62,"Duration":515552,"SoundDuration":515552,"Delta":110316039},{"NoteNumber":41,"Velocity":44,"Duration":515552,"SoundDuration":515552,"Delta":110316039},{"NoteNumber":69,"Velocity":54,"Duration":504413,"SoundDuration":504413,"Delta":110831592},{"NoteNumber":58,"Velocity":24,"Duration":504413,"SoundDuration":504413,"Delta":110831592},{"NoteNumber":65,"Velocity":28,"Duration":504413,"SoundDuration":504413,"Delta":110831592},{"NoteNumber":62,"Velocity":27,"Duration":504413,"SoundDuration":504413,"Delta":110831592},{"NoteNumber":53,"Velocity":23,"Duration":504413,"SoundDuration":504413,"Delta":110831592},{"NoteNumber":70,"Velocity":59,"Duration":517151,"SoundDuration":517151,"Delta":111336006},{"NoteNumber":58,"Velocity":24,"Duration":517151,"SoundDuration":517151,"Delta":111336006},{"NoteNumber":65,"Velocity":28,"Duration":517151,"SoundDuration":517151,"Delta":111336006},{"NoteNumber":53,"Velocity":20,"Duration":517151,"SoundDuration":517151,"Delta":111336006},{"NoteNumber":62,"Velocity":24,"Duration":517151,"SoundDuration":517151,"Delta":111336006},{"NoteNumber":71,"Velocity":62,"Duration":1017905,"SoundDuration":1017905,"Delta":111853158},{"NoteNumber":41,"Velocity":41,"Duration":510420,"SoundDuration":510420,"Delta":111853158},{"NoteNumber":59,"Velocity":24,"Duration":507485,"SoundDuration":507485,"Delta":112363579},{"NoteNumber":65,"Velocity":28,"Duration":507485,"SoundDuration":507485,"Delta":112363579},{"NoteNumber":63,"Velocity":27,"Duration":507485,"SoundDuration":507485,"Delta":112363579},{"NoteNumber":53,"Velocity":22,"Duration":507485,"SoundDuration":507485,"Delta":112363579},{"NoteNumber":57,"Velocity":22,"Duration":507485,"SoundDuration":507485,"Delta":112363579},{"NoteNumber":72,"Velocity":60,"Duration":512294,"SoundDuration":512294,"Delta":112871064},{"NoteNumber":60,"Velocity":31,"Duration":512294,"SoundDuration":512294,"Delta":112871064},{"NoteNumber":65,"Velocity":37,"Duration":512294,"SoundDuration":512294,"Delta":112871064},{"NoteNumber":53,"Velocity":24,"Duration":512294,"SoundDuration":512294,"Delta":112871064},{"NoteNumber":57,"Velocity":24,"Duration":512294,"SoundDuration":512294,"Delta":112871064},{"NoteNumber":63,"Velocity":28,"Duration":512294,"SoundDuration":512294,"Delta":112871064},{"NoteNumber":74,"Velocity":63,"Duration":501630,"SoundDuration":501630,"Delta":113383359},{"NoteNumber":41,"Velocity":39,"Duration":501630,"SoundDuration":501630,"Delta":113383359},{"NoteNumber":70,"Velocity":60,"Duration":508172,"SoundDuration":508172,"Delta":113884989},{"NoteNumber":62,"Velocity":28,"Duration":508172,"SoundDuration":508172,"Delta":113884989},{"NoteNumber":65,"Velocity":28,"Duration":508172,"SoundDuration":508172,"Delta":113884989},{"NoteNumber":58,"Velocity":24,"Duration":508172,"SoundDuration":508172,"Delta":113884989},{"NoteNumber":53,"Velocity":24,"Duration":508172,"SoundDuration":508172,"Delta":113884989},{"NoteNumber":79,"Velocity":60,"Duration":515552,"SoundDuration":515552,"Delta":114393162},{"NoteNumber":70,"Velocity":28,"Duration":515552,"SoundDuration":515552,"Delta":114393162},{"NoteNumber":67,"Velocity":24,"Duration":515552,"SoundDuration":515552,"Delta":114393162},{"NoteNumber":53,"Velocity":20,"Duration":515552,"SoundDuration":515552,"Delta":114393162},{"NoteNumber":61,"Velocity":20,"Duration":515552,"SoundDuration":515552,"Delta":114393162},{"NoteNumber":64,"Velocity":24,"Duration":515552,"SoundDuration":515552,"Delta":114393162},{"NoteNumber":77,"Velocity":61,"Duration":1416308,"SoundDuration":1416308,"Delta":114908715},{"NoteNumber":41,"Velocity":41,"Duration":515552,"SoundDuration":515552,"Delta":114908715},{"NoteNumber":65,"Velocity":27,"Duration":509122,"SoundDuration":509122,"Delta":115424268},{"NoteNumber":69,"Velocity":32,"Duration":509122,"SoundDuration":509122,"Delta":115424268},{"NoteNumber":63,"Velocity":27,"Duration":509122,"SoundDuration":509122,"Delta":115424268},{"NoteNumber":53,"Velocity":23,"Duration":509122,"SoundDuration":509122,"Delta":115424268},{"NoteNumber":60,"Velocity":23,"Duration":509122,"SoundDuration":509122,"Delta":115424268},{"NoteNumber":65,"Velocity":31,"Duration":391633,"SoundDuration":391633,"Delta":115933390},{"NoteNumber":69,"Velocity":31,"Duration":391633,"SoundDuration":391633,"Delta":115933390},{"NoteNumber":53,"Velocity":20,"Duration":525490,"SoundDuration":525490,"Delta":115933390},{"NoteNumber":60,"Velocity":20,"Duration":525490,"SoundDuration":525490,"Delta":115933390},{"NoteNumber":63,"Velocity":24,"Duration":525490,"SoundDuration":525490,"Delta":115933390},{"NoteNumber":70,"Velocity":52,"Duration":66928,"SoundDuration":66928,"Delta":116325023},{"NoteNumber":72,"Velocity":46,"Duration":66928,"SoundDuration":66928,"Delta":116391951},{"NoteNumber":70,"Velocity":63,"Duration":508172,"SoundDuration":508172,"Delta":116458880},{"NoteNumber":41,"Velocity":45,"Duration":508172,"SoundDuration":508172,"Delta":116458880},{"NoteNumber":69,"Velocity":57,"Duration":504413,"SoundDuration":504413,"Delta":116967053},{"NoteNumber":58,"Velocity":24,"Duration":504413,"SoundDuration":504413,"Delta":116967053},{"NoteNumber":65,"Velocity":27,"Duration":504413,"SoundDuration":504413,"Delta":116967053},{"NoteNumber":62,"Velocity":28,"Duration":504413,"SoundDuration":504413,"Delta":116967053},{"NoteNumber":53,"Velocity":24,"Duration":504413,"SoundDuration":504413,"Delta":116967053},{"NoteNumber":70,"Velocity":61,"Duration":517151,"SoundDuration":517151,"Delta":117471467},{"NoteNumber":58,"Velocity":23,"Duration":517151,"SoundDuration":517151,"Delta":117471467},{"NoteNumber":65,"Velocity":27,"Duration":517151,"SoundDuration":517151,"Delta":117471467},{"NoteNumber":53,"Velocity":22,"Duration":517151,"SoundDuration":517151,"Delta":117471467},{"NoteNumber":62,"Velocity":27,"Duration":517151,"SoundDuration":517151,"Delta":117471467},{"NoteNumber":71,"Velocity":62,"Duration":1024637,"SoundDuration":1024637,"Delta":117988619},{"NoteNumber":41,"Velocity":43,"Duration":517152,"SoundDuration":517152,"Delta":117988619},{"NoteNumber":59,"Velocity":24,"Duration":507485,"SoundDuration":507485,"Delta":118505771},{"NoteNumber":65,"Velocity":28,"Duration":507485,"SoundDuration":507485,"Delta":118505771},{"NoteNumber":63,"Velocity":27,"Duration":507485,"SoundDuration":507485,"Delta":118505771},{"NoteNumber":53,"Velocity":24,"Duration":507485,"SoundDuration":507485,"Delta":118505771},{"NoteNumber":57,"Velocity":24,"Duration":507485,"SoundDuration":507485,"Delta":118505771},{"NoteNumber":72,"Velocity":63,"Duration":512294,"SoundDuration":512294,"Delta":119013256},{"NoteNumber":60,"Velocity":22,"Duration":512294,"SoundDuration":512294,"Delta":119013256},{"NoteNumber":65,"Velocity":26,"Duration":512294,"SoundDuration":512294,"Delta":119013256},{"NoteNumber":53,"Velocity":20,"Duration":512294,"SoundDuration":512294,"Delta":119013256},{"NoteNumber":57,"Velocity":20,"Duration":512294,"SoundDuration":512294,"Delta":119013256},{"NoteNumber":63,"Velocity":24,"Duration":512294,"SoundDuration":512294,"Delta":119013256},{"NoteNumber":73,"Velocity":66,"Duration":509122,"SoundDuration":509122,"Delta":119525551},{"NoteNumber":46,"Velocity":45,"Duration":509122,"SoundDuration":509122,"Delta":119525551},{"NoteNumber":70,"Velocity":63,"Duration":514910,"SoundDuration":514910,"Delta":120034673},{"NoteNumber":61,"Velocity":34,"Duration":514910,"SoundDuration":514910,"Delta":120034673},{"NoteNumber":65,"Velocity":33,"Duration":514910,"SoundDuration":514910,"Delta":120034673},{"NoteNumber":58,"Velocity":22,"Duration":514910,"SoundDuration":514910,"Delta":120034673},{"NoteNumber":53,"Velocity":22,"Duration":514910,"SoundDuration":514910,"Delta":120034673},{"NoteNumber":78,"Velocity":63,"Duration":524843,"SoundDuration":524843,"Delta":120549583},{"NoteNumber":70,"Velocity":28,"Duration":524843,"SoundDuration":524843,"Delta":120549583},{"NoteNumber":66,"Velocity":24,"Duration":524843,"SoundDuration":524843,"Delta":120549583},{"NoteNumber":53,"Velocity":13,"Duration":524843,"SoundDuration":524843,"Delta":120549583},{"NoteNumber":58,"Velocity":13,"Duration":524843,"SoundDuration":524843,"Delta":120549583},{"NoteNumber":61,"Velocity":24,"Duration":524843,"SoundDuration":524843,"Delta":120549583},{"NoteNumber":77,"Velocity":65,"Duration":524842,"SoundDuration":524842,"Delta":121074426},{"NoteNumber":37,"Velocity":45,"Duration":524842,"SoundDuration":524842,"Delta":121074426},{"NoteNumber":75,"Velocity":63,"Duration":520697,"SoundDuration":520697,"Delta":121599269},{"NoteNumber":65,"Velocity":24,"Duration":520697,"SoundDuration":520697,"Delta":121599269},{"NoteNumber":71,"Velocity":28,"Duration":520697,"SoundDuration":520697,"Delta":121599269},{"NoteNumber":61,"Velocity":24,"Duration":520697,"SoundDuration":520697,"Delta":121599269},{"NoteNumber":68,"Velocity":27,"Duration":520697,"SoundDuration":520697,"Delta":121599269},{"NoteNumber":56,"Velocity":24,"Duration":520697,"SoundDuration":520697,"Delta":121599269},{"NoteNumber":59,"Velocity":24,"Duration":520697,"SoundDuration":520697,"Delta":121599269},{"NoteNumber":73,"Velocity":63,"Duration":515552,"SoundDuration":515552,"Delta":122119967},{"NoteNumber":65,"Velocity":24,"Duration":515552,"SoundDuration":515552,"Delta":122119967},{"NoteNumber":71,"Velocity":28,"Duration":513404,"SoundDuration":513404,"Delta":122119967},{"NoteNumber":61,"Velocity":22,"Duration":515552,"SoundDuration":515552,"Delta":122119967},{"NoteNumber":56,"Velocity":22,"Duration":515552,"SoundDuration":515552,"Delta":122119967},{"NoteNumber":59,"Velocity":22,"Duration":515552,"SoundDuration":515552,"Delta":122119967},{"NoteNumber":68,"Velocity":26,"Duration":515552,"SoundDuration":515552,"Delta":122119967},{"NoteNumber":71,"Velocity":62,"Duration":6227598,"SoundDuration":6227598,"Delta":122635520},{"NoteNumber":65,"Velocity":35,"Duration":515552,"SoundDuration":515552,"Delta":122635520},{"NoteNumber":56,"Velocity":22,"Duration":515552,"SoundDuration":515552,"Delta":122635520},{"NoteNumber":59,"Velocity":22,"Duration":515552,"SoundDuration":515552,"Delta":122635520},{"NoteNumber":61,"Velocity":22,"Duration":515552,"SoundDuration":515552,"Delta":122635520},{"NoteNumber":68,"Velocity":26,"Duration":515552,"SoundDuration":515552,"Delta":122635520},{"NoteNumber":65,"Velocity":39,"Duration":515553,"SoundDuration":515553,"Delta":123151073},{"NoteNumber":56,"Velocity":23,"Duration":515553,"SoundDuration":515553,"Delta":123151073},{"NoteNumber":59,"Velocity":23,"Duration":515553,"SoundDuration":515553,"Delta":123151073},{"NoteNumber":61,"Velocity":27,"Duration":515553,"SoundDuration":515553,"Delta":123151073},{"NoteNumber":65,"Velocity":39,"Duration":515552,"SoundDuration":515552,"Delta":123666626},{"NoteNumber":56,"Velocity":23,"Duration":515552,"SoundDuration":515552,"Delta":123666626},{"NoteNumber":59,"Velocity":27,"Duration":515552,"SoundDuration":515552,"Delta":123666626},{"NoteNumber":61,"Velocity":27,"Duration":515552,"SoundDuration":515552,"Delta":123666626},{"NoteNumber":65,"Velocity":37,"Duration":515552,"SoundDuration":515552,"Delta":124182179},{"NoteNumber":56,"Velocity":23,"Duration":515552,"SoundDuration":515552,"Delta":124182179},{"NoteNumber":59,"Velocity":23,"Duration":515552,"SoundDuration":515552,"Delta":124182179},{"NoteNumber":61,"Velocity":27,"Duration":515552,"SoundDuration":515552,"Delta":124182179},{"NoteNumber":63,"Velocity":36,"Duration":515552,"SoundDuration":515552,"Delta":124697732},{"NoteNumber":54,"Velocity":23,"Duration":515552,"SoundDuration":515552,"Delta":124697732},{"NoteNumber":59,"Velocity":23,"Duration":515552,"SoundDuration":515552,"Delta":124697732},{"NoteNumber":61,"Velocity":27,"Duration":515552,"SoundDuration":515552,"Delta":124697732},{"NoteNumber":65,"Velocity":36,"Duration":515552,"SoundDuration":515552,"Delta":125213285},{"NoteNumber":56,"Velocity":23,"Duration":515552,"SoundDuration":515552,"Delta":125213285},{"NoteNumber":59,"Velocity":23,"Duration":515552,"SoundDuration":515552,"Delta":125213285},{"NoteNumber":61,"Velocity":27,"Duration":515552,"SoundDuration":515552,"Delta":125213285},{"NoteNumber":65,"Velocity":35,"Duration":513027,"SoundDuration":513027,"Delta":125728838},{"NoteNumber":56,"Velocity":23,"Duration":513027,"SoundDuration":513027,"Delta":125728838},{"NoteNumber":59,"Velocity":23,"Duration":513027,"SoundDuration":513027,"Delta":125728838},{"NoteNumber":61,"Velocity":27,"Duration":513027,"SoundDuration":513027,"Delta":125728838},{"NoteNumber":63,"Velocity":35,"Duration":516362,"SoundDuration":516362,"Delta":126241865},{"NoteNumber":54,"Velocity":22,"Duration":516362,"SoundDuration":516362,"Delta":126241865},{"NoteNumber":59,"Velocity":22,"Duration":516362,"SoundDuration":516362,"Delta":126241865},{"NoteNumber":61,"Velocity":26,"Duration":516362,"SoundDuration":516362,"Delta":126241865},{"NoteNumber":65,"Velocity":32,"Duration":519951,"SoundDuration":519951,"Delta":126758227},{"NoteNumber":56,"Velocity":22,"Duration":519951,"SoundDuration":519951,"Delta":126758227},{"NoteNumber":59,"Velocity":22,"Duration":519951,"SoundDuration":519951,"Delta":126758227},{"NoteNumber":61,"Velocity":26,"Duration":519951,"SoundDuration":519951,"Delta":126758227},{"NoteNumber":65,"Velocity":32,"Duration":523563,"SoundDuration":523563,"Delta":127278178},{"NoteNumber":56,"Velocity":20,"Duration":523563,"SoundDuration":523563,"Delta":127278178},{"NoteNumber":59,"Velocity":20,"Duration":523563,"SoundDuration":523563,"Delta":127278178},{"NoteNumber":61,"Velocity":24,"Duration":523563,"SoundDuration":523563,"Delta":127278178},{"NoteNumber":63,"Velocity":31,"Duration":527236,"SoundDuration":527236,"Delta":127801742},{"NoteNumber":54,"Velocity":18,"Duration":527236,"SoundDuration":527236,"Delta":127801742},{"NoteNumber":59,"Velocity":18,"Duration":527236,"SoundDuration":527236,"Delta":127801742},{"NoteNumber":61,"Velocity":23,"Duration":527236,"SoundDuration":527236,"Delta":127801742},{"NoteNumber":65,"Velocity":31,"Duration":534140,"SoundDuration":534140,"Delta":128328979},{"NoteNumber":56,"Velocity":18,"Duration":534140,"SoundDuration":534140,"Delta":128328979},{"NoteNumber":59,"Velocity":18,"Duration":534140,"SoundDuration":534140,"Delta":128328979},{"NoteNumber":61,"Velocity":23,"Duration":534140,"SoundDuration":534140,"Delta":128328979},{"NoteNumber":70,"Velocity":54,"Duration":531303,"SoundDuration":531303,"Delta":128863119},{"NoteNumber":42,"Velocity":37,"Duration":531303,"SoundDuration":531303,"Delta":128863119},{"NoteNumber":65,"Velocity":49,"Duration":504413,"SoundDuration":504413,"Delta":129394422},{"NoteNumber":58,"Velocity":25,"Duration":504413,"SoundDuration":504413,"Delta":129394422},{"NoteNumber":63,"Velocity":25,"Duration":504413,"SoundDuration":504413,"Delta":129394422},{"NoteNumber":54,"Velocity":21,"Duration":504413,"SoundDuration":504413,"Delta":129394422},{"NoteNumber":49,"Velocity":21,"Duration":504413,"SoundDuration":504413,"Delta":129394422},{"NoteNumber":66,"Velocity":52,"Duration":517152,"SoundDuration":517152,"Delta":129898836},{"NoteNumber":58,"Velocity":22,"Duration":517152,"SoundDuration":517152,"Delta":129898836},{"NoteNumber":49,"Velocity":18,"Duration":517152,"SoundDuration":517152,"Delta":129898836},{"NoteNumber":54,"Velocity":18,"Duration":517152,"SoundDuration":517152,"Delta":129898836},{"NoteNumber":61,"Velocity":23,"Duration":517152,"SoundDuration":517152,"Delta":129898836},{"NoteNumber":75,"Velocity":57,"Duration":1017906,"SoundDuration":1017906,"Delta":130415988},{"NoteNumber":42,"Velocity":34,"Duration":510421,"SoundDuration":510421,"Delta":130415988},{"NoteNumber":58,"Velocity":20,"Duration":507485,"SoundDuration":507485,"Delta":130926409},{"NoteNumber":66,"Velocity":25,"Duration":507485,"SoundDuration":507485,"Delta":130926409},{"NoteNumber":63,"Velocity":23,"Duration":507485,"SoundDuration":507485,"Delta":130926409},{"NoteNumber":49,"Velocity":18,"Duration":507485,"SoundDuration":507485,"Delta":130926409},{"NoteNumber":54,"Velocity":18,"Duration":507485,"SoundDuration":507485,"Delta":130926409},{"NoteNumber":73,"Velocity":52,"Duration":512294,"SoundDuration":512294,"Delta":131433894},{"NoteNumber":58,"Velocity":20,"Duration":512294,"SoundDuration":512294,"Delta":131433894},{"NoteNumber":66,"Velocity":25,"Duration":512294,"SoundDuration":512294,"Delta":131433894},{"NoteNumber":49,"Velocity":15,"Duration":512294,"SoundDuration":512294,"Delta":131433894},{"NoteNumber":54,"Velocity":15,"Duration":512294,"SoundDuration":512294,"Delta":131433894},{"NoteNumber":61,"Velocity":18,"Duration":512294,"SoundDuration":512294,"Delta":131433894},{"NoteNumber":73,"Velocity":52,"Duration":509121,"SoundDuration":509121,"Delta":131946189},{"NoteNumber":37,"Velocity":33,"Duration":509121,"SoundDuration":509121,"Delta":131946189},{"NoteNumber":66,"Velocity":45,"Duration":512600,"SoundDuration":512600,"Delta":132455311},{"NoteNumber":59,"Velocity":23,"Duration":512600,"SoundDuration":512600,"Delta":132455311},{"NoteNumber":63,"Velocity":27,"Duration":512600,"SoundDuration":512600,"Delta":132455311},{"NoteNumber":54,"Velocity":23,"Duration":512600,"SoundDuration":512600,"Delta":132455311},{"NoteNumber":49,"Velocity":23,"Duration":512600,"SoundDuration":512600,"Delta":132455311},{"NoteNumber":68,"Velocity":46,"Duration":528866,"SoundDuration":528866,"Delta":132967912},{"NoteNumber":65,"Velocity":27,"Duration":528866,"SoundDuration":528866,"Delta":132967912},{"NoteNumber":59,"Velocity":22,"Duration":528866,"SoundDuration":528866,"Delta":132967912},{"NoteNumber":49,"Velocity":18,"Duration":528866,"SoundDuration":528866,"Delta":132967912},{"NoteNumber":54,"Velocity":18,"Duration":528866,"SoundDuration":528866,"Delta":132967912},{"NoteNumber":61,"Velocity":23,"Duration":528866,"SoundDuration":528866,"Delta":132967912},{"NoteNumber":70,"Velocity":52,"Duration":3597983,"SoundDuration":3597983,"Delta":133496779},{"NoteNumber":42,"Velocity":34,"Duration":528867,"SoundDuration":528867,"Delta":133496779},{"NoteNumber":58,"Velocity":24,"Duration":509121,"SoundDuration":509121,"Delta":134025646},{"NoteNumber":66,"Velocity":28,"Duration":509121,"SoundDuration":509121,"Delta":134025646},{"NoteNumber":63,"Velocity":24,"Duration":509121,"SoundDuration":509121,"Delta":134025646},{"NoteNumber":49,"Velocity":20,"Duration":509121,"SoundDuration":509121,"Delta":134025646},{"NoteNumber":54,"Velocity":20,"Duration":509121,"SoundDuration":509121,"Delta":134025646},{"NoteNumber":58,"Velocity":23,"Duration":515553,"SoundDuration":515553,"Delta":134534768},{"NoteNumber":66,"Velocity":27,"Duration":515553,"SoundDuration":515553,"Delta":134534768},{"NoteNumber":49,"Velocity":17,"Duration":515553,"SoundDuration":515553,"Delta":134534768},{"NoteNumber":54,"Velocity":17,"Duration":515553,"SoundDuration":515553,"Delta":134534768},{"NoteNumber":61,"Velocity":22,"Duration":515553,"SoundDuration":515553,"Delta":134534768},{"NoteNumber":58,"Velocity":23,"Duration":515552,"SoundDuration":515552,"Delta":135050321},{"NoteNumber":66,"Velocity":28,"Duration":515552,"SoundDuration":515552,"Delta":135050321},{"NoteNumber":49,"Velocity":12,"Duration":515552,"SoundDuration":515552,"Delta":135050321},{"NoteNumber":54,"Velocity":12,"Duration":515552,"SoundDuration":515552,"Delta":135050321},{"NoteNumber":61,"Velocity":21,"Duration":515552,"SoundDuration":515552,"Delta":135050321},{"NoteNumber":61,"Velocity":20,"Duration":507485,"SoundDuration":507485,"Delta":135565874},{"NoteNumber":66,"Velocity":24,"Duration":507485,"SoundDuration":507485,"Delta":135565874},{"NoteNumber":49,"Velocity":18,"Duration":507485,"SoundDuration":507485,"Delta":135565874},{"NoteNumber":54,"Velocity":18,"Duration":507485,"SoundDuration":507485,"Delta":135565874},{"NoteNumber":59,"Velocity":23,"Duration":507485,"SoundDuration":507485,"Delta":135565874},{"NoteNumber":61,"Velocity":20,"Duration":513918,"SoundDuration":513918,"Delta":136073359},{"NoteNumber":66,"Velocity":24,"Duration":513918,"SoundDuration":513918,"Delta":136073359},{"NoteNumber":49,"Velocity":13,"Duration":513918,"SoundDuration":513918,"Delta":136073359},{"NoteNumber":54,"Velocity":15,"Duration":513918,"SoundDuration":513918,"Delta":136073359},{"NoteNumber":58,"Velocity":22,"Duration":513918,"SoundDuration":513918,"Delta":136073359},{"NoteNumber":61,"Velocity":20,"Duration":507485,"SoundDuration":507485,"Delta":136587278},{"NoteNumber":66,"Velocity":24,"Duration":507485,"SoundDuration":507485,"Delta":136587278},{"NoteNumber":49,"Velocity":20,"Duration":507485,"SoundDuration":507485,"Delta":136587278},{"NoteNumber":54,"Velocity":20,"Duration":507485,"SoundDuration":507485,"Delta":136587278},{"NoteNumber":58,"Velocity":24,"Duration":507485,"SoundDuration":507485,"Delta":136587278},{"NoteNumber":56,"Velocity":20,"Duration":507485,"SoundDuration":507485,"Delta":137094763},{"NoteNumber":61,"Velocity":24,"Duration":507485,"SoundDuration":507485,"Delta":137094763},{"NoteNumber":47,"Velocity":20,"Duration":507485,"SoundDuration":507485,"Delta":137094763},{"NoteNumber":49,"Velocity":24,"Duration":507485,"SoundDuration":507485,"Delta":137094763},{"NoteNumber":54,"Velocity":18,"Duration":513918,"SoundDuration":513918,"Delta":137602248},{"NoteNumber":61,"Velocity":24,"Duration":513918,"SoundDuration":513918,"Delta":137602248},{"NoteNumber":46,"Velocity":18,"Duration":513918,"SoundDuration":513918,"Delta":137602248},{"NoteNumber":49,"Velocity":24,"Duration":513918,"SoundDuration":513918,"Delta":137602248},{"NoteNumber":54,"Velocity":18,"Duration":518762,"SoundDuration":518762,"Delta":138116167},{"NoteNumber":61,"Velocity":24,"Duration":518762,"SoundDuration":518762,"Delta":138116167},{"NoteNumber":46,"Velocity":18,"Duration":518762,"SoundDuration":518762,"Delta":138116167},{"NoteNumber":49,"Velocity":24,"Duration":518762,"SoundDuration":518762,"Delta":138116167},{"NoteNumber":56,"Velocity":17,"Duration":512294,"SoundDuration":512294,"Delta":138634929},{"NoteNumber":61,"Velocity":22,"Duration":512294,"SoundDuration":512294,"Delta":138634929},{"NoteNumber":47,"Velocity":18,"Duration":512294,"SoundDuration":512294,"Delta":138634929},{"NoteNumber":49,"Velocity":23,"Duration":512294,"SoundDuration":512294,"Delta":138634929},{"NoteNumber":54,"Velocity":17,"Duration":512294,"SoundDuration":512294,"Delta":139147224},{"NoteNumber":61,"Velocity":22,"Duration":512294,"SoundDuration":512294,"Delta":139147224},{"NoteNumber":46,"Velocity":18,"Duration":512294,"SoundDuration":512294,"Delta":139147224},{"NoteNumber":49,"Velocity":23,"Duration":512294,"SoundDuration":512294,"Delta":139147224},{"NoteNumber":54,"Velocity":14,"Duration":512295,"SoundDuration":512295,"Delta":139659519},{"NoteNumber":61,"Velocity":22,"Duration":512295,"SoundDuration":512295,"Delta":139659519},{"NoteNumber":46,"Velocity":17,"Duration":512295,"SoundDuration":512295,"Delta":139659519},{"NoteNumber":49,"Velocity":23,"Duration":512295,"SoundDuration":512295,"Delta":139659519},{"NoteNumber":56,"Velocity":13,"Duration":518762,"SoundDuration":518762,"Delta":140171814},{"NoteNumber":61,"Velocity":22,"Duration":518762,"SoundDuration":518762,"Delta":140171814},{"NoteNumber":44,"Velocity":17,"Duration":518762,"SoundDuration":518762,"Delta":140171814},{"NoteNumber":49,"Velocity":22,"Duration":518762,"SoundDuration":518762,"Delta":140171814},{"NoteNumber":58,"Velocity":13,"Duration":528773,"SoundDuration":528773,"Delta":140690576},{"NoteNumber":61,"Velocity":20,"Duration":528773,"SoundDuration":528773,"Delta":140690576},{"NoteNumber":42,"Velocity":17,"Duration":528773,"SoundDuration":528773,"Delta":140690576},{"NoteNumber":49,"Velocity":22,"Duration":528773,"SoundDuration":528773,"Delta":140690576},{"NoteNumber":71,"Velocity":53,"Duration":515553,"SoundDuration":515553,"Delta":141219350},{"NoteNumber":44,"Velocity":31,"Duration":515553,"SoundDuration":515553,"Delta":141219350},{"NoteNumber":67,"Velocity":49,"Duration":504413,"SoundDuration":504413,"Delta":141734903},{"NoteNumber":59,"Velocity":26,"Duration":504413,"SoundDuration":504413,"Delta":141734903},{"NoteNumber":64,"Velocity":26,"Duration":504413,"SoundDuration":504413,"Delta":141734903},{"NoteNumber":56,"Velocity":22,"Duration":504413,"SoundDuration":504413,"Delta":141734903},{"NoteNumber":51,"Velocity":22,"Duration":504413,"SoundDuration":504413,"Delta":141734903},{"NoteNumber":68,"Velocity":54,"Duration":516590,"SoundDuration":516590,"Delta":142239317},{"NoteNumber":59,"Velocity":26,"Duration":516590,"SoundDuration":516590,"Delta":142239317},{"NoteNumber":51,"Velocity":17,"Duration":516590,"SoundDuration":516590,"Delta":142239317},{"NoteNumber":56,"Velocity":17,"Duration":516590,"SoundDuration":516590,"Delta":142239317},{"NoteNumber":63,"Velocity":22,"Duration":516590,"SoundDuration":516590,"Delta":142239317},{"NoteNumber":76,"Velocity":58,"Duration":1015658,"SoundDuration":1015658,"Delta":142755907},{"NoteNumber":44,"Velocity":38,"Duration":508172,"SoundDuration":508172,"Delta":142755907},{"NoteNumber":59,"Velocity":22,"Duration":507485,"SoundDuration":507485,"Delta":143264080},{"NoteNumber":68,"Velocity":27,"Duration":507485,"SoundDuration":507485,"Delta":143264080},{"NoteNumber":64,"Velocity":24,"Duration":507485,"SoundDuration":507485,"Delta":143264080},{"NoteNumber":51,"Velocity":18,"Duration":507485,"SoundDuration":507485,"Delta":143264080},{"NoteNumber":56,"Velocity":18,"Duration":507485,"SoundDuration":507485,"Delta":143264080},{"NoteNumber":75,"Velocity":54,"Duration":512294,"SoundDuration":512294,"Delta":143771565},{"NoteNumber":59,"Velocity":21,"Duration":512294,"SoundDuration":512294,"Delta":143771565},{"NoteNumber":68,"Velocity":25,"Duration":512294,"SoundDuration":512294,"Delta":143771565},{"NoteNumber":51,"Velocity":17,"Duration":512294,"SoundDuration":512294,"Delta":143771565},{"NoteNumber":56,"Velocity":17,"Duration":512294,"SoundDuration":512294,"Delta":143771565},{"NoteNumber":63,"Velocity":21,"Duration":512294,"SoundDuration":512294,"Delta":143771565},{"NoteNumber":75,"Velocity":54,"Duration":509121,"SoundDuration":509121,"Delta":144283860},{"NoteNumber":39,"Velocity":33,"Duration":509121,"SoundDuration":509121,"Delta":144283860},{"NoteNumber":68,"Velocity":49,"Duration":509122,"SoundDuration":509122,"Delta":144792982},{"NoteNumber":61,"Velocity":28,"Duration":509122,"SoundDuration":509122,"Delta":144792982},{"NoteNumber":64,"Velocity":22,"Duration":509122,"SoundDuration":509122,"Delta":144792982},{"NoteNumber":58,"Velocity":17,"Duration":509122,"SoundDuration":509122,"Delta":144792982},{"NoteNumber":51,"Velocity":17,"Duration":509122,"SoundDuration":509122,"Delta":144792982},{"NoteNumber":70,"Velocity":51,"Duration":515553,"SoundDuration":515553,"Delta":145302104},{"NoteNumber":67,"Velocity":27,"Duration":515553,"SoundDuration":515553,"Delta":145302104},{"NoteNumber":61,"Velocity":22,"Duration":515553,"SoundDuration":515553,"Delta":145302104},{"NoteNumber":51,"Velocity":14,"Duration":515553,"SoundDuration":515553,"Delta":145302104},{"NoteNumber":58,"Velocity":14,"Duration":515553,"SoundDuration":515553,"Delta":145302104},{"NoteNumber":63,"Velocity":17,"Duration":515553,"SoundDuration":515553,"Delta":145302104},{"NoteNumber":73,"Velocity":53,"Duration":515552,"SoundDuration":515552,"Delta":145817657},{"NoteNumber":44,"Velocity":34,"Duration":515552,"SoundDuration":515552,"Delta":145817657},{"NoteNumber":71,"Velocity":51,"Duration":3069116,"SoundDuration":3069116,"Delta":146333210},{"NoteNumber":59,"Velocity":22,"Duration":509121,"SoundDuration":509121,"Delta":146333210},{"NoteNumber":68,"Velocity":26,"Duration":509121,"SoundDuration":509121,"Delta":146333210},{"NoteNumber":64,"Velocity":25,"Duration":509121,"SoundDuration":509121,"Delta":146333210},{"NoteNumber":51,"Velocity":21,"Duration":509121,"SoundDuration":509121,"Delta":146333210},{"NoteNumber":56,"Velocity":21,"Duration":509121,"SoundDuration":509121,"Delta":146333210},{"NoteNumber":59,"Velocity":22,"Duration":515553,"SoundDuration":515553,"Delta":146842332},{"NoteNumber":68,"Velocity":26,"Duration":515553,"SoundDuration":515553,"Delta":146842332},{"NoteNumber":51,"Velocity":18,"Duration":515553,"SoundDuration":515553,"Delta":146842332},{"NoteNumber":56,"Velocity":18,"Duration":515553,"SoundDuration":515553,"Delta":146842332},{"NoteNumber":63,"Velocity":23,"Duration":515553,"SoundDuration":515553,"Delta":146842332},{"NoteNumber":59,"Velocity":20,"Duration":515552,"SoundDuration":515552,"Delta":147357885},{"NoteNumber":68,"Velocity":28,"Duration":515552,"SoundDuration":515552,"Delta":147357885},{"NoteNumber":51,"Velocity":16,"Duration":515552,"SoundDuration":515552,"Delta":147357885},{"NoteNumber":56,"Velocity":16,"Duration":515552,"SoundDuration":515552,"Delta":147357885},{"NoteNumber":63,"Velocity":25,"Duration":509108,"SoundDuration":509108,"Delta":147357885},{"NoteNumber":63,"Velocity":24,"Duration":507485,"SoundDuration":507485,"Delta":147873438},{"NoteNumber":68,"Velocity":29,"Duration":507485,"SoundDuration":507485,"Delta":147873438},{"NoteNumber":51,"Velocity":20,"Duration":507485,"SoundDuration":507485,"Delta":147873438},{"NoteNumber":56,"Velocity":20,"Duration":507485,"SoundDuration":507485,"Delta":147873438},{"NoteNumber":61,"Velocity":24,"Duration":507485,"SoundDuration":507485,"Delta":147873438},{"NoteNumber":63,"Velocity":24,"Duration":513918,"SoundDuration":513918,"Delta":148380923},{"NoteNumber":68,"Velocity":27,"Duration":513918,"SoundDuration":513918,"Delta":148380923},{"NoteNumber":51,"Velocity":20,"Duration":513918,"SoundDuration":513918,"Delta":148380923},{"NoteNumber":56,"Velocity":20,"Duration":513918,"SoundDuration":513918,"Delta":148380923},{"NoteNumber":59,"Velocity":24,"Duration":513918,"SoundDuration":513918,"Delta":148380923},{"NoteNumber":63,"Velocity":22,"Duration":507485,"SoundDuration":507485,"Delta":148894842},{"NoteNumber":68,"Velocity":27,"Duration":507485,"SoundDuration":507485,"Delta":148894842},{"NoteNumber":51,"Velocity":21,"Duration":507485,"SoundDuration":507485,"Delta":148894842},{"NoteNumber":56,"Velocity":21,"Duration":507485,"SoundDuration":507485,"Delta":148894842},{"NoteNumber":59,"Velocity":25,"Duration":507485,"SoundDuration":507485,"Delta":148894842},{"NoteNumber":58,"Velocity":21,"Duration":507485,"SoundDuration":507485,"Delta":149402327},{"NoteNumber":63,"Velocity":26,"Duration":507485,"SoundDuration":507485,"Delta":149402327},{"NoteNumber":49,"Velocity":20,"Duration":507485,"SoundDuration":507485,"Delta":149402327},{"NoteNumber":51,"Velocity":24,"Duration":507485,"SoundDuration":507485,"Delta":149402327},{"NoteNumber":56,"Velocity":20,"Duration":513918,"SoundDuration":513918,"Delta":149909812},{"NoteNumber":63,"Velocity":25,"Duration":513918,"SoundDuration":513918,"Delta":149909812},{"NoteNumber":47,"Velocity":20,"Duration":513918,"SoundDuration":513918,"Delta":149909812},{"NoteNumber":51,"Velocity":24,"Duration":513918,"SoundDuration":513918,"Delta":149909812},{"NoteNumber":56,"Velocity":20,"Duration":518762,"SoundDuration":518762,"Delta":150423731},{"NoteNumber":63,"Velocity":25,"Duration":518762,"SoundDuration":518762,"Delta":150423731},{"NoteNumber":47,"Velocity":20,"Duration":518762,"SoundDuration":518762,"Delta":150423731},{"NoteNumber":51,"Velocity":24,"Duration":518762,"SoundDuration":518762,"Delta":150423731},{"NoteNumber":58,"Velocity":18,"Duration":512294,"SoundDuration":512294,"Delta":150942493},{"NoteNumber":63,"Velocity":24,"Duration":512294,"SoundDuration":512294,"Delta":150942493},{"NoteNumber":49,"Velocity":20,"Duration":512294,"SoundDuration":512294,"Delta":150942493},{"NoteNumber":51,"Velocity":21,"Duration":512294,"SoundDuration":512294,"Delta":150942493},{"NoteNumber":56,"Velocity":18,"Duration":512294,"SoundDuration":512294,"Delta":151454788},{"NoteNumber":63,"Velocity":24,"Duration":512294,"SoundDuration":512294,"Delta":151454788},{"NoteNumber":47,"Velocity":18,"Duration":512294,"SoundDuration":512294,"Delta":151454788},{"NoteNumber":51,"Velocity":23,"Duration":512294,"SoundDuration":512294,"Delta":151454788},{"NoteNumber":56,"Velocity":18,"Duration":512295,"SoundDuration":512295,"Delta":151967083},{"NoteNumber":63,"Velocity":24,"Duration":512295,"SoundDuration":512295,"Delta":151967083},{"NoteNumber":47,"Velocity":18,"Duration":512295,"SoundDuration":512295,"Delta":151967083},{"NoteNumber":51,"Velocity":23,"Duration":512295,"SoundDuration":512295,"Delta":151967083},{"NoteNumber":58,"Velocity":18,"Duration":512294,"SoundDuration":512294,"Delta":152479378},{"NoteNumber":63,"Velocity":23,"Duration":512294,"SoundDuration":512294,"Delta":152479378},{"NoteNumber":46,"Velocity":17,"Duration":512294,"SoundDuration":512294,"Delta":152479378},{"NoteNumber":51,"Velocity":22,"Duration":512294,"SoundDuration":512294,"Delta":152479378},{"NoteNumber":59,"Velocity":18,"Duration":512294,"SoundDuration":512294,"Delta":152991673},{"NoteNumber":54,"Velocity":18,"Duration":512294,"SoundDuration":512294,"Delta":152991673},{"NoteNumber":63,"Velocity":23,"Duration":512294,"SoundDuration":512294,"Delta":152991673},{"NoteNumber":44,"Velocity":16,"Duration":512294,"SoundDuration":512294,"Delta":152991673},{"NoteNumber":51,"Velocity":20,"Duration":512294,"SoundDuration":512294,"Delta":152991673},{"NoteNumber":53,"Velocity":24,"Duration":512294,"SoundDuration":512294,"Delta":153503968},{"NoteNumber":59,"Velocity":24,"Duration":512294,"SoundDuration":512294,"Delta":153503968},{"NoteNumber":61,"Velocity":28,"Duration":512294,"SoundDuration":512294,"Delta":153503968},{"NoteNumber":37,"Velocity":20,"Duration":512294,"SoundDuration":512294,"Delta":153503968},{"NoteNumber":68,"Velocity":39,"Duration":512294,"SoundDuration":512294,"Delta":154016263},{"NoteNumber":59,"Velocity":22,"Duration":512294,"SoundDuration":512294,"Delta":154016263},{"NoteNumber":65,"Velocity":27,"Duration":512294,"SoundDuration":512294,"Delta":154016263},{"NoteNumber":70,"Velocity":39,"Duration":522057,"SoundDuration":522057,"Delta":154528558},{"NoteNumber":59,"Velocity":22,"Duration":522057,"SoundDuration":522057,"Delta":154528558},{"NoteNumber":65,"Velocity":27,"Duration":522057,"SoundDuration":522057,"Delta":154528558},{"NoteNumber":49,"Velocity":27,"Duration":389102,"SoundDuration":389102,"Delta":154528558},{"NoteNumber":50,"Velocity":26,"Duration":66477,"SoundDuration":66477,"Delta":154917661},{"NoteNumber":51,"Velocity":26,"Duration":66477,"SoundDuration":66477,"Delta":154984139},{"NoteNumber":66,"Velocity":46,"Duration":1050558,"SoundDuration":1050558,"Delta":155050616},{"NoteNumber":54,"Velocity":25,"Duration":537430,"SoundDuration":537430,"Delta":155050616},{"NoteNumber":59,"Velocity":30,"Duration":537430,"SoundDuration":537430,"Delta":155050616},{"NoteNumber":53,"Velocity":25,"Duration":92262,"SoundDuration":92262,"Delta":155050616},{"NoteNumber":51,"Velocity":21,"Duration":91256,"SoundDuration":91256,"Delta":155142879},{"NoteNumber":53,"Velocity":24,"Duration":90087,"SoundDuration":90087,"Delta":155234136},{"NoteNumber":51,"Velocity":22,"Duration":89022,"SoundDuration":89022,"Delta":155324223},{"NoteNumber":53,"Velocity":24,"Duration":87903,"SoundDuration":87903,"Delta":155413245},{"NoteNumber":51,"Velocity":21,"Duration":86899,"SoundDuration":86899,"Delta":155501148},{"NoteNumber":54,"Velocity":21,"Duration":513127,"SoundDuration":513127,"Delta":155588047},{"NoteNumber":59,"Velocity":25,"Duration":513127,"SoundDuration":513127,"Delta":155588047},{"NoteNumber":53,"Velocity":24,"Duration":86088,"SoundDuration":86088,"Delta":155588047},{"NoteNumber":51,"Velocity":21,"Duration":85733,"SoundDuration":85733,"Delta":155674136},{"NoteNumber":53,"Velocity":24,"Duration":85647,"SoundDuration":85647,"Delta":155759869},{"NoteNumber":51,"Velocity":21,"Duration":85389,"SoundDuration":85389,"Delta":155845517},{"NoteNumber":53,"Velocity":24,"Duration":85219,"SoundDuration":85219,"Delta":155930907},{"NoteNumber":51,"Velocity":21,"Duration":85048,"SoundDuration":85048,"Delta":156016126},{"NoteNumber":63,"Velocity":39,"Duration":529513,"SoundDuration":529513,"Delta":156101175},{"NoteNumber":54,"Velocity":22,"Duration":529513,"SoundDuration":529513,"Delta":156101175},{"NoteNumber":59,"Velocity":26,"Duration":529513,"SoundDuration":529513,"Delta":156101175},{"NoteNumber":53,"Velocity":24,"Duration":128352,"SoundDuration":128352,"Delta":156101175},{"NoteNumber":51,"Velocity":21,"Duration":131579,"SoundDuration":131579,"Delta":156229527},{"NoteNumber":53,"Velocity":24,"Duration":67056,"SoundDuration":67056,"Delta":156361107},{"NoteNumber":51,"Velocity":20,"Duration":67927,"SoundDuration":67927,"Delta":156428164},{"NoteNumber":49,"Velocity":24,"Duration":68476,"SoundDuration":68476,"Delta":156496091},{"NoteNumber":51,"Velocity":18,"Duration":66121,"SoundDuration":66121,"Delta":156564567},{"NoteNumber":56,"Velocity":27,"Duration":512338,"SoundDuration":512338,"Delta":156630688},{"NoteNumber":59,"Velocity":27,"Duration":512338,"SoundDuration":512338,"Delta":156630688},{"NoteNumber":61,"Velocity":36,"Duration":512338,"SoundDuration":512338,"Delta":156630688},{"NoteNumber":53,"Velocity":32,"Duration":512338,"SoundDuration":512338,"Delta":156630688},{"NoteNumber":68,"Velocity":39,"Duration":512338,"SoundDuration":512338,"Delta":157143027},{"NoteNumber":59,"Velocity":23,"Duration":512338,"SoundDuration":512338,"Delta":157143027},{"NoteNumber":65,"Velocity":27,"Duration":512338,"SoundDuration":512338,"Delta":157143027},{"NoteNumber":37,"Velocity":25,"Duration":512338,"SoundDuration":512338,"Delta":157143027},{"NoteNumber":70,"Velocity":39,"Duration":519882,"SoundDuration":519882,"Delta":157655366},{"NoteNumber":59,"Velocity":23,"Duration":519882,"SoundDuration":519882,"Delta":157655366},{"NoteNumber":65,"Velocity":27,"Duration":519882,"SoundDuration":519882,"Delta":157655366},{"NoteNumber":49,"Velocity":27,"Duration":388025,"SoundDuration":388025,"Delta":157655366},{"NoteNumber":50,"Velocity":26,"Duration":65928,"SoundDuration":65928,"Delta":158043392},{"NoteNumber":51,"Velocity":26,"Duration":65928,"SoundDuration":65928,"Delta":158109320},{"NoteNumber":66,"Velocity":46,"Duration":1046580,"SoundDuration":1046580,"Delta":158175249},{"NoteNumber":54,"Velocity":25,"Duration":535362,"SoundDuration":535362,"Delta":158175249},{"NoteNumber":59,"Velocity":30,"Duration":535362,"SoundDuration":535362,"Delta":158175249},{"NoteNumber":53,"Velocity":25,"Duration":91554,"SoundDuration":91554,"Delta":158175249},{"NoteNumber":51,"Velocity":21,"Duration":90570,"SoundDuration":90570,"Delta":158266803},{"NoteNumber":53,"Velocity":24,"Duration":89697,"SoundDuration":89697,"Delta":158357374},{"NoteNumber":51,"Velocity":22,"Duration":88738,"SoundDuration":88738,"Delta":158447071},{"NoteNumber":53,"Velocity":24,"Duration":87903,"SoundDuration":87903,"Delta":158535809},{"NoteNumber":51,"Velocity":21,"Duration":86899,"SoundDuration":86899,"Delta":158623712},{"NoteNumber":54,"Velocity":23,"Duration":511217,"SoundDuration":511217,"Delta":158710611},{"NoteNumber":59,"Velocity":27,"Duration":511217,"SoundDuration":511217,"Delta":158710611},{"NoteNumber":53,"Velocity":24,"Duration":85733,"SoundDuration":85733,"Delta":158710611},{"NoteNumber":51,"Velocity":21,"Duration":85561,"SoundDuration":85561,"Delta":158796345},{"NoteNumber":53,"Velocity":24,"Duration":85389,"SoundDuration":85389,"Delta":158881907},{"NoteNumber":51,"Velocity":21,"Duration":85048,"SoundDuration":85048,"Delta":158967297},{"NoteNumber":53,"Velocity":24,"Duration":84872,"SoundDuration":84872,"Delta":159052345},{"NoteNumber":51,"Velocity":21,"Duration":84611,"SoundDuration":84611,"Delta":159137217},{"NoteNumber":63,"Velocity":43,"Duration":523126,"SoundDuration":523126,"Delta":159221829},{"NoteNumber":54,"Velocity":23,"Duration":523126,"SoundDuration":523126,"Delta":159221829},{"NoteNumber":59,"Velocity":27,"Duration":523126,"SoundDuration":523126,"Delta":159221829},{"NoteNumber":53,"Velocity":24,"Duration":127310,"SoundDuration":127310,"Delta":159221829},{"NoteNumber":51,"Velocity":21,"Duration":129763,"SoundDuration":129763,"Delta":159349139},{"NoteNumber":53,"Velocity":24,"Duration":65927,"SoundDuration":65927,"Delta":159478903},{"NoteNumber":51,"Velocity":20,"Duration":66482,"SoundDuration":66482,"Delta":159544830},{"NoteNumber":49,"Velocity":24,"Duration":68048,"SoundDuration":68048,"Delta":159611312},{"NoteNumber":51,"Velocity":18,"Duration":65594,"SoundDuration":65594,"Delta":159679361},{"NoteNumber":56,"Velocity":27,"Duration":508172,"SoundDuration":508172,"Delta":159744956},{"NoteNumber":59,"Velocity":27,"Duration":508172,"SoundDuration":508172,"Delta":159744956},{"NoteNumber":61,"Velocity":31,"Duration":508172,"SoundDuration":508172,"Delta":159744956},{"NoteNumber":53,"Velocity":34,"Duration":508172,"SoundDuration":508172,"Delta":159744956},{"NoteNumber":68,"Velocity":44,"Duration":502092,"SoundDuration":502092,"Delta":160253129},{"NoteNumber":59,"Velocity":28,"Duration":502092,"SoundDuration":502092,"Delta":160253129},{"NoteNumber":65,"Velocity":34,"Duration":502092,"SoundDuration":502092,"Delta":160253129},{"NoteNumber":37,"Velocity":36,"Duration":502092,"SoundDuration":502092,"Delta":160253129},{"NoteNumber":70,"Velocity":45,"Duration":512338,"SoundDuration":512338,"Delta":160755221},{"NoteNumber":59,"Velocity":30,"Duration":512338,"SoundDuration":512338,"Delta":160755221},{"NoteNumber":65,"Velocity":36,"Duration":512338,"SoundDuration":512338,"Delta":160755221},{"NoteNumber":49,"Velocity":17,"Duration":512338,"SoundDuration":512338,"Delta":160755221},{"NoteNumber":56,"Velocity":17,"Duration":512338,"SoundDuration":512338,"Delta":160755221},{"NoteNumber":61,"Velocity":26,"Duration":512338,"SoundDuration":512338,"Delta":160755221},{"NoteNumber":71,"Velocity":47,"Duration":512338,"SoundDuration":512338,"Delta":161267560},{"NoteNumber":59,"Velocity":31,"Duration":512338,"SoundDuration":512338,"Delta":161267560},{"NoteNumber":65,"Velocity":37,"Duration":512338,"SoundDuration":512338,"Delta":161267560},{"NoteNumber":49,"Velocity":20,"Duration":512338,"SoundDuration":512338,"Delta":161267560},{"NoteNumber":56,"Velocity":20,"Duration":512338,"SoundDuration":512338,"Delta":161267560},{"NoteNumber":61,"Velocity":28,"Duration":512338,"SoundDuration":512338,"Delta":161267560},{"NoteNumber":72,"Velocity":48,"Duration":525209,"SoundDuration":525209,"Delta":161779899},{"NoteNumber":60,"Velocity":32,"Duration":525209,"SoundDuration":525209,"Delta":161779899},{"NoteNumber":65,"Velocity":39,"Duration":525209,"SoundDuration":525209,"Delta":161779899},{"NoteNumber":49,"Velocity":21,"Duration":525209,"SoundDuration":525209,"Delta":161779899},{"NoteNumber":56,"Velocity":21,"Duration":525209,"SoundDuration":525209,"Delta":161779899},{"NoteNumber":59,"Velocity":32,"Duration":525209,"SoundDuration":525209,"Delta":161779899},{"NoteNumber":73,"Velocity":52,"Duration":518717,"SoundDuration":518717,"Delta":162305109},{"NoteNumber":61,"Velocity":36,"Duration":518717,"SoundDuration":518717,"Delta":162305109},{"NoteNumber":65,"Velocity":43,"Duration":518717,"SoundDuration":518717,"Delta":162305109},{"NoteNumber":49,"Velocity":21,"Duration":518717,"SoundDuration":518717,"Delta":162305109},{"NoteNumber":56,"Velocity":21,"Duration":518717,"SoundDuration":518717,"Delta":162305109},{"NoteNumber":59,"Velocity":35,"Duration":518717,"SoundDuration":518717,"Delta":162305109},{"NoteNumber":74,"Velocity":56,"Duration":527425,"SoundDuration":527425,"Delta":162823826},{"NoteNumber":62,"Velocity":36,"Duration":527425,"SoundDuration":527425,"Delta":162823826},{"NoteNumber":65,"Velocity":45,"Duration":527425,"SoundDuration":527425,"Delta":162823826},{"NoteNumber":49,"Velocity":26,"Duration":527425,"SoundDuration":527425,"Delta":162823826},{"NoteNumber":56,"Velocity":26,"Duration":527425,"SoundDuration":527425,"Delta":162823826},{"NoteNumber":59,"Velocity":37,"Duration":527425,"SoundDuration":527425,"Delta":162823826},{"NoteNumber":75,"Velocity":52,"Duration":559232,"SoundDuration":559232,"Delta":163351252},{"NoteNumber":63,"Velocity":34,"Duration":559232,"SoundDuration":559232,"Delta":163351252},{"NoteNumber":65,"Velocity":42,"Duration":556901,"SoundDuration":556901,"Delta":163351252},{"NoteNumber":49,"Velocity":21,"Duration":559232,"SoundDuration":559232,"Delta":163351252},{"NoteNumber":56,"Velocity":21,"Duration":559232,"SoundDuration":559232,"Delta":163351252},{"NoteNumber":59,"Velocity":31,"Duration":553406,"SoundDuration":553406,"Delta":163351252},{"NoteNumber":65,"Velocity":35,"Duration":548746,"SoundDuration":548746,"Delta":163910484},{"NoteNumber":59,"Velocity":24,"Duration":548746,"SoundDuration":548746,"Delta":163910484},{"NoteNumber":61,"Velocity":28,"Duration":548746,"SoundDuration":548746,"Delta":163910484},{"NoteNumber":49,"Velocity":17,"Duration":548746,"SoundDuration":548746,"Delta":163910484},{"NoteNumber":56,"Velocity":26,"Duration":548746,"SoundDuration":548746,"Delta":163910484},{"NoteNumber":66,"Velocity":36,"Duration":548747,"SoundDuration":548747,"Delta":164459231},{"NoteNumber":58,"Velocity":26,"Duration":548747,"SoundDuration":548747,"Delta":164459231},{"NoteNumber":61,"Velocity":30,"Duration":548747,"SoundDuration":548747,"Delta":164459231},{"NoteNumber":42,"Velocity":18,"Duration":548747,"SoundDuration":548747,"Delta":164459231},{"NoteNumber":49,"Velocity":25,"Duration":548747,"SoundDuration":548747,"Delta":164459231},{"NoteNumber":58,"Velocity":39,"Duration":269299,"SoundDuration":269299,"Delta":165007978},{"NoteNumber":56,"Velocity":37,"Duration":259428,"SoundDuration":259428,"Delta":165277278},{"NoteNumber":54,"Velocity":36,"Duration":258620,"SoundDuration":258620,"Delta":165536706},{"NoteNumber":53,"Velocity":35,"Duration":257510,"SoundDuration":257510,"Delta":165795326},{"NoteNumber":56,"Velocity":30,"Duration":1524650,"SoundDuration":1524650,"Delta":166052837},{"NoteNumber":60,"Velocity":30,"Duration":1524650,"SoundDuration":1524650,"Delta":166052837},{"NoteNumber":66,"Velocity":36,"Duration":1524650,"SoundDuration":1524650,"Delta":166052837},{"NoteNumber":68,"Velocity":36,"Duration":1524650,"SoundDuration":1524650,"Delta":166052837},{"NoteNumber":53,"Velocity":39,"Duration":252101,"SoundDuration":252101,"Delta":166052837},{"NoteNumber":51,"Velocity":39,"Duration":252100,"SoundDuration":252100,"Delta":166304938},{"NoteNumber":49,"Velocity":37,"Duration":252101,"SoundDuration":252101,"Delta":166557039},{"NoteNumber":48,"Velocity":36,"Duration":252101,"SoundDuration":252101,"Delta":166809140},{"NoteNumber":46,"Velocity":35,"Duration":254237,"SoundDuration":254237,"Delta":167061241},{"NoteNumber":44,"Velocity":35,"Duration":262008,"SoundDuration":262008,"Delta":167315478},{"NoteNumber":56,"Velocity":30,"Duration":530972,"SoundDuration":530972,"Delta":167577487},{"NoteNumber":61,"Velocity":30,"Duration":1568228,"SoundDuration":1568228,"Delta":167577487},{"NoteNumber":65,"Velocity":30,"Duration":1568228,"SoundDuration":1568228,"Delta":167577487},{"NoteNumber":68,"Velocity":36,"Duration":1568228,"SoundDuration":1568228,"Delta":167577487},{"NoteNumber":37,"Velocity":35,"Duration":265486,"SoundDuration":265486,"Delta":167577487},{"NoteNumber":58,"Velocity":42,"Duration":265651,"SoundDuration":265651,"Delta":168108460},{"NoteNumber":56,"Velocity":37,"Duration":259606,"SoundDuration":259606,"Delta":168374111},{"NoteNumber":54,"Velocity":36,"Duration":257243,"SoundDuration":257243,"Delta":168633718},{"NoteNumber":53,"Velocity":36,"Duration":254754,"SoundDuration":254754,"Delta":168890961},{"NoteNumber":60,"Velocity":31,"Duration":995919,"SoundDuration":995919,"Delta":169145715},{"NoteNumber":66,"Velocity":37,"Duration":1515555,"SoundDuration":1515555,"Delta":169145715},{"NoteNumber":68,"Velocity":37,"Duration":1515555,"SoundDuration":1515555,"Delta":169145715},{"NoteNumber":53,"Velocity":39,"Duration":251046,"SoundDuration":251046,"Delta":169145715},{"NoteNumber":51,"Velocity":39,"Duration":251046,"SoundDuration":251046,"Delta":169396761},{"NoteNumber":49,"Velocity":37,"Duration":246913,"SoundDuration":246913,"Delta":169647807},{"NoteNumber":48,"Velocity":36,"Duration":246913,"SoundDuration":246913,"Delta":169894721},{"NoteNumber":61,"Velocity":42,"Duration":255318,"SoundDuration":255318,"Delta":170141634},{"NoteNumber":46,"Velocity":36,"Duration":255318,"SoundDuration":255318,"Delta":170141634},{"NoteNumber":63,"Velocity":37,"Duration":264317,"SoundDuration":264317,"Delta":170396953},{"NoteNumber":44,"Velocity":35,"Duration":264317,"SoundDuration":264317,"Delta":170396953},{"NoteNumber":64,"Velocity":45,"Duration":518896,"SoundDuration":518896,"Delta":170661270},{"NoteNumber":68,"Velocity":45,"Duration":1273191,"SoundDuration":1273191,"Delta":170661270},{"NoteNumber":37,"Velocity":35,"Duration":259447,"SoundDuration":259447,"Delta":170661270},{"NoteNumber":65,"Velocity":39,"Duration":1019781,"SoundDuration":1019781,"Delta":171180166},{"NoteNumber":56,"Velocity":35,"Duration":259447,"SoundDuration":259447,"Delta":171180166},{"NoteNumber":58,"Velocity":36,"Duration":247933,"SoundDuration":247933,"Delta":171439614},{"NoteNumber":60,"Velocity":37,"Duration":246913,"SoundDuration":246913,"Delta":171687548},{"NoteNumber":77,"Velocity":52,"Duration":265486,"SoundDuration":265486,"Delta":171934462},{"NoteNumber":61,"Velocity":41,"Duration":265486,"SoundDuration":265486,"Delta":171934462},{"NoteNumber":63,"Velocity":39,"Duration":1545969,"SoundDuration":1545969,"Delta":172199948},{"NoteNumber":69,"Velocity":39,"Duration":1022591,"SoundDuration":1022591,"Delta":172199948},{"NoteNumber":77,"Velocity":49,"Duration":1022591,"SoundDuration":1022591,"Delta":172199948},{"NoteNumber":61,"Velocity":45,"Duration":258130,"SoundDuration":258130,"Delta":172199948},{"NoteNumber":60,"Velocity":37,"Duration":258131,"SoundDuration":258131,"Delta":172458079},{"NoteNumber":52,"Velocity":41,"Duration":253164,"SoundDuration":253164,"Delta":172716210},{"NoteNumber":53,"Velocity":36,"Duration":253164,"SoundDuration":253164,"Delta":172969375},{"NoteNumber":69,"Velocity":39,"Duration":523378,"SoundDuration":523378,"Delta":173222539},{"NoteNumber":61,"Velocity":39,"Duration":261688,"SoundDuration":261688,"Delta":173222539},{"NoteNumber":60,"Velocity":35,"Duration":261689,"SoundDuration":261689,"Delta":173484228},{"NoteNumber":70,"Velocity":46,"Duration":1034576,"SoundDuration":1034576,"Delta":173745917},{"NoteNumber":61,"Velocity":39,"Duration":1547996,"SoundDuration":1547996,"Delta":173745917},{"NoteNumber":58,"Velocity":39,"Duration":523377,"SoundDuration":523377,"Delta":173745917},{"NoteNumber":46,"Velocity":41,"Duration":258375,"SoundDuration":258375,"Delta":174269295},{"NoteNumber":53,"Velocity":35,"Duration":252823,"SoundDuration":252823,"Delta":174527671},{"NoteNumber":65,"Velocity":37,"Duration":513420,"SoundDuration":513420,"Delta":174780494},{"NoteNumber":73,"Velocity":45,"Duration":513420,"SoundDuration":513420,"Delta":174780494},{"NoteNumber":56,"Velocity":37,"Duration":247933,"SoundDuration":247933,"Delta":174780494},{"NoteNumber":60,"Velocity":35,"Duration":265486,"SoundDuration":265486,"Delta":175028428},{"NoteNumber":61,"Velocity":34,"Duration":1548311,"SoundDuration":1548311,"Delta":175293914},{"NoteNumber":63,"Velocity":39,"Duration":1548311,"SoundDuration":1548311,"Delta":175293914},{"NoteNumber":67,"Velocity":47,"Duration":1548311,"SoundDuration":1548311,"Delta":175293914},{"NoteNumber":60,"Velocity":39,"Duration":257069,"SoundDuration":257069,"Delta":175293914},{"NoteNumber":58,"Velocity":35,"Duration":257069,"SoundDuration":257069,"Delta":175550984},{"NoteNumber":50,"Velocity":36,"Duration":253164,"SoundDuration":253164,"Delta":175808053},{"NoteNumber":51,"Velocity":35,"Duration":253164,"SoundDuration":253164,"Delta":176061218},{"NoteNumber":60,"Velocity":37,"Duration":263922,"SoundDuration":263922,"Delta":176314382},{"NoteNumber":58,"Velocity":35,"Duration":263921,"SoundDuration":263921,"Delta":176578304},{"NoteNumber":60,"Velocity":39,"Duration":1047712,"SoundDuration":1047712,"Delta":176842226},{"NoteNumber":63,"Velocity":39,"Duration":1047712,"SoundDuration":1047712,"Delta":176842226},{"NoteNumber":68,"Velocity":47,"Duration":1047712,"SoundDuration":1047712,"Delta":176842226},{"NoteNumber":56,"Velocity":37,"Duration":527844,"SoundDuration":527844,"Delta":176842226},{"NoteNumber":58,"Velocity":39,"Duration":260597,"SoundDuration":260597,"Delta":177370070},{"NoteNumber":56,"Velocity":37,"Duration":259270,"SoundDuration":259270,"Delta":177630668},{"NoteNumber":61,"Velocity":37,"Duration":513773,"SoundDuration":513773,"Delta":177889939},{"NoteNumber":65,"Velocity":37,"Duration":513773,"SoundDuration":513773,"Delta":177889939},{"NoteNumber":68,"Velocity":45,"Duration":513773,"SoundDuration":513773,"Delta":177889939},{"NoteNumber":54,"Velocity":36,"Duration":257600,"SoundDuration":257600,"Delta":177889939},{"NoteNumber":53,"Velocity":35,"Duration":256173,"SoundDuration":256173,"Delta":178147539},{"NoteNumber":60,"Velocity":30,"Duration":1522574,"SoundDuration":1522574,"Delta":178403713},{"NoteNumber":66,"Velocity":36,"Duration":1522574,"SoundDuration":1522574,"Delta":178403713},{"NoteNumber":68,"Velocity":36,"Duration":1522574,"SoundDuration":1522574,"Delta":178403713},{"NoteNumber":53,"Velocity":39,"Duration":253164,"SoundDuration":253164,"Delta":178403713},{"NoteNumber":51,"Velocity":39,"Duration":253164,"SoundDuration":253164,"Delta":178656877},{"NoteNumber":49,"Velocity":37,"Duration":250000,"SoundDuration":250000,"Delta":178910042},{"NoteNumber":48,"Velocity":36,"Duration":250000,"SoundDuration":250000,"Delta":179160042},{"NoteNumber":46,"Velocity":35,"Duration":254237,"SoundDuration":254237,"Delta":179410042},{"NoteNumber":44,"Velocity":35,"Duration":262008,"SoundDuration":262008,"Delta":179664279},{"NoteNumber":61,"Velocity":39,"Duration":1050342,"SoundDuration":1050342,"Delta":179926288},{"NoteNumber":65,"Velocity":42,"Duration":1564481,"SoundDuration":1564481,"Delta":179926288},{"NoteNumber":68,"Velocity":46,"Duration":1564481,"SoundDuration":1564481,"Delta":179926288},{"NoteNumber":37,"Velocity":35,"Duration":264340,"SoundDuration":264340,"Delta":179926288},{"NoteNumber":58,"Velocity":42,"Duration":260597,"SoundDuration":260597,"Delta":180455435},{"NoteNumber":56,"Velocity":37,"Duration":260597,"SoundDuration":260597,"Delta":180716033},{"NoteNumber":56,"Velocity":35,"Duration":514139,"SoundDuration":514139,"Delta":180976630},{"NoteNumber":54,"Velocity":36,"Duration":257069,"SoundDuration":257069,"Delta":180976630},{"NoteNumber":53,"Velocity":36,"Duration":257069,"SoundDuration":257069,"Delta":181233700},{"NoteNumber":60,"Velocity":45,"Duration":514139,"SoundDuration":514139,"Delta":181490769},{"NoteNumber":66,"Velocity":45,"Duration":1560096,"SoundDuration":1560096,"Delta":181490769},{"NoteNumber":68,"Velocity":45,"Duration":1560096,"SoundDuration":1560096,"Delta":181490769},{"NoteNumber":53,"Velocity":39,"Duration":257069,"SoundDuration":257069,"Delta":181490769},{"NoteNumber":51,"Velocity":39,"Duration":257069,"SoundDuration":257069,"Delta":181747839},{"NoteNumber":58,"Velocity":38,"Duration":256419,"SoundDuration":256419,"Delta":182004908},{"NoteNumber":49,"Velocity":37,"Duration":256419,"SoundDuration":256419,"Delta":182004908},{"NoteNumber":56,"Velocity":34,"Duration":259409,"SoundDuration":259409,"Delta":182261328},{"NoteNumber":48,"Velocity":36,"Duration":259409,"SoundDuration":259409,"Delta":182261328},{"NoteNumber":61,"Velocity":42,"Duration":265064,"SoundDuration":265064,"Delta":182520737},{"NoteNumber":46,"Velocity":36,"Duration":265064,"SoundDuration":265064,"Delta":182520737},{"NoteNumber":63,"Velocity":37,"Duration":265064,"SoundDuration":265064,"Delta":182785801},{"NoteNumber":44,"Velocity":35,"Duration":265064,"SoundDuration":265064,"Delta":182785801},{"NoteNumber":65,"Velocity":39,"Duration":1053005,"SoundDuration":1053005,"Delta":183050866},{"NoteNumber":68,"Velocity":47,"Duration":1589582,"SoundDuration":1589582,"Delta":183050866},{"NoteNumber":37,"Velocity":35,"Duration":265064,"SoundDuration":265064,"Delta":183050866},{"NoteNumber":56,"Velocity":39,"Duration":261437,"SoundDuration":261437,"Delta":183580995},{"NoteNumber":55,"Velocity":36,"Duration":261437,"SoundDuration":261437,"Delta":183842433},{"NoteNumber":64,"Velocity":42,"Duration":536576,"SoundDuration":536576,"Delta":184103871},{"NoteNumber":58,"Velocity":39,"Duration":268288,"SoundDuration":268288,"Delta":184103871},{"NoteNumber":56,"Velocity":34,"Duration":268288,"SoundDuration":268288,"Delta":184372159},{"NoteNumber":68,"Velocity":45,"Duration":1054179,"SoundDuration":1054179,"Delta":184640448},{"NoteNumber":63,"Velocity":38,"Duration":1586796,"SoundDuration":1586796,"Delta":184640448},{"NoteNumber":59,"Velocity":39,"Duration":531303,"SoundDuration":531303,"Delta":184640448},{"NoteNumber":47,"Velocity":43,"Duration":261437,"SoundDuration":261437,"Delta":185171751},{"NoteNumber":53,"Velocity":39,"Duration":261437,"SoundDuration":261437,"Delta":185433189},{"NoteNumber":66,"Velocity":38,"Duration":532617,"SoundDuration":532617,"Delta":185694627},{"NoteNumber":56,"Velocity":43,"Duration":262054,"SoundDuration":262054,"Delta":185694627},{"NoteNumber":54,"Velocity":39,"Duration":270563,"SoundDuration":270563,"Delta":185956681},{"NoteNumber":62,"Velocity":37,"Duration":531303,"SoundDuration":531303,"Delta":186227244},{"NoteNumber":66,"Velocity":45,"Duration":1070029,"SoundDuration":1070029,"Delta":186227244},{"NoteNumber":58,"Velocity":45,"Duration":531303,"SoundDuration":531303,"Delta":186227244},{"NoteNumber":61,"Velocity":39,"Duration":1070029,"SoundDuration":1070029,"Delta":186758547},{"NoteNumber":42,"Velocity":41,"Duration":265651,"SoundDuration":265651,"Delta":186758547},{"NoteNumber":49,"Velocity":36,"Duration":273075,"SoundDuration":273075,"Delta":187024199},{"NoteNumber":63,"Velocity":39,"Duration":531303,"SoundDuration":531303,"Delta":187297274},{"NoteNumber":73,"Velocity":47,"Duration":531303,"SoundDuration":531303,"Delta":187297274},{"NoteNumber":54,"Velocity":41,"Duration":265651,"SoundDuration":265651,"Delta":187297274},{"NoteNumber":58,"Velocity":36,"Duration":265651,"SoundDuration":265651,"Delta":187562925},{"NoteNumber":61,"Velocity":41,"Duration":1590588,"SoundDuration":1590588,"Delta":187828577},{"NoteNumber":65,"Velocity":41,"Duration":1593908,"SoundDuration":1593908,"Delta":187828577},{"NoteNumber":73,"Velocity":48,"Duration":1593908,"SoundDuration":1593908,"Delta":187828577},{"NoteNumber":56,"Velocity":43,"Duration":531302,"SoundDuration":531302,"Delta":187828577},{"NoteNumber":37,"Velocity":39,"Duration":265651,"SoundDuration":265651,"Delta":188359880},{"NoteNumber":44,"Velocity":35,"Duration":265651,"SoundDuration":265651,"Delta":188625531},{"NoteNumber":49,"Velocity":39,"Duration":265651,"SoundDuration":265651,"Delta":188891183},{"NoteNumber":56,"Velocity":36,"Duration":265651,"SoundDuration":265651,"Delta":189156834},{"NoteNumber":65,"Velocity":31,"Duration":1611805,"SoundDuration":1611805,"Delta":189422486},{"NoteNumber":68,"Velocity":37,"Duration":1062605,"SoundDuration":1062605,"Delta":189422486},{"NoteNumber":61,"Velocity":39,"Duration":265651,"SoundDuration":265651,"Delta":189422486},{"NoteNumber":60,"Velocity":34,"Duration":265651,"SoundDuration":265651,"Delta":189688137},{"NoteNumber":59,"Velocity":35,"Duration":265651,"SoundDuration":265651,"Delta":189953789},{"NoteNumber":58,"Velocity":34,"Duration":265651,"SoundDuration":265651,"Delta":190219440},{"NoteNumber":69,"Velocity":45,"Duration":549199,"SoundDuration":549199,"Delta":190485092},{"NoteNumber":59,"Velocity":41,"Duration":269687,"SoundDuration":269687,"Delta":190485092},{"NoteNumber":49,"Velocity":35,"Duration":279512,"SoundDuration":279512,"Delta":190754779},{"NoteNumber":70,"Velocity":57,"Duration":538600,"SoundDuration":538600,"Delta":191034291},{"NoteNumber":42,"Velocity":37,"Duration":538600,"SoundDuration":538600,"Delta":191034291},{"NoteNumber":65,"Velocity":49,"Duration":504413,"SoundDuration":504413,"Delta":191572891},{"NoteNumber":58,"Velocity":25,"Duration":504413,"SoundDuration":504413,"Delta":191572891},{"NoteNumber":63,"Velocity":25,"Duration":504413,"SoundDuration":504413,"Delta":191572891},{"NoteNumber":54,"Velocity":21,"Duration":504413,"SoundDuration":504413,"Delta":191572891},{"NoteNumber":49,"Velocity":21,"Duration":504413,"SoundDuration":504413,"Delta":191572891},{"NoteNumber":66,"Velocity":52,"Duration":516871,"SoundDuration":516871,"Delta":192077305},{"NoteNumber":58,"Velocity":22,"Duration":516871,"SoundDuration":516871,"Delta":192077305},{"NoteNumber":49,"Velocity":18,"Duration":516871,"SoundDuration":516871,"Delta":192077305},{"NoteNumber":54,"Velocity":18,"Duration":516871,"SoundDuration":516871,"Delta":192077305},{"NoteNumber":61,"Velocity":23,"Duration":516871,"SoundDuration":516871,"Delta":192077305},{"NoteNumber":75,"Velocity":56,"Duration":1017906,"SoundDuration":1017906,"Delta":192594177},{"NoteNumber":42,"Velocity":34,"Duration":510421,"SoundDuration":510421,"Delta":192594177},{"NoteNumber":58,"Velocity":20,"Duration":507485,"SoundDuration":507485,"Delta":193104598},{"NoteNumber":66,"Velocity":25,"Duration":507485,"SoundDuration":507485,"Delta":193104598},{"NoteNumber":63,"Velocity":23,"Duration":507485,"SoundDuration":507485,"Delta":193104598},{"NoteNumber":49,"Velocity":18,"Duration":507485,"SoundDuration":507485,"Delta":193104598},{"NoteNumber":54,"Velocity":18,"Duration":507485,"SoundDuration":507485,"Delta":193104598},{"NoteNumber":73,"Velocity":52,"Duration":517152,"SoundDuration":517152,"Delta":193612083},{"NoteNumber":58,"Velocity":20,"Duration":517152,"SoundDuration":517152,"Delta":193612083},{"NoteNumber":66,"Velocity":25,"Duration":517152,"SoundDuration":517152,"Delta":193612083},{"NoteNumber":49,"Velocity":15,"Duration":517152,"SoundDuration":517152,"Delta":193612083},{"NoteNumber":54,"Velocity":15,"Duration":517152,"SoundDuration":517152,"Delta":193612083},{"NoteNumber":61,"Velocity":18,"Duration":517152,"SoundDuration":517152,"Delta":193612083},{"NoteNumber":73,"Velocity":52,"Duration":509121,"SoundDuration":509121,"Delta":194129235},{"NoteNumber":37,"Velocity":33,"Duration":509121,"SoundDuration":509121,"Delta":194129235},{"NoteNumber":66,"Velocity":44,"Duration":509122,"SoundDuration":509122,"Delta":194638357},{"NoteNumber":59,"Velocity":23,"Duration":509122,"SoundDuration":509122,"Delta":194638357},{"NoteNumber":63,"Velocity":27,"Duration":509122,"SoundDuration":509122,"Delta":194638357},{"NoteNumber":54,"Velocity":23,"Duration":509122,"SoundDuration":509122,"Delta":194638357},{"NoteNumber":49,"Velocity":23,"Duration":509122,"SoundDuration":509122,"Delta":194638357},{"NoteNumber":68,"Velocity":45,"Duration":515553,"SoundDuration":515553,"Delta":195147479},{"NoteNumber":65,"Velocity":27,"Duration":515553,"SoundDuration":515553,"Delta":195147479},{"NoteNumber":59,"Velocity":22,"Duration":515553,"SoundDuration":515553,"Delta":195147479},{"NoteNumber":49,"Velocity":18,"Duration":515553,"SoundDuration":515553,"Delta":195147479},{"NoteNumber":54,"Velocity":18,"Duration":515553,"SoundDuration":515553,"Delta":195147479},{"NoteNumber":61,"Velocity":23,"Duration":515553,"SoundDuration":515553,"Delta":195147479},{"NoteNumber":70,"Velocity":52,"Duration":3584669,"SoundDuration":3584669,"Delta":195663032},{"NoteNumber":42,"Velocity":34,"Duration":515552,"SoundDuration":515552,"Delta":195663032},{"NoteNumber":58,"Velocity":24,"Duration":509121,"SoundDuration":509121,"Delta":196178585},{"NoteNumber":66,"Velocity":28,"Duration":509121,"SoundDuration":509121,"Delta":196178585},{"NoteNumber":63,"Velocity":24,"Duration":509121,"SoundDuration":509121,"Delta":196178585},{"NoteNumber":49,"Velocity":20,"Duration":509121,"SoundDuration":509121,"Delta":196178585},{"NoteNumber":54,"Velocity":20,"Duration":509121,"SoundDuration":509121,"Delta":196178585},{"NoteNumber":58,"Velocity":23,"Duration":515553,"SoundDuration":515553,"Delta":196687707},{"NoteNumber":66,"Velocity":27,"Duration":515553,"SoundDuration":515553,"Delta":196687707},{"NoteNumber":49,"Velocity":17,"Duration":515553,"SoundDuration":515553,"Delta":196687707},{"NoteNumber":54,"Velocity":17,"Duration":515553,"SoundDuration":515553,"Delta":196687707},{"NoteNumber":61,"Velocity":22,"Duration":515553,"SoundDuration":515553,"Delta":196687707},{"NoteNumber":58,"Velocity":23,"Duration":515552,"SoundDuration":515552,"Delta":197203260},{"NoteNumber":66,"Velocity":27,"Duration":515552,"SoundDuration":515552,"Delta":197203260},{"NoteNumber":49,"Velocity":12,"Duration":515552,"SoundDuration":515552,"Delta":197203260},{"NoteNumber":54,"Velocity":15,"Duration":515552,"SoundDuration":515552,"Delta":197203260},{"NoteNumber":61,"Velocity":22,"Duration":515552,"SoundDuration":515552,"Delta":197203260},{"NoteNumber":61,"Velocity":20,"Duration":507485,"SoundDuration":507485,"Delta":197718813},{"NoteNumber":66,"Velocity":24,"Duration":507485,"SoundDuration":507485,"Delta":197718813},{"NoteNumber":49,"Velocity":18,"Duration":507485,"SoundDuration":507485,"Delta":197718813},{"NoteNumber":54,"Velocity":18,"Duration":507485,"SoundDuration":507485,"Delta":197718813},{"NoteNumber":59,"Velocity":23,"Duration":507485,"SoundDuration":507485,"Delta":197718813},{"NoteNumber":61,"Velocity":20,"Duration":513918,"SoundDuration":513918,"Delta":198226298},{"NoteNumber":66,"Velocity":24,"Duration":513918,"SoundDuration":513918,"Delta":198226298},{"NoteNumber":49,"Velocity":12,"Duration":513918,"SoundDuration":513918,"Delta":198226298},{"NoteNumber":54,"Velocity":15,"Duration":513918,"SoundDuration":513918,"Delta":198226298},{"NoteNumber":58,"Velocity":21,"Duration":513918,"SoundDuration":513918,"Delta":198226298},{"NoteNumber":61,"Velocity":20,"Duration":507485,"SoundDuration":507485,"Delta":198740217},{"NoteNumber":66,"Velocity":24,"Duration":507485,"SoundDuration":507485,"Delta":198740217},{"NoteNumber":49,"Velocity":13,"Duration":507485,"SoundDuration":507485,"Delta":198740217},{"NoteNumber":54,"Velocity":16,"Duration":507485,"SoundDuration":507485,"Delta":198740217},{"NoteNumber":58,"Velocity":21,"Duration":507485,"SoundDuration":507485,"Delta":198740217},{"NoteNumber":56,"Velocity":20,"Duration":507485,"SoundDuration":507485,"Delta":199247702},{"NoteNumber":61,"Velocity":24,"Duration":507485,"SoundDuration":507485,"Delta":199247702},{"NoteNumber":47,"Velocity":20,"Duration":507485,"SoundDuration":507485,"Delta":199247702},{"NoteNumber":49,"Velocity":24,"Duration":507485,"SoundDuration":507485,"Delta":199247702},{"NoteNumber":54,"Velocity":20,"Duration":513918,"SoundDuration":513918,"Delta":199755187},{"NoteNumber":61,"Velocity":24,"Duration":513918,"SoundDuration":513918,"Delta":199755187},{"NoteNumber":46,"Velocity":20,"Duration":513918,"SoundDuration":513918,"Delta":199755187},{"NoteNumber":49,"Velocity":24,"Duration":513918,"SoundDuration":513918,"Delta":199755187},{"NoteNumber":54,"Velocity":20,"Duration":518762,"SoundDuration":518762,"Delta":200269106},{"NoteNumber":61,"Velocity":24,"Duration":518762,"SoundDuration":518762,"Delta":200269106},{"NoteNumber":46,"Velocity":20,"Duration":518762,"SoundDuration":518762,"Delta":200269106},{"NoteNumber":49,"Velocity":24,"Duration":518762,"SoundDuration":518762,"Delta":200269106},{"NoteNumber":56,"Velocity":18,"Duration":512294,"SoundDuration":512294,"Delta":200787868},{"NoteNumber":61,"Velocity":23,"Duration":512294,"SoundDuration":512294,"Delta":200787868},{"NoteNumber":47,"Velocity":20,"Duration":512294,"SoundDuration":512294,"Delta":200787868},{"NoteNumber":49,"Velocity":24,"Duration":512294,"SoundDuration":512294,"Delta":200787868},{"NoteNumber":54,"Velocity":18,"Duration":512294,"SoundDuration":512294,"Delta":201300163},{"NoteNumber":61,"Velocity":23,"Duration":512294,"SoundDuration":512294,"Delta":201300163},{"NoteNumber":46,"Velocity":20,"Duration":512294,"SoundDuration":512294,"Delta":201300163},{"NoteNumber":49,"Velocity":24,"Duration":512294,"SoundDuration":512294,"Delta":201300163},{"NoteNumber":54,"Velocity":15,"Duration":512295,"SoundDuration":512295,"Delta":201812458},{"NoteNumber":61,"Velocity":23,"Duration":512295,"SoundDuration":512295,"Delta":201812458},{"NoteNumber":46,"Velocity":20,"Duration":512295,"SoundDuration":512295,"Delta":201812458},{"NoteNumber":49,"Velocity":24,"Duration":512295,"SoundDuration":512295,"Delta":201812458},{"NoteNumber":56,"Velocity":15,"Duration":518762,"SoundDuration":518762,"Delta":202324753},{"NoteNumber":61,"Velocity":24,"Duration":518762,"SoundDuration":518762,"Delta":202324753},{"NoteNumber":47,"Velocity":20,"Duration":518762,"SoundDuration":518762,"Delta":202324753},{"NoteNumber":49,"Velocity":24,"Duration":518762,"SoundDuration":518762,"Delta":202324753},{"NoteNumber":54,"Velocity":15,"Duration":528773,"SoundDuration":528773,"Delta":202843515},{"NoteNumber":61,"Velocity":23,"Duration":528773,"SoundDuration":528773,"Delta":202843515},{"NoteNumber":46,"Velocity":20,"Duration":528773,"SoundDuration":528773,"Delta":202843515},{"NoteNumber":49,"Velocity":24,"Duration":528773,"SoundDuration":528773,"Delta":202843515},{"NoteNumber":71,"Velocity":53,"Duration":515553,"SoundDuration":515553,"Delta":203372289},{"NoteNumber":44,"Velocity":31,"Duration":515553,"SoundDuration":515553,"Delta":203372289},{"NoteNumber":67,"Velocity":50,"Duration":504413,"SoundDuration":504413,"Delta":203887842},{"NoteNumber":59,"Velocity":26,"Duration":504413,"SoundDuration":504413,"Delta":203887842},{"NoteNumber":64,"Velocity":26,"Duration":504413,"SoundDuration":504413,"Delta":203887842},{"NoteNumber":56,"Velocity":22,"Duration":504413,"SoundDuration":504413,"Delta":203887842},{"NoteNumber":51,"Velocity":22,"Duration":504413,"SoundDuration":504413,"Delta":203887842},{"NoteNumber":68,"Velocity":57,"Duration":516871,"SoundDuration":516871,"Delta":204392256},{"NoteNumber":59,"Velocity":26,"Duration":516871,"SoundDuration":516871,"Delta":204392256},{"NoteNumber":51,"Velocity":17,"Duration":516871,"SoundDuration":516871,"Delta":204392256},{"NoteNumber":56,"Velocity":17,"Duration":516871,"SoundDuration":516871,"Delta":204392256},{"NoteNumber":63,"Velocity":22,"Duration":516871,"SoundDuration":516871,"Delta":204392256},{"NoteNumber":76,"Velocity":58,"Duration":1017906,"SoundDuration":1017906,"Delta":204909127},{"NoteNumber":44,"Velocity":38,"Duration":510421,"SoundDuration":510421,"Delta":204909127},{"NoteNumber":59,"Velocity":25,"Duration":507485,"SoundDuration":507485,"Delta":205419548},{"NoteNumber":68,"Velocity":30,"Duration":507485,"SoundDuration":507485,"Delta":205419548},{"NoteNumber":64,"Velocity":24,"Duration":507485,"SoundDuration":507485,"Delta":205419548},{"NoteNumber":51,"Velocity":18,"Duration":507485,"SoundDuration":507485,"Delta":205419548},{"NoteNumber":56,"Velocity":18,"Duration":507485,"SoundDuration":507485,"Delta":205419548},{"NoteNumber":75,"Velocity":54,"Duration":512294,"SoundDuration":512294,"Delta":205927033},{"NoteNumber":59,"Velocity":21,"Duration":512294,"SoundDuration":512294,"Delta":205927033},{"NoteNumber":68,"Velocity":25,"Duration":512294,"SoundDuration":512294,"Delta":205927033},{"NoteNumber":51,"Velocity":17,"Duration":512294,"SoundDuration":512294,"Delta":205927033},{"NoteNumber":56,"Velocity":17,"Duration":512294,"SoundDuration":512294,"Delta":205927033},{"NoteNumber":63,"Velocity":21,"Duration":512294,"SoundDuration":512294,"Delta":205927033},{"NoteNumber":75,"Velocity":54,"Duration":509121,"SoundDuration":509121,"Delta":206439328},{"NoteNumber":39,"Velocity":33,"Duration":509121,"SoundDuration":509121,"Delta":206439328},{"NoteNumber":68,"Velocity":49,"Duration":509122,"SoundDuration":509122,"Delta":206948450},{"NoteNumber":61,"Velocity":28,"Duration":509122,"SoundDuration":509122,"Delta":206948450},{"NoteNumber":64,"Velocity":25,"Duration":509122,"SoundDuration":509122,"Delta":206948450},{"NoteNumber":58,"Velocity":21,"Duration":509122,"SoundDuration":509122,"Delta":206948450},{"NoteNumber":51,"Velocity":21,"Duration":509122,"SoundDuration":509122,"Delta":206948450},{"NoteNumber":70,"Velocity":52,"Duration":515553,"SoundDuration":515553,"Delta":207457572},{"NoteNumber":67,"Velocity":27,"Duration":515553,"SoundDuration":515553,"Delta":207457572},{"NoteNumber":61,"Velocity":22,"Duration":515553,"SoundDuration":515553,"Delta":207457572},{"NoteNumber":51,"Velocity":16,"Duration":515553,"SoundDuration":515553,"Delta":207457572},{"NoteNumber":58,"Velocity":16,"Duration":515553,"SoundDuration":515553,"Delta":207457572},{"NoteNumber":63,"Velocity":21,"Duration":515553,"SoundDuration":515553,"Delta":207457572},{"NoteNumber":73,"Velocity":58,"Duration":515552,"SoundDuration":515552,"Delta":207973125},{"NoteNumber":44,"Velocity":34,"Duration":515552,"SoundDuration":515552,"Delta":207973125},{"NoteNumber":71,"Velocity":54,"Duration":3069116,"SoundDuration":3069116,"Delta":208488678},{"NoteNumber":59,"Velocity":22,"Duration":509121,"SoundDuration":509121,"Delta":208488678},{"NoteNumber":68,"Velocity":26,"Duration":509121,"SoundDuration":509121,"Delta":208488678},{"NoteNumber":64,"Velocity":25,"Duration":509121,"SoundDuration":509121,"Delta":208488678},{"NoteNumber":51,"Velocity":21,"Duration":509121,"SoundDuration":509121,"Delta":208488678},{"NoteNumber":56,"Velocity":21,"Duration":509121,"SoundDuration":509121,"Delta":208488678},{"NoteNumber":59,"Velocity":22,"Duration":515553,"SoundDuration":515553,"Delta":208997800},{"NoteNumber":68,"Velocity":26,"Duration":515553,"SoundDuration":515553,"Delta":208997800},{"NoteNumber":51,"Velocity":18,"Duration":515553,"SoundDuration":515553,"Delta":208997800},{"NoteNumber":56,"Velocity":18,"Duration":515553,"SoundDuration":515553,"Delta":208997800},{"NoteNumber":63,"Velocity":23,"Duration":515553,"SoundDuration":515553,"Delta":208997800},{"NoteNumber":59,"Velocity":20,"Duration":515552,"SoundDuration":515552,"Delta":209513353},{"NoteNumber":68,"Velocity":28,"Duration":515552,"SoundDuration":515552,"Delta":209513353},{"NoteNumber":51,"Velocity":16,"Duration":515552,"SoundDuration":515552,"Delta":209513353},{"NoteNumber":56,"Velocity":16,"Duration":515552,"SoundDuration":515552,"Delta":209513353},{"NoteNumber":63,"Velocity":25,"Duration":515552,"SoundDuration":515552,"Delta":209513353},{"NoteNumber":63,"Velocity":24,"Duration":507485,"SoundDuration":507485,"Delta":210028906},{"NoteNumber":68,"Velocity":29,"Duration":507485,"SoundDuration":507485,"Delta":210028906},{"NoteNumber":51,"Velocity":20,"Duration":507485,"SoundDuration":507485,"Delta":210028906},{"NoteNumber":56,"Velocity":20,"Duration":507485,"SoundDuration":507485,"Delta":210028906},{"NoteNumber":61,"Velocity":24,"Duration":507485,"SoundDuration":507485,"Delta":210028906},{"NoteNumber":63,"Velocity":24,"Duration":513918,"SoundDuration":513918,"Delta":210536391},{"NoteNumber":68,"Velocity":27,"Duration":513918,"SoundDuration":513918,"Delta":210536391},{"NoteNumber":51,"Velocity":20,"Duration":513918,"SoundDuration":513918,"Delta":210536391},{"NoteNumber":56,"Velocity":20,"Duration":513918,"SoundDuration":513918,"Delta":210536391},{"NoteNumber":59,"Velocity":24,"Duration":513918,"SoundDuration":513918,"Delta":210536391},{"NoteNumber":63,"Velocity":22,"Duration":507485,"SoundDuration":507485,"Delta":211050310},{"NoteNumber":68,"Velocity":27,"Duration":507485,"SoundDuration":507485,"Delta":211050310},{"NoteNumber":51,"Velocity":21,"Duration":507485,"SoundDuration":507485,"Delta":211050310},{"NoteNumber":56,"Velocity":21,"Duration":507485,"SoundDuration":507485,"Delta":211050310},{"NoteNumber":59,"Velocity":25,"Duration":507485,"SoundDuration":507485,"Delta":211050310},{"NoteNumber":58,"Velocity":23,"Duration":507485,"SoundDuration":507485,"Delta":211557795},{"NoteNumber":63,"Velocity":27,"Duration":507485,"SoundDuration":507485,"Delta":211557795},{"NoteNumber":49,"Velocity":22,"Duration":507485,"SoundDuration":507485,"Delta":211557795},{"NoteNumber":51,"Velocity":26,"Duration":507485,"SoundDuration":507485,"Delta":211557795},{"NoteNumber":56,"Velocity":22,"Duration":513918,"SoundDuration":513918,"Delta":212065280},{"NoteNumber":63,"Velocity":27,"Duration":513918,"SoundDuration":513918,"Delta":212065280},{"NoteNumber":47,"Velocity":22,"Duration":513918,"SoundDuration":513918,"Delta":212065280},{"NoteNumber":51,"Velocity":26,"Duration":513918,"SoundDuration":513918,"Delta":212065280},{"NoteNumber":56,"Velocity":22,"Duration":518762,"SoundDuration":518762,"Delta":212579199},{"NoteNumber":63,"Velocity":27,"Duration":518762,"SoundDuration":518762,"Delta":212579199},{"NoteNumber":47,"Velocity":22,"Duration":518762,"SoundDuration":518762,"Delta":212579199},{"NoteNumber":51,"Velocity":26,"Duration":518762,"SoundDuration":518762,"Delta":212579199},{"NoteNumber":58,"Velocity":22,"Duration":512294,"SoundDuration":512294,"Delta":213097961},{"NoteNumber":63,"Velocity":27,"Duration":512294,"SoundDuration":512294,"Delta":213097961},{"NoteNumber":49,"Velocity":22,"Duration":512294,"SoundDuration":512294,"Delta":213097961},{"NoteNumber":51,"Velocity":24,"Duration":512294,"SoundDuration":512294,"Delta":213097961},{"NoteNumber":56,"Velocity":22,"Duration":512294,"SoundDuration":512294,"Delta":213610256},{"NoteNumber":63,"Velocity":27,"Duration":512294,"SoundDuration":512294,"Delta":213610256},{"NoteNumber":47,"Velocity":22,"Duration":512294,"SoundDuration":512294,"Delta":213610256},{"NoteNumber":51,"Velocity":26,"Duration":512294,"SoundDuration":512294,"Delta":213610256},{"NoteNumber":56,"Velocity":22,"Duration":512295,"SoundDuration":512295,"Delta":214122551},{"NoteNumber":63,"Velocity":27,"Duration":512295,"SoundDuration":512295,"Delta":214122551},{"NoteNumber":47,"Velocity":22,"Duration":512295,"SoundDuration":512295,"Delta":214122551},{"NoteNumber":51,"Velocity":26,"Duration":512295,"SoundDuration":512295,"Delta":214122551},{"NoteNumber":58,"Velocity":22,"Duration":512294,"SoundDuration":512294,"Delta":214634846},{"NoteNumber":63,"Velocity":27,"Duration":512294,"SoundDuration":512294,"Delta":214634846},{"NoteNumber":46,"Velocity":21,"Duration":512294,"SoundDuration":512294,"Delta":214634846},{"NoteNumber":51,"Velocity":25,"Duration":512294,"SoundDuration":512294,"Delta":214634846},{"NoteNumber":59,"Velocity":22,"Duration":512294,"SoundDuration":512294,"Delta":215147141},{"NoteNumber":54,"Velocity":22,"Duration":512294,"SoundDuration":512294,"Delta":215147141},{"NoteNumber":63,"Velocity":27,"Duration":512294,"SoundDuration":512294,"Delta":215147141},{"NoteNumber":44,"Velocity":20,"Duration":512294,"SoundDuration":512294,"Delta":215147141},{"NoteNumber":51,"Velocity":24,"Duration":512294,"SoundDuration":512294,"Delta":215147141},{"NoteNumber":53,"Velocity":24,"Duration":512294,"SoundDuration":512294,"Delta":215659436},{"NoteNumber":59,"Velocity":28,"Duration":512294,"SoundDuration":512294,"Delta":215659436},{"NoteNumber":61,"Velocity":28,"Duration":512294,"SoundDuration":512294,"Delta":215659436},{"NoteNumber":37,"Velocity":20,"Duration":512294,"SoundDuration":512294,"Delta":215659436},{"NoteNumber":68,"Velocity":39,"Duration":512294,"SoundDuration":512294,"Delta":216171731},{"NoteNumber":59,"Velocity":22,"Duration":512294,"SoundDuration":512294,"Delta":216171731},{"NoteNumber":65,"Velocity":27,"Duration":512294,"SoundDuration":512294,"Delta":216171731},{"NoteNumber":70,"Velocity":39,"Duration":522057,"SoundDuration":522057,"Delta":216684026},{"NoteNumber":59,"Velocity":22,"Duration":522057,"SoundDuration":522057,"Delta":216684026},{"NoteNumber":65,"Velocity":27,"Duration":522057,"SoundDuration":522057,"Delta":216684026},{"NoteNumber":49,"Velocity":27,"Duration":389102,"SoundDuration":389102,"Delta":216684026},{"NoteNumber":50,"Velocity":26,"Duration":66477,"SoundDuration":66477,"Delta":217073129},{"NoteNumber":51,"Velocity":26,"Duration":66477,"SoundDuration":66477,"Delta":217139606},{"NoteNumber":66,"Velocity":46,"Duration":1050558,"SoundDuration":1050558,"Delta":217206084},{"NoteNumber":54,"Velocity":25,"Duration":537430,"SoundDuration":537430,"Delta":217206084},{"NoteNumber":59,"Velocity":30,"Duration":537430,"SoundDuration":537430,"Delta":217206084},{"NoteNumber":53,"Velocity":25,"Duration":92262,"SoundDuration":92262,"Delta":217206084},{"NoteNumber":51,"Velocity":21,"Duration":91256,"SoundDuration":91256,"Delta":217298347},{"NoteNumber":53,"Velocity":24,"Duration":90087,"SoundDuration":90087,"Delta":217389603},{"NoteNumber":51,"Velocity":22,"Duration":89022,"SoundDuration":89022,"Delta":217479691},{"NoteNumber":53,"Velocity":24,"Duration":87903,"SoundDuration":87903,"Delta":217568713},{"NoteNumber":51,"Velocity":21,"Duration":86898,"SoundDuration":86898,"Delta":217656616},{"NoteNumber":54,"Velocity":21,"Duration":513127,"SoundDuration":513127,"Delta":217743515},{"NoteNumber":59,"Velocity":25,"Duration":513127,"SoundDuration":513127,"Delta":217743515},{"NoteNumber":53,"Velocity":24,"Duration":86088,"SoundDuration":86088,"Delta":217743515},{"NoteNumber":51,"Velocity":21,"Duration":85733,"SoundDuration":85733,"Delta":217829603},{"NoteNumber":53,"Velocity":24,"Duration":85647,"SoundDuration":85647,"Delta":217915337},{"NoteNumber":51,"Velocity":21,"Duration":85389,"SoundDuration":85389,"Delta":218000985},{"NoteNumber":53,"Velocity":24,"Duration":85219,"SoundDuration":85219,"Delta":218086375},{"NoteNumber":51,"Velocity":21,"Duration":85048,"SoundDuration":85048,"Delta":218171594},{"NoteNumber":63,"Velocity":39,"Duration":529513,"SoundDuration":529513,"Delta":218256642},{"NoteNumber":54,"Velocity":22,"Duration":529513,"SoundDuration":529513,"Delta":218256642},{"NoteNumber":59,"Velocity":26,"Duration":529513,"SoundDuration":529513,"Delta":218256642},{"NoteNumber":53,"Velocity":24,"Duration":128352,"SoundDuration":128352,"Delta":218256642},{"NoteNumber":51,"Velocity":21,"Duration":131579,"SoundDuration":131579,"Delta":218384995},{"NoteNumber":53,"Velocity":24,"Duration":67056,"SoundDuration":67056,"Delta":218516574},{"NoteNumber":51,"Velocity":20,"Duration":67927,"SoundDuration":67927,"Delta":218583631},{"NoteNumber":49,"Velocity":24,"Duration":68476,"SoundDuration":68476,"Delta":218651559},{"NoteNumber":51,"Velocity":18,"Duration":66121,"SoundDuration":66121,"Delta":218720035},{"NoteNumber":56,"Velocity":27,"Duration":512338,"SoundDuration":512338,"Delta":218786156},{"NoteNumber":59,"Velocity":27,"Duration":512338,"SoundDuration":512338,"Delta":218786156},{"NoteNumber":61,"Velocity":36,"Duration":512338,"SoundDuration":512338,"Delta":218786156},{"NoteNumber":53,"Velocity":32,"Duration":512338,"SoundDuration":512338,"Delta":218786156},{"NoteNumber":68,"Velocity":39,"Duration":512338,"SoundDuration":512338,"Delta":219298495},{"NoteNumber":59,"Velocity":23,"Duration":512338,"SoundDuration":512338,"Delta":219298495},{"NoteNumber":65,"Velocity":27,"Duration":512338,"SoundDuration":512338,"Delta":219298495},{"NoteNumber":37,"Velocity":25,"Duration":512338,"SoundDuration":512338,"Delta":219298495},{"NoteNumber":70,"Velocity":39,"Duration":519882,"SoundDuration":519882,"Delta":219810834},{"NoteNumber":59,"Velocity":23,"Duration":519882,"SoundDuration":519882,"Delta":219810834},{"NoteNumber":65,"Velocity":27,"Duration":519882,"SoundDuration":519882,"Delta":219810834},{"NoteNumber":49,"Velocity":27,"Duration":388025,"SoundDuration":388025,"Delta":219810834},{"NoteNumber":50,"Velocity":26,"Duration":65928,"SoundDuration":65928,"Delta":220198860},{"NoteNumber":51,"Velocity":26,"Duration":65928,"SoundDuration":65928,"Delta":220264788},{"NoteNumber":66,"Velocity":46,"Duration":1046580,"SoundDuration":1046580,"Delta":220330716},{"NoteNumber":54,"Velocity":25,"Duration":535362,"SoundDuration":535362,"Delta":220330716},{"NoteNumber":59,"Velocity":30,"Duration":535362,"SoundDuration":535362,"Delta":220330716},{"NoteNumber":53,"Velocity":25,"Duration":91554,"SoundDuration":91554,"Delta":220330716},{"NoteNumber":51,"Velocity":21,"Duration":90570,"SoundDuration":90570,"Delta":220422271},{"NoteNumber":53,"Velocity":24,"Duration":89697,"SoundDuration":89697,"Delta":220512841},{"NoteNumber":51,"Velocity":22,"Duration":88738,"SoundDuration":88738,"Delta":220602539},{"NoteNumber":53,"Velocity":24,"Duration":87903,"SoundDuration":87903,"Delta":220691277},{"NoteNumber":51,"Velocity":21,"Duration":86898,"SoundDuration":86898,"Delta":220779180},{"NoteNumber":54,"Velocity":23,"Duration":511217,"SoundDuration":511217,"Delta":220866079},{"NoteNumber":59,"Velocity":27,"Duration":511217,"SoundDuration":511217,"Delta":220866079},{"NoteNumber":53,"Velocity":24,"Duration":85733,"SoundDuration":85733,"Delta":220866079},{"NoteNumber":51,"Velocity":21,"Duration":85561,"SoundDuration":85561,"Delta":220951813},{"NoteNumber":53,"Velocity":24,"Duration":85389,"SoundDuration":85389,"Delta":221037374},{"NoteNumber":51,"Velocity":21,"Duration":85048,"SoundDuration":85048,"Delta":221122764},{"NoteNumber":53,"Velocity":24,"Duration":84872,"SoundDuration":84872,"Delta":221207813},{"NoteNumber":51,"Velocity":21,"Duration":84611,"SoundDuration":84611,"Delta":221292685},{"NoteNumber":63,"Velocity":43,"Duration":523126,"SoundDuration":523126,"Delta":221377296},{"NoteNumber":54,"Velocity":23,"Duration":523126,"SoundDuration":523126,"Delta":221377296},{"NoteNumber":59,"Velocity":27,"Duration":523126,"SoundDuration":523126,"Delta":221377296},{"NoteNumber":53,"Velocity":24,"Duration":127310,"SoundDuration":127310,"Delta":221377296},{"NoteNumber":51,"Velocity":21,"Duration":129763,"SoundDuration":129763,"Delta":221504607},{"NoteNumber":53,"Velocity":24,"Duration":65927,"SoundDuration":65927,"Delta":221634371},{"NoteNumber":51,"Velocity":20,"Duration":66482,"SoundDuration":66482,"Delta":221700298},{"NoteNumber":49,"Velocity":24,"Duration":68048,"SoundDuration":68048,"Delta":221766780},{"NoteNumber":51,"Velocity":18,"Duration":65594,"SoundDuration":65594,"Delta":221834828},{"NoteNumber":56,"Velocity":27,"Duration":508173,"SoundDuration":508173,"Delta":221900423},{"NoteNumber":59,"Velocity":27,"Duration":508173,"SoundDuration":508173,"Delta":221900423},{"NoteNumber":61,"Velocity":31,"Duration":508173,"SoundDuration":508173,"Delta":221900423},{"NoteNumber":53,"Velocity":34,"Duration":508173,"SoundDuration":508173,"Delta":221900423},{"NoteNumber":68,"Velocity":44,"Duration":502092,"SoundDuration":502092,"Delta":222408596},{"NoteNumber":59,"Velocity":28,"Duration":502092,"SoundDuration":502092,"Delta":222408596},{"NoteNumber":65,"Velocity":34,"Duration":502092,"SoundDuration":502092,"Delta":222408596},{"NoteNumber":37,"Velocity":36,"Duration":502092,"SoundDuration":502092,"Delta":222408596},{"NoteNumber":70,"Velocity":45,"Duration":512338,"SoundDuration":512338,"Delta":222910688},{"NoteNumber":59,"Velocity":30,"Duration":512338,"SoundDuration":512338,"Delta":222910688},{"NoteNumber":65,"Velocity":36,"Duration":512338,"SoundDuration":512338,"Delta":222910688},{"NoteNumber":49,"Velocity":17,"Duration":512338,"SoundDuration":512338,"Delta":222910688},{"NoteNumber":56,"Velocity":17,"Duration":512338,"SoundDuration":512338,"Delta":222910688},{"NoteNumber":61,"Velocity":26,"Duration":512338,"SoundDuration":512338,"Delta":222910688},{"NoteNumber":71,"Velocity":47,"Duration":512338,"SoundDuration":512338,"Delta":223423027},{"NoteNumber":59,"Velocity":31,"Duration":512338,"SoundDuration":512338,"Delta":223423027},{"NoteNumber":65,"Velocity":37,"Duration":512338,"SoundDuration":512338,"Delta":223423027},{"NoteNumber":49,"Velocity":20,"Duration":512338,"SoundDuration":512338,"Delta":223423027},{"NoteNumber":56,"Velocity":20,"Duration":512338,"SoundDuration":512338,"Delta":223423027},{"NoteNumber":61,"Velocity":28,"Duration":512338,"SoundDuration":512338,"Delta":223423027},{"NoteNumber":72,"Velocity":48,"Duration":525209,"SoundDuration":525209,"Delta":223935366},{"NoteNumber":60,"Velocity":32,"Duration":525209,"SoundDuration":525209,"Delta":223935366},{"NoteNumber":65,"Velocity":39,"Duration":525209,"SoundDuration":525209,"Delta":223935366},{"NoteNumber":49,"Velocity":21,"Duration":525209,"SoundDuration":525209,"Delta":223935366},{"NoteNumber":56,"Velocity":21,"Duration":525209,"SoundDuration":525209,"Delta":223935366},{"NoteNumber":59,"Velocity":32,"Duration":525209,"SoundDuration":525209,"Delta":223935366},{"NoteNumber":73,"Velocity":52,"Duration":518717,"SoundDuration":518717,"Delta":224460576},{"NoteNumber":61,"Velocity":35,"Duration":518717,"SoundDuration":518717,"Delta":224460576},{"NoteNumber":65,"Velocity":42,"Duration":518717,"SoundDuration":518717,"Delta":224460576},{"NoteNumber":49,"Velocity":21,"Duration":518717,"SoundDuration":518717,"Delta":224460576},{"NoteNumber":56,"Velocity":21,"Duration":518717,"SoundDuration":518717,"Delta":224460576},{"NoteNumber":59,"Velocity":34,"Duration":518717,"SoundDuration":518717,"Delta":224460576},{"NoteNumber":74,"Velocity":52,"Duration":527425,"SoundDuration":527425,"Delta":224979293},{"NoteNumber":62,"Velocity":37,"Duration":527425,"SoundDuration":527425,"Delta":224979293},{"NoteNumber":65,"Velocity":45,"Duration":527425,"SoundDuration":527425,"Delta":224979293},{"NoteNumber":49,"Velocity":27,"Duration":527425,"SoundDuration":527425,"Delta":224979293},{"NoteNumber":56,"Velocity":27,"Duration":527425,"SoundDuration":527425,"Delta":224979293},{"NoteNumber":59,"Velocity":37,"Duration":527425,"SoundDuration":527425,"Delta":224979293},{"NoteNumber":75,"Velocity":51,"Duration":553913,"SoundDuration":553913,"Delta":225506719},{"NoteNumber":63,"Velocity":34,"Duration":553913,"SoundDuration":553913,"Delta":225506719},{"NoteNumber":65,"Velocity":41,"Duration":551606,"SoundDuration":551606,"Delta":225506719},{"NoteNumber":49,"Velocity":20,"Duration":553913,"SoundDuration":553913,"Delta":225506719},{"NoteNumber":56,"Velocity":20,"Duration":553913,"SoundDuration":553913,"Delta":225506719},{"NoteNumber":59,"Velocity":31,"Duration":548144,"SoundDuration":548144,"Delta":225506719},{"NoteNumber":65,"Velocity":35,"Duration":553913,"SoundDuration":553913,"Delta":226060633},{"NoteNumber":59,"Velocity":24,"Duration":553913,"SoundDuration":553913,"Delta":226060633},{"NoteNumber":61,"Velocity":28,"Duration":553913,"SoundDuration":553913,"Delta":226060633},{"NoteNumber":49,"Velocity":17,"Duration":553913,"SoundDuration":553913,"Delta":226060633},{"NoteNumber":56,"Velocity":26,"Duration":553913,"SoundDuration":553913,"Delta":226060633},{"NoteNumber":66,"Velocity":36,"Duration":553914,"SoundDuration":553914,"Delta":226614547},{"NoteNumber":58,"Velocity":26,"Duration":553914,"SoundDuration":553914,"Delta":226614547},{"NoteNumber":61,"Velocity":30,"Duration":553914,"SoundDuration":553914,"Delta":226614547},{"NoteNumber":42,"Velocity":18,"Duration":553914,"SoundDuration":553914,"Delta":226614547},{"NoteNumber":49,"Velocity":26,"Duration":553914,"SoundDuration":553914,"Delta":226614547},{"NoteNumber":58,"Velocity":39,"Duration":270563,"SoundDuration":270563,"Delta":227168461},{"NoteNumber":56,"Velocity":37,"Duration":259740,"SoundDuration":259740,"Delta":227439024},{"NoteNumber":54,"Velocity":36,"Duration":253871,"SoundDuration":253871,"Delta":227698765},{"NoteNumber":53,"Velocity":35,"Duration":254137,"SoundDuration":254137,"Delta":227952636},{"NoteNumber":56,"Velocity":30,"Duration":1527989,"SoundDuration":1527989,"Delta":228206774},{"NoteNumber":60,"Velocity":30,"Duration":1527989,"SoundDuration":1527989,"Delta":228206774},{"NoteNumber":66,"Velocity":36,"Duration":1527989,"SoundDuration":1527989,"Delta":228206774},{"NoteNumber":68,"Velocity":36,"Duration":1527989,"SoundDuration":1527989,"Delta":228206774},{"NoteNumber":53,"Velocity":39,"Duration":253164,"SoundDuration":253164,"Delta":228206774},{"NoteNumber":51,"Velocity":39,"Duration":253164,"SoundDuration":253164,"Delta":228459939},{"NoteNumber":49,"Velocity":37,"Duration":251046,"SoundDuration":251046,"Delta":228713103},{"NoteNumber":48,"Velocity":36,"Duration":251046,"SoundDuration":251046,"Delta":228964149},{"NoteNumber":46,"Velocity":35,"Duration":256410,"SoundDuration":256410,"Delta":229215195},{"NoteNumber":44,"Velocity":35,"Duration":263158,"SoundDuration":263158,"Delta":229471606},{"NoteNumber":56,"Velocity":30,"Duration":535714,"SoundDuration":535714,"Delta":229734764},{"NoteNumber":61,"Velocity":30,"Duration":1571990,"SoundDuration":1571990,"Delta":229734764},{"NoteNumber":65,"Velocity":30,"Duration":1571990,"SoundDuration":1571990,"Delta":229734764},{"NoteNumber":68,"Velocity":36,"Duration":1571990,"SoundDuration":1571990,"Delta":229734764},{"NoteNumber":37,"Velocity":35,"Duration":267856,"SoundDuration":267856,"Delta":229734764},{"NoteNumber":58,"Velocity":42,"Duration":262054,"SoundDuration":262054,"Delta":230270478},{"NoteNumber":56,"Velocity":37,"Duration":262054,"SoundDuration":262054,"Delta":230532532},{"NoteNumber":54,"Velocity":36,"Duration":255994,"SoundDuration":255994,"Delta":230794587},{"NoteNumber":53,"Velocity":36,"Duration":256172,"SoundDuration":256172,"Delta":231050581},{"NoteNumber":60,"Velocity":31,"Duration":1008475,"SoundDuration":1008475,"Delta":231306754},{"NoteNumber":66,"Velocity":37,"Duration":1531472,"SoundDuration":1531472,"Delta":231306754},{"NoteNumber":68,"Velocity":37,"Duration":1531472,"SoundDuration":1531472,"Delta":231306754},{"NoteNumber":53,"Velocity":39,"Duration":254237,"SoundDuration":254237,"Delta":231306754},{"NoteNumber":51,"Velocity":39,"Duration":254237,"SoundDuration":254237,"Delta":231560991},{"NoteNumber":49,"Velocity":37,"Duration":250000,"SoundDuration":250000,"Delta":231815229},{"NoteNumber":48,"Velocity":36,"Duration":250000,"SoundDuration":250000,"Delta":232065229},{"NoteNumber":61,"Velocity":42,"Duration":257510,"SoundDuration":257510,"Delta":232315229},{"NoteNumber":46,"Velocity":36,"Duration":257510,"SoundDuration":257510,"Delta":232315229},{"NoteNumber":63,"Velocity":37,"Duration":265486,"SoundDuration":265486,"Delta":232572739},{"NoteNumber":44,"Velocity":35,"Duration":265486,"SoundDuration":265486,"Delta":232572739},{"NoteNumber":64,"Velocity":45,"Duration":518896,"SoundDuration":518896,"Delta":232838226},{"NoteNumber":68,"Velocity":45,"Duration":1296117,"SoundDuration":1296117,"Delta":232838226},{"NoteNumber":37,"Velocity":35,"Duration":259447,"SoundDuration":259447,"Delta":232838226},{"NoteNumber":65,"Velocity":39,"Duration":1029004,"SoundDuration":1029004,"Delta":233357122},{"NoteNumber":56,"Velocity":35,"Duration":254211,"SoundDuration":254211,"Delta":233357122},{"NoteNumber":58,"Velocity":36,"Duration":264433,"SoundDuration":264433,"Delta":233611334},{"NoteNumber":60,"Velocity":37,"Duration":258576,"SoundDuration":258576,"Delta":233875767},{"NoteNumber":77,"Velocity":52,"Duration":251783,"SoundDuration":251783,"Delta":234134343},{"NoteNumber":61,"Velocity":41,"Duration":251783,"SoundDuration":251783,"Delta":234134343},{"NoteNumber":63,"Velocity":39,"Duration":1545224,"SoundDuration":1545224,"Delta":234386127},{"NoteNumber":69,"Velocity":39,"Duration":1021846,"SoundDuration":1021846,"Delta":234386127},{"NoteNumber":77,"Velocity":49,"Duration":1021846,"SoundDuration":1021846,"Delta":234386127},{"NoteNumber":61,"Velocity":45,"Duration":254928,"SoundDuration":254928,"Delta":234386127},{"NoteNumber":60,"Velocity":37,"Duration":254928,"SoundDuration":254928,"Delta":234641055},{"NoteNumber":52,"Velocity":41,"Duration":255994,"SoundDuration":255994,"Delta":234895984},{"NoteNumber":53,"Velocity":36,"Duration":255994,"SoundDuration":255994,"Delta":235151978},{"NoteNumber":69,"Velocity":39,"Duration":523378,"SoundDuration":523378,"Delta":235407973},{"NoteNumber":61,"Velocity":39,"Duration":261688,"SoundDuration":261688,"Delta":235407973},{"NoteNumber":60,"Velocity":35,"Duration":261689,"SoundDuration":261689,"Delta":235669662},{"NoteNumber":70,"Velocity":46,"Duration":1035624,"SoundDuration":1035624,"Delta":235931351},{"NoteNumber":61,"Velocity":39,"Duration":1543367,"SoundDuration":1543367,"Delta":235931351},{"NoteNumber":58,"Velocity":39,"Duration":523377,"SoundDuration":523377,"Delta":235931351},{"NoteNumber":46,"Velocity":41,"Duration":258375,"SoundDuration":258375,"Delta":236454729},{"NoteNumber":53,"Velocity":35,"Duration":253871,"SoundDuration":253871,"Delta":236713104},{"NoteNumber":65,"Velocity":37,"Duration":507743,"SoundDuration":507743,"Delta":236966976},{"NoteNumber":73,"Velocity":45,"Duration":507743,"SoundDuration":507743,"Delta":236966976},{"NoteNumber":56,"Velocity":37,"Duration":253871,"SoundDuration":253871,"Delta":236966976},{"NoteNumber":60,"Velocity":35,"Duration":253871,"SoundDuration":253871,"Delta":237220847},{"NoteNumber":61,"Velocity":34,"Duration":1552559,"SoundDuration":1552559,"Delta":237474719},{"NoteNumber":63,"Velocity":39,"Duration":1552559,"SoundDuration":1552559,"Delta":237474719},{"NoteNumber":67,"Velocity":47,"Duration":1552559,"SoundDuration":1552559,"Delta":237474719},{"NoteNumber":60,"Velocity":39,"Duration":254047,"SoundDuration":254047,"Delta":237474719},{"NoteNumber":58,"Velocity":35,"Duration":255461,"SoundDuration":255461,"Delta":237728766},{"NoteNumber":50,"Velocity":36,"Duration":256711,"SoundDuration":256711,"Delta":237984228},{"NoteNumber":51,"Velocity":35,"Duration":258495,"SoundDuration":258495,"Delta":238240939},{"NoteNumber":60,"Velocity":37,"Duration":263922,"SoundDuration":263922,"Delta":238499434},{"NoteNumber":58,"Velocity":35,"Duration":263921,"SoundDuration":263921,"Delta":238763356},{"NoteNumber":60,"Velocity":39,"Duration":1054492,"SoundDuration":1054492,"Delta":239027278},{"NoteNumber":63,"Velocity":39,"Duration":1054492,"SoundDuration":1054492,"Delta":239027278},{"NoteNumber":68,"Velocity":47,"Duration":1054492,"SoundDuration":1054492,"Delta":239027278},{"NoteNumber":56,"Velocity":37,"Duration":527844,"SoundDuration":527844,"Delta":239027278},{"NoteNumber":58,"Velocity":39,"Duration":268072,"SoundDuration":268072,"Delta":239555122},{"NoteNumber":56,"Velocity":37,"Duration":258576,"SoundDuration":258576,"Delta":239823195},{"NoteNumber":61,"Velocity":37,"Duration":517151,"SoundDuration":517151,"Delta":240081771},{"NoteNumber":65,"Velocity":37,"Duration":517151,"SoundDuration":517151,"Delta":240081771},{"NoteNumber":68,"Velocity":45,"Duration":517151,"SoundDuration":517151,"Delta":240081771},{"NoteNumber":54,"Velocity":36,"Duration":258576,"SoundDuration":258576,"Delta":240081771},{"NoteNumber":53,"Velocity":35,"Duration":258575,"SoundDuration":258575,"Delta":240340347},{"NoteNumber":60,"Velocity":30,"Duration":1527056,"SoundDuration":1527056,"Delta":240598923},{"NoteNumber":66,"Velocity":36,"Duration":1527056,"SoundDuration":1527056,"Delta":240598923},{"NoteNumber":68,"Velocity":36,"Duration":1527056,"SoundDuration":1527056,"Delta":240598923},{"NoteNumber":53,"Velocity":39,"Duration":253164,"SoundDuration":253164,"Delta":240598923},{"NoteNumber":51,"Velocity":39,"Duration":253164,"SoundDuration":253164,"Delta":240852087},{"NoteNumber":49,"Velocity":37,"Duration":250000,"SoundDuration":250000,"Delta":241105252},{"NoteNumber":48,"Velocity":36,"Duration":250000,"SoundDuration":250000,"Delta":241355252},{"NoteNumber":46,"Velocity":35,"Duration":256410,"SoundDuration":256410,"Delta":241605252},{"NoteNumber":44,"Velocity":35,"Duration":264317,"SoundDuration":264317,"Delta":241861662},{"NoteNumber":61,"Velocity":39,"Duration":1062290,"SoundDuration":1062290,"Delta":242125979},{"NoteNumber":65,"Velocity":43,"Duration":1574279,"SoundDuration":1574279,"Delta":242125979},{"NoteNumber":68,"Velocity":46,"Duration":1574279,"SoundDuration":1574279,"Delta":242125979},{"NoteNumber":37,"Velocity":35,"Duration":269058,"SoundDuration":269058,"Delta":242125979},{"NoteNumber":58,"Velocity":42,"Duration":264433,"SoundDuration":264433,"Delta":242664096},{"NoteNumber":56,"Velocity":37,"Duration":259740,"SoundDuration":259740,"Delta":242928530},{"NoteNumber":56,"Velocity":35,"Duration":511988,"SoundDuration":511988,"Delta":243188270},{"NoteNumber":54,"Velocity":36,"Duration":255994,"SoundDuration":255994,"Delta":243188270},{"NoteNumber":53,"Velocity":36,"Duration":255994,"SoundDuration":255994,"Delta":243444265},{"NoteNumber":60,"Velocity":45,"Duration":521738,"SoundDuration":521738,"Delta":243700259},{"NoteNumber":66,"Velocity":40,"Duration":1564688,"SoundDuration":1564688,"Delta":243700259},{"NoteNumber":68,"Velocity":45,"Duration":1564688,"SoundDuration":1564688,"Delta":243700259},{"NoteNumber":53,"Velocity":39,"Duration":260869,"SoundDuration":260869,"Delta":243700259},{"NoteNumber":51,"Velocity":39,"Duration":260869,"SoundDuration":260869,"Delta":243961129},{"NoteNumber":58,"Velocity":38,"Duration":256410,"SoundDuration":256410,"Delta":244221998},{"NoteNumber":49,"Velocity":37,"Duration":256410,"SoundDuration":256410,"Delta":244221998},{"NoteNumber":56,"Velocity":34,"Duration":256410,"SoundDuration":256410,"Delta":244478409},{"NoteNumber":48,"Velocity":36,"Duration":256410,"SoundDuration":256410,"Delta":244478409},{"NoteNumber":61,"Velocity":42,"Duration":265064,"SoundDuration":265064,"Delta":244734819},{"NoteNumber":46,"Velocity":36,"Duration":265064,"SoundDuration":265064,"Delta":244734819},{"NoteNumber":63,"Velocity":37,"Duration":265064,"SoundDuration":265064,"Delta":244999884},{"NoteNumber":44,"Velocity":35,"Duration":265064,"SoundDuration":265064,"Delta":244999884},{"NoteNumber":65,"Velocity":39,"Duration":1049610,"SoundDuration":1049610,"Delta":245264948},{"NoteNumber":68,"Velocity":47,"Duration":1578477,"SoundDuration":1578477,"Delta":245264948},{"NoteNumber":37,"Velocity":35,"Duration":265064,"SoundDuration":265064,"Delta":245264948},{"NoteNumber":56,"Velocity":39,"Duration":259740,"SoundDuration":259740,"Delta":245795077},{"NoteNumber":55,"Velocity":36,"Duration":259740,"SoundDuration":259740,"Delta":246054818},{"NoteNumber":64,"Velocity":42,"Duration":528866,"SoundDuration":528866,"Delta":246314558},{"NoteNumber":58,"Velocity":39,"Duration":264433,"SoundDuration":264433,"Delta":246314558},{"NoteNumber":56,"Velocity":34,"Duration":264433,"SoundDuration":264433,"Delta":246578992},{"NoteNumber":68,"Velocity":45,"Duration":1067467,"SoundDuration":1067467,"Delta":246843425},{"NoteNumber":63,"Velocity":38,"Duration":1601132,"SoundDuration":1601132,"Delta":246843425},{"NoteNumber":59,"Velocity":39,"Duration":528867,"SoundDuration":528867,"Delta":246843425},{"NoteNumber":47,"Velocity":43,"Duration":269299,"SoundDuration":269299,"Delta":247372292},{"NoteNumber":53,"Velocity":39,"Duration":269300,"SoundDuration":269300,"Delta":247641592},{"NoteNumber":66,"Velocity":38,"Duration":531441,"SoundDuration":531441,"Delta":247910892},{"NoteNumber":56,"Velocity":43,"Duration":266832,"SoundDuration":266832,"Delta":247910892},{"NoteNumber":54,"Velocity":39,"Duration":266832,"SoundDuration":266832,"Delta":248177725},{"NoteNumber":62,"Velocity":37,"Duration":538600,"SoundDuration":538600,"Delta":248444557},{"NoteNumber":66,"Velocity":45,"Duration":1071150,"SoundDuration":1071150,"Delta":248444557},{"NoteNumber":58,"Velocity":45,"Duration":538600,"SoundDuration":538600,"Delta":248444557},{"NoteNumber":61,"Velocity":39,"Duration":1071150,"SoundDuration":1071150,"Delta":248983157},{"NoteNumber":42,"Velocity":41,"Duration":269299,"SoundDuration":269299,"Delta":248983157},{"NoteNumber":49,"Velocity":36,"Duration":263250,"SoundDuration":263250,"Delta":249252457},{"NoteNumber":63,"Velocity":39,"Duration":538600,"SoundDuration":538600,"Delta":249515708},{"NoteNumber":73,"Velocity":47,"Duration":538600,"SoundDuration":538600,"Delta":249515708},{"NoteNumber":54,"Velocity":41,"Duration":269299,"SoundDuration":269299,"Delta":249515708},{"NoteNumber":58,"Velocity":36,"Duration":269300,"SoundDuration":269300,"Delta":249785008},{"NoteNumber":61,"Velocity":41,"Duration":1611136,"SoundDuration":1611136,"Delta":250054308},{"NoteNumber":65,"Velocity":41,"Duration":1613391,"SoundDuration":1613391,"Delta":250054308},{"NoteNumber":73,"Velocity":48,"Duration":1613391,"SoundDuration":1613391,"Delta":250054308},{"NoteNumber":56,"Velocity":43,"Duration":538600,"SoundDuration":538600,"Delta":250054308},{"NoteNumber":37,"Velocity":39,"Duration":266832,"SoundDuration":266832,"Delta":250592908},{"NoteNumber":44,"Velocity":35,"Duration":266832,"SoundDuration":266832,"Delta":250859740},{"NoteNumber":49,"Velocity":39,"Duration":270563,"SoundDuration":270563,"Delta":251126573},{"NoteNumber":56,"Velocity":36,"Duration":270562,"SoundDuration":270562,"Delta":251397136},{"NoteNumber":65,"Velocity":31,"Duration":1631451,"SoundDuration":1631451,"Delta":251667699},{"NoteNumber":68,"Velocity":37,"Duration":1082252,"SoundDuration":1082252,"Delta":251667699},{"NoteNumber":61,"Velocity":39,"Duration":270563,"SoundDuration":270563,"Delta":251667699},{"NoteNumber":60,"Velocity":34,"Duration":270563,"SoundDuration":270563,"Delta":251938262},{"NoteNumber":59,"Velocity":34,"Duration":270562,"SoundDuration":270562,"Delta":252208825},{"NoteNumber":58,"Velocity":34,"Duration":270563,"SoundDuration":270563,"Delta":252479388},{"NoteNumber":69,"Velocity":45,"Duration":549199,"SoundDuration":549199,"Delta":252749951},{"NoteNumber":59,"Velocity":41,"Duration":269687,"SoundDuration":269687,"Delta":252749951},{"NoteNumber":49,"Velocity":34,"Duration":279512,"SoundDuration":279512,"Delta":253019638},{"NoteNumber":70,"Velocity":54,"Duration":528866,"SoundDuration":528866,"Delta":253299150},{"NoteNumber":42,"Velocity":37,"Duration":528866,"SoundDuration":528866,"Delta":253299150},{"NoteNumber":65,"Velocity":49,"Duration":510421,"SoundDuration":510421,"Delta":253828017},{"NoteNumber":58,"Velocity":25,"Duration":510421,"SoundDuration":510421,"Delta":253828017},{"NoteNumber":63,"Velocity":25,"Duration":510421,"SoundDuration":510421,"Delta":253828017},{"NoteNumber":54,"Velocity":21,"Duration":510421,"SoundDuration":510421,"Delta":253828017},{"NoteNumber":49,"Velocity":21,"Duration":510421,"SoundDuration":510421,"Delta":253828017},{"NoteNumber":66,"Velocity":52,"Duration":516871,"SoundDuration":516871,"Delta":254338438},{"NoteNumber":58,"Velocity":22,"Duration":516871,"SoundDuration":516871,"Delta":254338438},{"NoteNumber":49,"Velocity":18,"Duration":516871,"SoundDuration":516871,"Delta":254338438},{"NoteNumber":54,"Velocity":18,"Duration":516871,"SoundDuration":516871,"Delta":254338438},{"NoteNumber":61,"Velocity":23,"Duration":516871,"SoundDuration":516871,"Delta":254338438},{"NoteNumber":75,"Velocity":57,"Duration":1017905,"SoundDuration":1017905,"Delta":254855309},{"NoteNumber":42,"Velocity":34,"Duration":510420,"SoundDuration":510420,"Delta":254855309},{"NoteNumber":58,"Velocity":20,"Duration":507484,"SoundDuration":507484,"Delta":255365730},{"NoteNumber":66,"Velocity":25,"Duration":507484,"SoundDuration":507484,"Delta":255365730},{"NoteNumber":63,"Velocity":23,"Duration":507484,"SoundDuration":507484,"Delta":255365730},{"NoteNumber":49,"Velocity":18,"Duration":507484,"SoundDuration":507484,"Delta":255365730},{"NoteNumber":54,"Velocity":18,"Duration":507484,"SoundDuration":507484,"Delta":255365730},{"NoteNumber":73,"Velocity":52,"Duration":512294,"SoundDuration":512294,"Delta":255873215},{"NoteNumber":58,"Velocity":20,"Duration":512294,"SoundDuration":512294,"Delta":255873215},{"NoteNumber":66,"Velocity":25,"Duration":512294,"SoundDuration":512294,"Delta":255873215},{"NoteNumber":49,"Velocity":15,"Duration":512294,"SoundDuration":512294,"Delta":255873215},{"NoteNumber":54,"Velocity":15,"Duration":512294,"SoundDuration":512294,"Delta":255873215},{"NoteNumber":61,"Velocity":18,"Duration":512294,"SoundDuration":512294,"Delta":255873215},{"NoteNumber":73,"Velocity":52,"Duration":509121,"SoundDuration":509121,"Delta":256385510},{"NoteNumber":37,"Velocity":33,"Duration":509121,"SoundDuration":509121,"Delta":256385510},{"NoteNumber":66,"Velocity":45,"Duration":517152,"SoundDuration":517152,"Delta":256894632},{"NoteNumber":59,"Velocity":23,"Duration":517152,"SoundDuration":517152,"Delta":256894632},{"NoteNumber":63,"Velocity":27,"Duration":517152,"SoundDuration":517152,"Delta":256894632},{"NoteNumber":54,"Velocity":23,"Duration":517152,"SoundDuration":517152,"Delta":256894632},{"NoteNumber":49,"Velocity":23,"Duration":517152,"SoundDuration":517152,"Delta":256894632},{"NoteNumber":68,"Velocity":45,"Duration":526500,"SoundDuration":526500,"Delta":257411784},{"NoteNumber":65,"Velocity":27,"Duration":526500,"SoundDuration":526500,"Delta":257411784},{"NoteNumber":59,"Velocity":22,"Duration":526500,"SoundDuration":526500,"Delta":257411784},{"NoteNumber":49,"Velocity":18,"Duration":526500,"SoundDuration":526500,"Delta":257411784},{"NoteNumber":54,"Velocity":18,"Duration":526500,"SoundDuration":526500,"Delta":257411784},{"NoteNumber":61,"Velocity":23,"Duration":526500,"SoundDuration":526500,"Delta":257411784},{"NoteNumber":70,"Velocity":52,"Duration":3602360,"SoundDuration":3602360,"Delta":257938285},{"NoteNumber":42,"Velocity":34,"Duration":526500,"SoundDuration":526500,"Delta":257938285},{"NoteNumber":58,"Velocity":24,"Duration":512601,"SoundDuration":512601,"Delta":258464786},{"NoteNumber":66,"Velocity":28,"Duration":512601,"SoundDuration":512601,"Delta":258464786},{"NoteNumber":63,"Velocity":24,"Duration":512601,"SoundDuration":512601,"Delta":258464786},{"NoteNumber":49,"Velocity":20,"Duration":512601,"SoundDuration":512601,"Delta":258464786},{"NoteNumber":54,"Velocity":20,"Duration":512601,"SoundDuration":512601,"Delta":258464786},{"NoteNumber":58,"Velocity":23,"Duration":519480,"SoundDuration":519480,"Delta":258977387},{"NoteNumber":66,"Velocity":27,"Duration":519480,"SoundDuration":519480,"Delta":258977387},{"NoteNumber":49,"Velocity":17,"Duration":519480,"SoundDuration":519480,"Delta":258977387},{"NoteNumber":54,"Velocity":17,"Duration":519480,"SoundDuration":519480,"Delta":258977387},{"NoteNumber":61,"Velocity":22,"Duration":519480,"SoundDuration":519480,"Delta":258977387},{"NoteNumber":58,"Velocity":23,"Duration":514888,"SoundDuration":514888,"Delta":259496868},{"NoteNumber":66,"Velocity":27,"Duration":514888,"SoundDuration":514888,"Delta":259496868},{"NoteNumber":49,"Velocity":12,"Duration":514888,"SoundDuration":514888,"Delta":259496868},{"NoteNumber":54,"Velocity":15,"Duration":514888,"SoundDuration":514888,"Delta":259496868},{"NoteNumber":61,"Velocity":22,"Duration":514888,"SoundDuration":514888,"Delta":259496868},{"NoteNumber":61,"Velocity":20,"Duration":507484,"SoundDuration":507484,"Delta":260011757},{"NoteNumber":66,"Velocity":24,"Duration":507484,"SoundDuration":507484,"Delta":260011757},{"NoteNumber":49,"Velocity":18,"Duration":507484,"SoundDuration":507484,"Delta":260011757},{"NoteNumber":54,"Velocity":18,"Duration":507484,"SoundDuration":507484,"Delta":260011757},{"NoteNumber":59,"Velocity":23,"Duration":507484,"SoundDuration":507484,"Delta":260011757},{"NoteNumber":61,"Velocity":20,"Duration":513918,"SoundDuration":513918,"Delta":260519242},{"NoteNumber":66,"Velocity":24,"Duration":513918,"SoundDuration":513918,"Delta":260519242},{"NoteNumber":49,"Velocity":12,"Duration":513918,"SoundDuration":513918,"Delta":260519242},{"NoteNumber":54,"Velocity":15,"Duration":513918,"SoundDuration":513918,"Delta":260519242},{"NoteNumber":58,"Velocity":21,"Duration":513918,"SoundDuration":513918,"Delta":260519242},{"NoteNumber":61,"Velocity":20,"Duration":507484,"SoundDuration":507484,"Delta":261033161},{"NoteNumber":66,"Velocity":24,"Duration":507484,"SoundDuration":507484,"Delta":261033161},{"NoteNumber":49,"Velocity":20,"Duration":507484,"SoundDuration":507484,"Delta":261033161},{"NoteNumber":54,"Velocity":20,"Duration":507484,"SoundDuration":507484,"Delta":261033161},{"NoteNumber":58,"Velocity":23,"Duration":507484,"SoundDuration":507484,"Delta":261033161},{"NoteNumber":56,"Velocity":20,"Duration":507485,"SoundDuration":507485,"Delta":261540646},{"NoteNumber":61,"Velocity":24,"Duration":507485,"SoundDuration":507485,"Delta":261540646},{"NoteNumber":47,"Velocity":20,"Duration":507485,"SoundDuration":507485,"Delta":261540646},{"NoteNumber":49,"Velocity":24,"Duration":507485,"SoundDuration":507485,"Delta":261540646},{"NoteNumber":54,"Velocity":20,"Duration":513918,"SoundDuration":513918,"Delta":262048131},{"NoteNumber":61,"Velocity":24,"Duration":513918,"SoundDuration":513918,"Delta":262048131},{"NoteNumber":46,"Velocity":20,"Duration":513918,"SoundDuration":513918,"Delta":262048131},{"NoteNumber":49,"Velocity":24,"Duration":513918,"SoundDuration":513918,"Delta":262048131},{"NoteNumber":54,"Velocity":20,"Duration":518761,"SoundDuration":518761,"Delta":262562050},{"NoteNumber":61,"Velocity":24,"Duration":518761,"SoundDuration":518761,"Delta":262562050},{"NoteNumber":46,"Velocity":20,"Duration":518761,"SoundDuration":518761,"Delta":262562050},{"NoteNumber":49,"Velocity":24,"Duration":518761,"SoundDuration":518761,"Delta":262562050},{"NoteNumber":56,"Velocity":18,"Duration":512294,"SoundDuration":512294,"Delta":263080812},{"NoteNumber":61,"Velocity":23,"Duration":512294,"SoundDuration":512294,"Delta":263080812},{"NoteNumber":47,"Velocity":20,"Duration":512294,"SoundDuration":512294,"Delta":263080812},{"NoteNumber":49,"Velocity":24,"Duration":512294,"SoundDuration":512294,"Delta":263080812},{"NoteNumber":54,"Velocity":18,"Duration":512294,"SoundDuration":512294,"Delta":263593107},{"NoteNumber":61,"Velocity":23,"Duration":512294,"SoundDuration":512294,"Delta":263593107},{"NoteNumber":46,"Velocity":20,"Duration":512294,"SoundDuration":512294,"Delta":263593107},{"NoteNumber":49,"Velocity":24,"Duration":512294,"SoundDuration":512294,"Delta":263593107},{"NoteNumber":54,"Velocity":15,"Duration":512294,"SoundDuration":512294,"Delta":264105402},{"NoteNumber":61,"Velocity":23,"Duration":512294,"SoundDuration":512294,"Delta":264105402},{"NoteNumber":46,"Velocity":20,"Duration":512294,"SoundDuration":512294,"Delta":264105402},{"NoteNumber":49,"Velocity":24,"Duration":512294,"SoundDuration":512294,"Delta":264105402},{"NoteNumber":56,"Velocity":15,"Duration":518761,"SoundDuration":518761,"Delta":264617697},{"NoteNumber":61,"Velocity":24,"Duration":518761,"SoundDuration":518761,"Delta":264617697},{"NoteNumber":47,"Velocity":20,"Duration":518761,"SoundDuration":518761,"Delta":264617697},{"NoteNumber":49,"Velocity":24,"Duration":518761,"SoundDuration":518761,"Delta":264617697},{"NoteNumber":54,"Velocity":15,"Duration":528773,"SoundDuration":528773,"Delta":265136459},{"NoteNumber":61,"Velocity":23,"Duration":528773,"SoundDuration":528773,"Delta":265136459},{"NoteNumber":46,"Velocity":20,"Duration":528773,"SoundDuration":528773,"Delta":265136459},{"NoteNumber":49,"Velocity":24,"Duration":528773,"SoundDuration":528773,"Delta":265136459},{"NoteNumber":71,"Velocity":54,"Duration":515553,"SoundDuration":515553,"Delta":265665233},{"NoteNumber":44,"Velocity":31,"Duration":515553,"SoundDuration":515553,"Delta":265665233},{"NoteNumber":67,"Velocity":52,"Duration":504413,"SoundDuration":504413,"Delta":266180786},{"NoteNumber":59,"Velocity":26,"Duration":504413,"SoundDuration":504413,"Delta":266180786},{"NoteNumber":64,"Velocity":26,"Duration":504413,"SoundDuration":504413,"Delta":266180786},{"NoteNumber":56,"Velocity":22,"Duration":504413,"SoundDuration":504413,"Delta":266180786},{"NoteNumber":51,"Velocity":22,"Duration":504413,"SoundDuration":504413,"Delta":266180786},{"NoteNumber":68,"Velocity":54,"Duration":516871,"SoundDuration":516871,"Delta":266685200},{"NoteNumber":59,"Velocity":26,"Duration":516871,"SoundDuration":516871,"Delta":266685200},{"NoteNumber":51,"Velocity":17,"Duration":516871,"SoundDuration":516871,"Delta":266685200},{"NoteNumber":56,"Velocity":17,"Duration":516871,"SoundDuration":516871,"Delta":266685200},{"NoteNumber":63,"Velocity":22,"Duration":516871,"SoundDuration":516871,"Delta":266685200},{"NoteNumber":76,"Velocity":59,"Duration":1017905,"SoundDuration":1017905,"Delta":267202072},{"NoteNumber":44,"Velocity":38,"Duration":510421,"SoundDuration":510421,"Delta":267202072},{"NoteNumber":59,"Velocity":25,"Duration":507484,"SoundDuration":507484,"Delta":267712493},{"NoteNumber":68,"Velocity":30,"Duration":507484,"SoundDuration":507484,"Delta":267712493},{"NoteNumber":64,"Velocity":24,"Duration":507484,"SoundDuration":507484,"Delta":267712493},{"NoteNumber":51,"Velocity":18,"Duration":507484,"SoundDuration":507484,"Delta":267712493},{"NoteNumber":56,"Velocity":18,"Duration":507484,"SoundDuration":507484,"Delta":267712493},{"NoteNumber":75,"Velocity":56,"Duration":512294,"SoundDuration":512294,"Delta":268219978},{"NoteNumber":59,"Velocity":21,"Duration":512294,"SoundDuration":512294,"Delta":268219978},{"NoteNumber":68,"Velocity":25,"Duration":512294,"SoundDuration":512294,"Delta":268219978},{"NoteNumber":51,"Velocity":17,"Duration":512294,"SoundDuration":512294,"Delta":268219978},{"NoteNumber":56,"Velocity":17,"Duration":512294,"SoundDuration":512294,"Delta":268219978},{"NoteNumber":63,"Velocity":21,"Duration":512294,"SoundDuration":512294,"Delta":268219978},{"NoteNumber":75,"Velocity":58,"Duration":509121,"SoundDuration":509121,"Delta":268732273},{"NoteNumber":39,"Velocity":33,"Duration":509121,"SoundDuration":509121,"Delta":268732273},{"NoteNumber":68,"Velocity":49,"Duration":509121,"SoundDuration":509121,"Delta":269241395},{"NoteNumber":61,"Velocity":28,"Duration":509121,"SoundDuration":509121,"Delta":269241395},{"NoteNumber":64,"Velocity":25,"Duration":509121,"SoundDuration":509121,"Delta":269241395},{"NoteNumber":58,"Velocity":21,"Duration":509121,"SoundDuration":509121,"Delta":269241395},{"NoteNumber":51,"Velocity":21,"Duration":509121,"SoundDuration":509121,"Delta":269241395},{"NoteNumber":70,"Velocity":51,"Duration":515553,"SoundDuration":515553,"Delta":269750517},{"NoteNumber":67,"Velocity":27,"Duration":515553,"SoundDuration":515553,"Delta":269750517},{"NoteNumber":61,"Velocity":22,"Duration":515553,"SoundDuration":515553,"Delta":269750517},{"NoteNumber":51,"Velocity":16,"Duration":515553,"SoundDuration":515553,"Delta":269750517},{"NoteNumber":58,"Velocity":16,"Duration":515553,"SoundDuration":515553,"Delta":269750517},{"NoteNumber":63,"Velocity":21,"Duration":515553,"SoundDuration":515553,"Delta":269750517},{"NoteNumber":73,"Velocity":57,"Duration":515553,"SoundDuration":515553,"Delta":270266070},{"NoteNumber":44,"Velocity":34,"Duration":515553,"SoundDuration":515553,"Delta":270266070},{"NoteNumber":71,"Velocity":52,"Duration":3069116,"SoundDuration":3069116,"Delta":270781623},{"NoteNumber":59,"Velocity":22,"Duration":509121,"SoundDuration":509121,"Delta":270781623},{"NoteNumber":68,"Velocity":26,"Duration":509121,"SoundDuration":509121,"Delta":270781623},{"NoteNumber":64,"Velocity":25,"Duration":509121,"SoundDuration":509121,"Delta":270781623},{"NoteNumber":51,"Velocity":21,"Duration":509121,"SoundDuration":509121,"Delta":270781623},{"NoteNumber":56,"Velocity":21,"Duration":509121,"SoundDuration":509121,"Delta":270781623},{"NoteNumber":59,"Velocity":22,"Duration":515553,"SoundDuration":515553,"Delta":271290745},{"NoteNumber":68,"Velocity":26,"Duration":515553,"SoundDuration":515553,"Delta":271290745},{"NoteNumber":51,"Velocity":18,"Duration":515553,"SoundDuration":515553,"Delta":271290745},{"NoteNumber":56,"Velocity":18,"Duration":515553,"SoundDuration":515553,"Delta":271290745},{"NoteNumber":63,"Velocity":23,"Duration":515553,"SoundDuration":515553,"Delta":271290745},{"NoteNumber":59,"Velocity":20,"Duration":515553,"SoundDuration":515553,"Delta":271806298},{"NoteNumber":68,"Velocity":28,"Duration":515553,"SoundDuration":515553,"Delta":271806298},{"NoteNumber":51,"Velocity":16,"Duration":515553,"SoundDuration":515553,"Delta":271806298},{"NoteNumber":56,"Velocity":16,"Duration":515553,"SoundDuration":515553,"Delta":271806298},{"NoteNumber":63,"Velocity":25,"Duration":515553,"SoundDuration":515553,"Delta":271806298},{"NoteNumber":63,"Velocity":24,"Duration":507484,"SoundDuration":507484,"Delta":272321851},{"NoteNumber":68,"Velocity":29,"Duration":507484,"SoundDuration":507484,"Delta":272321851},{"NoteNumber":51,"Velocity":20,"Duration":507484,"SoundDuration":507484,"Delta":272321851},{"NoteNumber":56,"Velocity":20,"Duration":507484,"SoundDuration":507484,"Delta":272321851},{"NoteNumber":61,"Velocity":24,"Duration":507484,"SoundDuration":507484,"Delta":272321851},{"NoteNumber":63,"Velocity":24,"Duration":513918,"SoundDuration":513918,"Delta":272829336},{"NoteNumber":68,"Velocity":27,"Duration":513918,"SoundDuration":513918,"Delta":272829336},{"NoteNumber":51,"Velocity":20,"Duration":513918,"SoundDuration":513918,"Delta":272829336},{"NoteNumber":56,"Velocity":20,"Duration":513918,"SoundDuration":513918,"Delta":272829336},{"NoteNumber":59,"Velocity":24,"Duration":513918,"SoundDuration":513918,"Delta":272829336},{"NoteNumber":63,"Velocity":22,"Duration":507484,"SoundDuration":507484,"Delta":273343255},{"NoteNumber":68,"Velocity":27,"Duration":507484,"SoundDuration":507484,"Delta":273343255},{"NoteNumber":51,"Velocity":21,"Duration":507484,"SoundDuration":507484,"Delta":273343255},{"NoteNumber":56,"Velocity":21,"Duration":507484,"SoundDuration":507484,"Delta":273343255},{"NoteNumber":59,"Velocity":25,"Duration":507484,"SoundDuration":507484,"Delta":273343255},{"NoteNumber":58,"Velocity":23,"Duration":507485,"SoundDuration":507485,"Delta":273850740},{"NoteNumber":63,"Velocity":27,"Duration":507485,"SoundDuration":507485,"Delta":273850740},{"NoteNumber":49,"Velocity":22,"Duration":507485,"SoundDuration":507485,"Delta":273850740},{"NoteNumber":51,"Velocity":26,"Duration":507485,"SoundDuration":507485,"Delta":273850740},{"NoteNumber":56,"Velocity":22,"Duration":513918,"SoundDuration":513918,"Delta":274358225},{"NoteNumber":63,"Velocity":27,"Duration":513918,"SoundDuration":513918,"Delta":274358225},{"NoteNumber":47,"Velocity":22,"Duration":513918,"SoundDuration":513918,"Delta":274358225},{"NoteNumber":51,"Velocity":26,"Duration":513918,"SoundDuration":513918,"Delta":274358225},{"NoteNumber":56,"Velocity":22,"Duration":518761,"SoundDuration":518761,"Delta":274872144},{"NoteNumber":63,"Velocity":27,"Duration":518761,"SoundDuration":518761,"Delta":274872144},{"NoteNumber":47,"Velocity":22,"Duration":518761,"SoundDuration":518761,"Delta":274872144},{"NoteNumber":51,"Velocity":26,"Duration":518761,"SoundDuration":518761,"Delta":274872144},{"NoteNumber":58,"Velocity":22,"Duration":512294,"SoundDuration":512294,"Delta":275390906},{"NoteNumber":63,"Velocity":27,"Duration":512294,"SoundDuration":512294,"Delta":275390906},{"NoteNumber":49,"Velocity":22,"Duration":512294,"SoundDuration":512294,"Delta":275390906},{"NoteNumber":51,"Velocity":24,"Duration":512294,"SoundDuration":512294,"Delta":275390906},{"NoteNumber":56,"Velocity":22,"Duration":512294,"SoundDuration":512294,"Delta":275903201},{"NoteNumber":63,"Velocity":27,"Duration":512294,"SoundDuration":512294,"Delta":275903201},{"NoteNumber":47,"Velocity":22,"Duration":512294,"SoundDuration":512294,"Delta":275903201},{"NoteNumber":51,"Velocity":26,"Duration":512294,"SoundDuration":512294,"Delta":275903201},{"NoteNumber":56,"Velocity":22,"Duration":512294,"SoundDuration":512294,"Delta":276415496},{"NoteNumber":63,"Velocity":27,"Duration":512294,"SoundDuration":512294,"Delta":276415496},{"NoteNumber":47,"Velocity":22,"Duration":512294,"SoundDuration":512294,"Delta":276415496},{"NoteNumber":51,"Velocity":26,"Duration":512294,"SoundDuration":512294,"Delta":276415496},{"NoteNumber":58,"Velocity":22,"Duration":512294,"SoundDuration":512294,"Delta":276927791},{"NoteNumber":63,"Velocity":27,"Duration":512294,"SoundDuration":512294,"Delta":276927791},{"NoteNumber":46,"Velocity":21,"Duration":512294,"SoundDuration":512294,"Delta":276927791},{"NoteNumber":51,"Velocity":25,"Duration":512294,"SoundDuration":512294,"Delta":276927791},{"NoteNumber":59,"Velocity":22,"Duration":512294,"SoundDuration":512294,"Delta":277440086},{"NoteNumber":54,"Velocity":22,"Duration":512294,"SoundDuration":512294,"Delta":277440086},{"NoteNumber":63,"Velocity":27,"Duration":512294,"SoundDuration":512294,"Delta":277440086},{"NoteNumber":44,"Velocity":20,"Duration":512294,"SoundDuration":512294,"Delta":277440086},{"NoteNumber":51,"Velocity":24,"Duration":512294,"SoundDuration":512294,"Delta":277440086},{"NoteNumber":53,"Velocity":24,"Duration":512295,"SoundDuration":512295,"Delta":277952381},{"NoteNumber":59,"Velocity":28,"Duration":512295,"SoundDuration":512295,"Delta":277952381},{"NoteNumber":61,"Velocity":28,"Duration":512295,"SoundDuration":512295,"Delta":277952381},{"NoteNumber":37,"Velocity":20,"Duration":512295,"SoundDuration":512295,"Delta":277952381},{"NoteNumber":68,"Velocity":39,"Duration":512294,"SoundDuration":512294,"Delta":278464676},{"NoteNumber":59,"Velocity":22,"Duration":512294,"SoundDuration":512294,"Delta":278464676},{"NoteNumber":65,"Velocity":27,"Duration":512294,"SoundDuration":512294,"Delta":278464676},{"NoteNumber":70,"Velocity":39,"Duration":522058,"SoundDuration":522058,"Delta":278976971},{"NoteNumber":59,"Velocity":22,"Duration":522058,"SoundDuration":522058,"Delta":278976971},{"NoteNumber":65,"Velocity":27,"Duration":522058,"SoundDuration":522058,"Delta":278976971},{"NoteNumber":49,"Velocity":27,"Duration":389102,"SoundDuration":389102,"Delta":278976971},{"NoteNumber":50,"Velocity":26,"Duration":66477,"SoundDuration":66477,"Delta":279366074},{"NoteNumber":51,"Velocity":26,"Duration":66477,"SoundDuration":66477,"Delta":279432551},{"NoteNumber":66,"Velocity":46,"Duration":1050558,"SoundDuration":1050558,"Delta":279499029},{"NoteNumber":54,"Velocity":25,"Duration":537430,"SoundDuration":537430,"Delta":279499029},{"NoteNumber":59,"Velocity":30,"Duration":537430,"SoundDuration":537430,"Delta":279499029},{"NoteNumber":53,"Velocity":25,"Duration":92262,"SoundDuration":92262,"Delta":279499029},{"NoteNumber":51,"Velocity":21,"Duration":91256,"SoundDuration":91256,"Delta":279591292},{"NoteNumber":53,"Velocity":24,"Duration":90087,"SoundDuration":90087,"Delta":279682548},{"NoteNumber":51,"Velocity":22,"Duration":89022,"SoundDuration":89022,"Delta":279772635},{"NoteNumber":53,"Velocity":24,"Duration":87903,"SoundDuration":87903,"Delta":279861658},{"NoteNumber":51,"Velocity":21,"Duration":86898,"SoundDuration":86898,"Delta":279949561},{"NoteNumber":54,"Velocity":21,"Duration":513127,"SoundDuration":513127,"Delta":280036460},{"NoteNumber":59,"Velocity":25,"Duration":513127,"SoundDuration":513127,"Delta":280036460},{"NoteNumber":53,"Velocity":24,"Duration":86088,"SoundDuration":86088,"Delta":280036460},{"NoteNumber":51,"Velocity":21,"Duration":85733,"SoundDuration":85733,"Delta":280122548},{"NoteNumber":53,"Velocity":24,"Duration":85647,"SoundDuration":85647,"Delta":280208282},{"NoteNumber":51,"Velocity":21,"Duration":85389,"SoundDuration":85389,"Delta":280293930},{"NoteNumber":53,"Velocity":24,"Duration":85219,"SoundDuration":85219,"Delta":280379319},{"NoteNumber":51,"Velocity":21,"Duration":85048,"SoundDuration":85048,"Delta":280464539},{"NoteNumber":63,"Velocity":39,"Duration":529513,"SoundDuration":529513,"Delta":280549587},{"NoteNumber":54,"Velocity":22,"Duration":529513,"SoundDuration":529513,"Delta":280549587},{"NoteNumber":59,"Velocity":26,"Duration":529513,"SoundDuration":529513,"Delta":280549587},{"NoteNumber":53,"Velocity":24,"Duration":128352,"SoundDuration":128352,"Delta":280549587},{"NoteNumber":51,"Velocity":21,"Duration":131579,"SoundDuration":131579,"Delta":280677939},{"NoteNumber":53,"Velocity":24,"Duration":67056,"SoundDuration":67056,"Delta":280809519},{"NoteNumber":51,"Velocity":20,"Duration":67927,"SoundDuration":67927,"Delta":280876576},{"NoteNumber":49,"Velocity":24,"Duration":68476,"SoundDuration":68476,"Delta":280944504},{"NoteNumber":51,"Velocity":18,"Duration":66121,"SoundDuration":66121,"Delta":281012980},{"NoteNumber":56,"Velocity":27,"Duration":512338,"SoundDuration":512338,"Delta":281079101},{"NoteNumber":59,"Velocity":27,"Duration":512338,"SoundDuration":512338,"Delta":281079101},{"NoteNumber":61,"Velocity":36,"Duration":512338,"SoundDuration":512338,"Delta":281079101},{"NoteNumber":53,"Velocity":32,"Duration":512338,"SoundDuration":512338,"Delta":281079101},{"NoteNumber":68,"Velocity":39,"Duration":512338,"SoundDuration":512338,"Delta":281591440},{"NoteNumber":59,"Velocity":23,"Duration":512338,"SoundDuration":512338,"Delta":281591440},{"NoteNumber":65,"Velocity":27,"Duration":512338,"SoundDuration":512338,"Delta":281591440},{"NoteNumber":37,"Velocity":25,"Duration":512338,"SoundDuration":512338,"Delta":281591440},{"NoteNumber":70,"Velocity":39,"Duration":519882,"SoundDuration":519882,"Delta":282103779},{"NoteNumber":59,"Velocity":23,"Duration":519882,"SoundDuration":519882,"Delta":282103779},{"NoteNumber":65,"Velocity":27,"Duration":519882,"SoundDuration":519882,"Delta":282103779},{"NoteNumber":49,"Velocity":27,"Duration":388026,"SoundDuration":388026,"Delta":282103779},{"NoteNumber":50,"Velocity":26,"Duration":65928,"SoundDuration":65928,"Delta":282491805},{"NoteNumber":51,"Velocity":26,"Duration":65928,"SoundDuration":65928,"Delta":282557733},{"NoteNumber":66,"Velocity":46,"Duration":1046580,"SoundDuration":1046580,"Delta":282623661},{"NoteNumber":54,"Velocity":25,"Duration":535362,"SoundDuration":535362,"Delta":282623661},{"NoteNumber":59,"Velocity":30,"Duration":535362,"SoundDuration":535362,"Delta":282623661},{"NoteNumber":53,"Velocity":25,"Duration":91554,"SoundDuration":91554,"Delta":282623661},{"NoteNumber":51,"Velocity":21,"Duration":90570,"SoundDuration":90570,"Delta":282715216},{"NoteNumber":53,"Velocity":24,"Duration":89697,"SoundDuration":89697,"Delta":282805786},{"NoteNumber":51,"Velocity":22,"Duration":88738,"SoundDuration":88738,"Delta":282895483},{"NoteNumber":53,"Velocity":24,"Duration":87903,"SoundDuration":87903,"Delta":282984221},{"NoteNumber":51,"Velocity":21,"Duration":86898,"SoundDuration":86898,"Delta":283072125},{"NoteNumber":54,"Velocity":23,"Duration":511217,"SoundDuration":511217,"Delta":283159024},{"NoteNumber":59,"Velocity":27,"Duration":511217,"SoundDuration":511217,"Delta":283159024},{"NoteNumber":53,"Velocity":24,"Duration":85733,"SoundDuration":85733,"Delta":283159024},{"NoteNumber":51,"Velocity":21,"Duration":85561,"SoundDuration":85561,"Delta":283244757},{"NoteNumber":53,"Velocity":24,"Duration":85389,"SoundDuration":85389,"Delta":283330319},{"NoteNumber":51,"Velocity":21,"Duration":85048,"SoundDuration":85048,"Delta":283415709},{"NoteNumber":53,"Velocity":24,"Duration":84871,"SoundDuration":84871,"Delta":283500758},{"NoteNumber":51,"Velocity":21,"Duration":84611,"SoundDuration":84611,"Delta":283585630},{"NoteNumber":63,"Velocity":43,"Duration":523126,"SoundDuration":523126,"Delta":283670241},{"NoteNumber":54,"Velocity":23,"Duration":523126,"SoundDuration":523126,"Delta":283670241},{"NoteNumber":59,"Velocity":27,"Duration":523126,"SoundDuration":523126,"Delta":283670241},{"NoteNumber":53,"Velocity":24,"Duration":127310,"SoundDuration":127310,"Delta":283670241},{"NoteNumber":51,"Velocity":21,"Duration":129763,"SoundDuration":129763,"Delta":283797552},{"NoteNumber":53,"Velocity":24,"Duration":65927,"SoundDuration":65927,"Delta":283927316},{"NoteNumber":51,"Velocity":20,"Duration":66482,"SoundDuration":66482,"Delta":283993243},{"NoteNumber":49,"Velocity":24,"Duration":68048,"SoundDuration":68048,"Delta":284059725},{"NoteNumber":51,"Velocity":18,"Duration":65594,"SoundDuration":65594,"Delta":284127773},{"NoteNumber":56,"Velocity":27,"Duration":508173,"SoundDuration":508173,"Delta":284193368},{"NoteNumber":59,"Velocity":27,"Duration":508173,"SoundDuration":508173,"Delta":284193368},{"NoteNumber":61,"Velocity":31,"Duration":508173,"SoundDuration":508173,"Delta":284193368},{"NoteNumber":53,"Velocity":34,"Duration":508173,"SoundDuration":508173,"Delta":284193368},{"NoteNumber":68,"Velocity":44,"Duration":495823,"SoundDuration":495823,"Delta":284701541},{"NoteNumber":59,"Velocity":29,"Duration":495823,"SoundDuration":495823,"Delta":284701541},{"NoteNumber":65,"Velocity":35,"Duration":495823,"SoundDuration":495823,"Delta":284701541},{"NoteNumber":37,"Velocity":37,"Duration":495823,"SoundDuration":495823,"Delta":284701541},{"NoteNumber":70,"Velocity":45,"Duration":503778,"SoundDuration":503778,"Delta":285197365},{"NoteNumber":59,"Velocity":31,"Duration":503778,"SoundDuration":503778,"Delta":285197365},{"NoteNumber":65,"Velocity":37,"Duration":503778,"SoundDuration":503778,"Delta":285197365},{"NoteNumber":49,"Velocity":20,"Duration":503778,"SoundDuration":503778,"Delta":285197365},{"NoteNumber":56,"Velocity":20,"Duration":503778,"SoundDuration":503778,"Delta":285197365},{"NoteNumber":61,"Velocity":30,"Duration":503778,"SoundDuration":503778,"Delta":285197365},{"NoteNumber":71,"Velocity":47,"Duration":503778,"SoundDuration":503778,"Delta":285701143},{"NoteNumber":59,"Velocity":33,"Duration":503778,"SoundDuration":503778,"Delta":285701143},{"NoteNumber":65,"Velocity":40,"Duration":503778,"SoundDuration":503778,"Delta":285701143},{"NoteNumber":49,"Velocity":23,"Duration":503778,"SoundDuration":503778,"Delta":285701143},{"NoteNumber":56,"Velocity":23,"Duration":503778,"SoundDuration":503778,"Delta":285701143},{"NoteNumber":61,"Velocity":34,"Duration":503778,"SoundDuration":503778,"Delta":285701143},{"NoteNumber":72,"Velocity":51,"Duration":510421,"SoundDuration":510421,"Delta":286204921},{"NoteNumber":60,"Velocity":36,"Duration":510421,"SoundDuration":510421,"Delta":286204921},{"NoteNumber":65,"Velocity":45,"Duration":510421,"SoundDuration":510421,"Delta":286204921},{"NoteNumber":49,"Velocity":24,"Duration":510421,"SoundDuration":510421,"Delta":286204921},{"NoteNumber":56,"Velocity":24,"Duration":510421,"SoundDuration":510421,"Delta":286204921},{"NoteNumber":59,"Velocity":36,"Duration":510421,"SoundDuration":510421,"Delta":286204921},{"NoteNumber":73,"Velocity":57,"Duration":518716,"SoundDuration":518716,"Delta":286715342},{"NoteNumber":61,"Velocity":42,"Duration":518716,"SoundDuration":518716,"Delta":286715342},{"NoteNumber":65,"Velocity":47,"Duration":518716,"SoundDuration":518716,"Delta":286715342},{"NoteNumber":49,"Velocity":23,"Duration":518716,"SoundDuration":518716,"Delta":286715342},{"NoteNumber":56,"Velocity":22,"Duration":518716,"SoundDuration":518716,"Delta":286715342},{"NoteNumber":59,"Velocity":39,"Duration":518716,"SoundDuration":518716,"Delta":286715342},{"NoteNumber":74,"Velocity":49,"Duration":495867,"SoundDuration":495867,"Delta":287234059},{"NoteNumber":62,"Velocity":43,"Duration":495867,"SoundDuration":495867,"Delta":287234059},{"NoteNumber":65,"Velocity":43,"Duration":495867,"SoundDuration":495867,"Delta":287234059},{"NoteNumber":49,"Velocity":28,"Duration":495867,"SoundDuration":495867,"Delta":287234059},{"NoteNumber":56,"Velocity":34,"Duration":495867,"SoundDuration":495867,"Delta":287234059},{"NoteNumber":59,"Velocity":34,"Duration":495867,"SoundDuration":495867,"Delta":287234059},{"NoteNumber":75,"Velocity":51,"Duration":767273,"SoundDuration":767273,"Delta":287729927},{"NoteNumber":63,"Velocity":44,"Duration":767273,"SoundDuration":767273,"Delta":287729927},{"NoteNumber":65,"Velocity":45,"Duration":767273,"SoundDuration":767273,"Delta":287729927},{"NoteNumber":49,"Velocity":29,"Duration":514109,"SoundDuration":514109,"Delta":287729927},{"NoteNumber":56,"Velocity":34,"Duration":514109,"SoundDuration":514109,"Delta":287729927},{"NoteNumber":59,"Velocity":35,"Duration":514109,"SoundDuration":514109,"Delta":287729927},{"NoteNumber":59,"Velocity":27,"Duration":506328,"SoundDuration":506328,"Delta":288244036},{"NoteNumber":49,"Velocity":23,"Duration":506328,"SoundDuration":506328,"Delta":288244036},{"NoteNumber":56,"Velocity":24,"Duration":506328,"SoundDuration":506328,"Delta":288244036},{"NoteNumber":74,"Velocity":49,"Duration":253164,"SoundDuration":253164,"Delta":288497201},{"NoteNumber":62,"Velocity":33,"Duration":253164,"SoundDuration":253164,"Delta":288497201},{"NoteNumber":65,"Velocity":33,"Duration":253164,"SoundDuration":253164,"Delta":288497201},{"NoteNumber":74,"Velocity":50,"Duration":524017,"SoundDuration":524017,"Delta":288750365},{"NoteNumber":62,"Velocity":34,"Duration":524017,"SoundDuration":524017,"Delta":288750365},{"NoteNumber":65,"Velocity":35,"Duration":524017,"SoundDuration":524017,"Delta":288750365},{"NoteNumber":49,"Velocity":27,"Duration":524017,"SoundDuration":524017,"Delta":288750365},{"NoteNumber":56,"Velocity":34,"Duration":524017,"SoundDuration":524017,"Delta":288750365},{"NoteNumber":59,"Velocity":34,"Duration":524017,"SoundDuration":524017,"Delta":288750365},{"NoteNumber":75,"Velocity":51,"Duration":769486,"SoundDuration":769486,"Delta":289274382},{"NoteNumber":63,"Velocity":44,"Duration":769486,"SoundDuration":769486,"Delta":289274382},{"NoteNumber":65,"Velocity":44,"Duration":769486,"SoundDuration":769486,"Delta":289274382},{"NoteNumber":49,"Velocity":14,"Duration":769486,"SoundDuration":769486,"Delta":289274382},{"NoteNumber":56,"Velocity":20,"Duration":769486,"SoundDuration":769486,"Delta":289274382},{"NoteNumber":59,"Velocity":36,"Duration":769486,"SoundDuration":769486,"Delta":289274382},{"NoteNumber":74,"Velocity":54,"Duration":243902,"SoundDuration":243902,"Delta":290043869},{"NoteNumber":62,"Velocity":37,"Duration":243902,"SoundDuration":243902,"Delta":290043869},{"NoteNumber":38,"Velocity":31,"Duration":243902,"SoundDuration":243902,"Delta":290043869},{"NoteNumber":50,"Velocity":39,"Duration":243902,"SoundDuration":243902,"Delta":290043869},{"NoteNumber":74,"Velocity":58,"Duration":486421,"SoundDuration":486421,"Delta":290287772},{"NoteNumber":62,"Velocity":49,"Duration":486421,"SoundDuration":486421,"Delta":290287772},{"NoteNumber":38,"Velocity":35,"Duration":486421,"SoundDuration":486421,"Delta":290287772},{"NoteNumber":50,"Velocity":43,"Duration":486421,"SoundDuration":486421,"Delta":290287772},{"NoteNumber":73,"Velocity":63,"Duration":720796,"SoundDuration":720796,"Delta":290774193},{"NoteNumber":61,"Velocity":52,"Duration":720796,"SoundDuration":720796,"Delta":290774193},{"NoteNumber":37,"Velocity":39,"Duration":720796,"SoundDuration":720796,"Delta":290774193},{"NoteNumber":49,"Velocity":47,"Duration":720796,"SoundDuration":720796,"Delta":290774193},{"NoteNumber":72,"Velocity":55,"Duration":234375,"SoundDuration":234375,"Delta":291494989},{"NoteNumber":60,"Velocity":46,"Duration":234375,"SoundDuration":234375,"Delta":291494989},{"NoteNumber":36,"Velocity":31,"Duration":234375,"SoundDuration":234375,"Delta":291494989},{"NoteNumber":48,"Velocity":38,"Duration":234375,"SoundDuration":234375,"Delta":291494989},{"NoteNumber":72,"Velocity":61,"Duration":461538,"SoundDuration":461538,"Delta":291729364},{"NoteNumber":60,"Velocity":51,"Duration":461538,"SoundDuration":461538,"Delta":291729364},{"NoteNumber":36,"Velocity":34,"Duration":461538,"SoundDuration":461538,"Delta":291729364},{"NoteNumber":48,"Velocity":42,"Duration":461538,"SoundDuration":461538,"Delta":291729364},{"NoteNumber":71,"Velocity":61,"Duration":685418,"SoundDuration":685418,"Delta":292190902},{"NoteNumber":59,"Velocity":52,"Duration":685418,"SoundDuration":685418,"Delta":292190902},{"NoteNumber":35,"Velocity":42,"Duration":685418,"SoundDuration":685418,"Delta":292190902},{"NoteNumber":47,"Velocity":50,"Duration":685418,"SoundDuration":685418,"Delta":292190902},{"NoteNumber":70,"Velocity":61,"Duration":223880,"SoundDuration":223880,"Delta":292876320},{"NoteNumber":58,"Velocity":49,"Duration":223880,"SoundDuration":223880,"Delta":292876320},{"NoteNumber":34,"Velocity":32,"Duration":223880,"SoundDuration":223880,"Delta":292876320},{"NoteNumber":46,"Velocity":40,"Duration":223880,"SoundDuration":223880,"Delta":292876320},{"NoteNumber":70,"Velocity":66,"Duration":442804,"SoundDuration":442804,"Delta":293100201},{"NoteNumber":58,"Velocity":55,"Duration":442804,"SoundDuration":442804,"Delta":293100201},{"NoteNumber":34,"Velocity":34,"Duration":442804,"SoundDuration":442804,"Delta":293100201},{"NoteNumber":46,"Velocity":44,"Duration":442804,"SoundDuration":442804,"Delta":293100201},{"NoteNumber":69,"Velocity":68,"Duration":657089,"SoundDuration":657089,"Delta":293543005},{"NoteNumber":57,"Velocity":56,"Duration":657089,"SoundDuration":657089,"Delta":293543005},{"NoteNumber":33,"Velocity":45,"Duration":657089,"SoundDuration":657089,"Delta":293543005},{"NoteNumber":45,"Velocity":55,"Duration":657089,"SoundDuration":657089,"Delta":293543005},{"NoteNumber":68,"Velocity":67,"Duration":214285,"SoundDuration":214285,"Delta":294200094},{"NoteNumber":56,"Velocity":55,"Duration":214285,"SoundDuration":214285,"Delta":294200094},{"NoteNumber":32,"Velocity":35,"Duration":214285,"SoundDuration":214285,"Delta":294200094},{"NoteNumber":44,"Velocity":44,"Duration":214285,"SoundDuration":214285,"Delta":294200094},{"NoteNumber":68,"Velocity":73,"Duration":422534,"SoundDuration":422534,"Delta":294414380},{"NoteNumber":56,"Velocity":59,"Duration":422534,"SoundDuration":422534,"Delta":294414380},{"NoteNumber":32,"Velocity":37,"Duration":422534,"SoundDuration":422534,"Delta":294414380},{"NoteNumber":44,"Velocity":48,"Duration":422534,"SoundDuration":422534,"Delta":294414380},{"NoteNumber":66,"Velocity":73,"Duration":342856,"SoundDuration":342856,"Delta":294836915},{"NoteNumber":54,"Velocity":61,"Duration":342856,"SoundDuration":342856,"Delta":294836915},{"NoteNumber":30,"Velocity":29,"Duration":342856,"SoundDuration":342856,"Delta":294836915},{"NoteNumber":42,"Velocity":56,"Duration":342856,"SoundDuration":342856,"Delta":294836915},{"NoteNumber":58,"Velocity":73,"Duration":293054,"SoundDuration":293054,"Delta":295179772},{"NoteNumber":34,"Velocity":42,"Duration":293054,"SoundDuration":293054,"Delta":295179772},{"NoteNumber":46,"Velocity":49,"Duration":293054,"SoundDuration":293054,"Delta":295179772},{"NoteNumber":51,"Velocity":47,"Duration":49836,"SoundDuration":49836,"Delta":295472827},{"NoteNumber":63,"Velocity":56,"Duration":49836,"SoundDuration":49836,"Delta":295472827},{"NoteNumber":27,"Velocity":36,"Duration":268281,"SoundDuration":268281,"Delta":295472827},{"NoteNumber":39,"Velocity":42,"Duration":268281,"SoundDuration":268281,"Delta":295472827},{"NoteNumber":51,"Velocity":49,"Duration":50769,"SoundDuration":50769,"Delta":295605723},{"NoteNumber":63,"Velocity":58,"Duration":50769,"SoundDuration":50769,"Delta":295605723},{"NoteNumber":51,"Velocity":54,"Duration":49721,"SoundDuration":49721,"Delta":295741108},{"NoteNumber":63,"Velocity":64,"Duration":49721,"SoundDuration":49721,"Delta":295741108},{"NoteNumber":28,"Velocity":36,"Duration":49721,"SoundDuration":49721,"Delta":295741108},{"NoteNumber":40,"Velocity":42,"Duration":49721,"SoundDuration":49721,"Delta":295741108},{"NoteNumber":51,"Velocity":56,"Duration":53003,"SoundDuration":53003,"Delta":295873699},{"NoteNumber":63,"Velocity":65,"Duration":53003,"SoundDuration":53003,"Delta":295873699},{"NoteNumber":29,"Velocity":36,"Duration":53003,"SoundDuration":53003,"Delta":295873699},{"NoteNumber":41,"Velocity":45,"Duration":53003,"SoundDuration":53003,"Delta":295873699},{"NoteNumber":51,"Velocity":61,"Duration":284791,"SoundDuration":284791,"Delta":296012483},{"NoteNumber":63,"Velocity":72,"Duration":284791,"SoundDuration":284791,"Delta":296012483},{"NoteNumber":30,"Velocity":42,"Duration":284791,"SoundDuration":284791,"Delta":296012483},{"NoteNumber":42,"Velocity":50,"Duration":284791,"SoundDuration":284791,"Delta":296012483},{"NoteNumber":53,"Velocity":67,"Duration":276714,"SoundDuration":276714,"Delta":296297275},{"NoteNumber":59,"Velocity":67,"Duration":276714,"SoundDuration":276714,"Delta":296297275},{"NoteNumber":63,"Velocity":67,"Duration":276714,"SoundDuration":276714,"Delta":296297275},{"NoteNumber":65,"Velocity":80,"Duration":276714,"SoundDuration":276714,"Delta":296297275},{"NoteNumber":32,"Velocity":50,"Duration":224830,"SoundDuration":224830,"Delta":296297275},{"NoteNumber":44,"Velocity":59,"Duration":224830,"SoundDuration":224830,"Delta":296297275},{"NoteNumber":44,"Velocity":37,"Duration":273636,"SoundDuration":273636,"Delta":296522105},{"NoteNumber":51,"Velocity":37,"Duration":256341,"SoundDuration":256341,"Delta":296539399},{"NoteNumber":53,"Velocity":37,"Duration":239047,"SoundDuration":239047,"Delta":296556694},{"NoteNumber":65,"Velocity":56,"Duration":136462,"SoundDuration":136462,"Delta":296573989},{"NoteNumber":71,"Velocity":56,"Duration":136462,"SoundDuration":136462,"Delta":296573989},{"NoteNumber":75,"Velocity":56,"Duration":136462,"SoundDuration":136462,"Delta":296573989},{"NoteNumber":77,"Velocity":68,"Duration":136462,"SoundDuration":136462,"Delta":296573989},{"NoteNumber":59,"Velocity":46,"Duration":221752,"SoundDuration":221752,"Delta":296573989},{"NoteNumber":63,"Velocity":55,"Duration":136462,"SoundDuration":136462,"Delta":296710452},{"NoteNumber":75,"Velocity":66,"Duration":136462,"SoundDuration":136462,"Delta":296710452},{"NoteNumber":46,"Velocity":37,"Duration":328977,"SoundDuration":328977,"Delta":296795741},{"NoteNumber":53,"Velocity":37,"Duration":311919,"SoundDuration":311919,"Delta":296812799},{"NoteNumber":56,"Velocity":37,"Duration":294861,"SoundDuration":294861,"Delta":296829857},{"NoteNumber":65,"Velocity":56,"Duration":135062,"SoundDuration":135062,"Delta":296846915},{"NoteNumber":70,"Velocity":56,"Duration":135062,"SoundDuration":135062,"Delta":296846915},{"NoteNumber":74,"Velocity":56,"Duration":135062,"SoundDuration":135062,"Delta":296846915},{"NoteNumber":77,"Velocity":68,"Duration":135062,"SoundDuration":135062,"Delta":296846915},{"NoteNumber":62,"Velocity":46,"Duration":277803,"SoundDuration":277803,"Delta":296846915},{"NoteNumber":66,"Velocity":53,"Duration":142741,"SoundDuration":142741,"Delta":296981977},{"NoteNumber":78,"Velocity":65,"Duration":142741,"SoundDuration":142741,"Delta":296981977},{"NoteNumber":54,"Velocity":49,"Duration":49721,"SoundDuration":49721,"Delta":297124718},{"NoteNumber":66,"Velocity":59,"Duration":49721,"SoundDuration":49721,"Delta":297124718},{"NoteNumber":30,"Velocity":38,"Duration":267975,"SoundDuration":267975,"Delta":297124718},{"NoteNumber":42,"Velocity":44,"Duration":267975,"SoundDuration":267975,"Delta":297124718},{"NoteNumber":54,"Velocity":52,"Duration":50769,"SoundDuration":50769,"Delta":297257309},{"NoteNumber":66,"Velocity":61,"Duration":50769,"SoundDuration":50769,"Delta":297257309},{"NoteNumber":54,"Velocity":57,"Duration":49721,"SoundDuration":49721,"Delta":297392694},{"NoteNumber":66,"Velocity":67,"Duration":49721,"SoundDuration":49721,"Delta":297392694},{"NoteNumber":31,"Velocity":38,"Duration":49721,"SoundDuration":49721,"Delta":297392694},{"NoteNumber":43,"Velocity":44,"Duration":49721,"SoundDuration":49721,"Delta":297392694},{"NoteNumber":54,"Velocity":57,"Duration":53660,"SoundDuration":53660,"Delta":297525285},{"NoteNumber":66,"Velocity":66,"Duration":53660,"SoundDuration":53660,"Delta":297525285},{"NoteNumber":32,"Velocity":35,"Duration":53660,"SoundDuration":53660,"Delta":297525285},{"NoteNumber":44,"Velocity":43,"Duration":53660,"SoundDuration":53660,"Delta":297525285},{"NoteNumber":54,"Velocity":64,"Duration":281294,"SoundDuration":281294,"Delta":297665287},{"NoteNumber":66,"Velocity":75,"Duration":281294,"SoundDuration":281294,"Delta":297665287},{"NoteNumber":33,"Velocity":43,"Duration":281294,"SoundDuration":281294,"Delta":297665287},{"NoteNumber":45,"Velocity":51,"Duration":281294,"SoundDuration":281294,"Delta":297665287},{"NoteNumber":56,"Velocity":67,"Duration":275191,"SoundDuration":275191,"Delta":297946581},{"NoteNumber":62,"Velocity":69,"Duration":275191,"SoundDuration":275191,"Delta":297946581},{"NoteNumber":66,"Velocity":69,"Duration":275191,"SoundDuration":275191,"Delta":297946581},{"NoteNumber":68,"Velocity":82,"Duration":275191,"SoundDuration":275191,"Delta":297946581},{"NoteNumber":35,"Velocity":53,"Duration":223592,"SoundDuration":223592,"Delta":297946581},{"NoteNumber":47,"Velocity":63,"Duration":223592,"SoundDuration":223592,"Delta":297946581},{"NoteNumber":48,"Velocity":39,"Duration":272746,"SoundDuration":272746,"Delta":298170174},{"NoteNumber":54,"Velocity":39,"Duration":255547,"SoundDuration":255547,"Delta":298187373},{"NoteNumber":56,"Velocity":39,"Duration":238348,"SoundDuration":238348,"Delta":298204573},{"NoteNumber":68,"Velocity":59,"Duration":136091,"SoundDuration":136091,"Delta":298221772},{"NoteNumber":74,"Velocity":59,"Duration":136091,"SoundDuration":136091,"Delta":298221772},{"NoteNumber":78,"Velocity":59,"Duration":136091,"SoundDuration":136091,"Delta":298221772},{"NoteNumber":80,"Velocity":72,"Duration":136091,"SoundDuration":136091,"Delta":298221772},{"NoteNumber":62,"Velocity":48,"Duration":221148,"SoundDuration":221148,"Delta":298221772},{"NoteNumber":66,"Velocity":58,"Duration":136091,"SoundDuration":136091,"Delta":298357864},{"NoteNumber":78,"Velocity":70,"Duration":136091,"SoundDuration":136091,"Delta":298357864},{"NoteNumber":49,"Velocity":39,"Duration":327517,"SoundDuration":327517,"Delta":298442921},{"NoteNumber":56,"Velocity":39,"Duration":310505,"SoundDuration":310505,"Delta":298459932},{"NoteNumber":59,"Velocity":39,"Duration":293494,"SoundDuration":293494,"Delta":298476944},{"NoteNumber":68,"Velocity":59,"Duration":134444,"SoundDuration":134444,"Delta":298493955},{"NoteNumber":73,"Velocity":59,"Duration":134444,"SoundDuration":134444,"Delta":298493955},{"NoteNumber":77,"Velocity":59,"Duration":134444,"SoundDuration":134444,"Delta":298493955},{"NoteNumber":80,"Velocity":72,"Duration":134444,"SoundDuration":134444,"Delta":298493955},{"NoteNumber":65,"Velocity":48,"Duration":276482,"SoundDuration":276482,"Delta":298493955},{"NoteNumber":69,"Velocity":54,"Duration":142038,"SoundDuration":142038,"Delta":298628400},{"NoteNumber":81,"Velocity":65,"Duration":142038,"SoundDuration":142038,"Delta":298628400},{"NoteNumber":57,"Velocity":47,"Duration":49156,"SoundDuration":49156,"Delta":298770438},{"NoteNumber":69,"Velocity":56,"Duration":49156,"SoundDuration":49156,"Delta":298770438},{"NoteNumber":33,"Velocity":36,"Duration":264952,"SoundDuration":264952,"Delta":298770438},{"NoteNumber":45,"Velocity":42,"Duration":264952,"SoundDuration":264952,"Delta":298770438},{"NoteNumber":57,"Velocity":51,"Duration":50180,"SoundDuration":50180,"Delta":298901523},{"NoteNumber":69,"Velocity":60,"Duration":50180,"SoundDuration":50180,"Delta":298901523},{"NoteNumber":57,"Velocity":54,"Duration":49383,"SoundDuration":49383,"Delta":299035390},{"NoteNumber":69,"Velocity":64,"Duration":49383,"SoundDuration":49383,"Delta":299035390},{"NoteNumber":35,"Velocity":36,"Duration":49383,"SoundDuration":49383,"Delta":299035390},{"NoteNumber":47,"Velocity":42,"Duration":49383,"SoundDuration":49383,"Delta":299035390},{"NoteNumber":57,"Velocity":59,"Duration":53528,"SoundDuration":53528,"Delta":299167079},{"NoteNumber":69,"Velocity":69,"Duration":53528,"SoundDuration":53528,"Delta":299167079},{"NoteNumber":36,"Velocity":37,"Duration":53528,"SoundDuration":53528,"Delta":299167079},{"NoteNumber":48,"Velocity":45,"Duration":53528,"SoundDuration":53528,"Delta":299167079},{"NoteNumber":57,"Velocity":68,"Duration":275191,"SoundDuration":275191,"Delta":299308282},{"NoteNumber":69,"Velocity":79,"Duration":275191,"SoundDuration":275191,"Delta":299308282},{"NoteNumber":37,"Velocity":46,"Duration":275191,"SoundDuration":275191,"Delta":299308282},{"NoteNumber":49,"Velocity":54,"Duration":275191,"SoundDuration":275191,"Delta":299308282},{"NoteNumber":58,"Velocity":52,"Duration":49721,"SoundDuration":49721,"Delta":299583473},{"NoteNumber":65,"Velocity":52,"Duration":49721,"SoundDuration":49721,"Delta":299583473},{"NoteNumber":68,"Velocity":52,"Duration":49721,"SoundDuration":49721,"Delta":299583473},{"NoteNumber":56,"Velocity":52,"Duration":49721,"SoundDuration":49721,"Delta":299583473},{"NoteNumber":70,"Velocity":63,"Duration":49721,"SoundDuration":49721,"Delta":299583473},{"NoteNumber":38,"Velocity":40,"Duration":267343,"SoundDuration":267343,"Delta":299583473},{"NoteNumber":50,"Velocity":47,"Duration":267343,"SoundDuration":267343,"Delta":299583473},{"NoteNumber":58,"Velocity":55,"Duration":50532,"SoundDuration":50532,"Delta":299716064},{"NoteNumber":65,"Velocity":55,"Duration":50532,"SoundDuration":50532,"Delta":299716064},{"NoteNumber":68,"Velocity":55,"Duration":50532,"SoundDuration":50532,"Delta":299716064},{"NoteNumber":56,"Velocity":55,"Duration":50532,"SoundDuration":50532,"Delta":299716064},{"NoteNumber":70,"Velocity":66,"Duration":50532,"SoundDuration":50532,"Delta":299716064},{"NoteNumber":58,"Velocity":57,"Duration":49836,"SoundDuration":49836,"Delta":299850817},{"NoteNumber":65,"Velocity":57,"Duration":49836,"SoundDuration":49836,"Delta":299850817},{"NoteNumber":68,"Velocity":57,"Duration":49836,"SoundDuration":49836,"Delta":299850817},{"NoteNumber":56,"Velocity":57,"Duration":49836,"SoundDuration":49836,"Delta":299850817},{"NoteNumber":70,"Velocity":67,"Duration":49836,"SoundDuration":49836,"Delta":299850817},{"NoteNumber":39,"Velocity":38,"Duration":49836,"SoundDuration":49836,"Delta":299850817},{"NoteNumber":51,"Velocity":44,"Duration":49836,"SoundDuration":49836,"Delta":299850817},{"NoteNumber":58,"Velocity":57,"Duration":53660,"SoundDuration":53660,"Delta":299983713},{"NoteNumber":65,"Velocity":57,"Duration":53660,"SoundDuration":53660,"Delta":299983713},{"NoteNumber":68,"Velocity":68,"Duration":53660,"SoundDuration":53660,"Delta":299983713},{"NoteNumber":56,"Velocity":57,"Duration":53660,"SoundDuration":53660,"Delta":299983713},{"NoteNumber":70,"Velocity":68,"Duration":53660,"SoundDuration":53660,"Delta":299983713},{"NoteNumber":40,"Velocity":37,"Duration":53660,"SoundDuration":53660,"Delta":299983713},{"NoteNumber":52,"Velocity":45,"Duration":53660,"SoundDuration":53660,"Delta":299983713},{"NoteNumber":58,"Velocity":68,"Duration":278602,"SoundDuration":278602,"Delta":300126809},{"NoteNumber":62,"Velocity":68,"Duration":278602,"SoundDuration":278602,"Delta":300126809},{"NoteNumber":68,"Velocity":68,"Duration":278602,"SoundDuration":278602,"Delta":300126809},{"NoteNumber":56,"Velocity":68,"Duration":278602,"SoundDuration":278602,"Delta":300126809},{"NoteNumber":70,"Velocity":81,"Duration":278602,"SoundDuration":278602,"Delta":300126809},{"NoteNumber":41,"Velocity":45,"Duration":278602,"SoundDuration":278602,"Delta":300126809},{"NoteNumber":53,"Velocity":53,"Duration":278602,"SoundDuration":278602,"Delta":300126809},{"NoteNumber":58,"Velocity":52,"Duration":50066,"SoundDuration":50066,"Delta":300405412},{"NoteNumber":63,"Velocity":52,"Duration":50066,"SoundDuration":50066,"Delta":300405412},{"NoteNumber":66,"Velocity":52,"Duration":50066,"SoundDuration":50066,"Delta":300405412},{"NoteNumber":70,"Velocity":63,"Duration":50066,"SoundDuration":50066,"Delta":300405412},{"NoteNumber":42,"Velocity":40,"Duration":269214,"SoundDuration":269214,"Delta":300405412},{"NoteNumber":54,"Velocity":47,"Duration":269214,"SoundDuration":269214,"Delta":300405412},{"NoteNumber":58,"Velocity":55,"Duration":50888,"SoundDuration":50888,"Delta":300538923},{"NoteNumber":63,"Velocity":55,"Duration":50888,"SoundDuration":50888,"Delta":300538923},{"NoteNumber":66,"Velocity":55,"Duration":50888,"SoundDuration":50888,"Delta":300538923},{"NoteNumber":70,"Velocity":66,"Duration":50888,"SoundDuration":50888,"Delta":300538923},{"NoteNumber":63,"Velocity":57,"Duration":50416,"SoundDuration":50416,"Delta":300674627},{"NoteNumber":66,"Velocity":57,"Duration":50416,"SoundDuration":50416,"Delta":300674627},{"NoteNumber":70,"Velocity":67,"Duration":50416,"SoundDuration":50416,"Delta":300674627},{"NoteNumber":44,"Velocity":38,"Duration":50416,"SoundDuration":50416,"Delta":300674627},{"NoteNumber":56,"Velocity":44,"Duration":50416,"SoundDuration":50416,"Delta":300674627},{"NoteNumber":63,"Velocity":56,"Duration":51984,"SoundDuration":51984,"Delta":300809071},{"NoteNumber":66,"Velocity":56,"Duration":51984,"SoundDuration":51984,"Delta":300809071},{"NoteNumber":70,"Velocity":67,"Duration":51984,"SoundDuration":51984,"Delta":300809071},{"NoteNumber":45,"Velocity":37,"Duration":51984,"SoundDuration":51984,"Delta":300809071},{"NoteNumber":57,"Velocity":45,"Duration":51984,"SoundDuration":51984,"Delta":300809071},{"NoteNumber":63,"Velocity":70,"Duration":280636,"SoundDuration":280636,"Delta":300947697},{"NoteNumber":66,"Velocity":72,"Duration":280636,"SoundDuration":280636,"Delta":300947697},{"NoteNumber":70,"Velocity":85,"Duration":280636,"SoundDuration":280636,"Delta":300947697},{"NoteNumber":46,"Velocity":47,"Duration":280636,"SoundDuration":280636,"Delta":300947697},{"NoteNumber":58,"Velocity":56,"Duration":280636,"SoundDuration":280636,"Delta":300947697},{"NoteNumber":58,"Velocity":66,"Duration":285796,"SoundDuration":285796,"Delta":301228333},{"NoteNumber":63,"Velocity":66,"Duration":285796,"SoundDuration":285796,"Delta":301228333},{"NoteNumber":70,"Velocity":78,"Duration":285796,"SoundDuration":285796,"Delta":301228333},{"NoteNumber":47,"Velocity":48,"Duration":285796,"SoundDuration":285796,"Delta":301228333},{"NoteNumber":59,"Velocity":57,"Duration":285796,"SoundDuration":285796,"Delta":301228333},{"NoteNumber":56,"Velocity":66,"Duration":278267,"SoundDuration":278267,"Delta":301514129},{"NoteNumber":63,"Velocity":66,"Duration":278267,"SoundDuration":278267,"Delta":301514129},{"NoteNumber":68,"Velocity":78,"Duration":278267,"SoundDuration":278267,"Delta":301514129},{"NoteNumber":35,"Velocity":43,"Duration":278267,"SoundDuration":278267,"Delta":301514129},{"NoteNumber":47,"Velocity":52,"Duration":278267,"SoundDuration":278267,"Delta":301514129},{"NoteNumber":54,"Velocity":63,"Duration":282362,"SoundDuration":282362,"Delta":301792396},{"NoteNumber":57,"Velocity":63,"Duration":282362,"SoundDuration":282362,"Delta":301792396},{"NoteNumber":63,"Velocity":63,"Duration":282362,"SoundDuration":282362,"Delta":301792396},{"NoteNumber":66,"Velocity":74,"Duration":282362,"SoundDuration":282362,"Delta":301792396},{"NoteNumber":36,"Velocity":43,"Duration":282362,"SoundDuration":282362,"Delta":301792396},{"NoteNumber":48,"Velocity":52,"Duration":282362,"SoundDuration":282362,"Delta":301792396},{"NoteNumber":58,"Velocity":52,"Duration":137476,"SoundDuration":137476,"Delta":302074758},{"NoteNumber":61,"Velocity":52,"Duration":137476,"SoundDuration":137476,"Delta":302074758},{"NoteNumber":65,"Velocity":61,"Duration":137476,"SoundDuration":137476,"Delta":302074758},{"NoteNumber":37,"Velocity":50,"Duration":274300,"SoundDuration":274300,"Delta":302074758},{"NoteNumber":49,"Velocity":60,"Duration":274300,"SoundDuration":274300,"Delta":302074758},{"NoteNumber":61,"Velocity":59,"Duration":136824,"SoundDuration":136824,"Delta":302212234},{"NoteNumber":66,"Velocity":66,"Duration":136184,"SoundDuration":136184,"Delta":302349059},{"NoteNumber":73,"Velocity":78,"Duration":136184,"SoundDuration":136184,"Delta":302349059},{"NoteNumber":49,"Velocity":48,"Duration":271781,"SoundDuration":271781,"Delta":302349059},{"NoteNumber":58,"Velocity":57,"Duration":271781,"SoundDuration":271781,"Delta":302349059},{"NoteNumber":66,"Velocity":75,"Duration":135597,"SoundDuration":135597,"Delta":302485243},{"NoteNumber":70,"Velocity":69,"Duration":135012,"SoundDuration":135012,"Delta":302620840},{"NoteNumber":78,"Velocity":82,"Duration":135012,"SoundDuration":135012,"Delta":302620840},{"NoteNumber":61,"Velocity":57,"Duration":269404,"SoundDuration":269404,"Delta":302620840},{"NoteNumber":54,"Velocity":48,"Duration":269404,"SoundDuration":269404,"Delta":302620840},{"NoteNumber":70,"Velocity":75,"Duration":134391,"SoundDuration":134391,"Delta":302755853},{"NoteNumber":73,"Velocity":65,"Duration":133867,"SoundDuration":133867,"Delta":302890245},{"NoteNumber":82,"Velocity":76,"Duration":133867,"SoundDuration":133867,"Delta":302890245},{"NoteNumber":58,"Velocity":42,"Duration":267682,"SoundDuration":267682,"Delta":302890245},{"NoteNumber":66,"Velocity":60,"Duration":267682,"SoundDuration":267682,"Delta":302890245},{"NoteNumber":73,"Velocity":71,"Duration":133814,"SoundDuration":133814,"Delta":303024112},{"NoteNumber":78,"Velocity":66,"Duration":135384,"SoundDuration":135384,"Delta":303157927},{"NoteNumber":85,"Velocity":78,"Duration":135384,"SoundDuration":135384,"Delta":303157927},{"NoteNumber":61,"Velocity":40,"Duration":270770,"SoundDuration":270770,"Delta":303157927},{"NoteNumber":70,"Velocity":57,"Duration":270770,"SoundDuration":270770,"Delta":303157927},{"NoteNumber":78,"Velocity":75,"Duration":135385,"SoundDuration":135385,"Delta":303293312},{"NoteNumber":82,"Velocity":69,"Duration":139645,"SoundDuration":139645,"Delta":303428697},{"NoteNumber":90,"Velocity":82,"Duration":139645,"SoundDuration":139645,"Delta":303428697},{"NoteNumber":73,"Velocity":57,"Duration":279291,"SoundDuration":279291,"Delta":303428697},{"NoteNumber":66,"Velocity":40,"Duration":279291,"SoundDuration":279291,"Delta":303428697},{"NoteNumber":82,"Velocity":75,"Duration":139645,"SoundDuration":139645,"Delta":303568343},{"NoteNumber":85,"Velocity":69,"Duration":279291,"SoundDuration":279291,"Delta":303707988},{"NoteNumber":82,"Velocity":69,"Duration":279291,"SoundDuration":279291,"Delta":303707988},{"NoteNumber":94,"Velocity":82,"Duration":279291,"SoundDuration":279291,"Delta":303707988},{"NoteNumber":70,"Velocity":48,"Duration":279291,"SoundDuration":279291,"Delta":303707988},{"NoteNumber":78,"Velocity":57,"Duration":279291,"SoundDuration":279291,"Delta":303707988},{"NoteNumber":85,"Velocity":66,"Duration":274625,"SoundDuration":274625,"Delta":303987279},{"NoteNumber":80,"Velocity":64,"Duration":274625,"SoundDuration":274625,"Delta":303987279},{"NoteNumber":92,"Velocity":76,"Duration":274625,"SoundDuration":274625,"Delta":303987279},{"NoteNumber":71,"Velocity":46,"Duration":274625,"SoundDuration":274625,"Delta":303987279},{"NoteNumber":77,"Velocity":51,"Duration":274625,"SoundDuration":274625,"Delta":303987279},{"NoteNumber":85,"Velocity":73,"Duration":284629,"SoundDuration":284629,"Delta":304261904},{"NoteNumber":80,"Velocity":61,"Duration":284629,"SoundDuration":284629,"Delta":304261904},{"NoteNumber":73,"Velocity":61,"Duration":284629,"SoundDuration":284629,"Delta":304261904},{"NoteNumber":61,"Velocity":42,"Duration":284629,"SoundDuration":284629,"Delta":304261904},{"NoteNumber":65,"Velocity":42,"Duration":284629,"SoundDuration":284629,"Delta":304261904},{"NoteNumber":71,"Velocity":51,"Duration":284629,"SoundDuration":284629,"Delta":304261904},{"NoteNumber":73,"Velocity":57,"Duration":278602,"SoundDuration":278602,"Delta":304546534},{"NoteNumber":80,"Velocity":61,"Duration":278602,"SoundDuration":278602,"Delta":304546534},{"NoteNumber":85,"Velocity":75,"Duration":559238,"SoundDuration":559238,"Delta":304546534},{"NoteNumber":61,"Velocity":46,"Duration":559238,"SoundDuration":559238,"Delta":304546534},{"NoteNumber":65,"Velocity":46,"Duration":278602,"SoundDuration":278602,"Delta":304546534},{"NoteNumber":71,"Velocity":52,"Duration":278602,"SoundDuration":278602,"Delta":304546534},{"NoteNumber":90,"Velocity":68,"Duration":280636,"SoundDuration":280636,"Delta":304825137},{"NoteNumber":78,"Velocity":58,"Duration":280636,"SoundDuration":280636,"Delta":304825137},{"NoteNumber":54,"Velocity":38,"Duration":280636,"SoundDuration":280636,"Delta":304825137},{"NoteNumber":70,"Velocity":47,"Duration":280636,"SoundDuration":280636,"Delta":304825137},{"NoteNumber":73,"Velocity":56,"Duration":283380,"SoundDuration":283380,"Delta":305105773},{"NoteNumber":68,"Velocity":49,"Duration":283380,"SoundDuration":283380,"Delta":305105773},{"NoteNumber":61,"Velocity":40,"Duration":283380,"SoundDuration":283380,"Delta":305105773},{"NoteNumber":49,"Velocity":28,"Duration":283380,"SoundDuration":283380,"Delta":305105773},{"NoteNumber":53,"Velocity":33,"Duration":283380,"SoundDuration":283380,"Delta":305105773},{"NoteNumber":59,"Velocity":38,"Duration":283380,"SoundDuration":283380,"Delta":305105773},{"NoteNumber":61,"Velocity":40,"Duration":281399,"SoundDuration":281399,"Delta":305389153},{"NoteNumber":68,"Velocity":48,"Duration":281399,"SoundDuration":281399,"Delta":305389153},{"NoteNumber":73,"Velocity":56,"Duration":563394,"SoundDuration":563394,"Delta":305389153},{"NoteNumber":49,"Velocity":31,"Duration":563394,"SoundDuration":563394,"Delta":305389153},{"NoteNumber":53,"Velocity":34,"Duration":281399,"SoundDuration":281399,"Delta":305389153},{"NoteNumber":59,"Velocity":42,"Duration":281399,"SoundDuration":281399,"Delta":305389153},{"NoteNumber":78,"Velocity":56,"Duration":281994,"SoundDuration":281994,"Delta":305670552},{"NoteNumber":66,"Velocity":49,"Duration":281994,"SoundDuration":281994,"Delta":305670552},{"NoteNumber":42,"Velocity":32,"Duration":281994,"SoundDuration":281994,"Delta":305670552},{"NoteNumber":58,"Velocity":38,"Duration":281994,"SoundDuration":281994,"Delta":305670552},{"NoteNumber":73,"Velocity":55,"Duration":289687,"SoundDuration":289687,"Delta":305952547},{"NoteNumber":68,"Velocity":46,"Duration":289687,"SoundDuration":289687,"Delta":305952547},{"NoteNumber":61,"Velocity":38,"Duration":289687,"SoundDuration":289687,"Delta":305952547},{"NoteNumber":49,"Velocity":29,"Duration":289687,"SoundDuration":289687,"Delta":305952547},{"NoteNumber":53,"Velocity":31,"Duration":289687,"SoundDuration":289687,"Delta":305952547},{"NoteNumber":59,"Velocity":36,"Duration":289687,"SoundDuration":289687,"Delta":305952547},{"NoteNumber":61,"Velocity":40,"Duration":286546,"SoundDuration":286546,"Delta":306242234},{"NoteNumber":68,"Velocity":48,"Duration":286546,"SoundDuration":286546,"Delta":306242234},{"NoteNumber":73,"Velocity":55,"Duration":581488,"SoundDuration":581488,"Delta":306242234},{"NoteNumber":49,"Velocity":30,"Duration":581488,"SoundDuration":581488,"Delta":306242234},{"NoteNumber":53,"Velocity":34,"Duration":286546,"SoundDuration":286546,"Delta":306242234},{"NoteNumber":59,"Velocity":38,"Duration":286546,"SoundDuration":286546,"Delta":306242234},{"NoteNumber":78,"Velocity":56,"Duration":294941,"SoundDuration":294941,"Delta":306528781},{"NoteNumber":66,"Velocity":48,"Duration":294941,"SoundDuration":294941,"Delta":306528781},{"NoteNumber":42,"Velocity":32,"Duration":294941,"SoundDuration":294941,"Delta":306528781},{"NoteNumber":58,"Velocity":38,"Duration":294941,"SoundDuration":294941,"Delta":306528781},{"NoteNumber":61,"Velocity":52,"Duration":286190,"SoundDuration":286190,"Delta":306823723},{"NoteNumber":73,"Velocity":52,"Duration":286190,"SoundDuration":286190,"Delta":306823723},{"NoteNumber":61,"Velocity":51,"Duration":873743,"SoundDuration":873743,"Delta":307109914},{"NoteNumber":73,"Velocity":56,"Duration":873743,"SoundDuration":873743,"Delta":307109914},{"NoteNumber":58,"Velocity":46,"Duration":3421175,"SoundDuration":3421175,"Delta":307983658},{"NoteNumber":70,"Velocity":53,"Duration":3421175,"SoundDuration":3421175,"Delta":307983658},{"NoteNumber":44,"Velocity":36,"Duration":278319,"SoundDuration":278319,"Delta":308857402},{"NoteNumber":56,"Velocity":43,"Duration":278319,"SoundDuration":278319,"Delta":308857402},{"NoteNumber":42,"Velocity":30,"Duration":285035,"SoundDuration":285035,"Delta":309135721},{"NoteNumber":54,"Velocity":37,"Duration":285035,"SoundDuration":285035,"Delta":309135721},{"NoteNumber":39,"Velocity":30,"Duration":285035,"SoundDuration":285035,"Delta":309420757},{"NoteNumber":51,"Velocity":37,"Duration":285035,"SoundDuration":285035,"Delta":309420757},{"NoteNumber":42,"Velocity":36,"Duration":278319,"SoundDuration":278319,"Delta":309705793},{"NoteNumber":54,"Velocity":43,"Duration":278319,"SoundDuration":278319,"Delta":309705793},{"NoteNumber":41,"Velocity":30,"Duration":285796,"SoundDuration":285796,"Delta":309984112},{"NoteNumber":53,"Velocity":37,"Duration":285796,"SoundDuration":285796,"Delta":309984112},{"NoteNumber":37,"Velocity":30,"Duration":285796,"SoundDuration":285796,"Delta":310269908},{"NoteNumber":49,"Velocity":37,"Duration":285796,"SoundDuration":285796,"Delta":310269908},{"NoteNumber":39,"Velocity":36,"Duration":279057,"SoundDuration":279057,"Delta":310555704},{"NoteNumber":51,"Velocity":43,"Duration":279057,"SoundDuration":279057,"Delta":310555704},{"NoteNumber":37,"Velocity":30,"Duration":285035,"SoundDuration":285035,"Delta":310834761},{"NoteNumber":49,"Velocity":37,"Duration":285035,"SoundDuration":285035,"Delta":310834761},{"NoteNumber":34,"Velocity":30,"Duration":285035,"SoundDuration":285035,"Delta":311119797},{"NoteNumber":46,"Velocity":37,"Duration":285035,"SoundDuration":285035,"Delta":311119797},{"NoteNumber":35,"Velocity":32,"Duration":285035,"SoundDuration":285035,"Delta":311404833},{"NoteNumber":47,"Velocity":39,"Duration":285035,"SoundDuration":285035,"Delta":311404833},{"NoteNumber":34,"Velocity":29,"Duration":285036,"SoundDuration":285036,"Delta":311689869},{"NoteNumber":46,"Velocity":35,"Duration":285036,"SoundDuration":285036,"Delta":311689869},{"NoteNumber":30,"Velocity":29,"Duration":285035,"SoundDuration":285035,"Delta":311974905},{"NoteNumber":42,"Velocity":35,"Duration":285035,"SoundDuration":285035,"Delta":311974905},{"NoteNumber":51,"Velocity":52,"Duration":49607,"SoundDuration":49607,"Delta":312259941},{"NoteNumber":63,"Velocity":63,"Duration":49607,"SoundDuration":49607,"Delta":312259941},{"NoteNumber":27,"Velocity":40,"Duration":267359,"SoundDuration":267359,"Delta":312259941},{"NoteNumber":39,"Velocity":47,"Duration":267359,"SoundDuration":267359,"Delta":312259941},{"NoteNumber":51,"Velocity":55,"Duration":50769,"SoundDuration":50769,"Delta":312392228},{"NoteNumber":63,"Velocity":66,"Duration":50769,"SoundDuration":50769,"Delta":312392228},{"NoteNumber":51,"Velocity":57,"Duration":50066,"SoundDuration":50066,"Delta":312527301},{"NoteNumber":63,"Velocity":67,"Duration":50066,"SoundDuration":50066,"Delta":312527301},{"NoteNumber":28,"Velocity":38,"Duration":50066,"SoundDuration":50066,"Delta":312527301},{"NoteNumber":40,"Velocity":44,"Duration":50066,"SoundDuration":50066,"Delta":312527301},{"NoteNumber":51,"Velocity":59,"Duration":53528,"SoundDuration":53528,"Delta":312660813},{"NoteNumber":63,"Velocity":68,"Duration":53528,"SoundDuration":53528,"Delta":312660813},{"NoteNumber":29,"Velocity":38,"Duration":53528,"SoundDuration":53528,"Delta":312660813},{"NoteNumber":41,"Velocity":47,"Duration":53528,"SoundDuration":53528,"Delta":312660813},{"NoteNumber":51,"Velocity":69,"Duration":280610,"SoundDuration":280610,"Delta":312800592},{"NoteNumber":63,"Velocity":80,"Duration":280610,"SoundDuration":280610,"Delta":312800592},{"NoteNumber":30,"Velocity":47,"Duration":280610,"SoundDuration":280610,"Delta":312800592},{"NoteNumber":42,"Velocity":56,"Duration":280610,"SoundDuration":280610,"Delta":312800592},{"NoteNumber":53,"Velocity":75,"Duration":276714,"SoundDuration":276714,"Delta":313081202},{"NoteNumber":59,"Velocity":75,"Duration":276714,"SoundDuration":276714,"Delta":313081202},{"NoteNumber":63,"Velocity":75,"Duration":276714,"SoundDuration":276714,"Delta":313081202},{"NoteNumber":65,"Velocity":90,"Duration":276714,"SoundDuration":276714,"Delta":313081202},{"NoteNumber":32,"Velocity":56,"Duration":276714,"SoundDuration":276714,"Delta":313081202},{"NoteNumber":44,"Velocity":67,"Duration":276714,"SoundDuration":276714,"Delta":313081202},{"NoteNumber":65,"Velocity":63,"Duration":136462,"SoundDuration":136462,"Delta":313357916},{"NoteNumber":71,"Velocity":63,"Duration":136462,"SoundDuration":136462,"Delta":313357916},{"NoteNumber":75,"Velocity":63,"Duration":136462,"SoundDuration":136462,"Delta":313357916},{"NoteNumber":77,"Velocity":76,"Duration":136462,"SoundDuration":136462,"Delta":313357916},{"NoteNumber":44,"Velocity":43,"Duration":272925,"SoundDuration":272925,"Delta":313357916},{"NoteNumber":51,"Velocity":43,"Duration":272925,"SoundDuration":272925,"Delta":313357916},{"NoteNumber":53,"Velocity":43,"Duration":272925,"SoundDuration":272925,"Delta":313357916},{"NoteNumber":59,"Velocity":51,"Duration":272925,"SoundDuration":272925,"Delta":313357916},{"NoteNumber":63,"Velocity":61,"Duration":136462,"SoundDuration":136462,"Delta":313494379},{"NoteNumber":75,"Velocity":74,"Duration":136462,"SoundDuration":136462,"Delta":313494379},{"NoteNumber":65,"Velocity":63,"Duration":134752,"SoundDuration":134752,"Delta":313630842},{"NoteNumber":70,"Velocity":63,"Duration":134752,"SoundDuration":134752,"Delta":313630842},{"NoteNumber":74,"Velocity":63,"Duration":134752,"SoundDuration":134752,"Delta":313630842},{"NoteNumber":77,"Velocity":76,"Duration":134752,"SoundDuration":134752,"Delta":313630842},{"NoteNumber":46,"Velocity":43,"Duration":277148,"SoundDuration":277148,"Delta":313630842},{"NoteNumber":53,"Velocity":43,"Duration":277148,"SoundDuration":277148,"Delta":313630842},{"NoteNumber":56,"Velocity":43,"Duration":277148,"SoundDuration":277148,"Delta":313630842},{"NoteNumber":62,"Velocity":51,"Duration":277148,"SoundDuration":277148,"Delta":313630842},{"NoteNumber":66,"Velocity":59,"Duration":142396,"SoundDuration":142396,"Delta":313765594},{"NoteNumber":78,"Velocity":72,"Duration":142396,"SoundDuration":142396,"Delta":313765594},{"NoteNumber":54,"Velocity":52,"Duration":49607,"SoundDuration":49607,"Delta":313907990},{"NoteNumber":66,"Velocity":63,"Duration":49607,"SoundDuration":49607,"Delta":313907990},{"NoteNumber":30,"Velocity":40,"Duration":267039,"SoundDuration":267039,"Delta":313907990},{"NoteNumber":42,"Velocity":47,"Duration":267039,"SoundDuration":267039,"Delta":313907990},{"NoteNumber":54,"Velocity":55,"Duration":50532,"SoundDuration":50532,"Delta":314040277},{"NoteNumber":66,"Velocity":66,"Duration":50532,"SoundDuration":50532,"Delta":314040277},{"NoteNumber":54,"Velocity":57,"Duration":49951,"SoundDuration":49951,"Delta":314175030},{"NoteNumber":66,"Velocity":67,"Duration":49951,"SoundDuration":49951,"Delta":314175030},{"NoteNumber":31,"Velocity":38,"Duration":49951,"SoundDuration":49951,"Delta":314175030},{"NoteNumber":43,"Velocity":44,"Duration":49951,"SoundDuration":49951,"Delta":314175030},{"NoteNumber":54,"Velocity":57,"Duration":53789,"SoundDuration":53789,"Delta":314308233},{"NoteNumber":66,"Velocity":66,"Duration":53789,"SoundDuration":53789,"Delta":314308233},{"NoteNumber":32,"Velocity":35,"Duration":53789,"SoundDuration":53789,"Delta":314308233},{"NoteNumber":44,"Velocity":43,"Duration":53789,"SoundDuration":53789,"Delta":314308233},{"NoteNumber":54,"Velocity":68,"Duration":279837,"SoundDuration":279837,"Delta":314450016},{"NoteNumber":66,"Velocity":79,"Duration":279837,"SoundDuration":279837,"Delta":314450016},{"NoteNumber":33,"Velocity":46,"Duration":279837,"SoundDuration":279837,"Delta":314450016},{"NoteNumber":45,"Velocity":54,"Duration":279837,"SoundDuration":279837,"Delta":314450016},{"NoteNumber":56,"Velocity":72,"Duration":275191,"SoundDuration":275191,"Delta":314729854},{"NoteNumber":62,"Velocity":73,"Duration":275191,"SoundDuration":275191,"Delta":314729854},{"NoteNumber":66,"Velocity":75,"Duration":275191,"SoundDuration":275191,"Delta":314729854},{"NoteNumber":68,"Velocity":87,"Duration":275191,"SoundDuration":275191,"Delta":314729854},{"NoteNumber":35,"Velocity":56,"Duration":275191,"SoundDuration":275191,"Delta":314729854},{"NoteNumber":47,"Velocity":67,"Duration":275191,"SoundDuration":275191,"Delta":314729854},{"NoteNumber":68,"Velocity":63,"Duration":136091,"SoundDuration":136091,"Delta":315005045},{"NoteNumber":74,"Velocity":63,"Duration":136091,"SoundDuration":136091,"Delta":315005045},{"NoteNumber":78,"Velocity":63,"Duration":136091,"SoundDuration":136091,"Delta":315005045},{"NoteNumber":80,"Velocity":76,"Duration":136091,"SoundDuration":136091,"Delta":315005045},{"NoteNumber":48,"Velocity":43,"Duration":272182,"SoundDuration":272182,"Delta":315005045},{"NoteNumber":54,"Velocity":43,"Duration":272182,"SoundDuration":272182,"Delta":315005045},{"NoteNumber":56,"Velocity":43,"Duration":272182,"SoundDuration":272182,"Delta":315005045},{"NoteNumber":62,"Velocity":51,"Duration":272182,"SoundDuration":272182,"Delta":315005045},{"NoteNumber":66,"Velocity":61,"Duration":136091,"SoundDuration":136091,"Delta":315141136},{"NoteNumber":78,"Velocity":74,"Duration":136091,"SoundDuration":136091,"Delta":315141136},{"NoteNumber":68,"Velocity":63,"Duration":134444,"SoundDuration":134444,"Delta":315277228},{"NoteNumber":73,"Velocity":63,"Duration":134444,"SoundDuration":134444,"Delta":315277228},{"NoteNumber":77,"Velocity":63,"Duration":134444,"SoundDuration":134444,"Delta":315277228},{"NoteNumber":80,"Velocity":76,"Duration":134444,"SoundDuration":134444,"Delta":315277228},{"NoteNumber":49,"Velocity":43,"Duration":275091,"SoundDuration":275091,"Delta":315277228},{"NoteNumber":56,"Velocity":43,"Duration":275091,"SoundDuration":275091,"Delta":315277228},{"NoteNumber":59,"Velocity":43,"Duration":275091,"SoundDuration":275091,"Delta":315277228},{"NoteNumber":65,"Velocity":51,"Duration":275091,"SoundDuration":275091,"Delta":315277228},{"NoteNumber":69,"Velocity":58,"Duration":140647,"SoundDuration":140647,"Delta":315411672},{"NoteNumber":81,"Velocity":71,"Duration":140647,"SoundDuration":140647,"Delta":315411672},{"NoteNumber":57,"Velocity":47,"Duration":49047,"SoundDuration":49047,"Delta":315552319},{"NoteNumber":69,"Velocity":56,"Duration":49047,"SoundDuration":49047,"Delta":315552319},{"NoteNumber":33,"Velocity":36,"Duration":263895,"SoundDuration":263895,"Delta":315552319},{"NoteNumber":45,"Velocity":42,"Duration":263895,"SoundDuration":263895,"Delta":315552319},{"NoteNumber":57,"Velocity":51,"Duration":49836,"SoundDuration":49836,"Delta":315683112},{"NoteNumber":69,"Velocity":60,"Duration":49836,"SoundDuration":49836,"Delta":315683112},{"NoteNumber":57,"Velocity":54,"Duration":49270,"SoundDuration":49270,"Delta":315816215},{"NoteNumber":69,"Velocity":64,"Duration":49270,"SoundDuration":49270,"Delta":315816215},{"NoteNumber":35,"Velocity":36,"Duration":49270,"SoundDuration":49270,"Delta":315816215},{"NoteNumber":47,"Velocity":42,"Duration":49270,"SoundDuration":49270,"Delta":315816215},{"NoteNumber":57,"Velocity":57,"Duration":51984,"SoundDuration":51984,"Delta":315947604},{"NoteNumber":69,"Velocity":68,"Duration":51984,"SoundDuration":51984,"Delta":315947604},{"NoteNumber":36,"Velocity":37,"Duration":51984,"SoundDuration":51984,"Delta":315947604},{"NoteNumber":48,"Velocity":45,"Duration":51984,"SoundDuration":51984,"Delta":315947604},{"NoteNumber":57,"Velocity":68,"Duration":275191,"SoundDuration":275191,"Delta":316086230},{"NoteNumber":69,"Velocity":80,"Duration":275191,"SoundDuration":275191,"Delta":316086230},{"NoteNumber":37,"Velocity":46,"Duration":275191,"SoundDuration":275191,"Delta":316086230},{"NoteNumber":49,"Velocity":54,"Duration":275191,"SoundDuration":275191,"Delta":316086230},{"NoteNumber":59,"Velocity":53,"Duration":49721,"SoundDuration":49721,"Delta":316361421},{"NoteNumber":65,"Velocity":53,"Duration":49721,"SoundDuration":49721,"Delta":316361421},{"NoteNumber":69,"Velocity":53,"Duration":49721,"SoundDuration":49721,"Delta":316361421},{"NoteNumber":71,"Velocity":64,"Duration":49721,"SoundDuration":49721,"Delta":316361421},{"NoteNumber":38,"Velocity":40,"Duration":267714,"SoundDuration":267714,"Delta":316361421},{"NoteNumber":50,"Velocity":47,"Duration":267714,"SoundDuration":267714,"Delta":316361421},{"NoteNumber":59,"Velocity":56,"Duration":50769,"SoundDuration":50769,"Delta":316494012},{"NoteNumber":65,"Velocity":56,"Duration":50769,"SoundDuration":50769,"Delta":316494012},{"NoteNumber":69,"Velocity":56,"Duration":50769,"SoundDuration":50769,"Delta":316494012},{"NoteNumber":71,"Velocity":67,"Duration":50769,"SoundDuration":50769,"Delta":316494012},{"NoteNumber":59,"Velocity":60,"Duration":50066,"SoundDuration":50066,"Delta":316629135},{"NoteNumber":65,"Velocity":60,"Duration":50066,"SoundDuration":50066,"Delta":316629135},{"NoteNumber":69,"Velocity":60,"Duration":50066,"SoundDuration":50066,"Delta":316629135},{"NoteNumber":71,"Velocity":71,"Duration":50066,"SoundDuration":50066,"Delta":316629135},{"NoteNumber":39,"Velocity":40,"Duration":50066,"SoundDuration":50066,"Delta":316629135},{"NoteNumber":51,"Velocity":47,"Duration":50066,"SoundDuration":50066,"Delta":316629135},{"NoteNumber":59,"Velocity":60,"Duration":51203,"SoundDuration":51203,"Delta":316762647},{"NoteNumber":65,"Velocity":60,"Duration":51203,"SoundDuration":51203,"Delta":316762647},{"NoteNumber":69,"Velocity":72,"Duration":51203,"SoundDuration":51203,"Delta":316762647},{"NoteNumber":71,"Velocity":72,"Duration":51203,"SoundDuration":51203,"Delta":316762647},{"NoteNumber":40,"Velocity":39,"Duration":51203,"SoundDuration":51203,"Delta":316762647},{"NoteNumber":52,"Velocity":48,"Duration":51203,"SoundDuration":51203,"Delta":316762647},{"NoteNumber":59,"Velocity":68,"Duration":275191,"SoundDuration":275191,"Delta":316900703},{"NoteNumber":65,"Velocity":68,"Duration":275191,"SoundDuration":275191,"Delta":316900703},{"NoteNumber":69,"Velocity":68,"Duration":275191,"SoundDuration":275191,"Delta":316900703},{"NoteNumber":71,"Velocity":81,"Duration":275191,"SoundDuration":275191,"Delta":316900703},{"NoteNumber":41,"Velocity":45,"Duration":275191,"SoundDuration":275191,"Delta":316900703},{"NoteNumber":53,"Velocity":53,"Duration":275191,"SoundDuration":275191,"Delta":316900703},{"NoteNumber":60,"Velocity":54,"Duration":49607,"SoundDuration":49607,"Delta":317175894},{"NoteNumber":63,"Velocity":54,"Duration":49607,"SoundDuration":49607,"Delta":317175894},{"NoteNumber":69,"Velocity":54,"Duration":49607,"SoundDuration":49607,"Delta":317175894},{"NoteNumber":72,"Velocity":66,"Duration":49607,"SoundDuration":49607,"Delta":317175894},{"NoteNumber":42,"Velocity":42,"Duration":267349,"SoundDuration":267349,"Delta":317175894},{"NoteNumber":54,"Velocity":49,"Duration":267349,"SoundDuration":267349,"Delta":317175894},{"NoteNumber":60,"Velocity":57,"Duration":50648,"SoundDuration":50648,"Delta":317308181},{"NoteNumber":63,"Velocity":57,"Duration":50648,"SoundDuration":50648,"Delta":317308181},{"NoteNumber":69,"Velocity":57,"Duration":50648,"SoundDuration":50648,"Delta":317308181},{"NoteNumber":72,"Velocity":69,"Duration":50648,"SoundDuration":50648,"Delta":317308181},{"NoteNumber":60,"Velocity":63,"Duration":50066,"SoundDuration":50066,"Delta":317443243},{"NoteNumber":63,"Velocity":63,"Duration":50066,"SoundDuration":50066,"Delta":317443243},{"NoteNumber":72,"Velocity":74,"Duration":50066,"SoundDuration":50066,"Delta":317443243},{"NoteNumber":43,"Velocity":42,"Duration":50066,"SoundDuration":50066,"Delta":317443243},{"NoteNumber":55,"Velocity":49,"Duration":50066,"SoundDuration":50066,"Delta":317443243},{"NoteNumber":60,"Velocity":55,"Duration":50648,"SoundDuration":50648,"Delta":317576755},{"NoteNumber":63,"Velocity":55,"Duration":50648,"SoundDuration":50648,"Delta":317576755},{"NoteNumber":72,"Velocity":76,"Duration":50648,"SoundDuration":50648,"Delta":317576755},{"NoteNumber":44,"Velocity":40,"Duration":50648,"SoundDuration":50648,"Delta":317576755},{"NoteNumber":56,"Velocity":50,"Duration":50648,"SoundDuration":50648,"Delta":317576755},{"NoteNumber":66,"Velocity":73,"Duration":288100,"SoundDuration":288100,"Delta":317711817},{"NoteNumber":60,"Velocity":73,"Duration":288100,"SoundDuration":288100,"Delta":317711817},{"NoteNumber":63,"Velocity":73,"Duration":288100,"SoundDuration":288100,"Delta":317711817},{"NoteNumber":72,"Velocity":86,"Duration":288100,"SoundDuration":288100,"Delta":317711817},{"NoteNumber":45,"Velocity":49,"Duration":288100,"SoundDuration":288100,"Delta":317711817},{"NoteNumber":57,"Velocity":58,"Duration":288100,"SoundDuration":288100,"Delta":317711817},{"NoteNumber":64,"Velocity":69,"Duration":285796,"SoundDuration":285796,"Delta":317999918},{"NoteNumber":66,"Velocity":69,"Duration":285796,"SoundDuration":285796,"Delta":317999918},{"NoteNumber":69,"Velocity":69,"Duration":285796,"SoundDuration":285796,"Delta":317999918},{"NoteNumber":76,"Velocity":81,"Duration":285796,"SoundDuration":285796,"Delta":317999918},{"NoteNumber":54,"Velocity":50,"Duration":285796,"SoundDuration":285796,"Delta":317999918},{"NoteNumber":48,"Velocity":50,"Duration":285796,"SoundDuration":285796,"Delta":317999918},{"NoteNumber":60,"Velocity":59,"Duration":285796,"SoundDuration":285796,"Delta":317999918},{"NoteNumber":62,"Velocity":69,"Duration":278267,"SoundDuration":278267,"Delta":318285714},{"NoteNumber":67,"Velocity":69,"Duration":278267,"SoundDuration":278267,"Delta":318285714},{"NoteNumber":74,"Velocity":81,"Duration":278267,"SoundDuration":278267,"Delta":318285714},{"NoteNumber":55,"Velocity":45,"Duration":278267,"SoundDuration":278267,"Delta":318285714},{"NoteNumber":47,"Velocity":45,"Duration":278267,"SoundDuration":278267,"Delta":318285714},{"NoteNumber":59,"Velocity":54,"Duration":278267,"SoundDuration":278267,"Delta":318285714},{"NoteNumber":50,"Velocity":72,"Duration":283006,"SoundDuration":283006,"Delta":318563981},{"NoteNumber":62,"Velocity":85,"Duration":283006,"SoundDuration":283006,"Delta":318563981},{"NoteNumber":26,"Velocity":49,"Duration":283006,"SoundDuration":283006,"Delta":318563981},{"NoteNumber":38,"Velocity":59,"Duration":283006,"SoundDuration":283006,"Delta":318563981},{"NoteNumber":61,"Velocity":61,"Duration":137495,"SoundDuration":137495,"Delta":318846987},{"NoteNumber":49,"Velocity":61,"Duration":137495,"SoundDuration":137495,"Delta":318846987},{"NoteNumber":25,"Velocity":50,"Duration":274265,"SoundDuration":274265,"Delta":318846987},{"NoteNumber":37,"Velocity":60,"Duration":274265,"SoundDuration":274265,"Delta":318846987},{"NoteNumber":61,"Velocity":59,"Duration":136770,"SoundDuration":136770,"Delta":318984482},{"NoteNumber":66,"Velocity":66,"Duration":136184,"SoundDuration":136184,"Delta":319121252},{"NoteNumber":73,"Velocity":78,"Duration":136184,"SoundDuration":136184,"Delta":319121252},{"NoteNumber":49,"Velocity":48,"Duration":271834,"SoundDuration":271834,"Delta":319121252},{"NoteNumber":57,"Velocity":57,"Duration":271834,"SoundDuration":271834,"Delta":319121252},{"NoteNumber":66,"Velocity":75,"Duration":135650,"SoundDuration":135650,"Delta":319257437},{"NoteNumber":69,"Velocity":69,"Duration":135118,"SoundDuration":135118,"Delta":319393087},{"NoteNumber":78,"Velocity":82,"Duration":135118,"SoundDuration":135118,"Delta":319393087},{"NoteNumber":61,"Velocity":57,"Duration":269716,"SoundDuration":269716,"Delta":319393087},{"NoteNumber":54,"Velocity":48,"Duration":269716,"SoundDuration":269716,"Delta":319393087},{"NoteNumber":69,"Velocity":73,"Duration":134598,"SoundDuration":134598,"Delta":319528205},{"NoteNumber":73,"Velocity":65,"Duration":134132,"SoundDuration":134132,"Delta":319662804},{"NoteNumber":81,"Velocity":76,"Duration":134132,"SoundDuration":134132,"Delta":319662804},{"NoteNumber":57,"Velocity":42,"Duration":268263,"SoundDuration":268263,"Delta":319662804},{"NoteNumber":66,"Velocity":60,"Duration":268263,"SoundDuration":268263,"Delta":319662804},{"NoteNumber":73,"Velocity":71,"Duration":134131,"SoundDuration":134131,"Delta":319796936},{"NoteNumber":78,"Velocity":66,"Duration":136462,"SoundDuration":136462,"Delta":319931068},{"NoteNumber":85,"Velocity":78,"Duration":136462,"SoundDuration":136462,"Delta":319931068},{"NoteNumber":61,"Velocity":40,"Duration":272925,"SoundDuration":272925,"Delta":319931068},{"NoteNumber":69,"Velocity":57,"Duration":272925,"SoundDuration":272925,"Delta":319931068},{"NoteNumber":78,"Velocity":75,"Duration":136462,"SoundDuration":136462,"Delta":320067531},{"NoteNumber":81,"Velocity":69,"Duration":139645,"SoundDuration":139645,"Delta":320203994},{"NoteNumber":90,"Velocity":82,"Duration":139645,"SoundDuration":139645,"Delta":320203994},{"NoteNumber":73,"Velocity":57,"Duration":279291,"SoundDuration":279291,"Delta":320203994},{"NoteNumber":66,"Velocity":40,"Duration":279291,"SoundDuration":279291,"Delta":320203994},{"NoteNumber":81,"Velocity":75,"Duration":139645,"SoundDuration":139645,"Delta":320343639},{"NoteNumber":85,"Velocity":69,"Duration":279291,"SoundDuration":279291,"Delta":320483285},{"NoteNumber":81,"Velocity":69,"Duration":279291,"SoundDuration":279291,"Delta":320483285},{"NoteNumber":93,"Velocity":82,"Duration":279291,"SoundDuration":279291,"Delta":320483285},{"NoteNumber":69,"Velocity":48,"Duration":279291,"SoundDuration":279291,"Delta":320483285},{"NoteNumber":78,"Velocity":57,"Duration":279291,"SoundDuration":279291,"Delta":320483285},{"NoteNumber":85,"Velocity":66,"Duration":275951,"SoundDuration":275951,"Delta":320762576},{"NoteNumber":80,"Velocity":66,"Duration":275951,"SoundDuration":275951,"Delta":320762576},{"NoteNumber":92,"Velocity":78,"Duration":275951,"SoundDuration":275951,"Delta":320762576},{"NoteNumber":71,"Velocity":46,"Duration":275951,"SoundDuration":275951,"Delta":320762576},{"NoteNumber":77,"Velocity":54,"Duration":275951,"SoundDuration":275951,"Delta":320762576},{"NoteNumber":85,"Velocity":73,"Duration":284629,"SoundDuration":284629,"Delta":321038527},{"NoteNumber":80,"Velocity":61,"Duration":284629,"SoundDuration":284629,"Delta":321038527},{"NoteNumber":73,"Velocity":61,"Duration":284629,"SoundDuration":284629,"Delta":321038527},{"NoteNumber":61,"Velocity":42,"Duration":284629,"SoundDuration":284629,"Delta":321038527},{"NoteNumber":65,"Velocity":42,"Duration":284629,"SoundDuration":284629,"Delta":321038527},{"NoteNumber":71,"Velocity":51,"Duration":284629,"SoundDuration":284629,"Delta":321038527},{"NoteNumber":73,"Velocity":61,"Duration":278602,"SoundDuration":278602,"Delta":321323157},{"NoteNumber":80,"Velocity":61,"Duration":278602,"SoundDuration":278602,"Delta":321323157},{"NoteNumber":85,"Velocity":75,"Duration":559896,"SoundDuration":559896,"Delta":321323157},{"NoteNumber":61,"Velocity":46,"Duration":559896,"SoundDuration":559896,"Delta":321323157},{"NoteNumber":65,"Velocity":46,"Duration":278602,"SoundDuration":278602,"Delta":321323157},{"NoteNumber":71,"Velocity":54,"Duration":278602,"SoundDuration":278602,"Delta":321323157},{"NoteNumber":90,"Velocity":68,"Duration":281294,"SoundDuration":281294,"Delta":321601760},{"NoteNumber":78,"Velocity":58,"Duration":281294,"SoundDuration":281294,"Delta":321601760},{"NoteNumber":54,"Velocity":38,"Duration":281294,"SoundDuration":281294,"Delta":321601760},{"NoteNumber":69,"Velocity":47,"Duration":281294,"SoundDuration":281294,"Delta":321601760},{"NoteNumber":73,"Velocity":58,"Duration":283380,"SoundDuration":283380,"Delta":321883054},{"NoteNumber":68,"Velocity":48,"Duration":283380,"SoundDuration":283380,"Delta":321883054},{"NoteNumber":61,"Velocity":40,"Duration":283380,"SoundDuration":283380,"Delta":321883054},{"NoteNumber":49,"Velocity":28,"Duration":283380,"SoundDuration":283380,"Delta":321883054},{"NoteNumber":53,"Velocity":33,"Duration":283380,"SoundDuration":283380,"Delta":321883054},{"NoteNumber":59,"Velocity":38,"Duration":283380,"SoundDuration":283380,"Delta":321883054},{"NoteNumber":61,"Velocity":42,"Duration":281399,"SoundDuration":281399,"Delta":322166434},{"NoteNumber":68,"Velocity":50,"Duration":281399,"SoundDuration":281399,"Delta":322166434},{"NoteNumber":73,"Velocity":58,"Duration":563394,"SoundDuration":563394,"Delta":322166434},{"NoteNumber":49,"Velocity":30,"Duration":563394,"SoundDuration":563394,"Delta":322166434},{"NoteNumber":53,"Velocity":36,"Duration":281399,"SoundDuration":281399,"Delta":322166434},{"NoteNumber":59,"Velocity":42,"Duration":281399,"SoundDuration":281399,"Delta":322166434},{"NoteNumber":78,"Velocity":56,"Duration":281994,"SoundDuration":281994,"Delta":322447833},{"NoteNumber":66,"Velocity":49,"Duration":281994,"SoundDuration":281994,"Delta":322447833},{"NoteNumber":42,"Velocity":32,"Duration":281994,"SoundDuration":281994,"Delta":322447833},{"NoteNumber":57,"Velocity":38,"Duration":281994,"SoundDuration":281994,"Delta":322447833},{"NoteNumber":73,"Velocity":56,"Duration":289687,"SoundDuration":289687,"Delta":322729828},{"NoteNumber":68,"Velocity":46,"Duration":289687,"SoundDuration":289687,"Delta":322729828},{"NoteNumber":61,"Velocity":38,"Duration":289687,"SoundDuration":289687,"Delta":322729828},{"NoteNumber":49,"Velocity":26,"Duration":289687,"SoundDuration":289687,"Delta":322729828},{"NoteNumber":53,"Velocity":31,"Duration":289687,"SoundDuration":289687,"Delta":322729828},{"NoteNumber":59,"Velocity":36,"Duration":289687,"SoundDuration":289687,"Delta":322729828},{"NoteNumber":61,"Velocity":40,"Duration":286546,"SoundDuration":286546,"Delta":323019515},{"NoteNumber":68,"Velocity":48,"Duration":286546,"SoundDuration":286546,"Delta":323019515},{"NoteNumber":73,"Velocity":56,"Duration":571338,"SoundDuration":571338,"Delta":323019515},{"NoteNumber":49,"Velocity":29,"Duration":571338,"SoundDuration":571338,"Delta":323019515},{"NoteNumber":53,"Velocity":34,"Duration":286546,"SoundDuration":286546,"Delta":323019515},{"NoteNumber":59,"Velocity":38,"Duration":286546,"SoundDuration":286546,"Delta":323019515},{"NoteNumber":78,"Velocity":55,"Duration":284791,"SoundDuration":284791,"Delta":323306062},{"NoteNumber":66,"Velocity":46,"Duration":284791,"SoundDuration":284791,"Delta":323306062},{"NoteNumber":42,"Velocity":30,"Duration":284791,"SoundDuration":284791,"Delta":323306062},{"NoteNumber":57,"Velocity":37,"Duration":284791,"SoundDuration":284791,"Delta":323306062},{"NoteNumber":61,"Velocity":69,"Duration":565372,"SoundDuration":565372,"Delta":323590854},{"NoteNumber":73,"Velocity":81,"Duration":565372,"SoundDuration":565372,"Delta":323590854},{"NoteNumber":37,"Velocity":57,"Duration":565372,"SoundDuration":565372,"Delta":323590854},{"NoteNumber":49,"Velocity":69,"Duration":565372,"SoundDuration":565372,"Delta":323590854},{"NoteNumber":62,"Velocity":64,"Duration":137639,"SoundDuration":137639,"Delta":324156226},{"NoteNumber":74,"Velocity":75,"Duration":137639,"SoundDuration":137639,"Delta":324156226},{"NoteNumber":38,"Velocity":52,"Duration":137639,"SoundDuration":137639,"Delta":324156226},{"NoteNumber":50,"Velocity":63,"Duration":137639,"SoundDuration":137639,"Delta":324156226},{"NoteNumber":61,"Velocity":59,"Duration":137640,"SoundDuration":137640,"Delta":324293866},{"NoteNumber":73,"Velocity":71,"Duration":137640,"SoundDuration":137640,"Delta":324293866},{"NoteNumber":37,"Velocity":48,"Duration":137640,"SoundDuration":137640,"Delta":324293866},{"NoteNumber":49,"Velocity":57,"Duration":137640,"SoundDuration":137640,"Delta":324293866},{"NoteNumber":56,"Velocity":63,"Duration":139977,"SoundDuration":139977,"Delta":324431506},{"NoteNumber":68,"Velocity":73,"Duration":139977,"SoundDuration":139977,"Delta":324431506},{"NoteNumber":32,"Velocity":53,"Duration":139977,"SoundDuration":139977,"Delta":324431506},{"NoteNumber":44,"Velocity":64,"Duration":139977,"SoundDuration":139977,"Delta":324431506},{"NoteNumber":57,"Velocity":54,"Duration":139977,"SoundDuration":139977,"Delta":324571483},{"NoteNumber":69,"Velocity":65,"Duration":139977,"SoundDuration":139977,"Delta":324571483},{"NoteNumber":33,"Velocity":47,"Duration":139977,"SoundDuration":139977,"Delta":324571483},{"NoteNumber":45,"Velocity":55,"Duration":139977,"SoundDuration":139977,"Delta":324571483},{"NoteNumber":54,"Velocity":58,"Duration":858572,"SoundDuration":858572,"Delta":324711461},{"NoteNumber":66,"Velocity":70,"Duration":858572,"SoundDuration":858572,"Delta":324711461},{"NoteNumber":30,"Velocity":52,"Duration":858572,"SoundDuration":858572,"Delta":324711461},{"NoteNumber":42,"Velocity":63,"Duration":858572,"SoundDuration":858572,"Delta":324711461},{"NoteNumber":62,"Velocity":84,"Duration":285966,"SoundDuration":285966,"Delta":325570034},{"NoteNumber":74,"Velocity":84,"Duration":285966,"SoundDuration":285966,"Delta":325570034},{"NoteNumber":26,"Velocity":72,"Duration":285966,"SoundDuration":285966,"Delta":325570034},{"NoteNumber":38,"Velocity":72,"Duration":285966,"SoundDuration":285966,"Delta":325570034},{"NoteNumber":57,"Velocity":48,"Duration":140997,"SoundDuration":140997,"Delta":325856001},{"NoteNumber":62,"Velocity":48,"Duration":140997,"SoundDuration":140997,"Delta":325856001},{"NoteNumber":54,"Velocity":38,"Duration":140997,"SoundDuration":140997,"Delta":325856001},{"NoteNumber":57,"Velocity":49,"Duration":140620,"SoundDuration":140620,"Delta":325996998},{"NoteNumber":62,"Velocity":49,"Duration":140620,"SoundDuration":140620,"Delta":325996998},{"NoteNumber":54,"Velocity":39,"Duration":140620,"SoundDuration":140620,"Delta":325996998},{"NoteNumber":56,"Velocity":50,"Duration":140259,"SoundDuration":140259,"Delta":326137619},{"NoteNumber":61,"Velocity":50,"Duration":140259,"SoundDuration":140259,"Delta":326137619},{"NoteNumber":53,"Velocity":40,"Duration":140259,"SoundDuration":140259,"Delta":326137619},{"NoteNumber":57,"Velocity":51,"Duration":139899,"SoundDuration":139899,"Delta":326277878},{"NoteNumber":62,"Velocity":51,"Duration":139899,"SoundDuration":139899,"Delta":326277878},{"NoteNumber":54,"Velocity":42,"Duration":139899,"SoundDuration":139899,"Delta":326277878},{"NoteNumber":58,"Velocity":52,"Duration":139528,"SoundDuration":139528,"Delta":326417777},{"NoteNumber":63,"Velocity":52,"Duration":139528,"SoundDuration":139528,"Delta":326417777},{"NoteNumber":55,"Velocity":43,"Duration":139528,"SoundDuration":139528,"Delta":326417777},{"NoteNumber":59,"Velocity":53,"Duration":139159,"SoundDuration":139159,"Delta":326557306},{"NoteNumber":64,"Velocity":53,"Duration":139159,"SoundDuration":139159,"Delta":326557306},{"NoteNumber":56,"Velocity":45,"Duration":139159,"SoundDuration":139159,"Delta":326557306},{"NoteNumber":60,"Velocity":54,"Duration":138792,"SoundDuration":138792,"Delta":326696465},{"NoteNumber":65,"Velocity":54,"Duration":138792,"SoundDuration":138792,"Delta":326696465},{"NoteNumber":57,"Velocity":46,"Duration":138792,"SoundDuration":138792,"Delta":326696465},{"NoteNumber":61,"Velocity":55,"Duration":138440,"SoundDuration":138440,"Delta":326835258},{"NoteNumber":66,"Velocity":55,"Duration":138440,"SoundDuration":138440,"Delta":326835258},{"NoteNumber":58,"Velocity":47,"Duration":138440,"SoundDuration":138440,"Delta":326835258},{"NoteNumber":62,"Velocity":57,"Duration":138083,"SoundDuration":138083,"Delta":326973698},{"NoteNumber":67,"Velocity":57,"Duration":138083,"SoundDuration":138083,"Delta":326973698},{"NoteNumber":59,"Velocity":49,"Duration":138083,"SoundDuration":138083,"Delta":326973698},{"NoteNumber":63,"Velocity":59,"Duration":137721,"SoundDuration":137721,"Delta":327111781},{"NoteNumber":68,"Velocity":59,"Duration":137721,"SoundDuration":137721,"Delta":327111781},{"NoteNumber":60,"Velocity":50,"Duration":137721,"SoundDuration":137721,"Delta":327111781},{"NoteNumber":64,"Velocity":59,"Duration":137362,"SoundDuration":137362,"Delta":327249503},{"NoteNumber":69,"Velocity":59,"Duration":137362,"SoundDuration":137362,"Delta":327249503},{"NoteNumber":61,"Velocity":51,"Duration":137362,"SoundDuration":137362,"Delta":327249503},{"NoteNumber":65,"Velocity":60,"Duration":137362,"SoundDuration":137362,"Delta":327386866},{"NoteNumber":70,"Velocity":60,"Duration":137362,"SoundDuration":137362,"Delta":327386866},{"NoteNumber":62,"Velocity":53,"Duration":137362,"SoundDuration":137362,"Delta":327386866},{"NoteNumber":66,"Velocity":64,"Duration":137362,"SoundDuration":137362,"Delta":327524228},{"NoteNumber":71,"Velocity":64,"Duration":137362,"SoundDuration":137362,"Delta":327524228},{"NoteNumber":63,"Velocity":55,"Duration":137362,"SoundDuration":137362,"Delta":327524228},{"NoteNumber":67,"Velocity":65,"Duration":137362,"SoundDuration":137362,"Delta":327661591},{"NoteNumber":72,"Velocity":65,"Duration":137362,"SoundDuration":137362,"Delta":327661591},{"NoteNumber":64,"Velocity":55,"Duration":137362,"SoundDuration":137362,"Delta":327661591},{"NoteNumber":68,"Velocity":66,"Duration":137362,"SoundDuration":137362,"Delta":327798953},{"NoteNumber":73,"Velocity":66,"Duration":137362,"SoundDuration":137362,"Delta":327798953},{"NoteNumber":65,"Velocity":55,"Duration":137362,"SoundDuration":137362,"Delta":327798953},{"NoteNumber":69,"Velocity":67,"Duration":137362,"SoundDuration":137362,"Delta":327936316},{"NoteNumber":74,"Velocity":67,"Duration":137362,"SoundDuration":137362,"Delta":327936316},{"NoteNumber":66,"Velocity":57,"Duration":137362,"SoundDuration":137362,"Delta":327936316},{"NoteNumber":69,"Velocity":68,"Duration":274724,"SoundDuration":274724,"Delta":328073678},{"NoteNumber":74,"Velocity":68,"Duration":274724,"SoundDuration":274724,"Delta":328073678},{"NoteNumber":66,"Velocity":58,"Duration":274724,"SoundDuration":274724,"Delta":328073678},{"NoteNumber":70,"Velocity":73,"Duration":277864,"SoundDuration":277864,"Delta":328348403},{"NoteNumber":75,"Velocity":73,"Duration":277864,"SoundDuration":277864,"Delta":328348403},{"NoteNumber":67,"Velocity":64,"Duration":277864,"SoundDuration":277864,"Delta":328348403},{"NoteNumber":87,"Velocity":80,"Duration":143273,"SoundDuration":143273,"Delta":328626267},{"NoteNumber":82,"Velocity":80,"Duration":143273,"SoundDuration":143273,"Delta":328626267},{"NoteNumber":75,"Velocity":80,"Duration":143273,"SoundDuration":143273,"Delta":328626267},{"NoteNumber":67,"Velocity":74,"Duration":143273,"SoundDuration":143273,"Delta":328626267},{"NoteNumber":63,"Velocity":74,"Duration":143273,"SoundDuration":143273,"Delta":328626267},{"NoteNumber":58,"Velocity":74,"Duration":143273,"SoundDuration":143273,"Delta":328626267},{"NoteNumber":55,"Velocity":74,"Duration":143273,"SoundDuration":143273,"Delta":328626267},{"NoteNumber":87,"Velocity":91,"Duration":286547,"SoundDuration":286547,"Delta":328912814},{"NoteNumber":99,"Velocity":79,"Duration":286547,"SoundDuration":286547,"Delta":328912814},{"NoteNumber":39,"Velocity":79,"Duration":286547,"SoundDuration":286547,"Delta":328912814},{"NoteNumber":51,"Velocity":79,"Duration":286547,"SoundDuration":286547,"Delta":328912814},{"NoteNumber":58,"Velocity":48,"Duration":140620,"SoundDuration":140620,"Delta":329199361},{"NoteNumber":63,"Velocity":48,"Duration":140620,"SoundDuration":140620,"Delta":329199361},{"NoteNumber":55,"Velocity":38,"Duration":140620,"SoundDuration":140620,"Delta":329199361},{"NoteNumber":58,"Velocity":49,"Duration":140319,"SoundDuration":140319,"Delta":329339982},{"NoteNumber":63,"Velocity":49,"Duration":140319,"SoundDuration":140319,"Delta":329339982},{"NoteNumber":55,"Velocity":39,"Duration":140319,"SoundDuration":140319,"Delta":329339982},{"NoteNumber":57,"Velocity":50,"Duration":140019,"SoundDuration":140019,"Delta":329480301},{"NoteNumber":62,"Velocity":50,"Duration":140019,"SoundDuration":140019,"Delta":329480301},{"NoteNumber":54,"Velocity":40,"Duration":140019,"SoundDuration":140019,"Delta":329480301},{"NoteNumber":58,"Velocity":51,"Duration":139652,"SoundDuration":139652,"Delta":329620320},{"NoteNumber":63,"Velocity":51,"Duration":139652,"SoundDuration":139652,"Delta":329620320},{"NoteNumber":55,"Velocity":42,"Duration":139652,"SoundDuration":139652,"Delta":329620320},{"NoteNumber":59,"Velocity":52,"Duration":139343,"SoundDuration":139343,"Delta":329759973},{"NoteNumber":64,"Velocity":52,"Duration":139343,"SoundDuration":139343,"Delta":329759973},{"NoteNumber":56,"Velocity":43,"Duration":139343,"SoundDuration":139343,"Delta":329759973},{"NoteNumber":60,"Velocity":53,"Duration":139037,"SoundDuration":139037,"Delta":329899317},{"NoteNumber":65,"Velocity":53,"Duration":139037,"SoundDuration":139037,"Delta":329899317},{"NoteNumber":57,"Velocity":45,"Duration":139037,"SoundDuration":139037,"Delta":329899317},{"NoteNumber":61,"Velocity":54,"Duration":138675,"SoundDuration":138675,"Delta":330038354},{"NoteNumber":66,"Velocity":54,"Duration":138675,"SoundDuration":138675,"Delta":330038354},{"NoteNumber":58,"Velocity":46,"Duration":138675,"SoundDuration":138675,"Delta":330038354},{"NoteNumber":62,"Velocity":55,"Duration":138380,"SoundDuration":138380,"Delta":330177029},{"NoteNumber":67,"Velocity":55,"Duration":138380,"SoundDuration":138380,"Delta":330177029},{"NoteNumber":59,"Velocity":47,"Duration":138380,"SoundDuration":138380,"Delta":330177029},{"NoteNumber":63,"Velocity":57,"Duration":138083,"SoundDuration":138083,"Delta":330315409},{"NoteNumber":68,"Velocity":57,"Duration":138083,"SoundDuration":138083,"Delta":330315409},{"NoteNumber":60,"Velocity":49,"Duration":138083,"SoundDuration":138083,"Delta":330315409},{"NoteNumber":64,"Velocity":59,"Duration":137721,"SoundDuration":137721,"Delta":330453493},{"NoteNumber":69,"Velocity":59,"Duration":137721,"SoundDuration":137721,"Delta":330453493},{"NoteNumber":61,"Velocity":50,"Duration":137721,"SoundDuration":137721,"Delta":330453493},{"NoteNumber":65,"Velocity":59,"Duration":137362,"SoundDuration":137362,"Delta":330591215},{"NoteNumber":70,"Velocity":59,"Duration":137362,"SoundDuration":137362,"Delta":330591215},{"NoteNumber":62,"Velocity":51,"Duration":137362,"SoundDuration":137362,"Delta":330591215},{"NoteNumber":66,"Velocity":60,"Duration":137362,"SoundDuration":137362,"Delta":330728577},{"NoteNumber":71,"Velocity":60,"Duration":137362,"SoundDuration":137362,"Delta":330728577},{"NoteNumber":63,"Velocity":53,"Duration":137362,"SoundDuration":137362,"Delta":330728577},{"NoteNumber":67,"Velocity":64,"Duration":137362,"SoundDuration":137362,"Delta":330865940},{"NoteNumber":72,"Velocity":64,"Duration":137362,"SoundDuration":137362,"Delta":330865940},{"NoteNumber":64,"Velocity":55,"Duration":137362,"SoundDuration":137362,"Delta":330865940},{"NoteNumber":68,"Velocity":65,"Duration":137362,"SoundDuration":137362,"Delta":331003302},{"NoteNumber":73,"Velocity":65,"Duration":137362,"SoundDuration":137362,"Delta":331003302},{"NoteNumber":65,"Velocity":55,"Duration":137362,"SoundDuration":137362,"Delta":331003302},{"NoteNumber":69,"Velocity":66,"Duration":137362,"SoundDuration":137362,"Delta":331140665},{"NoteNumber":74,"Velocity":66,"Duration":137362,"SoundDuration":137362,"Delta":331140665},{"NoteNumber":66,"Velocity":55,"Duration":137362,"SoundDuration":137362,"Delta":331140665},{"NoteNumber":70,"Velocity":67,"Duration":137362,"SoundDuration":137362,"Delta":331278027},{"NoteNumber":75,"Velocity":67,"Duration":137362,"SoundDuration":137362,"Delta":331278027},{"NoteNumber":67,"Velocity":57,"Duration":137362,"SoundDuration":137362,"Delta":331278027},{"NoteNumber":70,"Velocity":68,"Duration":274724,"SoundDuration":274724,"Delta":331415390},{"NoteNumber":75,"Velocity":68,"Duration":274724,"SoundDuration":274724,"Delta":331415390},{"NoteNumber":67,"Velocity":58,"Duration":274724,"SoundDuration":274724,"Delta":331415390},{"NoteNumber":71,"Velocity":73,"Duration":274798,"SoundDuration":274798,"Delta":331690115},{"NoteNumber":76,"Velocity":73,"Duration":274798,"SoundDuration":274798,"Delta":331690115},{"NoteNumber":68,"Velocity":64,"Duration":274798,"SoundDuration":274798,"Delta":331690115},{"NoteNumber":88,"Velocity":80,"Duration":143273,"SoundDuration":143273,"Delta":331964913},{"NoteNumber":83,"Velocity":80,"Duration":143273,"SoundDuration":143273,"Delta":331964913},{"NoteNumber":76,"Velocity":80,"Duration":143273,"SoundDuration":143273,"Delta":331964913},{"NoteNumber":68,"Velocity":74,"Duration":143273,"SoundDuration":143273,"Delta":331964913},{"NoteNumber":64,"Velocity":74,"Duration":143273,"SoundDuration":143273,"Delta":331964913},{"NoteNumber":59,"Velocity":74,"Duration":143273,"SoundDuration":143273,"Delta":331964913},{"NoteNumber":56,"Velocity":74,"Duration":143273,"SoundDuration":143273,"Delta":331964913},{"NoteNumber":88,"Velocity":91,"Duration":286547,"SoundDuration":286547,"Delta":332251460},{"NoteNumber":100,"Velocity":85,"Duration":286547,"SoundDuration":286547,"Delta":332251460},{"NoteNumber":40,"Velocity":79,"Duration":286547,"SoundDuration":286547,"Delta":332251460},{"NoteNumber":52,"Velocity":79,"Duration":286547,"SoundDuration":286547,"Delta":332251460},{"NoteNumber":64,"Velocity":58,"Duration":138440,"SoundDuration":138440,"Delta":332538007},{"NoteNumber":76,"Velocity":70,"Duration":138440,"SoundDuration":138440,"Delta":332538007},{"NoteNumber":56,"Velocity":50,"Duration":138440,"SoundDuration":138440,"Delta":332538007},{"NoteNumber":59,"Velocity":59,"Duration":138440,"SoundDuration":138440,"Delta":332538007},{"NoteNumber":64,"Velocity":58,"Duration":138440,"SoundDuration":138440,"Delta":332676447},{"NoteNumber":76,"Velocity":70,"Duration":138440,"SoundDuration":138440,"Delta":332676447},{"NoteNumber":56,"Velocity":49,"Duration":138440,"SoundDuration":138440,"Delta":332676447},{"NoteNumber":59,"Velocity":58,"Duration":138440,"SoundDuration":138440,"Delta":332676447},{"NoteNumber":63,"Velocity":53,"Duration":140620,"SoundDuration":140620,"Delta":332814887},{"NoteNumber":75,"Velocity":64,"Duration":140620,"SoundDuration":140620,"Delta":332814887},{"NoteNumber":55,"Velocity":46,"Duration":140620,"SoundDuration":140620,"Delta":332814887},{"NoteNumber":58,"Velocity":54,"Duration":140620,"SoundDuration":140620,"Delta":332814887},{"NoteNumber":64,"Velocity":53,"Duration":139889,"SoundDuration":139889,"Delta":332955508},{"NoteNumber":76,"Velocity":64,"Duration":139889,"SoundDuration":139889,"Delta":332955508},{"NoteNumber":56,"Velocity":46,"Duration":139889,"SoundDuration":139889,"Delta":332955508},{"NoteNumber":59,"Velocity":54,"Duration":139889,"SoundDuration":139889,"Delta":332955508},{"NoteNumber":65,"Velocity":58,"Duration":138853,"SoundDuration":138853,"Delta":333095398},{"NoteNumber":77,"Velocity":70,"Duration":138853,"SoundDuration":138853,"Delta":333095398},{"NoteNumber":57,"Velocity":49,"Duration":138853,"SoundDuration":138853,"Delta":333095398},{"NoteNumber":60,"Velocity":58,"Duration":138853,"SoundDuration":138853,"Delta":333095398},{"NoteNumber":66,"Velocity":53,"Duration":138792,"SoundDuration":138792,"Delta":333234252},{"NoteNumber":78,"Velocity":64,"Duration":138792,"SoundDuration":138792,"Delta":333234252},{"NoteNumber":58,"Velocity":49,"Duration":138792,"SoundDuration":138792,"Delta":333234252},{"NoteNumber":61,"Velocity":58,"Duration":138792,"SoundDuration":138792,"Delta":333234252},{"NoteNumber":67,"Velocity":58,"Duration":68820,"SoundDuration":68820,"Delta":333373044},{"NoteNumber":79,"Velocity":70,"Duration":68820,"SoundDuration":68820,"Delta":333373044},{"NoteNumber":59,"Velocity":49,"Duration":68820,"SoundDuration":68820,"Delta":333373044},{"NoteNumber":62,"Velocity":58,"Duration":68820,"SoundDuration":68820,"Delta":333373044},{"NoteNumber":67,"Velocity":54,"Duration":68820,"SoundDuration":68820,"Delta":333510684},{"NoteNumber":79,"Velocity":65,"Duration":68820,"SoundDuration":68820,"Delta":333510684},{"NoteNumber":59,"Velocity":45,"Duration":68820,"SoundDuration":68820,"Delta":333510684},{"NoteNumber":62,"Velocity":53,"Duration":68820,"SoundDuration":68820,"Delta":333510684},{"NoteNumber":67,"Velocity":54,"Duration":70688,"SoundDuration":70688,"Delta":333648324},{"NoteNumber":79,"Velocity":65,"Duration":70688,"SoundDuration":70688,"Delta":333648324},{"NoteNumber":59,"Velocity":45,"Duration":70688,"SoundDuration":70688,"Delta":333648324},{"NoteNumber":62,"Velocity":53,"Duration":70688,"SoundDuration":70688,"Delta":333648324},{"NoteNumber":67,"Velocity":54,"Duration":70688,"SoundDuration":70688,"Delta":333789700},{"NoteNumber":79,"Velocity":65,"Duration":70688,"SoundDuration":70688,"Delta":333789700},{"NoteNumber":59,"Velocity":46,"Duration":70688,"SoundDuration":70688,"Delta":333789700},{"NoteNumber":62,"Velocity":54,"Duration":70688,"SoundDuration":70688,"Delta":333789700},{"NoteNumber":67,"Velocity":58,"Duration":138440,"SoundDuration":138440,"Delta":333931076},{"NoteNumber":79,"Velocity":70,"Duration":138440,"SoundDuration":138440,"Delta":333931076},{"NoteNumber":59,"Velocity":49,"Duration":138440,"SoundDuration":138440,"Delta":333931076},{"NoteNumber":62,"Velocity":58,"Duration":138440,"SoundDuration":138440,"Delta":333931076},{"NoteNumber":66,"Velocity":54,"Duration":138440,"SoundDuration":138440,"Delta":334069516},{"NoteNumber":78,"Velocity":65,"Duration":138440,"SoundDuration":138440,"Delta":334069516},{"NoteNumber":58,"Velocity":46,"Duration":138440,"SoundDuration":138440,"Delta":334069516},{"NoteNumber":61,"Velocity":54,"Duration":138440,"SoundDuration":138440,"Delta":334069516},{"NoteNumber":66,"Velocity":58,"Duration":68656,"SoundDuration":68656,"Delta":334207956},{"NoteNumber":78,"Velocity":70,"Duration":68656,"SoundDuration":68656,"Delta":334207956},{"NoteNumber":58,"Velocity":49,"Duration":68656,"SoundDuration":68656,"Delta":334207956},{"NoteNumber":61,"Velocity":58,"Duration":68656,"SoundDuration":68656,"Delta":334207956},{"NoteNumber":66,"Velocity":54,"Duration":68656,"SoundDuration":68656,"Delta":334345269},{"NoteNumber":78,"Velocity":65,"Duration":68656,"SoundDuration":68656,"Delta":334345269},{"NoteNumber":58,"Velocity":46,"Duration":68656,"SoundDuration":68656,"Delta":334345269},{"NoteNumber":61,"Velocity":54,"Duration":68656,"SoundDuration":68656,"Delta":334345269},{"NoteNumber":65,"Velocity":54,"Duration":70688,"SoundDuration":70688,"Delta":334482581},{"NoteNumber":77,"Velocity":65,"Duration":70688,"SoundDuration":70688,"Delta":334482581},{"NoteNumber":57,"Velocity":46,"Duration":70688,"SoundDuration":70688,"Delta":334482581},{"NoteNumber":60,"Velocity":54,"Duration":70688,"SoundDuration":70688,"Delta":334482581},{"NoteNumber":66,"Velocity":54,"Duration":70688,"SoundDuration":70688,"Delta":334623957},{"NoteNumber":78,"Velocity":65,"Duration":70688,"SoundDuration":70688,"Delta":334623957},{"NoteNumber":58,"Velocity":46,"Duration":70688,"SoundDuration":70688,"Delta":334623957},{"NoteNumber":61,"Velocity":54,"Duration":70688,"SoundDuration":70688,"Delta":334623957},{"NoteNumber":67,"Velocity":58,"Duration":138440,"SoundDuration":138440,"Delta":334765333},{"NoteNumber":79,"Velocity":70,"Duration":138440,"SoundDuration":138440,"Delta":334765333},{"NoteNumber":59,"Velocity":49,"Duration":138440,"SoundDuration":138440,"Delta":334765333},{"NoteNumber":62,"Velocity":58,"Duration":138440,"SoundDuration":138440,"Delta":334765333},{"NoteNumber":68,"Velocity":53,"Duration":138440,"SoundDuration":138440,"Delta":334903773},{"NoteNumber":80,"Velocity":63,"Duration":138440,"SoundDuration":138440,"Delta":334903773},{"NoteNumber":60,"Velocity":46,"Duration":138440,"SoundDuration":138440,"Delta":334903773},{"NoteNumber":63,"Velocity":54,"Duration":138440,"SoundDuration":138440,"Delta":334903773},{"NoteNumber":69,"Velocity":54,"Duration":68493,"SoundDuration":68493,"Delta":335042213},{"NoteNumber":81,"Velocity":65,"Duration":68493,"SoundDuration":68493,"Delta":335042213},{"NoteNumber":61,"Velocity":49,"Duration":68493,"SoundDuration":68493,"Delta":335042213},{"NoteNumber":64,"Velocity":58,"Duration":68493,"SoundDuration":68493,"Delta":335042213},{"NoteNumber":69,"Velocity":56,"Duration":68493,"SoundDuration":68493,"Delta":335179200},{"NoteNumber":81,"Velocity":67,"Duration":68493,"SoundDuration":68493,"Delta":335179200},{"NoteNumber":61,"Velocity":51,"Duration":68493,"SoundDuration":68493,"Delta":335179200},{"NoteNumber":64,"Velocity":60,"Duration":68493,"SoundDuration":68493,"Delta":335179200},{"NoteNumber":69,"Velocity":58,"Duration":70310,"SoundDuration":70310,"Delta":335316186},{"NoteNumber":81,"Velocity":70,"Duration":70310,"SoundDuration":70310,"Delta":335316186},{"NoteNumber":61,"Velocity":53,"Duration":70310,"SoundDuration":70310,"Delta":335316186},{"NoteNumber":64,"Velocity":63,"Duration":70310,"SoundDuration":70310,"Delta":335316186},{"NoteNumber":69,"Velocity":60,"Duration":70310,"SoundDuration":70310,"Delta":335456807},{"NoteNumber":81,"Velocity":72,"Duration":70310,"SoundDuration":70310,"Delta":335456807},{"NoteNumber":61,"Velocity":53,"Duration":70310,"SoundDuration":70310,"Delta":335456807},{"NoteNumber":64,"Velocity":64,"Duration":70310,"SoundDuration":70310,"Delta":335456807},{"NoteNumber":69,"Velocity":66,"Duration":138440,"SoundDuration":138440,"Delta":335597427},{"NoteNumber":81,"Velocity":78,"Duration":138440,"SoundDuration":138440,"Delta":335597427},{"NoteNumber":61,"Velocity":56,"Duration":138440,"SoundDuration":138440,"Delta":335597427},{"NoteNumber":64,"Velocity":67,"Duration":138440,"SoundDuration":138440,"Delta":335597427},{"NoteNumber":68,"Velocity":60,"Duration":138440,"SoundDuration":138440,"Delta":335735867},{"NoteNumber":80,"Velocity":72,"Duration":138440,"SoundDuration":138440,"Delta":335735867},{"NoteNumber":60,"Velocity":50,"Duration":138440,"SoundDuration":138440,"Delta":335735867},{"NoteNumber":63,"Velocity":59,"Duration":138440,"SoundDuration":138440,"Delta":335735867},{"NoteNumber":68,"Velocity":63,"Duration":68493,"SoundDuration":68493,"Delta":335874307},{"NoteNumber":80,"Velocity":74,"Duration":68493,"SoundDuration":68493,"Delta":335874307},{"NoteNumber":60,"Velocity":50,"Duration":68493,"SoundDuration":68493,"Delta":335874307},{"NoteNumber":63,"Velocity":59,"Duration":68493,"SoundDuration":68493,"Delta":335874307},{"NoteNumber":68,"Velocity":65,"Duration":68493,"SoundDuration":68493,"Delta":336011294},{"NoteNumber":80,"Velocity":76,"Duration":68493,"SoundDuration":68493,"Delta":336011294},{"NoteNumber":60,"Velocity":52,"Duration":68493,"SoundDuration":68493,"Delta":336011294},{"NoteNumber":63,"Velocity":61,"Duration":68493,"SoundDuration":68493,"Delta":336011294},{"NoteNumber":67,"Velocity":65,"Duration":70310,"SoundDuration":70310,"Delta":336148280},{"NoteNumber":79,"Velocity":77,"Duration":70310,"SoundDuration":70310,"Delta":336148280},{"NoteNumber":59,"Velocity":53,"Duration":70310,"SoundDuration":70310,"Delta":336148280},{"NoteNumber":62,"Velocity":64,"Duration":70310,"SoundDuration":70310,"Delta":336148280},{"NoteNumber":68,"Velocity":68,"Duration":70310,"SoundDuration":70310,"Delta":336288901},{"NoteNumber":80,"Velocity":80,"Duration":70310,"SoundDuration":70310,"Delta":336288901},{"NoteNumber":60,"Velocity":54,"Duration":70310,"SoundDuration":70310,"Delta":336288901},{"NoteNumber":63,"Velocity":65,"Duration":70310,"SoundDuration":70310,"Delta":336288901},{"NoteNumber":68,"Velocity":77,"Duration":250074,"SoundDuration":250074,"Delta":336429521},{"NoteNumber":73,"Velocity":77,"Duration":250074,"SoundDuration":250074,"Delta":336429521},{"NoteNumber":80,"Velocity":91,"Duration":250074,"SoundDuration":250074,"Delta":336429521},{"NoteNumber":59,"Velocity":56,"Duration":287613,"SoundDuration":287613,"Delta":336429521},{"NoteNumber":65,"Velocity":67,"Duration":287613,"SoundDuration":287613,"Delta":336429521},{"NoteNumber":61,"Velocity":56,"Duration":287613,"SoundDuration":287613,"Delta":336429521},{"NoteNumber":70,"Velocity":55,"Duration":37539,"SoundDuration":37539,"Delta":336679595},{"NoteNumber":82,"Velocity":63,"Duration":37539,"SoundDuration":37539,"Delta":336679595},{"NoteNumber":68,"Velocity":73,"Duration":138625,"SoundDuration":138625,"Delta":336717135},{"NoteNumber":73,"Velocity":73,"Duration":138625,"SoundDuration":138625,"Delta":336717135},{"NoteNumber":80,"Velocity":86,"Duration":138625,"SoundDuration":138625,"Delta":336717135},{"NoteNumber":37,"Velocity":49,"Duration":278603,"SoundDuration":278603,"Delta":336717135},{"NoteNumber":49,"Velocity":59,"Duration":278603,"SoundDuration":278603,"Delta":336717135},{"NoteNumber":67,"Velocity":66,"Duration":139977,"SoundDuration":139977,"Delta":336855761},{"NoteNumber":79,"Velocity":79,"Duration":139977,"SoundDuration":139977,"Delta":336855761},{"NoteNumber":68,"Velocity":73,"Duration":143801,"SoundDuration":143801,"Delta":336995738},{"NoteNumber":73,"Velocity":73,"Duration":143801,"SoundDuration":143801,"Delta":336995738},{"NoteNumber":80,"Velocity":88,"Duration":143801,"SoundDuration":143801,"Delta":336995738},{"NoteNumber":65,"Velocity":65,"Duration":290396,"SoundDuration":290396,"Delta":336995738},{"NoteNumber":61,"Velocity":54,"Duration":290396,"SoundDuration":290396,"Delta":336995738},{"NoteNumber":59,"Velocity":54,"Duration":290396,"SoundDuration":290396,"Delta":336995738},{"NoteNumber":70,"Velocity":69,"Duration":146594,"SoundDuration":146594,"Delta":337139540},{"NoteNumber":82,"Velocity":82,"Duration":146594,"SoundDuration":146594,"Delta":337139540},{"NoteNumber":73,"Velocity":76,"Duration":288322,"SoundDuration":288322,"Delta":337286135},{"NoteNumber":68,"Velocity":76,"Duration":288322,"SoundDuration":288322,"Delta":337286135},{"NoteNumber":80,"Velocity":90,"Duration":288322,"SoundDuration":288322,"Delta":337286135},{"NoteNumber":64,"Velocity":67,"Duration":288322,"SoundDuration":288322,"Delta":337286135},{"NoteNumber":61,"Velocity":56,"Duration":288322,"SoundDuration":288322,"Delta":337286135},{"NoteNumber":59,"Velocity":56,"Duration":288322,"SoundDuration":288322,"Delta":337286135},{"NoteNumber":54,"Velocity":56,"Duration":288322,"SoundDuration":288322,"Delta":337286135},{"NoteNumber":92,"Velocity":95,"Duration":139301,"SoundDuration":139301,"Delta":337574458},{"NoteNumber":80,"Velocity":79,"Duration":139301,"SoundDuration":139301,"Delta":337574458},{"NoteNumber":30,"Velocity":51,"Duration":278602,"SoundDuration":278602,"Delta":337574458},{"NoteNumber":42,"Velocity":60,"Duration":278602,"SoundDuration":278602,"Delta":337574458},{"NoteNumber":66,"Velocity":73,"Duration":283380,"SoundDuration":283380,"Delta":337853061},{"NoteNumber":73,"Velocity":73,"Duration":283380,"SoundDuration":283380,"Delta":337853061},{"NoteNumber":78,"Velocity":88,"Duration":283380,"SoundDuration":283380,"Delta":337853061},{"NoteNumber":64,"Velocity":61,"Duration":283380,"SoundDuration":283380,"Delta":337853061},{"NoteNumber":61,"Velocity":52,"Duration":283380,"SoundDuration":283380,"Delta":337853061},{"NoteNumber":58,"Velocity":52,"Duration":283380,"SoundDuration":283380,"Delta":337853061},{"NoteNumber":54,"Velocity":52,"Duration":283380,"SoundDuration":283380,"Delta":337853061},{"NoteNumber":66,"Velocity":65,"Duration":252793,"SoundDuration":252793,"Delta":338136441},{"NoteNumber":71,"Velocity":65,"Duration":252793,"SoundDuration":252793,"Delta":338136441},{"NoteNumber":78,"Velocity":77,"Duration":252793,"SoundDuration":252793,"Delta":338136441},{"NoteNumber":57,"Velocity":54,"Duration":290431,"SoundDuration":290431,"Delta":338136441},{"NoteNumber":63,"Velocity":63,"Duration":290431,"SoundDuration":290431,"Delta":338136441},{"NoteNumber":59,"Velocity":54,"Duration":290431,"SoundDuration":290431,"Delta":338136441},{"NoteNumber":68,"Velocity":61,"Duration":37637,"SoundDuration":37637,"Delta":338389235},{"NoteNumber":80,"Velocity":61,"Duration":37637,"SoundDuration":37637,"Delta":338389235},{"NoteNumber":66,"Velocity":70,"Duration":138851,"SoundDuration":138851,"Delta":338426872},{"NoteNumber":71,"Velocity":70,"Duration":138851,"SoundDuration":138851,"Delta":338426872},{"NoteNumber":78,"Velocity":82,"Duration":138851,"SoundDuration":138851,"Delta":338426872},{"NoteNumber":35,"Velocity":47,"Duration":278828,"SoundDuration":278828,"Delta":338426872},{"NoteNumber":47,"Velocity":57,"Duration":278828,"SoundDuration":278828,"Delta":338426872},{"NoteNumber":65,"Velocity":67,"Duration":139977,"SoundDuration":139977,"Delta":338565723},{"NoteNumber":77,"Velocity":79,"Duration":139977,"SoundDuration":139977,"Delta":338565723},{"NoteNumber":66,"Velocity":70,"Duration":145617,"SoundDuration":145617,"Delta":338705701},{"NoteNumber":71,"Velocity":70,"Duration":145617,"SoundDuration":145617,"Delta":338705701},{"NoteNumber":78,"Velocity":84,"Duration":145617,"SoundDuration":145617,"Delta":338705701},{"NoteNumber":63,"Velocity":61,"Duration":291233,"SoundDuration":291233,"Delta":338705701},{"NoteNumber":59,"Velocity":51,"Duration":291233,"SoundDuration":291233,"Delta":338705701},{"NoteNumber":57,"Velocity":51,"Duration":291233,"SoundDuration":291233,"Delta":338705701},{"NoteNumber":68,"Velocity":67,"Duration":145616,"SoundDuration":145616,"Delta":338851318},{"NoteNumber":80,"Velocity":79,"Duration":145616,"SoundDuration":145616,"Delta":338851318},{"NoteNumber":71,"Velocity":76,"Duration":286875,"SoundDuration":286875,"Delta":338996935},{"NoteNumber":66,"Velocity":76,"Duration":286875,"SoundDuration":286875,"Delta":338996935},{"NoteNumber":78,"Velocity":90,"Duration":286875,"SoundDuration":286875,"Delta":338996935},{"NoteNumber":62,"Velocity":67,"Duration":286875,"SoundDuration":286875,"Delta":338996935},{"NoteNumber":59,"Velocity":56,"Duration":286875,"SoundDuration":286875,"Delta":338996935},{"NoteNumber":57,"Velocity":56,"Duration":286875,"SoundDuration":286875,"Delta":338996935},{"NoteNumber":52,"Velocity":56,"Duration":286875,"SoundDuration":286875,"Delta":338996935},{"NoteNumber":90,"Velocity":92,"Duration":140317,"SoundDuration":140317,"Delta":339283810},{"NoteNumber":78,"Velocity":79,"Duration":140317,"SoundDuration":140317,"Delta":339283810},{"NoteNumber":28,"Velocity":51,"Duration":280636,"SoundDuration":280636,"Delta":339283810},{"NoteNumber":40,"Velocity":60,"Duration":280636,"SoundDuration":280636,"Delta":339283810},{"NoteNumber":64,"Velocity":73,"Duration":283151,"SoundDuration":283151,"Delta":339564446},{"NoteNumber":71,"Velocity":73,"Duration":283151,"SoundDuration":283151,"Delta":339564446},{"NoteNumber":76,"Velocity":88,"Duration":283151,"SoundDuration":283151,"Delta":339564446},{"NoteNumber":62,"Velocity":61,"Duration":283151,"SoundDuration":283151,"Delta":339564446},{"NoteNumber":56,"Velocity":52,"Duration":283151,"SoundDuration":283151,"Delta":339564446},{"NoteNumber":52,"Velocity":52,"Duration":283151,"SoundDuration":283151,"Delta":339564446},{"NoteNumber":64,"Velocity":77,"Duration":252890,"SoundDuration":252890,"Delta":339847597},{"NoteNumber":69,"Velocity":77,"Duration":252890,"SoundDuration":252890,"Delta":339847597},{"NoteNumber":76,"Velocity":91,"Duration":252890,"SoundDuration":252890,"Delta":339847597},{"NoteNumber":55,"Velocity":56,"Duration":290624,"SoundDuration":290624,"Delta":339847597},{"NoteNumber":61,"Velocity":67,"Duration":290624,"SoundDuration":290624,"Delta":339847597},{"NoteNumber":57,"Velocity":56,"Duration":290624,"SoundDuration":290624,"Delta":339847597},{"NoteNumber":66,"Velocity":55,"Duration":37734,"SoundDuration":37734,"Delta":340100487},{"NoteNumber":78,"Velocity":63,"Duration":37734,"SoundDuration":37734,"Delta":340100487},{"NoteNumber":64,"Velocity":77,"Duration":139528,"SoundDuration":139528,"Delta":340138221},{"NoteNumber":69,"Velocity":77,"Duration":139528,"SoundDuration":139528,"Delta":340138221},{"NoteNumber":76,"Velocity":91,"Duration":139528,"SoundDuration":139528,"Delta":340138221},{"NoteNumber":33,"Velocity":50,"Duration":279057,"SoundDuration":279057,"Delta":340138221},{"NoteNumber":45,"Velocity":59,"Duration":279057,"SoundDuration":279057,"Delta":340138221},{"NoteNumber":63,"Velocity":69,"Duration":139528,"SoundDuration":139528,"Delta":340277750},{"NoteNumber":75,"Velocity":82,"Duration":139528,"SoundDuration":139528,"Delta":340277750},{"NoteNumber":64,"Velocity":73,"Duration":144050,"SoundDuration":144050,"Delta":340417278},{"NoteNumber":69,"Velocity":73,"Duration":144050,"SoundDuration":144050,"Delta":340417278},{"NoteNumber":76,"Velocity":88,"Duration":144050,"SoundDuration":144050,"Delta":340417278},{"NoteNumber":61,"Velocity":60,"Duration":288100,"SoundDuration":288100,"Delta":340417278},{"NoteNumber":57,"Velocity":51,"Duration":288100,"SoundDuration":288100,"Delta":340417278},{"NoteNumber":55,"Velocity":51,"Duration":288100,"SoundDuration":288100,"Delta":340417278},{"NoteNumber":66,"Velocity":69,"Duration":144050,"SoundDuration":144050,"Delta":340561329},{"NoteNumber":78,"Velocity":82,"Duration":144050,"SoundDuration":144050,"Delta":340561329},{"NoteNumber":63,"Velocity":76,"Duration":141750,"SoundDuration":141750,"Delta":340705379},{"NoteNumber":69,"Velocity":76,"Duration":141750,"SoundDuration":141750,"Delta":340705379},{"NoteNumber":75,"Velocity":90,"Duration":141750,"SoundDuration":141750,"Delta":340705379},{"NoteNumber":54,"Velocity":56,"Duration":283500,"SoundDuration":283500,"Delta":340705379},{"NoteNumber":60,"Velocity":67,"Duration":283500,"SoundDuration":283500,"Delta":340705379},{"NoteNumber":63,"Velocity":74,"Duration":141750,"SoundDuration":141750,"Delta":340847129},{"NoteNumber":66,"Velocity":71,"Duration":141562,"SoundDuration":141562,"Delta":340988879},{"NoteNumber":75,"Velocity":84,"Duration":141562,"SoundDuration":141562,"Delta":340988879},{"NoteNumber":57,"Velocity":48,"Duration":284079,"SoundDuration":284079,"Delta":340988879},{"NoteNumber":60,"Velocity":58,"Duration":284079,"SoundDuration":284079,"Delta":340988879},{"NoteNumber":75,"Velocity":91,"Duration":142516,"SoundDuration":142516,"Delta":341130442},{"NoteNumber":87,"Velocity":89,"Duration":143530,"SoundDuration":143530,"Delta":341272959},{"NoteNumber":78,"Velocity":74,"Duration":143530,"SoundDuration":143530,"Delta":341272959},{"NoteNumber":69,"Velocity":55,"Duration":288171,"SoundDuration":288171,"Delta":341272959},{"NoteNumber":72,"Velocity":65,"Duration":288171,"SoundDuration":288171,"Delta":341272959},{"NoteNumber":87,"Velocity":93,"Duration":144640,"SoundDuration":144640,"Delta":341416490},{"NoteNumber":99,"Velocity":93,"Duration":290458,"SoundDuration":290458,"Delta":341561131},{"NoteNumber":90,"Velocity":77,"Duration":290458,"SoundDuration":290458,"Delta":341561131},{"NoteNumber":84,"Velocity":68,"Duration":290458,"SoundDuration":290458,"Delta":341561131},{"NoteNumber":81,"Velocity":56,"Duration":290458,"SoundDuration":290458,"Delta":341561131},{"NoteNumber":63,"Velocity":70,"Duration":145250,"SoundDuration":145250,"Delta":341851589},{"NoteNumber":69,"Velocity":82,"Duration":145250,"SoundDuration":145250,"Delta":341851589},{"NoteNumber":66,"Velocity":70,"Duration":145250,"SoundDuration":145250,"Delta":341851589},{"NoteNumber":48,"Velocity":48,"Duration":145250,"SoundDuration":145250,"Delta":341851589},{"NoteNumber":60,"Velocity":58,"Duration":145250,"SoundDuration":145250,"Delta":341851589},{"NoteNumber":66,"Velocity":67,"Duration":143437,"SoundDuration":143437,"Delta":342142090},{"NoteNumber":69,"Velocity":67,"Duration":143437,"SoundDuration":143437,"Delta":342142090},{"NoteNumber":78,"Velocity":79,"Duration":143437,"SoundDuration":143437,"Delta":342142090},{"NoteNumber":24,"Velocity":48,"Duration":143437,"SoundDuration":143437,"Delta":342142090},{"NoteNumber":36,"Velocity":57,"Duration":143437,"SoundDuration":143437,"Delta":342142090},{"NoteNumber":65,"Velocity":70,"Duration":144885,"SoundDuration":144885,"Delta":342428965},{"NoteNumber":70,"Velocity":70,"Duration":144885,"SoundDuration":144885,"Delta":342428965},{"NoteNumber":77,"Velocity":82,"Duration":144885,"SoundDuration":144885,"Delta":342428965},{"NoteNumber":25,"Velocity":50,"Duration":144885,"SoundDuration":144885,"Delta":342428965},{"NoteNumber":37,"Velocity":59,"Duration":144885,"SoundDuration":144885,"Delta":342428965},{"NoteNumber":58,"Velocity":52,"Duration":144161,"SoundDuration":144161,"Delta":342718736},{"NoteNumber":65,"Velocity":52,"Duration":144161,"SoundDuration":144161,"Delta":342718736},{"NoteNumber":70,"Velocity":61,"Duration":144161,"SoundDuration":144161,"Delta":342718736},{"NoteNumber":37,"Velocity":34,"Duration":144161,"SoundDuration":144161,"Delta":342718736},{"NoteNumber":49,"Velocity":40,"Duration":144161,"SoundDuration":144161,"Delta":342718736},{"NoteNumber":63,"Velocity":56,"Duration":145617,"SoundDuration":145617,"Delta":343007059},{"NoteNumber":66,"Velocity":56,"Duration":145617,"SoundDuration":145617,"Delta":343007059},{"NoteNumber":72,"Velocity":66,"Duration":145617,"SoundDuration":145617,"Delta":343007059},{"NoteNumber":75,"Velocity":66,"Duration":145617,"SoundDuration":145617,"Delta":343007059},{"NoteNumber":27,"Velocity":37,"Duration":145617,"SoundDuration":145617,"Delta":343007059},{"NoteNumber":39,"Velocity":46,"Duration":145617,"SoundDuration":145617,"Delta":343007059},{"NoteNumber":61,"Velocity":57,"Duration":144885,"SoundDuration":144885,"Delta":343298293},{"NoteNumber":65,"Velocity":57,"Duration":144885,"SoundDuration":144885,"Delta":343298293},{"NoteNumber":70,"Velocity":68,"Duration":144885,"SoundDuration":144885,"Delta":343298293},{"NoteNumber":73,"Velocity":68,"Duration":144885,"SoundDuration":144885,"Delta":343298293},{"NoteNumber":29,"Velocity":40,"Duration":144885,"SoundDuration":144885,"Delta":343298293},{"NoteNumber":41,"Velocity":49,"Duration":144885,"SoundDuration":144885,"Delta":343298293},{"NoteNumber":61,"Velocity":50,"Duration":144885,"SoundDuration":144885,"Delta":343588064},{"NoteNumber":65,"Velocity":60,"Duration":144885,"SoundDuration":144885,"Delta":343588064},{"NoteNumber":41,"Velocity":35,"Duration":144885,"SoundDuration":144885,"Delta":343588064},{"NoteNumber":53,"Velocity":44,"Duration":144885,"SoundDuration":144885,"Delta":343588064},{"NoteNumber":63,"Velocity":49,"Duration":144885,"SoundDuration":144885,"Delta":343877835},{"NoteNumber":65,"Velocity":49,"Duration":144885,"SoundDuration":144885,"Delta":343877835},{"NoteNumber":69,"Velocity":58,"Duration":144885,"SoundDuration":144885,"Delta":343877835},{"NoteNumber":72,"Velocity":58,"Duration":144885,"SoundDuration":144885,"Delta":343877835},{"NoteNumber":29,"Velocity":35,"Duration":144885,"SoundDuration":144885,"Delta":343877835},{"NoteNumber":41,"Velocity":43,"Duration":144885,"SoundDuration":144885,"Delta":343877835},{"NoteNumber":61,"Velocity":46,"Duration":144885,"SoundDuration":144885,"Delta":344167606},{"NoteNumber":65,"Velocity":46,"Duration":144885,"SoundDuration":144885,"Delta":344167606},{"NoteNumber":70,"Velocity":55,"Duration":144885,"SoundDuration":144885,"Delta":344167606},{"NoteNumber":34,"Velocity":30,"Duration":144885,"SoundDuration":144885,"Delta":344167606},{"NoteNumber":46,"Velocity":37,"Duration":144885,"SoundDuration":144885,"Delta":344167606},{"NoteNumber":53,"Velocity":38,"Duration":145985,"SoundDuration":145985,"Delta":344457377},{"NoteNumber":58,"Velocity":48,"Duration":145985,"SoundDuration":145985,"Delta":344457377},{"NoteNumber":37,"Velocity":25,"Duration":145985,"SoundDuration":145985,"Delta":344457377},{"NoteNumber":49,"Velocity":31,"Duration":145985,"SoundDuration":145985,"Delta":344457377},{"NoteNumber":63,"Velocity":50,"Duration":143801,"SoundDuration":143801,"Delta":344749348},{"NoteNumber":58,"Velocity":40,"Duration":143801,"SoundDuration":143801,"Delta":344749348},{"NoteNumber":54,"Velocity":40,"Duration":143801,"SoundDuration":143801,"Delta":344749348},{"NoteNumber":39,"Velocity":33,"Duration":143801,"SoundDuration":143801,"Delta":344749348},{"NoteNumber":53,"Velocity":43,"Duration":144885,"SoundDuration":144885,"Delta":345036952},{"NoteNumber":58,"Velocity":43,"Duration":144885,"SoundDuration":144885,"Delta":345036952},{"NoteNumber":61,"Velocity":51,"Duration":144885,"SoundDuration":144885,"Delta":345036952},{"NoteNumber":41,"Velocity":38,"Duration":144885,"SoundDuration":144885,"Delta":345036952},{"NoteNumber":53,"Velocity":45,"Duration":144885,"SoundDuration":144885,"Delta":345326723},{"NoteNumber":60,"Velocity":45,"Duration":144885,"SoundDuration":144885,"Delta":345616494},{"NoteNumber":57,"Velocity":37,"Duration":144885,"SoundDuration":144885,"Delta":345616494},{"NoteNumber":51,"Velocity":37,"Duration":144885,"SoundDuration":144885,"Delta":345616494},{"NoteNumber":29,"Velocity":28,"Duration":144885,"SoundDuration":144885,"Delta":345616494},{"NoteNumber":41,"Velocity":34,"Duration":144885,"SoundDuration":144885,"Delta":345616494},{"NoteNumber":58,"Velocity":46,"Duration":1130672,"SoundDuration":1130672,"Delta":345906265},{"NoteNumber":70,"Velocity":46,"Duration":1130672,"SoundDuration":1130672,"Delta":345906265},{"NoteNumber":34,"Velocity":30,"Duration":279954,"SoundDuration":279954,"Delta":345906265},{"NoteNumber":46,"Velocity":36,"Duration":279954,"SoundDuration":279954,"Delta":345906265},{"NoteNumber":44,"Velocity":26,"Duration":286190,"SoundDuration":286190,"Delta":346186220},{"NoteNumber":56,"Velocity":31,"Duration":286190,"SoundDuration":286190,"Delta":346186220},{"NoteNumber":41,"Velocity":26,"Duration":286191,"SoundDuration":286191,"Delta":346472411},{"NoteNumber":53,"Velocity":31,"Duration":286191,"SoundDuration":286191,"Delta":346472411},{"NoteNumber":42,"Velocity":30,"Duration":278335,"SoundDuration":278335,"Delta":346758602},{"NoteNumber":54,"Velocity":36,"Duration":278335,"SoundDuration":278335,"Delta":346758602},{"NoteNumber":70,"Velocity":46,"Duration":285780,"SoundDuration":285780,"Delta":347036937},{"NoteNumber":82,"Velocity":46,"Duration":285780,"SoundDuration":285780,"Delta":347036937},{"NoteNumber":41,"Velocity":26,"Duration":285780,"SoundDuration":285780,"Delta":347036937},{"NoteNumber":53,"Velocity":31,"Duration":285780,"SoundDuration":285780,"Delta":347036937},{"NoteNumber":94,"Velocity":46,"Duration":285795,"SoundDuration":285795,"Delta":347322717},{"NoteNumber":82,"Velocity":46,"Duration":285795,"SoundDuration":285795,"Delta":347322717},{"NoteNumber":37,"Velocity":26,"Duration":285795,"SoundDuration":285795,"Delta":347322717},{"NoteNumber":49,"Velocity":31,"Duration":285795,"SoundDuration":285795,"Delta":347322717},{"NoteNumber":70,"Velocity":46,"Duration":1134166,"SoundDuration":1134166,"Delta":347608513},{"NoteNumber":58,"Velocity":46,"Duration":1134166,"SoundDuration":1134166,"Delta":347608513},{"NoteNumber":39,"Velocity":30,"Duration":279071,"SoundDuration":279071,"Delta":347608513},{"NoteNumber":51,"Velocity":36,"Duration":279071,"SoundDuration":279071,"Delta":347608513},{"NoteNumber":37,"Velocity":26,"Duration":285023,"SoundDuration":285023,"Delta":347887584},{"NoteNumber":49,"Velocity":31,"Duration":285023,"SoundDuration":285023,"Delta":347887584},{"NoteNumber":34,"Velocity":31,"Duration":285035,"SoundDuration":285035,"Delta":348172608},{"NoteNumber":46,"Velocity":31,"Duration":285035,"SoundDuration":285035,"Delta":348172608},{"NoteNumber":35,"Velocity":38,"Duration":285036,"SoundDuration":285036,"Delta":348457644},{"NoteNumber":47,"Velocity":38,"Duration":285036,"SoundDuration":285036,"Delta":348457644},{"NoteNumber":70,"Velocity":53,"Duration":285035,"SoundDuration":285035,"Delta":348742680},{"NoteNumber":82,"Velocity":53,"Duration":285035,"SoundDuration":285035,"Delta":348742680},{"NoteNumber":34,"Velocity":38,"Duration":285035,"SoundDuration":285035,"Delta":348742680},{"NoteNumber":46,"Velocity":38,"Duration":285035,"SoundDuration":285035,"Delta":348742680},{"NoteNumber":94,"Velocity":59,"Duration":285035,"SoundDuration":285035,"Delta":349027716},{"NoteNumber":82,"Velocity":59,"Duration":285035,"SoundDuration":285035,"Delta":349027716},{"NoteNumber":30,"Velocity":40,"Duration":285035,"SoundDuration":285035,"Delta":349027716},{"NoteNumber":42,"Velocity":40,"Duration":285035,"SoundDuration":285035,"Delta":349027716},{"NoteNumber":51,"Velocity":52,"Duration":49836,"SoundDuration":49836,"Delta":349312752},{"NoteNumber":63,"Velocity":63,"Duration":49836,"SoundDuration":49836,"Delta":349312752},{"NoteNumber":27,"Velocity":40,"Duration":268599,"SoundDuration":268599,"Delta":349312752},{"NoteNumber":39,"Velocity":47,"Duration":268599,"SoundDuration":268599,"Delta":349312752},{"NoteNumber":51,"Velocity":55,"Duration":50888,"SoundDuration":50888,"Delta":349445648},{"NoteNumber":63,"Velocity":66,"Duration":50888,"SoundDuration":50888,"Delta":349445648},{"NoteNumber":63,"Velocity":67,"Duration":50416,"SoundDuration":50416,"Delta":349581352},{"NoteNumber":51,"Velocity":57,"Duration":50416,"SoundDuration":50416,"Delta":349581352},{"NoteNumber":28,"Velocity":38,"Duration":50416,"SoundDuration":50416,"Delta":349581352},{"NoteNumber":40,"Velocity":44,"Duration":50416,"SoundDuration":50416,"Delta":349581352},{"NoteNumber":63,"Velocity":68,"Duration":52112,"SoundDuration":52112,"Delta":349715641},{"NoteNumber":51,"Velocity":59,"Duration":52112,"SoundDuration":52112,"Delta":349715641},{"NoteNumber":29,"Velocity":38,"Duration":52112,"SoundDuration":52112,"Delta":349715641},{"NoteNumber":41,"Velocity":47,"Duration":52112,"SoundDuration":52112,"Delta":349715641},{"NoteNumber":63,"Velocity":79,"Duration":283564,"SoundDuration":283564,"Delta":349854607},{"NoteNumber":51,"Velocity":66,"Duration":283564,"SoundDuration":283564,"Delta":349854607},{"NoteNumber":30,"Velocity":46,"Duration":283564,"SoundDuration":283564,"Delta":349854607},{"NoteNumber":42,"Velocity":54,"Duration":283564,"SoundDuration":283564,"Delta":349854607},{"NoteNumber":53,"Velocity":73,"Duration":276729,"SoundDuration":276729,"Delta":350138172},{"NoteNumber":63,"Velocity":75,"Duration":276729,"SoundDuration":276729,"Delta":350138172},{"NoteNumber":59,"Velocity":71,"Duration":276729,"SoundDuration":276729,"Delta":350138172},{"NoteNumber":65,"Velocity":88,"Duration":276729,"SoundDuration":276729,"Delta":350138172},{"NoteNumber":32,"Velocity":56,"Duration":276729,"SoundDuration":276729,"Delta":350138172},{"NoteNumber":44,"Velocity":67,"Duration":276729,"SoundDuration":276729,"Delta":350138172},{"NoteNumber":65,"Velocity":63,"Duration":136470,"SoundDuration":136470,"Delta":350414901},{"NoteNumber":77,"Velocity":76,"Duration":136470,"SoundDuration":136470,"Delta":350414901},{"NoteNumber":75,"Velocity":63,"Duration":136470,"SoundDuration":136470,"Delta":350414901},{"NoteNumber":71,"Velocity":63,"Duration":136470,"SoundDuration":136470,"Delta":350414901},{"NoteNumber":44,"Velocity":43,"Duration":272933,"SoundDuration":272933,"Delta":350414901},{"NoteNumber":51,"Velocity":43,"Duration":272933,"SoundDuration":272933,"Delta":350414901},{"NoteNumber":53,"Velocity":43,"Duration":272933,"SoundDuration":272933,"Delta":350414901},{"NoteNumber":59,"Velocity":51,"Duration":272933,"SoundDuration":272933,"Delta":350414901},{"NoteNumber":63,"Velocity":61,"Duration":136462,"SoundDuration":136462,"Delta":350551372},{"NoteNumber":75,"Velocity":74,"Duration":136462,"SoundDuration":136462,"Delta":350551372},{"NoteNumber":70,"Velocity":63,"Duration":136462,"SoundDuration":136462,"Delta":350687835},{"NoteNumber":74,"Velocity":63,"Duration":136462,"SoundDuration":136462,"Delta":350687835},{"NoteNumber":77,"Velocity":76,"Duration":136462,"SoundDuration":136462,"Delta":350687835},{"NoteNumber":65,"Velocity":63,"Duration":136462,"SoundDuration":136462,"Delta":350687835},{"NoteNumber":46,"Velocity":43,"Duration":276751,"SoundDuration":276751,"Delta":350687835},{"NoteNumber":53,"Velocity":43,"Duration":276751,"SoundDuration":276751,"Delta":350687835},{"NoteNumber":56,"Velocity":43,"Duration":276751,"SoundDuration":276751,"Delta":350687835},{"NoteNumber":62,"Velocity":51,"Duration":276751,"SoundDuration":276751,"Delta":350687835},{"NoteNumber":78,"Velocity":72,"Duration":140288,"SoundDuration":140288,"Delta":350824298},{"NoteNumber":66,"Velocity":59,"Duration":140288,"SoundDuration":140288,"Delta":350824298},{"NoteNumber":66,"Velocity":63,"Duration":49721,"SoundDuration":49721,"Delta":350964587},{"NoteNumber":54,"Velocity":52,"Duration":49721,"SoundDuration":49721,"Delta":350964587},{"NoteNumber":30,"Velocity":40,"Duration":267975,"SoundDuration":267975,"Delta":350964587},{"NoteNumber":42,"Velocity":47,"Duration":267975,"SoundDuration":267975,"Delta":350964587},{"NoteNumber":54,"Velocity":55,"Duration":50769,"SoundDuration":50769,"Delta":351097178},{"NoteNumber":66,"Velocity":66,"Duration":50769,"SoundDuration":50769,"Delta":351097178},{"NoteNumber":54,"Velocity":57,"Duration":49951,"SoundDuration":49951,"Delta":351232563},{"NoteNumber":66,"Velocity":67,"Duration":49951,"SoundDuration":49951,"Delta":351232563},{"NoteNumber":31,"Velocity":38,"Duration":49951,"SoundDuration":49951,"Delta":351232563},{"NoteNumber":43,"Velocity":44,"Duration":49951,"SoundDuration":49951,"Delta":351232563},{"NoteNumber":66,"Velocity":66,"Duration":52619,"SoundDuration":52619,"Delta":351365766},{"NoteNumber":54,"Velocity":57,"Duration":52619,"SoundDuration":52619,"Delta":351365766},{"NoteNumber":32,"Velocity":35,"Duration":52619,"SoundDuration":52619,"Delta":351365766},{"NoteNumber":44,"Velocity":43,"Duration":52619,"SoundDuration":52619,"Delta":351365766},{"NoteNumber":66,"Velocity":79,"Duration":284791,"SoundDuration":284791,"Delta":351506084},{"NoteNumber":54,"Velocity":68,"Duration":284791,"SoundDuration":284791,"Delta":351506084},{"NoteNumber":33,"Velocity":46,"Duration":284791,"SoundDuration":284791,"Delta":351506084},{"NoteNumber":45,"Velocity":54,"Duration":284791,"SoundDuration":284791,"Delta":351506084},{"NoteNumber":56,"Velocity":72,"Duration":275211,"SoundDuration":275211,"Delta":351790876},{"NoteNumber":62,"Velocity":73,"Duration":275211,"SoundDuration":275211,"Delta":351790876},{"NoteNumber":66,"Velocity":75,"Duration":275211,"SoundDuration":275211,"Delta":351790876},{"NoteNumber":68,"Velocity":87,"Duration":275211,"SoundDuration":275211,"Delta":351790876},{"NoteNumber":35,"Velocity":56,"Duration":275211,"SoundDuration":275211,"Delta":351790876},{"NoteNumber":47,"Velocity":67,"Duration":275211,"SoundDuration":275211,"Delta":351790876},{"NoteNumber":68,"Velocity":63,"Duration":136097,"SoundDuration":136097,"Delta":352066087},{"NoteNumber":78,"Velocity":63,"Duration":136097,"SoundDuration":136097,"Delta":352066087},{"NoteNumber":80,"Velocity":76,"Duration":136097,"SoundDuration":136097,"Delta":352066087},{"NoteNumber":74,"Velocity":63,"Duration":136097,"SoundDuration":136097,"Delta":352066087},{"NoteNumber":48,"Velocity":43,"Duration":272189,"SoundDuration":272189,"Delta":352066087},{"NoteNumber":54,"Velocity":43,"Duration":272189,"SoundDuration":272189,"Delta":352066087},{"NoteNumber":56,"Velocity":43,"Duration":272189,"SoundDuration":272189,"Delta":352066087},{"NoteNumber":62,"Velocity":51,"Duration":272189,"SoundDuration":272189,"Delta":352066087},{"NoteNumber":66,"Velocity":61,"Duration":136091,"SoundDuration":136091,"Delta":352202185},{"NoteNumber":78,"Velocity":74,"Duration":136091,"SoundDuration":136091,"Delta":352202185},{"NoteNumber":68,"Velocity":63,"Duration":136091,"SoundDuration":136091,"Delta":352338276},{"NoteNumber":77,"Velocity":63,"Duration":136091,"SoundDuration":136091,"Delta":352338276},{"NoteNumber":80,"Velocity":76,"Duration":136091,"SoundDuration":136091,"Delta":352338276},{"NoteNumber":73,"Velocity":63,"Duration":136091,"SoundDuration":136091,"Delta":352338276},{"NoteNumber":49,"Velocity":43,"Duration":275599,"SoundDuration":275599,"Delta":352338276},{"NoteNumber":56,"Velocity":43,"Duration":275599,"SoundDuration":275599,"Delta":352338276},{"NoteNumber":59,"Velocity":43,"Duration":275599,"SoundDuration":275599,"Delta":352338276},{"NoteNumber":65,"Velocity":51,"Duration":275599,"SoundDuration":275599,"Delta":352338276},{"NoteNumber":81,"Velocity":72,"Duration":139507,"SoundDuration":139507,"Delta":352474368},{"NoteNumber":69,"Velocity":59,"Duration":139507,"SoundDuration":139507,"Delta":352474368},{"NoteNumber":69,"Velocity":56,"Duration":49383,"SoundDuration":49383,"Delta":352613876},{"NoteNumber":57,"Velocity":47,"Duration":49383,"SoundDuration":49383,"Delta":352613876},{"NoteNumber":33,"Velocity":36,"Duration":265199,"SoundDuration":265199,"Delta":352613876},{"NoteNumber":45,"Velocity":42,"Duration":265199,"SoundDuration":265199,"Delta":352613876},{"NoteNumber":57,"Velocity":51,"Duration":50066,"SoundDuration":50066,"Delta":352745564},{"NoteNumber":69,"Velocity":60,"Duration":50066,"SoundDuration":50066,"Delta":352745564},{"NoteNumber":57,"Velocity":54,"Duration":49383,"SoundDuration":49383,"Delta":352879076},{"NoteNumber":69,"Velocity":64,"Duration":49383,"SoundDuration":49383,"Delta":352879076},{"NoteNumber":35,"Velocity":36,"Duration":49383,"SoundDuration":49383,"Delta":352879076},{"NoteNumber":47,"Velocity":42,"Duration":49383,"SoundDuration":49383,"Delta":352879076},{"NoteNumber":57,"Velocity":57,"Duration":53133,"SoundDuration":53133,"Delta":353010764},{"NoteNumber":69,"Velocity":68,"Duration":53133,"SoundDuration":53133,"Delta":353010764},{"NoteNumber":36,"Velocity":37,"Duration":53133,"SoundDuration":53133,"Delta":353010764},{"NoteNumber":48,"Velocity":45,"Duration":53133,"SoundDuration":53133,"Delta":353010764},{"NoteNumber":69,"Velocity":82,"Duration":279954,"SoundDuration":279954,"Delta":353151306},{"NoteNumber":57,"Velocity":70,"Duration":279954,"SoundDuration":279954,"Delta":353151306},{"NoteNumber":37,"Velocity":47,"Duration":279954,"SoundDuration":279954,"Delta":353151306},{"NoteNumber":49,"Velocity":56,"Duration":279954,"SoundDuration":279954,"Delta":353151306},{"NoteNumber":65,"Velocity":52,"Duration":49836,"SoundDuration":49836,"Delta":353431261},{"NoteNumber":69,"Velocity":52,"Duration":49836,"SoundDuration":49836,"Delta":353431261},{"NoteNumber":71,"Velocity":63,"Duration":49836,"SoundDuration":49836,"Delta":353431261},{"NoteNumber":59,"Velocity":52,"Duration":49836,"SoundDuration":49836,"Delta":353431261},{"NoteNumber":38,"Velocity":40,"Duration":268920,"SoundDuration":268920,"Delta":353431261},{"NoteNumber":50,"Velocity":47,"Duration":268920,"SoundDuration":268920,"Delta":353431261},{"NoteNumber":59,"Velocity":55,"Duration":51008,"SoundDuration":51008,"Delta":353564158},{"NoteNumber":69,"Velocity":55,"Duration":51008,"SoundDuration":51008,"Delta":353564158},{"NoteNumber":65,"Velocity":55,"Duration":51008,"SoundDuration":51008,"Delta":353564158},{"NoteNumber":71,"Velocity":66,"Duration":51008,"SoundDuration":51008,"Delta":353564158},{"NoteNumber":65,"Velocity":60,"Duration":50648,"SoundDuration":50648,"Delta":353700181},{"NoteNumber":59,"Velocity":60,"Duration":50648,"SoundDuration":50648,"Delta":353700181},{"NoteNumber":71,"Velocity":71,"Duration":50648,"SoundDuration":50648,"Delta":353700181},{"NoteNumber":69,"Velocity":60,"Duration":50648,"SoundDuration":50648,"Delta":353700181},{"NoteNumber":39,"Velocity":40,"Duration":50648,"SoundDuration":50648,"Delta":353700181},{"NoteNumber":51,"Velocity":47,"Duration":50648,"SoundDuration":50648,"Delta":353700181},{"NoteNumber":65,"Velocity":61,"Duration":52874,"SoundDuration":52874,"Delta":353835243},{"NoteNumber":69,"Velocity":73,"Duration":52874,"SoundDuration":52874,"Delta":353835243},{"NoteNumber":71,"Velocity":73,"Duration":52874,"SoundDuration":52874,"Delta":353835243},{"NoteNumber":59,"Velocity":61,"Duration":52874,"SoundDuration":52874,"Delta":353835243},{"NoteNumber":40,"Velocity":39,"Duration":52874,"SoundDuration":52874,"Delta":353835243},{"NoteNumber":52,"Velocity":48,"Duration":52874,"SoundDuration":52874,"Delta":353835243},{"NoteNumber":59,"Velocity":68,"Duration":281994,"SoundDuration":281994,"Delta":353976241},{"NoteNumber":65,"Velocity":68,"Duration":281994,"SoundDuration":281994,"Delta":353976241},{"NoteNumber":69,"Velocity":68,"Duration":281994,"SoundDuration":281994,"Delta":353976241},{"NoteNumber":71,"Velocity":81,"Duration":281994,"SoundDuration":281994,"Delta":353976241},{"NoteNumber":41,"Velocity":45,"Duration":281994,"SoundDuration":281994,"Delta":353976241},{"NoteNumber":53,"Velocity":53,"Duration":281994,"SoundDuration":281994,"Delta":353976241},{"NoteNumber":60,"Velocity":53,"Duration":50416,"SoundDuration":50416,"Delta":354258236},{"NoteNumber":63,"Velocity":53,"Duration":50416,"SoundDuration":50416,"Delta":354258236},{"NoteNumber":72,"Velocity":64,"Duration":50416,"SoundDuration":50416,"Delta":354258236},{"NoteNumber":69,"Velocity":53,"Duration":50416,"SoundDuration":50416,"Delta":354258236},{"NoteNumber":42,"Velocity":42,"Duration":270467,"SoundDuration":270467,"Delta":354258236},{"NoteNumber":54,"Velocity":50,"Duration":270467,"SoundDuration":270467,"Delta":354258236},{"NoteNumber":63,"Velocity":56,"Duration":51008,"SoundDuration":51008,"Delta":354392680},{"NoteNumber":60,"Velocity":56,"Duration":51008,"SoundDuration":51008,"Delta":354392680},{"NoteNumber":72,"Velocity":68,"Duration":51008,"SoundDuration":51008,"Delta":354392680},{"NoteNumber":69,"Velocity":56,"Duration":51008,"SoundDuration":51008,"Delta":354392680},{"NoteNumber":63,"Velocity":61,"Duration":50648,"SoundDuration":50648,"Delta":354528704},{"NoteNumber":72,"Velocity":73,"Duration":50648,"SoundDuration":50648,"Delta":354528704},{"NoteNumber":60,"Velocity":61,"Duration":50648,"SoundDuration":50648,"Delta":354528704},{"NoteNumber":43,"Velocity":42,"Duration":50648,"SoundDuration":50648,"Delta":354528704},{"NoteNumber":55,"Velocity":48,"Duration":50648,"SoundDuration":50648,"Delta":354528704},{"NoteNumber":63,"Velocity":64,"Duration":52367,"SoundDuration":52367,"Delta":354663766},{"NoteNumber":60,"Velocity":64,"Duration":52367,"SoundDuration":52367,"Delta":354663766},{"NoteNumber":72,"Velocity":75,"Duration":52367,"SoundDuration":52367,"Delta":354663766},{"NoteNumber":44,"Velocity":39,"Duration":52367,"SoundDuration":52367,"Delta":354663766},{"NoteNumber":56,"Velocity":50,"Duration":52367,"SoundDuration":52367,"Delta":354663766},{"NoteNumber":66,"Velocity":72,"Duration":291970,"SoundDuration":291970,"Delta":354803411},{"NoteNumber":63,"Velocity":72,"Duration":291970,"SoundDuration":291970,"Delta":354803411},{"NoteNumber":72,"Velocity":84,"Duration":291970,"SoundDuration":291970,"Delta":354803411},{"NoteNumber":60,"Velocity":72,"Duration":291970,"SoundDuration":291970,"Delta":354803411},{"NoteNumber":45,"Velocity":48,"Duration":291970,"SoundDuration":291970,"Delta":354803411},{"NoteNumber":57,"Velocity":57,"Duration":291970,"SoundDuration":291970,"Delta":354803411},{"NoteNumber":66,"Velocity":78,"Duration":272690,"SoundDuration":272690,"Delta":355095382},{"NoteNumber":63,"Velocity":78,"Duration":272690,"SoundDuration":272690,"Delta":355095382},{"NoteNumber":69,"Velocity":78,"Duration":272690,"SoundDuration":272690,"Delta":355095382},{"NoteNumber":75,"Velocity":93,"Duration":272690,"SoundDuration":272690,"Delta":355095382},{"NoteNumber":36,"Velocity":53,"Duration":272690,"SoundDuration":272690,"Delta":355095382},{"NoteNumber":48,"Velocity":65,"Duration":272690,"SoundDuration":272690,"Delta":355095382},{"NoteNumber":75,"Velocity":80,"Duration":137312,"SoundDuration":137312,"Delta":355368072},{"NoteNumber":78,"Velocity":80,"Duration":137312,"SoundDuration":137312,"Delta":355368072},{"NoteNumber":81,"Velocity":80,"Duration":137312,"SoundDuration":137312,"Delta":355368072},{"NoteNumber":90,"Velocity":94,"Duration":137312,"SoundDuration":137312,"Delta":355368072},{"NoteNumber":60,"Velocity":51,"Duration":137312,"SoundDuration":137312,"Delta":355368072},{"NoteNumber":66,"Velocity":51,"Duration":137312,"SoundDuration":137312,"Delta":355368072},{"NoteNumber":69,"Velocity":51,"Duration":137312,"SoundDuration":137312,"Delta":355368072},{"NoteNumber":72,"Velocity":61,"Duration":137312,"SoundDuration":137312,"Delta":355368072},{"NoteNumber":74,"Velocity":94,"Duration":278602,"SoundDuration":278602,"Delta":355642697},{"NoteNumber":62,"Velocity":78,"Duration":278602,"SoundDuration":278602,"Delta":355642697},{"NoteNumber":66,"Velocity":78,"Duration":278602,"SoundDuration":278602,"Delta":355642697},{"NoteNumber":47,"Velocity":69,"Duration":278602,"SoundDuration":278602,"Delta":355642697},{"NoteNumber":35,"Velocity":57,"Duration":278602,"SoundDuration":278602,"Delta":355642697},{"NoteNumber":61,"Velocity":74,"Duration":283687,"SoundDuration":283687,"Delta":355921300},{"NoteNumber":66,"Velocity":74,"Duration":283687,"SoundDuration":283687,"Delta":355921300},{"NoteNumber":73,"Velocity":88,"Duration":283687,"SoundDuration":283687,"Delta":355921300},{"NoteNumber":45,"Velocity":49,"Duration":283687,"SoundDuration":283687,"Delta":355921300},{"NoteNumber":49,"Velocity":58,"Duration":283687,"SoundDuration":283687,"Delta":355921300},{"NoteNumber":54,"Velocity":58,"Duration":283687,"SoundDuration":283687,"Delta":355921300},{"NoteNumber":57,"Velocity":58,"Duration":283687,"SoundDuration":283687,"Delta":355921300},{"NoteNumber":78,"Velocity":81,"Duration":144578,"SoundDuration":144578,"Delta":356204988},{"NoteNumber":90,"Velocity":98,"Duration":144578,"SoundDuration":144578,"Delta":356204988},{"NoteNumber":33,"Velocity":54,"Duration":144578,"SoundDuration":144578,"Delta":356204988},{"NoteNumber":45,"Velocity":65,"Duration":144578,"SoundDuration":144578,"Delta":356204988},{"NoteNumber":66,"Velocity":71,"Duration":284359,"SoundDuration":284359,"Delta":356494145},{"NoteNumber":62,"Velocity":71,"Duration":284359,"SoundDuration":284359,"Delta":356494145},{"NoteNumber":74,"Velocity":84,"Duration":284359,"SoundDuration":284359,"Delta":356494145},{"NoteNumber":47,"Velocity":50,"Duration":284359,"SoundDuration":284359,"Delta":356494145},{"NoteNumber":54,"Velocity":50,"Duration":284359,"SoundDuration":284359,"Delta":356494145},{"NoteNumber":59,"Velocity":59,"Duration":284359,"SoundDuration":284359,"Delta":356494145},{"NoteNumber":74,"Velocity":81,"Duration":144927,"SoundDuration":144927,"Delta":356778505},{"NoteNumber":86,"Velocity":98,"Duration":144927,"SoundDuration":144927,"Delta":356778505},{"NoteNumber":35,"Velocity":54,"Duration":144927,"SoundDuration":144927,"Delta":356778505},{"NoteNumber":47,"Velocity":65,"Duration":144927,"SoundDuration":144927,"Delta":356778505},{"NoteNumber":68,"Velocity":71,"Duration":284359,"SoundDuration":284359,"Delta":357068360},{"NoteNumber":66,"Velocity":66,"Duration":284359,"SoundDuration":284359,"Delta":357068360},{"NoteNumber":62,"Velocity":64,"Duration":284359,"SoundDuration":284359,"Delta":357068360},{"NoteNumber":71,"Velocity":84,"Duration":284359,"SoundDuration":284359,"Delta":357068360},{"NoteNumber":56,"Velocity":50,"Duration":284359,"SoundDuration":284359,"Delta":357068360},{"NoteNumber":50,"Velocity":45,"Duration":284359,"SoundDuration":284359,"Delta":357068360},{"NoteNumber":54,"Velocity":47,"Duration":284359,"SoundDuration":284359,"Delta":357068360},{"NoteNumber":59,"Velocity":59,"Duration":284359,"SoundDuration":284359,"Delta":357068360},{"NoteNumber":71,"Velocity":81,"Duration":145278,"SoundDuration":145278,"Delta":357352720},{"NoteNumber":83,"Velocity":98,"Duration":145278,"SoundDuration":145278,"Delta":357352720},{"NoteNumber":38,"Velocity":54,"Duration":145278,"SoundDuration":145278,"Delta":357352720},{"NoteNumber":50,"Velocity":65,"Duration":145278,"SoundDuration":145278,"Delta":357352720},{"NoteNumber":66,"Velocity":71,"Duration":285713,"SoundDuration":285713,"Delta":357643277},{"NoteNumber":61,"Velocity":71,"Duration":285713,"SoundDuration":285713,"Delta":357643277},{"NoteNumber":69,"Velocity":84,"Duration":285713,"SoundDuration":285713,"Delta":357643277},{"NoteNumber":54,"Velocity":50,"Duration":285713,"SoundDuration":285713,"Delta":357643277},{"NoteNumber":49,"Velocity":50,"Duration":285713,"SoundDuration":285713,"Delta":357643277},{"NoteNumber":57,"Velocity":59,"Duration":285713,"SoundDuration":285713,"Delta":357643277},{"NoteNumber":69,"Velocity":80,"Duration":144927,"SoundDuration":144927,"Delta":357928991},{"NoteNumber":81,"Velocity":96,"Duration":144927,"SoundDuration":144927,"Delta":357928991},{"NoteNumber":37,"Velocity":54,"Duration":144927,"SoundDuration":144927,"Delta":357928991},{"NoteNumber":49,"Velocity":65,"Duration":144927,"SoundDuration":144927,"Delta":357928991},{"NoteNumber":66,"Velocity":71,"Duration":285035,"SoundDuration":285035,"Delta":358218846},{"NoteNumber":61,"Velocity":71,"Duration":285035,"SoundDuration":285035,"Delta":358218846},{"NoteNumber":68,"Velocity":84,"Duration":285035,"SoundDuration":285035,"Delta":358218846},{"NoteNumber":54,"Velocity":50,"Duration":285035,"SoundDuration":285035,"Delta":358218846},{"NoteNumber":49,"Velocity":50,"Duration":285035,"SoundDuration":285035,"Delta":358218846},{"NoteNumber":56,"Velocity":59,"Duration":285035,"SoundDuration":285035,"Delta":358218846},{"NoteNumber":68,"Velocity":78,"Duration":144927,"SoundDuration":144927,"Delta":358503882},{"NoteNumber":80,"Velocity":94,"Duration":144927,"SoundDuration":144927,"Delta":358503882},{"NoteNumber":37,"Velocity":54,"Duration":144927,"SoundDuration":144927,"Delta":358503882},{"NoteNumber":49,"Velocity":65,"Duration":144927,"SoundDuration":144927,"Delta":358503882},{"NoteNumber":65,"Velocity":67,"Duration":295567,"SoundDuration":295567,"Delta":358793737},{"NoteNumber":61,"Velocity":67,"Duration":295567,"SoundDuration":295567,"Delta":358793737},{"NoteNumber":68,"Velocity":79,"Duration":295567,"SoundDuration":295567,"Delta":358793737},{"NoteNumber":56,"Velocity":47,"Duration":295567,"SoundDuration":295567,"Delta":358793737},{"NoteNumber":49,"Velocity":47,"Duration":295567,"SoundDuration":295567,"Delta":358793737},{"NoteNumber":59,"Velocity":56,"Duration":295567,"SoundDuration":295567,"Delta":358793737},{"NoteNumber":85,"Velocity":80,"Duration":144230,"SoundDuration":144230,"Delta":359089304},{"NoteNumber":80,"Velocity":67,"Duration":144230,"SoundDuration":144230,"Delta":359089304},{"NoteNumber":73,"Velocity":63,"Duration":144230,"SoundDuration":144230,"Delta":359089304},{"NoteNumber":61,"Velocity":40,"Duration":144230,"SoundDuration":144230,"Delta":359089304},{"NoteNumber":65,"Velocity":46,"Duration":144230,"SoundDuration":144230,"Delta":359089304},{"NoteNumber":71,"Velocity":55,"Duration":144230,"SoundDuration":144230,"Delta":359089304},{"NoteNumber":73,"Velocity":63,"Duration":289156,"SoundDuration":289156,"Delta":359377766},{"NoteNumber":80,"Velocity":67,"Duration":289156,"SoundDuration":289156,"Delta":359377766},{"NoteNumber":85,"Velocity":82,"Duration":289156,"SoundDuration":289156,"Delta":359377766},{"NoteNumber":61,"Velocity":46,"Duration":253012,"SoundDuration":253012,"Delta":359377766},{"NoteNumber":65,"Velocity":50,"Duration":253012,"SoundDuration":253012,"Delta":359377766},{"NoteNumber":71,"Velocity":59,"Duration":253012,"SoundDuration":253012,"Delta":359377766},{"NoteNumber":54,"Velocity":42,"Duration":328115,"SoundDuration":328115,"Delta":359630778},{"NoteNumber":61,"Velocity":44,"Duration":310043,"SoundDuration":310043,"Delta":359648851},{"NoteNumber":90,"Velocity":74,"Duration":291970,"SoundDuration":291970,"Delta":359666923},{"NoteNumber":78,"Velocity":64,"Duration":291970,"SoundDuration":291970,"Delta":359666923},{"NoteNumber":69,"Velocity":51,"Duration":291970,"SoundDuration":291970,"Delta":359666923},{"NoteNumber":73,"Velocity":46,"Duration":147059,"SoundDuration":147059,"Delta":359958894},{"NoteNumber":68,"Velocity":38,"Duration":147059,"SoundDuration":147059,"Delta":359958894},{"NoteNumber":61,"Velocity":29,"Duration":147059,"SoundDuration":147059,"Delta":359958894},{"NoteNumber":49,"Velocity":19,"Duration":147059,"SoundDuration":147059,"Delta":359958894},{"NoteNumber":53,"Velocity":26,"Duration":147059,"SoundDuration":147059,"Delta":359958894},{"NoteNumber":59,"Velocity":30,"Duration":147059,"SoundDuration":147059,"Delta":359958894},{"NoteNumber":61,"Velocity":30,"Duration":292070,"SoundDuration":292070,"Delta":360253012},{"NoteNumber":68,"Velocity":40,"Duration":292070,"SoundDuration":292070,"Delta":360253012},{"NoteNumber":73,"Velocity":46,"Duration":292070,"SoundDuration":292070,"Delta":360253012},{"NoteNumber":49,"Velocity":21,"Duration":255561,"SoundDuration":255561,"Delta":360253012},{"NoteNumber":53,"Velocity":28,"Duration":255561,"SoundDuration":255561,"Delta":360253012},{"NoteNumber":59,"Velocity":33,"Duration":255561,"SoundDuration":255561,"Delta":360253012},{"NoteNumber":42,"Velocity":25,"Duration":329191,"SoundDuration":329191,"Delta":360508573},{"NoteNumber":49,"Velocity":25,"Duration":310937,"SoundDuration":310937,"Delta":360526828},{"NoteNumber":78,"Velocity":43,"Duration":292683,"SoundDuration":292683,"Delta":360545082},{"NoteNumber":66,"Velocity":37,"Duration":292683,"SoundDuration":292683,"Delta":360545082},{"NoteNumber":57,"Velocity":30,"Duration":292683,"SoundDuration":292683,"Delta":360545082},{"NoteNumber":73,"Velocity":42,"Duration":298506,"SoundDuration":298506,"Delta":360837765},{"NoteNumber":68,"Velocity":31,"Duration":298506,"SoundDuration":298506,"Delta":360837765},{"NoteNumber":61,"Velocity":27,"Duration":298506,"SoundDuration":298506,"Delta":360837765},{"NoteNumber":49,"Velocity":17,"Duration":298506,"SoundDuration":298506,"Delta":360837765},{"NoteNumber":53,"Velocity":21,"Duration":298506,"SoundDuration":298506,"Delta":360837765},{"NoteNumber":59,"Velocity":25,"Duration":298506,"SoundDuration":298506,"Delta":360837765},{"NoteNumber":61,"Velocity":35,"Duration":294118,"SoundDuration":294118,"Delta":361136272},{"NoteNumber":73,"Velocity":46,"Duration":294118,"SoundDuration":294118,"Delta":361136272},{"NoteNumber":49,"Velocity":24,"Duration":294118,"SoundDuration":294118,"Delta":361136272},{"NoteNumber":54,"Velocity":28,"Duration":294118,"SoundDuration":294118,"Delta":361136272},{"NoteNumber":57,"Velocity":33,"Duration":294118,"SoundDuration":294118,"Delta":361136272},{"NoteNumber":78,"Velocity":43,"Duration":299252,"SoundDuration":299252,"Delta":361430390},{"NoteNumber":66,"Velocity":34,"Duration":299252,"SoundDuration":299252,"Delta":361430390},{"NoteNumber":42,"Velocity":25,"Duration":299252,"SoundDuration":299252,"Delta":361430390},{"NoteNumber":73,"Velocity":39,"Duration":297767,"SoundDuration":297767,"Delta":361729642},{"NoteNumber":68,"Velocity":29,"Duration":297767,"SoundDuration":297767,"Delta":361729642},{"NoteNumber":61,"Velocity":25,"Duration":297767,"SoundDuration":297767,"Delta":361729642},{"NoteNumber":49,"Velocity":17,"Duration":297767,"SoundDuration":297767,"Delta":361729642},{"NoteNumber":53,"Velocity":20,"Duration":297767,"SoundDuration":297767,"Delta":361729642},{"NoteNumber":59,"Velocity":23,"Duration":297767,"SoundDuration":297767,"Delta":361729642},{"NoteNumber":61,"Velocity":32,"Duration":294840,"SoundDuration":294840,"Delta":362027409},{"NoteNumber":73,"Velocity":43,"Duration":294840,"SoundDuration":294840,"Delta":362027409},{"NoteNumber":49,"Velocity":21,"Duration":294840,"SoundDuration":294840,"Delta":362027409},{"NoteNumber":54,"Velocity":26,"Duration":294840,"SoundDuration":294840,"Delta":362027409},{"NoteNumber":57,"Velocity":30,"Duration":294840,"SoundDuration":294840,"Delta":362027409},{"NoteNumber":78,"Velocity":40,"Duration":299252,"SoundDuration":299252,"Delta":362322249},{"NoteNumber":66,"Velocity":31,"Duration":299252,"SoundDuration":299252,"Delta":362322249},{"NoteNumber":42,"Velocity":22,"Duration":299252,"SoundDuration":299252,"Delta":362322249},{"NoteNumber":73,"Velocity":36,"Duration":306122,"SoundDuration":306122,"Delta":362621501},{"NoteNumber":68,"Velocity":27,"Duration":306122,"SoundDuration":306122,"Delta":362621501},{"NoteNumber":61,"Velocity":23,"Duration":306122,"SoundDuration":306122,"Delta":362621501},{"NoteNumber":49,"Velocity":15,"Duration":306122,"SoundDuration":306122,"Delta":362621501},{"NoteNumber":53,"Velocity":18,"Duration":306122,"SoundDuration":306122,"Delta":362621501},{"NoteNumber":59,"Velocity":21,"Duration":306122,"SoundDuration":306122,"Delta":362621501},{"NoteNumber":61,"Velocity":29,"Duration":299252,"SoundDuration":299252,"Delta":362927623},{"NoteNumber":73,"Velocity":39,"Duration":299252,"SoundDuration":299252,"Delta":362927623},{"NoteNumber":49,"Velocity":19,"Duration":299252,"SoundDuration":299252,"Delta":362927623},{"NoteNumber":54,"Velocity":24,"Duration":299252,"SoundDuration":299252,"Delta":362927623},{"NoteNumber":58,"Velocity":27,"Duration":299252,"SoundDuration":299252,"Delta":362927623},{"NoteNumber":78,"Velocity":37,"Duration":302266,"SoundDuration":302266,"Delta":363226875},{"NoteNumber":66,"Velocity":29,"Duration":302266,"SoundDuration":302266,"Delta":363226875},{"NoteNumber":42,"Velocity":21,"Duration":302266,"SoundDuration":302266,"Delta":363226875},{"NoteNumber":73,"Velocity":33,"Duration":304569,"SoundDuration":304569,"Delta":363529142},{"NoteNumber":68,"Velocity":26,"Duration":304569,"SoundDuration":304569,"Delta":363529142},{"NoteNumber":61,"Velocity":21,"Duration":304569,"SoundDuration":304569,"Delta":363529142},{"NoteNumber":49,"Velocity":14,"Duration":304569,"SoundDuration":304569,"Delta":363529142},{"NoteNumber":53,"Velocity":17,"Duration":304569,"SoundDuration":304569,"Delta":363529142},{"NoteNumber":59,"Velocity":20,"Duration":304569,"SoundDuration":304569,"Delta":363529142},{"NoteNumber":61,"Velocity":27,"Duration":300000,"SoundDuration":300000,"Delta":363833711},{"NoteNumber":73,"Velocity":37,"Duration":300000,"SoundDuration":300000,"Delta":363833711},{"NoteNumber":49,"Velocity":18,"Duration":300000,"SoundDuration":300000,"Delta":363833711},{"NoteNumber":54,"Velocity":23,"Duration":300000,"SoundDuration":300000,"Delta":363833711},{"NoteNumber":58,"Velocity":26,"Duration":300000,"SoundDuration":300000,"Delta":363833711},{"NoteNumber":78,"Velocity":35,"Duration":302953,"SoundDuration":302953,"Delta":364133711},{"NoteNumber":66,"Velocity":27,"Duration":302953,"SoundDuration":302953,"Delta":364133711},{"NoteNumber":42,"Velocity":19,"Duration":302953,"SoundDuration":302953,"Delta":364133711},{"NoteNumber":73,"Velocity":32,"Duration":307929,"SoundDuration":307929,"Delta":364436665},{"NoteNumber":68,"Velocity":24,"Duration":307929,"SoundDuration":307929,"Delta":364436665},{"NoteNumber":61,"Velocity":20,"Duration":307929,"SoundDuration":307929,"Delta":364436665},{"NoteNumber":49,"Velocity":13,"Duration":307929,"SoundDuration":307929,"Delta":364436665},{"NoteNumber":53,"Velocity":16,"Duration":307929,"SoundDuration":307929,"Delta":364436665},{"NoteNumber":59,"Velocity":19,"Duration":307929,"SoundDuration":307929,"Delta":364436665},{"NoteNumber":61,"Velocity":27,"Duration":313070,"SoundDuration":313070,"Delta":364744594},{"NoteNumber":73,"Velocity":35,"Duration":313070,"SoundDuration":313070,"Delta":364744594},{"NoteNumber":49,"Velocity":17,"Duration":313070,"SoundDuration":313070,"Delta":364744594},{"NoteNumber":54,"Velocity":21,"Duration":313070,"SoundDuration":313070,"Delta":364744594},{"NoteNumber":58,"Velocity":25,"Duration":313070,"SoundDuration":313070,"Delta":364744594},{"NoteNumber":78,"Velocity":33,"Duration":317041,"SoundDuration":317041,"Delta":365057665},{"NoteNumber":66,"Velocity":27,"Duration":317041,"SoundDuration":317041,"Delta":365057665},{"NoteNumber":42,"Velocity":18,"Duration":317041,"SoundDuration":317041,"Delta":365057665},{"NoteNumber":73,"Velocity":30,"Duration":323887,"SoundDuration":323887,"Delta":365374706},{"NoteNumber":68,"Velocity":23,"Duration":323887,"SoundDuration":323887,"Delta":365374706},{"NoteNumber":61,"Velocity":19,"Duration":323887,"SoundDuration":323887,"Delta":365374706},{"NoteNumber":49,"Velocity":13,"Duration":323887,"SoundDuration":323887,"Delta":365374706},{"NoteNumber":53,"Velocity":15,"Duration":323887,"SoundDuration":323887,"Delta":365374706},{"NoteNumber":59,"Velocity":17,"Duration":323887,"SoundDuration":323887,"Delta":365374706},{"NoteNumber":61,"Velocity":25,"Duration":326707,"SoundDuration":326707,"Delta":365698593},{"NoteNumber":73,"Velocity":33,"Duration":326707,"SoundDuration":326707,"Delta":365698593},{"NoteNumber":49,"Velocity":16,"Duration":326707,"SoundDuration":326707,"Delta":365698593},{"NoteNumber":54,"Velocity":20,"Duration":326707,"SoundDuration":326707,"Delta":365698593},{"NoteNumber":58,"Velocity":24,"Duration":326707,"SoundDuration":326707,"Delta":365698593},{"NoteNumber":78,"Velocity":31,"Duration":341588,"SoundDuration":341588,"Delta":366025301},{"NoteNumber":66,"Velocity":25,"Duration":341588,"SoundDuration":341588,"Delta":366025301},{"NoteNumber":42,"Velocity":17,"Duration":341588,"SoundDuration":341588,"Delta":366025301},{"NoteNumber":61,"Velocity":19,"Duration":341588,"SoundDuration":341588,"Delta":366366889},{"NoteNumber":68,"Velocity":23,"Duration":341588,"SoundDuration":341588,"Delta":366366889},{"NoteNumber":73,"Velocity":30,"Duration":341588,"SoundDuration":341588,"Delta":366366889},{"NoteNumber":49,"Velocity":13,"Duration":341588,"SoundDuration":341588,"Delta":366366889},{"NoteNumber":53,"Velocity":15,"Duration":341588,"SoundDuration":341588,"Delta":366366889},{"NoteNumber":59,"Velocity":17,"Duration":341588,"SoundDuration":341588,"Delta":366366889},{"NoteNumber":70,"Velocity":51,"Duration":564069,"SoundDuration":564069,"Delta":366708477},{"NoteNumber":42,"Velocity":32,"Duration":564069,"SoundDuration":564069,"Delta":366708477},{"NoteNumber":65,"Velocity":42,"Duration":551623,"SoundDuration":551623,"Delta":367272546},{"NoteNumber":58,"Velocity":23,"Duration":551623,"SoundDuration":551623,"Delta":367272546},{"NoteNumber":63,"Velocity":20,"Duration":551623,"SoundDuration":551623,"Delta":367272546},{"NoteNumber":54,"Velocity":17,"Duration":551623,"SoundDuration":551623,"Delta":367272546},{"NoteNumber":49,"Velocity":17,"Duration":551623,"SoundDuration":551623,"Delta":367272546},{"NoteNumber":66,"Velocity":46,"Duration":577089,"SoundDuration":577089,"Delta":367824169},{"NoteNumber":58,"Velocity":23,"Duration":577089,"SoundDuration":577089,"Delta":367824169},{"NoteNumber":49,"Velocity":14,"Duration":577089,"SoundDuration":577089,"Delta":367824169},{"NoteNumber":54,"Velocity":14,"Duration":577089,"SoundDuration":577089,"Delta":367824169},{"NoteNumber":61,"Velocity":17,"Duration":577089,"SoundDuration":577089,"Delta":367824169},{"NoteNumber":75,"Velocity":51,"Duration":1068239,"SoundDuration":1068239,"Delta":368401259},{"NoteNumber":49,"Velocity":16,"Duration":524612,"SoundDuration":524612,"Delta":368401259},{"NoteNumber":54,"Velocity":16,"Duration":524612,"SoundDuration":524612,"Delta":368401259},{"NoteNumber":61,"Velocity":20,"Duration":524612,"SoundDuration":524612,"Delta":368401259},{"NoteNumber":58,"Velocity":17,"Duration":543626,"SoundDuration":543626,"Delta":368925872},{"NoteNumber":66,"Velocity":22,"Duration":543626,"SoundDuration":543626,"Delta":368925872},{"NoteNumber":63,"Velocity":16,"Duration":543626,"SoundDuration":543626,"Delta":368925872},{"NoteNumber":49,"Velocity":10,"Duration":543626,"SoundDuration":543626,"Delta":368925872},{"NoteNumber":54,"Velocity":14,"Duration":543626,"SoundDuration":543626,"Delta":368925872},{"NoteNumber":73,"Velocity":47,"Duration":564069,"SoundDuration":564069,"Delta":369469498},{"NoteNumber":58,"Velocity":17,"Duration":564069,"SoundDuration":564069,"Delta":369469498},{"NoteNumber":66,"Velocity":22,"Duration":564069,"SoundDuration":564069,"Delta":369469498},{"NoteNumber":49,"Velocity":12,"Duration":564069,"SoundDuration":564069,"Delta":369469498},{"NoteNumber":54,"Velocity":12,"Duration":564069,"SoundDuration":564069,"Delta":369469498},{"NoteNumber":61,"Velocity":15,"Duration":564069,"SoundDuration":564069,"Delta":369469498},{"NoteNumber":73,"Velocity":47,"Duration":539714,"SoundDuration":539714,"Delta":370033567},{"NoteNumber":49,"Velocity":16,"Duration":539714,"SoundDuration":539714,"Delta":370033567},{"NoteNumber":54,"Velocity":16,"Duration":539714,"SoundDuration":539714,"Delta":370033567},{"NoteNumber":61,"Velocity":20,"Duration":539714,"SoundDuration":539714,"Delta":370033567},{"NoteNumber":66,"Velocity":38,"Duration":555709,"SoundDuration":555709,"Delta":370573281},{"NoteNumber":59,"Velocity":20,"Duration":555709,"SoundDuration":555709,"Delta":370573281},{"NoteNumber":63,"Velocity":19,"Duration":555709,"SoundDuration":555709,"Delta":370573281},{"NoteNumber":54,"Velocity":16,"Duration":555709,"SoundDuration":555709,"Delta":370573281},{"NoteNumber":49,"Velocity":16,"Duration":555709,"SoundDuration":555709,"Delta":370573281},{"NoteNumber":68,"Velocity":38,"Duration":600180,"SoundDuration":600180,"Delta":371128991},{"NoteNumber":65,"Velocity":23,"Duration":600180,"SoundDuration":600180,"Delta":371128991},{"NoteNumber":59,"Velocity":19,"Duration":600180,"SoundDuration":600180,"Delta":371128991},{"NoteNumber":49,"Velocity":13,"Duration":600180,"SoundDuration":600180,"Delta":371128991},{"NoteNumber":54,"Velocity":13,"Duration":600180,"SoundDuration":600180,"Delta":371128991},{"NoteNumber":61,"Velocity":16,"Duration":600180,"SoundDuration":600180,"Delta":371128991},{"NoteNumber":70,"Velocity":49,"Duration":3928612,"SoundDuration":3928612,"Delta":371729171},{"NoteNumber":49,"Velocity":16,"Duration":572682,"SoundDuration":572682,"Delta":371729171},{"NoteNumber":54,"Velocity":16,"Duration":572682,"SoundDuration":572682,"Delta":371729171},{"NoteNumber":61,"Velocity":20,"Duration":572682,"SoundDuration":572682,"Delta":371729171},{"NoteNumber":58,"Velocity":20,"Duration":547595,"SoundDuration":547595,"Delta":372301854},{"NoteNumber":66,"Velocity":24,"Duration":547595,"SoundDuration":547595,"Delta":372301854},{"NoteNumber":63,"Velocity":19,"Duration":547595,"SoundDuration":547595,"Delta":372301854},{"NoteNumber":49,"Velocity":16,"Duration":547595,"SoundDuration":547595,"Delta":372301854},{"NoteNumber":54,"Velocity":16,"Duration":547595,"SoundDuration":547595,"Delta":372301854},{"NoteNumber":58,"Velocity":20,"Duration":568343,"SoundDuration":568343,"Delta":372849449},{"NoteNumber":66,"Velocity":24,"Duration":568343,"SoundDuration":568343,"Delta":372849449},{"NoteNumber":49,"Velocity":13,"Duration":568343,"SoundDuration":568343,"Delta":372849449},{"NoteNumber":54,"Velocity":13,"Duration":568343,"SoundDuration":568343,"Delta":372849449},{"NoteNumber":61,"Velocity":16,"Duration":568343,"SoundDuration":568343,"Delta":372849449},{"NoteNumber":58,"Velocity":19,"Duration":568343,"SoundDuration":568343,"Delta":373417792},{"NoteNumber":66,"Velocity":23,"Duration":568343,"SoundDuration":568343,"Delta":373417792},{"NoteNumber":49,"Velocity":16,"Duration":568343,"SoundDuration":568343,"Delta":373417792},{"NoteNumber":54,"Velocity":16,"Duration":568343,"SoundDuration":568343,"Delta":373417792},{"NoteNumber":61,"Velocity":19,"Duration":568343,"SoundDuration":568343,"Delta":373417792},{"NoteNumber":61,"Velocity":18,"Duration":555709,"SoundDuration":555709,"Delta":373986135},{"NoteNumber":66,"Velocity":22,"Duration":555709,"SoundDuration":555709,"Delta":373986135},{"NoteNumber":49,"Velocity":14,"Duration":555709,"SoundDuration":555709,"Delta":373986135},{"NoteNumber":54,"Velocity":14,"Duration":555709,"SoundDuration":555709,"Delta":373986135},{"NoteNumber":59,"Velocity":17,"Duration":555709,"SoundDuration":555709,"Delta":373986135},{"NoteNumber":61,"Velocity":18,"Duration":568343,"SoundDuration":568343,"Delta":374541845},{"NoteNumber":66,"Velocity":22,"Duration":568343,"SoundDuration":568343,"Delta":374541845},{"NoteNumber":49,"Velocity":15,"Duration":568343,"SoundDuration":568343,"Delta":374541845},{"NoteNumber":54,"Velocity":15,"Duration":568343,"SoundDuration":568343,"Delta":374541845},{"NoteNumber":58,"Velocity":18,"Duration":568343,"SoundDuration":568343,"Delta":374541845},{"NoteNumber":61,"Velocity":19,"Duration":547595,"SoundDuration":547595,"Delta":375110188},{"NoteNumber":66,"Velocity":23,"Duration":547595,"SoundDuration":547595,"Delta":375110188},{"NoteNumber":49,"Velocity":15,"Duration":547595,"SoundDuration":547595,"Delta":375110188},{"NoteNumber":54,"Velocity":15,"Duration":547595,"SoundDuration":547595,"Delta":375110188},{"NoteNumber":58,"Velocity":18,"Duration":547595,"SoundDuration":547595,"Delta":375110188},{"NoteNumber":56,"Velocity":18,"Duration":547595,"SoundDuration":547595,"Delta":375657783},{"NoteNumber":61,"Velocity":22,"Duration":547595,"SoundDuration":547595,"Delta":375657783},{"NoteNumber":47,"Velocity":17,"Duration":547595,"SoundDuration":547595,"Delta":375657783},{"NoteNumber":49,"Velocity":21,"Duration":547595,"SoundDuration":547595,"Delta":375657783},{"NoteNumber":54,"Velocity":18,"Duration":559858,"SoundDuration":559858,"Delta":376205378},{"NoteNumber":61,"Velocity":22,"Duration":559858,"SoundDuration":559858,"Delta":376205378},{"NoteNumber":46,"Velocity":17,"Duration":559858,"SoundDuration":559858,"Delta":376205378},{"NoteNumber":49,"Velocity":21,"Duration":559858,"SoundDuration":559858,"Delta":376205378},{"NoteNumber":54,"Velocity":19,"Duration":547595,"SoundDuration":547595,"Delta":376765236},{"NoteNumber":61,"Velocity":23,"Duration":547595,"SoundDuration":547595,"Delta":376765236},{"NoteNumber":46,"Velocity":17,"Duration":547595,"SoundDuration":547595,"Delta":376765236},{"NoteNumber":49,"Velocity":21,"Duration":547595,"SoundDuration":547595,"Delta":376765236},{"NoteNumber":56,"Velocity":18,"Duration":543626,"SoundDuration":543626,"Delta":377312831},{"NoteNumber":61,"Velocity":22,"Duration":543626,"SoundDuration":543626,"Delta":377312831},{"NoteNumber":47,"Velocity":17,"Duration":543626,"SoundDuration":543626,"Delta":377312831},{"NoteNumber":49,"Velocity":21,"Duration":543626,"SoundDuration":543626,"Delta":377312831},{"NoteNumber":54,"Velocity":18,"Duration":543625,"SoundDuration":543625,"Delta":377856457},{"NoteNumber":61,"Velocity":22,"Duration":543625,"SoundDuration":543625,"Delta":377856457},{"NoteNumber":46,"Velocity":17,"Duration":543625,"SoundDuration":543625,"Delta":377856457},{"NoteNumber":49,"Velocity":21,"Duration":543625,"SoundDuration":543625,"Delta":377856457},{"NoteNumber":54,"Velocity":19,"Duration":555709,"SoundDuration":555709,"Delta":378400083},{"NoteNumber":61,"Velocity":23,"Duration":555709,"SoundDuration":555709,"Delta":378400083},{"NoteNumber":46,"Velocity":16,"Duration":555709,"SoundDuration":555709,"Delta":378400083},{"NoteNumber":49,"Velocity":20,"Duration":555709,"SoundDuration":555709,"Delta":378400083},{"NoteNumber":56,"Velocity":18,"Duration":551623,"SoundDuration":551623,"Delta":378955793},{"NoteNumber":61,"Velocity":22,"Duration":551623,"SoundDuration":551623,"Delta":378955793},{"NoteNumber":47,"Velocity":16,"Duration":551623,"SoundDuration":551623,"Delta":378955793},{"NoteNumber":49,"Velocity":20,"Duration":551623,"SoundDuration":551623,"Delta":378955793},{"NoteNumber":54,"Velocity":19,"Duration":590726,"SoundDuration":590726,"Delta":379507416},{"NoteNumber":61,"Velocity":23,"Duration":590726,"SoundDuration":590726,"Delta":379507416},{"NoteNumber":46,"Velocity":15,"Duration":1176835,"SoundDuration":1176835,"Delta":379507416},{"NoteNumber":49,"Velocity":18,"Duration":1176835,"SoundDuration":1176835,"Delta":379507416},{"NoteNumber":54,"Velocity":19,"Duration":586109,"SoundDuration":586109,"Delta":380098142},{"NoteNumber":61,"Velocity":23,"Duration":586109,"SoundDuration":586109,"Delta":380098142},{"NoteNumber":32,"Velocity":17,"Duration":564069,"SoundDuration":564069,"Delta":380684251},{"NoteNumber":44,"Velocity":20,"Duration":564069,"SoundDuration":564069,"Delta":380684251},{"NoteNumber":30,"Velocity":17,"Duration":600180,"SoundDuration":600180,"Delta":381248320},{"NoteNumber":42,"Velocity":20,"Duration":600180,"SoundDuration":600180,"Delta":381248320},{"NoteNumber":30,"Velocity":17,"Duration":630450,"SoundDuration":630450,"Delta":381848500},{"NoteNumber":42,"Velocity":20,"Duration":630450,"SoundDuration":630450,"Delta":381848500},{"NoteNumber":32,"Velocity":17,"Duration":600180,"SoundDuration":600180,"Delta":382478951},{"NoteNumber":44,"Velocity":20,"Duration":600180,"SoundDuration":600180,"Delta":382478951},{"NoteNumber":30,"Velocity":17,"Duration":728421,"SoundDuration":728421,"Delta":383079131},{"NoteNumber":42,"Velocity":20,"Duration":728421,"SoundDuration":728421,"Delta":383079131},{"NoteNumber":54,"Velocity":23,"Duration":8497332,"SoundDuration":8497332,"Delta":383807552},{"NoteNumber":61,"Velocity":23,"Duration":8497332,"SoundDuration":8497332,"Delta":383807552},{"NoteNumber":66,"Velocity":23,"Duration":8497332,"SoundDuration":8497332,"Delta":383807552},{"NoteNumber":70,"Velocity":23,"Duration":8497332,"SoundDuration":8497332,"Delta":383807552},{"NoteNumber":25,"Velocity":16,"Duration":164527,"SoundDuration":164527,"Delta":385781885},{"NoteNumber":37,"Velocity":20,"Duration":164527,"SoundDuration":164527,"Delta":385781885},{"NoteNumber":30,"Velocity":16,"Duration":164527,"SoundDuration":164527,"Delta":387756218},{"NoteNumber":42,"Velocity":20,"Duration":164527,"SoundDuration":164527,"Delta":387756218}],"license":{"name":"Creative Commons Attribution-ShareAlike 3.0 Germany","url":"http://creativecommons.org/licenses/by-sa/3.0/de/deed.en","text":"The MIDI, audio (MP3, OGG) and video files of Bernd Krueger are licensed under the cc-by-sa Germany License. This means that you can use and adapt the files, as long as you attribute the copyright holder.\n\nName: Bernd Krueger\nSource: http://www.piano-midi.de\n\nThe distribution or public playback of the files is only allowed under identical license conditions.\n\nThe scores are open source.","attribution":"MIDI files by Bernd Krueger (piano-midi.de)","attributionUrl":"http://www.piano-midi.de"}}