{"title":"Sonate opus 35, 1. Satz","artist":"Chopin","durationMs":392316,"midiSha256":"6a740ed7014db010c289cfc6945401f8173dc2573bae1ba2d4a6c6cc60127081","midiObject":[{"NoteNumber":37,"Velocity":76,"Duration":2625000,"SoundDuration":2625000,"Delta":0},{"NoteNumber":49,"Velocity":90,"Duration":2625000,"SoundDuration":2625000,"Delta":0},{"NoteNumber":28,"Velocity":76,"Duration":451127,"SoundDuration":451127,"Delta":2625000},{"NoteNumber":40,"Velocity":90,"Duration":451127,"SoundDuration":451127,"Delta":2625000},{"NoteNumber":28,"Velocity":76,"Duration":3178808,"SoundDuration":3178808,"Delta":3076127},{"NoteNumber":40,"Velocity":90,"Duration":3178808,"SoundDuration":3178808,"Delta":3076127},{"NoteNumber":49,"Velocity":76,"Duration":1589404,"SoundDuration":1589404,"Delta":4665532},{"NoteNumber":61,"Velocity":90,"Duration":1589404,"SoundDuration":1589404,"Delta":4665532},{"NoteNumber":56,"Velocity":76,"Duration":1589404,"SoundDuration":1589404,"Delta":4665532},{"NoteNumber":49,"Velocity":72,"Duration":185578,"SoundDuration":185578,"Delta":6254936},{"NoteNumber":49,"Velocity":65,"Duration":3112875,"SoundDuration":3112875,"Delta":6440514},{"NoteNumber":51,"Velocity":79,"Duration":5920965,"SoundDuration":5920965,"Delta":6632424},{"NoteNumber":57,"Velocity":81,"Duration":5722266,"SoundDuration":5722266,"Delta":6831122},{"NoteNumber":29,"Velocity":85,"Duration":5517483,"SoundDuration":5517483,"Delta":7035906},{"NoteNumber":41,"Velocity":85,"Duration":5517483,"SoundDuration":5517483,"Delta":7035906},{"NoteNumber":61,"Velocity":85,"Duration":2517483,"SoundDuration":2517483,"Delta":7035906},{"NoteNumber":48,"Velocity":64,"Duration":3000000,"SoundDuration":3000000,"Delta":9553389},{"NoteNumber":60,"Velocity":64,"Duration":3000000,"SoundDuration":3000000,"Delta":9553389},{"NoteNumber":34,"Velocity":44,"Duration":125208,"SoundDuration":125208,"Delta":12553389},{"NoteNumber":46,"Velocity":52,"Duration":125208,"SoundDuration":125208,"Delta":12553389},{"NoteNumber":53,"Velocity":29,"Duration":125208,"SoundDuration":125208,"Delta":12678598},{"NoteNumber":49,"Velocity":22,"Duration":125007,"SoundDuration":125007,"Delta":12803807},{"NoteNumber":61,"Velocity":26,"Duration":125007,"SoundDuration":125007,"Delta":12803807},{"NoteNumber":58,"Velocity":22,"Duration":125007,"SoundDuration":125007,"Delta":12803807},{"NoteNumber":41,"Velocity":33,"Duration":124605,"SoundDuration":124605,"Delta":12928814},{"NoteNumber":34,"Velocity":25,"Duration":124605,"SoundDuration":124605,"Delta":13053420},{"NoteNumber":46,"Velocity":29,"Duration":124605,"SoundDuration":124605,"Delta":13053420},{"NoteNumber":53,"Velocity":29,"Duration":124213,"SoundDuration":124213,"Delta":13178025},{"NoteNumber":49,"Velocity":23,"Duration":124018,"SoundDuration":124018,"Delta":13302239},{"NoteNumber":61,"Velocity":27,"Duration":124018,"SoundDuration":124018,"Delta":13302239},{"NoteNumber":58,"Velocity":23,"Duration":124018,"SoundDuration":124018,"Delta":13302239},{"NoteNumber":41,"Velocity":35,"Duration":124018,"SoundDuration":124018,"Delta":13426257},{"NoteNumber":34,"Velocity":27,"Duration":123436,"SoundDuration":123436,"Delta":13550276},{"NoteNumber":46,"Velocity":33,"Duration":123436,"SoundDuration":123436,"Delta":13550276},{"NoteNumber":53,"Velocity":30,"Duration":123436,"SoundDuration":123436,"Delta":13673712},{"NoteNumber":49,"Velocity":24,"Duration":123244,"SoundDuration":123244,"Delta":13797149},{"NoteNumber":61,"Velocity":29,"Duration":123244,"SoundDuration":123244,"Delta":13797149},{"NoteNumber":58,"Velocity":24,"Duration":123244,"SoundDuration":123244,"Delta":13797149},{"NoteNumber":41,"Velocity":35,"Duration":122860,"SoundDuration":122860,"Delta":13920393},{"NoteNumber":34,"Velocity":28,"Duration":122860,"SoundDuration":122860,"Delta":14043253},{"NoteNumber":46,"Velocity":34,"Duration":122860,"SoundDuration":122860,"Delta":14043253},{"NoteNumber":53,"Velocity":35,"Duration":122472,"SoundDuration":122472,"Delta":14166114},{"NoteNumber":49,"Velocity":26,"Duration":122279,"SoundDuration":122279,"Delta":14288587},{"NoteNumber":61,"Velocity":31,"Duration":122279,"SoundDuration":122279,"Delta":14288587},{"NoteNumber":58,"Velocity":26,"Duration":122279,"SoundDuration":122279,"Delta":14288587},{"NoteNumber":41,"Velocity":39,"Duration":122279,"SoundDuration":122279,"Delta":14410866},{"NoteNumber":34,"Velocity":30,"Duration":122279,"SoundDuration":122279,"Delta":14533145},{"NoteNumber":46,"Velocity":38,"Duration":122279,"SoundDuration":122279,"Delta":14533145},{"NoteNumber":53,"Velocity":35,"Duration":122279,"SoundDuration":122279,"Delta":14655424},{"NoteNumber":49,"Velocity":28,"Duration":122279,"SoundDuration":122279,"Delta":14777704},{"NoteNumber":61,"Velocity":34,"Duration":122279,"SoundDuration":122279,"Delta":14777704},{"NoteNumber":58,"Velocity":28,"Duration":122279,"SoundDuration":122279,"Delta":14777704},{"NoteNumber":41,"Velocity":39,"Duration":122279,"SoundDuration":122279,"Delta":14899983},{"NoteNumber":34,"Velocity":29,"Duration":122860,"SoundDuration":122860,"Delta":15022262},{"NoteNumber":46,"Velocity":35,"Duration":122860,"SoundDuration":122860,"Delta":15022262},{"NoteNumber":53,"Velocity":34,"Duration":122860,"SoundDuration":122860,"Delta":15145122},{"NoteNumber":49,"Velocity":25,"Duration":122860,"SoundDuration":122860,"Delta":15267983},{"NoteNumber":61,"Velocity":30,"Duration":122860,"SoundDuration":122860,"Delta":15267983},{"NoteNumber":58,"Velocity":25,"Duration":122860,"SoundDuration":122860,"Delta":15267983},{"NoteNumber":41,"Velocity":36,"Duration":122860,"SoundDuration":122860,"Delta":15390843},{"NoteNumber":34,"Velocity":27,"Duration":123436,"SoundDuration":123436,"Delta":15513703},{"NoteNumber":46,"Velocity":33,"Duration":123436,"SoundDuration":123436,"Delta":15513703},{"NoteNumber":53,"Velocity":30,"Duration":123436,"SoundDuration":123436,"Delta":15637140},{"NoteNumber":49,"Velocity":24,"Duration":123436,"SoundDuration":123436,"Delta":15760576},{"NoteNumber":61,"Velocity":29,"Duration":123436,"SoundDuration":123436,"Delta":15760576},{"NoteNumber":58,"Velocity":24,"Duration":123436,"SoundDuration":123436,"Delta":15760576},{"NoteNumber":41,"Velocity":35,"Duration":123436,"SoundDuration":123436,"Delta":15884013},{"NoteNumber":34,"Velocity":25,"Duration":124018,"SoundDuration":124018,"Delta":16007449},{"NoteNumber":46,"Velocity":29,"Duration":124018,"SoundDuration":124018,"Delta":16007449},{"NoteNumber":53,"Velocity":29,"Duration":124018,"SoundDuration":124018,"Delta":16131467},{"NoteNumber":49,"Velocity":24,"Duration":124018,"SoundDuration":124018,"Delta":16255486},{"NoteNumber":61,"Velocity":28,"Duration":124018,"SoundDuration":124018,"Delta":16255486},{"NoteNumber":58,"Velocity":24,"Duration":124018,"SoundDuration":124018,"Delta":16255486},{"NoteNumber":53,"Velocity":33,"Duration":124018,"SoundDuration":124018,"Delta":16379504},{"NoteNumber":73,"Velocity":54,"Duration":124605,"SoundDuration":124605,"Delta":16503522},{"NoteNumber":46,"Velocity":35,"Duration":124605,"SoundDuration":124605,"Delta":16503522},{"NoteNumber":70,"Velocity":51,"Duration":62302,"SoundDuration":62302,"Delta":16628128},{"NoteNumber":53,"Velocity":34,"Duration":124605,"SoundDuration":124605,"Delta":16628128},{"NoteNumber":61,"Velocity":30,"Duration":124605,"SoundDuration":124605,"Delta":16752733},{"NoteNumber":58,"Velocity":30,"Duration":124605,"SoundDuration":124605,"Delta":16752733},{"NoteNumber":72,"Velocity":51,"Duration":124605,"SoundDuration":124605,"Delta":16877339},{"NoteNumber":53,"Velocity":31,"Duration":124605,"SoundDuration":124605,"Delta":16877339},{"NoteNumber":73,"Velocity":54,"Duration":122860,"SoundDuration":122860,"Delta":17001944},{"NoteNumber":46,"Velocity":35,"Duration":122860,"SoundDuration":122860,"Delta":17001944},{"NoteNumber":70,"Velocity":51,"Duration":61430,"SoundDuration":61430,"Delta":17124804},{"NoteNumber":53,"Velocity":33,"Duration":122860,"SoundDuration":122860,"Delta":17124804},{"NoteNumber":61,"Velocity":31,"Duration":124605,"SoundDuration":124605,"Delta":17247665},{"NoteNumber":58,"Velocity":31,"Duration":124605,"SoundDuration":124605,"Delta":17247665},{"NoteNumber":53,"Velocity":31,"Duration":124605,"SoundDuration":124605,"Delta":17372270},{"NoteNumber":73,"Velocity":54,"Duration":122279,"SoundDuration":122279,"Delta":17496876},{"NoteNumber":46,"Velocity":35,"Duration":122279,"SoundDuration":122279,"Delta":17496876},{"NoteNumber":70,"Velocity":51,"Duration":61139,"SoundDuration":61139,"Delta":17619155},{"NoteNumber":53,"Velocity":34,"Duration":122279,"SoundDuration":122279,"Delta":17619155},{"NoteNumber":61,"Velocity":31,"Duration":124605,"SoundDuration":124605,"Delta":17741434},{"NoteNumber":58,"Velocity":31,"Duration":124605,"SoundDuration":124605,"Delta":17741434},{"NoteNumber":72,"Velocity":51,"Duration":124605,"SoundDuration":124605,"Delta":17866040},{"NoteNumber":53,"Velocity":31,"Duration":124605,"SoundDuration":124605,"Delta":17866040},{"NoteNumber":73,"Velocity":54,"Duration":122860,"SoundDuration":122860,"Delta":17990645},{"NoteNumber":46,"Velocity":35,"Duration":122860,"SoundDuration":122860,"Delta":17990645},{"NoteNumber":70,"Velocity":51,"Duration":61430,"SoundDuration":61430,"Delta":18113505},{"NoteNumber":53,"Velocity":33,"Duration":122860,"SoundDuration":122860,"Delta":18113505},{"NoteNumber":61,"Velocity":31,"Duration":124605,"SoundDuration":124605,"Delta":18236366},{"NoteNumber":58,"Velocity":31,"Duration":124605,"SoundDuration":124605,"Delta":18236366},{"NoteNumber":53,"Velocity":31,"Duration":124605,"SoundDuration":124605,"Delta":18360971},{"NoteNumber":73,"Velocity":54,"Duration":122860,"SoundDuration":122860,"Delta":18485577},{"NoteNumber":46,"Velocity":35,"Duration":122860,"SoundDuration":122860,"Delta":18485577},{"NoteNumber":70,"Velocity":51,"Duration":61430,"SoundDuration":61430,"Delta":18608437},{"NoteNumber":53,"Velocity":33,"Duration":122860,"SoundDuration":122860,"Delta":18608437},{"NoteNumber":61,"Velocity":31,"Duration":124605,"SoundDuration":124605,"Delta":18731297},{"NoteNumber":58,"Velocity":31,"Duration":124605,"SoundDuration":124605,"Delta":18731297},{"NoteNumber":72,"Velocity":61,"Duration":124605,"SoundDuration":124605,"Delta":18855903},{"NoteNumber":53,"Velocity":33,"Duration":124605,"SoundDuration":124605,"Delta":18855903},{"NoteNumber":73,"Velocity":66,"Duration":122279,"SoundDuration":122279,"Delta":18980508},{"NoteNumber":46,"Velocity":37,"Duration":122279,"SoundDuration":122279,"Delta":18980508},{"NoteNumber":82,"Velocity":64,"Duration":61139,"SoundDuration":61139,"Delta":19102787},{"NoteNumber":53,"Velocity":35,"Duration":122279,"SoundDuration":122279,"Delta":19102787},{"NoteNumber":61,"Velocity":34,"Duration":128281,"SoundDuration":128281,"Delta":19225067},{"NoteNumber":58,"Velocity":34,"Duration":128281,"SoundDuration":128281,"Delta":19225067},{"NoteNumber":53,"Velocity":34,"Duration":128282,"SoundDuration":128282,"Delta":19353348},{"NoteNumber":81,"Velocity":61,"Duration":122860,"SoundDuration":122860,"Delta":19481631},{"NoteNumber":48,"Velocity":35,"Duration":122860,"SoundDuration":122860,"Delta":19481631},{"NoteNumber":72,"Velocity":57,"Duration":61430,"SoundDuration":61430,"Delta":19604491},{"NoteNumber":54,"Velocity":34,"Duration":122860,"SoundDuration":122860,"Delta":19604491},{"NoteNumber":63,"Velocity":30,"Duration":124605,"SoundDuration":124605,"Delta":19727351},{"NoteNumber":57,"Velocity":30,"Duration":124605,"SoundDuration":124605,"Delta":19727351},{"NoteNumber":73,"Velocity":49,"Duration":124605,"SoundDuration":124605,"Delta":19851957},{"NoteNumber":54,"Velocity":31,"Duration":124605,"SoundDuration":124605,"Delta":19851957},{"NoteNumber":75,"Velocity":52,"Duration":122860,"SoundDuration":122860,"Delta":19976562},{"NoteNumber":48,"Velocity":35,"Duration":122860,"SoundDuration":122860,"Delta":19976562},{"NoteNumber":72,"Velocity":49,"Duration":61430,"SoundDuration":61430,"Delta":20099422},{"NoteNumber":54,"Velocity":33,"Duration":122860,"SoundDuration":122860,"Delta":20099422},{"NoteNumber":63,"Velocity":31,"Duration":124605,"SoundDuration":124605,"Delta":20222283},{"NoteNumber":57,"Velocity":31,"Duration":124605,"SoundDuration":124605,"Delta":20222283},{"NoteNumber":54,"Velocity":31,"Duration":124605,"SoundDuration":124605,"Delta":20346888},{"NoteNumber":78,"Velocity":55,"Duration":123436,"SoundDuration":123436,"Delta":20471494},{"NoteNumber":48,"Velocity":35,"Duration":123436,"SoundDuration":123436,"Delta":20471494},{"NoteNumber":72,"Velocity":49,"Duration":61718,"SoundDuration":61718,"Delta":20594930},{"NoteNumber":51,"Velocity":34,"Duration":123436,"SoundDuration":123436,"Delta":20594930},{"NoteNumber":63,"Velocity":30,"Duration":124605,"SoundDuration":124605,"Delta":20718367},{"NoteNumber":57,"Velocity":30,"Duration":124605,"SoundDuration":124605,"Delta":20718367},{"NoteNumber":73,"Velocity":49,"Duration":124605,"SoundDuration":124605,"Delta":20842972},{"NoteNumber":51,"Velocity":31,"Duration":124605,"SoundDuration":124605,"Delta":20842972},{"NoteNumber":75,"Velocity":52,"Duration":122860,"SoundDuration":122860,"Delta":20967578},{"NoteNumber":48,"Velocity":35,"Duration":122860,"SoundDuration":122860,"Delta":20967578},{"NoteNumber":72,"Velocity":49,"Duration":61430,"SoundDuration":61430,"Delta":21090438},{"NoteNumber":54,"Velocity":33,"Duration":122860,"SoundDuration":122860,"Delta":21090438},{"NoteNumber":63,"Velocity":31,"Duration":124605,"SoundDuration":124605,"Delta":21213298},{"NoteNumber":57,"Velocity":31,"Duration":124605,"SoundDuration":124605,"Delta":21213298},{"NoteNumber":54,"Velocity":31,"Duration":124605,"SoundDuration":124605,"Delta":21337904},{"NoteNumber":78,"Velocity":55,"Duration":123436,"SoundDuration":123436,"Delta":21462509},{"NoteNumber":48,"Velocity":35,"Duration":123436,"SoundDuration":123436,"Delta":21462509},{"NoteNumber":72,"Velocity":49,"Duration":61718,"SoundDuration":61718,"Delta":21585946},{"NoteNumber":51,"Velocity":34,"Duration":123436,"SoundDuration":123436,"Delta":21585946},{"NoteNumber":63,"Velocity":30,"Duration":124605,"SoundDuration":124605,"Delta":21709382},{"NoteNumber":57,"Velocity":30,"Duration":124605,"SoundDuration":124605,"Delta":21709382},{"NoteNumber":73,"Velocity":49,"Duration":124605,"SoundDuration":124605,"Delta":21833988},{"NoteNumber":51,"Velocity":31,"Duration":124605,"SoundDuration":124605,"Delta":21833988},{"NoteNumber":75,"Velocity":52,"Duration":122860,"SoundDuration":122860,"Delta":21958593},{"NoteNumber":48,"Velocity":35,"Duration":122860,"SoundDuration":122860,"Delta":21958593},{"NoteNumber":72,"Velocity":49,"Duration":61430,"SoundDuration":61430,"Delta":22081453},{"NoteNumber":54,"Velocity":33,"Duration":122860,"SoundDuration":122860,"Delta":22081453},{"NoteNumber":63,"Velocity":31,"Duration":124605,"SoundDuration":124605,"Delta":22204314},{"NoteNumber":57,"Velocity":31,"Duration":124605,"SoundDuration":124605,"Delta":22204314},{"NoteNumber":54,"Velocity":31,"Duration":124605,"SoundDuration":124605,"Delta":22328919},{"NoteNumber":78,"Velocity":58,"Duration":123436,"SoundDuration":123436,"Delta":22453525},{"NoteNumber":48,"Velocity":35,"Duration":123436,"SoundDuration":123436,"Delta":22453525},{"NoteNumber":72,"Velocity":51,"Duration":61718,"SoundDuration":61718,"Delta":22576961},{"NoteNumber":51,"Velocity":35,"Duration":123436,"SoundDuration":123436,"Delta":22576961},{"NoteNumber":63,"Velocity":34,"Duration":124605,"SoundDuration":124605,"Delta":22700398},{"NoteNumber":57,"Velocity":34,"Duration":124605,"SoundDuration":124605,"Delta":22700398},{"NoteNumber":73,"Velocity":65,"Duration":124605,"SoundDuration":124605,"Delta":22825003},{"NoteNumber":51,"Velocity":35,"Duration":124605,"SoundDuration":124605,"Delta":22825003},{"NoteNumber":75,"Velocity":71,"Duration":122860,"SoundDuration":122860,"Delta":22949609},{"NoteNumber":48,"Velocity":39,"Duration":122860,"SoundDuration":122860,"Delta":22949609},{"NoteNumber":84,"Velocity":64,"Duration":61430,"SoundDuration":61430,"Delta":23072469},{"NoteNumber":54,"Velocity":37,"Duration":122860,"SoundDuration":122860,"Delta":23072469},{"NoteNumber":63,"Velocity":37,"Duration":127648,"SoundDuration":127648,"Delta":23195329},{"NoteNumber":57,"Velocity":37,"Duration":127648,"SoundDuration":127648,"Delta":23195329},{"NoteNumber":54,"Velocity":38,"Duration":127648,"SoundDuration":127648,"Delta":23322978},{"NoteNumber":84,"Velocity":61,"Duration":246873,"SoundDuration":246873,"Delta":23450627},{"NoteNumber":49,"Velocity":35,"Duration":123436,"SoundDuration":123436,"Delta":23450627},{"NoteNumber":73,"Velocity":57,"Duration":61718,"SoundDuration":61718,"Delta":23574063},{"NoteNumber":53,"Velocity":34,"Duration":123436,"SoundDuration":123436,"Delta":23574063},{"NoteNumber":65,"Velocity":30,"Duration":124605,"SoundDuration":124605,"Delta":23697500},{"NoteNumber":57,"Velocity":30,"Duration":124605,"SoundDuration":124605,"Delta":23697500},{"NoteNumber":75,"Velocity":49,"Duration":124605,"SoundDuration":124605,"Delta":23822105},{"NoteNumber":53,"Velocity":31,"Duration":124605,"SoundDuration":124605,"Delta":23822105},{"NoteNumber":82,"Velocity":52,"Duration":245720,"SoundDuration":245720,"Delta":23946711},{"NoteNumber":77,"Velocity":52,"Duration":122860,"SoundDuration":122860,"Delta":23946711},{"NoteNumber":49,"Velocity":35,"Duration":122860,"SoundDuration":122860,"Delta":23946711},{"NoteNumber":73,"Velocity":49,"Duration":61430,"SoundDuration":61430,"Delta":24069571},{"NoteNumber":53,"Velocity":33,"Duration":122860,"SoundDuration":122860,"Delta":24069571},{"NoteNumber":65,"Velocity":31,"Duration":127648,"SoundDuration":127648,"Delta":24192431},{"NoteNumber":58,"Velocity":31,"Duration":127648,"SoundDuration":127648,"Delta":24192431},{"NoteNumber":53,"Velocity":31,"Duration":127648,"SoundDuration":127648,"Delta":24320080},{"NoteNumber":85,"Velocity":82,"Duration":124605,"SoundDuration":124605,"Delta":24447729},{"NoteNumber":73,"Velocity":69,"Duration":124605,"SoundDuration":124605,"Delta":24447729},{"NoteNumber":52,"Velocity":56,"Duration":124605,"SoundDuration":124605,"Delta":24447729},{"NoteNumber":84,"Velocity":75,"Duration":62302,"SoundDuration":62302,"Delta":24572334},{"NoteNumber":79,"Velocity":63,"Duration":62302,"SoundDuration":62302,"Delta":24572334},{"NoteNumber":61,"Velocity":53,"Duration":124605,"SoundDuration":124605,"Delta":24572334},{"NoteNumber":67,"Velocity":50,"Duration":126422,"SoundDuration":126422,"Delta":24696940},{"NoteNumber":73,"Velocity":61,"Duration":126422,"SoundDuration":126422,"Delta":24823362},{"NoteNumber":82,"Velocity":72,"Duration":126422,"SoundDuration":126422,"Delta":24823362},{"NoteNumber":52,"Velocity":51,"Duration":126422,"SoundDuration":126422,"Delta":24823362},{"NoteNumber":81,"Velocity":78,"Duration":122860,"SoundDuration":122860,"Delta":24949784},{"NoteNumber":77,"Velocity":64,"Duration":122860,"SoundDuration":122860,"Delta":24949784},{"NoteNumber":53,"Velocity":56,"Duration":122860,"SoundDuration":122860,"Delta":24949784},{"NoteNumber":72,"Velocity":57,"Duration":61430,"SoundDuration":61430,"Delta":25072644},{"NoteNumber":84,"Velocity":68,"Duration":61430,"SoundDuration":61430,"Delta":25072644},{"NoteNumber":60,"Velocity":52,"Duration":122860,"SoundDuration":122860,"Delta":25072644},{"NoteNumber":69,"Velocity":58,"Duration":127648,"SoundDuration":127648,"Delta":25195505},{"NoteNumber":53,"Velocity":51,"Duration":127648,"SoundDuration":127648,"Delta":25323153},{"NoteNumber":66,"Velocity":46,"Duration":124605,"SoundDuration":124605,"Delta":25450802},{"NoteNumber":78,"Velocity":55,"Duration":124605,"SoundDuration":124605,"Delta":25450802},{"NoteNumber":45,"Velocity":33,"Duration":124605,"SoundDuration":124605,"Delta":25450802},{"NoteNumber":72,"Velocity":42,"Duration":62302,"SoundDuration":62302,"Delta":25575408},{"NoteNumber":77,"Velocity":50,"Duration":62302,"SoundDuration":62302,"Delta":25575408},{"NoteNumber":54,"Velocity":30,"Duration":124605,"SoundDuration":124605,"Delta":25575408},{"NoteNumber":63,"Velocity":29,"Duration":127648,"SoundDuration":127648,"Delta":25700013},{"NoteNumber":66,"Velocity":40,"Duration":127648,"SoundDuration":127648,"Delta":25827662},{"NoteNumber":75,"Velocity":49,"Duration":127648,"SoundDuration":127648,"Delta":25827662},{"NoteNumber":45,"Velocity":29,"Duration":127648,"SoundDuration":127648,"Delta":25827662},{"NoteNumber":73,"Velocity":52,"Duration":122860,"SoundDuration":122860,"Delta":25955311},{"NoteNumber":70,"Velocity":44,"Duration":122860,"SoundDuration":122860,"Delta":25955311},{"NoteNumber":46,"Velocity":33,"Duration":122860,"SoundDuration":122860,"Delta":25955311},{"NoteNumber":65,"Velocity":40,"Duration":61430,"SoundDuration":61430,"Delta":26078171},{"NoteNumber":77,"Velocity":49,"Duration":61430,"SoundDuration":61430,"Delta":26078171},{"NoteNumber":53,"Velocity":30,"Duration":122860,"SoundDuration":122860,"Delta":26078171},{"NoteNumber":61,"Velocity":29,"Duration":127648,"SoundDuration":127648,"Delta":26201031},{"NoteNumber":46,"Velocity":29,"Duration":127648,"SoundDuration":127648,"Delta":26328680},{"NoteNumber":73,"Velocity":69,"Duration":124605,"SoundDuration":124605,"Delta":26456329},{"NoteNumber":85,"Velocity":82,"Duration":124605,"SoundDuration":124605,"Delta":26456329},{"NoteNumber":52,"Velocity":56,"Duration":124605,"SoundDuration":124605,"Delta":26456329},{"NoteNumber":84,"Velocity":75,"Duration":62302,"SoundDuration":62302,"Delta":26580934},{"NoteNumber":79,"Velocity":63,"Duration":62302,"SoundDuration":62302,"Delta":26580934},{"NoteNumber":61,"Velocity":53,"Duration":124605,"SoundDuration":124605,"Delta":26580934},{"NoteNumber":67,"Velocity":50,"Duration":127648,"SoundDuration":127648,"Delta":26705540},{"NoteNumber":73,"Velocity":61,"Duration":127648,"SoundDuration":127648,"Delta":26833188},{"NoteNumber":82,"Velocity":72,"Duration":127648,"SoundDuration":127648,"Delta":26833188},{"NoteNumber":52,"Velocity":51,"Duration":127648,"SoundDuration":127648,"Delta":26833188},{"NoteNumber":77,"Velocity":64,"Duration":122860,"SoundDuration":122860,"Delta":26960837},{"NoteNumber":81,"Velocity":78,"Duration":122860,"SoundDuration":122860,"Delta":26960837},{"NoteNumber":53,"Velocity":56,"Duration":122860,"SoundDuration":122860,"Delta":26960837},{"NoteNumber":72,"Velocity":57,"Duration":61430,"SoundDuration":61430,"Delta":27083697},{"NoteNumber":84,"Velocity":68,"Duration":61430,"SoundDuration":61430,"Delta":27083697},{"NoteNumber":60,"Velocity":52,"Duration":122860,"SoundDuration":122860,"Delta":27083697},{"NoteNumber":69,"Velocity":58,"Duration":127648,"SoundDuration":127648,"Delta":27206558},{"NoteNumber":53,"Velocity":51,"Duration":127648,"SoundDuration":127648,"Delta":27334206},{"NoteNumber":66,"Velocity":46,"Duration":124605,"SoundDuration":124605,"Delta":27461855},{"NoteNumber":78,"Velocity":55,"Duration":124605,"SoundDuration":124605,"Delta":27461855},{"NoteNumber":45,"Velocity":33,"Duration":124605,"SoundDuration":124605,"Delta":27461855},{"NoteNumber":77,"Velocity":50,"Duration":62302,"SoundDuration":62302,"Delta":27586461},{"NoteNumber":72,"Velocity":42,"Duration":62302,"SoundDuration":62302,"Delta":27586461},{"NoteNumber":54,"Velocity":30,"Duration":124605,"SoundDuration":124605,"Delta":27586461},{"NoteNumber":63,"Velocity":29,"Duration":127648,"SoundDuration":127648,"Delta":27711066},{"NoteNumber":66,"Velocity":40,"Duration":127648,"SoundDuration":127648,"Delta":27838715},{"NoteNumber":75,"Velocity":49,"Duration":127648,"SoundDuration":127648,"Delta":27838715},{"NoteNumber":45,"Velocity":29,"Duration":127648,"SoundDuration":127648,"Delta":27838715},{"NoteNumber":74,"Velocity":52,"Duration":122860,"SoundDuration":122860,"Delta":27966364},{"NoteNumber":70,"Velocity":44,"Duration":122860,"SoundDuration":122860,"Delta":27966364},{"NoteNumber":46,"Velocity":33,"Duration":122860,"SoundDuration":122860,"Delta":27966364},{"NoteNumber":77,"Velocity":49,"Duration":61430,"SoundDuration":61430,"Delta":28089224},{"NoteNumber":73,"Velocity":40,"Duration":61430,"SoundDuration":61430,"Delta":28089224},{"NoteNumber":65,"Velocity":40,"Duration":61430,"SoundDuration":61430,"Delta":28089224},{"NoteNumber":53,"Velocity":30,"Duration":122860,"SoundDuration":122860,"Delta":28089224},{"NoteNumber":61,"Velocity":29,"Duration":143540,"SoundDuration":143540,"Delta":28212084},{"NoteNumber":46,"Velocity":29,"Duration":143540,"SoundDuration":143540,"Delta":28355625},{"NoteNumber":82,"Velocity":75,"Duration":130434,"SoundDuration":130434,"Delta":28499166},{"NoteNumber":77,"Velocity":75,"Duration":130434,"SoundDuration":130434,"Delta":28499166},{"NoteNumber":89,"Velocity":89,"Duration":130434,"SoundDuration":130434,"Delta":28499166},{"NoteNumber":43,"Velocity":56,"Duration":130434,"SoundDuration":130434,"Delta":28499166},{"NoteNumber":88,"Velocity":83,"Duration":65217,"SoundDuration":65217,"Delta":28629600},{"NoteNumber":76,"Velocity":70,"Duration":65217,"SoundDuration":65217,"Delta":28629600},{"NoteNumber":48,"Velocity":53,"Duration":130434,"SoundDuration":130434,"Delta":28629600},{"NoteNumber":49,"Velocity":50,"Duration":131578,"SoundDuration":131578,"Delta":28760035},{"NoteNumber":73,"Velocity":62,"Duration":131579,"SoundDuration":131579,"Delta":28891614},{"NoteNumber":85,"Velocity":72,"Duration":131579,"SoundDuration":131579,"Delta":28891614},{"NoteNumber":58,"Velocity":49,"Duration":131579,"SoundDuration":131579,"Delta":28891614},{"NoteNumber":76,"Velocity":68,"Duration":126582,"SoundDuration":126582,"Delta":29023193},{"NoteNumber":84,"Velocity":80,"Duration":126582,"SoundDuration":126582,"Delta":29023193},{"NoteNumber":72,"Velocity":68,"Duration":126582,"SoundDuration":126582,"Delta":29023193},{"NoteNumber":43,"Velocity":52,"Duration":126582,"SoundDuration":126582,"Delta":29023193},{"NoteNumber":82,"Velocity":75,"Duration":63291,"SoundDuration":63291,"Delta":29149775},{"NoteNumber":70,"Velocity":62,"Duration":63291,"SoundDuration":63291,"Delta":29149775},{"NoteNumber":48,"Velocity":49,"Duration":126582,"SoundDuration":126582,"Delta":29149775},{"NoteNumber":49,"Velocity":49,"Duration":129310,"SoundDuration":129310,"Delta":29276358},{"NoteNumber":58,"Velocity":49,"Duration":129310,"SoundDuration":129310,"Delta":29405668},{"NoteNumber":70,"Velocity":68,"Duration":124605,"SoundDuration":124605,"Delta":29534978},{"NoteNumber":82,"Velocity":80,"Duration":124605,"SoundDuration":124605,"Delta":29534978},{"NoteNumber":43,"Velocity":47,"Duration":124605,"SoundDuration":124605,"Delta":29534978},{"NoteNumber":80,"Velocity":73,"Duration":62302,"SoundDuration":62302,"Delta":29659584},{"NoteNumber":76,"Velocity":61,"Duration":62302,"SoundDuration":62302,"Delta":29659584},{"NoteNumber":48,"Velocity":45,"Duration":124605,"SoundDuration":124605,"Delta":29659584},{"NoteNumber":49,"Velocity":42,"Duration":126422,"SoundDuration":126422,"Delta":29784189},{"NoteNumber":67,"Velocity":57,"Duration":126422,"SoundDuration":126422,"Delta":29910611},{"NoteNumber":79,"Velocity":68,"Duration":126422,"SoundDuration":126422,"Delta":29910611},{"NoteNumber":58,"Velocity":44,"Duration":126422,"SoundDuration":126422,"Delta":29910611},{"NoteNumber":75,"Velocity":59,"Duration":122860,"SoundDuration":122860,"Delta":30037034},{"NoteNumber":78,"Velocity":69,"Duration":122860,"SoundDuration":122860,"Delta":30037034},{"NoteNumber":45,"Velocity":49,"Duration":122860,"SoundDuration":122860,"Delta":30037034},{"NoteNumber":66,"Velocity":55,"Duration":61430,"SoundDuration":61430,"Delta":30159894},{"NoteNumber":72,"Velocity":64,"Duration":61430,"SoundDuration":61430,"Delta":30159894},{"NoteNumber":50,"Velocity":44,"Duration":122860,"SoundDuration":122860,"Delta":30159894},{"NoteNumber":51,"Velocity":46,"Duration":127648,"SoundDuration":127648,"Delta":30282754},{"NoteNumber":60,"Velocity":44,"Duration":127648,"SoundDuration":127648,"Delta":30410403},{"NoteNumber":68,"Velocity":57,"Duration":124605,"SoundDuration":124605,"Delta":30538052},{"NoteNumber":80,"Velocity":68,"Duration":124605,"SoundDuration":124605,"Delta":30538052},{"NoteNumber":47,"Velocity":47,"Duration":124605,"SoundDuration":124605,"Delta":30538052},{"NoteNumber":74,"Velocity":52,"Duration":62302,"SoundDuration":62302,"Delta":30662657},{"NoteNumber":79,"Velocity":62,"Duration":62302,"SoundDuration":62302,"Delta":30662657},{"NoteNumber":52,"Velocity":45,"Duration":124605,"SoundDuration":124605,"Delta":30662657},{"NoteNumber":53,"Velocity":42,"Duration":125807,"SoundDuration":125807,"Delta":30787263},{"NoteNumber":65,"Velocity":51,"Duration":125807,"SoundDuration":125807,"Delta":30913070},{"NoteNumber":77,"Velocity":61,"Duration":125807,"SoundDuration":125807,"Delta":30913070},{"NoteNumber":62,"Velocity":44,"Duration":125807,"SoundDuration":125807,"Delta":30913070},{"NoteNumber":72,"Velocity":53,"Duration":122860,"SoundDuration":122860,"Delta":31038877},{"NoteNumber":75,"Velocity":63,"Duration":122860,"SoundDuration":122860,"Delta":31038877},{"NoteNumber":48,"Velocity":49,"Duration":122860,"SoundDuration":122860,"Delta":31038877},{"NoteNumber":63,"Velocity":44,"Duration":61430,"SoundDuration":61430,"Delta":31161737},{"NoteNumber":67,"Velocity":52,"Duration":61430,"SoundDuration":61430,"Delta":31161737},{"NoteNumber":54,"Velocity":39,"Duration":122860,"SoundDuration":122860,"Delta":31161737},{"NoteNumber":55,"Velocity":40,"Duration":127648,"SoundDuration":127648,"Delta":31284598},{"NoteNumber":63,"Velocity":39,"Duration":127648,"SoundDuration":127648,"Delta":31412246},{"NoteNumber":72,"Velocity":57,"Duration":119493,"SoundDuration":119493,"Delta":31539895},{"NoteNumber":75,"Velocity":67,"Duration":119493,"SoundDuration":119493,"Delta":31539895},{"NoteNumber":46,"Velocity":52,"Duration":119493,"SoundDuration":119493,"Delta":31539895},{"NoteNumber":66,"Velocity":59,"Duration":59746,"SoundDuration":59746,"Delta":31659388},{"NoteNumber":63,"Velocity":49,"Duration":59746,"SoundDuration":59746,"Delta":31659388},{"NoteNumber":53,"Velocity":45,"Duration":119493,"SoundDuration":119493,"Delta":31659388},{"NoteNumber":54,"Velocity":41,"Duration":127118,"SoundDuration":127118,"Delta":31778882},{"NoteNumber":63,"Velocity":42,"Duration":127118,"SoundDuration":127118,"Delta":31906000},{"NoteNumber":75,"Velocity":62,"Duration":124481,"SoundDuration":124481,"Delta":32033119},{"NoteNumber":72,"Velocity":53,"Duration":124481,"SoundDuration":124481,"Delta":32033119},{"NoteNumber":45,"Velocity":52,"Duration":124481,"SoundDuration":124481,"Delta":32033119},{"NoteNumber":63,"Velocity":46,"Duration":62240,"SoundDuration":62240,"Delta":32157600},{"NoteNumber":65,"Velocity":56,"Duration":62240,"SoundDuration":62240,"Delta":32157600},{"NoteNumber":52,"Velocity":41,"Duration":124481,"SoundDuration":124481,"Delta":32157600},{"NoteNumber":53,"Velocity":42,"Duration":139535,"SoundDuration":139535,"Delta":32282082},{"NoteNumber":63,"Velocity":41,"Duration":139534,"SoundDuration":139534,"Delta":32421617},{"NoteNumber":73,"Velocity":68,"Duration":128755,"SoundDuration":128755,"Delta":32561152},{"NoteNumber":46,"Velocity":51,"Duration":128755,"SoundDuration":128755,"Delta":32561152},{"NoteNumber":61,"Velocity":40,"Duration":128755,"SoundDuration":128755,"Delta":32689907},{"NoteNumber":65,"Velocity":40,"Duration":128755,"SoundDuration":128755,"Delta":32689907},{"NoteNumber":70,"Velocity":59,"Duration":128755,"SoundDuration":128755,"Delta":32689907},{"NoteNumber":53,"Velocity":44,"Duration":128755,"SoundDuration":128755,"Delta":32689907},{"NoteNumber":58,"Velocity":47,"Duration":130434,"SoundDuration":130434,"Delta":32818662},{"NoteNumber":72,"Velocity":67,"Duration":130434,"SoundDuration":130434,"Delta":32949097},{"NoteNumber":41,"Velocity":48,"Duration":130434,"SoundDuration":130434,"Delta":32949097},{"NoteNumber":73,"Velocity":68,"Duration":126050,"SoundDuration":126050,"Delta":33079532},{"NoteNumber":46,"Velocity":51,"Duration":126050,"SoundDuration":126050,"Delta":33079532},{"NoteNumber":61,"Velocity":40,"Duration":126050,"SoundDuration":126050,"Delta":33205582},{"NoteNumber":65,"Velocity":40,"Duration":126050,"SoundDuration":126050,"Delta":33205582},{"NoteNumber":70,"Velocity":60,"Duration":126050,"SoundDuration":126050,"Delta":33205582},{"NoteNumber":53,"Velocity":43,"Duration":126050,"SoundDuration":126050,"Delta":33205582},{"NoteNumber":58,"Velocity":48,"Duration":129870,"SoundDuration":129870,"Delta":33331633},{"NoteNumber":41,"Velocity":48,"Duration":129870,"SoundDuration":129870,"Delta":33461503},{"NoteNumber":73,"Velocity":68,"Duration":124481,"SoundDuration":124481,"Delta":33591373},{"NoteNumber":46,"Velocity":51,"Duration":124481,"SoundDuration":124481,"Delta":33591373},{"NoteNumber":65,"Velocity":40,"Duration":124481,"SoundDuration":124481,"Delta":33715854},{"NoteNumber":61,"Velocity":40,"Duration":124481,"SoundDuration":124481,"Delta":33715854},{"NoteNumber":70,"Velocity":60,"Duration":124481,"SoundDuration":124481,"Delta":33715854},{"NoteNumber":53,"Velocity":44,"Duration":124481,"SoundDuration":124481,"Delta":33715854},{"NoteNumber":58,"Velocity":48,"Duration":128205,"SoundDuration":128205,"Delta":33840336},{"NoteNumber":72,"Velocity":68,"Duration":128205,"SoundDuration":128205,"Delta":33968541},{"NoteNumber":41,"Velocity":48,"Duration":128205,"SoundDuration":128205,"Delta":33968541},{"NoteNumber":73,"Velocity":68,"Duration":126050,"SoundDuration":126050,"Delta":34096746},{"NoteNumber":46,"Velocity":51,"Duration":126050,"SoundDuration":126050,"Delta":34096746},{"NoteNumber":61,"Velocity":40,"Duration":126050,"SoundDuration":126050,"Delta":34222797},{"NoteNumber":65,"Velocity":40,"Duration":126050,"SoundDuration":126050,"Delta":34222797},{"NoteNumber":70,"Velocity":60,"Duration":126050,"SoundDuration":126050,"Delta":34222797},{"NoteNumber":53,"Velocity":43,"Duration":126050,"SoundDuration":126050,"Delta":34222797},{"NoteNumber":58,"Velocity":48,"Duration":128205,"SoundDuration":128205,"Delta":34348847},{"NoteNumber":41,"Velocity":48,"Duration":128205,"SoundDuration":128205,"Delta":34477052},{"NoteNumber":73,"Velocity":68,"Duration":125000,"SoundDuration":125000,"Delta":34605258},{"NoteNumber":46,"Velocity":51,"Duration":125000,"SoundDuration":125000,"Delta":34605258},{"NoteNumber":61,"Velocity":46,"Duration":125000,"SoundDuration":125000,"Delta":34730258},{"NoteNumber":65,"Velocity":46,"Duration":125000,"SoundDuration":125000,"Delta":34730258},{"NoteNumber":70,"Velocity":67,"Duration":125000,"SoundDuration":125000,"Delta":34730258},{"NoteNumber":53,"Velocity":49,"Duration":125000,"SoundDuration":125000,"Delta":34730258},{"NoteNumber":58,"Velocity":48,"Duration":128205,"SoundDuration":128205,"Delta":34855258},{"NoteNumber":72,"Velocity":73,"Duration":128205,"SoundDuration":128205,"Delta":34983463},{"NoteNumber":41,"Velocity":49,"Duration":128205,"SoundDuration":128205,"Delta":34983463},{"NoteNumber":73,"Velocity":84,"Duration":124481,"SoundDuration":124481,"Delta":35111668},{"NoteNumber":46,"Velocity":54,"Duration":124481,"SoundDuration":124481,"Delta":35111668},{"NoteNumber":70,"Velocity":52,"Duration":124481,"SoundDuration":124481,"Delta":35236149},{"NoteNumber":77,"Velocity":52,"Duration":124481,"SoundDuration":124481,"Delta":35236149},{"NoteNumber":82,"Velocity":76,"Duration":124481,"SoundDuration":124481,"Delta":35236149},{"NoteNumber":53,"Velocity":51,"Duration":124481,"SoundDuration":124481,"Delta":35236149},{"NoteNumber":61,"Velocity":50,"Duration":128250,"SoundDuration":128250,"Delta":35360631},{"NoteNumber":49,"Velocity":50,"Duration":128281,"SoundDuration":128281,"Delta":35488881},{"NoteNumber":81,"Velocity":76,"Duration":122905,"SoundDuration":122905,"Delta":35617163},{"NoteNumber":48,"Velocity":51,"Duration":122905,"SoundDuration":122905,"Delta":35617163},{"NoteNumber":69,"Velocity":46,"Duration":122860,"SoundDuration":122860,"Delta":35740068},{"NoteNumber":72,"Velocity":67,"Duration":122860,"SoundDuration":122860,"Delta":35740068},{"NoteNumber":54,"Velocity":44,"Duration":122860,"SoundDuration":122860,"Delta":35740068},{"NoteNumber":63,"Velocity":47,"Duration":124590,"SoundDuration":124590,"Delta":35862929},{"NoteNumber":73,"Velocity":67,"Duration":124605,"SoundDuration":124605,"Delta":35987519},{"NoteNumber":48,"Velocity":48,"Duration":124605,"SoundDuration":124605,"Delta":35987519},{"NoteNumber":75,"Velocity":68,"Duration":122874,"SoundDuration":122874,"Delta":36112125},{"NoteNumber":54,"Velocity":51,"Duration":122874,"SoundDuration":122874,"Delta":36112125},{"NoteNumber":66,"Velocity":40,"Duration":122860,"SoundDuration":122860,"Delta":36235000},{"NoteNumber":69,"Velocity":40,"Duration":122860,"SoundDuration":122860,"Delta":36235000},{"NoteNumber":72,"Velocity":60,"Duration":122860,"SoundDuration":122860,"Delta":36235000},{"NoteNumber":57,"Velocity":43,"Duration":122860,"SoundDuration":122860,"Delta":36235000},{"NoteNumber":63,"Velocity":48,"Duration":124590,"SoundDuration":124590,"Delta":36357860},{"NoteNumber":48,"Velocity":48,"Duration":124605,"SoundDuration":124605,"Delta":36482451},{"NoteNumber":78,"Velocity":71,"Duration":123446,"SoundDuration":123446,"Delta":36607056},{"NoteNumber":51,"Velocity":51,"Duration":123446,"SoundDuration":123446,"Delta":36607056},{"NoteNumber":69,"Velocity":40,"Duration":123436,"SoundDuration":123436,"Delta":36730503},{"NoteNumber":66,"Velocity":40,"Duration":123436,"SoundDuration":123436,"Delta":36730503},{"NoteNumber":72,"Velocity":59,"Duration":123436,"SoundDuration":123436,"Delta":36730503},{"NoteNumber":57,"Velocity":44,"Duration":123436,"SoundDuration":123436,"Delta":36730503},{"NoteNumber":63,"Velocity":47,"Duration":124595,"SoundDuration":124595,"Delta":36853939},{"NoteNumber":73,"Velocity":67,"Duration":124605,"SoundDuration":124605,"Delta":36978535},{"NoteNumber":48,"Velocity":48,"Duration":124605,"SoundDuration":124605,"Delta":36978535},{"NoteNumber":75,"Velocity":68,"Duration":122874,"SoundDuration":122874,"Delta":37103140},{"NoteNumber":54,"Velocity":51,"Duration":122874,"SoundDuration":122874,"Delta":37103140},{"NoteNumber":66,"Velocity":40,"Duration":122860,"SoundDuration":122860,"Delta":37226015},{"NoteNumber":69,"Velocity":40,"Duration":122860,"SoundDuration":122860,"Delta":37226015},{"NoteNumber":72,"Velocity":60,"Duration":122860,"SoundDuration":122860,"Delta":37226015},{"NoteNumber":57,"Velocity":43,"Duration":122860,"SoundDuration":122860,"Delta":37226015},{"NoteNumber":63,"Velocity":48,"Duration":124590,"SoundDuration":124590,"Delta":37348876},{"NoteNumber":48,"Velocity":48,"Duration":124605,"SoundDuration":124605,"Delta":37473466},{"NoteNumber":78,"Velocity":71,"Duration":123446,"SoundDuration":123446,"Delta":37598072},{"NoteNumber":51,"Velocity":51,"Duration":123446,"SoundDuration":123446,"Delta":37598072},{"NoteNumber":66,"Velocity":40,"Duration":123436,"SoundDuration":123436,"Delta":37721518},{"NoteNumber":69,"Velocity":40,"Duration":123436,"SoundDuration":123436,"Delta":37721518},{"NoteNumber":72,"Velocity":59,"Duration":123436,"SoundDuration":123436,"Delta":37721518},{"NoteNumber":57,"Velocity":44,"Duration":123436,"SoundDuration":123436,"Delta":37721518},{"NoteNumber":63,"Velocity":47,"Duration":124595,"SoundDuration":124595,"Delta":37844955},{"NoteNumber":73,"Velocity":67,"Duration":124605,"SoundDuration":124605,"Delta":37969550},{"NoteNumber":48,"Velocity":48,"Duration":124605,"SoundDuration":124605,"Delta":37969550},{"NoteNumber":75,"Velocity":68,"Duration":122874,"SoundDuration":122874,"Delta":38094156},{"NoteNumber":54,"Velocity":51,"Duration":122874,"SoundDuration":122874,"Delta":38094156},{"NoteNumber":66,"Velocity":40,"Duration":122860,"SoundDuration":122860,"Delta":38217031},{"NoteNumber":69,"Velocity":40,"Duration":122860,"SoundDuration":122860,"Delta":38217031},{"NoteNumber":72,"Velocity":60,"Duration":122860,"SoundDuration":122860,"Delta":38217031},{"NoteNumber":57,"Velocity":43,"Duration":122860,"SoundDuration":122860,"Delta":38217031},{"NoteNumber":63,"Velocity":48,"Duration":124590,"SoundDuration":124590,"Delta":38339891},{"NoteNumber":48,"Velocity":48,"Duration":124605,"SoundDuration":124605,"Delta":38464482},{"NoteNumber":78,"Velocity":74,"Duration":123446,"SoundDuration":123446,"Delta":38589087},{"NoteNumber":51,"Velocity":52,"Duration":123446,"SoundDuration":123446,"Delta":38589087},{"NoteNumber":66,"Velocity":42,"Duration":123436,"SoundDuration":123436,"Delta":38712534},{"NoteNumber":69,"Velocity":42,"Duration":123436,"SoundDuration":123436,"Delta":38712534},{"NoteNumber":72,"Velocity":63,"Duration":123436,"SoundDuration":123436,"Delta":38712534},{"NoteNumber":57,"Velocity":46,"Duration":123436,"SoundDuration":123436,"Delta":38712534},{"NoteNumber":63,"Velocity":50,"Duration":124595,"SoundDuration":124595,"Delta":38835970},{"NoteNumber":73,"Velocity":78,"Duration":124605,"SoundDuration":124605,"Delta":38960566},{"NoteNumber":48,"Velocity":51,"Duration":124605,"SoundDuration":124605,"Delta":38960566},{"NoteNumber":75,"Velocity":88,"Duration":122874,"SoundDuration":122874,"Delta":39085171},{"NoteNumber":54,"Velocity":57,"Duration":122874,"SoundDuration":122874,"Delta":39085171},{"NoteNumber":72,"Velocity":54,"Duration":122860,"SoundDuration":122860,"Delta":39208046},{"NoteNumber":78,"Velocity":54,"Duration":122860,"SoundDuration":122860,"Delta":39208046},{"NoteNumber":84,"Velocity":78,"Duration":122860,"SoundDuration":122860,"Delta":39208046},{"NoteNumber":57,"Velocity":54,"Duration":122860,"SoundDuration":122860,"Delta":39208046},{"NoteNumber":63,"Velocity":54,"Duration":127608,"SoundDuration":127608,"Delta":39330907},{"NoteNumber":48,"Velocity":55,"Duration":127648,"SoundDuration":127648,"Delta":39458515},{"NoteNumber":84,"Velocity":73,"Duration":123471,"SoundDuration":123471,"Delta":39586164},{"NoteNumber":49,"Velocity":51,"Duration":123471,"SoundDuration":123471,"Delta":39586164},{"NoteNumber":72,"Velocity":50,"Duration":123436,"SoundDuration":123436,"Delta":39709636},{"NoteNumber":73,"Velocity":72,"Duration":123436,"SoundDuration":123436,"Delta":39709636},{"NoteNumber":57,"Velocity":50,"Duration":123436,"SoundDuration":123436,"Delta":39709636},{"NoteNumber":65,"Velocity":47,"Duration":124595,"SoundDuration":124595,"Delta":39833072},{"NoteNumber":75,"Velocity":64,"Duration":124605,"SoundDuration":124605,"Delta":39957668},{"NoteNumber":53,"Velocity":48,"Duration":124605,"SoundDuration":124605,"Delta":39957668},{"NoteNumber":77,"Velocity":69,"Duration":122874,"SoundDuration":122874,"Delta":40082273},{"NoteNumber":58,"Velocity":51,"Duration":122874,"SoundDuration":122874,"Delta":40082273},{"NoteNumber":70,"Velocity":44,"Duration":122860,"SoundDuration":122860,"Delta":40205148},{"NoteNumber":82,"Velocity":69,"Duration":122860,"SoundDuration":122860,"Delta":40205148},{"NoteNumber":73,"Velocity":44,"Duration":122860,"SoundDuration":122860,"Delta":40205148},{"NoteNumber":61,"Velocity":49,"Duration":122860,"SoundDuration":122860,"Delta":40205148},{"NoteNumber":65,"Velocity":48,"Duration":127608,"SoundDuration":127608,"Delta":40328009},{"NoteNumber":49,"Velocity":48,"Duration":127648,"SoundDuration":127648,"Delta":40455617},{"NoteNumber":85,"Velocity":85,"Duration":124605,"SoundDuration":124605,"Delta":40583266},{"NoteNumber":52,"Velocity":61,"Duration":124605,"SoundDuration":124605,"Delta":40583266},{"NoteNumber":73,"Velocity":71,"Duration":124605,"SoundDuration":124605,"Delta":40707872},{"NoteNumber":84,"Velocity":84,"Duration":124605,"SoundDuration":124605,"Delta":40707872},{"NoteNumber":79,"Velocity":71,"Duration":124605,"SoundDuration":124605,"Delta":40707872},{"NoteNumber":61,"Velocity":59,"Duration":124605,"SoundDuration":124605,"Delta":40707872},{"NoteNumber":67,"Velocity":55,"Duration":126422,"SoundDuration":126422,"Delta":40832477},{"NoteNumber":82,"Velocity":80,"Duration":126422,"SoundDuration":126422,"Delta":40958899},{"NoteNumber":52,"Velocity":57,"Duration":126422,"SoundDuration":126422,"Delta":40958899},{"NoteNumber":81,"Velocity":86,"Duration":122860,"SoundDuration":122860,"Delta":41085322},{"NoteNumber":53,"Velocity":61,"Duration":122860,"SoundDuration":122860,"Delta":41085322},{"NoteNumber":77,"Velocity":67,"Duration":122860,"SoundDuration":122860,"Delta":41208182},{"NoteNumber":72,"Velocity":67,"Duration":122860,"SoundDuration":122860,"Delta":41208182},{"NoteNumber":84,"Velocity":80,"Duration":122860,"SoundDuration":122860,"Delta":41208182},{"NoteNumber":60,"Velocity":58,"Duration":122860,"SoundDuration":122860,"Delta":41208182},{"NoteNumber":69,"Velocity":57,"Duration":127648,"SoundDuration":127648,"Delta":41331042},{"NoteNumber":53,"Velocity":57,"Duration":127648,"SoundDuration":127648,"Delta":41458691},{"NoteNumber":78,"Velocity":67,"Duration":124605,"SoundDuration":124605,"Delta":41586340},{"NoteNumber":45,"Velocity":48,"Duration":124605,"SoundDuration":124605,"Delta":41586340},{"NoteNumber":66,"Velocity":55,"Duration":124605,"SoundDuration":124605,"Delta":41710945},{"NoteNumber":77,"Velocity":66,"Duration":124605,"SoundDuration":124605,"Delta":41710945},{"NoteNumber":72,"Velocity":55,"Duration":124605,"SoundDuration":124605,"Delta":41710945},{"NoteNumber":54,"Velocity":44,"Duration":124605,"SoundDuration":124605,"Delta":41710945},{"NoteNumber":63,"Velocity":44,"Duration":127648,"SoundDuration":127648,"Delta":41835551},{"NoteNumber":75,"Velocity":64,"Duration":127648,"SoundDuration":127648,"Delta":41963199},{"NoteNumber":45,"Velocity":44,"Duration":127648,"SoundDuration":127648,"Delta":41963199},{"NoteNumber":74,"Velocity":69,"Duration":122860,"SoundDuration":122860,"Delta":42090848},{"NoteNumber":46,"Velocity":48,"Duration":122860,"SoundDuration":122860,"Delta":42090848},{"NoteNumber":70,"Velocity":53,"Duration":122860,"SoundDuration":122860,"Delta":42213708},{"NoteNumber":77,"Velocity":64,"Duration":122860,"SoundDuration":122860,"Delta":42213708},{"NoteNumber":73,"Velocity":53,"Duration":122860,"SoundDuration":122860,"Delta":42213708},{"NoteNumber":65,"Velocity":53,"Duration":122860,"SoundDuration":122860,"Delta":42213708},{"NoteNumber":53,"Velocity":44,"Duration":122860,"SoundDuration":122860,"Delta":42213708},{"NoteNumber":61,"Velocity":44,"Duration":127648,"SoundDuration":127648,"Delta":42336569},{"NoteNumber":46,"Velocity":44,"Duration":127648,"SoundDuration":127648,"Delta":42464217},{"NoteNumber":85,"Velocity":85,"Duration":124605,"SoundDuration":124605,"Delta":42591866},{"NoteNumber":52,"Velocity":61,"Duration":124605,"SoundDuration":124605,"Delta":42591866},{"NoteNumber":73,"Velocity":71,"Duration":124605,"SoundDuration":124605,"Delta":42716472},{"NoteNumber":84,"Velocity":84,"Duration":124605,"SoundDuration":124605,"Delta":42716472},{"NoteNumber":79,"Velocity":71,"Duration":124605,"SoundDuration":124605,"Delta":42716472},{"NoteNumber":61,"Velocity":59,"Duration":124605,"SoundDuration":124605,"Delta":42716472},{"NoteNumber":67,"Velocity":55,"Duration":127648,"SoundDuration":127648,"Delta":42841077},{"NoteNumber":82,"Velocity":80,"Duration":127648,"SoundDuration":127648,"Delta":42968726},{"NoteNumber":52,"Velocity":57,"Duration":127648,"SoundDuration":127648,"Delta":42968726},{"NoteNumber":81,"Velocity":86,"Duration":122860,"SoundDuration":122860,"Delta":43096375},{"NoteNumber":53,"Velocity":61,"Duration":122860,"SoundDuration":122860,"Delta":43096375},{"NoteNumber":77,"Velocity":67,"Duration":122860,"SoundDuration":122860,"Delta":43219235},{"NoteNumber":72,"Velocity":67,"Duration":122860,"SoundDuration":122860,"Delta":43219235},{"NoteNumber":84,"Velocity":80,"Duration":122860,"SoundDuration":122860,"Delta":43219235},{"NoteNumber":60,"Velocity":58,"Duration":122860,"SoundDuration":122860,"Delta":43219235},{"NoteNumber":69,"Velocity":57,"Duration":127648,"SoundDuration":127648,"Delta":43342095},{"NoteNumber":53,"Velocity":57,"Duration":127648,"SoundDuration":127648,"Delta":43469744},{"NoteNumber":83,"Velocity":84,"Duration":124605,"SoundDuration":124605,"Delta":43597393},{"NoteNumber":50,"Velocity":61,"Duration":124605,"SoundDuration":124605,"Delta":43597393},{"NoteNumber":71,"Velocity":65,"Duration":124605,"SoundDuration":124605,"Delta":43721998},{"NoteNumber":82,"Velocity":77,"Duration":124605,"SoundDuration":124605,"Delta":43721998},{"NoteNumber":77,"Velocity":65,"Duration":124605,"SoundDuration":124605,"Delta":43721998},{"NoteNumber":59,"Velocity":58,"Duration":124605,"SoundDuration":124605,"Delta":43721998},{"NoteNumber":65,"Velocity":55,"Duration":127648,"SoundDuration":127648,"Delta":43846604},{"NoteNumber":80,"Velocity":80,"Duration":127648,"SoundDuration":127648,"Delta":43974252},{"NoteNumber":50,"Velocity":55,"Duration":127648,"SoundDuration":127648,"Delta":43974252},{"NoteNumber":79,"Velocity":86,"Duration":122860,"SoundDuration":122860,"Delta":44101901},{"NoteNumber":51,"Velocity":61,"Duration":122860,"SoundDuration":122860,"Delta":44101901},{"NoteNumber":78,"Velocity":63,"Duration":122860,"SoundDuration":122860,"Delta":44224761},{"NoteNumber":70,"Velocity":63,"Duration":122860,"SoundDuration":122860,"Delta":44224761},{"NoteNumber":82,"Velocity":75,"Duration":122860,"SoundDuration":122860,"Delta":44224761},{"NoteNumber":58,"Velocity":57,"Duration":122860,"SoundDuration":122860,"Delta":44224761},{"NoteNumber":66,"Velocity":55,"Duration":153941,"SoundDuration":153941,"Delta":44347622},{"NoteNumber":51,"Velocity":55,"Duration":153940,"SoundDuration":153940,"Delta":44501563},{"NoteNumber":78,"Velocity":83,"Duration":801636,"SoundDuration":801636,"Delta":44655504},{"NoteNumber":69,"Velocity":83,"Duration":275229,"SoundDuration":275229,"Delta":44655504},{"NoteNumber":81,"Velocity":99,"Duration":275229,"SoundDuration":275229,"Delta":44655504},{"NoteNumber":39,"Velocity":69,"Duration":137614,"SoundDuration":137614,"Delta":44655504},{"NoteNumber":46,"Velocity":59,"Duration":137614,"SoundDuration":137614,"Delta":44793118},{"NoteNumber":70,"Velocity":66,"Duration":259740,"SoundDuration":259740,"Delta":44930733},{"NoteNumber":82,"Velocity":79,"Duration":259740,"SoundDuration":259740,"Delta":44930733},{"NoteNumber":58,"Velocity":71,"Duration":129870,"SoundDuration":129870,"Delta":44930733},{"NoteNumber":46,"Velocity":59,"Duration":129870,"SoundDuration":129870,"Delta":45060603},{"NoteNumber":69,"Velocity":75,"Duration":266666,"SoundDuration":266666,"Delta":45190474},{"NoteNumber":81,"Velocity":89,"Duration":266666,"SoundDuration":266666,"Delta":45190474},{"NoteNumber":41,"Velocity":69,"Duration":133333,"SoundDuration":133333,"Delta":45190474},{"NoteNumber":46,"Velocity":59,"Duration":133333,"SoundDuration":133333,"Delta":45323807},{"NoteNumber":82,"Velocity":79,"Duration":258620,"SoundDuration":258620,"Delta":45457140},{"NoteNumber":70,"Velocity":66,"Duration":258620,"SoundDuration":258620,"Delta":45457140},{"NoteNumber":77,"Velocity":66,"Duration":258620,"SoundDuration":258620,"Delta":45457140},{"NoteNumber":58,"Velocity":69,"Duration":129310,"SoundDuration":129310,"Delta":45457140},{"NoteNumber":46,"Velocity":59,"Duration":129310,"SoundDuration":129310,"Delta":45586450},{"NoteNumber":69,"Velocity":78,"Duration":269905,"SoundDuration":269905,"Delta":45715761},{"NoteNumber":77,"Velocity":78,"Duration":269905,"SoundDuration":269905,"Delta":45715761},{"NoteNumber":81,"Velocity":92,"Duration":269905,"SoundDuration":269905,"Delta":45715761},{"NoteNumber":42,"Velocity":69,"Duration":134952,"SoundDuration":134952,"Delta":45715761},{"NoteNumber":46,"Velocity":59,"Duration":134952,"SoundDuration":134952,"Delta":45850713},{"NoteNumber":75,"Velocity":67,"Duration":555267,"SoundDuration":555267,"Delta":45985666},{"NoteNumber":70,"Velocity":67,"Duration":271149,"SoundDuration":271149,"Delta":45985666},{"NoteNumber":82,"Velocity":80,"Duration":271149,"SoundDuration":271149,"Delta":45985666},{"NoteNumber":58,"Velocity":68,"Duration":135574,"SoundDuration":135574,"Delta":45985666},{"NoteNumber":46,"Velocity":59,"Duration":135574,"SoundDuration":135574,"Delta":46121241},{"NoteNumber":69,"Velocity":74,"Duration":284117,"SoundDuration":284117,"Delta":46256816},{"NoteNumber":81,"Velocity":89,"Duration":284117,"SoundDuration":284117,"Delta":46256816},{"NoteNumber":43,"Velocity":68,"Duration":142059,"SoundDuration":142059,"Delta":46256816},{"NoteNumber":51,"Velocity":59,"Duration":142058,"SoundDuration":142058,"Delta":46398875},{"NoteNumber":70,"Velocity":67,"Duration":284117,"SoundDuration":284117,"Delta":46540934},{"NoteNumber":73,"Velocity":67,"Duration":284117,"SoundDuration":284117,"Delta":46540934},{"NoteNumber":82,"Velocity":80,"Duration":284117,"SoundDuration":284117,"Delta":46540934},{"NoteNumber":63,"Velocity":68,"Duration":142059,"SoundDuration":142059,"Delta":46540934},{"NoteNumber":51,"Velocity":59,"Duration":142058,"SoundDuration":142058,"Delta":46682993},{"NoteNumber":66,"Velocity":84,"Duration":141376,"SoundDuration":141376,"Delta":46825052},{"NoteNumber":61,"Velocity":79,"Duration":141376,"SoundDuration":141376,"Delta":46825052},{"NoteNumber":73,"Velocity":100,"Duration":141376,"SoundDuration":141376,"Delta":46825052},{"NoteNumber":44,"Velocity":52,"Duration":141376,"SoundDuration":141376,"Delta":46825052},{"NoteNumber":51,"Velocity":57,"Duration":141376,"SoundDuration":141376,"Delta":46825052},{"NoteNumber":58,"Velocity":68,"Duration":141376,"SoundDuration":141376,"Delta":46825052},{"NoteNumber":60,"Velocity":65,"Duration":141376,"SoundDuration":141376,"Delta":47107804},{"NoteNumber":66,"Velocity":73,"Duration":141376,"SoundDuration":141376,"Delta":47107804},{"NoteNumber":72,"Velocity":86,"Duration":141376,"SoundDuration":141376,"Delta":47107804},{"NoteNumber":44,"Velocity":39,"Duration":141376,"SoundDuration":141376,"Delta":47107804},{"NoteNumber":51,"Velocity":46,"Duration":141376,"SoundDuration":141376,"Delta":47107804},{"NoteNumber":56,"Velocity":56,"Duration":141376,"SoundDuration":141376,"Delta":47107804},{"NoteNumber":70,"Velocity":66,"Duration":288240,"SoundDuration":288240,"Delta":47673308},{"NoteNumber":61,"Velocity":56,"Duration":288240,"SoundDuration":288240,"Delta":47673308},{"NoteNumber":66,"Velocity":58,"Duration":288240,"SoundDuration":288240,"Delta":47673308},{"NoteNumber":56,"Velocity":56,"Duration":288240,"SoundDuration":288240,"Delta":47673308},{"NoteNumber":34,"Velocity":38,"Duration":288240,"SoundDuration":288240,"Delta":47673308},{"NoteNumber":46,"Velocity":46,"Duration":288240,"SoundDuration":288240,"Delta":47673308},{"NoteNumber":56,"Velocity":58,"Duration":576479,"SoundDuration":576479,"Delta":47961548},{"NoteNumber":70,"Velocity":68,"Duration":576479,"SoundDuration":576479,"Delta":47961548},{"NoteNumber":62,"Velocity":58,"Duration":576479,"SoundDuration":576479,"Delta":47961548},{"NoteNumber":66,"Velocity":56,"Duration":576479,"SoundDuration":576479,"Delta":47961548},{"NoteNumber":35,"Velocity":41,"Duration":576479,"SoundDuration":576479,"Delta":47961548},{"NoteNumber":47,"Velocity":49,"Duration":576479,"SoundDuration":576479,"Delta":47961548},{"NoteNumber":68,"Velocity":62,"Duration":432360,"SoundDuration":432360,"Delta":48538028},{"NoteNumber":63,"Velocity":53,"Duration":432360,"SoundDuration":432360,"Delta":48538028},{"NoteNumber":66,"Velocity":62,"Duration":432360,"SoundDuration":432360,"Delta":48538028},{"NoteNumber":56,"Velocity":53,"Duration":432360,"SoundDuration":432360,"Delta":48538028},{"NoteNumber":36,"Velocity":39,"Duration":432360,"SoundDuration":432360,"Delta":48538028},{"NoteNumber":48,"Velocity":46,"Duration":432360,"SoundDuration":432360,"Delta":48538028},{"NoteNumber":53,"Velocity":49,"Duration":144120,"SoundDuration":144120,"Delta":48970388},{"NoteNumber":53,"Velocity":41,"Duration":1271993,"SoundDuration":1271993,"Delta":49114508},{"NoteNumber":61,"Velocity":41,"Duration":1271993,"SoundDuration":1271993,"Delta":49114508},{"NoteNumber":68,"Velocity":49,"Duration":1271993,"SoundDuration":1271993,"Delta":49114508},{"NoteNumber":37,"Velocity":31,"Duration":1271993,"SoundDuration":1271993,"Delta":49114508},{"NoteNumber":49,"Velocity":37,"Duration":1895914,"SoundDuration":1895914,"Delta":49114508},{"NoteNumber":56,"Velocity":41,"Duration":623920,"SoundDuration":623920,"Delta":50386502},{"NoteNumber":61,"Velocity":41,"Duration":623920,"SoundDuration":623920,"Delta":50386502},{"NoteNumber":65,"Velocity":49,"Duration":623920,"SoundDuration":623920,"Delta":50386502},{"NoteNumber":66,"Velocity":44,"Duration":623895,"SoundDuration":623895,"Delta":51010422},{"NoteNumber":58,"Velocity":37,"Duration":623895,"SoundDuration":623895,"Delta":51010422},{"NoteNumber":63,"Velocity":37,"Duration":623895,"SoundDuration":623895,"Delta":51010422},{"NoteNumber":42,"Velocity":39,"Duration":623895,"SoundDuration":623895,"Delta":51010422},{"NoteNumber":54,"Velocity":31,"Duration":2578892,"SoundDuration":2578892,"Delta":51634317},{"NoteNumber":60,"Velocity":37,"Duration":2578892,"SoundDuration":2578892,"Delta":51634317},{"NoteNumber":65,"Velocity":46,"Duration":1278227,"SoundDuration":1278227,"Delta":51634317},{"NoteNumber":44,"Velocity":36,"Duration":1597785,"SoundDuration":1597785,"Delta":51634317},{"NoteNumber":63,"Velocity":41,"Duration":1300664,"SoundDuration":1300664,"Delta":52912545},{"NoteNumber":45,"Velocity":37,"Duration":319556,"SoundDuration":319556,"Delta":53232102},{"NoteNumber":46,"Velocity":39,"Duration":319557,"SoundDuration":319557,"Delta":53551659},{"NoteNumber":44,"Velocity":37,"Duration":341993,"SoundDuration":341993,"Delta":53871216},{"NoteNumber":53,"Velocity":41,"Duration":814092,"SoundDuration":814092,"Delta":54054210},{"NoteNumber":61,"Velocity":41,"Duration":1389685,"SoundDuration":1389685,"Delta":54133709},{"NoteNumber":68,"Velocity":49,"Duration":655093,"SoundDuration":655093,"Delta":54213209},{"NoteNumber":37,"Velocity":33,"Duration":1310186,"SoundDuration":1310186,"Delta":54213209},{"NoteNumber":56,"Velocity":41,"Duration":655093,"SoundDuration":655093,"Delta":54868302},{"NoteNumber":65,"Velocity":49,"Duration":655093,"SoundDuration":655093,"Delta":54868302},{"NoteNumber":66,"Velocity":49,"Duration":312012,"SoundDuration":312012,"Delta":55523395},{"NoteNumber":58,"Velocity":41,"Duration":312012,"SoundDuration":312012,"Delta":55523395},{"NoteNumber":61,"Velocity":41,"Duration":634731,"SoundDuration":634731,"Delta":55523395},{"NoteNumber":49,"Velocity":39,"Duration":634731,"SoundDuration":634731,"Delta":55523395},{"NoteNumber":56,"Velocity":39,"Duration":322719,"SoundDuration":322719,"Delta":55835407},{"NoteNumber":65,"Velocity":47,"Duration":322719,"SoundDuration":322719,"Delta":55835407},{"NoteNumber":63,"Velocity":41,"Duration":631504,"SoundDuration":631504,"Delta":56158127},{"NoteNumber":60,"Velocity":37,"Duration":311947,"SoundDuration":311947,"Delta":56158127},{"NoteNumber":68,"Velocity":44,"Duration":311947,"SoundDuration":311947,"Delta":56158127},{"NoteNumber":42,"Velocity":39,"Duration":631504,"SoundDuration":631504,"Delta":56158127},{"NoteNumber":58,"Velocity":35,"Duration":319557,"SoundDuration":319557,"Delta":56470074},{"NoteNumber":66,"Velocity":41,"Duration":319557,"SoundDuration":319557,"Delta":56470074},{"NoteNumber":54,"Velocity":29,"Duration":2544235,"SoundDuration":2544235,"Delta":56789631},{"NoteNumber":60,"Velocity":36,"Duration":2544235,"SoundDuration":2544235,"Delta":56789631},{"NoteNumber":65,"Velocity":45,"Duration":1278227,"SoundDuration":1278227,"Delta":56789631},{"NoteNumber":44,"Velocity":29,"Duration":1591674,"SoundDuration":1591674,"Delta":56789631},{"NoteNumber":63,"Velocity":41,"Duration":1266007,"SoundDuration":1266007,"Delta":58067859},{"NoteNumber":45,"Velocity":37,"Duration":313447,"SoundDuration":313447,"Delta":58381306},{"NoteNumber":48,"Velocity":35,"Duration":213037,"SoundDuration":213037,"Delta":58694753},{"NoteNumber":46,"Velocity":34,"Duration":213038,"SoundDuration":213038,"Delta":58907791},{"NoteNumber":44,"Velocity":34,"Duration":213037,"SoundDuration":213037,"Delta":59120829},{"NoteNumber":68,"Velocity":52,"Duration":639113,"SoundDuration":639113,"Delta":59333867},{"NoteNumber":61,"Velocity":40,"Duration":1278227,"SoundDuration":1278227,"Delta":59333867},{"NoteNumber":53,"Velocity":41,"Duration":639113,"SoundDuration":639113,"Delta":59333867},{"NoteNumber":37,"Velocity":41,"Duration":639113,"SoundDuration":639113,"Delta":59333867},{"NoteNumber":64,"Velocity":44,"Duration":639113,"SoundDuration":639113,"Delta":59972981},{"NoteNumber":70,"Velocity":51,"Duration":639113,"SoundDuration":639113,"Delta":59972981},{"NoteNumber":55,"Velocity":44,"Duration":639113,"SoundDuration":639113,"Delta":59972981},{"NoteNumber":63,"Velocity":44,"Duration":623926,"SoundDuration":623926,"Delta":60612095},{"NoteNumber":72,"Velocity":52,"Duration":623926,"SoundDuration":623926,"Delta":60612095},{"NoteNumber":44,"Velocity":37,"Duration":1247821,"SoundDuration":1247821,"Delta":60612095},{"NoteNumber":54,"Velocity":44,"Duration":623926,"SoundDuration":623926,"Delta":60612095},{"NoteNumber":73,"Velocity":58,"Duration":467921,"SoundDuration":467921,"Delta":61236022},{"NoteNumber":66,"Velocity":49,"Duration":623894,"SoundDuration":623894,"Delta":61236022},{"NoteNumber":58,"Velocity":44,"Duration":467921,"SoundDuration":467921,"Delta":61236022},{"NoteNumber":72,"Velocity":53,"Duration":155973,"SoundDuration":155973,"Delta":61703943},{"NoteNumber":75,"Velocity":60,"Duration":155973,"SoundDuration":155973,"Delta":61703943},{"NoteNumber":56,"Velocity":49,"Duration":155973,"SoundDuration":155973,"Delta":61703943},{"NoteNumber":65,"Velocity":42,"Duration":623895,"SoundDuration":623895,"Delta":61859917},{"NoteNumber":73,"Velocity":47,"Duration":623895,"SoundDuration":623895,"Delta":61859917},{"NoteNumber":77,"Velocity":61,"Duration":623895,"SoundDuration":623895,"Delta":61859917},{"NoteNumber":49,"Velocity":39,"Duration":623895,"SoundDuration":623895,"Delta":61859917},{"NoteNumber":56,"Velocity":42,"Duration":623895,"SoundDuration":623895,"Delta":61859917},{"NoteNumber":64,"Velocity":44,"Duration":655093,"SoundDuration":655093,"Delta":62483812},{"NoteNumber":61,"Velocity":44,"Duration":655093,"SoundDuration":655093,"Delta":62483812},{"NoteNumber":70,"Velocity":51,"Duration":655093,"SoundDuration":655093,"Delta":62483812},{"NoteNumber":55,"Velocity":44,"Duration":655093,"SoundDuration":655093,"Delta":62483812},{"NoteNumber":60,"Velocity":44,"Duration":545973,"SoundDuration":545973,"Delta":63138905},{"NoteNumber":63,"Velocity":44,"Duration":1262349,"SoundDuration":1262349,"Delta":63138905},{"NoteNumber":72,"Velocity":52,"Duration":545973,"SoundDuration":545973,"Delta":63138905},{"NoteNumber":44,"Velocity":37,"Duration":623959,"SoundDuration":623959,"Delta":63138905},{"NoteNumber":54,"Velocity":44,"Duration":1262349,"SoundDuration":1262349,"Delta":63138905},{"NoteNumber":58,"Velocity":56,"Duration":716376,"SoundDuration":716376,"Delta":63684878},{"NoteNumber":73,"Velocity":58,"Duration":475168,"SoundDuration":475168,"Delta":63762865},{"NoteNumber":42,"Velocity":37,"Duration":556778,"SoundDuration":556778,"Delta":63762865},{"NoteNumber":75,"Velocity":60,"Duration":163221,"SoundDuration":163221,"Delta":64238034},{"NoteNumber":41,"Velocity":41,"Duration":734494,"SoundDuration":734494,"Delta":64319644},{"NoteNumber":65,"Velocity":53,"Duration":652884,"SoundDuration":652884,"Delta":64401255},{"NoteNumber":72,"Velocity":53,"Duration":1305768,"SoundDuration":1305768,"Delta":64401255},{"NoteNumber":77,"Velocity":63,"Duration":652884,"SoundDuration":652884,"Delta":64401255},{"NoteNumber":57,"Velocity":49,"Duration":652884,"SoundDuration":652884,"Delta":64401255},{"NoteNumber":75,"Velocity":60,"Duration":652884,"SoundDuration":652884,"Delta":65054139},{"NoteNumber":65,"Velocity":53,"Duration":1305768,"SoundDuration":1305768,"Delta":65054139},{"NoteNumber":33,"Velocity":40,"Duration":652884,"SoundDuration":652884,"Delta":65054139},{"NoteNumber":45,"Velocity":48,"Duration":652884,"SoundDuration":652884,"Delta":65054139},{"NoteNumber":61,"Velocity":53,"Duration":652884,"SoundDuration":652884,"Delta":65707023},{"NoteNumber":70,"Velocity":63,"Duration":652884,"SoundDuration":652884,"Delta":65707023},{"NoteNumber":73,"Velocity":63,"Duration":652884,"SoundDuration":652884,"Delta":65707023},{"NoteNumber":34,"Velocity":41,"Duration":652884,"SoundDuration":652884,"Delta":65707023},{"NoteNumber":46,"Velocity":49,"Duration":652884,"SoundDuration":652884,"Delta":65707023},{"NoteNumber":64,"Velocity":53,"Duration":472540,"SoundDuration":472540,"Delta":66359907},{"NoteNumber":68,"Velocity":53,"Duration":472540,"SoundDuration":472540,"Delta":66359907},{"NoteNumber":72,"Velocity":63,"Duration":472540,"SoundDuration":472540,"Delta":66359907},{"NoteNumber":36,"Velocity":41,"Duration":472540,"SoundDuration":472540,"Delta":66359907},{"NoteNumber":48,"Velocity":49,"Duration":472540,"SoundDuration":472540,"Delta":66359907},{"NoteNumber":65,"Velocity":57,"Duration":157513,"SoundDuration":157513,"Delta":66832447},{"NoteNumber":70,"Velocity":57,"Duration":157513,"SoundDuration":157513,"Delta":66832447},{"NoteNumber":37,"Velocity":37,"Duration":157513,"SoundDuration":157513,"Delta":66832447},{"NoteNumber":49,"Velocity":45,"Duration":157513,"SoundDuration":157513,"Delta":66832447},{"NoteNumber":59,"Velocity":51,"Duration":642566,"SoundDuration":642566,"Delta":66989961},{"NoteNumber":65,"Velocity":56,"Duration":642566,"SoundDuration":642566,"Delta":66989961},{"NoteNumber":68,"Velocity":61,"Duration":642566,"SoundDuration":642566,"Delta":66989961},{"NoteNumber":38,"Velocity":41,"Duration":642566,"SoundDuration":642566,"Delta":66989961},{"NoteNumber":50,"Velocity":49,"Duration":642566,"SoundDuration":642566,"Delta":66989961},{"NoteNumber":63,"Velocity":59,"Duration":472540,"SoundDuration":472540,"Delta":67632527},{"NoteNumber":54,"Velocity":47,"Duration":472540,"SoundDuration":472540,"Delta":67632527},{"NoteNumber":58,"Velocity":49,"Duration":472540,"SoundDuration":472540,"Delta":67632527},{"NoteNumber":66,"Velocity":59,"Duration":472540,"SoundDuration":472540,"Delta":67632527},{"NoteNumber":39,"Velocity":41,"Duration":472540,"SoundDuration":472540,"Delta":67632527},{"NoteNumber":51,"Velocity":49,"Duration":472540,"SoundDuration":472540,"Delta":67632527},{"NoteNumber":56,"Velocity":47,"Duration":157513,"SoundDuration":157513,"Delta":68105067},{"NoteNumber":61,"Velocity":56,"Duration":157513,"SoundDuration":157513,"Delta":68105067},{"NoteNumber":65,"Velocity":56,"Duration":157513,"SoundDuration":157513,"Delta":68105067},{"NoteNumber":41,"Velocity":37,"Duration":157513,"SoundDuration":157513,"Delta":68105067},{"NoteNumber":53,"Velocity":45,"Duration":157513,"SoundDuration":157513,"Delta":68105067},{"NoteNumber":63,"Velocity":59,"Duration":962611,"SoundDuration":962611,"Delta":68262581},{"NoteNumber":58,"Velocity":49,"Duration":630054,"SoundDuration":630054,"Delta":68262581},{"NoteNumber":61,"Velocity":59,"Duration":630054,"SoundDuration":630054,"Delta":68262581},{"NoteNumber":42,"Velocity":41,"Duration":630054,"SoundDuration":630054,"Delta":68262581},{"NoteNumber":54,"Velocity":49,"Duration":630054,"SoundDuration":630054,"Delta":68262581},{"NoteNumber":54,"Velocity":47,"Duration":507729,"SoundDuration":507729,"Delta":68892635},{"NoteNumber":60,"Velocity":53,"Duration":507729,"SoundDuration":507729,"Delta":68892635},{"NoteNumber":44,"Velocity":45,"Duration":682901,"SoundDuration":682901,"Delta":68892635},{"NoteNumber":64,"Velocity":60,"Duration":175172,"SoundDuration":175172,"Delta":69225192},{"NoteNumber":65,"Velocity":55,"Duration":1453400,"SoundDuration":1453400,"Delta":69400364},{"NoteNumber":73,"Velocity":60,"Duration":1365814,"SoundDuration":1365814,"Delta":69487951},{"NoteNumber":80,"Velocity":72,"Duration":1278227,"SoundDuration":1278227,"Delta":69575537},{"NoteNumber":37,"Velocity":39,"Duration":213037,"SoundDuration":213037,"Delta":69575537},{"NoteNumber":55,"Velocity":33,"Duration":213037,"SoundDuration":213037,"Delta":69788575},{"NoteNumber":56,"Velocity":31,"Duration":213038,"SoundDuration":213038,"Delta":70001613},{"NoteNumber":58,"Velocity":37,"Duration":213037,"SoundDuration":213037,"Delta":70214651},{"NoteNumber":56,"Velocity":31,"Duration":213037,"SoundDuration":213037,"Delta":70427689},{"NoteNumber":44,"Velocity":31,"Duration":213037,"SoundDuration":213037,"Delta":70640727},{"NoteNumber":68,"Velocity":49,"Duration":623895,"SoundDuration":623895,"Delta":70853765},{"NoteNumber":73,"Velocity":49,"Duration":623895,"SoundDuration":623895,"Delta":70853765},{"NoteNumber":77,"Velocity":60,"Duration":623895,"SoundDuration":623895,"Delta":70853765},{"NoteNumber":49,"Velocity":39,"Duration":207965,"SoundDuration":207965,"Delta":70853765},{"NoteNumber":55,"Velocity":35,"Duration":207965,"SoundDuration":207965,"Delta":71061730},{"NoteNumber":56,"Velocity":35,"Duration":207965,"SoundDuration":207965,"Delta":71269695},{"NoteNumber":65,"Velocity":34,"Duration":319557,"SoundDuration":319557,"Delta":71477660},{"NoteNumber":68,"Velocity":39,"Duration":319557,"SoundDuration":319557,"Delta":71477660},{"NoteNumber":58,"Velocity":37,"Duration":213037,"SoundDuration":213037,"Delta":71477660},{"NoteNumber":56,"Velocity":33,"Duration":217371,"SoundDuration":217371,"Delta":71690698},{"NoteNumber":70,"Velocity":41,"Duration":332557,"SoundDuration":332557,"Delta":71797217},{"NoteNumber":75,"Velocity":41,"Duration":332557,"SoundDuration":332557,"Delta":71797217},{"NoteNumber":78,"Velocity":55,"Duration":332557,"SoundDuration":332557,"Delta":71797217},{"NoteNumber":44,"Velocity":33,"Duration":221705,"SoundDuration":221705,"Delta":71908069},{"NoteNumber":77,"Velocity":65,"Duration":946450,"SoundDuration":946450,"Delta":72129774},{"NoteNumber":66,"Velocity":38,"Duration":1266007,"SoundDuration":1266007,"Delta":72129774},{"NoteNumber":72,"Velocity":45,"Duration":1266007,"SoundDuration":1266007,"Delta":72129774},{"NoteNumber":51,"Velocity":39,"Duration":208964,"SoundDuration":208964,"Delta":72129774},{"NoteNumber":55,"Velocity":35,"Duration":208964,"SoundDuration":208964,"Delta":72338739},{"NoteNumber":56,"Velocity":35,"Duration":208964,"SoundDuration":208964,"Delta":72547704},{"NoteNumber":58,"Velocity":37,"Duration":213037,"SoundDuration":213037,"Delta":72756668},{"NoteNumber":56,"Velocity":33,"Duration":213037,"SoundDuration":213037,"Delta":72969706},{"NoteNumber":75,"Velocity":55,"Duration":319557,"SoundDuration":319557,"Delta":73076225},{"NoteNumber":44,"Velocity":33,"Duration":213038,"SoundDuration":213038,"Delta":73182744},{"NoteNumber":70,"Velocity":58,"Duration":311947,"SoundDuration":311947,"Delta":73395782},{"NoteNumber":54,"Velocity":39,"Duration":207965,"SoundDuration":207965,"Delta":73395782},{"NoteNumber":55,"Velocity":35,"Duration":207965,"SoundDuration":207965,"Delta":73603747},{"NoteNumber":68,"Velocity":52,"Duration":311947,"SoundDuration":311947,"Delta":73707730},{"NoteNumber":56,"Velocity":35,"Duration":207965,"SoundDuration":207965,"Delta":73811712},{"NoteNumber":61,"Velocity":61,"Duration":321130,"SoundDuration":321130,"Delta":74019677},{"NoteNumber":58,"Velocity":37,"Duration":214087,"SoundDuration":214087,"Delta":74019677},{"NoteNumber":56,"Velocity":33,"Duration":218451,"SoundDuration":218451,"Delta":74233764},{"NoteNumber":63,"Velocity":55,"Duration":167112,"SoundDuration":167112,"Delta":74340808},{"NoteNumber":44,"Velocity":33,"Duration":222816,"SoundDuration":222816,"Delta":74452216},{"NoteNumber":65,"Velocity":62,"Duration":167112,"SoundDuration":167112,"Delta":74507920},{"NoteNumber":65,"Velocity":55,"Duration":639114,"SoundDuration":639114,"Delta":74675032},{"NoteNumber":73,"Velocity":57,"Duration":1278227,"SoundDuration":1278227,"Delta":74675032},{"NoteNumber":80,"Velocity":68,"Duration":639114,"SoundDuration":639114,"Delta":74675032},{"NoteNumber":49,"Velocity":39,"Duration":159778,"SoundDuration":159778,"Delta":74675032},{"NoteNumber":55,"Velocity":34,"Duration":159778,"SoundDuration":159778,"Delta":74994589},{"NoteNumber":56,"Velocity":33,"Duration":159778,"SoundDuration":159778,"Delta":75154368},{"NoteNumber":68,"Velocity":49,"Duration":639113,"SoundDuration":639113,"Delta":75314146},{"NoteNumber":77,"Velocity":62,"Duration":639113,"SoundDuration":639113,"Delta":75314146},{"NoteNumber":58,"Velocity":37,"Duration":159778,"SoundDuration":159778,"Delta":75314146},{"NoteNumber":56,"Velocity":31,"Duration":143800,"SoundDuration":143800,"Delta":75473925},{"NoteNumber":56,"Velocity":37,"Duration":159778,"SoundDuration":159778,"Delta":75633703},{"NoteNumber":44,"Velocity":37,"Duration":159778,"SoundDuration":159778,"Delta":75793482},{"NoteNumber":78,"Velocity":66,"Duration":311947,"SoundDuration":311947,"Delta":75953260},{"NoteNumber":73,"Velocity":57,"Duration":623895,"SoundDuration":623895,"Delta":75953260},{"NoteNumber":70,"Velocity":55,"Duration":311947,"SoundDuration":311947,"Delta":75953260},{"NoteNumber":49,"Velocity":39,"Duration":155973,"SoundDuration":155973,"Delta":75953260},{"NoteNumber":68,"Velocity":46,"Duration":311947,"SoundDuration":311947,"Delta":76265208},{"NoteNumber":77,"Velocity":55,"Duration":311947,"SoundDuration":311947,"Delta":76265208},{"NoteNumber":55,"Velocity":35,"Duration":155973,"SoundDuration":155973,"Delta":76265208},{"NoteNumber":56,"Velocity":35,"Duration":155973,"SoundDuration":155973,"Delta":76421181},{"NoteNumber":68,"Velocity":48,"Duration":213037,"SoundDuration":213037,"Delta":76577155},{"NoteNumber":77,"Velocity":57,"Duration":213037,"SoundDuration":213037,"Delta":76577155},{"NoteNumber":58,"Velocity":37,"Duration":159778,"SoundDuration":159778,"Delta":76577155},{"NoteNumber":56,"Velocity":33,"Duration":143800,"SoundDuration":143800,"Delta":76736934},{"NoteNumber":72,"Velocity":46,"Duration":213037,"SoundDuration":213037,"Delta":76790193},{"NoteNumber":80,"Velocity":55,"Duration":213037,"SoundDuration":213037,"Delta":76790193},{"NoteNumber":56,"Velocity":37,"Duration":159778,"SoundDuration":159778,"Delta":76896712},{"NoteNumber":70,"Velocity":46,"Duration":213038,"SoundDuration":213038,"Delta":77003231},{"NoteNumber":78,"Velocity":55,"Duration":213038,"SoundDuration":213038,"Delta":77003231},{"NoteNumber":44,"Velocity":31,"Duration":159778,"SoundDuration":159778,"Delta":77056491},{"NoteNumber":77,"Velocity":61,"Duration":946450,"SoundDuration":946450,"Delta":77216269},{"NoteNumber":66,"Velocity":32,"Duration":1266007,"SoundDuration":1266007,"Delta":77216269},{"NoteNumber":72,"Velocity":38,"Duration":1266007,"SoundDuration":1266007,"Delta":77216269},{"NoteNumber":51,"Velocity":39,"Duration":156723,"SoundDuration":156723,"Delta":77216269},{"NoteNumber":55,"Velocity":35,"Duration":156723,"SoundDuration":156723,"Delta":77529716},{"NoteNumber":56,"Velocity":35,"Duration":156723,"SoundDuration":156723,"Delta":77686440},{"NoteNumber":58,"Velocity":37,"Duration":159778,"SoundDuration":159778,"Delta":77843163},{"NoteNumber":56,"Velocity":33,"Duration":143800,"SoundDuration":143800,"Delta":78002942},{"NoteNumber":75,"Velocity":60,"Duration":319557,"SoundDuration":319557,"Delta":78162720},{"NoteNumber":56,"Velocity":37,"Duration":159778,"SoundDuration":159778,"Delta":78162720},{"NoteNumber":44,"Velocity":33,"Duration":159778,"SoundDuration":159778,"Delta":78322499},{"NoteNumber":70,"Velocity":60,"Duration":207965,"SoundDuration":207965,"Delta":78482277},{"NoteNumber":54,"Velocity":39,"Duration":311947,"SoundDuration":311947,"Delta":78482277},{"NoteNumber":68,"Velocity":51,"Duration":207965,"SoundDuration":207965,"Delta":78690242},{"NoteNumber":55,"Velocity":35,"Duration":155973,"SoundDuration":155973,"Delta":78794225},{"NoteNumber":70,"Velocity":51,"Duration":207965,"SoundDuration":207965,"Delta":78898207},{"NoteNumber":56,"Velocity":35,"Duration":155973,"SoundDuration":155973,"Delta":78950198},{"NoteNumber":68,"Velocity":58,"Duration":214087,"SoundDuration":214087,"Delta":79106172},{"NoteNumber":58,"Velocity":39,"Duration":160565,"SoundDuration":160565,"Delta":79106172},{"NoteNumber":56,"Velocity":35,"Duration":144508,"SoundDuration":144508,"Delta":79266737},{"NoteNumber":61,"Velocity":53,"Duration":220783,"SoundDuration":220783,"Delta":79320259},{"NoteNumber":56,"Velocity":39,"Duration":170609,"SoundDuration":170609,"Delta":79427303},{"NoteNumber":63,"Velocity":53,"Duration":227479,"SoundDuration":227479,"Delta":79541043},{"NoteNumber":44,"Velocity":35,"Duration":170609,"SoundDuration":170609,"Delta":79597912},{"NoteNumber":68,"Velocity":59,"Duration":642261,"SoundDuration":642261,"Delta":79768522},{"NoteNumber":73,"Velocity":58,"Duration":1275238,"SoundDuration":1275238,"Delta":79768522},{"NoteNumber":80,"Velocity":73,"Duration":1275238,"SoundDuration":1275238,"Delta":79768522},{"NoteNumber":49,"Velocity":44,"Duration":160565,"SoundDuration":160565,"Delta":79768522},{"NoteNumber":56,"Velocity":39,"Duration":160565,"SoundDuration":160565,"Delta":79929087},{"NoteNumber":58,"Velocity":39,"Duration":160565,"SoundDuration":160565,"Delta":80089653},{"NoteNumber":56,"Velocity":39,"Duration":160565,"SoundDuration":160565,"Delta":80250218},{"NoteNumber":70,"Velocity":57,"Duration":632977,"SoundDuration":632977,"Delta":80410783},{"NoteNumber":82,"Velocity":68,"Duration":632977,"SoundDuration":632977,"Delta":80410783},{"NoteNumber":65,"Velocity":44,"Duration":158244,"SoundDuration":158244,"Delta":80410783},{"NoteNumber":56,"Velocity":40,"Duration":158244,"SoundDuration":158244,"Delta":80569028},{"NoteNumber":58,"Velocity":40,"Duration":158244,"SoundDuration":158244,"Delta":80727272},{"NoteNumber":56,"Velocity":41,"Duration":158244,"SoundDuration":158244,"Delta":80885517},{"NoteNumber":84,"Velocity":73,"Duration":632978,"SoundDuration":632978,"Delta":81043761},{"NoteNumber":80,"Velocity":61,"Duration":1262259,"SoundDuration":1262259,"Delta":81043761},{"NoteNumber":78,"Velocity":61,"Duration":1262259,"SoundDuration":1262259,"Delta":81043761},{"NoteNumber":72,"Velocity":61,"Duration":632978,"SoundDuration":632978,"Delta":81043761},{"NoteNumber":44,"Velocity":45,"Duration":158244,"SoundDuration":158244,"Delta":81043761},{"NoteNumber":56,"Velocity":40,"Duration":158244,"SoundDuration":158244,"Delta":81202006},{"NoteNumber":58,"Velocity":41,"Duration":158244,"SoundDuration":158244,"Delta":81360250},{"NoteNumber":56,"Velocity":41,"Duration":158244,"SoundDuration":158244,"Delta":81518495},{"NoteNumber":73,"Velocity":68,"Duration":467921,"SoundDuration":467921,"Delta":81676739},{"NoteNumber":85,"Velocity":75,"Duration":467921,"SoundDuration":467921,"Delta":81676739},{"NoteNumber":66,"Velocity":47,"Duration":155973,"SoundDuration":155973,"Delta":81676739},{"NoteNumber":56,"Velocity":44,"Duration":155973,"SoundDuration":155973,"Delta":81832713},{"NoteNumber":58,"Velocity":44,"Duration":155973,"SoundDuration":155973,"Delta":81988687},{"NoteNumber":75,"Velocity":70,"Duration":161359,"SoundDuration":161359,"Delta":82144660},{"NoteNumber":87,"Velocity":73,"Duration":161359,"SoundDuration":161359,"Delta":82144660},{"NoteNumber":56,"Velocity":44,"Duration":161359,"SoundDuration":161359,"Delta":82144660},{"NoteNumber":80,"Velocity":66,"Duration":1265956,"SoundDuration":1265956,"Delta":82306020},{"NoteNumber":77,"Velocity":66,"Duration":1265956,"SoundDuration":1265956,"Delta":82306020},{"NoteNumber":89,"Velocity":78,"Duration":632977,"SoundDuration":632977,"Delta":82306020},{"NoteNumber":49,"Velocity":48,"Duration":158244,"SoundDuration":158244,"Delta":82306020},{"NoteNumber":56,"Velocity":42,"Duration":158244,"SoundDuration":158244,"Delta":82464265},{"NoteNumber":58,"Velocity":42,"Duration":158244,"SoundDuration":158244,"Delta":82622509},{"NoteNumber":56,"Velocity":42,"Duration":158244,"SoundDuration":158244,"Delta":82780754},{"NoteNumber":82,"Velocity":73,"Duration":632978,"SoundDuration":632978,"Delta":82938998},{"NoteNumber":70,"Velocity":61,"Duration":632978,"SoundDuration":632978,"Delta":82938998},{"NoteNumber":65,"Velocity":49,"Duration":158244,"SoundDuration":158244,"Delta":82938998},{"NoteNumber":56,"Velocity":46,"Duration":158244,"SoundDuration":158244,"Delta":83097243},{"NoteNumber":58,"Velocity":46,"Duration":158244,"SoundDuration":158244,"Delta":83255487},{"NoteNumber":56,"Velocity":46,"Duration":158244,"SoundDuration":158244,"Delta":83413732},{"NoteNumber":78,"Velocity":66,"Duration":632977,"SoundDuration":632977,"Delta":83571976},{"NoteNumber":80,"Velocity":66,"Duration":632977,"SoundDuration":632977,"Delta":83571976},{"NoteNumber":72,"Velocity":66,"Duration":632977,"SoundDuration":632977,"Delta":83571976},{"NoteNumber":84,"Velocity":78,"Duration":632977,"SoundDuration":632977,"Delta":83571976},{"NoteNumber":44,"Velocity":50,"Duration":158244,"SoundDuration":158244,"Delta":83571976},{"NoteNumber":56,"Velocity":46,"Duration":158244,"SoundDuration":158244,"Delta":83730221},{"NoteNumber":58,"Velocity":46,"Duration":158244,"SoundDuration":158244,"Delta":83888465},{"NoteNumber":56,"Velocity":46,"Duration":158244,"SoundDuration":158244,"Delta":84046710},{"NoteNumber":73,"Velocity":66,"Duration":478651,"SoundDuration":478651,"Delta":84204954},{"NoteNumber":85,"Velocity":79,"Duration":478651,"SoundDuration":478651,"Delta":84204954},{"NoteNumber":66,"Velocity":52,"Duration":158244,"SoundDuration":158244,"Delta":84204954},{"NoteNumber":56,"Velocity":49,"Duration":158244,"SoundDuration":158244,"Delta":84363199},{"NoteNumber":58,"Velocity":49,"Duration":162162,"SoundDuration":162162,"Delta":84521443},{"NoteNumber":75,"Velocity":64,"Duration":162162,"SoundDuration":162162,"Delta":84683605},{"NoteNumber":87,"Velocity":77,"Duration":162162,"SoundDuration":162162,"Delta":84683605},{"NoteNumber":56,"Velocity":49,"Duration":162162,"SoundDuration":162162,"Delta":84683605},{"NoteNumber":84,"Velocity":66,"Duration":1284645,"SoundDuration":1284645,"Delta":84845768},{"NoteNumber":87,"Velocity":74,"Duration":1284645,"SoundDuration":1284645,"Delta":84845768},{"NoteNumber":77,"Velocity":70,"Duration":648648,"SoundDuration":648648,"Delta":84845768},{"NoteNumber":89,"Velocity":81,"Duration":648648,"SoundDuration":648648,"Delta":84845768},{"NoteNumber":45,"Velocity":57,"Duration":162162,"SoundDuration":162162,"Delta":84845768},{"NoteNumber":52,"Velocity":51,"Duration":162162,"SoundDuration":162162,"Delta":85007930},{"NoteNumber":53,"Velocity":51,"Duration":162162,"SoundDuration":162162,"Delta":85170092},{"NoteNumber":60,"Velocity":51,"Duration":162162,"SoundDuration":162162,"Delta":85332254},{"NoteNumber":78,"Velocity":66,"Duration":949443,"SoundDuration":949443,"Delta":85494417},{"NoteNumber":90,"Velocity":78,"Duration":949443,"SoundDuration":949443,"Delta":85494417},{"NoteNumber":57,"Velocity":58,"Duration":158999,"SoundDuration":158999,"Delta":85494417},{"NoteNumber":64,"Velocity":53,"Duration":158999,"SoundDuration":158999,"Delta":85653416},{"NoteNumber":65,"Velocity":53,"Duration":158999,"SoundDuration":158999,"Delta":85812415},{"NoteNumber":72,"Velocity":53,"Duration":158999,"SoundDuration":158999,"Delta":85971414},{"NoteNumber":82,"Velocity":74,"Duration":1281605,"SoundDuration":1281605,"Delta":86130414},{"NoteNumber":85,"Velocity":74,"Duration":1281605,"SoundDuration":1281605,"Delta":86130414},{"NoteNumber":46,"Velocity":59,"Duration":156723,"SoundDuration":156723,"Delta":86130414},{"NoteNumber":52,"Velocity":52,"Duration":156723,"SoundDuration":156723,"Delta":86287137},{"NoteNumber":89,"Velocity":77,"Duration":322719,"SoundDuration":322719,"Delta":86443861},{"NoteNumber":77,"Velocity":64,"Duration":322719,"SoundDuration":322719,"Delta":86443861},{"NoteNumber":53,"Velocity":52,"Duration":161359,"SoundDuration":161359,"Delta":86443861},{"NoteNumber":61,"Velocity":53,"Duration":161359,"SoundDuration":161359,"Delta":86605220},{"NoteNumber":76,"Velocity":63,"Duration":322719,"SoundDuration":322719,"Delta":86766580},{"NoteNumber":88,"Velocity":75,"Duration":322719,"SoundDuration":322719,"Delta":86766580},{"NoteNumber":58,"Velocity":60,"Duration":161359,"SoundDuration":161359,"Delta":86766580},{"NoteNumber":64,"Velocity":55,"Duration":161359,"SoundDuration":161359,"Delta":86927940},{"NoteNumber":77,"Velocity":63,"Duration":322719,"SoundDuration":322719,"Delta":87089300},{"NoteNumber":89,"Velocity":75,"Duration":322719,"SoundDuration":322719,"Delta":87089300},{"NoteNumber":65,"Velocity":55,"Duration":161359,"SoundDuration":161359,"Delta":87089300},{"NoteNumber":73,"Velocity":56,"Duration":161359,"SoundDuration":161359,"Delta":87250659},{"NoteNumber":80,"Velocity":72,"Duration":645438,"SoundDuration":645438,"Delta":87412019},{"NoteNumber":90,"Velocity":71,"Duration":1278416,"SoundDuration":1278416,"Delta":87412019},{"NoteNumber":92,"Velocity":85,"Duration":645438,"SoundDuration":645438,"Delta":87412019},{"NoteNumber":87,"Velocity":57,"Duration":1278416,"SoundDuration":1278416,"Delta":87412019},{"NoteNumber":48,"Velocity":61,"Duration":161359,"SoundDuration":161359,"Delta":87412019},{"NoteNumber":55,"Velocity":55,"Duration":161359,"SoundDuration":161359,"Delta":87573379},{"NoteNumber":56,"Velocity":55,"Duration":161359,"SoundDuration":161359,"Delta":87734739},{"NoteNumber":63,"Velocity":55,"Duration":161359,"SoundDuration":161359,"Delta":87896098},{"NoteNumber":82,"Velocity":70,"Duration":940543,"SoundDuration":940543,"Delta":88057458},{"NoteNumber":94,"Velocity":84,"Duration":940543,"SoundDuration":940543,"Delta":88057458},{"NoteNumber":60,"Velocity":62,"Duration":158244,"SoundDuration":158244,"Delta":88057458},{"NoteNumber":67,"Velocity":57,"Duration":158244,"SoundDuration":158244,"Delta":88215703},{"NoteNumber":68,"Velocity":57,"Duration":158244,"SoundDuration":158244,"Delta":88373947},{"NoteNumber":75,"Velocity":57,"Duration":158244,"SoundDuration":158244,"Delta":88532192},{"NoteNumber":89,"Velocity":81,"Duration":624054,"SoundDuration":624054,"Delta":88690436},{"NoteNumber":50,"Velocity":62,"Duration":153783,"SoundDuration":153783,"Delta":88690436},{"NoteNumber":57,"Velocity":56,"Duration":153782,"SoundDuration":153782,"Delta":88844219},{"NoteNumber":92,"Velocity":80,"Duration":316489,"SoundDuration":316489,"Delta":88998002},{"NoteNumber":80,"Velocity":67,"Duration":316489,"SoundDuration":316489,"Delta":88998002},{"NoteNumber":58,"Velocity":57,"Duration":158244,"SoundDuration":158244,"Delta":88998002},{"NoteNumber":65,"Velocity":57,"Duration":158244,"SoundDuration":158244,"Delta":89156247},{"NoteNumber":78,"Velocity":70,"Duration":474733,"SoundDuration":474733,"Delta":89314491},{"NoteNumber":90,"Velocity":84,"Duration":474733,"SoundDuration":474733,"Delta":89314491},{"NoteNumber":82,"Velocity":62,"Duration":632977,"SoundDuration":632977,"Delta":89314491},{"NoteNumber":62,"Velocity":63,"Duration":158244,"SoundDuration":158244,"Delta":89314491},{"NoteNumber":69,"Velocity":58,"Duration":158244,"SoundDuration":158244,"Delta":89472736},{"NoteNumber":70,"Velocity":59,"Duration":158244,"SoundDuration":158244,"Delta":89630980},{"NoteNumber":89,"Velocity":78,"Duration":158244,"SoundDuration":158244,"Delta":89789225},{"NoteNumber":77,"Velocity":66,"Duration":158244,"SoundDuration":158244,"Delta":89789225},{"NoteNumber":82,"Velocity":73,"Duration":631504,"SoundDuration":631504,"Delta":89947469},{"NoteNumber":80,"Velocity":73,"Duration":311947,"SoundDuration":311947,"Delta":89947469},{"NoteNumber":92,"Velocity":86,"Duration":311947,"SoundDuration":311947,"Delta":89947469},{"NoteNumber":39,"Velocity":59,"Duration":155973,"SoundDuration":155973,"Delta":89947469},{"NoteNumber":46,"Velocity":52,"Duration":155973,"SoundDuration":155973,"Delta":90103443},{"NoteNumber":78,"Velocity":60,"Duration":319557,"SoundDuration":319557,"Delta":90259417},{"NoteNumber":90,"Velocity":72,"Duration":319557,"SoundDuration":319557,"Delta":90259417},{"NoteNumber":51,"Velocity":52,"Duration":159778,"SoundDuration":159778,"Delta":90259417},{"NoteNumber":58,"Velocity":52,"Duration":159778,"SoundDuration":159778,"Delta":90419195},{"NoteNumber":89,"Velocity":72,"Duration":313446,"SoundDuration":313446,"Delta":90578974},{"NoteNumber":82,"Velocity":54,"Duration":634577,"SoundDuration":634577,"Delta":90578974},{"NoteNumber":77,"Velocity":57,"Duration":313446,"SoundDuration":313446,"Delta":90578974},{"NoteNumber":41,"Velocity":59,"Duration":156723,"SoundDuration":156723,"Delta":90578974},{"NoteNumber":46,"Velocity":52,"Duration":156723,"SoundDuration":156723,"Delta":90735697},{"NoteNumber":74,"Velocity":60,"Duration":321130,"SoundDuration":321130,"Delta":90892421},{"NoteNumber":86,"Velocity":72,"Duration":321130,"SoundDuration":321130,"Delta":90892421},{"NoteNumber":50,"Velocity":52,"Duration":160565,"SoundDuration":160565,"Delta":90892421},{"NoteNumber":56,"Velocity":52,"Duration":160565,"SoundDuration":160565,"Delta":91052986},{"NoteNumber":82,"Velocity":54,"Duration":631504,"SoundDuration":631504,"Delta":91213551},{"NoteNumber":89,"Velocity":81,"Duration":311947,"SoundDuration":311947,"Delta":91213551},{"NoteNumber":77,"Velocity":69,"Duration":311947,"SoundDuration":311947,"Delta":91213551},{"NoteNumber":42,"Velocity":62,"Duration":155973,"SoundDuration":155973,"Delta":91213551},{"NoteNumber":46,"Velocity":52,"Duration":155973,"SoundDuration":155973,"Delta":91369525},{"NoteNumber":87,"Velocity":71,"Duration":319557,"SoundDuration":319557,"Delta":91525499},{"NoteNumber":75,"Velocity":60,"Duration":319557,"SoundDuration":319557,"Delta":91525499},{"NoteNumber":51,"Velocity":52,"Duration":159778,"SoundDuration":159778,"Delta":91525499},{"NoteNumber":58,"Velocity":52,"Duration":159778,"SoundDuration":159778,"Delta":91685277},{"NoteNumber":76,"Velocity":55,"Duration":623895,"SoundDuration":623895,"Delta":91845056},{"NoteNumber":82,"Velocity":72,"Duration":311947,"SoundDuration":311947,"Delta":91845056},{"NoteNumber":70,"Velocity":61,"Duration":311947,"SoundDuration":311947,"Delta":91845056},{"NoteNumber":43,"Velocity":61,"Duration":155973,"SoundDuration":155973,"Delta":91845056},{"NoteNumber":49,"Velocity":52,"Duration":155973,"SoundDuration":155973,"Delta":92001029},{"NoteNumber":85,"Velocity":67,"Duration":311947,"SoundDuration":311947,"Delta":92157003},{"NoteNumber":73,"Velocity":56,"Duration":311947,"SoundDuration":311947,"Delta":92157003},{"NoteNumber":52,"Velocity":52,"Duration":155973,"SoundDuration":155973,"Delta":92157003},{"NoteNumber":58,"Velocity":52,"Duration":155973,"SoundDuration":155973,"Delta":92312977},{"NoteNumber":70,"Velocity":66,"Duration":311947,"SoundDuration":311947,"Delta":92468951},{"NoteNumber":77,"Velocity":61,"Duration":633077,"SoundDuration":633077,"Delta":92468951},{"NoteNumber":82,"Velocity":80,"Duration":311947,"SoundDuration":311947,"Delta":92468951},{"NoteNumber":44,"Velocity":59,"Duration":155973,"SoundDuration":155973,"Delta":92468951},{"NoteNumber":49,"Velocity":52,"Duration":155973,"SoundDuration":155973,"Delta":92624924},{"NoteNumber":80,"Velocity":73,"Duration":321130,"SoundDuration":321130,"Delta":92780898},{"NoteNumber":68,"Velocity":61,"Duration":321130,"SoundDuration":321130,"Delta":92780898},{"NoteNumber":53,"Velocity":52,"Duration":160565,"SoundDuration":160565,"Delta":92780898},{"NoteNumber":61,"Velocity":52,"Duration":160565,"SoundDuration":160565,"Delta":92941463},{"NoteNumber":73,"Velocity":73,"Duration":642261,"SoundDuration":642261,"Delta":93102029},{"NoteNumber":66,"Velocity":61,"Duration":321130,"SoundDuration":321130,"Delta":93102029},{"NoteNumber":61,"Velocity":61,"Duration":321130,"SoundDuration":321130,"Delta":93102029},{"NoteNumber":46,"Velocity":58,"Duration":160565,"SoundDuration":160565,"Delta":93102029},{"NoteNumber":49,"Velocity":52,"Duration":160565,"SoundDuration":160565,"Delta":93262594},{"NoteNumber":66,"Velocity":62,"Duration":321130,"SoundDuration":321130,"Delta":93423159},{"NoteNumber":78,"Velocity":74,"Duration":321130,"SoundDuration":321130,"Delta":93423159},{"NoteNumber":54,"Velocity":52,"Duration":160565,"SoundDuration":160565,"Delta":93423159},{"NoteNumber":61,"Velocity":52,"Duration":160565,"SoundDuration":160565,"Delta":93583724},{"NoteNumber":61,"Velocity":67,"Duration":637619,"SoundDuration":637619,"Delta":93744290},{"NoteNumber":75,"Velocity":80,"Duration":637619,"SoundDuration":637619,"Delta":93744290},{"NoteNumber":66,"Velocity":67,"Duration":637619,"SoundDuration":637619,"Delta":93744290},{"NoteNumber":73,"Velocity":67,"Duration":637619,"SoundDuration":637619,"Delta":93744290},{"NoteNumber":44,"Velocity":52,"Duration":160565,"SoundDuration":160565,"Delta":93744290},{"NoteNumber":51,"Velocity":47,"Duration":160565,"SoundDuration":160565,"Delta":93904855},{"NoteNumber":56,"Velocity":47,"Duration":158244,"SoundDuration":158244,"Delta":94065420},{"NoteNumber":61,"Velocity":47,"Duration":158244,"SoundDuration":158244,"Delta":94223665},{"NoteNumber":65,"Velocity":63,"Duration":309023,"SoundDuration":309023,"Delta":94381909},{"NoteNumber":77,"Velocity":75,"Duration":309023,"SoundDuration":309023,"Delta":94381909},{"NoteNumber":72,"Velocity":51,"Duration":625512,"SoundDuration":625512,"Delta":94381909},{"NoteNumber":42,"Velocity":55,"Duration":154511,"SoundDuration":154511,"Delta":94381909},{"NoteNumber":48,"Velocity":47,"Duration":154511,"SoundDuration":154511,"Delta":94536421},{"NoteNumber":66,"Velocity":60,"Duration":316489,"SoundDuration":316489,"Delta":94690933},{"NoteNumber":78,"Velocity":70,"Duration":316489,"SoundDuration":316489,"Delta":94690933},{"NoteNumber":51,"Velocity":47,"Duration":158244,"SoundDuration":158244,"Delta":94690933},{"NoteNumber":56,"Velocity":47,"Duration":158244,"SoundDuration":158244,"Delta":94849177},{"NoteNumber":73,"Velocity":47,"Duration":628436,"SoundDuration":628436,"Delta":95007422},{"NoteNumber":70,"Velocity":62,"Duration":311947,"SoundDuration":311947,"Delta":95007422},{"NoteNumber":82,"Velocity":77,"Duration":311947,"SoundDuration":311947,"Delta":95007422},{"NoteNumber":41,"Velocity":55,"Duration":155973,"SoundDuration":155973,"Delta":95007422},{"NoteNumber":44,"Velocity":47,"Duration":155973,"SoundDuration":155973,"Delta":95163395},{"NoteNumber":69,"Velocity":51,"Duration":316489,"SoundDuration":316489,"Delta":95319369},{"NoteNumber":81,"Velocity":68,"Duration":316489,"SoundDuration":316489,"Delta":95319369},{"NoteNumber":49,"Velocity":47,"Duration":158244,"SoundDuration":158244,"Delta":95319369},{"NoteNumber":56,"Velocity":47,"Duration":158244,"SoundDuration":158244,"Delta":95477614},{"NoteNumber":80,"Velocity":77,"Duration":214087,"SoundDuration":214087,"Delta":95635858},{"NoteNumber":73,"Velocity":53,"Duration":214087,"SoundDuration":214087,"Delta":95635858},{"NoteNumber":68,"Velocity":64,"Duration":214087,"SoundDuration":214087,"Delta":95635858},{"NoteNumber":46,"Velocity":56,"Duration":160565,"SoundDuration":160565,"Delta":95635858},{"NoteNumber":49,"Velocity":47,"Duration":160565,"SoundDuration":160565,"Delta":95796423},{"NoteNumber":73,"Velocity":70,"Duration":428173,"SoundDuration":428173,"Delta":95849945},{"NoteNumber":61,"Velocity":60,"Duration":214086,"SoundDuration":214086,"Delta":95849945},{"NoteNumber":54,"Velocity":47,"Duration":160565,"SoundDuration":160565,"Delta":95956989},{"NoteNumber":66,"Velocity":60,"Duration":214087,"SoundDuration":214087,"Delta":96064032},{"NoteNumber":78,"Velocity":70,"Duration":214087,"SoundDuration":214087,"Delta":96064032},{"NoteNumber":61,"Velocity":47,"Duration":160565,"SoundDuration":160565,"Delta":96117554},{"NoteNumber":73,"Velocity":66,"Duration":631624,"SoundDuration":631624,"Delta":96278119},{"NoteNumber":75,"Velocity":80,"Duration":321130,"SoundDuration":321130,"Delta":96278119},{"NoteNumber":66,"Velocity":66,"Duration":631624,"SoundDuration":631624,"Delta":96278119},{"NoteNumber":63,"Velocity":66,"Duration":321130,"SoundDuration":321130,"Delta":96278119},{"NoteNumber":45,"Velocity":55,"Duration":160565,"SoundDuration":160565,"Delta":96278119},{"NoteNumber":49,"Velocity":47,"Duration":160565,"SoundDuration":160565,"Delta":96438684},{"NoteNumber":65,"Velocity":57,"Duration":155247,"SoundDuration":155247,"Delta":96599250},{"NoteNumber":77,"Velocity":68,"Duration":155247,"SoundDuration":155247,"Delta":96599250},{"NoteNumber":54,"Velocity":47,"Duration":155247,"SoundDuration":155247,"Delta":96599250},{"NoteNumber":63,"Velocity":53,"Duration":155247,"SoundDuration":155247,"Delta":96754497},{"NoteNumber":75,"Velocity":63,"Duration":155247,"SoundDuration":155247,"Delta":96754497},{"NoteNumber":61,"Velocity":47,"Duration":155247,"SoundDuration":155247,"Delta":96754497},{"NoteNumber":62,"Velocity":61,"Duration":159778,"SoundDuration":159778,"Delta":96909744},{"NoteNumber":72,"Velocity":61,"Duration":648757,"SoundDuration":648757,"Delta":96909744},{"NoteNumber":74,"Velocity":73,"Duration":159778,"SoundDuration":159778,"Delta":96909744},{"NoteNumber":44,"Velocity":51,"Duration":159778,"SoundDuration":159778,"Delta":96909744},{"NoteNumber":63,"Velocity":57,"Duration":159778,"SoundDuration":159778,"Delta":97069523},{"NoteNumber":75,"Velocity":68,"Duration":159778,"SoundDuration":159778,"Delta":97069523},{"NoteNumber":51,"Velocity":47,"Duration":159778,"SoundDuration":159778,"Delta":97069523},{"NoteNumber":65,"Velocity":61,"Duration":164599,"SoundDuration":164599,"Delta":97229301},{"NoteNumber":77,"Velocity":73,"Duration":164599,"SoundDuration":164599,"Delta":97229301},{"NoteNumber":60,"Velocity":47,"Duration":164599,"SoundDuration":164599,"Delta":97229301},{"NoteNumber":66,"Velocity":58,"Duration":164600,"SoundDuration":164600,"Delta":97393901},{"NoteNumber":78,"Velocity":69,"Duration":164600,"SoundDuration":164600,"Delta":97393901},{"NoteNumber":42,"Velocity":47,"Duration":164600,"SoundDuration":164600,"Delta":97393901},{"NoteNumber":73,"Velocity":67,"Duration":423008,"SoundDuration":423008,"Delta":97558501},{"NoteNumber":67,"Velocity":70,"Duration":210992,"SoundDuration":210992,"Delta":97558501},{"NoteNumber":79,"Velocity":83,"Duration":210992,"SoundDuration":210992,"Delta":97558501},{"NoteNumber":41,"Velocity":56,"Duration":158244,"SoundDuration":158244,"Delta":97558501},{"NoteNumber":44,"Velocity":47,"Duration":158244,"SoundDuration":158244,"Delta":97716746},{"NoteNumber":80,"Velocity":79,"Duration":212015,"SoundDuration":212015,"Delta":97769494},{"NoteNumber":68,"Velocity":66,"Duration":212015,"SoundDuration":212015,"Delta":97769494},{"NoteNumber":49,"Velocity":46,"Duration":159778,"SoundDuration":159778,"Delta":97874990},{"NoteNumber":77,"Velocity":69,"Duration":213037,"SoundDuration":213037,"Delta":97981509},{"NoteNumber":89,"Velocity":77,"Duration":213037,"SoundDuration":213037,"Delta":97981509},{"NoteNumber":56,"Velocity":46,"Duration":159778,"SoundDuration":159778,"Delta":98034769},{"NoteNumber":78,"Velocity":70,"Duration":426075,"SoundDuration":426075,"Delta":98194547},{"NoteNumber":75,"Velocity":70,"Duration":213037,"SoundDuration":213037,"Delta":98194547},{"NoteNumber":87,"Velocity":82,"Duration":213037,"SoundDuration":213037,"Delta":98194547},{"NoteNumber":46,"Velocity":53,"Duration":159778,"SoundDuration":159778,"Delta":98194547},{"NoteNumber":49,"Velocity":45,"Duration":159778,"SoundDuration":159778,"Delta":98354326},{"NoteNumber":73,"Velocity":62,"Duration":213037,"SoundDuration":213037,"Delta":98407585},{"NoteNumber":85,"Velocity":73,"Duration":213037,"SoundDuration":213037,"Delta":98407585},{"NoteNumber":54,"Velocity":44,"Duration":159778,"SoundDuration":159778,"Delta":98514104},{"NoteNumber":73,"Velocity":64,"Duration":213037,"SoundDuration":213037,"Delta":98620623},{"NoteNumber":78,"Velocity":80,"Duration":213037,"SoundDuration":213037,"Delta":98620623},{"NoteNumber":66,"Velocity":68,"Duration":213037,"SoundDuration":213037,"Delta":98620623},{"NoteNumber":61,"Velocity":44,"Duration":159778,"SoundDuration":159778,"Delta":98673883},{"NoteNumber":73,"Velocity":69,"Duration":658400,"SoundDuration":658400,"Delta":98833661},{"NoteNumber":75,"Velocity":82,"Duration":1246305,"SoundDuration":1246305,"Delta":98833661},{"NoteNumber":63,"Velocity":69,"Duration":658400,"SoundDuration":658400,"Delta":98833661},{"NoteNumber":68,"Velocity":69,"Duration":994346,"SoundDuration":994346,"Delta":98833661},{"NoteNumber":44,"Velocity":50,"Duration":164599,"SoundDuration":164599,"Delta":98833661},{"NoteNumber":51,"Velocity":42,"Duration":164600,"SoundDuration":164600,"Delta":98998261},{"NoteNumber":56,"Velocity":42,"Duration":164599,"SoundDuration":164599,"Delta":99162861},{"NoteNumber":61,"Velocity":41,"Duration":164600,"SoundDuration":164600,"Delta":99327461},{"NoteNumber":66,"Velocity":61,"Duration":335946,"SoundDuration":335946,"Delta":99492061},{"NoteNumber":72,"Velocity":61,"Duration":335946,"SoundDuration":335946,"Delta":99492061},{"NoteNumber":44,"Velocity":49,"Duration":167973,"SoundDuration":167973,"Delta":99492061},{"NoteNumber":51,"Velocity":41,"Duration":167973,"SoundDuration":167973,"Delta":99660034},{"NoteNumber":56,"Velocity":40,"Duration":167972,"SoundDuration":167972,"Delta":99828007},{"NoteNumber":60,"Velocity":40,"Duration":167973,"SoundDuration":167973,"Delta":99995980},{"NoteNumber":73,"Velocity":73,"Duration":83986,"SoundDuration":83986,"Delta":100079967},{"NoteNumber":65,"Velocity":72,"Duration":184331,"SoundDuration":184331,"Delta":100163953},{"NoteNumber":73,"Velocity":85,"Duration":184331,"SoundDuration":184331,"Delta":100163953},{"NoteNumber":49,"Velocity":56,"Duration":184331,"SoundDuration":184331,"Delta":100163953},{"NoteNumber":56,"Velocity":56,"Duration":184331,"SoundDuration":184331,"Delta":100163953},{"NoteNumber":61,"Velocity":66,"Duration":184331,"SoundDuration":184331,"Delta":100163953},{"NoteNumber":63,"Velocity":62,"Duration":92165,"SoundDuration":92165,"Delta":100348285},{"NoteNumber":70,"Velocity":73,"Duration":92165,"SoundDuration":92165,"Delta":100348285},{"NoteNumber":51,"Velocity":42,"Duration":92165,"SoundDuration":92165,"Delta":100348285},{"NoteNumber":55,"Velocity":42,"Duration":92165,"SoundDuration":92165,"Delta":100348285},{"NoteNumber":61,"Velocity":51,"Duration":92165,"SoundDuration":92165,"Delta":100348285},{"NoteNumber":63,"Velocity":62,"Duration":86580,"SoundDuration":86580,"Delta":100527031},{"NoteNumber":70,"Velocity":73,"Duration":86580,"SoundDuration":86580,"Delta":100527031},{"NoteNumber":51,"Velocity":42,"Duration":86580,"SoundDuration":86580,"Delta":100527031},{"NoteNumber":55,"Velocity":42,"Duration":86580,"SoundDuration":86580,"Delta":100527031},{"NoteNumber":61,"Velocity":51,"Duration":86580,"SoundDuration":86580,"Delta":100527031},{"NoteNumber":63,"Velocity":62,"Duration":168818,"SoundDuration":168818,"Delta":100700191},{"NoteNumber":70,"Velocity":75,"Duration":168818,"SoundDuration":168818,"Delta":100700191},{"NoteNumber":51,"Velocity":46,"Duration":168818,"SoundDuration":168818,"Delta":100700191},{"NoteNumber":55,"Velocity":46,"Duration":168818,"SoundDuration":168818,"Delta":100700191},{"NoteNumber":61,"Velocity":56,"Duration":168818,"SoundDuration":168818,"Delta":100700191},{"NoteNumber":68,"Velocity":71,"Duration":84409,"SoundDuration":84409,"Delta":100869010},{"NoteNumber":56,"Velocity":42,"Duration":84409,"SoundDuration":84409,"Delta":100869010},{"NoteNumber":60,"Velocity":51,"Duration":84409,"SoundDuration":84409,"Delta":100869010},{"NoteNumber":72,"Velocity":62,"Duration":80645,"SoundDuration":80645,"Delta":101034065},{"NoteNumber":78,"Velocity":74,"Duration":80645,"SoundDuration":80645,"Delta":101034065},{"NoteNumber":56,"Velocity":42,"Duration":80645,"SoundDuration":80645,"Delta":101034065},{"NoteNumber":68,"Velocity":51,"Duration":80645,"SoundDuration":80645,"Delta":101034065},{"NoteNumber":63,"Velocity":42,"Duration":80645,"SoundDuration":80645,"Delta":101034065},{"NoteNumber":72,"Velocity":63,"Duration":162855,"SoundDuration":162855,"Delta":101195355},{"NoteNumber":78,"Velocity":75,"Duration":162855,"SoundDuration":162855,"Delta":101195355},{"NoteNumber":56,"Velocity":46,"Duration":162855,"SoundDuration":162855,"Delta":101195355},{"NoteNumber":63,"Velocity":46,"Duration":162855,"SoundDuration":162855,"Delta":101195355},{"NoteNumber":68,"Velocity":56,"Duration":162855,"SoundDuration":162855,"Delta":101195355},{"NoteNumber":73,"Velocity":62,"Duration":81248,"SoundDuration":81248,"Delta":101358211},{"NoteNumber":77,"Velocity":74,"Duration":81248,"SoundDuration":81248,"Delta":101358211},{"NoteNumber":61,"Velocity":42,"Duration":81248,"SoundDuration":81248,"Delta":101358211},{"NoteNumber":68,"Velocity":51,"Duration":81248,"SoundDuration":81248,"Delta":101358211},{"NoteNumber":75,"Velocity":62,"Duration":78118,"SoundDuration":78118,"Delta":101517578},{"NoteNumber":82,"Velocity":74,"Duration":78118,"SoundDuration":78118,"Delta":101517578},{"NoteNumber":67,"Velocity":51,"Duration":78118,"SoundDuration":78118,"Delta":101517578},{"NoteNumber":63,"Velocity":42,"Duration":78118,"SoundDuration":78118,"Delta":101517578},{"NoteNumber":73,"Velocity":51,"Duration":78118,"SoundDuration":78118,"Delta":101517578},{"NoteNumber":75,"Velocity":64,"Duration":159731,"SoundDuration":159731,"Delta":101673815},{"NoteNumber":82,"Velocity":78,"Duration":159731,"SoundDuration":159731,"Delta":101673815},{"NoteNumber":63,"Velocity":46,"Duration":159731,"SoundDuration":159731,"Delta":101673815},{"NoteNumber":67,"Velocity":56,"Duration":159731,"SoundDuration":159731,"Delta":101673815},{"NoteNumber":73,"Velocity":56,"Duration":159731,"SoundDuration":159731,"Delta":101673815},{"NoteNumber":80,"Velocity":73,"Duration":79865,"SoundDuration":79865,"Delta":101833547},{"NoteNumber":68,"Velocity":42,"Duration":79865,"SoundDuration":79865,"Delta":101833547},{"NoteNumber":72,"Velocity":51,"Duration":79865,"SoundDuration":79865,"Delta":101833547},{"NoteNumber":90,"Velocity":73,"Duration":78456,"SoundDuration":78456,"Delta":101991869},{"NoteNumber":84,"Velocity":62,"Duration":78456,"SoundDuration":78456,"Delta":101991869},{"NoteNumber":68,"Velocity":42,"Duration":78456,"SoundDuration":78456,"Delta":101991869},{"NoteNumber":75,"Velocity":42,"Duration":78456,"SoundDuration":78456,"Delta":101991869},{"NoteNumber":80,"Velocity":51,"Duration":78456,"SoundDuration":78456,"Delta":101991869},{"NoteNumber":84,"Velocity":64,"Duration":159109,"SoundDuration":159109,"Delta":102148781},{"NoteNumber":90,"Velocity":78,"Duration":159109,"SoundDuration":159109,"Delta":102148781},{"NoteNumber":68,"Velocity":46,"Duration":159109,"SoundDuration":159109,"Delta":102148781},{"NoteNumber":75,"Velocity":46,"Duration":159109,"SoundDuration":159109,"Delta":102148781},{"NoteNumber":80,"Velocity":56,"Duration":159109,"SoundDuration":159109,"Delta":102148781},{"NoteNumber":85,"Velocity":62,"Duration":79554,"SoundDuration":79554,"Delta":102307890},{"NoteNumber":89,"Velocity":73,"Duration":79554,"SoundDuration":79554,"Delta":102307890},{"NoteNumber":73,"Velocity":42,"Duration":79554,"SoundDuration":79554,"Delta":102307890},{"NoteNumber":80,"Velocity":51,"Duration":79554,"SoundDuration":79554,"Delta":102307890},{"NoteNumber":82,"Velocity":73,"Duration":78253,"SoundDuration":78253,"Delta":102466999},{"NoteNumber":75,"Velocity":62,"Duration":78253,"SoundDuration":78253,"Delta":102466999},{"NoteNumber":63,"Velocity":44,"Duration":78253,"SoundDuration":78253,"Delta":102466999},{"NoteNumber":73,"Velocity":52,"Duration":78253,"SoundDuration":78253,"Delta":102466999},{"NoteNumber":67,"Velocity":44,"Duration":78253,"SoundDuration":78253,"Delta":102466999},{"NoteNumber":75,"Velocity":62,"Duration":156506,"SoundDuration":156506,"Delta":102623505},{"NoteNumber":82,"Velocity":75,"Duration":156506,"SoundDuration":156506,"Delta":102623505},{"NoteNumber":63,"Velocity":46,"Duration":156506,"SoundDuration":156506,"Delta":102623505},{"NoteNumber":67,"Velocity":46,"Duration":156506,"SoundDuration":156506,"Delta":102623505},{"NoteNumber":73,"Velocity":56,"Duration":156506,"SoundDuration":156506,"Delta":102623505},{"NoteNumber":80,"Velocity":72,"Duration":78253,"SoundDuration":78253,"Delta":102780012},{"NoteNumber":68,"Velocity":44,"Duration":78253,"SoundDuration":78253,"Delta":102780012},{"NoteNumber":72,"Velocity":52,"Duration":78253,"SoundDuration":78253,"Delta":102780012},{"NoteNumber":72,"Velocity":62,"Duration":78253,"SoundDuration":78253,"Delta":102936519},{"NoteNumber":78,"Velocity":74,"Duration":78253,"SoundDuration":78253,"Delta":102936519},{"NoteNumber":56,"Velocity":44,"Duration":78253,"SoundDuration":78253,"Delta":102936519},{"NoteNumber":63,"Velocity":44,"Duration":78253,"SoundDuration":78253,"Delta":102936519},{"NoteNumber":68,"Velocity":52,"Duration":78253,"SoundDuration":78253,"Delta":102936519},{"NoteNumber":78,"Velocity":75,"Duration":156506,"SoundDuration":156506,"Delta":103093025},{"NoteNumber":72,"Velocity":62,"Duration":156506,"SoundDuration":156506,"Delta":103093025},{"NoteNumber":56,"Velocity":46,"Duration":156506,"SoundDuration":156506,"Delta":103093025},{"NoteNumber":63,"Velocity":46,"Duration":156506,"SoundDuration":156506,"Delta":103093025},{"NoteNumber":68,"Velocity":56,"Duration":156506,"SoundDuration":156506,"Delta":103093025},{"NoteNumber":73,"Velocity":60,"Duration":78253,"SoundDuration":78253,"Delta":103249532},{"NoteNumber":77,"Velocity":71,"Duration":78253,"SoundDuration":78253,"Delta":103249532},{"NoteNumber":61,"Velocity":44,"Duration":78253,"SoundDuration":78253,"Delta":103249532},{"NoteNumber":68,"Velocity":52,"Duration":78253,"SoundDuration":78253,"Delta":103249532},{"NoteNumber":70,"Velocity":74,"Duration":78253,"SoundDuration":78253,"Delta":103406039},{"NoteNumber":63,"Velocity":62,"Duration":78253,"SoundDuration":78253,"Delta":103406039},{"NoteNumber":55,"Velocity":44,"Duration":78253,"SoundDuration":78253,"Delta":103406039},{"NoteNumber":51,"Velocity":44,"Duration":78253,"SoundDuration":78253,"Delta":103406039},{"NoteNumber":61,"Velocity":52,"Duration":78253,"SoundDuration":78253,"Delta":103406039},{"NoteNumber":63,"Velocity":64,"Duration":156506,"SoundDuration":156506,"Delta":103562545},{"NoteNumber":70,"Velocity":78,"Duration":156506,"SoundDuration":156506,"Delta":103562545},{"NoteNumber":51,"Velocity":46,"Duration":156506,"SoundDuration":156506,"Delta":103562545},{"NoteNumber":55,"Velocity":46,"Duration":156506,"SoundDuration":156506,"Delta":103562545},{"NoteNumber":61,"Velocity":56,"Duration":156506,"SoundDuration":156506,"Delta":103562545},{"NoteNumber":68,"Velocity":74,"Duration":78253,"SoundDuration":78253,"Delta":103719052},{"NoteNumber":56,"Velocity":44,"Duration":78253,"SoundDuration":78253,"Delta":103719052},{"NoteNumber":60,"Velocity":52,"Duration":78253,"SoundDuration":78253,"Delta":103719052},{"NoteNumber":60,"Velocity":62,"Duration":79182,"SoundDuration":79182,"Delta":103876488},{"NoteNumber":66,"Velocity":74,"Duration":79182,"SoundDuration":79182,"Delta":103876488},{"NoteNumber":51,"Velocity":44,"Duration":79182,"SoundDuration":79182,"Delta":103876488},{"NoteNumber":44,"Velocity":44,"Duration":79182,"SoundDuration":79182,"Delta":103876488},{"NoteNumber":56,"Velocity":52,"Duration":79182,"SoundDuration":79182,"Delta":103876488},{"NoteNumber":60,"Velocity":64,"Duration":163118,"SoundDuration":163118,"Delta":104034854},{"NoteNumber":66,"Velocity":78,"Duration":163118,"SoundDuration":163118,"Delta":104034854},{"NoteNumber":44,"Velocity":46,"Duration":163118,"SoundDuration":163118,"Delta":104034854},{"NoteNumber":51,"Velocity":46,"Duration":163118,"SoundDuration":163118,"Delta":104034854},{"NoteNumber":56,"Velocity":56,"Duration":163118,"SoundDuration":163118,"Delta":104034854},{"NoteNumber":65,"Velocity":67,"Duration":81559,"SoundDuration":81559,"Delta":104197973},{"NoteNumber":61,"Velocity":56,"Duration":81559,"SoundDuration":81559,"Delta":104197973},{"NoteNumber":49,"Velocity":39,"Duration":81559,"SoundDuration":81559,"Delta":104197973},{"NoteNumber":56,"Velocity":47,"Duration":81559,"SoundDuration":81559,"Delta":104197973},{"NoteNumber":64,"Velocity":49,"Duration":78045,"SoundDuration":78045,"Delta":104361091},{"NoteNumber":69,"Velocity":59,"Duration":78045,"SoundDuration":78045,"Delta":104361091},{"NoteNumber":55,"Velocity":36,"Duration":78045,"SoundDuration":78045,"Delta":104361091},{"NoteNumber":61,"Velocity":41,"Duration":78045,"SoundDuration":78045,"Delta":104361091},{"NoteNumber":64,"Velocity":51,"Duration":155339,"SoundDuration":155339,"Delta":104517183},{"NoteNumber":69,"Velocity":62,"Duration":155339,"SoundDuration":155339,"Delta":104517183},{"NoteNumber":55,"Velocity":37,"Duration":155339,"SoundDuration":155339,"Delta":104517183},{"NoteNumber":61,"Velocity":44,"Duration":155339,"SoundDuration":155339,"Delta":104517183},{"NoteNumber":63,"Velocity":49,"Duration":77669,"SoundDuration":77669,"Delta":104672522},{"NoteNumber":68,"Velocity":58,"Duration":77669,"SoundDuration":77669,"Delta":104672522},{"NoteNumber":56,"Velocity":34,"Duration":77669,"SoundDuration":77669,"Delta":104672522},{"NoteNumber":60,"Velocity":41,"Duration":77669,"SoundDuration":77669,"Delta":104672522},{"NoteNumber":72,"Velocity":44,"Duration":77669,"SoundDuration":77669,"Delta":104827862},{"NoteNumber":78,"Velocity":52,"Duration":77669,"SoundDuration":77669,"Delta":104827862},{"NoteNumber":56,"Velocity":29,"Duration":77669,"SoundDuration":77669,"Delta":104827862},{"NoteNumber":68,"Velocity":36,"Duration":77669,"SoundDuration":77669,"Delta":104827862},{"NoteNumber":63,"Velocity":29,"Duration":77669,"SoundDuration":77669,"Delta":104827862},{"NoteNumber":72,"Velocity":46,"Duration":155339,"SoundDuration":155339,"Delta":104983202},{"NoteNumber":78,"Velocity":55,"Duration":155339,"SoundDuration":155339,"Delta":104983202},{"NoteNumber":56,"Velocity":33,"Duration":155339,"SoundDuration":155339,"Delta":104983202},{"NoteNumber":63,"Velocity":33,"Duration":155339,"SoundDuration":155339,"Delta":104983202},{"NoteNumber":68,"Velocity":39,"Duration":155339,"SoundDuration":155339,"Delta":104983202},{"NoteNumber":73,"Velocity":44,"Duration":77669,"SoundDuration":77669,"Delta":105138541},{"NoteNumber":77,"Velocity":52,"Duration":77669,"SoundDuration":77669,"Delta":105138541},{"NoteNumber":61,"Velocity":29,"Duration":77669,"SoundDuration":77669,"Delta":105138541},{"NoteNumber":68,"Velocity":36,"Duration":77669,"SoundDuration":77669,"Delta":105138541},{"NoteNumber":81,"Velocity":52,"Duration":77669,"SoundDuration":77669,"Delta":105293881},{"NoteNumber":76,"Velocity":44,"Duration":77669,"SoundDuration":77669,"Delta":105293881},{"NoteNumber":67,"Velocity":36,"Duration":77669,"SoundDuration":77669,"Delta":105293881},{"NoteNumber":73,"Velocity":36,"Duration":77669,"SoundDuration":77669,"Delta":105293881},{"NoteNumber":76,"Velocity":46,"Duration":155339,"SoundDuration":155339,"Delta":105449221},{"NoteNumber":81,"Velocity":55,"Duration":155339,"SoundDuration":155339,"Delta":105449221},{"NoteNumber":67,"Velocity":39,"Duration":155339,"SoundDuration":155339,"Delta":105449221},{"NoteNumber":73,"Velocity":39,"Duration":155339,"SoundDuration":155339,"Delta":105449221},{"NoteNumber":75,"Velocity":41,"Duration":77669,"SoundDuration":77669,"Delta":105604560},{"NoteNumber":80,"Velocity":51,"Duration":77669,"SoundDuration":77669,"Delta":105604560},{"NoteNumber":68,"Velocity":29,"Duration":77669,"SoundDuration":77669,"Delta":105604560},{"NoteNumber":72,"Velocity":36,"Duration":77669,"SoundDuration":77669,"Delta":105604560},{"NoteNumber":84,"Velocity":39,"Duration":77669,"SoundDuration":77669,"Delta":105759900},{"NoteNumber":90,"Velocity":46,"Duration":77669,"SoundDuration":77669,"Delta":105759900},{"NoteNumber":68,"Velocity":26,"Duration":77669,"SoundDuration":77669,"Delta":105759900},{"NoteNumber":75,"Velocity":26,"Duration":77669,"SoundDuration":77669,"Delta":105759900},{"NoteNumber":80,"Velocity":31,"Duration":77669,"SoundDuration":77669,"Delta":105759900},{"NoteNumber":84,"Velocity":40,"Duration":155339,"SoundDuration":155339,"Delta":105915240},{"NoteNumber":90,"Velocity":49,"Duration":155339,"SoundDuration":155339,"Delta":105915240},{"NoteNumber":68,"Velocity":29,"Duration":155339,"SoundDuration":155339,"Delta":105915240},{"NoteNumber":75,"Velocity":29,"Duration":155339,"SoundDuration":155339,"Delta":105915240},{"NoteNumber":80,"Velocity":35,"Duration":155339,"SoundDuration":155339,"Delta":105915240},{"NoteNumber":85,"Velocity":39,"Duration":77669,"SoundDuration":77669,"Delta":106070579},{"NoteNumber":89,"Velocity":46,"Duration":77669,"SoundDuration":77669,"Delta":106070579},{"NoteNumber":73,"Velocity":26,"Duration":77669,"SoundDuration":77669,"Delta":106070579},{"NoteNumber":80,"Velocity":31,"Duration":77669,"SoundDuration":77669,"Delta":106070579},{"NoteNumber":76,"Velocity":47,"Duration":77669,"SoundDuration":77669,"Delta":106225919},{"NoteNumber":81,"Velocity":55,"Duration":77669,"SoundDuration":77669,"Delta":106225919},{"NoteNumber":73,"Velocity":39,"Duration":77669,"SoundDuration":77669,"Delta":106225919},{"NoteNumber":67,"Velocity":33,"Duration":77669,"SoundDuration":77669,"Delta":106225919},{"NoteNumber":76,"Velocity":49,"Duration":155339,"SoundDuration":155339,"Delta":106381259},{"NoteNumber":81,"Velocity":59,"Duration":155339,"SoundDuration":155339,"Delta":106381259},{"NoteNumber":67,"Velocity":35,"Duration":155339,"SoundDuration":155339,"Delta":106381259},{"NoteNumber":73,"Velocity":41,"Duration":155339,"SoundDuration":155339,"Delta":106381259},{"NoteNumber":75,"Velocity":45,"Duration":77669,"SoundDuration":77669,"Delta":106536598},{"NoteNumber":80,"Velocity":56,"Duration":77669,"SoundDuration":77669,"Delta":106536598},{"NoteNumber":68,"Velocity":33,"Duration":77669,"SoundDuration":77669,"Delta":106536598},{"NoteNumber":72,"Velocity":39,"Duration":77669,"SoundDuration":77669,"Delta":106536598},{"NoteNumber":72,"Velocity":47,"Duration":79573,"SoundDuration":79573,"Delta":106693842},{"NoteNumber":78,"Velocity":56,"Duration":79573,"SoundDuration":79573,"Delta":106693842},{"NoteNumber":56,"Velocity":33,"Duration":79573,"SoundDuration":79573,"Delta":106693842},{"NoteNumber":63,"Velocity":33,"Duration":79573,"SoundDuration":79573,"Delta":106693842},{"NoteNumber":68,"Velocity":39,"Duration":79573,"SoundDuration":79573,"Delta":106693842},{"NoteNumber":72,"Velocity":49,"Duration":161485,"SoundDuration":161485,"Delta":106852989},{"NoteNumber":78,"Velocity":59,"Duration":161485,"SoundDuration":161485,"Delta":106852989},{"NoteNumber":56,"Velocity":35,"Duration":161485,"SoundDuration":161485,"Delta":106852989},{"NoteNumber":63,"Velocity":35,"Duration":161485,"SoundDuration":161485,"Delta":106852989},{"NoteNumber":68,"Velocity":41,"Duration":161485,"SoundDuration":161485,"Delta":106852989},{"NoteNumber":73,"Velocity":47,"Duration":80742,"SoundDuration":80742,"Delta":107014474},{"NoteNumber":77,"Velocity":55,"Duration":80742,"SoundDuration":80742,"Delta":107014474},{"NoteNumber":61,"Velocity":33,"Duration":80742,"SoundDuration":80742,"Delta":107014474},{"NoteNumber":68,"Velocity":39,"Duration":80742,"SoundDuration":80742,"Delta":107014474},{"NoteNumber":64,"Velocity":45,"Duration":77669,"SoundDuration":77669,"Delta":107175960},{"NoteNumber":69,"Velocity":54,"Duration":77669,"SoundDuration":77669,"Delta":107175960},{"NoteNumber":55,"Velocity":33,"Duration":77669,"SoundDuration":77669,"Delta":107175960},{"NoteNumber":61,"Velocity":39,"Duration":77669,"SoundDuration":77669,"Delta":107175960},{"NoteNumber":64,"Velocity":49,"Duration":159923,"SoundDuration":159923,"Delta":107331300},{"NoteNumber":69,"Velocity":59,"Duration":159923,"SoundDuration":159923,"Delta":107331300},{"NoteNumber":55,"Velocity":35,"Duration":159923,"SoundDuration":159923,"Delta":107331300},{"NoteNumber":61,"Velocity":41,"Duration":159923,"SoundDuration":159923,"Delta":107331300},{"NoteNumber":63,"Velocity":45,"Duration":79961,"SoundDuration":79961,"Delta":107491223},{"NoteNumber":68,"Velocity":56,"Duration":79961,"SoundDuration":79961,"Delta":107491223},{"NoteNumber":56,"Velocity":33,"Duration":79961,"SoundDuration":79961,"Delta":107491223},{"NoteNumber":60,"Velocity":39,"Duration":79961,"SoundDuration":79961,"Delta":107491223},{"NoteNumber":63,"Velocity":52,"Duration":85324,"SoundDuration":85324,"Delta":107656509},{"NoteNumber":60,"Velocity":52,"Duration":85324,"SoundDuration":85324,"Delta":107656509},{"NoteNumber":66,"Velocity":62,"Duration":85324,"SoundDuration":85324,"Delta":107656509},{"NoteNumber":44,"Velocity":41,"Duration":85324,"SoundDuration":85324,"Delta":107656509},{"NoteNumber":56,"Velocity":49,"Duration":85324,"SoundDuration":85324,"Delta":107656509},{"NoteNumber":63,"Velocity":49,"Duration":161485,"SoundDuration":161485,"Delta":107827157},{"NoteNumber":60,"Velocity":49,"Duration":161485,"SoundDuration":161485,"Delta":107827157},{"NoteNumber":66,"Velocity":59,"Duration":161485,"SoundDuration":161485,"Delta":107827157},{"NoteNumber":44,"Velocity":39,"Duration":161485,"SoundDuration":161485,"Delta":107827157},{"NoteNumber":56,"Velocity":47,"Duration":161485,"SoundDuration":161485,"Delta":107827157},{"NoteNumber":64,"Velocity":42,"Duration":80742,"SoundDuration":80742,"Delta":107988643},{"NoteNumber":60,"Velocity":41,"Duration":80742,"SoundDuration":80742,"Delta":107988643},{"NoteNumber":67,"Velocity":49,"Duration":80742,"SoundDuration":80742,"Delta":107988643},{"NoteNumber":43,"Velocity":33,"Duration":80742,"SoundDuration":80742,"Delta":107988643},{"NoteNumber":55,"Velocity":39,"Duration":80742,"SoundDuration":80742,"Delta":107988643},{"NoteNumber":72,"Velocity":56,"Duration":78443,"SoundDuration":78443,"Delta":108147829},{"NoteNumber":62,"Velocity":49,"Duration":78443,"SoundDuration":78443,"Delta":108147829},{"NoteNumber":66,"Velocity":47,"Duration":78443,"SoundDuration":78443,"Delta":108147829},{"NoteNumber":55,"Velocity":38,"Duration":78443,"SoundDuration":78443,"Delta":108147829},{"NoteNumber":57,"Velocity":45,"Duration":78443,"SoundDuration":78443,"Delta":108147829},{"NoteNumber":62,"Velocity":49,"Duration":157641,"SoundDuration":157641,"Delta":108304717},{"NoteNumber":66,"Velocity":49,"Duration":157641,"SoundDuration":157641,"Delta":108304717},{"NoteNumber":72,"Velocity":59,"Duration":157641,"SoundDuration":157641,"Delta":108304717},{"NoteNumber":55,"Velocity":39,"Duration":157641,"SoundDuration":157641,"Delta":108304717},{"NoteNumber":57,"Velocity":47,"Duration":157641,"SoundDuration":157641,"Delta":108304717},{"NoteNumber":62,"Velocity":42,"Duration":78820,"SoundDuration":78820,"Delta":108462358},{"NoteNumber":67,"Velocity":41,"Duration":78820,"SoundDuration":78820,"Delta":108462358},{"NoteNumber":71,"Velocity":48,"Duration":78820,"SoundDuration":78820,"Delta":108462358},{"NoteNumber":55,"Velocity":31,"Duration":78820,"SoundDuration":78820,"Delta":108462358},{"NoteNumber":59,"Velocity":39,"Duration":78820,"SoundDuration":78820,"Delta":108462358},{"NoteNumber":65,"Velocity":47,"Duration":77351,"SoundDuration":77351,"Delta":108618531},{"NoteNumber":67,"Velocity":47,"Duration":77351,"SoundDuration":77351,"Delta":108618531},{"NoteNumber":71,"Velocity":47,"Duration":77351,"SoundDuration":77351,"Delta":108618531},{"NoteNumber":77,"Velocity":56,"Duration":77351,"SoundDuration":77351,"Delta":108618531},{"NoteNumber":55,"Velocity":36,"Duration":77351,"SoundDuration":77351,"Delta":108618531},{"NoteNumber":62,"Velocity":44,"Duration":77351,"SoundDuration":77351,"Delta":108618531},{"NoteNumber":71,"Velocity":49,"Duration":154702,"SoundDuration":154702,"Delta":108773234},{"NoteNumber":65,"Velocity":49,"Duration":154702,"SoundDuration":154702,"Delta":108773234},{"NoteNumber":67,"Velocity":49,"Duration":154702,"SoundDuration":154702,"Delta":108773234},{"NoteNumber":77,"Velocity":59,"Duration":154702,"SoundDuration":154702,"Delta":108773234},{"NoteNumber":55,"Velocity":39,"Duration":154702,"SoundDuration":154702,"Delta":108773234},{"NoteNumber":62,"Velocity":47,"Duration":154702,"SoundDuration":154702,"Delta":108773234},{"NoteNumber":67,"Velocity":46,"Duration":77351,"SoundDuration":77351,"Delta":108927937},{"NoteNumber":72,"Velocity":44,"Duration":77351,"SoundDuration":77351,"Delta":108927937},{"NoteNumber":76,"Velocity":52,"Duration":77351,"SoundDuration":77351,"Delta":108927937},{"NoteNumber":60,"Velocity":34,"Duration":77351,"SoundDuration":77351,"Delta":108927937},{"NoteNumber":55,"Velocity":34,"Duration":77351,"SoundDuration":77351,"Delta":108927937},{"NoteNumber":64,"Velocity":41,"Duration":77351,"SoundDuration":77351,"Delta":108927937},{"NoteNumber":84,"Velocity":56,"Duration":77351,"SoundDuration":77351,"Delta":109082640},{"NoteNumber":74,"Velocity":49,"Duration":77351,"SoundDuration":77351,"Delta":109082640},{"NoteNumber":78,"Velocity":47,"Duration":77351,"SoundDuration":77351,"Delta":109082640},{"NoteNumber":72,"Velocity":49,"Duration":77351,"SoundDuration":77351,"Delta":109082640},{"NoteNumber":55,"Velocity":44,"Duration":77351,"SoundDuration":77351,"Delta":109082640},{"NoteNumber":62,"Velocity":44,"Duration":77351,"SoundDuration":77351,"Delta":109082640},{"NoteNumber":69,"Velocity":44,"Duration":77351,"SoundDuration":77351,"Delta":109082640},{"NoteNumber":72,"Velocity":49,"Duration":154702,"SoundDuration":154702,"Delta":109237343},{"NoteNumber":84,"Velocity":59,"Duration":154702,"SoundDuration":154702,"Delta":109237343},{"NoteNumber":74,"Velocity":49,"Duration":154702,"SoundDuration":154702,"Delta":109237343},{"NoteNumber":78,"Velocity":49,"Duration":154702,"SoundDuration":154702,"Delta":109237343},{"NoteNumber":55,"Velocity":47,"Duration":154702,"SoundDuration":154702,"Delta":109237343},{"NoteNumber":62,"Velocity":47,"Duration":154702,"SoundDuration":154702,"Delta":109237343},{"NoteNumber":69,"Velocity":47,"Duration":154702,"SoundDuration":154702,"Delta":109237343},{"NoteNumber":71,"Velocity":46,"Duration":77351,"SoundDuration":77351,"Delta":109392046},{"NoteNumber":79,"Velocity":41,"Duration":77351,"SoundDuration":77351,"Delta":109392046},{"NoteNumber":83,"Velocity":51,"Duration":77351,"SoundDuration":77351,"Delta":109392046},{"NoteNumber":55,"Velocity":44,"Duration":77351,"SoundDuration":77351,"Delta":109392046},{"NoteNumber":62,"Velocity":34,"Duration":77351,"SoundDuration":77351,"Delta":109392046},{"NoteNumber":67,"Velocity":41,"Duration":77351,"SoundDuration":77351,"Delta":109392046},{"NoteNumber":77,"Velocity":49,"Duration":79182,"SoundDuration":79182,"Delta":109548580},{"NoteNumber":79,"Velocity":49,"Duration":79182,"SoundDuration":79182,"Delta":109548580},{"NoteNumber":83,"Velocity":47,"Duration":79182,"SoundDuration":79182,"Delta":109548580},{"NoteNumber":89,"Velocity":55,"Duration":79182,"SoundDuration":79182,"Delta":109548580},{"NoteNumber":55,"Velocity":47,"Duration":79182,"SoundDuration":79182,"Delta":109548580},{"NoteNumber":62,"Velocity":36,"Duration":79182,"SoundDuration":79182,"Delta":109548580},{"NoteNumber":67,"Velocity":44,"Duration":79182,"SoundDuration":79182,"Delta":109548580},{"NoteNumber":77,"Velocity":49,"Duration":158365,"SoundDuration":158365,"Delta":109706946},{"NoteNumber":79,"Velocity":49,"Duration":158365,"SoundDuration":158365,"Delta":109706946},{"NoteNumber":83,"Velocity":49,"Duration":158365,"SoundDuration":158365,"Delta":109706946},{"NoteNumber":89,"Velocity":59,"Duration":158365,"SoundDuration":158365,"Delta":109706946},{"NoteNumber":55,"Velocity":39,"Duration":158365,"SoundDuration":158365,"Delta":109706946},{"NoteNumber":62,"Velocity":39,"Duration":158365,"SoundDuration":158365,"Delta":109706946},{"NoteNumber":67,"Velocity":47,"Duration":158365,"SoundDuration":158365,"Delta":109706946},{"NoteNumber":74,"Velocity":63,"Duration":158365,"SoundDuration":158365,"Delta":109865311},{"NoteNumber":70,"Velocity":45,"Duration":158365,"SoundDuration":158365,"Delta":109865311},{"NoteNumber":62,"Velocity":34,"Duration":158365,"SoundDuration":158365,"Delta":109865311},{"NoteNumber":68,"Velocity":49,"Duration":158365,"SoundDuration":158365,"Delta":109865311},{"NoteNumber":71,"Velocity":66,"Duration":157794,"SoundDuration":157794,"Delta":110023677},{"NoteNumber":80,"Velocity":80,"Duration":157794,"SoundDuration":157794,"Delta":110023677},{"NoteNumber":53,"Velocity":61,"Duration":157794,"SoundDuration":157794,"Delta":110023677},{"NoteNumber":73,"Velocity":68,"Duration":156470,"SoundDuration":156470,"Delta":110181472},{"NoteNumber":77,"Velocity":74,"Duration":156470,"SoundDuration":156470,"Delta":110181472},{"NoteNumber":56,"Velocity":47,"Duration":156470,"SoundDuration":156470,"Delta":110181472},{"NoteNumber":65,"Velocity":56,"Duration":156470,"SoundDuration":156470,"Delta":110181472},{"NoteNumber":74,"Velocity":71,"Duration":155350,"SoundDuration":155350,"Delta":110337942},{"NoteNumber":83,"Velocity":84,"Duration":155350,"SoundDuration":155350,"Delta":110337942},{"NoteNumber":50,"Velocity":62,"Duration":155350,"SoundDuration":155350,"Delta":110337942},{"NoteNumber":76,"Velocity":66,"Duration":154256,"SoundDuration":154256,"Delta":110493293},{"NoteNumber":80,"Velocity":79,"Duration":154256,"SoundDuration":154256,"Delta":110493293},{"NoteNumber":56,"Velocity":49,"Duration":154256,"SoundDuration":154256,"Delta":110493293},{"NoteNumber":62,"Velocity":59,"Duration":154256,"SoundDuration":154256,"Delta":110493293},{"NoteNumber":77,"Velocity":74,"Duration":152619,"SoundDuration":152619,"Delta":110647549},{"NoteNumber":86,"Velocity":89,"Duration":152619,"SoundDuration":152619,"Delta":110647549},{"NoteNumber":47,"Velocity":64,"Duration":152619,"SoundDuration":152619,"Delta":110647549},{"NoteNumber":83,"Velocity":85,"Duration":153889,"SoundDuration":153889,"Delta":110800169},{"NoteNumber":79,"Velocity":72,"Duration":153889,"SoundDuration":153889,"Delta":110800169},{"NoteNumber":53,"Velocity":50,"Duration":153889,"SoundDuration":153889,"Delta":110800169},{"NoteNumber":59,"Velocity":60,"Duration":153889,"SoundDuration":153889,"Delta":110800169},{"NoteNumber":89,"Velocity":92,"Duration":155162,"SoundDuration":155162,"Delta":110954059},{"NoteNumber":80,"Velocity":78,"Duration":155162,"SoundDuration":155162,"Delta":110954059},{"NoteNumber":44,"Velocity":69,"Duration":155162,"SoundDuration":155162,"Delta":110954059},{"NoteNumber":82,"Velocity":73,"Duration":156284,"SoundDuration":156284,"Delta":111109221},{"NoteNumber":86,"Velocity":86,"Duration":156284,"SoundDuration":156284,"Delta":111109221},{"NoteNumber":50,"Velocity":53,"Duration":156284,"SoundDuration":156284,"Delta":111109221},{"NoteNumber":56,"Velocity":64,"Duration":156284,"SoundDuration":156284,"Delta":111109221},{"NoteNumber":83,"Velocity":79,"Duration":164405,"SoundDuration":164405,"Delta":111265505},{"NoteNumber":92,"Velocity":94,"Duration":164405,"SoundDuration":164405,"Delta":111265505},{"NoteNumber":41,"Velocity":77,"Duration":164405,"SoundDuration":164405,"Delta":111265505},{"NoteNumber":83,"Velocity":77,"Duration":168165,"SoundDuration":168165,"Delta":111429911},{"NoteNumber":95,"Velocity":90,"Duration":168165,"SoundDuration":168165,"Delta":111429911},{"NoteNumber":29,"Velocity":69,"Duration":168165,"SoundDuration":168165,"Delta":111429911},{"NoteNumber":41,"Velocity":69,"Duration":168165,"SoundDuration":168165,"Delta":111429911},{"NoteNumber":84,"Velocity":85,"Duration":168165,"SoundDuration":168165,"Delta":111598077},{"NoteNumber":96,"Velocity":101,"Duration":168165,"SoundDuration":168165,"Delta":111598077},{"NoteNumber":40,"Velocity":42,"Duration":168165,"SoundDuration":168165,"Delta":111598077},{"NoteNumber":28,"Velocity":42,"Duration":168165,"SoundDuration":168165,"Delta":111598077},{"NoteNumber":60,"Velocity":64,"Duration":163284,"SoundDuration":163284,"Delta":111766243},{"NoteNumber":67,"Velocity":64,"Duration":163284,"SoundDuration":163284,"Delta":111766243},{"NoteNumber":72,"Velocity":77,"Duration":163284,"SoundDuration":163284,"Delta":111766243},{"NoteNumber":40,"Velocity":36,"Duration":163284,"SoundDuration":163284,"Delta":111766243},{"NoteNumber":52,"Velocity":50,"Duration":163284,"SoundDuration":163284,"Delta":111766243},{"NoteNumber":67,"Velocity":64,"Duration":160344,"SoundDuration":160344,"Delta":111929528},{"NoteNumber":60,"Velocity":64,"Duration":160344,"SoundDuration":160344,"Delta":111929528},{"NoteNumber":72,"Velocity":77,"Duration":160344,"SoundDuration":160344,"Delta":111929528},{"NoteNumber":40,"Velocity":40,"Duration":160344,"SoundDuration":160344,"Delta":111929528},{"NoteNumber":52,"Velocity":48,"Duration":160344,"SoundDuration":160344,"Delta":111929528},{"NoteNumber":60,"Velocity":55,"Duration":162284,"SoundDuration":162284,"Delta":112089872},{"NoteNumber":68,"Velocity":55,"Duration":162284,"SoundDuration":162284,"Delta":112089872},{"NoteNumber":72,"Velocity":77,"Duration":162284,"SoundDuration":162284,"Delta":112089872},{"NoteNumber":40,"Velocity":40,"Duration":162284,"SoundDuration":162284,"Delta":112089872},{"NoteNumber":52,"Velocity":48,"Duration":162284,"SoundDuration":162284,"Delta":112089872},{"NoteNumber":60,"Velocity":63,"Duration":157641,"SoundDuration":157641,"Delta":112252157},{"NoteNumber":68,"Velocity":63,"Duration":157641,"SoundDuration":157641,"Delta":112252157},{"NoteNumber":72,"Velocity":75,"Duration":157641,"SoundDuration":157641,"Delta":112252157},{"NoteNumber":40,"Velocity":40,"Duration":157641,"SoundDuration":157641,"Delta":112252157},{"NoteNumber":52,"Velocity":48,"Duration":157641,"SoundDuration":157641,"Delta":112252157},{"NoteNumber":60,"Velocity":63,"Duration":159923,"SoundDuration":159923,"Delta":112409798},{"NoteNumber":68,"Velocity":63,"Duration":159923,"SoundDuration":159923,"Delta":112409798},{"NoteNumber":72,"Velocity":75,"Duration":159923,"SoundDuration":159923,"Delta":112409798},{"NoteNumber":40,"Velocity":41,"Duration":159923,"SoundDuration":159923,"Delta":112409798},{"NoteNumber":52,"Velocity":49,"Duration":159923,"SoundDuration":159923,"Delta":112409798},{"NoteNumber":72,"Velocity":80,"Duration":161485,"SoundDuration":161485,"Delta":112569722},{"NoteNumber":60,"Velocity":57,"Duration":161485,"SoundDuration":161485,"Delta":112569722},{"NoteNumber":68,"Velocity":57,"Duration":161485,"SoundDuration":161485,"Delta":112569722},{"NoteNumber":40,"Velocity":38,"Duration":161485,"SoundDuration":161485,"Delta":112569722},{"NoteNumber":52,"Velocity":55,"Duration":161485,"SoundDuration":161485,"Delta":112569722},{"NoteNumber":60,"Velocity":64,"Duration":156887,"SoundDuration":156887,"Delta":112731207},{"NoteNumber":68,"Velocity":64,"Duration":156887,"SoundDuration":156887,"Delta":112731207},{"NoteNumber":72,"Velocity":77,"Duration":156887,"SoundDuration":156887,"Delta":112731207},{"NoteNumber":39,"Velocity":44,"Duration":156887,"SoundDuration":156887,"Delta":112731207},{"NoteNumber":51,"Velocity":52,"Duration":156887,"SoundDuration":156887,"Delta":112731207},{"NoteNumber":60,"Velocity":64,"Duration":159923,"SoundDuration":159923,"Delta":112888095},{"NoteNumber":68,"Velocity":64,"Duration":159923,"SoundDuration":159923,"Delta":112888095},{"NoteNumber":72,"Velocity":77,"Duration":159923,"SoundDuration":159923,"Delta":112888095},{"NoteNumber":39,"Velocity":44,"Duration":159923,"SoundDuration":159923,"Delta":112888095},{"NoteNumber":51,"Velocity":52,"Duration":159923,"SoundDuration":159923,"Delta":112888095},{"NoteNumber":60,"Velocity":68,"Duration":158403,"SoundDuration":158403,"Delta":113048018},{"NoteNumber":68,"Velocity":68,"Duration":158403,"SoundDuration":158403,"Delta":113048018},{"NoteNumber":72,"Velocity":81,"Duration":158403,"SoundDuration":158403,"Delta":113048018},{"NoteNumber":39,"Velocity":47,"Duration":158403,"SoundDuration":158403,"Delta":113048018},{"NoteNumber":51,"Velocity":56,"Duration":158403,"SoundDuration":158403,"Delta":113048018},{"NoteNumber":72,"Velocity":79,"Duration":151860,"SoundDuration":151860,"Delta":113206421},{"NoteNumber":60,"Velocity":67,"Duration":151860,"SoundDuration":151860,"Delta":113206421},{"NoteNumber":68,"Velocity":67,"Duration":151860,"SoundDuration":151860,"Delta":113206421},{"NoteNumber":40,"Velocity":44,"Duration":151860,"SoundDuration":151860,"Delta":113206421},{"NoteNumber":52,"Velocity":52,"Duration":151860,"SoundDuration":151860,"Delta":113206421},{"NoteNumber":60,"Velocity":67,"Duration":156419,"SoundDuration":156419,"Delta":113358282},{"NoteNumber":68,"Velocity":67,"Duration":156419,"SoundDuration":156419,"Delta":113358282},{"NoteNumber":72,"Velocity":79,"Duration":156419,"SoundDuration":156419,"Delta":113358282},{"NoteNumber":40,"Velocity":44,"Duration":156419,"SoundDuration":156419,"Delta":113358282},{"NoteNumber":52,"Velocity":52,"Duration":156419,"SoundDuration":156419,"Delta":113358282},{"NoteNumber":60,"Velocity":67,"Duration":81539,"SoundDuration":81539,"Delta":113514701},{"NoteNumber":68,"Velocity":67,"Duration":81539,"SoundDuration":81539,"Delta":113514701},{"NoteNumber":72,"Velocity":80,"Duration":81539,"SoundDuration":81539,"Delta":113514701},{"NoteNumber":40,"Velocity":46,"Duration":81539,"SoundDuration":81539,"Delta":113514701},{"NoteNumber":52,"Velocity":56,"Duration":81539,"SoundDuration":81539,"Delta":113514701},{"NoteNumber":60,"Velocity":68,"Duration":76982,"SoundDuration":76982,"Delta":113675501},{"NoteNumber":69,"Velocity":68,"Duration":76982,"SoundDuration":76982,"Delta":113675501},{"NoteNumber":72,"Velocity":81,"Duration":76982,"SoundDuration":76982,"Delta":113675501},{"NoteNumber":40,"Velocity":47,"Duration":76982,"SoundDuration":76982,"Delta":113675501},{"NoteNumber":52,"Velocity":57,"Duration":76982,"SoundDuration":76982,"Delta":113675501},{"NoteNumber":60,"Velocity":69,"Duration":79961,"SoundDuration":79961,"Delta":113829466},{"NoteNumber":69,"Velocity":69,"Duration":79961,"SoundDuration":79961,"Delta":113829466},{"NoteNumber":72,"Velocity":82,"Duration":79961,"SoundDuration":79961,"Delta":113829466},{"NoteNumber":40,"Velocity":48,"Duration":79961,"SoundDuration":79961,"Delta":113829466},{"NoteNumber":52,"Velocity":58,"Duration":79961,"SoundDuration":79961,"Delta":113829466},{"NoteNumber":69,"Velocity":71,"Duration":77712,"SoundDuration":77712,"Delta":113989389},{"NoteNumber":60,"Velocity":71,"Duration":77712,"SoundDuration":77712,"Delta":113989389},{"NoteNumber":72,"Velocity":83,"Duration":77712,"SoundDuration":77712,"Delta":113989389},{"NoteNumber":40,"Velocity":49,"Duration":77712,"SoundDuration":77712,"Delta":113989389},{"NoteNumber":52,"Velocity":58,"Duration":77712,"SoundDuration":77712,"Delta":113989389},{"NoteNumber":61,"Velocity":71,"Duration":75574,"SoundDuration":75574,"Delta":114144814},{"NoteNumber":69,"Velocity":71,"Duration":75574,"SoundDuration":75574,"Delta":114144814},{"NoteNumber":73,"Velocity":84,"Duration":75574,"SoundDuration":75574,"Delta":114144814},{"NoteNumber":40,"Velocity":50,"Duration":75574,"SoundDuration":75574,"Delta":114144814},{"NoteNumber":52,"Velocity":59,"Duration":75574,"SoundDuration":75574,"Delta":114144814},{"NoteNumber":61,"Velocity":71,"Duration":79579,"SoundDuration":79579,"Delta":114295962},{"NoteNumber":69,"Velocity":71,"Duration":79579,"SoundDuration":79579,"Delta":114295962},{"NoteNumber":73,"Velocity":85,"Duration":79579,"SoundDuration":79579,"Delta":114295962},{"NoteNumber":40,"Velocity":51,"Duration":79579,"SoundDuration":79579,"Delta":114295962},{"NoteNumber":52,"Velocity":61,"Duration":79579,"SoundDuration":79579,"Delta":114295962},{"NoteNumber":61,"Velocity":72,"Duration":80742,"SoundDuration":80742,"Delta":114455122},{"NoteNumber":69,"Velocity":72,"Duration":80742,"SoundDuration":80742,"Delta":114455122},{"NoteNumber":73,"Velocity":86,"Duration":80742,"SoundDuration":80742,"Delta":114455122},{"NoteNumber":40,"Velocity":52,"Duration":80742,"SoundDuration":80742,"Delta":114455122},{"NoteNumber":52,"Velocity":62,"Duration":80742,"SoundDuration":80742,"Delta":114455122},{"NoteNumber":73,"Velocity":88,"Duration":76277,"SoundDuration":76277,"Delta":114616608},{"NoteNumber":61,"Velocity":73,"Duration":76277,"SoundDuration":76277,"Delta":114616608},{"NoteNumber":69,"Velocity":73,"Duration":76277,"SoundDuration":76277,"Delta":114616608},{"NoteNumber":39,"Velocity":52,"Duration":76277,"SoundDuration":76277,"Delta":114616608},{"NoteNumber":51,"Velocity":62,"Duration":76277,"SoundDuration":76277,"Delta":114616608},{"NoteNumber":61,"Velocity":75,"Duration":78820,"SoundDuration":78820,"Delta":114769163},{"NoteNumber":69,"Velocity":75,"Duration":78820,"SoundDuration":78820,"Delta":114769163},{"NoteNumber":73,"Velocity":90,"Duration":78820,"SoundDuration":78820,"Delta":114769163},{"NoteNumber":39,"Velocity":53,"Duration":78820,"SoundDuration":78820,"Delta":114769163},{"NoteNumber":51,"Velocity":63,"Duration":78820,"SoundDuration":78820,"Delta":114769163},{"NoteNumber":61,"Velocity":77,"Duration":78820,"SoundDuration":78820,"Delta":114926805},{"NoteNumber":69,"Velocity":77,"Duration":78820,"SoundDuration":78820,"Delta":114926805},{"NoteNumber":73,"Velocity":91,"Duration":78820,"SoundDuration":78820,"Delta":114926805},{"NoteNumber":39,"Velocity":53,"Duration":78820,"SoundDuration":78820,"Delta":114926805},{"NoteNumber":51,"Velocity":64,"Duration":78820,"SoundDuration":78820,"Delta":114926805},{"NoteNumber":61,"Velocity":78,"Duration":74983,"SoundDuration":74983,"Delta":115084446},{"NoteNumber":68,"Velocity":78,"Duration":74983,"SoundDuration":74983,"Delta":115084446},{"NoteNumber":73,"Velocity":92,"Duration":74983,"SoundDuration":74983,"Delta":115084446},{"NoteNumber":40,"Velocity":55,"Duration":74983,"SoundDuration":74983,"Delta":115084446},{"NoteNumber":52,"Velocity":66,"Duration":74983,"SoundDuration":74983,"Delta":115084446},{"NoteNumber":73,"Velocity":93,"Duration":75841,"SoundDuration":75841,"Delta":115234834},{"NoteNumber":61,"Velocity":79,"Duration":75841,"SoundDuration":75841,"Delta":115234834},{"NoteNumber":67,"Velocity":79,"Duration":75841,"SoundDuration":75841,"Delta":115234834},{"NoteNumber":40,"Velocity":56,"Duration":75841,"SoundDuration":75841,"Delta":115234834},{"NoteNumber":52,"Velocity":67,"Duration":75841,"SoundDuration":75841,"Delta":115234834},{"NoteNumber":61,"Velocity":73,"Duration":87206,"SoundDuration":87206,"Delta":115387040},{"NoteNumber":68,"Velocity":86,"Duration":87206,"SoundDuration":87206,"Delta":115387040},{"NoteNumber":73,"Velocity":102,"Duration":87206,"SoundDuration":87206,"Delta":115387040},{"NoteNumber":41,"Velocity":52,"Duration":87206,"SoundDuration":87206,"Delta":115387040},{"NoteNumber":53,"Velocity":74,"Duration":87206,"SoundDuration":87206,"Delta":115387040},{"NoteNumber":65,"Velocity":68,"Duration":162959,"SoundDuration":162959,"Delta":115558591},{"NoteNumber":68,"Velocity":80,"Duration":162959,"SoundDuration":162959,"Delta":115558591},{"NoteNumber":77,"Velocity":95,"Duration":162959,"SoundDuration":162959,"Delta":115558591},{"NoteNumber":56,"Velocity":50,"Duration":162959,"SoundDuration":162959,"Delta":115558591},{"NoteNumber":49,"Velocity":50,"Duration":162959,"SoundDuration":162959,"Delta":115558591},{"NoteNumber":61,"Velocity":71,"Duration":162959,"SoundDuration":162959,"Delta":115558591},{"NoteNumber":65,"Velocity":68,"Duration":168312,"SoundDuration":168312,"Delta":115721550},{"NoteNumber":68,"Velocity":80,"Duration":168312,"SoundDuration":168312,"Delta":115721550},{"NoteNumber":77,"Velocity":95,"Duration":168312,"SoundDuration":168312,"Delta":115721550},{"NoteNumber":56,"Velocity":51,"Duration":168312,"SoundDuration":168312,"Delta":115721550},{"NoteNumber":49,"Velocity":51,"Duration":168312,"SoundDuration":168312,"Delta":115721550},{"NoteNumber":61,"Velocity":72,"Duration":168312,"SoundDuration":168312,"Delta":115721550},{"NoteNumber":65,"Velocity":72,"Duration":163639,"SoundDuration":163639,"Delta":115889862},{"NoteNumber":68,"Velocity":85,"Duration":163639,"SoundDuration":163639,"Delta":115889862},{"NoteNumber":77,"Velocity":101,"Duration":163639,"SoundDuration":163639,"Delta":115889862},{"NoteNumber":49,"Velocity":53,"Duration":163639,"SoundDuration":163639,"Delta":115889862},{"NoteNumber":56,"Velocity":53,"Duration":163639,"SoundDuration":163639,"Delta":115889862},{"NoteNumber":61,"Velocity":75,"Duration":163639,"SoundDuration":163639,"Delta":115889862},{"NoteNumber":75,"Velocity":95,"Duration":164820,"SoundDuration":164820,"Delta":116053502},{"NoteNumber":63,"Velocity":68,"Duration":164820,"SoundDuration":164820,"Delta":116053502},{"NoteNumber":61,"Velocity":68,"Duration":166002,"SoundDuration":166002,"Delta":116218323},{"NoteNumber":73,"Velocity":95,"Duration":166002,"SoundDuration":166002,"Delta":116218323},{"NoteNumber":30,"Velocity":68,"Duration":176367,"SoundDuration":176367,"Delta":116384325},{"NoteNumber":42,"Velocity":96,"Duration":176367,"SoundDuration":176367,"Delta":116384325},{"NoteNumber":65,"Velocity":68,"Duration":164392,"SoundDuration":164392,"Delta":116560693},{"NoteNumber":70,"Velocity":80,"Duration":164392,"SoundDuration":164392,"Delta":116560693},{"NoteNumber":77,"Velocity":95,"Duration":164392,"SoundDuration":164392,"Delta":116560693},{"NoteNumber":54,"Velocity":50,"Duration":164392,"SoundDuration":164392,"Delta":116560693},{"NoteNumber":49,"Velocity":50,"Duration":164392,"SoundDuration":164392,"Delta":116560693},{"NoteNumber":61,"Velocity":71,"Duration":164392,"SoundDuration":164392,"Delta":116560693},{"NoteNumber":65,"Velocity":68,"Duration":169303,"SoundDuration":169303,"Delta":116725086},{"NoteNumber":70,"Velocity":80,"Duration":169303,"SoundDuration":169303,"Delta":116725086},{"NoteNumber":77,"Velocity":95,"Duration":169303,"SoundDuration":169303,"Delta":116725086},{"NoteNumber":54,"Velocity":51,"Duration":169303,"SoundDuration":169303,"Delta":116725086},{"NoteNumber":49,"Velocity":51,"Duration":169303,"SoundDuration":169303,"Delta":116725086},{"NoteNumber":61,"Velocity":72,"Duration":169303,"SoundDuration":169303,"Delta":116725086},{"NoteNumber":65,"Velocity":72,"Duration":166002,"SoundDuration":166002,"Delta":116894389},{"NoteNumber":70,"Velocity":85,"Duration":166002,"SoundDuration":166002,"Delta":116894389},{"NoteNumber":77,"Velocity":101,"Duration":166002,"SoundDuration":166002,"Delta":116894389},{"NoteNumber":49,"Velocity":53,"Duration":166002,"SoundDuration":166002,"Delta":116894389},{"NoteNumber":54,"Velocity":53,"Duration":166002,"SoundDuration":166002,"Delta":116894389},{"NoteNumber":61,"Velocity":75,"Duration":166002,"SoundDuration":166002,"Delta":116894389},{"NoteNumber":75,"Velocity":95,"Duration":167632,"SoundDuration":167632,"Delta":117060392},{"NoteNumber":63,"Velocity":68,"Duration":167632,"SoundDuration":167632,"Delta":117060392},{"NoteNumber":61,"Velocity":68,"Duration":169262,"SoundDuration":169262,"Delta":117228024},{"NoteNumber":73,"Velocity":95,"Duration":169262,"SoundDuration":169262,"Delta":117228024},{"NoteNumber":32,"Velocity":68,"Duration":175290,"SoundDuration":175290,"Delta":117397286},{"NoteNumber":44,"Velocity":96,"Duration":175290,"SoundDuration":175290,"Delta":117397286},{"NoteNumber":65,"Velocity":68,"Duration":164392,"SoundDuration":164392,"Delta":117572576},{"NoteNumber":68,"Velocity":80,"Duration":164392,"SoundDuration":164392,"Delta":117572576},{"NoteNumber":77,"Velocity":95,"Duration":164392,"SoundDuration":164392,"Delta":117572576},{"NoteNumber":56,"Velocity":50,"Duration":164392,"SoundDuration":164392,"Delta":117572576},{"NoteNumber":49,"Velocity":50,"Duration":164392,"SoundDuration":164392,"Delta":117572576},{"NoteNumber":61,"Velocity":71,"Duration":164392,"SoundDuration":164392,"Delta":117572576},{"NoteNumber":65,"Velocity":68,"Duration":169941,"SoundDuration":169941,"Delta":117736969},{"NoteNumber":68,"Velocity":80,"Duration":169941,"SoundDuration":169941,"Delta":117736969},{"NoteNumber":77,"Velocity":95,"Duration":169941,"SoundDuration":169941,"Delta":117736969},{"NoteNumber":56,"Velocity":51,"Duration":169941,"SoundDuration":169941,"Delta":117736969},{"NoteNumber":49,"Velocity":51,"Duration":169941,"SoundDuration":169941,"Delta":117736969},{"NoteNumber":61,"Velocity":72,"Duration":169941,"SoundDuration":169941,"Delta":117736969},{"NoteNumber":65,"Velocity":72,"Duration":165221,"SoundDuration":165221,"Delta":117906911},{"NoteNumber":68,"Velocity":85,"Duration":165221,"SoundDuration":165221,"Delta":117906911},{"NoteNumber":77,"Velocity":101,"Duration":165221,"SoundDuration":165221,"Delta":117906911},{"NoteNumber":49,"Velocity":53,"Duration":165221,"SoundDuration":165221,"Delta":117906911},{"NoteNumber":56,"Velocity":53,"Duration":165221,"SoundDuration":165221,"Delta":117906911},{"NoteNumber":61,"Velocity":75,"Duration":165221,"SoundDuration":165221,"Delta":117906911},{"NoteNumber":75,"Velocity":95,"Duration":165221,"SoundDuration":165221,"Delta":118072132},{"NoteNumber":63,"Velocity":68,"Duration":165221,"SoundDuration":165221,"Delta":118072132},{"NoteNumber":61,"Velocity":68,"Duration":165220,"SoundDuration":165220,"Delta":118237353},{"NoteNumber":73,"Velocity":95,"Duration":165220,"SoundDuration":165220,"Delta":118237353},{"NoteNumber":34,"Velocity":68,"Duration":181735,"SoundDuration":181735,"Delta":118402574},{"NoteNumber":46,"Velocity":96,"Duration":181735,"SoundDuration":181735,"Delta":118402574},{"NoteNumber":65,"Velocity":68,"Duration":172866,"SoundDuration":172866,"Delta":118584310},{"NoteNumber":67,"Velocity":80,"Duration":172866,"SoundDuration":172866,"Delta":118584310},{"NoteNumber":77,"Velocity":95,"Duration":172866,"SoundDuration":172866,"Delta":118584310},{"NoteNumber":58,"Velocity":50,"Duration":172866,"SoundDuration":172866,"Delta":118584310},{"NoteNumber":51,"Velocity":50,"Duration":172866,"SoundDuration":172866,"Delta":118584310},{"NoteNumber":61,"Velocity":71,"Duration":172866,"SoundDuration":172866,"Delta":118584310},{"NoteNumber":65,"Velocity":68,"Duration":177878,"SoundDuration":177878,"Delta":118757176},{"NoteNumber":67,"Velocity":80,"Duration":177878,"SoundDuration":177878,"Delta":118757176},{"NoteNumber":77,"Velocity":95,"Duration":177878,"SoundDuration":177878,"Delta":118757176},{"NoteNumber":58,"Velocity":51,"Duration":177878,"SoundDuration":177878,"Delta":118757176},{"NoteNumber":51,"Velocity":51,"Duration":177878,"SoundDuration":177878,"Delta":118757176},{"NoteNumber":61,"Velocity":72,"Duration":177878,"SoundDuration":177878,"Delta":118757176},{"NoteNumber":65,"Velocity":72,"Duration":184423,"SoundDuration":184423,"Delta":118935054},{"NoteNumber":67,"Velocity":85,"Duration":184423,"SoundDuration":184423,"Delta":118935054},{"NoteNumber":77,"Velocity":101,"Duration":184423,"SoundDuration":184423,"Delta":118935054},{"NoteNumber":51,"Velocity":53,"Duration":184423,"SoundDuration":184423,"Delta":118935054},{"NoteNumber":58,"Velocity":53,"Duration":184423,"SoundDuration":184423,"Delta":118935054},{"NoteNumber":61,"Velocity":75,"Duration":184423,"SoundDuration":184423,"Delta":118935054},{"NoteNumber":75,"Velocity":95,"Duration":189994,"SoundDuration":189994,"Delta":119119478},{"NoteNumber":63,"Velocity":68,"Duration":189994,"SoundDuration":189994,"Delta":119119478},{"NoteNumber":61,"Velocity":68,"Duration":190766,"SoundDuration":190766,"Delta":119309473},{"NoteNumber":73,"Velocity":95,"Duration":190766,"SoundDuration":190766,"Delta":119309473},{"NoteNumber":51,"Velocity":84,"Duration":2033900,"SoundDuration":2033900,"Delta":119500240},{"NoteNumber":55,"Velocity":84,"Duration":2033900,"SoundDuration":2033900,"Delta":119500240},{"NoteNumber":61,"Velocity":95,"Duration":2033900,"SoundDuration":2033900,"Delta":119500240},{"NoteNumber":63,"Velocity":101,"Duration":2033900,"SoundDuration":2033900,"Delta":119500240},{"NoteNumber":27,"Velocity":59,"Duration":2033900,"SoundDuration":2033900,"Delta":119500240},{"NoteNumber":39,"Velocity":70,"Duration":2033900,"SoundDuration":2033900,"Delta":119500240},{"NoteNumber":54,"Velocity":80,"Duration":2142855,"SoundDuration":2142855,"Delta":121534140},{"NoteNumber":60,"Velocity":80,"Duration":2142855,"SoundDuration":2142855,"Delta":121534140},{"NoteNumber":65,"Velocity":95,"Duration":2142855,"SoundDuration":2142855,"Delta":121534140},{"NoteNumber":32,"Velocity":56,"Duration":2142855,"SoundDuration":2142855,"Delta":121534140},{"NoteNumber":44,"Velocity":66,"Duration":2142855,"SoundDuration":2142855,"Delta":121534140},{"NoteNumber":34,"Velocity":44,"Duration":125208,"SoundDuration":125208,"Delta":123676996},{"NoteNumber":46,"Velocity":52,"Duration":125208,"SoundDuration":125208,"Delta":123676996},{"NoteNumber":53,"Velocity":29,"Duration":125208,"SoundDuration":125208,"Delta":123802204},{"NoteNumber":49,"Velocity":22,"Duration":125007,"SoundDuration":125007,"Delta":123927413},{"NoteNumber":61,"Velocity":26,"Duration":125007,"SoundDuration":125007,"Delta":123927413},{"NoteNumber":58,"Velocity":22,"Duration":125007,"SoundDuration":125007,"Delta":123927413},{"NoteNumber":41,"Velocity":33,"Duration":124605,"SoundDuration":124605,"Delta":124052421},{"NoteNumber":34,"Velocity":25,"Duration":124605,"SoundDuration":124605,"Delta":124177026},{"NoteNumber":46,"Velocity":29,"Duration":124605,"SoundDuration":124605,"Delta":124177026},{"NoteNumber":53,"Velocity":29,"Duration":124214,"SoundDuration":124214,"Delta":124301632},{"NoteNumber":49,"Velocity":23,"Duration":124018,"SoundDuration":124018,"Delta":124425846},{"NoteNumber":61,"Velocity":27,"Duration":124018,"SoundDuration":124018,"Delta":124425846},{"NoteNumber":58,"Velocity":23,"Duration":124018,"SoundDuration":124018,"Delta":124425846},{"NoteNumber":41,"Velocity":35,"Duration":124018,"SoundDuration":124018,"Delta":124549864},{"NoteNumber":34,"Velocity":27,"Duration":123456,"SoundDuration":123456,"Delta":124673882},{"NoteNumber":46,"Velocity":33,"Duration":123456,"SoundDuration":123456,"Delta":124673882},{"NoteNumber":53,"Velocity":30,"Duration":123119,"SoundDuration":123119,"Delta":124797339},{"NoteNumber":49,"Velocity":24,"Duration":122616,"SoundDuration":122616,"Delta":124920458},{"NoteNumber":61,"Velocity":29,"Duration":122616,"SoundDuration":122616,"Delta":124920458},{"NoteNumber":58,"Velocity":24,"Duration":122616,"SoundDuration":122616,"Delta":124920458},{"NoteNumber":41,"Velocity":35,"Duration":122283,"SoundDuration":122283,"Delta":125043075},{"NoteNumber":34,"Velocity":28,"Duration":121786,"SoundDuration":121786,"Delta":125165358},{"NoteNumber":46,"Velocity":34,"Duration":121786,"SoundDuration":121786,"Delta":125165358},{"NoteNumber":53,"Velocity":35,"Duration":121457,"SoundDuration":121457,"Delta":125287144},{"NoteNumber":49,"Velocity":26,"Duration":120967,"SoundDuration":120967,"Delta":125408602},{"NoteNumber":61,"Velocity":31,"Duration":120967,"SoundDuration":120967,"Delta":125408602},{"NoteNumber":58,"Velocity":26,"Duration":120967,"SoundDuration":120967,"Delta":125408602},{"NoteNumber":41,"Velocity":39,"Duration":120481,"SoundDuration":120481,"Delta":125529570},{"NoteNumber":34,"Velocity":30,"Duration":120637,"SoundDuration":120637,"Delta":125650052},{"NoteNumber":46,"Velocity":38,"Duration":120637,"SoundDuration":120637,"Delta":125650052},{"NoteNumber":53,"Velocity":35,"Duration":120799,"SoundDuration":120799,"Delta":125770689},{"NoteNumber":49,"Velocity":28,"Duration":121123,"SoundDuration":121123,"Delta":125891488},{"NoteNumber":61,"Velocity":34,"Duration":121123,"SoundDuration":121123,"Delta":125891488},{"NoteNumber":58,"Velocity":28,"Duration":121123,"SoundDuration":121123,"Delta":125891488},{"NoteNumber":41,"Velocity":39,"Duration":121451,"SoundDuration":121451,"Delta":126012612},{"NoteNumber":34,"Velocity":29,"Duration":121615,"SoundDuration":121615,"Delta":126134063},{"NoteNumber":46,"Velocity":35,"Duration":121615,"SoundDuration":121615,"Delta":126134063},{"NoteNumber":53,"Velocity":34,"Duration":122110,"SoundDuration":122110,"Delta":126255678},{"NoteNumber":49,"Velocity":25,"Duration":122276,"SoundDuration":122276,"Delta":126377788},{"NoteNumber":61,"Velocity":30,"Duration":122276,"SoundDuration":122276,"Delta":126377788},{"NoteNumber":58,"Velocity":25,"Duration":122276,"SoundDuration":122276,"Delta":126377788},{"NoteNumber":41,"Velocity":36,"Duration":122608,"SoundDuration":122608,"Delta":126500065},{"NoteNumber":34,"Velocity":27,"Duration":122944,"SoundDuration":122944,"Delta":126622674},{"NoteNumber":46,"Velocity":33,"Duration":122944,"SoundDuration":122944,"Delta":126622674},{"NoteNumber":53,"Velocity":30,"Duration":123112,"SoundDuration":123112,"Delta":126745618},{"NoteNumber":49,"Velocity":24,"Duration":123112,"SoundDuration":123112,"Delta":126868730},{"NoteNumber":61,"Velocity":29,"Duration":123112,"SoundDuration":123112,"Delta":126868730},{"NoteNumber":58,"Velocity":24,"Duration":123112,"SoundDuration":123112,"Delta":126868730},{"NoteNumber":41,"Velocity":35,"Duration":123112,"SoundDuration":123112,"Delta":126991843},{"NoteNumber":34,"Velocity":25,"Duration":124018,"SoundDuration":124018,"Delta":127114955},{"NoteNumber":46,"Velocity":29,"Duration":124018,"SoundDuration":124018,"Delta":127114955},{"NoteNumber":53,"Velocity":29,"Duration":124018,"SoundDuration":124018,"Delta":127238973},{"NoteNumber":49,"Velocity":24,"Duration":124018,"SoundDuration":124018,"Delta":127362991},{"NoteNumber":61,"Velocity":28,"Duration":124018,"SoundDuration":124018,"Delta":127362991},{"NoteNumber":58,"Velocity":24,"Duration":124018,"SoundDuration":124018,"Delta":127362991},{"NoteNumber":53,"Velocity":33,"Duration":124018,"SoundDuration":124018,"Delta":127487010},{"NoteNumber":73,"Velocity":54,"Duration":124605,"SoundDuration":124605,"Delta":127611028},{"NoteNumber":46,"Velocity":35,"Duration":124605,"SoundDuration":124605,"Delta":127611028},{"NoteNumber":70,"Velocity":51,"Duration":62302,"SoundDuration":62302,"Delta":127735633},{"NoteNumber":53,"Velocity":34,"Duration":124605,"SoundDuration":124605,"Delta":127735633},{"NoteNumber":61,"Velocity":30,"Duration":124605,"SoundDuration":124605,"Delta":127860239},{"NoteNumber":58,"Velocity":30,"Duration":124605,"SoundDuration":124605,"Delta":127860239},{"NoteNumber":72,"Velocity":51,"Duration":124605,"SoundDuration":124605,"Delta":127984844},{"NoteNumber":53,"Velocity":31,"Duration":124605,"SoundDuration":124605,"Delta":127984844},{"NoteNumber":73,"Velocity":54,"Duration":122849,"SoundDuration":122849,"Delta":128109450},{"NoteNumber":46,"Velocity":35,"Duration":122849,"SoundDuration":122849,"Delta":128109450},{"NoteNumber":70,"Velocity":51,"Duration":61425,"SoundDuration":61425,"Delta":128232300},{"NoteNumber":53,"Velocity":33,"Duration":122849,"SoundDuration":122849,"Delta":128232300},{"NoteNumber":61,"Velocity":31,"Duration":124605,"SoundDuration":124605,"Delta":128355150},{"NoteNumber":58,"Velocity":31,"Duration":124605,"SoundDuration":124605,"Delta":128355150},{"NoteNumber":53,"Velocity":31,"Duration":124605,"SoundDuration":124605,"Delta":128479755},{"NoteNumber":73,"Velocity":54,"Duration":122279,"SoundDuration":122279,"Delta":128604361},{"NoteNumber":46,"Velocity":35,"Duration":122279,"SoundDuration":122279,"Delta":128604361},{"NoteNumber":70,"Velocity":51,"Duration":61139,"SoundDuration":61139,"Delta":128726640},{"NoteNumber":53,"Velocity":34,"Duration":122279,"SoundDuration":122279,"Delta":128726640},{"NoteNumber":61,"Velocity":31,"Duration":124605,"SoundDuration":124605,"Delta":128848919},{"NoteNumber":58,"Velocity":31,"Duration":124605,"SoundDuration":124605,"Delta":128848919},{"NoteNumber":72,"Velocity":51,"Duration":124605,"SoundDuration":124605,"Delta":128973525},{"NoteNumber":53,"Velocity":31,"Duration":124605,"SoundDuration":124605,"Delta":128973525},{"NoteNumber":73,"Velocity":54,"Duration":122849,"SoundDuration":122849,"Delta":129098130},{"NoteNumber":46,"Velocity":35,"Duration":122849,"SoundDuration":122849,"Delta":129098130},{"NoteNumber":70,"Velocity":51,"Duration":61425,"SoundDuration":61425,"Delta":129220980},{"NoteNumber":53,"Velocity":33,"Duration":122849,"SoundDuration":122849,"Delta":129220980},{"NoteNumber":61,"Velocity":31,"Duration":124605,"SoundDuration":124605,"Delta":129343830},{"NoteNumber":58,"Velocity":31,"Duration":124605,"SoundDuration":124605,"Delta":129343830},{"NoteNumber":53,"Velocity":31,"Duration":124605,"SoundDuration":124605,"Delta":129468436},{"NoteNumber":73,"Velocity":54,"Duration":122849,"SoundDuration":122849,"Delta":129593041},{"NoteNumber":46,"Velocity":35,"Duration":122849,"SoundDuration":122849,"Delta":129593041},{"NoteNumber":70,"Velocity":51,"Duration":61425,"SoundDuration":61425,"Delta":129715891},{"NoteNumber":53,"Velocity":33,"Duration":122849,"SoundDuration":122849,"Delta":129715891},{"NoteNumber":61,"Velocity":31,"Duration":124605,"SoundDuration":124605,"Delta":129838741},{"NoteNumber":58,"Velocity":31,"Duration":124605,"SoundDuration":124605,"Delta":129838741},{"NoteNumber":72,"Velocity":61,"Duration":124605,"SoundDuration":124605,"Delta":129963347},{"NoteNumber":53,"Velocity":33,"Duration":124605,"SoundDuration":124605,"Delta":129963347},{"NoteNumber":73,"Velocity":66,"Duration":122279,"SoundDuration":122279,"Delta":130087952},{"NoteNumber":46,"Velocity":37,"Duration":122279,"SoundDuration":122279,"Delta":130087952},{"NoteNumber":82,"Velocity":64,"Duration":61139,"SoundDuration":61139,"Delta":130210232},{"NoteNumber":53,"Velocity":35,"Duration":122279,"SoundDuration":122279,"Delta":130210232},{"NoteNumber":61,"Velocity":34,"Duration":128282,"SoundDuration":128282,"Delta":130332511},{"NoteNumber":58,"Velocity":34,"Duration":128282,"SoundDuration":128282,"Delta":130332511},{"NoteNumber":53,"Velocity":34,"Duration":128281,"SoundDuration":128281,"Delta":130460793},{"NoteNumber":81,"Velocity":64,"Duration":122849,"SoundDuration":122849,"Delta":130589075},{"NoteNumber":48,"Velocity":35,"Duration":122849,"SoundDuration":122849,"Delta":130589075},{"NoteNumber":72,"Velocity":59,"Duration":61425,"SoundDuration":61425,"Delta":130711925},{"NoteNumber":54,"Velocity":34,"Duration":122849,"SoundDuration":122849,"Delta":130711925},{"NoteNumber":63,"Velocity":30,"Duration":124605,"SoundDuration":124605,"Delta":130834775},{"NoteNumber":57,"Velocity":30,"Duration":124605,"SoundDuration":124605,"Delta":130834775},{"NoteNumber":73,"Velocity":51,"Duration":124605,"SoundDuration":124605,"Delta":130959380},{"NoteNumber":54,"Velocity":31,"Duration":124605,"SoundDuration":124605,"Delta":130959380},{"NoteNumber":75,"Velocity":54,"Duration":122849,"SoundDuration":122849,"Delta":131083986},{"NoteNumber":48,"Velocity":35,"Duration":122849,"SoundDuration":122849,"Delta":131083986},{"NoteNumber":72,"Velocity":51,"Duration":61425,"SoundDuration":61425,"Delta":131206836},{"NoteNumber":54,"Velocity":33,"Duration":122849,"SoundDuration":122849,"Delta":131206836},{"NoteNumber":63,"Velocity":31,"Duration":124605,"SoundDuration":124605,"Delta":131329686},{"NoteNumber":57,"Velocity":31,"Duration":124605,"SoundDuration":124605,"Delta":131329686},{"NoteNumber":54,"Velocity":31,"Duration":124605,"SoundDuration":124605,"Delta":131454291},{"NoteNumber":78,"Velocity":57,"Duration":123426,"SoundDuration":123426,"Delta":131578897},{"NoteNumber":48,"Velocity":35,"Duration":123426,"SoundDuration":123426,"Delta":131578897},{"NoteNumber":72,"Velocity":51,"Duration":61713,"SoundDuration":61713,"Delta":131702323},{"NoteNumber":51,"Velocity":34,"Duration":123426,"SoundDuration":123426,"Delta":131702323},{"NoteNumber":63,"Velocity":30,"Duration":124605,"SoundDuration":124605,"Delta":131825749},{"NoteNumber":57,"Velocity":30,"Duration":124605,"SoundDuration":124605,"Delta":131825749},{"NoteNumber":73,"Velocity":51,"Duration":124605,"SoundDuration":124605,"Delta":131950355},{"NoteNumber":51,"Velocity":31,"Duration":124605,"SoundDuration":124605,"Delta":131950355},{"NoteNumber":75,"Velocity":54,"Duration":122849,"SoundDuration":122849,"Delta":132074960},{"NoteNumber":48,"Velocity":35,"Duration":122849,"SoundDuration":122849,"Delta":132074960},{"NoteNumber":72,"Velocity":51,"Duration":61425,"SoundDuration":61425,"Delta":132197810},{"NoteNumber":54,"Velocity":33,"Duration":122849,"SoundDuration":122849,"Delta":132197810},{"NoteNumber":63,"Velocity":31,"Duration":124605,"SoundDuration":124605,"Delta":132320660},{"NoteNumber":57,"Velocity":31,"Duration":124605,"SoundDuration":124605,"Delta":132320660},{"NoteNumber":54,"Velocity":31,"Duration":124605,"SoundDuration":124605,"Delta":132445266},{"NoteNumber":78,"Velocity":57,"Duration":123426,"SoundDuration":123426,"Delta":132569871},{"NoteNumber":48,"Velocity":35,"Duration":123426,"SoundDuration":123426,"Delta":132569871},{"NoteNumber":72,"Velocity":51,"Duration":61713,"SoundDuration":61713,"Delta":132693298},{"NoteNumber":51,"Velocity":34,"Duration":123426,"SoundDuration":123426,"Delta":132693298},{"NoteNumber":63,"Velocity":30,"Duration":124605,"SoundDuration":124605,"Delta":132816724},{"NoteNumber":57,"Velocity":30,"Duration":124605,"SoundDuration":124605,"Delta":132816724},{"NoteNumber":73,"Velocity":51,"Duration":124605,"SoundDuration":124605,"Delta":132941329},{"NoteNumber":51,"Velocity":31,"Duration":124605,"SoundDuration":124605,"Delta":132941329},{"NoteNumber":75,"Velocity":54,"Duration":122849,"SoundDuration":122849,"Delta":133065935},{"NoteNumber":48,"Velocity":35,"Duration":122849,"SoundDuration":122849,"Delta":133065935},{"NoteNumber":72,"Velocity":51,"Duration":61425,"SoundDuration":61425,"Delta":133188785},{"NoteNumber":54,"Velocity":33,"Duration":122849,"SoundDuration":122849,"Delta":133188785},{"NoteNumber":63,"Velocity":31,"Duration":124605,"SoundDuration":124605,"Delta":133311635},{"NoteNumber":57,"Velocity":31,"Duration":124605,"SoundDuration":124605,"Delta":133311635},{"NoteNumber":54,"Velocity":31,"Duration":124605,"SoundDuration":124605,"Delta":133436240},{"NoteNumber":78,"Velocity":60,"Duration":123426,"SoundDuration":123426,"Delta":133560846},{"NoteNumber":48,"Velocity":35,"Duration":123426,"SoundDuration":123426,"Delta":133560846},{"NoteNumber":72,"Velocity":53,"Duration":61713,"SoundDuration":61713,"Delta":133684272},{"NoteNumber":51,"Velocity":35,"Duration":123426,"SoundDuration":123426,"Delta":133684272},{"NoteNumber":63,"Velocity":34,"Duration":124605,"SoundDuration":124605,"Delta":133807698},{"NoteNumber":57,"Velocity":34,"Duration":124605,"SoundDuration":124605,"Delta":133807698},{"NoteNumber":73,"Velocity":65,"Duration":124605,"SoundDuration":124605,"Delta":133932304},{"NoteNumber":51,"Velocity":35,"Duration":124605,"SoundDuration":124605,"Delta":133932304},{"NoteNumber":75,"Velocity":71,"Duration":122849,"SoundDuration":122849,"Delta":134056909},{"NoteNumber":48,"Velocity":39,"Duration":122849,"SoundDuration":122849,"Delta":134056909},{"NoteNumber":84,"Velocity":64,"Duration":61425,"SoundDuration":61425,"Delta":134179759},{"NoteNumber":54,"Velocity":37,"Duration":122849,"SoundDuration":122849,"Delta":134179759},{"NoteNumber":63,"Velocity":37,"Duration":127648,"SoundDuration":127648,"Delta":134302609},{"NoteNumber":57,"Velocity":37,"Duration":127648,"SoundDuration":127648,"Delta":134302609},{"NoteNumber":54,"Velocity":38,"Duration":127648,"SoundDuration":127648,"Delta":134430258},{"NoteNumber":84,"Velocity":61,"Duration":246852,"SoundDuration":246852,"Delta":134557907},{"NoteNumber":49,"Velocity":35,"Duration":123426,"SoundDuration":123426,"Delta":134557907},{"NoteNumber":73,"Velocity":57,"Duration":61713,"SoundDuration":61713,"Delta":134681333},{"NoteNumber":53,"Velocity":34,"Duration":123426,"SoundDuration":123426,"Delta":134681333},{"NoteNumber":65,"Velocity":30,"Duration":124605,"SoundDuration":124605,"Delta":134804759},{"NoteNumber":57,"Velocity":30,"Duration":124605,"SoundDuration":124605,"Delta":134804759},{"NoteNumber":75,"Velocity":49,"Duration":124605,"SoundDuration":124605,"Delta":134929365},{"NoteNumber":53,"Velocity":31,"Duration":124605,"SoundDuration":124605,"Delta":134929365},{"NoteNumber":82,"Velocity":52,"Duration":245699,"SoundDuration":245699,"Delta":135053970},{"NoteNumber":77,"Velocity":52,"Duration":122849,"SoundDuration":122849,"Delta":135053970},{"NoteNumber":49,"Velocity":35,"Duration":122849,"SoundDuration":122849,"Delta":135053970},{"NoteNumber":73,"Velocity":49,"Duration":61425,"SoundDuration":61425,"Delta":135176820},{"NoteNumber":53,"Velocity":33,"Duration":122849,"SoundDuration":122849,"Delta":135176820},{"NoteNumber":65,"Velocity":31,"Duration":127648,"SoundDuration":127648,"Delta":135299670},{"NoteNumber":58,"Velocity":31,"Duration":127648,"SoundDuration":127648,"Delta":135299670},{"NoteNumber":53,"Velocity":31,"Duration":127648,"SoundDuration":127648,"Delta":135427319},{"NoteNumber":73,"Velocity":69,"Duration":124605,"SoundDuration":124605,"Delta":135554968},{"NoteNumber":85,"Velocity":82,"Duration":124605,"SoundDuration":124605,"Delta":135554968},{"NoteNumber":52,"Velocity":56,"Duration":124605,"SoundDuration":124605,"Delta":135554968},{"NoteNumber":84,"Velocity":75,"Duration":62302,"SoundDuration":62302,"Delta":135679573},{"NoteNumber":79,"Velocity":63,"Duration":62302,"SoundDuration":62302,"Delta":135679573},{"NoteNumber":61,"Velocity":53,"Duration":124605,"SoundDuration":124605,"Delta":135679573},{"NoteNumber":67,"Velocity":50,"Duration":126411,"SoundDuration":126411,"Delta":135804179},{"NoteNumber":73,"Velocity":61,"Duration":126411,"SoundDuration":126411,"Delta":135930590},{"NoteNumber":82,"Velocity":72,"Duration":126411,"SoundDuration":126411,"Delta":135930590},{"NoteNumber":52,"Velocity":51,"Duration":126411,"SoundDuration":126411,"Delta":135930590},{"NoteNumber":81,"Velocity":78,"Duration":122849,"SoundDuration":122849,"Delta":136057002},{"NoteNumber":77,"Velocity":64,"Duration":122849,"SoundDuration":122849,"Delta":136057002},{"NoteNumber":53,"Velocity":56,"Duration":122849,"SoundDuration":122849,"Delta":136057002},{"NoteNumber":72,"Velocity":57,"Duration":61425,"SoundDuration":61425,"Delta":136179852},{"NoteNumber":84,"Velocity":68,"Duration":61425,"SoundDuration":61425,"Delta":136179852},{"NoteNumber":60,"Velocity":52,"Duration":122849,"SoundDuration":122849,"Delta":136179852},{"NoteNumber":69,"Velocity":58,"Duration":127648,"SoundDuration":127648,"Delta":136302702},{"NoteNumber":53,"Velocity":51,"Duration":127648,"SoundDuration":127648,"Delta":136430351},{"NoteNumber":66,"Velocity":46,"Duration":124605,"SoundDuration":124605,"Delta":136557999},{"NoteNumber":78,"Velocity":55,"Duration":124605,"SoundDuration":124605,"Delta":136557999},{"NoteNumber":45,"Velocity":33,"Duration":124605,"SoundDuration":124605,"Delta":136557999},{"NoteNumber":77,"Velocity":50,"Duration":62302,"SoundDuration":62302,"Delta":136682605},{"NoteNumber":72,"Velocity":42,"Duration":62302,"SoundDuration":62302,"Delta":136682605},{"NoteNumber":54,"Velocity":30,"Duration":124605,"SoundDuration":124605,"Delta":136682605},{"NoteNumber":63,"Velocity":29,"Duration":127648,"SoundDuration":127648,"Delta":136807210},{"NoteNumber":66,"Velocity":40,"Duration":127648,"SoundDuration":127648,"Delta":136934859},{"NoteNumber":75,"Velocity":49,"Duration":127648,"SoundDuration":127648,"Delta":136934859},{"NoteNumber":45,"Velocity":29,"Duration":127648,"SoundDuration":127648,"Delta":136934859},{"NoteNumber":73,"Velocity":52,"Duration":122849,"SoundDuration":122849,"Delta":137062508},{"NoteNumber":70,"Velocity":44,"Duration":122849,"SoundDuration":122849,"Delta":137062508},{"NoteNumber":46,"Velocity":33,"Duration":122849,"SoundDuration":122849,"Delta":137062508},{"NoteNumber":65,"Velocity":40,"Duration":61425,"SoundDuration":61425,"Delta":137185358},{"NoteNumber":77,"Velocity":49,"Duration":61425,"SoundDuration":61425,"Delta":137185358},{"NoteNumber":53,"Velocity":30,"Duration":122849,"SoundDuration":122849,"Delta":137185358},{"NoteNumber":61,"Velocity":29,"Duration":127648,"SoundDuration":127648,"Delta":137308208},{"NoteNumber":46,"Velocity":29,"Duration":127648,"SoundDuration":127648,"Delta":137435857},{"NoteNumber":73,"Velocity":69,"Duration":124605,"SoundDuration":124605,"Delta":137563505},{"NoteNumber":85,"Velocity":82,"Duration":124605,"SoundDuration":124605,"Delta":137563505},{"NoteNumber":52,"Velocity":56,"Duration":124605,"SoundDuration":124605,"Delta":137563505},{"NoteNumber":84,"Velocity":75,"Duration":62302,"SoundDuration":62302,"Delta":137688111},{"NoteNumber":79,"Velocity":63,"Duration":62302,"SoundDuration":62302,"Delta":137688111},{"NoteNumber":61,"Velocity":53,"Duration":124605,"SoundDuration":124605,"Delta":137688111},{"NoteNumber":67,"Velocity":50,"Duration":127648,"SoundDuration":127648,"Delta":137812716},{"NoteNumber":73,"Velocity":61,"Duration":127648,"SoundDuration":127648,"Delta":137940365},{"NoteNumber":82,"Velocity":72,"Duration":127648,"SoundDuration":127648,"Delta":137940365},{"NoteNumber":52,"Velocity":51,"Duration":127648,"SoundDuration":127648,"Delta":137940365},{"NoteNumber":81,"Velocity":78,"Duration":122849,"SoundDuration":122849,"Delta":138068014},{"NoteNumber":77,"Velocity":64,"Duration":122849,"SoundDuration":122849,"Delta":138068014},{"NoteNumber":53,"Velocity":56,"Duration":122849,"SoundDuration":122849,"Delta":138068014},{"NoteNumber":72,"Velocity":57,"Duration":61425,"SoundDuration":61425,"Delta":138190864},{"NoteNumber":84,"Velocity":68,"Duration":61425,"SoundDuration":61425,"Delta":138190864},{"NoteNumber":60,"Velocity":52,"Duration":122849,"SoundDuration":122849,"Delta":138190864},{"NoteNumber":69,"Velocity":58,"Duration":127648,"SoundDuration":127648,"Delta":138313714},{"NoteNumber":53,"Velocity":51,"Duration":127648,"SoundDuration":127648,"Delta":138441363},{"NoteNumber":66,"Velocity":46,"Duration":124605,"SoundDuration":124605,"Delta":138569011},{"NoteNumber":78,"Velocity":55,"Duration":124605,"SoundDuration":124605,"Delta":138569011},{"NoteNumber":45,"Velocity":33,"Duration":124605,"SoundDuration":124605,"Delta":138569011},{"NoteNumber":77,"Velocity":50,"Duration":62302,"SoundDuration":62302,"Delta":138693617},{"NoteNumber":72,"Velocity":42,"Duration":62302,"SoundDuration":62302,"Delta":138693617},{"NoteNumber":54,"Velocity":30,"Duration":124605,"SoundDuration":124605,"Delta":138693617},{"NoteNumber":63,"Velocity":29,"Duration":127648,"SoundDuration":127648,"Delta":138818222},{"NoteNumber":66,"Velocity":40,"Duration":127648,"SoundDuration":127648,"Delta":138945871},{"NoteNumber":75,"Velocity":49,"Duration":127648,"SoundDuration":127648,"Delta":138945871},{"NoteNumber":45,"Velocity":29,"Duration":127648,"SoundDuration":127648,"Delta":138945871},{"NoteNumber":74,"Velocity":52,"Duration":122849,"SoundDuration":122849,"Delta":139073520},{"NoteNumber":70,"Velocity":44,"Duration":122849,"SoundDuration":122849,"Delta":139073520},{"NoteNumber":46,"Velocity":33,"Duration":122849,"SoundDuration":122849,"Delta":139073520},{"NoteNumber":73,"Velocity":40,"Duration":61425,"SoundDuration":61425,"Delta":139196370},{"NoteNumber":65,"Velocity":40,"Duration":61425,"SoundDuration":61425,"Delta":139196370},{"NoteNumber":77,"Velocity":49,"Duration":61425,"SoundDuration":61425,"Delta":139196370},{"NoteNumber":53,"Velocity":30,"Duration":122849,"SoundDuration":122849,"Delta":139196370},{"NoteNumber":61,"Velocity":29,"Duration":150000,"SoundDuration":150000,"Delta":139319220},{"NoteNumber":46,"Velocity":29,"Duration":150000,"SoundDuration":150000,"Delta":139469220},{"NoteNumber":82,"Velocity":75,"Duration":129870,"SoundDuration":129870,"Delta":139619220},{"NoteNumber":77,"Velocity":75,"Duration":129870,"SoundDuration":129870,"Delta":139619220},{"NoteNumber":89,"Velocity":89,"Duration":129870,"SoundDuration":129870,"Delta":139619220},{"NoteNumber":43,"Velocity":56,"Duration":129870,"SoundDuration":129870,"Delta":139619220},{"NoteNumber":88,"Velocity":83,"Duration":64935,"SoundDuration":64935,"Delta":139749090},{"NoteNumber":76,"Velocity":70,"Duration":64935,"SoundDuration":64935,"Delta":139749090},{"NoteNumber":48,"Velocity":53,"Duration":129870,"SoundDuration":129870,"Delta":139749090},{"NoteNumber":49,"Velocity":50,"Duration":133333,"SoundDuration":133333,"Delta":139878960},{"NoteNumber":73,"Velocity":62,"Duration":133333,"SoundDuration":133333,"Delta":140012294},{"NoteNumber":85,"Velocity":75,"Duration":133333,"SoundDuration":133333,"Delta":140012294},{"NoteNumber":58,"Velocity":49,"Duration":133333,"SoundDuration":133333,"Delta":140012294},{"NoteNumber":75,"Velocity":68,"Duration":127659,"SoundDuration":127659,"Delta":140145627},{"NoteNumber":84,"Velocity":80,"Duration":127659,"SoundDuration":127659,"Delta":140145627},{"NoteNumber":72,"Velocity":68,"Duration":127659,"SoundDuration":127659,"Delta":140145627},{"NoteNumber":43,"Velocity":52,"Duration":127659,"SoundDuration":127659,"Delta":140145627},{"NoteNumber":70,"Velocity":62,"Duration":63829,"SoundDuration":63829,"Delta":140273286},{"NoteNumber":82,"Velocity":75,"Duration":63829,"SoundDuration":63829,"Delta":140273286},{"NoteNumber":48,"Velocity":49,"Duration":127659,"SoundDuration":127659,"Delta":140273286},{"NoteNumber":49,"Velocity":49,"Duration":130434,"SoundDuration":130434,"Delta":140400946},{"NoteNumber":58,"Velocity":49,"Duration":130434,"SoundDuration":130434,"Delta":140531381},{"NoteNumber":70,"Velocity":68,"Duration":126050,"SoundDuration":126050,"Delta":140661815},{"NoteNumber":82,"Velocity":80,"Duration":126050,"SoundDuration":126050,"Delta":140661815},{"NoteNumber":43,"Velocity":47,"Duration":126050,"SoundDuration":126050,"Delta":140661815},{"NoteNumber":80,"Velocity":73,"Duration":63025,"SoundDuration":63025,"Delta":140787866},{"NoteNumber":76,"Velocity":61,"Duration":63025,"SoundDuration":63025,"Delta":140787866},{"NoteNumber":48,"Velocity":45,"Duration":126050,"SoundDuration":126050,"Delta":140787866},{"NoteNumber":49,"Velocity":42,"Duration":128755,"SoundDuration":128755,"Delta":140913916},{"NoteNumber":67,"Velocity":57,"Duration":128755,"SoundDuration":128755,"Delta":141042672},{"NoteNumber":79,"Velocity":68,"Duration":128755,"SoundDuration":128755,"Delta":141042672},{"NoteNumber":58,"Velocity":44,"Duration":128755,"SoundDuration":128755,"Delta":141042672},{"NoteNumber":75,"Velocity":59,"Duration":122849,"SoundDuration":122849,"Delta":141171427},{"NoteNumber":78,"Velocity":69,"Duration":122849,"SoundDuration":122849,"Delta":141171427},{"NoteNumber":45,"Velocity":49,"Duration":122849,"SoundDuration":122849,"Delta":141171427},{"NoteNumber":66,"Velocity":53,"Duration":61425,"SoundDuration":61425,"Delta":141294277},{"NoteNumber":72,"Velocity":62,"Duration":61425,"SoundDuration":61425,"Delta":141294277},{"NoteNumber":50,"Velocity":44,"Duration":122849,"SoundDuration":122849,"Delta":141294277},{"NoteNumber":51,"Velocity":46,"Duration":127648,"SoundDuration":127648,"Delta":141417127},{"NoteNumber":60,"Velocity":44,"Duration":127648,"SoundDuration":127648,"Delta":141544776},{"NoteNumber":68,"Velocity":57,"Duration":124605,"SoundDuration":124605,"Delta":141672424},{"NoteNumber":80,"Velocity":68,"Duration":124605,"SoundDuration":124605,"Delta":141672424},{"NoteNumber":47,"Velocity":47,"Duration":124605,"SoundDuration":124605,"Delta":141672424},{"NoteNumber":79,"Velocity":62,"Duration":62302,"SoundDuration":62302,"Delta":141797030},{"NoteNumber":74,"Velocity":52,"Duration":62302,"SoundDuration":62302,"Delta":141797030},{"NoteNumber":52,"Velocity":45,"Duration":124605,"SoundDuration":124605,"Delta":141797030},{"NoteNumber":53,"Velocity":42,"Duration":125796,"SoundDuration":125796,"Delta":141921635},{"NoteNumber":65,"Velocity":51,"Duration":125796,"SoundDuration":125796,"Delta":142047432},{"NoteNumber":77,"Velocity":61,"Duration":125796,"SoundDuration":125796,"Delta":142047432},{"NoteNumber":62,"Velocity":44,"Duration":125796,"SoundDuration":125796,"Delta":142047432},{"NoteNumber":72,"Velocity":53,"Duration":122849,"SoundDuration":122849,"Delta":142173229},{"NoteNumber":75,"Velocity":63,"Duration":122849,"SoundDuration":122849,"Delta":142173229},{"NoteNumber":48,"Velocity":49,"Duration":122849,"SoundDuration":122849,"Delta":142173229},{"NoteNumber":63,"Velocity":44,"Duration":61425,"SoundDuration":61425,"Delta":142296079},{"NoteNumber":67,"Velocity":52,"Duration":61425,"SoundDuration":61425,"Delta":142296079},{"NoteNumber":54,"Velocity":39,"Duration":122849,"SoundDuration":122849,"Delta":142296079},{"NoteNumber":55,"Velocity":40,"Duration":127648,"SoundDuration":127648,"Delta":142418929},{"NoteNumber":63,"Velocity":39,"Duration":127648,"SoundDuration":127648,"Delta":142546578},{"NoteNumber":72,"Velocity":57,"Duration":123966,"SoundDuration":123966,"Delta":142674226},{"NoteNumber":75,"Velocity":67,"Duration":123966,"SoundDuration":123966,"Delta":142674226},{"NoteNumber":46,"Velocity":52,"Duration":123966,"SoundDuration":123966,"Delta":142674226},{"NoteNumber":66,"Velocity":59,"Duration":61983,"SoundDuration":61983,"Delta":142798193},{"NoteNumber":63,"Velocity":49,"Duration":61983,"SoundDuration":61983,"Delta":142798193},{"NoteNumber":53,"Velocity":45,"Duration":123966,"SoundDuration":123966,"Delta":142798193},{"NoteNumber":54,"Velocity":41,"Duration":127118,"SoundDuration":127118,"Delta":142922160},{"NoteNumber":63,"Velocity":42,"Duration":127118,"SoundDuration":127118,"Delta":143049279},{"NoteNumber":72,"Velocity":53,"Duration":124481,"SoundDuration":124481,"Delta":143176398},{"NoteNumber":75,"Velocity":62,"Duration":124481,"SoundDuration":124481,"Delta":143176398},{"NoteNumber":45,"Velocity":52,"Duration":124481,"SoundDuration":124481,"Delta":143176398},{"NoteNumber":63,"Velocity":46,"Duration":62240,"SoundDuration":62240,"Delta":143300879},{"NoteNumber":65,"Velocity":56,"Duration":62240,"SoundDuration":62240,"Delta":143300879},{"NoteNumber":52,"Velocity":41,"Duration":124481,"SoundDuration":124481,"Delta":143300879},{"NoteNumber":53,"Velocity":42,"Duration":142857,"SoundDuration":142857,"Delta":143425360},{"NoteNumber":63,"Velocity":41,"Duration":142857,"SoundDuration":142857,"Delta":143568218},{"NoteNumber":73,"Velocity":68,"Duration":125522,"SoundDuration":125522,"Delta":143711075},{"NoteNumber":46,"Velocity":51,"Duration":125522,"SoundDuration":125522,"Delta":143711075},{"NoteNumber":61,"Velocity":40,"Duration":125523,"SoundDuration":125523,"Delta":143836598},{"NoteNumber":65,"Velocity":40,"Duration":125523,"SoundDuration":125523,"Delta":143836598},{"NoteNumber":70,"Velocity":59,"Duration":125523,"SoundDuration":125523,"Delta":143836598},{"NoteNumber":53,"Velocity":44,"Duration":125523,"SoundDuration":125523,"Delta":143836598},{"NoteNumber":58,"Velocity":47,"Duration":129310,"SoundDuration":129310,"Delta":143962121},{"NoteNumber":72,"Velocity":67,"Duration":129310,"SoundDuration":129310,"Delta":144091431},{"NoteNumber":41,"Velocity":48,"Duration":129310,"SoundDuration":129310,"Delta":144091431},{"NoteNumber":73,"Velocity":68,"Duration":126050,"SoundDuration":126050,"Delta":144220741},{"NoteNumber":46,"Velocity":51,"Duration":126050,"SoundDuration":126050,"Delta":144220741},{"NoteNumber":61,"Velocity":40,"Duration":126050,"SoundDuration":126050,"Delta":144346792},{"NoteNumber":65,"Velocity":40,"Duration":126050,"SoundDuration":126050,"Delta":144346792},{"NoteNumber":70,"Velocity":60,"Duration":126050,"SoundDuration":126050,"Delta":144346792},{"NoteNumber":53,"Velocity":43,"Duration":126050,"SoundDuration":126050,"Delta":144346792},{"NoteNumber":58,"Velocity":48,"Duration":128755,"SoundDuration":128755,"Delta":144472842},{"NoteNumber":41,"Velocity":48,"Duration":128755,"SoundDuration":128755,"Delta":144601598},{"NoteNumber":73,"Velocity":68,"Duration":126050,"SoundDuration":126050,"Delta":144730353},{"NoteNumber":46,"Velocity":51,"Duration":126050,"SoundDuration":126050,"Delta":144730353},{"NoteNumber":61,"Velocity":40,"Duration":126050,"SoundDuration":126050,"Delta":144856403},{"NoteNumber":65,"Velocity":40,"Duration":126050,"SoundDuration":126050,"Delta":144856403},{"NoteNumber":70,"Velocity":60,"Duration":126050,"SoundDuration":126050,"Delta":144856403},{"NoteNumber":53,"Velocity":44,"Duration":126050,"SoundDuration":126050,"Delta":144856403},{"NoteNumber":58,"Velocity":48,"Duration":129310,"SoundDuration":129310,"Delta":144982454},{"NoteNumber":72,"Velocity":68,"Duration":129310,"SoundDuration":129310,"Delta":145111764},{"NoteNumber":41,"Velocity":48,"Duration":129310,"SoundDuration":129310,"Delta":145111764},{"NoteNumber":73,"Velocity":68,"Duration":125522,"SoundDuration":125522,"Delta":145241074},{"NoteNumber":46,"Velocity":51,"Duration":125522,"SoundDuration":125522,"Delta":145241074},{"NoteNumber":61,"Velocity":40,"Duration":125523,"SoundDuration":125523,"Delta":145366597},{"NoteNumber":65,"Velocity":40,"Duration":125523,"SoundDuration":125523,"Delta":145366597},{"NoteNumber":70,"Velocity":60,"Duration":125523,"SoundDuration":125523,"Delta":145366597},{"NoteNumber":53,"Velocity":43,"Duration":125523,"SoundDuration":125523,"Delta":145366597},{"NoteNumber":58,"Velocity":48,"Duration":128205,"SoundDuration":128205,"Delta":145492120},{"NoteNumber":41,"Velocity":48,"Duration":128205,"SoundDuration":128205,"Delta":145620326},{"NoteNumber":73,"Velocity":68,"Duration":123456,"SoundDuration":123456,"Delta":145748531},{"NoteNumber":46,"Velocity":51,"Duration":123456,"SoundDuration":123456,"Delta":145748531},{"NoteNumber":61,"Velocity":46,"Duration":123456,"SoundDuration":123456,"Delta":145871988},{"NoteNumber":65,"Velocity":46,"Duration":123456,"SoundDuration":123456,"Delta":145871988},{"NoteNumber":70,"Velocity":67,"Duration":123456,"SoundDuration":123456,"Delta":145871988},{"NoteNumber":53,"Velocity":49,"Duration":123456,"SoundDuration":123456,"Delta":145871988},{"NoteNumber":58,"Velocity":48,"Duration":125522,"SoundDuration":125522,"Delta":145995444},{"NoteNumber":72,"Velocity":73,"Duration":125523,"SoundDuration":125523,"Delta":146120967},{"NoteNumber":41,"Velocity":49,"Duration":125523,"SoundDuration":125523,"Delta":146120967},{"NoteNumber":73,"Velocity":84,"Duration":122306,"SoundDuration":122306,"Delta":146246490},{"NoteNumber":46,"Velocity":54,"Duration":122306,"SoundDuration":122306,"Delta":146246490},{"NoteNumber":70,"Velocity":52,"Duration":122279,"SoundDuration":122279,"Delta":146368797},{"NoteNumber":77,"Velocity":52,"Duration":122279,"SoundDuration":122279,"Delta":146368797},{"NoteNumber":82,"Velocity":76,"Duration":122279,"SoundDuration":122279,"Delta":146368797},{"NoteNumber":53,"Velocity":51,"Duration":122279,"SoundDuration":122279,"Delta":146368797},{"NoteNumber":61,"Velocity":50,"Duration":128231,"SoundDuration":128231,"Delta":146491076},{"NoteNumber":49,"Velocity":50,"Duration":128281,"SoundDuration":128281,"Delta":146619308},{"NoteNumber":81,"Velocity":76,"Duration":122859,"SoundDuration":122859,"Delta":146747590},{"NoteNumber":48,"Velocity":51,"Duration":122859,"SoundDuration":122859,"Delta":146747590},{"NoteNumber":69,"Velocity":46,"Duration":122849,"SoundDuration":122849,"Delta":146870449},{"NoteNumber":72,"Velocity":67,"Duration":122849,"SoundDuration":122849,"Delta":146870449},{"NoteNumber":54,"Velocity":44,"Duration":122849,"SoundDuration":122849,"Delta":146870449},{"NoteNumber":63,"Velocity":47,"Duration":125000,"SoundDuration":125000,"Delta":146993299},{"NoteNumber":73,"Velocity":67,"Duration":125000,"SoundDuration":125000,"Delta":147118299},{"NoteNumber":48,"Velocity":48,"Duration":125000,"SoundDuration":125000,"Delta":147118299},{"NoteNumber":75,"Velocity":68,"Duration":122867,"SoundDuration":122867,"Delta":147243299},{"NoteNumber":54,"Velocity":51,"Duration":122867,"SoundDuration":122867,"Delta":147243299},{"NoteNumber":66,"Velocity":40,"Duration":122849,"SoundDuration":122849,"Delta":147366167},{"NoteNumber":69,"Velocity":40,"Duration":122849,"SoundDuration":122849,"Delta":147366167},{"NoteNumber":72,"Velocity":60,"Duration":122849,"SoundDuration":122849,"Delta":147366167},{"NoteNumber":57,"Velocity":43,"Duration":122849,"SoundDuration":122849,"Delta":147366167},{"NoteNumber":63,"Velocity":48,"Duration":124590,"SoundDuration":124590,"Delta":147489017},{"NoteNumber":48,"Velocity":48,"Duration":124605,"SoundDuration":124605,"Delta":147613608},{"NoteNumber":78,"Velocity":71,"Duration":123436,"SoundDuration":123436,"Delta":147738213},{"NoteNumber":51,"Velocity":51,"Duration":123436,"SoundDuration":123436,"Delta":147738213},{"NoteNumber":66,"Velocity":40,"Duration":123426,"SoundDuration":123426,"Delta":147861650},{"NoteNumber":69,"Velocity":40,"Duration":123426,"SoundDuration":123426,"Delta":147861650},{"NoteNumber":72,"Velocity":59,"Duration":123426,"SoundDuration":123426,"Delta":147861650},{"NoteNumber":57,"Velocity":44,"Duration":123426,"SoundDuration":123426,"Delta":147861650},{"NoteNumber":63,"Velocity":47,"Duration":124595,"SoundDuration":124595,"Delta":147985076},{"NoteNumber":73,"Velocity":67,"Duration":124605,"SoundDuration":124605,"Delta":148109671},{"NoteNumber":48,"Velocity":48,"Duration":124605,"SoundDuration":124605,"Delta":148109671},{"NoteNumber":75,"Velocity":68,"Duration":122864,"SoundDuration":122864,"Delta":148234277},{"NoteNumber":54,"Velocity":51,"Duration":122864,"SoundDuration":122864,"Delta":148234277},{"NoteNumber":66,"Velocity":40,"Duration":122849,"SoundDuration":122849,"Delta":148357142},{"NoteNumber":69,"Velocity":40,"Duration":122849,"SoundDuration":122849,"Delta":148357142},{"NoteNumber":72,"Velocity":60,"Duration":122849,"SoundDuration":122849,"Delta":148357142},{"NoteNumber":57,"Velocity":43,"Duration":122849,"SoundDuration":122849,"Delta":148357142},{"NoteNumber":63,"Velocity":48,"Duration":124590,"SoundDuration":124590,"Delta":148479992},{"NoteNumber":48,"Velocity":48,"Duration":124605,"SoundDuration":124605,"Delta":148604582},{"NoteNumber":78,"Velocity":71,"Duration":123436,"SoundDuration":123436,"Delta":148729188},{"NoteNumber":51,"Velocity":51,"Duration":123436,"SoundDuration":123436,"Delta":148729188},{"NoteNumber":66,"Velocity":40,"Duration":123426,"SoundDuration":123426,"Delta":148852624},{"NoteNumber":69,"Velocity":40,"Duration":123426,"SoundDuration":123426,"Delta":148852624},{"NoteNumber":72,"Velocity":59,"Duration":123426,"SoundDuration":123426,"Delta":148852624},{"NoteNumber":57,"Velocity":44,"Duration":123426,"SoundDuration":123426,"Delta":148852624},{"NoteNumber":63,"Velocity":47,"Duration":124595,"SoundDuration":124595,"Delta":148976050},{"NoteNumber":73,"Velocity":67,"Duration":124605,"SoundDuration":124605,"Delta":149100646},{"NoteNumber":48,"Velocity":48,"Duration":124605,"SoundDuration":124605,"Delta":149100646},{"NoteNumber":75,"Velocity":68,"Duration":122864,"SoundDuration":122864,"Delta":149225251},{"NoteNumber":54,"Velocity":51,"Duration":122864,"SoundDuration":122864,"Delta":149225251},{"NoteNumber":66,"Velocity":40,"Duration":122849,"SoundDuration":122849,"Delta":149348116},{"NoteNumber":69,"Velocity":40,"Duration":122849,"SoundDuration":122849,"Delta":149348116},{"NoteNumber":72,"Velocity":60,"Duration":122849,"SoundDuration":122849,"Delta":149348116},{"NoteNumber":57,"Velocity":43,"Duration":122849,"SoundDuration":122849,"Delta":149348116},{"NoteNumber":63,"Velocity":48,"Duration":124590,"SoundDuration":124590,"Delta":149470966},{"NoteNumber":48,"Velocity":48,"Duration":124605,"SoundDuration":124605,"Delta":149595557},{"NoteNumber":78,"Velocity":74,"Duration":123436,"SoundDuration":123436,"Delta":149720162},{"NoteNumber":51,"Velocity":52,"Duration":123436,"SoundDuration":123436,"Delta":149720162},{"NoteNumber":66,"Velocity":42,"Duration":123426,"SoundDuration":123426,"Delta":149843599},{"NoteNumber":69,"Velocity":42,"Duration":123426,"SoundDuration":123426,"Delta":149843599},{"NoteNumber":72,"Velocity":63,"Duration":123426,"SoundDuration":123426,"Delta":149843599},{"NoteNumber":57,"Velocity":46,"Duration":123426,"SoundDuration":123426,"Delta":149843599},{"NoteNumber":63,"Velocity":50,"Duration":124595,"SoundDuration":124595,"Delta":149967025},{"NoteNumber":73,"Velocity":82,"Duration":124605,"SoundDuration":124605,"Delta":150091620},{"NoteNumber":48,"Velocity":51,"Duration":124605,"SoundDuration":124605,"Delta":150091620},{"NoteNumber":75,"Velocity":88,"Duration":122864,"SoundDuration":122864,"Delta":150216226},{"NoteNumber":54,"Velocity":57,"Duration":122864,"SoundDuration":122864,"Delta":150216226},{"NoteNumber":72,"Velocity":54,"Duration":122849,"SoundDuration":122849,"Delta":150339091},{"NoteNumber":78,"Velocity":54,"Duration":122849,"SoundDuration":122849,"Delta":150339091},{"NoteNumber":84,"Velocity":78,"Duration":122849,"SoundDuration":122849,"Delta":150339091},{"NoteNumber":57,"Velocity":54,"Duration":122849,"SoundDuration":122849,"Delta":150339091},{"NoteNumber":63,"Velocity":54,"Duration":127608,"SoundDuration":127608,"Delta":150461941},{"NoteNumber":48,"Velocity":55,"Duration":127648,"SoundDuration":127648,"Delta":150589549},{"NoteNumber":84,"Velocity":73,"Duration":123461,"SoundDuration":123461,"Delta":150717198},{"NoteNumber":49,"Velocity":51,"Duration":123461,"SoundDuration":123461,"Delta":150717198},{"NoteNumber":72,"Velocity":50,"Duration":123426,"SoundDuration":123426,"Delta":150840660},{"NoteNumber":73,"Velocity":72,"Duration":123426,"SoundDuration":123426,"Delta":150840660},{"NoteNumber":57,"Velocity":50,"Duration":123426,"SoundDuration":123426,"Delta":150840660},{"NoteNumber":65,"Velocity":47,"Duration":124595,"SoundDuration":124595,"Delta":150964086},{"NoteNumber":75,"Velocity":64,"Duration":124605,"SoundDuration":124605,"Delta":151088681},{"NoteNumber":53,"Velocity":48,"Duration":124605,"SoundDuration":124605,"Delta":151088681},{"NoteNumber":77,"Velocity":69,"Duration":122864,"SoundDuration":122864,"Delta":151213287},{"NoteNumber":58,"Velocity":51,"Duration":122864,"SoundDuration":122864,"Delta":151213287},{"NoteNumber":70,"Velocity":44,"Duration":122849,"SoundDuration":122849,"Delta":151336152},{"NoteNumber":82,"Velocity":69,"Duration":122849,"SoundDuration":122849,"Delta":151336152},{"NoteNumber":73,"Velocity":44,"Duration":122849,"SoundDuration":122849,"Delta":151336152},{"NoteNumber":61,"Velocity":49,"Duration":122849,"SoundDuration":122849,"Delta":151336152},{"NoteNumber":65,"Velocity":48,"Duration":127608,"SoundDuration":127608,"Delta":151459002},{"NoteNumber":49,"Velocity":48,"Duration":127648,"SoundDuration":127648,"Delta":151586610},{"NoteNumber":85,"Velocity":85,"Duration":124605,"SoundDuration":124605,"Delta":151714259},{"NoteNumber":52,"Velocity":61,"Duration":124605,"SoundDuration":124605,"Delta":151714259},{"NoteNumber":73,"Velocity":71,"Duration":124605,"SoundDuration":124605,"Delta":151838865},{"NoteNumber":84,"Velocity":84,"Duration":124605,"SoundDuration":124605,"Delta":151838865},{"NoteNumber":79,"Velocity":71,"Duration":124605,"SoundDuration":124605,"Delta":151838865},{"NoteNumber":61,"Velocity":59,"Duration":124605,"SoundDuration":124605,"Delta":151838865},{"NoteNumber":67,"Velocity":55,"Duration":126411,"SoundDuration":126411,"Delta":151963470},{"NoteNumber":82,"Velocity":80,"Duration":126411,"SoundDuration":126411,"Delta":152089882},{"NoteNumber":52,"Velocity":57,"Duration":126411,"SoundDuration":126411,"Delta":152089882},{"NoteNumber":81,"Velocity":86,"Duration":122849,"SoundDuration":122849,"Delta":152216293},{"NoteNumber":53,"Velocity":61,"Duration":122849,"SoundDuration":122849,"Delta":152216293},{"NoteNumber":77,"Velocity":67,"Duration":122849,"SoundDuration":122849,"Delta":152339143},{"NoteNumber":72,"Velocity":67,"Duration":122849,"SoundDuration":122849,"Delta":152339143},{"NoteNumber":84,"Velocity":80,"Duration":122849,"SoundDuration":122849,"Delta":152339143},{"NoteNumber":60,"Velocity":58,"Duration":122849,"SoundDuration":122849,"Delta":152339143},{"NoteNumber":69,"Velocity":57,"Duration":127648,"SoundDuration":127648,"Delta":152461993},{"NoteNumber":53,"Velocity":57,"Duration":127648,"SoundDuration":127648,"Delta":152589642},{"NoteNumber":78,"Velocity":67,"Duration":124605,"SoundDuration":124605,"Delta":152717291},{"NoteNumber":45,"Velocity":48,"Duration":124605,"SoundDuration":124605,"Delta":152717291},{"NoteNumber":66,"Velocity":55,"Duration":124605,"SoundDuration":124605,"Delta":152841896},{"NoteNumber":77,"Velocity":66,"Duration":124605,"SoundDuration":124605,"Delta":152841896},{"NoteNumber":72,"Velocity":55,"Duration":124605,"SoundDuration":124605,"Delta":152841896},{"NoteNumber":54,"Velocity":44,"Duration":124605,"SoundDuration":124605,"Delta":152841896},{"NoteNumber":63,"Velocity":44,"Duration":127648,"SoundDuration":127648,"Delta":152966502},{"NoteNumber":75,"Velocity":64,"Duration":127648,"SoundDuration":127648,"Delta":153094150},{"NoteNumber":45,"Velocity":44,"Duration":127648,"SoundDuration":127648,"Delta":153094150},{"NoteNumber":74,"Velocity":69,"Duration":122849,"SoundDuration":122849,"Delta":153221799},{"NoteNumber":46,"Velocity":48,"Duration":122849,"SoundDuration":122849,"Delta":153221799},{"NoteNumber":70,"Velocity":53,"Duration":122849,"SoundDuration":122849,"Delta":153344649},{"NoteNumber":73,"Velocity":53,"Duration":122849,"SoundDuration":122849,"Delta":153344649},{"NoteNumber":65,"Velocity":53,"Duration":122849,"SoundDuration":122849,"Delta":153344649},{"NoteNumber":77,"Velocity":64,"Duration":122849,"SoundDuration":122849,"Delta":153344649},{"NoteNumber":53,"Velocity":44,"Duration":122849,"SoundDuration":122849,"Delta":153344649},{"NoteNumber":61,"Velocity":44,"Duration":127648,"SoundDuration":127648,"Delta":153467499},{"NoteNumber":46,"Velocity":44,"Duration":127648,"SoundDuration":127648,"Delta":153595148},{"NoteNumber":85,"Velocity":85,"Duration":124605,"SoundDuration":124605,"Delta":153722797},{"NoteNumber":52,"Velocity":61,"Duration":124605,"SoundDuration":124605,"Delta":153722797},{"NoteNumber":73,"Velocity":71,"Duration":124605,"SoundDuration":124605,"Delta":153847402},{"NoteNumber":84,"Velocity":84,"Duration":124605,"SoundDuration":124605,"Delta":153847402},{"NoteNumber":79,"Velocity":71,"Duration":124605,"SoundDuration":124605,"Delta":153847402},{"NoteNumber":61,"Velocity":59,"Duration":124605,"SoundDuration":124605,"Delta":153847402},{"NoteNumber":67,"Velocity":55,"Duration":127648,"SoundDuration":127648,"Delta":153972008},{"NoteNumber":82,"Velocity":80,"Duration":127648,"SoundDuration":127648,"Delta":154099656},{"NoteNumber":52,"Velocity":57,"Duration":127648,"SoundDuration":127648,"Delta":154099656},{"NoteNumber":81,"Velocity":86,"Duration":122849,"SoundDuration":122849,"Delta":154227305},{"NoteNumber":53,"Velocity":61,"Duration":122849,"SoundDuration":122849,"Delta":154227305},{"NoteNumber":77,"Velocity":67,"Duration":122849,"SoundDuration":122849,"Delta":154350155},{"NoteNumber":72,"Velocity":67,"Duration":122849,"SoundDuration":122849,"Delta":154350155},{"NoteNumber":84,"Velocity":80,"Duration":122849,"SoundDuration":122849,"Delta":154350155},{"NoteNumber":60,"Velocity":58,"Duration":122849,"SoundDuration":122849,"Delta":154350155},{"NoteNumber":69,"Velocity":57,"Duration":127648,"SoundDuration":127648,"Delta":154473005},{"NoteNumber":53,"Velocity":57,"Duration":127648,"SoundDuration":127648,"Delta":154600654},{"NoteNumber":83,"Velocity":84,"Duration":124605,"SoundDuration":124605,"Delta":154728303},{"NoteNumber":50,"Velocity":61,"Duration":124605,"SoundDuration":124605,"Delta":154728303},{"NoteNumber":71,"Velocity":65,"Duration":124605,"SoundDuration":124605,"Delta":154852908},{"NoteNumber":82,"Velocity":77,"Duration":124605,"SoundDuration":124605,"Delta":154852908},{"NoteNumber":77,"Velocity":65,"Duration":124605,"SoundDuration":124605,"Delta":154852908},{"NoteNumber":59,"Velocity":58,"Duration":124605,"SoundDuration":124605,"Delta":154852908},{"NoteNumber":65,"Velocity":55,"Duration":127648,"SoundDuration":127648,"Delta":154977514},{"NoteNumber":80,"Velocity":80,"Duration":127648,"SoundDuration":127648,"Delta":155105162},{"NoteNumber":50,"Velocity":55,"Duration":127648,"SoundDuration":127648,"Delta":155105162},{"NoteNumber":79,"Velocity":86,"Duration":122849,"SoundDuration":122849,"Delta":155232811},{"NoteNumber":51,"Velocity":61,"Duration":122849,"SoundDuration":122849,"Delta":155232811},{"NoteNumber":78,"Velocity":63,"Duration":122849,"SoundDuration":122849,"Delta":155355661},{"NoteNumber":70,"Velocity":63,"Duration":122849,"SoundDuration":122849,"Delta":155355661},{"NoteNumber":82,"Velocity":75,"Duration":122849,"SoundDuration":122849,"Delta":155355661},{"NoteNumber":58,"Velocity":57,"Duration":122849,"SoundDuration":122849,"Delta":155355661},{"NoteNumber":66,"Velocity":55,"Duration":153941,"SoundDuration":153941,"Delta":155478511},{"NoteNumber":51,"Velocity":55,"Duration":153941,"SoundDuration":153941,"Delta":155632452},{"NoteNumber":78,"Velocity":83,"Duration":805314,"SoundDuration":805314,"Delta":155786393},{"NoteNumber":69,"Velocity":83,"Duration":277778,"SoundDuration":277778,"Delta":155786393},{"NoteNumber":81,"Velocity":99,"Duration":277778,"SoundDuration":277778,"Delta":155786393},{"NoteNumber":39,"Velocity":69,"Duration":138889,"SoundDuration":138889,"Delta":155786393},{"NoteNumber":46,"Velocity":59,"Duration":138889,"SoundDuration":138889,"Delta":155925282},{"NoteNumber":70,"Velocity":66,"Duration":260869,"SoundDuration":260869,"Delta":156064171},{"NoteNumber":82,"Velocity":79,"Duration":260869,"SoundDuration":260869,"Delta":156064171},{"NoteNumber":58,"Velocity":71,"Duration":130434,"SoundDuration":130434,"Delta":156064171},{"NoteNumber":46,"Velocity":59,"Duration":130434,"SoundDuration":130434,"Delta":156194606},{"NoteNumber":69,"Velocity":75,"Duration":266666,"SoundDuration":266666,"Delta":156325041},{"NoteNumber":81,"Velocity":89,"Duration":266666,"SoundDuration":266666,"Delta":156325041},{"NoteNumber":41,"Velocity":69,"Duration":133333,"SoundDuration":133333,"Delta":156325041},{"NoteNumber":46,"Velocity":59,"Duration":133333,"SoundDuration":133333,"Delta":156458374},{"NoteNumber":70,"Velocity":66,"Duration":259740,"SoundDuration":259740,"Delta":156591707},{"NoteNumber":77,"Velocity":66,"Duration":259740,"SoundDuration":259740,"Delta":156591707},{"NoteNumber":82,"Velocity":79,"Duration":259740,"SoundDuration":259740,"Delta":156591707},{"NoteNumber":58,"Velocity":69,"Duration":129870,"SoundDuration":129870,"Delta":156591707},{"NoteNumber":46,"Velocity":59,"Duration":129870,"SoundDuration":129870,"Delta":156721577},{"NoteNumber":69,"Velocity":78,"Duration":269857,"SoundDuration":269857,"Delta":156851448},{"NoteNumber":77,"Velocity":78,"Duration":269857,"SoundDuration":269857,"Delta":156851448},{"NoteNumber":81,"Velocity":92,"Duration":269857,"SoundDuration":269857,"Delta":156851448},{"NoteNumber":42,"Velocity":69,"Duration":134928,"SoundDuration":134928,"Delta":156851448},{"NoteNumber":46,"Velocity":59,"Duration":134928,"SoundDuration":134928,"Delta":156986376},{"NoteNumber":75,"Velocity":67,"Duration":555164,"SoundDuration":555164,"Delta":157121305},{"NoteNumber":70,"Velocity":67,"Duration":271100,"SoundDuration":271100,"Delta":157121305},{"NoteNumber":82,"Velocity":80,"Duration":271100,"SoundDuration":271100,"Delta":157121305},{"NoteNumber":58,"Velocity":68,"Duration":135550,"SoundDuration":135550,"Delta":157121305},{"NoteNumber":46,"Velocity":59,"Duration":135550,"SoundDuration":135550,"Delta":157256855},{"NoteNumber":69,"Velocity":74,"Duration":284064,"SoundDuration":284064,"Delta":157392405},{"NoteNumber":81,"Velocity":89,"Duration":284064,"SoundDuration":284064,"Delta":157392405},{"NoteNumber":43,"Velocity":68,"Duration":142032,"SoundDuration":142032,"Delta":157392405},{"NoteNumber":51,"Velocity":59,"Duration":142032,"SoundDuration":142032,"Delta":157534437},{"NoteNumber":70,"Velocity":67,"Duration":284064,"SoundDuration":284064,"Delta":157676469},{"NoteNumber":73,"Velocity":67,"Duration":284064,"SoundDuration":284064,"Delta":157676469},{"NoteNumber":82,"Velocity":80,"Duration":284064,"SoundDuration":284064,"Delta":157676469},{"NoteNumber":63,"Velocity":68,"Duration":142032,"SoundDuration":142032,"Delta":157676469},{"NoteNumber":51,"Velocity":59,"Duration":142032,"SoundDuration":142032,"Delta":157818501},{"NoteNumber":61,"Velocity":79,"Duration":141349,"SoundDuration":141349,"Delta":157960533},{"NoteNumber":66,"Velocity":84,"Duration":141349,"SoundDuration":141349,"Delta":157960533},{"NoteNumber":73,"Velocity":100,"Duration":141349,"SoundDuration":141349,"Delta":157960533},{"NoteNumber":44,"Velocity":51,"Duration":141349,"SoundDuration":141349,"Delta":157960533},{"NoteNumber":51,"Velocity":57,"Duration":141349,"SoundDuration":141349,"Delta":157960533},{"NoteNumber":58,"Velocity":68,"Duration":141349,"SoundDuration":141349,"Delta":157960533},{"NoteNumber":60,"Velocity":66,"Duration":141349,"SoundDuration":141349,"Delta":158243232},{"NoteNumber":66,"Velocity":73,"Duration":141349,"SoundDuration":141349,"Delta":158243232},{"NoteNumber":72,"Velocity":86,"Duration":141349,"SoundDuration":141349,"Delta":158243232},{"NoteNumber":44,"Velocity":39,"Duration":141349,"SoundDuration":141349,"Delta":158243232},{"NoteNumber":51,"Velocity":46,"Duration":141349,"SoundDuration":141349,"Delta":158243232},{"NoteNumber":56,"Velocity":56,"Duration":141349,"SoundDuration":141349,"Delta":158243232},{"NoteNumber":56,"Velocity":56,"Duration":288184,"SoundDuration":288184,"Delta":158808630},{"NoteNumber":61,"Velocity":56,"Duration":288184,"SoundDuration":288184,"Delta":158808630},{"NoteNumber":66,"Velocity":58,"Duration":288184,"SoundDuration":288184,"Delta":158808630},{"NoteNumber":70,"Velocity":66,"Duration":288184,"SoundDuration":288184,"Delta":158808630},{"NoteNumber":34,"Velocity":38,"Duration":288184,"SoundDuration":288184,"Delta":158808630},{"NoteNumber":46,"Velocity":46,"Duration":288184,"SoundDuration":288184,"Delta":158808630},{"NoteNumber":56,"Velocity":58,"Duration":576368,"SoundDuration":576368,"Delta":159096815},{"NoteNumber":62,"Velocity":58,"Duration":576368,"SoundDuration":576368,"Delta":159096815},{"NoteNumber":66,"Velocity":56,"Duration":576368,"SoundDuration":576368,"Delta":159096815},{"NoteNumber":70,"Velocity":68,"Duration":576368,"SoundDuration":576368,"Delta":159096815},{"NoteNumber":35,"Velocity":41,"Duration":576368,"SoundDuration":576368,"Delta":159096815},{"NoteNumber":47,"Velocity":49,"Duration":576368,"SoundDuration":576368,"Delta":159096815},{"NoteNumber":56,"Velocity":53,"Duration":432276,"SoundDuration":432276,"Delta":159673184},{"NoteNumber":63,"Velocity":53,"Duration":432276,"SoundDuration":432276,"Delta":159673184},{"NoteNumber":66,"Velocity":62,"Duration":432276,"SoundDuration":432276,"Delta":159673184},{"NoteNumber":68,"Velocity":62,"Duration":432276,"SoundDuration":432276,"Delta":159673184},{"NoteNumber":36,"Velocity":39,"Duration":432276,"SoundDuration":432276,"Delta":159673184},{"NoteNumber":48,"Velocity":46,"Duration":432276,"SoundDuration":432276,"Delta":159673184},{"NoteNumber":53,"Velocity":49,"Duration":144092,"SoundDuration":144092,"Delta":160105460},{"NoteNumber":53,"Velocity":41,"Duration":1271994,"SoundDuration":1271994,"Delta":160249553},{"NoteNumber":61,"Velocity":41,"Duration":1271994,"SoundDuration":1271994,"Delta":160249553},{"NoteNumber":68,"Velocity":49,"Duration":1271994,"SoundDuration":1271994,"Delta":160249553},{"NoteNumber":37,"Velocity":31,"Duration":1271994,"SoundDuration":1271994,"Delta":160249553},{"NoteNumber":49,"Velocity":37,"Duration":1895914,"SoundDuration":1895914,"Delta":160249553},{"NoteNumber":56,"Velocity":41,"Duration":623920,"SoundDuration":623920,"Delta":161521547},{"NoteNumber":61,"Velocity":41,"Duration":623920,"SoundDuration":623920,"Delta":161521547},{"NoteNumber":65,"Velocity":49,"Duration":623920,"SoundDuration":623920,"Delta":161521547},{"NoteNumber":58,"Velocity":37,"Duration":623894,"SoundDuration":623894,"Delta":162145467},{"NoteNumber":63,"Velocity":37,"Duration":623894,"SoundDuration":623894,"Delta":162145467},{"NoteNumber":66,"Velocity":44,"Duration":623894,"SoundDuration":623894,"Delta":162145467},{"NoteNumber":42,"Velocity":39,"Duration":623894,"SoundDuration":623894,"Delta":162145467},{"NoteNumber":54,"Velocity":34,"Duration":2586120,"SoundDuration":2586120,"Delta":162769362},{"NoteNumber":60,"Velocity":36,"Duration":2586120,"SoundDuration":2586120,"Delta":162769362},{"NoteNumber":65,"Velocity":47,"Duration":1278228,"SoundDuration":1278228,"Delta":162769362},{"NoteNumber":44,"Velocity":39,"Duration":1597784,"SoundDuration":1597784,"Delta":162769362},{"NoteNumber":63,"Velocity":41,"Duration":1307892,"SoundDuration":1307892,"Delta":164047590},{"NoteNumber":45,"Velocity":37,"Duration":323171,"SoundDuration":323171,"Delta":164367147},{"NoteNumber":46,"Velocity":39,"Duration":323171,"SoundDuration":323171,"Delta":164690318},{"NoteNumber":44,"Velocity":37,"Duration":341993,"SoundDuration":341993,"Delta":165013490},{"NoteNumber":53,"Velocity":41,"Duration":814092,"SoundDuration":814092,"Delta":165196484},{"NoteNumber":61,"Velocity":41,"Duration":1389685,"SoundDuration":1389685,"Delta":165275983},{"NoteNumber":68,"Velocity":49,"Duration":655092,"SoundDuration":655092,"Delta":165355483},{"NoteNumber":37,"Velocity":33,"Duration":1310185,"SoundDuration":1310185,"Delta":165355483},{"NoteNumber":49,"Velocity":39,"Duration":1944882,"SoundDuration":1944882,"Delta":165355483},{"NoteNumber":56,"Velocity":41,"Duration":655092,"SoundDuration":655092,"Delta":166010576},{"NoteNumber":65,"Velocity":49,"Duration":655092,"SoundDuration":655092,"Delta":166010576},{"NoteNumber":58,"Velocity":41,"Duration":312012,"SoundDuration":312012,"Delta":166665669},{"NoteNumber":61,"Velocity":41,"Duration":634696,"SoundDuration":634696,"Delta":166665669},{"NoteNumber":66,"Velocity":49,"Duration":312012,"SoundDuration":312012,"Delta":166665669},{"NoteNumber":56,"Velocity":39,"Duration":322684,"SoundDuration":322684,"Delta":166977681},{"NoteNumber":65,"Velocity":47,"Duration":322684,"SoundDuration":322684,"Delta":166977681},{"NoteNumber":63,"Velocity":41,"Duration":631504,"SoundDuration":631504,"Delta":167300366},{"NoteNumber":60,"Velocity":37,"Duration":311947,"SoundDuration":311947,"Delta":167300366},{"NoteNumber":68,"Velocity":44,"Duration":311947,"SoundDuration":311947,"Delta":167300366},{"NoteNumber":42,"Velocity":39,"Duration":631504,"SoundDuration":631504,"Delta":167300366},{"NoteNumber":58,"Velocity":35,"Duration":319557,"SoundDuration":319557,"Delta":167612313},{"NoteNumber":66,"Velocity":41,"Duration":319557,"SoundDuration":319557,"Delta":167612313},{"NoteNumber":54,"Velocity":31,"Duration":2544236,"SoundDuration":2544236,"Delta":167931870},{"NoteNumber":60,"Velocity":36,"Duration":2544236,"SoundDuration":2544236,"Delta":167931870},{"NoteNumber":65,"Velocity":45,"Duration":1278228,"SoundDuration":1278228,"Delta":167931870},{"NoteNumber":44,"Velocity":29,"Duration":1591675,"SoundDuration":1591675,"Delta":167931870},{"NoteNumber":63,"Velocity":41,"Duration":1266007,"SoundDuration":1266007,"Delta":169210098},{"NoteNumber":45,"Velocity":37,"Duration":313446,"SoundDuration":313446,"Delta":169523545},{"NoteNumber":48,"Velocity":35,"Duration":213038,"SoundDuration":213038,"Delta":169836992},{"NoteNumber":46,"Velocity":34,"Duration":213037,"SoundDuration":213037,"Delta":170050030},{"NoteNumber":44,"Velocity":34,"Duration":213038,"SoundDuration":213038,"Delta":170263068},{"NoteNumber":61,"Velocity":40,"Duration":1278227,"SoundDuration":1278227,"Delta":170476106},{"NoteNumber":53,"Velocity":41,"Duration":639114,"SoundDuration":639114,"Delta":170476106},{"NoteNumber":68,"Velocity":53,"Duration":639114,"SoundDuration":639114,"Delta":170476106},{"NoteNumber":37,"Velocity":41,"Duration":639114,"SoundDuration":639114,"Delta":170476106},{"NoteNumber":64,"Velocity":44,"Duration":639113,"SoundDuration":639113,"Delta":171115220},{"NoteNumber":70,"Velocity":51,"Duration":639113,"SoundDuration":639113,"Delta":171115220},{"NoteNumber":55,"Velocity":44,"Duration":639113,"SoundDuration":639113,"Delta":171115220},{"NoteNumber":63,"Velocity":44,"Duration":623926,"SoundDuration":623926,"Delta":171754334},{"NoteNumber":72,"Velocity":52,"Duration":623926,"SoundDuration":623926,"Delta":171754334},{"NoteNumber":44,"Velocity":37,"Duration":1247821,"SoundDuration":1247821,"Delta":171754334},{"NoteNumber":54,"Velocity":44,"Duration":623926,"SoundDuration":623926,"Delta":171754334},{"NoteNumber":73,"Velocity":58,"Duration":467921,"SoundDuration":467921,"Delta":172378261},{"NoteNumber":66,"Velocity":49,"Duration":623895,"SoundDuration":623895,"Delta":172378261},{"NoteNumber":58,"Velocity":44,"Duration":467921,"SoundDuration":467921,"Delta":172378261},{"NoteNumber":72,"Velocity":53,"Duration":155973,"SoundDuration":155973,"Delta":172846182},{"NoteNumber":75,"Velocity":60,"Duration":155973,"SoundDuration":155973,"Delta":172846182},{"NoteNumber":56,"Velocity":49,"Duration":155973,"SoundDuration":155973,"Delta":172846182},{"NoteNumber":65,"Velocity":43,"Duration":623894,"SoundDuration":623894,"Delta":173002156},{"NoteNumber":73,"Velocity":46,"Duration":623894,"SoundDuration":623894,"Delta":173002156},{"NoteNumber":77,"Velocity":61,"Duration":623894,"SoundDuration":623894,"Delta":173002156},{"NoteNumber":49,"Velocity":39,"Duration":623894,"SoundDuration":623894,"Delta":173002156},{"NoteNumber":56,"Velocity":45,"Duration":623894,"SoundDuration":623894,"Delta":173002156},{"NoteNumber":61,"Velocity":44,"Duration":643018,"SoundDuration":643018,"Delta":173626051},{"NoteNumber":64,"Velocity":44,"Duration":643018,"SoundDuration":643018,"Delta":173626051},{"NoteNumber":70,"Velocity":51,"Duration":643018,"SoundDuration":643018,"Delta":173626051},{"NoteNumber":55,"Velocity":44,"Duration":643018,"SoundDuration":643018,"Delta":173626051},{"NoteNumber":60,"Velocity":44,"Duration":545947,"SoundDuration":545947,"Delta":174269069},{"NoteNumber":63,"Velocity":44,"Duration":1270394,"SoundDuration":1270394,"Delta":174269069},{"NoteNumber":72,"Velocity":52,"Duration":545947,"SoundDuration":545947,"Delta":174269069},{"NoteNumber":44,"Velocity":37,"Duration":623934,"SoundDuration":623934,"Delta":174269069},{"NoteNumber":54,"Velocity":44,"Duration":1270394,"SoundDuration":1270394,"Delta":174269069},{"NoteNumber":58,"Velocity":56,"Duration":724446,"SoundDuration":724446,"Delta":174815017},{"NoteNumber":73,"Velocity":58,"Duration":482364,"SoundDuration":482364,"Delta":174893004},{"NoteNumber":42,"Velocity":37,"Duration":564412,"SoundDuration":564412,"Delta":174893004},{"NoteNumber":75,"Velocity":60,"Duration":164095,"SoundDuration":164095,"Delta":175375368},{"NoteNumber":41,"Velocity":41,"Duration":738430,"SoundDuration":738430,"Delta":175457416},{"NoteNumber":65,"Velocity":53,"Duration":656383,"SoundDuration":656383,"Delta":175539464},{"NoteNumber":72,"Velocity":53,"Duration":1312766,"SoundDuration":1312766,"Delta":175539464},{"NoteNumber":77,"Velocity":63,"Duration":656383,"SoundDuration":656383,"Delta":175539464},{"NoteNumber":57,"Velocity":49,"Duration":656383,"SoundDuration":656383,"Delta":175539464},{"NoteNumber":65,"Velocity":53,"Duration":1306015,"SoundDuration":1306015,"Delta":176195847},{"NoteNumber":75,"Velocity":60,"Duration":656383,"SoundDuration":656383,"Delta":176195847},{"NoteNumber":33,"Velocity":40,"Duration":656383,"SoundDuration":656383,"Delta":176195847},{"NoteNumber":45,"Velocity":48,"Duration":656383,"SoundDuration":656383,"Delta":176195847},{"NoteNumber":61,"Velocity":53,"Duration":649631,"SoundDuration":649631,"Delta":176852230},{"NoteNumber":70,"Velocity":63,"Duration":649631,"SoundDuration":649631,"Delta":176852230},{"NoteNumber":73,"Velocity":63,"Duration":649631,"SoundDuration":649631,"Delta":176852230},{"NoteNumber":34,"Velocity":41,"Duration":649631,"SoundDuration":649631,"Delta":176852230},{"NoteNumber":46,"Velocity":49,"Duration":649631,"SoundDuration":649631,"Delta":176852230},{"NoteNumber":64,"Velocity":53,"Duration":467921,"SoundDuration":467921,"Delta":177501862},{"NoteNumber":68,"Velocity":53,"Duration":467921,"SoundDuration":467921,"Delta":177501862},{"NoteNumber":72,"Velocity":63,"Duration":467921,"SoundDuration":467921,"Delta":177501862},{"NoteNumber":36,"Velocity":41,"Duration":467921,"SoundDuration":467921,"Delta":177501862},{"NoteNumber":48,"Velocity":49,"Duration":467921,"SoundDuration":467921,"Delta":177501862},{"NoteNumber":65,"Velocity":57,"Duration":155973,"SoundDuration":155973,"Delta":177969783},{"NoteNumber":70,"Velocity":57,"Duration":155973,"SoundDuration":155973,"Delta":177969783},{"NoteNumber":37,"Velocity":37,"Duration":155973,"SoundDuration":155973,"Delta":177969783},{"NoteNumber":49,"Velocity":45,"Duration":155973,"SoundDuration":155973,"Delta":177969783},{"NoteNumber":59,"Velocity":51,"Duration":643018,"SoundDuration":643018,"Delta":178125757},{"NoteNumber":65,"Velocity":56,"Duration":643018,"SoundDuration":643018,"Delta":178125757},{"NoteNumber":68,"Velocity":61,"Duration":643018,"SoundDuration":643018,"Delta":178125757},{"NoteNumber":38,"Velocity":41,"Duration":643018,"SoundDuration":643018,"Delta":178125757},{"NoteNumber":50,"Velocity":49,"Duration":643018,"SoundDuration":643018,"Delta":178125757},{"NoteNumber":54,"Velocity":49,"Duration":472639,"SoundDuration":472639,"Delta":178768775},{"NoteNumber":58,"Velocity":49,"Duration":472639,"SoundDuration":472639,"Delta":178768775},{"NoteNumber":63,"Velocity":59,"Duration":472639,"SoundDuration":472639,"Delta":178768775},{"NoteNumber":66,"Velocity":59,"Duration":472639,"SoundDuration":472639,"Delta":178768775},{"NoteNumber":39,"Velocity":41,"Duration":472639,"SoundDuration":472639,"Delta":178768775},{"NoteNumber":51,"Velocity":49,"Duration":472639,"SoundDuration":472639,"Delta":178768775},{"NoteNumber":56,"Velocity":47,"Duration":157546,"SoundDuration":157546,"Delta":179241414},{"NoteNumber":61,"Velocity":56,"Duration":157546,"SoundDuration":157546,"Delta":179241414},{"NoteNumber":65,"Velocity":56,"Duration":157546,"SoundDuration":157546,"Delta":179241414},{"NoteNumber":41,"Velocity":37,"Duration":157546,"SoundDuration":157546,"Delta":179241414},{"NoteNumber":53,"Velocity":45,"Duration":157546,"SoundDuration":157546,"Delta":179241414},{"NoteNumber":63,"Velocity":59,"Duration":967188,"SoundDuration":967188,"Delta":179398961},{"NoteNumber":58,"Velocity":49,"Duration":630185,"SoundDuration":630185,"Delta":179398961},{"NoteNumber":61,"Velocity":59,"Duration":630185,"SoundDuration":630185,"Delta":179398961},{"NoteNumber":42,"Velocity":41,"Duration":630185,"SoundDuration":630185,"Delta":179398961},{"NoteNumber":54,"Velocity":49,"Duration":630185,"SoundDuration":630185,"Delta":179398961},{"NoteNumber":54,"Velocity":47,"Duration":512154,"SoundDuration":512154,"Delta":180029147},{"NoteNumber":60,"Velocity":53,"Duration":512154,"SoundDuration":512154,"Delta":180029147},{"NoteNumber":44,"Velocity":45,"Duration":687306,"SoundDuration":687306,"Delta":180029147},{"NoteNumber":64,"Velocity":60,"Duration":175151,"SoundDuration":175151,"Delta":180366150},{"NoteNumber":65,"Velocity":55,"Duration":1453379,"SoundDuration":1453379,"Delta":180541302},{"NoteNumber":73,"Velocity":60,"Duration":1365803,"SoundDuration":1365803,"Delta":180628877},{"NoteNumber":80,"Velocity":72,"Duration":1278228,"SoundDuration":1278228,"Delta":180716453},{"NoteNumber":37,"Velocity":39,"Duration":213038,"SoundDuration":213038,"Delta":180716453},{"NoteNumber":55,"Velocity":33,"Duration":213037,"SoundDuration":213037,"Delta":180929491},{"NoteNumber":56,"Velocity":31,"Duration":213038,"SoundDuration":213038,"Delta":181142529},{"NoteNumber":58,"Velocity":37,"Duration":213037,"SoundDuration":213037,"Delta":181355567},{"NoteNumber":56,"Velocity":31,"Duration":213038,"SoundDuration":213038,"Delta":181568605},{"NoteNumber":44,"Velocity":31,"Duration":213038,"SoundDuration":213038,"Delta":181781643},{"NoteNumber":68,"Velocity":49,"Duration":623895,"SoundDuration":623895,"Delta":181994681},{"NoteNumber":73,"Velocity":49,"Duration":623895,"SoundDuration":623895,"Delta":181994681},{"NoteNumber":77,"Velocity":60,"Duration":623895,"SoundDuration":623895,"Delta":181994681},{"NoteNumber":49,"Velocity":39,"Duration":207965,"SoundDuration":207965,"Delta":181994681},{"NoteNumber":55,"Velocity":35,"Duration":207965,"SoundDuration":207965,"Delta":182202646},{"NoteNumber":56,"Velocity":35,"Duration":207965,"SoundDuration":207965,"Delta":182410611},{"NoteNumber":65,"Velocity":34,"Duration":319557,"SoundDuration":319557,"Delta":182618576},{"NoteNumber":68,"Velocity":39,"Duration":319557,"SoundDuration":319557,"Delta":182618576},{"NoteNumber":58,"Velocity":37,"Duration":213038,"SoundDuration":213038,"Delta":182618576},{"NoteNumber":56,"Velocity":33,"Duration":217359,"SoundDuration":217359,"Delta":182831614},{"NoteNumber":70,"Velocity":41,"Duration":332520,"SoundDuration":332520,"Delta":182938133},{"NoteNumber":75,"Velocity":41,"Duration":332520,"SoundDuration":332520,"Delta":182938133},{"NoteNumber":78,"Velocity":55,"Duration":332520,"SoundDuration":332520,"Delta":182938133},{"NoteNumber":44,"Velocity":33,"Duration":221680,"SoundDuration":221680,"Delta":183048974},{"NoteNumber":77,"Velocity":68,"Duration":946450,"SoundDuration":946450,"Delta":183270654},{"NoteNumber":66,"Velocity":33,"Duration":1266007,"SoundDuration":1266007,"Delta":183270654},{"NoteNumber":72,"Velocity":42,"Duration":1266007,"SoundDuration":1266007,"Delta":183270654},{"NoteNumber":51,"Velocity":39,"Duration":208964,"SoundDuration":208964,"Delta":183270654},{"NoteNumber":55,"Velocity":35,"Duration":208964,"SoundDuration":208964,"Delta":183479619},{"NoteNumber":56,"Velocity":35,"Duration":208964,"SoundDuration":208964,"Delta":183688583},{"NoteNumber":58,"Velocity":37,"Duration":213038,"SoundDuration":213038,"Delta":183897548},{"NoteNumber":56,"Velocity":33,"Duration":213037,"SoundDuration":213037,"Delta":184110586},{"NoteNumber":75,"Velocity":55,"Duration":319557,"SoundDuration":319557,"Delta":184217105},{"NoteNumber":44,"Velocity":33,"Duration":213038,"SoundDuration":213038,"Delta":184323624},{"NoteNumber":70,"Velocity":58,"Duration":311947,"SoundDuration":311947,"Delta":184536662},{"NoteNumber":54,"Velocity":39,"Duration":207965,"SoundDuration":207965,"Delta":184536662},{"NoteNumber":55,"Velocity":35,"Duration":207965,"SoundDuration":207965,"Delta":184744627},{"NoteNumber":68,"Velocity":52,"Duration":311947,"SoundDuration":311947,"Delta":184848609},{"NoteNumber":56,"Velocity":35,"Duration":207965,"SoundDuration":207965,"Delta":184952592},{"NoteNumber":61,"Velocity":61,"Duration":321130,"SoundDuration":321130,"Delta":185160557},{"NoteNumber":58,"Velocity":37,"Duration":214087,"SoundDuration":214087,"Delta":185160557},{"NoteNumber":56,"Velocity":33,"Duration":218451,"SoundDuration":218451,"Delta":185374644},{"NoteNumber":63,"Velocity":55,"Duration":167112,"SoundDuration":167112,"Delta":185481687},{"NoteNumber":44,"Velocity":33,"Duration":222816,"SoundDuration":222816,"Delta":185593096},{"NoteNumber":65,"Velocity":62,"Duration":167112,"SoundDuration":167112,"Delta":185648800},{"NoteNumber":65,"Velocity":55,"Duration":639114,"SoundDuration":639114,"Delta":185815912},{"NoteNumber":73,"Velocity":57,"Duration":1278228,"SoundDuration":1278228,"Delta":185815912},{"NoteNumber":80,"Velocity":68,"Duration":639114,"SoundDuration":639114,"Delta":185815912},{"NoteNumber":49,"Velocity":39,"Duration":159778,"SoundDuration":159778,"Delta":185815912},{"NoteNumber":55,"Velocity":34,"Duration":159778,"SoundDuration":159778,"Delta":186135469},{"NoteNumber":56,"Velocity":33,"Duration":159778,"SoundDuration":159778,"Delta":186295247},{"NoteNumber":68,"Velocity":49,"Duration":639114,"SoundDuration":639114,"Delta":186455026},{"NoteNumber":77,"Velocity":62,"Duration":639114,"SoundDuration":639114,"Delta":186455026},{"NoteNumber":58,"Velocity":37,"Duration":159778,"SoundDuration":159778,"Delta":186455026},{"NoteNumber":56,"Velocity":31,"Duration":143800,"SoundDuration":143800,"Delta":186614804},{"NoteNumber":56,"Velocity":37,"Duration":159778,"SoundDuration":159778,"Delta":186774583},{"NoteNumber":44,"Velocity":37,"Duration":159778,"SoundDuration":159778,"Delta":186934361},{"NoteNumber":73,"Velocity":57,"Duration":623895,"SoundDuration":623895,"Delta":187094140},{"NoteNumber":70,"Velocity":55,"Duration":311947,"SoundDuration":311947,"Delta":187094140},{"NoteNumber":78,"Velocity":66,"Duration":311947,"SoundDuration":311947,"Delta":187094140},{"NoteNumber":49,"Velocity":39,"Duration":155973,"SoundDuration":155973,"Delta":187094140},{"NoteNumber":68,"Velocity":46,"Duration":311947,"SoundDuration":311947,"Delta":187406087},{"NoteNumber":77,"Velocity":55,"Duration":311947,"SoundDuration":311947,"Delta":187406087},{"NoteNumber":55,"Velocity":35,"Duration":155973,"SoundDuration":155973,"Delta":187406087},{"NoteNumber":56,"Velocity":35,"Duration":155973,"SoundDuration":155973,"Delta":187562061},{"NoteNumber":68,"Velocity":48,"Duration":213038,"SoundDuration":213038,"Delta":187718035},{"NoteNumber":77,"Velocity":57,"Duration":213038,"SoundDuration":213038,"Delta":187718035},{"NoteNumber":58,"Velocity":37,"Duration":159778,"SoundDuration":159778,"Delta":187718035},{"NoteNumber":56,"Velocity":33,"Duration":143800,"SoundDuration":143800,"Delta":187877813},{"NoteNumber":72,"Velocity":46,"Duration":213037,"SoundDuration":213037,"Delta":187931073},{"NoteNumber":80,"Velocity":55,"Duration":213037,"SoundDuration":213037,"Delta":187931073},{"NoteNumber":56,"Velocity":37,"Duration":159778,"SoundDuration":159778,"Delta":188037592},{"NoteNumber":70,"Velocity":46,"Duration":213038,"SoundDuration":213038,"Delta":188144111},{"NoteNumber":78,"Velocity":55,"Duration":213038,"SoundDuration":213038,"Delta":188144111},{"NoteNumber":44,"Velocity":31,"Duration":159778,"SoundDuration":159778,"Delta":188197370},{"NoteNumber":77,"Velocity":61,"Duration":946450,"SoundDuration":946450,"Delta":188357149},{"NoteNumber":66,"Velocity":32,"Duration":1266007,"SoundDuration":1266007,"Delta":188357149},{"NoteNumber":72,"Velocity":36,"Duration":1266007,"SoundDuration":1266007,"Delta":188357149},{"NoteNumber":51,"Velocity":39,"Duration":156723,"SoundDuration":156723,"Delta":188357149},{"NoteNumber":55,"Velocity":35,"Duration":156723,"SoundDuration":156723,"Delta":188670596},{"NoteNumber":56,"Velocity":35,"Duration":156723,"SoundDuration":156723,"Delta":188827319},{"NoteNumber":58,"Velocity":37,"Duration":159778,"SoundDuration":159778,"Delta":188984043},{"NoteNumber":56,"Velocity":33,"Duration":143800,"SoundDuration":143800,"Delta":189143821},{"NoteNumber":75,"Velocity":60,"Duration":319557,"SoundDuration":319557,"Delta":189303600},{"NoteNumber":56,"Velocity":37,"Duration":159778,"SoundDuration":159778,"Delta":189303600},{"NoteNumber":44,"Velocity":33,"Duration":159778,"SoundDuration":159778,"Delta":189463378},{"NoteNumber":70,"Velocity":60,"Duration":207965,"SoundDuration":207965,"Delta":189623157},{"NoteNumber":54,"Velocity":39,"Duration":311947,"SoundDuration":311947,"Delta":189623157},{"NoteNumber":68,"Velocity":51,"Duration":207965,"SoundDuration":207965,"Delta":189831122},{"NoteNumber":55,"Velocity":35,"Duration":155973,"SoundDuration":155973,"Delta":189935104},{"NoteNumber":70,"Velocity":51,"Duration":207965,"SoundDuration":207965,"Delta":190039087},{"NoteNumber":56,"Velocity":35,"Duration":155973,"SoundDuration":155973,"Delta":190091078},{"NoteNumber":68,"Velocity":58,"Duration":214087,"SoundDuration":214087,"Delta":190247052},{"NoteNumber":58,"Velocity":39,"Duration":160565,"SoundDuration":160565,"Delta":190247052},{"NoteNumber":56,"Velocity":35,"Duration":144508,"SoundDuration":144508,"Delta":190407617},{"NoteNumber":61,"Velocity":53,"Duration":220770,"SoundDuration":220770,"Delta":190461139},{"NoteNumber":56,"Velocity":39,"Duration":170590,"SoundDuration":170590,"Delta":190568182},{"NoteNumber":63,"Velocity":53,"Duration":227453,"SoundDuration":227453,"Delta":190681909},{"NoteNumber":44,"Velocity":35,"Duration":170590,"SoundDuration":170590,"Delta":190738773},{"NoteNumber":68,"Velocity":61,"Duration":642260,"SoundDuration":642260,"Delta":190909363},{"NoteNumber":73,"Velocity":58,"Duration":1275171,"SoundDuration":1275171,"Delta":190909363},{"NoteNumber":80,"Velocity":73,"Duration":1275171,"SoundDuration":1275171,"Delta":190909363},{"NoteNumber":49,"Velocity":44,"Duration":160565,"SoundDuration":160565,"Delta":190909363},{"NoteNumber":56,"Velocity":39,"Duration":160565,"SoundDuration":160565,"Delta":191069928},{"NoteNumber":58,"Velocity":39,"Duration":160565,"SoundDuration":160565,"Delta":191230493},{"NoteNumber":56,"Velocity":39,"Duration":160565,"SoundDuration":160565,"Delta":191391059},{"NoteNumber":70,"Velocity":57,"Duration":632911,"SoundDuration":632911,"Delta":191551624},{"NoteNumber":82,"Velocity":68,"Duration":632911,"SoundDuration":632911,"Delta":191551624},{"NoteNumber":65,"Velocity":44,"Duration":158227,"SoundDuration":158227,"Delta":191551624},{"NoteNumber":56,"Velocity":40,"Duration":158227,"SoundDuration":158227,"Delta":191709852},{"NoteNumber":58,"Velocity":40,"Duration":158227,"SoundDuration":158227,"Delta":191868079},{"NoteNumber":56,"Velocity":41,"Duration":158227,"SoundDuration":158227,"Delta":192026307},{"NoteNumber":80,"Velocity":61,"Duration":1262174,"SoundDuration":1262174,"Delta":192184535},{"NoteNumber":78,"Velocity":61,"Duration":1262174,"SoundDuration":1262174,"Delta":192184535},{"NoteNumber":72,"Velocity":61,"Duration":632911,"SoundDuration":632911,"Delta":192184535},{"NoteNumber":84,"Velocity":73,"Duration":632911,"SoundDuration":632911,"Delta":192184535},{"NoteNumber":44,"Velocity":45,"Duration":158227,"SoundDuration":158227,"Delta":192184535},{"NoteNumber":56,"Velocity":40,"Duration":158227,"SoundDuration":158227,"Delta":192342763},{"NoteNumber":58,"Velocity":41,"Duration":158227,"SoundDuration":158227,"Delta":192500990},{"NoteNumber":56,"Velocity":41,"Duration":158227,"SoundDuration":158227,"Delta":192659218},{"NoteNumber":73,"Velocity":68,"Duration":467921,"SoundDuration":467921,"Delta":192817446},{"NoteNumber":85,"Velocity":75,"Duration":467921,"SoundDuration":467921,"Delta":192817446},{"NoteNumber":66,"Velocity":47,"Duration":155973,"SoundDuration":155973,"Delta":192817446},{"NoteNumber":56,"Velocity":44,"Duration":155973,"SoundDuration":155973,"Delta":192973420},{"NoteNumber":58,"Velocity":44,"Duration":155973,"SoundDuration":155973,"Delta":193129393},{"NoteNumber":75,"Velocity":70,"Duration":161342,"SoundDuration":161342,"Delta":193285367},{"NoteNumber":87,"Velocity":73,"Duration":161342,"SoundDuration":161342,"Delta":193285367},{"NoteNumber":56,"Velocity":44,"Duration":161342,"SoundDuration":161342,"Delta":193285367},{"NoteNumber":80,"Velocity":66,"Duration":1265822,"SoundDuration":1265822,"Delta":193446709},{"NoteNumber":77,"Velocity":66,"Duration":1265822,"SoundDuration":1265822,"Delta":193446709},{"NoteNumber":89,"Velocity":78,"Duration":632911,"SoundDuration":632911,"Delta":193446709},{"NoteNumber":49,"Velocity":48,"Duration":158227,"SoundDuration":158227,"Delta":193446709},{"NoteNumber":56,"Velocity":42,"Duration":158227,"SoundDuration":158227,"Delta":193604937},{"NoteNumber":58,"Velocity":42,"Duration":158227,"SoundDuration":158227,"Delta":193763165},{"NoteNumber":56,"Velocity":42,"Duration":158227,"SoundDuration":158227,"Delta":193921393},{"NoteNumber":82,"Velocity":73,"Duration":632911,"SoundDuration":632911,"Delta":194079620},{"NoteNumber":70,"Velocity":61,"Duration":632911,"SoundDuration":632911,"Delta":194079620},{"NoteNumber":65,"Velocity":49,"Duration":158227,"SoundDuration":158227,"Delta":194079620},{"NoteNumber":56,"Velocity":46,"Duration":158227,"SoundDuration":158227,"Delta":194237848},{"NoteNumber":58,"Velocity":46,"Duration":158227,"SoundDuration":158227,"Delta":194396076},{"NoteNumber":56,"Velocity":46,"Duration":158227,"SoundDuration":158227,"Delta":194554304},{"NoteNumber":72,"Velocity":66,"Duration":632910,"SoundDuration":632910,"Delta":194712531},{"NoteNumber":84,"Velocity":78,"Duration":632910,"SoundDuration":632910,"Delta":194712531},{"NoteNumber":80,"Velocity":66,"Duration":632910,"SoundDuration":632910,"Delta":194712531},{"NoteNumber":78,"Velocity":66,"Duration":632910,"SoundDuration":632910,"Delta":194712531},{"NoteNumber":44,"Velocity":50,"Duration":158227,"SoundDuration":158227,"Delta":194712531},{"NoteNumber":56,"Velocity":46,"Duration":158227,"SoundDuration":158227,"Delta":194870759},{"NoteNumber":58,"Velocity":46,"Duration":158227,"SoundDuration":158227,"Delta":195028987},{"NoteNumber":56,"Velocity":46,"Duration":158227,"SoundDuration":158227,"Delta":195187215},{"NoteNumber":85,"Velocity":79,"Duration":481417,"SoundDuration":481417,"Delta":195345442},{"NoteNumber":73,"Velocity":66,"Duration":481417,"SoundDuration":481417,"Delta":195345442},{"NoteNumber":66,"Velocity":52,"Duration":158227,"SoundDuration":158227,"Delta":195345442},{"NoteNumber":56,"Velocity":49,"Duration":158227,"SoundDuration":158227,"Delta":195503670},{"NoteNumber":58,"Velocity":49,"Duration":164962,"SoundDuration":164962,"Delta":195661898},{"NoteNumber":75,"Velocity":64,"Duration":164962,"SoundDuration":164962,"Delta":195826860},{"NoteNumber":87,"Velocity":77,"Duration":164962,"SoundDuration":164962,"Delta":195826860},{"NoteNumber":56,"Velocity":49,"Duration":164962,"SoundDuration":164962,"Delta":195826860},{"NoteNumber":84,"Velocity":66,"Duration":1302865,"SoundDuration":1302865,"Delta":195991822},{"NoteNumber":87,"Velocity":74,"Duration":1302865,"SoundDuration":1302865,"Delta":195991822},{"NoteNumber":77,"Velocity":70,"Duration":659847,"SoundDuration":659847,"Delta":195991822},{"NoteNumber":89,"Velocity":81,"Duration":659847,"SoundDuration":659847,"Delta":195991822},{"NoteNumber":45,"Velocity":57,"Duration":164962,"SoundDuration":164962,"Delta":195991822},{"NoteNumber":52,"Velocity":51,"Duration":164962,"SoundDuration":164962,"Delta":196156784},{"NoteNumber":53,"Velocity":51,"Duration":164962,"SoundDuration":164962,"Delta":196321746},{"NoteNumber":60,"Velocity":51,"Duration":164961,"SoundDuration":164961,"Delta":196486708},{"NoteNumber":78,"Velocity":66,"Duration":956465,"SoundDuration":956465,"Delta":196651670},{"NoteNumber":90,"Velocity":78,"Duration":956465,"SoundDuration":956465,"Delta":196651670},{"NoteNumber":57,"Velocity":58,"Duration":160754,"SoundDuration":160754,"Delta":196651670},{"NoteNumber":64,"Velocity":53,"Duration":160754,"SoundDuration":160754,"Delta":196812424},{"NoteNumber":65,"Velocity":53,"Duration":160754,"SoundDuration":160754,"Delta":196973179},{"NoteNumber":72,"Velocity":53,"Duration":160754,"SoundDuration":160754,"Delta":197133933},{"NoteNumber":82,"Velocity":74,"Duration":1281500,"SoundDuration":1281500,"Delta":197294688},{"NoteNumber":85,"Velocity":74,"Duration":1281500,"SoundDuration":1281500,"Delta":197294688},{"NoteNumber":46,"Velocity":59,"Duration":156723,"SoundDuration":156723,"Delta":197294688},{"NoteNumber":52,"Velocity":52,"Duration":156723,"SoundDuration":156723,"Delta":197451411},{"NoteNumber":77,"Velocity":64,"Duration":322684,"SoundDuration":322684,"Delta":197608135},{"NoteNumber":89,"Velocity":77,"Duration":322684,"SoundDuration":322684,"Delta":197608135},{"NoteNumber":53,"Velocity":52,"Duration":161342,"SoundDuration":161342,"Delta":197608135},{"NoteNumber":61,"Velocity":53,"Duration":161342,"SoundDuration":161342,"Delta":197769477},{"NoteNumber":76,"Velocity":63,"Duration":322684,"SoundDuration":322684,"Delta":197930819},{"NoteNumber":88,"Velocity":75,"Duration":322684,"SoundDuration":322684,"Delta":197930819},{"NoteNumber":58,"Velocity":60,"Duration":161342,"SoundDuration":161342,"Delta":197930819},{"NoteNumber":64,"Velocity":55,"Duration":161342,"SoundDuration":161342,"Delta":198092162},{"NoteNumber":77,"Velocity":63,"Duration":322684,"SoundDuration":322684,"Delta":198253504},{"NoteNumber":89,"Velocity":75,"Duration":322684,"SoundDuration":322684,"Delta":198253504},{"NoteNumber":65,"Velocity":55,"Duration":161342,"SoundDuration":161342,"Delta":198253504},{"NoteNumber":73,"Velocity":56,"Duration":161342,"SoundDuration":161342,"Delta":198414846},{"NoteNumber":87,"Velocity":57,"Duration":1278280,"SoundDuration":1278280,"Delta":198576188},{"NoteNumber":90,"Velocity":71,"Duration":1278280,"SoundDuration":1278280,"Delta":198576188},{"NoteNumber":92,"Velocity":85,"Duration":645369,"SoundDuration":645369,"Delta":198576188},{"NoteNumber":80,"Velocity":72,"Duration":645369,"SoundDuration":645369,"Delta":198576188},{"NoteNumber":48,"Velocity":61,"Duration":161342,"SoundDuration":161342,"Delta":198576188},{"NoteNumber":55,"Velocity":55,"Duration":161342,"SoundDuration":161342,"Delta":198737531},{"NoteNumber":56,"Velocity":55,"Duration":161342,"SoundDuration":161342,"Delta":198898873},{"NoteNumber":63,"Velocity":55,"Duration":161342,"SoundDuration":161342,"Delta":199060215},{"NoteNumber":82,"Velocity":70,"Duration":940445,"SoundDuration":940445,"Delta":199221557},{"NoteNumber":94,"Velocity":84,"Duration":940445,"SoundDuration":940445,"Delta":199221557},{"NoteNumber":60,"Velocity":62,"Duration":158227,"SoundDuration":158227,"Delta":199221557},{"NoteNumber":67,"Velocity":57,"Duration":158227,"SoundDuration":158227,"Delta":199379785},{"NoteNumber":68,"Velocity":57,"Duration":158227,"SoundDuration":158227,"Delta":199538013},{"NoteNumber":75,"Velocity":57,"Duration":158227,"SoundDuration":158227,"Delta":199696241},{"NoteNumber":89,"Velocity":81,"Duration":623989,"SoundDuration":623989,"Delta":199854468},{"NoteNumber":50,"Velocity":62,"Duration":153767,"SoundDuration":153767,"Delta":199854468},{"NoteNumber":57,"Velocity":56,"Duration":153767,"SoundDuration":153767,"Delta":200008236},{"NoteNumber":80,"Velocity":67,"Duration":316455,"SoundDuration":316455,"Delta":200162003},{"NoteNumber":92,"Velocity":80,"Duration":316455,"SoundDuration":316455,"Delta":200162003},{"NoteNumber":58,"Velocity":57,"Duration":158227,"SoundDuration":158227,"Delta":200162003},{"NoteNumber":65,"Velocity":57,"Duration":158227,"SoundDuration":158227,"Delta":200320231},{"NoteNumber":78,"Velocity":70,"Duration":474683,"SoundDuration":474683,"Delta":200478458},{"NoteNumber":90,"Velocity":84,"Duration":474683,"SoundDuration":474683,"Delta":200478458},{"NoteNumber":82,"Velocity":62,"Duration":632911,"SoundDuration":632911,"Delta":200478458},{"NoteNumber":62,"Velocity":63,"Duration":158227,"SoundDuration":158227,"Delta":200478458},{"NoteNumber":69,"Velocity":58,"Duration":158227,"SoundDuration":158227,"Delta":200636686},{"NoteNumber":70,"Velocity":59,"Duration":158227,"SoundDuration":158227,"Delta":200794914},{"NoteNumber":89,"Velocity":78,"Duration":158227,"SoundDuration":158227,"Delta":200953142},{"NoteNumber":77,"Velocity":66,"Duration":158227,"SoundDuration":158227,"Delta":200953142},{"NoteNumber":82,"Velocity":73,"Duration":631504,"SoundDuration":631504,"Delta":201111369},{"NoteNumber":80,"Velocity":73,"Duration":311947,"SoundDuration":311947,"Delta":201111369},{"NoteNumber":92,"Velocity":86,"Duration":311947,"SoundDuration":311947,"Delta":201111369},{"NoteNumber":39,"Velocity":59,"Duration":155973,"SoundDuration":155973,"Delta":201111369},{"NoteNumber":46,"Velocity":52,"Duration":155973,"SoundDuration":155973,"Delta":201267343},{"NoteNumber":78,"Velocity":60,"Duration":319557,"SoundDuration":319557,"Delta":201423317},{"NoteNumber":90,"Velocity":72,"Duration":319557,"SoundDuration":319557,"Delta":201423317},{"NoteNumber":51,"Velocity":52,"Duration":159778,"SoundDuration":159778,"Delta":201423317},{"NoteNumber":58,"Velocity":52,"Duration":159778,"SoundDuration":159778,"Delta":201583095},{"NoteNumber":82,"Velocity":53,"Duration":634577,"SoundDuration":634577,"Delta":201742874},{"NoteNumber":77,"Velocity":59,"Duration":313446,"SoundDuration":313446,"Delta":201742874},{"NoteNumber":89,"Velocity":72,"Duration":313446,"SoundDuration":313446,"Delta":201742874},{"NoteNumber":41,"Velocity":59,"Duration":156723,"SoundDuration":156723,"Delta":201742874},{"NoteNumber":46,"Velocity":52,"Duration":156723,"SoundDuration":156723,"Delta":201899597},{"NoteNumber":74,"Velocity":60,"Duration":321130,"SoundDuration":321130,"Delta":202056321},{"NoteNumber":86,"Velocity":72,"Duration":321130,"SoundDuration":321130,"Delta":202056321},{"NoteNumber":50,"Velocity":52,"Duration":160565,"SoundDuration":160565,"Delta":202056321},{"NoteNumber":56,"Velocity":52,"Duration":160565,"SoundDuration":160565,"Delta":202216886},{"NoteNumber":82,"Velocity":61,"Duration":631504,"SoundDuration":631504,"Delta":202377451},{"NoteNumber":89,"Velocity":81,"Duration":311947,"SoundDuration":311947,"Delta":202377451},{"NoteNumber":77,"Velocity":69,"Duration":311947,"SoundDuration":311947,"Delta":202377451},{"NoteNumber":42,"Velocity":62,"Duration":155973,"SoundDuration":155973,"Delta":202377451},{"NoteNumber":46,"Velocity":52,"Duration":155973,"SoundDuration":155973,"Delta":202533425},{"NoteNumber":87,"Velocity":71,"Duration":319557,"SoundDuration":319557,"Delta":202689399},{"NoteNumber":75,"Velocity":60,"Duration":319557,"SoundDuration":319557,"Delta":202689399},{"NoteNumber":51,"Velocity":52,"Duration":159778,"SoundDuration":159778,"Delta":202689399},{"NoteNumber":58,"Velocity":52,"Duration":159778,"SoundDuration":159778,"Delta":202849177},{"NoteNumber":76,"Velocity":53,"Duration":623895,"SoundDuration":623895,"Delta":203008956},{"NoteNumber":82,"Velocity":72,"Duration":311947,"SoundDuration":311947,"Delta":203008956},{"NoteNumber":70,"Velocity":61,"Duration":311947,"SoundDuration":311947,"Delta":203008956},{"NoteNumber":43,"Velocity":61,"Duration":155973,"SoundDuration":155973,"Delta":203008956},{"NoteNumber":49,"Velocity":52,"Duration":155973,"SoundDuration":155973,"Delta":203164930},{"NoteNumber":85,"Velocity":67,"Duration":311947,"SoundDuration":311947,"Delta":203320903},{"NoteNumber":73,"Velocity":56,"Duration":311947,"SoundDuration":311947,"Delta":203320903},{"NoteNumber":52,"Velocity":52,"Duration":155973,"SoundDuration":155973,"Delta":203320903},{"NoteNumber":58,"Velocity":52,"Duration":155973,"SoundDuration":155973,"Delta":203476877},{"NoteNumber":77,"Velocity":64,"Duration":633078,"SoundDuration":633078,"Delta":203632851},{"NoteNumber":70,"Velocity":66,"Duration":311947,"SoundDuration":311947,"Delta":203632851},{"NoteNumber":82,"Velocity":80,"Duration":311947,"SoundDuration":311947,"Delta":203632851},{"NoteNumber":44,"Velocity":59,"Duration":155973,"SoundDuration":155973,"Delta":203632851},{"NoteNumber":49,"Velocity":52,"Duration":155973,"SoundDuration":155973,"Delta":203788825},{"NoteNumber":80,"Velocity":73,"Duration":321130,"SoundDuration":321130,"Delta":203944798},{"NoteNumber":68,"Velocity":61,"Duration":321130,"SoundDuration":321130,"Delta":203944798},{"NoteNumber":53,"Velocity":52,"Duration":160565,"SoundDuration":160565,"Delta":203944798},{"NoteNumber":61,"Velocity":52,"Duration":160565,"SoundDuration":160565,"Delta":204105364},{"NoteNumber":73,"Velocity":73,"Duration":642260,"SoundDuration":642260,"Delta":204265929},{"NoteNumber":66,"Velocity":61,"Duration":321130,"SoundDuration":321130,"Delta":204265929},{"NoteNumber":61,"Velocity":61,"Duration":321130,"SoundDuration":321130,"Delta":204265929},{"NoteNumber":46,"Velocity":58,"Duration":160565,"SoundDuration":160565,"Delta":204265929},{"NoteNumber":49,"Velocity":52,"Duration":160565,"SoundDuration":160565,"Delta":204426494},{"NoteNumber":66,"Velocity":62,"Duration":321130,"SoundDuration":321130,"Delta":204587059},{"NoteNumber":78,"Velocity":74,"Duration":321130,"SoundDuration":321130,"Delta":204587059},{"NoteNumber":54,"Velocity":52,"Duration":160565,"SoundDuration":160565,"Delta":204587059},{"NoteNumber":61,"Velocity":52,"Duration":160565,"SoundDuration":160565,"Delta":204747625},{"NoteNumber":61,"Velocity":67,"Duration":637585,"SoundDuration":637585,"Delta":204908190},{"NoteNumber":66,"Velocity":67,"Duration":637585,"SoundDuration":637585,"Delta":204908190},{"NoteNumber":73,"Velocity":67,"Duration":637585,"SoundDuration":637585,"Delta":204908190},{"NoteNumber":75,"Velocity":80,"Duration":637585,"SoundDuration":637585,"Delta":204908190},{"NoteNumber":44,"Velocity":52,"Duration":160565,"SoundDuration":160565,"Delta":204908190},{"NoteNumber":51,"Velocity":47,"Duration":160565,"SoundDuration":160565,"Delta":205068755},{"NoteNumber":56,"Velocity":47,"Duration":158227,"SoundDuration":158227,"Delta":205229320},{"NoteNumber":61,"Velocity":47,"Duration":158227,"SoundDuration":158227,"Delta":205387548},{"NoteNumber":65,"Velocity":59,"Duration":308991,"SoundDuration":308991,"Delta":205545776},{"NoteNumber":77,"Velocity":75,"Duration":308991,"SoundDuration":308991,"Delta":205545776},{"NoteNumber":72,"Velocity":51,"Duration":625446,"SoundDuration":625446,"Delta":205545776},{"NoteNumber":42,"Velocity":55,"Duration":154495,"SoundDuration":154495,"Delta":205545776},{"NoteNumber":48,"Velocity":47,"Duration":154495,"SoundDuration":154495,"Delta":205700272},{"NoteNumber":66,"Velocity":60,"Duration":316455,"SoundDuration":316455,"Delta":205854767},{"NoteNumber":78,"Velocity":70,"Duration":316455,"SoundDuration":316455,"Delta":205854767},{"NoteNumber":51,"Velocity":47,"Duration":158227,"SoundDuration":158227,"Delta":205854767},{"NoteNumber":56,"Velocity":47,"Duration":158227,"SoundDuration":158227,"Delta":206012995},{"NoteNumber":73,"Velocity":46,"Duration":628402,"SoundDuration":628402,"Delta":206171223},{"NoteNumber":70,"Velocity":60,"Duration":311947,"SoundDuration":311947,"Delta":206171223},{"NoteNumber":82,"Velocity":77,"Duration":311947,"SoundDuration":311947,"Delta":206171223},{"NoteNumber":41,"Velocity":55,"Duration":155973,"SoundDuration":155973,"Delta":206171223},{"NoteNumber":44,"Velocity":47,"Duration":155973,"SoundDuration":155973,"Delta":206327197},{"NoteNumber":69,"Velocity":50,"Duration":316455,"SoundDuration":316455,"Delta":206483170},{"NoteNumber":81,"Velocity":70,"Duration":316455,"SoundDuration":316455,"Delta":206483170},{"NoteNumber":49,"Velocity":47,"Duration":158227,"SoundDuration":158227,"Delta":206483170},{"NoteNumber":56,"Velocity":47,"Duration":158227,"SoundDuration":158227,"Delta":206641398},{"NoteNumber":73,"Velocity":53,"Duration":214087,"SoundDuration":214087,"Delta":206799626},{"NoteNumber":68,"Velocity":64,"Duration":214087,"SoundDuration":214087,"Delta":206799626},{"NoteNumber":80,"Velocity":77,"Duration":214087,"SoundDuration":214087,"Delta":206799626},{"NoteNumber":46,"Velocity":56,"Duration":160565,"SoundDuration":160565,"Delta":206799626},{"NoteNumber":49,"Velocity":47,"Duration":160565,"SoundDuration":160565,"Delta":206960191},{"NoteNumber":73,"Velocity":70,"Duration":428173,"SoundDuration":428173,"Delta":207013713},{"NoteNumber":61,"Velocity":60,"Duration":214087,"SoundDuration":214087,"Delta":207013713},{"NoteNumber":54,"Velocity":47,"Duration":160565,"SoundDuration":160565,"Delta":207120756},{"NoteNumber":66,"Velocity":60,"Duration":214086,"SoundDuration":214086,"Delta":207227800},{"NoteNumber":78,"Velocity":70,"Duration":214086,"SoundDuration":214086,"Delta":207227800},{"NoteNumber":61,"Velocity":47,"Duration":160565,"SoundDuration":160565,"Delta":207281322},{"NoteNumber":63,"Velocity":66,"Duration":321130,"SoundDuration":321130,"Delta":207441887},{"NoteNumber":75,"Velocity":80,"Duration":321130,"SoundDuration":321130,"Delta":207441887},{"NoteNumber":66,"Velocity":66,"Duration":631625,"SoundDuration":631625,"Delta":207441887},{"NoteNumber":73,"Velocity":66,"Duration":631625,"SoundDuration":631625,"Delta":207441887},{"NoteNumber":45,"Velocity":55,"Duration":160565,"SoundDuration":160565,"Delta":207441887},{"NoteNumber":49,"Velocity":47,"Duration":160565,"SoundDuration":160565,"Delta":207602452},{"NoteNumber":65,"Velocity":57,"Duration":155247,"SoundDuration":155247,"Delta":207763017},{"NoteNumber":77,"Velocity":68,"Duration":155247,"SoundDuration":155247,"Delta":207763017},{"NoteNumber":54,"Velocity":47,"Duration":155247,"SoundDuration":155247,"Delta":207763017},{"NoteNumber":63,"Velocity":53,"Duration":155247,"SoundDuration":155247,"Delta":207918265},{"NoteNumber":75,"Velocity":63,"Duration":155247,"SoundDuration":155247,"Delta":207918265},{"NoteNumber":61,"Velocity":47,"Duration":155247,"SoundDuration":155247,"Delta":207918265},{"NoteNumber":72,"Velocity":61,"Duration":648756,"SoundDuration":648756,"Delta":208073512},{"NoteNumber":62,"Velocity":61,"Duration":159778,"SoundDuration":159778,"Delta":208073512},{"NoteNumber":74,"Velocity":73,"Duration":159778,"SoundDuration":159778,"Delta":208073512},{"NoteNumber":44,"Velocity":51,"Duration":159778,"SoundDuration":159778,"Delta":208073512},{"NoteNumber":63,"Velocity":57,"Duration":159778,"SoundDuration":159778,"Delta":208233290},{"NoteNumber":75,"Velocity":68,"Duration":159778,"SoundDuration":159778,"Delta":208233290},{"NoteNumber":51,"Velocity":47,"Duration":159778,"SoundDuration":159778,"Delta":208233290},{"NoteNumber":65,"Velocity":61,"Duration":164600,"SoundDuration":164600,"Delta":208393069},{"NoteNumber":77,"Velocity":73,"Duration":164600,"SoundDuration":164600,"Delta":208393069},{"NoteNumber":60,"Velocity":47,"Duration":164600,"SoundDuration":164600,"Delta":208393069},{"NoteNumber":66,"Velocity":58,"Duration":164599,"SoundDuration":164599,"Delta":208557669},{"NoteNumber":78,"Velocity":69,"Duration":164599,"SoundDuration":164599,"Delta":208557669},{"NoteNumber":42,"Velocity":47,"Duration":164599,"SoundDuration":164599,"Delta":208557669},{"NoteNumber":73,"Velocity":70,"Duration":422974,"SoundDuration":422974,"Delta":208722269},{"NoteNumber":67,"Velocity":70,"Duration":210970,"SoundDuration":210970,"Delta":208722269},{"NoteNumber":79,"Velocity":83,"Duration":210970,"SoundDuration":210970,"Delta":208722269},{"NoteNumber":41,"Velocity":56,"Duration":158227,"SoundDuration":158227,"Delta":208722269},{"NoteNumber":44,"Velocity":47,"Duration":158227,"SoundDuration":158227,"Delta":208880497},{"NoteNumber":68,"Velocity":66,"Duration":212004,"SoundDuration":212004,"Delta":208933239},{"NoteNumber":80,"Velocity":79,"Duration":212004,"SoundDuration":212004,"Delta":208933239},{"NoteNumber":49,"Velocity":46,"Duration":159778,"SoundDuration":159778,"Delta":209038724},{"NoteNumber":77,"Velocity":69,"Duration":213038,"SoundDuration":213038,"Delta":209145243},{"NoteNumber":89,"Velocity":77,"Duration":213038,"SoundDuration":213038,"Delta":209145243},{"NoteNumber":56,"Velocity":46,"Duration":159778,"SoundDuration":159778,"Delta":209198503},{"NoteNumber":78,"Velocity":70,"Duration":426075,"SoundDuration":426075,"Delta":209358281},{"NoteNumber":75,"Velocity":70,"Duration":213037,"SoundDuration":213037,"Delta":209358281},{"NoteNumber":87,"Velocity":82,"Duration":213037,"SoundDuration":213037,"Delta":209358281},{"NoteNumber":46,"Velocity":53,"Duration":159778,"SoundDuration":159778,"Delta":209358281},{"NoteNumber":49,"Velocity":45,"Duration":159778,"SoundDuration":159778,"Delta":209518060},{"NoteNumber":73,"Velocity":62,"Duration":213038,"SoundDuration":213038,"Delta":209571319},{"NoteNumber":85,"Velocity":73,"Duration":213038,"SoundDuration":213038,"Delta":209571319},{"NoteNumber":54,"Velocity":44,"Duration":159778,"SoundDuration":159778,"Delta":209677838},{"NoteNumber":73,"Velocity":64,"Duration":213038,"SoundDuration":213038,"Delta":209784357},{"NoteNumber":78,"Velocity":80,"Duration":213038,"SoundDuration":213038,"Delta":209784357},{"NoteNumber":66,"Velocity":68,"Duration":213038,"SoundDuration":213038,"Delta":209784357},{"NoteNumber":61,"Velocity":44,"Duration":159778,"SoundDuration":159778,"Delta":209837617},{"NoteNumber":75,"Velocity":82,"Duration":1246305,"SoundDuration":1246305,"Delta":209997395},{"NoteNumber":63,"Velocity":69,"Duration":658400,"SoundDuration":658400,"Delta":209997395},{"NoteNumber":68,"Velocity":69,"Duration":994346,"SoundDuration":994346,"Delta":209997395},{"NoteNumber":73,"Velocity":69,"Duration":658400,"SoundDuration":658400,"Delta":209997395},{"NoteNumber":44,"Velocity":50,"Duration":164600,"SoundDuration":164600,"Delta":209997395},{"NoteNumber":51,"Velocity":42,"Duration":164599,"SoundDuration":164599,"Delta":210161995},{"NoteNumber":56,"Velocity":42,"Duration":164600,"SoundDuration":164600,"Delta":210326595},{"NoteNumber":61,"Velocity":41,"Duration":164600,"SoundDuration":164600,"Delta":210491195},{"NoteNumber":66,"Velocity":61,"Duration":335946,"SoundDuration":335946,"Delta":210655795},{"NoteNumber":72,"Velocity":61,"Duration":335946,"SoundDuration":335946,"Delta":210655795},{"NoteNumber":44,"Velocity":49,"Duration":167972,"SoundDuration":167972,"Delta":210655795},{"NoteNumber":51,"Velocity":41,"Duration":167973,"SoundDuration":167973,"Delta":210823768},{"NoteNumber":56,"Velocity":40,"Duration":167972,"SoundDuration":167972,"Delta":210991741},{"NoteNumber":60,"Velocity":40,"Duration":167973,"SoundDuration":167973,"Delta":211159714},{"NoteNumber":73,"Velocity":73,"Duration":83986,"SoundDuration":83986,"Delta":211243701},{"NoteNumber":65,"Velocity":72,"Duration":183486,"SoundDuration":183486,"Delta":211327687},{"NoteNumber":73,"Velocity":85,"Duration":183486,"SoundDuration":183486,"Delta":211327687},{"NoteNumber":61,"Velocity":66,"Duration":183486,"SoundDuration":183486,"Delta":211327687},{"NoteNumber":49,"Velocity":56,"Duration":183486,"SoundDuration":183486,"Delta":211327687},{"NoteNumber":56,"Velocity":56,"Duration":183486,"SoundDuration":183486,"Delta":211327687},{"NoteNumber":63,"Velocity":62,"Duration":91743,"SoundDuration":91743,"Delta":211511174},{"NoteNumber":70,"Velocity":73,"Duration":91743,"SoundDuration":91743,"Delta":211511174},{"NoteNumber":51,"Velocity":42,"Duration":91743,"SoundDuration":91743,"Delta":211511174},{"NoteNumber":55,"Velocity":42,"Duration":91743,"SoundDuration":91743,"Delta":211511174},{"NoteNumber":61,"Velocity":51,"Duration":91743,"SoundDuration":91743,"Delta":211511174},{"NoteNumber":70,"Velocity":73,"Duration":88105,"SoundDuration":88105,"Delta":211691023},{"NoteNumber":63,"Velocity":62,"Duration":88105,"SoundDuration":88105,"Delta":211691023},{"NoteNumber":61,"Velocity":51,"Duration":88105,"SoundDuration":88105,"Delta":211691023},{"NoteNumber":55,"Velocity":42,"Duration":88105,"SoundDuration":88105,"Delta":211691023},{"NoteNumber":51,"Velocity":42,"Duration":88105,"SoundDuration":88105,"Delta":211691023},{"NoteNumber":63,"Velocity":62,"Duration":168420,"SoundDuration":168420,"Delta":211867234},{"NoteNumber":70,"Velocity":75,"Duration":168420,"SoundDuration":168420,"Delta":211867234},{"NoteNumber":61,"Velocity":56,"Duration":168420,"SoundDuration":168420,"Delta":211867234},{"NoteNumber":55,"Velocity":46,"Duration":168420,"SoundDuration":168420,"Delta":211867234},{"NoteNumber":51,"Velocity":46,"Duration":168420,"SoundDuration":168420,"Delta":211867234},{"NoteNumber":68,"Velocity":71,"Duration":84210,"SoundDuration":84210,"Delta":212035655},{"NoteNumber":56,"Velocity":42,"Duration":84210,"SoundDuration":84210,"Delta":212035655},{"NoteNumber":60,"Velocity":51,"Duration":84210,"SoundDuration":84210,"Delta":212035655},{"NoteNumber":72,"Velocity":62,"Duration":82304,"SoundDuration":82304,"Delta":212202170},{"NoteNumber":78,"Velocity":74,"Duration":82304,"SoundDuration":82304,"Delta":212202170},{"NoteNumber":63,"Velocity":42,"Duration":82304,"SoundDuration":82304,"Delta":212202170},{"NoteNumber":68,"Velocity":51,"Duration":82304,"SoundDuration":82304,"Delta":212202170},{"NoteNumber":56,"Velocity":42,"Duration":82304,"SoundDuration":82304,"Delta":212202170},{"NoteNumber":72,"Velocity":63,"Duration":161838,"SoundDuration":161838,"Delta":212366779},{"NoteNumber":78,"Velocity":75,"Duration":161838,"SoundDuration":161838,"Delta":212366779},{"NoteNumber":68,"Velocity":56,"Duration":161838,"SoundDuration":161838,"Delta":212366779},{"NoteNumber":56,"Velocity":46,"Duration":161838,"SoundDuration":161838,"Delta":212366779},{"NoteNumber":63,"Velocity":46,"Duration":161838,"SoundDuration":161838,"Delta":212366779},{"NoteNumber":73,"Velocity":62,"Duration":80919,"SoundDuration":80919,"Delta":212528617},{"NoteNumber":77,"Velocity":74,"Duration":80919,"SoundDuration":80919,"Delta":212528617},{"NoteNumber":61,"Velocity":42,"Duration":80919,"SoundDuration":80919,"Delta":212528617},{"NoteNumber":68,"Velocity":51,"Duration":80919,"SoundDuration":80919,"Delta":212528617},{"NoteNumber":75,"Velocity":62,"Duration":77760,"SoundDuration":77760,"Delta":212687297},{"NoteNumber":82,"Velocity":74,"Duration":77760,"SoundDuration":77760,"Delta":212687297},{"NoteNumber":73,"Velocity":51,"Duration":77760,"SoundDuration":77760,"Delta":212687297},{"NoteNumber":63,"Velocity":42,"Duration":77760,"SoundDuration":77760,"Delta":212687297},{"NoteNumber":67,"Velocity":51,"Duration":77760,"SoundDuration":77760,"Delta":212687297},{"NoteNumber":82,"Velocity":78,"Duration":159668,"SoundDuration":159668,"Delta":212842818},{"NoteNumber":75,"Velocity":64,"Duration":159668,"SoundDuration":159668,"Delta":212842818},{"NoteNumber":63,"Velocity":46,"Duration":159668,"SoundDuration":159668,"Delta":212842818},{"NoteNumber":67,"Velocity":56,"Duration":159668,"SoundDuration":159668,"Delta":212842818},{"NoteNumber":73,"Velocity":56,"Duration":159668,"SoundDuration":159668,"Delta":212842818},{"NoteNumber":80,"Velocity":73,"Duration":79833,"SoundDuration":79833,"Delta":213002486},{"NoteNumber":68,"Velocity":42,"Duration":79833,"SoundDuration":79833,"Delta":213002486},{"NoteNumber":72,"Velocity":51,"Duration":79833,"SoundDuration":79833,"Delta":213002486},{"NoteNumber":90,"Velocity":73,"Duration":78431,"SoundDuration":78431,"Delta":213160751},{"NoteNumber":84,"Velocity":62,"Duration":78431,"SoundDuration":78431,"Delta":213160751},{"NoteNumber":80,"Velocity":51,"Duration":78431,"SoundDuration":78431,"Delta":213160751},{"NoteNumber":75,"Velocity":42,"Duration":78431,"SoundDuration":78431,"Delta":213160751},{"NoteNumber":68,"Velocity":42,"Duration":78431,"SoundDuration":78431,"Delta":213160751},{"NoteNumber":84,"Velocity":64,"Duration":158641,"SoundDuration":158641,"Delta":213317614},{"NoteNumber":90,"Velocity":78,"Duration":158641,"SoundDuration":158641,"Delta":213317614},{"NoteNumber":68,"Velocity":46,"Duration":158641,"SoundDuration":158641,"Delta":213317614},{"NoteNumber":80,"Velocity":56,"Duration":158641,"SoundDuration":158641,"Delta":213317614},{"NoteNumber":75,"Velocity":46,"Duration":158641,"SoundDuration":158641,"Delta":213317614},{"NoteNumber":85,"Velocity":62,"Duration":79321,"SoundDuration":79321,"Delta":213476256},{"NoteNumber":89,"Velocity":73,"Duration":79321,"SoundDuration":79321,"Delta":213476256},{"NoteNumber":80,"Velocity":51,"Duration":79321,"SoundDuration":79321,"Delta":213476256},{"NoteNumber":73,"Velocity":42,"Duration":79321,"SoundDuration":79321,"Delta":213476256},{"NoteNumber":82,"Velocity":73,"Duration":77706,"SoundDuration":77706,"Delta":213633283},{"NoteNumber":75,"Velocity":62,"Duration":77706,"SoundDuration":77706,"Delta":213633283},{"NoteNumber":63,"Velocity":44,"Duration":77706,"SoundDuration":77706,"Delta":213633283},{"NoteNumber":73,"Velocity":52,"Duration":77706,"SoundDuration":77706,"Delta":213633283},{"NoteNumber":67,"Velocity":44,"Duration":77706,"SoundDuration":77706,"Delta":213633283},{"NoteNumber":75,"Velocity":62,"Duration":155412,"SoundDuration":155412,"Delta":213788695},{"NoteNumber":82,"Velocity":75,"Duration":155412,"SoundDuration":155412,"Delta":213788695},{"NoteNumber":73,"Velocity":56,"Duration":155412,"SoundDuration":155412,"Delta":213788695},{"NoteNumber":67,"Velocity":46,"Duration":155412,"SoundDuration":155412,"Delta":213788695},{"NoteNumber":63,"Velocity":46,"Duration":155412,"SoundDuration":155412,"Delta":213788695},{"NoteNumber":80,"Velocity":72,"Duration":77706,"SoundDuration":77706,"Delta":213944108},{"NoteNumber":68,"Velocity":44,"Duration":77706,"SoundDuration":77706,"Delta":213944108},{"NoteNumber":72,"Velocity":52,"Duration":77706,"SoundDuration":77706,"Delta":213944108},{"NoteNumber":72,"Velocity":62,"Duration":77706,"SoundDuration":77706,"Delta":214099520},{"NoteNumber":78,"Velocity":74,"Duration":77706,"SoundDuration":77706,"Delta":214099520},{"NoteNumber":56,"Velocity":44,"Duration":77706,"SoundDuration":77706,"Delta":214099520},{"NoteNumber":63,"Velocity":44,"Duration":77706,"SoundDuration":77706,"Delta":214099520},{"NoteNumber":68,"Velocity":52,"Duration":77706,"SoundDuration":77706,"Delta":214099520},{"NoteNumber":78,"Velocity":75,"Duration":155412,"SoundDuration":155412,"Delta":214254932},{"NoteNumber":72,"Velocity":62,"Duration":155412,"SoundDuration":155412,"Delta":214254932},{"NoteNumber":68,"Velocity":56,"Duration":155412,"SoundDuration":155412,"Delta":214254932},{"NoteNumber":63,"Velocity":46,"Duration":155412,"SoundDuration":155412,"Delta":214254932},{"NoteNumber":56,"Velocity":46,"Duration":155412,"SoundDuration":155412,"Delta":214254932},{"NoteNumber":73,"Velocity":60,"Duration":77706,"SoundDuration":77706,"Delta":214410345},{"NoteNumber":77,"Velocity":71,"Duration":77706,"SoundDuration":77706,"Delta":214410345},{"NoteNumber":68,"Velocity":52,"Duration":77706,"SoundDuration":77706,"Delta":214410345},{"NoteNumber":61,"Velocity":44,"Duration":77706,"SoundDuration":77706,"Delta":214410345},{"NoteNumber":70,"Velocity":74,"Duration":77706,"SoundDuration":77706,"Delta":214565757},{"NoteNumber":63,"Velocity":62,"Duration":77706,"SoundDuration":77706,"Delta":214565757},{"NoteNumber":61,"Velocity":52,"Duration":77706,"SoundDuration":77706,"Delta":214565757},{"NoteNumber":51,"Velocity":44,"Duration":77706,"SoundDuration":77706,"Delta":214565757},{"NoteNumber":55,"Velocity":44,"Duration":77706,"SoundDuration":77706,"Delta":214565757},{"NoteNumber":63,"Velocity":64,"Duration":155412,"SoundDuration":155412,"Delta":214721169},{"NoteNumber":70,"Velocity":78,"Duration":155412,"SoundDuration":155412,"Delta":214721169},{"NoteNumber":61,"Velocity":56,"Duration":155412,"SoundDuration":155412,"Delta":214721169},{"NoteNumber":55,"Velocity":46,"Duration":155412,"SoundDuration":155412,"Delta":214721169},{"NoteNumber":51,"Velocity":46,"Duration":155412,"SoundDuration":155412,"Delta":214721169},{"NoteNumber":68,"Velocity":74,"Duration":77706,"SoundDuration":77706,"Delta":214876582},{"NoteNumber":56,"Velocity":44,"Duration":77706,"SoundDuration":77706,"Delta":214876582},{"NoteNumber":60,"Velocity":52,"Duration":77706,"SoundDuration":77706,"Delta":214876582},{"NoteNumber":60,"Velocity":62,"Duration":79598,"SoundDuration":79598,"Delta":215033887},{"NoteNumber":66,"Velocity":74,"Duration":79598,"SoundDuration":79598,"Delta":215033887},{"NoteNumber":56,"Velocity":52,"Duration":79598,"SoundDuration":79598,"Delta":215033887},{"NoteNumber":44,"Velocity":44,"Duration":79598,"SoundDuration":79598,"Delta":215033887},{"NoteNumber":51,"Velocity":44,"Duration":79598,"SoundDuration":79598,"Delta":215033887},{"NoteNumber":60,"Velocity":64,"Duration":163988,"SoundDuration":163988,"Delta":215193084},{"NoteNumber":66,"Velocity":78,"Duration":163988,"SoundDuration":163988,"Delta":215193084},{"NoteNumber":56,"Velocity":56,"Duration":163988,"SoundDuration":163988,"Delta":215193084},{"NoteNumber":51,"Velocity":46,"Duration":163988,"SoundDuration":163988,"Delta":215193084},{"NoteNumber":44,"Velocity":46,"Duration":163988,"SoundDuration":163988,"Delta":215193084},{"NoteNumber":65,"Velocity":67,"Duration":81994,"SoundDuration":81994,"Delta":215357073},{"NoteNumber":61,"Velocity":56,"Duration":81994,"SoundDuration":81994,"Delta":215357073},{"NoteNumber":49,"Velocity":39,"Duration":81994,"SoundDuration":81994,"Delta":215357073},{"NoteNumber":56,"Velocity":47,"Duration":81994,"SoundDuration":81994,"Delta":215357073},{"NoteNumber":69,"Velocity":59,"Duration":78462,"SoundDuration":78462,"Delta":215521061},{"NoteNumber":64,"Velocity":49,"Duration":78462,"SoundDuration":78462,"Delta":215521061},{"NoteNumber":55,"Velocity":36,"Duration":78462,"SoundDuration":78462,"Delta":215521061},{"NoteNumber":61,"Velocity":41,"Duration":78462,"SoundDuration":78462,"Delta":215521061},{"NoteNumber":69,"Velocity":62,"Duration":156164,"SoundDuration":156164,"Delta":215677985},{"NoteNumber":64,"Velocity":51,"Duration":156164,"SoundDuration":156164,"Delta":215677985},{"NoteNumber":55,"Velocity":37,"Duration":156164,"SoundDuration":156164,"Delta":215677985},{"NoteNumber":61,"Velocity":44,"Duration":156164,"SoundDuration":156164,"Delta":215677985},{"NoteNumber":63,"Velocity":49,"Duration":78082,"SoundDuration":78082,"Delta":215834150},{"NoteNumber":68,"Velocity":58,"Duration":78082,"SoundDuration":78082,"Delta":215834150},{"NoteNumber":56,"Velocity":34,"Duration":78082,"SoundDuration":78082,"Delta":215834150},{"NoteNumber":60,"Velocity":41,"Duration":78082,"SoundDuration":78082,"Delta":215834150},{"NoteNumber":72,"Velocity":44,"Duration":78082,"SoundDuration":78082,"Delta":215990315},{"NoteNumber":78,"Velocity":52,"Duration":78082,"SoundDuration":78082,"Delta":215990315},{"NoteNumber":63,"Velocity":29,"Duration":78082,"SoundDuration":78082,"Delta":215990315},{"NoteNumber":68,"Velocity":36,"Duration":78082,"SoundDuration":78082,"Delta":215990315},{"NoteNumber":56,"Velocity":29,"Duration":78082,"SoundDuration":78082,"Delta":215990315},{"NoteNumber":72,"Velocity":46,"Duration":156164,"SoundDuration":156164,"Delta":216146479},{"NoteNumber":78,"Velocity":55,"Duration":156164,"SoundDuration":156164,"Delta":216146479},{"NoteNumber":68,"Velocity":39,"Duration":156164,"SoundDuration":156164,"Delta":216146479},{"NoteNumber":63,"Velocity":33,"Duration":156164,"SoundDuration":156164,"Delta":216146479},{"NoteNumber":56,"Velocity":33,"Duration":156164,"SoundDuration":156164,"Delta":216146479},{"NoteNumber":73,"Velocity":44,"Duration":78082,"SoundDuration":78082,"Delta":216302644},{"NoteNumber":77,"Velocity":52,"Duration":78082,"SoundDuration":78082,"Delta":216302644},{"NoteNumber":61,"Velocity":29,"Duration":78082,"SoundDuration":78082,"Delta":216302644},{"NoteNumber":68,"Velocity":36,"Duration":78082,"SoundDuration":78082,"Delta":216302644},{"NoteNumber":76,"Velocity":44,"Duration":78082,"SoundDuration":78082,"Delta":216458809},{"NoteNumber":81,"Velocity":52,"Duration":78082,"SoundDuration":78082,"Delta":216458809},{"NoteNumber":67,"Velocity":36,"Duration":78082,"SoundDuration":78082,"Delta":216458809},{"NoteNumber":73,"Velocity":36,"Duration":78082,"SoundDuration":78082,"Delta":216458809},{"NoteNumber":81,"Velocity":55,"Duration":156164,"SoundDuration":156164,"Delta":216614973},{"NoteNumber":76,"Velocity":46,"Duration":156164,"SoundDuration":156164,"Delta":216614973},{"NoteNumber":67,"Velocity":39,"Duration":156164,"SoundDuration":156164,"Delta":216614973},{"NoteNumber":73,"Velocity":39,"Duration":156164,"SoundDuration":156164,"Delta":216614973},{"NoteNumber":75,"Velocity":41,"Duration":78082,"SoundDuration":78082,"Delta":216771138},{"NoteNumber":80,"Velocity":51,"Duration":78082,"SoundDuration":78082,"Delta":216771138},{"NoteNumber":72,"Velocity":36,"Duration":78082,"SoundDuration":78082,"Delta":216771138},{"NoteNumber":68,"Velocity":29,"Duration":78082,"SoundDuration":78082,"Delta":216771138},{"NoteNumber":84,"Velocity":39,"Duration":78082,"SoundDuration":78082,"Delta":216927303},{"NoteNumber":90,"Velocity":46,"Duration":78082,"SoundDuration":78082,"Delta":216927303},{"NoteNumber":68,"Velocity":26,"Duration":78082,"SoundDuration":78082,"Delta":216927303},{"NoteNumber":75,"Velocity":26,"Duration":78082,"SoundDuration":78082,"Delta":216927303},{"NoteNumber":80,"Velocity":31,"Duration":78082,"SoundDuration":78082,"Delta":216927303},{"NoteNumber":84,"Velocity":40,"Duration":156164,"SoundDuration":156164,"Delta":217083467},{"NoteNumber":90,"Velocity":49,"Duration":156164,"SoundDuration":156164,"Delta":217083467},{"NoteNumber":80,"Velocity":35,"Duration":156164,"SoundDuration":156164,"Delta":217083467},{"NoteNumber":75,"Velocity":29,"Duration":156164,"SoundDuration":156164,"Delta":217083467},{"NoteNumber":68,"Velocity":29,"Duration":156164,"SoundDuration":156164,"Delta":217083467},{"NoteNumber":85,"Velocity":39,"Duration":78082,"SoundDuration":78082,"Delta":217239632},{"NoteNumber":89,"Velocity":46,"Duration":78082,"SoundDuration":78082,"Delta":217239632},{"NoteNumber":73,"Velocity":26,"Duration":78082,"SoundDuration":78082,"Delta":217239632},{"NoteNumber":80,"Velocity":31,"Duration":78082,"SoundDuration":78082,"Delta":217239632},{"NoteNumber":81,"Velocity":55,"Duration":78082,"SoundDuration":78082,"Delta":217395797},{"NoteNumber":76,"Velocity":47,"Duration":78082,"SoundDuration":78082,"Delta":217395797},{"NoteNumber":73,"Velocity":39,"Duration":78082,"SoundDuration":78082,"Delta":217395797},{"NoteNumber":67,"Velocity":33,"Duration":78082,"SoundDuration":78082,"Delta":217395797},{"NoteNumber":76,"Velocity":49,"Duration":156164,"SoundDuration":156164,"Delta":217551961},{"NoteNumber":81,"Velocity":59,"Duration":156164,"SoundDuration":156164,"Delta":217551961},{"NoteNumber":67,"Velocity":35,"Duration":156164,"SoundDuration":156164,"Delta":217551961},{"NoteNumber":73,"Velocity":41,"Duration":156164,"SoundDuration":156164,"Delta":217551961},{"NoteNumber":80,"Velocity":56,"Duration":78082,"SoundDuration":78082,"Delta":217708126},{"NoteNumber":75,"Velocity":45,"Duration":78082,"SoundDuration":78082,"Delta":217708126},{"NoteNumber":68,"Velocity":33,"Duration":78082,"SoundDuration":78082,"Delta":217708126},{"NoteNumber":72,"Velocity":39,"Duration":78082,"SoundDuration":78082,"Delta":217708126},{"NoteNumber":72,"Velocity":47,"Duration":79993,"SoundDuration":79993,"Delta":217866202},{"NoteNumber":78,"Velocity":56,"Duration":79993,"SoundDuration":79993,"Delta":217866202},{"NoteNumber":68,"Velocity":39,"Duration":79993,"SoundDuration":79993,"Delta":217866202},{"NoteNumber":63,"Velocity":33,"Duration":79993,"SoundDuration":79993,"Delta":217866202},{"NoteNumber":56,"Velocity":33,"Duration":79993,"SoundDuration":79993,"Delta":217866202},{"NoteNumber":72,"Velocity":49,"Duration":162351,"SoundDuration":162351,"Delta":218026189},{"NoteNumber":78,"Velocity":59,"Duration":162351,"SoundDuration":162351,"Delta":218026189},{"NoteNumber":63,"Velocity":35,"Duration":162351,"SoundDuration":162351,"Delta":218026189},{"NoteNumber":68,"Velocity":41,"Duration":162351,"SoundDuration":162351,"Delta":218026189},{"NoteNumber":56,"Velocity":35,"Duration":162351,"SoundDuration":162351,"Delta":218026189},{"NoteNumber":73,"Velocity":47,"Duration":81175,"SoundDuration":81175,"Delta":218188540},{"NoteNumber":77,"Velocity":55,"Duration":81175,"SoundDuration":81175,"Delta":218188540},{"NoteNumber":61,"Velocity":33,"Duration":81175,"SoundDuration":81175,"Delta":218188540},{"NoteNumber":68,"Velocity":39,"Duration":81175,"SoundDuration":81175,"Delta":218188540},{"NoteNumber":69,"Velocity":56,"Duration":78082,"SoundDuration":78082,"Delta":218350891},{"NoteNumber":64,"Velocity":47,"Duration":78082,"SoundDuration":78082,"Delta":218350891},{"NoteNumber":55,"Velocity":33,"Duration":78082,"SoundDuration":78082,"Delta":218350891},{"NoteNumber":61,"Velocity":39,"Duration":78082,"SoundDuration":78082,"Delta":218350891},{"NoteNumber":64,"Velocity":49,"Duration":161095,"SoundDuration":161095,"Delta":218507056},{"NoteNumber":69,"Velocity":59,"Duration":161095,"SoundDuration":161095,"Delta":218507056},{"NoteNumber":55,"Velocity":35,"Duration":161095,"SoundDuration":161095,"Delta":218507056},{"NoteNumber":61,"Velocity":41,"Duration":161095,"SoundDuration":161095,"Delta":218507056},{"NoteNumber":68,"Velocity":56,"Duration":80547,"SoundDuration":80547,"Delta":218668151},{"NoteNumber":63,"Velocity":45,"Duration":80547,"SoundDuration":80547,"Delta":218668151},{"NoteNumber":56,"Velocity":33,"Duration":80547,"SoundDuration":80547,"Delta":218668151},{"NoteNumber":60,"Velocity":39,"Duration":80547,"SoundDuration":80547,"Delta":218668151},{"NoteNumber":63,"Velocity":52,"Duration":84040,"SoundDuration":84040,"Delta":218832740},{"NoteNumber":60,"Velocity":52,"Duration":84040,"SoundDuration":84040,"Delta":218832740},{"NoteNumber":66,"Velocity":62,"Duration":84040,"SoundDuration":84040,"Delta":218832740},{"NoteNumber":44,"Velocity":41,"Duration":84040,"SoundDuration":84040,"Delta":218832740},{"NoteNumber":56,"Velocity":49,"Duration":84040,"SoundDuration":84040,"Delta":218832740},{"NoteNumber":63,"Velocity":49,"Duration":162351,"SoundDuration":162351,"Delta":219000821},{"NoteNumber":60,"Velocity":49,"Duration":162351,"SoundDuration":162351,"Delta":219000821},{"NoteNumber":66,"Velocity":59,"Duration":162351,"SoundDuration":162351,"Delta":219000821},{"NoteNumber":44,"Velocity":39,"Duration":162351,"SoundDuration":162351,"Delta":219000821},{"NoteNumber":56,"Velocity":47,"Duration":162351,"SoundDuration":162351,"Delta":219000821},{"NoteNumber":64,"Velocity":42,"Duration":81175,"SoundDuration":81175,"Delta":219163172},{"NoteNumber":60,"Velocity":41,"Duration":81175,"SoundDuration":81175,"Delta":219163172},{"NoteNumber":67,"Velocity":49,"Duration":81175,"SoundDuration":81175,"Delta":219163172},{"NoteNumber":43,"Velocity":33,"Duration":81175,"SoundDuration":81175,"Delta":219163172},{"NoteNumber":55,"Velocity":39,"Duration":81175,"SoundDuration":81175,"Delta":219163172},{"NoteNumber":62,"Velocity":49,"Duration":78486,"SoundDuration":78486,"Delta":219322834},{"NoteNumber":66,"Velocity":47,"Duration":78486,"SoundDuration":78486,"Delta":219322834},{"NoteNumber":72,"Velocity":56,"Duration":78486,"SoundDuration":78486,"Delta":219322834},{"NoteNumber":55,"Velocity":38,"Duration":78486,"SoundDuration":78486,"Delta":219322834},{"NoteNumber":57,"Velocity":45,"Duration":78486,"SoundDuration":78486,"Delta":219322834},{"NoteNumber":66,"Velocity":49,"Duration":159235,"SoundDuration":159235,"Delta":219479808},{"NoteNumber":72,"Velocity":59,"Duration":159235,"SoundDuration":159235,"Delta":219479808},{"NoteNumber":62,"Velocity":49,"Duration":159235,"SoundDuration":159235,"Delta":219479808},{"NoteNumber":57,"Velocity":47,"Duration":159235,"SoundDuration":159235,"Delta":219479808},{"NoteNumber":55,"Velocity":39,"Duration":159235,"SoundDuration":159235,"Delta":219479808},{"NoteNumber":62,"Velocity":42,"Duration":79617,"SoundDuration":79617,"Delta":219639044},{"NoteNumber":67,"Velocity":41,"Duration":79617,"SoundDuration":79617,"Delta":219639044},{"NoteNumber":71,"Velocity":48,"Duration":79617,"SoundDuration":79617,"Delta":219639044},{"NoteNumber":59,"Velocity":39,"Duration":79617,"SoundDuration":79617,"Delta":219639044},{"NoteNumber":55,"Velocity":31,"Duration":79617,"SoundDuration":79617,"Delta":219639044},{"NoteNumber":65,"Velocity":47,"Duration":77760,"SoundDuration":77760,"Delta":219796422},{"NoteNumber":67,"Velocity":47,"Duration":77760,"SoundDuration":77760,"Delta":219796422},{"NoteNumber":71,"Velocity":47,"Duration":77760,"SoundDuration":77760,"Delta":219796422},{"NoteNumber":77,"Velocity":56,"Duration":77760,"SoundDuration":77760,"Delta":219796422},{"NoteNumber":62,"Velocity":44,"Duration":77760,"SoundDuration":77760,"Delta":219796422},{"NoteNumber":55,"Velocity":36,"Duration":77760,"SoundDuration":77760,"Delta":219796422},{"NoteNumber":65,"Velocity":49,"Duration":155520,"SoundDuration":155520,"Delta":219951943},{"NoteNumber":67,"Velocity":49,"Duration":155520,"SoundDuration":155520,"Delta":219951943},{"NoteNumber":77,"Velocity":59,"Duration":155520,"SoundDuration":155520,"Delta":219951943},{"NoteNumber":71,"Velocity":49,"Duration":155520,"SoundDuration":155520,"Delta":219951943},{"NoteNumber":62,"Velocity":47,"Duration":155520,"SoundDuration":155520,"Delta":219951943},{"NoteNumber":55,"Velocity":39,"Duration":155520,"SoundDuration":155520,"Delta":219951943},{"NoteNumber":67,"Velocity":46,"Duration":77760,"SoundDuration":77760,"Delta":220107464},{"NoteNumber":72,"Velocity":44,"Duration":77760,"SoundDuration":77760,"Delta":220107464},{"NoteNumber":76,"Velocity":52,"Duration":77760,"SoundDuration":77760,"Delta":220107464},{"NoteNumber":55,"Velocity":34,"Duration":77760,"SoundDuration":77760,"Delta":220107464},{"NoteNumber":60,"Velocity":34,"Duration":77760,"SoundDuration":77760,"Delta":220107464},{"NoteNumber":64,"Velocity":41,"Duration":77760,"SoundDuration":77760,"Delta":220107464},{"NoteNumber":84,"Velocity":56,"Duration":77760,"SoundDuration":77760,"Delta":220262985},{"NoteNumber":74,"Velocity":49,"Duration":77760,"SoundDuration":77760,"Delta":220262985},{"NoteNumber":78,"Velocity":47,"Duration":77760,"SoundDuration":77760,"Delta":220262985},{"NoteNumber":72,"Velocity":49,"Duration":77760,"SoundDuration":77760,"Delta":220262985},{"NoteNumber":69,"Velocity":44,"Duration":77760,"SoundDuration":77760,"Delta":220262985},{"NoteNumber":55,"Velocity":44,"Duration":77760,"SoundDuration":77760,"Delta":220262985},{"NoteNumber":62,"Velocity":44,"Duration":77760,"SoundDuration":77760,"Delta":220262985},{"NoteNumber":72,"Velocity":49,"Duration":155520,"SoundDuration":155520,"Delta":220418506},{"NoteNumber":74,"Velocity":49,"Duration":155520,"SoundDuration":155520,"Delta":220418506},{"NoteNumber":78,"Velocity":49,"Duration":155520,"SoundDuration":155520,"Delta":220418506},{"NoteNumber":84,"Velocity":59,"Duration":155520,"SoundDuration":155520,"Delta":220418506},{"NoteNumber":69,"Velocity":47,"Duration":155520,"SoundDuration":155520,"Delta":220418506},{"NoteNumber":55,"Velocity":47,"Duration":155520,"SoundDuration":155520,"Delta":220418506},{"NoteNumber":62,"Velocity":47,"Duration":155520,"SoundDuration":155520,"Delta":220418506},{"NoteNumber":79,"Velocity":41,"Duration":77760,"SoundDuration":77760,"Delta":220574027},{"NoteNumber":83,"Velocity":51,"Duration":77760,"SoundDuration":77760,"Delta":220574027},{"NoteNumber":71,"Velocity":46,"Duration":77760,"SoundDuration":77760,"Delta":220574027},{"NoteNumber":62,"Velocity":34,"Duration":77760,"SoundDuration":77760,"Delta":220574027},{"NoteNumber":67,"Velocity":41,"Duration":77760,"SoundDuration":77760,"Delta":220574027},{"NoteNumber":55,"Velocity":44,"Duration":77760,"SoundDuration":77760,"Delta":220574027},{"NoteNumber":77,"Velocity":49,"Duration":79598,"SoundDuration":79598,"Delta":220731386},{"NoteNumber":79,"Velocity":49,"Duration":79598,"SoundDuration":79598,"Delta":220731386},{"NoteNumber":83,"Velocity":47,"Duration":79598,"SoundDuration":79598,"Delta":220731386},{"NoteNumber":89,"Velocity":55,"Duration":79598,"SoundDuration":79598,"Delta":220731386},{"NoteNumber":62,"Velocity":36,"Duration":79598,"SoundDuration":79598,"Delta":220731386},{"NoteNumber":55,"Velocity":47,"Duration":79598,"SoundDuration":79598,"Delta":220731386},{"NoteNumber":67,"Velocity":44,"Duration":79598,"SoundDuration":79598,"Delta":220731386},{"NoteNumber":77,"Velocity":49,"Duration":159197,"SoundDuration":159197,"Delta":220890584},{"NoteNumber":79,"Velocity":49,"Duration":159197,"SoundDuration":159197,"Delta":220890584},{"NoteNumber":83,"Velocity":49,"Duration":159197,"SoundDuration":159197,"Delta":220890584},{"NoteNumber":89,"Velocity":59,"Duration":159197,"SoundDuration":159197,"Delta":220890584},{"NoteNumber":55,"Velocity":39,"Duration":159197,"SoundDuration":159197,"Delta":220890584},{"NoteNumber":67,"Velocity":47,"Duration":159197,"SoundDuration":159197,"Delta":220890584},{"NoteNumber":62,"Velocity":39,"Duration":159197,"SoundDuration":159197,"Delta":220890584},{"NoteNumber":74,"Velocity":63,"Duration":159197,"SoundDuration":159197,"Delta":221049782},{"NoteNumber":70,"Velocity":45,"Duration":159197,"SoundDuration":159197,"Delta":221049782},{"NoteNumber":68,"Velocity":49,"Duration":159197,"SoundDuration":159197,"Delta":221049782},{"NoteNumber":62,"Velocity":34,"Duration":159197,"SoundDuration":159197,"Delta":221049782},{"NoteNumber":71,"Velocity":66,"Duration":158620,"SoundDuration":158620,"Delta":221208979},{"NoteNumber":80,"Velocity":80,"Duration":158620,"SoundDuration":158620,"Delta":221208979},{"NoteNumber":53,"Velocity":61,"Duration":158620,"SoundDuration":158620,"Delta":221208979},{"NoteNumber":73,"Velocity":68,"Duration":157301,"SoundDuration":157301,"Delta":221367600},{"NoteNumber":77,"Velocity":74,"Duration":157301,"SoundDuration":157301,"Delta":221367600},{"NoteNumber":65,"Velocity":56,"Duration":157301,"SoundDuration":157301,"Delta":221367600},{"NoteNumber":56,"Velocity":47,"Duration":157301,"SoundDuration":157301,"Delta":221367600},{"NoteNumber":74,"Velocity":71,"Duration":156175,"SoundDuration":156175,"Delta":221524902},{"NoteNumber":83,"Velocity":84,"Duration":156175,"SoundDuration":156175,"Delta":221524902},{"NoteNumber":50,"Velocity":62,"Duration":156175,"SoundDuration":156175,"Delta":221524902},{"NoteNumber":76,"Velocity":66,"Duration":155069,"SoundDuration":155069,"Delta":221681077},{"NoteNumber":80,"Velocity":79,"Duration":155069,"SoundDuration":155069,"Delta":221681077},{"NoteNumber":56,"Velocity":49,"Duration":155069,"SoundDuration":155069,"Delta":221681077},{"NoteNumber":62,"Velocity":59,"Duration":155069,"SoundDuration":155069,"Delta":221681077},{"NoteNumber":77,"Velocity":74,"Duration":153427,"SoundDuration":153427,"Delta":221836147},{"NoteNumber":86,"Velocity":89,"Duration":153427,"SoundDuration":153427,"Delta":221836147},{"NoteNumber":47,"Velocity":64,"Duration":153427,"SoundDuration":153427,"Delta":221836147},{"NoteNumber":83,"Velocity":85,"Duration":154701,"SoundDuration":154701,"Delta":221989575},{"NoteNumber":79,"Velocity":72,"Duration":154701,"SoundDuration":154701,"Delta":221989575},{"NoteNumber":53,"Velocity":50,"Duration":154701,"SoundDuration":154701,"Delta":221989575},{"NoteNumber":59,"Velocity":60,"Duration":154701,"SoundDuration":154701,"Delta":221989575},{"NoteNumber":89,"Velocity":92,"Duration":155985,"SoundDuration":155985,"Delta":222144276},{"NoteNumber":80,"Velocity":78,"Duration":155985,"SoundDuration":155985,"Delta":222144276},{"NoteNumber":44,"Velocity":69,"Duration":155985,"SoundDuration":155985,"Delta":222144276},{"NoteNumber":82,"Velocity":73,"Duration":157112,"SoundDuration":157112,"Delta":222300262},{"NoteNumber":86,"Velocity":86,"Duration":157112,"SoundDuration":157112,"Delta":222300262},{"NoteNumber":50,"Velocity":53,"Duration":157112,"SoundDuration":157112,"Delta":222300262},{"NoteNumber":56,"Velocity":64,"Duration":157112,"SoundDuration":157112,"Delta":222300262},{"NoteNumber":83,"Velocity":79,"Duration":165271,"SoundDuration":165271,"Delta":222457375},{"NoteNumber":92,"Velocity":94,"Duration":165271,"SoundDuration":165271,"Delta":222457375},{"NoteNumber":41,"Velocity":77,"Duration":165271,"SoundDuration":165271,"Delta":222457375},{"NoteNumber":83,"Velocity":77,"Duration":169047,"SoundDuration":169047,"Delta":222622646},{"NoteNumber":95,"Velocity":90,"Duration":169047,"SoundDuration":169047,"Delta":222622646},{"NoteNumber":29,"Velocity":69,"Duration":169047,"SoundDuration":169047,"Delta":222622646},{"NoteNumber":41,"Velocity":69,"Duration":169047,"SoundDuration":169047,"Delta":222622646},{"NoteNumber":84,"Velocity":85,"Duration":166389,"SoundDuration":166389,"Delta":222791694},{"NoteNumber":96,"Velocity":101,"Duration":166389,"SoundDuration":166389,"Delta":222791694},{"NoteNumber":40,"Velocity":42,"Duration":166389,"SoundDuration":166389,"Delta":222791694},{"NoteNumber":28,"Velocity":42,"Duration":166389,"SoundDuration":166389,"Delta":222791694},{"NoteNumber":60,"Velocity":64,"Duration":162812,"SoundDuration":162812,"Delta":222958083},{"NoteNumber":67,"Velocity":64,"Duration":162812,"SoundDuration":162812,"Delta":222958083},{"NoteNumber":72,"Velocity":77,"Duration":162812,"SoundDuration":162812,"Delta":222958083},{"NoteNumber":52,"Velocity":50,"Duration":162812,"SoundDuration":162812,"Delta":222958083},{"NoteNumber":40,"Velocity":36,"Duration":162812,"SoundDuration":162812,"Delta":222958083},{"NoteNumber":67,"Velocity":64,"Duration":161183,"SoundDuration":161183,"Delta":223120895},{"NoteNumber":60,"Velocity":64,"Duration":161183,"SoundDuration":161183,"Delta":223120895},{"NoteNumber":72,"Velocity":77,"Duration":161183,"SoundDuration":161183,"Delta":223120895},{"NoteNumber":52,"Velocity":48,"Duration":161183,"SoundDuration":161183,"Delta":223120895},{"NoteNumber":40,"Velocity":40,"Duration":161183,"SoundDuration":161183,"Delta":223120895},{"NoteNumber":60,"Velocity":55,"Duration":163131,"SoundDuration":163131,"Delta":223282079},{"NoteNumber":68,"Velocity":55,"Duration":163131,"SoundDuration":163131,"Delta":223282079},{"NoteNumber":72,"Velocity":77,"Duration":163131,"SoundDuration":163131,"Delta":223282079},{"NoteNumber":52,"Velocity":48,"Duration":163131,"SoundDuration":163131,"Delta":223282079},{"NoteNumber":40,"Velocity":40,"Duration":163131,"SoundDuration":163131,"Delta":223282079},{"NoteNumber":60,"Velocity":63,"Duration":158466,"SoundDuration":158466,"Delta":223445211},{"NoteNumber":68,"Velocity":63,"Duration":158466,"SoundDuration":158466,"Delta":223445211},{"NoteNumber":72,"Velocity":75,"Duration":158466,"SoundDuration":158466,"Delta":223445211},{"NoteNumber":40,"Velocity":40,"Duration":158466,"SoundDuration":158466,"Delta":223445211},{"NoteNumber":52,"Velocity":48,"Duration":158466,"SoundDuration":158466,"Delta":223445211},{"NoteNumber":60,"Velocity":63,"Duration":160758,"SoundDuration":160758,"Delta":223603677},{"NoteNumber":68,"Velocity":63,"Duration":160758,"SoundDuration":160758,"Delta":223603677},{"NoteNumber":72,"Velocity":75,"Duration":160758,"SoundDuration":160758,"Delta":223603677},{"NoteNumber":40,"Velocity":41,"Duration":160758,"SoundDuration":160758,"Delta":223603677},{"NoteNumber":52,"Velocity":49,"Duration":160758,"SoundDuration":160758,"Delta":223603677},{"NoteNumber":72,"Velocity":80,"Duration":162351,"SoundDuration":162351,"Delta":223764436},{"NoteNumber":60,"Velocity":57,"Duration":162351,"SoundDuration":162351,"Delta":223764436},{"NoteNumber":68,"Velocity":57,"Duration":162351,"SoundDuration":162351,"Delta":223764436},{"NoteNumber":40,"Velocity":38,"Duration":162351,"SoundDuration":162351,"Delta":223764436},{"NoteNumber":52,"Velocity":55,"Duration":162351,"SoundDuration":162351,"Delta":223764436},{"NoteNumber":60,"Velocity":64,"Duration":157728,"SoundDuration":157728,"Delta":223926787},{"NoteNumber":68,"Velocity":64,"Duration":157728,"SoundDuration":157728,"Delta":223926787},{"NoteNumber":72,"Velocity":77,"Duration":157728,"SoundDuration":157728,"Delta":223926787},{"NoteNumber":39,"Velocity":44,"Duration":157728,"SoundDuration":157728,"Delta":223926787},{"NoteNumber":51,"Velocity":52,"Duration":157728,"SoundDuration":157728,"Delta":223926787},{"NoteNumber":60,"Velocity":64,"Duration":160758,"SoundDuration":160758,"Delta":224084516},{"NoteNumber":68,"Velocity":64,"Duration":160758,"SoundDuration":160758,"Delta":224084516},{"NoteNumber":72,"Velocity":77,"Duration":160758,"SoundDuration":160758,"Delta":224084516},{"NoteNumber":39,"Velocity":44,"Duration":160758,"SoundDuration":160758,"Delta":224084516},{"NoteNumber":51,"Velocity":52,"Duration":160758,"SoundDuration":160758,"Delta":224084516},{"NoteNumber":60,"Velocity":68,"Duration":159235,"SoundDuration":159235,"Delta":224245274},{"NoteNumber":68,"Velocity":68,"Duration":159235,"SoundDuration":159235,"Delta":224245274},{"NoteNumber":72,"Velocity":81,"Duration":159235,"SoundDuration":159235,"Delta":224245274},{"NoteNumber":39,"Velocity":47,"Duration":159235,"SoundDuration":159235,"Delta":224245274},{"NoteNumber":51,"Velocity":56,"Duration":159235,"SoundDuration":159235,"Delta":224245274},{"NoteNumber":72,"Velocity":79,"Duration":152660,"SoundDuration":152660,"Delta":224404510},{"NoteNumber":60,"Velocity":67,"Duration":152660,"SoundDuration":152660,"Delta":224404510},{"NoteNumber":68,"Velocity":67,"Duration":152660,"SoundDuration":152660,"Delta":224404510},{"NoteNumber":40,"Velocity":44,"Duration":152660,"SoundDuration":152660,"Delta":224404510},{"NoteNumber":52,"Velocity":52,"Duration":152660,"SoundDuration":152660,"Delta":224404510},{"NoteNumber":60,"Velocity":67,"Duration":157242,"SoundDuration":157242,"Delta":224557170},{"NoteNumber":68,"Velocity":67,"Duration":157242,"SoundDuration":157242,"Delta":224557170},{"NoteNumber":72,"Velocity":79,"Duration":157242,"SoundDuration":157242,"Delta":224557170},{"NoteNumber":52,"Velocity":52,"Duration":157242,"SoundDuration":157242,"Delta":224557170},{"NoteNumber":40,"Velocity":44,"Duration":157242,"SoundDuration":157242,"Delta":224557170},{"NoteNumber":60,"Velocity":67,"Duration":81967,"SoundDuration":81967,"Delta":224714412},{"NoteNumber":68,"Velocity":67,"Duration":81967,"SoundDuration":81967,"Delta":224714412},{"NoteNumber":72,"Velocity":80,"Duration":81967,"SoundDuration":81967,"Delta":224714412},{"NoteNumber":40,"Velocity":46,"Duration":81967,"SoundDuration":81967,"Delta":224714412},{"NoteNumber":52,"Velocity":56,"Duration":81967,"SoundDuration":81967,"Delta":224714412},{"NoteNumber":60,"Velocity":68,"Duration":77393,"SoundDuration":77393,"Delta":224876060},{"NoteNumber":69,"Velocity":68,"Duration":77393,"SoundDuration":77393,"Delta":224876060},{"NoteNumber":72,"Velocity":81,"Duration":77393,"SoundDuration":77393,"Delta":224876060},{"NoteNumber":40,"Velocity":47,"Duration":77393,"SoundDuration":77393,"Delta":224876060},{"NoteNumber":52,"Velocity":57,"Duration":77393,"SoundDuration":77393,"Delta":224876060},{"NoteNumber":60,"Velocity":69,"Duration":80379,"SoundDuration":80379,"Delta":225030847},{"NoteNumber":69,"Velocity":69,"Duration":80379,"SoundDuration":80379,"Delta":225030847},{"NoteNumber":72,"Velocity":82,"Duration":80379,"SoundDuration":80379,"Delta":225030847},{"NoteNumber":40,"Velocity":48,"Duration":80379,"SoundDuration":80379,"Delta":225030847},{"NoteNumber":52,"Velocity":58,"Duration":80379,"SoundDuration":80379,"Delta":225030847},{"NoteNumber":69,"Velocity":71,"Duration":78118,"SoundDuration":78118,"Delta":225191605},{"NoteNumber":60,"Velocity":71,"Duration":78118,"SoundDuration":78118,"Delta":225191605},{"NoteNumber":72,"Velocity":83,"Duration":78118,"SoundDuration":78118,"Delta":225191605},{"NoteNumber":40,"Velocity":49,"Duration":78118,"SoundDuration":78118,"Delta":225191605},{"NoteNumber":52,"Velocity":58,"Duration":78118,"SoundDuration":78118,"Delta":225191605},{"NoteNumber":61,"Velocity":71,"Duration":75976,"SoundDuration":75976,"Delta":225347843},{"NoteNumber":69,"Velocity":71,"Duration":75976,"SoundDuration":75976,"Delta":225347843},{"NoteNumber":73,"Velocity":84,"Duration":75976,"SoundDuration":75976,"Delta":225347843},{"NoteNumber":40,"Velocity":50,"Duration":75976,"SoundDuration":75976,"Delta":225347843},{"NoteNumber":52,"Velocity":59,"Duration":75976,"SoundDuration":75976,"Delta":225347843},{"NoteNumber":61,"Velocity":71,"Duration":80000,"SoundDuration":80000,"Delta":225499796},{"NoteNumber":69,"Velocity":71,"Duration":80000,"SoundDuration":80000,"Delta":225499796},{"NoteNumber":73,"Velocity":85,"Duration":80000,"SoundDuration":80000,"Delta":225499796},{"NoteNumber":52,"Velocity":61,"Duration":80000,"SoundDuration":80000,"Delta":225499796},{"NoteNumber":40,"Velocity":51,"Duration":80000,"SoundDuration":80000,"Delta":225499796},{"NoteNumber":61,"Velocity":72,"Duration":81175,"SoundDuration":81175,"Delta":225659796},{"NoteNumber":69,"Velocity":72,"Duration":81175,"SoundDuration":81175,"Delta":225659796},{"NoteNumber":73,"Velocity":86,"Duration":81175,"SoundDuration":81175,"Delta":225659796},{"NoteNumber":40,"Velocity":52,"Duration":81175,"SoundDuration":81175,"Delta":225659796},{"NoteNumber":52,"Velocity":62,"Duration":81175,"SoundDuration":81175,"Delta":225659796},{"NoteNumber":73,"Velocity":88,"Duration":76681,"SoundDuration":76681,"Delta":225822147},{"NoteNumber":61,"Velocity":73,"Duration":76681,"SoundDuration":76681,"Delta":225822147},{"NoteNumber":69,"Velocity":73,"Duration":76681,"SoundDuration":76681,"Delta":225822147},{"NoteNumber":39,"Velocity":52,"Duration":76681,"SoundDuration":76681,"Delta":225822147},{"NoteNumber":51,"Velocity":62,"Duration":76681,"SoundDuration":76681,"Delta":225822147},{"NoteNumber":69,"Velocity":75,"Duration":79232,"SoundDuration":79232,"Delta":225975509},{"NoteNumber":73,"Velocity":90,"Duration":79232,"SoundDuration":79232,"Delta":225975509},{"NoteNumber":61,"Velocity":75,"Duration":79232,"SoundDuration":79232,"Delta":225975509},{"NoteNumber":39,"Velocity":53,"Duration":79232,"SoundDuration":79232,"Delta":225975509},{"NoteNumber":51,"Velocity":63,"Duration":79232,"SoundDuration":79232,"Delta":225975509},{"NoteNumber":61,"Velocity":77,"Duration":79232,"SoundDuration":79232,"Delta":226133975},{"NoteNumber":73,"Velocity":91,"Duration":79232,"SoundDuration":79232,"Delta":226133975},{"NoteNumber":69,"Velocity":77,"Duration":79232,"SoundDuration":79232,"Delta":226133975},{"NoteNumber":51,"Velocity":64,"Duration":79232,"SoundDuration":79232,"Delta":226133975},{"NoteNumber":39,"Velocity":53,"Duration":79232,"SoundDuration":79232,"Delta":226133975},{"NoteNumber":61,"Velocity":78,"Duration":75379,"SoundDuration":75379,"Delta":226292441},{"NoteNumber":73,"Velocity":92,"Duration":75379,"SoundDuration":75379,"Delta":226292441},{"NoteNumber":68,"Velocity":78,"Duration":75379,"SoundDuration":75379,"Delta":226292441},{"NoteNumber":52,"Velocity":66,"Duration":75379,"SoundDuration":75379,"Delta":226292441},{"NoteNumber":40,"Velocity":55,"Duration":75379,"SoundDuration":75379,"Delta":226292441},{"NoteNumber":61,"Velocity":79,"Duration":76241,"SoundDuration":76241,"Delta":226443624},{"NoteNumber":67,"Velocity":79,"Duration":76241,"SoundDuration":76241,"Delta":226443624},{"NoteNumber":73,"Velocity":93,"Duration":76241,"SoundDuration":76241,"Delta":226443624},{"NoteNumber":52,"Velocity":67,"Duration":76241,"SoundDuration":76241,"Delta":226443624},{"NoteNumber":40,"Velocity":56,"Duration":76241,"SoundDuration":76241,"Delta":226443624},{"NoteNumber":61,"Velocity":73,"Duration":90629,"SoundDuration":90629,"Delta":226596634},{"NoteNumber":73,"Velocity":102,"Duration":90629,"SoundDuration":90629,"Delta":226596634},{"NoteNumber":68,"Velocity":86,"Duration":90629,"SoundDuration":90629,"Delta":226596634},{"NoteNumber":53,"Velocity":74,"Duration":90629,"SoundDuration":90629,"Delta":226596634},{"NoteNumber":41,"Velocity":52,"Duration":90629,"SoundDuration":90629,"Delta":226596634},{"NoteNumber":65,"Velocity":68,"Duration":161290,"SoundDuration":161290,"Delta":226772900},{"NoteNumber":68,"Velocity":80,"Duration":161290,"SoundDuration":161290,"Delta":226772900},{"NoteNumber":77,"Velocity":95,"Duration":161290,"SoundDuration":161290,"Delta":226772900},{"NoteNumber":56,"Velocity":50,"Duration":161290,"SoundDuration":161290,"Delta":226772900},{"NoteNumber":49,"Velocity":50,"Duration":161290,"SoundDuration":161290,"Delta":226772900},{"NoteNumber":61,"Velocity":71,"Duration":161290,"SoundDuration":161290,"Delta":226772900},{"NoteNumber":65,"Velocity":68,"Duration":167000,"SoundDuration":167000,"Delta":226934191},{"NoteNumber":68,"Velocity":80,"Duration":167000,"SoundDuration":167000,"Delta":226934191},{"NoteNumber":77,"Velocity":95,"Duration":167000,"SoundDuration":167000,"Delta":226934191},{"NoteNumber":56,"Velocity":51,"Duration":167000,"SoundDuration":167000,"Delta":226934191},{"NoteNumber":49,"Velocity":51,"Duration":167000,"SoundDuration":167000,"Delta":226934191},{"NoteNumber":61,"Velocity":72,"Duration":167000,"SoundDuration":167000,"Delta":226934191},{"NoteNumber":65,"Velocity":72,"Duration":162232,"SoundDuration":162232,"Delta":227101191},{"NoteNumber":68,"Velocity":85,"Duration":162232,"SoundDuration":162232,"Delta":227101191},{"NoteNumber":77,"Velocity":101,"Duration":162232,"SoundDuration":162232,"Delta":227101191},{"NoteNumber":49,"Velocity":53,"Duration":162232,"SoundDuration":162232,"Delta":227101191},{"NoteNumber":56,"Velocity":53,"Duration":162232,"SoundDuration":162232,"Delta":227101191},{"NoteNumber":61,"Velocity":75,"Duration":162232,"SoundDuration":162232,"Delta":227101191},{"NoteNumber":63,"Velocity":68,"Duration":163016,"SoundDuration":163016,"Delta":227263424},{"NoteNumber":75,"Velocity":95,"Duration":163016,"SoundDuration":163016,"Delta":227263424},{"NoteNumber":73,"Velocity":95,"Duration":163800,"SoundDuration":163800,"Delta":227426440},{"NoteNumber":61,"Velocity":68,"Duration":163800,"SoundDuration":163800,"Delta":227426440},{"NoteNumber":30,"Velocity":68,"Duration":170036,"SoundDuration":170036,"Delta":227590240},{"NoteNumber":42,"Velocity":96,"Duration":170036,"SoundDuration":170036,"Delta":227590240},{"NoteNumber":65,"Velocity":68,"Duration":162008,"SoundDuration":162008,"Delta":227760276},{"NoteNumber":70,"Velocity":80,"Duration":162008,"SoundDuration":162008,"Delta":227760276},{"NoteNumber":77,"Velocity":95,"Duration":162008,"SoundDuration":162008,"Delta":227760276},{"NoteNumber":49,"Velocity":50,"Duration":162008,"SoundDuration":162008,"Delta":227760276},{"NoteNumber":54,"Velocity":50,"Duration":162008,"SoundDuration":162008,"Delta":227760276},{"NoteNumber":61,"Velocity":71,"Duration":162008,"SoundDuration":162008,"Delta":227760276},{"NoteNumber":65,"Velocity":68,"Duration":167009,"SoundDuration":167009,"Delta":227922285},{"NoteNumber":70,"Velocity":80,"Duration":167009,"SoundDuration":167009,"Delta":227922285},{"NoteNumber":77,"Velocity":95,"Duration":167009,"SoundDuration":167009,"Delta":227922285},{"NoteNumber":54,"Velocity":51,"Duration":167009,"SoundDuration":167009,"Delta":227922285},{"NoteNumber":49,"Velocity":51,"Duration":167009,"SoundDuration":167009,"Delta":227922285},{"NoteNumber":61,"Velocity":72,"Duration":167009,"SoundDuration":167009,"Delta":227922285},{"NoteNumber":65,"Velocity":72,"Duration":163800,"SoundDuration":163800,"Delta":228089294},{"NoteNumber":70,"Velocity":85,"Duration":163800,"SoundDuration":163800,"Delta":228089294},{"NoteNumber":77,"Velocity":101,"Duration":163800,"SoundDuration":163800,"Delta":228089294},{"NoteNumber":49,"Velocity":53,"Duration":163800,"SoundDuration":163800,"Delta":228089294},{"NoteNumber":54,"Velocity":53,"Duration":163800,"SoundDuration":163800,"Delta":228089294},{"NoteNumber":61,"Velocity":75,"Duration":163800,"SoundDuration":163800,"Delta":228089294},{"NoteNumber":63,"Velocity":68,"Duration":166645,"SoundDuration":166645,"Delta":228253094},{"NoteNumber":75,"Velocity":95,"Duration":166645,"SoundDuration":166645,"Delta":228253094},{"NoteNumber":73,"Velocity":95,"Duration":169491,"SoundDuration":169491,"Delta":228419740},{"NoteNumber":61,"Velocity":68,"Duration":169491,"SoundDuration":169491,"Delta":228419740},{"NoteNumber":32,"Velocity":68,"Duration":175964,"SoundDuration":175964,"Delta":228589232},{"NoteNumber":44,"Velocity":96,"Duration":175964,"SoundDuration":175964,"Delta":228589232},{"NoteNumber":65,"Velocity":68,"Duration":162734,"SoundDuration":162734,"Delta":228765197},{"NoteNumber":68,"Velocity":80,"Duration":162734,"SoundDuration":162734,"Delta":228765197},{"NoteNumber":77,"Velocity":95,"Duration":162734,"SoundDuration":162734,"Delta":228765197},{"NoteNumber":56,"Velocity":50,"Duration":162734,"SoundDuration":162734,"Delta":228765197},{"NoteNumber":61,"Velocity":71,"Duration":162734,"SoundDuration":162734,"Delta":228765197},{"NoteNumber":49,"Velocity":50,"Duration":162734,"SoundDuration":162734,"Delta":228765197},{"NoteNumber":65,"Velocity":68,"Duration":167802,"SoundDuration":167802,"Delta":228927931},{"NoteNumber":68,"Velocity":80,"Duration":167802,"SoundDuration":167802,"Delta":228927931},{"NoteNumber":77,"Velocity":95,"Duration":167802,"SoundDuration":167802,"Delta":228927931},{"NoteNumber":61,"Velocity":72,"Duration":167802,"SoundDuration":167802,"Delta":228927931},{"NoteNumber":49,"Velocity":51,"Duration":167802,"SoundDuration":167802,"Delta":228927931},{"NoteNumber":56,"Velocity":51,"Duration":167802,"SoundDuration":167802,"Delta":228927931},{"NoteNumber":65,"Velocity":72,"Duration":163012,"SoundDuration":163012,"Delta":229095733},{"NoteNumber":68,"Velocity":85,"Duration":163012,"SoundDuration":163012,"Delta":229095733},{"NoteNumber":77,"Velocity":101,"Duration":163012,"SoundDuration":163012,"Delta":229095733},{"NoteNumber":61,"Velocity":75,"Duration":163012,"SoundDuration":163012,"Delta":229095733},{"NoteNumber":56,"Velocity":53,"Duration":163012,"SoundDuration":163012,"Delta":229095733},{"NoteNumber":49,"Velocity":53,"Duration":163012,"SoundDuration":163012,"Delta":229095733},{"NoteNumber":63,"Velocity":68,"Duration":163012,"SoundDuration":163012,"Delta":229258746},{"NoteNumber":75,"Velocity":95,"Duration":163012,"SoundDuration":163012,"Delta":229258746},{"NoteNumber":73,"Velocity":95,"Duration":163012,"SoundDuration":163012,"Delta":229421758},{"NoteNumber":61,"Velocity":68,"Duration":163012,"SoundDuration":163012,"Delta":229421758},{"NoteNumber":34,"Velocity":68,"Duration":179399,"SoundDuration":179399,"Delta":229584770},{"NoteNumber":46,"Velocity":96,"Duration":179399,"SoundDuration":179399,"Delta":229584770},{"NoteNumber":65,"Velocity":68,"Duration":173333,"SoundDuration":173333,"Delta":229764170},{"NoteNumber":67,"Velocity":80,"Duration":173333,"SoundDuration":173333,"Delta":229764170},{"NoteNumber":77,"Velocity":95,"Duration":173333,"SoundDuration":173333,"Delta":229764170},{"NoteNumber":58,"Velocity":50,"Duration":173333,"SoundDuration":173333,"Delta":229764170},{"NoteNumber":51,"Velocity":50,"Duration":173333,"SoundDuration":173333,"Delta":229764170},{"NoteNumber":61,"Velocity":71,"Duration":173333,"SoundDuration":173333,"Delta":229764170},{"NoteNumber":65,"Velocity":68,"Duration":177534,"SoundDuration":177534,"Delta":229937504},{"NoteNumber":67,"Velocity":80,"Duration":177534,"SoundDuration":177534,"Delta":229937504},{"NoteNumber":77,"Velocity":95,"Duration":177534,"SoundDuration":177534,"Delta":229937504},{"NoteNumber":61,"Velocity":72,"Duration":177534,"SoundDuration":177534,"Delta":229937504},{"NoteNumber":51,"Velocity":51,"Duration":177534,"SoundDuration":177534,"Delta":229937504},{"NoteNumber":58,"Velocity":51,"Duration":177534,"SoundDuration":177534,"Delta":229937504},{"NoteNumber":65,"Velocity":72,"Duration":181943,"SoundDuration":181943,"Delta":230115038},{"NoteNumber":67,"Velocity":85,"Duration":181943,"SoundDuration":181943,"Delta":230115038},{"NoteNumber":77,"Velocity":101,"Duration":181943,"SoundDuration":181943,"Delta":230115038},{"NoteNumber":61,"Velocity":75,"Duration":181943,"SoundDuration":181943,"Delta":230115038},{"NoteNumber":58,"Velocity":53,"Duration":181943,"SoundDuration":181943,"Delta":230115038},{"NoteNumber":51,"Velocity":53,"Duration":181943,"SoundDuration":181943,"Delta":230115038},{"NoteNumber":63,"Velocity":68,"Duration":189197,"SoundDuration":189197,"Delta":230296982},{"NoteNumber":75,"Velocity":95,"Duration":189197,"SoundDuration":189197,"Delta":230296982},{"NoteNumber":73,"Velocity":95,"Duration":191699,"SoundDuration":191699,"Delta":230486180},{"NoteNumber":61,"Velocity":68,"Duration":191699,"SoundDuration":191699,"Delta":230486180},{"NoteNumber":51,"Velocity":84,"Duration":2067715,"SoundDuration":2067715,"Delta":230677879},{"NoteNumber":55,"Velocity":84,"Duration":2067715,"SoundDuration":2067715,"Delta":230677879},{"NoteNumber":63,"Velocity":101,"Duration":2067715,"SoundDuration":2067715,"Delta":230677879},{"NoteNumber":61,"Velocity":95,"Duration":2067715,"SoundDuration":2067715,"Delta":230677879},{"NoteNumber":27,"Velocity":59,"Duration":2067715,"SoundDuration":2067715,"Delta":230677879},{"NoteNumber":39,"Velocity":70,"Duration":2067715,"SoundDuration":2067715,"Delta":230677879},{"NoteNumber":54,"Velocity":80,"Duration":2218231,"SoundDuration":2218231,"Delta":232745595},{"NoteNumber":65,"Velocity":95,"Duration":2130450,"SoundDuration":2130450,"Delta":232745595},{"NoteNumber":60,"Velocity":80,"Duration":2218231,"SoundDuration":2218231,"Delta":232745595},{"NoteNumber":32,"Velocity":56,"Duration":2218231,"SoundDuration":2218231,"Delta":232745595},{"NoteNumber":44,"Velocity":66,"Duration":2218231,"SoundDuration":2218231,"Delta":232745595},{"NoteNumber":66,"Velocity":86,"Duration":87780,"SoundDuration":87780,"Delta":234876046},{"NoteNumber":54,"Velocity":79,"Duration":1107762,"SoundDuration":1107762,"Delta":234963827},{"NoteNumber":61,"Velocity":79,"Duration":1107762,"SoundDuration":1107762,"Delta":234963827},{"NoteNumber":66,"Velocity":93,"Duration":1107762,"SoundDuration":1107762,"Delta":234963827},{"NoteNumber":45,"Velocity":66,"Duration":138248,"SoundDuration":138248,"Delta":234963827},{"NoteNumber":33,"Velocity":56,"Duration":138248,"SoundDuration":138248,"Delta":234963827},{"NoteNumber":42,"Velocity":60,"Duration":138248,"SoundDuration":138248,"Delta":235102075},{"NoteNumber":30,"Velocity":50,"Duration":138248,"SoundDuration":138248,"Delta":235102075},{"NoteNumber":32,"Velocity":56,"Duration":132158,"SoundDuration":132158,"Delta":235378573},{"NoteNumber":44,"Velocity":66,"Duration":132158,"SoundDuration":132158,"Delta":235378573},{"NoteNumber":33,"Velocity":52,"Duration":138248,"SoundDuration":138248,"Delta":235510731},{"NoteNumber":45,"Velocity":62,"Duration":138248,"SoundDuration":138248,"Delta":235510731},{"NoteNumber":30,"Velocity":52,"Duration":138248,"SoundDuration":138248,"Delta":235648980},{"NoteNumber":42,"Velocity":62,"Duration":138248,"SoundDuration":138248,"Delta":235648980},{"NoteNumber":33,"Velocity":37,"Duration":137614,"SoundDuration":137614,"Delta":236071589},{"NoteNumber":45,"Velocity":44,"Duration":137614,"SoundDuration":137614,"Delta":236071589},{"NoteNumber":30,"Velocity":33,"Duration":137614,"SoundDuration":137614,"Delta":236209204},{"NoteNumber":42,"Velocity":39,"Duration":137614,"SoundDuration":137614,"Delta":236209204},{"NoteNumber":32,"Velocity":37,"Duration":132743,"SoundDuration":132743,"Delta":236484433},{"NoteNumber":44,"Velocity":44,"Duration":132743,"SoundDuration":132743,"Delta":236484433},{"NoteNumber":33,"Velocity":33,"Duration":138248,"SoundDuration":138248,"Delta":236617176},{"NoteNumber":45,"Velocity":39,"Duration":138248,"SoundDuration":138248,"Delta":236617176},{"NoteNumber":30,"Velocity":33,"Duration":138248,"SoundDuration":138248,"Delta":236755425},{"NoteNumber":42,"Velocity":39,"Duration":138248,"SoundDuration":138248,"Delta":236755425},{"NoteNumber":33,"Velocity":37,"Duration":142179,"SoundDuration":142179,"Delta":237182135},{"NoteNumber":45,"Velocity":44,"Duration":142179,"SoundDuration":142179,"Delta":237182135},{"NoteNumber":30,"Velocity":34,"Duration":142179,"SoundDuration":142179,"Delta":237324315},{"NoteNumber":42,"Velocity":39,"Duration":142179,"SoundDuration":142179,"Delta":237324315},{"NoteNumber":32,"Velocity":37,"Duration":136363,"SoundDuration":136363,"Delta":237608675},{"NoteNumber":44,"Velocity":44,"Duration":136363,"SoundDuration":136363,"Delta":237608675},{"NoteNumber":33,"Velocity":34,"Duration":147783,"SoundDuration":147783,"Delta":237745039},{"NoteNumber":45,"Velocity":39,"Duration":147783,"SoundDuration":147783,"Delta":237745039},{"NoteNumber":42,"Velocity":34,"Duration":147783,"SoundDuration":147783,"Delta":237892822},{"NoteNumber":54,"Velocity":39,"Duration":147783,"SoundDuration":147783,"Delta":237892822},{"NoteNumber":60,"Velocity":31,"Duration":1135063,"SoundDuration":1135063,"Delta":238389443},{"NoteNumber":62,"Velocity":32,"Duration":1561602,"SoundDuration":1561602,"Delta":238389443},{"NoteNumber":69,"Velocity":47,"Duration":576922,"SoundDuration":576922,"Delta":238389443},{"NoteNumber":54,"Velocity":41,"Duration":576922,"SoundDuration":576922,"Delta":238389443},{"NoteNumber":70,"Velocity":44,"Duration":558140,"SoundDuration":558140,"Delta":238966366},{"NoteNumber":38,"Velocity":34,"Duration":558140,"SoundDuration":558140,"Delta":238966366},{"NoteNumber":59,"Velocity":39,"Duration":1129468,"SoundDuration":1129468,"Delta":239524506},{"NoteNumber":71,"Velocity":47,"Duration":426539,"SoundDuration":426539,"Delta":239524506},{"NoteNumber":43,"Velocity":30,"Duration":1129468,"SoundDuration":1129468,"Delta":239524506},{"NoteNumber":50,"Velocity":30,"Duration":1129468,"SoundDuration":1129468,"Delta":239524506},{"NoteNumber":55,"Velocity":37,"Duration":1129468,"SoundDuration":1129468,"Delta":239524506},{"NoteNumber":62,"Velocity":40,"Duration":142180,"SoundDuration":142180,"Delta":239951046},{"NoteNumber":62,"Velocity":44,"Duration":560747,"SoundDuration":560747,"Delta":240093226},{"NoteNumber":38,"Velocity":33,"Duration":420561,"SoundDuration":420561,"Delta":240653974},{"NoteNumber":50,"Velocity":39,"Duration":420561,"SoundDuration":420561,"Delta":240653974},{"NoteNumber":31,"Velocity":29,"Duration":140186,"SoundDuration":140186,"Delta":241074535},{"NoteNumber":43,"Velocity":35,"Duration":140186,"SoundDuration":140186,"Delta":241074535},{"NoteNumber":31,"Velocity":30,"Duration":560747,"SoundDuration":560747,"Delta":241214722},{"NoteNumber":43,"Velocity":37,"Duration":560747,"SoundDuration":560747,"Delta":241214722},{"NoteNumber":38,"Velocity":39,"Duration":138248,"SoundDuration":138248,"Delta":241775470},{"NoteNumber":31,"Velocity":36,"Duration":138248,"SoundDuration":138248,"Delta":241913718},{"NoteNumber":33,"Velocity":39,"Duration":132743,"SoundDuration":132743,"Delta":242190216},{"NoteNumber":35,"Velocity":36,"Duration":138248,"SoundDuration":138248,"Delta":242322959},{"NoteNumber":31,"Velocity":36,"Duration":138248,"SoundDuration":138248,"Delta":242461208},{"NoteNumber":50,"Velocity":41,"Duration":136986,"SoundDuration":136986,"Delta":242882476},{"NoteNumber":38,"Velocity":35,"Duration":136986,"SoundDuration":136986,"Delta":242882476},{"NoteNumber":43,"Velocity":39,"Duration":136986,"SoundDuration":136986,"Delta":243019462},{"NoteNumber":31,"Velocity":31,"Duration":136986,"SoundDuration":136986,"Delta":243019462},{"NoteNumber":45,"Velocity":42,"Duration":129870,"SoundDuration":129870,"Delta":243293434},{"NoteNumber":33,"Velocity":36,"Duration":129870,"SoundDuration":129870,"Delta":243293434},{"NoteNumber":47,"Velocity":39,"Duration":135746,"SoundDuration":135746,"Delta":243423305},{"NoteNumber":35,"Velocity":33,"Duration":135746,"SoundDuration":135746,"Delta":243423305},{"NoteNumber":43,"Velocity":39,"Duration":135746,"SoundDuration":135746,"Delta":243559051},{"NoteNumber":31,"Velocity":33,"Duration":135746,"SoundDuration":135746,"Delta":243559051},{"NoteNumber":50,"Velocity":46,"Duration":130434,"SoundDuration":130434,"Delta":243972576},{"NoteNumber":38,"Velocity":38,"Duration":130434,"SoundDuration":130434,"Delta":243972576},{"NoteNumber":44,"Velocity":42,"Duration":130434,"SoundDuration":130434,"Delta":244103010},{"NoteNumber":32,"Velocity":36,"Duration":130434,"SoundDuration":130434,"Delta":244103010},{"NoteNumber":45,"Velocity":47,"Duration":124481,"SoundDuration":124481,"Delta":244363880},{"NoteNumber":33,"Velocity":40,"Duration":124481,"SoundDuration":124481,"Delta":244363880},{"NoteNumber":47,"Velocity":42,"Duration":134529,"SoundDuration":134529,"Delta":244488361},{"NoteNumber":35,"Velocity":36,"Duration":134529,"SoundDuration":134529,"Delta":244488361},{"NoteNumber":44,"Velocity":45,"Duration":132976,"SoundDuration":132976,"Delta":244622890},{"NoteNumber":32,"Velocity":37,"Duration":132976,"SoundDuration":132976,"Delta":244622890},{"NoteNumber":50,"Velocity":58,"Duration":128023,"SoundDuration":128023,"Delta":245014491},{"NoteNumber":38,"Velocity":48,"Duration":128023,"SoundDuration":128023,"Delta":245014491},{"NoteNumber":44,"Velocity":53,"Duration":127298,"SoundDuration":127298,"Delta":245142514},{"NoteNumber":32,"Velocity":45,"Duration":127298,"SoundDuration":127298,"Delta":245142514},{"NoteNumber":45,"Velocity":60,"Duration":122448,"SoundDuration":122448,"Delta":245396395},{"NoteNumber":33,"Velocity":49,"Duration":122448,"SoundDuration":122448,"Delta":245396395},{"NoteNumber":47,"Velocity":53,"Duration":133928,"SoundDuration":133928,"Delta":245518844},{"NoteNumber":35,"Velocity":46,"Duration":133928,"SoundDuration":133928,"Delta":245518844},{"NoteNumber":44,"Velocity":56,"Duration":133928,"SoundDuration":133928,"Delta":245652773},{"NoteNumber":32,"Velocity":47,"Duration":133928,"SoundDuration":133928,"Delta":245652773},{"NoteNumber":50,"Velocity":63,"Duration":134529,"SoundDuration":134529,"Delta":246049859},{"NoteNumber":38,"Velocity":52,"Duration":134529,"SoundDuration":134529,"Delta":246049859},{"NoteNumber":47,"Velocity":58,"Duration":134529,"SoundDuration":134529,"Delta":246184388},{"NoteNumber":35,"Velocity":49,"Duration":134529,"SoundDuration":134529,"Delta":246184388},{"NoteNumber":49,"Velocity":67,"Duration":126582,"SoundDuration":126582,"Delta":246453447},{"NoteNumber":37,"Velocity":57,"Duration":126582,"SoundDuration":126582,"Delta":246453447},{"NoteNumber":50,"Velocity":60,"Duration":142857,"SoundDuration":142857,"Delta":246580029},{"NoteNumber":38,"Velocity":51,"Duration":142857,"SoundDuration":142857,"Delta":246580029},{"NoteNumber":59,"Velocity":62,"Duration":142857,"SoundDuration":142857,"Delta":246722886},{"NoteNumber":47,"Velocity":52,"Duration":142857,"SoundDuration":142857,"Delta":246722886},{"NoteNumber":62,"Velocity":41,"Duration":1111206,"SoundDuration":1111206,"Delta":247162773},{"NoteNumber":64,"Velocity":41,"Duration":1531767,"SoundDuration":1531767,"Delta":247162773},{"NoteNumber":71,"Velocity":49,"Duration":560747,"SoundDuration":560747,"Delta":247162773},{"NoteNumber":56,"Velocity":40,"Duration":560747,"SoundDuration":560747,"Delta":247162773},{"NoteNumber":72,"Velocity":47,"Duration":550458,"SoundDuration":550458,"Delta":247723521},{"NoteNumber":40,"Velocity":36,"Duration":550458,"SoundDuration":550458,"Delta":247723521},{"NoteNumber":61,"Velocity":41,"Duration":2218009,"SoundDuration":2218009,"Delta":248273980},{"NoteNumber":73,"Velocity":49,"Duration":420560,"SoundDuration":420560,"Delta":248273980},{"NoteNumber":45,"Velocity":33,"Duration":1121496,"SoundDuration":1121496,"Delta":248273980},{"NoteNumber":52,"Velocity":33,"Duration":560747,"SoundDuration":560747,"Delta":248273980},{"NoteNumber":57,"Velocity":39,"Duration":1121496,"SoundDuration":1121496,"Delta":248273980},{"NoteNumber":65,"Velocity":44,"Duration":140186,"SoundDuration":140186,"Delta":248694541},{"NoteNumber":65,"Velocity":47,"Duration":1657262,"SoundDuration":1657262,"Delta":248834728},{"NoteNumber":53,"Velocity":33,"Duration":1657262,"SoundDuration":1657262,"Delta":248834728},{"NoteNumber":33,"Velocity":33,"Duration":135135,"SoundDuration":135135,"Delta":249395476},{"NoteNumber":45,"Velocity":39,"Duration":135135,"SoundDuration":135135,"Delta":249395476},{"NoteNumber":29,"Velocity":29,"Duration":135135,"SoundDuration":135135,"Delta":249530611},{"NoteNumber":41,"Velocity":36,"Duration":135135,"SoundDuration":135135,"Delta":249530611},{"NoteNumber":31,"Velocity":33,"Duration":127118,"SoundDuration":127118,"Delta":249800882},{"NoteNumber":43,"Velocity":39,"Duration":127118,"SoundDuration":127118,"Delta":249800882},{"NoteNumber":33,"Velocity":29,"Duration":136363,"SoundDuration":136363,"Delta":249928001},{"NoteNumber":45,"Velocity":35,"Duration":136363,"SoundDuration":136363,"Delta":249928001},{"NoteNumber":29,"Velocity":29,"Duration":136363,"SoundDuration":136363,"Delta":250064364},{"NoteNumber":41,"Velocity":35,"Duration":136363,"SoundDuration":136363,"Delta":250064364},{"NoteNumber":65,"Velocity":40,"Duration":426539,"SoundDuration":426539,"Delta":250491990},{"NoteNumber":61,"Velocity":39,"Duration":1120984,"SoundDuration":1120984,"Delta":250491990},{"NoteNumber":73,"Velocity":56,"Duration":426539,"SoundDuration":426539,"Delta":250491990},{"NoteNumber":45,"Velocity":31,"Duration":1120984,"SoundDuration":1120984,"Delta":250491990},{"NoteNumber":53,"Velocity":38,"Duration":565428,"SoundDuration":565428,"Delta":250491990},{"NoteNumber":66,"Velocity":55,"Duration":138889,"SoundDuration":138889,"Delta":250918530},{"NoteNumber":66,"Velocity":58,"Duration":555555,"SoundDuration":555555,"Delta":251057419},{"NoteNumber":54,"Velocity":39,"Duration":555555,"SoundDuration":555555,"Delta":251057419},{"NoteNumber":66,"Velocity":51,"Duration":426539,"SoundDuration":426539,"Delta":251612975},{"NoteNumber":62,"Velocity":51,"Duration":1124214,"SoundDuration":1124214,"Delta":251612975},{"NoteNumber":74,"Velocity":61,"Duration":426539,"SoundDuration":426539,"Delta":251612975},{"NoteNumber":47,"Velocity":35,"Duration":1124214,"SoundDuration":1124214,"Delta":251612975},{"NoteNumber":54,"Velocity":41,"Duration":566074,"SoundDuration":566074,"Delta":251612975},{"NoteNumber":67,"Velocity":57,"Duration":139534,"SoundDuration":139534,"Delta":252039515},{"NoteNumber":67,"Velocity":60,"Duration":558140,"SoundDuration":558140,"Delta":252179050},{"NoteNumber":55,"Velocity":42,"Duration":558140,"SoundDuration":558140,"Delta":252179050},{"NoteNumber":65,"Velocity":58,"Duration":1113897,"SoundDuration":1113897,"Delta":252737190},{"NoteNumber":67,"Velocity":58,"Duration":1113897,"SoundDuration":1113897,"Delta":252737190},{"NoteNumber":75,"Velocity":75,"Duration":847693,"SoundDuration":847693,"Delta":252737190},{"NoteNumber":35,"Velocity":35,"Duration":139534,"SoundDuration":139534,"Delta":252737190},{"NoteNumber":47,"Velocity":41,"Duration":139534,"SoundDuration":139534,"Delta":252737190},{"NoteNumber":31,"Velocity":31,"Duration":139534,"SoundDuration":139534,"Delta":252876725},{"NoteNumber":43,"Velocity":38,"Duration":139534,"SoundDuration":139534,"Delta":252876725},{"NoteNumber":33,"Velocity":38,"Duration":127659,"SoundDuration":127659,"Delta":253155795},{"NoteNumber":45,"Velocity":46,"Duration":127659,"SoundDuration":127659,"Delta":253155795},{"NoteNumber":35,"Velocity":35,"Duration":144927,"SoundDuration":144927,"Delta":253283455},{"NoteNumber":47,"Velocity":41,"Duration":144927,"SoundDuration":144927,"Delta":253283455},{"NoteNumber":31,"Velocity":36,"Duration":144927,"SoundDuration":144927,"Delta":253428382},{"NoteNumber":43,"Velocity":42,"Duration":144927,"SoundDuration":144927,"Delta":253428382},{"NoteNumber":74,"Velocity":68,"Duration":277778,"SoundDuration":277778,"Delta":253573310},{"NoteNumber":63,"Velocity":54,"Duration":558281,"SoundDuration":558281,"Delta":253851088},{"NoteNumber":67,"Velocity":58,"Duration":558281,"SoundDuration":558281,"Delta":253851088},{"NoteNumber":74,"Velocity":73,"Duration":433847,"SoundDuration":433847,"Delta":253851088},{"NoteNumber":36,"Velocity":35,"Duration":140845,"SoundDuration":140845,"Delta":253851088},{"NoteNumber":48,"Velocity":41,"Duration":140845,"SoundDuration":140845,"Delta":253851088},{"NoteNumber":31,"Velocity":31,"Duration":140844,"SoundDuration":140844,"Delta":253991933},{"NoteNumber":43,"Velocity":38,"Duration":140844,"SoundDuration":140844,"Delta":253991933},{"NoteNumber":72,"Velocity":51,"Duration":558281,"SoundDuration":558281,"Delta":254273623},{"NoteNumber":36,"Velocity":38,"Duration":135746,"SoundDuration":135746,"Delta":254273623},{"NoteNumber":48,"Velocity":46,"Duration":135746,"SoundDuration":135746,"Delta":254273623},{"NoteNumber":65,"Velocity":44,"Duration":574050,"SoundDuration":574050,"Delta":254409369},{"NoteNumber":38,"Velocity":35,"Duration":140845,"SoundDuration":140845,"Delta":254409369},{"NoteNumber":50,"Velocity":41,"Duration":140845,"SoundDuration":140845,"Delta":254409369},{"NoteNumber":31,"Velocity":36,"Duration":140844,"SoundDuration":140844,"Delta":254550214},{"NoteNumber":43,"Velocity":42,"Duration":140844,"SoundDuration":140844,"Delta":254550214},{"NoteNumber":70,"Velocity":61,"Duration":151515,"SoundDuration":151515,"Delta":254831904},{"NoteNumber":60,"Velocity":50,"Duration":1137865,"SoundDuration":1137865,"Delta":254983419},{"NoteNumber":63,"Velocity":58,"Duration":1137865,"SoundDuration":1137865,"Delta":254983419},{"NoteNumber":70,"Velocity":68,"Duration":440226,"SoundDuration":440226,"Delta":254983419},{"NoteNumber":39,"Velocity":29,"Duration":140845,"SoundDuration":140845,"Delta":254983419},{"NoteNumber":51,"Velocity":35,"Duration":140845,"SoundDuration":140845,"Delta":254983419},{"NoteNumber":31,"Velocity":26,"Duration":140844,"SoundDuration":140844,"Delta":255124264},{"NoteNumber":43,"Velocity":31,"Duration":140844,"SoundDuration":140844,"Delta":255124264},{"NoteNumber":68,"Velocity":55,"Duration":146341,"SoundDuration":146341,"Delta":255411451},{"NoteNumber":38,"Velocity":29,"Duration":146341,"SoundDuration":146341,"Delta":255411451},{"NoteNumber":50,"Velocity":35,"Duration":146341,"SoundDuration":146341,"Delta":255411451},{"NoteNumber":68,"Velocity":61,"Duration":196759,"SoundDuration":196759,"Delta":255557792},{"NoteNumber":39,"Velocity":26,"Duration":138889,"SoundDuration":138889,"Delta":255557792},{"NoteNumber":51,"Velocity":30,"Duration":138889,"SoundDuration":138889,"Delta":255557792},{"NoteNumber":44,"Velocity":26,"Duration":138889,"SoundDuration":138889,"Delta":255696681},{"NoteNumber":56,"Velocity":30,"Duration":138889,"SoundDuration":138889,"Delta":255696681},{"NoteNumber":72,"Velocity":62,"Duration":199735,"SoundDuration":199735,"Delta":255742978},{"NoteNumber":70,"Velocity":61,"Duration":202495,"SoundDuration":202495,"Delta":255930809},{"NoteNumber":59,"Velocity":49,"Duration":1153845,"SoundDuration":1153845,"Delta":256121285},{"NoteNumber":68,"Velocity":64,"Duration":588942,"SoundDuration":588942,"Delta":256121285},{"NoteNumber":41,"Velocity":29,"Duration":144230,"SoundDuration":144230,"Delta":256121285},{"NoteNumber":53,"Velocity":35,"Duration":144230,"SoundDuration":144230,"Delta":256121285},{"NoteNumber":38,"Velocity":26,"Duration":144230,"SoundDuration":144230,"Delta":256265516},{"NoteNumber":50,"Velocity":31,"Duration":144230,"SoundDuration":144230,"Delta":256265516},{"NoteNumber":39,"Velocity":29,"Duration":144230,"SoundDuration":144230,"Delta":256553977},{"NoteNumber":51,"Velocity":35,"Duration":144230,"SoundDuration":144230,"Delta":256553977},{"NoteNumber":67,"Velocity":58,"Duration":288461,"SoundDuration":288461,"Delta":256698208},{"NoteNumber":41,"Velocity":26,"Duration":144230,"SoundDuration":144230,"Delta":256698208},{"NoteNumber":53,"Velocity":30,"Duration":144230,"SoundDuration":144230,"Delta":256698208},{"NoteNumber":50,"Velocity":26,"Duration":144230,"SoundDuration":144230,"Delta":256842439},{"NoteNumber":62,"Velocity":30,"Duration":144230,"SoundDuration":144230,"Delta":256842439},{"NoteNumber":67,"Velocity":67,"Duration":288461,"SoundDuration":288461,"Delta":256986669},{"NoteNumber":79,"Velocity":70,"Duration":288461,"SoundDuration":288461,"Delta":256986669},{"NoteNumber":58,"Velocity":55,"Duration":135746,"SoundDuration":135746,"Delta":257275131},{"NoteNumber":70,"Velocity":64,"Duration":135746,"SoundDuration":135746,"Delta":257275131},{"NoteNumber":40,"Velocity":42,"Duration":180995,"SoundDuration":180995,"Delta":257275131},{"NoteNumber":61,"Velocity":49,"Duration":135746,"SoundDuration":135746,"Delta":257410877},{"NoteNumber":69,"Velocity":58,"Duration":135746,"SoundDuration":135746,"Delta":257410877},{"NoteNumber":45,"Velocity":39,"Duration":369567,"SoundDuration":369567,"Delta":257456126},{"NoteNumber":55,"Velocity":39,"Duration":186046,"SoundDuration":186046,"Delta":257639647},{"NoteNumber":57,"Velocity":51,"Duration":139534,"SoundDuration":139534,"Delta":257686159},{"NoteNumber":67,"Velocity":61,"Duration":139534,"SoundDuration":139534,"Delta":257686159},{"NoteNumber":62,"Velocity":56,"Duration":136363,"SoundDuration":136363,"Delta":257825694},{"NoteNumber":66,"Velocity":67,"Duration":136363,"SoundDuration":136363,"Delta":257825694},{"NoteNumber":54,"Velocity":44,"Duration":181818,"SoundDuration":181818,"Delta":257825694},{"NoteNumber":57,"Velocity":51,"Duration":136363,"SoundDuration":136363,"Delta":257962058},{"NoteNumber":69,"Velocity":61,"Duration":136363,"SoundDuration":136363,"Delta":257962058},{"NoteNumber":45,"Velocity":40,"Duration":184367,"SoundDuration":184367,"Delta":258007512},{"NoteNumber":38,"Velocity":40,"Duration":186915,"SoundDuration":186915,"Delta":258191879},{"NoteNumber":60,"Velocity":52,"Duration":140186,"SoundDuration":140186,"Delta":258238608},{"NoteNumber":72,"Velocity":63,"Duration":140186,"SoundDuration":140186,"Delta":258238608},{"NoteNumber":60,"Velocity":57,"Duration":134529,"SoundDuration":134529,"Delta":258378795},{"NoteNumber":72,"Velocity":68,"Duration":134529,"SoundDuration":134529,"Delta":258378795},{"NoteNumber":41,"Velocity":44,"Duration":179372,"SoundDuration":179372,"Delta":258378795},{"NoteNumber":63,"Velocity":52,"Duration":134529,"SoundDuration":134529,"Delta":258513325},{"NoteNumber":71,"Velocity":63,"Duration":134529,"SoundDuration":134529,"Delta":258513325},{"NoteNumber":47,"Velocity":38,"Duration":366183,"SoundDuration":366183,"Delta":258558168},{"NoteNumber":57,"Velocity":39,"Duration":184331,"SoundDuration":184331,"Delta":258740020},{"NoteNumber":59,"Velocity":52,"Duration":138248,"SoundDuration":138248,"Delta":258786103},{"NoteNumber":69,"Velocity":62,"Duration":138248,"SoundDuration":138248,"Delta":258786103},{"NoteNumber":64,"Velocity":57,"Duration":134529,"SoundDuration":134529,"Delta":258924351},{"NoteNumber":68,"Velocity":68,"Duration":134529,"SoundDuration":134529,"Delta":258924351},{"NoteNumber":56,"Velocity":44,"Duration":179372,"SoundDuration":179372,"Delta":258924351},{"NoteNumber":59,"Velocity":52,"Duration":134529,"SoundDuration":134529,"Delta":259058881},{"NoteNumber":71,"Velocity":62,"Duration":134529,"SoundDuration":134529,"Delta":259058881},{"NoteNumber":47,"Velocity":39,"Duration":181852,"SoundDuration":181852,"Delta":259103724},{"NoteNumber":40,"Velocity":39,"Duration":184331,"SoundDuration":184331,"Delta":259285576},{"NoteNumber":62,"Velocity":53,"Duration":138248,"SoundDuration":138248,"Delta":259331659},{"NoteNumber":74,"Velocity":64,"Duration":138248,"SoundDuration":138248,"Delta":259331659},{"NoteNumber":62,"Velocity":59,"Duration":134529,"SoundDuration":134529,"Delta":259469907},{"NoteNumber":74,"Velocity":70,"Duration":134529,"SoundDuration":134529,"Delta":259469907},{"NoteNumber":43,"Velocity":46,"Duration":179372,"SoundDuration":179372,"Delta":259469907},{"NoteNumber":65,"Velocity":55,"Duration":134529,"SoundDuration":134529,"Delta":259604437},{"NoteNumber":73,"Velocity":64,"Duration":134529,"SoundDuration":134529,"Delta":259604437},{"NoteNumber":49,"Velocity":40,"Duration":181852,"SoundDuration":181852,"Delta":259649280},{"NoteNumber":59,"Velocity":40,"Duration":184331,"SoundDuration":184331,"Delta":259831132},{"NoteNumber":61,"Velocity":52,"Duration":138248,"SoundDuration":138248,"Delta":259877215},{"NoteNumber":71,"Velocity":62,"Duration":138248,"SoundDuration":138248,"Delta":259877215},{"NoteNumber":66,"Velocity":55,"Duration":179372,"SoundDuration":179372,"Delta":260015463},{"NoteNumber":70,"Velocity":64,"Duration":179372,"SoundDuration":179372,"Delta":260015463},{"NoteNumber":42,"Velocity":49,"Duration":179372,"SoundDuration":179372,"Delta":260015463},{"NoteNumber":61,"Velocity":58,"Duration":182709,"SoundDuration":182709,"Delta":260194836},{"NoteNumber":73,"Velocity":68,"Duration":182709,"SoundDuration":182709,"Delta":260194836},{"NoteNumber":49,"Velocity":42,"Duration":182709,"SoundDuration":182709,"Delta":260194836},{"NoteNumber":70,"Velocity":61,"Duration":186046,"SoundDuration":186046,"Delta":260377545},{"NoteNumber":73,"Velocity":72,"Duration":186046,"SoundDuration":186046,"Delta":260377545},{"NoteNumber":58,"Velocity":42,"Duration":186046,"SoundDuration":186046,"Delta":260377545},{"NoteNumber":64,"Velocity":62,"Duration":181614,"SoundDuration":181614,"Delta":260563592},{"NoteNumber":76,"Velocity":75,"Duration":181614,"SoundDuration":181614,"Delta":260563592},{"NoteNumber":43,"Velocity":53,"Duration":181614,"SoundDuration":181614,"Delta":260563592},{"NoteNumber":73,"Velocity":66,"Duration":184122,"SoundDuration":184122,"Delta":260745206},{"NoteNumber":76,"Velocity":78,"Duration":184122,"SoundDuration":184122,"Delta":260745206},{"NoteNumber":52,"Velocity":58,"Duration":184122,"SoundDuration":184122,"Delta":260745206},{"NoteNumber":70,"Velocity":67,"Duration":186700,"SoundDuration":186700,"Delta":260929329},{"NoteNumber":82,"Velocity":81,"Duration":186700,"SoundDuration":186700,"Delta":260929329},{"NoteNumber":61,"Velocity":60,"Duration":186700,"SoundDuration":186700,"Delta":260929329},{"NoteNumber":80,"Velocity":72,"Duration":189352,"SoundDuration":189352,"Delta":261116029},{"NoteNumber":85,"Velocity":86,"Duration":189352,"SoundDuration":189352,"Delta":261116029},{"NoteNumber":44,"Velocity":66,"Duration":189352,"SoundDuration":189352,"Delta":261116029},{"NoteNumber":76,"Velocity":75,"Duration":192079,"SoundDuration":192079,"Delta":261305381},{"NoteNumber":88,"Velocity":84,"Duration":192079,"SoundDuration":192079,"Delta":261305381},{"NoteNumber":52,"Velocity":69,"Duration":192079,"SoundDuration":192079,"Delta":261305381},{"NoteNumber":88,"Velocity":77,"Duration":196090,"SoundDuration":196090,"Delta":261497461},{"NoteNumber":100,"Velocity":86,"Duration":196090,"SoundDuration":196090,"Delta":261497461},{"NoteNumber":61,"Velocity":74,"Duration":196090,"SoundDuration":196090,"Delta":261497461},{"NoteNumber":60,"Velocity":61,"Duration":1134398,"SoundDuration":1134398,"Delta":261693551},{"NoteNumber":64,"Velocity":69,"Duration":1134398,"SoundDuration":1134398,"Delta":261693551},{"NoteNumber":72,"Velocity":82,"Duration":860588,"SoundDuration":860588,"Delta":261693551},{"NoteNumber":32,"Velocity":49,"Duration":143540,"SoundDuration":143540,"Delta":261693551},{"NoteNumber":44,"Velocity":59,"Duration":143540,"SoundDuration":143540,"Delta":261693551},{"NoteNumber":28,"Velocity":44,"Duration":143540,"SoundDuration":143540,"Delta":261837092},{"NoteNumber":40,"Velocity":53,"Duration":143540,"SoundDuration":143540,"Delta":261837092},{"NoteNumber":30,"Velocity":51,"Duration":129870,"SoundDuration":129870,"Delta":262118248},{"NoteNumber":42,"Velocity":62,"Duration":129870,"SoundDuration":129870,"Delta":262118248},{"NoteNumber":32,"Velocity":46,"Duration":147058,"SoundDuration":147058,"Delta":262248118},{"NoteNumber":44,"Velocity":56,"Duration":147058,"SoundDuration":147058,"Delta":262248118},{"NoteNumber":28,"Velocity":47,"Duration":147058,"SoundDuration":147058,"Delta":262395177},{"NoteNumber":40,"Velocity":57,"Duration":147058,"SoundDuration":147058,"Delta":262395177},{"NoteNumber":58,"Velocity":52,"Duration":285714,"SoundDuration":285714,"Delta":262542235},{"NoteNumber":70,"Velocity":72,"Duration":285714,"SoundDuration":285714,"Delta":262542235},{"NoteNumber":58,"Velocity":64,"Duration":542967,"SoundDuration":542967,"Delta":262827950},{"NoteNumber":60,"Velocity":53,"Duration":1117017,"SoundDuration":1117017,"Delta":262827950},{"NoteNumber":65,"Velocity":56,"Duration":1117017,"SoundDuration":1117017,"Delta":262827950},{"NoteNumber":70,"Velocity":77,"Duration":542967,"SoundDuration":542967,"Delta":262827950},{"NoteNumber":32,"Velocity":49,"Duration":132158,"SoundDuration":132158,"Delta":262827950},{"NoteNumber":44,"Velocity":59,"Duration":132158,"SoundDuration":132158,"Delta":262827950},{"NoteNumber":29,"Velocity":44,"Duration":140187,"SoundDuration":140187,"Delta":262960108},{"NoteNumber":41,"Velocity":53,"Duration":140187,"SoundDuration":140187,"Delta":262960108},{"NoteNumber":31,"Velocity":51,"Duration":130434,"SoundDuration":130434,"Delta":263240482},{"NoteNumber":43,"Velocity":62,"Duration":130434,"SoundDuration":130434,"Delta":263240482},{"NoteNumber":56,"Velocity":55,"Duration":422534,"SoundDuration":422534,"Delta":263370917},{"NoteNumber":68,"Velocity":73,"Duration":422534,"SoundDuration":422534,"Delta":263370917},{"NoteNumber":32,"Velocity":46,"Duration":140845,"SoundDuration":140845,"Delta":263370917},{"NoteNumber":44,"Velocity":56,"Duration":140845,"SoundDuration":140845,"Delta":263370917},{"NoteNumber":29,"Velocity":47,"Duration":140845,"SoundDuration":140845,"Delta":263511762},{"NoteNumber":41,"Velocity":57,"Duration":140845,"SoundDuration":140845,"Delta":263511762},{"NoteNumber":56,"Velocity":49,"Duration":151515,"SoundDuration":151515,"Delta":263793452},{"NoteNumber":68,"Velocity":67,"Duration":151515,"SoundDuration":151515,"Delta":263793452},{"NoteNumber":61,"Velocity":58,"Duration":557197,"SoundDuration":557197,"Delta":263944967},{"NoteNumber":56,"Velocity":52,"Duration":415687,"SoundDuration":415687,"Delta":263944967},{"NoteNumber":64,"Velocity":61,"Duration":931961,"SoundDuration":931961,"Delta":263944967},{"NoteNumber":68,"Velocity":70,"Duration":415687,"SoundDuration":415687,"Delta":263944967},{"NoteNumber":34,"Velocity":38,"Duration":133333,"SoundDuration":133333,"Delta":263944967},{"NoteNumber":46,"Velocity":46,"Duration":133333,"SoundDuration":133333,"Delta":263944967},{"NoteNumber":31,"Velocity":35,"Duration":140845,"SoundDuration":140845,"Delta":264078301},{"NoteNumber":43,"Velocity":42,"Duration":140845,"SoundDuration":140845,"Delta":264078301},{"NoteNumber":55,"Velocity":58,"Duration":141509,"SoundDuration":141509,"Delta":264360655},{"NoteNumber":67,"Velocity":60,"Duration":141509,"SoundDuration":141509,"Delta":264360655},{"NoteNumber":32,"Velocity":41,"Duration":141509,"SoundDuration":141509,"Delta":264360655},{"NoteNumber":44,"Velocity":51,"Duration":141509,"SoundDuration":141509,"Delta":264360655},{"NoteNumber":55,"Velocity":58,"Duration":136046,"SoundDuration":136046,"Delta":264502165},{"NoteNumber":67,"Velocity":68,"Duration":197674,"SoundDuration":197674,"Delta":264502165},{"NoteNumber":34,"Velocity":39,"Duration":139535,"SoundDuration":139535,"Delta":264502165},{"NoteNumber":46,"Velocity":46,"Duration":139535,"SoundDuration":139535,"Delta":264502165},{"NoteNumber":43,"Velocity":40,"Duration":139534,"SoundDuration":139534,"Delta":264641700},{"NoteNumber":55,"Velocity":47,"Duration":139534,"SoundDuration":139534,"Delta":264641700},{"NoteNumber":53,"Velocity":44,"Duration":188717,"SoundDuration":188717,"Delta":264688211},{"NoteNumber":65,"Velocity":63,"Duration":200678,"SoundDuration":200678,"Delta":264688211},{"NoteNumber":52,"Velocity":30,"Duration":191387,"SoundDuration":191387,"Delta":264876929},{"NoteNumber":64,"Velocity":60,"Duration":191387,"SoundDuration":191387,"Delta":264876929},{"NoteNumber":55,"Velocity":45,"Duration":576923,"SoundDuration":576923,"Delta":265068316},{"NoteNumber":63,"Velocity":58,"Duration":1144454,"SoundDuration":1144454,"Delta":265068316},{"NoteNumber":67,"Velocity":71,"Duration":588942,"SoundDuration":588942,"Delta":265068316},{"NoteNumber":36,"Velocity":36,"Duration":144230,"SoundDuration":144230,"Delta":265068316},{"NoteNumber":48,"Velocity":44,"Duration":144230,"SoundDuration":144230,"Delta":265068316},{"NoteNumber":33,"Velocity":31,"Duration":144230,"SoundDuration":144230,"Delta":265212547},{"NoteNumber":45,"Velocity":39,"Duration":144230,"SoundDuration":144230,"Delta":265212547},{"NoteNumber":34,"Velocity":36,"Duration":144230,"SoundDuration":144230,"Delta":265501008},{"NoteNumber":46,"Velocity":44,"Duration":144230,"SoundDuration":144230,"Delta":265501008},{"NoteNumber":54,"Velocity":42,"Duration":288461,"SoundDuration":288461,"Delta":265645239},{"NoteNumber":66,"Velocity":62,"Duration":288461,"SoundDuration":288461,"Delta":265645239},{"NoteNumber":36,"Velocity":31,"Duration":144230,"SoundDuration":144230,"Delta":265645239},{"NoteNumber":48,"Velocity":38,"Duration":144230,"SoundDuration":144230,"Delta":265645239},{"NoteNumber":48,"Velocity":31,"Duration":144230,"SoundDuration":144230,"Delta":265789470},{"NoteNumber":60,"Velocity":38,"Duration":144230,"SoundDuration":144230,"Delta":265789470},{"NoteNumber":69,"Velocity":59,"Duration":279069,"SoundDuration":279069,"Delta":265933701},{"NoteNumber":81,"Velocity":68,"Duration":279069,"SoundDuration":279069,"Delta":265933701},{"NoteNumber":60,"Velocity":60,"Duration":135746,"SoundDuration":135746,"Delta":266212771},{"NoteNumber":72,"Velocity":70,"Duration":135746,"SoundDuration":135746,"Delta":266212771},{"NoteNumber":39,"Velocity":55,"Duration":180995,"SoundDuration":180995,"Delta":266212771},{"NoteNumber":66,"Velocity":53,"Duration":135746,"SoundDuration":135746,"Delta":266348517},{"NoteNumber":71,"Velocity":63,"Duration":135746,"SoundDuration":135746,"Delta":266348517},{"NoteNumber":47,"Velocity":42,"Duration":370871,"SoundDuration":370871,"Delta":266393766},{"NoteNumber":57,"Velocity":42,"Duration":186915,"SoundDuration":186915,"Delta":266577722},{"NoteNumber":59,"Velocity":56,"Duration":140186,"SoundDuration":140186,"Delta":266624451},{"NoteNumber":69,"Velocity":67,"Duration":140186,"SoundDuration":140186,"Delta":266624451},{"NoteNumber":64,"Velocity":61,"Duration":137614,"SoundDuration":137614,"Delta":266764638},{"NoteNumber":68,"Velocity":73,"Duration":137614,"SoundDuration":137614,"Delta":266764638},{"NoteNumber":56,"Velocity":48,"Duration":183486,"SoundDuration":183486,"Delta":266764638},{"NoteNumber":59,"Velocity":56,"Duration":137614,"SoundDuration":137614,"Delta":266902252},{"NoteNumber":71,"Velocity":67,"Duration":137614,"SoundDuration":137614,"Delta":266902252},{"NoteNumber":47,"Velocity":44,"Duration":184766,"SoundDuration":184766,"Delta":266948124},{"NoteNumber":40,"Velocity":44,"Duration":186046,"SoundDuration":186046,"Delta":267132891},{"NoteNumber":62,"Velocity":57,"Duration":139534,"SoundDuration":139534,"Delta":267179402},{"NoteNumber":74,"Velocity":69,"Duration":139534,"SoundDuration":139534,"Delta":267179402},{"NoteNumber":62,"Velocity":62,"Duration":135135,"SoundDuration":135135,"Delta":267318937},{"NoteNumber":74,"Velocity":74,"Duration":135135,"SoundDuration":135135,"Delta":267318937},{"NoteNumber":41,"Velocity":48,"Duration":180180,"SoundDuration":180180,"Delta":267318937},{"NoteNumber":68,"Velocity":57,"Duration":135135,"SoundDuration":135135,"Delta":267454072},{"NoteNumber":73,"Velocity":69,"Duration":135135,"SoundDuration":135135,"Delta":267454072},{"NoteNumber":49,"Velocity":41,"Duration":365319,"SoundDuration":365319,"Delta":267499118},{"NoteNumber":59,"Velocity":42,"Duration":183486,"SoundDuration":183486,"Delta":267680951},{"NoteNumber":61,"Velocity":57,"Duration":137614,"SoundDuration":137614,"Delta":267726822},{"NoteNumber":71,"Velocity":68,"Duration":137614,"SoundDuration":137614,"Delta":267726822},{"NoteNumber":66,"Velocity":62,"Duration":133928,"SoundDuration":133928,"Delta":267864437},{"NoteNumber":70,"Velocity":74,"Duration":133928,"SoundDuration":133928,"Delta":267864437},{"NoteNumber":58,"Velocity":48,"Duration":178571,"SoundDuration":178571,"Delta":267864437},{"NoteNumber":61,"Velocity":57,"Duration":133928,"SoundDuration":133928,"Delta":267998366},{"NoteNumber":73,"Velocity":68,"Duration":133928,"SoundDuration":133928,"Delta":267998366},{"NoteNumber":49,"Velocity":42,"Duration":181028,"SoundDuration":181028,"Delta":268043009},{"NoteNumber":42,"Velocity":42,"Duration":183486,"SoundDuration":183486,"Delta":268224037},{"NoteNumber":64,"Velocity":58,"Duration":137614,"SoundDuration":137614,"Delta":268269909},{"NoteNumber":76,"Velocity":70,"Duration":137614,"SoundDuration":137614,"Delta":268269909},{"NoteNumber":64,"Velocity":64,"Duration":135135,"SoundDuration":135135,"Delta":268407524},{"NoteNumber":76,"Velocity":77,"Duration":135135,"SoundDuration":135135,"Delta":268407524},{"NoteNumber":43,"Velocity":50,"Duration":180180,"SoundDuration":180180,"Delta":268407524},{"NoteNumber":70,"Velocity":60,"Duration":135135,"SoundDuration":135135,"Delta":268542659},{"NoteNumber":75,"Velocity":70,"Duration":135135,"SoundDuration":135135,"Delta":268542659},{"NoteNumber":51,"Velocity":44,"Duration":370464,"SoundDuration":370464,"Delta":268587704},{"NoteNumber":61,"Velocity":44,"Duration":186915,"SoundDuration":186915,"Delta":268771252},{"NoteNumber":63,"Velocity":57,"Duration":140186,"SoundDuration":140186,"Delta":268817981},{"NoteNumber":73,"Velocity":68,"Duration":140186,"SoundDuration":140186,"Delta":268817981},{"NoteNumber":68,"Velocity":60,"Duration":186915,"SoundDuration":186915,"Delta":268958168},{"NoteNumber":72,"Velocity":70,"Duration":186915,"SoundDuration":186915,"Delta":268958168},{"NoteNumber":44,"Velocity":53,"Duration":186915,"SoundDuration":186915,"Delta":268958168},{"NoteNumber":63,"Velocity":63,"Duration":186915,"SoundDuration":186915,"Delta":269145084},{"NoteNumber":75,"Velocity":74,"Duration":186915,"SoundDuration":186915,"Delta":269145084},{"NoteNumber":51,"Velocity":46,"Duration":186915,"SoundDuration":186915,"Delta":269145084},{"NoteNumber":72,"Velocity":67,"Duration":186483,"SoundDuration":186483,"Delta":269332000},{"NoteNumber":75,"Velocity":79,"Duration":186483,"SoundDuration":186483,"Delta":269332000},{"NoteNumber":60,"Velocity":46,"Duration":186483,"SoundDuration":186483,"Delta":269332000},{"NoteNumber":66,"Velocity":68,"Duration":186265,"SoundDuration":186265,"Delta":269518484},{"NoteNumber":78,"Velocity":82,"Duration":186265,"SoundDuration":186265,"Delta":269518484},{"NoteNumber":45,"Velocity":58,"Duration":186265,"SoundDuration":186265,"Delta":269518484},{"NoteNumber":75,"Velocity":71,"Duration":188681,"SoundDuration":188681,"Delta":269704750},{"NoteNumber":78,"Velocity":85,"Duration":188681,"SoundDuration":188681,"Delta":269704750},{"NoteNumber":54,"Velocity":63,"Duration":188681,"SoundDuration":188681,"Delta":269704750},{"NoteNumber":69,"Velocity":73,"Duration":191162,"SoundDuration":191162,"Delta":269893431},{"NoteNumber":81,"Velocity":89,"Duration":191162,"SoundDuration":191162,"Delta":269893431},{"NoteNumber":63,"Velocity":66,"Duration":191162,"SoundDuration":191162,"Delta":269893431},{"NoteNumber":78,"Velocity":80,"Duration":193473,"SoundDuration":193473,"Delta":270084593},{"NoteNumber":81,"Velocity":94,"Duration":193473,"SoundDuration":193473,"Delta":270084593},{"NoteNumber":48,"Velocity":71,"Duration":193473,"SoundDuration":193473,"Delta":270084593},{"NoteNumber":74,"Velocity":82,"Duration":196080,"SoundDuration":196080,"Delta":270278066},{"NoteNumber":86,"Velocity":97,"Duration":196080,"SoundDuration":196080,"Delta":270278066},{"NoteNumber":54,"Velocity":74,"Duration":196080,"SoundDuration":196080,"Delta":270278066},{"NoteNumber":78,"Velocity":85,"Duration":198761,"SoundDuration":198761,"Delta":270474147},{"NoteNumber":90,"Velocity":104,"Duration":198761,"SoundDuration":198761,"Delta":270474147},{"NoteNumber":62,"Velocity":81,"Duration":198761,"SoundDuration":198761,"Delta":270474147},{"NoteNumber":86,"Velocity":88,"Duration":135550,"SoundDuration":135550,"Delta":270672908},{"NoteNumber":91,"Velocity":104,"Duration":135550,"SoundDuration":135550,"Delta":270672908},{"NoteNumber":34,"Velocity":73,"Duration":180733,"SoundDuration":180733,"Delta":270672908},{"NoteNumber":46,"Velocity":86,"Duration":180733,"SoundDuration":180733,"Delta":270672908},{"NoteNumber":79,"Velocity":79,"Duration":135550,"SoundDuration":135550,"Delta":270808458},{"NoteNumber":82,"Velocity":93,"Duration":135550,"SoundDuration":135550,"Delta":270808458},{"NoteNumber":50,"Velocity":61,"Duration":183338,"SoundDuration":183338,"Delta":270853642},{"NoteNumber":58,"Velocity":72,"Duration":183338,"SoundDuration":183338,"Delta":270853642},{"NoteNumber":55,"Velocity":68,"Duration":185942,"SoundDuration":185942,"Delta":271036980},{"NoteNumber":62,"Velocity":80,"Duration":185942,"SoundDuration":185942,"Delta":271036980},{"NoteNumber":84,"Velocity":94,"Duration":139456,"SoundDuration":139456,"Delta":271083466},{"NoteNumber":81,"Velocity":80,"Duration":139456,"SoundDuration":139456,"Delta":271083466},{"NoteNumber":82,"Velocity":84,"Duration":136823,"SoundDuration":136823,"Delta":271222923},{"NoteNumber":86,"Velocity":100,"Duration":136823,"SoundDuration":136823,"Delta":271222923},{"NoteNumber":58,"Velocity":68,"Duration":182431,"SoundDuration":182431,"Delta":271222923},{"NoteNumber":67,"Velocity":80,"Duration":182431,"SoundDuration":182431,"Delta":271222923},{"NoteNumber":74,"Velocity":80,"Duration":136823,"SoundDuration":136823,"Delta":271359746},{"NoteNumber":79,"Velocity":94,"Duration":136823,"SoundDuration":136823,"Delta":271359746},{"NoteNumber":55,"Velocity":63,"Duration":182001,"SoundDuration":182001,"Delta":271405354},{"NoteNumber":62,"Velocity":75,"Duration":182001,"SoundDuration":182001,"Delta":271405354},{"NoteNumber":26,"Velocity":56,"Duration":90785,"SoundDuration":90785,"Delta":271678141},{"NoteNumber":38,"Velocity":66,"Duration":90785,"SoundDuration":90785,"Delta":271678141},{"NoteNumber":82,"Velocity":88,"Duration":135550,"SoundDuration":135550,"Delta":271768926},{"NoteNumber":86,"Velocity":104,"Duration":135550,"SoundDuration":135550,"Delta":271768926},{"NoteNumber":26,"Velocity":73,"Duration":180733,"SoundDuration":180733,"Delta":271768926},{"NoteNumber":38,"Velocity":86,"Duration":180733,"SoundDuration":180733,"Delta":271768926},{"NoteNumber":74,"Velocity":79,"Duration":135550,"SoundDuration":135550,"Delta":271904476},{"NoteNumber":79,"Velocity":93,"Duration":135550,"SoundDuration":135550,"Delta":271904476},{"NoteNumber":50,"Velocity":61,"Duration":183338,"SoundDuration":183338,"Delta":271949660},{"NoteNumber":58,"Velocity":72,"Duration":183338,"SoundDuration":183338,"Delta":271949660},{"NoteNumber":55,"Velocity":63,"Duration":185942,"SoundDuration":185942,"Delta":272132998},{"NoteNumber":62,"Velocity":75,"Duration":185942,"SoundDuration":185942,"Delta":272132998},{"NoteNumber":81,"Velocity":89,"Duration":139456,"SoundDuration":139456,"Delta":272179484},{"NoteNumber":78,"Velocity":75,"Duration":139456,"SoundDuration":139456,"Delta":272179484},{"NoteNumber":79,"Velocity":80,"Duration":136823,"SoundDuration":136823,"Delta":272318941},{"NoteNumber":82,"Velocity":94,"Duration":136823,"SoundDuration":136823,"Delta":272318941},{"NoteNumber":58,"Velocity":63,"Duration":182431,"SoundDuration":182431,"Delta":272318941},{"NoteNumber":67,"Velocity":75,"Duration":182431,"SoundDuration":182431,"Delta":272318941},{"NoteNumber":86,"Velocity":75,"Duration":136823,"SoundDuration":136823,"Delta":272455764},{"NoteNumber":91,"Velocity":89,"Duration":136823,"SoundDuration":136823,"Delta":272455764},{"NoteNumber":55,"Velocity":60,"Duration":184187,"SoundDuration":184187,"Delta":272501372},{"NoteNumber":62,"Velocity":71,"Duration":184187,"SoundDuration":184187,"Delta":272501372},{"NoteNumber":50,"Velocity":52,"Duration":185942,"SoundDuration":185942,"Delta":272685559},{"NoteNumber":58,"Velocity":62,"Duration":185942,"SoundDuration":185942,"Delta":272685559},{"NoteNumber":85,"Velocity":84,"Duration":135550,"SoundDuration":135550,"Delta":272871502},{"NoteNumber":89,"Velocity":101,"Duration":135550,"SoundDuration":135550,"Delta":272871502},{"NoteNumber":46,"Velocity":70,"Duration":180733,"SoundDuration":180733,"Delta":272871502},{"NoteNumber":58,"Velocity":82,"Duration":180733,"SoundDuration":180733,"Delta":272871502},{"NoteNumber":77,"Velocity":75,"Duration":135550,"SoundDuration":135550,"Delta":273007052},{"NoteNumber":82,"Velocity":90,"Duration":135550,"SoundDuration":135550,"Delta":273007052},{"NoteNumber":53,"Velocity":59,"Duration":183338,"SoundDuration":183338,"Delta":273052236},{"NoteNumber":61,"Velocity":70,"Duration":183338,"SoundDuration":183338,"Delta":273052236},{"NoteNumber":58,"Velocity":66,"Duration":185942,"SoundDuration":185942,"Delta":273235574},{"NoteNumber":65,"Velocity":77,"Duration":185942,"SoundDuration":185942,"Delta":273235574},{"NoteNumber":84,"Velocity":91,"Duration":139456,"SoundDuration":139456,"Delta":273282060},{"NoteNumber":81,"Velocity":77,"Duration":139456,"SoundDuration":139456,"Delta":273282060},{"NoteNumber":82,"Velocity":81,"Duration":136823,"SoundDuration":136823,"Delta":273421517},{"NoteNumber":85,"Velocity":96,"Duration":136823,"SoundDuration":136823,"Delta":273421517},{"NoteNumber":61,"Velocity":66,"Duration":182431,"SoundDuration":182431,"Delta":273421517},{"NoteNumber":70,"Velocity":77,"Duration":182431,"SoundDuration":182431,"Delta":273421517},{"NoteNumber":73,"Velocity":77,"Duration":136823,"SoundDuration":136823,"Delta":273558340},{"NoteNumber":77,"Velocity":91,"Duration":136823,"SoundDuration":136823,"Delta":273558340},{"NoteNumber":58,"Velocity":61,"Duration":182001,"SoundDuration":182001,"Delta":273603948},{"NoteNumber":65,"Velocity":72,"Duration":182001,"SoundDuration":182001,"Delta":273603948},{"NoteNumber":37,"Velocity":53,"Duration":90785,"SoundDuration":90785,"Delta":273876735},{"NoteNumber":49,"Velocity":63,"Duration":90785,"SoundDuration":90785,"Delta":273876735},{"NoteNumber":85,"Velocity":82,"Duration":135550,"SoundDuration":135550,"Delta":273967520},{"NoteNumber":89,"Velocity":99,"Duration":135550,"SoundDuration":135550,"Delta":273967520},{"NoteNumber":37,"Velocity":70,"Duration":180733,"SoundDuration":180733,"Delta":273967520},{"NoteNumber":49,"Velocity":82,"Duration":180733,"SoundDuration":180733,"Delta":273967520},{"NoteNumber":77,"Velocity":75,"Duration":135550,"SoundDuration":135550,"Delta":274103070},{"NoteNumber":82,"Velocity":90,"Duration":135550,"SoundDuration":135550,"Delta":274103070},{"NoteNumber":53,"Velocity":59,"Duration":183338,"SoundDuration":183338,"Delta":274148254},{"NoteNumber":61,"Velocity":70,"Duration":183338,"SoundDuration":183338,"Delta":274148254},{"NoteNumber":58,"Velocity":61,"Duration":185942,"SoundDuration":185942,"Delta":274331592},{"NoteNumber":65,"Velocity":72,"Duration":185942,"SoundDuration":185942,"Delta":274331592},{"NoteNumber":84,"Velocity":85,"Duration":139456,"SoundDuration":139456,"Delta":274378078},{"NoteNumber":81,"Velocity":72,"Duration":139456,"SoundDuration":139456,"Delta":274378078},{"NoteNumber":82,"Velocity":77,"Duration":136823,"SoundDuration":136823,"Delta":274517535},{"NoteNumber":85,"Velocity":91,"Duration":136823,"SoundDuration":136823,"Delta":274517535},{"NoteNumber":61,"Velocity":61,"Duration":182431,"SoundDuration":182431,"Delta":274517535},{"NoteNumber":70,"Velocity":72,"Duration":182431,"SoundDuration":182431,"Delta":274517535},{"NoteNumber":89,"Velocity":72,"Duration":136823,"SoundDuration":136823,"Delta":274654358},{"NoteNumber":94,"Velocity":85,"Duration":136823,"SoundDuration":136823,"Delta":274654358},{"NoteNumber":58,"Velocity":58,"Duration":184187,"SoundDuration":184187,"Delta":274699966},{"NoteNumber":65,"Velocity":69,"Duration":184187,"SoundDuration":184187,"Delta":274699966},{"NoteNumber":53,"Velocity":50,"Duration":185942,"SoundDuration":185942,"Delta":274884153},{"NoteNumber":61,"Velocity":60,"Duration":185942,"SoundDuration":185942,"Delta":274884153},{"NoteNumber":84,"Velocity":88,"Duration":135550,"SoundDuration":135550,"Delta":275070096},{"NoteNumber":89,"Velocity":104,"Duration":135550,"SoundDuration":135550,"Delta":275070096},{"NoteNumber":32,"Velocity":73,"Duration":180733,"SoundDuration":180733,"Delta":275070096},{"NoteNumber":44,"Velocity":86,"Duration":180733,"SoundDuration":180733,"Delta":275070096},{"NoteNumber":77,"Velocity":79,"Duration":135550,"SoundDuration":135550,"Delta":275205646},{"NoteNumber":80,"Velocity":93,"Duration":135550,"SoundDuration":135550,"Delta":275205646},{"NoteNumber":53,"Velocity":61,"Duration":183338,"SoundDuration":183338,"Delta":275250830},{"NoteNumber":60,"Velocity":72,"Duration":183338,"SoundDuration":183338,"Delta":275250830},{"NoteNumber":56,"Velocity":68,"Duration":185942,"SoundDuration":185942,"Delta":275434168},{"NoteNumber":65,"Velocity":80,"Duration":185942,"SoundDuration":185942,"Delta":275434168},{"NoteNumber":82,"Velocity":91,"Duration":139456,"SoundDuration":139456,"Delta":275480654},{"NoteNumber":79,"Velocity":77,"Duration":139456,"SoundDuration":139456,"Delta":275480654},{"NoteNumber":80,"Velocity":77,"Duration":136823,"SoundDuration":136823,"Delta":275620111},{"NoteNumber":84,"Velocity":96,"Duration":136823,"SoundDuration":136823,"Delta":275620111},{"NoteNumber":60,"Velocity":68,"Duration":182431,"SoundDuration":182431,"Delta":275620111},{"NoteNumber":68,"Velocity":80,"Duration":182431,"SoundDuration":182431,"Delta":275620111},{"NoteNumber":72,"Velocity":77,"Duration":136823,"SoundDuration":136823,"Delta":275756934},{"NoteNumber":77,"Velocity":91,"Duration":136823,"SoundDuration":136823,"Delta":275756934},{"NoteNumber":56,"Velocity":63,"Duration":182001,"SoundDuration":182001,"Delta":275802542},{"NoteNumber":65,"Velocity":75,"Duration":182001,"SoundDuration":182001,"Delta":275802542},{"NoteNumber":36,"Velocity":66,"Duration":90680,"SoundDuration":90680,"Delta":276098025},{"NoteNumber":24,"Velocity":56,"Duration":90680,"SoundDuration":90680,"Delta":276098025},{"NoteNumber":80,"Velocity":88,"Duration":135550,"SoundDuration":135550,"Delta":276166114},{"NoteNumber":84,"Velocity":104,"Duration":135550,"SoundDuration":135550,"Delta":276166114},{"NoteNumber":24,"Velocity":73,"Duration":180733,"SoundDuration":180733,"Delta":276166114},{"NoteNumber":36,"Velocity":86,"Duration":180733,"SoundDuration":180733,"Delta":276166114},{"NoteNumber":72,"Velocity":79,"Duration":135550,"SoundDuration":135550,"Delta":276301664},{"NoteNumber":77,"Velocity":93,"Duration":135550,"SoundDuration":135550,"Delta":276301664},{"NoteNumber":53,"Velocity":61,"Duration":183338,"SoundDuration":183338,"Delta":276346848},{"NoteNumber":60,"Velocity":72,"Duration":183338,"SoundDuration":183338,"Delta":276346848},{"NoteNumber":56,"Velocity":63,"Duration":185942,"SoundDuration":185942,"Delta":276530186},{"NoteNumber":65,"Velocity":75,"Duration":185942,"SoundDuration":185942,"Delta":276530186},{"NoteNumber":79,"Velocity":89,"Duration":139456,"SoundDuration":139456,"Delta":276576672},{"NoteNumber":76,"Velocity":75,"Duration":139456,"SoundDuration":139456,"Delta":276576672},{"NoteNumber":77,"Velocity":80,"Duration":136823,"SoundDuration":136823,"Delta":276716129},{"NoteNumber":80,"Velocity":94,"Duration":136823,"SoundDuration":136823,"Delta":276716129},{"NoteNumber":60,"Velocity":63,"Duration":182431,"SoundDuration":182431,"Delta":276716129},{"NoteNumber":68,"Velocity":75,"Duration":182431,"SoundDuration":182431,"Delta":276716129},{"NoteNumber":84,"Velocity":75,"Duration":136823,"SoundDuration":136823,"Delta":276852952},{"NoteNumber":89,"Velocity":89,"Duration":136823,"SoundDuration":136823,"Delta":276852952},{"NoteNumber":56,"Velocity":60,"Duration":184187,"SoundDuration":184187,"Delta":276898560},{"NoteNumber":65,"Velocity":71,"Duration":184187,"SoundDuration":184187,"Delta":276898560},{"NoteNumber":53,"Velocity":52,"Duration":185942,"SoundDuration":185942,"Delta":277082747},{"NoteNumber":60,"Velocity":62,"Duration":185942,"SoundDuration":185942,"Delta":277082747},{"NoteNumber":84,"Velocity":90,"Duration":135550,"SoundDuration":135550,"Delta":277268690},{"NoteNumber":88,"Velocity":107,"Duration":135550,"SoundDuration":135550,"Delta":277268690},{"NoteNumber":44,"Velocity":73,"Duration":180733,"SoundDuration":180733,"Delta":277268690},{"NoteNumber":56,"Velocity":86,"Duration":180733,"SoundDuration":180733,"Delta":277268690},{"NoteNumber":76,"Velocity":79,"Duration":135550,"SoundDuration":135550,"Delta":277404240},{"NoteNumber":80,"Velocity":93,"Duration":135550,"SoundDuration":135550,"Delta":277404240},{"NoteNumber":52,"Velocity":61,"Duration":183338,"SoundDuration":183338,"Delta":277449424},{"NoteNumber":60,"Velocity":72,"Duration":183338,"SoundDuration":183338,"Delta":277449424},{"NoteNumber":56,"Velocity":68,"Duration":185942,"SoundDuration":185942,"Delta":277632762},{"NoteNumber":64,"Velocity":80,"Duration":185942,"SoundDuration":185942,"Delta":277632762},{"NoteNumber":82,"Velocity":91,"Duration":139456,"SoundDuration":139456,"Delta":277679248},{"NoteNumber":79,"Velocity":77,"Duration":139456,"SoundDuration":139456,"Delta":277679248},{"NoteNumber":80,"Velocity":78,"Duration":136823,"SoundDuration":136823,"Delta":277818705},{"NoteNumber":84,"Velocity":94,"Duration":136823,"SoundDuration":136823,"Delta":277818705},{"NoteNumber":60,"Velocity":68,"Duration":182431,"SoundDuration":182431,"Delta":277818705},{"NoteNumber":68,"Velocity":80,"Duration":182431,"SoundDuration":182431,"Delta":277818705},{"NoteNumber":72,"Velocity":77,"Duration":136823,"SoundDuration":136823,"Delta":277955528},{"NoteNumber":76,"Velocity":91,"Duration":136823,"SoundDuration":136823,"Delta":277955528},{"NoteNumber":56,"Velocity":63,"Duration":182001,"SoundDuration":182001,"Delta":278001136},{"NoteNumber":64,"Velocity":75,"Duration":182001,"SoundDuration":182001,"Delta":278001136},{"NoteNumber":48,"Velocity":66,"Duration":90680,"SoundDuration":90680,"Delta":278296619},{"NoteNumber":36,"Velocity":56,"Duration":90680,"SoundDuration":90680,"Delta":278296619},{"NoteNumber":80,"Velocity":88,"Duration":135550,"SoundDuration":135550,"Delta":278364708},{"NoteNumber":84,"Velocity":104,"Duration":135550,"SoundDuration":135550,"Delta":278364708},{"NoteNumber":36,"Velocity":73,"Duration":180733,"SoundDuration":180733,"Delta":278364708},{"NoteNumber":48,"Velocity":86,"Duration":180733,"SoundDuration":180733,"Delta":278364708},{"NoteNumber":72,"Velocity":79,"Duration":135550,"SoundDuration":135550,"Delta":278500258},{"NoteNumber":76,"Velocity":93,"Duration":135550,"SoundDuration":135550,"Delta":278500258},{"NoteNumber":52,"Velocity":61,"Duration":183338,"SoundDuration":183338,"Delta":278545442},{"NoteNumber":60,"Velocity":72,"Duration":183338,"SoundDuration":183338,"Delta":278545442},{"NoteNumber":56,"Velocity":63,"Duration":185942,"SoundDuration":185942,"Delta":278728780},{"NoteNumber":64,"Velocity":75,"Duration":185942,"SoundDuration":185942,"Delta":278728780},{"NoteNumber":79,"Velocity":89,"Duration":139456,"SoundDuration":139456,"Delta":278775266},{"NoteNumber":76,"Velocity":75,"Duration":139456,"SoundDuration":139456,"Delta":278775266},{"NoteNumber":76,"Velocity":80,"Duration":136823,"SoundDuration":136823,"Delta":278914723},{"NoteNumber":80,"Velocity":94,"Duration":136823,"SoundDuration":136823,"Delta":278914723},{"NoteNumber":60,"Velocity":63,"Duration":182431,"SoundDuration":182431,"Delta":278914723},{"NoteNumber":68,"Velocity":75,"Duration":182431,"SoundDuration":182431,"Delta":278914723},{"NoteNumber":84,"Velocity":75,"Duration":136823,"SoundDuration":136823,"Delta":279051546},{"NoteNumber":88,"Velocity":89,"Duration":136823,"SoundDuration":136823,"Delta":279051546},{"NoteNumber":56,"Velocity":60,"Duration":184187,"SoundDuration":184187,"Delta":279097154},{"NoteNumber":64,"Velocity":71,"Duration":184187,"SoundDuration":184187,"Delta":279097154},{"NoteNumber":52,"Velocity":52,"Duration":185942,"SoundDuration":185942,"Delta":279281341},{"NoteNumber":60,"Velocity":62,"Duration":185942,"SoundDuration":185942,"Delta":279281341},{"NoteNumber":83,"Velocity":88,"Duration":135550,"SoundDuration":135550,"Delta":279467284},{"NoteNumber":88,"Velocity":104,"Duration":135550,"SoundDuration":135550,"Delta":279467284},{"NoteNumber":43,"Velocity":73,"Duration":180733,"SoundDuration":180733,"Delta":279467284},{"NoteNumber":55,"Velocity":86,"Duration":180733,"SoundDuration":180733,"Delta":279467284},{"NoteNumber":76,"Velocity":79,"Duration":135550,"SoundDuration":135550,"Delta":279602834},{"NoteNumber":79,"Velocity":93,"Duration":135550,"SoundDuration":135550,"Delta":279602834},{"NoteNumber":55,"Velocity":61,"Duration":183338,"SoundDuration":183338,"Delta":279648018},{"NoteNumber":64,"Velocity":72,"Duration":183338,"SoundDuration":183338,"Delta":279648018},{"NoteNumber":59,"Velocity":68,"Duration":185942,"SoundDuration":185942,"Delta":279831356},{"NoteNumber":67,"Velocity":80,"Duration":185942,"SoundDuration":185942,"Delta":279831356},{"NoteNumber":81,"Velocity":91,"Duration":139456,"SoundDuration":139456,"Delta":279877842},{"NoteNumber":78,"Velocity":77,"Duration":139456,"SoundDuration":139456,"Delta":279877842},{"NoteNumber":79,"Velocity":81,"Duration":136823,"SoundDuration":136823,"Delta":280017299},{"NoteNumber":83,"Velocity":96,"Duration":136823,"SoundDuration":136823,"Delta":280017299},{"NoteNumber":64,"Velocity":68,"Duration":182431,"SoundDuration":182431,"Delta":280017299},{"NoteNumber":71,"Velocity":80,"Duration":182431,"SoundDuration":182431,"Delta":280017299},{"NoteNumber":71,"Velocity":77,"Duration":136823,"SoundDuration":136823,"Delta":280154122},{"NoteNumber":76,"Velocity":91,"Duration":136823,"SoundDuration":136823,"Delta":280154122},{"NoteNumber":59,"Velocity":63,"Duration":182001,"SoundDuration":182001,"Delta":280199730},{"NoteNumber":67,"Velocity":75,"Duration":182001,"SoundDuration":182001,"Delta":280199730},{"NoteNumber":47,"Velocity":66,"Duration":90680,"SoundDuration":90680,"Delta":280495213},{"NoteNumber":35,"Velocity":56,"Duration":90680,"SoundDuration":90680,"Delta":280495213},{"NoteNumber":79,"Velocity":88,"Duration":135550,"SoundDuration":135550,"Delta":280563302},{"NoteNumber":83,"Velocity":104,"Duration":135550,"SoundDuration":135550,"Delta":280563302},{"NoteNumber":35,"Velocity":73,"Duration":180733,"SoundDuration":180733,"Delta":280563302},{"NoteNumber":47,"Velocity":86,"Duration":180733,"SoundDuration":180733,"Delta":280563302},{"NoteNumber":71,"Velocity":79,"Duration":135550,"SoundDuration":135550,"Delta":280698852},{"NoteNumber":76,"Velocity":93,"Duration":135550,"SoundDuration":135550,"Delta":280698852},{"NoteNumber":55,"Velocity":61,"Duration":183338,"SoundDuration":183338,"Delta":280744036},{"NoteNumber":64,"Velocity":72,"Duration":183338,"SoundDuration":183338,"Delta":280744036},{"NoteNumber":59,"Velocity":63,"Duration":185942,"SoundDuration":185942,"Delta":280927374},{"NoteNumber":67,"Velocity":75,"Duration":185942,"SoundDuration":185942,"Delta":280927374},{"NoteNumber":78,"Velocity":89,"Duration":139456,"SoundDuration":139456,"Delta":280973860},{"NoteNumber":75,"Velocity":75,"Duration":139456,"SoundDuration":139456,"Delta":280973860},{"NoteNumber":76,"Velocity":80,"Duration":136823,"SoundDuration":136823,"Delta":281113317},{"NoteNumber":79,"Velocity":94,"Duration":136823,"SoundDuration":136823,"Delta":281113317},{"NoteNumber":64,"Velocity":63,"Duration":182431,"SoundDuration":182431,"Delta":281113317},{"NoteNumber":71,"Velocity":75,"Duration":182431,"SoundDuration":182431,"Delta":281113317},{"NoteNumber":83,"Velocity":75,"Duration":136823,"SoundDuration":136823,"Delta":281250140},{"NoteNumber":88,"Velocity":89,"Duration":136823,"SoundDuration":136823,"Delta":281250140},{"NoteNumber":59,"Velocity":60,"Duration":184187,"SoundDuration":184187,"Delta":281295748},{"NoteNumber":67,"Velocity":71,"Duration":184187,"SoundDuration":184187,"Delta":281295748},{"NoteNumber":55,"Velocity":52,"Duration":185942,"SoundDuration":185942,"Delta":281479935},{"NoteNumber":64,"Velocity":62,"Duration":185942,"SoundDuration":185942,"Delta":281479935},{"NoteNumber":83,"Velocity":88,"Duration":135550,"SoundDuration":135550,"Delta":281665878},{"NoteNumber":86,"Velocity":104,"Duration":135550,"SoundDuration":135550,"Delta":281665878},{"NoteNumber":43,"Velocity":73,"Duration":180733,"SoundDuration":180733,"Delta":281665878},{"NoteNumber":55,"Velocity":86,"Duration":180733,"SoundDuration":180733,"Delta":281665878},{"NoteNumber":74,"Velocity":79,"Duration":135550,"SoundDuration":135550,"Delta":281801428},{"NoteNumber":79,"Velocity":93,"Duration":135550,"SoundDuration":135550,"Delta":281801428},{"NoteNumber":50,"Velocity":61,"Duration":183338,"SoundDuration":183338,"Delta":281846612},{"NoteNumber":59,"Velocity":72,"Duration":183338,"SoundDuration":183338,"Delta":281846612},{"NoteNumber":55,"Velocity":68,"Duration":185942,"SoundDuration":185942,"Delta":282029950},{"NoteNumber":62,"Velocity":80,"Duration":185942,"SoundDuration":185942,"Delta":282029950},{"NoteNumber":81,"Velocity":91,"Duration":139456,"SoundDuration":139456,"Delta":282076436},{"NoteNumber":78,"Velocity":77,"Duration":139456,"SoundDuration":139456,"Delta":282076436},{"NoteNumber":79,"Velocity":81,"Duration":136823,"SoundDuration":136823,"Delta":282215893},{"NoteNumber":83,"Velocity":96,"Duration":136823,"SoundDuration":136823,"Delta":282215893},{"NoteNumber":59,"Velocity":68,"Duration":182431,"SoundDuration":182431,"Delta":282215893},{"NoteNumber":67,"Velocity":80,"Duration":182431,"SoundDuration":182431,"Delta":282215893},{"NoteNumber":71,"Velocity":77,"Duration":136823,"SoundDuration":136823,"Delta":282352716},{"NoteNumber":74,"Velocity":91,"Duration":136823,"SoundDuration":136823,"Delta":282352716},{"NoteNumber":55,"Velocity":63,"Duration":182001,"SoundDuration":182001,"Delta":282398324},{"NoteNumber":62,"Velocity":75,"Duration":182001,"SoundDuration":182001,"Delta":282398324},{"NoteNumber":43,"Velocity":66,"Duration":90680,"SoundDuration":90680,"Delta":282693807},{"NoteNumber":31,"Velocity":56,"Duration":90680,"SoundDuration":90680,"Delta":282693807},{"NoteNumber":83,"Velocity":88,"Duration":135550,"SoundDuration":135550,"Delta":282761896},{"NoteNumber":86,"Velocity":104,"Duration":135550,"SoundDuration":135550,"Delta":282761896},{"NoteNumber":31,"Velocity":73,"Duration":180733,"SoundDuration":180733,"Delta":282761896},{"NoteNumber":43,"Velocity":86,"Duration":180733,"SoundDuration":180733,"Delta":282761896},{"NoteNumber":74,"Velocity":79,"Duration":135550,"SoundDuration":135550,"Delta":282897446},{"NoteNumber":79,"Velocity":93,"Duration":135550,"SoundDuration":135550,"Delta":282897446},{"NoteNumber":50,"Velocity":61,"Duration":183338,"SoundDuration":183338,"Delta":282942630},{"NoteNumber":59,"Velocity":72,"Duration":183338,"SoundDuration":183338,"Delta":282942630},{"NoteNumber":55,"Velocity":63,"Duration":185942,"SoundDuration":185942,"Delta":283125968},{"NoteNumber":62,"Velocity":75,"Duration":185942,"SoundDuration":185942,"Delta":283125968},{"NoteNumber":81,"Velocity":89,"Duration":139456,"SoundDuration":139456,"Delta":283172454},{"NoteNumber":78,"Velocity":75,"Duration":139456,"SoundDuration":139456,"Delta":283172454},{"NoteNumber":79,"Velocity":80,"Duration":136823,"SoundDuration":136823,"Delta":283311911},{"NoteNumber":83,"Velocity":94,"Duration":136823,"SoundDuration":136823,"Delta":283311911},{"NoteNumber":59,"Velocity":63,"Duration":182431,"SoundDuration":182431,"Delta":283311911},{"NoteNumber":67,"Velocity":75,"Duration":182431,"SoundDuration":182431,"Delta":283311911},{"NoteNumber":86,"Velocity":75,"Duration":136823,"SoundDuration":136823,"Delta":283448734},{"NoteNumber":91,"Velocity":89,"Duration":136823,"SoundDuration":136823,"Delta":283448734},{"NoteNumber":55,"Velocity":60,"Duration":184187,"SoundDuration":184187,"Delta":283494342},{"NoteNumber":62,"Velocity":71,"Duration":184187,"SoundDuration":184187,"Delta":283494342},{"NoteNumber":50,"Velocity":52,"Duration":185942,"SoundDuration":185942,"Delta":283678529},{"NoteNumber":59,"Velocity":62,"Duration":185942,"SoundDuration":185942,"Delta":283678529},{"NoteNumber":81,"Velocity":88,"Duration":135550,"SoundDuration":135550,"Delta":283864472},{"NoteNumber":86,"Velocity":104,"Duration":135550,"SoundDuration":135550,"Delta":283864472},{"NoteNumber":42,"Velocity":73,"Duration":180733,"SoundDuration":180733,"Delta":283864472},{"NoteNumber":54,"Velocity":86,"Duration":180733,"SoundDuration":180733,"Delta":283864472},{"NoteNumber":74,"Velocity":79,"Duration":135550,"SoundDuration":135550,"Delta":284000022},{"NoteNumber":78,"Velocity":93,"Duration":135550,"SoundDuration":135550,"Delta":284000022},{"NoteNumber":50,"Velocity":61,"Duration":183338,"SoundDuration":183338,"Delta":284045206},{"NoteNumber":57,"Velocity":72,"Duration":183338,"SoundDuration":183338,"Delta":284045206},{"NoteNumber":54,"Velocity":68,"Duration":185942,"SoundDuration":185942,"Delta":284228544},{"NoteNumber":62,"Velocity":80,"Duration":185942,"SoundDuration":185942,"Delta":284228544},{"NoteNumber":79,"Velocity":91,"Duration":139456,"SoundDuration":139456,"Delta":284275030},{"NoteNumber":76,"Velocity":77,"Duration":139456,"SoundDuration":139456,"Delta":284275030},{"NoteNumber":78,"Velocity":81,"Duration":136823,"SoundDuration":136823,"Delta":284414487},{"NoteNumber":81,"Velocity":96,"Duration":136823,"SoundDuration":136823,"Delta":284414487},{"NoteNumber":57,"Velocity":68,"Duration":182431,"SoundDuration":182431,"Delta":284414487},{"NoteNumber":66,"Velocity":80,"Duration":182431,"SoundDuration":182431,"Delta":284414487},{"NoteNumber":69,"Velocity":77,"Duration":136823,"SoundDuration":136823,"Delta":284551310},{"NoteNumber":74,"Velocity":91,"Duration":136823,"SoundDuration":136823,"Delta":284551310},{"NoteNumber":54,"Velocity":63,"Duration":182001,"SoundDuration":182001,"Delta":284596918},{"NoteNumber":62,"Velocity":75,"Duration":182001,"SoundDuration":182001,"Delta":284596918},{"NoteNumber":50,"Velocity":56,"Duration":181570,"SoundDuration":181570,"Delta":284778919},{"NoteNumber":57,"Velocity":66,"Duration":181570,"SoundDuration":181570,"Delta":284778919},{"NoteNumber":77,"Velocity":88,"Duration":135550,"SoundDuration":135550,"Delta":284960490},{"NoteNumber":81,"Velocity":104,"Duration":135550,"SoundDuration":135550,"Delta":284960490},{"NoteNumber":41,"Velocity":73,"Duration":180733,"SoundDuration":180733,"Delta":284960490},{"NoteNumber":53,"Velocity":86,"Duration":180733,"SoundDuration":180733,"Delta":284960490},{"NoteNumber":69,"Velocity":79,"Duration":135550,"SoundDuration":135550,"Delta":285096040},{"NoteNumber":74,"Velocity":93,"Duration":135550,"SoundDuration":135550,"Delta":285096040},{"NoteNumber":50,"Velocity":61,"Duration":183338,"SoundDuration":183338,"Delta":285141224},{"NoteNumber":57,"Velocity":72,"Duration":183338,"SoundDuration":183338,"Delta":285141224},{"NoteNumber":53,"Velocity":63,"Duration":185942,"SoundDuration":185942,"Delta":285324562},{"NoteNumber":62,"Velocity":75,"Duration":185942,"SoundDuration":185942,"Delta":285324562},{"NoteNumber":76,"Velocity":89,"Duration":139456,"SoundDuration":139456,"Delta":285371048},{"NoteNumber":73,"Velocity":75,"Duration":139456,"SoundDuration":139456,"Delta":285371048},{"NoteNumber":74,"Velocity":80,"Duration":136823,"SoundDuration":136823,"Delta":285510505},{"NoteNumber":77,"Velocity":94,"Duration":136823,"SoundDuration":136823,"Delta":285510505},{"NoteNumber":57,"Velocity":63,"Duration":182431,"SoundDuration":182431,"Delta":285510505},{"NoteNumber":65,"Velocity":75,"Duration":182431,"SoundDuration":182431,"Delta":285510505},{"NoteNumber":81,"Velocity":75,"Duration":136823,"SoundDuration":136823,"Delta":285647328},{"NoteNumber":86,"Velocity":89,"Duration":136823,"SoundDuration":136823,"Delta":285647328},{"NoteNumber":53,"Velocity":60,"Duration":184187,"SoundDuration":184187,"Delta":285692936},{"NoteNumber":62,"Velocity":71,"Duration":184187,"SoundDuration":184187,"Delta":285692936},{"NoteNumber":50,"Velocity":52,"Duration":185942,"SoundDuration":185942,"Delta":285877123},{"NoteNumber":57,"Velocity":62,"Duration":185942,"SoundDuration":185942,"Delta":285877123},{"NoteNumber":81,"Velocity":78,"Duration":180733,"SoundDuration":180733,"Delta":286063066},{"NoteNumber":84,"Velocity":78,"Duration":180733,"SoundDuration":180733,"Delta":286063066},{"NoteNumber":89,"Velocity":92,"Duration":180733,"SoundDuration":180733,"Delta":286063066},{"NoteNumber":41,"Velocity":64,"Duration":180733,"SoundDuration":180733,"Delta":286063066},{"NoteNumber":53,"Velocity":77,"Duration":180733,"SoundDuration":180733,"Delta":286063066},{"NoteNumber":78,"Velocity":86,"Duration":183338,"SoundDuration":183338,"Delta":286243800},{"NoteNumber":48,"Velocity":55,"Duration":183338,"SoundDuration":183338,"Delta":286243800},{"NoteNumber":57,"Velocity":64,"Duration":183338,"SoundDuration":183338,"Delta":286243800},{"NoteNumber":81,"Velocity":75,"Duration":185942,"SoundDuration":185942,"Delta":286427138},{"NoteNumber":84,"Velocity":90,"Duration":185942,"SoundDuration":185942,"Delta":286427138},{"NoteNumber":77,"Velocity":75,"Duration":185942,"SoundDuration":185942,"Delta":286427138},{"NoteNumber":53,"Velocity":60,"Duration":185942,"SoundDuration":185942,"Delta":286427138},{"NoteNumber":60,"Velocity":71,"Duration":185942,"SoundDuration":185942,"Delta":286427138},{"NoteNumber":77,"Velocity":83,"Duration":182431,"SoundDuration":182431,"Delta":286613081},{"NoteNumber":72,"Velocity":77,"Duration":182431,"SoundDuration":182431,"Delta":286613081},{"NoteNumber":57,"Velocity":60,"Duration":182431,"SoundDuration":182431,"Delta":286613081},{"NoteNumber":65,"Velocity":71,"Duration":182431,"SoundDuration":182431,"Delta":286613081},{"NoteNumber":72,"Velocity":77,"Duration":183808,"SoundDuration":183808,"Delta":286795512},{"NoteNumber":77,"Velocity":77,"Duration":183808,"SoundDuration":183808,"Delta":286795512},{"NoteNumber":81,"Velocity":91,"Duration":183808,"SoundDuration":183808,"Delta":286795512},{"NoteNumber":53,"Velocity":57,"Duration":183808,"SoundDuration":183808,"Delta":286795512},{"NoteNumber":60,"Velocity":68,"Duration":183808,"SoundDuration":183808,"Delta":286795512},{"NoteNumber":69,"Velocity":82,"Duration":185185,"SoundDuration":185185,"Delta":286979321},{"NoteNumber":29,"Velocity":49,"Duration":92592,"SoundDuration":92592,"Delta":287071913},{"NoteNumber":41,"Velocity":59,"Duration":92592,"SoundDuration":92592,"Delta":287071913},{"NoteNumber":69,"Velocity":78,"Duration":186046,"SoundDuration":186046,"Delta":287164506},{"NoteNumber":72,"Velocity":78,"Duration":186046,"SoundDuration":186046,"Delta":287164506},{"NoteNumber":77,"Velocity":92,"Duration":186046,"SoundDuration":186046,"Delta":287164506},{"NoteNumber":29,"Velocity":64,"Duration":186046,"SoundDuration":186046,"Delta":287164506},{"NoteNumber":41,"Velocity":77,"Duration":186046,"SoundDuration":186046,"Delta":287164506},{"NoteNumber":66,"Velocity":86,"Duration":188261,"SoundDuration":188261,"Delta":287350553},{"NoteNumber":48,"Velocity":55,"Duration":188261,"SoundDuration":188261,"Delta":287350553},{"NoteNumber":57,"Velocity":64,"Duration":188261,"SoundDuration":188261,"Delta":287350553},{"NoteNumber":69,"Velocity":71,"Duration":190476,"SoundDuration":190476,"Delta":287538814},{"NoteNumber":72,"Velocity":85,"Duration":190476,"SoundDuration":190476,"Delta":287538814},{"NoteNumber":65,"Velocity":71,"Duration":190476,"SoundDuration":190476,"Delta":287538814},{"NoteNumber":53,"Velocity":57,"Duration":190476,"SoundDuration":190476,"Delta":287538814},{"NoteNumber":60,"Velocity":67,"Duration":190476,"SoundDuration":190476,"Delta":287538814},{"NoteNumber":60,"Velocity":78,"Duration":185185,"SoundDuration":185185,"Delta":287729291},{"NoteNumber":57,"Velocity":57,"Duration":181713,"SoundDuration":181713,"Delta":287729291},{"NoteNumber":57,"Velocity":69,"Duration":183856,"SoundDuration":183856,"Delta":287914476},{"NoteNumber":60,"Velocity":69,"Duration":183856,"SoundDuration":183856,"Delta":287914476},{"NoteNumber":65,"Velocity":81,"Duration":183856,"SoundDuration":183856,"Delta":287914476},{"NoteNumber":41,"Velocity":51,"Duration":183856,"SoundDuration":183856,"Delta":287914476},{"NoteNumber":65,"Velocity":73,"Duration":183486,"SoundDuration":183486,"Delta":288098333},{"NoteNumber":53,"Velocity":73,"Duration":183486,"SoundDuration":183486,"Delta":288098333},{"NoteNumber":29,"Velocity":53,"Duration":183486,"SoundDuration":183486,"Delta":288098333},{"NoteNumber":54,"Velocity":73,"Duration":136825,"SoundDuration":136825,"Delta":288281819},{"NoteNumber":66,"Velocity":86,"Duration":136825,"SoundDuration":136825,"Delta":288281819},{"NoteNumber":27,"Velocity":57,"Duration":275614,"SoundDuration":275614,"Delta":288281819},{"NoteNumber":39,"Velocity":57,"Duration":275614,"SoundDuration":275614,"Delta":288281819},{"NoteNumber":63,"Velocity":69,"Duration":138788,"SoundDuration":138788,"Delta":288418645},{"NoteNumber":61,"Velocity":68,"Duration":140816,"SoundDuration":140816,"Delta":288557433},{"NoteNumber":59,"Velocity":59,"Duration":150535,"SoundDuration":150535,"Delta":288698250},{"NoteNumber":66,"Velocity":57,"Duration":136177,"SoundDuration":136177,"Delta":288848785},{"NoteNumber":71,"Velocity":68,"Duration":136177,"SoundDuration":136177,"Delta":288848785},{"NoteNumber":39,"Velocity":46,"Duration":136177,"SoundDuration":136177,"Delta":288848785},{"NoteNumber":59,"Velocity":52,"Duration":136178,"SoundDuration":136178,"Delta":288984963},{"NoteNumber":63,"Velocity":62,"Duration":136178,"SoundDuration":136178,"Delta":288984963},{"NoteNumber":42,"Velocity":39,"Duration":136178,"SoundDuration":136178,"Delta":288984963},{"NoteNumber":54,"Velocity":39,"Duration":140818,"SoundDuration":140818,"Delta":289121141},{"NoteNumber":61,"Velocity":55,"Duration":140818,"SoundDuration":140818,"Delta":289261960},{"NoteNumber":64,"Velocity":66,"Duration":140818,"SoundDuration":140818,"Delta":289261960},{"NoteNumber":47,"Velocity":39,"Duration":140818,"SoundDuration":140818,"Delta":289261960},{"NoteNumber":66,"Velocity":69,"Duration":136177,"SoundDuration":136177,"Delta":289402778},{"NoteNumber":63,"Velocity":58,"Duration":136177,"SoundDuration":136177,"Delta":289402778},{"NoteNumber":42,"Velocity":47,"Duration":136177,"SoundDuration":136177,"Delta":289402778},{"NoteNumber":75,"Velocity":67,"Duration":136178,"SoundDuration":136178,"Delta":289538956},{"NoteNumber":71,"Velocity":56,"Duration":136178,"SoundDuration":136178,"Delta":289538956},{"NoteNumber":47,"Velocity":42,"Duration":136178,"SoundDuration":136178,"Delta":289538956},{"NoteNumber":59,"Velocity":42,"Duration":140134,"SoundDuration":140134,"Delta":289675134},{"NoteNumber":51,"Velocity":44,"Duration":140134,"SoundDuration":140134,"Delta":289815269},{"NoteNumber":75,"Velocity":60,"Duration":136177,"SoundDuration":136177,"Delta":289955403},{"NoteNumber":78,"Velocity":72,"Duration":136177,"SoundDuration":136177,"Delta":289955403},{"NoteNumber":47,"Velocity":49,"Duration":136177,"SoundDuration":136177,"Delta":289955403},{"NoteNumber":66,"Velocity":55,"Duration":136178,"SoundDuration":136178,"Delta":290091581},{"NoteNumber":71,"Velocity":66,"Duration":136178,"SoundDuration":136178,"Delta":290091581},{"NoteNumber":51,"Velocity":42,"Duration":136178,"SoundDuration":136178,"Delta":290091581},{"NoteNumber":63,"Velocity":44,"Duration":139456,"SoundDuration":139456,"Delta":290227759},{"NoteNumber":70,"Velocity":59,"Duration":139456,"SoundDuration":139456,"Delta":290367216},{"NoteNumber":73,"Velocity":70,"Duration":139456,"SoundDuration":139456,"Delta":290367216},{"NoteNumber":54,"Velocity":44,"Duration":139456,"SoundDuration":139456,"Delta":290367216},{"NoteNumber":71,"Velocity":62,"Duration":133333,"SoundDuration":133333,"Delta":290506673},{"NoteNumber":75,"Velocity":74,"Duration":133333,"SoundDuration":133333,"Delta":290506673},{"NoteNumber":51,"Velocity":50,"Duration":133333,"SoundDuration":133333,"Delta":290506673},{"NoteNumber":83,"Velocity":70,"Duration":133333,"SoundDuration":133333,"Delta":290640007},{"NoteNumber":78,"Velocity":58,"Duration":133333,"SoundDuration":133333,"Delta":290640007},{"NoteNumber":54,"Velocity":42,"Duration":133333,"SoundDuration":133333,"Delta":290640007},{"NoteNumber":66,"Velocity":44,"Duration":135135,"SoundDuration":135135,"Delta":290773340},{"NoteNumber":59,"Velocity":44,"Duration":135135,"SoundDuration":135135,"Delta":290908475},{"NoteNumber":83,"Velocity":66,"Duration":131578,"SoundDuration":131578,"Delta":291043610},{"NoteNumber":87,"Velocity":79,"Duration":131578,"SoundDuration":131578,"Delta":291043610},{"NoteNumber":54,"Velocity":56,"Duration":131578,"SoundDuration":131578,"Delta":291043610},{"NoteNumber":75,"Velocity":62,"Duration":131578,"SoundDuration":131578,"Delta":291175189},{"NoteNumber":78,"Velocity":74,"Duration":131578,"SoundDuration":131578,"Delta":291175189},{"NoteNumber":59,"Velocity":48,"Duration":131578,"SoundDuration":131578,"Delta":291175189},{"NoteNumber":71,"Velocity":48,"Duration":134529,"SoundDuration":134529,"Delta":291306768},{"NoteNumber":76,"Velocity":64,"Duration":134529,"SoundDuration":134529,"Delta":291441298},{"NoteNumber":82,"Velocity":75,"Duration":134529,"SoundDuration":134529,"Delta":291441298},{"NoteNumber":63,"Velocity":48,"Duration":134529,"SoundDuration":134529,"Delta":291441298},{"NoteNumber":78,"Velocity":68,"Duration":131004,"SoundDuration":131004,"Delta":291575827},{"NoteNumber":83,"Velocity":80,"Duration":131004,"SoundDuration":131004,"Delta":291575827},{"NoteNumber":59,"Velocity":56,"Duration":131004,"SoundDuration":131004,"Delta":291575827},{"NoteNumber":90,"Velocity":75,"Duration":133376,"SoundDuration":133376,"Delta":291706831},{"NoteNumber":87,"Velocity":63,"Duration":133376,"SoundDuration":133376,"Delta":291706831},{"NoteNumber":63,"Velocity":51,"Duration":133376,"SoundDuration":133376,"Delta":291706831},{"NoteNumber":75,"Velocity":51,"Duration":138121,"SoundDuration":138121,"Delta":291840208},{"NoteNumber":66,"Velocity":52,"Duration":139535,"SoundDuration":139535,"Delta":291978329},{"NoteNumber":79,"Velocity":74,"Duration":188519,"SoundDuration":188519,"Delta":292117864},{"NoteNumber":82,"Velocity":89,"Duration":188519,"SoundDuration":188519,"Delta":292117864},{"NoteNumber":52,"Velocity":62,"Duration":142857,"SoundDuration":142857,"Delta":292117864},{"NoteNumber":58,"Velocity":56,"Duration":136986,"SoundDuration":136986,"Delta":292260722},{"NoteNumber":79,"Velocity":67,"Duration":182648,"SoundDuration":182648,"Delta":292306384},{"NoteNumber":85,"Velocity":67,"Duration":182648,"SoundDuration":182648,"Delta":292306384},{"NoteNumber":91,"Velocity":79,"Duration":182648,"SoundDuration":182648,"Delta":292306384},{"NoteNumber":67,"Velocity":56,"Duration":136986,"SoundDuration":136986,"Delta":292397708},{"NoteNumber":79,"Velocity":67,"Duration":182648,"SoundDuration":182648,"Delta":292489032},{"NoteNumber":85,"Velocity":67,"Duration":182648,"SoundDuration":182648,"Delta":292489032},{"NoteNumber":91,"Velocity":79,"Duration":182648,"SoundDuration":182648,"Delta":292489032},{"NoteNumber":61,"Velocity":56,"Duration":136986,"SoundDuration":136986,"Delta":292534694},{"NoteNumber":79,"Velocity":72,"Duration":136177,"SoundDuration":136177,"Delta":292671680},{"NoteNumber":83,"Velocity":72,"Duration":136177,"SoundDuration":136177,"Delta":292671680},{"NoteNumber":91,"Velocity":85,"Duration":136177,"SoundDuration":136177,"Delta":292671680},{"NoteNumber":51,"Velocity":62,"Duration":136177,"SoundDuration":136177,"Delta":292671680},{"NoteNumber":78,"Velocity":67,"Duration":136178,"SoundDuration":136178,"Delta":292807858},{"NoteNumber":90,"Velocity":79,"Duration":136178,"SoundDuration":136178,"Delta":292807858},{"NoteNumber":54,"Velocity":53,"Duration":136178,"SoundDuration":136178,"Delta":292807858},{"NoteNumber":66,"Velocity":53,"Duration":138785,"SoundDuration":138785,"Delta":292944036},{"NoteNumber":59,"Velocity":53,"Duration":139182,"SoundDuration":139182,"Delta":293082822},{"NoteNumber":66,"Velocity":57,"Duration":136177,"SoundDuration":136177,"Delta":293222005},{"NoteNumber":71,"Velocity":68,"Duration":136177,"SoundDuration":136177,"Delta":293222005},{"NoteNumber":39,"Velocity":46,"Duration":136177,"SoundDuration":136177,"Delta":293222005},{"NoteNumber":59,"Velocity":52,"Duration":136178,"SoundDuration":136178,"Delta":293358183},{"NoteNumber":63,"Velocity":62,"Duration":136178,"SoundDuration":136178,"Delta":293358183},{"NoteNumber":42,"Velocity":39,"Duration":136178,"SoundDuration":136178,"Delta":293358183},{"NoteNumber":54,"Velocity":39,"Duration":140818,"SoundDuration":140818,"Delta":293494361},{"NoteNumber":61,"Velocity":55,"Duration":140818,"SoundDuration":140818,"Delta":293635179},{"NoteNumber":64,"Velocity":66,"Duration":140818,"SoundDuration":140818,"Delta":293635179},{"NoteNumber":47,"Velocity":39,"Duration":140818,"SoundDuration":140818,"Delta":293635179},{"NoteNumber":66,"Velocity":69,"Duration":136177,"SoundDuration":136177,"Delta":293775998},{"NoteNumber":63,"Velocity":58,"Duration":136177,"SoundDuration":136177,"Delta":293775998},{"NoteNumber":42,"Velocity":47,"Duration":136177,"SoundDuration":136177,"Delta":293775998},{"NoteNumber":75,"Velocity":67,"Duration":136178,"SoundDuration":136178,"Delta":293912176},{"NoteNumber":71,"Velocity":56,"Duration":136178,"SoundDuration":136178,"Delta":293912176},{"NoteNumber":47,"Velocity":42,"Duration":136178,"SoundDuration":136178,"Delta":293912176},{"NoteNumber":59,"Velocity":42,"Duration":140134,"SoundDuration":140134,"Delta":294048354},{"NoteNumber":51,"Velocity":44,"Duration":140134,"SoundDuration":140134,"Delta":294188489},{"NoteNumber":75,"Velocity":60,"Duration":136177,"SoundDuration":136177,"Delta":294328623},{"NoteNumber":78,"Velocity":72,"Duration":136177,"SoundDuration":136177,"Delta":294328623},{"NoteNumber":47,"Velocity":49,"Duration":136177,"SoundDuration":136177,"Delta":294328623},{"NoteNumber":66,"Velocity":55,"Duration":136178,"SoundDuration":136178,"Delta":294464801},{"NoteNumber":71,"Velocity":66,"Duration":136178,"SoundDuration":136178,"Delta":294464801},{"NoteNumber":51,"Velocity":42,"Duration":136178,"SoundDuration":136178,"Delta":294464801},{"NoteNumber":63,"Velocity":44,"Duration":139456,"SoundDuration":139456,"Delta":294600979},{"NoteNumber":70,"Velocity":59,"Duration":139456,"SoundDuration":139456,"Delta":294740436},{"NoteNumber":73,"Velocity":70,"Duration":139456,"SoundDuration":139456,"Delta":294740436},{"NoteNumber":54,"Velocity":44,"Duration":139456,"SoundDuration":139456,"Delta":294740436},{"NoteNumber":71,"Velocity":62,"Duration":135135,"SoundDuration":135135,"Delta":294879893},{"NoteNumber":75,"Velocity":74,"Duration":135135,"SoundDuration":135135,"Delta":294879893},{"NoteNumber":51,"Velocity":50,"Duration":135135,"SoundDuration":135135,"Delta":294879893},{"NoteNumber":83,"Velocity":70,"Duration":135135,"SoundDuration":135135,"Delta":295015028},{"NoteNumber":78,"Velocity":58,"Duration":135135,"SoundDuration":135135,"Delta":295015028},{"NoteNumber":54,"Velocity":42,"Duration":135135,"SoundDuration":135135,"Delta":295015028},{"NoteNumber":66,"Velocity":44,"Duration":136986,"SoundDuration":136986,"Delta":295150164},{"NoteNumber":59,"Velocity":44,"Duration":136986,"SoundDuration":136986,"Delta":295287150},{"NoteNumber":83,"Velocity":66,"Duration":132158,"SoundDuration":132158,"Delta":295424136},{"NoteNumber":87,"Velocity":79,"Duration":132158,"SoundDuration":132158,"Delta":295424136},{"NoteNumber":54,"Velocity":56,"Duration":132158,"SoundDuration":132158,"Delta":295424136},{"NoteNumber":75,"Velocity":62,"Duration":132158,"SoundDuration":132158,"Delta":295556295},{"NoteNumber":78,"Velocity":74,"Duration":132158,"SoundDuration":132158,"Delta":295556295},{"NoteNumber":59,"Velocity":48,"Duration":132158,"SoundDuration":132158,"Delta":295556295},{"NoteNumber":71,"Velocity":48,"Duration":135135,"SoundDuration":135135,"Delta":295688453},{"NoteNumber":76,"Velocity":64,"Duration":135135,"SoundDuration":135135,"Delta":295823588},{"NoteNumber":82,"Velocity":75,"Duration":135135,"SoundDuration":135135,"Delta":295823588},{"NoteNumber":63,"Velocity":48,"Duration":135135,"SoundDuration":135135,"Delta":295823588},{"NoteNumber":78,"Velocity":68,"Duration":131578,"SoundDuration":131578,"Delta":295958724},{"NoteNumber":83,"Velocity":80,"Duration":131578,"SoundDuration":131578,"Delta":295958724},{"NoteNumber":59,"Velocity":56,"Duration":131578,"SoundDuration":131578,"Delta":295958724},{"NoteNumber":90,"Velocity":75,"Duration":133759,"SoundDuration":133759,"Delta":296090303},{"NoteNumber":87,"Velocity":63,"Duration":133759,"SoundDuration":133759,"Delta":296090303},{"NoteNumber":63,"Velocity":51,"Duration":133759,"SoundDuration":133759,"Delta":296090303},{"NoteNumber":75,"Velocity":51,"Duration":138121,"SoundDuration":138121,"Delta":296224062},{"NoteNumber":66,"Velocity":52,"Duration":139535,"SoundDuration":139535,"Delta":296362184},{"NoteNumber":79,"Velocity":74,"Duration":186058,"SoundDuration":186058,"Delta":296501719},{"NoteNumber":82,"Velocity":89,"Duration":186058,"SoundDuration":186058,"Delta":296501719},{"NoteNumber":52,"Velocity":62,"Duration":140187,"SoundDuration":140187,"Delta":296501719},{"NoteNumber":58,"Velocity":56,"Duration":137614,"SoundDuration":137614,"Delta":296641906},{"NoteNumber":79,"Velocity":67,"Duration":183909,"SoundDuration":183909,"Delta":296687777},{"NoteNumber":85,"Velocity":67,"Duration":183909,"SoundDuration":183909,"Delta":296687777},{"NoteNumber":91,"Velocity":79,"Duration":183909,"SoundDuration":183909,"Delta":296687777},{"NoteNumber":67,"Velocity":56,"Duration":138248,"SoundDuration":138248,"Delta":296779521},{"NoteNumber":79,"Velocity":67,"Duration":184331,"SoundDuration":184331,"Delta":296871686},{"NoteNumber":85,"Velocity":67,"Duration":184331,"SoundDuration":184331,"Delta":296871686},{"NoteNumber":91,"Velocity":79,"Duration":184331,"SoundDuration":184331,"Delta":296871686},{"NoteNumber":61,"Velocity":56,"Duration":138248,"SoundDuration":138248,"Delta":296917769},{"NoteNumber":80,"Velocity":85,"Duration":181570,"SoundDuration":181570,"Delta":297056018},{"NoteNumber":84,"Velocity":85,"Duration":181570,"SoundDuration":181570,"Delta":297056018},{"NoteNumber":92,"Velocity":85,"Duration":181570,"SoundDuration":181570,"Delta":297056018},{"NoteNumber":41,"Velocity":62,"Duration":181570,"SoundDuration":181570,"Delta":297056018},{"NoteNumber":81,"Velocity":80,"Duration":199480,"SoundDuration":199480,"Delta":297237589},{"NoteNumber":87,"Velocity":80,"Duration":199480,"SoundDuration":199480,"Delta":297237589},{"NoteNumber":93,"Velocity":80,"Duration":199480,"SoundDuration":199480,"Delta":297237589},{"NoteNumber":48,"Velocity":52,"Duration":199480,"SoundDuration":199480,"Delta":297237589},{"NoteNumber":58,"Velocity":56,"Duration":215766,"SoundDuration":215766,"Delta":297437070},{"NoteNumber":70,"Velocity":66,"Duration":215766,"SoundDuration":215766,"Delta":297437070},{"NoteNumber":49,"Velocity":41,"Duration":215766,"SoundDuration":215766,"Delta":297437070},{"NoteNumber":54,"Velocity":34,"Duration":412810,"SoundDuration":412810,"Delta":297437070},{"NoteNumber":57,"Velocity":49,"Duration":197044,"SoundDuration":197044,"Delta":297652836},{"NoteNumber":69,"Velocity":58,"Duration":197044,"SoundDuration":197044,"Delta":297652836},{"NoteNumber":48,"Velocity":38,"Duration":197044,"SoundDuration":197044,"Delta":297652836},{"NoteNumber":63,"Velocity":52,"Duration":205473,"SoundDuration":205473,"Delta":297849880},{"NoteNumber":66,"Velocity":61,"Duration":205473,"SoundDuration":205473,"Delta":297849880},{"NoteNumber":41,"Velocity":39,"Duration":205473,"SoundDuration":205473,"Delta":297849880},{"NoteNumber":61,"Velocity":58,"Duration":197044,"SoundDuration":197044,"Delta":298055354},{"NoteNumber":73,"Velocity":70,"Duration":197044,"SoundDuration":197044,"Delta":298055354},{"NoteNumber":51,"Velocity":36,"Duration":394088,"SoundDuration":394088,"Delta":298055354},{"NoteNumber":58,"Velocity":42,"Duration":197044,"SoundDuration":197044,"Delta":298055354},{"NoteNumber":60,"Velocity":53,"Duration":197044,"SoundDuration":197044,"Delta":298252399},{"NoteNumber":72,"Velocity":63,"Duration":197044,"SoundDuration":197044,"Delta":298252399},{"NoteNumber":57,"Velocity":39,"Duration":197044,"SoundDuration":197044,"Delta":298252399},{"NoteNumber":63,"Velocity":53,"Duration":207217,"SoundDuration":207217,"Delta":298449443},{"NoteNumber":66,"Velocity":63,"Duration":207217,"SoundDuration":207217,"Delta":298449443},{"NoteNumber":41,"Velocity":41,"Duration":207217,"SoundDuration":207217,"Delta":298449443},{"NoteNumber":58,"Velocity":60,"Duration":197044,"SoundDuration":197044,"Delta":298656661},{"NoteNumber":70,"Velocity":72,"Duration":197044,"SoundDuration":197044,"Delta":298656661},{"NoteNumber":49,"Velocity":46,"Duration":197044,"SoundDuration":197044,"Delta":298656661},{"NoteNumber":54,"Velocity":39,"Duration":394088,"SoundDuration":394088,"Delta":298656661},{"NoteNumber":57,"Velocity":55,"Duration":197044,"SoundDuration":197044,"Delta":298853705},{"NoteNumber":69,"Velocity":64,"Duration":197044,"SoundDuration":197044,"Delta":298853705},{"NoteNumber":48,"Velocity":44,"Duration":197044,"SoundDuration":197044,"Delta":298853705},{"NoteNumber":63,"Velocity":57,"Duration":206630,"SoundDuration":206630,"Delta":299050749},{"NoteNumber":66,"Velocity":68,"Duration":206630,"SoundDuration":206630,"Delta":299050749},{"NoteNumber":41,"Velocity":44,"Duration":206630,"SoundDuration":206630,"Delta":299050749},{"NoteNumber":61,"Velocity":62,"Duration":197044,"SoundDuration":197044,"Delta":299257380},{"NoteNumber":73,"Velocity":74,"Duration":197044,"SoundDuration":197044,"Delta":299257380},{"NoteNumber":51,"Velocity":41,"Duration":394088,"SoundDuration":394088,"Delta":299257380},{"NoteNumber":58,"Velocity":48,"Duration":197044,"SoundDuration":197044,"Delta":299257380},{"NoteNumber":60,"Velocity":57,"Duration":197044,"SoundDuration":197044,"Delta":299454424},{"NoteNumber":72,"Velocity":68,"Duration":197044,"SoundDuration":197044,"Delta":299454424},{"NoteNumber":57,"Velocity":46,"Duration":197044,"SoundDuration":197044,"Delta":299454424},{"NoteNumber":63,"Velocity":60,"Duration":206630,"SoundDuration":206630,"Delta":299651468},{"NoteNumber":66,"Velocity":71,"Duration":206630,"SoundDuration":206630,"Delta":299651468},{"NoteNumber":41,"Velocity":46,"Duration":206630,"SoundDuration":206630,"Delta":299651468},{"NoteNumber":66,"Velocity":66,"Duration":197044,"SoundDuration":197044,"Delta":299858099},{"NoteNumber":78,"Velocity":79,"Duration":197044,"SoundDuration":197044,"Delta":299858099},{"NoteNumber":58,"Velocity":51,"Duration":197044,"SoundDuration":197044,"Delta":299858099},{"NoteNumber":63,"Velocity":42,"Duration":394088,"SoundDuration":394088,"Delta":299858099},{"NoteNumber":65,"Velocity":58,"Duration":197044,"SoundDuration":197044,"Delta":300055143},{"NoteNumber":77,"Velocity":70,"Duration":197044,"SoundDuration":197044,"Delta":300055143},{"NoteNumber":57,"Velocity":47,"Duration":197044,"SoundDuration":197044,"Delta":300055143},{"NoteNumber":72,"Velocity":61,"Duration":204905,"SoundDuration":204905,"Delta":300252187},{"NoteNumber":75,"Velocity":72,"Duration":204905,"SoundDuration":204905,"Delta":300252187},{"NoteNumber":53,"Velocity":47,"Duration":204905,"SoundDuration":204905,"Delta":300252187},{"NoteNumber":70,"Velocity":67,"Duration":199009,"SoundDuration":199009,"Delta":300457093},{"NoteNumber":82,"Velocity":80,"Duration":199009,"SoundDuration":199009,"Delta":300457093},{"NoteNumber":66,"Velocity":46,"Duration":396053,"SoundDuration":396053,"Delta":300457093},{"NoteNumber":61,"Velocity":53,"Duration":199009,"SoundDuration":199009,"Delta":300457093},{"NoteNumber":69,"Velocity":61,"Duration":197044,"SoundDuration":197044,"Delta":300656102},{"NoteNumber":81,"Velocity":73,"Duration":197044,"SoundDuration":197044,"Delta":300656102},{"NoteNumber":60,"Velocity":49,"Duration":197044,"SoundDuration":197044,"Delta":300656102},{"NoteNumber":75,"Velocity":63,"Duration":203234,"SoundDuration":203234,"Delta":300853146},{"NoteNumber":78,"Velocity":75,"Duration":203234,"SoundDuration":203234,"Delta":300853146},{"NoteNumber":53,"Velocity":50,"Duration":203234,"SoundDuration":203234,"Delta":300853146},{"NoteNumber":73,"Velocity":72,"Duration":197044,"SoundDuration":197044,"Delta":301056381},{"NoteNumber":85,"Velocity":85,"Duration":197044,"SoundDuration":197044,"Delta":301056381},{"NoteNumber":63,"Velocity":48,"Duration":394088,"SoundDuration":394088,"Delta":301056381},{"NoteNumber":70,"Velocity":56,"Duration":197044,"SoundDuration":197044,"Delta":301056381},{"NoteNumber":84,"Velocity":75,"Duration":197044,"SoundDuration":197044,"Delta":301253425},{"NoteNumber":72,"Velocity":63,"Duration":197044,"SoundDuration":197044,"Delta":301253425},{"NoteNumber":69,"Velocity":50,"Duration":197044,"SoundDuration":197044,"Delta":301253425},{"NoteNumber":78,"Velocity":81,"Duration":203234,"SoundDuration":203234,"Delta":301450469},{"NoteNumber":75,"Velocity":68,"Duration":203234,"SoundDuration":203234,"Delta":301450469},{"NoteNumber":53,"Velocity":51,"Duration":203234,"SoundDuration":203234,"Delta":301450469},{"NoteNumber":90,"Velocity":89,"Duration":396049,"SoundDuration":396049,"Delta":301653703},{"NoteNumber":78,"Velocity":74,"Duration":396049,"SoundDuration":396049,"Delta":301653703},{"NoteNumber":70,"Velocity":49,"Duration":197044,"SoundDuration":197044,"Delta":301653703},{"NoteNumber":75,"Velocity":59,"Duration":396049,"SoundDuration":396049,"Delta":301653703},{"NoteNumber":69,"Velocity":58,"Duration":199004,"SoundDuration":199004,"Delta":301850748},{"NoteNumber":84,"Velocity":63,"Duration":201025,"SoundDuration":201025,"Delta":302049753},{"NoteNumber":89,"Velocity":75,"Duration":201025,"SoundDuration":201025,"Delta":302049753},{"NoteNumber":78,"Velocity":62,"Duration":203045,"SoundDuration":203045,"Delta":302250778},{"NoteNumber":88,"Velocity":74,"Duration":203045,"SoundDuration":203045,"Delta":302250778},{"NoteNumber":84,"Velocity":64,"Duration":203045,"SoundDuration":203045,"Delta":302453824},{"NoteNumber":87,"Velocity":77,"Duration":203045,"SoundDuration":203045,"Delta":302453824},{"NoteNumber":78,"Velocity":62,"Duration":203045,"SoundDuration":203045,"Delta":302656869},{"NoteNumber":86,"Velocity":73,"Duration":203045,"SoundDuration":203045,"Delta":302656869},{"NoteNumber":81,"Velocity":58,"Duration":203045,"SoundDuration":203045,"Delta":302859915},{"NoteNumber":85,"Velocity":70,"Duration":203045,"SoundDuration":203045,"Delta":302859915},{"NoteNumber":75,"Velocity":62,"Duration":203045,"SoundDuration":203045,"Delta":303062961},{"NoteNumber":84,"Velocity":73,"Duration":203045,"SoundDuration":203045,"Delta":303062961},{"NoteNumber":65,"Velocity":56,"Duration":609137,"SoundDuration":609137,"Delta":303062961},{"NoteNumber":78,"Velocity":58,"Duration":203045,"SoundDuration":203045,"Delta":303266006},{"NoteNumber":83,"Velocity":68,"Duration":203045,"SoundDuration":203045,"Delta":303266006},{"NoteNumber":75,"Velocity":55,"Duration":203045,"SoundDuration":203045,"Delta":303469052},{"NoteNumber":82,"Velocity":66,"Duration":203045,"SoundDuration":203045,"Delta":303469052},{"NoteNumber":78,"Velocity":58,"Duration":203045,"SoundDuration":203045,"Delta":303672098},{"NoteNumber":81,"Velocity":69,"Duration":203045,"SoundDuration":203045,"Delta":303672098},{"NoteNumber":65,"Velocity":55,"Duration":609136,"SoundDuration":609136,"Delta":303672098},{"NoteNumber":72,"Velocity":53,"Duration":203045,"SoundDuration":203045,"Delta":303875143},{"NoteNumber":80,"Velocity":63,"Duration":203045,"SoundDuration":203045,"Delta":303875143},{"NoteNumber":79,"Velocity":63,"Duration":203045,"SoundDuration":203045,"Delta":304078189},{"NoteNumber":75,"Velocity":53,"Duration":203045,"SoundDuration":203045,"Delta":304078189},{"NoteNumber":69,"Velocity":52,"Duration":201260,"SoundDuration":201260,"Delta":304281235},{"NoteNumber":78,"Velocity":62,"Duration":201260,"SoundDuration":201260,"Delta":304281235},{"NoteNumber":65,"Velocity":49,"Duration":1221600,"SoundDuration":1221600,"Delta":304281235},{"NoteNumber":72,"Velocity":49,"Duration":201893,"SoundDuration":201893,"Delta":304482495},{"NoteNumber":77,"Velocity":59,"Duration":201893,"SoundDuration":201893,"Delta":304482495},{"NoteNumber":69,"Velocity":49,"Duration":202917,"SoundDuration":202917,"Delta":304684388},{"NoteNumber":76,"Velocity":59,"Duration":202917,"SoundDuration":202917,"Delta":304684388},{"NoteNumber":72,"Velocity":49,"Duration":204081,"SoundDuration":204081,"Delta":304887306},{"NoteNumber":75,"Velocity":59,"Duration":204081,"SoundDuration":204081,"Delta":304887306},{"NoteNumber":63,"Velocity":45,"Duration":205128,"SoundDuration":205128,"Delta":305091387},{"NoteNumber":74,"Velocity":53,"Duration":205128,"SoundDuration":205128,"Delta":305091387},{"NoteNumber":69,"Velocity":46,"Duration":206319,"SoundDuration":206319,"Delta":305296516},{"NoteNumber":73,"Velocity":53,"Duration":206319,"SoundDuration":206319,"Delta":305296516},{"NoteNumber":63,"Velocity":53,"Duration":207253,"SoundDuration":207253,"Delta":305502835},{"NoteNumber":72,"Velocity":53,"Duration":207253,"SoundDuration":207253,"Delta":305502835},{"NoteNumber":53,"Velocity":40,"Duration":621761,"SoundDuration":621761,"Delta":305502835},{"NoteNumber":69,"Velocity":49,"Duration":207254,"SoundDuration":207254,"Delta":305710089},{"NoteNumber":71,"Velocity":49,"Duration":207254,"SoundDuration":207254,"Delta":305710089},{"NoteNumber":63,"Velocity":49,"Duration":207253,"SoundDuration":207253,"Delta":305917343},{"NoteNumber":74,"Velocity":49,"Duration":207253,"SoundDuration":207253,"Delta":305917343},{"NoteNumber":69,"Velocity":52,"Duration":216977,"SoundDuration":216977,"Delta":306124597},{"NoteNumber":72,"Velocity":52,"Duration":216977,"SoundDuration":216977,"Delta":306124597},{"NoteNumber":53,"Velocity":34,"Duration":596646,"SoundDuration":596646,"Delta":306124597},{"NoteNumber":69,"Velocity":53,"Duration":225543,"SoundDuration":225543,"Delta":306341575},{"NoteNumber":79,"Velocity":53,"Duration":225543,"SoundDuration":225543,"Delta":306341575},{"NoteNumber":75,"Velocity":49,"Duration":154125,"SoundDuration":154125,"Delta":306567118},{"NoteNumber":77,"Velocity":49,"Duration":154125,"SoundDuration":154125,"Delta":306567118},{"NoteNumber":62,"Velocity":39,"Duration":108695,"SoundDuration":108695,"Delta":306721243},{"NoteNumber":34,"Velocity":39,"Duration":108695,"SoundDuration":108695,"Delta":306721243},{"NoteNumber":62,"Velocity":41,"Duration":1273210,"SoundDuration":1273210,"Delta":306829939},{"NoteNumber":70,"Velocity":41,"Duration":1273210,"SoundDuration":1273210,"Delta":306829939},{"NoteNumber":77,"Velocity":49,"Duration":1273210,"SoundDuration":1273210,"Delta":306829939},{"NoteNumber":46,"Velocity":31,"Duration":1897650,"SoundDuration":1897650,"Delta":306829939},{"NoteNumber":53,"Velocity":37,"Duration":1273210,"SoundDuration":1273210,"Delta":306829939},{"NoteNumber":65,"Velocity":41,"Duration":624440,"SoundDuration":624440,"Delta":308103149},{"NoteNumber":70,"Velocity":41,"Duration":624440,"SoundDuration":624440,"Delta":308103149},{"NoteNumber":74,"Velocity":49,"Duration":624440,"SoundDuration":624440,"Delta":308103149},{"NoteNumber":58,"Velocity":37,"Duration":1248855,"SoundDuration":1248855,"Delta":308103149},{"NoteNumber":67,"Velocity":37,"Duration":624415,"SoundDuration":624415,"Delta":308727589},{"NoteNumber":72,"Velocity":37,"Duration":624415,"SoundDuration":624415,"Delta":308727589},{"NoteNumber":75,"Velocity":44,"Duration":624415,"SoundDuration":624415,"Delta":308727589},{"NoteNumber":51,"Velocity":39,"Duration":624415,"SoundDuration":624415,"Delta":308727589},{"NoteNumber":41,"Velocity":29,"Duration":2659397,"SoundDuration":2659397,"Delta":309273952},{"NoteNumber":63,"Velocity":39,"Duration":2581345,"SoundDuration":2581345,"Delta":309352004},{"NoteNumber":74,"Velocity":47,"Duration":1279453,"SoundDuration":1279453,"Delta":309352004},{"NoteNumber":53,"Velocity":39,"Duration":1599317,"SoundDuration":1599317,"Delta":309352004},{"NoteNumber":72,"Velocity":41,"Duration":1301891,"SoundDuration":1301891,"Delta":310631458},{"NoteNumber":54,"Velocity":33,"Duration":319863,"SoundDuration":319863,"Delta":310951322},{"NoteNumber":55,"Velocity":35,"Duration":319863,"SoundDuration":319863,"Delta":311271185},{"NoteNumber":53,"Velocity":33,"Duration":342301,"SoundDuration":342301,"Delta":311591049},{"NoteNumber":62,"Velocity":41,"Duration":655665,"SoundDuration":655665,"Delta":311933350},{"NoteNumber":70,"Velocity":41,"Duration":655665,"SoundDuration":655665,"Delta":311933350},{"NoteNumber":77,"Velocity":49,"Duration":655665,"SoundDuration":655665,"Delta":311933350},{"NoteNumber":46,"Velocity":33,"Duration":1311331,"SoundDuration":1311331,"Delta":311933350},{"NoteNumber":70,"Velocity":41,"Duration":655665,"SoundDuration":655665,"Delta":312589016},{"NoteNumber":65,"Velocity":41,"Duration":655665,"SoundDuration":655665,"Delta":312589016},{"NoteNumber":74,"Velocity":49,"Duration":655665,"SoundDuration":655665,"Delta":312589016},{"NoteNumber":67,"Velocity":41,"Duration":312272,"SoundDuration":312272,"Delta":313244682},{"NoteNumber":70,"Velocity":41,"Duration":635270,"SoundDuration":635270,"Delta":313244682},{"NoteNumber":75,"Velocity":49,"Duration":312272,"SoundDuration":312272,"Delta":313244682},{"NoteNumber":58,"Velocity":39,"Duration":635270,"SoundDuration":635270,"Delta":313244682},{"NoteNumber":65,"Velocity":39,"Duration":322997,"SoundDuration":322997,"Delta":313556955},{"NoteNumber":74,"Velocity":47,"Duration":322997,"SoundDuration":322997,"Delta":313556955},{"NoteNumber":71,"Velocity":37,"Duration":312207,"SoundDuration":312207,"Delta":313879952},{"NoteNumber":68,"Velocity":37,"Duration":312207,"SoundDuration":312207,"Delta":313879952},{"NoteNumber":77,"Velocity":44,"Duration":312207,"SoundDuration":312207,"Delta":313879952},{"NoteNumber":51,"Velocity":39,"Duration":632070,"SoundDuration":632070,"Delta":313879952},{"NoteNumber":72,"Velocity":35,"Duration":319863,"SoundDuration":319863,"Delta":314192160},{"NoteNumber":67,"Velocity":35,"Duration":319863,"SoundDuration":319863,"Delta":314192160},{"NoteNumber":75,"Velocity":41,"Duration":319863,"SoundDuration":319863,"Delta":314192160},{"NoteNumber":63,"Velocity":31,"Duration":2546598,"SoundDuration":2546598,"Delta":314512023},{"NoteNumber":69,"Velocity":36,"Duration":2546598,"SoundDuration":2546598,"Delta":314512023},{"NoteNumber":74,"Velocity":45,"Duration":1279453,"SoundDuration":1279453,"Delta":314512023},{"NoteNumber":53,"Velocity":29,"Duration":319863,"SoundDuration":319863,"Delta":314512023},{"NoteNumber":54,"Velocity":37,"Duration":319863,"SoundDuration":319863,"Delta":314831887},{"NoteNumber":57,"Velocity":35,"Duration":213242,"SoundDuration":213242,"Delta":315151750},{"NoteNumber":55,"Velocity":34,"Duration":213242,"SoundDuration":213242,"Delta":315364993},{"NoteNumber":53,"Velocity":34,"Duration":213242,"SoundDuration":213242,"Delta":315578235},{"NoteNumber":72,"Velocity":41,"Duration":1267144,"SoundDuration":1267144,"Delta":315791477},{"NoteNumber":41,"Velocity":29,"Duration":313709,"SoundDuration":313709,"Delta":315791477},{"NoteNumber":42,"Velocity":37,"Duration":313708,"SoundDuration":313708,"Delta":316105186},{"NoteNumber":45,"Velocity":35,"Duration":213242,"SoundDuration":213242,"Delta":316418895},{"NoteNumber":43,"Velocity":34,"Duration":213242,"SoundDuration":213242,"Delta":316632138},{"NoteNumber":41,"Velocity":34,"Duration":213242,"SoundDuration":213242,"Delta":316845380},{"NoteNumber":70,"Velocity":40,"Duration":639726,"SoundDuration":639726,"Delta":317058622},{"NoteNumber":62,"Velocity":42,"Duration":639726,"SoundDuration":639726,"Delta":317058622},{"NoteNumber":77,"Velocity":53,"Duration":639726,"SoundDuration":639726,"Delta":317058622},{"NoteNumber":34,"Velocity":39,"Duration":319863,"SoundDuration":319863,"Delta":317058622},{"NoteNumber":67,"Velocity":37,"Duration":639726,"SoundDuration":639726,"Delta":317698349},{"NoteNumber":70,"Velocity":40,"Duration":639726,"SoundDuration":639726,"Delta":317698349},{"NoteNumber":79,"Velocity":51,"Duration":639726,"SoundDuration":639726,"Delta":317698349},{"NoteNumber":61,"Velocity":36,"Duration":639726,"SoundDuration":639726,"Delta":317698349},{"NoteNumber":64,"Velocity":44,"Duration":639726,"SoundDuration":639726,"Delta":317698349},{"NoteNumber":69,"Velocity":44,"Duration":624446,"SoundDuration":624446,"Delta":318338076},{"NoteNumber":75,"Velocity":44,"Duration":1248861,"SoundDuration":1248861,"Delta":318338076},{"NoteNumber":81,"Velocity":52,"Duration":624446,"SoundDuration":624446,"Delta":318338076},{"NoteNumber":60,"Velocity":37,"Duration":1248861,"SoundDuration":1248861,"Delta":318338076},{"NoteNumber":53,"Velocity":37,"Duration":1248861,"SoundDuration":1248861,"Delta":318338076},{"NoteNumber":63,"Velocity":44,"Duration":624446,"SoundDuration":624446,"Delta":318338076},{"NoteNumber":70,"Velocity":51,"Duration":468311,"SoundDuration":468311,"Delta":318962523},{"NoteNumber":82,"Velocity":58,"Duration":468311,"SoundDuration":468311,"Delta":318962523},{"NoteNumber":67,"Velocity":44,"Duration":468311,"SoundDuration":468311,"Delta":318962523},{"NoteNumber":72,"Velocity":53,"Duration":156103,"SoundDuration":156103,"Delta":319430835},{"NoteNumber":81,"Velocity":53,"Duration":156103,"SoundDuration":156103,"Delta":319430835},{"NoteNumber":84,"Velocity":60,"Duration":156103,"SoundDuration":156103,"Delta":319430835},{"NoteNumber":65,"Velocity":40,"Duration":78051,"SoundDuration":78051,"Delta":319430835},{"NoteNumber":46,"Velocity":39,"Duration":702466,"SoundDuration":702466,"Delta":319508886},{"NoteNumber":53,"Velocity":39,"Duration":663440,"SoundDuration":663440,"Delta":319547912},{"NoteNumber":74,"Velocity":48,"Duration":624415,"SoundDuration":624415,"Delta":319586938},{"NoteNumber":82,"Velocity":51,"Duration":624415,"SoundDuration":624415,"Delta":319586938},{"NoteNumber":86,"Velocity":61,"Duration":624415,"SoundDuration":624415,"Delta":319586938},{"NoteNumber":65,"Velocity":46,"Duration":624415,"SoundDuration":624415,"Delta":319586938},{"NoteNumber":67,"Velocity":44,"Duration":655665,"SoundDuration":655665,"Delta":320211353},{"NoteNumber":70,"Velocity":44,"Duration":655665,"SoundDuration":655665,"Delta":320211353},{"NoteNumber":73,"Velocity":44,"Duration":655665,"SoundDuration":655665,"Delta":320211353},{"NoteNumber":79,"Velocity":51,"Duration":655665,"SoundDuration":655665,"Delta":320211353},{"NoteNumber":64,"Velocity":44,"Duration":655665,"SoundDuration":655665,"Delta":320211353},{"NoteNumber":69,"Velocity":44,"Duration":546428,"SoundDuration":546428,"Delta":320867019},{"NoteNumber":72,"Velocity":44,"Duration":624480,"SoundDuration":624480,"Delta":320867019},{"NoteNumber":81,"Velocity":52,"Duration":546428,"SoundDuration":546428,"Delta":320867019},{"NoteNumber":63,"Velocity":37,"Duration":624480,"SoundDuration":624480,"Delta":320867019},{"NoteNumber":60,"Velocity":37,"Duration":624480,"SoundDuration":624480,"Delta":320867019},{"NoteNumber":53,"Velocity":37,"Duration":624480,"SoundDuration":624480,"Delta":320867019},{"NoteNumber":65,"Velocity":44,"Duration":624480,"SoundDuration":624480,"Delta":320867019},{"NoteNumber":67,"Velocity":56,"Duration":708561,"SoundDuration":708561,"Delta":321413448},{"NoteNumber":72,"Velocity":56,"Duration":669535,"SoundDuration":669535,"Delta":321452474},{"NoteNumber":82,"Velocity":58,"Duration":471358,"SoundDuration":471358,"Delta":321491499},{"NoteNumber":51,"Velocity":37,"Duration":630510,"SoundDuration":630510,"Delta":321491499},{"NoteNumber":55,"Velocity":37,"Duration":630510,"SoundDuration":630510,"Delta":321491499},{"NoteNumber":60,"Velocity":37,"Duration":630510,"SoundDuration":630510,"Delta":321491499},{"NoteNumber":63,"Velocity":37,"Duration":630510,"SoundDuration":630510,"Delta":321491499},{"NoteNumber":84,"Velocity":60,"Duration":159151,"SoundDuration":159151,"Delta":321962858},{"NoteNumber":74,"Velocity":53,"Duration":644260,"SoundDuration":644260,"Delta":322122009},{"NoteNumber":81,"Velocity":53,"Duration":644260,"SoundDuration":644260,"Delta":322122009},{"NoteNumber":86,"Velocity":63,"Duration":644260,"SoundDuration":644260,"Delta":322122009},{"NoteNumber":60,"Velocity":41,"Duration":644260,"SoundDuration":644260,"Delta":322122009},{"NoteNumber":57,"Velocity":41,"Duration":644260,"SoundDuration":644260,"Delta":322122009},{"NoteNumber":50,"Velocity":41,"Duration":644260,"SoundDuration":644260,"Delta":322122009},{"NoteNumber":66,"Velocity":49,"Duration":644260,"SoundDuration":644260,"Delta":322122009},{"NoteNumber":72,"Velocity":50,"Duration":644261,"SoundDuration":644261,"Delta":322766270},{"NoteNumber":81,"Velocity":53,"Duration":644261,"SoundDuration":644261,"Delta":322766270},{"NoteNumber":74,"Velocity":53,"Duration":644261,"SoundDuration":644261,"Delta":322766270},{"NoteNumber":84,"Velocity":60,"Duration":644261,"SoundDuration":644261,"Delta":322766270},{"NoteNumber":30,"Velocity":36,"Duration":644261,"SoundDuration":644261,"Delta":322766270},{"NoteNumber":42,"Velocity":42,"Duration":644261,"SoundDuration":644261,"Delta":322766270},{"NoteNumber":74,"Velocity":53,"Duration":644260,"SoundDuration":644260,"Delta":323410531},{"NoteNumber":70,"Velocity":53,"Duration":644260,"SoundDuration":644260,"Delta":323410531},{"NoteNumber":79,"Velocity":63,"Duration":644260,"SoundDuration":644260,"Delta":323410531},{"NoteNumber":82,"Velocity":63,"Duration":644260,"SoundDuration":644260,"Delta":323410531},{"NoteNumber":31,"Velocity":41,"Duration":644260,"SoundDuration":644260,"Delta":323410531},{"NoteNumber":43,"Velocity":49,"Duration":644260,"SoundDuration":644260,"Delta":323410531},{"NoteNumber":73,"Velocity":53,"Duration":468311,"SoundDuration":468311,"Delta":324054792},{"NoteNumber":77,"Velocity":53,"Duration":468311,"SoundDuration":468311,"Delta":324054792},{"NoteNumber":81,"Velocity":63,"Duration":468311,"SoundDuration":468311,"Delta":324054792},{"NoteNumber":33,"Velocity":41,"Duration":468311,"SoundDuration":468311,"Delta":324054792},{"NoteNumber":45,"Velocity":49,"Duration":468311,"SoundDuration":468311,"Delta":324054792},{"NoteNumber":67,"Velocity":54,"Duration":156103,"SoundDuration":156103,"Delta":324523104},{"NoteNumber":74,"Velocity":57,"Duration":156103,"SoundDuration":156103,"Delta":324523104},{"NoteNumber":79,"Velocity":57,"Duration":156103,"SoundDuration":156103,"Delta":324523104},{"NoteNumber":34,"Velocity":37,"Duration":156103,"SoundDuration":156103,"Delta":324523104},{"NoteNumber":46,"Velocity":45,"Duration":156103,"SoundDuration":156103,"Delta":324523104},{"NoteNumber":65,"Velocity":51,"Duration":639726,"SoundDuration":639726,"Delta":324679207},{"NoteNumber":67,"Velocity":51,"Duration":639726,"SoundDuration":639726,"Delta":324679207},{"NoteNumber":74,"Velocity":56,"Duration":639726,"SoundDuration":639726,"Delta":324679207},{"NoteNumber":77,"Velocity":61,"Duration":639726,"SoundDuration":639726,"Delta":324679207},{"NoteNumber":35,"Velocity":41,"Duration":639726,"SoundDuration":639726,"Delta":324679207},{"NoteNumber":47,"Velocity":49,"Duration":639726,"SoundDuration":639726,"Delta":324679207},{"NoteNumber":63,"Velocity":49,"Duration":468311,"SoundDuration":468311,"Delta":325318934},{"NoteNumber":67,"Velocity":49,"Duration":468311,"SoundDuration":468311,"Delta":325318934},{"NoteNumber":72,"Velocity":59,"Duration":468311,"SoundDuration":468311,"Delta":325318934},{"NoteNumber":75,"Velocity":59,"Duration":468311,"SoundDuration":468311,"Delta":325318934},{"NoteNumber":36,"Velocity":41,"Duration":468311,"SoundDuration":468311,"Delta":325318934},{"NoteNumber":48,"Velocity":49,"Duration":468311,"SoundDuration":468311,"Delta":325318934},{"NoteNumber":66,"Velocity":47,"Duration":156103,"SoundDuration":156103,"Delta":325787246},{"NoteNumber":70,"Velocity":56,"Duration":156103,"SoundDuration":156103,"Delta":325787246},{"NoteNumber":74,"Velocity":56,"Duration":156103,"SoundDuration":156103,"Delta":325787246},{"NoteNumber":38,"Velocity":37,"Duration":156103,"SoundDuration":156103,"Delta":325787246},{"NoteNumber":50,"Velocity":45,"Duration":156103,"SoundDuration":156103,"Delta":325787246},{"NoteNumber":60,"Velocity":52,"Duration":1307861,"SoundDuration":1307861,"Delta":325943349},{"NoteNumber":72,"Velocity":59,"Duration":1307861,"SoundDuration":1307861,"Delta":325943349},{"NoteNumber":67,"Velocity":49,"Duration":624414,"SoundDuration":624414,"Delta":325943349},{"NoteNumber":70,"Velocity":59,"Duration":624414,"SoundDuration":624414,"Delta":325943349},{"NoteNumber":39,"Velocity":41,"Duration":624414,"SoundDuration":624414,"Delta":325943349},{"NoteNumber":51,"Velocity":49,"Duration":624414,"SoundDuration":624414,"Delta":325943349},{"NoteNumber":65,"Velocity":45,"Duration":332815,"SoundDuration":332815,"Delta":326567764},{"NoteNumber":69,"Velocity":49,"Duration":332815,"SoundDuration":332815,"Delta":326567764},{"NoteNumber":41,"Velocity":41,"Duration":683446,"SoundDuration":683446,"Delta":326567764},{"NoteNumber":53,"Velocity":46,"Duration":683446,"SoundDuration":683446,"Delta":326567764},{"NoteNumber":63,"Velocity":43,"Duration":350631,"SoundDuration":350631,"Delta":326900580},{"NoteNumber":67,"Velocity":50,"Duration":350631,"SoundDuration":350631,"Delta":326900580},{"NoteNumber":62,"Velocity":45,"Duration":1279453,"SoundDuration":1279453,"Delta":327251211},{"NoteNumber":70,"Velocity":49,"Duration":1279453,"SoundDuration":1279453,"Delta":327251211},{"NoteNumber":77,"Velocity":64,"Duration":1279453,"SoundDuration":1279453,"Delta":327251211},{"NoteNumber":34,"Velocity":39,"Duration":213242,"SoundDuration":213242,"Delta":327251211},{"NoteNumber":52,"Velocity":33,"Duration":213242,"SoundDuration":213242,"Delta":327464453},{"NoteNumber":53,"Velocity":31,"Duration":213242,"SoundDuration":213242,"Delta":327677696},{"NoteNumber":55,"Velocity":37,"Duration":213242,"SoundDuration":213242,"Delta":327890938},{"NoteNumber":53,"Velocity":31,"Duration":213242,"SoundDuration":213242,"Delta":328104180},{"NoteNumber":41,"Velocity":31,"Duration":213242,"SoundDuration":213242,"Delta":328317423},{"NoteNumber":65,"Velocity":49,"Duration":624414,"SoundDuration":624414,"Delta":328530665},{"NoteNumber":70,"Velocity":49,"Duration":624414,"SoundDuration":624414,"Delta":328530665},{"NoteNumber":74,"Velocity":60,"Duration":624414,"SoundDuration":624414,"Delta":328530665},{"NoteNumber":46,"Velocity":39,"Duration":208138,"SoundDuration":208138,"Delta":328530665},{"NoteNumber":52,"Velocity":35,"Duration":208138,"SoundDuration":208138,"Delta":328738803},{"NoteNumber":53,"Velocity":35,"Duration":208138,"SoundDuration":208138,"Delta":328946942},{"NoteNumber":62,"Velocity":34,"Duration":319863,"SoundDuration":319863,"Delta":329155080},{"NoteNumber":65,"Velocity":39,"Duration":319863,"SoundDuration":319863,"Delta":329155080},{"NoteNumber":55,"Velocity":37,"Duration":213242,"SoundDuration":213242,"Delta":329155080},{"NoteNumber":53,"Velocity":33,"Duration":217559,"SoundDuration":217559,"Delta":329368322},{"NoteNumber":67,"Velocity":41,"Duration":332815,"SoundDuration":332815,"Delta":329474943},{"NoteNumber":72,"Velocity":41,"Duration":332815,"SoundDuration":332815,"Delta":329474943},{"NoteNumber":75,"Velocity":55,"Duration":332815,"SoundDuration":332815,"Delta":329474943},{"NoteNumber":41,"Velocity":33,"Duration":221877,"SoundDuration":221877,"Delta":329585882},{"NoteNumber":74,"Velocity":68,"Duration":947281,"SoundDuration":947281,"Delta":329807759},{"NoteNumber":63,"Velocity":35,"Duration":1267144,"SoundDuration":1267144,"Delta":329807759},{"NoteNumber":69,"Velocity":42,"Duration":1267144,"SoundDuration":1267144,"Delta":329807759},{"NoteNumber":48,"Velocity":39,"Duration":209139,"SoundDuration":209139,"Delta":329807759},{"NoteNumber":52,"Velocity":35,"Duration":209139,"SoundDuration":209139,"Delta":330016898},{"NoteNumber":53,"Velocity":35,"Duration":209139,"SoundDuration":209139,"Delta":330226038},{"NoteNumber":55,"Velocity":37,"Duration":213242,"SoundDuration":213242,"Delta":330435177},{"NoteNumber":53,"Velocity":33,"Duration":213242,"SoundDuration":213242,"Delta":330648419},{"NoteNumber":72,"Velocity":55,"Duration":319863,"SoundDuration":319863,"Delta":330755040},{"NoteNumber":41,"Velocity":33,"Duration":213242,"SoundDuration":213242,"Delta":330861662},{"NoteNumber":67,"Velocity":58,"Duration":312207,"SoundDuration":312207,"Delta":331074904},{"NoteNumber":51,"Velocity":39,"Duration":208138,"SoundDuration":208138,"Delta":331074904},{"NoteNumber":52,"Velocity":35,"Duration":208138,"SoundDuration":208138,"Delta":331283042},{"NoteNumber":65,"Velocity":52,"Duration":312207,"SoundDuration":312207,"Delta":331387111},{"NoteNumber":53,"Velocity":35,"Duration":208138,"SoundDuration":208138,"Delta":331491181},{"NoteNumber":58,"Velocity":61,"Duration":321405,"SoundDuration":321405,"Delta":331699319},{"NoteNumber":55,"Velocity":37,"Duration":214270,"SoundDuration":214270,"Delta":331699319},{"NoteNumber":53,"Velocity":33,"Duration":216748,"SoundDuration":216748,"Delta":331913589},{"NoteNumber":60,"Velocity":55,"Duration":331662,"SoundDuration":331662,"Delta":332020724},{"NoteNumber":41,"Velocity":33,"Duration":222049,"SoundDuration":222049,"Delta":332130338},{"NoteNumber":62,"Velocity":55,"Duration":639726,"SoundDuration":639726,"Delta":332352387},{"NoteNumber":70,"Velocity":54,"Duration":1279453,"SoundDuration":1279453,"Delta":332352387},{"NoteNumber":77,"Velocity":68,"Duration":639726,"SoundDuration":639726,"Delta":332352387},{"NoteNumber":34,"Velocity":39,"Duration":319863,"SoundDuration":319863,"Delta":332352387},{"NoteNumber":52,"Velocity":34,"Duration":159931,"SoundDuration":159931,"Delta":332672251},{"NoteNumber":53,"Velocity":33,"Duration":159931,"SoundDuration":159931,"Delta":332832183},{"NoteNumber":65,"Velocity":49,"Duration":639726,"SoundDuration":639726,"Delta":332992114},{"NoteNumber":74,"Velocity":62,"Duration":639726,"SoundDuration":639726,"Delta":332992114},{"NoteNumber":55,"Velocity":37,"Duration":159931,"SoundDuration":159931,"Delta":332992114},{"NoteNumber":53,"Velocity":31,"Duration":143938,"SoundDuration":143938,"Delta":333152046},{"NoteNumber":53,"Velocity":37,"Duration":159931,"SoundDuration":159931,"Delta":333311978},{"NoteNumber":41,"Velocity":37,"Duration":159931,"SoundDuration":159931,"Delta":333471910},{"NoteNumber":70,"Velocity":57,"Duration":1264141,"SoundDuration":1264141,"Delta":333631841},{"NoteNumber":67,"Velocity":55,"Duration":312207,"SoundDuration":312207,"Delta":333631841},{"NoteNumber":75,"Velocity":66,"Duration":312207,"SoundDuration":312207,"Delta":333631841},{"NoteNumber":46,"Velocity":39,"Duration":312207,"SoundDuration":312207,"Delta":333631841},{"NoteNumber":65,"Velocity":46,"Duration":312207,"SoundDuration":312207,"Delta":333944049},{"NoteNumber":74,"Velocity":55,"Duration":312207,"SoundDuration":312207,"Delta":333944049},{"NoteNumber":52,"Velocity":35,"Duration":156103,"SoundDuration":156103,"Delta":333944049},{"NoteNumber":53,"Velocity":35,"Duration":156103,"SoundDuration":156103,"Delta":334100153},{"NoteNumber":65,"Velocity":48,"Duration":213242,"SoundDuration":213242,"Delta":334256256},{"NoteNumber":74,"Velocity":57,"Duration":213242,"SoundDuration":213242,"Delta":334256256},{"NoteNumber":55,"Velocity":37,"Duration":159931,"SoundDuration":159931,"Delta":334256256},{"NoteNumber":53,"Velocity":33,"Duration":143938,"SoundDuration":143938,"Delta":334416188},{"NoteNumber":69,"Velocity":46,"Duration":213242,"SoundDuration":213242,"Delta":334469499},{"NoteNumber":77,"Velocity":55,"Duration":213242,"SoundDuration":213242,"Delta":334469499},{"NoteNumber":53,"Velocity":37,"Duration":159931,"SoundDuration":159931,"Delta":334576120},{"NoteNumber":67,"Velocity":46,"Duration":213242,"SoundDuration":213242,"Delta":334682741},{"NoteNumber":75,"Velocity":55,"Duration":213242,"SoundDuration":213242,"Delta":334682741},{"NoteNumber":41,"Velocity":31,"Duration":159931,"SoundDuration":159931,"Delta":334736052},{"NoteNumber":74,"Velocity":64,"Duration":947281,"SoundDuration":947281,"Delta":334895983},{"NoteNumber":63,"Velocity":42,"Duration":1267144,"SoundDuration":1267144,"Delta":334895983},{"NoteNumber":69,"Velocity":41,"Duration":1267144,"SoundDuration":1267144,"Delta":334895983},{"NoteNumber":29,"Velocity":39,"Duration":313709,"SoundDuration":313709,"Delta":334895983},{"NoteNumber":52,"Velocity":35,"Duration":156854,"SoundDuration":156854,"Delta":335209692},{"NoteNumber":53,"Velocity":35,"Duration":156854,"SoundDuration":156854,"Delta":335366547},{"NoteNumber":55,"Velocity":37,"Duration":159931,"SoundDuration":159931,"Delta":335523401},{"NoteNumber":53,"Velocity":33,"Duration":143938,"SoundDuration":143938,"Delta":335683333},{"NoteNumber":72,"Velocity":58,"Duration":319863,"SoundDuration":319863,"Delta":335843265},{"NoteNumber":53,"Velocity":37,"Duration":159931,"SoundDuration":159931,"Delta":335843265},{"NoteNumber":41,"Velocity":33,"Duration":159931,"SoundDuration":159931,"Delta":336003197},{"NoteNumber":67,"Velocity":60,"Duration":208138,"SoundDuration":208138,"Delta":336163128},{"NoteNumber":51,"Velocity":39,"Duration":312207,"SoundDuration":312207,"Delta":336163128},{"NoteNumber":65,"Velocity":51,"Duration":208138,"SoundDuration":208138,"Delta":336371267},{"NoteNumber":52,"Velocity":35,"Duration":156103,"SoundDuration":156103,"Delta":336475336},{"NoteNumber":67,"Velocity":51,"Duration":208138,"SoundDuration":208138,"Delta":336579405},{"NoteNumber":53,"Velocity":35,"Duration":156103,"SoundDuration":156103,"Delta":336631440},{"NoteNumber":65,"Velocity":58,"Duration":214270,"SoundDuration":214270,"Delta":336787543},{"NoteNumber":55,"Velocity":39,"Duration":160702,"SoundDuration":160702,"Delta":336787543},{"NoteNumber":53,"Velocity":35,"Duration":144632,"SoundDuration":144632,"Delta":336948246},{"NoteNumber":58,"Velocity":53,"Duration":220978,"SoundDuration":220978,"Delta":337001814},{"NoteNumber":53,"Velocity":39,"Duration":170765,"SoundDuration":170765,"Delta":337108949},{"NoteNumber":60,"Velocity":53,"Duration":142304,"SoundDuration":142304,"Delta":337222792},{"NoteNumber":41,"Velocity":35,"Duration":170764,"SoundDuration":170764,"Delta":337279714},{"NoteNumber":62,"Velocity":51,"Duration":728193,"SoundDuration":728193,"Delta":337365096},{"NoteNumber":70,"Velocity":61,"Duration":1319015,"SoundDuration":1319015,"Delta":337407788},{"NoteNumber":77,"Velocity":73,"Duration":642810,"SoundDuration":642810,"Delta":337450479},{"NoteNumber":46,"Velocity":44,"Duration":160702,"SoundDuration":160702,"Delta":337450479},{"NoteNumber":53,"Velocity":39,"Duration":160702,"SoundDuration":160702,"Delta":337611182},{"NoteNumber":55,"Velocity":39,"Duration":160702,"SoundDuration":160702,"Delta":337771884},{"NoteNumber":53,"Velocity":39,"Duration":160702,"SoundDuration":160702,"Delta":337932587},{"NoteNumber":67,"Velocity":57,"Duration":633512,"SoundDuration":633512,"Delta":338093290},{"NoteNumber":79,"Velocity":68,"Duration":633512,"SoundDuration":633512,"Delta":338093290},{"NoteNumber":62,"Velocity":44,"Duration":158378,"SoundDuration":158378,"Delta":338093290},{"NoteNumber":53,"Velocity":40,"Duration":158378,"SoundDuration":158378,"Delta":338251668},{"NoteNumber":55,"Velocity":40,"Duration":158378,"SoundDuration":158378,"Delta":338410046},{"NoteNumber":53,"Velocity":41,"Duration":158378,"SoundDuration":158378,"Delta":338568425},{"NoteNumber":77,"Velocity":61,"Duration":1263323,"SoundDuration":1263323,"Delta":338726803},{"NoteNumber":77,"Velocity":56,"Duration":1263323,"SoundDuration":1263323,"Delta":338726803},{"NoteNumber":75,"Velocity":56,"Duration":1263323,"SoundDuration":1263323,"Delta":338726803},{"NoteNumber":69,"Velocity":57,"Duration":633512,"SoundDuration":633512,"Delta":338726803},{"NoteNumber":81,"Velocity":73,"Duration":633512,"SoundDuration":633512,"Delta":338726803},{"NoteNumber":41,"Velocity":45,"Duration":158378,"SoundDuration":158378,"Delta":338726803},{"NoteNumber":53,"Velocity":40,"Duration":158378,"SoundDuration":158378,"Delta":338885181},{"NoteNumber":55,"Velocity":41,"Duration":158378,"SoundDuration":158378,"Delta":339043559},{"NoteNumber":53,"Velocity":41,"Duration":158378,"SoundDuration":158378,"Delta":339201938},{"NoteNumber":70,"Velocity":72,"Duration":468311,"SoundDuration":468311,"Delta":339360316},{"NoteNumber":82,"Velocity":75,"Duration":468311,"SoundDuration":468311,"Delta":339360316},{"NoteNumber":63,"Velocity":47,"Duration":156103,"SoundDuration":156103,"Delta":339360316},{"NoteNumber":53,"Velocity":44,"Duration":156103,"SoundDuration":156103,"Delta":339516420},{"NoteNumber":55,"Velocity":44,"Duration":156103,"SoundDuration":156103,"Delta":339672523},{"NoteNumber":72,"Velocity":70,"Duration":161498,"SoundDuration":161498,"Delta":339828627},{"NoteNumber":84,"Velocity":73,"Duration":161498,"SoundDuration":161498,"Delta":339828627},{"NoteNumber":53,"Velocity":44,"Duration":161498,"SoundDuration":161498,"Delta":339828627},{"NoteNumber":77,"Velocity":68,"Duration":633512,"SoundDuration":633512,"Delta":339990126},{"NoteNumber":74,"Velocity":66,"Duration":1267025,"SoundDuration":1267025,"Delta":339990126},{"NoteNumber":86,"Velocity":80,"Duration":633512,"SoundDuration":633512,"Delta":339990126},{"NoteNumber":46,"Velocity":48,"Duration":158378,"SoundDuration":158378,"Delta":339990126},{"NoteNumber":53,"Velocity":42,"Duration":158378,"SoundDuration":158378,"Delta":340148504},{"NoteNumber":55,"Velocity":42,"Duration":158378,"SoundDuration":158378,"Delta":340306882},{"NoteNumber":53,"Velocity":42,"Duration":158378,"SoundDuration":158378,"Delta":340465261},{"NoteNumber":79,"Velocity":73,"Duration":633512,"SoundDuration":633512,"Delta":340623639},{"NoteNumber":67,"Velocity":61,"Duration":633512,"SoundDuration":633512,"Delta":340623639},{"NoteNumber":62,"Velocity":49,"Duration":158378,"SoundDuration":158378,"Delta":340623639},{"NoteNumber":53,"Velocity":46,"Duration":158378,"SoundDuration":158378,"Delta":340782017},{"NoteNumber":55,"Velocity":46,"Duration":158378,"SoundDuration":158378,"Delta":340940395},{"NoteNumber":53,"Velocity":46,"Duration":158378,"SoundDuration":158378,"Delta":341098774},{"NoteNumber":69,"Velocity":66,"Duration":633512,"SoundDuration":633512,"Delta":341257152},{"NoteNumber":81,"Velocity":78,"Duration":633512,"SoundDuration":633512,"Delta":341257152},{"NoteNumber":77,"Velocity":66,"Duration":1274874,"SoundDuration":1274874,"Delta":341257152},{"NoteNumber":75,"Velocity":66,"Duration":1274874,"SoundDuration":1274874,"Delta":341257152},{"NoteNumber":41,"Velocity":50,"Duration":158378,"SoundDuration":158378,"Delta":341257152},{"NoteNumber":53,"Velocity":46,"Duration":158378,"SoundDuration":158378,"Delta":341415530},{"NoteNumber":55,"Velocity":46,"Duration":158378,"SoundDuration":158378,"Delta":341573908},{"NoteNumber":53,"Velocity":46,"Duration":158378,"SoundDuration":158378,"Delta":341732287},{"NoteNumber":82,"Velocity":81,"Duration":479059,"SoundDuration":479059,"Delta":341890665},{"NoteNumber":70,"Velocity":68,"Duration":479059,"SoundDuration":479059,"Delta":341890665},{"NoteNumber":63,"Velocity":52,"Duration":158378,"SoundDuration":158378,"Delta":341890665},{"NoteNumber":53,"Velocity":49,"Duration":158378,"SoundDuration":158378,"Delta":342049043},{"NoteNumber":55,"Velocity":49,"Duration":162302,"SoundDuration":162302,"Delta":342207421},{"NoteNumber":72,"Velocity":64,"Duration":162302,"SoundDuration":162302,"Delta":342369724},{"NoteNumber":84,"Velocity":77,"Duration":162302,"SoundDuration":162302,"Delta":342369724},{"NoteNumber":53,"Velocity":49,"Duration":162302,"SoundDuration":162302,"Delta":342369724},{"NoteNumber":81,"Velocity":66,"Duration":1285814,"SoundDuration":1285814,"Delta":342532026},{"NoteNumber":84,"Velocity":74,"Duration":1285814,"SoundDuration":1285814,"Delta":342532026},{"NoteNumber":74,"Velocity":73,"Duration":649209,"SoundDuration":649209,"Delta":342532026},{"NoteNumber":86,"Velocity":88,"Duration":649209,"SoundDuration":649209,"Delta":342532026},{"NoteNumber":42,"Velocity":57,"Duration":162302,"SoundDuration":162302,"Delta":342532026},{"NoteNumber":49,"Velocity":51,"Duration":162302,"SoundDuration":162302,"Delta":342694329},{"NoteNumber":50,"Velocity":51,"Duration":162302,"SoundDuration":162302,"Delta":342856631},{"NoteNumber":57,"Velocity":51,"Duration":162302,"SoundDuration":162302,"Delta":343018934},{"NoteNumber":75,"Velocity":78,"Duration":950313,"SoundDuration":950313,"Delta":343181236},{"NoteNumber":87,"Velocity":91,"Duration":950313,"SoundDuration":950313,"Delta":343181236},{"NoteNumber":54,"Velocity":58,"Duration":159151,"SoundDuration":159151,"Delta":343181236},{"NoteNumber":61,"Velocity":53,"Duration":159151,"SoundDuration":159151,"Delta":343340388},{"NoteNumber":62,"Velocity":53,"Duration":159151,"SoundDuration":159151,"Delta":343499539},{"NoteNumber":69,"Velocity":53,"Duration":159151,"SoundDuration":159151,"Delta":343658690},{"NoteNumber":79,"Velocity":74,"Duration":1282701,"SoundDuration":1282701,"Delta":343817841},{"NoteNumber":82,"Velocity":74,"Duration":1282701,"SoundDuration":1282701,"Delta":343817841},{"NoteNumber":43,"Velocity":59,"Duration":156854,"SoundDuration":156854,"Delta":343817841},{"NoteNumber":49,"Velocity":52,"Duration":156854,"SoundDuration":156854,"Delta":343974696},{"NoteNumber":74,"Velocity":67,"Duration":322997,"SoundDuration":322997,"Delta":344131550},{"NoteNumber":86,"Velocity":80,"Duration":322997,"SoundDuration":322997,"Delta":344131550},{"NoteNumber":50,"Velocity":52,"Duration":161498,"SoundDuration":161498,"Delta":344131550},{"NoteNumber":58,"Velocity":53,"Duration":161498,"SoundDuration":161498,"Delta":344293049},{"NoteNumber":73,"Velocity":66,"Duration":322997,"SoundDuration":322997,"Delta":344454548},{"NoteNumber":85,"Velocity":79,"Duration":322997,"SoundDuration":322997,"Delta":344454548},{"NoteNumber":55,"Velocity":60,"Duration":161498,"SoundDuration":161498,"Delta":344454548},{"NoteNumber":61,"Velocity":55,"Duration":161498,"SoundDuration":161498,"Delta":344616047},{"NoteNumber":74,"Velocity":66,"Duration":322997,"SoundDuration":322997,"Delta":344777545},{"NoteNumber":86,"Velocity":79,"Duration":322997,"SoundDuration":322997,"Delta":344777545},{"NoteNumber":62,"Velocity":55,"Duration":161498,"SoundDuration":161498,"Delta":344777545},{"NoteNumber":70,"Velocity":56,"Duration":161498,"SoundDuration":161498,"Delta":344939044},{"NoteNumber":81,"Velocity":57,"Duration":1279507,"SoundDuration":1279507,"Delta":345100543},{"NoteNumber":84,"Velocity":57,"Duration":1279507,"SoundDuration":1279507,"Delta":345100543},{"NoteNumber":87,"Velocity":71,"Duration":1279507,"SoundDuration":1279507,"Delta":345100543},{"NoteNumber":89,"Velocity":90,"Duration":645994,"SoundDuration":645994,"Delta":345100543},{"NoteNumber":77,"Velocity":72,"Duration":645994,"SoundDuration":645994,"Delta":345100543},{"NoteNumber":45,"Velocity":61,"Duration":161498,"SoundDuration":161498,"Delta":345100543},{"NoteNumber":52,"Velocity":55,"Duration":161498,"SoundDuration":161498,"Delta":345262042},{"NoteNumber":53,"Velocity":55,"Duration":161498,"SoundDuration":161498,"Delta":345423540},{"NoteNumber":60,"Velocity":55,"Duration":161498,"SoundDuration":161498,"Delta":345585039},{"NoteNumber":79,"Velocity":70,"Duration":941362,"SoundDuration":941362,"Delta":345746538},{"NoteNumber":91,"Velocity":84,"Duration":941362,"SoundDuration":941362,"Delta":345746538},{"NoteNumber":57,"Velocity":62,"Duration":158378,"SoundDuration":158378,"Delta":345746538},{"NoteNumber":64,"Velocity":57,"Duration":158378,"SoundDuration":158378,"Delta":345904916},{"NoteNumber":65,"Velocity":57,"Duration":158378,"SoundDuration":158378,"Delta":346063294},{"NoteNumber":72,"Velocity":57,"Duration":158378,"SoundDuration":158378,"Delta":346221673},{"NoteNumber":86,"Velocity":85,"Duration":624606,"SoundDuration":624606,"Delta":346380051},{"NoteNumber":47,"Velocity":62,"Duration":153925,"SoundDuration":153925,"Delta":346380051},{"NoteNumber":54,"Velocity":56,"Duration":153924,"SoundDuration":153924,"Delta":346533976},{"NoteNumber":77,"Velocity":64,"Duration":316756,"SoundDuration":316756,"Delta":346687901},{"NoteNumber":89,"Velocity":77,"Duration":316756,"SoundDuration":316756,"Delta":346687901},{"NoteNumber":55,"Velocity":57,"Duration":158378,"SoundDuration":158378,"Delta":346687901},{"NoteNumber":62,"Velocity":57,"Duration":158378,"SoundDuration":158378,"Delta":346846279},{"NoteNumber":75,"Velocity":70,"Duration":475134,"SoundDuration":475134,"Delta":347004657},{"NoteNumber":87,"Velocity":84,"Duration":475134,"SoundDuration":475134,"Delta":347004657},{"NoteNumber":79,"Velocity":62,"Duration":633512,"SoundDuration":633512,"Delta":347004657},{"NoteNumber":59,"Velocity":63,"Duration":158378,"SoundDuration":158378,"Delta":347004657},{"NoteNumber":66,"Velocity":58,"Duration":158378,"SoundDuration":158378,"Delta":347163036},{"NoteNumber":67,"Velocity":59,"Duration":158378,"SoundDuration":158378,"Delta":347321414},{"NoteNumber":86,"Velocity":78,"Duration":158378,"SoundDuration":158378,"Delta":347479792},{"NoteNumber":74,"Velocity":66,"Duration":158378,"SoundDuration":158378,"Delta":347479792},{"NoteNumber":79,"Velocity":67,"Duration":632070,"SoundDuration":632070,"Delta":347638170},{"NoteNumber":77,"Velocity":74,"Duration":312207,"SoundDuration":312207,"Delta":347638170},{"NoteNumber":89,"Velocity":88,"Duration":312207,"SoundDuration":312207,"Delta":347638170},{"NoteNumber":36,"Velocity":59,"Duration":156103,"SoundDuration":156103,"Delta":347638170},{"NoteNumber":43,"Velocity":52,"Duration":156103,"SoundDuration":156103,"Delta":347794274},{"NoteNumber":75,"Velocity":62,"Duration":319863,"SoundDuration":319863,"Delta":347950378},{"NoteNumber":87,"Velocity":76,"Duration":319863,"SoundDuration":319863,"Delta":347950378},{"NoteNumber":48,"Velocity":52,"Duration":159931,"SoundDuration":159931,"Delta":347950378},{"NoteNumber":55,"Velocity":52,"Duration":159931,"SoundDuration":159931,"Delta":348110310},{"NoteNumber":79,"Velocity":59,"Duration":635114,"SoundDuration":635114,"Delta":348270241},{"NoteNumber":74,"Velocity":61,"Duration":313709,"SoundDuration":313709,"Delta":348270241},{"NoteNumber":86,"Velocity":73,"Duration":313709,"SoundDuration":313709,"Delta":348270241},{"NoteNumber":38,"Velocity":59,"Duration":156854,"SoundDuration":156854,"Delta":348270241},{"NoteNumber":43,"Velocity":52,"Duration":156854,"SoundDuration":156854,"Delta":348427096},{"NoteNumber":71,"Velocity":55,"Duration":321405,"SoundDuration":321405,"Delta":348583950},{"NoteNumber":83,"Velocity":68,"Duration":321405,"SoundDuration":321405,"Delta":348583950},{"NoteNumber":50,"Velocity":52,"Duration":160702,"SoundDuration":160702,"Delta":348583950},{"NoteNumber":55,"Velocity":52,"Duration":160702,"SoundDuration":160702,"Delta":348744653},{"NoteNumber":79,"Velocity":59,"Duration":619010,"SoundDuration":619010,"Delta":348905356},{"NoteNumber":86,"Velocity":79,"Duration":304939,"SoundDuration":304939,"Delta":348905356},{"NoteNumber":74,"Velocity":67,"Duration":304939,"SoundDuration":304939,"Delta":348905356},{"NoteNumber":39,"Velocity":62,"Duration":152469,"SoundDuration":152469,"Delta":348905356},{"NoteNumber":43,"Velocity":52,"Duration":152469,"SoundDuration":152469,"Delta":349057826},{"NoteNumber":84,"Velocity":69,"Duration":314070,"SoundDuration":314070,"Delta":349210296},{"NoteNumber":72,"Velocity":58,"Duration":314070,"SoundDuration":314070,"Delta":349210296},{"NoteNumber":48,"Velocity":52,"Duration":157035,"SoundDuration":157035,"Delta":349210296},{"NoteNumber":55,"Velocity":52,"Duration":157035,"SoundDuration":157035,"Delta":349367331},{"NoteNumber":73,"Velocity":57,"Duration":615873,"SoundDuration":615873,"Delta":349524366},{"NoteNumber":79,"Velocity":72,"Duration":306403,"SoundDuration":306403,"Delta":349524366},{"NoteNumber":67,"Velocity":61,"Duration":306403,"SoundDuration":306403,"Delta":349524366},{"NoteNumber":40,"Velocity":61,"Duration":153202,"SoundDuration":153202,"Delta":349524366},{"NoteNumber":46,"Velocity":52,"Duration":153201,"SoundDuration":153201,"Delta":349677568},{"NoteNumber":82,"Velocity":67,"Duration":612929,"SoundDuration":612929,"Delta":349830770},{"NoteNumber":70,"Velocity":56,"Duration":612929,"SoundDuration":612929,"Delta":349830770},{"NoteNumber":49,"Velocity":52,"Duration":154735,"SoundDuration":154735,"Delta":349830770},{"NoteNumber":55,"Velocity":52,"Duration":154734,"SoundDuration":154734,"Delta":349985505},{"NoteNumber":72,"Velocity":64,"Duration":615991,"SoundDuration":615991,"Delta":350140240},{"NoteNumber":75,"Velocity":64,"Duration":615991,"SoundDuration":615991,"Delta":350140240},{"NoteNumber":41,"Velocity":59,"Duration":151729,"SoundDuration":151729,"Delta":350140240},{"NoteNumber":48,"Velocity":52,"Duration":151729,"SoundDuration":151729,"Delta":350291970},{"NoteNumber":81,"Velocity":71,"Duration":618936,"SoundDuration":618936,"Delta":350443700},{"NoteNumber":69,"Velocity":57,"Duration":618936,"SoundDuration":618936,"Delta":350443700},{"NoteNumber":51,"Velocity":52,"Duration":156266,"SoundDuration":156266,"Delta":350443700},{"NoteNumber":57,"Velocity":52,"Duration":156266,"SoundDuration":156266,"Delta":350599966},{"NoteNumber":75,"Velocity":73,"Duration":627809,"SoundDuration":627809,"Delta":350756232},{"NoteNumber":70,"Velocity":61,"Duration":627809,"SoundDuration":627809,"Delta":350756232},{"NoteNumber":43,"Velocity":58,"Duration":153202,"SoundDuration":153202,"Delta":350756232},{"NoteNumber":46,"Velocity":52,"Duration":153201,"SoundDuration":153201,"Delta":350909434},{"NoteNumber":67,"Velocity":57,"Duration":642810,"SoundDuration":642810,"Delta":351062636},{"NoteNumber":79,"Velocity":72,"Duration":642810,"SoundDuration":642810,"Delta":351062636},{"NoteNumber":51,"Velocity":52,"Duration":160702,"SoundDuration":160702,"Delta":351062636},{"NoteNumber":58,"Velocity":52,"Duration":160702,"SoundDuration":160702,"Delta":351223339},{"NoteNumber":72,"Velocity":67,"Duration":638161,"SoundDuration":638161,"Delta":351384042},{"NoteNumber":75,"Velocity":80,"Duration":638161,"SoundDuration":638161,"Delta":351384042},{"NoteNumber":45,"Velocity":52,"Duration":160702,"SoundDuration":160702,"Delta":351384042},{"NoteNumber":48,"Velocity":47,"Duration":160702,"SoundDuration":160702,"Delta":351544745},{"NoteNumber":66,"Velocity":57,"Duration":626066,"SoundDuration":626066,"Delta":351705447},{"NoteNumber":78,"Velocity":71,"Duration":626066,"SoundDuration":626066,"Delta":351705447},{"NoteNumber":51,"Velocity":47,"Duration":158378,"SoundDuration":158378,"Delta":351705447},{"NoteNumber":60,"Velocity":47,"Duration":158378,"SoundDuration":158378,"Delta":351863826},{"NoteNumber":75,"Velocity":73,"Duration":626066,"SoundDuration":626066,"Delta":352022204},{"NoteNumber":69,"Velocity":59,"Duration":626066,"SoundDuration":626066,"Delta":352022204},{"NoteNumber":48,"Velocity":55,"Duration":154654,"SoundDuration":154654,"Delta":352022204},{"NoteNumber":51,"Velocity":47,"Duration":154654,"SoundDuration":154654,"Delta":352176859},{"NoteNumber":65,"Velocity":60,"Duration":628963,"SoundDuration":628963,"Delta":352331514},{"NoteNumber":77,"Velocity":70,"Duration":628963,"SoundDuration":628963,"Delta":352331514},{"NoteNumber":57,"Velocity":47,"Duration":158378,"SoundDuration":158378,"Delta":352331514},{"NoteNumber":63,"Velocity":47,"Duration":158378,"SoundDuration":158378,"Delta":352489892},{"NoteNumber":70,"Velocity":53,"Duration":312207,"SoundDuration":312207,"Delta":352648270},{"NoteNumber":50,"Velocity":46,"Duration":312207,"SoundDuration":312207,"Delta":352648270},{"NoteNumber":62,"Velocity":55,"Duration":312207,"SoundDuration":312207,"Delta":352648270},{"NoteNumber":58,"Velocity":46,"Duration":312207,"SoundDuration":312207,"Delta":352648270},{"NoteNumber":70,"Velocity":56,"Duration":316756,"SoundDuration":316756,"Delta":352960478},{"NoteNumber":66,"Velocity":56,"Duration":316756,"SoundDuration":316756,"Delta":352960478},{"NoteNumber":78,"Velocity":72,"Duration":316756,"SoundDuration":316756,"Delta":352960478},{"NoteNumber":62,"Velocity":46,"Duration":316756,"SoundDuration":316756,"Delta":352960478},{"NoteNumber":58,"Velocity":38,"Duration":316756,"SoundDuration":316756,"Delta":352960478},{"NoteNumber":50,"Velocity":38,"Duration":316756,"SoundDuration":316756,"Delta":352960478},{"NoteNumber":70,"Velocity":53,"Duration":321405,"SoundDuration":321405,"Delta":353277234},{"NoteNumber":67,"Velocity":64,"Duration":321405,"SoundDuration":321405,"Delta":353277234},{"NoteNumber":79,"Velocity":77,"Duration":321405,"SoundDuration":321405,"Delta":353277234},{"NoteNumber":51,"Velocity":42,"Duration":321405,"SoundDuration":321405,"Delta":353277234},{"NoteNumber":58,"Velocity":42,"Duration":321405,"SoundDuration":321405,"Delta":353277234},{"NoteNumber":63,"Velocity":51,"Duration":321405,"SoundDuration":321405,"Delta":353277234},{"NoteNumber":65,"Velocity":56,"Duration":321405,"SoundDuration":321405,"Delta":353598640},{"NoteNumber":70,"Velocity":56,"Duration":321405,"SoundDuration":321405,"Delta":353598640},{"NoteNumber":77,"Velocity":72,"Duration":321405,"SoundDuration":321405,"Delta":353598640},{"NoteNumber":53,"Velocity":38,"Duration":321405,"SoundDuration":321405,"Delta":353598640},{"NoteNumber":58,"Velocity":38,"Duration":321405,"SoundDuration":321405,"Delta":353598640},{"NoteNumber":62,"Velocity":46,"Duration":321405,"SoundDuration":321405,"Delta":353598640},{"NoteNumber":69,"Velocity":60,"Duration":321405,"SoundDuration":321405,"Delta":353920045},{"NoteNumber":72,"Velocity":69,"Duration":321405,"SoundDuration":321405,"Delta":353920045},{"NoteNumber":63,"Velocity":50,"Duration":321405,"SoundDuration":321405,"Delta":353920045},{"NoteNumber":54,"Velocity":42,"Duration":321405,"SoundDuration":321405,"Delta":353920045},{"NoteNumber":65,"Velocity":52,"Duration":310720,"SoundDuration":310720,"Delta":354241451},{"NoteNumber":68,"Velocity":55,"Duration":310720,"SoundDuration":310720,"Delta":354241451},{"NoteNumber":74,"Velocity":68,"Duration":310720,"SoundDuration":310720,"Delta":354241451},{"NoteNumber":47,"Velocity":39,"Duration":310720,"SoundDuration":310720,"Delta":354241451},{"NoteNumber":59,"Velocity":47,"Duration":310720,"SoundDuration":310720,"Delta":354241451},{"NoteNumber":63,"Velocity":59,"Duration":319863,"SoundDuration":319863,"Delta":354552171},{"NoteNumber":67,"Velocity":62,"Duration":319863,"SoundDuration":319863,"Delta":354552171},{"NoteNumber":75,"Velocity":70,"Duration":319863,"SoundDuration":319863,"Delta":354552171},{"NoteNumber":48,"Velocity":44,"Duration":319863,"SoundDuration":319863,"Delta":354552171},{"NoteNumber":60,"Velocity":52,"Duration":319863,"SoundDuration":319863,"Delta":354552171},{"NoteNumber":66,"Velocity":57,"Duration":329489,"SoundDuration":329489,"Delta":354872034},{"NoteNumber":69,"Velocity":68,"Duration":329489,"SoundDuration":329489,"Delta":354872034},{"NoteNumber":51,"Velocity":40,"Duration":329489,"SoundDuration":329489,"Delta":354872034},{"NoteNumber":63,"Velocity":47,"Duration":329489,"SoundDuration":329489,"Delta":354872034},{"NoteNumber":65,"Velocity":60,"Duration":316756,"SoundDuration":316756,"Delta":355201524},{"NoteNumber":70,"Velocity":69,"Duration":316756,"SoundDuration":316756,"Delta":355201524},{"NoteNumber":50,"Velocity":36,"Duration":316756,"SoundDuration":316756,"Delta":355201524},{"NoteNumber":53,"Velocity":39,"Duration":316756,"SoundDuration":316756,"Delta":355201524},{"NoteNumber":62,"Velocity":50,"Duration":316756,"SoundDuration":316756,"Delta":355201524},{"NoteNumber":58,"Velocity":38,"Duration":316756,"SoundDuration":316756,"Delta":355201524},{"NoteNumber":63,"Velocity":56,"Duration":319863,"SoundDuration":319863,"Delta":355518280},{"NoteNumber":66,"Velocity":56,"Duration":319863,"SoundDuration":319863,"Delta":355518280},{"NoteNumber":72,"Velocity":67,"Duration":319863,"SoundDuration":319863,"Delta":355518280},{"NoteNumber":45,"Velocity":36,"Duration":319863,"SoundDuration":319863,"Delta":355518280},{"NoteNumber":57,"Velocity":42,"Duration":319863,"SoundDuration":319863,"Delta":355518280},{"NoteNumber":62,"Velocity":54,"Duration":319863,"SoundDuration":319863,"Delta":355838144},{"NoteNumber":65,"Velocity":58,"Duration":319863,"SoundDuration":319863,"Delta":355838144},{"NoteNumber":74,"Velocity":70,"Duration":319863,"SoundDuration":319863,"Delta":355838144},{"NoteNumber":46,"Velocity":49,"Duration":319863,"SoundDuration":319863,"Delta":355838144},{"NoteNumber":58,"Velocity":49,"Duration":319863,"SoundDuration":319863,"Delta":355838144},{"NoteNumber":58,"Velocity":58,"Duration":239897,"SoundDuration":239897,"Delta":356158007},{"NoteNumber":61,"Velocity":58,"Duration":239897,"SoundDuration":239897,"Delta":356158007},{"NoteNumber":67,"Velocity":69,"Duration":239897,"SoundDuration":239897,"Delta":356158007},{"NoteNumber":40,"Velocity":37,"Duration":239897,"SoundDuration":239897,"Delta":356158007},{"NoteNumber":52,"Velocity":45,"Duration":239897,"SoundDuration":239897,"Delta":356158007},{"NoteNumber":58,"Velocity":50,"Duration":79965,"SoundDuration":79965,"Delta":356397905},{"NoteNumber":60,"Velocity":58,"Duration":1331474,"SoundDuration":1331474,"Delta":356477871},{"NoteNumber":58,"Velocity":58,"Duration":658978,"SoundDuration":658978,"Delta":356477871},{"NoteNumber":63,"Velocity":58,"Duration":1331474,"SoundDuration":1331474,"Delta":356477871},{"NoteNumber":70,"Velocity":69,"Duration":658978,"SoundDuration":658978,"Delta":356477871},{"NoteNumber":28,"Velocity":44,"Duration":329489,"SoundDuration":329489,"Delta":356477871},{"NoteNumber":40,"Velocity":52,"Duration":329489,"SoundDuration":329489,"Delta":356477871},{"NoteNumber":41,"Velocity":48,"Duration":1001984,"SoundDuration":1001984,"Delta":356807360},{"NoteNumber":29,"Velocity":40,"Duration":665736,"SoundDuration":665736,"Delta":356807360},{"NoteNumber":57,"Velocity":51,"Duration":672495,"SoundDuration":672495,"Delta":357136850},{"NoteNumber":69,"Velocity":61,"Duration":672495,"SoundDuration":672495,"Delta":357136850},{"NoteNumber":55,"Velocity":55,"Duration":336247,"SoundDuration":336247,"Delta":357136850},{"NoteNumber":53,"Velocity":51,"Duration":517242,"SoundDuration":517242,"Delta":357473097},{"NoteNumber":62,"Velocity":65,"Duration":180995,"SoundDuration":180995,"Delta":357809345},{"NoteNumber":70,"Velocity":77,"Duration":180995,"SoundDuration":180995,"Delta":357809345},{"NoteNumber":46,"Velocity":53,"Duration":180995,"SoundDuration":180995,"Delta":357809345},{"NoteNumber":58,"Velocity":65,"Duration":180995,"SoundDuration":180995,"Delta":357816132},{"NoteNumber":61,"Velocity":62,"Duration":90497,"SoundDuration":90497,"Delta":357990340},{"NoteNumber":66,"Velocity":73,"Duration":90497,"SoundDuration":90497,"Delta":357990340},{"NoteNumber":52,"Velocity":42,"Duration":90497,"SoundDuration":90497,"Delta":357990340},{"NoteNumber":58,"Velocity":51,"Duration":90497,"SoundDuration":90497,"Delta":357990340},{"NoteNumber":61,"Velocity":62,"Duration":86956,"SoundDuration":86956,"Delta":358167794},{"NoteNumber":66,"Velocity":73,"Duration":86956,"SoundDuration":86956,"Delta":358167794},{"NoteNumber":52,"Velocity":42,"Duration":86956,"SoundDuration":86956,"Delta":358167794},{"NoteNumber":58,"Velocity":51,"Duration":86956,"SoundDuration":86956,"Delta":358167794},{"NoteNumber":61,"Velocity":62,"Duration":169491,"SoundDuration":169491,"Delta":358341707},{"NoteNumber":66,"Velocity":75,"Duration":169491,"SoundDuration":169491,"Delta":358341707},{"NoteNumber":52,"Velocity":46,"Duration":169491,"SoundDuration":169491,"Delta":358341707},{"NoteNumber":58,"Velocity":56,"Duration":169491,"SoundDuration":169491,"Delta":358341707},{"NoteNumber":60,"Velocity":61,"Duration":84745,"SoundDuration":84745,"Delta":358511199},{"NoteNumber":65,"Velocity":66,"Duration":84745,"SoundDuration":84745,"Delta":358511199},{"NoteNumber":53,"Velocity":38,"Duration":84745,"SoundDuration":84745,"Delta":358511199},{"NoteNumber":57,"Velocity":45,"Duration":84745,"SoundDuration":84745,"Delta":358511199},{"NoteNumber":69,"Velocity":62,"Duration":79955,"SoundDuration":79955,"Delta":358675900},{"NoteNumber":75,"Velocity":74,"Duration":79955,"SoundDuration":79955,"Delta":358675900},{"NoteNumber":53,"Velocity":42,"Duration":79955,"SoundDuration":79955,"Delta":358675900},{"NoteNumber":65,"Velocity":51,"Duration":79955,"SoundDuration":79955,"Delta":358675900},{"NoteNumber":60,"Velocity":42,"Duration":79955,"SoundDuration":79955,"Delta":358675900},{"NoteNumber":69,"Velocity":62,"Duration":161225,"SoundDuration":161225,"Delta":358835810},{"NoteNumber":75,"Velocity":75,"Duration":161225,"SoundDuration":161225,"Delta":358835810},{"NoteNumber":53,"Velocity":46,"Duration":161225,"SoundDuration":161225,"Delta":358835810},{"NoteNumber":60,"Velocity":46,"Duration":161225,"SoundDuration":161225,"Delta":358835810},{"NoteNumber":65,"Velocity":56,"Duration":161225,"SoundDuration":161225,"Delta":358835810},{"NoteNumber":70,"Velocity":62,"Duration":80612,"SoundDuration":80612,"Delta":358997036},{"NoteNumber":74,"Velocity":74,"Duration":80612,"SoundDuration":80612,"Delta":358997036},{"NoteNumber":58,"Velocity":42,"Duration":80612,"SoundDuration":80612,"Delta":358997036},{"NoteNumber":65,"Velocity":51,"Duration":80612,"SoundDuration":80612,"Delta":358997036},{"NoteNumber":73,"Velocity":62,"Duration":78351,"SoundDuration":78351,"Delta":359156000},{"NoteNumber":78,"Velocity":74,"Duration":78351,"SoundDuration":78351,"Delta":359156000},{"NoteNumber":64,"Velocity":51,"Duration":78351,"SoundDuration":78351,"Delta":359156000},{"NoteNumber":70,"Velocity":51,"Duration":78351,"SoundDuration":78351,"Delta":359156000},{"NoteNumber":73,"Velocity":62,"Duration":156702,"SoundDuration":156702,"Delta":359312703},{"NoteNumber":78,"Velocity":75,"Duration":156702,"SoundDuration":156702,"Delta":359312703},{"NoteNumber":64,"Velocity":56,"Duration":156702,"SoundDuration":156702,"Delta":359312703},{"NoteNumber":70,"Velocity":56,"Duration":156702,"SoundDuration":156702,"Delta":359312703},{"NoteNumber":72,"Velocity":63,"Duration":78351,"SoundDuration":78351,"Delta":359469406},{"NoteNumber":77,"Velocity":69,"Duration":78351,"SoundDuration":78351,"Delta":359469406},{"NoteNumber":65,"Velocity":40,"Duration":78351,"SoundDuration":78351,"Delta":359469406},{"NoteNumber":69,"Velocity":48,"Duration":78351,"SoundDuration":78351,"Delta":359469406},{"NoteNumber":81,"Velocity":62,"Duration":78351,"SoundDuration":78351,"Delta":359626109},{"NoteNumber":87,"Velocity":73,"Duration":78351,"SoundDuration":78351,"Delta":359626109},{"NoteNumber":65,"Velocity":42,"Duration":78351,"SoundDuration":78351,"Delta":359626109},{"NoteNumber":72,"Velocity":42,"Duration":78351,"SoundDuration":78351,"Delta":359626109},{"NoteNumber":77,"Velocity":51,"Duration":78351,"SoundDuration":78351,"Delta":359626109},{"NoteNumber":81,"Velocity":64,"Duration":156702,"SoundDuration":156702,"Delta":359782812},{"NoteNumber":87,"Velocity":78,"Duration":156702,"SoundDuration":156702,"Delta":359782812},{"NoteNumber":65,"Velocity":46,"Duration":156702,"SoundDuration":156702,"Delta":359782812},{"NoteNumber":72,"Velocity":46,"Duration":156702,"SoundDuration":156702,"Delta":359782812},{"NoteNumber":77,"Velocity":56,"Duration":156702,"SoundDuration":156702,"Delta":359782812},{"NoteNumber":82,"Velocity":62,"Duration":78351,"SoundDuration":78351,"Delta":359939515},{"NoteNumber":86,"Velocity":73,"Duration":78351,"SoundDuration":78351,"Delta":359939515},{"NoteNumber":70,"Velocity":42,"Duration":78351,"SoundDuration":78351,"Delta":359939515},{"NoteNumber":77,"Velocity":51,"Duration":78351,"SoundDuration":78351,"Delta":359939515},{"NoteNumber":78,"Velocity":73,"Duration":78351,"SoundDuration":78351,"Delta":360096218},{"NoteNumber":73,"Velocity":62,"Duration":78351,"SoundDuration":78351,"Delta":360096218},{"NoteNumber":70,"Velocity":52,"Duration":78351,"SoundDuration":78351,"Delta":360096218},{"NoteNumber":64,"Velocity":44,"Duration":78351,"SoundDuration":78351,"Delta":360096218},{"NoteNumber":73,"Velocity":64,"Duration":156262,"SoundDuration":156262,"Delta":360252921},{"NoteNumber":78,"Velocity":78,"Duration":156262,"SoundDuration":156262,"Delta":360252921},{"NoteNumber":64,"Velocity":46,"Duration":156262,"SoundDuration":156262,"Delta":360252921},{"NoteNumber":70,"Velocity":56,"Duration":156262,"SoundDuration":156262,"Delta":360252921},{"NoteNumber":72,"Velocity":62,"Duration":77471,"SoundDuration":77471,"Delta":360409184},{"NoteNumber":77,"Velocity":70,"Duration":77471,"SoundDuration":77471,"Delta":360409184},{"NoteNumber":65,"Velocity":41,"Duration":77471,"SoundDuration":77471,"Delta":360409184},{"NoteNumber":69,"Velocity":49,"Duration":77471,"SoundDuration":77471,"Delta":360409184},{"NoteNumber":69,"Velocity":62,"Duration":77471,"SoundDuration":77471,"Delta":360564126},{"NoteNumber":75,"Velocity":74,"Duration":77471,"SoundDuration":77471,"Delta":360564126},{"NoteNumber":53,"Velocity":44,"Duration":77471,"SoundDuration":77471,"Delta":360564126},{"NoteNumber":60,"Velocity":44,"Duration":77471,"SoundDuration":77471,"Delta":360564126},{"NoteNumber":65,"Velocity":52,"Duration":77471,"SoundDuration":77471,"Delta":360564126},{"NoteNumber":69,"Velocity":64,"Duration":154942,"SoundDuration":154942,"Delta":360719069},{"NoteNumber":75,"Velocity":78,"Duration":154942,"SoundDuration":154942,"Delta":360719069},{"NoteNumber":53,"Velocity":46,"Duration":154942,"SoundDuration":154942,"Delta":360719069},{"NoteNumber":60,"Velocity":46,"Duration":154942,"SoundDuration":154942,"Delta":360719069},{"NoteNumber":65,"Velocity":56,"Duration":154942,"SoundDuration":154942,"Delta":360719069},{"NoteNumber":70,"Velocity":59,"Duration":77471,"SoundDuration":77471,"Delta":360874012},{"NoteNumber":74,"Velocity":69,"Duration":77471,"SoundDuration":77471,"Delta":360874012},{"NoteNumber":58,"Velocity":41,"Duration":77471,"SoundDuration":77471,"Delta":360874012},{"NoteNumber":65,"Velocity":49,"Duration":77471,"SoundDuration":77471,"Delta":360874012},{"NoteNumber":66,"Velocity":74,"Duration":77471,"SoundDuration":77471,"Delta":361028954},{"NoteNumber":61,"Velocity":62,"Duration":77471,"SoundDuration":77471,"Delta":361028954},{"NoteNumber":52,"Velocity":44,"Duration":77471,"SoundDuration":77471,"Delta":361028954},{"NoteNumber":58,"Velocity":52,"Duration":77471,"SoundDuration":77471,"Delta":361028954},{"NoteNumber":61,"Velocity":62,"Duration":154942,"SoundDuration":154942,"Delta":361183897},{"NoteNumber":66,"Velocity":75,"Duration":154942,"SoundDuration":154942,"Delta":361183897},{"NoteNumber":52,"Velocity":46,"Duration":154942,"SoundDuration":154942,"Delta":361183897},{"NoteNumber":58,"Velocity":56,"Duration":154942,"SoundDuration":154942,"Delta":361183897},{"NoteNumber":60,"Velocity":59,"Duration":77471,"SoundDuration":77471,"Delta":361338840},{"NoteNumber":65,"Velocity":66,"Duration":77471,"SoundDuration":77471,"Delta":361338840},{"NoteNumber":53,"Velocity":39,"Duration":77471,"SoundDuration":77471,"Delta":361338840},{"NoteNumber":57,"Velocity":46,"Duration":77471,"SoundDuration":77471,"Delta":361338840},{"NoteNumber":57,"Velocity":62,"Duration":80211,"SoundDuration":80211,"Delta":361496523},{"NoteNumber":63,"Velocity":74,"Duration":80211,"SoundDuration":80211,"Delta":361496523},{"NoteNumber":48,"Velocity":44,"Duration":80211,"SoundDuration":80211,"Delta":361496523},{"NoteNumber":41,"Velocity":44,"Duration":80211,"SoundDuration":80211,"Delta":361496523},{"NoteNumber":53,"Velocity":52,"Duration":80211,"SoundDuration":80211,"Delta":361496523},{"NoteNumber":57,"Velocity":62,"Duration":165248,"SoundDuration":165248,"Delta":361656947},{"NoteNumber":63,"Velocity":75,"Duration":165248,"SoundDuration":165248,"Delta":361656947},{"NoteNumber":41,"Velocity":46,"Duration":165248,"SoundDuration":165248,"Delta":361656947},{"NoteNumber":53,"Velocity":56,"Duration":165248,"SoundDuration":165248,"Delta":361656947},{"NoteNumber":48,"Velocity":46,"Duration":165248,"SoundDuration":165248,"Delta":361656947},{"NoteNumber":58,"Velocity":53,"Duration":82624,"SoundDuration":82624,"Delta":361822195},{"NoteNumber":62,"Velocity":63,"Duration":82624,"SoundDuration":82624,"Delta":361822195},{"NoteNumber":53,"Velocity":46,"Duration":82624,"SoundDuration":82624,"Delta":361822195},{"NoteNumber":46,"Velocity":39,"Duration":82624,"SoundDuration":82624,"Delta":361822195},{"NoteNumber":60,"Velocity":49,"Duration":79063,"SoundDuration":79063,"Delta":361987443},{"NoteNumber":67,"Velocity":59,"Duration":79063,"SoundDuration":79063,"Delta":361987443},{"NoteNumber":48,"Velocity":36,"Duration":79063,"SoundDuration":79063,"Delta":361987443},{"NoteNumber":52,"Velocity":36,"Duration":79063,"SoundDuration":79063,"Delta":361987443},{"NoteNumber":58,"Velocity":41,"Duration":79063,"SoundDuration":79063,"Delta":361987443},{"NoteNumber":60,"Velocity":51,"Duration":157356,"SoundDuration":157356,"Delta":362145571},{"NoteNumber":67,"Velocity":62,"Duration":157356,"SoundDuration":157356,"Delta":362145571},{"NoteNumber":48,"Velocity":37,"Duration":157356,"SoundDuration":157356,"Delta":362145571},{"NoteNumber":52,"Velocity":37,"Duration":157356,"SoundDuration":157356,"Delta":362145571},{"NoteNumber":58,"Velocity":44,"Duration":157356,"SoundDuration":157356,"Delta":362145571},{"NoteNumber":65,"Velocity":58,"Duration":78678,"SoundDuration":78678,"Delta":362302927},{"NoteNumber":53,"Velocity":34,"Duration":78678,"SoundDuration":78678,"Delta":362302927},{"NoteNumber":57,"Velocity":41,"Duration":78678,"SoundDuration":78678,"Delta":362302927},{"NoteNumber":69,"Velocity":44,"Duration":78678,"SoundDuration":78678,"Delta":362460284},{"NoteNumber":75,"Velocity":52,"Duration":78678,"SoundDuration":78678,"Delta":362460284},{"NoteNumber":53,"Velocity":29,"Duration":78678,"SoundDuration":78678,"Delta":362460284},{"NoteNumber":65,"Velocity":36,"Duration":78678,"SoundDuration":78678,"Delta":362460284},{"NoteNumber":60,"Velocity":29,"Duration":78678,"SoundDuration":78678,"Delta":362460284},{"NoteNumber":69,"Velocity":46,"Duration":157356,"SoundDuration":157356,"Delta":362617640},{"NoteNumber":75,"Velocity":55,"Duration":157356,"SoundDuration":157356,"Delta":362617640},{"NoteNumber":53,"Velocity":33,"Duration":157356,"SoundDuration":157356,"Delta":362617640},{"NoteNumber":60,"Velocity":33,"Duration":157356,"SoundDuration":157356,"Delta":362617640},{"NoteNumber":65,"Velocity":39,"Duration":157356,"SoundDuration":157356,"Delta":362617640},{"NoteNumber":70,"Velocity":44,"Duration":78678,"SoundDuration":78678,"Delta":362774996},{"NoteNumber":74,"Velocity":52,"Duration":78678,"SoundDuration":78678,"Delta":362774996},{"NoteNumber":58,"Velocity":29,"Duration":78678,"SoundDuration":78678,"Delta":362774996},{"NoteNumber":65,"Velocity":36,"Duration":78678,"SoundDuration":78678,"Delta":362774996},{"NoteNumber":72,"Velocity":44,"Duration":78678,"SoundDuration":78678,"Delta":362932353},{"NoteNumber":79,"Velocity":52,"Duration":78678,"SoundDuration":78678,"Delta":362932353},{"NoteNumber":60,"Velocity":36,"Duration":78678,"SoundDuration":78678,"Delta":362932353},{"NoteNumber":64,"Velocity":36,"Duration":78678,"SoundDuration":78678,"Delta":362932353},{"NoteNumber":70,"Velocity":36,"Duration":78678,"SoundDuration":78678,"Delta":362932353},{"NoteNumber":72,"Velocity":46,"Duration":157356,"SoundDuration":157356,"Delta":363089709},{"NoteNumber":79,"Velocity":55,"Duration":157356,"SoundDuration":157356,"Delta":363089709},{"NoteNumber":60,"Velocity":39,"Duration":157356,"SoundDuration":157356,"Delta":363089709},{"NoteNumber":64,"Velocity":39,"Duration":157356,"SoundDuration":157356,"Delta":363089709},{"NoteNumber":70,"Velocity":39,"Duration":157356,"SoundDuration":157356,"Delta":363089709},{"NoteNumber":77,"Velocity":51,"Duration":78678,"SoundDuration":78678,"Delta":363247065},{"NoteNumber":65,"Velocity":29,"Duration":78678,"SoundDuration":78678,"Delta":363247065},{"NoteNumber":69,"Velocity":36,"Duration":78678,"SoundDuration":78678,"Delta":363247065},{"NoteNumber":81,"Velocity":39,"Duration":78678,"SoundDuration":78678,"Delta":363404422},{"NoteNumber":87,"Velocity":46,"Duration":78678,"SoundDuration":78678,"Delta":363404422},{"NoteNumber":65,"Velocity":26,"Duration":78678,"SoundDuration":78678,"Delta":363404422},{"NoteNumber":72,"Velocity":26,"Duration":78678,"SoundDuration":78678,"Delta":363404422},{"NoteNumber":77,"Velocity":31,"Duration":78678,"SoundDuration":78678,"Delta":363404422},{"NoteNumber":81,"Velocity":40,"Duration":157356,"SoundDuration":157356,"Delta":363561778},{"NoteNumber":87,"Velocity":49,"Duration":157356,"SoundDuration":157356,"Delta":363561778},{"NoteNumber":65,"Velocity":29,"Duration":157356,"SoundDuration":157356,"Delta":363561778},{"NoteNumber":72,"Velocity":29,"Duration":157356,"SoundDuration":157356,"Delta":363561778},{"NoteNumber":77,"Velocity":35,"Duration":157356,"SoundDuration":157356,"Delta":363561778},{"NoteNumber":82,"Velocity":39,"Duration":78678,"SoundDuration":78678,"Delta":363719134},{"NoteNumber":86,"Velocity":46,"Duration":78678,"SoundDuration":78678,"Delta":363719134},{"NoteNumber":70,"Velocity":26,"Duration":78678,"SoundDuration":78678,"Delta":363719134},{"NoteNumber":77,"Velocity":31,"Duration":78678,"SoundDuration":78678,"Delta":363719134},{"NoteNumber":79,"Velocity":55,"Duration":78678,"SoundDuration":78678,"Delta":363876491},{"NoteNumber":72,"Velocity":47,"Duration":78678,"SoundDuration":78678,"Delta":363876491},{"NoteNumber":60,"Velocity":33,"Duration":78678,"SoundDuration":78678,"Delta":363876491},{"NoteNumber":70,"Velocity":39,"Duration":78678,"SoundDuration":78678,"Delta":363876491},{"NoteNumber":64,"Velocity":33,"Duration":78678,"SoundDuration":78678,"Delta":363876491},{"NoteNumber":72,"Velocity":49,"Duration":157356,"SoundDuration":157356,"Delta":364033847},{"NoteNumber":79,"Velocity":59,"Duration":157356,"SoundDuration":157356,"Delta":364033847},{"NoteNumber":60,"Velocity":35,"Duration":157356,"SoundDuration":157356,"Delta":364033847},{"NoteNumber":64,"Velocity":35,"Duration":157356,"SoundDuration":157356,"Delta":364033847},{"NoteNumber":70,"Velocity":41,"Duration":157356,"SoundDuration":157356,"Delta":364033847},{"NoteNumber":77,"Velocity":56,"Duration":78678,"SoundDuration":78678,"Delta":364191203},{"NoteNumber":65,"Velocity":33,"Duration":78678,"SoundDuration":78678,"Delta":364191203},{"NoteNumber":69,"Velocity":39,"Duration":78678,"SoundDuration":78678,"Delta":364191203},{"NoteNumber":69,"Velocity":47,"Duration":80606,"SoundDuration":80606,"Delta":364350488},{"NoteNumber":75,"Velocity":56,"Duration":80606,"SoundDuration":80606,"Delta":364350488},{"NoteNumber":53,"Velocity":33,"Duration":80606,"SoundDuration":80606,"Delta":364350488},{"NoteNumber":60,"Velocity":33,"Duration":80606,"SoundDuration":80606,"Delta":364350488},{"NoteNumber":65,"Velocity":39,"Duration":80606,"SoundDuration":80606,"Delta":364350488},{"NoteNumber":69,"Velocity":49,"Duration":163572,"SoundDuration":163572,"Delta":364511700},{"NoteNumber":75,"Velocity":59,"Duration":163572,"SoundDuration":163572,"Delta":364511700},{"NoteNumber":53,"Velocity":35,"Duration":163572,"SoundDuration":163572,"Delta":364511700},{"NoteNumber":60,"Velocity":35,"Duration":163572,"SoundDuration":163572,"Delta":364511700},{"NoteNumber":65,"Velocity":41,"Duration":163572,"SoundDuration":163572,"Delta":364511700},{"NoteNumber":70,"Velocity":47,"Duration":81786,"SoundDuration":81786,"Delta":364675272},{"NoteNumber":74,"Velocity":55,"Duration":81786,"SoundDuration":81786,"Delta":364675272},{"NoteNumber":58,"Velocity":33,"Duration":81786,"SoundDuration":81786,"Delta":364675272},{"NoteNumber":65,"Velocity":39,"Duration":81786,"SoundDuration":81786,"Delta":364675272},{"NoteNumber":67,"Velocity":56,"Duration":78678,"SoundDuration":78678,"Delta":364838845},{"NoteNumber":60,"Velocity":47,"Duration":78678,"SoundDuration":78678,"Delta":364838845},{"NoteNumber":48,"Velocity":33,"Duration":78678,"SoundDuration":78678,"Delta":364838845},{"NoteNumber":52,"Velocity":33,"Duration":78678,"SoundDuration":78678,"Delta":364838845},{"NoteNumber":58,"Velocity":39,"Duration":78678,"SoundDuration":78678,"Delta":364838845},{"NoteNumber":60,"Velocity":49,"Duration":159693,"SoundDuration":159693,"Delta":364996201},{"NoteNumber":67,"Velocity":59,"Duration":159693,"SoundDuration":159693,"Delta":364996201},{"NoteNumber":48,"Velocity":35,"Duration":159693,"SoundDuration":159693,"Delta":364996201},{"NoteNumber":52,"Velocity":35,"Duration":159693,"SoundDuration":159693,"Delta":364996201},{"NoteNumber":58,"Velocity":41,"Duration":159693,"SoundDuration":159693,"Delta":364996201},{"NoteNumber":65,"Velocity":56,"Duration":79846,"SoundDuration":79846,"Delta":365155894},{"NoteNumber":53,"Velocity":33,"Duration":79846,"SoundDuration":79846,"Delta":365155894},{"NoteNumber":57,"Velocity":39,"Duration":79846,"SoundDuration":79846,"Delta":365155894},{"NoteNumber":60,"Velocity":52,"Duration":83843,"SoundDuration":83843,"Delta":365319584},{"NoteNumber":57,"Velocity":52,"Duration":83843,"SoundDuration":83843,"Delta":365319584},{"NoteNumber":63,"Velocity":62,"Duration":83843,"SoundDuration":83843,"Delta":365319584},{"NoteNumber":41,"Velocity":41,"Duration":83843,"SoundDuration":83843,"Delta":365319584},{"NoteNumber":53,"Velocity":49,"Duration":83843,"SoundDuration":83843,"Delta":365319584},{"NoteNumber":60,"Velocity":49,"Duration":165207,"SoundDuration":165207,"Delta":365487271},{"NoteNumber":57,"Velocity":49,"Duration":165207,"SoundDuration":165207,"Delta":365487271},{"NoteNumber":63,"Velocity":59,"Duration":165207,"SoundDuration":165207,"Delta":365487271},{"NoteNumber":41,"Velocity":39,"Duration":165207,"SoundDuration":165207,"Delta":365487271},{"NoteNumber":53,"Velocity":47,"Duration":165207,"SoundDuration":165207,"Delta":365487271},{"NoteNumber":61,"Velocity":46,"Duration":82603,"SoundDuration":82603,"Delta":365652478},{"NoteNumber":57,"Velocity":44,"Duration":82603,"SoundDuration":82603,"Delta":365652478},{"NoteNumber":64,"Velocity":52,"Duration":82603,"SoundDuration":82603,"Delta":365652478},{"NoteNumber":40,"Velocity":35,"Duration":82603,"SoundDuration":82603,"Delta":365652478},{"NoteNumber":52,"Velocity":41,"Duration":82603,"SoundDuration":82603,"Delta":365652478},{"NoteNumber":57,"Velocity":49,"Duration":79095,"SoundDuration":79095,"Delta":365814177},{"NoteNumber":59,"Velocity":49,"Duration":79095,"SoundDuration":79095,"Delta":365814177},{"NoteNumber":63,"Velocity":47,"Duration":79095,"SoundDuration":79095,"Delta":365814177},{"NoteNumber":69,"Velocity":56,"Duration":79095,"SoundDuration":79095,"Delta":365814177},{"NoteNumber":52,"Velocity":38,"Duration":79095,"SoundDuration":79095,"Delta":365814177},{"NoteNumber":54,"Velocity":45,"Duration":79095,"SoundDuration":79095,"Delta":365814177},{"NoteNumber":57,"Velocity":49,"Duration":161225,"SoundDuration":161225,"Delta":365972367},{"NoteNumber":59,"Velocity":49,"Duration":161225,"SoundDuration":161225,"Delta":365972367},{"NoteNumber":63,"Velocity":49,"Duration":161225,"SoundDuration":161225,"Delta":365972367},{"NoteNumber":69,"Velocity":59,"Duration":161225,"SoundDuration":161225,"Delta":365972367},{"NoteNumber":52,"Velocity":39,"Duration":161225,"SoundDuration":161225,"Delta":365972367},{"NoteNumber":54,"Velocity":47,"Duration":161225,"SoundDuration":161225,"Delta":365972367},{"NoteNumber":56,"Velocity":46,"Duration":80612,"SoundDuration":80612,"Delta":366133593},{"NoteNumber":64,"Velocity":44,"Duration":80612,"SoundDuration":80612,"Delta":366133593},{"NoteNumber":68,"Velocity":51,"Duration":80612,"SoundDuration":80612,"Delta":366133593},{"NoteNumber":52,"Velocity":34,"Duration":80612,"SoundDuration":80612,"Delta":366133593},{"NoteNumber":59,"Velocity":41,"Duration":80612,"SoundDuration":80612,"Delta":366133593},{"NoteNumber":62,"Velocity":47,"Duration":78351,"SoundDuration":78351,"Delta":366292557},{"NoteNumber":64,"Velocity":47,"Duration":78351,"SoundDuration":78351,"Delta":366292557},{"NoteNumber":68,"Velocity":47,"Duration":78351,"SoundDuration":78351,"Delta":366292557},{"NoteNumber":74,"Velocity":56,"Duration":78351,"SoundDuration":78351,"Delta":366292557},{"NoteNumber":52,"Velocity":36,"Duration":78351,"SoundDuration":78351,"Delta":366292557},{"NoteNumber":59,"Velocity":44,"Duration":78351,"SoundDuration":78351,"Delta":366292557},{"NoteNumber":62,"Velocity":49,"Duration":156702,"SoundDuration":156702,"Delta":366449260},{"NoteNumber":64,"Velocity":49,"Duration":156702,"SoundDuration":156702,"Delta":366449260},{"NoteNumber":68,"Velocity":49,"Duration":156702,"SoundDuration":156702,"Delta":366449260},{"NoteNumber":74,"Velocity":59,"Duration":156702,"SoundDuration":156702,"Delta":366449260},{"NoteNumber":52,"Velocity":39,"Duration":156702,"SoundDuration":156702,"Delta":366449260},{"NoteNumber":59,"Velocity":47,"Duration":156702,"SoundDuration":156702,"Delta":366449260},{"NoteNumber":61,"Velocity":46,"Duration":78351,"SoundDuration":78351,"Delta":366605963},{"NoteNumber":69,"Velocity":44,"Duration":78351,"SoundDuration":78351,"Delta":366605963},{"NoteNumber":73,"Velocity":52,"Duration":78351,"SoundDuration":78351,"Delta":366605963},{"NoteNumber":57,"Velocity":34,"Duration":78351,"SoundDuration":78351,"Delta":366605963},{"NoteNumber":52,"Velocity":34,"Duration":78351,"SoundDuration":78351,"Delta":366605963},{"NoteNumber":64,"Velocity":41,"Duration":78351,"SoundDuration":78351,"Delta":366605963},{"NoteNumber":69,"Velocity":49,"Duration":78351,"SoundDuration":78351,"Delta":366762666},{"NoteNumber":71,"Velocity":49,"Duration":78351,"SoundDuration":78351,"Delta":366762666},{"NoteNumber":75,"Velocity":47,"Duration":78351,"SoundDuration":78351,"Delta":366762666},{"NoteNumber":81,"Velocity":56,"Duration":78351,"SoundDuration":78351,"Delta":366762666},{"NoteNumber":52,"Velocity":44,"Duration":78351,"SoundDuration":78351,"Delta":366762666},{"NoteNumber":59,"Velocity":44,"Duration":78351,"SoundDuration":78351,"Delta":366762666},{"NoteNumber":66,"Velocity":44,"Duration":78351,"SoundDuration":78351,"Delta":366762666},{"NoteNumber":69,"Velocity":49,"Duration":156702,"SoundDuration":156702,"Delta":366919369},{"NoteNumber":71,"Velocity":49,"Duration":156702,"SoundDuration":156702,"Delta":366919369},{"NoteNumber":75,"Velocity":49,"Duration":156702,"SoundDuration":156702,"Delta":366919369},{"NoteNumber":81,"Velocity":59,"Duration":156702,"SoundDuration":156702,"Delta":366919369},{"NoteNumber":52,"Velocity":47,"Duration":156702,"SoundDuration":156702,"Delta":366919369},{"NoteNumber":59,"Velocity":47,"Duration":156702,"SoundDuration":156702,"Delta":366919369},{"NoteNumber":66,"Velocity":47,"Duration":156702,"SoundDuration":156702,"Delta":366919369},{"NoteNumber":68,"Velocity":46,"Duration":78351,"SoundDuration":78351,"Delta":367076072},{"NoteNumber":76,"Velocity":41,"Duration":78351,"SoundDuration":78351,"Delta":367076072},{"NoteNumber":80,"Velocity":51,"Duration":78351,"SoundDuration":78351,"Delta":367076072},{"NoteNumber":52,"Velocity":44,"Duration":78351,"SoundDuration":78351,"Delta":367076072},{"NoteNumber":59,"Velocity":34,"Duration":78351,"SoundDuration":78351,"Delta":367076072},{"NoteNumber":64,"Velocity":41,"Duration":78351,"SoundDuration":78351,"Delta":367076072},{"NoteNumber":74,"Velocity":49,"Duration":80211,"SoundDuration":80211,"Delta":367234635},{"NoteNumber":76,"Velocity":49,"Duration":80211,"SoundDuration":80211,"Delta":367234635},{"NoteNumber":80,"Velocity":47,"Duration":80211,"SoundDuration":80211,"Delta":367234635},{"NoteNumber":86,"Velocity":55,"Duration":80211,"SoundDuration":80211,"Delta":367234635},{"NoteNumber":62,"Velocity":36,"Duration":80211,"SoundDuration":80211,"Delta":367234635},{"NoteNumber":52,"Velocity":47,"Duration":80211,"SoundDuration":80211,"Delta":367234635},{"NoteNumber":64,"Velocity":44,"Duration":80211,"SoundDuration":80211,"Delta":367234635},{"NoteNumber":59,"Velocity":36,"Duration":80211,"SoundDuration":80211,"Delta":367234635},{"NoteNumber":74,"Velocity":49,"Duration":160423,"SoundDuration":160423,"Delta":367395059},{"NoteNumber":76,"Velocity":49,"Duration":160423,"SoundDuration":160423,"Delta":367395059},{"NoteNumber":80,"Velocity":49,"Duration":160423,"SoundDuration":160423,"Delta":367395059},{"NoteNumber":86,"Velocity":59,"Duration":160423,"SoundDuration":160423,"Delta":367395059},{"NoteNumber":62,"Velocity":39,"Duration":160423,"SoundDuration":160423,"Delta":367395059},{"NoteNumber":59,"Velocity":39,"Duration":160423,"SoundDuration":160423,"Delta":367395059},{"NoteNumber":52,"Velocity":39,"Duration":160423,"SoundDuration":160423,"Delta":367395059},{"NoteNumber":64,"Velocity":47,"Duration":160423,"SoundDuration":160423,"Delta":367395059},{"NoteNumber":67,"Velocity":45,"Duration":160423,"SoundDuration":160423,"Delta":367555483},{"NoteNumber":71,"Velocity":63,"Duration":160423,"SoundDuration":160423,"Delta":367555483},{"NoteNumber":59,"Velocity":34,"Duration":160423,"SoundDuration":160423,"Delta":367555483},{"NoteNumber":65,"Velocity":49,"Duration":160423,"SoundDuration":160423,"Delta":367555483},{"NoteNumber":68,"Velocity":66,"Duration":159837,"SoundDuration":159837,"Delta":367715906},{"NoteNumber":77,"Velocity":80,"Duration":159837,"SoundDuration":159837,"Delta":367715906},{"NoteNumber":50,"Velocity":61,"Duration":159837,"SoundDuration":159837,"Delta":367715906},{"NoteNumber":70,"Velocity":68,"Duration":158504,"SoundDuration":158504,"Delta":367875744},{"NoteNumber":74,"Velocity":74,"Duration":158504,"SoundDuration":158504,"Delta":367875744},{"NoteNumber":53,"Velocity":47,"Duration":158504,"SoundDuration":158504,"Delta":367875744},{"NoteNumber":62,"Velocity":56,"Duration":158504,"SoundDuration":158504,"Delta":367875744},{"NoteNumber":71,"Velocity":71,"Duration":157370,"SoundDuration":157370,"Delta":368034248},{"NoteNumber":80,"Velocity":84,"Duration":157370,"SoundDuration":157370,"Delta":368034248},{"NoteNumber":47,"Velocity":62,"Duration":157370,"SoundDuration":157370,"Delta":368034248},{"NoteNumber":73,"Velocity":66,"Duration":156256,"SoundDuration":156256,"Delta":368191619},{"NoteNumber":77,"Velocity":79,"Duration":156256,"SoundDuration":156256,"Delta":368191619},{"NoteNumber":53,"Velocity":49,"Duration":156256,"SoundDuration":156256,"Delta":368191619},{"NoteNumber":59,"Velocity":59,"Duration":156256,"SoundDuration":156256,"Delta":368191619},{"NoteNumber":74,"Velocity":74,"Duration":154610,"SoundDuration":154610,"Delta":368347876},{"NoteNumber":83,"Velocity":89,"Duration":154610,"SoundDuration":154610,"Delta":368347876},{"NoteNumber":44,"Velocity":64,"Duration":154610,"SoundDuration":154610,"Delta":368347876},{"NoteNumber":80,"Velocity":85,"Duration":155886,"SoundDuration":155886,"Delta":368502487},{"NoteNumber":76,"Velocity":72,"Duration":155886,"SoundDuration":155886,"Delta":368502487},{"NoteNumber":47,"Velocity":50,"Duration":155886,"SoundDuration":155886,"Delta":368502487},{"NoteNumber":56,"Velocity":60,"Duration":155886,"SoundDuration":155886,"Delta":368502487},{"NoteNumber":77,"Velocity":78,"Duration":157177,"SoundDuration":157177,"Delta":368658373},{"NoteNumber":86,"Velocity":92,"Duration":157177,"SoundDuration":157177,"Delta":368658373},{"NoteNumber":41,"Velocity":69,"Duration":157177,"SoundDuration":157177,"Delta":368658373},{"NoteNumber":79,"Velocity":73,"Duration":158316,"SoundDuration":158316,"Delta":368815551},{"NoteNumber":83,"Velocity":86,"Duration":158316,"SoundDuration":158316,"Delta":368815551},{"NoteNumber":47,"Velocity":53,"Duration":158316,"SoundDuration":158316,"Delta":368815551},{"NoteNumber":53,"Velocity":64,"Duration":158316,"SoundDuration":158316,"Delta":368815551},{"NoteNumber":80,"Velocity":79,"Duration":166547,"SoundDuration":166547,"Delta":368973867},{"NoteNumber":89,"Velocity":94,"Duration":166547,"SoundDuration":166547,"Delta":368973867},{"NoteNumber":38,"Velocity":77,"Duration":166547,"SoundDuration":166547,"Delta":368973867},{"NoteNumber":80,"Velocity":77,"Duration":170357,"SoundDuration":170357,"Delta":369140415},{"NoteNumber":92,"Velocity":90,"Duration":170357,"SoundDuration":170357,"Delta":369140415},{"NoteNumber":26,"Velocity":69,"Duration":170357,"SoundDuration":170357,"Delta":369140415},{"NoteNumber":38,"Velocity":69,"Duration":170357,"SoundDuration":170357,"Delta":369140415},{"NoteNumber":88,"Velocity":85,"Duration":167686,"SoundDuration":167686,"Delta":369310772},{"NoteNumber":81,"Velocity":85,"Duration":167686,"SoundDuration":167686,"Delta":369310772},{"NoteNumber":93,"Velocity":101,"Duration":167686,"SoundDuration":167686,"Delta":369310772},{"NoteNumber":37,"Velocity":42,"Duration":167686,"SoundDuration":167686,"Delta":369310772},{"NoteNumber":25,"Velocity":42,"Duration":167686,"SoundDuration":167686,"Delta":369310772},{"NoteNumber":57,"Velocity":64,"Duration":164067,"SoundDuration":164067,"Delta":369478459},{"NoteNumber":64,"Velocity":64,"Duration":164067,"SoundDuration":164067,"Delta":369478459},{"NoteNumber":69,"Velocity":77,"Duration":164067,"SoundDuration":164067,"Delta":369478459},{"NoteNumber":37,"Velocity":36,"Duration":164067,"SoundDuration":164067,"Delta":369478459},{"NoteNumber":49,"Velocity":50,"Duration":164067,"SoundDuration":164067,"Delta":369478459},{"NoteNumber":57,"Velocity":64,"Duration":162421,"SoundDuration":162421,"Delta":369642527},{"NoteNumber":64,"Velocity":64,"Duration":162421,"SoundDuration":162421,"Delta":369642527},{"NoteNumber":69,"Velocity":77,"Duration":162421,"SoundDuration":162421,"Delta":369642527},{"NoteNumber":37,"Velocity":40,"Duration":162421,"SoundDuration":162421,"Delta":369642527},{"NoteNumber":49,"Velocity":48,"Duration":162421,"SoundDuration":162421,"Delta":369642527},{"NoteNumber":57,"Velocity":55,"Duration":164392,"SoundDuration":164392,"Delta":369804948},{"NoteNumber":64,"Velocity":55,"Duration":164392,"SoundDuration":164392,"Delta":369804948},{"NoteNumber":69,"Velocity":77,"Duration":164392,"SoundDuration":164392,"Delta":369804948},{"NoteNumber":37,"Velocity":40,"Duration":164392,"SoundDuration":164392,"Delta":369804948},{"NoteNumber":49,"Velocity":48,"Duration":164392,"SoundDuration":164392,"Delta":369804948},{"NoteNumber":57,"Velocity":63,"Duration":159693,"SoundDuration":159693,"Delta":369969341},{"NoteNumber":64,"Velocity":63,"Duration":159693,"SoundDuration":159693,"Delta":369969341},{"NoteNumber":69,"Velocity":75,"Duration":159693,"SoundDuration":159693,"Delta":369969341},{"NoteNumber":37,"Velocity":40,"Duration":159693,"SoundDuration":159693,"Delta":369969341},{"NoteNumber":49,"Velocity":48,"Duration":159693,"SoundDuration":159693,"Delta":369969341},{"NoteNumber":57,"Velocity":63,"Duration":161995,"SoundDuration":161995,"Delta":370129034},{"NoteNumber":64,"Velocity":63,"Duration":161995,"SoundDuration":161995,"Delta":370129034},{"NoteNumber":69,"Velocity":75,"Duration":161995,"SoundDuration":161995,"Delta":370129034},{"NoteNumber":37,"Velocity":41,"Duration":161995,"SoundDuration":161995,"Delta":370129034},{"NoteNumber":49,"Velocity":49,"Duration":161995,"SoundDuration":161995,"Delta":370129034},{"NoteNumber":57,"Velocity":57,"Duration":163572,"SoundDuration":163572,"Delta":370291030},{"NoteNumber":65,"Velocity":57,"Duration":163572,"SoundDuration":163572,"Delta":370291030},{"NoteNumber":69,"Velocity":80,"Duration":163572,"SoundDuration":163572,"Delta":370291030},{"NoteNumber":37,"Velocity":38,"Duration":163572,"SoundDuration":163572,"Delta":370291030},{"NoteNumber":49,"Velocity":55,"Duration":163572,"SoundDuration":163572,"Delta":370291030},{"NoteNumber":57,"Velocity":64,"Duration":158931,"SoundDuration":158931,"Delta":370454602},{"NoteNumber":65,"Velocity":64,"Duration":158931,"SoundDuration":158931,"Delta":370454602},{"NoteNumber":69,"Velocity":77,"Duration":158931,"SoundDuration":158931,"Delta":370454602},{"NoteNumber":36,"Velocity":44,"Duration":158931,"SoundDuration":158931,"Delta":370454602},{"NoteNumber":48,"Velocity":52,"Duration":158931,"SoundDuration":158931,"Delta":370454602},{"NoteNumber":57,"Velocity":64,"Duration":161995,"SoundDuration":161995,"Delta":370613534},{"NoteNumber":65,"Velocity":64,"Duration":161995,"SoundDuration":161995,"Delta":370613534},{"NoteNumber":69,"Velocity":77,"Duration":161995,"SoundDuration":161995,"Delta":370613534},{"NoteNumber":36,"Velocity":44,"Duration":161995,"SoundDuration":161995,"Delta":370613534},{"NoteNumber":48,"Velocity":52,"Duration":161995,"SoundDuration":161995,"Delta":370613534},{"NoteNumber":57,"Velocity":68,"Duration":160449,"SoundDuration":160449,"Delta":370775530},{"NoteNumber":65,"Velocity":68,"Duration":160449,"SoundDuration":160449,"Delta":370775530},{"NoteNumber":69,"Velocity":81,"Duration":160449,"SoundDuration":160449,"Delta":370775530},{"NoteNumber":36,"Velocity":47,"Duration":160449,"SoundDuration":160449,"Delta":370775530},{"NoteNumber":48,"Velocity":56,"Duration":160449,"SoundDuration":160449,"Delta":370775530},{"NoteNumber":57,"Velocity":67,"Duration":153834,"SoundDuration":153834,"Delta":370935979},{"NoteNumber":65,"Velocity":67,"Duration":153834,"SoundDuration":153834,"Delta":370935979},{"NoteNumber":69,"Velocity":79,"Duration":153834,"SoundDuration":153834,"Delta":370935979},{"NoteNumber":37,"Velocity":44,"Duration":153834,"SoundDuration":153834,"Delta":370935979},{"NoteNumber":49,"Velocity":52,"Duration":153834,"SoundDuration":153834,"Delta":370935979},{"NoteNumber":57,"Velocity":67,"Duration":158446,"SoundDuration":158446,"Delta":371089813},{"NoteNumber":65,"Velocity":67,"Duration":158446,"SoundDuration":158446,"Delta":371089813},{"NoteNumber":69,"Velocity":79,"Duration":158446,"SoundDuration":158446,"Delta":371089813},{"NoteNumber":37,"Velocity":44,"Duration":158446,"SoundDuration":158446,"Delta":371089813},{"NoteNumber":49,"Velocity":52,"Duration":158446,"SoundDuration":158446,"Delta":371089813},{"NoteNumber":57,"Velocity":67,"Duration":82603,"SoundDuration":82603,"Delta":371248260},{"NoteNumber":65,"Velocity":67,"Duration":82603,"SoundDuration":82603,"Delta":371248260},{"NoteNumber":69,"Velocity":80,"Duration":82603,"SoundDuration":82603,"Delta":371248260},{"NoteNumber":37,"Velocity":46,"Duration":82603,"SoundDuration":82603,"Delta":371248260},{"NoteNumber":49,"Velocity":56,"Duration":82603,"SoundDuration":82603,"Delta":371248260},{"NoteNumber":58,"Velocity":68,"Duration":77984,"SoundDuration":77984,"Delta":371411158},{"NoteNumber":65,"Velocity":68,"Duration":77984,"SoundDuration":77984,"Delta":371411158},{"NoteNumber":70,"Velocity":81,"Duration":77984,"SoundDuration":77984,"Delta":371411158},{"NoteNumber":37,"Velocity":47,"Duration":77984,"SoundDuration":77984,"Delta":371411158},{"NoteNumber":49,"Velocity":57,"Duration":77984,"SoundDuration":77984,"Delta":371411158},{"NoteNumber":58,"Velocity":69,"Duration":80997,"SoundDuration":80997,"Delta":371567128},{"NoteNumber":65,"Velocity":69,"Duration":80997,"SoundDuration":80997,"Delta":371567128},{"NoteNumber":70,"Velocity":82,"Duration":80997,"SoundDuration":80997,"Delta":371567128},{"NoteNumber":37,"Velocity":48,"Duration":80997,"SoundDuration":80997,"Delta":371567128},{"NoteNumber":49,"Velocity":58,"Duration":80997,"SoundDuration":80997,"Delta":371567128},{"NoteNumber":58,"Velocity":71,"Duration":78721,"SoundDuration":78721,"Delta":371729123},{"NoteNumber":65,"Velocity":71,"Duration":78721,"SoundDuration":78721,"Delta":371729123},{"NoteNumber":70,"Velocity":83,"Duration":78721,"SoundDuration":78721,"Delta":371729123},{"NoteNumber":37,"Velocity":49,"Duration":78721,"SoundDuration":78721,"Delta":371729123},{"NoteNumber":49,"Velocity":58,"Duration":78721,"SoundDuration":78721,"Delta":371729123},{"NoteNumber":58,"Velocity":71,"Duration":76557,"SoundDuration":76557,"Delta":371886566},{"NoteNumber":66,"Velocity":71,"Duration":76557,"SoundDuration":76557,"Delta":371886566},{"NoteNumber":70,"Velocity":84,"Duration":76557,"SoundDuration":76557,"Delta":371886566},{"NoteNumber":37,"Velocity":50,"Duration":76557,"SoundDuration":76557,"Delta":371886566},{"NoteNumber":49,"Velocity":59,"Duration":76557,"SoundDuration":76557,"Delta":371886566},{"NoteNumber":58,"Velocity":71,"Duration":80612,"SoundDuration":80612,"Delta":372039682},{"NoteNumber":66,"Velocity":71,"Duration":80612,"SoundDuration":80612,"Delta":372039682},{"NoteNumber":70,"Velocity":85,"Duration":80612,"SoundDuration":80612,"Delta":372039682},{"NoteNumber":37,"Velocity":51,"Duration":80612,"SoundDuration":80612,"Delta":372039682},{"NoteNumber":49,"Velocity":61,"Duration":80612,"SoundDuration":80612,"Delta":372039682},{"NoteNumber":58,"Velocity":72,"Duration":81786,"SoundDuration":81786,"Delta":372200908},{"NoteNumber":66,"Velocity":72,"Duration":81786,"SoundDuration":81786,"Delta":372200908},{"NoteNumber":70,"Velocity":86,"Duration":81786,"SoundDuration":81786,"Delta":372200908},{"NoteNumber":49,"Velocity":62,"Duration":81786,"SoundDuration":81786,"Delta":372200908},{"NoteNumber":37,"Velocity":52,"Duration":81786,"SoundDuration":81786,"Delta":372200908},{"NoteNumber":58,"Velocity":73,"Duration":77261,"SoundDuration":77261,"Delta":372364480},{"NoteNumber":66,"Velocity":73,"Duration":77261,"SoundDuration":77261,"Delta":372364480},{"NoteNumber":70,"Velocity":88,"Duration":77261,"SoundDuration":77261,"Delta":372364480},{"NoteNumber":36,"Velocity":52,"Duration":77261,"SoundDuration":77261,"Delta":372364480},{"NoteNumber":48,"Velocity":62,"Duration":77261,"SoundDuration":77261,"Delta":372364480},{"NoteNumber":58,"Velocity":75,"Duration":79846,"SoundDuration":79846,"Delta":372519004},{"NoteNumber":66,"Velocity":75,"Duration":79846,"SoundDuration":79846,"Delta":372519004},{"NoteNumber":70,"Velocity":90,"Duration":79846,"SoundDuration":79846,"Delta":372519004},{"NoteNumber":36,"Velocity":53,"Duration":79846,"SoundDuration":79846,"Delta":372519004},{"NoteNumber":48,"Velocity":63,"Duration":79846,"SoundDuration":79846,"Delta":372519004},{"NoteNumber":58,"Velocity":77,"Duration":79846,"SoundDuration":79846,"Delta":372678697},{"NoteNumber":66,"Velocity":77,"Duration":79846,"SoundDuration":79846,"Delta":372678697},{"NoteNumber":70,"Velocity":91,"Duration":79846,"SoundDuration":79846,"Delta":372678697},{"NoteNumber":36,"Velocity":53,"Duration":79846,"SoundDuration":79846,"Delta":372678697},{"NoteNumber":48,"Velocity":64,"Duration":79846,"SoundDuration":79846,"Delta":372678697},{"NoteNumber":58,"Velocity":78,"Duration":75955,"SoundDuration":75955,"Delta":372838390},{"NoteNumber":65,"Velocity":78,"Duration":75955,"SoundDuration":75955,"Delta":372838390},{"NoteNumber":70,"Velocity":92,"Duration":75955,"SoundDuration":75955,"Delta":372838390},{"NoteNumber":37,"Velocity":55,"Duration":75955,"SoundDuration":75955,"Delta":372838390},{"NoteNumber":49,"Velocity":66,"Duration":75955,"SoundDuration":75955,"Delta":372838390},{"NoteNumber":58,"Velocity":79,"Duration":76827,"SoundDuration":76827,"Delta":372990734},{"NoteNumber":64,"Velocity":79,"Duration":76827,"SoundDuration":76827,"Delta":372990734},{"NoteNumber":70,"Velocity":93,"Duration":76827,"SoundDuration":76827,"Delta":372990734},{"NoteNumber":37,"Velocity":56,"Duration":76827,"SoundDuration":76827,"Delta":372990734},{"NoteNumber":49,"Velocity":67,"Duration":76827,"SoundDuration":76827,"Delta":372990734},{"NoteNumber":58,"Velocity":73,"Duration":88005,"SoundDuration":88005,"Delta":373144915},{"NoteNumber":65,"Velocity":86,"Duration":88005,"SoundDuration":88005,"Delta":373144915},{"NoteNumber":70,"Velocity":102,"Duration":88005,"SoundDuration":88005,"Delta":373144915},{"NoteNumber":38,"Velocity":52,"Duration":88005,"SoundDuration":88005,"Delta":373144915},{"NoteNumber":50,"Velocity":74,"Duration":88005,"SoundDuration":88005,"Delta":373144915},{"NoteNumber":62,"Velocity":68,"Duration":160797,"SoundDuration":160797,"Delta":373317122},{"NoteNumber":65,"Velocity":80,"Duration":160797,"SoundDuration":160797,"Delta":373317122},{"NoteNumber":74,"Velocity":95,"Duration":160797,"SoundDuration":160797,"Delta":373317122},{"NoteNumber":53,"Velocity":50,"Duration":160797,"SoundDuration":160797,"Delta":373317122},{"NoteNumber":46,"Velocity":50,"Duration":160797,"SoundDuration":160797,"Delta":373317122},{"NoteNumber":58,"Velocity":71,"Duration":160797,"SoundDuration":160797,"Delta":373317122},{"NoteNumber":62,"Velocity":68,"Duration":167017,"SoundDuration":167017,"Delta":373477919},{"NoteNumber":65,"Velocity":80,"Duration":167017,"SoundDuration":167017,"Delta":373477919},{"NoteNumber":74,"Velocity":95,"Duration":167017,"SoundDuration":167017,"Delta":373477919},{"NoteNumber":53,"Velocity":51,"Duration":167017,"SoundDuration":167017,"Delta":373477919},{"NoteNumber":46,"Velocity":51,"Duration":167017,"SoundDuration":167017,"Delta":373477919},{"NoteNumber":58,"Velocity":72,"Duration":167017,"SoundDuration":167017,"Delta":373477919},{"NoteNumber":62,"Velocity":72,"Duration":162667,"SoundDuration":162667,"Delta":373644936},{"NoteNumber":65,"Velocity":85,"Duration":162667,"SoundDuration":162667,"Delta":373644936},{"NoteNumber":74,"Velocity":101,"Duration":162667,"SoundDuration":162667,"Delta":373644936},{"NoteNumber":46,"Velocity":53,"Duration":162667,"SoundDuration":162667,"Delta":373644936},{"NoteNumber":53,"Velocity":53,"Duration":162667,"SoundDuration":162667,"Delta":373644936},{"NoteNumber":58,"Velocity":75,"Duration":162667,"SoundDuration":162667,"Delta":373644936},{"NoteNumber":60,"Velocity":68,"Duration":165043,"SoundDuration":165043,"Delta":373807604},{"NoteNumber":72,"Velocity":95,"Duration":165043,"SoundDuration":165043,"Delta":373807604},{"NoteNumber":58,"Velocity":68,"Duration":167419,"SoundDuration":167419,"Delta":373972648},{"NoteNumber":70,"Velocity":95,"Duration":167419,"SoundDuration":167419,"Delta":373972648},{"NoteNumber":27,"Velocity":68,"Duration":173429,"SoundDuration":173429,"Delta":374140068},{"NoteNumber":39,"Velocity":96,"Duration":173429,"SoundDuration":173429,"Delta":374140068},{"NoteNumber":62,"Velocity":68,"Duration":162932,"SoundDuration":162932,"Delta":374313498},{"NoteNumber":66,"Velocity":80,"Duration":162932,"SoundDuration":162932,"Delta":374313498},{"NoteNumber":74,"Velocity":95,"Duration":162932,"SoundDuration":162932,"Delta":374313498},{"NoteNumber":51,"Velocity":50,"Duration":162932,"SoundDuration":162932,"Delta":374313498},{"NoteNumber":46,"Velocity":50,"Duration":162932,"SoundDuration":162932,"Delta":374313498},{"NoteNumber":58,"Velocity":71,"Duration":162932,"SoundDuration":162932,"Delta":374313498},{"NoteNumber":62,"Velocity":68,"Duration":168164,"SoundDuration":168164,"Delta":374476430},{"NoteNumber":66,"Velocity":80,"Duration":168164,"SoundDuration":168164,"Delta":374476430},{"NoteNumber":74,"Velocity":95,"Duration":168164,"SoundDuration":168164,"Delta":374476430},{"NoteNumber":51,"Velocity":51,"Duration":168164,"SoundDuration":168164,"Delta":374476430},{"NoteNumber":46,"Velocity":51,"Duration":168164,"SoundDuration":168164,"Delta":374476430},{"NoteNumber":58,"Velocity":72,"Duration":168164,"SoundDuration":168164,"Delta":374476430},{"NoteNumber":62,"Velocity":72,"Duration":165016,"SoundDuration":165016,"Delta":374644595},{"NoteNumber":66,"Velocity":85,"Duration":165016,"SoundDuration":165016,"Delta":374644595},{"NoteNumber":74,"Velocity":101,"Duration":165016,"SoundDuration":165016,"Delta":374644595},{"NoteNumber":46,"Velocity":53,"Duration":165016,"SoundDuration":165016,"Delta":374644595},{"NoteNumber":51,"Velocity":53,"Duration":165016,"SoundDuration":165016,"Delta":374644595},{"NoteNumber":58,"Velocity":75,"Duration":165016,"SoundDuration":165016,"Delta":374644595},{"NoteNumber":60,"Velocity":68,"Duration":167053,"SoundDuration":167053,"Delta":374809612},{"NoteNumber":72,"Velocity":95,"Duration":167053,"SoundDuration":167053,"Delta":374809612},{"NoteNumber":58,"Velocity":68,"Duration":169090,"SoundDuration":169090,"Delta":374976665},{"NoteNumber":70,"Velocity":95,"Duration":169090,"SoundDuration":169090,"Delta":374976665},{"NoteNumber":29,"Velocity":68,"Duration":174228,"SoundDuration":174228,"Delta":375145756},{"NoteNumber":41,"Velocity":96,"Duration":174228,"SoundDuration":174228,"Delta":375145756},{"NoteNumber":62,"Velocity":68,"Duration":163438,"SoundDuration":163438,"Delta":375319984},{"NoteNumber":65,"Velocity":80,"Duration":163438,"SoundDuration":163438,"Delta":375319984},{"NoteNumber":74,"Velocity":95,"Duration":163438,"SoundDuration":163438,"Delta":375319984},{"NoteNumber":53,"Velocity":50,"Duration":163438,"SoundDuration":163438,"Delta":375319984},{"NoteNumber":46,"Velocity":50,"Duration":163438,"SoundDuration":163438,"Delta":375319984},{"NoteNumber":58,"Velocity":71,"Duration":163438,"SoundDuration":163438,"Delta":375319984},{"NoteNumber":62,"Velocity":68,"Duration":168933,"SoundDuration":168933,"Delta":375483423},{"NoteNumber":65,"Velocity":80,"Duration":168933,"SoundDuration":168933,"Delta":375483423},{"NoteNumber":74,"Velocity":95,"Duration":168933,"SoundDuration":168933,"Delta":375483423},{"NoteNumber":53,"Velocity":51,"Duration":168933,"SoundDuration":168933,"Delta":375483423},{"NoteNumber":46,"Velocity":51,"Duration":168933,"SoundDuration":168933,"Delta":375483423},{"NoteNumber":58,"Velocity":72,"Duration":168933,"SoundDuration":168933,"Delta":375483423},{"NoteNumber":62,"Velocity":72,"Duration":164217,"SoundDuration":164217,"Delta":375652356},{"NoteNumber":65,"Velocity":85,"Duration":164217,"SoundDuration":164217,"Delta":375652356},{"NoteNumber":74,"Velocity":101,"Duration":164217,"SoundDuration":164217,"Delta":375652356},{"NoteNumber":46,"Velocity":53,"Duration":164217,"SoundDuration":164217,"Delta":375652356},{"NoteNumber":53,"Velocity":53,"Duration":164217,"SoundDuration":164217,"Delta":375652356},{"NoteNumber":58,"Velocity":75,"Duration":164217,"SoundDuration":164217,"Delta":375652356},{"NoteNumber":60,"Velocity":68,"Duration":168793,"SoundDuration":168793,"Delta":375816573},{"NoteNumber":72,"Velocity":95,"Duration":168793,"SoundDuration":168793,"Delta":375816573},{"NoteNumber":58,"Velocity":68,"Duration":173370,"SoundDuration":173370,"Delta":375985367},{"NoteNumber":70,"Velocity":95,"Duration":173370,"SoundDuration":173370,"Delta":375985367},{"NoteNumber":30,"Velocity":68,"Duration":183553,"SoundDuration":183553,"Delta":376158737},{"NoteNumber":42,"Velocity":96,"Duration":183553,"SoundDuration":183553,"Delta":376158737},{"NoteNumber":63,"Velocity":80,"Duration":171845,"SoundDuration":171845,"Delta":376342291},{"NoteNumber":74,"Velocity":95,"Duration":171845,"SoundDuration":171845,"Delta":376342291},{"NoteNumber":51,"Velocity":50,"Duration":171845,"SoundDuration":171845,"Delta":376342291},{"NoteNumber":46,"Velocity":50,"Duration":171845,"SoundDuration":171845,"Delta":376342291},{"NoteNumber":58,"Velocity":71,"Duration":171845,"SoundDuration":171845,"Delta":376342291},{"NoteNumber":63,"Velocity":80,"Duration":177392,"SoundDuration":177392,"Delta":376514136},{"NoteNumber":74,"Velocity":95,"Duration":177392,"SoundDuration":177392,"Delta":376514136},{"NoteNumber":51,"Velocity":51,"Duration":177392,"SoundDuration":177392,"Delta":376514136},{"NoteNumber":46,"Velocity":51,"Duration":177392,"SoundDuration":177392,"Delta":376514136},{"NoteNumber":58,"Velocity":72,"Duration":177392,"SoundDuration":177392,"Delta":376514136},{"NoteNumber":63,"Velocity":85,"Duration":561807,"SoundDuration":561807,"Delta":376691529},{"NoteNumber":74,"Velocity":101,"Duration":183322,"SoundDuration":183322,"Delta":376691529},{"NoteNumber":46,"Velocity":53,"Duration":183322,"SoundDuration":183322,"Delta":376691529},{"NoteNumber":51,"Velocity":53,"Duration":183322,"SoundDuration":183322,"Delta":376691529},{"NoteNumber":58,"Velocity":75,"Duration":183322,"SoundDuration":183322,"Delta":376691529},{"NoteNumber":72,"Velocity":95,"Duration":188857,"SoundDuration":188857,"Delta":376874852},{"NoteNumber":70,"Velocity":95,"Duration":189627,"SoundDuration":189627,"Delta":377063709},{"NoteNumber":31,"Velocity":60,"Duration":142220,"SoundDuration":142220,"Delta":377111116},{"NoteNumber":43,"Velocity":72,"Duration":142220,"SoundDuration":142220,"Delta":377111116},{"NoteNumber":62,"Velocity":84,"Duration":1123121,"SoundDuration":1123121,"Delta":377253337},{"NoteNumber":65,"Velocity":84,"Duration":1123121,"SoundDuration":1123121,"Delta":377253337},{"NoteNumber":70,"Velocity":101,"Duration":1123121,"SoundDuration":1123121,"Delta":377253337},{"NoteNumber":74,"Velocity":101,"Duration":1123121,"SoundDuration":1123121,"Delta":377253337},{"NoteNumber":32,"Velocity":73,"Duration":69175,"SoundDuration":69175,"Delta":377253337},{"NoteNumber":44,"Velocity":86,"Duration":69175,"SoundDuration":69175,"Delta":377253337},{"NoteNumber":29,"Velocity":66,"Duration":69175,"SoundDuration":69175,"Delta":377391687},{"NoteNumber":41,"Velocity":79,"Duration":69175,"SoundDuration":69175,"Delta":377391687},{"NoteNumber":31,"Velocity":73,"Duration":72011,"SoundDuration":72011,"Delta":377668389},{"NoteNumber":43,"Velocity":86,"Duration":72011,"SoundDuration":72011,"Delta":377668389},{"NoteNumber":32,"Velocity":68,"Duration":68499,"SoundDuration":68499,"Delta":377820188},{"NoteNumber":44,"Velocity":81,"Duration":68499,"SoundDuration":68499,"Delta":377820188},{"NoteNumber":29,"Velocity":68,"Duration":68499,"SoundDuration":68499,"Delta":377957186},{"NoteNumber":41,"Velocity":81,"Duration":68499,"SoundDuration":68499,"Delta":377957186},{"NoteNumber":62,"Velocity":71,"Duration":511839,"SoundDuration":511839,"Delta":378376458},{"NoteNumber":65,"Velocity":71,"Duration":511839,"SoundDuration":511839,"Delta":378376458},{"NoteNumber":70,"Velocity":84,"Duration":511839,"SoundDuration":511839,"Delta":378376458},{"NoteNumber":74,"Velocity":84,"Duration":511839,"SoundDuration":511839,"Delta":378376458},{"NoteNumber":32,"Velocity":56,"Duration":132158,"SoundDuration":132158,"Delta":378376458},{"NoteNumber":44,"Velocity":67,"Duration":132158,"SoundDuration":132158,"Delta":378376458},{"NoteNumber":29,"Velocity":49,"Duration":66079,"SoundDuration":66079,"Delta":378508617},{"NoteNumber":41,"Velocity":60,"Duration":66079,"SoundDuration":66079,"Delta":378508617},{"NoteNumber":31,"Velocity":52,"Duration":119316,"SoundDuration":119316,"Delta":378768980},{"NoteNumber":43,"Velocity":62,"Duration":119316,"SoundDuration":119316,"Delta":378768980},{"NoteNumber":62,"Velocity":69,"Duration":512915,"SoundDuration":512915,"Delta":378888297},{"NoteNumber":65,"Velocity":69,"Duration":512915,"SoundDuration":512915,"Delta":378888297},{"NoteNumber":71,"Velocity":83,"Duration":512915,"SoundDuration":512915,"Delta":378888297},{"NoteNumber":74,"Velocity":83,"Duration":512915,"SoundDuration":512915,"Delta":378888297},{"NoteNumber":32,"Velocity":51,"Duration":130163,"SoundDuration":130163,"Delta":378888297},{"NoteNumber":44,"Velocity":61,"Duration":130163,"SoundDuration":130163,"Delta":378888297},{"NoteNumber":29,"Velocity":51,"Duration":65081,"SoundDuration":65081,"Delta":379018460},{"NoteNumber":41,"Velocity":61,"Duration":65081,"SoundDuration":65081,"Delta":379018460},{"NoteNumber":62,"Velocity":69,"Duration":497407,"SoundDuration":497407,"Delta":379401213},{"NoteNumber":65,"Velocity":69,"Duration":497407,"SoundDuration":497407,"Delta":379401213},{"NoteNumber":70,"Velocity":82,"Duration":497407,"SoundDuration":497407,"Delta":379401213},{"NoteNumber":74,"Velocity":82,"Duration":497407,"SoundDuration":497407,"Delta":379401213},{"NoteNumber":32,"Velocity":56,"Duration":128755,"SoundDuration":128755,"Delta":379401213},{"NoteNumber":44,"Velocity":67,"Duration":128755,"SoundDuration":128755,"Delta":379401213},{"NoteNumber":29,"Velocity":50,"Duration":64377,"SoundDuration":64377,"Delta":379529968},{"NoteNumber":41,"Velocity":60,"Duration":64377,"SoundDuration":64377,"Delta":379529968},{"NoteNumber":31,"Velocity":52,"Duration":117767,"SoundDuration":117767,"Delta":379780853},{"NoteNumber":43,"Velocity":66,"Duration":117767,"SoundDuration":117767,"Delta":379780853},{"NoteNumber":62,"Velocity":68,"Duration":498399,"SoundDuration":498399,"Delta":379898620},{"NoteNumber":65,"Velocity":68,"Duration":498399,"SoundDuration":498399,"Delta":379898620},{"NoteNumber":71,"Velocity":82,"Duration":498399,"SoundDuration":498399,"Delta":379898620},{"NoteNumber":74,"Velocity":82,"Duration":498399,"SoundDuration":498399,"Delta":379898620},{"NoteNumber":32,"Velocity":51,"Duration":125712,"SoundDuration":125712,"Delta":379898620},{"NoteNumber":44,"Velocity":62,"Duration":125712,"SoundDuration":125712,"Delta":379898620},{"NoteNumber":29,"Velocity":52,"Duration":62856,"SoundDuration":62856,"Delta":380024333},{"NoteNumber":41,"Velocity":63,"Duration":62856,"SoundDuration":62856,"Delta":380024333},{"NoteNumber":63,"Velocity":74,"Duration":488140,"SoundDuration":488140,"Delta":380397019},{"NoteNumber":66,"Velocity":74,"Duration":488140,"SoundDuration":488140,"Delta":380397019},{"NoteNumber":71,"Velocity":88,"Duration":488140,"SoundDuration":488140,"Delta":380397019},{"NoteNumber":75,"Velocity":88,"Duration":488140,"SoundDuration":488140,"Delta":380397019},{"NoteNumber":33,"Velocity":60,"Duration":126582,"SoundDuration":126582,"Delta":380397019},{"NoteNumber":45,"Velocity":74,"Duration":126582,"SoundDuration":126582,"Delta":380397019},{"NoteNumber":30,"Velocity":56,"Duration":63291,"SoundDuration":63291,"Delta":380523602},{"NoteNumber":42,"Velocity":63,"Duration":63291,"SoundDuration":63291,"Delta":380523602},{"NoteNumber":31,"Velocity":59,"Duration":115786,"SoundDuration":115786,"Delta":380769373},{"NoteNumber":43,"Velocity":71,"Duration":115786,"SoundDuration":115786,"Delta":380769373},{"NoteNumber":63,"Velocity":72,"Duration":487866,"SoundDuration":487866,"Delta":380885160},{"NoteNumber":66,"Velocity":72,"Duration":487866,"SoundDuration":487866,"Delta":380885160},{"NoteNumber":72,"Velocity":88,"Duration":487866,"SoundDuration":487866,"Delta":380885160},{"NoteNumber":75,"Velocity":88,"Duration":487866,"SoundDuration":487866,"Delta":380885160},{"NoteNumber":33,"Velocity":57,"Duration":122950,"SoundDuration":122950,"Delta":380885160},{"NoteNumber":45,"Velocity":69,"Duration":122950,"SoundDuration":122950,"Delta":380885160},{"NoteNumber":42,"Velocity":57,"Duration":61475,"SoundDuration":61475,"Delta":381008110},{"NoteNumber":54,"Velocity":69,"Duration":61475,"SoundDuration":61475,"Delta":381008110},{"NoteNumber":64,"Velocity":74,"Duration":476018,"SoundDuration":476018,"Delta":381373026},{"NoteNumber":67,"Velocity":74,"Duration":476018,"SoundDuration":476018,"Delta":381373026},{"NoteNumber":72,"Velocity":88,"Duration":476018,"SoundDuration":476018,"Delta":381373026},{"NoteNumber":76,"Velocity":88,"Duration":476018,"SoundDuration":476018,"Delta":381373026},{"NoteNumber":34,"Velocity":63,"Duration":122950,"SoundDuration":122950,"Delta":381373026},{"NoteNumber":46,"Velocity":75,"Duration":122950,"SoundDuration":122950,"Delta":381373026},{"NoteNumber":31,"Velocity":56,"Duration":61475,"SoundDuration":61475,"Delta":381495977},{"NoteNumber":43,"Velocity":67,"Duration":61475,"SoundDuration":61475,"Delta":381495977},{"NoteNumber":33,"Velocity":61,"Duration":113275,"SoundDuration":113275,"Delta":381735768},{"NoteNumber":45,"Velocity":71,"Duration":113275,"SoundDuration":113275,"Delta":381735768},{"NoteNumber":64,"Velocity":73,"Duration":490799,"SoundDuration":490799,"Delta":381849044},{"NoteNumber":67,"Velocity":73,"Duration":490799,"SoundDuration":490799,"Delta":381849044},{"NoteNumber":73,"Velocity":87,"Duration":490799,"SoundDuration":490799,"Delta":381849044},{"NoteNumber":76,"Velocity":87,"Duration":490799,"SoundDuration":490799,"Delta":381849044},{"NoteNumber":34,"Velocity":59,"Duration":122950,"SoundDuration":122950,"Delta":381849044},{"NoteNumber":46,"Velocity":71,"Duration":122950,"SoundDuration":122950,"Delta":381849044},{"NoteNumber":43,"Velocity":60,"Duration":61475,"SoundDuration":61475,"Delta":381971995},{"NoteNumber":55,"Velocity":71,"Duration":61475,"SoundDuration":61475,"Delta":381971995},{"NoteNumber":65,"Velocity":76,"Duration":481679,"SoundDuration":481679,"Delta":382339844},{"NoteNumber":68,"Velocity":76,"Duration":481679,"SoundDuration":481679,"Delta":382339844},{"NoteNumber":73,"Velocity":93,"Duration":481679,"SoundDuration":481679,"Delta":382339844},{"NoteNumber":77,"Velocity":93,"Duration":481679,"SoundDuration":481679,"Delta":382339844},{"NoteNumber":35,"Velocity":68,"Duration":121457,"SoundDuration":121457,"Delta":382339844},{"NoteNumber":47,"Velocity":79,"Duration":121457,"SoundDuration":121457,"Delta":382339844},{"NoteNumber":47,"Velocity":60,"Duration":60728,"SoundDuration":60728,"Delta":382461301},{"NoteNumber":59,"Velocity":73,"Duration":60728,"SoundDuration":60728,"Delta":382461301},{"NoteNumber":65,"Velocity":76,"Duration":485000,"SoundDuration":485000,"Delta":382821523},{"NoteNumber":69,"Velocity":76,"Duration":485000,"SoundDuration":485000,"Delta":382821523},{"NoteNumber":75,"Velocity":92,"Duration":485000,"SoundDuration":485000,"Delta":382821523},{"NoteNumber":77,"Velocity":92,"Duration":485000,"SoundDuration":485000,"Delta":382821523},{"NoteNumber":36,"Velocity":68,"Duration":153851,"SoundDuration":153851,"Delta":382821523},{"NoteNumber":48,"Velocity":68,"Duration":153851,"SoundDuration":153851,"Delta":382821523},{"NoteNumber":48,"Velocity":74,"Duration":159105,"SoundDuration":159105,"Delta":382975375},{"NoteNumber":60,"Velocity":74,"Duration":159105,"SoundDuration":159105,"Delta":382975375},{"NoteNumber":49,"Velocity":78,"Duration":172043,"SoundDuration":172043,"Delta":383134481},{"NoteNumber":61,"Velocity":78,"Duration":172043,"SoundDuration":172043,"Delta":383134481},{"NoteNumber":65,"Velocity":78,"Duration":491803,"SoundDuration":491803,"Delta":383306524},{"NoteNumber":70,"Velocity":93,"Duration":491803,"SoundDuration":491803,"Delta":383306524},{"NoteNumber":77,"Velocity":93,"Duration":491803,"SoundDuration":491803,"Delta":383306524},{"NoteNumber":50,"Velocity":66,"Duration":491803,"SoundDuration":491803,"Delta":383306524},{"NoteNumber":58,"Velocity":66,"Duration":491803,"SoundDuration":491803,"Delta":383306524},{"NoteNumber":62,"Velocity":79,"Duration":491803,"SoundDuration":491803,"Delta":383306524},{"NoteNumber":66,"Velocity":79,"Duration":497925,"SoundDuration":497925,"Delta":383798327},{"NoteNumber":70,"Velocity":94,"Duration":497925,"SoundDuration":497925,"Delta":383798327},{"NoteNumber":78,"Velocity":94,"Duration":497925,"SoundDuration":497925,"Delta":383798327},{"NoteNumber":51,"Velocity":67,"Duration":497925,"SoundDuration":497925,"Delta":383798327},{"NoteNumber":58,"Velocity":67,"Duration":497925,"SoundDuration":497925,"Delta":383798327},{"NoteNumber":63,"Velocity":80,"Duration":497925,"SoundDuration":497925,"Delta":383798327},{"NoteNumber":70,"Velocity":79,"Duration":480615,"SoundDuration":480615,"Delta":384296252},{"NoteNumber":72,"Velocity":79,"Duration":480615,"SoundDuration":480615,"Delta":384296252},{"NoteNumber":75,"Velocity":95,"Duration":480615,"SoundDuration":480615,"Delta":384296252},{"NoteNumber":82,"Velocity":95,"Duration":480615,"SoundDuration":480615,"Delta":384296252},{"NoteNumber":54,"Velocity":67,"Duration":480615,"SoundDuration":480615,"Delta":384296252},{"NoteNumber":58,"Velocity":67,"Duration":480615,"SoundDuration":480615,"Delta":384296252},{"NoteNumber":60,"Velocity":67,"Duration":480615,"SoundDuration":480615,"Delta":384296252},{"NoteNumber":63,"Velocity":67,"Duration":480615,"SoundDuration":480615,"Delta":384296252},{"NoteNumber":66,"Velocity":80,"Duration":480615,"SoundDuration":480615,"Delta":384296252},{"NoteNumber":69,"Velocity":77,"Duration":498794,"SoundDuration":498794,"Delta":384776867},{"NoteNumber":72,"Velocity":77,"Duration":498794,"SoundDuration":498794,"Delta":384776867},{"NoteNumber":75,"Velocity":93,"Duration":498794,"SoundDuration":498794,"Delta":384776867},{"NoteNumber":81,"Velocity":93,"Duration":498794,"SoundDuration":498794,"Delta":384776867},{"NoteNumber":53,"Velocity":65,"Duration":498794,"SoundDuration":498794,"Delta":384776867},{"NoteNumber":60,"Velocity":65,"Duration":498794,"SoundDuration":498794,"Delta":384776867},{"NoteNumber":63,"Velocity":65,"Duration":498794,"SoundDuration":498794,"Delta":384776867},{"NoteNumber":65,"Velocity":78,"Duration":498794,"SoundDuration":498794,"Delta":384776867},{"NoteNumber":70,"Velocity":85,"Duration":485830,"SoundDuration":485830,"Delta":385275662},{"NoteNumber":74,"Velocity":102,"Duration":485830,"SoundDuration":485830,"Delta":385275662},{"NoteNumber":82,"Velocity":102,"Duration":485830,"SoundDuration":485830,"Delta":385275662},{"NoteNumber":46,"Velocity":72,"Duration":485830,"SoundDuration":485830,"Delta":385275662},{"NoteNumber":58,"Velocity":86,"Duration":485830,"SoundDuration":485830,"Delta":385275662},{"NoteNumber":70,"Velocity":84,"Duration":505178,"SoundDuration":505178,"Delta":385761492},{"NoteNumber":75,"Velocity":84,"Duration":505178,"SoundDuration":505178,"Delta":385761492},{"NoteNumber":78,"Velocity":101,"Duration":505178,"SoundDuration":505178,"Delta":385761492},{"NoteNumber":82,"Velocity":101,"Duration":505178,"SoundDuration":505178,"Delta":385761492},{"NoteNumber":39,"Velocity":70,"Duration":505178,"SoundDuration":505178,"Delta":385761492},{"NoteNumber":51,"Velocity":86,"Duration":505178,"SoundDuration":505178,"Delta":385761492},{"NoteNumber":70,"Velocity":85,"Duration":500918,"SoundDuration":500918,"Delta":386266670},{"NoteNumber":74,"Velocity":85,"Duration":500918,"SoundDuration":500918,"Delta":386266670},{"NoteNumber":77,"Velocity":101,"Duration":500918,"SoundDuration":500918,"Delta":386266670},{"NoteNumber":82,"Velocity":101,"Duration":500918,"SoundDuration":500918,"Delta":386266670},{"NoteNumber":34,"Velocity":72,"Duration":500918,"SoundDuration":500918,"Delta":386266670},{"NoteNumber":46,"Velocity":87,"Duration":500918,"SoundDuration":500918,"Delta":386266670},{"NoteNumber":70,"Velocity":85,"Duration":516128,"SoundDuration":516128,"Delta":386767588},{"NoteNumber":75,"Velocity":85,"Duration":516128,"SoundDuration":516128,"Delta":386767588},{"NoteNumber":78,"Velocity":101,"Duration":516128,"SoundDuration":516128,"Delta":386767588},{"NoteNumber":82,"Velocity":101,"Duration":516128,"SoundDuration":516128,"Delta":386767588},{"NoteNumber":27,"Velocity":70,"Duration":516128,"SoundDuration":516128,"Delta":386767588},{"NoteNumber":39,"Velocity":86,"Duration":516128,"SoundDuration":516128,"Delta":386767588},{"NoteNumber":70,"Velocity":91,"Duration":1032258,"SoundDuration":1032258,"Delta":387283717},{"NoteNumber":74,"Velocity":91,"Duration":1032258,"SoundDuration":1032258,"Delta":387283717},{"NoteNumber":77,"Velocity":108,"Duration":1032258,"SoundDuration":1032258,"Delta":387283717},{"NoteNumber":82,"Velocity":108,"Duration":1032258,"SoundDuration":1032258,"Delta":387283717},{"NoteNumber":34,"Velocity":74,"Duration":1032258,"SoundDuration":1032258,"Delta":387283717},{"NoteNumber":46,"Velocity":92,"Duration":1032258,"SoundDuration":1032258,"Delta":387283717},{"NoteNumber":82,"Velocity":100,"Duration":1032258,"SoundDuration":1032258,"Delta":388315975},{"NoteNumber":94,"Velocity":117,"Duration":1032258,"SoundDuration":1032258,"Delta":388315975},{"NoteNumber":62,"Velocity":74,"Duration":1032258,"SoundDuration":1032258,"Delta":388315975},{"NoteNumber":65,"Velocity":74,"Duration":1032258,"SoundDuration":1032258,"Delta":388315975},{"NoteNumber":70,"Velocity":77,"Duration":1032258,"SoundDuration":1032258,"Delta":388315975},{"NoteNumber":74,"Velocity":95,"Duration":1032258,"SoundDuration":1032258,"Delta":388315975},{"NoteNumber":62,"Velocity":105,"Duration":2968094,"SoundDuration":2968094,"Delta":389348233},{"NoteNumber":46,"Velocity":65,"Duration":2968094,"SoundDuration":2968094,"Delta":389348233},{"NoteNumber":34,"Velocity":59,"Duration":2968094,"SoundDuration":2968094,"Delta":389348233},{"NoteNumber":41,"Velocity":60,"Duration":2968094,"SoundDuration":2968094,"Delta":389348233},{"NoteNumber":50,"Velocity":67,"Duration":2968094,"SoundDuration":2968094,"Delta":389348233},{"NoteNumber":53,"Velocity":71,"Duration":2968094,"SoundDuration":2968094,"Delta":389348233},{"NoteNumber":58,"Velocity":91,"Duration":2968094,"SoundDuration":2968094,"Delta":389348233}],"license":{"name":"Creative Commons Attribution-ShareAlike 3.0 Germany","url":"http://creativecommons.org/licenses/by-sa/3.0/de/deed.en","text":"The MIDI, audio (MP3, OGG) and video files of Bernd Krueger are licensed under the cc-by-sa Germany License. This means that you can use and adapt the files, as long as you attribute the copyright holder.\n\nName: Bernd Krueger\nSource: http://www.piano-midi.de\n\nThe distribution or public playback of the files is only allowed under identical license conditions.\n\nThe scores are open source.","attribution":"MIDI files by Bernd Krueger (piano-midi.de)"}}