{"title":"Sonate opus 35, 4. Satz","artist":"Chopin","durationMs":80641,"midiSha256":"1a80e1af54c6919fa6b06302ab4b2bf52d10735e11ccfbe3cf0986f106a4fe6f","midiObject":[{"NoteNumber":53,"Velocity":35,"Duration":123170,"SoundDuration":123170,"Delta":0},{"NoteNumber":41,"Velocity":30,"Duration":123170,"SoundDuration":123170,"Delta":0},{"NoteNumber":55,"Velocity":29,"Duration":119176,"SoundDuration":119176,"Delta":99240},{"NoteNumber":43,"Velocity":24,"Duration":119176,"SoundDuration":119176,"Delta":99240},{"NoteNumber":58,"Velocity":30,"Duration":117935,"SoundDuration":117935,"Delta":194962},{"NoteNumber":46,"Velocity":25,"Duration":117935,"SoundDuration":117935,"Delta":194962},{"NoteNumber":61,"Velocity":30,"Duration":119737,"SoundDuration":119737,"Delta":288783},{"NoteNumber":49,"Velocity":25,"Duration":119737,"SoundDuration":119737,"Delta":288783},{"NoteNumber":52,"Velocity":33,"Duration":116759,"SoundDuration":116759,"Delta":385239},{"NoteNumber":40,"Velocity":28,"Duration":116759,"SoundDuration":116759,"Delta":385239},{"NoteNumber":55,"Velocity":31,"Duration":94526,"SoundDuration":94526,"Delta":478366},{"NoteNumber":43,"Velocity":26,"Duration":94526,"SoundDuration":94526,"Delta":478366},{"NoteNumber":53,"Velocity":37,"Duration":117526,"SoundDuration":117526,"Delta":572893},{"NoteNumber":41,"Velocity":30,"Duration":117526,"SoundDuration":117526,"Delta":572893},{"NoteNumber":55,"Velocity":30,"Duration":115278,"SoundDuration":115278,"Delta":667420},{"NoteNumber":43,"Velocity":26,"Duration":115278,"SoundDuration":115278,"Delta":667420},{"NoteNumber":58,"Velocity":31,"Duration":116409,"SoundDuration":116409,"Delta":759416},{"NoteNumber":46,"Velocity":26,"Duration":116409,"SoundDuration":116409,"Delta":759416},{"NoteNumber":61,"Velocity":32,"Duration":115959,"SoundDuration":115959,"Delta":852544},{"NoteNumber":49,"Velocity":27,"Duration":115959,"SoundDuration":115959,"Delta":852544},{"NoteNumber":52,"Velocity":34,"Duration":114553,"SoundDuration":114553,"Delta":945671},{"NoteNumber":40,"Velocity":28,"Duration":114553,"SoundDuration":114553,"Delta":945671},{"NoteNumber":55,"Velocity":33,"Duration":83612,"SoundDuration":83612,"Delta":1036999},{"NoteNumber":43,"Velocity":27,"Duration":83612,"SoundDuration":83612,"Delta":1036999},{"NoteNumber":55,"Velocity":40,"Duration":115624,"SoundDuration":115624,"Delta":1129902},{"NoteNumber":43,"Velocity":34,"Duration":115624,"SoundDuration":115624,"Delta":1129902},{"NoteNumber":57,"Velocity":33,"Duration":113943,"SoundDuration":113943,"Delta":1222804},{"NoteNumber":45,"Velocity":28,"Duration":113943,"SoundDuration":113943,"Delta":1222804},{"NoteNumber":60,"Velocity":35,"Duration":115276,"SoundDuration":115276,"Delta":1313692},{"NoteNumber":48,"Velocity":29,"Duration":115276,"SoundDuration":115276,"Delta":1313692},{"NoteNumber":63,"Velocity":36,"Duration":114727,"SoundDuration":114727,"Delta":1405913},{"NoteNumber":51,"Velocity":28,"Duration":114727,"SoundDuration":114727,"Delta":1405913},{"NoteNumber":54,"Velocity":34,"Duration":112857,"SoundDuration":112857,"Delta":1498134},{"NoteNumber":42,"Velocity":28,"Duration":112857,"SoundDuration":112857,"Delta":1498134},{"NoteNumber":57,"Velocity":36,"Duration":91141,"SoundDuration":91141,"Delta":1588160},{"NoteNumber":45,"Velocity":30,"Duration":91141,"SoundDuration":91141,"Delta":1588160},{"NoteNumber":55,"Velocity":40,"Duration":113478,"SoundDuration":113478,"Delta":1679301},{"NoteNumber":43,"Velocity":34,"Duration":113478,"SoundDuration":113478,"Delta":1679301},{"NoteNumber":57,"Velocity":34,"Duration":112429,"SoundDuration":112429,"Delta":1770379},{"NoteNumber":45,"Velocity":28,"Duration":112429,"SoundDuration":112429,"Delta":1770379},{"NoteNumber":60,"Velocity":34,"Duration":114160,"SoundDuration":114160,"Delta":1859977},{"NoteNumber":48,"Velocity":28,"Duration":114160,"SoundDuration":114160,"Delta":1859977},{"NoteNumber":63,"Velocity":35,"Duration":113674,"SoundDuration":113674,"Delta":1951305},{"NoteNumber":51,"Velocity":30,"Duration":113674,"SoundDuration":113674,"Delta":1951305},{"NoteNumber":54,"Velocity":34,"Duration":112030,"SoundDuration":112030,"Delta":2042634},{"NoteNumber":42,"Velocity":28,"Duration":112030,"SoundDuration":112030,"Delta":2042634},{"NoteNumber":57,"Velocity":36,"Duration":90579,"SoundDuration":90579,"Delta":2132019},{"NoteNumber":45,"Velocity":30,"Duration":90579,"SoundDuration":90579,"Delta":2132019},{"NoteNumber":58,"Velocity":45,"Duration":112505,"SoundDuration":112505,"Delta":2222599},{"NoteNumber":46,"Velocity":38,"Duration":112505,"SoundDuration":112505,"Delta":2222599},{"NoteNumber":60,"Velocity":35,"Duration":110898,"SoundDuration":110898,"Delta":2313178},{"NoteNumber":48,"Velocity":29,"Duration":110898,"SoundDuration":110898,"Delta":2313178},{"NoteNumber":63,"Velocity":38,"Duration":112640,"SoundDuration":112640,"Delta":2401517},{"NoteNumber":51,"Velocity":32,"Duration":112640,"SoundDuration":112640,"Delta":2401517},{"NoteNumber":66,"Velocity":43,"Duration":111527,"SoundDuration":111527,"Delta":2491757},{"NoteNumber":54,"Velocity":36,"Duration":111527,"SoundDuration":111527,"Delta":2491757},{"NoteNumber":57,"Velocity":39,"Duration":110104,"SoundDuration":110104,"Delta":2581359},{"NoteNumber":45,"Velocity":33,"Duration":110104,"SoundDuration":110104,"Delta":2581359},{"NoteNumber":60,"Velocity":38,"Duration":89601,"SoundDuration":89601,"Delta":2669063},{"NoteNumber":48,"Velocity":31,"Duration":89601,"SoundDuration":89601,"Delta":2669063},{"NoteNumber":61,"Velocity":41,"Duration":111643,"SoundDuration":111643,"Delta":2758665},{"NoteNumber":49,"Velocity":34,"Duration":111643,"SoundDuration":111643,"Delta":2758665},{"NoteNumber":63,"Velocity":39,"Duration":110508,"SoundDuration":110508,"Delta":2848266},{"NoteNumber":51,"Velocity":32,"Duration":110508,"SoundDuration":110508,"Delta":2848266},{"NoteNumber":66,"Velocity":39,"Duration":111702,"SoundDuration":111702,"Delta":2936434},{"NoteNumber":54,"Velocity":33,"Duration":111702,"SoundDuration":111702,"Delta":2936434},{"NoteNumber":69,"Velocity":43,"Duration":111344,"SoundDuration":111344,"Delta":3025796},{"NoteNumber":57,"Velocity":35,"Duration":111344,"SoundDuration":111344,"Delta":3025796},{"NoteNumber":60,"Velocity":39,"Duration":110331,"SoundDuration":110331,"Delta":3115158},{"NoteNumber":48,"Velocity":33,"Duration":110331,"SoundDuration":110331,"Delta":3115158},{"NoteNumber":63,"Velocity":39,"Duration":89601,"SoundDuration":89601,"Delta":3203089},{"NoteNumber":51,"Velocity":34,"Duration":89601,"SoundDuration":89601,"Delta":3203089},{"NoteNumber":61,"Velocity":49,"Duration":111527,"SoundDuration":111527,"Delta":3292691},{"NoteNumber":49,"Velocity":41,"Duration":111527,"SoundDuration":111527,"Delta":3292691},{"NoteNumber":63,"Velocity":42,"Duration":110164,"SoundDuration":110164,"Delta":3382292},{"NoteNumber":51,"Velocity":35,"Duration":110164,"SoundDuration":110164,"Delta":3382292},{"NoteNumber":66,"Velocity":39,"Duration":89843,"SoundDuration":89843,"Delta":3469996},{"NoteNumber":54,"Velocity":32,"Duration":89843,"SoundDuration":89843,"Delta":3469996},{"NoteNumber":69,"Velocity":40,"Duration":111527,"SoundDuration":111527,"Delta":3559840},{"NoteNumber":57,"Velocity":37,"Duration":111527,"SoundDuration":111527,"Delta":3559840},{"NoteNumber":60,"Velocity":42,"Duration":110104,"SoundDuration":110104,"Delta":3649441},{"NoteNumber":48,"Velocity":36,"Duration":110104,"SoundDuration":110104,"Delta":3649441},{"NoteNumber":63,"Velocity":43,"Duration":89601,"SoundDuration":89601,"Delta":3737145},{"NoteNumber":51,"Velocity":36,"Duration":89601,"SoundDuration":89601,"Delta":3737145},{"NoteNumber":66,"Velocity":50,"Duration":111643,"SoundDuration":111643,"Delta":3826747},{"NoteNumber":54,"Velocity":41,"Duration":111643,"SoundDuration":111643,"Delta":3826747},{"NoteNumber":70,"Velocity":40,"Duration":110508,"SoundDuration":110508,"Delta":3916349},{"NoteNumber":58,"Velocity":34,"Duration":110508,"SoundDuration":110508,"Delta":3916349},{"NoteNumber":72,"Velocity":41,"Duration":111702,"SoundDuration":111702,"Delta":4004517},{"NoteNumber":60,"Velocity":34,"Duration":111702,"SoundDuration":111702,"Delta":4004517},{"NoteNumber":75,"Velocity":44,"Duration":111171,"SoundDuration":111171,"Delta":4093878},{"NoteNumber":63,"Velocity":38,"Duration":111171,"SoundDuration":111171,"Delta":4093878},{"NoteNumber":65,"Velocity":44,"Duration":110136,"SoundDuration":110136,"Delta":4183240},{"NoteNumber":53,"Velocity":37,"Duration":110136,"SoundDuration":110136,"Delta":4183240},{"NoteNumber":69,"Velocity":44,"Duration":91583,"SoundDuration":91583,"Delta":4270481},{"NoteNumber":57,"Velocity":37,"Duration":91583,"SoundDuration":91583,"Delta":4270481},{"NoteNumber":70,"Velocity":56,"Duration":113509,"SoundDuration":113509,"Delta":4362064},{"NoteNumber":58,"Velocity":47,"Duration":113509,"SoundDuration":113509,"Delta":4362064},{"NoteNumber":73,"Velocity":45,"Duration":110164,"SoundDuration":110164,"Delta":4453648},{"NoteNumber":61,"Velocity":38,"Duration":110164,"SoundDuration":110164,"Delta":4453648},{"NoteNumber":78,"Velocity":49,"Duration":112243,"SoundDuration":112243,"Delta":4541352},{"NoteNumber":66,"Velocity":40,"Duration":112243,"SoundDuration":112243,"Delta":4541352},{"NoteNumber":77,"Velocity":46,"Duration":111527,"SoundDuration":111527,"Delta":4631195},{"NoteNumber":65,"Velocity":37,"Duration":111527,"SoundDuration":111527,"Delta":4631195},{"NoteNumber":72,"Velocity":45,"Duration":110104,"SoundDuration":110104,"Delta":4720797},{"NoteNumber":60,"Velocity":38,"Duration":110104,"SoundDuration":110104,"Delta":4720797},{"NoteNumber":73,"Velocity":45,"Duration":89601,"SoundDuration":89601,"Delta":4808501},{"NoteNumber":61,"Velocity":38,"Duration":89601,"SoundDuration":89601,"Delta":4808501},{"NoteNumber":76,"Velocity":50,"Duration":175934,"SoundDuration":175934,"Delta":4898102},{"NoteNumber":64,"Velocity":42,"Duration":175934,"SoundDuration":175934,"Delta":4898102},{"NoteNumber":72,"Velocity":46,"Duration":86333,"SoundDuration":86333,"Delta":4987704},{"NoteNumber":60,"Velocity":39,"Duration":86333,"SoundDuration":86333,"Delta":4987704},{"NoteNumber":73,"Velocity":45,"Duration":110507,"SoundDuration":110507,"Delta":5074037},{"NoteNumber":61,"Velocity":40,"Duration":110507,"SoundDuration":110507,"Delta":5074037},{"NoteNumber":69,"Velocity":43,"Duration":88405,"SoundDuration":88405,"Delta":5162443},{"NoteNumber":57,"Velocity":36,"Duration":88405,"SoundDuration":88405,"Delta":5162443},{"NoteNumber":70,"Velocity":47,"Duration":109183,"SoundDuration":109183,"Delta":5250849},{"NoteNumber":58,"Velocity":39,"Duration":109183,"SoundDuration":109183,"Delta":5250849},{"NoteNumber":66,"Velocity":44,"Duration":89601,"SoundDuration":89601,"Delta":5337632},{"NoteNumber":54,"Velocity":36,"Duration":89601,"SoundDuration":89601,"Delta":5337632},{"NoteNumber":64,"Velocity":48,"Duration":111527,"SoundDuration":111527,"Delta":5427233},{"NoteNumber":52,"Velocity":40,"Duration":111527,"SoundDuration":111527,"Delta":5427233},{"NoteNumber":65,"Velocity":44,"Duration":109982,"SoundDuration":109982,"Delta":5516835},{"NoteNumber":53,"Velocity":37,"Duration":109982,"SoundDuration":109982,"Delta":5516835},{"NoteNumber":70,"Velocity":44,"Duration":89114,"SoundDuration":89114,"Delta":5604539},{"NoteNumber":58,"Velocity":37,"Duration":89114,"SoundDuration":89114,"Delta":5604539},{"NoteNumber":68,"Velocity":45,"Duration":111241,"SoundDuration":111241,"Delta":5693654},{"NoteNumber":56,"Velocity":39,"Duration":111241,"SoundDuration":111241,"Delta":5693654},{"NoteNumber":69,"Velocity":45,"Duration":108717,"SoundDuration":108717,"Delta":5783255},{"NoteNumber":57,"Velocity":38,"Duration":108717,"SoundDuration":108717,"Delta":5783255},{"NoteNumber":73,"Velocity":45,"Duration":88640,"SoundDuration":88640,"Delta":5869813},{"NoteNumber":61,"Velocity":38,"Duration":88640,"SoundDuration":88640,"Delta":5869813},{"NoteNumber":69,"Velocity":47,"Duration":110001,"SoundDuration":110001,"Delta":5958454},{"NoteNumber":57,"Velocity":41,"Duration":110001,"SoundDuration":110001,"Delta":5958454},{"NoteNumber":70,"Velocity":44,"Duration":107546,"SoundDuration":107546,"Delta":6047094},{"NoteNumber":58,"Velocity":37,"Duration":107546,"SoundDuration":107546,"Delta":6047094},{"NoteNumber":73,"Velocity":45,"Duration":88405,"SoundDuration":88405,"Delta":6132539},{"NoteNumber":61,"Velocity":38,"Duration":88405,"SoundDuration":88405,"Delta":6132539},{"NoteNumber":71,"Velocity":46,"Duration":109876,"SoundDuration":109876,"Delta":6220945},{"NoteNumber":59,"Velocity":39,"Duration":109876,"SoundDuration":109876,"Delta":6220945},{"NoteNumber":72,"Velocity":45,"Duration":108285,"SoundDuration":108285,"Delta":6309350},{"NoteNumber":60,"Velocity":38,"Duration":108285,"SoundDuration":108285,"Delta":6309350},{"NoteNumber":77,"Velocity":45,"Duration":89601,"SoundDuration":89601,"Delta":6395235},{"NoteNumber":65,"Velocity":38,"Duration":89601,"SoundDuration":89601,"Delta":6395235},{"NoteNumber":68,"Velocity":48,"Duration":111184,"SoundDuration":111184,"Delta":6484837},{"NoteNumber":56,"Velocity":40,"Duration":111184,"SoundDuration":111184,"Delta":6484837},{"NoteNumber":71,"Velocity":43,"Duration":108552,"SoundDuration":108552,"Delta":6574438},{"NoteNumber":59,"Velocity":36,"Duration":108552,"SoundDuration":108552,"Delta":6574438},{"NoteNumber":76,"Velocity":45,"Duration":111277,"SoundDuration":111277,"Delta":6660772},{"NoteNumber":64,"Velocity":38,"Duration":111277,"SoundDuration":111277,"Delta":6660772},{"NoteNumber":75,"Velocity":44,"Duration":111527,"SoundDuration":111527,"Delta":6749649},{"NoteNumber":63,"Velocity":37,"Duration":111527,"SoundDuration":111527,"Delta":6749649},{"NoteNumber":70,"Velocity":40,"Duration":110104,"SoundDuration":110104,"Delta":6839250},{"NoteNumber":58,"Velocity":34,"Duration":110104,"SoundDuration":110104,"Delta":6839250},{"NoteNumber":71,"Velocity":38,"Duration":89601,"SoundDuration":89601,"Delta":6926954},{"NoteNumber":59,"Velocity":31,"Duration":89601,"SoundDuration":89601,"Delta":6926954},{"NoteNumber":74,"Velocity":51,"Duration":177769,"SoundDuration":177769,"Delta":7016556},{"NoteNumber":62,"Velocity":43,"Duration":177769,"SoundDuration":177769,"Delta":7016556},{"NoteNumber":70,"Velocity":43,"Duration":110508,"SoundDuration":110508,"Delta":7106158},{"NoteNumber":58,"Velocity":36,"Duration":110508,"SoundDuration":110508,"Delta":7106158},{"NoteNumber":71,"Velocity":42,"Duration":111702,"SoundDuration":111702,"Delta":7194326},{"NoteNumber":59,"Velocity":35,"Duration":111702,"SoundDuration":111702,"Delta":7194326},{"NoteNumber":67,"Velocity":43,"Duration":176602,"SoundDuration":176602,"Delta":7283687},{"NoteNumber":55,"Velocity":36,"Duration":176602,"SoundDuration":176602,"Delta":7283687},{"NoteNumber":68,"Velocity":45,"Duration":109641,"SoundDuration":109641,"Delta":7373049},{"NoteNumber":56,"Velocity":38,"Duration":109641,"SoundDuration":109641,"Delta":7373049},{"NoteNumber":64,"Velocity":43,"Duration":89601,"SoundDuration":89601,"Delta":7460290},{"NoteNumber":52,"Velocity":36,"Duration":89601,"SoundDuration":89601,"Delta":7460290},{"NoteNumber":62,"Velocity":47,"Duration":178007,"SoundDuration":178007,"Delta":7549892},{"NoteNumber":50,"Velocity":39,"Duration":178007,"SoundDuration":178007,"Delta":7549892},{"NoteNumber":63,"Velocity":41,"Duration":110746,"SoundDuration":110746,"Delta":7639493},{"NoteNumber":51,"Velocity":34,"Duration":110746,"SoundDuration":110746,"Delta":7639493},{"NoteNumber":68,"Velocity":41,"Duration":89361,"SoundDuration":89361,"Delta":7727899},{"NoteNumber":56,"Velocity":34,"Duration":89361,"SoundDuration":89361,"Delta":7727899},{"NoteNumber":64,"Velocity":44,"Duration":176159,"SoundDuration":176159,"Delta":7817261},{"NoteNumber":52,"Velocity":36,"Duration":176159,"SoundDuration":176159,"Delta":7817261},{"NoteNumber":65,"Velocity":42,"Duration":108659,"SoundDuration":108659,"Delta":7906862},{"NoteNumber":53,"Velocity":35,"Duration":108659,"SoundDuration":108659,"Delta":7906862},{"NoteNumber":71,"Velocity":42,"Duration":88405,"SoundDuration":88405,"Delta":7993420},{"NoteNumber":59,"Velocity":35,"Duration":88405,"SoundDuration":88405,"Delta":7993420},{"NoteNumber":65,"Velocity":47,"Duration":174069,"SoundDuration":174069,"Delta":8081826},{"NoteNumber":53,"Velocity":39,"Duration":174069,"SoundDuration":174069,"Delta":8081826},{"NoteNumber":66,"Velocity":45,"Duration":107765,"SoundDuration":107765,"Delta":8170231},{"NoteNumber":54,"Velocity":38,"Duration":107765,"SoundDuration":107765,"Delta":8170231},{"NoteNumber":71,"Velocity":43,"Duration":88405,"SoundDuration":88405,"Delta":8255895},{"NoteNumber":59,"Velocity":36,"Duration":88405,"SoundDuration":88405,"Delta":8255895},{"NoteNumber":69,"Velocity":45,"Duration":174516,"SoundDuration":174516,"Delta":8344301},{"NoteNumber":57,"Velocity":37,"Duration":174516,"SoundDuration":174516,"Delta":8344301},{"NoteNumber":70,"Velocity":44,"Duration":108510,"SoundDuration":108510,"Delta":8432707},{"NoteNumber":58,"Velocity":37,"Duration":108510,"SoundDuration":108510,"Delta":8432707},{"NoteNumber":75,"Velocity":44,"Duration":89601,"SoundDuration":89601,"Delta":8518817},{"NoteNumber":63,"Velocity":37,"Duration":89601,"SoundDuration":89601,"Delta":8518817},{"NoteNumber":73,"Velocity":51,"Duration":177305,"SoundDuration":177305,"Delta":8608419},{"NoteNumber":61,"Velocity":43,"Duration":177305,"SoundDuration":177305,"Delta":8608419},{"NoteNumber":65,"Velocity":45,"Duration":110164,"SoundDuration":110164,"Delta":8698020},{"NoteNumber":53,"Velocity":38,"Duration":110164,"SoundDuration":110164,"Delta":8698020},{"NoteNumber":70,"Velocity":41,"Duration":112243,"SoundDuration":112243,"Delta":8785724},{"NoteNumber":58,"Velocity":34,"Duration":112243,"SoundDuration":112243,"Delta":8785724},{"NoteNumber":61,"Velocity":45,"Duration":177305,"SoundDuration":177305,"Delta":8875568},{"NoteNumber":49,"Velocity":34,"Duration":177305,"SoundDuration":177305,"Delta":8875568},{"NoteNumber":64,"Velocity":43,"Duration":110726,"SoundDuration":110726,"Delta":8965169},{"NoteNumber":52,"Velocity":36,"Duration":110726,"SoundDuration":110726,"Delta":8965169},{"NoteNumber":69,"Velocity":43,"Duration":92089,"SoundDuration":92089,"Delta":9052873},{"NoteNumber":57,"Velocity":36,"Duration":92089,"SoundDuration":92089,"Delta":9052873},{"NoteNumber":72,"Velocity":45,"Duration":177529,"SoundDuration":177529,"Delta":9144963},{"NoteNumber":60,"Velocity":38,"Duration":177529,"SoundDuration":177529,"Delta":9144963},{"NoteNumber":63,"Velocity":41,"Duration":110508,"SoundDuration":110508,"Delta":9234325},{"NoteNumber":51,"Velocity":34,"Duration":110508,"SoundDuration":110508,"Delta":9234325},{"NoteNumber":68,"Velocity":42,"Duration":111702,"SoundDuration":111702,"Delta":9322493},{"NoteNumber":56,"Velocity":35,"Duration":111702,"SoundDuration":111702,"Delta":9322493},{"NoteNumber":59,"Velocity":42,"Duration":176602,"SoundDuration":176602,"Delta":9411854},{"NoteNumber":47,"Velocity":34,"Duration":176602,"SoundDuration":176602,"Delta":9411854},{"NoteNumber":62,"Velocity":41,"Duration":109641,"SoundDuration":109641,"Delta":9501216},{"NoteNumber":50,"Velocity":34,"Duration":109641,"SoundDuration":109641,"Delta":9501216},{"NoteNumber":67,"Velocity":42,"Duration":89601,"SoundDuration":89601,"Delta":9588457},{"NoteNumber":55,"Velocity":35,"Duration":89601,"SoundDuration":89601,"Delta":9588457},{"NoteNumber":71,"Velocity":53,"Duration":111527,"SoundDuration":111527,"Delta":9678059},{"NoteNumber":59,"Velocity":45,"Duration":111527,"SoundDuration":111527,"Delta":9678059},{"NoteNumber":62,"Velocity":45,"Duration":110164,"SoundDuration":110164,"Delta":9767660},{"NoteNumber":50,"Velocity":38,"Duration":110164,"SoundDuration":110164,"Delta":9767660},{"NoteNumber":66,"Velocity":45,"Duration":112243,"SoundDuration":112243,"Delta":9855364},{"NoteNumber":54,"Velocity":38,"Duration":112243,"SoundDuration":112243,"Delta":9855364},{"NoteNumber":58,"Velocity":42,"Duration":111527,"SoundDuration":111527,"Delta":9945208},{"NoteNumber":46,"Velocity":36,"Duration":111527,"SoundDuration":111527,"Delta":9945208},{"NoteNumber":61,"Velocity":42,"Duration":110104,"SoundDuration":110104,"Delta":10034809},{"NoteNumber":49,"Velocity":35,"Duration":110104,"SoundDuration":110104,"Delta":10034809},{"NoteNumber":66,"Velocity":43,"Duration":89601,"SoundDuration":89601,"Delta":10122513},{"NoteNumber":54,"Velocity":36,"Duration":89601,"SoundDuration":89601,"Delta":10122513},{"NoteNumber":70,"Velocity":50,"Duration":111643,"SoundDuration":111643,"Delta":10212115},{"NoteNumber":58,"Velocity":42,"Duration":111643,"SoundDuration":111643,"Delta":10212115},{"NoteNumber":66,"Velocity":45,"Duration":110508,"SoundDuration":110508,"Delta":10301717},{"NoteNumber":54,"Velocity":38,"Duration":110508,"SoundDuration":110508,"Delta":10301717},{"NoteNumber":71,"Velocity":42,"Duration":111115,"SoundDuration":111115,"Delta":10389885},{"NoteNumber":59,"Velocity":35,"Duration":111115,"SoundDuration":111115,"Delta":10389885},{"NoteNumber":72,"Velocity":46,"Duration":108199,"SoundDuration":108199,"Delta":10479246},{"NoteNumber":60,"Velocity":39,"Duration":108199,"SoundDuration":108199,"Delta":10479246},{"NoteNumber":73,"Velocity":51,"Duration":107081,"SoundDuration":107081,"Delta":10565918},{"NoteNumber":61,"Velocity":43,"Duration":107081,"SoundDuration":107081,"Delta":10565918},{"NoteNumber":75,"Velocity":54,"Duration":85222,"SoundDuration":85222,"Delta":10651694},{"NoteNumber":63,"Velocity":45,"Duration":85222,"SoundDuration":85222,"Delta":10651694},{"NoteNumber":76,"Velocity":57,"Duration":110803,"SoundDuration":110803,"Delta":10736916},{"NoteNumber":64,"Velocity":48,"Duration":110803,"SoundDuration":110803,"Delta":10736916},{"NoteNumber":67,"Velocity":45,"Duration":110164,"SoundDuration":110164,"Delta":10825793},{"NoteNumber":55,"Velocity":38,"Duration":110164,"SoundDuration":110164,"Delta":10825793},{"NoteNumber":72,"Velocity":45,"Duration":112243,"SoundDuration":112243,"Delta":10913497},{"NoteNumber":60,"Velocity":38,"Duration":112243,"SoundDuration":112243,"Delta":10913497},{"NoteNumber":63,"Velocity":43,"Duration":177305,"SoundDuration":177305,"Delta":11003341},{"NoteNumber":51,"Velocity":34,"Duration":177305,"SoundDuration":177305,"Delta":11003341},{"NoteNumber":66,"Velocity":44,"Duration":110104,"SoundDuration":110104,"Delta":11092942},{"NoteNumber":54,"Velocity":34,"Duration":110104,"SoundDuration":110104,"Delta":11092942},{"NoteNumber":71,"Velocity":44,"Duration":89601,"SoundDuration":89601,"Delta":11180646},{"NoteNumber":59,"Velocity":34,"Duration":89601,"SoundDuration":89601,"Delta":11180646},{"NoteNumber":74,"Velocity":48,"Duration":175046,"SoundDuration":175046,"Delta":11270248},{"NoteNumber":62,"Velocity":40,"Duration":175046,"SoundDuration":175046,"Delta":11270248},{"NoteNumber":65,"Velocity":42,"Duration":107486,"SoundDuration":107486,"Delta":11359850},{"NoteNumber":53,"Velocity":35,"Duration":107486,"SoundDuration":107486,"Delta":11359850},{"NoteNumber":70,"Velocity":43,"Duration":110210,"SoundDuration":110210,"Delta":11445294},{"NoteNumber":58,"Velocity":36,"Duration":110210,"SoundDuration":110210,"Delta":11445294},{"NoteNumber":61,"Velocity":43,"Duration":175409,"SoundDuration":175409,"Delta":11533462},{"NoteNumber":49,"Velocity":36,"Duration":175409,"SoundDuration":175409,"Delta":11533462},{"NoteNumber":64,"Velocity":45,"Duration":109641,"SoundDuration":109641,"Delta":11621630},{"NoteNumber":52,"Velocity":38,"Duration":109641,"SoundDuration":109641,"Delta":11621630},{"NoteNumber":69,"Velocity":45,"Duration":89601,"SoundDuration":89601,"Delta":11708871},{"NoteNumber":57,"Velocity":38,"Duration":89601,"SoundDuration":89601,"Delta":11708871},{"NoteNumber":72,"Velocity":49,"Duration":111527,"SoundDuration":111527,"Delta":11798473},{"NoteNumber":60,"Velocity":41,"Duration":111527,"SoundDuration":111527,"Delta":11798473},{"NoteNumber":64,"Velocity":45,"Duration":110164,"SoundDuration":110164,"Delta":11888075},{"NoteNumber":52,"Velocity":38,"Duration":110164,"SoundDuration":110164,"Delta":11888075},{"NoteNumber":68,"Velocity":45,"Duration":112243,"SoundDuration":112243,"Delta":11975779},{"NoteNumber":56,"Velocity":38,"Duration":112243,"SoundDuration":112243,"Delta":11975779},{"NoteNumber":59,"Velocity":45,"Duration":111527,"SoundDuration":111527,"Delta":12065622},{"NoteNumber":47,"Velocity":39,"Duration":111527,"SoundDuration":111527,"Delta":12065622},{"NoteNumber":62,"Velocity":43,"Duration":110104,"SoundDuration":110104,"Delta":12155224},{"NoteNumber":50,"Velocity":36,"Duration":110104,"SoundDuration":110104,"Delta":12155224},{"NoteNumber":67,"Velocity":43,"Duration":89601,"SoundDuration":89601,"Delta":12242928},{"NoteNumber":55,"Velocity":36,"Duration":89601,"SoundDuration":89601,"Delta":12242928},{"NoteNumber":71,"Velocity":50,"Duration":111643,"SoundDuration":111643,"Delta":12332529},{"NoteNumber":59,"Velocity":42,"Duration":111643,"SoundDuration":111643,"Delta":12332529},{"NoteNumber":66,"Velocity":45,"Duration":110508,"SoundDuration":110508,"Delta":12422131},{"NoteNumber":54,"Velocity":38,"Duration":110508,"SoundDuration":110508,"Delta":12422131},{"NoteNumber":73,"Velocity":45,"Duration":110945,"SoundDuration":110945,"Delta":12510299},{"NoteNumber":61,"Velocity":38,"Duration":110945,"SoundDuration":110945,"Delta":12510299},{"NoteNumber":74,"Velocity":50,"Duration":107248,"SoundDuration":107248,"Delta":12599661},{"NoteNumber":62,"Velocity":42,"Duration":107248,"SoundDuration":107248,"Delta":12599661},{"NoteNumber":75,"Velocity":52,"Duration":105771,"SoundDuration":105771,"Delta":12685604},{"NoteNumber":63,"Velocity":44,"Duration":105771,"SoundDuration":105771,"Delta":12685604},{"NoteNumber":76,"Velocity":54,"Duration":83931,"SoundDuration":83931,"Delta":12770392},{"NoteNumber":64,"Velocity":45,"Duration":83931,"SoundDuration":83931,"Delta":12770392},{"NoteNumber":77,"Velocity":56,"Duration":110566,"SoundDuration":110566,"Delta":12854324},{"NoteNumber":65,"Velocity":47,"Duration":110566,"SoundDuration":110566,"Delta":12854324},{"NoteNumber":69,"Velocity":45,"Duration":110726,"SoundDuration":110726,"Delta":12942964},{"NoteNumber":57,"Velocity":38,"Duration":110726,"SoundDuration":110726,"Delta":12942964},{"NoteNumber":75,"Velocity":45,"Duration":113232,"SoundDuration":113232,"Delta":13030668},{"NoteNumber":63,"Velocity":38,"Duration":113232,"SoundDuration":113232,"Delta":13030668},{"NoteNumber":76,"Velocity":54,"Duration":105392,"SoundDuration":105392,"Delta":13122758},{"NoteNumber":64,"Velocity":45,"Duration":105392,"SoundDuration":105392,"Delta":13122758},{"NoteNumber":77,"Velocity":53,"Duration":105931,"SoundDuration":105931,"Delta":13207168},{"NoteNumber":65,"Velocity":45,"Duration":105931,"SoundDuration":105931,"Delta":13207168},{"NoteNumber":78,"Velocity":56,"Duration":88640,"SoundDuration":88640,"Delta":13290940},{"NoteNumber":66,"Velocity":47,"Duration":88640,"SoundDuration":88640,"Delta":13290940},{"NoteNumber":77,"Velocity":61,"Duration":110682,"SoundDuration":110682,"Delta":13379581},{"NoteNumber":65,"Velocity":51,"Duration":110682,"SoundDuration":110682,"Delta":13379581},{"NoteNumber":70,"Velocity":46,"Duration":110508,"SoundDuration":110508,"Delta":13468221},{"NoteNumber":58,"Velocity":39,"Duration":110508,"SoundDuration":110508,"Delta":13468221},{"NoteNumber":73,"Velocity":50,"Duration":110504,"SoundDuration":110504,"Delta":13556389},{"NoteNumber":61,"Velocity":42,"Duration":110504,"SoundDuration":110504,"Delta":13556389},{"NoteNumber":76,"Velocity":55,"Duration":105392,"SoundDuration":105392,"Delta":13645751},{"NoteNumber":64,"Velocity":46,"Duration":105392,"SoundDuration":105392,"Delta":13645751},{"NoteNumber":77,"Velocity":57,"Duration":105931,"SoundDuration":105931,"Delta":13730161},{"NoteNumber":65,"Velocity":48,"Duration":105931,"SoundDuration":105931,"Delta":13730161},{"NoteNumber":78,"Velocity":59,"Duration":88640,"SoundDuration":88640,"Delta":13813933},{"NoteNumber":66,"Velocity":50,"Duration":88640,"SoundDuration":88640,"Delta":13813933},{"NoteNumber":79,"Velocity":64,"Duration":108553,"SoundDuration":108553,"Delta":13902573},{"NoteNumber":67,"Velocity":54,"Duration":108553,"SoundDuration":108553,"Delta":13902573},{"NoteNumber":71,"Velocity":47,"Duration":107089,"SoundDuration":107089,"Delta":13989821},{"NoteNumber":59,"Velocity":39,"Duration":107089,"SoundDuration":107089,"Delta":13989821},{"NoteNumber":77,"Velocity":54,"Duration":108559,"SoundDuration":108559,"Delta":14075043},{"NoteNumber":65,"Velocity":45,"Duration":108559,"SoundDuration":108559,"Delta":14075043},{"NoteNumber":78,"Velocity":60,"Duration":105125,"SoundDuration":105125,"Delta":14162513},{"NoteNumber":66,"Velocity":51,"Duration":105125,"SoundDuration":105125,"Delta":14162513},{"NoteNumber":79,"Velocity":60,"Duration":105155,"SoundDuration":105155,"Delta":14246710},{"NoteNumber":67,"Velocity":51,"Duration":105155,"SoundDuration":105155,"Delta":14246710},{"NoteNumber":80,"Velocity":65,"Duration":87013,"SoundDuration":87013,"Delta":14330112},{"NoteNumber":68,"Velocity":55,"Duration":87013,"SoundDuration":87013,"Delta":14330112},{"NoteNumber":79,"Velocity":68,"Duration":109055,"SoundDuration":109055,"Delta":14417126},{"NoteNumber":67,"Velocity":57,"Duration":109055,"SoundDuration":109055,"Delta":14417126},{"NoteNumber":72,"Velocity":51,"Duration":110508,"SoundDuration":110508,"Delta":14504139},{"NoteNumber":60,"Velocity":43,"Duration":110508,"SoundDuration":110508,"Delta":14504139},{"NoteNumber":75,"Velocity":60,"Duration":111229,"SoundDuration":111229,"Delta":14592307},{"NoteNumber":63,"Velocity":51,"Duration":111229,"SoundDuration":111229,"Delta":14592307},{"NoteNumber":78,"Velocity":64,"Duration":108766,"SoundDuration":108766,"Delta":14681669},{"NoteNumber":66,"Velocity":54,"Duration":108766,"SoundDuration":108766,"Delta":14681669},{"NoteNumber":79,"Velocity":67,"Duration":108381,"SoundDuration":108381,"Delta":14768796},{"NoteNumber":67,"Velocity":56,"Duration":108381,"SoundDuration":108381,"Delta":14768796},{"NoteNumber":80,"Velocity":68,"Duration":88640,"SoundDuration":88640,"Delta":14855017},{"NoteNumber":68,"Velocity":57,"Duration":88640,"SoundDuration":88640,"Delta":14855017},{"NoteNumber":75,"Velocity":68,"Duration":174304,"SoundDuration":174304,"Delta":14943658},{"NoteNumber":63,"Velocity":57,"Duration":174304,"SoundDuration":174304,"Delta":14943658},{"NoteNumber":72,"Velocity":58,"Duration":107824,"SoundDuration":107824,"Delta":15032298},{"NoteNumber":60,"Velocity":49,"Duration":107824,"SoundDuration":107824,"Delta":15032298},{"NoteNumber":77,"Velocity":51,"Duration":111041,"SoundDuration":111041,"Delta":15117962},{"NoteNumber":65,"Velocity":43,"Duration":111041,"SoundDuration":111041,"Delta":15117962},{"NoteNumber":75,"Velocity":53,"Duration":175934,"SoundDuration":175934,"Delta":15206603},{"NoteNumber":63,"Velocity":43,"Duration":175934,"SoundDuration":175934,"Delta":15206603},{"NoteNumber":68,"Velocity":49,"Duration":108552,"SoundDuration":108552,"Delta":15296205},{"NoteNumber":56,"Velocity":41,"Duration":108552,"SoundDuration":108552,"Delta":15296205},{"NoteNumber":73,"Velocity":52,"Duration":88877,"SoundDuration":88877,"Delta":15382538},{"NoteNumber":61,"Velocity":44,"Duration":88877,"SoundDuration":88877,"Delta":15382538},{"NoteNumber":72,"Velocity":57,"Duration":175660,"SoundDuration":175660,"Delta":15471415},{"NoteNumber":60,"Velocity":48,"Duration":175660,"SoundDuration":175660,"Delta":15471415},{"NoteNumber":63,"Velocity":45,"Duration":109123,"SoundDuration":109123,"Delta":15560292},{"NoteNumber":51,"Velocity":38,"Duration":109123,"SoundDuration":109123,"Delta":15560292},{"NoteNumber":70,"Velocity":47,"Duration":111702,"SoundDuration":111702,"Delta":15647075},{"NoteNumber":58,"Velocity":39,"Duration":111702,"SoundDuration":111702,"Delta":15647075},{"NoteNumber":68,"Velocity":50,"Duration":176602,"SoundDuration":176602,"Delta":15736437},{"NoteNumber":56,"Velocity":41,"Duration":176602,"SoundDuration":176602,"Delta":15736437},{"NoteNumber":60,"Velocity":47,"Duration":109641,"SoundDuration":109641,"Delta":15825798},{"NoteNumber":48,"Velocity":39,"Duration":109641,"SoundDuration":109641,"Delta":15825798},{"NoteNumber":65,"Velocity":47,"Duration":89601,"SoundDuration":89601,"Delta":15913039},{"NoteNumber":53,"Velocity":39,"Duration":89601,"SoundDuration":89601,"Delta":15913039},{"NoteNumber":63,"Velocity":56,"Duration":111527,"SoundDuration":111527,"Delta":16002641},{"NoteNumber":51,"Velocity":47,"Duration":111527,"SoundDuration":111527,"Delta":16002641},{"NoteNumber":56,"Velocity":45,"Duration":110164,"SoundDuration":110164,"Delta":16092243},{"NoteNumber":44,"Velocity":38,"Duration":110164,"SoundDuration":110164,"Delta":16092243},{"NoteNumber":61,"Velocity":45,"Duration":112243,"SoundDuration":112243,"Delta":16179947},{"NoteNumber":49,"Velocity":38,"Duration":112243,"SoundDuration":112243,"Delta":16179947},{"NoteNumber":60,"Velocity":45,"Duration":111527,"SoundDuration":111527,"Delta":16269790},{"NoteNumber":48,"Velocity":36,"Duration":111527,"SoundDuration":111527,"Delta":16269790},{"NoteNumber":55,"Velocity":42,"Duration":110104,"SoundDuration":110104,"Delta":16359392},{"NoteNumber":43,"Velocity":35,"Duration":110104,"SoundDuration":110104,"Delta":16359392},{"NoteNumber":56,"Velocity":43,"Duration":89601,"SoundDuration":89601,"Delta":16447096},{"NoteNumber":44,"Velocity":36,"Duration":89601,"SoundDuration":89601,"Delta":16447096},{"NoteNumber":60,"Velocity":47,"Duration":111643,"SoundDuration":111643,"Delta":16536697},{"NoteNumber":48,"Velocity":39,"Duration":111643,"SoundDuration":111643,"Delta":16536697},{"NoteNumber":54,"Velocity":39,"Duration":110508,"SoundDuration":110508,"Delta":16626299},{"NoteNumber":42,"Velocity":33,"Duration":110508,"SoundDuration":110508,"Delta":16626299},{"NoteNumber":62,"Velocity":38,"Duration":111702,"SoundDuration":111702,"Delta":16714467},{"NoteNumber":50,"Velocity":32,"Duration":111702,"SoundDuration":111702,"Delta":16714467},{"NoteNumber":60,"Velocity":40,"Duration":111171,"SoundDuration":111171,"Delta":16803829},{"NoteNumber":48,"Velocity":34,"Duration":111171,"SoundDuration":111171,"Delta":16803829},{"NoteNumber":53,"Velocity":39,"Duration":109641,"SoundDuration":109641,"Delta":16893190},{"NoteNumber":41,"Velocity":33,"Duration":109641,"SoundDuration":109641,"Delta":16893190},{"NoteNumber":54,"Velocity":37,"Duration":89601,"SoundDuration":89601,"Delta":16980431},{"NoteNumber":42,"Velocity":29,"Duration":89601,"SoundDuration":89601,"Delta":16980431},{"NoteNumber":55,"Velocity":42,"Duration":107303,"SoundDuration":107303,"Delta":17070033},{"NoteNumber":43,"Velocity":35,"Duration":107303,"SoundDuration":107303,"Delta":17070033},{"NoteNumber":57,"Velocity":38,"Duration":108482,"SoundDuration":108482,"Delta":17155753},{"NoteNumber":45,"Velocity":32,"Duration":108482,"SoundDuration":108482,"Delta":17155753},{"NoteNumber":59,"Velocity":35,"Duration":109629,"SoundDuration":109629,"Delta":17242425},{"NoteNumber":47,"Velocity":29,"Duration":109629,"SoundDuration":109629,"Delta":17242425},{"NoteNumber":60,"Velocity":36,"Duration":110801,"SoundDuration":110801,"Delta":17330013},{"NoteNumber":48,"Velocity":33,"Duration":110801,"SoundDuration":110801,"Delta":17330013},{"NoteNumber":62,"Velocity":38,"Duration":112063,"SoundDuration":112063,"Delta":17418536},{"NoteNumber":50,"Velocity":32,"Duration":112063,"SoundDuration":112063,"Delta":17418536},{"NoteNumber":63,"Velocity":42,"Duration":90334,"SoundDuration":90334,"Delta":17508016},{"NoteNumber":51,"Velocity":35,"Duration":90334,"SoundDuration":90334,"Delta":17508016},{"NoteNumber":56,"Velocity":45,"Duration":107692,"SoundDuration":107692,"Delta":17598350},{"NoteNumber":44,"Velocity":38,"Duration":107692,"SoundDuration":107692,"Delta":17598350},{"NoteNumber":58,"Velocity":36,"Duration":108766,"SoundDuration":108766,"Delta":17684404},{"NoteNumber":46,"Velocity":30,"Duration":108766,"SoundDuration":108766,"Delta":17684404},{"NoteNumber":59,"Velocity":34,"Duration":109803,"SoundDuration":109803,"Delta":17771302},{"NoteNumber":47,"Velocity":28,"Duration":109803,"SoundDuration":109803,"Delta":17771302},{"NoteNumber":60,"Velocity":38,"Duration":110801,"SoundDuration":110801,"Delta":17859063},{"NoteNumber":48,"Velocity":32,"Duration":110801,"SoundDuration":110801,"Delta":17859063},{"NoteNumber":61,"Velocity":37,"Duration":112002,"SoundDuration":112002,"Delta":17947586},{"NoteNumber":49,"Velocity":32,"Duration":112002,"SoundDuration":112002,"Delta":17947586},{"NoteNumber":63,"Velocity":37,"Duration":90090,"SoundDuration":90090,"Delta":18037067},{"NoteNumber":51,"Velocity":31,"Duration":90090,"SoundDuration":90090,"Delta":18037067},{"NoteNumber":57,"Velocity":48,"Duration":107973,"SoundDuration":107973,"Delta":18127157},{"NoteNumber":45,"Velocity":40,"Duration":107973,"SoundDuration":107973,"Delta":18127157},{"NoteNumber":58,"Velocity":41,"Duration":109052,"SoundDuration":109052,"Delta":18213435},{"NoteNumber":46,"Velocity":34,"Duration":109052,"SoundDuration":109052,"Delta":18213435},{"NoteNumber":60,"Velocity":38,"Duration":110213,"SoundDuration":110213,"Delta":18300561},{"NoteNumber":48,"Velocity":32,"Duration":110213,"SoundDuration":110213,"Delta":18300561},{"NoteNumber":61,"Velocity":43,"Duration":111398,"SoundDuration":111398,"Delta":18388615},{"NoteNumber":49,"Velocity":36,"Duration":111398,"SoundDuration":111398,"Delta":18388615},{"NoteNumber":63,"Velocity":41,"Duration":112612,"SoundDuration":112612,"Delta":18477613},{"NoteNumber":51,"Velocity":34,"Duration":112612,"SoundDuration":112612,"Delta":18477613},{"NoteNumber":65,"Velocity":42,"Duration":90579,"SoundDuration":90579,"Delta":18567580},{"NoteNumber":53,"Velocity":35,"Duration":90579,"SoundDuration":90579,"Delta":18567580},{"NoteNumber":58,"Velocity":48,"Duration":108141,"SoundDuration":108141,"Delta":18658160},{"NoteNumber":46,"Velocity":40,"Duration":108141,"SoundDuration":108141,"Delta":18658160},{"NoteNumber":59,"Velocity":38,"Duration":108880,"SoundDuration":108880,"Delta":18744606},{"NoteNumber":47,"Velocity":32,"Duration":108880,"SoundDuration":108880,"Delta":18744606},{"NoteNumber":60,"Velocity":39,"Duration":109628,"SoundDuration":109628,"Delta":18831618},{"NoteNumber":48,"Velocity":33,"Duration":109628,"SoundDuration":109628,"Delta":18831618},{"NoteNumber":61,"Velocity":43,"Duration":110388,"SoundDuration":110388,"Delta":18919263},{"NoteNumber":49,"Velocity":36,"Duration":110388,"SoundDuration":110388,"Delta":18919263},{"NoteNumber":63,"Velocity":39,"Duration":111217,"SoundDuration":111217,"Delta":19007492},{"NoteNumber":51,"Velocity":33,"Duration":111217,"SoundDuration":111217,"Delta":19007492},{"NoteNumber":65,"Velocity":43,"Duration":89361,"SoundDuration":89361,"Delta":19096369},{"NoteNumber":53,"Velocity":36,"Duration":89361,"SoundDuration":89361,"Delta":19096369},{"NoteNumber":60,"Velocity":51,"Duration":112183,"SoundDuration":112183,"Delta":19185731},{"NoteNumber":48,"Velocity":43,"Duration":112183,"SoundDuration":112183,"Delta":19185731},{"NoteNumber":61,"Velocity":43,"Duration":111638,"SoundDuration":111638,"Delta":19275514},{"NoteNumber":49,"Velocity":36,"Duration":111638,"SoundDuration":111638,"Delta":19275514},{"NoteNumber":62,"Velocity":39,"Duration":111037,"SoundDuration":111037,"Delta":19364874},{"NoteNumber":50,"Velocity":33,"Duration":111037,"SoundDuration":111037,"Delta":19364874},{"NoteNumber":63,"Velocity":44,"Duration":110447,"SoundDuration":110447,"Delta":19453751},{"NoteNumber":51,"Velocity":37,"Duration":110447,"SoundDuration":110447,"Delta":19453751},{"NoteNumber":65,"Velocity":43,"Duration":110336,"SoundDuration":110336,"Delta":19542156},{"NoteNumber":53,"Velocity":36,"Duration":110336,"SoundDuration":110336,"Delta":19542156},{"NoteNumber":66,"Velocity":45,"Duration":89601,"SoundDuration":89601,"Delta":19630092},{"NoteNumber":54,"Velocity":38,"Duration":89601,"SoundDuration":89601,"Delta":19630092},{"NoteNumber":57,"Velocity":51,"Duration":111882,"SoundDuration":111882,"Delta":19719693},{"NoteNumber":45,"Velocity":43,"Duration":111882,"SoundDuration":111882,"Delta":19719693},{"NoteNumber":61,"Velocity":43,"Duration":111217,"SoundDuration":111217,"Delta":19809235},{"NoteNumber":49,"Velocity":36,"Duration":111217,"SoundDuration":111217,"Delta":19809235},{"NoteNumber":62,"Velocity":43,"Duration":110505,"SoundDuration":110505,"Delta":19898293},{"NoteNumber":50,"Velocity":36,"Duration":110505,"SoundDuration":110505,"Delta":19898293},{"NoteNumber":63,"Velocity":47,"Duration":109803,"SoundDuration":109803,"Delta":19986756},{"NoteNumber":51,"Velocity":39,"Duration":109803,"SoundDuration":109803,"Delta":19986756},{"NoteNumber":65,"Velocity":45,"Duration":109699,"SoundDuration":109699,"Delta":20074692},{"NoteNumber":53,"Velocity":38,"Duration":109699,"SoundDuration":109699,"Delta":20074692},{"NoteNumber":66,"Velocity":48,"Duration":89601,"SoundDuration":89601,"Delta":20161991},{"NoteNumber":54,"Velocity":40,"Duration":89601,"SoundDuration":89601,"Delta":20161991},{"NoteNumber":69,"Velocity":59,"Duration":110962,"SoundDuration":110962,"Delta":20251592},{"NoteNumber":57,"Velocity":50,"Duration":110962,"SoundDuration":110962,"Delta":20251592},{"NoteNumber":66,"Velocity":48,"Duration":107486,"SoundDuration":107486,"Delta":20341194},{"NoteNumber":54,"Velocity":40,"Duration":107486,"SoundDuration":107486,"Delta":20341194},{"NoteNumber":64,"Velocity":48,"Duration":110328,"SoundDuration":110328,"Delta":20426639},{"NoteNumber":52,"Velocity":40,"Duration":110328,"SoundDuration":110328,"Delta":20426639},{"NoteNumber":62,"Velocity":49,"Duration":110223,"SoundDuration":110223,"Delta":20514807},{"NoteNumber":50,"Velocity":41,"Duration":110223,"SoundDuration":110223,"Delta":20514807},{"NoteNumber":64,"Velocity":45,"Duration":108733,"SoundDuration":108733,"Delta":20603447},{"NoteNumber":52,"Velocity":38,"Duration":108733,"SoundDuration":108733,"Delta":20603447},{"NoteNumber":66,"Velocity":46,"Duration":89601,"SoundDuration":89601,"Delta":20689781},{"NoteNumber":54,"Velocity":39,"Duration":89601,"SoundDuration":89601,"Delta":20689781},{"NoteNumber":57,"Velocity":51,"Duration":111643,"SoundDuration":111643,"Delta":20779382},{"NoteNumber":45,"Velocity":43,"Duration":111643,"SoundDuration":111643,"Delta":20779382},{"NoteNumber":61,"Velocity":43,"Duration":110508,"SoundDuration":110508,"Delta":20868984},{"NoteNumber":49,"Velocity":36,"Duration":110508,"SoundDuration":110508,"Delta":20868984},{"NoteNumber":62,"Velocity":41,"Duration":111702,"SoundDuration":111702,"Delta":20957152},{"NoteNumber":50,"Velocity":34,"Duration":111702,"SoundDuration":111702,"Delta":20957152},{"NoteNumber":64,"Velocity":45,"Duration":111171,"SoundDuration":111171,"Delta":21046514},{"NoteNumber":52,"Velocity":38,"Duration":111171,"SoundDuration":111171,"Delta":21046514},{"NoteNumber":65,"Velocity":40,"Duration":109641,"SoundDuration":109641,"Delta":21135875},{"NoteNumber":53,"Velocity":34,"Duration":109641,"SoundDuration":109641,"Delta":21135875},{"NoteNumber":66,"Velocity":45,"Duration":89601,"SoundDuration":89601,"Delta":21223116},{"NoteNumber":54,"Velocity":38,"Duration":89601,"SoundDuration":89601,"Delta":21223116},{"NoteNumber":69,"Velocity":51,"Duration":111129,"SoundDuration":111129,"Delta":21312718},{"NoteNumber":57,"Velocity":43,"Duration":111129,"SoundDuration":111129,"Delta":21312718},{"NoteNumber":68,"Velocity":44,"Duration":108270,"SoundDuration":108270,"Delta":21402320},{"NoteNumber":56,"Velocity":37,"Duration":108270,"SoundDuration":108270,"Delta":21402320},{"NoteNumber":67,"Velocity":40,"Duration":110859,"SoundDuration":110859,"Delta":21488430},{"NoteNumber":55,"Velocity":34,"Duration":110859,"SoundDuration":110859,"Delta":21488430},{"NoteNumber":66,"Velocity":46,"Duration":110516,"SoundDuration":110516,"Delta":21577071},{"NoteNumber":54,"Velocity":39,"Duration":110516,"SoundDuration":110516,"Delta":21577071},{"NoteNumber":63,"Velocity":43,"Duration":108958,"SoundDuration":108958,"Delta":21665948},{"NoteNumber":51,"Velocity":36,"Duration":108958,"SoundDuration":108958,"Delta":21665948},{"NoteNumber":60,"Velocity":44,"Duration":89601,"SoundDuration":89601,"Delta":21752505},{"NoteNumber":48,"Velocity":37,"Duration":89601,"SoundDuration":89601,"Delta":21752505},{"NoteNumber":66,"Velocity":49,"Duration":111643,"SoundDuration":111643,"Delta":21842107},{"NoteNumber":54,"Velocity":41,"Duration":111643,"SoundDuration":111643,"Delta":21842107},{"NoteNumber":63,"Velocity":43,"Duration":110508,"SoundDuration":110508,"Delta":21931709},{"NoteNumber":51,"Velocity":36,"Duration":110508,"SoundDuration":110508,"Delta":21931709},{"NoteNumber":60,"Velocity":43,"Duration":111702,"SoundDuration":111702,"Delta":22019877},{"NoteNumber":48,"Velocity":36,"Duration":111702,"SoundDuration":111702,"Delta":22019877},{"NoteNumber":58,"Velocity":45,"Duration":111171,"SoundDuration":111171,"Delta":22109238},{"NoteNumber":46,"Velocity":38,"Duration":111171,"SoundDuration":111171,"Delta":22109238},{"NoteNumber":57,"Velocity":44,"Duration":109641,"SoundDuration":109641,"Delta":22198600},{"NoteNumber":45,"Velocity":37,"Duration":109641,"SoundDuration":109641,"Delta":22198600},{"NoteNumber":56,"Velocity":43,"Duration":89601,"SoundDuration":89601,"Delta":22285841},{"NoteNumber":44,"Velocity":36,"Duration":89601,"SoundDuration":89601,"Delta":22285841},{"NoteNumber":55,"Velocity":46,"Duration":111184,"SoundDuration":111184,"Delta":22375443},{"NoteNumber":43,"Velocity":39,"Duration":111184,"SoundDuration":111184,"Delta":22375443},{"NoteNumber":56,"Velocity":39,"Duration":108434,"SoundDuration":108434,"Delta":22465044},{"NoteNumber":44,"Velocity":33,"Duration":108434,"SoundDuration":108434,"Delta":22465044},{"NoteNumber":57,"Velocity":39,"Duration":110507,"SoundDuration":110507,"Delta":22551378},{"NoteNumber":45,"Velocity":33,"Duration":110507,"SoundDuration":110507,"Delta":22551378},{"NoteNumber":53,"Velocity":39,"Duration":110158,"SoundDuration":110158,"Delta":22639783},{"NoteNumber":41,"Velocity":35,"Duration":110158,"SoundDuration":110158,"Delta":22639783},{"NoteNumber":54,"Velocity":39,"Duration":109413,"SoundDuration":109413,"Delta":22728189},{"NoteNumber":42,"Velocity":33,"Duration":109413,"SoundDuration":109413,"Delta":22728189},{"NoteNumber":56,"Velocity":39,"Duration":89601,"SoundDuration":89601,"Delta":22815202},{"NoteNumber":44,"Velocity":33,"Duration":89601,"SoundDuration":89601,"Delta":22815202},{"NoteNumber":52,"Velocity":44,"Duration":111411,"SoundDuration":111411,"Delta":22904804},{"NoteNumber":40,"Velocity":37,"Duration":111411,"SoundDuration":111411,"Delta":22904804},{"NoteNumber":53,"Velocity":38,"Duration":109581,"SoundDuration":109581,"Delta":22994406},{"NoteNumber":41,"Velocity":32,"Duration":109581,"SoundDuration":109581,"Delta":22994406},{"NoteNumber":54,"Velocity":37,"Duration":111702,"SoundDuration":111702,"Delta":23081647},{"NoteNumber":42,"Velocity":31,"Duration":111702,"SoundDuration":111702,"Delta":23081647},{"NoteNumber":50,"Velocity":38,"Duration":111171,"SoundDuration":111171,"Delta":23171008},{"NoteNumber":38,"Velocity":30,"Duration":111171,"SoundDuration":111171,"Delta":23171008},{"NoteNumber":51,"Velocity":36,"Duration":109641,"SoundDuration":109641,"Delta":23260370},{"NoteNumber":39,"Velocity":30,"Duration":109641,"SoundDuration":109641,"Delta":23260370},{"NoteNumber":53,"Velocity":36,"Duration":89601,"SoundDuration":89601,"Delta":23347611},{"NoteNumber":41,"Velocity":30,"Duration":89601,"SoundDuration":89601,"Delta":23347611},{"NoteNumber":43,"Velocity":38,"Duration":112739,"SoundDuration":112739,"Delta":23437213},{"NoteNumber":31,"Velocity":32,"Duration":112739,"SoundDuration":112739,"Delta":23437213},{"NoteNumber":44,"Velocity":34,"Duration":111101,"SoundDuration":111101,"Delta":23527792},{"NoteNumber":32,"Velocity":28,"Duration":111101,"SoundDuration":111101,"Delta":23527792},{"NoteNumber":46,"Velocity":34,"Duration":112426,"SoundDuration":112426,"Delta":23616433},{"NoteNumber":34,"Velocity":28,"Duration":112426,"SoundDuration":112426,"Delta":23616433},{"NoteNumber":48,"Velocity":36,"Duration":112435,"SoundDuration":112435,"Delta":23706276},{"NoteNumber":36,"Velocity":30,"Duration":112435,"SoundDuration":112435,"Delta":23706276},{"NoteNumber":49,"Velocity":38,"Duration":110806,"SoundDuration":110806,"Delta":23796611},{"NoteNumber":37,"Velocity":32,"Duration":110806,"SoundDuration":110806,"Delta":23796611},{"NoteNumber":51,"Velocity":39,"Duration":89601,"SoundDuration":89601,"Delta":23885016},{"NoteNumber":39,"Velocity":32,"Duration":89601,"SoundDuration":89601,"Delta":23885016},{"NoteNumber":53,"Velocity":41,"Duration":111643,"SoundDuration":111643,"Delta":23974618},{"NoteNumber":41,"Velocity":34,"Duration":111643,"SoundDuration":111643,"Delta":23974618},{"NoteNumber":54,"Velocity":40,"Duration":110508,"SoundDuration":110508,"Delta":24064220},{"NoteNumber":42,"Velocity":34,"Duration":110508,"SoundDuration":110508,"Delta":24064220},{"NoteNumber":55,"Velocity":41,"Duration":111702,"SoundDuration":111702,"Delta":24152388},{"NoteNumber":43,"Velocity":34,"Duration":111702,"SoundDuration":111702,"Delta":24152388},{"NoteNumber":56,"Velocity":42,"Duration":111171,"SoundDuration":111171,"Delta":24241749},{"NoteNumber":44,"Velocity":37,"Duration":111171,"SoundDuration":111171,"Delta":24241749},{"NoteNumber":53,"Velocity":41,"Duration":109641,"SoundDuration":109641,"Delta":24331111},{"NoteNumber":41,"Velocity":34,"Duration":109641,"SoundDuration":109641,"Delta":24331111},{"NoteNumber":58,"Velocity":41,"Duration":89601,"SoundDuration":89601,"Delta":24418352},{"NoteNumber":46,"Velocity":34,"Duration":89601,"SoundDuration":89601,"Delta":24418352},{"NoteNumber":56,"Velocity":46,"Duration":107148,"SoundDuration":107148,"Delta":24507954},{"NoteNumber":44,"Velocity":39,"Duration":107148,"SoundDuration":107148,"Delta":24507954},{"NoteNumber":65,"Velocity":49,"Duration":110164,"SoundDuration":110164,"Delta":24593176},{"NoteNumber":53,"Velocity":41,"Duration":110164,"SoundDuration":110164,"Delta":24593176},{"NoteNumber":63,"Velocity":47,"Duration":112243,"SoundDuration":112243,"Delta":24680880},{"NoteNumber":51,"Velocity":39,"Duration":112243,"SoundDuration":112243,"Delta":24680880},{"NoteNumber":61,"Velocity":49,"Duration":111527,"SoundDuration":111527,"Delta":24770723},{"NoteNumber":49,"Velocity":41,"Duration":111527,"SoundDuration":111527,"Delta":24770723},{"NoteNumber":60,"Velocity":46,"Duration":110104,"SoundDuration":110104,"Delta":24860325},{"NoteNumber":48,"Velocity":38,"Duration":110104,"SoundDuration":110104,"Delta":24860325},{"NoteNumber":58,"Velocity":46,"Duration":89601,"SoundDuration":89601,"Delta":24948029},{"NoteNumber":46,"Velocity":39,"Duration":89601,"SoundDuration":89601,"Delta":24948029},{"NoteNumber":56,"Velocity":45,"Duration":111643,"SoundDuration":111643,"Delta":25037631},{"NoteNumber":44,"Velocity":38,"Duration":111643,"SoundDuration":111643,"Delta":25037631},{"NoteNumber":53,"Velocity":43,"Duration":110508,"SoundDuration":110508,"Delta":25127232},{"NoteNumber":41,"Velocity":36,"Duration":110508,"SoundDuration":110508,"Delta":25127232},{"NoteNumber":54,"Velocity":43,"Duration":111702,"SoundDuration":111702,"Delta":25215400},{"NoteNumber":42,"Velocity":36,"Duration":111702,"SoundDuration":111702,"Delta":25215400},{"NoteNumber":56,"Velocity":43,"Duration":111171,"SoundDuration":111171,"Delta":25304762},{"NoteNumber":44,"Velocity":39,"Duration":111171,"SoundDuration":111171,"Delta":25304762},{"NoteNumber":53,"Velocity":46,"Duration":109641,"SoundDuration":109641,"Delta":25394124},{"NoteNumber":41,"Velocity":38,"Duration":109641,"SoundDuration":109641,"Delta":25394124},{"NoteNumber":58,"Velocity":45,"Duration":89601,"SoundDuration":89601,"Delta":25481365},{"NoteNumber":46,"Velocity":38,"Duration":89601,"SoundDuration":89601,"Delta":25481365},{"NoteNumber":56,"Velocity":51,"Duration":111527,"SoundDuration":111527,"Delta":25570966},{"NoteNumber":44,"Velocity":43,"Duration":111527,"SoundDuration":111527,"Delta":25570966},{"NoteNumber":51,"Velocity":44,"Duration":110164,"SoundDuration":110164,"Delta":25660568},{"NoteNumber":39,"Velocity":37,"Duration":110164,"SoundDuration":110164,"Delta":25660568},{"NoteNumber":53,"Velocity":44,"Duration":112243,"SoundDuration":112243,"Delta":25748272},{"NoteNumber":41,"Velocity":37,"Duration":112243,"SoundDuration":112243,"Delta":25748272},{"NoteNumber":54,"Velocity":45,"Duration":111761,"SoundDuration":111761,"Delta":25838115},{"NoteNumber":42,"Velocity":38,"Duration":111761,"SoundDuration":111761,"Delta":25838115},{"NoteNumber":51,"Velocity":43,"Duration":111348,"SoundDuration":111348,"Delta":25927717},{"NoteNumber":39,"Velocity":36,"Duration":111348,"SoundDuration":111348,"Delta":25927717},{"NoteNumber":58,"Velocity":53,"Duration":90830,"SoundDuration":90830,"Delta":26016358},{"NoteNumber":46,"Velocity":45,"Duration":90830,"SoundDuration":90830,"Delta":26016358},{"NoteNumber":56,"Velocity":51,"Duration":113049,"SoundDuration":113049,"Delta":26107188},{"NoteNumber":44,"Velocity":43,"Duration":113049,"SoundDuration":113049,"Delta":26107188},{"NoteNumber":49,"Velocity":46,"Duration":111646,"SoundDuration":111646,"Delta":26198019},{"NoteNumber":37,"Velocity":39,"Duration":111646,"SoundDuration":111646,"Delta":26198019},{"NoteNumber":51,"Velocity":47,"Duration":113848,"SoundDuration":113848,"Delta":26286896},{"NoteNumber":39,"Velocity":39,"Duration":113848,"SoundDuration":113848,"Delta":26286896},{"NoteNumber":53,"Velocity":51,"Duration":113238,"SoundDuration":113238,"Delta":26377975},{"NoteNumber":41,"Velocity":43,"Duration":113238,"SoundDuration":113238,"Delta":26377975},{"NoteNumber":49,"Velocity":47,"Duration":111041,"SoundDuration":111041,"Delta":26469053},{"NoteNumber":37,"Velocity":39,"Duration":111041,"SoundDuration":111041,"Delta":26469053},{"NoteNumber":58,"Velocity":53,"Duration":89601,"SoundDuration":89601,"Delta":26557694},{"NoteNumber":46,"Velocity":45,"Duration":89601,"SoundDuration":89601,"Delta":26557694},{"NoteNumber":56,"Velocity":51,"Duration":113419,"SoundDuration":113419,"Delta":26647296},{"NoteNumber":44,"Velocity":43,"Duration":113419,"SoundDuration":113419,"Delta":26647296},{"NoteNumber":48,"Velocity":44,"Duration":112384,"SoundDuration":112384,"Delta":26738374},{"NoteNumber":36,"Velocity":37,"Duration":112384,"SoundDuration":112384,"Delta":26738374},{"NoteNumber":49,"Velocity":44,"Duration":114859,"SoundDuration":114859,"Delta":26827736},{"NoteNumber":37,"Velocity":37,"Duration":114859,"SoundDuration":114859,"Delta":26827736},{"NoteNumber":51,"Velocity":46,"Duration":113479,"SoundDuration":113479,"Delta":26919826},{"NoteNumber":39,"Velocity":39,"Duration":113479,"SoundDuration":113479,"Delta":26919826},{"NoteNumber":48,"Velocity":43,"Duration":112753,"SoundDuration":112753,"Delta":27010904},{"NoteNumber":36,"Velocity":36,"Duration":112753,"SoundDuration":112753,"Delta":27010904},{"NoteNumber":53,"Velocity":50,"Duration":92605,"SoundDuration":92605,"Delta":27100506},{"NoteNumber":41,"Velocity":42,"Duration":92605,"SoundDuration":92605,"Delta":27100506},{"NoteNumber":51,"Velocity":48,"Duration":115374,"SoundDuration":115374,"Delta":27193111},{"NoteNumber":39,"Velocity":40,"Duration":115374,"SoundDuration":115374,"Delta":27193111},{"NoteNumber":46,"Velocity":46,"Duration":114557,"SoundDuration":114557,"Delta":27285717},{"NoteNumber":34,"Velocity":39,"Duration":114557,"SoundDuration":114557,"Delta":27285717},{"NoteNumber":53,"Velocity":47,"Duration":117392,"SoundDuration":117392,"Delta":27376795},{"NoteNumber":41,"Velocity":39,"Duration":117392,"SoundDuration":117392,"Delta":27376795},{"NoteNumber":51,"Velocity":51,"Duration":116746,"SoundDuration":116746,"Delta":27470710},{"NoteNumber":39,"Velocity":43,"Duration":116746,"SoundDuration":116746,"Delta":27470710},{"NoteNumber":44,"Velocity":47,"Duration":114740,"SoundDuration":114740,"Delta":27564624},{"NoteNumber":32,"Velocity":39,"Duration":114740,"SoundDuration":114740,"Delta":27564624},{"NoteNumber":46,"Velocity":47,"Duration":93650,"SoundDuration":93650,"Delta":27655952},{"NoteNumber":34,"Velocity":39,"Duration":93650,"SoundDuration":93650,"Delta":27655952},{"NoteNumber":44,"Velocity":51,"Duration":116357,"SoundDuration":116357,"Delta":27749603},{"NoteNumber":32,"Velocity":43,"Duration":116357,"SoundDuration":116357,"Delta":27749603},{"NoteNumber":49,"Velocity":40,"Duration":113853,"SoundDuration":113853,"Delta":27843253},{"NoteNumber":37,"Velocity":34,"Duration":113853,"SoundDuration":113853,"Delta":27843253},{"NoteNumber":51,"Velocity":42,"Duration":115048,"SoundDuration":115048,"Delta":27934084},{"NoteNumber":39,"Velocity":35,"Duration":115048,"SoundDuration":115048,"Delta":27934084},{"NoteNumber":53,"Velocity":43,"Duration":114296,"SoundDuration":114296,"Delta":28026173},{"NoteNumber":41,"Velocity":36,"Duration":114296,"SoundDuration":114296,"Delta":28026173},{"NoteNumber":54,"Velocity":45,"Duration":112675,"SoundDuration":112675,"Delta":28118009},{"NoteNumber":42,"Velocity":38,"Duration":112675,"SoundDuration":112675,"Delta":28118009},{"NoteNumber":56,"Velocity":46,"Duration":91328,"SoundDuration":91328,"Delta":28207852},{"NoteNumber":44,"Velocity":39,"Duration":91328,"SoundDuration":91328,"Delta":28207852},{"NoteNumber":58,"Velocity":48,"Duration":113728,"SoundDuration":113728,"Delta":28299181},{"NoteNumber":46,"Velocity":40,"Duration":113728,"SoundDuration":113728,"Delta":28299181},{"NoteNumber":60,"Velocity":51,"Duration":112309,"SoundDuration":112309,"Delta":28390509},{"NoteNumber":48,"Velocity":43,"Duration":112309,"SoundDuration":112309,"Delta":28390509},{"NoteNumber":61,"Velocity":48,"Duration":113538,"SoundDuration":113538,"Delta":28480111},{"NoteNumber":49,"Velocity":40,"Duration":113538,"SoundDuration":113538,"Delta":28480111},{"NoteNumber":63,"Velocity":53,"Duration":113049,"SoundDuration":113049,"Delta":28570941},{"NoteNumber":51,"Velocity":45,"Duration":113049,"SoundDuration":113049,"Delta":28570941},{"NoteNumber":65,"Velocity":50,"Duration":111646,"SoundDuration":111646,"Delta":28661772},{"NoteNumber":53,"Velocity":42,"Duration":111646,"SoundDuration":111646,"Delta":28661772},{"NoteNumber":66,"Velocity":56,"Duration":91078,"SoundDuration":91078,"Delta":28750649},{"NoteNumber":54,"Velocity":47,"Duration":91078,"SoundDuration":91078,"Delta":28750649},{"NoteNumber":68,"Velocity":59,"Duration":108483,"SoundDuration":108483,"Delta":28841728},{"NoteNumber":56,"Velocity":50,"Duration":108483,"SoundDuration":108483,"Delta":28841728},{"NoteNumber":77,"Velocity":60,"Duration":110164,"SoundDuration":110164,"Delta":28928285},{"NoteNumber":65,"Velocity":51,"Duration":110164,"SoundDuration":110164,"Delta":28928285},{"NoteNumber":75,"Velocity":57,"Duration":112243,"SoundDuration":112243,"Delta":29015989},{"NoteNumber":63,"Velocity":48,"Duration":112243,"SoundDuration":112243,"Delta":29015989},{"NoteNumber":73,"Velocity":56,"Duration":111527,"SoundDuration":111527,"Delta":29105833},{"NoteNumber":61,"Velocity":47,"Duration":111527,"SoundDuration":111527,"Delta":29105833},{"NoteNumber":72,"Velocity":54,"Duration":110104,"SoundDuration":110104,"Delta":29195434},{"NoteNumber":60,"Velocity":45,"Duration":110104,"SoundDuration":110104,"Delta":29195434},{"NoteNumber":70,"Velocity":54,"Duration":89601,"SoundDuration":89601,"Delta":29283138},{"NoteNumber":58,"Velocity":45,"Duration":89601,"SoundDuration":89601,"Delta":29283138},{"NoteNumber":68,"Velocity":56,"Duration":111643,"SoundDuration":111643,"Delta":29372740},{"NoteNumber":56,"Velocity":47,"Duration":111643,"SoundDuration":111643,"Delta":29372740},{"NoteNumber":65,"Velocity":51,"Duration":110875,"SoundDuration":110875,"Delta":29462342},{"NoteNumber":53,"Velocity":43,"Duration":110875,"SoundDuration":110875,"Delta":29462342},{"NoteNumber":66,"Velocity":51,"Duration":113538,"SoundDuration":113538,"Delta":29550510},{"NoteNumber":54,"Velocity":43,"Duration":113538,"SoundDuration":113538,"Delta":29550510},{"NoteNumber":68,"Velocity":52,"Duration":113231,"SoundDuration":113231,"Delta":29641340},{"NoteNumber":56,"Velocity":44,"Duration":113231,"SoundDuration":113231,"Delta":29641340},{"NoteNumber":65,"Velocity":51,"Duration":112497,"SoundDuration":112497,"Delta":29732171},{"NoteNumber":53,"Velocity":43,"Duration":112497,"SoundDuration":112497,"Delta":29732171},{"NoteNumber":70,"Velocity":51,"Duration":91583,"SoundDuration":91583,"Delta":29821773},{"NoteNumber":58,"Velocity":43,"Duration":91583,"SoundDuration":91583,"Delta":29821773},{"NoteNumber":68,"Velocity":56,"Duration":114105,"SoundDuration":114105,"Delta":29913356},{"NoteNumber":56,"Velocity":47,"Duration":114105,"SoundDuration":114105,"Delta":29913356},{"NoteNumber":63,"Velocity":48,"Duration":113176,"SoundDuration":113176,"Delta":30004939},{"NoteNumber":51,"Velocity":40,"Duration":113176,"SoundDuration":113176,"Delta":30004939},{"NoteNumber":65,"Velocity":48,"Duration":115430,"SoundDuration":115430,"Delta":30095029},{"NoteNumber":53,"Velocity":40,"Duration":115430,"SoundDuration":115430,"Delta":30095029},{"NoteNumber":66,"Velocity":53,"Duration":115052,"SoundDuration":115052,"Delta":30187374},{"NoteNumber":54,"Velocity":45,"Duration":115052,"SoundDuration":115052,"Delta":30187374},{"NoteNumber":63,"Velocity":51,"Duration":114243,"SoundDuration":114243,"Delta":30279719},{"NoteNumber":51,"Velocity":43,"Duration":114243,"SoundDuration":114243,"Delta":30279719},{"NoteNumber":70,"Velocity":51,"Duration":93650,"SoundDuration":93650,"Delta":30370549},{"NoteNumber":58,"Velocity":43,"Duration":93650,"SoundDuration":93650,"Delta":30370549},{"NoteNumber":68,"Velocity":52,"Duration":116801,"SoundDuration":116801,"Delta":30464200},{"NoteNumber":56,"Velocity":44,"Duration":116801,"SoundDuration":116801,"Delta":30464200},{"NoteNumber":61,"Velocity":46,"Duration":116218,"SoundDuration":116218,"Delta":30557850},{"NoteNumber":49,"Velocity":39,"Duration":116218,"SoundDuration":116218,"Delta":30557850},{"NoteNumber":63,"Velocity":46,"Duration":118063,"SoundDuration":118063,"Delta":30650455},{"NoteNumber":51,"Velocity":39,"Duration":118063,"SoundDuration":118063,"Delta":30650455},{"NoteNumber":65,"Velocity":51,"Duration":117346,"SoundDuration":117346,"Delta":30744906},{"NoteNumber":53,"Velocity":43,"Duration":117346,"SoundDuration":117346,"Delta":30744906},{"NoteNumber":61,"Velocity":49,"Duration":115399,"SoundDuration":115399,"Delta":30839357},{"NoteNumber":49,"Velocity":41,"Duration":115399,"SoundDuration":115399,"Delta":30839357},{"NoteNumber":70,"Velocity":56,"Duration":95265,"SoundDuration":95265,"Delta":30930941},{"NoteNumber":58,"Velocity":47,"Duration":95265,"SoundDuration":95265,"Delta":30930941},{"NoteNumber":68,"Velocity":52,"Duration":118612,"SoundDuration":118612,"Delta":31026206},{"NoteNumber":56,"Velocity":44,"Duration":118612,"SoundDuration":118612,"Delta":31026206},{"NoteNumber":60,"Velocity":48,"Duration":117480,"SoundDuration":117480,"Delta":31121471},{"NoteNumber":48,"Velocity":40,"Duration":117480,"SoundDuration":117480,"Delta":31121471},{"NoteNumber":61,"Velocity":40,"Duration":120534,"SoundDuration":120534,"Delta":31214859},{"NoteNumber":49,"Velocity":34,"Duration":120534,"SoundDuration":120534,"Delta":31214859},{"NoteNumber":63,"Velocity":48,"Duration":120196,"SoundDuration":120196,"Delta":31311231},{"NoteNumber":51,"Velocity":40,"Duration":120196,"SoundDuration":120196,"Delta":31311231},{"NoteNumber":60,"Velocity":47,"Duration":118346,"SoundDuration":118346,"Delta":31407882},{"NoteNumber":48,"Velocity":39,"Duration":118346,"SoundDuration":118346,"Delta":31407882},{"NoteNumber":65,"Velocity":43,"Duration":96651,"SoundDuration":96651,"Delta":31502066},{"NoteNumber":53,"Velocity":36,"Duration":96651,"SoundDuration":96651,"Delta":31502066},{"NoteNumber":63,"Velocity":51,"Duration":120330,"SoundDuration":120330,"Delta":31598717},{"NoteNumber":51,"Velocity":43,"Duration":120330,"SoundDuration":120330,"Delta":31598717},{"NoteNumber":58,"Velocity":46,"Duration":119095,"SoundDuration":119095,"Delta":31695368},{"NoteNumber":46,"Velocity":39,"Duration":119095,"SoundDuration":119095,"Delta":31695368},{"NoteNumber":65,"Velocity":47,"Duration":121880,"SoundDuration":121880,"Delta":31790087},{"NoteNumber":53,"Velocity":39,"Duration":121880,"SoundDuration":121880,"Delta":31790087},{"NoteNumber":63,"Velocity":49,"Duration":121388,"SoundDuration":121388,"Delta":31887591},{"NoteNumber":51,"Velocity":41,"Duration":121388,"SoundDuration":121388,"Delta":31887591},{"NoteNumber":56,"Velocity":48,"Duration":120278,"SoundDuration":120278,"Delta":31985095},{"NoteNumber":44,"Velocity":40,"Duration":120278,"SoundDuration":120278,"Delta":31985095},{"NoteNumber":65,"Velocity":49,"Duration":98960,"SoundDuration":98960,"Delta":32080634},{"NoteNumber":53,"Velocity":41,"Duration":98960,"SoundDuration":98960,"Delta":32080634},{"NoteNumber":66,"Velocity":53,"Duration":125223,"SoundDuration":125223,"Delta":32179595},{"NoteNumber":54,"Velocity":45,"Duration":125223,"SoundDuration":125223,"Delta":32179595},{"NoteNumber":65,"Velocity":49,"Duration":117782,"SoundDuration":117782,"Delta":32281185},{"NoteNumber":53,"Velocity":41,"Duration":117782,"SoundDuration":117782,"Delta":32281185},{"NoteNumber":63,"Velocity":51,"Duration":116619,"SoundDuration":116619,"Delta":32375528},{"NoteNumber":51,"Velocity":43,"Duration":116619,"SoundDuration":116619,"Delta":32375528},{"NoteNumber":61,"Velocity":49,"Duration":115605,"SoundDuration":115605,"Delta":32468901},{"NoteNumber":49,"Velocity":41,"Duration":115605,"SoundDuration":115605,"Delta":32468901},{"NoteNumber":60,"Velocity":48,"Duration":114608,"SoundDuration":114608,"Delta":32561510},{"NoteNumber":48,"Velocity":40,"Duration":114608,"SoundDuration":114608,"Delta":32561510},{"NoteNumber":58,"Velocity":44,"Duration":91983,"SoundDuration":91983,"Delta":32653123},{"NoteNumber":46,"Velocity":37,"Duration":91983,"SoundDuration":91983,"Delta":32653123},{"NoteNumber":57,"Velocity":54,"Duration":185240,"SoundDuration":185240,"Delta":32745106},{"NoteNumber":45,"Velocity":45,"Duration":185240,"SoundDuration":185240,"Delta":32745106},{"NoteNumber":65,"Velocity":47,"Duration":115244,"SoundDuration":115244,"Delta":32838608},{"NoteNumber":53,"Velocity":39,"Duration":115244,"SoundDuration":115244,"Delta":32838608},{"NoteNumber":60,"Velocity":46,"Duration":117525,"SoundDuration":117525,"Delta":32930347},{"NoteNumber":48,"Velocity":39,"Duration":117525,"SoundDuration":117525,"Delta":32930347},{"NoteNumber":63,"Velocity":49,"Duration":117078,"SoundDuration":117078,"Delta":33024367},{"NoteNumber":51,"Velocity":41,"Duration":117078,"SoundDuration":117078,"Delta":33024367},{"NoteNumber":61,"Velocity":47,"Duration":115867,"SoundDuration":115867,"Delta":33118388},{"NoteNumber":49,"Velocity":39,"Duration":115867,"SoundDuration":115867,"Delta":33118388},{"NoteNumber":58,"Velocity":47,"Duration":94535,"SoundDuration":94535,"Delta":33210622},{"NoteNumber":46,"Velocity":39,"Duration":94535,"SoundDuration":94535,"Delta":33210622},{"NoteNumber":57,"Velocity":54,"Duration":185495,"SoundDuration":185495,"Delta":33305157},{"NoteNumber":45,"Velocity":45,"Duration":185495,"SoundDuration":185495,"Delta":33305157},{"NoteNumber":65,"Velocity":47,"Duration":115439,"SoundDuration":115439,"Delta":33398913},{"NoteNumber":53,"Velocity":39,"Duration":115439,"SoundDuration":115439,"Delta":33398913},{"NoteNumber":60,"Velocity":46,"Duration":118566,"SoundDuration":118566,"Delta":33490652},{"NoteNumber":48,"Velocity":39,"Duration":118566,"SoundDuration":118566,"Delta":33490652},{"NoteNumber":63,"Velocity":47,"Duration":118187,"SoundDuration":118187,"Delta":33585453},{"NoteNumber":51,"Velocity":39,"Duration":118187,"SoundDuration":118187,"Delta":33585453},{"NoteNumber":61,"Velocity":45,"Duration":116185,"SoundDuration":116185,"Delta":33680519},{"NoteNumber":49,"Velocity":36,"Duration":116185,"SoundDuration":116185,"Delta":33680519},{"NoteNumber":58,"Velocity":45,"Duration":94800,"SoundDuration":94800,"Delta":33773004},{"NoteNumber":46,"Velocity":37,"Duration":94800,"SoundDuration":94800,"Delta":33773004},{"NoteNumber":57,"Velocity":54,"Duration":187789,"SoundDuration":187789,"Delta":33867805},{"NoteNumber":45,"Velocity":45,"Duration":187789,"SoundDuration":187789,"Delta":33867805},{"NoteNumber":65,"Velocity":47,"Duration":116889,"SoundDuration":116889,"Delta":33962605},{"NoteNumber":53,"Velocity":39,"Duration":116889,"SoundDuration":116889,"Delta":33962605},{"NoteNumber":60,"Velocity":46,"Duration":119502,"SoundDuration":119502,"Delta":34055594},{"NoteNumber":48,"Velocity":39,"Duration":119502,"SoundDuration":119502,"Delta":34055594},{"NoteNumber":63,"Velocity":49,"Duration":118977,"SoundDuration":118977,"Delta":34151196},{"NoteNumber":51,"Velocity":41,"Duration":118977,"SoundDuration":118977,"Delta":34151196},{"NoteNumber":61,"Velocity":47,"Duration":117673,"SoundDuration":117673,"Delta":34246798},{"NoteNumber":49,"Velocity":39,"Duration":117673,"SoundDuration":117673,"Delta":34246798},{"NoteNumber":58,"Velocity":45,"Duration":96688,"SoundDuration":96688,"Delta":34340300},{"NoteNumber":46,"Velocity":38,"Duration":96688,"SoundDuration":96688,"Delta":34340300},{"NoteNumber":68,"Velocity":53,"Duration":118312,"SoundDuration":118312,"Delta":34436988},{"NoteNumber":56,"Velocity":45,"Duration":118312,"SoundDuration":118312,"Delta":34436988},{"NoteNumber":67,"Velocity":47,"Duration":116070,"SoundDuration":116070,"Delta":34532009},{"NoteNumber":55,"Velocity":39,"Duration":116070,"SoundDuration":116070,"Delta":34532009},{"NoteNumber":65,"Velocity":45,"Duration":115047,"SoundDuration":115047,"Delta":34624982},{"NoteNumber":53,"Velocity":37,"Duration":115047,"SoundDuration":115047,"Delta":34624982},{"NoteNumber":63,"Velocity":49,"Duration":114043,"SoundDuration":114043,"Delta":34717121},{"NoteNumber":51,"Velocity":41,"Duration":114043,"SoundDuration":114043,"Delta":34717121},{"NoteNumber":62,"Velocity":45,"Duration":113115,"SoundDuration":113115,"Delta":34808444},{"NoteNumber":50,"Velocity":38,"Duration":113115,"SoundDuration":113115,"Delta":34808444},{"NoteNumber":60,"Velocity":47,"Duration":90395,"SoundDuration":90395,"Delta":34898961},{"NoteNumber":48,"Velocity":39,"Duration":90395,"SoundDuration":90395,"Delta":34898961},{"NoteNumber":59,"Velocity":49,"Duration":181294,"SoundDuration":181294,"Delta":34989356},{"NoteNumber":47,"Velocity":42,"Duration":181294,"SoundDuration":181294,"Delta":34989356},{"NoteNumber":67,"Velocity":47,"Duration":112757,"SoundDuration":112757,"Delta":35080739},{"NoteNumber":55,"Velocity":39,"Duration":112757,"SoundDuration":112757,"Delta":35080739},{"NoteNumber":62,"Velocity":43,"Duration":114228,"SoundDuration":114228,"Delta":35170651},{"NoteNumber":50,"Velocity":36,"Duration":114228,"SoundDuration":114228,"Delta":35170651},{"NoteNumber":65,"Velocity":47,"Duration":113981,"SoundDuration":113981,"Delta":35262033},{"NoteNumber":53,"Velocity":39,"Duration":113981,"SoundDuration":113981,"Delta":35262033},{"NoteNumber":63,"Velocity":47,"Duration":113493,"SoundDuration":113493,"Delta":35353416},{"NoteNumber":51,"Velocity":39,"Duration":113493,"SoundDuration":113493,"Delta":35353416},{"NoteNumber":60,"Velocity":47,"Duration":92391,"SoundDuration":92391,"Delta":35443811},{"NoteNumber":48,"Velocity":39,"Duration":92391,"SoundDuration":92391,"Delta":35443811},{"NoteNumber":59,"Velocity":49,"Duration":183528,"SoundDuration":183528,"Delta":35536203},{"NoteNumber":47,"Velocity":43,"Duration":183528,"SoundDuration":183528,"Delta":35536203},{"NoteNumber":67,"Velocity":47,"Duration":114428,"SoundDuration":114428,"Delta":35628595},{"NoteNumber":55,"Velocity":39,"Duration":114428,"SoundDuration":114428,"Delta":35628595},{"NoteNumber":62,"Velocity":44,"Duration":116523,"SoundDuration":116523,"Delta":35719732},{"NoteNumber":50,"Velocity":37,"Duration":116523,"SoundDuration":116523,"Delta":35719732},{"NoteNumber":65,"Velocity":51,"Duration":116462,"SoundDuration":116462,"Delta":35812898},{"NoteNumber":53,"Velocity":43,"Duration":116462,"SoundDuration":116462,"Delta":35812898},{"NoteNumber":63,"Velocity":47,"Duration":115827,"SoundDuration":115827,"Delta":35906325},{"NoteNumber":51,"Velocity":39,"Duration":115827,"SoundDuration":115827,"Delta":35906325},{"NoteNumber":60,"Velocity":47,"Duration":94750,"SoundDuration":94750,"Delta":35998466},{"NoteNumber":48,"Velocity":39,"Duration":94750,"SoundDuration":94750,"Delta":35998466},{"NoteNumber":59,"Velocity":54,"Duration":187142,"SoundDuration":187142,"Delta":36093216},{"NoteNumber":47,"Velocity":45,"Duration":187142,"SoundDuration":187142,"Delta":36093216},{"NoteNumber":67,"Velocity":47,"Duration":116419,"SoundDuration":116419,"Delta":36187967},{"NoteNumber":55,"Velocity":39,"Duration":116419,"SoundDuration":116419,"Delta":36187967},{"NoteNumber":62,"Velocity":43,"Duration":119600,"SoundDuration":119600,"Delta":36280359},{"NoteNumber":50,"Velocity":36,"Duration":119600,"SoundDuration":119600,"Delta":36280359},{"NoteNumber":65,"Velocity":51,"Duration":117633,"SoundDuration":117633,"Delta":36376471},{"NoteNumber":53,"Velocity":43,"Duration":117633,"SoundDuration":117633,"Delta":36376471},{"NoteNumber":63,"Velocity":47,"Duration":120378,"SoundDuration":120378,"Delta":36470425},{"NoteNumber":51,"Velocity":39,"Duration":120378,"SoundDuration":120378,"Delta":36470425},{"NoteNumber":60,"Velocity":47,"Duration":102637,"SoundDuration":102637,"Delta":36565144},{"NoteNumber":48,"Velocity":39,"Duration":102637,"SoundDuration":102637,"Delta":36565144},{"NoteNumber":73,"Velocity":67,"Duration":113357,"SoundDuration":113357,"Delta":36667782},{"NoteNumber":61,"Velocity":56,"Duration":113357,"SoundDuration":113357,"Delta":36667782},{"NoteNumber":72,"Velocity":58,"Duration":112073,"SoundDuration":112073,"Delta":36758861},{"NoteNumber":60,"Velocity":49,"Duration":112073,"SoundDuration":112073,"Delta":36758861},{"NoteNumber":70,"Velocity":56,"Duration":114605,"SoundDuration":114605,"Delta":36847975},{"NoteNumber":58,"Velocity":47,"Duration":114605,"SoundDuration":114605,"Delta":36847975},{"NoteNumber":68,"Velocity":56,"Duration":113419,"SoundDuration":113419,"Delta":36939811},{"NoteNumber":56,"Velocity":47,"Duration":113419,"SoundDuration":113419,"Delta":36939811},{"NoteNumber":67,"Velocity":55,"Duration":112131,"SoundDuration":112131,"Delta":37030890},{"NoteNumber":55,"Velocity":46,"Duration":112131,"SoundDuration":112131,"Delta":37030890},{"NoteNumber":65,"Velocity":55,"Duration":91078,"SoundDuration":91078,"Delta":37120251},{"NoteNumber":53,"Velocity":46,"Duration":91078,"SoundDuration":91078,"Delta":37120251},{"NoteNumber":70,"Velocity":61,"Duration":116172,"SoundDuration":116172,"Delta":37211330},{"NoteNumber":58,"Velocity":51,"Duration":116172,"SoundDuration":116172,"Delta":37211330},{"NoteNumber":64,"Velocity":55,"Duration":112922,"SoundDuration":112922,"Delta":37304980},{"NoteNumber":52,"Velocity":46,"Duration":112922,"SoundDuration":112922,"Delta":37304980},{"NoteNumber":67,"Velocity":54,"Duration":114160,"SoundDuration":114160,"Delta":37395070},{"NoteNumber":55,"Velocity":45,"Duration":114160,"SoundDuration":114160,"Delta":37395070},{"NoteNumber":61,"Velocity":56,"Duration":114740,"SoundDuration":114740,"Delta":37486399},{"NoteNumber":49,"Velocity":47,"Duration":114740,"SoundDuration":114740,"Delta":37486399},{"NoteNumber":64,"Velocity":55,"Duration":120472,"SoundDuration":120472,"Delta":37577727},{"NoteNumber":52,"Velocity":46,"Duration":120472,"SoundDuration":120472,"Delta":37577727},{"NoteNumber":60,"Velocity":52,"Duration":107290,"SoundDuration":107290,"Delta":37671377},{"NoteNumber":48,"Velocity":44,"Duration":107290,"SoundDuration":107290,"Delta":37671377},{"NoteNumber":73,"Velocity":67,"Duration":113357,"SoundDuration":113357,"Delta":37778668},{"NoteNumber":61,"Velocity":56,"Duration":113357,"SoundDuration":113357,"Delta":37778668},{"NoteNumber":72,"Velocity":56,"Duration":112073,"SoundDuration":112073,"Delta":37869746},{"NoteNumber":60,"Velocity":47,"Duration":112073,"SoundDuration":112073,"Delta":37869746},{"NoteNumber":70,"Velocity":59,"Duration":114605,"SoundDuration":114605,"Delta":37958861},{"NoteNumber":58,"Velocity":50,"Duration":114605,"SoundDuration":114605,"Delta":37958861},{"NoteNumber":68,"Velocity":58,"Duration":113419,"SoundDuration":113419,"Delta":38050697},{"NoteNumber":56,"Velocity":49,"Duration":113419,"SoundDuration":113419,"Delta":38050697},{"NoteNumber":67,"Velocity":56,"Duration":112642,"SoundDuration":112642,"Delta":38141775},{"NoteNumber":55,"Velocity":47,"Duration":112642,"SoundDuration":112642,"Delta":38141775},{"NoteNumber":65,"Velocity":56,"Duration":93123,"SoundDuration":93123,"Delta":38231137},{"NoteNumber":53,"Velocity":47,"Duration":93123,"SoundDuration":93123,"Delta":38231137},{"NoteNumber":70,"Velocity":62,"Duration":117409,"SoundDuration":117409,"Delta":38324260},{"NoteNumber":58,"Velocity":52,"Duration":117409,"SoundDuration":117409,"Delta":38324260},{"NoteNumber":64,"Velocity":55,"Duration":114731,"SoundDuration":114731,"Delta":38418711},{"NoteNumber":52,"Velocity":46,"Duration":114731,"SoundDuration":114731,"Delta":38418711},{"NoteNumber":67,"Velocity":56,"Duration":91583,"SoundDuration":91583,"Delta":38510547},{"NoteNumber":55,"Velocity":47,"Duration":91583,"SoundDuration":91583,"Delta":38510547},{"NoteNumber":61,"Velocity":54,"Duration":114995,"SoundDuration":114995,"Delta":38602130},{"NoteNumber":49,"Velocity":46,"Duration":114995,"SoundDuration":114995,"Delta":38602130},{"NoteNumber":64,"Velocity":55,"Duration":120472,"SoundDuration":120472,"Delta":38693713},{"NoteNumber":52,"Velocity":46,"Duration":120472,"SoundDuration":120472,"Delta":38693713},{"NoteNumber":60,"Velocity":57,"Duration":107290,"SoundDuration":107290,"Delta":38787364},{"NoteNumber":48,"Velocity":45,"Duration":107290,"SoundDuration":107290,"Delta":38787364},{"NoteNumber":70,"Velocity":59,"Duration":120506,"SoundDuration":120506,"Delta":38894654},{"NoteNumber":58,"Velocity":49,"Duration":120506,"SoundDuration":120506,"Delta":38894654},{"NoteNumber":64,"Velocity":53,"Duration":114066,"SoundDuration":114066,"Delta":38992458},{"NoteNumber":52,"Velocity":45,"Duration":114066,"SoundDuration":114066,"Delta":38992458},{"NoteNumber":67,"Velocity":53,"Duration":116220,"SoundDuration":116220,"Delta":39083268},{"NoteNumber":55,"Velocity":45,"Duration":116220,"SoundDuration":116220,"Delta":39083268},{"NoteNumber":61,"Velocity":51,"Duration":115475,"SoundDuration":115475,"Delta":39176296},{"NoteNumber":49,"Velocity":43,"Duration":115475,"SoundDuration":115475,"Delta":39176296},{"NoteNumber":64,"Velocity":48,"Duration":114489,"SoundDuration":114489,"Delta":39269069},{"NoteNumber":52,"Velocity":40,"Duration":114489,"SoundDuration":114489,"Delta":39269069},{"NoteNumber":60,"Velocity":48,"Duration":94719,"SoundDuration":94719,"Delta":39359879},{"NoteNumber":48,"Velocity":40,"Duration":94719,"SoundDuration":94719,"Delta":39359879},{"NoteNumber":67,"Velocity":57,"Duration":117544,"SoundDuration":117544,"Delta":39454598},{"NoteNumber":55,"Velocity":48,"Duration":117544,"SoundDuration":117544,"Delta":39454598},{"NoteNumber":61,"Velocity":51,"Duration":114711,"SoundDuration":114711,"Delta":39549318},{"NoteNumber":49,"Velocity":43,"Duration":114711,"SoundDuration":114711,"Delta":39549318},{"NoteNumber":64,"Velocity":49,"Duration":117062,"SoundDuration":117062,"Delta":39640617},{"NoteNumber":52,"Velocity":42,"Duration":117062,"SoundDuration":117062,"Delta":39640617},{"NoteNumber":60,"Velocity":50,"Duration":116609,"SoundDuration":116609,"Delta":39734267},{"NoteNumber":48,"Velocity":41,"Duration":116609,"SoundDuration":116609,"Delta":39734267},{"NoteNumber":64,"Velocity":48,"Duration":115381,"SoundDuration":115381,"Delta":39827918},{"NoteNumber":52,"Velocity":40,"Duration":115381,"SoundDuration":115381,"Delta":39827918},{"NoteNumber":58,"Velocity":48,"Duration":94183,"SoundDuration":94183,"Delta":39919753},{"NoteNumber":46,"Velocity":40,"Duration":94183,"SoundDuration":94183,"Delta":39919753},{"NoteNumber":64,"Velocity":59,"Duration":117270,"SoundDuration":117270,"Delta":40013937},{"NoteNumber":52,"Velocity":50,"Duration":117270,"SoundDuration":117270,"Delta":40013937},{"NoteNumber":58,"Velocity":50,"Duration":115957,"SoundDuration":115957,"Delta":40108121},{"NoteNumber":46,"Velocity":42,"Duration":115957,"SoundDuration":115957,"Delta":40108121},{"NoteNumber":61,"Velocity":48,"Duration":117863,"SoundDuration":117863,"Delta":40200466},{"NoteNumber":49,"Velocity":41,"Duration":117863,"SoundDuration":117863,"Delta":40200466},{"NoteNumber":57,"Velocity":51,"Duration":116736,"SoundDuration":116736,"Delta":40294917},{"NoteNumber":45,"Velocity":44,"Duration":116736,"SoundDuration":116736,"Delta":40294917},{"NoteNumber":58,"Velocity":49,"Duration":115957,"SoundDuration":115957,"Delta":40388567},{"NoteNumber":46,"Velocity":41,"Duration":115957,"SoundDuration":115957,"Delta":40388567},{"NoteNumber":56,"Velocity":50,"Duration":94450,"SoundDuration":94450,"Delta":40480912},{"NoteNumber":44,"Velocity":42,"Duration":94450,"SoundDuration":94450,"Delta":40480912},{"NoteNumber":61,"Velocity":51,"Duration":117602,"SoundDuration":117602,"Delta":40575363},{"NoteNumber":49,"Velocity":43,"Duration":117602,"SoundDuration":117602,"Delta":40575363},{"NoteNumber":56,"Velocity":48,"Duration":116218,"SoundDuration":116218,"Delta":40669814},{"NoteNumber":44,"Velocity":40,"Duration":116218,"SoundDuration":116218,"Delta":40669814},{"NoteNumber":58,"Velocity":48,"Duration":118063,"SoundDuration":118063,"Delta":40762419},{"NoteNumber":46,"Velocity":40,"Duration":118063,"SoundDuration":118063,"Delta":40762419},{"NoteNumber":55,"Velocity":50,"Duration":117666,"SoundDuration":117666,"Delta":40856870},{"NoteNumber":43,"Velocity":42,"Duration":117666,"SoundDuration":117666,"Delta":40856870},{"NoteNumber":58,"Velocity":48,"Duration":116679,"SoundDuration":116679,"Delta":40951321},{"NoteNumber":46,"Velocity":40,"Duration":116679,"SoundDuration":116679,"Delta":40951321},{"NoteNumber":54,"Velocity":41,"Duration":95265,"SoundDuration":95265,"Delta":41044185},{"NoteNumber":42,"Velocity":34,"Duration":95265,"SoundDuration":95265,"Delta":41044185},{"NoteNumber":53,"Velocity":51,"Duration":117180,"SoundDuration":117180,"Delta":41139450},{"NoteNumber":41,"Velocity":43,"Duration":117180,"SoundDuration":117180,"Delta":41139450},{"NoteNumber":55,"Velocity":46,"Duration":112865,"SoundDuration":112865,"Delta":41234169},{"NoteNumber":43,"Velocity":39,"Duration":112865,"SoundDuration":112865,"Delta":41234169},{"NoteNumber":58,"Velocity":45,"Duration":115112,"SoundDuration":115112,"Delta":41324013},{"NoteNumber":46,"Velocity":38,"Duration":115112,"SoundDuration":115112,"Delta":41324013},{"NoteNumber":61,"Velocity":45,"Duration":114612,"SoundDuration":114612,"Delta":41416102},{"NoteNumber":49,"Velocity":39,"Duration":114612,"SoundDuration":114612,"Delta":41416102},{"NoteNumber":52,"Velocity":45,"Duration":113048,"SoundDuration":113048,"Delta":41508192},{"NoteNumber":40,"Velocity":38,"Duration":113048,"SoundDuration":113048,"Delta":41508192},{"NoteNumber":55,"Velocity":46,"Duration":91835,"SoundDuration":91835,"Delta":41598282},{"NoteNumber":43,"Velocity":39,"Duration":91835,"SoundDuration":91835,"Delta":41598282},{"NoteNumber":53,"Velocity":51,"Duration":114236,"SoundDuration":114236,"Delta":41690118},{"NoteNumber":41,"Velocity":43,"Duration":114236,"SoundDuration":114236,"Delta":41690118},{"NoteNumber":55,"Velocity":46,"Duration":112560,"SoundDuration":112560,"Delta":41781953},{"NoteNumber":43,"Velocity":39,"Duration":112560,"SoundDuration":112560,"Delta":41781953},{"NoteNumber":58,"Velocity":45,"Duration":114794,"SoundDuration":114794,"Delta":41871555},{"NoteNumber":46,"Velocity":38,"Duration":114794,"SoundDuration":114794,"Delta":41871555},{"NoteNumber":61,"Velocity":45,"Duration":114236,"SoundDuration":114236,"Delta":41963391},{"NoteNumber":49,"Velocity":39,"Duration":114236,"SoundDuration":114236,"Delta":41963391},{"NoteNumber":52,"Velocity":45,"Duration":112560,"SoundDuration":112560,"Delta":42055226},{"NoteNumber":40,"Velocity":38,"Duration":112560,"SoundDuration":112560,"Delta":42055226},{"NoteNumber":55,"Velocity":46,"Duration":82652,"SoundDuration":82652,"Delta":42144828},{"NoteNumber":43,"Velocity":39,"Duration":82652,"SoundDuration":82652,"Delta":42144828},{"NoteNumber":55,"Velocity":53,"Duration":114176,"SoundDuration":114176,"Delta":42236664},{"NoteNumber":43,"Velocity":45,"Duration":114176,"SoundDuration":114176,"Delta":42236664},{"NoteNumber":57,"Velocity":45,"Duration":112193,"SoundDuration":112193,"Delta":42328499},{"NoteNumber":45,"Velocity":38,"Duration":112193,"SoundDuration":112193,"Delta":42328499},{"NoteNumber":60,"Velocity":46,"Duration":114160,"SoundDuration":114160,"Delta":42417861},{"NoteNumber":48,"Velocity":39,"Duration":114160,"SoundDuration":114160,"Delta":42417861},{"NoteNumber":63,"Velocity":47,"Duration":113883,"SoundDuration":113883,"Delta":42509189},{"NoteNumber":51,"Velocity":39,"Duration":113883,"SoundDuration":113883,"Delta":42509189},{"NoteNumber":54,"Velocity":45,"Duration":111670,"SoundDuration":111670,"Delta":42600518},{"NoteNumber":42,"Velocity":38,"Duration":111670,"SoundDuration":111670,"Delta":42600518},{"NoteNumber":57,"Velocity":48,"Duration":90587,"SoundDuration":90587,"Delta":42689909},{"NoteNumber":45,"Velocity":40,"Duration":90587,"SoundDuration":90587,"Delta":42689909},{"NoteNumber":55,"Velocity":53,"Duration":113297,"SoundDuration":113297,"Delta":42780497},{"NoteNumber":43,"Velocity":45,"Duration":113297,"SoundDuration":113297,"Delta":42780497},{"NoteNumber":57,"Velocity":47,"Duration":111584,"SoundDuration":111584,"Delta":42871575},{"NoteNumber":45,"Velocity":39,"Duration":111584,"SoundDuration":111584,"Delta":42871575},{"NoteNumber":60,"Velocity":46,"Duration":113538,"SoundDuration":113538,"Delta":42960452},{"NoteNumber":48,"Velocity":39,"Duration":113538,"SoundDuration":113538,"Delta":42960452},{"NoteNumber":63,"Velocity":49,"Duration":112990,"SoundDuration":112990,"Delta":43051283},{"NoteNumber":51,"Velocity":41,"Duration":112990,"SoundDuration":112990,"Delta":43051283},{"NoteNumber":54,"Velocity":48,"Duration":111285,"SoundDuration":111285,"Delta":43142114},{"NoteNumber":42,"Velocity":42,"Duration":111285,"SoundDuration":111285,"Delta":43142114},{"NoteNumber":57,"Velocity":46,"Duration":90579,"SoundDuration":90579,"Delta":43230754},{"NoteNumber":45,"Velocity":39,"Duration":90579,"SoundDuration":90579,"Delta":43230754},{"NoteNumber":58,"Velocity":55,"Duration":112505,"SoundDuration":112505,"Delta":43321334},{"NoteNumber":46,"Velocity":46,"Duration":112505,"SoundDuration":112505,"Delta":43321334},{"NoteNumber":60,"Velocity":47,"Duration":110164,"SoundDuration":110164,"Delta":43411914},{"NoteNumber":48,"Velocity":39,"Duration":110164,"SoundDuration":110164,"Delta":43411914},{"NoteNumber":63,"Velocity":48,"Duration":112243,"SoundDuration":112243,"Delta":43499618},{"NoteNumber":51,"Velocity":40,"Duration":112243,"SoundDuration":112243,"Delta":43499618},{"NoteNumber":66,"Velocity":49,"Duration":111527,"SoundDuration":111527,"Delta":43589461},{"NoteNumber":54,"Velocity":41,"Duration":111527,"SoundDuration":111527,"Delta":43589461},{"NoteNumber":57,"Velocity":48,"Duration":110104,"SoundDuration":110104,"Delta":43679063},{"NoteNumber":45,"Velocity":40,"Duration":110104,"SoundDuration":110104,"Delta":43679063},{"NoteNumber":60,"Velocity":45,"Duration":89601,"SoundDuration":89601,"Delta":43766767},{"NoteNumber":48,"Velocity":38,"Duration":89601,"SoundDuration":89601,"Delta":43766767},{"NoteNumber":61,"Velocity":50,"Duration":111643,"SoundDuration":111643,"Delta":43856368},{"NoteNumber":49,"Velocity":42,"Duration":111643,"SoundDuration":111643,"Delta":43856368},{"NoteNumber":63,"Velocity":49,"Duration":110508,"SoundDuration":110508,"Delta":43945970},{"NoteNumber":51,"Velocity":41,"Duration":110508,"SoundDuration":110508,"Delta":43945970},{"NoteNumber":66,"Velocity":48,"Duration":111702,"SoundDuration":111702,"Delta":44034138},{"NoteNumber":54,"Velocity":40,"Duration":111702,"SoundDuration":111702,"Delta":44034138},{"NoteNumber":69,"Velocity":49,"Duration":111171,"SoundDuration":111171,"Delta":44123500},{"NoteNumber":57,"Velocity":42,"Duration":111171,"SoundDuration":111171,"Delta":44123500},{"NoteNumber":60,"Velocity":49,"Duration":109641,"SoundDuration":109641,"Delta":44212861},{"NoteNumber":48,"Velocity":41,"Duration":109641,"SoundDuration":109641,"Delta":44212861},{"NoteNumber":63,"Velocity":50,"Duration":89601,"SoundDuration":89601,"Delta":44300102},{"NoteNumber":51,"Velocity":42,"Duration":89601,"SoundDuration":89601,"Delta":44300102},{"NoteNumber":61,"Velocity":55,"Duration":111527,"SoundDuration":111527,"Delta":44389704},{"NoteNumber":49,"Velocity":46,"Duration":111527,"SoundDuration":111527,"Delta":44389704},{"NoteNumber":63,"Velocity":49,"Duration":110164,"SoundDuration":110164,"Delta":44479306},{"NoteNumber":51,"Velocity":41,"Duration":110164,"SoundDuration":110164,"Delta":44479306},{"NoteNumber":66,"Velocity":48,"Duration":112243,"SoundDuration":112243,"Delta":44567010},{"NoteNumber":54,"Velocity":40,"Duration":112243,"SoundDuration":112243,"Delta":44567010},{"NoteNumber":69,"Velocity":50,"Duration":111527,"SoundDuration":111527,"Delta":44656853},{"NoteNumber":57,"Velocity":40,"Duration":111527,"SoundDuration":111527,"Delta":44656853},{"NoteNumber":60,"Velocity":49,"Duration":110104,"SoundDuration":110104,"Delta":44746455},{"NoteNumber":48,"Velocity":41,"Duration":110104,"SoundDuration":110104,"Delta":44746455},{"NoteNumber":63,"Velocity":50,"Duration":89601,"SoundDuration":89601,"Delta":44834159},{"NoteNumber":51,"Velocity":42,"Duration":89601,"SoundDuration":89601,"Delta":44834159},{"NoteNumber":66,"Velocity":57,"Duration":111643,"SoundDuration":111643,"Delta":44923760},{"NoteNumber":54,"Velocity":47,"Duration":111643,"SoundDuration":111643,"Delta":44923760},{"NoteNumber":70,"Velocity":51,"Duration":110508,"SoundDuration":110508,"Delta":45013362},{"NoteNumber":58,"Velocity":43,"Duration":110508,"SoundDuration":110508,"Delta":45013362},{"NoteNumber":72,"Velocity":52,"Duration":111702,"SoundDuration":111702,"Delta":45101530},{"NoteNumber":60,"Velocity":44,"Duration":111702,"SoundDuration":111702,"Delta":45101530},{"NoteNumber":75,"Velocity":54,"Duration":111171,"SoundDuration":111171,"Delta":45190892},{"NoteNumber":63,"Velocity":45,"Duration":111171,"SoundDuration":111171,"Delta":45190892},{"NoteNumber":65,"Velocity":54,"Duration":109641,"SoundDuration":109641,"Delta":45280253},{"NoteNumber":53,"Velocity":45,"Duration":109641,"SoundDuration":109641,"Delta":45280253},{"NoteNumber":69,"Velocity":55,"Duration":89601,"SoundDuration":89601,"Delta":45367494},{"NoteNumber":57,"Velocity":46,"Duration":89601,"SoundDuration":89601,"Delta":45367494},{"NoteNumber":70,"Velocity":65,"Duration":111129,"SoundDuration":111129,"Delta":45457096},{"NoteNumber":58,"Velocity":55,"Duration":111129,"SoundDuration":111129,"Delta":45457096},{"NoteNumber":73,"Velocity":56,"Duration":108329,"SoundDuration":108329,"Delta":45546698},{"NoteNumber":61,"Velocity":46,"Duration":108329,"SoundDuration":108329,"Delta":45546698},{"NoteNumber":78,"Velocity":55,"Duration":111096,"SoundDuration":111096,"Delta":45632808},{"NoteNumber":66,"Velocity":46,"Duration":111096,"SoundDuration":111096,"Delta":45632808},{"NoteNumber":77,"Velocity":55,"Duration":110516,"SoundDuration":110516,"Delta":45721685},{"NoteNumber":65,"Velocity":48,"Duration":110516,"SoundDuration":110516,"Delta":45721685},{"NoteNumber":72,"Velocity":54,"Duration":108776,"SoundDuration":108776,"Delta":45810562},{"NoteNumber":60,"Velocity":45,"Duration":108776,"SoundDuration":108776,"Delta":45810562},{"NoteNumber":73,"Velocity":55,"Duration":88876,"SoundDuration":88876,"Delta":45897120},{"NoteNumber":61,"Velocity":46,"Duration":88876,"SoundDuration":88876,"Delta":45897120},{"NoteNumber":76,"Velocity":62,"Duration":175890,"SoundDuration":175890,"Delta":45985997},{"NoteNumber":64,"Velocity":52,"Duration":175890,"SoundDuration":175890,"Delta":45985997},{"NoteNumber":72,"Velocity":57,"Duration":109353,"SoundDuration":109353,"Delta":46074874},{"NoteNumber":60,"Velocity":48,"Duration":109353,"SoundDuration":109353,"Delta":46074874},{"NoteNumber":73,"Velocity":55,"Duration":111702,"SoundDuration":111702,"Delta":46161887},{"NoteNumber":61,"Velocity":46,"Duration":111702,"SoundDuration":111702,"Delta":46161887},{"NoteNumber":69,"Velocity":56,"Duration":176602,"SoundDuration":176602,"Delta":46251249},{"NoteNumber":57,"Velocity":47,"Duration":176602,"SoundDuration":176602,"Delta":46251249},{"NoteNumber":70,"Velocity":55,"Duration":109641,"SoundDuration":109641,"Delta":46340610},{"NoteNumber":58,"Velocity":46,"Duration":109641,"SoundDuration":109641,"Delta":46340610},{"NoteNumber":66,"Velocity":51,"Duration":89601,"SoundDuration":89601,"Delta":46427851},{"NoteNumber":54,"Velocity":43,"Duration":89601,"SoundDuration":89601,"Delta":46427851},{"NoteNumber":64,"Velocity":56,"Duration":177305,"SoundDuration":177305,"Delta":46517453},{"NoteNumber":52,"Velocity":47,"Duration":177305,"SoundDuration":177305,"Delta":46517453},{"NoteNumber":65,"Velocity":51,"Duration":110164,"SoundDuration":110164,"Delta":46607055},{"NoteNumber":53,"Velocity":43,"Duration":110164,"SoundDuration":110164,"Delta":46607055},{"NoteNumber":70,"Velocity":51,"Duration":89843,"SoundDuration":89843,"Delta":46694759},{"NoteNumber":58,"Velocity":43,"Duration":89843,"SoundDuration":89843,"Delta":46694759},{"NoteNumber":68,"Velocity":56,"Duration":176384,"SoundDuration":176384,"Delta":46784602},{"NoteNumber":56,"Velocity":45,"Duration":176384,"SoundDuration":176384,"Delta":46784602},{"NoteNumber":69,"Velocity":51,"Duration":109002,"SoundDuration":109002,"Delta":46874204},{"NoteNumber":57,"Velocity":43,"Duration":109002,"SoundDuration":109002,"Delta":46874204},{"NoteNumber":73,"Velocity":51,"Duration":88876,"SoundDuration":88876,"Delta":46960987},{"NoteNumber":61,"Velocity":43,"Duration":88876,"SoundDuration":88876,"Delta":46960987},{"NoteNumber":69,"Velocity":58,"Duration":175210,"SoundDuration":175210,"Delta":47049864},{"NoteNumber":57,"Velocity":48,"Duration":175210,"SoundDuration":175210,"Delta":47049864},{"NoteNumber":70,"Velocity":55,"Duration":108375,"SoundDuration":108375,"Delta":47138741},{"NoteNumber":58,"Velocity":46,"Duration":108375,"SoundDuration":108375,"Delta":47138741},{"NoteNumber":73,"Velocity":56,"Duration":88168,"SoundDuration":88168,"Delta":47225074},{"NoteNumber":61,"Velocity":47,"Duration":88168,"SoundDuration":88168,"Delta":47225074},{"NoteNumber":71,"Velocity":59,"Duration":173390,"SoundDuration":173390,"Delta":47313242},{"NoteNumber":59,"Velocity":50,"Duration":173390,"SoundDuration":173390,"Delta":47313242},{"NoteNumber":72,"Velocity":56,"Duration":107622,"SoundDuration":107622,"Delta":47401410},{"NoteNumber":60,"Velocity":47,"Duration":107622,"SoundDuration":107622,"Delta":47401410},{"NoteNumber":77,"Velocity":53,"Duration":89601,"SoundDuration":89601,"Delta":47486632},{"NoteNumber":65,"Velocity":44,"Duration":89601,"SoundDuration":89601,"Delta":47486632},{"NoteNumber":68,"Velocity":65,"Duration":109574,"SoundDuration":109574,"Delta":47576234},{"NoteNumber":56,"Velocity":55,"Duration":109574,"SoundDuration":109574,"Delta":47576234},{"NoteNumber":71,"Velocity":59,"Duration":108776,"SoundDuration":108776,"Delta":47664169},{"NoteNumber":59,"Velocity":50,"Duration":108776,"SoundDuration":108776,"Delta":47664169},{"NoteNumber":76,"Velocity":56,"Duration":111277,"SoundDuration":111277,"Delta":47750727},{"NoteNumber":64,"Velocity":47,"Duration":111277,"SoundDuration":111277,"Delta":47750727},{"NoteNumber":75,"Velocity":62,"Duration":111355,"SoundDuration":111355,"Delta":47839604},{"NoteNumber":63,"Velocity":52,"Duration":111355,"SoundDuration":111355,"Delta":47839604},{"NoteNumber":70,"Velocity":58,"Duration":109413,"SoundDuration":109413,"Delta":47929206},{"NoteNumber":58,"Velocity":49,"Duration":109413,"SoundDuration":109413,"Delta":47929206},{"NoteNumber":71,"Velocity":54,"Duration":89601,"SoundDuration":89601,"Delta":48016219},{"NoteNumber":59,"Velocity":43,"Duration":89601,"SoundDuration":89601,"Delta":48016219},{"NoteNumber":74,"Velocity":62,"Duration":177769,"SoundDuration":177769,"Delta":48105821},{"NoteNumber":62,"Velocity":52,"Duration":177769,"SoundDuration":177769,"Delta":48105821},{"NoteNumber":70,"Velocity":56,"Duration":110508,"SoundDuration":110508,"Delta":48195422},{"NoteNumber":58,"Velocity":47,"Duration":110508,"SoundDuration":110508,"Delta":48195422},{"NoteNumber":71,"Velocity":53,"Duration":111702,"SoundDuration":111702,"Delta":48283590},{"NoteNumber":59,"Velocity":45,"Duration":111702,"SoundDuration":111702,"Delta":48283590},{"NoteNumber":67,"Velocity":58,"Duration":176602,"SoundDuration":176602,"Delta":48372952},{"NoteNumber":55,"Velocity":49,"Duration":176602,"SoundDuration":176602,"Delta":48372952},{"NoteNumber":68,"Velocity":51,"Duration":109641,"SoundDuration":109641,"Delta":48462314},{"NoteNumber":56,"Velocity":43,"Duration":109641,"SoundDuration":109641,"Delta":48462314},{"NoteNumber":64,"Velocity":51,"Duration":89601,"SoundDuration":89601,"Delta":48549555},{"NoteNumber":52,"Velocity":43,"Duration":89601,"SoundDuration":89601,"Delta":48549555},{"NoteNumber":62,"Velocity":56,"Duration":177305,"SoundDuration":177305,"Delta":48639156},{"NoteNumber":50,"Velocity":47,"Duration":177305,"SoundDuration":177305,"Delta":48639156},{"NoteNumber":63,"Velocity":51,"Duration":110164,"SoundDuration":110164,"Delta":48728758},{"NoteNumber":51,"Velocity":43,"Duration":110164,"SoundDuration":110164,"Delta":48728758},{"NoteNumber":68,"Velocity":51,"Duration":89843,"SoundDuration":89843,"Delta":48816462},{"NoteNumber":56,"Velocity":43,"Duration":89843,"SoundDuration":89843,"Delta":48816462},{"NoteNumber":64,"Velocity":56,"Duration":176384,"SoundDuration":176384,"Delta":48906305},{"NoteNumber":52,"Velocity":48,"Duration":176384,"SoundDuration":176384,"Delta":48906305},{"NoteNumber":65,"Velocity":53,"Duration":108943,"SoundDuration":108943,"Delta":48995907},{"NoteNumber":53,"Velocity":45,"Duration":108943,"SoundDuration":108943,"Delta":48995907},{"NoteNumber":71,"Velocity":54,"Duration":88640,"SoundDuration":88640,"Delta":49082690},{"NoteNumber":59,"Velocity":45,"Duration":88640,"SoundDuration":88640,"Delta":49082690},{"NoteNumber":65,"Velocity":61,"Duration":175198,"SoundDuration":175198,"Delta":49171331},{"NoteNumber":53,"Velocity":50,"Duration":175198,"SoundDuration":175198,"Delta":49171331},{"NoteNumber":66,"Velocity":55,"Duration":108541,"SoundDuration":108541,"Delta":49259971},{"NoteNumber":54,"Velocity":46,"Duration":108541,"SoundDuration":108541,"Delta":49259971},{"NoteNumber":71,"Velocity":56,"Duration":87935,"SoundDuration":87935,"Delta":49346529},{"NoteNumber":59,"Velocity":47,"Duration":87935,"SoundDuration":87935,"Delta":49346529},{"NoteNumber":69,"Velocity":64,"Duration":173819,"SoundDuration":173819,"Delta":49434464},{"NoteNumber":57,"Velocity":51,"Duration":173819,"SoundDuration":173819,"Delta":49434464},{"NoteNumber":70,"Velocity":56,"Duration":108285,"SoundDuration":108285,"Delta":49522400},{"NoteNumber":58,"Velocity":47,"Duration":108285,"SoundDuration":108285,"Delta":49522400},{"NoteNumber":75,"Velocity":58,"Duration":89601,"SoundDuration":89601,"Delta":49608284},{"NoteNumber":63,"Velocity":49,"Duration":89601,"SoundDuration":89601,"Delta":49608284},{"NoteNumber":73,"Velocity":64,"Duration":111241,"SoundDuration":111241,"Delta":49697886},{"NoteNumber":61,"Velocity":54,"Duration":111241,"SoundDuration":111241,"Delta":49697886},{"NoteNumber":72,"Velocity":53,"Duration":109018,"SoundDuration":109018,"Delta":49787488},{"NoteNumber":60,"Velocity":45,"Duration":109018,"SoundDuration":109018,"Delta":49787488},{"NoteNumber":71,"Velocity":47,"Duration":112243,"SoundDuration":112243,"Delta":49874045},{"NoteNumber":59,"Velocity":39,"Duration":112243,"SoundDuration":112243,"Delta":49874045},{"NoteNumber":70,"Velocity":56,"Duration":111527,"SoundDuration":111527,"Delta":49963889},{"NoteNumber":58,"Velocity":47,"Duration":111527,"SoundDuration":111527,"Delta":49963889},{"NoteNumber":69,"Velocity":52,"Duration":110104,"SoundDuration":110104,"Delta":50053490},{"NoteNumber":57,"Velocity":44,"Duration":110104,"SoundDuration":110104,"Delta":50053490},{"NoteNumber":77,"Velocity":56,"Duration":89601,"SoundDuration":89601,"Delta":50141194},{"NoteNumber":65,"Velocity":45,"Duration":89601,"SoundDuration":89601,"Delta":50141194},{"NoteNumber":75,"Velocity":64,"Duration":111643,"SoundDuration":111643,"Delta":50230796},{"NoteNumber":63,"Velocity":54,"Duration":111643,"SoundDuration":111643,"Delta":50230796},{"NoteNumber":74,"Velocity":55,"Duration":110508,"SoundDuration":110508,"Delta":50320398},{"NoteNumber":62,"Velocity":45,"Duration":110508,"SoundDuration":110508,"Delta":50320398},{"NoteNumber":73,"Velocity":55,"Duration":111702,"SoundDuration":111702,"Delta":50408566},{"NoteNumber":61,"Velocity":45,"Duration":111702,"SoundDuration":111702,"Delta":50408566},{"NoteNumber":72,"Velocity":57,"Duration":111171,"SoundDuration":111171,"Delta":50497927},{"NoteNumber":60,"Velocity":48,"Duration":111171,"SoundDuration":111171,"Delta":50497927},{"NoteNumber":70,"Velocity":54,"Duration":109641,"SoundDuration":109641,"Delta":50587289},{"NoteNumber":58,"Velocity":45,"Duration":109641,"SoundDuration":109641,"Delta":50587289},{"NoteNumber":78,"Velocity":58,"Duration":89601,"SoundDuration":89601,"Delta":50674530},{"NoteNumber":66,"Velocity":48,"Duration":89601,"SoundDuration":89601,"Delta":50674530},{"NoteNumber":77,"Velocity":67,"Duration":111527,"SoundDuration":111527,"Delta":50764132},{"NoteNumber":65,"Velocity":56,"Duration":111527,"SoundDuration":111527,"Delta":50764132},{"NoteNumber":75,"Velocity":59,"Duration":110164,"SoundDuration":110164,"Delta":50853733},{"NoteNumber":63,"Velocity":50,"Duration":110164,"SoundDuration":110164,"Delta":50853733},{"NoteNumber":74,"Velocity":56,"Duration":112243,"SoundDuration":112243,"Delta":50941437},{"NoteNumber":62,"Velocity":47,"Duration":112243,"SoundDuration":112243,"Delta":50941437},{"NoteNumber":73,"Velocity":60,"Duration":111527,"SoundDuration":111527,"Delta":51031281},{"NoteNumber":61,"Velocity":51,"Duration":111527,"SoundDuration":111527,"Delta":51031281},{"NoteNumber":72,"Velocity":58,"Duration":110473,"SoundDuration":110473,"Delta":51120882},{"NoteNumber":60,"Velocity":49,"Duration":110473,"SoundDuration":110473,"Delta":51120882},{"NoteNumber":81,"Velocity":63,"Duration":91078,"SoundDuration":91078,"Delta":51208586},{"NoteNumber":69,"Velocity":53,"Duration":91078,"SoundDuration":91078,"Delta":51208586},{"NoteNumber":72,"Velocity":68,"Duration":180440,"SoundDuration":180440,"Delta":51299665},{"NoteNumber":60,"Velocity":57,"Duration":180440,"SoundDuration":180440,"Delta":51299665},{"NoteNumber":73,"Velocity":62,"Duration":112320,"SoundDuration":112320,"Delta":51390744},{"NoteNumber":61,"Velocity":52,"Duration":112320,"SoundDuration":112320,"Delta":51390744},{"NoteNumber":82,"Velocity":62,"Duration":91835,"SoundDuration":91835,"Delta":51480105},{"NoteNumber":70,"Velocity":52,"Duration":91835,"SoundDuration":91835,"Delta":51480105},{"NoteNumber":74,"Velocity":71,"Duration":181197,"SoundDuration":181197,"Delta":51571941},{"NoteNumber":62,"Velocity":60,"Duration":181197,"SoundDuration":181197,"Delta":51571941},{"NoteNumber":75,"Velocity":62,"Duration":112447,"SoundDuration":112447,"Delta":51663777},{"NoteNumber":63,"Velocity":52,"Duration":112447,"SoundDuration":112447,"Delta":51663777},{"NoteNumber":82,"Velocity":67,"Duration":92344,"SoundDuration":92344,"Delta":51753138},{"NoteNumber":70,"Velocity":56,"Duration":92344,"SoundDuration":92344,"Delta":51753138},{"NoteNumber":84,"Velocity":72,"Duration":106859,"SoundDuration":106859,"Delta":51845483},{"NoteNumber":72,"Velocity":61,"Duration":106859,"SoundDuration":106859,"Delta":51845483},{"NoteNumber":82,"Velocity":60,"Duration":107804,"SoundDuration":107804,"Delta":51930871},{"NoteNumber":70,"Velocity":51,"Duration":107804,"SoundDuration":107804,"Delta":51930871},{"NoteNumber":80,"Velocity":56,"Duration":108766,"SoundDuration":108766,"Delta":52017037},{"NoteNumber":68,"Velocity":47,"Duration":108766,"SoundDuration":108766,"Delta":52017037},{"NoteNumber":78,"Velocity":62,"Duration":109686,"SoundDuration":109686,"Delta":52103936},{"NoteNumber":66,"Velocity":52,"Duration":109686,"SoundDuration":109686,"Delta":52103936},{"NoteNumber":77,"Velocity":60,"Duration":110863,"SoundDuration":110863,"Delta":52191580},{"NoteNumber":65,"Velocity":49,"Duration":110863,"SoundDuration":110863,"Delta":52191580},{"NoteNumber":76,"Velocity":60,"Duration":89361,"SoundDuration":89361,"Delta":52280103},{"NoteNumber":64,"Velocity":49,"Duration":89361,"SoundDuration":89361,"Delta":52280103},{"NoteNumber":84,"Velocity":72,"Duration":110722,"SoundDuration":110722,"Delta":52369465},{"NoteNumber":72,"Velocity":61,"Duration":110722,"SoundDuration":110722,"Delta":52369465},{"NoteNumber":82,"Velocity":62,"Duration":107359,"SoundDuration":107359,"Delta":52458827},{"NoteNumber":70,"Velocity":52,"Duration":107359,"SoundDuration":107359,"Delta":52458827},{"NoteNumber":80,"Velocity":59,"Duration":108539,"SoundDuration":108539,"Delta":52544602},{"NoteNumber":68,"Velocity":47,"Duration":108539,"SoundDuration":108539,"Delta":52544602},{"NoteNumber":78,"Velocity":63,"Duration":109920,"SoundDuration":109920,"Delta":52631274},{"NoteNumber":66,"Velocity":53,"Duration":109920,"SoundDuration":109920,"Delta":52631274},{"NoteNumber":77,"Velocity":59,"Duration":111221,"SoundDuration":111221,"Delta":52719094},{"NoteNumber":65,"Velocity":48,"Duration":111221,"SoundDuration":111221,"Delta":52719094},{"NoteNumber":76,"Velocity":58,"Duration":89601,"SoundDuration":89601,"Delta":52807915},{"NoteNumber":64,"Velocity":49,"Duration":89601,"SoundDuration":89601,"Delta":52807915},{"NoteNumber":78,"Velocity":67,"Duration":108481,"SoundDuration":108481,"Delta":52897517},{"NoteNumber":66,"Velocity":56,"Duration":108481,"SoundDuration":108481,"Delta":52897517},{"NoteNumber":77,"Velocity":58,"Duration":109224,"SoundDuration":109224,"Delta":52984244},{"NoteNumber":65,"Velocity":48,"Duration":109224,"SoundDuration":109224,"Delta":52984244},{"NoteNumber":76,"Velocity":56,"Duration":110095,"SoundDuration":110095,"Delta":53071543},{"NoteNumber":64,"Velocity":47,"Duration":110095,"SoundDuration":110095,"Delta":53071543},{"NoteNumber":75,"Velocity":60,"Duration":110919,"SoundDuration":110919,"Delta":53159537},{"NoteNumber":63,"Velocity":51,"Duration":110919,"SoundDuration":110919,"Delta":53159537},{"NoteNumber":74,"Velocity":56,"Duration":111758,"SoundDuration":111758,"Delta":53248178},{"NoteNumber":62,"Velocity":47,"Duration":111758,"SoundDuration":111758,"Delta":53248178},{"NoteNumber":73,"Velocity":55,"Duration":89843,"SoundDuration":89843,"Delta":53337476},{"NoteNumber":61,"Velocity":46,"Duration":89843,"SoundDuration":89843,"Delta":53337476},{"NoteNumber":75,"Velocity":58,"Duration":111885,"SoundDuration":111885,"Delta":53427319},{"NoteNumber":63,"Velocity":49,"Duration":111885,"SoundDuration":111885,"Delta":53427319},{"NoteNumber":71,"Velocity":54,"Duration":110508,"SoundDuration":110508,"Delta":53517163},{"NoteNumber":59,"Velocity":45,"Duration":110508,"SoundDuration":110508,"Delta":53517163},{"NoteNumber":72,"Velocity":50,"Duration":111702,"SoundDuration":111702,"Delta":53605331},{"NoteNumber":60,"Velocity":42,"Duration":111702,"SoundDuration":111702,"Delta":53605331},{"NoteNumber":73,"Velocity":51,"Duration":111171,"SoundDuration":111171,"Delta":53694692},{"NoteNumber":61,"Velocity":43,"Duration":111171,"SoundDuration":111171,"Delta":53694692},{"NoteNumber":69,"Velocity":47,"Duration":109641,"SoundDuration":109641,"Delta":53784054},{"NoteNumber":57,"Velocity":40,"Duration":109641,"SoundDuration":109641,"Delta":53784054},{"NoteNumber":70,"Velocity":50,"Duration":89601,"SoundDuration":89601,"Delta":53871295},{"NoteNumber":58,"Velocity":42,"Duration":89601,"SoundDuration":89601,"Delta":53871295},{"NoteNumber":72,"Velocity":53,"Duration":177305,"SoundDuration":177305,"Delta":53960897},{"NoteNumber":60,"Velocity":45,"Duration":177305,"SoundDuration":177305,"Delta":53960897},{"NoteNumber":67,"Velocity":45,"Duration":110164,"SoundDuration":110164,"Delta":54050498},{"NoteNumber":55,"Velocity":37,"Duration":110164,"SoundDuration":110164,"Delta":54050498},{"NoteNumber":68,"Velocity":45,"Duration":112243,"SoundDuration":112243,"Delta":54138202},{"NoteNumber":56,"Velocity":38,"Duration":112243,"SoundDuration":112243,"Delta":54138202},{"NoteNumber":71,"Velocity":46,"Duration":177305,"SoundDuration":177305,"Delta":54228046},{"NoteNumber":59,"Velocity":39,"Duration":177305,"SoundDuration":177305,"Delta":54228046},{"NoteNumber":66,"Velocity":42,"Duration":110104,"SoundDuration":110104,"Delta":54317647},{"NoteNumber":54,"Velocity":35,"Duration":110104,"SoundDuration":110104,"Delta":54317647},{"NoteNumber":75,"Velocity":39,"Duration":89601,"SoundDuration":89601,"Delta":54405351},{"NoteNumber":63,"Velocity":31,"Duration":89601,"SoundDuration":89601,"Delta":54405351},{"NoteNumber":70,"Velocity":46,"Duration":177769,"SoundDuration":177769,"Delta":54494953},{"NoteNumber":58,"Velocity":39,"Duration":177769,"SoundDuration":177769,"Delta":54494953},{"NoteNumber":65,"Velocity":42,"Duration":110508,"SoundDuration":110508,"Delta":54584555},{"NoteNumber":53,"Velocity":35,"Duration":110508,"SoundDuration":110508,"Delta":54584555},{"NoteNumber":66,"Velocity":45,"Duration":111702,"SoundDuration":111702,"Delta":54672723},{"NoteNumber":54,"Velocity":37,"Duration":111702,"SoundDuration":111702,"Delta":54672723},{"NoteNumber":69,"Velocity":43,"Duration":176602,"SoundDuration":176602,"Delta":54762084},{"NoteNumber":57,"Velocity":39,"Duration":176602,"SoundDuration":176602,"Delta":54762084},{"NoteNumber":64,"Velocity":41,"Duration":109641,"SoundDuration":109641,"Delta":54851446},{"NoteNumber":52,"Velocity":34,"Duration":109641,"SoundDuration":109641,"Delta":54851446},{"NoteNumber":73,"Velocity":39,"Duration":89601,"SoundDuration":89601,"Delta":54938687},{"NoteNumber":61,"Velocity":32,"Duration":89601,"SoundDuration":89601,"Delta":54938687},{"NoteNumber":68,"Velocity":51,"Duration":177305,"SoundDuration":177305,"Delta":55028289},{"NoteNumber":56,"Velocity":43,"Duration":177305,"SoundDuration":177305,"Delta":55028289},{"NoteNumber":63,"Velocity":44,"Duration":110164,"SoundDuration":110164,"Delta":55117890},{"NoteNumber":51,"Velocity":36,"Duration":110164,"SoundDuration":110164,"Delta":55117890},{"NoteNumber":64,"Velocity":44,"Duration":112243,"SoundDuration":112243,"Delta":55205594},{"NoteNumber":52,"Velocity":36,"Duration":112243,"SoundDuration":112243,"Delta":55205594},{"NoteNumber":67,"Velocity":43,"Duration":177305,"SoundDuration":177305,"Delta":55295438},{"NoteNumber":55,"Velocity":37,"Duration":177305,"SoundDuration":177305,"Delta":55295438},{"NoteNumber":62,"Velocity":41,"Duration":110104,"SoundDuration":110104,"Delta":55385039},{"NoteNumber":50,"Velocity":34,"Duration":110104,"SoundDuration":110104,"Delta":55385039},{"NoteNumber":71,"Velocity":41,"Duration":89601,"SoundDuration":89601,"Delta":55472743},{"NoteNumber":59,"Velocity":31,"Duration":89601,"SoundDuration":89601,"Delta":55472743},{"NoteNumber":66,"Velocity":47,"Duration":177769,"SoundDuration":177769,"Delta":55562345},{"NoteNumber":54,"Velocity":39,"Duration":177769,"SoundDuration":177769,"Delta":55562345},{"NoteNumber":61,"Velocity":40,"Duration":110508,"SoundDuration":110508,"Delta":55651947},{"NoteNumber":49,"Velocity":34,"Duration":110508,"SoundDuration":110508,"Delta":55651947},{"NoteNumber":62,"Velocity":40,"Duration":111702,"SoundDuration":111702,"Delta":55740115},{"NoteNumber":50,"Velocity":34,"Duration":111702,"SoundDuration":111702,"Delta":55740115},{"NoteNumber":65,"Velocity":44,"Duration":176602,"SoundDuration":176602,"Delta":55829476},{"NoteNumber":53,"Velocity":36,"Duration":176602,"SoundDuration":176602,"Delta":55829476},{"NoteNumber":60,"Velocity":38,"Duration":109641,"SoundDuration":109641,"Delta":55918838},{"NoteNumber":48,"Velocity":32,"Duration":109641,"SoundDuration":109641,"Delta":55918838},{"NoteNumber":69,"Velocity":40,"Duration":89601,"SoundDuration":89601,"Delta":56006079},{"NoteNumber":57,"Velocity":32,"Duration":89601,"SoundDuration":89601,"Delta":56006079},{"NoteNumber":74,"Velocity":49,"Duration":175265,"SoundDuration":175265,"Delta":56095681},{"NoteNumber":62,"Velocity":41,"Duration":175265,"SoundDuration":175265,"Delta":56095681},{"NoteNumber":69,"Velocity":42,"Duration":107705,"SoundDuration":107705,"Delta":56185282},{"NoteNumber":57,"Velocity":35,"Duration":107705,"SoundDuration":107705,"Delta":56185282},{"NoteNumber":70,"Velocity":45,"Duration":110328,"SoundDuration":110328,"Delta":56270946},{"NoteNumber":58,"Velocity":38,"Duration":110328,"SoundDuration":110328,"Delta":56270946},{"NoteNumber":73,"Velocity":48,"Duration":174751,"SoundDuration":174751,"Delta":56359114},{"NoteNumber":61,"Velocity":41,"Duration":174751,"SoundDuration":174751,"Delta":56359114},{"NoteNumber":68,"Velocity":42,"Duration":108211,"SoundDuration":108211,"Delta":56447755},{"NoteNumber":56,"Velocity":35,"Duration":108211,"SoundDuration":108211,"Delta":56447755},{"NoteNumber":77,"Velocity":39,"Duration":88405,"SoundDuration":88405,"Delta":56533865},{"NoteNumber":65,"Velocity":30,"Duration":88405,"SoundDuration":88405,"Delta":56533865},{"NoteNumber":72,"Velocity":47,"Duration":174963,"SoundDuration":174963,"Delta":56622271},{"NoteNumber":60,"Velocity":40,"Duration":174963,"SoundDuration":174963,"Delta":56622271},{"NoteNumber":67,"Velocity":42,"Duration":108898,"SoundDuration":108898,"Delta":56710677},{"NoteNumber":55,"Velocity":35,"Duration":108898,"SoundDuration":108898,"Delta":56710677},{"NoteNumber":68,"Velocity":42,"Duration":111702,"SoundDuration":111702,"Delta":56797234},{"NoteNumber":56,"Velocity":35,"Duration":111702,"SoundDuration":111702,"Delta":56797234},{"NoteNumber":71,"Velocity":44,"Duration":176602,"SoundDuration":176602,"Delta":56886596},{"NoteNumber":59,"Velocity":36,"Duration":176602,"SoundDuration":176602,"Delta":56886596},{"NoteNumber":66,"Velocity":43,"Duration":109641,"SoundDuration":109641,"Delta":56975958},{"NoteNumber":54,"Velocity":35,"Duration":109641,"SoundDuration":109641,"Delta":56975958},{"NoteNumber":75,"Velocity":39,"Duration":89601,"SoundDuration":89601,"Delta":57063199},{"NoteNumber":63,"Velocity":32,"Duration":89601,"SoundDuration":89601,"Delta":57063199},{"NoteNumber":70,"Velocity":47,"Duration":177305,"SoundDuration":177305,"Delta":57152800},{"NoteNumber":58,"Velocity":39,"Duration":177305,"SoundDuration":177305,"Delta":57152800},{"NoteNumber":65,"Velocity":39,"Duration":110164,"SoundDuration":110164,"Delta":57242402},{"NoteNumber":53,"Velocity":33,"Duration":110164,"SoundDuration":110164,"Delta":57242402},{"NoteNumber":66,"Velocity":41,"Duration":112243,"SoundDuration":112243,"Delta":57330106},{"NoteNumber":54,"Velocity":34,"Duration":112243,"SoundDuration":112243,"Delta":57330106},{"NoteNumber":69,"Velocity":41,"Duration":177305,"SoundDuration":177305,"Delta":57419949},{"NoteNumber":57,"Velocity":35,"Duration":177305,"SoundDuration":177305,"Delta":57419949},{"NoteNumber":64,"Velocity":39,"Duration":110104,"SoundDuration":110104,"Delta":57509551},{"NoteNumber":52,"Velocity":32,"Duration":110104,"SoundDuration":110104,"Delta":57509551},{"NoteNumber":73,"Velocity":39,"Duration":89601,"SoundDuration":89601,"Delta":57597255},{"NoteNumber":61,"Velocity":32,"Duration":89601,"SoundDuration":89601,"Delta":57597255},{"NoteNumber":68,"Velocity":44,"Duration":177769,"SoundDuration":177769,"Delta":57686857},{"NoteNumber":56,"Velocity":37,"Duration":177769,"SoundDuration":177769,"Delta":57686857},{"NoteNumber":63,"Velocity":39,"Duration":110508,"SoundDuration":110508,"Delta":57776458},{"NoteNumber":51,"Velocity":33,"Duration":110508,"SoundDuration":110508,"Delta":57776458},{"NoteNumber":64,"Velocity":41,"Duration":111702,"SoundDuration":111702,"Delta":57864626},{"NoteNumber":52,"Velocity":34,"Duration":111702,"SoundDuration":111702,"Delta":57864626},{"NoteNumber":67,"Velocity":42,"Duration":176602,"SoundDuration":176602,"Delta":57953988},{"NoteNumber":55,"Velocity":36,"Duration":176602,"SoundDuration":176602,"Delta":57953988},{"NoteNumber":62,"Velocity":39,"Duration":109641,"SoundDuration":109641,"Delta":58043350},{"NoteNumber":50,"Velocity":33,"Duration":109641,"SoundDuration":109641,"Delta":58043350},{"NoteNumber":71,"Velocity":43,"Duration":89601,"SoundDuration":89601,"Delta":58130591},{"NoteNumber":59,"Velocity":35,"Duration":89601,"SoundDuration":89601,"Delta":58130591},{"NoteNumber":76,"Velocity":53,"Duration":175486,"SoundDuration":175486,"Delta":58220192},{"NoteNumber":64,"Velocity":45,"Duration":175486,"SoundDuration":175486,"Delta":58220192},{"NoteNumber":71,"Velocity":39,"Duration":107986,"SoundDuration":107986,"Delta":58309794},{"NoteNumber":59,"Velocity":33,"Duration":107986,"SoundDuration":107986,"Delta":58309794},{"NoteNumber":72,"Velocity":45,"Duration":110565,"SoundDuration":110565,"Delta":58395679},{"NoteNumber":60,"Velocity":38,"Duration":110565,"SoundDuration":110565,"Delta":58395679},{"NoteNumber":75,"Velocity":45,"Duration":174973,"SoundDuration":174973,"Delta":58484084},{"NoteNumber":63,"Velocity":38,"Duration":174973,"SoundDuration":174973,"Delta":58484084},{"NoteNumber":70,"Velocity":39,"Duration":108434,"SoundDuration":108434,"Delta":58572725},{"NoteNumber":58,"Velocity":32,"Duration":108434,"SoundDuration":108434,"Delta":58572725},{"NoteNumber":79,"Velocity":42,"Duration":88405,"SoundDuration":88405,"Delta":58659058},{"NoteNumber":67,"Velocity":36,"Duration":88405,"SoundDuration":88405,"Delta":58659058},{"NoteNumber":74,"Velocity":51,"Duration":175188,"SoundDuration":175188,"Delta":58747464},{"NoteNumber":62,"Velocity":40,"Duration":175188,"SoundDuration":175188,"Delta":58747464},{"NoteNumber":69,"Velocity":38,"Duration":109123,"SoundDuration":109123,"Delta":58835870},{"NoteNumber":57,"Velocity":32,"Duration":109123,"SoundDuration":109123,"Delta":58835870},{"NoteNumber":70,"Velocity":42,"Duration":111702,"SoundDuration":111702,"Delta":58922653},{"NoteNumber":58,"Velocity":35,"Duration":111702,"SoundDuration":111702,"Delta":58922653},{"NoteNumber":73,"Velocity":43,"Duration":176602,"SoundDuration":176602,"Delta":59012014},{"NoteNumber":61,"Velocity":35,"Duration":176602,"SoundDuration":176602,"Delta":59012014},{"NoteNumber":68,"Velocity":38,"Duration":109641,"SoundDuration":109641,"Delta":59101376},{"NoteNumber":56,"Velocity":32,"Duration":109641,"SoundDuration":109641,"Delta":59101376},{"NoteNumber":77,"Velocity":39,"Duration":89601,"SoundDuration":89601,"Delta":59188617},{"NoteNumber":65,"Velocity":32,"Duration":89601,"SoundDuration":89601,"Delta":59188617},{"NoteNumber":72,"Velocity":49,"Duration":177305,"SoundDuration":177305,"Delta":59278219},{"NoteNumber":60,"Velocity":41,"Duration":177305,"SoundDuration":177305,"Delta":59278219},{"NoteNumber":67,"Velocity":38,"Duration":110164,"SoundDuration":110164,"Delta":59367820},{"NoteNumber":55,"Velocity":32,"Duration":110164,"SoundDuration":110164,"Delta":59367820},{"NoteNumber":68,"Velocity":39,"Duration":112243,"SoundDuration":112243,"Delta":59455524},{"NoteNumber":56,"Velocity":33,"Duration":112243,"SoundDuration":112243,"Delta":59455524},{"NoteNumber":71,"Velocity":39,"Duration":177305,"SoundDuration":177305,"Delta":59545368},{"NoteNumber":59,"Velocity":34,"Duration":177305,"SoundDuration":177305,"Delta":59545368},{"NoteNumber":66,"Velocity":36,"Duration":110104,"SoundDuration":110104,"Delta":59634969},{"NoteNumber":54,"Velocity":31,"Duration":110104,"SoundDuration":110104,"Delta":59634969},{"NoteNumber":75,"Velocity":37,"Duration":89601,"SoundDuration":89601,"Delta":59722673},{"NoteNumber":63,"Velocity":31,"Duration":89601,"SoundDuration":89601,"Delta":59722673},{"NoteNumber":70,"Velocity":47,"Duration":177769,"SoundDuration":177769,"Delta":59812275},{"NoteNumber":58,"Velocity":39,"Duration":177769,"SoundDuration":177769,"Delta":59812275},{"NoteNumber":65,"Velocity":36,"Duration":110508,"SoundDuration":110508,"Delta":59901877},{"NoteNumber":53,"Velocity":31,"Duration":110508,"SoundDuration":110508,"Delta":59901877},{"NoteNumber":75,"Velocity":39,"Duration":111702,"SoundDuration":111702,"Delta":59990045},{"NoteNumber":63,"Velocity":33,"Duration":111702,"SoundDuration":111702,"Delta":59990045},{"NoteNumber":70,"Velocity":41,"Duration":176602,"SoundDuration":176602,"Delta":60079406},{"NoteNumber":58,"Velocity":34,"Duration":176602,"SoundDuration":176602,"Delta":60079406},{"NoteNumber":65,"Velocity":34,"Duration":109641,"SoundDuration":109641,"Delta":60168768},{"NoteNumber":53,"Velocity":29,"Duration":109641,"SoundDuration":109641,"Delta":60168768},{"NoteNumber":73,"Velocity":39,"Duration":89601,"SoundDuration":89601,"Delta":60256009},{"NoteNumber":61,"Velocity":32,"Duration":89601,"SoundDuration":89601,"Delta":60256009},{"NoteNumber":66,"Velocity":49,"Duration":108197,"SoundDuration":108197,"Delta":60345611},{"NoteNumber":54,"Velocity":41,"Duration":108197,"SoundDuration":108197,"Delta":60345611},{"NoteNumber":65,"Velocity":42,"Duration":108937,"SoundDuration":108937,"Delta":60432113},{"NoteNumber":53,"Velocity":35,"Duration":108937,"SoundDuration":108937,"Delta":60432113},{"NoteNumber":64,"Velocity":39,"Duration":109745,"SoundDuration":109745,"Delta":60519182},{"NoteNumber":52,"Velocity":33,"Duration":109745,"SoundDuration":109745,"Delta":60519182},{"NoteNumber":63,"Velocity":43,"Duration":110505,"SoundDuration":110505,"Delta":60606885},{"NoteNumber":51,"Velocity":36,"Duration":110505,"SoundDuration":110505,"Delta":60606885},{"NoteNumber":61,"Velocity":43,"Duration":111398,"SoundDuration":111398,"Delta":60695231},{"NoteNumber":49,"Velocity":35,"Duration":111398,"SoundDuration":111398,"Delta":60695231},{"NoteNumber":60,"Velocity":42,"Duration":89601,"SoundDuration":89601,"Delta":60784230},{"NoteNumber":48,"Velocity":35,"Duration":89601,"SoundDuration":89601,"Delta":60784230},{"NoteNumber":66,"Velocity":49,"Duration":107468,"SoundDuration":107468,"Delta":60873831},{"NoteNumber":54,"Velocity":41,"Duration":107468,"SoundDuration":107468,"Delta":60873831},{"NoteNumber":65,"Velocity":42,"Duration":107973,"SoundDuration":107973,"Delta":60959772},{"NoteNumber":53,"Velocity":35,"Duration":107973,"SoundDuration":107973,"Delta":60959772},{"NoteNumber":63,"Velocity":42,"Duration":108994,"SoundDuration":108994,"Delta":61046050},{"NoteNumber":51,"Velocity":35,"Duration":108994,"SoundDuration":108994,"Delta":61046050},{"NoteNumber":61,"Velocity":45,"Duration":109920,"SoundDuration":109920,"Delta":61133177},{"NoteNumber":49,"Velocity":38,"Duration":109920,"SoundDuration":109920,"Delta":61133177},{"NoteNumber":60,"Velocity":44,"Duration":111159,"SoundDuration":111159,"Delta":61220996},{"NoteNumber":48,"Velocity":37,"Duration":111159,"SoundDuration":111159,"Delta":61220996},{"NoteNumber":58,"Velocity":42,"Duration":89601,"SoundDuration":89601,"Delta":61309756},{"NoteNumber":46,"Velocity":35,"Duration":89601,"SoundDuration":89601,"Delta":61309756},{"NoteNumber":66,"Velocity":49,"Duration":108197,"SoundDuration":108197,"Delta":61399358},{"NoteNumber":54,"Velocity":41,"Duration":108197,"SoundDuration":108197,"Delta":61399358},{"NoteNumber":65,"Velocity":45,"Duration":108994,"SoundDuration":108994,"Delta":61485859},{"NoteNumber":53,"Velocity":38,"Duration":108994,"SoundDuration":108994,"Delta":61485859},{"NoteNumber":63,"Velocity":42,"Duration":109861,"SoundDuration":109861,"Delta":61572986},{"NoteNumber":51,"Velocity":35,"Duration":109861,"SoundDuration":109861,"Delta":61572986},{"NoteNumber":61,"Velocity":45,"Duration":110742,"SoundDuration":110742,"Delta":61660806},{"NoteNumber":49,"Velocity":38,"Duration":110742,"SoundDuration":110742,"Delta":61660806},{"NoteNumber":60,"Velocity":44,"Duration":111639,"SoundDuration":111639,"Delta":61749328},{"NoteNumber":48,"Velocity":37,"Duration":111639,"SoundDuration":111639,"Delta":61749328},{"NoteNumber":59,"Velocity":42,"Duration":89601,"SoundDuration":89601,"Delta":61838567},{"NoteNumber":47,"Velocity":35,"Duration":89601,"SoundDuration":89601,"Delta":61838567},{"NoteNumber":66,"Velocity":49,"Duration":108765,"SoundDuration":108765,"Delta":61928169},{"NoteNumber":54,"Velocity":41,"Duration":108765,"SoundDuration":108765,"Delta":61928169},{"NoteNumber":65,"Velocity":45,"Duration":109571,"SoundDuration":109571,"Delta":62015124},{"NoteNumber":53,"Velocity":38,"Duration":109571,"SoundDuration":109571,"Delta":62015124},{"NoteNumber":63,"Velocity":42,"Duration":110388,"SoundDuration":110388,"Delta":62102711},{"NoteNumber":51,"Velocity":35,"Duration":110388,"SoundDuration":110388,"Delta":62102711},{"NoteNumber":61,"Velocity":45,"Duration":111277,"SoundDuration":111277,"Delta":62190940},{"NoteNumber":49,"Velocity":38,"Duration":111277,"SoundDuration":111277,"Delta":62190940},{"NoteNumber":59,"Velocity":44,"Duration":112062,"SoundDuration":112062,"Delta":62279877},{"NoteNumber":47,"Velocity":37,"Duration":112062,"SoundDuration":112062,"Delta":62279877},{"NoteNumber":58,"Velocity":42,"Duration":89601,"SoundDuration":89601,"Delta":62369539},{"NoteNumber":46,"Velocity":35,"Duration":89601,"SoundDuration":89601,"Delta":62369539},{"NoteNumber":57,"Velocity":45,"Duration":112122,"SoundDuration":112122,"Delta":62459141},{"NoteNumber":45,"Velocity":38,"Duration":112122,"SoundDuration":112122,"Delta":62459141},{"NoteNumber":58,"Velocity":43,"Duration":111517,"SoundDuration":111517,"Delta":62548864},{"NoteNumber":46,"Velocity":36,"Duration":111517,"SoundDuration":111517,"Delta":62548864},{"NoteNumber":60,"Velocity":43,"Duration":110801,"SoundDuration":110801,"Delta":62638162},{"NoteNumber":48,"Velocity":36,"Duration":110801,"SoundDuration":110801,"Delta":62638162},{"NoteNumber":63,"Velocity":44,"Duration":110095,"SoundDuration":110095,"Delta":62726862},{"NoteNumber":51,"Velocity":35,"Duration":110095,"SoundDuration":110095,"Delta":62726862},{"NoteNumber":61,"Velocity":41,"Duration":110104,"SoundDuration":110104,"Delta":62815031},{"NoteNumber":49,"Velocity":34,"Duration":110104,"SoundDuration":110104,"Delta":62815031},{"NoteNumber":57,"Velocity":40,"Duration":89601,"SoundDuration":89601,"Delta":62902735},{"NoteNumber":45,"Velocity":34,"Duration":89601,"SoundDuration":89601,"Delta":62902735},{"NoteNumber":60,"Velocity":45,"Duration":111643,"SoundDuration":111643,"Delta":62992337},{"NoteNumber":48,"Velocity":38,"Duration":111643,"SoundDuration":111643,"Delta":62992337},{"NoteNumber":58,"Velocity":40,"Duration":110508,"SoundDuration":110508,"Delta":63081938},{"NoteNumber":46,"Velocity":34,"Duration":110508,"SoundDuration":110508,"Delta":63081938},{"NoteNumber":53,"Velocity":40,"Duration":111702,"SoundDuration":111702,"Delta":63170106},{"NoteNumber":41,"Velocity":34,"Duration":111702,"SoundDuration":111702,"Delta":63170106},{"NoteNumber":56,"Velocity":41,"Duration":111171,"SoundDuration":111171,"Delta":63259468},{"NoteNumber":44,"Velocity":34,"Duration":111171,"SoundDuration":111171,"Delta":63259468},{"NoteNumber":54,"Velocity":40,"Duration":109641,"SoundDuration":109641,"Delta":63348830},{"NoteNumber":42,"Velocity":34,"Duration":109641,"SoundDuration":109641,"Delta":63348830},{"NoteNumber":53,"Velocity":40,"Duration":89601,"SoundDuration":89601,"Delta":63436071},{"NoteNumber":41,"Velocity":34,"Duration":89601,"SoundDuration":89601,"Delta":63436071},{"NoteNumber":51,"Velocity":45,"Duration":111941,"SoundDuration":111941,"Delta":63525672},{"NoteNumber":39,"Velocity":38,"Duration":111941,"SoundDuration":111941,"Delta":63525672},{"NoteNumber":53,"Velocity":43,"Duration":111038,"SoundDuration":111038,"Delta":63615335},{"NoteNumber":41,"Velocity":36,"Duration":111038,"SoundDuration":111038,"Delta":63615335},{"NoteNumber":54,"Velocity":43,"Duration":110095,"SoundDuration":110095,"Delta":63704272},{"NoteNumber":42,"Velocity":36,"Duration":110095,"SoundDuration":110095,"Delta":63704272},{"NoteNumber":58,"Velocity":44,"Duration":109339,"SoundDuration":109339,"Delta":63792441},{"NoteNumber":46,"Velocity":36,"Duration":109339,"SoundDuration":109339,"Delta":63792441},{"NoteNumber":56,"Velocity":41,"Duration":110104,"SoundDuration":110104,"Delta":63879855},{"NoteNumber":44,"Velocity":34,"Duration":110104,"SoundDuration":110104,"Delta":63879855},{"NoteNumber":54,"Velocity":40,"Duration":89601,"SoundDuration":89601,"Delta":63967559},{"NoteNumber":42,"Velocity":34,"Duration":89601,"SoundDuration":89601,"Delta":63967559},{"NoteNumber":53,"Velocity":44,"Duration":111643,"SoundDuration":111643,"Delta":64057161},{"NoteNumber":41,"Velocity":37,"Duration":111643,"SoundDuration":111643,"Delta":64057161},{"NoteNumber":49,"Velocity":40,"Duration":110508,"SoundDuration":110508,"Delta":64146762},{"NoteNumber":37,"Velocity":34,"Duration":110508,"SoundDuration":110508,"Delta":64146762},{"NoteNumber":51,"Velocity":40,"Duration":111702,"SoundDuration":111702,"Delta":64234930},{"NoteNumber":39,"Velocity":34,"Duration":111702,"SoundDuration":111702,"Delta":64234930},{"NoteNumber":53,"Velocity":43,"Duration":111171,"SoundDuration":111171,"Delta":64324292},{"NoteNumber":41,"Velocity":36,"Duration":111171,"SoundDuration":111171,"Delta":64324292},{"NoteNumber":52,"Velocity":40,"Duration":109641,"SoundDuration":109641,"Delta":64413654},{"NoteNumber":40,"Velocity":34,"Duration":109641,"SoundDuration":109641,"Delta":64413654},{"NoteNumber":53,"Velocity":40,"Duration":89601,"SoundDuration":89601,"Delta":64500895},{"NoteNumber":41,"Velocity":34,"Duration":89601,"SoundDuration":89601,"Delta":64500895},{"NoteNumber":54,"Velocity":44,"Duration":109281,"SoundDuration":109281,"Delta":64590496},{"NoteNumber":42,"Velocity":37,"Duration":109281,"SoundDuration":109281,"Delta":64590496},{"NoteNumber":53,"Velocity":39,"Duration":109861,"SoundDuration":109861,"Delta":64677852},{"NoteNumber":41,"Velocity":33,"Duration":109861,"SoundDuration":109861,"Delta":64677852},{"NoteNumber":52,"Velocity":39,"Duration":110565,"SoundDuration":110565,"Delta":64765671},{"NoteNumber":40,"Velocity":33,"Duration":110565,"SoundDuration":110565,"Delta":64765671},{"NoteNumber":51,"Velocity":39,"Duration":111155,"SoundDuration":111155,"Delta":64854076},{"NoteNumber":39,"Velocity":33,"Duration":111155,"SoundDuration":111155,"Delta":64854076},{"NoteNumber":49,"Velocity":36,"Duration":111820,"SoundDuration":111820,"Delta":64942954},{"NoteNumber":37,"Velocity":30,"Duration":111820,"SoundDuration":111820,"Delta":64942954},{"NoteNumber":48,"Velocity":37,"Duration":89601,"SoundDuration":89601,"Delta":65032374},{"NoteNumber":36,"Velocity":31,"Duration":89601,"SoundDuration":89601,"Delta":65032374},{"NoteNumber":54,"Velocity":44,"Duration":108423,"SoundDuration":108423,"Delta":65121975},{"NoteNumber":42,"Velocity":37,"Duration":108423,"SoundDuration":108423,"Delta":65121975},{"NoteNumber":53,"Velocity":39,"Duration":108994,"SoundDuration":108994,"Delta":65208646},{"NoteNumber":41,"Velocity":33,"Duration":108994,"SoundDuration":108994,"Delta":65208646},{"NoteNumber":51,"Velocity":39,"Duration":109687,"SoundDuration":109687,"Delta":65295773},{"NoteNumber":39,"Velocity":33,"Duration":109687,"SoundDuration":109687,"Delta":65295773},{"NoteNumber":49,"Velocity":39,"Duration":110270,"SoundDuration":110270,"Delta":65383476},{"NoteNumber":37,"Velocity":33,"Duration":110270,"SoundDuration":110270,"Delta":65383476},{"NoteNumber":48,"Velocity":36,"Duration":111100,"SoundDuration":111100,"Delta":65471645},{"NoteNumber":36,"Velocity":30,"Duration":111100,"SoundDuration":111100,"Delta":65471645},{"NoteNumber":46,"Velocity":37,"Duration":88954,"SoundDuration":88954,"Delta":65560345},{"NoteNumber":34,"Velocity":31,"Duration":88954,"SoundDuration":88954,"Delta":65560345},{"NoteNumber":54,"Velocity":44,"Duration":109108,"SoundDuration":109108,"Delta":65649300},{"NoteNumber":42,"Velocity":37,"Duration":109108,"SoundDuration":109108,"Delta":65649300},{"NoteNumber":53,"Velocity":39,"Duration":109803,"SoundDuration":109803,"Delta":65736541},{"NoteNumber":41,"Velocity":33,"Duration":109803,"SoundDuration":109803,"Delta":65736541},{"NoteNumber":51,"Velocity":39,"Duration":110446,"SoundDuration":110446,"Delta":65824303},{"NoteNumber":39,"Velocity":33,"Duration":110446,"SoundDuration":110446,"Delta":65824303},{"NoteNumber":49,"Velocity":39,"Duration":111155,"SoundDuration":111155,"Delta":65912589},{"NoteNumber":37,"Velocity":33,"Duration":111155,"SoundDuration":111155,"Delta":65912589},{"NoteNumber":48,"Velocity":36,"Duration":111820,"SoundDuration":111820,"Delta":66001467},{"NoteNumber":36,"Velocity":30,"Duration":111820,"SoundDuration":111820,"Delta":66001467},{"NoteNumber":47,"Velocity":37,"Duration":89601,"SoundDuration":89601,"Delta":66090887},{"NoteNumber":35,"Velocity":31,"Duration":89601,"SoundDuration":89601,"Delta":66090887},{"NoteNumber":54,"Velocity":44,"Duration":107973,"SoundDuration":107973,"Delta":66180488},{"NoteNumber":42,"Velocity":37,"Duration":107973,"SoundDuration":107973,"Delta":66180488},{"NoteNumber":53,"Velocity":39,"Duration":108880,"SoundDuration":108880,"Delta":66266766},{"NoteNumber":41,"Velocity":33,"Duration":108880,"SoundDuration":108880,"Delta":66266766},{"NoteNumber":51,"Velocity":39,"Duration":109803,"SoundDuration":109803,"Delta":66353779},{"NoteNumber":39,"Velocity":33,"Duration":109803,"SoundDuration":109803,"Delta":66353779},{"NoteNumber":49,"Velocity":39,"Duration":110742,"SoundDuration":110742,"Delta":66441540},{"NoteNumber":37,"Velocity":33,"Duration":110742,"SoundDuration":110742,"Delta":66441540},{"NoteNumber":47,"Velocity":36,"Duration":111699,"SoundDuration":111699,"Delta":66530063},{"NoteNumber":35,"Velocity":30,"Duration":111699,"SoundDuration":111699,"Delta":66530063},{"NoteNumber":46,"Velocity":37,"Duration":89843,"SoundDuration":89843,"Delta":66619302},{"NoteNumber":34,"Velocity":31,"Duration":89843,"SoundDuration":89843,"Delta":66619302},{"NoteNumber":45,"Velocity":41,"Duration":112795,"SoundDuration":112795,"Delta":66709145},{"NoteNumber":33,"Velocity":34,"Duration":112795,"SoundDuration":112795,"Delta":66709145},{"NoteNumber":46,"Velocity":36,"Duration":112367,"SoundDuration":112367,"Delta":66799418},{"NoteNumber":34,"Velocity":30,"Duration":112367,"SoundDuration":112367,"Delta":66799418},{"NoteNumber":47,"Velocity":37,"Duration":111882,"SoundDuration":111882,"Delta":66889385},{"NoteNumber":35,"Velocity":31,"Duration":111882,"SoundDuration":111882,"Delta":66889385},{"NoteNumber":49,"Velocity":45,"Duration":111395,"SoundDuration":111395,"Delta":66978927},{"NoteNumber":37,"Velocity":38,"Duration":111395,"SoundDuration":111395,"Delta":66978927},{"NoteNumber":51,"Velocity":39,"Duration":110918,"SoundDuration":110918,"Delta":67068103},{"NoteNumber":39,"Velocity":33,"Duration":110918,"SoundDuration":110918,"Delta":67068103},{"NoteNumber":53,"Velocity":40,"Duration":88404,"SoundDuration":88404,"Delta":67156862},{"NoteNumber":41,"Velocity":34,"Duration":88404,"SoundDuration":88404,"Delta":67156862},{"NoteNumber":54,"Velocity":49,"Duration":109977,"SoundDuration":109977,"Delta":67245267},{"NoteNumber":42,"Velocity":41,"Duration":109977,"SoundDuration":109977,"Delta":67245267},{"NoteNumber":56,"Velocity":45,"Duration":109512,"SoundDuration":109512,"Delta":67333318},{"NoteNumber":44,"Velocity":38,"Duration":109512,"SoundDuration":109512,"Delta":67333318},{"NoteNumber":58,"Velocity":46,"Duration":109051,"SoundDuration":109051,"Delta":67420964},{"NoteNumber":46,"Velocity":39,"Duration":109051,"SoundDuration":109051,"Delta":67420964},{"NoteNumber":59,"Velocity":54,"Duration":108593,"SoundDuration":108593,"Delta":67508262},{"NoteNumber":47,"Velocity":45,"Duration":108593,"SoundDuration":108593,"Delta":67508262},{"NoteNumber":61,"Velocity":51,"Duration":108141,"SoundDuration":108141,"Delta":67595160},{"NoteNumber":49,"Velocity":43,"Duration":108141,"SoundDuration":108141,"Delta":67595160},{"NoteNumber":63,"Velocity":51,"Duration":86221,"SoundDuration":86221,"Delta":67681718},{"NoteNumber":51,"Velocity":43,"Duration":86221,"SoundDuration":86221,"Delta":67681718},{"NoteNumber":65,"Velocity":58,"Duration":107525,"SoundDuration":107525,"Delta":67767940},{"NoteNumber":53,"Velocity":49,"Duration":107525,"SoundDuration":107525,"Delta":67767940},{"NoteNumber":64,"Velocity":53,"Duration":107917,"SoundDuration":107917,"Delta":67853938},{"NoteNumber":52,"Velocity":45,"Duration":107917,"SoundDuration":107917,"Delta":67853938},{"NoteNumber":61,"Velocity":46,"Duration":108366,"SoundDuration":108366,"Delta":67940215},{"NoteNumber":49,"Velocity":39,"Duration":108366,"SoundDuration":108366,"Delta":67940215},{"NoteNumber":60,"Velocity":50,"Duration":108766,"SoundDuration":108766,"Delta":68026886},{"NoteNumber":48,"Velocity":40,"Duration":108766,"SoundDuration":108766,"Delta":68026886},{"NoteNumber":58,"Velocity":49,"Duration":109223,"SoundDuration":109223,"Delta":68113841},{"NoteNumber":46,"Velocity":41,"Duration":109223,"SoundDuration":109223,"Delta":68113841},{"NoteNumber":54,"Velocity":44,"Duration":87645,"SoundDuration":87645,"Delta":68201197},{"NoteNumber":42,"Velocity":37,"Duration":87645,"SoundDuration":87645,"Delta":68201197},{"NoteNumber":53,"Velocity":49,"Duration":110093,"SoundDuration":110093,"Delta":68288842},{"NoteNumber":41,"Velocity":41,"Duration":110093,"SoundDuration":110093,"Delta":68288842},{"NoteNumber":52,"Velocity":43,"Duration":110506,"SoundDuration":110506,"Delta":68376894},{"NoteNumber":40,"Velocity":36,"Duration":110506,"SoundDuration":110506,"Delta":68376894},{"NoteNumber":49,"Velocity":39,"Duration":110978,"SoundDuration":110978,"Delta":68465240},{"NoteNumber":37,"Velocity":33,"Duration":110978,"SoundDuration":110978,"Delta":68465240},{"NoteNumber":48,"Velocity":43,"Duration":111395,"SoundDuration":111395,"Delta":68553999},{"NoteNumber":36,"Velocity":36,"Duration":111395,"SoundDuration":111395,"Delta":68553999},{"NoteNumber":46,"Velocity":36,"Duration":111882,"SoundDuration":111882,"Delta":68643054},{"NoteNumber":34,"Velocity":30,"Duration":111882,"SoundDuration":111882,"Delta":68643054},{"NoteNumber":42,"Velocity":34,"Duration":89601,"SoundDuration":89601,"Delta":68732536},{"NoteNumber":30,"Velocity":30,"Duration":89601,"SoundDuration":89601,"Delta":68732536},{"NoteNumber":41,"Velocity":39,"Duration":177305,"SoundDuration":177305,"Delta":68822138},{"NoteNumber":29,"Velocity":33,"Duration":177305,"SoundDuration":177305,"Delta":68822138},{"NoteNumber":46,"Velocity":33,"Duration":110164,"SoundDuration":110164,"Delta":68911739},{"NoteNumber":34,"Velocity":28,"Duration":110164,"SoundDuration":110164,"Delta":68911739},{"NoteNumber":44,"Velocity":33,"Duration":112243,"SoundDuration":112243,"Delta":68999443},{"NoteNumber":32,"Velocity":28,"Duration":112243,"SoundDuration":112243,"Delta":68999443},{"NoteNumber":45,"Velocity":36,"Duration":176615,"SoundDuration":176615,"Delta":69089287},{"NoteNumber":33,"Velocity":29,"Duration":176615,"SoundDuration":176615,"Delta":69089287},{"NoteNumber":49,"Velocity":34,"Duration":109173,"SoundDuration":109173,"Delta":69178888},{"NoteNumber":37,"Velocity":28,"Duration":109173,"SoundDuration":109173,"Delta":69178888},{"NoteNumber":45,"Velocity":34,"Duration":88640,"SoundDuration":88640,"Delta":69265902},{"NoteNumber":33,"Velocity":28,"Duration":88640,"SoundDuration":88640,"Delta":69265902},{"NoteNumber":46,"Velocity":41,"Duration":175198,"SoundDuration":175198,"Delta":69354542},{"NoteNumber":34,"Velocity":34,"Duration":175198,"SoundDuration":175198,"Delta":69354542},{"NoteNumber":51,"Velocity":37,"Duration":108599,"SoundDuration":108599,"Delta":69443183},{"NoteNumber":39,"Velocity":31,"Duration":108599,"SoundDuration":108599,"Delta":69443183},{"NoteNumber":47,"Velocity":37,"Duration":110209,"SoundDuration":110209,"Delta":69529741},{"NoteNumber":35,"Velocity":31,"Duration":110209,"SoundDuration":110209,"Delta":69529741},{"NoteNumber":48,"Velocity":39,"Duration":174278,"SoundDuration":174278,"Delta":69617909},{"NoteNumber":36,"Velocity":36,"Duration":174278,"SoundDuration":174278,"Delta":69617909},{"NoteNumber":53,"Velocity":39,"Duration":108094,"SoundDuration":108094,"Delta":69706077},{"NoteNumber":41,"Velocity":33,"Duration":108094,"SoundDuration":108094,"Delta":69706077},{"NoteNumber":48,"Velocity":39,"Duration":87935,"SoundDuration":87935,"Delta":69792187},{"NoteNumber":36,"Velocity":33,"Duration":87935,"SoundDuration":87935,"Delta":69792187},{"NoteNumber":49,"Velocity":43,"Duration":173819,"SoundDuration":173819,"Delta":69880122},{"NoteNumber":37,"Velocity":36,"Duration":173819,"SoundDuration":173819,"Delta":69880122},{"NoteNumber":54,"Velocity":39,"Duration":107926,"SoundDuration":107926,"Delta":69968058},{"NoteNumber":42,"Velocity":33,"Duration":107926,"SoundDuration":107926,"Delta":69968058},{"NoteNumber":50,"Velocity":39,"Duration":110328,"SoundDuration":110328,"Delta":70053942},{"NoteNumber":38,"Velocity":33,"Duration":110328,"SoundDuration":110328,"Delta":70053942},{"NoteNumber":51,"Velocity":41,"Duration":174751,"SoundDuration":174751,"Delta":70142110},{"NoteNumber":39,"Velocity":34,"Duration":174751,"SoundDuration":174751,"Delta":70142110},{"NoteNumber":57,"Velocity":39,"Duration":108510,"SoundDuration":108510,"Delta":70230751},{"NoteNumber":45,"Velocity":33,"Duration":108510,"SoundDuration":108510,"Delta":70230751},{"NoteNumber":53,"Velocity":39,"Duration":89601,"SoundDuration":89601,"Delta":70316861},{"NoteNumber":41,"Velocity":33,"Duration":89601,"SoundDuration":89601,"Delta":70316861},{"NoteNumber":54,"Velocity":46,"Duration":178007,"SoundDuration":178007,"Delta":70406463},{"NoteNumber":42,"Velocity":34,"Duration":178007,"SoundDuration":178007,"Delta":70406463},{"NoteNumber":61,"Velocity":40,"Duration":110989,"SoundDuration":110989,"Delta":70496065},{"NoteNumber":49,"Velocity":34,"Duration":110989,"SoundDuration":110989,"Delta":70496065},{"NoteNumber":57,"Velocity":39,"Duration":112917,"SoundDuration":112917,"Delta":70584470},{"NoteNumber":45,"Velocity":33,"Duration":112917,"SoundDuration":112917,"Delta":70584470},{"NoteNumber":60,"Velocity":40,"Duration":178502,"SoundDuration":178502,"Delta":70674805},{"NoteNumber":48,"Velocity":34,"Duration":178502,"SoundDuration":178502,"Delta":70674805},{"NoteNumber":66,"Velocity":42,"Duration":110812,"SoundDuration":110812,"Delta":70765139},{"NoteNumber":54,"Velocity":35,"Duration":110812,"SoundDuration":110812,"Delta":70765139},{"NoteNumber":65,"Velocity":40,"Duration":90579,"SoundDuration":90579,"Delta":70853307},{"NoteNumber":53,"Velocity":34,"Duration":90579,"SoundDuration":90579,"Delta":70853307},{"NoteNumber":57,"Velocity":45,"Duration":178283,"SoundDuration":178283,"Delta":70943887},{"NoteNumber":45,"Velocity":38,"Duration":178283,"SoundDuration":178283,"Delta":70943887},{"NoteNumber":61,"Velocity":39,"Duration":110164,"SoundDuration":110164,"Delta":71034466},{"NoteNumber":49,"Velocity":33,"Duration":110164,"SoundDuration":110164,"Delta":71034466},{"NoteNumber":57,"Velocity":41,"Duration":112243,"SoundDuration":112243,"Delta":71122170},{"NoteNumber":45,"Velocity":34,"Duration":112243,"SoundDuration":112243,"Delta":71122170},{"NoteNumber":60,"Velocity":42,"Duration":177305,"SoundDuration":177305,"Delta":71212014},{"NoteNumber":48,"Velocity":36,"Duration":177305,"SoundDuration":177305,"Delta":71212014},{"NoteNumber":66,"Velocity":43,"Duration":110287,"SoundDuration":110287,"Delta":71301615},{"NoteNumber":54,"Velocity":36,"Duration":110287,"SoundDuration":110287,"Delta":71301615},{"NoteNumber":65,"Velocity":43,"Duration":90334,"SoundDuration":90334,"Delta":71389319},{"NoteNumber":53,"Velocity":36,"Duration":90334,"SoundDuration":90334,"Delta":71389319},{"NoteNumber":57,"Velocity":45,"Duration":178502,"SoundDuration":178502,"Delta":71479654},{"NoteNumber":45,"Velocity":38,"Duration":178502,"SoundDuration":178502,"Delta":71479654},{"NoteNumber":61,"Velocity":39,"Duration":110751,"SoundDuration":110751,"Delta":71569988},{"NoteNumber":49,"Velocity":33,"Duration":110751,"SoundDuration":110751,"Delta":71569988},{"NoteNumber":57,"Velocity":41,"Duration":112917,"SoundDuration":112917,"Delta":71658156},{"NoteNumber":45,"Velocity":34,"Duration":112917,"SoundDuration":112917,"Delta":71658156},{"NoteNumber":60,"Velocity":43,"Duration":177575,"SoundDuration":177575,"Delta":71748490},{"NoteNumber":48,"Velocity":34,"Duration":177575,"SoundDuration":177575,"Delta":71748490},{"NoteNumber":66,"Velocity":43,"Duration":110327,"SoundDuration":110327,"Delta":71838825},{"NoteNumber":54,"Velocity":36,"Duration":110327,"SoundDuration":110327,"Delta":71838825},{"NoteNumber":65,"Velocity":43,"Duration":92344,"SoundDuration":92344,"Delta":71926066},{"NoteNumber":53,"Velocity":36,"Duration":92344,"SoundDuration":92344,"Delta":71926066},{"NoteNumber":60,"Velocity":47,"Duration":182924,"SoundDuration":182924,"Delta":72018410},{"NoteNumber":48,"Velocity":39,"Duration":182924,"SoundDuration":182924,"Delta":72018410},{"NoteNumber":66,"Velocity":43,"Duration":113475,"SoundDuration":113475,"Delta":72110755},{"NoteNumber":54,"Velocity":36,"Duration":113475,"SoundDuration":113475,"Delta":72110755},{"NoteNumber":65,"Velocity":40,"Duration":114479,"SoundDuration":114479,"Delta":72201335},{"NoteNumber":53,"Velocity":34,"Duration":114479,"SoundDuration":114479,"Delta":72201335},{"NoteNumber":60,"Velocity":41,"Duration":182163,"SoundDuration":182163,"Delta":72292918},{"NoteNumber":48,"Velocity":34,"Duration":182163,"SoundDuration":182163,"Delta":72292918},{"NoteNumber":66,"Velocity":43,"Duration":113411,"SoundDuration":113411,"Delta":72384501},{"NoteNumber":54,"Velocity":36,"Duration":113411,"SoundDuration":113411,"Delta":72384501},{"NoteNumber":65,"Velocity":40,"Duration":91328,"SoundDuration":91328,"Delta":72475081},{"NoteNumber":53,"Velocity":34,"Duration":91328,"SoundDuration":91328,"Delta":72475081},{"NoteNumber":60,"Velocity":45,"Duration":181907,"SoundDuration":181907,"Delta":72566409},{"NoteNumber":48,"Velocity":38,"Duration":181907,"SoundDuration":181907,"Delta":72566409},{"NoteNumber":66,"Velocity":43,"Duration":113411,"SoundDuration":113411,"Delta":72657738},{"NoteNumber":54,"Velocity":36,"Duration":113411,"SoundDuration":113411,"Delta":72657738},{"NoteNumber":65,"Velocity":40,"Duration":114160,"SoundDuration":114160,"Delta":72748317},{"NoteNumber":53,"Velocity":34,"Duration":114160,"SoundDuration":114160,"Delta":72748317},{"NoteNumber":58,"Velocity":44,"Duration":180442,"SoundDuration":180442,"Delta":72839646},{"NoteNumber":46,"Velocity":37,"Duration":180442,"SoundDuration":180442,"Delta":72839646},{"NoteNumber":66,"Velocity":43,"Duration":111515,"SoundDuration":111515,"Delta":72930974},{"NoteNumber":54,"Velocity":36,"Duration":111515,"SoundDuration":111515,"Delta":72930974},{"NoteNumber":65,"Velocity":43,"Duration":89541,"SoundDuration":89541,"Delta":73020089},{"NoteNumber":53,"Velocity":36,"Duration":89541,"SoundDuration":89541,"Delta":73020089},{"NoteNumber":61,"Velocity":45,"Duration":178115,"SoundDuration":178115,"Delta":73109630},{"NoteNumber":49,"Velocity":38,"Duration":178115,"SoundDuration":178115,"Delta":73109630},{"NoteNumber":53,"Velocity":36,"Duration":111037,"SoundDuration":111037,"Delta":73198868},{"NoteNumber":41,"Velocity":30,"Duration":111037,"SoundDuration":111037,"Delta":73198868},{"NoteNumber":63,"Velocity":39,"Duration":110624,"SoundDuration":110624,"Delta":73287746},{"NoteNumber":51,"Velocity":33,"Duration":110624,"SoundDuration":110624,"Delta":73287746},{"NoteNumber":65,"Velocity":39,"Duration":110213,"SoundDuration":110213,"Delta":73376269},{"NoteNumber":53,"Velocity":34,"Duration":110213,"SoundDuration":110213,"Delta":73376269},{"NoteNumber":63,"Velocity":40,"Duration":111458,"SoundDuration":111458,"Delta":73464322},{"NoteNumber":51,"Velocity":34,"Duration":111458,"SoundDuration":111458,"Delta":73464322},{"NoteNumber":61,"Velocity":40,"Duration":89601,"SoundDuration":89601,"Delta":73553381},{"NoteNumber":49,"Velocity":34,"Duration":89601,"SoundDuration":89601,"Delta":73553381},{"NoteNumber":58,"Velocity":44,"Duration":111941,"SoundDuration":111941,"Delta":73642982},{"NoteNumber":46,"Velocity":37,"Duration":111941,"SoundDuration":111941,"Delta":73642982},{"NoteNumber":53,"Velocity":39,"Duration":111038,"SoundDuration":111038,"Delta":73732645},{"NoteNumber":41,"Velocity":33,"Duration":111038,"SoundDuration":111038,"Delta":73732645},{"NoteNumber":60,"Velocity":39,"Duration":110154,"SoundDuration":110154,"Delta":73821582},{"NoteNumber":48,"Velocity":33,"Duration":110154,"SoundDuration":110154,"Delta":73821582},{"NoteNumber":61,"Velocity":40,"Duration":109804,"SoundDuration":109804,"Delta":73909810},{"NoteNumber":49,"Velocity":34,"Duration":109804,"SoundDuration":109804,"Delta":73909810},{"NoteNumber":60,"Velocity":39,"Duration":111221,"SoundDuration":111221,"Delta":73997514},{"NoteNumber":48,"Velocity":33,"Duration":111221,"SoundDuration":111221,"Delta":73997514},{"NoteNumber":58,"Velocity":40,"Duration":89601,"SoundDuration":89601,"Delta":74086335},{"NoteNumber":46,"Velocity":34,"Duration":89601,"SoundDuration":89601,"Delta":74086335},{"NoteNumber":61,"Velocity":45,"Duration":112494,"SoundDuration":112494,"Delta":74175937},{"NoteNumber":49,"Velocity":38,"Duration":112494,"SoundDuration":112494,"Delta":74175937},{"NoteNumber":53,"Velocity":39,"Duration":107942,"SoundDuration":107942,"Delta":74267015},{"NoteNumber":41,"Velocity":33,"Duration":107942,"SoundDuration":107942,"Delta":74267015},{"NoteNumber":63,"Velocity":39,"Duration":111515,"SoundDuration":111515,"Delta":74352679},{"NoteNumber":51,"Velocity":33,"Duration":111515,"SoundDuration":111515,"Delta":74352679},{"NoteNumber":65,"Velocity":41,"Duration":111527,"SoundDuration":111527,"Delta":74441794},{"NoteNumber":53,"Velocity":34,"Duration":111527,"SoundDuration":111527,"Delta":74441794},{"NoteNumber":63,"Velocity":40,"Duration":110104,"SoundDuration":110104,"Delta":74531396},{"NoteNumber":51,"Velocity":34,"Duration":110104,"SoundDuration":110104,"Delta":74531396},{"NoteNumber":61,"Velocity":40,"Duration":89601,"SoundDuration":89601,"Delta":74619100},{"NoteNumber":49,"Velocity":34,"Duration":89601,"SoundDuration":89601,"Delta":74619100},{"NoteNumber":58,"Velocity":44,"Duration":111072,"SoundDuration":111072,"Delta":74708701},{"NoteNumber":46,"Velocity":37,"Duration":111072,"SoundDuration":111072,"Delta":74708701},{"NoteNumber":53,"Velocity":39,"Duration":108225,"SoundDuration":108225,"Delta":74798303},{"NoteNumber":41,"Velocity":33,"Duration":108225,"SoundDuration":108225,"Delta":74798303},{"NoteNumber":60,"Velocity":39,"Duration":111702,"SoundDuration":111702,"Delta":74884188},{"NoteNumber":48,"Velocity":33,"Duration":111702,"SoundDuration":111702,"Delta":74884188},{"NoteNumber":61,"Velocity":40,"Duration":111171,"SoundDuration":111171,"Delta":74973549},{"NoteNumber":49,"Velocity":37,"Duration":111171,"SoundDuration":111171,"Delta":74973549},{"NoteNumber":60,"Velocity":40,"Duration":109641,"SoundDuration":109641,"Delta":75062911},{"NoteNumber":48,"Velocity":34,"Duration":109641,"SoundDuration":109641,"Delta":75062911},{"NoteNumber":58,"Velocity":40,"Duration":89601,"SoundDuration":89601,"Delta":75150152},{"NoteNumber":46,"Velocity":34,"Duration":89601,"SoundDuration":89601,"Delta":75150152},{"NoteNumber":51,"Velocity":44,"Duration":111129,"SoundDuration":111129,"Delta":75239754},{"NoteNumber":39,"Velocity":37,"Duration":111129,"SoundDuration":111129,"Delta":75239754},{"NoteNumber":53,"Velocity":39,"Duration":108571,"SoundDuration":108571,"Delta":75329355},{"NoteNumber":41,"Velocity":33,"Duration":108571,"SoundDuration":108571,"Delta":75329355},{"NoteNumber":58,"Velocity":34,"Duration":112243,"SoundDuration":112243,"Delta":75415466},{"NoteNumber":46,"Velocity":28,"Duration":112243,"SoundDuration":112243,"Delta":75415466},{"NoteNumber":61,"Velocity":37,"Duration":111527,"SoundDuration":111527,"Delta":75505309},{"NoteNumber":49,"Velocity":29,"Duration":86241,"SoundDuration":86241,"Delta":75505309},{"NoteNumber":49,"Velocity":35,"Duration":110104,"SoundDuration":110104,"Delta":75594911},{"NoteNumber":37,"Velocity":29,"Duration":110104,"SoundDuration":110104,"Delta":75594911},{"NoteNumber":53,"Velocity":35,"Duration":89601,"SoundDuration":89601,"Delta":75682615},{"NoteNumber":41,"Velocity":29,"Duration":89601,"SoundDuration":89601,"Delta":75682615},{"NoteNumber":51,"Velocity":44,"Duration":111184,"SoundDuration":111184,"Delta":75772216},{"NoteNumber":39,"Velocity":37,"Duration":111184,"SoundDuration":111184,"Delta":75772216},{"NoteNumber":53,"Velocity":39,"Duration":108673,"SoundDuration":108673,"Delta":75861818},{"NoteNumber":41,"Velocity":33,"Duration":108673,"SoundDuration":108673,"Delta":75861818},{"NoteNumber":58,"Velocity":34,"Duration":111702,"SoundDuration":111702,"Delta":75948151},{"NoteNumber":46,"Velocity":28,"Duration":111702,"SoundDuration":111702,"Delta":75948151},{"NoteNumber":61,"Velocity":36,"Duration":111171,"SoundDuration":111171,"Delta":76037513},{"NoteNumber":49,"Velocity":30,"Duration":87127,"SoundDuration":87127,"Delta":76037513},{"NoteNumber":49,"Velocity":35,"Duration":109641,"SoundDuration":109641,"Delta":76126875},{"NoteNumber":37,"Velocity":29,"Duration":109641,"SoundDuration":109641,"Delta":76126875},{"NoteNumber":53,"Velocity":35,"Duration":89601,"SoundDuration":89601,"Delta":76214116},{"NoteNumber":41,"Velocity":29,"Duration":89601,"SoundDuration":89601,"Delta":76214116},{"NoteNumber":48,"Velocity":44,"Duration":111184,"SoundDuration":111184,"Delta":76303717},{"NoteNumber":36,"Velocity":37,"Duration":111184,"SoundDuration":111184,"Delta":76303717},{"NoteNumber":49,"Velocity":39,"Duration":108794,"SoundDuration":108794,"Delta":76393319},{"NoteNumber":37,"Velocity":33,"Duration":108794,"SoundDuration":108794,"Delta":76393319},{"NoteNumber":53,"Velocity":34,"Duration":112243,"SoundDuration":112243,"Delta":76479652},{"NoteNumber":41,"Velocity":28,"Duration":112243,"SoundDuration":112243,"Delta":76479652},{"NoteNumber":58,"Velocity":36,"Duration":111527,"SoundDuration":111527,"Delta":76569496},{"NoteNumber":46,"Velocity":30,"Duration":89601,"SoundDuration":89601,"Delta":76569496},{"NoteNumber":46,"Velocity":35,"Duration":110104,"SoundDuration":110104,"Delta":76659097},{"NoteNumber":34,"Velocity":29,"Duration":110104,"SoundDuration":110104,"Delta":76659097},{"NoteNumber":49,"Velocity":35,"Duration":89601,"SoundDuration":89601,"Delta":76746801},{"NoteNumber":37,"Velocity":29,"Duration":89601,"SoundDuration":89601,"Delta":76746801},{"NoteNumber":48,"Velocity":44,"Duration":111072,"SoundDuration":111072,"Delta":76836403},{"NoteNumber":36,"Velocity":37,"Duration":111072,"SoundDuration":111072,"Delta":76836403},{"NoteNumber":49,"Velocity":39,"Duration":108225,"SoundDuration":108225,"Delta":76926005},{"NoteNumber":37,"Velocity":33,"Duration":108225,"SoundDuration":108225,"Delta":76926005},{"NoteNumber":53,"Velocity":34,"Duration":111702,"SoundDuration":111702,"Delta":77011889},{"NoteNumber":41,"Velocity":28,"Duration":111702,"SoundDuration":111702,"Delta":77011889},{"NoteNumber":58,"Velocity":36,"Duration":111171,"SoundDuration":111171,"Delta":77101251},{"NoteNumber":46,"Velocity":30,"Duration":89361,"SoundDuration":89361,"Delta":77101251},{"NoteNumber":46,"Velocity":35,"Duration":109641,"SoundDuration":109641,"Delta":77190613},{"NoteNumber":34,"Velocity":29,"Duration":109641,"SoundDuration":109641,"Delta":77190613},{"NoteNumber":49,"Velocity":35,"Duration":89601,"SoundDuration":89601,"Delta":77277854},{"NoteNumber":37,"Velocity":29,"Duration":89601,"SoundDuration":89601,"Delta":77277854},{"NoteNumber":48,"Velocity":44,"Duration":111072,"SoundDuration":111072,"Delta":77901512},{"NoteNumber":36,"Velocity":37,"Duration":111072,"SoundDuration":111072,"Delta":77901512},{"NoteNumber":49,"Velocity":39,"Duration":108225,"SoundDuration":108225,"Delta":77991113},{"NoteNumber":37,"Velocity":33,"Duration":108225,"SoundDuration":108225,"Delta":77991113},{"NoteNumber":53,"Velocity":34,"Duration":111702,"SoundDuration":111702,"Delta":78076998},{"NoteNumber":41,"Velocity":28,"Duration":111702,"SoundDuration":111702,"Delta":78076998},{"NoteNumber":58,"Velocity":35,"Duration":111171,"SoundDuration":111171,"Delta":78166360},{"NoteNumber":46,"Velocity":29,"Duration":86010,"SoundDuration":86010,"Delta":78166360},{"NoteNumber":46,"Velocity":35,"Duration":109641,"SoundDuration":109641,"Delta":78255721},{"NoteNumber":34,"Velocity":29,"Duration":109641,"SoundDuration":109641,"Delta":78255721},{"NoteNumber":49,"Velocity":35,"Duration":89601,"SoundDuration":89601,"Delta":78342962},{"NoteNumber":37,"Velocity":29,"Duration":89601,"SoundDuration":89601,"Delta":78342962},{"NoteNumber":48,"Velocity":57,"Duration":111129,"SoundDuration":111129,"Delta":78970174},{"NoteNumber":36,"Velocity":48,"Duration":111129,"SoundDuration":111129,"Delta":78970174},{"NoteNumber":49,"Velocity":51,"Duration":108571,"SoundDuration":108571,"Delta":79059776},{"NoteNumber":37,"Velocity":43,"Duration":108571,"SoundDuration":108571,"Delta":79059776},{"NoteNumber":53,"Velocity":46,"Duration":112304,"SoundDuration":112304,"Delta":79145886},{"NoteNumber":41,"Velocity":39,"Duration":112304,"SoundDuration":112304,"Delta":79145886},{"NoteNumber":58,"Velocity":47,"Duration":111885,"SoundDuration":111885,"Delta":79235729},{"NoteNumber":46,"Velocity":40,"Duration":87035,"SoundDuration":87035,"Delta":79235729},{"NoteNumber":46,"Velocity":48,"Duration":111780,"SoundDuration":111780,"Delta":79325573},{"NoteNumber":34,"Velocity":40,"Duration":111780,"SoundDuration":111780,"Delta":79325573},{"NoteNumber":49,"Velocity":49,"Duration":94451,"SoundDuration":94451,"Delta":79413741},{"NoteNumber":37,"Velocity":41,"Duration":94451,"SoundDuration":94451,"Delta":79413741},{"NoteNumber":46,"Velocity":100,"Duration":283352,"SoundDuration":283352,"Delta":79508192},{"NoteNumber":34,"Velocity":78,"Duration":283352,"SoundDuration":283352,"Delta":79508192},{"NoteNumber":94,"Velocity":99,"Duration":566705,"SoundDuration":566705,"Delta":80074898},{"NoteNumber":82,"Velocity":83,"Duration":566705,"SoundDuration":566705,"Delta":80074898},{"NoteNumber":53,"Velocity":66,"Duration":566705,"SoundDuration":566705,"Delta":80074898},{"NoteNumber":65,"Velocity":79,"Duration":566705,"SoundDuration":566705,"Delta":80074898},{"NoteNumber":61,"Velocity":66,"Duration":566705,"SoundDuration":566705,"Delta":80074898},{"NoteNumber":58,"Velocity":66,"Duration":566705,"SoundDuration":566705,"Delta":80074898}],"license":{"name":"Creative Commons Attribution-ShareAlike 3.0 Germany","url":"http://creativecommons.org/licenses/by-sa/3.0/de/deed.en","text":"The MIDI, audio (MP3, OGG) and video files of Bernd Krueger are licensed under the cc-by-sa Germany License. This means that you can use and adapt the files, as long as you attribute the copyright holder.\n\nName: Bernd Krueger\nSource: http://www.piano-midi.de\n\nThe distribution or public playback of the files is only allowed under identical license conditions.\n\nThe scores are open source.","attribution":"MIDI files by Bernd Krueger (piano-midi.de)"}}