{"title":"Sturmetüde","artist":"Chopin","durationMs":186977,"midiSha256":"a078dec84990199e91faddece6b21661ed0c9b358923a0648775ad9ec7560d97","midiObject":[{"NoteNumber":64,"Velocity":60,"Duration":813449,"SoundDuration":813449,"Delta":0},{"NoteNumber":64,"Velocity":60,"Duration":610086,"SoundDuration":610086,"Delta":813449},{"NoteNumber":64,"Velocity":57,"Duration":203362,"SoundDuration":203362,"Delta":1423535},{"NoteNumber":64,"Velocity":60,"Duration":813449,"SoundDuration":813449,"Delta":1626898},{"NoteNumber":65,"Velocity":58,"Duration":813448,"SoundDuration":813448,"Delta":2440347},{"NoteNumber":64,"Velocity":60,"Duration":813448,"SoundDuration":813448,"Delta":3253796},{"NoteNumber":60,"Velocity":58,"Duration":813449,"SoundDuration":813449,"Delta":4067245},{"NoteNumber":64,"Velocity":60,"Duration":1682086,"SoundDuration":1682086,"Delta":4880694},{"NoteNumber":64,"Velocity":38,"Duration":813889,"SoundDuration":813889,"Delta":6562780},{"NoteNumber":55,"Velocity":28,"Duration":813889,"SoundDuration":813889,"Delta":6562780},{"NoteNumber":60,"Velocity":28,"Duration":813889,"SoundDuration":813889,"Delta":6562780},{"NoteNumber":48,"Velocity":24,"Duration":813889,"SoundDuration":813889,"Delta":6562780},{"NoteNumber":64,"Velocity":38,"Duration":610417,"SoundDuration":610417,"Delta":7376670},{"NoteNumber":55,"Velocity":28,"Duration":610417,"SoundDuration":610417,"Delta":7376670},{"NoteNumber":60,"Velocity":28,"Duration":610417,"SoundDuration":610417,"Delta":7376670},{"NoteNumber":48,"Velocity":24,"Duration":610417,"SoundDuration":610417,"Delta":7376670},{"NoteNumber":55,"Velocity":26,"Duration":203472,"SoundDuration":203472,"Delta":7987087},{"NoteNumber":64,"Velocity":36,"Duration":203472,"SoundDuration":203472,"Delta":7987087},{"NoteNumber":60,"Velocity":26,"Duration":203472,"SoundDuration":203472,"Delta":7987087},{"NoteNumber":48,"Velocity":22,"Duration":203472,"SoundDuration":203472,"Delta":7987087},{"NoteNumber":60,"Velocity":28,"Duration":813890,"SoundDuration":813890,"Delta":8190560},{"NoteNumber":55,"Velocity":28,"Duration":813890,"SoundDuration":813890,"Delta":8190560},{"NoteNumber":64,"Velocity":38,"Duration":813890,"SoundDuration":813890,"Delta":8190560},{"NoteNumber":48,"Velocity":25,"Duration":813890,"SoundDuration":813890,"Delta":8190560},{"NoteNumber":65,"Velocity":36,"Duration":838808,"SoundDuration":838808,"Delta":9004450},{"NoteNumber":57,"Velocity":26,"Duration":838808,"SoundDuration":838808,"Delta":9004450},{"NoteNumber":60,"Velocity":26,"Duration":838808,"SoundDuration":838808,"Delta":9004450},{"NoteNumber":41,"Velocity":24,"Duration":838808,"SoundDuration":838808,"Delta":9004450},{"NoteNumber":60,"Velocity":26,"Duration":914215,"SoundDuration":914215,"Delta":9843259},{"NoteNumber":55,"Velocity":26,"Duration":914215,"SoundDuration":914215,"Delta":9843259},{"NoteNumber":64,"Velocity":36,"Duration":914215,"SoundDuration":914215,"Delta":9843259},{"NoteNumber":36,"Velocity":24,"Duration":914215,"SoundDuration":914215,"Delta":9843259},{"NoteNumber":57,"Velocity":25,"Duration":986031,"SoundDuration":986031,"Delta":10757475},{"NoteNumber":60,"Velocity":34,"Duration":986031,"SoundDuration":986031,"Delta":10757475},{"NoteNumber":41,"Velocity":22,"Duration":986031,"SoundDuration":986031,"Delta":10757475},{"NoteNumber":60,"Velocity":22,"Duration":1233299,"SoundDuration":1233299,"Delta":11743506},{"NoteNumber":64,"Velocity":31,"Duration":2570197,"SoundDuration":2570197,"Delta":11743506},{"NoteNumber":55,"Velocity":22,"Duration":1233299,"SoundDuration":1233299,"Delta":11743506},{"NoteNumber":36,"Velocity":20,"Duration":1233299,"SoundDuration":1233299,"Delta":11743506},{"NoteNumber":62,"Velocity":19,"Duration":1336897,"SoundDuration":1336897,"Delta":12976805},{"NoteNumber":56,"Velocity":19,"Duration":1336897,"SoundDuration":1336897,"Delta":12976805},{"NoteNumber":35,"Velocity":18,"Duration":1336897,"SoundDuration":1336897,"Delta":12976805},{"NoteNumber":101,"Velocity":96,"Duration":84009,"SoundDuration":84009,"Delta":14308132},{"NoteNumber":33,"Velocity":112,"Duration":241351,"SoundDuration":241351,"Delta":14313703},{"NoteNumber":96,"Velocity":71,"Duration":80450,"SoundDuration":80450,"Delta":14395159},{"NoteNumber":100,"Velocity":91,"Duration":80450,"SoundDuration":80450,"Delta":14473598},{"NoteNumber":93,"Velocity":71,"Duration":80450,"SoundDuration":80450,"Delta":14557065},{"NoteNumber":99,"Velocity":84,"Duration":80450,"SoundDuration":80450,"Delta":14636510},{"NoteNumber":96,"Velocity":71,"Duration":80450,"SoundDuration":80450,"Delta":14715955},{"NoteNumber":98,"Velocity":82,"Duration":77489,"SoundDuration":77489,"Delta":14796406},{"NoteNumber":64,"Velocity":88,"Duration":348701,"SoundDuration":348701,"Delta":14796406},{"NoteNumber":60,"Velocity":74,"Duration":348701,"SoundDuration":348701,"Delta":14796406},{"NoteNumber":57,"Velocity":74,"Duration":348701,"SoundDuration":348701,"Delta":14796406},{"NoteNumber":93,"Velocity":69,"Duration":77489,"SoundDuration":77489,"Delta":14876801},{"NoteNumber":97,"Velocity":79,"Duration":77489,"SoundDuration":77489,"Delta":14953321},{"NoteNumber":93,"Velocity":69,"Duration":77489,"SoundDuration":77489,"Delta":15030811},{"NoteNumber":96,"Velocity":79,"Duration":77489,"SoundDuration":77489,"Delta":15105394},{"NoteNumber":57,"Velocity":70,"Duration":116234,"SoundDuration":116234,"Delta":15145108},{"NoteNumber":60,"Velocity":70,"Duration":116234,"SoundDuration":116234,"Delta":15145108},{"NoteNumber":64,"Velocity":82,"Duration":116234,"SoundDuration":116234,"Delta":15145108},{"NoteNumber":88,"Velocity":69,"Duration":77521,"SoundDuration":77521,"Delta":15186758},{"NoteNumber":64,"Velocity":88,"Duration":470145,"SoundDuration":470145,"Delta":15261342},{"NoteNumber":60,"Velocity":74,"Duration":470145,"SoundDuration":470145,"Delta":15261342},{"NoteNumber":57,"Velocity":74,"Duration":470145,"SoundDuration":470145,"Delta":15261342},{"NoteNumber":95,"Velocity":78,"Duration":78357,"SoundDuration":78357,"Delta":15263300},{"NoteNumber":88,"Velocity":71,"Duration":78357,"SoundDuration":78357,"Delta":15340679},{"NoteNumber":94,"Velocity":78,"Duration":78357,"SoundDuration":78357,"Delta":15417077},{"NoteNumber":84,"Velocity":71,"Duration":78357,"SoundDuration":78357,"Delta":15494456},{"NoteNumber":93,"Velocity":78,"Duration":78357,"SoundDuration":78357,"Delta":15572813},{"NoteNumber":88,"Velocity":71,"Duration":78357,"SoundDuration":78357,"Delta":15653130},{"NoteNumber":92,"Velocity":78,"Duration":76154,"SoundDuration":76154,"Delta":15729529},{"NoteNumber":57,"Velocity":77,"Duration":456585,"SoundDuration":456585,"Delta":15731488},{"NoteNumber":60,"Velocity":77,"Duration":456585,"SoundDuration":456585,"Delta":15731488},{"NoteNumber":65,"Velocity":92,"Duration":456585,"SoundDuration":456585,"Delta":15731488},{"NoteNumber":84,"Velocity":69,"Duration":76097,"SoundDuration":76097,"Delta":15805683},{"NoteNumber":91,"Velocity":71,"Duration":76097,"SoundDuration":76097,"Delta":15886536},{"NoteNumber":84,"Velocity":69,"Duration":76097,"SoundDuration":76097,"Delta":15959781},{"NoteNumber":90,"Velocity":71,"Duration":76097,"SoundDuration":76097,"Delta":16033976},{"NoteNumber":81,"Velocity":69,"Duration":76097,"SoundDuration":76097,"Delta":16110073},{"NoteNumber":89,"Velocity":78,"Duration":78583,"SoundDuration":78583,"Delta":16186171},{"NoteNumber":57,"Velocity":74,"Duration":471883,"SoundDuration":471883,"Delta":16188074},{"NoteNumber":60,"Velocity":74,"Duration":471883,"SoundDuration":471883,"Delta":16188074},{"NoteNumber":64,"Velocity":88,"Duration":471883,"SoundDuration":471883,"Delta":16188074},{"NoteNumber":84,"Velocity":71,"Duration":78647,"SoundDuration":78647,"Delta":16266721},{"NoteNumber":88,"Velocity":78,"Duration":78647,"SoundDuration":78647,"Delta":16346351},{"NoteNumber":81,"Velocity":71,"Duration":78647,"SoundDuration":78647,"Delta":16424999},{"NoteNumber":87,"Velocity":78,"Duration":78647,"SoundDuration":78647,"Delta":16503646},{"NoteNumber":84,"Velocity":71,"Duration":78701,"SoundDuration":78701,"Delta":16582293},{"NoteNumber":86,"Velocity":78,"Duration":82858,"SoundDuration":82858,"Delta":16657991},{"NoteNumber":52,"Velocity":70,"Duration":497800,"SoundDuration":497800,"Delta":16659958},{"NoteNumber":57,"Velocity":70,"Duration":497800,"SoundDuration":497800,"Delta":16659958},{"NoteNumber":60,"Velocity":82,"Duration":497800,"SoundDuration":497800,"Delta":16659958},{"NoteNumber":81,"Velocity":69,"Duration":82966,"SoundDuration":82966,"Delta":16743961},{"NoteNumber":85,"Velocity":71,"Duration":82966,"SoundDuration":82966,"Delta":16825891},{"NoteNumber":81,"Velocity":69,"Duration":82966,"SoundDuration":82966,"Delta":16908858},{"NoteNumber":84,"Velocity":71,"Duration":82966,"SoundDuration":82966,"Delta":16989751},{"NoteNumber":76,"Velocity":69,"Duration":82887,"SoundDuration":82887,"Delta":17075829},{"NoteNumber":57,"Velocity":70,"Duration":919892,"SoundDuration":919892,"Delta":17157759},{"NoteNumber":60,"Velocity":70,"Duration":919892,"SoundDuration":919892,"Delta":17157759},{"NoteNumber":64,"Velocity":82,"Duration":919892,"SoundDuration":919892,"Delta":17157759},{"NoteNumber":83,"Velocity":71,"Duration":76657,"SoundDuration":76657,"Delta":17159675},{"NoteNumber":76,"Velocity":69,"Duration":76657,"SoundDuration":76657,"Delta":17236333},{"NoteNumber":82,"Velocity":71,"Duration":76657,"SoundDuration":76657,"Delta":17312032},{"NoteNumber":72,"Velocity":69,"Duration":76657,"SoundDuration":76657,"Delta":17386773},{"NoteNumber":81,"Velocity":71,"Duration":76657,"SoundDuration":76657,"Delta":17467264},{"NoteNumber":76,"Velocity":69,"Duration":76657,"SoundDuration":76657,"Delta":17542963},{"NoteNumber":80,"Velocity":71,"Duration":76657,"SoundDuration":76657,"Delta":17620579},{"NoteNumber":72,"Velocity":69,"Duration":76657,"SoundDuration":76657,"Delta":17697237},{"NoteNumber":79,"Velocity":71,"Duration":76657,"SoundDuration":76657,"Delta":17771978},{"NoteNumber":72,"Velocity":69,"Duration":76657,"SoundDuration":76657,"Delta":17845761},{"NoteNumber":78,"Velocity":71,"Duration":76657,"SoundDuration":76657,"Delta":17924335},{"NoteNumber":69,"Velocity":69,"Duration":76657,"SoundDuration":76657,"Delta":18000035},{"NoteNumber":33,"Velocity":99,"Duration":236836,"SoundDuration":236836,"Delta":18077651},{"NoteNumber":77,"Velocity":56,"Duration":78945,"SoundDuration":78945,"Delta":18080611},{"NoteNumber":72,"Velocity":51,"Duration":78945,"SoundDuration":78945,"Delta":18155609},{"NoteNumber":76,"Velocity":56,"Duration":78945,"SoundDuration":78945,"Delta":18237515},{"NoteNumber":69,"Velocity":56,"Duration":78945,"SoundDuration":78945,"Delta":18317447},{"NoteNumber":75,"Velocity":56,"Duration":78945,"SoundDuration":78945,"Delta":18396392},{"NoteNumber":72,"Velocity":51,"Duration":78890,"SoundDuration":78890,"Delta":18475338},{"NoteNumber":45,"Velocity":58,"Duration":348701,"SoundDuration":348701,"Delta":18551323},{"NoteNumber":52,"Velocity":69,"Duration":348701,"SoundDuration":348701,"Delta":18551323},{"NoteNumber":74,"Velocity":56,"Duration":77489,"SoundDuration":77489,"Delta":18552291},{"NoteNumber":69,"Velocity":51,"Duration":77489,"SoundDuration":77489,"Delta":18628812},{"NoteNumber":73,"Velocity":56,"Duration":77489,"SoundDuration":77489,"Delta":18705333},{"NoteNumber":69,"Velocity":51,"Duration":77489,"SoundDuration":77489,"Delta":18782822},{"NoteNumber":72,"Velocity":56,"Duration":77489,"SoundDuration":77489,"Delta":18864186},{"NoteNumber":45,"Velocity":50,"Duration":116234,"SoundDuration":116234,"Delta":18900025},{"NoteNumber":52,"Velocity":61,"Duration":116234,"SoundDuration":116234,"Delta":18900025},{"NoteNumber":64,"Velocity":51,"Duration":77489,"SoundDuration":77489,"Delta":18936832},{"NoteNumber":71,"Velocity":56,"Duration":78945,"SoundDuration":78945,"Delta":19016259},{"NoteNumber":45,"Velocity":60,"Duration":473672,"SoundDuration":473672,"Delta":19016259},{"NoteNumber":52,"Velocity":70,"Duration":473672,"SoundDuration":473672,"Delta":19016259},{"NoteNumber":64,"Velocity":50,"Duration":78945,"SoundDuration":78945,"Delta":19093230},{"NoteNumber":70,"Velocity":55,"Duration":78945,"SoundDuration":78945,"Delta":19176123},{"NoteNumber":60,"Velocity":49,"Duration":78945,"SoundDuration":78945,"Delta":19251121},{"NoteNumber":69,"Velocity":53,"Duration":78945,"SoundDuration":78945,"Delta":19330066},{"NoteNumber":64,"Velocity":47,"Duration":78828,"SoundDuration":78828,"Delta":19413946},{"NoteNumber":68,"Velocity":50,"Duration":75876,"SoundDuration":75876,"Delta":19488944},{"NoteNumber":45,"Velocity":52,"Duration":455027,"SoundDuration":455027,"Delta":19489931},{"NoteNumber":53,"Velocity":62,"Duration":455027,"SoundDuration":455027,"Delta":19489931},{"NoteNumber":60,"Velocity":46,"Duration":75838,"SoundDuration":75838,"Delta":19564821},{"NoteNumber":67,"Velocity":49,"Duration":75837,"SoundDuration":75837,"Delta":19642554},{"NoteNumber":60,"Velocity":46,"Duration":75837,"SoundDuration":75837,"Delta":19719340},{"NoteNumber":66,"Velocity":47,"Duration":75838,"SoundDuration":75838,"Delta":19796126},{"NoteNumber":57,"Velocity":45,"Duration":75908,"SoundDuration":75908,"Delta":19871016},{"NoteNumber":65,"Velocity":47,"Duration":78647,"SoundDuration":78647,"Delta":19944959},{"NoteNumber":45,"Velocity":55,"Duration":471883,"SoundDuration":471883,"Delta":19944959},{"NoteNumber":52,"Velocity":63,"Duration":471883,"SoundDuration":471883,"Delta":19944959},{"NoteNumber":60,"Velocity":45,"Duration":78647,"SoundDuration":78647,"Delta":20022623},{"NoteNumber":64,"Velocity":47,"Duration":78647,"SoundDuration":78647,"Delta":20104219},{"NoteNumber":57,"Velocity":45,"Duration":78647,"SoundDuration":78647,"Delta":20180901},{"NoteNumber":63,"Velocity":46,"Duration":78647,"SoundDuration":78647,"Delta":20259548},{"NoteNumber":60,"Velocity":44,"Duration":78773,"SoundDuration":78773,"Delta":20341144},{"NoteNumber":33,"Velocity":60,"Duration":1425348,"SoundDuration":1425348,"Delta":20416843},{"NoteNumber":62,"Velocity":45,"Duration":82000,"SoundDuration":82000,"Delta":20418893},{"NoteNumber":57,"Velocity":42,"Duration":82000,"SoundDuration":82000,"Delta":20496793},{"NoteNumber":61,"Velocity":45,"Duration":82000,"SoundDuration":82000,"Delta":20581869},{"NoteNumber":57,"Velocity":40,"Duration":82000,"SoundDuration":82000,"Delta":20662845},{"NoteNumber":60,"Velocity":44,"Duration":82000,"SoundDuration":82000,"Delta":20746896},{"NoteNumber":52,"Velocity":42,"Duration":81948,"SoundDuration":81948,"Delta":20827872},{"NoteNumber":40,"Velocity":68,"Duration":933343,"SoundDuration":933343,"Delta":20908848},{"NoteNumber":59,"Velocity":44,"Duration":77778,"SoundDuration":77778,"Delta":20909820},{"NoteNumber":52,"Velocity":42,"Duration":77778,"SoundDuration":77778,"Delta":20986626},{"NoteNumber":58,"Velocity":47,"Duration":77778,"SoundDuration":77778,"Delta":21062460},{"NoteNumber":48,"Velocity":45,"Duration":77778,"SoundDuration":77778,"Delta":21141211},{"NoteNumber":57,"Velocity":49,"Duration":77778,"SoundDuration":77778,"Delta":21219962},{"NoteNumber":52,"Velocity":47,"Duration":77778,"SoundDuration":77778,"Delta":21299685},{"NoteNumber":56,"Velocity":53,"Duration":77778,"SoundDuration":77778,"Delta":21376492},{"NoteNumber":48,"Velocity":49,"Duration":77778,"SoundDuration":77778,"Delta":21456215},{"NoteNumber":57,"Velocity":56,"Duration":77778,"SoundDuration":77778,"Delta":21533021},{"NoteNumber":52,"Velocity":53,"Duration":77778,"SoundDuration":77778,"Delta":21608856},{"NoteNumber":60,"Velocity":59,"Duration":77778,"SoundDuration":77778,"Delta":21685662},{"NoteNumber":53,"Velocity":59,"Duration":77815,"SoundDuration":77815,"Delta":21765385},{"NoteNumber":64,"Velocity":59,"Duration":80742,"SoundDuration":80742,"Delta":21842191},{"NoteNumber":32,"Velocity":99,"Duration":242228,"SoundDuration":242228,"Delta":21842191},{"NoteNumber":59,"Velocity":59,"Duration":80742,"SoundDuration":80742,"Delta":21920916},{"NoteNumber":62,"Velocity":59,"Duration":80742,"SoundDuration":80742,"Delta":22005696},{"NoteNumber":65,"Velocity":59,"Duration":80742,"SoundDuration":80742,"Delta":22085429},{"NoteNumber":76,"Velocity":59,"Duration":80742,"SoundDuration":80742,"Delta":22163144},{"NoteNumber":71,"Velocity":59,"Duration":80610,"SoundDuration":80610,"Delta":22248934},{"NoteNumber":74,"Velocity":62,"Duration":77302,"SoundDuration":77302,"Delta":22324630},{"NoteNumber":53,"Velocity":66,"Duration":347463,"SoundDuration":347463,"Delta":22326648},{"NoteNumber":62,"Velocity":77,"Duration":347463,"SoundDuration":347463,"Delta":22326648},{"NoteNumber":77,"Velocity":64,"Duration":77214,"SoundDuration":77214,"Delta":22406758},{"NoteNumber":88,"Velocity":67,"Duration":77214,"SoundDuration":77214,"Delta":22483007},{"NoteNumber":83,"Velocity":68,"Duration":77214,"SoundDuration":77214,"Delta":22557326},{"NoteNumber":86,"Velocity":69,"Duration":77214,"SoundDuration":77214,"Delta":22635505},{"NoteNumber":53,"Velocity":61,"Duration":115821,"SoundDuration":115821,"Delta":22674112},{"NoteNumber":62,"Velocity":73,"Duration":115821,"SoundDuration":115821,"Delta":22674112},{"NoteNumber":77,"Velocity":70,"Duration":77214,"SoundDuration":77214,"Delta":22710789},{"NoteNumber":53,"Velocity":66,"Duration":463285,"SoundDuration":463285,"Delta":22789933},{"NoteNumber":60,"Velocity":77,"Duration":463285,"SoundDuration":463285,"Delta":22789933},{"NoteNumber":86,"Velocity":69,"Duration":77214,"SoundDuration":77214,"Delta":22792829},{"NoteNumber":81,"Velocity":68,"Duration":77214,"SoundDuration":77214,"Delta":22869078},{"NoteNumber":84,"Velocity":67,"Duration":77214,"SoundDuration":77214,"Delta":22942431},{"NoteNumber":77,"Velocity":66,"Duration":77214,"SoundDuration":77214,"Delta":23024472},{"NoteNumber":74,"Velocity":64,"Duration":77214,"SoundDuration":77214,"Delta":23100721},{"NoteNumber":69,"Velocity":62,"Duration":77235,"SoundDuration":77235,"Delta":23176970},{"NoteNumber":72,"Velocity":58,"Duration":78923,"SoundDuration":78923,"Delta":23252253},{"NoteNumber":33,"Velocity":70,"Duration":473672,"SoundDuration":473672,"Delta":23253218},{"NoteNumber":45,"Velocity":84,"Duration":473672,"SoundDuration":473672,"Delta":23253218},{"NoteNumber":65,"Velocity":58,"Duration":78945,"SoundDuration":78945,"Delta":23331177},{"NoteNumber":62,"Velocity":58,"Duration":78945,"SoundDuration":78945,"Delta":23413083},{"NoteNumber":57,"Velocity":58,"Duration":78945,"SoundDuration":78945,"Delta":23490054},{"NoteNumber":60,"Velocity":58,"Duration":78945,"SoundDuration":78945,"Delta":23567026},{"NoteNumber":53,"Velocity":58,"Duration":78945,"SoundDuration":78945,"Delta":23648932},{"NoteNumber":32,"Velocity":73,"Duration":236836,"SoundDuration":236836,"Delta":23726891},{"NoteNumber":44,"Velocity":86,"Duration":236836,"SoundDuration":236836,"Delta":23726891},{"NoteNumber":64,"Velocity":59,"Duration":78945,"SoundDuration":78945,"Delta":23728864},{"NoteNumber":59,"Velocity":59,"Duration":78945,"SoundDuration":78945,"Delta":23805836},{"NoteNumber":62,"Velocity":59,"Duration":78945,"SoundDuration":78945,"Delta":23883794},{"NoteNumber":65,"Velocity":59,"Duration":78945,"SoundDuration":78945,"Delta":23964713},{"NoteNumber":76,"Velocity":59,"Duration":78945,"SoundDuration":78945,"Delta":24044645},{"NoteNumber":71,"Velocity":59,"Duration":78902,"SoundDuration":78902,"Delta":24123591},{"NoteNumber":55,"Velocity":77,"Duration":154428,"SoundDuration":154428,"Delta":24200563},{"NoteNumber":62,"Velocity":66,"Duration":154428,"SoundDuration":154428,"Delta":24200563},{"NoteNumber":74,"Velocity":64,"Duration":77214,"SoundDuration":77214,"Delta":24202493},{"NoteNumber":77,"Velocity":64,"Duration":77214,"SoundDuration":77214,"Delta":24277777},{"NoteNumber":88,"Velocity":66,"Duration":77214,"SoundDuration":77214,"Delta":24353060},{"NoteNumber":53,"Velocity":72,"Duration":154428,"SoundDuration":154428,"Delta":24354991},{"NoteNumber":62,"Velocity":60,"Duration":154428,"SoundDuration":154428,"Delta":24354991},{"NoteNumber":83,"Velocity":67,"Duration":77214,"SoundDuration":77214,"Delta":24432205},{"NoteNumber":52,"Velocity":73,"Duration":154428,"SoundDuration":154428,"Delta":24509419},{"NoteNumber":62,"Velocity":61,"Duration":154428,"SoundDuration":154428,"Delta":24509419},{"NoteNumber":86,"Velocity":69,"Duration":77214,"SoundDuration":77214,"Delta":24512315},{"NoteNumber":76,"Velocity":69,"Duration":77214,"SoundDuration":77214,"Delta":24584703},{"NoteNumber":52,"Velocity":77,"Duration":463285,"SoundDuration":463285,"Delta":24663847},{"NoteNumber":60,"Velocity":66,"Duration":463285,"SoundDuration":463285,"Delta":24663847},{"NoteNumber":86,"Velocity":67,"Duration":77214,"SoundDuration":77214,"Delta":24664813},{"NoteNumber":81,"Velocity":66,"Duration":77214,"SoundDuration":77214,"Delta":24742027},{"NoteNumber":84,"Velocity":64,"Duration":77214,"SoundDuration":77214,"Delta":24818276},{"NoteNumber":76,"Velocity":62,"Duration":77214,"SoundDuration":77214,"Delta":24893560},{"NoteNumber":74,"Velocity":61,"Duration":77214,"SoundDuration":77214,"Delta":24975600},{"NoteNumber":69,"Velocity":60,"Duration":77257,"SoundDuration":77257,"Delta":25052814},{"NoteNumber":33,"Velocity":68,"Duration":470145,"SoundDuration":470145,"Delta":25127133},{"NoteNumber":45,"Velocity":81,"Duration":470145,"SoundDuration":470145,"Delta":25127133},{"NoteNumber":72,"Velocity":59,"Duration":78357,"SoundDuration":78357,"Delta":25128112},{"NoteNumber":64,"Velocity":59,"Duration":78357,"SoundDuration":78357,"Delta":25205490},{"NoteNumber":62,"Velocity":59,"Duration":78357,"SoundDuration":78357,"Delta":25283848},{"NoteNumber":57,"Velocity":59,"Duration":78357,"SoundDuration":78357,"Delta":25362206},{"NoteNumber":60,"Velocity":59,"Duration":78357,"SoundDuration":78357,"Delta":25443502},{"NoteNumber":59,"Velocity":59,"Duration":78357,"SoundDuration":78357,"Delta":25517941},{"NoteNumber":69,"Velocity":59,"Duration":78357,"SoundDuration":78357,"Delta":25597279},{"NoteNumber":35,"Velocity":66,"Duration":235072,"SoundDuration":235072,"Delta":25597279},{"NoteNumber":47,"Velocity":77,"Duration":235072,"SoundDuration":235072,"Delta":25597279},{"NoteNumber":64,"Velocity":58,"Duration":78357,"SoundDuration":78357,"Delta":25674657},{"NoteNumber":68,"Velocity":58,"Duration":78357,"SoundDuration":78357,"Delta":25756932},{"NoteNumber":71,"Velocity":58,"Duration":78357,"SoundDuration":78357,"Delta":25831372},{"NoteNumber":81,"Velocity":58,"Duration":78357,"SoundDuration":78357,"Delta":25912668},{"NoteNumber":76,"Velocity":58,"Duration":78350,"SoundDuration":78350,"Delta":25990046},{"NoteNumber":80,"Velocity":58,"Duration":77785,"SoundDuration":77785,"Delta":26066445},{"NoteNumber":56,"Velocity":60,"Duration":466671,"SoundDuration":466671,"Delta":26067425},{"NoteNumber":59,"Velocity":60,"Duration":466671,"SoundDuration":466671,"Delta":26067425},{"NoteNumber":64,"Velocity":70,"Duration":155557,"SoundDuration":155557,"Delta":26067425},{"NoteNumber":83,"Velocity":57,"Duration":77778,"SoundDuration":77778,"Delta":26147148},{"NoteNumber":68,"Velocity":66,"Duration":155557,"SoundDuration":155557,"Delta":26222982},{"NoteNumber":93,"Velocity":58,"Duration":77778,"SoundDuration":77778,"Delta":26225899},{"NoteNumber":88,"Velocity":59,"Duration":77778,"SoundDuration":77778,"Delta":26300761},{"NoteNumber":73,"Velocity":70,"Duration":155557,"SoundDuration":155557,"Delta":26378539},{"NoteNumber":92,"Velocity":59,"Duration":77778,"SoundDuration":77778,"Delta":26379511},{"NoteNumber":83,"Velocity":59,"Duration":77778,"SoundDuration":77778,"Delta":26459235},{"NoteNumber":92,"Velocity":60,"Duration":77778,"SoundDuration":77778,"Delta":26532152},{"NoteNumber":59,"Velocity":60,"Duration":466671,"SoundDuration":466671,"Delta":26534097},{"NoteNumber":63,"Velocity":60,"Duration":466671,"SoundDuration":466671,"Delta":26534097},{"NoteNumber":71,"Velocity":70,"Duration":466671,"SoundDuration":466671,"Delta":26534097},{"NoteNumber":69,"Velocity":70,"Duration":466671,"SoundDuration":466671,"Delta":26534097},{"NoteNumber":87,"Velocity":60,"Duration":77778,"SoundDuration":77778,"Delta":26614792},{"NoteNumber":90,"Velocity":59,"Duration":77778,"SoundDuration":77778,"Delta":26690626},{"NoteNumber":83,"Velocity":59,"Duration":77778,"SoundDuration":77778,"Delta":26765488},{"NoteNumber":80,"Velocity":59,"Duration":77778,"SoundDuration":77778,"Delta":26846183},{"NoteNumber":75,"Velocity":58,"Duration":77778,"SoundDuration":77778,"Delta":26922018},{"NoteNumber":47,"Velocity":66,"Duration":477212,"SoundDuration":477212,"Delta":27000769},{"NoteNumber":59,"Velocity":77,"Duration":477212,"SoundDuration":477212,"Delta":27000769},{"NoteNumber":78,"Velocity":55,"Duration":79535,"SoundDuration":79535,"Delta":27003751},{"NoteNumber":71,"Velocity":55,"Duration":79535,"SoundDuration":79535,"Delta":27081298},{"NoteNumber":68,"Velocity":55,"Duration":79535,"SoundDuration":79535,"Delta":27160834},{"NoteNumber":63,"Velocity":55,"Duration":79535,"SoundDuration":79535,"Delta":27238381},{"NoteNumber":66,"Velocity":55,"Duration":79535,"SoundDuration":79535,"Delta":27321893},{"NoteNumber":59,"Velocity":55,"Duration":79535,"SoundDuration":79535,"Delta":27396458},{"NoteNumber":69,"Velocity":55,"Duration":79535,"SoundDuration":79535,"Delta":27475993},{"NoteNumber":40,"Velocity":66,"Duration":238606,"SoundDuration":238606,"Delta":27477981},{"NoteNumber":52,"Velocity":77,"Duration":238606,"SoundDuration":238606,"Delta":27477981},{"NoteNumber":64,"Velocity":55,"Duration":79535,"SoundDuration":79535,"Delta":27559505},{"NoteNumber":68,"Velocity":55,"Duration":79535,"SoundDuration":79535,"Delta":27636058},{"NoteNumber":71,"Velocity":55,"Duration":79535,"SoundDuration":79535,"Delta":27719571},{"NoteNumber":81,"Velocity":55,"Duration":79535,"SoundDuration":79535,"Delta":27795129},{"NoteNumber":76,"Velocity":55,"Duration":79535,"SoundDuration":79535,"Delta":27875659},{"NoteNumber":80,"Velocity":55,"Duration":79535,"SoundDuration":79535,"Delta":27953206},{"NoteNumber":68,"Velocity":67,"Duration":159070,"SoundDuration":159070,"Delta":27955195},{"NoteNumber":59,"Velocity":56,"Duration":159070,"SoundDuration":159070,"Delta":27955195},{"NoteNumber":83,"Velocity":59,"Duration":79535,"SoundDuration":79535,"Delta":28036718},{"NoteNumber":67,"Velocity":58,"Duration":159071,"SoundDuration":159071,"Delta":28114265},{"NoteNumber":58,"Velocity":49,"Duration":159071,"SoundDuration":159071,"Delta":28114265},{"NoteNumber":93,"Velocity":59,"Duration":79535,"SoundDuration":79535,"Delta":28117248},{"NoteNumber":88,"Velocity":59,"Duration":79535,"SoundDuration":79535,"Delta":28195789},{"NoteNumber":68,"Velocity":63,"Duration":159071,"SoundDuration":159071,"Delta":28273336},{"NoteNumber":59,"Velocity":55,"Duration":159071,"SoundDuration":159071,"Delta":28273336},{"NoteNumber":92,"Velocity":59,"Duration":79535,"SoundDuration":79535,"Delta":28274331},{"NoteNumber":83,"Velocity":59,"Duration":79535,"SoundDuration":79535,"Delta":28354860},{"NoteNumber":100,"Velocity":81,"Duration":238606,"SoundDuration":238606,"Delta":28432408},{"NoteNumber":52,"Velocity":63,"Duration":238606,"SoundDuration":238606,"Delta":28432408},{"NoteNumber":56,"Velocity":63,"Duration":238606,"SoundDuration":238606,"Delta":28432408},{"NoteNumber":64,"Velocity":72,"Duration":238606,"SoundDuration":238606,"Delta":28432408},{"NoteNumber":101,"Velocity":94,"Duration":80439,"SoundDuration":80439,"Delta":29385839},{"NoteNumber":33,"Velocity":100,"Duration":241351,"SoundDuration":241351,"Delta":29386833},{"NoteNumber":96,"Velocity":69,"Duration":80450,"SoundDuration":80450,"Delta":29465273},{"NoteNumber":100,"Velocity":90,"Duration":80450,"SoundDuration":80450,"Delta":29545723},{"NoteNumber":93,"Velocity":69,"Duration":80450,"SoundDuration":80450,"Delta":29626174},{"NoteNumber":99,"Velocity":84,"Duration":80450,"SoundDuration":80450,"Delta":29710647},{"NoteNumber":96,"Velocity":69,"Duration":80339,"SoundDuration":80339,"Delta":29792103},{"NoteNumber":98,"Velocity":82,"Duration":77526,"SoundDuration":77526,"Delta":29868531},{"NoteNumber":64,"Velocity":84,"Duration":348701,"SoundDuration":348701,"Delta":29869536},{"NoteNumber":60,"Velocity":70,"Duration":348701,"SoundDuration":348701,"Delta":29869536},{"NoteNumber":57,"Velocity":70,"Duration":348701,"SoundDuration":348701,"Delta":29869536},{"NoteNumber":93,"Velocity":67,"Duration":77489,"SoundDuration":77489,"Delta":29945089},{"NoteNumber":97,"Velocity":79,"Duration":77489,"SoundDuration":77489,"Delta":30025484},{"NoteNumber":93,"Velocity":67,"Duration":77489,"SoundDuration":77489,"Delta":30100067},{"NoteNumber":96,"Velocity":78,"Duration":77489,"SoundDuration":77489,"Delta":30177557},{"NoteNumber":57,"Velocity":67,"Duration":116234,"SoundDuration":116234,"Delta":30218238},{"NoteNumber":60,"Velocity":67,"Duration":116234,"SoundDuration":116234,"Delta":30218238},{"NoteNumber":64,"Velocity":79,"Duration":116234,"SoundDuration":116234,"Delta":30218238},{"NoteNumber":88,"Velocity":67,"Duration":77489,"SoundDuration":77489,"Delta":30256983},{"NoteNumber":64,"Velocity":84,"Duration":470145,"SoundDuration":470145,"Delta":30334473},{"NoteNumber":60,"Velocity":70,"Duration":470145,"SoundDuration":470145,"Delta":30334473},{"NoteNumber":57,"Velocity":70,"Duration":470145,"SoundDuration":470145,"Delta":30334473},{"NoteNumber":95,"Velocity":77,"Duration":78357,"SoundDuration":78357,"Delta":30336431},{"NoteNumber":88,"Velocity":69,"Duration":78357,"SoundDuration":78357,"Delta":30414789},{"NoteNumber":94,"Velocity":75,"Duration":78357,"SoundDuration":78357,"Delta":30492167},{"NoteNumber":84,"Velocity":69,"Duration":78357,"SoundDuration":78357,"Delta":30567587},{"NoteNumber":93,"Velocity":73,"Duration":78357,"SoundDuration":78357,"Delta":30647903},{"NoteNumber":88,"Velocity":69,"Duration":78357,"SoundDuration":78357,"Delta":30725281},{"NoteNumber":57,"Velocity":74,"Duration":464936,"SoundDuration":464936,"Delta":30804619},{"NoteNumber":60,"Velocity":74,"Duration":464936,"SoundDuration":464936,"Delta":30804619},{"NoteNumber":65,"Velocity":88,"Duration":464936,"SoundDuration":464936,"Delta":30804619},{"NoteNumber":92,"Velocity":73,"Duration":77489,"SoundDuration":77489,"Delta":30806556},{"NoteNumber":84,"Velocity":67,"Duration":77489,"SoundDuration":77489,"Delta":30881139},{"NoteNumber":91,"Velocity":69,"Duration":77489,"SoundDuration":77489,"Delta":30959597},{"NoteNumber":84,"Velocity":67,"Duration":77489,"SoundDuration":77489,"Delta":31036118},{"NoteNumber":90,"Velocity":69,"Duration":77489,"SoundDuration":77489,"Delta":31115544},{"NoteNumber":81,"Velocity":67,"Duration":77503,"SoundDuration":77503,"Delta":31193034},{"NoteNumber":57,"Velocity":70,"Duration":471883,"SoundDuration":471883,"Delta":31269555},{"NoteNumber":60,"Velocity":70,"Duration":471883,"SoundDuration":471883,"Delta":31269555},{"NoteNumber":64,"Velocity":84,"Duration":471883,"SoundDuration":471883,"Delta":31269555},{"NoteNumber":89,"Velocity":73,"Duration":78647,"SoundDuration":78647,"Delta":31270538},{"NoteNumber":84,"Velocity":69,"Duration":78647,"SoundDuration":78647,"Delta":31346236},{"NoteNumber":88,"Velocity":73,"Duration":78647,"SoundDuration":78647,"Delta":31427832},{"NoteNumber":81,"Velocity":69,"Duration":78647,"SoundDuration":78647,"Delta":31508446},{"NoteNumber":87,"Velocity":73,"Duration":78647,"SoundDuration":78647,"Delta":31586110},{"NoteNumber":84,"Velocity":69,"Duration":78809,"SoundDuration":78809,"Delta":31665740},{"NoteNumber":86,"Velocity":73,"Duration":82912,"SoundDuration":82912,"Delta":31740455},{"NoteNumber":52,"Velocity":67,"Duration":497801,"SoundDuration":497801,"Delta":31741439},{"NoteNumber":57,"Velocity":67,"Duration":497801,"SoundDuration":497801,"Delta":31741439},{"NoteNumber":60,"Velocity":79,"Duration":497801,"SoundDuration":497801,"Delta":31741439},{"NoteNumber":81,"Velocity":67,"Duration":82966,"SoundDuration":82966,"Delta":31824405},{"NoteNumber":85,"Velocity":69,"Duration":82966,"SoundDuration":82966,"Delta":31906335},{"NoteNumber":81,"Velocity":67,"Duration":82966,"SoundDuration":82966,"Delta":31993450},{"NoteNumber":84,"Velocity":69,"Duration":82966,"SoundDuration":82966,"Delta":32073306},{"NoteNumber":76,"Velocity":67,"Duration":82730,"SoundDuration":82730,"Delta":32159384},{"NoteNumber":83,"Velocity":69,"Duration":76815,"SoundDuration":76815,"Delta":32237165},{"NoteNumber":57,"Velocity":67,"Duration":919891,"SoundDuration":919891,"Delta":32239240},{"NoteNumber":60,"Velocity":67,"Duration":919891,"SoundDuration":919891,"Delta":32239240},{"NoteNumber":64,"Velocity":79,"Duration":919891,"SoundDuration":919891,"Delta":32239240},{"NoteNumber":76,"Velocity":67,"Duration":76657,"SoundDuration":76657,"Delta":32316855},{"NoteNumber":82,"Velocity":69,"Duration":76657,"SoundDuration":76657,"Delta":32390638},{"NoteNumber":72,"Velocity":67,"Duration":76657,"SoundDuration":76657,"Delta":32469213},{"NoteNumber":81,"Velocity":69,"Duration":76657,"SoundDuration":76657,"Delta":32548745},{"NoteNumber":76,"Velocity":67,"Duration":76657,"SoundDuration":76657,"Delta":32620611},{"NoteNumber":80,"Velocity":69,"Duration":76657,"SoundDuration":76657,"Delta":32702060},{"NoteNumber":72,"Velocity":67,"Duration":76657,"SoundDuration":76657,"Delta":32774885},{"NoteNumber":79,"Velocity":69,"Duration":76657,"SoundDuration":76657,"Delta":32851543},{"NoteNumber":72,"Velocity":67,"Duration":76657,"SoundDuration":76657,"Delta":32931075},{"NoteNumber":78,"Velocity":69,"Duration":76657,"SoundDuration":76657,"Delta":33005816},{"NoteNumber":69,"Velocity":67,"Duration":76657,"SoundDuration":76657,"Delta":33081516},{"NoteNumber":24,"Velocity":70,"Duration":236835,"SoundDuration":236835,"Delta":33159132},{"NoteNumber":36,"Velocity":80,"Duration":236835,"SoundDuration":236835,"Delta":33159132},{"NoteNumber":77,"Velocity":56,"Duration":78945,"SoundDuration":78945,"Delta":33160118},{"NoteNumber":70,"Velocity":56,"Duration":78945,"SoundDuration":78945,"Delta":33239064},{"NoteNumber":76,"Velocity":56,"Duration":78945,"SoundDuration":78945,"Delta":33317022},{"NoteNumber":67,"Velocity":51,"Duration":78945,"SoundDuration":78945,"Delta":33395967},{"NoteNumber":75,"Velocity":56,"Duration":78945,"SoundDuration":78945,"Delta":33475900},{"NoteNumber":70,"Velocity":51,"Duration":78927,"SoundDuration":78927,"Delta":33554845},{"NoteNumber":43,"Velocity":58,"Duration":348702,"SoundDuration":348702,"Delta":33632804},{"NoteNumber":52,"Velocity":69,"Duration":348702,"SoundDuration":348702,"Delta":33632804},{"NoteNumber":74,"Velocity":56,"Duration":77489,"SoundDuration":77489,"Delta":33635709},{"NoteNumber":67,"Velocity":51,"Duration":77489,"SoundDuration":77489,"Delta":33712230},{"NoteNumber":73,"Velocity":56,"Duration":77489,"SoundDuration":77489,"Delta":33788751},{"NoteNumber":70,"Velocity":51,"Duration":77489,"SoundDuration":77489,"Delta":33867209},{"NoteNumber":72,"Velocity":56,"Duration":77489,"SoundDuration":77489,"Delta":33943729},{"NoteNumber":43,"Velocity":50,"Duration":116233,"SoundDuration":116233,"Delta":33981506},{"NoteNumber":52,"Velocity":61,"Duration":116233,"SoundDuration":116233,"Delta":33981506},{"NoteNumber":67,"Velocity":51,"Duration":77489,"SoundDuration":77489,"Delta":34020250},{"NoteNumber":71,"Velocity":56,"Duration":78927,"SoundDuration":78927,"Delta":34096771},{"NoteNumber":43,"Velocity":60,"Duration":473672,"SoundDuration":473672,"Delta":34097740},{"NoteNumber":52,"Velocity":70,"Duration":473672,"SoundDuration":473672,"Delta":34097740},{"NoteNumber":67,"Velocity":50,"Duration":78945,"SoundDuration":78945,"Delta":34178658},{"NoteNumber":70,"Velocity":55,"Duration":78945,"SoundDuration":78945,"Delta":34256617},{"NoteNumber":64,"Velocity":49,"Duration":78945,"SoundDuration":78945,"Delta":34337536},{"NoteNumber":69,"Velocity":53,"Duration":78945,"SoundDuration":78945,"Delta":34412534},{"NoteNumber":60,"Velocity":47,"Duration":78945,"SoundDuration":78945,"Delta":34491479},{"NoteNumber":43,"Velocity":52,"Duration":464936,"SoundDuration":464936,"Delta":34571412},{"NoteNumber":53,"Velocity":62,"Duration":464936,"SoundDuration":464936,"Delta":34571412},{"NoteNumber":68,"Velocity":50,"Duration":77489,"SoundDuration":77489,"Delta":34572380},{"NoteNumber":58,"Velocity":46,"Duration":77489,"SoundDuration":77489,"Delta":34650838},{"NoteNumber":67,"Velocity":49,"Duration":77489,"SoundDuration":77489,"Delta":34727359},{"NoteNumber":60,"Velocity":46,"Duration":77489,"SoundDuration":77489,"Delta":34803880},{"NoteNumber":66,"Velocity":47,"Duration":77489,"SoundDuration":77489,"Delta":34881369},{"NoteNumber":58,"Velocity":45,"Duration":77489,"SoundDuration":77489,"Delta":34956921},{"NoteNumber":43,"Velocity":49,"Duration":471884,"SoundDuration":471884,"Delta":35036348},{"NoteNumber":52,"Velocity":58,"Duration":471884,"SoundDuration":471884,"Delta":35036348},{"NoteNumber":65,"Velocity":47,"Duration":78647,"SoundDuration":78647,"Delta":35038314},{"NoteNumber":60,"Velocity":45,"Duration":78647,"SoundDuration":78647,"Delta":35115978},{"NoteNumber":64,"Velocity":47,"Duration":78647,"SoundDuration":78647,"Delta":35194625},{"NoteNumber":58,"Velocity":45,"Duration":78647,"SoundDuration":78647,"Delta":35274256},{"NoteNumber":63,"Velocity":46,"Duration":78647,"SoundDuration":78647,"Delta":35352903},{"NoteNumber":60,"Velocity":44,"Duration":78647,"SoundDuration":78647,"Delta":35427618},{"NoteNumber":48,"Velocity":58,"Duration":492004,"SoundDuration":492004,"Delta":35508232},{"NoteNumber":36,"Velocity":55,"Duration":1425348,"SoundDuration":1425348,"Delta":35508232},{"NoteNumber":62,"Velocity":45,"Duration":82000,"SoundDuration":82000,"Delta":35509257},{"NoteNumber":55,"Velocity":42,"Duration":82000,"SoundDuration":82000,"Delta":35593307},{"NoteNumber":61,"Velocity":45,"Duration":82000,"SoundDuration":82000,"Delta":35675308},{"NoteNumber":58,"Velocity":40,"Duration":82000,"SoundDuration":82000,"Delta":35755259},{"NoteNumber":60,"Velocity":44,"Duration":82000,"SoundDuration":82000,"Delta":35838285},{"NoteNumber":55,"Velocity":39,"Duration":82000,"SoundDuration":82000,"Delta":35916186},{"NoteNumber":52,"Velocity":58,"Duration":933343,"SoundDuration":933343,"Delta":36000237},{"NoteNumber":43,"Velocity":49,"Duration":933343,"SoundDuration":933343,"Delta":36000237},{"NoteNumber":59,"Velocity":44,"Duration":77778,"SoundDuration":77778,"Delta":36002181},{"NoteNumber":55,"Velocity":42,"Duration":77778,"SoundDuration":77778,"Delta":36080932},{"NoteNumber":60,"Velocity":47,"Duration":77778,"SoundDuration":77778,"Delta":36154822},{"NoteNumber":58,"Velocity":45,"Duration":77778,"SoundDuration":77778,"Delta":36234545},{"NoteNumber":61,"Velocity":49,"Duration":77778,"SoundDuration":77778,"Delta":36310379},{"NoteNumber":55,"Velocity":47,"Duration":77778,"SoundDuration":77778,"Delta":36388158},{"NoteNumber":62,"Velocity":53,"Duration":77778,"SoundDuration":77778,"Delta":36464964},{"NoteNumber":58,"Velocity":49,"Duration":77778,"SoundDuration":77778,"Delta":36547604},{"NoteNumber":63,"Velocity":56,"Duration":77778,"SoundDuration":77778,"Delta":36625383},{"NoteNumber":55,"Velocity":53,"Duration":77778,"SoundDuration":77778,"Delta":36702189},{"NoteNumber":64,"Velocity":59,"Duration":77778,"SoundDuration":77778,"Delta":36776079},{"NoteNumber":58,"Velocity":56,"Duration":77778,"SoundDuration":77778,"Delta":36854830},{"NoteNumber":69,"Velocity":59,"Duration":78916,"SoundDuration":78916,"Delta":36931636},{"NoteNumber":36,"Velocity":74,"Duration":236835,"SoundDuration":236835,"Delta":36933581},{"NoteNumber":64,"Velocity":59,"Duration":78945,"SoundDuration":78945,"Delta":37010552},{"NoteNumber":67,"Velocity":59,"Duration":78945,"SoundDuration":78945,"Delta":37092458},{"NoteNumber":70,"Velocity":59,"Duration":78945,"SoundDuration":78945,"Delta":37172390},{"NoteNumber":81,"Velocity":59,"Duration":78945,"SoundDuration":78945,"Delta":37250349},{"NoteNumber":76,"Velocity":59,"Duration":78945,"SoundDuration":78945,"Delta":37328307},{"NoteNumber":79,"Velocity":59,"Duration":77214,"SoundDuration":77214,"Delta":37407253},{"NoteNumber":64,"Velocity":55,"Duration":154428,"SoundDuration":154428,"Delta":37407253},{"NoteNumber":58,"Velocity":55,"Duration":154428,"SoundDuration":154428,"Delta":37407253},{"NoteNumber":55,"Velocity":61,"Duration":154428,"SoundDuration":154428,"Delta":37407253},{"NoteNumber":82,"Velocity":59,"Duration":77214,"SoundDuration":77214,"Delta":37483501},{"NoteNumber":93,"Velocity":60,"Duration":77214,"SoundDuration":77214,"Delta":37561681},{"NoteNumber":47,"Velocity":62,"Duration":154428,"SoundDuration":154428,"Delta":37561681},{"NoteNumber":88,"Velocity":62,"Duration":77214,"SoundDuration":77214,"Delta":37639860},{"NoteNumber":91,"Velocity":64,"Duration":77214,"SoundDuration":77214,"Delta":37714179},{"NoteNumber":48,"Velocity":63,"Duration":154428,"SoundDuration":154428,"Delta":37716109},{"NoteNumber":82,"Velocity":66,"Duration":77214,"SoundDuration":77214,"Delta":37792358},{"NoteNumber":49,"Velocity":69,"Duration":463284,"SoundDuration":463284,"Delta":37870538},{"NoteNumber":63,"Velocity":58,"Duration":463284,"SoundDuration":463284,"Delta":37870538},{"NoteNumber":58,"Velocity":58,"Duration":463284,"SoundDuration":463284,"Delta":37870538},{"NoteNumber":55,"Velocity":58,"Duration":463284,"SoundDuration":463284,"Delta":37870538},{"NoteNumber":93,"Velocity":67,"Duration":77214,"SoundDuration":77214,"Delta":37872468},{"NoteNumber":87,"Velocity":67,"Duration":77214,"SoundDuration":77214,"Delta":37946786},{"NoteNumber":91,"Velocity":66,"Duration":77214,"SoundDuration":77214,"Delta":38026896},{"NoteNumber":82,"Velocity":64,"Duration":77214,"SoundDuration":77214,"Delta":38105076},{"NoteNumber":81,"Velocity":64,"Duration":77214,"SoundDuration":77214,"Delta":38182290},{"NoteNumber":75,"Velocity":62,"Duration":77242,"SoundDuration":77242,"Delta":38258539},{"NoteNumber":79,"Velocity":62,"Duration":78343,"SoundDuration":78343,"Delta":38332857},{"NoteNumber":37,"Velocity":60,"Duration":470145,"SoundDuration":470145,"Delta":38333823},{"NoteNumber":49,"Velocity":72,"Duration":470145,"SoundDuration":470145,"Delta":38333823},{"NoteNumber":70,"Velocity":59,"Duration":78357,"SoundDuration":78357,"Delta":38415119},{"NoteNumber":69,"Velocity":59,"Duration":78357,"SoundDuration":78357,"Delta":38488579},{"NoteNumber":63,"Velocity":59,"Duration":78357,"SoundDuration":78357,"Delta":38566937},{"NoteNumber":67,"Velocity":59,"Duration":78357,"SoundDuration":78357,"Delta":38649212},{"NoteNumber":58,"Velocity":59,"Duration":78357,"SoundDuration":78357,"Delta":38726590},{"NoteNumber":38,"Velocity":66,"Duration":235072,"SoundDuration":235072,"Delta":38803969},{"NoteNumber":50,"Velocity":77,"Duration":235072,"SoundDuration":235072,"Delta":38803969},{"NoteNumber":69,"Velocity":59,"Duration":78357,"SoundDuration":78357,"Delta":38804948},{"NoteNumber":62,"Velocity":59,"Duration":78357,"SoundDuration":78357,"Delta":38885265},{"NoteNumber":67,"Velocity":59,"Duration":78357,"SoundDuration":78357,"Delta":38958725},{"NoteNumber":70,"Velocity":59,"Duration":78357,"SoundDuration":78357,"Delta":39041980},{"NoteNumber":81,"Velocity":59,"Duration":78357,"SoundDuration":78357,"Delta":39118379},{"NoteNumber":74,"Velocity":59,"Duration":78357,"SoundDuration":78357,"Delta":39194777},{"NoteNumber":79,"Velocity":59,"Duration":77242,"SoundDuration":77242,"Delta":39272156},{"NoteNumber":64,"Velocity":55,"Duration":154428,"SoundDuration":154428,"Delta":39274115},{"NoteNumber":58,"Velocity":55,"Duration":154428,"SoundDuration":154428,"Delta":39274115},{"NoteNumber":55,"Velocity":63,"Duration":154428,"SoundDuration":154428,"Delta":39274115},{"NoteNumber":82,"Velocity":59,"Duration":77214,"SoundDuration":77214,"Delta":39352294},{"NoteNumber":93,"Velocity":60,"Duration":77214,"SoundDuration":77214,"Delta":39427578},{"NoteNumber":47,"Velocity":63,"Duration":154428,"SoundDuration":154428,"Delta":39428543},{"NoteNumber":86,"Velocity":62,"Duration":77214,"SoundDuration":77214,"Delta":39504792},{"NoteNumber":49,"Velocity":63,"Duration":115821,"SoundDuration":115821,"Delta":39582971},{"NoteNumber":91,"Velocity":66,"Duration":77214,"SoundDuration":77214,"Delta":39585867},{"NoteNumber":82,"Velocity":68,"Duration":77214,"SoundDuration":77214,"Delta":39661151},{"NoteNumber":51,"Velocity":70,"Duration":506717,"SoundDuration":506717,"Delta":39693967},{"NoteNumber":55,"Velocity":70,"Duration":492240,"SoundDuration":492240,"Delta":39708444},{"NoteNumber":58,"Velocity":58,"Duration":477762,"SoundDuration":477762,"Delta":39722922},{"NoteNumber":63,"Velocity":58,"Duration":463284,"SoundDuration":463284,"Delta":39737400},{"NoteNumber":93,"Velocity":69,"Duration":77214,"SoundDuration":77214,"Delta":39738365},{"NoteNumber":85,"Velocity":69,"Duration":77214,"SoundDuration":77214,"Delta":39812683},{"NoteNumber":91,"Velocity":68,"Duration":77214,"SoundDuration":77214,"Delta":39891828},{"NoteNumber":82,"Velocity":67,"Duration":77214,"SoundDuration":77214,"Delta":39969042},{"NoteNumber":81,"Velocity":66,"Duration":77214,"SoundDuration":77214,"Delta":40046256},{"NoteNumber":73,"Velocity":64,"Duration":77249,"SoundDuration":77249,"Delta":40125401},{"NoteNumber":39,"Velocity":60,"Duration":471884,"SoundDuration":471884,"Delta":40200685},{"NoteNumber":51,"Velocity":72,"Duration":471884,"SoundDuration":471884,"Delta":40200685},{"NoteNumber":79,"Velocity":59,"Duration":78647,"SoundDuration":78647,"Delta":40201668},{"NoteNumber":70,"Velocity":59,"Duration":78647,"SoundDuration":78647,"Delta":40279332},{"NoteNumber":69,"Velocity":59,"Duration":78647,"SoundDuration":78647,"Delta":40359945},{"NoteNumber":61,"Velocity":59,"Duration":78647,"SoundDuration":78647,"Delta":40437610},{"NoteNumber":67,"Velocity":59,"Duration":78647,"SoundDuration":78647,"Delta":40516257},{"NoteNumber":58,"Velocity":59,"Duration":78647,"SoundDuration":78647,"Delta":40593921},{"NoteNumber":69,"Velocity":59,"Duration":78647,"SoundDuration":78647,"Delta":40670602},{"NoteNumber":40,"Velocity":80,"Duration":235941,"SoundDuration":235941,"Delta":40672569},{"NoteNumber":52,"Velocity":80,"Duration":235941,"SoundDuration":235941,"Delta":40672569},{"NoteNumber":60,"Velocity":59,"Duration":78647,"SoundDuration":78647,"Delta":40753182},{"NoteNumber":67,"Velocity":59,"Duration":78647,"SoundDuration":78647,"Delta":40827897},{"NoteNumber":58,"Velocity":59,"Duration":78647,"SoundDuration":78647,"Delta":40909494},{"NoteNumber":72,"Velocity":59,"Duration":78647,"SoundDuration":78647,"Delta":40990107},{"NoteNumber":69,"Velocity":59,"Duration":78647,"SoundDuration":78647,"Delta":41065805},{"NoteNumber":60,"Velocity":88,"Duration":353912,"SoundDuration":353912,"Delta":41144453},{"NoteNumber":70,"Velocity":61,"Duration":78647,"SoundDuration":78647,"Delta":41146419},{"NoteNumber":67,"Velocity":62,"Duration":78647,"SoundDuration":78647,"Delta":41223100},{"NoteNumber":81,"Velocity":64,"Duration":78647,"SoundDuration":78647,"Delta":41301747},{"NoteNumber":72,"Velocity":64,"Duration":78647,"SoundDuration":78647,"Delta":41382361},{"NoteNumber":79,"Velocity":64,"Duration":78647,"SoundDuration":78647,"Delta":41460025},{"NoteNumber":60,"Velocity":79,"Duration":117971,"SoundDuration":117971,"Delta":41498366},{"NoteNumber":70,"Velocity":64,"Duration":78647,"SoundDuration":78647,"Delta":41537689},{"NoteNumber":60,"Velocity":88,"Duration":471883,"SoundDuration":471883,"Delta":41616337},{"NoteNumber":84,"Velocity":64,"Duration":78647,"SoundDuration":78647,"Delta":41619286},{"NoteNumber":81,"Velocity":64,"Duration":78647,"SoundDuration":78647,"Delta":41695967},{"NoteNumber":82,"Velocity":62,"Duration":78647,"SoundDuration":78647,"Delta":41772648},{"NoteNumber":79,"Velocity":61,"Duration":78647,"SoundDuration":78647,"Delta":41852279},{"NoteNumber":93,"Velocity":61,"Duration":78647,"SoundDuration":78647,"Delta":41928960},{"NoteNumber":84,"Velocity":60,"Duration":78647,"SoundDuration":78647,"Delta":42011539},{"NoteNumber":36,"Velocity":55,"Duration":471884,"SoundDuration":471884,"Delta":42088221},{"NoteNumber":48,"Velocity":63,"Duration":471884,"SoundDuration":471884,"Delta":42088221},{"NoteNumber":91,"Velocity":59,"Duration":78647,"SoundDuration":78647,"Delta":42091170},{"NoteNumber":82,"Velocity":59,"Duration":78647,"SoundDuration":78647,"Delta":42167851},{"NoteNumber":96,"Velocity":59,"Duration":78647,"SoundDuration":78647,"Delta":42243549},{"NoteNumber":93,"Velocity":59,"Duration":78647,"SoundDuration":78647,"Delta":42323179},{"NoteNumber":94,"Velocity":59,"Duration":78647,"SoundDuration":78647,"Delta":42400844},{"NoteNumber":91,"Velocity":59,"Duration":78647,"SoundDuration":78647,"Delta":42482440},{"NoteNumber":98,"Velocity":59,"Duration":78647,"SoundDuration":78647,"Delta":42558138},{"NoteNumber":41,"Velocity":58,"Duration":235942,"SoundDuration":235942,"Delta":42560105},{"NoteNumber":53,"Velocity":70,"Duration":235942,"SoundDuration":235942,"Delta":42560105},{"NoteNumber":93,"Velocity":59,"Duration":78647,"SoundDuration":78647,"Delta":42641701},{"NoteNumber":96,"Velocity":59,"Duration":78647,"SoundDuration":78647,"Delta":42720348},{"NoteNumber":89,"Velocity":59,"Duration":78647,"SoundDuration":78647,"Delta":42797030},{"NoteNumber":92,"Velocity":59,"Duration":78647,"SoundDuration":78647,"Delta":42876660},{"NoteNumber":89,"Velocity":59,"Duration":78603,"SoundDuration":78603,"Delta":42956290},{"NoteNumber":93,"Velocity":59,"Duration":77518,"SoundDuration":77518,"Delta":43030022},{"NoteNumber":69,"Velocity":74,"Duration":348702,"SoundDuration":348702,"Delta":43031989},{"NoteNumber":84,"Velocity":59,"Duration":77489,"SoundDuration":77489,"Delta":43107541},{"NoteNumber":88,"Velocity":59,"Duration":77489,"SoundDuration":77489,"Delta":43188904},{"NoteNumber":84,"Velocity":59,"Duration":77489,"SoundDuration":77489,"Delta":43265425},{"NoteNumber":89,"Velocity":59,"Duration":77489,"SoundDuration":77489,"Delta":43340977},{"NoteNumber":57,"Velocity":67,"Duration":1046105,"SoundDuration":1046105,"Delta":43380691},{"NoteNumber":81,"Velocity":59,"Duration":77489,"SoundDuration":77489,"Delta":43417498},{"NoteNumber":85,"Velocity":59,"Duration":77489,"SoundDuration":77489,"Delta":43495956},{"NoteNumber":62,"Velocity":70,"Duration":348701,"SoundDuration":348701,"Delta":43496925},{"NoteNumber":53,"Velocity":70,"Duration":929871,"SoundDuration":929871,"Delta":43496925},{"NoteNumber":81,"Velocity":59,"Duration":77489,"SoundDuration":77489,"Delta":43575382},{"NoteNumber":86,"Velocity":59,"Duration":77489,"SoundDuration":77489,"Delta":43651903},{"NoteNumber":77,"Velocity":59,"Duration":77489,"SoundDuration":77489,"Delta":43728424},{"NoteNumber":80,"Velocity":59,"Duration":77489,"SoundDuration":77489,"Delta":43806882},{"NoteNumber":64,"Velocity":67,"Duration":116234,"SoundDuration":116234,"Delta":43845627},{"NoteNumber":77,"Velocity":59,"Duration":77489,"SoundDuration":77489,"Delta":43885340},{"NoteNumber":65,"Velocity":70,"Duration":464935,"SoundDuration":464935,"Delta":43961861},{"NoteNumber":81,"Velocity":59,"Duration":77489,"SoundDuration":77489,"Delta":43963798},{"NoteNumber":74,"Velocity":59,"Duration":77489,"SoundDuration":77489,"Delta":44041287},{"NoteNumber":76,"Velocity":59,"Duration":77489,"SoundDuration":77489,"Delta":44117808},{"NoteNumber":74,"Velocity":59,"Duration":77489,"SoundDuration":77489,"Delta":44195297},{"NoteNumber":77,"Velocity":59,"Duration":77489,"SoundDuration":77489,"Delta":44273755},{"NoteNumber":69,"Velocity":59,"Duration":77543,"SoundDuration":77543,"Delta":44352213},{"NoteNumber":76,"Velocity":59,"Duration":78908,"SoundDuration":78908,"Delta":44424859},{"NoteNumber":31,"Velocity":77,"Duration":236835,"SoundDuration":236835,"Delta":44426797},{"NoteNumber":43,"Velocity":77,"Duration":236835,"SoundDuration":236835,"Delta":44426797},{"NoteNumber":71,"Velocity":59,"Duration":78945,"SoundDuration":78945,"Delta":44506729},{"NoteNumber":74,"Velocity":59,"Duration":78945,"SoundDuration":78945,"Delta":44584687},{"NoteNumber":77,"Velocity":59,"Duration":78945,"SoundDuration":78945,"Delta":44662646},{"NoteNumber":88,"Velocity":59,"Duration":78945,"SoundDuration":78945,"Delta":44740604},{"NoteNumber":83,"Velocity":59,"Duration":78901,"SoundDuration":78901,"Delta":44824484},{"NoteNumber":86,"Velocity":55,"Duration":77807,"SoundDuration":77807,"Delta":44898495},{"NoteNumber":55,"Velocity":70,"Duration":466672,"SoundDuration":466672,"Delta":44900469},{"NoteNumber":59,"Velocity":70,"Duration":155557,"SoundDuration":155557,"Delta":44900469},{"NoteNumber":89,"Velocity":53,"Duration":77778,"SoundDuration":77778,"Delta":44978247},{"NoteNumber":65,"Velocity":63,"Duration":155557,"SoundDuration":155557,"Delta":45056026},{"NoteNumber":100,"Velocity":55,"Duration":77778,"SoundDuration":77778,"Delta":45056998},{"NoteNumber":95,"Velocity":56,"Duration":77778,"SoundDuration":77778,"Delta":45132832},{"NoteNumber":69,"Velocity":63,"Duration":155557,"SoundDuration":155557,"Delta":45211583},{"NoteNumber":98,"Velocity":57,"Duration":77778,"SoundDuration":77778,"Delta":45212555},{"NoteNumber":89,"Velocity":58,"Duration":77778,"SoundDuration":77778,"Delta":45288390},{"NoteNumber":93,"Velocity":57,"Duration":77778,"SoundDuration":77778,"Delta":45366168},{"NoteNumber":67,"Velocity":70,"Duration":466671,"SoundDuration":466671,"Delta":45367141},{"NoteNumber":89,"Velocity":57,"Duration":77778,"SoundDuration":77778,"Delta":45442975},{"NoteNumber":91,"Velocity":56,"Duration":77778,"SoundDuration":77778,"Delta":45524642},{"NoteNumber":83,"Velocity":56,"Duration":77778,"SoundDuration":77778,"Delta":45598532},{"NoteNumber":81,"Velocity":55,"Duration":77778,"SoundDuration":77778,"Delta":45677283},{"NoteNumber":77,"Velocity":55,"Duration":77815,"SoundDuration":77815,"Delta":45757978},{"NoteNumber":55,"Velocity":68,"Duration":475436,"SoundDuration":475436,"Delta":45833813},{"NoteNumber":59,"Velocity":68,"Duration":475436,"SoundDuration":475436,"Delta":45833813},{"NoteNumber":65,"Velocity":68,"Duration":475436,"SoundDuration":475436,"Delta":45833813},{"NoteNumber":79,"Velocity":55,"Duration":79239,"SoundDuration":79239,"Delta":45836784},{"NoteNumber":71,"Velocity":59,"Duration":79239,"SoundDuration":79239,"Delta":45915033},{"NoteNumber":88,"Velocity":59,"Duration":79239,"SoundDuration":79239,"Delta":45994272},{"NoteNumber":79,"Velocity":59,"Duration":79239,"SoundDuration":79239,"Delta":46072521},{"NoteNumber":86,"Velocity":59,"Duration":79239,"SoundDuration":79239,"Delta":46150770},{"NoteNumber":77,"Velocity":59,"Duration":79239,"SoundDuration":79239,"Delta":46232981},{"NoteNumber":83,"Velocity":59,"Duration":79239,"SoundDuration":79239,"Delta":46308258},{"NoteNumber":36,"Velocity":72,"Duration":237718,"SoundDuration":237718,"Delta":46309249},{"NoteNumber":48,"Velocity":72,"Duration":237718,"SoundDuration":237718,"Delta":46309249},{"NoteNumber":79,"Velocity":59,"Duration":79239,"SoundDuration":79239,"Delta":46391459},{"NoteNumber":84,"Velocity":59,"Duration":79239,"SoundDuration":79239,"Delta":46466737},{"NoteNumber":76,"Velocity":59,"Duration":79239,"SoundDuration":79239,"Delta":46545976},{"NoteNumber":87,"Velocity":59,"Duration":79239,"SoundDuration":79239,"Delta":46627196},{"NoteNumber":48,"Velocity":55,"Duration":594295,"SoundDuration":594295,"Delta":46665825},{"NoteNumber":84,"Velocity":59,"Duration":79239,"SoundDuration":79239,"Delta":46708417},{"NoteNumber":55,"Velocity":55,"Duration":534865,"SoundDuration":534865,"Delta":46725255},{"NoteNumber":88,"Velocity":59,"Duration":79239,"SoundDuration":79239,"Delta":46782704},{"NoteNumber":64,"Velocity":63,"Duration":475436,"SoundDuration":475436,"Delta":46784684},{"NoteNumber":79,"Velocity":59,"Duration":79239,"SoundDuration":79239,"Delta":46861943},{"NoteNumber":90,"Velocity":59,"Duration":79239,"SoundDuration":79239,"Delta":46944154},{"NoteNumber":88,"Velocity":55,"Duration":79239,"SoundDuration":79239,"Delta":47022403},{"NoteNumber":91,"Velocity":59,"Duration":79239,"SoundDuration":79239,"Delta":47099661},{"NoteNumber":84,"Velocity":55,"Duration":79239,"SoundDuration":79239,"Delta":47179891},{"NoteNumber":94,"Velocity":59,"Duration":79239,"SoundDuration":79239,"Delta":47263092},{"NoteNumber":91,"Velocity":51,"Duration":79239,"SoundDuration":79239,"Delta":47338369},{"NoteNumber":95,"Velocity":58,"Duration":79239,"SoundDuration":79239,"Delta":47416618},{"NoteNumber":88,"Velocity":55,"Duration":79239,"SoundDuration":79239,"Delta":47495858},{"NoteNumber":96,"Velocity":59,"Duration":79239,"SoundDuration":79239,"Delta":47580049},{"NoteNumber":91,"Velocity":58,"Duration":79239,"SoundDuration":79239,"Delta":47654336},{"NoteNumber":97,"Velocity":61,"Duration":79239,"SoundDuration":79239,"Delta":47733576},{"NoteNumber":88,"Velocity":59,"Duration":79239,"SoundDuration":79239,"Delta":47812815},{"NoteNumber":98,"Velocity":64,"Duration":79239,"SoundDuration":79239,"Delta":47894035},{"NoteNumber":91,"Velocity":62,"Duration":79239,"SoundDuration":79239,"Delta":47976246},{"NoteNumber":99,"Velocity":69,"Duration":79239,"SoundDuration":79239,"Delta":48052514},{"NoteNumber":88,"Velocity":67,"Duration":79239,"SoundDuration":79239,"Delta":48131753},{"NoteNumber":40,"Velocity":90,"Duration":241351,"SoundDuration":241351,"Delta":48210993},{"NoteNumber":28,"Velocity":90,"Duration":241351,"SoundDuration":241351,"Delta":48210993},{"NoteNumber":100,"Velocity":89,"Duration":80450,"SoundDuration":80450,"Delta":48214009},{"NoteNumber":95,"Velocity":64,"Duration":80450,"SoundDuration":80450,"Delta":48294460},{"NoteNumber":99,"Velocity":75,"Duration":80450,"SoundDuration":80450,"Delta":48372899},{"NoteNumber":91,"Velocity":64,"Duration":80450,"SoundDuration":80450,"Delta":48455361},{"NoteNumber":98,"Velocity":73,"Duration":80450,"SoundDuration":80450,"Delta":48534806},{"NoteNumber":95,"Velocity":64,"Duration":80450,"SoundDuration":80450,"Delta":48613245},{"NoteNumber":97,"Velocity":61,"Duration":77526,"SoundDuration":77526,"Delta":48692690},{"NoteNumber":59,"Velocity":77,"Duration":348702,"SoundDuration":348702,"Delta":48693696},{"NoteNumber":55,"Velocity":66,"Duration":348702,"SoundDuration":348702,"Delta":48693696},{"NoteNumber":52,"Velocity":66,"Duration":348702,"SoundDuration":348702,"Delta":48693696},{"NoteNumber":91,"Velocity":59,"Duration":77489,"SoundDuration":77489,"Delta":48769248},{"NoteNumber":96,"Velocity":61,"Duration":77489,"SoundDuration":77489,"Delta":48849643},{"NoteNumber":91,"Velocity":59,"Duration":77489,"SoundDuration":77489,"Delta":48929069},{"NoteNumber":95,"Velocity":61,"Duration":77489,"SoundDuration":77489,"Delta":49003653},{"NoteNumber":52,"Velocity":60,"Duration":116233,"SoundDuration":116233,"Delta":49042398},{"NoteNumber":55,"Velocity":60,"Duration":116233,"SoundDuration":116233,"Delta":49042398},{"NoteNumber":59,"Velocity":72,"Duration":116233,"SoundDuration":116233,"Delta":49042398},{"NoteNumber":88,"Velocity":59,"Duration":77489,"SoundDuration":77489,"Delta":49080174},{"NoteNumber":59,"Velocity":77,"Duration":470145,"SoundDuration":470145,"Delta":49158632},{"NoteNumber":55,"Velocity":66,"Duration":470145,"SoundDuration":470145,"Delta":49158632},{"NoteNumber":52,"Velocity":66,"Duration":470145,"SoundDuration":470145,"Delta":49158632},{"NoteNumber":94,"Velocity":69,"Duration":78357,"SoundDuration":78357,"Delta":49159611},{"NoteNumber":91,"Velocity":64,"Duration":78357,"SoundDuration":78357,"Delta":49236010},{"NoteNumber":93,"Velocity":69,"Duration":78357,"SoundDuration":78357,"Delta":49317306},{"NoteNumber":88,"Velocity":64,"Duration":78357,"SoundDuration":78357,"Delta":49396643},{"NoteNumber":92,"Velocity":69,"Duration":78357,"SoundDuration":78357,"Delta":49472062},{"NoteNumber":88,"Velocity":64,"Duration":78272,"SoundDuration":78272,"Delta":49553358},{"NoteNumber":91,"Velocity":69,"Duration":76154,"SoundDuration":76154,"Delta":49626819},{"NoteNumber":52,"Velocity":67,"Duration":456586,"SoundDuration":456586,"Delta":49628778},{"NoteNumber":55,"Velocity":67,"Duration":456586,"SoundDuration":456586,"Delta":49628778},{"NoteNumber":60,"Velocity":80,"Duration":456586,"SoundDuration":456586,"Delta":49628778},{"NoteNumber":84,"Velocity":59,"Duration":76097,"SoundDuration":76097,"Delta":49707729},{"NoteNumber":90,"Velocity":61,"Duration":76097,"SoundDuration":76097,"Delta":49781924},{"NoteNumber":84,"Velocity":59,"Duration":76097,"SoundDuration":76097,"Delta":49858973},{"NoteNumber":89,"Velocity":61,"Duration":76097,"SoundDuration":76097,"Delta":49934119},{"NoteNumber":79,"Velocity":59,"Duration":76097,"SoundDuration":76097,"Delta":50007363},{"NoteNumber":88,"Velocity":69,"Duration":78615,"SoundDuration":78615,"Delta":50084412},{"NoteNumber":52,"Velocity":66,"Duration":471884,"SoundDuration":471884,"Delta":50085364},{"NoteNumber":55,"Velocity":66,"Duration":471884,"SoundDuration":471884,"Delta":50085364},{"NoteNumber":59,"Velocity":77,"Duration":471884,"SoundDuration":471884,"Delta":50085364},{"NoteNumber":83,"Velocity":64,"Duration":78647,"SoundDuration":78647,"Delta":50164011},{"NoteNumber":87,"Velocity":69,"Duration":78647,"SoundDuration":78647,"Delta":50240692},{"NoteNumber":79,"Velocity":64,"Duration":78647,"SoundDuration":78647,"Delta":50321306},{"NoteNumber":86,"Velocity":69,"Duration":78647,"SoundDuration":78647,"Delta":50397987},{"NoteNumber":83,"Velocity":64,"Duration":78701,"SoundDuration":78701,"Delta":50479583},{"NoteNumber":52,"Velocity":60,"Duration":497801,"SoundDuration":497801,"Delta":50557248},{"NoteNumber":55,"Velocity":72,"Duration":497801,"SoundDuration":497801,"Delta":50557248},{"NoteNumber":47,"Velocity":60,"Duration":497801,"SoundDuration":497801,"Delta":50557248},{"NoteNumber":85,"Velocity":61,"Duration":82966,"SoundDuration":82966,"Delta":50560359},{"NoteNumber":79,"Velocity":59,"Duration":82966,"SoundDuration":82966,"Delta":50638140},{"NoteNumber":84,"Velocity":61,"Duration":82966,"SoundDuration":82966,"Delta":50725255},{"NoteNumber":79,"Velocity":59,"Duration":82966,"SoundDuration":82966,"Delta":50807185},{"NoteNumber":83,"Velocity":61,"Duration":82966,"SoundDuration":82966,"Delta":50891189},{"NoteNumber":76,"Velocity":59,"Duration":82809,"SoundDuration":82809,"Delta":50974156},{"NoteNumber":52,"Velocity":60,"Duration":919891,"SoundDuration":919891,"Delta":51055049},{"NoteNumber":59,"Velocity":72,"Duration":919891,"SoundDuration":919891,"Delta":51055049},{"NoteNumber":55,"Velocity":60,"Duration":919891,"SoundDuration":919891,"Delta":51055049},{"NoteNumber":82,"Velocity":69,"Duration":76657,"SoundDuration":76657,"Delta":51056007},{"NoteNumber":79,"Velocity":64,"Duration":76657,"SoundDuration":76657,"Delta":51133623},{"NoteNumber":81,"Velocity":69,"Duration":76657,"SoundDuration":76657,"Delta":51206447},{"NoteNumber":76,"Velocity":64,"Duration":76657,"SoundDuration":76657,"Delta":51286938},{"NoteNumber":80,"Velocity":69,"Duration":76657,"SoundDuration":76657,"Delta":51363596},{"NoteNumber":76,"Velocity":64,"Duration":76657,"SoundDuration":76657,"Delta":51440253},{"NoteNumber":79,"Velocity":69,"Duration":76657,"SoundDuration":76657,"Delta":51513078},{"NoteNumber":71,"Velocity":59,"Duration":76657,"SoundDuration":76657,"Delta":51594527},{"NoteNumber":78,"Velocity":61,"Duration":76657,"SoundDuration":76657,"Delta":51669268},{"NoteNumber":71,"Velocity":59,"Duration":76657,"SoundDuration":76657,"Delta":51746884},{"NoteNumber":77,"Velocity":61,"Duration":76657,"SoundDuration":76657,"Delta":51819709},{"NoteNumber":67,"Velocity":59,"Duration":76686,"SoundDuration":76686,"Delta":51899241},{"NoteNumber":28,"Velocity":74,"Duration":236835,"SoundDuration":236835,"Delta":51974941},{"NoteNumber":76,"Velocity":59,"Duration":78945,"SoundDuration":78945,"Delta":51977901},{"NoteNumber":71,"Velocity":55,"Duration":78945,"SoundDuration":78945,"Delta":52051912},{"NoteNumber":75,"Velocity":59,"Duration":78945,"SoundDuration":78945,"Delta":52131844},{"NoteNumber":67,"Velocity":55,"Duration":78945,"SoundDuration":78945,"Delta":52209803},{"NoteNumber":74,"Velocity":59,"Duration":78945,"SoundDuration":78945,"Delta":52293682},{"NoteNumber":71,"Velocity":55,"Duration":78927,"SoundDuration":78927,"Delta":52370654},{"NoteNumber":73,"Velocity":59,"Duration":77507,"SoundDuration":77507,"Delta":52447626},{"NoteNumber":40,"Velocity":58,"Duration":348702,"SoundDuration":348702,"Delta":52448613},{"NoteNumber":47,"Velocity":69,"Duration":348702,"SoundDuration":348702,"Delta":52448613},{"NoteNumber":67,"Velocity":55,"Duration":77489,"SoundDuration":77489,"Delta":52529008},{"NoteNumber":72,"Velocity":59,"Duration":77489,"SoundDuration":77489,"Delta":52603591},{"NoteNumber":67,"Velocity":55,"Duration":77489,"SoundDuration":77489,"Delta":52683018},{"NoteNumber":71,"Velocity":59,"Duration":77489,"SoundDuration":77489,"Delta":52757601},{"NoteNumber":47,"Velocity":61,"Duration":116233,"SoundDuration":116233,"Delta":52797315},{"NoteNumber":40,"Velocity":50,"Duration":116233,"SoundDuration":116233,"Delta":52797315},{"NoteNumber":64,"Velocity":55,"Duration":77489,"SoundDuration":77489,"Delta":52834122},{"NoteNumber":70,"Velocity":59,"Duration":78927,"SoundDuration":78927,"Delta":52912580},{"NoteNumber":40,"Velocity":60,"Duration":473672,"SoundDuration":473672,"Delta":52913549},{"NoteNumber":47,"Velocity":70,"Duration":473672,"SoundDuration":473672,"Delta":52913549},{"NoteNumber":67,"Velocity":55,"Duration":78945,"SoundDuration":78945,"Delta":52993481},{"NoteNumber":69,"Velocity":59,"Duration":78945,"SoundDuration":78945,"Delta":53074400},{"NoteNumber":64,"Velocity":55,"Duration":78945,"SoundDuration":78945,"Delta":53148411},{"NoteNumber":68,"Velocity":59,"Duration":78945,"SoundDuration":78945,"Delta":53232290},{"NoteNumber":64,"Velocity":55,"Duration":78945,"SoundDuration":78945,"Delta":53308275},{"NoteNumber":67,"Velocity":59,"Duration":75915,"SoundDuration":75915,"Delta":53385247},{"NoteNumber":40,"Velocity":52,"Duration":455027,"SoundDuration":455027,"Delta":53387221},{"NoteNumber":48,"Velocity":62,"Duration":455027,"SoundDuration":455027,"Delta":53387221},{"NoteNumber":60,"Velocity":55,"Duration":75837,"SoundDuration":75837,"Delta":53464954},{"NoteNumber":66,"Velocity":59,"Duration":75837,"SoundDuration":75837,"Delta":53537949},{"NoteNumber":60,"Velocity":55,"Duration":75837,"SoundDuration":75837,"Delta":53617578},{"NoteNumber":65,"Velocity":59,"Duration":75837,"SoundDuration":75837,"Delta":53692468},{"NoteNumber":55,"Velocity":55,"Duration":75943,"SoundDuration":75943,"Delta":53769254},{"NoteNumber":64,"Velocity":55,"Duration":78612,"SoundDuration":78612,"Delta":53841301},{"NoteNumber":40,"Velocity":55,"Duration":471884,"SoundDuration":471884,"Delta":53842249},{"NoteNumber":47,"Velocity":63,"Duration":471884,"SoundDuration":471884,"Delta":53842249},{"NoteNumber":59,"Velocity":50,"Duration":78647,"SoundDuration":78647,"Delta":53920896},{"NoteNumber":63,"Velocity":53,"Duration":78647,"SoundDuration":78647,"Delta":53997577},{"NoteNumber":55,"Velocity":47,"Duration":78647,"SoundDuration":78647,"Delta":54080157},{"NoteNumber":62,"Velocity":50,"Duration":78647,"SoundDuration":78647,"Delta":54154872},{"NoteNumber":59,"Velocity":46,"Duration":78647,"SoundDuration":78647,"Delta":54235485},{"NoteNumber":61,"Velocity":49,"Duration":81958,"SoundDuration":81958,"Delta":54313149},{"NoteNumber":28,"Velocity":55,"Duration":1425348,"SoundDuration":1425348,"Delta":54314133},{"NoteNumber":55,"Velocity":45,"Duration":82000,"SoundDuration":82000,"Delta":54399208},{"NoteNumber":60,"Velocity":47,"Duration":82000,"SoundDuration":82000,"Delta":54476084},{"NoteNumber":55,"Velocity":45,"Duration":82000,"SoundDuration":82000,"Delta":54559110},{"NoteNumber":59,"Velocity":46,"Duration":82000,"SoundDuration":82000,"Delta":54641111},{"NoteNumber":52,"Velocity":42,"Duration":82000,"SoundDuration":82000,"Delta":54723112},{"NoteNumber":58,"Velocity":45,"Duration":77884,"SoundDuration":77884,"Delta":54804087},{"NoteNumber":35,"Velocity":58,"Duration":933343,"SoundDuration":933343,"Delta":54806138},{"NoteNumber":55,"Velocity":45,"Duration":77778,"SoundDuration":77778,"Delta":54884888},{"NoteNumber":57,"Velocity":47,"Duration":77778,"SoundDuration":77778,"Delta":54964612},{"NoteNumber":47,"Velocity":45,"Duration":77778,"SoundDuration":77778,"Delta":55042390},{"NoteNumber":56,"Velocity":47,"Duration":77778,"SoundDuration":77778,"Delta":55116280},{"NoteNumber":52,"Velocity":46,"Duration":77778,"SoundDuration":77778,"Delta":55196975},{"NoteNumber":55,"Velocity":49,"Duration":77778,"SoundDuration":77778,"Delta":55273782},{"NoteNumber":47,"Velocity":46,"Duration":77778,"SoundDuration":77778,"Delta":55351560},{"NoteNumber":54,"Velocity":49,"Duration":77778,"SoundDuration":77778,"Delta":55431284},{"NoteNumber":52,"Velocity":46,"Duration":77778,"SoundDuration":77778,"Delta":55506146},{"NoteNumber":55,"Velocity":50,"Duration":77778,"SoundDuration":77778,"Delta":55586841},{"NoteNumber":48,"Velocity":50,"Duration":77815,"SoundDuration":77815,"Delta":55662675},{"NoteNumber":59,"Velocity":59,"Duration":80668,"SoundDuration":80668,"Delta":55737537},{"NoteNumber":27,"Velocity":70,"Duration":242228,"SoundDuration":242228,"Delta":55739482},{"NoteNumber":54,"Velocity":59,"Duration":80742,"SoundDuration":80742,"Delta":55821234},{"NoteNumber":57,"Velocity":59,"Duration":80742,"SoundDuration":80742,"Delta":55901976},{"NoteNumber":60,"Velocity":59,"Duration":80742,"SoundDuration":80742,"Delta":55981710},{"NoteNumber":71,"Velocity":59,"Duration":80742,"SoundDuration":80742,"Delta":56065481},{"NoteNumber":66,"Velocity":59,"Duration":80709,"SoundDuration":80709,"Delta":56144205},{"NoteNumber":60,"Velocity":77,"Duration":351287,"SoundDuration":351287,"Delta":56223939},{"NoteNumber":51,"Velocity":77,"Duration":351287,"SoundDuration":351287,"Delta":56223939},{"NoteNumber":69,"Velocity":62,"Duration":78063,"SoundDuration":78063,"Delta":56224914},{"NoteNumber":72,"Velocity":66,"Duration":78064,"SoundDuration":78064,"Delta":56302978},{"NoteNumber":83,"Velocity":67,"Duration":78063,"SoundDuration":78063,"Delta":56379091},{"NoteNumber":78,"Velocity":69,"Duration":78063,"SoundDuration":78063,"Delta":56458131},{"NoteNumber":81,"Velocity":69,"Duration":78064,"SoundDuration":78064,"Delta":56536195},{"NoteNumber":60,"Velocity":73,"Duration":117096,"SoundDuration":117096,"Delta":56575227},{"NoteNumber":51,"Velocity":73,"Duration":117096,"SoundDuration":117096,"Delta":56575227},{"NoteNumber":72,"Velocity":69,"Duration":78064,"SoundDuration":78064,"Delta":56612307},{"NoteNumber":52,"Velocity":77,"Duration":468384,"SoundDuration":468384,"Delta":56692323},{"NoteNumber":60,"Velocity":77,"Duration":468384,"SoundDuration":468384,"Delta":56692323},{"NoteNumber":81,"Velocity":68,"Duration":78064,"SoundDuration":78064,"Delta":56694274},{"NoteNumber":76,"Velocity":67,"Duration":78063,"SoundDuration":78063,"Delta":56769411},{"NoteNumber":79,"Velocity":66,"Duration":78064,"SoundDuration":78064,"Delta":56846499},{"NoteNumber":72,"Velocity":62,"Duration":78063,"SoundDuration":78063,"Delta":56926515},{"NoteNumber":69,"Velocity":61,"Duration":78064,"SoundDuration":78064,"Delta":57005554},{"NoteNumber":64,"Velocity":60,"Duration":78064,"SoundDuration":78064,"Delta":57080691},{"NoteNumber":67,"Velocity":58,"Duration":78934,"SoundDuration":78934,"Delta":57159731},{"NoteNumber":28,"Velocity":66,"Duration":473672,"SoundDuration":473672,"Delta":57160707},{"NoteNumber":40,"Velocity":77,"Duration":473672,"SoundDuration":473672,"Delta":57160707},{"NoteNumber":60,"Velocity":58,"Duration":78945,"SoundDuration":78945,"Delta":57237678},{"NoteNumber":57,"Velocity":58,"Duration":78945,"SoundDuration":78945,"Delta":57319584},{"NoteNumber":52,"Velocity":58,"Duration":78945,"SoundDuration":78945,"Delta":57397543},{"NoteNumber":55,"Velocity":58,"Duration":78945,"SoundDuration":78945,"Delta":57477475},{"NoteNumber":48,"Velocity":58,"Duration":78975,"SoundDuration":78975,"Delta":57557407},{"NoteNumber":59,"Velocity":59,"Duration":80134,"SoundDuration":80134,"Delta":57634379},{"NoteNumber":27,"Velocity":67,"Duration":240403,"SoundDuration":240403,"Delta":57634379},{"NoteNumber":39,"Velocity":67,"Duration":240403,"SoundDuration":240403,"Delta":57634379},{"NoteNumber":54,"Velocity":59,"Duration":80134,"SoundDuration":80134,"Delta":57716517},{"NoteNumber":57,"Velocity":59,"Duration":80134,"SoundDuration":80134,"Delta":57794648},{"NoteNumber":60,"Velocity":59,"Duration":80134,"SoundDuration":80134,"Delta":57877788},{"NoteNumber":71,"Velocity":59,"Duration":80134,"SoundDuration":80134,"Delta":57955919},{"NoteNumber":66,"Velocity":59,"Duration":80134,"SoundDuration":80134,"Delta":58034050},{"NoteNumber":62,"Velocity":77,"Duration":167223,"SoundDuration":167223,"Delta":58115187},{"NoteNumber":51,"Velocity":77,"Duration":167223,"SoundDuration":167223,"Delta":58115187},{"NoteNumber":69,"Velocity":64,"Duration":83611,"SoundDuration":83611,"Delta":58118322},{"NoteNumber":72,"Velocity":66,"Duration":83612,"SoundDuration":83612,"Delta":58201934},{"NoteNumber":83,"Velocity":67,"Duration":83612,"SoundDuration":83612,"Delta":58282411},{"NoteNumber":60,"Velocity":72,"Duration":243881,"SoundDuration":243881,"Delta":58282411},{"NoteNumber":51,"Velocity":72,"Duration":243881,"SoundDuration":243881,"Delta":58282411},{"NoteNumber":78,"Velocity":68,"Duration":80134,"SoundDuration":80134,"Delta":58369028},{"NoteNumber":81,"Velocity":69,"Duration":80134,"SoundDuration":80134,"Delta":58445155},{"NoteNumber":51,"Velocity":73,"Duration":80134,"SoundDuration":80134,"Delta":58526292},{"NoteNumber":59,"Velocity":73,"Duration":80134,"SoundDuration":80134,"Delta":58526292},{"NoteNumber":71,"Velocity":70,"Duration":80134,"SoundDuration":80134,"Delta":58529297},{"NoteNumber":59,"Velocity":77,"Duration":480808,"SoundDuration":480808,"Delta":58606427},{"NoteNumber":52,"Velocity":77,"Duration":480808,"SoundDuration":480808,"Delta":58606427},{"NoteNumber":81,"Velocity":70,"Duration":80134,"SoundDuration":80134,"Delta":58607428},{"NoteNumber":76,"Velocity":69,"Duration":80134,"SoundDuration":80134,"Delta":58686561},{"NoteNumber":79,"Velocity":68,"Duration":80134,"SoundDuration":80134,"Delta":58767698},{"NoteNumber":71,"Velocity":67,"Duration":80134,"SoundDuration":80134,"Delta":58848834},{"NoteNumber":69,"Velocity":66,"Duration":80134,"SoundDuration":80134,"Delta":58924962},{"NoteNumber":64,"Velocity":64,"Duration":80134,"SoundDuration":80134,"Delta":59006098},{"NoteNumber":67,"Velocity":59,"Duration":78379,"SoundDuration":78379,"Delta":59086233},{"NoteNumber":28,"Velocity":67,"Duration":470145,"SoundDuration":470145,"Delta":59087235},{"NoteNumber":40,"Velocity":79,"Duration":470145,"SoundDuration":470145,"Delta":59087235},{"NoteNumber":59,"Velocity":59,"Duration":78357,"SoundDuration":78357,"Delta":59165592},{"NoteNumber":57,"Velocity":59,"Duration":78357,"SoundDuration":78357,"Delta":59246888},{"NoteNumber":52,"Velocity":59,"Duration":78357,"SoundDuration":78357,"Delta":59324266},{"NoteNumber":55,"Velocity":59,"Duration":78357,"SoundDuration":78357,"Delta":59402624},{"NoteNumber":54,"Velocity":59,"Duration":78357,"SoundDuration":78357,"Delta":59481961},{"NoteNumber":64,"Velocity":59,"Duration":78357,"SoundDuration":78357,"Delta":59557381},{"NoteNumber":42,"Velocity":69,"Duration":235072,"SoundDuration":235072,"Delta":59557381},{"NoteNumber":30,"Velocity":69,"Duration":235072,"SoundDuration":235072,"Delta":59557381},{"NoteNumber":59,"Velocity":58,"Duration":78357,"SoundDuration":78357,"Delta":59635738},{"NoteNumber":63,"Velocity":58,"Duration":78357,"SoundDuration":78357,"Delta":59717034},{"NoteNumber":66,"Velocity":58,"Duration":78357,"SoundDuration":78357,"Delta":59791474},{"NoteNumber":76,"Velocity":58,"Duration":78357,"SoundDuration":78357,"Delta":59870811},{"NoteNumber":71,"Velocity":58,"Duration":78350,"SoundDuration":78350,"Delta":59950148},{"NoteNumber":75,"Velocity":58,"Duration":77778,"SoundDuration":77778,"Delta":60027527},{"NoteNumber":59,"Velocity":70,"Duration":155557,"SoundDuration":155557,"Delta":60027527},{"NoteNumber":54,"Velocity":60,"Duration":466672,"SoundDuration":466672,"Delta":60027527},{"NoteNumber":78,"Velocity":58,"Duration":77778,"SoundDuration":77778,"Delta":60107250},{"NoteNumber":63,"Velocity":66,"Duration":155557,"SoundDuration":155557,"Delta":60183084},{"NoteNumber":88,"Velocity":59,"Duration":77778,"SoundDuration":77778,"Delta":60185028},{"NoteNumber":83,"Velocity":59,"Duration":77778,"SoundDuration":77778,"Delta":60262807},{"NoteNumber":68,"Velocity":70,"Duration":155557,"SoundDuration":155557,"Delta":60338641},{"NoteNumber":87,"Velocity":61,"Duration":77778,"SoundDuration":77778,"Delta":60340586},{"NoteNumber":78,"Velocity":62,"Duration":77778,"SoundDuration":77778,"Delta":60414475},{"NoteNumber":87,"Velocity":64,"Duration":77778,"SoundDuration":77778,"Delta":60493226},{"NoteNumber":58,"Velocity":60,"Duration":466671,"SoundDuration":466671,"Delta":60494199},{"NoteNumber":66,"Velocity":70,"Duration":466671,"SoundDuration":466671,"Delta":60494199},{"NoteNumber":64,"Velocity":70,"Duration":466671,"SoundDuration":466671,"Delta":60494199},{"NoteNumber":54,"Velocity":60,"Duration":466671,"SoundDuration":466671,"Delta":60494199},{"NoteNumber":82,"Velocity":64,"Duration":77778,"SoundDuration":77778,"Delta":60571005},{"NoteNumber":85,"Velocity":61,"Duration":77778,"SoundDuration":77778,"Delta":60651700},{"NoteNumber":78,"Velocity":60,"Duration":77778,"SoundDuration":77778,"Delta":60730451},{"NoteNumber":75,"Velocity":59,"Duration":77778,"SoundDuration":77778,"Delta":60805313},{"NoteNumber":70,"Velocity":59,"Duration":77800,"SoundDuration":77800,"Delta":60884064},{"NoteNumber":73,"Velocity":55,"Duration":79491,"SoundDuration":79491,"Delta":60958926},{"NoteNumber":42,"Velocity":77,"Duration":477212,"SoundDuration":477212,"Delta":60960871},{"NoteNumber":30,"Velocity":66,"Duration":477212,"SoundDuration":477212,"Delta":60960871},{"NoteNumber":66,"Velocity":55,"Duration":79535,"SoundDuration":79535,"Delta":61043389},{"NoteNumber":63,"Velocity":55,"Duration":79535,"SoundDuration":79535,"Delta":61118947},{"NoteNumber":58,"Velocity":55,"Duration":79535,"SoundDuration":79535,"Delta":61200471},{"NoteNumber":61,"Velocity":55,"Duration":79535,"SoundDuration":79535,"Delta":61280007},{"NoteNumber":54,"Velocity":55,"Duration":79535,"SoundDuration":79535,"Delta":61358548},{"NoteNumber":35,"Velocity":66,"Duration":238606,"SoundDuration":238606,"Delta":61438084},{"NoteNumber":47,"Velocity":77,"Duration":238606,"SoundDuration":238606,"Delta":61438084},{"NoteNumber":63,"Velocity":55,"Duration":79535,"SoundDuration":79535,"Delta":61440072},{"NoteNumber":59,"Velocity":55,"Duration":79535,"SoundDuration":79535,"Delta":61515631},{"NoteNumber":63,"Velocity":55,"Duration":79535,"SoundDuration":79535,"Delta":61595166},{"NoteNumber":66,"Velocity":55,"Duration":79535,"SoundDuration":79535,"Delta":61674702},{"NoteNumber":76,"Velocity":55,"Duration":79535,"SoundDuration":79535,"Delta":61754237},{"NoteNumber":71,"Velocity":55,"Duration":79535,"SoundDuration":79535,"Delta":61835761},{"NoteNumber":75,"Velocity":55,"Duration":79535,"SoundDuration":79535,"Delta":61914302},{"NoteNumber":54,"Velocity":56,"Duration":159071,"SoundDuration":159071,"Delta":61915297},{"NoteNumber":63,"Velocity":67,"Duration":159071,"SoundDuration":159071,"Delta":61915297},{"NoteNumber":78,"Velocity":59,"Duration":79535,"SoundDuration":79535,"Delta":61996820},{"NoteNumber":88,"Velocity":59,"Duration":79535,"SoundDuration":79535,"Delta":62072379},{"NoteNumber":53,"Velocity":49,"Duration":159070,"SoundDuration":159070,"Delta":62074368},{"NoteNumber":62,"Velocity":58,"Duration":159070,"SoundDuration":159070,"Delta":62074368},{"NoteNumber":83,"Velocity":59,"Duration":79535,"SoundDuration":79535,"Delta":62153903},{"NoteNumber":87,"Velocity":59,"Duration":79535,"SoundDuration":79535,"Delta":62231450},{"NoteNumber":63,"Velocity":63,"Duration":159070,"SoundDuration":159070,"Delta":62233439},{"NoteNumber":54,"Velocity":55,"Duration":159070,"SoundDuration":159070,"Delta":62233439},{"NoteNumber":78,"Velocity":59,"Duration":79535,"SoundDuration":79535,"Delta":62314962},{"NoteNumber":95,"Velocity":83,"Duration":238606,"SoundDuration":238606,"Delta":62392510},{"NoteNumber":51,"Velocity":65,"Duration":238606,"SoundDuration":238606,"Delta":62392510},{"NoteNumber":59,"Velocity":76,"Duration":238606,"SoundDuration":238606,"Delta":62392510},{"NoteNumber":47,"Velocity":65,"Duration":238606,"SoundDuration":238606,"Delta":62392510},{"NoteNumber":40,"Velocity":90,"Duration":241351,"SoundDuration":241351,"Delta":63346936},{"NoteNumber":96,"Velocity":94,"Duration":80450,"SoundDuration":80450,"Delta":63348947},{"NoteNumber":91,"Velocity":70,"Duration":80450,"SoundDuration":80450,"Delta":63426380},{"NoteNumber":95,"Velocity":90,"Duration":80450,"SoundDuration":80450,"Delta":63509848},{"NoteNumber":88,"Velocity":70,"Duration":80450,"SoundDuration":80450,"Delta":63589293},{"NoteNumber":94,"Velocity":88,"Duration":80450,"SoundDuration":80450,"Delta":63669743},{"NoteNumber":91,"Velocity":70,"Duration":80413,"SoundDuration":80413,"Delta":63750194},{"NoteNumber":93,"Velocity":85,"Duration":77563,"SoundDuration":77563,"Delta":63827627},{"NoteNumber":59,"Velocity":77,"Duration":348702,"SoundDuration":348702,"Delta":63829639},{"NoteNumber":55,"Velocity":66,"Duration":348702,"SoundDuration":348702,"Delta":63829639},{"NoteNumber":52,"Velocity":66,"Duration":348702,"SoundDuration":348702,"Delta":63829639},{"NoteNumber":88,"Velocity":68,"Duration":77489,"SoundDuration":77489,"Delta":63908096},{"NoteNumber":92,"Velocity":84,"Duration":77489,"SoundDuration":77489,"Delta":63982680},{"NoteNumber":88,"Velocity":68,"Duration":77489,"SoundDuration":77489,"Delta":64065012},{"NoteNumber":91,"Velocity":80,"Duration":77489,"SoundDuration":77489,"Delta":64139596},{"NoteNumber":52,"Velocity":60,"Duration":116233,"SoundDuration":116233,"Delta":64178341},{"NoteNumber":55,"Velocity":60,"Duration":116233,"SoundDuration":116233,"Delta":64178341},{"NoteNumber":59,"Velocity":72,"Duration":116233,"SoundDuration":116233,"Delta":64178341},{"NoteNumber":83,"Velocity":68,"Duration":77521,"SoundDuration":77521,"Delta":64219991},{"NoteNumber":59,"Velocity":77,"Duration":470145,"SoundDuration":470145,"Delta":64294575},{"NoteNumber":55,"Velocity":66,"Duration":470145,"SoundDuration":470145,"Delta":64294575},{"NoteNumber":52,"Velocity":66,"Duration":470145,"SoundDuration":470145,"Delta":64294575},{"NoteNumber":90,"Velocity":81,"Duration":78357,"SoundDuration":78357,"Delta":64296533},{"NoteNumber":83,"Velocity":70,"Duration":78357,"SoundDuration":78357,"Delta":64373912},{"NoteNumber":89,"Velocity":77,"Duration":78357,"SoundDuration":78357,"Delta":64453249},{"NoteNumber":79,"Velocity":70,"Duration":78357,"SoundDuration":78357,"Delta":64531606},{"NoteNumber":88,"Velocity":77,"Duration":78357,"SoundDuration":78357,"Delta":64608005},{"NoteNumber":83,"Velocity":70,"Duration":78357,"SoundDuration":78357,"Delta":64686363},{"NoteNumber":87,"Velocity":77,"Duration":76964,"SoundDuration":76964,"Delta":64762762},{"NoteNumber":52,"Velocity":67,"Duration":461573,"SoundDuration":461573,"Delta":64764721},{"NoteNumber":55,"Velocity":67,"Duration":461573,"SoundDuration":461573,"Delta":64764721},{"NoteNumber":60,"Velocity":80,"Duration":461573,"SoundDuration":461573,"Delta":64764721},{"NoteNumber":79,"Velocity":68,"Duration":76928,"SoundDuration":76928,"Delta":64843573},{"NoteNumber":86,"Velocity":73,"Duration":76929,"SoundDuration":76929,"Delta":64917617},{"NoteNumber":79,"Velocity":68,"Duration":76929,"SoundDuration":76929,"Delta":64993584},{"NoteNumber":85,"Velocity":70,"Duration":76928,"SoundDuration":76928,"Delta":65071475},{"NoteNumber":76,"Velocity":68,"Duration":76971,"SoundDuration":76971,"Delta":65151289},{"NoteNumber":84,"Velocity":77,"Duration":78625,"SoundDuration":78625,"Delta":65225333},{"NoteNumber":52,"Velocity":66,"Duration":471884,"SoundDuration":471884,"Delta":65226295},{"NoteNumber":55,"Velocity":66,"Duration":471884,"SoundDuration":471884,"Delta":65226295},{"NoteNumber":59,"Velocity":77,"Duration":471884,"SoundDuration":471884,"Delta":65226295},{"NoteNumber":79,"Velocity":70,"Duration":78647,"SoundDuration":78647,"Delta":65303959},{"NoteNumber":83,"Velocity":77,"Duration":78647,"SoundDuration":78647,"Delta":65383589},{"NoteNumber":76,"Velocity":70,"Duration":78647,"SoundDuration":78647,"Delta":65460270},{"NoteNumber":82,"Velocity":77,"Duration":78647,"SoundDuration":78647,"Delta":65540884},{"NoteNumber":79,"Velocity":70,"Duration":78701,"SoundDuration":78701,"Delta":65620514},{"NoteNumber":47,"Velocity":60,"Duration":497800,"SoundDuration":497800,"Delta":65698179},{"NoteNumber":52,"Velocity":60,"Duration":497800,"SoundDuration":497800,"Delta":65698179},{"NoteNumber":55,"Velocity":72,"Duration":497800,"SoundDuration":497800,"Delta":65698179},{"NoteNumber":81,"Velocity":77,"Duration":82966,"SoundDuration":82966,"Delta":65699216},{"NoteNumber":76,"Velocity":68,"Duration":82966,"SoundDuration":82966,"Delta":65783220},{"NoteNumber":80,"Velocity":70,"Duration":82966,"SoundDuration":82966,"Delta":65864112},{"NoteNumber":76,"Velocity":68,"Duration":82966,"SoundDuration":82966,"Delta":65947079},{"NoteNumber":79,"Velocity":70,"Duration":82966,"SoundDuration":82966,"Delta":66033157},{"NoteNumber":71,"Velocity":70,"Duration":82730,"SoundDuration":82730,"Delta":66116124},{"NoteNumber":52,"Velocity":60,"Duration":919892,"SoundDuration":919892,"Delta":66195980},{"NoteNumber":55,"Velocity":60,"Duration":919892,"SoundDuration":919892,"Delta":66195980},{"NoteNumber":59,"Velocity":72,"Duration":919892,"SoundDuration":919892,"Delta":66195980},{"NoteNumber":78,"Velocity":70,"Duration":76657,"SoundDuration":76657,"Delta":66196938},{"NoteNumber":71,"Velocity":68,"Duration":76657,"SoundDuration":76657,"Delta":66275512},{"NoteNumber":77,"Velocity":70,"Duration":76657,"SoundDuration":76657,"Delta":66347378},{"NoteNumber":67,"Velocity":68,"Duration":76657,"SoundDuration":76657,"Delta":66426911},{"NoteNumber":76,"Velocity":70,"Duration":76657,"SoundDuration":76657,"Delta":66505485},{"NoteNumber":71,"Velocity":68,"Duration":76657,"SoundDuration":76657,"Delta":66579268},{"NoteNumber":75,"Velocity":70,"Duration":76657,"SoundDuration":76657,"Delta":66654967},{"NoteNumber":67,"Velocity":68,"Duration":76657,"SoundDuration":76657,"Delta":66731625},{"NoteNumber":74,"Velocity":70,"Duration":76657,"SoundDuration":76657,"Delta":66807324},{"NoteNumber":67,"Velocity":68,"Duration":76657,"SoundDuration":76657,"Delta":66886857},{"NoteNumber":73,"Velocity":70,"Duration":76657,"SoundDuration":76657,"Delta":66962556},{"NoteNumber":64,"Velocity":68,"Duration":76657,"SoundDuration":76657,"Delta":67037297},{"NoteNumber":72,"Velocity":61,"Duration":78888,"SoundDuration":78888,"Delta":67113955},{"NoteNumber":31,"Velocity":62,"Duration":236835,"SoundDuration":236835,"Delta":67115872},{"NoteNumber":67,"Velocity":59,"Duration":78945,"SoundDuration":78945,"Delta":67194817},{"NoteNumber":71,"Velocity":61,"Duration":78945,"SoundDuration":78945,"Delta":67276723},{"NoteNumber":64,"Velocity":59,"Duration":78945,"SoundDuration":78945,"Delta":67355668},{"NoteNumber":70,"Velocity":61,"Duration":78945,"SoundDuration":78945,"Delta":67431653},{"NoteNumber":67,"Velocity":59,"Duration":78908,"SoundDuration":78908,"Delta":67512572},{"NoteNumber":38,"Velocity":58,"Duration":1875427,"SoundDuration":1875427,"Delta":67589544},{"NoteNumber":47,"Velocity":69,"Duration":348702,"SoundDuration":348702,"Delta":67589544},{"NoteNumber":69,"Velocity":61,"Duration":77489,"SoundDuration":77489,"Delta":67590512},{"NoteNumber":64,"Velocity":59,"Duration":77489,"SoundDuration":77489,"Delta":67668970},{"NoteNumber":68,"Velocity":61,"Duration":77489,"SoundDuration":77489,"Delta":67747428},{"NoteNumber":64,"Velocity":59,"Duration":77489,"SoundDuration":77489,"Delta":67822980},{"NoteNumber":67,"Velocity":61,"Duration":77489,"SoundDuration":77489,"Delta":67900469},{"NoteNumber":47,"Velocity":61,"Duration":116233,"SoundDuration":116233,"Delta":67938246},{"NoteNumber":59,"Velocity":59,"Duration":77489,"SoundDuration":77489,"Delta":67975053},{"NoteNumber":47,"Velocity":70,"Duration":473671,"SoundDuration":473671,"Delta":68054480},{"NoteNumber":66,"Velocity":61,"Duration":78945,"SoundDuration":78945,"Delta":68056453},{"NoteNumber":59,"Velocity":58,"Duration":78945,"SoundDuration":78945,"Delta":68133425},{"NoteNumber":65,"Velocity":60,"Duration":78945,"SoundDuration":78945,"Delta":68213357},{"NoteNumber":55,"Velocity":56,"Duration":78945,"SoundDuration":78945,"Delta":68292302},{"NoteNumber":64,"Velocity":59,"Duration":78945,"SoundDuration":78945,"Delta":68371248},{"NoteNumber":59,"Velocity":55,"Duration":78908,"SoundDuration":78908,"Delta":68451180},{"NoteNumber":48,"Velocity":62,"Duration":464935,"SoundDuration":464935,"Delta":68528151},{"NoteNumber":63,"Velocity":59,"Duration":77489,"SoundDuration":77489,"Delta":68530089},{"NoteNumber":54,"Velocity":53,"Duration":77489,"SoundDuration":77489,"Delta":68605641},{"NoteNumber":62,"Velocity":56,"Duration":77489,"SoundDuration":77489,"Delta":68681193},{"NoteNumber":55,"Velocity":51,"Duration":77489,"SoundDuration":77489,"Delta":68759651},{"NoteNumber":61,"Velocity":55,"Duration":77489,"SoundDuration":77489,"Delta":68838109},{"NoteNumber":53,"Velocity":49,"Duration":77489,"SoundDuration":77489,"Delta":68914630},{"NoteNumber":47,"Velocity":73,"Duration":471884,"SoundDuration":471884,"Delta":68993087},{"NoteNumber":60,"Velocity":55,"Duration":78647,"SoundDuration":78647,"Delta":68995054},{"NoteNumber":55,"Velocity":50,"Duration":78647,"SoundDuration":78647,"Delta":69071735},{"NoteNumber":59,"Velocity":53,"Duration":78647,"SoundDuration":78647,"Delta":69153331},{"NoteNumber":53,"Velocity":49,"Duration":78647,"SoundDuration":78647,"Delta":69227063},{"NoteNumber":58,"Velocity":50,"Duration":78647,"SoundDuration":78647,"Delta":69309643},{"NoteNumber":55,"Velocity":47,"Duration":78689,"SoundDuration":78689,"Delta":69387307},{"NoteNumber":31,"Velocity":69,"Duration":1425349,"SoundDuration":1425349,"Delta":69464971},{"NoteNumber":57,"Velocity":49,"Duration":82000,"SoundDuration":82000,"Delta":69468047},{"NoteNumber":50,"Velocity":46,"Duration":82000,"SoundDuration":82000,"Delta":69545947},{"NoteNumber":56,"Velocity":49,"Duration":82000,"SoundDuration":82000,"Delta":69629998},{"NoteNumber":53,"Velocity":46,"Duration":82000,"SoundDuration":82000,"Delta":69714049},{"NoteNumber":55,"Velocity":49,"Duration":82000,"SoundDuration":82000,"Delta":69795025},{"NoteNumber":47,"Velocity":45,"Duration":81842,"SoundDuration":81842,"Delta":69878051},{"NoteNumber":54,"Velocity":49,"Duration":77831,"SoundDuration":77831,"Delta":69955951},{"NoteNumber":38,"Velocity":66,"Duration":933344,"SoundDuration":933344,"Delta":69956977},{"NoteNumber":53,"Velocity":46,"Duration":77778,"SoundDuration":77778,"Delta":70037672},{"NoteNumber":55,"Velocity":53,"Duration":77778,"SoundDuration":77778,"Delta":70114478},{"NoteNumber":47,"Velocity":50,"Duration":77778,"SoundDuration":77778,"Delta":70193229},{"NoteNumber":56,"Velocity":56,"Duration":77778,"SoundDuration":77778,"Delta":70271008},{"NoteNumber":53,"Velocity":55,"Duration":77778,"SoundDuration":77778,"Delta":70348787},{"NoteNumber":57,"Velocity":59,"Duration":77778,"SoundDuration":77778,"Delta":70424621},{"NoteNumber":50,"Velocity":56,"Duration":77778,"SoundDuration":77778,"Delta":70500455},{"NoteNumber":58,"Velocity":61,"Duration":77778,"SoundDuration":77778,"Delta":70580178},{"NoteNumber":55,"Velocity":59,"Duration":77778,"SoundDuration":77778,"Delta":70656012},{"NoteNumber":59,"Velocity":64,"Duration":77778,"SoundDuration":77778,"Delta":70733791},{"NoteNumber":53,"Velocity":64,"Duration":77807,"SoundDuration":77807,"Delta":70814486},{"NoteNumber":31,"Velocity":75,"Duration":236835,"SoundDuration":236835,"Delta":70890321},{"NoteNumber":64,"Velocity":69,"Duration":78945,"SoundDuration":78945,"Delta":70892294},{"NoteNumber":59,"Velocity":69,"Duration":78945,"SoundDuration":78945,"Delta":70968279},{"NoteNumber":62,"Velocity":69,"Duration":78945,"SoundDuration":78945,"Delta":71050185},{"NoteNumber":65,"Velocity":69,"Duration":78945,"SoundDuration":78945,"Delta":71127157},{"NoteNumber":76,"Velocity":69,"Duration":78945,"SoundDuration":78945,"Delta":71204128},{"NoteNumber":71,"Velocity":69,"Duration":78902,"SoundDuration":78902,"Delta":71287021},{"NoteNumber":59,"Velocity":82,"Duration":154428,"SoundDuration":154428,"Delta":71363993},{"NoteNumber":50,"Velocity":70,"Duration":154428,"SoundDuration":154428,"Delta":71363993},{"NoteNumber":74,"Velocity":66,"Duration":77214,"SoundDuration":77214,"Delta":71366888},{"NoteNumber":77,"Velocity":67,"Duration":77214,"SoundDuration":77214,"Delta":71439276},{"NoteNumber":88,"Velocity":69,"Duration":77214,"SoundDuration":77214,"Delta":71517456},{"NoteNumber":42,"Velocity":73,"Duration":154428,"SoundDuration":154428,"Delta":71518421},{"NoteNumber":83,"Velocity":70,"Duration":77214,"SoundDuration":77214,"Delta":71596600},{"NoteNumber":86,"Velocity":72,"Duration":77214,"SoundDuration":77214,"Delta":71672849},{"NoteNumber":43,"Velocity":79,"Duration":154428,"SoundDuration":154428,"Delta":71672849},{"NoteNumber":77,"Velocity":73,"Duration":77214,"SoundDuration":77214,"Delta":71751994},{"NoteNumber":88,"Velocity":77,"Duration":77214,"SoundDuration":77214,"Delta":71826312},{"NoteNumber":44,"Velocity":82,"Duration":463284,"SoundDuration":463284,"Delta":71827278},{"NoteNumber":58,"Velocity":82,"Duration":463284,"SoundDuration":463284,"Delta":71827278},{"NoteNumber":50,"Velocity":70,"Duration":463284,"SoundDuration":463284,"Delta":71827278},{"NoteNumber":82,"Velocity":73,"Duration":77214,"SoundDuration":77214,"Delta":71906422},{"NoteNumber":86,"Velocity":72,"Duration":77214,"SoundDuration":77214,"Delta":71984601},{"NoteNumber":77,"Velocity":71,"Duration":77214,"SoundDuration":77214,"Delta":72056990},{"NoteNumber":76,"Velocity":69,"Duration":77214,"SoundDuration":77214,"Delta":72137099},{"NoteNumber":70,"Velocity":69,"Duration":77242,"SoundDuration":77242,"Delta":72215279},{"NoteNumber":74,"Velocity":64,"Duration":78343,"SoundDuration":78343,"Delta":72289597},{"NoteNumber":32,"Velocity":86,"Duration":470145,"SoundDuration":470145,"Delta":72290562},{"NoteNumber":65,"Velocity":64,"Duration":78357,"SoundDuration":78357,"Delta":72366961},{"NoteNumber":64,"Velocity":64,"Duration":78357,"SoundDuration":78357,"Delta":72446298},{"NoteNumber":58,"Velocity":64,"Duration":78357,"SoundDuration":78357,"Delta":72527594},{"NoteNumber":62,"Velocity":64,"Duration":78357,"SoundDuration":78357,"Delta":72606932},{"NoteNumber":53,"Velocity":64,"Duration":78357,"SoundDuration":78357,"Delta":72683330},{"NoteNumber":64,"Velocity":69,"Duration":78357,"SoundDuration":78357,"Delta":72760708},{"NoteNumber":33,"Velocity":81,"Duration":235072,"SoundDuration":235072,"Delta":72760708},{"NoteNumber":57,"Velocity":69,"Duration":78357,"SoundDuration":78357,"Delta":72841025},{"NoteNumber":62,"Velocity":69,"Duration":78357,"SoundDuration":78357,"Delta":72916444},{"NoteNumber":65,"Velocity":69,"Duration":78357,"SoundDuration":78357,"Delta":72996761},{"NoteNumber":76,"Velocity":69,"Duration":78357,"SoundDuration":78357,"Delta":73073160},{"NoteNumber":69,"Velocity":69,"Duration":78357,"SoundDuration":78357,"Delta":73151517},{"NoteNumber":62,"Velocity":80,"Duration":154428,"SoundDuration":154428,"Delta":73230854},{"NoteNumber":53,"Velocity":67,"Duration":154428,"SoundDuration":154428,"Delta":73230854},{"NoteNumber":74,"Velocity":68,"Duration":77214,"SoundDuration":77214,"Delta":73233750},{"NoteNumber":77,"Velocity":68,"Duration":77214,"SoundDuration":77214,"Delta":73307103},{"NoteNumber":88,"Velocity":69,"Duration":77214,"SoundDuration":77214,"Delta":73383352},{"NoteNumber":44,"Velocity":73,"Duration":154428,"SoundDuration":154428,"Delta":73385283},{"NoteNumber":81,"Velocity":70,"Duration":77214,"SoundDuration":77214,"Delta":73464427},{"NoteNumber":86,"Velocity":71,"Duration":77214,"SoundDuration":77214,"Delta":73537781},{"NoteNumber":45,"Velocity":79,"Duration":154428,"SoundDuration":154428,"Delta":73539711},{"NoteNumber":77,"Velocity":72,"Duration":77214,"SoundDuration":77214,"Delta":73614995},{"NoteNumber":88,"Velocity":73,"Duration":77214,"SoundDuration":77214,"Delta":73692209},{"NoteNumber":46,"Velocity":82,"Duration":463284,"SoundDuration":463284,"Delta":73694139},{"NoteNumber":62,"Velocity":82,"Duration":463284,"SoundDuration":463284,"Delta":73694139},{"NoteNumber":56,"Velocity":70,"Duration":463284,"SoundDuration":463284,"Delta":73694139},{"NoteNumber":53,"Velocity":70,"Duration":463284,"SoundDuration":463284,"Delta":73694139},{"NoteNumber":80,"Velocity":72,"Duration":77214,"SoundDuration":77214,"Delta":73771354},{"NoteNumber":86,"Velocity":71,"Duration":77214,"SoundDuration":77214,"Delta":73849533},{"NoteNumber":77,"Velocity":70,"Duration":77214,"SoundDuration":77214,"Delta":73925782},{"NoteNumber":76,"Velocity":69,"Duration":77214,"SoundDuration":77214,"Delta":74002996},{"NoteNumber":68,"Velocity":69,"Duration":77214,"SoundDuration":77214,"Delta":74080210},{"NoteNumber":74,"Velocity":64,"Duration":78611,"SoundDuration":78611,"Delta":74155494},{"NoteNumber":34,"Velocity":94,"Duration":471884,"SoundDuration":471884,"Delta":74157424},{"NoteNumber":65,"Velocity":64,"Duration":78647,"SoundDuration":78647,"Delta":74237055},{"NoteNumber":64,"Velocity":64,"Duration":78647,"SoundDuration":78647,"Delta":74316685},{"NoteNumber":56,"Velocity":64,"Duration":78647,"SoundDuration":78647,"Delta":74393366},{"NoteNumber":62,"Velocity":64,"Duration":78647,"SoundDuration":78647,"Delta":74472997},{"NoteNumber":53,"Velocity":64,"Duration":78647,"SoundDuration":78647,"Delta":74553610},{"NoteNumber":35,"Velocity":90,"Duration":235941,"SoundDuration":235941,"Delta":74629308},{"NoteNumber":64,"Velocity":69,"Duration":78647,"SoundDuration":78647,"Delta":74630292},{"NoteNumber":55,"Velocity":69,"Duration":78647,"SoundDuration":78647,"Delta":74708939},{"NoteNumber":62,"Velocity":69,"Duration":78647,"SoundDuration":78647,"Delta":74784637},{"NoteNumber":53,"Velocity":69,"Duration":78647,"SoundDuration":78647,"Delta":74865250},{"NoteNumber":67,"Velocity":69,"Duration":78647,"SoundDuration":78647,"Delta":74942915},{"NoteNumber":64,"Velocity":69,"Duration":78647,"SoundDuration":78647,"Delta":75022545},{"NoteNumber":55,"Velocity":96,"Duration":353912,"SoundDuration":353912,"Delta":75101193},{"NoteNumber":65,"Velocity":70,"Duration":78647,"SoundDuration":78647,"Delta":75104142},{"NoteNumber":62,"Velocity":70,"Duration":78647,"SoundDuration":78647,"Delta":75179840},{"NoteNumber":76,"Velocity":70,"Duration":78647,"SoundDuration":78647,"Delta":75256521},{"NoteNumber":67,"Velocity":70,"Duration":78647,"SoundDuration":78647,"Delta":75338118},{"NoteNumber":74,"Velocity":70,"Duration":78647,"SoundDuration":78647,"Delta":75417748},{"NoteNumber":55,"Velocity":86,"Duration":117970,"SoundDuration":117970,"Delta":75455105},{"NoteNumber":65,"Velocity":70,"Duration":78647,"SoundDuration":78647,"Delta":75496395},{"NoteNumber":55,"Velocity":96,"Duration":471884,"SoundDuration":471884,"Delta":75573076},{"NoteNumber":79,"Velocity":69,"Duration":78647,"SoundDuration":78647,"Delta":75576026},{"NoteNumber":76,"Velocity":69,"Duration":78647,"SoundDuration":78647,"Delta":75654673},{"NoteNumber":77,"Velocity":69,"Duration":78647,"SoundDuration":78647,"Delta":75729388},{"NoteNumber":74,"Velocity":69,"Duration":78647,"SoundDuration":78647,"Delta":75811968},{"NoteNumber":88,"Velocity":69,"Duration":78647,"SoundDuration":78647,"Delta":75888649},{"NoteNumber":79,"Velocity":69,"Duration":78647,"SoundDuration":78647,"Delta":75968279},{"NoteNumber":31,"Velocity":55,"Duration":471884,"SoundDuration":471884,"Delta":76044960},{"NoteNumber":43,"Velocity":55,"Duration":471884,"SoundDuration":471884,"Delta":76044960},{"NoteNumber":86,"Velocity":64,"Duration":78647,"SoundDuration":78647,"Delta":76046927},{"NoteNumber":77,"Velocity":59,"Duration":78647,"SoundDuration":78647,"Delta":76125574},{"NoteNumber":91,"Velocity":59,"Duration":78647,"SoundDuration":78647,"Delta":76205204},{"NoteNumber":88,"Velocity":59,"Duration":78647,"SoundDuration":78647,"Delta":76283852},{"NoteNumber":89,"Velocity":59,"Duration":78647,"SoundDuration":78647,"Delta":76362499},{"NoteNumber":86,"Velocity":59,"Duration":78647,"SoundDuration":78647,"Delta":76439180},{"NoteNumber":93,"Velocity":62,"Duration":78647,"SoundDuration":78647,"Delta":76516844},{"NoteNumber":36,"Velocity":60,"Duration":235941,"SoundDuration":235941,"Delta":76516844},{"NoteNumber":48,"Velocity":60,"Duration":235941,"SoundDuration":235941,"Delta":76516844},{"NoteNumber":88,"Velocity":62,"Duration":78647,"SoundDuration":78647,"Delta":76593526},{"NoteNumber":91,"Velocity":62,"Duration":78647,"SoundDuration":78647,"Delta":76674139},{"NoteNumber":84,"Velocity":62,"Duration":78647,"SoundDuration":78647,"Delta":76754753},{"NoteNumber":100,"Velocity":68,"Duration":78647,"SoundDuration":78647,"Delta":76831434},{"NoteNumber":91,"Velocity":62,"Duration":78647,"SoundDuration":78647,"Delta":76909098},{"NoteNumber":98,"Velocity":66,"Duration":77518,"SoundDuration":77518,"Delta":76986762},{"NoteNumber":52,"Velocity":57,"Duration":154978,"SoundDuration":154978,"Delta":76988728},{"NoteNumber":88,"Velocity":59,"Duration":77489,"SoundDuration":77489,"Delta":77067186},{"NoteNumber":60,"Velocity":57,"Duration":154978,"SoundDuration":154978,"Delta":77143707},{"NoteNumber":96,"Velocity":63,"Duration":77489,"SoundDuration":77489,"Delta":77145644},{"NoteNumber":92,"Velocity":59,"Duration":77489,"SoundDuration":77489,"Delta":77219259},{"NoteNumber":95,"Velocity":63,"Duration":77489,"SoundDuration":77489,"Delta":77296749},{"NoteNumber":68,"Velocity":57,"Duration":154978,"SoundDuration":154978,"Delta":77298686},{"NoteNumber":88,"Velocity":59,"Duration":77489,"SoundDuration":77489,"Delta":77376175},{"NoteNumber":41,"Velocity":57,"Duration":232468,"SoundDuration":232468,"Delta":77453664},{"NoteNumber":94,"Velocity":62,"Duration":77489,"SoundDuration":77489,"Delta":77455602},{"NoteNumber":89,"Velocity":59,"Duration":77489,"SoundDuration":77489,"Delta":77533091},{"NoteNumber":92,"Velocity":62,"Duration":77489,"SoundDuration":77489,"Delta":77606706},{"NoteNumber":85,"Velocity":59,"Duration":77489,"SoundDuration":77489,"Delta":77684195},{"NoteNumber":90,"Velocity":62,"Duration":77489,"SoundDuration":77489,"Delta":77761685},{"NoteNumber":85,"Velocity":59,"Duration":77489,"SoundDuration":77489,"Delta":77841111},{"NoteNumber":89,"Velocity":62,"Duration":77489,"SoundDuration":77489,"Delta":77916663},{"NoteNumber":53,"Velocity":48,"Duration":154978,"SoundDuration":154978,"Delta":77918601},{"NoteNumber":56,"Velocity":57,"Duration":154978,"SoundDuration":154978,"Delta":77918601},{"NoteNumber":80,"Velocity":59,"Duration":77489,"SoundDuration":77489,"Delta":77998996},{"NoteNumber":61,"Velocity":57,"Duration":154978,"SoundDuration":154978,"Delta":78073579},{"NoteNumber":87,"Velocity":62,"Duration":77489,"SoundDuration":77489,"Delta":78074548},{"NoteNumber":80,"Velocity":59,"Duration":77489,"SoundDuration":77489,"Delta":78149131},{"NoteNumber":68,"Velocity":57,"Duration":154978,"SoundDuration":154978,"Delta":78228558},{"NoteNumber":85,"Velocity":62,"Duration":77489,"SoundDuration":77489,"Delta":78231464},{"NoteNumber":77,"Velocity":59,"Duration":77507,"SoundDuration":77507,"Delta":78307016},{"NoteNumber":85,"Velocity":59,"Duration":78945,"SoundDuration":78945,"Delta":78383536},{"NoteNumber":43,"Velocity":68,"Duration":236835,"SoundDuration":236835,"Delta":78383536},{"NoteNumber":78,"Velocity":59,"Duration":78945,"SoundDuration":78945,"Delta":78460508},{"NoteNumber":84,"Velocity":59,"Duration":78945,"SoundDuration":78945,"Delta":78540440},{"NoteNumber":76,"Velocity":59,"Duration":78945,"SoundDuration":78945,"Delta":78620372},{"NoteNumber":79,"Velocity":59,"Duration":78945,"SoundDuration":78945,"Delta":78700305},{"NoteNumber":72,"Velocity":59,"Duration":78916,"SoundDuration":78916,"Delta":78780237},{"NoteNumber":80,"Velocity":55,"Duration":77807,"SoundDuration":77807,"Delta":78855235},{"NoteNumber":55,"Velocity":52,"Duration":155557,"SoundDuration":155557,"Delta":78857208},{"NoteNumber":60,"Velocity":62,"Duration":155557,"SoundDuration":155557,"Delta":78857208},{"NoteNumber":76,"Velocity":55,"Duration":77778,"SoundDuration":77778,"Delta":78936932},{"NoteNumber":78,"Velocity":55,"Duration":77778,"SoundDuration":77778,"Delta":79010821},{"NoteNumber":64,"Velocity":57,"Duration":155557,"SoundDuration":155557,"Delta":79012766},{"NoteNumber":72,"Velocity":55,"Duration":77778,"SoundDuration":77778,"Delta":79091517},{"NoteNumber":67,"Velocity":57,"Duration":155557,"SoundDuration":155557,"Delta":79168323},{"NoteNumber":79,"Velocity":55,"Duration":77778,"SoundDuration":77778,"Delta":79169295},{"NoteNumber":76,"Velocity":55,"Duration":77778,"SoundDuration":77778,"Delta":79249019},{"NoteNumber":81,"Velocity":55,"Duration":77778,"SoundDuration":77778,"Delta":79323880},{"NoteNumber":43,"Velocity":62,"Duration":233335,"SoundDuration":233335,"Delta":79323880},{"NoteNumber":71,"Velocity":55,"Duration":77778,"SoundDuration":77778,"Delta":79400687},{"NoteNumber":78,"Velocity":55,"Duration":77778,"SoundDuration":77778,"Delta":79478466},{"NoteNumber":77,"Velocity":55,"Duration":77778,"SoundDuration":77778,"Delta":79559161},{"NoteNumber":79,"Velocity":55,"Duration":77778,"SoundDuration":77778,"Delta":79634995},{"NoteNumber":71,"Velocity":55,"Duration":77778,"SoundDuration":77778,"Delta":79712774},{"NoteNumber":65,"Velocity":57,"Duration":475436,"SoundDuration":475436,"Delta":79790552},{"NoteNumber":55,"Velocity":57,"Duration":475436,"SoundDuration":475436,"Delta":79790552},{"NoteNumber":62,"Velocity":57,"Duration":475436,"SoundDuration":475436,"Delta":79790552},{"NoteNumber":67,"Velocity":57,"Duration":475436,"SoundDuration":475436,"Delta":79790552},{"NoteNumber":83,"Velocity":55,"Duration":79239,"SoundDuration":79239,"Delta":79791543},{"NoteNumber":77,"Velocity":53,"Duration":79239,"SoundDuration":79239,"Delta":79867811},{"NoteNumber":88,"Velocity":53,"Duration":79239,"SoundDuration":79239,"Delta":79952003},{"NoteNumber":79,"Velocity":53,"Duration":79239,"SoundDuration":79239,"Delta":80030251},{"NoteNumber":86,"Velocity":53,"Duration":79239,"SoundDuration":79239,"Delta":80105529},{"NoteNumber":77,"Velocity":53,"Duration":79239,"SoundDuration":79239,"Delta":80186749},{"NoteNumber":48,"Velocity":60,"Duration":505150,"SoundDuration":505150,"Delta":80236274},{"NoteNumber":55,"Velocity":60,"Duration":490293,"SoundDuration":490293,"Delta":80251131},{"NoteNumber":64,"Velocity":60,"Duration":475436,"SoundDuration":475436,"Delta":80265988},{"NoteNumber":86,"Velocity":55,"Duration":79239,"SoundDuration":79239,"Delta":80267969},{"NoteNumber":79,"Velocity":46,"Duration":79239,"SoundDuration":79239,"Delta":80348199},{"NoteNumber":84,"Velocity":55,"Duration":79239,"SoundDuration":79239,"Delta":80426448},{"NoteNumber":76,"Velocity":46,"Duration":79239,"SoundDuration":79239,"Delta":80504697},{"NoteNumber":81,"Velocity":55,"Duration":79239,"SoundDuration":79239,"Delta":80583936},{"NoteNumber":76,"Velocity":47,"Duration":79239,"SoundDuration":79239,"Delta":80665157},{"NoteNumber":79,"Velocity":55,"Duration":79239,"SoundDuration":79239,"Delta":80743405},{"NoteNumber":72,"Velocity":47,"Duration":79239,"SoundDuration":79239,"Delta":80819673},{"NoteNumber":77,"Velocity":55,"Duration":79239,"SoundDuration":79239,"Delta":80900894},{"NoteNumber":72,"Velocity":47,"Duration":79239,"SoundDuration":79239,"Delta":80978152},{"NoteNumber":76,"Velocity":55,"Duration":79239,"SoundDuration":79239,"Delta":81059372},{"NoteNumber":67,"Velocity":47,"Duration":79239,"SoundDuration":79239,"Delta":81139602},{"NoteNumber":81,"Velocity":55,"Duration":79239,"SoundDuration":79239,"Delta":81215870},{"NoteNumber":76,"Velocity":49,"Duration":79685,"SoundDuration":79685,"Delta":81297094},{"NoteNumber":79,"Velocity":55,"Duration":79981,"SoundDuration":79981,"Delta":81375781},{"NoteNumber":72,"Velocity":49,"Duration":80461,"SoundDuration":80461,"Delta":81458779},{"NoteNumber":77,"Velocity":55,"Duration":80911,"SoundDuration":80911,"Delta":81538231},{"NoteNumber":72,"Velocity":47,"Duration":81233,"SoundDuration":81233,"Delta":81619143},{"NoteNumber":76,"Velocity":55,"Duration":81679,"SoundDuration":81679,"Delta":81699356},{"NoteNumber":67,"Velocity":49,"Duration":81679,"SoundDuration":81679,"Delta":81780014},{"NoteNumber":81,"Velocity":55,"Duration":81988,"SoundDuration":81988,"Delta":81863735},{"NoteNumber":76,"Velocity":47,"Duration":94029,"SoundDuration":94029,"Delta":81945723},{"NoteNumber":79,"Velocity":55,"Duration":94029,"SoundDuration":94029,"Delta":82040928},{"NoteNumber":72,"Velocity":47,"Duration":94029,"SoundDuration":94029,"Delta":82130256},{"NoteNumber":76,"Velocity":69,"Duration":482184,"SoundDuration":482184,"Delta":82225460},{"NoteNumber":79,"Velocity":82,"Duration":482184,"SoundDuration":482184,"Delta":82225460},{"NoteNumber":69,"Velocity":66,"Duration":80450,"SoundDuration":80450,"Delta":82226466},{"NoteNumber":64,"Velocity":61,"Duration":80450,"SoundDuration":80450,"Delta":82308928},{"NoteNumber":67,"Velocity":66,"Duration":80450,"SoundDuration":80450,"Delta":82387367},{"NoteNumber":61,"Velocity":61,"Duration":80450,"SoundDuration":80450,"Delta":82469829},{"NoteNumber":65,"Velocity":66,"Duration":80450,"SoundDuration":80450,"Delta":82548268},{"NoteNumber":61,"Velocity":61,"Duration":79932,"SoundDuration":79932,"Delta":82627713},{"NoteNumber":76,"Velocity":69,"Duration":348702,"SoundDuration":348702,"Delta":82707645},{"NoteNumber":79,"Velocity":82,"Duration":348702,"SoundDuration":348702,"Delta":82707645},{"NoteNumber":67,"Velocity":69,"Duration":348702,"SoundDuration":348702,"Delta":82707645},{"NoteNumber":64,"Velocity":66,"Duration":77489,"SoundDuration":77489,"Delta":82707645},{"NoteNumber":58,"Velocity":61,"Duration":77489,"SoundDuration":77489,"Delta":82788040},{"NoteNumber":62,"Velocity":66,"Duration":77489,"SoundDuration":77489,"Delta":82865529},{"NoteNumber":58,"Velocity":61,"Duration":77489,"SoundDuration":77489,"Delta":82939144},{"NoteNumber":61,"Velocity":66,"Duration":77489,"SoundDuration":77489,"Delta":83016634},{"NoteNumber":76,"Velocity":63,"Duration":116385,"SoundDuration":116385,"Delta":83056347},{"NoteNumber":67,"Velocity":63,"Duration":116385,"SoundDuration":116385,"Delta":83056347},{"NoteNumber":79,"Velocity":77,"Duration":116385,"SoundDuration":116385,"Delta":83056347},{"NoteNumber":55,"Velocity":61,"Duration":77630,"SoundDuration":77630,"Delta":83094123},{"NoteNumber":67,"Velocity":69,"Duration":469750,"SoundDuration":469750,"Delta":83172733},{"NoteNumber":79,"Velocity":82,"Duration":469750,"SoundDuration":469750,"Delta":83172733},{"NoteNumber":76,"Velocity":69,"Duration":469750,"SoundDuration":469750,"Delta":83172733},{"NoteNumber":60,"Velocity":66,"Duration":78357,"SoundDuration":78357,"Delta":83174692},{"NoteNumber":55,"Velocity":61,"Duration":78357,"SoundDuration":78357,"Delta":83254029},{"NoteNumber":58,"Velocity":66,"Duration":78357,"SoundDuration":78357,"Delta":83330428},{"NoteNumber":52,"Velocity":61,"Duration":78357,"SoundDuration":78357,"Delta":83405847},{"NoteNumber":57,"Velocity":66,"Duration":78357,"SoundDuration":78357,"Delta":83487143},{"NoteNumber":52,"Velocity":61,"Duration":78018,"SoundDuration":78018,"Delta":83562562},{"NoteNumber":76,"Velocity":72,"Duration":457032,"SoundDuration":457032,"Delta":83642483},{"NoteNumber":69,"Velocity":72,"Duration":457032,"SoundDuration":457032,"Delta":83642483},{"NoteNumber":81,"Velocity":85,"Duration":457032,"SoundDuration":457032,"Delta":83642483},{"NoteNumber":55,"Velocity":66,"Duration":76097,"SoundDuration":76097,"Delta":83643435},{"NoteNumber":49,"Velocity":61,"Duration":76097,"SoundDuration":76097,"Delta":83719532},{"NoteNumber":53,"Velocity":61,"Duration":76097,"SoundDuration":76097,"Delta":83794679},{"NoteNumber":49,"Velocity":57,"Duration":76097,"SoundDuration":76097,"Delta":83868874},{"NoteNumber":52,"Velocity":61,"Duration":76097,"SoundDuration":76097,"Delta":83949728},{"NoteNumber":46,"Velocity":57,"Duration":76480,"SoundDuration":76480,"Delta":84021069},{"NoteNumber":79,"Velocity":82,"Duration":472639,"SoundDuration":472639,"Delta":84099516},{"NoteNumber":67,"Velocity":69,"Duration":472639,"SoundDuration":472639,"Delta":84099516},{"NoteNumber":76,"Velocity":69,"Duration":472639,"SoundDuration":472639,"Delta":84099516},{"NoteNumber":50,"Velocity":61,"Duration":78647,"SoundDuration":78647,"Delta":84100499},{"NoteNumber":46,"Velocity":61,"Duration":78647,"SoundDuration":78647,"Delta":84176197},{"NoteNumber":49,"Velocity":66,"Duration":78647,"SoundDuration":78647,"Delta":84255827},{"NoteNumber":43,"Velocity":61,"Duration":78647,"SoundDuration":78647,"Delta":84336441},{"NoteNumber":48,"Velocity":66,"Duration":78647,"SoundDuration":78647,"Delta":84413122},{"NoteNumber":43,"Velocity":61,"Duration":79349,"SoundDuration":79349,"Delta":84491769},{"NoteNumber":73,"Velocity":63,"Duration":496696,"SoundDuration":496696,"Delta":84572156},{"NoteNumber":67,"Velocity":63,"Duration":496696,"SoundDuration":496696,"Delta":84572156},{"NoteNumber":76,"Velocity":77,"Duration":496696,"SoundDuration":496696,"Delta":84572156},{"NoteNumber":46,"Velocity":66,"Duration":82966,"SoundDuration":82966,"Delta":84573193},{"NoteNumber":40,"Velocity":57,"Duration":82966,"SoundDuration":82966,"Delta":84655122},{"NoteNumber":45,"Velocity":61,"Duration":82966,"SoundDuration":82966,"Delta":84738089},{"NoteNumber":40,"Velocity":57,"Duration":82966,"SoundDuration":82966,"Delta":84820019},{"NoteNumber":43,"Velocity":61,"Duration":82966,"SoundDuration":82966,"Delta":84906097},{"NoteNumber":37,"Velocity":57,"Duration":82020,"SoundDuration":82020,"Delta":84984916},{"NoteNumber":67,"Velocity":63,"Duration":919891,"SoundDuration":919891,"Delta":85068852},{"NoteNumber":79,"Velocity":77,"Duration":919891,"SoundDuration":919891,"Delta":85068852},{"NoteNumber":76,"Velocity":63,"Duration":919891,"SoundDuration":919891,"Delta":85068852},{"NoteNumber":41,"Velocity":61,"Duration":76657,"SoundDuration":76657,"Delta":85068852},{"NoteNumber":37,"Velocity":57,"Duration":76657,"SoundDuration":76657,"Delta":85146468},{"NoteNumber":40,"Velocity":61,"Duration":76657,"SoundDuration":76657,"Delta":85224084},{"NoteNumber":34,"Velocity":57,"Duration":76657,"SoundDuration":76657,"Delta":85298825},{"NoteNumber":38,"Velocity":61,"Duration":76657,"SoundDuration":76657,"Delta":85373567},{"NoteNumber":34,"Velocity":57,"Duration":76657,"SoundDuration":76657,"Delta":85452141},{"NoteNumber":37,"Velocity":61,"Duration":76657,"SoundDuration":76657,"Delta":85528798},{"NoteNumber":31,"Velocity":57,"Duration":76657,"SoundDuration":76657,"Delta":85603540},{"NoteNumber":36,"Velocity":61,"Duration":76657,"SoundDuration":76657,"Delta":85684030},{"NoteNumber":31,"Velocity":57,"Duration":76657,"SoundDuration":76657,"Delta":85760688},{"NoteNumber":34,"Velocity":61,"Duration":76657,"SoundDuration":76657,"Delta":85838304},{"NoteNumber":28,"Velocity":57,"Duration":76705,"SoundDuration":76705,"Delta":85913045},{"NoteNumber":79,"Velocity":69,"Duration":482184,"SoundDuration":482184,"Delta":85988744},{"NoteNumber":82,"Velocity":82,"Duration":482184,"SoundDuration":482184,"Delta":85988744},{"NoteNumber":72,"Velocity":66,"Duration":80450,"SoundDuration":80450,"Delta":85989750},{"NoteNumber":67,"Velocity":61,"Duration":80450,"SoundDuration":80450,"Delta":86070201},{"NoteNumber":70,"Velocity":66,"Duration":80450,"SoundDuration":80450,"Delta":86151657},{"NoteNumber":64,"Velocity":61,"Duration":80450,"SoundDuration":80450,"Delta":86232107},{"NoteNumber":69,"Velocity":66,"Duration":80450,"SoundDuration":80450,"Delta":86313563},{"NoteNumber":64,"Velocity":61,"Duration":79932,"SoundDuration":79932,"Delta":86390997},{"NoteNumber":70,"Velocity":69,"Duration":348702,"SoundDuration":348702,"Delta":86470929},{"NoteNumber":79,"Velocity":69,"Duration":348702,"SoundDuration":348702,"Delta":86470929},{"NoteNumber":82,"Velocity":82,"Duration":348702,"SoundDuration":348702,"Delta":86470929},{"NoteNumber":67,"Velocity":66,"Duration":77489,"SoundDuration":77489,"Delta":86470929},{"NoteNumber":61,"Velocity":61,"Duration":77489,"SoundDuration":77489,"Delta":86546481},{"NoteNumber":65,"Velocity":66,"Duration":77489,"SoundDuration":77489,"Delta":86628814},{"NoteNumber":61,"Velocity":61,"Duration":77489,"SoundDuration":77489,"Delta":86705334},{"NoteNumber":64,"Velocity":66,"Duration":77489,"SoundDuration":77489,"Delta":86780887},{"NoteNumber":70,"Velocity":63,"Duration":116385,"SoundDuration":116385,"Delta":86819631},{"NoteNumber":79,"Velocity":63,"Duration":116385,"SoundDuration":116385,"Delta":86819631},{"NoteNumber":82,"Velocity":77,"Duration":116385,"SoundDuration":116385,"Delta":86819631},{"NoteNumber":58,"Velocity":61,"Duration":77619,"SoundDuration":77619,"Delta":86856439},{"NoteNumber":82,"Velocity":82,"Duration":469750,"SoundDuration":469750,"Delta":86936017},{"NoteNumber":70,"Velocity":69,"Duration":469750,"SoundDuration":469750,"Delta":86936017},{"NoteNumber":79,"Velocity":69,"Duration":469750,"SoundDuration":469750,"Delta":86936017},{"NoteNumber":62,"Velocity":66,"Duration":78357,"SoundDuration":78357,"Delta":86938956},{"NoteNumber":58,"Velocity":61,"Duration":78357,"SoundDuration":78357,"Delta":87016334},{"NoteNumber":61,"Velocity":66,"Duration":78357,"SoundDuration":78357,"Delta":87090774},{"NoteNumber":55,"Velocity":61,"Duration":78357,"SoundDuration":78357,"Delta":87171090},{"NoteNumber":60,"Velocity":66,"Duration":78357,"SoundDuration":78357,"Delta":87252386},{"NoteNumber":55,"Velocity":61,"Duration":78018,"SoundDuration":78018,"Delta":87325847},{"NoteNumber":58,"Velocity":66,"Duration":76097,"SoundDuration":76097,"Delta":87403865},{"NoteNumber":72,"Velocity":72,"Duration":457032,"SoundDuration":457032,"Delta":87405768},{"NoteNumber":84,"Velocity":85,"Duration":457032,"SoundDuration":457032,"Delta":87405768},{"NoteNumber":79,"Velocity":72,"Duration":457032,"SoundDuration":457032,"Delta":87405768},{"NoteNumber":52,"Velocity":57,"Duration":76097,"SoundDuration":76097,"Delta":87480914},{"NoteNumber":57,"Velocity":61,"Duration":76097,"SoundDuration":76097,"Delta":87556061},{"NoteNumber":52,"Velocity":57,"Duration":76097,"SoundDuration":76097,"Delta":87635012},{"NoteNumber":55,"Velocity":61,"Duration":76097,"SoundDuration":76097,"Delta":87708256},{"NoteNumber":49,"Velocity":57,"Duration":76575,"SoundDuration":76575,"Delta":87787207},{"NoteNumber":70,"Velocity":69,"Duration":472639,"SoundDuration":472639,"Delta":87862800},{"NoteNumber":79,"Velocity":69,"Duration":472639,"SoundDuration":472639,"Delta":87862800},{"NoteNumber":82,"Velocity":82,"Duration":472639,"SoundDuration":472639,"Delta":87862800},{"NoteNumber":53,"Velocity":61,"Duration":78647,"SoundDuration":78647,"Delta":87863783},{"NoteNumber":49,"Velocity":61,"Duration":78647,"SoundDuration":78647,"Delta":87943413},{"NoteNumber":52,"Velocity":66,"Duration":78647,"SoundDuration":78647,"Delta":88022061},{"NoteNumber":46,"Velocity":61,"Duration":78647,"SoundDuration":78647,"Delta":88101691},{"NoteNumber":50,"Velocity":66,"Duration":78647,"SoundDuration":78647,"Delta":88179355},{"NoteNumber":46,"Velocity":61,"Duration":79349,"SoundDuration":79349,"Delta":88255053},{"NoteNumber":79,"Velocity":81,"Duration":496696,"SoundDuration":496696,"Delta":88335440},{"NoteNumber":70,"Velocity":68,"Duration":496696,"SoundDuration":496696,"Delta":88335440},{"NoteNumber":76,"Velocity":68,"Duration":496696,"SoundDuration":496696,"Delta":88335440},{"NoteNumber":49,"Velocity":66,"Duration":82966,"SoundDuration":82966,"Delta":88337514},{"NoteNumber":43,"Velocity":57,"Duration":82966,"SoundDuration":82966,"Delta":88418407},{"NoteNumber":48,"Velocity":61,"Duration":82966,"SoundDuration":82966,"Delta":88504485},{"NoteNumber":43,"Velocity":57,"Duration":82966,"SoundDuration":82966,"Delta":88586414},{"NoteNumber":46,"Velocity":61,"Duration":82966,"SoundDuration":82966,"Delta":88666270},{"NoteNumber":40,"Velocity":57,"Duration":81941,"SoundDuration":81941,"Delta":88749237},{"NoteNumber":79,"Velocity":70,"Duration":960425,"SoundDuration":960425,"Delta":88832137},{"NoteNumber":70,"Velocity":70,"Duration":960425,"SoundDuration":960425,"Delta":88832137},{"NoteNumber":82,"Velocity":84,"Duration":960425,"SoundDuration":960425,"Delta":88832137},{"NoteNumber":45,"Velocity":61,"Duration":76657,"SoundDuration":76657,"Delta":88832137},{"NoteNumber":40,"Velocity":57,"Duration":76657,"SoundDuration":76657,"Delta":88907836},{"NoteNumber":43,"Velocity":61,"Duration":76657,"SoundDuration":76657,"Delta":88986410},{"NoteNumber":37,"Velocity":57,"Duration":76657,"SoundDuration":76657,"Delta":89061151},{"NoteNumber":41,"Velocity":61,"Duration":76657,"SoundDuration":76657,"Delta":89141642},{"NoteNumber":37,"Velocity":57,"Duration":76657,"SoundDuration":76657,"Delta":89214467},{"NoteNumber":40,"Velocity":61,"Duration":78945,"SoundDuration":78945,"Delta":89292083},{"NoteNumber":34,"Velocity":57,"Duration":78945,"SoundDuration":78945,"Delta":89370041},{"NoteNumber":38,"Velocity":61,"Duration":78945,"SoundDuration":78945,"Delta":89448000},{"NoteNumber":34,"Velocity":57,"Duration":87769,"SoundDuration":87769,"Delta":89527932},{"NoteNumber":37,"Velocity":61,"Duration":87881,"SoundDuration":87881,"Delta":89614603},{"NoteNumber":31,"Velocity":57,"Duration":87665,"SoundDuration":87665,"Delta":89706878},{"NoteNumber":39,"Velocity":74,"Duration":237718,"SoundDuration":237718,"Delta":89792562},{"NoteNumber":96,"Velocity":67,"Duration":79239,"SoundDuration":79239,"Delta":89794543},{"NoteNumber":27,"Velocity":74,"Duration":237718,"SoundDuration":237718,"Delta":89799496},{"NoteNumber":87,"Velocity":58,"Duration":79239,"SoundDuration":79239,"Delta":89874773},{"NoteNumber":94,"Velocity":61,"Duration":79239,"SoundDuration":79239,"Delta":89949060},{"NoteNumber":85,"Velocity":58,"Duration":79239,"SoundDuration":79239,"Delta":90030280},{"NoteNumber":92,"Velocity":61,"Duration":79239,"SoundDuration":79239,"Delta":90109520},{"NoteNumber":87,"Velocity":58,"Duration":79188,"SoundDuration":79188,"Delta":90190740},{"NoteNumber":91,"Velocity":56,"Duration":77214,"SoundDuration":77214,"Delta":90267998},{"NoteNumber":63,"Velocity":64,"Duration":347463,"SoundDuration":347463,"Delta":90267998},{"NoteNumber":85,"Velocity":52,"Duration":77214,"SoundDuration":77214,"Delta":90345212},{"NoteNumber":89,"Velocity":56,"Duration":77214,"SoundDuration":77214,"Delta":90424357},{"NoteNumber":85,"Velocity":52,"Duration":77214,"SoundDuration":77214,"Delta":90498675},{"NoteNumber":87,"Velocity":56,"Duration":77214,"SoundDuration":77214,"Delta":90577820},{"NoteNumber":63,"Velocity":61,"Duration":115821,"SoundDuration":115821,"Delta":90615462},{"NoteNumber":79,"Velocity":52,"Duration":77214,"SoundDuration":77214,"Delta":90652139},{"NoteNumber":51,"Velocity":55,"Duration":463284,"SoundDuration":463284,"Delta":90731283},{"NoteNumber":60,"Velocity":55,"Duration":463284,"SoundDuration":463284,"Delta":90731283},{"NoteNumber":63,"Velocity":66,"Duration":463284,"SoundDuration":463284,"Delta":90731283},{"NoteNumber":89,"Velocity":61,"Duration":77214,"SoundDuration":77214,"Delta":90734179},{"NoteNumber":84,"Velocity":58,"Duration":77214,"SoundDuration":77214,"Delta":90811393},{"NoteNumber":87,"Velocity":61,"Duration":77214,"SoundDuration":77214,"Delta":90888607},{"NoteNumber":80,"Velocity":58,"Duration":77214,"SoundDuration":77214,"Delta":90960995},{"NoteNumber":85,"Velocity":61,"Duration":77214,"SoundDuration":77214,"Delta":91040140},{"NoteNumber":80,"Velocity":58,"Duration":77214,"SoundDuration":77214,"Delta":91118319},{"NoteNumber":68,"Velocity":64,"Duration":347463,"SoundDuration":347463,"Delta":91194568},{"NoteNumber":84,"Velocity":61,"Duration":77214,"SoundDuration":77214,"Delta":91196499},{"NoteNumber":75,"Velocity":52,"Duration":77214,"SoundDuration":77214,"Delta":91273713},{"NoteNumber":82,"Velocity":56,"Duration":77214,"SoundDuration":77214,"Delta":91348031},{"NoteNumber":75,"Velocity":52,"Duration":77214,"SoundDuration":77214,"Delta":91429106},{"NoteNumber":80,"Velocity":56,"Duration":77214,"SoundDuration":77214,"Delta":91505355},{"NoteNumber":60,"Velocity":61,"Duration":115821,"SoundDuration":115821,"Delta":91542032},{"NoteNumber":72,"Velocity":52,"Duration":77214,"SoundDuration":77214,"Delta":91579674},{"NoteNumber":51,"Velocity":50,"Duration":1391776,"SoundDuration":1391776,"Delta":91657853},{"NoteNumber":63,"Velocity":61,"Duration":471884,"SoundDuration":471884,"Delta":91657853},{"NoteNumber":84,"Velocity":61,"Duration":78647,"SoundDuration":78647,"Delta":91658836},{"NoteNumber":75,"Velocity":58,"Duration":78647,"SoundDuration":78647,"Delta":91734534},{"NoteNumber":82,"Velocity":61,"Duration":78647,"SoundDuration":78647,"Delta":91816131},{"NoteNumber":73,"Velocity":58,"Duration":78647,"SoundDuration":78647,"Delta":91895761},{"NoteNumber":81,"Velocity":61,"Duration":78647,"SoundDuration":78647,"Delta":91974409},{"NoteNumber":75,"Velocity":58,"Duration":78647,"SoundDuration":78647,"Delta":92049124},{"NoteNumber":58,"Velocity":64,"Duration":344959,"SoundDuration":344959,"Delta":92129737},{"NoteNumber":82,"Velocity":56,"Duration":76657,"SoundDuration":76657,"Delta":92131654},{"NoteNumber":73,"Velocity":52,"Duration":76657,"SoundDuration":76657,"Delta":92207353},{"NoteNumber":85,"Velocity":56,"Duration":76657,"SoundDuration":76657,"Delta":92285927},{"NoteNumber":75,"Velocity":52,"Duration":76657,"SoundDuration":76657,"Delta":92362585},{"NoteNumber":79,"Velocity":56,"Duration":76657,"SoundDuration":76657,"Delta":92438284},{"NoteNumber":63,"Velocity":61,"Duration":114986,"SoundDuration":114986,"Delta":92474697},{"NoteNumber":73,"Velocity":52,"Duration":76657,"SoundDuration":76657,"Delta":92512067},{"NoteNumber":82,"Velocity":61,"Duration":76657,"SoundDuration":76657,"Delta":92589683},{"NoteNumber":44,"Velocity":50,"Duration":459946,"SoundDuration":459946,"Delta":92589683},{"NoteNumber":60,"Velocity":61,"Duration":459946,"SoundDuration":459946,"Delta":92589683},{"NoteNumber":75,"Velocity":58,"Duration":76657,"SoundDuration":76657,"Delta":92666341},{"NoteNumber":80,"Velocity":61,"Duration":76657,"SoundDuration":76657,"Delta":92741082},{"NoteNumber":72,"Velocity":58,"Duration":76657,"SoundDuration":76657,"Delta":92820614},{"NoteNumber":79,"Velocity":61,"Duration":76657,"SoundDuration":76657,"Delta":92894397},{"NoteNumber":75,"Velocity":58,"Duration":76722,"SoundDuration":76722,"Delta":92974888},{"NoteNumber":80,"Velocity":61,"Duration":79239,"SoundDuration":79239,"Delta":93051610},{"NoteNumber":72,"Velocity":52,"Duration":79239,"SoundDuration":79239,"Delta":93127878},{"NoteNumber":82,"Velocity":56,"Duration":79239,"SoundDuration":79239,"Delta":93206127},{"NoteNumber":75,"Velocity":52,"Duration":79239,"SoundDuration":79239,"Delta":93285366},{"NoteNumber":80,"Velocity":56,"Duration":79239,"SoundDuration":79239,"Delta":93368567},{"NoteNumber":72,"Velocity":52,"Duration":79239,"SoundDuration":79239,"Delta":93443845},{"NoteNumber":92,"Velocity":50,"Duration":79239,"SoundDuration":79239,"Delta":93525065},{"NoteNumber":35,"Velocity":48,"Duration":237718,"SoundDuration":237718,"Delta":93525065},{"NoteNumber":47,"Velocity":48,"Duration":237718,"SoundDuration":237718,"Delta":93525065},{"NoteNumber":83,"Velocity":48,"Duration":79239,"SoundDuration":79239,"Delta":93606285},{"NoteNumber":90,"Velocity":50,"Duration":79239,"SoundDuration":79239,"Delta":93685525},{"NoteNumber":81,"Velocity":48,"Duration":79239,"SoundDuration":79239,"Delta":93762783},{"NoteNumber":88,"Velocity":50,"Duration":79239,"SoundDuration":79239,"Delta":93844994},{"NoteNumber":83,"Velocity":48,"Duration":79221,"SoundDuration":79221,"Delta":93922252},{"NoteNumber":87,"Velocity":48,"Duration":77796,"SoundDuration":77796,"Delta":93999511},{"NoteNumber":59,"Velocity":53,"Duration":350003,"SoundDuration":350003,"Delta":94000501},{"NoteNumber":81,"Velocity":44,"Duration":77778,"SoundDuration":77778,"Delta":94078280},{"NoteNumber":85,"Velocity":48,"Duration":77778,"SoundDuration":77778,"Delta":94158975},{"NoteNumber":81,"Velocity":44,"Duration":77778,"SoundDuration":77778,"Delta":94231893},{"NoteNumber":83,"Velocity":48,"Duration":77778,"SoundDuration":77778,"Delta":94309671},{"NoteNumber":59,"Velocity":50,"Duration":116668,"SoundDuration":116668,"Delta":94350505},{"NoteNumber":78,"Velocity":44,"Duration":77778,"SoundDuration":77778,"Delta":94387450},{"NoteNumber":88,"Velocity":50,"Duration":77778,"SoundDuration":77778,"Delta":94465229},{"NoteNumber":47,"Velocity":46,"Duration":466672,"SoundDuration":466672,"Delta":94467173},{"NoteNumber":56,"Velocity":46,"Duration":466672,"SoundDuration":466672,"Delta":94467173},{"NoteNumber":59,"Velocity":55,"Duration":466672,"SoundDuration":466672,"Delta":94467173},{"NoteNumber":80,"Velocity":48,"Duration":77778,"SoundDuration":77778,"Delta":94547869},{"NoteNumber":87,"Velocity":50,"Duration":77778,"SoundDuration":77778,"Delta":94621758},{"NoteNumber":76,"Velocity":48,"Duration":77778,"SoundDuration":77778,"Delta":94700509},{"NoteNumber":85,"Velocity":50,"Duration":77778,"SoundDuration":77778,"Delta":94780232},{"NoteNumber":80,"Velocity":48,"Duration":77778,"SoundDuration":77778,"Delta":94854122},{"NoteNumber":64,"Velocity":53,"Duration":233335,"SoundDuration":233335,"Delta":94933845},{"NoteNumber":83,"Velocity":50,"Duration":77778,"SoundDuration":77778,"Delta":94935790},{"NoteNumber":76,"Velocity":44,"Duration":77778,"SoundDuration":77778,"Delta":95010652},{"NoteNumber":81,"Velocity":48,"Duration":77778,"SoundDuration":77778,"Delta":95092319},{"NoteNumber":76,"Velocity":44,"Duration":77778,"SoundDuration":77778,"Delta":95166209},{"NoteNumber":80,"Velocity":48,"Duration":77778,"SoundDuration":77778,"Delta":95243988},{"NoteNumber":56,"Velocity":50,"Duration":116667,"SoundDuration":116667,"Delta":95283849},{"NoteNumber":71,"Velocity":44,"Duration":77778,"SoundDuration":77778,"Delta":95321766},{"NoteNumber":80,"Velocity":50,"Duration":79221,"SoundDuration":79221,"Delta":95399545},{"NoteNumber":47,"Velocity":42,"Duration":947320,"SoundDuration":947320,"Delta":95400517},{"NoteNumber":59,"Velocity":50,"Duration":475436,"SoundDuration":475436,"Delta":95400517},{"NoteNumber":75,"Velocity":48,"Duration":79239,"SoundDuration":79239,"Delta":95482728},{"NoteNumber":78,"Velocity":50,"Duration":79239,"SoundDuration":79239,"Delta":95561967},{"NoteNumber":69,"Velocity":48,"Duration":79239,"SoundDuration":79239,"Delta":95641207},{"NoteNumber":77,"Velocity":50,"Duration":79239,"SoundDuration":79239,"Delta":95720446},{"NoteNumber":75,"Velocity":48,"Duration":79231,"SoundDuration":79231,"Delta":95797704},{"NoteNumber":78,"Velocity":48,"Duration":78662,"SoundDuration":78662,"Delta":95873972},{"NoteNumber":54,"Velocity":50,"Duration":157294,"SoundDuration":157294,"Delta":95875953},{"NoteNumber":69,"Velocity":44,"Duration":78647,"SoundDuration":78647,"Delta":95953617},{"NoteNumber":81,"Velocity":48,"Duration":78647,"SoundDuration":78647,"Delta":96032265},{"NoteNumber":56,"Velocity":42,"Duration":157294,"SoundDuration":157294,"Delta":96033248},{"NoteNumber":71,"Velocity":44,"Duration":78647,"SoundDuration":78647,"Delta":96111895},{"NoteNumber":75,"Velocity":48,"Duration":78647,"SoundDuration":78647,"Delta":96190543},{"NoteNumber":57,"Velocity":48,"Duration":127801,"SoundDuration":127801,"Delta":96190543},{"NoteNumber":69,"Velocity":44,"Duration":78647,"SoundDuration":78647,"Delta":96268207},{"NoteNumber":40,"Velocity":38,"Duration":501376,"SoundDuration":501376,"Delta":96318344},{"NoteNumber":47,"Velocity":38,"Duration":486630,"SoundDuration":486630,"Delta":96333091},{"NoteNumber":56,"Velocity":45,"Duration":471884,"SoundDuration":471884,"Delta":96347837},{"NoteNumber":78,"Velocity":48,"Duration":78647,"SoundDuration":78647,"Delta":96350786},{"NoteNumber":71,"Velocity":44,"Duration":78647,"SoundDuration":78647,"Delta":96427468},{"NoteNumber":77,"Velocity":45,"Duration":78647,"SoundDuration":78647,"Delta":96506115},{"NoteNumber":68,"Velocity":42,"Duration":78647,"SoundDuration":78647,"Delta":96586728},{"NoteNumber":76,"Velocity":44,"Duration":78647,"SoundDuration":78647,"Delta":96663410},{"NoteNumber":71,"Velocity":41,"Duration":78723,"SoundDuration":78723,"Delta":96743040},{"NoteNumber":75,"Velocity":44,"Duration":81679,"SoundDuration":81679,"Delta":96822784},{"NoteNumber":68,"Velocity":41,"Duration":81679,"SoundDuration":81679,"Delta":96904463},{"NoteNumber":74,"Velocity":42,"Duration":81679,"SoundDuration":81679,"Delta":96986143},{"NoteNumber":71,"Velocity":40,"Duration":81679,"SoundDuration":81679,"Delta":97067822},{"NoteNumber":73,"Velocity":42,"Duration":81679,"SoundDuration":81679,"Delta":97144397},{"NoteNumber":68,"Velocity":40,"Duration":81679,"SoundDuration":81679,"Delta":97228118},{"NoteNumber":73,"Velocity":62,"Duration":79562,"SoundDuration":79562,"Delta":97308776},{"NoteNumber":40,"Velocity":70,"Duration":477213,"SoundDuration":477213,"Delta":97309797},{"NoteNumber":52,"Velocity":70,"Duration":477213,"SoundDuration":477213,"Delta":97309797},{"NoteNumber":68,"Velocity":59,"Duration":79535,"SoundDuration":79535,"Delta":97388338},{"NoteNumber":71,"Velocity":59,"Duration":79535,"SoundDuration":79535,"Delta":97471851},{"NoteNumber":62,"Velocity":59,"Duration":79535,"SoundDuration":79535,"Delta":97550392},{"NoteNumber":73,"Velocity":60,"Duration":79535,"SoundDuration":79535,"Delta":97629928},{"NoteNumber":68,"Velocity":61,"Duration":79535,"SoundDuration":79535,"Delta":97705486},{"NoteNumber":35,"Velocity":58,"Duration":156715,"SoundDuration":156715,"Delta":97787010},{"NoteNumber":47,"Velocity":70,"Duration":156715,"SoundDuration":156715,"Delta":97787010},{"NoteNumber":71,"Velocity":62,"Duration":78357,"SoundDuration":78357,"Delta":97787990},{"NoteNumber":74,"Velocity":64,"Duration":78357,"SoundDuration":78357,"Delta":97867327},{"NoteNumber":32,"Velocity":55,"Duration":156715,"SoundDuration":156715,"Delta":97943726},{"NoteNumber":44,"Velocity":66,"Duration":156715,"SoundDuration":156715,"Delta":97943726},{"NoteNumber":85,"Velocity":67,"Duration":78357,"SoundDuration":78357,"Delta":97945684},{"NoteNumber":80,"Velocity":68,"Duration":78357,"SoundDuration":78357,"Delta":98024042},{"NoteNumber":83,"Velocity":69,"Duration":78357,"SoundDuration":78357,"Delta":98098482},{"NoteNumber":35,"Velocity":62,"Duration":156715,"SoundDuration":156715,"Delta":98100441},{"NoteNumber":47,"Velocity":74,"Duration":156715,"SoundDuration":156715,"Delta":98100441},{"NoteNumber":86,"Velocity":70,"Duration":78402,"SoundDuration":78402,"Delta":98180757},{"NoteNumber":97,"Velocity":72,"Duration":80134,"SoundDuration":80134,"Delta":98257156},{"NoteNumber":28,"Velocity":67,"Duration":180302,"SoundDuration":180302,"Delta":98257156},{"NoteNumber":40,"Velocity":79,"Duration":180302,"SoundDuration":180302,"Delta":98257156},{"NoteNumber":92,"Velocity":73,"Duration":80134,"SoundDuration":80134,"Delta":98338293},{"NoteNumber":95,"Velocity":71,"Duration":80134,"SoundDuration":80134,"Delta":98420431},{"NoteNumber":86,"Velocity":71,"Duration":80134,"SoundDuration":80134,"Delta":98500565},{"NoteNumber":85,"Velocity":71,"Duration":80134,"SoundDuration":80134,"Delta":98575691},{"NoteNumber":40,"Velocity":66,"Duration":120201,"SoundDuration":120201,"Delta":98617762},{"NoteNumber":52,"Velocity":77,"Duration":120201,"SoundDuration":120201,"Delta":98617762},{"NoteNumber":80,"Velocity":71,"Duration":80090,"SoundDuration":80090,"Delta":98659833},{"NoteNumber":83,"Velocity":71,"Duration":78357,"SoundDuration":78357,"Delta":98737964},{"NoteNumber":42,"Velocity":70,"Duration":352609,"SoundDuration":352609,"Delta":98737964},{"NoteNumber":54,"Velocity":84,"Duration":352609,"SoundDuration":352609,"Delta":98737964},{"NoteNumber":74,"Velocity":69,"Duration":78357,"SoundDuration":78357,"Delta":98814363},{"NoteNumber":73,"Velocity":69,"Duration":78357,"SoundDuration":78357,"Delta":98893700},{"NoteNumber":68,"Velocity":69,"Duration":78357,"SoundDuration":78357,"Delta":98973037},{"NoteNumber":71,"Velocity":69,"Duration":78357,"SoundDuration":78357,"Delta":99049436},{"NoteNumber":40,"Velocity":67,"Duration":117536,"SoundDuration":117536,"Delta":99090574},{"NoteNumber":52,"Velocity":79,"Duration":117536,"SoundDuration":117536,"Delta":99090574},{"NoteNumber":62,"Velocity":69,"Duration":78390,"SoundDuration":78390,"Delta":99132691},{"NoteNumber":39,"Velocity":73,"Duration":475436,"SoundDuration":475436,"Delta":99208110},{"NoteNumber":51,"Velocity":86,"Duration":475436,"SoundDuration":475436,"Delta":99208110},{"NoteNumber":74,"Velocity":69,"Duration":79239,"SoundDuration":79239,"Delta":99209101},{"NoteNumber":67,"Velocity":69,"Duration":79239,"SoundDuration":79239,"Delta":99286359},{"NoteNumber":72,"Velocity":69,"Duration":79239,"SoundDuration":79239,"Delta":99368570},{"NoteNumber":60,"Velocity":69,"Duration":79239,"SoundDuration":79239,"Delta":99448800},{"NoteNumber":77,"Velocity":69,"Duration":79239,"SoundDuration":79239,"Delta":99524077},{"NoteNumber":72,"Velocity":69,"Duration":79239,"SoundDuration":79239,"Delta":99602326},{"NoteNumber":36,"Velocity":62,"Duration":475436,"SoundDuration":475436,"Delta":99683546},{"NoteNumber":48,"Velocity":74,"Duration":475436,"SoundDuration":475436,"Delta":99683546},{"NoteNumber":75,"Velocity":69,"Duration":79239,"SoundDuration":79239,"Delta":99685527},{"NoteNumber":67,"Velocity":61,"Duration":79239,"SoundDuration":79239,"Delta":99761795},{"NoteNumber":80,"Velocity":61,"Duration":79239,"SoundDuration":79239,"Delta":99843015},{"NoteNumber":75,"Velocity":61,"Duration":79239,"SoundDuration":79239,"Delta":99923245},{"NoteNumber":79,"Velocity":61,"Duration":79239,"SoundDuration":79239,"Delta":100003475},{"NoteNumber":72,"Velocity":61,"Duration":79239,"SoundDuration":79239,"Delta":100078752},{"NoteNumber":39,"Velocity":69,"Duration":480807,"SoundDuration":480807,"Delta":100158982},{"NoteNumber":51,"Velocity":82,"Duration":480807,"SoundDuration":480807,"Delta":100158982},{"NoteNumber":84,"Velocity":61,"Duration":80134,"SoundDuration":80134,"Delta":100159984},{"NoteNumber":79,"Velocity":61,"Duration":80134,"SoundDuration":80134,"Delta":100242122},{"NoteNumber":83,"Velocity":61,"Duration":80134,"SoundDuration":80134,"Delta":100322257},{"NoteNumber":75,"Velocity":61,"Duration":80134,"SoundDuration":80134,"Delta":100400388},{"NoteNumber":82,"Velocity":61,"Duration":80134,"SoundDuration":80134,"Delta":100478519},{"NoteNumber":79,"Velocity":61,"Duration":80090,"SoundDuration":80090,"Delta":100561659},{"NoteNumber":81,"Velocity":61,"Duration":78357,"SoundDuration":78357,"Delta":100639790},{"NoteNumber":41,"Velocity":66,"Duration":156715,"SoundDuration":156715,"Delta":100639790},{"NoteNumber":53,"Velocity":77,"Duration":156715,"SoundDuration":156715,"Delta":100639790},{"NoteNumber":76,"Velocity":62,"Duration":78357,"SoundDuration":78357,"Delta":100718148},{"NoteNumber":80,"Velocity":64,"Duration":78357,"SoundDuration":78357,"Delta":100794547},{"NoteNumber":42,"Velocity":58,"Duration":156715,"SoundDuration":156715,"Delta":100796506},{"NoteNumber":54,"Velocity":70,"Duration":156715,"SoundDuration":156715,"Delta":100796506},{"NoteNumber":76,"Velocity":67,"Duration":78357,"SoundDuration":78357,"Delta":100875843},{"NoteNumber":79,"Velocity":68,"Duration":78357,"SoundDuration":78357,"Delta":100953221},{"NoteNumber":43,"Velocity":62,"Duration":156715,"SoundDuration":156715,"Delta":100953221},{"NoteNumber":55,"Velocity":74,"Duration":156715,"SoundDuration":156715,"Delta":100953221},{"NoteNumber":72,"Velocity":69,"Duration":78357,"SoundDuration":78357,"Delta":101029620},{"NoteNumber":77,"Velocity":66,"Duration":79520,"SoundDuration":79520,"Delta":101108957},{"NoteNumber":44,"Velocity":66,"Duration":477213,"SoundDuration":477213,"Delta":101109936},{"NoteNumber":56,"Velocity":77,"Duration":477213,"SoundDuration":477213,"Delta":101109936},{"NoteNumber":72,"Velocity":59,"Duration":79535,"SoundDuration":79535,"Delta":101192454},{"NoteNumber":75,"Velocity":59,"Duration":79535,"SoundDuration":79535,"Delta":101268013},{"NoteNumber":66,"Velocity":59,"Duration":79535,"SoundDuration":79535,"Delta":101351525},{"NoteNumber":77,"Velocity":60,"Duration":79535,"SoundDuration":79535,"Delta":101426090},{"NoteNumber":72,"Velocity":61,"Duration":79491,"SoundDuration":79491,"Delta":101510596},{"NoteNumber":39,"Velocity":67,"Duration":156715,"SoundDuration":156715,"Delta":101587149},{"NoteNumber":51,"Velocity":79,"Duration":156715,"SoundDuration":156715,"Delta":101587149},{"NoteNumber":75,"Velocity":62,"Duration":78357,"SoundDuration":78357,"Delta":101590088},{"NoteNumber":78,"Velocity":64,"Duration":78357,"SoundDuration":78357,"Delta":101665507},{"NoteNumber":89,"Velocity":67,"Duration":78357,"SoundDuration":78357,"Delta":101742885},{"NoteNumber":36,"Velocity":58,"Duration":156715,"SoundDuration":156715,"Delta":101743865},{"NoteNumber":48,"Velocity":70,"Duration":156715,"SoundDuration":156715,"Delta":101743865},{"NoteNumber":84,"Velocity":69,"Duration":78357,"SoundDuration":78357,"Delta":101823202},{"NoteNumber":39,"Velocity":62,"Duration":156715,"SoundDuration":156715,"Delta":101900580},{"NoteNumber":51,"Velocity":74,"Duration":156715,"SoundDuration":156715,"Delta":101900580},{"NoteNumber":87,"Velocity":70,"Duration":78357,"SoundDuration":78357,"Delta":101901559},{"NoteNumber":90,"Velocity":72,"Duration":78379,"SoundDuration":78379,"Delta":101979917},{"NoteNumber":101,"Velocity":70,"Duration":80134,"SoundDuration":80134,"Delta":102057295},{"NoteNumber":32,"Velocity":67,"Duration":180302,"SoundDuration":180302,"Delta":102057295},{"NoteNumber":44,"Velocity":79,"Duration":180302,"SoundDuration":180302,"Delta":102057295},{"NoteNumber":96,"Velocity":61,"Duration":80134,"SoundDuration":80134,"Delta":102135426},{"NoteNumber":99,"Velocity":69,"Duration":80134,"SoundDuration":80134,"Delta":102220570},{"NoteNumber":90,"Velocity":69,"Duration":80134,"SoundDuration":80134,"Delta":102295696},{"NoteNumber":89,"Velocity":69,"Duration":80134,"SoundDuration":80134,"Delta":102376832},{"NoteNumber":44,"Velocity":66,"Duration":120201,"SoundDuration":120201,"Delta":102417901},{"NoteNumber":56,"Velocity":77,"Duration":120201,"SoundDuration":120201,"Delta":102417901},{"NoteNumber":84,"Velocity":69,"Duration":80134,"SoundDuration":80134,"Delta":102456967},{"NoteNumber":46,"Velocity":70,"Duration":352609,"SoundDuration":352609,"Delta":102538103},{"NoteNumber":58,"Velocity":84,"Duration":352609,"SoundDuration":352609,"Delta":102538103},{"NoteNumber":87,"Velocity":69,"Duration":78357,"SoundDuration":78357,"Delta":102540062},{"NoteNumber":78,"Velocity":69,"Duration":78357,"SoundDuration":78357,"Delta":102617440},{"NoteNumber":77,"Velocity":69,"Duration":78357,"SoundDuration":78357,"Delta":102697757},{"NoteNumber":72,"Velocity":69,"Duration":78357,"SoundDuration":78357,"Delta":102774156},{"NoteNumber":75,"Velocity":69,"Duration":78357,"SoundDuration":78357,"Delta":102853493},{"NoteNumber":44,"Velocity":67,"Duration":117536,"SoundDuration":117536,"Delta":102890713},{"NoteNumber":56,"Velocity":79,"Duration":117536,"SoundDuration":117536,"Delta":102890713},{"NoteNumber":66,"Velocity":69,"Duration":78357,"SoundDuration":78357,"Delta":102929892},{"NoteNumber":43,"Velocity":73,"Duration":475436,"SoundDuration":475436,"Delta":103008249},{"NoteNumber":55,"Velocity":86,"Duration":475436,"SoundDuration":475436,"Delta":103008249},{"NoteNumber":78,"Velocity":69,"Duration":79239,"SoundDuration":79239,"Delta":103010230},{"NoteNumber":71,"Velocity":69,"Duration":79239,"SoundDuration":79239,"Delta":103089469},{"NoteNumber":76,"Velocity":69,"Duration":79239,"SoundDuration":79239,"Delta":103164747},{"NoteNumber":64,"Velocity":69,"Duration":79239,"SoundDuration":79239,"Delta":103246958},{"NoteNumber":81,"Velocity":69,"Duration":79239,"SoundDuration":79239,"Delta":103323226},{"NoteNumber":76,"Velocity":69,"Duration":79239,"SoundDuration":79239,"Delta":103402465},{"NoteNumber":40,"Velocity":62,"Duration":475436,"SoundDuration":475436,"Delta":103483685},{"NoteNumber":52,"Velocity":74,"Duration":475436,"SoundDuration":475436,"Delta":103483685},{"NoteNumber":79,"Velocity":69,"Duration":79239,"SoundDuration":79239,"Delta":103485666},{"NoteNumber":71,"Velocity":61,"Duration":79239,"SoundDuration":79239,"Delta":103562925},{"NoteNumber":84,"Velocity":61,"Duration":79239,"SoundDuration":79239,"Delta":103645135},{"NoteNumber":79,"Velocity":61,"Duration":79239,"SoundDuration":79239,"Delta":103721403},{"NoteNumber":83,"Velocity":61,"Duration":79239,"SoundDuration":79239,"Delta":103802623},{"NoteNumber":76,"Velocity":61,"Duration":79239,"SoundDuration":79239,"Delta":103877901},{"NoteNumber":43,"Velocity":69,"Duration":480807,"SoundDuration":480807,"Delta":103959121},{"NoteNumber":55,"Velocity":82,"Duration":480807,"SoundDuration":480807,"Delta":103959121},{"NoteNumber":88,"Velocity":66,"Duration":80134,"SoundDuration":80134,"Delta":103960123},{"NoteNumber":83,"Velocity":66,"Duration":80134,"SoundDuration":80134,"Delta":104037252},{"NoteNumber":87,"Velocity":67,"Duration":80134,"SoundDuration":80134,"Delta":104121394},{"NoteNumber":79,"Velocity":68,"Duration":80134,"SoundDuration":80134,"Delta":104202530},{"NoteNumber":86,"Velocity":69,"Duration":80134,"SoundDuration":80134,"Delta":104280662},{"NoteNumber":83,"Velocity":69,"Duration":80090,"SoundDuration":80090,"Delta":104361798},{"NoteNumber":85,"Velocity":70,"Duration":78379,"SoundDuration":78379,"Delta":104438927},{"NoteNumber":45,"Velocity":66,"Duration":156715,"SoundDuration":156715,"Delta":104439929},{"NoteNumber":57,"Velocity":77,"Duration":156715,"SoundDuration":156715,"Delta":104439929},{"NoteNumber":79,"Velocity":71,"Duration":78357,"SoundDuration":78357,"Delta":104520246},{"NoteNumber":46,"Velocity":67,"Duration":156715,"SoundDuration":156715,"Delta":104596645},{"NoteNumber":58,"Velocity":79,"Duration":156715,"SoundDuration":156715,"Delta":104596645},{"NoteNumber":84,"Velocity":72,"Duration":78357,"SoundDuration":78357,"Delta":104597624},{"NoteNumber":79,"Velocity":73,"Duration":78357,"SoundDuration":78357,"Delta":104675982},{"NoteNumber":83,"Velocity":73,"Duration":78357,"SoundDuration":78357,"Delta":104752380},{"NoteNumber":47,"Velocity":69,"Duration":156715,"SoundDuration":156715,"Delta":104753360},{"NoteNumber":59,"Velocity":82,"Duration":156715,"SoundDuration":156715,"Delta":104753360},{"NoteNumber":76,"Velocity":75,"Duration":78410,"SoundDuration":78410,"Delta":104834656},{"NoteNumber":82,"Velocity":68,"Duration":79776,"SoundDuration":79776,"Delta":104910075},{"NoteNumber":48,"Velocity":75,"Duration":478660,"SoundDuration":478660,"Delta":104910075},{"NoteNumber":60,"Velocity":90,"Duration":478660,"SoundDuration":478660,"Delta":104910075},{"NoteNumber":76,"Velocity":64,"Duration":79776,"SoundDuration":79776,"Delta":104991846},{"NoteNumber":81,"Velocity":69,"Duration":79776,"SoundDuration":79776,"Delta":105069629},{"NoteNumber":70,"Velocity":64,"Duration":79776,"SoundDuration":79776,"Delta":105147411},{"NoteNumber":80,"Velocity":69,"Duration":79776,"SoundDuration":79776,"Delta":105229182},{"NoteNumber":76,"Velocity":64,"Duration":79789,"SoundDuration":79789,"Delta":105309956},{"NoteNumber":36,"Velocity":63,"Duration":514530,"SoundDuration":514530,"Delta":105358819},{"NoteNumber":43,"Velocity":63,"Duration":499572,"SoundDuration":499572,"Delta":105373777},{"NoteNumber":79,"Velocity":69,"Duration":80769,"SoundDuration":80769,"Delta":105388735},{"NoteNumber":52,"Velocity":82,"Duration":484613,"SoundDuration":484613,"Delta":105388735},{"NoteNumber":70,"Velocity":64,"Duration":80768,"SoundDuration":80768,"Delta":105469504},{"NoteNumber":81,"Velocity":69,"Duration":80769,"SoundDuration":80769,"Delta":105548254},{"NoteNumber":76,"Velocity":64,"Duration":80769,"SoundDuration":80769,"Delta":105630033},{"NoteNumber":79,"Velocity":69,"Duration":80769,"SoundDuration":80769,"Delta":105712821},{"NoteNumber":70,"Velocity":64,"Duration":80731,"SoundDuration":80731,"Delta":105795609},{"NoteNumber":41,"Velocity":67,"Duration":508948,"SoundDuration":508948,"Delta":105843061},{"NoteNumber":48,"Velocity":68,"Duration":493804,"SoundDuration":493804,"Delta":105858205},{"NoteNumber":79,"Velocity":69,"Duration":79776,"SoundDuration":79776,"Delta":105873349},{"NoteNumber":57,"Velocity":89,"Duration":478660,"SoundDuration":478660,"Delta":105873349},{"NoteNumber":72,"Velocity":64,"Duration":79776,"SoundDuration":79776,"Delta":105956117},{"NoteNumber":78,"Velocity":69,"Duration":79776,"SoundDuration":79776,"Delta":106032903},{"NoteNumber":69,"Velocity":64,"Duration":79776,"SoundDuration":79776,"Delta":106113676},{"NoteNumber":77,"Velocity":69,"Duration":79776,"SoundDuration":79776,"Delta":106190461},{"NoteNumber":72,"Velocity":64,"Duration":79801,"SoundDuration":79801,"Delta":106275224},{"NoteNumber":35,"Velocity":60,"Duration":497622,"SoundDuration":497622,"Delta":106337051},{"NoteNumber":54,"Velocity":82,"Duration":482663,"SoundDuration":482663,"Delta":106352009},{"NoteNumber":78,"Velocity":69,"Duration":80443,"SoundDuration":80443,"Delta":106355026},{"NoteNumber":69,"Velocity":64,"Duration":80443,"SoundDuration":80443,"Delta":106432453},{"NoteNumber":79,"Velocity":69,"Duration":80443,"SoundDuration":80443,"Delta":106514908},{"NoteNumber":71,"Velocity":64,"Duration":80443,"SoundDuration":80443,"Delta":106592336},{"NoteNumber":78,"Velocity":69,"Duration":80443,"SoundDuration":80443,"Delta":106674791},{"NoteNumber":69,"Velocity":64,"Duration":80443,"SoundDuration":80443,"Delta":106754229},{"NoteNumber":40,"Velocity":62,"Duration":508826,"SoundDuration":508826,"Delta":106804507},{"NoteNumber":47,"Velocity":63,"Duration":493743,"SoundDuration":493743,"Delta":106819590},{"NoteNumber":55,"Velocity":90,"Duration":478660,"SoundDuration":478660,"Delta":106834673},{"NoteNumber":78,"Velocity":69,"Duration":79776,"SoundDuration":79776,"Delta":106835670},{"NoteNumber":71,"Velocity":64,"Duration":79776,"SoundDuration":79776,"Delta":106912455},{"NoteNumber":77,"Velocity":69,"Duration":79776,"SoundDuration":79776,"Delta":106994227},{"NoteNumber":67,"Velocity":64,"Duration":79776,"SoundDuration":79776,"Delta":107073006},{"NoteNumber":76,"Velocity":69,"Duration":79776,"SoundDuration":79776,"Delta":107156771},{"NoteNumber":71,"Velocity":64,"Duration":79776,"SoundDuration":79776,"Delta":107236548},{"NoteNumber":45,"Velocity":55,"Duration":508576,"SoundDuration":508576,"Delta":107283417},{"NoteNumber":52,"Velocity":56,"Duration":493618,"SoundDuration":493618,"Delta":107298375},{"NoteNumber":61,"Velocity":82,"Duration":478659,"SoundDuration":478659,"Delta":107313333},{"NoteNumber":76,"Velocity":69,"Duration":79776,"SoundDuration":79776,"Delta":107316325},{"NoteNumber":67,"Velocity":64,"Duration":79776,"SoundDuration":79776,"Delta":107394107},{"NoteNumber":77,"Velocity":69,"Duration":79776,"SoundDuration":79776,"Delta":107473884},{"NoteNumber":69,"Velocity":64,"Duration":79776,"SoundDuration":79776,"Delta":107550669},{"NoteNumber":76,"Velocity":69,"Duration":79776,"SoundDuration":79776,"Delta":107632440},{"NoteNumber":67,"Velocity":64,"Duration":79776,"SoundDuration":79776,"Delta":107711219},{"NoteNumber":50,"Velocity":62,"Duration":508576,"SoundDuration":508576,"Delta":107762077},{"NoteNumber":57,"Velocity":66,"Duration":493618,"SoundDuration":493618,"Delta":107777035},{"NoteNumber":76,"Velocity":69,"Duration":79776,"SoundDuration":79776,"Delta":107791993},{"NoteNumber":62,"Velocity":89,"Duration":478660,"SoundDuration":478660,"Delta":107791993},{"NoteNumber":69,"Velocity":64,"Duration":79776,"SoundDuration":79776,"Delta":107869775},{"NoteNumber":73,"Velocity":69,"Duration":79776,"SoundDuration":79776,"Delta":107954538},{"NoteNumber":65,"Velocity":64,"Duration":79776,"SoundDuration":79776,"Delta":108030326},{"NoteNumber":74,"Velocity":69,"Duration":79776,"SoundDuration":79776,"Delta":108113094},{"NoteNumber":69,"Velocity":64,"Duration":79776,"SoundDuration":79776,"Delta":108193868},{"NoteNumber":45,"Velocity":55,"Duration":508576,"SoundDuration":508576,"Delta":108240737},{"NoteNumber":52,"Velocity":55,"Duration":493618,"SoundDuration":493618,"Delta":108255695},{"NoteNumber":60,"Velocity":82,"Duration":478659,"SoundDuration":478659,"Delta":108270653},{"NoteNumber":74,"Velocity":69,"Duration":79776,"SoundDuration":79776,"Delta":108271650},{"NoteNumber":64,"Velocity":64,"Duration":79776,"SoundDuration":79776,"Delta":108349433},{"NoteNumber":71,"Velocity":69,"Duration":79776,"SoundDuration":79776,"Delta":108429209},{"NoteNumber":69,"Velocity":64,"Duration":79776,"SoundDuration":79776,"Delta":108510980},{"NoteNumber":72,"Velocity":69,"Duration":79776,"SoundDuration":79776,"Delta":108592751},{"NoteNumber":64,"Velocity":64,"Duration":79776,"SoundDuration":79776,"Delta":108668539},{"NoteNumber":72,"Velocity":70,"Duration":80730,"SoundDuration":80730,"Delta":108748316},{"NoteNumber":38,"Velocity":80,"Duration":242228,"SoundDuration":242228,"Delta":108749313},{"NoteNumber":50,"Velocity":94,"Duration":242228,"SoundDuration":242228,"Delta":108749313},{"NoteNumber":69,"Velocity":70,"Duration":80742,"SoundDuration":80742,"Delta":108832075},{"NoteNumber":71,"Velocity":70,"Duration":80742,"SoundDuration":80742,"Delta":108913827},{"NoteNumber":65,"Velocity":70,"Duration":80742,"SoundDuration":80742,"Delta":108990532},{"NoteNumber":72,"Velocity":70,"Duration":80742,"SoundDuration":80742,"Delta":109071275},{"NoteNumber":69,"Velocity":70,"Duration":80742,"SoundDuration":80742,"Delta":109153027},{"NoteNumber":53,"Velocity":77,"Duration":468384,"SoundDuration":468384,"Delta":109233770},{"NoteNumber":65,"Velocity":90,"Duration":468384,"SoundDuration":468384,"Delta":109233770},{"NoteNumber":71,"Velocity":70,"Duration":78063,"SoundDuration":78063,"Delta":109236698},{"NoteNumber":77,"Velocity":71,"Duration":78063,"SoundDuration":78063,"Delta":109312810},{"NoteNumber":84,"Velocity":72,"Duration":78063,"SoundDuration":78063,"Delta":109387947},{"NoteNumber":81,"Velocity":73,"Duration":78063,"SoundDuration":78063,"Delta":109470890},{"NoteNumber":83,"Velocity":75,"Duration":78063,"SoundDuration":78063,"Delta":109544075},{"NoteNumber":89,"Velocity":77,"Duration":78064,"SoundDuration":78064,"Delta":109625066},{"NoteNumber":96,"Velocity":77,"Duration":78064,"SoundDuration":78064,"Delta":109701178},{"NoteNumber":46,"Velocity":74,"Duration":234191,"SoundDuration":234191,"Delta":109702154},{"NoteNumber":58,"Velocity":88,"Duration":234191,"SoundDuration":234191,"Delta":109702154},{"NoteNumber":93,"Velocity":77,"Duration":78063,"SoundDuration":78063,"Delta":109779242},{"NoteNumber":95,"Velocity":75,"Duration":78063,"SoundDuration":78063,"Delta":109856331},{"NoteNumber":89,"Velocity":73,"Duration":78063,"SoundDuration":78063,"Delta":109935370},{"NoteNumber":84,"Velocity":73,"Duration":78063,"SoundDuration":78063,"Delta":110014410},{"NoteNumber":48,"Velocity":79,"Duration":117096,"SoundDuration":117096,"Delta":110053442},{"NoteNumber":60,"Velocity":93,"Duration":117096,"SoundDuration":117096,"Delta":110053442},{"NoteNumber":81,"Velocity":72,"Duration":78130,"SoundDuration":78130,"Delta":110095402},{"NoteNumber":83,"Velocity":70,"Duration":79783,"SoundDuration":79783,"Delta":110168587},{"NoteNumber":47,"Velocity":74,"Duration":478965,"SoundDuration":478965,"Delta":110170538},{"NoteNumber":59,"Velocity":89,"Duration":478965,"SoundDuration":478965,"Delta":110170538},{"NoteNumber":77,"Velocity":70,"Duration":79827,"SoundDuration":79827,"Delta":110248370},{"NoteNumber":72,"Velocity":70,"Duration":79827,"SoundDuration":79827,"Delta":110330193},{"NoteNumber":69,"Velocity":70,"Duration":79827,"SoundDuration":79827,"Delta":110409023},{"NoteNumber":71,"Velocity":70,"Duration":79827,"SoundDuration":79827,"Delta":110490846},{"NoteNumber":65,"Velocity":70,"Duration":79827,"SoundDuration":79827,"Delta":110569676},{"NoteNumber":71,"Velocity":70,"Duration":80742,"SoundDuration":80742,"Delta":110649503},{"NoteNumber":39,"Velocity":80,"Duration":242228,"SoundDuration":242228,"Delta":110649503},{"NoteNumber":51,"Velocity":94,"Duration":242228,"SoundDuration":242228,"Delta":110649503},{"NoteNumber":66,"Velocity":70,"Duration":80742,"SoundDuration":80742,"Delta":110733274},{"NoteNumber":69,"Velocity":70,"Duration":80742,"SoundDuration":80742,"Delta":110811998},{"NoteNumber":60,"Velocity":70,"Duration":80742,"SoundDuration":80742,"Delta":110890722},{"NoteNumber":71,"Velocity":70,"Duration":80742,"SoundDuration":80742,"Delta":110972475},{"NoteNumber":66,"Velocity":70,"Duration":80742,"SoundDuration":80742,"Delta":111053217},{"NoteNumber":54,"Velocity":77,"Duration":468384,"SoundDuration":468384,"Delta":111133960},{"NoteNumber":66,"Velocity":90,"Duration":468384,"SoundDuration":468384,"Delta":111133960},{"NoteNumber":69,"Velocity":70,"Duration":78063,"SoundDuration":78063,"Delta":111136888},{"NoteNumber":72,"Velocity":71,"Duration":78063,"SoundDuration":78063,"Delta":111213000},{"NoteNumber":83,"Velocity":72,"Duration":78063,"SoundDuration":78063,"Delta":111293016},{"NoteNumber":78,"Velocity":73,"Duration":78063,"SoundDuration":78063,"Delta":111370104},{"NoteNumber":81,"Velocity":75,"Duration":78063,"SoundDuration":78063,"Delta":111448168},{"NoteNumber":84,"Velocity":77,"Duration":78064,"SoundDuration":78064,"Delta":111525256},{"NoteNumber":45,"Velocity":74,"Duration":234191,"SoundDuration":234191,"Delta":111602344},{"NoteNumber":57,"Velocity":88,"Duration":234191,"SoundDuration":234191,"Delta":111602344},{"NoteNumber":95,"Velocity":79,"Duration":78063,"SoundDuration":78063,"Delta":111605272},{"NoteNumber":90,"Velocity":78,"Duration":78063,"SoundDuration":78063,"Delta":111679432},{"NoteNumber":93,"Velocity":77,"Duration":78063,"SoundDuration":78063,"Delta":111761400},{"NoteNumber":84,"Velocity":75,"Duration":78063,"SoundDuration":78063,"Delta":111835560},{"NoteNumber":83,"Velocity":72,"Duration":78063,"SoundDuration":78063,"Delta":111917528},{"NoteNumber":50,"Velocity":79,"Duration":117096,"SoundDuration":117096,"Delta":111953632},{"NoteNumber":62,"Velocity":93,"Duration":117096,"SoundDuration":117096,"Delta":111953632},{"NoteNumber":78,"Velocity":71,"Duration":78063,"SoundDuration":78063,"Delta":111994616},{"NoteNumber":81,"Velocity":70,"Duration":78063,"SoundDuration":78063,"Delta":112068777},{"NoteNumber":48,"Velocity":74,"Duration":468384,"SoundDuration":468384,"Delta":112070728},{"NoteNumber":60,"Velocity":89,"Duration":468384,"SoundDuration":468384,"Delta":112070728},{"NoteNumber":72,"Velocity":70,"Duration":78063,"SoundDuration":78063,"Delta":112150744},{"NoteNumber":71,"Velocity":70,"Duration":78063,"SoundDuration":78063,"Delta":112226856},{"NoteNumber":66,"Velocity":70,"Duration":78063,"SoundDuration":78063,"Delta":112303944},{"NoteNumber":69,"Velocity":70,"Duration":78064,"SoundDuration":78064,"Delta":112381033},{"NoteNumber":60,"Velocity":70,"Duration":78063,"SoundDuration":78063,"Delta":112459097},{"NoteNumber":69,"Velocity":59,"Duration":79827,"SoundDuration":79827,"Delta":112539112},{"NoteNumber":52,"Velocity":62,"Duration":1899980,"SoundDuration":1899980,"Delta":112539112},{"NoteNumber":40,"Velocity":62,"Duration":239482,"SoundDuration":239482,"Delta":112539112},{"NoteNumber":64,"Velocity":59,"Duration":79827,"SoundDuration":79827,"Delta":112621933},{"NoteNumber":68,"Velocity":59,"Duration":79827,"SoundDuration":79827,"Delta":112696771},{"NoteNumber":71,"Velocity":60,"Duration":79827,"SoundDuration":79827,"Delta":112776599},{"NoteNumber":81,"Velocity":60,"Duration":79827,"SoundDuration":79827,"Delta":112857424},{"NoteNumber":76,"Velocity":61,"Duration":79805,"SoundDuration":79805,"Delta":112940245},{"NoteNumber":59,"Velocity":80,"Duration":355254,"SoundDuration":355254,"Delta":113018077},{"NoteNumber":80,"Velocity":62,"Duration":78945,"SoundDuration":78945,"Delta":113020051},{"NoteNumber":83,"Velocity":62,"Duration":78945,"SoundDuration":78945,"Delta":113098996},{"NoteNumber":93,"Velocity":63,"Duration":78945,"SoundDuration":78945,"Delta":113176955},{"NoteNumber":88,"Velocity":63,"Duration":78945,"SoundDuration":78945,"Delta":113253926},{"NoteNumber":92,"Velocity":64,"Duration":78945,"SoundDuration":78945,"Delta":113335832},{"NoteNumber":64,"Velocity":77,"Duration":118417,"SoundDuration":118417,"Delta":113373331},{"NoteNumber":83,"Velocity":63,"Duration":78945,"SoundDuration":78945,"Delta":113415764},{"NoteNumber":62,"Velocity":77,"Duration":947344,"SoundDuration":947344,"Delta":113491749},{"NoteNumber":92,"Velocity":63,"Duration":78945,"SoundDuration":78945,"Delta":113494710},{"NoteNumber":86,"Velocity":63,"Duration":78945,"SoundDuration":78945,"Delta":113569708},{"NoteNumber":90,"Velocity":63,"Duration":78945,"SoundDuration":78945,"Delta":113649640},{"NoteNumber":83,"Velocity":63,"Duration":78945,"SoundDuration":78945,"Delta":113726612},{"NoteNumber":80,"Velocity":62,"Duration":78945,"SoundDuration":78945,"Delta":113805557},{"NoteNumber":74,"Velocity":62,"Duration":78945,"SoundDuration":78945,"Delta":113884502},{"NoteNumber":78,"Velocity":62,"Duration":78945,"SoundDuration":78945,"Delta":113965421},{"NoteNumber":71,"Velocity":61,"Duration":78945,"SoundDuration":78945,"Delta":114046340},{"NoteNumber":68,"Velocity":61,"Duration":78945,"SoundDuration":78945,"Delta":114123312},{"NoteNumber":62,"Velocity":61,"Duration":78945,"SoundDuration":78945,"Delta":114201270},{"NoteNumber":66,"Velocity":61,"Duration":78945,"SoundDuration":78945,"Delta":114280216},{"NoteNumber":59,"Velocity":61,"Duration":78945,"SoundDuration":78945,"Delta":114359161},{"NoteNumber":28,"Velocity":61,"Duration":239482,"SoundDuration":239482,"Delta":114439093},{"NoteNumber":40,"Velocity":61,"Duration":239482,"SoundDuration":239482,"Delta":114439093},{"NoteNumber":66,"Velocity":60,"Duration":79827,"SoundDuration":79827,"Delta":114441089},{"NoteNumber":61,"Velocity":59,"Duration":79827,"SoundDuration":79827,"Delta":114516925},{"NoteNumber":64,"Velocity":59,"Duration":79827,"SoundDuration":79827,"Delta":114596752},{"NoteNumber":68,"Velocity":60,"Duration":79827,"SoundDuration":79827,"Delta":114679574},{"NoteNumber":78,"Velocity":60,"Duration":79827,"SoundDuration":79827,"Delta":114758403},{"NoteNumber":73,"Velocity":61,"Duration":79805,"SoundDuration":79805,"Delta":114840226},{"NoteNumber":76,"Velocity":62,"Duration":78967,"SoundDuration":78967,"Delta":114916062},{"NoteNumber":56,"Velocity":80,"Duration":355254,"SoundDuration":355254,"Delta":114918058},{"NoteNumber":80,"Velocity":66,"Duration":78945,"SoundDuration":78945,"Delta":114999964},{"NoteNumber":90,"Velocity":66,"Duration":78945,"SoundDuration":78945,"Delta":115073975},{"NoteNumber":85,"Velocity":66,"Duration":78945,"SoundDuration":78945,"Delta":115152921},{"NoteNumber":88,"Velocity":66,"Duration":78945,"SoundDuration":78945,"Delta":115232853},{"NoteNumber":61,"Velocity":77,"Duration":118417,"SoundDuration":118417,"Delta":115273312},{"NoteNumber":80,"Velocity":66,"Duration":78945,"SoundDuration":78945,"Delta":115314758},{"NoteNumber":88,"Velocity":66,"Duration":78945,"SoundDuration":78945,"Delta":115390743},{"NoteNumber":59,"Velocity":77,"Duration":947344,"SoundDuration":947344,"Delta":115391730},{"NoteNumber":83,"Velocity":64,"Duration":78945,"SoundDuration":78945,"Delta":115471662},{"NoteNumber":86,"Velocity":64,"Duration":78945,"SoundDuration":78945,"Delta":115549621},{"NoteNumber":78,"Velocity":63,"Duration":78945,"SoundDuration":78945,"Delta":115629553},{"NoteNumber":76,"Velocity":63,"Duration":78945,"SoundDuration":78945,"Delta":115708498},{"NoteNumber":71,"Velocity":62,"Duration":78945,"SoundDuration":78945,"Delta":115789417},{"NoteNumber":74,"Velocity":62,"Duration":78945,"SoundDuration":78945,"Delta":115868363},{"NoteNumber":66,"Velocity":67,"Duration":78945,"SoundDuration":78945,"Delta":115947308},{"NoteNumber":64,"Velocity":64,"Duration":78945,"SoundDuration":78945,"Delta":116021319},{"NoteNumber":59,"Velocity":62,"Duration":78945,"SoundDuration":78945,"Delta":116100265},{"NoteNumber":62,"Velocity":62,"Duration":78945,"SoundDuration":78945,"Delta":116182170},{"NoteNumber":54,"Velocity":61,"Duration":79006,"SoundDuration":79006,"Delta":116262102},{"NoteNumber":40,"Velocity":74,"Duration":3837288,"SoundDuration":3837288,"Delta":116339074},{"NoteNumber":61,"Velocity":71,"Duration":81373,"SoundDuration":81373,"Delta":116342126},{"NoteNumber":56,"Velocity":66,"Duration":81373,"SoundDuration":81373,"Delta":116418414},{"NoteNumber":59,"Velocity":71,"Duration":81373,"SoundDuration":81373,"Delta":116504873},{"NoteNumber":53,"Velocity":67,"Duration":81373,"SoundDuration":81373,"Delta":116585230},{"NoteNumber":64,"Velocity":71,"Duration":81373,"SoundDuration":81373,"Delta":116664569},{"NoteNumber":59,"Velocity":68,"Duration":81354,"SoundDuration":81354,"Delta":116746960},{"NoteNumber":53,"Velocity":79,"Duration":359223,"SoundDuration":359223,"Delta":116827316},{"NoteNumber":62,"Velocity":71,"Duration":79827,"SoundDuration":79827,"Delta":116829312},{"NoteNumber":56,"Velocity":66,"Duration":79827,"SoundDuration":79827,"Delta":116907144},{"NoteNumber":67,"Velocity":71,"Duration":79827,"SoundDuration":79827,"Delta":116985973},{"NoteNumber":62,"Velocity":68,"Duration":79827,"SoundDuration":79827,"Delta":117069792},{"NoteNumber":65,"Velocity":71,"Duration":79827,"SoundDuration":79827,"Delta":117149620},{"NoteNumber":53,"Velocity":77,"Duration":119741,"SoundDuration":119741,"Delta":117186540},{"NoteNumber":59,"Velocity":68,"Duration":79850,"SoundDuration":79850,"Delta":117228449},{"NoteNumber":53,"Velocity":77,"Duration":484457,"SoundDuration":484457,"Delta":117306281},{"NoteNumber":69,"Velocity":71,"Duration":80742,"SoundDuration":80742,"Delta":117307290},{"NoteNumber":65,"Velocity":71,"Duration":80742,"SoundDuration":80742,"Delta":117386015},{"NoteNumber":68,"Velocity":71,"Duration":80742,"SoundDuration":80742,"Delta":117465748},{"NoteNumber":62,"Velocity":71,"Duration":80742,"SoundDuration":80742,"Delta":117547500},{"NoteNumber":72,"Velocity":71,"Duration":80742,"SoundDuration":80742,"Delta":117630262},{"NoteNumber":68,"Velocity":71,"Duration":80742,"SoundDuration":80742,"Delta":117709995},{"NoteNumber":71,"Velocity":71,"Duration":78945,"SoundDuration":78945,"Delta":117790738},{"NoteNumber":55,"Velocity":80,"Duration":473671,"SoundDuration":473671,"Delta":117790738},{"NoteNumber":65,"Velocity":71,"Duration":78945,"SoundDuration":78945,"Delta":117868697},{"NoteNumber":76,"Velocity":71,"Duration":78945,"SoundDuration":78945,"Delta":117948629},{"NoteNumber":71,"Velocity":71,"Duration":78945,"SoundDuration":78945,"Delta":118029548},{"NoteNumber":74,"Velocity":71,"Duration":78945,"SoundDuration":78945,"Delta":118109480},{"NoteNumber":68,"Velocity":71,"Duration":78975,"SoundDuration":78975,"Delta":118187438},{"NoteNumber":53,"Velocity":79,"Duration":480807,"SoundDuration":480807,"Delta":118264410},{"NoteNumber":79,"Velocity":71,"Duration":80134,"SoundDuration":80134,"Delta":118267415},{"NoteNumber":74,"Velocity":71,"Duration":80134,"SoundDuration":80134,"Delta":118343543},{"NoteNumber":77,"Velocity":73,"Duration":80134,"SoundDuration":80134,"Delta":118425681},{"NoteNumber":71,"Velocity":75,"Duration":80134,"SoundDuration":80134,"Delta":118503812},{"NoteNumber":81,"Velocity":77,"Duration":80134,"SoundDuration":80134,"Delta":118587954},{"NoteNumber":77,"Velocity":77,"Duration":80134,"SoundDuration":80134,"Delta":118665084},{"NoteNumber":80,"Velocity":77,"Duration":82931,"SoundDuration":82931,"Delta":118744216},{"NoteNumber":50,"Velocity":79,"Duration":497800,"SoundDuration":497800,"Delta":118745218},{"NoteNumber":74,"Velocity":78,"Duration":82966,"SoundDuration":82966,"Delta":118829222},{"NoteNumber":84,"Velocity":78,"Duration":82966,"SoundDuration":82966,"Delta":118912189},{"NoteNumber":80,"Velocity":78,"Duration":82966,"SoundDuration":82966,"Delta":118994119},{"NoteNumber":83,"Velocity":79,"Duration":82966,"SoundDuration":82966,"Delta":119077086},{"NoteNumber":77,"Velocity":79,"Duration":82966,"SoundDuration":82966,"Delta":119159015},{"NoteNumber":88,"Velocity":77,"Duration":77843,"SoundDuration":77843,"Delta":119241982},{"NoteNumber":53,"Velocity":77,"Duration":933344,"SoundDuration":933344,"Delta":119243019},{"NoteNumber":83,"Velocity":77,"Duration":77778,"SoundDuration":77778,"Delta":119319826},{"NoteNumber":86,"Velocity":77,"Duration":77778,"SoundDuration":77778,"Delta":119401493},{"NoteNumber":80,"Velocity":77,"Duration":77778,"SoundDuration":77778,"Delta":119478300},{"NoteNumber":91,"Velocity":77,"Duration":77778,"SoundDuration":77778,"Delta":119556078},{"NoteNumber":86,"Velocity":77,"Duration":77778,"SoundDuration":77778,"Delta":119632885},{"NoteNumber":89,"Velocity":75,"Duration":77778,"SoundDuration":77778,"Delta":119711636},{"NoteNumber":83,"Velocity":77,"Duration":77778,"SoundDuration":77778,"Delta":119786498},{"NoteNumber":93,"Velocity":79,"Duration":77778,"SoundDuration":77778,"Delta":119867193},{"NoteNumber":89,"Velocity":80,"Duration":77778,"SoundDuration":77778,"Delta":119941083},{"NoteNumber":92,"Velocity":82,"Duration":77778,"SoundDuration":77778,"Delta":120022750},{"NoteNumber":86,"Velocity":84,"Duration":77789,"SoundDuration":77789,"Delta":120101501},{"NoteNumber":40,"Velocity":82,"Duration":78060,"SoundDuration":78060,"Delta":120175391},{"NoteNumber":101,"Velocity":97,"Duration":93676,"SoundDuration":93676,"Delta":120176363},{"NoteNumber":95,"Velocity":88,"Duration":93676,"SoundDuration":93676,"Delta":120252476},{"NoteNumber":47,"Velocity":70,"Duration":93676,"SoundDuration":93676,"Delta":120253451},{"NoteNumber":44,"Velocity":79,"Duration":93676,"SoundDuration":93676,"Delta":120331515},{"NoteNumber":100,"Velocity":94,"Duration":93676,"SoundDuration":93676,"Delta":120332491},{"NoteNumber":92,"Velocity":85,"Duration":93676,"SoundDuration":93676,"Delta":120408604},{"NoteNumber":50,"Velocity":68,"Duration":93676,"SoundDuration":93676,"Delta":120412507},{"NoteNumber":44,"Velocity":74,"Duration":93676,"SoundDuration":93676,"Delta":120489595},{"NoteNumber":99,"Velocity":94,"Duration":93676,"SoundDuration":93676,"Delta":120491547},{"NoteNumber":50,"Velocity":68,"Duration":93676,"SoundDuration":93676,"Delta":120564732},{"NoteNumber":95,"Velocity":85,"Duration":93676,"SoundDuration":93676,"Delta":120567659},{"NoteNumber":47,"Velocity":74,"Duration":93676,"SoundDuration":93676,"Delta":120643771},{"NoteNumber":98,"Velocity":90,"Duration":93676,"SoundDuration":93676,"Delta":120645723},{"NoteNumber":92,"Velocity":85,"Duration":93676,"SoundDuration":93676,"Delta":120723787},{"NoteNumber":53,"Velocity":66,"Duration":93676,"SoundDuration":93676,"Delta":120723787},{"NoteNumber":47,"Velocity":74,"Duration":93676,"SoundDuration":93676,"Delta":120799899},{"NoteNumber":97,"Velocity":89,"Duration":93676,"SoundDuration":93676,"Delta":120801851},{"NoteNumber":53,"Velocity":67,"Duration":93676,"SoundDuration":93676,"Delta":120879915},{"NoteNumber":92,"Velocity":84,"Duration":93676,"SoundDuration":93676,"Delta":120880891},{"NoteNumber":50,"Velocity":74,"Duration":93676,"SoundDuration":93676,"Delta":120955052},{"NoteNumber":96,"Velocity":89,"Duration":93676,"SoundDuration":93676,"Delta":120957979},{"NoteNumber":56,"Velocity":66,"Duration":93676,"SoundDuration":93676,"Delta":121035067},{"NoteNumber":89,"Velocity":84,"Duration":93676,"SoundDuration":93676,"Delta":121037019},{"NoteNumber":50,"Velocity":74,"Duration":93676,"SoundDuration":93676,"Delta":121113131},{"NoteNumber":95,"Velocity":89,"Duration":93676,"SoundDuration":93676,"Delta":121115083},{"NoteNumber":56,"Velocity":66,"Duration":93676,"SoundDuration":93676,"Delta":121190219},{"NoteNumber":89,"Velocity":84,"Duration":93676,"SoundDuration":93676,"Delta":121194123},{"NoteNumber":94,"Velocity":89,"Duration":93676,"SoundDuration":93676,"Delta":121267308},{"NoteNumber":53,"Velocity":74,"Duration":93676,"SoundDuration":93676,"Delta":121271211},{"NoteNumber":86,"Velocity":84,"Duration":93676,"SoundDuration":93676,"Delta":121347323},{"NoteNumber":59,"Velocity":66,"Duration":93676,"SoundDuration":93676,"Delta":121350251},{"NoteNumber":53,"Velocity":73,"Duration":93676,"SoundDuration":93676,"Delta":121426363},{"NoteNumber":93,"Velocity":89,"Duration":93676,"SoundDuration":93676,"Delta":121427339},{"NoteNumber":89,"Velocity":82,"Duration":93676,"SoundDuration":93676,"Delta":121501500},{"NoteNumber":59,"Velocity":63,"Duration":93676,"SoundDuration":93676,"Delta":121506379},{"NoteNumber":92,"Velocity":88,"Duration":93676,"SoundDuration":93676,"Delta":121581515},{"NoteNumber":56,"Velocity":73,"Duration":93676,"SoundDuration":93676,"Delta":121583467},{"NoteNumber":83,"Velocity":82,"Duration":93676,"SoundDuration":93676,"Delta":121657628},{"NoteNumber":62,"Velocity":63,"Duration":93676,"SoundDuration":93676,"Delta":121660555},{"NoteNumber":91,"Velocity":88,"Duration":93676,"SoundDuration":93676,"Delta":121738619},{"NoteNumber":56,"Velocity":72,"Duration":93676,"SoundDuration":93676,"Delta":121738619},{"NoteNumber":86,"Velocity":82,"Duration":93676,"SoundDuration":93676,"Delta":121814731},{"NoteNumber":62,"Velocity":63,"Duration":93676,"SoundDuration":93676,"Delta":121816683},{"NoteNumber":90,"Velocity":88,"Duration":93676,"SoundDuration":93676,"Delta":121891820},{"NoteNumber":59,"Velocity":72,"Duration":93676,"SoundDuration":93676,"Delta":121894747},{"NoteNumber":80,"Velocity":82,"Duration":93676,"SoundDuration":93676,"Delta":121970859},{"NoteNumber":65,"Velocity":63,"Duration":93676,"SoundDuration":93676,"Delta":121970859},{"NoteNumber":59,"Velocity":72,"Duration":93676,"SoundDuration":93676,"Delta":122048923},{"NoteNumber":89,"Velocity":88,"Duration":93676,"SoundDuration":93676,"Delta":122052827},{"NoteNumber":65,"Velocity":64,"Duration":93676,"SoundDuration":93676,"Delta":122126987},{"NoteNumber":83,"Velocity":82,"Duration":93676,"SoundDuration":93676,"Delta":122128939},{"NoteNumber":62,"Velocity":72,"Duration":93676,"SoundDuration":93676,"Delta":122205051},{"NoteNumber":88,"Velocity":88,"Duration":93676,"SoundDuration":93676,"Delta":122207003},{"NoteNumber":80,"Velocity":82,"Duration":93676,"SoundDuration":93676,"Delta":122282140},{"NoteNumber":68,"Velocity":63,"Duration":93676,"SoundDuration":93676,"Delta":122284091},{"NoteNumber":87,"Velocity":88,"Duration":93676,"SoundDuration":93676,"Delta":122362155},{"NoteNumber":62,"Velocity":72,"Duration":93676,"SoundDuration":93676,"Delta":122364107},{"NoteNumber":68,"Velocity":63,"Duration":93676,"SoundDuration":93676,"Delta":122439243},{"NoteNumber":83,"Velocity":82,"Duration":93676,"SoundDuration":93676,"Delta":122443147},{"NoteNumber":65,"Velocity":72,"Duration":93676,"SoundDuration":93676,"Delta":122520235},{"NoteNumber":86,"Velocity":88,"Duration":93676,"SoundDuration":93676,"Delta":122521211},{"NoteNumber":71,"Velocity":63,"Duration":93676,"SoundDuration":93676,"Delta":122595371},{"NoteNumber":79,"Velocity":82,"Duration":93676,"SoundDuration":93676,"Delta":122596347},{"NoteNumber":65,"Velocity":72,"Duration":93676,"SoundDuration":93676,"Delta":122672460},{"NoteNumber":85,"Velocity":88,"Duration":93676,"SoundDuration":93676,"Delta":122673435},{"NoteNumber":79,"Velocity":82,"Duration":93676,"SoundDuration":93676,"Delta":122751499},{"NoteNumber":71,"Velocity":63,"Duration":93676,"SoundDuration":93676,"Delta":122753451},{"NoteNumber":84,"Velocity":88,"Duration":93676,"SoundDuration":93676,"Delta":122828588},{"NoteNumber":68,"Velocity":72,"Duration":93676,"SoundDuration":93676,"Delta":122830539},{"NoteNumber":74,"Velocity":63,"Duration":234191,"SoundDuration":234191,"Delta":122908603},{"NoteNumber":77,"Velocity":81,"Duration":234192,"SoundDuration":234192,"Delta":122911531},{"NoteNumber":83,"Velocity":103,"Duration":117096,"SoundDuration":117096,"Delta":122986667},{"NoteNumber":80,"Velocity":88,"Duration":117096,"SoundDuration":117096,"Delta":122986667},{"NoteNumber":35,"Velocity":82,"Duration":93676,"SoundDuration":93676,"Delta":123923435},{"NoteNumber":95,"Velocity":103,"Duration":93676,"SoundDuration":93676,"Delta":123925387},{"NoteNumber":41,"Velocity":67,"Duration":93676,"SoundDuration":93676,"Delta":124003451},{"NoteNumber":89,"Velocity":85,"Duration":93676,"SoundDuration":93676,"Delta":124004427},{"NoteNumber":94,"Velocity":99,"Duration":93676,"SoundDuration":93676,"Delta":124078587},{"NoteNumber":38,"Velocity":79,"Duration":93676,"SoundDuration":93676,"Delta":124078587},{"NoteNumber":44,"Velocity":67,"Duration":93676,"SoundDuration":93676,"Delta":124156651},{"NoteNumber":86,"Velocity":85,"Duration":93676,"SoundDuration":93676,"Delta":124160555},{"NoteNumber":38,"Velocity":79,"Duration":93676,"SoundDuration":93676,"Delta":124234715},{"NoteNumber":93,"Velocity":90,"Duration":93676,"SoundDuration":93676,"Delta":124235691},{"NoteNumber":44,"Velocity":67,"Duration":93676,"SoundDuration":93676,"Delta":124312779},{"NoteNumber":89,"Velocity":85,"Duration":93676,"SoundDuration":93676,"Delta":124316683},{"NoteNumber":92,"Velocity":90,"Duration":93676,"SoundDuration":93676,"Delta":124392795},{"NoteNumber":41,"Velocity":74,"Duration":93676,"SoundDuration":93676,"Delta":124393771},{"NoteNumber":86,"Velocity":85,"Duration":93676,"SoundDuration":93676,"Delta":124468907},{"NoteNumber":47,"Velocity":67,"Duration":93676,"SoundDuration":93676,"Delta":124469883},{"NoteNumber":41,"Velocity":74,"Duration":93676,"SoundDuration":93676,"Delta":124545996},{"NoteNumber":91,"Velocity":89,"Duration":93676,"SoundDuration":93676,"Delta":124546971},{"NoteNumber":86,"Velocity":85,"Duration":93676,"SoundDuration":93676,"Delta":124626011},{"NoteNumber":47,"Velocity":68,"Duration":93676,"SoundDuration":93676,"Delta":124628939},{"NoteNumber":44,"Velocity":74,"Duration":93676,"SoundDuration":93676,"Delta":124702124},{"NoteNumber":90,"Velocity":89,"Duration":93676,"SoundDuration":93676,"Delta":124705051},{"NoteNumber":83,"Velocity":84,"Duration":93676,"SoundDuration":93676,"Delta":124781163},{"NoteNumber":50,"Velocity":67,"Duration":93676,"SoundDuration":93676,"Delta":124783115},{"NoteNumber":89,"Velocity":89,"Duration":93676,"SoundDuration":93676,"Delta":124859227},{"NoteNumber":44,"Velocity":74,"Duration":93676,"SoundDuration":93676,"Delta":124861179},{"NoteNumber":83,"Velocity":84,"Duration":93676,"SoundDuration":93676,"Delta":124936316},{"NoteNumber":50,"Velocity":66,"Duration":93676,"SoundDuration":93676,"Delta":124938267},{"NoteNumber":88,"Velocity":89,"Duration":93676,"SoundDuration":93676,"Delta":125014380},{"NoteNumber":47,"Velocity":74,"Duration":93676,"SoundDuration":93676,"Delta":125016331},{"NoteNumber":53,"Velocity":64,"Duration":93676,"SoundDuration":93676,"Delta":125094395},{"NoteNumber":80,"Velocity":84,"Duration":93676,"SoundDuration":93676,"Delta":125096347},{"NoteNumber":47,"Velocity":73,"Duration":93676,"SoundDuration":93676,"Delta":125173435},{"NoteNumber":87,"Velocity":89,"Duration":93676,"SoundDuration":93676,"Delta":125175387},{"NoteNumber":83,"Velocity":82,"Duration":93676,"SoundDuration":93676,"Delta":125252475},{"NoteNumber":53,"Velocity":66,"Duration":93676,"SoundDuration":93676,"Delta":125252475},{"NoteNumber":50,"Velocity":73,"Duration":93676,"SoundDuration":93676,"Delta":125327611},{"NoteNumber":86,"Velocity":88,"Duration":93676,"SoundDuration":93676,"Delta":125330539},{"NoteNumber":77,"Velocity":82,"Duration":93676,"SoundDuration":93676,"Delta":125404700},{"NoteNumber":56,"Velocity":64,"Duration":93676,"SoundDuration":93676,"Delta":125407627},{"NoteNumber":50,"Velocity":72,"Duration":93676,"SoundDuration":93676,"Delta":125482764},{"NoteNumber":85,"Velocity":88,"Duration":93676,"SoundDuration":93676,"Delta":125484715},{"NoteNumber":80,"Velocity":82,"Duration":93676,"SoundDuration":93676,"Delta":125563755},{"NoteNumber":56,"Velocity":64,"Duration":93676,"SoundDuration":93676,"Delta":125563755},{"NoteNumber":53,"Velocity":72,"Duration":93676,"SoundDuration":93676,"Delta":125640843},{"NoteNumber":84,"Velocity":88,"Duration":93676,"SoundDuration":93676,"Delta":125643771},{"NoteNumber":74,"Velocity":84,"Duration":93676,"SoundDuration":93676,"Delta":125717931},{"NoteNumber":59,"Velocity":64,"Duration":93676,"SoundDuration":93676,"Delta":125721835},{"NoteNumber":53,"Velocity":73,"Duration":93676,"SoundDuration":93676,"Delta":125796971},{"NoteNumber":83,"Velocity":88,"Duration":93676,"SoundDuration":93676,"Delta":125797947},{"NoteNumber":59,"Velocity":64,"Duration":93676,"SoundDuration":93676,"Delta":125875035},{"NoteNumber":77,"Velocity":84,"Duration":93676,"SoundDuration":93676,"Delta":125876987},{"NoteNumber":56,"Velocity":72,"Duration":93676,"SoundDuration":93676,"Delta":125954075},{"NoteNumber":82,"Velocity":88,"Duration":93676,"SoundDuration":93676,"Delta":125956027},{"NoteNumber":62,"Velocity":64,"Duration":93676,"SoundDuration":93676,"Delta":126033115},{"NoteNumber":74,"Velocity":82,"Duration":93676,"SoundDuration":93676,"Delta":126034091},{"NoteNumber":56,"Velocity":72,"Duration":93676,"SoundDuration":93676,"Delta":126107276},{"NoteNumber":81,"Velocity":88,"Duration":93676,"SoundDuration":93676,"Delta":126111179},{"NoteNumber":62,"Velocity":63,"Duration":93676,"SoundDuration":93676,"Delta":126185340},{"NoteNumber":77,"Velocity":84,"Duration":93676,"SoundDuration":93676,"Delta":126188267},{"NoteNumber":80,"Velocity":86,"Duration":93676,"SoundDuration":93676,"Delta":126264379},{"NoteNumber":59,"Velocity":72,"Duration":93676,"SoundDuration":93676,"Delta":126264379},{"NoteNumber":74,"Velocity":82,"Duration":93676,"SoundDuration":93676,"Delta":126345371},{"NoteNumber":65,"Velocity":63,"Duration":93676,"SoundDuration":93676,"Delta":126345371},{"NoteNumber":79,"Velocity":85,"Duration":93676,"SoundDuration":93676,"Delta":126419532},{"NoteNumber":59,"Velocity":72,"Duration":93676,"SoundDuration":93676,"Delta":126424411},{"NoteNumber":65,"Velocity":63,"Duration":93676,"SoundDuration":93676,"Delta":126498571},{"NoteNumber":74,"Velocity":81,"Duration":93676,"SoundDuration":93676,"Delta":126500523},{"NoteNumber":62,"Velocity":72,"Duration":327868,"SoundDuration":327868,"Delta":126576635},{"NoteNumber":78,"Velocity":85,"Duration":93676,"SoundDuration":93676,"Delta":126579563},{"NoteNumber":71,"Velocity":81,"Duration":76112,"SoundDuration":76112,"Delta":126655675},{"NoteNumber":68,"Velocity":63,"Duration":78063,"SoundDuration":78063,"Delta":126656651},{"NoteNumber":77,"Velocity":100,"Duration":140515,"SoundDuration":140515,"Delta":126731788},{"NoteNumber":74,"Velocity":90,"Duration":117096,"SoundDuration":117096,"Delta":126733739},{"NoteNumber":65,"Velocity":71,"Duration":117096,"SoundDuration":117096,"Delta":126733739},{"NoteNumber":71,"Velocity":81,"Duration":117096,"SoundDuration":117096,"Delta":126733739},{"NoteNumber":68,"Velocity":90,"Duration":117095,"SoundDuration":117095,"Delta":126736667},{"NoteNumber":77,"Velocity":60,"Duration":78063,"SoundDuration":78063,"Delta":127670507},{"NoteNumber":65,"Velocity":60,"Duration":78063,"SoundDuration":78063,"Delta":127670507},{"NoteNumber":74,"Velocity":55,"Duration":78063,"SoundDuration":78063,"Delta":127748571},{"NoteNumber":62,"Velocity":53,"Duration":78063,"SoundDuration":78063,"Delta":127748571},{"NoteNumber":76,"Velocity":60,"Duration":78063,"SoundDuration":78063,"Delta":127826635},{"NoteNumber":64,"Velocity":60,"Duration":78063,"SoundDuration":78063,"Delta":127826635},{"NoteNumber":68,"Velocity":60,"Duration":234192,"SoundDuration":234192,"Delta":127904699},{"NoteNumber":59,"Velocity":60,"Duration":234192,"SoundDuration":234192,"Delta":127904699},{"NoteNumber":77,"Velocity":60,"Duration":78064,"SoundDuration":78064,"Delta":128607275},{"NoteNumber":65,"Velocity":60,"Duration":78064,"SoundDuration":78064,"Delta":128607275},{"NoteNumber":74,"Velocity":53,"Duration":78064,"SoundDuration":78064,"Delta":128685339},{"NoteNumber":62,"Velocity":52,"Duration":78064,"SoundDuration":78064,"Delta":128685339},{"NoteNumber":76,"Velocity":60,"Duration":78063,"SoundDuration":78063,"Delta":128763403},{"NoteNumber":64,"Velocity":60,"Duration":78063,"SoundDuration":78063,"Delta":128763403},{"NoteNumber":68,"Velocity":60,"Duration":234192,"SoundDuration":234192,"Delta":128841467},{"NoteNumber":59,"Velocity":60,"Duration":234192,"SoundDuration":234192,"Delta":128841467},{"NoteNumber":77,"Velocity":51,"Duration":78064,"SoundDuration":78064,"Delta":129544043},{"NoteNumber":65,"Velocity":48,"Duration":78063,"SoundDuration":78063,"Delta":129545019},{"NoteNumber":74,"Velocity":51,"Duration":78063,"SoundDuration":78063,"Delta":129622107},{"NoteNumber":62,"Velocity":48,"Duration":78063,"SoundDuration":78063,"Delta":129625035},{"NoteNumber":76,"Velocity":51,"Duration":78064,"SoundDuration":78064,"Delta":129700171},{"NoteNumber":64,"Velocity":48,"Duration":78064,"SoundDuration":78064,"Delta":129702123},{"NoteNumber":59,"Velocity":49,"Duration":78064,"SoundDuration":78064,"Delta":129778235},{"NoteNumber":68,"Velocity":52,"Duration":78064,"SoundDuration":78064,"Delta":129779211},{"NoteNumber":77,"Velocity":52,"Duration":78063,"SoundDuration":78063,"Delta":129859227},{"NoteNumber":65,"Velocity":49,"Duration":78063,"SoundDuration":78063,"Delta":129859227},{"NoteNumber":62,"Velocity":50,"Duration":78064,"SoundDuration":78064,"Delta":129933387},{"NoteNumber":74,"Velocity":53,"Duration":78064,"SoundDuration":78064,"Delta":129934363},{"NoteNumber":76,"Velocity":53,"Duration":78063,"SoundDuration":78063,"Delta":130012427},{"NoteNumber":64,"Velocity":50,"Duration":78063,"SoundDuration":78063,"Delta":130012427},{"NoteNumber":59,"Velocity":50,"Duration":78064,"SoundDuration":78064,"Delta":130090491},{"NoteNumber":68,"Velocity":53,"Duration":78064,"SoundDuration":78064,"Delta":130093419},{"NoteNumber":77,"Velocity":55,"Duration":78064,"SoundDuration":78064,"Delta":130169531},{"NoteNumber":65,"Velocity":51,"Duration":78063,"SoundDuration":78063,"Delta":130170507},{"NoteNumber":62,"Velocity":51,"Duration":78064,"SoundDuration":78064,"Delta":130245643},{"NoteNumber":74,"Velocity":55,"Duration":78063,"SoundDuration":78063,"Delta":130246619},{"NoteNumber":76,"Velocity":56,"Duration":78064,"SoundDuration":78064,"Delta":130325659},{"NoteNumber":64,"Velocity":52,"Duration":78064,"SoundDuration":78064,"Delta":130327611},{"NoteNumber":59,"Velocity":52,"Duration":78064,"SoundDuration":78064,"Delta":130401771},{"NoteNumber":68,"Velocity":56,"Duration":78064,"SoundDuration":78064,"Delta":130404699},{"NoteNumber":77,"Velocity":57,"Duration":78063,"SoundDuration":78063,"Delta":130478860},{"NoteNumber":65,"Velocity":53,"Duration":78064,"SoundDuration":78064,"Delta":130479835},{"NoteNumber":74,"Velocity":57,"Duration":78064,"SoundDuration":78064,"Delta":130556924},{"NoteNumber":62,"Velocity":53,"Duration":78064,"SoundDuration":78064,"Delta":130560827},{"NoteNumber":76,"Velocity":57,"Duration":78064,"SoundDuration":78064,"Delta":130635963},{"NoteNumber":64,"Velocity":53,"Duration":78064,"SoundDuration":78064,"Delta":130638891},{"NoteNumber":68,"Velocity":58,"Duration":78063,"SoundDuration":78063,"Delta":130713052},{"NoteNumber":59,"Velocity":55,"Duration":78064,"SoundDuration":78064,"Delta":130715979},{"NoteNumber":77,"Velocity":58,"Duration":78064,"SoundDuration":78064,"Delta":130792091},{"NoteNumber":65,"Velocity":55,"Duration":78064,"SoundDuration":78064,"Delta":130795019},{"NoteNumber":62,"Velocity":56,"Duration":78063,"SoundDuration":78063,"Delta":130869180},{"NoteNumber":74,"Velocity":59,"Duration":78064,"SoundDuration":78064,"Delta":130871131},{"NoteNumber":64,"Velocity":56,"Duration":78063,"SoundDuration":78063,"Delta":130948219},{"NoteNumber":76,"Velocity":59,"Duration":78064,"SoundDuration":78064,"Delta":130950171},{"NoteNumber":68,"Velocity":60,"Duration":78064,"SoundDuration":78064,"Delta":131026283},{"NoteNumber":59,"Velocity":56,"Duration":78064,"SoundDuration":78064,"Delta":131026283},{"NoteNumber":77,"Velocity":60,"Duration":78064,"SoundDuration":78064,"Delta":131103372},{"NoteNumber":65,"Velocity":57,"Duration":78063,"SoundDuration":78063,"Delta":131108251},{"NoteNumber":74,"Velocity":60,"Duration":78063,"SoundDuration":78063,"Delta":131184363},{"NoteNumber":62,"Velocity":57,"Duration":78064,"SoundDuration":78064,"Delta":131186315},{"NoteNumber":76,"Velocity":61,"Duration":78063,"SoundDuration":78063,"Delta":131259500},{"NoteNumber":64,"Velocity":58,"Duration":78064,"SoundDuration":78064,"Delta":131262427},{"NoteNumber":68,"Velocity":61,"Duration":78064,"SoundDuration":78064,"Delta":131338539},{"NoteNumber":59,"Velocity":58,"Duration":78064,"SoundDuration":78064,"Delta":131341467},{"NoteNumber":65,"Velocity":59,"Duration":93676,"SoundDuration":93676,"Delta":131416603},{"NoteNumber":77,"Velocity":62,"Duration":78063,"SoundDuration":78063,"Delta":131419531},{"NoteNumber":74,"Velocity":62,"Duration":78063,"SoundDuration":78063,"Delta":131495643},{"NoteNumber":64,"Velocity":59,"Duration":93676,"SoundDuration":93676,"Delta":131498571},{"NoteNumber":63,"Velocity":59,"Duration":93676,"SoundDuration":93676,"Delta":131573707},{"NoteNumber":76,"Velocity":62,"Duration":78064,"SoundDuration":78064,"Delta":131576635},{"NoteNumber":62,"Velocity":60,"Duration":93676,"SoundDuration":93676,"Delta":131649820},{"NoteNumber":68,"Velocity":63,"Duration":78063,"SoundDuration":78063,"Delta":131650795},{"NoteNumber":77,"Velocity":63,"Duration":78064,"SoundDuration":78064,"Delta":131727884},{"NoteNumber":61,"Velocity":60,"Duration":93676,"SoundDuration":93676,"Delta":131731787},{"NoteNumber":60,"Velocity":61,"Duration":93676,"SoundDuration":93676,"Delta":131805948},{"NoteNumber":74,"Velocity":64,"Duration":78064,"SoundDuration":78064,"Delta":131808875},{"NoteNumber":76,"Velocity":64,"Duration":78064,"SoundDuration":78064,"Delta":131884987},{"NoteNumber":59,"Velocity":61,"Duration":93676,"SoundDuration":93676,"Delta":131884987},{"NoteNumber":68,"Velocity":66,"Duration":78063,"SoundDuration":78063,"Delta":131962076},{"NoteNumber":58,"Velocity":62,"Duration":93676,"SoundDuration":93676,"Delta":131964027},{"NoteNumber":77,"Velocity":66,"Duration":78064,"SoundDuration":78064,"Delta":132043067},{"NoteNumber":57,"Velocity":62,"Duration":93676,"SoundDuration":93676,"Delta":132043067},{"NoteNumber":56,"Velocity":62,"Duration":93676,"SoundDuration":93676,"Delta":132121131},{"NoteNumber":74,"Velocity":66,"Duration":78064,"SoundDuration":78064,"Delta":132122107},{"NoteNumber":76,"Velocity":67,"Duration":78063,"SoundDuration":78063,"Delta":132196268},{"NoteNumber":55,"Velocity":63,"Duration":93676,"SoundDuration":93676,"Delta":132198219},{"NoteNumber":54,"Velocity":63,"Duration":93676,"SoundDuration":93676,"Delta":132274332},{"NoteNumber":68,"Velocity":67,"Duration":78064,"SoundDuration":78064,"Delta":132279211},{"NoteNumber":77,"Velocity":68,"Duration":78064,"SoundDuration":78064,"Delta":132354347},{"NoteNumber":53,"Velocity":64,"Duration":93676,"SoundDuration":93676,"Delta":132357275},{"NoteNumber":52,"Velocity":64,"Duration":93676,"SoundDuration":93676,"Delta":132430460},{"NoteNumber":74,"Velocity":68,"Duration":78063,"SoundDuration":78063,"Delta":132435339},{"NoteNumber":51,"Velocity":64,"Duration":93676,"SoundDuration":93676,"Delta":132508524},{"NoteNumber":76,"Velocity":69,"Duration":78063,"SoundDuration":78063,"Delta":132511451},{"NoteNumber":68,"Velocity":69,"Duration":78063,"SoundDuration":78063,"Delta":132587563},{"NoteNumber":50,"Velocity":66,"Duration":93676,"SoundDuration":93676,"Delta":132591467},{"NoteNumber":77,"Velocity":69,"Duration":78064,"SoundDuration":78064,"Delta":132665627},{"NoteNumber":49,"Velocity":66,"Duration":93676,"SoundDuration":93676,"Delta":132666603},{"NoteNumber":74,"Velocity":70,"Duration":78064,"SoundDuration":78064,"Delta":132744667},{"NoteNumber":48,"Velocity":67,"Duration":93676,"SoundDuration":93676,"Delta":132746619},{"NoteNumber":76,"Velocity":70,"Duration":78064,"SoundDuration":78064,"Delta":132821755},{"NoteNumber":47,"Velocity":67,"Duration":93676,"SoundDuration":93676,"Delta":132821755},{"NoteNumber":46,"Velocity":68,"Duration":93676,"SoundDuration":93676,"Delta":132898844},{"NoteNumber":68,"Velocity":71,"Duration":78064,"SoundDuration":78064,"Delta":132900795},{"NoteNumber":45,"Velocity":68,"Duration":93676,"SoundDuration":93676,"Delta":132978859},{"NoteNumber":77,"Velocity":71,"Duration":78064,"SoundDuration":78064,"Delta":132980811},{"NoteNumber":44,"Velocity":68,"Duration":93676,"SoundDuration":93676,"Delta":133058875},{"NoteNumber":74,"Velocity":72,"Duration":78064,"SoundDuration":78064,"Delta":133059851},{"NoteNumber":76,"Velocity":72,"Duration":78064,"SoundDuration":78064,"Delta":133134987},{"NoteNumber":43,"Velocity":69,"Duration":93676,"SoundDuration":93676,"Delta":133135963},{"NoteNumber":68,"Velocity":72,"Duration":78063,"SoundDuration":78063,"Delta":133213051},{"NoteNumber":42,"Velocity":69,"Duration":93676,"SoundDuration":93676,"Delta":133215003},{"NoteNumber":77,"Velocity":73,"Duration":78063,"SoundDuration":78063,"Delta":133293067},{"NoteNumber":41,"Velocity":70,"Duration":78064,"SoundDuration":78064,"Delta":133294043},{"NoteNumber":40,"Velocity":70,"Duration":78063,"SoundDuration":78063,"Delta":133368203},{"NoteNumber":74,"Velocity":73,"Duration":78064,"SoundDuration":78064,"Delta":133371131},{"NoteNumber":76,"Velocity":74,"Duration":78063,"SoundDuration":78063,"Delta":133445292},{"NoteNumber":39,"Velocity":70,"Duration":78064,"SoundDuration":78064,"Delta":133447243},{"NoteNumber":68,"Velocity":74,"Duration":78064,"SoundDuration":78064,"Delta":133523356},{"NoteNumber":40,"Velocity":71,"Duration":78063,"SoundDuration":78063,"Delta":133528235},{"NoteNumber":41,"Velocity":71,"Duration":78064,"SoundDuration":78064,"Delta":133601420},{"NoteNumber":77,"Velocity":74,"Duration":78064,"SoundDuration":78064,"Delta":133605323},{"NoteNumber":74,"Velocity":75,"Duration":78064,"SoundDuration":78064,"Delta":133684363},{"NoteNumber":40,"Velocity":72,"Duration":78064,"SoundDuration":78064,"Delta":133684363},{"NoteNumber":76,"Velocity":75,"Duration":78064,"SoundDuration":78064,"Delta":133760475},{"NoteNumber":39,"Velocity":72,"Duration":78064,"SoundDuration":78064,"Delta":133760475},{"NoteNumber":40,"Velocity":73,"Duration":78064,"SoundDuration":78064,"Delta":133836587},{"NoteNumber":80,"Velocity":77,"Duration":78064,"SoundDuration":78064,"Delta":133837563},{"NoteNumber":41,"Velocity":73,"Duration":78064,"SoundDuration":78064,"Delta":133913676},{"NoteNumber":89,"Velocity":77,"Duration":78063,"SoundDuration":78063,"Delta":133915627},{"NoteNumber":86,"Velocity":78,"Duration":78063,"SoundDuration":78063,"Delta":133991740},{"NoteNumber":40,"Velocity":73,"Duration":78064,"SoundDuration":78064,"Delta":133992715},{"NoteNumber":39,"Velocity":74,"Duration":78063,"SoundDuration":78063,"Delta":134070779},{"NoteNumber":88,"Velocity":78,"Duration":78064,"SoundDuration":78064,"Delta":134071755},{"NoteNumber":92,"Velocity":78,"Duration":78064,"SoundDuration":78064,"Delta":134148843},{"NoteNumber":40,"Velocity":74,"Duration":78064,"SoundDuration":78064,"Delta":134148843},{"NoteNumber":41,"Velocity":75,"Duration":77782,"SoundDuration":77782,"Delta":134226907},{"NoteNumber":101,"Velocity":79,"Duration":77778,"SoundDuration":77778,"Delta":134227883},{"NoteNumber":98,"Velocity":79,"Duration":77789,"SoundDuration":77789,"Delta":134308579},{"NoteNumber":40,"Velocity":75,"Duration":77789,"SoundDuration":77789,"Delta":134308579},{"NoteNumber":100,"Velocity":80,"Duration":78060,"SoundDuration":78060,"Delta":134382468},{"NoteNumber":39,"Velocity":77,"Duration":78064,"SoundDuration":78064,"Delta":134384416},{"NoteNumber":92,"Velocity":80,"Duration":78207,"SoundDuration":78207,"Delta":134460529},{"NoteNumber":40,"Velocity":77,"Duration":78218,"SoundDuration":78218,"Delta":134463456},{"NoteNumber":101,"Velocity":81,"Duration":78357,"SoundDuration":78357,"Delta":134537756},{"NoteNumber":41,"Velocity":77,"Duration":78357,"SoundDuration":78357,"Delta":134538736},{"NoteNumber":98,"Velocity":81,"Duration":78647,"SoundDuration":78647,"Delta":134618073},{"NoteNumber":40,"Velocity":78,"Duration":78647,"SoundDuration":78647,"Delta":134620039},{"NoteNumber":100,"Velocity":81,"Duration":78792,"SoundDuration":78792,"Delta":134695737},{"NoteNumber":39,"Velocity":78,"Duration":78803,"SoundDuration":78803,"Delta":134698687},{"NoteNumber":92,"Velocity":82,"Duration":78945,"SoundDuration":78945,"Delta":134774530},{"NoteNumber":40,"Velocity":79,"Duration":78956,"SoundDuration":78956,"Delta":134778477},{"NoteNumber":101,"Velocity":82,"Duration":79235,"SoundDuration":79235,"Delta":134853475},{"NoteNumber":41,"Velocity":79,"Duration":79239,"SoundDuration":79239,"Delta":134857433},{"NoteNumber":98,"Velocity":83,"Duration":79383,"SoundDuration":79383,"Delta":134932711},{"NoteNumber":40,"Velocity":79,"Duration":79398,"SoundDuration":79398,"Delta":134936673},{"NoteNumber":39,"Velocity":80,"Duration":79535,"SoundDuration":79535,"Delta":135012095},{"NoteNumber":100,"Velocity":83,"Duration":79535,"SoundDuration":79535,"Delta":135013089},{"NoteNumber":92,"Velocity":84,"Duration":79820,"SoundDuration":79820,"Delta":135090636},{"NoteNumber":40,"Velocity":80,"Duration":79820,"SoundDuration":79820,"Delta":135090636},{"NoteNumber":101,"Velocity":97,"Duration":80434,"SoundDuration":80434,"Delta":135170456},{"NoteNumber":33,"Velocity":119,"Duration":241351,"SoundDuration":241351,"Delta":135172452},{"NoteNumber":96,"Velocity":81,"Duration":80450,"SoundDuration":80450,"Delta":135255919},{"NoteNumber":100,"Velocity":90,"Duration":80450,"SoundDuration":80450,"Delta":135331341},{"NoteNumber":93,"Velocity":73,"Duration":80450,"SoundDuration":80450,"Delta":135416820},{"NoteNumber":99,"Velocity":93,"Duration":80450,"SoundDuration":80450,"Delta":135494254},{"NoteNumber":96,"Velocity":73,"Duration":80339,"SoundDuration":80339,"Delta":135577721},{"NoteNumber":98,"Velocity":83,"Duration":77489,"SoundDuration":77489,"Delta":135655155},{"NoteNumber":64,"Velocity":92,"Duration":348702,"SoundDuration":348702,"Delta":135655155},{"NoteNumber":60,"Velocity":77,"Duration":348702,"SoundDuration":348702,"Delta":135655155},{"NoteNumber":57,"Velocity":77,"Duration":348702,"SoundDuration":348702,"Delta":135655155},{"NoteNumber":93,"Velocity":67,"Duration":77489,"SoundDuration":77489,"Delta":135731675},{"NoteNumber":97,"Velocity":79,"Duration":77489,"SoundDuration":77489,"Delta":135812071},{"NoteNumber":93,"Velocity":67,"Duration":77489,"SoundDuration":77489,"Delta":135890529},{"NoteNumber":96,"Velocity":78,"Duration":77489,"SoundDuration":77489,"Delta":135965112},{"NoteNumber":57,"Velocity":73,"Duration":116233,"SoundDuration":116233,"Delta":136003857},{"NoteNumber":60,"Velocity":73,"Duration":116233,"SoundDuration":116233,"Delta":136003857},{"NoteNumber":64,"Velocity":86,"Duration":116233,"SoundDuration":116233,"Delta":136003857},{"NoteNumber":88,"Velocity":67,"Duration":77489,"SoundDuration":77489,"Delta":136042601},{"NoteNumber":64,"Velocity":92,"Duration":470145,"SoundDuration":470145,"Delta":136120091},{"NoteNumber":60,"Velocity":77,"Duration":470145,"SoundDuration":470145,"Delta":136120091},{"NoteNumber":57,"Velocity":77,"Duration":470145,"SoundDuration":470145,"Delta":136120091},{"NoteNumber":95,"Velocity":79,"Duration":78357,"SoundDuration":78357,"Delta":136122050},{"NoteNumber":88,"Velocity":73,"Duration":78357,"SoundDuration":78357,"Delta":136197469},{"NoteNumber":94,"Velocity":79,"Duration":78357,"SoundDuration":78357,"Delta":136276806},{"NoteNumber":84,"Velocity":73,"Duration":78357,"SoundDuration":78357,"Delta":136356143},{"NoteNumber":93,"Velocity":79,"Duration":78357,"SoundDuration":78357,"Delta":136435480},{"NoteNumber":88,"Velocity":73,"Duration":78301,"SoundDuration":78301,"Delta":136513838},{"NoteNumber":57,"Velocity":82,"Duration":456585,"SoundDuration":456585,"Delta":136590237},{"NoteNumber":60,"Velocity":82,"Duration":456585,"SoundDuration":456585,"Delta":136590237},{"NoteNumber":65,"Velocity":97,"Duration":456585,"SoundDuration":456585,"Delta":136590237},{"NoteNumber":92,"Velocity":79,"Duration":76097,"SoundDuration":76097,"Delta":136592139},{"NoteNumber":84,"Velocity":67,"Duration":76097,"SoundDuration":76097,"Delta":136666334},{"NoteNumber":91,"Velocity":71,"Duration":76097,"SoundDuration":76097,"Delta":136744335},{"NoteNumber":84,"Velocity":67,"Duration":76097,"SoundDuration":76097,"Delta":136819481},{"NoteNumber":90,"Velocity":71,"Duration":76097,"SoundDuration":76097,"Delta":136893676},{"NoteNumber":81,"Velocity":67,"Duration":76097,"SoundDuration":76097,"Delta":136970725},{"NoteNumber":89,"Velocity":79,"Duration":78583,"SoundDuration":78583,"Delta":137044920},{"NoteNumber":57,"Velocity":77,"Duration":471883,"SoundDuration":471883,"Delta":137046823},{"NoteNumber":60,"Velocity":77,"Duration":471883,"SoundDuration":471883,"Delta":137046823},{"NoteNumber":64,"Velocity":92,"Duration":471883,"SoundDuration":471883,"Delta":137046823},{"NoteNumber":84,"Velocity":73,"Duration":78647,"SoundDuration":78647,"Delta":137128419},{"NoteNumber":88,"Velocity":79,"Duration":78647,"SoundDuration":78647,"Delta":137206084},{"NoteNumber":81,"Velocity":73,"Duration":78647,"SoundDuration":78647,"Delta":137282765},{"NoteNumber":87,"Velocity":79,"Duration":78647,"SoundDuration":78647,"Delta":137360429},{"NoteNumber":84,"Velocity":73,"Duration":78647,"SoundDuration":78647,"Delta":137439076},{"NoteNumber":86,"Velocity":79,"Duration":82912,"SoundDuration":82912,"Delta":137517724},{"NoteNumber":52,"Velocity":73,"Duration":497801,"SoundDuration":497801,"Delta":137518707},{"NoteNumber":57,"Velocity":73,"Duration":497801,"SoundDuration":497801,"Delta":137518707},{"NoteNumber":60,"Velocity":86,"Duration":497801,"SoundDuration":497801,"Delta":137518707},{"NoteNumber":81,"Velocity":67,"Duration":82966,"SoundDuration":82966,"Delta":137599599},{"NoteNumber":85,"Velocity":71,"Duration":82966,"SoundDuration":82966,"Delta":137687752},{"NoteNumber":81,"Velocity":67,"Duration":82966,"SoundDuration":82966,"Delta":137766570},{"NoteNumber":84,"Velocity":71,"Duration":82966,"SoundDuration":82966,"Delta":137850574},{"NoteNumber":76,"Velocity":67,"Duration":82966,"SoundDuration":82966,"Delta":137931467},{"NoteNumber":57,"Velocity":73,"Duration":919892,"SoundDuration":919892,"Delta":138016508},{"NoteNumber":60,"Velocity":73,"Duration":919892,"SoundDuration":919892,"Delta":138016508},{"NoteNumber":64,"Velocity":86,"Duration":919892,"SoundDuration":919892,"Delta":138016508},{"NoteNumber":83,"Velocity":71,"Duration":76657,"SoundDuration":76657,"Delta":138019382},{"NoteNumber":76,"Velocity":67,"Duration":76657,"SoundDuration":76657,"Delta":138094124},{"NoteNumber":82,"Velocity":71,"Duration":76657,"SoundDuration":76657,"Delta":138171740},{"NoteNumber":72,"Velocity":67,"Duration":76657,"SoundDuration":76657,"Delta":138245523},{"NoteNumber":81,"Velocity":71,"Duration":76657,"SoundDuration":76657,"Delta":138323138},{"NoteNumber":76,"Velocity":67,"Duration":76657,"SoundDuration":76657,"Delta":138401713},{"NoteNumber":80,"Velocity":71,"Duration":76657,"SoundDuration":76657,"Delta":138476454},{"NoteNumber":72,"Velocity":67,"Duration":76657,"SoundDuration":76657,"Delta":138554070},{"NoteNumber":79,"Velocity":71,"Duration":76657,"SoundDuration":76657,"Delta":138631686},{"NoteNumber":72,"Velocity":67,"Duration":76657,"SoundDuration":76657,"Delta":138705469},{"NoteNumber":78,"Velocity":71,"Duration":76657,"SoundDuration":76657,"Delta":138782126},{"NoteNumber":69,"Velocity":67,"Duration":76743,"SoundDuration":76743,"Delta":138862617},{"NoteNumber":33,"Velocity":72,"Duration":236836,"SoundDuration":236836,"Delta":138936400},{"NoteNumber":77,"Velocity":53,"Duration":78945,"SoundDuration":78945,"Delta":138938373},{"NoteNumber":72,"Velocity":49,"Duration":78945,"SoundDuration":78945,"Delta":139014358},{"NoteNumber":76,"Velocity":53,"Duration":78945,"SoundDuration":78945,"Delta":139097251},{"NoteNumber":69,"Velocity":49,"Duration":78945,"SoundDuration":78945,"Delta":139171262},{"NoteNumber":75,"Velocity":53,"Duration":78945,"SoundDuration":78945,"Delta":139254155},{"NoteNumber":72,"Velocity":49,"Duration":78945,"SoundDuration":78945,"Delta":139329153},{"NoteNumber":74,"Velocity":53,"Duration":77525,"SoundDuration":77525,"Delta":139408098},{"NoteNumber":45,"Velocity":49,"Duration":348702,"SoundDuration":348702,"Delta":139410072},{"NoteNumber":52,"Velocity":69,"Duration":348702,"SoundDuration":348702,"Delta":139410072},{"NoteNumber":69,"Velocity":49,"Duration":77489,"SoundDuration":77489,"Delta":139485624},{"NoteNumber":73,"Velocity":53,"Duration":77489,"SoundDuration":77489,"Delta":139566019},{"NoteNumber":69,"Velocity":49,"Duration":77489,"SoundDuration":77489,"Delta":139643508},{"NoteNumber":72,"Velocity":53,"Duration":77489,"SoundDuration":77489,"Delta":139720998},{"NoteNumber":45,"Velocity":42,"Duration":116233,"SoundDuration":116233,"Delta":139758774},{"NoteNumber":52,"Velocity":61,"Duration":116233,"SoundDuration":116233,"Delta":139758774},{"NoteNumber":64,"Velocity":49,"Duration":77489,"SoundDuration":77489,"Delta":139796550},{"NoteNumber":71,"Velocity":53,"Duration":78908,"SoundDuration":78908,"Delta":139873071},{"NoteNumber":45,"Velocity":50,"Duration":473671,"SoundDuration":473671,"Delta":139875008},{"NoteNumber":52,"Velocity":70,"Duration":473671,"SoundDuration":473671,"Delta":139875008},{"NoteNumber":64,"Velocity":49,"Duration":78945,"SoundDuration":78945,"Delta":139952966},{"NoteNumber":70,"Velocity":51,"Duration":78945,"SoundDuration":78945,"Delta":140030925},{"NoteNumber":60,"Velocity":48,"Duration":78945,"SoundDuration":78945,"Delta":140111844},{"NoteNumber":69,"Velocity":50,"Duration":78945,"SoundDuration":78945,"Delta":140188815},{"NoteNumber":64,"Velocity":45,"Duration":78945,"SoundDuration":78945,"Delta":140268748},{"NoteNumber":45,"Velocity":42,"Duration":455027,"SoundDuration":455027,"Delta":140348680},{"NoteNumber":53,"Velocity":62,"Duration":455027,"SoundDuration":455027,"Delta":140348680},{"NoteNumber":68,"Velocity":49,"Duration":75838,"SoundDuration":75838,"Delta":140350576},{"NoteNumber":60,"Velocity":44,"Duration":75838,"SoundDuration":75838,"Delta":140425466},{"NoteNumber":67,"Velocity":47,"Duration":75838,"SoundDuration":75838,"Delta":140499408},{"NoteNumber":60,"Velocity":44,"Duration":75838,"SoundDuration":75838,"Delta":140579038},{"NoteNumber":66,"Velocity":45,"Duration":75838,"SoundDuration":75838,"Delta":140654876},{"NoteNumber":57,"Velocity":45,"Duration":75838,"SoundDuration":75838,"Delta":140725974},{"NoteNumber":65,"Velocity":45,"Duration":78612,"SoundDuration":78612,"Delta":140802760},{"NoteNumber":45,"Velocity":41,"Duration":471883,"SoundDuration":471883,"Delta":140803708},{"NoteNumber":52,"Velocity":58,"Duration":471883,"SoundDuration":471883,"Delta":140803708},{"NoteNumber":60,"Velocity":42,"Duration":78647,"SoundDuration":78647,"Delta":140884321},{"NoteNumber":64,"Velocity":45,"Duration":78647,"SoundDuration":78647,"Delta":140961002},{"NoteNumber":57,"Velocity":42,"Duration":78647,"SoundDuration":78647,"Delta":141038667},{"NoteNumber":63,"Velocity":44,"Duration":78647,"SoundDuration":78647,"Delta":141118297},{"NoteNumber":60,"Velocity":40,"Duration":78689,"SoundDuration":78689,"Delta":141197928},{"NoteNumber":33,"Velocity":55,"Duration":1425349,"SoundDuration":1425349,"Delta":141275592},{"NoteNumber":62,"Velocity":42,"Duration":82000,"SoundDuration":82000,"Delta":141277642},{"NoteNumber":57,"Velocity":39,"Duration":82000,"SoundDuration":82000,"Delta":141358618},{"NoteNumber":61,"Velocity":42,"Duration":82000,"SoundDuration":82000,"Delta":141437543},{"NoteNumber":57,"Velocity":39,"Duration":82000,"SoundDuration":82000,"Delta":141523644},{"NoteNumber":60,"Velocity":40,"Duration":82000,"SoundDuration":82000,"Delta":141604620},{"NoteNumber":52,"Velocity":38,"Duration":82000,"SoundDuration":82000,"Delta":141683546},{"NoteNumber":40,"Velocity":58,"Duration":933344,"SoundDuration":933344,"Delta":141767597},{"NoteNumber":59,"Velocity":40,"Duration":77778,"SoundDuration":77778,"Delta":141768569},{"NoteNumber":52,"Velocity":39,"Duration":77778,"SoundDuration":77778,"Delta":141848292},{"NoteNumber":58,"Velocity":45,"Duration":77778,"SoundDuration":77778,"Delta":141925099},{"NoteNumber":48,"Velocity":42,"Duration":77778,"SoundDuration":77778,"Delta":142000933},{"NoteNumber":57,"Velocity":47,"Duration":77778,"SoundDuration":77778,"Delta":142078711},{"NoteNumber":52,"Velocity":45,"Duration":77778,"SoundDuration":77778,"Delta":142159407},{"NoteNumber":56,"Velocity":50,"Duration":77778,"SoundDuration":77778,"Delta":142235241},{"NoteNumber":48,"Velocity":48,"Duration":77778,"SoundDuration":77778,"Delta":142312047},{"NoteNumber":57,"Velocity":53,"Duration":77778,"SoundDuration":77778,"Delta":142392743},{"NoteNumber":52,"Velocity":50,"Duration":77778,"SoundDuration":77778,"Delta":142468577},{"NoteNumber":60,"Velocity":56,"Duration":77778,"SoundDuration":77778,"Delta":142543439},{"NoteNumber":53,"Velocity":53,"Duration":77815,"SoundDuration":77815,"Delta":142624134},{"NoteNumber":64,"Velocity":57,"Duration":80668,"SoundDuration":80668,"Delta":142698996},{"NoteNumber":32,"Velocity":69,"Duration":242228,"SoundDuration":242228,"Delta":142700941},{"NoteNumber":59,"Velocity":57,"Duration":80742,"SoundDuration":80742,"Delta":142780674},{"NoteNumber":62,"Velocity":57,"Duration":80742,"SoundDuration":80742,"Delta":142863436},{"NoteNumber":65,"Velocity":57,"Duration":80742,"SoundDuration":80742,"Delta":142945188},{"NoteNumber":76,"Velocity":57,"Duration":80742,"SoundDuration":80742,"Delta":143023912},{"NoteNumber":71,"Velocity":57,"Duration":80610,"SoundDuration":80610,"Delta":143107683},{"NoteNumber":53,"Velocity":66,"Duration":347463,"SoundDuration":347463,"Delta":143185398},{"NoteNumber":62,"Velocity":77,"Duration":347463,"SoundDuration":347463,"Delta":143185398},{"NoteNumber":74,"Velocity":59,"Duration":77214,"SoundDuration":77214,"Delta":143187328},{"NoteNumber":77,"Velocity":60,"Duration":77214,"SoundDuration":77214,"Delta":143262612},{"NoteNumber":88,"Velocity":61,"Duration":77214,"SoundDuration":77214,"Delta":143339826},{"NoteNumber":83,"Velocity":62,"Duration":77214,"SoundDuration":77214,"Delta":143417040},{"NoteNumber":86,"Velocity":64,"Duration":77214,"SoundDuration":77214,"Delta":143495220},{"NoteNumber":53,"Velocity":61,"Duration":115821,"SoundDuration":115821,"Delta":143532862},{"NoteNumber":62,"Velocity":73,"Duration":115821,"SoundDuration":115821,"Delta":143532862},{"NoteNumber":77,"Velocity":66,"Duration":77214,"SoundDuration":77214,"Delta":143571469},{"NoteNumber":53,"Velocity":66,"Duration":463284,"SoundDuration":463284,"Delta":143648683},{"NoteNumber":60,"Velocity":77,"Duration":463284,"SoundDuration":463284,"Delta":143648683},{"NoteNumber":86,"Velocity":67,"Duration":77214,"SoundDuration":77214,"Delta":143649648},{"NoteNumber":81,"Velocity":64,"Duration":77214,"SoundDuration":77214,"Delta":143726862},{"NoteNumber":84,"Velocity":61,"Duration":77214,"SoundDuration":77214,"Delta":143803111},{"NoteNumber":77,"Velocity":59,"Duration":77214,"SoundDuration":77214,"Delta":143883221},{"NoteNumber":74,"Velocity":59,"Duration":77214,"SoundDuration":77214,"Delta":143956574},{"NoteNumber":69,"Velocity":57,"Duration":77214,"SoundDuration":77214,"Delta":144032823},{"NoteNumber":72,"Velocity":55,"Duration":78902,"SoundDuration":78902,"Delta":144110037},{"NoteNumber":33,"Velocity":77,"Duration":473671,"SoundDuration":473671,"Delta":144111968},{"NoteNumber":45,"Velocity":77,"Duration":473671,"SoundDuration":473671,"Delta":144111968},{"NoteNumber":65,"Velocity":55,"Duration":78945,"SoundDuration":78945,"Delta":144188939},{"NoteNumber":62,"Velocity":55,"Duration":78945,"SoundDuration":78945,"Delta":144268872},{"NoteNumber":57,"Velocity":55,"Duration":78945,"SoundDuration":78945,"Delta":144347817},{"NoteNumber":60,"Velocity":55,"Duration":78945,"SoundDuration":78945,"Delta":144427749},{"NoteNumber":53,"Velocity":55,"Duration":78945,"SoundDuration":78945,"Delta":144508668},{"NoteNumber":64,"Velocity":57,"Duration":78945,"SoundDuration":78945,"Delta":144585640},{"NoteNumber":32,"Velocity":66,"Duration":236836,"SoundDuration":236836,"Delta":144585640},{"NoteNumber":44,"Velocity":66,"Duration":236836,"SoundDuration":236836,"Delta":144585640},{"NoteNumber":59,"Velocity":57,"Duration":78945,"SoundDuration":78945,"Delta":144662611},{"NoteNumber":62,"Velocity":57,"Duration":78945,"SoundDuration":78945,"Delta":144744517},{"NoteNumber":65,"Velocity":57,"Duration":78945,"SoundDuration":78945,"Delta":144825436},{"NoteNumber":76,"Velocity":57,"Duration":78945,"SoundDuration":78945,"Delta":144903395},{"NoteNumber":71,"Velocity":57,"Duration":78945,"SoundDuration":78945,"Delta":144979380},{"NoteNumber":55,"Velocity":73,"Duration":154428,"SoundDuration":154428,"Delta":145059312},{"NoteNumber":62,"Velocity":66,"Duration":154428,"SoundDuration":154428,"Delta":145059312},{"NoteNumber":74,"Velocity":60,"Duration":77214,"SoundDuration":77214,"Delta":145062207},{"NoteNumber":77,"Velocity":60,"Duration":77214,"SoundDuration":77214,"Delta":145135561},{"NoteNumber":88,"Velocity":61,"Duration":77214,"SoundDuration":77214,"Delta":145211810},{"NoteNumber":53,"Velocity":72,"Duration":154428,"SoundDuration":154428,"Delta":145213740},{"NoteNumber":62,"Velocity":60,"Duration":154428,"SoundDuration":154428,"Delta":145213740},{"NoteNumber":83,"Velocity":64,"Duration":77214,"SoundDuration":77214,"Delta":145291919},{"NoteNumber":86,"Velocity":64,"Duration":77214,"SoundDuration":77214,"Delta":145366238},{"NoteNumber":52,"Velocity":73,"Duration":154428,"SoundDuration":154428,"Delta":145368168},{"NoteNumber":62,"Velocity":61,"Duration":154428,"SoundDuration":154428,"Delta":145368168},{"NoteNumber":76,"Velocity":66,"Duration":77214,"SoundDuration":77214,"Delta":145448278},{"NoteNumber":52,"Velocity":77,"Duration":463284,"SoundDuration":463284,"Delta":145522597},{"NoteNumber":60,"Velocity":66,"Duration":463284,"SoundDuration":463284,"Delta":145522597},{"NoteNumber":86,"Velocity":66,"Duration":77214,"SoundDuration":77214,"Delta":145523562},{"NoteNumber":81,"Velocity":64,"Duration":77214,"SoundDuration":77214,"Delta":145599811},{"NoteNumber":84,"Velocity":61,"Duration":77214,"SoundDuration":77214,"Delta":145675095},{"NoteNumber":76,"Velocity":59,"Duration":77214,"SoundDuration":77214,"Delta":145753274},{"NoteNumber":74,"Velocity":58,"Duration":77214,"SoundDuration":77214,"Delta":145834349},{"NoteNumber":69,"Velocity":56,"Duration":77228,"SoundDuration":77228,"Delta":145909633},{"NoteNumber":72,"Velocity":56,"Duration":78329,"SoundDuration":78329,"Delta":145983951},{"NoteNumber":33,"Velocity":67,"Duration":470145,"SoundDuration":470145,"Delta":145985882},{"NoteNumber":45,"Velocity":79,"Duration":470145,"SoundDuration":470145,"Delta":145985882},{"NoteNumber":64,"Velocity":56,"Duration":78357,"SoundDuration":78357,"Delta":146062280},{"NoteNumber":62,"Velocity":56,"Duration":78357,"SoundDuration":78357,"Delta":146143577},{"NoteNumber":57,"Velocity":56,"Duration":78357,"SoundDuration":78357,"Delta":146223893},{"NoteNumber":60,"Velocity":56,"Duration":78357,"SoundDuration":78357,"Delta":146300292},{"NoteNumber":59,"Velocity":56,"Duration":78357,"SoundDuration":78357,"Delta":146376691},{"NoteNumber":69,"Velocity":57,"Duration":78357,"SoundDuration":78357,"Delta":146456028},{"NoteNumber":35,"Velocity":68,"Duration":235072,"SoundDuration":235072,"Delta":146456028},{"NoteNumber":47,"Velocity":68,"Duration":235072,"SoundDuration":235072,"Delta":146456028},{"NoteNumber":64,"Velocity":55,"Duration":78357,"SoundDuration":78357,"Delta":146537324},{"NoteNumber":68,"Velocity":55,"Duration":78357,"SoundDuration":78357,"Delta":146610784},{"NoteNumber":71,"Velocity":55,"Duration":78357,"SoundDuration":78357,"Delta":146691101},{"NoteNumber":81,"Velocity":55,"Duration":78357,"SoundDuration":78357,"Delta":146770438},{"NoteNumber":76,"Velocity":55,"Duration":78357,"SoundDuration":78357,"Delta":146847816},{"NoteNumber":80,"Velocity":55,"Duration":77785,"SoundDuration":77785,"Delta":146925194},{"NoteNumber":56,"Velocity":60,"Duration":466671,"SoundDuration":466671,"Delta":146926174},{"NoteNumber":59,"Velocity":60,"Duration":466671,"SoundDuration":466671,"Delta":146926174},{"NoteNumber":64,"Velocity":70,"Duration":155557,"SoundDuration":155557,"Delta":146926174},{"NoteNumber":83,"Velocity":55,"Duration":77778,"SoundDuration":77778,"Delta":147004925},{"NoteNumber":93,"Velocity":56,"Duration":77778,"SoundDuration":77778,"Delta":147080759},{"NoteNumber":68,"Velocity":66,"Duration":155557,"SoundDuration":155557,"Delta":147081731},{"NoteNumber":88,"Velocity":57,"Duration":77778,"SoundDuration":77778,"Delta":147158538},{"NoteNumber":73,"Velocity":70,"Duration":155557,"SoundDuration":155557,"Delta":147237288},{"NoteNumber":92,"Velocity":59,"Duration":77778,"SoundDuration":77778,"Delta":147238261},{"NoteNumber":83,"Velocity":59,"Duration":77778,"SoundDuration":77778,"Delta":147317984},{"NoteNumber":92,"Velocity":59,"Duration":77778,"SoundDuration":77778,"Delta":147392846},{"NoteNumber":59,"Velocity":60,"Duration":466672,"SoundDuration":466672,"Delta":147392846},{"NoteNumber":63,"Velocity":60,"Duration":466672,"SoundDuration":466672,"Delta":147392846},{"NoteNumber":71,"Velocity":70,"Duration":466672,"SoundDuration":466672,"Delta":147392846},{"NoteNumber":69,"Velocity":70,"Duration":466672,"SoundDuration":466672,"Delta":147392846},{"NoteNumber":87,"Velocity":59,"Duration":77778,"SoundDuration":77778,"Delta":147469652},{"NoteNumber":90,"Velocity":59,"Duration":77778,"SoundDuration":77778,"Delta":147550348},{"NoteNumber":83,"Velocity":58,"Duration":77778,"SoundDuration":77778,"Delta":147626182},{"NoteNumber":80,"Velocity":57,"Duration":77778,"SoundDuration":77778,"Delta":147704933},{"NoteNumber":75,"Velocity":56,"Duration":77778,"SoundDuration":77778,"Delta":147781739},{"NoteNumber":47,"Velocity":66,"Duration":477213,"SoundDuration":477213,"Delta":147859518},{"NoteNumber":59,"Velocity":77,"Duration":477213,"SoundDuration":477213,"Delta":147859518},{"NoteNumber":78,"Velocity":51,"Duration":79535,"SoundDuration":79535,"Delta":147862500},{"NoteNumber":71,"Velocity":51,"Duration":79535,"SoundDuration":79535,"Delta":147937065},{"NoteNumber":68,"Velocity":51,"Duration":79535,"SoundDuration":79535,"Delta":148019583},{"NoteNumber":63,"Velocity":51,"Duration":79535,"SoundDuration":79535,"Delta":148096136},{"NoteNumber":66,"Velocity":51,"Duration":79535,"SoundDuration":79535,"Delta":148176666},{"NoteNumber":59,"Velocity":51,"Duration":79535,"SoundDuration":79535,"Delta":148255207},{"NoteNumber":69,"Velocity":51,"Duration":79535,"SoundDuration":79535,"Delta":148334742},{"NoteNumber":40,"Velocity":66,"Duration":238606,"SoundDuration":238606,"Delta":148336731},{"NoteNumber":52,"Velocity":77,"Duration":238606,"SoundDuration":238606,"Delta":148336731},{"NoteNumber":64,"Velocity":51,"Duration":79535,"SoundDuration":79535,"Delta":148418255},{"NoteNumber":68,"Velocity":51,"Duration":79535,"SoundDuration":79535,"Delta":148497790},{"NoteNumber":71,"Velocity":51,"Duration":79535,"SoundDuration":79535,"Delta":148575337},{"NoteNumber":81,"Velocity":51,"Duration":79535,"SoundDuration":79535,"Delta":148654873},{"NoteNumber":76,"Velocity":51,"Duration":79535,"SoundDuration":79535,"Delta":148735402},{"NoteNumber":80,"Velocity":51,"Duration":79535,"SoundDuration":79535,"Delta":148813944},{"NoteNumber":68,"Velocity":67,"Duration":159070,"SoundDuration":159070,"Delta":148813944},{"NoteNumber":59,"Velocity":56,"Duration":159070,"SoundDuration":159070,"Delta":148813944},{"NoteNumber":83,"Velocity":57,"Duration":79535,"SoundDuration":79535,"Delta":148894473},{"NoteNumber":93,"Velocity":57,"Duration":79535,"SoundDuration":79535,"Delta":148971026},{"NoteNumber":67,"Velocity":58,"Duration":159071,"SoundDuration":159071,"Delta":148973015},{"NoteNumber":58,"Velocity":49,"Duration":159071,"SoundDuration":159071,"Delta":148973015},{"NoteNumber":88,"Velocity":57,"Duration":79535,"SoundDuration":79535,"Delta":149054539},{"NoteNumber":92,"Velocity":57,"Duration":79535,"SoundDuration":79535,"Delta":149132086},{"NoteNumber":68,"Velocity":63,"Duration":159070,"SoundDuration":159070,"Delta":149132086},{"NoteNumber":59,"Velocity":55,"Duration":159070,"SoundDuration":159070,"Delta":149132086},{"NoteNumber":83,"Velocity":57,"Duration":79535,"SoundDuration":79535,"Delta":149214604},{"NoteNumber":100,"Velocity":76,"Duration":238606,"SoundDuration":238606,"Delta":149291157},{"NoteNumber":52,"Velocity":65,"Duration":238606,"SoundDuration":238606,"Delta":149291157},{"NoteNumber":56,"Velocity":65,"Duration":238606,"SoundDuration":238606,"Delta":149291157},{"NoteNumber":64,"Velocity":74,"Duration":238606,"SoundDuration":238606,"Delta":149291157},{"NoteNumber":33,"Velocity":99,"Duration":241351,"SoundDuration":241351,"Delta":150245583},{"NoteNumber":101,"Velocity":99,"Duration":80450,"SoundDuration":80450,"Delta":150246588},{"NoteNumber":96,"Velocity":67,"Duration":80450,"SoundDuration":80450,"Delta":150329050},{"NoteNumber":100,"Velocity":89,"Duration":80450,"SoundDuration":80450,"Delta":150406484},{"NoteNumber":93,"Velocity":67,"Duration":80450,"SoundDuration":80450,"Delta":150488946},{"NoteNumber":99,"Velocity":82,"Duration":80450,"SoundDuration":80450,"Delta":150568390},{"NoteNumber":96,"Velocity":67,"Duration":80450,"SoundDuration":80450,"Delta":150647835},{"NoteNumber":64,"Velocity":84,"Duration":348702,"SoundDuration":348702,"Delta":150728286},{"NoteNumber":60,"Velocity":70,"Duration":348702,"SoundDuration":348702,"Delta":150728286},{"NoteNumber":57,"Velocity":70,"Duration":348702,"SoundDuration":348702,"Delta":150728286},{"NoteNumber":98,"Velocity":79,"Duration":77489,"SoundDuration":77489,"Delta":150730223},{"NoteNumber":93,"Velocity":62,"Duration":77489,"SoundDuration":77489,"Delta":150808681},{"NoteNumber":97,"Velocity":77,"Duration":77489,"SoundDuration":77489,"Delta":150881327},{"NoteNumber":93,"Velocity":62,"Duration":77489,"SoundDuration":77489,"Delta":150962691},{"NoteNumber":96,"Velocity":77,"Duration":77489,"SoundDuration":77489,"Delta":151038243},{"NoteNumber":57,"Velocity":67,"Duration":116233,"SoundDuration":116233,"Delta":151076988},{"NoteNumber":60,"Velocity":67,"Duration":116233,"SoundDuration":116233,"Delta":151076988},{"NoteNumber":64,"Velocity":79,"Duration":116233,"SoundDuration":116233,"Delta":151076988},{"NoteNumber":88,"Velocity":62,"Duration":77489,"SoundDuration":77489,"Delta":151114764},{"NoteNumber":64,"Velocity":84,"Duration":470145,"SoundDuration":470145,"Delta":151193222},{"NoteNumber":60,"Velocity":70,"Duration":470145,"SoundDuration":470145,"Delta":151193222},{"NoteNumber":57,"Velocity":70,"Duration":470145,"SoundDuration":470145,"Delta":151193222},{"NoteNumber":95,"Velocity":74,"Duration":78357,"SoundDuration":78357,"Delta":151195181},{"NoteNumber":88,"Velocity":67,"Duration":78357,"SoundDuration":78357,"Delta":151273538},{"NoteNumber":94,"Velocity":75,"Duration":78357,"SoundDuration":78357,"Delta":151348958},{"NoteNumber":84,"Velocity":67,"Duration":78357,"SoundDuration":78357,"Delta":151429274},{"NoteNumber":93,"Velocity":75,"Duration":78357,"SoundDuration":78357,"Delta":151505673},{"NoteNumber":88,"Velocity":67,"Duration":78357,"SoundDuration":78357,"Delta":151583051},{"NoteNumber":57,"Velocity":74,"Duration":456585,"SoundDuration":456585,"Delta":151663368},{"NoteNumber":60,"Velocity":74,"Duration":456585,"SoundDuration":456585,"Delta":151663368},{"NoteNumber":65,"Velocity":88,"Duration":456585,"SoundDuration":456585,"Delta":151663368},{"NoteNumber":92,"Velocity":73,"Duration":76097,"SoundDuration":76097,"Delta":151665270},{"NoteNumber":84,"Velocity":62,"Duration":76097,"SoundDuration":76097,"Delta":151739465},{"NoteNumber":91,"Velocity":70,"Duration":76097,"SoundDuration":76097,"Delta":151814612},{"NoteNumber":84,"Velocity":62,"Duration":76097,"SoundDuration":76097,"Delta":151890710},{"NoteNumber":90,"Velocity":67,"Duration":76097,"SoundDuration":76097,"Delta":151968710},{"NoteNumber":81,"Velocity":62,"Duration":76097,"SoundDuration":76097,"Delta":152042905},{"NoteNumber":89,"Velocity":70,"Duration":78615,"SoundDuration":78615,"Delta":152119003},{"NoteNumber":57,"Velocity":70,"Duration":471883,"SoundDuration":471883,"Delta":152119954},{"NoteNumber":60,"Velocity":70,"Duration":471883,"SoundDuration":471883,"Delta":152119954},{"NoteNumber":64,"Velocity":84,"Duration":471883,"SoundDuration":471883,"Delta":152119954},{"NoteNumber":84,"Velocity":67,"Duration":78647,"SoundDuration":78647,"Delta":152197618},{"NoteNumber":88,"Velocity":70,"Duration":78647,"SoundDuration":78647,"Delta":152278232},{"NoteNumber":81,"Velocity":67,"Duration":78647,"SoundDuration":78647,"Delta":152357862},{"NoteNumber":87,"Velocity":70,"Duration":78647,"SoundDuration":78647,"Delta":152436509},{"NoteNumber":84,"Velocity":67,"Duration":78701,"SoundDuration":78701,"Delta":152514174},{"NoteNumber":86,"Velocity":70,"Duration":82858,"SoundDuration":82858,"Delta":152589872},{"NoteNumber":52,"Velocity":67,"Duration":497801,"SoundDuration":497801,"Delta":152591838},{"NoteNumber":57,"Velocity":67,"Duration":497801,"SoundDuration":497801,"Delta":152591838},{"NoteNumber":60,"Velocity":79,"Duration":497801,"SoundDuration":497801,"Delta":152591838},{"NoteNumber":81,"Velocity":62,"Duration":82966,"SoundDuration":82966,"Delta":152673768},{"NoteNumber":85,"Velocity":67,"Duration":82966,"SoundDuration":82966,"Delta":152760883},{"NoteNumber":81,"Velocity":62,"Duration":82966,"SoundDuration":82966,"Delta":152839701},{"NoteNumber":84,"Velocity":67,"Duration":82966,"SoundDuration":82966,"Delta":152922668},{"NoteNumber":76,"Velocity":62,"Duration":82966,"SoundDuration":82966,"Delta":153004598},{"NoteNumber":83,"Velocity":67,"Duration":76657,"SoundDuration":76657,"Delta":153089639},{"NoteNumber":57,"Velocity":67,"Duration":919892,"SoundDuration":919892,"Delta":153089639},{"NoteNumber":60,"Velocity":67,"Duration":919892,"SoundDuration":919892,"Delta":153089639},{"NoteNumber":64,"Velocity":79,"Duration":919892,"SoundDuration":919892,"Delta":153089639},{"NoteNumber":76,"Velocity":62,"Duration":76657,"SoundDuration":76657,"Delta":153165338},{"NoteNumber":82,"Velocity":67,"Duration":76657,"SoundDuration":76657,"Delta":153245829},{"NoteNumber":72,"Velocity":62,"Duration":76657,"SoundDuration":76657,"Delta":153318654},{"NoteNumber":81,"Velocity":67,"Duration":76657,"SoundDuration":76657,"Delta":153395311},{"NoteNumber":76,"Velocity":62,"Duration":76657,"SoundDuration":76657,"Delta":153473885},{"NoteNumber":80,"Velocity":67,"Duration":76657,"SoundDuration":76657,"Delta":153551501},{"NoteNumber":72,"Velocity":62,"Duration":76657,"SoundDuration":76657,"Delta":153627201},{"NoteNumber":79,"Velocity":67,"Duration":76657,"SoundDuration":76657,"Delta":153701942},{"NoteNumber":72,"Velocity":62,"Duration":76657,"SoundDuration":76657,"Delta":153781474},{"NoteNumber":78,"Velocity":67,"Duration":76657,"SoundDuration":76657,"Delta":153856215},{"NoteNumber":69,"Velocity":62,"Duration":76714,"SoundDuration":76714,"Delta":153934790},{"NoteNumber":77,"Velocity":53,"Duration":78888,"SoundDuration":78888,"Delta":154007614},{"NoteNumber":31,"Velocity":69,"Duration":236836,"SoundDuration":236836,"Delta":154009531},{"NoteNumber":72,"Velocity":49,"Duration":78945,"SoundDuration":78945,"Delta":154090450},{"NoteNumber":76,"Velocity":53,"Duration":78945,"SoundDuration":78945,"Delta":154168408},{"NoteNumber":69,"Velocity":49,"Duration":78945,"SoundDuration":78945,"Delta":154244393},{"NoteNumber":75,"Velocity":53,"Duration":78945,"SoundDuration":78945,"Delta":154327286},{"NoteNumber":72,"Velocity":49,"Duration":78945,"SoundDuration":78945,"Delta":154404257},{"NoteNumber":43,"Velocity":58,"Duration":348702,"SoundDuration":348702,"Delta":154483203},{"NoteNumber":52,"Velocity":69,"Duration":348702,"SoundDuration":348702,"Delta":154483203},{"NoteNumber":74,"Velocity":53,"Duration":77489,"SoundDuration":77489,"Delta":154484171},{"NoteNumber":69,"Velocity":49,"Duration":77489,"SoundDuration":77489,"Delta":154563598},{"NoteNumber":73,"Velocity":53,"Duration":77489,"SoundDuration":77489,"Delta":154639150},{"NoteNumber":69,"Velocity":49,"Duration":77489,"SoundDuration":77489,"Delta":154715671},{"NoteNumber":72,"Velocity":53,"Duration":77489,"SoundDuration":77489,"Delta":154791223},{"NoteNumber":43,"Velocity":50,"Duration":116233,"SoundDuration":116233,"Delta":154831905},{"NoteNumber":52,"Velocity":61,"Duration":116233,"SoundDuration":116233,"Delta":154831905},{"NoteNumber":64,"Velocity":49,"Duration":77525,"SoundDuration":77525,"Delta":154872587},{"NoteNumber":43,"Velocity":60,"Duration":1409019,"SoundDuration":1409019,"Delta":154948139},{"NoteNumber":52,"Velocity":70,"Duration":473671,"SoundDuration":473671,"Delta":154948139},{"NoteNumber":71,"Velocity":53,"Duration":78945,"SoundDuration":78945,"Delta":154949126},{"NoteNumber":64,"Velocity":49,"Duration":78945,"SoundDuration":78945,"Delta":155027084},{"NoteNumber":70,"Velocity":51,"Duration":78945,"SoundDuration":78945,"Delta":155107016},{"NoteNumber":60,"Velocity":48,"Duration":78945,"SoundDuration":78945,"Delta":155186948},{"NoteNumber":69,"Velocity":50,"Duration":78945,"SoundDuration":78945,"Delta":155261946},{"NoteNumber":64,"Velocity":45,"Duration":78945,"SoundDuration":78945,"Delta":155340892},{"NoteNumber":53,"Velocity":62,"Duration":463463,"SoundDuration":463463,"Delta":155421811},{"NoteNumber":68,"Velocity":49,"Duration":77244,"SoundDuration":77244,"Delta":155422776},{"NoteNumber":60,"Velocity":44,"Duration":77244,"SoundDuration":77244,"Delta":155500986},{"NoteNumber":67,"Velocity":47,"Duration":77244,"SoundDuration":77244,"Delta":155575333},{"NoteNumber":60,"Velocity":44,"Duration":77244,"SoundDuration":77244,"Delta":155655474},{"NoteNumber":66,"Velocity":45,"Duration":77244,"SoundDuration":77244,"Delta":155733683},{"NoteNumber":57,"Velocity":42,"Duration":77279,"SoundDuration":77279,"Delta":155809962},{"NoteNumber":65,"Velocity":45,"Duration":78629,"SoundDuration":78629,"Delta":155884309},{"NoteNumber":43,"Velocity":58,"Duration":963888,"SoundDuration":963888,"Delta":155885275},{"NoteNumber":52,"Velocity":58,"Duration":471883,"SoundDuration":471883,"Delta":155885275},{"NoteNumber":60,"Velocity":42,"Duration":78647,"SoundDuration":78647,"Delta":155964905},{"NoteNumber":64,"Velocity":45,"Duration":78647,"SoundDuration":78647,"Delta":156042569},{"NoteNumber":57,"Velocity":42,"Duration":78647,"SoundDuration":78647,"Delta":156119251},{"NoteNumber":63,"Velocity":44,"Duration":78647,"SoundDuration":78647,"Delta":156199864},{"NoteNumber":60,"Velocity":40,"Duration":78647,"SoundDuration":78647,"Delta":156276545},{"NoteNumber":48,"Velocity":58,"Duration":492005,"SoundDuration":492005,"Delta":156357159},{"NoteNumber":62,"Velocity":42,"Duration":82000,"SoundDuration":82000,"Delta":156359209},{"NoteNumber":57,"Velocity":39,"Duration":82000,"SoundDuration":82000,"Delta":156437110},{"NoteNumber":61,"Velocity":42,"Duration":82000,"SoundDuration":82000,"Delta":156523210},{"NoteNumber":57,"Velocity":39,"Duration":82000,"SoundDuration":82000,"Delta":156605211},{"NoteNumber":60,"Velocity":40,"Duration":82000,"SoundDuration":82000,"Delta":156687212},{"NoteNumber":52,"Velocity":38,"Duration":81842,"SoundDuration":81842,"Delta":156770238},{"NoteNumber":41,"Velocity":58,"Duration":466671,"SoundDuration":466671,"Delta":156849164},{"NoteNumber":59,"Velocity":40,"Duration":77778,"SoundDuration":77778,"Delta":156851108},{"NoteNumber":53,"Velocity":39,"Duration":77778,"SoundDuration":77778,"Delta":156927915},{"NoteNumber":57,"Velocity":45,"Duration":77778,"SoundDuration":77778,"Delta":157003749},{"NoteNumber":48,"Velocity":42,"Duration":77778,"SoundDuration":77778,"Delta":157080555},{"NoteNumber":56,"Velocity":47,"Duration":77778,"SoundDuration":77778,"Delta":157159306},{"NoteNumber":53,"Velocity":45,"Duration":77778,"SoundDuration":77778,"Delta":157240002},{"NoteNumber":40,"Velocity":58,"Duration":466672,"SoundDuration":466672,"Delta":157315836},{"NoteNumber":57,"Velocity":50,"Duration":77778,"SoundDuration":77778,"Delta":157318752},{"NoteNumber":48,"Velocity":48,"Duration":77778,"SoundDuration":77778,"Delta":157393614},{"NoteNumber":59,"Velocity":53,"Duration":77778,"SoundDuration":77778,"Delta":157470421},{"NoteNumber":52,"Velocity":50,"Duration":77778,"SoundDuration":77778,"Delta":157551116},{"NoteNumber":60,"Velocity":56,"Duration":77778,"SoundDuration":77778,"Delta":157627923},{"NoteNumber":48,"Velocity":53,"Duration":77778,"SoundDuration":77778,"Delta":157704729},{"NoteNumber":60,"Velocity":57,"Duration":78945,"SoundDuration":78945,"Delta":157782508},{"NoteNumber":38,"Velocity":63,"Duration":236836,"SoundDuration":236836,"Delta":157782508},{"NoteNumber":53,"Velocity":57,"Duration":78945,"SoundDuration":78945,"Delta":157864414},{"NoteNumber":59,"Velocity":57,"Duration":74998,"SoundDuration":74998,"Delta":157940398},{"NoteNumber":59,"Velocity":57,"Duration":78945,"SoundDuration":78945,"Delta":158022304},{"NoteNumber":72,"Velocity":57,"Duration":78945,"SoundDuration":78945,"Delta":158097302},{"NoteNumber":65,"Velocity":57,"Duration":78923,"SoundDuration":78923,"Delta":158178221},{"NoteNumber":71,"Velocity":56,"Duration":72388,"SoundDuration":72388,"Delta":158256180},{"NoteNumber":65,"Velocity":63,"Duration":154428,"SoundDuration":154428,"Delta":158256180},{"NoteNumber":57,"Velocity":63,"Duration":154428,"SoundDuration":154428,"Delta":158256180},{"NoteNumber":71,"Velocity":57,"Duration":77214,"SoundDuration":77214,"Delta":158333394},{"NoteNumber":49,"Velocity":62,"Duration":154428,"SoundDuration":154428,"Delta":158410608},{"NoteNumber":84,"Velocity":58,"Duration":77214,"SoundDuration":77214,"Delta":158413504},{"NoteNumber":77,"Velocity":59,"Duration":77214,"SoundDuration":77214,"Delta":158487822},{"NoteNumber":83,"Velocity":59,"Duration":72388,"SoundDuration":72388,"Delta":158565036},{"NoteNumber":50,"Velocity":63,"Duration":154428,"SoundDuration":154428,"Delta":158565036},{"NoteNumber":83,"Velocity":60,"Duration":77214,"SoundDuration":77214,"Delta":158642251},{"NoteNumber":51,"Velocity":69,"Duration":463284,"SoundDuration":463284,"Delta":158719465},{"NoteNumber":66,"Velocity":58,"Duration":463284,"SoundDuration":463284,"Delta":158719465},{"NoteNumber":57,"Velocity":58,"Duration":463284,"SoundDuration":463284,"Delta":158719465},{"NoteNumber":96,"Velocity":61,"Duration":77214,"SoundDuration":77214,"Delta":158720430},{"NoteNumber":90,"Velocity":61,"Duration":77214,"SoundDuration":77214,"Delta":158798609},{"NoteNumber":95,"Velocity":60,"Duration":77214,"SoundDuration":77214,"Delta":158871963},{"NoteNumber":83,"Velocity":59,"Duration":77214,"SoundDuration":77214,"Delta":158952072},{"NoteNumber":84,"Velocity":59,"Duration":77214,"SoundDuration":77214,"Delta":159027356},{"NoteNumber":78,"Velocity":58,"Duration":77214,"SoundDuration":77214,"Delta":159104570},{"NoteNumber":39,"Velocity":72,"Duration":478964,"SoundDuration":478964,"Delta":159182750},{"NoteNumber":83,"Velocity":56,"Duration":79827,"SoundDuration":79827,"Delta":159184745},{"NoteNumber":71,"Velocity":56,"Duration":79827,"SoundDuration":79827,"Delta":159265571},{"NoteNumber":72,"Velocity":56,"Duration":79827,"SoundDuration":79827,"Delta":159344400},{"NoteNumber":66,"Velocity":56,"Duration":79827,"SoundDuration":79827,"Delta":159425226},{"NoteNumber":71,"Velocity":56,"Duration":79827,"SoundDuration":79827,"Delta":159503058},{"NoteNumber":59,"Velocity":56,"Duration":79783,"SoundDuration":79783,"Delta":159584881},{"NoteNumber":40,"Velocity":73,"Duration":235941,"SoundDuration":235941,"Delta":159661715},{"NoteNumber":74,"Velocity":59,"Duration":78647,"SoundDuration":78647,"Delta":159664664},{"NoteNumber":67,"Velocity":59,"Duration":78647,"SoundDuration":78647,"Delta":159741345},{"NoteNumber":73,"Velocity":60,"Duration":73731,"SoundDuration":73731,"Delta":159819009},{"NoteNumber":73,"Velocity":61,"Duration":78647,"SoundDuration":78647,"Delta":159897657},{"NoteNumber":86,"Velocity":61,"Duration":78647,"SoundDuration":78647,"Delta":159974338},{"NoteNumber":77,"Velocity":64,"Duration":78611,"SoundDuration":78611,"Delta":160056918},{"NoteNumber":85,"Velocity":66,"Duration":72388,"SoundDuration":72388,"Delta":160133599},{"NoteNumber":67,"Velocity":67,"Duration":154428,"SoundDuration":154428,"Delta":160133599},{"NoteNumber":58,"Velocity":79,"Duration":154428,"SoundDuration":154428,"Delta":160133599},{"NoteNumber":85,"Velocity":66,"Duration":77214,"SoundDuration":77214,"Delta":160210813},{"NoteNumber":51,"Velocity":79,"Duration":154428,"SoundDuration":154428,"Delta":160288027},{"NoteNumber":98,"Velocity":67,"Duration":77214,"SoundDuration":77214,"Delta":160288992},{"NoteNumber":91,"Velocity":68,"Duration":77214,"SoundDuration":77214,"Delta":160367172},{"NoteNumber":52,"Velocity":79,"Duration":154428,"SoundDuration":154428,"Delta":160442455},{"NoteNumber":97,"Velocity":68,"Duration":77214,"SoundDuration":77214,"Delta":160444386},{"NoteNumber":85,"Velocity":69,"Duration":77214,"SoundDuration":77214,"Delta":160522565},{"NoteNumber":99,"Velocity":69,"Duration":77214,"SoundDuration":77214,"Delta":160594953},{"NoteNumber":53,"Velocity":81,"Duration":463284,"SoundDuration":463284,"Delta":160596884},{"NoteNumber":70,"Velocity":68,"Duration":463284,"SoundDuration":463284,"Delta":160596884},{"NoteNumber":58,"Velocity":68,"Duration":463284,"SoundDuration":463284,"Delta":160596884},{"NoteNumber":62,"Velocity":68,"Duration":463284,"SoundDuration":463284,"Delta":160596884},{"NoteNumber":94,"Velocity":69,"Duration":77214,"SoundDuration":77214,"Delta":160674098},{"NoteNumber":98,"Velocity":70,"Duration":77214,"SoundDuration":77214,"Delta":160752277},{"NoteNumber":86,"Velocity":71,"Duration":77214,"SoundDuration":77214,"Delta":160828526},{"NoteNumber":87,"Velocity":71,"Duration":77214,"SoundDuration":77214,"Delta":160905740},{"NoteNumber":82,"Velocity":72,"Duration":77279,"SoundDuration":77279,"Delta":160984885},{"NoteNumber":41,"Velocity":70,"Duration":478964,"SoundDuration":478964,"Delta":161060169},{"NoteNumber":53,"Velocity":82,"Duration":478964,"SoundDuration":478964,"Delta":161060169},{"NoteNumber":86,"Velocity":73,"Duration":79827,"SoundDuration":79827,"Delta":161061167},{"NoteNumber":74,"Velocity":73,"Duration":79827,"SoundDuration":79827,"Delta":161139996},{"NoteNumber":75,"Velocity":75,"Duration":79827,"SoundDuration":79827,"Delta":161220822},{"NoteNumber":70,"Velocity":78,"Duration":79827,"SoundDuration":79827,"Delta":161299651},{"NoteNumber":74,"Velocity":78,"Duration":79827,"SoundDuration":79827,"Delta":161381474},{"NoteNumber":62,"Velocity":79,"Duration":79827,"SoundDuration":79827,"Delta":161457311},{"NoteNumber":76,"Velocity":78,"Duration":80434,"SoundDuration":80434,"Delta":161537138},{"NoteNumber":29,"Velocity":80,"Duration":241351,"SoundDuration":241351,"Delta":161539134},{"NoteNumber":41,"Velocity":96,"Duration":241351,"SoundDuration":241351,"Delta":161539134},{"NoteNumber":69,"Velocity":72,"Duration":80450,"SoundDuration":80450,"Delta":161622601},{"NoteNumber":75,"Velocity":78,"Duration":80450,"SoundDuration":80450,"Delta":161698023},{"NoteNumber":63,"Velocity":72,"Duration":80450,"SoundDuration":80450,"Delta":161780485},{"NoteNumber":76,"Velocity":78,"Duration":80450,"SoundDuration":80450,"Delta":161858924},{"NoteNumber":69,"Velocity":72,"Duration":80450,"SoundDuration":80450,"Delta":161941386},{"NoteNumber":75,"Velocity":81,"Duration":78357,"SoundDuration":78357,"Delta":162021837},{"NoteNumber":53,"Velocity":89,"Duration":352609,"SoundDuration":352609,"Delta":162021837},{"NoteNumber":65,"Velocity":89,"Duration":352609,"SoundDuration":352609,"Delta":162021837},{"NoteNumber":75,"Velocity":75,"Duration":78357,"SoundDuration":78357,"Delta":162100194},{"NoteNumber":88,"Velocity":86,"Duration":78357,"SoundDuration":78357,"Delta":162178552},{"NoteNumber":81,"Velocity":79,"Duration":78357,"SoundDuration":78357,"Delta":162255930},{"NoteNumber":87,"Velocity":86,"Duration":78357,"SoundDuration":78357,"Delta":162335267},{"NoteNumber":53,"Velocity":89,"Duration":117536,"SoundDuration":117536,"Delta":162374446},{"NoteNumber":65,"Velocity":89,"Duration":117536,"SoundDuration":117536,"Delta":162374446},{"NoteNumber":87,"Velocity":80,"Duration":78357,"SoundDuration":78357,"Delta":162413625},{"NoteNumber":53,"Velocity":89,"Duration":477213,"SoundDuration":477213,"Delta":162491983},{"NoteNumber":65,"Velocity":89,"Duration":477213,"SoundDuration":477213,"Delta":162491983},{"NoteNumber":100,"Velocity":86,"Duration":79535,"SoundDuration":79535,"Delta":162494965},{"NoteNumber":93,"Velocity":80,"Duration":79535,"SoundDuration":79535,"Delta":162574501},{"NoteNumber":99,"Velocity":86,"Duration":79535,"SoundDuration":79535,"Delta":162651054},{"NoteNumber":87,"Velocity":81,"Duration":79535,"SoundDuration":79535,"Delta":162730589},{"NoteNumber":88,"Velocity":86,"Duration":79535,"SoundDuration":79535,"Delta":162809131},{"NoteNumber":81,"Velocity":81,"Duration":79469,"SoundDuration":79469,"Delta":162892643},{"NoteNumber":53,"Velocity":75,"Duration":466671,"SoundDuration":466671,"Delta":162969196},{"NoteNumber":60,"Velocity":75,"Duration":466671,"SoundDuration":466671,"Delta":162969196},{"NoteNumber":67,"Velocity":90,"Duration":466671,"SoundDuration":466671,"Delta":162969196},{"NoteNumber":87,"Velocity":86,"Duration":77778,"SoundDuration":77778,"Delta":162971140},{"NoteNumber":75,"Velocity":80,"Duration":77778,"SoundDuration":77778,"Delta":163046974},{"NoteNumber":88,"Velocity":86,"Duration":77778,"SoundDuration":77778,"Delta":163126698},{"NoteNumber":81,"Velocity":86,"Duration":77778,"SoundDuration":77778,"Delta":163203504},{"NoteNumber":87,"Velocity":86,"Duration":70973,"SoundDuration":70973,"Delta":163280310},{"NoteNumber":87,"Velocity":80,"Duration":77778,"SoundDuration":77778,"Delta":163358089},{"NoteNumber":53,"Velocity":94,"Duration":471883,"SoundDuration":471883,"Delta":163435868},{"NoteNumber":65,"Velocity":94,"Duration":471883,"SoundDuration":471883,"Delta":163435868},{"NoteNumber":100,"Velocity":86,"Duration":78647,"SoundDuration":78647,"Delta":163437834},{"NoteNumber":93,"Velocity":80,"Duration":78647,"SoundDuration":78647,"Delta":163513532},{"NoteNumber":99,"Velocity":86,"Duration":78647,"SoundDuration":78647,"Delta":163591196},{"NoteNumber":87,"Velocity":86,"Duration":78647,"SoundDuration":78647,"Delta":163672793},{"NoteNumber":88,"Velocity":86,"Duration":78647,"SoundDuration":78647,"Delta":163752423},{"NoteNumber":81,"Velocity":80,"Duration":78701,"SoundDuration":78701,"Delta":163830088},{"NoteNumber":87,"Velocity":82,"Duration":82858,"SoundDuration":82858,"Delta":163905786},{"NoteNumber":48,"Velocity":90,"Duration":497801,"SoundDuration":497801,"Delta":163907752},{"NoteNumber":60,"Velocity":90,"Duration":497801,"SoundDuration":497801,"Delta":163907752},{"NoteNumber":75,"Velocity":78,"Duration":82966,"SoundDuration":82966,"Delta":163991756},{"NoteNumber":88,"Velocity":82,"Duration":82966,"SoundDuration":82966,"Delta":164073685},{"NoteNumber":81,"Velocity":82,"Duration":82966,"SoundDuration":82966,"Delta":164159764},{"NoteNumber":87,"Velocity":82,"Duration":76744,"SoundDuration":76744,"Delta":164239619},{"NoteNumber":87,"Velocity":78,"Duration":82966,"SoundDuration":82966,"Delta":164322586},{"NoteNumber":100,"Velocity":80,"Duration":76736,"SoundDuration":76736,"Delta":164404516},{"NoteNumber":53,"Velocity":92,"Duration":919892,"SoundDuration":919892,"Delta":164405553},{"NoteNumber":65,"Velocity":92,"Duration":919892,"SoundDuration":919892,"Delta":164405553},{"NoteNumber":93,"Velocity":68,"Duration":76657,"SoundDuration":76657,"Delta":164480294},{"NoteNumber":99,"Velocity":70,"Duration":76657,"SoundDuration":76657,"Delta":164557910},{"NoteNumber":87,"Velocity":62,"Duration":76657,"SoundDuration":76657,"Delta":164635526},{"NoteNumber":100,"Velocity":66,"Duration":76657,"SoundDuration":76657,"Delta":164713142},{"NoteNumber":93,"Velocity":60,"Duration":76657,"SoundDuration":76657,"Delta":164786925},{"NoteNumber":99,"Velocity":62,"Duration":76657,"SoundDuration":76657,"Delta":164865499},{"NoteNumber":87,"Velocity":58,"Duration":76657,"SoundDuration":76657,"Delta":164940240},{"NoteNumber":100,"Velocity":59,"Duration":76657,"SoundDuration":76657,"Delta":165021689},{"NoteNumber":93,"Velocity":53,"Duration":76657,"SoundDuration":76657,"Delta":165097388},{"NoteNumber":99,"Velocity":55,"Duration":76657,"SoundDuration":76657,"Delta":165170213},{"NoteNumber":87,"Velocity":49,"Duration":76657,"SoundDuration":76657,"Delta":165246871},{"NoteNumber":41,"Velocity":58,"Duration":76657,"SoundDuration":76657,"Delta":165323528},{"NoteNumber":100,"Velocity":60,"Duration":76657,"SoundDuration":76657,"Delta":165327361},{"NoteNumber":47,"Velocity":45,"Duration":76657,"SoundDuration":76657,"Delta":165400186},{"NoteNumber":95,"Velocity":55,"Duration":76657,"SoundDuration":76657,"Delta":165404977},{"NoteNumber":45,"Velocity":53,"Duration":76657,"SoundDuration":76657,"Delta":165479718},{"NoteNumber":99,"Velocity":61,"Duration":76657,"SoundDuration":76657,"Delta":165480677},{"NoteNumber":51,"Velocity":46,"Duration":76657,"SoundDuration":76657,"Delta":165554460},{"NoteNumber":93,"Velocity":56,"Duration":76657,"SoundDuration":76657,"Delta":165557334},{"NoteNumber":100,"Velocity":62,"Duration":76657,"SoundDuration":76657,"Delta":165630159},{"NoteNumber":45,"Velocity":55,"Duration":76657,"SoundDuration":76657,"Delta":165633992},{"NoteNumber":95,"Velocity":56,"Duration":76657,"SoundDuration":76657,"Delta":165710650},{"NoteNumber":51,"Velocity":49,"Duration":76657,"SoundDuration":76657,"Delta":165710650},{"NoteNumber":99,"Velocity":63,"Duration":76657,"SoundDuration":76657,"Delta":165786349},{"NoteNumber":47,"Velocity":56,"Duration":76657,"SoundDuration":76657,"Delta":165787307},{"NoteNumber":93,"Velocity":57,"Duration":76657,"SoundDuration":76657,"Delta":165863007},{"NoteNumber":53,"Velocity":49,"Duration":76657,"SoundDuration":76657,"Delta":165863007},{"NoteNumber":47,"Velocity":56,"Duration":76657,"SoundDuration":76657,"Delta":165936790},{"NoteNumber":100,"Velocity":64,"Duration":76657,"SoundDuration":76657,"Delta":165941581},{"NoteNumber":95,"Velocity":60,"Duration":76657,"SoundDuration":76657,"Delta":166013447},{"NoteNumber":53,"Velocity":50,"Duration":76657,"SoundDuration":76657,"Delta":166014406},{"NoteNumber":99,"Velocity":66,"Duration":76657,"SoundDuration":76657,"Delta":166094896},{"NoteNumber":51,"Velocity":57,"Duration":76657,"SoundDuration":76657,"Delta":166094896},{"NoteNumber":57,"Velocity":50,"Duration":76657,"SoundDuration":76657,"Delta":166168679},{"NoteNumber":93,"Velocity":60,"Duration":76657,"SoundDuration":76657,"Delta":166171554},{"NoteNumber":100,"Velocity":67,"Duration":76657,"SoundDuration":76657,"Delta":166246295},{"NoteNumber":51,"Velocity":58,"Duration":76657,"SoundDuration":76657,"Delta":166247253},{"NoteNumber":95,"Velocity":60,"Duration":76657,"SoundDuration":76657,"Delta":166324869},{"NoteNumber":57,"Velocity":50,"Duration":76657,"SoundDuration":76657,"Delta":166324869},{"NoteNumber":99,"Velocity":68,"Duration":76657,"SoundDuration":76657,"Delta":166399610},{"NoteNumber":53,"Velocity":58,"Duration":76657,"SoundDuration":76657,"Delta":166401527},{"NoteNumber":93,"Velocity":62,"Duration":76657,"SoundDuration":76657,"Delta":166473393},{"NoteNumber":59,"Velocity":51,"Duration":76657,"SoundDuration":76657,"Delta":166475310},{"NoteNumber":53,"Velocity":60,"Duration":76657,"SoundDuration":76657,"Delta":166551967},{"NoteNumber":100,"Velocity":69,"Duration":76657,"SoundDuration":76657,"Delta":166554842},{"NoteNumber":95,"Velocity":63,"Duration":76657,"SoundDuration":76657,"Delta":166629583},{"NoteNumber":59,"Velocity":51,"Duration":76657,"SoundDuration":76657,"Delta":166630542},{"NoteNumber":99,"Velocity":70,"Duration":76657,"SoundDuration":76657,"Delta":166704325},{"NoteNumber":57,"Velocity":61,"Duration":76657,"SoundDuration":76657,"Delta":166707199},{"NoteNumber":93,"Velocity":64,"Duration":76657,"SoundDuration":76657,"Delta":166780982},{"NoteNumber":63,"Velocity":52,"Duration":76657,"SoundDuration":76657,"Delta":166781940},{"NoteNumber":100,"Velocity":72,"Duration":76657,"SoundDuration":76657,"Delta":166859556},{"NoteNumber":57,"Velocity":61,"Duration":76657,"SoundDuration":76657,"Delta":166860515},{"NoteNumber":63,"Velocity":55,"Duration":76657,"SoundDuration":76657,"Delta":166934298},{"NoteNumber":95,"Velocity":66,"Duration":76657,"SoundDuration":76657,"Delta":166938130},{"NoteNumber":59,"Velocity":62,"Duration":76657,"SoundDuration":76657,"Delta":167011913},{"NoteNumber":99,"Velocity":73,"Duration":76657,"SoundDuration":76657,"Delta":167013830},{"NoteNumber":65,"Velocity":53,"Duration":76657,"SoundDuration":76657,"Delta":167086655},{"NoteNumber":93,"Velocity":67,"Duration":76657,"SoundDuration":76657,"Delta":167091446},{"NoteNumber":100,"Velocity":74,"Duration":76657,"SoundDuration":76657,"Delta":167165229},{"NoteNumber":59,"Velocity":62,"Duration":76657,"SoundDuration":76657,"Delta":167167145},{"NoteNumber":65,"Velocity":56,"Duration":76657,"SoundDuration":76657,"Delta":167240928},{"NoteNumber":95,"Velocity":67,"Duration":76657,"SoundDuration":76657,"Delta":167244761},{"NoteNumber":63,"Velocity":63,"Duration":76657,"SoundDuration":76657,"Delta":167316628},{"NoteNumber":99,"Velocity":75,"Duration":76657,"SoundDuration":76657,"Delta":167319502},{"NoteNumber":69,"Velocity":56,"Duration":76657,"SoundDuration":76657,"Delta":167394244},{"NoteNumber":93,"Velocity":67,"Duration":76657,"SoundDuration":76657,"Delta":167397118},{"NoteNumber":100,"Velocity":77,"Duration":76657,"SoundDuration":76657,"Delta":167469943},{"NoteNumber":63,"Velocity":64,"Duration":76657,"SoundDuration":76657,"Delta":167472818},{"NoteNumber":95,"Velocity":69,"Duration":76657,"SoundDuration":76657,"Delta":167550434},{"NoteNumber":69,"Velocity":57,"Duration":76657,"SoundDuration":76657,"Delta":167550434},{"NoteNumber":65,"Velocity":64,"Duration":76657,"SoundDuration":76657,"Delta":167624217},{"NoteNumber":99,"Velocity":78,"Duration":76657,"SoundDuration":76657,"Delta":167627091},{"NoteNumber":71,"Velocity":58,"Duration":76657,"SoundDuration":76657,"Delta":167700874},{"NoteNumber":93,"Velocity":69,"Duration":76657,"SoundDuration":76657,"Delta":167704707},{"NoteNumber":65,"Velocity":66,"Duration":76657,"SoundDuration":76657,"Delta":167778490},{"NoteNumber":100,"Velocity":79,"Duration":76657,"SoundDuration":76657,"Delta":167781365},{"NoteNumber":95,"Velocity":69,"Duration":76657,"SoundDuration":76657,"Delta":167854190},{"NoteNumber":71,"Velocity":58,"Duration":76657,"SoundDuration":76657,"Delta":167857064},{"NoteNumber":99,"Velocity":80,"Duration":76657,"SoundDuration":76657,"Delta":167929889},{"NoteNumber":69,"Velocity":67,"Duration":76657,"SoundDuration":76657,"Delta":167932764},{"NoteNumber":93,"Velocity":69,"Duration":76657,"SoundDuration":76657,"Delta":168007505},{"NoteNumber":75,"Velocity":58,"Duration":76657,"SoundDuration":76657,"Delta":168008463},{"NoteNumber":100,"Velocity":81,"Duration":76657,"SoundDuration":76657,"Delta":168084163},{"NoteNumber":69,"Velocity":67,"Duration":76657,"SoundDuration":76657,"Delta":168087995},{"NoteNumber":75,"Velocity":58,"Duration":76657,"SoundDuration":76657,"Delta":168160820},{"NoteNumber":95,"Velocity":70,"Duration":76657,"SoundDuration":76657,"Delta":168164653},{"NoteNumber":99,"Velocity":82,"Duration":76657,"SoundDuration":76657,"Delta":168241311},{"NoteNumber":71,"Velocity":68,"Duration":76657,"SoundDuration":76657,"Delta":168241311},{"NoteNumber":93,"Velocity":74,"Duration":76657,"SoundDuration":76657,"Delta":168314136},{"NoteNumber":77,"Velocity":60,"Duration":76657,"SoundDuration":76657,"Delta":168316052},{"NoteNumber":100,"Velocity":84,"Duration":76657,"SoundDuration":76657,"Delta":168390793},{"NoteNumber":71,"Velocity":69,"Duration":76657,"SoundDuration":76657,"Delta":168392710},{"NoteNumber":77,"Velocity":62,"Duration":76657,"SoundDuration":76657,"Delta":168468409},{"NoteNumber":95,"Velocity":78,"Duration":76657,"SoundDuration":76657,"Delta":168471284},{"NoteNumber":99,"Velocity":86,"Duration":76657,"SoundDuration":76657,"Delta":168545067},{"NoteNumber":75,"Velocity":69,"Duration":76657,"SoundDuration":76657,"Delta":168546983},{"NoteNumber":93,"Velocity":78,"Duration":76657,"SoundDuration":76657,"Delta":168620766},{"NoteNumber":81,"Velocity":62,"Duration":76657,"SoundDuration":76657,"Delta":168623641},{"NoteNumber":75,"Velocity":70,"Duration":76657,"SoundDuration":76657,"Delta":168700299},{"NoteNumber":100,"Velocity":88,"Duration":76657,"SoundDuration":76657,"Delta":168701257},{"NoteNumber":81,"Velocity":63,"Duration":76657,"SoundDuration":76657,"Delta":168775040},{"NoteNumber":95,"Velocity":80,"Duration":76657,"SoundDuration":76657,"Delta":168776956},{"NoteNumber":77,"Velocity":72,"Duration":76657,"SoundDuration":76657,"Delta":168849781},{"NoteNumber":99,"Velocity":89,"Duration":76657,"SoundDuration":76657,"Delta":168851697},{"NoteNumber":93,"Velocity":81,"Duration":76657,"SoundDuration":76657,"Delta":168928355},{"NoteNumber":83,"Velocity":63,"Duration":76657,"SoundDuration":76657,"Delta":168929313},{"NoteNumber":69,"Velocity":89,"Duration":229973,"SoundDuration":229973,"Delta":169004055},{"NoteNumber":76,"Velocity":89,"Duration":229973,"SoundDuration":229973,"Delta":169004055},{"NoteNumber":64,"Velocity":89,"Duration":229973,"SoundDuration":229973,"Delta":169005013},{"NoteNumber":101,"Velocity":89,"Duration":76657,"SoundDuration":76657,"Delta":169005971},{"NoteNumber":72,"Velocity":89,"Duration":229972,"SoundDuration":229972,"Delta":169005971},{"NoteNumber":96,"Velocity":82,"Duration":76657,"SoundDuration":76657,"Delta":169082629},{"NoteNumber":100,"Velocity":89,"Duration":76657,"SoundDuration":76657,"Delta":169161203},{"NoteNumber":93,"Velocity":82,"Duration":76657,"SoundDuration":76657,"Delta":169236902},{"NoteNumber":98,"Velocity":79,"Duration":76657,"SoundDuration":76657,"Delta":169313560},{"NoteNumber":86,"Velocity":79,"Duration":76657,"SoundDuration":76657,"Delta":169314518},{"NoteNumber":93,"Velocity":72,"Duration":76657,"SoundDuration":76657,"Delta":169388301},{"NoteNumber":81,"Velocity":69,"Duration":76657,"SoundDuration":76657,"Delta":169390218},{"NoteNumber":84,"Velocity":79,"Duration":76657,"SoundDuration":76657,"Delta":169464959},{"NoteNumber":96,"Velocity":79,"Duration":76657,"SoundDuration":76657,"Delta":169465917},{"NoteNumber":76,"Velocity":70,"Duration":76657,"SoundDuration":76657,"Delta":169540658},{"NoteNumber":88,"Velocity":75,"Duration":76657,"SoundDuration":76657,"Delta":169544491},{"NoteNumber":83,"Velocity":79,"Duration":76657,"SoundDuration":76657,"Delta":169618274},{"NoteNumber":95,"Velocity":79,"Duration":76657,"SoundDuration":76657,"Delta":169619232},{"NoteNumber":88,"Velocity":75,"Duration":76657,"SoundDuration":76657,"Delta":169693974},{"NoteNumber":76,"Velocity":71,"Duration":76657,"SoundDuration":76657,"Delta":169695890},{"NoteNumber":93,"Velocity":79,"Duration":76657,"SoundDuration":76657,"Delta":169771589},{"NoteNumber":81,"Velocity":79,"Duration":76657,"SoundDuration":76657,"Delta":169774464},{"NoteNumber":84,"Velocity":72,"Duration":76654,"SoundDuration":76654,"Delta":169849205},{"NoteNumber":72,"Velocity":70,"Duration":76647,"SoundDuration":76647,"Delta":169851122},{"NoteNumber":89,"Velocity":79,"Duration":76230,"SoundDuration":76230,"Delta":169926814},{"NoteNumber":77,"Velocity":79,"Duration":76230,"SoundDuration":76230,"Delta":169926814},{"NoteNumber":84,"Velocity":73,"Duration":76097,"SoundDuration":76097,"Delta":170001142},{"NoteNumber":72,"Velocity":70,"Duration":76097,"SoundDuration":76097,"Delta":170003996},{"NoteNumber":88,"Velocity":79,"Duration":76097,"SoundDuration":76097,"Delta":170079142},{"NoteNumber":76,"Velocity":79,"Duration":76097,"SoundDuration":76097,"Delta":170080093},{"NoteNumber":81,"Velocity":72,"Duration":76097,"SoundDuration":76097,"Delta":170152386},{"NoteNumber":69,"Velocity":70,"Duration":76097,"SoundDuration":76097,"Delta":170154288},{"NoteNumber":86,"Velocity":79,"Duration":76230,"SoundDuration":76230,"Delta":170227532},{"NoteNumber":74,"Velocity":79,"Duration":76230,"SoundDuration":76230,"Delta":170227532},{"NoteNumber":81,"Velocity":73,"Duration":76376,"SoundDuration":76376,"Delta":170303763},{"NoteNumber":69,"Velocity":72,"Duration":76376,"SoundDuration":76376,"Delta":170304717},{"NoteNumber":84,"Velocity":79,"Duration":76376,"SoundDuration":76376,"Delta":170380139},{"NoteNumber":72,"Velocity":79,"Duration":76376,"SoundDuration":76376,"Delta":170381094},{"NoteNumber":76,"Velocity":72,"Duration":76376,"SoundDuration":76376,"Delta":170458425},{"NoteNumber":64,"Velocity":70,"Duration":76376,"SoundDuration":76376,"Delta":170460335},{"NoteNumber":83,"Velocity":79,"Duration":76513,"SoundDuration":76513,"Delta":170533847},{"NoteNumber":71,"Velocity":79,"Duration":76513,"SoundDuration":76513,"Delta":170533847},{"NoteNumber":64,"Velocity":71,"Duration":76657,"SoundDuration":76657,"Delta":170610361},{"NoteNumber":76,"Velocity":72,"Duration":76657,"SoundDuration":76657,"Delta":170612277},{"NoteNumber":69,"Velocity":79,"Duration":76657,"SoundDuration":76657,"Delta":170687977},{"NoteNumber":81,"Velocity":79,"Duration":76657,"SoundDuration":76657,"Delta":170690852},{"NoteNumber":72,"Velocity":72,"Duration":76657,"SoundDuration":76657,"Delta":170763676},{"NoteNumber":60,"Velocity":71,"Duration":76667,"SoundDuration":76667,"Delta":170767509},{"NoteNumber":65,"Velocity":79,"Duration":76925,"SoundDuration":76925,"Delta":170840334},{"NoteNumber":77,"Velocity":79,"Duration":76928,"SoundDuration":76928,"Delta":170843215},{"NoteNumber":60,"Velocity":71,"Duration":76929,"SoundDuration":76929,"Delta":170917260},{"NoteNumber":72,"Velocity":72,"Duration":76929,"SoundDuration":76929,"Delta":170919183},{"NoteNumber":76,"Velocity":79,"Duration":76929,"SoundDuration":76929,"Delta":170998035},{"NoteNumber":64,"Velocity":79,"Duration":76929,"SoundDuration":76929,"Delta":170998035},{"NoteNumber":69,"Velocity":72,"Duration":76928,"SoundDuration":76928,"Delta":171070156},{"NoteNumber":57,"Velocity":71,"Duration":76929,"SoundDuration":76929,"Delta":171071118},{"NoteNumber":74,"Velocity":79,"Duration":77210,"SoundDuration":77210,"Delta":171148047},{"NoteNumber":62,"Velocity":79,"Duration":77214,"SoundDuration":77214,"Delta":171151904},{"NoteNumber":69,"Velocity":72,"Duration":77214,"SoundDuration":77214,"Delta":171226222},{"NoteNumber":57,"Velocity":71,"Duration":77214,"SoundDuration":77214,"Delta":171228153},{"NoteNumber":60,"Velocity":79,"Duration":77214,"SoundDuration":77214,"Delta":171301506},{"NoteNumber":72,"Velocity":79,"Duration":77214,"SoundDuration":77214,"Delta":171305367},{"NoteNumber":52,"Velocity":71,"Duration":77217,"SoundDuration":77217,"Delta":171381616},{"NoteNumber":64,"Velocity":73,"Duration":77221,"SoundDuration":77221,"Delta":171382581},{"NoteNumber":71,"Velocity":79,"Duration":77482,"SoundDuration":77482,"Delta":171455935},{"NoteNumber":59,"Velocity":79,"Duration":77485,"SoundDuration":77485,"Delta":171456900},{"NoteNumber":64,"Velocity":72,"Duration":77489,"SoundDuration":77489,"Delta":171535354},{"NoteNumber":52,"Velocity":70,"Duration":77489,"SoundDuration":77489,"Delta":171535354},{"NoteNumber":57,"Velocity":79,"Duration":77489,"SoundDuration":77489,"Delta":171611875},{"NoteNumber":69,"Velocity":79,"Duration":77489,"SoundDuration":77489,"Delta":171612844},{"NoteNumber":48,"Velocity":70,"Duration":77882,"SoundDuration":77882,"Delta":171692270},{"NoteNumber":60,"Velocity":72,"Duration":78006,"SoundDuration":78006,"Delta":171693239},{"NoteNumber":59,"Velocity":81,"Duration":524520,"SoundDuration":524520,"Delta":171767967},{"NoteNumber":71,"Velocity":96,"Duration":524520,"SoundDuration":524520,"Delta":171767967},{"NoteNumber":64,"Velocity":81,"Duration":524520,"SoundDuration":524520,"Delta":171767967},{"NoteNumber":69,"Velocity":96,"Duration":524520,"SoundDuration":524520,"Delta":171767967},{"NoteNumber":40,"Velocity":73,"Duration":524520,"SoundDuration":524520,"Delta":171767967},{"NoteNumber":52,"Velocity":86,"Duration":524520,"SoundDuration":524520,"Delta":171767967},{"NoteNumber":64,"Velocity":81,"Duration":564175,"SoundDuration":564175,"Delta":172292488},{"NoteNumber":76,"Velocity":96,"Duration":564175,"SoundDuration":564175,"Delta":172292488},{"NoteNumber":62,"Velocity":81,"Duration":564175,"SoundDuration":564175,"Delta":172292488},{"NoteNumber":68,"Velocity":96,"Duration":564175,"SoundDuration":564175,"Delta":172292488},{"NoteNumber":71,"Velocity":96,"Duration":564175,"SoundDuration":564175,"Delta":172292488},{"NoteNumber":28,"Velocity":73,"Duration":564175,"SoundDuration":564175,"Delta":172292488},{"NoteNumber":40,"Velocity":86,"Duration":564175,"SoundDuration":564175,"Delta":172292488},{"NoteNumber":93,"Velocity":100,"Duration":71342,"SoundDuration":71342,"Delta":172854312},{"NoteNumber":33,"Velocity":101,"Duration":114986,"SoundDuration":114986,"Delta":172859538},{"NoteNumber":88,"Velocity":82,"Duration":76657,"SoundDuration":76657,"Delta":172935237},{"NoteNumber":40,"Velocity":77,"Duration":114986,"SoundDuration":114986,"Delta":172972608},{"NoteNumber":92,"Velocity":93,"Duration":76657,"SoundDuration":76657,"Delta":173011895},{"NoteNumber":48,"Velocity":77,"Duration":114986,"SoundDuration":114986,"Delta":173084719},{"NoteNumber":84,"Velocity":84,"Duration":76657,"SoundDuration":76657,"Delta":173087594},{"NoteNumber":91,"Velocity":93,"Duration":76657,"SoundDuration":76657,"Delta":173164252},{"NoteNumber":40,"Velocity":77,"Duration":114986,"SoundDuration":114986,"Delta":173201622},{"NoteNumber":88,"Velocity":82,"Duration":76657,"SoundDuration":76657,"Delta":173239951},{"NoteNumber":90,"Velocity":93,"Duration":76657,"SoundDuration":76657,"Delta":173314692},{"NoteNumber":33,"Velocity":88,"Duration":114986,"SoundDuration":114986,"Delta":173318525},{"NoteNumber":84,"Velocity":83,"Duration":76657,"SoundDuration":76657,"Delta":173391350},{"NoteNumber":40,"Velocity":77,"Duration":114986,"SoundDuration":114986,"Delta":173433512},{"NoteNumber":89,"Velocity":93,"Duration":76657,"SoundDuration":76657,"Delta":173471841},{"NoteNumber":84,"Velocity":83,"Duration":76657,"SoundDuration":76657,"Delta":173544665},{"NoteNumber":48,"Velocity":77,"Duration":114986,"SoundDuration":114986,"Delta":173549457},{"NoteNumber":88,"Velocity":93,"Duration":76657,"SoundDuration":76657,"Delta":173622281},{"NoteNumber":40,"Velocity":77,"Duration":114986,"SoundDuration":114986,"Delta":173664443},{"NoteNumber":81,"Velocity":83,"Duration":76657,"SoundDuration":76657,"Delta":173698939},{"NoteNumber":87,"Velocity":93,"Duration":76657,"SoundDuration":76657,"Delta":173774638},{"NoteNumber":33,"Velocity":97,"Duration":114986,"SoundDuration":114986,"Delta":173774638},{"NoteNumber":84,"Velocity":82,"Duration":76657,"SoundDuration":76657,"Delta":173854171},{"NoteNumber":40,"Velocity":77,"Duration":114986,"SoundDuration":114986,"Delta":173892500},{"NoteNumber":86,"Velocity":93,"Duration":76657,"SoundDuration":76657,"Delta":173928912},{"NoteNumber":81,"Velocity":82,"Duration":76657,"SoundDuration":76657,"Delta":174008444},{"NoteNumber":48,"Velocity":77,"Duration":114986,"SoundDuration":114986,"Delta":174009403},{"NoteNumber":85,"Velocity":93,"Duration":76657,"SoundDuration":76657,"Delta":174084144},{"NoteNumber":40,"Velocity":77,"Duration":114986,"SoundDuration":114986,"Delta":174122473},{"NoteNumber":81,"Velocity":82,"Duration":76657,"SoundDuration":76657,"Delta":174160801},{"NoteNumber":33,"Velocity":89,"Duration":114986,"SoundDuration":114986,"Delta":174237459},{"NoteNumber":84,"Velocity":93,"Duration":76657,"SoundDuration":76657,"Delta":174239376},{"NoteNumber":76,"Velocity":82,"Duration":76657,"SoundDuration":76657,"Delta":174314117},{"NoteNumber":40,"Velocity":77,"Duration":114986,"SoundDuration":114986,"Delta":174352446},{"NoteNumber":83,"Velocity":93,"Duration":76657,"SoundDuration":76657,"Delta":174391733},{"NoteNumber":48,"Velocity":77,"Duration":114986,"SoundDuration":114986,"Delta":174465516},{"NoteNumber":76,"Velocity":82,"Duration":76657,"SoundDuration":76657,"Delta":174467432},{"NoteNumber":82,"Velocity":93,"Duration":76657,"SoundDuration":76657,"Delta":174541215},{"NoteNumber":40,"Velocity":77,"Duration":114986,"SoundDuration":114986,"Delta":174583377},{"NoteNumber":72,"Velocity":82,"Duration":76657,"SoundDuration":76657,"Delta":174618831},{"NoteNumber":81,"Velocity":93,"Duration":76657,"SoundDuration":76657,"Delta":174694530},{"NoteNumber":33,"Velocity":101,"Duration":114986,"SoundDuration":114986,"Delta":174699322},{"NoteNumber":76,"Velocity":81,"Duration":76657,"SoundDuration":76657,"Delta":174775021},{"NoteNumber":40,"Velocity":77,"Duration":114986,"SoundDuration":114986,"Delta":174814308},{"NoteNumber":80,"Velocity":93,"Duration":76657,"SoundDuration":76657,"Delta":174852637},{"NoteNumber":48,"Velocity":77,"Duration":114986,"SoundDuration":114986,"Delta":174924503},{"NoteNumber":72,"Velocity":82,"Duration":76657,"SoundDuration":76657,"Delta":174927378},{"NoteNumber":79,"Velocity":93,"Duration":76657,"SoundDuration":76657,"Delta":175002119},{"NoteNumber":40,"Velocity":77,"Duration":114986,"SoundDuration":114986,"Delta":175041406},{"NoteNumber":76,"Velocity":82,"Duration":76657,"SoundDuration":76657,"Delta":175079735},{"NoteNumber":78,"Velocity":93,"Duration":76657,"SoundDuration":76657,"Delta":175154476},{"NoteNumber":28,"Velocity":101,"Duration":114986,"SoundDuration":114986,"Delta":175156393},{"NoteNumber":72,"Velocity":82,"Duration":76657,"SoundDuration":76657,"Delta":175234009},{"NoteNumber":40,"Velocity":77,"Duration":114986,"SoundDuration":114986,"Delta":175271379},{"NoteNumber":77,"Velocity":93,"Duration":76657,"SoundDuration":76657,"Delta":175308750},{"NoteNumber":48,"Velocity":77,"Duration":114986,"SoundDuration":114986,"Delta":175384449},{"NoteNumber":72,"Velocity":82,"Duration":76657,"SoundDuration":76657,"Delta":175387324},{"NoteNumber":76,"Velocity":93,"Duration":76657,"SoundDuration":76657,"Delta":175463024},{"NoteNumber":40,"Velocity":77,"Duration":114986,"SoundDuration":114986,"Delta":175500394},{"NoteNumber":69,"Velocity":82,"Duration":76657,"SoundDuration":76657,"Delta":175540639},{"NoteNumber":75,"Velocity":93,"Duration":76657,"SoundDuration":76657,"Delta":175618255},{"NoteNumber":33,"Velocity":96,"Duration":114986,"SoundDuration":114986,"Delta":175618255},{"NoteNumber":72,"Velocity":82,"Duration":76657,"SoundDuration":76657,"Delta":175694913},{"NoteNumber":40,"Velocity":77,"Duration":114986,"SoundDuration":114986,"Delta":175729409},{"NoteNumber":74,"Velocity":93,"Duration":76657,"SoundDuration":76657,"Delta":175771571},{"NoteNumber":69,"Velocity":82,"Duration":76657,"SoundDuration":76657,"Delta":175847270},{"NoteNumber":48,"Velocity":77,"Duration":114986,"SoundDuration":114986,"Delta":175849187},{"NoteNumber":73,"Velocity":93,"Duration":76657,"SoundDuration":76657,"Delta":175921053},{"NoteNumber":40,"Velocity":77,"Duration":114986,"SoundDuration":114986,"Delta":175961298},{"NoteNumber":69,"Velocity":82,"Duration":76657,"SoundDuration":76657,"Delta":176002502},{"NoteNumber":48,"Velocity":83,"Duration":114986,"SoundDuration":114986,"Delta":176077243},{"NoteNumber":72,"Velocity":93,"Duration":76657,"SoundDuration":76657,"Delta":176078201},{"NoteNumber":64,"Velocity":80,"Duration":76657,"SoundDuration":76657,"Delta":176151026},{"NoteNumber":40,"Velocity":73,"Duration":114986,"SoundDuration":114986,"Delta":176191271},{"NoteNumber":71,"Velocity":92,"Duration":76657,"SoundDuration":76657,"Delta":176228642},{"NoteNumber":64,"Velocity":79,"Duration":76657,"SoundDuration":76657,"Delta":176306258},{"NoteNumber":48,"Velocity":71,"Duration":114986,"SoundDuration":114986,"Delta":176308174},{"NoteNumber":70,"Velocity":90,"Duration":76657,"SoundDuration":76657,"Delta":176380999},{"NoteNumber":40,"Velocity":70,"Duration":114986,"SoundDuration":114986,"Delta":176422203},{"NoteNumber":60,"Velocity":79,"Duration":76657,"SoundDuration":76657,"Delta":176462448},{"NoteNumber":69,"Velocity":89,"Duration":76657,"SoundDuration":76657,"Delta":176536231},{"NoteNumber":33,"Velocity":78,"Duration":114986,"SoundDuration":114986,"Delta":176537189},{"NoteNumber":64,"Velocity":77,"Duration":76657,"SoundDuration":76657,"Delta":176614805},{"NoteNumber":40,"Velocity":68,"Duration":114986,"SoundDuration":114986,"Delta":176651217},{"NoteNumber":68,"Velocity":88,"Duration":76657,"SoundDuration":76657,"Delta":176690504},{"NoteNumber":60,"Velocity":77,"Duration":76657,"SoundDuration":76657,"Delta":176768120},{"NoteNumber":48,"Velocity":67,"Duration":114986,"SoundDuration":114986,"Delta":176768120},{"NoteNumber":67,"Velocity":86,"Duration":76657,"SoundDuration":76657,"Delta":176843820},{"NoteNumber":40,"Velocity":66,"Duration":114986,"SoundDuration":114986,"Delta":176884065},{"NoteNumber":64,"Velocity":75,"Duration":76657,"SoundDuration":76657,"Delta":176922394},{"NoteNumber":66,"Velocity":85,"Duration":76657,"SoundDuration":76657,"Delta":176995219},{"NoteNumber":33,"Velocity":72,"Duration":114986,"SoundDuration":114986,"Delta":176997135},{"NoteNumber":60,"Velocity":74,"Duration":76657,"SoundDuration":76657,"Delta":177075709},{"NoteNumber":40,"Velocity":63,"Duration":114986,"SoundDuration":114986,"Delta":177113080},{"NoteNumber":65,"Velocity":84,"Duration":76657,"SoundDuration":76657,"Delta":177152367},{"NoteNumber":60,"Velocity":73,"Duration":76657,"SoundDuration":76657,"Delta":177226150},{"NoteNumber":48,"Velocity":62,"Duration":114986,"SoundDuration":114986,"Delta":177228066},{"NoteNumber":64,"Velocity":81,"Duration":76657,"SoundDuration":76657,"Delta":177300891},{"NoteNumber":40,"Velocity":61,"Duration":114986,"SoundDuration":114986,"Delta":177344011},{"NoteNumber":57,"Velocity":72,"Duration":76657,"SoundDuration":76657,"Delta":177377549},{"NoteNumber":33,"Velocity":69,"Duration":114986,"SoundDuration":114986,"Delta":177455165},{"NoteNumber":63,"Velocity":79,"Duration":76657,"SoundDuration":76657,"Delta":177458998},{"NoteNumber":60,"Velocity":70,"Duration":76657,"SoundDuration":76657,"Delta":177535655},{"NoteNumber":40,"Velocity":60,"Duration":114986,"SoundDuration":114986,"Delta":177572068},{"NoteNumber":62,"Velocity":78,"Duration":76657,"SoundDuration":76657,"Delta":177610396},{"NoteNumber":57,"Velocity":68,"Duration":76657,"SoundDuration":76657,"Delta":177684179},{"NoteNumber":48,"Velocity":59,"Duration":114986,"SoundDuration":114986,"Delta":177688971},{"NoteNumber":61,"Velocity":75,"Duration":76657,"SoundDuration":76657,"Delta":177760837},{"NoteNumber":40,"Velocity":58,"Duration":114986,"SoundDuration":114986,"Delta":177802999},{"NoteNumber":57,"Velocity":67,"Duration":76657,"SoundDuration":76657,"Delta":177838453},{"NoteNumber":60,"Velocity":74,"Duration":76657,"SoundDuration":76657,"Delta":177916069},{"NoteNumber":33,"Velocity":63,"Duration":114986,"SoundDuration":114986,"Delta":177916069},{"NoteNumber":52,"Velocity":63,"Duration":76657,"SoundDuration":76657,"Delta":177992727},{"NoteNumber":40,"Velocity":52,"Duration":114986,"SoundDuration":114986,"Delta":178032972},{"NoteNumber":59,"Velocity":72,"Duration":76657,"SoundDuration":76657,"Delta":178071301},{"NoteNumber":48,"Velocity":51,"Duration":114986,"SoundDuration":114986,"Delta":178147000},{"NoteNumber":52,"Velocity":60,"Duration":76657,"SoundDuration":76657,"Delta":178147958},{"NoteNumber":58,"Velocity":68,"Duration":76657,"SoundDuration":76657,"Delta":178223658},{"NoteNumber":40,"Velocity":50,"Duration":114986,"SoundDuration":114986,"Delta":178261028},{"NoteNumber":48,"Velocity":58,"Duration":76699,"SoundDuration":76699,"Delta":178302232},{"NoteNumber":57,"Velocity":100,"Duration":77778,"SoundDuration":77778,"Delta":178376987},{"NoteNumber":45,"Velocity":89,"Duration":108890,"SoundDuration":108890,"Delta":178378932},{"NoteNumber":52,"Velocity":89,"Duration":77778,"SoundDuration":77778,"Delta":178456710},{"NoteNumber":56,"Velocity":100,"Duration":77778,"SoundDuration":77778,"Delta":178530600},{"NoteNumber":44,"Velocity":84,"Duration":108890,"SoundDuration":108890,"Delta":178532544},{"NoteNumber":48,"Velocity":91,"Duration":77778,"SoundDuration":77778,"Delta":178608379},{"NoteNumber":55,"Velocity":100,"Duration":77778,"SoundDuration":77778,"Delta":178686157},{"NoteNumber":43,"Velocity":88,"Duration":108890,"SoundDuration":108890,"Delta":178686157},{"NoteNumber":52,"Velocity":89,"Duration":77778,"SoundDuration":77778,"Delta":178764908},{"NoteNumber":54,"Velocity":100,"Duration":77778,"SoundDuration":77778,"Delta":178841715},{"NoteNumber":42,"Velocity":89,"Duration":108890,"SoundDuration":108890,"Delta":178843659},{"NoteNumber":48,"Velocity":90,"Duration":77917,"SoundDuration":77917,"Delta":178919493},{"NoteNumber":41,"Velocity":83,"Duration":109561,"SoundDuration":109561,"Delta":179000339},{"NoteNumber":53,"Velocity":100,"Duration":78221,"SoundDuration":78221,"Delta":179001314},{"NoteNumber":48,"Velocity":90,"Duration":78509,"SoundDuration":78509,"Delta":179078557},{"NoteNumber":40,"Velocity":84,"Duration":110229,"SoundDuration":110229,"Delta":179156083},{"NoteNumber":52,"Velocity":100,"Duration":78658,"SoundDuration":78658,"Delta":179158050},{"NoteNumber":45,"Velocity":90,"Duration":78945,"SoundDuration":78945,"Delta":179233748},{"NoteNumber":51,"Velocity":100,"Duration":79239,"SoundDuration":79239,"Delta":179312693},{"NoteNumber":39,"Velocity":89,"Duration":111064,"SoundDuration":111064,"Delta":179315664},{"NoteNumber":48,"Velocity":88,"Duration":79535,"SoundDuration":79535,"Delta":179394915},{"NoteNumber":50,"Velocity":100,"Duration":79674,"SoundDuration":79674,"Delta":179469479},{"NoteNumber":38,"Velocity":84,"Duration":111616,"SoundDuration":111616,"Delta":179472462},{"NoteNumber":45,"Velocity":88,"Duration":79988,"SoundDuration":79988,"Delta":179553145},{"NoteNumber":49,"Velocity":100,"Duration":80288,"SoundDuration":80288,"Delta":179630129},{"NoteNumber":37,"Velocity":84,"Duration":112468,"SoundDuration":112468,"Delta":179630129},{"NoteNumber":45,"Velocity":88,"Duration":80454,"SoundDuration":80454,"Delta":179712429},{"NoteNumber":48,"Velocity":100,"Duration":80739,"SoundDuration":80739,"Delta":179790868},{"NoteNumber":36,"Velocity":89,"Duration":113172,"SoundDuration":113172,"Delta":179792883},{"NoteNumber":40,"Velocity":88,"Duration":81071,"SoundDuration":81071,"Delta":179874643},{"NoteNumber":47,"Velocity":100,"Duration":81369,"SoundDuration":81369,"Delta":179952666},{"NoteNumber":35,"Velocity":83,"Duration":113919,"SoundDuration":113919,"Delta":179952666},{"NoteNumber":40,"Velocity":88,"Duration":81522,"SoundDuration":81522,"Delta":180034036},{"NoteNumber":46,"Velocity":100,"Duration":81852,"SoundDuration":81852,"Delta":180119643},{"NoteNumber":34,"Velocity":83,"Duration":114652,"SoundDuration":114652,"Delta":180119643},{"NoteNumber":40,"Velocity":88,"Duration":82162,"SoundDuration":82162,"Delta":180198420},{"NoteNumber":45,"Velocity":121,"Duration":480807,"SoundDuration":480807,"Delta":180280583},{"NoteNumber":33,"Velocity":104,"Duration":480807,"SoundDuration":480807,"Delta":180280583},{"NoteNumber":57,"Velocity":85,"Duration":360605,"SoundDuration":360605,"Delta":180761391},{"NoteNumber":60,"Velocity":85,"Duration":360605,"SoundDuration":360605,"Delta":180761391},{"NoteNumber":69,"Velocity":101,"Duration":360605,"SoundDuration":360605,"Delta":180761391},{"NoteNumber":64,"Velocity":101,"Duration":360605,"SoundDuration":360605,"Delta":180761391},{"NoteNumber":33,"Velocity":76,"Duration":360605,"SoundDuration":360605,"Delta":180761391},{"NoteNumber":40,"Velocity":90,"Duration":360605,"SoundDuration":360605,"Delta":180761391},{"NoteNumber":45,"Velocity":90,"Duration":360605,"SoundDuration":360605,"Delta":180761391},{"NoteNumber":57,"Velocity":81,"Duration":120202,"SoundDuration":120202,"Delta":181121997},{"NoteNumber":64,"Velocity":96,"Duration":120202,"SoundDuration":120202,"Delta":181121997},{"NoteNumber":60,"Velocity":81,"Duration":120202,"SoundDuration":120202,"Delta":181121997},{"NoteNumber":69,"Velocity":96,"Duration":120202,"SoundDuration":120202,"Delta":181121997},{"NoteNumber":33,"Velocity":73,"Duration":120202,"SoundDuration":120202,"Delta":181121997},{"NoteNumber":40,"Velocity":86,"Duration":120202,"SoundDuration":120202,"Delta":181121997},{"NoteNumber":45,"Velocity":86,"Duration":120202,"SoundDuration":120202,"Delta":181121997},{"NoteNumber":57,"Velocity":85,"Duration":480807,"SoundDuration":480807,"Delta":181242199},{"NoteNumber":64,"Velocity":101,"Duration":480807,"SoundDuration":480807,"Delta":181242199},{"NoteNumber":60,"Velocity":85,"Duration":480807,"SoundDuration":480807,"Delta":181242199},{"NoteNumber":69,"Velocity":101,"Duration":480807,"SoundDuration":480807,"Delta":181242199},{"NoteNumber":33,"Velocity":76,"Duration":480807,"SoundDuration":480807,"Delta":181242199},{"NoteNumber":40,"Velocity":90,"Duration":480807,"SoundDuration":480807,"Delta":181242199},{"NoteNumber":45,"Velocity":90,"Duration":480807,"SoundDuration":480807,"Delta":181242199},{"NoteNumber":57,"Velocity":82,"Duration":480808,"SoundDuration":480808,"Delta":181723007},{"NoteNumber":65,"Velocity":97,"Duration":480808,"SoundDuration":480808,"Delta":181723007},{"NoteNumber":62,"Velocity":82,"Duration":480808,"SoundDuration":480808,"Delta":181723007},{"NoteNumber":69,"Velocity":97,"Duration":480808,"SoundDuration":480808,"Delta":181723007},{"NoteNumber":33,"Velocity":74,"Duration":480808,"SoundDuration":480808,"Delta":181723007},{"NoteNumber":38,"Velocity":88,"Duration":480808,"SoundDuration":480808,"Delta":181723007},{"NoteNumber":45,"Velocity":88,"Duration":480808,"SoundDuration":480808,"Delta":181723007},{"NoteNumber":57,"Velocity":85,"Duration":961615,"SoundDuration":961615,"Delta":182203815},{"NoteNumber":64,"Velocity":101,"Duration":961615,"SoundDuration":961615,"Delta":182203815},{"NoteNumber":60,"Velocity":85,"Duration":961615,"SoundDuration":961615,"Delta":182203815},{"NoteNumber":69,"Velocity":101,"Duration":961615,"SoundDuration":961615,"Delta":182203815},{"NoteNumber":33,"Velocity":76,"Duration":961615,"SoundDuration":961615,"Delta":182203815},{"NoteNumber":40,"Velocity":90,"Duration":961615,"SoundDuration":961615,"Delta":182203815},{"NoteNumber":45,"Velocity":90,"Duration":961615,"SoundDuration":961615,"Delta":182203815},{"NoteNumber":57,"Velocity":84,"Duration":961615,"SoundDuration":961615,"Delta":183165431},{"NoteNumber":62,"Velocity":99,"Duration":961615,"SoundDuration":961615,"Delta":183165431},{"NoteNumber":59,"Velocity":84,"Duration":961615,"SoundDuration":961615,"Delta":183165431},{"NoteNumber":69,"Velocity":99,"Duration":961615,"SoundDuration":961615,"Delta":183165431},{"NoteNumber":33,"Velocity":74,"Duration":961615,"SoundDuration":961615,"Delta":183165431},{"NoteNumber":41,"Velocity":88,"Duration":961615,"SoundDuration":961615,"Delta":183165431},{"NoteNumber":45,"Velocity":88,"Duration":961615,"SoundDuration":961615,"Delta":183165431},{"NoteNumber":57,"Velocity":85,"Duration":1312565,"SoundDuration":1312565,"Delta":184127047},{"NoteNumber":64,"Velocity":101,"Duration":1594579,"SoundDuration":1594579,"Delta":184127047},{"NoteNumber":60,"Velocity":85,"Duration":1454181,"SoundDuration":1454181,"Delta":184127047},{"NoteNumber":69,"Velocity":101,"Duration":1808584,"SoundDuration":1808584,"Delta":184127047},{"NoteNumber":33,"Velocity":76,"Duration":797486,"SoundDuration":797486,"Delta":184127047},{"NoteNumber":40,"Velocity":90,"Duration":1096541,"SoundDuration":1096541,"Delta":184127047},{"NoteNumber":45,"Velocity":90,"Duration":1309581,"SoundDuration":1309581,"Delta":184127047},{"NoteNumber":45,"Velocity":70,"Duration":92406,"SoundDuration":92406,"Delta":184831490},{"NoteNumber":33,"Velocity":68,"Duration":1993128,"SoundDuration":1993128,"Delta":184832225},{"NoteNumber":47,"Velocity":72,"Duration":91441,"SoundDuration":91441,"Delta":184907961},{"NoteNumber":35,"Velocity":68,"Duration":91441,"SoundDuration":91441,"Delta":184907961},{"NoteNumber":36,"Velocity":69,"Duration":90562,"SoundDuration":90562,"Delta":184984884},{"NoteNumber":48,"Velocity":72,"Duration":90541,"SoundDuration":90541,"Delta":184986781},{"NoteNumber":38,"Velocity":69,"Duration":89176,"SoundDuration":89176,"Delta":185061695},{"NoteNumber":50,"Velocity":73,"Duration":89152,"SoundDuration":89152,"Delta":185062320},{"NoteNumber":52,"Velocity":74,"Duration":86538,"SoundDuration":86538,"Delta":185136449},{"NoteNumber":40,"Velocity":70,"Duration":1688303,"SoundDuration":1688303,"Delta":185137050},{"NoteNumber":42,"Velocity":72,"Duration":86397,"SoundDuration":86397,"Delta":185207963},{"NoteNumber":54,"Velocity":74,"Duration":86396,"SoundDuration":86396,"Delta":185208564},{"NoteNumber":44,"Velocity":72,"Duration":86203,"SoundDuration":86203,"Delta":185279970},{"NoteNumber":56,"Velocity":74,"Duration":86199,"SoundDuration":86199,"Delta":185281769},{"NoteNumber":45,"Velocity":73,"Duration":1474734,"SoundDuration":1474734,"Delta":185350619},{"NoteNumber":57,"Velocity":74,"Duration":1471743,"SoundDuration":1471743,"Delta":185353610},{"NoteNumber":59,"Velocity":75,"Duration":85811,"SoundDuration":85811,"Delta":185424093},{"NoteNumber":47,"Velocity":73,"Duration":85810,"SoundDuration":85810,"Delta":185424690},{"NoteNumber":48,"Velocity":74,"Duration":85617,"SoundDuration":85617,"Delta":185495016},{"NoteNumber":60,"Velocity":78,"Duration":1329741,"SoundDuration":1329741,"Delta":185495611},{"NoteNumber":50,"Velocity":74,"Duration":85429,"SoundDuration":85429,"Delta":185565779},{"NoteNumber":62,"Velocity":78,"Duration":85427,"SoundDuration":85427,"Delta":185566967},{"NoteNumber":64,"Velocity":79,"Duration":1188966,"SoundDuration":1188966,"Delta":185636387},{"NoteNumber":52,"Velocity":74,"Duration":85232,"SoundDuration":85232,"Delta":185639351},{"NoteNumber":54,"Velocity":75,"Duration":85097,"SoundDuration":85097,"Delta":185709204},{"NoteNumber":66,"Velocity":80,"Duration":85096,"SoundDuration":85096,"Delta":185709795},{"NoteNumber":56,"Velocity":75,"Duration":84910,"SoundDuration":84910,"Delta":185780135},{"NoteNumber":68,"Velocity":80,"Duration":84908,"SoundDuration":84908,"Delta":185781316},{"NoteNumber":69,"Velocity":81,"Duration":974441,"SoundDuration":974441,"Delta":185850911},{"NoteNumber":57,"Velocity":78,"Duration":84716,"SoundDuration":84716,"Delta":185852089},{"NoteNumber":71,"Velocity":81,"Duration":84532,"SoundDuration":84532,"Delta":185920354},{"NoteNumber":59,"Velocity":78,"Duration":84529,"SoundDuration":84529,"Delta":185921529},{"NoteNumber":72,"Velocity":81,"Duration":84350,"SoundDuration":84350,"Delta":185990228},{"NoteNumber":60,"Velocity":79,"Duration":84348,"SoundDuration":84348,"Delta":185990814},{"NoteNumber":62,"Velocity":80,"Duration":84159,"SoundDuration":84159,"Delta":186061123},{"NoteNumber":74,"Velocity":82,"Duration":84154,"SoundDuration":84154,"Delta":186063463},{"NoteNumber":64,"Velocity":80,"Duration":83974,"SoundDuration":83974,"Delta":186131273},{"NoteNumber":76,"Velocity":84,"Duration":83970,"SoundDuration":83970,"Delta":186133024},{"NoteNumber":78,"Velocity":84,"Duration":83792,"SoundDuration":83792,"Delta":186200686},{"NoteNumber":66,"Velocity":81,"Duration":83788,"SoundDuration":83788,"Delta":186202434},{"NoteNumber":80,"Velocity":85,"Duration":83657,"SoundDuration":83657,"Delta":186270531},{"NoteNumber":68,"Velocity":81,"Duration":83653,"SoundDuration":83653,"Delta":186272275},{"NoteNumber":69,"Velocity":81,"Duration":83468,"SoundDuration":83468,"Delta":186342012},{"NoteNumber":81,"Velocity":85,"Duration":83465,"SoundDuration":83465,"Delta":186343171},{"NoteNumber":83,"Velocity":86,"Duration":83288,"SoundDuration":83288,"Delta":186411015},{"NoteNumber":71,"Velocity":81,"Duration":83285,"SoundDuration":83285,"Delta":186412172},{"NoteNumber":72,"Velocity":82,"Duration":83110,"SoundDuration":83110,"Delta":186480446},{"NoteNumber":84,"Velocity":88,"Duration":83107,"SoundDuration":83107,"Delta":186481601},{"NoteNumber":86,"Velocity":88,"Duration":82931,"SoundDuration":82931,"Delta":186548575},{"NoteNumber":74,"Velocity":84,"Duration":82925,"SoundDuration":82925,"Delta":186550306},{"NoteNumber":88,"Velocity":89,"Duration":82746,"SoundDuration":82746,"Delta":186618285},{"NoteNumber":76,"Velocity":84,"Duration":82746,"SoundDuration":82746,"Delta":186618285},{"NoteNumber":90,"Velocity":90,"Duration":82571,"SoundDuration":82571,"Delta":186686690},{"NoteNumber":78,"Velocity":85,"Duration":82566,"SoundDuration":82566,"Delta":186687839},{"NoteNumber":92,"Velocity":90,"Duration":82396,"SoundDuration":82396,"Delta":186755522},{"NoteNumber":80,"Velocity":85,"Duration":82391,"SoundDuration":82391,"Delta":186756669},{"NoteNumber":93,"Velocity":97,"Duration":152150,"SoundDuration":152150,"Delta":186825353},{"NoteNumber":81,"Velocity":93,"Duration":152150,"SoundDuration":152150,"Delta":186825353}],"license":{"name":"Creative Commons Attribution-ShareAlike 3.0 Germany","url":"http://creativecommons.org/licenses/by-sa/3.0/de/deed.en","text":"The MIDI, audio (MP3, OGG) and video files of Bernd Krueger are licensed under the cc-by-sa Germany License. This means that you can use and adapt the files, as long as you attribute the copyright holder.\n\nName: Bernd Krueger\nSource: http://www.piano-midi.de\n\nThe distribution or public playback of the files is only allowed under identical license conditions.\n\nThe scores are open source.","attribution":"MIDI files by Bernd Krueger (piano-midi.de)"}}