{"title":"Trauermarsch","artist":"Chopin","durationMs":446865,"midiSha256":"697d880487b9533b4a3cef43086a9d6a2ec374557863f79e48eb735b98bc2440","midiObject":[{"NoteNumber":53,"Velocity":34,"Duration":1044386,"SoundDuration":1044386,"Delta":0},{"NoteNumber":58,"Velocity":40,"Duration":1044386,"SoundDuration":1044386,"Delta":0},{"NoteNumber":34,"Velocity":28,"Duration":1044386,"SoundDuration":1044386,"Delta":0},{"NoteNumber":41,"Velocity":28,"Duration":1044386,"SoundDuration":1044386,"Delta":0},{"NoteNumber":46,"Velocity":34,"Duration":1044386,"SoundDuration":1044386,"Delta":0},{"NoteNumber":54,"Velocity":34,"Duration":1083032,"SoundDuration":1083032,"Delta":1044386},{"NoteNumber":58,"Velocity":40,"Duration":812273,"SoundDuration":812273,"Delta":1044386},{"NoteNumber":37,"Velocity":25,"Duration":1083032,"SoundDuration":1083032,"Delta":1044386},{"NoteNumber":42,"Velocity":25,"Duration":1083032,"SoundDuration":1083032,"Delta":1044386},{"NoteNumber":49,"Velocity":30,"Duration":1083032,"SoundDuration":1083032,"Delta":1044386},{"NoteNumber":58,"Velocity":36,"Duration":270758,"SoundDuration":270758,"Delta":1856660},{"NoteNumber":53,"Velocity":34,"Duration":1075076,"SoundDuration":1075076,"Delta":2127418},{"NoteNumber":58,"Velocity":40,"Duration":2158108,"SoundDuration":2158108,"Delta":2127418},{"NoteNumber":34,"Velocity":28,"Duration":1075076,"SoundDuration":1075076,"Delta":2127418},{"NoteNumber":41,"Velocity":28,"Duration":1075076,"SoundDuration":1075076,"Delta":2127418},{"NoteNumber":46,"Velocity":34,"Duration":1075076,"SoundDuration":1075076,"Delta":2127418},{"NoteNumber":54,"Velocity":28,"Duration":1083031,"SoundDuration":1083031,"Delta":3202494},{"NoteNumber":37,"Velocity":23,"Duration":1083031,"SoundDuration":1083031,"Delta":3202494},{"NoteNumber":42,"Velocity":23,"Duration":1083031,"SoundDuration":1083031,"Delta":3202494},{"NoteNumber":49,"Velocity":28,"Duration":1083031,"SoundDuration":1083031,"Delta":3202494},{"NoteNumber":53,"Velocity":34,"Duration":1044386,"SoundDuration":1044386,"Delta":4285526},{"NoteNumber":58,"Velocity":40,"Duration":1044386,"SoundDuration":1044386,"Delta":4285526},{"NoteNumber":34,"Velocity":28,"Duration":1044386,"SoundDuration":1044386,"Delta":4285526},{"NoteNumber":41,"Velocity":28,"Duration":1044386,"SoundDuration":1044386,"Delta":4285526},{"NoteNumber":46,"Velocity":34,"Duration":1044386,"SoundDuration":1044386,"Delta":4285526},{"NoteNumber":54,"Velocity":34,"Duration":1091107,"SoundDuration":1091107,"Delta":5329912},{"NoteNumber":58,"Velocity":40,"Duration":818330,"SoundDuration":818330,"Delta":5329912},{"NoteNumber":37,"Velocity":25,"Duration":1091107,"SoundDuration":1091107,"Delta":5329912},{"NoteNumber":42,"Velocity":25,"Duration":1091107,"SoundDuration":1091107,"Delta":5329912},{"NoteNumber":49,"Velocity":30,"Duration":1091107,"SoundDuration":1091107,"Delta":5329912},{"NoteNumber":58,"Velocity":36,"Duration":272776,"SoundDuration":272776,"Delta":6148242},{"NoteNumber":53,"Velocity":34,"Duration":1075076,"SoundDuration":1075076,"Delta":6421019},{"NoteNumber":58,"Velocity":40,"Duration":2150151,"SoundDuration":2150151,"Delta":6421019},{"NoteNumber":34,"Velocity":28,"Duration":1075076,"SoundDuration":1075076,"Delta":6421019},{"NoteNumber":41,"Velocity":28,"Duration":1075076,"SoundDuration":1075076,"Delta":6421019},{"NoteNumber":46,"Velocity":34,"Duration":1075076,"SoundDuration":1075076,"Delta":6421019},{"NoteNumber":54,"Velocity":28,"Duration":1075075,"SoundDuration":1075075,"Delta":7496095},{"NoteNumber":37,"Velocity":22,"Duration":1075075,"SoundDuration":1075075,"Delta":7496095},{"NoteNumber":42,"Velocity":22,"Duration":1075075,"SoundDuration":1075075,"Delta":7496095},{"NoteNumber":49,"Velocity":27,"Duration":1075075,"SoundDuration":1075075,"Delta":7496095},{"NoteNumber":53,"Velocity":34,"Duration":1044385,"SoundDuration":1044385,"Delta":8571171},{"NoteNumber":58,"Velocity":40,"Duration":1044385,"SoundDuration":1044385,"Delta":8571171},{"NoteNumber":34,"Velocity":28,"Duration":1044385,"SoundDuration":1044385,"Delta":8571171},{"NoteNumber":41,"Velocity":28,"Duration":1044385,"SoundDuration":1044385,"Delta":8571171},{"NoteNumber":46,"Velocity":34,"Duration":1044385,"SoundDuration":1044385,"Delta":8571171},{"NoteNumber":54,"Velocity":34,"Duration":1075075,"SoundDuration":1075075,"Delta":9615556},{"NoteNumber":58,"Velocity":40,"Duration":806307,"SoundDuration":806307,"Delta":9615556},{"NoteNumber":37,"Velocity":25,"Duration":1075075,"SoundDuration":1075075,"Delta":9615556},{"NoteNumber":42,"Velocity":30,"Duration":1075075,"SoundDuration":1075075,"Delta":9615556},{"NoteNumber":49,"Velocity":30,"Duration":1075075,"SoundDuration":1075075,"Delta":9615556},{"NoteNumber":58,"Velocity":36,"Duration":241892,"SoundDuration":241892,"Delta":10421864},{"NoteNumber":53,"Velocity":34,"Duration":1067235,"SoundDuration":1067235,"Delta":10690632},{"NoteNumber":58,"Velocity":40,"Duration":1067235,"SoundDuration":1067235,"Delta":10690632},{"NoteNumber":34,"Velocity":28,"Duration":1067235,"SoundDuration":1067235,"Delta":10690632},{"NoteNumber":41,"Velocity":28,"Duration":1067235,"SoundDuration":1067235,"Delta":10690632},{"NoteNumber":46,"Velocity":34,"Duration":1067235,"SoundDuration":1067235,"Delta":10690632},{"NoteNumber":61,"Velocity":49,"Duration":783289,"SoundDuration":783289,"Delta":11757868},{"NoteNumber":54,"Velocity":39,"Duration":1044385,"SoundDuration":1044385,"Delta":11757868},{"NoteNumber":37,"Velocity":22,"Duration":1044385,"SoundDuration":1044385,"Delta":11757868},{"NoteNumber":42,"Velocity":27,"Duration":1044385,"SoundDuration":1044385,"Delta":11757868},{"NoteNumber":49,"Velocity":27,"Duration":1044385,"SoundDuration":1044385,"Delta":11757868},{"NoteNumber":60,"Velocity":45,"Duration":234986,"SoundDuration":234986,"Delta":12541158},{"NoteNumber":60,"Velocity":48,"Duration":783289,"SoundDuration":783289,"Delta":12802254},{"NoteNumber":53,"Velocity":39,"Duration":1044386,"SoundDuration":1044386,"Delta":12802254},{"NoteNumber":34,"Velocity":28,"Duration":1044386,"SoundDuration":1044386,"Delta":12802254},{"NoteNumber":41,"Velocity":28,"Duration":1044386,"SoundDuration":1044386,"Delta":12802254},{"NoteNumber":46,"Velocity":34,"Duration":1044386,"SoundDuration":1044386,"Delta":12802254},{"NoteNumber":58,"Velocity":42,"Duration":234986,"SoundDuration":234986,"Delta":13585544},{"NoteNumber":54,"Velocity":37,"Duration":1059509,"SoundDuration":1059509,"Delta":13846640},{"NoteNumber":58,"Velocity":44,"Duration":794631,"SoundDuration":794631,"Delta":13846640},{"NoteNumber":37,"Velocity":25,"Duration":1059509,"SoundDuration":1059509,"Delta":13846640},{"NoteNumber":42,"Velocity":25,"Duration":1059509,"SoundDuration":1059509,"Delta":13846640},{"NoteNumber":49,"Velocity":30,"Duration":1059509,"SoundDuration":1059509,"Delta":13846640},{"NoteNumber":58,"Velocity":36,"Duration":238389,"SoundDuration":238389,"Delta":14641272},{"NoteNumber":53,"Velocity":34,"Duration":1075076,"SoundDuration":1075076,"Delta":14906149},{"NoteNumber":58,"Velocity":40,"Duration":2150152,"SoundDuration":2150152,"Delta":14906149},{"NoteNumber":34,"Velocity":28,"Duration":1075076,"SoundDuration":1075076,"Delta":14906149},{"NoteNumber":41,"Velocity":28,"Duration":1075076,"SoundDuration":1075076,"Delta":14906149},{"NoteNumber":46,"Velocity":34,"Duration":1075076,"SoundDuration":1075076,"Delta":14906149},{"NoteNumber":54,"Velocity":28,"Duration":1075075,"SoundDuration":1075075,"Delta":15981226},{"NoteNumber":37,"Velocity":22,"Duration":1075075,"SoundDuration":1075075,"Delta":15981226},{"NoteNumber":42,"Velocity":22,"Duration":1075075,"SoundDuration":1075075,"Delta":15981226},{"NoteNumber":49,"Velocity":27,"Duration":1075075,"SoundDuration":1075075,"Delta":15981226},{"NoteNumber":58,"Velocity":42,"Duration":1044385,"SoundDuration":1044385,"Delta":17056302},{"NoteNumber":53,"Velocity":42,"Duration":1044385,"SoundDuration":1044385,"Delta":17056302},{"NoteNumber":61,"Velocity":50,"Duration":1044385,"SoundDuration":1044385,"Delta":17056302},{"NoteNumber":34,"Velocity":35,"Duration":1044385,"SoundDuration":1044385,"Delta":17056302},{"NoteNumber":41,"Velocity":35,"Duration":1044385,"SoundDuration":1044385,"Delta":17056302},{"NoteNumber":46,"Velocity":42,"Duration":1044385,"SoundDuration":1044385,"Delta":17056302},{"NoteNumber":58,"Velocity":42,"Duration":1075075,"SoundDuration":1075075,"Delta":18100687},{"NoteNumber":54,"Velocity":42,"Duration":1075075,"SoundDuration":1075075,"Delta":18100687},{"NoteNumber":61,"Velocity":50,"Duration":806307,"SoundDuration":806307,"Delta":18100687},{"NoteNumber":37,"Velocity":30,"Duration":1075075,"SoundDuration":1075075,"Delta":18100687},{"NoteNumber":42,"Velocity":37,"Duration":1075075,"SoundDuration":1075075,"Delta":18100687},{"NoteNumber":49,"Velocity":37,"Duration":1075075,"SoundDuration":1075075,"Delta":18100687},{"NoteNumber":61,"Velocity":45,"Duration":241892,"SoundDuration":241892,"Delta":18906995},{"NoteNumber":58,"Velocity":42,"Duration":1036985,"SoundDuration":1036985,"Delta":19175763},{"NoteNumber":53,"Velocity":42,"Duration":1036985,"SoundDuration":1036985,"Delta":19175763},{"NoteNumber":61,"Velocity":50,"Duration":1036985,"SoundDuration":1036985,"Delta":19175763},{"NoteNumber":34,"Velocity":35,"Duration":1036985,"SoundDuration":1036985,"Delta":19175763},{"NoteNumber":41,"Velocity":35,"Duration":1036985,"SoundDuration":1036985,"Delta":19175763},{"NoteNumber":46,"Velocity":42,"Duration":1036985,"SoundDuration":1036985,"Delta":19175763},{"NoteNumber":65,"Velocity":59,"Duration":803355,"SoundDuration":803355,"Delta":20212749},{"NoteNumber":61,"Velocity":52,"Duration":803355,"SoundDuration":803355,"Delta":20212749},{"NoteNumber":54,"Velocity":48,"Duration":1071140,"SoundDuration":1071140,"Delta":20212749},{"NoteNumber":37,"Velocity":27,"Duration":1071140,"SoundDuration":1071140,"Delta":20212749},{"NoteNumber":42,"Velocity":34,"Duration":1071140,"SoundDuration":1071140,"Delta":20212749},{"NoteNumber":49,"Velocity":34,"Duration":1071140,"SoundDuration":1071140,"Delta":20212749},{"NoteNumber":63,"Velocity":53,"Duration":137236,"SoundDuration":137236,"Delta":21016105},{"NoteNumber":60,"Velocity":47,"Duration":137236,"SoundDuration":137236,"Delta":21016105},{"NoteNumber":65,"Velocity":48,"Duration":130548,"SoundDuration":130548,"Delta":21153342},{"NoteNumber":63,"Velocity":57,"Duration":783289,"SoundDuration":783289,"Delta":21283890},{"NoteNumber":60,"Velocity":51,"Duration":783289,"SoundDuration":783289,"Delta":21283890},{"NoteNumber":53,"Velocity":48,"Duration":1044385,"SoundDuration":1044385,"Delta":21283890},{"NoteNumber":34,"Velocity":35,"Duration":1044385,"SoundDuration":1044385,"Delta":21283890},{"NoteNumber":41,"Velocity":35,"Duration":1044385,"SoundDuration":1044385,"Delta":21283890},{"NoteNumber":46,"Velocity":42,"Duration":1044385,"SoundDuration":1044385,"Delta":21283890},{"NoteNumber":61,"Velocity":50,"Duration":234986,"SoundDuration":234986,"Delta":22067179},{"NoteNumber":58,"Velocity":45,"Duration":234986,"SoundDuration":234986,"Delta":22067179},{"NoteNumber":61,"Velocity":55,"Duration":794631,"SoundDuration":794631,"Delta":22328276},{"NoteNumber":54,"Velocity":46,"Duration":1059508,"SoundDuration":1059508,"Delta":22328276},{"NoteNumber":58,"Velocity":48,"Duration":794631,"SoundDuration":794631,"Delta":22328276},{"NoteNumber":37,"Velocity":30,"Duration":1059508,"SoundDuration":1059508,"Delta":22328276},{"NoteNumber":42,"Velocity":30,"Duration":1059508,"SoundDuration":1059508,"Delta":22328276},{"NoteNumber":49,"Velocity":37,"Duration":1059508,"SoundDuration":1059508,"Delta":22328276},{"NoteNumber":61,"Velocity":45,"Duration":238389,"SoundDuration":238389,"Delta":23122908},{"NoteNumber":58,"Velocity":39,"Duration":238389,"SoundDuration":238389,"Delta":23122908},{"NoteNumber":61,"Velocity":50,"Duration":2166063,"SoundDuration":2166063,"Delta":23387785},{"NoteNumber":53,"Velocity":42,"Duration":1083031,"SoundDuration":1083031,"Delta":23387785},{"NoteNumber":58,"Velocity":45,"Duration":2166063,"SoundDuration":2166063,"Delta":23387785},{"NoteNumber":34,"Velocity":35,"Duration":1083031,"SoundDuration":1083031,"Delta":23387785},{"NoteNumber":41,"Velocity":35,"Duration":1083031,"SoundDuration":1083031,"Delta":23387785},{"NoteNumber":46,"Velocity":42,"Duration":1083031,"SoundDuration":1083031,"Delta":23387785},{"NoteNumber":54,"Velocity":35,"Duration":1083031,"SoundDuration":1083031,"Delta":24470817},{"NoteNumber":37,"Velocity":27,"Duration":1083031,"SoundDuration":1083031,"Delta":24470817},{"NoteNumber":42,"Velocity":27,"Duration":1083031,"SoundDuration":1083031,"Delta":24470817},{"NoteNumber":49,"Velocity":34,"Duration":1083031,"SoundDuration":1083031,"Delta":24470817},{"NoteNumber":61,"Velocity":58,"Duration":797216,"SoundDuration":797216,"Delta":25553849},{"NoteNumber":70,"Velocity":73,"Duration":468750,"SoundDuration":468750,"Delta":25553849},{"NoteNumber":58,"Velocity":58,"Duration":797216,"SoundDuration":797216,"Delta":25553849},{"NoteNumber":34,"Velocity":42,"Duration":922216,"SoundDuration":922216,"Delta":25553849},{"NoteNumber":41,"Velocity":42,"Duration":922216,"SoundDuration":922216,"Delta":25553849},{"NoteNumber":46,"Velocity":52,"Duration":922216,"SoundDuration":922216,"Delta":25553849},{"NoteNumber":68,"Velocity":66,"Duration":328466,"SoundDuration":328466,"Delta":26022599},{"NoteNumber":68,"Velocity":58,"Duration":125000,"SoundDuration":125000,"Delta":26351066},{"NoteNumber":61,"Velocity":55,"Duration":1016949,"SoundDuration":1016949,"Delta":26476066},{"NoteNumber":66,"Velocity":61,"Duration":762711,"SoundDuration":762711,"Delta":26476066},{"NoteNumber":58,"Velocity":55,"Duration":1016949,"SoundDuration":1016949,"Delta":26476066},{"NoteNumber":37,"Velocity":36,"Duration":1016949,"SoundDuration":1016949,"Delta":26476066},{"NoteNumber":42,"Velocity":36,"Duration":1016949,"SoundDuration":1016949,"Delta":26476066},{"NoteNumber":49,"Velocity":44,"Duration":1016949,"SoundDuration":1016949,"Delta":26476066},{"NoteNumber":65,"Velocity":53,"Duration":228813,"SoundDuration":228813,"Delta":27238778},{"NoteNumber":58,"Velocity":50,"Duration":1083031,"SoundDuration":1083031,"Delta":27493015},{"NoteNumber":65,"Velocity":59,"Duration":1083031,"SoundDuration":1083031,"Delta":27493015},{"NoteNumber":61,"Velocity":50,"Duration":1083031,"SoundDuration":1083031,"Delta":27493015},{"NoteNumber":34,"Velocity":38,"Duration":1083031,"SoundDuration":1083031,"Delta":27493015},{"NoteNumber":41,"Velocity":38,"Duration":1083031,"SoundDuration":1083031,"Delta":27493015},{"NoteNumber":46,"Velocity":46,"Duration":1083031,"SoundDuration":1083031,"Delta":27493015},{"NoteNumber":58,"Velocity":42,"Duration":1083031,"SoundDuration":1083031,"Delta":28576047},{"NoteNumber":61,"Velocity":51,"Duration":1083031,"SoundDuration":1083031,"Delta":28576047},{"NoteNumber":37,"Velocity":27,"Duration":1083031,"SoundDuration":1083031,"Delta":28576047},{"NoteNumber":42,"Velocity":27,"Duration":1083031,"SoundDuration":1083031,"Delta":28576047},{"NoteNumber":49,"Velocity":35,"Duration":1083031,"SoundDuration":1083031,"Delta":28576047},{"NoteNumber":61,"Velocity":58,"Duration":812307,"SoundDuration":812307,"Delta":29659079},{"NoteNumber":70,"Velocity":73,"Duration":476190,"SoundDuration":476190,"Delta":29659079},{"NoteNumber":58,"Velocity":58,"Duration":812307,"SoundDuration":812307,"Delta":29659079},{"NoteNumber":34,"Velocity":42,"Duration":940512,"SoundDuration":940512,"Delta":29659079},{"NoteNumber":41,"Velocity":42,"Duration":940512,"SoundDuration":940512,"Delta":29659079},{"NoteNumber":46,"Velocity":52,"Duration":940512,"SoundDuration":940512,"Delta":29659079},{"NoteNumber":68,"Velocity":65,"Duration":336116,"SoundDuration":336116,"Delta":30135269},{"NoteNumber":68,"Velocity":58,"Duration":128205,"SoundDuration":128205,"Delta":30471386},{"NoteNumber":61,"Velocity":55,"Duration":992430,"SoundDuration":992430,"Delta":30599591},{"NoteNumber":66,"Velocity":61,"Duration":744496,"SoundDuration":744496,"Delta":30599591},{"NoteNumber":58,"Velocity":55,"Duration":992430,"SoundDuration":992430,"Delta":30599591},{"NoteNumber":37,"Velocity":36,"Duration":992430,"SoundDuration":992430,"Delta":30599591},{"NoteNumber":42,"Velocity":36,"Duration":992430,"SoundDuration":992430,"Delta":30599591},{"NoteNumber":49,"Velocity":44,"Duration":992430,"SoundDuration":992430,"Delta":30599591},{"NoteNumber":65,"Velocity":54,"Duration":223140,"SoundDuration":223140,"Delta":31344088},{"NoteNumber":58,"Velocity":50,"Duration":1083032,"SoundDuration":1083032,"Delta":31592022},{"NoteNumber":65,"Velocity":59,"Duration":1083032,"SoundDuration":1083032,"Delta":31592022},{"NoteNumber":61,"Velocity":50,"Duration":1083032,"SoundDuration":1083032,"Delta":31592022},{"NoteNumber":34,"Velocity":38,"Duration":1083032,"SoundDuration":1083032,"Delta":31592022},{"NoteNumber":41,"Velocity":38,"Duration":1083032,"SoundDuration":1083032,"Delta":31592022},{"NoteNumber":46,"Velocity":46,"Duration":1083032,"SoundDuration":1083032,"Delta":31592022},{"NoteNumber":58,"Velocity":42,"Duration":1083031,"SoundDuration":1083031,"Delta":32675054},{"NoteNumber":61,"Velocity":51,"Duration":1083031,"SoundDuration":1083031,"Delta":32675054},{"NoteNumber":37,"Velocity":27,"Duration":1083031,"SoundDuration":1083031,"Delta":32675054},{"NoteNumber":42,"Velocity":27,"Duration":1083031,"SoundDuration":1083031,"Delta":32675054},{"NoteNumber":49,"Velocity":35,"Duration":1083031,"SoundDuration":1083031,"Delta":32675054},{"NoteNumber":53,"Velocity":39,"Duration":1044386,"SoundDuration":1044386,"Delta":33758086},{"NoteNumber":58,"Velocity":46,"Duration":1044386,"SoundDuration":1044386,"Delta":33758086},{"NoteNumber":34,"Velocity":32,"Duration":1044386,"SoundDuration":1044386,"Delta":33758086},{"NoteNumber":41,"Velocity":32,"Duration":1044386,"SoundDuration":1044386,"Delta":33758086},{"NoteNumber":46,"Velocity":39,"Duration":1044386,"SoundDuration":1044386,"Delta":33758086},{"NoteNumber":54,"Velocity":39,"Duration":1075076,"SoundDuration":1075076,"Delta":34802472},{"NoteNumber":58,"Velocity":46,"Duration":806306,"SoundDuration":806306,"Delta":34802472},{"NoteNumber":37,"Velocity":28,"Duration":1075076,"SoundDuration":1075076,"Delta":34802472},{"NoteNumber":42,"Velocity":34,"Duration":1075076,"SoundDuration":1075076,"Delta":34802472},{"NoteNumber":49,"Velocity":34,"Duration":1075076,"SoundDuration":1075076,"Delta":34802472},{"NoteNumber":58,"Velocity":41,"Duration":241892,"SoundDuration":241892,"Delta":35608779},{"NoteNumber":58,"Velocity":46,"Duration":1067236,"SoundDuration":1067236,"Delta":35877548},{"NoteNumber":53,"Velocity":39,"Duration":1067236,"SoundDuration":1067236,"Delta":35877548},{"NoteNumber":34,"Velocity":32,"Duration":1067236,"SoundDuration":1067236,"Delta":35877548},{"NoteNumber":41,"Velocity":32,"Duration":1067236,"SoundDuration":1067236,"Delta":35877548},{"NoteNumber":46,"Velocity":39,"Duration":1067236,"SoundDuration":1067236,"Delta":35877548},{"NoteNumber":61,"Velocity":54,"Duration":783289,"SoundDuration":783289,"Delta":36944784},{"NoteNumber":54,"Velocity":44,"Duration":1044386,"SoundDuration":1044386,"Delta":36944784},{"NoteNumber":37,"Velocity":25,"Duration":1044386,"SoundDuration":1044386,"Delta":36944784},{"NoteNumber":42,"Velocity":31,"Duration":1044386,"SoundDuration":1044386,"Delta":36944784},{"NoteNumber":49,"Velocity":31,"Duration":1044386,"SoundDuration":1044386,"Delta":36944784},{"NoteNumber":60,"Velocity":49,"Duration":130548,"SoundDuration":130548,"Delta":37728073},{"NoteNumber":61,"Velocity":45,"Duration":130548,"SoundDuration":130548,"Delta":37858622},{"NoteNumber":60,"Velocity":52,"Duration":783289,"SoundDuration":783289,"Delta":37989170},{"NoteNumber":53,"Velocity":44,"Duration":1044385,"SoundDuration":1044385,"Delta":37989170},{"NoteNumber":34,"Velocity":32,"Duration":1044385,"SoundDuration":1044385,"Delta":37989170},{"NoteNumber":41,"Velocity":32,"Duration":1044385,"SoundDuration":1044385,"Delta":37989170},{"NoteNumber":46,"Velocity":39,"Duration":1044385,"SoundDuration":1044385,"Delta":37989170},{"NoteNumber":58,"Velocity":46,"Duration":234986,"SoundDuration":234986,"Delta":38772459},{"NoteNumber":54,"Velocity":42,"Duration":1059508,"SoundDuration":1059508,"Delta":39033556},{"NoteNumber":58,"Velocity":50,"Duration":794631,"SoundDuration":794631,"Delta":39033556},{"NoteNumber":37,"Velocity":28,"Duration":1059508,"SoundDuration":1059508,"Delta":39033556},{"NoteNumber":42,"Velocity":28,"Duration":1059508,"SoundDuration":1059508,"Delta":39033556},{"NoteNumber":49,"Velocity":34,"Duration":1059508,"SoundDuration":1059508,"Delta":39033556},{"NoteNumber":58,"Velocity":41,"Duration":238389,"SoundDuration":238389,"Delta":39828188},{"NoteNumber":53,"Velocity":39,"Duration":1075076,"SoundDuration":1075076,"Delta":40093065},{"NoteNumber":58,"Velocity":46,"Duration":2150151,"SoundDuration":2150151,"Delta":40093065},{"NoteNumber":34,"Velocity":32,"Duration":1075076,"SoundDuration":1075076,"Delta":40093065},{"NoteNumber":41,"Velocity":32,"Duration":1075076,"SoundDuration":1075076,"Delta":40093065},{"NoteNumber":46,"Velocity":39,"Duration":1075076,"SoundDuration":1075076,"Delta":40093065},{"NoteNumber":54,"Velocity":32,"Duration":1075075,"SoundDuration":1075075,"Delta":41168141},{"NoteNumber":37,"Velocity":25,"Duration":1075075,"SoundDuration":1075075,"Delta":41168141},{"NoteNumber":42,"Velocity":25,"Duration":1075075,"SoundDuration":1075075,"Delta":41168141},{"NoteNumber":49,"Velocity":31,"Duration":1075075,"SoundDuration":1075075,"Delta":41168141},{"NoteNumber":73,"Velocity":68,"Duration":904894,"SoundDuration":904894,"Delta":42243217},{"NoteNumber":82,"Velocity":83,"Duration":476190,"SoundDuration":476190,"Delta":42243217},{"NoteNumber":70,"Velocity":68,"Duration":476190,"SoundDuration":476190,"Delta":42243217},{"NoteNumber":34,"Velocity":47,"Duration":951513,"SoundDuration":951513,"Delta":42243217},{"NoteNumber":41,"Velocity":47,"Duration":951513,"SoundDuration":951513,"Delta":42243217},{"NoteNumber":46,"Velocity":57,"Duration":951513,"SoundDuration":951513,"Delta":42243217},{"NoteNumber":68,"Velocity":56,"Duration":337606,"SoundDuration":337606,"Delta":42719407},{"NoteNumber":80,"Velocity":73,"Duration":337606,"SoundDuration":337606,"Delta":42719407},{"NoteNumber":68,"Velocity":64,"Duration":44177,"SoundDuration":44177,"Delta":43057014},{"NoteNumber":73,"Velocity":57,"Duration":1119408,"SoundDuration":1119408,"Delta":43101191},{"NoteNumber":80,"Velocity":59,"Duration":46618,"SoundDuration":46618,"Delta":43148111},{"NoteNumber":73,"Velocity":74,"Duration":1025869,"SoundDuration":1025869,"Delta":43194730},{"NoteNumber":78,"Velocity":73,"Duration":762711,"SoundDuration":762711,"Delta":43194730},{"NoteNumber":66,"Velocity":61,"Duration":1025869,"SoundDuration":1025869,"Delta":43194730},{"NoteNumber":37,"Velocity":37,"Duration":1025869,"SoundDuration":1025869,"Delta":43194730},{"NoteNumber":42,"Velocity":37,"Duration":1025869,"SoundDuration":1025869,"Delta":43194730},{"NoteNumber":49,"Velocity":46,"Duration":1025869,"SoundDuration":1025869,"Delta":43194730},{"NoteNumber":65,"Velocity":52,"Duration":236842,"SoundDuration":236842,"Delta":43957442},{"NoteNumber":77,"Velocity":61,"Duration":236842,"SoundDuration":236842,"Delta":43957442},{"NoteNumber":65,"Velocity":58,"Duration":1061946,"SoundDuration":1061946,"Delta":44220600},{"NoteNumber":77,"Velocity":69,"Duration":1061946,"SoundDuration":1061946,"Delta":44220600},{"NoteNumber":73,"Velocity":69,"Duration":1061946,"SoundDuration":1061946,"Delta":44220600},{"NoteNumber":34,"Velocity":39,"Duration":1061946,"SoundDuration":1061946,"Delta":44220600},{"NoteNumber":41,"Velocity":39,"Duration":1061946,"SoundDuration":1061946,"Delta":44220600},{"NoteNumber":46,"Velocity":48,"Duration":1061946,"SoundDuration":1061946,"Delta":44220600},{"NoteNumber":73,"Velocity":68,"Duration":1061947,"SoundDuration":1061947,"Delta":45282547},{"NoteNumber":61,"Velocity":57,"Duration":1061947,"SoundDuration":1061947,"Delta":45282547},{"NoteNumber":70,"Velocity":68,"Duration":1061947,"SoundDuration":1061947,"Delta":45282547},{"NoteNumber":37,"Velocity":30,"Duration":1061947,"SoundDuration":1061947,"Delta":45282547},{"NoteNumber":42,"Velocity":30,"Duration":1061947,"SoundDuration":1061947,"Delta":45282547},{"NoteNumber":49,"Velocity":38,"Duration":1061947,"SoundDuration":1061947,"Delta":45282547},{"NoteNumber":73,"Velocity":68,"Duration":907144,"SoundDuration":907144,"Delta":46344494},{"NoteNumber":82,"Velocity":83,"Duration":479999,"SoundDuration":479999,"Delta":46344494},{"NoteNumber":70,"Velocity":68,"Duration":479999,"SoundDuration":479999,"Delta":46344494},{"NoteNumber":34,"Velocity":47,"Duration":955044,"SoundDuration":955044,"Delta":46344494},{"NoteNumber":41,"Velocity":47,"Duration":955044,"SoundDuration":955044,"Delta":46344494},{"NoteNumber":46,"Velocity":57,"Duration":955044,"SoundDuration":955044,"Delta":46344494},{"NoteNumber":68,"Velocity":56,"Duration":339265,"SoundDuration":339265,"Delta":46824494},{"NoteNumber":80,"Velocity":73,"Duration":339265,"SoundDuration":339265,"Delta":46824494},{"NoteNumber":68,"Velocity":66,"Duration":38461,"SoundDuration":38461,"Delta":47163759},{"NoteNumber":73,"Velocity":58,"Duration":1129706,"SoundDuration":1129706,"Delta":47202220},{"NoteNumber":80,"Velocity":58,"Duration":47900,"SoundDuration":47900,"Delta":47251638},{"NoteNumber":73,"Velocity":76,"Duration":1032388,"SoundDuration":1032388,"Delta":47299538},{"NoteNumber":78,"Velocity":73,"Duration":769230,"SoundDuration":769230,"Delta":47299538},{"NoteNumber":66,"Velocity":63,"Duration":1032388,"SoundDuration":1032388,"Delta":47299538},{"NoteNumber":37,"Velocity":37,"Duration":1032388,"SoundDuration":1032388,"Delta":47299538},{"NoteNumber":42,"Velocity":37,"Duration":1032388,"SoundDuration":1032388,"Delta":47299538},{"NoteNumber":49,"Velocity":46,"Duration":1032388,"SoundDuration":1032388,"Delta":47299538},{"NoteNumber":65,"Velocity":52,"Duration":236842,"SoundDuration":236842,"Delta":48068769},{"NoteNumber":77,"Velocity":61,"Duration":236842,"SoundDuration":236842,"Delta":48068769},{"NoteNumber":65,"Velocity":58,"Duration":1061946,"SoundDuration":1061946,"Delta":48331927},{"NoteNumber":77,"Velocity":69,"Duration":1061946,"SoundDuration":1061946,"Delta":48331927},{"NoteNumber":73,"Velocity":69,"Duration":1061946,"SoundDuration":1061946,"Delta":48331927},{"NoteNumber":34,"Velocity":39,"Duration":1061946,"SoundDuration":1061946,"Delta":48331927},{"NoteNumber":41,"Velocity":39,"Duration":1061946,"SoundDuration":1061946,"Delta":48331927},{"NoteNumber":46,"Velocity":48,"Duration":1061946,"SoundDuration":1061946,"Delta":48331927},{"NoteNumber":73,"Velocity":68,"Duration":1061947,"SoundDuration":1061947,"Delta":49393874},{"NoteNumber":61,"Velocity":57,"Duration":1061947,"SoundDuration":1061947,"Delta":49393874},{"NoteNumber":70,"Velocity":68,"Duration":1061947,"SoundDuration":1061947,"Delta":49393874},{"NoteNumber":37,"Velocity":30,"Duration":1061947,"SoundDuration":1061947,"Delta":49393874},{"NoteNumber":42,"Velocity":30,"Duration":1061947,"SoundDuration":1061947,"Delta":49393874},{"NoteNumber":49,"Velocity":38,"Duration":1061947,"SoundDuration":1061947,"Delta":49393874},{"NoteNumber":58,"Velocity":52,"Duration":1044386,"SoundDuration":1044386,"Delta":50455821},{"NoteNumber":65,"Velocity":52,"Duration":1044386,"SoundDuration":1044386,"Delta":50455821},{"NoteNumber":70,"Velocity":61,"Duration":1044386,"SoundDuration":1044386,"Delta":50455821},{"NoteNumber":34,"Velocity":43,"Duration":1044386,"SoundDuration":1044386,"Delta":50455821},{"NoteNumber":41,"Velocity":43,"Duration":1044386,"SoundDuration":1044386,"Delta":50455821},{"NoteNumber":46,"Velocity":52,"Duration":1044386,"SoundDuration":1044386,"Delta":50455821},{"NoteNumber":58,"Velocity":53,"Duration":806306,"SoundDuration":806306,"Delta":51500207},{"NoteNumber":66,"Velocity":53,"Duration":1075076,"SoundDuration":1075076,"Delta":51500207},{"NoteNumber":70,"Velocity":63,"Duration":806306,"SoundDuration":806306,"Delta":51500207},{"NoteNumber":37,"Velocity":37,"Duration":1075076,"SoundDuration":1075076,"Delta":51500207},{"NoteNumber":42,"Velocity":46,"Duration":1075076,"SoundDuration":1075076,"Delta":51500207},{"NoteNumber":49,"Velocity":46,"Duration":1075076,"SoundDuration":1075076,"Delta":51500207},{"NoteNumber":58,"Velocity":48,"Duration":241892,"SoundDuration":241892,"Delta":52306514},{"NoteNumber":70,"Velocity":57,"Duration":241892,"SoundDuration":241892,"Delta":52306514},{"NoteNumber":58,"Velocity":54,"Duration":1067236,"SoundDuration":1067236,"Delta":52575283},{"NoteNumber":65,"Velocity":54,"Duration":1067236,"SoundDuration":1067236,"Delta":52575283},{"NoteNumber":70,"Velocity":65,"Duration":1067236,"SoundDuration":1067236,"Delta":52575283},{"NoteNumber":34,"Velocity":45,"Duration":1067236,"SoundDuration":1067236,"Delta":52575283},{"NoteNumber":41,"Velocity":45,"Duration":1067236,"SoundDuration":1067236,"Delta":52575283},{"NoteNumber":46,"Velocity":54,"Duration":1067236,"SoundDuration":1067236,"Delta":52575283},{"NoteNumber":61,"Velocity":68,"Duration":783289,"SoundDuration":783289,"Delta":53642519},{"NoteNumber":73,"Velocity":82,"Duration":783289,"SoundDuration":783289,"Delta":53642519},{"NoteNumber":66,"Velocity":66,"Duration":1044386,"SoundDuration":1044386,"Delta":53642519},{"NoteNumber":37,"Velocity":36,"Duration":1044386,"SoundDuration":1044386,"Delta":53642519},{"NoteNumber":42,"Velocity":46,"Duration":1044386,"SoundDuration":1044386,"Delta":53642519},{"NoteNumber":49,"Velocity":46,"Duration":1044386,"SoundDuration":1044386,"Delta":53642519},{"NoteNumber":60,"Velocity":59,"Duration":261096,"SoundDuration":261096,"Delta":54425808},{"NoteNumber":72,"Velocity":71,"Duration":261096,"SoundDuration":261096,"Delta":54425808},{"NoteNumber":60,"Velocity":68,"Duration":783289,"SoundDuration":783289,"Delta":54686905},{"NoteNumber":72,"Velocity":79,"Duration":783289,"SoundDuration":783289,"Delta":54686905},{"NoteNumber":65,"Velocity":68,"Duration":1044385,"SoundDuration":1044385,"Delta":54686905},{"NoteNumber":34,"Velocity":49,"Duration":1044385,"SoundDuration":1044385,"Delta":54686905},{"NoteNumber":41,"Velocity":49,"Duration":1044385,"SoundDuration":1044385,"Delta":54686905},{"NoteNumber":46,"Velocity":58,"Duration":1044385,"SoundDuration":1044385,"Delta":54686905},{"NoteNumber":58,"Velocity":59,"Duration":234986,"SoundDuration":234986,"Delta":55470194},{"NoteNumber":70,"Velocity":71,"Duration":234986,"SoundDuration":234986,"Delta":55470194},{"NoteNumber":58,"Velocity":64,"Duration":794631,"SoundDuration":794631,"Delta":55731291},{"NoteNumber":66,"Velocity":64,"Duration":1059508,"SoundDuration":1059508,"Delta":55731291},{"NoteNumber":70,"Velocity":77,"Duration":794631,"SoundDuration":794631,"Delta":55731291},{"NoteNumber":37,"Velocity":42,"Duration":1059508,"SoundDuration":1059508,"Delta":55731291},{"NoteNumber":42,"Velocity":42,"Duration":1059508,"SoundDuration":1059508,"Delta":55731291},{"NoteNumber":49,"Velocity":51,"Duration":1059508,"SoundDuration":1059508,"Delta":55731291},{"NoteNumber":58,"Velocity":60,"Duration":238389,"SoundDuration":238389,"Delta":56525922},{"NoteNumber":70,"Velocity":72,"Duration":238389,"SoundDuration":238389,"Delta":56525922},{"NoteNumber":58,"Velocity":63,"Duration":1075076,"SoundDuration":1075076,"Delta":56790800},{"NoteNumber":65,"Velocity":64,"Duration":1075076,"SoundDuration":1075076,"Delta":56790800},{"NoteNumber":70,"Velocity":76,"Duration":1075076,"SoundDuration":1075076,"Delta":56790800},{"NoteNumber":34,"Velocity":53,"Duration":1075076,"SoundDuration":1075076,"Delta":56790800},{"NoteNumber":41,"Velocity":53,"Duration":1075076,"SoundDuration":1075076,"Delta":56790800},{"NoteNumber":46,"Velocity":64,"Duration":1075076,"SoundDuration":1075076,"Delta":56790800},{"NoteNumber":68,"Velocity":75,"Duration":1075075,"SoundDuration":1075075,"Delta":57865876},{"NoteNumber":60,"Velocity":75,"Duration":1075075,"SoundDuration":1075075,"Delta":57865876},{"NoteNumber":72,"Velocity":95,"Duration":1075075,"SoundDuration":1075075,"Delta":57865876},{"NoteNumber":66,"Velocity":75,"Duration":1075075,"SoundDuration":1075075,"Delta":57865876},{"NoteNumber":32,"Velocity":56,"Duration":1075075,"SoundDuration":1075075,"Delta":57865876},{"NoteNumber":44,"Velocity":71,"Duration":1075075,"SoundDuration":1075075,"Delta":57865876},{"NoteNumber":61,"Velocity":78,"Duration":1075076,"SoundDuration":1075076,"Delta":58940952},{"NoteNumber":65,"Velocity":78,"Duration":1075076,"SoundDuration":1075076,"Delta":58940952},{"NoteNumber":73,"Velocity":100,"Duration":1075076,"SoundDuration":1075076,"Delta":58940952},{"NoteNumber":25,"Velocity":59,"Duration":1075076,"SoundDuration":1075076,"Delta":58940952},{"NoteNumber":37,"Velocity":74,"Duration":1075076,"SoundDuration":1075076,"Delta":58940952},{"NoteNumber":65,"Velocity":74,"Duration":806306,"SoundDuration":806306,"Delta":60016028},{"NoteNumber":73,"Velocity":74,"Duration":806306,"SoundDuration":806306,"Delta":60016028},{"NoteNumber":77,"Velocity":89,"Duration":806306,"SoundDuration":806306,"Delta":60016028},{"NoteNumber":49,"Velocity":64,"Duration":806306,"SoundDuration":806306,"Delta":60016028},{"NoteNumber":56,"Velocity":64,"Duration":806306,"SoundDuration":806306,"Delta":60016028},{"NoteNumber":61,"Velocity":76,"Duration":806306,"SoundDuration":806306,"Delta":60016028},{"NoteNumber":66,"Velocity":74,"Duration":268768,"SoundDuration":268768,"Delta":60822335},{"NoteNumber":78,"Velocity":89,"Duration":268768,"SoundDuration":268768,"Delta":60822335},{"NoteNumber":63,"Velocity":76,"Duration":268768,"SoundDuration":268768,"Delta":60822335},{"NoteNumber":68,"Velocity":78,"Duration":806307,"SoundDuration":806307,"Delta":61091104},{"NoteNumber":80,"Velocity":93,"Duration":806307,"SoundDuration":806307,"Delta":61091104},{"NoteNumber":73,"Velocity":78,"Duration":806307,"SoundDuration":806307,"Delta":61091104},{"NoteNumber":49,"Velocity":68,"Duration":806307,"SoundDuration":806307,"Delta":61091104},{"NoteNumber":56,"Velocity":68,"Duration":806307,"SoundDuration":806307,"Delta":61091104},{"NoteNumber":65,"Velocity":80,"Duration":806307,"SoundDuration":806307,"Delta":61091104},{"NoteNumber":70,"Velocity":78,"Duration":268768,"SoundDuration":268768,"Delta":61897411},{"NoteNumber":82,"Velocity":93,"Duration":268768,"SoundDuration":268768,"Delta":61897411},{"NoteNumber":66,"Velocity":80,"Duration":268768,"SoundDuration":268768,"Delta":61897411},{"NoteNumber":72,"Velocity":84,"Duration":825687,"SoundDuration":825687,"Delta":62166180},{"NoteNumber":80,"Velocity":84,"Duration":825687,"SoundDuration":825687,"Delta":62166180},{"NoteNumber":84,"Velocity":99,"Duration":825687,"SoundDuration":825687,"Delta":62166180},{"NoteNumber":63,"Velocity":73,"Duration":825687,"SoundDuration":825687,"Delta":62166180},{"NoteNumber":56,"Velocity":73,"Duration":825687,"SoundDuration":825687,"Delta":62166180},{"NoteNumber":68,"Velocity":86,"Duration":825687,"SoundDuration":825687,"Delta":62166180},{"NoteNumber":73,"Velocity":88,"Duration":275229,"SoundDuration":275229,"Delta":62991867},{"NoteNumber":85,"Velocity":102,"Duration":275229,"SoundDuration":275229,"Delta":62991867},{"NoteNumber":65,"Velocity":85,"Duration":275229,"SoundDuration":275229,"Delta":62991867},{"NoteNumber":89,"Velocity":103,"Duration":2142858,"SoundDuration":2142858,"Delta":63267097},{"NoteNumber":80,"Velocity":88,"Duration":3750001,"SoundDuration":3750001,"Delta":63267097},{"NoteNumber":77,"Velocity":88,"Duration":2142858,"SoundDuration":2142858,"Delta":63267097},{"NoteNumber":84,"Velocity":88,"Duration":3750001,"SoundDuration":3750001,"Delta":63267097},{"NoteNumber":32,"Velocity":77,"Duration":1071428,"SoundDuration":1071428,"Delta":63267097},{"NoteNumber":44,"Velocity":92,"Duration":1071428,"SoundDuration":1071428,"Delta":63267097},{"NoteNumber":63,"Velocity":69,"Duration":803571,"SoundDuration":803571,"Delta":64338526},{"NoteNumber":66,"Velocity":69,"Duration":803571,"SoundDuration":803571,"Delta":64338526},{"NoteNumber":72,"Velocity":81,"Duration":803571,"SoundDuration":803571,"Delta":64338526},{"NoteNumber":61,"Velocity":65,"Duration":241071,"SoundDuration":241071,"Delta":65142097},{"NoteNumber":66,"Velocity":65,"Duration":241071,"SoundDuration":241071,"Delta":65142097},{"NoteNumber":70,"Velocity":76,"Duration":241071,"SoundDuration":241071,"Delta":65142097},{"NoteNumber":75,"Velocity":79,"Duration":1607143,"SoundDuration":1607143,"Delta":65409955},{"NoteNumber":87,"Velocity":95,"Duration":1607143,"SoundDuration":1607143,"Delta":65409955},{"NoteNumber":61,"Velocity":63,"Duration":803571,"SoundDuration":803571,"Delta":65409955},{"NoteNumber":66,"Velocity":63,"Duration":803571,"SoundDuration":803571,"Delta":65409955},{"NoteNumber":70,"Velocity":75,"Duration":803571,"SoundDuration":803571,"Delta":65409955},{"NoteNumber":60,"Velocity":59,"Duration":241071,"SoundDuration":241071,"Delta":66213526},{"NoteNumber":66,"Velocity":59,"Duration":241071,"SoundDuration":241071,"Delta":66213526},{"NoteNumber":68,"Velocity":71,"Duration":241071,"SoundDuration":241071,"Delta":66213526},{"NoteNumber":60,"Velocity":57,"Duration":803571,"SoundDuration":803571,"Delta":66481384},{"NoteNumber":66,"Velocity":57,"Duration":803571,"SoundDuration":803571,"Delta":66481384},{"NoteNumber":68,"Velocity":68,"Duration":803571,"SoundDuration":803571,"Delta":66481384},{"NoteNumber":78,"Velocity":89,"Duration":294117,"SoundDuration":294117,"Delta":67284955},{"NoteNumber":72,"Velocity":75,"Duration":294117,"SoundDuration":294117,"Delta":67284955},{"NoteNumber":75,"Velocity":75,"Duration":294117,"SoundDuration":294117,"Delta":67284955},{"NoteNumber":66,"Velocity":75,"Duration":294117,"SoundDuration":294117,"Delta":67284955},{"NoteNumber":57,"Velocity":66,"Duration":294117,"SoundDuration":294117,"Delta":67284955},{"NoteNumber":60,"Velocity":66,"Duration":294117,"SoundDuration":294117,"Delta":67284955},{"NoteNumber":63,"Velocity":77,"Duration":294117,"SoundDuration":294117,"Delta":67284955},{"NoteNumber":75,"Velocity":80,"Duration":1071428,"SoundDuration":1071428,"Delta":67579073},{"NoteNumber":65,"Velocity":80,"Duration":1071428,"SoundDuration":1071428,"Delta":67579073},{"NoteNumber":72,"Velocity":80,"Duration":1071428,"SoundDuration":1071428,"Delta":67579073},{"NoteNumber":77,"Velocity":102,"Duration":1071428,"SoundDuration":1071428,"Delta":67579073},{"NoteNumber":34,"Velocity":66,"Duration":1071428,"SoundDuration":1071428,"Delta":67579073},{"NoteNumber":46,"Velocity":78,"Duration":1071428,"SoundDuration":1071428,"Delta":67579073},{"NoteNumber":70,"Velocity":74,"Duration":803571,"SoundDuration":803571,"Delta":68650502},{"NoteNumber":65,"Velocity":74,"Duration":803571,"SoundDuration":803571,"Delta":68650502},{"NoteNumber":73,"Velocity":74,"Duration":803571,"SoundDuration":803571,"Delta":68650502},{"NoteNumber":77,"Velocity":89,"Duration":803571,"SoundDuration":803571,"Delta":68650502},{"NoteNumber":53,"Velocity":63,"Duration":1071429,"SoundDuration":1071429,"Delta":68650502},{"NoteNumber":58,"Velocity":63,"Duration":1071429,"SoundDuration":1071429,"Delta":68650502},{"NoteNumber":61,"Velocity":75,"Duration":1071429,"SoundDuration":1071429,"Delta":68650502},{"NoteNumber":67,"Velocity":74,"Duration":267857,"SoundDuration":267857,"Delta":69454074},{"NoteNumber":79,"Velocity":89,"Duration":267857,"SoundDuration":267857,"Delta":69454074},{"NoteNumber":77,"Velocity":78,"Duration":803571,"SoundDuration":803571,"Delta":69721931},{"NoteNumber":69,"Velocity":78,"Duration":803571,"SoundDuration":803571,"Delta":69721931},{"NoteNumber":73,"Velocity":78,"Duration":803571,"SoundDuration":803571,"Delta":69721931},{"NoteNumber":81,"Velocity":93,"Duration":803571,"SoundDuration":803571,"Delta":69721931},{"NoteNumber":37,"Velocity":68,"Duration":1071428,"SoundDuration":1071428,"Delta":69721931},{"NoteNumber":49,"Velocity":80,"Duration":1071428,"SoundDuration":1071428,"Delta":69721931},{"NoteNumber":70,"Velocity":78,"Duration":267857,"SoundDuration":267857,"Delta":70525503},{"NoteNumber":82,"Velocity":93,"Duration":267857,"SoundDuration":267857,"Delta":70525503},{"NoteNumber":72,"Velocity":84,"Duration":843834,"SoundDuration":843834,"Delta":70793360},{"NoteNumber":77,"Velocity":84,"Duration":843834,"SoundDuration":843834,"Delta":70793360},{"NoteNumber":84,"Velocity":99,"Duration":843834,"SoundDuration":843834,"Delta":70793360},{"NoteNumber":65,"Velocity":76,"Duration":1198543,"SoundDuration":1198543,"Delta":70793360},{"NoteNumber":61,"Velocity":64,"Duration":1198543,"SoundDuration":1198543,"Delta":70793360},{"NoteNumber":58,"Velocity":64,"Duration":1198543,"SoundDuration":1198543,"Delta":70793360},{"NoteNumber":53,"Velocity":64,"Duration":1198543,"SoundDuration":1198543,"Delta":70793360},{"NoteNumber":73,"Velocity":88,"Duration":164835,"SoundDuration":164835,"Delta":71637195},{"NoteNumber":85,"Velocity":102,"Duration":164835,"SoundDuration":164835,"Delta":71637195},{"NoteNumber":70,"Velocity":88,"Duration":2391707,"SoundDuration":2391707,"Delta":71802030},{"NoteNumber":76,"Velocity":88,"Duration":2328416,"SoundDuration":2328416,"Delta":71865321},{"NoteNumber":79,"Velocity":88,"Duration":2265125,"SoundDuration":2265125,"Delta":71928612},{"NoteNumber":85,"Velocity":103,"Duration":2201834,"SoundDuration":2201834,"Delta":71991903},{"NoteNumber":29,"Velocity":77,"Duration":1100916,"SoundDuration":1100916,"Delta":71991903},{"NoteNumber":41,"Velocity":92,"Duration":1100916,"SoundDuration":1100916,"Delta":71991903},{"NoteNumber":53,"Velocity":69,"Duration":1100917,"SoundDuration":1100917,"Delta":73092820},{"NoteNumber":58,"Velocity":69,"Duration":1100917,"SoundDuration":1100917,"Delta":73092820},{"NoteNumber":61,"Velocity":69,"Duration":1100917,"SoundDuration":1100917,"Delta":73092820},{"NoteNumber":67,"Velocity":81,"Duration":1100917,"SoundDuration":1100917,"Delta":73092820},{"NoteNumber":72,"Velocity":76,"Duration":1100916,"SoundDuration":1100916,"Delta":74193737},{"NoteNumber":77,"Velocity":76,"Duration":1100916,"SoundDuration":1100916,"Delta":74193737},{"NoteNumber":84,"Velocity":90,"Duration":1100916,"SoundDuration":1100916,"Delta":74193737},{"NoteNumber":53,"Velocity":64,"Duration":1100916,"SoundDuration":1100916,"Delta":74193737},{"NoteNumber":57,"Velocity":64,"Duration":1100916,"SoundDuration":1100916,"Delta":74193737},{"NoteNumber":60,"Velocity":64,"Duration":1100916,"SoundDuration":1100916,"Delta":74193737},{"NoteNumber":69,"Velocity":75,"Duration":1100916,"SoundDuration":1100916,"Delta":74193737},{"NoteNumber":53,"Velocity":81,"Duration":740740,"SoundDuration":740740,"Delta":75294654},{"NoteNumber":43,"Velocity":61,"Duration":101147,"SoundDuration":101147,"Delta":76035395},{"NoteNumber":44,"Velocity":61,"Duration":104726,"SoundDuration":104726,"Delta":76136542},{"NoteNumber":46,"Velocity":61,"Duration":108711,"SoundDuration":108711,"Delta":76241269},{"NoteNumber":56,"Velocity":68,"Duration":1066807,"SoundDuration":1066807,"Delta":76349980},{"NoteNumber":54,"Velocity":68,"Duration":1066807,"SoundDuration":1066807,"Delta":76349980},{"NoteNumber":60,"Velocity":68,"Duration":1066807,"SoundDuration":1066807,"Delta":76349980},{"NoteNumber":65,"Velocity":68,"Duration":1066807,"SoundDuration":1066807,"Delta":76349980},{"NoteNumber":68,"Velocity":80,"Duration":1066807,"SoundDuration":1066807,"Delta":76349980},{"NoteNumber":44,"Velocity":61,"Duration":104166,"SoundDuration":104166,"Delta":76349980},{"NoteNumber":46,"Velocity":56,"Duration":103954,"SoundDuration":103954,"Delta":76454147},{"NoteNumber":44,"Velocity":64,"Duration":102898,"SoundDuration":102898,"Delta":76558101},{"NoteNumber":46,"Velocity":57,"Duration":101863,"SoundDuration":101863,"Delta":76661000},{"NoteNumber":44,"Velocity":66,"Duration":100848,"SoundDuration":100848,"Delta":76762863},{"NoteNumber":46,"Velocity":59,"Duration":99853,"SoundDuration":99853,"Delta":76863711},{"NoteNumber":44,"Velocity":68,"Duration":98878,"SoundDuration":98878,"Delta":76963565},{"NoteNumber":46,"Velocity":61,"Duration":97921,"SoundDuration":97921,"Delta":77062444},{"NoteNumber":44,"Velocity":70,"Duration":96890,"SoundDuration":96890,"Delta":77160365},{"NoteNumber":46,"Velocity":65,"Duration":95972,"SoundDuration":95972,"Delta":77257256},{"NoteNumber":44,"Velocity":73,"Duration":95071,"SoundDuration":95071,"Delta":77353228},{"NoteNumber":63,"Velocity":68,"Duration":1033703,"SoundDuration":1033703,"Delta":77416788},{"NoteNumber":56,"Velocity":68,"Duration":1033703,"SoundDuration":1033703,"Delta":77416788},{"NoteNumber":60,"Velocity":68,"Duration":1033703,"SoundDuration":1033703,"Delta":77416788},{"NoteNumber":54,"Velocity":68,"Duration":1033703,"SoundDuration":1033703,"Delta":77416788},{"NoteNumber":68,"Velocity":80,"Duration":1033703,"SoundDuration":1033703,"Delta":77416788},{"NoteNumber":46,"Velocity":66,"Duration":94187,"SoundDuration":94187,"Delta":77448300},{"NoteNumber":44,"Velocity":72,"Duration":93750,"SoundDuration":93750,"Delta":77542488},{"NoteNumber":46,"Velocity":63,"Duration":94292,"SoundDuration":94292,"Delta":77638321},{"NoteNumber":44,"Velocity":69,"Duration":95160,"SoundDuration":95160,"Delta":77730513},{"NoteNumber":46,"Velocity":60,"Duration":98218,"SoundDuration":98218,"Delta":77825674},{"NoteNumber":44,"Velocity":66,"Duration":129685,"SoundDuration":129685,"Delta":77921737},{"NoteNumber":46,"Velocity":58,"Duration":131197,"SoundDuration":131197,"Delta":78051423},{"NoteNumber":43,"Velocity":64,"Duration":133138,"SoundDuration":133138,"Delta":78182620},{"NoteNumber":44,"Velocity":55,"Duration":134732,"SoundDuration":134732,"Delta":78315759},{"NoteNumber":53,"Velocity":68,"Duration":1100916,"SoundDuration":1100916,"Delta":78450492},{"NoteNumber":61,"Velocity":68,"Duration":1100916,"SoundDuration":1100916,"Delta":78450492},{"NoteNumber":68,"Velocity":80,"Duration":1100916,"SoundDuration":1100916,"Delta":78450492},{"NoteNumber":49,"Velocity":68,"Duration":1100916,"SoundDuration":1100916,"Delta":78450492},{"NoteNumber":49,"Velocity":79,"Duration":750000,"SoundDuration":750000,"Delta":79551409},{"NoteNumber":40,"Velocity":61,"Duration":102570,"SoundDuration":102570,"Delta":80301409},{"NoteNumber":41,"Velocity":61,"Duration":105827,"SoundDuration":105827,"Delta":80403980},{"NoteNumber":42,"Velocity":61,"Duration":109451,"SoundDuration":109451,"Delta":80509807},{"NoteNumber":57,"Velocity":68,"Duration":1066807,"SoundDuration":1066807,"Delta":80619258},{"NoteNumber":51,"Velocity":68,"Duration":1066807,"SoundDuration":1066807,"Delta":80619258},{"NoteNumber":61,"Velocity":68,"Duration":1066807,"SoundDuration":1066807,"Delta":80619258},{"NoteNumber":65,"Velocity":80,"Duration":1066807,"SoundDuration":1066807,"Delta":80619258},{"NoteNumber":41,"Velocity":61,"Duration":104166,"SoundDuration":104166,"Delta":80619258},{"NoteNumber":42,"Velocity":56,"Duration":103954,"SoundDuration":103954,"Delta":80723425},{"NoteNumber":41,"Velocity":64,"Duration":102898,"SoundDuration":102898,"Delta":80827379},{"NoteNumber":42,"Velocity":57,"Duration":101863,"SoundDuration":101863,"Delta":80930277},{"NoteNumber":41,"Velocity":66,"Duration":100848,"SoundDuration":100848,"Delta":81032141},{"NoteNumber":42,"Velocity":59,"Duration":99853,"SoundDuration":99853,"Delta":81132989},{"NoteNumber":41,"Velocity":68,"Duration":98878,"SoundDuration":98878,"Delta":81232843},{"NoteNumber":42,"Velocity":61,"Duration":97921,"SoundDuration":97921,"Delta":81331721},{"NoteNumber":41,"Velocity":70,"Duration":96890,"SoundDuration":96890,"Delta":81429643},{"NoteNumber":42,"Velocity":65,"Duration":95972,"SoundDuration":95972,"Delta":81526534},{"NoteNumber":41,"Velocity":73,"Duration":95071,"SoundDuration":95071,"Delta":81622506},{"NoteNumber":65,"Velocity":80,"Duration":1033703,"SoundDuration":1033703,"Delta":81686066},{"NoteNumber":57,"Velocity":68,"Duration":1033703,"SoundDuration":1033703,"Delta":81686066},{"NoteNumber":60,"Velocity":68,"Duration":1033703,"SoundDuration":1033703,"Delta":81686066},{"NoteNumber":51,"Velocity":68,"Duration":1033703,"SoundDuration":1033703,"Delta":81686066},{"NoteNumber":42,"Velocity":66,"Duration":94187,"SoundDuration":94187,"Delta":81717578},{"NoteNumber":41,"Velocity":72,"Duration":93750,"SoundDuration":93750,"Delta":81811766},{"NoteNumber":42,"Velocity":63,"Duration":94292,"SoundDuration":94292,"Delta":81907599},{"NoteNumber":41,"Velocity":69,"Duration":95160,"SoundDuration":95160,"Delta":81999791},{"NoteNumber":42,"Velocity":60,"Duration":98218,"SoundDuration":98218,"Delta":82094952},{"NoteNumber":41,"Velocity":66,"Duration":129685,"SoundDuration":129685,"Delta":82191015},{"NoteNumber":42,"Velocity":58,"Duration":131197,"SoundDuration":131197,"Delta":82320700},{"NoteNumber":40,"Velocity":64,"Duration":133138,"SoundDuration":133138,"Delta":82451898},{"NoteNumber":41,"Velocity":55,"Duration":134732,"SoundDuration":134732,"Delta":82585037},{"NoteNumber":49,"Velocity":68,"Duration":2255189,"SoundDuration":2255189,"Delta":82719769},{"NoteNumber":58,"Velocity":80,"Duration":2255189,"SoundDuration":2255189,"Delta":82719769},{"NoteNumber":42,"Velocity":64,"Duration":1100916,"SoundDuration":1100916,"Delta":82719769},{"NoteNumber":41,"Velocity":49,"Duration":566037,"SoundDuration":566037,"Delta":83820686},{"NoteNumber":37,"Velocity":40,"Duration":588235,"SoundDuration":588235,"Delta":84386724},{"NoteNumber":46,"Velocity":39,"Duration":1044386,"SoundDuration":1044386,"Delta":84974959},{"NoteNumber":53,"Velocity":39,"Duration":1044386,"SoundDuration":1044386,"Delta":84974959},{"NoteNumber":58,"Velocity":46,"Duration":1044386,"SoundDuration":1044386,"Delta":84974959},{"NoteNumber":34,"Velocity":32,"Duration":1044386,"SoundDuration":1044386,"Delta":84974959},{"NoteNumber":41,"Velocity":32,"Duration":1044386,"SoundDuration":1044386,"Delta":84974959},{"NoteNumber":46,"Velocity":39,"Duration":1044386,"SoundDuration":1044386,"Delta":84974959},{"NoteNumber":54,"Velocity":39,"Duration":1075075,"SoundDuration":1075075,"Delta":86019345},{"NoteNumber":58,"Velocity":46,"Duration":806307,"SoundDuration":806307,"Delta":86019345},{"NoteNumber":37,"Velocity":28,"Duration":1075075,"SoundDuration":1075075,"Delta":86019345},{"NoteNumber":42,"Velocity":34,"Duration":1075075,"SoundDuration":1075075,"Delta":86019345},{"NoteNumber":49,"Velocity":34,"Duration":1075075,"SoundDuration":1075075,"Delta":86019345},{"NoteNumber":58,"Velocity":41,"Duration":268768,"SoundDuration":268768,"Delta":86825652},{"NoteNumber":53,"Velocity":39,"Duration":1067235,"SoundDuration":1067235,"Delta":87094421},{"NoteNumber":58,"Velocity":46,"Duration":1067235,"SoundDuration":1067235,"Delta":87094421},{"NoteNumber":34,"Velocity":32,"Duration":1067235,"SoundDuration":1067235,"Delta":87094421},{"NoteNumber":41,"Velocity":32,"Duration":1067235,"SoundDuration":1067235,"Delta":87094421},{"NoteNumber":46,"Velocity":39,"Duration":1067235,"SoundDuration":1067235,"Delta":87094421},{"NoteNumber":61,"Velocity":54,"Duration":783289,"SoundDuration":783289,"Delta":88161657},{"NoteNumber":54,"Velocity":44,"Duration":1044386,"SoundDuration":1044386,"Delta":88161657},{"NoteNumber":37,"Velocity":25,"Duration":1044386,"SoundDuration":1044386,"Delta":88161657},{"NoteNumber":42,"Velocity":31,"Duration":1044386,"SoundDuration":1044386,"Delta":88161657},{"NoteNumber":49,"Velocity":31,"Duration":1044386,"SoundDuration":1044386,"Delta":88161657},{"NoteNumber":60,"Velocity":49,"Duration":130548,"SoundDuration":130548,"Delta":88944947},{"NoteNumber":61,"Velocity":45,"Duration":130548,"SoundDuration":130548,"Delta":89075495},{"NoteNumber":60,"Velocity":52,"Duration":783289,"SoundDuration":783289,"Delta":89206043},{"NoteNumber":53,"Velocity":44,"Duration":1044386,"SoundDuration":1044386,"Delta":89206043},{"NoteNumber":34,"Velocity":32,"Duration":1044386,"SoundDuration":1044386,"Delta":89206043},{"NoteNumber":41,"Velocity":32,"Duration":1044386,"SoundDuration":1044386,"Delta":89206043},{"NoteNumber":46,"Velocity":39,"Duration":1044386,"SoundDuration":1044386,"Delta":89206043},{"NoteNumber":58,"Velocity":46,"Duration":261096,"SoundDuration":261096,"Delta":89989333},{"NoteNumber":54,"Velocity":42,"Duration":1059509,"SoundDuration":1059509,"Delta":90250429},{"NoteNumber":58,"Velocity":50,"Duration":794631,"SoundDuration":794631,"Delta":90250429},{"NoteNumber":37,"Velocity":28,"Duration":1059509,"SoundDuration":1059509,"Delta":90250429},{"NoteNumber":42,"Velocity":28,"Duration":1059509,"SoundDuration":1059509,"Delta":90250429},{"NoteNumber":49,"Velocity":34,"Duration":1059509,"SoundDuration":1059509,"Delta":90250429},{"NoteNumber":58,"Velocity":41,"Duration":264877,"SoundDuration":264877,"Delta":91045061},{"NoteNumber":53,"Velocity":39,"Duration":1075075,"SoundDuration":1075075,"Delta":91309938},{"NoteNumber":58,"Velocity":46,"Duration":1075075,"SoundDuration":1075075,"Delta":91309938},{"NoteNumber":34,"Velocity":32,"Duration":1075075,"SoundDuration":1075075,"Delta":91309938},{"NoteNumber":41,"Velocity":32,"Duration":1075075,"SoundDuration":1075075,"Delta":91309938},{"NoteNumber":46,"Velocity":39,"Duration":1075075,"SoundDuration":1075075,"Delta":91309938},{"NoteNumber":55,"Velocity":76,"Duration":806307,"SoundDuration":806307,"Delta":92385014},{"NoteNumber":61,"Velocity":97,"Duration":806307,"SoundDuration":806307,"Delta":92385014},{"NoteNumber":52,"Velocity":76,"Duration":806307,"SoundDuration":806307,"Delta":92385014},{"NoteNumber":33,"Velocity":57,"Duration":806307,"SoundDuration":806307,"Delta":92385014},{"NoteNumber":45,"Velocity":73,"Duration":806307,"SoundDuration":806307,"Delta":92385014},{"NoteNumber":54,"Velocity":76,"Duration":268769,"SoundDuration":268769,"Delta":93191321},{"NoteNumber":60,"Velocity":76,"Duration":268769,"SoundDuration":268769,"Delta":93191321},{"NoteNumber":63,"Velocity":97,"Duration":268769,"SoundDuration":268769,"Delta":93191321},{"NoteNumber":32,"Velocity":57,"Duration":268769,"SoundDuration":268769,"Delta":93191321},{"NoteNumber":44,"Velocity":73,"Duration":268769,"SoundDuration":268769,"Delta":93191321},{"NoteNumber":53,"Velocity":79,"Duration":1075075,"SoundDuration":1075075,"Delta":93460090},{"NoteNumber":61,"Velocity":79,"Duration":1075075,"SoundDuration":1075075,"Delta":93460090},{"NoteNumber":65,"Velocity":101,"Duration":1075075,"SoundDuration":1075075,"Delta":93460090},{"NoteNumber":25,"Velocity":60,"Duration":1075075,"SoundDuration":1075075,"Delta":93460090},{"NoteNumber":37,"Velocity":76,"Duration":1075075,"SoundDuration":1075075,"Delta":93460090},{"NoteNumber":77,"Velocity":93,"Duration":806307,"SoundDuration":806307,"Delta":94535166},{"NoteNumber":65,"Velocity":77,"Duration":806307,"SoundDuration":806307,"Delta":94535166},{"NoteNumber":73,"Velocity":77,"Duration":806307,"SoundDuration":806307,"Delta":94535166},{"NoteNumber":49,"Velocity":67,"Duration":806307,"SoundDuration":806307,"Delta":94535166},{"NoteNumber":56,"Velocity":67,"Duration":806307,"SoundDuration":806307,"Delta":94535166},{"NoteNumber":61,"Velocity":80,"Duration":806307,"SoundDuration":806307,"Delta":94535166},{"NoteNumber":66,"Velocity":77,"Duration":268768,"SoundDuration":268768,"Delta":95341473},{"NoteNumber":78,"Velocity":93,"Duration":268768,"SoundDuration":268768,"Delta":95341473},{"NoteNumber":63,"Velocity":80,"Duration":268768,"SoundDuration":268768,"Delta":95341473},{"NoteNumber":68,"Velocity":82,"Duration":806307,"SoundDuration":806307,"Delta":95610242},{"NoteNumber":73,"Velocity":82,"Duration":806307,"SoundDuration":806307,"Delta":95610242},{"NoteNumber":80,"Velocity":97,"Duration":806307,"SoundDuration":806307,"Delta":95610242},{"NoteNumber":49,"Velocity":71,"Duration":806307,"SoundDuration":806307,"Delta":95610242},{"NoteNumber":56,"Velocity":71,"Duration":806307,"SoundDuration":806307,"Delta":95610242},{"NoteNumber":65,"Velocity":85,"Duration":806307,"SoundDuration":806307,"Delta":95610242},{"NoteNumber":70,"Velocity":82,"Duration":268769,"SoundDuration":268769,"Delta":96416549},{"NoteNumber":82,"Velocity":97,"Duration":268769,"SoundDuration":268769,"Delta":96416549},{"NoteNumber":66,"Velocity":85,"Duration":268769,"SoundDuration":268769,"Delta":96416549},{"NoteNumber":72,"Velocity":88,"Duration":825687,"SoundDuration":825687,"Delta":96685318},{"NoteNumber":80,"Velocity":88,"Duration":825687,"SoundDuration":825687,"Delta":96685318},{"NoteNumber":84,"Velocity":105,"Duration":825687,"SoundDuration":825687,"Delta":96685318},{"NoteNumber":63,"Velocity":76,"Duration":825687,"SoundDuration":825687,"Delta":96685318},{"NoteNumber":56,"Velocity":76,"Duration":825687,"SoundDuration":825687,"Delta":96685318},{"NoteNumber":68,"Velocity":90,"Duration":825687,"SoundDuration":825687,"Delta":96685318},{"NoteNumber":73,"Velocity":92,"Duration":275229,"SoundDuration":275229,"Delta":97511006},{"NoteNumber":85,"Velocity":108,"Duration":275229,"SoundDuration":275229,"Delta":97511006},{"NoteNumber":65,"Velocity":89,"Duration":275229,"SoundDuration":275229,"Delta":97511006},{"NoteNumber":84,"Velocity":92,"Duration":3750001,"SoundDuration":3750001,"Delta":97786235},{"NoteNumber":80,"Velocity":92,"Duration":3750001,"SoundDuration":3750001,"Delta":97786235},{"NoteNumber":77,"Velocity":92,"Duration":2142858,"SoundDuration":2142858,"Delta":97786235},{"NoteNumber":89,"Velocity":109,"Duration":2142858,"SoundDuration":2142858,"Delta":97786235},{"NoteNumber":32,"Velocity":81,"Duration":1071428,"SoundDuration":1071428,"Delta":97786235},{"NoteNumber":44,"Velocity":96,"Duration":1071428,"SoundDuration":1071428,"Delta":97786235},{"NoteNumber":63,"Velocity":72,"Duration":803571,"SoundDuration":803571,"Delta":98857664},{"NoteNumber":66,"Velocity":72,"Duration":803571,"SoundDuration":803571,"Delta":98857664},{"NoteNumber":72,"Velocity":85,"Duration":803571,"SoundDuration":803571,"Delta":98857664},{"NoteNumber":61,"Velocity":67,"Duration":267857,"SoundDuration":267857,"Delta":99661236},{"NoteNumber":66,"Velocity":67,"Duration":267857,"SoundDuration":267857,"Delta":99661236},{"NoteNumber":70,"Velocity":79,"Duration":267857,"SoundDuration":267857,"Delta":99661236},{"NoteNumber":75,"Velocity":82,"Duration":1607143,"SoundDuration":1607143,"Delta":99929093},{"NoteNumber":87,"Velocity":99,"Duration":1607143,"SoundDuration":1607143,"Delta":99929093},{"NoteNumber":61,"Velocity":66,"Duration":803571,"SoundDuration":803571,"Delta":99929093},{"NoteNumber":66,"Velocity":66,"Duration":803571,"SoundDuration":803571,"Delta":99929093},{"NoteNumber":70,"Velocity":78,"Duration":803571,"SoundDuration":803571,"Delta":99929093},{"NoteNumber":60,"Velocity":61,"Duration":267857,"SoundDuration":267857,"Delta":100732665},{"NoteNumber":66,"Velocity":61,"Duration":267857,"SoundDuration":267857,"Delta":100732665},{"NoteNumber":68,"Velocity":73,"Duration":267857,"SoundDuration":267857,"Delta":100732665},{"NoteNumber":60,"Velocity":60,"Duration":803571,"SoundDuration":803571,"Delta":101000522},{"NoteNumber":66,"Velocity":60,"Duration":803571,"SoundDuration":803571,"Delta":101000522},{"NoteNumber":68,"Velocity":71,"Duration":803571,"SoundDuration":803571,"Delta":101000522},{"NoteNumber":66,"Velocity":75,"Duration":294117,"SoundDuration":294117,"Delta":101804094},{"NoteNumber":72,"Velocity":75,"Duration":294117,"SoundDuration":294117,"Delta":101804094},{"NoteNumber":75,"Velocity":75,"Duration":294117,"SoundDuration":294117,"Delta":101804094},{"NoteNumber":78,"Velocity":89,"Duration":294117,"SoundDuration":294117,"Delta":101804094},{"NoteNumber":57,"Velocity":66,"Duration":294117,"SoundDuration":294117,"Delta":101804094},{"NoteNumber":60,"Velocity":66,"Duration":294117,"SoundDuration":294117,"Delta":101804094},{"NoteNumber":63,"Velocity":77,"Duration":294117,"SoundDuration":294117,"Delta":101804094},{"NoteNumber":77,"Velocity":102,"Duration":1071428,"SoundDuration":1071428,"Delta":102098212},{"NoteNumber":65,"Velocity":80,"Duration":1071428,"SoundDuration":1071428,"Delta":102098212},{"NoteNumber":72,"Velocity":80,"Duration":1071428,"SoundDuration":1071428,"Delta":102098212},{"NoteNumber":75,"Velocity":80,"Duration":1071428,"SoundDuration":1071428,"Delta":102098212},{"NoteNumber":34,"Velocity":66,"Duration":1071428,"SoundDuration":1071428,"Delta":102098212},{"NoteNumber":46,"Velocity":78,"Duration":1071428,"SoundDuration":1071428,"Delta":102098212},{"NoteNumber":70,"Velocity":74,"Duration":803571,"SoundDuration":803571,"Delta":103169641},{"NoteNumber":65,"Velocity":74,"Duration":803571,"SoundDuration":803571,"Delta":103169641},{"NoteNumber":73,"Velocity":74,"Duration":803571,"SoundDuration":803571,"Delta":103169641},{"NoteNumber":77,"Velocity":89,"Duration":803571,"SoundDuration":803571,"Delta":103169641},{"NoteNumber":53,"Velocity":63,"Duration":1071429,"SoundDuration":1071429,"Delta":103169641},{"NoteNumber":58,"Velocity":63,"Duration":1071429,"SoundDuration":1071429,"Delta":103169641},{"NoteNumber":61,"Velocity":75,"Duration":1071429,"SoundDuration":1071429,"Delta":103169641},{"NoteNumber":67,"Velocity":74,"Duration":267857,"SoundDuration":267857,"Delta":103973213},{"NoteNumber":79,"Velocity":89,"Duration":267857,"SoundDuration":267857,"Delta":103973213},{"NoteNumber":77,"Velocity":78,"Duration":803571,"SoundDuration":803571,"Delta":104241070},{"NoteNumber":69,"Velocity":78,"Duration":803571,"SoundDuration":803571,"Delta":104241070},{"NoteNumber":73,"Velocity":78,"Duration":803571,"SoundDuration":803571,"Delta":104241070},{"NoteNumber":81,"Velocity":93,"Duration":803571,"SoundDuration":803571,"Delta":104241070},{"NoteNumber":37,"Velocity":68,"Duration":1071428,"SoundDuration":1071428,"Delta":104241070},{"NoteNumber":49,"Velocity":80,"Duration":1071428,"SoundDuration":1071428,"Delta":104241070},{"NoteNumber":70,"Velocity":78,"Duration":267857,"SoundDuration":267857,"Delta":105044642},{"NoteNumber":82,"Velocity":93,"Duration":267857,"SoundDuration":267857,"Delta":105044642},{"NoteNumber":72,"Velocity":84,"Duration":843834,"SoundDuration":843834,"Delta":105312499},{"NoteNumber":77,"Velocity":84,"Duration":843834,"SoundDuration":843834,"Delta":105312499},{"NoteNumber":84,"Velocity":99,"Duration":843834,"SoundDuration":843834,"Delta":105312499},{"NoteNumber":65,"Velocity":76,"Duration":1198543,"SoundDuration":1198543,"Delta":105312499},{"NoteNumber":61,"Velocity":64,"Duration":1198543,"SoundDuration":1198543,"Delta":105312499},{"NoteNumber":58,"Velocity":64,"Duration":1198543,"SoundDuration":1198543,"Delta":105312499},{"NoteNumber":53,"Velocity":64,"Duration":1198543,"SoundDuration":1198543,"Delta":105312499},{"NoteNumber":73,"Velocity":88,"Duration":164835,"SoundDuration":164835,"Delta":106156334},{"NoteNumber":85,"Velocity":102,"Duration":164835,"SoundDuration":164835,"Delta":106156334},{"NoteNumber":70,"Velocity":88,"Duration":2391707,"SoundDuration":2391707,"Delta":106321169},{"NoteNumber":76,"Velocity":88,"Duration":2328416,"SoundDuration":2328416,"Delta":106384460},{"NoteNumber":79,"Velocity":88,"Duration":2265125,"SoundDuration":2265125,"Delta":106447751},{"NoteNumber":85,"Velocity":103,"Duration":2201834,"SoundDuration":2201834,"Delta":106511042},{"NoteNumber":29,"Velocity":77,"Duration":1100916,"SoundDuration":1100916,"Delta":106511042},{"NoteNumber":41,"Velocity":92,"Duration":1100916,"SoundDuration":1100916,"Delta":106511042},{"NoteNumber":53,"Velocity":69,"Duration":1100917,"SoundDuration":1100917,"Delta":107611959},{"NoteNumber":58,"Velocity":69,"Duration":1100917,"SoundDuration":1100917,"Delta":107611959},{"NoteNumber":61,"Velocity":69,"Duration":1100917,"SoundDuration":1100917,"Delta":107611959},{"NoteNumber":67,"Velocity":81,"Duration":1100917,"SoundDuration":1100917,"Delta":107611959},{"NoteNumber":72,"Velocity":76,"Duration":1100916,"SoundDuration":1100916,"Delta":108712876},{"NoteNumber":77,"Velocity":76,"Duration":1100916,"SoundDuration":1100916,"Delta":108712876},{"NoteNumber":84,"Velocity":90,"Duration":1100916,"SoundDuration":1100916,"Delta":108712876},{"NoteNumber":53,"Velocity":64,"Duration":1100916,"SoundDuration":1100916,"Delta":108712876},{"NoteNumber":57,"Velocity":64,"Duration":1100916,"SoundDuration":1100916,"Delta":108712876},{"NoteNumber":60,"Velocity":64,"Duration":1100916,"SoundDuration":1100916,"Delta":108712876},{"NoteNumber":69,"Velocity":75,"Duration":1100916,"SoundDuration":1100916,"Delta":108712876},{"NoteNumber":53,"Velocity":81,"Duration":740740,"SoundDuration":740740,"Delta":109813793},{"NoteNumber":43,"Velocity":61,"Duration":101147,"SoundDuration":101147,"Delta":110554534},{"NoteNumber":44,"Velocity":61,"Duration":104726,"SoundDuration":104726,"Delta":110655681},{"NoteNumber":46,"Velocity":61,"Duration":108711,"SoundDuration":108711,"Delta":110760408},{"NoteNumber":56,"Velocity":68,"Duration":1066807,"SoundDuration":1066807,"Delta":110869119},{"NoteNumber":68,"Velocity":80,"Duration":1066807,"SoundDuration":1066807,"Delta":110869119},{"NoteNumber":60,"Velocity":68,"Duration":1066807,"SoundDuration":1066807,"Delta":110869119},{"NoteNumber":65,"Velocity":68,"Duration":1066807,"SoundDuration":1066807,"Delta":110869119},{"NoteNumber":54,"Velocity":68,"Duration":1066807,"SoundDuration":1066807,"Delta":110869119},{"NoteNumber":44,"Velocity":61,"Duration":104166,"SoundDuration":104166,"Delta":110869119},{"NoteNumber":46,"Velocity":56,"Duration":103954,"SoundDuration":103954,"Delta":110973286},{"NoteNumber":44,"Velocity":64,"Duration":102898,"SoundDuration":102898,"Delta":111077240},{"NoteNumber":46,"Velocity":57,"Duration":101863,"SoundDuration":101863,"Delta":111180138},{"NoteNumber":44,"Velocity":66,"Duration":100848,"SoundDuration":100848,"Delta":111282002},{"NoteNumber":46,"Velocity":59,"Duration":99853,"SoundDuration":99853,"Delta":111382850},{"NoteNumber":44,"Velocity":68,"Duration":98878,"SoundDuration":98878,"Delta":111482704},{"NoteNumber":46,"Velocity":61,"Duration":97921,"SoundDuration":97921,"Delta":111581582},{"NoteNumber":44,"Velocity":70,"Duration":96890,"SoundDuration":96890,"Delta":111679504},{"NoteNumber":46,"Velocity":65,"Duration":95972,"SoundDuration":95972,"Delta":111776394},{"NoteNumber":44,"Velocity":73,"Duration":95071,"SoundDuration":95071,"Delta":111872367},{"NoteNumber":54,"Velocity":68,"Duration":1033703,"SoundDuration":1033703,"Delta":111935927},{"NoteNumber":56,"Velocity":68,"Duration":1033703,"SoundDuration":1033703,"Delta":111935927},{"NoteNumber":60,"Velocity":68,"Duration":1033703,"SoundDuration":1033703,"Delta":111935927},{"NoteNumber":63,"Velocity":68,"Duration":1033703,"SoundDuration":1033703,"Delta":111935927},{"NoteNumber":68,"Velocity":80,"Duration":1033703,"SoundDuration":1033703,"Delta":111935927},{"NoteNumber":46,"Velocity":66,"Duration":94187,"SoundDuration":94187,"Delta":111967439},{"NoteNumber":44,"Velocity":72,"Duration":93750,"SoundDuration":93750,"Delta":112061627},{"NoteNumber":46,"Velocity":63,"Duration":94292,"SoundDuration":94292,"Delta":112157460},{"NoteNumber":44,"Velocity":69,"Duration":95160,"SoundDuration":95160,"Delta":112249652},{"NoteNumber":46,"Velocity":60,"Duration":98218,"SoundDuration":98218,"Delta":112344813},{"NoteNumber":44,"Velocity":66,"Duration":129685,"SoundDuration":129685,"Delta":112440876},{"NoteNumber":46,"Velocity":58,"Duration":131197,"SoundDuration":131197,"Delta":112570561},{"NoteNumber":43,"Velocity":64,"Duration":133138,"SoundDuration":133138,"Delta":112701759},{"NoteNumber":44,"Velocity":55,"Duration":134732,"SoundDuration":134732,"Delta":112834897},{"NoteNumber":53,"Velocity":68,"Duration":1100916,"SoundDuration":1100916,"Delta":112969630},{"NoteNumber":61,"Velocity":68,"Duration":1100916,"SoundDuration":1100916,"Delta":112969630},{"NoteNumber":68,"Velocity":80,"Duration":1100916,"SoundDuration":1100916,"Delta":112969630},{"NoteNumber":49,"Velocity":68,"Duration":1100916,"SoundDuration":1100916,"Delta":112969630},{"NoteNumber":49,"Velocity":68,"Duration":750000,"SoundDuration":750000,"Delta":114070547},{"NoteNumber":40,"Velocity":61,"Duration":102570,"SoundDuration":102570,"Delta":114820547},{"NoteNumber":41,"Velocity":61,"Duration":105827,"SoundDuration":105827,"Delta":114923118},{"NoteNumber":42,"Velocity":61,"Duration":109451,"SoundDuration":109451,"Delta":115028946},{"NoteNumber":65,"Velocity":80,"Duration":1066807,"SoundDuration":1066807,"Delta":115138397},{"NoteNumber":51,"Velocity":68,"Duration":1066807,"SoundDuration":1066807,"Delta":115138397},{"NoteNumber":61,"Velocity":68,"Duration":1066807,"SoundDuration":1066807,"Delta":115138397},{"NoteNumber":57,"Velocity":68,"Duration":1066807,"SoundDuration":1066807,"Delta":115138397},{"NoteNumber":41,"Velocity":61,"Duration":104166,"SoundDuration":104166,"Delta":115138397},{"NoteNumber":42,"Velocity":56,"Duration":103954,"SoundDuration":103954,"Delta":115242564},{"NoteNumber":41,"Velocity":64,"Duration":102898,"SoundDuration":102898,"Delta":115346518},{"NoteNumber":42,"Velocity":57,"Duration":101863,"SoundDuration":101863,"Delta":115449416},{"NoteNumber":41,"Velocity":66,"Duration":100848,"SoundDuration":100848,"Delta":115551279},{"NoteNumber":42,"Velocity":59,"Duration":99853,"SoundDuration":99853,"Delta":115652128},{"NoteNumber":41,"Velocity":68,"Duration":98878,"SoundDuration":98878,"Delta":115751982},{"NoteNumber":42,"Velocity":61,"Duration":97921,"SoundDuration":97921,"Delta":115850860},{"NoteNumber":41,"Velocity":70,"Duration":96890,"SoundDuration":96890,"Delta":115948782},{"NoteNumber":42,"Velocity":65,"Duration":95972,"SoundDuration":95972,"Delta":116045672},{"NoteNumber":41,"Velocity":73,"Duration":95071,"SoundDuration":95071,"Delta":116141645},{"NoteNumber":51,"Velocity":68,"Duration":1033703,"SoundDuration":1033703,"Delta":116205204},{"NoteNumber":57,"Velocity":68,"Duration":1033703,"SoundDuration":1033703,"Delta":116205204},{"NoteNumber":60,"Velocity":68,"Duration":1033703,"SoundDuration":1033703,"Delta":116205204},{"NoteNumber":65,"Velocity":80,"Duration":1033703,"SoundDuration":1033703,"Delta":116205204},{"NoteNumber":42,"Velocity":66,"Duration":94187,"SoundDuration":94187,"Delta":116236717},{"NoteNumber":41,"Velocity":72,"Duration":93750,"SoundDuration":93750,"Delta":116330905},{"NoteNumber":42,"Velocity":63,"Duration":94292,"SoundDuration":94292,"Delta":116426738},{"NoteNumber":41,"Velocity":69,"Duration":95160,"SoundDuration":95160,"Delta":116518930},{"NoteNumber":42,"Velocity":60,"Duration":98218,"SoundDuration":98218,"Delta":116614091},{"NoteNumber":41,"Velocity":66,"Duration":129685,"SoundDuration":129685,"Delta":116710154},{"NoteNumber":42,"Velocity":58,"Duration":131197,"SoundDuration":131197,"Delta":116839839},{"NoteNumber":40,"Velocity":64,"Duration":133138,"SoundDuration":133138,"Delta":116971037},{"NoteNumber":41,"Velocity":55,"Duration":134732,"SoundDuration":134732,"Delta":117104175},{"NoteNumber":49,"Velocity":68,"Duration":2255189,"SoundDuration":2255189,"Delta":117238908},{"NoteNumber":58,"Velocity":80,"Duration":2255189,"SoundDuration":2255189,"Delta":117238908},{"NoteNumber":42,"Velocity":64,"Duration":1100916,"SoundDuration":1100916,"Delta":117238908},{"NoteNumber":41,"Velocity":51,"Duration":566037,"SoundDuration":566037,"Delta":118339825},{"NoteNumber":37,"Velocity":39,"Duration":588235,"SoundDuration":588235,"Delta":118905863},{"NoteNumber":46,"Velocity":39,"Duration":1044386,"SoundDuration":1044386,"Delta":119494098},{"NoteNumber":53,"Velocity":39,"Duration":1044386,"SoundDuration":1044386,"Delta":119494098},{"NoteNumber":58,"Velocity":46,"Duration":1044386,"SoundDuration":1044386,"Delta":119494098},{"NoteNumber":34,"Velocity":32,"Duration":1044386,"SoundDuration":1044386,"Delta":119494098},{"NoteNumber":41,"Velocity":32,"Duration":1044386,"SoundDuration":1044386,"Delta":119494098},{"NoteNumber":46,"Velocity":39,"Duration":1044386,"SoundDuration":1044386,"Delta":119494098},{"NoteNumber":54,"Velocity":39,"Duration":1075075,"SoundDuration":1075075,"Delta":120538484},{"NoteNumber":58,"Velocity":46,"Duration":806307,"SoundDuration":806307,"Delta":120538484},{"NoteNumber":37,"Velocity":28,"Duration":1075075,"SoundDuration":1075075,"Delta":120538484},{"NoteNumber":42,"Velocity":34,"Duration":1075075,"SoundDuration":1075075,"Delta":120538484},{"NoteNumber":49,"Velocity":34,"Duration":1075075,"SoundDuration":1075075,"Delta":120538484},{"NoteNumber":58,"Velocity":41,"Duration":268768,"SoundDuration":268768,"Delta":121344791},{"NoteNumber":53,"Velocity":39,"Duration":1067235,"SoundDuration":1067235,"Delta":121613560},{"NoteNumber":58,"Velocity":46,"Duration":1067235,"SoundDuration":1067235,"Delta":121613560},{"NoteNumber":34,"Velocity":32,"Duration":1067235,"SoundDuration":1067235,"Delta":121613560},{"NoteNumber":41,"Velocity":32,"Duration":1067235,"SoundDuration":1067235,"Delta":121613560},{"NoteNumber":46,"Velocity":39,"Duration":1067235,"SoundDuration":1067235,"Delta":121613560},{"NoteNumber":61,"Velocity":54,"Duration":783289,"SoundDuration":783289,"Delta":122680796},{"NoteNumber":54,"Velocity":44,"Duration":1044386,"SoundDuration":1044386,"Delta":122680796},{"NoteNumber":37,"Velocity":25,"Duration":1044386,"SoundDuration":1044386,"Delta":122680796},{"NoteNumber":42,"Velocity":31,"Duration":1044386,"SoundDuration":1044386,"Delta":122680796},{"NoteNumber":49,"Velocity":31,"Duration":1044386,"SoundDuration":1044386,"Delta":122680796},{"NoteNumber":60,"Velocity":49,"Duration":130548,"SoundDuration":130548,"Delta":123464086},{"NoteNumber":61,"Velocity":45,"Duration":130548,"SoundDuration":130548,"Delta":123594634},{"NoteNumber":60,"Velocity":52,"Duration":783289,"SoundDuration":783289,"Delta":123725182},{"NoteNumber":53,"Velocity":44,"Duration":1044386,"SoundDuration":1044386,"Delta":123725182},{"NoteNumber":34,"Velocity":32,"Duration":1044386,"SoundDuration":1044386,"Delta":123725182},{"NoteNumber":41,"Velocity":32,"Duration":1044386,"SoundDuration":1044386,"Delta":123725182},{"NoteNumber":46,"Velocity":39,"Duration":1044386,"SoundDuration":1044386,"Delta":123725182},{"NoteNumber":58,"Velocity":46,"Duration":261096,"SoundDuration":261096,"Delta":124508472},{"NoteNumber":54,"Velocity":42,"Duration":1059509,"SoundDuration":1059509,"Delta":124769568},{"NoteNumber":58,"Velocity":50,"Duration":794631,"SoundDuration":794631,"Delta":124769568},{"NoteNumber":37,"Velocity":28,"Duration":1059509,"SoundDuration":1059509,"Delta":124769568},{"NoteNumber":42,"Velocity":28,"Duration":1059509,"SoundDuration":1059509,"Delta":124769568},{"NoteNumber":49,"Velocity":34,"Duration":1059509,"SoundDuration":1059509,"Delta":124769568},{"NoteNumber":58,"Velocity":41,"Duration":264877,"SoundDuration":264877,"Delta":125564200},{"NoteNumber":53,"Velocity":39,"Duration":1075075,"SoundDuration":1075075,"Delta":125829077},{"NoteNumber":58,"Velocity":46,"Duration":1075075,"SoundDuration":1075075,"Delta":125829077},{"NoteNumber":34,"Velocity":32,"Duration":1075075,"SoundDuration":1075075,"Delta":125829077},{"NoteNumber":41,"Velocity":32,"Duration":1075075,"SoundDuration":1075075,"Delta":125829077},{"NoteNumber":46,"Velocity":39,"Duration":1075075,"SoundDuration":1075075,"Delta":125829077},{"NoteNumber":32,"Velocity":32,"Duration":1075076,"SoundDuration":1075076,"Delta":126904153},{"NoteNumber":44,"Velocity":39,"Duration":1075076,"SoundDuration":1075076,"Delta":126904153},{"NoteNumber":77,"Velocity":54,"Duration":1979620,"SoundDuration":1979620,"Delta":127979229},{"NoteNumber":37,"Velocity":33,"Duration":511421,"SoundDuration":511421,"Delta":127979229},{"NoteNumber":44,"Velocity":27,"Duration":483792,"SoundDuration":483792,"Delta":128490651},{"NoteNumber":53,"Velocity":27,"Duration":487963,"SoundDuration":487963,"Delta":128974444},{"NoteNumber":61,"Velocity":28,"Duration":496442,"SoundDuration":496442,"Delta":129462408},{"NoteNumber":78,"Velocity":50,"Duration":496442,"SoundDuration":496442,"Delta":129958850},{"NoteNumber":37,"Velocity":33,"Duration":496442,"SoundDuration":496442,"Delta":129958850},{"NoteNumber":77,"Velocity":46,"Duration":475737,"SoundDuration":475737,"Delta":130455292},{"NoteNumber":44,"Velocity":27,"Duration":475737,"SoundDuration":475737,"Delta":130455292},{"NoteNumber":75,"Velocity":50,"Duration":475737,"SoundDuration":475737,"Delta":130931029},{"NoteNumber":53,"Velocity":27,"Duration":475737,"SoundDuration":475737,"Delta":130931029},{"NoteNumber":73,"Velocity":46,"Duration":492126,"SoundDuration":492126,"Delta":131406767},{"NoteNumber":61,"Velocity":28,"Duration":492126,"SoundDuration":492126,"Delta":131406767},{"NoteNumber":72,"Velocity":50,"Duration":995346,"SoundDuration":995346,"Delta":131898893},{"NoteNumber":39,"Velocity":33,"Duration":492126,"SoundDuration":492126,"Delta":131898893},{"NoteNumber":44,"Velocity":27,"Duration":503220,"SoundDuration":503220,"Delta":132391019},{"NoteNumber":82,"Velocity":54,"Duration":984251,"SoundDuration":984251,"Delta":132894239},{"NoteNumber":54,"Velocity":24,"Duration":492126,"SoundDuration":492126,"Delta":132894239},{"NoteNumber":60,"Velocity":24,"Duration":492125,"SoundDuration":492125,"Delta":133386365},{"NoteNumber":80,"Velocity":52,"Duration":1959142,"SoundDuration":1959142,"Delta":133878491},{"NoteNumber":39,"Velocity":31,"Duration":492126,"SoundDuration":492126,"Delta":133878491},{"NoteNumber":44,"Velocity":24,"Duration":479769,"SoundDuration":479769,"Delta":134370617},{"NoteNumber":54,"Velocity":27,"Duration":479769,"SoundDuration":479769,"Delta":134850387},{"NoteNumber":60,"Velocity":25,"Duration":507476,"SoundDuration":507476,"Delta":135330156},{"NoteNumber":78,"Velocity":51,"Duration":1969396,"SoundDuration":1969396,"Delta":135837633},{"NoteNumber":32,"Velocity":33,"Duration":509684,"SoundDuration":509684,"Delta":135837633},{"NoteNumber":44,"Velocity":29,"Duration":483792,"SoundDuration":483792,"Delta":136347317},{"NoteNumber":54,"Velocity":29,"Duration":483793,"SoundDuration":483793,"Delta":136831110},{"NoteNumber":60,"Velocity":30,"Duration":492126,"SoundDuration":492126,"Delta":137314903},{"NoteNumber":80,"Velocity":50,"Duration":492125,"SoundDuration":492125,"Delta":137807029},{"NoteNumber":32,"Velocity":36,"Duration":492125,"SoundDuration":492125,"Delta":137807029},{"NoteNumber":78,"Velocity":46,"Duration":475737,"SoundDuration":475737,"Delta":138299155},{"NoteNumber":44,"Velocity":30,"Duration":475737,"SoundDuration":475737,"Delta":138299155},{"NoteNumber":77,"Velocity":50,"Duration":475737,"SoundDuration":475737,"Delta":138774893},{"NoteNumber":54,"Velocity":30,"Duration":475737,"SoundDuration":475737,"Delta":138774893},{"NoteNumber":75,"Velocity":46,"Duration":496442,"SoundDuration":496442,"Delta":139250630},{"NoteNumber":60,"Velocity":31,"Duration":496442,"SoundDuration":496442,"Delta":139250630},{"NoteNumber":73,"Velocity":50,"Duration":992884,"SoundDuration":992884,"Delta":139747072},{"NoteNumber":37,"Velocity":36,"Duration":496442,"SoundDuration":496442,"Delta":139747072},{"NoteNumber":44,"Velocity":30,"Duration":496442,"SoundDuration":496442,"Delta":140243514},{"NoteNumber":85,"Velocity":53,"Duration":1006534,"SoundDuration":1006534,"Delta":140739956},{"NoteNumber":53,"Velocity":28,"Duration":496442,"SoundDuration":496442,"Delta":140739956},{"NoteNumber":61,"Velocity":25,"Duration":510092,"SoundDuration":510092,"Delta":141236398},{"NoteNumber":80,"Velocity":49,"Duration":1964172,"SoundDuration":1964172,"Delta":141746491},{"NoteNumber":37,"Velocity":33,"Duration":507476,"SoundDuration":507476,"Delta":141746491},{"NoteNumber":44,"Velocity":27,"Duration":475737,"SoundDuration":475737,"Delta":142253968},{"NoteNumber":53,"Velocity":29,"Duration":475737,"SoundDuration":475737,"Delta":142729705},{"NoteNumber":61,"Velocity":27,"Duration":505220,"SoundDuration":505220,"Delta":143205443},{"NoteNumber":77,"Velocity":52,"Duration":1956147,"SoundDuration":1956147,"Delta":143710663},{"NoteNumber":37,"Velocity":33,"Duration":492126,"SoundDuration":492126,"Delta":143710663},{"NoteNumber":44,"Velocity":27,"Duration":479769,"SoundDuration":479769,"Delta":144202789},{"NoteNumber":53,"Velocity":30,"Duration":492126,"SoundDuration":492126,"Delta":144682559},{"NoteNumber":61,"Velocity":28,"Duration":492125,"SoundDuration":492125,"Delta":145174685},{"NoteNumber":78,"Velocity":51,"Duration":479769,"SoundDuration":479769,"Delta":145666811},{"NoteNumber":34,"Velocity":33,"Duration":479769,"SoundDuration":479769,"Delta":145666811},{"NoteNumber":77,"Velocity":46,"Duration":479769,"SoundDuration":479769,"Delta":146146580},{"NoteNumber":46,"Velocity":29,"Duration":479769,"SoundDuration":479769,"Delta":146146580},{"NoteNumber":75,"Velocity":50,"Duration":479769,"SoundDuration":479769,"Delta":146626350},{"NoteNumber":56,"Velocity":29,"Duration":479769,"SoundDuration":479769,"Delta":146626350},{"NoteNumber":74,"Velocity":46,"Duration":269299,"SoundDuration":269299,"Delta":147106119},{"NoteNumber":62,"Velocity":30,"Duration":470318,"SoundDuration":470318,"Delta":147106119},{"NoteNumber":75,"Velocity":46,"Duration":100509,"SoundDuration":100509,"Delta":147375419},{"NoteNumber":77,"Velocity":42,"Duration":100509,"SoundDuration":100509,"Delta":147475928},{"NoteNumber":75,"Velocity":53,"Duration":469244,"SoundDuration":469244,"Delta":147576437},{"NoteNumber":39,"Velocity":33,"Duration":469244,"SoundDuration":469244,"Delta":147576437},{"NoteNumber":74,"Velocity":51,"Duration":467945,"SoundDuration":467945,"Delta":148045682},{"NoteNumber":46,"Velocity":30,"Duration":467945,"SoundDuration":467945,"Delta":148045682},{"NoteNumber":75,"Velocity":54,"Duration":467945,"SoundDuration":467945,"Delta":148513627},{"NoteNumber":54,"Velocity":30,"Duration":467945,"SoundDuration":467945,"Delta":148513627},{"NoteNumber":77,"Velocity":55,"Duration":475737,"SoundDuration":475737,"Delta":148981573},{"NoteNumber":63,"Velocity":27,"Duration":475737,"SoundDuration":475737,"Delta":148981573},{"NoteNumber":78,"Velocity":57,"Duration":475737,"SoundDuration":475737,"Delta":149457310},{"NoteNumber":42,"Velocity":33,"Duration":475737,"SoundDuration":475737,"Delta":149457310},{"NoteNumber":70,"Velocity":52,"Duration":475737,"SoundDuration":475737,"Delta":149933048},{"NoteNumber":51,"Velocity":29,"Duration":475737,"SoundDuration":475737,"Delta":149933048},{"NoteNumber":77,"Velocity":57,"Duration":496442,"SoundDuration":496442,"Delta":150408785},{"NoteNumber":58,"Velocity":30,"Duration":496442,"SoundDuration":496442,"Delta":150408785},{"NoteNumber":75,"Velocity":50,"Duration":291262,"SoundDuration":291262,"Delta":150905227},{"NoteNumber":63,"Velocity":27,"Duration":291262,"SoundDuration":291262,"Delta":150905227},{"NoteNumber":72,"Velocity":39,"Duration":102669,"SoundDuration":102669,"Delta":151196489},{"NoteNumber":73,"Velocity":39,"Duration":99247,"SoundDuration":99247,"Delta":151299159},{"NoteNumber":73,"Velocity":39,"Duration":93890,"SoundDuration":93890,"Delta":151401828},{"NoteNumber":43,"Velocity":33,"Duration":497877,"SoundDuration":497877,"Delta":151401828},{"NoteNumber":75,"Velocity":36,"Duration":93890,"SoundDuration":93890,"Delta":151495719},{"NoteNumber":73,"Velocity":40,"Duration":93621,"SoundDuration":93621,"Delta":151589610},{"NoteNumber":75,"Velocity":37,"Duration":93082,"SoundDuration":93082,"Delta":151683231},{"NoteNumber":73,"Velocity":42,"Duration":92633,"SoundDuration":92633,"Delta":151776314},{"NoteNumber":75,"Velocity":38,"Duration":92273,"SoundDuration":92273,"Delta":151868947},{"NoteNumber":52,"Velocity":28,"Duration":485901,"SoundDuration":485901,"Delta":151899705},{"NoteNumber":73,"Velocity":44,"Duration":91666,"SoundDuration":91666,"Delta":151961221},{"NoteNumber":75,"Velocity":39,"Duration":91493,"SoundDuration":91493,"Delta":152052888},{"NoteNumber":73,"Velocity":46,"Duration":90711,"SoundDuration":90711,"Delta":152144381},{"NoteNumber":75,"Velocity":42,"Duration":90543,"SoundDuration":90543,"Delta":152235092},{"NoteNumber":73,"Velocity":48,"Duration":89956,"SoundDuration":89956,"Delta":152325636},{"NoteNumber":61,"Velocity":28,"Duration":483193,"SoundDuration":483193,"Delta":152385607},{"NoteNumber":75,"Velocity":42,"Duration":89620,"SoundDuration":89620,"Delta":152415592},{"NoteNumber":73,"Velocity":47,"Duration":89620,"SoundDuration":89620,"Delta":152505213},{"NoteNumber":75,"Velocity":40,"Duration":90476,"SoundDuration":90476,"Delta":152596833},{"NoteNumber":73,"Velocity":44,"Duration":91319,"SoundDuration":91319,"Delta":152685294},{"NoteNumber":75,"Velocity":38,"Duration":94255,"SoundDuration":94255,"Delta":152776613},{"NoteNumber":73,"Velocity":42,"Duration":125573,"SoundDuration":125573,"Delta":152868800},{"NoteNumber":70,"Velocity":29,"Duration":535595,"SoundDuration":535595,"Delta":152868800},{"NoteNumber":75,"Velocity":37,"Duration":132611,"SoundDuration":132611,"Delta":152994373},{"NoteNumber":72,"Velocity":40,"Duration":141351,"SoundDuration":141351,"Delta":153126985},{"NoteNumber":73,"Velocity":35,"Duration":136059,"SoundDuration":136059,"Delta":153268336},{"NoteNumber":82,"Velocity":54,"Duration":492126,"SoundDuration":492126,"Delta":153404395},{"NoteNumber":44,"Velocity":33,"Duration":492126,"SoundDuration":492126,"Delta":153404395},{"NoteNumber":80,"Velocity":50,"Duration":492125,"SoundDuration":492125,"Delta":153896521},{"NoteNumber":51,"Velocity":28,"Duration":492125,"SoundDuration":492125,"Delta":153896521},{"NoteNumber":78,"Velocity":52,"Duration":505220,"SoundDuration":505220,"Delta":154388647},{"NoteNumber":60,"Velocity":30,"Duration":505220,"SoundDuration":505220,"Delta":154388647},{"NoteNumber":68,"Velocity":50,"Duration":505220,"SoundDuration":505220,"Delta":154893868},{"NoteNumber":66,"Velocity":30,"Duration":505220,"SoundDuration":505220,"Delta":154893868},{"NoteNumber":75,"Velocity":54,"Duration":2007787,"SoundDuration":2007787,"Delta":155399088},{"NoteNumber":32,"Velocity":33,"Duration":505220,"SoundDuration":505220,"Delta":155399088},{"NoteNumber":44,"Velocity":27,"Duration":492126,"SoundDuration":492126,"Delta":155904309},{"NoteNumber":54,"Velocity":27,"Duration":505220,"SoundDuration":505220,"Delta":156396435},{"NoteNumber":60,"Velocity":26,"Duration":505220,"SoundDuration":505220,"Delta":156901655},{"NoteNumber":73,"Velocity":50,"Duration":1010441,"SoundDuration":1010441,"Delta":157406876},{"NoteNumber":37,"Velocity":31,"Duration":505220,"SoundDuration":505220,"Delta":157406876},{"NoteNumber":44,"Velocity":28,"Duration":505220,"SoundDuration":505220,"Delta":157912096},{"NoteNumber":53,"Velocity":28,"Duration":505220,"SoundDuration":505220,"Delta":158417317},{"NoteNumber":61,"Velocity":28,"Duration":538599,"SoundDuration":538599,"Delta":158922537},{"NoteNumber":77,"Velocity":54,"Duration":1982513,"SoundDuration":1982513,"Delta":159461137},{"NoteNumber":37,"Velocity":33,"Duration":514315,"SoundDuration":514315,"Delta":159461137},{"NoteNumber":44,"Velocity":27,"Duration":483792,"SoundDuration":483792,"Delta":159975452},{"NoteNumber":53,"Velocity":27,"Duration":487963,"SoundDuration":487963,"Delta":160459245},{"NoteNumber":61,"Velocity":28,"Duration":496442,"SoundDuration":496442,"Delta":160947208},{"NoteNumber":78,"Velocity":50,"Duration":496442,"SoundDuration":496442,"Delta":161443650},{"NoteNumber":37,"Velocity":33,"Duration":496442,"SoundDuration":496442,"Delta":161443650},{"NoteNumber":77,"Velocity":46,"Duration":475737,"SoundDuration":475737,"Delta":161940092},{"NoteNumber":44,"Velocity":27,"Duration":475737,"SoundDuration":475737,"Delta":161940092},{"NoteNumber":75,"Velocity":50,"Duration":475737,"SoundDuration":475737,"Delta":162415830},{"NoteNumber":53,"Velocity":27,"Duration":475737,"SoundDuration":475737,"Delta":162415830},{"NoteNumber":73,"Velocity":46,"Duration":492126,"SoundDuration":492126,"Delta":162891567},{"NoteNumber":61,"Velocity":28,"Duration":492126,"SoundDuration":492126,"Delta":162891567},{"NoteNumber":72,"Velocity":50,"Duration":995346,"SoundDuration":995346,"Delta":163383693},{"NoteNumber":39,"Velocity":33,"Duration":492126,"SoundDuration":492126,"Delta":163383693},{"NoteNumber":44,"Velocity":27,"Duration":503220,"SoundDuration":503220,"Delta":163875819},{"NoteNumber":82,"Velocity":54,"Duration":984251,"SoundDuration":984251,"Delta":164379040},{"NoteNumber":54,"Velocity":24,"Duration":492126,"SoundDuration":492126,"Delta":164379040},{"NoteNumber":60,"Velocity":24,"Duration":492125,"SoundDuration":492125,"Delta":164871166},{"NoteNumber":80,"Velocity":52,"Duration":1959142,"SoundDuration":1959142,"Delta":165363292},{"NoteNumber":39,"Velocity":31,"Duration":492126,"SoundDuration":492126,"Delta":165363292},{"NoteNumber":44,"Velocity":24,"Duration":479769,"SoundDuration":479769,"Delta":165855418},{"NoteNumber":54,"Velocity":27,"Duration":479769,"SoundDuration":479769,"Delta":166335187},{"NoteNumber":60,"Velocity":25,"Duration":507476,"SoundDuration":507476,"Delta":166814957},{"NoteNumber":78,"Velocity":51,"Duration":1969396,"SoundDuration":1969396,"Delta":167322434},{"NoteNumber":32,"Velocity":33,"Duration":509683,"SoundDuration":509683,"Delta":167322434},{"NoteNumber":44,"Velocity":29,"Duration":483792,"SoundDuration":483792,"Delta":167832118},{"NoteNumber":54,"Velocity":29,"Duration":483793,"SoundDuration":483793,"Delta":168315911},{"NoteNumber":60,"Velocity":30,"Duration":492126,"SoundDuration":492126,"Delta":168799704},{"NoteNumber":80,"Velocity":50,"Duration":492125,"SoundDuration":492125,"Delta":169291830},{"NoteNumber":32,"Velocity":36,"Duration":492125,"SoundDuration":492125,"Delta":169291830},{"NoteNumber":78,"Velocity":46,"Duration":475737,"SoundDuration":475737,"Delta":169783956},{"NoteNumber":44,"Velocity":30,"Duration":475737,"SoundDuration":475737,"Delta":169783956},{"NoteNumber":77,"Velocity":50,"Duration":475737,"SoundDuration":475737,"Delta":170259693},{"NoteNumber":54,"Velocity":30,"Duration":475737,"SoundDuration":475737,"Delta":170259693},{"NoteNumber":75,"Velocity":46,"Duration":496442,"SoundDuration":496442,"Delta":170735431},{"NoteNumber":60,"Velocity":31,"Duration":496442,"SoundDuration":496442,"Delta":170735431},{"NoteNumber":73,"Velocity":50,"Duration":992884,"SoundDuration":992884,"Delta":171231873},{"NoteNumber":37,"Velocity":36,"Duration":496442,"SoundDuration":496442,"Delta":171231873},{"NoteNumber":44,"Velocity":30,"Duration":496442,"SoundDuration":496442,"Delta":171728315},{"NoteNumber":85,"Velocity":53,"Duration":1006534,"SoundDuration":1006534,"Delta":172224757},{"NoteNumber":53,"Velocity":28,"Duration":496442,"SoundDuration":496442,"Delta":172224757},{"NoteNumber":61,"Velocity":25,"Duration":510092,"SoundDuration":510092,"Delta":172721199},{"NoteNumber":80,"Velocity":49,"Duration":1964172,"SoundDuration":1964172,"Delta":173231291},{"NoteNumber":37,"Velocity":33,"Duration":507476,"SoundDuration":507476,"Delta":173231291},{"NoteNumber":44,"Velocity":27,"Duration":475737,"SoundDuration":475737,"Delta":173738768},{"NoteNumber":53,"Velocity":29,"Duration":475737,"SoundDuration":475737,"Delta":174214506},{"NoteNumber":61,"Velocity":27,"Duration":505220,"SoundDuration":505220,"Delta":174690243},{"NoteNumber":77,"Velocity":52,"Duration":1956147,"SoundDuration":1956147,"Delta":175195464},{"NoteNumber":37,"Velocity":33,"Duration":492126,"SoundDuration":492126,"Delta":175195464},{"NoteNumber":44,"Velocity":27,"Duration":479769,"SoundDuration":479769,"Delta":175687590},{"NoteNumber":53,"Velocity":30,"Duration":492126,"SoundDuration":492126,"Delta":176167359},{"NoteNumber":61,"Velocity":28,"Duration":492125,"SoundDuration":492125,"Delta":176659485},{"NoteNumber":78,"Velocity":51,"Duration":479769,"SoundDuration":479769,"Delta":177151611},{"NoteNumber":34,"Velocity":33,"Duration":479769,"SoundDuration":479769,"Delta":177151611},{"NoteNumber":77,"Velocity":46,"Duration":479769,"SoundDuration":479769,"Delta":177631381},{"NoteNumber":46,"Velocity":29,"Duration":479769,"SoundDuration":479769,"Delta":177631381},{"NoteNumber":75,"Velocity":50,"Duration":479769,"SoundDuration":479769,"Delta":178111150},{"NoteNumber":56,"Velocity":29,"Duration":479769,"SoundDuration":479769,"Delta":178111150},{"NoteNumber":74,"Velocity":46,"Duration":269299,"SoundDuration":269299,"Delta":178590920},{"NoteNumber":62,"Velocity":30,"Duration":470318,"SoundDuration":470318,"Delta":178590920},{"NoteNumber":75,"Velocity":46,"Duration":100509,"SoundDuration":100509,"Delta":178860219},{"NoteNumber":77,"Velocity":42,"Duration":100509,"SoundDuration":100509,"Delta":178960729},{"NoteNumber":75,"Velocity":53,"Duration":469244,"SoundDuration":469244,"Delta":179061238},{"NoteNumber":39,"Velocity":33,"Duration":469244,"SoundDuration":469244,"Delta":179061238},{"NoteNumber":74,"Velocity":51,"Duration":467945,"SoundDuration":467945,"Delta":179530482},{"NoteNumber":46,"Velocity":30,"Duration":467945,"SoundDuration":467945,"Delta":179530482},{"NoteNumber":75,"Velocity":54,"Duration":467945,"SoundDuration":467945,"Delta":179998427},{"NoteNumber":54,"Velocity":30,"Duration":467945,"SoundDuration":467945,"Delta":179998427},{"NoteNumber":77,"Velocity":55,"Duration":475737,"SoundDuration":475737,"Delta":180466373},{"NoteNumber":63,"Velocity":27,"Duration":475737,"SoundDuration":475737,"Delta":180466373},{"NoteNumber":78,"Velocity":57,"Duration":475737,"SoundDuration":475737,"Delta":180942110},{"NoteNumber":42,"Velocity":33,"Duration":475737,"SoundDuration":475737,"Delta":180942110},{"NoteNumber":70,"Velocity":52,"Duration":475737,"SoundDuration":475737,"Delta":181417848},{"NoteNumber":51,"Velocity":29,"Duration":475737,"SoundDuration":475737,"Delta":181417848},{"NoteNumber":77,"Velocity":57,"Duration":496442,"SoundDuration":496442,"Delta":181893585},{"NoteNumber":58,"Velocity":30,"Duration":496442,"SoundDuration":496442,"Delta":181893585},{"NoteNumber":75,"Velocity":50,"Duration":291262,"SoundDuration":291262,"Delta":182390027},{"NoteNumber":63,"Velocity":27,"Duration":291262,"SoundDuration":291262,"Delta":182390027},{"NoteNumber":72,"Velocity":39,"Duration":102669,"SoundDuration":102669,"Delta":182681290},{"NoteNumber":73,"Velocity":39,"Duration":102669,"SoundDuration":102669,"Delta":182783959},{"NoteNumber":73,"Velocity":39,"Duration":93890,"SoundDuration":93890,"Delta":182886628},{"NoteNumber":43,"Velocity":33,"Duration":497877,"SoundDuration":497877,"Delta":182886628},{"NoteNumber":75,"Velocity":36,"Duration":93890,"SoundDuration":93890,"Delta":182980519},{"NoteNumber":73,"Velocity":40,"Duration":93621,"SoundDuration":93621,"Delta":183074410},{"NoteNumber":75,"Velocity":37,"Duration":93082,"SoundDuration":93082,"Delta":183168032},{"NoteNumber":73,"Velocity":42,"Duration":92633,"SoundDuration":92633,"Delta":183261114},{"NoteNumber":75,"Velocity":38,"Duration":92273,"SoundDuration":92273,"Delta":183353748},{"NoteNumber":52,"Velocity":28,"Duration":485901,"SoundDuration":485901,"Delta":183384506},{"NoteNumber":73,"Velocity":44,"Duration":91666,"SoundDuration":91666,"Delta":183446021},{"NoteNumber":75,"Velocity":39,"Duration":91493,"SoundDuration":91493,"Delta":183537688},{"NoteNumber":73,"Velocity":46,"Duration":90711,"SoundDuration":90711,"Delta":183629181},{"NoteNumber":75,"Velocity":42,"Duration":90543,"SoundDuration":90543,"Delta":183719892},{"NoteNumber":73,"Velocity":48,"Duration":89956,"SoundDuration":89956,"Delta":183810436},{"NoteNumber":61,"Velocity":28,"Duration":483193,"SoundDuration":483193,"Delta":183870407},{"NoteNumber":75,"Velocity":42,"Duration":89620,"SoundDuration":89620,"Delta":183900393},{"NoteNumber":73,"Velocity":47,"Duration":89620,"SoundDuration":89620,"Delta":183990013},{"NoteNumber":75,"Velocity":40,"Duration":90476,"SoundDuration":90476,"Delta":184081633},{"NoteNumber":73,"Velocity":44,"Duration":91319,"SoundDuration":91319,"Delta":184170094},{"NoteNumber":75,"Velocity":38,"Duration":94255,"SoundDuration":94255,"Delta":184261413},{"NoteNumber":73,"Velocity":42,"Duration":125573,"SoundDuration":125573,"Delta":184353600},{"NoteNumber":70,"Velocity":29,"Duration":535595,"SoundDuration":535595,"Delta":184353600},{"NoteNumber":75,"Velocity":37,"Duration":132611,"SoundDuration":132611,"Delta":184479173},{"NoteNumber":72,"Velocity":40,"Duration":141351,"SoundDuration":141351,"Delta":184611785},{"NoteNumber":73,"Velocity":35,"Duration":136059,"SoundDuration":136059,"Delta":184753136},{"NoteNumber":82,"Velocity":54,"Duration":492126,"SoundDuration":492126,"Delta":184889195},{"NoteNumber":44,"Velocity":33,"Duration":492126,"SoundDuration":492126,"Delta":184889195},{"NoteNumber":80,"Velocity":50,"Duration":492125,"SoundDuration":492125,"Delta":185381321},{"NoteNumber":51,"Velocity":28,"Duration":492125,"SoundDuration":492125,"Delta":185381321},{"NoteNumber":78,"Velocity":52,"Duration":505220,"SoundDuration":505220,"Delta":185873447},{"NoteNumber":60,"Velocity":30,"Duration":505220,"SoundDuration":505220,"Delta":185873447},{"NoteNumber":68,"Velocity":50,"Duration":505220,"SoundDuration":505220,"Delta":186378668},{"NoteNumber":66,"Velocity":30,"Duration":505220,"SoundDuration":505220,"Delta":186378668},{"NoteNumber":75,"Velocity":54,"Duration":2007787,"SoundDuration":2007787,"Delta":186883888},{"NoteNumber":32,"Velocity":33,"Duration":505220,"SoundDuration":505220,"Delta":186883888},{"NoteNumber":44,"Velocity":27,"Duration":492126,"SoundDuration":492126,"Delta":187389109},{"NoteNumber":54,"Velocity":27,"Duration":505220,"SoundDuration":505220,"Delta":187881235},{"NoteNumber":60,"Velocity":26,"Duration":505220,"SoundDuration":505220,"Delta":188386455},{"NoteNumber":73,"Velocity":50,"Duration":1010441,"SoundDuration":1010441,"Delta":188891676},{"NoteNumber":37,"Velocity":31,"Duration":505220,"SoundDuration":505220,"Delta":188891676},{"NoteNumber":44,"Velocity":28,"Duration":505220,"SoundDuration":505220,"Delta":189396896},{"NoteNumber":53,"Velocity":28,"Duration":505220,"SoundDuration":505220,"Delta":189902117},{"NoteNumber":61,"Velocity":28,"Duration":538599,"SoundDuration":538599,"Delta":190407337},{"NoteNumber":72,"Velocity":56,"Duration":1982513,"SoundDuration":1982513,"Delta":190945937},{"NoteNumber":32,"Velocity":34,"Duration":514315,"SoundDuration":514315,"Delta":190945937},{"NoteNumber":44,"Velocity":28,"Duration":483792,"SoundDuration":483792,"Delta":191460252},{"NoteNumber":51,"Velocity":28,"Duration":487963,"SoundDuration":487963,"Delta":191944045},{"NoteNumber":60,"Velocity":29,"Duration":496442,"SoundDuration":496442,"Delta":192432008},{"NoteNumber":73,"Velocity":52,"Duration":496442,"SoundDuration":496442,"Delta":192928450},{"NoteNumber":32,"Velocity":34,"Duration":496442,"SoundDuration":496442,"Delta":192928450},{"NoteNumber":72,"Velocity":48,"Duration":475737,"SoundDuration":475737,"Delta":193424892},{"NoteNumber":44,"Velocity":28,"Duration":475737,"SoundDuration":475737,"Delta":193424892},{"NoteNumber":70,"Velocity":52,"Duration":475737,"SoundDuration":475737,"Delta":193900630},{"NoteNumber":51,"Velocity":28,"Duration":475737,"SoundDuration":475737,"Delta":193900630},{"NoteNumber":68,"Velocity":48,"Duration":492126,"SoundDuration":492126,"Delta":194376367},{"NoteNumber":60,"Velocity":29,"Duration":492126,"SoundDuration":492126,"Delta":194376367},{"NoteNumber":67,"Velocity":52,"Duration":995346,"SoundDuration":995346,"Delta":194868493},{"NoteNumber":34,"Velocity":34,"Duration":492126,"SoundDuration":492126,"Delta":194868493},{"NoteNumber":46,"Velocity":28,"Duration":503220,"SoundDuration":503220,"Delta":195360619},{"NoteNumber":77,"Velocity":56,"Duration":984251,"SoundDuration":984251,"Delta":195863840},{"NoteNumber":51,"Velocity":25,"Duration":492126,"SoundDuration":492126,"Delta":195863840},{"NoteNumber":61,"Velocity":25,"Duration":492125,"SoundDuration":492125,"Delta":196355966},{"NoteNumber":75,"Velocity":54,"Duration":1959142,"SoundDuration":1959142,"Delta":196848092},{"NoteNumber":34,"Velocity":32,"Duration":492126,"SoundDuration":492126,"Delta":196848092},{"NoteNumber":46,"Velocity":25,"Duration":479769,"SoundDuration":479769,"Delta":197340218},{"NoteNumber":51,"Velocity":28,"Duration":479769,"SoundDuration":479769,"Delta":197819987},{"NoteNumber":61,"Velocity":26,"Duration":507476,"SoundDuration":507476,"Delta":198299757},{"NoteNumber":73,"Velocity":55,"Duration":1969396,"SoundDuration":1969396,"Delta":198807234},{"NoteNumber":34,"Velocity":36,"Duration":509683,"SoundDuration":509683,"Delta":198807234},{"NoteNumber":46,"Velocity":31,"Duration":483792,"SoundDuration":483792,"Delta":199316918},{"NoteNumber":52,"Velocity":31,"Duration":483793,"SoundDuration":483793,"Delta":199800711},{"NoteNumber":61,"Velocity":33,"Duration":492126,"SoundDuration":492126,"Delta":200284504},{"NoteNumber":75,"Velocity":55,"Duration":492125,"SoundDuration":492125,"Delta":200776630},{"NoteNumber":34,"Velocity":39,"Duration":492125,"SoundDuration":492125,"Delta":200776630},{"NoteNumber":73,"Velocity":50,"Duration":462872,"SoundDuration":462872,"Delta":201268756},{"NoteNumber":46,"Velocity":33,"Duration":462872,"SoundDuration":462872,"Delta":201268756},{"NoteNumber":72,"Velocity":55,"Duration":475737,"SoundDuration":475737,"Delta":201731628},{"NoteNumber":52,"Velocity":33,"Duration":475737,"SoundDuration":475737,"Delta":201731628},{"NoteNumber":70,"Velocity":51,"Duration":496442,"SoundDuration":496442,"Delta":202207366},{"NoteNumber":61,"Velocity":34,"Duration":496442,"SoundDuration":496442,"Delta":202207366},{"NoteNumber":69,"Velocity":55,"Duration":972326,"SoundDuration":972326,"Delta":202703808},{"NoteNumber":36,"Velocity":40,"Duration":496442,"SoundDuration":496442,"Delta":202703808},{"NoteNumber":48,"Velocity":33,"Duration":475884,"SoundDuration":475884,"Delta":203200250},{"NoteNumber":78,"Velocity":59,"Duration":1006534,"SoundDuration":1006534,"Delta":203676134},{"NoteNumber":54,"Velocity":31,"Duration":496442,"SoundDuration":496442,"Delta":203676134},{"NoteNumber":63,"Velocity":28,"Duration":510092,"SoundDuration":510092,"Delta":204172576},{"NoteNumber":77,"Velocity":55,"Duration":1964172,"SoundDuration":1964172,"Delta":204682668},{"NoteNumber":36,"Velocity":37,"Duration":507476,"SoundDuration":507476,"Delta":204682668},{"NoteNumber":48,"Velocity":30,"Duration":475737,"SoundDuration":475737,"Delta":205190145},{"NoteNumber":51,"Velocity":33,"Duration":475737,"SoundDuration":475737,"Delta":205665883},{"NoteNumber":63,"Velocity":30,"Duration":505220,"SoundDuration":505220,"Delta":206141620},{"NoteNumber":77,"Velocity":59,"Duration":1939759,"SoundDuration":1939759,"Delta":206646841},{"NoteNumber":37,"Velocity":37,"Duration":492126,"SoundDuration":492126,"Delta":206646841},{"NoteNumber":49,"Velocity":31,"Duration":479769,"SoundDuration":479769,"Delta":207138967},{"NoteNumber":58,"Velocity":34,"Duration":475737,"SoundDuration":475737,"Delta":207618736},{"NoteNumber":65,"Velocity":32,"Duration":492126,"SoundDuration":492126,"Delta":208094474},{"NoteNumber":78,"Velocity":58,"Duration":479769,"SoundDuration":479769,"Delta":208586600},{"NoteNumber":37,"Velocity":37,"Duration":479769,"SoundDuration":479769,"Delta":208586600},{"NoteNumber":77,"Velocity":52,"Duration":479769,"SoundDuration":479769,"Delta":209066369},{"NoteNumber":49,"Velocity":33,"Duration":479769,"SoundDuration":479769,"Delta":209066369},{"NoteNumber":75,"Velocity":57,"Duration":479769,"SoundDuration":479769,"Delta":209546139},{"NoteNumber":58,"Velocity":33,"Duration":479769,"SoundDuration":479769,"Delta":209546139},{"NoteNumber":73,"Velocity":52,"Duration":481873,"SoundDuration":481873,"Delta":210025908},{"NoteNumber":65,"Velocity":34,"Duration":492126,"SoundDuration":492126,"Delta":210025908},{"NoteNumber":73,"Velocity":59,"Duration":956234,"SoundDuration":956234,"Delta":210518034},{"NoteNumber":39,"Velocity":40,"Duration":492125,"SoundDuration":492125,"Delta":210518034},{"NoteNumber":51,"Velocity":35,"Duration":464109,"SoundDuration":464109,"Delta":211010160},{"NoteNumber":72,"Velocity":57,"Duration":959539,"SoundDuration":959539,"Delta":211474269},{"NoteNumber":58,"Velocity":37,"Duration":479769,"SoundDuration":479769,"Delta":211474269},{"NoteNumber":66,"Velocity":33,"Duration":479769,"SoundDuration":479769,"Delta":211954039},{"NoteNumber":41,"Velocity":41,"Duration":479769,"SoundDuration":479769,"Delta":212433808},{"NoteNumber":72,"Velocity":56,"Duration":419798,"SoundDuration":419798,"Delta":212913578},{"NoteNumber":53,"Velocity":35,"Duration":479769,"SoundDuration":479769,"Delta":212913578},{"NoteNumber":75,"Velocity":55,"Duration":59971,"SoundDuration":59971,"Delta":213333376},{"NoteNumber":73,"Velocity":59,"Duration":725832,"SoundDuration":725832,"Delta":213393347},{"NoteNumber":58,"Velocity":37,"Duration":479769,"SoundDuration":479769,"Delta":213393347},{"NoteNumber":65,"Velocity":35,"Duration":492126,"SoundDuration":492126,"Delta":213873117},{"NoteNumber":72,"Velocity":58,"Duration":235810,"SoundDuration":235810,"Delta":214119180},{"NoteNumber":72,"Velocity":59,"Duration":956234,"SoundDuration":956234,"Delta":214365243},{"NoteNumber":42,"Velocity":40,"Duration":492125,"SoundDuration":492125,"Delta":214365243},{"NoteNumber":51,"Velocity":34,"Duration":464109,"SoundDuration":464109,"Delta":214857369},{"NoteNumber":70,"Velocity":56,"Duration":955909,"SoundDuration":955909,"Delta":215321478},{"NoteNumber":58,"Velocity":37,"Duration":487963,"SoundDuration":487963,"Delta":215321478},{"NoteNumber":63,"Velocity":33,"Duration":467945,"SoundDuration":467945,"Delta":215809441},{"NoteNumber":42,"Velocity":38,"Duration":487963,"SoundDuration":487963,"Delta":216277387},{"NoteNumber":72,"Velocity":56,"Duration":426968,"SoundDuration":426968,"Delta":216765350},{"NoteNumber":54,"Velocity":34,"Duration":487963,"SoundDuration":487963,"Delta":216765350},{"NoteNumber":75,"Velocity":59,"Duration":60995,"SoundDuration":60995,"Delta":217192319},{"NoteNumber":73,"Velocity":59,"Duration":731945,"SoundDuration":731945,"Delta":217253314},{"NoteNumber":58,"Velocity":37,"Duration":487963,"SoundDuration":487963,"Delta":217253314},{"NoteNumber":64,"Velocity":34,"Duration":487963,"SoundDuration":487963,"Delta":217741277},{"NoteNumber":72,"Velocity":56,"Duration":243981,"SoundDuration":243981,"Delta":217985259},{"NoteNumber":72,"Velocity":50,"Duration":975927,"SoundDuration":975927,"Delta":218229241},{"NoteNumber":41,"Velocity":36,"Duration":487963,"SoundDuration":487963,"Delta":218229241},{"NoteNumber":48,"Velocity":32,"Duration":487963,"SoundDuration":487963,"Delta":218717204},{"NoteNumber":77,"Velocity":55,"Duration":982221,"SoundDuration":982221,"Delta":219205168},{"NoteNumber":57,"Velocity":32,"Duration":488657,"SoundDuration":488657,"Delta":219205168},{"NoteNumber":65,"Velocity":31,"Duration":493564,"SoundDuration":493564,"Delta":219693825},{"NoteNumber":78,"Velocity":54,"Duration":1022118,"SoundDuration":1022118,"Delta":220187390},{"NoteNumber":39,"Velocity":35,"Duration":506337,"SoundDuration":506337,"Delta":220187390},{"NoteNumber":51,"Velocity":33,"Duration":515780,"SoundDuration":515780,"Delta":220693728},{"NoteNumber":68,"Velocity":46,"Duration":1127381,"SoundDuration":1127381,"Delta":221209508},{"NoteNumber":56,"Velocity":27,"Duration":550458,"SoundDuration":550458,"Delta":221209508},{"NoteNumber":66,"Velocity":26,"Duration":576922,"SoundDuration":576922,"Delta":221759967},{"NoteNumber":60,"Velocity":23,"Duration":576922,"SoundDuration":576922,"Delta":221759967},{"NoteNumber":77,"Velocity":54,"Duration":1992948,"SoundDuration":1992948,"Delta":222336890},{"NoteNumber":37,"Velocity":33,"Duration":524749,"SoundDuration":524749,"Delta":222336890},{"NoteNumber":44,"Velocity":27,"Duration":483792,"SoundDuration":483792,"Delta":222861640},{"NoteNumber":53,"Velocity":27,"Duration":487963,"SoundDuration":487963,"Delta":223345433},{"NoteNumber":61,"Velocity":28,"Duration":496442,"SoundDuration":496442,"Delta":223833396},{"NoteNumber":78,"Velocity":50,"Duration":496442,"SoundDuration":496442,"Delta":224329838},{"NoteNumber":37,"Velocity":33,"Duration":496442,"SoundDuration":496442,"Delta":224329838},{"NoteNumber":77,"Velocity":46,"Duration":475737,"SoundDuration":475737,"Delta":224826280},{"NoteNumber":44,"Velocity":27,"Duration":475737,"SoundDuration":475737,"Delta":224826280},{"NoteNumber":75,"Velocity":50,"Duration":475737,"SoundDuration":475737,"Delta":225302018},{"NoteNumber":53,"Velocity":27,"Duration":475737,"SoundDuration":475737,"Delta":225302018},{"NoteNumber":73,"Velocity":46,"Duration":492126,"SoundDuration":492126,"Delta":225777755},{"NoteNumber":61,"Velocity":28,"Duration":492126,"SoundDuration":492126,"Delta":225777755},{"NoteNumber":72,"Velocity":50,"Duration":995346,"SoundDuration":995346,"Delta":226269881},{"NoteNumber":39,"Velocity":33,"Duration":492126,"SoundDuration":492126,"Delta":226269881},{"NoteNumber":44,"Velocity":27,"Duration":503220,"SoundDuration":503220,"Delta":226762007},{"NoteNumber":82,"Velocity":54,"Duration":984251,"SoundDuration":984251,"Delta":227265228},{"NoteNumber":54,"Velocity":24,"Duration":492126,"SoundDuration":492126,"Delta":227265228},{"NoteNumber":60,"Velocity":24,"Duration":492125,"SoundDuration":492125,"Delta":227757354},{"NoteNumber":80,"Velocity":52,"Duration":1959142,"SoundDuration":1959142,"Delta":228249480},{"NoteNumber":39,"Velocity":31,"Duration":492126,"SoundDuration":492126,"Delta":228249480},{"NoteNumber":44,"Velocity":24,"Duration":479769,"SoundDuration":479769,"Delta":228741606},{"NoteNumber":54,"Velocity":27,"Duration":479769,"SoundDuration":479769,"Delta":229221375},{"NoteNumber":60,"Velocity":25,"Duration":507476,"SoundDuration":507476,"Delta":229701145},{"NoteNumber":78,"Velocity":51,"Duration":1969396,"SoundDuration":1969396,"Delta":230208622},{"NoteNumber":32,"Velocity":33,"Duration":509683,"SoundDuration":509683,"Delta":230208622},{"NoteNumber":44,"Velocity":29,"Duration":483792,"SoundDuration":483792,"Delta":230718306},{"NoteNumber":54,"Velocity":29,"Duration":483793,"SoundDuration":483793,"Delta":231202099},{"NoteNumber":60,"Velocity":30,"Duration":492126,"SoundDuration":492126,"Delta":231685892},{"NoteNumber":80,"Velocity":50,"Duration":492125,"SoundDuration":492125,"Delta":232178018},{"NoteNumber":32,"Velocity":36,"Duration":492125,"SoundDuration":492125,"Delta":232178018},{"NoteNumber":78,"Velocity":46,"Duration":475737,"SoundDuration":475737,"Delta":232670144},{"NoteNumber":44,"Velocity":30,"Duration":475737,"SoundDuration":475737,"Delta":232670144},{"NoteNumber":77,"Velocity":50,"Duration":475737,"SoundDuration":475737,"Delta":233145881},{"NoteNumber":54,"Velocity":30,"Duration":475737,"SoundDuration":475737,"Delta":233145881},{"NoteNumber":75,"Velocity":46,"Duration":496442,"SoundDuration":496442,"Delta":233621619},{"NoteNumber":60,"Velocity":31,"Duration":496442,"SoundDuration":496442,"Delta":233621619},{"NoteNumber":73,"Velocity":50,"Duration":992884,"SoundDuration":992884,"Delta":234118061},{"NoteNumber":37,"Velocity":36,"Duration":496442,"SoundDuration":496442,"Delta":234118061},{"NoteNumber":44,"Velocity":30,"Duration":496442,"SoundDuration":496442,"Delta":234614503},{"NoteNumber":85,"Velocity":53,"Duration":1006534,"SoundDuration":1006534,"Delta":235110945},{"NoteNumber":53,"Velocity":28,"Duration":496442,"SoundDuration":496442,"Delta":235110945},{"NoteNumber":61,"Velocity":25,"Duration":510092,"SoundDuration":510092,"Delta":235607387},{"NoteNumber":80,"Velocity":49,"Duration":1964172,"SoundDuration":1964172,"Delta":236117479},{"NoteNumber":37,"Velocity":33,"Duration":507476,"SoundDuration":507476,"Delta":236117479},{"NoteNumber":44,"Velocity":27,"Duration":475737,"SoundDuration":475737,"Delta":236624956},{"NoteNumber":53,"Velocity":29,"Duration":475737,"SoundDuration":475737,"Delta":237100694},{"NoteNumber":61,"Velocity":27,"Duration":505220,"SoundDuration":505220,"Delta":237576431},{"NoteNumber":77,"Velocity":52,"Duration":1956147,"SoundDuration":1956147,"Delta":238081652},{"NoteNumber":37,"Velocity":33,"Duration":492126,"SoundDuration":492126,"Delta":238081652},{"NoteNumber":44,"Velocity":27,"Duration":479769,"SoundDuration":479769,"Delta":238573778},{"NoteNumber":53,"Velocity":30,"Duration":492126,"SoundDuration":492126,"Delta":239053547},{"NoteNumber":61,"Velocity":28,"Duration":492125,"SoundDuration":492125,"Delta":239545673},{"NoteNumber":78,"Velocity":51,"Duration":479769,"SoundDuration":479769,"Delta":240037799},{"NoteNumber":34,"Velocity":33,"Duration":479769,"SoundDuration":479769,"Delta":240037799},{"NoteNumber":77,"Velocity":46,"Duration":479769,"SoundDuration":479769,"Delta":240517569},{"NoteNumber":46,"Velocity":29,"Duration":479769,"SoundDuration":479769,"Delta":240517569},{"NoteNumber":75,"Velocity":50,"Duration":479769,"SoundDuration":479769,"Delta":240997338},{"NoteNumber":56,"Velocity":29,"Duration":479769,"SoundDuration":479769,"Delta":240997338},{"NoteNumber":74,"Velocity":46,"Duration":269299,"SoundDuration":269299,"Delta":241477108},{"NoteNumber":62,"Velocity":30,"Duration":470318,"SoundDuration":470318,"Delta":241477108},{"NoteNumber":75,"Velocity":46,"Duration":100509,"SoundDuration":100509,"Delta":241746407},{"NoteNumber":77,"Velocity":42,"Duration":100509,"SoundDuration":100509,"Delta":241846917},{"NoteNumber":75,"Velocity":53,"Duration":469244,"SoundDuration":469244,"Delta":241947426},{"NoteNumber":39,"Velocity":33,"Duration":469244,"SoundDuration":469244,"Delta":241947426},{"NoteNumber":74,"Velocity":51,"Duration":467945,"SoundDuration":467945,"Delta":242416670},{"NoteNumber":46,"Velocity":30,"Duration":467945,"SoundDuration":467945,"Delta":242416670},{"NoteNumber":75,"Velocity":54,"Duration":467945,"SoundDuration":467945,"Delta":242884616},{"NoteNumber":54,"Velocity":30,"Duration":467945,"SoundDuration":467945,"Delta":242884616},{"NoteNumber":77,"Velocity":55,"Duration":475737,"SoundDuration":475737,"Delta":243352561},{"NoteNumber":63,"Velocity":27,"Duration":475737,"SoundDuration":475737,"Delta":243352561},{"NoteNumber":78,"Velocity":57,"Duration":475737,"SoundDuration":475737,"Delta":243828299},{"NoteNumber":42,"Velocity":33,"Duration":475737,"SoundDuration":475737,"Delta":243828299},{"NoteNumber":70,"Velocity":52,"Duration":475737,"SoundDuration":475737,"Delta":244304036},{"NoteNumber":51,"Velocity":29,"Duration":475737,"SoundDuration":475737,"Delta":244304036},{"NoteNumber":77,"Velocity":57,"Duration":496442,"SoundDuration":496442,"Delta":244779774},{"NoteNumber":58,"Velocity":30,"Duration":496442,"SoundDuration":496442,"Delta":244779774},{"NoteNumber":75,"Velocity":50,"Duration":291262,"SoundDuration":291262,"Delta":245276216},{"NoteNumber":63,"Velocity":27,"Duration":291262,"SoundDuration":291262,"Delta":245276216},{"NoteNumber":72,"Velocity":39,"Duration":102669,"SoundDuration":102669,"Delta":245567478},{"NoteNumber":73,"Velocity":39,"Duration":102669,"SoundDuration":102669,"Delta":245670147},{"NoteNumber":73,"Velocity":39,"Duration":93890,"SoundDuration":93890,"Delta":245772817},{"NoteNumber":43,"Velocity":33,"Duration":497877,"SoundDuration":497877,"Delta":245772817},{"NoteNumber":75,"Velocity":36,"Duration":93890,"SoundDuration":93890,"Delta":245866707},{"NoteNumber":73,"Velocity":40,"Duration":93621,"SoundDuration":93621,"Delta":245960598},{"NoteNumber":75,"Velocity":37,"Duration":93082,"SoundDuration":93082,"Delta":246054220},{"NoteNumber":73,"Velocity":42,"Duration":92633,"SoundDuration":92633,"Delta":246147303},{"NoteNumber":75,"Velocity":38,"Duration":92273,"SoundDuration":92273,"Delta":246239936},{"NoteNumber":52,"Velocity":28,"Duration":485901,"SoundDuration":485901,"Delta":246270694},{"NoteNumber":73,"Velocity":44,"Duration":91666,"SoundDuration":91666,"Delta":246332209},{"NoteNumber":75,"Velocity":39,"Duration":91493,"SoundDuration":91493,"Delta":246423876},{"NoteNumber":73,"Velocity":46,"Duration":90711,"SoundDuration":90711,"Delta":246515369},{"NoteNumber":75,"Velocity":42,"Duration":90543,"SoundDuration":90543,"Delta":246606080},{"NoteNumber":73,"Velocity":48,"Duration":89956,"SoundDuration":89956,"Delta":246696624},{"NoteNumber":61,"Velocity":28,"Duration":483193,"SoundDuration":483193,"Delta":246756595},{"NoteNumber":75,"Velocity":42,"Duration":89620,"SoundDuration":89620,"Delta":246786581},{"NoteNumber":73,"Velocity":47,"Duration":89620,"SoundDuration":89620,"Delta":246876202},{"NoteNumber":75,"Velocity":40,"Duration":90476,"SoundDuration":90476,"Delta":246967821},{"NoteNumber":73,"Velocity":44,"Duration":91319,"SoundDuration":91319,"Delta":247056282},{"NoteNumber":75,"Velocity":38,"Duration":94255,"SoundDuration":94255,"Delta":247147601},{"NoteNumber":73,"Velocity":42,"Duration":125573,"SoundDuration":125573,"Delta":247239788},{"NoteNumber":70,"Velocity":29,"Duration":535595,"SoundDuration":535595,"Delta":247239788},{"NoteNumber":75,"Velocity":37,"Duration":132611,"SoundDuration":132611,"Delta":247365361},{"NoteNumber":72,"Velocity":40,"Duration":141351,"SoundDuration":141351,"Delta":247497973},{"NoteNumber":73,"Velocity":35,"Duration":136059,"SoundDuration":136059,"Delta":247639324},{"NoteNumber":82,"Velocity":54,"Duration":492126,"SoundDuration":492126,"Delta":247775383},{"NoteNumber":44,"Velocity":33,"Duration":492126,"SoundDuration":492126,"Delta":247775383},{"NoteNumber":80,"Velocity":50,"Duration":492125,"SoundDuration":492125,"Delta":248267509},{"NoteNumber":51,"Velocity":28,"Duration":492125,"SoundDuration":492125,"Delta":248267509},{"NoteNumber":78,"Velocity":52,"Duration":505220,"SoundDuration":505220,"Delta":248759635},{"NoteNumber":60,"Velocity":30,"Duration":505220,"SoundDuration":505220,"Delta":248759635},{"NoteNumber":68,"Velocity":50,"Duration":505220,"SoundDuration":505220,"Delta":249264856},{"NoteNumber":66,"Velocity":30,"Duration":505220,"SoundDuration":505220,"Delta":249264856},{"NoteNumber":75,"Velocity":54,"Duration":2007787,"SoundDuration":2007787,"Delta":249770076},{"NoteNumber":32,"Velocity":33,"Duration":505220,"SoundDuration":505220,"Delta":249770076},{"NoteNumber":44,"Velocity":27,"Duration":492126,"SoundDuration":492126,"Delta":250275297},{"NoteNumber":54,"Velocity":27,"Duration":505220,"SoundDuration":505220,"Delta":250767423},{"NoteNumber":60,"Velocity":26,"Duration":505220,"SoundDuration":505220,"Delta":251272643},{"NoteNumber":73,"Velocity":45,"Duration":1010441,"SoundDuration":1010441,"Delta":251777864},{"NoteNumber":37,"Velocity":27,"Duration":505220,"SoundDuration":505220,"Delta":251777864},{"NoteNumber":44,"Velocity":25,"Duration":505220,"SoundDuration":505220,"Delta":252283084},{"NoteNumber":53,"Velocity":25,"Duration":505220,"SoundDuration":505220,"Delta":252788305},{"NoteNumber":61,"Velocity":25,"Duration":538599,"SoundDuration":538599,"Delta":253293525},{"NoteNumber":72,"Velocity":56,"Duration":1982513,"SoundDuration":1982513,"Delta":253832125},{"NoteNumber":32,"Velocity":34,"Duration":514315,"SoundDuration":514315,"Delta":253832125},{"NoteNumber":44,"Velocity":28,"Duration":483792,"SoundDuration":483792,"Delta":254346440},{"NoteNumber":51,"Velocity":28,"Duration":487963,"SoundDuration":487963,"Delta":254830233},{"NoteNumber":60,"Velocity":29,"Duration":496442,"SoundDuration":496442,"Delta":255318196},{"NoteNumber":73,"Velocity":52,"Duration":496441,"SoundDuration":496441,"Delta":255814638},{"NoteNumber":32,"Velocity":34,"Duration":496441,"SoundDuration":496441,"Delta":255814638},{"NoteNumber":72,"Velocity":48,"Duration":475737,"SoundDuration":475737,"Delta":256311080},{"NoteNumber":44,"Velocity":28,"Duration":475737,"SoundDuration":475737,"Delta":256311080},{"NoteNumber":70,"Velocity":52,"Duration":475737,"SoundDuration":475737,"Delta":256786818},{"NoteNumber":51,"Velocity":28,"Duration":475737,"SoundDuration":475737,"Delta":256786818},{"NoteNumber":68,"Velocity":48,"Duration":492125,"SoundDuration":492125,"Delta":257262555},{"NoteNumber":60,"Velocity":29,"Duration":492125,"SoundDuration":492125,"Delta":257262555},{"NoteNumber":67,"Velocity":52,"Duration":995346,"SoundDuration":995346,"Delta":257754681},{"NoteNumber":34,"Velocity":34,"Duration":492125,"SoundDuration":492125,"Delta":257754681},{"NoteNumber":46,"Velocity":28,"Duration":503220,"SoundDuration":503220,"Delta":258246807},{"NoteNumber":77,"Velocity":56,"Duration":984252,"SoundDuration":984252,"Delta":258750028},{"NoteNumber":51,"Velocity":25,"Duration":492125,"SoundDuration":492125,"Delta":258750028},{"NoteNumber":61,"Velocity":25,"Duration":492126,"SoundDuration":492126,"Delta":259242154},{"NoteNumber":75,"Velocity":54,"Duration":1959141,"SoundDuration":1959141,"Delta":259734280},{"NoteNumber":34,"Velocity":32,"Duration":492125,"SoundDuration":492125,"Delta":259734280},{"NoteNumber":46,"Velocity":25,"Duration":479769,"SoundDuration":479769,"Delta":260226406},{"NoteNumber":51,"Velocity":28,"Duration":479769,"SoundDuration":479769,"Delta":260706175},{"NoteNumber":61,"Velocity":26,"Duration":507476,"SoundDuration":507476,"Delta":261185945},{"NoteNumber":73,"Velocity":55,"Duration":1969395,"SoundDuration":1969395,"Delta":261693422},{"NoteNumber":34,"Velocity":36,"Duration":509683,"SoundDuration":509683,"Delta":261693422},{"NoteNumber":46,"Velocity":31,"Duration":483792,"SoundDuration":483792,"Delta":262203106},{"NoteNumber":52,"Velocity":31,"Duration":483792,"SoundDuration":483792,"Delta":262686899},{"NoteNumber":61,"Velocity":33,"Duration":492125,"SoundDuration":492125,"Delta":263170692},{"NoteNumber":75,"Velocity":55,"Duration":492126,"SoundDuration":492126,"Delta":263662818},{"NoteNumber":34,"Velocity":39,"Duration":492126,"SoundDuration":492126,"Delta":263662818},{"NoteNumber":73,"Velocity":50,"Duration":462872,"SoundDuration":462872,"Delta":264154944},{"NoteNumber":46,"Velocity":33,"Duration":462872,"SoundDuration":462872,"Delta":264154944},{"NoteNumber":72,"Velocity":55,"Duration":475737,"SoundDuration":475737,"Delta":264617817},{"NoteNumber":52,"Velocity":33,"Duration":475737,"SoundDuration":475737,"Delta":264617817},{"NoteNumber":70,"Velocity":51,"Duration":496442,"SoundDuration":496442,"Delta":265093554},{"NoteNumber":61,"Velocity":34,"Duration":496442,"SoundDuration":496442,"Delta":265093554},{"NoteNumber":69,"Velocity":55,"Duration":972326,"SoundDuration":972326,"Delta":265589996},{"NoteNumber":36,"Velocity":40,"Duration":496442,"SoundDuration":496442,"Delta":265589996},{"NoteNumber":48,"Velocity":33,"Duration":475884,"SoundDuration":475884,"Delta":266086438},{"NoteNumber":78,"Velocity":59,"Duration":1006534,"SoundDuration":1006534,"Delta":266562322},{"NoteNumber":54,"Velocity":31,"Duration":496442,"SoundDuration":496442,"Delta":266562322},{"NoteNumber":63,"Velocity":28,"Duration":510092,"SoundDuration":510092,"Delta":267058764},{"NoteNumber":77,"Velocity":55,"Duration":1964172,"SoundDuration":1964172,"Delta":267568857},{"NoteNumber":36,"Velocity":37,"Duration":507476,"SoundDuration":507476,"Delta":267568857},{"NoteNumber":48,"Velocity":30,"Duration":475737,"SoundDuration":475737,"Delta":268076334},{"NoteNumber":51,"Velocity":33,"Duration":475737,"SoundDuration":475737,"Delta":268552071},{"NoteNumber":63,"Velocity":30,"Duration":505220,"SoundDuration":505220,"Delta":269027809},{"NoteNumber":77,"Velocity":59,"Duration":1939758,"SoundDuration":1939758,"Delta":269533029},{"NoteNumber":37,"Velocity":37,"Duration":492125,"SoundDuration":492125,"Delta":269533029},{"NoteNumber":49,"Velocity":31,"Duration":479769,"SoundDuration":479769,"Delta":270025155},{"NoteNumber":58,"Velocity":34,"Duration":475737,"SoundDuration":475737,"Delta":270504925},{"NoteNumber":65,"Velocity":32,"Duration":492125,"SoundDuration":492125,"Delta":270980662},{"NoteNumber":78,"Velocity":58,"Duration":479769,"SoundDuration":479769,"Delta":271472788},{"NoteNumber":37,"Velocity":37,"Duration":479769,"SoundDuration":479769,"Delta":271472788},{"NoteNumber":77,"Velocity":52,"Duration":479769,"SoundDuration":479769,"Delta":271952558},{"NoteNumber":49,"Velocity":33,"Duration":479769,"SoundDuration":479769,"Delta":271952558},{"NoteNumber":75,"Velocity":57,"Duration":479769,"SoundDuration":479769,"Delta":272432327},{"NoteNumber":58,"Velocity":33,"Duration":479769,"SoundDuration":479769,"Delta":272432327},{"NoteNumber":73,"Velocity":52,"Duration":481873,"SoundDuration":481873,"Delta":272912097},{"NoteNumber":65,"Velocity":34,"Duration":492125,"SoundDuration":492125,"Delta":272912097},{"NoteNumber":73,"Velocity":59,"Duration":956235,"SoundDuration":956235,"Delta":273404223},{"NoteNumber":39,"Velocity":40,"Duration":492126,"SoundDuration":492126,"Delta":273404223},{"NoteNumber":51,"Velocity":35,"Duration":464109,"SoundDuration":464109,"Delta":273896349},{"NoteNumber":72,"Velocity":57,"Duration":959539,"SoundDuration":959539,"Delta":274360458},{"NoteNumber":58,"Velocity":37,"Duration":479769,"SoundDuration":479769,"Delta":274360458},{"NoteNumber":66,"Velocity":33,"Duration":479769,"SoundDuration":479769,"Delta":274840227},{"NoteNumber":41,"Velocity":41,"Duration":479769,"SoundDuration":479769,"Delta":275319997},{"NoteNumber":72,"Velocity":56,"Duration":419798,"SoundDuration":419798,"Delta":275799766},{"NoteNumber":53,"Velocity":35,"Duration":479769,"SoundDuration":479769,"Delta":275799766},{"NoteNumber":75,"Velocity":55,"Duration":59971,"SoundDuration":59971,"Delta":276219564},{"NoteNumber":73,"Velocity":59,"Duration":725832,"SoundDuration":725832,"Delta":276279536},{"NoteNumber":58,"Velocity":37,"Duration":479769,"SoundDuration":479769,"Delta":276279536},{"NoteNumber":65,"Velocity":35,"Duration":492125,"SoundDuration":492125,"Delta":276759305},{"NoteNumber":72,"Velocity":58,"Duration":231709,"SoundDuration":231709,"Delta":277005368},{"NoteNumber":72,"Velocity":59,"Duration":956235,"SoundDuration":956235,"Delta":277251431},{"NoteNumber":42,"Velocity":40,"Duration":492126,"SoundDuration":492126,"Delta":277251431},{"NoteNumber":51,"Velocity":34,"Duration":464109,"SoundDuration":464109,"Delta":277743557},{"NoteNumber":70,"Velocity":56,"Duration":955908,"SoundDuration":955908,"Delta":278207666},{"NoteNumber":58,"Velocity":37,"Duration":487963,"SoundDuration":487963,"Delta":278207666},{"NoteNumber":63,"Velocity":33,"Duration":467945,"SoundDuration":467945,"Delta":278695630},{"NoteNumber":42,"Velocity":38,"Duration":487963,"SoundDuration":487963,"Delta":279163575},{"NoteNumber":72,"Velocity":56,"Duration":426968,"SoundDuration":426968,"Delta":279651539},{"NoteNumber":54,"Velocity":34,"Duration":487963,"SoundDuration":487963,"Delta":279651539},{"NoteNumber":75,"Velocity":59,"Duration":60995,"SoundDuration":60995,"Delta":280078507},{"NoteNumber":73,"Velocity":59,"Duration":731945,"SoundDuration":731945,"Delta":280139502},{"NoteNumber":58,"Velocity":37,"Duration":487963,"SoundDuration":487963,"Delta":280139502},{"NoteNumber":64,"Velocity":34,"Duration":487963,"SoundDuration":487963,"Delta":280627466},{"NoteNumber":72,"Velocity":56,"Duration":229749,"SoundDuration":229749,"Delta":280871447},{"NoteNumber":72,"Velocity":50,"Duration":975926,"SoundDuration":975926,"Delta":281115429},{"NoteNumber":41,"Velocity":36,"Duration":487963,"SoundDuration":487963,"Delta":281115429},{"NoteNumber":48,"Velocity":32,"Duration":487963,"SoundDuration":487963,"Delta":281603393},{"NoteNumber":77,"Velocity":55,"Duration":982221,"SoundDuration":982221,"Delta":282091356},{"NoteNumber":57,"Velocity":32,"Duration":488657,"SoundDuration":488657,"Delta":282091356},{"NoteNumber":65,"Velocity":31,"Duration":493564,"SoundDuration":493564,"Delta":282580013},{"NoteNumber":78,"Velocity":54,"Duration":1022118,"SoundDuration":1022118,"Delta":283073578},{"NoteNumber":39,"Velocity":35,"Duration":506338,"SoundDuration":506338,"Delta":283073578},{"NoteNumber":51,"Velocity":33,"Duration":515780,"SoundDuration":515780,"Delta":283579916},{"NoteNumber":68,"Velocity":45,"Duration":1127381,"SoundDuration":1127381,"Delta":284095697},{"NoteNumber":56,"Velocity":27,"Duration":550458,"SoundDuration":550458,"Delta":284095697},{"NoteNumber":66,"Velocity":26,"Duration":576923,"SoundDuration":576923,"Delta":284646155},{"NoteNumber":60,"Velocity":22,"Duration":576923,"SoundDuration":576923,"Delta":284646155},{"NoteNumber":77,"Velocity":54,"Duration":1992948,"SoundDuration":1992948,"Delta":285223078},{"NoteNumber":37,"Velocity":33,"Duration":524749,"SoundDuration":524749,"Delta":285223078},{"NoteNumber":44,"Velocity":27,"Duration":483792,"SoundDuration":483792,"Delta":285747828},{"NoteNumber":53,"Velocity":27,"Duration":487963,"SoundDuration":487963,"Delta":286231621},{"NoteNumber":61,"Velocity":28,"Duration":496442,"SoundDuration":496442,"Delta":286719584},{"NoteNumber":78,"Velocity":50,"Duration":496442,"SoundDuration":496442,"Delta":287216026},{"NoteNumber":37,"Velocity":33,"Duration":496442,"SoundDuration":496442,"Delta":287216026},{"NoteNumber":77,"Velocity":46,"Duration":475737,"SoundDuration":475737,"Delta":287712468},{"NoteNumber":44,"Velocity":27,"Duration":475737,"SoundDuration":475737,"Delta":287712468},{"NoteNumber":75,"Velocity":50,"Duration":475737,"SoundDuration":475737,"Delta":288188206},{"NoteNumber":53,"Velocity":27,"Duration":475737,"SoundDuration":475737,"Delta":288188206},{"NoteNumber":73,"Velocity":46,"Duration":492125,"SoundDuration":492125,"Delta":288663943},{"NoteNumber":61,"Velocity":28,"Duration":492125,"SoundDuration":492125,"Delta":288663943},{"NoteNumber":72,"Velocity":50,"Duration":995346,"SoundDuration":995346,"Delta":289156069},{"NoteNumber":39,"Velocity":33,"Duration":492125,"SoundDuration":492125,"Delta":289156069},{"NoteNumber":44,"Velocity":27,"Duration":503220,"SoundDuration":503220,"Delta":289648195},{"NoteNumber":82,"Velocity":54,"Duration":984252,"SoundDuration":984252,"Delta":290151416},{"NoteNumber":54,"Velocity":24,"Duration":492125,"SoundDuration":492125,"Delta":290151416},{"NoteNumber":60,"Velocity":24,"Duration":492126,"SoundDuration":492126,"Delta":290643542},{"NoteNumber":80,"Velocity":52,"Duration":1959141,"SoundDuration":1959141,"Delta":291135668},{"NoteNumber":39,"Velocity":31,"Duration":492125,"SoundDuration":492125,"Delta":291135668},{"NoteNumber":44,"Velocity":24,"Duration":479769,"SoundDuration":479769,"Delta":291627794},{"NoteNumber":54,"Velocity":27,"Duration":479769,"SoundDuration":479769,"Delta":292107563},{"NoteNumber":60,"Velocity":25,"Duration":507476,"SoundDuration":507476,"Delta":292587333},{"NoteNumber":78,"Velocity":51,"Duration":1969396,"SoundDuration":1969396,"Delta":293094810},{"NoteNumber":32,"Velocity":33,"Duration":509684,"SoundDuration":509684,"Delta":293094810},{"NoteNumber":44,"Velocity":29,"Duration":483792,"SoundDuration":483792,"Delta":293604494},{"NoteNumber":54,"Velocity":29,"Duration":483792,"SoundDuration":483792,"Delta":294088287},{"NoteNumber":60,"Velocity":30,"Duration":492125,"SoundDuration":492125,"Delta":294572080},{"NoteNumber":80,"Velocity":50,"Duration":492126,"SoundDuration":492126,"Delta":295064206},{"NoteNumber":32,"Velocity":36,"Duration":492126,"SoundDuration":492126,"Delta":295064206},{"NoteNumber":78,"Velocity":46,"Duration":475737,"SoundDuration":475737,"Delta":295556332},{"NoteNumber":44,"Velocity":30,"Duration":475737,"SoundDuration":475737,"Delta":295556332},{"NoteNumber":77,"Velocity":50,"Duration":475737,"SoundDuration":475737,"Delta":296032069},{"NoteNumber":54,"Velocity":30,"Duration":475737,"SoundDuration":475737,"Delta":296032069},{"NoteNumber":75,"Velocity":46,"Duration":496442,"SoundDuration":496442,"Delta":296507807},{"NoteNumber":60,"Velocity":31,"Duration":496442,"SoundDuration":496442,"Delta":296507807},{"NoteNumber":73,"Velocity":50,"Duration":992884,"SoundDuration":992884,"Delta":297004249},{"NoteNumber":37,"Velocity":36,"Duration":496442,"SoundDuration":496442,"Delta":297004249},{"NoteNumber":44,"Velocity":30,"Duration":496442,"SoundDuration":496442,"Delta":297500691},{"NoteNumber":85,"Velocity":53,"Duration":1006534,"SoundDuration":1006534,"Delta":297997133},{"NoteNumber":53,"Velocity":28,"Duration":496442,"SoundDuration":496442,"Delta":297997133},{"NoteNumber":61,"Velocity":25,"Duration":510092,"SoundDuration":510092,"Delta":298493575},{"NoteNumber":80,"Velocity":49,"Duration":1964172,"SoundDuration":1964172,"Delta":299003667},{"NoteNumber":37,"Velocity":33,"Duration":507476,"SoundDuration":507476,"Delta":299003667},{"NoteNumber":44,"Velocity":27,"Duration":475737,"SoundDuration":475737,"Delta":299511144},{"NoteNumber":53,"Velocity":29,"Duration":475737,"SoundDuration":475737,"Delta":299986882},{"NoteNumber":61,"Velocity":27,"Duration":505220,"SoundDuration":505220,"Delta":300462619},{"NoteNumber":77,"Velocity":52,"Duration":1956147,"SoundDuration":1956147,"Delta":300967840},{"NoteNumber":37,"Velocity":33,"Duration":492125,"SoundDuration":492125,"Delta":300967840},{"NoteNumber":44,"Velocity":27,"Duration":479769,"SoundDuration":479769,"Delta":301459966},{"NoteNumber":53,"Velocity":30,"Duration":492125,"SoundDuration":492125,"Delta":301939735},{"NoteNumber":61,"Velocity":28,"Duration":492126,"SoundDuration":492126,"Delta":302431861},{"NoteNumber":78,"Velocity":51,"Duration":479769,"SoundDuration":479769,"Delta":302923987},{"NoteNumber":34,"Velocity":33,"Duration":479769,"SoundDuration":479769,"Delta":302923987},{"NoteNumber":77,"Velocity":46,"Duration":479769,"SoundDuration":479769,"Delta":303403757},{"NoteNumber":46,"Velocity":29,"Duration":479769,"SoundDuration":479769,"Delta":303403757},{"NoteNumber":75,"Velocity":50,"Duration":479769,"SoundDuration":479769,"Delta":303883526},{"NoteNumber":56,"Velocity":29,"Duration":479769,"SoundDuration":479769,"Delta":303883526},{"NoteNumber":74,"Velocity":46,"Duration":269299,"SoundDuration":269299,"Delta":304363296},{"NoteNumber":62,"Velocity":30,"Duration":470318,"SoundDuration":470318,"Delta":304363296},{"NoteNumber":75,"Velocity":46,"Duration":100509,"SoundDuration":100509,"Delta":304632596},{"NoteNumber":77,"Velocity":42,"Duration":100509,"SoundDuration":100509,"Delta":304733105},{"NoteNumber":75,"Velocity":53,"Duration":469244,"SoundDuration":469244,"Delta":304833614},{"NoteNumber":39,"Velocity":33,"Duration":469244,"SoundDuration":469244,"Delta":304833614},{"NoteNumber":74,"Velocity":51,"Duration":467945,"SoundDuration":467945,"Delta":305302858},{"NoteNumber":46,"Velocity":30,"Duration":467945,"SoundDuration":467945,"Delta":305302858},{"NoteNumber":75,"Velocity":54,"Duration":467945,"SoundDuration":467945,"Delta":305770804},{"NoteNumber":54,"Velocity":30,"Duration":467945,"SoundDuration":467945,"Delta":305770804},{"NoteNumber":77,"Velocity":55,"Duration":475737,"SoundDuration":475737,"Delta":306238749},{"NoteNumber":63,"Velocity":27,"Duration":475737,"SoundDuration":475737,"Delta":306238749},{"NoteNumber":78,"Velocity":57,"Duration":475737,"SoundDuration":475737,"Delta":306714487},{"NoteNumber":42,"Velocity":33,"Duration":475737,"SoundDuration":475737,"Delta":306714487},{"NoteNumber":70,"Velocity":52,"Duration":475737,"SoundDuration":475737,"Delta":307190224},{"NoteNumber":51,"Velocity":29,"Duration":475737,"SoundDuration":475737,"Delta":307190224},{"NoteNumber":77,"Velocity":57,"Duration":496442,"SoundDuration":496442,"Delta":307665962},{"NoteNumber":58,"Velocity":30,"Duration":496442,"SoundDuration":496442,"Delta":307665962},{"NoteNumber":75,"Velocity":50,"Duration":291262,"SoundDuration":291262,"Delta":308162404},{"NoteNumber":63,"Velocity":27,"Duration":291262,"SoundDuration":291262,"Delta":308162404},{"NoteNumber":72,"Velocity":39,"Duration":102669,"SoundDuration":102669,"Delta":308453666},{"NoteNumber":73,"Velocity":39,"Duration":102669,"SoundDuration":102669,"Delta":308556335},{"NoteNumber":73,"Velocity":39,"Duration":93890,"SoundDuration":93890,"Delta":308659005},{"NoteNumber":43,"Velocity":33,"Duration":497877,"SoundDuration":497877,"Delta":308659005},{"NoteNumber":75,"Velocity":36,"Duration":93890,"SoundDuration":93890,"Delta":308752895},{"NoteNumber":73,"Velocity":40,"Duration":93621,"SoundDuration":93621,"Delta":308846786},{"NoteNumber":75,"Velocity":37,"Duration":93082,"SoundDuration":93082,"Delta":308940408},{"NoteNumber":73,"Velocity":42,"Duration":92633,"SoundDuration":92633,"Delta":309033491},{"NoteNumber":75,"Velocity":38,"Duration":92273,"SoundDuration":92273,"Delta":309126124},{"NoteNumber":52,"Velocity":28,"Duration":485901,"SoundDuration":485901,"Delta":309156882},{"NoteNumber":73,"Velocity":44,"Duration":91666,"SoundDuration":91666,"Delta":309218398},{"NoteNumber":75,"Velocity":39,"Duration":91493,"SoundDuration":91493,"Delta":309310064},{"NoteNumber":73,"Velocity":46,"Duration":90711,"SoundDuration":90711,"Delta":309401557},{"NoteNumber":75,"Velocity":42,"Duration":90543,"SoundDuration":90543,"Delta":309492269},{"NoteNumber":73,"Velocity":48,"Duration":89956,"SoundDuration":89956,"Delta":309582812},{"NoteNumber":61,"Velocity":28,"Duration":483193,"SoundDuration":483193,"Delta":309642783},{"NoteNumber":75,"Velocity":42,"Duration":89620,"SoundDuration":89620,"Delta":309672769},{"NoteNumber":73,"Velocity":47,"Duration":89620,"SoundDuration":89620,"Delta":309762390},{"NoteNumber":75,"Velocity":40,"Duration":90476,"SoundDuration":90476,"Delta":309854009},{"NoteNumber":73,"Velocity":44,"Duration":91319,"SoundDuration":91319,"Delta":309942470},{"NoteNumber":75,"Velocity":38,"Duration":94255,"SoundDuration":94255,"Delta":310033790},{"NoteNumber":73,"Velocity":42,"Duration":125573,"SoundDuration":125573,"Delta":310125976},{"NoteNumber":70,"Velocity":29,"Duration":535595,"SoundDuration":535595,"Delta":310125976},{"NoteNumber":75,"Velocity":37,"Duration":132611,"SoundDuration":132611,"Delta":310251550},{"NoteNumber":72,"Velocity":40,"Duration":141351,"SoundDuration":141351,"Delta":310384161},{"NoteNumber":73,"Velocity":35,"Duration":136059,"SoundDuration":136059,"Delta":310525512},{"NoteNumber":82,"Velocity":54,"Duration":492125,"SoundDuration":492125,"Delta":310661572},{"NoteNumber":44,"Velocity":33,"Duration":492125,"SoundDuration":492125,"Delta":310661572},{"NoteNumber":80,"Velocity":50,"Duration":492126,"SoundDuration":492126,"Delta":311153698},{"NoteNumber":51,"Velocity":28,"Duration":492126,"SoundDuration":492126,"Delta":311153698},{"NoteNumber":78,"Velocity":52,"Duration":505220,"SoundDuration":505220,"Delta":311645824},{"NoteNumber":60,"Velocity":30,"Duration":505220,"SoundDuration":505220,"Delta":311645824},{"NoteNumber":68,"Velocity":50,"Duration":505220,"SoundDuration":505220,"Delta":312151044},{"NoteNumber":66,"Velocity":30,"Duration":505220,"SoundDuration":505220,"Delta":312151044},{"NoteNumber":75,"Velocity":54,"Duration":2054976,"SoundDuration":2054976,"Delta":312656265},{"NoteNumber":32,"Velocity":33,"Duration":505220,"SoundDuration":505220,"Delta":312656265},{"NoteNumber":44,"Velocity":27,"Duration":492125,"SoundDuration":492125,"Delta":313161485},{"NoteNumber":54,"Velocity":27,"Duration":519030,"SoundDuration":519030,"Delta":313653611},{"NoteNumber":60,"Velocity":23,"Duration":538599,"SoundDuration":538599,"Delta":314172642},{"NoteNumber":73,"Velocity":45,"Duration":1077199,"SoundDuration":1077199,"Delta":314711242},{"NoteNumber":49,"Velocity":23,"Duration":1077199,"SoundDuration":1077199,"Delta":314711242},{"NoteNumber":53,"Velocity":23,"Duration":1077199,"SoundDuration":1077199,"Delta":314711242},{"NoteNumber":61,"Velocity":27,"Duration":1077199,"SoundDuration":1077199,"Delta":314711242},{"NoteNumber":53,"Velocity":34,"Duration":1044385,"SoundDuration":1044385,"Delta":316865640},{"NoteNumber":58,"Velocity":40,"Duration":1044385,"SoundDuration":1044385,"Delta":316865640},{"NoteNumber":34,"Velocity":28,"Duration":1044385,"SoundDuration":1044385,"Delta":316865640},{"NoteNumber":41,"Velocity":28,"Duration":1044385,"SoundDuration":1044385,"Delta":316865640},{"NoteNumber":46,"Velocity":34,"Duration":1044385,"SoundDuration":1044385,"Delta":316865640},{"NoteNumber":54,"Velocity":34,"Duration":1083032,"SoundDuration":1083032,"Delta":317910026},{"NoteNumber":58,"Velocity":40,"Duration":812274,"SoundDuration":812274,"Delta":317910026},{"NoteNumber":37,"Velocity":25,"Duration":1083032,"SoundDuration":1083032,"Delta":317910026},{"NoteNumber":42,"Velocity":25,"Duration":1083032,"SoundDuration":1083032,"Delta":317910026},{"NoteNumber":49,"Velocity":30,"Duration":1083032,"SoundDuration":1083032,"Delta":317910026},{"NoteNumber":58,"Velocity":36,"Duration":243682,"SoundDuration":243682,"Delta":318722300},{"NoteNumber":53,"Velocity":34,"Duration":1075076,"SoundDuration":1075076,"Delta":318993058},{"NoteNumber":58,"Velocity":40,"Duration":2158108,"SoundDuration":2158108,"Delta":318993058},{"NoteNumber":34,"Velocity":28,"Duration":1075076,"SoundDuration":1075076,"Delta":318993058},{"NoteNumber":41,"Velocity":28,"Duration":1075076,"SoundDuration":1075076,"Delta":318993058},{"NoteNumber":46,"Velocity":34,"Duration":1075076,"SoundDuration":1075076,"Delta":318993058},{"NoteNumber":54,"Velocity":28,"Duration":1083032,"SoundDuration":1083032,"Delta":320068134},{"NoteNumber":37,"Velocity":23,"Duration":1083032,"SoundDuration":1083032,"Delta":320068134},{"NoteNumber":42,"Velocity":23,"Duration":1083032,"SoundDuration":1083032,"Delta":320068134},{"NoteNumber":49,"Velocity":28,"Duration":1083032,"SoundDuration":1083032,"Delta":320068134},{"NoteNumber":53,"Velocity":34,"Duration":1044385,"SoundDuration":1044385,"Delta":321151166},{"NoteNumber":58,"Velocity":40,"Duration":1044385,"SoundDuration":1044385,"Delta":321151166},{"NoteNumber":34,"Velocity":28,"Duration":1044385,"SoundDuration":1044385,"Delta":321151166},{"NoteNumber":41,"Velocity":28,"Duration":1044385,"SoundDuration":1044385,"Delta":321151166},{"NoteNumber":46,"Velocity":34,"Duration":1044385,"SoundDuration":1044385,"Delta":321151166},{"NoteNumber":54,"Velocity":34,"Duration":1091107,"SoundDuration":1091107,"Delta":322195552},{"NoteNumber":58,"Velocity":40,"Duration":818330,"SoundDuration":818330,"Delta":322195552},{"NoteNumber":37,"Velocity":25,"Duration":1091107,"SoundDuration":1091107,"Delta":322195552},{"NoteNumber":42,"Velocity":25,"Duration":1091107,"SoundDuration":1091107,"Delta":322195552},{"NoteNumber":49,"Velocity":30,"Duration":1091107,"SoundDuration":1091107,"Delta":322195552},{"NoteNumber":58,"Velocity":36,"Duration":245499,"SoundDuration":245499,"Delta":323013882},{"NoteNumber":53,"Velocity":34,"Duration":1075076,"SoundDuration":1075076,"Delta":323286659},{"NoteNumber":58,"Velocity":40,"Duration":2150152,"SoundDuration":2150152,"Delta":323286659},{"NoteNumber":34,"Velocity":28,"Duration":1075076,"SoundDuration":1075076,"Delta":323286659},{"NoteNumber":41,"Velocity":28,"Duration":1075076,"SoundDuration":1075076,"Delta":323286659},{"NoteNumber":46,"Velocity":34,"Duration":1075076,"SoundDuration":1075076,"Delta":323286659},{"NoteNumber":54,"Velocity":28,"Duration":1075076,"SoundDuration":1075076,"Delta":324361735},{"NoteNumber":37,"Velocity":22,"Duration":1075076,"SoundDuration":1075076,"Delta":324361735},{"NoteNumber":42,"Velocity":22,"Duration":1075076,"SoundDuration":1075076,"Delta":324361735},{"NoteNumber":49,"Velocity":27,"Duration":1075076,"SoundDuration":1075076,"Delta":324361735},{"NoteNumber":53,"Velocity":34,"Duration":1044385,"SoundDuration":1044385,"Delta":325436811},{"NoteNumber":58,"Velocity":40,"Duration":1044385,"SoundDuration":1044385,"Delta":325436811},{"NoteNumber":34,"Velocity":28,"Duration":1044385,"SoundDuration":1044385,"Delta":325436811},{"NoteNumber":41,"Velocity":28,"Duration":1044385,"SoundDuration":1044385,"Delta":325436811},{"NoteNumber":46,"Velocity":34,"Duration":1044385,"SoundDuration":1044385,"Delta":325436811},{"NoteNumber":54,"Velocity":34,"Duration":1075076,"SoundDuration":1075076,"Delta":326481197},{"NoteNumber":58,"Velocity":40,"Duration":806307,"SoundDuration":806307,"Delta":326481197},{"NoteNumber":37,"Velocity":25,"Duration":1075076,"SoundDuration":1075076,"Delta":326481197},{"NoteNumber":42,"Velocity":30,"Duration":1075076,"SoundDuration":1075076,"Delta":326481197},{"NoteNumber":49,"Velocity":30,"Duration":1075076,"SoundDuration":1075076,"Delta":326481197},{"NoteNumber":58,"Velocity":36,"Duration":241892,"SoundDuration":241892,"Delta":327287504},{"NoteNumber":53,"Velocity":34,"Duration":1067235,"SoundDuration":1067235,"Delta":327556273},{"NoteNumber":58,"Velocity":40,"Duration":1067235,"SoundDuration":1067235,"Delta":327556273},{"NoteNumber":34,"Velocity":28,"Duration":1067235,"SoundDuration":1067235,"Delta":327556273},{"NoteNumber":41,"Velocity":28,"Duration":1067235,"SoundDuration":1067235,"Delta":327556273},{"NoteNumber":46,"Velocity":34,"Duration":1067235,"SoundDuration":1067235,"Delta":327556273},{"NoteNumber":61,"Velocity":49,"Duration":783289,"SoundDuration":783289,"Delta":328623509},{"NoteNumber":54,"Velocity":39,"Duration":1044385,"SoundDuration":1044385,"Delta":328623509},{"NoteNumber":37,"Velocity":22,"Duration":1044385,"SoundDuration":1044385,"Delta":328623509},{"NoteNumber":42,"Velocity":27,"Duration":1044385,"SoundDuration":1044385,"Delta":328623509},{"NoteNumber":49,"Velocity":27,"Duration":1044385,"SoundDuration":1044385,"Delta":328623509},{"NoteNumber":60,"Velocity":45,"Duration":234986,"SoundDuration":234986,"Delta":329406798},{"NoteNumber":60,"Velocity":48,"Duration":783289,"SoundDuration":783289,"Delta":329667895},{"NoteNumber":53,"Velocity":39,"Duration":1044386,"SoundDuration":1044386,"Delta":329667895},{"NoteNumber":34,"Velocity":28,"Duration":1044386,"SoundDuration":1044386,"Delta":329667895},{"NoteNumber":41,"Velocity":28,"Duration":1044386,"SoundDuration":1044386,"Delta":329667895},{"NoteNumber":46,"Velocity":34,"Duration":1044386,"SoundDuration":1044386,"Delta":329667895},{"NoteNumber":58,"Velocity":42,"Duration":234986,"SoundDuration":234986,"Delta":330451184},{"NoteNumber":54,"Velocity":37,"Duration":1059508,"SoundDuration":1059508,"Delta":330712281},{"NoteNumber":58,"Velocity":44,"Duration":794631,"SoundDuration":794631,"Delta":330712281},{"NoteNumber":37,"Velocity":25,"Duration":1059508,"SoundDuration":1059508,"Delta":330712281},{"NoteNumber":42,"Velocity":25,"Duration":1059508,"SoundDuration":1059508,"Delta":330712281},{"NoteNumber":49,"Velocity":30,"Duration":1059508,"SoundDuration":1059508,"Delta":330712281},{"NoteNumber":58,"Velocity":36,"Duration":238389,"SoundDuration":238389,"Delta":331506912},{"NoteNumber":53,"Velocity":34,"Duration":1075076,"SoundDuration":1075076,"Delta":331771790},{"NoteNumber":58,"Velocity":40,"Duration":2150151,"SoundDuration":2150151,"Delta":331771790},{"NoteNumber":34,"Velocity":28,"Duration":1075076,"SoundDuration":1075076,"Delta":331771790},{"NoteNumber":41,"Velocity":28,"Duration":1075076,"SoundDuration":1075076,"Delta":331771790},{"NoteNumber":46,"Velocity":34,"Duration":1075076,"SoundDuration":1075076,"Delta":331771790},{"NoteNumber":54,"Velocity":28,"Duration":1075075,"SoundDuration":1075075,"Delta":332846866},{"NoteNumber":37,"Velocity":22,"Duration":1075075,"SoundDuration":1075075,"Delta":332846866},{"NoteNumber":42,"Velocity":22,"Duration":1075075,"SoundDuration":1075075,"Delta":332846866},{"NoteNumber":49,"Velocity":27,"Duration":1075075,"SoundDuration":1075075,"Delta":332846866},{"NoteNumber":58,"Velocity":42,"Duration":1044385,"SoundDuration":1044385,"Delta":333921942},{"NoteNumber":53,"Velocity":42,"Duration":1044385,"SoundDuration":1044385,"Delta":333921942},{"NoteNumber":61,"Velocity":50,"Duration":1044385,"SoundDuration":1044385,"Delta":333921942},{"NoteNumber":34,"Velocity":35,"Duration":1044385,"SoundDuration":1044385,"Delta":333921942},{"NoteNumber":41,"Velocity":35,"Duration":1044385,"SoundDuration":1044385,"Delta":333921942},{"NoteNumber":46,"Velocity":42,"Duration":1044385,"SoundDuration":1044385,"Delta":333921942},{"NoteNumber":58,"Velocity":42,"Duration":1075076,"SoundDuration":1075076,"Delta":334966328},{"NoteNumber":54,"Velocity":42,"Duration":1075076,"SoundDuration":1075076,"Delta":334966328},{"NoteNumber":61,"Velocity":50,"Duration":806307,"SoundDuration":806307,"Delta":334966328},{"NoteNumber":37,"Velocity":30,"Duration":1075076,"SoundDuration":1075076,"Delta":334966328},{"NoteNumber":42,"Velocity":37,"Duration":1075076,"SoundDuration":1075076,"Delta":334966328},{"NoteNumber":49,"Velocity":37,"Duration":1075076,"SoundDuration":1075076,"Delta":334966328},{"NoteNumber":61,"Velocity":45,"Duration":241892,"SoundDuration":241892,"Delta":335772635},{"NoteNumber":58,"Velocity":42,"Duration":1036986,"SoundDuration":1036986,"Delta":336041404},{"NoteNumber":53,"Velocity":42,"Duration":1036986,"SoundDuration":1036986,"Delta":336041404},{"NoteNumber":61,"Velocity":50,"Duration":1036986,"SoundDuration":1036986,"Delta":336041404},{"NoteNumber":34,"Velocity":35,"Duration":1036986,"SoundDuration":1036986,"Delta":336041404},{"NoteNumber":41,"Velocity":35,"Duration":1036986,"SoundDuration":1036986,"Delta":336041404},{"NoteNumber":46,"Velocity":42,"Duration":1036986,"SoundDuration":1036986,"Delta":336041404},{"NoteNumber":65,"Velocity":59,"Duration":803355,"SoundDuration":803355,"Delta":337078390},{"NoteNumber":61,"Velocity":52,"Duration":803355,"SoundDuration":803355,"Delta":337078390},{"NoteNumber":54,"Velocity":48,"Duration":1071140,"SoundDuration":1071140,"Delta":337078390},{"NoteNumber":37,"Velocity":27,"Duration":1071140,"SoundDuration":1071140,"Delta":337078390},{"NoteNumber":42,"Velocity":34,"Duration":1071140,"SoundDuration":1071140,"Delta":337078390},{"NoteNumber":49,"Velocity":34,"Duration":1071140,"SoundDuration":1071140,"Delta":337078390},{"NoteNumber":63,"Velocity":53,"Duration":137236,"SoundDuration":137236,"Delta":337881745},{"NoteNumber":60,"Velocity":47,"Duration":137236,"SoundDuration":137236,"Delta":337881745},{"NoteNumber":65,"Velocity":48,"Duration":130548,"SoundDuration":130548,"Delta":338018982},{"NoteNumber":63,"Velocity":57,"Duration":783289,"SoundDuration":783289,"Delta":338149530},{"NoteNumber":60,"Velocity":51,"Duration":783289,"SoundDuration":783289,"Delta":338149530},{"NoteNumber":53,"Velocity":48,"Duration":1044386,"SoundDuration":1044386,"Delta":338149530},{"NoteNumber":34,"Velocity":35,"Duration":1044386,"SoundDuration":1044386,"Delta":338149530},{"NoteNumber":41,"Velocity":35,"Duration":1044386,"SoundDuration":1044386,"Delta":338149530},{"NoteNumber":46,"Velocity":42,"Duration":1044386,"SoundDuration":1044386,"Delta":338149530},{"NoteNumber":61,"Velocity":50,"Duration":234986,"SoundDuration":234986,"Delta":338932819},{"NoteNumber":58,"Velocity":45,"Duration":234986,"SoundDuration":234986,"Delta":338932819},{"NoteNumber":61,"Velocity":55,"Duration":794631,"SoundDuration":794631,"Delta":339193916},{"NoteNumber":54,"Velocity":46,"Duration":1059508,"SoundDuration":1059508,"Delta":339193916},{"NoteNumber":58,"Velocity":48,"Duration":794631,"SoundDuration":794631,"Delta":339193916},{"NoteNumber":37,"Velocity":30,"Duration":1059508,"SoundDuration":1059508,"Delta":339193916},{"NoteNumber":42,"Velocity":30,"Duration":1059508,"SoundDuration":1059508,"Delta":339193916},{"NoteNumber":49,"Velocity":37,"Duration":1059508,"SoundDuration":1059508,"Delta":339193916},{"NoteNumber":61,"Velocity":45,"Duration":238389,"SoundDuration":238389,"Delta":339988548},{"NoteNumber":58,"Velocity":39,"Duration":238389,"SoundDuration":238389,"Delta":339988548},{"NoteNumber":61,"Velocity":50,"Duration":2166064,"SoundDuration":2166064,"Delta":340253425},{"NoteNumber":53,"Velocity":42,"Duration":1083032,"SoundDuration":1083032,"Delta":340253425},{"NoteNumber":58,"Velocity":45,"Duration":2166064,"SoundDuration":2166064,"Delta":340253425},{"NoteNumber":34,"Velocity":35,"Duration":1083032,"SoundDuration":1083032,"Delta":340253425},{"NoteNumber":41,"Velocity":35,"Duration":1083032,"SoundDuration":1083032,"Delta":340253425},{"NoteNumber":46,"Velocity":42,"Duration":1083032,"SoundDuration":1083032,"Delta":340253425},{"NoteNumber":54,"Velocity":35,"Duration":1083032,"SoundDuration":1083032,"Delta":341336457},{"NoteNumber":37,"Velocity":27,"Duration":1083032,"SoundDuration":1083032,"Delta":341336457},{"NoteNumber":42,"Velocity":27,"Duration":1083032,"SoundDuration":1083032,"Delta":341336457},{"NoteNumber":49,"Velocity":34,"Duration":1083032,"SoundDuration":1083032,"Delta":341336457},{"NoteNumber":61,"Velocity":58,"Duration":810882,"SoundDuration":810882,"Delta":342419489},{"NoteNumber":70,"Velocity":73,"Duration":480000,"SoundDuration":480000,"Delta":342419489},{"NoteNumber":58,"Velocity":58,"Duration":810882,"SoundDuration":810882,"Delta":342419489},{"NoteNumber":34,"Velocity":42,"Duration":936932,"SoundDuration":936932,"Delta":342419489},{"NoteNumber":41,"Velocity":42,"Duration":936932,"SoundDuration":936932,"Delta":342419489},{"NoteNumber":46,"Velocity":52,"Duration":936932,"SoundDuration":936932,"Delta":342419489},{"NoteNumber":68,"Velocity":67,"Duration":330882,"SoundDuration":330882,"Delta":342899489},{"NoteNumber":68,"Velocity":58,"Duration":126050,"SoundDuration":126050,"Delta":343230371},{"NoteNumber":61,"Velocity":55,"Duration":1018722,"SoundDuration":1018722,"Delta":343356422},{"NoteNumber":66,"Velocity":61,"Duration":764485,"SoundDuration":764485,"Delta":343356422},{"NoteNumber":58,"Velocity":55,"Duration":1018722,"SoundDuration":1018722,"Delta":343356422},{"NoteNumber":37,"Velocity":36,"Duration":1018722,"SoundDuration":1018722,"Delta":343356422},{"NoteNumber":42,"Velocity":36,"Duration":1018722,"SoundDuration":1018722,"Delta":343356422},{"NoteNumber":49,"Velocity":44,"Duration":1018722,"SoundDuration":1018722,"Delta":343356422},{"NoteNumber":65,"Velocity":53,"Duration":228813,"SoundDuration":228813,"Delta":344120907},{"NoteNumber":58,"Velocity":50,"Duration":1083032,"SoundDuration":1083032,"Delta":344375144},{"NoteNumber":65,"Velocity":59,"Duration":1083032,"SoundDuration":1083032,"Delta":344375144},{"NoteNumber":61,"Velocity":50,"Duration":1083032,"SoundDuration":1083032,"Delta":344375144},{"NoteNumber":34,"Velocity":38,"Duration":1083032,"SoundDuration":1083032,"Delta":344375144},{"NoteNumber":41,"Velocity":38,"Duration":1083032,"SoundDuration":1083032,"Delta":344375144},{"NoteNumber":46,"Velocity":46,"Duration":1083032,"SoundDuration":1083032,"Delta":344375144},{"NoteNumber":58,"Velocity":42,"Duration":1083032,"SoundDuration":1083032,"Delta":345458176},{"NoteNumber":61,"Velocity":51,"Duration":1083032,"SoundDuration":1083032,"Delta":345458176},{"NoteNumber":37,"Velocity":27,"Duration":1083032,"SoundDuration":1083032,"Delta":345458176},{"NoteNumber":42,"Velocity":27,"Duration":1083032,"SoundDuration":1083032,"Delta":345458176},{"NoteNumber":49,"Velocity":35,"Duration":1083032,"SoundDuration":1083032,"Delta":345458176},{"NoteNumber":61,"Velocity":58,"Duration":804657,"SoundDuration":804657,"Delta":346541208},{"NoteNumber":70,"Velocity":73,"Duration":476190,"SoundDuration":476190,"Delta":346541208},{"NoteNumber":58,"Velocity":58,"Duration":804657,"SoundDuration":804657,"Delta":346541208},{"NoteNumber":34,"Velocity":42,"Duration":930707,"SoundDuration":930707,"Delta":346541208},{"NoteNumber":41,"Velocity":42,"Duration":930707,"SoundDuration":930707,"Delta":346541208},{"NoteNumber":46,"Velocity":52,"Duration":930707,"SoundDuration":930707,"Delta":346541208},{"NoteNumber":68,"Velocity":67,"Duration":328466,"SoundDuration":328466,"Delta":347017398},{"NoteNumber":68,"Velocity":58,"Duration":126050,"SoundDuration":126050,"Delta":347345865},{"NoteNumber":61,"Velocity":55,"Duration":1025641,"SoundDuration":1025641,"Delta":347471916},{"NoteNumber":66,"Velocity":61,"Duration":769230,"SoundDuration":769230,"Delta":347471916},{"NoteNumber":58,"Velocity":55,"Duration":1025641,"SoundDuration":1025641,"Delta":347471916},{"NoteNumber":37,"Velocity":36,"Duration":1025641,"SoundDuration":1025641,"Delta":347471916},{"NoteNumber":42,"Velocity":36,"Duration":1025641,"SoundDuration":1025641,"Delta":347471916},{"NoteNumber":49,"Velocity":44,"Duration":1025641,"SoundDuration":1025641,"Delta":347471916},{"NoteNumber":65,"Velocity":54,"Duration":230769,"SoundDuration":230769,"Delta":348241147},{"NoteNumber":58,"Velocity":50,"Duration":1083032,"SoundDuration":1083032,"Delta":348497557},{"NoteNumber":65,"Velocity":59,"Duration":1083032,"SoundDuration":1083032,"Delta":348497557},{"NoteNumber":61,"Velocity":50,"Duration":1083032,"SoundDuration":1083032,"Delta":348497557},{"NoteNumber":34,"Velocity":38,"Duration":1083032,"SoundDuration":1083032,"Delta":348497557},{"NoteNumber":41,"Velocity":38,"Duration":1083032,"SoundDuration":1083032,"Delta":348497557},{"NoteNumber":46,"Velocity":46,"Duration":1083032,"SoundDuration":1083032,"Delta":348497557},{"NoteNumber":58,"Velocity":42,"Duration":1083032,"SoundDuration":1083032,"Delta":349580589},{"NoteNumber":61,"Velocity":51,"Duration":1083032,"SoundDuration":1083032,"Delta":349580589},{"NoteNumber":37,"Velocity":27,"Duration":1083032,"SoundDuration":1083032,"Delta":349580589},{"NoteNumber":42,"Velocity":27,"Duration":1083032,"SoundDuration":1083032,"Delta":349580589},{"NoteNumber":49,"Velocity":35,"Duration":1083032,"SoundDuration":1083032,"Delta":349580589},{"NoteNumber":53,"Velocity":39,"Duration":1044385,"SoundDuration":1044385,"Delta":350663621},{"NoteNumber":58,"Velocity":46,"Duration":1044385,"SoundDuration":1044385,"Delta":350663621},{"NoteNumber":34,"Velocity":32,"Duration":1044385,"SoundDuration":1044385,"Delta":350663621},{"NoteNumber":41,"Velocity":32,"Duration":1044385,"SoundDuration":1044385,"Delta":350663621},{"NoteNumber":46,"Velocity":39,"Duration":1044385,"SoundDuration":1044385,"Delta":350663621},{"NoteNumber":54,"Velocity":39,"Duration":1075076,"SoundDuration":1075076,"Delta":351708007},{"NoteNumber":58,"Velocity":46,"Duration":806307,"SoundDuration":806307,"Delta":351708007},{"NoteNumber":37,"Velocity":28,"Duration":1075076,"SoundDuration":1075076,"Delta":351708007},{"NoteNumber":42,"Velocity":34,"Duration":1075076,"SoundDuration":1075076,"Delta":351708007},{"NoteNumber":49,"Velocity":34,"Duration":1075076,"SoundDuration":1075076,"Delta":351708007},{"NoteNumber":58,"Velocity":41,"Duration":241892,"SoundDuration":241892,"Delta":352514314},{"NoteNumber":53,"Velocity":39,"Duration":1067235,"SoundDuration":1067235,"Delta":352783083},{"NoteNumber":58,"Velocity":46,"Duration":1067235,"SoundDuration":1067235,"Delta":352783083},{"NoteNumber":34,"Velocity":32,"Duration":1067235,"SoundDuration":1067235,"Delta":352783083},{"NoteNumber":41,"Velocity":32,"Duration":1067235,"SoundDuration":1067235,"Delta":352783083},{"NoteNumber":46,"Velocity":39,"Duration":1067235,"SoundDuration":1067235,"Delta":352783083},{"NoteNumber":61,"Velocity":54,"Duration":783289,"SoundDuration":783289,"Delta":353850319},{"NoteNumber":54,"Velocity":44,"Duration":1044385,"SoundDuration":1044385,"Delta":353850319},{"NoteNumber":37,"Velocity":25,"Duration":1044385,"SoundDuration":1044385,"Delta":353850319},{"NoteNumber":42,"Velocity":31,"Duration":1044385,"SoundDuration":1044385,"Delta":353850319},{"NoteNumber":49,"Velocity":31,"Duration":1044385,"SoundDuration":1044385,"Delta":353850319},{"NoteNumber":60,"Velocity":49,"Duration":130548,"SoundDuration":130548,"Delta":354633608},{"NoteNumber":61,"Velocity":45,"Duration":130548,"SoundDuration":130548,"Delta":354764157},{"NoteNumber":60,"Velocity":52,"Duration":783289,"SoundDuration":783289,"Delta":354894705},{"NoteNumber":53,"Velocity":44,"Duration":1044386,"SoundDuration":1044386,"Delta":354894705},{"NoteNumber":34,"Velocity":32,"Duration":1044386,"SoundDuration":1044386,"Delta":354894705},{"NoteNumber":41,"Velocity":32,"Duration":1044386,"SoundDuration":1044386,"Delta":354894705},{"NoteNumber":46,"Velocity":39,"Duration":1044386,"SoundDuration":1044386,"Delta":354894705},{"NoteNumber":58,"Velocity":46,"Duration":234986,"SoundDuration":234986,"Delta":355677994},{"NoteNumber":54,"Velocity":42,"Duration":1059508,"SoundDuration":1059508,"Delta":355939091},{"NoteNumber":58,"Velocity":50,"Duration":794631,"SoundDuration":794631,"Delta":355939091},{"NoteNumber":37,"Velocity":28,"Duration":1059508,"SoundDuration":1059508,"Delta":355939091},{"NoteNumber":42,"Velocity":28,"Duration":1059508,"SoundDuration":1059508,"Delta":355939091},{"NoteNumber":49,"Velocity":34,"Duration":1059508,"SoundDuration":1059508,"Delta":355939091},{"NoteNumber":58,"Velocity":41,"Duration":238389,"SoundDuration":238389,"Delta":356733723},{"NoteNumber":53,"Velocity":39,"Duration":1075076,"SoundDuration":1075076,"Delta":356998600},{"NoteNumber":58,"Velocity":46,"Duration":2150151,"SoundDuration":2150151,"Delta":356998600},{"NoteNumber":34,"Velocity":32,"Duration":1075076,"SoundDuration":1075076,"Delta":356998600},{"NoteNumber":41,"Velocity":32,"Duration":1075076,"SoundDuration":1075076,"Delta":356998600},{"NoteNumber":46,"Velocity":39,"Duration":1075076,"SoundDuration":1075076,"Delta":356998600},{"NoteNumber":54,"Velocity":32,"Duration":1075075,"SoundDuration":1075075,"Delta":358073676},{"NoteNumber":37,"Velocity":25,"Duration":1075075,"SoundDuration":1075075,"Delta":358073676},{"NoteNumber":42,"Velocity":25,"Duration":1075075,"SoundDuration":1075075,"Delta":358073676},{"NoteNumber":49,"Velocity":31,"Duration":1075075,"SoundDuration":1075075,"Delta":358073676},{"NoteNumber":73,"Velocity":68,"Duration":911802,"SoundDuration":911802,"Delta":359148752},{"NoteNumber":82,"Velocity":83,"Duration":476190,"SoundDuration":476190,"Delta":359148752},{"NoteNumber":70,"Velocity":68,"Duration":476190,"SoundDuration":476190,"Delta":359148752},{"NoteNumber":34,"Velocity":47,"Duration":961842,"SoundDuration":961842,"Delta":359148752},{"NoteNumber":41,"Velocity":47,"Duration":961842,"SoundDuration":961842,"Delta":359148752},{"NoteNumber":46,"Velocity":57,"Duration":961842,"SoundDuration":961842,"Delta":359148752},{"NoteNumber":68,"Velocity":56,"Duration":337371,"SoundDuration":337371,"Delta":359624942},{"NoteNumber":80,"Velocity":73,"Duration":337371,"SoundDuration":337371,"Delta":359624942},{"NoteNumber":68,"Velocity":64,"Duration":46950,"SoundDuration":46950,"Delta":359962314},{"NoteNumber":73,"Velocity":57,"Duration":1127199,"SoundDuration":1127199,"Delta":360009265},{"NoteNumber":80,"Velocity":59,"Duration":50040,"SoundDuration":50040,"Delta":360060555},{"NoteNumber":73,"Velocity":74,"Duration":1025869,"SoundDuration":1025869,"Delta":360110595},{"NoteNumber":78,"Velocity":73,"Duration":762711,"SoundDuration":762711,"Delta":360110595},{"NoteNumber":66,"Velocity":61,"Duration":1025869,"SoundDuration":1025869,"Delta":360110595},{"NoteNumber":37,"Velocity":37,"Duration":1025869,"SoundDuration":1025869,"Delta":360110595},{"NoteNumber":42,"Velocity":37,"Duration":1025869,"SoundDuration":1025869,"Delta":360110595},{"NoteNumber":49,"Velocity":46,"Duration":1025869,"SoundDuration":1025869,"Delta":360110595},{"NoteNumber":65,"Velocity":52,"Duration":236842,"SoundDuration":236842,"Delta":360873306},{"NoteNumber":77,"Velocity":61,"Duration":236842,"SoundDuration":236842,"Delta":360873306},{"NoteNumber":65,"Velocity":58,"Duration":1052632,"SoundDuration":1052632,"Delta":361136464},{"NoteNumber":77,"Velocity":69,"Duration":1052632,"SoundDuration":1052632,"Delta":361136464},{"NoteNumber":73,"Velocity":69,"Duration":1052632,"SoundDuration":1052632,"Delta":361136464},{"NoteNumber":34,"Velocity":39,"Duration":1052632,"SoundDuration":1052632,"Delta":361136464},{"NoteNumber":41,"Velocity":39,"Duration":1052632,"SoundDuration":1052632,"Delta":361136464},{"NoteNumber":46,"Velocity":48,"Duration":1052632,"SoundDuration":1052632,"Delta":361136464},{"NoteNumber":73,"Velocity":68,"Duration":1052631,"SoundDuration":1052631,"Delta":362189096},{"NoteNumber":61,"Velocity":57,"Duration":1052631,"SoundDuration":1052631,"Delta":362189096},{"NoteNumber":70,"Velocity":68,"Duration":1052631,"SoundDuration":1052631,"Delta":362189096},{"NoteNumber":37,"Velocity":30,"Duration":1052631,"SoundDuration":1052631,"Delta":362189096},{"NoteNumber":42,"Velocity":30,"Duration":1052631,"SoundDuration":1052631,"Delta":362189096},{"NoteNumber":49,"Velocity":38,"Duration":1052631,"SoundDuration":1052631,"Delta":362189096},{"NoteNumber":73,"Velocity":68,"Duration":921093,"SoundDuration":921093,"Delta":363241728},{"NoteNumber":82,"Velocity":83,"Duration":480000,"SoundDuration":480000,"Delta":363241728},{"NoteNumber":70,"Velocity":68,"Duration":480000,"SoundDuration":480000,"Delta":363241728},{"NoteNumber":34,"Velocity":47,"Duration":971472,"SoundDuration":971472,"Delta":363241728},{"NoteNumber":41,"Velocity":47,"Duration":971472,"SoundDuration":971472,"Delta":363241728},{"NoteNumber":46,"Velocity":57,"Duration":971472,"SoundDuration":971472,"Delta":363241728},{"NoteNumber":68,"Velocity":56,"Duration":339438,"SoundDuration":339438,"Delta":363721728},{"NoteNumber":80,"Velocity":73,"Duration":339438,"SoundDuration":339438,"Delta":363721728},{"NoteNumber":68,"Velocity":66,"Duration":48859,"SoundDuration":48859,"Delta":364061167},{"NoteNumber":73,"Velocity":58,"Duration":1135563,"SoundDuration":1135563,"Delta":364110026},{"NoteNumber":80,"Velocity":58,"Duration":50379,"SoundDuration":50379,"Delta":364162822},{"NoteNumber":73,"Velocity":76,"Duration":1032388,"SoundDuration":1032388,"Delta":364213201},{"NoteNumber":78,"Velocity":73,"Duration":769230,"SoundDuration":769230,"Delta":364213201},{"NoteNumber":66,"Velocity":63,"Duration":1032388,"SoundDuration":1032388,"Delta":364213201},{"NoteNumber":37,"Velocity":37,"Duration":1032388,"SoundDuration":1032388,"Delta":364213201},{"NoteNumber":42,"Velocity":37,"Duration":1032388,"SoundDuration":1032388,"Delta":364213201},{"NoteNumber":49,"Velocity":46,"Duration":1032388,"SoundDuration":1032388,"Delta":364213201},{"NoteNumber":65,"Velocity":52,"Duration":236842,"SoundDuration":236842,"Delta":364982432},{"NoteNumber":77,"Velocity":61,"Duration":236842,"SoundDuration":236842,"Delta":364982432},{"NoteNumber":65,"Velocity":58,"Duration":1071429,"SoundDuration":1071429,"Delta":365245590},{"NoteNumber":77,"Velocity":69,"Duration":1071429,"SoundDuration":1071429,"Delta":365245590},{"NoteNumber":73,"Velocity":69,"Duration":1071429,"SoundDuration":1071429,"Delta":365245590},{"NoteNumber":34,"Velocity":39,"Duration":1071429,"SoundDuration":1071429,"Delta":365245590},{"NoteNumber":41,"Velocity":39,"Duration":1071429,"SoundDuration":1071429,"Delta":365245590},{"NoteNumber":46,"Velocity":48,"Duration":1071429,"SoundDuration":1071429,"Delta":365245590},{"NoteNumber":73,"Velocity":68,"Duration":1071428,"SoundDuration":1071428,"Delta":366317019},{"NoteNumber":61,"Velocity":57,"Duration":1071428,"SoundDuration":1071428,"Delta":366317019},{"NoteNumber":70,"Velocity":68,"Duration":1071428,"SoundDuration":1071428,"Delta":366317019},{"NoteNumber":37,"Velocity":30,"Duration":1071428,"SoundDuration":1071428,"Delta":366317019},{"NoteNumber":42,"Velocity":30,"Duration":1071428,"SoundDuration":1071428,"Delta":366317019},{"NoteNumber":49,"Velocity":38,"Duration":1071428,"SoundDuration":1071428,"Delta":366317019},{"NoteNumber":58,"Velocity":52,"Duration":1044385,"SoundDuration":1044385,"Delta":367388448},{"NoteNumber":65,"Velocity":52,"Duration":1044385,"SoundDuration":1044385,"Delta":367388448},{"NoteNumber":70,"Velocity":61,"Duration":1044385,"SoundDuration":1044385,"Delta":367388448},{"NoteNumber":34,"Velocity":43,"Duration":1044385,"SoundDuration":1044385,"Delta":367388448},{"NoteNumber":41,"Velocity":43,"Duration":1044385,"SoundDuration":1044385,"Delta":367388448},{"NoteNumber":46,"Velocity":52,"Duration":1044385,"SoundDuration":1044385,"Delta":367388448},{"NoteNumber":58,"Velocity":53,"Duration":806307,"SoundDuration":806307,"Delta":368432834},{"NoteNumber":66,"Velocity":53,"Duration":1075076,"SoundDuration":1075076,"Delta":368432834},{"NoteNumber":70,"Velocity":63,"Duration":806307,"SoundDuration":806307,"Delta":368432834},{"NoteNumber":37,"Velocity":37,"Duration":1075076,"SoundDuration":1075076,"Delta":368432834},{"NoteNumber":42,"Velocity":46,"Duration":1075076,"SoundDuration":1075076,"Delta":368432834},{"NoteNumber":49,"Velocity":46,"Duration":1075076,"SoundDuration":1075076,"Delta":368432834},{"NoteNumber":58,"Velocity":48,"Duration":241892,"SoundDuration":241892,"Delta":369239141},{"NoteNumber":70,"Velocity":57,"Duration":241892,"SoundDuration":241892,"Delta":369239141},{"NoteNumber":58,"Velocity":54,"Duration":1067235,"SoundDuration":1067235,"Delta":369507910},{"NoteNumber":65,"Velocity":54,"Duration":1067235,"SoundDuration":1067235,"Delta":369507910},{"NoteNumber":70,"Velocity":65,"Duration":1067235,"SoundDuration":1067235,"Delta":369507910},{"NoteNumber":34,"Velocity":45,"Duration":1067235,"SoundDuration":1067235,"Delta":369507910},{"NoteNumber":41,"Velocity":45,"Duration":1067235,"SoundDuration":1067235,"Delta":369507910},{"NoteNumber":46,"Velocity":54,"Duration":1067235,"SoundDuration":1067235,"Delta":369507910},{"NoteNumber":61,"Velocity":68,"Duration":783289,"SoundDuration":783289,"Delta":370575146},{"NoteNumber":73,"Velocity":82,"Duration":783289,"SoundDuration":783289,"Delta":370575146},{"NoteNumber":66,"Velocity":66,"Duration":1044385,"SoundDuration":1044385,"Delta":370575146},{"NoteNumber":37,"Velocity":36,"Duration":1044385,"SoundDuration":1044385,"Delta":370575146},{"NoteNumber":42,"Velocity":46,"Duration":1044385,"SoundDuration":1044385,"Delta":370575146},{"NoteNumber":49,"Velocity":46,"Duration":1044385,"SoundDuration":1044385,"Delta":370575146},{"NoteNumber":60,"Velocity":59,"Duration":234986,"SoundDuration":234986,"Delta":371358436},{"NoteNumber":72,"Velocity":71,"Duration":234986,"SoundDuration":234986,"Delta":371358436},{"NoteNumber":60,"Velocity":68,"Duration":783289,"SoundDuration":783289,"Delta":371619532},{"NoteNumber":72,"Velocity":79,"Duration":783289,"SoundDuration":783289,"Delta":371619532},{"NoteNumber":65,"Velocity":68,"Duration":1044386,"SoundDuration":1044386,"Delta":371619532},{"NoteNumber":34,"Velocity":49,"Duration":1044386,"SoundDuration":1044386,"Delta":371619532},{"NoteNumber":41,"Velocity":49,"Duration":1044386,"SoundDuration":1044386,"Delta":371619532},{"NoteNumber":46,"Velocity":58,"Duration":1044386,"SoundDuration":1044386,"Delta":371619532},{"NoteNumber":58,"Velocity":59,"Duration":234986,"SoundDuration":234986,"Delta":372402822},{"NoteNumber":70,"Velocity":71,"Duration":234986,"SoundDuration":234986,"Delta":372402822},{"NoteNumber":58,"Velocity":64,"Duration":794631,"SoundDuration":794631,"Delta":372663918},{"NoteNumber":66,"Velocity":64,"Duration":1059508,"SoundDuration":1059508,"Delta":372663918},{"NoteNumber":70,"Velocity":77,"Duration":794631,"SoundDuration":794631,"Delta":372663918},{"NoteNumber":37,"Velocity":42,"Duration":1059508,"SoundDuration":1059508,"Delta":372663918},{"NoteNumber":42,"Velocity":42,"Duration":1059508,"SoundDuration":1059508,"Delta":372663918},{"NoteNumber":49,"Velocity":51,"Duration":1059508,"SoundDuration":1059508,"Delta":372663918},{"NoteNumber":58,"Velocity":60,"Duration":238389,"SoundDuration":238389,"Delta":373458550},{"NoteNumber":70,"Velocity":72,"Duration":238389,"SoundDuration":238389,"Delta":373458550},{"NoteNumber":58,"Velocity":63,"Duration":1075076,"SoundDuration":1075076,"Delta":373723427},{"NoteNumber":65,"Velocity":64,"Duration":1075076,"SoundDuration":1075076,"Delta":373723427},{"NoteNumber":70,"Velocity":76,"Duration":1075076,"SoundDuration":1075076,"Delta":373723427},{"NoteNumber":34,"Velocity":53,"Duration":1075076,"SoundDuration":1075076,"Delta":373723427},{"NoteNumber":41,"Velocity":53,"Duration":1075076,"SoundDuration":1075076,"Delta":373723427},{"NoteNumber":46,"Velocity":64,"Duration":1075076,"SoundDuration":1075076,"Delta":373723427},{"NoteNumber":68,"Velocity":75,"Duration":1075075,"SoundDuration":1075075,"Delta":374798503},{"NoteNumber":60,"Velocity":75,"Duration":1075075,"SoundDuration":1075075,"Delta":374798503},{"NoteNumber":72,"Velocity":95,"Duration":1075075,"SoundDuration":1075075,"Delta":374798503},{"NoteNumber":66,"Velocity":75,"Duration":1075075,"SoundDuration":1075075,"Delta":374798503},{"NoteNumber":32,"Velocity":56,"Duration":1075075,"SoundDuration":1075075,"Delta":374798503},{"NoteNumber":44,"Velocity":71,"Duration":1075075,"SoundDuration":1075075,"Delta":374798503},{"NoteNumber":61,"Velocity":78,"Duration":1075076,"SoundDuration":1075076,"Delta":375873579},{"NoteNumber":65,"Velocity":78,"Duration":1075076,"SoundDuration":1075076,"Delta":375873579},{"NoteNumber":73,"Velocity":100,"Duration":1075076,"SoundDuration":1075076,"Delta":375873579},{"NoteNumber":25,"Velocity":59,"Duration":1075076,"SoundDuration":1075076,"Delta":375873579},{"NoteNumber":37,"Velocity":74,"Duration":1075076,"SoundDuration":1075076,"Delta":375873579},{"NoteNumber":65,"Velocity":74,"Duration":806307,"SoundDuration":806307,"Delta":376948655},{"NoteNumber":73,"Velocity":74,"Duration":806307,"SoundDuration":806307,"Delta":376948655},{"NoteNumber":77,"Velocity":89,"Duration":806307,"SoundDuration":806307,"Delta":376948655},{"NoteNumber":49,"Velocity":64,"Duration":806307,"SoundDuration":806307,"Delta":376948655},{"NoteNumber":56,"Velocity":64,"Duration":806307,"SoundDuration":806307,"Delta":376948655},{"NoteNumber":61,"Velocity":76,"Duration":806307,"SoundDuration":806307,"Delta":376948655},{"NoteNumber":66,"Velocity":74,"Duration":268768,"SoundDuration":268768,"Delta":377754962},{"NoteNumber":78,"Velocity":89,"Duration":268768,"SoundDuration":268768,"Delta":377754962},{"NoteNumber":63,"Velocity":76,"Duration":268768,"SoundDuration":268768,"Delta":377754962},{"NoteNumber":68,"Velocity":78,"Duration":806307,"SoundDuration":806307,"Delta":378023731},{"NoteNumber":73,"Velocity":78,"Duration":806307,"SoundDuration":806307,"Delta":378023731},{"NoteNumber":80,"Velocity":93,"Duration":806307,"SoundDuration":806307,"Delta":378023731},{"NoteNumber":49,"Velocity":68,"Duration":806307,"SoundDuration":806307,"Delta":378023731},{"NoteNumber":56,"Velocity":68,"Duration":806307,"SoundDuration":806307,"Delta":378023731},{"NoteNumber":65,"Velocity":80,"Duration":806307,"SoundDuration":806307,"Delta":378023731},{"NoteNumber":70,"Velocity":78,"Duration":268769,"SoundDuration":268769,"Delta":378830038},{"NoteNumber":82,"Velocity":93,"Duration":268769,"SoundDuration":268769,"Delta":378830038},{"NoteNumber":66,"Velocity":80,"Duration":268769,"SoundDuration":268769,"Delta":378830038},{"NoteNumber":72,"Velocity":84,"Duration":825687,"SoundDuration":825687,"Delta":379098807},{"NoteNumber":80,"Velocity":84,"Duration":825687,"SoundDuration":825687,"Delta":379098807},{"NoteNumber":84,"Velocity":99,"Duration":825687,"SoundDuration":825687,"Delta":379098807},{"NoteNumber":63,"Velocity":73,"Duration":825687,"SoundDuration":825687,"Delta":379098807},{"NoteNumber":56,"Velocity":73,"Duration":825687,"SoundDuration":825687,"Delta":379098807},{"NoteNumber":68,"Velocity":86,"Duration":825687,"SoundDuration":825687,"Delta":379098807},{"NoteNumber":73,"Velocity":88,"Duration":275229,"SoundDuration":275229,"Delta":379924495},{"NoteNumber":85,"Velocity":102,"Duration":275229,"SoundDuration":275229,"Delta":379924495},{"NoteNumber":65,"Velocity":85,"Duration":275229,"SoundDuration":275229,"Delta":379924495},{"NoteNumber":84,"Velocity":88,"Duration":3750001,"SoundDuration":3750001,"Delta":380199724},{"NoteNumber":80,"Velocity":88,"Duration":3750001,"SoundDuration":3750001,"Delta":380199724},{"NoteNumber":77,"Velocity":88,"Duration":2142857,"SoundDuration":2142857,"Delta":380199724},{"NoteNumber":89,"Velocity":103,"Duration":2142857,"SoundDuration":2142857,"Delta":380199724},{"NoteNumber":32,"Velocity":77,"Duration":1071429,"SoundDuration":1071429,"Delta":380199724},{"NoteNumber":44,"Velocity":92,"Duration":1071429,"SoundDuration":1071429,"Delta":380199724},{"NoteNumber":63,"Velocity":69,"Duration":803571,"SoundDuration":803571,"Delta":381271153},{"NoteNumber":66,"Velocity":69,"Duration":803571,"SoundDuration":803571,"Delta":381271153},{"NoteNumber":72,"Velocity":81,"Duration":803571,"SoundDuration":803571,"Delta":381271153},{"NoteNumber":61,"Velocity":65,"Duration":241071,"SoundDuration":241071,"Delta":382074725},{"NoteNumber":66,"Velocity":65,"Duration":241071,"SoundDuration":241071,"Delta":382074725},{"NoteNumber":70,"Velocity":76,"Duration":241071,"SoundDuration":241071,"Delta":382074725},{"NoteNumber":75,"Velocity":79,"Duration":1607143,"SoundDuration":1607143,"Delta":382342582},{"NoteNumber":87,"Velocity":95,"Duration":1607143,"SoundDuration":1607143,"Delta":382342582},{"NoteNumber":61,"Velocity":63,"Duration":803571,"SoundDuration":803571,"Delta":382342582},{"NoteNumber":66,"Velocity":63,"Duration":803571,"SoundDuration":803571,"Delta":382342582},{"NoteNumber":70,"Velocity":75,"Duration":803571,"SoundDuration":803571,"Delta":382342582},{"NoteNumber":60,"Velocity":59,"Duration":241071,"SoundDuration":241071,"Delta":383146154},{"NoteNumber":66,"Velocity":59,"Duration":241071,"SoundDuration":241071,"Delta":383146154},{"NoteNumber":68,"Velocity":71,"Duration":241071,"SoundDuration":241071,"Delta":383146154},{"NoteNumber":60,"Velocity":57,"Duration":803571,"SoundDuration":803571,"Delta":383414011},{"NoteNumber":66,"Velocity":57,"Duration":803571,"SoundDuration":803571,"Delta":383414011},{"NoteNumber":68,"Velocity":68,"Duration":803571,"SoundDuration":803571,"Delta":383414011},{"NoteNumber":66,"Velocity":75,"Duration":294117,"SoundDuration":294117,"Delta":384217583},{"NoteNumber":72,"Velocity":75,"Duration":294117,"SoundDuration":294117,"Delta":384217583},{"NoteNumber":75,"Velocity":75,"Duration":294117,"SoundDuration":294117,"Delta":384217583},{"NoteNumber":78,"Velocity":89,"Duration":294117,"SoundDuration":294117,"Delta":384217583},{"NoteNumber":57,"Velocity":66,"Duration":294117,"SoundDuration":294117,"Delta":384217583},{"NoteNumber":60,"Velocity":66,"Duration":294117,"SoundDuration":294117,"Delta":384217583},{"NoteNumber":63,"Velocity":77,"Duration":294117,"SoundDuration":294117,"Delta":384217583},{"NoteNumber":75,"Velocity":80,"Duration":1071429,"SoundDuration":1071429,"Delta":384511701},{"NoteNumber":65,"Velocity":80,"Duration":1071429,"SoundDuration":1071429,"Delta":384511701},{"NoteNumber":72,"Velocity":80,"Duration":1071429,"SoundDuration":1071429,"Delta":384511701},{"NoteNumber":77,"Velocity":102,"Duration":1071429,"SoundDuration":1071429,"Delta":384511701},{"NoteNumber":34,"Velocity":66,"Duration":1071429,"SoundDuration":1071429,"Delta":384511701},{"NoteNumber":46,"Velocity":78,"Duration":1071429,"SoundDuration":1071429,"Delta":384511701},{"NoteNumber":70,"Velocity":74,"Duration":803571,"SoundDuration":803571,"Delta":385583130},{"NoteNumber":65,"Velocity":74,"Duration":803571,"SoundDuration":803571,"Delta":385583130},{"NoteNumber":73,"Velocity":74,"Duration":803571,"SoundDuration":803571,"Delta":385583130},{"NoteNumber":77,"Velocity":89,"Duration":803571,"SoundDuration":803571,"Delta":385583130},{"NoteNumber":53,"Velocity":63,"Duration":1071428,"SoundDuration":1071428,"Delta":385583130},{"NoteNumber":58,"Velocity":63,"Duration":1071428,"SoundDuration":1071428,"Delta":385583130},{"NoteNumber":61,"Velocity":75,"Duration":1071428,"SoundDuration":1071428,"Delta":385583130},{"NoteNumber":67,"Velocity":74,"Duration":267857,"SoundDuration":267857,"Delta":386386701},{"NoteNumber":79,"Velocity":89,"Duration":267857,"SoundDuration":267857,"Delta":386386701},{"NoteNumber":77,"Velocity":78,"Duration":803571,"SoundDuration":803571,"Delta":386654559},{"NoteNumber":69,"Velocity":78,"Duration":803571,"SoundDuration":803571,"Delta":386654559},{"NoteNumber":73,"Velocity":78,"Duration":803571,"SoundDuration":803571,"Delta":386654559},{"NoteNumber":81,"Velocity":93,"Duration":803571,"SoundDuration":803571,"Delta":386654559},{"NoteNumber":37,"Velocity":68,"Duration":1071429,"SoundDuration":1071429,"Delta":386654559},{"NoteNumber":49,"Velocity":80,"Duration":1071429,"SoundDuration":1071429,"Delta":386654559},{"NoteNumber":70,"Velocity":78,"Duration":267857,"SoundDuration":267857,"Delta":387458130},{"NoteNumber":82,"Velocity":93,"Duration":267857,"SoundDuration":267857,"Delta":387458130},{"NoteNumber":72,"Velocity":84,"Duration":843834,"SoundDuration":843834,"Delta":387725988},{"NoteNumber":77,"Velocity":84,"Duration":843834,"SoundDuration":843834,"Delta":387725988},{"NoteNumber":84,"Velocity":99,"Duration":843834,"SoundDuration":843834,"Delta":387725988},{"NoteNumber":65,"Velocity":76,"Duration":1198543,"SoundDuration":1198543,"Delta":387725988},{"NoteNumber":61,"Velocity":64,"Duration":1198543,"SoundDuration":1198543,"Delta":387725988},{"NoteNumber":58,"Velocity":64,"Duration":1198543,"SoundDuration":1198543,"Delta":387725988},{"NoteNumber":53,"Velocity":64,"Duration":1198543,"SoundDuration":1198543,"Delta":387725988},{"NoteNumber":73,"Velocity":88,"Duration":164835,"SoundDuration":164835,"Delta":388569822},{"NoteNumber":85,"Velocity":102,"Duration":164835,"SoundDuration":164835,"Delta":388569822},{"NoteNumber":70,"Velocity":88,"Duration":2391707,"SoundDuration":2391707,"Delta":388734657},{"NoteNumber":76,"Velocity":88,"Duration":2328416,"SoundDuration":2328416,"Delta":388797949},{"NoteNumber":79,"Velocity":88,"Duration":2265125,"SoundDuration":2265125,"Delta":388861240},{"NoteNumber":85,"Velocity":103,"Duration":2201834,"SoundDuration":2201834,"Delta":388924531},{"NoteNumber":29,"Velocity":77,"Duration":1100916,"SoundDuration":1100916,"Delta":388924531},{"NoteNumber":41,"Velocity":92,"Duration":1100916,"SoundDuration":1100916,"Delta":388924531},{"NoteNumber":53,"Velocity":69,"Duration":1100917,"SoundDuration":1100917,"Delta":390025448},{"NoteNumber":58,"Velocity":69,"Duration":1100917,"SoundDuration":1100917,"Delta":390025448},{"NoteNumber":61,"Velocity":69,"Duration":1100917,"SoundDuration":1100917,"Delta":390025448},{"NoteNumber":67,"Velocity":81,"Duration":1100917,"SoundDuration":1100917,"Delta":390025448},{"NoteNumber":72,"Velocity":76,"Duration":1100916,"SoundDuration":1100916,"Delta":391126365},{"NoteNumber":77,"Velocity":76,"Duration":1100916,"SoundDuration":1100916,"Delta":391126365},{"NoteNumber":84,"Velocity":90,"Duration":1100916,"SoundDuration":1100916,"Delta":391126365},{"NoteNumber":53,"Velocity":64,"Duration":1100916,"SoundDuration":1100916,"Delta":391126365},{"NoteNumber":57,"Velocity":64,"Duration":1100916,"SoundDuration":1100916,"Delta":391126365},{"NoteNumber":60,"Velocity":64,"Duration":1100916,"SoundDuration":1100916,"Delta":391126365},{"NoteNumber":69,"Velocity":75,"Duration":1100916,"SoundDuration":1100916,"Delta":391126365},{"NoteNumber":53,"Velocity":87,"Duration":740740,"SoundDuration":740740,"Delta":392227282},{"NoteNumber":43,"Velocity":61,"Duration":101147,"SoundDuration":101147,"Delta":392968022},{"NoteNumber":44,"Velocity":61,"Duration":104726,"SoundDuration":104726,"Delta":393069170},{"NoteNumber":46,"Velocity":61,"Duration":108711,"SoundDuration":108711,"Delta":393173896},{"NoteNumber":56,"Velocity":68,"Duration":1066807,"SoundDuration":1066807,"Delta":393282608},{"NoteNumber":54,"Velocity":68,"Duration":1066807,"SoundDuration":1066807,"Delta":393282608},{"NoteNumber":60,"Velocity":68,"Duration":1066807,"SoundDuration":1066807,"Delta":393282608},{"NoteNumber":65,"Velocity":68,"Duration":1066807,"SoundDuration":1066807,"Delta":393282608},{"NoteNumber":68,"Velocity":80,"Duration":1066807,"SoundDuration":1066807,"Delta":393282608},{"NoteNumber":44,"Velocity":61,"Duration":104166,"SoundDuration":104166,"Delta":393282608},{"NoteNumber":46,"Velocity":56,"Duration":103954,"SoundDuration":103954,"Delta":393386774},{"NoteNumber":44,"Velocity":64,"Duration":102898,"SoundDuration":102898,"Delta":393490729},{"NoteNumber":46,"Velocity":57,"Duration":101863,"SoundDuration":101863,"Delta":393593627},{"NoteNumber":44,"Velocity":66,"Duration":100848,"SoundDuration":100848,"Delta":393695490},{"NoteNumber":46,"Velocity":59,"Duration":99853,"SoundDuration":99853,"Delta":393796339},{"NoteNumber":44,"Velocity":68,"Duration":98878,"SoundDuration":98878,"Delta":393896193},{"NoteNumber":46,"Velocity":61,"Duration":97921,"SoundDuration":97921,"Delta":393995071},{"NoteNumber":44,"Velocity":70,"Duration":96890,"SoundDuration":96890,"Delta":394092992},{"NoteNumber":46,"Velocity":65,"Duration":95972,"SoundDuration":95972,"Delta":394189883},{"NoteNumber":44,"Velocity":73,"Duration":95071,"SoundDuration":95071,"Delta":394285856},{"NoteNumber":54,"Velocity":68,"Duration":1033703,"SoundDuration":1033703,"Delta":394349415},{"NoteNumber":56,"Velocity":68,"Duration":1033703,"SoundDuration":1033703,"Delta":394349415},{"NoteNumber":60,"Velocity":68,"Duration":1033703,"SoundDuration":1033703,"Delta":394349415},{"NoteNumber":63,"Velocity":68,"Duration":1033703,"SoundDuration":1033703,"Delta":394349415},{"NoteNumber":68,"Velocity":80,"Duration":1033703,"SoundDuration":1033703,"Delta":394349415},{"NoteNumber":46,"Velocity":66,"Duration":94187,"SoundDuration":94187,"Delta":394380928},{"NoteNumber":44,"Velocity":72,"Duration":93750,"SoundDuration":93750,"Delta":394475115},{"NoteNumber":46,"Velocity":63,"Duration":94292,"SoundDuration":94292,"Delta":394570949},{"NoteNumber":44,"Velocity":69,"Duration":95160,"SoundDuration":95160,"Delta":394663141},{"NoteNumber":46,"Velocity":60,"Duration":98218,"SoundDuration":98218,"Delta":394758302},{"NoteNumber":44,"Velocity":66,"Duration":129685,"SoundDuration":129685,"Delta":394854365},{"NoteNumber":46,"Velocity":58,"Duration":131197,"SoundDuration":131197,"Delta":394984050},{"NoteNumber":43,"Velocity":64,"Duration":133138,"SoundDuration":133138,"Delta":395115248},{"NoteNumber":44,"Velocity":55,"Duration":134732,"SoundDuration":134732,"Delta":395248386},{"NoteNumber":53,"Velocity":68,"Duration":1100916,"SoundDuration":1100916,"Delta":395383119},{"NoteNumber":61,"Velocity":68,"Duration":1100916,"SoundDuration":1100916,"Delta":395383119},{"NoteNumber":68,"Velocity":80,"Duration":1100916,"SoundDuration":1100916,"Delta":395383119},{"NoteNumber":49,"Velocity":68,"Duration":1100916,"SoundDuration":1100916,"Delta":395383119},{"NoteNumber":49,"Velocity":82,"Duration":750000,"SoundDuration":750000,"Delta":396484036},{"NoteNumber":40,"Velocity":61,"Duration":102570,"SoundDuration":102570,"Delta":397234036},{"NoteNumber":41,"Velocity":61,"Duration":105827,"SoundDuration":105827,"Delta":397336607},{"NoteNumber":42,"Velocity":61,"Duration":109451,"SoundDuration":109451,"Delta":397442434},{"NoteNumber":57,"Velocity":68,"Duration":1066807,"SoundDuration":1066807,"Delta":397551886},{"NoteNumber":51,"Velocity":68,"Duration":1066807,"SoundDuration":1066807,"Delta":397551886},{"NoteNumber":61,"Velocity":68,"Duration":1066807,"SoundDuration":1066807,"Delta":397551886},{"NoteNumber":65,"Velocity":80,"Duration":1066807,"SoundDuration":1066807,"Delta":397551886},{"NoteNumber":41,"Velocity":61,"Duration":104166,"SoundDuration":104166,"Delta":397551886},{"NoteNumber":42,"Velocity":56,"Duration":103954,"SoundDuration":103954,"Delta":397656052},{"NoteNumber":41,"Velocity":64,"Duration":102898,"SoundDuration":102898,"Delta":397760007},{"NoteNumber":42,"Velocity":57,"Duration":101863,"SoundDuration":101863,"Delta":397862905},{"NoteNumber":41,"Velocity":66,"Duration":100848,"SoundDuration":100848,"Delta":397964768},{"NoteNumber":42,"Velocity":59,"Duration":99853,"SoundDuration":99853,"Delta":398065617},{"NoteNumber":41,"Velocity":68,"Duration":98878,"SoundDuration":98878,"Delta":398165471},{"NoteNumber":42,"Velocity":61,"Duration":97921,"SoundDuration":97921,"Delta":398264349},{"NoteNumber":41,"Velocity":70,"Duration":96890,"SoundDuration":96890,"Delta":398362270},{"NoteNumber":42,"Velocity":65,"Duration":95972,"SoundDuration":95972,"Delta":398459161},{"NoteNumber":41,"Velocity":73,"Duration":95071,"SoundDuration":95071,"Delta":398555134},{"NoteNumber":51,"Velocity":68,"Duration":1033703,"SoundDuration":1033703,"Delta":398618693},{"NoteNumber":57,"Velocity":68,"Duration":1033703,"SoundDuration":1033703,"Delta":398618693},{"NoteNumber":60,"Velocity":68,"Duration":1033703,"SoundDuration":1033703,"Delta":398618693},{"NoteNumber":65,"Velocity":80,"Duration":1033703,"SoundDuration":1033703,"Delta":398618693},{"NoteNumber":42,"Velocity":66,"Duration":94187,"SoundDuration":94187,"Delta":398650206},{"NoteNumber":41,"Velocity":72,"Duration":93750,"SoundDuration":93750,"Delta":398744393},{"NoteNumber":42,"Velocity":63,"Duration":94292,"SoundDuration":94292,"Delta":398840227},{"NoteNumber":41,"Velocity":69,"Duration":95160,"SoundDuration":95160,"Delta":398932418},{"NoteNumber":42,"Velocity":60,"Duration":98218,"SoundDuration":98218,"Delta":399027579},{"NoteNumber":41,"Velocity":66,"Duration":129685,"SoundDuration":129685,"Delta":399123643},{"NoteNumber":42,"Velocity":58,"Duration":131197,"SoundDuration":131197,"Delta":399253328},{"NoteNumber":40,"Velocity":64,"Duration":133138,"SoundDuration":133138,"Delta":399384525},{"NoteNumber":41,"Velocity":55,"Duration":134732,"SoundDuration":134732,"Delta":399517664},{"NoteNumber":49,"Velocity":68,"Duration":2255189,"SoundDuration":2255189,"Delta":399652397},{"NoteNumber":58,"Velocity":80,"Duration":2255189,"SoundDuration":2255189,"Delta":399652397},{"NoteNumber":42,"Velocity":64,"Duration":1100916,"SoundDuration":1100916,"Delta":399652397},{"NoteNumber":41,"Velocity":49,"Duration":566037,"SoundDuration":566037,"Delta":400753314},{"NoteNumber":37,"Velocity":39,"Duration":588235,"SoundDuration":588235,"Delta":401319351},{"NoteNumber":46,"Velocity":39,"Duration":1044385,"SoundDuration":1044385,"Delta":401907587},{"NoteNumber":53,"Velocity":39,"Duration":1044385,"SoundDuration":1044385,"Delta":401907587},{"NoteNumber":58,"Velocity":46,"Duration":1044385,"SoundDuration":1044385,"Delta":401907587},{"NoteNumber":34,"Velocity":32,"Duration":1044385,"SoundDuration":1044385,"Delta":401907587},{"NoteNumber":41,"Velocity":32,"Duration":1044385,"SoundDuration":1044385,"Delta":401907587},{"NoteNumber":46,"Velocity":39,"Duration":1044385,"SoundDuration":1044385,"Delta":401907587},{"NoteNumber":54,"Velocity":39,"Duration":1075076,"SoundDuration":1075076,"Delta":402951973},{"NoteNumber":58,"Velocity":46,"Duration":806307,"SoundDuration":806307,"Delta":402951973},{"NoteNumber":37,"Velocity":28,"Duration":1075076,"SoundDuration":1075076,"Delta":402951973},{"NoteNumber":42,"Velocity":34,"Duration":1075076,"SoundDuration":1075076,"Delta":402951973},{"NoteNumber":49,"Velocity":34,"Duration":1075076,"SoundDuration":1075076,"Delta":402951973},{"NoteNumber":58,"Velocity":41,"Duration":241892,"SoundDuration":241892,"Delta":403758280},{"NoteNumber":53,"Velocity":39,"Duration":1067235,"SoundDuration":1067235,"Delta":404027049},{"NoteNumber":58,"Velocity":46,"Duration":1067235,"SoundDuration":1067235,"Delta":404027049},{"NoteNumber":34,"Velocity":32,"Duration":1067235,"SoundDuration":1067235,"Delta":404027049},{"NoteNumber":41,"Velocity":32,"Duration":1067235,"SoundDuration":1067235,"Delta":404027049},{"NoteNumber":46,"Velocity":39,"Duration":1067235,"SoundDuration":1067235,"Delta":404027049},{"NoteNumber":61,"Velocity":54,"Duration":783289,"SoundDuration":783289,"Delta":405094285},{"NoteNumber":54,"Velocity":44,"Duration":1044385,"SoundDuration":1044385,"Delta":405094285},{"NoteNumber":37,"Velocity":25,"Duration":1044385,"SoundDuration":1044385,"Delta":405094285},{"NoteNumber":42,"Velocity":31,"Duration":1044385,"SoundDuration":1044385,"Delta":405094285},{"NoteNumber":49,"Velocity":31,"Duration":1044385,"SoundDuration":1044385,"Delta":405094285},{"NoteNumber":60,"Velocity":49,"Duration":130548,"SoundDuration":130548,"Delta":405877574},{"NoteNumber":61,"Velocity":45,"Duration":130548,"SoundDuration":130548,"Delta":406008123},{"NoteNumber":60,"Velocity":52,"Duration":783289,"SoundDuration":783289,"Delta":406138671},{"NoteNumber":53,"Velocity":44,"Duration":1044386,"SoundDuration":1044386,"Delta":406138671},{"NoteNumber":34,"Velocity":32,"Duration":1044386,"SoundDuration":1044386,"Delta":406138671},{"NoteNumber":41,"Velocity":32,"Duration":1044386,"SoundDuration":1044386,"Delta":406138671},{"NoteNumber":46,"Velocity":39,"Duration":1044386,"SoundDuration":1044386,"Delta":406138671},{"NoteNumber":58,"Velocity":46,"Duration":261096,"SoundDuration":261096,"Delta":406921960},{"NoteNumber":54,"Velocity":42,"Duration":1059508,"SoundDuration":1059508,"Delta":407183057},{"NoteNumber":58,"Velocity":50,"Duration":794631,"SoundDuration":794631,"Delta":407183057},{"NoteNumber":37,"Velocity":28,"Duration":1059508,"SoundDuration":1059508,"Delta":407183057},{"NoteNumber":42,"Velocity":28,"Duration":1059508,"SoundDuration":1059508,"Delta":407183057},{"NoteNumber":49,"Velocity":34,"Duration":1059508,"SoundDuration":1059508,"Delta":407183057},{"NoteNumber":58,"Velocity":41,"Duration":238389,"SoundDuration":238389,"Delta":407977689},{"NoteNumber":53,"Velocity":39,"Duration":1075076,"SoundDuration":1075076,"Delta":408242566},{"NoteNumber":58,"Velocity":46,"Duration":1075076,"SoundDuration":1075076,"Delta":408242566},{"NoteNumber":34,"Velocity":32,"Duration":1075076,"SoundDuration":1075076,"Delta":408242566},{"NoteNumber":41,"Velocity":32,"Duration":1075076,"SoundDuration":1075076,"Delta":408242566},{"NoteNumber":46,"Velocity":39,"Duration":1075076,"SoundDuration":1075076,"Delta":408242566},{"NoteNumber":55,"Velocity":76,"Duration":806307,"SoundDuration":806307,"Delta":409317642},{"NoteNumber":61,"Velocity":97,"Duration":806307,"SoundDuration":806307,"Delta":409317642},{"NoteNumber":52,"Velocity":76,"Duration":806307,"SoundDuration":806307,"Delta":409317642},{"NoteNumber":33,"Velocity":57,"Duration":806307,"SoundDuration":806307,"Delta":409317642},{"NoteNumber":45,"Velocity":73,"Duration":806307,"SoundDuration":806307,"Delta":409317642},{"NoteNumber":54,"Velocity":76,"Duration":268768,"SoundDuration":268768,"Delta":410123949},{"NoteNumber":60,"Velocity":76,"Duration":268768,"SoundDuration":268768,"Delta":410123949},{"NoteNumber":63,"Velocity":97,"Duration":268768,"SoundDuration":268768,"Delta":410123949},{"NoteNumber":32,"Velocity":57,"Duration":268768,"SoundDuration":268768,"Delta":410123949},{"NoteNumber":44,"Velocity":73,"Duration":268768,"SoundDuration":268768,"Delta":410123949},{"NoteNumber":53,"Velocity":79,"Duration":1075076,"SoundDuration":1075076,"Delta":410392718},{"NoteNumber":61,"Velocity":79,"Duration":1075076,"SoundDuration":1075076,"Delta":410392718},{"NoteNumber":65,"Velocity":101,"Duration":1075076,"SoundDuration":1075076,"Delta":410392718},{"NoteNumber":25,"Velocity":60,"Duration":1075076,"SoundDuration":1075076,"Delta":410392718},{"NoteNumber":37,"Velocity":76,"Duration":1075076,"SoundDuration":1075076,"Delta":410392718},{"NoteNumber":65,"Velocity":74,"Duration":806307,"SoundDuration":806307,"Delta":411467794},{"NoteNumber":73,"Velocity":74,"Duration":806307,"SoundDuration":806307,"Delta":411467794},{"NoteNumber":77,"Velocity":89,"Duration":806307,"SoundDuration":806307,"Delta":411467794},{"NoteNumber":49,"Velocity":64,"Duration":806307,"SoundDuration":806307,"Delta":411467794},{"NoteNumber":56,"Velocity":64,"Duration":806307,"SoundDuration":806307,"Delta":411467794},{"NoteNumber":61,"Velocity":77,"Duration":806307,"SoundDuration":806307,"Delta":411467794},{"NoteNumber":66,"Velocity":74,"Duration":268768,"SoundDuration":268768,"Delta":412274101},{"NoteNumber":78,"Velocity":89,"Duration":268768,"SoundDuration":268768,"Delta":412274101},{"NoteNumber":63,"Velocity":77,"Duration":268768,"SoundDuration":268768,"Delta":412274101},{"NoteNumber":68,"Velocity":79,"Duration":806307,"SoundDuration":806307,"Delta":412542870},{"NoteNumber":73,"Velocity":79,"Duration":806307,"SoundDuration":806307,"Delta":412542870},{"NoteNumber":80,"Velocity":93,"Duration":806307,"SoundDuration":806307,"Delta":412542870},{"NoteNumber":49,"Velocity":68,"Duration":806307,"SoundDuration":806307,"Delta":412542870},{"NoteNumber":56,"Velocity":68,"Duration":806307,"SoundDuration":806307,"Delta":412542870},{"NoteNumber":65,"Velocity":81,"Duration":806307,"SoundDuration":806307,"Delta":412542870},{"NoteNumber":70,"Velocity":79,"Duration":268769,"SoundDuration":268769,"Delta":413349177},{"NoteNumber":82,"Velocity":93,"Duration":268769,"SoundDuration":268769,"Delta":413349177},{"NoteNumber":66,"Velocity":81,"Duration":268769,"SoundDuration":268769,"Delta":413349177},{"NoteNumber":72,"Velocity":84,"Duration":825687,"SoundDuration":825687,"Delta":413617946},{"NoteNumber":80,"Velocity":84,"Duration":825687,"SoundDuration":825687,"Delta":413617946},{"NoteNumber":84,"Velocity":100,"Duration":825687,"SoundDuration":825687,"Delta":413617946},{"NoteNumber":63,"Velocity":73,"Duration":825687,"SoundDuration":825687,"Delta":413617946},{"NoteNumber":56,"Velocity":73,"Duration":825687,"SoundDuration":825687,"Delta":413617946},{"NoteNumber":68,"Velocity":86,"Duration":825687,"SoundDuration":825687,"Delta":413617946},{"NoteNumber":73,"Velocity":88,"Duration":275229,"SoundDuration":275229,"Delta":414443634},{"NoteNumber":85,"Velocity":103,"Duration":275229,"SoundDuration":275229,"Delta":414443634},{"NoteNumber":65,"Velocity":85,"Duration":275229,"SoundDuration":275229,"Delta":414443634},{"NoteNumber":84,"Velocity":88,"Duration":3750001,"SoundDuration":3750001,"Delta":414718863},{"NoteNumber":80,"Velocity":88,"Duration":3750001,"SoundDuration":3750001,"Delta":414718863},{"NoteNumber":77,"Velocity":88,"Duration":2142857,"SoundDuration":2142857,"Delta":414718863},{"NoteNumber":89,"Velocity":104,"Duration":2142857,"SoundDuration":2142857,"Delta":414718863},{"NoteNumber":32,"Velocity":78,"Duration":1071429,"SoundDuration":1071429,"Delta":414718863},{"NoteNumber":44,"Velocity":92,"Duration":1071429,"SoundDuration":1071429,"Delta":414718863},{"NoteNumber":63,"Velocity":69,"Duration":803571,"SoundDuration":803571,"Delta":415790292},{"NoteNumber":66,"Velocity":69,"Duration":803571,"SoundDuration":803571,"Delta":415790292},{"NoteNumber":72,"Velocity":81,"Duration":803571,"SoundDuration":803571,"Delta":415790292},{"NoteNumber":61,"Velocity":64,"Duration":241071,"SoundDuration":241071,"Delta":416593864},{"NoteNumber":66,"Velocity":64,"Duration":241071,"SoundDuration":241071,"Delta":416593864},{"NoteNumber":70,"Velocity":76,"Duration":241071,"SoundDuration":241071,"Delta":416593864},{"NoteNumber":75,"Velocity":79,"Duration":1607143,"SoundDuration":1607143,"Delta":416861721},{"NoteNumber":87,"Velocity":95,"Duration":1607143,"SoundDuration":1607143,"Delta":416861721},{"NoteNumber":61,"Velocity":63,"Duration":803571,"SoundDuration":803571,"Delta":416861721},{"NoteNumber":66,"Velocity":63,"Duration":803571,"SoundDuration":803571,"Delta":416861721},{"NoteNumber":70,"Velocity":75,"Duration":803571,"SoundDuration":803571,"Delta":416861721},{"NoteNumber":60,"Velocity":59,"Duration":241071,"SoundDuration":241071,"Delta":417665293},{"NoteNumber":66,"Velocity":59,"Duration":241071,"SoundDuration":241071,"Delta":417665293},{"NoteNumber":68,"Velocity":70,"Duration":241071,"SoundDuration":241071,"Delta":417665293},{"NoteNumber":60,"Velocity":58,"Duration":803571,"SoundDuration":803571,"Delta":417933150},{"NoteNumber":66,"Velocity":58,"Duration":803571,"SoundDuration":803571,"Delta":417933150},{"NoteNumber":68,"Velocity":68,"Duration":803571,"SoundDuration":803571,"Delta":417933150},{"NoteNumber":66,"Velocity":72,"Duration":294117,"SoundDuration":294117,"Delta":418736722},{"NoteNumber":72,"Velocity":72,"Duration":294117,"SoundDuration":294117,"Delta":418736722},{"NoteNumber":75,"Velocity":72,"Duration":294117,"SoundDuration":294117,"Delta":418736722},{"NoteNumber":78,"Velocity":85,"Duration":294117,"SoundDuration":294117,"Delta":418736722},{"NoteNumber":57,"Velocity":63,"Duration":294117,"SoundDuration":294117,"Delta":418736722},{"NoteNumber":60,"Velocity":63,"Duration":294117,"SoundDuration":294117,"Delta":418736722},{"NoteNumber":63,"Velocity":74,"Duration":294117,"SoundDuration":294117,"Delta":418736722},{"NoteNumber":75,"Velocity":77,"Duration":1071429,"SoundDuration":1071429,"Delta":419030839},{"NoteNumber":65,"Velocity":77,"Duration":1071429,"SoundDuration":1071429,"Delta":419030839},{"NoteNumber":72,"Velocity":77,"Duration":1071429,"SoundDuration":1071429,"Delta":419030839},{"NoteNumber":77,"Velocity":98,"Duration":1071429,"SoundDuration":1071429,"Delta":419030839},{"NoteNumber":34,"Velocity":63,"Duration":1071429,"SoundDuration":1071429,"Delta":419030839},{"NoteNumber":46,"Velocity":75,"Duration":1071429,"SoundDuration":1071429,"Delta":419030839},{"NoteNumber":70,"Velocity":74,"Duration":803571,"SoundDuration":803571,"Delta":420102268},{"NoteNumber":65,"Velocity":74,"Duration":803571,"SoundDuration":803571,"Delta":420102268},{"NoteNumber":73,"Velocity":74,"Duration":803571,"SoundDuration":803571,"Delta":420102268},{"NoteNumber":77,"Velocity":89,"Duration":803571,"SoundDuration":803571,"Delta":420102268},{"NoteNumber":53,"Velocity":63,"Duration":1071428,"SoundDuration":1071428,"Delta":420102268},{"NoteNumber":58,"Velocity":63,"Duration":1071428,"SoundDuration":1071428,"Delta":420102268},{"NoteNumber":61,"Velocity":75,"Duration":1071428,"SoundDuration":1071428,"Delta":420102268},{"NoteNumber":67,"Velocity":74,"Duration":267857,"SoundDuration":267857,"Delta":420905840},{"NoteNumber":79,"Velocity":89,"Duration":267857,"SoundDuration":267857,"Delta":420905840},{"NoteNumber":77,"Velocity":78,"Duration":803571,"SoundDuration":803571,"Delta":421173697},{"NoteNumber":69,"Velocity":78,"Duration":803571,"SoundDuration":803571,"Delta":421173697},{"NoteNumber":73,"Velocity":78,"Duration":803571,"SoundDuration":803571,"Delta":421173697},{"NoteNumber":81,"Velocity":93,"Duration":803571,"SoundDuration":803571,"Delta":421173697},{"NoteNumber":37,"Velocity":68,"Duration":1071429,"SoundDuration":1071429,"Delta":421173697},{"NoteNumber":49,"Velocity":80,"Duration":1071429,"SoundDuration":1071429,"Delta":421173697},{"NoteNumber":70,"Velocity":78,"Duration":267857,"SoundDuration":267857,"Delta":421977269},{"NoteNumber":82,"Velocity":93,"Duration":267857,"SoundDuration":267857,"Delta":421977269},{"NoteNumber":72,"Velocity":84,"Duration":843834,"SoundDuration":843834,"Delta":422245126},{"NoteNumber":77,"Velocity":84,"Duration":843834,"SoundDuration":843834,"Delta":422245126},{"NoteNumber":84,"Velocity":99,"Duration":843834,"SoundDuration":843834,"Delta":422245126},{"NoteNumber":65,"Velocity":76,"Duration":1198543,"SoundDuration":1198543,"Delta":422245126},{"NoteNumber":61,"Velocity":64,"Duration":1198543,"SoundDuration":1198543,"Delta":422245126},{"NoteNumber":58,"Velocity":64,"Duration":1198543,"SoundDuration":1198543,"Delta":422245126},{"NoteNumber":53,"Velocity":64,"Duration":1198543,"SoundDuration":1198543,"Delta":422245126},{"NoteNumber":73,"Velocity":88,"Duration":164835,"SoundDuration":164835,"Delta":423088961},{"NoteNumber":85,"Velocity":102,"Duration":164835,"SoundDuration":164835,"Delta":423088961},{"NoteNumber":70,"Velocity":88,"Duration":2391707,"SoundDuration":2391707,"Delta":423253796},{"NoteNumber":76,"Velocity":88,"Duration":2328416,"SoundDuration":2328416,"Delta":423317087},{"NoteNumber":79,"Velocity":88,"Duration":2265125,"SoundDuration":2265125,"Delta":423380378},{"NoteNumber":85,"Velocity":103,"Duration":2201834,"SoundDuration":2201834,"Delta":423443670},{"NoteNumber":29,"Velocity":77,"Duration":1100916,"SoundDuration":1100916,"Delta":423443670},{"NoteNumber":41,"Velocity":92,"Duration":1100916,"SoundDuration":1100916,"Delta":423443670},{"NoteNumber":53,"Velocity":69,"Duration":1100917,"SoundDuration":1100917,"Delta":424544587},{"NoteNumber":58,"Velocity":69,"Duration":1100917,"SoundDuration":1100917,"Delta":424544587},{"NoteNumber":61,"Velocity":69,"Duration":1100917,"SoundDuration":1100917,"Delta":424544587},{"NoteNumber":67,"Velocity":81,"Duration":1100917,"SoundDuration":1100917,"Delta":424544587},{"NoteNumber":72,"Velocity":76,"Duration":1100916,"SoundDuration":1100916,"Delta":425645504},{"NoteNumber":77,"Velocity":76,"Duration":1100916,"SoundDuration":1100916,"Delta":425645504},{"NoteNumber":84,"Velocity":90,"Duration":1100916,"SoundDuration":1100916,"Delta":425645504},{"NoteNumber":53,"Velocity":64,"Duration":1100916,"SoundDuration":1100916,"Delta":425645504},{"NoteNumber":57,"Velocity":64,"Duration":1100916,"SoundDuration":1100916,"Delta":425645504},{"NoteNumber":60,"Velocity":64,"Duration":1100916,"SoundDuration":1100916,"Delta":425645504},{"NoteNumber":69,"Velocity":75,"Duration":1100916,"SoundDuration":1100916,"Delta":425645504},{"NoteNumber":53,"Velocity":81,"Duration":740740,"SoundDuration":740740,"Delta":426746421},{"NoteNumber":43,"Velocity":61,"Duration":101147,"SoundDuration":101147,"Delta":427487161},{"NoteNumber":44,"Velocity":61,"Duration":104726,"SoundDuration":104726,"Delta":427588308},{"NoteNumber":46,"Velocity":61,"Duration":108711,"SoundDuration":108711,"Delta":427693035},{"NoteNumber":56,"Velocity":68,"Duration":1066807,"SoundDuration":1066807,"Delta":427801747},{"NoteNumber":54,"Velocity":68,"Duration":1066807,"SoundDuration":1066807,"Delta":427801747},{"NoteNumber":60,"Velocity":68,"Duration":1066807,"SoundDuration":1066807,"Delta":427801747},{"NoteNumber":65,"Velocity":68,"Duration":1066807,"SoundDuration":1066807,"Delta":427801747},{"NoteNumber":68,"Velocity":80,"Duration":1066807,"SoundDuration":1066807,"Delta":427801747},{"NoteNumber":44,"Velocity":61,"Duration":104166,"SoundDuration":104166,"Delta":427801747},{"NoteNumber":46,"Velocity":56,"Duration":103954,"SoundDuration":103954,"Delta":427905913},{"NoteNumber":44,"Velocity":64,"Duration":102898,"SoundDuration":102898,"Delta":428009868},{"NoteNumber":46,"Velocity":57,"Duration":101863,"SoundDuration":101863,"Delta":428112766},{"NoteNumber":44,"Velocity":66,"Duration":100848,"SoundDuration":100848,"Delta":428214629},{"NoteNumber":46,"Velocity":59,"Duration":99853,"SoundDuration":99853,"Delta":428315478},{"NoteNumber":44,"Velocity":68,"Duration":98878,"SoundDuration":98878,"Delta":428415331},{"NoteNumber":46,"Velocity":61,"Duration":97921,"SoundDuration":97921,"Delta":428514210},{"NoteNumber":44,"Velocity":70,"Duration":96890,"SoundDuration":96890,"Delta":428612131},{"NoteNumber":46,"Velocity":65,"Duration":95972,"SoundDuration":95972,"Delta":428709022},{"NoteNumber":44,"Velocity":73,"Duration":95071,"SoundDuration":95071,"Delta":428804995},{"NoteNumber":54,"Velocity":68,"Duration":1033703,"SoundDuration":1033703,"Delta":428868554},{"NoteNumber":56,"Velocity":68,"Duration":1033703,"SoundDuration":1033703,"Delta":428868554},{"NoteNumber":60,"Velocity":68,"Duration":1033703,"SoundDuration":1033703,"Delta":428868554},{"NoteNumber":63,"Velocity":68,"Duration":1033703,"SoundDuration":1033703,"Delta":428868554},{"NoteNumber":68,"Velocity":80,"Duration":1033703,"SoundDuration":1033703,"Delta":428868554},{"NoteNumber":46,"Velocity":66,"Duration":94187,"SoundDuration":94187,"Delta":428900067},{"NoteNumber":44,"Velocity":72,"Duration":93750,"SoundDuration":93750,"Delta":428994254},{"NoteNumber":46,"Velocity":63,"Duration":94292,"SoundDuration":94292,"Delta":429090088},{"NoteNumber":44,"Velocity":69,"Duration":95160,"SoundDuration":95160,"Delta":429182279},{"NoteNumber":46,"Velocity":60,"Duration":98218,"SoundDuration":98218,"Delta":429277440},{"NoteNumber":44,"Velocity":66,"Duration":129685,"SoundDuration":129685,"Delta":429373504},{"NoteNumber":46,"Velocity":58,"Duration":131197,"SoundDuration":131197,"Delta":429503189},{"NoteNumber":43,"Velocity":64,"Duration":133138,"SoundDuration":133138,"Delta":429634386},{"NoteNumber":44,"Velocity":55,"Duration":134732,"SoundDuration":134732,"Delta":429767525},{"NoteNumber":53,"Velocity":68,"Duration":1100916,"SoundDuration":1100916,"Delta":429902258},{"NoteNumber":61,"Velocity":68,"Duration":1100916,"SoundDuration":1100916,"Delta":429902258},{"NoteNumber":68,"Velocity":80,"Duration":1100916,"SoundDuration":1100916,"Delta":429902258},{"NoteNumber":49,"Velocity":68,"Duration":1100916,"SoundDuration":1100916,"Delta":429902258},{"NoteNumber":49,"Velocity":68,"Duration":750000,"SoundDuration":750000,"Delta":431003175},{"NoteNumber":40,"Velocity":61,"Duration":102570,"SoundDuration":102570,"Delta":431753175},{"NoteNumber":41,"Velocity":61,"Duration":105827,"SoundDuration":105827,"Delta":431855746},{"NoteNumber":42,"Velocity":61,"Duration":109451,"SoundDuration":109451,"Delta":431961573},{"NoteNumber":57,"Velocity":68,"Duration":1066807,"SoundDuration":1066807,"Delta":432071024},{"NoteNumber":51,"Velocity":68,"Duration":1066807,"SoundDuration":1066807,"Delta":432071024},{"NoteNumber":61,"Velocity":68,"Duration":1066807,"SoundDuration":1066807,"Delta":432071024},{"NoteNumber":65,"Velocity":80,"Duration":1066807,"SoundDuration":1066807,"Delta":432071024},{"NoteNumber":41,"Velocity":61,"Duration":104166,"SoundDuration":104166,"Delta":432071024},{"NoteNumber":42,"Velocity":56,"Duration":103954,"SoundDuration":103954,"Delta":432175191},{"NoteNumber":41,"Velocity":64,"Duration":102898,"SoundDuration":102898,"Delta":432279145},{"NoteNumber":42,"Velocity":57,"Duration":101863,"SoundDuration":101863,"Delta":432382044},{"NoteNumber":41,"Velocity":66,"Duration":100848,"SoundDuration":100848,"Delta":432483907},{"NoteNumber":42,"Velocity":59,"Duration":99853,"SoundDuration":99853,"Delta":432584755},{"NoteNumber":41,"Velocity":68,"Duration":98878,"SoundDuration":98878,"Delta":432684609},{"NoteNumber":42,"Velocity":61,"Duration":97921,"SoundDuration":97921,"Delta":432783488},{"NoteNumber":41,"Velocity":70,"Duration":96890,"SoundDuration":96890,"Delta":432881409},{"NoteNumber":42,"Velocity":65,"Duration":95972,"SoundDuration":95972,"Delta":432978300},{"NoteNumber":41,"Velocity":73,"Duration":95071,"SoundDuration":95071,"Delta":433074272},{"NoteNumber":51,"Velocity":68,"Duration":1033703,"SoundDuration":1033703,"Delta":433137832},{"NoteNumber":57,"Velocity":68,"Duration":1033703,"SoundDuration":1033703,"Delta":433137832},{"NoteNumber":60,"Velocity":68,"Duration":1033703,"SoundDuration":1033703,"Delta":433137832},{"NoteNumber":65,"Velocity":80,"Duration":1033703,"SoundDuration":1033703,"Delta":433137832},{"NoteNumber":42,"Velocity":66,"Duration":94187,"SoundDuration":94187,"Delta":433169344},{"NoteNumber":41,"Velocity":72,"Duration":93750,"SoundDuration":93750,"Delta":433263532},{"NoteNumber":42,"Velocity":63,"Duration":94292,"SoundDuration":94292,"Delta":433359365},{"NoteNumber":41,"Velocity":69,"Duration":95160,"SoundDuration":95160,"Delta":433451557},{"NoteNumber":42,"Velocity":60,"Duration":98218,"SoundDuration":98218,"Delta":433546718},{"NoteNumber":41,"Velocity":66,"Duration":129685,"SoundDuration":129685,"Delta":433642781},{"NoteNumber":42,"Velocity":58,"Duration":131197,"SoundDuration":131197,"Delta":433772467},{"NoteNumber":40,"Velocity":64,"Duration":133138,"SoundDuration":133138,"Delta":433903664},{"NoteNumber":41,"Velocity":55,"Duration":134732,"SoundDuration":134732,"Delta":434036803},{"NoteNumber":49,"Velocity":68,"Duration":2255189,"SoundDuration":2255189,"Delta":434171536},{"NoteNumber":58,"Velocity":80,"Duration":2255189,"SoundDuration":2255189,"Delta":434171536},{"NoteNumber":42,"Velocity":64,"Duration":1100916,"SoundDuration":1100916,"Delta":434171536},{"NoteNumber":41,"Velocity":47,"Duration":566037,"SoundDuration":566037,"Delta":435272453},{"NoteNumber":37,"Velocity":39,"Duration":588235,"SoundDuration":588235,"Delta":435838490},{"NoteNumber":46,"Velocity":39,"Duration":1059322,"SoundDuration":1059322,"Delta":436426726},{"NoteNumber":53,"Velocity":39,"Duration":1059322,"SoundDuration":1059322,"Delta":436426726},{"NoteNumber":58,"Velocity":46,"Duration":1059322,"SoundDuration":1059322,"Delta":436426726},{"NoteNumber":34,"Velocity":32,"Duration":1059322,"SoundDuration":1059322,"Delta":436426726},{"NoteNumber":41,"Velocity":32,"Duration":1059322,"SoundDuration":1059322,"Delta":436426726},{"NoteNumber":46,"Velocity":39,"Duration":1059322,"SoundDuration":1059322,"Delta":436426726},{"NoteNumber":54,"Velocity":39,"Duration":1090512,"SoundDuration":1090512,"Delta":437486048},{"NoteNumber":58,"Velocity":46,"Duration":817884,"SoundDuration":817884,"Delta":437486048},{"NoteNumber":37,"Velocity":28,"Duration":1090512,"SoundDuration":1090512,"Delta":437486048},{"NoteNumber":42,"Velocity":34,"Duration":1090512,"SoundDuration":1090512,"Delta":437486048},{"NoteNumber":49,"Velocity":34,"Duration":1090512,"SoundDuration":1090512,"Delta":437486048},{"NoteNumber":58,"Velocity":41,"Duration":245365,"SoundDuration":245365,"Delta":438303932},{"NoteNumber":53,"Velocity":39,"Duration":1082446,"SoundDuration":1082446,"Delta":438576561},{"NoteNumber":58,"Velocity":46,"Duration":1082446,"SoundDuration":1082446,"Delta":438576561},{"NoteNumber":34,"Velocity":32,"Duration":1082446,"SoundDuration":1082446,"Delta":438576561},{"NoteNumber":41,"Velocity":32,"Duration":1082446,"SoundDuration":1082446,"Delta":438576561},{"NoteNumber":46,"Velocity":39,"Duration":1082446,"SoundDuration":1082446,"Delta":438576561},{"NoteNumber":61,"Velocity":45,"Duration":867051,"SoundDuration":867051,"Delta":439659007},{"NoteNumber":54,"Velocity":37,"Duration":1156069,"SoundDuration":1156069,"Delta":439659007},{"NoteNumber":37,"Velocity":21,"Duration":1156069,"SoundDuration":1156069,"Delta":439659007},{"NoteNumber":42,"Velocity":26,"Duration":1156069,"SoundDuration":1156069,"Delta":439659007},{"NoteNumber":49,"Velocity":26,"Duration":1156069,"SoundDuration":1156069,"Delta":439659007},{"NoteNumber":60,"Velocity":40,"Duration":144508,"SoundDuration":144508,"Delta":440526058},{"NoteNumber":61,"Velocity":37,"Duration":144508,"SoundDuration":144508,"Delta":440670567},{"NoteNumber":60,"Velocity":42,"Duration":939990,"SoundDuration":939990,"Delta":440815076},{"NoteNumber":53,"Velocity":36,"Duration":1263964,"SoundDuration":1263964,"Delta":440815076},{"NoteNumber":34,"Velocity":26,"Duration":1263964,"SoundDuration":1263964,"Delta":440815076},{"NoteNumber":41,"Velocity":26,"Duration":1263964,"SoundDuration":1263964,"Delta":440815076},{"NoteNumber":46,"Velocity":31,"Duration":1263964,"SoundDuration":1263964,"Delta":440815076},{"NoteNumber":58,"Velocity":36,"Duration":291576,"SoundDuration":291576,"Delta":441755066},{"NoteNumber":54,"Velocity":33,"Duration":1586477,"SoundDuration":1586477,"Delta":442079040},{"NoteNumber":58,"Velocity":40,"Duration":1063829,"SoundDuration":1063829,"Delta":442079040},{"NoteNumber":37,"Velocity":22,"Duration":1586477,"SoundDuration":1586477,"Delta":442079040},{"NoteNumber":42,"Velocity":22,"Duration":1586477,"SoundDuration":1586477,"Delta":442079040},{"NoteNumber":49,"Velocity":27,"Duration":1564701,"SoundDuration":1564701,"Delta":442079040},{"NoteNumber":58,"Velocity":28,"Duration":470383,"SoundDuration":470383,"Delta":443142870},{"NoteNumber":49,"Velocity":26,"Duration":3199999,"SoundDuration":3199999,"Delta":443665518},{"NoteNumber":53,"Velocity":26,"Duration":3199999,"SoundDuration":3199999,"Delta":443665518},{"NoteNumber":58,"Velocity":31,"Duration":3199999,"SoundDuration":3199999,"Delta":443665518},{"NoteNumber":34,"Velocity":20,"Duration":3199999,"SoundDuration":3199999,"Delta":443665518},{"NoteNumber":41,"Velocity":24,"Duration":3199999,"SoundDuration":3199999,"Delta":443665518}],"license":{"name":"Creative Commons Attribution-ShareAlike 3.0 Germany","url":"http://creativecommons.org/licenses/by-sa/3.0/de/deed.en","text":"The MIDI, audio (MP3, OGG) and video files of Bernd Krueger are licensed under the cc-by-sa Germany License. This means that you can use and adapt the files, as long as you attribute the copyright holder.\n\nName: Bernd Krueger\nSource: http://www.piano-midi.de\n\nThe distribution or public playback of the files is only allowed under identical license conditions.\n\nThe scores are open source.","attribution":"MIDI files by Bernd Krueger (piano-midi.de)"}}