{"title":"Grieg: Berceuse Opus 38 Nr. 1","artist":"Grieg","durationMs":158586,"midiSha256":"dc647a1af049d0f4550fab4d998fb460676a763320c947271be1ca06a98109af","midiObject":[{"NoteNumber":67,"Velocity":40,"Duration":936037,"SoundDuration":936037,"Delta":0},{"NoteNumber":43,"Velocity":28,"Duration":468018,"SoundDuration":468018,"Delta":0},{"NoteNumber":59,"Velocity":20,"Duration":936037,"SoundDuration":936037,"Delta":468018},{"NoteNumber":50,"Velocity":17,"Duration":936037,"SoundDuration":936037,"Delta":468018},{"NoteNumber":62,"Velocity":32,"Duration":936037,"SoundDuration":936037,"Delta":936037},{"NoteNumber":59,"Velocity":20,"Duration":468018,"SoundDuration":468018,"Delta":1404055},{"NoteNumber":50,"Velocity":17,"Duration":468018,"SoundDuration":468018,"Delta":1404055},{"NoteNumber":67,"Velocity":38,"Duration":936037,"SoundDuration":936037,"Delta":1872074},{"NoteNumber":43,"Velocity":28,"Duration":468018,"SoundDuration":468018,"Delta":1872074},{"NoteNumber":59,"Velocity":21,"Duration":936037,"SoundDuration":936037,"Delta":2340092},{"NoteNumber":50,"Velocity":17,"Duration":936037,"SoundDuration":936037,"Delta":2340092},{"NoteNumber":62,"Velocity":30,"Duration":936036,"SoundDuration":936036,"Delta":2808111},{"NoteNumber":59,"Velocity":21,"Duration":468018,"SoundDuration":468018,"Delta":3276129},{"NoteNumber":50,"Velocity":17,"Duration":468018,"SoundDuration":468018,"Delta":3276129},{"NoteNumber":67,"Velocity":37,"Duration":295857,"SoundDuration":295857,"Delta":3744148},{"NoteNumber":43,"Velocity":28,"Duration":443787,"SoundDuration":443787,"Delta":3744148},{"NoteNumber":66,"Velocity":33,"Duration":295857,"SoundDuration":295857,"Delta":4040006},{"NoteNumber":62,"Velocity":28,"Duration":472604,"SoundDuration":472604,"Delta":4187935},{"NoteNumber":59,"Velocity":24,"Duration":913132,"SoundDuration":913132,"Delta":4187935},{"NoteNumber":50,"Velocity":20,"Duration":913132,"SoundDuration":913132,"Delta":4187935},{"NoteNumber":67,"Velocity":35,"Duration":324675,"SoundDuration":324675,"Delta":4335864},{"NoteNumber":64,"Velocity":28,"Duration":440528,"SoundDuration":440528,"Delta":4660539},{"NoteNumber":69,"Velocity":39,"Duration":293685,"SoundDuration":293685,"Delta":4660539},{"NoteNumber":71,"Velocity":32,"Duration":293685,"SoundDuration":293685,"Delta":4954225},{"NoteNumber":66,"Velocity":23,"Duration":503349,"SoundDuration":503349,"Delta":5101067},{"NoteNumber":60,"Velocity":23,"Duration":503349,"SoundDuration":503349,"Delta":5101067},{"NoteNumber":50,"Velocity":19,"Duration":503349,"SoundDuration":503349,"Delta":5101067},{"NoteNumber":69,"Velocity":32,"Duration":356506,"SoundDuration":356506,"Delta":5247910},{"NoteNumber":67,"Velocity":38,"Duration":936036,"SoundDuration":936036,"Delta":5604417},{"NoteNumber":43,"Velocity":28,"Duration":468018,"SoundDuration":468018,"Delta":5604417},{"NoteNumber":59,"Velocity":24,"Duration":953641,"SoundDuration":953641,"Delta":6072435},{"NoteNumber":50,"Velocity":20,"Duration":953641,"SoundDuration":953641,"Delta":6072435},{"NoteNumber":62,"Velocity":34,"Duration":741742,"SoundDuration":741742,"Delta":6540454},{"NoteNumber":59,"Velocity":24,"Duration":256119,"SoundDuration":256119,"Delta":7026077},{"NoteNumber":50,"Velocity":20,"Duration":256119,"SoundDuration":256119,"Delta":7026077},{"NoteNumber":66,"Velocity":33,"Duration":1176317,"SoundDuration":1176317,"Delta":7282196},{"NoteNumber":71,"Velocity":36,"Duration":1052555,"SoundDuration":1052555,"Delta":7405959},{"NoteNumber":74,"Velocity":38,"Duration":1910964,"SoundDuration":1910964,"Delta":7529721},{"NoteNumber":43,"Velocity":28,"Duration":464396,"SoundDuration":464396,"Delta":7529721},{"NoteNumber":60,"Velocity":24,"Duration":928792,"SoundDuration":928792,"Delta":7994118},{"NoteNumber":50,"Velocity":20,"Duration":928792,"SoundDuration":928792,"Delta":7994118},{"NoteNumber":69,"Velocity":33,"Duration":709939,"SoundDuration":709939,"Delta":8458514},{"NoteNumber":62,"Velocity":28,"Duration":709939,"SoundDuration":709939,"Delta":8458514},{"NoteNumber":60,"Velocity":23,"Duration":245542,"SoundDuration":245542,"Delta":8922911},{"NoteNumber":50,"Velocity":19,"Duration":245542,"SoundDuration":245542,"Delta":8922911},{"NoteNumber":66,"Velocity":33,"Duration":1201025,"SoundDuration":1201025,"Delta":9168454},{"NoteNumber":71,"Velocity":36,"Duration":1064909,"SoundDuration":1064909,"Delta":9304570},{"NoteNumber":74,"Velocity":38,"Duration":1895210,"SoundDuration":1895210,"Delta":9440686},{"NoteNumber":43,"Velocity":28,"Duration":464396,"SoundDuration":464396,"Delta":9440686},{"NoteNumber":60,"Velocity":24,"Duration":928793,"SoundDuration":928793,"Delta":9905082},{"NoteNumber":50,"Velocity":20,"Duration":928793,"SoundDuration":928793,"Delta":9905082},{"NoteNumber":69,"Velocity":33,"Duration":706000,"SoundDuration":706000,"Delta":10369479},{"NoteNumber":62,"Velocity":28,"Duration":706000,"SoundDuration":706000,"Delta":10369479},{"NoteNumber":60,"Velocity":23,"Duration":241604,"SoundDuration":241604,"Delta":10833875},{"NoteNumber":50,"Velocity":19,"Duration":241604,"SoundDuration":241604,"Delta":10833875},{"NoteNumber":66,"Velocity":33,"Duration":570014,"SoundDuration":570014,"Delta":11075480},{"NoteNumber":71,"Velocity":36,"Duration":439806,"SoundDuration":439806,"Delta":11205688},{"NoteNumber":74,"Velocity":38,"Duration":309597,"SoundDuration":309597,"Delta":11335897},{"NoteNumber":43,"Velocity":28,"Duration":455370,"SoundDuration":455370,"Delta":11335897},{"NoteNumber":62,"Velocity":26,"Duration":291545,"SoundDuration":291545,"Delta":11645494},{"NoteNumber":69,"Velocity":31,"Duration":291545,"SoundDuration":291545,"Delta":11645494},{"NoteNumber":60,"Velocity":24,"Duration":890655,"SoundDuration":890655,"Delta":11791267},{"NoteNumber":50,"Velocity":20,"Duration":890655,"SoundDuration":890655,"Delta":11791267},{"NoteNumber":74,"Velocity":31,"Duration":309597,"SoundDuration":309597,"Delta":11937040},{"NoteNumber":66,"Velocity":23,"Duration":309597,"SoundDuration":309597,"Delta":11937040},{"NoteNumber":76,"Velocity":41,"Duration":287356,"SoundDuration":287356,"Delta":12246637},{"NoteNumber":67,"Velocity":31,"Duration":287356,"SoundDuration":287356,"Delta":12246637},{"NoteNumber":72,"Velocity":27,"Duration":295857,"SoundDuration":295857,"Delta":12533994},{"NoteNumber":78,"Velocity":36,"Duration":295857,"SoundDuration":295857,"Delta":12533994},{"NoteNumber":60,"Velocity":23,"Duration":230437,"SoundDuration":230437,"Delta":12681923},{"NoteNumber":50,"Velocity":19,"Duration":230437,"SoundDuration":230437,"Delta":12681923},{"NoteNumber":67,"Velocity":24,"Duration":82508,"SoundDuration":82508,"Delta":12829851},{"NoteNumber":76,"Velocity":32,"Duration":165016,"SoundDuration":165016,"Delta":12829851},{"NoteNumber":66,"Velocity":33,"Duration":1101053,"SoundDuration":1101053,"Delta":12994868},{"NoteNumber":71,"Velocity":36,"Duration":1018545,"SoundDuration":1018545,"Delta":13077376},{"NoteNumber":74,"Velocity":38,"Duration":1918075,"SoundDuration":1918075,"Delta":13159885},{"NoteNumber":43,"Velocity":28,"Duration":468018,"SoundDuration":468018,"Delta":13159885},{"NoteNumber":60,"Velocity":24,"Duration":955162,"SoundDuration":955162,"Delta":13627903},{"NoteNumber":50,"Velocity":20,"Duration":955162,"SoundDuration":955162,"Delta":13627903},{"NoteNumber":69,"Velocity":33,"Duration":749840,"SoundDuration":749840,"Delta":14095922},{"NoteNumber":62,"Velocity":28,"Duration":749840,"SoundDuration":749840,"Delta":14095922},{"NoteNumber":60,"Velocity":23,"Duration":262696,"SoundDuration":262696,"Delta":14583065},{"NoteNumber":50,"Velocity":19,"Duration":262696,"SoundDuration":262696,"Delta":14583065},{"NoteNumber":76,"Velocity":38,"Duration":1044892,"SoundDuration":1044892,"Delta":14961861},{"NoteNumber":79,"Velocity":44,"Duration":928792,"SoundDuration":928792,"Delta":15077960},{"NoteNumber":55,"Velocity":28,"Duration":464396,"SoundDuration":464396,"Delta":15077960},{"NoteNumber":71,"Velocity":24,"Duration":928793,"SoundDuration":928793,"Delta":15542357},{"NoteNumber":62,"Velocity":20,"Duration":928793,"SoundDuration":928793,"Delta":15542357},{"NoteNumber":74,"Velocity":34,"Duration":957508,"SoundDuration":957508,"Delta":16006753},{"NoteNumber":67,"Velocity":28,"Duration":957508,"SoundDuration":957508,"Delta":16006753},{"NoteNumber":71,"Velocity":23,"Duration":262696,"SoundDuration":262696,"Delta":16471150},{"NoteNumber":62,"Velocity":19,"Duration":262696,"SoundDuration":262696,"Delta":16471150},{"NoteNumber":76,"Velocity":38,"Duration":1036866,"SoundDuration":1036866,"Delta":16849054},{"NoteNumber":79,"Velocity":44,"Duration":921658,"SoundDuration":921658,"Delta":16964262},{"NoteNumber":55,"Velocity":28,"Duration":460829,"SoundDuration":460829,"Delta":16964262},{"NoteNumber":71,"Velocity":24,"Duration":921659,"SoundDuration":921659,"Delta":17425091},{"NoteNumber":62,"Velocity":20,"Duration":921659,"SoundDuration":921659,"Delta":17425091},{"NoteNumber":74,"Velocity":34,"Duration":839311,"SoundDuration":839311,"Delta":17885921},{"NoteNumber":67,"Velocity":28,"Duration":839311,"SoundDuration":839311,"Delta":17885921},{"NoteNumber":71,"Velocity":23,"Duration":265017,"SoundDuration":265017,"Delta":18346750},{"NoteNumber":62,"Velocity":19,"Duration":265017,"SoundDuration":265017,"Delta":18346750},{"NoteNumber":76,"Velocity":34,"Duration":409322,"SoundDuration":409322,"Delta":18725232},{"NoteNumber":79,"Velocity":37,"Duration":295857,"SoundDuration":295857,"Delta":18838697},{"NoteNumber":55,"Velocity":28,"Duration":443787,"SoundDuration":443787,"Delta":18838697},{"NoteNumber":67,"Velocity":28,"Duration":221893,"SoundDuration":221893,"Delta":19134555},{"NoteNumber":74,"Velocity":33,"Duration":295858,"SoundDuration":295858,"Delta":19134555},{"NoteNumber":71,"Velocity":24,"Duration":893335,"SoundDuration":893335,"Delta":19282484},{"NoteNumber":62,"Velocity":20,"Duration":893335,"SoundDuration":893335,"Delta":19282484},{"NoteNumber":79,"Velocity":40,"Duration":304877,"SoundDuration":304877,"Delta":19430413},{"NoteNumber":76,"Velocity":28,"Duration":440528,"SoundDuration":440528,"Delta":19735291},{"NoteNumber":81,"Velocity":44,"Duration":293685,"SoundDuration":293685,"Delta":19735291},{"NoteNumber":83,"Velocity":39,"Duration":311859,"SoundDuration":311859,"Delta":20028977},{"NoteNumber":78,"Velocity":23,"Duration":493024,"SoundDuration":493024,"Delta":20175819},{"NoteNumber":72,"Velocity":23,"Duration":370274,"SoundDuration":370274,"Delta":20175819},{"NoteNumber":62,"Velocity":19,"Duration":370274,"SoundDuration":370274,"Delta":20175819},{"NoteNumber":81,"Velocity":38,"Duration":205257,"SoundDuration":205257,"Delta":20340836},{"NoteNumber":76,"Velocity":38,"Duration":1044408,"SoundDuration":1044408,"Delta":20546094},{"NoteNumber":79,"Velocity":44,"Duration":921658,"SoundDuration":921658,"Delta":20668843},{"NoteNumber":55,"Velocity":28,"Duration":460829,"SoundDuration":460829,"Delta":20668843},{"NoteNumber":71,"Velocity":24,"Duration":921659,"SoundDuration":921659,"Delta":21129673},{"NoteNumber":62,"Velocity":20,"Duration":921659,"SoundDuration":921659,"Delta":21129673},{"NoteNumber":74,"Velocity":34,"Duration":949904,"SoundDuration":949904,"Delta":21590502},{"NoteNumber":67,"Velocity":28,"Duration":949904,"SoundDuration":949904,"Delta":21590502},{"NoteNumber":71,"Velocity":23,"Duration":260416,"SoundDuration":260416,"Delta":22051332},{"NoteNumber":62,"Velocity":19,"Duration":260416,"SoundDuration":260416,"Delta":22051332},{"NoteNumber":81,"Velocity":36,"Duration":1150317,"SoundDuration":1150317,"Delta":22311749},{"NoteNumber":83,"Velocity":41,"Duration":1759514,"SoundDuration":1759514,"Delta":22426078},{"NoteNumber":86,"Velocity":52,"Duration":1645185,"SoundDuration":1645185,"Delta":22540407},{"NoteNumber":50,"Velocity":28,"Duration":460829,"SoundDuration":460829,"Delta":22540407},{"NoteNumber":59,"Velocity":17,"Duration":921659,"SoundDuration":921659,"Delta":23001237},{"NoteNumber":69,"Velocity":21,"Duration":921659,"SoundDuration":921659,"Delta":23001237},{"NoteNumber":62,"Velocity":17,"Duration":921659,"SoundDuration":921659,"Delta":23001237},{"NoteNumber":79,"Velocity":33,"Duration":723526,"SoundDuration":723526,"Delta":23462066},{"NoteNumber":74,"Velocity":28,"Duration":723526,"SoundDuration":723526,"Delta":23462066},{"NoteNumber":59,"Velocity":16,"Duration":262696,"SoundDuration":262696,"Delta":23922896},{"NoteNumber":67,"Velocity":20,"Duration":262696,"SoundDuration":262696,"Delta":23922896},{"NoteNumber":62,"Velocity":16,"Duration":262696,"SoundDuration":262696,"Delta":23922896},{"NoteNumber":82,"Velocity":36,"Duration":1205800,"SoundDuration":1205800,"Delta":24185593},{"NoteNumber":86,"Velocity":41,"Duration":1085992,"SoundDuration":1085992,"Delta":24305401},{"NoteNumber":88,"Velocity":52,"Duration":1729126,"SoundDuration":1729126,"Delta":24425209},{"NoteNumber":50,"Velocity":28,"Duration":483091,"SoundDuration":483091,"Delta":24425209},{"NoteNumber":58,"Velocity":17,"Duration":966184,"SoundDuration":966184,"Delta":24908301},{"NoteNumber":69,"Velocity":21,"Duration":966184,"SoundDuration":966184,"Delta":24908301},{"NoteNumber":64,"Velocity":17,"Duration":966184,"SoundDuration":966184,"Delta":24908301},{"NoteNumber":85,"Velocity":33,"Duration":762942,"SoundDuration":762942,"Delta":25391393},{"NoteNumber":76,"Velocity":28,"Duration":762942,"SoundDuration":762942,"Delta":25391393},{"NoteNumber":58,"Velocity":16,"Duration":279850,"SoundDuration":279850,"Delta":25874485},{"NoteNumber":67,"Velocity":20,"Duration":279850,"SoundDuration":279850,"Delta":25874485},{"NoteNumber":64,"Velocity":16,"Duration":279850,"SoundDuration":279850,"Delta":25874485},{"NoteNumber":84,"Velocity":36,"Duration":1267052,"SoundDuration":1267052,"Delta":26154336},{"NoteNumber":88,"Velocity":42,"Duration":1141213,"SoundDuration":1141213,"Delta":26280175},{"NoteNumber":90,"Velocity":52,"Duration":1850825,"SoundDuration":1850825,"Delta":26406014},{"NoteNumber":50,"Velocity":28,"Duration":503355,"SoundDuration":503355,"Delta":26406014},{"NoteNumber":60,"Velocity":17,"Duration":1047829,"SoundDuration":1047829,"Delta":26909369},{"NoteNumber":71,"Velocity":21,"Duration":1047829,"SoundDuration":1047829,"Delta":26909369},{"NoteNumber":66,"Velocity":17,"Duration":1047829,"SoundDuration":1047829,"Delta":26909369},{"NoteNumber":86,"Velocity":33,"Duration":835450,"SoundDuration":835450,"Delta":27421388},{"NoteNumber":78,"Velocity":28,"Duration":835450,"SoundDuration":835450,"Delta":27421388},{"NoteNumber":60,"Velocity":16,"Duration":299640,"SoundDuration":299640,"Delta":27957198},{"NoteNumber":69,"Velocity":20,"Duration":299640,"SoundDuration":299640,"Delta":27957198},{"NoteNumber":66,"Velocity":16,"Duration":299640,"SoundDuration":299640,"Delta":27957198},{"NoteNumber":83,"Velocity":41,"Duration":1525508,"SoundDuration":1525508,"Delta":28256839},{"NoteNumber":86,"Velocity":44,"Duration":1356931,"SoundDuration":1356931,"Delta":28425416},{"NoteNumber":91,"Velocity":48,"Duration":2630231,"SoundDuration":2630231,"Delta":28593994},{"NoteNumber":43,"Velocity":19,"Duration":594176,"SoundDuration":594176,"Delta":28593994},{"NoteNumber":50,"Velocity":23,"Duration":594176,"SoundDuration":594176,"Delta":28593994},{"NoteNumber":59,"Velocity":17,"Duration":1855288,"SoundDuration":1855288,"Delta":29188171},{"NoteNumber":67,"Velocity":21,"Duration":1855288,"SoundDuration":1855288,"Delta":29188171},{"NoteNumber":62,"Velocity":17,"Duration":1855288,"SoundDuration":1855288,"Delta":29188171},{"NoteNumber":79,"Velocity":33,"Duration":1261111,"SoundDuration":1261111,"Delta":29782348},{"NoteNumber":67,"Velocity":36,"Duration":936036,"SoundDuration":936036,"Delta":31224225},{"NoteNumber":43,"Velocity":25,"Duration":468018,"SoundDuration":468018,"Delta":31224225},{"NoteNumber":59,"Velocity":18,"Duration":936036,"SoundDuration":936036,"Delta":31692244},{"NoteNumber":50,"Velocity":15,"Duration":936036,"SoundDuration":936036,"Delta":31692244},{"NoteNumber":62,"Velocity":28,"Duration":936036,"SoundDuration":936036,"Delta":32160262},{"NoteNumber":59,"Velocity":18,"Duration":468018,"SoundDuration":468018,"Delta":32628281},{"NoteNumber":50,"Velocity":15,"Duration":468018,"SoundDuration":468018,"Delta":32628281},{"NoteNumber":67,"Velocity":34,"Duration":936037,"SoundDuration":936037,"Delta":33096299},{"NoteNumber":43,"Velocity":25,"Duration":468018,"SoundDuration":468018,"Delta":33096299},{"NoteNumber":59,"Velocity":18,"Duration":936037,"SoundDuration":936037,"Delta":33564318},{"NoteNumber":50,"Velocity":15,"Duration":936037,"SoundDuration":936037,"Delta":33564318},{"NoteNumber":62,"Velocity":27,"Duration":936036,"SoundDuration":936036,"Delta":34032336},{"NoteNumber":59,"Velocity":18,"Duration":468018,"SoundDuration":468018,"Delta":34500355},{"NoteNumber":50,"Velocity":15,"Duration":468018,"SoundDuration":468018,"Delta":34500355},{"NoteNumber":67,"Velocity":33,"Duration":295858,"SoundDuration":295858,"Delta":34968373},{"NoteNumber":43,"Velocity":25,"Duration":443787,"SoundDuration":443787,"Delta":34968373},{"NoteNumber":66,"Velocity":29,"Duration":295857,"SoundDuration":295857,"Delta":35264231},{"NoteNumber":62,"Velocity":25,"Duration":472604,"SoundDuration":472604,"Delta":35412160},{"NoteNumber":59,"Velocity":21,"Duration":913132,"SoundDuration":913132,"Delta":35412160},{"NoteNumber":50,"Velocity":18,"Duration":913132,"SoundDuration":913132,"Delta":35412160},{"NoteNumber":67,"Velocity":31,"Duration":324675,"SoundDuration":324675,"Delta":35560089},{"NoteNumber":64,"Velocity":25,"Duration":440528,"SoundDuration":440528,"Delta":35884765},{"NoteNumber":69,"Velocity":35,"Duration":293685,"SoundDuration":293685,"Delta":35884765},{"NoteNumber":71,"Velocity":28,"Duration":293685,"SoundDuration":293685,"Delta":36178450},{"NoteNumber":66,"Velocity":20,"Duration":503349,"SoundDuration":503349,"Delta":36325293},{"NoteNumber":60,"Velocity":20,"Duration":503349,"SoundDuration":503349,"Delta":36325293},{"NoteNumber":50,"Velocity":17,"Duration":503349,"SoundDuration":503349,"Delta":36325293},{"NoteNumber":69,"Velocity":28,"Duration":356506,"SoundDuration":356506,"Delta":36472136},{"NoteNumber":67,"Velocity":34,"Duration":936036,"SoundDuration":936036,"Delta":36828642},{"NoteNumber":43,"Velocity":25,"Duration":468018,"SoundDuration":468018,"Delta":36828642},{"NoteNumber":59,"Velocity":21,"Duration":953642,"SoundDuration":953642,"Delta":37296661},{"NoteNumber":50,"Velocity":18,"Duration":953642,"SoundDuration":953642,"Delta":37296661},{"NoteNumber":62,"Velocity":30,"Duration":741742,"SoundDuration":741742,"Delta":37764679},{"NoteNumber":59,"Velocity":21,"Duration":256119,"SoundDuration":256119,"Delta":38250303},{"NoteNumber":50,"Velocity":18,"Duration":256119,"SoundDuration":256119,"Delta":38250303},{"NoteNumber":66,"Velocity":29,"Duration":1176317,"SoundDuration":1176317,"Delta":38506422},{"NoteNumber":71,"Velocity":32,"Duration":1052555,"SoundDuration":1052555,"Delta":38630185},{"NoteNumber":74,"Velocity":34,"Duration":1910964,"SoundDuration":1910964,"Delta":38753947},{"NoteNumber":43,"Velocity":25,"Duration":464396,"SoundDuration":464396,"Delta":38753947},{"NoteNumber":60,"Velocity":21,"Duration":928792,"SoundDuration":928792,"Delta":39218343},{"NoteNumber":50,"Velocity":18,"Duration":928792,"SoundDuration":928792,"Delta":39218343},{"NoteNumber":69,"Velocity":29,"Duration":709939,"SoundDuration":709939,"Delta":39682740},{"NoteNumber":62,"Velocity":25,"Duration":709939,"SoundDuration":709939,"Delta":39682740},{"NoteNumber":60,"Velocity":20,"Duration":245542,"SoundDuration":245542,"Delta":40147136},{"NoteNumber":50,"Velocity":17,"Duration":245542,"SoundDuration":245542,"Delta":40147136},{"NoteNumber":66,"Velocity":33,"Duration":1201025,"SoundDuration":1201025,"Delta":40392679},{"NoteNumber":71,"Velocity":36,"Duration":1064909,"SoundDuration":1064909,"Delta":40528796},{"NoteNumber":74,"Velocity":38,"Duration":1895210,"SoundDuration":1895210,"Delta":40664912},{"NoteNumber":43,"Velocity":28,"Duration":464396,"SoundDuration":464396,"Delta":40664912},{"NoteNumber":60,"Velocity":24,"Duration":928792,"SoundDuration":928792,"Delta":41129308},{"NoteNumber":50,"Velocity":20,"Duration":928792,"SoundDuration":928792,"Delta":41129308},{"NoteNumber":69,"Velocity":33,"Duration":706000,"SoundDuration":706000,"Delta":41593705},{"NoteNumber":62,"Velocity":28,"Duration":706000,"SoundDuration":706000,"Delta":41593705},{"NoteNumber":60,"Velocity":23,"Duration":241604,"SoundDuration":241604,"Delta":42058101},{"NoteNumber":50,"Velocity":19,"Duration":241604,"SoundDuration":241604,"Delta":42058101},{"NoteNumber":66,"Velocity":33,"Duration":570014,"SoundDuration":570014,"Delta":42299706},{"NoteNumber":71,"Velocity":36,"Duration":439806,"SoundDuration":439806,"Delta":42429914},{"NoteNumber":74,"Velocity":38,"Duration":309597,"SoundDuration":309597,"Delta":42560122},{"NoteNumber":43,"Velocity":28,"Duration":455370,"SoundDuration":455370,"Delta":42560122},{"NoteNumber":62,"Velocity":26,"Duration":291545,"SoundDuration":291545,"Delta":42869720},{"NoteNumber":69,"Velocity":31,"Duration":291545,"SoundDuration":291545,"Delta":42869720},{"NoteNumber":60,"Velocity":24,"Duration":890655,"SoundDuration":890655,"Delta":43015493},{"NoteNumber":50,"Velocity":20,"Duration":890655,"SoundDuration":890655,"Delta":43015493},{"NoteNumber":74,"Velocity":31,"Duration":309597,"SoundDuration":309597,"Delta":43161265},{"NoteNumber":66,"Velocity":23,"Duration":309597,"SoundDuration":309597,"Delta":43161265},{"NoteNumber":76,"Velocity":41,"Duration":287356,"SoundDuration":287356,"Delta":43470863},{"NoteNumber":67,"Velocity":31,"Duration":287356,"SoundDuration":287356,"Delta":43470863},{"NoteNumber":72,"Velocity":27,"Duration":295857,"SoundDuration":295857,"Delta":43758219},{"NoteNumber":78,"Velocity":36,"Duration":295857,"SoundDuration":295857,"Delta":43758219},{"NoteNumber":60,"Velocity":23,"Duration":230437,"SoundDuration":230437,"Delta":43906148},{"NoteNumber":50,"Velocity":19,"Duration":230437,"SoundDuration":230437,"Delta":43906148},{"NoteNumber":67,"Velocity":24,"Duration":82508,"SoundDuration":82508,"Delta":44054077},{"NoteNumber":76,"Velocity":32,"Duration":165016,"SoundDuration":165016,"Delta":44054077},{"NoteNumber":66,"Velocity":33,"Duration":1101053,"SoundDuration":1101053,"Delta":44219094},{"NoteNumber":71,"Velocity":36,"Duration":1018545,"SoundDuration":1018545,"Delta":44301602},{"NoteNumber":74,"Velocity":38,"Duration":1918075,"SoundDuration":1918075,"Delta":44384110},{"NoteNumber":43,"Velocity":28,"Duration":468018,"SoundDuration":468018,"Delta":44384110},{"NoteNumber":60,"Velocity":24,"Duration":955162,"SoundDuration":955162,"Delta":44852129},{"NoteNumber":50,"Velocity":20,"Duration":955162,"SoundDuration":955162,"Delta":44852129},{"NoteNumber":69,"Velocity":33,"Duration":749840,"SoundDuration":749840,"Delta":45320147},{"NoteNumber":62,"Velocity":28,"Duration":749840,"SoundDuration":749840,"Delta":45320147},{"NoteNumber":60,"Velocity":23,"Duration":262696,"SoundDuration":262696,"Delta":45807291},{"NoteNumber":50,"Velocity":19,"Duration":262696,"SoundDuration":262696,"Delta":45807291},{"NoteNumber":76,"Velocity":38,"Duration":1044892,"SoundDuration":1044892,"Delta":46186087},{"NoteNumber":79,"Velocity":44,"Duration":928792,"SoundDuration":928792,"Delta":46302186},{"NoteNumber":55,"Velocity":28,"Duration":464396,"SoundDuration":464396,"Delta":46302186},{"NoteNumber":71,"Velocity":24,"Duration":928792,"SoundDuration":928792,"Delta":46766583},{"NoteNumber":62,"Velocity":20,"Duration":928792,"SoundDuration":928792,"Delta":46766583},{"NoteNumber":74,"Velocity":34,"Duration":957508,"SoundDuration":957508,"Delta":47230979},{"NoteNumber":67,"Velocity":28,"Duration":957508,"SoundDuration":957508,"Delta":47230979},{"NoteNumber":71,"Velocity":23,"Duration":262697,"SoundDuration":262697,"Delta":47695376},{"NoteNumber":62,"Velocity":19,"Duration":262697,"SoundDuration":262697,"Delta":47695376},{"NoteNumber":76,"Velocity":38,"Duration":1036866,"SoundDuration":1036866,"Delta":48073280},{"NoteNumber":79,"Velocity":44,"Duration":921658,"SoundDuration":921658,"Delta":48188487},{"NoteNumber":55,"Velocity":28,"Duration":460829,"SoundDuration":460829,"Delta":48188487},{"NoteNumber":71,"Velocity":24,"Duration":921658,"SoundDuration":921658,"Delta":48649317},{"NoteNumber":62,"Velocity":20,"Duration":921658,"SoundDuration":921658,"Delta":48649317},{"NoteNumber":74,"Velocity":34,"Duration":839311,"SoundDuration":839311,"Delta":49110146},{"NoteNumber":67,"Velocity":28,"Duration":839311,"SoundDuration":839311,"Delta":49110146},{"NoteNumber":71,"Velocity":23,"Duration":265017,"SoundDuration":265017,"Delta":49570976},{"NoteNumber":62,"Velocity":19,"Duration":265017,"SoundDuration":265017,"Delta":49570976},{"NoteNumber":76,"Velocity":34,"Duration":409322,"SoundDuration":409322,"Delta":49949458},{"NoteNumber":79,"Velocity":37,"Duration":295858,"SoundDuration":295858,"Delta":50062923},{"NoteNumber":55,"Velocity":28,"Duration":443787,"SoundDuration":443787,"Delta":50062923},{"NoteNumber":67,"Velocity":28,"Duration":221893,"SoundDuration":221893,"Delta":50358781},{"NoteNumber":74,"Velocity":33,"Duration":295857,"SoundDuration":295857,"Delta":50358781},{"NoteNumber":71,"Velocity":24,"Duration":893335,"SoundDuration":893335,"Delta":50506710},{"NoteNumber":62,"Velocity":20,"Duration":893335,"SoundDuration":893335,"Delta":50506710},{"NoteNumber":79,"Velocity":40,"Duration":304878,"SoundDuration":304878,"Delta":50654639},{"NoteNumber":76,"Velocity":28,"Duration":440528,"SoundDuration":440528,"Delta":50959517},{"NoteNumber":81,"Velocity":44,"Duration":293685,"SoundDuration":293685,"Delta":50959517},{"NoteNumber":83,"Velocity":39,"Duration":311859,"SoundDuration":311859,"Delta":51253202},{"NoteNumber":78,"Velocity":23,"Duration":493023,"SoundDuration":493023,"Delta":51400045},{"NoteNumber":72,"Velocity":23,"Duration":370274,"SoundDuration":370274,"Delta":51400045},{"NoteNumber":62,"Velocity":19,"Duration":370274,"SoundDuration":370274,"Delta":51400045},{"NoteNumber":81,"Velocity":38,"Duration":205257,"SoundDuration":205257,"Delta":51565062},{"NoteNumber":76,"Velocity":38,"Duration":1044408,"SoundDuration":1044408,"Delta":51770320},{"NoteNumber":79,"Velocity":44,"Duration":921658,"SoundDuration":921658,"Delta":51893069},{"NoteNumber":55,"Velocity":28,"Duration":460829,"SoundDuration":460829,"Delta":51893069},{"NoteNumber":71,"Velocity":24,"Duration":921658,"SoundDuration":921658,"Delta":52353899},{"NoteNumber":62,"Velocity":20,"Duration":921658,"SoundDuration":921658,"Delta":52353899},{"NoteNumber":74,"Velocity":34,"Duration":949904,"SoundDuration":949904,"Delta":52814728},{"NoteNumber":67,"Velocity":28,"Duration":949904,"SoundDuration":949904,"Delta":52814728},{"NoteNumber":71,"Velocity":23,"Duration":260416,"SoundDuration":260416,"Delta":53275558},{"NoteNumber":62,"Velocity":19,"Duration":260416,"SoundDuration":260416,"Delta":53275558},{"NoteNumber":81,"Velocity":36,"Duration":1150317,"SoundDuration":1150317,"Delta":53535974},{"NoteNumber":83,"Velocity":41,"Duration":1759514,"SoundDuration":1759514,"Delta":53650304},{"NoteNumber":86,"Velocity":52,"Duration":1645185,"SoundDuration":1645185,"Delta":53764633},{"NoteNumber":50,"Velocity":28,"Duration":460829,"SoundDuration":460829,"Delta":53764633},{"NoteNumber":59,"Velocity":17,"Duration":921658,"SoundDuration":921658,"Delta":54225462},{"NoteNumber":69,"Velocity":21,"Duration":921658,"SoundDuration":921658,"Delta":54225462},{"NoteNumber":62,"Velocity":17,"Duration":921658,"SoundDuration":921658,"Delta":54225462},{"NoteNumber":79,"Velocity":33,"Duration":723526,"SoundDuration":723526,"Delta":54686292},{"NoteNumber":74,"Velocity":28,"Duration":723526,"SoundDuration":723526,"Delta":54686292},{"NoteNumber":59,"Velocity":16,"Duration":262697,"SoundDuration":262697,"Delta":55147121},{"NoteNumber":67,"Velocity":20,"Duration":262697,"SoundDuration":262697,"Delta":55147121},{"NoteNumber":62,"Velocity":16,"Duration":262697,"SoundDuration":262697,"Delta":55147121},{"NoteNumber":82,"Velocity":36,"Duration":1205800,"SoundDuration":1205800,"Delta":55409818},{"NoteNumber":86,"Velocity":41,"Duration":1085992,"SoundDuration":1085992,"Delta":55529627},{"NoteNumber":88,"Velocity":52,"Duration":1748677,"SoundDuration":1748677,"Delta":55649435},{"NoteNumber":50,"Velocity":28,"Duration":483091,"SoundDuration":483091,"Delta":55649435},{"NoteNumber":58,"Velocity":17,"Duration":966183,"SoundDuration":966183,"Delta":56132527},{"NoteNumber":69,"Velocity":21,"Duration":966183,"SoundDuration":966183,"Delta":56132527},{"NoteNumber":64,"Velocity":17,"Duration":966183,"SoundDuration":966183,"Delta":56132527},{"NoteNumber":85,"Velocity":33,"Duration":782493,"SoundDuration":782493,"Delta":56615619},{"NoteNumber":76,"Velocity":28,"Duration":782493,"SoundDuration":782493,"Delta":56615619},{"NoteNumber":58,"Velocity":16,"Duration":299401,"SoundDuration":299401,"Delta":57098711},{"NoteNumber":67,"Velocity":20,"Duration":299401,"SoundDuration":299401,"Delta":57098711},{"NoteNumber":64,"Velocity":16,"Duration":299401,"SoundDuration":299401,"Delta":57098711},{"NoteNumber":84,"Velocity":36,"Duration":1313152,"SoundDuration":1313152,"Delta":57398112},{"NoteNumber":88,"Velocity":42,"Duration":1182943,"SoundDuration":1182943,"Delta":57528321},{"NoteNumber":90,"Velocity":52,"Duration":1912743,"SoundDuration":1912743,"Delta":57658529},{"NoteNumber":50,"Velocity":28,"Duration":520833,"SoundDuration":520833,"Delta":57658529},{"NoteNumber":60,"Velocity":17,"Duration":1098046,"SoundDuration":1098046,"Delta":58179362},{"NoteNumber":71,"Velocity":21,"Duration":1098046,"SoundDuration":1098046,"Delta":58179362},{"NoteNumber":66,"Velocity":17,"Duration":1098046,"SoundDuration":1098046,"Delta":58179362},{"NoteNumber":86,"Velocity":33,"Duration":860007,"SoundDuration":860007,"Delta":58711264},{"NoteNumber":78,"Velocity":28,"Duration":860007,"SoundDuration":860007,"Delta":58711264},{"NoteNumber":60,"Velocity":16,"Duration":293863,"SoundDuration":293863,"Delta":59277409},{"NoteNumber":69,"Velocity":20,"Duration":293863,"SoundDuration":293863,"Delta":59277409},{"NoteNumber":66,"Velocity":16,"Duration":293863,"SoundDuration":293863,"Delta":59277409},{"NoteNumber":83,"Velocity":41,"Duration":1590682,"SoundDuration":1590682,"Delta":59571272},{"NoteNumber":86,"Velocity":44,"Duration":1407711,"SoundDuration":1407711,"Delta":59754244},{"NoteNumber":91,"Velocity":48,"Duration":2825167,"SoundDuration":2825167,"Delta":59937215},{"NoteNumber":43,"Velocity":19,"Duration":612369,"SoundDuration":612369,"Delta":59937215},{"NoteNumber":50,"Velocity":23,"Duration":612369,"SoundDuration":612369,"Delta":59937215},{"NoteNumber":59,"Velocity":17,"Duration":2012743,"SoundDuration":2012743,"Delta":60549585},{"NoteNumber":67,"Velocity":21,"Duration":2012743,"SoundDuration":2012743,"Delta":60549585},{"NoteNumber":62,"Velocity":17,"Duration":2012743,"SoundDuration":2012743,"Delta":60549585},{"NoteNumber":79,"Velocity":33,"Duration":1400373,"SoundDuration":1400373,"Delta":61161955},{"NoteNumber":67,"Velocity":42,"Duration":74162,"SoundDuration":74162,"Delta":62762382},{"NoteNumber":58,"Velocity":35,"Duration":74162,"SoundDuration":74162,"Delta":62762382},{"NoteNumber":50,"Velocity":32,"Duration":74162,"SoundDuration":74162,"Delta":62762382},{"NoteNumber":43,"Velocity":27,"Duration":74162,"SoundDuration":74162,"Delta":62762382},{"NoteNumber":66,"Velocity":39,"Duration":140818,"SoundDuration":140818,"Delta":63059030},{"NoteNumber":58,"Velocity":33,"Duration":296291,"SoundDuration":296291,"Delta":63059030},{"NoteNumber":43,"Velocity":23,"Duration":140818,"SoundDuration":140818,"Delta":63059030},{"NoteNumber":50,"Velocity":28,"Duration":140818,"SoundDuration":140818,"Delta":63059030},{"NoteNumber":67,"Velocity":35,"Duration":155472,"SoundDuration":155472,"Delta":63199849},{"NoteNumber":69,"Velocity":46,"Duration":443632,"SoundDuration":443632,"Delta":63355322},{"NoteNumber":66,"Velocity":39,"Duration":597100,"SoundDuration":597100,"Delta":63355322},{"NoteNumber":60,"Velocity":39,"Duration":597100,"SoundDuration":597100,"Delta":63355322},{"NoteNumber":51,"Velocity":31,"Duration":597100,"SoundDuration":597100,"Delta":63355322},{"NoteNumber":43,"Velocity":26,"Duration":597100,"SoundDuration":597100,"Delta":63355322},{"NoteNumber":70,"Velocity":38,"Duration":153468,"SoundDuration":153468,"Delta":63798954},{"NoteNumber":67,"Velocity":42,"Duration":73435,"SoundDuration":73435,"Delta":63952422},{"NoteNumber":58,"Velocity":35,"Duration":73435,"SoundDuration":73435,"Delta":63952422},{"NoteNumber":50,"Velocity":32,"Duration":73435,"SoundDuration":73435,"Delta":63952422},{"NoteNumber":43,"Velocity":27,"Duration":73435,"SoundDuration":73435,"Delta":63952422},{"NoteNumber":66,"Velocity":39,"Duration":139172,"SoundDuration":139172,"Delta":64246166},{"NoteNumber":58,"Velocity":33,"Duration":293636,"SoundDuration":293636,"Delta":64246166},{"NoteNumber":43,"Velocity":23,"Duration":139172,"SoundDuration":139172,"Delta":64246166},{"NoteNumber":50,"Velocity":28,"Duration":139172,"SoundDuration":139172,"Delta":64246166},{"NoteNumber":67,"Velocity":35,"Duration":154464,"SoundDuration":154464,"Delta":64385338},{"NoteNumber":69,"Velocity":46,"Duration":442649,"SoundDuration":442649,"Delta":64539802},{"NoteNumber":66,"Velocity":39,"Duration":597113,"SoundDuration":597113,"Delta":64539802},{"NoteNumber":60,"Velocity":39,"Duration":597113,"SoundDuration":597113,"Delta":64539802},{"NoteNumber":51,"Velocity":31,"Duration":597113,"SoundDuration":597113,"Delta":64539802},{"NoteNumber":43,"Velocity":26,"Duration":597113,"SoundDuration":597113,"Delta":64539802},{"NoteNumber":70,"Velocity":38,"Duration":154464,"SoundDuration":154464,"Delta":64982451},{"NoteNumber":67,"Velocity":42,"Duration":70409,"SoundDuration":70409,"Delta":65136915},{"NoteNumber":58,"Velocity":35,"Duration":70409,"SoundDuration":70409,"Delta":65136915},{"NoteNumber":50,"Velocity":32,"Duration":70409,"SoundDuration":70409,"Delta":65136915},{"NoteNumber":43,"Velocity":27,"Duration":70409,"SoundDuration":70409,"Delta":65136915},{"NoteNumber":66,"Velocity":36,"Duration":287949,"SoundDuration":287949,"Delta":65418553},{"NoteNumber":69,"Velocity":42,"Duration":134480,"SoundDuration":134480,"Delta":65418553},{"NoteNumber":60,"Velocity":36,"Duration":287949,"SoundDuration":287949,"Delta":65418553},{"NoteNumber":43,"Velocity":25,"Duration":134480,"SoundDuration":134480,"Delta":65418553},{"NoteNumber":51,"Velocity":30,"Duration":134480,"SoundDuration":134480,"Delta":65418553},{"NoteNumber":70,"Velocity":38,"Duration":153468,"SoundDuration":153468,"Delta":65553034},{"NoteNumber":67,"Velocity":47,"Duration":70409,"SoundDuration":70409,"Delta":65706502},{"NoteNumber":58,"Velocity":39,"Duration":70409,"SoundDuration":70409,"Delta":65706502},{"NoteNumber":50,"Velocity":35,"Duration":70409,"SoundDuration":70409,"Delta":65706502},{"NoteNumber":43,"Velocity":29,"Duration":70409,"SoundDuration":70409,"Delta":65706502},{"NoteNumber":66,"Velocity":48,"Duration":281670,"SoundDuration":281670,"Delta":65988140},{"NoteNumber":69,"Velocity":48,"Duration":132978,"SoundDuration":132978,"Delta":65988140},{"NoteNumber":60,"Velocity":40,"Duration":281670,"SoundDuration":281670,"Delta":65988140},{"NoteNumber":43,"Velocity":29,"Duration":132978,"SoundDuration":132978,"Delta":65988140},{"NoteNumber":51,"Velocity":34,"Duration":132978,"SoundDuration":132978,"Delta":65988140},{"NoteNumber":70,"Velocity":44,"Duration":148691,"SoundDuration":148691,"Delta":66121118},{"NoteNumber":67,"Velocity":53,"Duration":70821,"SoundDuration":70821,"Delta":66269810},{"NoteNumber":58,"Velocity":44,"Duration":70821,"SoundDuration":70821,"Delta":66269810},{"NoteNumber":50,"Velocity":40,"Duration":70821,"SoundDuration":70821,"Delta":66269810},{"NoteNumber":43,"Velocity":34,"Duration":70821,"SoundDuration":70821,"Delta":66269810},{"NoteNumber":66,"Velocity":45,"Duration":280597,"SoundDuration":280597,"Delta":66553096},{"NoteNumber":69,"Velocity":54,"Duration":133725,"SoundDuration":133725,"Delta":66553096},{"NoteNumber":60,"Velocity":45,"Duration":280597,"SoundDuration":280597,"Delta":66553096},{"NoteNumber":43,"Velocity":32,"Duration":133725,"SoundDuration":133725,"Delta":66553096},{"NoteNumber":51,"Velocity":38,"Duration":133725,"SoundDuration":133725,"Delta":66553096},{"NoteNumber":70,"Velocity":49,"Duration":146871,"SoundDuration":146871,"Delta":66686821},{"NoteNumber":67,"Velocity":59,"Duration":76242,"SoundDuration":76242,"Delta":66833693},{"NoteNumber":58,"Velocity":49,"Duration":76242,"SoundDuration":76242,"Delta":66833693},{"NoteNumber":50,"Velocity":45,"Duration":76242,"SoundDuration":76242,"Delta":66833693},{"NoteNumber":43,"Velocity":37,"Duration":76242,"SoundDuration":76242,"Delta":66833693},{"NoteNumber":66,"Velocity":49,"Duration":327331,"SoundDuration":327331,"Delta":67138664},{"NoteNumber":69,"Velocity":66,"Duration":157513,"SoundDuration":157513,"Delta":67138664},{"NoteNumber":60,"Velocity":49,"Duration":327331,"SoundDuration":327331,"Delta":67138664},{"NoteNumber":43,"Velocity":35,"Duration":157513,"SoundDuration":157513,"Delta":67138664},{"NoteNumber":51,"Velocity":41,"Duration":157513,"SoundDuration":157513,"Delta":67138664},{"NoteNumber":70,"Velocity":61,"Duration":169817,"SoundDuration":169817,"Delta":67296178},{"NoteNumber":58,"Velocity":56,"Duration":1212146,"SoundDuration":1212146,"Delta":67465995},{"NoteNumber":67,"Velocity":66,"Duration":588292,"SoundDuration":588292,"Delta":67465995},{"NoteNumber":43,"Velocity":42,"Duration":1212146,"SoundDuration":1212146,"Delta":67465995},{"NoteNumber":50,"Velocity":51,"Duration":1212146,"SoundDuration":1212146,"Delta":67465995},{"NoteNumber":69,"Velocity":62,"Duration":294146,"SoundDuration":294146,"Delta":68054288},{"NoteNumber":70,"Velocity":57,"Duration":164853,"SoundDuration":164853,"Delta":68348435},{"NoteNumber":69,"Velocity":45,"Duration":82426,"SoundDuration":82426,"Delta":68513288},{"NoteNumber":70,"Velocity":45,"Duration":82426,"SoundDuration":82426,"Delta":68595715},{"NoteNumber":58,"Velocity":42,"Duration":1384696,"SoundDuration":1384696,"Delta":68678141},{"NoteNumber":69,"Velocity":58,"Duration":606121,"SoundDuration":606121,"Delta":68678141},{"NoteNumber":38,"Velocity":38,"Duration":1384696,"SoundDuration":1384696,"Delta":68678141},{"NoteNumber":53,"Velocity":45,"Duration":1384696,"SoundDuration":1384696,"Delta":68678141},{"NoteNumber":67,"Velocity":48,"Duration":352982,"SoundDuration":352982,"Delta":69284263},{"NoteNumber":65,"Velocity":41,"Duration":425592,"SoundDuration":425592,"Delta":69637246},{"NoteNumber":58,"Velocity":29,"Duration":2368734,"SoundDuration":2368734,"Delta":70062838},{"NoteNumber":62,"Velocity":35,"Duration":789578,"SoundDuration":789578,"Delta":70062838},{"NoteNumber":31,"Velocity":27,"Duration":2368734,"SoundDuration":2368734,"Delta":70062838},{"NoteNumber":50,"Velocity":32,"Duration":2368734,"SoundDuration":2368734,"Delta":70062838},{"NoteNumber":62,"Velocity":27,"Duration":1579155,"SoundDuration":1579155,"Delta":70852416},{"NoteNumber":70,"Velocity":42,"Duration":74162,"SoundDuration":74162,"Delta":73221150},{"NoteNumber":61,"Velocity":35,"Duration":74162,"SoundDuration":74162,"Delta":73221150},{"NoteNumber":53,"Velocity":32,"Duration":74162,"SoundDuration":74162,"Delta":73221150},{"NoteNumber":46,"Velocity":27,"Duration":74162,"SoundDuration":74162,"Delta":73221150},{"NoteNumber":69,"Velocity":39,"Duration":140818,"SoundDuration":140818,"Delta":73517798},{"NoteNumber":61,"Velocity":33,"Duration":296291,"SoundDuration":296291,"Delta":73517798},{"NoteNumber":46,"Velocity":23,"Duration":140818,"SoundDuration":140818,"Delta":73517798},{"NoteNumber":53,"Velocity":28,"Duration":140818,"SoundDuration":140818,"Delta":73517798},{"NoteNumber":70,"Velocity":35,"Duration":155472,"SoundDuration":155472,"Delta":73658617},{"NoteNumber":72,"Velocity":46,"Duration":443632,"SoundDuration":443632,"Delta":73814090},{"NoteNumber":69,"Velocity":39,"Duration":597100,"SoundDuration":597100,"Delta":73814090},{"NoteNumber":63,"Velocity":39,"Duration":597100,"SoundDuration":597100,"Delta":73814090},{"NoteNumber":54,"Velocity":31,"Duration":597100,"SoundDuration":597100,"Delta":73814090},{"NoteNumber":46,"Velocity":26,"Duration":597100,"SoundDuration":597100,"Delta":73814090},{"NoteNumber":73,"Velocity":38,"Duration":153468,"SoundDuration":153468,"Delta":74257722},{"NoteNumber":70,"Velocity":42,"Duration":73435,"SoundDuration":73435,"Delta":74411190},{"NoteNumber":61,"Velocity":35,"Duration":73435,"SoundDuration":73435,"Delta":74411190},{"NoteNumber":53,"Velocity":32,"Duration":73435,"SoundDuration":73435,"Delta":74411190},{"NoteNumber":46,"Velocity":27,"Duration":73435,"SoundDuration":73435,"Delta":74411190},{"NoteNumber":69,"Velocity":39,"Duration":139172,"SoundDuration":139172,"Delta":74704934},{"NoteNumber":61,"Velocity":33,"Duration":293636,"SoundDuration":293636,"Delta":74704934},{"NoteNumber":46,"Velocity":23,"Duration":139172,"SoundDuration":139172,"Delta":74704934},{"NoteNumber":53,"Velocity":28,"Duration":139172,"SoundDuration":139172,"Delta":74704934},{"NoteNumber":70,"Velocity":35,"Duration":154464,"SoundDuration":154464,"Delta":74844106},{"NoteNumber":72,"Velocity":46,"Duration":442649,"SoundDuration":442649,"Delta":74998570},{"NoteNumber":69,"Velocity":39,"Duration":597113,"SoundDuration":597113,"Delta":74998570},{"NoteNumber":63,"Velocity":39,"Duration":597113,"SoundDuration":597113,"Delta":74998570},{"NoteNumber":54,"Velocity":31,"Duration":597113,"SoundDuration":597113,"Delta":74998570},{"NoteNumber":46,"Velocity":26,"Duration":597113,"SoundDuration":597113,"Delta":74998570},{"NoteNumber":73,"Velocity":38,"Duration":154464,"SoundDuration":154464,"Delta":75441219},{"NoteNumber":70,"Velocity":42,"Duration":70409,"SoundDuration":70409,"Delta":75595683},{"NoteNumber":61,"Velocity":35,"Duration":70409,"SoundDuration":70409,"Delta":75595683},{"NoteNumber":53,"Velocity":32,"Duration":70409,"SoundDuration":70409,"Delta":75595683},{"NoteNumber":46,"Velocity":27,"Duration":70409,"SoundDuration":70409,"Delta":75595683},{"NoteNumber":69,"Velocity":36,"Duration":287949,"SoundDuration":287949,"Delta":75877321},{"NoteNumber":72,"Velocity":42,"Duration":134480,"SoundDuration":134480,"Delta":75877321},{"NoteNumber":63,"Velocity":36,"Duration":287949,"SoundDuration":287949,"Delta":75877321},{"NoteNumber":46,"Velocity":25,"Duration":134480,"SoundDuration":134480,"Delta":75877321},{"NoteNumber":54,"Velocity":30,"Duration":134480,"SoundDuration":134480,"Delta":75877321},{"NoteNumber":73,"Velocity":38,"Duration":153468,"SoundDuration":153468,"Delta":76011802},{"NoteNumber":70,"Velocity":47,"Duration":70409,"SoundDuration":70409,"Delta":76165270},{"NoteNumber":61,"Velocity":39,"Duration":70409,"SoundDuration":70409,"Delta":76165270},{"NoteNumber":53,"Velocity":35,"Duration":70409,"SoundDuration":70409,"Delta":76165270},{"NoteNumber":46,"Velocity":29,"Duration":70409,"SoundDuration":70409,"Delta":76165270},{"NoteNumber":69,"Velocity":48,"Duration":281670,"SoundDuration":281670,"Delta":76446908},{"NoteNumber":72,"Velocity":48,"Duration":132978,"SoundDuration":132978,"Delta":76446908},{"NoteNumber":63,"Velocity":40,"Duration":281670,"SoundDuration":281670,"Delta":76446908},{"NoteNumber":46,"Velocity":29,"Duration":132978,"SoundDuration":132978,"Delta":76446908},{"NoteNumber":54,"Velocity":34,"Duration":132978,"SoundDuration":132978,"Delta":76446908},{"NoteNumber":73,"Velocity":44,"Duration":148691,"SoundDuration":148691,"Delta":76579887},{"NoteNumber":70,"Velocity":53,"Duration":70821,"SoundDuration":70821,"Delta":76728578},{"NoteNumber":61,"Velocity":44,"Duration":70821,"SoundDuration":70821,"Delta":76728578},{"NoteNumber":53,"Velocity":40,"Duration":70821,"SoundDuration":70821,"Delta":76728578},{"NoteNumber":46,"Velocity":34,"Duration":70821,"SoundDuration":70821,"Delta":76728578},{"NoteNumber":69,"Velocity":45,"Duration":280597,"SoundDuration":280597,"Delta":77011864},{"NoteNumber":72,"Velocity":54,"Duration":133725,"SoundDuration":133725,"Delta":77011864},{"NoteNumber":63,"Velocity":45,"Duration":280597,"SoundDuration":280597,"Delta":77011864},{"NoteNumber":46,"Velocity":32,"Duration":133725,"SoundDuration":133725,"Delta":77011864},{"NoteNumber":54,"Velocity":38,"Duration":133725,"SoundDuration":133725,"Delta":77011864},{"NoteNumber":73,"Velocity":49,"Duration":146871,"SoundDuration":146871,"Delta":77145590},{"NoteNumber":70,"Velocity":59,"Duration":76242,"SoundDuration":76242,"Delta":77292461},{"NoteNumber":61,"Velocity":49,"Duration":76242,"SoundDuration":76242,"Delta":77292461},{"NoteNumber":53,"Velocity":45,"Duration":76242,"SoundDuration":76242,"Delta":77292461},{"NoteNumber":46,"Velocity":37,"Duration":76242,"SoundDuration":76242,"Delta":77292461},{"NoteNumber":69,"Velocity":49,"Duration":327331,"SoundDuration":327331,"Delta":77597432},{"NoteNumber":72,"Velocity":66,"Duration":157513,"SoundDuration":157513,"Delta":77597432},{"NoteNumber":63,"Velocity":49,"Duration":327331,"SoundDuration":327331,"Delta":77597432},{"NoteNumber":46,"Velocity":35,"Duration":157513,"SoundDuration":157513,"Delta":77597432},{"NoteNumber":54,"Velocity":41,"Duration":157513,"SoundDuration":157513,"Delta":77597432},{"NoteNumber":73,"Velocity":61,"Duration":169817,"SoundDuration":169817,"Delta":77754946},{"NoteNumber":61,"Velocity":56,"Duration":1264043,"SoundDuration":1264043,"Delta":77924764},{"NoteNumber":70,"Velocity":66,"Duration":609199,"SoundDuration":609199,"Delta":77924764},{"NoteNumber":46,"Velocity":42,"Duration":1264043,"SoundDuration":1264043,"Delta":77924764},{"NoteNumber":53,"Velocity":51,"Duration":1264043,"SoundDuration":1264043,"Delta":77924764},{"NoteNumber":72,"Velocity":62,"Duration":315822,"SoundDuration":315822,"Delta":78533963},{"NoteNumber":73,"Velocity":57,"Duration":169510,"SoundDuration":169510,"Delta":78849785},{"NoteNumber":72,"Velocity":45,"Duration":84755,"SoundDuration":84755,"Delta":79019296},{"NoteNumber":73,"Velocity":45,"Duration":84755,"SoundDuration":84755,"Delta":79104051},{"NoteNumber":61,"Velocity":42,"Duration":1444366,"SoundDuration":1444366,"Delta":79188807},{"NoteNumber":72,"Velocity":58,"Duration":638366,"SoundDuration":638366,"Delta":79188807},{"NoteNumber":41,"Velocity":38,"Duration":1444366,"SoundDuration":1444366,"Delta":79188807},{"NoteNumber":56,"Velocity":45,"Duration":1444366,"SoundDuration":1444366,"Delta":79188807},{"NoteNumber":70,"Velocity":48,"Duration":361489,"SoundDuration":361489,"Delta":79827173},{"NoteNumber":68,"Velocity":41,"Duration":444510,"SoundDuration":444510,"Delta":80188662},{"NoteNumber":61,"Velocity":29,"Duration":2416431,"SoundDuration":2416431,"Delta":80633173},{"NoteNumber":65,"Velocity":35,"Duration":805476,"SoundDuration":805476,"Delta":80633173},{"NoteNumber":34,"Velocity":27,"Duration":2416431,"SoundDuration":2416431,"Delta":80633173},{"NoteNumber":53,"Velocity":32,"Duration":2416431,"SoundDuration":2416431,"Delta":80633173},{"NoteNumber":65,"Velocity":27,"Duration":1610954,"SoundDuration":1610954,"Delta":81438650},{"NoteNumber":37,"Velocity":24,"Duration":4625443,"SoundDuration":4625443,"Delta":83856634},{"NoteNumber":44,"Velocity":24,"Duration":4299326,"SoundDuration":4299326,"Delta":84182751},{"NoteNumber":49,"Velocity":25,"Duration":3984215,"SoundDuration":3984215,"Delta":84497862},{"NoteNumber":52,"Velocity":29,"Duration":3679989,"SoundDuration":3679989,"Delta":84802088},{"NoteNumber":56,"Velocity":27,"Duration":3384609,"SoundDuration":3384609,"Delta":85097468},{"NoteNumber":61,"Velocity":29,"Duration":3090448,"SoundDuration":3090448,"Delta":85391629},{"NoteNumber":64,"Velocity":35,"Duration":916169,"SoundDuration":916169,"Delta":85733568},{"NoteNumber":64,"Velocity":27,"Duration":1832340,"SoundDuration":1832340,"Delta":86649738},{"NoteNumber":76,"Velocity":36,"Duration":936036,"SoundDuration":936036,"Delta":89398248},{"NoteNumber":55,"Velocity":21,"Duration":1872073,"SoundDuration":1872073,"Delta":89398248},{"NoteNumber":61,"Velocity":12,"Duration":936036,"SoundDuration":936036,"Delta":89866266},{"NoteNumber":64,"Velocity":15,"Duration":936036,"SoundDuration":936036,"Delta":89866266},{"NoteNumber":57,"Velocity":12,"Duration":936036,"SoundDuration":936036,"Delta":89866266},{"NoteNumber":69,"Velocity":28,"Duration":936036,"SoundDuration":936036,"Delta":90334285},{"NoteNumber":61,"Velocity":12,"Duration":468018,"SoundDuration":468018,"Delta":90802303},{"NoteNumber":64,"Velocity":15,"Duration":468018,"SoundDuration":468018,"Delta":90802303},{"NoteNumber":57,"Velocity":12,"Duration":468018,"SoundDuration":468018,"Delta":90802303},{"NoteNumber":76,"Velocity":34,"Duration":936036,"SoundDuration":936036,"Delta":91270322},{"NoteNumber":55,"Velocity":21,"Duration":1872073,"SoundDuration":1872073,"Delta":91270322},{"NoteNumber":61,"Velocity":12,"Duration":936036,"SoundDuration":936036,"Delta":91738340},{"NoteNumber":64,"Velocity":15,"Duration":936036,"SoundDuration":936036,"Delta":91738340},{"NoteNumber":57,"Velocity":12,"Duration":936036,"SoundDuration":936036,"Delta":91738340},{"NoteNumber":69,"Velocity":27,"Duration":936036,"SoundDuration":936036,"Delta":92206359},{"NoteNumber":61,"Velocity":12,"Duration":468018,"SoundDuration":468018,"Delta":92674377},{"NoteNumber":64,"Velocity":15,"Duration":468018,"SoundDuration":468018,"Delta":92674377},{"NoteNumber":57,"Velocity":12,"Duration":468018,"SoundDuration":468018,"Delta":92674377},{"NoteNumber":76,"Velocity":33,"Duration":295857,"SoundDuration":295857,"Delta":93142396},{"NoteNumber":55,"Velocity":21,"Duration":1860269,"SoundDuration":1860269,"Delta":93142396},{"NoteNumber":69,"Velocity":29,"Duration":295858,"SoundDuration":295858,"Delta":93438254},{"NoteNumber":61,"Velocity":15,"Duration":913132,"SoundDuration":913132,"Delta":93586183},{"NoteNumber":64,"Velocity":17,"Duration":913132,"SoundDuration":913132,"Delta":93586183},{"NoteNumber":57,"Velocity":15,"Duration":913132,"SoundDuration":913132,"Delta":93586183},{"NoteNumber":76,"Velocity":31,"Duration":324675,"SoundDuration":324675,"Delta":93734112},{"NoteNumber":77,"Velocity":35,"Duration":293685,"SoundDuration":293685,"Delta":94058787},{"NoteNumber":79,"Velocity":28,"Duration":293685,"SoundDuration":293685,"Delta":94352473},{"NoteNumber":62,"Velocity":14,"Duration":503349,"SoundDuration":503349,"Delta":94499315},{"NoteNumber":65,"Velocity":17,"Duration":503349,"SoundDuration":503349,"Delta":94499315},{"NoteNumber":58,"Velocity":14,"Duration":503349,"SoundDuration":503349,"Delta":94499315},{"NoteNumber":77,"Velocity":28,"Duration":356506,"SoundDuration":356506,"Delta":94646158},{"NoteNumber":76,"Velocity":34,"Duration":936036,"SoundDuration":936036,"Delta":95002665},{"NoteNumber":55,"Velocity":21,"Duration":1925304,"SoundDuration":1925304,"Delta":95002665},{"NoteNumber":61,"Velocity":15,"Duration":953641,"SoundDuration":953641,"Delta":95470683},{"NoteNumber":64,"Velocity":17,"Duration":953641,"SoundDuration":953641,"Delta":95470683},{"NoteNumber":57,"Velocity":15,"Duration":953641,"SoundDuration":953641,"Delta":95470683},{"NoteNumber":69,"Velocity":30,"Duration":741742,"SoundDuration":741742,"Delta":95938702},{"NoteNumber":61,"Velocity":15,"Duration":256119,"SoundDuration":256119,"Delta":96424325},{"NoteNumber":64,"Velocity":17,"Duration":256119,"SoundDuration":256119,"Delta":96424325},{"NoteNumber":57,"Velocity":15,"Duration":256119,"SoundDuration":256119,"Delta":96424325},{"NoteNumber":73,"Velocity":29,"Duration":1176317,"SoundDuration":1176317,"Delta":96680445},{"NoteNumber":77,"Velocity":32,"Duration":1052555,"SoundDuration":1052555,"Delta":96804207},{"NoteNumber":81,"Velocity":34,"Duration":1910964,"SoundDuration":1910964,"Delta":96927969},{"NoteNumber":55,"Velocity":21,"Duration":1910964,"SoundDuration":1910964,"Delta":96927969},{"NoteNumber":61,"Velocity":15,"Duration":928792,"SoundDuration":928792,"Delta":97392366},{"NoteNumber":64,"Velocity":17,"Duration":928792,"SoundDuration":928792,"Delta":97392366},{"NoteNumber":57,"Velocity":15,"Duration":928792,"SoundDuration":928792,"Delta":97392366},{"NoteNumber":76,"Velocity":29,"Duration":709939,"SoundDuration":709939,"Delta":97856762},{"NoteNumber":69,"Velocity":25,"Duration":709939,"SoundDuration":709939,"Delta":97856762},{"NoteNumber":61,"Velocity":14,"Duration":245542,"SoundDuration":245542,"Delta":98321159},{"NoteNumber":64,"Velocity":17,"Duration":245542,"SoundDuration":245542,"Delta":98321159},{"NoteNumber":57,"Velocity":14,"Duration":245542,"SoundDuration":245542,"Delta":98321159},{"NoteNumber":73,"Velocity":33,"Duration":1201025,"SoundDuration":1201025,"Delta":98566702},{"NoteNumber":77,"Velocity":36,"Duration":1064909,"SoundDuration":1064909,"Delta":98702818},{"NoteNumber":81,"Velocity":38,"Duration":1895210,"SoundDuration":1895210,"Delta":98838934},{"NoteNumber":55,"Velocity":23,"Duration":1895210,"SoundDuration":1895210,"Delta":98838934},{"NoteNumber":61,"Velocity":17,"Duration":928792,"SoundDuration":928792,"Delta":99303330},{"NoteNumber":64,"Velocity":20,"Duration":928792,"SoundDuration":928792,"Delta":99303330},{"NoteNumber":57,"Velocity":17,"Duration":928792,"SoundDuration":928792,"Delta":99303330},{"NoteNumber":76,"Velocity":33,"Duration":966417,"SoundDuration":966417,"Delta":99767727},{"NoteNumber":69,"Velocity":28,"Duration":966417,"SoundDuration":966417,"Delta":99767727},{"NoteNumber":61,"Velocity":16,"Duration":502021,"SoundDuration":502021,"Delta":100232123},{"NoteNumber":64,"Velocity":19,"Duration":502021,"SoundDuration":502021,"Delta":100232123},{"NoteNumber":57,"Velocity":16,"Duration":502021,"SoundDuration":502021,"Delta":100232123},{"NoteNumber":73,"Velocity":36,"Duration":309597,"SoundDuration":309597,"Delta":100734145},{"NoteNumber":81,"Velocity":38,"Duration":309597,"SoundDuration":309597,"Delta":100734145},{"NoteNumber":55,"Velocity":23,"Duration":1823988,"SoundDuration":1823988,"Delta":100734145},{"NoteNumber":69,"Velocity":26,"Duration":291545,"SoundDuration":291545,"Delta":101043742},{"NoteNumber":76,"Velocity":31,"Duration":291545,"SoundDuration":291545,"Delta":101043742},{"NoteNumber":61,"Velocity":17,"Duration":890655,"SoundDuration":890655,"Delta":101189515},{"NoteNumber":64,"Velocity":20,"Duration":890655,"SoundDuration":890655,"Delta":101189515},{"NoteNumber":57,"Velocity":17,"Duration":890655,"SoundDuration":890655,"Delta":101189515},{"NoteNumber":81,"Velocity":31,"Duration":309597,"SoundDuration":309597,"Delta":101335288},{"NoteNumber":73,"Velocity":23,"Duration":309597,"SoundDuration":309597,"Delta":101335288},{"NoteNumber":82,"Velocity":41,"Duration":287356,"SoundDuration":287356,"Delta":101644885},{"NoteNumber":74,"Velocity":31,"Duration":287356,"SoundDuration":287356,"Delta":101644885},{"NoteNumber":79,"Velocity":27,"Duration":295858,"SoundDuration":295858,"Delta":101932242},{"NoteNumber":84,"Velocity":36,"Duration":295858,"SoundDuration":295858,"Delta":101932242},{"NoteNumber":62,"Velocity":16,"Duration":230437,"SoundDuration":230437,"Delta":102080171},{"NoteNumber":64,"Velocity":19,"Duration":230437,"SoundDuration":230437,"Delta":102080171},{"NoteNumber":58,"Velocity":16,"Duration":230437,"SoundDuration":230437,"Delta":102080171},{"NoteNumber":74,"Velocity":24,"Duration":82508,"SoundDuration":82508,"Delta":102228100},{"NoteNumber":82,"Velocity":32,"Duration":165016,"SoundDuration":165016,"Delta":102228100},{"NoteNumber":73,"Velocity":33,"Duration":1101053,"SoundDuration":1101053,"Delta":102393116},{"NoteNumber":77,"Velocity":36,"Duration":1018545,"SoundDuration":1018545,"Delta":102475624},{"NoteNumber":81,"Velocity":38,"Duration":1918075,"SoundDuration":1918075,"Delta":102558133},{"NoteNumber":55,"Velocity":23,"Duration":1918075,"SoundDuration":1918075,"Delta":102558133},{"NoteNumber":61,"Velocity":17,"Duration":955162,"SoundDuration":955162,"Delta":103026151},{"NoteNumber":64,"Velocity":20,"Duration":955162,"SoundDuration":955162,"Delta":103026151},{"NoteNumber":57,"Velocity":17,"Duration":955162,"SoundDuration":955162,"Delta":103026151},{"NoteNumber":76,"Velocity":33,"Duration":982038,"SoundDuration":982038,"Delta":103494170},{"NoteNumber":69,"Velocity":28,"Duration":982038,"SoundDuration":982038,"Delta":103494170},{"NoteNumber":61,"Velocity":16,"Duration":494895,"SoundDuration":494895,"Delta":103981313},{"NoteNumber":64,"Velocity":19,"Duration":494895,"SoundDuration":494895,"Delta":103981313},{"NoteNumber":57,"Velocity":16,"Duration":494895,"SoundDuration":494895,"Delta":103981313},{"NoteNumber":75,"Velocity":41,"Duration":309597,"SoundDuration":309597,"Delta":104476209},{"NoteNumber":82,"Velocity":43,"Duration":309597,"SoundDuration":309597,"Delta":104476209},{"NoteNumber":55,"Velocity":28,"Duration":1823988,"SoundDuration":1823988,"Delta":104476209},{"NoteNumber":70,"Velocity":29,"Duration":291545,"SoundDuration":291545,"Delta":104785806},{"NoteNumber":79,"Velocity":35,"Duration":291545,"SoundDuration":291545,"Delta":104785806},{"NoteNumber":63,"Velocity":20,"Duration":890655,"SoundDuration":890655,"Delta":104931579},{"NoteNumber":67,"Velocity":24,"Duration":890655,"SoundDuration":890655,"Delta":104931579},{"NoteNumber":58,"Velocity":20,"Duration":890655,"SoundDuration":890655,"Delta":104931579},{"NoteNumber":82,"Velocity":35,"Duration":309597,"SoundDuration":309597,"Delta":105077352},{"NoteNumber":75,"Velocity":26,"Duration":309597,"SoundDuration":309597,"Delta":105077352},{"NoteNumber":84,"Velocity":47,"Duration":287356,"SoundDuration":287356,"Delta":105386949},{"NoteNumber":79,"Velocity":35,"Duration":287356,"SoundDuration":287356,"Delta":105386949},{"NoteNumber":82,"Velocity":31,"Duration":295858,"SoundDuration":295858,"Delta":105674306},{"NoteNumber":86,"Velocity":41,"Duration":295858,"SoundDuration":295858,"Delta":105674306},{"NoteNumber":63,"Velocity":19,"Duration":230437,"SoundDuration":230437,"Delta":105822235},{"NoteNumber":67,"Velocity":23,"Duration":230437,"SoundDuration":230437,"Delta":105822235},{"NoteNumber":58,"Velocity":19,"Duration":230437,"SoundDuration":230437,"Delta":105822235},{"NoteNumber":79,"Velocity":27,"Duration":82508,"SoundDuration":82508,"Delta":105970164},{"NoteNumber":84,"Velocity":36,"Duration":165016,"SoundDuration":165016,"Delta":105970164},{"NoteNumber":77,"Velocity":37,"Duration":1101053,"SoundDuration":1101053,"Delta":106135180},{"NoteNumber":82,"Velocity":43,"Duration":1918075,"SoundDuration":1918075,"Delta":106300197},{"NoteNumber":55,"Velocity":28,"Duration":1918075,"SoundDuration":1918075,"Delta":106300197},{"NoteNumber":63,"Velocity":20,"Duration":955162,"SoundDuration":955162,"Delta":106768215},{"NoteNumber":67,"Velocity":24,"Duration":955162,"SoundDuration":955162,"Delta":106768215},{"NoteNumber":58,"Velocity":20,"Duration":955162,"SoundDuration":955162,"Delta":106768215},{"NoteNumber":75,"Velocity":37,"Duration":982038,"SoundDuration":982038,"Delta":107236234},{"NoteNumber":70,"Velocity":32,"Duration":982038,"SoundDuration":982038,"Delta":107236234},{"NoteNumber":63,"Velocity":19,"Duration":494895,"SoundDuration":494895,"Delta":107723377},{"NoteNumber":67,"Velocity":23,"Duration":494895,"SoundDuration":494895,"Delta":107723377},{"NoteNumber":58,"Velocity":19,"Duration":494895,"SoundDuration":494895,"Delta":107723377},{"NoteNumber":75,"Velocity":47,"Duration":296340,"SoundDuration":296340,"Delta":108218272},{"NoteNumber":84,"Velocity":49,"Duration":296340,"SoundDuration":296340,"Delta":108218272},{"NoteNumber":55,"Velocity":36,"Duration":1754090,"SoundDuration":1754090,"Delta":108218272},{"NoteNumber":72,"Velocity":33,"Duration":277816,"SoundDuration":277816,"Delta":108514613},{"NoteNumber":79,"Velocity":40,"Duration":277816,"SoundDuration":277816,"Delta":108514613},{"NoteNumber":63,"Velocity":26,"Duration":847944,"SoundDuration":847944,"Delta":108653521},{"NoteNumber":68,"Velocity":31,"Duration":847944,"SoundDuration":847944,"Delta":108653521},{"NoteNumber":60,"Velocity":26,"Duration":847944,"SoundDuration":847944,"Delta":108653521},{"NoteNumber":84,"Velocity":40,"Duration":294161,"SoundDuration":294161,"Delta":108792429},{"NoteNumber":75,"Velocity":29,"Duration":294161,"SoundDuration":294161,"Delta":108792429},{"NoteNumber":87,"Velocity":54,"Duration":274009,"SoundDuration":274009,"Delta":109086590},{"NoteNumber":79,"Velocity":40,"Duration":274009,"SoundDuration":274009,"Delta":109086590},{"NoteNumber":84,"Velocity":35,"Duration":281729,"SoundDuration":281729,"Delta":109360600},{"NoteNumber":89,"Velocity":47,"Duration":281729,"SoundDuration":281729,"Delta":109360600},{"NoteNumber":63,"Velocity":24,"Duration":223373,"SoundDuration":223373,"Delta":109501465},{"NoteNumber":69,"Velocity":29,"Duration":223373,"SoundDuration":223373,"Delta":109501465},{"NoteNumber":60,"Velocity":24,"Duration":223373,"SoundDuration":223373,"Delta":109501465},{"NoteNumber":79,"Velocity":31,"Duration":82508,"SoundDuration":82508,"Delta":109642330},{"NoteNumber":87,"Velocity":41,"Duration":165016,"SoundDuration":165016,"Delta":109642330},{"NoteNumber":75,"Velocity":42,"Duration":1041056,"SoundDuration":1041056,"Delta":109807346},{"NoteNumber":84,"Velocity":56,"Duration":1800315,"SoundDuration":1800315,"Delta":109972363},{"NoteNumber":55,"Velocity":36,"Duration":1800315,"SoundDuration":1800315,"Delta":109972363},{"NoteNumber":63,"Velocity":26,"Duration":890059,"SoundDuration":890059,"Delta":110410383},{"NoteNumber":68,"Velocity":31,"Duration":890059,"SoundDuration":890059,"Delta":110410383},{"NoteNumber":60,"Velocity":26,"Duration":890059,"SoundDuration":890059,"Delta":110410383},{"NoteNumber":72,"Velocity":45,"Duration":808176,"SoundDuration":808176,"Delta":110848403},{"NoteNumber":79,"Velocity":45,"Duration":808176,"SoundDuration":808176,"Delta":110848403},{"NoteNumber":63,"Velocity":24,"Duration":356137,"SoundDuration":356137,"Delta":111300442},{"NoteNumber":69,"Velocity":29,"Duration":356137,"SoundDuration":356137,"Delta":111300442},{"NoteNumber":60,"Velocity":24,"Duration":356137,"SoundDuration":356137,"Delta":111300442},{"NoteNumber":84,"Velocity":51,"Duration":967284,"SoundDuration":967284,"Delta":111656579},{"NoteNumber":90,"Velocity":66,"Duration":851185,"SoundDuration":851185,"Delta":111772679},{"NoteNumber":55,"Velocity":54,"Duration":425592,"SoundDuration":425592,"Delta":111772679},{"NoteNumber":70,"Velocity":43,"Duration":851185,"SoundDuration":851185,"Delta":112198271},{"NoteNumber":66,"Velocity":37,"Duration":851185,"SoundDuration":851185,"Delta":112198271},{"NoteNumber":72,"Velocity":43,"Duration":851185,"SoundDuration":851185,"Delta":112198271},{"NoteNumber":63,"Velocity":37,"Duration":851185,"SoundDuration":851185,"Delta":112198271},{"NoteNumber":87,"Velocity":64,"Duration":753596,"SoundDuration":753596,"Delta":112623864},{"NoteNumber":78,"Velocity":54,"Duration":753596,"SoundDuration":753596,"Delta":112623864},{"NoteNumber":63,"Velocity":37,"Duration":328003,"SoundDuration":328003,"Delta":113049456},{"NoteNumber":72,"Velocity":43,"Duration":328003,"SoundDuration":328003,"Delta":113049456},{"NoteNumber":66,"Velocity":37,"Duration":328003,"SoundDuration":328003,"Delta":113049456},{"NoteNumber":69,"Velocity":43,"Duration":328003,"SoundDuration":328003,"Delta":113049456},{"NoteNumber":84,"Velocity":51,"Duration":950191,"SoundDuration":950191,"Delta":113377460},{"NoteNumber":90,"Velocity":66,"Duration":834092,"SoundDuration":834092,"Delta":113493559},{"NoteNumber":55,"Velocity":54,"Duration":428632,"SoundDuration":428632,"Delta":113493559},{"NoteNumber":70,"Velocity":43,"Duration":834092,"SoundDuration":834092,"Delta":113922191},{"NoteNumber":66,"Velocity":37,"Duration":834092,"SoundDuration":834092,"Delta":113922191},{"NoteNumber":72,"Velocity":43,"Duration":834092,"SoundDuration":834092,"Delta":113922191},{"NoteNumber":63,"Velocity":37,"Duration":834092,"SoundDuration":834092,"Delta":113922191},{"NoteNumber":87,"Velocity":65,"Duration":758156,"SoundDuration":758156,"Delta":114327651},{"NoteNumber":78,"Velocity":55,"Duration":758156,"SoundDuration":758156,"Delta":114327651},{"NoteNumber":63,"Velocity":37,"Duration":329523,"SoundDuration":329523,"Delta":114756284},{"NoteNumber":72,"Velocity":43,"Duration":329523,"SoundDuration":329523,"Delta":114756284},{"NoteNumber":66,"Velocity":37,"Duration":329523,"SoundDuration":329523,"Delta":114756284},{"NoteNumber":69,"Velocity":43,"Duration":329523,"SoundDuration":329523,"Delta":114756284},{"NoteNumber":84,"Velocity":51,"Duration":510888,"SoundDuration":510888,"Delta":115085807},{"NoteNumber":90,"Velocity":69,"Duration":394789,"SoundDuration":394789,"Delta":115201907},{"NoteNumber":55,"Velocity":54,"Duration":394789,"SoundDuration":394789,"Delta":115201907},{"NoteNumber":87,"Velocity":65,"Duration":434672,"SoundDuration":434672,"Delta":115596696},{"NoteNumber":78,"Velocity":54,"Duration":434672,"SoundDuration":434672,"Delta":115596696},{"NoteNumber":70,"Velocity":44,"Duration":826880,"SoundDuration":826880,"Delta":115596696},{"NoteNumber":66,"Velocity":37,"Duration":826880,"SoundDuration":826880,"Delta":115596696},{"NoteNumber":72,"Velocity":44,"Duration":826880,"SoundDuration":826880,"Delta":115596696},{"NoteNumber":63,"Velocity":37,"Duration":826880,"SoundDuration":826880,"Delta":115596696},{"NoteNumber":90,"Velocity":73,"Duration":392207,"SoundDuration":392207,"Delta":116031368},{"NoteNumber":84,"Velocity":62,"Duration":392207,"SoundDuration":392207,"Delta":116031368},{"NoteNumber":87,"Velocity":70,"Duration":435582,"SoundDuration":435582,"Delta":116423576},{"NoteNumber":78,"Velocity":59,"Duration":435582,"SoundDuration":435582,"Delta":116423576},{"NoteNumber":63,"Velocity":40,"Duration":435582,"SoundDuration":435582,"Delta":116423576},{"NoteNumber":72,"Velocity":48,"Duration":435582,"SoundDuration":435582,"Delta":116423576},{"NoteNumber":66,"Velocity":40,"Duration":435582,"SoundDuration":435582,"Delta":116423576},{"NoteNumber":69,"Velocity":48,"Duration":435582,"SoundDuration":435582,"Delta":116423576},{"NoteNumber":90,"Velocity":76,"Duration":389661,"SoundDuration":389661,"Delta":116859159},{"NoteNumber":84,"Velocity":64,"Duration":389661,"SoundDuration":389661,"Delta":116859159},{"NoteNumber":55,"Velocity":65,"Duration":389661,"SoundDuration":389661,"Delta":116859159},{"NoteNumber":78,"Velocity":54,"Duration":438383,"SoundDuration":438383,"Delta":117248820},{"NoteNumber":87,"Velocity":63,"Duration":438383,"SoundDuration":438383,"Delta":117248820},{"NoteNumber":70,"Velocity":51,"Duration":828044,"SoundDuration":828044,"Delta":117248820},{"NoteNumber":66,"Velocity":43,"Duration":828044,"SoundDuration":828044,"Delta":117248820},{"NoteNumber":72,"Velocity":51,"Duration":828044,"SoundDuration":828044,"Delta":117248820},{"NoteNumber":63,"Velocity":43,"Duration":828044,"SoundDuration":828044,"Delta":117248820},{"NoteNumber":90,"Velocity":80,"Duration":389661,"SoundDuration":389661,"Delta":117687204},{"NoteNumber":84,"Velocity":68,"Duration":389661,"SoundDuration":389661,"Delta":117687204},{"NoteNumber":87,"Velocity":72,"Duration":413271,"SoundDuration":413271,"Delta":118076865},{"NoteNumber":78,"Velocity":61,"Duration":413271,"SoundDuration":413271,"Delta":118076865},{"NoteNumber":63,"Velocity":44,"Duration":413271,"SoundDuration":413271,"Delta":118076865},{"NoteNumber":72,"Velocity":51,"Duration":413271,"SoundDuration":413271,"Delta":118076865},{"NoteNumber":66,"Velocity":44,"Duration":413271,"SoundDuration":413271,"Delta":118076865},{"NoteNumber":69,"Velocity":51,"Duration":413271,"SoundDuration":413271,"Delta":118076865},{"NoteNumber":84,"Velocity":46,"Duration":137639,"SoundDuration":137639,"Delta":118490136},{"NoteNumber":91,"Velocity":64,"Duration":937875,"SoundDuration":937875,"Delta":118627776},{"NoteNumber":48,"Velocity":39,"Duration":1875059,"SoundDuration":1875059,"Delta":118627776},{"NoteNumber":55,"Velocity":37,"Duration":927461,"SoundDuration":927461,"Delta":119089385},{"NoteNumber":63,"Velocity":43,"Duration":927461,"SoundDuration":927461,"Delta":119089385},{"NoteNumber":79,"Velocity":60,"Duration":766205,"SoundDuration":766205,"Delta":119565651},{"NoteNumber":63,"Velocity":43,"Duration":354386,"SoundDuration":354386,"Delta":120016847},{"NoteNumber":55,"Velocity":37,"Duration":354386,"SoundDuration":354386,"Delta":120016847},{"NoteNumber":79,"Velocity":48,"Duration":131602,"SoundDuration":131602,"Delta":120371234},{"NoteNumber":86,"Velocity":62,"Duration":956707,"SoundDuration":956707,"Delta":120502836},{"NoteNumber":47,"Velocity":43,"Duration":1948505,"SoundDuration":1948505,"Delta":120502836},{"NoteNumber":55,"Velocity":33,"Duration":956707,"SoundDuration":956707,"Delta":120971659},{"NoteNumber":62,"Velocity":38,"Duration":956707,"SoundDuration":956707,"Delta":120971659},{"NoteNumber":74,"Velocity":54,"Duration":816710,"SoundDuration":816710,"Delta":121459543},{"NoteNumber":62,"Velocity":38,"Duration":391372,"SoundDuration":391372,"Delta":121928367},{"NoteNumber":55,"Velocity":33,"Duration":391372,"SoundDuration":391372,"Delta":121928367},{"NoteNumber":74,"Velocity":40,"Duration":131602,"SoundDuration":131602,"Delta":122319739},{"NoteNumber":79,"Velocity":52,"Duration":1005778,"SoundDuration":1005778,"Delta":122451341},{"NoteNumber":46,"Velocity":39,"Duration":2078199,"SoundDuration":2078199,"Delta":122451341},{"NoteNumber":52,"Velocity":29,"Duration":1039160,"SoundDuration":1039160,"Delta":122935290},{"NoteNumber":55,"Velocity":29,"Duration":1039160,"SoundDuration":1039160,"Delta":122935290},{"NoteNumber":61,"Velocity":34,"Duration":1039160,"SoundDuration":1039160,"Delta":122935290},{"NoteNumber":67,"Velocity":45,"Duration":876303,"SoundDuration":876303,"Delta":123457120},{"NoteNumber":52,"Velocity":29,"Duration":408002,"SoundDuration":408002,"Delta":123974451},{"NoteNumber":61,"Velocity":34,"Duration":408002,"SoundDuration":408002,"Delta":123974451},{"NoteNumber":55,"Velocity":29,"Duration":408002,"SoundDuration":408002,"Delta":123974451},{"NoteNumber":67,"Velocity":32,"Duration":147087,"SoundDuration":147087,"Delta":124382453},{"NoteNumber":74,"Velocity":41,"Duration":1105681,"SoundDuration":1105681,"Delta":124529541},{"NoteNumber":45,"Velocity":31,"Duration":2498285,"SoundDuration":2498285,"Delta":124529541},{"NoteNumber":50,"Velocity":18,"Duration":1226784,"SoundDuration":1226784,"Delta":125046871},{"NoteNumber":54,"Velocity":18,"Duration":1226784,"SoundDuration":1226784,"Delta":125046871},{"NoteNumber":60,"Velocity":21,"Duration":1226784,"SoundDuration":1226784,"Delta":125046871},{"NoteNumber":62,"Velocity":29,"Duration":1207385,"SoundDuration":1207385,"Delta":125635222},{"NoteNumber":50,"Velocity":18,"Duration":615256,"SoundDuration":615256,"Delta":126273655},{"NoteNumber":60,"Velocity":21,"Duration":615256,"SoundDuration":615256,"Delta":126273655},{"NoteNumber":54,"Velocity":18,"Duration":615256,"SoundDuration":615256,"Delta":126273655},{"NoteNumber":62,"Velocity":29,"Duration":138914,"SoundDuration":138914,"Delta":126888912},{"NoteNumber":67,"Velocity":35,"Duration":936036,"SoundDuration":936036,"Delta":127027826},{"NoteNumber":43,"Velocity":28,"Duration":468018,"SoundDuration":468018,"Delta":127027826},{"NoteNumber":59,"Velocity":20,"Duration":936037,"SoundDuration":936037,"Delta":127495845},{"NoteNumber":50,"Velocity":17,"Duration":936037,"SoundDuration":936037,"Delta":127495845},{"NoteNumber":62,"Velocity":26,"Duration":936037,"SoundDuration":936037,"Delta":127963863},{"NoteNumber":59,"Velocity":20,"Duration":468018,"SoundDuration":468018,"Delta":128431882},{"NoteNumber":50,"Velocity":17,"Duration":468018,"SoundDuration":468018,"Delta":128431882},{"NoteNumber":67,"Velocity":35,"Duration":936036,"SoundDuration":936036,"Delta":128899900},{"NoteNumber":43,"Velocity":28,"Duration":468018,"SoundDuration":468018,"Delta":128899900},{"NoteNumber":59,"Velocity":21,"Duration":936036,"SoundDuration":936036,"Delta":129367919},{"NoteNumber":50,"Velocity":17,"Duration":936036,"SoundDuration":936036,"Delta":129367919},{"NoteNumber":62,"Velocity":27,"Duration":936036,"SoundDuration":936036,"Delta":129835937},{"NoteNumber":59,"Velocity":21,"Duration":468018,"SoundDuration":468018,"Delta":130303956},{"NoteNumber":50,"Velocity":17,"Duration":468018,"SoundDuration":468018,"Delta":130303956},{"NoteNumber":67,"Velocity":37,"Duration":295858,"SoundDuration":295858,"Delta":130771974},{"NoteNumber":43,"Velocity":28,"Duration":443786,"SoundDuration":443786,"Delta":130771974},{"NoteNumber":66,"Velocity":33,"Duration":295857,"SoundDuration":295857,"Delta":131067832},{"NoteNumber":62,"Velocity":28,"Duration":472604,"SoundDuration":472604,"Delta":131215761},{"NoteNumber":59,"Velocity":24,"Duration":913132,"SoundDuration":913132,"Delta":131215761},{"NoteNumber":50,"Velocity":20,"Duration":913132,"SoundDuration":913132,"Delta":131215761},{"NoteNumber":67,"Velocity":35,"Duration":324675,"SoundDuration":324675,"Delta":131363690},{"NoteNumber":64,"Velocity":28,"Duration":440528,"SoundDuration":440528,"Delta":131688366},{"NoteNumber":69,"Velocity":39,"Duration":293685,"SoundDuration":293685,"Delta":131688366},{"NoteNumber":71,"Velocity":32,"Duration":293685,"SoundDuration":293685,"Delta":131982051},{"NoteNumber":66,"Velocity":23,"Duration":503349,"SoundDuration":503349,"Delta":132128894},{"NoteNumber":60,"Velocity":23,"Duration":503349,"SoundDuration":503349,"Delta":132128894},{"NoteNumber":50,"Velocity":19,"Duration":503349,"SoundDuration":503349,"Delta":132128894},{"NoteNumber":69,"Velocity":32,"Duration":356506,"SoundDuration":356506,"Delta":132275737},{"NoteNumber":67,"Velocity":38,"Duration":936036,"SoundDuration":936036,"Delta":132632243},{"NoteNumber":43,"Velocity":28,"Duration":468018,"SoundDuration":468018,"Delta":132632243},{"NoteNumber":59,"Velocity":24,"Duration":953642,"SoundDuration":953642,"Delta":133100262},{"NoteNumber":50,"Velocity":20,"Duration":953642,"SoundDuration":953642,"Delta":133100262},{"NoteNumber":62,"Velocity":34,"Duration":741742,"SoundDuration":741742,"Delta":133568280},{"NoteNumber":59,"Velocity":24,"Duration":256119,"SoundDuration":256119,"Delta":134053904},{"NoteNumber":50,"Velocity":20,"Duration":256119,"SoundDuration":256119,"Delta":134053904},{"NoteNumber":66,"Velocity":33,"Duration":1176317,"SoundDuration":1176317,"Delta":134310023},{"NoteNumber":71,"Velocity":36,"Duration":1052555,"SoundDuration":1052555,"Delta":134433786},{"NoteNumber":74,"Velocity":38,"Duration":1910964,"SoundDuration":1910964,"Delta":134557548},{"NoteNumber":43,"Velocity":28,"Duration":464396,"SoundDuration":464396,"Delta":134557548},{"NoteNumber":60,"Velocity":24,"Duration":928793,"SoundDuration":928793,"Delta":135021944},{"NoteNumber":50,"Velocity":20,"Duration":928793,"SoundDuration":928793,"Delta":135021944},{"NoteNumber":69,"Velocity":33,"Duration":709939,"SoundDuration":709939,"Delta":135486341},{"NoteNumber":62,"Velocity":28,"Duration":709939,"SoundDuration":709939,"Delta":135486341},{"NoteNumber":60,"Velocity":23,"Duration":245542,"SoundDuration":245542,"Delta":135950737},{"NoteNumber":50,"Velocity":19,"Duration":245542,"SoundDuration":245542,"Delta":135950737},{"NoteNumber":66,"Velocity":33,"Duration":1201025,"SoundDuration":1201025,"Delta":136196280},{"NoteNumber":71,"Velocity":36,"Duration":1064909,"SoundDuration":1064909,"Delta":136332397},{"NoteNumber":74,"Velocity":38,"Duration":1895210,"SoundDuration":1895210,"Delta":136468513},{"NoteNumber":43,"Velocity":28,"Duration":464396,"SoundDuration":464396,"Delta":136468513},{"NoteNumber":60,"Velocity":24,"Duration":928793,"SoundDuration":928793,"Delta":136932909},{"NoteNumber":50,"Velocity":20,"Duration":928793,"SoundDuration":928793,"Delta":136932909},{"NoteNumber":69,"Velocity":33,"Duration":706000,"SoundDuration":706000,"Delta":137397306},{"NoteNumber":62,"Velocity":28,"Duration":706000,"SoundDuration":706000,"Delta":137397306},{"NoteNumber":60,"Velocity":23,"Duration":241604,"SoundDuration":241604,"Delta":137861702},{"NoteNumber":50,"Velocity":19,"Duration":241604,"SoundDuration":241604,"Delta":137861702},{"NoteNumber":66,"Velocity":33,"Duration":570014,"SoundDuration":570014,"Delta":138103307},{"NoteNumber":71,"Velocity":36,"Duration":439806,"SoundDuration":439806,"Delta":138233515},{"NoteNumber":74,"Velocity":38,"Duration":309597,"SoundDuration":309597,"Delta":138363723},{"NoteNumber":43,"Velocity":28,"Duration":455370,"SoundDuration":455370,"Delta":138363723},{"NoteNumber":62,"Velocity":26,"Duration":291545,"SoundDuration":291545,"Delta":138673321},{"NoteNumber":69,"Velocity":31,"Duration":291545,"SoundDuration":291545,"Delta":138673321},{"NoteNumber":60,"Velocity":24,"Duration":890655,"SoundDuration":890655,"Delta":138819094},{"NoteNumber":50,"Velocity":20,"Duration":890655,"SoundDuration":890655,"Delta":138819094},{"NoteNumber":74,"Velocity":31,"Duration":309597,"SoundDuration":309597,"Delta":138964866},{"NoteNumber":66,"Velocity":23,"Duration":309597,"SoundDuration":309597,"Delta":138964866},{"NoteNumber":76,"Velocity":41,"Duration":287356,"SoundDuration":287356,"Delta":139274464},{"NoteNumber":67,"Velocity":31,"Duration":287356,"SoundDuration":287356,"Delta":139274464},{"NoteNumber":72,"Velocity":27,"Duration":295857,"SoundDuration":295857,"Delta":139561820},{"NoteNumber":78,"Velocity":36,"Duration":295857,"SoundDuration":295857,"Delta":139561820},{"NoteNumber":60,"Velocity":23,"Duration":230437,"SoundDuration":230437,"Delta":139709749},{"NoteNumber":50,"Velocity":19,"Duration":230437,"SoundDuration":230437,"Delta":139709749},{"NoteNumber":67,"Velocity":24,"Duration":82508,"SoundDuration":82508,"Delta":139857678},{"NoteNumber":76,"Velocity":32,"Duration":165016,"SoundDuration":165016,"Delta":139857678},{"NoteNumber":66,"Velocity":33,"Duration":1101053,"SoundDuration":1101053,"Delta":140022695},{"NoteNumber":71,"Velocity":36,"Duration":1018545,"SoundDuration":1018545,"Delta":140105203},{"NoteNumber":74,"Velocity":38,"Duration":1918075,"SoundDuration":1918075,"Delta":140187711},{"NoteNumber":43,"Velocity":28,"Duration":468018,"SoundDuration":468018,"Delta":140187711},{"NoteNumber":60,"Velocity":24,"Duration":955162,"SoundDuration":955162,"Delta":140655730},{"NoteNumber":50,"Velocity":20,"Duration":955162,"SoundDuration":955162,"Delta":140655730},{"NoteNumber":69,"Velocity":33,"Duration":749840,"SoundDuration":749840,"Delta":141123748},{"NoteNumber":62,"Velocity":28,"Duration":749840,"SoundDuration":749840,"Delta":141123748},{"NoteNumber":60,"Velocity":23,"Duration":262697,"SoundDuration":262697,"Delta":141610892},{"NoteNumber":50,"Velocity":19,"Duration":262697,"SoundDuration":262697,"Delta":141610892},{"NoteNumber":76,"Velocity":38,"Duration":1044892,"SoundDuration":1044892,"Delta":141989688},{"NoteNumber":79,"Velocity":44,"Duration":928793,"SoundDuration":928793,"Delta":142105787},{"NoteNumber":55,"Velocity":28,"Duration":464396,"SoundDuration":464396,"Delta":142105787},{"NoteNumber":71,"Velocity":24,"Duration":928793,"SoundDuration":928793,"Delta":142570184},{"NoteNumber":62,"Velocity":20,"Duration":928793,"SoundDuration":928793,"Delta":142570184},{"NoteNumber":74,"Velocity":34,"Duration":957508,"SoundDuration":957508,"Delta":143034580},{"NoteNumber":67,"Velocity":28,"Duration":957508,"SoundDuration":957508,"Delta":143034580},{"NoteNumber":71,"Velocity":23,"Duration":262697,"SoundDuration":262697,"Delta":143498977},{"NoteNumber":62,"Velocity":19,"Duration":262697,"SoundDuration":262697,"Delta":143498977},{"NoteNumber":76,"Velocity":38,"Duration":1036866,"SoundDuration":1036866,"Delta":143876881},{"NoteNumber":79,"Velocity":44,"Duration":921659,"SoundDuration":921659,"Delta":143992088},{"NoteNumber":55,"Velocity":28,"Duration":460829,"SoundDuration":460829,"Delta":143992088},{"NoteNumber":71,"Velocity":24,"Duration":921659,"SoundDuration":921659,"Delta":144452918},{"NoteNumber":62,"Velocity":20,"Duration":921659,"SoundDuration":921659,"Delta":144452918},{"NoteNumber":74,"Velocity":34,"Duration":839311,"SoundDuration":839311,"Delta":144913747},{"NoteNumber":67,"Velocity":28,"Duration":839311,"SoundDuration":839311,"Delta":144913747},{"NoteNumber":71,"Velocity":23,"Duration":265017,"SoundDuration":265017,"Delta":145374577},{"NoteNumber":62,"Velocity":19,"Duration":265017,"SoundDuration":265017,"Delta":145374577},{"NoteNumber":76,"Velocity":34,"Duration":409322,"SoundDuration":409322,"Delta":145753059},{"NoteNumber":79,"Velocity":37,"Duration":295858,"SoundDuration":295858,"Delta":145866524},{"NoteNumber":55,"Velocity":28,"Duration":443786,"SoundDuration":443786,"Delta":145866524},{"NoteNumber":67,"Velocity":28,"Duration":221893,"SoundDuration":221893,"Delta":146162382},{"NoteNumber":74,"Velocity":33,"Duration":295857,"SoundDuration":295857,"Delta":146162382},{"NoteNumber":71,"Velocity":24,"Duration":893335,"SoundDuration":893335,"Delta":146310311},{"NoteNumber":62,"Velocity":20,"Duration":893335,"SoundDuration":893335,"Delta":146310311},{"NoteNumber":79,"Velocity":40,"Duration":304878,"SoundDuration":304878,"Delta":146458240},{"NoteNumber":76,"Velocity":28,"Duration":440528,"SoundDuration":440528,"Delta":146763118},{"NoteNumber":81,"Velocity":44,"Duration":293685,"SoundDuration":293685,"Delta":146763118},{"NoteNumber":83,"Velocity":39,"Duration":311859,"SoundDuration":311859,"Delta":147056803},{"NoteNumber":78,"Velocity":23,"Duration":493023,"SoundDuration":493023,"Delta":147203646},{"NoteNumber":72,"Velocity":23,"Duration":370274,"SoundDuration":370274,"Delta":147203646},{"NoteNumber":62,"Velocity":19,"Duration":370274,"SoundDuration":370274,"Delta":147203646},{"NoteNumber":81,"Velocity":38,"Duration":205257,"SoundDuration":205257,"Delta":147368663},{"NoteNumber":76,"Velocity":38,"Duration":1044408,"SoundDuration":1044408,"Delta":147573921},{"NoteNumber":79,"Velocity":44,"Duration":921659,"SoundDuration":921659,"Delta":147696670},{"NoteNumber":55,"Velocity":28,"Duration":460829,"SoundDuration":460829,"Delta":147696670},{"NoteNumber":71,"Velocity":24,"Duration":921659,"SoundDuration":921659,"Delta":148157500},{"NoteNumber":62,"Velocity":20,"Duration":921659,"SoundDuration":921659,"Delta":148157500},{"NoteNumber":74,"Velocity":34,"Duration":949904,"SoundDuration":949904,"Delta":148618329},{"NoteNumber":67,"Velocity":28,"Duration":949904,"SoundDuration":949904,"Delta":148618329},{"NoteNumber":71,"Velocity":23,"Duration":260416,"SoundDuration":260416,"Delta":149079159},{"NoteNumber":62,"Velocity":19,"Duration":260416,"SoundDuration":260416,"Delta":149079159},{"NoteNumber":81,"Velocity":36,"Duration":1150317,"SoundDuration":1150317,"Delta":149339575},{"NoteNumber":83,"Velocity":41,"Duration":1759514,"SoundDuration":1759514,"Delta":149453905},{"NoteNumber":86,"Velocity":52,"Duration":1645185,"SoundDuration":1645185,"Delta":149568234},{"NoteNumber":50,"Velocity":28,"Duration":460829,"SoundDuration":460829,"Delta":149568234},{"NoteNumber":59,"Velocity":17,"Duration":921659,"SoundDuration":921659,"Delta":150029063},{"NoteNumber":69,"Velocity":21,"Duration":921659,"SoundDuration":921659,"Delta":150029063},{"NoteNumber":62,"Velocity":17,"Duration":921659,"SoundDuration":921659,"Delta":150029063},{"NoteNumber":79,"Velocity":33,"Duration":723526,"SoundDuration":723526,"Delta":150489893},{"NoteNumber":74,"Velocity":28,"Duration":723526,"SoundDuration":723526,"Delta":150489893},{"NoteNumber":59,"Velocity":16,"Duration":262697,"SoundDuration":262697,"Delta":150950722},{"NoteNumber":67,"Velocity":20,"Duration":262697,"SoundDuration":262697,"Delta":150950722},{"NoteNumber":62,"Velocity":16,"Duration":262697,"SoundDuration":262697,"Delta":150950722},{"NoteNumber":82,"Velocity":36,"Duration":1205800,"SoundDuration":1205800,"Delta":151213419},{"NoteNumber":86,"Velocity":41,"Duration":1085992,"SoundDuration":1085992,"Delta":151333228},{"NoteNumber":88,"Velocity":52,"Duration":1755460,"SoundDuration":1755460,"Delta":151453036},{"NoteNumber":50,"Velocity":28,"Duration":483091,"SoundDuration":483091,"Delta":151453036},{"NoteNumber":58,"Velocity":17,"Duration":966183,"SoundDuration":966183,"Delta":151936128},{"NoteNumber":69,"Velocity":21,"Duration":966183,"SoundDuration":966183,"Delta":151936128},{"NoteNumber":64,"Velocity":17,"Duration":966183,"SoundDuration":966183,"Delta":151936128},{"NoteNumber":85,"Velocity":33,"Duration":789276,"SoundDuration":789276,"Delta":152419220},{"NoteNumber":76,"Velocity":28,"Duration":789276,"SoundDuration":789276,"Delta":152419220},{"NoteNumber":58,"Velocity":16,"Duration":306184,"SoundDuration":306184,"Delta":152902312},{"NoteNumber":67,"Velocity":20,"Duration":306184,"SoundDuration":306184,"Delta":152902312},{"NoteNumber":64,"Velocity":16,"Duration":306184,"SoundDuration":306184,"Delta":152902312},{"NoteNumber":84,"Velocity":32,"Duration":1387840,"SoundDuration":1387840,"Delta":153208497},{"NoteNumber":88,"Velocity":37,"Duration":1262001,"SoundDuration":1262001,"Delta":153334336},{"NoteNumber":90,"Velocity":46,"Duration":2035622,"SoundDuration":2035622,"Delta":153460175},{"NoteNumber":50,"Velocity":25,"Duration":560852,"SoundDuration":560852,"Delta":153460175},{"NoteNumber":60,"Velocity":15,"Duration":1163660,"SoundDuration":1163660,"Delta":154021027},{"NoteNumber":71,"Velocity":18,"Duration":1163660,"SoundDuration":1163660,"Delta":154021027},{"NoteNumber":66,"Velocity":15,"Duration":1163660,"SoundDuration":1163660,"Delta":154021027},{"NoteNumber":86,"Velocity":29,"Duration":899459,"SoundDuration":899459,"Delta":154596338},{"NoteNumber":78,"Velocity":25,"Duration":899459,"SoundDuration":899459,"Delta":154596338},{"NoteNumber":60,"Velocity":14,"Duration":311108,"SoundDuration":311108,"Delta":155184688},{"NoteNumber":69,"Velocity":18,"Duration":311108,"SoundDuration":311108,"Delta":155184688},{"NoteNumber":66,"Velocity":14,"Duration":311108,"SoundDuration":311108,"Delta":155184688},{"NoteNumber":83,"Velocity":32,"Duration":1742517,"SoundDuration":1742517,"Delta":155495797},{"NoteNumber":86,"Velocity":35,"Duration":1557286,"SoundDuration":1557286,"Delta":155681028},{"NoteNumber":91,"Velocity":38,"Duration":2720673,"SoundDuration":2720673,"Delta":155866259},{"NoteNumber":43,"Velocity":15,"Duration":612369,"SoundDuration":612369,"Delta":155866259},{"NoteNumber":50,"Velocity":18,"Duration":612369,"SoundDuration":612369,"Delta":155866259},{"NoteNumber":59,"Velocity":13,"Duration":1939726,"SoundDuration":1939726,"Delta":156478629},{"NoteNumber":67,"Velocity":16,"Duration":1939726,"SoundDuration":1939726,"Delta":156478629},{"NoteNumber":62,"Velocity":13,"Duration":1939726,"SoundDuration":1939726,"Delta":156478629},{"NoteNumber":79,"Velocity":26,"Duration":1180040,"SoundDuration":1180040,"Delta":157238315}],"license":{"name":"Creative Commons Attribution-ShareAlike 3.0 Germany","url":"http://creativecommons.org/licenses/by-sa/3.0/de/deed.en","text":"The MIDI, audio (MP3, OGG) and video files of Bernd Krueger are licensed under the cc-by-sa Germany License. This means that you can use and adapt the files, as long as you attribute the copyright holder.\n\nName: Bernd Krueger\nSource: http://www.piano-midi.de\n\nThe distribution or public playback of the files is only allowed under identical license conditions.\n\nThe scores are open source.","attribution":"MIDI files by Bernd Krueger (piano-midi.de)","attributionUrl":"http://www.piano-midi.de"}}