{"title":"Lyrische St\u00fccke Op. 43 No. 1 - Schmetterling","artist":"Grieg","durationMs":96874,"midiSha256":"15a0e4f66fda2a15d70f42baaab83c0308d0bbe9a6bbbad0306f17bd1a9e4bdc","midiObject":[{"NoteNumber":78,"Velocity":54,"Duration":372732,"SoundDuration":372732,"Delta":0},{"NoteNumber":50,"Velocity":36,"Duration":124244,"SoundDuration":124244,"Delta":124244},{"NoteNumber":56,"Velocity":36,"Duration":124244,"SoundDuration":124244,"Delta":248488},{"NoteNumber":68,"Velocity":48,"Duration":123093,"SoundDuration":123093,"Delta":372732},{"NoteNumber":59,"Velocity":36,"Duration":123093,"SoundDuration":123093,"Delta":372732},{"NoteNumber":69,"Velocity":51,"Duration":116958,"SoundDuration":116958,"Delta":495826},{"NoteNumber":66,"Velocity":45,"Duration":116958,"SoundDuration":116958,"Delta":495826},{"NoteNumber":70,"Velocity":52,"Duration":116485,"SoundDuration":116485,"Delta":612784},{"NoteNumber":71,"Velocity":53,"Duration":116071,"SoundDuration":116071,"Delta":729270},{"NoteNumber":72,"Velocity":55,"Duration":115643,"SoundDuration":115643,"Delta":845342},{"NoteNumber":73,"Velocity":56,"Duration":115180,"SoundDuration":115180,"Delta":960985},{"NoteNumber":74,"Velocity":57,"Duration":114791,"SoundDuration":114791,"Delta":1076166},{"NoteNumber":75,"Velocity":58,"Duration":114339,"SoundDuration":114339,"Delta":1190957},{"NoteNumber":76,"Velocity":59,"Duration":113956,"SoundDuration":113956,"Delta":1305297},{"NoteNumber":81,"Velocity":69,"Duration":113956,"SoundDuration":113956,"Delta":1419253},{"NoteNumber":76,"Velocity":60,"Duration":114547,"SoundDuration":114547,"Delta":1533209},{"NoteNumber":49,"Velocity":40,"Duration":114547,"SoundDuration":114547,"Delta":1533209},{"NoteNumber":73,"Velocity":62,"Duration":115144,"SoundDuration":115144,"Delta":1647756},{"NoteNumber":57,"Velocity":44,"Duration":115144,"SoundDuration":115144,"Delta":1647756},{"NoteNumber":69,"Velocity":60,"Duration":126336,"SoundDuration":126336,"Delta":1762900},{"NoteNumber":64,"Velocity":40,"Duration":126336,"SoundDuration":126336,"Delta":1762900},{"NoteNumber":67,"Velocity":68,"Duration":344261,"SoundDuration":344261,"Delta":1889237},{"NoteNumber":46,"Velocity":40,"Duration":113869,"SoundDuration":113869,"Delta":2005760},{"NoteNumber":52,"Velocity":43,"Duration":113869,"SoundDuration":113869,"Delta":2119630},{"NoteNumber":76,"Velocity":49,"Duration":119303,"SoundDuration":119303,"Delta":2233499},{"NoteNumber":61,"Velocity":40,"Duration":119303,"SoundDuration":119303,"Delta":2233499},{"NoteNumber":68,"Velocity":69,"Duration":345326,"SoundDuration":345326,"Delta":2352802},{"NoteNumber":47,"Velocity":40,"Duration":113011,"SoundDuration":113011,"Delta":2472105},{"NoteNumber":52,"Velocity":43,"Duration":113011,"SoundDuration":113011,"Delta":2585117},{"NoteNumber":76,"Velocity":49,"Duration":118830,"SoundDuration":118830,"Delta":2698128},{"NoteNumber":62,"Velocity":40,"Duration":118830,"SoundDuration":118830,"Delta":2698128},{"NoteNumber":67,"Velocity":70,"Duration":344005,"SoundDuration":344005,"Delta":2816959},{"NoteNumber":46,"Velocity":38,"Duration":112587,"SoundDuration":112587,"Delta":2935790},{"NoteNumber":52,"Velocity":46,"Duration":112587,"SoundDuration":112587,"Delta":3048377},{"NoteNumber":76,"Velocity":47,"Duration":119779,"SoundDuration":119779,"Delta":3160964},{"NoteNumber":61,"Velocity":38,"Duration":119779,"SoundDuration":119779,"Delta":3160964},{"NoteNumber":68,"Velocity":69,"Duration":344954,"SoundDuration":344954,"Delta":3280744},{"NoteNumber":47,"Velocity":38,"Duration":112587,"SoundDuration":112587,"Delta":3400523},{"NoteNumber":52,"Velocity":44,"Duration":112587,"SoundDuration":112587,"Delta":3513111},{"NoteNumber":77,"Velocity":49,"Duration":135464,"SoundDuration":135464,"Delta":3625698},{"NoteNumber":62,"Velocity":38,"Duration":135464,"SoundDuration":135464,"Delta":3625698},{"NoteNumber":78,"Velocity":67,"Duration":372732,"SoundDuration":372732,"Delta":3761163},{"NoteNumber":50,"Velocity":36,"Duration":124244,"SoundDuration":124244,"Delta":3885407},{"NoteNumber":56,"Velocity":36,"Duration":124244,"SoundDuration":124244,"Delta":4009651},{"NoteNumber":68,"Velocity":54,"Duration":123093,"SoundDuration":123093,"Delta":4133895},{"NoteNumber":59,"Velocity":36,"Duration":123093,"SoundDuration":123093,"Delta":4133895},{"NoteNumber":69,"Velocity":53,"Duration":116958,"SoundDuration":116958,"Delta":4256989},{"NoteNumber":66,"Velocity":45,"Duration":116958,"SoundDuration":116958,"Delta":4256989},{"NoteNumber":70,"Velocity":54,"Duration":116485,"SoundDuration":116485,"Delta":4373947},{"NoteNumber":71,"Velocity":55,"Duration":116071,"SoundDuration":116071,"Delta":4490433},{"NoteNumber":72,"Velocity":57,"Duration":115643,"SoundDuration":115643,"Delta":4606505},{"NoteNumber":73,"Velocity":58,"Duration":115180,"SoundDuration":115180,"Delta":4722148},{"NoteNumber":74,"Velocity":60,"Duration":114791,"SoundDuration":114791,"Delta":4837329},{"NoteNumber":75,"Velocity":61,"Duration":114339,"SoundDuration":114339,"Delta":4952121},{"NoteNumber":76,"Velocity":63,"Duration":113956,"SoundDuration":113956,"Delta":5066460},{"NoteNumber":81,"Velocity":69,"Duration":113956,"SoundDuration":113956,"Delta":5180416},{"NoteNumber":76,"Velocity":60,"Duration":114547,"SoundDuration":114547,"Delta":5294372},{"NoteNumber":49,"Velocity":40,"Duration":114547,"SoundDuration":114547,"Delta":5294372},{"NoteNumber":73,"Velocity":62,"Duration":115144,"SoundDuration":115144,"Delta":5408920},{"NoteNumber":57,"Velocity":44,"Duration":115144,"SoundDuration":115144,"Delta":5408920},{"NoteNumber":69,"Velocity":60,"Duration":137324,"SoundDuration":137324,"Delta":5524064},{"NoteNumber":64,"Velocity":40,"Duration":137324,"SoundDuration":137324,"Delta":5524064},{"NoteNumber":85,"Velocity":76,"Duration":372732,"SoundDuration":372732,"Delta":5661389},{"NoteNumber":57,"Velocity":39,"Duration":124244,"SoundDuration":124244,"Delta":5785633},{"NoteNumber":63,"Velocity":39,"Duration":124244,"SoundDuration":124244,"Delta":5909877},{"NoteNumber":75,"Velocity":60,"Duration":123093,"SoundDuration":123093,"Delta":6034121},{"NoteNumber":66,"Velocity":40,"Duration":123093,"SoundDuration":123093,"Delta":6034121},{"NoteNumber":76,"Velocity":59,"Duration":116958,"SoundDuration":116958,"Delta":6157215},{"NoteNumber":73,"Velocity":50,"Duration":116958,"SoundDuration":116958,"Delta":6157215},{"NoteNumber":77,"Velocity":61,"Duration":116485,"SoundDuration":116485,"Delta":6274173},{"NoteNumber":78,"Velocity":63,"Duration":116071,"SoundDuration":116071,"Delta":6390659},{"NoteNumber":79,"Velocity":66,"Duration":115643,"SoundDuration":115643,"Delta":6506731},{"NoteNumber":80,"Velocity":67,"Duration":115180,"SoundDuration":115180,"Delta":6622374},{"NoteNumber":81,"Velocity":70,"Duration":114791,"SoundDuration":114791,"Delta":6737555},{"NoteNumber":82,"Velocity":72,"Duration":114339,"SoundDuration":114339,"Delta":6852347},{"NoteNumber":83,"Velocity":75,"Duration":113956,"SoundDuration":113956,"Delta":6966686},{"NoteNumber":88,"Velocity":83,"Duration":113956,"SoundDuration":113956,"Delta":7080642},{"NoteNumber":83,"Velocity":73,"Duration":114547,"SoundDuration":114547,"Delta":7194598},{"NoteNumber":56,"Velocity":48,"Duration":114547,"SoundDuration":114547,"Delta":7194598},{"NoteNumber":80,"Velocity":76,"Duration":115144,"SoundDuration":115144,"Delta":7309146},{"NoteNumber":64,"Velocity":54,"Duration":115144,"SoundDuration":115144,"Delta":7309146},{"NoteNumber":76,"Velocity":74,"Duration":126337,"SoundDuration":126337,"Delta":7424290},{"NoteNumber":71,"Velocity":49,"Duration":124231,"SoundDuration":124231,"Delta":7424290},{"NoteNumber":71,"Velocity":78,"Duration":344261,"SoundDuration":344261,"Delta":7550627},{"NoteNumber":47,"Velocity":45,"Duration":113869,"SoundDuration":113869,"Delta":7667150},{"NoteNumber":56,"Velocity":48,"Duration":113869,"SoundDuration":113869,"Delta":7781019},{"NoteNumber":80,"Velocity":55,"Duration":119303,"SoundDuration":119303,"Delta":7894888},{"NoteNumber":64,"Velocity":44,"Duration":119303,"SoundDuration":119303,"Delta":7894888},{"NoteNumber":68,"Velocity":77,"Duration":345326,"SoundDuration":345326,"Delta":8014191},{"NoteNumber":76,"Velocity":50,"Duration":122719,"SoundDuration":122719,"Delta":8359518},{"NoteNumber":64,"Velocity":68,"Duration":356673,"SoundDuration":356673,"Delta":8482237},{"NoteNumber":47,"Velocity":36,"Duration":116977,"SoundDuration":116977,"Delta":8604957},{"NoteNumber":55,"Velocity":42,"Duration":116977,"SoundDuration":116977,"Delta":8721934},{"NoteNumber":73,"Velocity":43,"Duration":125282,"SoundDuration":125282,"Delta":8838911},{"NoteNumber":64,"Velocity":34,"Duration":125282,"SoundDuration":125282,"Delta":8838911},{"NoteNumber":61,"Velocity":61,"Duration":365801,"SoundDuration":365801,"Delta":8964193},{"NoteNumber":70,"Velocity":39,"Duration":135464,"SoundDuration":135464,"Delta":9329995},{"NoteNumber":60,"Velocity":53,"Duration":390000,"SoundDuration":390000,"Delta":9465459},{"NoteNumber":47,"Velocity":31,"Duration":129054,"SoundDuration":129054,"Delta":9597351},{"NoteNumber":54,"Velocity":32,"Duration":129054,"SoundDuration":129054,"Delta":9726405},{"NoteNumber":69,"Velocity":36,"Duration":144606,"SoundDuration":144606,"Delta":9855460},{"NoteNumber":63,"Velocity":29,"Duration":144606,"SoundDuration":144606,"Delta":9855460},{"NoteNumber":57,"Velocity":50,"Duration":418004,"SoundDuration":418004,"Delta":10000066},{"NoteNumber":66,"Velocity":32,"Duration":153484,"SoundDuration":153484,"Delta":10418071},{"NoteNumber":56,"Velocity":47,"Duration":441308,"SoundDuration":441308,"Delta":10571555},{"NoteNumber":40,"Velocity":24,"Duration":143912,"SoundDuration":143912,"Delta":10725039},{"NoteNumber":47,"Velocity":30,"Duration":143912,"SoundDuration":143912,"Delta":10868951},{"NoteNumber":64,"Velocity":37,"Duration":166241,"SoundDuration":166241,"Delta":11012864},{"NoteNumber":28,"Velocity":38,"Duration":166241,"SoundDuration":166241,"Delta":11179105},{"NoteNumber":78,"Velocity":53,"Duration":372732,"SoundDuration":372732,"Delta":11844072},{"NoteNumber":50,"Velocity":36,"Duration":124244,"SoundDuration":124244,"Delta":11968317},{"NoteNumber":56,"Velocity":36,"Duration":124244,"SoundDuration":124244,"Delta":12092561},{"NoteNumber":68,"Velocity":48,"Duration":123093,"SoundDuration":123093,"Delta":12216805},{"NoteNumber":59,"Velocity":36,"Duration":123093,"SoundDuration":123093,"Delta":12216805},{"NoteNumber":69,"Velocity":52,"Duration":116958,"SoundDuration":116958,"Delta":12339899},{"NoteNumber":66,"Velocity":45,"Duration":116958,"SoundDuration":116958,"Delta":12339899},{"NoteNumber":70,"Velocity":53,"Duration":116485,"SoundDuration":116485,"Delta":12456857},{"NoteNumber":71,"Velocity":54,"Duration":116071,"SoundDuration":116071,"Delta":12573343},{"NoteNumber":72,"Velocity":55,"Duration":115643,"SoundDuration":115643,"Delta":12689415},{"NoteNumber":73,"Velocity":56,"Duration":115180,"SoundDuration":115180,"Delta":12805058},{"NoteNumber":74,"Velocity":58,"Duration":114791,"SoundDuration":114791,"Delta":12920239},{"NoteNumber":75,"Velocity":59,"Duration":114339,"SoundDuration":114339,"Delta":13035030},{"NoteNumber":76,"Velocity":60,"Duration":113956,"SoundDuration":113956,"Delta":13149370},{"NoteNumber":81,"Velocity":69,"Duration":113956,"SoundDuration":113956,"Delta":13263326},{"NoteNumber":76,"Velocity":60,"Duration":114547,"SoundDuration":114547,"Delta":13377282},{"NoteNumber":49,"Velocity":40,"Duration":114547,"SoundDuration":114547,"Delta":13377282},{"NoteNumber":73,"Velocity":62,"Duration":115144,"SoundDuration":115144,"Delta":13491829},{"NoteNumber":57,"Velocity":44,"Duration":115144,"SoundDuration":115144,"Delta":13491829},{"NoteNumber":69,"Velocity":60,"Duration":126336,"SoundDuration":126336,"Delta":13606973},{"NoteNumber":64,"Velocity":40,"Duration":126336,"SoundDuration":126336,"Delta":13606973},{"NoteNumber":67,"Velocity":68,"Duration":344261,"SoundDuration":344261,"Delta":13733310},{"NoteNumber":46,"Velocity":40,"Duration":113869,"SoundDuration":113869,"Delta":13849833},{"NoteNumber":52,"Velocity":43,"Duration":113869,"SoundDuration":113869,"Delta":13963703},{"NoteNumber":76,"Velocity":49,"Duration":119303,"SoundDuration":119303,"Delta":14077572},{"NoteNumber":61,"Velocity":40,"Duration":119303,"SoundDuration":119303,"Delta":14077572},{"NoteNumber":68,"Velocity":69,"Duration":345326,"SoundDuration":345326,"Delta":14196875},{"NoteNumber":47,"Velocity":40,"Duration":113011,"SoundDuration":113011,"Delta":14316178},{"NoteNumber":52,"Velocity":43,"Duration":113011,"SoundDuration":113011,"Delta":14429190},{"NoteNumber":76,"Velocity":50,"Duration":118830,"SoundDuration":118830,"Delta":14542201},{"NoteNumber":62,"Velocity":40,"Duration":118830,"SoundDuration":118830,"Delta":14542201},{"NoteNumber":67,"Velocity":70,"Duration":344005,"SoundDuration":344005,"Delta":14661032},{"NoteNumber":46,"Velocity":38,"Duration":112587,"SoundDuration":112587,"Delta":14779863},{"NoteNumber":52,"Velocity":46,"Duration":112587,"SoundDuration":112587,"Delta":14892450},{"NoteNumber":76,"Velocity":49,"Duration":119779,"SoundDuration":119779,"Delta":15005037},{"NoteNumber":61,"Velocity":38,"Duration":119779,"SoundDuration":119779,"Delta":15005037},{"NoteNumber":68,"Velocity":69,"Duration":344953,"SoundDuration":344953,"Delta":15124817},{"NoteNumber":47,"Velocity":38,"Duration":112587,"SoundDuration":112587,"Delta":15244596},{"NoteNumber":52,"Velocity":44,"Duration":112587,"SoundDuration":112587,"Delta":15357184},{"NoteNumber":77,"Velocity":45,"Duration":135464,"SoundDuration":135464,"Delta":15469771},{"NoteNumber":62,"Velocity":38,"Duration":135464,"SoundDuration":135464,"Delta":15469771},{"NoteNumber":78,"Velocity":67,"Duration":372732,"SoundDuration":372732,"Delta":15605236},{"NoteNumber":50,"Velocity":36,"Duration":124244,"SoundDuration":124244,"Delta":15729480},{"NoteNumber":56,"Velocity":36,"Duration":124244,"SoundDuration":124244,"Delta":15853724},{"NoteNumber":68,"Velocity":54,"Duration":123093,"SoundDuration":123093,"Delta":15977968},{"NoteNumber":59,"Velocity":36,"Duration":123093,"SoundDuration":123093,"Delta":15977968},{"NoteNumber":69,"Velocity":53,"Duration":116958,"SoundDuration":116958,"Delta":16101062},{"NoteNumber":66,"Velocity":45,"Duration":116958,"SoundDuration":116958,"Delta":16101062},{"NoteNumber":70,"Velocity":54,"Duration":116485,"SoundDuration":116485,"Delta":16218020},{"NoteNumber":71,"Velocity":55,"Duration":116071,"SoundDuration":116071,"Delta":16334506},{"NoteNumber":72,"Velocity":57,"Duration":115643,"SoundDuration":115643,"Delta":16450578},{"NoteNumber":73,"Velocity":58,"Duration":115180,"SoundDuration":115180,"Delta":16566221},{"NoteNumber":74,"Velocity":60,"Duration":114791,"SoundDuration":114791,"Delta":16681402},{"NoteNumber":75,"Velocity":61,"Duration":114339,"SoundDuration":114339,"Delta":16796193},{"NoteNumber":76,"Velocity":63,"Duration":113956,"SoundDuration":113956,"Delta":16910533},{"NoteNumber":81,"Velocity":69,"Duration":113956,"SoundDuration":113956,"Delta":17024489},{"NoteNumber":76,"Velocity":60,"Duration":114547,"SoundDuration":114547,"Delta":17138445},{"NoteNumber":49,"Velocity":40,"Duration":114547,"SoundDuration":114547,"Delta":17138445},{"NoteNumber":73,"Velocity":62,"Duration":115144,"SoundDuration":115144,"Delta":17252992},{"NoteNumber":57,"Velocity":44,"Duration":115144,"SoundDuration":115144,"Delta":17252992},{"NoteNumber":69,"Velocity":60,"Duration":137325,"SoundDuration":137325,"Delta":17368137},{"NoteNumber":64,"Velocity":40,"Duration":137325,"SoundDuration":137325,"Delta":17368137},{"NoteNumber":85,"Velocity":76,"Duration":372732,"SoundDuration":372732,"Delta":17505462},{"NoteNumber":57,"Velocity":39,"Duration":124244,"SoundDuration":124244,"Delta":17629706},{"NoteNumber":63,"Velocity":39,"Duration":124244,"SoundDuration":124244,"Delta":17753950},{"NoteNumber":75,"Velocity":60,"Duration":123093,"SoundDuration":123093,"Delta":17878194},{"NoteNumber":66,"Velocity":40,"Duration":123093,"SoundDuration":123093,"Delta":17878194},{"NoteNumber":76,"Velocity":59,"Duration":116958,"SoundDuration":116958,"Delta":18001288},{"NoteNumber":73,"Velocity":50,"Duration":116958,"SoundDuration":116958,"Delta":18001288},{"NoteNumber":77,"Velocity":61,"Duration":116485,"SoundDuration":116485,"Delta":18118246},{"NoteNumber":78,"Velocity":63,"Duration":116071,"SoundDuration":116071,"Delta":18234732},{"NoteNumber":79,"Velocity":66,"Duration":115643,"SoundDuration":115643,"Delta":18350804},{"NoteNumber":80,"Velocity":67,"Duration":115180,"SoundDuration":115180,"Delta":18466447},{"NoteNumber":81,"Velocity":70,"Duration":114791,"SoundDuration":114791,"Delta":18581628},{"NoteNumber":82,"Velocity":72,"Duration":114339,"SoundDuration":114339,"Delta":18696419},{"NoteNumber":83,"Velocity":75,"Duration":113956,"SoundDuration":113956,"Delta":18810759},{"NoteNumber":88,"Velocity":83,"Duration":113956,"SoundDuration":113956,"Delta":18924715},{"NoteNumber":83,"Velocity":73,"Duration":114547,"SoundDuration":114547,"Delta":19038671},{"NoteNumber":56,"Velocity":48,"Duration":114547,"SoundDuration":114547,"Delta":19038671},{"NoteNumber":80,"Velocity":76,"Duration":115144,"SoundDuration":115144,"Delta":19153218},{"NoteNumber":64,"Velocity":54,"Duration":115144,"SoundDuration":115144,"Delta":19153218},{"NoteNumber":76,"Velocity":74,"Duration":126336,"SoundDuration":126336,"Delta":19268362},{"NoteNumber":71,"Velocity":49,"Duration":124231,"SoundDuration":124231,"Delta":19268362},{"NoteNumber":71,"Velocity":78,"Duration":344261,"SoundDuration":344261,"Delta":19394699},{"NoteNumber":47,"Velocity":45,"Duration":113869,"SoundDuration":113869,"Delta":19511222},{"NoteNumber":56,"Velocity":48,"Duration":113869,"SoundDuration":113869,"Delta":19625092},{"NoteNumber":80,"Velocity":55,"Duration":119303,"SoundDuration":119303,"Delta":19738961},{"NoteNumber":64,"Velocity":44,"Duration":119303,"SoundDuration":119303,"Delta":19738961},{"NoteNumber":68,"Velocity":77,"Duration":345326,"SoundDuration":345326,"Delta":19858264},{"NoteNumber":76,"Velocity":49,"Duration":122719,"SoundDuration":122719,"Delta":20203590},{"NoteNumber":64,"Velocity":68,"Duration":356674,"SoundDuration":356674,"Delta":20326310},{"NoteNumber":47,"Velocity":35,"Duration":116977,"SoundDuration":116977,"Delta":20449029},{"NoteNumber":55,"Velocity":42,"Duration":116977,"SoundDuration":116977,"Delta":20566007},{"NoteNumber":73,"Velocity":42,"Duration":125281,"SoundDuration":125281,"Delta":20682984},{"NoteNumber":64,"Velocity":34,"Duration":125281,"SoundDuration":125281,"Delta":20682984},{"NoteNumber":61,"Velocity":60,"Duration":365801,"SoundDuration":365801,"Delta":20808266},{"NoteNumber":70,"Velocity":37,"Duration":135464,"SoundDuration":135464,"Delta":21174067},{"NoteNumber":60,"Velocity":53,"Duration":390000,"SoundDuration":390000,"Delta":21309532},{"NoteNumber":47,"Velocity":30,"Duration":129054,"SoundDuration":129054,"Delta":21441423},{"NoteNumber":54,"Velocity":32,"Duration":129054,"SoundDuration":129054,"Delta":21570478},{"NoteNumber":69,"Velocity":34,"Duration":144606,"SoundDuration":144606,"Delta":21699532},{"NoteNumber":63,"Velocity":29,"Duration":144606,"SoundDuration":144606,"Delta":21699532},{"NoteNumber":57,"Velocity":49,"Duration":418004,"SoundDuration":418004,"Delta":21844139},{"NoteNumber":66,"Velocity":30,"Duration":153483,"SoundDuration":153483,"Delta":22262143},{"NoteNumber":56,"Velocity":46,"Duration":441309,"SoundDuration":441309,"Delta":22415627},{"NoteNumber":40,"Velocity":24,"Duration":144311,"SoundDuration":144311,"Delta":22562716},{"NoteNumber":47,"Velocity":29,"Duration":143912,"SoundDuration":143912,"Delta":22713024},{"NoteNumber":64,"Velocity":36,"Duration":228206,"SoundDuration":228206,"Delta":22856937},{"NoteNumber":28,"Velocity":37,"Duration":228206,"SoundDuration":228206,"Delta":23085143},{"NoteNumber":67,"Velocity":60,"Duration":393941,"SoundDuration":393941,"Delta":23997968},{"NoteNumber":47,"Velocity":36,"Duration":131313,"SoundDuration":131313,"Delta":24129282},{"NoteNumber":55,"Velocity":36,"Duration":131313,"SoundDuration":131313,"Delta":24260596},{"NoteNumber":71,"Velocity":54,"Duration":131313,"SoundDuration":131313,"Delta":24391910},{"NoteNumber":62,"Velocity":36,"Duration":131313,"SoundDuration":131313,"Delta":24391910},{"NoteNumber":74,"Velocity":58,"Duration":123033,"SoundDuration":123033,"Delta":24523224},{"NoteNumber":79,"Velocity":54,"Duration":119174,"SoundDuration":119174,"Delta":24646257},{"NoteNumber":73,"Velocity":60,"Duration":117955,"SoundDuration":117955,"Delta":24765431},{"NoteNumber":74,"Velocity":57,"Duration":116818,"SoundDuration":116818,"Delta":24883386},{"NoteNumber":79,"Velocity":57,"Duration":116818,"SoundDuration":116818,"Delta":24883386},{"NoteNumber":71,"Velocity":63,"Duration":115681,"SoundDuration":115681,"Delta":25000205},{"NoteNumber":74,"Velocity":60,"Duration":114620,"SoundDuration":114620,"Delta":25115887},{"NoteNumber":79,"Velocity":60,"Duration":114620,"SoundDuration":114620,"Delta":25115887},{"NoteNumber":69,"Velocity":65,"Duration":113493,"SoundDuration":113493,"Delta":25230508},{"NoteNumber":71,"Velocity":63,"Duration":112370,"SoundDuration":112370,"Delta":25344001},{"NoteNumber":74,"Velocity":63,"Duration":112370,"SoundDuration":112370,"Delta":25344001},{"NoteNumber":67,"Velocity":69,"Duration":111999,"SoundDuration":111999,"Delta":25456372},{"NoteNumber":71,"Velocity":60,"Duration":112771,"SoundDuration":112771,"Delta":25568371},{"NoteNumber":74,"Velocity":60,"Duration":112771,"SoundDuration":112771,"Delta":25568371},{"NoteNumber":66,"Velocity":69,"Duration":113525,"SoundDuration":113525,"Delta":25681142},{"NoteNumber":71,"Velocity":60,"Duration":126336,"SoundDuration":126336,"Delta":25794668},{"NoteNumber":74,"Velocity":60,"Duration":126336,"SoundDuration":126336,"Delta":25794668},{"NoteNumber":65,"Velocity":73,"Duration":353789,"SoundDuration":353789,"Delta":25921005},{"NoteNumber":49,"Velocity":40,"Duration":116523,"SoundDuration":116523,"Delta":26041748},{"NoteNumber":59,"Velocity":43,"Duration":116523,"SoundDuration":116523,"Delta":26158271},{"NoteNumber":68,"Velocity":45,"Duration":122219,"SoundDuration":122219,"Delta":26274794},{"NoteNumber":73,"Velocity":54,"Duration":122219,"SoundDuration":122219,"Delta":26274794},{"NoteNumber":66,"Velocity":69,"Duration":354363,"SoundDuration":354363,"Delta":26397014},{"NoteNumber":49,"Velocity":40,"Duration":116071,"SoundDuration":116071,"Delta":26519233},{"NoteNumber":61,"Velocity":43,"Duration":116072,"SoundDuration":116072,"Delta":26635305},{"NoteNumber":69,"Velocity":45,"Duration":121231,"SoundDuration":121231,"Delta":26751377},{"NoteNumber":73,"Velocity":53,"Duration":121231,"SoundDuration":121231,"Delta":26751377},{"NoteNumber":63,"Velocity":70,"Duration":353375,"SoundDuration":353375,"Delta":26872609},{"NoteNumber":49,"Velocity":38,"Duration":116071,"SoundDuration":116071,"Delta":26993841},{"NoteNumber":57,"Velocity":46,"Duration":116072,"SoundDuration":116072,"Delta":27109913},{"NoteNumber":66,"Velocity":42,"Duration":121723,"SoundDuration":121723,"Delta":27225985},{"NoteNumber":73,"Velocity":50,"Duration":121723,"SoundDuration":121723,"Delta":27225985},{"NoteNumber":65,"Velocity":69,"Duration":352972,"SoundDuration":352972,"Delta":27347708},{"NoteNumber":49,"Velocity":38,"Duration":115624,"SoundDuration":115624,"Delta":27469432},{"NoteNumber":59,"Velocity":44,"Duration":115624,"SoundDuration":115624,"Delta":27585057},{"NoteNumber":68,"Velocity":41,"Duration":135464,"SoundDuration":135464,"Delta":27700681},{"NoteNumber":73,"Velocity":49,"Duration":135464,"SoundDuration":135464,"Delta":27700681},{"NoteNumber":61,"Velocity":66,"Duration":358447,"SoundDuration":358447,"Delta":27836146},{"NoteNumber":42,"Velocity":40,"Duration":118361,"SoundDuration":118361,"Delta":27957870},{"NoteNumber":49,"Velocity":43,"Duration":118361,"SoundDuration":118361,"Delta":28076231},{"NoteNumber":66,"Velocity":26,"Duration":123223,"SoundDuration":123223,"Delta":28194593},{"NoteNumber":69,"Velocity":26,"Duration":123223,"SoundDuration":123223,"Delta":28194593},{"NoteNumber":73,"Velocity":42,"Duration":123223,"SoundDuration":123223,"Delta":28194593},{"NoteNumber":57,"Velocity":43,"Duration":123223,"SoundDuration":123223,"Delta":28194593},{"NoteNumber":62,"Velocity":61,"Duration":123223,"SoundDuration":123223,"Delta":28317817},{"NoteNumber":66,"Velocity":26,"Duration":128501,"SoundDuration":128501,"Delta":28441040},{"NoteNumber":69,"Velocity":26,"Duration":128501,"SoundDuration":128501,"Delta":28441040},{"NoteNumber":73,"Velocity":42,"Duration":128501,"SoundDuration":128501,"Delta":28441040},{"NoteNumber":64,"Velocity":62,"Duration":128501,"SoundDuration":128501,"Delta":28569542},{"NoteNumber":66,"Velocity":27,"Duration":126871,"SoundDuration":126871,"Delta":28698044},{"NoteNumber":69,"Velocity":27,"Duration":126871,"SoundDuration":126871,"Delta":28698044},{"NoteNumber":73,"Velocity":43,"Duration":126871,"SoundDuration":126871,"Delta":28698044},{"NoteNumber":61,"Velocity":63,"Duration":370318,"SoundDuration":370318,"Delta":28824915},{"NoteNumber":42,"Velocity":38,"Duration":121723,"SoundDuration":121723,"Delta":28951786},{"NoteNumber":49,"Velocity":46,"Duration":121723,"SoundDuration":121723,"Delta":29073510},{"NoteNumber":69,"Velocity":23,"Duration":124760,"SoundDuration":124760,"Delta":29195233},{"NoteNumber":65,"Velocity":23,"Duration":124760,"SoundDuration":124760,"Delta":29195233},{"NoteNumber":73,"Velocity":38,"Duration":124760,"SoundDuration":124760,"Delta":29195233},{"NoteNumber":59,"Velocity":46,"Duration":124760,"SoundDuration":124760,"Delta":29195233},{"NoteNumber":61,"Velocity":62,"Duration":371207,"SoundDuration":371207,"Delta":29319994},{"NoteNumber":42,"Velocity":38,"Duration":123223,"SoundDuration":123223,"Delta":29444755},{"NoteNumber":49,"Velocity":44,"Duration":123223,"SoundDuration":123223,"Delta":29567978},{"NoteNumber":65,"Velocity":26,"Duration":135464,"SoundDuration":135464,"Delta":29691202},{"NoteNumber":69,"Velocity":26,"Duration":135464,"SoundDuration":135464,"Delta":29691202},{"NoteNumber":73,"Velocity":42,"Duration":135464,"SoundDuration":135464,"Delta":29691202},{"NoteNumber":59,"Velocity":44,"Duration":135464,"SoundDuration":135464,"Delta":29691202},{"NoteNumber":61,"Velocity":62,"Duration":1202128,"SoundDuration":1202128,"Delta":29826666},{"NoteNumber":42,"Velocity":38,"Duration":134349,"SoundDuration":134349,"Delta":29962131},{"NoteNumber":49,"Velocity":44,"Duration":132616,"SoundDuration":132616,"Delta":30096480},{"NoteNumber":57,"Velocity":44,"Duration":131224,"SoundDuration":131224,"Delta":30229097},{"NoteNumber":66,"Velocity":43,"Duration":130006,"SoundDuration":130006,"Delta":30360321},{"NoteNumber":68,"Velocity":45,"Duration":128677,"SoundDuration":128677,"Delta":30490328},{"NoteNumber":69,"Velocity":46,"Duration":127456,"SoundDuration":127456,"Delta":30619005},{"NoteNumber":73,"Velocity":48,"Duration":149655,"SoundDuration":149655,"Delta":30746462},{"NoteNumber":54,"Velocity":38,"Duration":133932,"SoundDuration":133932,"Delta":31032197},{"NoteNumber":61,"Velocity":44,"Duration":799131,"SoundDuration":799131,"Delta":31166129},{"NoteNumber":69,"Velocity":44,"Duration":131175,"SoundDuration":131175,"Delta":31298360},{"NoteNumber":78,"Velocity":46,"Duration":130175,"SoundDuration":130175,"Delta":31429536},{"NoteNumber":80,"Velocity":48,"Duration":129189,"SoundDuration":129189,"Delta":31559711},{"NoteNumber":81,"Velocity":50,"Duration":128181,"SoundDuration":128181,"Delta":31688901},{"NoteNumber":85,"Velocity":52,"Duration":148177,"SoundDuration":148177,"Delta":31817083},{"NoteNumber":72,"Velocity":60,"Duration":393941,"SoundDuration":393941,"Delta":31965260},{"NoteNumber":52,"Velocity":36,"Duration":131314,"SoundDuration":131314,"Delta":32096574},{"NoteNumber":60,"Velocity":36,"Duration":131313,"SoundDuration":131313,"Delta":32227888},{"NoteNumber":76,"Velocity":54,"Duration":131314,"SoundDuration":131314,"Delta":32359202},{"NoteNumber":67,"Velocity":36,"Duration":131314,"SoundDuration":131314,"Delta":32359202},{"NoteNumber":79,"Velocity":58,"Duration":123033,"SoundDuration":123033,"Delta":32490516},{"NoteNumber":84,"Velocity":54,"Duration":119174,"SoundDuration":119174,"Delta":32613549},{"NoteNumber":78,"Velocity":60,"Duration":117955,"SoundDuration":117955,"Delta":32732723},{"NoteNumber":79,"Velocity":57,"Duration":116818,"SoundDuration":116818,"Delta":32850679},{"NoteNumber":84,"Velocity":57,"Duration":116818,"SoundDuration":116818,"Delta":32850679},{"NoteNumber":76,"Velocity":63,"Duration":115681,"SoundDuration":115681,"Delta":32967498},{"NoteNumber":79,"Velocity":60,"Duration":114620,"SoundDuration":114620,"Delta":33083179},{"NoteNumber":84,"Velocity":60,"Duration":114620,"SoundDuration":114620,"Delta":33083179},{"NoteNumber":74,"Velocity":65,"Duration":113493,"SoundDuration":113493,"Delta":33197800},{"NoteNumber":76,"Velocity":63,"Duration":112370,"SoundDuration":112370,"Delta":33311293},{"NoteNumber":79,"Velocity":63,"Duration":112370,"SoundDuration":112370,"Delta":33311293},{"NoteNumber":72,"Velocity":69,"Duration":111999,"SoundDuration":111999,"Delta":33423664},{"NoteNumber":76,"Velocity":60,"Duration":112771,"SoundDuration":112771,"Delta":33535664},{"NoteNumber":79,"Velocity":60,"Duration":112771,"SoundDuration":112771,"Delta":33535664},{"NoteNumber":71,"Velocity":69,"Duration":113525,"SoundDuration":113525,"Delta":33648435},{"NoteNumber":76,"Velocity":60,"Duration":126336,"SoundDuration":126336,"Delta":33761960},{"NoteNumber":79,"Velocity":60,"Duration":126336,"SoundDuration":126336,"Delta":33761960},{"NoteNumber":70,"Velocity":73,"Duration":353789,"SoundDuration":353789,"Delta":33888297},{"NoteNumber":54,"Velocity":40,"Duration":116523,"SoundDuration":116523,"Delta":34009041},{"NoteNumber":64,"Velocity":43,"Duration":116523,"SoundDuration":116523,"Delta":34125564},{"NoteNumber":73,"Velocity":45,"Duration":122219,"SoundDuration":122219,"Delta":34242087},{"NoteNumber":78,"Velocity":54,"Duration":122219,"SoundDuration":122219,"Delta":34242087},{"NoteNumber":71,"Velocity":69,"Duration":354363,"SoundDuration":354363,"Delta":34364306},{"NoteNumber":54,"Velocity":40,"Duration":116072,"SoundDuration":116072,"Delta":34486526},{"NoteNumber":66,"Velocity":43,"Duration":116071,"SoundDuration":116071,"Delta":34602598},{"NoteNumber":74,"Velocity":42,"Duration":121231,"SoundDuration":121231,"Delta":34718670},{"NoteNumber":78,"Velocity":50,"Duration":121231,"SoundDuration":121231,"Delta":34718670},{"NoteNumber":68,"Velocity":70,"Duration":353375,"SoundDuration":353375,"Delta":34839902},{"NoteNumber":54,"Velocity":38,"Duration":116072,"SoundDuration":116072,"Delta":34961133},{"NoteNumber":62,"Velocity":46,"Duration":116071,"SoundDuration":116071,"Delta":35077205},{"NoteNumber":71,"Velocity":41,"Duration":121723,"SoundDuration":121723,"Delta":35193277},{"NoteNumber":78,"Velocity":49,"Duration":121723,"SoundDuration":121723,"Delta":35193277},{"NoteNumber":70,"Velocity":69,"Duration":352972,"SoundDuration":352972,"Delta":35315001},{"NoteNumber":54,"Velocity":38,"Duration":115624,"SoundDuration":115624,"Delta":35436724},{"NoteNumber":64,"Velocity":44,"Duration":115624,"SoundDuration":115624,"Delta":35552349},{"NoteNumber":73,"Velocity":39,"Duration":135464,"SoundDuration":135464,"Delta":35667974},{"NoteNumber":78,"Velocity":47,"Duration":135464,"SoundDuration":135464,"Delta":35667974},{"NoteNumber":66,"Velocity":66,"Duration":358446,"SoundDuration":358446,"Delta":35803439},{"NoteNumber":47,"Velocity":40,"Duration":118361,"SoundDuration":118361,"Delta":35925162},{"NoteNumber":54,"Velocity":42,"Duration":118361,"SoundDuration":118361,"Delta":36043524},{"NoteNumber":71,"Velocity":25,"Duration":123223,"SoundDuration":123223,"Delta":36161886},{"NoteNumber":74,"Velocity":25,"Duration":123223,"SoundDuration":123223,"Delta":36161886},{"NoteNumber":78,"Velocity":41,"Duration":123223,"SoundDuration":123223,"Delta":36161886},{"NoteNumber":62,"Velocity":42,"Duration":123223,"SoundDuration":123223,"Delta":36161886},{"NoteNumber":67,"Velocity":59,"Duration":123223,"SoundDuration":123223,"Delta":36285109},{"NoteNumber":71,"Velocity":24,"Duration":128501,"SoundDuration":128501,"Delta":36408333},{"NoteNumber":74,"Velocity":24,"Duration":128501,"SoundDuration":128501,"Delta":36408333},{"NoteNumber":78,"Velocity":40,"Duration":128501,"SoundDuration":128501,"Delta":36408333},{"NoteNumber":69,"Velocity":58,"Duration":128501,"SoundDuration":128501,"Delta":36536834},{"NoteNumber":71,"Velocity":25,"Duration":126871,"SoundDuration":126871,"Delta":36665336},{"NoteNumber":74,"Velocity":25,"Duration":126871,"SoundDuration":126871,"Delta":36665336},{"NoteNumber":78,"Velocity":39,"Duration":126871,"SoundDuration":126871,"Delta":36665336},{"NoteNumber":66,"Velocity":58,"Duration":370318,"SoundDuration":370318,"Delta":36792207},{"NoteNumber":47,"Velocity":34,"Duration":121723,"SoundDuration":121723,"Delta":36919079},{"NoteNumber":54,"Velocity":41,"Duration":121723,"SoundDuration":121723,"Delta":37040802},{"NoteNumber":74,"Velocity":21,"Duration":124760,"SoundDuration":124760,"Delta":37162526},{"NoteNumber":70,"Velocity":21,"Duration":124760,"SoundDuration":124760,"Delta":37162526},{"NoteNumber":78,"Velocity":34,"Duration":124760,"SoundDuration":124760,"Delta":37162526},{"NoteNumber":64,"Velocity":41,"Duration":124760,"SoundDuration":124760,"Delta":37162526},{"NoteNumber":66,"Velocity":55,"Duration":371207,"SoundDuration":371207,"Delta":37287286},{"NoteNumber":47,"Velocity":33,"Duration":123223,"SoundDuration":123223,"Delta":37412047},{"NoteNumber":54,"Velocity":38,"Duration":123223,"SoundDuration":123223,"Delta":37535271},{"NoteNumber":70,"Velocity":22,"Duration":146013,"SoundDuration":146013,"Delta":37658494},{"NoteNumber":74,"Velocity":22,"Duration":146013,"SoundDuration":146013,"Delta":37658494},{"NoteNumber":78,"Velocity":36,"Duration":146013,"SoundDuration":146013,"Delta":37658494},{"NoteNumber":64,"Velocity":37,"Duration":146013,"SoundDuration":146013,"Delta":37658494},{"NoteNumber":66,"Velocity":44,"Duration":388380,"SoundDuration":388380,"Delta":37804508},{"NoteNumber":47,"Velocity":27,"Duration":127953,"SoundDuration":127953,"Delta":37936982},{"NoteNumber":54,"Velocity":28,"Duration":127953,"SoundDuration":127953,"Delta":38064935},{"NoteNumber":71,"Velocity":20,"Duration":131314,"SoundDuration":131314,"Delta":38192889},{"NoteNumber":75,"Velocity":20,"Duration":131314,"SoundDuration":131314,"Delta":38192889},{"NoteNumber":78,"Velocity":33,"Duration":131314,"SoundDuration":131314,"Delta":38192889},{"NoteNumber":63,"Velocity":28,"Duration":131314,"SoundDuration":131314,"Delta":38192889},{"NoteNumber":68,"Velocity":39,"Duration":131313,"SoundDuration":131313,"Delta":38324203},{"NoteNumber":71,"Velocity":19,"Duration":136699,"SoundDuration":136699,"Delta":38455517},{"NoteNumber":75,"Velocity":19,"Duration":136699,"SoundDuration":136699,"Delta":38455517},{"NoteNumber":78,"Velocity":32,"Duration":136699,"SoundDuration":136699,"Delta":38455517},{"NoteNumber":70,"Velocity":39,"Duration":136699,"SoundDuration":136699,"Delta":38592216},{"NoteNumber":71,"Velocity":20,"Duration":133061,"SoundDuration":133061,"Delta":38728915},{"NoteNumber":75,"Velocity":20,"Duration":133061,"SoundDuration":133061,"Delta":38728915},{"NoteNumber":78,"Velocity":32,"Duration":133061,"SoundDuration":133061,"Delta":38728915},{"NoteNumber":66,"Velocity":39,"Duration":392285,"SoundDuration":392285,"Delta":38861976},{"NoteNumber":47,"Velocity":23,"Duration":129612,"SoundDuration":129612,"Delta":38995038},{"NoteNumber":54,"Velocity":28,"Duration":129612,"SoundDuration":129612,"Delta":39124650},{"NoteNumber":75,"Velocity":17,"Duration":135464,"SoundDuration":135464,"Delta":39254262},{"NoteNumber":70,"Velocity":17,"Duration":135464,"SoundDuration":135464,"Delta":39254262},{"NoteNumber":78,"Velocity":28,"Duration":135464,"SoundDuration":135464,"Delta":39254262},{"NoteNumber":64,"Velocity":28,"Duration":135464,"SoundDuration":135464,"Delta":39254262},{"NoteNumber":66,"Velocity":38,"Duration":399247,"SoundDuration":399247,"Delta":39389726},{"NoteNumber":47,"Velocity":22,"Duration":131891,"SoundDuration":131891,"Delta":39525191},{"NoteNumber":54,"Velocity":26,"Duration":131891,"SoundDuration":131891,"Delta":39657082},{"NoteNumber":70,"Velocity":17,"Duration":143225,"SoundDuration":143225,"Delta":39788974},{"NoteNumber":75,"Velocity":17,"Duration":143225,"SoundDuration":143225,"Delta":39788974},{"NoteNumber":78,"Velocity":29,"Duration":143225,"SoundDuration":143225,"Delta":39788974},{"NoteNumber":64,"Velocity":26,"Duration":143225,"SoundDuration":143225,"Delta":39788974},{"NoteNumber":66,"Velocity":44,"Duration":1053153,"SoundDuration":1053153,"Delta":39932199},{"NoteNumber":47,"Velocity":27,"Duration":132423,"SoundDuration":132423,"Delta":40067664},{"NoteNumber":54,"Velocity":31,"Duration":130134,"SoundDuration":130134,"Delta":40200087},{"NoteNumber":63,"Velocity":31,"Duration":128398,"SoundDuration":128398,"Delta":40330221},{"NoteNumber":71,"Velocity":30,"Duration":126939,"SoundDuration":126939,"Delta":40458619},{"NoteNumber":73,"Velocity":32,"Duration":125327,"SoundDuration":125327,"Delta":40585559},{"NoteNumber":75,"Velocity":33,"Duration":124810,"SoundDuration":124810,"Delta":40710887},{"NoteNumber":78,"Velocity":34,"Duration":149655,"SoundDuration":149655,"Delta":40835697},{"NoteNumber":66,"Velocity":44,"Duration":1041064,"SoundDuration":1041064,"Delta":40985353},{"NoteNumber":47,"Velocity":27,"Duration":131308,"SoundDuration":131308,"Delta":41121432},{"NoteNumber":54,"Velocity":31,"Duration":127823,"SoundDuration":127823,"Delta":41252740},{"NoteNumber":63,"Velocity":31,"Duration":126444,"SoundDuration":126444,"Delta":41380563},{"NoteNumber":71,"Velocity":37,"Duration":125035,"SoundDuration":125035,"Delta":41507008},{"NoteNumber":73,"Velocity":39,"Duration":123754,"SoundDuration":123754,"Delta":41632043},{"NoteNumber":75,"Velocity":41,"Duration":122441,"SoundDuration":122441,"Delta":41755798},{"NoteNumber":78,"Velocity":44,"Duration":148177,"SoundDuration":148177,"Delta":41878240},{"NoteNumber":78,"Velocity":49,"Duration":1074895,"SoundDuration":1074895,"Delta":42026417},{"NoteNumber":47,"Velocity":32,"Duration":131534,"SoundDuration":131534,"Delta":42169643},{"NoteNumber":54,"Velocity":34,"Duration":129454,"SoundDuration":129454,"Delta":42301177},{"NoteNumber":62,"Velocity":37,"Duration":130491,"SoundDuration":130491,"Delta":42430631},{"NoteNumber":74,"Velocity":43,"Duration":131521,"SoundDuration":131521,"Delta":42561122},{"NoteNumber":73,"Velocity":41,"Duration":132543,"SoundDuration":132543,"Delta":42692643},{"NoteNumber":71,"Velocity":40,"Duration":133581,"SoundDuration":133581,"Delta":42825187},{"NoteNumber":66,"Velocity":39,"Duration":142544,"SoundDuration":142544,"Delta":42958768},{"NoteNumber":78,"Velocity":49,"Duration":1094082,"SoundDuration":1094082,"Delta":43101313},{"NoteNumber":47,"Velocity":32,"Duration":130209,"SoundDuration":130209,"Delta":43245225},{"NoteNumber":55,"Velocity":34,"Duration":130992,"SoundDuration":130992,"Delta":43375434},{"NoteNumber":62,"Velocity":37,"Duration":133276,"SoundDuration":133276,"Delta":43506427},{"NoteNumber":74,"Velocity":43,"Duration":135709,"SoundDuration":135709,"Delta":43639704},{"NoteNumber":73,"Velocity":41,"Duration":138108,"SoundDuration":138108,"Delta":43775413},{"NoteNumber":71,"Velocity":40,"Duration":140670,"SoundDuration":140670,"Delta":43913522},{"NoteNumber":67,"Velocity":39,"Duration":141202,"SoundDuration":141202,"Delta":44054192},{"NoteNumber":78,"Velocity":52,"Duration":372732,"SoundDuration":372732,"Delta":44195395},{"NoteNumber":38,"Velocity":31,"Duration":124244,"SoundDuration":124244,"Delta":44195395},{"NoteNumber":50,"Velocity":36,"Duration":124244,"SoundDuration":124244,"Delta":44195395},{"NoteNumber":56,"Velocity":36,"Duration":124244,"SoundDuration":124244,"Delta":44319639},{"NoteNumber":59,"Velocity":36,"Duration":124244,"SoundDuration":124244,"Delta":44443883},{"NoteNumber":68,"Velocity":44,"Duration":123093,"SoundDuration":123093,"Delta":44568128},{"NoteNumber":66,"Velocity":45,"Duration":123093,"SoundDuration":123093,"Delta":44568128},{"NoteNumber":69,"Velocity":46,"Duration":116958,"SoundDuration":116958,"Delta":44691221},{"NoteNumber":70,"Velocity":48,"Duration":116485,"SoundDuration":116485,"Delta":44808180},{"NoteNumber":71,"Velocity":49,"Duration":116072,"SoundDuration":116072,"Delta":44924665},{"NoteNumber":72,"Velocity":51,"Duration":115643,"SoundDuration":115643,"Delta":45040737},{"NoteNumber":73,"Velocity":53,"Duration":115180,"SoundDuration":115180,"Delta":45156380},{"NoteNumber":74,"Velocity":55,"Duration":114791,"SoundDuration":114791,"Delta":45271561},{"NoteNumber":75,"Velocity":57,"Duration":114339,"SoundDuration":114339,"Delta":45386353},{"NoteNumber":76,"Velocity":59,"Duration":113956,"SoundDuration":113956,"Delta":45500692},{"NoteNumber":81,"Velocity":65,"Duration":113956,"SoundDuration":113956,"Delta":45614649},{"NoteNumber":76,"Velocity":58,"Duration":114547,"SoundDuration":114547,"Delta":45728605},{"NoteNumber":49,"Velocity":40,"Duration":114547,"SoundDuration":114547,"Delta":45728605},{"NoteNumber":73,"Velocity":62,"Duration":115144,"SoundDuration":115144,"Delta":45843152},{"NoteNumber":57,"Velocity":44,"Duration":115144,"SoundDuration":115144,"Delta":45843152},{"NoteNumber":69,"Velocity":58,"Duration":126336,"SoundDuration":126336,"Delta":45958296},{"NoteNumber":64,"Velocity":40,"Duration":126336,"SoundDuration":126336,"Delta":45958296},{"NoteNumber":67,"Velocity":68,"Duration":344261,"SoundDuration":344261,"Delta":46084633},{"NoteNumber":46,"Velocity":40,"Duration":113869,"SoundDuration":113869,"Delta":46201156},{"NoteNumber":52,"Velocity":43,"Duration":113869,"SoundDuration":113869,"Delta":46315025},{"NoteNumber":76,"Velocity":53,"Duration":119303,"SoundDuration":119303,"Delta":46428894},{"NoteNumber":61,"Velocity":40,"Duration":119303,"SoundDuration":119303,"Delta":46428894},{"NoteNumber":68,"Velocity":69,"Duration":345326,"SoundDuration":345326,"Delta":46548198},{"NoteNumber":47,"Velocity":40,"Duration":113011,"SoundDuration":113011,"Delta":46667501},{"NoteNumber":52,"Velocity":43,"Duration":113011,"SoundDuration":113011,"Delta":46780512},{"NoteNumber":76,"Velocity":52,"Duration":118830,"SoundDuration":118830,"Delta":46893524},{"NoteNumber":62,"Velocity":40,"Duration":118830,"SoundDuration":118830,"Delta":46893524},{"NoteNumber":67,"Velocity":70,"Duration":344005,"SoundDuration":344005,"Delta":47012355},{"NoteNumber":46,"Velocity":38,"Duration":112587,"SoundDuration":112587,"Delta":47131185},{"NoteNumber":52,"Velocity":46,"Duration":112587,"SoundDuration":112587,"Delta":47243773},{"NoteNumber":76,"Velocity":50,"Duration":119779,"SoundDuration":119779,"Delta":47356360},{"NoteNumber":61,"Velocity":38,"Duration":119779,"SoundDuration":119779,"Delta":47356360},{"NoteNumber":68,"Velocity":69,"Duration":344954,"SoundDuration":344954,"Delta":47476139},{"NoteNumber":47,"Velocity":38,"Duration":112587,"SoundDuration":112587,"Delta":47595919},{"NoteNumber":52,"Velocity":44,"Duration":112587,"SoundDuration":112587,"Delta":47708506},{"NoteNumber":77,"Velocity":46,"Duration":135464,"SoundDuration":135464,"Delta":47821093},{"NoteNumber":62,"Velocity":38,"Duration":135464,"SoundDuration":135464,"Delta":47821093},{"NoteNumber":78,"Velocity":67,"Duration":372732,"SoundDuration":372732,"Delta":47956558},{"NoteNumber":50,"Velocity":36,"Duration":124244,"SoundDuration":124244,"Delta":48080802},{"NoteNumber":56,"Velocity":36,"Duration":124244,"SoundDuration":124244,"Delta":48205047},{"NoteNumber":68,"Velocity":54,"Duration":123093,"SoundDuration":123093,"Delta":48329291},{"NoteNumber":59,"Velocity":36,"Duration":123093,"SoundDuration":123093,"Delta":48329291},{"NoteNumber":69,"Velocity":53,"Duration":116958,"SoundDuration":116958,"Delta":48452384},{"NoteNumber":66,"Velocity":45,"Duration":116958,"SoundDuration":116958,"Delta":48452384},{"NoteNumber":70,"Velocity":54,"Duration":116485,"SoundDuration":116485,"Delta":48569343},{"NoteNumber":71,"Velocity":55,"Duration":116072,"SoundDuration":116072,"Delta":48685828},{"NoteNumber":72,"Velocity":57,"Duration":115643,"SoundDuration":115643,"Delta":48801900},{"NoteNumber":73,"Velocity":58,"Duration":115180,"SoundDuration":115180,"Delta":48917544},{"NoteNumber":74,"Velocity":60,"Duration":114791,"SoundDuration":114791,"Delta":49032724},{"NoteNumber":75,"Velocity":61,"Duration":114339,"SoundDuration":114339,"Delta":49147516},{"NoteNumber":76,"Velocity":63,"Duration":113956,"SoundDuration":113956,"Delta":49261856},{"NoteNumber":81,"Velocity":69,"Duration":113956,"SoundDuration":113956,"Delta":49375812},{"NoteNumber":76,"Velocity":60,"Duration":114547,"SoundDuration":114547,"Delta":49489768},{"NoteNumber":49,"Velocity":40,"Duration":114547,"SoundDuration":114547,"Delta":49489768},{"NoteNumber":73,"Velocity":62,"Duration":115144,"SoundDuration":115144,"Delta":49604315},{"NoteNumber":57,"Velocity":44,"Duration":115144,"SoundDuration":115144,"Delta":49604315},{"NoteNumber":69,"Velocity":60,"Duration":137324,"SoundDuration":137324,"Delta":49719459},{"NoteNumber":64,"Velocity":40,"Duration":137324,"SoundDuration":137324,"Delta":49719459},{"NoteNumber":85,"Velocity":76,"Duration":372732,"SoundDuration":372732,"Delta":49856784},{"NoteNumber":57,"Velocity":39,"Duration":124244,"SoundDuration":124244,"Delta":49981028},{"NoteNumber":63,"Velocity":39,"Duration":124244,"SoundDuration":124244,"Delta":50105273},{"NoteNumber":75,"Velocity":60,"Duration":123093,"SoundDuration":123093,"Delta":50229517},{"NoteNumber":66,"Velocity":40,"Duration":123093,"SoundDuration":123093,"Delta":50229517},{"NoteNumber":76,"Velocity":58,"Duration":116958,"SoundDuration":116958,"Delta":50352610},{"NoteNumber":73,"Velocity":50,"Duration":116958,"SoundDuration":116958,"Delta":50352610},{"NoteNumber":77,"Velocity":59,"Duration":116485,"SoundDuration":116485,"Delta":50469569},{"NoteNumber":78,"Velocity":61,"Duration":116072,"SoundDuration":116072,"Delta":50586054},{"NoteNumber":79,"Velocity":62,"Duration":115643,"SoundDuration":115643,"Delta":50702126},{"NoteNumber":80,"Velocity":64,"Duration":115180,"SoundDuration":115180,"Delta":50817770},{"NoteNumber":81,"Velocity":66,"Duration":114791,"SoundDuration":114791,"Delta":50932950},{"NoteNumber":82,"Velocity":67,"Duration":114339,"SoundDuration":114339,"Delta":51047742},{"NoteNumber":83,"Velocity":69,"Duration":113956,"SoundDuration":113956,"Delta":51162082},{"NoteNumber":88,"Velocity":78,"Duration":113956,"SoundDuration":113956,"Delta":51276038},{"NoteNumber":83,"Velocity":67,"Duration":114547,"SoundDuration":114547,"Delta":51389994},{"NoteNumber":56,"Velocity":46,"Duration":114547,"SoundDuration":114547,"Delta":51389994},{"NoteNumber":80,"Velocity":72,"Duration":115144,"SoundDuration":115144,"Delta":51504541},{"NoteNumber":64,"Velocity":54,"Duration":115144,"SoundDuration":115144,"Delta":51504541},{"NoteNumber":76,"Velocity":65,"Duration":126336,"SoundDuration":126336,"Delta":51619685},{"NoteNumber":71,"Velocity":49,"Duration":126336,"SoundDuration":126336,"Delta":51619685},{"NoteNumber":90,"Velocity":90,"Duration":372732,"SoundDuration":372732,"Delta":51746022},{"NoteNumber":62,"Velocity":44,"Duration":124244,"SoundDuration":124244,"Delta":51870266},{"NoteNumber":68,"Velocity":48,"Duration":124244,"SoundDuration":124244,"Delta":51994511},{"NoteNumber":80,"Velocity":66,"Duration":123093,"SoundDuration":123093,"Delta":52118755},{"NoteNumber":71,"Velocity":51,"Duration":123093,"SoundDuration":123093,"Delta":52118755},{"NoteNumber":81,"Velocity":66,"Duration":116958,"SoundDuration":116958,"Delta":52241848},{"NoteNumber":78,"Velocity":55,"Duration":116958,"SoundDuration":116958,"Delta":52241848},{"NoteNumber":82,"Velocity":67,"Duration":116485,"SoundDuration":116485,"Delta":52358807},{"NoteNumber":83,"Velocity":69,"Duration":116072,"SoundDuration":116072,"Delta":52475292},{"NoteNumber":84,"Velocity":70,"Duration":115643,"SoundDuration":115643,"Delta":52591364},{"NoteNumber":85,"Velocity":72,"Duration":115180,"SoundDuration":115180,"Delta":52707008},{"NoteNumber":86,"Velocity":74,"Duration":114791,"SoundDuration":114791,"Delta":52822188},{"NoteNumber":87,"Velocity":75,"Duration":114339,"SoundDuration":114339,"Delta":52936980},{"NoteNumber":88,"Velocity":77,"Duration":113956,"SoundDuration":113956,"Delta":53051320},{"NoteNumber":93,"Velocity":87,"Duration":113956,"SoundDuration":113956,"Delta":53165276},{"NoteNumber":88,"Velocity":73,"Duration":114547,"SoundDuration":114547,"Delta":53279232},{"NoteNumber":61,"Velocity":48,"Duration":114547,"SoundDuration":114547,"Delta":53279232},{"NoteNumber":85,"Velocity":76,"Duration":115144,"SoundDuration":115144,"Delta":53393779},{"NoteNumber":69,"Velocity":54,"Duration":115144,"SoundDuration":115144,"Delta":53393779},{"NoteNumber":81,"Velocity":74,"Duration":126336,"SoundDuration":126336,"Delta":53508923},{"NoteNumber":76,"Velocity":49,"Duration":124231,"SoundDuration":124231,"Delta":53508923},{"NoteNumber":76,"Velocity":83,"Duration":344261,"SoundDuration":344261,"Delta":53635260},{"NoteNumber":52,"Velocity":45,"Duration":113869,"SoundDuration":113869,"Delta":53751783},{"NoteNumber":61,"Velocity":47,"Duration":113869,"SoundDuration":113869,"Delta":53865652},{"NoteNumber":85,"Velocity":56,"Duration":119303,"SoundDuration":119303,"Delta":53979521},{"NoteNumber":69,"Velocity":43,"Duration":119303,"SoundDuration":119303,"Delta":53979521},{"NoteNumber":73,"Velocity":75,"Duration":345326,"SoundDuration":345326,"Delta":54098825},{"NoteNumber":81,"Velocity":50,"Duration":122719,"SoundDuration":122719,"Delta":54444151},{"NoteNumber":69,"Velocity":67,"Duration":356673,"SoundDuration":356673,"Delta":54566870},{"NoteNumber":52,"Velocity":35,"Duration":116977,"SoundDuration":116977,"Delta":54689590},{"NoteNumber":60,"Velocity":41,"Duration":116977,"SoundDuration":116977,"Delta":54806567},{"NoteNumber":78,"Velocity":45,"Duration":125281,"SoundDuration":125281,"Delta":54923544},{"NoteNumber":69,"Velocity":34,"Duration":125281,"SoundDuration":125281,"Delta":54923544},{"NoteNumber":66,"Velocity":60,"Duration":365801,"SoundDuration":365801,"Delta":55048826},{"NoteNumber":75,"Velocity":38,"Duration":135464,"SoundDuration":135464,"Delta":55414628},{"NoteNumber":65,"Velocity":52,"Duration":390000,"SoundDuration":390000,"Delta":55550093},{"NoteNumber":52,"Velocity":30,"Duration":129054,"SoundDuration":129054,"Delta":55681984},{"NoteNumber":59,"Velocity":31,"Duration":129054,"SoundDuration":129054,"Delta":55811038},{"NoteNumber":74,"Velocity":38,"Duration":144606,"SoundDuration":144606,"Delta":55940093},{"NoteNumber":68,"Velocity":28,"Duration":144606,"SoundDuration":144606,"Delta":55940093},{"NoteNumber":62,"Velocity":49,"Duration":418004,"SoundDuration":418004,"Delta":56084699},{"NoteNumber":71,"Velocity":34,"Duration":153483,"SoundDuration":153483,"Delta":56502704},{"NoteNumber":61,"Velocity":46,"Duration":441308,"SoundDuration":441308,"Delta":56656188},{"NoteNumber":45,"Velocity":24,"Duration":143912,"SoundDuration":143912,"Delta":56809672},{"NoteNumber":52,"Velocity":29,"Duration":143912,"SoundDuration":143912,"Delta":56953584},{"NoteNumber":69,"Velocity":36,"Duration":166241,"SoundDuration":166241,"Delta":57097497},{"NoteNumber":33,"Velocity":34,"Duration":166241,"SoundDuration":166241,"Delta":57263739},{"NoteNumber":67,"Velocity":60,"Duration":393942,"SoundDuration":393942,"Delta":57928706},{"NoteNumber":47,"Velocity":36,"Duration":131313,"SoundDuration":131313,"Delta":58060020},{"NoteNumber":55,"Velocity":36,"Duration":131314,"SoundDuration":131314,"Delta":58191334},{"NoteNumber":71,"Velocity":54,"Duration":131313,"SoundDuration":131313,"Delta":58322648},{"NoteNumber":62,"Velocity":36,"Duration":131313,"SoundDuration":131313,"Delta":58322648},{"NoteNumber":74,"Velocity":58,"Duration":123033,"SoundDuration":123033,"Delta":58453962},{"NoteNumber":79,"Velocity":54,"Duration":119174,"SoundDuration":119174,"Delta":58576995},{"NoteNumber":73,"Velocity":60,"Duration":117955,"SoundDuration":117955,"Delta":58696169},{"NoteNumber":74,"Velocity":57,"Duration":116818,"SoundDuration":116818,"Delta":58814124},{"NoteNumber":79,"Velocity":57,"Duration":116818,"SoundDuration":116818,"Delta":58814124},{"NoteNumber":71,"Velocity":63,"Duration":115681,"SoundDuration":115681,"Delta":58930943},{"NoteNumber":74,"Velocity":60,"Duration":114620,"SoundDuration":114620,"Delta":59046625},{"NoteNumber":79,"Velocity":60,"Duration":114620,"SoundDuration":114620,"Delta":59046625},{"NoteNumber":69,"Velocity":65,"Duration":113493,"SoundDuration":113493,"Delta":59161246},{"NoteNumber":71,"Velocity":63,"Duration":112370,"SoundDuration":112370,"Delta":59274739},{"NoteNumber":74,"Velocity":63,"Duration":112370,"SoundDuration":112370,"Delta":59274739},{"NoteNumber":67,"Velocity":69,"Duration":111999,"SoundDuration":111999,"Delta":59387110},{"NoteNumber":71,"Velocity":60,"Duration":112771,"SoundDuration":112771,"Delta":59499109},{"NoteNumber":74,"Velocity":60,"Duration":112771,"SoundDuration":112771,"Delta":59499109},{"NoteNumber":66,"Velocity":69,"Duration":113525,"SoundDuration":113525,"Delta":59611880},{"NoteNumber":71,"Velocity":60,"Duration":126336,"SoundDuration":126336,"Delta":59725406},{"NoteNumber":74,"Velocity":60,"Duration":126336,"SoundDuration":126336,"Delta":59725406},{"NoteNumber":65,"Velocity":73,"Duration":353789,"SoundDuration":353789,"Delta":59851743},{"NoteNumber":49,"Velocity":40,"Duration":116523,"SoundDuration":116523,"Delta":59972486},{"NoteNumber":59,"Velocity":43,"Duration":116523,"SoundDuration":116523,"Delta":60089009},{"NoteNumber":68,"Velocity":49,"Duration":122219,"SoundDuration":122219,"Delta":60205532},{"NoteNumber":73,"Velocity":58,"Duration":122219,"SoundDuration":122219,"Delta":60205532},{"NoteNumber":66,"Velocity":69,"Duration":354363,"SoundDuration":354363,"Delta":60327752},{"NoteNumber":49,"Velocity":40,"Duration":116072,"SoundDuration":116072,"Delta":60449971},{"NoteNumber":61,"Velocity":43,"Duration":116071,"SoundDuration":116071,"Delta":60566043},{"NoteNumber":69,"Velocity":48,"Duration":121231,"SoundDuration":121231,"Delta":60682115},{"NoteNumber":73,"Velocity":57,"Duration":121231,"SoundDuration":121231,"Delta":60682115},{"NoteNumber":63,"Velocity":70,"Duration":353375,"SoundDuration":353375,"Delta":60803347},{"NoteNumber":49,"Velocity":38,"Duration":116072,"SoundDuration":116072,"Delta":60924579},{"NoteNumber":57,"Velocity":46,"Duration":116071,"SoundDuration":116071,"Delta":61040651},{"NoteNumber":66,"Velocity":47,"Duration":121723,"SoundDuration":121723,"Delta":61156723},{"NoteNumber":73,"Velocity":56,"Duration":121723,"SoundDuration":121723,"Delta":61156723},{"NoteNumber":65,"Velocity":69,"Duration":352972,"SoundDuration":352972,"Delta":61278446},{"NoteNumber":49,"Velocity":38,"Duration":115624,"SoundDuration":115624,"Delta":61400170},{"NoteNumber":59,"Velocity":44,"Duration":115624,"SoundDuration":115624,"Delta":61515795},{"NoteNumber":68,"Velocity":44,"Duration":135464,"SoundDuration":135464,"Delta":61631419},{"NoteNumber":73,"Velocity":52,"Duration":135464,"SoundDuration":135464,"Delta":61631419},{"NoteNumber":61,"Velocity":66,"Duration":358446,"SoundDuration":358446,"Delta":61766884},{"NoteNumber":42,"Velocity":40,"Duration":118361,"SoundDuration":118361,"Delta":61888608},{"NoteNumber":49,"Velocity":43,"Duration":118361,"SoundDuration":118361,"Delta":62006969},{"NoteNumber":66,"Velocity":26,"Duration":123223,"SoundDuration":123223,"Delta":62125331},{"NoteNumber":69,"Velocity":26,"Duration":123223,"SoundDuration":123223,"Delta":62125331},{"NoteNumber":73,"Velocity":42,"Duration":123223,"SoundDuration":123223,"Delta":62125331},{"NoteNumber":57,"Velocity":43,"Duration":123223,"SoundDuration":123223,"Delta":62125331},{"NoteNumber":62,"Velocity":51,"Duration":123223,"SoundDuration":123223,"Delta":62248555},{"NoteNumber":66,"Velocity":26,"Duration":128501,"SoundDuration":128501,"Delta":62371778},{"NoteNumber":69,"Velocity":26,"Duration":128501,"SoundDuration":128501,"Delta":62371778},{"NoteNumber":73,"Velocity":42,"Duration":128501,"SoundDuration":128501,"Delta":62371778},{"NoteNumber":64,"Velocity":62,"Duration":128501,"SoundDuration":128501,"Delta":62500280},{"NoteNumber":66,"Velocity":27,"Duration":126871,"SoundDuration":126871,"Delta":62628782},{"NoteNumber":69,"Velocity":27,"Duration":126871,"SoundDuration":126871,"Delta":62628782},{"NoteNumber":73,"Velocity":43,"Duration":126871,"SoundDuration":126871,"Delta":62628782},{"NoteNumber":61,"Velocity":63,"Duration":370318,"SoundDuration":370318,"Delta":62755653},{"NoteNumber":42,"Velocity":38,"Duration":121723,"SoundDuration":121723,"Delta":62882524},{"NoteNumber":49,"Velocity":46,"Duration":121723,"SoundDuration":121723,"Delta":63004248},{"NoteNumber":69,"Velocity":23,"Duration":124760,"SoundDuration":124760,"Delta":63125971},{"NoteNumber":65,"Velocity":23,"Duration":124760,"SoundDuration":124760,"Delta":63125971},{"NoteNumber":73,"Velocity":38,"Duration":124760,"SoundDuration":124760,"Delta":63125971},{"NoteNumber":59,"Velocity":46,"Duration":124760,"SoundDuration":124760,"Delta":63125971},{"NoteNumber":61,"Velocity":62,"Duration":371207,"SoundDuration":371207,"Delta":63250732},{"NoteNumber":42,"Velocity":38,"Duration":123223,"SoundDuration":123223,"Delta":63375493},{"NoteNumber":49,"Velocity":44,"Duration":123223,"SoundDuration":123223,"Delta":63498716},{"NoteNumber":65,"Velocity":26,"Duration":135464,"SoundDuration":135464,"Delta":63621940},{"NoteNumber":69,"Velocity":26,"Duration":135464,"SoundDuration":135464,"Delta":63621940},{"NoteNumber":73,"Velocity":42,"Duration":135464,"SoundDuration":135464,"Delta":63621940},{"NoteNumber":59,"Velocity":44,"Duration":135464,"SoundDuration":135464,"Delta":63621940},{"NoteNumber":61,"Velocity":62,"Duration":1202128,"SoundDuration":1202128,"Delta":63757404},{"NoteNumber":42,"Velocity":38,"Duration":134349,"SoundDuration":134349,"Delta":63892869},{"NoteNumber":49,"Velocity":44,"Duration":132616,"SoundDuration":132616,"Delta":64027218},{"NoteNumber":57,"Velocity":44,"Duration":131224,"SoundDuration":131224,"Delta":64159835},{"NoteNumber":66,"Velocity":43,"Duration":130006,"SoundDuration":130006,"Delta":64291059},{"NoteNumber":68,"Velocity":45,"Duration":128677,"SoundDuration":128677,"Delta":64421066},{"NoteNumber":69,"Velocity":46,"Duration":127456,"SoundDuration":127456,"Delta":64549743},{"NoteNumber":73,"Velocity":48,"Duration":149655,"SoundDuration":149655,"Delta":64677200},{"NoteNumber":54,"Velocity":38,"Duration":133932,"SoundDuration":133932,"Delta":64962935},{"NoteNumber":61,"Velocity":44,"Duration":799131,"SoundDuration":799131,"Delta":65096867},{"NoteNumber":69,"Velocity":44,"Duration":131175,"SoundDuration":131175,"Delta":65229098},{"NoteNumber":78,"Velocity":46,"Duration":130175,"SoundDuration":130175,"Delta":65360274},{"NoteNumber":80,"Velocity":48,"Duration":129189,"SoundDuration":129189,"Delta":65490449},{"NoteNumber":81,"Velocity":50,"Duration":128181,"SoundDuration":128181,"Delta":65619639},{"NoteNumber":85,"Velocity":52,"Duration":148177,"SoundDuration":148177,"Delta":65747821},{"NoteNumber":72,"Velocity":60,"Duration":393941,"SoundDuration":393941,"Delta":65895998},{"NoteNumber":52,"Velocity":36,"Duration":131314,"SoundDuration":131314,"Delta":66027312},{"NoteNumber":60,"Velocity":36,"Duration":131313,"SoundDuration":131313,"Delta":66158626},{"NoteNumber":76,"Velocity":54,"Duration":131314,"SoundDuration":131314,"Delta":66289940},{"NoteNumber":67,"Velocity":36,"Duration":131314,"SoundDuration":131314,"Delta":66289940},{"NoteNumber":79,"Velocity":58,"Duration":123033,"SoundDuration":123033,"Delta":66421254},{"NoteNumber":84,"Velocity":54,"Duration":119174,"SoundDuration":119174,"Delta":66544287},{"NoteNumber":78,"Velocity":60,"Duration":117955,"SoundDuration":117955,"Delta":66663461},{"NoteNumber":79,"Velocity":57,"Duration":116818,"SoundDuration":116818,"Delta":66781417},{"NoteNumber":84,"Velocity":57,"Duration":116818,"SoundDuration":116818,"Delta":66781417},{"NoteNumber":76,"Velocity":63,"Duration":115681,"SoundDuration":115681,"Delta":66898236},{"NoteNumber":79,"Velocity":60,"Duration":114620,"SoundDuration":114620,"Delta":67013917},{"NoteNumber":84,"Velocity":60,"Duration":114620,"SoundDuration":114620,"Delta":67013917},{"NoteNumber":74,"Velocity":65,"Duration":113493,"SoundDuration":113493,"Delta":67128538},{"NoteNumber":76,"Velocity":63,"Duration":112370,"SoundDuration":112370,"Delta":67242031},{"NoteNumber":79,"Velocity":63,"Duration":112370,"SoundDuration":112370,"Delta":67242031},{"NoteNumber":72,"Velocity":69,"Duration":111999,"SoundDuration":111999,"Delta":67354402},{"NoteNumber":76,"Velocity":60,"Duration":112771,"SoundDuration":112771,"Delta":67466401},{"NoteNumber":79,"Velocity":60,"Duration":112771,"SoundDuration":112771,"Delta":67466401},{"NoteNumber":71,"Velocity":69,"Duration":113525,"SoundDuration":113525,"Delta":67579173},{"NoteNumber":76,"Velocity":60,"Duration":126337,"SoundDuration":126337,"Delta":67692698},{"NoteNumber":79,"Velocity":60,"Duration":126337,"SoundDuration":126337,"Delta":67692698},{"NoteNumber":70,"Velocity":73,"Duration":353789,"SoundDuration":353789,"Delta":67819035},{"NoteNumber":54,"Velocity":40,"Duration":116523,"SoundDuration":116523,"Delta":67939779},{"NoteNumber":64,"Velocity":43,"Duration":116523,"SoundDuration":116523,"Delta":68056302},{"NoteNumber":73,"Velocity":46,"Duration":122219,"SoundDuration":122219,"Delta":68172825},{"NoteNumber":78,"Velocity":55,"Duration":122219,"SoundDuration":122219,"Delta":68172825},{"NoteNumber":71,"Velocity":69,"Duration":354363,"SoundDuration":354363,"Delta":68295044},{"NoteNumber":54,"Velocity":40,"Duration":116072,"SoundDuration":116072,"Delta":68417264},{"NoteNumber":66,"Velocity":43,"Duration":116072,"SoundDuration":116072,"Delta":68533336},{"NoteNumber":74,"Velocity":43,"Duration":121231,"SoundDuration":121231,"Delta":68649408},{"NoteNumber":78,"Velocity":51,"Duration":121231,"SoundDuration":121231,"Delta":68649408},{"NoteNumber":68,"Velocity":70,"Duration":353375,"SoundDuration":353375,"Delta":68770640},{"NoteNumber":54,"Velocity":38,"Duration":116072,"SoundDuration":116072,"Delta":68891871},{"NoteNumber":62,"Velocity":46,"Duration":116072,"SoundDuration":116072,"Delta":69007943},{"NoteNumber":71,"Velocity":43,"Duration":121723,"SoundDuration":121723,"Delta":69124015},{"NoteNumber":78,"Velocity":51,"Duration":121723,"SoundDuration":121723,"Delta":69124015},{"NoteNumber":70,"Velocity":69,"Duration":352973,"SoundDuration":352973,"Delta":69245739},{"NoteNumber":54,"Velocity":38,"Duration":115624,"SoundDuration":115624,"Delta":69367462},{"NoteNumber":64,"Velocity":44,"Duration":115624,"SoundDuration":115624,"Delta":69483087},{"NoteNumber":73,"Velocity":41,"Duration":135464,"SoundDuration":135464,"Delta":69598712},{"NoteNumber":78,"Velocity":49,"Duration":135464,"SoundDuration":135464,"Delta":69598712},{"NoteNumber":66,"Velocity":66,"Duration":358446,"SoundDuration":358446,"Delta":69734177},{"NoteNumber":47,"Velocity":40,"Duration":118361,"SoundDuration":118361,"Delta":69855900},{"NoteNumber":54,"Velocity":43,"Duration":118361,"SoundDuration":118361,"Delta":69974262},{"NoteNumber":71,"Velocity":26,"Duration":123223,"SoundDuration":123223,"Delta":70092624},{"NoteNumber":74,"Velocity":26,"Duration":123223,"SoundDuration":123223,"Delta":70092624},{"NoteNumber":78,"Velocity":42,"Duration":123223,"SoundDuration":123223,"Delta":70092624},{"NoteNumber":62,"Velocity":43,"Duration":123223,"SoundDuration":123223,"Delta":70092624},{"NoteNumber":67,"Velocity":60,"Duration":123223,"SoundDuration":123223,"Delta":70215847},{"NoteNumber":71,"Velocity":25,"Duration":128501,"SoundDuration":128501,"Delta":70339071},{"NoteNumber":74,"Velocity":25,"Duration":128501,"SoundDuration":128501,"Delta":70339071},{"NoteNumber":78,"Velocity":41,"Duration":128501,"SoundDuration":128501,"Delta":70339071},{"NoteNumber":69,"Velocity":60,"Duration":128501,"SoundDuration":128501,"Delta":70467572},{"NoteNumber":71,"Velocity":25,"Duration":126871,"SoundDuration":126871,"Delta":70596074},{"NoteNumber":74,"Velocity":25,"Duration":126871,"SoundDuration":126871,"Delta":70596074},{"NoteNumber":78,"Velocity":40,"Duration":126871,"SoundDuration":126871,"Delta":70596074},{"NoteNumber":66,"Velocity":59,"Duration":370318,"SoundDuration":370318,"Delta":70722945},{"NoteNumber":47,"Velocity":35,"Duration":121723,"SoundDuration":121723,"Delta":70849817},{"NoteNumber":54,"Velocity":42,"Duration":121723,"SoundDuration":121723,"Delta":70971540},{"NoteNumber":74,"Velocity":21,"Duration":124760,"SoundDuration":124760,"Delta":71093264},{"NoteNumber":70,"Velocity":21,"Duration":124760,"SoundDuration":124760,"Delta":71093264},{"NoteNumber":78,"Velocity":34,"Duration":124760,"SoundDuration":124760,"Delta":71093264},{"NoteNumber":64,"Velocity":41,"Duration":124760,"SoundDuration":124760,"Delta":71093264},{"NoteNumber":66,"Velocity":55,"Duration":371207,"SoundDuration":371207,"Delta":71218024},{"NoteNumber":47,"Velocity":33,"Duration":123223,"SoundDuration":123223,"Delta":71342785},{"NoteNumber":54,"Velocity":38,"Duration":123223,"SoundDuration":123223,"Delta":71466009},{"NoteNumber":70,"Velocity":22,"Duration":146013,"SoundDuration":146013,"Delta":71589232},{"NoteNumber":74,"Velocity":22,"Duration":146013,"SoundDuration":146013,"Delta":71589232},{"NoteNumber":78,"Velocity":36,"Duration":146013,"SoundDuration":146013,"Delta":71589232},{"NoteNumber":64,"Velocity":38,"Duration":146013,"SoundDuration":146013,"Delta":71589232},{"NoteNumber":66,"Velocity":44,"Duration":388380,"SoundDuration":388380,"Delta":71735246},{"NoteNumber":47,"Velocity":27,"Duration":127953,"SoundDuration":127953,"Delta":71867720},{"NoteNumber":54,"Velocity":28,"Duration":127953,"SoundDuration":127953,"Delta":71995673},{"NoteNumber":71,"Velocity":20,"Duration":131314,"SoundDuration":131314,"Delta":72123627},{"NoteNumber":75,"Velocity":20,"Duration":131314,"SoundDuration":131314,"Delta":72123627},{"NoteNumber":78,"Velocity":33,"Duration":131314,"SoundDuration":131314,"Delta":72123627},{"NoteNumber":63,"Velocity":28,"Duration":131314,"SoundDuration":131314,"Delta":72123627},{"NoteNumber":68,"Velocity":39,"Duration":131314,"SoundDuration":131314,"Delta":72254941},{"NoteNumber":71,"Velocity":19,"Duration":136699,"SoundDuration":136699,"Delta":72386255},{"NoteNumber":75,"Velocity":19,"Duration":136699,"SoundDuration":136699,"Delta":72386255},{"NoteNumber":78,"Velocity":32,"Duration":136699,"SoundDuration":136699,"Delta":72386255},{"NoteNumber":70,"Velocity":39,"Duration":136699,"SoundDuration":136699,"Delta":72522954},{"NoteNumber":71,"Velocity":20,"Duration":133061,"SoundDuration":133061,"Delta":72659653},{"NoteNumber":75,"Velocity":20,"Duration":133061,"SoundDuration":133061,"Delta":72659653},{"NoteNumber":78,"Velocity":32,"Duration":133061,"SoundDuration":133061,"Delta":72659653},{"NoteNumber":66,"Velocity":39,"Duration":392285,"SoundDuration":392285,"Delta":72792714},{"NoteNumber":47,"Velocity":23,"Duration":129611,"SoundDuration":129611,"Delta":72925776},{"NoteNumber":54,"Velocity":28,"Duration":129612,"SoundDuration":129612,"Delta":73055388},{"NoteNumber":75,"Velocity":17,"Duration":135464,"SoundDuration":135464,"Delta":73185000},{"NoteNumber":70,"Velocity":17,"Duration":135464,"SoundDuration":135464,"Delta":73185000},{"NoteNumber":78,"Velocity":28,"Duration":135464,"SoundDuration":135464,"Delta":73185000},{"NoteNumber":64,"Velocity":28,"Duration":135464,"SoundDuration":135464,"Delta":73185000},{"NoteNumber":66,"Velocity":38,"Duration":399247,"SoundDuration":399247,"Delta":73320464},{"NoteNumber":47,"Velocity":22,"Duration":131891,"SoundDuration":131891,"Delta":73455929},{"NoteNumber":54,"Velocity":26,"Duration":131891,"SoundDuration":131891,"Delta":73587820},{"NoteNumber":70,"Velocity":17,"Duration":143225,"SoundDuration":143225,"Delta":73719712},{"NoteNumber":75,"Velocity":17,"Duration":143225,"SoundDuration":143225,"Delta":73719712},{"NoteNumber":78,"Velocity":29,"Duration":143225,"SoundDuration":143225,"Delta":73719712},{"NoteNumber":64,"Velocity":26,"Duration":143225,"SoundDuration":143225,"Delta":73719712},{"NoteNumber":66,"Velocity":44,"Duration":1053153,"SoundDuration":1053153,"Delta":73862937},{"NoteNumber":47,"Velocity":27,"Duration":132423,"SoundDuration":132423,"Delta":73998402},{"NoteNumber":54,"Velocity":31,"Duration":130134,"SoundDuration":130134,"Delta":74130825},{"NoteNumber":63,"Velocity":31,"Duration":128398,"SoundDuration":128398,"Delta":74260959},{"NoteNumber":71,"Velocity":30,"Duration":126939,"SoundDuration":126939,"Delta":74389357},{"NoteNumber":73,"Velocity":32,"Duration":125327,"SoundDuration":125327,"Delta":74516297},{"NoteNumber":75,"Velocity":33,"Duration":124810,"SoundDuration":124810,"Delta":74641625},{"NoteNumber":78,"Velocity":34,"Duration":149655,"SoundDuration":149655,"Delta":74766435},{"NoteNumber":66,"Velocity":44,"Duration":1041064,"SoundDuration":1041064,"Delta":74916091},{"NoteNumber":47,"Velocity":27,"Duration":131308,"SoundDuration":131308,"Delta":75052170},{"NoteNumber":54,"Velocity":31,"Duration":127823,"SoundDuration":127823,"Delta":75183478},{"NoteNumber":63,"Velocity":31,"Duration":126444,"SoundDuration":126444,"Delta":75311301},{"NoteNumber":71,"Velocity":37,"Duration":125035,"SoundDuration":125035,"Delta":75437746},{"NoteNumber":73,"Velocity":39,"Duration":123754,"SoundDuration":123754,"Delta":75562781},{"NoteNumber":75,"Velocity":41,"Duration":122441,"SoundDuration":122441,"Delta":75686536},{"NoteNumber":78,"Velocity":44,"Duration":135829,"SoundDuration":135829,"Delta":75808977},{"NoteNumber":78,"Velocity":49,"Duration":1074895,"SoundDuration":1074895,"Delta":75957155},{"NoteNumber":47,"Velocity":32,"Duration":131534,"SoundDuration":131534,"Delta":76100380},{"NoteNumber":54,"Velocity":34,"Duration":129454,"SoundDuration":129454,"Delta":76231914},{"NoteNumber":62,"Velocity":37,"Duration":130491,"SoundDuration":130491,"Delta":76361369},{"NoteNumber":74,"Velocity":43,"Duration":131521,"SoundDuration":131521,"Delta":76491860},{"NoteNumber":73,"Velocity":41,"Duration":132543,"SoundDuration":132543,"Delta":76623381},{"NoteNumber":71,"Velocity":40,"Duration":133581,"SoundDuration":133581,"Delta":76755925},{"NoteNumber":66,"Velocity":39,"Duration":142544,"SoundDuration":142544,"Delta":76889506},{"NoteNumber":78,"Velocity":49,"Duration":1094082,"SoundDuration":1094082,"Delta":77032051},{"NoteNumber":47,"Velocity":32,"Duration":130209,"SoundDuration":130209,"Delta":77175963},{"NoteNumber":55,"Velocity":34,"Duration":130992,"SoundDuration":130992,"Delta":77306172},{"NoteNumber":62,"Velocity":37,"Duration":133276,"SoundDuration":133276,"Delta":77437165},{"NoteNumber":74,"Velocity":43,"Duration":135709,"SoundDuration":135709,"Delta":77570442},{"NoteNumber":73,"Velocity":41,"Duration":138108,"SoundDuration":138108,"Delta":77706151},{"NoteNumber":71,"Velocity":40,"Duration":140670,"SoundDuration":140670,"Delta":77844260},{"NoteNumber":67,"Velocity":39,"Duration":141202,"SoundDuration":141202,"Delta":77984930},{"NoteNumber":78,"Velocity":49,"Duration":372732,"SoundDuration":372732,"Delta":78126133},{"NoteNumber":38,"Velocity":31,"Duration":124244,"SoundDuration":124244,"Delta":78126133},{"NoteNumber":50,"Velocity":36,"Duration":124244,"SoundDuration":124244,"Delta":78126133},{"NoteNumber":56,"Velocity":36,"Duration":124244,"SoundDuration":124244,"Delta":78250377},{"NoteNumber":59,"Velocity":36,"Duration":124244,"SoundDuration":124244,"Delta":78374621},{"NoteNumber":68,"Velocity":42,"Duration":123093,"SoundDuration":123093,"Delta":78498866},{"NoteNumber":66,"Velocity":45,"Duration":123093,"SoundDuration":123093,"Delta":78498866},{"NoteNumber":69,"Velocity":43,"Duration":116958,"SoundDuration":116958,"Delta":78621959},{"NoteNumber":70,"Velocity":45,"Duration":116485,"SoundDuration":116485,"Delta":78738918},{"NoteNumber":71,"Velocity":47,"Duration":116072,"SoundDuration":116072,"Delta":78855403},{"NoteNumber":72,"Velocity":49,"Duration":115643,"SoundDuration":115643,"Delta":78971475},{"NoteNumber":73,"Velocity":50,"Duration":115180,"SoundDuration":115180,"Delta":79087118},{"NoteNumber":74,"Velocity":52,"Duration":114791,"SoundDuration":114791,"Delta":79202299},{"NoteNumber":75,"Velocity":54,"Duration":114339,"SoundDuration":114339,"Delta":79317091},{"NoteNumber":76,"Velocity":56,"Duration":113956,"SoundDuration":113956,"Delta":79431430},{"NoteNumber":81,"Velocity":62,"Duration":113956,"SoundDuration":113956,"Delta":79545386},{"NoteNumber":76,"Velocity":55,"Duration":114547,"SoundDuration":114547,"Delta":79659343},{"NoteNumber":49,"Velocity":40,"Duration":114547,"SoundDuration":114547,"Delta":79659343},{"NoteNumber":73,"Velocity":62,"Duration":115144,"SoundDuration":115144,"Delta":79773890},{"NoteNumber":57,"Velocity":44,"Duration":115144,"SoundDuration":115144,"Delta":79773890},{"NoteNumber":69,"Velocity":58,"Duration":126337,"SoundDuration":126337,"Delta":79889034},{"NoteNumber":64,"Velocity":40,"Duration":126337,"SoundDuration":126337,"Delta":79889034},{"NoteNumber":67,"Velocity":68,"Duration":344261,"SoundDuration":344261,"Delta":80015371},{"NoteNumber":46,"Velocity":40,"Duration":113869,"SoundDuration":113869,"Delta":80131894},{"NoteNumber":52,"Velocity":43,"Duration":113869,"SoundDuration":113869,"Delta":80245763},{"NoteNumber":76,"Velocity":54,"Duration":119303,"SoundDuration":119303,"Delta":80359632},{"NoteNumber":61,"Velocity":40,"Duration":119303,"SoundDuration":119303,"Delta":80359632},{"NoteNumber":68,"Velocity":69,"Duration":345326,"SoundDuration":345326,"Delta":80478936},{"NoteNumber":47,"Velocity":40,"Duration":113011,"SoundDuration":113011,"Delta":80598239},{"NoteNumber":52,"Velocity":43,"Duration":113011,"SoundDuration":113011,"Delta":80711250},{"NoteNumber":76,"Velocity":53,"Duration":118830,"SoundDuration":118830,"Delta":80824262},{"NoteNumber":62,"Velocity":40,"Duration":118830,"SoundDuration":118830,"Delta":80824262},{"NoteNumber":67,"Velocity":70,"Duration":344005,"SoundDuration":344005,"Delta":80943093},{"NoteNumber":46,"Velocity":38,"Duration":112587,"SoundDuration":112587,"Delta":81061923},{"NoteNumber":52,"Velocity":46,"Duration":112587,"SoundDuration":112587,"Delta":81174511},{"NoteNumber":76,"Velocity":53,"Duration":119779,"SoundDuration":119779,"Delta":81287098},{"NoteNumber":61,"Velocity":38,"Duration":119779,"SoundDuration":119779,"Delta":81287098},{"NoteNumber":68,"Velocity":69,"Duration":344953,"SoundDuration":344953,"Delta":81406877},{"NoteNumber":47,"Velocity":38,"Duration":112587,"SoundDuration":112587,"Delta":81526657},{"NoteNumber":52,"Velocity":44,"Duration":112587,"SoundDuration":112587,"Delta":81639244},{"NoteNumber":77,"Velocity":50,"Duration":135464,"SoundDuration":135464,"Delta":81751831},{"NoteNumber":62,"Velocity":38,"Duration":135464,"SoundDuration":135464,"Delta":81751831},{"NoteNumber":78,"Velocity":67,"Duration":372732,"SoundDuration":372732,"Delta":81887296},{"NoteNumber":50,"Velocity":36,"Duration":124244,"SoundDuration":124244,"Delta":82011540},{"NoteNumber":56,"Velocity":36,"Duration":124244,"SoundDuration":124244,"Delta":82135785},{"NoteNumber":68,"Velocity":54,"Duration":123093,"SoundDuration":123093,"Delta":82260029},{"NoteNumber":59,"Velocity":36,"Duration":123093,"SoundDuration":123093,"Delta":82260029},{"NoteNumber":69,"Velocity":53,"Duration":116958,"SoundDuration":116958,"Delta":82383122},{"NoteNumber":66,"Velocity":45,"Duration":116958,"SoundDuration":116958,"Delta":82383122},{"NoteNumber":70,"Velocity":54,"Duration":116485,"SoundDuration":116485,"Delta":82500081},{"NoteNumber":71,"Velocity":55,"Duration":116072,"SoundDuration":116072,"Delta":82616566},{"NoteNumber":72,"Velocity":57,"Duration":115643,"SoundDuration":115643,"Delta":82732638},{"NoteNumber":73,"Velocity":58,"Duration":115180,"SoundDuration":115180,"Delta":82848282},{"NoteNumber":74,"Velocity":60,"Duration":114791,"SoundDuration":114791,"Delta":82963462},{"NoteNumber":75,"Velocity":61,"Duration":114339,"SoundDuration":114339,"Delta":83078254},{"NoteNumber":76,"Velocity":63,"Duration":113956,"SoundDuration":113956,"Delta":83192594},{"NoteNumber":81,"Velocity":69,"Duration":113956,"SoundDuration":113956,"Delta":83306550},{"NoteNumber":76,"Velocity":60,"Duration":114547,"SoundDuration":114547,"Delta":83420506},{"NoteNumber":49,"Velocity":40,"Duration":114547,"SoundDuration":114547,"Delta":83420506},{"NoteNumber":73,"Velocity":62,"Duration":115144,"SoundDuration":115144,"Delta":83535053},{"NoteNumber":57,"Velocity":44,"Duration":115144,"SoundDuration":115144,"Delta":83535053},{"NoteNumber":69,"Velocity":60,"Duration":137325,"SoundDuration":137325,"Delta":83650197},{"NoteNumber":64,"Velocity":40,"Duration":137325,"SoundDuration":137325,"Delta":83650197},{"NoteNumber":85,"Velocity":76,"Duration":372732,"SoundDuration":372732,"Delta":83787522},{"NoteNumber":57,"Velocity":39,"Duration":124244,"SoundDuration":124244,"Delta":83911766},{"NoteNumber":63,"Velocity":39,"Duration":124244,"SoundDuration":124244,"Delta":84036011},{"NoteNumber":75,"Velocity":60,"Duration":123093,"SoundDuration":123093,"Delta":84160255},{"NoteNumber":66,"Velocity":40,"Duration":123093,"SoundDuration":123093,"Delta":84160255},{"NoteNumber":76,"Velocity":58,"Duration":116958,"SoundDuration":116958,"Delta":84283348},{"NoteNumber":73,"Velocity":50,"Duration":116958,"SoundDuration":116958,"Delta":84283348},{"NoteNumber":77,"Velocity":59,"Duration":116485,"SoundDuration":116485,"Delta":84400307},{"NoteNumber":78,"Velocity":61,"Duration":116072,"SoundDuration":116072,"Delta":84516792},{"NoteNumber":79,"Velocity":62,"Duration":115643,"SoundDuration":115643,"Delta":84632864},{"NoteNumber":80,"Velocity":64,"Duration":115180,"SoundDuration":115180,"Delta":84748508},{"NoteNumber":81,"Velocity":66,"Duration":114791,"SoundDuration":114791,"Delta":84863688},{"NoteNumber":82,"Velocity":67,"Duration":114339,"SoundDuration":114339,"Delta":84978480},{"NoteNumber":83,"Velocity":69,"Duration":113956,"SoundDuration":113956,"Delta":85092820},{"NoteNumber":88,"Velocity":78,"Duration":113956,"SoundDuration":113956,"Delta":85206776},{"NoteNumber":83,"Velocity":67,"Duration":114547,"SoundDuration":114547,"Delta":85320732},{"NoteNumber":56,"Velocity":46,"Duration":114547,"SoundDuration":114547,"Delta":85320732},{"NoteNumber":80,"Velocity":74,"Duration":115144,"SoundDuration":115144,"Delta":85435279},{"NoteNumber":64,"Velocity":54,"Duration":115144,"SoundDuration":115144,"Delta":85435279},{"NoteNumber":76,"Velocity":65,"Duration":126337,"SoundDuration":126337,"Delta":85550423},{"NoteNumber":71,"Velocity":49,"Duration":126337,"SoundDuration":126337,"Delta":85550423},{"NoteNumber":90,"Velocity":90,"Duration":372732,"SoundDuration":372732,"Delta":85676760},{"NoteNumber":62,"Velocity":49,"Duration":124244,"SoundDuration":124244,"Delta":85801004},{"NoteNumber":68,"Velocity":52,"Duration":124244,"SoundDuration":124244,"Delta":85925248},{"NoteNumber":80,"Velocity":70,"Duration":123093,"SoundDuration":123093,"Delta":86049493},{"NoteNumber":71,"Velocity":56,"Duration":123093,"SoundDuration":123093,"Delta":86049493},{"NoteNumber":81,"Velocity":70,"Duration":116958,"SoundDuration":116958,"Delta":86172586},{"NoteNumber":78,"Velocity":59,"Duration":116958,"SoundDuration":116958,"Delta":86172586},{"NoteNumber":82,"Velocity":71,"Duration":116485,"SoundDuration":116485,"Delta":86289545},{"NoteNumber":83,"Velocity":72,"Duration":116072,"SoundDuration":116072,"Delta":86406030},{"NoteNumber":84,"Velocity":74,"Duration":115643,"SoundDuration":115643,"Delta":86522102},{"NoteNumber":85,"Velocity":75,"Duration":115180,"SoundDuration":115180,"Delta":86637745},{"NoteNumber":86,"Velocity":77,"Duration":114791,"SoundDuration":114791,"Delta":86752926},{"NoteNumber":87,"Velocity":77,"Duration":114339,"SoundDuration":114339,"Delta":86867718},{"NoteNumber":88,"Velocity":77,"Duration":113956,"SoundDuration":113956,"Delta":86982058},{"NoteNumber":93,"Velocity":90,"Duration":113956,"SoundDuration":113956,"Delta":87096014},{"NoteNumber":88,"Velocity":80,"Duration":114547,"SoundDuration":114547,"Delta":87209970},{"NoteNumber":61,"Velocity":52,"Duration":114547,"SoundDuration":114547,"Delta":87209970},{"NoteNumber":85,"Velocity":83,"Duration":115144,"SoundDuration":115144,"Delta":87324517},{"NoteNumber":69,"Velocity":60,"Duration":115144,"SoundDuration":115144,"Delta":87324517},{"NoteNumber":81,"Velocity":79,"Duration":126337,"SoundDuration":126337,"Delta":87439661},{"NoteNumber":76,"Velocity":53,"Duration":124231,"SoundDuration":124231,"Delta":87439661},{"NoteNumber":76,"Velocity":90,"Duration":344261,"SoundDuration":344261,"Delta":87565998},{"NoteNumber":52,"Velocity":45,"Duration":113869,"SoundDuration":113869,"Delta":87682521},{"NoteNumber":61,"Velocity":48,"Duration":113869,"SoundDuration":113869,"Delta":87796390},{"NoteNumber":85,"Velocity":66,"Duration":119303,"SoundDuration":119303,"Delta":87910259},{"NoteNumber":69,"Velocity":44,"Duration":119303,"SoundDuration":119303,"Delta":87910259},{"NoteNumber":73,"Velocity":84,"Duration":345326,"SoundDuration":345326,"Delta":88029563},{"NoteNumber":81,"Velocity":61,"Duration":122719,"SoundDuration":122719,"Delta":88374889},{"NoteNumber":69,"Velocity":70,"Duration":356673,"SoundDuration":356673,"Delta":88497608},{"NoteNumber":52,"Velocity":37,"Duration":116977,"SoundDuration":116977,"Delta":88620328},{"NoteNumber":60,"Velocity":44,"Duration":116977,"SoundDuration":116977,"Delta":88737305},{"NoteNumber":78,"Velocity":51,"Duration":125281,"SoundDuration":125281,"Delta":88854282},{"NoteNumber":69,"Velocity":36,"Duration":125281,"SoundDuration":125281,"Delta":88854282},{"NoteNumber":66,"Velocity":64,"Duration":365801,"SoundDuration":365801,"Delta":88979564},{"NoteNumber":75,"Velocity":42,"Duration":135464,"SoundDuration":135464,"Delta":89345366},{"NoteNumber":65,"Velocity":57,"Duration":390000,"SoundDuration":390000,"Delta":89480831},{"NoteNumber":52,"Velocity":33,"Duration":129054,"SoundDuration":129054,"Delta":89612722},{"NoteNumber":59,"Velocity":35,"Duration":129054,"SoundDuration":129054,"Delta":89741776},{"NoteNumber":74,"Velocity":43,"Duration":144606,"SoundDuration":144606,"Delta":89870831},{"NoteNumber":68,"Velocity":32,"Duration":144606,"SoundDuration":144606,"Delta":89870831},{"NoteNumber":62,"Velocity":55,"Duration":418004,"SoundDuration":418004,"Delta":90015437},{"NoteNumber":71,"Velocity":39,"Duration":153484,"SoundDuration":153484,"Delta":90433442},{"NoteNumber":64,"Velocity":60,"Duration":390630,"SoundDuration":390630,"Delta":91721892},{"NoteNumber":40,"Velocity":29,"Duration":126337,"SoundDuration":126337,"Delta":91859848},{"NoteNumber":49,"Velocity":33,"Duration":126336,"SoundDuration":126336,"Delta":91986185},{"NoteNumber":73,"Velocity":38,"Duration":137325,"SoundDuration":137325,"Delta":92112522},{"NoteNumber":57,"Velocity":30,"Duration":137325,"SoundDuration":137325,"Delta":92112522},{"NoteNumber":61,"Velocity":53,"Duration":397345,"SoundDuration":397345,"Delta":92249847},{"NoteNumber":69,"Velocity":35,"Duration":143912,"SoundDuration":143912,"Delta":92647193},{"NoteNumber":57,"Velocity":50,"Duration":408860,"SoundDuration":408860,"Delta":92791106},{"NoteNumber":40,"Velocity":28,"Duration":132473,"SoundDuration":132473,"Delta":92935018},{"NoteNumber":48,"Velocity":31,"Duration":132473,"SoundDuration":132473,"Delta":93067492},{"NoteNumber":66,"Velocity":36,"Duration":145306,"SoundDuration":145306,"Delta":93199966},{"NoteNumber":57,"Velocity":30,"Duration":145306,"SoundDuration":145306,"Delta":93199966},{"NoteNumber":54,"Velocity":46,"Duration":412614,"SoundDuration":412614,"Delta":93345272},{"NoteNumber":63,"Velocity":29,"Duration":151929,"SoundDuration":151929,"Delta":93757887},{"NoteNumber":53,"Velocity":42,"Duration":435496,"SoundDuration":435496,"Delta":93909816},{"NoteNumber":40,"Velocity":27,"Duration":142544,"SoundDuration":142544,"Delta":94060222},{"NoteNumber":47,"Velocity":30,"Duration":142544,"SoundDuration":142544,"Delta":94202767},{"NoteNumber":62,"Velocity":29,"Duration":162637,"SoundDuration":162637,"Delta":94345312},{"NoteNumber":56,"Velocity":24,"Duration":162637,"SoundDuration":162637,"Delta":94345312},{"NoteNumber":50,"Velocity":40,"Duration":457535,"SoundDuration":457535,"Delta":94507949},{"NoteNumber":59,"Velocity":27,"Duration":167168,"SoundDuration":167168,"Delta":94965485},{"NoteNumber":49,"Velocity":36,"Duration":482195,"SoundDuration":482195,"Delta":95132653},{"NoteNumber":33,"Velocity":28,"Duration":157513,"SoundDuration":157513,"Delta":95299821},{"NoteNumber":40,"Velocity":34,"Duration":157513,"SoundDuration":157513,"Delta":95457335},{"NoteNumber":57,"Velocity":28,"Duration":419815,"SoundDuration":419815,"Delta":95614848},{"NoteNumber":21,"Velocity":47,"Duration":839630,"SoundDuration":839630,"Delta":96034664}],"license":{"name":"Creative Commons Attribution-ShareAlike 3.0 Germany","url":"http://creativecommons.org/licenses/by-sa/3.0/de/deed.en","text":"The MIDI, audio (MP3, OGG) and video files of Bernd Krueger are licensed under the cc-by-sa Germany License. This means that you can use and adapt the files, as long as you attribute the copyright holder.\n\nName: Bernd Krueger\nSource: http://www.piano-midi.de\n\nThe distribution or public playback of the files is only allowed under identical license conditions.\n\nThe scores are open source.","attribution":"MIDI files by Bernd Krueger (piano-midi.de)","attributionUrl":"http://www.piano-midi.de"}}