{"title":"Grieg: Lyrische Stücke, Bächlein, Opus 62 Nr. 4","artist":"Grieg","durationMs":83298,"midiSha256":"3942a2e631c2e775e8fc762d3dda6f51bc180cce7d91abec2a8342d46765eaaa","midiObject":[{"NoteNumber":71,"Velocity":45,"Duration":87998,"SoundDuration":87998,"Delta":0},{"NoteNumber":59,"Velocity":27,"Duration":788640,"SoundDuration":788640,"Delta":0},{"NoteNumber":66,"Velocity":36,"Duration":87998,"SoundDuration":87998,"Delta":0},{"NoteNumber":74,"Velocity":34,"Duration":87811,"SoundDuration":87811,"Delta":87998},{"NoteNumber":67,"Velocity":28,"Duration":87811,"SoundDuration":87811,"Delta":87998},{"NoteNumber":73,"Velocity":38,"Duration":87616,"SoundDuration":87616,"Delta":175809},{"NoteNumber":66,"Velocity":33,"Duration":87616,"SoundDuration":87616,"Delta":175809},{"NoteNumber":76,"Velocity":32,"Duration":87372,"SoundDuration":87372,"Delta":263426},{"NoteNumber":67,"Velocity":27,"Duration":87372,"SoundDuration":87372,"Delta":263426},{"NoteNumber":74,"Velocity":35,"Duration":87190,"SoundDuration":87190,"Delta":350798},{"NoteNumber":66,"Velocity":30,"Duration":87190,"SoundDuration":87190,"Delta":350798},{"NoteNumber":78,"Velocity":29,"Duration":87007,"SoundDuration":87007,"Delta":437989},{"NoteNumber":67,"Velocity":25,"Duration":87007,"SoundDuration":87007,"Delta":437989},{"NoteNumber":76,"Velocity":31,"Duration":86786,"SoundDuration":86786,"Delta":524996},{"NoteNumber":66,"Velocity":27,"Duration":86786,"SoundDuration":86786,"Delta":524996},{"NoteNumber":79,"Velocity":26,"Duration":86605,"SoundDuration":86605,"Delta":611783},{"NoteNumber":67,"Velocity":22,"Duration":86605,"SoundDuration":86605,"Delta":611783},{"NoteNumber":74,"Velocity":30,"Duration":90252,"SoundDuration":90252,"Delta":698388},{"NoteNumber":78,"Velocity":30,"Duration":90252,"SoundDuration":90252,"Delta":698388},{"NoteNumber":66,"Velocity":24,"Duration":90252,"SoundDuration":90252,"Delta":698388},{"NoteNumber":71,"Velocity":45,"Duration":88079,"SoundDuration":88079,"Delta":1058727},{"NoteNumber":59,"Velocity":27,"Duration":788674,"SoundDuration":788674,"Delta":1058727},{"NoteNumber":66,"Velocity":36,"Duration":88079,"SoundDuration":88079,"Delta":1058727},{"NoteNumber":74,"Velocity":34,"Duration":87854,"SoundDuration":87854,"Delta":1146807},{"NoteNumber":67,"Velocity":28,"Duration":87854,"SoundDuration":87854,"Delta":1146807},{"NoteNumber":73,"Velocity":38,"Duration":87616,"SoundDuration":87616,"Delta":1234661},{"NoteNumber":66,"Velocity":33,"Duration":87616,"SoundDuration":87616,"Delta":1234661},{"NoteNumber":76,"Velocity":32,"Duration":87372,"SoundDuration":87372,"Delta":1322278},{"NoteNumber":67,"Velocity":27,"Duration":87372,"SoundDuration":87372,"Delta":1322278},{"NoteNumber":74,"Velocity":36,"Duration":87148,"SoundDuration":87148,"Delta":1409650},{"NoteNumber":66,"Velocity":31,"Duration":87148,"SoundDuration":87148,"Delta":1409650},{"NoteNumber":78,"Velocity":29,"Duration":86927,"SoundDuration":86927,"Delta":1496798},{"NoteNumber":67,"Velocity":25,"Duration":86927,"SoundDuration":86927,"Delta":1496798},{"NoteNumber":76,"Velocity":32,"Duration":86705,"SoundDuration":86705,"Delta":1583726},{"NoteNumber":66,"Velocity":28,"Duration":86705,"SoundDuration":86705,"Delta":1583726},{"NoteNumber":79,"Velocity":27,"Duration":86445,"SoundDuration":86445,"Delta":1670431},{"NoteNumber":67,"Velocity":23,"Duration":86445,"SoundDuration":86445,"Delta":1670431},{"NoteNumber":74,"Velocity":32,"Duration":90524,"SoundDuration":90524,"Delta":1756876},{"NoteNumber":78,"Velocity":32,"Duration":90524,"SoundDuration":90524,"Delta":1756876},{"NoteNumber":66,"Velocity":25,"Duration":90524,"SoundDuration":90524,"Delta":1756876},{"NoteNumber":79,"Velocity":49,"Duration":86846,"SoundDuration":86846,"Delta":2118976},{"NoteNumber":59,"Velocity":27,"Duration":791228,"SoundDuration":791228,"Delta":2118976},{"NoteNumber":66,"Velocity":36,"Duration":86846,"SoundDuration":86846,"Delta":2118976},{"NoteNumber":83,"Velocity":39,"Duration":86784,"SoundDuration":86784,"Delta":2205823},{"NoteNumber":67,"Velocity":29,"Duration":86784,"SoundDuration":86784,"Delta":2205823},{"NoteNumber":78,"Velocity":44,"Duration":87007,"SoundDuration":87007,"Delta":2292607},{"NoteNumber":66,"Velocity":36,"Duration":87007,"SoundDuration":87007,"Delta":2292607},{"NoteNumber":81,"Velocity":38,"Duration":87228,"SoundDuration":87228,"Delta":2379614},{"NoteNumber":67,"Velocity":31,"Duration":87228,"SoundDuration":87228,"Delta":2379614},{"NoteNumber":76,"Velocity":43,"Duration":87453,"SoundDuration":87453,"Delta":2466843},{"NoteNumber":66,"Velocity":36,"Duration":87453,"SoundDuration":87453,"Delta":2466843},{"NoteNumber":79,"Velocity":36,"Duration":87678,"SoundDuration":87678,"Delta":2554296},{"NoteNumber":67,"Velocity":31,"Duration":87678,"SoundDuration":87678,"Delta":2554296},{"NoteNumber":74,"Velocity":41,"Duration":87903,"SoundDuration":87903,"Delta":2641975},{"NoteNumber":66,"Velocity":36,"Duration":87903,"SoundDuration":87903,"Delta":2641975},{"NoteNumber":78,"Velocity":36,"Duration":88131,"SoundDuration":88131,"Delta":2729878},{"NoteNumber":67,"Velocity":31,"Duration":88131,"SoundDuration":88131,"Delta":2729878},{"NoteNumber":73,"Velocity":44,"Duration":92194,"SoundDuration":92194,"Delta":2818010},{"NoteNumber":76,"Velocity":44,"Duration":92194,"SoundDuration":92194,"Delta":2818010},{"NoteNumber":66,"Velocity":35,"Duration":92194,"SoundDuration":92194,"Delta":2818010},{"NoteNumber":78,"Velocity":49,"Duration":86024,"SoundDuration":86024,"Delta":3186787},{"NoteNumber":59,"Velocity":27,"Duration":786245,"SoundDuration":786245,"Delta":3186787},{"NoteNumber":66,"Velocity":36,"Duration":86024,"SoundDuration":86024,"Delta":3186787},{"NoteNumber":81,"Velocity":39,"Duration":85921,"SoundDuration":85921,"Delta":3272812},{"NoteNumber":67,"Velocity":29,"Duration":85921,"SoundDuration":85921,"Delta":3272812},{"NoteNumber":76,"Velocity":44,"Duration":86256,"SoundDuration":86256,"Delta":3358733},{"NoteNumber":66,"Velocity":36,"Duration":86256,"SoundDuration":86256,"Delta":3358733},{"NoteNumber":79,"Velocity":38,"Duration":86594,"SoundDuration":86594,"Delta":3444990},{"NoteNumber":67,"Velocity":31,"Duration":86594,"SoundDuration":86594,"Delta":3444990},{"NoteNumber":74,"Velocity":43,"Duration":86946,"SoundDuration":86946,"Delta":3531584},{"NoteNumber":66,"Velocity":36,"Duration":86946,"SoundDuration":86946,"Delta":3531584},{"NoteNumber":78,"Velocity":36,"Duration":87249,"SoundDuration":87249,"Delta":3618531},{"NoteNumber":67,"Velocity":31,"Duration":87249,"SoundDuration":87249,"Delta":3618531},{"NoteNumber":73,"Velocity":41,"Duration":87625,"SoundDuration":87625,"Delta":3705780},{"NoteNumber":66,"Velocity":36,"Duration":87625,"SoundDuration":87625,"Delta":3705780},{"NoteNumber":76,"Velocity":36,"Duration":87996,"SoundDuration":87996,"Delta":3793406},{"NoteNumber":67,"Velocity":31,"Duration":87996,"SoundDuration":87996,"Delta":3793406},{"NoteNumber":71,"Velocity":44,"Duration":91631,"SoundDuration":91631,"Delta":3881402},{"NoteNumber":74,"Velocity":44,"Duration":91631,"SoundDuration":91631,"Delta":3881402},{"NoteNumber":66,"Velocity":35,"Duration":91631,"SoundDuration":91631,"Delta":3881402},{"NoteNumber":58,"Velocity":33,"Duration":790428,"SoundDuration":790428,"Delta":4247926},{"NoteNumber":66,"Velocity":44,"Duration":88090,"SoundDuration":88090,"Delta":4247926},{"NoteNumber":74,"Velocity":45,"Duration":87946,"SoundDuration":87946,"Delta":4336016},{"NoteNumber":67,"Velocity":36,"Duration":87946,"SoundDuration":87946,"Delta":4336016},{"NoteNumber":73,"Velocity":50,"Duration":87719,"SoundDuration":87719,"Delta":4423963},{"NoteNumber":66,"Velocity":44,"Duration":87719,"SoundDuration":87719,"Delta":4423963},{"NoteNumber":76,"Velocity":45,"Duration":87453,"SoundDuration":87453,"Delta":4511683},{"NoteNumber":67,"Velocity":38,"Duration":87453,"SoundDuration":87453,"Delta":4511683},{"NoteNumber":74,"Velocity":51,"Duration":87230,"SoundDuration":87230,"Delta":4599136},{"NoteNumber":66,"Velocity":44,"Duration":87230,"SoundDuration":87230,"Delta":4599136},{"NoteNumber":78,"Velocity":45,"Duration":87007,"SoundDuration":87007,"Delta":4686366},{"NoteNumber":67,"Velocity":38,"Duration":87007,"SoundDuration":87007,"Delta":4686366},{"NoteNumber":76,"Velocity":52,"Duration":86745,"SoundDuration":86745,"Delta":4773373},{"NoteNumber":66,"Velocity":46,"Duration":86745,"SoundDuration":86745,"Delta":4773373},{"NoteNumber":79,"Velocity":47,"Duration":86605,"SoundDuration":86605,"Delta":4860118},{"NoteNumber":67,"Velocity":40,"Duration":86605,"SoundDuration":86605,"Delta":4860118},{"NoteNumber":74,"Velocity":53,"Duration":91630,"SoundDuration":91630,"Delta":4946723},{"NoteNumber":78,"Velocity":53,"Duration":91630,"SoundDuration":91630,"Delta":4946723},{"NoteNumber":66,"Velocity":42,"Duration":91630,"SoundDuration":91630,"Delta":4946723},{"NoteNumber":57,"Velocity":33,"Duration":788446,"SoundDuration":788446,"Delta":5313247},{"NoteNumber":66,"Velocity":44,"Duration":87784,"SoundDuration":87784,"Delta":5313247},{"NoteNumber":74,"Velocity":45,"Duration":87597,"SoundDuration":87597,"Delta":5401031},{"NoteNumber":67,"Velocity":36,"Duration":87597,"SoundDuration":87597,"Delta":5401031},{"NoteNumber":73,"Velocity":50,"Duration":87361,"SoundDuration":87361,"Delta":5488629},{"NoteNumber":66,"Velocity":44,"Duration":87361,"SoundDuration":87361,"Delta":5488629},{"NoteNumber":76,"Velocity":45,"Duration":87241,"SoundDuration":87241,"Delta":5575991},{"NoteNumber":67,"Velocity":38,"Duration":87241,"SoundDuration":87241,"Delta":5575991},{"NoteNumber":74,"Velocity":51,"Duration":87108,"SoundDuration":87108,"Delta":5663232},{"NoteNumber":66,"Velocity":44,"Duration":87108,"SoundDuration":87108,"Delta":5663232},{"NoteNumber":78,"Velocity":45,"Duration":86887,"SoundDuration":86887,"Delta":5750340},{"NoteNumber":67,"Velocity":38,"Duration":86887,"SoundDuration":86887,"Delta":5750340},{"NoteNumber":76,"Velocity":52,"Duration":86786,"SoundDuration":86786,"Delta":5837227},{"NoteNumber":66,"Velocity":46,"Duration":86786,"SoundDuration":86786,"Delta":5837227},{"NoteNumber":79,"Velocity":47,"Duration":86605,"SoundDuration":86605,"Delta":5924014},{"NoteNumber":67,"Velocity":40,"Duration":86605,"SoundDuration":86605,"Delta":5924014},{"NoteNumber":74,"Velocity":53,"Duration":91074,"SoundDuration":91074,"Delta":6010619},{"NoteNumber":78,"Velocity":53,"Duration":91074,"SoundDuration":91074,"Delta":6010619},{"NoteNumber":66,"Velocity":42,"Duration":91074,"SoundDuration":91074,"Delta":6010619},{"NoteNumber":74,"Velocity":61,"Duration":86681,"SoundDuration":86681,"Delta":6374918},{"NoteNumber":56,"Velocity":44,"Duration":86681,"SoundDuration":86681,"Delta":6374918},{"NoteNumber":78,"Velocity":54,"Duration":86285,"SoundDuration":86285,"Delta":6461600},{"NoteNumber":66,"Velocity":44,"Duration":86285,"SoundDuration":86285,"Delta":6461600},{"NoteNumber":73,"Velocity":61,"Duration":86544,"SoundDuration":86544,"Delta":6547885},{"NoteNumber":56,"Velocity":46,"Duration":86544,"SoundDuration":86544,"Delta":6547885},{"NoteNumber":76,"Velocity":58,"Duration":86845,"SoundDuration":86845,"Delta":6634430},{"NoteNumber":66,"Velocity":48,"Duration":86845,"SoundDuration":86845,"Delta":6634430},{"NoteNumber":71,"Velocity":65,"Duration":87118,"SoundDuration":87118,"Delta":6721275},{"NoteNumber":56,"Velocity":49,"Duration":87118,"SoundDuration":87118,"Delta":6721275},{"NoteNumber":74,"Velocity":59,"Duration":87423,"SoundDuration":87423,"Delta":6808394},{"NoteNumber":66,"Velocity":52,"Duration":87423,"SoundDuration":87423,"Delta":6808394},{"NoteNumber":70,"Velocity":70,"Duration":87687,"SoundDuration":87687,"Delta":6895817},{"NoteNumber":56,"Velocity":53,"Duration":87687,"SoundDuration":87687,"Delta":6895817},{"NoteNumber":73,"Velocity":58,"Duration":87996,"SoundDuration":87996,"Delta":6983505},{"NoteNumber":66,"Velocity":55,"Duration":87996,"SoundDuration":87996,"Delta":6983505},{"NoteNumber":71,"Velocity":72,"Duration":89462,"SoundDuration":89462,"Delta":7071501},{"NoteNumber":55,"Velocity":57,"Duration":89462,"SoundDuration":89462,"Delta":7071501},{"NoteNumber":74,"Velocity":64,"Duration":89712,"SoundDuration":89712,"Delta":7160963},{"NoteNumber":66,"Velocity":59,"Duration":89712,"SoundDuration":89712,"Delta":7160963},{"NoteNumber":73,"Velocity":72,"Duration":89713,"SoundDuration":89713,"Delta":7250676},{"NoteNumber":55,"Velocity":61,"Duration":89713,"SoundDuration":89713,"Delta":7250676},{"NoteNumber":76,"Velocity":65,"Duration":102158,"SoundDuration":102158,"Delta":7340389},{"NoteNumber":66,"Velocity":66,"Duration":102158,"SoundDuration":102158,"Delta":7340389},{"NoteNumber":71,"Velocity":68,"Duration":356128,"SoundDuration":356128,"Delta":7442548},{"NoteNumber":78,"Velocity":80,"Duration":914104,"SoundDuration":914104,"Delta":7442548},{"NoteNumber":73,"Velocity":80,"Duration":914104,"SoundDuration":914104,"Delta":7442548},{"NoteNumber":54,"Velocity":72,"Duration":88484,"SoundDuration":88484,"Delta":7442548},{"NoteNumber":66,"Velocity":52,"Duration":88840,"SoundDuration":88840,"Delta":7531033},{"NoteNumber":54,"Velocity":56,"Duration":89230,"SoundDuration":89230,"Delta":7619874},{"NoteNumber":66,"Velocity":47,"Duration":89572,"SoundDuration":89572,"Delta":7709104},{"NoteNumber":70,"Velocity":52,"Duration":557975,"SoundDuration":557975,"Delta":7798677},{"NoteNumber":54,"Velocity":55,"Duration":89950,"SoundDuration":89950,"Delta":7798677},{"NoteNumber":66,"Velocity":40,"Duration":90361,"SoundDuration":90361,"Delta":7888628},{"NoteNumber":54,"Velocity":46,"Duration":90689,"SoundDuration":90689,"Delta":7978989},{"NoteNumber":66,"Velocity":40,"Duration":91151,"SoundDuration":91151,"Delta":8069679},{"NoteNumber":54,"Velocity":51,"Duration":195822,"SoundDuration":195822,"Delta":8160830},{"NoteNumber":71,"Velocity":45,"Duration":87998,"SoundDuration":87998,"Delta":8552475},{"NoteNumber":59,"Velocity":27,"Duration":785116,"SoundDuration":785116,"Delta":8552475},{"NoteNumber":66,"Velocity":36,"Duration":87998,"SoundDuration":87998,"Delta":8552475},{"NoteNumber":74,"Velocity":34,"Duration":87811,"SoundDuration":87811,"Delta":8640473},{"NoteNumber":67,"Velocity":28,"Duration":87811,"SoundDuration":87811,"Delta":8640473},{"NoteNumber":73,"Velocity":38,"Duration":87616,"SoundDuration":87616,"Delta":8728284},{"NoteNumber":66,"Velocity":33,"Duration":87616,"SoundDuration":87616,"Delta":8728284},{"NoteNumber":76,"Velocity":32,"Duration":87349,"SoundDuration":87349,"Delta":8815901},{"NoteNumber":67,"Velocity":27,"Duration":87349,"SoundDuration":87349,"Delta":8815901},{"NoteNumber":74,"Velocity":35,"Duration":86953,"SoundDuration":86953,"Delta":8903250},{"NoteNumber":66,"Velocity":30,"Duration":86953,"SoundDuration":86953,"Delta":8903250},{"NoteNumber":78,"Velocity":29,"Duration":86334,"SoundDuration":86334,"Delta":8990204},{"NoteNumber":67,"Velocity":25,"Duration":86334,"SoundDuration":86334,"Delta":8990204},{"NoteNumber":76,"Velocity":31,"Duration":85711,"SoundDuration":85711,"Delta":9076538},{"NoteNumber":66,"Velocity":28,"Duration":85711,"SoundDuration":85711,"Delta":9076538},{"NoteNumber":79,"Velocity":26,"Duration":85089,"SoundDuration":85089,"Delta":9162249},{"NoteNumber":67,"Velocity":22,"Duration":85089,"SoundDuration":85089,"Delta":9162249},{"NoteNumber":74,"Velocity":30,"Duration":90252,"SoundDuration":90252,"Delta":9247339},{"NoteNumber":78,"Velocity":30,"Duration":90252,"SoundDuration":90252,"Delta":9247339},{"NoteNumber":66,"Velocity":24,"Duration":90252,"SoundDuration":90252,"Delta":9247339},{"NoteNumber":71,"Velocity":45,"Duration":88079,"SoundDuration":88079,"Delta":9607678},{"NoteNumber":59,"Velocity":27,"Duration":785047,"SoundDuration":785047,"Delta":9607678},{"NoteNumber":66,"Velocity":36,"Duration":88079,"SoundDuration":88079,"Delta":9607678},{"NoteNumber":74,"Velocity":34,"Duration":87854,"SoundDuration":87854,"Delta":9695758},{"NoteNumber":67,"Velocity":28,"Duration":87854,"SoundDuration":87854,"Delta":9695758},{"NoteNumber":73,"Velocity":38,"Duration":87616,"SoundDuration":87616,"Delta":9783612},{"NoteNumber":66,"Velocity":33,"Duration":87616,"SoundDuration":87616,"Delta":9783612},{"NoteNumber":76,"Velocity":32,"Duration":87372,"SoundDuration":87372,"Delta":9871229},{"NoteNumber":67,"Velocity":27,"Duration":87372,"SoundDuration":87372,"Delta":9871229},{"NoteNumber":74,"Velocity":35,"Duration":86924,"SoundDuration":86924,"Delta":9958601},{"NoteNumber":66,"Velocity":30,"Duration":86924,"SoundDuration":86924,"Delta":9958601},{"NoteNumber":78,"Velocity":29,"Duration":86222,"SoundDuration":86222,"Delta":10045526},{"NoteNumber":67,"Velocity":25,"Duration":86222,"SoundDuration":86222,"Delta":10045526},{"NoteNumber":76,"Velocity":31,"Duration":85564,"SoundDuration":85564,"Delta":10131748},{"NoteNumber":66,"Velocity":28,"Duration":85564,"SoundDuration":85564,"Delta":10131748},{"NoteNumber":79,"Velocity":26,"Duration":84887,"SoundDuration":84887,"Delta":10217313},{"NoteNumber":67,"Velocity":22,"Duration":84887,"SoundDuration":84887,"Delta":10217313},{"NoteNumber":74,"Velocity":30,"Duration":90524,"SoundDuration":90524,"Delta":10302200},{"NoteNumber":78,"Velocity":30,"Duration":90524,"SoundDuration":90524,"Delta":10302200},{"NoteNumber":66,"Velocity":24,"Duration":90524,"SoundDuration":90524,"Delta":10302200},{"NoteNumber":79,"Velocity":49,"Duration":85136,"SoundDuration":85136,"Delta":10663386},{"NoteNumber":59,"Velocity":27,"Duration":788628,"SoundDuration":788628,"Delta":10663386},{"NoteNumber":66,"Velocity":36,"Duration":85136,"SoundDuration":85136,"Delta":10663386},{"NoteNumber":83,"Velocity":39,"Duration":86054,"SoundDuration":86054,"Delta":10748522},{"NoteNumber":67,"Velocity":29,"Duration":86054,"SoundDuration":86054,"Delta":10748522},{"NoteNumber":78,"Velocity":44,"Duration":86848,"SoundDuration":86848,"Delta":10834576},{"NoteNumber":66,"Velocity":36,"Duration":86848,"SoundDuration":86848,"Delta":10834576},{"NoteNumber":81,"Velocity":38,"Duration":87228,"SoundDuration":87228,"Delta":10921425},{"NoteNumber":67,"Velocity":31,"Duration":87228,"SoundDuration":87228,"Delta":10921425},{"NoteNumber":76,"Velocity":43,"Duration":87453,"SoundDuration":87453,"Delta":11008654},{"NoteNumber":66,"Velocity":36,"Duration":87453,"SoundDuration":87453,"Delta":11008654},{"NoteNumber":79,"Velocity":36,"Duration":87678,"SoundDuration":87678,"Delta":11096107},{"NoteNumber":67,"Velocity":31,"Duration":87678,"SoundDuration":87678,"Delta":11096107},{"NoteNumber":74,"Velocity":41,"Duration":87903,"SoundDuration":87903,"Delta":11183785},{"NoteNumber":66,"Velocity":36,"Duration":87903,"SoundDuration":87903,"Delta":11183785},{"NoteNumber":78,"Velocity":36,"Duration":88131,"SoundDuration":88131,"Delta":11271689},{"NoteNumber":67,"Velocity":31,"Duration":88131,"SoundDuration":88131,"Delta":11271689},{"NoteNumber":73,"Velocity":44,"Duration":92194,"SoundDuration":92194,"Delta":11359821},{"NoteNumber":76,"Velocity":44,"Duration":92194,"SoundDuration":92194,"Delta":11359821},{"NoteNumber":66,"Velocity":35,"Duration":92194,"SoundDuration":92194,"Delta":11359821},{"NoteNumber":78,"Velocity":49,"Duration":86024,"SoundDuration":86024,"Delta":11728598},{"NoteNumber":59,"Velocity":27,"Duration":786245,"SoundDuration":786245,"Delta":11728598},{"NoteNumber":66,"Velocity":36,"Duration":86024,"SoundDuration":86024,"Delta":11728598},{"NoteNumber":81,"Velocity":39,"Duration":85921,"SoundDuration":85921,"Delta":11814622},{"NoteNumber":67,"Velocity":29,"Duration":85921,"SoundDuration":85921,"Delta":11814622},{"NoteNumber":76,"Velocity":44,"Duration":86256,"SoundDuration":86256,"Delta":11900544},{"NoteNumber":66,"Velocity":36,"Duration":86256,"SoundDuration":86256,"Delta":11900544},{"NoteNumber":79,"Velocity":38,"Duration":86594,"SoundDuration":86594,"Delta":11986800},{"NoteNumber":67,"Velocity":31,"Duration":86594,"SoundDuration":86594,"Delta":11986800},{"NoteNumber":74,"Velocity":43,"Duration":86946,"SoundDuration":86946,"Delta":12073395},{"NoteNumber":66,"Velocity":36,"Duration":86946,"SoundDuration":86946,"Delta":12073395},{"NoteNumber":78,"Velocity":36,"Duration":87249,"SoundDuration":87249,"Delta":12160341},{"NoteNumber":67,"Velocity":31,"Duration":87249,"SoundDuration":87249,"Delta":12160341},{"NoteNumber":73,"Velocity":41,"Duration":87625,"SoundDuration":87625,"Delta":12247591},{"NoteNumber":66,"Velocity":36,"Duration":87625,"SoundDuration":87625,"Delta":12247591},{"NoteNumber":76,"Velocity":36,"Duration":87996,"SoundDuration":87996,"Delta":12335216},{"NoteNumber":67,"Velocity":31,"Duration":87996,"SoundDuration":87996,"Delta":12335216},{"NoteNumber":71,"Velocity":44,"Duration":91630,"SoundDuration":91630,"Delta":12423212},{"NoteNumber":74,"Velocity":44,"Duration":91630,"SoundDuration":91630,"Delta":12423212},{"NoteNumber":66,"Velocity":35,"Duration":91630,"SoundDuration":91630,"Delta":12423212},{"NoteNumber":58,"Velocity":33,"Duration":790428,"SoundDuration":790428,"Delta":12789736},{"NoteNumber":66,"Velocity":44,"Duration":88090,"SoundDuration":88090,"Delta":12789736},{"NoteNumber":74,"Velocity":45,"Duration":87946,"SoundDuration":87946,"Delta":12877827},{"NoteNumber":67,"Velocity":36,"Duration":87946,"SoundDuration":87946,"Delta":12877827},{"NoteNumber":73,"Velocity":50,"Duration":87719,"SoundDuration":87719,"Delta":12965774},{"NoteNumber":66,"Velocity":44,"Duration":87719,"SoundDuration":87719,"Delta":12965774},{"NoteNumber":76,"Velocity":45,"Duration":87453,"SoundDuration":87453,"Delta":13053493},{"NoteNumber":67,"Velocity":38,"Duration":87453,"SoundDuration":87453,"Delta":13053493},{"NoteNumber":74,"Velocity":51,"Duration":87230,"SoundDuration":87230,"Delta":13140946},{"NoteNumber":66,"Velocity":44,"Duration":87230,"SoundDuration":87230,"Delta":13140946},{"NoteNumber":78,"Velocity":45,"Duration":87007,"SoundDuration":87007,"Delta":13228177},{"NoteNumber":67,"Velocity":38,"Duration":87007,"SoundDuration":87007,"Delta":13228177},{"NoteNumber":76,"Velocity":52,"Duration":86745,"SoundDuration":86745,"Delta":13315184},{"NoteNumber":66,"Velocity":46,"Duration":86745,"SoundDuration":86745,"Delta":13315184},{"NoteNumber":79,"Velocity":47,"Duration":86604,"SoundDuration":86604,"Delta":13401929},{"NoteNumber":67,"Velocity":40,"Duration":86604,"SoundDuration":86604,"Delta":13401929},{"NoteNumber":74,"Velocity":53,"Duration":91630,"SoundDuration":91630,"Delta":13488534},{"NoteNumber":78,"Velocity":53,"Duration":91630,"SoundDuration":91630,"Delta":13488534},{"NoteNumber":66,"Velocity":42,"Duration":91630,"SoundDuration":91630,"Delta":13488534},{"NoteNumber":57,"Velocity":33,"Duration":788446,"SoundDuration":788446,"Delta":13855058},{"NoteNumber":66,"Velocity":44,"Duration":87784,"SoundDuration":87784,"Delta":13855058},{"NoteNumber":74,"Velocity":45,"Duration":87597,"SoundDuration":87597,"Delta":13942842},{"NoteNumber":67,"Velocity":36,"Duration":87597,"SoundDuration":87597,"Delta":13942842},{"NoteNumber":73,"Velocity":50,"Duration":87361,"SoundDuration":87361,"Delta":14030440},{"NoteNumber":66,"Velocity":44,"Duration":87361,"SoundDuration":87361,"Delta":14030440},{"NoteNumber":76,"Velocity":45,"Duration":87241,"SoundDuration":87241,"Delta":14117801},{"NoteNumber":67,"Velocity":38,"Duration":87241,"SoundDuration":87241,"Delta":14117801},{"NoteNumber":74,"Velocity":51,"Duration":87108,"SoundDuration":87108,"Delta":14205043},{"NoteNumber":66,"Velocity":44,"Duration":87108,"SoundDuration":87108,"Delta":14205043},{"NoteNumber":78,"Velocity":45,"Duration":86887,"SoundDuration":86887,"Delta":14292151},{"NoteNumber":67,"Velocity":38,"Duration":86887,"SoundDuration":86887,"Delta":14292151},{"NoteNumber":76,"Velocity":52,"Duration":86786,"SoundDuration":86786,"Delta":14379038},{"NoteNumber":66,"Velocity":46,"Duration":86786,"SoundDuration":86786,"Delta":14379038},{"NoteNumber":79,"Velocity":47,"Duration":86604,"SoundDuration":86604,"Delta":14465825},{"NoteNumber":67,"Velocity":40,"Duration":86604,"SoundDuration":86604,"Delta":14465825},{"NoteNumber":74,"Velocity":53,"Duration":91074,"SoundDuration":91074,"Delta":14552430},{"NoteNumber":78,"Velocity":53,"Duration":91074,"SoundDuration":91074,"Delta":14552430},{"NoteNumber":66,"Velocity":42,"Duration":91074,"SoundDuration":91074,"Delta":14552430},{"NoteNumber":74,"Velocity":61,"Duration":86681,"SoundDuration":86681,"Delta":14916729},{"NoteNumber":56,"Velocity":44,"Duration":86681,"SoundDuration":86681,"Delta":14916729},{"NoteNumber":78,"Velocity":54,"Duration":86285,"SoundDuration":86285,"Delta":15003410},{"NoteNumber":66,"Velocity":44,"Duration":86285,"SoundDuration":86285,"Delta":15003410},{"NoteNumber":73,"Velocity":61,"Duration":86544,"SoundDuration":86544,"Delta":15089696},{"NoteNumber":56,"Velocity":46,"Duration":86544,"SoundDuration":86544,"Delta":15089696},{"NoteNumber":76,"Velocity":58,"Duration":86845,"SoundDuration":86845,"Delta":15176241},{"NoteNumber":66,"Velocity":48,"Duration":86845,"SoundDuration":86845,"Delta":15176241},{"NoteNumber":71,"Velocity":65,"Duration":87118,"SoundDuration":87118,"Delta":15263086},{"NoteNumber":56,"Velocity":49,"Duration":87118,"SoundDuration":87118,"Delta":15263086},{"NoteNumber":74,"Velocity":59,"Duration":87423,"SoundDuration":87423,"Delta":15350205},{"NoteNumber":66,"Velocity":52,"Duration":87423,"SoundDuration":87423,"Delta":15350205},{"NoteNumber":70,"Velocity":70,"Duration":87687,"SoundDuration":87687,"Delta":15437628},{"NoteNumber":56,"Velocity":53,"Duration":87687,"SoundDuration":87687,"Delta":15437628},{"NoteNumber":73,"Velocity":58,"Duration":87996,"SoundDuration":87996,"Delta":15525315},{"NoteNumber":66,"Velocity":55,"Duration":87996,"SoundDuration":87996,"Delta":15525315},{"NoteNumber":71,"Velocity":72,"Duration":89462,"SoundDuration":89462,"Delta":15613311},{"NoteNumber":55,"Velocity":57,"Duration":89462,"SoundDuration":89462,"Delta":15613311},{"NoteNumber":74,"Velocity":64,"Duration":89712,"SoundDuration":89712,"Delta":15702774},{"NoteNumber":66,"Velocity":59,"Duration":89712,"SoundDuration":89712,"Delta":15702774},{"NoteNumber":73,"Velocity":72,"Duration":89712,"SoundDuration":89712,"Delta":15792487},{"NoteNumber":55,"Velocity":61,"Duration":89712,"SoundDuration":89712,"Delta":15792487},{"NoteNumber":76,"Velocity":65,"Duration":102158,"SoundDuration":102158,"Delta":15882200},{"NoteNumber":66,"Velocity":66,"Duration":102158,"SoundDuration":102158,"Delta":15882200},{"NoteNumber":71,"Velocity":68,"Duration":356128,"SoundDuration":356128,"Delta":15984359},{"NoteNumber":78,"Velocity":80,"Duration":912834,"SoundDuration":912834,"Delta":15984359},{"NoteNumber":73,"Velocity":80,"Duration":912834,"SoundDuration":912834,"Delta":15984359},{"NoteNumber":54,"Velocity":72,"Duration":88484,"SoundDuration":88484,"Delta":15984359},{"NoteNumber":66,"Velocity":52,"Duration":88840,"SoundDuration":88840,"Delta":16072843},{"NoteNumber":54,"Velocity":56,"Duration":89230,"SoundDuration":89230,"Delta":16161684},{"NoteNumber":66,"Velocity":47,"Duration":89572,"SoundDuration":89572,"Delta":16250915},{"NoteNumber":70,"Velocity":52,"Duration":556705,"SoundDuration":556705,"Delta":16340487},{"NoteNumber":54,"Velocity":55,"Duration":89950,"SoundDuration":89950,"Delta":16340487},{"NoteNumber":66,"Velocity":40,"Duration":90361,"SoundDuration":90361,"Delta":16430438},{"NoteNumber":54,"Velocity":46,"Duration":90689,"SoundDuration":90689,"Delta":16520800},{"NoteNumber":66,"Velocity":40,"Duration":91151,"SoundDuration":91151,"Delta":16611489},{"NoteNumber":54,"Velocity":51,"Duration":194552,"SoundDuration":194552,"Delta":16702640},{"NoteNumber":81,"Velocity":40,"Duration":87998,"SoundDuration":87998,"Delta":17091745},{"NoteNumber":64,"Velocity":32,"Duration":87998,"SoundDuration":87998,"Delta":17091745},{"NoteNumber":73,"Velocity":32,"Duration":87811,"SoundDuration":87811,"Delta":17179743},{"NoteNumber":66,"Velocity":22,"Duration":87811,"SoundDuration":87811,"Delta":17179743},{"NoteNumber":70,"Velocity":26,"Duration":87811,"SoundDuration":87811,"Delta":17179743},{"NoteNumber":79,"Velocity":36,"Duration":87616,"SoundDuration":87616,"Delta":17267555},{"NoteNumber":64,"Velocity":32,"Duration":87616,"SoundDuration":87616,"Delta":17267555},{"NoteNumber":73,"Velocity":32,"Duration":87372,"SoundDuration":87372,"Delta":17355172},{"NoteNumber":66,"Velocity":22,"Duration":87372,"SoundDuration":87372,"Delta":17355172},{"NoteNumber":70,"Velocity":27,"Duration":87372,"SoundDuration":87372,"Delta":17355172},{"NoteNumber":78,"Velocity":29,"Duration":87190,"SoundDuration":87190,"Delta":17442544},{"NoteNumber":64,"Velocity":25,"Duration":87190,"SoundDuration":87190,"Delta":17442544},{"NoteNumber":73,"Velocity":25,"Duration":87007,"SoundDuration":87007,"Delta":17529734},{"NoteNumber":66,"Velocity":17,"Duration":87007,"SoundDuration":87007,"Delta":17529734},{"NoteNumber":70,"Velocity":21,"Duration":87007,"SoundDuration":87007,"Delta":17529734},{"NoteNumber":78,"Velocity":28,"Duration":86786,"SoundDuration":86786,"Delta":17616742},{"NoteNumber":64,"Velocity":25,"Duration":86786,"SoundDuration":86786,"Delta":17616742},{"NoteNumber":73,"Velocity":25,"Duration":86605,"SoundDuration":86605,"Delta":17703528},{"NoteNumber":66,"Velocity":17,"Duration":86605,"SoundDuration":86605,"Delta":17703528},{"NoteNumber":70,"Velocity":21,"Duration":86605,"SoundDuration":86605,"Delta":17703528},{"NoteNumber":78,"Velocity":39,"Duration":90252,"SoundDuration":90252,"Delta":17790133},{"NoteNumber":64,"Velocity":31,"Duration":90252,"SoundDuration":90252,"Delta":17790133},{"NoteNumber":81,"Velocity":40,"Duration":87998,"SoundDuration":87998,"Delta":18150473},{"NoteNumber":62,"Velocity":32,"Duration":87998,"SoundDuration":87998,"Delta":18150473},{"NoteNumber":74,"Velocity":32,"Duration":87811,"SoundDuration":87811,"Delta":18238471},{"NoteNumber":66,"Velocity":22,"Duration":87811,"SoundDuration":87811,"Delta":18238471},{"NoteNumber":71,"Velocity":26,"Duration":87811,"SoundDuration":87811,"Delta":18238471},{"NoteNumber":79,"Velocity":36,"Duration":87616,"SoundDuration":87616,"Delta":18326282},{"NoteNumber":62,"Velocity":32,"Duration":87616,"SoundDuration":87616,"Delta":18326282},{"NoteNumber":74,"Velocity":32,"Duration":87372,"SoundDuration":87372,"Delta":18413899},{"NoteNumber":66,"Velocity":22,"Duration":87372,"SoundDuration":87372,"Delta":18413899},{"NoteNumber":71,"Velocity":27,"Duration":87372,"SoundDuration":87372,"Delta":18413899},{"NoteNumber":78,"Velocity":29,"Duration":87190,"SoundDuration":87190,"Delta":18501271},{"NoteNumber":62,"Velocity":25,"Duration":87190,"SoundDuration":87190,"Delta":18501271},{"NoteNumber":74,"Velocity":25,"Duration":87007,"SoundDuration":87007,"Delta":18588462},{"NoteNumber":66,"Velocity":17,"Duration":87007,"SoundDuration":87007,"Delta":18588462},{"NoteNumber":71,"Velocity":21,"Duration":87007,"SoundDuration":87007,"Delta":18588462},{"NoteNumber":78,"Velocity":28,"Duration":86786,"SoundDuration":86786,"Delta":18675469},{"NoteNumber":62,"Velocity":25,"Duration":86786,"SoundDuration":86786,"Delta":18675469},{"NoteNumber":74,"Velocity":25,"Duration":86605,"SoundDuration":86605,"Delta":18762256},{"NoteNumber":66,"Velocity":17,"Duration":86605,"SoundDuration":86605,"Delta":18762256},{"NoteNumber":71,"Velocity":21,"Duration":86605,"SoundDuration":86605,"Delta":18762256},{"NoteNumber":78,"Velocity":39,"Duration":90252,"SoundDuration":90252,"Delta":18848861},{"NoteNumber":62,"Velocity":31,"Duration":90252,"SoundDuration":90252,"Delta":18848861},{"NoteNumber":83,"Velocity":40,"Duration":87998,"SoundDuration":87998,"Delta":19209872},{"NoteNumber":65,"Velocity":32,"Duration":87998,"SoundDuration":87998,"Delta":19209872},{"NoteNumber":75,"Velocity":32,"Duration":87811,"SoundDuration":87811,"Delta":19297870},{"NoteNumber":67,"Velocity":22,"Duration":87811,"SoundDuration":87811,"Delta":19297870},{"NoteNumber":71,"Velocity":26,"Duration":87811,"SoundDuration":87811,"Delta":19297870},{"NoteNumber":81,"Velocity":36,"Duration":87616,"SoundDuration":87616,"Delta":19385681},{"NoteNumber":65,"Velocity":32,"Duration":87616,"SoundDuration":87616,"Delta":19385681},{"NoteNumber":75,"Velocity":32,"Duration":87372,"SoundDuration":87372,"Delta":19473298},{"NoteNumber":67,"Velocity":22,"Duration":87372,"SoundDuration":87372,"Delta":19473298},{"NoteNumber":71,"Velocity":27,"Duration":87372,"SoundDuration":87372,"Delta":19473298},{"NoteNumber":79,"Velocity":29,"Duration":87224,"SoundDuration":87224,"Delta":19560671},{"NoteNumber":65,"Velocity":25,"Duration":87224,"SoundDuration":87224,"Delta":19560671},{"NoteNumber":75,"Velocity":25,"Duration":86527,"SoundDuration":86527,"Delta":19647895},{"NoteNumber":67,"Velocity":17,"Duration":86527,"SoundDuration":86527,"Delta":19647895},{"NoteNumber":71,"Velocity":21,"Duration":86527,"SoundDuration":86527,"Delta":19647895},{"NoteNumber":79,"Velocity":28,"Duration":85500,"SoundDuration":85500,"Delta":19734422},{"NoteNumber":65,"Velocity":25,"Duration":85500,"SoundDuration":85500,"Delta":19734422},{"NoteNumber":75,"Velocity":25,"Duration":84461,"SoundDuration":84461,"Delta":19819923},{"NoteNumber":67,"Velocity":17,"Duration":84461,"SoundDuration":84461,"Delta":19819923},{"NoteNumber":71,"Velocity":21,"Duration":84461,"SoundDuration":84461,"Delta":19819923},{"NoteNumber":79,"Velocity":39,"Duration":90252,"SoundDuration":90252,"Delta":19904384},{"NoteNumber":65,"Velocity":31,"Duration":90252,"SoundDuration":90252,"Delta":19904384},{"NoteNumber":83,"Velocity":40,"Duration":87998,"SoundDuration":87998,"Delta":20265395},{"NoteNumber":64,"Velocity":32,"Duration":87998,"SoundDuration":87998,"Delta":20265395},{"NoteNumber":76,"Velocity":32,"Duration":87811,"SoundDuration":87811,"Delta":20353393},{"NoteNumber":67,"Velocity":22,"Duration":87811,"SoundDuration":87811,"Delta":20353393},{"NoteNumber":72,"Velocity":26,"Duration":87811,"SoundDuration":87811,"Delta":20353393},{"NoteNumber":81,"Velocity":36,"Duration":87616,"SoundDuration":87616,"Delta":20441205},{"NoteNumber":64,"Velocity":32,"Duration":87616,"SoundDuration":87616,"Delta":20441205},{"NoteNumber":76,"Velocity":32,"Duration":87372,"SoundDuration":87372,"Delta":20528822},{"NoteNumber":67,"Velocity":22,"Duration":87372,"SoundDuration":87372,"Delta":20528822},{"NoteNumber":72,"Velocity":27,"Duration":87372,"SoundDuration":87372,"Delta":20528822},{"NoteNumber":79,"Velocity":29,"Duration":86740,"SoundDuration":86740,"Delta":20616194},{"NoteNumber":64,"Velocity":25,"Duration":86740,"SoundDuration":86740,"Delta":20616194},{"NoteNumber":76,"Velocity":25,"Duration":85870,"SoundDuration":85870,"Delta":20702935},{"NoteNumber":67,"Velocity":17,"Duration":85870,"SoundDuration":85870,"Delta":20702935},{"NoteNumber":72,"Velocity":21,"Duration":85870,"SoundDuration":85870,"Delta":20702935},{"NoteNumber":79,"Velocity":28,"Duration":85206,"SoundDuration":85206,"Delta":20788806},{"NoteNumber":64,"Velocity":25,"Duration":85206,"SoundDuration":85206,"Delta":20788806},{"NoteNumber":76,"Velocity":25,"Duration":84564,"SoundDuration":84564,"Delta":20874012},{"NoteNumber":67,"Velocity":17,"Duration":84564,"SoundDuration":84564,"Delta":20874012},{"NoteNumber":72,"Velocity":21,"Duration":84564,"SoundDuration":84564,"Delta":20874012},{"NoteNumber":79,"Velocity":39,"Duration":90252,"SoundDuration":90252,"Delta":20958576},{"NoteNumber":64,"Velocity":31,"Duration":90252,"SoundDuration":90252,"Delta":20958576},{"NoteNumber":84,"Velocity":50,"Duration":87998,"SoundDuration":87998,"Delta":21319587},{"NoteNumber":67,"Velocity":39,"Duration":87998,"SoundDuration":87998,"Delta":21319587},{"NoteNumber":76,"Velocity":39,"Duration":87811,"SoundDuration":87811,"Delta":21407585},{"NoteNumber":69,"Velocity":27,"Duration":87811,"SoundDuration":87811,"Delta":21407585},{"NoteNumber":73,"Velocity":31,"Duration":87811,"SoundDuration":87811,"Delta":21407585},{"NoteNumber":82,"Velocity":45,"Duration":87616,"SoundDuration":87616,"Delta":21495397},{"NoteNumber":67,"Velocity":39,"Duration":87616,"SoundDuration":87616,"Delta":21495397},{"NoteNumber":76,"Velocity":39,"Duration":87372,"SoundDuration":87372,"Delta":21583014},{"NoteNumber":69,"Velocity":27,"Duration":87372,"SoundDuration":87372,"Delta":21583014},{"NoteNumber":73,"Velocity":34,"Duration":87372,"SoundDuration":87372,"Delta":21583014},{"NoteNumber":81,"Velocity":36,"Duration":87190,"SoundDuration":87190,"Delta":21670386},{"NoteNumber":67,"Velocity":30,"Duration":87190,"SoundDuration":87190,"Delta":21670386},{"NoteNumber":76,"Velocity":30,"Duration":87007,"SoundDuration":87007,"Delta":21757576},{"NoteNumber":69,"Velocity":20,"Duration":87007,"SoundDuration":87007,"Delta":21757576},{"NoteNumber":73,"Velocity":26,"Duration":87007,"SoundDuration":87007,"Delta":21757576},{"NoteNumber":81,"Velocity":35,"Duration":86786,"SoundDuration":86786,"Delta":21844584},{"NoteNumber":67,"Velocity":30,"Duration":86786,"SoundDuration":86786,"Delta":21844584},{"NoteNumber":76,"Velocity":30,"Duration":86605,"SoundDuration":86605,"Delta":21931370},{"NoteNumber":69,"Velocity":20,"Duration":86605,"SoundDuration":86605,"Delta":21931370},{"NoteNumber":73,"Velocity":26,"Duration":86605,"SoundDuration":86605,"Delta":21931370},{"NoteNumber":81,"Velocity":48,"Duration":90252,"SoundDuration":90252,"Delta":22017975},{"NoteNumber":67,"Velocity":38,"Duration":90252,"SoundDuration":90252,"Delta":22017975},{"NoteNumber":84,"Velocity":55,"Duration":87998,"SoundDuration":87998,"Delta":22378986},{"NoteNumber":65,"Velocity":42,"Duration":87998,"SoundDuration":87998,"Delta":22378986},{"NoteNumber":77,"Velocity":42,"Duration":87811,"SoundDuration":87811,"Delta":22466985},{"NoteNumber":69,"Velocity":29,"Duration":87811,"SoundDuration":87811,"Delta":22466985},{"NoteNumber":74,"Velocity":34,"Duration":87811,"SoundDuration":87811,"Delta":22466985},{"NoteNumber":82,"Velocity":49,"Duration":87616,"SoundDuration":87616,"Delta":22554796},{"NoteNumber":65,"Velocity":42,"Duration":87616,"SoundDuration":87616,"Delta":22554796},{"NoteNumber":77,"Velocity":42,"Duration":87372,"SoundDuration":87372,"Delta":22642413},{"NoteNumber":69,"Velocity":29,"Duration":87372,"SoundDuration":87372,"Delta":22642413},{"NoteNumber":74,"Velocity":37,"Duration":87372,"SoundDuration":87372,"Delta":22642413},{"NoteNumber":81,"Velocity":39,"Duration":87190,"SoundDuration":87190,"Delta":22729785},{"NoteNumber":65,"Velocity":33,"Duration":87190,"SoundDuration":87190,"Delta":22729785},{"NoteNumber":77,"Velocity":33,"Duration":87007,"SoundDuration":87007,"Delta":22816976},{"NoteNumber":69,"Velocity":22,"Duration":87007,"SoundDuration":87007,"Delta":22816976},{"NoteNumber":74,"Velocity":28,"Duration":87007,"SoundDuration":87007,"Delta":22816976},{"NoteNumber":81,"Velocity":38,"Duration":86786,"SoundDuration":86786,"Delta":22903983},{"NoteNumber":65,"Velocity":33,"Duration":86786,"SoundDuration":86786,"Delta":22903983},{"NoteNumber":77,"Velocity":33,"Duration":86604,"SoundDuration":86604,"Delta":22990769},{"NoteNumber":69,"Velocity":22,"Duration":86604,"SoundDuration":86604,"Delta":22990769},{"NoteNumber":74,"Velocity":28,"Duration":86604,"SoundDuration":86604,"Delta":22990769},{"NoteNumber":81,"Velocity":52,"Duration":90252,"SoundDuration":90252,"Delta":23077374},{"NoteNumber":65,"Velocity":41,"Duration":90252,"SoundDuration":90252,"Delta":23077374},{"NoteNumber":86,"Velocity":60,"Duration":87998,"SoundDuration":87998,"Delta":23438385},{"NoteNumber":68,"Velocity":46,"Duration":87998,"SoundDuration":87998,"Delta":23438385},{"NoteNumber":78,"Velocity":46,"Duration":87811,"SoundDuration":87811,"Delta":23526384},{"NoteNumber":70,"Velocity":31,"Duration":87811,"SoundDuration":87811,"Delta":23526384},{"NoteNumber":74,"Velocity":37,"Duration":87811,"SoundDuration":87811,"Delta":23526384},{"NoteNumber":84,"Velocity":53,"Duration":87616,"SoundDuration":87616,"Delta":23614195},{"NoteNumber":68,"Velocity":46,"Duration":87616,"SoundDuration":87616,"Delta":23614195},{"NoteNumber":78,"Velocity":46,"Duration":87372,"SoundDuration":87372,"Delta":23701812},{"NoteNumber":70,"Velocity":31,"Duration":87372,"SoundDuration":87372,"Delta":23701812},{"NoteNumber":74,"Velocity":40,"Duration":87372,"SoundDuration":87372,"Delta":23701812},{"NoteNumber":82,"Velocity":42,"Duration":86766,"SoundDuration":86766,"Delta":23789184},{"NoteNumber":68,"Velocity":36,"Duration":86766,"SoundDuration":86766,"Delta":23789184},{"NoteNumber":78,"Velocity":36,"Duration":86000,"SoundDuration":86000,"Delta":23875951},{"NoteNumber":70,"Velocity":24,"Duration":86000,"SoundDuration":86000,"Delta":23875951},{"NoteNumber":74,"Velocity":30,"Duration":86000,"SoundDuration":86000,"Delta":23875951},{"NoteNumber":82,"Velocity":41,"Duration":85351,"SoundDuration":85351,"Delta":23961951},{"NoteNumber":68,"Velocity":36,"Duration":85351,"SoundDuration":85351,"Delta":23961951},{"NoteNumber":78,"Velocity":36,"Duration":84705,"SoundDuration":84705,"Delta":24047303},{"NoteNumber":70,"Velocity":24,"Duration":84705,"SoundDuration":84705,"Delta":24047303},{"NoteNumber":74,"Velocity":30,"Duration":84705,"SoundDuration":84705,"Delta":24047303},{"NoteNumber":82,"Velocity":57,"Duration":90252,"SoundDuration":90252,"Delta":24132008},{"NoteNumber":68,"Velocity":45,"Duration":90252,"SoundDuration":90252,"Delta":24132008},{"NoteNumber":86,"Velocity":66,"Duration":87998,"SoundDuration":87998,"Delta":24493019},{"NoteNumber":67,"Velocity":50,"Duration":87998,"SoundDuration":87998,"Delta":24493019},{"NoteNumber":79,"Velocity":50,"Duration":87811,"SoundDuration":87811,"Delta":24581017},{"NoteNumber":70,"Velocity":34,"Duration":87811,"SoundDuration":87811,"Delta":24581017},{"NoteNumber":75,"Velocity":40,"Duration":87811,"SoundDuration":87811,"Delta":24581017},{"NoteNumber":84,"Velocity":58,"Duration":87616,"SoundDuration":87616,"Delta":24668829},{"NoteNumber":67,"Velocity":50,"Duration":87616,"SoundDuration":87616,"Delta":24668829},{"NoteNumber":79,"Velocity":50,"Duration":87372,"SoundDuration":87372,"Delta":24756445},{"NoteNumber":70,"Velocity":34,"Duration":87372,"SoundDuration":87372,"Delta":24756445},{"NoteNumber":75,"Velocity":44,"Duration":87372,"SoundDuration":87372,"Delta":24756445},{"NoteNumber":82,"Velocity":46,"Duration":86885,"SoundDuration":86885,"Delta":24843818},{"NoteNumber":67,"Velocity":39,"Duration":86885,"SoundDuration":86885,"Delta":24843818},{"NoteNumber":79,"Velocity":39,"Duration":86078,"SoundDuration":86078,"Delta":24930704},{"NoteNumber":70,"Velocity":26,"Duration":86078,"SoundDuration":86078,"Delta":24930704},{"NoteNumber":75,"Velocity":33,"Duration":86078,"SoundDuration":86078,"Delta":24930704},{"NoteNumber":82,"Velocity":45,"Duration":85313,"SoundDuration":85313,"Delta":25016782},{"NoteNumber":67,"Velocity":39,"Duration":85313,"SoundDuration":85313,"Delta":25016782},{"NoteNumber":79,"Velocity":39,"Duration":84536,"SoundDuration":84536,"Delta":25102096},{"NoteNumber":70,"Velocity":26,"Duration":84536,"SoundDuration":84536,"Delta":25102096},{"NoteNumber":75,"Velocity":33,"Duration":84536,"SoundDuration":84536,"Delta":25102096},{"NoteNumber":82,"Velocity":62,"Duration":90252,"SoundDuration":90252,"Delta":25186632},{"NoteNumber":67,"Velocity":49,"Duration":90252,"SoundDuration":90252,"Delta":25186632},{"NoteNumber":84,"Velocity":66,"Duration":86963,"SoundDuration":86963,"Delta":25547643},{"NoteNumber":66,"Velocity":50,"Duration":86963,"SoundDuration":86963,"Delta":25547643},{"NoteNumber":79,"Velocity":50,"Duration":87423,"SoundDuration":87423,"Delta":25634606},{"NoteNumber":70,"Velocity":34,"Duration":87423,"SoundDuration":87423,"Delta":25634606},{"NoteNumber":73,"Velocity":40,"Duration":87423,"SoundDuration":87423,"Delta":25634606},{"NoteNumber":82,"Velocity":58,"Duration":87873,"SoundDuration":87873,"Delta":25722030},{"NoteNumber":66,"Velocity":50,"Duration":87873,"SoundDuration":87873,"Delta":25722030},{"NoteNumber":79,"Velocity":50,"Duration":88413,"SoundDuration":88413,"Delta":25809904},{"NoteNumber":70,"Velocity":34,"Duration":88413,"SoundDuration":88413,"Delta":25809904},{"NoteNumber":73,"Velocity":44,"Duration":88413,"SoundDuration":88413,"Delta":25809904},{"NoteNumber":84,"Velocity":66,"Duration":86963,"SoundDuration":86963,"Delta":25898317},{"NoteNumber":65,"Velocity":50,"Duration":86963,"SoundDuration":86963,"Delta":25898317},{"NoteNumber":80,"Velocity":50,"Duration":87423,"SoundDuration":87423,"Delta":25985280},{"NoteNumber":70,"Velocity":34,"Duration":87423,"SoundDuration":87423,"Delta":25985280},{"NoteNumber":73,"Velocity":40,"Duration":87423,"SoundDuration":87423,"Delta":25985280},{"NoteNumber":82,"Velocity":58,"Duration":87957,"SoundDuration":87957,"Delta":26072704},{"NoteNumber":65,"Velocity":50,"Duration":87957,"SoundDuration":87957,"Delta":26072704},{"NoteNumber":80,"Velocity":50,"Duration":88495,"SoundDuration":88495,"Delta":26160661},{"NoteNumber":70,"Velocity":34,"Duration":88495,"SoundDuration":88495,"Delta":26160661},{"NoteNumber":73,"Velocity":44,"Duration":88495,"SoundDuration":88495,"Delta":26160661},{"NoteNumber":84,"Velocity":66,"Duration":87744,"SoundDuration":87744,"Delta":26249157},{"NoteNumber":64,"Velocity":50,"Duration":87744,"SoundDuration":87744,"Delta":26249157},{"NoteNumber":79,"Velocity":50,"Duration":87049,"SoundDuration":87049,"Delta":26336902},{"NoteNumber":70,"Velocity":34,"Duration":87049,"SoundDuration":87049,"Delta":26336902},{"NoteNumber":73,"Velocity":40,"Duration":87049,"SoundDuration":87049,"Delta":26336902},{"NoteNumber":82,"Velocity":58,"Duration":87617,"SoundDuration":87617,"Delta":26423951},{"NoteNumber":64,"Velocity":50,"Duration":87617,"SoundDuration":87617,"Delta":26423951},{"NoteNumber":79,"Velocity":50,"Duration":88272,"SoundDuration":88272,"Delta":26511569},{"NoteNumber":70,"Velocity":34,"Duration":88272,"SoundDuration":88272,"Delta":26511569},{"NoteNumber":73,"Velocity":44,"Duration":88272,"SoundDuration":88272,"Delta":26511569},{"NoteNumber":81,"Velocity":66,"Duration":86963,"SoundDuration":86963,"Delta":26599841},{"NoteNumber":63,"Velocity":50,"Duration":86963,"SoundDuration":86963,"Delta":26599841},{"NoteNumber":73,"Velocity":50,"Duration":87423,"SoundDuration":87423,"Delta":26686804},{"NoteNumber":67,"Velocity":34,"Duration":87423,"SoundDuration":87423,"Delta":26686804},{"NoteNumber":70,"Velocity":40,"Duration":87423,"SoundDuration":87423,"Delta":26686804},{"NoteNumber":79,"Velocity":58,"Duration":87873,"SoundDuration":87873,"Delta":26774228},{"NoteNumber":63,"Velocity":50,"Duration":87873,"SoundDuration":87873,"Delta":26774228},{"NoteNumber":73,"Velocity":50,"Duration":88413,"SoundDuration":88413,"Delta":26862102},{"NoteNumber":67,"Velocity":34,"Duration":88413,"SoundDuration":88413,"Delta":26862102},{"NoteNumber":70,"Velocity":44,"Duration":88413,"SoundDuration":88413,"Delta":26862102},{"NoteNumber":81,"Velocity":66,"Duration":86963,"SoundDuration":86963,"Delta":26950515},{"NoteNumber":62,"Velocity":50,"Duration":86963,"SoundDuration":86963,"Delta":26950515},{"NoteNumber":77,"Velocity":50,"Duration":87423,"SoundDuration":87423,"Delta":27037478},{"NoteNumber":67,"Velocity":34,"Duration":87423,"SoundDuration":87423,"Delta":27037478},{"NoteNumber":70,"Velocity":40,"Duration":87423,"SoundDuration":87423,"Delta":27037478},{"NoteNumber":79,"Velocity":58,"Duration":87957,"SoundDuration":87957,"Delta":27124902},{"NoteNumber":62,"Velocity":50,"Duration":87957,"SoundDuration":87957,"Delta":27124902},{"NoteNumber":77,"Velocity":50,"Duration":88495,"SoundDuration":88495,"Delta":27212859},{"NoteNumber":67,"Velocity":34,"Duration":88495,"SoundDuration":88495,"Delta":27212859},{"NoteNumber":70,"Velocity":44,"Duration":88495,"SoundDuration":88495,"Delta":27212859},{"NoteNumber":81,"Velocity":66,"Duration":87744,"SoundDuration":87744,"Delta":27301355},{"NoteNumber":61,"Velocity":50,"Duration":87744,"SoundDuration":87744,"Delta":27301355},{"NoteNumber":76,"Velocity":50,"Duration":87049,"SoundDuration":87049,"Delta":27389100},{"NoteNumber":67,"Velocity":34,"Duration":87049,"SoundDuration":87049,"Delta":27389100},{"NoteNumber":70,"Velocity":40,"Duration":87049,"SoundDuration":87049,"Delta":27389100},{"NoteNumber":79,"Velocity":58,"Duration":87550,"SoundDuration":87550,"Delta":27476149},{"NoteNumber":61,"Velocity":50,"Duration":87550,"SoundDuration":87550,"Delta":27476149},{"NoteNumber":76,"Velocity":50,"Duration":130776,"SoundDuration":130776,"Delta":27563700},{"NoteNumber":67,"Velocity":34,"Duration":130776,"SoundDuration":130776,"Delta":27563700},{"NoteNumber":70,"Velocity":44,"Duration":130776,"SoundDuration":130776,"Delta":27563700},{"NoteNumber":78,"Velocity":66,"Duration":86941,"SoundDuration":86941,"Delta":27694476},{"NoteNumber":60,"Velocity":50,"Duration":86941,"SoundDuration":86941,"Delta":27694476},{"NoteNumber":70,"Velocity":50,"Duration":87423,"SoundDuration":87423,"Delta":27781418},{"NoteNumber":64,"Velocity":34,"Duration":87423,"SoundDuration":87423,"Delta":27781418},{"NoteNumber":67,"Velocity":40,"Duration":87423,"SoundDuration":87423,"Delta":27781418},{"NoteNumber":78,"Velocity":58,"Duration":87873,"SoundDuration":87873,"Delta":27868842},{"NoteNumber":60,"Velocity":50,"Duration":87873,"SoundDuration":87873,"Delta":27868842},{"NoteNumber":70,"Velocity":50,"Duration":88413,"SoundDuration":88413,"Delta":27956715},{"NoteNumber":64,"Velocity":34,"Duration":88413,"SoundDuration":88413,"Delta":27956715},{"NoteNumber":67,"Velocity":44,"Duration":88413,"SoundDuration":88413,"Delta":27956715},{"NoteNumber":78,"Velocity":67,"Duration":86963,"SoundDuration":86963,"Delta":28045129},{"NoteNumber":59,"Velocity":51,"Duration":86963,"SoundDuration":86963,"Delta":28045129},{"NoteNumber":74,"Velocity":51,"Duration":87423,"SoundDuration":87423,"Delta":28132092},{"NoteNumber":64,"Velocity":35,"Duration":87423,"SoundDuration":87423,"Delta":28132092},{"NoteNumber":67,"Velocity":41,"Duration":87423,"SoundDuration":87423,"Delta":28132092},{"NoteNumber":76,"Velocity":59,"Duration":87957,"SoundDuration":87957,"Delta":28219515},{"NoteNumber":59,"Velocity":51,"Duration":87957,"SoundDuration":87957,"Delta":28219515},{"NoteNumber":74,"Velocity":52,"Duration":88495,"SoundDuration":88495,"Delta":28307473},{"NoteNumber":64,"Velocity":35,"Duration":88495,"SoundDuration":88495,"Delta":28307473},{"NoteNumber":67,"Velocity":45,"Duration":88495,"SoundDuration":88495,"Delta":28307473},{"NoteNumber":78,"Velocity":69,"Duration":87744,"SoundDuration":87744,"Delta":28395969},{"NoteNumber":58,"Velocity":52,"Duration":87744,"SoundDuration":87744,"Delta":28395969},{"NoteNumber":73,"Velocity":52,"Duration":87049,"SoundDuration":87049,"Delta":28483713},{"NoteNumber":64,"Velocity":35,"Duration":87049,"SoundDuration":87049,"Delta":28483713},{"NoteNumber":67,"Velocity":42,"Duration":87049,"SoundDuration":87049,"Delta":28483713},{"NoteNumber":76,"Velocity":61,"Duration":87617,"SoundDuration":87617,"Delta":28570763},{"NoteNumber":58,"Velocity":53,"Duration":87617,"SoundDuration":87617,"Delta":28570763},{"NoteNumber":73,"Velocity":53,"Duration":88272,"SoundDuration":88272,"Delta":28658380},{"NoteNumber":64,"Velocity":36,"Duration":88272,"SoundDuration":88272,"Delta":28658380},{"NoteNumber":67,"Velocity":46,"Duration":88272,"SoundDuration":88272,"Delta":28658380},{"NoteNumber":78,"Velocity":70,"Duration":86963,"SoundDuration":86963,"Delta":28746653},{"NoteNumber":57,"Velocity":53,"Duration":86963,"SoundDuration":86963,"Delta":28746653},{"NoteNumber":72,"Velocity":54,"Duration":87423,"SoundDuration":87423,"Delta":28833616},{"NoteNumber":64,"Velocity":36,"Duration":87423,"SoundDuration":87423,"Delta":28833616},{"NoteNumber":67,"Velocity":43,"Duration":87423,"SoundDuration":87423,"Delta":28833616},{"NoteNumber":76,"Velocity":62,"Duration":87873,"SoundDuration":87873,"Delta":28921039},{"NoteNumber":57,"Velocity":54,"Duration":87873,"SoundDuration":87873,"Delta":28921039},{"NoteNumber":72,"Velocity":54,"Duration":88413,"SoundDuration":88413,"Delta":29008913},{"NoteNumber":64,"Velocity":37,"Duration":88413,"SoundDuration":88413,"Delta":29008913},{"NoteNumber":67,"Velocity":47,"Duration":88413,"SoundDuration":88413,"Delta":29008913},{"NoteNumber":78,"Velocity":70,"Duration":86963,"SoundDuration":86963,"Delta":29097327},{"NoteNumber":56,"Velocity":55,"Duration":86963,"SoundDuration":86963,"Delta":29097327},{"NoteNumber":71,"Velocity":55,"Duration":87423,"SoundDuration":87423,"Delta":29184290},{"NoteNumber":64,"Velocity":37,"Duration":87423,"SoundDuration":87423,"Delta":29184290},{"NoteNumber":66,"Velocity":44,"Duration":87423,"SoundDuration":87423,"Delta":29184290},{"NoteNumber":76,"Velocity":64,"Duration":87957,"SoundDuration":87957,"Delta":29271713},{"NoteNumber":56,"Velocity":55,"Duration":87957,"SoundDuration":87957,"Delta":29271713},{"NoteNumber":71,"Velocity":55,"Duration":88495,"SoundDuration":88495,"Delta":29359671},{"NoteNumber":64,"Velocity":37,"Duration":88495,"SoundDuration":88495,"Delta":29359671},{"NoteNumber":66,"Velocity":48,"Duration":88495,"SoundDuration":88495,"Delta":29359671},{"NoteNumber":78,"Velocity":69,"Duration":87744,"SoundDuration":87744,"Delta":29448167},{"NoteNumber":55,"Velocity":56,"Duration":87744,"SoundDuration":87744,"Delta":29448167},{"NoteNumber":71,"Velocity":56,"Duration":87049,"SoundDuration":87049,"Delta":29535911},{"NoteNumber":64,"Velocity":38,"Duration":87049,"SoundDuration":87049,"Delta":29535911},{"NoteNumber":66,"Velocity":45,"Duration":87049,"SoundDuration":87049,"Delta":29535911},{"NoteNumber":76,"Velocity":65,"Duration":87550,"SoundDuration":87550,"Delta":29622961},{"NoteNumber":55,"Velocity":56,"Duration":87550,"SoundDuration":87550,"Delta":29622961},{"NoteNumber":71,"Velocity":57,"Duration":133940,"SoundDuration":133940,"Delta":29710512},{"NoteNumber":64,"Velocity":38,"Duration":133940,"SoundDuration":133940,"Delta":29710512},{"NoteNumber":66,"Velocity":50,"Duration":133940,"SoundDuration":133940,"Delta":29710512},{"NoteNumber":78,"Velocity":74,"Duration":85369,"SoundDuration":85369,"Delta":29844452},{"NoteNumber":57,"Velocity":63,"Duration":170486,"SoundDuration":170486,"Delta":29844452},{"NoteNumber":70,"Velocity":54,"Duration":85117,"SoundDuration":85117,"Delta":29929822},{"NoteNumber":76,"Velocity":66,"Duration":85331,"SoundDuration":85331,"Delta":30014939},{"NoteNumber":67,"Velocity":55,"Duration":85544,"SoundDuration":85544,"Delta":30100270},{"NoteNumber":74,"Velocity":65,"Duration":85760,"SoundDuration":85760,"Delta":30185814},{"NoteNumber":67,"Velocity":53,"Duration":85975,"SoundDuration":85975,"Delta":30271575},{"NoteNumber":73,"Velocity":62,"Duration":86211,"SoundDuration":86211,"Delta":30357550},{"NoteNumber":64,"Velocity":55,"Duration":86441,"SoundDuration":86441,"Delta":30443761},{"NoteNumber":71,"Velocity":66,"Duration":86662,"SoundDuration":86662,"Delta":30530203},{"NoteNumber":64,"Velocity":50,"Duration":86881,"SoundDuration":86881,"Delta":30616865},{"NoteNumber":70,"Velocity":58,"Duration":87104,"SoundDuration":87104,"Delta":30703747},{"NoteNumber":61,"Velocity":50,"Duration":87494,"SoundDuration":87494,"Delta":30790852},{"NoteNumber":67,"Velocity":74,"Duration":85544,"SoundDuration":85544,"Delta":30878346},{"NoteNumber":61,"Velocity":54,"Duration":85754,"SoundDuration":85754,"Delta":30972463},{"NoteNumber":66,"Velocity":66,"Duration":86024,"SoundDuration":86024,"Delta":31049620},{"NoteNumber":58,"Velocity":55,"Duration":86282,"SoundDuration":86282,"Delta":31135645},{"NoteNumber":62,"Velocity":65,"Duration":86541,"SoundDuration":86541,"Delta":31221927},{"NoteNumber":58,"Velocity":53,"Duration":86842,"SoundDuration":86842,"Delta":31308468},{"NoteNumber":61,"Velocity":62,"Duration":87104,"SoundDuration":87104,"Delta":31395310},{"NoteNumber":54,"Velocity":55,"Duration":87409,"SoundDuration":87409,"Delta":31482415},{"NoteNumber":59,"Velocity":66,"Duration":87675,"SoundDuration":87675,"Delta":31569824},{"NoteNumber":54,"Velocity":50,"Duration":87951,"SoundDuration":87951,"Delta":31657500},{"NoteNumber":58,"Velocity":58,"Duration":88262,"SoundDuration":88262,"Delta":31745452},{"NoteNumber":49,"Velocity":50,"Duration":88559,"SoundDuration":88559,"Delta":31833714},{"NoteNumber":55,"Velocity":74,"Duration":85737,"SoundDuration":85737,"Delta":31922273},{"NoteNumber":49,"Velocity":54,"Duration":85385,"SoundDuration":85385,"Delta":32008011},{"NoteNumber":54,"Velocity":66,"Duration":85095,"SoundDuration":85095,"Delta":32093397},{"NoteNumber":46,"Velocity":55,"Duration":84738,"SoundDuration":84738,"Delta":32178492},{"NoteNumber":53,"Velocity":71,"Duration":84434,"SoundDuration":84434,"Delta":32263231},{"NoteNumber":52,"Velocity":64,"Duration":84150,"SoundDuration":84150,"Delta":32347666},{"NoteNumber":51,"Velocity":59,"Duration":83811,"SoundDuration":83811,"Delta":32431816},{"NoteNumber":50,"Velocity":57,"Duration":83504,"SoundDuration":83504,"Delta":32515627},{"NoteNumber":49,"Velocity":56,"Duration":83226,"SoundDuration":83226,"Delta":32599132},{"NoteNumber":48,"Velocity":51,"Duration":82904,"SoundDuration":82904,"Delta":32682358},{"NoteNumber":47,"Velocity":48,"Duration":82594,"SoundDuration":82594,"Delta":32765262},{"NoteNumber":46,"Velocity":48,"Duration":82322,"SoundDuration":82322,"Delta":32847857},{"NoteNumber":45,"Velocity":48,"Duration":82014,"SoundDuration":82014,"Delta":32930179},{"NoteNumber":44,"Velocity":44,"Duration":81971,"SoundDuration":81971,"Delta":33012194},{"NoteNumber":43,"Velocity":42,"Duration":81971,"SoundDuration":81971,"Delta":33094166},{"NoteNumber":42,"Velocity":42,"Duration":81971,"SoundDuration":81971,"Delta":33176137},{"NoteNumber":41,"Velocity":40,"Duration":54647,"SoundDuration":54647,"Delta":33258109},{"NoteNumber":40,"Velocity":36,"Duration":54647,"SoundDuration":54647,"Delta":33367405},{"NoteNumber":39,"Velocity":33,"Duration":54647,"SoundDuration":54647,"Delta":33476700},{"NoteNumber":38,"Velocity":32,"Duration":54572,"SoundDuration":54572,"Delta":33585996},{"NoteNumber":37,"Velocity":31,"Duration":54498,"SoundDuration":54498,"Delta":33695017},{"NoteNumber":36,"Velocity":29,"Duration":133589,"SoundDuration":133589,"Delta":33804244},{"NoteNumber":59,"Velocity":33,"Duration":90771,"SoundDuration":90771,"Delta":34374419},{"NoteNumber":35,"Velocity":20,"Duration":793083,"SoundDuration":793083,"Delta":34374419},{"NoteNumber":42,"Velocity":27,"Duration":90771,"SoundDuration":90771,"Delta":34374419},{"NoteNumber":62,"Velocity":25,"Duration":89485,"SoundDuration":89485,"Delta":34465191},{"NoteNumber":43,"Velocity":20,"Duration":89485,"SoundDuration":89485,"Delta":34465191},{"NoteNumber":61,"Velocity":27,"Duration":88261,"SoundDuration":88261,"Delta":34554677},{"NoteNumber":42,"Velocity":24,"Duration":88261,"SoundDuration":88261,"Delta":34554677},{"NoteNumber":64,"Velocity":23,"Duration":87015,"SoundDuration":87015,"Delta":34642939},{"NoteNumber":43,"Velocity":20,"Duration":87015,"SoundDuration":87015,"Delta":34642939},{"NoteNumber":62,"Velocity":25,"Duration":86897,"SoundDuration":86897,"Delta":34729954},{"NoteNumber":42,"Velocity":22,"Duration":86897,"SoundDuration":86897,"Delta":34729954},{"NoteNumber":66,"Velocity":21,"Duration":87007,"SoundDuration":87007,"Delta":34816852},{"NoteNumber":43,"Velocity":18,"Duration":87007,"SoundDuration":87007,"Delta":34816852},{"NoteNumber":64,"Velocity":22,"Duration":86786,"SoundDuration":86786,"Delta":34903859},{"NoteNumber":42,"Velocity":20,"Duration":86786,"SoundDuration":86786,"Delta":34903859},{"NoteNumber":67,"Velocity":18,"Duration":86604,"SoundDuration":86604,"Delta":34990646},{"NoteNumber":43,"Velocity":16,"Duration":86604,"SoundDuration":86604,"Delta":34990646},{"NoteNumber":62,"Velocity":21,"Duration":90252,"SoundDuration":90252,"Delta":35077251},{"NoteNumber":66,"Velocity":21,"Duration":90252,"SoundDuration":90252,"Delta":35077251},{"NoteNumber":42,"Velocity":17,"Duration":90252,"SoundDuration":90252,"Delta":35077251},{"NoteNumber":59,"Velocity":33,"Duration":88079,"SoundDuration":88079,"Delta":35437590},{"NoteNumber":35,"Velocity":20,"Duration":788674,"SoundDuration":788674,"Delta":35437590},{"NoteNumber":42,"Velocity":27,"Duration":88079,"SoundDuration":88079,"Delta":35437590},{"NoteNumber":62,"Velocity":25,"Duration":87854,"SoundDuration":87854,"Delta":35525670},{"NoteNumber":43,"Velocity":20,"Duration":87854,"SoundDuration":87854,"Delta":35525670},{"NoteNumber":61,"Velocity":27,"Duration":87616,"SoundDuration":87616,"Delta":35613524},{"NoteNumber":42,"Velocity":24,"Duration":87616,"SoundDuration":87616,"Delta":35613524},{"NoteNumber":64,"Velocity":23,"Duration":87372,"SoundDuration":87372,"Delta":35701141},{"NoteNumber":43,"Velocity":20,"Duration":87372,"SoundDuration":87372,"Delta":35701141},{"NoteNumber":62,"Velocity":25,"Duration":87148,"SoundDuration":87148,"Delta":35788513},{"NoteNumber":42,"Velocity":22,"Duration":87148,"SoundDuration":87148,"Delta":35788513},{"NoteNumber":66,"Velocity":21,"Duration":86927,"SoundDuration":86927,"Delta":35875661},{"NoteNumber":43,"Velocity":18,"Duration":86927,"SoundDuration":86927,"Delta":35875661},{"NoteNumber":64,"Velocity":22,"Duration":86705,"SoundDuration":86705,"Delta":35962589},{"NoteNumber":42,"Velocity":20,"Duration":86705,"SoundDuration":86705,"Delta":35962589},{"NoteNumber":67,"Velocity":18,"Duration":86445,"SoundDuration":86445,"Delta":36049294},{"NoteNumber":43,"Velocity":16,"Duration":86445,"SoundDuration":86445,"Delta":36049294},{"NoteNumber":62,"Velocity":21,"Duration":90524,"SoundDuration":90524,"Delta":36135739},{"NoteNumber":66,"Velocity":21,"Duration":90524,"SoundDuration":90524,"Delta":36135739},{"NoteNumber":42,"Velocity":17,"Duration":90524,"SoundDuration":90524,"Delta":36135739},{"NoteNumber":67,"Velocity":36,"Duration":86846,"SoundDuration":86846,"Delta":36497839},{"NoteNumber":35,"Velocity":20,"Duration":791228,"SoundDuration":791228,"Delta":36497839},{"NoteNumber":42,"Velocity":27,"Duration":86846,"SoundDuration":86846,"Delta":36497839},{"NoteNumber":71,"Velocity":29,"Duration":86784,"SoundDuration":86784,"Delta":36584686},{"NoteNumber":43,"Velocity":21,"Duration":86784,"SoundDuration":86784,"Delta":36584686},{"NoteNumber":66,"Velocity":33,"Duration":87007,"SoundDuration":87007,"Delta":36671470},{"NoteNumber":42,"Velocity":27,"Duration":87007,"SoundDuration":87007,"Delta":36671470},{"NoteNumber":69,"Velocity":28,"Duration":87228,"SoundDuration":87228,"Delta":36758478},{"NoteNumber":43,"Velocity":23,"Duration":87228,"SoundDuration":87228,"Delta":36758478},{"NoteNumber":64,"Velocity":32,"Duration":87453,"SoundDuration":87453,"Delta":36845706},{"NoteNumber":42,"Velocity":27,"Duration":87453,"SoundDuration":87453,"Delta":36845706},{"NoteNumber":67,"Velocity":27,"Duration":87678,"SoundDuration":87678,"Delta":36933159},{"NoteNumber":43,"Velocity":23,"Duration":87678,"SoundDuration":87678,"Delta":36933159},{"NoteNumber":62,"Velocity":30,"Duration":87903,"SoundDuration":87903,"Delta":37020838},{"NoteNumber":42,"Velocity":27,"Duration":87903,"SoundDuration":87903,"Delta":37020838},{"NoteNumber":66,"Velocity":27,"Duration":88131,"SoundDuration":88131,"Delta":37108742},{"NoteNumber":43,"Velocity":23,"Duration":88131,"SoundDuration":88131,"Delta":37108742},{"NoteNumber":61,"Velocity":33,"Duration":92194,"SoundDuration":92194,"Delta":37196873},{"NoteNumber":64,"Velocity":33,"Duration":92194,"SoundDuration":92194,"Delta":37196873},{"NoteNumber":42,"Velocity":26,"Duration":92194,"SoundDuration":92194,"Delta":37196873},{"NoteNumber":66,"Velocity":36,"Duration":86024,"SoundDuration":86024,"Delta":37565650},{"NoteNumber":35,"Velocity":20,"Duration":786245,"SoundDuration":786245,"Delta":37565650},{"NoteNumber":42,"Velocity":27,"Duration":86024,"SoundDuration":86024,"Delta":37565650},{"NoteNumber":69,"Velocity":29,"Duration":85921,"SoundDuration":85921,"Delta":37651675},{"NoteNumber":43,"Velocity":21,"Duration":85921,"SoundDuration":85921,"Delta":37651675},{"NoteNumber":64,"Velocity":33,"Duration":86256,"SoundDuration":86256,"Delta":37737596},{"NoteNumber":42,"Velocity":27,"Duration":86256,"SoundDuration":86256,"Delta":37737596},{"NoteNumber":67,"Velocity":28,"Duration":86594,"SoundDuration":86594,"Delta":37823853},{"NoteNumber":43,"Velocity":23,"Duration":86594,"SoundDuration":86594,"Delta":37823853},{"NoteNumber":62,"Velocity":32,"Duration":86946,"SoundDuration":86946,"Delta":37910448},{"NoteNumber":42,"Velocity":27,"Duration":86946,"SoundDuration":86946,"Delta":37910448},{"NoteNumber":66,"Velocity":27,"Duration":87249,"SoundDuration":87249,"Delta":37997394},{"NoteNumber":43,"Velocity":23,"Duration":87249,"SoundDuration":87249,"Delta":37997394},{"NoteNumber":61,"Velocity":30,"Duration":87625,"SoundDuration":87625,"Delta":38084643},{"NoteNumber":42,"Velocity":27,"Duration":87625,"SoundDuration":87625,"Delta":38084643},{"NoteNumber":64,"Velocity":27,"Duration":87996,"SoundDuration":87996,"Delta":38172269},{"NoteNumber":43,"Velocity":23,"Duration":87996,"SoundDuration":87996,"Delta":38172269},{"NoteNumber":59,"Velocity":33,"Duration":91630,"SoundDuration":91630,"Delta":38260265},{"NoteNumber":62,"Velocity":33,"Duration":91630,"SoundDuration":91630,"Delta":38260265},{"NoteNumber":42,"Velocity":26,"Duration":91630,"SoundDuration":91630,"Delta":38260265},{"NoteNumber":55,"Velocity":36,"Duration":88090,"SoundDuration":88090,"Delta":38626789},{"NoteNumber":43,"Velocity":44,"Duration":88090,"SoundDuration":88090,"Delta":38626789},{"NoteNumber":59,"Velocity":45,"Duration":87946,"SoundDuration":87946,"Delta":38714880},{"NoteNumber":50,"Velocity":36,"Duration":87946,"SoundDuration":87946,"Delta":38714880},{"NoteNumber":57,"Velocity":50,"Duration":87719,"SoundDuration":87719,"Delta":38802826},{"NoteNumber":43,"Velocity":44,"Duration":87719,"SoundDuration":87719,"Delta":38802826},{"NoteNumber":61,"Velocity":45,"Duration":87405,"SoundDuration":87405,"Delta":38890546},{"NoteNumber":50,"Velocity":38,"Duration":87405,"SoundDuration":87405,"Delta":38890546},{"NoteNumber":59,"Velocity":51,"Duration":86112,"SoundDuration":86112,"Delta":38977951},{"NoteNumber":43,"Velocity":44,"Duration":86112,"SoundDuration":86112,"Delta":38977951},{"NoteNumber":62,"Velocity":45,"Duration":85668,"SoundDuration":85668,"Delta":39064064},{"NoteNumber":50,"Velocity":38,"Duration":85668,"SoundDuration":85668,"Delta":39064064},{"NoteNumber":61,"Velocity":52,"Duration":85242,"SoundDuration":85242,"Delta":39149732},{"NoteNumber":43,"Velocity":46,"Duration":85242,"SoundDuration":85242,"Delta":39149732},{"NoteNumber":64,"Velocity":47,"Duration":84826,"SoundDuration":84826,"Delta":39234975},{"NoteNumber":50,"Velocity":40,"Duration":84826,"SoundDuration":84826,"Delta":39234975},{"NoteNumber":62,"Velocity":53,"Duration":91630,"SoundDuration":91630,"Delta":39319801},{"NoteNumber":59,"Velocity":53,"Duration":91630,"SoundDuration":91630,"Delta":39319801},{"NoteNumber":43,"Velocity":42,"Duration":91630,"SoundDuration":91630,"Delta":39319801},{"NoteNumber":60,"Velocity":36,"Duration":87784,"SoundDuration":87784,"Delta":39686325},{"NoteNumber":36,"Velocity":44,"Duration":87784,"SoundDuration":87784,"Delta":39686325},{"NoteNumber":64,"Velocity":45,"Duration":87597,"SoundDuration":87597,"Delta":39774109},{"NoteNumber":43,"Velocity":36,"Duration":87597,"SoundDuration":87597,"Delta":39774109},{"NoteNumber":62,"Velocity":50,"Duration":87361,"SoundDuration":87361,"Delta":39861707},{"NoteNumber":36,"Velocity":44,"Duration":87361,"SoundDuration":87361,"Delta":39861707},{"NoteNumber":66,"Velocity":45,"Duration":87241,"SoundDuration":87241,"Delta":39949069},{"NoteNumber":43,"Velocity":38,"Duration":87241,"SoundDuration":87241,"Delta":39949069},{"NoteNumber":64,"Velocity":51,"Duration":85999,"SoundDuration":85999,"Delta":40036310},{"NoteNumber":36,"Velocity":44,"Duration":85999,"SoundDuration":85999,"Delta":40036310},{"NoteNumber":67,"Velocity":45,"Duration":85385,"SoundDuration":85385,"Delta":40122310},{"NoteNumber":43,"Velocity":38,"Duration":85385,"SoundDuration":85385,"Delta":40122310},{"NoteNumber":66,"Velocity":52,"Duration":84884,"SoundDuration":84884,"Delta":40207696},{"NoteNumber":36,"Velocity":46,"Duration":84884,"SoundDuration":84884,"Delta":40207696},{"NoteNumber":69,"Velocity":47,"Duration":84377,"SoundDuration":84377,"Delta":40292580},{"NoteNumber":43,"Velocity":40,"Duration":84377,"SoundDuration":84377,"Delta":40292580},{"NoteNumber":64,"Velocity":53,"Duration":91074,"SoundDuration":91074,"Delta":40376958},{"NoteNumber":67,"Velocity":53,"Duration":91074,"SoundDuration":91074,"Delta":40376958},{"NoteNumber":36,"Velocity":42,"Duration":91074,"SoundDuration":91074,"Delta":40376958},{"NoteNumber":66,"Velocity":27,"Duration":86285,"SoundDuration":86285,"Delta":40827939},{"NoteNumber":58,"Velocity":25,"Duration":86544,"SoundDuration":86544,"Delta":40914224},{"NoteNumber":64,"Velocity":30,"Duration":86544,"SoundDuration":86544,"Delta":40914224},{"NoteNumber":40,"Velocity":18,"Duration":86544,"SoundDuration":86544,"Delta":40914224},{"NoteNumber":42,"Velocity":22,"Duration":86544,"SoundDuration":86544,"Delta":40914224},{"NoteNumber":66,"Velocity":28,"Duration":86845,"SoundDuration":86845,"Delta":41000769},{"NoteNumber":58,"Velocity":28,"Duration":87118,"SoundDuration":87118,"Delta":41087614},{"NoteNumber":63,"Velocity":33,"Duration":87118,"SoundDuration":87118,"Delta":41087614},{"NoteNumber":39,"Velocity":24,"Duration":87118,"SoundDuration":87118,"Delta":41087614},{"NoteNumber":42,"Velocity":24,"Duration":87118,"SoundDuration":87118,"Delta":41087614},{"NoteNumber":66,"Velocity":29,"Duration":87423,"SoundDuration":87423,"Delta":41174733},{"NoteNumber":58,"Velocity":29,"Duration":87687,"SoundDuration":87687,"Delta":41262156},{"NoteNumber":62,"Velocity":35,"Duration":87687,"SoundDuration":87687,"Delta":41262156},{"NoteNumber":38,"Velocity":22,"Duration":87687,"SoundDuration":87687,"Delta":41262156},{"NoteNumber":42,"Velocity":26,"Duration":87687,"SoundDuration":87687,"Delta":41262156},{"NoteNumber":66,"Velocity":28,"Duration":87996,"SoundDuration":87996,"Delta":41349843},{"NoteNumber":58,"Velocity":30,"Duration":89462,"SoundDuration":89462,"Delta":41437840},{"NoteNumber":61,"Velocity":36,"Duration":89462,"SoundDuration":89462,"Delta":41437840},{"NoteNumber":37,"Velocity":23,"Duration":89462,"SoundDuration":89462,"Delta":41437840},{"NoteNumber":42,"Velocity":28,"Duration":89462,"SoundDuration":89462,"Delta":41437840},{"NoteNumber":66,"Velocity":32,"Duration":89713,"SoundDuration":89713,"Delta":41527302},{"NoteNumber":57,"Velocity":30,"Duration":89712,"SoundDuration":89712,"Delta":41617015},{"NoteNumber":60,"Velocity":36,"Duration":89712,"SoundDuration":89712,"Delta":41617015},{"NoteNumber":36,"Velocity":25,"Duration":89712,"SoundDuration":89712,"Delta":41617015},{"NoteNumber":42,"Velocity":30,"Duration":89712,"SoundDuration":89712,"Delta":41617015},{"NoteNumber":66,"Velocity":33,"Duration":102158,"SoundDuration":102158,"Delta":41706728},{"NoteNumber":59,"Velocity":35,"Duration":900985,"SoundDuration":900985,"Delta":41808887},{"NoteNumber":35,"Velocity":29,"Duration":88484,"SoundDuration":88484,"Delta":41808887},{"NoteNumber":42,"Velocity":19,"Duration":88840,"SoundDuration":88840,"Delta":41897372},{"NoteNumber":35,"Velocity":19,"Duration":89230,"SoundDuration":89230,"Delta":41986212},{"NoteNumber":42,"Velocity":19,"Duration":89572,"SoundDuration":89572,"Delta":42075443},{"NoteNumber":35,"Velocity":27,"Duration":89950,"SoundDuration":89950,"Delta":42165016},{"NoteNumber":42,"Velocity":20,"Duration":90361,"SoundDuration":90361,"Delta":42254966},{"NoteNumber":35,"Velocity":22,"Duration":90689,"SoundDuration":90689,"Delta":42345328},{"NoteNumber":42,"Velocity":20,"Duration":91151,"SoundDuration":91151,"Delta":42436017},{"NoteNumber":35,"Velocity":28,"Duration":182704,"SoundDuration":182704,"Delta":42527168},{"NoteNumber":81,"Velocity":40,"Duration":87998,"SoundDuration":87998,"Delta":42892576},{"NoteNumber":64,"Velocity":32,"Duration":87998,"SoundDuration":87998,"Delta":42892576},{"NoteNumber":73,"Velocity":32,"Duration":87811,"SoundDuration":87811,"Delta":42980575},{"NoteNumber":66,"Velocity":22,"Duration":87811,"SoundDuration":87811,"Delta":42980575},{"NoteNumber":70,"Velocity":26,"Duration":87811,"SoundDuration":87811,"Delta":42980575},{"NoteNumber":79,"Velocity":36,"Duration":87616,"SoundDuration":87616,"Delta":43068386},{"NoteNumber":64,"Velocity":32,"Duration":87616,"SoundDuration":87616,"Delta":43068386},{"NoteNumber":73,"Velocity":32,"Duration":87345,"SoundDuration":87345,"Delta":43156003},{"NoteNumber":66,"Velocity":22,"Duration":87345,"SoundDuration":87345,"Delta":43156003},{"NoteNumber":70,"Velocity":27,"Duration":87345,"SoundDuration":87345,"Delta":43156003},{"NoteNumber":78,"Velocity":29,"Duration":86510,"SoundDuration":86510,"Delta":43243348},{"NoteNumber":64,"Velocity":25,"Duration":86510,"SoundDuration":86510,"Delta":43243348},{"NoteNumber":73,"Velocity":25,"Duration":85916,"SoundDuration":85916,"Delta":43329859},{"NoteNumber":66,"Velocity":17,"Duration":85916,"SoundDuration":85916,"Delta":43329859},{"NoteNumber":70,"Velocity":21,"Duration":85916,"SoundDuration":85916,"Delta":43329859},{"NoteNumber":78,"Velocity":28,"Duration":85291,"SoundDuration":85291,"Delta":43415775},{"NoteNumber":64,"Velocity":25,"Duration":85291,"SoundDuration":85291,"Delta":43415775},{"NoteNumber":73,"Velocity":25,"Duration":84693,"SoundDuration":84693,"Delta":43501066},{"NoteNumber":66,"Velocity":17,"Duration":84693,"SoundDuration":84693,"Delta":43501066},{"NoteNumber":70,"Velocity":21,"Duration":84693,"SoundDuration":84693,"Delta":43501066},{"NoteNumber":78,"Velocity":39,"Duration":90252,"SoundDuration":90252,"Delta":43585759},{"NoteNumber":64,"Velocity":31,"Duration":90252,"SoundDuration":90252,"Delta":43585759},{"NoteNumber":81,"Velocity":40,"Duration":87998,"SoundDuration":87998,"Delta":43946098},{"NoteNumber":62,"Velocity":32,"Duration":87998,"SoundDuration":87998,"Delta":43946098},{"NoteNumber":74,"Velocity":32,"Duration":87811,"SoundDuration":87811,"Delta":44034096},{"NoteNumber":66,"Velocity":22,"Duration":87811,"SoundDuration":87811,"Delta":44034096},{"NoteNumber":71,"Velocity":26,"Duration":87811,"SoundDuration":87811,"Delta":44034096},{"NoteNumber":79,"Velocity":36,"Duration":87616,"SoundDuration":87616,"Delta":44121908},{"NoteNumber":62,"Velocity":32,"Duration":87616,"SoundDuration":87616,"Delta":44121908},{"NoteNumber":74,"Velocity":32,"Duration":87372,"SoundDuration":87372,"Delta":44209524},{"NoteNumber":66,"Velocity":22,"Duration":87372,"SoundDuration":87372,"Delta":44209524},{"NoteNumber":71,"Velocity":27,"Duration":87372,"SoundDuration":87372,"Delta":44209524},{"NoteNumber":78,"Velocity":29,"Duration":86686,"SoundDuration":86686,"Delta":44296897},{"NoteNumber":62,"Velocity":25,"Duration":86686,"SoundDuration":86686,"Delta":44296897},{"NoteNumber":74,"Velocity":25,"Duration":86090,"SoundDuration":86090,"Delta":44383583},{"NoteNumber":66,"Velocity":17,"Duration":86090,"SoundDuration":86090,"Delta":44383583},{"NoteNumber":71,"Velocity":21,"Duration":86090,"SoundDuration":86090,"Delta":44383583},{"NoteNumber":78,"Velocity":28,"Duration":85524,"SoundDuration":85524,"Delta":44469674},{"NoteNumber":62,"Velocity":25,"Duration":85524,"SoundDuration":85524,"Delta":44469674},{"NoteNumber":74,"Velocity":25,"Duration":84981,"SoundDuration":84981,"Delta":44555198},{"NoteNumber":66,"Velocity":17,"Duration":84981,"SoundDuration":84981,"Delta":44555198},{"NoteNumber":71,"Velocity":21,"Duration":84981,"SoundDuration":84981,"Delta":44555198},{"NoteNumber":78,"Velocity":39,"Duration":90252,"SoundDuration":90252,"Delta":44640179},{"NoteNumber":62,"Velocity":31,"Duration":90252,"SoundDuration":90252,"Delta":44640179},{"NoteNumber":83,"Velocity":40,"Duration":87998,"SoundDuration":87998,"Delta":45001190},{"NoteNumber":65,"Velocity":32,"Duration":87998,"SoundDuration":87998,"Delta":45001190},{"NoteNumber":75,"Velocity":32,"Duration":87811,"SoundDuration":87811,"Delta":45089188},{"NoteNumber":67,"Velocity":22,"Duration":87811,"SoundDuration":87811,"Delta":45089188},{"NoteNumber":71,"Velocity":26,"Duration":87811,"SoundDuration":87811,"Delta":45089188},{"NoteNumber":81,"Velocity":36,"Duration":87616,"SoundDuration":87616,"Delta":45176999},{"NoteNumber":65,"Velocity":32,"Duration":87616,"SoundDuration":87616,"Delta":45176999},{"NoteNumber":75,"Velocity":32,"Duration":87324,"SoundDuration":87324,"Delta":45264616},{"NoteNumber":67,"Velocity":22,"Duration":87324,"SoundDuration":87324,"Delta":45264616},{"NoteNumber":71,"Velocity":27,"Duration":87324,"SoundDuration":87324,"Delta":45264616},{"NoteNumber":79,"Velocity":29,"Duration":86152,"SoundDuration":86152,"Delta":45351941},{"NoteNumber":65,"Velocity":25,"Duration":86152,"SoundDuration":86152,"Delta":45351941},{"NoteNumber":75,"Velocity":25,"Duration":85817,"SoundDuration":85817,"Delta":45438093},{"NoteNumber":67,"Velocity":17,"Duration":85817,"SoundDuration":85817,"Delta":45438093},{"NoteNumber":71,"Velocity":21,"Duration":85817,"SoundDuration":85817,"Delta":45438093},{"NoteNumber":79,"Velocity":28,"Duration":85485,"SoundDuration":85485,"Delta":45523910},{"NoteNumber":65,"Velocity":25,"Duration":85485,"SoundDuration":85485,"Delta":45523910},{"NoteNumber":75,"Velocity":25,"Duration":85105,"SoundDuration":85105,"Delta":45609396},{"NoteNumber":67,"Velocity":17,"Duration":85105,"SoundDuration":85105,"Delta":45609396},{"NoteNumber":71,"Velocity":21,"Duration":85105,"SoundDuration":85105,"Delta":45609396},{"NoteNumber":79,"Velocity":39,"Duration":90252,"SoundDuration":90252,"Delta":45694501},{"NoteNumber":65,"Velocity":31,"Duration":90252,"SoundDuration":90252,"Delta":45694501},{"NoteNumber":83,"Velocity":40,"Duration":87998,"SoundDuration":87998,"Delta":46055512},{"NoteNumber":64,"Velocity":32,"Duration":87998,"SoundDuration":87998,"Delta":46055512},{"NoteNumber":76,"Velocity":32,"Duration":87811,"SoundDuration":87811,"Delta":46143510},{"NoteNumber":67,"Velocity":22,"Duration":87811,"SoundDuration":87811,"Delta":46143510},{"NoteNumber":72,"Velocity":26,"Duration":87811,"SoundDuration":87811,"Delta":46143510},{"NoteNumber":81,"Velocity":36,"Duration":87616,"SoundDuration":87616,"Delta":46231322},{"NoteNumber":64,"Velocity":32,"Duration":87616,"SoundDuration":87616,"Delta":46231322},{"NoteNumber":76,"Velocity":32,"Duration":87142,"SoundDuration":87142,"Delta":46318938},{"NoteNumber":67,"Velocity":22,"Duration":87142,"SoundDuration":87142,"Delta":46318938},{"NoteNumber":72,"Velocity":27,"Duration":87142,"SoundDuration":87142,"Delta":46318938},{"NoteNumber":79,"Velocity":29,"Duration":86053,"SoundDuration":86053,"Delta":46406081},{"NoteNumber":64,"Velocity":25,"Duration":86053,"SoundDuration":86053,"Delta":46406081},{"NoteNumber":76,"Velocity":25,"Duration":85572,"SoundDuration":85572,"Delta":46492134},{"NoteNumber":67,"Velocity":17,"Duration":85572,"SoundDuration":85572,"Delta":46492134},{"NoteNumber":72,"Velocity":21,"Duration":85572,"SoundDuration":85572,"Delta":46492134},{"NoteNumber":79,"Velocity":28,"Duration":85125,"SoundDuration":85125,"Delta":46577707},{"NoteNumber":64,"Velocity":25,"Duration":85125,"SoundDuration":85125,"Delta":46577707},{"NoteNumber":76,"Velocity":25,"Duration":84625,"SoundDuration":84625,"Delta":46662832},{"NoteNumber":67,"Velocity":17,"Duration":84625,"SoundDuration":84625,"Delta":46662832},{"NoteNumber":72,"Velocity":21,"Duration":84625,"SoundDuration":84625,"Delta":46662832},{"NoteNumber":79,"Velocity":39,"Duration":90252,"SoundDuration":90252,"Delta":46747457},{"NoteNumber":64,"Velocity":31,"Duration":90252,"SoundDuration":90252,"Delta":46747457},{"NoteNumber":84,"Velocity":50,"Duration":87998,"SoundDuration":87998,"Delta":47108468},{"NoteNumber":67,"Velocity":39,"Duration":87998,"SoundDuration":87998,"Delta":47108468},{"NoteNumber":76,"Velocity":39,"Duration":87811,"SoundDuration":87811,"Delta":47196467},{"NoteNumber":69,"Velocity":27,"Duration":87811,"SoundDuration":87811,"Delta":47196467},{"NoteNumber":73,"Velocity":31,"Duration":87811,"SoundDuration":87811,"Delta":47196467},{"NoteNumber":82,"Velocity":45,"Duration":87616,"SoundDuration":87616,"Delta":47284278},{"NoteNumber":67,"Velocity":39,"Duration":87616,"SoundDuration":87616,"Delta":47284278},{"NoteNumber":76,"Velocity":39,"Duration":87372,"SoundDuration":87372,"Delta":47371895},{"NoteNumber":69,"Velocity":27,"Duration":87372,"SoundDuration":87372,"Delta":47371895},{"NoteNumber":73,"Velocity":34,"Duration":87372,"SoundDuration":87372,"Delta":47371895},{"NoteNumber":81,"Velocity":36,"Duration":86765,"SoundDuration":86765,"Delta":47459267},{"NoteNumber":67,"Velocity":30,"Duration":86765,"SoundDuration":86765,"Delta":47459267},{"NoteNumber":76,"Velocity":30,"Duration":86350,"SoundDuration":86350,"Delta":47546033},{"NoteNumber":69,"Velocity":20,"Duration":86350,"SoundDuration":86350,"Delta":47546033},{"NoteNumber":73,"Velocity":26,"Duration":86350,"SoundDuration":86350,"Delta":47546033},{"NoteNumber":81,"Velocity":35,"Duration":86053,"SoundDuration":86053,"Delta":47632383},{"NoteNumber":67,"Velocity":30,"Duration":86053,"SoundDuration":86053,"Delta":47632383},{"NoteNumber":76,"Velocity":30,"Duration":85631,"SoundDuration":85631,"Delta":47718436},{"NoteNumber":69,"Velocity":20,"Duration":85631,"SoundDuration":85631,"Delta":47718436},{"NoteNumber":73,"Velocity":26,"Duration":85631,"SoundDuration":85631,"Delta":47718436},{"NoteNumber":81,"Velocity":48,"Duration":90252,"SoundDuration":90252,"Delta":47804068},{"NoteNumber":67,"Velocity":38,"Duration":90252,"SoundDuration":90252,"Delta":47804068},{"NoteNumber":84,"Velocity":55,"Duration":87998,"SoundDuration":87998,"Delta":48165079},{"NoteNumber":65,"Velocity":42,"Duration":87998,"SoundDuration":87998,"Delta":48165079},{"NoteNumber":77,"Velocity":42,"Duration":87811,"SoundDuration":87811,"Delta":48253077},{"NoteNumber":69,"Velocity":29,"Duration":87811,"SoundDuration":87811,"Delta":48253077},{"NoteNumber":74,"Velocity":34,"Duration":87811,"SoundDuration":87811,"Delta":48253077},{"NoteNumber":82,"Velocity":49,"Duration":87616,"SoundDuration":87616,"Delta":48340889},{"NoteNumber":65,"Velocity":42,"Duration":87616,"SoundDuration":87616,"Delta":48340889},{"NoteNumber":77,"Velocity":42,"Duration":87372,"SoundDuration":87372,"Delta":48428506},{"NoteNumber":69,"Velocity":29,"Duration":87372,"SoundDuration":87372,"Delta":48428506},{"NoteNumber":74,"Velocity":37,"Duration":87372,"SoundDuration":87372,"Delta":48428506},{"NoteNumber":81,"Velocity":39,"Duration":87190,"SoundDuration":87190,"Delta":48515878},{"NoteNumber":65,"Velocity":33,"Duration":87190,"SoundDuration":87190,"Delta":48515878},{"NoteNumber":77,"Velocity":33,"Duration":87007,"SoundDuration":87007,"Delta":48603068},{"NoteNumber":69,"Velocity":22,"Duration":87007,"SoundDuration":87007,"Delta":48603068},{"NoteNumber":74,"Velocity":28,"Duration":87007,"SoundDuration":87007,"Delta":48603068},{"NoteNumber":81,"Velocity":38,"Duration":86786,"SoundDuration":86786,"Delta":48690075},{"NoteNumber":65,"Velocity":33,"Duration":86786,"SoundDuration":86786,"Delta":48690075},{"NoteNumber":77,"Velocity":33,"Duration":86604,"SoundDuration":86604,"Delta":48776862},{"NoteNumber":69,"Velocity":22,"Duration":86604,"SoundDuration":86604,"Delta":48776862},{"NoteNumber":74,"Velocity":28,"Duration":86604,"SoundDuration":86604,"Delta":48776862},{"NoteNumber":81,"Velocity":52,"Duration":90252,"SoundDuration":90252,"Delta":48863467},{"NoteNumber":65,"Velocity":41,"Duration":90252,"SoundDuration":90252,"Delta":48863467},{"NoteNumber":86,"Velocity":60,"Duration":87998,"SoundDuration":87998,"Delta":49224478},{"NoteNumber":68,"Velocity":46,"Duration":87998,"SoundDuration":87998,"Delta":49224478},{"NoteNumber":78,"Velocity":46,"Duration":87811,"SoundDuration":87811,"Delta":49312476},{"NoteNumber":70,"Velocity":31,"Duration":87811,"SoundDuration":87811,"Delta":49312476},{"NoteNumber":74,"Velocity":37,"Duration":87811,"SoundDuration":87811,"Delta":49312476},{"NoteNumber":84,"Velocity":53,"Duration":87616,"SoundDuration":87616,"Delta":49400288},{"NoteNumber":68,"Velocity":46,"Duration":87616,"SoundDuration":87616,"Delta":49400288},{"NoteNumber":78,"Velocity":46,"Duration":87372,"SoundDuration":87372,"Delta":49487905},{"NoteNumber":70,"Velocity":31,"Duration":87372,"SoundDuration":87372,"Delta":49487905},{"NoteNumber":74,"Velocity":40,"Duration":87372,"SoundDuration":87372,"Delta":49487905},{"NoteNumber":82,"Velocity":42,"Duration":87190,"SoundDuration":87190,"Delta":49575277},{"NoteNumber":68,"Velocity":36,"Duration":87190,"SoundDuration":87190,"Delta":49575277},{"NoteNumber":78,"Velocity":36,"Duration":87007,"SoundDuration":87007,"Delta":49662468},{"NoteNumber":70,"Velocity":24,"Duration":87007,"SoundDuration":87007,"Delta":49662468},{"NoteNumber":74,"Velocity":30,"Duration":87007,"SoundDuration":87007,"Delta":49662468},{"NoteNumber":82,"Velocity":41,"Duration":86786,"SoundDuration":86786,"Delta":49749475},{"NoteNumber":68,"Velocity":36,"Duration":86786,"SoundDuration":86786,"Delta":49749475},{"NoteNumber":78,"Velocity":36,"Duration":86604,"SoundDuration":86604,"Delta":49836261},{"NoteNumber":70,"Velocity":24,"Duration":86604,"SoundDuration":86604,"Delta":49836261},{"NoteNumber":74,"Velocity":30,"Duration":86604,"SoundDuration":86604,"Delta":49836261},{"NoteNumber":82,"Velocity":57,"Duration":90252,"SoundDuration":90252,"Delta":49922866},{"NoteNumber":68,"Velocity":45,"Duration":90252,"SoundDuration":90252,"Delta":49922866},{"NoteNumber":86,"Velocity":66,"Duration":87998,"SoundDuration":87998,"Delta":50283877},{"NoteNumber":67,"Velocity":50,"Duration":87998,"SoundDuration":87998,"Delta":50283877},{"NoteNumber":79,"Velocity":50,"Duration":87811,"SoundDuration":87811,"Delta":50371876},{"NoteNumber":70,"Velocity":34,"Duration":87811,"SoundDuration":87811,"Delta":50371876},{"NoteNumber":75,"Velocity":40,"Duration":87811,"SoundDuration":87811,"Delta":50371876},{"NoteNumber":84,"Velocity":58,"Duration":87616,"SoundDuration":87616,"Delta":50459687},{"NoteNumber":67,"Velocity":50,"Duration":87616,"SoundDuration":87616,"Delta":50459687},{"NoteNumber":79,"Velocity":50,"Duration":87372,"SoundDuration":87372,"Delta":50547304},{"NoteNumber":70,"Velocity":34,"Duration":87372,"SoundDuration":87372,"Delta":50547304},{"NoteNumber":75,"Velocity":44,"Duration":87372,"SoundDuration":87372,"Delta":50547304},{"NoteNumber":82,"Velocity":46,"Duration":87190,"SoundDuration":87190,"Delta":50634676},{"NoteNumber":67,"Velocity":39,"Duration":87190,"SoundDuration":87190,"Delta":50634676},{"NoteNumber":79,"Velocity":39,"Duration":87007,"SoundDuration":87007,"Delta":50721867},{"NoteNumber":70,"Velocity":26,"Duration":87007,"SoundDuration":87007,"Delta":50721867},{"NoteNumber":75,"Velocity":33,"Duration":87007,"SoundDuration":87007,"Delta":50721867},{"NoteNumber":82,"Velocity":45,"Duration":86786,"SoundDuration":86786,"Delta":50808874},{"NoteNumber":67,"Velocity":39,"Duration":86786,"SoundDuration":86786,"Delta":50808874},{"NoteNumber":79,"Velocity":39,"Duration":86604,"SoundDuration":86604,"Delta":50895661},{"NoteNumber":70,"Velocity":26,"Duration":86604,"SoundDuration":86604,"Delta":50895661},{"NoteNumber":75,"Velocity":33,"Duration":86604,"SoundDuration":86604,"Delta":50895661},{"NoteNumber":82,"Velocity":62,"Duration":90252,"SoundDuration":90252,"Delta":50982266},{"NoteNumber":67,"Velocity":49,"Duration":90252,"SoundDuration":90252,"Delta":50982266},{"NoteNumber":84,"Velocity":66,"Duration":86963,"SoundDuration":86963,"Delta":51343277},{"NoteNumber":66,"Velocity":50,"Duration":86963,"SoundDuration":86963,"Delta":51343277},{"NoteNumber":79,"Velocity":50,"Duration":87423,"SoundDuration":87423,"Delta":51430240},{"NoteNumber":70,"Velocity":34,"Duration":87423,"SoundDuration":87423,"Delta":51430240},{"NoteNumber":73,"Velocity":40,"Duration":87423,"SoundDuration":87423,"Delta":51430240},{"NoteNumber":82,"Velocity":58,"Duration":87873,"SoundDuration":87873,"Delta":51517663},{"NoteNumber":66,"Velocity":50,"Duration":87873,"SoundDuration":87873,"Delta":51517663},{"NoteNumber":79,"Velocity":50,"Duration":88413,"SoundDuration":88413,"Delta":51605537},{"NoteNumber":70,"Velocity":34,"Duration":88413,"SoundDuration":88413,"Delta":51605537},{"NoteNumber":73,"Velocity":44,"Duration":88413,"SoundDuration":88413,"Delta":51605537},{"NoteNumber":84,"Velocity":66,"Duration":86963,"SoundDuration":86963,"Delta":51693950},{"NoteNumber":65,"Velocity":50,"Duration":86963,"SoundDuration":86963,"Delta":51693950},{"NoteNumber":80,"Velocity":50,"Duration":87423,"SoundDuration":87423,"Delta":51780914},{"NoteNumber":70,"Velocity":34,"Duration":87423,"SoundDuration":87423,"Delta":51780914},{"NoteNumber":73,"Velocity":40,"Duration":87423,"SoundDuration":87423,"Delta":51780914},{"NoteNumber":82,"Velocity":58,"Duration":87957,"SoundDuration":87957,"Delta":51868337},{"NoteNumber":65,"Velocity":50,"Duration":87957,"SoundDuration":87957,"Delta":51868337},{"NoteNumber":80,"Velocity":50,"Duration":88495,"SoundDuration":88495,"Delta":51956295},{"NoteNumber":70,"Velocity":34,"Duration":88495,"SoundDuration":88495,"Delta":51956295},{"NoteNumber":73,"Velocity":44,"Duration":88495,"SoundDuration":88495,"Delta":51956295},{"NoteNumber":84,"Velocity":66,"Duration":87744,"SoundDuration":87744,"Delta":52044791},{"NoteNumber":64,"Velocity":50,"Duration":87744,"SoundDuration":87744,"Delta":52044791},{"NoteNumber":79,"Velocity":50,"Duration":87049,"SoundDuration":87049,"Delta":52132535},{"NoteNumber":70,"Velocity":34,"Duration":87049,"SoundDuration":87049,"Delta":52132535},{"NoteNumber":73,"Velocity":40,"Duration":87049,"SoundDuration":87049,"Delta":52132535},{"NoteNumber":82,"Velocity":58,"Duration":87617,"SoundDuration":87617,"Delta":52219585},{"NoteNumber":64,"Velocity":50,"Duration":87617,"SoundDuration":87617,"Delta":52219585},{"NoteNumber":79,"Velocity":50,"Duration":88272,"SoundDuration":88272,"Delta":52307202},{"NoteNumber":70,"Velocity":34,"Duration":88272,"SoundDuration":88272,"Delta":52307202},{"NoteNumber":73,"Velocity":44,"Duration":88272,"SoundDuration":88272,"Delta":52307202},{"NoteNumber":81,"Velocity":66,"Duration":86963,"SoundDuration":86963,"Delta":52395474},{"NoteNumber":63,"Velocity":50,"Duration":86963,"SoundDuration":86963,"Delta":52395474},{"NoteNumber":73,"Velocity":50,"Duration":87423,"SoundDuration":87423,"Delta":52482438},{"NoteNumber":67,"Velocity":34,"Duration":87423,"SoundDuration":87423,"Delta":52482438},{"NoteNumber":70,"Velocity":40,"Duration":87423,"SoundDuration":87423,"Delta":52482438},{"NoteNumber":79,"Velocity":58,"Duration":87873,"SoundDuration":87873,"Delta":52569861},{"NoteNumber":63,"Velocity":50,"Duration":87873,"SoundDuration":87873,"Delta":52569861},{"NoteNumber":73,"Velocity":50,"Duration":88413,"SoundDuration":88413,"Delta":52657735},{"NoteNumber":67,"Velocity":34,"Duration":88413,"SoundDuration":88413,"Delta":52657735},{"NoteNumber":70,"Velocity":44,"Duration":88413,"SoundDuration":88413,"Delta":52657735},{"NoteNumber":81,"Velocity":66,"Duration":86963,"SoundDuration":86963,"Delta":52746148},{"NoteNumber":62,"Velocity":50,"Duration":86963,"SoundDuration":86963,"Delta":52746148},{"NoteNumber":77,"Velocity":50,"Duration":87423,"SoundDuration":87423,"Delta":52833111},{"NoteNumber":67,"Velocity":34,"Duration":87423,"SoundDuration":87423,"Delta":52833111},{"NoteNumber":70,"Velocity":40,"Duration":87423,"SoundDuration":87423,"Delta":52833111},{"NoteNumber":79,"Velocity":58,"Duration":87957,"SoundDuration":87957,"Delta":52920535},{"NoteNumber":62,"Velocity":50,"Duration":87957,"SoundDuration":87957,"Delta":52920535},{"NoteNumber":77,"Velocity":50,"Duration":88495,"SoundDuration":88495,"Delta":53008493},{"NoteNumber":67,"Velocity":34,"Duration":88495,"SoundDuration":88495,"Delta":53008493},{"NoteNumber":70,"Velocity":44,"Duration":88495,"SoundDuration":88495,"Delta":53008493},{"NoteNumber":81,"Velocity":66,"Duration":87744,"SoundDuration":87744,"Delta":53096988},{"NoteNumber":61,"Velocity":50,"Duration":87744,"SoundDuration":87744,"Delta":53096988},{"NoteNumber":76,"Velocity":50,"Duration":87049,"SoundDuration":87049,"Delta":53184733},{"NoteNumber":67,"Velocity":34,"Duration":87049,"SoundDuration":87049,"Delta":53184733},{"NoteNumber":70,"Velocity":40,"Duration":87049,"SoundDuration":87049,"Delta":53184733},{"NoteNumber":79,"Velocity":58,"Duration":87550,"SoundDuration":87550,"Delta":53271782},{"NoteNumber":61,"Velocity":50,"Duration":87550,"SoundDuration":87550,"Delta":53271782},{"NoteNumber":76,"Velocity":50,"Duration":130775,"SoundDuration":130775,"Delta":53359333},{"NoteNumber":67,"Velocity":34,"Duration":130775,"SoundDuration":130775,"Delta":53359333},{"NoteNumber":70,"Velocity":44,"Duration":130775,"SoundDuration":130775,"Delta":53359333},{"NoteNumber":78,"Velocity":66,"Duration":86941,"SoundDuration":86941,"Delta":53490109},{"NoteNumber":60,"Velocity":50,"Duration":86941,"SoundDuration":86941,"Delta":53490109},{"NoteNumber":70,"Velocity":50,"Duration":87423,"SoundDuration":87423,"Delta":53577051},{"NoteNumber":64,"Velocity":34,"Duration":87423,"SoundDuration":87423,"Delta":53577051},{"NoteNumber":67,"Velocity":40,"Duration":87423,"SoundDuration":87423,"Delta":53577051},{"NoteNumber":78,"Velocity":58,"Duration":87873,"SoundDuration":87873,"Delta":53664475},{"NoteNumber":60,"Velocity":50,"Duration":87873,"SoundDuration":87873,"Delta":53664475},{"NoteNumber":70,"Velocity":50,"Duration":88413,"SoundDuration":88413,"Delta":53752349},{"NoteNumber":64,"Velocity":34,"Duration":88413,"SoundDuration":88413,"Delta":53752349},{"NoteNumber":67,"Velocity":44,"Duration":88413,"SoundDuration":88413,"Delta":53752349},{"NoteNumber":78,"Velocity":67,"Duration":86963,"SoundDuration":86963,"Delta":53840762},{"NoteNumber":59,"Velocity":51,"Duration":86963,"SoundDuration":86963,"Delta":53840762},{"NoteNumber":74,"Velocity":51,"Duration":87423,"SoundDuration":87423,"Delta":53927725},{"NoteNumber":64,"Velocity":35,"Duration":87423,"SoundDuration":87423,"Delta":53927725},{"NoteNumber":67,"Velocity":41,"Duration":87423,"SoundDuration":87423,"Delta":53927725},{"NoteNumber":76,"Velocity":59,"Duration":87957,"SoundDuration":87957,"Delta":54015149},{"NoteNumber":59,"Velocity":51,"Duration":87957,"SoundDuration":87957,"Delta":54015149},{"NoteNumber":74,"Velocity":52,"Duration":88495,"SoundDuration":88495,"Delta":54103106},{"NoteNumber":64,"Velocity":35,"Duration":88495,"SoundDuration":88495,"Delta":54103106},{"NoteNumber":67,"Velocity":45,"Duration":88495,"SoundDuration":88495,"Delta":54103106},{"NoteNumber":78,"Velocity":69,"Duration":87744,"SoundDuration":87744,"Delta":54191602},{"NoteNumber":58,"Velocity":52,"Duration":87744,"SoundDuration":87744,"Delta":54191602},{"NoteNumber":73,"Velocity":52,"Duration":87049,"SoundDuration":87049,"Delta":54279347},{"NoteNumber":64,"Velocity":35,"Duration":87049,"SoundDuration":87049,"Delta":54279347},{"NoteNumber":67,"Velocity":42,"Duration":87049,"SoundDuration":87049,"Delta":54279347},{"NoteNumber":76,"Velocity":61,"Duration":87617,"SoundDuration":87617,"Delta":54366396},{"NoteNumber":58,"Velocity":53,"Duration":87617,"SoundDuration":87617,"Delta":54366396},{"NoteNumber":73,"Velocity":53,"Duration":88272,"SoundDuration":88272,"Delta":54454013},{"NoteNumber":64,"Velocity":36,"Duration":88272,"SoundDuration":88272,"Delta":54454013},{"NoteNumber":67,"Velocity":46,"Duration":88272,"SoundDuration":88272,"Delta":54454013},{"NoteNumber":78,"Velocity":70,"Duration":86963,"SoundDuration":86963,"Delta":54542286},{"NoteNumber":57,"Velocity":53,"Duration":86963,"SoundDuration":86963,"Delta":54542286},{"NoteNumber":72,"Velocity":54,"Duration":87423,"SoundDuration":87423,"Delta":54629249},{"NoteNumber":64,"Velocity":36,"Duration":87423,"SoundDuration":87423,"Delta":54629249},{"NoteNumber":67,"Velocity":43,"Duration":87423,"SoundDuration":87423,"Delta":54629249},{"NoteNumber":76,"Velocity":62,"Duration":87873,"SoundDuration":87873,"Delta":54716673},{"NoteNumber":57,"Velocity":54,"Duration":87873,"SoundDuration":87873,"Delta":54716673},{"NoteNumber":72,"Velocity":54,"Duration":88413,"SoundDuration":88413,"Delta":54804546},{"NoteNumber":64,"Velocity":37,"Duration":88413,"SoundDuration":88413,"Delta":54804546},{"NoteNumber":67,"Velocity":47,"Duration":88413,"SoundDuration":88413,"Delta":54804546},{"NoteNumber":78,"Velocity":70,"Duration":86963,"SoundDuration":86963,"Delta":54892960},{"NoteNumber":56,"Velocity":55,"Duration":86963,"SoundDuration":86963,"Delta":54892960},{"NoteNumber":71,"Velocity":55,"Duration":87423,"SoundDuration":87423,"Delta":54979923},{"NoteNumber":64,"Velocity":37,"Duration":87423,"SoundDuration":87423,"Delta":54979923},{"NoteNumber":66,"Velocity":44,"Duration":87423,"SoundDuration":87423,"Delta":54979923},{"NoteNumber":76,"Velocity":64,"Duration":87957,"SoundDuration":87957,"Delta":55067347},{"NoteNumber":56,"Velocity":55,"Duration":87957,"SoundDuration":87957,"Delta":55067347},{"NoteNumber":71,"Velocity":55,"Duration":88495,"SoundDuration":88495,"Delta":55155304},{"NoteNumber":64,"Velocity":37,"Duration":88495,"SoundDuration":88495,"Delta":55155304},{"NoteNumber":66,"Velocity":48,"Duration":88495,"SoundDuration":88495,"Delta":55155304},{"NoteNumber":78,"Velocity":69,"Duration":87744,"SoundDuration":87744,"Delta":55243800},{"NoteNumber":55,"Velocity":56,"Duration":87744,"SoundDuration":87744,"Delta":55243800},{"NoteNumber":71,"Velocity":56,"Duration":87049,"SoundDuration":87049,"Delta":55331545},{"NoteNumber":64,"Velocity":38,"Duration":87049,"SoundDuration":87049,"Delta":55331545},{"NoteNumber":66,"Velocity":45,"Duration":87049,"SoundDuration":87049,"Delta":55331545},{"NoteNumber":76,"Velocity":65,"Duration":87550,"SoundDuration":87550,"Delta":55418594},{"NoteNumber":55,"Velocity":56,"Duration":87550,"SoundDuration":87550,"Delta":55418594},{"NoteNumber":71,"Velocity":57,"Duration":133940,"SoundDuration":133940,"Delta":55506145},{"NoteNumber":64,"Velocity":38,"Duration":133940,"SoundDuration":133940,"Delta":55506145},{"NoteNumber":66,"Velocity":50,"Duration":133940,"SoundDuration":133940,"Delta":55506145},{"NoteNumber":78,"Velocity":74,"Duration":85369,"SoundDuration":85369,"Delta":55640085},{"NoteNumber":57,"Velocity":63,"Duration":170486,"SoundDuration":170486,"Delta":55640085},{"NoteNumber":70,"Velocity":54,"Duration":85117,"SoundDuration":85117,"Delta":55725455},{"NoteNumber":76,"Velocity":66,"Duration":85331,"SoundDuration":85331,"Delta":55810572},{"NoteNumber":67,"Velocity":55,"Duration":85544,"SoundDuration":85544,"Delta":55895904},{"NoteNumber":74,"Velocity":65,"Duration":85760,"SoundDuration":85760,"Delta":55981448},{"NoteNumber":67,"Velocity":53,"Duration":85975,"SoundDuration":85975,"Delta":56067208},{"NoteNumber":73,"Velocity":62,"Duration":86211,"SoundDuration":86211,"Delta":56153183},{"NoteNumber":64,"Velocity":55,"Duration":86441,"SoundDuration":86441,"Delta":56239395},{"NoteNumber":71,"Velocity":66,"Duration":86662,"SoundDuration":86662,"Delta":56325836},{"NoteNumber":64,"Velocity":50,"Duration":86881,"SoundDuration":86881,"Delta":56412499},{"NoteNumber":70,"Velocity":58,"Duration":87104,"SoundDuration":87104,"Delta":56499381},{"NoteNumber":61,"Velocity":50,"Duration":87494,"SoundDuration":87494,"Delta":56586485},{"NoteNumber":67,"Velocity":74,"Duration":85544,"SoundDuration":85544,"Delta":56673980},{"NoteNumber":61,"Velocity":54,"Duration":85754,"SoundDuration":85754,"Delta":56768096},{"NoteNumber":66,"Velocity":66,"Duration":86024,"SoundDuration":86024,"Delta":56845253},{"NoteNumber":58,"Velocity":55,"Duration":86282,"SoundDuration":86282,"Delta":56931278},{"NoteNumber":62,"Velocity":65,"Duration":86541,"SoundDuration":86541,"Delta":57017560},{"NoteNumber":58,"Velocity":53,"Duration":86842,"SoundDuration":86842,"Delta":57104102},{"NoteNumber":61,"Velocity":62,"Duration":87104,"SoundDuration":87104,"Delta":57190944},{"NoteNumber":54,"Velocity":55,"Duration":87409,"SoundDuration":87409,"Delta":57278048},{"NoteNumber":59,"Velocity":66,"Duration":87675,"SoundDuration":87675,"Delta":57365458},{"NoteNumber":54,"Velocity":50,"Duration":87951,"SoundDuration":87951,"Delta":57453133},{"NoteNumber":58,"Velocity":58,"Duration":88262,"SoundDuration":88262,"Delta":57541085},{"NoteNumber":49,"Velocity":50,"Duration":88559,"SoundDuration":88559,"Delta":57629347},{"NoteNumber":55,"Velocity":74,"Duration":85737,"SoundDuration":85737,"Delta":57717907},{"NoteNumber":49,"Velocity":54,"Duration":85385,"SoundDuration":85385,"Delta":57803644},{"NoteNumber":54,"Velocity":66,"Duration":85095,"SoundDuration":85095,"Delta":57889030},{"NoteNumber":46,"Velocity":55,"Duration":84738,"SoundDuration":84738,"Delta":57974125},{"NoteNumber":53,"Velocity":71,"Duration":84434,"SoundDuration":84434,"Delta":58058864},{"NoteNumber":52,"Velocity":64,"Duration":84150,"SoundDuration":84150,"Delta":58143299},{"NoteNumber":51,"Velocity":59,"Duration":83811,"SoundDuration":83811,"Delta":58227449},{"NoteNumber":50,"Velocity":57,"Duration":83504,"SoundDuration":83504,"Delta":58311261},{"NoteNumber":49,"Velocity":56,"Duration":83226,"SoundDuration":83226,"Delta":58394765},{"NoteNumber":48,"Velocity":51,"Duration":82904,"SoundDuration":82904,"Delta":58477991},{"NoteNumber":47,"Velocity":48,"Duration":82594,"SoundDuration":82594,"Delta":58560896},{"NoteNumber":46,"Velocity":48,"Duration":82322,"SoundDuration":82322,"Delta":58643490},{"NoteNumber":45,"Velocity":48,"Duration":82014,"SoundDuration":82014,"Delta":58725812},{"NoteNumber":44,"Velocity":44,"Duration":81971,"SoundDuration":81971,"Delta":58807827},{"NoteNumber":43,"Velocity":42,"Duration":81971,"SoundDuration":81971,"Delta":58889799},{"NoteNumber":42,"Velocity":42,"Duration":81971,"SoundDuration":81971,"Delta":58971771},{"NoteNumber":41,"Velocity":40,"Duration":54647,"SoundDuration":54647,"Delta":59053742},{"NoteNumber":40,"Velocity":36,"Duration":54647,"SoundDuration":54647,"Delta":59163038},{"NoteNumber":39,"Velocity":33,"Duration":54647,"SoundDuration":54647,"Delta":59272334},{"NoteNumber":38,"Velocity":30,"Duration":54643,"SoundDuration":54643,"Delta":59381629},{"NoteNumber":37,"Velocity":26,"Duration":54825,"SoundDuration":54825,"Delta":59490979},{"NoteNumber":36,"Velocity":25,"Duration":138498,"SoundDuration":138498,"Delta":59600752},{"NoteNumber":59,"Velocity":33,"Duration":87998,"SoundDuration":87998,"Delta":60135272},{"NoteNumber":35,"Velocity":20,"Duration":788640,"SoundDuration":788640,"Delta":60135272},{"NoteNumber":42,"Velocity":27,"Duration":87998,"SoundDuration":87998,"Delta":60135272},{"NoteNumber":62,"Velocity":25,"Duration":87811,"SoundDuration":87811,"Delta":60223270},{"NoteNumber":43,"Velocity":20,"Duration":87811,"SoundDuration":87811,"Delta":60223270},{"NoteNumber":61,"Velocity":27,"Duration":87616,"SoundDuration":87616,"Delta":60311081},{"NoteNumber":42,"Velocity":24,"Duration":87616,"SoundDuration":87616,"Delta":60311081},{"NoteNumber":64,"Velocity":23,"Duration":87372,"SoundDuration":87372,"Delta":60398698},{"NoteNumber":43,"Velocity":20,"Duration":87372,"SoundDuration":87372,"Delta":60398698},{"NoteNumber":62,"Velocity":26,"Duration":87190,"SoundDuration":87190,"Delta":60486070},{"NoteNumber":42,"Velocity":22,"Duration":87190,"SoundDuration":87190,"Delta":60486070},{"NoteNumber":66,"Velocity":21,"Duration":87007,"SoundDuration":87007,"Delta":60573261},{"NoteNumber":43,"Velocity":18,"Duration":87007,"SoundDuration":87007,"Delta":60573261},{"NoteNumber":64,"Velocity":22,"Duration":86786,"SoundDuration":86786,"Delta":60660268},{"NoteNumber":42,"Velocity":20,"Duration":86786,"SoundDuration":86786,"Delta":60660268},{"NoteNumber":67,"Velocity":19,"Duration":86604,"SoundDuration":86604,"Delta":60747055},{"NoteNumber":43,"Velocity":16,"Duration":86604,"SoundDuration":86604,"Delta":60747055},{"NoteNumber":62,"Velocity":22,"Duration":90252,"SoundDuration":90252,"Delta":60833660},{"NoteNumber":66,"Velocity":22,"Duration":90252,"SoundDuration":90252,"Delta":60833660},{"NoteNumber":42,"Velocity":17,"Duration":90252,"SoundDuration":90252,"Delta":60833660},{"NoteNumber":59,"Velocity":33,"Duration":88079,"SoundDuration":88079,"Delta":61193999},{"NoteNumber":35,"Velocity":20,"Duration":788674,"SoundDuration":788674,"Delta":61193999},{"NoteNumber":42,"Velocity":27,"Duration":88079,"SoundDuration":88079,"Delta":61193999},{"NoteNumber":62,"Velocity":25,"Duration":87854,"SoundDuration":87854,"Delta":61282079},{"NoteNumber":43,"Velocity":20,"Duration":87854,"SoundDuration":87854,"Delta":61282079},{"NoteNumber":61,"Velocity":27,"Duration":87616,"SoundDuration":87616,"Delta":61369933},{"NoteNumber":42,"Velocity":24,"Duration":87616,"SoundDuration":87616,"Delta":61369933},{"NoteNumber":64,"Velocity":23,"Duration":87372,"SoundDuration":87372,"Delta":61457550},{"NoteNumber":43,"Velocity":20,"Duration":87372,"SoundDuration":87372,"Delta":61457550},{"NoteNumber":62,"Velocity":26,"Duration":87148,"SoundDuration":87148,"Delta":61544922},{"NoteNumber":42,"Velocity":22,"Duration":87148,"SoundDuration":87148,"Delta":61544922},{"NoteNumber":66,"Velocity":21,"Duration":86927,"SoundDuration":86927,"Delta":61632071},{"NoteNumber":43,"Velocity":18,"Duration":86927,"SoundDuration":86927,"Delta":61632071},{"NoteNumber":64,"Velocity":22,"Duration":86705,"SoundDuration":86705,"Delta":61718998},{"NoteNumber":42,"Velocity":20,"Duration":86705,"SoundDuration":86705,"Delta":61718998},{"NoteNumber":67,"Velocity":19,"Duration":86445,"SoundDuration":86445,"Delta":61805703},{"NoteNumber":43,"Velocity":16,"Duration":86445,"SoundDuration":86445,"Delta":61805703},{"NoteNumber":62,"Velocity":22,"Duration":90524,"SoundDuration":90524,"Delta":61892148},{"NoteNumber":66,"Velocity":22,"Duration":90524,"SoundDuration":90524,"Delta":61892148},{"NoteNumber":42,"Velocity":17,"Duration":90524,"SoundDuration":90524,"Delta":61892148},{"NoteNumber":67,"Velocity":36,"Duration":86846,"SoundDuration":86846,"Delta":62254248},{"NoteNumber":35,"Velocity":20,"Duration":791228,"SoundDuration":791228,"Delta":62254248},{"NoteNumber":42,"Velocity":27,"Duration":86846,"SoundDuration":86846,"Delta":62254248},{"NoteNumber":71,"Velocity":29,"Duration":86784,"SoundDuration":86784,"Delta":62341095},{"NoteNumber":43,"Velocity":21,"Duration":86784,"SoundDuration":86784,"Delta":62341095},{"NoteNumber":66,"Velocity":33,"Duration":87007,"SoundDuration":87007,"Delta":62427880},{"NoteNumber":42,"Velocity":27,"Duration":87007,"SoundDuration":87007,"Delta":62427880},{"NoteNumber":69,"Velocity":28,"Duration":87228,"SoundDuration":87228,"Delta":62514887},{"NoteNumber":43,"Velocity":23,"Duration":87228,"SoundDuration":87228,"Delta":62514887},{"NoteNumber":64,"Velocity":32,"Duration":87453,"SoundDuration":87453,"Delta":62602115},{"NoteNumber":42,"Velocity":27,"Duration":87453,"SoundDuration":87453,"Delta":62602115},{"NoteNumber":67,"Velocity":27,"Duration":87678,"SoundDuration":87678,"Delta":62689568},{"NoteNumber":43,"Velocity":23,"Duration":87678,"SoundDuration":87678,"Delta":62689568},{"NoteNumber":62,"Velocity":30,"Duration":87903,"SoundDuration":87903,"Delta":62777247},{"NoteNumber":42,"Velocity":27,"Duration":87903,"SoundDuration":87903,"Delta":62777247},{"NoteNumber":66,"Velocity":27,"Duration":88131,"SoundDuration":88131,"Delta":62865151},{"NoteNumber":43,"Velocity":23,"Duration":88131,"SoundDuration":88131,"Delta":62865151},{"NoteNumber":61,"Velocity":33,"Duration":92194,"SoundDuration":92194,"Delta":62953282},{"NoteNumber":64,"Velocity":33,"Duration":92194,"SoundDuration":92194,"Delta":62953282},{"NoteNumber":42,"Velocity":26,"Duration":92194,"SoundDuration":92194,"Delta":62953282},{"NoteNumber":66,"Velocity":36,"Duration":86024,"SoundDuration":86024,"Delta":63322059},{"NoteNumber":35,"Velocity":20,"Duration":786245,"SoundDuration":786245,"Delta":63322059},{"NoteNumber":42,"Velocity":27,"Duration":86024,"SoundDuration":86024,"Delta":63322059},{"NoteNumber":69,"Velocity":29,"Duration":85921,"SoundDuration":85921,"Delta":63408084},{"NoteNumber":43,"Velocity":21,"Duration":85921,"SoundDuration":85921,"Delta":63408084},{"NoteNumber":64,"Velocity":33,"Duration":86256,"SoundDuration":86256,"Delta":63494005},{"NoteNumber":42,"Velocity":27,"Duration":86256,"SoundDuration":86256,"Delta":63494005},{"NoteNumber":67,"Velocity":28,"Duration":86594,"SoundDuration":86594,"Delta":63580262},{"NoteNumber":43,"Velocity":23,"Duration":86594,"SoundDuration":86594,"Delta":63580262},{"NoteNumber":62,"Velocity":32,"Duration":86946,"SoundDuration":86946,"Delta":63666857},{"NoteNumber":42,"Velocity":27,"Duration":86946,"SoundDuration":86946,"Delta":63666857},{"NoteNumber":66,"Velocity":27,"Duration":87249,"SoundDuration":87249,"Delta":63753803},{"NoteNumber":43,"Velocity":23,"Duration":87249,"SoundDuration":87249,"Delta":63753803},{"NoteNumber":61,"Velocity":30,"Duration":87625,"SoundDuration":87625,"Delta":63841052},{"NoteNumber":42,"Velocity":27,"Duration":87625,"SoundDuration":87625,"Delta":63841052},{"NoteNumber":64,"Velocity":27,"Duration":87996,"SoundDuration":87996,"Delta":63928678},{"NoteNumber":43,"Velocity":23,"Duration":87996,"SoundDuration":87996,"Delta":63928678},{"NoteNumber":59,"Velocity":33,"Duration":91631,"SoundDuration":91631,"Delta":64016674},{"NoteNumber":62,"Velocity":33,"Duration":91631,"SoundDuration":91631,"Delta":64016674},{"NoteNumber":42,"Velocity":26,"Duration":91631,"SoundDuration":91631,"Delta":64016674},{"NoteNumber":55,"Velocity":36,"Duration":88090,"SoundDuration":88090,"Delta":64383198},{"NoteNumber":43,"Velocity":44,"Duration":88090,"SoundDuration":88090,"Delta":64383198},{"NoteNumber":59,"Velocity":45,"Duration":87946,"SoundDuration":87946,"Delta":64471289},{"NoteNumber":50,"Velocity":36,"Duration":87946,"SoundDuration":87946,"Delta":64471289},{"NoteNumber":57,"Velocity":50,"Duration":87719,"SoundDuration":87719,"Delta":64559235},{"NoteNumber":43,"Velocity":44,"Duration":87719,"SoundDuration":87719,"Delta":64559235},{"NoteNumber":61,"Velocity":45,"Duration":87453,"SoundDuration":87453,"Delta":64646955},{"NoteNumber":50,"Velocity":38,"Duration":87453,"SoundDuration":87453,"Delta":64646955},{"NoteNumber":59,"Velocity":51,"Duration":87230,"SoundDuration":87230,"Delta":64734408},{"NoteNumber":43,"Velocity":44,"Duration":87230,"SoundDuration":87230,"Delta":64734408},{"NoteNumber":62,"Velocity":45,"Duration":87007,"SoundDuration":87007,"Delta":64821638},{"NoteNumber":50,"Velocity":38,"Duration":87007,"SoundDuration":87007,"Delta":64821638},{"NoteNumber":61,"Velocity":52,"Duration":86745,"SoundDuration":86745,"Delta":64908646},{"NoteNumber":43,"Velocity":46,"Duration":86745,"SoundDuration":86745,"Delta":64908646},{"NoteNumber":64,"Velocity":47,"Duration":86605,"SoundDuration":86605,"Delta":64995391},{"NoteNumber":50,"Velocity":40,"Duration":86605,"SoundDuration":86605,"Delta":64995391},{"NoteNumber":62,"Velocity":53,"Duration":91631,"SoundDuration":91631,"Delta":65081996},{"NoteNumber":59,"Velocity":53,"Duration":91631,"SoundDuration":91631,"Delta":65081996},{"NoteNumber":43,"Velocity":42,"Duration":91631,"SoundDuration":91631,"Delta":65081996},{"NoteNumber":60,"Velocity":36,"Duration":87784,"SoundDuration":87784,"Delta":65448520},{"NoteNumber":36,"Velocity":44,"Duration":87784,"SoundDuration":87784,"Delta":65448520},{"NoteNumber":64,"Velocity":45,"Duration":87597,"SoundDuration":87597,"Delta":65536304},{"NoteNumber":43,"Velocity":36,"Duration":87597,"SoundDuration":87597,"Delta":65536304},{"NoteNumber":62,"Velocity":50,"Duration":87361,"SoundDuration":87361,"Delta":65623901},{"NoteNumber":36,"Velocity":44,"Duration":87361,"SoundDuration":87361,"Delta":65623901},{"NoteNumber":66,"Velocity":45,"Duration":87241,"SoundDuration":87241,"Delta":65711263},{"NoteNumber":43,"Velocity":38,"Duration":87241,"SoundDuration":87241,"Delta":65711263},{"NoteNumber":64,"Velocity":51,"Duration":87108,"SoundDuration":87108,"Delta":65798504},{"NoteNumber":36,"Velocity":44,"Duration":87108,"SoundDuration":87108,"Delta":65798504},{"NoteNumber":67,"Velocity":45,"Duration":86887,"SoundDuration":86887,"Delta":65885612},{"NoteNumber":43,"Velocity":38,"Duration":86887,"SoundDuration":86887,"Delta":65885612},{"NoteNumber":66,"Velocity":52,"Duration":86786,"SoundDuration":86786,"Delta":65972499},{"NoteNumber":36,"Velocity":46,"Duration":86786,"SoundDuration":86786,"Delta":65972499},{"NoteNumber":69,"Velocity":47,"Duration":86605,"SoundDuration":86605,"Delta":66059286},{"NoteNumber":43,"Velocity":40,"Duration":86605,"SoundDuration":86605,"Delta":66059286},{"NoteNumber":64,"Velocity":53,"Duration":91074,"SoundDuration":91074,"Delta":66145891},{"NoteNumber":67,"Velocity":53,"Duration":91074,"SoundDuration":91074,"Delta":66145891},{"NoteNumber":36,"Velocity":42,"Duration":91074,"SoundDuration":91074,"Delta":66145891},{"NoteNumber":66,"Velocity":27,"Duration":86285,"SoundDuration":86285,"Delta":66596872},{"NoteNumber":58,"Velocity":25,"Duration":86544,"SoundDuration":86544,"Delta":66683158},{"NoteNumber":64,"Velocity":30,"Duration":86544,"SoundDuration":86544,"Delta":66683158},{"NoteNumber":40,"Velocity":18,"Duration":86544,"SoundDuration":86544,"Delta":66683158},{"NoteNumber":42,"Velocity":22,"Duration":86544,"SoundDuration":86544,"Delta":66683158},{"NoteNumber":66,"Velocity":28,"Duration":86845,"SoundDuration":86845,"Delta":66769702},{"NoteNumber":58,"Velocity":28,"Duration":87118,"SoundDuration":87118,"Delta":66856548},{"NoteNumber":63,"Velocity":33,"Duration":87118,"SoundDuration":87118,"Delta":66856548},{"NoteNumber":39,"Velocity":24,"Duration":87118,"SoundDuration":87118,"Delta":66856548},{"NoteNumber":42,"Velocity":24,"Duration":87118,"SoundDuration":87118,"Delta":66856548},{"NoteNumber":66,"Velocity":29,"Duration":87423,"SoundDuration":87423,"Delta":66943666},{"NoteNumber":58,"Velocity":29,"Duration":87687,"SoundDuration":87687,"Delta":67031090},{"NoteNumber":62,"Velocity":35,"Duration":87687,"SoundDuration":87687,"Delta":67031090},{"NoteNumber":38,"Velocity":22,"Duration":87687,"SoundDuration":87687,"Delta":67031090},{"NoteNumber":42,"Velocity":26,"Duration":87687,"SoundDuration":87687,"Delta":67031090},{"NoteNumber":66,"Velocity":28,"Duration":87996,"SoundDuration":87996,"Delta":67118777},{"NoteNumber":58,"Velocity":30,"Duration":89462,"SoundDuration":89462,"Delta":67206773},{"NoteNumber":61,"Velocity":36,"Duration":89462,"SoundDuration":89462,"Delta":67206773},{"NoteNumber":37,"Velocity":23,"Duration":89462,"SoundDuration":89462,"Delta":67206773},{"NoteNumber":42,"Velocity":28,"Duration":89462,"SoundDuration":89462,"Delta":67206773},{"NoteNumber":66,"Velocity":32,"Duration":89713,"SoundDuration":89713,"Delta":67296236},{"NoteNumber":57,"Velocity":30,"Duration":89712,"SoundDuration":89712,"Delta":67385949},{"NoteNumber":60,"Velocity":36,"Duration":89712,"SoundDuration":89712,"Delta":67385949},{"NoteNumber":36,"Velocity":25,"Duration":89712,"SoundDuration":89712,"Delta":67385949},{"NoteNumber":42,"Velocity":30,"Duration":89712,"SoundDuration":89712,"Delta":67385949},{"NoteNumber":66,"Velocity":33,"Duration":102158,"SoundDuration":102158,"Delta":67475662},{"NoteNumber":59,"Velocity":35,"Duration":900985,"SoundDuration":900985,"Delta":67577820},{"NoteNumber":35,"Velocity":29,"Duration":88484,"SoundDuration":88484,"Delta":67577820},{"NoteNumber":42,"Velocity":19,"Duration":88840,"SoundDuration":88840,"Delta":67666305},{"NoteNumber":35,"Velocity":19,"Duration":89230,"SoundDuration":89230,"Delta":67755146},{"NoteNumber":42,"Velocity":19,"Duration":89572,"SoundDuration":89572,"Delta":67844377},{"NoteNumber":35,"Velocity":27,"Duration":89950,"SoundDuration":89950,"Delta":67933949},{"NoteNumber":42,"Velocity":20,"Duration":90361,"SoundDuration":90361,"Delta":68023900},{"NoteNumber":35,"Velocity":22,"Duration":90689,"SoundDuration":90689,"Delta":68114261},{"NoteNumber":42,"Velocity":20,"Duration":91151,"SoundDuration":91151,"Delta":68204951},{"NoteNumber":35,"Velocity":27,"Duration":91352,"SoundDuration":91352,"Delta":68296102},{"NoteNumber":42,"Velocity":20,"Duration":91352,"SoundDuration":91352,"Delta":68387454},{"NoteNumber":35,"Velocity":22,"Duration":91352,"SoundDuration":91352,"Delta":68478806},{"NoteNumber":42,"Velocity":20,"Duration":91352,"SoundDuration":91352,"Delta":68570158},{"NoteNumber":55,"Velocity":42,"Duration":88090,"SoundDuration":88090,"Delta":68661510},{"NoteNumber":40,"Velocity":34,"Duration":88090,"SoundDuration":88090,"Delta":68661510},{"NoteNumber":59,"Velocity":37,"Duration":87946,"SoundDuration":87946,"Delta":68749601},{"NoteNumber":47,"Velocity":29,"Duration":87946,"SoundDuration":87946,"Delta":68749601},{"NoteNumber":56,"Velocity":45,"Duration":87719,"SoundDuration":87719,"Delta":68837547},{"NoteNumber":40,"Velocity":35,"Duration":87719,"SoundDuration":87719,"Delta":68837547},{"NoteNumber":60,"Velocity":39,"Duration":87453,"SoundDuration":87453,"Delta":68925267},{"NoteNumber":47,"Velocity":31,"Duration":87453,"SoundDuration":87453,"Delta":68925267},{"NoteNumber":57,"Velocity":46,"Duration":87230,"SoundDuration":87230,"Delta":69012720},{"NoteNumber":61,"Velocity":41,"Duration":87007,"SoundDuration":87007,"Delta":69099950},{"NoteNumber":58,"Velocity":49,"Duration":86493,"SoundDuration":86493,"Delta":69186957},{"NoteNumber":62,"Velocity":42,"Duration":86285,"SoundDuration":86285,"Delta":69273451},{"NoteNumber":59,"Velocity":51,"Duration":86105,"SoundDuration":86105,"Delta":69359736},{"NoteNumber":63,"Velocity":45,"Duration":85861,"SoundDuration":85861,"Delta":69445842},{"NoteNumber":60,"Velocity":52,"Duration":85683,"SoundDuration":85683,"Delta":69531704},{"NoteNumber":64,"Velocity":47,"Duration":85508,"SoundDuration":85508,"Delta":69617388},{"NoteNumber":61,"Velocity":57,"Duration":96339,"SoundDuration":96339,"Delta":69702896},{"NoteNumber":53,"Velocity":48,"Duration":96339,"SoundDuration":96339,"Delta":69702896},{"NoteNumber":35,"Velocity":36,"Duration":96339,"SoundDuration":96339,"Delta":69702896},{"NoteNumber":42,"Velocity":22,"Duration":96339,"SoundDuration":96339,"Delta":69799235},{"NoteNumber":35,"Velocity":22,"Duration":96339,"SoundDuration":96339,"Delta":69895574},{"NoteNumber":42,"Velocity":22,"Duration":96339,"SoundDuration":96339,"Delta":69991913},{"NoteNumber":54,"Velocity":30,"Duration":728598,"SoundDuration":728598,"Delta":70088252},{"NoteNumber":62,"Velocity":36,"Duration":728598,"SoundDuration":728598,"Delta":70088252},{"NoteNumber":35,"Velocity":32,"Duration":91074,"SoundDuration":91074,"Delta":70088252},{"NoteNumber":42,"Velocity":25,"Duration":91074,"SoundDuration":91074,"Delta":70179327},{"NoteNumber":35,"Velocity":25,"Duration":91074,"SoundDuration":91074,"Delta":70270402},{"NoteNumber":42,"Velocity":25,"Duration":91074,"SoundDuration":91074,"Delta":70361477},{"NoteNumber":35,"Velocity":33,"Duration":91074,"SoundDuration":91074,"Delta":70452551},{"NoteNumber":42,"Velocity":20,"Duration":91074,"SoundDuration":91074,"Delta":70543626},{"NoteNumber":35,"Velocity":22,"Duration":91074,"SoundDuration":91074,"Delta":70634701},{"NoteNumber":42,"Velocity":20,"Duration":91074,"SoundDuration":91074,"Delta":70725776},{"NoteNumber":55,"Velocity":42,"Duration":88090,"SoundDuration":88090,"Delta":70816850},{"NoteNumber":40,"Velocity":34,"Duration":88090,"SoundDuration":88090,"Delta":70816850},{"NoteNumber":59,"Velocity":37,"Duration":87946,"SoundDuration":87946,"Delta":70904941},{"NoteNumber":47,"Velocity":29,"Duration":87946,"SoundDuration":87946,"Delta":70904941},{"NoteNumber":56,"Velocity":45,"Duration":87719,"SoundDuration":87719,"Delta":70992888},{"NoteNumber":40,"Velocity":35,"Duration":87719,"SoundDuration":87719,"Delta":70992888},{"NoteNumber":60,"Velocity":39,"Duration":87453,"SoundDuration":87453,"Delta":71080607},{"NoteNumber":47,"Velocity":31,"Duration":87453,"SoundDuration":87453,"Delta":71080607},{"NoteNumber":57,"Velocity":46,"Duration":87230,"SoundDuration":87230,"Delta":71168060},{"NoteNumber":61,"Velocity":41,"Duration":87007,"SoundDuration":87007,"Delta":71255291},{"NoteNumber":58,"Velocity":49,"Duration":86493,"SoundDuration":86493,"Delta":71342298},{"NoteNumber":62,"Velocity":42,"Duration":86285,"SoundDuration":86285,"Delta":71428791},{"NoteNumber":59,"Velocity":51,"Duration":86105,"SoundDuration":86105,"Delta":71515077},{"NoteNumber":63,"Velocity":45,"Duration":85861,"SoundDuration":85861,"Delta":71601183},{"NoteNumber":60,"Velocity":52,"Duration":85683,"SoundDuration":85683,"Delta":71687044},{"NoteNumber":64,"Velocity":47,"Duration":85508,"SoundDuration":85508,"Delta":71772728},{"NoteNumber":65,"Velocity":57,"Duration":96339,"SoundDuration":96339,"Delta":71858237},{"NoteNumber":61,"Velocity":48,"Duration":96339,"SoundDuration":96339,"Delta":71858237},{"NoteNumber":35,"Velocity":36,"Duration":96339,"SoundDuration":96339,"Delta":71858237},{"NoteNumber":42,"Velocity":22,"Duration":96339,"SoundDuration":96339,"Delta":71954576},{"NoteNumber":35,"Velocity":22,"Duration":96339,"SoundDuration":96339,"Delta":72050915},{"NoteNumber":42,"Velocity":22,"Duration":96339,"SoundDuration":96339,"Delta":72147254},{"NoteNumber":62,"Velocity":30,"Duration":728598,"SoundDuration":728598,"Delta":72243593},{"NoteNumber":66,"Velocity":36,"Duration":728598,"SoundDuration":728598,"Delta":72243593},{"NoteNumber":35,"Velocity":32,"Duration":91074,"SoundDuration":91074,"Delta":72243593},{"NoteNumber":42,"Velocity":25,"Duration":91074,"SoundDuration":91074,"Delta":72334668},{"NoteNumber":35,"Velocity":25,"Duration":91074,"SoundDuration":91074,"Delta":72425742},{"NoteNumber":42,"Velocity":25,"Duration":91074,"SoundDuration":91074,"Delta":72516817},{"NoteNumber":35,"Velocity":33,"Duration":91074,"SoundDuration":91074,"Delta":72607892},{"NoteNumber":42,"Velocity":20,"Duration":91074,"SoundDuration":91074,"Delta":72698967},{"NoteNumber":35,"Velocity":22,"Duration":91074,"SoundDuration":91074,"Delta":72790041},{"NoteNumber":42,"Velocity":20,"Duration":91074,"SoundDuration":91074,"Delta":72881116},{"NoteNumber":55,"Velocity":42,"Duration":87250,"SoundDuration":87250,"Delta":72972191},{"NoteNumber":40,"Velocity":34,"Duration":87250,"SoundDuration":87250,"Delta":72972191},{"NoteNumber":59,"Velocity":37,"Duration":86625,"SoundDuration":86625,"Delta":73059442},{"NoteNumber":47,"Velocity":29,"Duration":86625,"SoundDuration":86625,"Delta":73059442},{"NoteNumber":58,"Velocity":45,"Duration":86291,"SoundDuration":86291,"Delta":73146068},{"NoteNumber":40,"Velocity":35,"Duration":86291,"SoundDuration":86291,"Delta":73146068},{"NoteNumber":61,"Velocity":39,"Duration":85995,"SoundDuration":85995,"Delta":73232359},{"NoteNumber":47,"Velocity":31,"Duration":85995,"SoundDuration":85995,"Delta":73232359},{"NoteNumber":59,"Velocity":46,"Duration":85653,"SoundDuration":85653,"Delta":73318355},{"NoteNumber":62,"Velocity":41,"Duration":85318,"SoundDuration":85318,"Delta":73404008},{"NoteNumber":61,"Velocity":49,"Duration":85028,"SoundDuration":85028,"Delta":73489326},{"NoteNumber":64,"Velocity":42,"Duration":84739,"SoundDuration":84739,"Delta":73574354},{"NoteNumber":62,"Velocity":42,"Duration":85870,"SoundDuration":85870,"Delta":73659094},{"NoteNumber":47,"Velocity":34,"Duration":85870,"SoundDuration":85870,"Delta":73659094},{"NoteNumber":66,"Velocity":37,"Duration":85806,"SoundDuration":85806,"Delta":73744965},{"NoteNumber":54,"Velocity":29,"Duration":85806,"SoundDuration":85806,"Delta":73744965},{"NoteNumber":64,"Velocity":45,"Duration":85512,"SoundDuration":85512,"Delta":73830771},{"NoteNumber":47,"Velocity":35,"Duration":85512,"SoundDuration":85512,"Delta":73830771},{"NoteNumber":68,"Velocity":39,"Duration":85182,"SoundDuration":85182,"Delta":73916284},{"NoteNumber":54,"Velocity":31,"Duration":85182,"SoundDuration":85182,"Delta":73916284},{"NoteNumber":66,"Velocity":46,"Duration":84849,"SoundDuration":84849,"Delta":74001467},{"NoteNumber":70,"Velocity":41,"Duration":84521,"SoundDuration":84521,"Delta":74086317},{"NoteNumber":68,"Velocity":49,"Duration":84236,"SoundDuration":84236,"Delta":74170838},{"NoteNumber":71,"Velocity":42,"Duration":84563,"SoundDuration":84563,"Delta":74255075},{"NoteNumber":67,"Velocity":42,"Duration":86009,"SoundDuration":86009,"Delta":74339638},{"NoteNumber":52,"Velocity":34,"Duration":86009,"SoundDuration":86009,"Delta":74339638},{"NoteNumber":71,"Velocity":37,"Duration":85279,"SoundDuration":85279,"Delta":74425648},{"NoteNumber":59,"Velocity":29,"Duration":85279,"SoundDuration":85279,"Delta":74425648},{"NoteNumber":70,"Velocity":45,"Duration":84927,"SoundDuration":84927,"Delta":74510928},{"NoteNumber":52,"Velocity":35,"Duration":84927,"SoundDuration":84927,"Delta":74510928},{"NoteNumber":73,"Velocity":39,"Duration":84540,"SoundDuration":84540,"Delta":74595856},{"NoteNumber":59,"Velocity":31,"Duration":84540,"SoundDuration":84540,"Delta":74595856},{"NoteNumber":71,"Velocity":46,"Duration":84173,"SoundDuration":84173,"Delta":74680397},{"NoteNumber":74,"Velocity":41,"Duration":83812,"SoundDuration":83812,"Delta":74764570},{"NoteNumber":73,"Velocity":49,"Duration":83435,"SoundDuration":83435,"Delta":74848383},{"NoteNumber":76,"Velocity":42,"Duration":83096,"SoundDuration":83096,"Delta":74931819},{"NoteNumber":74,"Velocity":42,"Duration":84839,"SoundDuration":84839,"Delta":75014915},{"NoteNumber":59,"Velocity":34,"Duration":84839,"SoundDuration":84839,"Delta":75014915},{"NoteNumber":78,"Velocity":37,"Duration":84194,"SoundDuration":84194,"Delta":75099755},{"NoteNumber":66,"Velocity":29,"Duration":84194,"SoundDuration":84194,"Delta":75099755},{"NoteNumber":76,"Velocity":45,"Duration":83878,"SoundDuration":83878,"Delta":75183950},{"NoteNumber":59,"Velocity":35,"Duration":83878,"SoundDuration":83878,"Delta":75183950},{"NoteNumber":80,"Velocity":39,"Duration":83559,"SoundDuration":83559,"Delta":75267829},{"NoteNumber":66,"Velocity":31,"Duration":83559,"SoundDuration":83559,"Delta":75267829},{"NoteNumber":78,"Velocity":46,"Duration":83275,"SoundDuration":83275,"Delta":75351389},{"NoteNumber":82,"Velocity":41,"Duration":82922,"SoundDuration":82922,"Delta":75434664},{"NoteNumber":80,"Velocity":49,"Duration":82648,"SoundDuration":82648,"Delta":75517587},{"NoteNumber":83,"Velocity":42,"Duration":82344,"SoundDuration":82344,"Delta":75600235},{"NoteNumber":79,"Velocity":42,"Duration":83091,"SoundDuration":83091,"Delta":75682580},{"NoteNumber":64,"Velocity":34,"Duration":83091,"SoundDuration":83091,"Delta":75682580},{"NoteNumber":83,"Velocity":37,"Duration":82813,"SoundDuration":82813,"Delta":75765671},{"NoteNumber":71,"Velocity":29,"Duration":82813,"SoundDuration":82813,"Delta":75765671},{"NoteNumber":82,"Velocity":45,"Duration":82576,"SoundDuration":82576,"Delta":75848485},{"NoteNumber":64,"Velocity":35,"Duration":82576,"SoundDuration":82576,"Delta":75848485},{"NoteNumber":85,"Velocity":39,"Duration":82376,"SoundDuration":82376,"Delta":75931062},{"NoteNumber":71,"Velocity":31,"Duration":82376,"SoundDuration":82376,"Delta":75931062},{"NoteNumber":83,"Velocity":46,"Duration":82141,"SoundDuration":82141,"Delta":76013438},{"NoteNumber":86,"Velocity":41,"Duration":81909,"SoundDuration":81909,"Delta":76095579},{"NoteNumber":85,"Velocity":49,"Duration":81712,"SoundDuration":81712,"Delta":76177488},{"NoteNumber":88,"Velocity":42,"Duration":81481,"SoundDuration":81481,"Delta":76259201},{"NoteNumber":86,"Velocity":42,"Duration":82090,"SoundDuration":82090,"Delta":76340682},{"NoteNumber":71,"Velocity":34,"Duration":82090,"SoundDuration":82090,"Delta":76340682},{"NoteNumber":90,"Velocity":37,"Duration":81909,"SoundDuration":81909,"Delta":76422773},{"NoteNumber":78,"Velocity":29,"Duration":81909,"SoundDuration":81909,"Delta":76422773},{"NoteNumber":88,"Velocity":45,"Duration":81712,"SoundDuration":81712,"Delta":76504682},{"NoteNumber":71,"Velocity":35,"Duration":81712,"SoundDuration":81712,"Delta":76504682},{"NoteNumber":92,"Velocity":39,"Duration":81516,"SoundDuration":81516,"Delta":76586395},{"NoteNumber":78,"Velocity":31,"Duration":81516,"SoundDuration":81516,"Delta":76586395},{"NoteNumber":90,"Velocity":50,"Duration":81288,"SoundDuration":81288,"Delta":76667911},{"NoteNumber":94,"Velocity":45,"Duration":81093,"SoundDuration":81093,"Delta":76749199},{"NoteNumber":92,"Velocity":51,"Duration":80993,"SoundDuration":80993,"Delta":76830293},{"NoteNumber":95,"Velocity":45,"Duration":80993,"SoundDuration":80993,"Delta":76911286},{"NoteNumber":90,"Velocity":56,"Duration":80993,"SoundDuration":80993,"Delta":76992280},{"NoteNumber":94,"Velocity":47,"Duration":80993,"SoundDuration":80993,"Delta":77073273},{"NoteNumber":92,"Velocity":53,"Duration":80993,"SoundDuration":80993,"Delta":77154267},{"NoteNumber":95,"Velocity":49,"Duration":80993,"SoundDuration":80993,"Delta":77235260},{"NoteNumber":90,"Velocity":55,"Duration":80558,"SoundDuration":80558,"Delta":77316254},{"NoteNumber":94,"Velocity":49,"Duration":82327,"SoundDuration":82327,"Delta":77396812},{"NoteNumber":92,"Velocity":54,"Duration":81947,"SoundDuration":81947,"Delta":77479139},{"NoteNumber":95,"Velocity":53,"Duration":81722,"SoundDuration":81722,"Delta":77561087},{"NoteNumber":90,"Velocity":60,"Duration":83472,"SoundDuration":83472,"Delta":77642809},{"NoteNumber":94,"Velocity":55,"Duration":82356,"SoundDuration":82356,"Delta":77726281},{"NoteNumber":92,"Velocity":61,"Duration":82574,"SoundDuration":82574,"Delta":77808637},{"NoteNumber":95,"Velocity":58,"Duration":82340,"SoundDuration":82340,"Delta":77891212},{"NoteNumber":90,"Velocity":66,"Duration":80775,"SoundDuration":80775,"Delta":77973552},{"NoteNumber":94,"Velocity":60,"Duration":81861,"SoundDuration":81861,"Delta":78054328},{"NoteNumber":92,"Velocity":67,"Duration":82327,"SoundDuration":82327,"Delta":78136189},{"NoteNumber":95,"Velocity":64,"Duration":81818,"SoundDuration":81818,"Delta":78218516},{"NoteNumber":90,"Velocity":70,"Duration":82625,"SoundDuration":82625,"Delta":78300335},{"NoteNumber":94,"Velocity":61,"Duration":82240,"SoundDuration":82240,"Delta":78382961},{"NoteNumber":92,"Velocity":68,"Duration":81913,"SoundDuration":81913,"Delta":78465202},{"NoteNumber":95,"Velocity":61,"Duration":81516,"SoundDuration":81516,"Delta":78547115},{"NoteNumber":92,"Velocity":70,"Duration":81141,"SoundDuration":81141,"Delta":78628631},{"NoteNumber":90,"Velocity":59,"Duration":80828,"SoundDuration":80828,"Delta":78709773},{"NoteNumber":86,"Velocity":59,"Duration":80466,"SoundDuration":80466,"Delta":78790601},{"NoteNumber":83,"Velocity":54,"Duration":80140,"SoundDuration":80140,"Delta":78871068},{"NoteNumber":80,"Velocity":69,"Duration":80128,"SoundDuration":80128,"Delta":78951209},{"NoteNumber":78,"Velocity":54,"Duration":80128,"SoundDuration":80128,"Delta":79031337},{"NoteNumber":74,"Velocity":54,"Duration":80128,"SoundDuration":80128,"Delta":79111465},{"NoteNumber":71,"Velocity":49,"Duration":80128,"SoundDuration":80128,"Delta":79191593},{"NoteNumber":68,"Velocity":65,"Duration":80483,"SoundDuration":80483,"Delta":79271722},{"NoteNumber":66,"Velocity":50,"Duration":80558,"SoundDuration":80558,"Delta":79352205},{"NoteNumber":62,"Velocity":50,"Duration":80580,"SoundDuration":80580,"Delta":79432763},{"NoteNumber":59,"Velocity":50,"Duration":80775,"SoundDuration":80775,"Delta":79513344},{"NoteNumber":56,"Velocity":57,"Duration":80775,"SoundDuration":80775,"Delta":79594119},{"NoteNumber":54,"Velocity":50,"Duration":80893,"SoundDuration":80893,"Delta":79674895},{"NoteNumber":47,"Velocity":45,"Duration":80993,"SoundDuration":80993,"Delta":79755788},{"NoteNumber":54,"Velocity":45,"Duration":80993,"SoundDuration":80993,"Delta":79836782},{"NoteNumber":56,"Velocity":50,"Duration":81476,"SoundDuration":81476,"Delta":79917775},{"NoteNumber":59,"Velocity":42,"Duration":82482,"SoundDuration":82482,"Delta":79999252},{"NoteNumber":62,"Velocity":47,"Duration":55608,"SoundDuration":55608,"Delta":80081735},{"NoteNumber":66,"Velocity":52,"Duration":56846,"SoundDuration":56846,"Delta":80137343},{"NoteNumber":68,"Velocity":55,"Duration":58580,"SoundDuration":58580,"Delta":80194190},{"NoteNumber":74,"Velocity":67,"Duration":87529,"SoundDuration":87529,"Delta":80252770},{"NoteNumber":47,"Velocity":28,"Duration":188037,"SoundDuration":188037,"Delta":81172684},{"NoteNumber":55,"Velocity":32,"Duration":166694,"SoundDuration":166694,"Delta":81194027},{"NoteNumber":59,"Velocity":37,"Duration":145351,"SoundDuration":145351,"Delta":81215370},{"NoteNumber":62,"Velocity":36,"Duration":124008,"SoundDuration":124008,"Delta":81236714},{"NoteNumber":67,"Velocity":41,"Duration":102665,"SoundDuration":102665,"Delta":81258057},{"NoteNumber":74,"Velocity":46,"Duration":81321,"SoundDuration":81321,"Delta":81279400},{"NoteNumber":71,"Velocity":33,"Duration":83980,"SoundDuration":83980,"Delta":82575624},{"NoteNumber":62,"Velocity":28,"Duration":83980,"SoundDuration":83980,"Delta":82575624},{"NoteNumber":54,"Velocity":28,"Duration":83980,"SoundDuration":83980,"Delta":82575624},{"NoteNumber":47,"Velocity":23,"Duration":83980,"SoundDuration":83980,"Delta":82575624},{"NoteNumber":83,"Velocity":31,"Duration":78421,"SoundDuration":78421,"Delta":82914274},{"NoteNumber":74,"Velocity":26,"Duration":78421,"SoundDuration":78421,"Delta":82914274},{"NoteNumber":66,"Velocity":24,"Duration":78421,"SoundDuration":78421,"Delta":82914274},{"NoteNumber":59,"Velocity":20,"Duration":78421,"SoundDuration":78421,"Delta":82914274},{"NoteNumber":86,"Velocity":28,"Duration":76452,"SoundDuration":76452,"Delta":83222053},{"NoteNumber":95,"Velocity":34,"Duration":76452,"SoundDuration":76452,"Delta":83222053},{"NoteNumber":78,"Velocity":28,"Duration":76452,"SoundDuration":76452,"Delta":83222053},{"NoteNumber":71,"Velocity":23,"Duration":76452,"SoundDuration":76452,"Delta":83222053}],"license":{"name":"Creative Commons Attribution-ShareAlike 3.0 Germany","url":"http://creativecommons.org/licenses/by-sa/3.0/de/deed.en","text":"The MIDI, audio (MP3, OGG) and video files of Bernd Krueger are licensed under the cc-by-sa Germany License. This means that you can use and adapt the files, as long as you attribute the copyright holder.\n\nName: Bernd Krueger\nSource: http://www.piano-midi.de\n\nThe distribution or public playback of the files is only allowed under identical license conditions.\n\nThe scores are open source.","attribution":"MIDI files by Bernd Krueger (piano-midi.de)","attributionUrl":"http://www.piano-midi.de"}}