{"title":"Lyrische St\u00fccke Op. 12 Nr. 4 Elfentanz","artist":"Grieg","durationMs":54021,"midiSha256":"ac402fa1bcf4c4542edd09601c72f3b8c53fcb34497565b4274c4c31abd905f2","midiObject":[{"NoteNumber":71,"Velocity":34,"Duration":63142,"SoundDuration":63142,"Delta":0},{"NoteNumber":76,"Velocity":40,"Duration":63142,"SoundDuration":63142,"Delta":0},{"NoteNumber":67,"Velocity":40,"Duration":63142,"SoundDuration":63142,"Delta":0},{"NoteNumber":64,"Velocity":34,"Duration":63142,"SoundDuration":63142,"Delta":0},{"NoteNumber":71,"Velocity":31,"Duration":63142,"SoundDuration":63142,"Delta":252568},{"NoteNumber":76,"Velocity":37,"Duration":63142,"SoundDuration":63142,"Delta":252568},{"NoteNumber":64,"Velocity":29,"Duration":63142,"SoundDuration":63142,"Delta":252568},{"NoteNumber":67,"Velocity":35,"Duration":63142,"SoundDuration":63142,"Delta":252568},{"NoteNumber":76,"Velocity":37,"Duration":66354,"SoundDuration":66354,"Delta":505136},{"NoteNumber":72,"Velocity":31,"Duration":66354,"SoundDuration":66354,"Delta":505136},{"NoteNumber":67,"Velocity":30,"Duration":66354,"SoundDuration":66354,"Delta":505136},{"NoteNumber":60,"Velocity":25,"Duration":66354,"SoundDuration":66354,"Delta":505136},{"NoteNumber":71,"Velocity":34,"Duration":64272,"SoundDuration":64272,"Delta":770552},{"NoteNumber":76,"Velocity":40,"Duration":64272,"SoundDuration":64272,"Delta":770552},{"NoteNumber":64,"Velocity":29,"Duration":64272,"SoundDuration":64272,"Delta":770552},{"NoteNumber":67,"Velocity":35,"Duration":64272,"SoundDuration":64272,"Delta":770552},{"NoteNumber":76,"Velocity":36,"Duration":64272,"SoundDuration":64272,"Delta":1027644},{"NoteNumber":71,"Velocity":30,"Duration":64272,"SoundDuration":64272,"Delta":1027644},{"NoteNumber":67,"Velocity":31,"Duration":64272,"SoundDuration":64272,"Delta":1027644},{"NoteNumber":64,"Velocity":26,"Duration":64272,"SoundDuration":64272,"Delta":1027644},{"NoteNumber":67,"Velocity":40,"Duration":125177,"SoundDuration":125177,"Delta":1284735},{"NoteNumber":69,"Velocity":35,"Duration":125177,"SoundDuration":125177,"Delta":1409912},{"NoteNumber":71,"Velocity":40,"Duration":120481,"SoundDuration":120481,"Delta":1535090},{"NoteNumber":64,"Velocity":29,"Duration":60240,"SoundDuration":60240,"Delta":1535090},{"NoteNumber":67,"Velocity":35,"Duration":60240,"SoundDuration":60240,"Delta":1535090},{"NoteNumber":72,"Velocity":36,"Duration":120481,"SoundDuration":120481,"Delta":1655572},{"NoteNumber":71,"Velocity":40,"Duration":120481,"SoundDuration":120481,"Delta":1776054},{"NoteNumber":67,"Velocity":32,"Duration":60240,"SoundDuration":60240,"Delta":1776054},{"NoteNumber":64,"Velocity":27,"Duration":60240,"SoundDuration":60240,"Delta":1776054},{"NoteNumber":78,"Velocity":45,"Duration":120482,"SoundDuration":120482,"Delta":1896536},{"NoteNumber":76,"Velocity":43,"Duration":120481,"SoundDuration":120481,"Delta":2017018},{"NoteNumber":69,"Velocity":33,"Duration":60240,"SoundDuration":60240,"Delta":2017018},{"NoteNumber":64,"Velocity":28,"Duration":60240,"SoundDuration":60240,"Delta":2017018},{"NoteNumber":74,"Velocity":40,"Duration":120828,"SoundDuration":120828,"Delta":2137500},{"NoteNumber":71,"Velocity":39,"Duration":124161,"SoundDuration":124161,"Delta":2258328},{"NoteNumber":64,"Velocity":29,"Duration":246712,"SoundDuration":246712,"Delta":2258328},{"NoteNumber":67,"Velocity":35,"Duration":246712,"SoundDuration":246712,"Delta":2258328},{"NoteNumber":76,"Velocity":41,"Duration":122550,"SoundDuration":122550,"Delta":2382489},{"NoteNumber":79,"Velocity":43,"Duration":121182,"SoundDuration":121182,"Delta":2505040},{"NoteNumber":82,"Velocity":45,"Duration":119602,"SoundDuration":119602,"Delta":2626222},{"NoteNumber":83,"Velocity":48,"Duration":118943,"SoundDuration":118943,"Delta":2745825},{"NoteNumber":74,"Velocity":34,"Duration":63142,"SoundDuration":63142,"Delta":3006948},{"NoteNumber":78,"Velocity":34,"Duration":63142,"SoundDuration":63142,"Delta":3006948},{"NoteNumber":83,"Velocity":40,"Duration":63142,"SoundDuration":63142,"Delta":3006948},{"NoteNumber":71,"Velocity":40,"Duration":63142,"SoundDuration":63142,"Delta":3006948},{"NoteNumber":83,"Velocity":37,"Duration":63142,"SoundDuration":63142,"Delta":3259516},{"NoteNumber":74,"Velocity":31,"Duration":63142,"SoundDuration":63142,"Delta":3259516},{"NoteNumber":78,"Velocity":31,"Duration":63142,"SoundDuration":63142,"Delta":3259516},{"NoteNumber":71,"Velocity":35,"Duration":63142,"SoundDuration":63142,"Delta":3259516},{"NoteNumber":83,"Velocity":37,"Duration":66354,"SoundDuration":66354,"Delta":3512084},{"NoteNumber":74,"Velocity":31,"Duration":66354,"SoundDuration":66354,"Delta":3512084},{"NoteNumber":79,"Velocity":31,"Duration":66354,"SoundDuration":66354,"Delta":3512084},{"NoteNumber":67,"Velocity":30,"Duration":66354,"SoundDuration":66354,"Delta":3512084},{"NoteNumber":74,"Velocity":34,"Duration":64272,"SoundDuration":64272,"Delta":3777501},{"NoteNumber":78,"Velocity":34,"Duration":64272,"SoundDuration":64272,"Delta":3777501},{"NoteNumber":83,"Velocity":40,"Duration":64272,"SoundDuration":64272,"Delta":3777501},{"NoteNumber":71,"Velocity":35,"Duration":64272,"SoundDuration":64272,"Delta":3777501},{"NoteNumber":74,"Velocity":30,"Duration":64272,"SoundDuration":64272,"Delta":4034592},{"NoteNumber":83,"Velocity":36,"Duration":64272,"SoundDuration":64272,"Delta":4034592},{"NoteNumber":78,"Velocity":30,"Duration":64272,"SoundDuration":64272,"Delta":4034592},{"NoteNumber":71,"Velocity":31,"Duration":64272,"SoundDuration":64272,"Delta":4034592},{"NoteNumber":71,"Velocity":40,"Duration":125177,"SoundDuration":125177,"Delta":4291684},{"NoteNumber":73,"Velocity":35,"Duration":125177,"SoundDuration":125177,"Delta":4416861},{"NoteNumber":74,"Velocity":40,"Duration":121467,"SoundDuration":121467,"Delta":4542038},{"NoteNumber":66,"Velocity":35,"Duration":60733,"SoundDuration":60733,"Delta":4542038},{"NoteNumber":78,"Velocity":36,"Duration":121467,"SoundDuration":121467,"Delta":4663506},{"NoteNumber":71,"Velocity":40,"Duration":121467,"SoundDuration":121467,"Delta":4784973},{"NoteNumber":74,"Velocity":40,"Duration":121467,"SoundDuration":121467,"Delta":4784973},{"NoteNumber":62,"Velocity":32,"Duration":60733,"SoundDuration":60733,"Delta":4784973},{"NoteNumber":78,"Velocity":45,"Duration":135220,"SoundDuration":135220,"Delta":4906440},{"NoteNumber":64,"Velocity":39,"Duration":67610,"SoundDuration":67610,"Delta":4906440},{"NoteNumber":73,"Velocity":63,"Duration":121467,"SoundDuration":121467,"Delta":5041661},{"NoteNumber":70,"Velocity":53,"Duration":243312,"SoundDuration":243312,"Delta":5041661},{"NoteNumber":66,"Velocity":56,"Duration":60733,"SoundDuration":60733,"Delta":5041661},{"NoteNumber":78,"Velocity":60,"Duration":121845,"SoundDuration":121845,"Delta":5163128},{"NoteNumber":71,"Velocity":52,"Duration":122402,"SoundDuration":122402,"Delta":5284973},{"NoteNumber":75,"Velocity":62,"Duration":122402,"SoundDuration":122402,"Delta":5284973},{"NoteNumber":66,"Velocity":66,"Duration":481424,"SoundDuration":481424,"Delta":5284973},{"NoteNumber":78,"Velocity":57,"Duration":120998,"SoundDuration":120998,"Delta":5407375},{"NoteNumber":71,"Velocity":53,"Duration":119664,"SoundDuration":119664,"Delta":5528374},{"NoteNumber":75,"Velocity":63,"Duration":119664,"SoundDuration":119664,"Delta":5528374},{"NoteNumber":78,"Velocity":59,"Duration":118359,"SoundDuration":118359,"Delta":5648039},{"NoteNumber":75,"Velocity":64,"Duration":117481,"SoundDuration":117481,"Delta":5766398},{"NoteNumber":71,"Velocity":54,"Duration":117481,"SoundDuration":117481,"Delta":5766398},{"NoteNumber":59,"Velocity":60,"Duration":279433,"SoundDuration":279433,"Delta":5766398},{"NoteNumber":78,"Velocity":57,"Duration":161952,"SoundDuration":161952,"Delta":5883879},{"NoteNumber":71,"Velocity":34,"Duration":63142,"SoundDuration":63142,"Delta":6045831},{"NoteNumber":76,"Velocity":40,"Duration":63142,"SoundDuration":63142,"Delta":6045831},{"NoteNumber":64,"Velocity":34,"Duration":63142,"SoundDuration":63142,"Delta":6045831},{"NoteNumber":67,"Velocity":40,"Duration":63142,"SoundDuration":63142,"Delta":6045831},{"NoteNumber":76,"Velocity":37,"Duration":63142,"SoundDuration":63142,"Delta":6298399},{"NoteNumber":71,"Velocity":31,"Duration":63142,"SoundDuration":63142,"Delta":6298399},{"NoteNumber":67,"Velocity":35,"Duration":63142,"SoundDuration":63142,"Delta":6298399},{"NoteNumber":64,"Velocity":29,"Duration":63142,"SoundDuration":63142,"Delta":6298399},{"NoteNumber":72,"Velocity":31,"Duration":66354,"SoundDuration":66354,"Delta":6550967},{"NoteNumber":76,"Velocity":37,"Duration":66354,"SoundDuration":66354,"Delta":6550967},{"NoteNumber":67,"Velocity":30,"Duration":66354,"SoundDuration":66354,"Delta":6550967},{"NoteNumber":60,"Velocity":25,"Duration":66354,"SoundDuration":66354,"Delta":6550967},{"NoteNumber":71,"Velocity":34,"Duration":64272,"SoundDuration":64272,"Delta":6816384},{"NoteNumber":76,"Velocity":40,"Duration":64272,"SoundDuration":64272,"Delta":6816384},{"NoteNumber":64,"Velocity":29,"Duration":64272,"SoundDuration":64272,"Delta":6816384},{"NoteNumber":67,"Velocity":35,"Duration":64272,"SoundDuration":64272,"Delta":6816384},{"NoteNumber":76,"Velocity":36,"Duration":65217,"SoundDuration":65217,"Delta":7073475},{"NoteNumber":71,"Velocity":30,"Duration":65217,"SoundDuration":65217,"Delta":7073475},{"NoteNumber":67,"Velocity":31,"Duration":65217,"SoundDuration":65217,"Delta":7073475},{"NoteNumber":64,"Velocity":26,"Duration":65217,"SoundDuration":65217,"Delta":7073475},{"NoteNumber":67,"Velocity":40,"Duration":125177,"SoundDuration":125177,"Delta":7334345},{"NoteNumber":69,"Velocity":35,"Duration":125177,"SoundDuration":125177,"Delta":7459522},{"NoteNumber":71,"Velocity":40,"Duration":120000,"SoundDuration":120000,"Delta":7584699},{"NoteNumber":64,"Velocity":29,"Duration":59999,"SoundDuration":59999,"Delta":7584699},{"NoteNumber":67,"Velocity":35,"Duration":59999,"SoundDuration":59999,"Delta":7584699},{"NoteNumber":72,"Velocity":36,"Duration":120000,"SoundDuration":120000,"Delta":7704699},{"NoteNumber":71,"Velocity":40,"Duration":120000,"SoundDuration":120000,"Delta":7824699},{"NoteNumber":67,"Velocity":32,"Duration":59999,"SoundDuration":59999,"Delta":7824699},{"NoteNumber":64,"Velocity":27,"Duration":59999,"SoundDuration":59999,"Delta":7824699},{"NoteNumber":78,"Velocity":45,"Duration":120000,"SoundDuration":120000,"Delta":7944699},{"NoteNumber":76,"Velocity":43,"Duration":119999,"SoundDuration":119999,"Delta":8064699},{"NoteNumber":69,"Velocity":33,"Duration":60000,"SoundDuration":60000,"Delta":8064699},{"NoteNumber":64,"Velocity":28,"Duration":60000,"SoundDuration":60000,"Delta":8064699},{"NoteNumber":74,"Velocity":40,"Duration":120386,"SoundDuration":120386,"Delta":8184699},{"NoteNumber":71,"Velocity":39,"Duration":124161,"SoundDuration":124161,"Delta":8305086},{"NoteNumber":67,"Velocity":35,"Duration":246712,"SoundDuration":246712,"Delta":8305086},{"NoteNumber":64,"Velocity":29,"Duration":246712,"SoundDuration":246712,"Delta":8305086},{"NoteNumber":76,"Velocity":41,"Duration":122550,"SoundDuration":122550,"Delta":8429247},{"NoteNumber":79,"Velocity":43,"Duration":121182,"SoundDuration":121182,"Delta":8551798},{"NoteNumber":82,"Velocity":45,"Duration":119602,"SoundDuration":119602,"Delta":8672980},{"NoteNumber":83,"Velocity":48,"Duration":118943,"SoundDuration":118943,"Delta":8792583},{"NoteNumber":83,"Velocity":40,"Duration":63141,"SoundDuration":63141,"Delta":9053036},{"NoteNumber":74,"Velocity":34,"Duration":63141,"SoundDuration":63141,"Delta":9053036},{"NoteNumber":78,"Velocity":34,"Duration":63141,"SoundDuration":63141,"Delta":9053036},{"NoteNumber":71,"Velocity":40,"Duration":63141,"SoundDuration":63141,"Delta":9053036},{"NoteNumber":74,"Velocity":31,"Duration":63141,"SoundDuration":63141,"Delta":9305604},{"NoteNumber":78,"Velocity":31,"Duration":63141,"SoundDuration":63141,"Delta":9305604},{"NoteNumber":83,"Velocity":37,"Duration":63141,"SoundDuration":63141,"Delta":9305604},{"NoteNumber":71,"Velocity":35,"Duration":63141,"SoundDuration":63141,"Delta":9305604},{"NoteNumber":74,"Velocity":31,"Duration":66354,"SoundDuration":66354,"Delta":9558172},{"NoteNumber":79,"Velocity":31,"Duration":66354,"SoundDuration":66354,"Delta":9558172},{"NoteNumber":83,"Velocity":37,"Duration":66354,"SoundDuration":66354,"Delta":9558172},{"NoteNumber":67,"Velocity":30,"Duration":66354,"SoundDuration":66354,"Delta":9558172},{"NoteNumber":83,"Velocity":40,"Duration":64272,"SoundDuration":64272,"Delta":9823588},{"NoteNumber":74,"Velocity":34,"Duration":64272,"SoundDuration":64272,"Delta":9823588},{"NoteNumber":78,"Velocity":34,"Duration":64272,"SoundDuration":64272,"Delta":9823588},{"NoteNumber":71,"Velocity":35,"Duration":64272,"SoundDuration":64272,"Delta":9823588},{"NoteNumber":74,"Velocity":30,"Duration":64272,"SoundDuration":64272,"Delta":10080680},{"NoteNumber":78,"Velocity":30,"Duration":64272,"SoundDuration":64272,"Delta":10080680},{"NoteNumber":83,"Velocity":36,"Duration":64272,"SoundDuration":64272,"Delta":10080680},{"NoteNumber":71,"Velocity":31,"Duration":64272,"SoundDuration":64272,"Delta":10080680},{"NoteNumber":71,"Velocity":40,"Duration":125177,"SoundDuration":125177,"Delta":10337771},{"NoteNumber":73,"Velocity":35,"Duration":125177,"SoundDuration":125177,"Delta":10462949},{"NoteNumber":74,"Velocity":40,"Duration":120967,"SoundDuration":120967,"Delta":10588126},{"NoteNumber":66,"Velocity":35,"Duration":60483,"SoundDuration":60483,"Delta":10588126},{"NoteNumber":78,"Velocity":36,"Duration":120967,"SoundDuration":120967,"Delta":10709094},{"NoteNumber":74,"Velocity":40,"Duration":120967,"SoundDuration":120967,"Delta":10830061},{"NoteNumber":71,"Velocity":40,"Duration":120967,"SoundDuration":120967,"Delta":10830061},{"NoteNumber":62,"Velocity":32,"Duration":60483,"SoundDuration":60483,"Delta":10830061},{"NoteNumber":78,"Velocity":45,"Duration":135220,"SoundDuration":135220,"Delta":10951029},{"NoteNumber":64,"Velocity":39,"Duration":67610,"SoundDuration":67610,"Delta":10951029},{"NoteNumber":70,"Velocity":53,"Duration":243312,"SoundDuration":243312,"Delta":11086250},{"NoteNumber":73,"Velocity":63,"Duration":121467,"SoundDuration":121467,"Delta":11086250},{"NoteNumber":66,"Velocity":56,"Duration":60733,"SoundDuration":60733,"Delta":11086250},{"NoteNumber":78,"Velocity":60,"Duration":121845,"SoundDuration":121845,"Delta":11207717},{"NoteNumber":71,"Velocity":52,"Duration":122402,"SoundDuration":122402,"Delta":11329562},{"NoteNumber":75,"Velocity":62,"Duration":122402,"SoundDuration":122402,"Delta":11329562},{"NoteNumber":66,"Velocity":66,"Duration":481424,"SoundDuration":481424,"Delta":11329562},{"NoteNumber":78,"Velocity":57,"Duration":120998,"SoundDuration":120998,"Delta":11451964},{"NoteNumber":71,"Velocity":53,"Duration":119664,"SoundDuration":119664,"Delta":11572963},{"NoteNumber":75,"Velocity":63,"Duration":119664,"SoundDuration":119664,"Delta":11572963},{"NoteNumber":78,"Velocity":59,"Duration":118359,"SoundDuration":118359,"Delta":11692628},{"NoteNumber":75,"Velocity":64,"Duration":117481,"SoundDuration":117481,"Delta":11810987},{"NoteNumber":71,"Velocity":54,"Duration":117481,"SoundDuration":117481,"Delta":11810987},{"NoteNumber":59,"Velocity":60,"Duration":278529,"SoundDuration":278529,"Delta":11810987},{"NoteNumber":78,"Velocity":57,"Duration":161047,"SoundDuration":161047,"Delta":11928468},{"NoteNumber":59,"Velocity":88,"Duration":63141,"SoundDuration":63141,"Delta":12089516},{"NoteNumber":47,"Velocity":88,"Duration":63141,"SoundDuration":63141,"Delta":12089516},{"NoteNumber":59,"Velocity":80,"Duration":63141,"SoundDuration":63141,"Delta":12342084},{"NoteNumber":47,"Velocity":76,"Duration":63141,"SoundDuration":63141,"Delta":12342084},{"NoteNumber":54,"Velocity":80,"Duration":66354,"SoundDuration":66354,"Delta":12594652},{"NoteNumber":42,"Velocity":66,"Duration":66354,"SoundDuration":66354,"Delta":12594652},{"NoteNumber":59,"Velocity":88,"Duration":64272,"SoundDuration":64272,"Delta":12860069},{"NoteNumber":47,"Velocity":76,"Duration":64272,"SoundDuration":64272,"Delta":12860069},{"NoteNumber":59,"Velocity":79,"Duration":65217,"SoundDuration":65217,"Delta":13117160},{"NoteNumber":47,"Velocity":67,"Duration":65217,"SoundDuration":65217,"Delta":13117160},{"NoteNumber":64,"Velocity":40,"Duration":125177,"SoundDuration":125177,"Delta":13378030},{"NoteNumber":66,"Velocity":35,"Duration":125177,"SoundDuration":125177,"Delta":13503207},{"NoteNumber":67,"Velocity":40,"Duration":120482,"SoundDuration":120482,"Delta":13628384},{"NoteNumber":52,"Velocity":28,"Duration":60240,"SoundDuration":60240,"Delta":13628384},{"NoteNumber":61,"Velocity":34,"Duration":60240,"SoundDuration":60240,"Delta":13628384},{"NoteNumber":70,"Velocity":36,"Duration":120481,"SoundDuration":120481,"Delta":13748866},{"NoteNumber":67,"Velocity":40,"Duration":120482,"SoundDuration":120482,"Delta":13869348},{"NoteNumber":52,"Velocity":28,"Duration":60240,"SoundDuration":60240,"Delta":13869348},{"NoteNumber":61,"Velocity":34,"Duration":60240,"SoundDuration":60240,"Delta":13869348},{"NoteNumber":70,"Velocity":34,"Duration":124481,"SoundDuration":124481,"Delta":13989830},{"NoteNumber":66,"Velocity":41,"Duration":121467,"SoundDuration":121467,"Delta":14114312},{"NoteNumber":61,"Velocity":34,"Duration":60733,"SoundDuration":60733,"Delta":14114312},{"NoteNumber":54,"Velocity":28,"Duration":60733,"SoundDuration":60733,"Delta":14114312},{"NoteNumber":70,"Velocity":36,"Duration":121845,"SoundDuration":121845,"Delta":14235779},{"NoteNumber":64,"Velocity":41,"Duration":122402,"SoundDuration":122402,"Delta":14357624},{"NoteNumber":61,"Velocity":34,"Duration":61380,"SoundDuration":61380,"Delta":14357624},{"NoteNumber":55,"Velocity":28,"Duration":61380,"SoundDuration":61380,"Delta":14357624},{"NoteNumber":70,"Velocity":36,"Duration":120998,"SoundDuration":120998,"Delta":14480026},{"NoteNumber":64,"Velocity":41,"Duration":119664,"SoundDuration":119664,"Delta":14601025},{"NoteNumber":61,"Velocity":35,"Duration":60042,"SoundDuration":60042,"Delta":14601025},{"NoteNumber":55,"Velocity":29,"Duration":60042,"SoundDuration":60042,"Delta":14601025},{"NoteNumber":70,"Velocity":35,"Duration":118359,"SoundDuration":118359,"Delta":14720690},{"NoteNumber":59,"Velocity":88,"Duration":63141,"SoundDuration":63141,"Delta":15117578},{"NoteNumber":47,"Velocity":88,"Duration":63141,"SoundDuration":63141,"Delta":15117578},{"NoteNumber":59,"Velocity":80,"Duration":63141,"SoundDuration":63141,"Delta":15370146},{"NoteNumber":47,"Velocity":76,"Duration":63141,"SoundDuration":63141,"Delta":15370146},{"NoteNumber":54,"Velocity":80,"Duration":66354,"SoundDuration":66354,"Delta":15622714},{"NoteNumber":42,"Velocity":66,"Duration":66354,"SoundDuration":66354,"Delta":15622714},{"NoteNumber":59,"Velocity":88,"Duration":64272,"SoundDuration":64272,"Delta":15888131},{"NoteNumber":47,"Velocity":76,"Duration":64272,"SoundDuration":64272,"Delta":15888131},{"NoteNumber":59,"Velocity":79,"Duration":64272,"SoundDuration":64272,"Delta":16145222},{"NoteNumber":47,"Velocity":67,"Duration":64272,"SoundDuration":64272,"Delta":16145222},{"NoteNumber":64,"Velocity":40,"Duration":125177,"SoundDuration":125177,"Delta":16402314},{"NoteNumber":66,"Velocity":35,"Duration":125177,"SoundDuration":125177,"Delta":16527491},{"NoteNumber":67,"Velocity":40,"Duration":121467,"SoundDuration":121467,"Delta":16652668},{"NoteNumber":52,"Velocity":28,"Duration":60733,"SoundDuration":60733,"Delta":16652668},{"NoteNumber":61,"Velocity":34,"Duration":60733,"SoundDuration":60733,"Delta":16652668},{"NoteNumber":70,"Velocity":36,"Duration":121467,"SoundDuration":121467,"Delta":16774135},{"NoteNumber":67,"Velocity":40,"Duration":121467,"SoundDuration":121467,"Delta":16895603},{"NoteNumber":52,"Velocity":28,"Duration":60733,"SoundDuration":60733,"Delta":16895603},{"NoteNumber":61,"Velocity":34,"Duration":60733,"SoundDuration":60733,"Delta":16895603},{"NoteNumber":70,"Velocity":34,"Duration":124100,"SoundDuration":124100,"Delta":17017070},{"NoteNumber":66,"Velocity":41,"Duration":121467,"SoundDuration":121467,"Delta":17141170},{"NoteNumber":54,"Velocity":28,"Duration":60733,"SoundDuration":60733,"Delta":17141170},{"NoteNumber":61,"Velocity":34,"Duration":60733,"SoundDuration":60733,"Delta":17141170},{"NoteNumber":70,"Velocity":36,"Duration":121845,"SoundDuration":121845,"Delta":17262637},{"NoteNumber":64,"Velocity":41,"Duration":121981,"SoundDuration":121981,"Delta":17384483},{"NoteNumber":55,"Velocity":28,"Duration":60990,"SoundDuration":60990,"Delta":17384483},{"NoteNumber":61,"Velocity":34,"Duration":60990,"SoundDuration":60990,"Delta":17384483},{"NoteNumber":70,"Velocity":36,"Duration":121980,"SoundDuration":121980,"Delta":17506464},{"NoteNumber":64,"Velocity":41,"Duration":121981,"SoundDuration":121981,"Delta":17628445},{"NoteNumber":61,"Velocity":35,"Duration":60990,"SoundDuration":60990,"Delta":17628445},{"NoteNumber":55,"Velocity":29,"Duration":60990,"SoundDuration":60990,"Delta":17628445},{"NoteNumber":70,"Velocity":35,"Duration":125733,"SoundDuration":125733,"Delta":17750426},{"NoteNumber":67,"Velocity":41,"Duration":121981,"SoundDuration":121981,"Delta":17876159},{"NoteNumber":69,"Velocity":35,"Duration":121980,"SoundDuration":121980,"Delta":17998140},{"NoteNumber":70,"Velocity":44,"Duration":121981,"SoundDuration":121981,"Delta":18120121},{"NoteNumber":55,"Velocity":30,"Duration":60990,"SoundDuration":60990,"Delta":18120121},{"NoteNumber":64,"Velocity":37,"Duration":60990,"SoundDuration":60990,"Delta":18120121},{"NoteNumber":73,"Velocity":40,"Duration":120481,"SoundDuration":120481,"Delta":18242102},{"NoteNumber":70,"Velocity":46,"Duration":120482,"SoundDuration":120482,"Delta":18362584},{"NoteNumber":64,"Velocity":39,"Duration":60241,"SoundDuration":60241,"Delta":18362584},{"NoteNumber":55,"Velocity":32,"Duration":60241,"SoundDuration":60241,"Delta":18362584},{"NoteNumber":73,"Velocity":39,"Duration":120481,"SoundDuration":120481,"Delta":18483066},{"NoteNumber":69,"Velocity":51,"Duration":120481,"SoundDuration":120481,"Delta":18603548},{"NoteNumber":64,"Velocity":40,"Duration":60240,"SoundDuration":60240,"Delta":18603548},{"NoteNumber":55,"Velocity":33,"Duration":60240,"SoundDuration":60240,"Delta":18603548},{"NoteNumber":73,"Velocity":45,"Duration":122448,"SoundDuration":122448,"Delta":18724030},{"NoteNumber":67,"Velocity":54,"Duration":120443,"SoundDuration":120443,"Delta":18846479},{"NoteNumber":58,"Velocity":35,"Duration":60221,"SoundDuration":60221,"Delta":18846479},{"NoteNumber":64,"Velocity":42,"Duration":60221,"SoundDuration":60221,"Delta":18846479},{"NoteNumber":73,"Velocity":48,"Duration":120443,"SoundDuration":120443,"Delta":18966922},{"NoteNumber":67,"Velocity":57,"Duration":120443,"SoundDuration":120443,"Delta":19087366},{"NoteNumber":64,"Velocity":45,"Duration":60221,"SoundDuration":60221,"Delta":19087366},{"NoteNumber":58,"Velocity":37,"Duration":60221,"SoundDuration":60221,"Delta":19087366},{"NoteNumber":73,"Velocity":53,"Duration":125733,"SoundDuration":125733,"Delta":19207809},{"NoteNumber":70,"Velocity":59,"Duration":121981,"SoundDuration":121981,"Delta":19333542},{"NoteNumber":71,"Velocity":52,"Duration":121980,"SoundDuration":121980,"Delta":19455523},{"NoteNumber":72,"Velocity":62,"Duration":121981,"SoundDuration":121981,"Delta":19577504},{"NoteNumber":58,"Velocity":42,"Duration":60990,"SoundDuration":60990,"Delta":19577504},{"NoteNumber":67,"Velocity":51,"Duration":60990,"SoundDuration":60990,"Delta":19577504},{"NoteNumber":76,"Velocity":55,"Duration":120481,"SoundDuration":120481,"Delta":19699485},{"NoteNumber":72,"Velocity":62,"Duration":120482,"SoundDuration":120482,"Delta":19819967},{"NoteNumber":67,"Velocity":51,"Duration":60241,"SoundDuration":60241,"Delta":19819967},{"NoteNumber":64,"Velocity":42,"Duration":60241,"SoundDuration":60241,"Delta":19819967},{"NoteNumber":76,"Velocity":55,"Duration":120481,"SoundDuration":120481,"Delta":19940449},{"NoteNumber":71,"Velocity":61,"Duration":120481,"SoundDuration":120481,"Delta":20060931},{"NoteNumber":62,"Velocity":42,"Duration":60240,"SoundDuration":60240,"Delta":20060931},{"NoteNumber":67,"Velocity":51,"Duration":60240,"SoundDuration":60240,"Delta":20060931},{"NoteNumber":76,"Velocity":50,"Duration":123967,"SoundDuration":123967,"Delta":20181413},{"NoteNumber":70,"Velocity":62,"Duration":120443,"SoundDuration":120443,"Delta":20305380},{"NoteNumber":60,"Velocity":42,"Duration":60221,"SoundDuration":60221,"Delta":20305380},{"NoteNumber":66,"Velocity":51,"Duration":60221,"SoundDuration":60221,"Delta":20305380},{"NoteNumber":76,"Velocity":55,"Duration":120443,"SoundDuration":120443,"Delta":20425824},{"NoteNumber":70,"Velocity":58,"Duration":120443,"SoundDuration":120443,"Delta":20546267},{"NoteNumber":66,"Velocity":44,"Duration":60221,"SoundDuration":60221,"Delta":20546267},{"NoteNumber":60,"Velocity":36,"Duration":60221,"SoundDuration":60221,"Delta":20546267},{"NoteNumber":76,"Velocity":50,"Duration":120443,"SoundDuration":120443,"Delta":20666710},{"NoteNumber":70,"Velocity":55,"Duration":123558,"SoundDuration":123558,"Delta":20787153},{"NoteNumber":60,"Velocity":33,"Duration":61779,"SoundDuration":61779,"Delta":20787153},{"NoteNumber":66,"Velocity":40,"Duration":61779,"SoundDuration":61779,"Delta":20787153},{"NoteNumber":76,"Velocity":46,"Duration":135220,"SoundDuration":135220,"Delta":20910712},{"NoteNumber":71,"Velocity":40,"Duration":124100,"SoundDuration":124100,"Delta":21045932},{"NoteNumber":59,"Velocity":28,"Duration":62050,"SoundDuration":62050,"Delta":21045932},{"NoteNumber":66,"Velocity":34,"Duration":62050,"SoundDuration":62050,"Delta":21045932},{"NoteNumber":76,"Velocity":36,"Duration":124100,"SoundDuration":124100,"Delta":21170033},{"NoteNumber":71,"Velocity":40,"Duration":124100,"SoundDuration":124100,"Delta":21294133},{"NoteNumber":59,"Velocity":28,"Duration":62050,"SoundDuration":62050,"Delta":21294133},{"NoteNumber":66,"Velocity":34,"Duration":62050,"SoundDuration":62050,"Delta":21294133},{"NoteNumber":76,"Velocity":34,"Duration":124100,"SoundDuration":124100,"Delta":21418233},{"NoteNumber":71,"Velocity":41,"Duration":124100,"SoundDuration":124100,"Delta":21542333},{"NoteNumber":59,"Velocity":28,"Duration":62050,"SoundDuration":62050,"Delta":21542333},{"NoteNumber":66,"Velocity":34,"Duration":62050,"SoundDuration":62050,"Delta":21542333},{"NoteNumber":76,"Velocity":36,"Duration":124100,"SoundDuration":124100,"Delta":21666434},{"NoteNumber":71,"Velocity":40,"Duration":126283,"SoundDuration":126283,"Delta":21790534},{"NoteNumber":59,"Velocity":28,"Duration":63141,"SoundDuration":63141,"Delta":21790534},{"NoteNumber":66,"Velocity":34,"Duration":63141,"SoundDuration":63141,"Delta":21790534},{"NoteNumber":75,"Velocity":36,"Duration":126284,"SoundDuration":126284,"Delta":21916818},{"NoteNumber":71,"Velocity":40,"Duration":126283,"SoundDuration":126283,"Delta":22043102},{"NoteNumber":66,"Velocity":34,"Duration":63141,"SoundDuration":63141,"Delta":22043102},{"NoteNumber":59,"Velocity":28,"Duration":63141,"SoundDuration":63141,"Delta":22043102},{"NoteNumber":75,"Velocity":34,"Duration":126284,"SoundDuration":126284,"Delta":22169386},{"NoteNumber":71,"Velocity":41,"Duration":126283,"SoundDuration":126283,"Delta":22295670},{"NoteNumber":59,"Velocity":28,"Duration":63141,"SoundDuration":63141,"Delta":22295670},{"NoteNumber":66,"Velocity":34,"Duration":63141,"SoundDuration":63141,"Delta":22295670},{"NoteNumber":75,"Velocity":36,"Duration":147304,"SoundDuration":147304,"Delta":22421954},{"NoteNumber":76,"Velocity":40,"Duration":63115,"SoundDuration":63115,"Delta":22569258},{"NoteNumber":71,"Velocity":34,"Duration":63115,"SoundDuration":63115,"Delta":22569258},{"NoteNumber":67,"Velocity":40,"Duration":63115,"SoundDuration":63115,"Delta":22569258},{"NoteNumber":64,"Velocity":34,"Duration":63115,"SoundDuration":63115,"Delta":22569258},{"NoteNumber":71,"Velocity":31,"Duration":63115,"SoundDuration":63115,"Delta":22821720},{"NoteNumber":76,"Velocity":37,"Duration":63115,"SoundDuration":63115,"Delta":22821720},{"NoteNumber":67,"Velocity":35,"Duration":63115,"SoundDuration":63115,"Delta":22821720},{"NoteNumber":64,"Velocity":29,"Duration":63115,"SoundDuration":63115,"Delta":22821720},{"NoteNumber":72,"Velocity":31,"Duration":66354,"SoundDuration":66354,"Delta":23074181},{"NoteNumber":76,"Velocity":37,"Duration":66354,"SoundDuration":66354,"Delta":23074181},{"NoteNumber":60,"Velocity":25,"Duration":66354,"SoundDuration":66354,"Delta":23074181},{"NoteNumber":67,"Velocity":30,"Duration":66354,"SoundDuration":66354,"Delta":23074181},{"NoteNumber":71,"Velocity":34,"Duration":64272,"SoundDuration":64272,"Delta":23339598},{"NoteNumber":76,"Velocity":40,"Duration":64272,"SoundDuration":64272,"Delta":23339598},{"NoteNumber":64,"Velocity":29,"Duration":64272,"SoundDuration":64272,"Delta":23339598},{"NoteNumber":67,"Velocity":35,"Duration":64272,"SoundDuration":64272,"Delta":23339598},{"NoteNumber":71,"Velocity":30,"Duration":65217,"SoundDuration":65217,"Delta":23596689},{"NoteNumber":76,"Velocity":36,"Duration":65217,"SoundDuration":65217,"Delta":23596689},{"NoteNumber":67,"Velocity":31,"Duration":65217,"SoundDuration":65217,"Delta":23596689},{"NoteNumber":64,"Velocity":26,"Duration":65217,"SoundDuration":65217,"Delta":23596689},{"NoteNumber":67,"Velocity":40,"Duration":125177,"SoundDuration":125177,"Delta":23857559},{"NoteNumber":69,"Velocity":35,"Duration":125177,"SoundDuration":125177,"Delta":23982736},{"NoteNumber":71,"Velocity":40,"Duration":120000,"SoundDuration":120000,"Delta":24107913},{"NoteNumber":64,"Velocity":29,"Duration":59999,"SoundDuration":59999,"Delta":24107913},{"NoteNumber":67,"Velocity":35,"Duration":59999,"SoundDuration":59999,"Delta":24107913},{"NoteNumber":72,"Velocity":36,"Duration":119999,"SoundDuration":119999,"Delta":24227913},{"NoteNumber":71,"Velocity":40,"Duration":120000,"SoundDuration":120000,"Delta":24347913},{"NoteNumber":64,"Velocity":27,"Duration":60000,"SoundDuration":60000,"Delta":24347913},{"NoteNumber":67,"Velocity":32,"Duration":60000,"SoundDuration":60000,"Delta":24347913},{"NoteNumber":78,"Velocity":45,"Duration":120000,"SoundDuration":120000,"Delta":24467913},{"NoteNumber":76,"Velocity":43,"Duration":120000,"SoundDuration":120000,"Delta":24587913},{"NoteNumber":64,"Velocity":28,"Duration":59999,"SoundDuration":59999,"Delta":24587913},{"NoteNumber":69,"Velocity":33,"Duration":59999,"SoundDuration":59999,"Delta":24587913},{"NoteNumber":74,"Velocity":40,"Duration":120386,"SoundDuration":120386,"Delta":24707913},{"NoteNumber":71,"Velocity":39,"Duration":124161,"SoundDuration":124161,"Delta":24828300},{"NoteNumber":67,"Velocity":35,"Duration":246712,"SoundDuration":246712,"Delta":24828300},{"NoteNumber":64,"Velocity":29,"Duration":246712,"SoundDuration":246712,"Delta":24828300},{"NoteNumber":76,"Velocity":41,"Duration":122550,"SoundDuration":122550,"Delta":24952461},{"NoteNumber":79,"Velocity":43,"Duration":121182,"SoundDuration":121182,"Delta":25075012},{"NoteNumber":82,"Velocity":45,"Duration":119602,"SoundDuration":119602,"Delta":25196194},{"NoteNumber":83,"Velocity":48,"Duration":118943,"SoundDuration":118943,"Delta":25315797},{"NoteNumber":83,"Velocity":40,"Duration":63141,"SoundDuration":63141,"Delta":25576250},{"NoteNumber":74,"Velocity":34,"Duration":63141,"SoundDuration":63141,"Delta":25576250},{"NoteNumber":78,"Velocity":34,"Duration":63141,"SoundDuration":63141,"Delta":25576250},{"NoteNumber":71,"Velocity":40,"Duration":63141,"SoundDuration":63141,"Delta":25576250},{"NoteNumber":74,"Velocity":31,"Duration":63141,"SoundDuration":63141,"Delta":25828818},{"NoteNumber":83,"Velocity":37,"Duration":63141,"SoundDuration":63141,"Delta":25828818},{"NoteNumber":78,"Velocity":31,"Duration":63141,"SoundDuration":63141,"Delta":25828818},{"NoteNumber":71,"Velocity":35,"Duration":63141,"SoundDuration":63141,"Delta":25828818},{"NoteNumber":83,"Velocity":37,"Duration":66354,"SoundDuration":66354,"Delta":26081386},{"NoteNumber":74,"Velocity":31,"Duration":66354,"SoundDuration":66354,"Delta":26081386},{"NoteNumber":79,"Velocity":31,"Duration":66354,"SoundDuration":66354,"Delta":26081386},{"NoteNumber":67,"Velocity":30,"Duration":66354,"SoundDuration":66354,"Delta":26081386},{"NoteNumber":74,"Velocity":34,"Duration":64272,"SoundDuration":64272,"Delta":26346802},{"NoteNumber":78,"Velocity":34,"Duration":64272,"SoundDuration":64272,"Delta":26346802},{"NoteNumber":83,"Velocity":40,"Duration":64272,"SoundDuration":64272,"Delta":26346802},{"NoteNumber":71,"Velocity":35,"Duration":64272,"SoundDuration":64272,"Delta":26346802},{"NoteNumber":78,"Velocity":30,"Duration":64272,"SoundDuration":64272,"Delta":26603894},{"NoteNumber":83,"Velocity":36,"Duration":64272,"SoundDuration":64272,"Delta":26603894},{"NoteNumber":74,"Velocity":30,"Duration":64272,"SoundDuration":64272,"Delta":26603894},{"NoteNumber":71,"Velocity":31,"Duration":64272,"SoundDuration":64272,"Delta":26603894},{"NoteNumber":71,"Velocity":40,"Duration":125177,"SoundDuration":125177,"Delta":26860985},{"NoteNumber":73,"Velocity":35,"Duration":125177,"SoundDuration":125177,"Delta":26986163},{"NoteNumber":74,"Velocity":40,"Duration":120967,"SoundDuration":120967,"Delta":27111340},{"NoteNumber":66,"Velocity":35,"Duration":60483,"SoundDuration":60483,"Delta":27111340},{"NoteNumber":78,"Velocity":36,"Duration":120967,"SoundDuration":120967,"Delta":27232308},{"NoteNumber":74,"Velocity":40,"Duration":120967,"SoundDuration":120967,"Delta":27353275},{"NoteNumber":71,"Velocity":40,"Duration":120967,"SoundDuration":120967,"Delta":27353275},{"NoteNumber":62,"Velocity":32,"Duration":60483,"SoundDuration":60483,"Delta":27353275},{"NoteNumber":78,"Velocity":45,"Duration":135220,"SoundDuration":135220,"Delta":27474243},{"NoteNumber":64,"Velocity":39,"Duration":67610,"SoundDuration":67610,"Delta":27474243},{"NoteNumber":70,"Velocity":53,"Duration":243312,"SoundDuration":243312,"Delta":27609464},{"NoteNumber":73,"Velocity":63,"Duration":121467,"SoundDuration":121467,"Delta":27609464},{"NoteNumber":66,"Velocity":56,"Duration":60733,"SoundDuration":60733,"Delta":27609464},{"NoteNumber":78,"Velocity":60,"Duration":121845,"SoundDuration":121845,"Delta":27730931},{"NoteNumber":71,"Velocity":52,"Duration":122402,"SoundDuration":122402,"Delta":27852776},{"NoteNumber":75,"Velocity":62,"Duration":122402,"SoundDuration":122402,"Delta":27852776},{"NoteNumber":66,"Velocity":66,"Duration":481424,"SoundDuration":481424,"Delta":27852776},{"NoteNumber":78,"Velocity":57,"Duration":120998,"SoundDuration":120998,"Delta":27975178},{"NoteNumber":71,"Velocity":53,"Duration":119664,"SoundDuration":119664,"Delta":28096177},{"NoteNumber":75,"Velocity":63,"Duration":119664,"SoundDuration":119664,"Delta":28096177},{"NoteNumber":78,"Velocity":59,"Duration":118359,"SoundDuration":118359,"Delta":28215842},{"NoteNumber":71,"Velocity":54,"Duration":117481,"SoundDuration":117481,"Delta":28334201},{"NoteNumber":75,"Velocity":64,"Duration":117481,"SoundDuration":117481,"Delta":28334201},{"NoteNumber":59,"Velocity":60,"Duration":278529,"SoundDuration":278529,"Delta":28334201},{"NoteNumber":78,"Velocity":57,"Duration":161048,"SoundDuration":161048,"Delta":28451682},{"NoteNumber":59,"Velocity":88,"Duration":63141,"SoundDuration":63141,"Delta":28612730},{"NoteNumber":47,"Velocity":88,"Duration":63141,"SoundDuration":63141,"Delta":28612730},{"NoteNumber":59,"Velocity":80,"Duration":63141,"SoundDuration":63141,"Delta":28865298},{"NoteNumber":47,"Velocity":76,"Duration":63141,"SoundDuration":63141,"Delta":28865298},{"NoteNumber":54,"Velocity":80,"Duration":66354,"SoundDuration":66354,"Delta":29117866},{"NoteNumber":42,"Velocity":66,"Duration":66354,"SoundDuration":66354,"Delta":29117866},{"NoteNumber":59,"Velocity":88,"Duration":64272,"SoundDuration":64272,"Delta":29383283},{"NoteNumber":47,"Velocity":76,"Duration":64272,"SoundDuration":64272,"Delta":29383283},{"NoteNumber":59,"Velocity":79,"Duration":65217,"SoundDuration":65217,"Delta":29640374},{"NoteNumber":47,"Velocity":67,"Duration":65217,"SoundDuration":65217,"Delta":29640374},{"NoteNumber":64,"Velocity":40,"Duration":125177,"SoundDuration":125177,"Delta":29901244},{"NoteNumber":66,"Velocity":35,"Duration":125177,"SoundDuration":125177,"Delta":30026421},{"NoteNumber":67,"Velocity":40,"Duration":120481,"SoundDuration":120481,"Delta":30151598},{"NoteNumber":52,"Velocity":28,"Duration":60241,"SoundDuration":60241,"Delta":30151598},{"NoteNumber":61,"Velocity":34,"Duration":60241,"SoundDuration":60241,"Delta":30151598},{"NoteNumber":70,"Velocity":36,"Duration":120482,"SoundDuration":120482,"Delta":30272080},{"NoteNumber":67,"Velocity":40,"Duration":120481,"SoundDuration":120481,"Delta":30392562},{"NoteNumber":61,"Velocity":34,"Duration":60240,"SoundDuration":60240,"Delta":30392562},{"NoteNumber":52,"Velocity":28,"Duration":60240,"SoundDuration":60240,"Delta":30392562},{"NoteNumber":70,"Velocity":34,"Duration":124481,"SoundDuration":124481,"Delta":30513044},{"NoteNumber":66,"Velocity":41,"Duration":121467,"SoundDuration":121467,"Delta":30637525},{"NoteNumber":54,"Velocity":28,"Duration":60733,"SoundDuration":60733,"Delta":30637525},{"NoteNumber":61,"Velocity":34,"Duration":60733,"SoundDuration":60733,"Delta":30637525},{"NoteNumber":70,"Velocity":36,"Duration":121845,"SoundDuration":121845,"Delta":30758993},{"NoteNumber":64,"Velocity":41,"Duration":122402,"SoundDuration":122402,"Delta":30880838},{"NoteNumber":61,"Velocity":34,"Duration":61380,"SoundDuration":61380,"Delta":30880838},{"NoteNumber":55,"Velocity":28,"Duration":61380,"SoundDuration":61380,"Delta":30880838},{"NoteNumber":70,"Velocity":36,"Duration":120998,"SoundDuration":120998,"Delta":31003240},{"NoteNumber":64,"Velocity":41,"Duration":119664,"SoundDuration":119664,"Delta":31124239},{"NoteNumber":61,"Velocity":35,"Duration":60042,"SoundDuration":60042,"Delta":31124239},{"NoteNumber":55,"Velocity":29,"Duration":60042,"SoundDuration":60042,"Delta":31124239},{"NoteNumber":70,"Velocity":35,"Duration":118359,"SoundDuration":118359,"Delta":31243904},{"NoteNumber":59,"Velocity":88,"Duration":63141,"SoundDuration":63141,"Delta":31640792},{"NoteNumber":47,"Velocity":88,"Duration":63141,"SoundDuration":63141,"Delta":31640792},{"NoteNumber":59,"Velocity":80,"Duration":63141,"SoundDuration":63141,"Delta":31893360},{"NoteNumber":47,"Velocity":76,"Duration":63141,"SoundDuration":63141,"Delta":31893360},{"NoteNumber":54,"Velocity":80,"Duration":66354,"SoundDuration":66354,"Delta":32145928},{"NoteNumber":42,"Velocity":66,"Duration":66354,"SoundDuration":66354,"Delta":32145928},{"NoteNumber":59,"Velocity":88,"Duration":64272,"SoundDuration":64272,"Delta":32411345},{"NoteNumber":47,"Velocity":76,"Duration":64272,"SoundDuration":64272,"Delta":32411345},{"NoteNumber":59,"Velocity":79,"Duration":64272,"SoundDuration":64272,"Delta":32668436},{"NoteNumber":47,"Velocity":67,"Duration":64272,"SoundDuration":64272,"Delta":32668436},{"NoteNumber":64,"Velocity":40,"Duration":125177,"SoundDuration":125177,"Delta":32925528},{"NoteNumber":66,"Velocity":35,"Duration":125177,"SoundDuration":125177,"Delta":33050705},{"NoteNumber":67,"Velocity":40,"Duration":121467,"SoundDuration":121467,"Delta":33175882},{"NoteNumber":52,"Velocity":28,"Duration":60733,"SoundDuration":60733,"Delta":33175882},{"NoteNumber":61,"Velocity":34,"Duration":60733,"SoundDuration":60733,"Delta":33175882},{"NoteNumber":70,"Velocity":36,"Duration":121467,"SoundDuration":121467,"Delta":33297349},{"NoteNumber":67,"Velocity":40,"Duration":121467,"SoundDuration":121467,"Delta":33418817},{"NoteNumber":52,"Velocity":28,"Duration":60733,"SoundDuration":60733,"Delta":33418817},{"NoteNumber":61,"Velocity":34,"Duration":60733,"SoundDuration":60733,"Delta":33418817},{"NoteNumber":70,"Velocity":34,"Duration":124100,"SoundDuration":124100,"Delta":33540284},{"NoteNumber":66,"Velocity":41,"Duration":121467,"SoundDuration":121467,"Delta":33664384},{"NoteNumber":54,"Velocity":28,"Duration":60733,"SoundDuration":60733,"Delta":33664384},{"NoteNumber":61,"Velocity":34,"Duration":60733,"SoundDuration":60733,"Delta":33664384},{"NoteNumber":70,"Velocity":36,"Duration":121845,"SoundDuration":121845,"Delta":33785851},{"NoteNumber":64,"Velocity":41,"Duration":121980,"SoundDuration":121980,"Delta":33907697},{"NoteNumber":55,"Velocity":28,"Duration":60990,"SoundDuration":60990,"Delta":33907697},{"NoteNumber":61,"Velocity":34,"Duration":60990,"SoundDuration":60990,"Delta":33907697},{"NoteNumber":70,"Velocity":36,"Duration":121981,"SoundDuration":121981,"Delta":34029678},{"NoteNumber":64,"Velocity":41,"Duration":121980,"SoundDuration":121980,"Delta":34151659},{"NoteNumber":55,"Velocity":29,"Duration":60990,"SoundDuration":60990,"Delta":34151659},{"NoteNumber":61,"Velocity":35,"Duration":60990,"SoundDuration":60990,"Delta":34151659},{"NoteNumber":70,"Velocity":35,"Duration":125733,"SoundDuration":125733,"Delta":34273640},{"NoteNumber":67,"Velocity":41,"Duration":121980,"SoundDuration":121980,"Delta":34399373},{"NoteNumber":69,"Velocity":35,"Duration":121981,"SoundDuration":121981,"Delta":34521354},{"NoteNumber":70,"Velocity":44,"Duration":121980,"SoundDuration":121980,"Delta":34643335},{"NoteNumber":64,"Velocity":37,"Duration":60990,"SoundDuration":60990,"Delta":34643335},{"NoteNumber":55,"Velocity":30,"Duration":60990,"SoundDuration":60990,"Delta":34643335},{"NoteNumber":73,"Velocity":40,"Duration":120482,"SoundDuration":120482,"Delta":34765316},{"NoteNumber":70,"Velocity":46,"Duration":120481,"SoundDuration":120481,"Delta":34885798},{"NoteNumber":55,"Velocity":32,"Duration":60240,"SoundDuration":60240,"Delta":34885798},{"NoteNumber":64,"Velocity":39,"Duration":60240,"SoundDuration":60240,"Delta":34885798},{"NoteNumber":73,"Velocity":39,"Duration":120482,"SoundDuration":120482,"Delta":35006280},{"NoteNumber":69,"Velocity":51,"Duration":120482,"SoundDuration":120482,"Delta":35126762},{"NoteNumber":55,"Velocity":33,"Duration":60240,"SoundDuration":60240,"Delta":35126762},{"NoteNumber":64,"Velocity":40,"Duration":60240,"SoundDuration":60240,"Delta":35126762},{"NoteNumber":73,"Velocity":45,"Duration":122449,"SoundDuration":122449,"Delta":35247244},{"NoteNumber":67,"Velocity":54,"Duration":120443,"SoundDuration":120443,"Delta":35369693},{"NoteNumber":64,"Velocity":42,"Duration":60221,"SoundDuration":60221,"Delta":35369693},{"NoteNumber":58,"Velocity":35,"Duration":60221,"SoundDuration":60221,"Delta":35369693},{"NoteNumber":73,"Velocity":48,"Duration":120443,"SoundDuration":120443,"Delta":35490136},{"NoteNumber":67,"Velocity":57,"Duration":120443,"SoundDuration":120443,"Delta":35610580},{"NoteNumber":64,"Velocity":45,"Duration":60221,"SoundDuration":60221,"Delta":35610580},{"NoteNumber":58,"Velocity":37,"Duration":60221,"SoundDuration":60221,"Delta":35610580},{"NoteNumber":73,"Velocity":53,"Duration":125733,"SoundDuration":125733,"Delta":35731023},{"NoteNumber":70,"Velocity":59,"Duration":121980,"SoundDuration":121980,"Delta":35856756},{"NoteNumber":71,"Velocity":52,"Duration":121981,"SoundDuration":121981,"Delta":35978737},{"NoteNumber":72,"Velocity":62,"Duration":121980,"SoundDuration":121980,"Delta":36100718},{"NoteNumber":67,"Velocity":51,"Duration":60990,"SoundDuration":60990,"Delta":36100718},{"NoteNumber":58,"Velocity":42,"Duration":60990,"SoundDuration":60990,"Delta":36100718},{"NoteNumber":76,"Velocity":55,"Duration":120482,"SoundDuration":120482,"Delta":36222699},{"NoteNumber":72,"Velocity":62,"Duration":120481,"SoundDuration":120481,"Delta":36343181},{"NoteNumber":64,"Velocity":42,"Duration":60240,"SoundDuration":60240,"Delta":36343181},{"NoteNumber":67,"Velocity":51,"Duration":60240,"SoundDuration":60240,"Delta":36343181},{"NoteNumber":76,"Velocity":55,"Duration":120482,"SoundDuration":120482,"Delta":36463663},{"NoteNumber":71,"Velocity":61,"Duration":120482,"SoundDuration":120482,"Delta":36584145},{"NoteNumber":67,"Velocity":51,"Duration":60240,"SoundDuration":60240,"Delta":36584145},{"NoteNumber":62,"Velocity":42,"Duration":60240,"SoundDuration":60240,"Delta":36584145},{"NoteNumber":76,"Velocity":50,"Duration":123967,"SoundDuration":123967,"Delta":36704627},{"NoteNumber":70,"Velocity":62,"Duration":120443,"SoundDuration":120443,"Delta":36828594},{"NoteNumber":60,"Velocity":42,"Duration":60221,"SoundDuration":60221,"Delta":36828594},{"NoteNumber":66,"Velocity":51,"Duration":60221,"SoundDuration":60221,"Delta":36828594},{"NoteNumber":76,"Velocity":55,"Duration":120443,"SoundDuration":120443,"Delta":36949038},{"NoteNumber":70,"Velocity":58,"Duration":120443,"SoundDuration":120443,"Delta":37069481},{"NoteNumber":66,"Velocity":44,"Duration":60221,"SoundDuration":60221,"Delta":37069481},{"NoteNumber":60,"Velocity":36,"Duration":60221,"SoundDuration":60221,"Delta":37069481},{"NoteNumber":76,"Velocity":50,"Duration":120443,"SoundDuration":120443,"Delta":37189924},{"NoteNumber":70,"Velocity":55,"Duration":123558,"SoundDuration":123558,"Delta":37310367},{"NoteNumber":66,"Velocity":40,"Duration":61779,"SoundDuration":61779,"Delta":37310367},{"NoteNumber":60,"Velocity":33,"Duration":61779,"SoundDuration":61779,"Delta":37310367},{"NoteNumber":76,"Velocity":46,"Duration":135220,"SoundDuration":135220,"Delta":37433926},{"NoteNumber":71,"Velocity":40,"Duration":124100,"SoundDuration":124100,"Delta":37569146},{"NoteNumber":66,"Velocity":34,"Duration":62050,"SoundDuration":62050,"Delta":37569146},{"NoteNumber":59,"Velocity":28,"Duration":62050,"SoundDuration":62050,"Delta":37569146},{"NoteNumber":76,"Velocity":36,"Duration":124100,"SoundDuration":124100,"Delta":37693247},{"NoteNumber":71,"Velocity":40,"Duration":124100,"SoundDuration":124100,"Delta":37817347},{"NoteNumber":66,"Velocity":34,"Duration":62050,"SoundDuration":62050,"Delta":37817347},{"NoteNumber":59,"Velocity":28,"Duration":62050,"SoundDuration":62050,"Delta":37817347},{"NoteNumber":76,"Velocity":34,"Duration":124100,"SoundDuration":124100,"Delta":37941447},{"NoteNumber":71,"Velocity":41,"Duration":124100,"SoundDuration":124100,"Delta":38065547},{"NoteNumber":66,"Velocity":34,"Duration":62050,"SoundDuration":62050,"Delta":38065547},{"NoteNumber":59,"Velocity":28,"Duration":62050,"SoundDuration":62050,"Delta":38065547},{"NoteNumber":76,"Velocity":36,"Duration":124100,"SoundDuration":124100,"Delta":38189648},{"NoteNumber":71,"Velocity":40,"Duration":126283,"SoundDuration":126283,"Delta":38313748},{"NoteNumber":59,"Velocity":28,"Duration":63141,"SoundDuration":63141,"Delta":38313748},{"NoteNumber":66,"Velocity":34,"Duration":63141,"SoundDuration":63141,"Delta":38313748},{"NoteNumber":75,"Velocity":36,"Duration":126283,"SoundDuration":126283,"Delta":38440032},{"NoteNumber":71,"Velocity":40,"Duration":126284,"SoundDuration":126284,"Delta":38566316},{"NoteNumber":66,"Velocity":34,"Duration":63142,"SoundDuration":63142,"Delta":38566316},{"NoteNumber":59,"Velocity":28,"Duration":63142,"SoundDuration":63142,"Delta":38566316},{"NoteNumber":75,"Velocity":34,"Duration":126283,"SoundDuration":126283,"Delta":38692600},{"NoteNumber":71,"Velocity":41,"Duration":126283,"SoundDuration":126283,"Delta":38818884},{"NoteNumber":59,"Velocity":28,"Duration":63141,"SoundDuration":63141,"Delta":38818884},{"NoteNumber":66,"Velocity":34,"Duration":63141,"SoundDuration":63141,"Delta":38818884},{"NoteNumber":75,"Velocity":36,"Duration":159016,"SoundDuration":159016,"Delta":38945168},{"NoteNumber":76,"Velocity":40,"Duration":63115,"SoundDuration":63115,"Delta":39104184},{"NoteNumber":71,"Velocity":34,"Duration":63115,"SoundDuration":63115,"Delta":39104184},{"NoteNumber":67,"Velocity":40,"Duration":63115,"SoundDuration":63115,"Delta":39104184},{"NoteNumber":64,"Velocity":34,"Duration":63115,"SoundDuration":63115,"Delta":39104184},{"NoteNumber":71,"Velocity":31,"Duration":63115,"SoundDuration":63115,"Delta":39356646},{"NoteNumber":76,"Velocity":37,"Duration":63115,"SoundDuration":63115,"Delta":39356646},{"NoteNumber":64,"Velocity":29,"Duration":63115,"SoundDuration":63115,"Delta":39356646},{"NoteNumber":67,"Velocity":35,"Duration":63115,"SoundDuration":63115,"Delta":39356646},{"NoteNumber":76,"Velocity":37,"Duration":66354,"SoundDuration":66354,"Delta":39609107},{"NoteNumber":72,"Velocity":31,"Duration":66354,"SoundDuration":66354,"Delta":39609107},{"NoteNumber":67,"Velocity":30,"Duration":66354,"SoundDuration":66354,"Delta":39609107},{"NoteNumber":60,"Velocity":25,"Duration":66354,"SoundDuration":66354,"Delta":39609107},{"NoteNumber":76,"Velocity":40,"Duration":64272,"SoundDuration":64272,"Delta":39874524},{"NoteNumber":71,"Velocity":34,"Duration":64272,"SoundDuration":64272,"Delta":39874524},{"NoteNumber":67,"Velocity":35,"Duration":64272,"SoundDuration":64272,"Delta":39874524},{"NoteNumber":64,"Velocity":29,"Duration":64272,"SoundDuration":64272,"Delta":39874524},{"NoteNumber":76,"Velocity":36,"Duration":64272,"SoundDuration":64272,"Delta":40131615},{"NoteNumber":71,"Velocity":30,"Duration":64272,"SoundDuration":64272,"Delta":40131615},{"NoteNumber":67,"Velocity":31,"Duration":64272,"SoundDuration":64272,"Delta":40131615},{"NoteNumber":64,"Velocity":26,"Duration":64272,"SoundDuration":64272,"Delta":40131615},{"NoteNumber":67,"Velocity":40,"Duration":125177,"SoundDuration":125177,"Delta":40388707},{"NoteNumber":69,"Velocity":35,"Duration":125177,"SoundDuration":125177,"Delta":40513884},{"NoteNumber":71,"Velocity":40,"Duration":120482,"SoundDuration":120482,"Delta":40639061},{"NoteNumber":64,"Velocity":29,"Duration":60240,"SoundDuration":60240,"Delta":40639061},{"NoteNumber":67,"Velocity":35,"Duration":60240,"SoundDuration":60240,"Delta":40639061},{"NoteNumber":72,"Velocity":36,"Duration":120481,"SoundDuration":120481,"Delta":40759543},{"NoteNumber":71,"Velocity":40,"Duration":120482,"SoundDuration":120482,"Delta":40880025},{"NoteNumber":64,"Velocity":27,"Duration":60241,"SoundDuration":60241,"Delta":40880025},{"NoteNumber":67,"Velocity":32,"Duration":60241,"SoundDuration":60241,"Delta":40880025},{"NoteNumber":78,"Velocity":45,"Duration":120482,"SoundDuration":120482,"Delta":41000507},{"NoteNumber":76,"Velocity":43,"Duration":120481,"SoundDuration":120481,"Delta":41120989},{"NoteNumber":64,"Velocity":28,"Duration":60240,"SoundDuration":60240,"Delta":41120989},{"NoteNumber":69,"Velocity":33,"Duration":60240,"SoundDuration":60240,"Delta":41120989},{"NoteNumber":74,"Velocity":40,"Duration":120828,"SoundDuration":120828,"Delta":41241471},{"NoteNumber":71,"Velocity":39,"Duration":124161,"SoundDuration":124161,"Delta":41362299},{"NoteNumber":67,"Velocity":35,"Duration":246712,"SoundDuration":246712,"Delta":41362299},{"NoteNumber":64,"Velocity":29,"Duration":246712,"SoundDuration":246712,"Delta":41362299},{"NoteNumber":76,"Velocity":41,"Duration":122550,"SoundDuration":122550,"Delta":41486461},{"NoteNumber":79,"Velocity":43,"Duration":121182,"SoundDuration":121182,"Delta":41609012},{"NoteNumber":82,"Velocity":45,"Duration":119602,"SoundDuration":119602,"Delta":41730194},{"NoteNumber":83,"Velocity":48,"Duration":118943,"SoundDuration":118943,"Delta":41849796},{"NoteNumber":74,"Velocity":34,"Duration":63141,"SoundDuration":63141,"Delta":42110920},{"NoteNumber":78,"Velocity":34,"Duration":63141,"SoundDuration":63141,"Delta":42110920},{"NoteNumber":83,"Velocity":40,"Duration":63141,"SoundDuration":63141,"Delta":42110920},{"NoteNumber":71,"Velocity":40,"Duration":63141,"SoundDuration":63141,"Delta":42110920},{"NoteNumber":78,"Velocity":31,"Duration":63142,"SoundDuration":63142,"Delta":42363488},{"NoteNumber":74,"Velocity":31,"Duration":63142,"SoundDuration":63142,"Delta":42363488},{"NoteNumber":83,"Velocity":37,"Duration":63142,"SoundDuration":63142,"Delta":42363488},{"NoteNumber":71,"Velocity":35,"Duration":63142,"SoundDuration":63142,"Delta":42363488},{"NoteNumber":79,"Velocity":31,"Duration":66354,"SoundDuration":66354,"Delta":42616056},{"NoteNumber":74,"Velocity":31,"Duration":66354,"SoundDuration":66354,"Delta":42616056},{"NoteNumber":83,"Velocity":37,"Duration":66354,"SoundDuration":66354,"Delta":42616056},{"NoteNumber":67,"Velocity":30,"Duration":66354,"SoundDuration":66354,"Delta":42616056},{"NoteNumber":74,"Velocity":34,"Duration":64272,"SoundDuration":64272,"Delta":42881473},{"NoteNumber":78,"Velocity":34,"Duration":64272,"SoundDuration":64272,"Delta":42881473},{"NoteNumber":83,"Velocity":40,"Duration":64272,"SoundDuration":64272,"Delta":42881473},{"NoteNumber":71,"Velocity":35,"Duration":64272,"SoundDuration":64272,"Delta":42881473},{"NoteNumber":74,"Velocity":30,"Duration":64272,"SoundDuration":64272,"Delta":43138564},{"NoteNumber":83,"Velocity":36,"Duration":64272,"SoundDuration":64272,"Delta":43138564},{"NoteNumber":78,"Velocity":30,"Duration":64272,"SoundDuration":64272,"Delta":43138564},{"NoteNumber":71,"Velocity":31,"Duration":64272,"SoundDuration":64272,"Delta":43138564},{"NoteNumber":71,"Velocity":40,"Duration":125177,"SoundDuration":125177,"Delta":43395656},{"NoteNumber":73,"Velocity":35,"Duration":125177,"SoundDuration":125177,"Delta":43520833},{"NoteNumber":74,"Velocity":40,"Duration":121467,"SoundDuration":121467,"Delta":43646010},{"NoteNumber":66,"Velocity":35,"Duration":60733,"SoundDuration":60733,"Delta":43646010},{"NoteNumber":78,"Velocity":36,"Duration":121467,"SoundDuration":121467,"Delta":43767477},{"NoteNumber":71,"Velocity":40,"Duration":121467,"SoundDuration":121467,"Delta":43888945},{"NoteNumber":74,"Velocity":40,"Duration":121467,"SoundDuration":121467,"Delta":43888945},{"NoteNumber":62,"Velocity":32,"Duration":60733,"SoundDuration":60733,"Delta":43888945},{"NoteNumber":78,"Velocity":45,"Duration":135220,"SoundDuration":135220,"Delta":44010412},{"NoteNumber":64,"Velocity":39,"Duration":67610,"SoundDuration":67610,"Delta":44010412},{"NoteNumber":73,"Velocity":63,"Duration":121467,"SoundDuration":121467,"Delta":44145632},{"NoteNumber":70,"Velocity":53,"Duration":243312,"SoundDuration":243312,"Delta":44145632},{"NoteNumber":66,"Velocity":56,"Duration":60733,"SoundDuration":60733,"Delta":44145632},{"NoteNumber":78,"Velocity":60,"Duration":121845,"SoundDuration":121845,"Delta":44267100},{"NoteNumber":75,"Velocity":62,"Duration":122402,"SoundDuration":122402,"Delta":44388945},{"NoteNumber":71,"Velocity":52,"Duration":122402,"SoundDuration":122402,"Delta":44388945},{"NoteNumber":66,"Velocity":66,"Duration":481424,"SoundDuration":481424,"Delta":44388945},{"NoteNumber":78,"Velocity":57,"Duration":120998,"SoundDuration":120998,"Delta":44511347},{"NoteNumber":75,"Velocity":63,"Duration":119664,"SoundDuration":119664,"Delta":44632346},{"NoteNumber":71,"Velocity":53,"Duration":119664,"SoundDuration":119664,"Delta":44632346},{"NoteNumber":78,"Velocity":59,"Duration":118359,"SoundDuration":118359,"Delta":44752011},{"NoteNumber":75,"Velocity":64,"Duration":117481,"SoundDuration":117481,"Delta":44870370},{"NoteNumber":71,"Velocity":54,"Duration":117481,"SoundDuration":117481,"Delta":44870370},{"NoteNumber":59,"Velocity":60,"Duration":279433,"SoundDuration":279433,"Delta":44870370},{"NoteNumber":78,"Velocity":57,"Duration":161951,"SoundDuration":161951,"Delta":44987851},{"NoteNumber":71,"Velocity":34,"Duration":63141,"SoundDuration":63141,"Delta":45149803},{"NoteNumber":76,"Velocity":40,"Duration":63141,"SoundDuration":63141,"Delta":45149803},{"NoteNumber":64,"Velocity":34,"Duration":63141,"SoundDuration":63141,"Delta":45149803},{"NoteNumber":67,"Velocity":40,"Duration":63141,"SoundDuration":63141,"Delta":45149803},{"NoteNumber":71,"Velocity":31,"Duration":63142,"SoundDuration":63142,"Delta":45402371},{"NoteNumber":76,"Velocity":37,"Duration":63142,"SoundDuration":63142,"Delta":45402371},{"NoteNumber":64,"Velocity":29,"Duration":63142,"SoundDuration":63142,"Delta":45402371},{"NoteNumber":67,"Velocity":35,"Duration":63142,"SoundDuration":63142,"Delta":45402371},{"NoteNumber":76,"Velocity":37,"Duration":66354,"SoundDuration":66354,"Delta":45654939},{"NoteNumber":72,"Velocity":31,"Duration":66354,"SoundDuration":66354,"Delta":45654939},{"NoteNumber":60,"Velocity":25,"Duration":66354,"SoundDuration":66354,"Delta":45654939},{"NoteNumber":67,"Velocity":30,"Duration":66354,"SoundDuration":66354,"Delta":45654939},{"NoteNumber":71,"Velocity":34,"Duration":64272,"SoundDuration":64272,"Delta":45920355},{"NoteNumber":76,"Velocity":40,"Duration":64272,"SoundDuration":64272,"Delta":45920355},{"NoteNumber":64,"Velocity":29,"Duration":64272,"SoundDuration":64272,"Delta":45920355},{"NoteNumber":67,"Velocity":35,"Duration":64272,"SoundDuration":64272,"Delta":45920355},{"NoteNumber":76,"Velocity":36,"Duration":65217,"SoundDuration":65217,"Delta":46177447},{"NoteNumber":71,"Velocity":30,"Duration":65217,"SoundDuration":65217,"Delta":46177447},{"NoteNumber":67,"Velocity":31,"Duration":65217,"SoundDuration":65217,"Delta":46177447},{"NoteNumber":64,"Velocity":26,"Duration":65217,"SoundDuration":65217,"Delta":46177447},{"NoteNumber":67,"Velocity":40,"Duration":125177,"SoundDuration":125177,"Delta":46438316},{"NoteNumber":69,"Velocity":35,"Duration":125177,"SoundDuration":125177,"Delta":46563494},{"NoteNumber":71,"Velocity":40,"Duration":119999,"SoundDuration":119999,"Delta":46688671},{"NoteNumber":64,"Velocity":29,"Duration":60000,"SoundDuration":60000,"Delta":46688671},{"NoteNumber":67,"Velocity":35,"Duration":60000,"SoundDuration":60000,"Delta":46688671},{"NoteNumber":72,"Velocity":36,"Duration":120000,"SoundDuration":120000,"Delta":46808671},{"NoteNumber":71,"Velocity":40,"Duration":119999,"SoundDuration":119999,"Delta":46928671},{"NoteNumber":64,"Velocity":27,"Duration":59999,"SoundDuration":59999,"Delta":46928671},{"NoteNumber":67,"Velocity":32,"Duration":59999,"SoundDuration":59999,"Delta":46928671},{"NoteNumber":78,"Velocity":45,"Duration":119999,"SoundDuration":119999,"Delta":47048671},{"NoteNumber":76,"Velocity":43,"Duration":120000,"SoundDuration":120000,"Delta":47168671},{"NoteNumber":64,"Velocity":28,"Duration":60000,"SoundDuration":60000,"Delta":47168671},{"NoteNumber":69,"Velocity":33,"Duration":60000,"SoundDuration":60000,"Delta":47168671},{"NoteNumber":74,"Velocity":40,"Duration":120386,"SoundDuration":120386,"Delta":47288671},{"NoteNumber":71,"Velocity":39,"Duration":124161,"SoundDuration":124161,"Delta":47409057},{"NoteNumber":64,"Velocity":29,"Duration":246712,"SoundDuration":246712,"Delta":47409057},{"NoteNumber":67,"Velocity":35,"Duration":246712,"SoundDuration":246712,"Delta":47409057},{"NoteNumber":76,"Velocity":41,"Duration":122550,"SoundDuration":122550,"Delta":47533219},{"NoteNumber":79,"Velocity":43,"Duration":121182,"SoundDuration":121182,"Delta":47655770},{"NoteNumber":82,"Velocity":45,"Duration":119602,"SoundDuration":119602,"Delta":47776952},{"NoteNumber":83,"Velocity":48,"Duration":118943,"SoundDuration":118943,"Delta":47896554},{"NoteNumber":64,"Velocity":31,"Duration":246712,"SoundDuration":246712,"Delta":48157008},{"NoteNumber":60,"Velocity":26,"Duration":246712,"SoundDuration":246712,"Delta":48157008},{"NoteNumber":68,"Velocity":36,"Duration":122550,"SoundDuration":122550,"Delta":48281169},{"NoteNumber":69,"Velocity":38,"Duration":121182,"SoundDuration":121182,"Delta":48403720},{"NoteNumber":72,"Velocity":40,"Duration":119602,"SoundDuration":119602,"Delta":48524902},{"NoteNumber":76,"Velocity":43,"Duration":118943,"SoundDuration":118943,"Delta":48644505},{"NoteNumber":57,"Velocity":26,"Duration":257345,"SoundDuration":257345,"Delta":48901875},{"NoteNumber":60,"Velocity":31,"Duration":257345,"SoundDuration":257345,"Delta":48901875},{"NoteNumber":64,"Velocity":36,"Duration":127800,"SoundDuration":127800,"Delta":49031419},{"NoteNumber":65,"Velocity":38,"Duration":126122,"SoundDuration":126122,"Delta":49159220},{"NoteNumber":69,"Velocity":40,"Duration":124491,"SoundDuration":124491,"Delta":49285342},{"NoteNumber":72,"Velocity":43,"Duration":123629,"SoundDuration":123629,"Delta":49409833},{"NoteNumber":54,"Velocity":24,"Duration":293492,"SoundDuration":293492,"Delta":49703451},{"NoteNumber":47,"Velocity":21,"Duration":293492,"SoundDuration":293492,"Delta":49703451},{"NoteNumber":57,"Velocity":29,"Duration":293492,"SoundDuration":293492,"Delta":49703451},{"NoteNumber":62,"Velocity":34,"Duration":145885,"SoundDuration":145885,"Delta":49851058},{"NoteNumber":63,"Velocity":36,"Duration":144110,"SoundDuration":144110,"Delta":49996944},{"NoteNumber":66,"Velocity":38,"Duration":142422,"SoundDuration":142422,"Delta":50141054},{"NoteNumber":71,"Velocity":40,"Duration":143774,"SoundDuration":143774,"Delta":50283477},{"NoteNumber":59,"Velocity":22,"Duration":63141,"SoundDuration":63141,"Delta":50719479},{"NoteNumber":64,"Velocity":27,"Duration":63141,"SoundDuration":63141,"Delta":50719479},{"NoteNumber":55,"Velocity":22,"Duration":63141,"SoundDuration":63141,"Delta":50719479},{"NoteNumber":40,"Velocity":18,"Duration":63141,"SoundDuration":63141,"Delta":50719479},{"NoteNumber":47,"Velocity":18,"Duration":63141,"SoundDuration":63141,"Delta":50719479},{"NoteNumber":52,"Velocity":22,"Duration":63141,"SoundDuration":63141,"Delta":50719479},{"NoteNumber":59,"Velocity":20,"Duration":63142,"SoundDuration":63142,"Delta":50972047},{"NoteNumber":64,"Velocity":24,"Duration":63142,"SoundDuration":63142,"Delta":50972047},{"NoteNumber":55,"Velocity":20,"Duration":63142,"SoundDuration":63142,"Delta":50972047},{"NoteNumber":47,"Velocity":16,"Duration":63142,"SoundDuration":63142,"Delta":50972047},{"NoteNumber":40,"Velocity":16,"Duration":63142,"SoundDuration":63142,"Delta":50972047},{"NoteNumber":52,"Velocity":19,"Duration":63142,"SoundDuration":63142,"Delta":50972047},{"NoteNumber":60,"Velocity":20,"Duration":66354,"SoundDuration":66354,"Delta":51224615},{"NoteNumber":64,"Velocity":24,"Duration":66354,"SoundDuration":66354,"Delta":51224615},{"NoteNumber":55,"Velocity":20,"Duration":66354,"SoundDuration":66354,"Delta":51224615},{"NoteNumber":52,"Velocity":16,"Duration":66354,"SoundDuration":66354,"Delta":51224615},{"NoteNumber":45,"Velocity":13,"Duration":66354,"SoundDuration":66354,"Delta":51224615},{"NoteNumber":40,"Velocity":13,"Duration":66354,"SoundDuration":66354,"Delta":51224615},{"NoteNumber":59,"Velocity":22,"Duration":63141,"SoundDuration":63141,"Delta":51490031},{"NoteNumber":55,"Velocity":22,"Duration":63141,"SoundDuration":63141,"Delta":51490031},{"NoteNumber":64,"Velocity":27,"Duration":63141,"SoundDuration":63141,"Delta":51490031},{"NoteNumber":40,"Velocity":18,"Duration":63141,"SoundDuration":63141,"Delta":51490031},{"NoteNumber":52,"Velocity":22,"Duration":63141,"SoundDuration":63141,"Delta":51490031},{"NoteNumber":47,"Velocity":18,"Duration":63141,"SoundDuration":63141,"Delta":51490031},{"NoteNumber":64,"Velocity":24,"Duration":63142,"SoundDuration":63142,"Delta":51742599},{"NoteNumber":59,"Velocity":20,"Duration":63142,"SoundDuration":63142,"Delta":51742599},{"NoteNumber":55,"Velocity":20,"Duration":63142,"SoundDuration":63142,"Delta":51742599},{"NoteNumber":40,"Velocity":16,"Duration":63142,"SoundDuration":63142,"Delta":51742599},{"NoteNumber":47,"Velocity":16,"Duration":63142,"SoundDuration":63142,"Delta":51742599},{"NoteNumber":52,"Velocity":19,"Duration":63142,"SoundDuration":63142,"Delta":51742599},{"NoteNumber":55,"Velocity":20,"Duration":66354,"SoundDuration":66354,"Delta":51995167},{"NoteNumber":57,"Velocity":20,"Duration":66354,"SoundDuration":66354,"Delta":51995167},{"NoteNumber":64,"Velocity":24,"Duration":66354,"SoundDuration":66354,"Delta":51995167},{"NoteNumber":52,"Velocity":16,"Duration":66354,"SoundDuration":66354,"Delta":51995167},{"NoteNumber":40,"Velocity":13,"Duration":66354,"SoundDuration":66354,"Delta":51995167},{"NoteNumber":48,"Velocity":13,"Duration":66354,"SoundDuration":66354,"Delta":51995167},{"NoteNumber":59,"Velocity":22,"Duration":63141,"SoundDuration":63141,"Delta":52260584},{"NoteNumber":55,"Velocity":22,"Duration":63141,"SoundDuration":63141,"Delta":52260584},{"NoteNumber":64,"Velocity":27,"Duration":63141,"SoundDuration":63141,"Delta":52260584},{"NoteNumber":52,"Velocity":22,"Duration":63141,"SoundDuration":63141,"Delta":52260584},{"NoteNumber":40,"Velocity":18,"Duration":63141,"SoundDuration":63141,"Delta":52260584},{"NoteNumber":47,"Velocity":18,"Duration":63141,"SoundDuration":63141,"Delta":52260584},{"NoteNumber":71,"Velocity":22,"Duration":82119,"SoundDuration":82119,"Delta":52892004},{"NoteNumber":75,"Velocity":22,"Duration":90003,"SoundDuration":90003,"Delta":52974123},{"NoteNumber":76,"Velocity":32,"Duration":67977,"SoundDuration":67977,"Delta":53064127},{"NoteNumber":67,"Velocity":27,"Duration":67977,"SoundDuration":67977,"Delta":53064127},{"NoteNumber":52,"Velocity":22,"Duration":67977,"SoundDuration":67977,"Delta":53064127},{"NoteNumber":59,"Velocity":27,"Duration":67977,"SoundDuration":67977,"Delta":53064127},{"NoteNumber":83,"Velocity":22,"Duration":86875,"SoundDuration":86875,"Delta":53743906},{"NoteNumber":87,"Velocity":22,"Duration":95141,"SoundDuration":95141,"Delta":53830782},{"NoteNumber":88,"Velocity":32,"Duration":95141,"SoundDuration":95141,"Delta":53925923},{"NoteNumber":79,"Velocity":27,"Duration":95141,"SoundDuration":95141,"Delta":53925923},{"NoteNumber":71,"Velocity":27,"Duration":95141,"SoundDuration":95141,"Delta":53925923},{"NoteNumber":64,"Velocity":22,"Duration":95141,"SoundDuration":95141,"Delta":53925923}],"license":{"name":"Creative Commons Attribution-ShareAlike 3.0 Germany","url":"http://creativecommons.org/licenses/by-sa/3.0/de/deed.en","text":"The MIDI, audio (MP3, OGG) and video files of Bernd Krueger are licensed under the cc-by-sa Germany License. This means that you can use and adapt the files, as long as you attribute the copyright holder.\n\nName: Bernd Krueger\nSource: http://www.piano-midi.de\n\nThe distribution or public playback of the files is only allowed under identical license conditions.\n\nThe scores are open source.","attribution":"MIDI files by Bernd Krueger (piano-midi.de)","attributionUrl":"http://www.piano-midi.de"}}