{"title":"Grieg: Lyrische Stücke Op. 43 Nr. 6 - An den Frühling","artist":"Grieg","durationMs":153945,"midiSha256":"2e687403cddc9ff486e596668a6eb8659d11a3ed3233d33c3f9c9015be8b327a","midiObject":[{"NoteNumber":78,"Velocity":15,"Duration":247879,"SoundDuration":247879,"Delta":0},{"NoteNumber":85,"Velocity":22,"Duration":247879,"SoundDuration":247879,"Delta":0},{"NoteNumber":82,"Velocity":15,"Duration":247879,"SoundDuration":247879,"Delta":0},{"NoteNumber":78,"Velocity":15,"Duration":247879,"SoundDuration":247879,"Delta":260926},{"NoteNumber":85,"Velocity":22,"Duration":247879,"SoundDuration":247879,"Delta":260926},{"NoteNumber":82,"Velocity":15,"Duration":247879,"SoundDuration":247879,"Delta":260926},{"NoteNumber":78,"Velocity":16,"Duration":245922,"SoundDuration":245922,"Delta":521852},{"NoteNumber":85,"Velocity":24,"Duration":245922,"SoundDuration":245922,"Delta":521852},{"NoteNumber":82,"Velocity":16,"Duration":245922,"SoundDuration":245922,"Delta":521852},{"NoteNumber":78,"Velocity":15,"Duration":245922,"SoundDuration":245922,"Delta":780718},{"NoteNumber":85,"Velocity":22,"Duration":245922,"SoundDuration":245922,"Delta":780718},{"NoteNumber":82,"Velocity":15,"Duration":245922,"SoundDuration":245922,"Delta":780718},{"NoteNumber":78,"Velocity":15,"Duration":248875,"SoundDuration":248875,"Delta":1039584},{"NoteNumber":85,"Velocity":22,"Duration":248875,"SoundDuration":248875,"Delta":1039584},{"NoteNumber":82,"Velocity":15,"Duration":248875,"SoundDuration":248875,"Delta":1039584},{"NoteNumber":78,"Velocity":15,"Duration":247879,"SoundDuration":247879,"Delta":1562484},{"NoteNumber":85,"Velocity":22,"Duration":247879,"SoundDuration":247879,"Delta":1562484},{"NoteNumber":82,"Velocity":15,"Duration":247879,"SoundDuration":247879,"Delta":1562484},{"NoteNumber":78,"Velocity":15,"Duration":247879,"SoundDuration":247879,"Delta":1823410},{"NoteNumber":85,"Velocity":22,"Duration":247879,"SoundDuration":247879,"Delta":1823410},{"NoteNumber":82,"Velocity":15,"Duration":247879,"SoundDuration":247879,"Delta":1823410},{"NoteNumber":78,"Velocity":16,"Duration":245922,"SoundDuration":245922,"Delta":2084336},{"NoteNumber":85,"Velocity":24,"Duration":245922,"SoundDuration":245922,"Delta":2084336},{"NoteNumber":82,"Velocity":16,"Duration":245922,"SoundDuration":245922,"Delta":2084336},{"NoteNumber":78,"Velocity":14,"Duration":245922,"SoundDuration":245922,"Delta":2343202},{"NoteNumber":85,"Velocity":21,"Duration":245922,"SoundDuration":245922,"Delta":2343202},{"NoteNumber":82,"Velocity":14,"Duration":245922,"SoundDuration":245922,"Delta":2343202},{"NoteNumber":78,"Velocity":14,"Duration":248875,"SoundDuration":248875,"Delta":2602068},{"NoteNumber":85,"Velocity":21,"Duration":248875,"SoundDuration":248875,"Delta":2602068},{"NoteNumber":82,"Velocity":14,"Duration":248875,"SoundDuration":248875,"Delta":2602068},{"NoteNumber":73,"Velocity":35,"Duration":1184872,"SoundDuration":1184872,"Delta":2864042},{"NoteNumber":78,"Velocity":15,"Duration":247879,"SoundDuration":247879,"Delta":3139271},{"NoteNumber":85,"Velocity":22,"Duration":247879,"SoundDuration":247879,"Delta":3139271},{"NoteNumber":82,"Velocity":15,"Duration":247879,"SoundDuration":247879,"Delta":3139271},{"NoteNumber":78,"Velocity":15,"Duration":247879,"SoundDuration":247879,"Delta":3400197},{"NoteNumber":85,"Velocity":22,"Duration":247879,"SoundDuration":247879,"Delta":3400197},{"NoteNumber":82,"Velocity":15,"Duration":247879,"SoundDuration":247879,"Delta":3400197},{"NoteNumber":78,"Velocity":16,"Duration":244950,"SoundDuration":244950,"Delta":3661123},{"NoteNumber":85,"Velocity":24,"Duration":244950,"SoundDuration":244950,"Delta":3661123},{"NoteNumber":82,"Velocity":16,"Duration":244950,"SoundDuration":244950,"Delta":3661123},{"NoteNumber":78,"Velocity":14,"Duration":246903,"SoundDuration":246903,"Delta":3918965},{"NoteNumber":85,"Velocity":21,"Duration":246903,"SoundDuration":246903,"Delta":3918965},{"NoteNumber":82,"Velocity":14,"Duration":246903,"SoundDuration":246903,"Delta":3918965},{"NoteNumber":75,"Velocity":34,"Duration":400622,"SoundDuration":400622,"Delta":4048915},{"NoteNumber":78,"Velocity":14,"Duration":257139,"SoundDuration":257139,"Delta":4178863},{"NoteNumber":87,"Velocity":21,"Duration":257139,"SoundDuration":257139,"Delta":4178863},{"NoteNumber":82,"Velocity":14,"Duration":257139,"SoundDuration":257139,"Delta":4178863},{"NoteNumber":75,"Velocity":38,"Duration":773563,"SoundDuration":773563,"Delta":4449537},{"NoteNumber":78,"Velocity":16,"Duration":243039,"SoundDuration":243039,"Delta":4708403},{"NoteNumber":82,"Velocity":16,"Duration":243039,"SoundDuration":243039,"Delta":4708403},{"NoteNumber":87,"Velocity":24,"Duration":243039,"SoundDuration":243039,"Delta":4708403},{"NoteNumber":78,"Velocity":16,"Duration":245922,"SoundDuration":245922,"Delta":4964234},{"NoteNumber":82,"Velocity":16,"Duration":245922,"SoundDuration":245922,"Delta":4964234},{"NoteNumber":87,"Velocity":24,"Duration":245922,"SoundDuration":245922,"Delta":4964234},{"NoteNumber":73,"Velocity":35,"Duration":383746,"SoundDuration":383746,"Delta":5223100},{"NoteNumber":78,"Velocity":16,"Duration":243039,"SoundDuration":243039,"Delta":5478931},{"NoteNumber":82,"Velocity":16,"Duration":243039,"SoundDuration":243039,"Delta":5478931},{"NoteNumber":85,"Velocity":26,"Duration":243039,"SoundDuration":243039,"Delta":5478931},{"NoteNumber":70,"Velocity":33,"Duration":394156,"SoundDuration":394156,"Delta":5606846},{"NoteNumber":73,"Velocity":16,"Duration":252928,"SoundDuration":252928,"Delta":5734762},{"NoteNumber":82,"Velocity":26,"Duration":252928,"SoundDuration":252928,"Delta":5734762},{"NoteNumber":78,"Velocity":16,"Duration":252928,"SoundDuration":252928,"Delta":5734762},{"NoteNumber":66,"Velocity":37,"Duration":771517,"SoundDuration":771517,"Delta":6001003},{"NoteNumber":71,"Velocity":19,"Duration":243039,"SoundDuration":243039,"Delta":6258846},{"NoteNumber":75,"Velocity":19,"Duration":243039,"SoundDuration":243039,"Delta":6258846},{"NoteNumber":78,"Velocity":28,"Duration":243039,"SoundDuration":243039,"Delta":6258846},{"NoteNumber":71,"Velocity":19,"Duration":244950,"SoundDuration":244950,"Delta":6514677},{"NoteNumber":75,"Velocity":19,"Duration":244950,"SoundDuration":244950,"Delta":6514677},{"NoteNumber":78,"Velocity":28,"Duration":244950,"SoundDuration":244950,"Delta":6514677},{"NoteNumber":68,"Velocity":35,"Duration":781506,"SoundDuration":781506,"Delta":6772520},{"NoteNumber":71,"Velocity":18,"Duration":243039,"SoundDuration":243039,"Delta":7030363},{"NoteNumber":75,"Velocity":18,"Duration":243039,"SoundDuration":243039,"Delta":7030363},{"NoteNumber":80,"Velocity":28,"Duration":243039,"SoundDuration":243039,"Delta":7030363},{"NoteNumber":71,"Velocity":18,"Duration":254441,"SoundDuration":254441,"Delta":7286194},{"NoteNumber":75,"Velocity":18,"Duration":254441,"SoundDuration":254441,"Delta":7286194},{"NoteNumber":80,"Velocity":27,"Duration":254441,"SoundDuration":254441,"Delta":7286194},{"NoteNumber":70,"Velocity":38,"Duration":1546603,"SoundDuration":1546603,"Delta":7554027},{"NoteNumber":73,"Velocity":16,"Duration":243985,"SoundDuration":243985,"Delta":7809858},{"NoteNumber":78,"Velocity":16,"Duration":243985,"SoundDuration":243985,"Delta":7809858},{"NoteNumber":82,"Velocity":24,"Duration":243985,"SoundDuration":243985,"Delta":7809858},{"NoteNumber":73,"Velocity":16,"Duration":243985,"SoundDuration":243985,"Delta":8066684},{"NoteNumber":78,"Velocity":16,"Duration":243985,"SoundDuration":243985,"Delta":8066684},{"NoteNumber":82,"Velocity":24,"Duration":243985,"SoundDuration":243985,"Delta":8066684},{"NoteNumber":73,"Velocity":18,"Duration":240212,"SoundDuration":240212,"Delta":8323512},{"NoteNumber":78,"Velocity":18,"Duration":240212,"SoundDuration":240212,"Delta":8323512},{"NoteNumber":82,"Velocity":27,"Duration":240212,"SoundDuration":240212,"Delta":8323512},{"NoteNumber":73,"Velocity":16,"Duration":243039,"SoundDuration":243039,"Delta":8576367},{"NoteNumber":78,"Velocity":16,"Duration":243039,"SoundDuration":243039,"Delta":8576367},{"NoteNumber":82,"Velocity":24,"Duration":243039,"SoundDuration":243039,"Delta":8576367},{"NoteNumber":73,"Velocity":16,"Duration":255010,"SoundDuration":255010,"Delta":8832198},{"NoteNumber":78,"Velocity":16,"Duration":255010,"SoundDuration":255010,"Delta":8832198},{"NoteNumber":82,"Velocity":24,"Duration":255010,"SoundDuration":255010,"Delta":8832198},{"NoteNumber":73,"Velocity":39,"Duration":798921,"SoundDuration":798921,"Delta":9100630},{"NoteNumber":78,"Velocity":20,"Duration":243039,"SoundDuration":243039,"Delta":9359496},{"NoteNumber":85,"Velocity":30,"Duration":243039,"SoundDuration":243039,"Delta":9359496},{"NoteNumber":82,"Velocity":20,"Duration":243039,"SoundDuration":243039,"Delta":9359496},{"NoteNumber":78,"Velocity":20,"Duration":270013,"SoundDuration":270013,"Delta":9615327},{"NoteNumber":82,"Velocity":20,"Duration":270013,"SoundDuration":270013,"Delta":9615327},{"NoteNumber":85,"Velocity":30,"Duration":270013,"SoundDuration":270013,"Delta":9615327},{"NoteNumber":78,"Velocity":23,"Duration":243985,"SoundDuration":243985,"Delta":9899552},{"NoteNumber":82,"Velocity":23,"Duration":243985,"SoundDuration":243985,"Delta":9899552},{"NoteNumber":89,"Velocity":34,"Duration":243985,"SoundDuration":243985,"Delta":9899552},{"NoteNumber":77,"Velocity":41,"Duration":256826,"SoundDuration":256826,"Delta":9899552},{"NoteNumber":87,"Velocity":32,"Duration":243881,"SoundDuration":243881,"Delta":10156379},{"NoteNumber":82,"Velocity":21,"Duration":243881,"SoundDuration":243881,"Delta":10156379},{"NoteNumber":78,"Velocity":21,"Duration":243881,"SoundDuration":243881,"Delta":10156379},{"NoteNumber":75,"Velocity":39,"Duration":256717,"SoundDuration":256717,"Delta":10156379},{"NoteNumber":78,"Velocity":21,"Duration":249890,"SoundDuration":249890,"Delta":10413096},{"NoteNumber":82,"Velocity":21,"Duration":249890,"SoundDuration":249890,"Delta":10413096},{"NoteNumber":85,"Velocity":32,"Duration":249890,"SoundDuration":249890,"Delta":10413096},{"NoteNumber":73,"Velocity":39,"Duration":263042,"SoundDuration":263042,"Delta":10413096},{"NoteNumber":75,"Velocity":44,"Duration":386281,"SoundDuration":386281,"Delta":10676139},{"NoteNumber":78,"Velocity":23,"Duration":242089,"SoundDuration":242089,"Delta":10935005},{"NoteNumber":87,"Velocity":35,"Duration":242089,"SoundDuration":242089,"Delta":10935005},{"NoteNumber":82,"Velocity":23,"Duration":242089,"SoundDuration":242089,"Delta":10935005},{"NoteNumber":73,"Velocity":42,"Duration":388341,"SoundDuration":388341,"Delta":11062420},{"NoteNumber":78,"Velocity":21,"Duration":247879,"SoundDuration":247879,"Delta":11189836},{"NoteNumber":82,"Velocity":21,"Duration":247879,"SoundDuration":247879,"Delta":11189836},{"NoteNumber":85,"Velocity":33,"Duration":247879,"SoundDuration":247879,"Delta":11189836},{"NoteNumber":70,"Velocity":41,"Duration":389852,"SoundDuration":389852,"Delta":11450761},{"NoteNumber":73,"Velocity":23,"Duration":248875,"SoundDuration":248875,"Delta":11709627},{"NoteNumber":82,"Velocity":34,"Duration":248875,"SoundDuration":248875,"Delta":11709627},{"NoteNumber":78,"Velocity":29,"Duration":248875,"SoundDuration":248875,"Delta":11709627},{"NoteNumber":66,"Velocity":39,"Duration":392961,"SoundDuration":392961,"Delta":11840614},{"NoteNumber":70,"Velocity":21,"Duration":248875,"SoundDuration":248875,"Delta":11971601},{"NoteNumber":73,"Velocity":21,"Duration":248875,"SoundDuration":248875,"Delta":11971601},{"NoteNumber":78,"Velocity":32,"Duration":248875,"SoundDuration":248875,"Delta":11971601},{"NoteNumber":66,"Velocity":42,"Duration":795602,"SoundDuration":795602,"Delta":12233575},{"NoteNumber":71,"Velocity":20,"Duration":244950,"SoundDuration":244950,"Delta":12495550},{"NoteNumber":75,"Velocity":20,"Duration":244950,"SoundDuration":244950,"Delta":12495550},{"NoteNumber":78,"Velocity":30,"Duration":244950,"SoundDuration":244950,"Delta":12495550},{"NoteNumber":71,"Velocity":20,"Duration":261996,"SoundDuration":261996,"Delta":12753392},{"NoteNumber":75,"Velocity":20,"Duration":261996,"SoundDuration":261996,"Delta":12753392},{"NoteNumber":78,"Velocity":30,"Duration":261996,"SoundDuration":261996,"Delta":12753392},{"NoteNumber":71,"Velocity":23,"Duration":244950,"SoundDuration":244950,"Delta":13029178},{"NoteNumber":75,"Velocity":23,"Duration":244950,"SoundDuration":244950,"Delta":13029178},{"NoteNumber":82,"Velocity":35,"Duration":244950,"SoundDuration":244950,"Delta":13029178},{"NoteNumber":70,"Velocity":42,"Duration":257842,"SoundDuration":257842,"Delta":13029178},{"NoteNumber":71,"Velocity":20,"Duration":244950,"SoundDuration":244950,"Delta":13287021},{"NoteNumber":75,"Velocity":20,"Duration":244950,"SoundDuration":244950,"Delta":13287021},{"NoteNumber":80,"Velocity":31,"Duration":244950,"SoundDuration":244950,"Delta":13287021},{"NoteNumber":68,"Velocity":37,"Duration":257843,"SoundDuration":257843,"Delta":13287021},{"NoteNumber":71,"Velocity":20,"Duration":250891,"SoundDuration":250891,"Delta":13544865},{"NoteNumber":75,"Velocity":20,"Duration":250891,"SoundDuration":250891,"Delta":13544865},{"NoteNumber":78,"Velocity":31,"Duration":250891,"SoundDuration":250891,"Delta":13544865},{"NoteNumber":66,"Velocity":37,"Duration":264096,"SoundDuration":264096,"Delta":13544865},{"NoteNumber":70,"Velocity":42,"Duration":1291373,"SoundDuration":1291373,"Delta":13808961},{"NoteNumber":73,"Velocity":20,"Duration":247879,"SoundDuration":247879,"Delta":14069887},{"NoteNumber":78,"Velocity":20,"Duration":247879,"SoundDuration":247879,"Delta":14069887},{"NoteNumber":82,"Velocity":30,"Duration":247879,"SoundDuration":247879,"Delta":14069887},{"NoteNumber":73,"Velocity":20,"Duration":245922,"SoundDuration":245922,"Delta":14330813},{"NoteNumber":78,"Velocity":20,"Duration":245922,"SoundDuration":245922,"Delta":14330813},{"NoteNumber":82,"Velocity":30,"Duration":245922,"SoundDuration":245922,"Delta":14330813},{"NoteNumber":73,"Velocity":21,"Duration":241137,"SoundDuration":241137,"Delta":14589679},{"NoteNumber":78,"Velocity":21,"Duration":241137,"SoundDuration":241137,"Delta":14589679},{"NoteNumber":82,"Velocity":33,"Duration":241137,"SoundDuration":241137,"Delta":14589679},{"NoteNumber":73,"Velocity":20,"Duration":243985,"SoundDuration":243985,"Delta":14843508},{"NoteNumber":78,"Velocity":20,"Duration":243985,"SoundDuration":243985,"Delta":14843508},{"NoteNumber":82,"Velocity":30,"Duration":243985,"SoundDuration":243985,"Delta":14843508},{"NoteNumber":73,"Velocity":20,"Duration":270706,"SoundDuration":270706,"Delta":15100334},{"NoteNumber":78,"Velocity":20,"Duration":270706,"SoundDuration":270706,"Delta":15100334},{"NoteNumber":82,"Velocity":30,"Duration":270706,"SoundDuration":270706,"Delta":15100334},{"NoteNumber":70,"Velocity":42,"Duration":1164036,"SoundDuration":1164036,"Delta":15385289},{"NoteNumber":74,"Velocity":27,"Duration":247879,"SoundDuration":247879,"Delta":15646215},{"NoteNumber":78,"Velocity":27,"Duration":247879,"SoundDuration":247879,"Delta":15646215},{"NoteNumber":82,"Velocity":32,"Duration":247879,"SoundDuration":247879,"Delta":15646215},{"NoteNumber":74,"Velocity":27,"Duration":240212,"SoundDuration":240212,"Delta":15907141},{"NoteNumber":78,"Velocity":27,"Duration":240212,"SoundDuration":240212,"Delta":15907141},{"NoteNumber":82,"Velocity":32,"Duration":240212,"SoundDuration":240212,"Delta":15907141},{"NoteNumber":62,"Velocity":42,"Duration":259895,"SoundDuration":259895,"Delta":16159996},{"NoteNumber":54,"Velocity":34,"Duration":259895,"SoundDuration":259895,"Delta":16159996},{"NoteNumber":74,"Velocity":30,"Duration":245922,"SoundDuration":245922,"Delta":16419891},{"NoteNumber":78,"Velocity":30,"Duration":245922,"SoundDuration":245922,"Delta":16419891},{"NoteNumber":82,"Velocity":36,"Duration":245922,"SoundDuration":245922,"Delta":16419891},{"NoteNumber":70,"Velocity":49,"Duration":394603,"SoundDuration":394603,"Delta":16549325},{"NoteNumber":74,"Velocity":33,"Duration":251911,"SoundDuration":251911,"Delta":16678758},{"NoteNumber":78,"Velocity":33,"Duration":251911,"SoundDuration":251911,"Delta":16678758},{"NoteNumber":82,"Velocity":39,"Duration":251911,"SoundDuration":251911,"Delta":16678758},{"NoteNumber":70,"Velocity":52,"Duration":784962,"SoundDuration":784962,"Delta":16943928},{"NoteNumber":75,"Velocity":32,"Duration":245922,"SoundDuration":245922,"Delta":17204854},{"NoteNumber":78,"Velocity":32,"Duration":245922,"SoundDuration":245922,"Delta":17204854},{"NoteNumber":82,"Velocity":38,"Duration":245922,"SoundDuration":245922,"Delta":17204854},{"NoteNumber":75,"Velocity":32,"Duration":251911,"SoundDuration":251911,"Delta":17463720},{"NoteNumber":78,"Velocity":32,"Duration":251911,"SoundDuration":251911,"Delta":17463720},{"NoteNumber":82,"Velocity":38,"Duration":251911,"SoundDuration":251911,"Delta":17463720},{"NoteNumber":63,"Velocity":48,"Duration":785010,"SoundDuration":785010,"Delta":17728890},{"NoteNumber":66,"Velocity":27,"Duration":244950,"SoundDuration":244950,"Delta":17989816},{"NoteNumber":70,"Velocity":27,"Duration":244950,"SoundDuration":244950,"Delta":17989816},{"NoteNumber":75,"Velocity":33,"Duration":244950,"SoundDuration":244950,"Delta":17989816},{"NoteNumber":66,"Velocity":27,"Duration":252928,"SoundDuration":252928,"Delta":18247659},{"NoteNumber":70,"Velocity":27,"Duration":252928,"SoundDuration":252928,"Delta":18247659},{"NoteNumber":75,"Velocity":33,"Duration":252928,"SoundDuration":252928,"Delta":18247659},{"NoteNumber":70,"Velocity":42,"Duration":1034602,"SoundDuration":1034602,"Delta":18513900},{"NoteNumber":74,"Velocity":27,"Duration":247879,"SoundDuration":247879,"Delta":18774826},{"NoteNumber":78,"Velocity":27,"Duration":247879,"SoundDuration":247879,"Delta":18774826},{"NoteNumber":82,"Velocity":32,"Duration":247879,"SoundDuration":247879,"Delta":18774826},{"NoteNumber":74,"Velocity":27,"Duration":240212,"SoundDuration":240212,"Delta":19035752},{"NoteNumber":78,"Velocity":27,"Duration":240212,"SoundDuration":240212,"Delta":19035752},{"NoteNumber":82,"Velocity":32,"Duration":240212,"SoundDuration":240212,"Delta":19035752},{"NoteNumber":54,"Velocity":34,"Duration":259895,"SoundDuration":259895,"Delta":19288607},{"NoteNumber":62,"Velocity":42,"Duration":259895,"SoundDuration":259895,"Delta":19288607},{"NoteNumber":74,"Velocity":30,"Duration":245922,"SoundDuration":245922,"Delta":19548503},{"NoteNumber":78,"Velocity":30,"Duration":245922,"SoundDuration":245922,"Delta":19548503},{"NoteNumber":83,"Velocity":36,"Duration":245922,"SoundDuration":245922,"Delta":19548503},{"NoteNumber":71,"Velocity":49,"Duration":258866,"SoundDuration":258866,"Delta":19548503},{"NoteNumber":74,"Velocity":33,"Duration":251911,"SoundDuration":251911,"Delta":19807369},{"NoteNumber":78,"Velocity":33,"Duration":251911,"SoundDuration":251911,"Delta":19807369},{"NoteNumber":85,"Velocity":39,"Duration":251911,"SoundDuration":251911,"Delta":19807369},{"NoteNumber":73,"Velocity":49,"Duration":265170,"SoundDuration":265170,"Delta":19807369},{"NoteNumber":70,"Velocity":52,"Duration":1596233,"SoundDuration":1596233,"Delta":20072539},{"NoteNumber":75,"Velocity":35,"Duration":243039,"SoundDuration":243039,"Delta":20333465},{"NoteNumber":78,"Velocity":35,"Duration":243039,"SoundDuration":243039,"Delta":20333465},{"NoteNumber":82,"Velocity":42,"Duration":243039,"SoundDuration":243039,"Delta":20333465},{"NoteNumber":75,"Velocity":36,"Duration":251911,"SoundDuration":251911,"Delta":20589296},{"NoteNumber":78,"Velocity":36,"Duration":251911,"SoundDuration":251911,"Delta":20589296},{"NoteNumber":82,"Velocity":43,"Duration":251911,"SoundDuration":251911,"Delta":20589296},{"NoteNumber":75,"Velocity":37,"Duration":247879,"SoundDuration":247879,"Delta":20854466},{"NoteNumber":78,"Velocity":37,"Duration":247879,"SoundDuration":247879,"Delta":20854466},{"NoteNumber":82,"Velocity":45,"Duration":247879,"SoundDuration":247879,"Delta":20854466},{"NoteNumber":75,"Velocity":39,"Duration":244950,"SoundDuration":244950,"Delta":21115392},{"NoteNumber":78,"Velocity":39,"Duration":244950,"SoundDuration":244950,"Delta":21115392},{"NoteNumber":82,"Velocity":46,"Duration":244950,"SoundDuration":244950,"Delta":21115392},{"NoteNumber":75,"Velocity":40,"Duration":280760,"SoundDuration":280760,"Delta":21373235},{"NoteNumber":78,"Velocity":40,"Duration":280760,"SoundDuration":280760,"Delta":21373235},{"NoteNumber":82,"Velocity":48,"Duration":280760,"SoundDuration":280760,"Delta":21373235},{"NoteNumber":70,"Velocity":54,"Duration":1209632,"SoundDuration":1209632,"Delta":21668772},{"NoteNumber":74,"Velocity":33,"Duration":255010,"SoundDuration":255010,"Delta":21937204},{"NoteNumber":78,"Velocity":33,"Duration":255010,"SoundDuration":255010,"Delta":21937204},{"NoteNumber":82,"Velocity":40,"Duration":255010,"SoundDuration":255010,"Delta":21937204},{"NoteNumber":74,"Velocity":33,"Duration":249890,"SoundDuration":249890,"Delta":22205636},{"NoteNumber":78,"Velocity":33,"Duration":249890,"SoundDuration":249890,"Delta":22205636},{"NoteNumber":82,"Velocity":40,"Duration":249890,"SoundDuration":249890,"Delta":22205636},{"NoteNumber":74,"Velocity":33,"Duration":258198,"SoundDuration":258198,"Delta":22468679},{"NoteNumber":78,"Velocity":33,"Duration":258198,"SoundDuration":258198,"Delta":22468679},{"NoteNumber":82,"Velocity":40,"Duration":258198,"SoundDuration":258198,"Delta":22468679},{"NoteNumber":74,"Velocity":34,"Duration":262081,"SoundDuration":262081,"Delta":22740467},{"NoteNumber":78,"Velocity":34,"Duration":262081,"SoundDuration":262081,"Delta":22740467},{"NoteNumber":82,"Velocity":41,"Duration":262081,"SoundDuration":262081,"Delta":22740467},{"NoteNumber":69,"Velocity":48,"Duration":432252,"SoundDuration":432252,"Delta":22878404},{"NoteNumber":74,"Velocity":34,"Duration":279572,"SoundDuration":279572,"Delta":23016342},{"NoteNumber":78,"Velocity":34,"Duration":279572,"SoundDuration":279572,"Delta":23016342},{"NoteNumber":81,"Velocity":41,"Duration":279572,"SoundDuration":279572,"Delta":23016342},{"NoteNumber":69,"Velocity":45,"Duration":784987,"SoundDuration":784987,"Delta":23310657},{"NoteNumber":73,"Velocity":33,"Duration":244950,"SoundDuration":244950,"Delta":23572631},{"NoteNumber":77,"Velocity":33,"Duration":244950,"SoundDuration":244950,"Delta":23572631},{"NoteNumber":81,"Velocity":39,"Duration":244950,"SoundDuration":244950,"Delta":23572631},{"NoteNumber":73,"Velocity":32,"Duration":251911,"SoundDuration":251911,"Delta":23830474},{"NoteNumber":77,"Velocity":32,"Duration":251911,"SoundDuration":251911,"Delta":23830474},{"NoteNumber":81,"Velocity":38,"Duration":251911,"SoundDuration":251911,"Delta":23830474},{"NoteNumber":68,"Velocity":44,"Duration":790285,"SoundDuration":790285,"Delta":24095644},{"NoteNumber":73,"Velocity":31,"Duration":246903,"SoundDuration":246903,"Delta":24358687},{"NoteNumber":77,"Velocity":31,"Duration":246903,"SoundDuration":246903,"Delta":24358687},{"NoteNumber":80,"Velocity":37,"Duration":246903,"SoundDuration":246903,"Delta":24358687},{"NoteNumber":73,"Velocity":31,"Duration":253976,"SoundDuration":253976,"Delta":24618585},{"NoteNumber":77,"Velocity":31,"Duration":253976,"SoundDuration":253976,"Delta":24618585},{"NoteNumber":80,"Velocity":37,"Duration":253976,"SoundDuration":253976,"Delta":24618585},{"NoteNumber":68,"Velocity":48,"Duration":779705,"SoundDuration":779705,"Delta":24885929},{"NoteNumber":72,"Velocity":33,"Duration":245922,"SoundDuration":245922,"Delta":25147903},{"NoteNumber":76,"Velocity":33,"Duration":245922,"SoundDuration":245922,"Delta":25147903},{"NoteNumber":80,"Velocity":39,"Duration":245922,"SoundDuration":245922,"Delta":25147903},{"NoteNumber":72,"Velocity":33,"Duration":245922,"SoundDuration":245922,"Delta":25406769},{"NoteNumber":76,"Velocity":33,"Duration":245922,"SoundDuration":245922,"Delta":25406769},{"NoteNumber":80,"Velocity":39,"Duration":245922,"SoundDuration":245922,"Delta":25406769},{"NoteNumber":70,"Velocity":51,"Duration":384816,"SoundDuration":384816,"Delta":25665635},{"NoteNumber":72,"Velocity":33,"Duration":129895,"SoundDuration":129895,"Delta":25919464},{"NoteNumber":76,"Velocity":33,"Duration":248875,"SoundDuration":248875,"Delta":25919464},{"NoteNumber":82,"Velocity":39,"Duration":248875,"SoundDuration":248875,"Delta":25919464},{"NoteNumber":72,"Velocity":50,"Duration":399418,"SoundDuration":399418,"Delta":26050451},{"NoteNumber":76,"Velocity":34,"Duration":255010,"SoundDuration":255010,"Delta":26181438},{"NoteNumber":84,"Velocity":41,"Duration":255010,"SoundDuration":255010,"Delta":26181438},{"NoteNumber":68,"Velocity":57,"Duration":779693,"SoundDuration":779693,"Delta":26449870},{"NoteNumber":73,"Velocity":34,"Duration":246903,"SoundDuration":246903,"Delta":26709768},{"NoteNumber":77,"Velocity":34,"Duration":246903,"SoundDuration":246903,"Delta":26709768},{"NoteNumber":80,"Velocity":41,"Duration":246903,"SoundDuration":246903,"Delta":26709768},{"NoteNumber":73,"Velocity":34,"Duration":246903,"SoundDuration":246903,"Delta":26969666},{"NoteNumber":77,"Velocity":34,"Duration":246903,"SoundDuration":246903,"Delta":26969666},{"NoteNumber":80,"Velocity":41,"Duration":246903,"SoundDuration":246903,"Delta":26969666},{"NoteNumber":89,"Velocity":53,"Duration":252928,"SoundDuration":252928,"Delta":27229564},{"NoteNumber":77,"Velocity":58,"Duration":265131,"SoundDuration":265131,"Delta":27229564},{"NoteNumber":77,"Velocity":39,"Duration":250891,"SoundDuration":250891,"Delta":27495805},{"NoteNumber":80,"Velocity":39,"Duration":250891,"SoundDuration":250891,"Delta":27495805},{"NoteNumber":85,"Velocity":47,"Duration":250891,"SoundDuration":250891,"Delta":27495805},{"NoteNumber":73,"Velocity":56,"Duration":264095,"SoundDuration":264095,"Delta":27495805},{"NoteNumber":77,"Velocity":39,"Duration":252928,"SoundDuration":252928,"Delta":27759901},{"NoteNumber":80,"Velocity":39,"Duration":252928,"SoundDuration":252928,"Delta":27759901},{"NoteNumber":84,"Velocity":47,"Duration":252928,"SoundDuration":252928,"Delta":27759901},{"NoteNumber":72,"Velocity":56,"Duration":266241,"SoundDuration":266241,"Delta":27759901},{"NoteNumber":71,"Velocity":57,"Duration":1039605,"SoundDuration":1039605,"Delta":28026142},{"NoteNumber":73,"Velocity":38,"Duration":247879,"SoundDuration":247879,"Delta":28287068},{"NoteNumber":77,"Velocity":38,"Duration":247879,"SoundDuration":247879,"Delta":28287068},{"NoteNumber":83,"Velocity":45,"Duration":247879,"SoundDuration":247879,"Delta":28287068},{"NoteNumber":73,"Velocity":38,"Duration":247879,"SoundDuration":247879,"Delta":28547994},{"NoteNumber":77,"Velocity":38,"Duration":247879,"SoundDuration":247879,"Delta":28547994},{"NoteNumber":83,"Velocity":45,"Duration":247879,"SoundDuration":247879,"Delta":28547994},{"NoteNumber":73,"Velocity":39,"Duration":243985,"SoundDuration":243985,"Delta":28808920},{"NoteNumber":77,"Velocity":39,"Duration":243985,"SoundDuration":243985,"Delta":28808920},{"NoteNumber":83,"Velocity":47,"Duration":243985,"SoundDuration":243985,"Delta":28808920},{"NoteNumber":73,"Velocity":37,"Duration":247879,"SoundDuration":247879,"Delta":29065747},{"NoteNumber":77,"Velocity":37,"Duration":247879,"SoundDuration":247879,"Delta":29065747},{"NoteNumber":82,"Velocity":44,"Duration":247879,"SoundDuration":247879,"Delta":29065747},{"NoteNumber":70,"Velocity":53,"Duration":260926,"SoundDuration":260926,"Delta":29065747},{"NoteNumber":73,"Velocity":37,"Duration":267970,"SoundDuration":267970,"Delta":29326673},{"NoteNumber":77,"Velocity":37,"Duration":267970,"SoundDuration":267970,"Delta":29326673},{"NoteNumber":81,"Velocity":44,"Duration":267970,"SoundDuration":267970,"Delta":29326673},{"NoteNumber":69,"Velocity":53,"Duration":282074,"SoundDuration":282074,"Delta":29326673},{"NoteNumber":69,"Velocity":55,"Duration":779695,"SoundDuration":779695,"Delta":29608747},{"NoteNumber":73,"Velocity":37,"Duration":244950,"SoundDuration":244950,"Delta":29869673},{"NoteNumber":77,"Velocity":37,"Duration":244950,"SoundDuration":244950,"Delta":29869673},{"NoteNumber":81,"Velocity":44,"Duration":244950,"SoundDuration":244950,"Delta":29869673},{"NoteNumber":73,"Velocity":37,"Duration":247879,"SoundDuration":247879,"Delta":30127516},{"NoteNumber":77,"Velocity":37,"Duration":247879,"SoundDuration":247879,"Delta":30127516},{"NoteNumber":81,"Velocity":44,"Duration":247879,"SoundDuration":247879,"Delta":30127516},{"NoteNumber":68,"Velocity":56,"Duration":516725,"SoundDuration":516725,"Delta":30388442},{"NoteNumber":73,"Velocity":37,"Duration":243985,"SoundDuration":243985,"Delta":30648340},{"NoteNumber":77,"Velocity":37,"Duration":243985,"SoundDuration":243985,"Delta":30648340},{"NoteNumber":80,"Velocity":44,"Duration":243985,"SoundDuration":243985,"Delta":30648340},{"NoteNumber":73,"Velocity":37,"Duration":250891,"SoundDuration":250891,"Delta":30905167},{"NoteNumber":77,"Velocity":37,"Duration":250891,"SoundDuration":250891,"Delta":30905167},{"NoteNumber":81,"Velocity":44,"Duration":250891,"SoundDuration":250891,"Delta":30905167},{"NoteNumber":69,"Velocity":58,"Duration":264095,"SoundDuration":264095,"Delta":30905167},{"NoteNumber":70,"Velocity":57,"Duration":812262,"SoundDuration":812262,"Delta":31169263},{"NoteNumber":75,"Velocity":37,"Duration":243985,"SoundDuration":243985,"Delta":31429161},{"NoteNumber":78,"Velocity":37,"Duration":243985,"SoundDuration":243985,"Delta":31429161},{"NoteNumber":82,"Velocity":44,"Duration":243985,"SoundDuration":243985,"Delta":31429161},{"NoteNumber":75,"Velocity":39,"Duration":280760,"SoundDuration":280760,"Delta":31685988},{"NoteNumber":78,"Velocity":39,"Duration":280760,"SoundDuration":280760,"Delta":31685988},{"NoteNumber":82,"Velocity":46,"Duration":280760,"SoundDuration":280760,"Delta":31685988},{"NoteNumber":78,"Velocity":44,"Duration":272940,"SoundDuration":272940,"Delta":31981525},{"NoteNumber":75,"Velocity":44,"Duration":272940,"SoundDuration":272940,"Delta":31981525},{"NoteNumber":85,"Velocity":52,"Duration":258986,"SoundDuration":258986,"Delta":31981525},{"NoteNumber":73,"Velocity":60,"Duration":271777,"SoundDuration":271777,"Delta":31981525},{"NoteNumber":75,"Velocity":40,"Duration":265128,"SoundDuration":265128,"Delta":32254466},{"NoteNumber":78,"Velocity":40,"Duration":265128,"SoundDuration":265128,"Delta":32254466},{"NoteNumber":84,"Velocity":48,"Duration":265128,"SoundDuration":265128,"Delta":32254466},{"NoteNumber":72,"Velocity":54,"Duration":279082,"SoundDuration":279082,"Delta":32254466},{"NoteNumber":75,"Velocity":40,"Duration":283595,"SoundDuration":283595,"Delta":32533549},{"NoteNumber":78,"Velocity":40,"Duration":283595,"SoundDuration":283595,"Delta":32533549},{"NoteNumber":82,"Velocity":48,"Duration":283595,"SoundDuration":283595,"Delta":32533549},{"NoteNumber":70,"Velocity":54,"Duration":298521,"SoundDuration":298521,"Delta":32533549},{"NoteNumber":73,"Velocity":60,"Duration":1654367,"SoundDuration":1654367,"Delta":32832071},{"NoteNumber":77,"Velocity":41,"Duration":250891,"SoundDuration":250891,"Delta":33106131},{"NoteNumber":80,"Velocity":41,"Duration":250891,"SoundDuration":250891,"Delta":33106131},{"NoteNumber":85,"Velocity":48,"Duration":250891,"SoundDuration":250891,"Delta":33106131},{"NoteNumber":77,"Velocity":36,"Duration":250891,"SoundDuration":250891,"Delta":33370227},{"NoteNumber":80,"Velocity":36,"Duration":250891,"SoundDuration":250891,"Delta":33370227},{"NoteNumber":85,"Velocity":44,"Duration":250891,"SoundDuration":250891,"Delta":33370227},{"NoteNumber":77,"Velocity":33,"Duration":253976,"SoundDuration":253976,"Delta":33634323},{"NoteNumber":80,"Velocity":33,"Duration":253976,"SoundDuration":253976,"Delta":33634323},{"NoteNumber":85,"Velocity":39,"Duration":253976,"SoundDuration":253976,"Delta":33634323},{"NoteNumber":77,"Velocity":29,"Duration":253976,"SoundDuration":253976,"Delta":33901667},{"NoteNumber":80,"Velocity":29,"Duration":253976,"SoundDuration":253976,"Delta":33901667},{"NoteNumber":85,"Velocity":34,"Duration":253976,"SoundDuration":253976,"Delta":33901667},{"NoteNumber":77,"Velocity":26,"Duration":301555,"SoundDuration":301555,"Delta":34169011},{"NoteNumber":80,"Velocity":26,"Duration":301555,"SoundDuration":301555,"Delta":34169011},{"NoteNumber":85,"Velocity":31,"Duration":301555,"SoundDuration":301555,"Delta":34169011},{"NoteNumber":73,"Velocity":35,"Duration":1188263,"SoundDuration":1188263,"Delta":34486438},{"NoteNumber":78,"Velocity":15,"Duration":247879,"SoundDuration":247879,"Delta":34761667},{"NoteNumber":85,"Velocity":22,"Duration":247879,"SoundDuration":247879,"Delta":34761667},{"NoteNumber":82,"Velocity":15,"Duration":247879,"SoundDuration":247879,"Delta":34761667},{"NoteNumber":78,"Velocity":15,"Duration":247879,"SoundDuration":247879,"Delta":35022593},{"NoteNumber":85,"Velocity":22,"Duration":247879,"SoundDuration":247879,"Delta":35022593},{"NoteNumber":82,"Velocity":15,"Duration":247879,"SoundDuration":247879,"Delta":35022593},{"NoteNumber":78,"Velocity":16,"Duration":244950,"SoundDuration":244950,"Delta":35283519},{"NoteNumber":85,"Velocity":24,"Duration":244950,"SoundDuration":244950,"Delta":35283519},{"NoteNumber":82,"Velocity":16,"Duration":244950,"SoundDuration":244950,"Delta":35283519},{"NoteNumber":78,"Velocity":14,"Duration":253345,"SoundDuration":253345,"Delta":35541362},{"NoteNumber":85,"Velocity":21,"Duration":253345,"SoundDuration":253345,"Delta":35541362},{"NoteNumber":82,"Velocity":14,"Duration":253345,"SoundDuration":253345,"Delta":35541362},{"NoteNumber":75,"Velocity":34,"Duration":437152,"SoundDuration":437152,"Delta":35674701},{"NoteNumber":78,"Velocity":14,"Duration":288622,"SoundDuration":288622,"Delta":35808041},{"NoteNumber":87,"Velocity":21,"Duration":288622,"SoundDuration":288622,"Delta":35808041},{"NoteNumber":82,"Velocity":14,"Duration":288622,"SoundDuration":288622,"Delta":35808041},{"NoteNumber":75,"Velocity":38,"Duration":773562,"SoundDuration":773562,"Delta":36111854},{"NoteNumber":78,"Velocity":16,"Duration":243039,"SoundDuration":243039,"Delta":36370720},{"NoteNumber":82,"Velocity":16,"Duration":243039,"SoundDuration":243039,"Delta":36370720},{"NoteNumber":87,"Velocity":24,"Duration":243039,"SoundDuration":243039,"Delta":36370720},{"NoteNumber":78,"Velocity":16,"Duration":245922,"SoundDuration":245922,"Delta":36626551},{"NoteNumber":82,"Velocity":16,"Duration":245922,"SoundDuration":245922,"Delta":36626551},{"NoteNumber":87,"Velocity":24,"Duration":245922,"SoundDuration":245922,"Delta":36626551},{"NoteNumber":73,"Velocity":35,"Duration":383746,"SoundDuration":383746,"Delta":36885417},{"NoteNumber":78,"Velocity":16,"Duration":243039,"SoundDuration":243039,"Delta":37141248},{"NoteNumber":82,"Velocity":16,"Duration":243039,"SoundDuration":243039,"Delta":37141248},{"NoteNumber":85,"Velocity":26,"Duration":243039,"SoundDuration":243039,"Delta":37141248},{"NoteNumber":70,"Velocity":33,"Duration":394156,"SoundDuration":394156,"Delta":37269163},{"NoteNumber":73,"Velocity":16,"Duration":252928,"SoundDuration":252928,"Delta":37397079},{"NoteNumber":82,"Velocity":26,"Duration":252928,"SoundDuration":252928,"Delta":37397079},{"NoteNumber":78,"Velocity":16,"Duration":252928,"SoundDuration":252928,"Delta":37397079},{"NoteNumber":66,"Velocity":37,"Duration":771517,"SoundDuration":771517,"Delta":37663320},{"NoteNumber":71,"Velocity":19,"Duration":243039,"SoundDuration":243039,"Delta":37921163},{"NoteNumber":75,"Velocity":19,"Duration":243039,"SoundDuration":243039,"Delta":37921163},{"NoteNumber":78,"Velocity":28,"Duration":243039,"SoundDuration":243039,"Delta":37921163},{"NoteNumber":71,"Velocity":19,"Duration":244950,"SoundDuration":244950,"Delta":38176994},{"NoteNumber":75,"Velocity":19,"Duration":244950,"SoundDuration":244950,"Delta":38176994},{"NoteNumber":78,"Velocity":28,"Duration":244950,"SoundDuration":244950,"Delta":38176994},{"NoteNumber":68,"Velocity":35,"Duration":772539,"SoundDuration":772539,"Delta":38434837},{"NoteNumber":71,"Velocity":18,"Duration":243039,"SoundDuration":243039,"Delta":38692680},{"NoteNumber":75,"Velocity":18,"Duration":243039,"SoundDuration":243039,"Delta":38692680},{"NoteNumber":80,"Velocity":28,"Duration":243039,"SoundDuration":243039,"Delta":38692680},{"NoteNumber":71,"Velocity":18,"Duration":245922,"SoundDuration":245922,"Delta":38948511},{"NoteNumber":75,"Velocity":18,"Duration":245922,"SoundDuration":245922,"Delta":38948511},{"NoteNumber":80,"Velocity":27,"Duration":245922,"SoundDuration":245922,"Delta":38948511},{"NoteNumber":70,"Velocity":38,"Duration":1546602,"SoundDuration":1546602,"Delta":39207377},{"NoteNumber":73,"Velocity":16,"Duration":243985,"SoundDuration":243985,"Delta":39463208},{"NoteNumber":78,"Velocity":16,"Duration":243985,"SoundDuration":243985,"Delta":39463208},{"NoteNumber":82,"Velocity":24,"Duration":243985,"SoundDuration":243985,"Delta":39463208},{"NoteNumber":73,"Velocity":16,"Duration":243985,"SoundDuration":243985,"Delta":39720035},{"NoteNumber":78,"Velocity":16,"Duration":243985,"SoundDuration":243985,"Delta":39720035},{"NoteNumber":82,"Velocity":24,"Duration":243985,"SoundDuration":243985,"Delta":39720035},{"NoteNumber":73,"Velocity":18,"Duration":240212,"SoundDuration":240212,"Delta":39976862},{"NoteNumber":78,"Velocity":18,"Duration":240212,"SoundDuration":240212,"Delta":39976862},{"NoteNumber":82,"Velocity":27,"Duration":240212,"SoundDuration":240212,"Delta":39976862},{"NoteNumber":73,"Velocity":16,"Duration":243039,"SoundDuration":243039,"Delta":40229717},{"NoteNumber":78,"Velocity":16,"Duration":243039,"SoundDuration":243039,"Delta":40229717},{"NoteNumber":82,"Velocity":24,"Duration":243039,"SoundDuration":243039,"Delta":40229717},{"NoteNumber":73,"Velocity":16,"Duration":255010,"SoundDuration":255010,"Delta":40485548},{"NoteNumber":78,"Velocity":16,"Duration":255010,"SoundDuration":255010,"Delta":40485548},{"NoteNumber":82,"Velocity":24,"Duration":255010,"SoundDuration":255010,"Delta":40485548},{"NoteNumber":73,"Velocity":39,"Duration":796056,"SoundDuration":796056,"Delta":40753980},{"NoteNumber":78,"Velocity":20,"Duration":243039,"SoundDuration":243039,"Delta":41012846},{"NoteNumber":85,"Velocity":30,"Duration":243039,"SoundDuration":243039,"Delta":41012846},{"NoteNumber":82,"Velocity":20,"Duration":243039,"SoundDuration":243039,"Delta":41012846},{"NoteNumber":78,"Velocity":20,"Duration":267291,"SoundDuration":267291,"Delta":41268677},{"NoteNumber":82,"Velocity":20,"Duration":267291,"SoundDuration":267291,"Delta":41268677},{"NoteNumber":85,"Velocity":30,"Duration":267291,"SoundDuration":267291,"Delta":41268677},{"NoteNumber":78,"Velocity":23,"Duration":243985,"SoundDuration":243985,"Delta":41550037},{"NoteNumber":82,"Velocity":23,"Duration":243985,"SoundDuration":243985,"Delta":41550037},{"NoteNumber":89,"Velocity":34,"Duration":243985,"SoundDuration":243985,"Delta":41550037},{"NoteNumber":77,"Velocity":41,"Duration":256827,"SoundDuration":256827,"Delta":41550037},{"NoteNumber":87,"Velocity":32,"Duration":243985,"SoundDuration":243985,"Delta":41806864},{"NoteNumber":82,"Velocity":21,"Duration":243985,"SoundDuration":243985,"Delta":41806864},{"NoteNumber":78,"Velocity":21,"Duration":243985,"SoundDuration":243985,"Delta":41806864},{"NoteNumber":75,"Velocity":39,"Duration":256827,"SoundDuration":256827,"Delta":41806864},{"NoteNumber":78,"Velocity":21,"Duration":249890,"SoundDuration":249890,"Delta":42063691},{"NoteNumber":82,"Velocity":21,"Duration":249890,"SoundDuration":249890,"Delta":42063691},{"NoteNumber":85,"Velocity":32,"Duration":249890,"SoundDuration":249890,"Delta":42063691},{"NoteNumber":73,"Velocity":39,"Duration":263043,"SoundDuration":263043,"Delta":42063691},{"NoteNumber":75,"Velocity":44,"Duration":386281,"SoundDuration":386281,"Delta":42326734},{"NoteNumber":78,"Velocity":23,"Duration":242089,"SoundDuration":242089,"Delta":42585600},{"NoteNumber":87,"Velocity":35,"Duration":242089,"SoundDuration":242089,"Delta":42585600},{"NoteNumber":82,"Velocity":23,"Duration":242089,"SoundDuration":242089,"Delta":42585600},{"NoteNumber":73,"Velocity":42,"Duration":388341,"SoundDuration":388341,"Delta":42713015},{"NoteNumber":78,"Velocity":21,"Duration":247879,"SoundDuration":247879,"Delta":42840431},{"NoteNumber":82,"Velocity":21,"Duration":247879,"SoundDuration":247879,"Delta":42840431},{"NoteNumber":85,"Velocity":33,"Duration":247879,"SoundDuration":247879,"Delta":42840431},{"NoteNumber":70,"Velocity":41,"Duration":389852,"SoundDuration":389852,"Delta":43101357},{"NoteNumber":73,"Velocity":23,"Duration":248875,"SoundDuration":248875,"Delta":43360223},{"NoteNumber":82,"Velocity":34,"Duration":248875,"SoundDuration":248875,"Delta":43360223},{"NoteNumber":78,"Velocity":23,"Duration":248875,"SoundDuration":248875,"Delta":43360223},{"NoteNumber":66,"Velocity":39,"Duration":392960,"SoundDuration":392960,"Delta":43491210},{"NoteNumber":70,"Velocity":21,"Duration":248875,"SoundDuration":248875,"Delta":43622197},{"NoteNumber":73,"Velocity":21,"Duration":248875,"SoundDuration":248875,"Delta":43622197},{"NoteNumber":78,"Velocity":32,"Duration":248875,"SoundDuration":248875,"Delta":43622197},{"NoteNumber":66,"Velocity":42,"Duration":786365,"SoundDuration":786365,"Delta":43884171},{"NoteNumber":71,"Velocity":20,"Duration":244950,"SoundDuration":244950,"Delta":44146145},{"NoteNumber":75,"Velocity":20,"Duration":244950,"SoundDuration":244950,"Delta":44146145},{"NoteNumber":78,"Velocity":30,"Duration":244950,"SoundDuration":244950,"Delta":44146145},{"NoteNumber":71,"Velocity":20,"Duration":253220,"SoundDuration":253220,"Delta":44403988},{"NoteNumber":75,"Velocity":20,"Duration":253220,"SoundDuration":253220,"Delta":44403988},{"NoteNumber":78,"Velocity":30,"Duration":253220,"SoundDuration":253220,"Delta":44403988},{"NoteNumber":71,"Velocity":23,"Duration":244950,"SoundDuration":244950,"Delta":44670536},{"NoteNumber":75,"Velocity":23,"Duration":244950,"SoundDuration":244950,"Delta":44670536},{"NoteNumber":82,"Velocity":35,"Duration":244950,"SoundDuration":244950,"Delta":44670536},{"NoteNumber":70,"Velocity":42,"Duration":257843,"SoundDuration":257843,"Delta":44670536},{"NoteNumber":71,"Velocity":20,"Duration":244950,"SoundDuration":244950,"Delta":44928379},{"NoteNumber":75,"Velocity":20,"Duration":244950,"SoundDuration":244950,"Delta":44928379},{"NoteNumber":80,"Velocity":31,"Duration":244950,"SoundDuration":244950,"Delta":44928379},{"NoteNumber":68,"Velocity":37,"Duration":257843,"SoundDuration":257843,"Delta":44928379},{"NoteNumber":71,"Velocity":20,"Duration":250891,"SoundDuration":250891,"Delta":45186222},{"NoteNumber":75,"Velocity":20,"Duration":250891,"SoundDuration":250891,"Delta":45186222},{"NoteNumber":78,"Velocity":31,"Duration":250891,"SoundDuration":250891,"Delta":45186222},{"NoteNumber":66,"Velocity":37,"Duration":264096,"SoundDuration":264096,"Delta":45186222},{"NoteNumber":70,"Velocity":42,"Duration":1291374,"SoundDuration":1291374,"Delta":45450318},{"NoteNumber":73,"Velocity":20,"Duration":247879,"SoundDuration":247879,"Delta":45711244},{"NoteNumber":78,"Velocity":20,"Duration":247879,"SoundDuration":247879,"Delta":45711244},{"NoteNumber":82,"Velocity":30,"Duration":247879,"SoundDuration":247879,"Delta":45711244},{"NoteNumber":73,"Velocity":20,"Duration":245922,"SoundDuration":245922,"Delta":45972170},{"NoteNumber":78,"Velocity":20,"Duration":245922,"SoundDuration":245922,"Delta":45972170},{"NoteNumber":82,"Velocity":30,"Duration":245922,"SoundDuration":245922,"Delta":45972170},{"NoteNumber":73,"Velocity":21,"Duration":241137,"SoundDuration":241137,"Delta":46231036},{"NoteNumber":78,"Velocity":21,"Duration":241137,"SoundDuration":241137,"Delta":46231036},{"NoteNumber":82,"Velocity":33,"Duration":241137,"SoundDuration":241137,"Delta":46231036},{"NoteNumber":73,"Velocity":20,"Duration":243985,"SoundDuration":243985,"Delta":46484865},{"NoteNumber":78,"Velocity":20,"Duration":243985,"SoundDuration":243985,"Delta":46484865},{"NoteNumber":82,"Velocity":30,"Duration":243985,"SoundDuration":243985,"Delta":46484865},{"NoteNumber":73,"Velocity":20,"Duration":280760,"SoundDuration":280760,"Delta":46741692},{"NoteNumber":78,"Velocity":20,"Duration":280760,"SoundDuration":280760,"Delta":46741692},{"NoteNumber":82,"Velocity":30,"Duration":280760,"SoundDuration":280760,"Delta":46741692},{"NoteNumber":70,"Velocity":42,"Duration":1164035,"SoundDuration":1164035,"Delta":47037229},{"NoteNumber":74,"Velocity":27,"Duration":247879,"SoundDuration":247879,"Delta":47298155},{"NoteNumber":78,"Velocity":27,"Duration":247879,"SoundDuration":247879,"Delta":47298155},{"NoteNumber":82,"Velocity":32,"Duration":247879,"SoundDuration":247879,"Delta":47298155},{"NoteNumber":74,"Velocity":27,"Duration":240212,"SoundDuration":240212,"Delta":47559081},{"NoteNumber":78,"Velocity":27,"Duration":240212,"SoundDuration":240212,"Delta":47559081},{"NoteNumber":82,"Velocity":32,"Duration":240212,"SoundDuration":240212,"Delta":47559081},{"NoteNumber":54,"Velocity":30,"Duration":259895,"SoundDuration":259895,"Delta":47811936},{"NoteNumber":62,"Velocity":37,"Duration":259895,"SoundDuration":259895,"Delta":47811936},{"NoteNumber":74,"Velocity":30,"Duration":245922,"SoundDuration":245922,"Delta":48071832},{"NoteNumber":78,"Velocity":30,"Duration":245922,"SoundDuration":245922,"Delta":48071832},{"NoteNumber":82,"Velocity":36,"Duration":245922,"SoundDuration":245922,"Delta":48071832},{"NoteNumber":70,"Velocity":49,"Duration":410793,"SoundDuration":410793,"Delta":48201265},{"NoteNumber":74,"Velocity":33,"Duration":267291,"SoundDuration":267291,"Delta":48330698},{"NoteNumber":78,"Velocity":33,"Duration":267291,"SoundDuration":267291,"Delta":48330698},{"NoteNumber":82,"Velocity":39,"Duration":267291,"SoundDuration":267291,"Delta":48330698},{"NoteNumber":70,"Velocity":52,"Duration":784961,"SoundDuration":784961,"Delta":48612058},{"NoteNumber":75,"Velocity":32,"Duration":245922,"SoundDuration":245922,"Delta":48872984},{"NoteNumber":78,"Velocity":32,"Duration":245922,"SoundDuration":245922,"Delta":48872984},{"NoteNumber":82,"Velocity":38,"Duration":245922,"SoundDuration":245922,"Delta":48872984},{"NoteNumber":75,"Velocity":32,"Duration":251911,"SoundDuration":251911,"Delta":49131850},{"NoteNumber":78,"Velocity":32,"Duration":251911,"SoundDuration":251911,"Delta":49131850},{"NoteNumber":82,"Velocity":38,"Duration":251911,"SoundDuration":251911,"Delta":49131850},{"NoteNumber":63,"Velocity":48,"Duration":785009,"SoundDuration":785009,"Delta":49397020},{"NoteNumber":66,"Velocity":27,"Duration":244950,"SoundDuration":244950,"Delta":49657946},{"NoteNumber":70,"Velocity":27,"Duration":244950,"SoundDuration":244950,"Delta":49657946},{"NoteNumber":75,"Velocity":33,"Duration":244950,"SoundDuration":244950,"Delta":49657946},{"NoteNumber":66,"Velocity":27,"Duration":252928,"SoundDuration":252928,"Delta":49915789},{"NoteNumber":70,"Velocity":27,"Duration":252928,"SoundDuration":252928,"Delta":49915789},{"NoteNumber":75,"Velocity":33,"Duration":252928,"SoundDuration":252928,"Delta":49915789},{"NoteNumber":70,"Velocity":42,"Duration":1034602,"SoundDuration":1034602,"Delta":50182030},{"NoteNumber":74,"Velocity":27,"Duration":247879,"SoundDuration":247879,"Delta":50442956},{"NoteNumber":78,"Velocity":27,"Duration":247879,"SoundDuration":247879,"Delta":50442956},{"NoteNumber":82,"Velocity":32,"Duration":247879,"SoundDuration":247879,"Delta":50442956},{"NoteNumber":74,"Velocity":27,"Duration":240212,"SoundDuration":240212,"Delta":50703882},{"NoteNumber":78,"Velocity":27,"Duration":240212,"SoundDuration":240212,"Delta":50703882},{"NoteNumber":82,"Velocity":32,"Duration":240212,"SoundDuration":240212,"Delta":50703882},{"NoteNumber":54,"Velocity":30,"Duration":259895,"SoundDuration":259895,"Delta":50956737},{"NoteNumber":62,"Velocity":37,"Duration":259895,"SoundDuration":259895,"Delta":50956737},{"NoteNumber":74,"Velocity":30,"Duration":245922,"SoundDuration":245922,"Delta":51216633},{"NoteNumber":78,"Velocity":30,"Duration":245922,"SoundDuration":245922,"Delta":51216633},{"NoteNumber":83,"Velocity":36,"Duration":245922,"SoundDuration":245922,"Delta":51216633},{"NoteNumber":71,"Velocity":49,"Duration":258865,"SoundDuration":258865,"Delta":51216633},{"NoteNumber":74,"Velocity":33,"Duration":251911,"SoundDuration":251911,"Delta":51475499},{"NoteNumber":78,"Velocity":33,"Duration":251911,"SoundDuration":251911,"Delta":51475499},{"NoteNumber":85,"Velocity":39,"Duration":251911,"SoundDuration":251911,"Delta":51475499},{"NoteNumber":73,"Velocity":49,"Duration":265169,"SoundDuration":265169,"Delta":51475499},{"NoteNumber":70,"Velocity":52,"Duration":1590089,"SoundDuration":1590089,"Delta":51740669},{"NoteNumber":75,"Velocity":35,"Duration":243039,"SoundDuration":243039,"Delta":52001595},{"NoteNumber":78,"Velocity":35,"Duration":243039,"SoundDuration":243039,"Delta":52001595},{"NoteNumber":82,"Velocity":42,"Duration":243039,"SoundDuration":243039,"Delta":52001595},{"NoteNumber":75,"Velocity":36,"Duration":251911,"SoundDuration":251911,"Delta":52257426},{"NoteNumber":78,"Velocity":36,"Duration":251911,"SoundDuration":251911,"Delta":52257426},{"NoteNumber":82,"Velocity":43,"Duration":251911,"SoundDuration":251911,"Delta":52257426},{"NoteNumber":75,"Velocity":37,"Duration":247879,"SoundDuration":247879,"Delta":52522596},{"NoteNumber":78,"Velocity":37,"Duration":247879,"SoundDuration":247879,"Delta":52522596},{"NoteNumber":82,"Velocity":45,"Duration":247879,"SoundDuration":247879,"Delta":52522596},{"NoteNumber":75,"Velocity":39,"Duration":244950,"SoundDuration":244950,"Delta":52783522},{"NoteNumber":78,"Velocity":39,"Duration":244950,"SoundDuration":244950,"Delta":52783522},{"NoteNumber":82,"Velocity":46,"Duration":244950,"SoundDuration":244950,"Delta":52783522},{"NoteNumber":75,"Velocity":40,"Duration":274924,"SoundDuration":274924,"Delta":53041365},{"NoteNumber":78,"Velocity":40,"Duration":274924,"SoundDuration":274924,"Delta":53041365},{"NoteNumber":82,"Velocity":48,"Duration":274924,"SoundDuration":274924,"Delta":53041365},{"NoteNumber":70,"Velocity":54,"Duration":1213892,"SoundDuration":1213892,"Delta":53330759},{"NoteNumber":74,"Velocity":33,"Duration":255010,"SoundDuration":255010,"Delta":53599191},{"NoteNumber":78,"Velocity":33,"Duration":255010,"SoundDuration":255010,"Delta":53599191},{"NoteNumber":82,"Velocity":40,"Duration":255010,"SoundDuration":255010,"Delta":53599191},{"NoteNumber":74,"Velocity":33,"Duration":249890,"SoundDuration":249890,"Delta":53867623},{"NoteNumber":78,"Velocity":33,"Duration":249890,"SoundDuration":249890,"Delta":53867623},{"NoteNumber":82,"Velocity":40,"Duration":249890,"SoundDuration":249890,"Delta":53867623},{"NoteNumber":74,"Velocity":33,"Duration":261479,"SoundDuration":261479,"Delta":54130666},{"NoteNumber":78,"Velocity":33,"Duration":261479,"SoundDuration":261479,"Delta":54130666},{"NoteNumber":82,"Velocity":40,"Duration":261479,"SoundDuration":261479,"Delta":54130666},{"NoteNumber":74,"Velocity":34,"Duration":264623,"SoundDuration":264623,"Delta":54405908},{"NoteNumber":78,"Velocity":34,"Duration":264623,"SoundDuration":264623,"Delta":54405908},{"NoteNumber":82,"Velocity":41,"Duration":264623,"SoundDuration":264623,"Delta":54405908},{"NoteNumber":69,"Velocity":48,"Duration":431029,"SoundDuration":431029,"Delta":54544651},{"NoteNumber":74,"Velocity":34,"Duration":276604,"SoundDuration":276604,"Delta":54684518},{"NoteNumber":78,"Velocity":34,"Duration":276604,"SoundDuration":276604,"Delta":54684518},{"NoteNumber":81,"Velocity":41,"Duration":276604,"SoundDuration":276604,"Delta":54684518},{"NoteNumber":69,"Velocity":45,"Duration":784987,"SoundDuration":784987,"Delta":54975681},{"NoteNumber":73,"Velocity":33,"Duration":244950,"SoundDuration":244950,"Delta":55237655},{"NoteNumber":77,"Velocity":33,"Duration":244950,"SoundDuration":244950,"Delta":55237655},{"NoteNumber":81,"Velocity":39,"Duration":244950,"SoundDuration":244950,"Delta":55237655},{"NoteNumber":73,"Velocity":32,"Duration":251911,"SoundDuration":251911,"Delta":55495498},{"NoteNumber":77,"Velocity":32,"Duration":251911,"SoundDuration":251911,"Delta":55495498},{"NoteNumber":81,"Velocity":38,"Duration":251911,"SoundDuration":251911,"Delta":55495498},{"NoteNumber":68,"Velocity":44,"Duration":790285,"SoundDuration":790285,"Delta":55760668},{"NoteNumber":73,"Velocity":31,"Duration":246903,"SoundDuration":246903,"Delta":56023711},{"NoteNumber":77,"Velocity":31,"Duration":246903,"SoundDuration":246903,"Delta":56023711},{"NoteNumber":80,"Velocity":37,"Duration":246903,"SoundDuration":246903,"Delta":56023711},{"NoteNumber":73,"Velocity":31,"Duration":253976,"SoundDuration":253976,"Delta":56283609},{"NoteNumber":77,"Velocity":31,"Duration":253976,"SoundDuration":253976,"Delta":56283609},{"NoteNumber":80,"Velocity":37,"Duration":253976,"SoundDuration":253976,"Delta":56283609},{"NoteNumber":68,"Velocity":48,"Duration":779706,"SoundDuration":779706,"Delta":56550953},{"NoteNumber":72,"Velocity":33,"Duration":245922,"SoundDuration":245922,"Delta":56812927},{"NoteNumber":76,"Velocity":33,"Duration":245922,"SoundDuration":245922,"Delta":56812927},{"NoteNumber":80,"Velocity":39,"Duration":245922,"SoundDuration":245922,"Delta":56812927},{"NoteNumber":72,"Velocity":33,"Duration":245922,"SoundDuration":245922,"Delta":57071793},{"NoteNumber":76,"Velocity":33,"Duration":245922,"SoundDuration":245922,"Delta":57071793},{"NoteNumber":80,"Velocity":39,"Duration":245922,"SoundDuration":245922,"Delta":57071793},{"NoteNumber":70,"Velocity":51,"Duration":384816,"SoundDuration":384816,"Delta":57330659},{"NoteNumber":72,"Velocity":33,"Duration":129895,"SoundDuration":129895,"Delta":57584488},{"NoteNumber":76,"Velocity":33,"Duration":248875,"SoundDuration":248875,"Delta":57584488},{"NoteNumber":82,"Velocity":39,"Duration":248875,"SoundDuration":248875,"Delta":57584488},{"NoteNumber":72,"Velocity":50,"Duration":399419,"SoundDuration":399419,"Delta":57715475},{"NoteNumber":76,"Velocity":34,"Duration":255010,"SoundDuration":255010,"Delta":57846462},{"NoteNumber":84,"Velocity":41,"Duration":255010,"SoundDuration":255010,"Delta":57846462},{"NoteNumber":68,"Velocity":57,"Duration":807690,"SoundDuration":807690,"Delta":58114894},{"NoteNumber":73,"Velocity":34,"Duration":246903,"SoundDuration":246903,"Delta":58374792},{"NoteNumber":77,"Velocity":34,"Duration":246903,"SoundDuration":246903,"Delta":58374792},{"NoteNumber":80,"Velocity":41,"Duration":246903,"SoundDuration":246903,"Delta":58374792},{"NoteNumber":73,"Velocity":34,"Duration":273499,"SoundDuration":273499,"Delta":58634690},{"NoteNumber":77,"Velocity":34,"Duration":273499,"SoundDuration":273499,"Delta":58634690},{"NoteNumber":80,"Velocity":41,"Duration":273499,"SoundDuration":273499,"Delta":58634690},{"NoteNumber":89,"Velocity":53,"Duration":252928,"SoundDuration":252928,"Delta":58922584},{"NoteNumber":77,"Velocity":58,"Duration":265131,"SoundDuration":265131,"Delta":58922584},{"NoteNumber":77,"Velocity":39,"Duration":250891,"SoundDuration":250891,"Delta":59188825},{"NoteNumber":80,"Velocity":39,"Duration":250891,"SoundDuration":250891,"Delta":59188825},{"NoteNumber":85,"Velocity":47,"Duration":250891,"SoundDuration":250891,"Delta":59188825},{"NoteNumber":73,"Velocity":56,"Duration":264096,"SoundDuration":264096,"Delta":59188825},{"NoteNumber":77,"Velocity":39,"Duration":283019,"SoundDuration":283019,"Delta":59452921},{"NoteNumber":80,"Velocity":39,"Duration":283019,"SoundDuration":283019,"Delta":59452921},{"NoteNumber":84,"Velocity":47,"Duration":283019,"SoundDuration":283019,"Delta":59452921},{"NoteNumber":72,"Velocity":56,"Duration":297915,"SoundDuration":297915,"Delta":59452921},{"NoteNumber":71,"Velocity":57,"Duration":1039605,"SoundDuration":1039605,"Delta":59750836},{"NoteNumber":73,"Velocity":38,"Duration":247879,"SoundDuration":247879,"Delta":60011762},{"NoteNumber":77,"Velocity":38,"Duration":247879,"SoundDuration":247879,"Delta":60011762},{"NoteNumber":83,"Velocity":45,"Duration":247879,"SoundDuration":247879,"Delta":60011762},{"NoteNumber":73,"Velocity":38,"Duration":247879,"SoundDuration":247879,"Delta":60272688},{"NoteNumber":77,"Velocity":38,"Duration":247879,"SoundDuration":247879,"Delta":60272688},{"NoteNumber":83,"Velocity":45,"Duration":247879,"SoundDuration":247879,"Delta":60272688},{"NoteNumber":73,"Velocity":39,"Duration":243985,"SoundDuration":243985,"Delta":60533614},{"NoteNumber":77,"Velocity":39,"Duration":243985,"SoundDuration":243985,"Delta":60533614},{"NoteNumber":83,"Velocity":47,"Duration":243985,"SoundDuration":243985,"Delta":60533614},{"NoteNumber":73,"Velocity":37,"Duration":247879,"SoundDuration":247879,"Delta":60790441},{"NoteNumber":77,"Velocity":37,"Duration":247879,"SoundDuration":247879,"Delta":60790441},{"NoteNumber":82,"Velocity":44,"Duration":247879,"SoundDuration":247879,"Delta":60790441},{"NoteNumber":70,"Velocity":53,"Duration":260925,"SoundDuration":260925,"Delta":60790441},{"NoteNumber":73,"Velocity":37,"Duration":259279,"SoundDuration":259279,"Delta":61051367},{"NoteNumber":77,"Velocity":37,"Duration":259279,"SoundDuration":259279,"Delta":61051367},{"NoteNumber":81,"Velocity":44,"Duration":259279,"SoundDuration":259279,"Delta":61051367},{"NoteNumber":69,"Velocity":53,"Duration":272925,"SoundDuration":272925,"Delta":61051367},{"NoteNumber":69,"Velocity":55,"Duration":779694,"SoundDuration":779694,"Delta":61324293},{"NoteNumber":73,"Velocity":37,"Duration":244950,"SoundDuration":244950,"Delta":61585219},{"NoteNumber":77,"Velocity":37,"Duration":244950,"SoundDuration":244950,"Delta":61585219},{"NoteNumber":81,"Velocity":44,"Duration":244950,"SoundDuration":244950,"Delta":61585219},{"NoteNumber":73,"Velocity":37,"Duration":247879,"SoundDuration":247879,"Delta":61843062},{"NoteNumber":77,"Velocity":37,"Duration":247879,"SoundDuration":247879,"Delta":61843062},{"NoteNumber":81,"Velocity":44,"Duration":247879,"SoundDuration":247879,"Delta":61843062},{"NoteNumber":68,"Velocity":56,"Duration":516725,"SoundDuration":516725,"Delta":62103988},{"NoteNumber":73,"Velocity":37,"Duration":243985,"SoundDuration":243985,"Delta":62363886},{"NoteNumber":77,"Velocity":37,"Duration":243985,"SoundDuration":243985,"Delta":62363886},{"NoteNumber":80,"Velocity":44,"Duration":243985,"SoundDuration":243985,"Delta":62363886},{"NoteNumber":73,"Velocity":37,"Duration":250891,"SoundDuration":250891,"Delta":62620713},{"NoteNumber":77,"Velocity":37,"Duration":250891,"SoundDuration":250891,"Delta":62620713},{"NoteNumber":81,"Velocity":44,"Duration":250891,"SoundDuration":250891,"Delta":62620713},{"NoteNumber":69,"Velocity":58,"Duration":264096,"SoundDuration":264096,"Delta":62620713},{"NoteNumber":70,"Velocity":57,"Duration":798507,"SoundDuration":798507,"Delta":62884809},{"NoteNumber":75,"Velocity":37,"Duration":243985,"SoundDuration":243985,"Delta":63144707},{"NoteNumber":78,"Velocity":37,"Duration":243985,"SoundDuration":243985,"Delta":63144707},{"NoteNumber":82,"Velocity":44,"Duration":243985,"SoundDuration":243985,"Delta":63144707},{"NoteNumber":75,"Velocity":39,"Duration":267693,"SoundDuration":267693,"Delta":63401534},{"NoteNumber":78,"Velocity":39,"Duration":267693,"SoundDuration":267693,"Delta":63401534},{"NoteNumber":82,"Velocity":46,"Duration":267693,"SoundDuration":267693,"Delta":63401534},{"NoteNumber":78,"Velocity":44,"Duration":272121,"SoundDuration":272121,"Delta":63683317},{"NoteNumber":75,"Velocity":44,"Duration":272121,"SoundDuration":272121,"Delta":63683317},{"NoteNumber":85,"Velocity":52,"Duration":258514,"SoundDuration":258514,"Delta":63683317},{"NoteNumber":73,"Velocity":60,"Duration":270987,"SoundDuration":270987,"Delta":63683317},{"NoteNumber":75,"Velocity":40,"Duration":262934,"SoundDuration":262934,"Delta":63955438},{"NoteNumber":78,"Velocity":40,"Duration":262934,"SoundDuration":262934,"Delta":63955438},{"NoteNumber":84,"Velocity":48,"Duration":262934,"SoundDuration":262934,"Delta":63955438},{"NoteNumber":72,"Velocity":54,"Duration":276856,"SoundDuration":276856,"Delta":63955438},{"NoteNumber":75,"Velocity":40,"Duration":277385,"SoundDuration":277385,"Delta":64232294},{"NoteNumber":78,"Velocity":40,"Duration":277385,"SoundDuration":277385,"Delta":64232294},{"NoteNumber":82,"Velocity":48,"Duration":277385,"SoundDuration":277385,"Delta":64232294},{"NoteNumber":70,"Velocity":54,"Duration":291984,"SoundDuration":291984,"Delta":64232294},{"NoteNumber":73,"Velocity":60,"Duration":1627527,"SoundDuration":1627527,"Delta":64524279},{"NoteNumber":77,"Velocity":40,"Duration":250891,"SoundDuration":250891,"Delta":64798339},{"NoteNumber":80,"Velocity":40,"Duration":250891,"SoundDuration":250891,"Delta":64798339},{"NoteNumber":85,"Velocity":48,"Duration":250891,"SoundDuration":250891,"Delta":64798339},{"NoteNumber":77,"Velocity":36,"Duration":250891,"SoundDuration":250891,"Delta":65062435},{"NoteNumber":80,"Velocity":36,"Duration":250891,"SoundDuration":250891,"Delta":65062435},{"NoteNumber":85,"Velocity":44,"Duration":250891,"SoundDuration":250891,"Delta":65062435},{"NoteNumber":77,"Velocity":33,"Duration":253976,"SoundDuration":253976,"Delta":65326531},{"NoteNumber":80,"Velocity":33,"Duration":253976,"SoundDuration":253976,"Delta":65326531},{"NoteNumber":85,"Velocity":40,"Duration":253976,"SoundDuration":253976,"Delta":65326531},{"NoteNumber":77,"Velocity":30,"Duration":265017,"SoundDuration":265017,"Delta":65593875},{"NoteNumber":80,"Velocity":30,"Duration":265017,"SoundDuration":265017,"Delta":65593875},{"NoteNumber":85,"Velocity":36,"Duration":265017,"SoundDuration":265017,"Delta":65593875},{"NoteNumber":77,"Velocity":27,"Duration":209224,"SoundDuration":209224,"Delta":65872841},{"NoteNumber":80,"Velocity":27,"Duration":209224,"SoundDuration":209224,"Delta":65872841},{"NoteNumber":85,"Velocity":33,"Duration":209224,"SoundDuration":209224,"Delta":65872841},{"NoteNumber":37,"Velocity":35,"Duration":69741,"SoundDuration":69741,"Delta":66082066},{"NoteNumber":61,"Velocity":40,"Duration":1328029,"SoundDuration":1328029,"Delta":66151807},{"NoteNumber":49,"Velocity":37,"Duration":1328029,"SoundDuration":1328029,"Delta":66151807},{"NoteNumber":53,"Velocity":20,"Duration":261301,"SoundDuration":261301,"Delta":66442406},{"NoteNumber":56,"Velocity":20,"Duration":261301,"SoundDuration":261301,"Delta":66442406},{"NoteNumber":59,"Velocity":25,"Duration":261301,"SoundDuration":261301,"Delta":66442406},{"NoteNumber":53,"Velocity":20,"Duration":261301,"SoundDuration":261301,"Delta":66703707},{"NoteNumber":56,"Velocity":20,"Duration":261301,"SoundDuration":261301,"Delta":66703707},{"NoteNumber":59,"Velocity":25,"Duration":261301,"SoundDuration":261301,"Delta":66703707},{"NoteNumber":53,"Velocity":20,"Duration":254140,"SoundDuration":254140,"Delta":66965008},{"NoteNumber":56,"Velocity":20,"Duration":254140,"SoundDuration":254140,"Delta":66965008},{"NoteNumber":59,"Velocity":25,"Duration":254140,"SoundDuration":254140,"Delta":66965008},{"NoteNumber":53,"Velocity":20,"Duration":260688,"SoundDuration":260688,"Delta":67219148},{"NoteNumber":56,"Velocity":20,"Duration":260688,"SoundDuration":260688,"Delta":67219148},{"NoteNumber":59,"Velocity":25,"Duration":260688,"SoundDuration":260688,"Delta":67219148},{"NoteNumber":62,"Velocity":39,"Duration":330614,"SoundDuration":330614,"Delta":67479836},{"NoteNumber":50,"Velocity":37,"Duration":330614,"SoundDuration":330614,"Delta":67479836},{"NoteNumber":62,"Velocity":43,"Duration":782815,"SoundDuration":782815,"Delta":67810451},{"NoteNumber":50,"Velocity":44,"Duration":782815,"SoundDuration":782815,"Delta":67810451},{"NoteNumber":53,"Velocity":20,"Duration":258263,"SoundDuration":258263,"Delta":68076739},{"NoteNumber":56,"Velocity":20,"Duration":258263,"SoundDuration":258263,"Delta":68076739},{"NoteNumber":59,"Velocity":25,"Duration":258263,"SoundDuration":258263,"Delta":68076739},{"NoteNumber":53,"Velocity":20,"Duration":258263,"SoundDuration":258263,"Delta":68335003},{"NoteNumber":56,"Velocity":20,"Duration":258263,"SoundDuration":258263,"Delta":68335003},{"NoteNumber":59,"Velocity":25,"Duration":258263,"SoundDuration":258263,"Delta":68335003},{"NoteNumber":61,"Velocity":37,"Duration":793794,"SoundDuration":793794,"Delta":68593267},{"NoteNumber":49,"Velocity":37,"Duration":793794,"SoundDuration":793794,"Delta":68593267},{"NoteNumber":53,"Velocity":20,"Duration":260688,"SoundDuration":260688,"Delta":68847407},{"NoteNumber":56,"Velocity":20,"Duration":260688,"SoundDuration":260688,"Delta":68847407},{"NoteNumber":59,"Velocity":25,"Duration":260688,"SoundDuration":260688,"Delta":68847407},{"NoteNumber":53,"Velocity":20,"Duration":278965,"SoundDuration":278965,"Delta":69108095},{"NoteNumber":56,"Velocity":20,"Duration":278965,"SoundDuration":278965,"Delta":69108095},{"NoteNumber":59,"Velocity":25,"Duration":278965,"SoundDuration":278965,"Delta":69108095},{"NoteNumber":62,"Velocity":41,"Duration":780788,"SoundDuration":780788,"Delta":69387061},{"NoteNumber":50,"Velocity":37,"Duration":780788,"SoundDuration":780788,"Delta":69387061},{"NoteNumber":56,"Velocity":20,"Duration":255307,"SoundDuration":255307,"Delta":69657234},{"NoteNumber":59,"Velocity":25,"Duration":255307,"SoundDuration":255307,"Delta":69657234},{"NoteNumber":56,"Velocity":20,"Duration":255307,"SoundDuration":255307,"Delta":69912542},{"NoteNumber":59,"Velocity":25,"Duration":255307,"SoundDuration":255307,"Delta":69912542},{"NoteNumber":66,"Velocity":45,"Duration":251846,"SoundDuration":251846,"Delta":70167850},{"NoteNumber":54,"Velocity":43,"Duration":251846,"SoundDuration":251846,"Delta":70167850},{"NoteNumber":56,"Velocity":20,"Duration":256487,"SoundDuration":256487,"Delta":70419697},{"NoteNumber":59,"Velocity":25,"Duration":256487,"SoundDuration":256487,"Delta":70419697},{"NoteNumber":62,"Velocity":42,"Duration":256487,"SoundDuration":256487,"Delta":70419697},{"NoteNumber":50,"Velocity":39,"Duration":256487,"SoundDuration":256487,"Delta":70419697},{"NoteNumber":64,"Velocity":44,"Duration":261905,"SoundDuration":261905,"Delta":70676184},{"NoteNumber":52,"Velocity":41,"Duration":261905,"SoundDuration":261905,"Delta":70676184},{"NoteNumber":61,"Velocity":40,"Duration":1595061,"SoundDuration":1595061,"Delta":70938090},{"NoteNumber":49,"Velocity":39,"Duration":1595061,"SoundDuration":1595061,"Delta":70938090},{"NoteNumber":53,"Velocity":20,"Duration":265663,"SoundDuration":265663,"Delta":71199996},{"NoteNumber":56,"Velocity":20,"Duration":265663,"SoundDuration":265663,"Delta":71199996},{"NoteNumber":59,"Velocity":25,"Duration":265663,"SoundDuration":265663,"Delta":71199996},{"NoteNumber":53,"Velocity":20,"Duration":257080,"SoundDuration":257080,"Delta":71465659},{"NoteNumber":56,"Velocity":20,"Duration":257080,"SoundDuration":257080,"Delta":71465659},{"NoteNumber":59,"Velocity":25,"Duration":257080,"SoundDuration":257080,"Delta":71465659},{"NoteNumber":53,"Velocity":20,"Duration":252419,"SoundDuration":252419,"Delta":71722739},{"NoteNumber":56,"Velocity":20,"Duration":252419,"SoundDuration":252419,"Delta":71722739},{"NoteNumber":59,"Velocity":25,"Duration":252419,"SoundDuration":252419,"Delta":71722739},{"NoteNumber":53,"Velocity":20,"Duration":260077,"SoundDuration":260077,"Delta":71975158},{"NoteNumber":56,"Velocity":20,"Duration":260077,"SoundDuration":260077,"Delta":71975158},{"NoteNumber":59,"Velocity":25,"Duration":260077,"SoundDuration":260077,"Delta":71975158},{"NoteNumber":53,"Velocity":20,"Duration":223436,"SoundDuration":223436,"Delta":72235236},{"NoteNumber":56,"Velocity":20,"Duration":223436,"SoundDuration":223436,"Delta":72235236},{"NoteNumber":59,"Velocity":25,"Duration":223436,"SoundDuration":223436,"Delta":72235236},{"NoteNumber":41,"Velocity":40,"Duration":74478,"SoundDuration":74478,"Delta":72458673},{"NoteNumber":65,"Velocity":55,"Duration":1330898,"SoundDuration":1330898,"Delta":72533151},{"NoteNumber":53,"Velocity":51,"Duration":1330898,"SoundDuration":1330898,"Delta":72533151},{"NoteNumber":56,"Velocity":31,"Duration":258573,"SoundDuration":258573,"Delta":72806637},{"NoteNumber":59,"Velocity":31,"Duration":258573,"SoundDuration":258573,"Delta":72806637},{"NoteNumber":62,"Velocity":39,"Duration":258573,"SoundDuration":258573,"Delta":72806637},{"NoteNumber":56,"Velocity":31,"Duration":258865,"SoundDuration":258865,"Delta":73065211},{"NoteNumber":59,"Velocity":31,"Duration":258865,"SoundDuration":258865,"Delta":73065211},{"NoteNumber":62,"Velocity":39,"Duration":258865,"SoundDuration":258865,"Delta":73065211},{"NoteNumber":56,"Velocity":31,"Duration":255018,"SoundDuration":255018,"Delta":73324077},{"NoteNumber":59,"Velocity":31,"Duration":255018,"SoundDuration":255018,"Delta":73324077},{"NoteNumber":62,"Velocity":39,"Duration":255018,"SoundDuration":255018,"Delta":73324077},{"NoteNumber":56,"Velocity":31,"Duration":284953,"SoundDuration":284953,"Delta":73579095},{"NoteNumber":59,"Velocity":31,"Duration":284953,"SoundDuration":284953,"Delta":73579095},{"NoteNumber":62,"Velocity":39,"Duration":284953,"SoundDuration":284953,"Delta":73579095},{"NoteNumber":66,"Velocity":55,"Duration":268865,"SoundDuration":268865,"Delta":73864049},{"NoteNumber":54,"Velocity":53,"Duration":268865,"SoundDuration":268865,"Delta":73864049},{"NoteNumber":66,"Velocity":61,"Duration":787133,"SoundDuration":787133,"Delta":74132914},{"NoteNumber":54,"Velocity":62,"Duration":787133,"SoundDuration":787133,"Delta":74132914},{"NoteNumber":56,"Velocity":32,"Duration":256487,"SoundDuration":256487,"Delta":74407074},{"NoteNumber":59,"Velocity":32,"Duration":256487,"SoundDuration":256487,"Delta":74407074},{"NoteNumber":62,"Velocity":40,"Duration":256487,"SoundDuration":256487,"Delta":74407074},{"NoteNumber":56,"Velocity":32,"Duration":256486,"SoundDuration":256486,"Delta":74663561},{"NoteNumber":59,"Velocity":32,"Duration":256486,"SoundDuration":256486,"Delta":74663561},{"NoteNumber":62,"Velocity":41,"Duration":256486,"SoundDuration":256486,"Delta":74663561},{"NoteNumber":65,"Velocity":54,"Duration":778694,"SoundDuration":778694,"Delta":74920048},{"NoteNumber":53,"Velocity":54,"Duration":778694,"SoundDuration":778694,"Delta":74920048},{"NoteNumber":56,"Velocity":33,"Duration":261301,"SoundDuration":261301,"Delta":75173042},{"NoteNumber":59,"Velocity":33,"Duration":261301,"SoundDuration":261301,"Delta":75173042},{"NoteNumber":62,"Velocity":41,"Duration":261301,"SoundDuration":261301,"Delta":75173042},{"NoteNumber":56,"Velocity":33,"Duration":264398,"SoundDuration":264398,"Delta":75434343},{"NoteNumber":59,"Velocity":33,"Duration":264398,"SoundDuration":264398,"Delta":75434343},{"NoteNumber":62,"Velocity":41,"Duration":264398,"SoundDuration":264398,"Delta":75434343},{"NoteNumber":66,"Velocity":60,"Duration":796167,"SoundDuration":796167,"Delta":75698742},{"NoteNumber":54,"Velocity":54,"Duration":796167,"SoundDuration":796167,"Delta":75698742},{"NoteNumber":59,"Velocity":33,"Duration":252994,"SoundDuration":252994,"Delta":75961267},{"NoteNumber":62,"Velocity":42,"Duration":252994,"SoundDuration":252994,"Delta":75961267},{"NoteNumber":59,"Velocity":33,"Duration":280648,"SoundDuration":280648,"Delta":76214261},{"NoteNumber":62,"Velocity":42,"Duration":280648,"SoundDuration":280648,"Delta":76214261},{"NoteNumber":69,"Velocity":67,"Duration":256487,"SoundDuration":256487,"Delta":76494910},{"NoteNumber":57,"Velocity":64,"Duration":256487,"SoundDuration":256487,"Delta":76494910},{"NoteNumber":59,"Velocity":34,"Duration":260079,"SoundDuration":260079,"Delta":76751397},{"NoteNumber":62,"Velocity":43,"Duration":260079,"SoundDuration":260079,"Delta":76751397},{"NoteNumber":66,"Velocity":63,"Duration":260079,"SoundDuration":260079,"Delta":76751397},{"NoteNumber":54,"Velocity":58,"Duration":260079,"SoundDuration":260079,"Delta":76751397},{"NoteNumber":68,"Velocity":66,"Duration":268215,"SoundDuration":268215,"Delta":77011477},{"NoteNumber":56,"Velocity":62,"Duration":268215,"SoundDuration":268215,"Delta":77011477},{"NoteNumber":65,"Velocity":65,"Duration":1561776,"SoundDuration":1561776,"Delta":77279693},{"NoteNumber":53,"Velocity":59,"Duration":1561776,"SoundDuration":1561776,"Delta":77279693},{"NoteNumber":59,"Velocity":39,"Duration":252994,"SoundDuration":252994,"Delta":77545981},{"NoteNumber":62,"Velocity":48,"Duration":252994,"SoundDuration":252994,"Delta":77545981},{"NoteNumber":59,"Velocity":39,"Duration":255307,"SoundDuration":255307,"Delta":77798975},{"NoteNumber":62,"Velocity":48,"Duration":255307,"SoundDuration":255307,"Delta":77798975},{"NoteNumber":59,"Velocity":39,"Duration":256487,"SoundDuration":256487,"Delta":78054283},{"NoteNumber":62,"Velocity":49,"Duration":256487,"SoundDuration":256487,"Delta":78054283},{"NoteNumber":59,"Velocity":39,"Duration":266927,"SoundDuration":266927,"Delta":78310770},{"NoteNumber":62,"Velocity":49,"Duration":266927,"SoundDuration":266927,"Delta":78310770},{"NoteNumber":59,"Velocity":39,"Duration":263771,"SoundDuration":263771,"Delta":78577698},{"NoteNumber":62,"Velocity":49,"Duration":263771,"SoundDuration":263771,"Delta":78577698},{"NoteNumber":69,"Velocity":70,"Duration":251846,"SoundDuration":251846,"Delta":78841469},{"NoteNumber":57,"Velocity":67,"Duration":251846,"SoundDuration":251846,"Delta":78841469},{"NoteNumber":59,"Velocity":39,"Duration":256487,"SoundDuration":256487,"Delta":79093316},{"NoteNumber":62,"Velocity":50,"Duration":256487,"SoundDuration":256487,"Delta":79093316},{"NoteNumber":66,"Velocity":66,"Duration":256487,"SoundDuration":256487,"Delta":79093316},{"NoteNumber":54,"Velocity":60,"Duration":256487,"SoundDuration":256487,"Delta":79093316},{"NoteNumber":68,"Velocity":69,"Duration":265028,"SoundDuration":265028,"Delta":79349803},{"NoteNumber":56,"Velocity":65,"Duration":265028,"SoundDuration":265028,"Delta":79349803},{"NoteNumber":65,"Velocity":63,"Duration":786468,"SoundDuration":786468,"Delta":79614832},{"NoteNumber":53,"Velocity":61,"Duration":786468,"SoundDuration":786468,"Delta":79614832},{"NoteNumber":59,"Velocity":40,"Duration":261916,"SoundDuration":261916,"Delta":79873096},{"NoteNumber":62,"Velocity":50,"Duration":261916,"SoundDuration":261916,"Delta":79873096},{"NoteNumber":59,"Velocity":40,"Duration":266288,"SoundDuration":266288,"Delta":80135013},{"NoteNumber":62,"Velocity":51,"Duration":266288,"SoundDuration":266288,"Delta":80135013},{"NoteNumber":69,"Velocity":71,"Duration":249251,"SoundDuration":249251,"Delta":80401301},{"NoteNumber":57,"Velocity":68,"Duration":249251,"SoundDuration":249251,"Delta":80401301},{"NoteNumber":59,"Velocity":39,"Duration":254722,"SoundDuration":254722,"Delta":80650553},{"NoteNumber":62,"Velocity":51,"Duration":254722,"SoundDuration":254722,"Delta":80650553},{"NoteNumber":66,"Velocity":67,"Duration":254722,"SoundDuration":254722,"Delta":80650553},{"NoteNumber":54,"Velocity":61,"Duration":254722,"SoundDuration":254722,"Delta":80650553},{"NoteNumber":68,"Velocity":71,"Duration":258263,"SoundDuration":258263,"Delta":80905276},{"NoteNumber":56,"Velocity":66,"Duration":258263,"SoundDuration":258263,"Delta":80905276},{"NoteNumber":65,"Velocity":64,"Duration":780881,"SoundDuration":780881,"Delta":81163540},{"NoteNumber":53,"Velocity":62,"Duration":780881,"SoundDuration":780881,"Delta":81163540},{"NoteNumber":59,"Velocity":41,"Duration":258263,"SoundDuration":258263,"Delta":81423011},{"NoteNumber":62,"Velocity":52,"Duration":258263,"SoundDuration":258263,"Delta":81423011},{"NoteNumber":59,"Velocity":41,"Duration":263146,"SoundDuration":263146,"Delta":81681275},{"NoteNumber":62,"Velocity":52,"Duration":263146,"SoundDuration":263146,"Delta":81681275},{"NoteNumber":73,"Velocity":80,"Duration":248148,"SoundDuration":248148,"Delta":81944421},{"NoteNumber":61,"Velocity":76,"Duration":248148,"SoundDuration":248148,"Delta":81944421},{"NoteNumber":62,"Velocity":44,"Duration":255896,"SoundDuration":255896,"Delta":82192570},{"NoteNumber":65,"Velocity":57,"Duration":255896,"SoundDuration":255896,"Delta":82192570},{"NoteNumber":69,"Velocity":75,"Duration":255896,"SoundDuration":255896,"Delta":82192570},{"NoteNumber":57,"Velocity":69,"Duration":255896,"SoundDuration":255896,"Delta":82192570},{"NoteNumber":71,"Velocity":76,"Duration":263146,"SoundDuration":263146,"Delta":82448466},{"NoteNumber":59,"Velocity":69,"Duration":263146,"SoundDuration":263146,"Delta":82448466},{"NoteNumber":68,"Velocity":73,"Duration":773689,"SoundDuration":773689,"Delta":82711612},{"NoteNumber":56,"Velocity":71,"Duration":773689,"SoundDuration":773689,"Delta":82711612},{"NoteNumber":62,"Velocity":46,"Duration":254140,"SoundDuration":254140,"Delta":82971083},{"NoteNumber":65,"Velocity":58,"Duration":254140,"SoundDuration":254140,"Delta":82971083},{"NoteNumber":62,"Velocity":47,"Duration":260077,"SoundDuration":260077,"Delta":83225223},{"NoteNumber":65,"Velocity":58,"Duration":260077,"SoundDuration":260077,"Delta":83225223},{"NoteNumber":73,"Velocity":82,"Duration":248148,"SoundDuration":248148,"Delta":83485301},{"NoteNumber":61,"Velocity":78,"Duration":248148,"SoundDuration":248148,"Delta":83485301},{"NoteNumber":62,"Velocity":44,"Duration":254722,"SoundDuration":254722,"Delta":83733450},{"NoteNumber":65,"Velocity":58,"Duration":254722,"SoundDuration":254722,"Delta":83733450},{"NoteNumber":69,"Velocity":77,"Duration":254722,"SoundDuration":254722,"Delta":83733450},{"NoteNumber":57,"Velocity":70,"Duration":254722,"SoundDuration":254722,"Delta":83733450},{"NoteNumber":71,"Velocity":78,"Duration":256487,"SoundDuration":256487,"Delta":83988173},{"NoteNumber":59,"Velocity":71,"Duration":256487,"SoundDuration":256487,"Delta":83988173},{"NoteNumber":68,"Velocity":74,"Duration":771331,"SoundDuration":771331,"Delta":84244660},{"NoteNumber":56,"Velocity":72,"Duration":771331,"SoundDuration":771331,"Delta":84244660},{"NoteNumber":62,"Velocity":47,"Duration":252994,"SoundDuration":252994,"Delta":84503526},{"NoteNumber":65,"Velocity":59,"Duration":252994,"SoundDuration":252994,"Delta":84503526},{"NoteNumber":62,"Velocity":47,"Duration":259471,"SoundDuration":259471,"Delta":84756520},{"NoteNumber":65,"Velocity":59,"Duration":259471,"SoundDuration":259471,"Delta":84756520},{"NoteNumber":76,"Velocity":80,"Duration":240125,"SoundDuration":240125,"Delta":85015991},{"NoteNumber":64,"Velocity":69,"Duration":240125,"SoundDuration":240125,"Delta":85015991},{"NoteNumber":65,"Velocity":47,"Duration":247596,"SoundDuration":247596,"Delta":85256116},{"NoteNumber":68,"Velocity":47,"Duration":247596,"SoundDuration":247596,"Delta":85256116},{"NoteNumber":73,"Velocity":60,"Duration":247596,"SoundDuration":247596,"Delta":85256116},{"NoteNumber":61,"Velocity":64,"Duration":247596,"SoundDuration":247596,"Delta":85256116},{"NoteNumber":74,"Velocity":81,"Duration":238067,"SoundDuration":238067,"Delta":85503712},{"NoteNumber":62,"Velocity":71,"Duration":238067,"SoundDuration":238067,"Delta":85503712},{"NoteNumber":65,"Velocity":52,"Duration":243802,"SoundDuration":243802,"Delta":85741779},{"NoteNumber":68,"Velocity":52,"Duration":243802,"SoundDuration":243802,"Delta":85741779},{"NoteNumber":71,"Velocity":66,"Duration":243802,"SoundDuration":243802,"Delta":85741779},{"NoteNumber":59,"Velocity":67,"Duration":243802,"SoundDuration":243802,"Delta":85741779},{"NoteNumber":76,"Velocity":86,"Duration":236052,"SoundDuration":236052,"Delta":85985582},{"NoteNumber":64,"Velocity":76,"Duration":236052,"SoundDuration":236052,"Delta":85985582},{"NoteNumber":65,"Velocity":54,"Duration":242209,"SoundDuration":242209,"Delta":86221635},{"NoteNumber":68,"Velocity":54,"Duration":242209,"SoundDuration":242209,"Delta":86221635},{"NoteNumber":73,"Velocity":69,"Duration":242209,"SoundDuration":242209,"Delta":86221635},{"NoteNumber":61,"Velocity":72,"Duration":242209,"SoundDuration":242209,"Delta":86221635},{"NoteNumber":74,"Velocity":94,"Duration":232602,"SoundDuration":232602,"Delta":86463844},{"NoteNumber":62,"Velocity":81,"Duration":232602,"SoundDuration":232602,"Delta":86463844},{"NoteNumber":65,"Velocity":57,"Duration":237059,"SoundDuration":237059,"Delta":86696447},{"NoteNumber":68,"Velocity":57,"Duration":237059,"SoundDuration":237059,"Delta":86696447},{"NoteNumber":71,"Velocity":72,"Duration":237059,"SoundDuration":237059,"Delta":86696447},{"NoteNumber":59,"Velocity":75,"Duration":237059,"SoundDuration":237059,"Delta":86696447},{"NoteNumber":76,"Velocity":98,"Duration":229726,"SoundDuration":229726,"Delta":86933507},{"NoteNumber":64,"Velocity":85,"Duration":229726,"SoundDuration":229726,"Delta":86933507},{"NoteNumber":65,"Velocity":61,"Duration":234558,"SoundDuration":234558,"Delta":87163234},{"NoteNumber":68,"Velocity":61,"Duration":234558,"SoundDuration":234558,"Delta":87163234},{"NoteNumber":73,"Velocity":77,"Duration":234558,"SoundDuration":234558,"Delta":87163234},{"NoteNumber":61,"Velocity":80,"Duration":234558,"SoundDuration":234558,"Delta":87163234},{"NoteNumber":74,"Velocity":103,"Duration":227841,"SoundDuration":227841,"Delta":87397792},{"NoteNumber":62,"Velocity":90,"Duration":227841,"SoundDuration":227841,"Delta":87397792},{"NoteNumber":65,"Velocity":63,"Duration":297915,"SoundDuration":297915,"Delta":87625634},{"NoteNumber":68,"Velocity":63,"Duration":297915,"SoundDuration":297915,"Delta":87625634},{"NoteNumber":71,"Velocity":80,"Duration":297915,"SoundDuration":297915,"Delta":87625634},{"NoteNumber":59,"Velocity":85,"Duration":297915,"SoundDuration":297915,"Delta":87625634},{"NoteNumber":65,"Velocity":88,"Duration":2462785,"SoundDuration":2462785,"Delta":87923549},{"NoteNumber":77,"Velocity":101,"Duration":2462785,"SoundDuration":2462785,"Delta":87923549},{"NoteNumber":49,"Velocity":55,"Duration":252419,"SoundDuration":252419,"Delta":88186695},{"NoteNumber":53,"Velocity":55,"Duration":252419,"SoundDuration":252419,"Delta":88186695},{"NoteNumber":61,"Velocity":69,"Duration":252419,"SoundDuration":252419,"Delta":88186695},{"NoteNumber":56,"Velocity":55,"Duration":252419,"SoundDuration":252419,"Delta":88186695},{"NoteNumber":49,"Velocity":54,"Duration":252419,"SoundDuration":252419,"Delta":88439114},{"NoteNumber":53,"Velocity":54,"Duration":252419,"SoundDuration":252419,"Delta":88439114},{"NoteNumber":56,"Velocity":54,"Duration":252419,"SoundDuration":252419,"Delta":88439114},{"NoteNumber":61,"Velocity":67,"Duration":252419,"SoundDuration":252419,"Delta":88439114},{"NoteNumber":61,"Velocity":66,"Duration":246585,"SoundDuration":246585,"Delta":88691533},{"NoteNumber":49,"Velocity":52,"Duration":246585,"SoundDuration":246585,"Delta":88691533},{"NoteNumber":53,"Velocity":52,"Duration":246585,"SoundDuration":246585,"Delta":88691533},{"NoteNumber":56,"Velocity":52,"Duration":246585,"SoundDuration":246585,"Delta":88691533},{"NoteNumber":61,"Velocity":65,"Duration":244086,"SoundDuration":244086,"Delta":88938118},{"NoteNumber":49,"Velocity":51,"Duration":244086,"SoundDuration":244086,"Delta":88938118},{"NoteNumber":53,"Velocity":51,"Duration":244086,"SoundDuration":244086,"Delta":88938118},{"NoteNumber":56,"Velocity":51,"Duration":244086,"SoundDuration":244086,"Delta":88938118},{"NoteNumber":61,"Velocity":64,"Duration":243019,"SoundDuration":243019,"Delta":89182205},{"NoteNumber":49,"Velocity":50,"Duration":243019,"SoundDuration":243019,"Delta":89182205},{"NoteNumber":53,"Velocity":50,"Duration":243019,"SoundDuration":243019,"Delta":89182205},{"NoteNumber":56,"Velocity":50,"Duration":243019,"SoundDuration":243019,"Delta":89182205},{"NoteNumber":61,"Velocity":63,"Duration":241909,"SoundDuration":241909,"Delta":89425224},{"NoteNumber":49,"Velocity":50,"Duration":241909,"SoundDuration":241909,"Delta":89425224},{"NoteNumber":53,"Velocity":50,"Duration":241909,"SoundDuration":241909,"Delta":89425224},{"NoteNumber":56,"Velocity":50,"Duration":241909,"SoundDuration":241909,"Delta":89425224},{"NoteNumber":61,"Velocity":62,"Duration":240804,"SoundDuration":240804,"Delta":89667134},{"NoteNumber":49,"Velocity":49,"Duration":240804,"SoundDuration":240804,"Delta":89667134},{"NoteNumber":53,"Velocity":49,"Duration":240804,"SoundDuration":240804,"Delta":89667134},{"NoteNumber":56,"Velocity":49,"Duration":240804,"SoundDuration":240804,"Delta":89667134},{"NoteNumber":61,"Velocity":60,"Duration":239765,"SoundDuration":239765,"Delta":89907939},{"NoteNumber":49,"Velocity":48,"Duration":239765,"SoundDuration":239765,"Delta":89907939},{"NoteNumber":53,"Velocity":48,"Duration":239765,"SoundDuration":239765,"Delta":89907939},{"NoteNumber":56,"Velocity":48,"Duration":239765,"SoundDuration":239765,"Delta":89907939},{"NoteNumber":49,"Velocity":47,"Duration":238629,"SoundDuration":238629,"Delta":90147705},{"NoteNumber":53,"Velocity":47,"Duration":238629,"SoundDuration":238629,"Delta":90147705},{"NoteNumber":56,"Velocity":47,"Duration":238629,"SoundDuration":238629,"Delta":90147705},{"NoteNumber":61,"Velocity":59,"Duration":238629,"SoundDuration":238629,"Delta":90147705},{"NoteNumber":49,"Velocity":46,"Duration":269518,"SoundDuration":269518,"Delta":90386334},{"NoteNumber":53,"Velocity":46,"Duration":269518,"SoundDuration":269518,"Delta":90386334},{"NoteNumber":56,"Velocity":46,"Duration":269518,"SoundDuration":269518,"Delta":90386334},{"NoteNumber":61,"Velocity":58,"Duration":269518,"SoundDuration":269518,"Delta":90386334},{"NoteNumber":65,"Velocity":88,"Duration":121260,"SoundDuration":121260,"Delta":90777113},{"NoteNumber":77,"Velocity":101,"Duration":121260,"SoundDuration":121260,"Delta":90777113},{"NoteNumber":66,"Velocity":88,"Duration":2442083,"SoundDuration":2442083,"Delta":90913073},{"NoteNumber":78,"Velocity":101,"Duration":2442083,"SoundDuration":2442083,"Delta":90913073},{"NoteNumber":47,"Velocity":55,"Duration":252419,"SoundDuration":252419,"Delta":91159675},{"NoteNumber":62,"Velocity":69,"Duration":252419,"SoundDuration":252419,"Delta":91159675},{"NoteNumber":54,"Velocity":55,"Duration":252419,"SoundDuration":252419,"Delta":91159675},{"NoteNumber":59,"Velocity":55,"Duration":252419,"SoundDuration":252419,"Delta":91159675},{"NoteNumber":47,"Velocity":54,"Duration":249511,"SoundDuration":249511,"Delta":91412094},{"NoteNumber":59,"Velocity":54,"Duration":249511,"SoundDuration":249511,"Delta":91412094},{"NoteNumber":54,"Velocity":54,"Duration":249511,"SoundDuration":249511,"Delta":91412094},{"NoteNumber":62,"Velocity":67,"Duration":249511,"SoundDuration":249511,"Delta":91412094},{"NoteNumber":47,"Velocity":52,"Duration":242548,"SoundDuration":242548,"Delta":91661606},{"NoteNumber":59,"Velocity":52,"Duration":242548,"SoundDuration":242548,"Delta":91661606},{"NoteNumber":54,"Velocity":52,"Duration":242548,"SoundDuration":242548,"Delta":91661606},{"NoteNumber":62,"Velocity":66,"Duration":242548,"SoundDuration":242548,"Delta":91661606},{"NoteNumber":47,"Velocity":51,"Duration":241619,"SoundDuration":241619,"Delta":91904155},{"NoteNumber":59,"Velocity":51,"Duration":241619,"SoundDuration":241619,"Delta":91904155},{"NoteNumber":54,"Velocity":51,"Duration":241619,"SoundDuration":241619,"Delta":91904155},{"NoteNumber":62,"Velocity":65,"Duration":241619,"SoundDuration":241619,"Delta":91904155},{"NoteNumber":47,"Velocity":50,"Duration":240676,"SoundDuration":240676,"Delta":92145775},{"NoteNumber":59,"Velocity":50,"Duration":240676,"SoundDuration":240676,"Delta":92145775},{"NoteNumber":54,"Velocity":50,"Duration":240676,"SoundDuration":240676,"Delta":92145775},{"NoteNumber":62,"Velocity":64,"Duration":240676,"SoundDuration":240676,"Delta":92145775},{"NoteNumber":47,"Velocity":50,"Duration":239708,"SoundDuration":239708,"Delta":92386451},{"NoteNumber":59,"Velocity":50,"Duration":239708,"SoundDuration":239708,"Delta":92386451},{"NoteNumber":54,"Velocity":50,"Duration":239708,"SoundDuration":239708,"Delta":92386451},{"NoteNumber":62,"Velocity":63,"Duration":239708,"SoundDuration":239708,"Delta":92386451},{"NoteNumber":54,"Velocity":49,"Duration":238800,"SoundDuration":238800,"Delta":92626159},{"NoteNumber":47,"Velocity":49,"Duration":238800,"SoundDuration":238800,"Delta":92626159},{"NoteNumber":59,"Velocity":49,"Duration":238800,"SoundDuration":238800,"Delta":92626159},{"NoteNumber":62,"Velocity":62,"Duration":238800,"SoundDuration":238800,"Delta":92626159},{"NoteNumber":47,"Velocity":48,"Duration":237892,"SoundDuration":237892,"Delta":92864959},{"NoteNumber":54,"Velocity":48,"Duration":237892,"SoundDuration":237892,"Delta":92864959},{"NoteNumber":59,"Velocity":48,"Duration":237892,"SoundDuration":237892,"Delta":92864959},{"NoteNumber":62,"Velocity":60,"Duration":237892,"SoundDuration":237892,"Delta":92864959},{"NoteNumber":47,"Velocity":47,"Duration":237289,"SoundDuration":237289,"Delta":93102852},{"NoteNumber":54,"Velocity":47,"Duration":237289,"SoundDuration":237289,"Delta":93102852},{"NoteNumber":62,"Velocity":59,"Duration":237289,"SoundDuration":237289,"Delta":93102852},{"NoteNumber":59,"Velocity":47,"Duration":237289,"SoundDuration":237289,"Delta":93102852},{"NoteNumber":54,"Velocity":46,"Duration":266927,"SoundDuration":266927,"Delta":93340142},{"NoteNumber":47,"Velocity":46,"Duration":266927,"SoundDuration":266927,"Delta":93340142},{"NoteNumber":62,"Velocity":58,"Duration":266927,"SoundDuration":266927,"Delta":93340142},{"NoteNumber":59,"Velocity":46,"Duration":266927,"SoundDuration":266927,"Delta":93340142},{"NoteNumber":66,"Velocity":88,"Duration":122060,"SoundDuration":122060,"Delta":93729399},{"NoteNumber":78,"Velocity":101,"Duration":122060,"SoundDuration":122060,"Delta":93729399},{"NoteNumber":69,"Velocity":88,"Duration":2457274,"SoundDuration":2457274,"Delta":93851459},{"NoteNumber":81,"Velocity":101,"Duration":2457274,"SoundDuration":2457274,"Delta":93851459},{"NoteNumber":54,"Velocity":55,"Duration":253570,"SoundDuration":253570,"Delta":94113984},{"NoteNumber":45,"Velocity":55,"Duration":253570,"SoundDuration":253570,"Delta":94113984},{"NoteNumber":57,"Velocity":55,"Duration":253570,"SoundDuration":253570,"Delta":94113984},{"NoteNumber":62,"Velocity":69,"Duration":253570,"SoundDuration":253570,"Delta":94113984},{"NoteNumber":54,"Velocity":54,"Duration":253571,"SoundDuration":253571,"Delta":94367555},{"NoteNumber":45,"Velocity":54,"Duration":253571,"SoundDuration":253571,"Delta":94367555},{"NoteNumber":62,"Velocity":67,"Duration":253571,"SoundDuration":253571,"Delta":94367555},{"NoteNumber":57,"Velocity":54,"Duration":253571,"SoundDuration":253571,"Delta":94367555},{"NoteNumber":54,"Velocity":52,"Duration":244762,"SoundDuration":244762,"Delta":94621126},{"NoteNumber":45,"Velocity":52,"Duration":244762,"SoundDuration":244762,"Delta":94621126},{"NoteNumber":62,"Velocity":66,"Duration":244762,"SoundDuration":244762,"Delta":94621126},{"NoteNumber":57,"Velocity":52,"Duration":244762,"SoundDuration":244762,"Delta":94621126},{"NoteNumber":54,"Velocity":51,"Duration":242927,"SoundDuration":242927,"Delta":94865889},{"NoteNumber":45,"Velocity":51,"Duration":242927,"SoundDuration":242927,"Delta":94865889},{"NoteNumber":62,"Velocity":65,"Duration":242927,"SoundDuration":242927,"Delta":94865889},{"NoteNumber":57,"Velocity":51,"Duration":242927,"SoundDuration":242927,"Delta":94865889},{"NoteNumber":62,"Velocity":64,"Duration":241164,"SoundDuration":241164,"Delta":95108816},{"NoteNumber":45,"Velocity":50,"Duration":241164,"SoundDuration":241164,"Delta":95108816},{"NoteNumber":54,"Velocity":50,"Duration":241164,"SoundDuration":241164,"Delta":95108816},{"NoteNumber":57,"Velocity":50,"Duration":241164,"SoundDuration":241164,"Delta":95108816},{"NoteNumber":54,"Velocity":50,"Duration":239266,"SoundDuration":239266,"Delta":95349981},{"NoteNumber":57,"Velocity":50,"Duration":239266,"SoundDuration":239266,"Delta":95349981},{"NoteNumber":62,"Velocity":63,"Duration":239266,"SoundDuration":239266,"Delta":95349981},{"NoteNumber":45,"Velocity":50,"Duration":239266,"SoundDuration":239266,"Delta":95349981},{"NoteNumber":54,"Velocity":49,"Duration":238892,"SoundDuration":238892,"Delta":95589247},{"NoteNumber":57,"Velocity":49,"Duration":238892,"SoundDuration":238892,"Delta":95589247},{"NoteNumber":62,"Velocity":62,"Duration":238892,"SoundDuration":238892,"Delta":95589247},{"NoteNumber":45,"Velocity":49,"Duration":238892,"SoundDuration":238892,"Delta":95589247},{"NoteNumber":62,"Velocity":60,"Duration":238891,"SoundDuration":238891,"Delta":95828139},{"NoteNumber":45,"Velocity":48,"Duration":238891,"SoundDuration":238891,"Delta":95828139},{"NoteNumber":54,"Velocity":48,"Duration":238891,"SoundDuration":238891,"Delta":95828139},{"NoteNumber":57,"Velocity":48,"Duration":238891,"SoundDuration":238891,"Delta":95828139},{"NoteNumber":62,"Velocity":59,"Duration":241702,"SoundDuration":241702,"Delta":96067031},{"NoteNumber":45,"Velocity":47,"Duration":241702,"SoundDuration":241702,"Delta":96067031},{"NoteNumber":54,"Velocity":47,"Duration":241702,"SoundDuration":241702,"Delta":96067031},{"NoteNumber":57,"Velocity":47,"Duration":241702,"SoundDuration":241702,"Delta":96067031},{"NoteNumber":62,"Velocity":58,"Duration":272146,"SoundDuration":272146,"Delta":96308733},{"NoteNumber":45,"Velocity":46,"Duration":272146,"SoundDuration":272146,"Delta":96308733},{"NoteNumber":54,"Velocity":46,"Duration":272146,"SoundDuration":272146,"Delta":96308733},{"NoteNumber":57,"Velocity":46,"Duration":272146,"SoundDuration":272146,"Delta":96308733},{"NoteNumber":69,"Velocity":88,"Duration":123634,"SoundDuration":123634,"Delta":96704565},{"NoteNumber":81,"Velocity":101,"Duration":123634,"SoundDuration":123634,"Delta":96704565},{"NoteNumber":71,"Velocity":92,"Duration":1492362,"SoundDuration":1492362,"Delta":96828200},{"NoteNumber":83,"Velocity":105,"Duration":1492362,"SoundDuration":1492362,"Delta":96828200},{"NoteNumber":66,"Velocity":75,"Duration":249813,"SoundDuration":249813,"Delta":97085280},{"NoteNumber":62,"Velocity":59,"Duration":249813,"SoundDuration":249813,"Delta":97085280},{"NoteNumber":44,"Velocity":59,"Duration":249813,"SoundDuration":249813,"Delta":97085280},{"NoteNumber":54,"Velocity":59,"Duration":249813,"SoundDuration":249813,"Delta":97085280},{"NoteNumber":59,"Velocity":59,"Duration":249813,"SoundDuration":249813,"Delta":97085280},{"NoteNumber":54,"Velocity":59,"Duration":248811,"SoundDuration":248811,"Delta":97335093},{"NoteNumber":62,"Velocity":59,"Duration":248811,"SoundDuration":248811,"Delta":97335093},{"NoteNumber":44,"Velocity":59,"Duration":248811,"SoundDuration":248811,"Delta":97335093},{"NoteNumber":66,"Velocity":75,"Duration":248811,"SoundDuration":248811,"Delta":97335093},{"NoteNumber":59,"Velocity":59,"Duration":248811,"SoundDuration":248811,"Delta":97335093},{"NoteNumber":54,"Velocity":59,"Duration":242669,"SoundDuration":242669,"Delta":97583905},{"NoteNumber":62,"Velocity":59,"Duration":242669,"SoundDuration":242669,"Delta":97583905},{"NoteNumber":44,"Velocity":59,"Duration":242669,"SoundDuration":242669,"Delta":97583905},{"NoteNumber":59,"Velocity":59,"Duration":242669,"SoundDuration":242669,"Delta":97583905},{"NoteNumber":66,"Velocity":75,"Duration":242669,"SoundDuration":242669,"Delta":97583905},{"NoteNumber":62,"Velocity":58,"Duration":240418,"SoundDuration":240418,"Delta":97826574},{"NoteNumber":44,"Velocity":58,"Duration":240418,"SoundDuration":240418,"Delta":97826574},{"NoteNumber":54,"Velocity":58,"Duration":240418,"SoundDuration":240418,"Delta":97826574},{"NoteNumber":59,"Velocity":58,"Duration":240418,"SoundDuration":240418,"Delta":97826574},{"NoteNumber":66,"Velocity":75,"Duration":240418,"SoundDuration":240418,"Delta":97826574},{"NoteNumber":62,"Velocity":58,"Duration":253570,"SoundDuration":253570,"Delta":98066992},{"NoteNumber":66,"Velocity":75,"Duration":253570,"SoundDuration":253570,"Delta":98066992},{"NoteNumber":44,"Velocity":58,"Duration":253570,"SoundDuration":253570,"Delta":98066992},{"NoteNumber":54,"Velocity":58,"Duration":253570,"SoundDuration":253570,"Delta":98066992},{"NoteNumber":59,"Velocity":58,"Duration":253570,"SoundDuration":253570,"Delta":98066992},{"NoteNumber":72,"Velocity":95,"Duration":1405803,"SoundDuration":1405803,"Delta":98320563},{"NoteNumber":84,"Velocity":109,"Duration":1405803,"SoundDuration":1405803,"Delta":98320563},{"NoteNumber":59,"Velocity":69,"Duration":270194,"SoundDuration":270194,"Delta":98572611},{"NoteNumber":61,"Velocity":69,"Duration":270194,"SoundDuration":270194,"Delta":98572611},{"NoteNumber":43,"Velocity":69,"Duration":270194,"SoundDuration":270194,"Delta":98572611},{"NoteNumber":53,"Velocity":69,"Duration":270194,"SoundDuration":270194,"Delta":98572611},{"NoteNumber":65,"Velocity":86,"Duration":270194,"SoundDuration":270194,"Delta":98572611},{"NoteNumber":53,"Velocity":70,"Duration":279639,"SoundDuration":279639,"Delta":98842805},{"NoteNumber":61,"Velocity":70,"Duration":279639,"SoundDuration":279639,"Delta":98842805},{"NoteNumber":43,"Velocity":70,"Duration":279639,"SoundDuration":279639,"Delta":98842805},{"NoteNumber":65,"Velocity":88,"Duration":279639,"SoundDuration":279639,"Delta":98842805},{"NoteNumber":59,"Velocity":70,"Duration":279639,"SoundDuration":279639,"Delta":98842805},{"NoteNumber":43,"Velocity":72,"Duration":289769,"SoundDuration":289769,"Delta":99122444},{"NoteNumber":61,"Velocity":72,"Duration":289769,"SoundDuration":289769,"Delta":99122444},{"NoteNumber":59,"Velocity":72,"Duration":289769,"SoundDuration":289769,"Delta":99122444},{"NoteNumber":53,"Velocity":72,"Duration":289769,"SoundDuration":289769,"Delta":99122444},{"NoteNumber":65,"Velocity":90,"Duration":289769,"SoundDuration":289769,"Delta":99122444},{"NoteNumber":65,"Velocity":93,"Duration":314153,"SoundDuration":314153,"Delta":99412214},{"NoteNumber":61,"Velocity":73,"Duration":314153,"SoundDuration":314153,"Delta":99412214},{"NoteNumber":43,"Velocity":73,"Duration":314153,"SoundDuration":314153,"Delta":99412214},{"NoteNumber":53,"Velocity":73,"Duration":314153,"SoundDuration":314153,"Delta":99412214},{"NoteNumber":59,"Velocity":73,"Duration":314153,"SoundDuration":314153,"Delta":99412214},{"NoteNumber":85,"Velocity":98,"Duration":663228,"SoundDuration":663228,"Delta":99726367},{"NoteNumber":73,"Velocity":80,"Duration":663228,"SoundDuration":663228,"Delta":99726367},{"NoteNumber":73,"Velocity":50,"Duration":1333616,"SoundDuration":1333616,"Delta":100389595},{"NoteNumber":85,"Velocity":57,"Duration":1250715,"SoundDuration":1250715,"Delta":100472495},{"NoteNumber":42,"Velocity":27,"Duration":136555,"SoundDuration":136555,"Delta":100610110},{"NoteNumber":78,"Velocity":27,"Duration":250184,"SoundDuration":250184,"Delta":100746666},{"NoteNumber":82,"Velocity":32,"Duration":250184,"SoundDuration":250184,"Delta":100746666},{"NoteNumber":49,"Velocity":29,"Duration":131992,"SoundDuration":131992,"Delta":100746666},{"NoteNumber":54,"Velocity":31,"Duration":131300,"SoundDuration":131300,"Delta":100878658},{"NoteNumber":78,"Velocity":29,"Duration":247500,"SoundDuration":247500,"Delta":101009959},{"NoteNumber":82,"Velocity":35,"Duration":247500,"SoundDuration":247500,"Delta":101009959},{"NoteNumber":58,"Velocity":32,"Duration":130587,"SoundDuration":130587,"Delta":101009959},{"NoteNumber":61,"Velocity":34,"Duration":129898,"SoundDuration":129898,"Delta":101140546},{"NoteNumber":78,"Velocity":27,"Duration":244950,"SoundDuration":244950,"Delta":101270445},{"NoteNumber":82,"Velocity":32,"Duration":244950,"SoundDuration":244950,"Delta":101270445},{"NoteNumber":66,"Velocity":35,"Duration":128921,"SoundDuration":128921,"Delta":101270445},{"NoteNumber":61,"Velocity":31,"Duration":128921,"SoundDuration":128921,"Delta":101399366},{"NoteNumber":78,"Velocity":27,"Duration":246903,"SoundDuration":246903,"Delta":101528288},{"NoteNumber":82,"Velocity":32,"Duration":246903,"SoundDuration":246903,"Delta":101528288},{"NoteNumber":66,"Velocity":36,"Duration":129948,"SoundDuration":129948,"Delta":101528288},{"NoteNumber":70,"Velocity":31,"Duration":129949,"SoundDuration":129949,"Delta":101658237},{"NoteNumber":75,"Velocity":49,"Duration":351670,"SoundDuration":351670,"Delta":101723211},{"NoteNumber":87,"Velocity":59,"Duration":286695,"SoundDuration":286695,"Delta":101788186},{"NoteNumber":87,"Velocity":65,"Duration":773562,"SoundDuration":773562,"Delta":102074881},{"NoteNumber":75,"Velocity":54,"Duration":773562,"SoundDuration":773562,"Delta":102074881},{"NoteNumber":42,"Velocity":27,"Duration":129432,"SoundDuration":129432,"Delta":102204314},{"NoteNumber":78,"Velocity":30,"Duration":243039,"SoundDuration":243039,"Delta":102333747},{"NoteNumber":82,"Velocity":36,"Duration":243039,"SoundDuration":243039,"Delta":102333747},{"NoteNumber":49,"Velocity":29,"Duration":127915,"SoundDuration":127915,"Delta":102333747},{"NoteNumber":54,"Velocity":31,"Duration":127915,"SoundDuration":127915,"Delta":102461663},{"NoteNumber":78,"Velocity":30,"Duration":245922,"SoundDuration":245922,"Delta":102589578},{"NoteNumber":82,"Velocity":36,"Duration":245922,"SoundDuration":245922,"Delta":102589578},{"NoteNumber":58,"Velocity":32,"Duration":129433,"SoundDuration":129433,"Delta":102589578},{"NoteNumber":61,"Velocity":34,"Duration":129432,"SoundDuration":129432,"Delta":102719011},{"NoteNumber":85,"Velocity":57,"Duration":511662,"SoundDuration":511662,"Delta":102848444},{"NoteNumber":73,"Velocity":50,"Duration":511662,"SoundDuration":511662,"Delta":102848444},{"NoteNumber":66,"Velocity":35,"Duration":127915,"SoundDuration":127915,"Delta":102848444},{"NoteNumber":61,"Velocity":31,"Duration":127915,"SoundDuration":127915,"Delta":102976360},{"NoteNumber":78,"Velocity":29,"Duration":243039,"SoundDuration":243039,"Delta":103104275},{"NoteNumber":82,"Velocity":35,"Duration":243039,"SoundDuration":243039,"Delta":103104275},{"NoteNumber":66,"Velocity":36,"Duration":127915,"SoundDuration":127915,"Delta":103104275},{"NoteNumber":70,"Velocity":31,"Duration":127915,"SoundDuration":127915,"Delta":103232191},{"NoteNumber":82,"Velocity":55,"Duration":205817,"SoundDuration":205817,"Delta":103360106},{"NoteNumber":70,"Velocity":46,"Duration":205817,"SoundDuration":205817,"Delta":103360106},{"NoteNumber":66,"Velocity":54,"Duration":835844,"SoundDuration":835844,"Delta":103565924},{"NoteNumber":78,"Velocity":61,"Duration":771516,"SoundDuration":771516,"Delta":103630252},{"NoteNumber":42,"Velocity":27,"Duration":128921,"SoundDuration":128921,"Delta":103759174},{"NoteNumber":71,"Velocity":27,"Duration":243039,"SoundDuration":243039,"Delta":103888095},{"NoteNumber":75,"Velocity":32,"Duration":243039,"SoundDuration":243039,"Delta":103888095},{"NoteNumber":51,"Velocity":29,"Duration":127915,"SoundDuration":127915,"Delta":103888095},{"NoteNumber":54,"Velocity":31,"Duration":127915,"SoundDuration":127915,"Delta":104016011},{"NoteNumber":71,"Velocity":29,"Duration":244950,"SoundDuration":244950,"Delta":104143926},{"NoteNumber":75,"Velocity":35,"Duration":244950,"SoundDuration":244950,"Delta":104143926},{"NoteNumber":59,"Velocity":32,"Duration":128921,"SoundDuration":128921,"Delta":104143926},{"NoteNumber":63,"Velocity":34,"Duration":128921,"SoundDuration":128921,"Delta":104272848},{"NoteNumber":80,"Velocity":57,"Duration":715034,"SoundDuration":715034,"Delta":104401769},{"NoteNumber":68,"Velocity":50,"Duration":715034,"SoundDuration":715034,"Delta":104401769},{"NoteNumber":75,"Velocity":32,"Duration":243039,"SoundDuration":243039,"Delta":104659612},{"NoteNumber":71,"Velocity":27,"Duration":243039,"SoundDuration":243039,"Delta":104659612},{"NoteNumber":75,"Velocity":32,"Duration":252587,"SoundDuration":252587,"Delta":104915443},{"NoteNumber":71,"Velocity":27,"Duration":252587,"SoundDuration":252587,"Delta":104915443},{"NoteNumber":70,"Velocity":54,"Duration":1342205,"SoundDuration":1342205,"Delta":105116803},{"NoteNumber":82,"Velocity":62,"Duration":1504017,"SoundDuration":1504017,"Delta":105180838},{"NoteNumber":42,"Velocity":27,"Duration":127915,"SoundDuration":127915,"Delta":105308753},{"NoteNumber":73,"Velocity":27,"Duration":243985,"SoundDuration":243985,"Delta":105436669},{"NoteNumber":78,"Velocity":32,"Duration":243985,"SoundDuration":243985,"Delta":105436669},{"NoteNumber":49,"Velocity":29,"Duration":128413,"SoundDuration":128413,"Delta":105436669},{"NoteNumber":54,"Velocity":31,"Duration":128413,"SoundDuration":128413,"Delta":105565082},{"NoteNumber":73,"Velocity":29,"Duration":243985,"SoundDuration":243985,"Delta":105693496},{"NoteNumber":78,"Velocity":35,"Duration":243985,"SoundDuration":243985,"Delta":105693496},{"NoteNumber":58,"Velocity":32,"Duration":128413,"SoundDuration":128413,"Delta":105693496},{"NoteNumber":61,"Velocity":34,"Duration":128413,"SoundDuration":128413,"Delta":105821909},{"NoteNumber":73,"Velocity":27,"Duration":240212,"SoundDuration":240212,"Delta":105950323},{"NoteNumber":78,"Velocity":32,"Duration":240212,"SoundDuration":240212,"Delta":105950323},{"NoteNumber":66,"Velocity":35,"Duration":126427,"SoundDuration":126427,"Delta":105950323},{"NoteNumber":61,"Velocity":31,"Duration":126427,"SoundDuration":126427,"Delta":106076750},{"NoteNumber":73,"Velocity":27,"Duration":243039,"SoundDuration":243039,"Delta":106203178},{"NoteNumber":78,"Velocity":32,"Duration":243039,"SoundDuration":243039,"Delta":106203178},{"NoteNumber":66,"Velocity":36,"Duration":127915,"SoundDuration":127915,"Delta":106203178},{"NoteNumber":70,"Velocity":31,"Duration":353762,"SoundDuration":353762,"Delta":106331093},{"NoteNumber":73,"Velocity":27,"Duration":219573,"SoundDuration":219573,"Delta":106459009},{"NoteNumber":78,"Velocity":32,"Duration":278901,"SoundDuration":278901,"Delta":106459009},{"NoteNumber":73,"Velocity":55,"Duration":870409,"SoundDuration":870409,"Delta":106684855},{"NoteNumber":85,"Velocity":63,"Duration":804090,"SoundDuration":804090,"Delta":106751174},{"NoteNumber":42,"Velocity":31,"Duration":129432,"SoundDuration":129432,"Delta":106880607},{"NoteNumber":82,"Velocity":41,"Duration":243039,"SoundDuration":243039,"Delta":107010040},{"NoteNumber":78,"Velocity":34,"Duration":243039,"SoundDuration":243039,"Delta":107010040},{"NoteNumber":49,"Velocity":33,"Duration":127915,"SoundDuration":127915,"Delta":107010040},{"NoteNumber":54,"Velocity":35,"Duration":127915,"SoundDuration":127915,"Delta":107137956},{"NoteNumber":78,"Velocity":34,"Duration":274924,"SoundDuration":274924,"Delta":107265871},{"NoteNumber":82,"Velocity":41,"Duration":274924,"SoundDuration":274924,"Delta":107265871},{"NoteNumber":58,"Velocity":36,"Duration":144696,"SoundDuration":144696,"Delta":107265871},{"NoteNumber":61,"Velocity":39,"Duration":144697,"SoundDuration":144697,"Delta":107410568},{"NoteNumber":89,"Velocity":65,"Duration":259112,"SoundDuration":259112,"Delta":107555265},{"NoteNumber":77,"Velocity":57,"Duration":259112,"SoundDuration":259112,"Delta":107555265},{"NoteNumber":65,"Velocity":40,"Duration":259112,"SoundDuration":259112,"Delta":107555265},{"NoteNumber":66,"Velocity":33,"Duration":259112,"SoundDuration":259112,"Delta":107555265},{"NoteNumber":70,"Velocity":33,"Duration":259112,"SoundDuration":259112,"Delta":107555265},{"NoteNumber":87,"Velocity":64,"Duration":259112,"SoundDuration":259112,"Delta":107814377},{"NoteNumber":75,"Velocity":56,"Duration":259112,"SoundDuration":259112,"Delta":107814377},{"NoteNumber":63,"Velocity":37,"Duration":259112,"SoundDuration":259112,"Delta":107814377},{"NoteNumber":66,"Velocity":32,"Duration":259112,"SoundDuration":259112,"Delta":107814377},{"NoteNumber":70,"Velocity":32,"Duration":259112,"SoundDuration":259112,"Delta":107814377},{"NoteNumber":85,"Velocity":64,"Duration":197282,"SoundDuration":197282,"Delta":108073489},{"NoteNumber":73,"Velocity":56,"Duration":197282,"SoundDuration":197282,"Delta":108073489},{"NoteNumber":61,"Velocity":36,"Duration":263042,"SoundDuration":263042,"Delta":108073489},{"NoteNumber":66,"Velocity":30,"Duration":263042,"SoundDuration":263042,"Delta":108073489},{"NoteNumber":70,"Velocity":30,"Duration":263042,"SoundDuration":263042,"Delta":108073489},{"NoteNumber":75,"Velocity":63,"Duration":579457,"SoundDuration":579457,"Delta":108270771},{"NoteNumber":87,"Velocity":72,"Duration":513696,"SoundDuration":513696,"Delta":108336532},{"NoteNumber":42,"Velocity":31,"Duration":129432,"SoundDuration":129432,"Delta":108465965},{"NoteNumber":78,"Velocity":35,"Duration":515756,"SoundDuration":515756,"Delta":108595398},{"NoteNumber":82,"Velocity":42,"Duration":515756,"SoundDuration":515756,"Delta":108595398},{"NoteNumber":49,"Velocity":33,"Duration":127415,"SoundDuration":127415,"Delta":108595398},{"NoteNumber":54,"Velocity":35,"Duration":127415,"SoundDuration":127415,"Delta":108722814},{"NoteNumber":85,"Velocity":64,"Duration":260925,"SoundDuration":260925,"Delta":108850229},{"NoteNumber":73,"Velocity":58,"Duration":260925,"SoundDuration":260925,"Delta":108850229},{"NoteNumber":58,"Velocity":36,"Duration":130463,"SoundDuration":130463,"Delta":108850229},{"NoteNumber":61,"Velocity":39,"Duration":130462,"SoundDuration":130462,"Delta":108980692},{"NoteNumber":82,"Velocity":67,"Duration":520839,"SoundDuration":520839,"Delta":109111155},{"NoteNumber":70,"Velocity":59,"Duration":520839,"SoundDuration":520839,"Delta":109111155},{"NoteNumber":73,"Velocity":35,"Duration":544176,"SoundDuration":544176,"Delta":109370021},{"NoteNumber":78,"Velocity":42,"Duration":476239,"SoundDuration":476239,"Delta":109370021},{"NoteNumber":78,"Velocity":63,"Duration":282202,"SoundDuration":282202,"Delta":109631995},{"NoteNumber":66,"Velocity":55,"Duration":214265,"SoundDuration":214265,"Delta":109631995},{"NoteNumber":66,"Velocity":60,"Duration":849294,"SoundDuration":849294,"Delta":109846260},{"NoteNumber":78,"Velocity":68,"Duration":781356,"SoundDuration":781356,"Delta":109914198},{"NoteNumber":42,"Velocity":27,"Duration":130769,"SoundDuration":130769,"Delta":110044968},{"NoteNumber":71,"Velocity":34,"Duration":244950,"SoundDuration":244950,"Delta":110175738},{"NoteNumber":75,"Velocity":41,"Duration":244950,"SoundDuration":244950,"Delta":110175738},{"NoteNumber":51,"Velocity":29,"Duration":128921,"SoundDuration":128921,"Delta":110175738},{"NoteNumber":54,"Velocity":31,"Duration":128921,"SoundDuration":128921,"Delta":110304660},{"NoteNumber":75,"Velocity":41,"Duration":248875,"SoundDuration":248875,"Delta":110433581},{"NoteNumber":71,"Velocity":34,"Duration":248875,"SoundDuration":248875,"Delta":110433581},{"NoteNumber":59,"Velocity":32,"Duration":130987,"SoundDuration":130987,"Delta":110433581},{"NoteNumber":63,"Velocity":34,"Duration":130986,"SoundDuration":130986,"Delta":110564568},{"NoteNumber":82,"Velocity":68,"Duration":265275,"SoundDuration":265275,"Delta":110695555},{"NoteNumber":70,"Velocity":60,"Duration":265275,"SoundDuration":265275,"Delta":110695555},{"NoteNumber":58,"Velocity":40,"Duration":265275,"SoundDuration":265275,"Delta":110695555},{"NoteNumber":59,"Velocity":33,"Duration":265275,"SoundDuration":265275,"Delta":110695555},{"NoteNumber":63,"Velocity":33,"Duration":265275,"SoundDuration":265275,"Delta":110695555},{"NoteNumber":80,"Velocity":61,"Duration":265275,"SoundDuration":265275,"Delta":110960830},{"NoteNumber":68,"Velocity":54,"Duration":265275,"SoundDuration":265275,"Delta":110960830},{"NoteNumber":56,"Velocity":37,"Duration":265275,"SoundDuration":265275,"Delta":110960830},{"NoteNumber":59,"Velocity":32,"Duration":265275,"SoundDuration":265275,"Delta":110960830},{"NoteNumber":63,"Velocity":32,"Duration":265275,"SoundDuration":265275,"Delta":110960830},{"NoteNumber":78,"Velocity":61,"Duration":203813,"SoundDuration":203813,"Delta":111226105},{"NoteNumber":66,"Velocity":54,"Duration":203813,"SoundDuration":203813,"Delta":111226105},{"NoteNumber":54,"Velocity":36,"Duration":271750,"SoundDuration":271750,"Delta":111226105},{"NoteNumber":59,"Velocity":30,"Duration":271750,"SoundDuration":271750,"Delta":111226105},{"NoteNumber":63,"Velocity":30,"Duration":271750,"SoundDuration":271750,"Delta":111226105},{"NoteNumber":70,"Velocity":60,"Duration":1359311,"SoundDuration":1359311,"Delta":111429918},{"NoteNumber":82,"Velocity":68,"Duration":1529444,"SoundDuration":1529444,"Delta":111497856},{"NoteNumber":42,"Velocity":27,"Duration":130462,"SoundDuration":130462,"Delta":111628319},{"NoteNumber":78,"Velocity":36,"Duration":247879,"SoundDuration":247879,"Delta":111758782},{"NoteNumber":73,"Velocity":31,"Duration":247879,"SoundDuration":247879,"Delta":111758782},{"NoteNumber":49,"Velocity":29,"Duration":130463,"SoundDuration":130463,"Delta":111758782},{"NoteNumber":54,"Velocity":31,"Duration":130462,"SoundDuration":130462,"Delta":111889245},{"NoteNumber":78,"Velocity":39,"Duration":245922,"SoundDuration":245922,"Delta":112019708},{"NoteNumber":73,"Velocity":33,"Duration":245922,"SoundDuration":245922,"Delta":112019708},{"NoteNumber":58,"Velocity":32,"Duration":129433,"SoundDuration":129433,"Delta":112019708},{"NoteNumber":61,"Velocity":34,"Duration":129432,"SoundDuration":129432,"Delta":112149141},{"NoteNumber":78,"Velocity":36,"Duration":241137,"SoundDuration":241137,"Delta":112278574},{"NoteNumber":73,"Velocity":31,"Duration":241137,"SoundDuration":241137,"Delta":112278574},{"NoteNumber":66,"Velocity":35,"Duration":126914,"SoundDuration":126914,"Delta":112278574},{"NoteNumber":61,"Velocity":31,"Duration":126914,"SoundDuration":126914,"Delta":112405489},{"NoteNumber":78,"Velocity":36,"Duration":243985,"SoundDuration":243985,"Delta":112532403},{"NoteNumber":73,"Velocity":31,"Duration":243985,"SoundDuration":243985,"Delta":112532403},{"NoteNumber":66,"Velocity":36,"Duration":128413,"SoundDuration":128413,"Delta":112532403},{"NoteNumber":70,"Velocity":31,"Duration":366483,"SoundDuration":366483,"Delta":112660817},{"NoteNumber":78,"Velocity":36,"Duration":290999,"SoundDuration":290999,"Delta":112789230},{"NoteNumber":73,"Velocity":31,"Duration":290999,"SoundDuration":290999,"Delta":112789230},{"NoteNumber":70,"Velocity":60,"Duration":1362911,"SoundDuration":1362911,"Delta":113027300},{"NoteNumber":82,"Velocity":68,"Duration":1296751,"SoundDuration":1296751,"Delta":113093461},{"NoteNumber":42,"Velocity":33,"Duration":130462,"SoundDuration":130462,"Delta":113223924},{"NoteNumber":77,"Velocity":36,"Duration":247879,"SoundDuration":247879,"Delta":113354387},{"NoteNumber":74,"Velocity":31,"Duration":247879,"SoundDuration":247879,"Delta":113354387},{"NoteNumber":50,"Velocity":34,"Duration":130463,"SoundDuration":130463,"Delta":113354387},{"NoteNumber":53,"Velocity":35,"Duration":130462,"SoundDuration":130462,"Delta":113484850},{"NoteNumber":77,"Velocity":39,"Duration":243330,"SoundDuration":243330,"Delta":113615313},{"NoteNumber":74,"Velocity":33,"Duration":243330,"SoundDuration":243330,"Delta":113615313},{"NoteNumber":58,"Velocity":36,"Duration":128068,"SoundDuration":128068,"Delta":113615313},{"NoteNumber":62,"Velocity":37,"Duration":128068,"SoundDuration":128068,"Delta":113743382},{"NoteNumber":77,"Velocity":36,"Duration":246952,"SoundDuration":246952,"Delta":113871450},{"NoteNumber":74,"Velocity":31,"Duration":246952,"SoundDuration":246952,"Delta":113871450},{"NoteNumber":77,"Velocity":36,"Duration":245922,"SoundDuration":245922,"Delta":114131346},{"NoteNumber":74,"Velocity":31,"Duration":245922,"SoundDuration":245922,"Delta":114131346},{"NoteNumber":82,"Velocity":72,"Duration":204815,"SoundDuration":204815,"Delta":114390212},{"NoteNumber":70,"Velocity":63,"Duration":204815,"SoundDuration":204815,"Delta":114390212},{"NoteNumber":70,"Velocity":67,"Duration":853233,"SoundDuration":853233,"Delta":114595028},{"NoteNumber":82,"Velocity":77,"Duration":784961,"SoundDuration":784961,"Delta":114663299},{"NoteNumber":42,"Velocity":36,"Duration":130462,"SoundDuration":130462,"Delta":114793762},{"NoteNumber":78,"Velocity":41,"Duration":245922,"SoundDuration":245922,"Delta":114924225},{"NoteNumber":75,"Velocity":34,"Duration":245922,"SoundDuration":245922,"Delta":114924225},{"NoteNumber":51,"Velocity":38,"Duration":129433,"SoundDuration":129433,"Delta":114924225},{"NoteNumber":54,"Velocity":41,"Duration":129432,"SoundDuration":129432,"Delta":115053658},{"NoteNumber":78,"Velocity":41,"Duration":251911,"SoundDuration":251911,"Delta":115183091},{"NoteNumber":75,"Velocity":34,"Duration":251911,"SoundDuration":251911,"Delta":115183091},{"NoteNumber":58,"Velocity":43,"Duration":132585,"SoundDuration":132585,"Delta":115183091},{"NoteNumber":63,"Velocity":45,"Duration":132584,"SoundDuration":132584,"Delta":115315676},{"NoteNumber":75,"Velocity":72,"Duration":718449,"SoundDuration":718449,"Delta":115448261},{"NoteNumber":63,"Velocity":60,"Duration":718449,"SoundDuration":718449,"Delta":115448261},{"NoteNumber":70,"Velocity":40,"Duration":244950,"SoundDuration":244950,"Delta":115709187},{"NoteNumber":66,"Velocity":33,"Duration":244950,"SoundDuration":244950,"Delta":115709187},{"NoteNumber":70,"Velocity":40,"Duration":252928,"SoundDuration":252928,"Delta":115967030},{"NoteNumber":66,"Velocity":33,"Duration":252928,"SoundDuration":252928,"Delta":115967030},{"NoteNumber":70,"Velocity":72,"Duration":1113018,"SoundDuration":1113018,"Delta":116166711},{"NoteNumber":82,"Velocity":82,"Duration":1046457,"SoundDuration":1046457,"Delta":116233271},{"NoteNumber":42,"Velocity":37,"Duration":130462,"SoundDuration":130462,"Delta":116363734},{"NoteNumber":77,"Velocity":43,"Duration":247879,"SoundDuration":247879,"Delta":116494197},{"NoteNumber":74,"Velocity":36,"Duration":247879,"SoundDuration":247879,"Delta":116494197},{"NoteNumber":50,"Velocity":39,"Duration":130463,"SoundDuration":130463,"Delta":116494197},{"NoteNumber":53,"Velocity":41,"Duration":130462,"SoundDuration":130462,"Delta":116624660},{"NoteNumber":77,"Velocity":43,"Duration":240212,"SoundDuration":240212,"Delta":116755123},{"NoteNumber":74,"Velocity":36,"Duration":240212,"SoundDuration":240212,"Delta":116755123},{"NoteNumber":58,"Velocity":43,"Duration":126427,"SoundDuration":126427,"Delta":116755123},{"NoteNumber":62,"Velocity":44,"Duration":126427,"SoundDuration":126427,"Delta":116881551},{"NoteNumber":77,"Velocity":39,"Duration":258163,"SoundDuration":258163,"Delta":117007978},{"NoteNumber":74,"Velocity":27,"Duration":258163,"SoundDuration":258163,"Delta":117007978},{"NoteNumber":83,"Velocity":76,"Duration":277790,"SoundDuration":277790,"Delta":117279729},{"NoteNumber":71,"Velocity":67,"Duration":277790,"SoundDuration":277790,"Delta":117279729},{"NoteNumber":62,"Velocity":35,"Duration":263901,"SoundDuration":263901,"Delta":117279729},{"NoteNumber":65,"Velocity":42,"Duration":263901,"SoundDuration":263901,"Delta":117279729},{"NoteNumber":59,"Velocity":50,"Duration":277790,"SoundDuration":277790,"Delta":117279729},{"NoteNumber":85,"Velocity":76,"Duration":212775,"SoundDuration":212775,"Delta":117557520},{"NoteNumber":73,"Velocity":65,"Duration":212775,"SoundDuration":212775,"Delta":117557520},{"NoteNumber":62,"Velocity":26,"Duration":269515,"SoundDuration":269515,"Delta":117557520},{"NoteNumber":65,"Velocity":36,"Duration":269515,"SoundDuration":269515,"Delta":117557520},{"NoteNumber":61,"Velocity":54,"Duration":283700,"SoundDuration":283700,"Delta":117557520},{"NoteNumber":70,"Velocity":75,"Duration":1581570,"SoundDuration":1581570,"Delta":117770296},{"NoteNumber":82,"Velocity":86,"Duration":1510645,"SoundDuration":1510645,"Delta":117841221},{"NoteNumber":42,"Velocity":36,"Duration":130462,"SoundDuration":130462,"Delta":117971684},{"NoteNumber":78,"Velocity":45,"Duration":245013,"SoundDuration":245013,"Delta":118102147},{"NoteNumber":75,"Velocity":45,"Duration":245013,"SoundDuration":245013,"Delta":118102147},{"NoteNumber":51,"Velocity":37,"Duration":128954,"SoundDuration":128954,"Delta":118102147},{"NoteNumber":54,"Velocity":38,"Duration":128954,"SoundDuration":128954,"Delta":118231102},{"NoteNumber":78,"Velocity":46,"Duration":251911,"SoundDuration":251911,"Delta":118360056},{"NoteNumber":75,"Velocity":46,"Duration":251911,"SoundDuration":251911,"Delta":118360056},{"NoteNumber":58,"Velocity":39,"Duration":132585,"SoundDuration":132585,"Delta":118360056},{"NoteNumber":63,"Velocity":41,"Duration":132584,"SoundDuration":132584,"Delta":118492641},{"NoteNumber":78,"Velocity":50,"Duration":247879,"SoundDuration":247879,"Delta":118625226},{"NoteNumber":75,"Velocity":50,"Duration":247879,"SoundDuration":247879,"Delta":118625226},{"NoteNumber":66,"Velocity":42,"Duration":130463,"SoundDuration":130463,"Delta":118625226},{"NoteNumber":54,"Velocity":44,"Duration":130462,"SoundDuration":130462,"Delta":118755689},{"NoteNumber":78,"Velocity":52,"Duration":244950,"SoundDuration":244950,"Delta":118886152},{"NoteNumber":75,"Velocity":52,"Duration":244950,"SoundDuration":244950,"Delta":118886152},{"NoteNumber":58,"Velocity":45,"Duration":128921,"SoundDuration":128921,"Delta":118886152},{"NoteNumber":63,"Velocity":45,"Duration":128921,"SoundDuration":128921,"Delta":119015074},{"NoteNumber":78,"Velocity":55,"Duration":260551,"SoundDuration":260551,"Delta":119143995},{"NoteNumber":75,"Velocity":55,"Duration":202097,"SoundDuration":202097,"Delta":119143995},{"NoteNumber":66,"Velocity":47,"Duration":138581,"SoundDuration":138581,"Delta":119143995},{"NoteNumber":70,"Velocity":48,"Duration":135140,"SoundDuration":135140,"Delta":119282576},{"NoteNumber":75,"Velocity":86,"Duration":843839,"SoundDuration":843839,"Delta":119351867},{"NoteNumber":87,"Velocity":102,"Duration":1307560,"SoundDuration":1307560,"Delta":119417717},{"NoteNumber":48,"Velocity":58,"Duration":260925,"SoundDuration":260925,"Delta":119548180},{"NoteNumber":82,"Velocity":64,"Duration":247879,"SoundDuration":247879,"Delta":119678643},{"NoteNumber":78,"Velocity":64,"Duration":247879,"SoundDuration":247879,"Delta":119678643},{"NoteNumber":54,"Velocity":48,"Duration":130462,"SoundDuration":130462,"Delta":119809106},{"NoteNumber":82,"Velocity":66,"Duration":243330,"SoundDuration":243330,"Delta":119939569},{"NoteNumber":78,"Velocity":66,"Duration":243330,"SoundDuration":243330,"Delta":119939569},{"NoteNumber":58,"Velocity":50,"Duration":128068,"SoundDuration":128068,"Delta":119939569},{"NoteNumber":63,"Velocity":52,"Duration":657639,"SoundDuration":657639,"Delta":120067638},{"NoteNumber":82,"Velocity":66,"Duration":246952,"SoundDuration":246952,"Delta":120195706},{"NoteNumber":78,"Velocity":66,"Duration":246952,"SoundDuration":246952,"Delta":120195706},{"NoteNumber":82,"Velocity":66,"Duration":256191,"SoundDuration":256191,"Delta":120455602},{"NoteNumber":78,"Velocity":66,"Duration":256191,"SoundDuration":256191,"Delta":120455602},{"NoteNumber":66,"Velocity":54,"Duration":269675,"SoundDuration":269675,"Delta":120455602},{"NoteNumber":70,"Velocity":54,"Duration":269675,"SoundDuration":269675,"Delta":120455602},{"NoteNumber":86,"Velocity":82,"Duration":240012,"SoundDuration":240012,"Delta":120725277},{"NoteNumber":74,"Velocity":70,"Duration":240012,"SoundDuration":240012,"Delta":120725277},{"NoteNumber":62,"Velocity":53,"Duration":320017,"SoundDuration":320017,"Delta":120725277},{"NoteNumber":66,"Velocity":53,"Duration":320017,"SoundDuration":320017,"Delta":120725277},{"NoteNumber":70,"Velocity":53,"Duration":320017,"SoundDuration":320017,"Delta":120725277},{"NoteNumber":74,"Velocity":78,"Duration":864966,"SoundDuration":864966,"Delta":120965290},{"NoteNumber":86,"Velocity":95,"Duration":784961,"SoundDuration":784961,"Delta":121045294},{"NoteNumber":49,"Velocity":47,"Duration":130462,"SoundDuration":130462,"Delta":121175757},{"NoteNumber":82,"Velocity":61,"Duration":245922,"SoundDuration":245922,"Delta":121306220},{"NoteNumber":78,"Velocity":61,"Duration":245922,"SoundDuration":245922,"Delta":121306220},{"NoteNumber":58,"Velocity":50,"Duration":129433,"SoundDuration":129433,"Delta":121306220},{"NoteNumber":61,"Velocity":52,"Duration":129432,"SoundDuration":129432,"Delta":121435653},{"NoteNumber":78,"Velocity":61,"Duration":251911,"SoundDuration":251911,"Delta":121565086},{"NoteNumber":82,"Velocity":61,"Duration":251911,"SoundDuration":251911,"Delta":121565086},{"NoteNumber":66,"Velocity":55,"Duration":132585,"SoundDuration":132585,"Delta":121565086},{"NoteNumber":70,"Velocity":57,"Duration":132584,"SoundDuration":132584,"Delta":121697671},{"NoteNumber":85,"Velocity":82,"Duration":718449,"SoundDuration":718449,"Delta":121830256},{"NoteNumber":73,"Velocity":70,"Duration":718449,"SoundDuration":718449,"Delta":121830256},{"NoteNumber":78,"Velocity":62,"Duration":244950,"SoundDuration":244950,"Delta":122091182},{"NoteNumber":82,"Velocity":62,"Duration":244950,"SoundDuration":244950,"Delta":122091182},{"NoteNumber":78,"Velocity":62,"Duration":252928,"SoundDuration":252928,"Delta":122349025},{"NoteNumber":82,"Velocity":62,"Duration":252928,"SoundDuration":252928,"Delta":122349025},{"NoteNumber":73,"Velocity":76,"Duration":778053,"SoundDuration":778053,"Delta":122548706},{"NoteNumber":85,"Velocity":88,"Duration":711493,"SoundDuration":711493,"Delta":122615266},{"NoteNumber":49,"Velocity":45,"Duration":130462,"SoundDuration":130462,"Delta":122745729},{"NoteNumber":77,"Velocity":50,"Duration":247879,"SoundDuration":247879,"Delta":122876192},{"NoteNumber":81,"Velocity":50,"Duration":247879,"SoundDuration":247879,"Delta":122876192},{"NoteNumber":57,"Velocity":47,"Duration":130463,"SoundDuration":130463,"Delta":122876192},{"NoteNumber":61,"Velocity":49,"Duration":130462,"SoundDuration":130462,"Delta":123006655},{"NoteNumber":77,"Velocity":50,"Duration":240212,"SoundDuration":240212,"Delta":123137118},{"NoteNumber":81,"Velocity":50,"Duration":240212,"SoundDuration":240212,"Delta":123137118},{"NoteNumber":65,"Velocity":52,"Duration":126427,"SoundDuration":126427,"Delta":123137118},{"NoteNumber":69,"Velocity":54,"Duration":126427,"SoundDuration":126427,"Delta":123263546},{"NoteNumber":75,"Velocity":74,"Duration":604083,"SoundDuration":604083,"Delta":123326759},{"NoteNumber":87,"Velocity":85,"Duration":540869,"SoundDuration":540869,"Delta":123389973},{"NoteNumber":81,"Velocity":58,"Duration":255663,"SoundDuration":255663,"Delta":123661724},{"NoteNumber":77,"Velocity":58,"Duration":255663,"SoundDuration":255663,"Delta":123661724},{"NoteNumber":63,"Velocity":47,"Duration":269119,"SoundDuration":269119,"Delta":123661724},{"NoteNumber":65,"Velocity":47,"Duration":269119,"SoundDuration":269119,"Delta":123661724},{"NoteNumber":69,"Velocity":56,"Duration":269119,"SoundDuration":269119,"Delta":123661724},{"NoteNumber":89,"Velocity":86,"Duration":201359,"SoundDuration":201359,"Delta":123930843},{"NoteNumber":77,"Velocity":73,"Duration":201359,"SoundDuration":201359,"Delta":123930843},{"NoteNumber":65,"Velocity":60,"Duration":268479,"SoundDuration":268479,"Delta":123930843},{"NoteNumber":73,"Velocity":83,"Duration":851124,"SoundDuration":851124,"Delta":124132203},{"NoteNumber":85,"Velocity":94,"Duration":784004,"SoundDuration":784004,"Delta":124199323},{"NoteNumber":42,"Velocity":53,"Duration":130462,"SoundDuration":130462,"Delta":124329786},{"NoteNumber":78,"Velocity":55,"Duration":245013,"SoundDuration":245013,"Delta":124460249},{"NoteNumber":82,"Velocity":55,"Duration":245013,"SoundDuration":245013,"Delta":124460249},{"NoteNumber":49,"Velocity":56,"Duration":128954,"SoundDuration":128954,"Delta":124460249},{"NoteNumber":54,"Velocity":60,"Duration":128954,"SoundDuration":128954,"Delta":124589204},{"NoteNumber":78,"Velocity":63,"Duration":251911,"SoundDuration":251911,"Delta":124718158},{"NoteNumber":82,"Velocity":63,"Duration":251911,"SoundDuration":251911,"Delta":124718158},{"NoteNumber":58,"Velocity":64,"Duration":132585,"SoundDuration":132585,"Delta":124718158},{"NoteNumber":61,"Velocity":67,"Duration":132584,"SoundDuration":132584,"Delta":124850743},{"NoteNumber":94,"Velocity":97,"Duration":287784,"SoundDuration":287784,"Delta":124983328},{"NoteNumber":82,"Velocity":82,"Duration":287784,"SoundDuration":287784,"Delta":124983328},{"NoteNumber":70,"Velocity":68,"Duration":287784,"SoundDuration":287784,"Delta":124983328},{"NoteNumber":90,"Velocity":89,"Duration":304584,"SoundDuration":304584,"Delta":125271112},{"NoteNumber":78,"Velocity":75,"Duration":304584,"SoundDuration":304584,"Delta":125271112},{"NoteNumber":66,"Velocity":66,"Duration":304584,"SoundDuration":304584,"Delta":125271112},{"NoteNumber":70,"Velocity":66,"Duration":304584,"SoundDuration":304584,"Delta":125271112},{"NoteNumber":89,"Velocity":87,"Duration":245244,"SoundDuration":245244,"Delta":125575696},{"NoteNumber":77,"Velocity":73,"Duration":245244,"SoundDuration":245244,"Delta":125575696},{"NoteNumber":65,"Velocity":74,"Duration":311563,"SoundDuration":311563,"Delta":125575696},{"NoteNumber":66,"Velocity":62,"Duration":311563,"SoundDuration":311563,"Delta":125575696},{"NoteNumber":70,"Velocity":62,"Duration":311563,"SoundDuration":311563,"Delta":125575696},{"NoteNumber":76,"Velocity":90,"Duration":1104203,"SoundDuration":1104203,"Delta":125820941},{"NoteNumber":88,"Velocity":98,"Duration":1037885,"SoundDuration":1037885,"Delta":125887260},{"NoteNumber":48,"Velocity":54,"Duration":260925,"SoundDuration":260925,"Delta":126017723},{"NoteNumber":78,"Velocity":66,"Duration":260925,"SoundDuration":260925,"Delta":126148186},{"NoteNumber":82,"Velocity":66,"Duration":260925,"SoundDuration":260925,"Delta":126148186},{"NoteNumber":54,"Velocity":56,"Duration":130463,"SoundDuration":130463,"Delta":126278649},{"NoteNumber":78,"Velocity":66,"Duration":256136,"SoundDuration":256136,"Delta":126409112},{"NoteNumber":82,"Velocity":66,"Duration":256136,"SoundDuration":256136,"Delta":126409112},{"NoteNumber":58,"Velocity":60,"Duration":128068,"SoundDuration":128068,"Delta":126409112},{"NoteNumber":64,"Velocity":64,"Duration":646830,"SoundDuration":646830,"Delta":126537180},{"NoteNumber":78,"Velocity":64,"Duration":259896,"SoundDuration":259896,"Delta":126665249},{"NoteNumber":82,"Velocity":64,"Duration":259896,"SoundDuration":259896,"Delta":126665249},{"NoteNumber":75,"Velocity":72,"Duration":258865,"SoundDuration":258865,"Delta":126925145},{"NoteNumber":87,"Velocity":85,"Duration":258865,"SoundDuration":258865,"Delta":126925145},{"NoteNumber":78,"Velocity":64,"Duration":258865,"SoundDuration":258865,"Delta":126925145},{"NoteNumber":82,"Velocity":64,"Duration":258865,"SoundDuration":258865,"Delta":126925145},{"NoteNumber":63,"Velocity":62,"Duration":258865,"SoundDuration":258865,"Delta":126925145},{"NoteNumber":66,"Velocity":62,"Duration":258865,"SoundDuration":258865,"Delta":126925145},{"NoteNumber":70,"Velocity":62,"Duration":258865,"SoundDuration":258865,"Delta":126925145},{"NoteNumber":74,"Velocity":71,"Duration":199125,"SoundDuration":199125,"Delta":127184011},{"NoteNumber":86,"Velocity":84,"Duration":271375,"SoundDuration":271375,"Delta":127184011},{"NoteNumber":78,"Velocity":64,"Duration":271375,"SoundDuration":271375,"Delta":127184011},{"NoteNumber":82,"Velocity":64,"Duration":271375,"SoundDuration":271375,"Delta":127184011},{"NoteNumber":62,"Velocity":59,"Duration":271375,"SoundDuration":271375,"Delta":127184011},{"NoteNumber":66,"Velocity":59,"Duration":271375,"SoundDuration":271375,"Delta":127184011},{"NoteNumber":70,"Velocity":59,"Duration":271375,"SoundDuration":271375,"Delta":127184011},{"NoteNumber":74,"Velocity":82,"Duration":841267,"SoundDuration":841267,"Delta":127388826},{"NoteNumber":86,"Velocity":97,"Duration":774707,"SoundDuration":774707,"Delta":127455386},{"NoteNumber":49,"Velocity":58,"Duration":130462,"SoundDuration":130462,"Delta":127585849},{"NoteNumber":78,"Velocity":58,"Duration":247879,"SoundDuration":247879,"Delta":127716312},{"NoteNumber":82,"Velocity":58,"Duration":247879,"SoundDuration":247879,"Delta":127716312},{"NoteNumber":58,"Velocity":61,"Duration":130463,"SoundDuration":130463,"Delta":127716312},{"NoteNumber":61,"Velocity":63,"Duration":130462,"SoundDuration":130462,"Delta":127846775},{"NoteNumber":78,"Velocity":66,"Duration":240212,"SoundDuration":240212,"Delta":127977238},{"NoteNumber":82,"Velocity":66,"Duration":240212,"SoundDuration":240212,"Delta":127977238},{"NoteNumber":66,"Velocity":66,"Duration":126427,"SoundDuration":126427,"Delta":127977238},{"NoteNumber":70,"Velocity":69,"Duration":126427,"SoundDuration":126427,"Delta":128103666},{"NoteNumber":73,"Velocity":73,"Duration":540869,"SoundDuration":540869,"Delta":128230093},{"NoteNumber":85,"Velocity":86,"Duration":540869,"SoundDuration":540869,"Delta":128230093},{"NoteNumber":82,"Velocity":60,"Duration":255663,"SoundDuration":255663,"Delta":128501844},{"NoteNumber":78,"Velocity":60,"Duration":255663,"SoundDuration":255663,"Delta":128501844},{"NoteNumber":61,"Velocity":66,"Duration":269118,"SoundDuration":269118,"Delta":128501844},{"NoteNumber":66,"Velocity":66,"Duration":269118,"SoundDuration":269118,"Delta":128501844},{"NoteNumber":70,"Velocity":66,"Duration":269118,"SoundDuration":269118,"Delta":128501844},{"NoteNumber":86,"Velocity":83,"Duration":201359,"SoundDuration":201359,"Delta":128770963},{"NoteNumber":74,"Velocity":70,"Duration":201359,"SoundDuration":201359,"Delta":128770963},{"NoteNumber":82,"Velocity":60,"Duration":268480,"SoundDuration":268480,"Delta":128770963},{"NoteNumber":78,"Velocity":60,"Duration":268480,"SoundDuration":268480,"Delta":128770963},{"NoteNumber":62,"Velocity":66,"Duration":268480,"SoundDuration":268480,"Delta":128770963},{"NoteNumber":66,"Velocity":66,"Duration":268480,"SoundDuration":268480,"Delta":128770963},{"NoteNumber":70,"Velocity":66,"Duration":268480,"SoundDuration":268480,"Delta":128770963},{"NoteNumber":75,"Velocity":84,"Duration":855727,"SoundDuration":855727,"Delta":128972323},{"NoteNumber":87,"Velocity":99,"Duration":788607,"SoundDuration":788607,"Delta":129039443},{"NoteNumber":49,"Velocity":63,"Duration":130463,"SoundDuration":130463,"Delta":129169906},{"NoteNumber":80,"Velocity":58,"Duration":245013,"SoundDuration":245013,"Delta":129300369},{"NoteNumber":83,"Velocity":58,"Duration":245013,"SoundDuration":245013,"Delta":129300369},{"NoteNumber":56,"Velocity":65,"Duration":128954,"SoundDuration":128954,"Delta":129300369},{"NoteNumber":59,"Velocity":66,"Duration":128954,"SoundDuration":128954,"Delta":129429324},{"NoteNumber":80,"Velocity":61,"Duration":256283,"SoundDuration":256283,"Delta":129558278},{"NoteNumber":83,"Velocity":61,"Duration":256283,"SoundDuration":256283,"Delta":129558278},{"NoteNumber":63,"Velocity":68,"Duration":134885,"SoundDuration":134885,"Delta":129558278},{"NoteNumber":68,"Velocity":70,"Duration":134885,"SoundDuration":134885,"Delta":129693164},{"NoteNumber":90,"Velocity":98,"Duration":280649,"SoundDuration":280649,"Delta":129828050},{"NoteNumber":78,"Velocity":83,"Duration":280649,"SoundDuration":280649,"Delta":129828050},{"NoteNumber":80,"Velocity":49,"Duration":280649,"SoundDuration":280649,"Delta":129828050},{"NoteNumber":83,"Velocity":62,"Duration":280649,"SoundDuration":280649,"Delta":129828050},{"NoteNumber":68,"Velocity":43,"Duration":280649,"SoundDuration":280649,"Delta":129828050},{"NoteNumber":66,"Velocity":43,"Duration":280649,"SoundDuration":280649,"Delta":129828050},{"NoteNumber":71,"Velocity":69,"Duration":280649,"SoundDuration":280649,"Delta":129828050},{"NoteNumber":89,"Velocity":87,"Duration":290908,"SoundDuration":290908,"Delta":130108699},{"NoteNumber":77,"Velocity":73,"Duration":290908,"SoundDuration":290908,"Delta":130108699},{"NoteNumber":80,"Velocity":67,"Duration":290908,"SoundDuration":290908,"Delta":130108699},{"NoteNumber":83,"Velocity":67,"Duration":290908,"SoundDuration":290908,"Delta":130108699},{"NoteNumber":68,"Velocity":41,"Duration":290908,"SoundDuration":290908,"Delta":130108699},{"NoteNumber":65,"Velocity":41,"Duration":290908,"SoundDuration":290908,"Delta":130108699},{"NoteNumber":71,"Velocity":65,"Duration":290908,"SoundDuration":290908,"Delta":130108699},{"NoteNumber":87,"Velocity":83,"Duration":347517,"SoundDuration":347517,"Delta":130399608},{"NoteNumber":75,"Velocity":70,"Duration":347517,"SoundDuration":347517,"Delta":130399608},{"NoteNumber":83,"Velocity":62,"Duration":411551,"SoundDuration":411551,"Delta":130399608},{"NoteNumber":80,"Velocity":49,"Duration":411551,"SoundDuration":411551,"Delta":130399608},{"NoteNumber":63,"Velocity":40,"Duration":411551,"SoundDuration":411551,"Delta":130399608},{"NoteNumber":68,"Velocity":40,"Duration":411551,"SoundDuration":411551,"Delta":130399608},{"NoteNumber":71,"Velocity":64,"Duration":411551,"SoundDuration":411551,"Delta":130399608},{"NoteNumber":78,"Velocity":60,"Duration":1574092,"SoundDuration":1574092,"Delta":130747125},{"NoteNumber":90,"Velocity":67,"Duration":1510058,"SoundDuration":1510058,"Delta":130811159},{"NoteNumber":47,"Velocity":30,"Duration":127915,"SoundDuration":127915,"Delta":130939075},{"NoteNumber":86,"Velocity":36,"Duration":247299,"SoundDuration":247299,"Delta":131066990},{"NoteNumber":83,"Velocity":30,"Duration":247299,"SoundDuration":247299,"Delta":131066990},{"NoteNumber":54,"Velocity":32,"Duration":130157,"SoundDuration":130157,"Delta":131066990},{"NoteNumber":59,"Velocity":34,"Duration":130157,"SoundDuration":130157,"Delta":131197148},{"NoteNumber":86,"Velocity":38,"Duration":247299,"SoundDuration":247299,"Delta":131327305},{"NoteNumber":83,"Velocity":32,"Duration":247299,"SoundDuration":247299,"Delta":131327305},{"NoteNumber":62,"Velocity":35,"Duration":130157,"SoundDuration":130157,"Delta":131327305},{"NoteNumber":66,"Velocity":36,"Duration":130157,"SoundDuration":130157,"Delta":131457463},{"NoteNumber":86,"Velocity":36,"Duration":243330,"SoundDuration":243330,"Delta":131587620},{"NoteNumber":83,"Velocity":29,"Duration":243330,"SoundDuration":243330,"Delta":131587620},{"NoteNumber":71,"Velocity":37,"Duration":128068,"SoundDuration":128068,"Delta":131587620},{"NoteNumber":74,"Velocity":33,"Duration":128068,"SoundDuration":128068,"Delta":131715689},{"NoteNumber":86,"Velocity":36,"Duration":248462,"SoundDuration":248462,"Delta":131843757},{"NoteNumber":83,"Velocity":29,"Duration":248462,"SoundDuration":248462,"Delta":131843757},{"NoteNumber":86,"Velocity":35,"Duration":268105,"SoundDuration":268105,"Delta":132105297},{"NoteNumber":83,"Velocity":29,"Duration":268105,"SoundDuration":268105,"Delta":132105297},{"NoteNumber":79,"Velocity":58,"Duration":1589042,"SoundDuration":1589042,"Delta":132321218},{"NoteNumber":91,"Velocity":66,"Duration":1523810,"SoundDuration":1523810,"Delta":132386449},{"NoteNumber":43,"Velocity":29,"Duration":130157,"SoundDuration":130157,"Delta":132516607},{"NoteNumber":86,"Velocity":35,"Duration":250230,"SoundDuration":250230,"Delta":132646764},{"NoteNumber":83,"Velocity":29,"Duration":250230,"SoundDuration":250230,"Delta":132646764},{"NoteNumber":50,"Velocity":31,"Duration":131700,"SoundDuration":131700,"Delta":132646764},{"NoteNumber":55,"Velocity":32,"Duration":131700,"SoundDuration":131700,"Delta":132778465},{"NoteNumber":86,"Velocity":36,"Duration":250230,"SoundDuration":250230,"Delta":132910165},{"NoteNumber":83,"Velocity":29,"Duration":250230,"SoundDuration":250230,"Delta":132910165},{"NoteNumber":59,"Velocity":33,"Duration":131700,"SoundDuration":131700,"Delta":132910165},{"NoteNumber":62,"Velocity":34,"Duration":131700,"SoundDuration":131700,"Delta":133041866},{"NoteNumber":86,"Velocity":34,"Duration":246732,"SoundDuration":246732,"Delta":133173566},{"NoteNumber":83,"Velocity":28,"Duration":246732,"SoundDuration":246732,"Delta":133173566},{"NoteNumber":67,"Velocity":35,"Duration":129859,"SoundDuration":129859,"Delta":133173566},{"NoteNumber":71,"Velocity":31,"Duration":129858,"SoundDuration":129858,"Delta":133303425},{"NoteNumber":86,"Velocity":32,"Duration":249050,"SoundDuration":249050,"Delta":133433284},{"NoteNumber":83,"Velocity":27,"Duration":249050,"SoundDuration":249050,"Delta":133433284},{"NoteNumber":86,"Velocity":32,"Duration":268000,"SoundDuration":268000,"Delta":133695442},{"NoteNumber":83,"Velocity":27,"Duration":268000,"SoundDuration":268000,"Delta":133695442},{"NoteNumber":80,"Velocity":54,"Duration":1631638,"SoundDuration":1631638,"Delta":133910260},{"NoteNumber":92,"Velocity":60,"Duration":1565161,"SoundDuration":1565161,"Delta":133976738},{"NoteNumber":40,"Velocity":26,"Duration":132013,"SoundDuration":132013,"Delta":134108751},{"NoteNumber":88,"Velocity":31,"Duration":255663,"SoundDuration":255663,"Delta":134240764},{"NoteNumber":83,"Velocity":27,"Duration":255663,"SoundDuration":255663,"Delta":134240764},{"NoteNumber":47,"Velocity":28,"Duration":134559,"SoundDuration":134559,"Delta":134240764},{"NoteNumber":52,"Velocity":30,"Duration":134559,"SoundDuration":134559,"Delta":134375323},{"NoteNumber":83,"Velocity":27,"Duration":255663,"SoundDuration":255663,"Delta":134509883},{"NoteNumber":88,"Velocity":33,"Duration":255663,"SoundDuration":255663,"Delta":134509883},{"NoteNumber":56,"Velocity":31,"Duration":134559,"SoundDuration":134559,"Delta":134509883},{"NoteNumber":59,"Velocity":31,"Duration":134559,"SoundDuration":134559,"Delta":134644442},{"NoteNumber":83,"Velocity":25,"Duration":252614,"SoundDuration":252614,"Delta":134779002},{"NoteNumber":88,"Velocity":30,"Duration":252614,"SoundDuration":252614,"Delta":134779002},{"NoteNumber":64,"Velocity":32,"Duration":132955,"SoundDuration":132955,"Delta":134779002},{"NoteNumber":68,"Velocity":28,"Duration":132954,"SoundDuration":132954,"Delta":134911957},{"NoteNumber":83,"Velocity":25,"Duration":258163,"SoundDuration":258163,"Delta":135044912},{"NoteNumber":88,"Velocity":29,"Duration":258163,"SoundDuration":258163,"Delta":135044912},{"NoteNumber":83,"Velocity":25,"Duration":279719,"SoundDuration":279719,"Delta":135316663},{"NoteNumber":88,"Velocity":29,"Duration":279719,"SoundDuration":279719,"Delta":135316663},{"NoteNumber":81,"Velocity":49,"Duration":1707660,"SoundDuration":1707660,"Delta":135541899},{"NoteNumber":93,"Velocity":56,"Duration":1639556,"SoundDuration":1639556,"Delta":135610004},{"NoteNumber":38,"Velocity":24,"Duration":136543,"SoundDuration":136543,"Delta":135746547},{"NoteNumber":86,"Velocity":24,"Duration":272089,"SoundDuration":272089,"Delta":135883091},{"NoteNumber":90,"Velocity":29,"Duration":272089,"SoundDuration":272089,"Delta":135883091},{"NoteNumber":45,"Velocity":25,"Duration":143204,"SoundDuration":143204,"Delta":135883091},{"NoteNumber":50,"Velocity":27,"Duration":143204,"SoundDuration":143204,"Delta":136026296},{"NoteNumber":86,"Velocity":26,"Duration":272089,"SoundDuration":272089,"Delta":136169501},{"NoteNumber":90,"Velocity":29,"Duration":272089,"SoundDuration":272089,"Delta":136169501},{"NoteNumber":54,"Velocity":27,"Duration":143205,"SoundDuration":143205,"Delta":136169501},{"NoteNumber":57,"Velocity":29,"Duration":143204,"SoundDuration":143204,"Delta":136312706},{"NoteNumber":86,"Velocity":24,"Duration":263962,"SoundDuration":263962,"Delta":136455911},{"NoteNumber":90,"Velocity":27,"Duration":263962,"SoundDuration":263962,"Delta":136455911},{"NoteNumber":62,"Velocity":30,"Duration":138927,"SoundDuration":138927,"Delta":136455911},{"NoteNumber":66,"Velocity":27,"Duration":138927,"SoundDuration":138927,"Delta":136594838},{"NoteNumber":86,"Velocity":22,"Duration":270706,"SoundDuration":270706,"Delta":136733766},{"NoteNumber":90,"Velocity":27,"Duration":270706,"SoundDuration":270706,"Delta":136733766},{"NoteNumber":86,"Velocity":22,"Duration":287977,"SoundDuration":287977,"Delta":137018720},{"NoteNumber":90,"Velocity":27,"Duration":287977,"SoundDuration":287977,"Delta":137018720},{"NoteNumber":82,"Velocity":45,"Duration":2863364,"SoundDuration":2863364,"Delta":137249560},{"NoteNumber":94,"Velocity":47,"Duration":2791942,"SoundDuration":2791942,"Delta":137320982},{"NoteNumber":30,"Velocity":21,"Duration":155391,"SoundDuration":155391,"Delta":137477910},{"NoteNumber":85,"Velocity":20,"Duration":292322,"SoundDuration":292322,"Delta":137633301},{"NoteNumber":90,"Velocity":25,"Duration":292322,"SoundDuration":292322,"Delta":137633301},{"NoteNumber":37,"Velocity":21,"Duration":153853,"SoundDuration":153853,"Delta":137633301},{"NoteNumber":42,"Velocity":23,"Duration":153853,"SoundDuration":153853,"Delta":137787155},{"NoteNumber":85,"Velocity":21,"Duration":288622,"SoundDuration":288622,"Delta":137941009},{"NoteNumber":90,"Velocity":27,"Duration":288622,"SoundDuration":288622,"Delta":137941009},{"NoteNumber":46,"Velocity":24,"Duration":151906,"SoundDuration":151906,"Delta":137941009},{"NoteNumber":49,"Velocity":25,"Duration":151906,"SoundDuration":151906,"Delta":138092916},{"NoteNumber":85,"Velocity":20,"Duration":292459,"SoundDuration":292459,"Delta":138244822},{"NoteNumber":90,"Velocity":25,"Duration":292459,"SoundDuration":292459,"Delta":138244822},{"NoteNumber":54,"Velocity":27,"Duration":153276,"SoundDuration":153276,"Delta":138244822},{"NoteNumber":49,"Velocity":27,"Duration":154646,"SoundDuration":154646,"Delta":138398099},{"NoteNumber":85,"Velocity":20,"Duration":293829,"SoundDuration":293829,"Delta":138552746},{"NoteNumber":90,"Velocity":25,"Duration":293829,"SoundDuration":293829,"Delta":138552746},{"NoteNumber":54,"Velocity":27,"Duration":154647,"SoundDuration":154647,"Delta":138552746},{"NoteNumber":58,"Velocity":27,"Duration":154647,"SoundDuration":154647,"Delta":138707393},{"NoteNumber":85,"Velocity":20,"Duration":294832,"SoundDuration":294832,"Delta":138862040},{"NoteNumber":90,"Velocity":25,"Duration":294832,"SoundDuration":294832,"Delta":138862040},{"NoteNumber":61,"Velocity":28,"Duration":155175,"SoundDuration":155175,"Delta":138862040},{"NoteNumber":63,"Velocity":28,"Duration":155174,"SoundDuration":155174,"Delta":139017215},{"NoteNumber":85,"Velocity":20,"Duration":295677,"SoundDuration":295677,"Delta":139172390},{"NoteNumber":90,"Velocity":25,"Duration":295677,"SoundDuration":295677,"Delta":139172390},{"NoteNumber":66,"Velocity":29,"Duration":155495,"SoundDuration":155495,"Delta":139172390},{"NoteNumber":70,"Velocity":29,"Duration":155786,"SoundDuration":155786,"Delta":139327886},{"NoteNumber":85,"Velocity":20,"Duration":296928,"SoundDuration":296928,"Delta":139483672},{"NoteNumber":90,"Velocity":25,"Duration":296928,"SoundDuration":296928,"Delta":139483672},{"NoteNumber":73,"Velocity":30,"Duration":156078,"SoundDuration":156078,"Delta":139483672},{"NoteNumber":75,"Velocity":30,"Duration":156557,"SoundDuration":156557,"Delta":139639750},{"NoteNumber":90,"Velocity":25,"Duration":300657,"SoundDuration":300657,"Delta":139796308},{"NoteNumber":85,"Velocity":20,"Duration":300657,"SoundDuration":300657,"Delta":139796308},{"NoteNumber":78,"Velocity":30,"Duration":157639,"SoundDuration":157639,"Delta":139796308},{"NoteNumber":82,"Velocity":31,"Duration":158976,"SoundDuration":158976,"Delta":139953948},{"NoteNumber":85,"Velocity":31,"Duration":160416,"SoundDuration":160416,"Delta":140112924},{"NoteNumber":87,"Velocity":34,"Duration":145544,"SoundDuration":145544,"Delta":140273340},{"NoteNumber":90,"Velocity":36,"Duration":147635,"SoundDuration":147635,"Delta":140435146},{"NoteNumber":94,"Velocity":37,"Duration":151727,"SoundDuration":151727,"Delta":140599407},{"NoteNumber":97,"Velocity":39,"Duration":164644,"SoundDuration":164644,"Delta":140768230},{"NoteNumber":99,"Velocity":41,"Duration":275481,"SoundDuration":275481,"Delta":140951168},{"NoteNumber":102,"Velocity":42,"Duration":867052,"SoundDuration":867052,"Delta":141257259},{"NoteNumber":35,"Velocity":27,"Duration":3450999,"SoundDuration":3450999,"Delta":143587461},{"NoteNumber":47,"Velocity":29,"Duration":3396809,"SoundDuration":3396809,"Delta":143641652},{"NoteNumber":57,"Velocity":30,"Duration":3332331,"SoundDuration":3332331,"Delta":143706129},{"NoteNumber":63,"Velocity":33,"Duration":1713182,"SoundDuration":1713182,"Delta":143770606},{"NoteNumber":66,"Velocity":36,"Duration":3203377,"SoundDuration":3203377,"Delta":143835084},{"NoteNumber":69,"Velocity":39,"Duration":3138900,"SoundDuration":3138900,"Delta":143899561},{"NoteNumber":78,"Velocity":44,"Duration":3072890,"SoundDuration":3072890,"Delta":143965570},{"NoteNumber":62,"Velocity":33,"Duration":1554672,"SoundDuration":1554672,"Delta":145483789},{"NoteNumber":30,"Velocity":30,"Duration":6907258,"SoundDuration":6907258,"Delta":147038461},{"NoteNumber":42,"Velocity":25,"Duration":6403099,"SoundDuration":6403099,"Delta":147542620},{"NoteNumber":49,"Velocity":25,"Duration":5898940,"SoundDuration":5898940,"Delta":148046779},{"NoteNumber":54,"Velocity":25,"Duration":5394781,"SoundDuration":5394781,"Delta":148550938},{"NoteNumber":58,"Velocity":25,"Duration":4890622,"SoundDuration":4890622,"Delta":149055097},{"NoteNumber":61,"Velocity":24,"Duration":4381845,"SoundDuration":4381845,"Delta":149563873},{"NoteNumber":66,"Velocity":36,"Duration":3755867,"SoundDuration":3755867,"Delta":150189851}],"license":{"name":"Creative Commons Attribution-ShareAlike 3.0 Germany","url":"http://creativecommons.org/licenses/by-sa/3.0/de/deed.en","text":"The MIDI, audio (MP3, OGG) and video files of Bernd Krueger are licensed under the cc-by-sa Germany License. This means that you can use and adapt the files, as long as you attribute the copyright holder.\n\nName: Bernd Krueger\nSource: http://www.piano-midi.de\n\nThe distribution or public playback of the files is only allowed under identical license conditions.\n\nThe scores are open source.","attribution":"MIDI files by Bernd Krueger (piano-midi.de)","attributionUrl":"http://www.piano-midi.de"}}