{"title":"Grieg: Lyrische Stücke, Albumblatt, Opus 42 Nr. 2","artist":"Grieg","durationMs":186875,"midiSha256":"1caf9d32f351d1fdebcbf015c333aaa136f757c6d61e98cf0dba3190b2dd34ab","midiObject":[{"NoteNumber":57,"Velocity":34,"Duration":625245,"SoundDuration":625245,"Delta":0},{"NoteNumber":69,"Velocity":42,"Duration":313851,"SoundDuration":313851,"Delta":0},{"NoteNumber":41,"Velocity":24,"Duration":2554060,"SoundDuration":2554060,"Delta":0},{"NoteNumber":48,"Velocity":28,"Duration":625245,"SoundDuration":625245,"Delta":0},{"NoteNumber":67,"Velocity":31,"Duration":99213,"SoundDuration":99213,"Delta":313851},{"NoteNumber":65,"Velocity":31,"Duration":99213,"SoundDuration":99213,"Delta":413064},{"NoteNumber":67,"Velocity":31,"Duration":112968,"SoundDuration":112968,"Delta":512277},{"NoteNumber":58,"Velocity":30,"Duration":636532,"SoundDuration":636532,"Delta":625245},{"NoteNumber":69,"Velocity":36,"Duration":418468,"SoundDuration":418468,"Delta":625245},{"NoteNumber":50,"Velocity":24,"Duration":636532,"SoundDuration":636532,"Delta":625245},{"NoteNumber":65,"Velocity":36,"Duration":218064,"SoundDuration":218064,"Delta":1043713},{"NoteNumber":60,"Velocity":34,"Duration":627437,"SoundDuration":627437,"Delta":1261777},{"NoteNumber":69,"Velocity":42,"Duration":315081,"SoundDuration":315081,"Delta":1261777},{"NoteNumber":52,"Velocity":28,"Duration":627437,"SoundDuration":627437,"Delta":1261777},{"NoteNumber":67,"Velocity":32,"Duration":99213,"SoundDuration":99213,"Delta":1576859},{"NoteNumber":65,"Velocity":32,"Duration":99213,"SoundDuration":99213,"Delta":1676072},{"NoteNumber":67,"Velocity":32,"Duration":113929,"SoundDuration":113929,"Delta":1775285},{"NoteNumber":58,"Velocity":30,"Duration":608360,"SoundDuration":608360,"Delta":1889215},{"NoteNumber":69,"Velocity":36,"Duration":608360,"SoundDuration":608360,"Delta":1889215},{"NoteNumber":50,"Velocity":24,"Duration":608360,"SoundDuration":608360,"Delta":1889215},{"NoteNumber":41,"Velocity":25,"Duration":1335130,"SoundDuration":1335130,"Delta":2497576},{"NoteNumber":48,"Velocity":29,"Duration":1276881,"SoundDuration":1276881,"Delta":2525818},{"NoteNumber":65,"Velocity":36,"Duration":615189,"SoundDuration":615189,"Delta":2554060},{"NoteNumber":72,"Velocity":45,"Duration":317550,"SoundDuration":317550,"Delta":2554060},{"NoteNumber":57,"Velocity":30,"Duration":615189,"SoundDuration":615189,"Delta":2554060},{"NoteNumber":74,"Velocity":38,"Duration":99212,"SoundDuration":99212,"Delta":2871610},{"NoteNumber":76,"Velocity":42,"Duration":99213,"SoundDuration":99213,"Delta":2970823},{"NoteNumber":74,"Velocity":38,"Duration":99213,"SoundDuration":99213,"Delta":3070036},{"NoteNumber":72,"Velocity":47,"Duration":423400,"SoundDuration":423400,"Delta":3169249},{"NoteNumber":65,"Velocity":38,"Duration":423400,"SoundDuration":423400,"Delta":3169249},{"NoteNumber":58,"Velocity":30,"Duration":663457,"SoundDuration":663457,"Delta":3169249},{"NoteNumber":64,"Velocity":42,"Duration":240057,"SoundDuration":240057,"Delta":3592649},{"NoteNumber":68,"Velocity":42,"Duration":240057,"SoundDuration":240057,"Delta":3592649},{"NoteNumber":41,"Velocity":23,"Duration":1194486,"SoundDuration":1194486,"Delta":3772692},{"NoteNumber":48,"Velocity":27,"Duration":1136117,"SoundDuration":1136117,"Delta":3802699},{"NoteNumber":72,"Velocity":48,"Duration":680683,"SoundDuration":680683,"Delta":3832707},{"NoteNumber":65,"Velocity":40,"Duration":1134472,"SoundDuration":1134472,"Delta":3832707},{"NoteNumber":57,"Velocity":32,"Duration":680683,"SoundDuration":680683,"Delta":3832707},{"NoteNumber":77,"Velocity":52,"Duration":453789,"SoundDuration":453789,"Delta":4513390},{"NoteNumber":60,"Velocity":40,"Duration":625245,"SoundDuration":625245,"Delta":5194074},{"NoteNumber":72,"Velocity":50,"Duration":313850,"SoundDuration":313850,"Delta":5194074},{"NoteNumber":45,"Velocity":29,"Duration":2558151,"SoundDuration":2558151,"Delta":5194074},{"NoteNumber":52,"Velocity":34,"Duration":625245,"SoundDuration":625245,"Delta":5194074},{"NoteNumber":71,"Velocity":37,"Duration":99212,"SoundDuration":99212,"Delta":5507924},{"NoteNumber":69,"Velocity":37,"Duration":99213,"SoundDuration":99213,"Delta":5607137},{"NoteNumber":71,"Velocity":37,"Duration":112968,"SoundDuration":112968,"Delta":5706351},{"NoteNumber":62,"Velocity":36,"Duration":636532,"SoundDuration":636532,"Delta":5819319},{"NoteNumber":72,"Velocity":43,"Duration":418467,"SoundDuration":418467,"Delta":5819319},{"NoteNumber":53,"Velocity":29,"Duration":636532,"SoundDuration":636532,"Delta":5819319},{"NoteNumber":69,"Velocity":43,"Duration":218064,"SoundDuration":218064,"Delta":6237787},{"NoteNumber":64,"Velocity":40,"Duration":627437,"SoundDuration":627437,"Delta":6455852},{"NoteNumber":72,"Velocity":50,"Duration":315081,"SoundDuration":315081,"Delta":6455852},{"NoteNumber":55,"Velocity":34,"Duration":627437,"SoundDuration":627437,"Delta":6455852},{"NoteNumber":71,"Velocity":38,"Duration":99212,"SoundDuration":99212,"Delta":6770933},{"NoteNumber":69,"Velocity":38,"Duration":99213,"SoundDuration":99213,"Delta":6870146},{"NoteNumber":71,"Velocity":38,"Duration":113929,"SoundDuration":113929,"Delta":6969359},{"NoteNumber":62,"Velocity":36,"Duration":612451,"SoundDuration":612451,"Delta":7083289},{"NoteNumber":72,"Velocity":43,"Duration":612451,"SoundDuration":612451,"Delta":7083289},{"NoteNumber":53,"Velocity":29,"Duration":612451,"SoundDuration":612451,"Delta":7083289},{"NoteNumber":45,"Velocity":25,"Duration":1335130,"SoundDuration":1335130,"Delta":7695741},{"NoteNumber":52,"Velocity":29,"Duration":1276881,"SoundDuration":1276881,"Delta":7723983},{"NoteNumber":69,"Velocity":40,"Duration":615189,"SoundDuration":615189,"Delta":7752225},{"NoteNumber":76,"Velocity":50,"Duration":317550,"SoundDuration":317550,"Delta":7752225},{"NoteNumber":60,"Velocity":34,"Duration":615189,"SoundDuration":615189,"Delta":7752225},{"NoteNumber":77,"Velocity":42,"Duration":99213,"SoundDuration":99213,"Delta":8069775},{"NoteNumber":79,"Velocity":46,"Duration":99212,"SoundDuration":99212,"Delta":8168988},{"NoteNumber":77,"Velocity":42,"Duration":99213,"SoundDuration":99213,"Delta":8268201},{"NoteNumber":76,"Velocity":51,"Duration":423400,"SoundDuration":423400,"Delta":8367414},{"NoteNumber":69,"Velocity":41,"Duration":423400,"SoundDuration":423400,"Delta":8367414},{"NoteNumber":62,"Velocity":33,"Duration":663457,"SoundDuration":663457,"Delta":8367414},{"NoteNumber":68,"Velocity":45,"Duration":240057,"SoundDuration":240057,"Delta":8790814},{"NoteNumber":72,"Velocity":45,"Duration":240057,"SoundDuration":240057,"Delta":8790814},{"NoteNumber":76,"Velocity":51,"Duration":661132,"SoundDuration":661132,"Delta":9030872},{"NoteNumber":69,"Velocity":42,"Duration":881510,"SoundDuration":881510,"Delta":9030872},{"NoteNumber":45,"Velocity":25,"Duration":1318881,"SoundDuration":1318881,"Delta":9030872},{"NoteNumber":52,"Velocity":29,"Duration":1318881,"SoundDuration":1318881,"Delta":9030872},{"NoteNumber":60,"Velocity":34,"Duration":1318881,"SoundDuration":1318881,"Delta":9030872},{"NoteNumber":81,"Velocity":53,"Duration":1081148,"SoundDuration":1081148,"Delta":9692004},{"NoteNumber":68,"Velocity":57,"Duration":214240,"SoundDuration":214240,"Delta":9912382},{"NoteNumber":67,"Velocity":61,"Duration":223131,"SoundDuration":223131,"Delta":10126622},{"NoteNumber":66,"Velocity":70,"Duration":1266868,"SoundDuration":1266868,"Delta":10349753},{"NoteNumber":50,"Velocity":29,"Duration":1211546,"SoundDuration":1211546,"Delta":10349753},{"NoteNumber":60,"Velocity":34,"Duration":1211546,"SoundDuration":1211546,"Delta":10349753},{"NoteNumber":78,"Velocity":53,"Duration":211700,"SoundDuration":211700,"Delta":10773153},{"NoteNumber":74,"Velocity":53,"Duration":205240,"SoundDuration":205240,"Delta":10984853},{"NoteNumber":75,"Velocity":53,"Duration":205240,"SoundDuration":205240,"Delta":11190094},{"NoteNumber":76,"Velocity":53,"Duration":221287,"SoundDuration":221287,"Delta":11395334},{"NoteNumber":43,"Velocity":34,"Duration":1130496,"SoundDuration":1130496,"Delta":11561300},{"NoteNumber":50,"Velocity":34,"Duration":1047741,"SoundDuration":1047741,"Delta":11588961},{"NoteNumber":65,"Velocity":42,"Duration":1075174,"SoundDuration":1075174,"Delta":11616622},{"NoteNumber":77,"Velocity":53,"Duration":418468,"SoundDuration":418468,"Delta":11616622},{"NoteNumber":59,"Velocity":34,"Duration":1075174,"SoundDuration":1075174,"Delta":11616622},{"NoteNumber":74,"Velocity":49,"Duration":215951,"SoundDuration":215951,"Delta":12035090},{"NoteNumber":71,"Velocity":41,"Duration":440754,"SoundDuration":440754,"Delta":12251042},{"NoteNumber":66,"Velocity":64,"Duration":1266868,"SoundDuration":1266868,"Delta":12912174},{"NoteNumber":50,"Velocity":29,"Duration":1211546,"SoundDuration":1211546,"Delta":12912174},{"NoteNumber":60,"Velocity":34,"Duration":1211546,"SoundDuration":1211546,"Delta":12912174},{"NoteNumber":81,"Velocity":53,"Duration":211699,"SoundDuration":211699,"Delta":13123874},{"NoteNumber":78,"Velocity":47,"Duration":211700,"SoundDuration":211700,"Delta":13335574},{"NoteNumber":74,"Velocity":49,"Duration":205240,"SoundDuration":205240,"Delta":13547274},{"NoteNumber":75,"Velocity":53,"Duration":205240,"SoundDuration":205240,"Delta":13752515},{"NoteNumber":76,"Velocity":54,"Duration":430521,"SoundDuration":430521,"Delta":13957755},{"NoteNumber":43,"Velocity":38,"Duration":1130496,"SoundDuration":1130496,"Delta":14123721},{"NoteNumber":50,"Velocity":40,"Duration":1047741,"SoundDuration":1047741,"Delta":14151382},{"NoteNumber":65,"Velocity":42,"Duration":1212910,"SoundDuration":1212910,"Delta":14179043},{"NoteNumber":59,"Velocity":43,"Duration":1075174,"SoundDuration":1075174,"Delta":14179043},{"NoteNumber":77,"Velocity":62,"Duration":209234,"SoundDuration":209234,"Delta":14388277},{"NoteNumber":74,"Velocity":53,"Duration":215951,"SoundDuration":215951,"Delta":14597511},{"NoteNumber":69,"Velocity":56,"Duration":220377,"SoundDuration":220377,"Delta":14813463},{"NoteNumber":70,"Velocity":58,"Duration":220377,"SoundDuration":220377,"Delta":15033840},{"NoteNumber":71,"Velocity":63,"Duration":431422,"SoundDuration":431422,"Delta":15254218},{"NoteNumber":43,"Velocity":40,"Duration":1780684,"SoundDuration":1780684,"Delta":15391954},{"NoteNumber":50,"Velocity":43,"Duration":1753136,"SoundDuration":1753136,"Delta":15419501},{"NoteNumber":57,"Velocity":46,"Duration":1725589,"SoundDuration":1725589,"Delta":15447048},{"NoteNumber":60,"Velocity":48,"Duration":1698042,"SoundDuration":1698042,"Delta":15474595},{"NoteNumber":72,"Velocity":58,"Duration":211044,"SoundDuration":211044,"Delta":15685640},{"NoteNumber":69,"Velocity":53,"Duration":211044,"SoundDuration":211044,"Delta":15896684},{"NoteNumber":61,"Velocity":47,"Duration":211044,"SoundDuration":211044,"Delta":16107729},{"NoteNumber":62,"Velocity":43,"Duration":211044,"SoundDuration":211044,"Delta":16318773},{"NoteNumber":64,"Velocity":44,"Duration":222387,"SoundDuration":222387,"Delta":16529818},{"NoteNumber":65,"Velocity":46,"Duration":210216,"SoundDuration":210216,"Delta":16752205},{"NoteNumber":68,"Velocity":42,"Duration":210216,"SoundDuration":210216,"Delta":16962421},{"NoteNumber":69,"Velocity":39,"Duration":218770,"SoundDuration":218770,"Delta":17172638},{"NoteNumber":73,"Velocity":31,"Duration":224249,"SoundDuration":224249,"Delta":17391408},{"NoteNumber":65,"Velocity":25,"Duration":56569,"SoundDuration":56569,"Delta":17615657},{"NoteNumber":69,"Velocity":25,"Duration":56569,"SoundDuration":56569,"Delta":17615657},{"NoteNumber":74,"Velocity":32,"Duration":56569,"SoundDuration":56569,"Delta":17615657},{"NoteNumber":69,"Velocity":26,"Duration":57916,"SoundDuration":57916,"Delta":17844437},{"NoteNumber":74,"Velocity":26,"Duration":57916,"SoundDuration":57916,"Delta":17844437},{"NoteNumber":77,"Velocity":33,"Duration":57916,"SoundDuration":57916,"Delta":17844437},{"NoteNumber":81,"Velocity":40,"Duration":58974,"SoundDuration":58974,"Delta":18077677},{"NoteNumber":77,"Velocity":32,"Duration":58974,"SoundDuration":58974,"Delta":18077677},{"NoteNumber":74,"Velocity":32,"Duration":58974,"SoundDuration":58974,"Delta":18077677},{"NoteNumber":64,"Velocity":40,"Duration":1281347,"SoundDuration":1281347,"Delta":19393922},{"NoteNumber":59,"Velocity":36,"Duration":1281347,"SoundDuration":1281347,"Delta":19393922},{"NoteNumber":53,"Velocity":36,"Duration":1281347,"SoundDuration":1281347,"Delta":19393922},{"NoteNumber":44,"Velocity":44,"Duration":1055222,"SoundDuration":1055222,"Delta":19393922},{"NoteNumber":43,"Velocity":32,"Duration":226124,"SoundDuration":226124,"Delta":20449144},{"NoteNumber":60,"Velocity":40,"Duration":315081,"SoundDuration":315081,"Delta":20675269},{"NoteNumber":36,"Velocity":21,"Duration":627437,"SoundDuration":627437,"Delta":20675269},{"NoteNumber":52,"Velocity":32,"Duration":627437,"SoundDuration":627437,"Delta":20675269},{"NoteNumber":43,"Velocity":27,"Duration":627437,"SoundDuration":627437,"Delta":20675269},{"NoteNumber":59,"Velocity":30,"Duration":99212,"SoundDuration":99212,"Delta":20990351},{"NoteNumber":60,"Velocity":30,"Duration":99213,"SoundDuration":99213,"Delta":21089564},{"NoteNumber":62,"Velocity":30,"Duration":113929,"SoundDuration":113929,"Delta":21188777},{"NoteNumber":64,"Velocity":34,"Duration":668936,"SoundDuration":668936,"Delta":21302707},{"NoteNumber":53,"Velocity":30,"Duration":668936,"SoundDuration":668936,"Delta":21302707},{"NoteNumber":59,"Velocity":38,"Duration":668936,"SoundDuration":668936,"Delta":21302707},{"NoteNumber":44,"Velocity":38,"Duration":668936,"SoundDuration":668936,"Delta":21302707},{"NoteNumber":56,"Velocity":30,"Duration":668936,"SoundDuration":668936,"Delta":21302707},{"NoteNumber":60,"Velocity":40,"Duration":315081,"SoundDuration":315081,"Delta":21971643},{"NoteNumber":36,"Velocity":21,"Duration":627437,"SoundDuration":627437,"Delta":21971643},{"NoteNumber":52,"Velocity":32,"Duration":627437,"SoundDuration":627437,"Delta":21971643},{"NoteNumber":43,"Velocity":27,"Duration":627437,"SoundDuration":627437,"Delta":21971643},{"NoteNumber":59,"Velocity":30,"Duration":99212,"SoundDuration":99212,"Delta":22286725},{"NoteNumber":60,"Velocity":30,"Duration":99213,"SoundDuration":99213,"Delta":22385938},{"NoteNumber":62,"Velocity":30,"Duration":113929,"SoundDuration":113929,"Delta":22485151},{"NoteNumber":64,"Velocity":34,"Duration":666882,"SoundDuration":666882,"Delta":22599080},{"NoteNumber":53,"Velocity":30,"Duration":666882,"SoundDuration":666882,"Delta":22599080},{"NoteNumber":59,"Velocity":38,"Duration":666882,"SoundDuration":666882,"Delta":22599080},{"NoteNumber":44,"Velocity":38,"Duration":666882,"SoundDuration":666882,"Delta":22599080},{"NoteNumber":56,"Velocity":30,"Duration":666882,"SoundDuration":666882,"Delta":22599080},{"NoteNumber":60,"Velocity":29,"Duration":208579,"SoundDuration":208579,"Delta":23265963},{"NoteNumber":52,"Velocity":24,"Duration":208579,"SoundDuration":208579,"Delta":23265963},{"NoteNumber":36,"Velocity":22,"Duration":208579,"SoundDuration":208579,"Delta":23265963},{"NoteNumber":43,"Velocity":26,"Duration":208579,"SoundDuration":208579,"Delta":23265963},{"NoteNumber":64,"Velocity":22,"Duration":217085,"SoundDuration":217085,"Delta":23889094},{"NoteNumber":72,"Velocity":27,"Duration":212705,"SoundDuration":212705,"Delta":23891701},{"NoteNumber":48,"Velocity":22,"Duration":212705,"SoundDuration":212705,"Delta":23891701},{"NoteNumber":55,"Velocity":26,"Duration":212705,"SoundDuration":212705,"Delta":23891701},{"NoteNumber":84,"Velocity":28,"Duration":1111934,"SoundDuration":1111934,"Delta":24529818},{"NoteNumber":76,"Velocity":23,"Duration":1111934,"SoundDuration":1111934,"Delta":24529818},{"NoteNumber":60,"Velocity":23,"Duration":1111934,"SoundDuration":1111934,"Delta":24529818},{"NoteNumber":67,"Velocity":28,"Duration":1111934,"SoundDuration":1111934,"Delta":24529818},{"NoteNumber":57,"Velocity":34,"Duration":625245,"SoundDuration":625245,"Delta":25864140},{"NoteNumber":69,"Velocity":42,"Duration":313850,"SoundDuration":313850,"Delta":25864140},{"NoteNumber":41,"Velocity":24,"Duration":2554060,"SoundDuration":2554060,"Delta":25864140},{"NoteNumber":48,"Velocity":28,"Duration":625245,"SoundDuration":625245,"Delta":25864140},{"NoteNumber":67,"Velocity":31,"Duration":99212,"SoundDuration":99212,"Delta":26177991},{"NoteNumber":65,"Velocity":31,"Duration":99213,"SoundDuration":99213,"Delta":26277204},{"NoteNumber":67,"Velocity":31,"Duration":112968,"SoundDuration":112968,"Delta":26376417},{"NoteNumber":58,"Velocity":30,"Duration":636532,"SoundDuration":636532,"Delta":26489386},{"NoteNumber":69,"Velocity":36,"Duration":418468,"SoundDuration":418468,"Delta":26489386},{"NoteNumber":50,"Velocity":24,"Duration":636532,"SoundDuration":636532,"Delta":26489386},{"NoteNumber":65,"Velocity":36,"Duration":218064,"SoundDuration":218064,"Delta":26907854},{"NoteNumber":60,"Velocity":34,"Duration":627437,"SoundDuration":627437,"Delta":27125918},{"NoteNumber":69,"Velocity":42,"Duration":315081,"SoundDuration":315081,"Delta":27125918},{"NoteNumber":52,"Velocity":28,"Duration":627437,"SoundDuration":627437,"Delta":27125918},{"NoteNumber":67,"Velocity":32,"Duration":99212,"SoundDuration":99212,"Delta":27441000},{"NoteNumber":65,"Velocity":32,"Duration":99213,"SoundDuration":99213,"Delta":27540213},{"NoteNumber":67,"Velocity":32,"Duration":113929,"SoundDuration":113929,"Delta":27639426},{"NoteNumber":58,"Velocity":30,"Duration":608360,"SoundDuration":608360,"Delta":27753355},{"NoteNumber":69,"Velocity":36,"Duration":608360,"SoundDuration":608360,"Delta":27753355},{"NoteNumber":50,"Velocity":24,"Duration":608360,"SoundDuration":608360,"Delta":27753355},{"NoteNumber":41,"Velocity":22,"Duration":1335130,"SoundDuration":1335130,"Delta":28361716},{"NoteNumber":48,"Velocity":26,"Duration":1276881,"SoundDuration":1276881,"Delta":28389958},{"NoteNumber":65,"Velocity":36,"Duration":615189,"SoundDuration":615189,"Delta":28418200},{"NoteNumber":72,"Velocity":45,"Duration":317550,"SoundDuration":317550,"Delta":28418200},{"NoteNumber":57,"Velocity":30,"Duration":615189,"SoundDuration":615189,"Delta":28418200},{"NoteNumber":74,"Velocity":38,"Duration":99212,"SoundDuration":99212,"Delta":28735750},{"NoteNumber":76,"Velocity":42,"Duration":99213,"SoundDuration":99213,"Delta":28834963},{"NoteNumber":74,"Velocity":38,"Duration":99212,"SoundDuration":99212,"Delta":28934176},{"NoteNumber":72,"Velocity":47,"Duration":423400,"SoundDuration":423400,"Delta":29033389},{"NoteNumber":65,"Velocity":38,"Duration":423400,"SoundDuration":423400,"Delta":29033389},{"NoteNumber":58,"Velocity":30,"Duration":663457,"SoundDuration":663457,"Delta":29033389},{"NoteNumber":64,"Velocity":42,"Duration":240057,"SoundDuration":240057,"Delta":29456789},{"NoteNumber":68,"Velocity":42,"Duration":240057,"SoundDuration":240057,"Delta":29456789},{"NoteNumber":41,"Velocity":23,"Duration":1194486,"SoundDuration":1194486,"Delta":29636833},{"NoteNumber":48,"Velocity":27,"Duration":1136117,"SoundDuration":1136117,"Delta":29666840},{"NoteNumber":72,"Velocity":48,"Duration":680683,"SoundDuration":680683,"Delta":29696847},{"NoteNumber":65,"Velocity":39,"Duration":1134472,"SoundDuration":1134472,"Delta":29696847},{"NoteNumber":57,"Velocity":32,"Duration":680683,"SoundDuration":680683,"Delta":29696847},{"NoteNumber":77,"Velocity":51,"Duration":453789,"SoundDuration":453789,"Delta":30377530},{"NoteNumber":60,"Velocity":40,"Duration":625245,"SoundDuration":625245,"Delta":31058214},{"NoteNumber":72,"Velocity":50,"Duration":313850,"SoundDuration":313850,"Delta":31058214},{"NoteNumber":45,"Velocity":29,"Duration":2558151,"SoundDuration":2558151,"Delta":31058214},{"NoteNumber":52,"Velocity":34,"Duration":625245,"SoundDuration":625245,"Delta":31058214},{"NoteNumber":71,"Velocity":37,"Duration":99212,"SoundDuration":99212,"Delta":31372065},{"NoteNumber":69,"Velocity":37,"Duration":99213,"SoundDuration":99213,"Delta":31471278},{"NoteNumber":71,"Velocity":37,"Duration":112968,"SoundDuration":112968,"Delta":31570491},{"NoteNumber":62,"Velocity":36,"Duration":636532,"SoundDuration":636532,"Delta":31683460},{"NoteNumber":72,"Velocity":43,"Duration":418467,"SoundDuration":418467,"Delta":31683460},{"NoteNumber":53,"Velocity":29,"Duration":636532,"SoundDuration":636532,"Delta":31683460},{"NoteNumber":69,"Velocity":43,"Duration":218064,"SoundDuration":218064,"Delta":32101928},{"NoteNumber":64,"Velocity":40,"Duration":627437,"SoundDuration":627437,"Delta":32319992},{"NoteNumber":72,"Velocity":50,"Duration":315081,"SoundDuration":315081,"Delta":32319992},{"NoteNumber":55,"Velocity":34,"Duration":627437,"SoundDuration":627437,"Delta":32319992},{"NoteNumber":71,"Velocity":38,"Duration":99212,"SoundDuration":99212,"Delta":32635074},{"NoteNumber":69,"Velocity":38,"Duration":99212,"SoundDuration":99212,"Delta":32734287},{"NoteNumber":71,"Velocity":38,"Duration":113929,"SoundDuration":113929,"Delta":32833500},{"NoteNumber":62,"Velocity":36,"Duration":612451,"SoundDuration":612451,"Delta":32947429},{"NoteNumber":72,"Velocity":43,"Duration":612451,"SoundDuration":612451,"Delta":32947429},{"NoteNumber":53,"Velocity":29,"Duration":612451,"SoundDuration":612451,"Delta":32947429},{"NoteNumber":45,"Velocity":25,"Duration":1335130,"SoundDuration":1335130,"Delta":33559881},{"NoteNumber":52,"Velocity":29,"Duration":1276881,"SoundDuration":1276881,"Delta":33588123},{"NoteNumber":69,"Velocity":40,"Duration":615188,"SoundDuration":615188,"Delta":33616366},{"NoteNumber":76,"Velocity":50,"Duration":317549,"SoundDuration":317549,"Delta":33616366},{"NoteNumber":60,"Velocity":34,"Duration":615188,"SoundDuration":615188,"Delta":33616366},{"NoteNumber":77,"Velocity":42,"Duration":99212,"SoundDuration":99212,"Delta":33933916},{"NoteNumber":79,"Velocity":46,"Duration":99212,"SoundDuration":99212,"Delta":34033129},{"NoteNumber":77,"Velocity":42,"Duration":99212,"SoundDuration":99212,"Delta":34132342},{"NoteNumber":76,"Velocity":51,"Duration":423400,"SoundDuration":423400,"Delta":34231555},{"NoteNumber":69,"Velocity":41,"Duration":423400,"SoundDuration":423400,"Delta":34231555},{"NoteNumber":62,"Velocity":33,"Duration":663457,"SoundDuration":663457,"Delta":34231555},{"NoteNumber":68,"Velocity":45,"Duration":240057,"SoundDuration":240057,"Delta":34654955},{"NoteNumber":72,"Velocity":45,"Duration":240057,"SoundDuration":240057,"Delta":34654955},{"NoteNumber":76,"Velocity":51,"Duration":661132,"SoundDuration":661132,"Delta":34895012},{"NoteNumber":69,"Velocity":42,"Duration":881509,"SoundDuration":881509,"Delta":34895012},{"NoteNumber":45,"Velocity":25,"Duration":1318881,"SoundDuration":1318881,"Delta":34895012},{"NoteNumber":52,"Velocity":29,"Duration":1318881,"SoundDuration":1318881,"Delta":34895012},{"NoteNumber":60,"Velocity":34,"Duration":1318881,"SoundDuration":1318881,"Delta":34895012},{"NoteNumber":81,"Velocity":53,"Duration":1081148,"SoundDuration":1081148,"Delta":35556145},{"NoteNumber":68,"Velocity":57,"Duration":214239,"SoundDuration":214239,"Delta":35776522},{"NoteNumber":67,"Velocity":61,"Duration":223131,"SoundDuration":223131,"Delta":35990762},{"NoteNumber":66,"Velocity":70,"Duration":1266868,"SoundDuration":1266868,"Delta":36213894},{"NoteNumber":50,"Velocity":29,"Duration":1211546,"SoundDuration":1211546,"Delta":36213894},{"NoteNumber":60,"Velocity":34,"Duration":1211546,"SoundDuration":1211546,"Delta":36213894},{"NoteNumber":78,"Velocity":53,"Duration":211700,"SoundDuration":211700,"Delta":36637294},{"NoteNumber":74,"Velocity":53,"Duration":205240,"SoundDuration":205240,"Delta":36848994},{"NoteNumber":75,"Velocity":53,"Duration":205240,"SoundDuration":205240,"Delta":37054234},{"NoteNumber":76,"Velocity":53,"Duration":221288,"SoundDuration":221288,"Delta":37259475},{"NoteNumber":43,"Velocity":34,"Duration":1130496,"SoundDuration":1130496,"Delta":37425441},{"NoteNumber":50,"Velocity":34,"Duration":1047741,"SoundDuration":1047741,"Delta":37453102},{"NoteNumber":65,"Velocity":42,"Duration":1075174,"SoundDuration":1075174,"Delta":37480763},{"NoteNumber":77,"Velocity":53,"Duration":418467,"SoundDuration":418467,"Delta":37480763},{"NoteNumber":59,"Velocity":34,"Duration":1075174,"SoundDuration":1075174,"Delta":37480763},{"NoteNumber":74,"Velocity":50,"Duration":215951,"SoundDuration":215951,"Delta":37899231},{"NoteNumber":71,"Velocity":46,"Duration":440755,"SoundDuration":440755,"Delta":38115182},{"NoteNumber":66,"Velocity":64,"Duration":1266868,"SoundDuration":1266868,"Delta":38776315},{"NoteNumber":50,"Velocity":29,"Duration":1211546,"SoundDuration":1211546,"Delta":38776315},{"NoteNumber":60,"Velocity":34,"Duration":1211546,"SoundDuration":1211546,"Delta":38776315},{"NoteNumber":81,"Velocity":53,"Duration":211700,"SoundDuration":211700,"Delta":38988015},{"NoteNumber":78,"Velocity":47,"Duration":211700,"SoundDuration":211700,"Delta":39199715},{"NoteNumber":74,"Velocity":49,"Duration":205240,"SoundDuration":205240,"Delta":39411415},{"NoteNumber":75,"Velocity":53,"Duration":205240,"SoundDuration":205240,"Delta":39616655},{"NoteNumber":76,"Velocity":54,"Duration":430522,"SoundDuration":430522,"Delta":39821896},{"NoteNumber":43,"Velocity":38,"Duration":1130496,"SoundDuration":1130496,"Delta":39987862},{"NoteNumber":50,"Velocity":40,"Duration":1047741,"SoundDuration":1047741,"Delta":40015523},{"NoteNumber":65,"Velocity":42,"Duration":1212910,"SoundDuration":1212910,"Delta":40043184},{"NoteNumber":59,"Velocity":43,"Duration":1075174,"SoundDuration":1075174,"Delta":40043184},{"NoteNumber":77,"Velocity":60,"Duration":209233,"SoundDuration":209233,"Delta":40252418},{"NoteNumber":74,"Velocity":53,"Duration":215951,"SoundDuration":215951,"Delta":40461652},{"NoteNumber":69,"Velocity":56,"Duration":220377,"SoundDuration":220377,"Delta":40677603},{"NoteNumber":70,"Velocity":58,"Duration":220377,"SoundDuration":220377,"Delta":40897981},{"NoteNumber":71,"Velocity":63,"Duration":431421,"SoundDuration":431421,"Delta":41118358},{"NoteNumber":43,"Velocity":40,"Duration":1780684,"SoundDuration":1780684,"Delta":41256094},{"NoteNumber":50,"Velocity":43,"Duration":1753136,"SoundDuration":1753136,"Delta":41283641},{"NoteNumber":57,"Velocity":46,"Duration":1725589,"SoundDuration":1725589,"Delta":41311188},{"NoteNumber":60,"Velocity":48,"Duration":1698042,"SoundDuration":1698042,"Delta":41338736},{"NoteNumber":72,"Velocity":58,"Duration":211044,"SoundDuration":211044,"Delta":41549780},{"NoteNumber":69,"Velocity":53,"Duration":211044,"SoundDuration":211044,"Delta":41760825},{"NoteNumber":61,"Velocity":47,"Duration":211044,"SoundDuration":211044,"Delta":41971869},{"NoteNumber":62,"Velocity":43,"Duration":211044,"SoundDuration":211044,"Delta":42182914},{"NoteNumber":64,"Velocity":44,"Duration":222386,"SoundDuration":222386,"Delta":42393958},{"NoteNumber":65,"Velocity":46,"Duration":210216,"SoundDuration":210216,"Delta":42616345},{"NoteNumber":68,"Velocity":42,"Duration":210216,"SoundDuration":210216,"Delta":42826562},{"NoteNumber":69,"Velocity":39,"Duration":218770,"SoundDuration":218770,"Delta":43036778},{"NoteNumber":73,"Velocity":31,"Duration":224249,"SoundDuration":224249,"Delta":43255549},{"NoteNumber":65,"Velocity":25,"Duration":56569,"SoundDuration":56569,"Delta":43479798},{"NoteNumber":69,"Velocity":25,"Duration":56569,"SoundDuration":56569,"Delta":43479798},{"NoteNumber":74,"Velocity":32,"Duration":56569,"SoundDuration":56569,"Delta":43479798},{"NoteNumber":69,"Velocity":26,"Duration":57916,"SoundDuration":57916,"Delta":43708577},{"NoteNumber":74,"Velocity":26,"Duration":57916,"SoundDuration":57916,"Delta":43708577},{"NoteNumber":77,"Velocity":33,"Duration":57916,"SoundDuration":57916,"Delta":43708577},{"NoteNumber":81,"Velocity":40,"Duration":58974,"SoundDuration":58974,"Delta":43941817},{"NoteNumber":77,"Velocity":32,"Duration":58974,"SoundDuration":58974,"Delta":43941817},{"NoteNumber":74,"Velocity":32,"Duration":58974,"SoundDuration":58974,"Delta":43941817},{"NoteNumber":64,"Velocity":40,"Duration":1281347,"SoundDuration":1281347,"Delta":45258062},{"NoteNumber":59,"Velocity":36,"Duration":1281347,"SoundDuration":1281347,"Delta":45258062},{"NoteNumber":53,"Velocity":36,"Duration":1281347,"SoundDuration":1281347,"Delta":45258062},{"NoteNumber":44,"Velocity":44,"Duration":1055222,"SoundDuration":1055222,"Delta":45258062},{"NoteNumber":43,"Velocity":32,"Duration":226125,"SoundDuration":226125,"Delta":46313285},{"NoteNumber":60,"Velocity":40,"Duration":315081,"SoundDuration":315081,"Delta":46539410},{"NoteNumber":36,"Velocity":21,"Duration":627437,"SoundDuration":627437,"Delta":46539410},{"NoteNumber":52,"Velocity":32,"Duration":627437,"SoundDuration":627437,"Delta":46539410},{"NoteNumber":43,"Velocity":27,"Duration":627437,"SoundDuration":627437,"Delta":46539410},{"NoteNumber":59,"Velocity":30,"Duration":99212,"SoundDuration":99212,"Delta":46854491},{"NoteNumber":60,"Velocity":30,"Duration":99212,"SoundDuration":99212,"Delta":46953704},{"NoteNumber":62,"Velocity":30,"Duration":113929,"SoundDuration":113929,"Delta":47052917},{"NoteNumber":64,"Velocity":34,"Duration":668936,"SoundDuration":668936,"Delta":47166847},{"NoteNumber":53,"Velocity":30,"Duration":668936,"SoundDuration":668936,"Delta":47166847},{"NoteNumber":59,"Velocity":38,"Duration":668936,"SoundDuration":668936,"Delta":47166847},{"NoteNumber":44,"Velocity":38,"Duration":668936,"SoundDuration":668936,"Delta":47166847},{"NoteNumber":56,"Velocity":30,"Duration":668936,"SoundDuration":668936,"Delta":47166847},{"NoteNumber":60,"Velocity":40,"Duration":315081,"SoundDuration":315081,"Delta":47835783},{"NoteNumber":36,"Velocity":21,"Duration":627437,"SoundDuration":627437,"Delta":47835783},{"NoteNumber":52,"Velocity":32,"Duration":627437,"SoundDuration":627437,"Delta":47835783},{"NoteNumber":43,"Velocity":27,"Duration":627437,"SoundDuration":627437,"Delta":47835783},{"NoteNumber":59,"Velocity":30,"Duration":99212,"SoundDuration":99212,"Delta":48150865},{"NoteNumber":60,"Velocity":30,"Duration":99212,"SoundDuration":99212,"Delta":48250078},{"NoteNumber":62,"Velocity":30,"Duration":113929,"SoundDuration":113929,"Delta":48349291},{"NoteNumber":64,"Velocity":34,"Duration":666882,"SoundDuration":666882,"Delta":48463221},{"NoteNumber":53,"Velocity":30,"Duration":666882,"SoundDuration":666882,"Delta":48463221},{"NoteNumber":59,"Velocity":38,"Duration":666882,"SoundDuration":666882,"Delta":48463221},{"NoteNumber":44,"Velocity":38,"Duration":666882,"SoundDuration":666882,"Delta":48463221},{"NoteNumber":56,"Velocity":30,"Duration":666882,"SoundDuration":666882,"Delta":48463221},{"NoteNumber":60,"Velocity":29,"Duration":208579,"SoundDuration":208579,"Delta":49130103},{"NoteNumber":52,"Velocity":24,"Duration":208579,"SoundDuration":208579,"Delta":49130103},{"NoteNumber":36,"Velocity":22,"Duration":208579,"SoundDuration":208579,"Delta":49130103},{"NoteNumber":43,"Velocity":26,"Duration":208579,"SoundDuration":208579,"Delta":49130103},{"NoteNumber":64,"Velocity":22,"Duration":217085,"SoundDuration":217085,"Delta":49753235},{"NoteNumber":72,"Velocity":27,"Duration":212705,"SoundDuration":212705,"Delta":49755842},{"NoteNumber":48,"Velocity":22,"Duration":212705,"SoundDuration":212705,"Delta":49755842},{"NoteNumber":55,"Velocity":26,"Duration":212705,"SoundDuration":212705,"Delta":49755842},{"NoteNumber":84,"Velocity":28,"Duration":1111935,"SoundDuration":1111935,"Delta":50393958},{"NoteNumber":76,"Velocity":23,"Duration":1111935,"SoundDuration":1111935,"Delta":50393958},{"NoteNumber":60,"Velocity":23,"Duration":1111935,"SoundDuration":1111935,"Delta":50393958},{"NoteNumber":67,"Velocity":28,"Duration":1111935,"SoundDuration":1111935,"Delta":50393958},{"NoteNumber":62,"Velocity":34,"Duration":1043713,"SoundDuration":1043713,"Delta":51728280},{"NoteNumber":67,"Velocity":42,"Duration":313850,"SoundDuration":313850,"Delta":51728280},{"NoteNumber":48,"Velocity":24,"Duration":2523555,"SoundDuration":2523555,"Delta":51728280},{"NoteNumber":58,"Velocity":28,"Duration":1043713,"SoundDuration":1043713,"Delta":51728280},{"NoteNumber":66,"Velocity":31,"Duration":99212,"SoundDuration":99212,"Delta":52042131},{"NoteNumber":67,"Velocity":31,"Duration":99212,"SoundDuration":99212,"Delta":52141344},{"NoteNumber":69,"Velocity":31,"Duration":112968,"SoundDuration":112968,"Delta":52240557},{"NoteNumber":70,"Velocity":36,"Duration":950383,"SoundDuration":950383,"Delta":52353526},{"NoteNumber":64,"Velocity":36,"Duration":218064,"SoundDuration":218064,"Delta":52771994},{"NoteNumber":60,"Velocity":34,"Duration":218064,"SoundDuration":218064,"Delta":52771994},{"NoteNumber":65,"Velocity":34,"Duration":1043713,"SoundDuration":1043713,"Delta":52990058},{"NoteNumber":62,"Velocity":37,"Duration":1043713,"SoundDuration":1043713,"Delta":52990058},{"NoteNumber":69,"Velocity":36,"Duration":99212,"SoundDuration":99212,"Delta":53303909},{"NoteNumber":70,"Velocity":38,"Duration":99212,"SoundDuration":99212,"Delta":53403122},{"NoteNumber":72,"Velocity":40,"Duration":112968,"SoundDuration":112968,"Delta":53502335},{"NoteNumber":74,"Velocity":44,"Duration":959919,"SoundDuration":959919,"Delta":53615304},{"NoteNumber":66,"Velocity":42,"Duration":218064,"SoundDuration":218064,"Delta":54033772},{"NoteNumber":63,"Velocity":37,"Duration":161340,"SoundDuration":161340,"Delta":54033772},{"NoteNumber":48,"Velocity":37,"Duration":272653,"SoundDuration":272653,"Delta":54195113},{"NoteNumber":58,"Velocity":41,"Duration":244291,"SoundDuration":244291,"Delta":54223475},{"NoteNumber":64,"Velocity":47,"Duration":215929,"SoundDuration":215929,"Delta":54251836},{"NoteNumber":67,"Velocity":48,"Duration":107457,"SoundDuration":107457,"Delta":54467766},{"NoteNumber":73,"Velocity":42,"Duration":107057,"SoundDuration":107057,"Delta":54575223},{"NoteNumber":70,"Velocity":42,"Duration":107057,"SoundDuration":107057,"Delta":54575223},{"NoteNumber":67,"Velocity":46,"Duration":106661,"SoundDuration":106661,"Delta":54682281},{"NoteNumber":70,"Velocity":42,"Duration":106270,"SoundDuration":106270,"Delta":54788942},{"NoteNumber":74,"Velocity":42,"Duration":106270,"SoundDuration":106270,"Delta":54788942},{"NoteNumber":70,"Velocity":47,"Duration":79419,"SoundDuration":79419,"Delta":54895213},{"NoteNumber":74,"Velocity":41,"Duration":79183,"SoundDuration":79183,"Delta":55001093},{"NoteNumber":78,"Velocity":41,"Duration":79183,"SoundDuration":79183,"Delta":55001093},{"NoteNumber":70,"Velocity":45,"Duration":78890,"SoundDuration":78890,"Delta":55106644},{"NoteNumber":79,"Velocity":39,"Duration":78602,"SoundDuration":78602,"Delta":55211810},{"NoteNumber":74,"Velocity":39,"Duration":78602,"SoundDuration":78602,"Delta":55211810},{"NoteNumber":74,"Velocity":43,"Duration":78313,"SoundDuration":78313,"Delta":55316596},{"NoteNumber":81,"Velocity":37,"Duration":78026,"SoundDuration":78026,"Delta":55421002},{"NoteNumber":79,"Velocity":37,"Duration":78026,"SoundDuration":78026,"Delta":55421002},{"NoteNumber":74,"Velocity":43,"Duration":77742,"SoundDuration":77742,"Delta":55525030},{"NoteNumber":82,"Velocity":36,"Duration":77736,"SoundDuration":77736,"Delta":55628685},{"NoteNumber":79,"Velocity":36,"Duration":77736,"SoundDuration":77736,"Delta":55628685},{"NoteNumber":79,"Velocity":41,"Duration":77003,"SoundDuration":77003,"Delta":55732313},{"NoteNumber":85,"Velocity":34,"Duration":77407,"SoundDuration":77407,"Delta":55834910},{"NoteNumber":82,"Velocity":34,"Duration":77407,"SoundDuration":77407,"Delta":55834910},{"NoteNumber":79,"Velocity":38,"Duration":78728,"SoundDuration":78728,"Delta":55938371},{"NoteNumber":86,"Velocity":33,"Duration":80742,"SoundDuration":80742,"Delta":56043545},{"NoteNumber":82,"Velocity":33,"Duration":80742,"SoundDuration":80742,"Delta":56043545},{"NoteNumber":91,"Velocity":48,"Duration":114165,"SoundDuration":114165,"Delta":56151868},{"NoteNumber":67,"Velocity":37,"Duration":1043713,"SoundDuration":1043713,"Delta":56873265},{"NoteNumber":72,"Velocity":46,"Duration":313850,"SoundDuration":313850,"Delta":56873265},{"NoteNumber":53,"Velocity":26,"Duration":2523555,"SoundDuration":2523555,"Delta":56873265},{"NoteNumber":63,"Velocity":30,"Duration":1043713,"SoundDuration":1043713,"Delta":56873265},{"NoteNumber":71,"Velocity":34,"Duration":99212,"SoundDuration":99212,"Delta":57187116},{"NoteNumber":72,"Velocity":35,"Duration":99212,"SoundDuration":99212,"Delta":57286329},{"NoteNumber":74,"Velocity":35,"Duration":112968,"SoundDuration":112968,"Delta":57385542},{"NoteNumber":75,"Velocity":41,"Duration":950383,"SoundDuration":950383,"Delta":57498510},{"NoteNumber":69,"Velocity":42,"Duration":218064,"SoundDuration":218064,"Delta":57916978},{"NoteNumber":65,"Velocity":40,"Duration":218064,"SoundDuration":218064,"Delta":57916978},{"NoteNumber":70,"Velocity":41,"Duration":1043713,"SoundDuration":1043713,"Delta":58135043},{"NoteNumber":67,"Velocity":44,"Duration":1043713,"SoundDuration":1043713,"Delta":58135043},{"NoteNumber":74,"Velocity":44,"Duration":99212,"SoundDuration":99212,"Delta":58448894},{"NoteNumber":75,"Velocity":47,"Duration":99212,"SoundDuration":99212,"Delta":58548107},{"NoteNumber":77,"Velocity":50,"Duration":112968,"SoundDuration":112968,"Delta":58647320},{"NoteNumber":79,"Velocity":55,"Duration":959919,"SoundDuration":959919,"Delta":58760288},{"NoteNumber":71,"Velocity":42,"Duration":218064,"SoundDuration":218064,"Delta":59178756},{"NoteNumber":68,"Velocity":37,"Duration":161340,"SoundDuration":161340,"Delta":59178756},{"NoteNumber":53,"Velocity":37,"Duration":272653,"SoundDuration":272653,"Delta":59340097},{"NoteNumber":63,"Velocity":41,"Duration":244291,"SoundDuration":244291,"Delta":59368459},{"NoteNumber":69,"Velocity":47,"Duration":215929,"SoundDuration":215929,"Delta":59396821},{"NoteNumber":72,"Velocity":48,"Duration":107457,"SoundDuration":107457,"Delta":59612750},{"NoteNumber":78,"Velocity":42,"Duration":107057,"SoundDuration":107057,"Delta":59720207},{"NoteNumber":75,"Velocity":42,"Duration":107057,"SoundDuration":107057,"Delta":59720207},{"NoteNumber":72,"Velocity":46,"Duration":106661,"SoundDuration":106661,"Delta":59827265},{"NoteNumber":75,"Velocity":42,"Duration":106270,"SoundDuration":106270,"Delta":59933926},{"NoteNumber":79,"Velocity":42,"Duration":106270,"SoundDuration":106270,"Delta":59933926},{"NoteNumber":75,"Velocity":47,"Duration":79419,"SoundDuration":79419,"Delta":60040197},{"NoteNumber":79,"Velocity":41,"Duration":79183,"SoundDuration":79183,"Delta":60146077},{"NoteNumber":83,"Velocity":41,"Duration":79183,"SoundDuration":79183,"Delta":60146077},{"NoteNumber":75,"Velocity":45,"Duration":78890,"SoundDuration":78890,"Delta":60251628},{"NoteNumber":84,"Velocity":39,"Duration":78602,"SoundDuration":78602,"Delta":60356794},{"NoteNumber":79,"Velocity":39,"Duration":78602,"SoundDuration":78602,"Delta":60356794},{"NoteNumber":79,"Velocity":43,"Duration":78313,"SoundDuration":78313,"Delta":60461580},{"NoteNumber":86,"Velocity":37,"Duration":78026,"SoundDuration":78026,"Delta":60565986},{"NoteNumber":84,"Velocity":37,"Duration":78026,"SoundDuration":78026,"Delta":60565986},{"NoteNumber":79,"Velocity":43,"Duration":77742,"SoundDuration":77742,"Delta":60670015},{"NoteNumber":87,"Velocity":36,"Duration":77736,"SoundDuration":77736,"Delta":60773669},{"NoteNumber":84,"Velocity":36,"Duration":77736,"SoundDuration":77736,"Delta":60773669},{"NoteNumber":84,"Velocity":41,"Duration":77003,"SoundDuration":77003,"Delta":60877297},{"NoteNumber":90,"Velocity":34,"Duration":77407,"SoundDuration":77407,"Delta":60979894},{"NoteNumber":87,"Velocity":34,"Duration":77407,"SoundDuration":77407,"Delta":60979894},{"NoteNumber":84,"Velocity":38,"Duration":78728,"SoundDuration":78728,"Delta":61083355},{"NoteNumber":91,"Velocity":33,"Duration":80742,"SoundDuration":80742,"Delta":61188529},{"NoteNumber":87,"Velocity":33,"Duration":80742,"SoundDuration":80742,"Delta":61188529},{"NoteNumber":96,"Velocity":48,"Duration":114165,"SoundDuration":114165,"Delta":61296852},{"NoteNumber":46,"Velocity":58,"Duration":410384,"SoundDuration":410384,"Delta":62018249},{"NoteNumber":82,"Velocity":31,"Duration":102746,"SoundDuration":102746,"Delta":62121542},{"NoteNumber":86,"Velocity":31,"Duration":102746,"SoundDuration":102746,"Delta":62121542},{"NoteNumber":88,"Velocity":35,"Duration":102381,"SoundDuration":102381,"Delta":62224288},{"NoteNumber":82,"Velocity":30,"Duration":101963,"SoundDuration":101963,"Delta":62326669},{"NoteNumber":86,"Velocity":30,"Duration":101963,"SoundDuration":101963,"Delta":62326669},{"NoteNumber":89,"Velocity":35,"Duration":101595,"SoundDuration":101595,"Delta":62428633},{"NoteNumber":53,"Velocity":52,"Duration":202796,"SoundDuration":202796,"Delta":62428633},{"NoteNumber":86,"Velocity":31,"Duration":101201,"SoundDuration":101201,"Delta":62530228},{"NoteNumber":82,"Velocity":31,"Duration":101201,"SoundDuration":101201,"Delta":62530228},{"NoteNumber":58,"Velocity":58,"Duration":404803,"SoundDuration":404803,"Delta":62631429},{"NoteNumber":86,"Velocity":30,"Duration":101201,"SoundDuration":101201,"Delta":62732630},{"NoteNumber":82,"Velocity":30,"Duration":101201,"SoundDuration":101201,"Delta":62732630},{"NoteNumber":88,"Velocity":35,"Duration":101200,"SoundDuration":101200,"Delta":62833831},{"NoteNumber":86,"Velocity":32,"Duration":101201,"SoundDuration":101201,"Delta":62935032},{"NoteNumber":82,"Velocity":32,"Duration":101201,"SoundDuration":101201,"Delta":62935032},{"NoteNumber":89,"Velocity":35,"Duration":100926,"SoundDuration":100926,"Delta":63036233},{"NoteNumber":60,"Velocity":53,"Duration":202820,"SoundDuration":202820,"Delta":63036233},{"NoteNumber":82,"Velocity":31,"Duration":101893,"SoundDuration":101893,"Delta":63137160},{"NoteNumber":86,"Velocity":31,"Duration":101893,"SoundDuration":101893,"Delta":63137160},{"NoteNumber":62,"Velocity":63,"Duration":412593,"SoundDuration":412593,"Delta":63239053},{"NoteNumber":82,"Velocity":34,"Duration":103291,"SoundDuration":103291,"Delta":63342277},{"NoteNumber":86,"Velocity":34,"Duration":103291,"SoundDuration":103291,"Delta":63342277},{"NoteNumber":88,"Velocity":39,"Duration":103140,"SoundDuration":103140,"Delta":63445569},{"NoteNumber":82,"Velocity":34,"Duration":102937,"SoundDuration":102937,"Delta":63548709},{"NoteNumber":86,"Velocity":34,"Duration":102937,"SoundDuration":102937,"Delta":63548709},{"NoteNumber":89,"Velocity":41,"Duration":102591,"SoundDuration":102591,"Delta":63651647},{"NoteNumber":65,"Velocity":65,"Duration":205042,"SoundDuration":205042,"Delta":63651647},{"NoteNumber":86,"Velocity":37,"Duration":102451,"SoundDuration":102451,"Delta":63754238},{"NoteNumber":82,"Velocity":37,"Duration":102451,"SoundDuration":102451,"Delta":63754238},{"NoteNumber":70,"Velocity":74,"Duration":407403,"SoundDuration":407403,"Delta":63856689},{"NoteNumber":86,"Velocity":37,"Duration":101908,"SoundDuration":101908,"Delta":63958925},{"NoteNumber":82,"Velocity":37,"Duration":101908,"SoundDuration":101908,"Delta":63958925},{"NoteNumber":88,"Velocity":45,"Duration":101715,"SoundDuration":101715,"Delta":64060833},{"NoteNumber":86,"Velocity":41,"Duration":101543,"SoundDuration":101543,"Delta":64162549},{"NoteNumber":82,"Velocity":41,"Duration":101543,"SoundDuration":101543,"Delta":64162549},{"NoteNumber":89,"Velocity":46,"Duration":101543,"SoundDuration":101543,"Delta":64264092},{"NoteNumber":69,"Velocity":58,"Duration":129905,"SoundDuration":129905,"Delta":64264092},{"NoteNumber":82,"Velocity":42,"Duration":113447,"SoundDuration":113447,"Delta":64365636},{"NoteNumber":86,"Velocity":42,"Duration":113447,"SoundDuration":113447,"Delta":64365636},{"NoteNumber":52,"Velocity":41,"Duration":1694915,"SoundDuration":1694915,"Delta":64393998},{"NoteNumber":59,"Velocity":47,"Duration":1666554,"SoundDuration":1666554,"Delta":64422360},{"NoteNumber":62,"Velocity":53,"Duration":1638192,"SoundDuration":1638192,"Delta":64450721},{"NoteNumber":69,"Velocity":81,"Duration":1205370,"SoundDuration":1205370,"Delta":64479083},{"NoteNumber":83,"Velocity":42,"Duration":102585,"SoundDuration":102585,"Delta":64582776},{"NoteNumber":86,"Velocity":42,"Duration":102585,"SoundDuration":102585,"Delta":64582776},{"NoteNumber":88,"Velocity":47,"Duration":101306,"SoundDuration":101306,"Delta":64685362},{"NoteNumber":83,"Velocity":39,"Duration":100595,"SoundDuration":100595,"Delta":64786668},{"NoteNumber":86,"Velocity":39,"Duration":100595,"SoundDuration":100595,"Delta":64786668},{"NoteNumber":89,"Velocity":45,"Duration":100237,"SoundDuration":100237,"Delta":64887264},{"NoteNumber":86,"Velocity":39,"Duration":99834,"SoundDuration":99834,"Delta":64987501},{"NoteNumber":83,"Velocity":39,"Duration":99834,"SoundDuration":99834,"Delta":64987501},{"NoteNumber":86,"Velocity":36,"Duration":99193,"SoundDuration":99193,"Delta":65186773},{"NoteNumber":83,"Velocity":36,"Duration":99193,"SoundDuration":99193,"Delta":65186773},{"NoteNumber":88,"Velocity":42,"Duration":99193,"SoundDuration":99193,"Delta":65285966},{"NoteNumber":86,"Velocity":37,"Duration":99193,"SoundDuration":99193,"Delta":65385159},{"NoteNumber":83,"Velocity":37,"Duration":99193,"SoundDuration":99193,"Delta":65385159},{"NoteNumber":89,"Velocity":40,"Duration":99193,"SoundDuration":99193,"Delta":65484352},{"NoteNumber":83,"Velocity":35,"Duration":100907,"SoundDuration":100907,"Delta":65583546},{"NoteNumber":86,"Velocity":35,"Duration":100907,"SoundDuration":100907,"Delta":65583546},{"NoteNumber":68,"Velocity":52,"Duration":404460,"SoundDuration":404460,"Delta":65684453},{"NoteNumber":83,"Velocity":31,"Duration":101195,"SoundDuration":101195,"Delta":65789554},{"NoteNumber":86,"Velocity":31,"Duration":101195,"SoundDuration":101195,"Delta":65789554},{"NoteNumber":88,"Velocity":35,"Duration":99278,"SoundDuration":99278,"Delta":65890750},{"NoteNumber":83,"Velocity":30,"Duration":98885,"SoundDuration":98885,"Delta":65990028},{"NoteNumber":86,"Velocity":30,"Duration":98885,"SoundDuration":98885,"Delta":65990028},{"NoteNumber":89,"Velocity":35,"Duration":98866,"SoundDuration":98866,"Delta":66088914},{"NoteNumber":86,"Velocity":31,"Duration":98866,"SoundDuration":98866,"Delta":66187780},{"NoteNumber":83,"Velocity":31,"Duration":98866,"SoundDuration":98866,"Delta":66187780},{"NoteNumber":86,"Velocity":30,"Duration":98709,"SoundDuration":98709,"Delta":66385512},{"NoteNumber":83,"Velocity":30,"Duration":98709,"SoundDuration":98709,"Delta":66385512},{"NoteNumber":88,"Velocity":35,"Duration":99465,"SoundDuration":99465,"Delta":66484222},{"NoteNumber":86,"Velocity":32,"Duration":100215,"SoundDuration":100215,"Delta":66583687},{"NoteNumber":83,"Velocity":32,"Duration":100215,"SoundDuration":100215,"Delta":66583687},{"NoteNumber":89,"Velocity":35,"Duration":101005,"SoundDuration":101005,"Delta":66683902},{"NoteNumber":83,"Velocity":31,"Duration":101863,"SoundDuration":101863,"Delta":66784908},{"NoteNumber":86,"Velocity":31,"Duration":101863,"SoundDuration":101863,"Delta":66784908},{"NoteNumber":46,"Velocity":58,"Duration":410384,"SoundDuration":410384,"Delta":66886771},{"NoteNumber":82,"Velocity":31,"Duration":102746,"SoundDuration":102746,"Delta":66990064},{"NoteNumber":85,"Velocity":31,"Duration":102746,"SoundDuration":102746,"Delta":66990064},{"NoteNumber":88,"Velocity":35,"Duration":102381,"SoundDuration":102381,"Delta":67092811},{"NoteNumber":82,"Velocity":30,"Duration":101963,"SoundDuration":101963,"Delta":67195192},{"NoteNumber":85,"Velocity":30,"Duration":101963,"SoundDuration":101963,"Delta":67195192},{"NoteNumber":89,"Velocity":35,"Duration":101595,"SoundDuration":101595,"Delta":67297156},{"NoteNumber":53,"Velocity":52,"Duration":202796,"SoundDuration":202796,"Delta":67297156},{"NoteNumber":85,"Velocity":31,"Duration":101201,"SoundDuration":101201,"Delta":67398751},{"NoteNumber":82,"Velocity":31,"Duration":101201,"SoundDuration":101201,"Delta":67398751},{"NoteNumber":58,"Velocity":58,"Duration":404803,"SoundDuration":404803,"Delta":67499952},{"NoteNumber":85,"Velocity":30,"Duration":101200,"SoundDuration":101200,"Delta":67601153},{"NoteNumber":82,"Velocity":30,"Duration":101200,"SoundDuration":101200,"Delta":67601153},{"NoteNumber":88,"Velocity":36,"Duration":101201,"SoundDuration":101201,"Delta":67702354},{"NoteNumber":85,"Velocity":32,"Duration":101201,"SoundDuration":101201,"Delta":67803555},{"NoteNumber":82,"Velocity":32,"Duration":101201,"SoundDuration":101201,"Delta":67803555},{"NoteNumber":89,"Velocity":36,"Duration":100926,"SoundDuration":100926,"Delta":67904756},{"NoteNumber":60,"Velocity":53,"Duration":202820,"SoundDuration":202820,"Delta":67904756},{"NoteNumber":82,"Velocity":32,"Duration":101893,"SoundDuration":101893,"Delta":68005683},{"NoteNumber":85,"Velocity":32,"Duration":101893,"SoundDuration":101893,"Delta":68005683},{"NoteNumber":61,"Velocity":63,"Duration":412593,"SoundDuration":412593,"Delta":68107576},{"NoteNumber":82,"Velocity":35,"Duration":103291,"SoundDuration":103291,"Delta":68210800},{"NoteNumber":85,"Velocity":35,"Duration":103291,"SoundDuration":103291,"Delta":68210800},{"NoteNumber":88,"Velocity":40,"Duration":103140,"SoundDuration":103140,"Delta":68314091},{"NoteNumber":82,"Velocity":36,"Duration":102937,"SoundDuration":102937,"Delta":68417232},{"NoteNumber":85,"Velocity":36,"Duration":102937,"SoundDuration":102937,"Delta":68417232},{"NoteNumber":89,"Velocity":44,"Duration":102591,"SoundDuration":102591,"Delta":68520169},{"NoteNumber":65,"Velocity":70,"Duration":205042,"SoundDuration":205042,"Delta":68520169},{"NoteNumber":85,"Velocity":40,"Duration":102451,"SoundDuration":102451,"Delta":68622760},{"NoteNumber":82,"Velocity":40,"Duration":102451,"SoundDuration":102451,"Delta":68622760},{"NoteNumber":70,"Velocity":76,"Duration":407403,"SoundDuration":407403,"Delta":68725212},{"NoteNumber":85,"Velocity":40,"Duration":101908,"SoundDuration":101908,"Delta":68827447},{"NoteNumber":82,"Velocity":40,"Duration":101908,"SoundDuration":101908,"Delta":68827447},{"NoteNumber":88,"Velocity":50,"Duration":101715,"SoundDuration":101715,"Delta":68929356},{"NoteNumber":85,"Velocity":46,"Duration":101543,"SoundDuration":101543,"Delta":69031072},{"NoteNumber":82,"Velocity":46,"Duration":101543,"SoundDuration":101543,"Delta":69031072},{"NoteNumber":89,"Velocity":53,"Duration":101543,"SoundDuration":101543,"Delta":69132615},{"NoteNumber":68,"Velocity":62,"Duration":129905,"SoundDuration":129905,"Delta":69132615},{"NoteNumber":82,"Velocity":49,"Duration":113447,"SoundDuration":113447,"Delta":69234159},{"NoteNumber":85,"Velocity":49,"Duration":113447,"SoundDuration":113447,"Delta":69234159},{"NoteNumber":51,"Velocity":43,"Duration":1694915,"SoundDuration":1694915,"Delta":69262520},{"NoteNumber":58,"Velocity":51,"Duration":1666554,"SoundDuration":1666554,"Delta":69290882},{"NoteNumber":61,"Velocity":57,"Duration":1638192,"SoundDuration":1638192,"Delta":69319244},{"NoteNumber":68,"Velocity":86,"Duration":1205370,"SoundDuration":1205370,"Delta":69347606},{"NoteNumber":82,"Velocity":46,"Duration":102585,"SoundDuration":102585,"Delta":69451299},{"NoteNumber":85,"Velocity":46,"Duration":102585,"SoundDuration":102585,"Delta":69451299},{"NoteNumber":88,"Velocity":52,"Duration":101306,"SoundDuration":101306,"Delta":69553884},{"NoteNumber":82,"Velocity":43,"Duration":100595,"SoundDuration":100595,"Delta":69655191},{"NoteNumber":85,"Velocity":43,"Duration":100595,"SoundDuration":100595,"Delta":69655191},{"NoteNumber":89,"Velocity":50,"Duration":100237,"SoundDuration":100237,"Delta":69755787},{"NoteNumber":85,"Velocity":44,"Duration":99834,"SoundDuration":99834,"Delta":69856024},{"NoteNumber":82,"Velocity":44,"Duration":99834,"SoundDuration":99834,"Delta":69856024},{"NoteNumber":82,"Velocity":43,"Duration":99193,"SoundDuration":99193,"Delta":70055295},{"NoteNumber":85,"Velocity":43,"Duration":99193,"SoundDuration":99193,"Delta":70055295},{"NoteNumber":88,"Velocity":53,"Duration":99193,"SoundDuration":99193,"Delta":70154489},{"NoteNumber":82,"Velocity":46,"Duration":99193,"SoundDuration":99193,"Delta":70253682},{"NoteNumber":85,"Velocity":46,"Duration":99193,"SoundDuration":99193,"Delta":70253682},{"NoteNumber":89,"Velocity":53,"Duration":99193,"SoundDuration":99193,"Delta":70352875},{"NoteNumber":85,"Velocity":46,"Duration":100907,"SoundDuration":100907,"Delta":70452068},{"NoteNumber":82,"Velocity":46,"Duration":100907,"SoundDuration":100907,"Delta":70452068},{"NoteNumber":67,"Velocity":62,"Duration":404460,"SoundDuration":404460,"Delta":70552976},{"NoteNumber":82,"Velocity":43,"Duration":101195,"SoundDuration":101195,"Delta":70658077},{"NoteNumber":85,"Velocity":43,"Duration":101195,"SoundDuration":101195,"Delta":70658077},{"NoteNumber":88,"Velocity":53,"Duration":99278,"SoundDuration":99278,"Delta":70759273},{"NoteNumber":82,"Velocity":45,"Duration":98885,"SoundDuration":98885,"Delta":70858551},{"NoteNumber":85,"Velocity":45,"Duration":98885,"SoundDuration":98885,"Delta":70858551},{"NoteNumber":89,"Velocity":53,"Duration":98866,"SoundDuration":98866,"Delta":70957436},{"NoteNumber":85,"Velocity":44,"Duration":98866,"SoundDuration":98866,"Delta":71056303},{"NoteNumber":82,"Velocity":44,"Duration":98866,"SoundDuration":98866,"Delta":71056303},{"NoteNumber":49,"Velocity":60,"Duration":49433,"SoundDuration":49433,"Delta":71105736},{"NoteNumber":66,"Velocity":80,"Duration":397256,"SoundDuration":397256,"Delta":71155169},{"NoteNumber":85,"Velocity":45,"Duration":98709,"SoundDuration":98709,"Delta":71254035},{"NoteNumber":82,"Velocity":45,"Duration":98709,"SoundDuration":98709,"Delta":71254035},{"NoteNumber":89,"Velocity":49,"Duration":99465,"SoundDuration":99465,"Delta":71352744},{"NoteNumber":82,"Velocity":43,"Duration":100215,"SoundDuration":100215,"Delta":71452209},{"NoteNumber":85,"Velocity":43,"Duration":100215,"SoundDuration":100215,"Delta":71452209},{"NoteNumber":90,"Velocity":49,"Duration":100826,"SoundDuration":100826,"Delta":71552425},{"NoteNumber":65,"Velocity":76,"Duration":280589,"SoundDuration":280589,"Delta":71552425},{"NoteNumber":85,"Velocity":42,"Duration":179762,"SoundDuration":179762,"Delta":71653252},{"NoteNumber":82,"Velocity":42,"Duration":179762,"SoundDuration":179762,"Delta":71653252},{"NoteNumber":48,"Velocity":73,"Duration":4767547,"SoundDuration":4767547,"Delta":71703682},{"NoteNumber":36,"Velocity":73,"Duration":4767547,"SoundDuration":4767547,"Delta":71703682},{"NoteNumber":55,"Velocity":64,"Duration":4638215,"SoundDuration":4638215,"Delta":71833015},{"NoteNumber":58,"Velocity":64,"Duration":4638215,"SoundDuration":4638215,"Delta":71833015},{"NoteNumber":65,"Velocity":69,"Duration":1196038,"SoundDuration":1196038,"Delta":71833015},{"NoteNumber":85,"Velocity":56,"Duration":97726,"SoundDuration":97726,"Delta":71943317},{"NoteNumber":82,"Velocity":56,"Duration":97726,"SoundDuration":97726,"Delta":71943317},{"NoteNumber":90,"Velocity":63,"Duration":97726,"SoundDuration":97726,"Delta":72041044},{"NoteNumber":82,"Velocity":53,"Duration":97726,"SoundDuration":97726,"Delta":72138770},{"NoteNumber":85,"Velocity":53,"Duration":97726,"SoundDuration":97726,"Delta":72138770},{"NoteNumber":91,"Velocity":62,"Duration":97726,"SoundDuration":97726,"Delta":72236496},{"NoteNumber":85,"Velocity":52,"Duration":97726,"SoundDuration":97726,"Delta":72334222},{"NoteNumber":82,"Velocity":52,"Duration":97726,"SoundDuration":97726,"Delta":72334222},{"NoteNumber":85,"Velocity":56,"Duration":98366,"SoundDuration":98366,"Delta":72537219},{"NoteNumber":82,"Velocity":56,"Duration":98366,"SoundDuration":98366,"Delta":72537219},{"NoteNumber":90,"Velocity":61,"Duration":98367,"SoundDuration":98367,"Delta":72635586},{"NoteNumber":82,"Velocity":53,"Duration":98366,"SoundDuration":98366,"Delta":72733953},{"NoteNumber":85,"Velocity":53,"Duration":98366,"SoundDuration":98366,"Delta":72733953},{"NoteNumber":91,"Velocity":61,"Duration":98366,"SoundDuration":98366,"Delta":72832320},{"NoteNumber":85,"Velocity":52,"Duration":98366,"SoundDuration":98366,"Delta":72930687},{"NoteNumber":82,"Velocity":52,"Duration":98366,"SoundDuration":98366,"Delta":72930687},{"NoteNumber":64,"Velocity":66,"Duration":3442176,"SoundDuration":3442176,"Delta":73029054},{"NoteNumber":85,"Velocity":51,"Duration":97408,"SoundDuration":97408,"Delta":73141003},{"NoteNumber":82,"Velocity":51,"Duration":97408,"SoundDuration":97408,"Delta":73141003},{"NoteNumber":90,"Velocity":58,"Duration":97408,"SoundDuration":97408,"Delta":73238412},{"NoteNumber":82,"Velocity":49,"Duration":97408,"SoundDuration":97408,"Delta":73335821},{"NoteNumber":85,"Velocity":49,"Duration":97408,"SoundDuration":97408,"Delta":73335821},{"NoteNumber":91,"Velocity":57,"Duration":97408,"SoundDuration":97408,"Delta":73433230},{"NoteNumber":85,"Velocity":48,"Duration":97408,"SoundDuration":97408,"Delta":73530639},{"NoteNumber":82,"Velocity":48,"Duration":97408,"SoundDuration":97408,"Delta":73530639},{"NoteNumber":82,"Velocity":51,"Duration":97726,"SoundDuration":97726,"Delta":73735198},{"NoteNumber":79,"Velocity":51,"Duration":97726,"SoundDuration":97726,"Delta":73735198},{"NoteNumber":87,"Velocity":56,"Duration":97726,"SoundDuration":97726,"Delta":73832925},{"NoteNumber":79,"Velocity":49,"Duration":97726,"SoundDuration":97726,"Delta":73930651},{"NoteNumber":82,"Velocity":49,"Duration":97726,"SoundDuration":97726,"Delta":73930651},{"NoteNumber":88,"Velocity":56,"Duration":97726,"SoundDuration":97726,"Delta":74028377},{"NoteNumber":82,"Velocity":48,"Duration":97726,"SoundDuration":97726,"Delta":74126103},{"NoteNumber":79,"Velocity":48,"Duration":97726,"SoundDuration":97726,"Delta":74126103},{"NoteNumber":79,"Velocity":45,"Duration":98366,"SoundDuration":98366,"Delta":74330980},{"NoteNumber":76,"Velocity":45,"Duration":98366,"SoundDuration":98366,"Delta":74330980},{"NoteNumber":84,"Velocity":50,"Duration":98367,"SoundDuration":98367,"Delta":74429347},{"NoteNumber":76,"Velocity":42,"Duration":98366,"SoundDuration":98366,"Delta":74527714},{"NoteNumber":79,"Velocity":42,"Duration":98366,"SoundDuration":98366,"Delta":74527714},{"NoteNumber":85,"Velocity":48,"Duration":98366,"SoundDuration":98366,"Delta":74626081},{"NoteNumber":79,"Velocity":39,"Duration":98366,"SoundDuration":98366,"Delta":74724448},{"NoteNumber":76,"Velocity":39,"Duration":98366,"SoundDuration":98366,"Delta":74724448},{"NoteNumber":76,"Velocity":41,"Duration":100006,"SoundDuration":100006,"Delta":74925454},{"NoteNumber":73,"Velocity":41,"Duration":100006,"SoundDuration":100006,"Delta":74925454},{"NoteNumber":81,"Velocity":44,"Duration":100006,"SoundDuration":100006,"Delta":75025460},{"NoteNumber":73,"Velocity":38,"Duration":100006,"SoundDuration":100006,"Delta":75125467},{"NoteNumber":76,"Velocity":38,"Duration":100006,"SoundDuration":100006,"Delta":75125467},{"NoteNumber":82,"Velocity":43,"Duration":100006,"SoundDuration":100006,"Delta":75225474},{"NoteNumber":76,"Velocity":36,"Duration":100006,"SoundDuration":100006,"Delta":75325481},{"NoteNumber":73,"Velocity":36,"Duration":100006,"SoundDuration":100006,"Delta":75325481},{"NoteNumber":73,"Velocity":38,"Duration":102047,"SoundDuration":102047,"Delta":75534586},{"NoteNumber":70,"Velocity":38,"Duration":102047,"SoundDuration":102047,"Delta":75534586},{"NoteNumber":78,"Velocity":42,"Duration":102047,"SoundDuration":102047,"Delta":75636634},{"NoteNumber":70,"Velocity":35,"Duration":102047,"SoundDuration":102047,"Delta":75738682},{"NoteNumber":73,"Velocity":35,"Duration":102047,"SoundDuration":102047,"Delta":75738682},{"NoteNumber":79,"Velocity":40,"Duration":102047,"SoundDuration":102047,"Delta":75840729},{"NoteNumber":73,"Velocity":33,"Duration":102047,"SoundDuration":102047,"Delta":75942777},{"NoteNumber":70,"Velocity":33,"Duration":102047,"SoundDuration":102047,"Delta":75942777},{"NoteNumber":70,"Velocity":34,"Duration":106014,"SoundDuration":106014,"Delta":76153187},{"NoteNumber":67,"Velocity":34,"Duration":106014,"SoundDuration":106014,"Delta":76153187},{"NoteNumber":75,"Velocity":37,"Duration":106014,"SoundDuration":106014,"Delta":76259201},{"NoteNumber":67,"Velocity":31,"Duration":106014,"SoundDuration":106014,"Delta":76365216},{"NoteNumber":70,"Velocity":31,"Duration":106014,"SoundDuration":106014,"Delta":76365216},{"NoteNumber":76,"Velocity":35,"Duration":106014,"SoundDuration":106014,"Delta":76471230},{"NoteNumber":70,"Velocity":30,"Duration":106014,"SoundDuration":106014,"Delta":76577245},{"NoteNumber":67,"Velocity":30,"Duration":106014,"SoundDuration":106014,"Delta":76577245},{"NoteNumber":49,"Velocity":29,"Duration":269236,"SoundDuration":269236,"Delta":77902426},{"NoteNumber":58,"Velocity":37,"Duration":216229,"SoundDuration":216229,"Delta":77955433},{"NoteNumber":67,"Velocity":29,"Duration":104029,"SoundDuration":104029,"Delta":78067633},{"NoteNumber":70,"Velocity":29,"Duration":104029,"SoundDuration":104029,"Delta":78067633},{"NoteNumber":72,"Velocity":35,"Duration":104029,"SoundDuration":104029,"Delta":78171663},{"NoteNumber":67,"Velocity":30,"Duration":104029,"SoundDuration":104029,"Delta":78275692},{"NoteNumber":70,"Velocity":30,"Duration":104029,"SoundDuration":104029,"Delta":78275692},{"NoteNumber":73,"Velocity":35,"Duration":104029,"SoundDuration":104029,"Delta":78379722},{"NoteNumber":67,"Velocity":31,"Duration":104029,"SoundDuration":104029,"Delta":78483751},{"NoteNumber":70,"Velocity":31,"Duration":104029,"SoundDuration":104029,"Delta":78483751},{"NoteNumber":37,"Velocity":29,"Duration":215577,"SoundDuration":215577,"Delta":78587781},{"NoteNumber":67,"Velocity":29,"Duration":104210,"SoundDuration":104210,"Delta":78699147},{"NoteNumber":70,"Velocity":29,"Duration":104210,"SoundDuration":104210,"Delta":78699147},{"NoteNumber":72,"Velocity":35,"Duration":104029,"SoundDuration":104029,"Delta":78803358},{"NoteNumber":67,"Velocity":31,"Duration":104029,"SoundDuration":104029,"Delta":78907387},{"NoteNumber":70,"Velocity":31,"Duration":104029,"SoundDuration":104029,"Delta":78907387},{"NoteNumber":73,"Velocity":35,"Duration":104029,"SoundDuration":104029,"Delta":79011417},{"NoteNumber":67,"Velocity":30,"Duration":114676,"SoundDuration":114676,"Delta":79115446},{"NoteNumber":70,"Velocity":30,"Duration":114676,"SoundDuration":114676,"Delta":79115446},{"NoteNumber":78,"Velocity":47,"Duration":1249346,"SoundDuration":1249346,"Delta":79230123},{"NoteNumber":48,"Velocity":29,"Duration":269236,"SoundDuration":269236,"Delta":80426462},{"NoteNumber":58,"Velocity":37,"Duration":216229,"SoundDuration":216229,"Delta":80479469},{"NoteNumber":64,"Velocity":29,"Duration":104029,"SoundDuration":104029,"Delta":80591669},{"NoteNumber":70,"Velocity":29,"Duration":104029,"SoundDuration":104029,"Delta":80591669},{"NoteNumber":73,"Velocity":37,"Duration":104029,"SoundDuration":104029,"Delta":80695699},{"NoteNumber":64,"Velocity":32,"Duration":104029,"SoundDuration":104029,"Delta":80799728},{"NoteNumber":70,"Velocity":32,"Duration":104029,"SoundDuration":104029,"Delta":80799728},{"NoteNumber":74,"Velocity":38,"Duration":104029,"SoundDuration":104029,"Delta":80903758},{"NoteNumber":64,"Velocity":35,"Duration":104029,"SoundDuration":104029,"Delta":81007787},{"NoteNumber":70,"Velocity":35,"Duration":104029,"SoundDuration":104029,"Delta":81007787},{"NoteNumber":36,"Velocity":33,"Duration":215577,"SoundDuration":215577,"Delta":81111817},{"NoteNumber":64,"Velocity":34,"Duration":104210,"SoundDuration":104210,"Delta":81223183},{"NoteNumber":70,"Velocity":34,"Duration":104210,"SoundDuration":104210,"Delta":81223183},{"NoteNumber":73,"Velocity":42,"Duration":104029,"SoundDuration":104029,"Delta":81327394},{"NoteNumber":64,"Velocity":37,"Duration":104029,"SoundDuration":104029,"Delta":81431423},{"NoteNumber":70,"Velocity":37,"Duration":104029,"SoundDuration":104029,"Delta":81431423},{"NoteNumber":74,"Velocity":43,"Duration":104029,"SoundDuration":104029,"Delta":81535453},{"NoteNumber":64,"Velocity":38,"Duration":114676,"SoundDuration":114676,"Delta":81639482},{"NoteNumber":70,"Velocity":38,"Duration":114676,"SoundDuration":114676,"Delta":81639482},{"NoteNumber":79,"Velocity":62,"Duration":1664472,"SoundDuration":1664472,"Delta":81754159},{"NoteNumber":69,"Velocity":43,"Duration":208058,"SoundDuration":208058,"Delta":83418631},{"NoteNumber":70,"Velocity":50,"Duration":416118,"SoundDuration":416118,"Delta":83626690},{"NoteNumber":72,"Velocity":43,"Duration":208058,"SoundDuration":208058,"Delta":84042808},{"NoteNumber":73,"Velocity":52,"Duration":416117,"SoundDuration":416117,"Delta":84250867},{"NoteNumber":74,"Velocity":43,"Duration":208059,"SoundDuration":208059,"Delta":84666985},{"NoteNumber":66,"Velocity":51,"Duration":416117,"SoundDuration":416117,"Delta":84875044},{"NoteNumber":67,"Velocity":37,"Duration":208059,"SoundDuration":208059,"Delta":85291162},{"NoteNumber":69,"Velocity":48,"Duration":416117,"SoundDuration":416117,"Delta":85499221},{"NoteNumber":70,"Velocity":39,"Duration":208058,"SoundDuration":208058,"Delta":85915339},{"NoteNumber":61,"Velocity":35,"Duration":416118,"SoundDuration":416118,"Delta":86123398},{"NoteNumber":62,"Velocity":26,"Duration":208058,"SoundDuration":208058,"Delta":86539516},{"NoteNumber":64,"Velocity":39,"Duration":416117,"SoundDuration":416117,"Delta":86747575},{"NoteNumber":65,"Velocity":25,"Duration":164006,"SoundDuration":164006,"Delta":87163693},{"NoteNumber":36,"Velocity":24,"Duration":760931,"SoundDuration":760931,"Delta":87327699},{"NoteNumber":67,"Velocity":34,"Duration":455614,"SoundDuration":455614,"Delta":87382368},{"NoteNumber":52,"Velocity":31,"Duration":455614,"SoundDuration":455614,"Delta":87382368},{"NoteNumber":68,"Velocity":27,"Duration":250647,"SoundDuration":250647,"Delta":87837983},{"NoteNumber":50,"Velocity":27,"Duration":250647,"SoundDuration":250647,"Delta":87837983},{"NoteNumber":57,"Velocity":30,"Duration":625245,"SoundDuration":625245,"Delta":88088631},{"NoteNumber":69,"Velocity":37,"Duration":313850,"SoundDuration":313850,"Delta":88088631},{"NoteNumber":41,"Velocity":21,"Duration":2554060,"SoundDuration":2554060,"Delta":88088631},{"NoteNumber":48,"Velocity":25,"Duration":625245,"SoundDuration":625245,"Delta":88088631},{"NoteNumber":67,"Velocity":27,"Duration":99213,"SoundDuration":99213,"Delta":88402482},{"NoteNumber":65,"Velocity":27,"Duration":99212,"SoundDuration":99212,"Delta":88501695},{"NoteNumber":67,"Velocity":27,"Duration":112968,"SoundDuration":112968,"Delta":88600908},{"NoteNumber":58,"Velocity":27,"Duration":636532,"SoundDuration":636532,"Delta":88713876},{"NoteNumber":69,"Velocity":32,"Duration":418468,"SoundDuration":418468,"Delta":88713876},{"NoteNumber":50,"Velocity":21,"Duration":636532,"SoundDuration":636532,"Delta":88713876},{"NoteNumber":65,"Velocity":32,"Duration":218064,"SoundDuration":218064,"Delta":89132344},{"NoteNumber":60,"Velocity":30,"Duration":627437,"SoundDuration":627437,"Delta":89350409},{"NoteNumber":69,"Velocity":37,"Duration":315081,"SoundDuration":315081,"Delta":89350409},{"NoteNumber":52,"Velocity":25,"Duration":627437,"SoundDuration":627437,"Delta":89350409},{"NoteNumber":67,"Velocity":28,"Duration":99213,"SoundDuration":99213,"Delta":89665490},{"NoteNumber":65,"Velocity":28,"Duration":99212,"SoundDuration":99212,"Delta":89764703},{"NoteNumber":67,"Velocity":28,"Duration":113929,"SoundDuration":113929,"Delta":89863916},{"NoteNumber":58,"Velocity":27,"Duration":608360,"SoundDuration":608360,"Delta":89977846},{"NoteNumber":69,"Velocity":32,"Duration":608360,"SoundDuration":608360,"Delta":89977846},{"NoteNumber":50,"Velocity":21,"Duration":608360,"SoundDuration":608360,"Delta":89977846},{"NoteNumber":41,"Velocity":25,"Duration":1335130,"SoundDuration":1335130,"Delta":90586207},{"NoteNumber":48,"Velocity":29,"Duration":1276881,"SoundDuration":1276881,"Delta":90614449},{"NoteNumber":65,"Velocity":36,"Duration":615189,"SoundDuration":615189,"Delta":90642691},{"NoteNumber":72,"Velocity":45,"Duration":317549,"SoundDuration":317549,"Delta":90642691},{"NoteNumber":57,"Velocity":30,"Duration":615189,"SoundDuration":615189,"Delta":90642691},{"NoteNumber":74,"Velocity":38,"Duration":99213,"SoundDuration":99213,"Delta":90960241},{"NoteNumber":76,"Velocity":42,"Duration":99212,"SoundDuration":99212,"Delta":91059454},{"NoteNumber":74,"Velocity":38,"Duration":99213,"SoundDuration":99213,"Delta":91158667},{"NoteNumber":72,"Velocity":47,"Duration":423400,"SoundDuration":423400,"Delta":91257880},{"NoteNumber":65,"Velocity":38,"Duration":423400,"SoundDuration":423400,"Delta":91257880},{"NoteNumber":58,"Velocity":30,"Duration":663457,"SoundDuration":663457,"Delta":91257880},{"NoteNumber":64,"Velocity":42,"Duration":240057,"SoundDuration":240057,"Delta":91681280},{"NoteNumber":68,"Velocity":42,"Duration":240057,"SoundDuration":240057,"Delta":91681280},{"NoteNumber":41,"Velocity":23,"Duration":1194486,"SoundDuration":1194486,"Delta":91861323},{"NoteNumber":48,"Velocity":27,"Duration":1136117,"SoundDuration":1136117,"Delta":91891330},{"NoteNumber":72,"Velocity":48,"Duration":680683,"SoundDuration":680683,"Delta":91921338},{"NoteNumber":65,"Velocity":40,"Duration":1134472,"SoundDuration":1134472,"Delta":91921338},{"NoteNumber":57,"Velocity":32,"Duration":680683,"SoundDuration":680683,"Delta":91921338},{"NoteNumber":77,"Velocity":52,"Duration":453789,"SoundDuration":453789,"Delta":92602021},{"NoteNumber":60,"Velocity":40,"Duration":625245,"SoundDuration":625245,"Delta":93282705},{"NoteNumber":72,"Velocity":50,"Duration":313850,"SoundDuration":313850,"Delta":93282705},{"NoteNumber":45,"Velocity":29,"Duration":2558151,"SoundDuration":2558151,"Delta":93282705},{"NoteNumber":52,"Velocity":34,"Duration":625245,"SoundDuration":625245,"Delta":93282705},{"NoteNumber":71,"Velocity":37,"Duration":99213,"SoundDuration":99213,"Delta":93596556},{"NoteNumber":69,"Velocity":37,"Duration":99212,"SoundDuration":99212,"Delta":93695769},{"NoteNumber":71,"Velocity":37,"Duration":112968,"SoundDuration":112968,"Delta":93794982},{"NoteNumber":62,"Velocity":36,"Duration":636532,"SoundDuration":636532,"Delta":93907950},{"NoteNumber":72,"Velocity":43,"Duration":418468,"SoundDuration":418468,"Delta":93907950},{"NoteNumber":53,"Velocity":29,"Duration":636532,"SoundDuration":636532,"Delta":93907950},{"NoteNumber":69,"Velocity":43,"Duration":218064,"SoundDuration":218064,"Delta":94326418},{"NoteNumber":64,"Velocity":40,"Duration":627437,"SoundDuration":627437,"Delta":94544483},{"NoteNumber":72,"Velocity":50,"Duration":315081,"SoundDuration":315081,"Delta":94544483},{"NoteNumber":55,"Velocity":34,"Duration":627437,"SoundDuration":627437,"Delta":94544483},{"NoteNumber":71,"Velocity":38,"Duration":99213,"SoundDuration":99213,"Delta":94859564},{"NoteNumber":69,"Velocity":38,"Duration":99212,"SoundDuration":99212,"Delta":94958777},{"NoteNumber":71,"Velocity":38,"Duration":113929,"SoundDuration":113929,"Delta":95057990},{"NoteNumber":62,"Velocity":36,"Duration":612451,"SoundDuration":612451,"Delta":95171920},{"NoteNumber":72,"Velocity":43,"Duration":612451,"SoundDuration":612451,"Delta":95171920},{"NoteNumber":53,"Velocity":29,"Duration":612451,"SoundDuration":612451,"Delta":95171920},{"NoteNumber":45,"Velocity":25,"Duration":1335130,"SoundDuration":1335130,"Delta":95784372},{"NoteNumber":52,"Velocity":29,"Duration":1276881,"SoundDuration":1276881,"Delta":95812614},{"NoteNumber":69,"Velocity":40,"Duration":615189,"SoundDuration":615189,"Delta":95840856},{"NoteNumber":76,"Velocity":50,"Duration":317549,"SoundDuration":317549,"Delta":95840856},{"NoteNumber":60,"Velocity":34,"Duration":615189,"SoundDuration":615189,"Delta":95840856},{"NoteNumber":77,"Velocity":42,"Duration":99213,"SoundDuration":99213,"Delta":96158406},{"NoteNumber":79,"Velocity":46,"Duration":99212,"SoundDuration":99212,"Delta":96257619},{"NoteNumber":77,"Velocity":42,"Duration":99213,"SoundDuration":99213,"Delta":96356832},{"NoteNumber":76,"Velocity":51,"Duration":423400,"SoundDuration":423400,"Delta":96456045},{"NoteNumber":69,"Velocity":41,"Duration":423400,"SoundDuration":423400,"Delta":96456045},{"NoteNumber":62,"Velocity":33,"Duration":663457,"SoundDuration":663457,"Delta":96456045},{"NoteNumber":68,"Velocity":45,"Duration":240057,"SoundDuration":240057,"Delta":96879445},{"NoteNumber":72,"Velocity":45,"Duration":240057,"SoundDuration":240057,"Delta":96879445},{"NoteNumber":45,"Velocity":25,"Duration":1378895,"SoundDuration":1378895,"Delta":97059488},{"NoteNumber":52,"Velocity":29,"Duration":1320997,"SoundDuration":1320997,"Delta":97089496},{"NoteNumber":76,"Velocity":51,"Duration":661132,"SoundDuration":661132,"Delta":97119503},{"NoteNumber":69,"Velocity":42,"Duration":881510,"SoundDuration":881510,"Delta":97119503},{"NoteNumber":60,"Velocity":34,"Duration":1318881,"SoundDuration":1318881,"Delta":97119503},{"NoteNumber":81,"Velocity":53,"Duration":1081149,"SoundDuration":1081149,"Delta":97780635},{"NoteNumber":68,"Velocity":57,"Duration":214240,"SoundDuration":214240,"Delta":98001013},{"NoteNumber":67,"Velocity":61,"Duration":223131,"SoundDuration":223131,"Delta":98215253},{"NoteNumber":66,"Velocity":70,"Duration":1266868,"SoundDuration":1266868,"Delta":98438384},{"NoteNumber":50,"Velocity":29,"Duration":1211546,"SoundDuration":1211546,"Delta":98438384},{"NoteNumber":60,"Velocity":34,"Duration":1211546,"SoundDuration":1211546,"Delta":98438384},{"NoteNumber":78,"Velocity":53,"Duration":211699,"SoundDuration":211699,"Delta":98861784},{"NoteNumber":74,"Velocity":53,"Duration":205240,"SoundDuration":205240,"Delta":99073484},{"NoteNumber":75,"Velocity":53,"Duration":205240,"SoundDuration":205240,"Delta":99278725},{"NoteNumber":76,"Velocity":53,"Duration":221288,"SoundDuration":221288,"Delta":99483965},{"NoteNumber":43,"Velocity":34,"Duration":1130496,"SoundDuration":1130496,"Delta":99649931},{"NoteNumber":50,"Velocity":34,"Duration":1047741,"SoundDuration":1047741,"Delta":99677592},{"NoteNumber":65,"Velocity":42,"Duration":1075174,"SoundDuration":1075174,"Delta":99705253},{"NoteNumber":77,"Velocity":53,"Duration":418468,"SoundDuration":418468,"Delta":99705253},{"NoteNumber":59,"Velocity":34,"Duration":1075174,"SoundDuration":1075174,"Delta":99705253},{"NoteNumber":74,"Velocity":50,"Duration":215951,"SoundDuration":215951,"Delta":100123721},{"NoteNumber":71,"Velocity":49,"Duration":440754,"SoundDuration":440754,"Delta":100339673},{"NoteNumber":66,"Velocity":64,"Duration":1266868,"SoundDuration":1266868,"Delta":101000805},{"NoteNumber":50,"Velocity":29,"Duration":1211546,"SoundDuration":1211546,"Delta":101000805},{"NoteNumber":60,"Velocity":34,"Duration":1211546,"SoundDuration":1211546,"Delta":101000805},{"NoteNumber":81,"Velocity":53,"Duration":211700,"SoundDuration":211700,"Delta":101212505},{"NoteNumber":78,"Velocity":47,"Duration":211699,"SoundDuration":211699,"Delta":101424205},{"NoteNumber":74,"Velocity":49,"Duration":205240,"SoundDuration":205240,"Delta":101635905},{"NoteNumber":75,"Velocity":53,"Duration":205240,"SoundDuration":205240,"Delta":101841146},{"NoteNumber":76,"Velocity":54,"Duration":430521,"SoundDuration":430521,"Delta":102046386},{"NoteNumber":43,"Velocity":38,"Duration":1268232,"SoundDuration":1268232,"Delta":102212352},{"NoteNumber":50,"Velocity":40,"Duration":1240571,"SoundDuration":1240571,"Delta":102240013},{"NoteNumber":65,"Velocity":42,"Duration":1212910,"SoundDuration":1212910,"Delta":102267674},{"NoteNumber":59,"Velocity":43,"Duration":1212910,"SoundDuration":1212910,"Delta":102267674},{"NoteNumber":77,"Velocity":62,"Duration":209234,"SoundDuration":209234,"Delta":102476908},{"NoteNumber":74,"Velocity":53,"Duration":215951,"SoundDuration":215951,"Delta":102686142},{"NoteNumber":71,"Velocity":56,"Duration":578490,"SoundDuration":578490,"Delta":102902094},{"NoteNumber":55,"Velocity":38,"Duration":1266527,"SoundDuration":1266527,"Delta":103480585},{"NoteNumber":62,"Velocity":40,"Duration":1238980,"SoundDuration":1238980,"Delta":103508132},{"NoteNumber":65,"Velocity":44,"Duration":1211433,"SoundDuration":1211433,"Delta":103535679},{"NoteNumber":74,"Velocity":57,"Duration":1266868,"SoundDuration":1266868,"Delta":103563226},{"NoteNumber":86,"Velocity":80,"Duration":423400,"SoundDuration":423400,"Delta":103563226},{"NoteNumber":70,"Velocity":57,"Duration":1183886,"SoundDuration":1183886,"Delta":103563226},{"NoteNumber":82,"Velocity":62,"Duration":211699,"SoundDuration":211699,"Delta":103986626},{"NoteNumber":78,"Velocity":53,"Duration":205240,"SoundDuration":205240,"Delta":104198326},{"NoteNumber":79,"Velocity":60,"Duration":205240,"SoundDuration":205240,"Delta":104403567},{"NoteNumber":81,"Velocity":63,"Duration":221288,"SoundDuration":221288,"Delta":104608807},{"NoteNumber":48,"Velocity":40,"Duration":1295893,"SoundDuration":1295893,"Delta":104747112},{"NoteNumber":55,"Velocity":41,"Duration":1176408,"SoundDuration":1176408,"Delta":104774773},{"NoteNumber":58,"Velocity":42,"Duration":1240571,"SoundDuration":1240571,"Delta":104802434},{"NoteNumber":82,"Velocity":71,"Duration":418468,"SoundDuration":418468,"Delta":104830095},{"NoteNumber":70,"Velocity":60,"Duration":1295552,"SoundDuration":1295552,"Delta":104830095},{"NoteNumber":64,"Velocity":54,"Duration":1212910,"SoundDuration":1212910,"Delta":104830095},{"NoteNumber":79,"Velocity":57,"Duration":215951,"SoundDuration":215951,"Delta":105248563},{"NoteNumber":76,"Velocity":53,"Duration":661132,"SoundDuration":661132,"Delta":105464515},{"NoteNumber":55,"Velocity":38,"Duration":1266527,"SoundDuration":1266527,"Delta":106043006},{"NoteNumber":62,"Velocity":40,"Duration":1238980,"SoundDuration":1238980,"Delta":106070553},{"NoteNumber":65,"Velocity":44,"Duration":1211433,"SoundDuration":1211433,"Delta":106098100},{"NoteNumber":74,"Velocity":68,"Duration":1266868,"SoundDuration":1266868,"Delta":106125647},{"NoteNumber":70,"Velocity":57,"Duration":1183886,"SoundDuration":1183886,"Delta":106125647},{"NoteNumber":86,"Velocity":70,"Duration":211700,"SoundDuration":211700,"Delta":106337347},{"NoteNumber":82,"Velocity":62,"Duration":211699,"SoundDuration":211699,"Delta":106549047},{"NoteNumber":78,"Velocity":53,"Duration":205240,"SoundDuration":205240,"Delta":106760747},{"NoteNumber":79,"Velocity":60,"Duration":205240,"SoundDuration":205240,"Delta":106965988},{"NoteNumber":81,"Velocity":63,"Duration":430521,"SoundDuration":430521,"Delta":107171228},{"NoteNumber":48,"Velocity":40,"Duration":1295893,"SoundDuration":1295893,"Delta":107309533},{"NoteNumber":55,"Velocity":41,"Duration":1176408,"SoundDuration":1176408,"Delta":107337194},{"NoteNumber":58,"Velocity":42,"Duration":1240571,"SoundDuration":1240571,"Delta":107364855},{"NoteNumber":70,"Velocity":59,"Duration":1295552,"SoundDuration":1295552,"Delta":107392516},{"NoteNumber":64,"Velocity":57,"Duration":1212910,"SoundDuration":1212910,"Delta":107392516},{"NoteNumber":82,"Velocity":62,"Duration":209234,"SoundDuration":209234,"Delta":107601750},{"NoteNumber":79,"Velocity":57,"Duration":215951,"SoundDuration":215951,"Delta":107810984},{"NoteNumber":73,"Velocity":56,"Duration":220377,"SoundDuration":220377,"Delta":108026936},{"NoteNumber":74,"Velocity":58,"Duration":220377,"SoundDuration":220377,"Delta":108247313},{"NoteNumber":76,"Velocity":63,"Duration":431421,"SoundDuration":431421,"Delta":108467691},{"NoteNumber":46,"Velocity":40,"Duration":1780684,"SoundDuration":1780684,"Delta":108605427},{"NoteNumber":55,"Velocity":43,"Duration":1753136,"SoundDuration":1753136,"Delta":108632974},{"NoteNumber":62,"Velocity":46,"Duration":1725589,"SoundDuration":1725589,"Delta":108660521},{"NoteNumber":65,"Velocity":48,"Duration":1698042,"SoundDuration":1698042,"Delta":108688068},{"NoteNumber":77,"Velocity":58,"Duration":211044,"SoundDuration":211044,"Delta":108899113},{"NoteNumber":74,"Velocity":53,"Duration":211044,"SoundDuration":211044,"Delta":109110157},{"NoteNumber":66,"Velocity":47,"Duration":211044,"SoundDuration":211044,"Delta":109321202},{"NoteNumber":67,"Velocity":43,"Duration":211044,"SoundDuration":211044,"Delta":109532246},{"NoteNumber":69,"Velocity":44,"Duration":222386,"SoundDuration":222386,"Delta":109743291},{"NoteNumber":70,"Velocity":46,"Duration":210216,"SoundDuration":210216,"Delta":109965678},{"NoteNumber":73,"Velocity":42,"Duration":210216,"SoundDuration":210216,"Delta":110175894},{"NoteNumber":74,"Velocity":39,"Duration":218770,"SoundDuration":218770,"Delta":110386111},{"NoteNumber":78,"Velocity":31,"Duration":224249,"SoundDuration":224249,"Delta":110604881},{"NoteNumber":70,"Velocity":25,"Duration":56569,"SoundDuration":56569,"Delta":110829130},{"NoteNumber":74,"Velocity":25,"Duration":56569,"SoundDuration":56569,"Delta":110829130},{"NoteNumber":79,"Velocity":32,"Duration":56569,"SoundDuration":56569,"Delta":110829130},{"NoteNumber":74,"Velocity":26,"Duration":57916,"SoundDuration":57916,"Delta":111057910},{"NoteNumber":79,"Velocity":26,"Duration":57916,"SoundDuration":57916,"Delta":111057910},{"NoteNumber":82,"Velocity":33,"Duration":57916,"SoundDuration":57916,"Delta":111057910},{"NoteNumber":86,"Velocity":40,"Duration":58974,"SoundDuration":58974,"Delta":111291150},{"NoteNumber":82,"Velocity":32,"Duration":58974,"SoundDuration":58974,"Delta":111291150},{"NoteNumber":79,"Velocity":32,"Duration":58974,"SoundDuration":58974,"Delta":111291150},{"NoteNumber":58,"Velocity":36,"Duration":1281347,"SoundDuration":1281347,"Delta":112707429},{"NoteNumber":64,"Velocity":36,"Duration":1281347,"SoundDuration":1281347,"Delta":112707429},{"NoteNumber":69,"Velocity":40,"Duration":1281347,"SoundDuration":1281347,"Delta":112707429},{"NoteNumber":49,"Velocity":44,"Duration":1055222,"SoundDuration":1055222,"Delta":112707429},{"NoteNumber":48,"Velocity":32,"Duration":226124,"SoundDuration":226124,"Delta":113762651},{"NoteNumber":57,"Velocity":32,"Duration":627437,"SoundDuration":627437,"Delta":113988776},{"NoteNumber":65,"Velocity":40,"Duration":315081,"SoundDuration":315081,"Delta":113988776},{"NoteNumber":41,"Velocity":21,"Duration":627437,"SoundDuration":627437,"Delta":113988776},{"NoteNumber":48,"Velocity":27,"Duration":627437,"SoundDuration":627437,"Delta":113988776},{"NoteNumber":64,"Velocity":30,"Duration":99213,"SoundDuration":99213,"Delta":114303858},{"NoteNumber":65,"Velocity":30,"Duration":99212,"SoundDuration":99212,"Delta":114403071},{"NoteNumber":67,"Velocity":30,"Duration":113929,"SoundDuration":113929,"Delta":114502284},{"NoteNumber":58,"Velocity":30,"Duration":668936,"SoundDuration":668936,"Delta":114616214},{"NoteNumber":64,"Velocity":38,"Duration":668936,"SoundDuration":668936,"Delta":114616214},{"NoteNumber":69,"Velocity":34,"Duration":668936,"SoundDuration":668936,"Delta":114616214},{"NoteNumber":49,"Velocity":38,"Duration":668936,"SoundDuration":668936,"Delta":114616214},{"NoteNumber":61,"Velocity":30,"Duration":668936,"SoundDuration":668936,"Delta":114616214},{"NoteNumber":65,"Velocity":40,"Duration":315081,"SoundDuration":315081,"Delta":115285150},{"NoteNumber":41,"Velocity":21,"Duration":627437,"SoundDuration":627437,"Delta":115285150},{"NoteNumber":57,"Velocity":32,"Duration":627437,"SoundDuration":627437,"Delta":115285150},{"NoteNumber":48,"Velocity":27,"Duration":627437,"SoundDuration":627437,"Delta":115285150},{"NoteNumber":64,"Velocity":30,"Duration":99213,"SoundDuration":99213,"Delta":115600232},{"NoteNumber":65,"Velocity":30,"Duration":99212,"SoundDuration":99212,"Delta":115699445},{"NoteNumber":67,"Velocity":30,"Duration":113929,"SoundDuration":113929,"Delta":115798658},{"NoteNumber":64,"Velocity":38,"Duration":666882,"SoundDuration":666882,"Delta":115912587},{"NoteNumber":58,"Velocity":30,"Duration":666882,"SoundDuration":666882,"Delta":115912587},{"NoteNumber":69,"Velocity":34,"Duration":666882,"SoundDuration":666882,"Delta":115912587},{"NoteNumber":49,"Velocity":38,"Duration":666882,"SoundDuration":666882,"Delta":115912587},{"NoteNumber":61,"Velocity":30,"Duration":666882,"SoundDuration":666882,"Delta":115912587},{"NoteNumber":65,"Velocity":29,"Duration":208579,"SoundDuration":208579,"Delta":116579470},{"NoteNumber":57,"Velocity":24,"Duration":208579,"SoundDuration":208579,"Delta":116579470},{"NoteNumber":41,"Velocity":22,"Duration":208579,"SoundDuration":208579,"Delta":116579470},{"NoteNumber":48,"Velocity":26,"Duration":208579,"SoundDuration":208579,"Delta":116579470},{"NoteNumber":69,"Velocity":22,"Duration":217136,"SoundDuration":217136,"Delta":117205208},{"NoteNumber":77,"Velocity":27,"Duration":212705,"SoundDuration":212705,"Delta":117205208},{"NoteNumber":53,"Velocity":22,"Duration":212705,"SoundDuration":212705,"Delta":117205208},{"NoteNumber":60,"Velocity":26,"Duration":212705,"SoundDuration":212705,"Delta":117205208},{"NoteNumber":89,"Velocity":28,"Duration":1111935,"SoundDuration":1111935,"Delta":117843325},{"NoteNumber":81,"Velocity":23,"Duration":1111935,"SoundDuration":1111935,"Delta":117843325},{"NoteNumber":65,"Velocity":23,"Duration":1111935,"SoundDuration":1111935,"Delta":117843325},{"NoteNumber":72,"Velocity":28,"Duration":1111935,"SoundDuration":1111935,"Delta":117843325},{"NoteNumber":62,"Velocity":34,"Duration":1043713,"SoundDuration":1043713,"Delta":119177647},{"NoteNumber":67,"Velocity":42,"Duration":313850,"SoundDuration":313850,"Delta":119177647},{"NoteNumber":48,"Velocity":24,"Duration":2523555,"SoundDuration":2523555,"Delta":119177647},{"NoteNumber":58,"Velocity":28,"Duration":1043713,"SoundDuration":1043713,"Delta":119177647},{"NoteNumber":66,"Velocity":31,"Duration":99213,"SoundDuration":99213,"Delta":119491498},{"NoteNumber":67,"Velocity":31,"Duration":99212,"SoundDuration":99212,"Delta":119590711},{"NoteNumber":69,"Velocity":31,"Duration":112968,"SoundDuration":112968,"Delta":119689924},{"NoteNumber":70,"Velocity":36,"Duration":950383,"SoundDuration":950383,"Delta":119802893},{"NoteNumber":64,"Velocity":36,"Duration":218064,"SoundDuration":218064,"Delta":120221361},{"NoteNumber":60,"Velocity":34,"Duration":218064,"SoundDuration":218064,"Delta":120221361},{"NoteNumber":65,"Velocity":34,"Duration":1043713,"SoundDuration":1043713,"Delta":120439425},{"NoteNumber":62,"Velocity":37,"Duration":1043713,"SoundDuration":1043713,"Delta":120439425},{"NoteNumber":69,"Velocity":36,"Duration":99213,"SoundDuration":99213,"Delta":120753276},{"NoteNumber":70,"Velocity":38,"Duration":99212,"SoundDuration":99212,"Delta":120852489},{"NoteNumber":72,"Velocity":40,"Duration":112968,"SoundDuration":112968,"Delta":120951702},{"NoteNumber":74,"Velocity":44,"Duration":959919,"SoundDuration":959919,"Delta":121064671},{"NoteNumber":66,"Velocity":42,"Duration":218064,"SoundDuration":218064,"Delta":121483139},{"NoteNumber":63,"Velocity":37,"Duration":161340,"SoundDuration":161340,"Delta":121483139},{"NoteNumber":48,"Velocity":37,"Duration":272653,"SoundDuration":272653,"Delta":121644479},{"NoteNumber":58,"Velocity":41,"Duration":244291,"SoundDuration":244291,"Delta":121672841},{"NoteNumber":64,"Velocity":47,"Duration":215929,"SoundDuration":215929,"Delta":121701203},{"NoteNumber":67,"Velocity":48,"Duration":107457,"SoundDuration":107457,"Delta":121917133},{"NoteNumber":73,"Velocity":42,"Duration":107057,"SoundDuration":107057,"Delta":122024590},{"NoteNumber":70,"Velocity":42,"Duration":107057,"SoundDuration":107057,"Delta":122024590},{"NoteNumber":67,"Velocity":46,"Duration":106661,"SoundDuration":106661,"Delta":122131648},{"NoteNumber":70,"Velocity":42,"Duration":106270,"SoundDuration":106270,"Delta":122238309},{"NoteNumber":74,"Velocity":42,"Duration":106270,"SoundDuration":106270,"Delta":122238309},{"NoteNumber":70,"Velocity":47,"Duration":79419,"SoundDuration":79419,"Delta":122344580},{"NoteNumber":74,"Velocity":41,"Duration":79183,"SoundDuration":79183,"Delta":122450460},{"NoteNumber":78,"Velocity":41,"Duration":79183,"SoundDuration":79183,"Delta":122450460},{"NoteNumber":70,"Velocity":45,"Duration":78890,"SoundDuration":78890,"Delta":122556011},{"NoteNumber":79,"Velocity":39,"Duration":78602,"SoundDuration":78602,"Delta":122661176},{"NoteNumber":74,"Velocity":39,"Duration":78602,"SoundDuration":78602,"Delta":122661176},{"NoteNumber":74,"Velocity":43,"Duration":78313,"SoundDuration":78313,"Delta":122765962},{"NoteNumber":81,"Velocity":37,"Duration":78026,"SoundDuration":78026,"Delta":122870368},{"NoteNumber":79,"Velocity":37,"Duration":78026,"SoundDuration":78026,"Delta":122870368},{"NoteNumber":74,"Velocity":43,"Duration":77742,"SoundDuration":77742,"Delta":122974397},{"NoteNumber":82,"Velocity":36,"Duration":77736,"SoundDuration":77736,"Delta":123078052},{"NoteNumber":79,"Velocity":36,"Duration":77736,"SoundDuration":77736,"Delta":123078052},{"NoteNumber":79,"Velocity":41,"Duration":77003,"SoundDuration":77003,"Delta":123181679},{"NoteNumber":85,"Velocity":34,"Duration":77407,"SoundDuration":77407,"Delta":123284277},{"NoteNumber":82,"Velocity":34,"Duration":77407,"SoundDuration":77407,"Delta":123284277},{"NoteNumber":79,"Velocity":38,"Duration":78728,"SoundDuration":78728,"Delta":123387738},{"NoteNumber":86,"Velocity":33,"Duration":80742,"SoundDuration":80742,"Delta":123492912},{"NoteNumber":82,"Velocity":33,"Duration":80742,"SoundDuration":80742,"Delta":123492912},{"NoteNumber":91,"Velocity":48,"Duration":114165,"SoundDuration":114165,"Delta":123601234},{"NoteNumber":67,"Velocity":37,"Duration":1043713,"SoundDuration":1043713,"Delta":124322631},{"NoteNumber":72,"Velocity":46,"Duration":313850,"SoundDuration":313850,"Delta":124322631},{"NoteNumber":53,"Velocity":26,"Duration":2523555,"SoundDuration":2523555,"Delta":124322631},{"NoteNumber":63,"Velocity":30,"Duration":1043713,"SoundDuration":1043713,"Delta":124322631},{"NoteNumber":71,"Velocity":34,"Duration":99213,"SoundDuration":99213,"Delta":124636482},{"NoteNumber":72,"Velocity":35,"Duration":99212,"SoundDuration":99212,"Delta":124735695},{"NoteNumber":74,"Velocity":35,"Duration":112968,"SoundDuration":112968,"Delta":124834908},{"NoteNumber":75,"Velocity":41,"Duration":950383,"SoundDuration":950383,"Delta":124947877},{"NoteNumber":69,"Velocity":42,"Duration":218064,"SoundDuration":218064,"Delta":125366345},{"NoteNumber":65,"Velocity":40,"Duration":218064,"SoundDuration":218064,"Delta":125366345},{"NoteNumber":70,"Velocity":41,"Duration":1043713,"SoundDuration":1043713,"Delta":125584409},{"NoteNumber":67,"Velocity":44,"Duration":1043713,"SoundDuration":1043713,"Delta":125584409},{"NoteNumber":74,"Velocity":44,"Duration":99213,"SoundDuration":99213,"Delta":125898260},{"NoteNumber":75,"Velocity":47,"Duration":99212,"SoundDuration":99212,"Delta":125997473},{"NoteNumber":77,"Velocity":50,"Duration":112968,"SoundDuration":112968,"Delta":126096686},{"NoteNumber":79,"Velocity":55,"Duration":959919,"SoundDuration":959919,"Delta":126209655},{"NoteNumber":71,"Velocity":42,"Duration":218064,"SoundDuration":218064,"Delta":126628123},{"NoteNumber":68,"Velocity":37,"Duration":161340,"SoundDuration":161340,"Delta":126628123},{"NoteNumber":53,"Velocity":37,"Duration":272653,"SoundDuration":272653,"Delta":126789464},{"NoteNumber":63,"Velocity":41,"Duration":244291,"SoundDuration":244291,"Delta":126817825},{"NoteNumber":69,"Velocity":47,"Duration":215929,"SoundDuration":215929,"Delta":126846187},{"NoteNumber":72,"Velocity":48,"Duration":107457,"SoundDuration":107457,"Delta":127062117},{"NoteNumber":78,"Velocity":42,"Duration":107057,"SoundDuration":107057,"Delta":127169574},{"NoteNumber":75,"Velocity":42,"Duration":107057,"SoundDuration":107057,"Delta":127169574},{"NoteNumber":72,"Velocity":46,"Duration":106661,"SoundDuration":106661,"Delta":127276632},{"NoteNumber":75,"Velocity":42,"Duration":106270,"SoundDuration":106270,"Delta":127383293},{"NoteNumber":79,"Velocity":42,"Duration":106270,"SoundDuration":106270,"Delta":127383293},{"NoteNumber":75,"Velocity":47,"Duration":79419,"SoundDuration":79419,"Delta":127489564},{"NoteNumber":79,"Velocity":41,"Duration":79183,"SoundDuration":79183,"Delta":127595444},{"NoteNumber":83,"Velocity":41,"Duration":79183,"SoundDuration":79183,"Delta":127595444},{"NoteNumber":75,"Velocity":45,"Duration":78890,"SoundDuration":78890,"Delta":127700995},{"NoteNumber":84,"Velocity":39,"Duration":78602,"SoundDuration":78602,"Delta":127806160},{"NoteNumber":79,"Velocity":39,"Duration":78602,"SoundDuration":78602,"Delta":127806160},{"NoteNumber":79,"Velocity":43,"Duration":78313,"SoundDuration":78313,"Delta":127910946},{"NoteNumber":86,"Velocity":37,"Duration":78026,"SoundDuration":78026,"Delta":128015352},{"NoteNumber":84,"Velocity":37,"Duration":78026,"SoundDuration":78026,"Delta":128015352},{"NoteNumber":79,"Velocity":43,"Duration":77742,"SoundDuration":77742,"Delta":128119381},{"NoteNumber":87,"Velocity":36,"Duration":77736,"SoundDuration":77736,"Delta":128223036},{"NoteNumber":84,"Velocity":36,"Duration":77736,"SoundDuration":77736,"Delta":128223036},{"NoteNumber":84,"Velocity":41,"Duration":77003,"SoundDuration":77003,"Delta":128326663},{"NoteNumber":90,"Velocity":34,"Duration":77407,"SoundDuration":77407,"Delta":128429261},{"NoteNumber":87,"Velocity":34,"Duration":77407,"SoundDuration":77407,"Delta":128429261},{"NoteNumber":84,"Velocity":38,"Duration":78728,"SoundDuration":78728,"Delta":128532722},{"NoteNumber":91,"Velocity":33,"Duration":80742,"SoundDuration":80742,"Delta":128637896},{"NoteNumber":87,"Velocity":33,"Duration":80742,"SoundDuration":80742,"Delta":128637896},{"NoteNumber":96,"Velocity":48,"Duration":114165,"SoundDuration":114165,"Delta":128746219},{"NoteNumber":46,"Velocity":58,"Duration":410384,"SoundDuration":410384,"Delta":129467615},{"NoteNumber":82,"Velocity":31,"Duration":102746,"SoundDuration":102746,"Delta":129570908},{"NoteNumber":86,"Velocity":31,"Duration":102746,"SoundDuration":102746,"Delta":129570908},{"NoteNumber":88,"Velocity":35,"Duration":102381,"SoundDuration":102381,"Delta":129673655},{"NoteNumber":82,"Velocity":30,"Duration":101963,"SoundDuration":101963,"Delta":129776036},{"NoteNumber":86,"Velocity":30,"Duration":101963,"SoundDuration":101963,"Delta":129776036},{"NoteNumber":89,"Velocity":35,"Duration":101595,"SoundDuration":101595,"Delta":129878000},{"NoteNumber":53,"Velocity":52,"Duration":202796,"SoundDuration":202796,"Delta":129878000},{"NoteNumber":86,"Velocity":31,"Duration":101201,"SoundDuration":101201,"Delta":129979595},{"NoteNumber":82,"Velocity":31,"Duration":101201,"SoundDuration":101201,"Delta":129979595},{"NoteNumber":58,"Velocity":58,"Duration":404803,"SoundDuration":404803,"Delta":130080796},{"NoteNumber":86,"Velocity":30,"Duration":101201,"SoundDuration":101201,"Delta":130181997},{"NoteNumber":82,"Velocity":30,"Duration":101201,"SoundDuration":101201,"Delta":130181997},{"NoteNumber":88,"Velocity":35,"Duration":101201,"SoundDuration":101201,"Delta":130283198},{"NoteNumber":86,"Velocity":32,"Duration":101200,"SoundDuration":101200,"Delta":130384399},{"NoteNumber":82,"Velocity":32,"Duration":101200,"SoundDuration":101200,"Delta":130384399},{"NoteNumber":89,"Velocity":35,"Duration":100926,"SoundDuration":100926,"Delta":130485600},{"NoteNumber":60,"Velocity":53,"Duration":202820,"SoundDuration":202820,"Delta":130485600},{"NoteNumber":82,"Velocity":31,"Duration":101893,"SoundDuration":101893,"Delta":130586527},{"NoteNumber":86,"Velocity":31,"Duration":101893,"SoundDuration":101893,"Delta":130586527},{"NoteNumber":62,"Velocity":63,"Duration":412593,"SoundDuration":412593,"Delta":130688420},{"NoteNumber":82,"Velocity":34,"Duration":103291,"SoundDuration":103291,"Delta":130791644},{"NoteNumber":86,"Velocity":34,"Duration":103291,"SoundDuration":103291,"Delta":130791644},{"NoteNumber":88,"Velocity":39,"Duration":103140,"SoundDuration":103140,"Delta":130894935},{"NoteNumber":82,"Velocity":34,"Duration":102937,"SoundDuration":102937,"Delta":130998076},{"NoteNumber":86,"Velocity":34,"Duration":102937,"SoundDuration":102937,"Delta":130998076},{"NoteNumber":89,"Velocity":41,"Duration":102591,"SoundDuration":102591,"Delta":131101013},{"NoteNumber":65,"Velocity":68,"Duration":205042,"SoundDuration":205042,"Delta":131101013},{"NoteNumber":86,"Velocity":37,"Duration":102451,"SoundDuration":102451,"Delta":131203604},{"NoteNumber":82,"Velocity":37,"Duration":102451,"SoundDuration":102451,"Delta":131203604},{"NoteNumber":70,"Velocity":73,"Duration":407403,"SoundDuration":407403,"Delta":131306056},{"NoteNumber":86,"Velocity":37,"Duration":101908,"SoundDuration":101908,"Delta":131408291},{"NoteNumber":82,"Velocity":37,"Duration":101908,"SoundDuration":101908,"Delta":131408291},{"NoteNumber":88,"Velocity":45,"Duration":101715,"SoundDuration":101715,"Delta":131510200},{"NoteNumber":86,"Velocity":41,"Duration":101543,"SoundDuration":101543,"Delta":131611916},{"NoteNumber":82,"Velocity":41,"Duration":101543,"SoundDuration":101543,"Delta":131611916},{"NoteNumber":89,"Velocity":46,"Duration":101543,"SoundDuration":101543,"Delta":131713459},{"NoteNumber":69,"Velocity":58,"Duration":129905,"SoundDuration":129905,"Delta":131713459},{"NoteNumber":82,"Velocity":42,"Duration":113447,"SoundDuration":113447,"Delta":131815003},{"NoteNumber":86,"Velocity":42,"Duration":113447,"SoundDuration":113447,"Delta":131815003},{"NoteNumber":52,"Velocity":41,"Duration":1694915,"SoundDuration":1694915,"Delta":131843364},{"NoteNumber":59,"Velocity":47,"Duration":1666554,"SoundDuration":1666554,"Delta":131871726},{"NoteNumber":62,"Velocity":53,"Duration":1638192,"SoundDuration":1638192,"Delta":131900088},{"NoteNumber":69,"Velocity":81,"Duration":1205370,"SoundDuration":1205370,"Delta":131928450},{"NoteNumber":83,"Velocity":42,"Duration":102585,"SoundDuration":102585,"Delta":132032143},{"NoteNumber":86,"Velocity":42,"Duration":102585,"SoundDuration":102585,"Delta":132032143},{"NoteNumber":88,"Velocity":47,"Duration":101306,"SoundDuration":101306,"Delta":132134728},{"NoteNumber":83,"Velocity":39,"Duration":100595,"SoundDuration":100595,"Delta":132236035},{"NoteNumber":86,"Velocity":39,"Duration":100595,"SoundDuration":100595,"Delta":132236035},{"NoteNumber":89,"Velocity":45,"Duration":100237,"SoundDuration":100237,"Delta":132336631},{"NoteNumber":86,"Velocity":39,"Duration":99834,"SoundDuration":99834,"Delta":132436868},{"NoteNumber":83,"Velocity":39,"Duration":99834,"SoundDuration":99834,"Delta":132436868},{"NoteNumber":86,"Velocity":36,"Duration":99193,"SoundDuration":99193,"Delta":132636139},{"NoteNumber":83,"Velocity":36,"Duration":99193,"SoundDuration":99193,"Delta":132636139},{"NoteNumber":88,"Velocity":42,"Duration":99193,"SoundDuration":99193,"Delta":132735333},{"NoteNumber":86,"Velocity":37,"Duration":99193,"SoundDuration":99193,"Delta":132834526},{"NoteNumber":83,"Velocity":37,"Duration":99193,"SoundDuration":99193,"Delta":132834526},{"NoteNumber":89,"Velocity":40,"Duration":99193,"SoundDuration":99193,"Delta":132933719},{"NoteNumber":83,"Velocity":35,"Duration":100907,"SoundDuration":100907,"Delta":133032912},{"NoteNumber":86,"Velocity":35,"Duration":100907,"SoundDuration":100907,"Delta":133032912},{"NoteNumber":68,"Velocity":52,"Duration":404460,"SoundDuration":404460,"Delta":133133820},{"NoteNumber":83,"Velocity":31,"Duration":101195,"SoundDuration":101195,"Delta":133238921},{"NoteNumber":86,"Velocity":31,"Duration":101195,"SoundDuration":101195,"Delta":133238921},{"NoteNumber":88,"Velocity":35,"Duration":99278,"SoundDuration":99278,"Delta":133340117},{"NoteNumber":83,"Velocity":30,"Duration":98885,"SoundDuration":98885,"Delta":133439395},{"NoteNumber":86,"Velocity":30,"Duration":98885,"SoundDuration":98885,"Delta":133439395},{"NoteNumber":89,"Velocity":35,"Duration":98866,"SoundDuration":98866,"Delta":133538280},{"NoteNumber":86,"Velocity":31,"Duration":98866,"SoundDuration":98866,"Delta":133637147},{"NoteNumber":83,"Velocity":31,"Duration":98866,"SoundDuration":98866,"Delta":133637147},{"NoteNumber":86,"Velocity":30,"Duration":98709,"SoundDuration":98709,"Delta":133834879},{"NoteNumber":83,"Velocity":30,"Duration":98709,"SoundDuration":98709,"Delta":133834879},{"NoteNumber":88,"Velocity":35,"Duration":99465,"SoundDuration":99465,"Delta":133933588},{"NoteNumber":86,"Velocity":32,"Duration":100215,"SoundDuration":100215,"Delta":134033053},{"NoteNumber":83,"Velocity":32,"Duration":100215,"SoundDuration":100215,"Delta":134033053},{"NoteNumber":89,"Velocity":35,"Duration":101005,"SoundDuration":101005,"Delta":134133269},{"NoteNumber":83,"Velocity":31,"Duration":101863,"SoundDuration":101863,"Delta":134234275},{"NoteNumber":86,"Velocity":31,"Duration":101863,"SoundDuration":101863,"Delta":134234275},{"NoteNumber":46,"Velocity":58,"Duration":410384,"SoundDuration":410384,"Delta":134336138},{"NoteNumber":82,"Velocity":31,"Duration":102746,"SoundDuration":102746,"Delta":134439431},{"NoteNumber":85,"Velocity":31,"Duration":102746,"SoundDuration":102746,"Delta":134439431},{"NoteNumber":88,"Velocity":35,"Duration":102381,"SoundDuration":102381,"Delta":134542177},{"NoteNumber":82,"Velocity":30,"Duration":101963,"SoundDuration":101963,"Delta":134644559},{"NoteNumber":85,"Velocity":30,"Duration":101963,"SoundDuration":101963,"Delta":134644559},{"NoteNumber":89,"Velocity":35,"Duration":101595,"SoundDuration":101595,"Delta":134746522},{"NoteNumber":53,"Velocity":52,"Duration":202796,"SoundDuration":202796,"Delta":134746522},{"NoteNumber":85,"Velocity":31,"Duration":101201,"SoundDuration":101201,"Delta":134848117},{"NoteNumber":82,"Velocity":31,"Duration":101201,"SoundDuration":101201,"Delta":134848117},{"NoteNumber":58,"Velocity":58,"Duration":404803,"SoundDuration":404803,"Delta":134949318},{"NoteNumber":85,"Velocity":30,"Duration":101201,"SoundDuration":101201,"Delta":135050519},{"NoteNumber":82,"Velocity":30,"Duration":101201,"SoundDuration":101201,"Delta":135050519},{"NoteNumber":88,"Velocity":36,"Duration":101201,"SoundDuration":101201,"Delta":135151720},{"NoteNumber":85,"Velocity":32,"Duration":101200,"SoundDuration":101200,"Delta":135252921},{"NoteNumber":82,"Velocity":32,"Duration":101200,"SoundDuration":101200,"Delta":135252921},{"NoteNumber":89,"Velocity":36,"Duration":100926,"SoundDuration":100926,"Delta":135354122},{"NoteNumber":60,"Velocity":53,"Duration":202820,"SoundDuration":202820,"Delta":135354122},{"NoteNumber":82,"Velocity":32,"Duration":101893,"SoundDuration":101893,"Delta":135455049},{"NoteNumber":85,"Velocity":32,"Duration":101893,"SoundDuration":101893,"Delta":135455049},{"NoteNumber":61,"Velocity":63,"Duration":412593,"SoundDuration":412593,"Delta":135556943},{"NoteNumber":82,"Velocity":35,"Duration":103291,"SoundDuration":103291,"Delta":135660166},{"NoteNumber":85,"Velocity":35,"Duration":103291,"SoundDuration":103291,"Delta":135660166},{"NoteNumber":88,"Velocity":40,"Duration":103140,"SoundDuration":103140,"Delta":135763458},{"NoteNumber":82,"Velocity":36,"Duration":102937,"SoundDuration":102937,"Delta":135866599},{"NoteNumber":85,"Velocity":36,"Duration":102937,"SoundDuration":102937,"Delta":135866599},{"NoteNumber":89,"Velocity":44,"Duration":102591,"SoundDuration":102591,"Delta":135969536},{"NoteNumber":65,"Velocity":70,"Duration":205042,"SoundDuration":205042,"Delta":135969536},{"NoteNumber":85,"Velocity":40,"Duration":102451,"SoundDuration":102451,"Delta":136072127},{"NoteNumber":82,"Velocity":40,"Duration":102451,"SoundDuration":102451,"Delta":136072127},{"NoteNumber":70,"Velocity":77,"Duration":407403,"SoundDuration":407403,"Delta":136174578},{"NoteNumber":85,"Velocity":40,"Duration":101908,"SoundDuration":101908,"Delta":136276814},{"NoteNumber":82,"Velocity":40,"Duration":101908,"SoundDuration":101908,"Delta":136276814},{"NoteNumber":88,"Velocity":50,"Duration":101715,"SoundDuration":101715,"Delta":136378722},{"NoteNumber":85,"Velocity":46,"Duration":101543,"SoundDuration":101543,"Delta":136480438},{"NoteNumber":82,"Velocity":46,"Duration":101543,"SoundDuration":101543,"Delta":136480438},{"NoteNumber":89,"Velocity":53,"Duration":101543,"SoundDuration":101543,"Delta":136581982},{"NoteNumber":68,"Velocity":62,"Duration":129905,"SoundDuration":129905,"Delta":136581982},{"NoteNumber":82,"Velocity":49,"Duration":113447,"SoundDuration":113447,"Delta":136683525},{"NoteNumber":85,"Velocity":49,"Duration":113447,"SoundDuration":113447,"Delta":136683525},{"NoteNumber":51,"Velocity":43,"Duration":1694915,"SoundDuration":1694915,"Delta":136711887},{"NoteNumber":58,"Velocity":51,"Duration":1666554,"SoundDuration":1666554,"Delta":136740249},{"NoteNumber":61,"Velocity":57,"Duration":1638192,"SoundDuration":1638192,"Delta":136768611},{"NoteNumber":68,"Velocity":81,"Duration":1205370,"SoundDuration":1205370,"Delta":136796972},{"NoteNumber":82,"Velocity":46,"Duration":102585,"SoundDuration":102585,"Delta":136900666},{"NoteNumber":85,"Velocity":46,"Duration":102585,"SoundDuration":102585,"Delta":136900666},{"NoteNumber":88,"Velocity":52,"Duration":101306,"SoundDuration":101306,"Delta":137003251},{"NoteNumber":82,"Velocity":43,"Duration":100595,"SoundDuration":100595,"Delta":137104557},{"NoteNumber":85,"Velocity":43,"Duration":100595,"SoundDuration":100595,"Delta":137104557},{"NoteNumber":89,"Velocity":50,"Duration":100237,"SoundDuration":100237,"Delta":137205153},{"NoteNumber":85,"Velocity":44,"Duration":99834,"SoundDuration":99834,"Delta":137305391},{"NoteNumber":82,"Velocity":44,"Duration":99834,"SoundDuration":99834,"Delta":137305391},{"NoteNumber":82,"Velocity":43,"Duration":99193,"SoundDuration":99193,"Delta":137504662},{"NoteNumber":85,"Velocity":43,"Duration":99193,"SoundDuration":99193,"Delta":137504662},{"NoteNumber":88,"Velocity":53,"Duration":99193,"SoundDuration":99193,"Delta":137603855},{"NoteNumber":82,"Velocity":46,"Duration":99193,"SoundDuration":99193,"Delta":137703048},{"NoteNumber":85,"Velocity":46,"Duration":99193,"SoundDuration":99193,"Delta":137703048},{"NoteNumber":89,"Velocity":53,"Duration":99193,"SoundDuration":99193,"Delta":137802242},{"NoteNumber":85,"Velocity":46,"Duration":100907,"SoundDuration":100907,"Delta":137901435},{"NoteNumber":82,"Velocity":46,"Duration":100907,"SoundDuration":100907,"Delta":137901435},{"NoteNumber":67,"Velocity":62,"Duration":404460,"SoundDuration":404460,"Delta":138002342},{"NoteNumber":82,"Velocity":43,"Duration":101195,"SoundDuration":101195,"Delta":138107443},{"NoteNumber":85,"Velocity":43,"Duration":101195,"SoundDuration":101195,"Delta":138107443},{"NoteNumber":88,"Velocity":53,"Duration":99278,"SoundDuration":99278,"Delta":138208639},{"NoteNumber":82,"Velocity":45,"Duration":98885,"SoundDuration":98885,"Delta":138307918},{"NoteNumber":85,"Velocity":45,"Duration":98885,"SoundDuration":98885,"Delta":138307918},{"NoteNumber":89,"Velocity":53,"Duration":98866,"SoundDuration":98866,"Delta":138406803},{"NoteNumber":85,"Velocity":44,"Duration":98866,"SoundDuration":98866,"Delta":138505669},{"NoteNumber":82,"Velocity":44,"Duration":98866,"SoundDuration":98866,"Delta":138505669},{"NoteNumber":49,"Velocity":60,"Duration":49433,"SoundDuration":49433,"Delta":138555102},{"NoteNumber":66,"Velocity":80,"Duration":397256,"SoundDuration":397256,"Delta":138604535},{"NoteNumber":85,"Velocity":45,"Duration":98709,"SoundDuration":98709,"Delta":138703402},{"NoteNumber":82,"Velocity":45,"Duration":98709,"SoundDuration":98709,"Delta":138703402},{"NoteNumber":89,"Velocity":49,"Duration":99465,"SoundDuration":99465,"Delta":138802111},{"NoteNumber":82,"Velocity":43,"Duration":100215,"SoundDuration":100215,"Delta":138901576},{"NoteNumber":85,"Velocity":43,"Duration":100215,"SoundDuration":100215,"Delta":138901576},{"NoteNumber":90,"Velocity":49,"Duration":100826,"SoundDuration":100826,"Delta":139001792},{"NoteNumber":65,"Velocity":76,"Duration":280589,"SoundDuration":280589,"Delta":139001792},{"NoteNumber":85,"Velocity":42,"Duration":179762,"SoundDuration":179762,"Delta":139102619},{"NoteNumber":82,"Velocity":42,"Duration":179762,"SoundDuration":179762,"Delta":139102619},{"NoteNumber":48,"Velocity":77,"Duration":4767547,"SoundDuration":4767547,"Delta":139153049},{"NoteNumber":36,"Velocity":77,"Duration":4767547,"SoundDuration":4767547,"Delta":139153049},{"NoteNumber":55,"Velocity":64,"Duration":4638215,"SoundDuration":4638215,"Delta":139282382},{"NoteNumber":58,"Velocity":64,"Duration":4638215,"SoundDuration":4638215,"Delta":139282382},{"NoteNumber":65,"Velocity":69,"Duration":1196038,"SoundDuration":1196038,"Delta":139282382},{"NoteNumber":85,"Velocity":56,"Duration":97726,"SoundDuration":97726,"Delta":139392684},{"NoteNumber":82,"Velocity":56,"Duration":97726,"SoundDuration":97726,"Delta":139392684},{"NoteNumber":90,"Velocity":63,"Duration":97726,"SoundDuration":97726,"Delta":139490410},{"NoteNumber":82,"Velocity":53,"Duration":97726,"SoundDuration":97726,"Delta":139588136},{"NoteNumber":85,"Velocity":53,"Duration":97726,"SoundDuration":97726,"Delta":139588136},{"NoteNumber":91,"Velocity":62,"Duration":97726,"SoundDuration":97726,"Delta":139685863},{"NoteNumber":85,"Velocity":52,"Duration":97726,"SoundDuration":97726,"Delta":139783589},{"NoteNumber":82,"Velocity":52,"Duration":97726,"SoundDuration":97726,"Delta":139783589},{"NoteNumber":85,"Velocity":56,"Duration":98366,"SoundDuration":98366,"Delta":139986586},{"NoteNumber":82,"Velocity":56,"Duration":98366,"SoundDuration":98366,"Delta":139986586},{"NoteNumber":90,"Velocity":61,"Duration":98366,"SoundDuration":98366,"Delta":140084953},{"NoteNumber":82,"Velocity":53,"Duration":98366,"SoundDuration":98366,"Delta":140183320},{"NoteNumber":85,"Velocity":53,"Duration":98366,"SoundDuration":98366,"Delta":140183320},{"NoteNumber":91,"Velocity":61,"Duration":98367,"SoundDuration":98367,"Delta":140281687},{"NoteNumber":85,"Velocity":52,"Duration":98366,"SoundDuration":98366,"Delta":140380054},{"NoteNumber":82,"Velocity":52,"Duration":98366,"SoundDuration":98366,"Delta":140380054},{"NoteNumber":64,"Velocity":66,"Duration":3442176,"SoundDuration":3442176,"Delta":140478421},{"NoteNumber":85,"Velocity":51,"Duration":97408,"SoundDuration":97408,"Delta":140590369},{"NoteNumber":82,"Velocity":51,"Duration":97408,"SoundDuration":97408,"Delta":140590369},{"NoteNumber":90,"Velocity":58,"Duration":97408,"SoundDuration":97408,"Delta":140687778},{"NoteNumber":82,"Velocity":49,"Duration":97408,"SoundDuration":97408,"Delta":140785187},{"NoteNumber":85,"Velocity":49,"Duration":97408,"SoundDuration":97408,"Delta":140785187},{"NoteNumber":91,"Velocity":57,"Duration":97408,"SoundDuration":97408,"Delta":140882596},{"NoteNumber":85,"Velocity":48,"Duration":97408,"SoundDuration":97408,"Delta":140980005},{"NoteNumber":82,"Velocity":48,"Duration":97408,"SoundDuration":97408,"Delta":140980005},{"NoteNumber":82,"Velocity":51,"Duration":97726,"SoundDuration":97726,"Delta":141184565},{"NoteNumber":79,"Velocity":51,"Duration":97726,"SoundDuration":97726,"Delta":141184565},{"NoteNumber":87,"Velocity":56,"Duration":97726,"SoundDuration":97726,"Delta":141282291},{"NoteNumber":79,"Velocity":49,"Duration":97726,"SoundDuration":97726,"Delta":141380017},{"NoteNumber":82,"Velocity":49,"Duration":97726,"SoundDuration":97726,"Delta":141380017},{"NoteNumber":88,"Velocity":56,"Duration":97726,"SoundDuration":97726,"Delta":141477744},{"NoteNumber":82,"Velocity":48,"Duration":97726,"SoundDuration":97726,"Delta":141575470},{"NoteNumber":79,"Velocity":48,"Duration":97726,"SoundDuration":97726,"Delta":141575470},{"NoteNumber":79,"Velocity":45,"Duration":98366,"SoundDuration":98366,"Delta":141780347},{"NoteNumber":76,"Velocity":45,"Duration":98366,"SoundDuration":98366,"Delta":141780347},{"NoteNumber":84,"Velocity":50,"Duration":98366,"SoundDuration":98366,"Delta":141878714},{"NoteNumber":76,"Velocity":42,"Duration":98366,"SoundDuration":98366,"Delta":141977081},{"NoteNumber":79,"Velocity":42,"Duration":98366,"SoundDuration":98366,"Delta":141977081},{"NoteNumber":85,"Velocity":48,"Duration":98367,"SoundDuration":98367,"Delta":142075448},{"NoteNumber":79,"Velocity":39,"Duration":98366,"SoundDuration":98366,"Delta":142173815},{"NoteNumber":76,"Velocity":39,"Duration":98366,"SoundDuration":98366,"Delta":142173815},{"NoteNumber":76,"Velocity":41,"Duration":100006,"SoundDuration":100006,"Delta":142374820},{"NoteNumber":73,"Velocity":41,"Duration":100006,"SoundDuration":100006,"Delta":142374820},{"NoteNumber":81,"Velocity":44,"Duration":100006,"SoundDuration":100006,"Delta":142474827},{"NoteNumber":73,"Velocity":38,"Duration":100006,"SoundDuration":100006,"Delta":142574834},{"NoteNumber":76,"Velocity":38,"Duration":100006,"SoundDuration":100006,"Delta":142574834},{"NoteNumber":82,"Velocity":43,"Duration":100006,"SoundDuration":100006,"Delta":142674841},{"NoteNumber":76,"Velocity":36,"Duration":100006,"SoundDuration":100006,"Delta":142774847},{"NoteNumber":73,"Velocity":36,"Duration":100006,"SoundDuration":100006,"Delta":142774847},{"NoteNumber":73,"Velocity":38,"Duration":102047,"SoundDuration":102047,"Delta":142983953},{"NoteNumber":70,"Velocity":38,"Duration":102047,"SoundDuration":102047,"Delta":142983953},{"NoteNumber":78,"Velocity":42,"Duration":102047,"SoundDuration":102047,"Delta":143086001},{"NoteNumber":70,"Velocity":35,"Duration":102047,"SoundDuration":102047,"Delta":143188048},{"NoteNumber":73,"Velocity":35,"Duration":102047,"SoundDuration":102047,"Delta":143188048},{"NoteNumber":79,"Velocity":40,"Duration":102047,"SoundDuration":102047,"Delta":143290096},{"NoteNumber":73,"Velocity":33,"Duration":102047,"SoundDuration":102047,"Delta":143392144},{"NoteNumber":70,"Velocity":33,"Duration":102047,"SoundDuration":102047,"Delta":143392144},{"NoteNumber":70,"Velocity":34,"Duration":106014,"SoundDuration":106014,"Delta":143602553},{"NoteNumber":67,"Velocity":34,"Duration":106014,"SoundDuration":106014,"Delta":143602553},{"NoteNumber":75,"Velocity":37,"Duration":106014,"SoundDuration":106014,"Delta":143708568},{"NoteNumber":67,"Velocity":31,"Duration":106014,"SoundDuration":106014,"Delta":143814582},{"NoteNumber":70,"Velocity":31,"Duration":106014,"SoundDuration":106014,"Delta":143814582},{"NoteNumber":76,"Velocity":35,"Duration":106014,"SoundDuration":106014,"Delta":143920597},{"NoteNumber":70,"Velocity":30,"Duration":106014,"SoundDuration":106014,"Delta":144026611},{"NoteNumber":67,"Velocity":30,"Duration":106014,"SoundDuration":106014,"Delta":144026611},{"NoteNumber":49,"Velocity":29,"Duration":269236,"SoundDuration":269236,"Delta":145351793},{"NoteNumber":58,"Velocity":37,"Duration":216229,"SoundDuration":216229,"Delta":145404800},{"NoteNumber":67,"Velocity":29,"Duration":104029,"SoundDuration":104029,"Delta":145517000},{"NoteNumber":70,"Velocity":29,"Duration":104029,"SoundDuration":104029,"Delta":145517000},{"NoteNumber":72,"Velocity":35,"Duration":104029,"SoundDuration":104029,"Delta":145621029},{"NoteNumber":67,"Velocity":30,"Duration":104029,"SoundDuration":104029,"Delta":145725059},{"NoteNumber":70,"Velocity":30,"Duration":104029,"SoundDuration":104029,"Delta":145725059},{"NoteNumber":73,"Velocity":35,"Duration":104029,"SoundDuration":104029,"Delta":145829088},{"NoteNumber":67,"Velocity":31,"Duration":104029,"SoundDuration":104029,"Delta":145933118},{"NoteNumber":70,"Velocity":31,"Duration":104029,"SoundDuration":104029,"Delta":145933118},{"NoteNumber":37,"Velocity":29,"Duration":215577,"SoundDuration":215577,"Delta":146037147},{"NoteNumber":67,"Velocity":29,"Duration":104210,"SoundDuration":104210,"Delta":146148514},{"NoteNumber":70,"Velocity":29,"Duration":104210,"SoundDuration":104210,"Delta":146148514},{"NoteNumber":72,"Velocity":35,"Duration":104029,"SoundDuration":104029,"Delta":146252724},{"NoteNumber":67,"Velocity":31,"Duration":104029,"SoundDuration":104029,"Delta":146356754},{"NoteNumber":70,"Velocity":31,"Duration":104029,"SoundDuration":104029,"Delta":146356754},{"NoteNumber":73,"Velocity":35,"Duration":104029,"SoundDuration":104029,"Delta":146460783},{"NoteNumber":67,"Velocity":30,"Duration":114676,"SoundDuration":114676,"Delta":146564813},{"NoteNumber":70,"Velocity":30,"Duration":114676,"SoundDuration":114676,"Delta":146564813},{"NoteNumber":78,"Velocity":47,"Duration":1249346,"SoundDuration":1249346,"Delta":146679490},{"NoteNumber":48,"Velocity":29,"Duration":269236,"SoundDuration":269236,"Delta":147875829},{"NoteNumber":58,"Velocity":37,"Duration":216229,"SoundDuration":216229,"Delta":147928836},{"NoteNumber":64,"Velocity":29,"Duration":104029,"SoundDuration":104029,"Delta":148041036},{"NoteNumber":70,"Velocity":29,"Duration":104029,"SoundDuration":104029,"Delta":148041036},{"NoteNumber":73,"Velocity":37,"Duration":104029,"SoundDuration":104029,"Delta":148145065},{"NoteNumber":64,"Velocity":32,"Duration":104029,"SoundDuration":104029,"Delta":148249095},{"NoteNumber":70,"Velocity":32,"Duration":104029,"SoundDuration":104029,"Delta":148249095},{"NoteNumber":74,"Velocity":38,"Duration":104029,"SoundDuration":104029,"Delta":148353124},{"NoteNumber":64,"Velocity":35,"Duration":104029,"SoundDuration":104029,"Delta":148457154},{"NoteNumber":70,"Velocity":35,"Duration":104029,"SoundDuration":104029,"Delta":148457154},{"NoteNumber":36,"Velocity":33,"Duration":215577,"SoundDuration":215577,"Delta":148561183},{"NoteNumber":64,"Velocity":34,"Duration":104210,"SoundDuration":104210,"Delta":148672550},{"NoteNumber":70,"Velocity":34,"Duration":104210,"SoundDuration":104210,"Delta":148672550},{"NoteNumber":73,"Velocity":42,"Duration":104029,"SoundDuration":104029,"Delta":148776761},{"NoteNumber":64,"Velocity":37,"Duration":104029,"SoundDuration":104029,"Delta":148880790},{"NoteNumber":70,"Velocity":37,"Duration":104029,"SoundDuration":104029,"Delta":148880790},{"NoteNumber":74,"Velocity":43,"Duration":104029,"SoundDuration":104029,"Delta":148984820},{"NoteNumber":64,"Velocity":38,"Duration":114676,"SoundDuration":114676,"Delta":149088849},{"NoteNumber":70,"Velocity":38,"Duration":114676,"SoundDuration":114676,"Delta":149088849},{"NoteNumber":79,"Velocity":62,"Duration":1664471,"SoundDuration":1664471,"Delta":149203526},{"NoteNumber":69,"Velocity":43,"Duration":208059,"SoundDuration":208059,"Delta":150867998},{"NoteNumber":70,"Velocity":50,"Duration":416117,"SoundDuration":416117,"Delta":151076057},{"NoteNumber":72,"Velocity":43,"Duration":208059,"SoundDuration":208059,"Delta":151492175},{"NoteNumber":73,"Velocity":52,"Duration":416117,"SoundDuration":416117,"Delta":151700234},{"NoteNumber":74,"Velocity":43,"Duration":208058,"SoundDuration":208058,"Delta":152116352},{"NoteNumber":66,"Velocity":51,"Duration":416118,"SoundDuration":416118,"Delta":152324411},{"NoteNumber":67,"Velocity":37,"Duration":208058,"SoundDuration":208058,"Delta":152740529},{"NoteNumber":69,"Velocity":48,"Duration":416118,"SoundDuration":416118,"Delta":152948588},{"NoteNumber":70,"Velocity":39,"Duration":208058,"SoundDuration":208058,"Delta":153364706},{"NoteNumber":61,"Velocity":35,"Duration":416118,"SoundDuration":416118,"Delta":153572765},{"NoteNumber":62,"Velocity":26,"Duration":208058,"SoundDuration":208058,"Delta":153988883},{"NoteNumber":64,"Velocity":39,"Duration":416118,"SoundDuration":416118,"Delta":154196942},{"NoteNumber":65,"Velocity":25,"Duration":164006,"SoundDuration":164006,"Delta":154613060},{"NoteNumber":36,"Velocity":24,"Duration":760931,"SoundDuration":760931,"Delta":154777066},{"NoteNumber":67,"Velocity":34,"Duration":455614,"SoundDuration":455614,"Delta":154831735},{"NoteNumber":52,"Velocity":31,"Duration":455614,"SoundDuration":455614,"Delta":154831735},{"NoteNumber":68,"Velocity":27,"Duration":250647,"SoundDuration":250647,"Delta":155287350},{"NoteNumber":50,"Velocity":27,"Duration":250647,"SoundDuration":250647,"Delta":155287350},{"NoteNumber":57,"Velocity":30,"Duration":625245,"SoundDuration":625245,"Delta":155537997},{"NoteNumber":69,"Velocity":37,"Duration":313850,"SoundDuration":313850,"Delta":155537997},{"NoteNumber":41,"Velocity":21,"Duration":2554060,"SoundDuration":2554060,"Delta":155537997},{"NoteNumber":48,"Velocity":25,"Duration":625245,"SoundDuration":625245,"Delta":155537997},{"NoteNumber":67,"Velocity":27,"Duration":99212,"SoundDuration":99212,"Delta":155851848},{"NoteNumber":65,"Velocity":27,"Duration":99213,"SoundDuration":99213,"Delta":155951061},{"NoteNumber":67,"Velocity":27,"Duration":112968,"SoundDuration":112968,"Delta":156050274},{"NoteNumber":58,"Velocity":27,"Duration":636532,"SoundDuration":636532,"Delta":156163243},{"NoteNumber":69,"Velocity":32,"Duration":418467,"SoundDuration":418467,"Delta":156163243},{"NoteNumber":50,"Velocity":21,"Duration":636532,"SoundDuration":636532,"Delta":156163243},{"NoteNumber":65,"Velocity":32,"Duration":218064,"SoundDuration":218064,"Delta":156581711},{"NoteNumber":60,"Velocity":30,"Duration":627437,"SoundDuration":627437,"Delta":156799775},{"NoteNumber":69,"Velocity":37,"Duration":315081,"SoundDuration":315081,"Delta":156799775},{"NoteNumber":52,"Velocity":25,"Duration":627437,"SoundDuration":627437,"Delta":156799775},{"NoteNumber":67,"Velocity":28,"Duration":99212,"SoundDuration":99212,"Delta":157114857},{"NoteNumber":65,"Velocity":28,"Duration":99213,"SoundDuration":99213,"Delta":157214070},{"NoteNumber":67,"Velocity":28,"Duration":113929,"SoundDuration":113929,"Delta":157313283},{"NoteNumber":58,"Velocity":27,"Duration":608360,"SoundDuration":608360,"Delta":157427213},{"NoteNumber":69,"Velocity":32,"Duration":608360,"SoundDuration":608360,"Delta":157427213},{"NoteNumber":50,"Velocity":21,"Duration":608360,"SoundDuration":608360,"Delta":157427213},{"NoteNumber":41,"Velocity":25,"Duration":1335130,"SoundDuration":1335130,"Delta":158035573},{"NoteNumber":48,"Velocity":29,"Duration":1276881,"SoundDuration":1276881,"Delta":158063815},{"NoteNumber":65,"Velocity":36,"Duration":615189,"SoundDuration":615189,"Delta":158092058},{"NoteNumber":72,"Velocity":45,"Duration":317550,"SoundDuration":317550,"Delta":158092058},{"NoteNumber":57,"Velocity":30,"Duration":615189,"SoundDuration":615189,"Delta":158092058},{"NoteNumber":74,"Velocity":38,"Duration":99212,"SoundDuration":99212,"Delta":158409608},{"NoteNumber":76,"Velocity":42,"Duration":99213,"SoundDuration":99213,"Delta":158508821},{"NoteNumber":74,"Velocity":38,"Duration":99212,"SoundDuration":99212,"Delta":158608034},{"NoteNumber":72,"Velocity":47,"Duration":423399,"SoundDuration":423399,"Delta":158707247},{"NoteNumber":65,"Velocity":38,"Duration":423399,"SoundDuration":423399,"Delta":158707247},{"NoteNumber":58,"Velocity":30,"Duration":663457,"SoundDuration":663457,"Delta":158707247},{"NoteNumber":64,"Velocity":42,"Duration":240057,"SoundDuration":240057,"Delta":159130647},{"NoteNumber":68,"Velocity":42,"Duration":240057,"SoundDuration":240057,"Delta":159130647},{"NoteNumber":41,"Velocity":23,"Duration":1194486,"SoundDuration":1194486,"Delta":159310690},{"NoteNumber":48,"Velocity":27,"Duration":1136117,"SoundDuration":1136117,"Delta":159340697},{"NoteNumber":72,"Velocity":48,"Duration":680683,"SoundDuration":680683,"Delta":159370704},{"NoteNumber":65,"Velocity":40,"Duration":1134472,"SoundDuration":1134472,"Delta":159370704},{"NoteNumber":57,"Velocity":32,"Duration":680683,"SoundDuration":680683,"Delta":159370704},{"NoteNumber":77,"Velocity":48,"Duration":453789,"SoundDuration":453789,"Delta":160051388},{"NoteNumber":60,"Velocity":40,"Duration":625245,"SoundDuration":625245,"Delta":160732071},{"NoteNumber":72,"Velocity":50,"Duration":313850,"SoundDuration":313850,"Delta":160732071},{"NoteNumber":45,"Velocity":29,"Duration":2558151,"SoundDuration":2558151,"Delta":160732071},{"NoteNumber":52,"Velocity":34,"Duration":625245,"SoundDuration":625245,"Delta":160732071},{"NoteNumber":71,"Velocity":37,"Duration":99212,"SoundDuration":99212,"Delta":161045922},{"NoteNumber":69,"Velocity":37,"Duration":99213,"SoundDuration":99213,"Delta":161145135},{"NoteNumber":71,"Velocity":37,"Duration":112968,"SoundDuration":112968,"Delta":161244348},{"NoteNumber":62,"Velocity":36,"Duration":636532,"SoundDuration":636532,"Delta":161357317},{"NoteNumber":72,"Velocity":43,"Duration":418467,"SoundDuration":418467,"Delta":161357317},{"NoteNumber":53,"Velocity":29,"Duration":636532,"SoundDuration":636532,"Delta":161357317},{"NoteNumber":69,"Velocity":43,"Duration":218064,"SoundDuration":218064,"Delta":161775785},{"NoteNumber":64,"Velocity":40,"Duration":627437,"SoundDuration":627437,"Delta":161993849},{"NoteNumber":72,"Velocity":50,"Duration":315081,"SoundDuration":315081,"Delta":161993849},{"NoteNumber":55,"Velocity":34,"Duration":627437,"SoundDuration":627437,"Delta":161993849},{"NoteNumber":71,"Velocity":38,"Duration":99212,"SoundDuration":99212,"Delta":162308931},{"NoteNumber":69,"Velocity":38,"Duration":99213,"SoundDuration":99213,"Delta":162408144},{"NoteNumber":71,"Velocity":38,"Duration":113929,"SoundDuration":113929,"Delta":162507357},{"NoteNumber":62,"Velocity":36,"Duration":612451,"SoundDuration":612451,"Delta":162621287},{"NoteNumber":72,"Velocity":43,"Duration":612451,"SoundDuration":612451,"Delta":162621287},{"NoteNumber":53,"Velocity":29,"Duration":612451,"SoundDuration":612451,"Delta":162621287},{"NoteNumber":45,"Velocity":25,"Duration":1335130,"SoundDuration":1335130,"Delta":163233739},{"NoteNumber":52,"Velocity":29,"Duration":1276881,"SoundDuration":1276881,"Delta":163261981},{"NoteNumber":69,"Velocity":40,"Duration":615189,"SoundDuration":615189,"Delta":163290223},{"NoteNumber":76,"Velocity":50,"Duration":317550,"SoundDuration":317550,"Delta":163290223},{"NoteNumber":60,"Velocity":34,"Duration":615189,"SoundDuration":615189,"Delta":163290223},{"NoteNumber":77,"Velocity":42,"Duration":99212,"SoundDuration":99212,"Delta":163607773},{"NoteNumber":79,"Velocity":46,"Duration":99213,"SoundDuration":99213,"Delta":163706986},{"NoteNumber":77,"Velocity":42,"Duration":99212,"SoundDuration":99212,"Delta":163806199},{"NoteNumber":76,"Velocity":51,"Duration":423399,"SoundDuration":423399,"Delta":163905412},{"NoteNumber":69,"Velocity":41,"Duration":423399,"SoundDuration":423399,"Delta":163905412},{"NoteNumber":62,"Velocity":33,"Duration":663457,"SoundDuration":663457,"Delta":163905412},{"NoteNumber":68,"Velocity":45,"Duration":240057,"SoundDuration":240057,"Delta":164328812},{"NoteNumber":72,"Velocity":45,"Duration":240057,"SoundDuration":240057,"Delta":164328812},{"NoteNumber":45,"Velocity":25,"Duration":1378895,"SoundDuration":1378895,"Delta":164508855},{"NoteNumber":52,"Velocity":29,"Duration":1320997,"SoundDuration":1320997,"Delta":164538862},{"NoteNumber":76,"Velocity":51,"Duration":661132,"SoundDuration":661132,"Delta":164568869},{"NoteNumber":69,"Velocity":42,"Duration":881509,"SoundDuration":881509,"Delta":164568869},{"NoteNumber":60,"Velocity":34,"Duration":1318881,"SoundDuration":1318881,"Delta":164568869},{"NoteNumber":81,"Velocity":53,"Duration":1081148,"SoundDuration":1081148,"Delta":165230002},{"NoteNumber":68,"Velocity":57,"Duration":214239,"SoundDuration":214239,"Delta":165450379},{"NoteNumber":67,"Velocity":61,"Duration":223131,"SoundDuration":223131,"Delta":165664619},{"NoteNumber":66,"Velocity":70,"Duration":1266868,"SoundDuration":1266868,"Delta":165887751},{"NoteNumber":50,"Velocity":29,"Duration":1211546,"SoundDuration":1211546,"Delta":165887751},{"NoteNumber":60,"Velocity":34,"Duration":1211546,"SoundDuration":1211546,"Delta":165887751},{"NoteNumber":78,"Velocity":53,"Duration":211700,"SoundDuration":211700,"Delta":166311151},{"NoteNumber":74,"Velocity":53,"Duration":205240,"SoundDuration":205240,"Delta":166522851},{"NoteNumber":75,"Velocity":53,"Duration":205240,"SoundDuration":205240,"Delta":166728091},{"NoteNumber":76,"Velocity":53,"Duration":221287,"SoundDuration":221287,"Delta":166933332},{"NoteNumber":43,"Velocity":34,"Duration":1130496,"SoundDuration":1130496,"Delta":167099298},{"NoteNumber":50,"Velocity":34,"Duration":1047741,"SoundDuration":1047741,"Delta":167126959},{"NoteNumber":65,"Velocity":44,"Duration":1075174,"SoundDuration":1075174,"Delta":167154620},{"NoteNumber":77,"Velocity":53,"Duration":418467,"SoundDuration":418467,"Delta":167154620},{"NoteNumber":59,"Velocity":34,"Duration":1075174,"SoundDuration":1075174,"Delta":167154620},{"NoteNumber":74,"Velocity":50,"Duration":215951,"SoundDuration":215951,"Delta":167573088},{"NoteNumber":71,"Velocity":47,"Duration":440754,"SoundDuration":440754,"Delta":167789039},{"NoteNumber":66,"Velocity":64,"Duration":1266868,"SoundDuration":1266868,"Delta":168450172},{"NoteNumber":50,"Velocity":29,"Duration":1211546,"SoundDuration":1211546,"Delta":168450172},{"NoteNumber":60,"Velocity":34,"Duration":1211546,"SoundDuration":1211546,"Delta":168450172},{"NoteNumber":81,"Velocity":53,"Duration":211699,"SoundDuration":211699,"Delta":168661872},{"NoteNumber":78,"Velocity":47,"Duration":211700,"SoundDuration":211700,"Delta":168873572},{"NoteNumber":74,"Velocity":49,"Duration":205240,"SoundDuration":205240,"Delta":169085272},{"NoteNumber":75,"Velocity":53,"Duration":205240,"SoundDuration":205240,"Delta":169290512},{"NoteNumber":76,"Velocity":54,"Duration":430521,"SoundDuration":430521,"Delta":169495753},{"NoteNumber":43,"Velocity":38,"Duration":1268232,"SoundDuration":1268232,"Delta":169661719},{"NoteNumber":50,"Velocity":40,"Duration":1240571,"SoundDuration":1240571,"Delta":169689380},{"NoteNumber":65,"Velocity":44,"Duration":1212910,"SoundDuration":1212910,"Delta":169717041},{"NoteNumber":59,"Velocity":43,"Duration":1212910,"SoundDuration":1212910,"Delta":169717041},{"NoteNumber":77,"Velocity":62,"Duration":209233,"SoundDuration":209233,"Delta":169926275},{"NoteNumber":74,"Velocity":53,"Duration":215951,"SoundDuration":215951,"Delta":170135509},{"NoteNumber":71,"Velocity":56,"Duration":578490,"SoundDuration":578490,"Delta":170351460},{"NoteNumber":55,"Velocity":38,"Duration":1266527,"SoundDuration":1266527,"Delta":170929951},{"NoteNumber":62,"Velocity":40,"Duration":1238980,"SoundDuration":1238980,"Delta":170957499},{"NoteNumber":65,"Velocity":44,"Duration":1211433,"SoundDuration":1211433,"Delta":170985046},{"NoteNumber":74,"Velocity":57,"Duration":1266868,"SoundDuration":1266868,"Delta":171012593},{"NoteNumber":86,"Velocity":80,"Duration":423399,"SoundDuration":423399,"Delta":171012593},{"NoteNumber":70,"Velocity":57,"Duration":1183886,"SoundDuration":1183886,"Delta":171012593},{"NoteNumber":82,"Velocity":62,"Duration":211700,"SoundDuration":211700,"Delta":171435993},{"NoteNumber":78,"Velocity":53,"Duration":205240,"SoundDuration":205240,"Delta":171647693},{"NoteNumber":79,"Velocity":60,"Duration":205240,"SoundDuration":205240,"Delta":171852933},{"NoteNumber":81,"Velocity":63,"Duration":221287,"SoundDuration":221287,"Delta":172058174},{"NoteNumber":48,"Velocity":40,"Duration":1295893,"SoundDuration":1295893,"Delta":172196479},{"NoteNumber":55,"Velocity":41,"Duration":1176408,"SoundDuration":1176408,"Delta":172224140},{"NoteNumber":58,"Velocity":42,"Duration":1240571,"SoundDuration":1240571,"Delta":172251801},{"NoteNumber":82,"Velocity":71,"Duration":418467,"SoundDuration":418467,"Delta":172279462},{"NoteNumber":70,"Velocity":60,"Duration":1295551,"SoundDuration":1295551,"Delta":172279462},{"NoteNumber":64,"Velocity":57,"Duration":1212910,"SoundDuration":1212910,"Delta":172279462},{"NoteNumber":79,"Velocity":55,"Duration":215951,"SoundDuration":215951,"Delta":172697930},{"NoteNumber":76,"Velocity":50,"Duration":661132,"SoundDuration":661132,"Delta":172913881},{"NoteNumber":55,"Velocity":38,"Duration":1266527,"SoundDuration":1266527,"Delta":173492372},{"NoteNumber":62,"Velocity":40,"Duration":1238980,"SoundDuration":1238980,"Delta":173519920},{"NoteNumber":65,"Velocity":44,"Duration":1211433,"SoundDuration":1211433,"Delta":173547467},{"NoteNumber":74,"Velocity":68,"Duration":1266868,"SoundDuration":1266868,"Delta":173575014},{"NoteNumber":70,"Velocity":57,"Duration":1183886,"SoundDuration":1183886,"Delta":173575014},{"NoteNumber":86,"Velocity":70,"Duration":211699,"SoundDuration":211699,"Delta":173786714},{"NoteNumber":82,"Velocity":62,"Duration":211700,"SoundDuration":211700,"Delta":173998414},{"NoteNumber":78,"Velocity":53,"Duration":205240,"SoundDuration":205240,"Delta":174210114},{"NoteNumber":79,"Velocity":60,"Duration":205240,"SoundDuration":205240,"Delta":174415354},{"NoteNumber":81,"Velocity":63,"Duration":430521,"SoundDuration":430521,"Delta":174620595},{"NoteNumber":48,"Velocity":40,"Duration":1295893,"SoundDuration":1295893,"Delta":174758900},{"NoteNumber":55,"Velocity":41,"Duration":1176408,"SoundDuration":1176408,"Delta":174786561},{"NoteNumber":58,"Velocity":42,"Duration":1240571,"SoundDuration":1240571,"Delta":174814222},{"NoteNumber":70,"Velocity":59,"Duration":1295551,"SoundDuration":1295551,"Delta":174841883},{"NoteNumber":64,"Velocity":57,"Duration":1212910,"SoundDuration":1212910,"Delta":174841883},{"NoteNumber":82,"Velocity":62,"Duration":209233,"SoundDuration":209233,"Delta":175051117},{"NoteNumber":79,"Velocity":57,"Duration":215951,"SoundDuration":215951,"Delta":175260351},{"NoteNumber":73,"Velocity":56,"Duration":220377,"SoundDuration":220377,"Delta":175476302},{"NoteNumber":74,"Velocity":58,"Duration":220377,"SoundDuration":220377,"Delta":175696680},{"NoteNumber":76,"Velocity":63,"Duration":431422,"SoundDuration":431422,"Delta":175917057},{"NoteNumber":46,"Velocity":40,"Duration":1780684,"SoundDuration":1780684,"Delta":176054793},{"NoteNumber":55,"Velocity":43,"Duration":1753136,"SoundDuration":1753136,"Delta":176082341},{"NoteNumber":62,"Velocity":46,"Duration":1725589,"SoundDuration":1725589,"Delta":176109888},{"NoteNumber":65,"Velocity":48,"Duration":1698042,"SoundDuration":1698042,"Delta":176137435},{"NoteNumber":77,"Velocity":58,"Duration":211044,"SoundDuration":211044,"Delta":176348479},{"NoteNumber":74,"Velocity":53,"Duration":211044,"SoundDuration":211044,"Delta":176559524},{"NoteNumber":66,"Velocity":47,"Duration":211044,"SoundDuration":211044,"Delta":176770568},{"NoteNumber":67,"Velocity":43,"Duration":211044,"SoundDuration":211044,"Delta":176981613},{"NoteNumber":69,"Velocity":44,"Duration":222386,"SoundDuration":222386,"Delta":177192657},{"NoteNumber":70,"Velocity":46,"Duration":210216,"SoundDuration":210216,"Delta":177415044},{"NoteNumber":73,"Velocity":42,"Duration":210216,"SoundDuration":210216,"Delta":177625261},{"NoteNumber":74,"Velocity":39,"Duration":218770,"SoundDuration":218770,"Delta":177835477},{"NoteNumber":78,"Velocity":31,"Duration":224248,"SoundDuration":224248,"Delta":178054248},{"NoteNumber":70,"Velocity":25,"Duration":56569,"SoundDuration":56569,"Delta":178278497},{"NoteNumber":74,"Velocity":25,"Duration":56569,"SoundDuration":56569,"Delta":178278497},{"NoteNumber":79,"Velocity":32,"Duration":56569,"SoundDuration":56569,"Delta":178278497},{"NoteNumber":74,"Velocity":26,"Duration":57916,"SoundDuration":57916,"Delta":178507277},{"NoteNumber":79,"Velocity":26,"Duration":57916,"SoundDuration":57916,"Delta":178507277},{"NoteNumber":82,"Velocity":33,"Duration":57916,"SoundDuration":57916,"Delta":178507277},{"NoteNumber":86,"Velocity":40,"Duration":58974,"SoundDuration":58974,"Delta":178740516},{"NoteNumber":82,"Velocity":32,"Duration":58974,"SoundDuration":58974,"Delta":178740516},{"NoteNumber":79,"Velocity":32,"Duration":58974,"SoundDuration":58974,"Delta":178740516},{"NoteNumber":58,"Velocity":36,"Duration":1281347,"SoundDuration":1281347,"Delta":180156795},{"NoteNumber":64,"Velocity":36,"Duration":1281347,"SoundDuration":1281347,"Delta":180156795},{"NoteNumber":69,"Velocity":40,"Duration":1281347,"SoundDuration":1281347,"Delta":180156795},{"NoteNumber":49,"Velocity":44,"Duration":1055222,"SoundDuration":1055222,"Delta":180156795},{"NoteNumber":48,"Velocity":32,"Duration":226124,"SoundDuration":226124,"Delta":181212018},{"NoteNumber":57,"Velocity":32,"Duration":627437,"SoundDuration":627437,"Delta":181438143},{"NoteNumber":65,"Velocity":40,"Duration":315081,"SoundDuration":315081,"Delta":181438143},{"NoteNumber":41,"Velocity":21,"Duration":627437,"SoundDuration":627437,"Delta":181438143},{"NoteNumber":48,"Velocity":27,"Duration":627437,"SoundDuration":627437,"Delta":181438143},{"NoteNumber":64,"Velocity":30,"Duration":99212,"SoundDuration":99212,"Delta":181753225},{"NoteNumber":65,"Velocity":30,"Duration":99213,"SoundDuration":99213,"Delta":181852438},{"NoteNumber":67,"Velocity":30,"Duration":113929,"SoundDuration":113929,"Delta":181951651},{"NoteNumber":58,"Velocity":30,"Duration":668936,"SoundDuration":668936,"Delta":182065580},{"NoteNumber":64,"Velocity":38,"Duration":668936,"SoundDuration":668936,"Delta":182065580},{"NoteNumber":69,"Velocity":34,"Duration":668936,"SoundDuration":668936,"Delta":182065580},{"NoteNumber":49,"Velocity":38,"Duration":668936,"SoundDuration":668936,"Delta":182065580},{"NoteNumber":61,"Velocity":30,"Duration":668936,"SoundDuration":668936,"Delta":182065580},{"NoteNumber":65,"Velocity":40,"Duration":315081,"SoundDuration":315081,"Delta":182734517},{"NoteNumber":41,"Velocity":21,"Duration":627437,"SoundDuration":627437,"Delta":182734517},{"NoteNumber":57,"Velocity":32,"Duration":627437,"SoundDuration":627437,"Delta":182734517},{"NoteNumber":48,"Velocity":27,"Duration":627437,"SoundDuration":627437,"Delta":182734517},{"NoteNumber":64,"Velocity":30,"Duration":99212,"SoundDuration":99212,"Delta":183049598},{"NoteNumber":65,"Velocity":30,"Duration":99213,"SoundDuration":99213,"Delta":183148811},{"NoteNumber":67,"Velocity":30,"Duration":113929,"SoundDuration":113929,"Delta":183248024},{"NoteNumber":64,"Velocity":38,"Duration":683000,"SoundDuration":683000,"Delta":183361954},{"NoteNumber":58,"Velocity":30,"Duration":683000,"SoundDuration":683000,"Delta":183361954},{"NoteNumber":69,"Velocity":34,"Duration":683000,"SoundDuration":683000,"Delta":183361954},{"NoteNumber":49,"Velocity":38,"Duration":683000,"SoundDuration":683000,"Delta":183361954},{"NoteNumber":61,"Velocity":30,"Duration":683000,"SoundDuration":683000,"Delta":183361954},{"NoteNumber":57,"Velocity":24,"Duration":228310,"SoundDuration":228310,"Delta":184044955},{"NoteNumber":41,"Velocity":22,"Duration":228310,"SoundDuration":228310,"Delta":184044955},{"NoteNumber":48,"Velocity":26,"Duration":228310,"SoundDuration":228310,"Delta":184044955},{"NoteNumber":65,"Velocity":29,"Duration":228310,"SoundDuration":228310,"Delta":184054468},{"NoteNumber":69,"Velocity":19,"Duration":267701,"SoundDuration":267701,"Delta":184729886},{"NoteNumber":77,"Velocity":24,"Duration":262237,"SoundDuration":262237,"Delta":184729886},{"NoteNumber":53,"Velocity":19,"Duration":262237,"SoundDuration":262237,"Delta":184729886},{"NoteNumber":60,"Velocity":23,"Duration":262237,"SoundDuration":262237,"Delta":184729886},{"NoteNumber":89,"Velocity":25,"Duration":1358695,"SoundDuration":1358695,"Delta":185516600},{"NoteNumber":81,"Velocity":20,"Duration":1358695,"SoundDuration":1358695,"Delta":185516600},{"NoteNumber":65,"Velocity":20,"Duration":1358695,"SoundDuration":1358695,"Delta":185516600},{"NoteNumber":72,"Velocity":25,"Duration":1358695,"SoundDuration":1358695,"Delta":185516600}],"license":{"name":"Creative Commons Attribution-ShareAlike 3.0 Germany","url":"http://creativecommons.org/licenses/by-sa/3.0/de/deed.en","text":"The MIDI, audio (MP3, OGG) and video files of Bernd Krueger are licensed under the cc-by-sa Germany License. This means that you can use and adapt the files, as long as you attribute the copyright holder.\n\nName: Bernd Krueger\nSource: http://www.piano-midi.de\n\nThe distribution or public playback of the files is only allowed under identical license conditions.\n\nThe scores are open source.","attribution":"MIDI files by Bernd Krueger (piano-midi.de)","attributionUrl":"http://www.piano-midi.de"}}