{"title":"Hochzeitstag auf Troldhaugen Op 65, No. 6","artist":"Grieg","durationMs":329273,"midiSha256":"a58603f4d63d4acbe5419029ed58fa808975c24a24f1ca4339b4c92a33faa1b3","midiObject":[{"NoteNumber":38,"Velocity":36,"Duration":262513,"SoundDuration":262513,"Delta":0},{"NoteNumber":45,"Velocity":36,"Duration":262513,"SoundDuration":262513,"Delta":0},{"NoteNumber":57,"Velocity":31,"Duration":254064,"SoundDuration":254064,"Delta":525026},{"NoteNumber":50,"Velocity":31,"Duration":254064,"SoundDuration":254064,"Delta":525026},{"NoteNumber":50,"Velocity":31,"Duration":254064,"SoundDuration":254064,"Delta":779091},{"NoteNumber":57,"Velocity":31,"Duration":254064,"SoundDuration":254064,"Delta":779091},{"NoteNumber":50,"Velocity":36,"Duration":254064,"SoundDuration":254064,"Delta":1033156},{"NoteNumber":57,"Velocity":36,"Duration":254064,"SoundDuration":254064,"Delta":1033156},{"NoteNumber":38,"Velocity":31,"Duration":237755,"SoundDuration":237755,"Delta":1541286},{"NoteNumber":45,"Velocity":31,"Duration":237755,"SoundDuration":237755,"Delta":1541286},{"NoteNumber":45,"Velocity":31,"Duration":237755,"SoundDuration":237755,"Delta":1779041},{"NoteNumber":38,"Velocity":31,"Duration":237755,"SoundDuration":237755,"Delta":1779041},{"NoteNumber":38,"Velocity":36,"Duration":237755,"SoundDuration":237755,"Delta":2016797},{"NoteNumber":45,"Velocity":36,"Duration":237755,"SoundDuration":237755,"Delta":2016797},{"NoteNumber":50,"Velocity":31,"Duration":237755,"SoundDuration":237755,"Delta":2492308},{"NoteNumber":57,"Velocity":31,"Duration":237755,"SoundDuration":237755,"Delta":2492308},{"NoteNumber":50,"Velocity":31,"Duration":237755,"SoundDuration":237755,"Delta":2730063},{"NoteNumber":57,"Velocity":31,"Duration":237755,"SoundDuration":237755,"Delta":2730063},{"NoteNumber":50,"Velocity":35,"Duration":239558,"SoundDuration":239558,"Delta":2967819},{"NoteNumber":57,"Velocity":35,"Duration":239558,"SoundDuration":239558,"Delta":2967819},{"NoteNumber":38,"Velocity":31,"Duration":239558,"SoundDuration":239558,"Delta":3446937},{"NoteNumber":45,"Velocity":31,"Duration":239558,"SoundDuration":239558,"Delta":3446937},{"NoteNumber":69,"Velocity":39,"Duration":79251,"SoundDuration":79251,"Delta":3686496},{"NoteNumber":45,"Velocity":31,"Duration":237755,"SoundDuration":237755,"Delta":3686496},{"NoteNumber":38,"Velocity":31,"Duration":237755,"SoundDuration":237755,"Delta":3686496},{"NoteNumber":71,"Velocity":39,"Duration":79251,"SoundDuration":79251,"Delta":3765747},{"NoteNumber":69,"Velocity":41,"Duration":79251,"SoundDuration":79251,"Delta":3844999},{"NoteNumber":66,"Velocity":44,"Duration":475510,"SoundDuration":475510,"Delta":3924251},{"NoteNumber":45,"Velocity":35,"Duration":237755,"SoundDuration":237755,"Delta":3924251},{"NoteNumber":38,"Velocity":35,"Duration":237755,"SoundDuration":237755,"Delta":3924251},{"NoteNumber":69,"Velocity":44,"Duration":237755,"SoundDuration":237755,"Delta":4162007},{"NoteNumber":66,"Velocity":42,"Duration":58557,"SoundDuration":58557,"Delta":4399762},{"NoteNumber":74,"Velocity":45,"Duration":58557,"SoundDuration":58557,"Delta":4399762},{"NoteNumber":50,"Velocity":31,"Duration":58557,"SoundDuration":58557,"Delta":4399762},{"NoteNumber":57,"Velocity":31,"Duration":58557,"SoundDuration":58557,"Delta":4399762},{"NoteNumber":78,"Velocity":42,"Duration":59665,"SoundDuration":59665,"Delta":4633991},{"NoteNumber":66,"Velocity":45,"Duration":59665,"SoundDuration":59665,"Delta":4633991},{"NoteNumber":50,"Velocity":31,"Duration":59665,"SoundDuration":59665,"Delta":4633991},{"NoteNumber":57,"Velocity":31,"Duration":59665,"SoundDuration":59665,"Delta":4633991},{"NoteNumber":76,"Velocity":45,"Duration":237755,"SoundDuration":237755,"Delta":4872654},{"NoteNumber":66,"Velocity":37,"Duration":475511,"SoundDuration":475511,"Delta":4872654},{"NoteNumber":50,"Velocity":35,"Duration":237755,"SoundDuration":237755,"Delta":4872654},{"NoteNumber":57,"Velocity":35,"Duration":237755,"SoundDuration":237755,"Delta":4872654},{"NoteNumber":74,"Velocity":42,"Duration":237755,"SoundDuration":237755,"Delta":5110410},{"NoteNumber":66,"Velocity":42,"Duration":59438,"SoundDuration":59438,"Delta":5348165},{"NoteNumber":38,"Velocity":31,"Duration":59438,"SoundDuration":59438,"Delta":5348165},{"NoteNumber":45,"Velocity":31,"Duration":59438,"SoundDuration":59438,"Delta":5348165},{"NoteNumber":69,"Velocity":41,"Duration":59438,"SoundDuration":59438,"Delta":5585921},{"NoteNumber":66,"Velocity":41,"Duration":59438,"SoundDuration":59438,"Delta":5585921},{"NoteNumber":38,"Velocity":31,"Duration":59438,"SoundDuration":59438,"Delta":5585921},{"NoteNumber":45,"Velocity":31,"Duration":59438,"SoundDuration":59438,"Delta":5585921},{"NoteNumber":71,"Velocity":45,"Duration":237755,"SoundDuration":237755,"Delta":5823676},{"NoteNumber":69,"Velocity":45,"Duration":237755,"SoundDuration":237755,"Delta":5823676},{"NoteNumber":66,"Velocity":45,"Duration":237755,"SoundDuration":237755,"Delta":5823676},{"NoteNumber":45,"Velocity":35,"Duration":475511,"SoundDuration":475511,"Delta":5823676},{"NoteNumber":38,"Velocity":35,"Duration":475511,"SoundDuration":475511,"Delta":5823676},{"NoteNumber":66,"Velocity":41,"Duration":237755,"SoundDuration":237755,"Delta":6299187},{"NoteNumber":69,"Velocity":41,"Duration":237755,"SoundDuration":237755,"Delta":6299187},{"NoteNumber":71,"Velocity":41,"Duration":237755,"SoundDuration":237755,"Delta":6299187},{"NoteNumber":50,"Velocity":33,"Duration":237755,"SoundDuration":237755,"Delta":6299187},{"NoteNumber":57,"Velocity":33,"Duration":237755,"SoundDuration":237755,"Delta":6299187},{"NoteNumber":66,"Velocity":41,"Duration":118877,"SoundDuration":118877,"Delta":6655820},{"NoteNumber":71,"Velocity":41,"Duration":118877,"SoundDuration":118877,"Delta":6655820},{"NoteNumber":69,"Velocity":41,"Duration":118877,"SoundDuration":118877,"Delta":6655820},{"NoteNumber":50,"Velocity":33,"Duration":118877,"SoundDuration":118877,"Delta":6655820},{"NoteNumber":57,"Velocity":33,"Duration":118877,"SoundDuration":118877,"Delta":6655820},{"NoteNumber":71,"Velocity":41,"Duration":475638,"SoundDuration":475638,"Delta":6774698},{"NoteNumber":69,"Velocity":41,"Duration":475638,"SoundDuration":475638,"Delta":6774698},{"NoteNumber":66,"Velocity":41,"Duration":475638,"SoundDuration":475638,"Delta":6774698},{"NoteNumber":57,"Velocity":33,"Duration":475638,"SoundDuration":475638,"Delta":6774698},{"NoteNumber":50,"Velocity":33,"Duration":475638,"SoundDuration":475638,"Delta":6774698},{"NoteNumber":62,"Velocity":42,"Duration":58121,"SoundDuration":58121,"Delta":7250337},{"NoteNumber":66,"Velocity":42,"Duration":58121,"SoundDuration":58121,"Delta":7250337},{"NoteNumber":62,"Velocity":42,"Duration":58121,"SoundDuration":58121,"Delta":7482823},{"NoteNumber":68,"Velocity":42,"Duration":58121,"SoundDuration":58121,"Delta":7482823},{"NoteNumber":66,"Velocity":42,"Duration":58121,"SoundDuration":58121,"Delta":7482823},{"NoteNumber":62,"Velocity":45,"Duration":462616,"SoundDuration":462616,"Delta":7715309},{"NoteNumber":66,"Velocity":45,"Duration":462616,"SoundDuration":462616,"Delta":7715309},{"NoteNumber":69,"Velocity":45,"Duration":235979,"SoundDuration":235979,"Delta":7715309},{"NoteNumber":35,"Velocity":34,"Duration":462616,"SoundDuration":462616,"Delta":7715309},{"NoteNumber":42,"Velocity":34,"Duration":462616,"SoundDuration":462616,"Delta":7715309},{"NoteNumber":71,"Velocity":42,"Duration":226637,"SoundDuration":226637,"Delta":7951288},{"NoteNumber":66,"Velocity":44,"Duration":58121,"SoundDuration":58121,"Delta":8177925},{"NoteNumber":62,"Velocity":44,"Duration":58121,"SoundDuration":58121,"Delta":8177925},{"NoteNumber":54,"Velocity":31,"Duration":58121,"SoundDuration":58121,"Delta":8177925},{"NoteNumber":47,"Velocity":31,"Duration":58121,"SoundDuration":58121,"Delta":8177925},{"NoteNumber":62,"Velocity":44,"Duration":58121,"SoundDuration":58121,"Delta":8410411},{"NoteNumber":68,"Velocity":44,"Duration":58121,"SoundDuration":58121,"Delta":8410411},{"NoteNumber":66,"Velocity":44,"Duration":58121,"SoundDuration":58121,"Delta":8410411},{"NoteNumber":47,"Velocity":31,"Duration":58121,"SoundDuration":58121,"Delta":8410411},{"NoteNumber":54,"Velocity":31,"Duration":58121,"SoundDuration":58121,"Delta":8410411},{"NoteNumber":69,"Velocity":45,"Duration":234228,"SoundDuration":234228,"Delta":8642897},{"NoteNumber":62,"Velocity":45,"Duration":460866,"SoundDuration":460866,"Delta":8642897},{"NoteNumber":66,"Velocity":45,"Duration":460866,"SoundDuration":460866,"Delta":8642897},{"NoteNumber":40,"Velocity":34,"Duration":460866,"SoundDuration":460866,"Delta":8642897},{"NoteNumber":47,"Velocity":34,"Duration":460866,"SoundDuration":460866,"Delta":8642897},{"NoteNumber":71,"Velocity":42,"Duration":226637,"SoundDuration":226637,"Delta":8877126},{"NoteNumber":62,"Velocity":44,"Duration":114138,"SoundDuration":114138,"Delta":9103763},{"NoteNumber":66,"Velocity":44,"Duration":114138,"SoundDuration":114138,"Delta":9103763},{"NoteNumber":52,"Velocity":31,"Duration":114138,"SoundDuration":114138,"Delta":9103763},{"NoteNumber":59,"Velocity":31,"Duration":114138,"SoundDuration":114138,"Delta":9103763},{"NoteNumber":66,"Velocity":44,"Duration":57069,"SoundDuration":57069,"Delta":9332039},{"NoteNumber":62,"Velocity":44,"Duration":57069,"SoundDuration":57069,"Delta":9332039},{"NoteNumber":68,"Velocity":44,"Duration":57069,"SoundDuration":57069,"Delta":9332039},{"NoteNumber":52,"Velocity":31,"Duration":57069,"SoundDuration":57069,"Delta":9332039},{"NoteNumber":59,"Velocity":31,"Duration":57069,"SoundDuration":57069,"Delta":9332039},{"NoteNumber":62,"Velocity":47,"Duration":229955,"SoundDuration":229955,"Delta":9560315},{"NoteNumber":64,"Velocity":47,"Duration":229955,"SoundDuration":229955,"Delta":9560315},{"NoteNumber":69,"Velocity":47,"Duration":229955,"SoundDuration":229955,"Delta":9560315},{"NoteNumber":33,"Velocity":35,"Duration":459910,"SoundDuration":459910,"Delta":9560315},{"NoteNumber":40,"Velocity":35,"Duration":459910,"SoundDuration":459910,"Delta":9560315},{"NoteNumber":61,"Velocity":42,"Duration":233354,"SoundDuration":233354,"Delta":10020226},{"NoteNumber":69,"Velocity":42,"Duration":233354,"SoundDuration":233354,"Delta":10020226},{"NoteNumber":57,"Velocity":33,"Duration":233354,"SoundDuration":233354,"Delta":10020226},{"NoteNumber":64,"Velocity":33,"Duration":233354,"SoundDuration":233354,"Delta":10020226},{"NoteNumber":69,"Velocity":42,"Duration":116677,"SoundDuration":116677,"Delta":10370257},{"NoteNumber":61,"Velocity":42,"Duration":116677,"SoundDuration":116677,"Delta":10370257},{"NoteNumber":64,"Velocity":33,"Duration":116677,"SoundDuration":116677,"Delta":10370257},{"NoteNumber":57,"Velocity":33,"Duration":116677,"SoundDuration":116677,"Delta":10370257},{"NoteNumber":69,"Velocity":42,"Duration":233353,"SoundDuration":233353,"Delta":10486934},{"NoteNumber":61,"Velocity":42,"Duration":233353,"SoundDuration":233353,"Delta":10486934},{"NoteNumber":64,"Velocity":33,"Duration":233353,"SoundDuration":233353,"Delta":10486934},{"NoteNumber":57,"Velocity":33,"Duration":233353,"SoundDuration":233353,"Delta":10486934},{"NoteNumber":73,"Velocity":44,"Duration":76651,"SoundDuration":76651,"Delta":11183598},{"NoteNumber":74,"Velocity":44,"Duration":76651,"SoundDuration":76651,"Delta":11260249},{"NoteNumber":73,"Velocity":44,"Duration":76651,"SoundDuration":76651,"Delta":11336901},{"NoteNumber":71,"Velocity":47,"Duration":459910,"SoundDuration":459910,"Delta":11413553},{"NoteNumber":43,"Velocity":39,"Duration":459910,"SoundDuration":459910,"Delta":11413553},{"NoteNumber":50,"Velocity":39,"Duration":459910,"SoundDuration":459910,"Delta":11413553},{"NoteNumber":74,"Velocity":47,"Duration":229955,"SoundDuration":229955,"Delta":11643509},{"NoteNumber":79,"Velocity":49,"Duration":58772,"SoundDuration":58772,"Delta":11873464},{"NoteNumber":71,"Velocity":49,"Duration":58772,"SoundDuration":58772,"Delta":11873464},{"NoteNumber":62,"Velocity":38,"Duration":58772,"SoundDuration":58772,"Delta":11873464},{"NoteNumber":55,"Velocity":38,"Duration":58772,"SoundDuration":58772,"Delta":11873464},{"NoteNumber":83,"Velocity":45,"Duration":58772,"SoundDuration":58772,"Delta":12108556},{"NoteNumber":71,"Velocity":45,"Duration":58772,"SoundDuration":58772,"Delta":12108556},{"NoteNumber":55,"Velocity":38,"Duration":58772,"SoundDuration":58772,"Delta":12108556},{"NoteNumber":62,"Velocity":38,"Duration":58772,"SoundDuration":58772,"Delta":12108556},{"NoteNumber":81,"Velocity":48,"Duration":235091,"SoundDuration":235091,"Delta":12343647},{"NoteNumber":71,"Velocity":41,"Duration":470182,"SoundDuration":470182,"Delta":12343647},{"NoteNumber":55,"Velocity":41,"Duration":470182,"SoundDuration":470182,"Delta":12343647},{"NoteNumber":62,"Velocity":41,"Duration":470182,"SoundDuration":470182,"Delta":12343647},{"NoteNumber":79,"Velocity":42,"Duration":235091,"SoundDuration":235091,"Delta":12578739},{"NoteNumber":71,"Velocity":42,"Duration":57696,"SoundDuration":57696,"Delta":12813830},{"NoteNumber":67,"Velocity":42,"Duration":57696,"SoundDuration":57696,"Delta":12813830},{"NoteNumber":67,"Velocity":42,"Duration":57696,"SoundDuration":57696,"Delta":13044617},{"NoteNumber":71,"Velocity":42,"Duration":57696,"SoundDuration":57696,"Delta":13044617},{"NoteNumber":74,"Velocity":42,"Duration":57696,"SoundDuration":57696,"Delta":13044617},{"NoteNumber":78,"Velocity":46,"Duration":234228,"SoundDuration":234228,"Delta":13275404},{"NoteNumber":74,"Velocity":46,"Duration":234228,"SoundDuration":234228,"Delta":13275404},{"NoteNumber":71,"Velocity":46,"Duration":234228,"SoundDuration":234228,"Delta":13275404},{"NoteNumber":67,"Velocity":46,"Duration":234228,"SoundDuration":234228,"Delta":13275404},{"NoteNumber":40,"Velocity":36,"Duration":467582,"SoundDuration":467582,"Delta":13275404},{"NoteNumber":47,"Velocity":36,"Duration":467582,"SoundDuration":467582,"Delta":13275404},{"NoteNumber":78,"Velocity":42,"Duration":234228,"SoundDuration":234228,"Delta":13742987},{"NoteNumber":74,"Velocity":42,"Duration":234228,"SoundDuration":234228,"Delta":13742987},{"NoteNumber":71,"Velocity":42,"Duration":234228,"SoundDuration":234228,"Delta":13742987},{"NoteNumber":67,"Velocity":42,"Duration":234228,"SoundDuration":234228,"Delta":13742987},{"NoteNumber":59,"Velocity":34,"Duration":234228,"SoundDuration":234228,"Delta":13742987},{"NoteNumber":52,"Velocity":34,"Duration":234228,"SoundDuration":234228,"Delta":13742987},{"NoteNumber":78,"Velocity":42,"Duration":117114,"SoundDuration":117114,"Delta":14094329},{"NoteNumber":74,"Velocity":42,"Duration":117114,"SoundDuration":117114,"Delta":14094329},{"NoteNumber":71,"Velocity":42,"Duration":117114,"SoundDuration":117114,"Delta":14094329},{"NoteNumber":67,"Velocity":42,"Duration":117114,"SoundDuration":117114,"Delta":14094329},{"NoteNumber":52,"Velocity":34,"Duration":117114,"SoundDuration":117114,"Delta":14094329},{"NoteNumber":59,"Velocity":34,"Duration":117114,"SoundDuration":117114,"Delta":14094329},{"NoteNumber":78,"Velocity":42,"Duration":478428,"SoundDuration":478428,"Delta":14211444},{"NoteNumber":74,"Velocity":42,"Duration":478428,"SoundDuration":478428,"Delta":14211444},{"NoteNumber":67,"Velocity":42,"Duration":478428,"SoundDuration":478428,"Delta":14211444},{"NoteNumber":71,"Velocity":42,"Duration":478428,"SoundDuration":478428,"Delta":14211444},{"NoteNumber":52,"Velocity":36,"Duration":478428,"SoundDuration":478428,"Delta":14211444},{"NoteNumber":59,"Velocity":36,"Duration":478428,"SoundDuration":478428,"Delta":14211444},{"NoteNumber":71,"Velocity":42,"Duration":58772,"SoundDuration":58772,"Delta":14689872},{"NoteNumber":67,"Velocity":42,"Duration":58772,"SoundDuration":58772,"Delta":14689872},{"NoteNumber":73,"Velocity":42,"Duration":58772,"SoundDuration":58772,"Delta":14924964},{"NoteNumber":71,"Velocity":42,"Duration":58772,"SoundDuration":58772,"Delta":14924964},{"NoteNumber":67,"Velocity":42,"Duration":58772,"SoundDuration":58772,"Delta":14924964},{"NoteNumber":74,"Velocity":46,"Duration":235979,"SoundDuration":235979,"Delta":15160055},{"NoteNumber":67,"Velocity":46,"Duration":463441,"SoundDuration":463441,"Delta":15160055},{"NoteNumber":71,"Velocity":46,"Duration":463441,"SoundDuration":463441,"Delta":15160055},{"NoteNumber":45,"Velocity":39,"Duration":463441,"SoundDuration":463441,"Delta":15160055},{"NoteNumber":52,"Velocity":39,"Duration":463441,"SoundDuration":463441,"Delta":15160055},{"NoteNumber":76,"Velocity":42,"Duration":227462,"SoundDuration":227462,"Delta":15396034},{"NoteNumber":71,"Velocity":45,"Duration":58772,"SoundDuration":58772,"Delta":15623497},{"NoteNumber":67,"Velocity":45,"Duration":58772,"SoundDuration":58772,"Delta":15623497},{"NoteNumber":64,"Velocity":36,"Duration":58772,"SoundDuration":58772,"Delta":15623497},{"NoteNumber":57,"Velocity":36,"Duration":58772,"SoundDuration":58772,"Delta":15623497},{"NoteNumber":67,"Velocity":45,"Duration":58772,"SoundDuration":58772,"Delta":15858588},{"NoteNumber":71,"Velocity":45,"Duration":58772,"SoundDuration":58772,"Delta":15858588},{"NoteNumber":73,"Velocity":45,"Duration":58772,"SoundDuration":58772,"Delta":15858588},{"NoteNumber":57,"Velocity":36,"Duration":58772,"SoundDuration":58772,"Delta":15858588},{"NoteNumber":64,"Velocity":36,"Duration":58772,"SoundDuration":58772,"Delta":15858588},{"NoteNumber":74,"Velocity":47,"Duration":223430,"SoundDuration":223430,"Delta":16093680},{"NoteNumber":67,"Velocity":47,"Duration":454217,"SoundDuration":454217,"Delta":16093680},{"NoteNumber":71,"Velocity":47,"Duration":454217,"SoundDuration":454217,"Delta":16093680},{"NoteNumber":57,"Velocity":39,"Duration":454217,"SoundDuration":454217,"Delta":16093680},{"NoteNumber":64,"Velocity":39,"Duration":454217,"SoundDuration":454217,"Delta":16093680},{"NoteNumber":76,"Velocity":44,"Duration":230786,"SoundDuration":230786,"Delta":16317110},{"NoteNumber":71,"Velocity":45,"Duration":56865,"SoundDuration":56865,"Delta":16547897},{"NoteNumber":67,"Velocity":45,"Duration":56865,"SoundDuration":56865,"Delta":16547897},{"NoteNumber":67,"Velocity":45,"Duration":56865,"SoundDuration":56865,"Delta":16775360},{"NoteNumber":71,"Velocity":45,"Duration":56865,"SoundDuration":56865,"Delta":16775360},{"NoteNumber":73,"Velocity":45,"Duration":56865,"SoundDuration":56865,"Delta":16775360},{"NoteNumber":74,"Velocity":49,"Duration":230786,"SoundDuration":230786,"Delta":17002822},{"NoteNumber":69,"Velocity":49,"Duration":230786,"SoundDuration":230786,"Delta":17002822},{"NoteNumber":67,"Velocity":49,"Duration":230786,"SoundDuration":230786,"Delta":17002822},{"NoteNumber":45,"Velocity":39,"Duration":461573,"SoundDuration":461573,"Delta":17002822},{"NoteNumber":38,"Velocity":39,"Duration":461573,"SoundDuration":461573,"Delta":17002822},{"NoteNumber":74,"Velocity":45,"Duration":230787,"SoundDuration":230787,"Delta":17464396},{"NoteNumber":66,"Velocity":45,"Duration":230787,"SoundDuration":230787,"Delta":17464396},{"NoteNumber":69,"Velocity":36,"Duration":230787,"SoundDuration":230787,"Delta":17464396},{"NoteNumber":62,"Velocity":36,"Duration":230787,"SoundDuration":230787,"Delta":17464396},{"NoteNumber":74,"Velocity":45,"Duration":115393,"SoundDuration":115393,"Delta":17810577},{"NoteNumber":66,"Velocity":45,"Duration":115393,"SoundDuration":115393,"Delta":17810577},{"NoteNumber":69,"Velocity":36,"Duration":115393,"SoundDuration":115393,"Delta":17810577},{"NoteNumber":62,"Velocity":36,"Duration":115393,"SoundDuration":115393,"Delta":17810577},{"NoteNumber":74,"Velocity":45,"Duration":230786,"SoundDuration":230786,"Delta":17925970},{"NoteNumber":66,"Velocity":45,"Duration":230786,"SoundDuration":230786,"Delta":17925970},{"NoteNumber":62,"Velocity":36,"Duration":461573,"SoundDuration":461573,"Delta":17925970},{"NoteNumber":69,"Velocity":36,"Duration":461573,"SoundDuration":461573,"Delta":17925970},{"NoteNumber":50,"Velocity":27,"Duration":258220,"SoundDuration":258220,"Delta":18387544},{"NoteNumber":57,"Velocity":27,"Duration":258220,"SoundDuration":258220,"Delta":18387544},{"NoteNumber":50,"Velocity":27,"Duration":258219,"SoundDuration":258219,"Delta":18645764},{"NoteNumber":57,"Velocity":27,"Duration":258219,"SoundDuration":258219,"Delta":18645764},{"NoteNumber":50,"Velocity":31,"Duration":258220,"SoundDuration":258220,"Delta":18903984},{"NoteNumber":57,"Velocity":31,"Duration":258220,"SoundDuration":258220,"Delta":18903984},{"NoteNumber":62,"Velocity":27,"Duration":248056,"SoundDuration":248056,"Delta":19420424},{"NoteNumber":69,"Velocity":27,"Duration":248056,"SoundDuration":248056,"Delta":19420424},{"NoteNumber":62,"Velocity":27,"Duration":248056,"SoundDuration":248056,"Delta":19668481},{"NoteNumber":69,"Velocity":27,"Duration":248056,"SoundDuration":248056,"Delta":19668481},{"NoteNumber":62,"Velocity":33,"Duration":248057,"SoundDuration":248057,"Delta":19916538},{"NoteNumber":69,"Velocity":33,"Duration":248057,"SoundDuration":248057,"Delta":19916538},{"NoteNumber":50,"Velocity":27,"Duration":237755,"SoundDuration":237755,"Delta":20412652},{"NoteNumber":57,"Velocity":27,"Duration":237755,"SoundDuration":237755,"Delta":20412652},{"NoteNumber":50,"Velocity":27,"Duration":237755,"SoundDuration":237755,"Delta":20650407},{"NoteNumber":57,"Velocity":27,"Duration":237755,"SoundDuration":237755,"Delta":20650407},{"NoteNumber":57,"Velocity":30,"Duration":237755,"SoundDuration":237755,"Delta":20888163},{"NoteNumber":50,"Velocity":30,"Duration":237755,"SoundDuration":237755,"Delta":20888163},{"NoteNumber":62,"Velocity":27,"Duration":237755,"SoundDuration":237755,"Delta":21363674},{"NoteNumber":69,"Velocity":27,"Duration":237755,"SoundDuration":237755,"Delta":21363674},{"NoteNumber":62,"Velocity":27,"Duration":237755,"SoundDuration":237755,"Delta":21601429},{"NoteNumber":69,"Velocity":27,"Duration":237755,"SoundDuration":237755,"Delta":21601429},{"NoteNumber":62,"Velocity":31,"Duration":239558,"SoundDuration":239558,"Delta":21839185},{"NoteNumber":69,"Velocity":31,"Duration":239558,"SoundDuration":239558,"Delta":21839185},{"NoteNumber":50,"Velocity":27,"Duration":239558,"SoundDuration":239558,"Delta":22318303},{"NoteNumber":57,"Velocity":27,"Duration":239558,"SoundDuration":239558,"Delta":22318303},{"NoteNumber":81,"Velocity":35,"Duration":79251,"SoundDuration":79251,"Delta":22557862},{"NoteNumber":50,"Velocity":27,"Duration":237755,"SoundDuration":237755,"Delta":22557862},{"NoteNumber":57,"Velocity":27,"Duration":237755,"SoundDuration":237755,"Delta":22557862},{"NoteNumber":83,"Velocity":35,"Duration":79251,"SoundDuration":79251,"Delta":22637114},{"NoteNumber":81,"Velocity":36,"Duration":79251,"SoundDuration":79251,"Delta":22716366},{"NoteNumber":78,"Velocity":39,"Duration":464971,"SoundDuration":464971,"Delta":22795617},{"NoteNumber":50,"Velocity":31,"Duration":232486,"SoundDuration":232486,"Delta":22795617},{"NoteNumber":57,"Velocity":31,"Duration":232486,"SoundDuration":232486,"Delta":22795617},{"NoteNumber":81,"Velocity":39,"Duration":232485,"SoundDuration":232485,"Delta":23028103},{"NoteNumber":78,"Velocity":39,"Duration":58772,"SoundDuration":58772,"Delta":23260589},{"NoteNumber":86,"Velocity":39,"Duration":58772,"SoundDuration":58772,"Delta":23260589},{"NoteNumber":62,"Velocity":27,"Duration":58772,"SoundDuration":58772,"Delta":23260589},{"NoteNumber":69,"Velocity":27,"Duration":58772,"SoundDuration":58772,"Delta":23260589},{"NoteNumber":90,"Velocity":37,"Duration":58994,"SoundDuration":58994,"Delta":23495681},{"NoteNumber":78,"Velocity":37,"Duration":58994,"SoundDuration":58994,"Delta":23495681},{"NoteNumber":69,"Velocity":27,"Duration":58994,"SoundDuration":58994,"Delta":23495681},{"NoteNumber":62,"Velocity":27,"Duration":58994,"SoundDuration":58994,"Delta":23495681},{"NoteNumber":88,"Velocity":41,"Duration":233353,"SoundDuration":233353,"Delta":23731660},{"NoteNumber":78,"Velocity":33,"Duration":471109,"SoundDuration":471109,"Delta":23731660},{"NoteNumber":62,"Velocity":31,"Duration":233353,"SoundDuration":233353,"Delta":23731660},{"NoteNumber":69,"Velocity":31,"Duration":233353,"SoundDuration":233353,"Delta":23731660},{"NoteNumber":86,"Velocity":37,"Duration":237755,"SoundDuration":237755,"Delta":23965014},{"NoteNumber":78,"Velocity":37,"Duration":59438,"SoundDuration":59438,"Delta":24202769},{"NoteNumber":57,"Velocity":27,"Duration":59438,"SoundDuration":59438,"Delta":24202769},{"NoteNumber":50,"Velocity":27,"Duration":59438,"SoundDuration":59438,"Delta":24202769},{"NoteNumber":81,"Velocity":36,"Duration":59438,"SoundDuration":59438,"Delta":24440525},{"NoteNumber":78,"Velocity":36,"Duration":59438,"SoundDuration":59438,"Delta":24440525},{"NoteNumber":57,"Velocity":27,"Duration":59438,"SoundDuration":59438,"Delta":24440525},{"NoteNumber":50,"Velocity":27,"Duration":59438,"SoundDuration":59438,"Delta":24440525},{"NoteNumber":78,"Velocity":39,"Duration":237755,"SoundDuration":237755,"Delta":24678280},{"NoteNumber":81,"Velocity":39,"Duration":237755,"SoundDuration":237755,"Delta":24678280},{"NoteNumber":83,"Velocity":39,"Duration":237755,"SoundDuration":237755,"Delta":24678280},{"NoteNumber":50,"Velocity":31,"Duration":475510,"SoundDuration":475510,"Delta":24678280},{"NoteNumber":57,"Velocity":31,"Duration":475510,"SoundDuration":475510,"Delta":24678280},{"NoteNumber":78,"Velocity":37,"Duration":237755,"SoundDuration":237755,"Delta":25153791},{"NoteNumber":81,"Velocity":37,"Duration":237755,"SoundDuration":237755,"Delta":25153791},{"NoteNumber":83,"Velocity":37,"Duration":237755,"SoundDuration":237755,"Delta":25153791},{"NoteNumber":62,"Velocity":30,"Duration":237755,"SoundDuration":237755,"Delta":25153791},{"NoteNumber":69,"Velocity":30,"Duration":237755,"SoundDuration":237755,"Delta":25153791},{"NoteNumber":83,"Velocity":37,"Duration":118877,"SoundDuration":118877,"Delta":25510425},{"NoteNumber":78,"Velocity":37,"Duration":118877,"SoundDuration":118877,"Delta":25510425},{"NoteNumber":81,"Velocity":37,"Duration":118877,"SoundDuration":118877,"Delta":25510425},{"NoteNumber":62,"Velocity":30,"Duration":118877,"SoundDuration":118877,"Delta":25510425},{"NoteNumber":69,"Velocity":30,"Duration":118877,"SoundDuration":118877,"Delta":25510425},{"NoteNumber":78,"Velocity":37,"Duration":475638,"SoundDuration":475638,"Delta":25629302},{"NoteNumber":81,"Velocity":37,"Duration":475638,"SoundDuration":475638,"Delta":25629302},{"NoteNumber":83,"Velocity":37,"Duration":475638,"SoundDuration":475638,"Delta":25629302},{"NoteNumber":69,"Velocity":30,"Duration":475638,"SoundDuration":475638,"Delta":25629302},{"NoteNumber":62,"Velocity":30,"Duration":475638,"SoundDuration":475638,"Delta":25629302},{"NoteNumber":74,"Velocity":38,"Duration":58121,"SoundDuration":58121,"Delta":26104941},{"NoteNumber":78,"Velocity":38,"Duration":58121,"SoundDuration":58121,"Delta":26104941},{"NoteNumber":74,"Velocity":38,"Duration":58121,"SoundDuration":58121,"Delta":26337427},{"NoteNumber":80,"Velocity":38,"Duration":58121,"SoundDuration":58121,"Delta":26337427},{"NoteNumber":78,"Velocity":38,"Duration":58121,"SoundDuration":58121,"Delta":26337427},{"NoteNumber":81,"Velocity":41,"Duration":235979,"SoundDuration":235979,"Delta":26569913},{"NoteNumber":78,"Velocity":41,"Duration":462616,"SoundDuration":462616,"Delta":26569913},{"NoteNumber":74,"Velocity":41,"Duration":462616,"SoundDuration":462616,"Delta":26569913},{"NoteNumber":47,"Velocity":30,"Duration":462616,"SoundDuration":462616,"Delta":26569913},{"NoteNumber":54,"Velocity":30,"Duration":462616,"SoundDuration":462616,"Delta":26569913},{"NoteNumber":83,"Velocity":37,"Duration":226637,"SoundDuration":226637,"Delta":26805892},{"NoteNumber":78,"Velocity":39,"Duration":58121,"SoundDuration":58121,"Delta":27032529},{"NoteNumber":74,"Velocity":39,"Duration":58121,"SoundDuration":58121,"Delta":27032529},{"NoteNumber":66,"Velocity":27,"Duration":58121,"SoundDuration":58121,"Delta":27032529},{"NoteNumber":59,"Velocity":27,"Duration":58121,"SoundDuration":58121,"Delta":27032529},{"NoteNumber":80,"Velocity":38,"Duration":58121,"SoundDuration":58121,"Delta":27265015},{"NoteNumber":74,"Velocity":38,"Duration":58121,"SoundDuration":58121,"Delta":27265015},{"NoteNumber":78,"Velocity":38,"Duration":58121,"SoundDuration":58121,"Delta":27265015},{"NoteNumber":59,"Velocity":27,"Duration":58121,"SoundDuration":58121,"Delta":27265015},{"NoteNumber":66,"Velocity":27,"Duration":58121,"SoundDuration":58121,"Delta":27265015},{"NoteNumber":78,"Velocity":41,"Duration":460865,"SoundDuration":460865,"Delta":27497501},{"NoteNumber":74,"Velocity":41,"Duration":460865,"SoundDuration":460865,"Delta":27497501},{"NoteNumber":81,"Velocity":41,"Duration":234228,"SoundDuration":234228,"Delta":27497501},{"NoteNumber":52,"Velocity":30,"Duration":460865,"SoundDuration":460865,"Delta":27497501},{"NoteNumber":59,"Velocity":30,"Duration":460865,"SoundDuration":460865,"Delta":27497501},{"NoteNumber":83,"Velocity":37,"Duration":226637,"SoundDuration":226637,"Delta":27731730},{"NoteNumber":74,"Velocity":39,"Duration":57068,"SoundDuration":57068,"Delta":27958367},{"NoteNumber":78,"Velocity":39,"Duration":57068,"SoundDuration":57068,"Delta":27958367},{"NoteNumber":64,"Velocity":27,"Duration":57068,"SoundDuration":57068,"Delta":27958367},{"NoteNumber":71,"Velocity":27,"Duration":57068,"SoundDuration":57068,"Delta":27958367},{"NoteNumber":80,"Velocity":39,"Duration":57068,"SoundDuration":57068,"Delta":28186643},{"NoteNumber":74,"Velocity":39,"Duration":57068,"SoundDuration":57068,"Delta":28186643},{"NoteNumber":78,"Velocity":39,"Duration":57068,"SoundDuration":57068,"Delta":28186643},{"NoteNumber":71,"Velocity":27,"Duration":57068,"SoundDuration":57068,"Delta":28186643},{"NoteNumber":64,"Velocity":27,"Duration":57068,"SoundDuration":57068,"Delta":28186643},{"NoteNumber":74,"Velocity":41,"Duration":229955,"SoundDuration":229955,"Delta":28414919},{"NoteNumber":76,"Velocity":41,"Duration":229955,"SoundDuration":229955,"Delta":28414919},{"NoteNumber":81,"Velocity":41,"Duration":229955,"SoundDuration":229955,"Delta":28414919},{"NoteNumber":57,"Velocity":30,"Duration":459911,"SoundDuration":459911,"Delta":28414919},{"NoteNumber":64,"Velocity":30,"Duration":459911,"SoundDuration":459911,"Delta":28414919},{"NoteNumber":73,"Velocity":38,"Duration":233353,"SoundDuration":233353,"Delta":28874830},{"NoteNumber":81,"Velocity":38,"Duration":233353,"SoundDuration":233353,"Delta":28874830},{"NoteNumber":69,"Velocity":28,"Duration":233353,"SoundDuration":233353,"Delta":28874830},{"NoteNumber":76,"Velocity":28,"Duration":233353,"SoundDuration":233353,"Delta":28874830},{"NoteNumber":73,"Velocity":38,"Duration":116676,"SoundDuration":116676,"Delta":29224861},{"NoteNumber":81,"Velocity":38,"Duration":116676,"SoundDuration":116676,"Delta":29224861},{"NoteNumber":76,"Velocity":28,"Duration":116676,"SoundDuration":116676,"Delta":29224861},{"NoteNumber":69,"Velocity":28,"Duration":116676,"SoundDuration":116676,"Delta":29224861},{"NoteNumber":73,"Velocity":38,"Duration":233353,"SoundDuration":233353,"Delta":29341538},{"NoteNumber":81,"Velocity":38,"Duration":233353,"SoundDuration":233353,"Delta":29341538},{"NoteNumber":76,"Velocity":28,"Duration":233353,"SoundDuration":233353,"Delta":29341538},{"NoteNumber":69,"Velocity":28,"Duration":233353,"SoundDuration":233353,"Delta":29341538},{"NoteNumber":85,"Velocity":39,"Duration":76651,"SoundDuration":76651,"Delta":30038202},{"NoteNumber":86,"Velocity":39,"Duration":76651,"SoundDuration":76651,"Delta":30114854},{"NoteNumber":85,"Velocity":39,"Duration":76651,"SoundDuration":76651,"Delta":30191506},{"NoteNumber":83,"Velocity":42,"Duration":459911,"SoundDuration":459911,"Delta":30268157},{"NoteNumber":55,"Velocity":35,"Duration":459911,"SoundDuration":459911,"Delta":30268157},{"NoteNumber":62,"Velocity":35,"Duration":459911,"SoundDuration":459911,"Delta":30268157},{"NoteNumber":86,"Velocity":42,"Duration":229955,"SoundDuration":229955,"Delta":30498113},{"NoteNumber":91,"Velocity":44,"Duration":58557,"SoundDuration":58557,"Delta":30728068},{"NoteNumber":83,"Velocity":44,"Duration":58557,"SoundDuration":58557,"Delta":30728068},{"NoteNumber":67,"Velocity":33,"Duration":58557,"SoundDuration":58557,"Delta":30728068},{"NoteNumber":74,"Velocity":33,"Duration":58557,"SoundDuration":58557,"Delta":30728068},{"NoteNumber":95,"Velocity":39,"Duration":58772,"SoundDuration":58772,"Delta":30962297},{"NoteNumber":83,"Velocity":39,"Duration":58772,"SoundDuration":58772,"Delta":30962297},{"NoteNumber":74,"Velocity":33,"Duration":58772,"SoundDuration":58772,"Delta":30962297},{"NoteNumber":67,"Velocity":33,"Duration":58772,"SoundDuration":58772,"Delta":30962297},{"NoteNumber":93,"Velocity":42,"Duration":233353,"SoundDuration":233353,"Delta":31197388},{"NoteNumber":83,"Velocity":37,"Duration":468445,"SoundDuration":468445,"Delta":31197388},{"NoteNumber":67,"Velocity":36,"Duration":468445,"SoundDuration":468445,"Delta":31197388},{"NoteNumber":74,"Velocity":36,"Duration":468445,"SoundDuration":468445,"Delta":31197388},{"NoteNumber":91,"Velocity":38,"Duration":235091,"SoundDuration":235091,"Delta":31430742},{"NoteNumber":83,"Velocity":38,"Duration":57696,"SoundDuration":57696,"Delta":31665834},{"NoteNumber":79,"Velocity":38,"Duration":57696,"SoundDuration":57696,"Delta":31665834},{"NoteNumber":83,"Velocity":38,"Duration":57696,"SoundDuration":57696,"Delta":31896621},{"NoteNumber":79,"Velocity":38,"Duration":57696,"SoundDuration":57696,"Delta":31896621},{"NoteNumber":86,"Velocity":38,"Duration":57696,"SoundDuration":57696,"Delta":31896621},{"NoteNumber":83,"Velocity":42,"Duration":234228,"SoundDuration":234228,"Delta":32127408},{"NoteNumber":86,"Velocity":42,"Duration":234228,"SoundDuration":234228,"Delta":32127408},{"NoteNumber":90,"Velocity":42,"Duration":234228,"SoundDuration":234228,"Delta":32127408},{"NoteNumber":79,"Velocity":42,"Duration":234228,"SoundDuration":234228,"Delta":32127408},{"NoteNumber":52,"Velocity":33,"Duration":467582,"SoundDuration":467582,"Delta":32127408},{"NoteNumber":59,"Velocity":33,"Duration":467582,"SoundDuration":467582,"Delta":32127408},{"NoteNumber":83,"Velocity":37,"Duration":234228,"SoundDuration":234228,"Delta":32594990},{"NoteNumber":86,"Velocity":37,"Duration":234228,"SoundDuration":234228,"Delta":32594990},{"NoteNumber":90,"Velocity":37,"Duration":234228,"SoundDuration":234228,"Delta":32594990},{"NoteNumber":79,"Velocity":37,"Duration":234228,"SoundDuration":234228,"Delta":32594990},{"NoteNumber":71,"Velocity":29,"Duration":234228,"SoundDuration":234228,"Delta":32594990},{"NoteNumber":64,"Velocity":29,"Duration":234228,"SoundDuration":234228,"Delta":32594990},{"NoteNumber":83,"Velocity":37,"Duration":117114,"SoundDuration":117114,"Delta":32946333},{"NoteNumber":86,"Velocity":37,"Duration":117114,"SoundDuration":117114,"Delta":32946333},{"NoteNumber":90,"Velocity":37,"Duration":117114,"SoundDuration":117114,"Delta":32946333},{"NoteNumber":79,"Velocity":37,"Duration":117114,"SoundDuration":117114,"Delta":32946333},{"NoteNumber":64,"Velocity":29,"Duration":117114,"SoundDuration":117114,"Delta":32946333},{"NoteNumber":71,"Velocity":29,"Duration":117114,"SoundDuration":117114,"Delta":32946333},{"NoteNumber":83,"Velocity":37,"Duration":477497,"SoundDuration":477497,"Delta":33063447},{"NoteNumber":86,"Velocity":37,"Duration":477497,"SoundDuration":477497,"Delta":33063447},{"NoteNumber":90,"Velocity":37,"Duration":477497,"SoundDuration":477497,"Delta":33063447},{"NoteNumber":79,"Velocity":37,"Duration":477497,"SoundDuration":477497,"Delta":33063447},{"NoteNumber":71,"Velocity":33,"Duration":477497,"SoundDuration":477497,"Delta":33063447},{"NoteNumber":64,"Velocity":33,"Duration":477497,"SoundDuration":477497,"Delta":33063447},{"NoteNumber":79,"Velocity":38,"Duration":58772,"SoundDuration":58772,"Delta":33540945},{"NoteNumber":83,"Velocity":38,"Duration":58772,"SoundDuration":58772,"Delta":33540945},{"NoteNumber":85,"Velocity":38,"Duration":58772,"SoundDuration":58772,"Delta":33776037},{"NoteNumber":83,"Velocity":38,"Duration":58772,"SoundDuration":58772,"Delta":33776037},{"NoteNumber":79,"Velocity":38,"Duration":58772,"SoundDuration":58772,"Delta":33776037},{"NoteNumber":83,"Velocity":42,"Duration":463441,"SoundDuration":463441,"Delta":34011128},{"NoteNumber":79,"Velocity":42,"Duration":463441,"SoundDuration":463441,"Delta":34011128},{"NoteNumber":86,"Velocity":42,"Duration":235979,"SoundDuration":235979,"Delta":34011128},{"NoteNumber":57,"Velocity":34,"Duration":463441,"SoundDuration":463441,"Delta":34011128},{"NoteNumber":64,"Velocity":34,"Duration":463441,"SoundDuration":463441,"Delta":34011128},{"NoteNumber":88,"Velocity":38,"Duration":227462,"SoundDuration":227462,"Delta":34247107},{"NoteNumber":83,"Velocity":39,"Duration":58772,"SoundDuration":58772,"Delta":34474570},{"NoteNumber":79,"Velocity":39,"Duration":58772,"SoundDuration":58772,"Delta":34474570},{"NoteNumber":76,"Velocity":33,"Duration":58772,"SoundDuration":58772,"Delta":34474570},{"NoteNumber":69,"Velocity":33,"Duration":58772,"SoundDuration":58772,"Delta":34474570},{"NoteNumber":85,"Velocity":39,"Duration":58772,"SoundDuration":58772,"Delta":34709661},{"NoteNumber":83,"Velocity":39,"Duration":58772,"SoundDuration":58772,"Delta":34709661},{"NoteNumber":79,"Velocity":39,"Duration":58772,"SoundDuration":58772,"Delta":34709661},{"NoteNumber":69,"Velocity":33,"Duration":58772,"SoundDuration":58772,"Delta":34709661},{"NoteNumber":76,"Velocity":33,"Duration":58772,"SoundDuration":58772,"Delta":34709661},{"NoteNumber":86,"Velocity":42,"Duration":223430,"SoundDuration":223430,"Delta":34944753},{"NoteNumber":83,"Velocity":42,"Duration":454217,"SoundDuration":454217,"Delta":34944753},{"NoteNumber":79,"Velocity":42,"Duration":454217,"SoundDuration":454217,"Delta":34944753},{"NoteNumber":69,"Velocity":35,"Duration":454217,"SoundDuration":454217,"Delta":34944753},{"NoteNumber":76,"Velocity":35,"Duration":454217,"SoundDuration":454217,"Delta":34944753},{"NoteNumber":88,"Velocity":39,"Duration":230786,"SoundDuration":230786,"Delta":35168183},{"NoteNumber":83,"Velocity":39,"Duration":56865,"SoundDuration":56865,"Delta":35398970},{"NoteNumber":79,"Velocity":39,"Duration":56865,"SoundDuration":56865,"Delta":35398970},{"NoteNumber":85,"Velocity":39,"Duration":56865,"SoundDuration":56865,"Delta":35626433},{"NoteNumber":83,"Velocity":39,"Duration":56865,"SoundDuration":56865,"Delta":35626433},{"NoteNumber":79,"Velocity":39,"Duration":56865,"SoundDuration":56865,"Delta":35626433},{"NoteNumber":86,"Velocity":44,"Duration":230786,"SoundDuration":230786,"Delta":35853895},{"NoteNumber":81,"Velocity":44,"Duration":230786,"SoundDuration":230786,"Delta":35853895},{"NoteNumber":79,"Velocity":44,"Duration":230786,"SoundDuration":230786,"Delta":35853895},{"NoteNumber":69,"Velocity":34,"Duration":461573,"SoundDuration":461573,"Delta":35853895},{"NoteNumber":62,"Velocity":34,"Duration":461573,"SoundDuration":461573,"Delta":35853895},{"NoteNumber":86,"Velocity":39,"Duration":230786,"SoundDuration":230786,"Delta":36315469},{"NoteNumber":78,"Velocity":39,"Duration":230786,"SoundDuration":230786,"Delta":36315469},{"NoteNumber":81,"Velocity":33,"Duration":230786,"SoundDuration":230786,"Delta":36315469},{"NoteNumber":74,"Velocity":33,"Duration":230786,"SoundDuration":230786,"Delta":36315469},{"NoteNumber":86,"Velocity":39,"Duration":115393,"SoundDuration":115393,"Delta":36661650},{"NoteNumber":78,"Velocity":39,"Duration":115393,"SoundDuration":115393,"Delta":36661650},{"NoteNumber":81,"Velocity":33,"Duration":115393,"SoundDuration":115393,"Delta":36661650},{"NoteNumber":74,"Velocity":33,"Duration":115393,"SoundDuration":115393,"Delta":36661650},{"NoteNumber":86,"Velocity":39,"Duration":230786,"SoundDuration":230786,"Delta":36777043},{"NoteNumber":78,"Velocity":39,"Duration":230786,"SoundDuration":230786,"Delta":36777043},{"NoteNumber":74,"Velocity":33,"Duration":461574,"SoundDuration":461574,"Delta":36777043},{"NoteNumber":81,"Velocity":33,"Duration":461574,"SoundDuration":461574,"Delta":36777043},{"NoteNumber":45,"Velocity":80,"Duration":466707,"SoundDuration":466707,"Delta":37715944},{"NoteNumber":52,"Velocity":80,"Duration":466707,"SoundDuration":466707,"Delta":37715944},{"NoteNumber":45,"Velocity":72,"Duration":115393,"SoundDuration":115393,"Delta":38182652},{"NoteNumber":52,"Velocity":72,"Duration":115393,"SoundDuration":115393,"Delta":38182652},{"NoteNumber":52,"Velocity":72,"Duration":124512,"SoundDuration":124512,"Delta":38413439},{"NoteNumber":45,"Velocity":72,"Duration":124512,"SoundDuration":124512,"Delta":38413439},{"NoteNumber":45,"Velocity":80,"Duration":466707,"SoundDuration":466707,"Delta":38662464},{"NoteNumber":52,"Velocity":80,"Duration":466707,"SoundDuration":466707,"Delta":38662464},{"NoteNumber":45,"Velocity":72,"Duration":115393,"SoundDuration":115393,"Delta":39129172},{"NoteNumber":52,"Velocity":72,"Duration":115393,"SoundDuration":115393,"Delta":39129172},{"NoteNumber":45,"Velocity":72,"Duration":123538,"SoundDuration":123538,"Delta":39359959},{"NoteNumber":52,"Velocity":72,"Duration":123538,"SoundDuration":123538,"Delta":39359959},{"NoteNumber":61,"Velocity":75,"Duration":114556,"SoundDuration":114556,"Delta":39607035},{"NoteNumber":64,"Velocity":75,"Duration":458224,"SoundDuration":458224,"Delta":39607035},{"NoteNumber":45,"Velocity":71,"Duration":458224,"SoundDuration":458224,"Delta":39607035},{"NoteNumber":52,"Velocity":71,"Duration":458224,"SoundDuration":458224,"Delta":39607035},{"NoteNumber":59,"Velocity":68,"Duration":114556,"SoundDuration":114556,"Delta":39721592},{"NoteNumber":61,"Velocity":68,"Duration":114556,"SoundDuration":114556,"Delta":39836148},{"NoteNumber":57,"Velocity":68,"Duration":57278,"SoundDuration":57278,"Delta":39950704},{"NoteNumber":62,"Velocity":68,"Duration":115393,"SoundDuration":115393,"Delta":40065260},{"NoteNumber":66,"Velocity":71,"Duration":476910,"SoundDuration":476910,"Delta":40065260},{"NoteNumber":45,"Velocity":64,"Duration":230786,"SoundDuration":230786,"Delta":40065260},{"NoteNumber":52,"Velocity":64,"Duration":230786,"SoundDuration":230786,"Delta":40065260},{"NoteNumber":59,"Velocity":68,"Duration":123061,"SoundDuration":123061,"Delta":40296047},{"NoteNumber":45,"Velocity":64,"Duration":123061,"SoundDuration":123061,"Delta":40296047},{"NoteNumber":52,"Velocity":64,"Duration":123061,"SoundDuration":123061,"Delta":40296047},{"NoteNumber":61,"Velocity":75,"Duration":114556,"SoundDuration":114556,"Delta":40542171},{"NoteNumber":64,"Velocity":75,"Duration":458224,"SoundDuration":458224,"Delta":40542171},{"NoteNumber":45,"Velocity":71,"Duration":458224,"SoundDuration":458224,"Delta":40542171},{"NoteNumber":52,"Velocity":71,"Duration":458224,"SoundDuration":458224,"Delta":40542171},{"NoteNumber":59,"Velocity":69,"Duration":114556,"SoundDuration":114556,"Delta":40656727},{"NoteNumber":61,"Velocity":69,"Duration":114556,"SoundDuration":114556,"Delta":40771283},{"NoteNumber":57,"Velocity":69,"Duration":57278,"SoundDuration":57278,"Delta":40885840},{"NoteNumber":62,"Velocity":68,"Duration":115393,"SoundDuration":115393,"Delta":41000396},{"NoteNumber":66,"Velocity":71,"Duration":461573,"SoundDuration":461573,"Delta":41000396},{"NoteNumber":45,"Velocity":64,"Duration":230786,"SoundDuration":230786,"Delta":41000396},{"NoteNumber":52,"Velocity":64,"Duration":230786,"SoundDuration":230786,"Delta":41000396},{"NoteNumber":59,"Velocity":68,"Duration":115393,"SoundDuration":115393,"Delta":41231183},{"NoteNumber":45,"Velocity":64,"Duration":115393,"SoundDuration":115393,"Delta":41231183},{"NoteNumber":52,"Velocity":64,"Duration":115393,"SoundDuration":115393,"Delta":41231183},{"NoteNumber":74,"Velocity":56,"Duration":224215,"SoundDuration":224215,"Delta":41691082},{"NoteNumber":78,"Velocity":56,"Duration":74738,"SoundDuration":74738,"Delta":41691082},{"NoteNumber":68,"Velocity":56,"Duration":224215,"SoundDuration":224215,"Delta":41691082},{"NoteNumber":80,"Velocity":56,"Duration":74738,"SoundDuration":74738,"Delta":41765821},{"NoteNumber":78,"Velocity":56,"Duration":74738,"SoundDuration":74738,"Delta":41840559},{"NoteNumber":76,"Velocity":60,"Duration":115821,"SoundDuration":115821,"Delta":41915297},{"NoteNumber":73,"Velocity":60,"Duration":115821,"SoundDuration":115821,"Delta":41915297},{"NoteNumber":69,"Velocity":60,"Duration":115821,"SoundDuration":115821,"Delta":41915297},{"NoteNumber":73,"Velocity":59,"Duration":115821,"SoundDuration":115821,"Delta":42146940},{"NoteNumber":76,"Velocity":59,"Duration":115821,"SoundDuration":115821,"Delta":42146940},{"NoteNumber":69,"Velocity":59,"Duration":115821,"SoundDuration":115821,"Delta":42146940},{"NoteNumber":76,"Velocity":59,"Duration":926569,"SoundDuration":926569,"Delta":42378582},{"NoteNumber":73,"Velocity":59,"Duration":926569,"SoundDuration":926569,"Delta":42378582},{"NoteNumber":69,"Velocity":59,"Duration":926569,"SoundDuration":926569,"Delta":42378582},{"NoteNumber":60,"Velocity":52,"Duration":463285,"SoundDuration":463285,"Delta":43305152},{"NoteNumber":64,"Velocity":52,"Duration":463285,"SoundDuration":463285,"Delta":43305152},{"NoteNumber":56,"Velocity":59,"Duration":463285,"SoundDuration":463285,"Delta":43305152},{"NoteNumber":68,"Velocity":48,"Duration":231642,"SoundDuration":231642,"Delta":43768437},{"NoteNumber":72,"Velocity":48,"Duration":231642,"SoundDuration":231642,"Delta":43768437},{"NoteNumber":76,"Velocity":48,"Duration":231642,"SoundDuration":231642,"Delta":43768437},{"NoteNumber":68,"Velocity":47,"Duration":231642,"SoundDuration":231642,"Delta":44000080},{"NoteNumber":72,"Velocity":47,"Duration":231642,"SoundDuration":231642,"Delta":44000080},{"NoteNumber":76,"Velocity":47,"Duration":231642,"SoundDuration":231642,"Delta":44000080},{"NoteNumber":68,"Velocity":46,"Duration":455927,"SoundDuration":455927,"Delta":44231722},{"NoteNumber":72,"Velocity":46,"Duration":455927,"SoundDuration":455927,"Delta":44231722},{"NoteNumber":76,"Velocity":46,"Duration":455927,"SoundDuration":455927,"Delta":44231722},{"NoteNumber":72,"Velocity":34,"Duration":57594,"SoundDuration":57594,"Delta":44687649},{"NoteNumber":76,"Velocity":34,"Duration":57594,"SoundDuration":57594,"Delta":44687649},{"NoteNumber":76,"Velocity":34,"Duration":58846,"SoundDuration":58846,"Delta":44918029},{"NoteNumber":72,"Velocity":34,"Duration":58846,"SoundDuration":58846,"Delta":44918029},{"NoteNumber":77,"Velocity":34,"Duration":58846,"SoundDuration":58846,"Delta":44918029},{"NoteNumber":72,"Velocity":37,"Duration":464149,"SoundDuration":464149,"Delta":45153415},{"NoteNumber":76,"Velocity":37,"Duration":464149,"SoundDuration":464149,"Delta":45153415},{"NoteNumber":79,"Velocity":37,"Duration":228763,"SoundDuration":228763,"Delta":45153415},{"NoteNumber":43,"Velocity":33,"Duration":114381,"SoundDuration":114381,"Delta":45153415},{"NoteNumber":52,"Velocity":33,"Duration":114381,"SoundDuration":114381,"Delta":45153415},{"NoteNumber":55,"Velocity":33,"Duration":114381,"SoundDuration":114381,"Delta":45267797},{"NoteNumber":81,"Velocity":34,"Duration":235386,"SoundDuration":235386,"Delta":45382178},{"NoteNumber":60,"Velocity":33,"Duration":117693,"SoundDuration":117693,"Delta":45382178},{"NoteNumber":64,"Velocity":33,"Duration":117693,"SoundDuration":117693,"Delta":45499872},{"NoteNumber":72,"Velocity":34,"Duration":57190,"SoundDuration":57190,"Delta":45617565},{"NoteNumber":76,"Velocity":34,"Duration":57190,"SoundDuration":57190,"Delta":45617565},{"NoteNumber":72,"Velocity":34,"Duration":58846,"SoundDuration":58846,"Delta":45846328},{"NoteNumber":76,"Velocity":34,"Duration":58846,"SoundDuration":58846,"Delta":45846328},{"NoteNumber":77,"Velocity":34,"Duration":58846,"SoundDuration":58846,"Delta":45846328},{"NoteNumber":71,"Velocity":38,"Duration":451357,"SoundDuration":451357,"Delta":46081714},{"NoteNumber":77,"Velocity":38,"Duration":451357,"SoundDuration":451357,"Delta":46081714},{"NoteNumber":79,"Velocity":38,"Duration":220978,"SoundDuration":220978,"Delta":46081714},{"NoteNumber":43,"Velocity":33,"Duration":110489,"SoundDuration":110489,"Delta":46081714},{"NoteNumber":50,"Velocity":33,"Duration":110489,"SoundDuration":110489,"Delta":46081714},{"NoteNumber":55,"Velocity":33,"Duration":110489,"SoundDuration":110489,"Delta":46192203},{"NoteNumber":81,"Velocity":34,"Duration":230379,"SoundDuration":230379,"Delta":46302692},{"NoteNumber":59,"Velocity":33,"Duration":115189,"SoundDuration":115189,"Delta":46302692},{"NoteNumber":65,"Velocity":33,"Duration":115189,"SoundDuration":115189,"Delta":46417882},{"NoteNumber":67,"Velocity":34,"Duration":111623,"SoundDuration":111623,"Delta":46533072},{"NoteNumber":71,"Velocity":34,"Duration":111623,"SoundDuration":111623,"Delta":46533072},{"NoteNumber":76,"Velocity":34,"Duration":111623,"SoundDuration":111623,"Delta":46533072},{"NoteNumber":67,"Velocity":34,"Duration":113981,"SoundDuration":113981,"Delta":46756319},{"NoteNumber":71,"Velocity":34,"Duration":113981,"SoundDuration":113981,"Delta":46756319},{"NoteNumber":74,"Velocity":34,"Duration":113981,"SoundDuration":113981,"Delta":46756319},{"NoteNumber":74,"Velocity":35,"Duration":60120,"SoundDuration":60120,"Delta":46870301},{"NoteNumber":76,"Velocity":35,"Duration":60120,"SoundDuration":60120,"Delta":46930421},{"NoteNumber":64,"Velocity":39,"Duration":454338,"SoundDuration":454338,"Delta":46990542},{"NoteNumber":74,"Velocity":39,"Duration":227169,"SoundDuration":227169,"Delta":46990542},{"NoteNumber":36,"Velocity":33,"Duration":454338,"SoundDuration":454338,"Delta":46990542},{"NoteNumber":43,"Velocity":33,"Duration":454338,"SoundDuration":454338,"Delta":46990542},{"NoteNumber":72,"Velocity":34,"Duration":227169,"SoundDuration":227169,"Delta":47217711},{"NoteNumber":64,"Velocity":34,"Duration":116009,"SoundDuration":116009,"Delta":47444881},{"NoteNumber":72,"Velocity":34,"Duration":116009,"SoundDuration":116009,"Delta":47444881},{"NoteNumber":48,"Velocity":30,"Duration":116009,"SoundDuration":116009,"Delta":47444881},{"NoteNumber":55,"Velocity":30,"Duration":116009,"SoundDuration":116009,"Delta":47444881},{"NoteNumber":64,"Velocity":34,"Duration":118991,"SoundDuration":118991,"Delta":47676899},{"NoteNumber":72,"Velocity":34,"Duration":118991,"SoundDuration":118991,"Delta":47676899},{"NoteNumber":48,"Velocity":30,"Duration":118991,"SoundDuration":118991,"Delta":47676899},{"NoteNumber":55,"Velocity":30,"Duration":118991,"SoundDuration":118991,"Delta":47676899},{"NoteNumber":64,"Velocity":39,"Duration":333196,"SoundDuration":333196,"Delta":47914881},{"NoteNumber":72,"Velocity":39,"Duration":333196,"SoundDuration":333196,"Delta":47914881},{"NoteNumber":48,"Velocity":33,"Duration":333196,"SoundDuration":333196,"Delta":47914881},{"NoteNumber":55,"Velocity":33,"Duration":333196,"SoundDuration":333196,"Delta":47914881},{"NoteNumber":55,"Velocity":72,"Duration":122100,"SoundDuration":122100,"Delta":48355961},{"NoteNumber":48,"Velocity":72,"Duration":122100,"SoundDuration":122100,"Delta":48355961},{"NoteNumber":48,"Velocity":72,"Duration":123538,"SoundDuration":123538,"Delta":48600161},{"NoteNumber":55,"Velocity":72,"Duration":123538,"SoundDuration":123538,"Delta":48600161},{"NoteNumber":64,"Velocity":75,"Duration":116053,"SoundDuration":116053,"Delta":48847237},{"NoteNumber":67,"Velocity":75,"Duration":459722,"SoundDuration":459722,"Delta":48847237},{"NoteNumber":48,"Velocity":71,"Duration":459722,"SoundDuration":459722,"Delta":48847237},{"NoteNumber":55,"Velocity":71,"Duration":459722,"SoundDuration":459722,"Delta":48847237},{"NoteNumber":62,"Velocity":68,"Duration":114556,"SoundDuration":114556,"Delta":48963290},{"NoteNumber":64,"Velocity":68,"Duration":114556,"SoundDuration":114556,"Delta":49077847},{"NoteNumber":60,"Velocity":68,"Duration":57278,"SoundDuration":57278,"Delta":49192403},{"NoteNumber":65,"Velocity":68,"Duration":115393,"SoundDuration":115393,"Delta":49306959},{"NoteNumber":69,"Velocity":71,"Duration":475945,"SoundDuration":475945,"Delta":49306959},{"NoteNumber":55,"Velocity":64,"Duration":230786,"SoundDuration":230786,"Delta":49306959},{"NoteNumber":48,"Velocity":64,"Duration":230786,"SoundDuration":230786,"Delta":49306959},{"NoteNumber":62,"Velocity":68,"Duration":122579,"SoundDuration":122579,"Delta":49537746},{"NoteNumber":48,"Velocity":64,"Duration":122579,"SoundDuration":122579,"Delta":49537746},{"NoteNumber":55,"Velocity":64,"Duration":122579,"SoundDuration":122579,"Delta":49537746},{"NoteNumber":64,"Velocity":75,"Duration":114556,"SoundDuration":114556,"Delta":49782904},{"NoteNumber":67,"Velocity":75,"Duration":458224,"SoundDuration":458224,"Delta":49782904},{"NoteNumber":55,"Velocity":71,"Duration":458224,"SoundDuration":458224,"Delta":49782904},{"NoteNumber":48,"Velocity":71,"Duration":458224,"SoundDuration":458224,"Delta":49782904},{"NoteNumber":62,"Velocity":69,"Duration":114556,"SoundDuration":114556,"Delta":49897460},{"NoteNumber":64,"Velocity":69,"Duration":114556,"SoundDuration":114556,"Delta":50012017},{"NoteNumber":60,"Velocity":69,"Duration":57278,"SoundDuration":57278,"Delta":50126573},{"NoteNumber":65,"Velocity":68,"Duration":115393,"SoundDuration":115393,"Delta":50241129},{"NoteNumber":69,"Velocity":71,"Duration":461573,"SoundDuration":461573,"Delta":50241129},{"NoteNumber":55,"Velocity":64,"Duration":230786,"SoundDuration":230786,"Delta":50241129},{"NoteNumber":48,"Velocity":64,"Duration":230786,"SoundDuration":230786,"Delta":50241129},{"NoteNumber":62,"Velocity":68,"Duration":115393,"SoundDuration":115393,"Delta":50471916},{"NoteNumber":55,"Velocity":64,"Duration":115393,"SoundDuration":115393,"Delta":50471916},{"NoteNumber":48,"Velocity":64,"Duration":115393,"SoundDuration":115393,"Delta":50471916},{"NoteNumber":77,"Velocity":56,"Duration":224215,"SoundDuration":224215,"Delta":50931816},{"NoteNumber":81,"Velocity":56,"Duration":74738,"SoundDuration":74738,"Delta":50931816},{"NoteNumber":71,"Velocity":56,"Duration":224215,"SoundDuration":224215,"Delta":50931816},{"NoteNumber":83,"Velocity":56,"Duration":74738,"SoundDuration":74738,"Delta":51006554},{"NoteNumber":81,"Velocity":56,"Duration":74738,"SoundDuration":74738,"Delta":51081292},{"NoteNumber":79,"Velocity":60,"Duration":115821,"SoundDuration":115821,"Delta":51156031},{"NoteNumber":76,"Velocity":60,"Duration":115821,"SoundDuration":115821,"Delta":51156031},{"NoteNumber":72,"Velocity":60,"Duration":115821,"SoundDuration":115821,"Delta":51156031},{"NoteNumber":76,"Velocity":59,"Duration":115821,"SoundDuration":115821,"Delta":51387673},{"NoteNumber":79,"Velocity":59,"Duration":115821,"SoundDuration":115821,"Delta":51387673},{"NoteNumber":72,"Velocity":59,"Duration":115821,"SoundDuration":115821,"Delta":51387673},{"NoteNumber":79,"Velocity":59,"Duration":926569,"SoundDuration":926569,"Delta":51619316},{"NoteNumber":76,"Velocity":59,"Duration":926569,"SoundDuration":926569,"Delta":51619316},{"NoteNumber":72,"Velocity":59,"Duration":926569,"SoundDuration":926569,"Delta":51619316},{"NoteNumber":63,"Velocity":52,"Duration":463285,"SoundDuration":463285,"Delta":52545886},{"NoteNumber":67,"Velocity":52,"Duration":463285,"SoundDuration":463285,"Delta":52545886},{"NoteNumber":59,"Velocity":59,"Duration":463285,"SoundDuration":463285,"Delta":52545886},{"NoteNumber":71,"Velocity":48,"Duration":231642,"SoundDuration":231642,"Delta":53009171},{"NoteNumber":75,"Velocity":48,"Duration":231642,"SoundDuration":231642,"Delta":53009171},{"NoteNumber":79,"Velocity":48,"Duration":231642,"SoundDuration":231642,"Delta":53009171},{"NoteNumber":71,"Velocity":47,"Duration":231642,"SoundDuration":231642,"Delta":53240813},{"NoteNumber":75,"Velocity":47,"Duration":231642,"SoundDuration":231642,"Delta":53240813},{"NoteNumber":79,"Velocity":47,"Duration":231642,"SoundDuration":231642,"Delta":53240813},{"NoteNumber":71,"Velocity":46,"Duration":455927,"SoundDuration":455927,"Delta":53472456},{"NoteNumber":75,"Velocity":46,"Duration":455927,"SoundDuration":455927,"Delta":53472456},{"NoteNumber":79,"Velocity":46,"Duration":455927,"SoundDuration":455927,"Delta":53472456},{"NoteNumber":75,"Velocity":34,"Duration":57594,"SoundDuration":57594,"Delta":53928383},{"NoteNumber":79,"Velocity":34,"Duration":57594,"SoundDuration":57594,"Delta":53928383},{"NoteNumber":79,"Velocity":34,"Duration":117693,"SoundDuration":117693,"Delta":54158762},{"NoteNumber":75,"Velocity":34,"Duration":117693,"SoundDuration":117693,"Delta":54158762},{"NoteNumber":80,"Velocity":34,"Duration":117693,"SoundDuration":117693,"Delta":54158762},{"NoteNumber":75,"Velocity":37,"Duration":464149,"SoundDuration":464149,"Delta":54394149},{"NoteNumber":79,"Velocity":37,"Duration":464149,"SoundDuration":464149,"Delta":54394149},{"NoteNumber":82,"Velocity":37,"Duration":228763,"SoundDuration":228763,"Delta":54394149},{"NoteNumber":46,"Velocity":33,"Duration":114381,"SoundDuration":114381,"Delta":54394149},{"NoteNumber":55,"Velocity":33,"Duration":114381,"SoundDuration":114381,"Delta":54394149},{"NoteNumber":58,"Velocity":33,"Duration":114381,"SoundDuration":114381,"Delta":54508530},{"NoteNumber":84,"Velocity":34,"Duration":235386,"SoundDuration":235386,"Delta":54622912},{"NoteNumber":63,"Velocity":33,"Duration":117693,"SoundDuration":117693,"Delta":54622912},{"NoteNumber":67,"Velocity":33,"Duration":117693,"SoundDuration":117693,"Delta":54740605},{"NoteNumber":75,"Velocity":34,"Duration":57190,"SoundDuration":57190,"Delta":54858298},{"NoteNumber":79,"Velocity":34,"Duration":57190,"SoundDuration":57190,"Delta":54858298},{"NoteNumber":75,"Velocity":34,"Duration":58846,"SoundDuration":58846,"Delta":55087061},{"NoteNumber":79,"Velocity":34,"Duration":58846,"SoundDuration":58846,"Delta":55087061},{"NoteNumber":80,"Velocity":34,"Duration":58846,"SoundDuration":58846,"Delta":55087061},{"NoteNumber":74,"Velocity":38,"Duration":451357,"SoundDuration":451357,"Delta":55322448},{"NoteNumber":80,"Velocity":38,"Duration":451357,"SoundDuration":451357,"Delta":55322448},{"NoteNumber":82,"Velocity":38,"Duration":220978,"SoundDuration":220978,"Delta":55322448},{"NoteNumber":53,"Velocity":33,"Duration":110489,"SoundDuration":110489,"Delta":55322448},{"NoteNumber":46,"Velocity":33,"Duration":110489,"SoundDuration":110489,"Delta":55322448},{"NoteNumber":58,"Velocity":33,"Duration":110489,"SoundDuration":110489,"Delta":55432937},{"NoteNumber":84,"Velocity":34,"Duration":230379,"SoundDuration":230379,"Delta":55543426},{"NoteNumber":62,"Velocity":33,"Duration":115189,"SoundDuration":115189,"Delta":55543426},{"NoteNumber":68,"Velocity":33,"Duration":115189,"SoundDuration":115189,"Delta":55658615},{"NoteNumber":70,"Velocity":34,"Duration":111623,"SoundDuration":111623,"Delta":55773805},{"NoteNumber":74,"Velocity":34,"Duration":111623,"SoundDuration":111623,"Delta":55773805},{"NoteNumber":79,"Velocity":34,"Duration":111623,"SoundDuration":111623,"Delta":55773805},{"NoteNumber":70,"Velocity":34,"Duration":113981,"SoundDuration":113981,"Delta":55997053},{"NoteNumber":74,"Velocity":34,"Duration":113981,"SoundDuration":113981,"Delta":55997053},{"NoteNumber":77,"Velocity":34,"Duration":113981,"SoundDuration":113981,"Delta":55997053},{"NoteNumber":77,"Velocity":35,"Duration":61530,"SoundDuration":61530,"Delta":56111034},{"NoteNumber":79,"Velocity":35,"Duration":61530,"SoundDuration":61530,"Delta":56172565},{"NoteNumber":67,"Velocity":39,"Duration":454338,"SoundDuration":454338,"Delta":56234096},{"NoteNumber":77,"Velocity":39,"Duration":227169,"SoundDuration":227169,"Delta":56234096},{"NoteNumber":46,"Velocity":33,"Duration":454338,"SoundDuration":454338,"Delta":56234096},{"NoteNumber":39,"Velocity":33,"Duration":454338,"SoundDuration":454338,"Delta":56234096},{"NoteNumber":75,"Velocity":34,"Duration":227169,"SoundDuration":227169,"Delta":56461266},{"NoteNumber":67,"Velocity":34,"Duration":116009,"SoundDuration":116009,"Delta":56688435},{"NoteNumber":75,"Velocity":34,"Duration":116009,"SoundDuration":116009,"Delta":56688435},{"NoteNumber":58,"Velocity":30,"Duration":116009,"SoundDuration":116009,"Delta":56688435},{"NoteNumber":51,"Velocity":30,"Duration":116009,"SoundDuration":116009,"Delta":56688435},{"NoteNumber":67,"Velocity":34,"Duration":118991,"SoundDuration":118991,"Delta":56920454},{"NoteNumber":75,"Velocity":34,"Duration":118991,"SoundDuration":118991,"Delta":56920454},{"NoteNumber":58,"Velocity":30,"Duration":118991,"SoundDuration":118991,"Delta":56920454},{"NoteNumber":51,"Velocity":30,"Duration":118991,"SoundDuration":118991,"Delta":56920454},{"NoteNumber":67,"Velocity":39,"Duration":475963,"SoundDuration":475963,"Delta":57158436},{"NoteNumber":75,"Velocity":39,"Duration":475963,"SoundDuration":475963,"Delta":57158436},{"NoteNumber":58,"Velocity":33,"Duration":475963,"SoundDuration":475963,"Delta":57158436},{"NoteNumber":51,"Velocity":33,"Duration":475963,"SoundDuration":475963,"Delta":57158436},{"NoteNumber":46,"Velocity":27,"Duration":114556,"SoundDuration":114556,"Delta":57634400},{"NoteNumber":51,"Velocity":27,"Duration":114556,"SoundDuration":114556,"Delta":57634400},{"NoteNumber":55,"Velocity":25,"Duration":114556,"SoundDuration":114556,"Delta":57748956},{"NoteNumber":61,"Velocity":28,"Duration":114556,"SoundDuration":114556,"Delta":57748956},{"NoteNumber":39,"Velocity":23,"Duration":114556,"SoundDuration":114556,"Delta":57863512},{"NoteNumber":63,"Velocity":29,"Duration":114556,"SoundDuration":114556,"Delta":57978068},{"NoteNumber":61,"Velocity":25,"Duration":114556,"SoundDuration":114556,"Delta":57978068},{"NoteNumber":55,"Velocity":25,"Duration":114556,"SoundDuration":114556,"Delta":57978068},{"NoteNumber":46,"Velocity":23,"Duration":116677,"SoundDuration":116677,"Delta":58092625},{"NoteNumber":51,"Velocity":23,"Duration":116677,"SoundDuration":116677,"Delta":58092625},{"NoteNumber":55,"Velocity":25,"Duration":116676,"SoundDuration":116676,"Delta":58209302},{"NoteNumber":61,"Velocity":25,"Duration":116676,"SoundDuration":116676,"Delta":58209302},{"NoteNumber":65,"Velocity":34,"Duration":116676,"SoundDuration":116676,"Delta":58209302},{"NoteNumber":39,"Velocity":26,"Duration":119779,"SoundDuration":119779,"Delta":58325979},{"NoteNumber":55,"Velocity":26,"Duration":119779,"SoundDuration":119779,"Delta":58445758},{"NoteNumber":61,"Velocity":26,"Duration":119779,"SoundDuration":119779,"Delta":58445758},{"NoteNumber":67,"Velocity":33,"Duration":119779,"SoundDuration":119779,"Delta":58445758},{"NoteNumber":46,"Velocity":29,"Duration":113318,"SoundDuration":113318,"Delta":58565538},{"NoteNumber":51,"Velocity":29,"Duration":113318,"SoundDuration":113318,"Delta":58565538},{"NoteNumber":55,"Velocity":27,"Duration":113318,"SoundDuration":113318,"Delta":58678856},{"NoteNumber":61,"Velocity":31,"Duration":113318,"SoundDuration":113318,"Delta":58678856},{"NoteNumber":39,"Velocity":27,"Duration":113318,"SoundDuration":113318,"Delta":58792175},{"NoteNumber":63,"Velocity":31,"Duration":113318,"SoundDuration":113318,"Delta":58905494},{"NoteNumber":55,"Velocity":27,"Duration":113318,"SoundDuration":113318,"Delta":58905494},{"NoteNumber":61,"Velocity":27,"Duration":113318,"SoundDuration":113318,"Delta":58905494},{"NoteNumber":46,"Velocity":27,"Duration":115821,"SoundDuration":115821,"Delta":59018813},{"NoteNumber":51,"Velocity":27,"Duration":115821,"SoundDuration":115821,"Delta":59018813},{"NoteNumber":55,"Velocity":28,"Duration":115821,"SoundDuration":115821,"Delta":59134634},{"NoteNumber":61,"Velocity":28,"Duration":115821,"SoundDuration":115821,"Delta":59134634},{"NoteNumber":65,"Velocity":36,"Duration":115821,"SoundDuration":115821,"Delta":59134634},{"NoteNumber":39,"Velocity":28,"Duration":119779,"SoundDuration":119779,"Delta":59250455},{"NoteNumber":55,"Velocity":28,"Duration":119779,"SoundDuration":119779,"Delta":59370235},{"NoteNumber":61,"Velocity":28,"Duration":119779,"SoundDuration":119779,"Delta":59370235},{"NoteNumber":67,"Velocity":33,"Duration":119779,"SoundDuration":119779,"Delta":59370235},{"NoteNumber":46,"Velocity":35,"Duration":111317,"SoundDuration":111317,"Delta":59490014},{"NoteNumber":51,"Velocity":35,"Duration":111317,"SoundDuration":111317,"Delta":59490014},{"NoteNumber":55,"Velocity":29,"Duration":111317,"SoundDuration":111317,"Delta":59601331},{"NoteNumber":61,"Velocity":34,"Duration":111317,"SoundDuration":111317,"Delta":59601331},{"NoteNumber":39,"Velocity":30,"Duration":111317,"SoundDuration":111317,"Delta":59712649},{"NoteNumber":63,"Velocity":34,"Duration":111317,"SoundDuration":111317,"Delta":59823966},{"NoteNumber":55,"Velocity":30,"Duration":111317,"SoundDuration":111317,"Delta":59823966},{"NoteNumber":61,"Velocity":30,"Duration":111317,"SoundDuration":111317,"Delta":59823966},{"NoteNumber":46,"Velocity":30,"Duration":114137,"SoundDuration":114137,"Delta":59935283},{"NoteNumber":51,"Velocity":30,"Duration":114137,"SoundDuration":114137,"Delta":59935283},{"NoteNumber":55,"Velocity":29,"Duration":114138,"SoundDuration":114138,"Delta":60049421},{"NoteNumber":61,"Velocity":29,"Duration":114138,"SoundDuration":114138,"Delta":60049421},{"NoteNumber":65,"Velocity":39,"Duration":114138,"SoundDuration":114138,"Delta":60049421},{"NoteNumber":39,"Velocity":30,"Duration":118877,"SoundDuration":118877,"Delta":60163559},{"NoteNumber":68,"Velocity":42,"Duration":118877,"SoundDuration":118877,"Delta":60282437},{"NoteNumber":46,"Velocity":36,"Duration":112107,"SoundDuration":112107,"Delta":60401315},{"NoteNumber":51,"Velocity":36,"Duration":112107,"SoundDuration":112107,"Delta":60401315},{"NoteNumber":55,"Velocity":31,"Duration":112107,"SoundDuration":112107,"Delta":60513422},{"NoteNumber":61,"Velocity":31,"Duration":112107,"SoundDuration":112107,"Delta":60513422},{"NoteNumber":67,"Velocity":38,"Duration":112107,"SoundDuration":112107,"Delta":60513422},{"NoteNumber":39,"Velocity":33,"Duration":112107,"SoundDuration":112107,"Delta":60625530},{"NoteNumber":63,"Velocity":38,"Duration":112107,"SoundDuration":112107,"Delta":60737637},{"NoteNumber":55,"Velocity":31,"Duration":112107,"SoundDuration":112107,"Delta":60737637},{"NoteNumber":61,"Velocity":31,"Duration":112107,"SoundDuration":112107,"Delta":60737637},{"NoteNumber":46,"Velocity":33,"Duration":115821,"SoundDuration":115821,"Delta":60849745},{"NoteNumber":51,"Velocity":33,"Duration":115821,"SoundDuration":115821,"Delta":60849745},{"NoteNumber":55,"Velocity":31,"Duration":115821,"SoundDuration":115821,"Delta":60965566},{"NoteNumber":61,"Velocity":31,"Duration":115821,"SoundDuration":115821,"Delta":60965566},{"NoteNumber":65,"Velocity":39,"Duration":115821,"SoundDuration":115821,"Delta":60965566},{"NoteNumber":39,"Velocity":33,"Duration":115821,"SoundDuration":115821,"Delta":61081387},{"NoteNumber":55,"Velocity":32,"Duration":115821,"SoundDuration":115821,"Delta":61197208},{"NoteNumber":61,"Velocity":38,"Duration":115821,"SoundDuration":115821,"Delta":61197208},{"NoteNumber":48,"Velocity":33,"Duration":114556,"SoundDuration":114556,"Delta":61313030},{"NoteNumber":51,"Velocity":33,"Duration":114556,"SoundDuration":114556,"Delta":61313030},{"NoteNumber":56,"Velocity":36,"Duration":114556,"SoundDuration":114556,"Delta":61427586},{"NoteNumber":63,"Velocity":36,"Duration":114556,"SoundDuration":114556,"Delta":61427586},{"NoteNumber":39,"Velocity":30,"Duration":114556,"SoundDuration":114556,"Delta":61542142},{"NoteNumber":63,"Velocity":35,"Duration":114556,"SoundDuration":114556,"Delta":61656698},{"NoteNumber":65,"Velocity":35,"Duration":114556,"SoundDuration":114556,"Delta":61656698},{"NoteNumber":56,"Velocity":35,"Duration":114556,"SoundDuration":114556,"Delta":61656698},{"NoteNumber":48,"Velocity":31,"Duration":116677,"SoundDuration":116677,"Delta":61771255},{"NoteNumber":51,"Velocity":31,"Duration":116677,"SoundDuration":116677,"Delta":61771255},{"NoteNumber":56,"Velocity":30,"Duration":116676,"SoundDuration":116676,"Delta":61887932},{"NoteNumber":63,"Velocity":30,"Duration":116676,"SoundDuration":116676,"Delta":61887932},{"NoteNumber":67,"Velocity":40,"Duration":116676,"SoundDuration":116676,"Delta":61887932},{"NoteNumber":39,"Velocity":30,"Duration":119779,"SoundDuration":119779,"Delta":62004609},{"NoteNumber":56,"Velocity":31,"Duration":119779,"SoundDuration":119779,"Delta":62124388},{"NoteNumber":63,"Velocity":31,"Duration":119779,"SoundDuration":119779,"Delta":62124388},{"NoteNumber":68,"Velocity":39,"Duration":119779,"SoundDuration":119779,"Delta":62124388},{"NoteNumber":48,"Velocity":34,"Duration":113318,"SoundDuration":113318,"Delta":62244168},{"NoteNumber":51,"Velocity":34,"Duration":113318,"SoundDuration":113318,"Delta":62244168},{"NoteNumber":56,"Velocity":31,"Duration":113318,"SoundDuration":113318,"Delta":62357486},{"NoteNumber":63,"Velocity":36,"Duration":113318,"SoundDuration":113318,"Delta":62357486},{"NoteNumber":39,"Velocity":31,"Duration":113318,"SoundDuration":113318,"Delta":62470805},{"NoteNumber":63,"Velocity":36,"Duration":113318,"SoundDuration":113318,"Delta":62584124},{"NoteNumber":56,"Velocity":31,"Duration":113318,"SoundDuration":113318,"Delta":62584124},{"NoteNumber":65,"Velocity":31,"Duration":113318,"SoundDuration":113318,"Delta":62584124},{"NoteNumber":48,"Velocity":32,"Duration":115821,"SoundDuration":115821,"Delta":62697443},{"NoteNumber":51,"Velocity":32,"Duration":115821,"SoundDuration":115821,"Delta":62697443},{"NoteNumber":56,"Velocity":32,"Duration":115821,"SoundDuration":115821,"Delta":62813264},{"NoteNumber":63,"Velocity":32,"Duration":115821,"SoundDuration":115821,"Delta":62813264},{"NoteNumber":67,"Velocity":41,"Duration":115821,"SoundDuration":115821,"Delta":62813264},{"NoteNumber":39,"Velocity":32,"Duration":119779,"SoundDuration":119779,"Delta":62929085},{"NoteNumber":56,"Velocity":32,"Duration":119779,"SoundDuration":119779,"Delta":63048865},{"NoteNumber":63,"Velocity":32,"Duration":119779,"SoundDuration":119779,"Delta":63048865},{"NoteNumber":68,"Velocity":39,"Duration":119779,"SoundDuration":119779,"Delta":63048865},{"NoteNumber":48,"Velocity":40,"Duration":111317,"SoundDuration":111317,"Delta":63168644},{"NoteNumber":51,"Velocity":40,"Duration":111317,"SoundDuration":111317,"Delta":63168644},{"NoteNumber":56,"Velocity":34,"Duration":111317,"SoundDuration":111317,"Delta":63279961},{"NoteNumber":63,"Velocity":39,"Duration":111317,"SoundDuration":111317,"Delta":63279961},{"NoteNumber":39,"Velocity":34,"Duration":111317,"SoundDuration":111317,"Delta":63391279},{"NoteNumber":63,"Velocity":39,"Duration":111317,"SoundDuration":111317,"Delta":63502596},{"NoteNumber":56,"Velocity":34,"Duration":111317,"SoundDuration":111317,"Delta":63502596},{"NoteNumber":65,"Velocity":34,"Duration":111317,"SoundDuration":111317,"Delta":63502596},{"NoteNumber":48,"Velocity":35,"Duration":114137,"SoundDuration":114137,"Delta":63613913},{"NoteNumber":51,"Velocity":35,"Duration":114137,"SoundDuration":114137,"Delta":63613913},{"NoteNumber":56,"Velocity":34,"Duration":114138,"SoundDuration":114138,"Delta":63728051},{"NoteNumber":63,"Velocity":34,"Duration":114138,"SoundDuration":114138,"Delta":63728051},{"NoteNumber":67,"Velocity":44,"Duration":114138,"SoundDuration":114138,"Delta":63728051},{"NoteNumber":39,"Velocity":35,"Duration":118877,"SoundDuration":118877,"Delta":63842189},{"NoteNumber":70,"Velocity":48,"Duration":118877,"SoundDuration":118877,"Delta":63961067},{"NoteNumber":48,"Velocity":42,"Duration":112107,"SoundDuration":112107,"Delta":64079945},{"NoteNumber":51,"Velocity":42,"Duration":112107,"SoundDuration":112107,"Delta":64079945},{"NoteNumber":56,"Velocity":36,"Duration":112107,"SoundDuration":112107,"Delta":64192052},{"NoteNumber":63,"Velocity":36,"Duration":112107,"SoundDuration":112107,"Delta":64192052},{"NoteNumber":68,"Velocity":44,"Duration":112107,"SoundDuration":112107,"Delta":64192052},{"NoteNumber":39,"Velocity":37,"Duration":112107,"SoundDuration":112107,"Delta":64304160},{"NoteNumber":63,"Velocity":44,"Duration":112107,"SoundDuration":112107,"Delta":64416267},{"NoteNumber":56,"Velocity":36,"Duration":112107,"SoundDuration":112107,"Delta":64416267},{"NoteNumber":65,"Velocity":36,"Duration":112107,"SoundDuration":112107,"Delta":64416267},{"NoteNumber":48,"Velocity":38,"Duration":116676,"SoundDuration":116676,"Delta":64528375},{"NoteNumber":51,"Velocity":38,"Duration":116676,"SoundDuration":116676,"Delta":64528375},{"NoteNumber":56,"Velocity":36,"Duration":116677,"SoundDuration":116677,"Delta":64645052},{"NoteNumber":63,"Velocity":36,"Duration":116677,"SoundDuration":116677,"Delta":64645052},{"NoteNumber":67,"Velocity":45,"Duration":116677,"SoundDuration":116677,"Delta":64645052},{"NoteNumber":39,"Velocity":38,"Duration":116676,"SoundDuration":116676,"Delta":64761729},{"NoteNumber":56,"Velocity":36,"Duration":116676,"SoundDuration":116676,"Delta":64878406},{"NoteNumber":63,"Velocity":43,"Duration":116676,"SoundDuration":116676,"Delta":64878406},{"NoteNumber":44,"Velocity":44,"Duration":116676,"SoundDuration":116676,"Delta":64995083},{"NoteNumber":54,"Velocity":44,"Duration":116676,"SoundDuration":116676,"Delta":64995083},{"NoteNumber":60,"Velocity":48,"Duration":116677,"SoundDuration":116677,"Delta":65111760},{"NoteNumber":66,"Velocity":48,"Duration":116677,"SoundDuration":116677,"Delta":65111760},{"NoteNumber":39,"Velocity":42,"Duration":116676,"SoundDuration":116676,"Delta":65228437},{"NoteNumber":66,"Velocity":44,"Duration":116676,"SoundDuration":116676,"Delta":65345114},{"NoteNumber":68,"Velocity":44,"Duration":116676,"SoundDuration":116676,"Delta":65345114},{"NoteNumber":60,"Velocity":44,"Duration":116676,"SoundDuration":116676,"Delta":65345114},{"NoteNumber":44,"Velocity":44,"Duration":116676,"SoundDuration":116676,"Delta":65461791},{"NoteNumber":54,"Velocity":44,"Duration":116676,"SoundDuration":116676,"Delta":65461791},{"NoteNumber":60,"Velocity":47,"Duration":116677,"SoundDuration":116677,"Delta":65578468},{"NoteNumber":66,"Velocity":47,"Duration":116677,"SoundDuration":116677,"Delta":65578468},{"NoteNumber":70,"Velocity":47,"Duration":116677,"SoundDuration":116677,"Delta":65578468},{"NoteNumber":39,"Velocity":39,"Duration":119779,"SoundDuration":119779,"Delta":65695145},{"NoteNumber":60,"Velocity":37,"Duration":119779,"SoundDuration":119779,"Delta":65814924},{"NoteNumber":66,"Velocity":37,"Duration":119779,"SoundDuration":119779,"Delta":65814924},{"NoteNumber":72,"Velocity":46,"Duration":119779,"SoundDuration":119779,"Delta":65814924},{"NoteNumber":44,"Velocity":45,"Duration":113731,"SoundDuration":113731,"Delta":65934704},{"NoteNumber":54,"Velocity":45,"Duration":113731,"SoundDuration":113731,"Delta":65934704},{"NoteNumber":60,"Velocity":48,"Duration":113731,"SoundDuration":113731,"Delta":66048435},{"NoteNumber":66,"Velocity":48,"Duration":113731,"SoundDuration":113731,"Delta":66048435},{"NoteNumber":39,"Velocity":42,"Duration":113731,"SoundDuration":113731,"Delta":66162166},{"NoteNumber":66,"Velocity":44,"Duration":113731,"SoundDuration":113731,"Delta":66275897},{"NoteNumber":60,"Velocity":37,"Duration":113731,"SoundDuration":113731,"Delta":66275897},{"NoteNumber":68,"Velocity":37,"Duration":113731,"SoundDuration":113731,"Delta":66275897},{"NoteNumber":44,"Velocity":42,"Duration":115821,"SoundDuration":115821,"Delta":66389629},{"NoteNumber":54,"Velocity":42,"Duration":115821,"SoundDuration":115821,"Delta":66389629},{"NoteNumber":60,"Velocity":47,"Duration":115821,"SoundDuration":115821,"Delta":66505450},{"NoteNumber":66,"Velocity":47,"Duration":115821,"SoundDuration":115821,"Delta":66505450},{"NoteNumber":70,"Velocity":47,"Duration":115821,"SoundDuration":115821,"Delta":66505450},{"NoteNumber":39,"Velocity":44,"Duration":119779,"SoundDuration":119779,"Delta":66621271},{"NoteNumber":60,"Velocity":37,"Duration":119779,"SoundDuration":119779,"Delta":66741051},{"NoteNumber":66,"Velocity":37,"Duration":119779,"SoundDuration":119779,"Delta":66741051},{"NoteNumber":72,"Velocity":45,"Duration":119779,"SoundDuration":119779,"Delta":66741051},{"NoteNumber":44,"Velocity":48,"Duration":114137,"SoundDuration":114137,"Delta":66860830},{"NoteNumber":54,"Velocity":48,"Duration":114137,"SoundDuration":114137,"Delta":66860830},{"NoteNumber":60,"Velocity":47,"Duration":114137,"SoundDuration":114137,"Delta":66974968},{"NoteNumber":66,"Velocity":47,"Duration":114137,"SoundDuration":114137,"Delta":66974968},{"NoteNumber":39,"Velocity":42,"Duration":114138,"SoundDuration":114138,"Delta":67089106},{"NoteNumber":66,"Velocity":46,"Duration":114137,"SoundDuration":114137,"Delta":67203244},{"NoteNumber":60,"Velocity":46,"Duration":114137,"SoundDuration":114137,"Delta":67203244},{"NoteNumber":68,"Velocity":46,"Duration":114137,"SoundDuration":114137,"Delta":67203244},{"NoteNumber":44,"Velocity":47,"Duration":116676,"SoundDuration":116676,"Delta":67317382},{"NoteNumber":54,"Velocity":47,"Duration":116676,"SoundDuration":116676,"Delta":67317382},{"NoteNumber":60,"Velocity":56,"Duration":116677,"SoundDuration":116677,"Delta":67434059},{"NoteNumber":66,"Velocity":56,"Duration":116677,"SoundDuration":116677,"Delta":67434059},{"NoteNumber":70,"Velocity":56,"Duration":116677,"SoundDuration":116677,"Delta":67434059},{"NoteNumber":39,"Velocity":44,"Duration":118877,"SoundDuration":118877,"Delta":67550736},{"NoteNumber":73,"Velocity":50,"Duration":118877,"SoundDuration":118877,"Delta":67669614},{"NoteNumber":44,"Velocity":50,"Duration":114556,"SoundDuration":114556,"Delta":67788492},{"NoteNumber":54,"Velocity":50,"Duration":114556,"SoundDuration":114556,"Delta":67788492},{"NoteNumber":60,"Velocity":55,"Duration":114556,"SoundDuration":114556,"Delta":67903048},{"NoteNumber":66,"Velocity":55,"Duration":114556,"SoundDuration":114556,"Delta":67903048},{"NoteNumber":72,"Velocity":55,"Duration":114556,"SoundDuration":114556,"Delta":67903048},{"NoteNumber":39,"Velocity":46,"Duration":114556,"SoundDuration":114556,"Delta":68017604},{"NoteNumber":68,"Velocity":48,"Duration":114556,"SoundDuration":114556,"Delta":68132160},{"NoteNumber":60,"Velocity":40,"Duration":114556,"SoundDuration":114556,"Delta":68132160},{"NoteNumber":66,"Velocity":40,"Duration":114556,"SoundDuration":114556,"Delta":68132160},{"NoteNumber":44,"Velocity":46,"Duration":115821,"SoundDuration":115821,"Delta":68246717},{"NoteNumber":54,"Velocity":46,"Duration":115821,"SoundDuration":115821,"Delta":68246717},{"NoteNumber":60,"Velocity":40,"Duration":115821,"SoundDuration":115821,"Delta":68362538},{"NoteNumber":66,"Velocity":40,"Duration":115821,"SoundDuration":115821,"Delta":68362538},{"NoteNumber":70,"Velocity":50,"Duration":115821,"SoundDuration":115821,"Delta":68362538},{"NoteNumber":39,"Velocity":46,"Duration":115821,"SoundDuration":115821,"Delta":68478359},{"NoteNumber":60,"Velocity":40,"Duration":115821,"SoundDuration":115821,"Delta":68594180},{"NoteNumber":66,"Velocity":47,"Duration":115821,"SoundDuration":115821,"Delta":68594180},{"NoteNumber":44,"Velocity":50,"Duration":114556,"SoundDuration":114556,"Delta":68710002},{"NoteNumber":53,"Velocity":50,"Duration":114556,"SoundDuration":114556,"Delta":68710002},{"NoteNumber":61,"Velocity":59,"Duration":114556,"SoundDuration":114556,"Delta":68824558},{"NoteNumber":68,"Velocity":59,"Duration":114556,"SoundDuration":114556,"Delta":68824558},{"NoteNumber":39,"Velocity":46,"Duration":114556,"SoundDuration":114556,"Delta":68939114},{"NoteNumber":68,"Velocity":52,"Duration":114556,"SoundDuration":114556,"Delta":69053670},{"NoteNumber":70,"Velocity":52,"Duration":114556,"SoundDuration":114556,"Delta":69053670},{"NoteNumber":61,"Velocity":52,"Duration":114556,"SoundDuration":114556,"Delta":69053670},{"NoteNumber":44,"Velocity":48,"Duration":116676,"SoundDuration":116676,"Delta":69168227},{"NoteNumber":53,"Velocity":48,"Duration":116676,"SoundDuration":116676,"Delta":69168227},{"NoteNumber":61,"Velocity":57,"Duration":116677,"SoundDuration":116677,"Delta":69284904},{"NoteNumber":68,"Velocity":57,"Duration":116677,"SoundDuration":116677,"Delta":69284904},{"NoteNumber":72,"Velocity":57,"Duration":116677,"SoundDuration":116677,"Delta":69284904},{"NoteNumber":39,"Velocity":46,"Duration":119779,"SoundDuration":119779,"Delta":69401581},{"NoteNumber":61,"Velocity":55,"Duration":119779,"SoundDuration":119779,"Delta":69521360},{"NoteNumber":68,"Velocity":55,"Duration":119779,"SoundDuration":119779,"Delta":69521360},{"NoteNumber":73,"Velocity":55,"Duration":119779,"SoundDuration":119779,"Delta":69521360},{"NoteNumber":44,"Velocity":51,"Duration":112909,"SoundDuration":112909,"Delta":69641140},{"NoteNumber":53,"Velocity":51,"Duration":112909,"SoundDuration":112909,"Delta":69641140},{"NoteNumber":61,"Velocity":59,"Duration":112909,"SoundDuration":112909,"Delta":69754049},{"NoteNumber":68,"Velocity":59,"Duration":112909,"SoundDuration":112909,"Delta":69754049},{"NoteNumber":39,"Velocity":47,"Duration":112909,"SoundDuration":112909,"Delta":69866958},{"NoteNumber":68,"Velocity":53,"Duration":112909,"SoundDuration":112909,"Delta":69979867},{"NoteNumber":61,"Velocity":53,"Duration":112909,"SoundDuration":112909,"Delta":69979867},{"NoteNumber":70,"Velocity":53,"Duration":112909,"SoundDuration":112909,"Delta":69979867},{"NoteNumber":44,"Velocity":50,"Duration":115821,"SoundDuration":115821,"Delta":70092777},{"NoteNumber":53,"Velocity":50,"Duration":115821,"SoundDuration":115821,"Delta":70092777},{"NoteNumber":61,"Velocity":59,"Duration":115821,"SoundDuration":115821,"Delta":70208598},{"NoteNumber":68,"Velocity":59,"Duration":115821,"SoundDuration":115821,"Delta":70208598},{"NoteNumber":72,"Velocity":59,"Duration":115821,"SoundDuration":115821,"Delta":70208598},{"NoteNumber":39,"Velocity":47,"Duration":119779,"SoundDuration":119779,"Delta":70324419},{"NoteNumber":61,"Velocity":55,"Duration":119779,"SoundDuration":119779,"Delta":70444199},{"NoteNumber":68,"Velocity":55,"Duration":119779,"SoundDuration":119779,"Delta":70444199},{"NoteNumber":73,"Velocity":55,"Duration":119779,"SoundDuration":119779,"Delta":70444199},{"NoteNumber":44,"Velocity":60,"Duration":111715,"SoundDuration":111715,"Delta":70563978},{"NoteNumber":53,"Velocity":60,"Duration":111715,"SoundDuration":111715,"Delta":70563978},{"NoteNumber":61,"Velocity":59,"Duration":111715,"SoundDuration":111715,"Delta":70675693},{"NoteNumber":68,"Velocity":59,"Duration":111715,"SoundDuration":111715,"Delta":70675693},{"NoteNumber":39,"Velocity":50,"Duration":111715,"SoundDuration":111715,"Delta":70787409},{"NoteNumber":68,"Velocity":57,"Duration":111715,"SoundDuration":111715,"Delta":70899124},{"NoteNumber":61,"Velocity":57,"Duration":111715,"SoundDuration":111715,"Delta":70899124},{"NoteNumber":70,"Velocity":57,"Duration":111715,"SoundDuration":111715,"Delta":70899124},{"NoteNumber":44,"Velocity":56,"Duration":114137,"SoundDuration":114137,"Delta":71010839},{"NoteNumber":53,"Velocity":56,"Duration":114137,"SoundDuration":114137,"Delta":71010839},{"NoteNumber":61,"Velocity":64,"Duration":114137,"SoundDuration":114137,"Delta":71124977},{"NoteNumber":68,"Velocity":64,"Duration":114137,"SoundDuration":114137,"Delta":71124977},{"NoteNumber":72,"Velocity":64,"Duration":114137,"SoundDuration":114137,"Delta":71124977},{"NoteNumber":39,"Velocity":51,"Duration":112511,"SoundDuration":112511,"Delta":71239115},{"NoteNumber":75,"Velocity":64,"Duration":112511,"SoundDuration":112511,"Delta":71351626},{"NoteNumber":44,"Velocity":59,"Duration":112107,"SoundDuration":112107,"Delta":71464138},{"NoteNumber":53,"Velocity":59,"Duration":112107,"SoundDuration":112107,"Delta":71464138},{"NoteNumber":61,"Velocity":62,"Duration":112107,"SoundDuration":112107,"Delta":71576245},{"NoteNumber":68,"Velocity":62,"Duration":112107,"SoundDuration":112107,"Delta":71576245},{"NoteNumber":73,"Velocity":62,"Duration":112107,"SoundDuration":112107,"Delta":71576245},{"NoteNumber":39,"Velocity":53,"Duration":112107,"SoundDuration":112107,"Delta":71688353},{"NoteNumber":70,"Velocity":59,"Duration":112107,"SoundDuration":112107,"Delta":71800460},{"NoteNumber":61,"Velocity":48,"Duration":112107,"SoundDuration":112107,"Delta":71800460},{"NoteNumber":68,"Velocity":48,"Duration":112107,"SoundDuration":112107,"Delta":71800460},{"NoteNumber":44,"Velocity":57,"Duration":115821,"SoundDuration":115821,"Delta":71912568},{"NoteNumber":53,"Velocity":57,"Duration":115821,"SoundDuration":115821,"Delta":71912568},{"NoteNumber":61,"Velocity":48,"Duration":115821,"SoundDuration":115821,"Delta":72028389},{"NoteNumber":68,"Velocity":48,"Duration":115821,"SoundDuration":115821,"Delta":72028389},{"NoteNumber":72,"Velocity":61,"Duration":115821,"SoundDuration":115821,"Delta":72028389},{"NoteNumber":39,"Velocity":53,"Duration":115821,"SoundDuration":115821,"Delta":72144210},{"NoteNumber":61,"Velocity":48,"Duration":115821,"SoundDuration":115821,"Delta":72260031},{"NoteNumber":68,"Velocity":57,"Duration":115821,"SoundDuration":115821,"Delta":72260031},{"NoteNumber":39,"Velocity":60,"Duration":223430,"SoundDuration":223430,"Delta":72375853},{"NoteNumber":46,"Velocity":60,"Duration":223430,"SoundDuration":223430,"Delta":72375853},{"NoteNumber":53,"Velocity":60,"Duration":223430,"SoundDuration":223430,"Delta":72375853},{"NoteNumber":62,"Velocity":71,"Duration":111715,"SoundDuration":111715,"Delta":72487568},{"NoteNumber":68,"Velocity":71,"Duration":111715,"SoundDuration":111715,"Delta":72487568},{"NoteNumber":39,"Velocity":55,"Duration":223430,"SoundDuration":223430,"Delta":72599283},{"NoteNumber":46,"Velocity":55,"Duration":223430,"SoundDuration":223430,"Delta":72599283},{"NoteNumber":53,"Velocity":55,"Duration":223430,"SoundDuration":223430,"Delta":72599283},{"NoteNumber":68,"Velocity":63,"Duration":111715,"SoundDuration":111715,"Delta":72710998},{"NoteNumber":62,"Velocity":63,"Duration":111715,"SoundDuration":111715,"Delta":72710998},{"NoteNumber":70,"Velocity":63,"Duration":111715,"SoundDuration":111715,"Delta":72710998},{"NoteNumber":39,"Velocity":57,"Duration":459918,"SoundDuration":459918,"Delta":72822714},{"NoteNumber":46,"Velocity":57,"Duration":459918,"SoundDuration":459918,"Delta":72822714},{"NoteNumber":53,"Velocity":57,"Duration":459918,"SoundDuration":459918,"Delta":72822714},{"NoteNumber":62,"Velocity":70,"Duration":114137,"SoundDuration":114137,"Delta":72936852},{"NoteNumber":68,"Velocity":70,"Duration":114137,"SoundDuration":114137,"Delta":72936852},{"NoteNumber":72,"Velocity":70,"Duration":114137,"SoundDuration":114137,"Delta":72936852},{"NoteNumber":75,"Velocity":75,"Duration":115821,"SoundDuration":115821,"Delta":73166811},{"NoteNumber":51,"Velocity":53,"Duration":221844,"SoundDuration":221844,"Delta":73282632},{"NoteNumber":58,"Velocity":53,"Duration":221844,"SoundDuration":221844,"Delta":73282632},{"NoteNumber":65,"Velocity":53,"Duration":221844,"SoundDuration":221844,"Delta":73282632},{"NoteNumber":62,"Velocity":69,"Duration":110922,"SoundDuration":110922,"Delta":73393554},{"NoteNumber":68,"Velocity":69,"Duration":110922,"SoundDuration":110922,"Delta":73393554},{"NoteNumber":74,"Velocity":69,"Duration":110922,"SoundDuration":110922,"Delta":73393554},{"NoteNumber":51,"Velocity":53,"Duration":221844,"SoundDuration":221844,"Delta":73504477},{"NoteNumber":58,"Velocity":53,"Duration":221844,"SoundDuration":221844,"Delta":73504477},{"NoteNumber":65,"Velocity":53,"Duration":221844,"SoundDuration":221844,"Delta":73504477},{"NoteNumber":70,"Velocity":63,"Duration":110922,"SoundDuration":110922,"Delta":73615399},{"NoteNumber":62,"Velocity":52,"Duration":110922,"SoundDuration":110922,"Delta":73615399},{"NoteNumber":68,"Velocity":52,"Duration":110922,"SoundDuration":110922,"Delta":73615399},{"NoteNumber":51,"Velocity":61,"Duration":458224,"SoundDuration":458224,"Delta":73726321},{"NoteNumber":58,"Velocity":61,"Duration":458224,"SoundDuration":458224,"Delta":73726321},{"NoteNumber":65,"Velocity":61,"Duration":458224,"SoundDuration":458224,"Delta":73726321},{"NoteNumber":62,"Velocity":52,"Duration":114556,"SoundDuration":114556,"Delta":73840877},{"NoteNumber":68,"Velocity":52,"Duration":114556,"SoundDuration":114556,"Delta":73840877},{"NoteNumber":72,"Velocity":66,"Duration":114556,"SoundDuration":114556,"Delta":73840877},{"NoteNumber":68,"Velocity":62,"Duration":114556,"SoundDuration":114556,"Delta":74069990},{"NoteNumber":39,"Velocity":59,"Duration":222634,"SoundDuration":222634,"Delta":74184546},{"NoteNumber":46,"Velocity":59,"Duration":222634,"SoundDuration":222634,"Delta":74184546},{"NoteNumber":53,"Velocity":59,"Duration":222634,"SoundDuration":222634,"Delta":74184546},{"NoteNumber":74,"Velocity":70,"Duration":111317,"SoundDuration":111317,"Delta":74295863},{"NoteNumber":72,"Velocity":70,"Duration":111317,"SoundDuration":111317,"Delta":74295863},{"NoteNumber":68,"Velocity":70,"Duration":111317,"SoundDuration":111317,"Delta":74295863},{"NoteNumber":39,"Velocity":55,"Duration":222634,"SoundDuration":222634,"Delta":74407181},{"NoteNumber":46,"Velocity":55,"Duration":222634,"SoundDuration":222634,"Delta":74407181},{"NoteNumber":53,"Velocity":55,"Duration":222634,"SoundDuration":222634,"Delta":74407181},{"NoteNumber":68,"Velocity":66,"Duration":111317,"SoundDuration":111317,"Delta":74518498},{"NoteNumber":75,"Velocity":66,"Duration":111317,"SoundDuration":111317,"Delta":74518498},{"NoteNumber":72,"Velocity":66,"Duration":111317,"SoundDuration":111317,"Delta":74518498},{"NoteNumber":39,"Velocity":59,"Duration":460755,"SoundDuration":460755,"Delta":74629815},{"NoteNumber":46,"Velocity":59,"Duration":460755,"SoundDuration":460755,"Delta":74629815},{"NoteNumber":53,"Velocity":59,"Duration":460755,"SoundDuration":460755,"Delta":74629815},{"NoteNumber":77,"Velocity":72,"Duration":114556,"SoundDuration":114556,"Delta":74744371},{"NoteNumber":68,"Velocity":72,"Duration":114556,"SoundDuration":114556,"Delta":74744371},{"NoteNumber":72,"Velocity":72,"Duration":114556,"SoundDuration":114556,"Delta":74744371},{"NoteNumber":80,"Velocity":81,"Duration":115821,"SoundDuration":115821,"Delta":74974749},{"NoteNumber":51,"Velocity":61,"Duration":222634,"SoundDuration":222634,"Delta":75090570},{"NoteNumber":58,"Velocity":61,"Duration":222634,"SoundDuration":222634,"Delta":75090570},{"NoteNumber":65,"Velocity":61,"Duration":222634,"SoundDuration":222634,"Delta":75090570},{"NoteNumber":79,"Velocity":80,"Duration":111317,"SoundDuration":111317,"Delta":75201887},{"NoteNumber":68,"Velocity":80,"Duration":111317,"SoundDuration":111317,"Delta":75201887},{"NoteNumber":72,"Velocity":80,"Duration":111317,"SoundDuration":111317,"Delta":75201887},{"NoteNumber":51,"Velocity":56,"Duration":222634,"SoundDuration":222634,"Delta":75313205},{"NoteNumber":58,"Velocity":56,"Duration":222634,"SoundDuration":222634,"Delta":75313205},{"NoteNumber":65,"Velocity":56,"Duration":222634,"SoundDuration":222634,"Delta":75313205},{"NoteNumber":72,"Velocity":72,"Duration":111317,"SoundDuration":111317,"Delta":75424522},{"NoteNumber":75,"Velocity":72,"Duration":111317,"SoundDuration":111317,"Delta":75424522},{"NoteNumber":68,"Velocity":72,"Duration":111317,"SoundDuration":111317,"Delta":75424522},{"NoteNumber":51,"Velocity":64,"Duration":455809,"SoundDuration":455809,"Delta":75535839},{"NoteNumber":58,"Velocity":64,"Duration":455809,"SoundDuration":455809,"Delta":75535839},{"NoteNumber":65,"Velocity":64,"Duration":455809,"SoundDuration":455809,"Delta":75535839},{"NoteNumber":77,"Velocity":80,"Duration":115393,"SoundDuration":115393,"Delta":75651233},{"NoteNumber":68,"Velocity":80,"Duration":115393,"SoundDuration":115393,"Delta":75651233},{"NoteNumber":72,"Velocity":80,"Duration":115393,"SoundDuration":115393,"Delta":75651233},{"NoteNumber":74,"Velocity":66,"Duration":112511,"SoundDuration":112511,"Delta":75879137},{"NoteNumber":65,"Velocity":75,"Duration":111317,"SoundDuration":111317,"Delta":75991649},{"NoteNumber":53,"Velocity":75,"Duration":111317,"SoundDuration":111317,"Delta":75991649},{"NoteNumber":77,"Velocity":75,"Duration":111317,"SoundDuration":111317,"Delta":76102966},{"NoteNumber":55,"Velocity":75,"Duration":111317,"SoundDuration":111317,"Delta":76214283},{"NoteNumber":67,"Velocity":75,"Duration":111317,"SoundDuration":111317,"Delta":76214283},{"NoteNumber":79,"Velocity":75,"Duration":111317,"SoundDuration":111317,"Delta":76325600},{"NoteNumber":68,"Velocity":82,"Duration":109003,"SoundDuration":109003,"Delta":76436918},{"NoteNumber":56,"Velocity":82,"Duration":109003,"SoundDuration":109003,"Delta":76436918},{"NoteNumber":80,"Velocity":81,"Duration":109003,"SoundDuration":109003,"Delta":76545921},{"NoteNumber":72,"Velocity":75,"Duration":106428,"SoundDuration":106428,"Delta":76654925},{"NoteNumber":60,"Velocity":75,"Duration":106428,"SoundDuration":106428,"Delta":76654925},{"NoteNumber":84,"Velocity":75,"Duration":106428,"SoundDuration":106428,"Delta":76761353},{"NoteNumber":68,"Velocity":75,"Duration":106066,"SoundDuration":106066,"Delta":76867782},{"NoteNumber":56,"Velocity":75,"Duration":106066,"SoundDuration":106066,"Delta":76867782},{"NoteNumber":80,"Velocity":75,"Duration":106067,"SoundDuration":106067,"Delta":76973849},{"NoteNumber":65,"Velocity":75,"Duration":105715,"SoundDuration":105715,"Delta":77079916},{"NoteNumber":53,"Velocity":75,"Duration":105715,"SoundDuration":105715,"Delta":77079916},{"NoteNumber":77,"Velocity":75,"Duration":105656,"SoundDuration":105656,"Delta":77185631},{"NoteNumber":68,"Velocity":82,"Duration":216512,"SoundDuration":216512,"Delta":77291288},{"NoteNumber":56,"Velocity":82,"Duration":216512,"SoundDuration":216512,"Delta":77291288},{"NoteNumber":80,"Velocity":81,"Duration":108256,"SoundDuration":108256,"Delta":77399544},{"NoteNumber":65,"Velocity":75,"Duration":209322,"SoundDuration":209322,"Delta":77507800},{"NoteNumber":53,"Velocity":75,"Duration":209322,"SoundDuration":209322,"Delta":77507800},{"NoteNumber":77,"Velocity":75,"Duration":104661,"SoundDuration":104661,"Delta":77612461},{"NoteNumber":62,"Velocity":75,"Duration":209322,"SoundDuration":209322,"Delta":77717122},{"NoteNumber":50,"Velocity":75,"Duration":209322,"SoundDuration":209322,"Delta":77717122},{"NoteNumber":74,"Velocity":75,"Duration":104661,"SoundDuration":104661,"Delta":77821783},{"NoteNumber":53,"Velocity":75,"Duration":209322,"SoundDuration":209322,"Delta":77926444},{"NoteNumber":65,"Velocity":75,"Duration":209322,"SoundDuration":209322,"Delta":77926444},{"NoteNumber":77,"Velocity":75,"Duration":104661,"SoundDuration":104661,"Delta":78031105},{"NoteNumber":50,"Velocity":82,"Duration":213583,"SoundDuration":213583,"Delta":78135766},{"NoteNumber":62,"Velocity":82,"Duration":213583,"SoundDuration":213583,"Delta":78135766},{"NoteNumber":74,"Velocity":81,"Duration":106791,"SoundDuration":106791,"Delta":78242558},{"NoteNumber":46,"Velocity":75,"Duration":207943,"SoundDuration":207943,"Delta":78349350},{"NoteNumber":58,"Velocity":75,"Duration":207943,"SoundDuration":207943,"Delta":78349350},{"NoteNumber":70,"Velocity":75,"Duration":103971,"SoundDuration":103971,"Delta":78453322},{"NoteNumber":62,"Velocity":75,"Duration":207943,"SoundDuration":207943,"Delta":78557294},{"NoteNumber":50,"Velocity":75,"Duration":207943,"SoundDuration":207943,"Delta":78557294},{"NoteNumber":74,"Velocity":75,"Duration":103971,"SoundDuration":103971,"Delta":78661266},{"NoteNumber":46,"Velocity":75,"Duration":207943,"SoundDuration":207943,"Delta":78765237},{"NoteNumber":58,"Velocity":75,"Duration":207943,"SoundDuration":207943,"Delta":78765237},{"NoteNumber":70,"Velocity":75,"Duration":103971,"SoundDuration":103971,"Delta":78869209},{"NoteNumber":43,"Velocity":82,"Duration":213583,"SoundDuration":213583,"Delta":78973181},{"NoteNumber":55,"Velocity":82,"Duration":213583,"SoundDuration":213583,"Delta":78973181},{"NoteNumber":67,"Velocity":81,"Duration":106791,"SoundDuration":106791,"Delta":79079973},{"NoteNumber":46,"Velocity":75,"Duration":207943,"SoundDuration":207943,"Delta":79186765},{"NoteNumber":58,"Velocity":75,"Duration":207943,"SoundDuration":207943,"Delta":79186765},{"NoteNumber":70,"Velocity":75,"Duration":103971,"SoundDuration":103971,"Delta":79290737},{"NoteNumber":43,"Velocity":75,"Duration":207943,"SoundDuration":207943,"Delta":79394708},{"NoteNumber":55,"Velocity":75,"Duration":207943,"SoundDuration":207943,"Delta":79394708},{"NoteNumber":67,"Velocity":75,"Duration":103971,"SoundDuration":103971,"Delta":79498680},{"NoteNumber":39,"Velocity":75,"Duration":207943,"SoundDuration":207943,"Delta":79602652},{"NoteNumber":51,"Velocity":75,"Duration":207943,"SoundDuration":207943,"Delta":79602652},{"NoteNumber":63,"Velocity":75,"Duration":103971,"SoundDuration":103971,"Delta":79706624},{"NoteNumber":43,"Velocity":85,"Duration":218007,"SoundDuration":218007,"Delta":79810595},{"NoteNumber":55,"Velocity":85,"Duration":218007,"SoundDuration":218007,"Delta":79810595},{"NoteNumber":67,"Velocity":85,"Duration":109003,"SoundDuration":109003,"Delta":79919599},{"NoteNumber":39,"Velocity":79,"Duration":210010,"SoundDuration":210010,"Delta":80028603},{"NoteNumber":51,"Velocity":79,"Duration":210010,"SoundDuration":210010,"Delta":80028603},{"NoteNumber":63,"Velocity":80,"Duration":105005,"SoundDuration":105005,"Delta":80133608},{"NoteNumber":36,"Velocity":79,"Duration":210010,"SoundDuration":210010,"Delta":80238613},{"NoteNumber":48,"Velocity":79,"Duration":210010,"SoundDuration":210010,"Delta":80238613},{"NoteNumber":60,"Velocity":80,"Duration":105005,"SoundDuration":105005,"Delta":80343619},{"NoteNumber":39,"Velocity":79,"Duration":210010,"SoundDuration":210010,"Delta":80448624},{"NoteNumber":51,"Velocity":79,"Duration":210010,"SoundDuration":210010,"Delta":80448624},{"NoteNumber":63,"Velocity":80,"Duration":105005,"SoundDuration":105005,"Delta":80553629},{"NoteNumber":36,"Velocity":85,"Duration":221075,"SoundDuration":221075,"Delta":80658634},{"NoteNumber":48,"Velocity":85,"Duration":221075,"SoundDuration":221075,"Delta":80658634},{"NoteNumber":60,"Velocity":93,"Duration":110537,"SoundDuration":110537,"Delta":80769172},{"NoteNumber":32,"Velocity":81,"Duration":219070,"SoundDuration":219070,"Delta":80879710},{"NoteNumber":44,"Velocity":81,"Duration":219070,"SoundDuration":219070,"Delta":80879710},{"NoteNumber":56,"Velocity":86,"Duration":110932,"SoundDuration":110932,"Delta":80987848},{"NoteNumber":36,"Velocity":86,"Duration":231058,"SoundDuration":231058,"Delta":81098781},{"NoteNumber":48,"Velocity":86,"Duration":231058,"SoundDuration":231058,"Delta":81098781},{"NoteNumber":60,"Velocity":89,"Duration":117117,"SoundDuration":117117,"Delta":81212722},{"NoteNumber":32,"Velocity":95,"Duration":243056,"SoundDuration":243056,"Delta":81329839},{"NoteNumber":44,"Velocity":95,"Duration":243056,"SoundDuration":243056,"Delta":81329839},{"NoteNumber":56,"Velocity":103,"Duration":122579,"SoundDuration":122579,"Delta":81450317},{"NoteNumber":55,"Velocity":108,"Duration":1806864,"SoundDuration":1806864,"Delta":81572896},{"NoteNumber":31,"Velocity":90,"Duration":1806864,"SoundDuration":1806864,"Delta":81572896},{"NoteNumber":43,"Velocity":107,"Duration":1806864,"SoundDuration":1806864,"Delta":81572896},{"NoteNumber":68,"Velocity":93,"Duration":448430,"SoundDuration":448430,"Delta":82021326},{"NoteNumber":56,"Velocity":83,"Duration":448430,"SoundDuration":448430,"Delta":82021326},{"NoteNumber":60,"Velocity":83,"Duration":448430,"SoundDuration":448430,"Delta":82021326},{"NoteNumber":63,"Velocity":83,"Duration":448430,"SoundDuration":448430,"Delta":82021326},{"NoteNumber":51,"Velocity":88,"Duration":448430,"SoundDuration":448430,"Delta":82021326},{"NoteNumber":48,"Velocity":74,"Duration":448430,"SoundDuration":448430,"Delta":82021326},{"NoteNumber":44,"Velocity":74,"Duration":448430,"SoundDuration":448430,"Delta":82021326},{"NoteNumber":80,"Velocity":93,"Duration":448430,"SoundDuration":448430,"Delta":82469756},{"NoteNumber":75,"Velocity":83,"Duration":448430,"SoundDuration":448430,"Delta":82469756},{"NoteNumber":68,"Velocity":83,"Duration":448430,"SoundDuration":448430,"Delta":82469756},{"NoteNumber":72,"Velocity":83,"Duration":448430,"SoundDuration":448430,"Delta":82469756},{"NoteNumber":63,"Velocity":88,"Duration":448430,"SoundDuration":448430,"Delta":82469756},{"NoteNumber":60,"Velocity":74,"Duration":448430,"SoundDuration":448430,"Delta":82469756},{"NoteNumber":56,"Velocity":74,"Duration":448430,"SoundDuration":448430,"Delta":82469756},{"NoteNumber":92,"Velocity":91,"Duration":461573,"SoundDuration":461573,"Delta":82918186},{"NoteNumber":87,"Velocity":81,"Duration":461573,"SoundDuration":461573,"Delta":82918186},{"NoteNumber":84,"Velocity":81,"Duration":461573,"SoundDuration":461573,"Delta":82918186},{"NoteNumber":80,"Velocity":81,"Duration":461573,"SoundDuration":461573,"Delta":82918186},{"NoteNumber":75,"Velocity":88,"Duration":461573,"SoundDuration":461573,"Delta":82918186},{"NoteNumber":72,"Velocity":74,"Duration":461573,"SoundDuration":461573,"Delta":82918186},{"NoteNumber":68,"Velocity":74,"Duration":461573,"SoundDuration":461573,"Delta":82918186},{"NoteNumber":54,"Velocity":108,"Duration":1793719,"SoundDuration":1793719,"Delta":83379760},{"NoteNumber":30,"Velocity":90,"Duration":1793719,"SoundDuration":1793719,"Delta":83379760},{"NoteNumber":42,"Velocity":107,"Duration":1793719,"SoundDuration":1793719,"Delta":83379760},{"NoteNumber":68,"Velocity":93,"Duration":448430,"SoundDuration":448430,"Delta":83828190},{"NoteNumber":56,"Velocity":83,"Duration":448430,"SoundDuration":448430,"Delta":83828190},{"NoteNumber":60,"Velocity":83,"Duration":448430,"SoundDuration":448430,"Delta":83828190},{"NoteNumber":63,"Velocity":83,"Duration":448430,"SoundDuration":448430,"Delta":83828190},{"NoteNumber":51,"Velocity":88,"Duration":448430,"SoundDuration":448430,"Delta":83828190},{"NoteNumber":48,"Velocity":74,"Duration":448430,"SoundDuration":448430,"Delta":83828190},{"NoteNumber":44,"Velocity":74,"Duration":448430,"SoundDuration":448430,"Delta":83828190},{"NoteNumber":80,"Velocity":93,"Duration":448430,"SoundDuration":448430,"Delta":84276620},{"NoteNumber":75,"Velocity":83,"Duration":448430,"SoundDuration":448430,"Delta":84276620},{"NoteNumber":68,"Velocity":83,"Duration":448430,"SoundDuration":448430,"Delta":84276620},{"NoteNumber":72,"Velocity":83,"Duration":448430,"SoundDuration":448430,"Delta":84276620},{"NoteNumber":63,"Velocity":88,"Duration":448430,"SoundDuration":448430,"Delta":84276620},{"NoteNumber":60,"Velocity":74,"Duration":448430,"SoundDuration":448430,"Delta":84276620},{"NoteNumber":56,"Velocity":74,"Duration":448430,"SoundDuration":448430,"Delta":84276620},{"NoteNumber":92,"Velocity":91,"Duration":448429,"SoundDuration":448429,"Delta":84725050},{"NoteNumber":87,"Velocity":81,"Duration":448429,"SoundDuration":448429,"Delta":84725050},{"NoteNumber":84,"Velocity":81,"Duration":448429,"SoundDuration":448429,"Delta":84725050},{"NoteNumber":80,"Velocity":81,"Duration":448429,"SoundDuration":448429,"Delta":84725050},{"NoteNumber":75,"Velocity":88,"Duration":448429,"SoundDuration":448429,"Delta":84725050},{"NoteNumber":72,"Velocity":74,"Duration":448429,"SoundDuration":448429,"Delta":84725050},{"NoteNumber":68,"Velocity":74,"Duration":448429,"SoundDuration":448429,"Delta":84725050},{"NoteNumber":53,"Velocity":111,"Duration":1813419,"SoundDuration":1813419,"Delta":85173480},{"NoteNumber":29,"Velocity":93,"Duration":1813419,"SoundDuration":1813419,"Delta":85173480},{"NoteNumber":41,"Velocity":110,"Duration":1813419,"SoundDuration":1813419,"Delta":85173480},{"NoteNumber":68,"Velocity":93,"Duration":450045,"SoundDuration":450045,"Delta":85636765},{"NoteNumber":56,"Velocity":83,"Duration":450045,"SoundDuration":450045,"Delta":85636765},{"NoteNumber":59,"Velocity":83,"Duration":450045,"SoundDuration":450045,"Delta":85636765},{"NoteNumber":63,"Velocity":83,"Duration":450045,"SoundDuration":450045,"Delta":85636765},{"NoteNumber":51,"Velocity":88,"Duration":450045,"SoundDuration":450045,"Delta":85636765},{"NoteNumber":47,"Velocity":74,"Duration":450045,"SoundDuration":450045,"Delta":85636765},{"NoteNumber":44,"Velocity":74,"Duration":450045,"SoundDuration":450045,"Delta":85636765},{"NoteNumber":80,"Velocity":93,"Duration":450045,"SoundDuration":450045,"Delta":86086810},{"NoteNumber":75,"Velocity":83,"Duration":450045,"SoundDuration":450045,"Delta":86086810},{"NoteNumber":68,"Velocity":83,"Duration":450045,"SoundDuration":450045,"Delta":86086810},{"NoteNumber":71,"Velocity":83,"Duration":450045,"SoundDuration":450045,"Delta":86086810},{"NoteNumber":63,"Velocity":88,"Duration":450045,"SoundDuration":450045,"Delta":86086810},{"NoteNumber":59,"Velocity":74,"Duration":450045,"SoundDuration":450045,"Delta":86086810},{"NoteNumber":56,"Velocity":74,"Duration":450045,"SoundDuration":450045,"Delta":86086810},{"NoteNumber":92,"Velocity":91,"Duration":450044,"SoundDuration":450044,"Delta":86536855},{"NoteNumber":87,"Velocity":81,"Duration":450044,"SoundDuration":450044,"Delta":86536855},{"NoteNumber":83,"Velocity":81,"Duration":450044,"SoundDuration":450044,"Delta":86536855},{"NoteNumber":80,"Velocity":81,"Duration":450044,"SoundDuration":450044,"Delta":86536855},{"NoteNumber":75,"Velocity":88,"Duration":450044,"SoundDuration":450044,"Delta":86536855},{"NoteNumber":71,"Velocity":74,"Duration":450044,"SoundDuration":450044,"Delta":86536855},{"NoteNumber":68,"Velocity":74,"Duration":450044,"SoundDuration":450044,"Delta":86536855},{"NoteNumber":52,"Velocity":111,"Duration":1504338,"SoundDuration":1504338,"Delta":86986900},{"NoteNumber":28,"Velocity":93,"Duration":2217410,"SoundDuration":2217410,"Delta":86986900},{"NoteNumber":40,"Velocity":110,"Duration":983640,"SoundDuration":983640,"Delta":86986900},{"NoteNumber":57,"Velocity":83,"Duration":508129,"SoundDuration":508129,"Delta":87462411},{"NoteNumber":69,"Velocity":93,"Duration":508129,"SoundDuration":508129,"Delta":87462411},{"NoteNumber":55,"Velocity":83,"Duration":508129,"SoundDuration":508129,"Delta":87462411},{"NoteNumber":61,"Velocity":83,"Duration":508129,"SoundDuration":508129,"Delta":87462411},{"NoteNumber":67,"Velocity":93,"Duration":508129,"SoundDuration":508129,"Delta":87462411},{"NoteNumber":49,"Velocity":88,"Duration":508129,"SoundDuration":508129,"Delta":87462411},{"NoteNumber":45,"Velocity":74,"Duration":508129,"SoundDuration":508129,"Delta":87462411},{"NoteNumber":40,"Velocity":74,"Duration":1741899,"SoundDuration":1741899,"Delta":87462411},{"NoteNumber":67,"Velocity":83,"Duration":520697,"SoundDuration":520697,"Delta":87970541},{"NoteNumber":81,"Velocity":93,"Duration":520697,"SoundDuration":520697,"Delta":87970541},{"NoteNumber":79,"Velocity":93,"Duration":520697,"SoundDuration":520697,"Delta":87970541},{"NoteNumber":69,"Velocity":83,"Duration":520697,"SoundDuration":520697,"Delta":87970541},{"NoteNumber":73,"Velocity":83,"Duration":520697,"SoundDuration":520697,"Delta":87970541},{"NoteNumber":57,"Velocity":74,"Duration":520697,"SoundDuration":520697,"Delta":87970541},{"NoteNumber":61,"Velocity":88,"Duration":520697,"SoundDuration":520697,"Delta":87970541},{"NoteNumber":52,"Velocity":74,"Duration":1233769,"SoundDuration":1233769,"Delta":87970541},{"NoteNumber":81,"Velocity":78,"Duration":342426,"SoundDuration":342426,"Delta":88491239},{"NoteNumber":93,"Velocity":86,"Duration":342426,"SoundDuration":342426,"Delta":88491239},{"NoteNumber":91,"Velocity":86,"Duration":342426,"SoundDuration":342426,"Delta":88491239},{"NoteNumber":85,"Velocity":78,"Duration":342426,"SoundDuration":342426,"Delta":88491239},{"NoteNumber":79,"Velocity":78,"Duration":342426,"SoundDuration":342426,"Delta":88491239},{"NoteNumber":73,"Velocity":88,"Duration":342426,"SoundDuration":342426,"Delta":88491239},{"NoteNumber":69,"Velocity":74,"Duration":342426,"SoundDuration":342426,"Delta":88491239},{"NoteNumber":64,"Velocity":74,"Duration":342426,"SoundDuration":342426,"Delta":88491239},{"NoteNumber":81,"Velocity":88,"Duration":123548,"SoundDuration":123548,"Delta":88833666},{"NoteNumber":83,"Velocity":88,"Duration":123548,"SoundDuration":123548,"Delta":88957214},{"NoteNumber":81,"Velocity":88,"Duration":123548,"SoundDuration":123548,"Delta":89080762},{"NoteNumber":78,"Velocity":97,"Duration":473787,"SoundDuration":473787,"Delta":89204311},{"NoteNumber":38,"Velocity":79,"Duration":119779,"SoundDuration":119779,"Delta":89204311},{"NoteNumber":45,"Velocity":79,"Duration":119779,"SoundDuration":119779,"Delta":89204311},{"NoteNumber":50,"Velocity":68,"Duration":119779,"SoundDuration":119779,"Delta":89324090},{"NoteNumber":81,"Velocity":97,"Duration":234228,"SoundDuration":234228,"Delta":89443870},{"NoteNumber":54,"Velocity":68,"Duration":117114,"SoundDuration":117114,"Delta":89443870},{"NoteNumber":57,"Velocity":68,"Duration":117114,"SoundDuration":117114,"Delta":89560984},{"NoteNumber":81,"Velocity":90,"Duration":116242,"SoundDuration":116242,"Delta":89678098},{"NoteNumber":86,"Velocity":101,"Duration":116242,"SoundDuration":116242,"Delta":89678098},{"NoteNumber":78,"Velocity":90,"Duration":116242,"SoundDuration":116242,"Delta":89678098},{"NoteNumber":62,"Velocity":70,"Duration":92994,"SoundDuration":92994,"Delta":89678098},{"NoteNumber":57,"Velocity":70,"Duration":92994,"SoundDuration":92994,"Delta":89771092},{"NoteNumber":54,"Velocity":69,"Duration":92319,"SoundDuration":92319,"Delta":89864087},{"NoteNumber":81,"Velocity":83,"Duration":114556,"SoundDuration":114556,"Delta":89910584},{"NoteNumber":90,"Velocity":93,"Duration":114556,"SoundDuration":114556,"Delta":89910584},{"NoteNumber":78,"Velocity":83,"Duration":114556,"SoundDuration":114556,"Delta":89910584},{"NoteNumber":50,"Velocity":68,"Duration":91644,"SoundDuration":91644,"Delta":89956407},{"NoteNumber":45,"Velocity":68,"Duration":91644,"SoundDuration":91644,"Delta":90048052},{"NoteNumber":81,"Velocity":75,"Duration":461598,"SoundDuration":461598,"Delta":90139697},{"NoteNumber":88,"Velocity":102,"Duration":232485,"SoundDuration":232485,"Delta":90139697},{"NoteNumber":78,"Velocity":75,"Duration":461598,"SoundDuration":461598,"Delta":90139697},{"NoteNumber":38,"Velocity":64,"Duration":92994,"SoundDuration":92994,"Delta":90139697},{"NoteNumber":45,"Velocity":69,"Duration":92994,"SoundDuration":92994,"Delta":90232691},{"NoteNumber":50,"Velocity":70,"Duration":92319,"SoundDuration":92319,"Delta":90325685},{"NoteNumber":86,"Velocity":93,"Duration":229112,"SoundDuration":229112,"Delta":90372183},{"NoteNumber":54,"Velocity":71,"Duration":91644,"SoundDuration":91644,"Delta":90418005},{"NoteNumber":57,"Velocity":73,"Duration":91644,"SoundDuration":91644,"Delta":90509650},{"NoteNumber":74,"Velocity":89,"Duration":111715,"SoundDuration":111715,"Delta":90601295},{"NoteNumber":78,"Velocity":93,"Duration":111715,"SoundDuration":111715,"Delta":90601295},{"NoteNumber":62,"Velocity":75,"Duration":223430,"SoundDuration":223430,"Delta":90601295},{"NoteNumber":74,"Velocity":81,"Duration":113731,"SoundDuration":113731,"Delta":90824726},{"NoteNumber":81,"Velocity":90,"Duration":113731,"SoundDuration":113731,"Delta":90824726},{"NoteNumber":78,"Velocity":81,"Duration":113731,"SoundDuration":113731,"Delta":90824726},{"NoteNumber":74,"Velocity":85,"Duration":221075,"SoundDuration":221075,"Delta":91052188},{"NoteNumber":83,"Velocity":95,"Duration":221075,"SoundDuration":221075,"Delta":91052188},{"NoteNumber":81,"Velocity":85,"Duration":221075,"SoundDuration":221075,"Delta":91052188},{"NoteNumber":78,"Velocity":85,"Duration":221075,"SoundDuration":221075,"Delta":91052188},{"NoteNumber":38,"Velocity":77,"Duration":221075,"SoundDuration":221075,"Delta":91052188},{"NoteNumber":45,"Velocity":77,"Duration":221075,"SoundDuration":221075,"Delta":91052188},{"NoteNumber":50,"Velocity":77,"Duration":221075,"SoundDuration":221075,"Delta":91052188},{"NoteNumber":62,"Velocity":68,"Duration":442152,"SoundDuration":442152,"Delta":91273264},{"NoteNumber":57,"Velocity":68,"Duration":442152,"SoundDuration":442152,"Delta":91273264},{"NoteNumber":54,"Velocity":68,"Duration":442152,"SoundDuration":442152,"Delta":91273264},{"NoteNumber":74,"Velocity":77,"Duration":221076,"SoundDuration":221076,"Delta":91494340},{"NoteNumber":83,"Velocity":86,"Duration":221076,"SoundDuration":221076,"Delta":91494340},{"NoteNumber":81,"Velocity":77,"Duration":221076,"SoundDuration":221076,"Delta":91494340},{"NoteNumber":78,"Velocity":77,"Duration":221076,"SoundDuration":221076,"Delta":91494340},{"NoteNumber":66,"Velocity":68,"Duration":446098,"SoundDuration":446098,"Delta":91715416},{"NoteNumber":62,"Velocity":68,"Duration":446098,"SoundDuration":446098,"Delta":91715416},{"NoteNumber":57,"Velocity":68,"Duration":446098,"SoundDuration":446098,"Delta":91715416},{"NoteNumber":74,"Velocity":77,"Duration":110538,"SoundDuration":110538,"Delta":91825954},{"NoteNumber":83,"Velocity":86,"Duration":110538,"SoundDuration":110538,"Delta":91825954},{"NoteNumber":81,"Velocity":77,"Duration":110538,"SoundDuration":110538,"Delta":91825954},{"NoteNumber":78,"Velocity":77,"Duration":110538,"SoundDuration":110538,"Delta":91825954},{"NoteNumber":74,"Velocity":77,"Duration":450045,"SoundDuration":450045,"Delta":91936492},{"NoteNumber":83,"Velocity":86,"Duration":450045,"SoundDuration":450045,"Delta":91936492},{"NoteNumber":81,"Velocity":86,"Duration":450045,"SoundDuration":450045,"Delta":91936492},{"NoteNumber":78,"Velocity":77,"Duration":450045,"SoundDuration":450045,"Delta":91936492},{"NoteNumber":69,"Velocity":68,"Duration":225022,"SoundDuration":225022,"Delta":92161515},{"NoteNumber":66,"Velocity":68,"Duration":225022,"SoundDuration":225022,"Delta":92161515},{"NoteNumber":62,"Velocity":68,"Duration":225022,"SoundDuration":225022,"Delta":92161515},{"NoteNumber":74,"Velocity":90,"Duration":109769,"SoundDuration":109769,"Delta":92386537},{"NoteNumber":78,"Velocity":90,"Duration":109769,"SoundDuration":109769,"Delta":92386537},{"NoteNumber":74,"Velocity":90,"Duration":110922,"SoundDuration":110922,"Delta":92606076},{"NoteNumber":80,"Velocity":90,"Duration":110922,"SoundDuration":110922,"Delta":92606076},{"NoteNumber":78,"Velocity":90,"Duration":110922,"SoundDuration":110922,"Delta":92606076},{"NoteNumber":74,"Velocity":87,"Duration":444561,"SoundDuration":444561,"Delta":92827921},{"NoteNumber":78,"Velocity":87,"Duration":444561,"SoundDuration":444561,"Delta":92827921},{"NoteNumber":81,"Velocity":97,"Duration":225022,"SoundDuration":225022,"Delta":92827921},{"NoteNumber":35,"Velocity":66,"Duration":75007,"SoundDuration":75007,"Delta":92827921},{"NoteNumber":42,"Velocity":59,"Duration":75007,"SoundDuration":75007,"Delta":92902928},{"NoteNumber":47,"Velocity":59,"Duration":75007,"SoundDuration":75007,"Delta":92977936},{"NoteNumber":83,"Velocity":89,"Duration":219538,"SoundDuration":219538,"Delta":93052943},{"NoteNumber":50,"Velocity":59,"Duration":73179,"SoundDuration":73179,"Delta":93052943},{"NoteNumber":54,"Velocity":59,"Duration":73179,"SoundDuration":73179,"Delta":93126123},{"NoteNumber":59,"Velocity":59,"Duration":73179,"SoundDuration":73179,"Delta":93199302},{"NoteNumber":78,"Velocity":93,"Duration":109769,"SoundDuration":109769,"Delta":93272482},{"NoteNumber":74,"Velocity":93,"Duration":109769,"SoundDuration":109769,"Delta":93272482},{"NoteNumber":62,"Velocity":59,"Duration":219538,"SoundDuration":219538,"Delta":93272482},{"NoteNumber":80,"Velocity":90,"Duration":112107,"SoundDuration":112107,"Delta":93492021},{"NoteNumber":78,"Velocity":90,"Duration":112107,"SoundDuration":112107,"Delta":93492021},{"NoteNumber":74,"Velocity":90,"Duration":112107,"SoundDuration":112107,"Delta":93492021},{"NoteNumber":81,"Velocity":97,"Duration":229955,"SoundDuration":229955,"Delta":93716236},{"NoteNumber":74,"Velocity":87,"Duration":452590,"SoundDuration":452590,"Delta":93716236},{"NoteNumber":78,"Velocity":87,"Duration":452590,"SoundDuration":452590,"Delta":93716236},{"NoteNumber":40,"Velocity":66,"Duration":91982,"SoundDuration":91982,"Delta":93716236},{"NoteNumber":47,"Velocity":59,"Duration":91982,"SoundDuration":91982,"Delta":93808218},{"NoteNumber":52,"Velocity":59,"Duration":90518,"SoundDuration":90518,"Delta":93900200},{"NoteNumber":83,"Velocity":89,"Duration":222634,"SoundDuration":222634,"Delta":93946192},{"NoteNumber":56,"Velocity":59,"Duration":89053,"SoundDuration":89053,"Delta":93990718},{"NoteNumber":62,"Velocity":59,"Duration":89053,"SoundDuration":89053,"Delta":94079772},{"NoteNumber":74,"Velocity":93,"Duration":114137,"SoundDuration":114137,"Delta":94168826},{"NoteNumber":78,"Velocity":93,"Duration":114137,"SoundDuration":114137,"Delta":94168826},{"NoteNumber":66,"Velocity":59,"Duration":228275,"SoundDuration":228275,"Delta":94168826},{"NoteNumber":80,"Velocity":93,"Duration":117545,"SoundDuration":117545,"Delta":94397102},{"NoteNumber":74,"Velocity":93,"Duration":117545,"SoundDuration":117545,"Delta":94397102},{"NoteNumber":78,"Velocity":93,"Duration":117545,"SoundDuration":117545,"Delta":94397102},{"NoteNumber":69,"Velocity":87,"Duration":229955,"SoundDuration":229955,"Delta":94632194},{"NoteNumber":74,"Velocity":87,"Duration":229955,"SoundDuration":229955,"Delta":94632194},{"NoteNumber":76,"Velocity":87,"Duration":229955,"SoundDuration":229955,"Delta":94632194},{"NoteNumber":81,"Velocity":97,"Duration":229955,"SoundDuration":229955,"Delta":94632194},{"NoteNumber":33,"Velocity":75,"Duration":229955,"SoundDuration":229955,"Delta":94632194},{"NoteNumber":40,"Velocity":75,"Duration":229955,"SoundDuration":229955,"Delta":94632194},{"NoteNumber":45,"Velocity":75,"Duration":229955,"SoundDuration":229955,"Delta":94632194},{"NoteNumber":61,"Velocity":64,"Duration":463309,"SoundDuration":463309,"Delta":94862149},{"NoteNumber":57,"Velocity":64,"Duration":463309,"SoundDuration":463309,"Delta":94862149},{"NoteNumber":52,"Velocity":64,"Duration":463309,"SoundDuration":463309,"Delta":94862149},{"NoteNumber":76,"Velocity":75,"Duration":233354,"SoundDuration":233354,"Delta":95092105},{"NoteNumber":69,"Velocity":75,"Duration":233354,"SoundDuration":233354,"Delta":95092105},{"NoteNumber":73,"Velocity":75,"Duration":233354,"SoundDuration":233354,"Delta":95092105},{"NoteNumber":81,"Velocity":84,"Duration":233354,"SoundDuration":233354,"Delta":95092105},{"NoteNumber":64,"Velocity":64,"Duration":466707,"SoundDuration":466707,"Delta":95325459},{"NoteNumber":61,"Velocity":64,"Duration":466707,"SoundDuration":466707,"Delta":95325459},{"NoteNumber":57,"Velocity":64,"Duration":466707,"SoundDuration":466707,"Delta":95325459},{"NoteNumber":69,"Velocity":75,"Duration":116676,"SoundDuration":116676,"Delta":95442136},{"NoteNumber":76,"Velocity":75,"Duration":116676,"SoundDuration":116676,"Delta":95442136},{"NoteNumber":73,"Velocity":75,"Duration":116676,"SoundDuration":116676,"Delta":95442136},{"NoteNumber":81,"Velocity":84,"Duration":116676,"SoundDuration":116676,"Delta":95442136},{"NoteNumber":69,"Velocity":75,"Duration":466707,"SoundDuration":466707,"Delta":95558813},{"NoteNumber":76,"Velocity":75,"Duration":466707,"SoundDuration":466707,"Delta":95558813},{"NoteNumber":73,"Velocity":75,"Duration":466707,"SoundDuration":466707,"Delta":95558813},{"NoteNumber":81,"Velocity":84,"Duration":466707,"SoundDuration":466707,"Delta":95558813},{"NoteNumber":69,"Velocity":64,"Duration":233353,"SoundDuration":233353,"Delta":95792167},{"NoteNumber":64,"Velocity":64,"Duration":233353,"SoundDuration":233353,"Delta":95792167},{"NoteNumber":61,"Velocity":64,"Duration":233353,"SoundDuration":233353,"Delta":95792167},{"NoteNumber":85,"Velocity":89,"Duration":76651,"SoundDuration":76651,"Delta":96255476},{"NoteNumber":86,"Velocity":89,"Duration":76651,"SoundDuration":76651,"Delta":96332128},{"NoteNumber":85,"Velocity":89,"Duration":76651,"SoundDuration":76651,"Delta":96408780},{"NoteNumber":83,"Velocity":96,"Duration":453275,"SoundDuration":453275,"Delta":96485432},{"NoteNumber":43,"Velocity":65,"Duration":113318,"SoundDuration":113318,"Delta":96485432},{"NoteNumber":50,"Velocity":65,"Duration":113318,"SoundDuration":113318,"Delta":96485432},{"NoteNumber":55,"Velocity":57,"Duration":113318,"SoundDuration":113318,"Delta":96598750},{"NoteNumber":86,"Velocity":96,"Duration":226637,"SoundDuration":226637,"Delta":96712069},{"NoteNumber":59,"Velocity":57,"Duration":113318,"SoundDuration":113318,"Delta":96712069},{"NoteNumber":62,"Velocity":57,"Duration":113318,"SoundDuration":113318,"Delta":96825388},{"NoteNumber":86,"Velocity":89,"Duration":116676,"SoundDuration":116676,"Delta":96938707},{"NoteNumber":91,"Velocity":99,"Duration":116676,"SoundDuration":116676,"Delta":96938707},{"NoteNumber":83,"Velocity":89,"Duration":116676,"SoundDuration":116676,"Delta":96938707},{"NoteNumber":67,"Velocity":65,"Duration":93341,"SoundDuration":93341,"Delta":96938707},{"NoteNumber":62,"Velocity":59,"Duration":93341,"SoundDuration":93341,"Delta":97032048},{"NoteNumber":59,"Velocity":58,"Duration":92163,"SoundDuration":92163,"Delta":97125390},{"NoteNumber":86,"Velocity":81,"Duration":113731,"SoundDuration":113731,"Delta":97172061},{"NoteNumber":95,"Velocity":91,"Duration":113731,"SoundDuration":113731,"Delta":97172061},{"NoteNumber":83,"Velocity":81,"Duration":113731,"SoundDuration":113731,"Delta":97172061},{"NoteNumber":55,"Velocity":58,"Duration":90985,"SoundDuration":90985,"Delta":97217553},{"NoteNumber":50,"Velocity":57,"Duration":90985,"SoundDuration":90985,"Delta":97308538},{"NoteNumber":93,"Velocity":97,"Duration":222634,"SoundDuration":222634,"Delta":97399523},{"NoteNumber":83,"Velocity":76,"Duration":452590,"SoundDuration":452590,"Delta":97399523},{"NoteNumber":43,"Velocity":56,"Duration":89053,"SoundDuration":89053,"Delta":97399523},{"NoteNumber":47,"Velocity":56,"Duration":89053,"SoundDuration":89053,"Delta":97488577},{"NoteNumber":55,"Velocity":57,"Duration":90517,"SoundDuration":90517,"Delta":97577631},{"NoteNumber":91,"Velocity":86,"Duration":229955,"SoundDuration":229955,"Delta":97622158},{"NoteNumber":59,"Velocity":57,"Duration":91982,"SoundDuration":91982,"Delta":97668149},{"NoteNumber":62,"Velocity":57,"Duration":91982,"SoundDuration":91982,"Delta":97760131},{"NoteNumber":83,"Velocity":86,"Duration":110538,"SoundDuration":110538,"Delta":97852113},{"NoteNumber":79,"Velocity":76,"Duration":110538,"SoundDuration":110538,"Delta":97852113},{"NoteNumber":67,"Velocity":57,"Duration":221075,"SoundDuration":221075,"Delta":97852113},{"NoteNumber":83,"Velocity":76,"Duration":114556,"SoundDuration":114556,"Delta":98073189},{"NoteNumber":86,"Velocity":86,"Duration":114556,"SoundDuration":114556,"Delta":98073189},{"NoteNumber":79,"Velocity":76,"Duration":114556,"SoundDuration":114556,"Delta":98073189},{"NoteNumber":90,"Velocity":90,"Duration":230787,"SoundDuration":230787,"Delta":98302302},{"NoteNumber":86,"Velocity":80,"Duration":230787,"SoundDuration":230787,"Delta":98302302},{"NoteNumber":83,"Velocity":80,"Duration":230787,"SoundDuration":230787,"Delta":98302302},{"NoteNumber":79,"Velocity":80,"Duration":230787,"SoundDuration":230787,"Delta":98302302},{"NoteNumber":40,"Velocity":73,"Duration":230787,"SoundDuration":230787,"Delta":98302302},{"NoteNumber":47,"Velocity":73,"Duration":230787,"SoundDuration":230787,"Delta":98302302},{"NoteNumber":52,"Velocity":73,"Duration":230787,"SoundDuration":230787,"Delta":98302302},{"NoteNumber":66,"Velocity":62,"Duration":450325,"SoundDuration":450325,"Delta":98533089},{"NoteNumber":62,"Velocity":62,"Duration":450325,"SoundDuration":450325,"Delta":98533089},{"NoteNumber":59,"Velocity":62,"Duration":450325,"SoundDuration":450325,"Delta":98533089},{"NoteNumber":55,"Velocity":62,"Duration":450325,"SoundDuration":450325,"Delta":98533089},{"NoteNumber":90,"Velocity":80,"Duration":219538,"SoundDuration":219538,"Delta":98763876},{"NoteNumber":86,"Velocity":72,"Duration":219538,"SoundDuration":219538,"Delta":98763876},{"NoteNumber":83,"Velocity":72,"Duration":219538,"SoundDuration":219538,"Delta":98763876},{"NoteNumber":79,"Velocity":72,"Duration":219538,"SoundDuration":219538,"Delta":98763876},{"NoteNumber":67,"Velocity":62,"Duration":435304,"SoundDuration":435304,"Delta":98983415},{"NoteNumber":66,"Velocity":62,"Duration":435304,"SoundDuration":435304,"Delta":98983415},{"NoteNumber":62,"Velocity":62,"Duration":435304,"SoundDuration":435304,"Delta":98983415},{"NoteNumber":59,"Velocity":62,"Duration":435304,"SoundDuration":435304,"Delta":98983415},{"NoteNumber":90,"Velocity":80,"Duration":109769,"SoundDuration":109769,"Delta":99093184},{"NoteNumber":86,"Velocity":72,"Duration":109769,"SoundDuration":109769,"Delta":99093184},{"NoteNumber":83,"Velocity":72,"Duration":109769,"SoundDuration":109769,"Delta":99093184},{"NoteNumber":79,"Velocity":72,"Duration":109769,"SoundDuration":109769,"Delta":99093184},{"NoteNumber":90,"Velocity":80,"Duration":447407,"SoundDuration":447407,"Delta":99202954},{"NoteNumber":86,"Velocity":72,"Duration":447407,"SoundDuration":447407,"Delta":99202954},{"NoteNumber":83,"Velocity":72,"Duration":447407,"SoundDuration":447407,"Delta":99202954},{"NoteNumber":79,"Velocity":72,"Duration":447407,"SoundDuration":447407,"Delta":99202954},{"NoteNumber":71,"Velocity":62,"Duration":231642,"SoundDuration":231642,"Delta":99418719},{"NoteNumber":67,"Velocity":62,"Duration":231642,"SoundDuration":231642,"Delta":99418719},{"NoteNumber":66,"Velocity":62,"Duration":231642,"SoundDuration":231642,"Delta":99418719},{"NoteNumber":62,"Velocity":62,"Duration":231642,"SoundDuration":231642,"Delta":99418719},{"NoteNumber":83,"Velocity":86,"Duration":110148,"SoundDuration":110148,"Delta":99650361},{"NoteNumber":79,"Velocity":86,"Duration":110148,"SoundDuration":110148,"Delta":99650361},{"NoteNumber":85,"Velocity":86,"Duration":110148,"SoundDuration":110148,"Delta":99870658},{"NoteNumber":83,"Velocity":86,"Duration":110148,"SoundDuration":110148,"Delta":99870658},{"NoteNumber":79,"Velocity":86,"Duration":110148,"SoundDuration":110148,"Delta":99870658},{"NoteNumber":86,"Velocity":96,"Duration":226637,"SoundDuration":226637,"Delta":100090954},{"NoteNumber":79,"Velocity":86,"Duration":443902,"SoundDuration":443902,"Delta":100090954},{"NoteNumber":83,"Velocity":86,"Duration":443902,"SoundDuration":443902,"Delta":100090954},{"NoteNumber":45,"Velocity":69,"Duration":90654,"SoundDuration":90654,"Delta":100090954},{"NoteNumber":52,"Velocity":60,"Duration":90654,"SoundDuration":90654,"Delta":100181609},{"NoteNumber":57,"Velocity":60,"Duration":88780,"SoundDuration":88780,"Delta":100272264},{"NoteNumber":88,"Velocity":86,"Duration":217265,"SoundDuration":217265,"Delta":100317592},{"NoteNumber":62,"Velocity":60,"Duration":86906,"SoundDuration":86906,"Delta":100361045},{"NoteNumber":67,"Velocity":60,"Duration":86906,"SoundDuration":86906,"Delta":100447951},{"NoteNumber":83,"Velocity":91,"Duration":111715,"SoundDuration":111715,"Delta":100534857},{"NoteNumber":79,"Velocity":91,"Duration":111715,"SoundDuration":111715,"Delta":100534857},{"NoteNumber":71,"Velocity":60,"Duration":223430,"SoundDuration":223430,"Delta":100534857},{"NoteNumber":85,"Velocity":89,"Duration":111715,"SoundDuration":111715,"Delta":100758288},{"NoteNumber":83,"Velocity":89,"Duration":111715,"SoundDuration":111715,"Delta":100758288},{"NoteNumber":79,"Velocity":89,"Duration":111715,"SoundDuration":111715,"Delta":100758288},{"NoteNumber":86,"Velocity":96,"Duration":220296,"SoundDuration":220296,"Delta":100981718},{"NoteNumber":83,"Velocity":86,"Duration":451083,"SoundDuration":451083,"Delta":100981718},{"NoteNumber":79,"Velocity":86,"Duration":451083,"SoundDuration":451083,"Delta":100981718},{"NoteNumber":45,"Velocity":69,"Duration":88118,"SoundDuration":88118,"Delta":100981718},{"NoteNumber":52,"Velocity":60,"Duration":88118,"SoundDuration":88118,"Delta":101069837},{"NoteNumber":57,"Velocity":60,"Duration":90216,"SoundDuration":90216,"Delta":101157955},{"NoteNumber":88,"Velocity":89,"Duration":230787,"SoundDuration":230787,"Delta":101202015},{"NoteNumber":62,"Velocity":60,"Duration":92314,"SoundDuration":92314,"Delta":101248172},{"NoteNumber":67,"Velocity":60,"Duration":92314,"SoundDuration":92314,"Delta":101340487},{"NoteNumber":83,"Velocity":91,"Duration":115393,"SoundDuration":115393,"Delta":101432802},{"NoteNumber":79,"Velocity":91,"Duration":115393,"SoundDuration":115393,"Delta":101432802},{"NoteNumber":71,"Velocity":60,"Duration":230787,"SoundDuration":230787,"Delta":101432802},{"NoteNumber":85,"Velocity":91,"Duration":115393,"SoundDuration":115393,"Delta":101663589},{"NoteNumber":83,"Velocity":91,"Duration":115393,"SoundDuration":115393,"Delta":101663589},{"NoteNumber":79,"Velocity":91,"Duration":115393,"SoundDuration":115393,"Delta":101663589},{"NoteNumber":74,"Velocity":84,"Duration":235091,"SoundDuration":235091,"Delta":101894376},{"NoteNumber":86,"Velocity":94,"Duration":235091,"SoundDuration":235091,"Delta":101894376},{"NoteNumber":81,"Velocity":84,"Duration":235091,"SoundDuration":235091,"Delta":101894376},{"NoteNumber":79,"Velocity":84,"Duration":235091,"SoundDuration":235091,"Delta":101894376},{"NoteNumber":38,"Velocity":75,"Duration":235091,"SoundDuration":235091,"Delta":101894376},{"NoteNumber":45,"Velocity":75,"Duration":235091,"SoundDuration":235091,"Delta":101894376},{"NoteNumber":50,"Velocity":75,"Duration":235091,"SoundDuration":235091,"Delta":101894376},{"NoteNumber":66,"Velocity":64,"Duration":470183,"SoundDuration":470183,"Delta":102129467},{"NoteNumber":62,"Velocity":64,"Duration":470183,"SoundDuration":470183,"Delta":102129467},{"NoteNumber":57,"Velocity":64,"Duration":470183,"SoundDuration":470183,"Delta":102129467},{"NoteNumber":81,"Velocity":73,"Duration":235091,"SoundDuration":235091,"Delta":102364559},{"NoteNumber":74,"Velocity":73,"Duration":235091,"SoundDuration":235091,"Delta":102364559},{"NoteNumber":86,"Velocity":81,"Duration":235091,"SoundDuration":235091,"Delta":102364559},{"NoteNumber":78,"Velocity":73,"Duration":235091,"SoundDuration":235091,"Delta":102364559},{"NoteNumber":69,"Velocity":64,"Duration":484116,"SoundDuration":484116,"Delta":102599650},{"NoteNumber":66,"Velocity":64,"Duration":484116,"SoundDuration":484116,"Delta":102599650},{"NoteNumber":62,"Velocity":64,"Duration":484116,"SoundDuration":484116,"Delta":102599650},{"NoteNumber":81,"Velocity":73,"Duration":117545,"SoundDuration":117545,"Delta":102717196},{"NoteNumber":74,"Velocity":73,"Duration":117545,"SoundDuration":117545,"Delta":102717196},{"NoteNumber":86,"Velocity":81,"Duration":117545,"SoundDuration":117545,"Delta":102717196},{"NoteNumber":78,"Velocity":73,"Duration":117545,"SoundDuration":117545,"Delta":102717196},{"NoteNumber":81,"Velocity":73,"Duration":249024,"SoundDuration":249024,"Delta":102834742},{"NoteNumber":74,"Velocity":73,"Duration":249024,"SoundDuration":249024,"Delta":102834742},{"NoteNumber":86,"Velocity":81,"Duration":249024,"SoundDuration":249024,"Delta":102834742},{"NoteNumber":78,"Velocity":73,"Duration":249024,"SoundDuration":249024,"Delta":102834742},{"NoteNumber":66,"Velocity":62,"Duration":249024,"SoundDuration":249024,"Delta":103083766},{"NoteNumber":69,"Velocity":62,"Duration":249024,"SoundDuration":249024,"Delta":103083766},{"NoteNumber":74,"Velocity":62,"Duration":249024,"SoundDuration":249024,"Delta":103083766},{"NoteNumber":43,"Velocity":44,"Duration":1278363,"SoundDuration":1278363,"Delta":103830840},{"NoteNumber":50,"Velocity":44,"Duration":1278363,"SoundDuration":1278363,"Delta":103830840},{"NoteNumber":43,"Velocity":44,"Duration":1228579,"SoundDuration":1228579,"Delta":105109204},{"NoteNumber":50,"Velocity":44,"Duration":1228579,"SoundDuration":1228579,"Delta":105109204},{"NoteNumber":71,"Velocity":44,"Duration":289101,"SoundDuration":289101,"Delta":106337783},{"NoteNumber":59,"Velocity":30,"Duration":1121900,"SoundDuration":1121900,"Delta":106337783},{"NoteNumber":62,"Velocity":30,"Duration":1121900,"SoundDuration":1121900,"Delta":106337783},{"NoteNumber":43,"Velocity":30,"Duration":1121900,"SoundDuration":1121900,"Delta":106337783},{"NoteNumber":50,"Velocity":30,"Duration":1121900,"SoundDuration":1121900,"Delta":106337783},{"NoteNumber":69,"Velocity":46,"Duration":551267,"SoundDuration":551267,"Delta":106626884},{"NoteNumber":67,"Velocity":42,"Duration":281531,"SoundDuration":281531,"Delta":107178152},{"NoteNumber":59,"Velocity":30,"Duration":290163,"SoundDuration":290163,"Delta":107459684},{"NoteNumber":62,"Velocity":30,"Duration":1125303,"SoundDuration":1125303,"Delta":107459684},{"NoteNumber":66,"Velocity":44,"Duration":1125303,"SoundDuration":1125303,"Delta":107459684},{"NoteNumber":59,"Velocity":44,"Duration":1125303,"SoundDuration":1125303,"Delta":107459684},{"NoteNumber":43,"Velocity":30,"Duration":1125303,"SoundDuration":1125303,"Delta":107459684},{"NoteNumber":50,"Velocity":30,"Duration":1125303,"SoundDuration":1125303,"Delta":107459684},{"NoteNumber":57,"Velocity":45,"Duration":553607,"SoundDuration":553607,"Delta":107749847},{"NoteNumber":55,"Velocity":40,"Duration":281531,"SoundDuration":281531,"Delta":108303455},{"NoteNumber":69,"Velocity":44,"Duration":288877,"SoundDuration":288877,"Delta":108584987},{"NoteNumber":57,"Velocity":30,"Duration":1093242,"SoundDuration":1093242,"Delta":108584987},{"NoteNumber":60,"Velocity":30,"Duration":1093242,"SoundDuration":1093242,"Delta":108584987},{"NoteNumber":43,"Velocity":27,"Duration":1093242,"SoundDuration":1093242,"Delta":108584987},{"NoteNumber":50,"Velocity":27,"Duration":1093242,"SoundDuration":1093242,"Delta":108584987},{"NoteNumber":54,"Velocity":42,"Duration":1093242,"SoundDuration":1093242,"Delta":108584987},{"NoteNumber":67,"Velocity":46,"Duration":535426,"SoundDuration":535426,"Delta":108873865},{"NoteNumber":66,"Velocity":40,"Duration":268937,"SoundDuration":268937,"Delta":109409292},{"NoteNumber":57,"Velocity":30,"Duration":280321,"SoundDuration":280321,"Delta":109678229},{"NoteNumber":60,"Velocity":30,"Duration":1076025,"SoundDuration":1076025,"Delta":109678229},{"NoteNumber":64,"Velocity":44,"Duration":1076025,"SoundDuration":1076025,"Delta":109678229},{"NoteNumber":57,"Velocity":44,"Duration":1076025,"SoundDuration":1076025,"Delta":109678229},{"NoteNumber":43,"Velocity":30,"Duration":1076025,"SoundDuration":1076025,"Delta":109678229},{"NoteNumber":50,"Velocity":30,"Duration":1076025,"SoundDuration":1076025,"Delta":109678229},{"NoteNumber":55,"Velocity":46,"Duration":533191,"SoundDuration":533191,"Delta":109958551},{"NoteNumber":54,"Velocity":40,"Duration":262512,"SoundDuration":262512,"Delta":110491742},{"NoteNumber":67,"Velocity":45,"Duration":270040,"SoundDuration":270040,"Delta":110754255},{"NoteNumber":55,"Velocity":31,"Duration":1058672,"SoundDuration":1058672,"Delta":110754255},{"NoteNumber":59,"Velocity":31,"Duration":1058672,"SoundDuration":1058672,"Delta":110754255},{"NoteNumber":52,"Velocity":42,"Duration":1058672,"SoundDuration":1058672,"Delta":110754255},{"NoteNumber":43,"Velocity":27,"Duration":1058672,"SoundDuration":1058672,"Delta":110754255},{"NoteNumber":50,"Velocity":27,"Duration":1058672,"SoundDuration":1058672,"Delta":110754255},{"NoteNumber":66,"Velocity":46,"Duration":527147,"SoundDuration":527147,"Delta":111024296},{"NoteNumber":64,"Velocity":40,"Duration":261483,"SoundDuration":261483,"Delta":111551444},{"NoteNumber":55,"Velocity":34,"Duration":273373,"SoundDuration":273373,"Delta":111812927},{"NoteNumber":62,"Velocity":31,"Duration":1071646,"SoundDuration":1071646,"Delta":111812927},{"NoteNumber":67,"Velocity":46,"Duration":1071646,"SoundDuration":1071646,"Delta":111812927},{"NoteNumber":55,"Velocity":44,"Duration":1071646,"SoundDuration":1071646,"Delta":111812927},{"NoteNumber":40,"Velocity":37,"Duration":1071646,"SoundDuration":1071646,"Delta":111812927},{"NoteNumber":54,"Velocity":46,"Duration":527147,"SoundDuration":527147,"Delta":112086301},{"NoteNumber":52,"Velocity":42,"Duration":271124,"SoundDuration":271124,"Delta":112613449},{"NoteNumber":66,"Velocity":45,"Duration":281531,"SoundDuration":281531,"Delta":112884574},{"NoteNumber":55,"Velocity":44,"Duration":1088428,"SoundDuration":1088428,"Delta":112884574},{"NoteNumber":61,"Velocity":44,"Duration":1088428,"SoundDuration":1088428,"Delta":112884574},{"NoteNumber":33,"Velocity":44,"Duration":1088428,"SoundDuration":1088428,"Delta":112884574},{"NoteNumber":45,"Velocity":44,"Duration":1088428,"SoundDuration":1088428,"Delta":112884574},{"NoteNumber":64,"Velocity":46,"Duration":533523,"SoundDuration":533523,"Delta":113166105},{"NoteNumber":66,"Velocity":42,"Duration":273373,"SoundDuration":273373,"Delta":113699628},{"NoteNumber":54,"Velocity":44,"Duration":1197133,"SoundDuration":1197133,"Delta":113973002},{"NoteNumber":62,"Velocity":44,"Duration":877542,"SoundDuration":877542,"Delta":113973002},{"NoteNumber":38,"Velocity":50,"Duration":273373,"SoundDuration":273373,"Delta":113973002},{"NoteNumber":45,"Velocity":50,"Duration":273373,"SoundDuration":273373,"Delta":113973002},{"NoteNumber":62,"Velocity":55,"Duration":923760,"SoundDuration":923760,"Delta":114246375},{"NoteNumber":50,"Velocity":55,"Duration":604168,"SoundDuration":604168,"Delta":114246375},{"NoteNumber":49,"Velocity":55,"Duration":319591,"SoundDuration":319591,"Delta":114850544},{"NoteNumber":61,"Velocity":55,"Duration":319591,"SoundDuration":319591,"Delta":114850544},{"NoteNumber":64,"Velocity":40,"Duration":1118372,"SoundDuration":1118372,"Delta":115170135},{"NoteNumber":71,"Velocity":40,"Duration":1118372,"SoundDuration":1118372,"Delta":115170135},{"NoteNumber":76,"Velocity":56,"Duration":298003,"SoundDuration":298003,"Delta":115170135},{"NoteNumber":48,"Velocity":40,"Duration":1118372,"SoundDuration":1118372,"Delta":115170135},{"NoteNumber":55,"Velocity":40,"Duration":1118372,"SoundDuration":1118372,"Delta":115170135},{"NoteNumber":60,"Velocity":40,"Duration":1118372,"SoundDuration":1118372,"Delta":115170135},{"NoteNumber":74,"Velocity":55,"Duration":553607,"SoundDuration":553607,"Delta":115468139},{"NoteNumber":72,"Velocity":44,"Duration":266761,"SoundDuration":266761,"Delta":116021747},{"NoteNumber":64,"Velocity":40,"Duration":288877,"SoundDuration":288877,"Delta":116288508},{"NoteNumber":67,"Velocity":40,"Duration":1111741,"SoundDuration":1111741,"Delta":116288508},{"NoteNumber":71,"Velocity":45,"Duration":1111741,"SoundDuration":1111741,"Delta":116288508},{"NoteNumber":55,"Velocity":34,"Duration":1111741,"SoundDuration":1111741,"Delta":116288508},{"NoteNumber":52,"Velocity":31,"Duration":288877,"SoundDuration":288877,"Delta":116288508},{"NoteNumber":64,"Velocity":31,"Duration":1111741,"SoundDuration":1111741,"Delta":116288508},{"NoteNumber":50,"Velocity":36,"Duration":558243,"SoundDuration":558243,"Delta":116577386},{"NoteNumber":62,"Velocity":36,"Duration":558243,"SoundDuration":558243,"Delta":116577386},{"NoteNumber":48,"Velocity":28,"Duration":264620,"SoundDuration":264620,"Delta":117135629},{"NoteNumber":60,"Velocity":28,"Duration":264620,"SoundDuration":264620,"Delta":117135629},{"NoteNumber":62,"Velocity":36,"Duration":1097766,"SoundDuration":1097766,"Delta":117400250},{"NoteNumber":69,"Velocity":36,"Duration":1097766,"SoundDuration":1097766,"Delta":117400250},{"NoteNumber":74,"Velocity":51,"Duration":285144,"SoundDuration":285144,"Delta":117400250},{"NoteNumber":47,"Velocity":31,"Duration":1097766,"SoundDuration":1097766,"Delta":117400250},{"NoteNumber":54,"Velocity":31,"Duration":1097766,"SoundDuration":1097766,"Delta":117400250},{"NoteNumber":59,"Velocity":31,"Duration":1097766,"SoundDuration":1097766,"Delta":117400250},{"NoteNumber":72,"Velocity":55,"Duration":549047,"SoundDuration":549047,"Delta":117685394},{"NoteNumber":71,"Velocity":44,"Duration":263574,"SoundDuration":263574,"Delta":118234442},{"NoteNumber":62,"Velocity":38,"Duration":276803,"SoundDuration":276803,"Delta":118498016},{"NoteNumber":66,"Velocity":38,"Duration":1088052,"SoundDuration":1088052,"Delta":118498016},{"NoteNumber":69,"Velocity":45,"Duration":1088052,"SoundDuration":1088052,"Delta":118498016},{"NoteNumber":54,"Velocity":36,"Duration":1088052,"SoundDuration":1088052,"Delta":118498016},{"NoteNumber":50,"Velocity":31,"Duration":276803,"SoundDuration":276803,"Delta":118498016},{"NoteNumber":62,"Velocity":31,"Duration":1088052,"SoundDuration":1088052,"Delta":118498016},{"NoteNumber":48,"Velocity":36,"Duration":537874,"SoundDuration":537874,"Delta":118774820},{"NoteNumber":60,"Velocity":36,"Duration":537874,"SoundDuration":537874,"Delta":118774820},{"NoteNumber":47,"Velocity":29,"Duration":273373,"SoundDuration":273373,"Delta":119312695},{"NoteNumber":59,"Velocity":29,"Duration":273373,"SoundDuration":273373,"Delta":119312695},{"NoteNumber":60,"Velocity":36,"Duration":1132511,"SoundDuration":1132511,"Delta":119586068},{"NoteNumber":67,"Velocity":36,"Duration":1132511,"SoundDuration":1132511,"Delta":119586068},{"NoteNumber":72,"Velocity":52,"Duration":279121,"SoundDuration":279121,"Delta":119586068},{"NoteNumber":45,"Velocity":30,"Duration":1132511,"SoundDuration":1132511,"Delta":119586068},{"NoteNumber":52,"Velocity":30,"Duration":1132511,"SoundDuration":1132511,"Delta":119586068},{"NoteNumber":57,"Velocity":30,"Duration":1132511,"SoundDuration":1132511,"Delta":119586068},{"NoteNumber":71,"Velocity":55,"Duration":577755,"SoundDuration":577755,"Delta":119865190},{"NoteNumber":69,"Velocity":47,"Duration":275633,"SoundDuration":275633,"Delta":120442946},{"NoteNumber":78,"Velocity":61,"Duration":708845,"SoundDuration":708845,"Delta":120718580},{"NoteNumber":67,"Velocity":35,"Duration":1209575,"SoundDuration":1209575,"Delta":120718580},{"NoteNumber":72,"Velocity":35,"Duration":1209575,"SoundDuration":1209575,"Delta":120718580},{"NoteNumber":33,"Velocity":55,"Duration":1209575,"SoundDuration":1209575,"Delta":120718580},{"NoteNumber":60,"Velocity":57,"Duration":290163,"SoundDuration":290163,"Delta":120718580},{"NoteNumber":59,"Velocity":51,"Duration":569724,"SoundDuration":569724,"Delta":121008743},{"NoteNumber":81,"Velocity":55,"Duration":151042,"SoundDuration":151042,"Delta":121427426},{"NoteNumber":79,"Velocity":44,"Duration":114259,"SoundDuration":114259,"Delta":121578468},{"NoteNumber":57,"Velocity":45,"Duration":349687,"SoundDuration":349687,"Delta":121578468},{"NoteNumber":76,"Velocity":44,"Duration":114259,"SoundDuration":114259,"Delta":121692727},{"NoteNumber":72,"Velocity":44,"Duration":121167,"SoundDuration":121167,"Delta":121806987},{"NoteNumber":60,"Velocity":37,"Duration":1257878,"SoundDuration":1257878,"Delta":121928155},{"NoteNumber":66,"Velocity":37,"Duration":1257878,"SoundDuration":1257878,"Delta":121928155},{"NoteNumber":71,"Velocity":46,"Duration":316556,"SoundDuration":316556,"Delta":121928155},{"NoteNumber":38,"Velocity":40,"Duration":1257878,"SoundDuration":1257878,"Delta":121928155},{"NoteNumber":50,"Velocity":40,"Duration":1257878,"SoundDuration":1257878,"Delta":121928155},{"NoteNumber":69,"Velocity":48,"Duration":615448,"SoundDuration":615448,"Delta":122244711},{"NoteNumber":71,"Velocity":39,"Duration":325874,"SoundDuration":325874,"Delta":122860159},{"NoteNumber":60,"Velocity":40,"Duration":337571,"SoundDuration":337571,"Delta":123186034},{"NoteNumber":67,"Velocity":30,"Duration":1371521,"SoundDuration":1371521,"Delta":123186034},{"NoteNumber":43,"Velocity":30,"Duration":936285,"SoundDuration":936285,"Delta":123186034},{"NoteNumber":50,"Velocity":30,"Duration":936285,"SoundDuration":936285,"Delta":123186034},{"NoteNumber":59,"Velocity":37,"Duration":598713,"SoundDuration":598713,"Delta":123523605},{"NoteNumber":54,"Velocity":27,"Duration":4792593,"SoundDuration":4792593,"Delta":124122319},{"NoteNumber":63,"Velocity":27,"Duration":4705546,"SoundDuration":4705546,"Delta":124209366},{"NoteNumber":66,"Velocity":27,"Duration":4618498,"SoundDuration":4618498,"Delta":124296413},{"NoteNumber":71,"Velocity":27,"Duration":1291692,"SoundDuration":1291692,"Delta":124383461},{"NoteNumber":75,"Velocity":27,"Duration":1204645,"SoundDuration":1204645,"Delta":124470508},{"NoteNumber":83,"Velocity":42,"Duration":295333,"SoundDuration":295333,"Delta":124557556},{"NoteNumber":82,"Velocity":45,"Duration":551267,"SoundDuration":551267,"Delta":124852889},{"NoteNumber":80,"Velocity":40,"Duration":130230,"SoundDuration":130230,"Delta":125404157},{"NoteNumber":71,"Velocity":27,"Duration":419887,"SoundDuration":419887,"Delta":125534388},{"NoteNumber":75,"Velocity":27,"Duration":1159291,"SoundDuration":1159291,"Delta":125604771},{"NoteNumber":82,"Velocity":44,"Duration":949917,"SoundDuration":949917,"Delta":125675154},{"NoteNumber":71,"Velocity":29,"Duration":1088909,"SoundDuration":1088909,"Delta":125675154},{"NoteNumber":70,"Velocity":29,"Duration":540053,"SoundDuration":540053,"Delta":125954275},{"NoteNumber":68,"Velocity":27,"Duration":269733,"SoundDuration":269733,"Delta":126494329},{"NoteNumber":71,"Velocity":27,"Duration":1219052,"SoundDuration":1219052,"Delta":126625071},{"NoteNumber":75,"Velocity":27,"Duration":1149556,"SoundDuration":1149556,"Delta":126694567},{"NoteNumber":82,"Velocity":42,"Duration":276803,"SoundDuration":276803,"Delta":126764063},{"NoteNumber":70,"Velocity":27,"Duration":1080060,"SoundDuration":1080060,"Delta":126764063},{"NoteNumber":80,"Velocity":45,"Duration":533523,"SoundDuration":533523,"Delta":127040867},{"NoteNumber":78,"Velocity":40,"Duration":130741,"SoundDuration":130741,"Delta":127574390},{"NoteNumber":71,"Velocity":27,"Duration":1209780,"SoundDuration":1209780,"Delta":127705132},{"NoteNumber":75,"Velocity":27,"Duration":1140284,"SoundDuration":1140284,"Delta":127774627},{"NoteNumber":80,"Velocity":42,"Duration":1070789,"SoundDuration":1070789,"Delta":127844123},{"NoteNumber":70,"Velocity":29,"Duration":276804,"SoundDuration":276804,"Delta":127844123},{"NoteNumber":68,"Velocity":29,"Duration":533523,"SoundDuration":533523,"Delta":128120927},{"NoteNumber":66,"Velocity":27,"Duration":260461,"SoundDuration":260461,"Delta":128654450},{"NoteNumber":72,"Velocity":29,"Duration":1064903,"SoundDuration":1064903,"Delta":128914912},{"NoteNumber":80,"Velocity":42,"Duration":274524,"SoundDuration":274524,"Delta":128914912},{"NoteNumber":63,"Velocity":29,"Duration":1064903,"SoundDuration":1064903,"Delta":128914912},{"NoteNumber":66,"Velocity":29,"Duration":1064903,"SoundDuration":1064903,"Delta":128914912},{"NoteNumber":79,"Velocity":47,"Duration":537875,"SoundDuration":537875,"Delta":129189436},{"NoteNumber":78,"Velocity":42,"Duration":252503,"SoundDuration":252503,"Delta":129727311},{"NoteNumber":73,"Velocity":37,"Duration":264127,"SoundDuration":264127,"Delta":129979815},{"NoteNumber":77,"Velocity":50,"Duration":514733,"SoundDuration":514733,"Delta":129979815},{"NoteNumber":61,"Velocity":34,"Duration":1036776,"SoundDuration":1036776,"Delta":129979815},{"NoteNumber":68,"Velocity":34,"Duration":1036776,"SoundDuration":1036776,"Delta":129979815},{"NoteNumber":72,"Velocity":39,"Duration":508027,"SoundDuration":508027,"Delta":130243943},{"NoteNumber":76,"Velocity":44,"Duration":522042,"SoundDuration":522042,"Delta":130494549},{"NoteNumber":71,"Velocity":35,"Duration":264620,"SoundDuration":264620,"Delta":130751971},{"NoteNumber":70,"Velocity":31,"Duration":1080257,"SoundDuration":1080257,"Delta":131016592},{"NoteNumber":75,"Velocity":38,"Duration":264620,"SoundDuration":264620,"Delta":131016592},{"NoteNumber":64,"Velocity":31,"Duration":1080257,"SoundDuration":1080257,"Delta":131016592},{"NoteNumber":54,"Velocity":31,"Duration":1080257,"SoundDuration":1080257,"Delta":131016592},{"NoteNumber":73,"Velocity":42,"Duration":529240,"SoundDuration":529240,"Delta":131281212},{"NoteNumber":75,"Velocity":42,"Duration":286395,"SoundDuration":286395,"Delta":131810453},{"NoteNumber":66,"Velocity":30,"Duration":833934,"SoundDuration":833934,"Delta":132096849},{"NoteNumber":71,"Velocity":30,"Duration":833934,"SoundDuration":833934,"Delta":132096849},{"NoteNumber":64,"Velocity":31,"Duration":286395,"SoundDuration":286395,"Delta":132096849},{"NoteNumber":59,"Velocity":25,"Duration":1222172,"SoundDuration":1222172,"Delta":132096849},{"NoteNumber":63,"Velocity":31,"Duration":547538,"SoundDuration":547538,"Delta":132383245},{"NoteNumber":50,"Velocity":23,"Duration":4745595,"SoundDuration":4745595,"Delta":132930783},{"NoteNumber":59,"Velocity":23,"Duration":4667947,"SoundDuration":4667947,"Delta":133008431},{"NoteNumber":62,"Velocity":23,"Duration":4590300,"SoundDuration":4590300,"Delta":133086079},{"NoteNumber":67,"Velocity":23,"Duration":1272893,"SoundDuration":1272893,"Delta":133163727},{"NoteNumber":71,"Velocity":23,"Duration":1195246,"SoundDuration":1195246,"Delta":133241374},{"NoteNumber":79,"Velocity":37,"Duration":295333,"SoundDuration":295333,"Delta":133319022},{"NoteNumber":78,"Velocity":39,"Duration":551267,"SoundDuration":551267,"Delta":133614356},{"NoteNumber":76,"Velocity":36,"Duration":130231,"SoundDuration":130231,"Delta":134165624},{"NoteNumber":67,"Velocity":23,"Duration":419887,"SoundDuration":419887,"Delta":134295855},{"NoteNumber":71,"Velocity":23,"Duration":1159291,"SoundDuration":1159291,"Delta":134366238},{"NoteNumber":78,"Velocity":38,"Duration":949917,"SoundDuration":949917,"Delta":134436620},{"NoteNumber":67,"Velocity":29,"Duration":1088909,"SoundDuration":1088909,"Delta":134436620},{"NoteNumber":66,"Velocity":29,"Duration":540053,"SoundDuration":540053,"Delta":134715742},{"NoteNumber":64,"Velocity":27,"Duration":269733,"SoundDuration":269733,"Delta":135255796},{"NoteNumber":67,"Velocity":23,"Duration":1219052,"SoundDuration":1219052,"Delta":135386538},{"NoteNumber":71,"Velocity":23,"Duration":1149556,"SoundDuration":1149556,"Delta":135456034},{"NoteNumber":78,"Velocity":37,"Duration":276803,"SoundDuration":276803,"Delta":135525529},{"NoteNumber":66,"Velocity":27,"Duration":1080060,"SoundDuration":1080060,"Delta":135525529},{"NoteNumber":76,"Velocity":39,"Duration":533523,"SoundDuration":533523,"Delta":135802333},{"NoteNumber":74,"Velocity":36,"Duration":130741,"SoundDuration":130741,"Delta":136335856},{"NoteNumber":67,"Velocity":23,"Duration":1209780,"SoundDuration":1209780,"Delta":136466598},{"NoteNumber":71,"Velocity":23,"Duration":1140284,"SoundDuration":1140284,"Delta":136536094},{"NoteNumber":76,"Velocity":38,"Duration":1070788,"SoundDuration":1070788,"Delta":136605590},{"NoteNumber":66,"Velocity":29,"Duration":276803,"SoundDuration":276803,"Delta":136605590},{"NoteNumber":64,"Velocity":29,"Duration":533523,"SoundDuration":533523,"Delta":136882394},{"NoteNumber":62,"Velocity":27,"Duration":260461,"SoundDuration":260461,"Delta":137415917},{"NoteNumber":68,"Velocity":27,"Duration":1064903,"SoundDuration":1064903,"Delta":137676379},{"NoteNumber":76,"Velocity":39,"Duration":274524,"SoundDuration":274524,"Delta":137676379},{"NoteNumber":59,"Velocity":27,"Duration":1064903,"SoundDuration":1064903,"Delta":137676379},{"NoteNumber":62,"Velocity":27,"Duration":1064903,"SoundDuration":1064903,"Delta":137676379},{"NoteNumber":75,"Velocity":45,"Duration":537875,"SoundDuration":537875,"Delta":137950903},{"NoteNumber":74,"Velocity":39,"Duration":252503,"SoundDuration":252503,"Delta":138488778},{"NoteNumber":69,"Velocity":35,"Duration":264620,"SoundDuration":264620,"Delta":138741282},{"NoteNumber":73,"Velocity":47,"Duration":514267,"SoundDuration":514267,"Delta":138741282},{"NoteNumber":57,"Velocity":30,"Duration":1035298,"SoundDuration":1035298,"Delta":138741282},{"NoteNumber":64,"Velocity":30,"Duration":1035298,"SoundDuration":1035298,"Delta":138741282},{"NoteNumber":68,"Velocity":37,"Duration":506056,"SoundDuration":506056,"Delta":139005902},{"NoteNumber":72,"Velocity":40,"Duration":521030,"SoundDuration":521030,"Delta":139255549},{"NoteNumber":67,"Velocity":31,"Duration":264620,"SoundDuration":264620,"Delta":139511959},{"NoteNumber":66,"Velocity":29,"Duration":1080257,"SoundDuration":1080257,"Delta":139776580},{"NoteNumber":71,"Velocity":36,"Duration":264620,"SoundDuration":264620,"Delta":139776580},{"NoteNumber":60,"Velocity":29,"Duration":1080257,"SoundDuration":1080257,"Delta":139776580},{"NoteNumber":50,"Velocity":29,"Duration":1080257,"SoundDuration":1080257,"Delta":139776580},{"NoteNumber":69,"Velocity":39,"Duration":529240,"SoundDuration":529240,"Delta":140041200},{"NoteNumber":66,"Velocity":39,"Duration":286395,"SoundDuration":286395,"Delta":140570441},{"NoteNumber":62,"Velocity":28,"Duration":1166912,"SoundDuration":1166912,"Delta":140856837},{"NoteNumber":59,"Velocity":29,"Duration":286395,"SoundDuration":286395,"Delta":140856837},{"NoteNumber":57,"Velocity":29,"Duration":572792,"SoundDuration":572792,"Delta":141143233},{"NoteNumber":54,"Velocity":29,"Duration":307724,"SoundDuration":307724,"Delta":141716025},{"NoteNumber":71,"Velocity":35,"Duration":292740,"SoundDuration":292740,"Delta":142023749},{"NoteNumber":59,"Velocity":26,"Duration":1111389,"SoundDuration":1111389,"Delta":142023749},{"NoteNumber":62,"Velocity":26,"Duration":1111389,"SoundDuration":1111389,"Delta":142023749},{"NoteNumber":43,"Velocity":23,"Duration":554223,"SoundDuration":554223,"Delta":142023749},{"NoteNumber":50,"Velocity":23,"Duration":554223,"SoundDuration":554223,"Delta":142023749},{"NoteNumber":69,"Velocity":36,"Duration":537117,"SoundDuration":537117,"Delta":142316489},{"NoteNumber":74,"Velocity":34,"Duration":557165,"SoundDuration":557165,"Delta":142577973},{"NoteNumber":67,"Velocity":34,"Duration":281531,"SoundDuration":281531,"Delta":142853607},{"NoteNumber":59,"Velocity":26,"Duration":286395,"SoundDuration":286395,"Delta":143135138},{"NoteNumber":62,"Velocity":26,"Duration":1111129,"SoundDuration":1111129,"Delta":143135138},{"NoteNumber":66,"Velocity":36,"Duration":1111129,"SoundDuration":1111129,"Delta":143135138},{"NoteNumber":59,"Velocity":29,"Duration":1111129,"SoundDuration":1111129,"Delta":143135138},{"NoteNumber":43,"Velocity":26,"Duration":1111129,"SoundDuration":1111129,"Delta":143135138},{"NoteNumber":50,"Velocity":26,"Duration":1111129,"SoundDuration":1111129,"Delta":143135138},{"NoteNumber":57,"Velocity":35,"Duration":553607,"SoundDuration":553607,"Delta":143421534},{"NoteNumber":55,"Velocity":31,"Duration":271125,"SoundDuration":271125,"Delta":143975142},{"NoteNumber":69,"Velocity":36,"Duration":281531,"SoundDuration":281531,"Delta":144246267},{"NoteNumber":57,"Velocity":26,"Duration":1078217,"SoundDuration":1078217,"Delta":144246267},{"NoteNumber":60,"Velocity":26,"Duration":1078217,"SoundDuration":1078217,"Delta":144246267},{"NoteNumber":43,"Velocity":22,"Duration":542518,"SoundDuration":542518,"Delta":144246267},{"NoteNumber":50,"Velocity":22,"Duration":542518,"SoundDuration":542518,"Delta":144246267},{"NoteNumber":54,"Velocity":22,"Duration":542518,"SoundDuration":542518,"Delta":144246267},{"NoteNumber":67,"Velocity":38,"Duration":527748,"SoundDuration":527748,"Delta":144527799},{"NoteNumber":74,"Velocity":35,"Duration":535699,"SoundDuration":535699,"Delta":144788786},{"NoteNumber":66,"Velocity":35,"Duration":268937,"SoundDuration":268937,"Delta":145055547},{"NoteNumber":57,"Velocity":26,"Duration":277983,"SoundDuration":277983,"Delta":145324485},{"NoteNumber":60,"Velocity":26,"Duration":1073687,"SoundDuration":1073687,"Delta":145324485},{"NoteNumber":64,"Velocity":36,"Duration":1073687,"SoundDuration":1073687,"Delta":145324485},{"NoteNumber":57,"Velocity":29,"Duration":1073687,"SoundDuration":1073687,"Delta":145324485},{"NoteNumber":43,"Velocity":26,"Duration":1073687,"SoundDuration":1073687,"Delta":145324485},{"NoteNumber":50,"Velocity":26,"Duration":1073687,"SoundDuration":1073687,"Delta":145324485},{"NoteNumber":55,"Velocity":36,"Duration":533190,"SoundDuration":533190,"Delta":145602468},{"NoteNumber":54,"Velocity":31,"Duration":262513,"SoundDuration":262513,"Delta":146135659},{"NoteNumber":67,"Velocity":37,"Duration":273373,"SoundDuration":273373,"Delta":146398172},{"NoteNumber":55,"Velocity":27,"Duration":1056873,"SoundDuration":1056873,"Delta":146398172},{"NoteNumber":59,"Velocity":27,"Duration":1056873,"SoundDuration":1056873,"Delta":146398172},{"NoteNumber":52,"Velocity":22,"Duration":531815,"SoundDuration":531815,"Delta":146398172},{"NoteNumber":43,"Velocity":22,"Duration":531815,"SoundDuration":531815,"Delta":146398172},{"NoteNumber":50,"Velocity":22,"Duration":531815,"SoundDuration":531815,"Delta":146398172},{"NoteNumber":66,"Velocity":38,"Duration":522016,"SoundDuration":522016,"Delta":146671546},{"NoteNumber":74,"Velocity":34,"Duration":394315,"SoundDuration":394315,"Delta":146929988},{"NoteNumber":64,"Velocity":35,"Duration":261483,"SoundDuration":261483,"Delta":147193562},{"NoteNumber":40,"Velocity":30,"Duration":1202388,"SoundDuration":1202388,"Delta":147324304},{"NoteNumber":55,"Velocity":27,"Duration":273373,"SoundDuration":273373,"Delta":147455046},{"NoteNumber":62,"Velocity":27,"Duration":1071646,"SoundDuration":1071646,"Delta":147455046},{"NoteNumber":67,"Velocity":27,"Duration":1071646,"SoundDuration":1071646,"Delta":147455046},{"NoteNumber":55,"Velocity":34,"Duration":1071646,"SoundDuration":1071646,"Delta":147455046},{"NoteNumber":54,"Velocity":36,"Duration":527148,"SoundDuration":527148,"Delta":147728419},{"NoteNumber":52,"Velocity":31,"Duration":271125,"SoundDuration":271125,"Delta":148255567},{"NoteNumber":66,"Velocity":37,"Duration":281531,"SoundDuration":281531,"Delta":148526692},{"NoteNumber":55,"Velocity":36,"Duration":1083149,"SoundDuration":1083149,"Delta":148526692},{"NoteNumber":61,"Velocity":36,"Duration":1083149,"SoundDuration":1083149,"Delta":148526692},{"NoteNumber":33,"Velocity":36,"Duration":543014,"SoundDuration":543014,"Delta":148526692},{"NoteNumber":45,"Velocity":36,"Duration":543014,"SoundDuration":543014,"Delta":148526692},{"NoteNumber":64,"Velocity":38,"Duration":528244,"SoundDuration":528244,"Delta":148808224},{"NoteNumber":69,"Velocity":36,"Duration":540134,"SoundDuration":540134,"Delta":149069707},{"NoteNumber":66,"Velocity":35,"Duration":273373,"SoundDuration":273373,"Delta":149336469},{"NoteNumber":54,"Velocity":36,"Duration":1197133,"SoundDuration":1197133,"Delta":149609842},{"NoteNumber":62,"Velocity":36,"Duration":877542,"SoundDuration":877542,"Delta":149609842},{"NoteNumber":38,"Velocity":42,"Duration":273373,"SoundDuration":273373,"Delta":149609842},{"NoteNumber":45,"Velocity":42,"Duration":273373,"SoundDuration":273373,"Delta":149609842},{"NoteNumber":62,"Velocity":46,"Duration":923760,"SoundDuration":923760,"Delta":149883216},{"NoteNumber":50,"Velocity":46,"Duration":604169,"SoundDuration":604169,"Delta":149883216},{"NoteNumber":49,"Velocity":46,"Duration":319591,"SoundDuration":319591,"Delta":150487385},{"NoteNumber":61,"Velocity":46,"Duration":319591,"SoundDuration":319591,"Delta":150487385},{"NoteNumber":64,"Velocity":35,"Duration":1094190,"SoundDuration":1094190,"Delta":150806976},{"NoteNumber":71,"Velocity":35,"Duration":1094190,"SoundDuration":1094190,"Delta":150806976},{"NoteNumber":76,"Velocity":47,"Duration":290163,"SoundDuration":290163,"Delta":150806976},{"NoteNumber":48,"Velocity":35,"Duration":550625,"SoundDuration":550625,"Delta":150806976},{"NoteNumber":55,"Velocity":35,"Duration":550625,"SoundDuration":550625,"Delta":150806976},{"NoteNumber":60,"Velocity":35,"Duration":550625,"SoundDuration":550625,"Delta":150806976},{"NoteNumber":74,"Velocity":46,"Duration":537265,"SoundDuration":537265,"Delta":151097139},{"NoteNumber":79,"Velocity":46,"Duration":543565,"SoundDuration":543565,"Delta":151357601},{"NoteNumber":72,"Velocity":36,"Duration":266761,"SoundDuration":266761,"Delta":151634405},{"NoteNumber":64,"Velocity":35,"Duration":288878,"SoundDuration":288878,"Delta":151901167},{"NoteNumber":67,"Velocity":35,"Duration":1111741,"SoundDuration":1111741,"Delta":151901167},{"NoteNumber":71,"Velocity":38,"Duration":1111741,"SoundDuration":1111741,"Delta":151901167},{"NoteNumber":55,"Velocity":22,"Duration":1111741,"SoundDuration":1111741,"Delta":151901167},{"NoteNumber":52,"Velocity":23,"Duration":288878,"SoundDuration":288878,"Delta":151901167},{"NoteNumber":64,"Velocity":23,"Duration":1111741,"SoundDuration":1111741,"Delta":151901167},{"NoteNumber":50,"Velocity":31,"Duration":558243,"SoundDuration":558243,"Delta":152190045},{"NoteNumber":62,"Velocity":31,"Duration":558243,"SoundDuration":558243,"Delta":152190045},{"NoteNumber":48,"Velocity":25,"Duration":264620,"SoundDuration":264620,"Delta":152748288},{"NoteNumber":60,"Velocity":25,"Duration":264620,"SoundDuration":264620,"Delta":152748288},{"NoteNumber":62,"Velocity":29,"Duration":1080932,"SoundDuration":1080932,"Delta":153012908},{"NoteNumber":69,"Velocity":29,"Duration":1080932,"SoundDuration":1080932,"Delta":153012908},{"NoteNumber":74,"Velocity":42,"Duration":280321,"SoundDuration":280321,"Delta":153012908},{"NoteNumber":47,"Velocity":27,"Duration":542834,"SoundDuration":542834,"Delta":153012908},{"NoteNumber":54,"Velocity":27,"Duration":542834,"SoundDuration":542834,"Delta":153012908},{"NoteNumber":59,"Velocity":27,"Duration":542834,"SoundDuration":542834,"Delta":153012908},{"NoteNumber":72,"Velocity":46,"Duration":537037,"SoundDuration":537037,"Delta":153293230},{"NoteNumber":78,"Velocity":46,"Duration":538098,"SoundDuration":538098,"Delta":153555743},{"NoteNumber":71,"Velocity":36,"Duration":263574,"SoundDuration":263574,"Delta":153830267},{"NoteNumber":62,"Velocity":31,"Duration":276803,"SoundDuration":276803,"Delta":154093841},{"NoteNumber":66,"Velocity":31,"Duration":1088052,"SoundDuration":1088052,"Delta":154093841},{"NoteNumber":69,"Velocity":38,"Duration":1088052,"SoundDuration":1088052,"Delta":154093841},{"NoteNumber":54,"Velocity":22,"Duration":1088052,"SoundDuration":1088052,"Delta":154093841},{"NoteNumber":50,"Velocity":23,"Duration":276803,"SoundDuration":276803,"Delta":154093841},{"NoteNumber":62,"Velocity":23,"Duration":1088052,"SoundDuration":1088052,"Delta":154093841},{"NoteNumber":48,"Velocity":31,"Duration":537875,"SoundDuration":537875,"Delta":154370645},{"NoteNumber":60,"Velocity":31,"Duration":537875,"SoundDuration":537875,"Delta":154370645},{"NoteNumber":47,"Velocity":25,"Duration":273373,"SoundDuration":273373,"Delta":154908520},{"NoteNumber":59,"Velocity":25,"Duration":273373,"SoundDuration":273373,"Delta":154908520},{"NoteNumber":60,"Velocity":29,"Duration":1148848,"SoundDuration":1148848,"Delta":155181893},{"NoteNumber":67,"Velocity":29,"Duration":1148848,"SoundDuration":1148848,"Delta":155181893},{"NoteNumber":72,"Velocity":44,"Duration":279121,"SoundDuration":279121,"Delta":155181893},{"NoteNumber":45,"Velocity":26,"Duration":548058,"SoundDuration":548058,"Delta":155181893},{"NoteNumber":52,"Velocity":26,"Duration":548058,"SoundDuration":548058,"Delta":155181893},{"NoteNumber":57,"Velocity":26,"Duration":548058,"SoundDuration":548058,"Delta":155181893},{"NoteNumber":71,"Velocity":46,"Duration":557815,"SoundDuration":557815,"Delta":155461015},{"NoteNumber":76,"Velocity":44,"Duration":426695,"SoundDuration":426695,"Delta":155729952},{"NoteNumber":69,"Velocity":39,"Duration":311911,"SoundDuration":311911,"Delta":156018830},{"NoteNumber":33,"Velocity":56,"Duration":1383670,"SoundDuration":1383670,"Delta":156156647},{"NoteNumber":78,"Velocity":51,"Duration":708845,"SoundDuration":708845,"Delta":156330742},{"NoteNumber":67,"Velocity":28,"Duration":1209575,"SoundDuration":1209575,"Delta":156330742},{"NoteNumber":72,"Velocity":28,"Duration":1209575,"SoundDuration":1209575,"Delta":156330742},{"NoteNumber":60,"Velocity":55,"Duration":290163,"SoundDuration":290163,"Delta":156330742},{"NoteNumber":59,"Velocity":42,"Duration":569724,"SoundDuration":569724,"Delta":156620906},{"NoteNumber":81,"Velocity":46,"Duration":151042,"SoundDuration":151042,"Delta":157039588},{"NoteNumber":79,"Velocity":36,"Duration":114259,"SoundDuration":114259,"Delta":157190630},{"NoteNumber":57,"Velocity":37,"Duration":349687,"SoundDuration":349687,"Delta":157190630},{"NoteNumber":76,"Velocity":36,"Duration":114259,"SoundDuration":114259,"Delta":157304890},{"NoteNumber":72,"Velocity":36,"Duration":121168,"SoundDuration":121168,"Delta":157419150},{"NoteNumber":60,"Velocity":30,"Duration":1271255,"SoundDuration":1271255,"Delta":157540318},{"NoteNumber":66,"Velocity":30,"Duration":1271255,"SoundDuration":1271255,"Delta":157540318},{"NoteNumber":71,"Velocity":38,"Duration":316555,"SoundDuration":316555,"Delta":157540318},{"NoteNumber":38,"Velocity":35,"Duration":624279,"SoundDuration":624279,"Delta":157540318},{"NoteNumber":50,"Velocity":35,"Duration":624279,"SoundDuration":624279,"Delta":157540318},{"NoteNumber":69,"Velocity":40,"Duration":615447,"SoundDuration":615447,"Delta":157856874},{"NoteNumber":74,"Velocity":38,"Duration":646975,"SoundDuration":646975,"Delta":158164598},{"NoteNumber":71,"Velocity":34,"Duration":339251,"SoundDuration":339251,"Delta":158472322},{"NoteNumber":60,"Velocity":35,"Duration":361533,"SoundDuration":361533,"Delta":158811573},{"NoteNumber":67,"Velocity":26,"Duration":1419444,"SoundDuration":1419444,"Delta":158811573},{"NoteNumber":43,"Velocity":26,"Duration":1071255,"SoundDuration":1071255,"Delta":158811573},{"NoteNumber":50,"Velocity":26,"Duration":1071255,"SoundDuration":1071255,"Delta":158811573},{"NoteNumber":59,"Velocity":30,"Duration":709722,"SoundDuration":709722,"Delta":159173106},{"NoteNumber":54,"Velocity":27,"Duration":4792593,"SoundDuration":4792593,"Delta":159795781},{"NoteNumber":63,"Velocity":27,"Duration":4705546,"SoundDuration":4705546,"Delta":159882829},{"NoteNumber":66,"Velocity":27,"Duration":4618498,"SoundDuration":4618498,"Delta":159969876},{"NoteNumber":71,"Velocity":27,"Duration":1291693,"SoundDuration":1291693,"Delta":160056923},{"NoteNumber":75,"Velocity":27,"Duration":1204645,"SoundDuration":1204645,"Delta":160143971},{"NoteNumber":83,"Velocity":42,"Duration":295333,"SoundDuration":295333,"Delta":160231018},{"NoteNumber":82,"Velocity":45,"Duration":551267,"SoundDuration":551267,"Delta":160526352},{"NoteNumber":80,"Velocity":40,"Duration":130231,"SoundDuration":130231,"Delta":161077620},{"NoteNumber":71,"Velocity":27,"Duration":419887,"SoundDuration":419887,"Delta":161207851},{"NoteNumber":75,"Velocity":27,"Duration":1159291,"SoundDuration":1159291,"Delta":161278233},{"NoteNumber":82,"Velocity":42,"Duration":949917,"SoundDuration":949917,"Delta":161348616},{"NoteNumber":71,"Velocity":29,"Duration":1088909,"SoundDuration":1088909,"Delta":161348616},{"NoteNumber":70,"Velocity":29,"Duration":540053,"SoundDuration":540053,"Delta":161627738},{"NoteNumber":68,"Velocity":27,"Duration":269733,"SoundDuration":269733,"Delta":162167792},{"NoteNumber":71,"Velocity":27,"Duration":1219052,"SoundDuration":1219052,"Delta":162298534},{"NoteNumber":75,"Velocity":27,"Duration":1149556,"SoundDuration":1149556,"Delta":162368029},{"NoteNumber":82,"Velocity":42,"Duration":276803,"SoundDuration":276803,"Delta":162437525},{"NoteNumber":70,"Velocity":27,"Duration":1080060,"SoundDuration":1080060,"Delta":162437525},{"NoteNumber":80,"Velocity":45,"Duration":533523,"SoundDuration":533523,"Delta":162714329},{"NoteNumber":78,"Velocity":40,"Duration":130741,"SoundDuration":130741,"Delta":163247852},{"NoteNumber":71,"Velocity":27,"Duration":1209780,"SoundDuration":1209780,"Delta":163378594},{"NoteNumber":75,"Velocity":27,"Duration":1140284,"SoundDuration":1140284,"Delta":163448090},{"NoteNumber":80,"Velocity":42,"Duration":1070788,"SoundDuration":1070788,"Delta":163517586},{"NoteNumber":70,"Velocity":29,"Duration":276803,"SoundDuration":276803,"Delta":163517586},{"NoteNumber":68,"Velocity":29,"Duration":533523,"SoundDuration":533523,"Delta":163794390},{"NoteNumber":66,"Velocity":27,"Duration":260461,"SoundDuration":260461,"Delta":164327913},{"NoteNumber":72,"Velocity":29,"Duration":1064903,"SoundDuration":1064903,"Delta":164588375},{"NoteNumber":80,"Velocity":42,"Duration":274524,"SoundDuration":274524,"Delta":164588375},{"NoteNumber":63,"Velocity":29,"Duration":1064903,"SoundDuration":1064903,"Delta":164588375},{"NoteNumber":66,"Velocity":29,"Duration":1064903,"SoundDuration":1064903,"Delta":164588375},{"NoteNumber":79,"Velocity":47,"Duration":537875,"SoundDuration":537875,"Delta":164862899},{"NoteNumber":78,"Velocity":42,"Duration":252503,"SoundDuration":252503,"Delta":165400774},{"NoteNumber":73,"Velocity":37,"Duration":264127,"SoundDuration":264127,"Delta":165653278},{"NoteNumber":77,"Velocity":50,"Duration":512822,"SoundDuration":512822,"Delta":165653278},{"NoteNumber":61,"Velocity":34,"Duration":1031896,"SoundDuration":1031896,"Delta":165653278},{"NoteNumber":68,"Velocity":34,"Duration":1031896,"SoundDuration":1031896,"Delta":165653278},{"NoteNumber":72,"Velocity":39,"Duration":503147,"SoundDuration":503147,"Delta":165917406},{"NoteNumber":76,"Velocity":44,"Duration":519073,"SoundDuration":519073,"Delta":166166100},{"NoteNumber":71,"Velocity":35,"Duration":264620,"SoundDuration":264620,"Delta":166420553},{"NoteNumber":70,"Velocity":31,"Duration":1080257,"SoundDuration":1080257,"Delta":166685174},{"NoteNumber":75,"Velocity":38,"Duration":264620,"SoundDuration":264620,"Delta":166685174},{"NoteNumber":64,"Velocity":31,"Duration":1080257,"SoundDuration":1080257,"Delta":166685174},{"NoteNumber":54,"Velocity":31,"Duration":1080257,"SoundDuration":1080257,"Delta":166685174},{"NoteNumber":73,"Velocity":42,"Duration":529240,"SoundDuration":529240,"Delta":166949794},{"NoteNumber":75,"Velocity":42,"Duration":286395,"SoundDuration":286395,"Delta":167479035},{"NoteNumber":66,"Velocity":30,"Duration":833934,"SoundDuration":833934,"Delta":167765431},{"NoteNumber":71,"Velocity":30,"Duration":833934,"SoundDuration":833934,"Delta":167765431},{"NoteNumber":64,"Velocity":31,"Duration":286395,"SoundDuration":286395,"Delta":167765431},{"NoteNumber":59,"Velocity":25,"Duration":1222172,"SoundDuration":1222172,"Delta":167765431},{"NoteNumber":63,"Velocity":31,"Duration":547538,"SoundDuration":547538,"Delta":168051827},{"NoteNumber":50,"Velocity":23,"Duration":4745595,"SoundDuration":4745595,"Delta":168599365},{"NoteNumber":59,"Velocity":23,"Duration":4667947,"SoundDuration":4667947,"Delta":168677013},{"NoteNumber":62,"Velocity":23,"Duration":4590300,"SoundDuration":4590300,"Delta":168754661},{"NoteNumber":67,"Velocity":23,"Duration":1272893,"SoundDuration":1272893,"Delta":168832309},{"NoteNumber":71,"Velocity":23,"Duration":1195246,"SoundDuration":1195246,"Delta":168909956},{"NoteNumber":79,"Velocity":37,"Duration":295333,"SoundDuration":295333,"Delta":168987604},{"NoteNumber":78,"Velocity":39,"Duration":551267,"SoundDuration":551267,"Delta":169282938},{"NoteNumber":76,"Velocity":36,"Duration":130231,"SoundDuration":130231,"Delta":169834206},{"NoteNumber":67,"Velocity":23,"Duration":419887,"SoundDuration":419887,"Delta":169964437},{"NoteNumber":71,"Velocity":23,"Duration":1159291,"SoundDuration":1159291,"Delta":170034820},{"NoteNumber":78,"Velocity":38,"Duration":949917,"SoundDuration":949917,"Delta":170105202},{"NoteNumber":67,"Velocity":29,"Duration":1088909,"SoundDuration":1088909,"Delta":170105202},{"NoteNumber":66,"Velocity":29,"Duration":540053,"SoundDuration":540053,"Delta":170384324},{"NoteNumber":64,"Velocity":27,"Duration":269733,"SoundDuration":269733,"Delta":170924378},{"NoteNumber":67,"Velocity":23,"Duration":1219052,"SoundDuration":1219052,"Delta":171055120},{"NoteNumber":71,"Velocity":23,"Duration":1149556,"SoundDuration":1149556,"Delta":171124616},{"NoteNumber":78,"Velocity":37,"Duration":276803,"SoundDuration":276803,"Delta":171194111},{"NoteNumber":66,"Velocity":27,"Duration":1080060,"SoundDuration":1080060,"Delta":171194111},{"NoteNumber":76,"Velocity":39,"Duration":533523,"SoundDuration":533523,"Delta":171470915},{"NoteNumber":74,"Velocity":36,"Duration":130741,"SoundDuration":130741,"Delta":172004438},{"NoteNumber":67,"Velocity":23,"Duration":1209780,"SoundDuration":1209780,"Delta":172135180},{"NoteNumber":71,"Velocity":23,"Duration":1140284,"SoundDuration":1140284,"Delta":172204676},{"NoteNumber":76,"Velocity":38,"Duration":1070788,"SoundDuration":1070788,"Delta":172274172},{"NoteNumber":66,"Velocity":29,"Duration":276803,"SoundDuration":276803,"Delta":172274172},{"NoteNumber":64,"Velocity":29,"Duration":533523,"SoundDuration":533523,"Delta":172550976},{"NoteNumber":62,"Velocity":27,"Duration":260461,"SoundDuration":260461,"Delta":173084499},{"NoteNumber":68,"Velocity":27,"Duration":1064903,"SoundDuration":1064903,"Delta":173344961},{"NoteNumber":76,"Velocity":39,"Duration":274524,"SoundDuration":274524,"Delta":173344961},{"NoteNumber":59,"Velocity":27,"Duration":1064903,"SoundDuration":1064903,"Delta":173344961},{"NoteNumber":62,"Velocity":27,"Duration":1064903,"SoundDuration":1064903,"Delta":173344961},{"NoteNumber":75,"Velocity":45,"Duration":537875,"SoundDuration":537875,"Delta":173619485},{"NoteNumber":74,"Velocity":39,"Duration":252503,"SoundDuration":252503,"Delta":174157360},{"NoteNumber":69,"Velocity":35,"Duration":264620,"SoundDuration":264620,"Delta":174409864},{"NoteNumber":73,"Velocity":47,"Duration":513315,"SoundDuration":513315,"Delta":174409864},{"NoteNumber":57,"Velocity":30,"Duration":1031421,"SoundDuration":1031421,"Delta":174409864},{"NoteNumber":64,"Velocity":30,"Duration":1031421,"SoundDuration":1031421,"Delta":174409864},{"NoteNumber":68,"Velocity":37,"Duration":502180,"SoundDuration":502180,"Delta":174674484},{"NoteNumber":72,"Velocity":40,"Duration":518106,"SoundDuration":518106,"Delta":174923179},{"NoteNumber":67,"Velocity":31,"Duration":264620,"SoundDuration":264620,"Delta":175176664},{"NoteNumber":66,"Velocity":29,"Duration":1080257,"SoundDuration":1080257,"Delta":175441285},{"NoteNumber":71,"Velocity":36,"Duration":264620,"SoundDuration":264620,"Delta":175441285},{"NoteNumber":60,"Velocity":29,"Duration":1080257,"SoundDuration":1080257,"Delta":175441285},{"NoteNumber":50,"Velocity":29,"Duration":1080257,"SoundDuration":1080257,"Delta":175441285},{"NoteNumber":69,"Velocity":39,"Duration":529240,"SoundDuration":529240,"Delta":175705905},{"NoteNumber":66,"Velocity":39,"Duration":286395,"SoundDuration":286395,"Delta":176235146},{"NoteNumber":62,"Velocity":28,"Duration":1166912,"SoundDuration":1166912,"Delta":176521542},{"NoteNumber":59,"Velocity":29,"Duration":286395,"SoundDuration":286395,"Delta":176521542},{"NoteNumber":57,"Velocity":29,"Duration":572792,"SoundDuration":572792,"Delta":176807938},{"NoteNumber":54,"Velocity":29,"Duration":307724,"SoundDuration":307724,"Delta":177380730},{"NoteNumber":71,"Velocity":35,"Duration":292740,"SoundDuration":292740,"Delta":177688454},{"NoteNumber":59,"Velocity":26,"Duration":1111389,"SoundDuration":1111389,"Delta":177688454},{"NoteNumber":62,"Velocity":26,"Duration":1111389,"SoundDuration":1111389,"Delta":177688454},{"NoteNumber":43,"Velocity":23,"Duration":554223,"SoundDuration":554223,"Delta":177688454},{"NoteNumber":50,"Velocity":23,"Duration":554223,"SoundDuration":554223,"Delta":177688454},{"NoteNumber":69,"Velocity":36,"Duration":537117,"SoundDuration":537117,"Delta":177981194},{"NoteNumber":74,"Velocity":34,"Duration":557165,"SoundDuration":557165,"Delta":178242678},{"NoteNumber":67,"Velocity":34,"Duration":281531,"SoundDuration":281531,"Delta":178518312},{"NoteNumber":59,"Velocity":26,"Duration":285144,"SoundDuration":285144,"Delta":178799843},{"NoteNumber":62,"Velocity":26,"Duration":1109877,"SoundDuration":1109877,"Delta":178799843},{"NoteNumber":66,"Velocity":36,"Duration":1109877,"SoundDuration":1109877,"Delta":178799843},{"NoteNumber":59,"Velocity":29,"Duration":1109877,"SoundDuration":1109877,"Delta":178799843},{"NoteNumber":43,"Velocity":26,"Duration":1109877,"SoundDuration":1109877,"Delta":178799843},{"NoteNumber":50,"Velocity":26,"Duration":1109877,"SoundDuration":1109877,"Delta":178799843},{"NoteNumber":57,"Velocity":35,"Duration":553607,"SoundDuration":553607,"Delta":179084987},{"NoteNumber":55,"Velocity":31,"Duration":271125,"SoundDuration":271125,"Delta":179638595},{"NoteNumber":69,"Velocity":36,"Duration":281531,"SoundDuration":281531,"Delta":179909720},{"NoteNumber":57,"Velocity":26,"Duration":1078217,"SoundDuration":1078217,"Delta":179909720},{"NoteNumber":60,"Velocity":26,"Duration":1078217,"SoundDuration":1078217,"Delta":179909720},{"NoteNumber":43,"Velocity":22,"Duration":542518,"SoundDuration":542518,"Delta":179909720},{"NoteNumber":50,"Velocity":22,"Duration":542518,"SoundDuration":542518,"Delta":179909720},{"NoteNumber":54,"Velocity":22,"Duration":542518,"SoundDuration":542518,"Delta":179909720},{"NoteNumber":67,"Velocity":38,"Duration":527748,"SoundDuration":527748,"Delta":180191252},{"NoteNumber":74,"Velocity":35,"Duration":535699,"SoundDuration":535699,"Delta":180452239},{"NoteNumber":66,"Velocity":35,"Duration":268937,"SoundDuration":268937,"Delta":180719000},{"NoteNumber":57,"Velocity":26,"Duration":275633,"SoundDuration":275633,"Delta":180987938},{"NoteNumber":60,"Velocity":26,"Duration":1071337,"SoundDuration":1071337,"Delta":180987938},{"NoteNumber":64,"Velocity":37,"Duration":1071337,"SoundDuration":1071337,"Delta":180987938},{"NoteNumber":57,"Velocity":29,"Duration":1071337,"SoundDuration":1071337,"Delta":180987938},{"NoteNumber":43,"Velocity":26,"Duration":1071337,"SoundDuration":1071337,"Delta":180987938},{"NoteNumber":50,"Velocity":26,"Duration":1071337,"SoundDuration":1071337,"Delta":180987938},{"NoteNumber":55,"Velocity":36,"Duration":533190,"SoundDuration":533190,"Delta":181263572},{"NoteNumber":54,"Velocity":31,"Duration":262513,"SoundDuration":262513,"Delta":181796763},{"NoteNumber":67,"Velocity":37,"Duration":273373,"SoundDuration":273373,"Delta":182059276},{"NoteNumber":55,"Velocity":27,"Duration":1056873,"SoundDuration":1056873,"Delta":182059276},{"NoteNumber":59,"Velocity":27,"Duration":1056873,"SoundDuration":1056873,"Delta":182059276},{"NoteNumber":52,"Velocity":22,"Duration":531815,"SoundDuration":531815,"Delta":182059276},{"NoteNumber":43,"Velocity":22,"Duration":531815,"SoundDuration":531815,"Delta":182059276},{"NoteNumber":50,"Velocity":22,"Duration":531815,"SoundDuration":531815,"Delta":182059276},{"NoteNumber":66,"Velocity":38,"Duration":522016,"SoundDuration":522016,"Delta":182332649},{"NoteNumber":74,"Velocity":35,"Duration":394315,"SoundDuration":394315,"Delta":182591092},{"NoteNumber":64,"Velocity":35,"Duration":261483,"SoundDuration":261483,"Delta":182854666},{"NoteNumber":40,"Velocity":30,"Duration":1202388,"SoundDuration":1202388,"Delta":182985408},{"NoteNumber":55,"Velocity":27,"Duration":273373,"SoundDuration":273373,"Delta":183116149},{"NoteNumber":62,"Velocity":27,"Duration":1071646,"SoundDuration":1071646,"Delta":183116149},{"NoteNumber":67,"Velocity":27,"Duration":1071646,"SoundDuration":1071646,"Delta":183116149},{"NoteNumber":55,"Velocity":34,"Duration":1071646,"SoundDuration":1071646,"Delta":183116149},{"NoteNumber":54,"Velocity":36,"Duration":527148,"SoundDuration":527148,"Delta":183389523},{"NoteNumber":52,"Velocity":31,"Duration":271125,"SoundDuration":271125,"Delta":183916671},{"NoteNumber":66,"Velocity":37,"Duration":281531,"SoundDuration":281531,"Delta":184187796},{"NoteNumber":55,"Velocity":36,"Duration":1083149,"SoundDuration":1083149,"Delta":184187796},{"NoteNumber":61,"Velocity":36,"Duration":1083149,"SoundDuration":1083149,"Delta":184187796},{"NoteNumber":33,"Velocity":36,"Duration":543014,"SoundDuration":543014,"Delta":184187796},{"NoteNumber":45,"Velocity":36,"Duration":543014,"SoundDuration":543014,"Delta":184187796},{"NoteNumber":64,"Velocity":38,"Duration":528244,"SoundDuration":528244,"Delta":184469327},{"NoteNumber":69,"Velocity":36,"Duration":540134,"SoundDuration":540134,"Delta":184730811},{"NoteNumber":66,"Velocity":35,"Duration":273373,"SoundDuration":273373,"Delta":184997572},{"NoteNumber":54,"Velocity":36,"Duration":1197133,"SoundDuration":1197133,"Delta":185270946},{"NoteNumber":62,"Velocity":36,"Duration":877542,"SoundDuration":877542,"Delta":185270946},{"NoteNumber":38,"Velocity":42,"Duration":273373,"SoundDuration":273373,"Delta":185270946},{"NoteNumber":45,"Velocity":42,"Duration":273373,"SoundDuration":273373,"Delta":185270946},{"NoteNumber":62,"Velocity":46,"Duration":923760,"SoundDuration":923760,"Delta":185544319},{"NoteNumber":50,"Velocity":46,"Duration":604169,"SoundDuration":604169,"Delta":185544319},{"NoteNumber":49,"Velocity":46,"Duration":319591,"SoundDuration":319591,"Delta":186148488},{"NoteNumber":61,"Velocity":46,"Duration":319591,"SoundDuration":319591,"Delta":186148488},{"NoteNumber":64,"Velocity":35,"Duration":1094190,"SoundDuration":1094190,"Delta":186468079},{"NoteNumber":71,"Velocity":35,"Duration":1094190,"SoundDuration":1094190,"Delta":186468079},{"NoteNumber":76,"Velocity":47,"Duration":290163,"SoundDuration":290163,"Delta":186468079},{"NoteNumber":48,"Velocity":35,"Duration":550625,"SoundDuration":550625,"Delta":186468079},{"NoteNumber":55,"Velocity":35,"Duration":550625,"SoundDuration":550625,"Delta":186468079},{"NoteNumber":60,"Velocity":35,"Duration":550625,"SoundDuration":550625,"Delta":186468079},{"NoteNumber":74,"Velocity":46,"Duration":537265,"SoundDuration":537265,"Delta":186758243},{"NoteNumber":79,"Velocity":47,"Duration":543565,"SoundDuration":543565,"Delta":187018705},{"NoteNumber":72,"Velocity":36,"Duration":266761,"SoundDuration":266761,"Delta":187295509},{"NoteNumber":64,"Velocity":35,"Duration":288878,"SoundDuration":288878,"Delta":187562270},{"NoteNumber":67,"Velocity":35,"Duration":1111741,"SoundDuration":1111741,"Delta":187562270},{"NoteNumber":71,"Velocity":38,"Duration":1111741,"SoundDuration":1111741,"Delta":187562270},{"NoteNumber":55,"Velocity":22,"Duration":1111741,"SoundDuration":1111741,"Delta":187562270},{"NoteNumber":52,"Velocity":23,"Duration":288878,"SoundDuration":288878,"Delta":187562270},{"NoteNumber":64,"Velocity":23,"Duration":1111741,"SoundDuration":1111741,"Delta":187562270},{"NoteNumber":50,"Velocity":31,"Duration":558243,"SoundDuration":558243,"Delta":187851148},{"NoteNumber":62,"Velocity":31,"Duration":558243,"SoundDuration":558243,"Delta":187851148},{"NoteNumber":48,"Velocity":25,"Duration":264620,"SoundDuration":264620,"Delta":188409391},{"NoteNumber":60,"Velocity":25,"Duration":264620,"SoundDuration":264620,"Delta":188409391},{"NoteNumber":62,"Velocity":29,"Duration":1080932,"SoundDuration":1080932,"Delta":188674012},{"NoteNumber":69,"Velocity":29,"Duration":1080932,"SoundDuration":1080932,"Delta":188674012},{"NoteNumber":74,"Velocity":42,"Duration":280321,"SoundDuration":280321,"Delta":188674012},{"NoteNumber":47,"Velocity":27,"Duration":542834,"SoundDuration":542834,"Delta":188674012},{"NoteNumber":54,"Velocity":27,"Duration":542834,"SoundDuration":542834,"Delta":188674012},{"NoteNumber":59,"Velocity":27,"Duration":542834,"SoundDuration":542834,"Delta":188674012},{"NoteNumber":72,"Velocity":46,"Duration":537037,"SoundDuration":537037,"Delta":188954333},{"NoteNumber":78,"Velocity":46,"Duration":538098,"SoundDuration":538098,"Delta":189216846},{"NoteNumber":71,"Velocity":36,"Duration":263574,"SoundDuration":263574,"Delta":189491370},{"NoteNumber":62,"Velocity":31,"Duration":276803,"SoundDuration":276803,"Delta":189754944},{"NoteNumber":66,"Velocity":31,"Duration":1088052,"SoundDuration":1088052,"Delta":189754944},{"NoteNumber":69,"Velocity":38,"Duration":1088052,"SoundDuration":1088052,"Delta":189754944},{"NoteNumber":54,"Velocity":22,"Duration":1088052,"SoundDuration":1088052,"Delta":189754944},{"NoteNumber":50,"Velocity":23,"Duration":276803,"SoundDuration":276803,"Delta":189754944},{"NoteNumber":62,"Velocity":23,"Duration":1088052,"SoundDuration":1088052,"Delta":189754944},{"NoteNumber":48,"Velocity":31,"Duration":537875,"SoundDuration":537875,"Delta":190031748},{"NoteNumber":60,"Velocity":31,"Duration":537875,"SoundDuration":537875,"Delta":190031748},{"NoteNumber":47,"Velocity":25,"Duration":273373,"SoundDuration":273373,"Delta":190569623},{"NoteNumber":59,"Velocity":25,"Duration":273373,"SoundDuration":273373,"Delta":190569623},{"NoteNumber":60,"Velocity":29,"Duration":1148848,"SoundDuration":1148848,"Delta":190842997},{"NoteNumber":67,"Velocity":29,"Duration":1148848,"SoundDuration":1148848,"Delta":190842997},{"NoteNumber":72,"Velocity":44,"Duration":279121,"SoundDuration":279121,"Delta":190842997},{"NoteNumber":45,"Velocity":26,"Duration":548058,"SoundDuration":548058,"Delta":190842997},{"NoteNumber":52,"Velocity":26,"Duration":548058,"SoundDuration":548058,"Delta":190842997},{"NoteNumber":57,"Velocity":26,"Duration":548058,"SoundDuration":548058,"Delta":190842997},{"NoteNumber":71,"Velocity":46,"Duration":557815,"SoundDuration":557815,"Delta":191122118},{"NoteNumber":76,"Velocity":42,"Duration":426695,"SoundDuration":426695,"Delta":191391056},{"NoteNumber":69,"Velocity":39,"Duration":311911,"SoundDuration":311911,"Delta":191679934},{"NoteNumber":33,"Velocity":56,"Duration":1383670,"SoundDuration":1383670,"Delta":191817751},{"NoteNumber":78,"Velocity":51,"Duration":708845,"SoundDuration":708845,"Delta":191991846},{"NoteNumber":67,"Velocity":28,"Duration":1209575,"SoundDuration":1209575,"Delta":191991846},{"NoteNumber":72,"Velocity":28,"Duration":1209575,"SoundDuration":1209575,"Delta":191991846},{"NoteNumber":60,"Velocity":55,"Duration":290163,"SoundDuration":290163,"Delta":191991846},{"NoteNumber":59,"Velocity":42,"Duration":569724,"SoundDuration":569724,"Delta":192282009},{"NoteNumber":81,"Velocity":46,"Duration":151042,"SoundDuration":151042,"Delta":192700691},{"NoteNumber":79,"Velocity":36,"Duration":114259,"SoundDuration":114259,"Delta":192851734},{"NoteNumber":57,"Velocity":37,"Duration":349687,"SoundDuration":349687,"Delta":192851734},{"NoteNumber":76,"Velocity":36,"Duration":114259,"SoundDuration":114259,"Delta":192965993},{"NoteNumber":72,"Velocity":36,"Duration":121168,"SoundDuration":121168,"Delta":193080253},{"NoteNumber":60,"Velocity":30,"Duration":1271255,"SoundDuration":1271255,"Delta":193201421},{"NoteNumber":66,"Velocity":30,"Duration":1271255,"SoundDuration":1271255,"Delta":193201421},{"NoteNumber":71,"Velocity":38,"Duration":316555,"SoundDuration":316555,"Delta":193201421},{"NoteNumber":38,"Velocity":35,"Duration":624279,"SoundDuration":624279,"Delta":193201421},{"NoteNumber":50,"Velocity":35,"Duration":624279,"SoundDuration":624279,"Delta":193201421},{"NoteNumber":69,"Velocity":40,"Duration":615447,"SoundDuration":615447,"Delta":193517977},{"NoteNumber":74,"Velocity":35,"Duration":646975,"SoundDuration":646975,"Delta":193825701},{"NoteNumber":71,"Velocity":34,"Duration":339251,"SoundDuration":339251,"Delta":194133425},{"NoteNumber":60,"Velocity":35,"Duration":361533,"SoundDuration":361533,"Delta":194472676},{"NoteNumber":67,"Velocity":26,"Duration":1576793,"SoundDuration":1576793,"Delta":194472676},{"NoteNumber":43,"Velocity":26,"Duration":1149929,"SoundDuration":1149929,"Delta":194472676},{"NoteNumber":50,"Velocity":26,"Duration":1149929,"SoundDuration":1149929,"Delta":194472676},{"NoteNumber":59,"Velocity":30,"Duration":788396,"SoundDuration":788396,"Delta":194834209},{"NoteNumber":38,"Velocity":36,"Duration":259291,"SoundDuration":259291,"Delta":196049470},{"NoteNumber":45,"Velocity":36,"Duration":259291,"SoundDuration":259291,"Delta":196049470},{"NoteNumber":50,"Velocity":31,"Duration":254064,"SoundDuration":254064,"Delta":196568053},{"NoteNumber":57,"Velocity":31,"Duration":254064,"SoundDuration":254064,"Delta":196568053},{"NoteNumber":50,"Velocity":31,"Duration":254064,"SoundDuration":254064,"Delta":196822118},{"NoteNumber":57,"Velocity":31,"Duration":254064,"SoundDuration":254064,"Delta":196822118},{"NoteNumber":50,"Velocity":36,"Duration":254064,"SoundDuration":254064,"Delta":197076183},{"NoteNumber":57,"Velocity":36,"Duration":254064,"SoundDuration":254064,"Delta":197076183},{"NoteNumber":38,"Velocity":31,"Duration":237755,"SoundDuration":237755,"Delta":197584313},{"NoteNumber":45,"Velocity":31,"Duration":237755,"SoundDuration":237755,"Delta":197584313},{"NoteNumber":38,"Velocity":31,"Duration":237755,"SoundDuration":237755,"Delta":197822069},{"NoteNumber":45,"Velocity":31,"Duration":237755,"SoundDuration":237755,"Delta":197822069},{"NoteNumber":38,"Velocity":36,"Duration":237755,"SoundDuration":237755,"Delta":198059824},{"NoteNumber":45,"Velocity":36,"Duration":237755,"SoundDuration":237755,"Delta":198059824},{"NoteNumber":50,"Velocity":31,"Duration":237755,"SoundDuration":237755,"Delta":198535335},{"NoteNumber":57,"Velocity":31,"Duration":237755,"SoundDuration":237755,"Delta":198535335},{"NoteNumber":50,"Velocity":31,"Duration":237755,"SoundDuration":237755,"Delta":198773091},{"NoteNumber":57,"Velocity":31,"Duration":237755,"SoundDuration":237755,"Delta":198773091},{"NoteNumber":50,"Velocity":35,"Duration":239559,"SoundDuration":239559,"Delta":199010846},{"NoteNumber":57,"Velocity":35,"Duration":239559,"SoundDuration":239559,"Delta":199010846},{"NoteNumber":38,"Velocity":31,"Duration":239559,"SoundDuration":239559,"Delta":199489964},{"NoteNumber":45,"Velocity":31,"Duration":239559,"SoundDuration":239559,"Delta":199489964},{"NoteNumber":69,"Velocity":39,"Duration":79251,"SoundDuration":79251,"Delta":199729523},{"NoteNumber":38,"Velocity":31,"Duration":237755,"SoundDuration":237755,"Delta":199729523},{"NoteNumber":45,"Velocity":31,"Duration":237755,"SoundDuration":237755,"Delta":199729523},{"NoteNumber":71,"Velocity":39,"Duration":79251,"SoundDuration":79251,"Delta":199808775},{"NoteNumber":69,"Velocity":41,"Duration":79251,"SoundDuration":79251,"Delta":199888027},{"NoteNumber":66,"Velocity":44,"Duration":475511,"SoundDuration":475511,"Delta":199967279},{"NoteNumber":38,"Velocity":35,"Duration":237755,"SoundDuration":237755,"Delta":199967279},{"NoteNumber":45,"Velocity":35,"Duration":237755,"SoundDuration":237755,"Delta":199967279},{"NoteNumber":69,"Velocity":44,"Duration":237755,"SoundDuration":237755,"Delta":200205034},{"NoteNumber":74,"Velocity":45,"Duration":58557,"SoundDuration":58557,"Delta":200442790},{"NoteNumber":66,"Velocity":42,"Duration":58557,"SoundDuration":58557,"Delta":200442790},{"NoteNumber":50,"Velocity":31,"Duration":58557,"SoundDuration":58557,"Delta":200442790},{"NoteNumber":57,"Velocity":31,"Duration":58557,"SoundDuration":58557,"Delta":200442790},{"NoteNumber":78,"Velocity":42,"Duration":59665,"SoundDuration":59665,"Delta":200677018},{"NoteNumber":66,"Velocity":45,"Duration":59665,"SoundDuration":59665,"Delta":200677018},{"NoteNumber":50,"Velocity":31,"Duration":59665,"SoundDuration":59665,"Delta":200677018},{"NoteNumber":57,"Velocity":31,"Duration":59665,"SoundDuration":59665,"Delta":200677018},{"NoteNumber":76,"Velocity":45,"Duration":237755,"SoundDuration":237755,"Delta":200915682},{"NoteNumber":66,"Velocity":37,"Duration":475510,"SoundDuration":475510,"Delta":200915682},{"NoteNumber":57,"Velocity":35,"Duration":237755,"SoundDuration":237755,"Delta":200915682},{"NoteNumber":50,"Velocity":35,"Duration":237755,"SoundDuration":237755,"Delta":200915682},{"NoteNumber":74,"Velocity":42,"Duration":237755,"SoundDuration":237755,"Delta":201153437},{"NoteNumber":66,"Velocity":42,"Duration":59438,"SoundDuration":59438,"Delta":201391193},{"NoteNumber":38,"Velocity":31,"Duration":59438,"SoundDuration":59438,"Delta":201391193},{"NoteNumber":45,"Velocity":31,"Duration":59438,"SoundDuration":59438,"Delta":201391193},{"NoteNumber":69,"Velocity":41,"Duration":59438,"SoundDuration":59438,"Delta":201628948},{"NoteNumber":66,"Velocity":41,"Duration":59438,"SoundDuration":59438,"Delta":201628948},{"NoteNumber":38,"Velocity":31,"Duration":59438,"SoundDuration":59438,"Delta":201628948},{"NoteNumber":45,"Velocity":31,"Duration":59438,"SoundDuration":59438,"Delta":201628948},{"NoteNumber":71,"Velocity":45,"Duration":237755,"SoundDuration":237755,"Delta":201866704},{"NoteNumber":69,"Velocity":45,"Duration":237755,"SoundDuration":237755,"Delta":201866704},{"NoteNumber":66,"Velocity":45,"Duration":237755,"SoundDuration":237755,"Delta":201866704},{"NoteNumber":38,"Velocity":35,"Duration":475510,"SoundDuration":475510,"Delta":201866704},{"NoteNumber":45,"Velocity":35,"Duration":475510,"SoundDuration":475510,"Delta":201866704},{"NoteNumber":71,"Velocity":41,"Duration":237755,"SoundDuration":237755,"Delta":202342215},{"NoteNumber":69,"Velocity":41,"Duration":237755,"SoundDuration":237755,"Delta":202342215},{"NoteNumber":66,"Velocity":41,"Duration":237755,"SoundDuration":237755,"Delta":202342215},{"NoteNumber":50,"Velocity":33,"Duration":237755,"SoundDuration":237755,"Delta":202342215},{"NoteNumber":57,"Velocity":33,"Duration":237755,"SoundDuration":237755,"Delta":202342215},{"NoteNumber":71,"Velocity":41,"Duration":118877,"SoundDuration":118877,"Delta":202698848},{"NoteNumber":69,"Velocity":41,"Duration":118877,"SoundDuration":118877,"Delta":202698848},{"NoteNumber":66,"Velocity":41,"Duration":118877,"SoundDuration":118877,"Delta":202698848},{"NoteNumber":50,"Velocity":33,"Duration":118877,"SoundDuration":118877,"Delta":202698848},{"NoteNumber":57,"Velocity":33,"Duration":118877,"SoundDuration":118877,"Delta":202698848},{"NoteNumber":71,"Velocity":41,"Duration":475638,"SoundDuration":475638,"Delta":202817726},{"NoteNumber":69,"Velocity":41,"Duration":475638,"SoundDuration":475638,"Delta":202817726},{"NoteNumber":66,"Velocity":41,"Duration":475638,"SoundDuration":475638,"Delta":202817726},{"NoteNumber":50,"Velocity":33,"Duration":475638,"SoundDuration":475638,"Delta":202817726},{"NoteNumber":57,"Velocity":33,"Duration":475638,"SoundDuration":475638,"Delta":202817726},{"NoteNumber":62,"Velocity":42,"Duration":58121,"SoundDuration":58121,"Delta":203293364},{"NoteNumber":66,"Velocity":42,"Duration":58121,"SoundDuration":58121,"Delta":203293364},{"NoteNumber":62,"Velocity":42,"Duration":58121,"SoundDuration":58121,"Delta":203525850},{"NoteNumber":68,"Velocity":42,"Duration":58121,"SoundDuration":58121,"Delta":203525850},{"NoteNumber":66,"Velocity":42,"Duration":58121,"SoundDuration":58121,"Delta":203525850},{"NoteNumber":62,"Velocity":45,"Duration":462616,"SoundDuration":462616,"Delta":203758336},{"NoteNumber":66,"Velocity":45,"Duration":462616,"SoundDuration":462616,"Delta":203758336},{"NoteNumber":69,"Velocity":45,"Duration":235978,"SoundDuration":235978,"Delta":203758336},{"NoteNumber":35,"Velocity":34,"Duration":462616,"SoundDuration":462616,"Delta":203758336},{"NoteNumber":42,"Velocity":34,"Duration":462616,"SoundDuration":462616,"Delta":203758336},{"NoteNumber":71,"Velocity":42,"Duration":226637,"SoundDuration":226637,"Delta":203994315},{"NoteNumber":66,"Velocity":44,"Duration":58121,"SoundDuration":58121,"Delta":204220953},{"NoteNumber":62,"Velocity":44,"Duration":58121,"SoundDuration":58121,"Delta":204220953},{"NoteNumber":47,"Velocity":31,"Duration":58121,"SoundDuration":58121,"Delta":204220953},{"NoteNumber":54,"Velocity":31,"Duration":58121,"SoundDuration":58121,"Delta":204220953},{"NoteNumber":68,"Velocity":44,"Duration":58121,"SoundDuration":58121,"Delta":204453439},{"NoteNumber":66,"Velocity":44,"Duration":58121,"SoundDuration":58121,"Delta":204453439},{"NoteNumber":62,"Velocity":44,"Duration":58121,"SoundDuration":58121,"Delta":204453439},{"NoteNumber":47,"Velocity":31,"Duration":58121,"SoundDuration":58121,"Delta":204453439},{"NoteNumber":54,"Velocity":31,"Duration":58121,"SoundDuration":58121,"Delta":204453439},{"NoteNumber":69,"Velocity":45,"Duration":234228,"SoundDuration":234228,"Delta":204685925},{"NoteNumber":62,"Velocity":45,"Duration":460866,"SoundDuration":460866,"Delta":204685925},{"NoteNumber":66,"Velocity":45,"Duration":460866,"SoundDuration":460866,"Delta":204685925},{"NoteNumber":40,"Velocity":34,"Duration":460866,"SoundDuration":460866,"Delta":204685925},{"NoteNumber":47,"Velocity":34,"Duration":460866,"SoundDuration":460866,"Delta":204685925},{"NoteNumber":71,"Velocity":42,"Duration":226637,"SoundDuration":226637,"Delta":204920153},{"NoteNumber":62,"Velocity":44,"Duration":57069,"SoundDuration":57069,"Delta":205146791},{"NoteNumber":66,"Velocity":44,"Duration":57069,"SoundDuration":57069,"Delta":205146791},{"NoteNumber":52,"Velocity":31,"Duration":57069,"SoundDuration":57069,"Delta":205146791},{"NoteNumber":59,"Velocity":31,"Duration":57069,"SoundDuration":57069,"Delta":205146791},{"NoteNumber":68,"Velocity":44,"Duration":57069,"SoundDuration":57069,"Delta":205375067},{"NoteNumber":62,"Velocity":44,"Duration":57069,"SoundDuration":57069,"Delta":205375067},{"NoteNumber":66,"Velocity":44,"Duration":57069,"SoundDuration":57069,"Delta":205375067},{"NoteNumber":52,"Velocity":31,"Duration":57069,"SoundDuration":57069,"Delta":205375067},{"NoteNumber":59,"Velocity":31,"Duration":57069,"SoundDuration":57069,"Delta":205375067},{"NoteNumber":62,"Velocity":47,"Duration":229955,"SoundDuration":229955,"Delta":205603343},{"NoteNumber":64,"Velocity":47,"Duration":229955,"SoundDuration":229955,"Delta":205603343},{"NoteNumber":69,"Velocity":47,"Duration":229955,"SoundDuration":229955,"Delta":205603343},{"NoteNumber":33,"Velocity":35,"Duration":459911,"SoundDuration":459911,"Delta":205603343},{"NoteNumber":40,"Velocity":35,"Duration":459911,"SoundDuration":459911,"Delta":205603343},{"NoteNumber":61,"Velocity":42,"Duration":233353,"SoundDuration":233353,"Delta":206063254},{"NoteNumber":69,"Velocity":42,"Duration":233353,"SoundDuration":233353,"Delta":206063254},{"NoteNumber":64,"Velocity":33,"Duration":233353,"SoundDuration":233353,"Delta":206063254},{"NoteNumber":57,"Velocity":33,"Duration":233353,"SoundDuration":233353,"Delta":206063254},{"NoteNumber":61,"Velocity":42,"Duration":116677,"SoundDuration":116677,"Delta":206413285},{"NoteNumber":69,"Velocity":42,"Duration":116677,"SoundDuration":116677,"Delta":206413285},{"NoteNumber":64,"Velocity":33,"Duration":116677,"SoundDuration":116677,"Delta":206413285},{"NoteNumber":57,"Velocity":33,"Duration":116677,"SoundDuration":116677,"Delta":206413285},{"NoteNumber":61,"Velocity":42,"Duration":233353,"SoundDuration":233353,"Delta":206529962},{"NoteNumber":69,"Velocity":42,"Duration":233353,"SoundDuration":233353,"Delta":206529962},{"NoteNumber":64,"Velocity":33,"Duration":233353,"SoundDuration":233353,"Delta":206529962},{"NoteNumber":57,"Velocity":33,"Duration":233353,"SoundDuration":233353,"Delta":206529962},{"NoteNumber":73,"Velocity":44,"Duration":76651,"SoundDuration":76651,"Delta":207226625},{"NoteNumber":74,"Velocity":44,"Duration":76651,"SoundDuration":76651,"Delta":207303277},{"NoteNumber":73,"Velocity":44,"Duration":76651,"SoundDuration":76651,"Delta":207379929},{"NoteNumber":71,"Velocity":47,"Duration":459911,"SoundDuration":459911,"Delta":207456581},{"NoteNumber":43,"Velocity":39,"Duration":459911,"SoundDuration":459911,"Delta":207456581},{"NoteNumber":50,"Velocity":39,"Duration":459911,"SoundDuration":459911,"Delta":207456581},{"NoteNumber":74,"Velocity":47,"Duration":229955,"SoundDuration":229955,"Delta":207686536},{"NoteNumber":79,"Velocity":49,"Duration":58772,"SoundDuration":58772,"Delta":207916492},{"NoteNumber":71,"Velocity":49,"Duration":58772,"SoundDuration":58772,"Delta":207916492},{"NoteNumber":62,"Velocity":38,"Duration":58772,"SoundDuration":58772,"Delta":207916492},{"NoteNumber":55,"Velocity":38,"Duration":58772,"SoundDuration":58772,"Delta":207916492},{"NoteNumber":83,"Velocity":45,"Duration":58772,"SoundDuration":58772,"Delta":208151583},{"NoteNumber":71,"Velocity":45,"Duration":58772,"SoundDuration":58772,"Delta":208151583},{"NoteNumber":62,"Velocity":38,"Duration":58772,"SoundDuration":58772,"Delta":208151583},{"NoteNumber":55,"Velocity":38,"Duration":58772,"SoundDuration":58772,"Delta":208151583},{"NoteNumber":81,"Velocity":48,"Duration":235091,"SoundDuration":235091,"Delta":208386675},{"NoteNumber":71,"Velocity":41,"Duration":470183,"SoundDuration":470183,"Delta":208386675},{"NoteNumber":55,"Velocity":41,"Duration":470183,"SoundDuration":470183,"Delta":208386675},{"NoteNumber":62,"Velocity":41,"Duration":470183,"SoundDuration":470183,"Delta":208386675},{"NoteNumber":79,"Velocity":42,"Duration":235091,"SoundDuration":235091,"Delta":208621766},{"NoteNumber":71,"Velocity":42,"Duration":57696,"SoundDuration":57696,"Delta":208856858},{"NoteNumber":67,"Velocity":42,"Duration":57696,"SoundDuration":57696,"Delta":208856858},{"NoteNumber":71,"Velocity":42,"Duration":57696,"SoundDuration":57696,"Delta":209087645},{"NoteNumber":74,"Velocity":42,"Duration":57696,"SoundDuration":57696,"Delta":209087645},{"NoteNumber":67,"Velocity":42,"Duration":57696,"SoundDuration":57696,"Delta":209087645},{"NoteNumber":78,"Velocity":46,"Duration":234228,"SoundDuration":234228,"Delta":209318432},{"NoteNumber":74,"Velocity":46,"Duration":234228,"SoundDuration":234228,"Delta":209318432},{"NoteNumber":71,"Velocity":46,"Duration":234228,"SoundDuration":234228,"Delta":209318432},{"NoteNumber":67,"Velocity":46,"Duration":234228,"SoundDuration":234228,"Delta":209318432},{"NoteNumber":40,"Velocity":36,"Duration":467582,"SoundDuration":467582,"Delta":209318432},{"NoteNumber":47,"Velocity":36,"Duration":467582,"SoundDuration":467582,"Delta":209318432},{"NoteNumber":78,"Velocity":42,"Duration":234228,"SoundDuration":234228,"Delta":209786014},{"NoteNumber":74,"Velocity":42,"Duration":234228,"SoundDuration":234228,"Delta":209786014},{"NoteNumber":71,"Velocity":42,"Duration":234228,"SoundDuration":234228,"Delta":209786014},{"NoteNumber":67,"Velocity":42,"Duration":234228,"SoundDuration":234228,"Delta":209786014},{"NoteNumber":59,"Velocity":34,"Duration":234228,"SoundDuration":234228,"Delta":209786014},{"NoteNumber":52,"Velocity":34,"Duration":234228,"SoundDuration":234228,"Delta":209786014},{"NoteNumber":78,"Velocity":42,"Duration":117114,"SoundDuration":117114,"Delta":210137357},{"NoteNumber":74,"Velocity":42,"Duration":117114,"SoundDuration":117114,"Delta":210137357},{"NoteNumber":71,"Velocity":42,"Duration":117114,"SoundDuration":117114,"Delta":210137357},{"NoteNumber":67,"Velocity":42,"Duration":117114,"SoundDuration":117114,"Delta":210137357},{"NoteNumber":59,"Velocity":34,"Duration":117114,"SoundDuration":117114,"Delta":210137357},{"NoteNumber":52,"Velocity":34,"Duration":117114,"SoundDuration":117114,"Delta":210137357},{"NoteNumber":78,"Velocity":42,"Duration":478428,"SoundDuration":478428,"Delta":210254471},{"NoteNumber":74,"Velocity":42,"Duration":478428,"SoundDuration":478428,"Delta":210254471},{"NoteNumber":71,"Velocity":42,"Duration":478428,"SoundDuration":478428,"Delta":210254471},{"NoteNumber":67,"Velocity":42,"Duration":478428,"SoundDuration":478428,"Delta":210254471},{"NoteNumber":52,"Velocity":36,"Duration":478428,"SoundDuration":478428,"Delta":210254471},{"NoteNumber":59,"Velocity":36,"Duration":478428,"SoundDuration":478428,"Delta":210254471},{"NoteNumber":71,"Velocity":42,"Duration":58772,"SoundDuration":58772,"Delta":210732900},{"NoteNumber":67,"Velocity":42,"Duration":58772,"SoundDuration":58772,"Delta":210732900},{"NoteNumber":73,"Velocity":42,"Duration":58772,"SoundDuration":58772,"Delta":210967991},{"NoteNumber":71,"Velocity":42,"Duration":58772,"SoundDuration":58772,"Delta":210967991},{"NoteNumber":67,"Velocity":42,"Duration":58772,"SoundDuration":58772,"Delta":210967991},{"NoteNumber":74,"Velocity":46,"Duration":235978,"SoundDuration":235978,"Delta":211203083},{"NoteNumber":67,"Velocity":46,"Duration":463441,"SoundDuration":463441,"Delta":211203083},{"NoteNumber":71,"Velocity":46,"Duration":463441,"SoundDuration":463441,"Delta":211203083},{"NoteNumber":45,"Velocity":39,"Duration":463441,"SoundDuration":463441,"Delta":211203083},{"NoteNumber":52,"Velocity":39,"Duration":463441,"SoundDuration":463441,"Delta":211203083},{"NoteNumber":76,"Velocity":42,"Duration":227462,"SoundDuration":227462,"Delta":211439062},{"NoteNumber":71,"Velocity":45,"Duration":58772,"SoundDuration":58772,"Delta":211666524},{"NoteNumber":67,"Velocity":45,"Duration":58772,"SoundDuration":58772,"Delta":211666524},{"NoteNumber":64,"Velocity":36,"Duration":58772,"SoundDuration":58772,"Delta":211666524},{"NoteNumber":57,"Velocity":36,"Duration":58772,"SoundDuration":58772,"Delta":211666524},{"NoteNumber":73,"Velocity":45,"Duration":58772,"SoundDuration":58772,"Delta":211901616},{"NoteNumber":71,"Velocity":45,"Duration":58772,"SoundDuration":58772,"Delta":211901616},{"NoteNumber":67,"Velocity":45,"Duration":58772,"SoundDuration":58772,"Delta":211901616},{"NoteNumber":64,"Velocity":36,"Duration":58772,"SoundDuration":58772,"Delta":211901616},{"NoteNumber":57,"Velocity":36,"Duration":58772,"SoundDuration":58772,"Delta":211901616},{"NoteNumber":74,"Velocity":47,"Duration":223430,"SoundDuration":223430,"Delta":212136707},{"NoteNumber":71,"Velocity":47,"Duration":454217,"SoundDuration":454217,"Delta":212136707},{"NoteNumber":67,"Velocity":47,"Duration":454217,"SoundDuration":454217,"Delta":212136707},{"NoteNumber":57,"Velocity":39,"Duration":454217,"SoundDuration":454217,"Delta":212136707},{"NoteNumber":64,"Velocity":39,"Duration":454217,"SoundDuration":454217,"Delta":212136707},{"NoteNumber":76,"Velocity":44,"Duration":230786,"SoundDuration":230786,"Delta":212360138},{"NoteNumber":71,"Velocity":45,"Duration":56865,"SoundDuration":56865,"Delta":212590925},{"NoteNumber":67,"Velocity":45,"Duration":56865,"SoundDuration":56865,"Delta":212590925},{"NoteNumber":73,"Velocity":45,"Duration":56865,"SoundDuration":56865,"Delta":212818387},{"NoteNumber":71,"Velocity":45,"Duration":56865,"SoundDuration":56865,"Delta":212818387},{"NoteNumber":67,"Velocity":45,"Duration":56865,"SoundDuration":56865,"Delta":212818387},{"NoteNumber":74,"Velocity":49,"Duration":230786,"SoundDuration":230786,"Delta":213045850},{"NoteNumber":69,"Velocity":49,"Duration":230786,"SoundDuration":230786,"Delta":213045850},{"NoteNumber":67,"Velocity":49,"Duration":230786,"SoundDuration":230786,"Delta":213045850},{"NoteNumber":38,"Velocity":39,"Duration":461574,"SoundDuration":461574,"Delta":213045850},{"NoteNumber":45,"Velocity":39,"Duration":461574,"SoundDuration":461574,"Delta":213045850},{"NoteNumber":74,"Velocity":45,"Duration":230786,"SoundDuration":230786,"Delta":213507424},{"NoteNumber":66,"Velocity":45,"Duration":230786,"SoundDuration":230786,"Delta":213507424},{"NoteNumber":69,"Velocity":36,"Duration":230786,"SoundDuration":230786,"Delta":213507424},{"NoteNumber":62,"Velocity":36,"Duration":230786,"SoundDuration":230786,"Delta":213507424},{"NoteNumber":74,"Velocity":45,"Duration":115393,"SoundDuration":115393,"Delta":213853604},{"NoteNumber":66,"Velocity":45,"Duration":115393,"SoundDuration":115393,"Delta":213853604},{"NoteNumber":69,"Velocity":36,"Duration":115393,"SoundDuration":115393,"Delta":213853604},{"NoteNumber":62,"Velocity":36,"Duration":115393,"SoundDuration":115393,"Delta":213853604},{"NoteNumber":74,"Velocity":45,"Duration":230786,"SoundDuration":230786,"Delta":213968998},{"NoteNumber":66,"Velocity":45,"Duration":230786,"SoundDuration":230786,"Delta":213968998},{"NoteNumber":69,"Velocity":36,"Duration":461574,"SoundDuration":461574,"Delta":213968998},{"NoteNumber":62,"Velocity":36,"Duration":461574,"SoundDuration":461574,"Delta":213968998},{"NoteNumber":50,"Velocity":27,"Duration":258219,"SoundDuration":258219,"Delta":214430572},{"NoteNumber":57,"Velocity":27,"Duration":258219,"SoundDuration":258219,"Delta":214430572},{"NoteNumber":50,"Velocity":27,"Duration":258219,"SoundDuration":258219,"Delta":214688792},{"NoteNumber":57,"Velocity":27,"Duration":258219,"SoundDuration":258219,"Delta":214688792},{"NoteNumber":50,"Velocity":31,"Duration":258220,"SoundDuration":258220,"Delta":214947012},{"NoteNumber":57,"Velocity":31,"Duration":258220,"SoundDuration":258220,"Delta":214947012},{"NoteNumber":62,"Velocity":27,"Duration":248056,"SoundDuration":248056,"Delta":215463452},{"NoteNumber":69,"Velocity":27,"Duration":248056,"SoundDuration":248056,"Delta":215463452},{"NoteNumber":62,"Velocity":27,"Duration":248057,"SoundDuration":248057,"Delta":215711509},{"NoteNumber":69,"Velocity":27,"Duration":248057,"SoundDuration":248057,"Delta":215711509},{"NoteNumber":62,"Velocity":33,"Duration":248056,"SoundDuration":248056,"Delta":215959566},{"NoteNumber":69,"Velocity":33,"Duration":248056,"SoundDuration":248056,"Delta":215959566},{"NoteNumber":50,"Velocity":27,"Duration":237755,"SoundDuration":237755,"Delta":216455680},{"NoteNumber":57,"Velocity":27,"Duration":237755,"SoundDuration":237755,"Delta":216455680},{"NoteNumber":50,"Velocity":27,"Duration":237755,"SoundDuration":237755,"Delta":216693435},{"NoteNumber":57,"Velocity":27,"Duration":237755,"SoundDuration":237755,"Delta":216693435},{"NoteNumber":50,"Velocity":30,"Duration":237755,"SoundDuration":237755,"Delta":216931191},{"NoteNumber":57,"Velocity":30,"Duration":237755,"SoundDuration":237755,"Delta":216931191},{"NoteNumber":62,"Velocity":27,"Duration":237755,"SoundDuration":237755,"Delta":217406702},{"NoteNumber":69,"Velocity":27,"Duration":237755,"SoundDuration":237755,"Delta":217406702},{"NoteNumber":62,"Velocity":27,"Duration":237755,"SoundDuration":237755,"Delta":217644457},{"NoteNumber":69,"Velocity":27,"Duration":237755,"SoundDuration":237755,"Delta":217644457},{"NoteNumber":62,"Velocity":31,"Duration":239559,"SoundDuration":239559,"Delta":217882213},{"NoteNumber":69,"Velocity":31,"Duration":239559,"SoundDuration":239559,"Delta":217882213},{"NoteNumber":50,"Velocity":27,"Duration":239559,"SoundDuration":239559,"Delta":218361331},{"NoteNumber":57,"Velocity":27,"Duration":239559,"SoundDuration":239559,"Delta":218361331},{"NoteNumber":81,"Velocity":35,"Duration":79251,"SoundDuration":79251,"Delta":218600890},{"NoteNumber":50,"Velocity":27,"Duration":237755,"SoundDuration":237755,"Delta":218600890},{"NoteNumber":57,"Velocity":27,"Duration":237755,"SoundDuration":237755,"Delta":218600890},{"NoteNumber":83,"Velocity":35,"Duration":79251,"SoundDuration":79251,"Delta":218680142},{"NoteNumber":81,"Velocity":36,"Duration":79251,"SoundDuration":79251,"Delta":218759394},{"NoteNumber":78,"Velocity":39,"Duration":464971,"SoundDuration":464971,"Delta":218838645},{"NoteNumber":50,"Velocity":31,"Duration":232485,"SoundDuration":232485,"Delta":218838645},{"NoteNumber":57,"Velocity":31,"Duration":232485,"SoundDuration":232485,"Delta":218838645},{"NoteNumber":81,"Velocity":39,"Duration":232485,"SoundDuration":232485,"Delta":219071131},{"NoteNumber":86,"Velocity":39,"Duration":58772,"SoundDuration":58772,"Delta":219303617},{"NoteNumber":78,"Velocity":39,"Duration":58772,"SoundDuration":58772,"Delta":219303617},{"NoteNumber":62,"Velocity":27,"Duration":58772,"SoundDuration":58772,"Delta":219303617},{"NoteNumber":69,"Velocity":27,"Duration":58772,"SoundDuration":58772,"Delta":219303617},{"NoteNumber":90,"Velocity":37,"Duration":58994,"SoundDuration":58994,"Delta":219538709},{"NoteNumber":78,"Velocity":37,"Duration":58994,"SoundDuration":58994,"Delta":219538709},{"NoteNumber":62,"Velocity":27,"Duration":58994,"SoundDuration":58994,"Delta":219538709},{"NoteNumber":69,"Velocity":27,"Duration":58994,"SoundDuration":58994,"Delta":219538709},{"NoteNumber":88,"Velocity":41,"Duration":233353,"SoundDuration":233353,"Delta":219774688},{"NoteNumber":78,"Velocity":33,"Duration":471109,"SoundDuration":471109,"Delta":219774688},{"NoteNumber":69,"Velocity":31,"Duration":233353,"SoundDuration":233353,"Delta":219774688},{"NoteNumber":62,"Velocity":31,"Duration":233353,"SoundDuration":233353,"Delta":219774688},{"NoteNumber":86,"Velocity":37,"Duration":237755,"SoundDuration":237755,"Delta":220008042},{"NoteNumber":78,"Velocity":37,"Duration":59438,"SoundDuration":59438,"Delta":220245797},{"NoteNumber":50,"Velocity":27,"Duration":59438,"SoundDuration":59438,"Delta":220245797},{"NoteNumber":57,"Velocity":27,"Duration":59438,"SoundDuration":59438,"Delta":220245797},{"NoteNumber":81,"Velocity":36,"Duration":59438,"SoundDuration":59438,"Delta":220483553},{"NoteNumber":78,"Velocity":36,"Duration":59438,"SoundDuration":59438,"Delta":220483553},{"NoteNumber":50,"Velocity":27,"Duration":59438,"SoundDuration":59438,"Delta":220483553},{"NoteNumber":57,"Velocity":27,"Duration":59438,"SoundDuration":59438,"Delta":220483553},{"NoteNumber":83,"Velocity":39,"Duration":237755,"SoundDuration":237755,"Delta":220721308},{"NoteNumber":81,"Velocity":39,"Duration":237755,"SoundDuration":237755,"Delta":220721308},{"NoteNumber":78,"Velocity":39,"Duration":237755,"SoundDuration":237755,"Delta":220721308},{"NoteNumber":50,"Velocity":31,"Duration":475510,"SoundDuration":475510,"Delta":220721308},{"NoteNumber":57,"Velocity":31,"Duration":475510,"SoundDuration":475510,"Delta":220721308},{"NoteNumber":83,"Velocity":37,"Duration":237755,"SoundDuration":237755,"Delta":221196819},{"NoteNumber":81,"Velocity":37,"Duration":237755,"SoundDuration":237755,"Delta":221196819},{"NoteNumber":78,"Velocity":37,"Duration":237755,"SoundDuration":237755,"Delta":221196819},{"NoteNumber":62,"Velocity":30,"Duration":237755,"SoundDuration":237755,"Delta":221196819},{"NoteNumber":69,"Velocity":30,"Duration":237755,"SoundDuration":237755,"Delta":221196819},{"NoteNumber":83,"Velocity":37,"Duration":118877,"SoundDuration":118877,"Delta":221553453},{"NoteNumber":81,"Velocity":37,"Duration":118877,"SoundDuration":118877,"Delta":221553453},{"NoteNumber":78,"Velocity":37,"Duration":118877,"SoundDuration":118877,"Delta":221553453},{"NoteNumber":62,"Velocity":30,"Duration":118877,"SoundDuration":118877,"Delta":221553453},{"NoteNumber":69,"Velocity":30,"Duration":118877,"SoundDuration":118877,"Delta":221553453},{"NoteNumber":83,"Velocity":37,"Duration":475638,"SoundDuration":475638,"Delta":221672330},{"NoteNumber":81,"Velocity":37,"Duration":475638,"SoundDuration":475638,"Delta":221672330},{"NoteNumber":78,"Velocity":37,"Duration":475638,"SoundDuration":475638,"Delta":221672330},{"NoteNumber":62,"Velocity":30,"Duration":475638,"SoundDuration":475638,"Delta":221672330},{"NoteNumber":69,"Velocity":30,"Duration":475638,"SoundDuration":475638,"Delta":221672330},{"NoteNumber":74,"Velocity":38,"Duration":58121,"SoundDuration":58121,"Delta":222147969},{"NoteNumber":78,"Velocity":38,"Duration":58121,"SoundDuration":58121,"Delta":222147969},{"NoteNumber":74,"Velocity":38,"Duration":58121,"SoundDuration":58121,"Delta":222380455},{"NoteNumber":80,"Velocity":38,"Duration":58121,"SoundDuration":58121,"Delta":222380455},{"NoteNumber":78,"Velocity":38,"Duration":58121,"SoundDuration":58121,"Delta":222380455},{"NoteNumber":74,"Velocity":41,"Duration":462616,"SoundDuration":462616,"Delta":222612941},{"NoteNumber":78,"Velocity":41,"Duration":462616,"SoundDuration":462616,"Delta":222612941},{"NoteNumber":81,"Velocity":41,"Duration":235978,"SoundDuration":235978,"Delta":222612941},{"NoteNumber":47,"Velocity":30,"Duration":462616,"SoundDuration":462616,"Delta":222612941},{"NoteNumber":54,"Velocity":30,"Duration":462616,"SoundDuration":462616,"Delta":222612941},{"NoteNumber":83,"Velocity":37,"Duration":226637,"SoundDuration":226637,"Delta":222848920},{"NoteNumber":78,"Velocity":39,"Duration":58121,"SoundDuration":58121,"Delta":223075557},{"NoteNumber":74,"Velocity":39,"Duration":58121,"SoundDuration":58121,"Delta":223075557},{"NoteNumber":59,"Velocity":27,"Duration":58121,"SoundDuration":58121,"Delta":223075557},{"NoteNumber":66,"Velocity":27,"Duration":58121,"SoundDuration":58121,"Delta":223075557},{"NoteNumber":80,"Velocity":38,"Duration":58121,"SoundDuration":58121,"Delta":223308043},{"NoteNumber":78,"Velocity":38,"Duration":58121,"SoundDuration":58121,"Delta":223308043},{"NoteNumber":74,"Velocity":38,"Duration":58121,"SoundDuration":58121,"Delta":223308043},{"NoteNumber":59,"Velocity":27,"Duration":58121,"SoundDuration":58121,"Delta":223308043},{"NoteNumber":66,"Velocity":27,"Duration":58121,"SoundDuration":58121,"Delta":223308043},{"NoteNumber":81,"Velocity":41,"Duration":234228,"SoundDuration":234228,"Delta":223540529},{"NoteNumber":74,"Velocity":41,"Duration":460866,"SoundDuration":460866,"Delta":223540529},{"NoteNumber":78,"Velocity":41,"Duration":460866,"SoundDuration":460866,"Delta":223540529},{"NoteNumber":52,"Velocity":30,"Duration":460866,"SoundDuration":460866,"Delta":223540529},{"NoteNumber":59,"Velocity":30,"Duration":460866,"SoundDuration":460866,"Delta":223540529},{"NoteNumber":83,"Velocity":37,"Duration":226637,"SoundDuration":226637,"Delta":223774758},{"NoteNumber":74,"Velocity":39,"Duration":57069,"SoundDuration":57069,"Delta":224001395},{"NoteNumber":78,"Velocity":39,"Duration":57069,"SoundDuration":57069,"Delta":224001395},{"NoteNumber":64,"Velocity":27,"Duration":57069,"SoundDuration":57069,"Delta":224001395},{"NoteNumber":71,"Velocity":27,"Duration":57069,"SoundDuration":57069,"Delta":224001395},{"NoteNumber":80,"Velocity":39,"Duration":57069,"SoundDuration":57069,"Delta":224229671},{"NoteNumber":74,"Velocity":39,"Duration":57069,"SoundDuration":57069,"Delta":224229671},{"NoteNumber":78,"Velocity":39,"Duration":57069,"SoundDuration":57069,"Delta":224229671},{"NoteNumber":64,"Velocity":27,"Duration":57069,"SoundDuration":57069,"Delta":224229671},{"NoteNumber":71,"Velocity":27,"Duration":57069,"SoundDuration":57069,"Delta":224229671},{"NoteNumber":74,"Velocity":41,"Duration":229955,"SoundDuration":229955,"Delta":224457947},{"NoteNumber":76,"Velocity":41,"Duration":229955,"SoundDuration":229955,"Delta":224457947},{"NoteNumber":81,"Velocity":41,"Duration":229955,"SoundDuration":229955,"Delta":224457947},{"NoteNumber":57,"Velocity":30,"Duration":459911,"SoundDuration":459911,"Delta":224457947},{"NoteNumber":64,"Velocity":30,"Duration":459911,"SoundDuration":459911,"Delta":224457947},{"NoteNumber":73,"Velocity":38,"Duration":233353,"SoundDuration":233353,"Delta":224917858},{"NoteNumber":81,"Velocity":38,"Duration":233353,"SoundDuration":233353,"Delta":224917858},{"NoteNumber":76,"Velocity":28,"Duration":233353,"SoundDuration":233353,"Delta":224917858},{"NoteNumber":69,"Velocity":28,"Duration":233353,"SoundDuration":233353,"Delta":224917858},{"NoteNumber":73,"Velocity":38,"Duration":116677,"SoundDuration":116677,"Delta":225267889},{"NoteNumber":81,"Velocity":38,"Duration":116677,"SoundDuration":116677,"Delta":225267889},{"NoteNumber":76,"Velocity":28,"Duration":116677,"SoundDuration":116677,"Delta":225267889},{"NoteNumber":69,"Velocity":28,"Duration":116677,"SoundDuration":116677,"Delta":225267889},{"NoteNumber":73,"Velocity":38,"Duration":233353,"SoundDuration":233353,"Delta":225384566},{"NoteNumber":81,"Velocity":38,"Duration":233353,"SoundDuration":233353,"Delta":225384566},{"NoteNumber":76,"Velocity":28,"Duration":233353,"SoundDuration":233353,"Delta":225384566},{"NoteNumber":69,"Velocity":28,"Duration":233353,"SoundDuration":233353,"Delta":225384566},{"NoteNumber":85,"Velocity":39,"Duration":76651,"SoundDuration":76651,"Delta":226081230},{"NoteNumber":86,"Velocity":39,"Duration":76651,"SoundDuration":76651,"Delta":226157882},{"NoteNumber":85,"Velocity":39,"Duration":76651,"SoundDuration":76651,"Delta":226234534},{"NoteNumber":83,"Velocity":42,"Duration":459911,"SoundDuration":459911,"Delta":226311185},{"NoteNumber":55,"Velocity":35,"Duration":459911,"SoundDuration":459911,"Delta":226311185},{"NoteNumber":62,"Velocity":35,"Duration":459911,"SoundDuration":459911,"Delta":226311185},{"NoteNumber":86,"Velocity":42,"Duration":229955,"SoundDuration":229955,"Delta":226541141},{"NoteNumber":91,"Velocity":44,"Duration":58557,"SoundDuration":58557,"Delta":226771096},{"NoteNumber":83,"Velocity":44,"Duration":58557,"SoundDuration":58557,"Delta":226771096},{"NoteNumber":74,"Velocity":33,"Duration":58557,"SoundDuration":58557,"Delta":226771096},{"NoteNumber":67,"Velocity":33,"Duration":58557,"SoundDuration":58557,"Delta":226771096},{"NoteNumber":95,"Velocity":39,"Duration":58772,"SoundDuration":58772,"Delta":227005325},{"NoteNumber":83,"Velocity":39,"Duration":58772,"SoundDuration":58772,"Delta":227005325},{"NoteNumber":74,"Velocity":33,"Duration":58772,"SoundDuration":58772,"Delta":227005325},{"NoteNumber":67,"Velocity":33,"Duration":58772,"SoundDuration":58772,"Delta":227005325},{"NoteNumber":93,"Velocity":42,"Duration":233353,"SoundDuration":233353,"Delta":227240416},{"NoteNumber":83,"Velocity":37,"Duration":468445,"SoundDuration":468445,"Delta":227240416},{"NoteNumber":67,"Velocity":36,"Duration":468445,"SoundDuration":468445,"Delta":227240416},{"NoteNumber":74,"Velocity":36,"Duration":468445,"SoundDuration":468445,"Delta":227240416},{"NoteNumber":91,"Velocity":38,"Duration":235091,"SoundDuration":235091,"Delta":227473770},{"NoteNumber":83,"Velocity":38,"Duration":57696,"SoundDuration":57696,"Delta":227708862},{"NoteNumber":79,"Velocity":38,"Duration":57696,"SoundDuration":57696,"Delta":227708862},{"NoteNumber":83,"Velocity":38,"Duration":57696,"SoundDuration":57696,"Delta":227939649},{"NoteNumber":86,"Velocity":38,"Duration":57696,"SoundDuration":57696,"Delta":227939649},{"NoteNumber":79,"Velocity":38,"Duration":57696,"SoundDuration":57696,"Delta":227939649},{"NoteNumber":90,"Velocity":42,"Duration":234228,"SoundDuration":234228,"Delta":228170436},{"NoteNumber":86,"Velocity":42,"Duration":234228,"SoundDuration":234228,"Delta":228170436},{"NoteNumber":83,"Velocity":42,"Duration":234228,"SoundDuration":234228,"Delta":228170436},{"NoteNumber":79,"Velocity":42,"Duration":234228,"SoundDuration":234228,"Delta":228170436},{"NoteNumber":52,"Velocity":33,"Duration":467582,"SoundDuration":467582,"Delta":228170436},{"NoteNumber":59,"Velocity":33,"Duration":467582,"SoundDuration":467582,"Delta":228170436},{"NoteNumber":90,"Velocity":37,"Duration":234228,"SoundDuration":234228,"Delta":228638018},{"NoteNumber":86,"Velocity":37,"Duration":234228,"SoundDuration":234228,"Delta":228638018},{"NoteNumber":83,"Velocity":37,"Duration":234228,"SoundDuration":234228,"Delta":228638018},{"NoteNumber":79,"Velocity":37,"Duration":234228,"SoundDuration":234228,"Delta":228638018},{"NoteNumber":71,"Velocity":29,"Duration":234228,"SoundDuration":234228,"Delta":228638018},{"NoteNumber":64,"Velocity":29,"Duration":234228,"SoundDuration":234228,"Delta":228638018},{"NoteNumber":90,"Velocity":37,"Duration":117114,"SoundDuration":117114,"Delta":228989361},{"NoteNumber":86,"Velocity":37,"Duration":117114,"SoundDuration":117114,"Delta":228989361},{"NoteNumber":83,"Velocity":37,"Duration":117114,"SoundDuration":117114,"Delta":228989361},{"NoteNumber":79,"Velocity":37,"Duration":117114,"SoundDuration":117114,"Delta":228989361},{"NoteNumber":71,"Velocity":29,"Duration":117114,"SoundDuration":117114,"Delta":228989361},{"NoteNumber":64,"Velocity":29,"Duration":117114,"SoundDuration":117114,"Delta":228989361},{"NoteNumber":90,"Velocity":37,"Duration":477497,"SoundDuration":477497,"Delta":229106475},{"NoteNumber":86,"Velocity":37,"Duration":477497,"SoundDuration":477497,"Delta":229106475},{"NoteNumber":83,"Velocity":37,"Duration":477497,"SoundDuration":477497,"Delta":229106475},{"NoteNumber":79,"Velocity":37,"Duration":477497,"SoundDuration":477497,"Delta":229106475},{"NoteNumber":64,"Velocity":33,"Duration":477497,"SoundDuration":477497,"Delta":229106475},{"NoteNumber":71,"Velocity":33,"Duration":477497,"SoundDuration":477497,"Delta":229106475},{"NoteNumber":83,"Velocity":38,"Duration":58772,"SoundDuration":58772,"Delta":229583973},{"NoteNumber":79,"Velocity":38,"Duration":58772,"SoundDuration":58772,"Delta":229583973},{"NoteNumber":85,"Velocity":38,"Duration":58772,"SoundDuration":58772,"Delta":229819065},{"NoteNumber":83,"Velocity":38,"Duration":58772,"SoundDuration":58772,"Delta":229819065},{"NoteNumber":79,"Velocity":38,"Duration":58772,"SoundDuration":58772,"Delta":229819065},{"NoteNumber":86,"Velocity":42,"Duration":235978,"SoundDuration":235978,"Delta":230054156},{"NoteNumber":79,"Velocity":42,"Duration":463441,"SoundDuration":463441,"Delta":230054156},{"NoteNumber":83,"Velocity":42,"Duration":463441,"SoundDuration":463441,"Delta":230054156},{"NoteNumber":57,"Velocity":34,"Duration":463441,"SoundDuration":463441,"Delta":230054156},{"NoteNumber":64,"Velocity":34,"Duration":463441,"SoundDuration":463441,"Delta":230054156},{"NoteNumber":88,"Velocity":38,"Duration":227462,"SoundDuration":227462,"Delta":230290135},{"NoteNumber":83,"Velocity":39,"Duration":58772,"SoundDuration":58772,"Delta":230517598},{"NoteNumber":79,"Velocity":39,"Duration":58772,"SoundDuration":58772,"Delta":230517598},{"NoteNumber":76,"Velocity":33,"Duration":58772,"SoundDuration":58772,"Delta":230517598},{"NoteNumber":69,"Velocity":33,"Duration":58772,"SoundDuration":58772,"Delta":230517598},{"NoteNumber":85,"Velocity":39,"Duration":58772,"SoundDuration":58772,"Delta":230752689},{"NoteNumber":83,"Velocity":39,"Duration":58772,"SoundDuration":58772,"Delta":230752689},{"NoteNumber":79,"Velocity":39,"Duration":58772,"SoundDuration":58772,"Delta":230752689},{"NoteNumber":76,"Velocity":33,"Duration":58772,"SoundDuration":58772,"Delta":230752689},{"NoteNumber":69,"Velocity":33,"Duration":58772,"SoundDuration":58772,"Delta":230752689},{"NoteNumber":86,"Velocity":42,"Duration":223430,"SoundDuration":223430,"Delta":230987781},{"NoteNumber":83,"Velocity":42,"Duration":454217,"SoundDuration":454217,"Delta":230987781},{"NoteNumber":79,"Velocity":42,"Duration":454217,"SoundDuration":454217,"Delta":230987781},{"NoteNumber":69,"Velocity":35,"Duration":454217,"SoundDuration":454217,"Delta":230987781},{"NoteNumber":76,"Velocity":35,"Duration":454217,"SoundDuration":454217,"Delta":230987781},{"NoteNumber":88,"Velocity":39,"Duration":230786,"SoundDuration":230786,"Delta":231211211},{"NoteNumber":83,"Velocity":39,"Duration":56865,"SoundDuration":56865,"Delta":231441998},{"NoteNumber":79,"Velocity":39,"Duration":56865,"SoundDuration":56865,"Delta":231441998},{"NoteNumber":85,"Velocity":39,"Duration":56865,"SoundDuration":56865,"Delta":231669461},{"NoteNumber":83,"Velocity":39,"Duration":56865,"SoundDuration":56865,"Delta":231669461},{"NoteNumber":79,"Velocity":39,"Duration":56865,"SoundDuration":56865,"Delta":231669461},{"NoteNumber":86,"Velocity":44,"Duration":230786,"SoundDuration":230786,"Delta":231896923},{"NoteNumber":81,"Velocity":44,"Duration":230786,"SoundDuration":230786,"Delta":231896923},{"NoteNumber":79,"Velocity":44,"Duration":230786,"SoundDuration":230786,"Delta":231896923},{"NoteNumber":62,"Velocity":34,"Duration":461574,"SoundDuration":461574,"Delta":231896923},{"NoteNumber":69,"Velocity":34,"Duration":461574,"SoundDuration":461574,"Delta":231896923},{"NoteNumber":86,"Velocity":39,"Duration":230786,"SoundDuration":230786,"Delta":232358497},{"NoteNumber":78,"Velocity":39,"Duration":230786,"SoundDuration":230786,"Delta":232358497},{"NoteNumber":81,"Velocity":33,"Duration":230786,"SoundDuration":230786,"Delta":232358497},{"NoteNumber":74,"Velocity":33,"Duration":230786,"SoundDuration":230786,"Delta":232358497},{"NoteNumber":86,"Velocity":39,"Duration":115393,"SoundDuration":115393,"Delta":232704678},{"NoteNumber":78,"Velocity":39,"Duration":115393,"SoundDuration":115393,"Delta":232704678},{"NoteNumber":81,"Velocity":33,"Duration":115393,"SoundDuration":115393,"Delta":232704678},{"NoteNumber":74,"Velocity":33,"Duration":115393,"SoundDuration":115393,"Delta":232704678},{"NoteNumber":86,"Velocity":39,"Duration":230786,"SoundDuration":230786,"Delta":232820071},{"NoteNumber":78,"Velocity":39,"Duration":230786,"SoundDuration":230786,"Delta":232820071},{"NoteNumber":81,"Velocity":33,"Duration":461574,"SoundDuration":461574,"Delta":232820071},{"NoteNumber":74,"Velocity":33,"Duration":461574,"SoundDuration":461574,"Delta":232820071},{"NoteNumber":45,"Velocity":80,"Duration":466708,"SoundDuration":466708,"Delta":233758972},{"NoteNumber":52,"Velocity":80,"Duration":466708,"SoundDuration":466708,"Delta":233758972},{"NoteNumber":45,"Velocity":72,"Duration":115393,"SoundDuration":115393,"Delta":234225680},{"NoteNumber":52,"Velocity":72,"Duration":115393,"SoundDuration":115393,"Delta":234225680},{"NoteNumber":52,"Velocity":72,"Duration":124512,"SoundDuration":124512,"Delta":234456467},{"NoteNumber":45,"Velocity":72,"Duration":124512,"SoundDuration":124512,"Delta":234456467},{"NoteNumber":45,"Velocity":80,"Duration":466708,"SoundDuration":466708,"Delta":234705492},{"NoteNumber":52,"Velocity":80,"Duration":466708,"SoundDuration":466708,"Delta":234705492},{"NoteNumber":45,"Velocity":72,"Duration":115393,"SoundDuration":115393,"Delta":235172200},{"NoteNumber":52,"Velocity":72,"Duration":115393,"SoundDuration":115393,"Delta":235172200},{"NoteNumber":45,"Velocity":72,"Duration":123538,"SoundDuration":123538,"Delta":235402987},{"NoteNumber":52,"Velocity":72,"Duration":123538,"SoundDuration":123538,"Delta":235402987},{"NoteNumber":61,"Velocity":75,"Duration":114556,"SoundDuration":114556,"Delta":235650063},{"NoteNumber":64,"Velocity":75,"Duration":458224,"SoundDuration":458224,"Delta":235650063},{"NoteNumber":45,"Velocity":71,"Duration":458224,"SoundDuration":458224,"Delta":235650063},{"NoteNumber":52,"Velocity":71,"Duration":458224,"SoundDuration":458224,"Delta":235650063},{"NoteNumber":59,"Velocity":68,"Duration":114556,"SoundDuration":114556,"Delta":235764620},{"NoteNumber":61,"Velocity":68,"Duration":114556,"SoundDuration":114556,"Delta":235879176},{"NoteNumber":57,"Velocity":68,"Duration":57278,"SoundDuration":57278,"Delta":235993732},{"NoteNumber":62,"Velocity":68,"Duration":115393,"SoundDuration":115393,"Delta":236108288},{"NoteNumber":66,"Velocity":71,"Duration":476910,"SoundDuration":476910,"Delta":236108288},{"NoteNumber":45,"Velocity":64,"Duration":230786,"SoundDuration":230786,"Delta":236108288},{"NoteNumber":52,"Velocity":64,"Duration":230786,"SoundDuration":230786,"Delta":236108288},{"NoteNumber":59,"Velocity":68,"Duration":123061,"SoundDuration":123061,"Delta":236339075},{"NoteNumber":45,"Velocity":64,"Duration":123061,"SoundDuration":123061,"Delta":236339075},{"NoteNumber":52,"Velocity":64,"Duration":123061,"SoundDuration":123061,"Delta":236339075},{"NoteNumber":61,"Velocity":75,"Duration":114556,"SoundDuration":114556,"Delta":236585199},{"NoteNumber":64,"Velocity":75,"Duration":458224,"SoundDuration":458224,"Delta":236585199},{"NoteNumber":45,"Velocity":71,"Duration":458224,"SoundDuration":458224,"Delta":236585199},{"NoteNumber":52,"Velocity":71,"Duration":458224,"SoundDuration":458224,"Delta":236585199},{"NoteNumber":59,"Velocity":69,"Duration":114556,"SoundDuration":114556,"Delta":236699755},{"NoteNumber":61,"Velocity":69,"Duration":114556,"SoundDuration":114556,"Delta":236814311},{"NoteNumber":57,"Velocity":69,"Duration":57278,"SoundDuration":57278,"Delta":236928868},{"NoteNumber":62,"Velocity":68,"Duration":115393,"SoundDuration":115393,"Delta":237043424},{"NoteNumber":66,"Velocity":71,"Duration":461574,"SoundDuration":461574,"Delta":237043424},{"NoteNumber":45,"Velocity":64,"Duration":230786,"SoundDuration":230786,"Delta":237043424},{"NoteNumber":52,"Velocity":64,"Duration":230786,"SoundDuration":230786,"Delta":237043424},{"NoteNumber":59,"Velocity":68,"Duration":115393,"SoundDuration":115393,"Delta":237274211},{"NoteNumber":45,"Velocity":64,"Duration":115393,"SoundDuration":115393,"Delta":237274211},{"NoteNumber":52,"Velocity":64,"Duration":115393,"SoundDuration":115393,"Delta":237274211},{"NoteNumber":74,"Velocity":56,"Duration":224214,"SoundDuration":224214,"Delta":237734110},{"NoteNumber":78,"Velocity":56,"Duration":74738,"SoundDuration":74738,"Delta":237734110},{"NoteNumber":68,"Velocity":56,"Duration":224214,"SoundDuration":224214,"Delta":237734110},{"NoteNumber":80,"Velocity":56,"Duration":74738,"SoundDuration":74738,"Delta":237808849},{"NoteNumber":78,"Velocity":56,"Duration":74738,"SoundDuration":74738,"Delta":237883587},{"NoteNumber":76,"Velocity":60,"Duration":115821,"SoundDuration":115821,"Delta":237958325},{"NoteNumber":73,"Velocity":60,"Duration":115821,"SoundDuration":115821,"Delta":237958325},{"NoteNumber":69,"Velocity":60,"Duration":115821,"SoundDuration":115821,"Delta":237958325},{"NoteNumber":73,"Velocity":59,"Duration":115821,"SoundDuration":115821,"Delta":238189968},{"NoteNumber":76,"Velocity":59,"Duration":115821,"SoundDuration":115821,"Delta":238189968},{"NoteNumber":69,"Velocity":59,"Duration":115821,"SoundDuration":115821,"Delta":238189968},{"NoteNumber":76,"Velocity":59,"Duration":926569,"SoundDuration":926569,"Delta":238421610},{"NoteNumber":73,"Velocity":59,"Duration":926569,"SoundDuration":926569,"Delta":238421610},{"NoteNumber":69,"Velocity":59,"Duration":926569,"SoundDuration":926569,"Delta":238421610},{"NoteNumber":60,"Velocity":52,"Duration":463284,"SoundDuration":463284,"Delta":239348180},{"NoteNumber":64,"Velocity":52,"Duration":463284,"SoundDuration":463284,"Delta":239348180},{"NoteNumber":56,"Velocity":59,"Duration":463284,"SoundDuration":463284,"Delta":239348180},{"NoteNumber":68,"Velocity":48,"Duration":231642,"SoundDuration":231642,"Delta":239811465},{"NoteNumber":72,"Velocity":48,"Duration":231642,"SoundDuration":231642,"Delta":239811465},{"NoteNumber":76,"Velocity":48,"Duration":231642,"SoundDuration":231642,"Delta":239811465},{"NoteNumber":68,"Velocity":47,"Duration":231642,"SoundDuration":231642,"Delta":240043108},{"NoteNumber":72,"Velocity":47,"Duration":231642,"SoundDuration":231642,"Delta":240043108},{"NoteNumber":76,"Velocity":47,"Duration":231642,"SoundDuration":231642,"Delta":240043108},{"NoteNumber":68,"Velocity":46,"Duration":455927,"SoundDuration":455927,"Delta":240274750},{"NoteNumber":72,"Velocity":46,"Duration":455927,"SoundDuration":455927,"Delta":240274750},{"NoteNumber":76,"Velocity":46,"Duration":455927,"SoundDuration":455927,"Delta":240274750},{"NoteNumber":72,"Velocity":34,"Duration":115189,"SoundDuration":115189,"Delta":240730677},{"NoteNumber":76,"Velocity":34,"Duration":115189,"SoundDuration":115189,"Delta":240730677},{"NoteNumber":76,"Velocity":34,"Duration":117693,"SoundDuration":117693,"Delta":240961057},{"NoteNumber":72,"Velocity":34,"Duration":117693,"SoundDuration":117693,"Delta":240961057},{"NoteNumber":77,"Velocity":34,"Duration":117693,"SoundDuration":117693,"Delta":240961057},{"NoteNumber":72,"Velocity":37,"Duration":464149,"SoundDuration":464149,"Delta":241196443},{"NoteNumber":76,"Velocity":37,"Duration":464149,"SoundDuration":464149,"Delta":241196443},{"NoteNumber":79,"Velocity":37,"Duration":228762,"SoundDuration":228762,"Delta":241196443},{"NoteNumber":43,"Velocity":33,"Duration":114381,"SoundDuration":114381,"Delta":241196443},{"NoteNumber":52,"Velocity":33,"Duration":114381,"SoundDuration":114381,"Delta":241196443},{"NoteNumber":55,"Velocity":33,"Duration":114381,"SoundDuration":114381,"Delta":241310825},{"NoteNumber":81,"Velocity":34,"Duration":235386,"SoundDuration":235386,"Delta":241425206},{"NoteNumber":60,"Velocity":33,"Duration":117693,"SoundDuration":117693,"Delta":241425206},{"NoteNumber":64,"Velocity":33,"Duration":117693,"SoundDuration":117693,"Delta":241542900},{"NoteNumber":72,"Velocity":34,"Duration":114381,"SoundDuration":114381,"Delta":241660593},{"NoteNumber":76,"Velocity":34,"Duration":114381,"SoundDuration":114381,"Delta":241660593},{"NoteNumber":72,"Velocity":34,"Duration":117693,"SoundDuration":117693,"Delta":241889356},{"NoteNumber":76,"Velocity":34,"Duration":117693,"SoundDuration":117693,"Delta":241889356},{"NoteNumber":77,"Velocity":34,"Duration":117693,"SoundDuration":117693,"Delta":241889356},{"NoteNumber":71,"Velocity":38,"Duration":451357,"SoundDuration":451357,"Delta":242124742},{"NoteNumber":77,"Velocity":38,"Duration":451357,"SoundDuration":451357,"Delta":242124742},{"NoteNumber":79,"Velocity":38,"Duration":220978,"SoundDuration":220978,"Delta":242124742},{"NoteNumber":43,"Velocity":33,"Duration":110489,"SoundDuration":110489,"Delta":242124742},{"NoteNumber":50,"Velocity":33,"Duration":110489,"SoundDuration":110489,"Delta":242124742},{"NoteNumber":55,"Velocity":33,"Duration":110489,"SoundDuration":110489,"Delta":242235231},{"NoteNumber":81,"Velocity":34,"Duration":230379,"SoundDuration":230379,"Delta":242345720},{"NoteNumber":59,"Velocity":33,"Duration":115189,"SoundDuration":115189,"Delta":242345720},{"NoteNumber":65,"Velocity":33,"Duration":115189,"SoundDuration":115189,"Delta":242460910},{"NoteNumber":67,"Velocity":34,"Duration":111623,"SoundDuration":111623,"Delta":242576100},{"NoteNumber":71,"Velocity":34,"Duration":111623,"SoundDuration":111623,"Delta":242576100},{"NoteNumber":76,"Velocity":34,"Duration":111623,"SoundDuration":111623,"Delta":242576100},{"NoteNumber":67,"Velocity":34,"Duration":113981,"SoundDuration":113981,"Delta":242799347},{"NoteNumber":71,"Velocity":34,"Duration":113981,"SoundDuration":113981,"Delta":242799347},{"NoteNumber":74,"Velocity":34,"Duration":113981,"SoundDuration":113981,"Delta":242799347},{"NoteNumber":74,"Velocity":35,"Duration":60120,"SoundDuration":60120,"Delta":242913329},{"NoteNumber":76,"Velocity":35,"Duration":60120,"SoundDuration":60120,"Delta":242973449},{"NoteNumber":64,"Velocity":39,"Duration":454339,"SoundDuration":454339,"Delta":243033570},{"NoteNumber":74,"Velocity":39,"Duration":227169,"SoundDuration":227169,"Delta":243033570},{"NoteNumber":36,"Velocity":33,"Duration":454339,"SoundDuration":454339,"Delta":243033570},{"NoteNumber":43,"Velocity":33,"Duration":454339,"SoundDuration":454339,"Delta":243033570},{"NoteNumber":72,"Velocity":34,"Duration":227169,"SoundDuration":227169,"Delta":243260739},{"NoteNumber":64,"Velocity":34,"Duration":116009,"SoundDuration":116009,"Delta":243487909},{"NoteNumber":72,"Velocity":34,"Duration":116009,"SoundDuration":116009,"Delta":243487909},{"NoteNumber":48,"Velocity":30,"Duration":116009,"SoundDuration":116009,"Delta":243487909},{"NoteNumber":55,"Velocity":30,"Duration":116009,"SoundDuration":116009,"Delta":243487909},{"NoteNumber":64,"Velocity":34,"Duration":118990,"SoundDuration":118990,"Delta":243719927},{"NoteNumber":72,"Velocity":34,"Duration":118990,"SoundDuration":118990,"Delta":243719927},{"NoteNumber":48,"Velocity":30,"Duration":118990,"SoundDuration":118990,"Delta":243719927},{"NoteNumber":55,"Velocity":30,"Duration":118990,"SoundDuration":118990,"Delta":243719927},{"NoteNumber":64,"Velocity":39,"Duration":333196,"SoundDuration":333196,"Delta":243957909},{"NoteNumber":72,"Velocity":39,"Duration":333196,"SoundDuration":333196,"Delta":243957909},{"NoteNumber":48,"Velocity":33,"Duration":333196,"SoundDuration":333196,"Delta":243957909},{"NoteNumber":55,"Velocity":33,"Duration":333196,"SoundDuration":333196,"Delta":243957909},{"NoteNumber":55,"Velocity":72,"Duration":122099,"SoundDuration":122099,"Delta":244398989},{"NoteNumber":48,"Velocity":72,"Duration":122099,"SoundDuration":122099,"Delta":244398989},{"NoteNumber":48,"Velocity":72,"Duration":123538,"SoundDuration":123538,"Delta":244643189},{"NoteNumber":55,"Velocity":72,"Duration":123538,"SoundDuration":123538,"Delta":244643189},{"NoteNumber":64,"Velocity":75,"Duration":116053,"SoundDuration":116053,"Delta":244890265},{"NoteNumber":67,"Velocity":75,"Duration":459721,"SoundDuration":459721,"Delta":244890265},{"NoteNumber":48,"Velocity":71,"Duration":459721,"SoundDuration":459721,"Delta":244890265},{"NoteNumber":55,"Velocity":71,"Duration":459721,"SoundDuration":459721,"Delta":244890265},{"NoteNumber":62,"Velocity":68,"Duration":114556,"SoundDuration":114556,"Delta":245006318},{"NoteNumber":64,"Velocity":68,"Duration":114556,"SoundDuration":114556,"Delta":245120875},{"NoteNumber":60,"Velocity":68,"Duration":57278,"SoundDuration":57278,"Delta":245235431},{"NoteNumber":65,"Velocity":68,"Duration":115393,"SoundDuration":115393,"Delta":245349987},{"NoteNumber":69,"Velocity":71,"Duration":475944,"SoundDuration":475944,"Delta":245349987},{"NoteNumber":55,"Velocity":64,"Duration":230786,"SoundDuration":230786,"Delta":245349987},{"NoteNumber":48,"Velocity":64,"Duration":230786,"SoundDuration":230786,"Delta":245349987},{"NoteNumber":62,"Velocity":68,"Duration":122579,"SoundDuration":122579,"Delta":245580774},{"NoteNumber":48,"Velocity":64,"Duration":122579,"SoundDuration":122579,"Delta":245580774},{"NoteNumber":55,"Velocity":64,"Duration":122579,"SoundDuration":122579,"Delta":245580774},{"NoteNumber":64,"Velocity":75,"Duration":114556,"SoundDuration":114556,"Delta":245825932},{"NoteNumber":67,"Velocity":75,"Duration":458224,"SoundDuration":458224,"Delta":245825932},{"NoteNumber":55,"Velocity":71,"Duration":458224,"SoundDuration":458224,"Delta":245825932},{"NoteNumber":48,"Velocity":71,"Duration":458224,"SoundDuration":458224,"Delta":245825932},{"NoteNumber":62,"Velocity":69,"Duration":114556,"SoundDuration":114556,"Delta":245940488},{"NoteNumber":64,"Velocity":69,"Duration":114556,"SoundDuration":114556,"Delta":246055045},{"NoteNumber":60,"Velocity":69,"Duration":57278,"SoundDuration":57278,"Delta":246169601},{"NoteNumber":65,"Velocity":68,"Duration":115393,"SoundDuration":115393,"Delta":246284157},{"NoteNumber":69,"Velocity":71,"Duration":461574,"SoundDuration":461574,"Delta":246284157},{"NoteNumber":55,"Velocity":64,"Duration":230786,"SoundDuration":230786,"Delta":246284157},{"NoteNumber":48,"Velocity":64,"Duration":230786,"SoundDuration":230786,"Delta":246284157},{"NoteNumber":62,"Velocity":68,"Duration":115393,"SoundDuration":115393,"Delta":246514944},{"NoteNumber":55,"Velocity":64,"Duration":115393,"SoundDuration":115393,"Delta":246514944},{"NoteNumber":48,"Velocity":64,"Duration":115393,"SoundDuration":115393,"Delta":246514944},{"NoteNumber":77,"Velocity":56,"Duration":224214,"SoundDuration":224214,"Delta":246974844},{"NoteNumber":81,"Velocity":56,"Duration":74738,"SoundDuration":74738,"Delta":246974844},{"NoteNumber":71,"Velocity":56,"Duration":224214,"SoundDuration":224214,"Delta":246974844},{"NoteNumber":83,"Velocity":56,"Duration":74738,"SoundDuration":74738,"Delta":247049582},{"NoteNumber":81,"Velocity":56,"Duration":74738,"SoundDuration":74738,"Delta":247124320},{"NoteNumber":79,"Velocity":60,"Duration":115821,"SoundDuration":115821,"Delta":247199059},{"NoteNumber":76,"Velocity":60,"Duration":115821,"SoundDuration":115821,"Delta":247199059},{"NoteNumber":72,"Velocity":60,"Duration":115821,"SoundDuration":115821,"Delta":247199059},{"NoteNumber":76,"Velocity":59,"Duration":115821,"SoundDuration":115821,"Delta":247430701},{"NoteNumber":79,"Velocity":59,"Duration":115821,"SoundDuration":115821,"Delta":247430701},{"NoteNumber":72,"Velocity":59,"Duration":115821,"SoundDuration":115821,"Delta":247430701},{"NoteNumber":79,"Velocity":59,"Duration":926569,"SoundDuration":926569,"Delta":247662344},{"NoteNumber":76,"Velocity":59,"Duration":926569,"SoundDuration":926569,"Delta":247662344},{"NoteNumber":72,"Velocity":59,"Duration":926569,"SoundDuration":926569,"Delta":247662344},{"NoteNumber":63,"Velocity":52,"Duration":463284,"SoundDuration":463284,"Delta":248588914},{"NoteNumber":67,"Velocity":52,"Duration":463284,"SoundDuration":463284,"Delta":248588914},{"NoteNumber":59,"Velocity":59,"Duration":463284,"SoundDuration":463284,"Delta":248588914},{"NoteNumber":71,"Velocity":48,"Duration":231642,"SoundDuration":231642,"Delta":249052199},{"NoteNumber":75,"Velocity":48,"Duration":231642,"SoundDuration":231642,"Delta":249052199},{"NoteNumber":79,"Velocity":48,"Duration":231642,"SoundDuration":231642,"Delta":249052199},{"NoteNumber":71,"Velocity":47,"Duration":231642,"SoundDuration":231642,"Delta":249283841},{"NoteNumber":75,"Velocity":47,"Duration":231642,"SoundDuration":231642,"Delta":249283841},{"NoteNumber":79,"Velocity":47,"Duration":231642,"SoundDuration":231642,"Delta":249283841},{"NoteNumber":71,"Velocity":46,"Duration":455927,"SoundDuration":455927,"Delta":249515484},{"NoteNumber":75,"Velocity":46,"Duration":455927,"SoundDuration":455927,"Delta":249515484},{"NoteNumber":79,"Velocity":46,"Duration":455927,"SoundDuration":455927,"Delta":249515484},{"NoteNumber":75,"Velocity":34,"Duration":57594,"SoundDuration":57594,"Delta":249971411},{"NoteNumber":79,"Velocity":34,"Duration":57594,"SoundDuration":57594,"Delta":249971411},{"NoteNumber":79,"Velocity":34,"Duration":58846,"SoundDuration":58846,"Delta":250201790},{"NoteNumber":75,"Velocity":34,"Duration":58846,"SoundDuration":58846,"Delta":250201790},{"NoteNumber":80,"Velocity":34,"Duration":58846,"SoundDuration":58846,"Delta":250201790},{"NoteNumber":75,"Velocity":37,"Duration":464149,"SoundDuration":464149,"Delta":250437177},{"NoteNumber":79,"Velocity":37,"Duration":464149,"SoundDuration":464149,"Delta":250437177},{"NoteNumber":82,"Velocity":37,"Duration":228762,"SoundDuration":228762,"Delta":250437177},{"NoteNumber":46,"Velocity":33,"Duration":114381,"SoundDuration":114381,"Delta":250437177},{"NoteNumber":55,"Velocity":33,"Duration":114381,"SoundDuration":114381,"Delta":250437177},{"NoteNumber":58,"Velocity":33,"Duration":114381,"SoundDuration":114381,"Delta":250551558},{"NoteNumber":84,"Velocity":34,"Duration":235386,"SoundDuration":235386,"Delta":250665940},{"NoteNumber":63,"Velocity":33,"Duration":117693,"SoundDuration":117693,"Delta":250665940},{"NoteNumber":67,"Velocity":33,"Duration":117693,"SoundDuration":117693,"Delta":250783633},{"NoteNumber":75,"Velocity":34,"Duration":57190,"SoundDuration":57190,"Delta":250901326},{"NoteNumber":79,"Velocity":34,"Duration":57190,"SoundDuration":57190,"Delta":250901326},{"NoteNumber":75,"Velocity":34,"Duration":58846,"SoundDuration":58846,"Delta":251130089},{"NoteNumber":79,"Velocity":34,"Duration":58846,"SoundDuration":58846,"Delta":251130089},{"NoteNumber":80,"Velocity":34,"Duration":58846,"SoundDuration":58846,"Delta":251130089},{"NoteNumber":74,"Velocity":38,"Duration":451357,"SoundDuration":451357,"Delta":251365476},{"NoteNumber":80,"Velocity":38,"Duration":451357,"SoundDuration":451357,"Delta":251365476},{"NoteNumber":82,"Velocity":38,"Duration":220978,"SoundDuration":220978,"Delta":251365476},{"NoteNumber":53,"Velocity":33,"Duration":110489,"SoundDuration":110489,"Delta":251365476},{"NoteNumber":46,"Velocity":33,"Duration":110489,"SoundDuration":110489,"Delta":251365476},{"NoteNumber":58,"Velocity":33,"Duration":110489,"SoundDuration":110489,"Delta":251475965},{"NoteNumber":84,"Velocity":34,"Duration":230379,"SoundDuration":230379,"Delta":251586454},{"NoteNumber":62,"Velocity":33,"Duration":115189,"SoundDuration":115189,"Delta":251586454},{"NoteNumber":68,"Velocity":33,"Duration":115189,"SoundDuration":115189,"Delta":251701643},{"NoteNumber":70,"Velocity":34,"Duration":111623,"SoundDuration":111623,"Delta":251816833},{"NoteNumber":74,"Velocity":34,"Duration":111623,"SoundDuration":111623,"Delta":251816833},{"NoteNumber":79,"Velocity":34,"Duration":111623,"SoundDuration":111623,"Delta":251816833},{"NoteNumber":70,"Velocity":34,"Duration":113981,"SoundDuration":113981,"Delta":252040081},{"NoteNumber":74,"Velocity":34,"Duration":113981,"SoundDuration":113981,"Delta":252040081},{"NoteNumber":77,"Velocity":34,"Duration":113981,"SoundDuration":113981,"Delta":252040081},{"NoteNumber":77,"Velocity":35,"Duration":61530,"SoundDuration":61530,"Delta":252154062},{"NoteNumber":79,"Velocity":35,"Duration":61530,"SoundDuration":61530,"Delta":252215593},{"NoteNumber":67,"Velocity":39,"Duration":454339,"SoundDuration":454339,"Delta":252277124},{"NoteNumber":77,"Velocity":39,"Duration":227169,"SoundDuration":227169,"Delta":252277124},{"NoteNumber":46,"Velocity":33,"Duration":454339,"SoundDuration":454339,"Delta":252277124},{"NoteNumber":39,"Velocity":33,"Duration":454339,"SoundDuration":454339,"Delta":252277124},{"NoteNumber":75,"Velocity":34,"Duration":227169,"SoundDuration":227169,"Delta":252504294},{"NoteNumber":67,"Velocity":34,"Duration":116009,"SoundDuration":116009,"Delta":252731463},{"NoteNumber":75,"Velocity":34,"Duration":116009,"SoundDuration":116009,"Delta":252731463},{"NoteNumber":58,"Velocity":30,"Duration":116009,"SoundDuration":116009,"Delta":252731463},{"NoteNumber":51,"Velocity":30,"Duration":116009,"SoundDuration":116009,"Delta":252731463},{"NoteNumber":67,"Velocity":34,"Duration":118990,"SoundDuration":118990,"Delta":252963482},{"NoteNumber":75,"Velocity":34,"Duration":118990,"SoundDuration":118990,"Delta":252963482},{"NoteNumber":58,"Velocity":30,"Duration":118990,"SoundDuration":118990,"Delta":252963482},{"NoteNumber":51,"Velocity":30,"Duration":118990,"SoundDuration":118990,"Delta":252963482},{"NoteNumber":67,"Velocity":39,"Duration":475964,"SoundDuration":475964,"Delta":253201464},{"NoteNumber":75,"Velocity":39,"Duration":475964,"SoundDuration":475964,"Delta":253201464},{"NoteNumber":58,"Velocity":33,"Duration":475964,"SoundDuration":475964,"Delta":253201464},{"NoteNumber":51,"Velocity":33,"Duration":475964,"SoundDuration":475964,"Delta":253201464},{"NoteNumber":46,"Velocity":27,"Duration":114556,"SoundDuration":114556,"Delta":253677428},{"NoteNumber":51,"Velocity":27,"Duration":114556,"SoundDuration":114556,"Delta":253677428},{"NoteNumber":55,"Velocity":25,"Duration":114556,"SoundDuration":114556,"Delta":253791984},{"NoteNumber":61,"Velocity":28,"Duration":114556,"SoundDuration":114556,"Delta":253791984},{"NoteNumber":39,"Velocity":23,"Duration":114556,"SoundDuration":114556,"Delta":253906540},{"NoteNumber":63,"Velocity":29,"Duration":114556,"SoundDuration":114556,"Delta":254021096},{"NoteNumber":61,"Velocity":25,"Duration":114556,"SoundDuration":114556,"Delta":254021096},{"NoteNumber":55,"Velocity":25,"Duration":114556,"SoundDuration":114556,"Delta":254021096},{"NoteNumber":46,"Velocity":23,"Duration":116677,"SoundDuration":116677,"Delta":254135653},{"NoteNumber":51,"Velocity":23,"Duration":116677,"SoundDuration":116677,"Delta":254135653},{"NoteNumber":55,"Velocity":25,"Duration":116676,"SoundDuration":116676,"Delta":254252330},{"NoteNumber":58,"Velocity":25,"Duration":116676,"SoundDuration":116676,"Delta":254252330},{"NoteNumber":65,"Velocity":34,"Duration":116676,"SoundDuration":116676,"Delta":254252330},{"NoteNumber":39,"Velocity":26,"Duration":119779,"SoundDuration":119779,"Delta":254369007},{"NoteNumber":55,"Velocity":26,"Duration":119779,"SoundDuration":119779,"Delta":254488786},{"NoteNumber":61,"Velocity":26,"Duration":119779,"SoundDuration":119779,"Delta":254488786},{"NoteNumber":67,"Velocity":33,"Duration":119779,"SoundDuration":119779,"Delta":254488786},{"NoteNumber":46,"Velocity":29,"Duration":113318,"SoundDuration":113318,"Delta":254608566},{"NoteNumber":51,"Velocity":29,"Duration":113318,"SoundDuration":113318,"Delta":254608566},{"NoteNumber":55,"Velocity":27,"Duration":113318,"SoundDuration":113318,"Delta":254721884},{"NoteNumber":61,"Velocity":31,"Duration":113318,"SoundDuration":113318,"Delta":254721884},{"NoteNumber":39,"Velocity":27,"Duration":113318,"SoundDuration":113318,"Delta":254835203},{"NoteNumber":63,"Velocity":31,"Duration":113318,"SoundDuration":113318,"Delta":254948522},{"NoteNumber":55,"Velocity":27,"Duration":113318,"SoundDuration":113318,"Delta":254948522},{"NoteNumber":61,"Velocity":27,"Duration":113318,"SoundDuration":113318,"Delta":254948522},{"NoteNumber":46,"Velocity":27,"Duration":115821,"SoundDuration":115821,"Delta":255061841},{"NoteNumber":51,"Velocity":27,"Duration":115821,"SoundDuration":115821,"Delta":255061841},{"NoteNumber":55,"Velocity":28,"Duration":115821,"SoundDuration":115821,"Delta":255177662},{"NoteNumber":61,"Velocity":28,"Duration":115821,"SoundDuration":115821,"Delta":255177662},{"NoteNumber":65,"Velocity":36,"Duration":115821,"SoundDuration":115821,"Delta":255177662},{"NoteNumber":39,"Velocity":28,"Duration":119779,"SoundDuration":119779,"Delta":255293483},{"NoteNumber":55,"Velocity":28,"Duration":119779,"SoundDuration":119779,"Delta":255413263},{"NoteNumber":61,"Velocity":28,"Duration":119779,"SoundDuration":119779,"Delta":255413263},{"NoteNumber":67,"Velocity":33,"Duration":119779,"SoundDuration":119779,"Delta":255413263},{"NoteNumber":46,"Velocity":35,"Duration":111317,"SoundDuration":111317,"Delta":255533042},{"NoteNumber":51,"Velocity":35,"Duration":111317,"SoundDuration":111317,"Delta":255533042},{"NoteNumber":55,"Velocity":29,"Duration":111317,"SoundDuration":111317,"Delta":255644359},{"NoteNumber":61,"Velocity":34,"Duration":111317,"SoundDuration":111317,"Delta":255644359},{"NoteNumber":39,"Velocity":30,"Duration":111317,"SoundDuration":111317,"Delta":255755677},{"NoteNumber":63,"Velocity":34,"Duration":111317,"SoundDuration":111317,"Delta":255866994},{"NoteNumber":55,"Velocity":30,"Duration":111317,"SoundDuration":111317,"Delta":255866994},{"NoteNumber":61,"Velocity":30,"Duration":111317,"SoundDuration":111317,"Delta":255866994},{"NoteNumber":46,"Velocity":30,"Duration":114138,"SoundDuration":114138,"Delta":255978311},{"NoteNumber":51,"Velocity":30,"Duration":114138,"SoundDuration":114138,"Delta":255978311},{"NoteNumber":55,"Velocity":29,"Duration":114137,"SoundDuration":114137,"Delta":256092449},{"NoteNumber":61,"Velocity":29,"Duration":114137,"SoundDuration":114137,"Delta":256092449},{"NoteNumber":65,"Velocity":39,"Duration":114137,"SoundDuration":114137,"Delta":256092449},{"NoteNumber":39,"Velocity":30,"Duration":118877,"SoundDuration":118877,"Delta":256206587},{"NoteNumber":68,"Velocity":42,"Duration":118877,"SoundDuration":118877,"Delta":256325465},{"NoteNumber":46,"Velocity":36,"Duration":112107,"SoundDuration":112107,"Delta":256444343},{"NoteNumber":51,"Velocity":36,"Duration":112107,"SoundDuration":112107,"Delta":256444343},{"NoteNumber":55,"Velocity":31,"Duration":112107,"SoundDuration":112107,"Delta":256556450},{"NoteNumber":61,"Velocity":31,"Duration":112107,"SoundDuration":112107,"Delta":256556450},{"NoteNumber":67,"Velocity":38,"Duration":112107,"SoundDuration":112107,"Delta":256556450},{"NoteNumber":39,"Velocity":33,"Duration":112107,"SoundDuration":112107,"Delta":256668558},{"NoteNumber":63,"Velocity":38,"Duration":112107,"SoundDuration":112107,"Delta":256780665},{"NoteNumber":55,"Velocity":31,"Duration":112107,"SoundDuration":112107,"Delta":256780665},{"NoteNumber":61,"Velocity":31,"Duration":112107,"SoundDuration":112107,"Delta":256780665},{"NoteNumber":46,"Velocity":33,"Duration":115821,"SoundDuration":115821,"Delta":256892773},{"NoteNumber":51,"Velocity":33,"Duration":115821,"SoundDuration":115821,"Delta":256892773},{"NoteNumber":55,"Velocity":31,"Duration":115821,"SoundDuration":115821,"Delta":257008594},{"NoteNumber":61,"Velocity":31,"Duration":115821,"SoundDuration":115821,"Delta":257008594},{"NoteNumber":65,"Velocity":39,"Duration":115821,"SoundDuration":115821,"Delta":257008594},{"NoteNumber":39,"Velocity":33,"Duration":115821,"SoundDuration":115821,"Delta":257124415},{"NoteNumber":55,"Velocity":32,"Duration":115821,"SoundDuration":115821,"Delta":257240236},{"NoteNumber":61,"Velocity":38,"Duration":115821,"SoundDuration":115821,"Delta":257240236},{"NoteNumber":48,"Velocity":33,"Duration":114556,"SoundDuration":114556,"Delta":257356058},{"NoteNumber":51,"Velocity":33,"Duration":114556,"SoundDuration":114556,"Delta":257356058},{"NoteNumber":56,"Velocity":36,"Duration":114556,"SoundDuration":114556,"Delta":257470614},{"NoteNumber":63,"Velocity":36,"Duration":114556,"SoundDuration":114556,"Delta":257470614},{"NoteNumber":39,"Velocity":30,"Duration":114556,"SoundDuration":114556,"Delta":257585170},{"NoteNumber":63,"Velocity":35,"Duration":114556,"SoundDuration":114556,"Delta":257699726},{"NoteNumber":65,"Velocity":35,"Duration":114556,"SoundDuration":114556,"Delta":257699726},{"NoteNumber":56,"Velocity":35,"Duration":114556,"SoundDuration":114556,"Delta":257699726},{"NoteNumber":48,"Velocity":31,"Duration":116676,"SoundDuration":116676,"Delta":257814283},{"NoteNumber":51,"Velocity":31,"Duration":116676,"SoundDuration":116676,"Delta":257814283},{"NoteNumber":56,"Velocity":30,"Duration":116677,"SoundDuration":116677,"Delta":257930960},{"NoteNumber":63,"Velocity":30,"Duration":116677,"SoundDuration":116677,"Delta":257930960},{"NoteNumber":67,"Velocity":40,"Duration":116677,"SoundDuration":116677,"Delta":257930960},{"NoteNumber":39,"Velocity":30,"Duration":119779,"SoundDuration":119779,"Delta":258047637},{"NoteNumber":56,"Velocity":31,"Duration":119779,"SoundDuration":119779,"Delta":258167416},{"NoteNumber":63,"Velocity":31,"Duration":119779,"SoundDuration":119779,"Delta":258167416},{"NoteNumber":68,"Velocity":39,"Duration":119779,"SoundDuration":119779,"Delta":258167416},{"NoteNumber":48,"Velocity":34,"Duration":113318,"SoundDuration":113318,"Delta":258287196},{"NoteNumber":51,"Velocity":34,"Duration":113318,"SoundDuration":113318,"Delta":258287196},{"NoteNumber":56,"Velocity":31,"Duration":113318,"SoundDuration":113318,"Delta":258400514},{"NoteNumber":63,"Velocity":36,"Duration":113318,"SoundDuration":113318,"Delta":258400514},{"NoteNumber":39,"Velocity":31,"Duration":113318,"SoundDuration":113318,"Delta":258513833},{"NoteNumber":63,"Velocity":36,"Duration":113318,"SoundDuration":113318,"Delta":258627152},{"NoteNumber":56,"Velocity":31,"Duration":113318,"SoundDuration":113318,"Delta":258627152},{"NoteNumber":65,"Velocity":31,"Duration":113318,"SoundDuration":113318,"Delta":258627152},{"NoteNumber":48,"Velocity":32,"Duration":115821,"SoundDuration":115821,"Delta":258740471},{"NoteNumber":51,"Velocity":32,"Duration":115821,"SoundDuration":115821,"Delta":258740471},{"NoteNumber":56,"Velocity":32,"Duration":115821,"SoundDuration":115821,"Delta":258856292},{"NoteNumber":63,"Velocity":32,"Duration":115821,"SoundDuration":115821,"Delta":258856292},{"NoteNumber":67,"Velocity":41,"Duration":115821,"SoundDuration":115821,"Delta":258856292},{"NoteNumber":39,"Velocity":32,"Duration":119779,"SoundDuration":119779,"Delta":258972113},{"NoteNumber":56,"Velocity":32,"Duration":119779,"SoundDuration":119779,"Delta":259091893},{"NoteNumber":63,"Velocity":32,"Duration":119779,"SoundDuration":119779,"Delta":259091893},{"NoteNumber":68,"Velocity":39,"Duration":119779,"SoundDuration":119779,"Delta":259091893},{"NoteNumber":48,"Velocity":40,"Duration":111317,"SoundDuration":111317,"Delta":259211672},{"NoteNumber":51,"Velocity":40,"Duration":111317,"SoundDuration":111317,"Delta":259211672},{"NoteNumber":56,"Velocity":34,"Duration":111317,"SoundDuration":111317,"Delta":259322989},{"NoteNumber":63,"Velocity":39,"Duration":111317,"SoundDuration":111317,"Delta":259322989},{"NoteNumber":39,"Velocity":34,"Duration":111317,"SoundDuration":111317,"Delta":259434307},{"NoteNumber":63,"Velocity":39,"Duration":111317,"SoundDuration":111317,"Delta":259545624},{"NoteNumber":56,"Velocity":35,"Duration":111317,"SoundDuration":111317,"Delta":259545624},{"NoteNumber":65,"Velocity":35,"Duration":111317,"SoundDuration":111317,"Delta":259545624},{"NoteNumber":48,"Velocity":35,"Duration":114138,"SoundDuration":114138,"Delta":259656941},{"NoteNumber":51,"Velocity":35,"Duration":114138,"SoundDuration":114138,"Delta":259656941},{"NoteNumber":56,"Velocity":34,"Duration":114137,"SoundDuration":114137,"Delta":259771079},{"NoteNumber":63,"Velocity":34,"Duration":114137,"SoundDuration":114137,"Delta":259771079},{"NoteNumber":67,"Velocity":44,"Duration":114137,"SoundDuration":114137,"Delta":259771079},{"NoteNumber":39,"Velocity":35,"Duration":118877,"SoundDuration":118877,"Delta":259885217},{"NoteNumber":70,"Velocity":48,"Duration":118877,"SoundDuration":118877,"Delta":260004095},{"NoteNumber":48,"Velocity":42,"Duration":112107,"SoundDuration":112107,"Delta":260122973},{"NoteNumber":51,"Velocity":42,"Duration":112107,"SoundDuration":112107,"Delta":260122973},{"NoteNumber":56,"Velocity":36,"Duration":112107,"SoundDuration":112107,"Delta":260235080},{"NoteNumber":63,"Velocity":36,"Duration":112107,"SoundDuration":112107,"Delta":260235080},{"NoteNumber":68,"Velocity":44,"Duration":112107,"SoundDuration":112107,"Delta":260235080},{"NoteNumber":39,"Velocity":37,"Duration":112107,"SoundDuration":112107,"Delta":260347188},{"NoteNumber":63,"Velocity":44,"Duration":112107,"SoundDuration":112107,"Delta":260459295},{"NoteNumber":56,"Velocity":36,"Duration":112107,"SoundDuration":112107,"Delta":260459295},{"NoteNumber":65,"Velocity":36,"Duration":112107,"SoundDuration":112107,"Delta":260459295},{"NoteNumber":48,"Velocity":38,"Duration":116676,"SoundDuration":116676,"Delta":260571403},{"NoteNumber":51,"Velocity":38,"Duration":116676,"SoundDuration":116676,"Delta":260571403},{"NoteNumber":56,"Velocity":36,"Duration":116677,"SoundDuration":116677,"Delta":260688080},{"NoteNumber":63,"Velocity":36,"Duration":116677,"SoundDuration":116677,"Delta":260688080},{"NoteNumber":67,"Velocity":45,"Duration":116677,"SoundDuration":116677,"Delta":260688080},{"NoteNumber":39,"Velocity":38,"Duration":116676,"SoundDuration":116676,"Delta":260804757},{"NoteNumber":56,"Velocity":36,"Duration":116676,"SoundDuration":116676,"Delta":260921434},{"NoteNumber":63,"Velocity":43,"Duration":116676,"SoundDuration":116676,"Delta":260921434},{"NoteNumber":44,"Velocity":44,"Duration":116676,"SoundDuration":116676,"Delta":261038111},{"NoteNumber":54,"Velocity":44,"Duration":116676,"SoundDuration":116676,"Delta":261038111},{"NoteNumber":60,"Velocity":48,"Duration":116677,"SoundDuration":116677,"Delta":261154788},{"NoteNumber":66,"Velocity":48,"Duration":116677,"SoundDuration":116677,"Delta":261154788},{"NoteNumber":39,"Velocity":42,"Duration":116676,"SoundDuration":116676,"Delta":261271465},{"NoteNumber":66,"Velocity":44,"Duration":116676,"SoundDuration":116676,"Delta":261388142},{"NoteNumber":68,"Velocity":44,"Duration":116676,"SoundDuration":116676,"Delta":261388142},{"NoteNumber":60,"Velocity":44,"Duration":116676,"SoundDuration":116676,"Delta":261388142},{"NoteNumber":44,"Velocity":44,"Duration":116676,"SoundDuration":116676,"Delta":261504819},{"NoteNumber":54,"Velocity":44,"Duration":116676,"SoundDuration":116676,"Delta":261504819},{"NoteNumber":60,"Velocity":47,"Duration":116677,"SoundDuration":116677,"Delta":261621496},{"NoteNumber":66,"Velocity":47,"Duration":116677,"SoundDuration":116677,"Delta":261621496},{"NoteNumber":70,"Velocity":47,"Duration":116677,"SoundDuration":116677,"Delta":261621496},{"NoteNumber":39,"Velocity":39,"Duration":119779,"SoundDuration":119779,"Delta":261738173},{"NoteNumber":60,"Velocity":37,"Duration":119779,"SoundDuration":119779,"Delta":261857952},{"NoteNumber":66,"Velocity":37,"Duration":119779,"SoundDuration":119779,"Delta":261857952},{"NoteNumber":72,"Velocity":46,"Duration":119779,"SoundDuration":119779,"Delta":261857952},{"NoteNumber":44,"Velocity":45,"Duration":113731,"SoundDuration":113731,"Delta":261977732},{"NoteNumber":54,"Velocity":45,"Duration":113731,"SoundDuration":113731,"Delta":261977732},{"NoteNumber":60,"Velocity":48,"Duration":113731,"SoundDuration":113731,"Delta":262091463},{"NoteNumber":66,"Velocity":48,"Duration":113731,"SoundDuration":113731,"Delta":262091463},{"NoteNumber":39,"Velocity":42,"Duration":113731,"SoundDuration":113731,"Delta":262205194},{"NoteNumber":66,"Velocity":44,"Duration":113731,"SoundDuration":113731,"Delta":262318925},{"NoteNumber":60,"Velocity":37,"Duration":113731,"SoundDuration":113731,"Delta":262318925},{"NoteNumber":68,"Velocity":37,"Duration":113731,"SoundDuration":113731,"Delta":262318925},{"NoteNumber":44,"Velocity":42,"Duration":115821,"SoundDuration":115821,"Delta":262432657},{"NoteNumber":54,"Velocity":42,"Duration":115821,"SoundDuration":115821,"Delta":262432657},{"NoteNumber":60,"Velocity":47,"Duration":115821,"SoundDuration":115821,"Delta":262548478},{"NoteNumber":66,"Velocity":47,"Duration":115821,"SoundDuration":115821,"Delta":262548478},{"NoteNumber":70,"Velocity":47,"Duration":115821,"SoundDuration":115821,"Delta":262548478},{"NoteNumber":39,"Velocity":44,"Duration":119779,"SoundDuration":119779,"Delta":262664299},{"NoteNumber":60,"Velocity":37,"Duration":119779,"SoundDuration":119779,"Delta":262784079},{"NoteNumber":66,"Velocity":37,"Duration":119779,"SoundDuration":119779,"Delta":262784079},{"NoteNumber":72,"Velocity":45,"Duration":119779,"SoundDuration":119779,"Delta":262784079},{"NoteNumber":44,"Velocity":48,"Duration":114138,"SoundDuration":114138,"Delta":262903858},{"NoteNumber":54,"Velocity":48,"Duration":114138,"SoundDuration":114138,"Delta":262903858},{"NoteNumber":60,"Velocity":47,"Duration":114137,"SoundDuration":114137,"Delta":263017996},{"NoteNumber":66,"Velocity":47,"Duration":114137,"SoundDuration":114137,"Delta":263017996},{"NoteNumber":39,"Velocity":42,"Duration":114138,"SoundDuration":114138,"Delta":263132134},{"NoteNumber":66,"Velocity":46,"Duration":114137,"SoundDuration":114137,"Delta":263246272},{"NoteNumber":60,"Velocity":46,"Duration":114137,"SoundDuration":114137,"Delta":263246272},{"NoteNumber":68,"Velocity":46,"Duration":114137,"SoundDuration":114137,"Delta":263246272},{"NoteNumber":44,"Velocity":47,"Duration":116676,"SoundDuration":116676,"Delta":263360410},{"NoteNumber":54,"Velocity":47,"Duration":116676,"SoundDuration":116676,"Delta":263360410},{"NoteNumber":60,"Velocity":56,"Duration":116677,"SoundDuration":116677,"Delta":263477087},{"NoteNumber":66,"Velocity":56,"Duration":116677,"SoundDuration":116677,"Delta":263477087},{"NoteNumber":70,"Velocity":56,"Duration":116677,"SoundDuration":116677,"Delta":263477087},{"NoteNumber":39,"Velocity":44,"Duration":118877,"SoundDuration":118877,"Delta":263593764},{"NoteNumber":73,"Velocity":50,"Duration":118877,"SoundDuration":118877,"Delta":263712642},{"NoteNumber":44,"Velocity":50,"Duration":114556,"SoundDuration":114556,"Delta":263831520},{"NoteNumber":54,"Velocity":50,"Duration":114556,"SoundDuration":114556,"Delta":263831520},{"NoteNumber":60,"Velocity":55,"Duration":114556,"SoundDuration":114556,"Delta":263946076},{"NoteNumber":66,"Velocity":55,"Duration":114556,"SoundDuration":114556,"Delta":263946076},{"NoteNumber":72,"Velocity":55,"Duration":114556,"SoundDuration":114556,"Delta":263946076},{"NoteNumber":39,"Velocity":46,"Duration":114556,"SoundDuration":114556,"Delta":264060632},{"NoteNumber":68,"Velocity":48,"Duration":114556,"SoundDuration":114556,"Delta":264175188},{"NoteNumber":60,"Velocity":40,"Duration":114556,"SoundDuration":114556,"Delta":264175188},{"NoteNumber":66,"Velocity":40,"Duration":114556,"SoundDuration":114556,"Delta":264175188},{"NoteNumber":44,"Velocity":46,"Duration":115821,"SoundDuration":115821,"Delta":264289745},{"NoteNumber":54,"Velocity":46,"Duration":115821,"SoundDuration":115821,"Delta":264289745},{"NoteNumber":60,"Velocity":40,"Duration":115821,"SoundDuration":115821,"Delta":264405566},{"NoteNumber":66,"Velocity":40,"Duration":115821,"SoundDuration":115821,"Delta":264405566},{"NoteNumber":70,"Velocity":50,"Duration":115821,"SoundDuration":115821,"Delta":264405566},{"NoteNumber":39,"Velocity":46,"Duration":115821,"SoundDuration":115821,"Delta":264521387},{"NoteNumber":60,"Velocity":40,"Duration":115821,"SoundDuration":115821,"Delta":264637208},{"NoteNumber":66,"Velocity":47,"Duration":115821,"SoundDuration":115821,"Delta":264637208},{"NoteNumber":44,"Velocity":50,"Duration":114556,"SoundDuration":114556,"Delta":264753030},{"NoteNumber":53,"Velocity":50,"Duration":114556,"SoundDuration":114556,"Delta":264753030},{"NoteNumber":61,"Velocity":59,"Duration":114556,"SoundDuration":114556,"Delta":264867586},{"NoteNumber":68,"Velocity":59,"Duration":114556,"SoundDuration":114556,"Delta":264867586},{"NoteNumber":39,"Velocity":46,"Duration":114556,"SoundDuration":114556,"Delta":264982142},{"NoteNumber":68,"Velocity":52,"Duration":114556,"SoundDuration":114556,"Delta":265096698},{"NoteNumber":70,"Velocity":52,"Duration":114556,"SoundDuration":114556,"Delta":265096698},{"NoteNumber":61,"Velocity":52,"Duration":114556,"SoundDuration":114556,"Delta":265096698},{"NoteNumber":44,"Velocity":48,"Duration":116676,"SoundDuration":116676,"Delta":265211255},{"NoteNumber":53,"Velocity":48,"Duration":116676,"SoundDuration":116676,"Delta":265211255},{"NoteNumber":61,"Velocity":57,"Duration":116677,"SoundDuration":116677,"Delta":265327932},{"NoteNumber":68,"Velocity":57,"Duration":116677,"SoundDuration":116677,"Delta":265327932},{"NoteNumber":72,"Velocity":57,"Duration":116677,"SoundDuration":116677,"Delta":265327932},{"NoteNumber":39,"Velocity":46,"Duration":119779,"SoundDuration":119779,"Delta":265444609},{"NoteNumber":61,"Velocity":55,"Duration":119779,"SoundDuration":119779,"Delta":265564388},{"NoteNumber":68,"Velocity":55,"Duration":119779,"SoundDuration":119779,"Delta":265564388},{"NoteNumber":73,"Velocity":55,"Duration":119779,"SoundDuration":119779,"Delta":265564388},{"NoteNumber":44,"Velocity":51,"Duration":112909,"SoundDuration":112909,"Delta":265684168},{"NoteNumber":53,"Velocity":51,"Duration":112909,"SoundDuration":112909,"Delta":265684168},{"NoteNumber":61,"Velocity":59,"Duration":112909,"SoundDuration":112909,"Delta":265797077},{"NoteNumber":68,"Velocity":59,"Duration":112909,"SoundDuration":112909,"Delta":265797077},{"NoteNumber":39,"Velocity":47,"Duration":112909,"SoundDuration":112909,"Delta":265909986},{"NoteNumber":68,"Velocity":53,"Duration":112909,"SoundDuration":112909,"Delta":266022895},{"NoteNumber":61,"Velocity":53,"Duration":112909,"SoundDuration":112909,"Delta":266022895},{"NoteNumber":70,"Velocity":53,"Duration":112909,"SoundDuration":112909,"Delta":266022895},{"NoteNumber":44,"Velocity":50,"Duration":115821,"SoundDuration":115821,"Delta":266135805},{"NoteNumber":53,"Velocity":50,"Duration":115821,"SoundDuration":115821,"Delta":266135805},{"NoteNumber":61,"Velocity":59,"Duration":115821,"SoundDuration":115821,"Delta":266251626},{"NoteNumber":68,"Velocity":59,"Duration":115821,"SoundDuration":115821,"Delta":266251626},{"NoteNumber":72,"Velocity":59,"Duration":115821,"SoundDuration":115821,"Delta":266251626},{"NoteNumber":39,"Velocity":47,"Duration":119779,"SoundDuration":119779,"Delta":266367447},{"NoteNumber":61,"Velocity":55,"Duration":119779,"SoundDuration":119779,"Delta":266487227},{"NoteNumber":68,"Velocity":55,"Duration":119779,"SoundDuration":119779,"Delta":266487227},{"NoteNumber":73,"Velocity":55,"Duration":119779,"SoundDuration":119779,"Delta":266487227},{"NoteNumber":44,"Velocity":60,"Duration":111715,"SoundDuration":111715,"Delta":266607006},{"NoteNumber":53,"Velocity":60,"Duration":111715,"SoundDuration":111715,"Delta":266607006},{"NoteNumber":61,"Velocity":59,"Duration":111715,"SoundDuration":111715,"Delta":266718721},{"NoteNumber":68,"Velocity":59,"Duration":111715,"SoundDuration":111715,"Delta":266718721},{"NoteNumber":39,"Velocity":50,"Duration":111715,"SoundDuration":111715,"Delta":266830437},{"NoteNumber":68,"Velocity":57,"Duration":111715,"SoundDuration":111715,"Delta":266942152},{"NoteNumber":61,"Velocity":57,"Duration":111715,"SoundDuration":111715,"Delta":266942152},{"NoteNumber":70,"Velocity":57,"Duration":111715,"SoundDuration":111715,"Delta":266942152},{"NoteNumber":44,"Velocity":56,"Duration":114138,"SoundDuration":114138,"Delta":267053867},{"NoteNumber":53,"Velocity":56,"Duration":114138,"SoundDuration":114138,"Delta":267053867},{"NoteNumber":61,"Velocity":64,"Duration":114137,"SoundDuration":114137,"Delta":267168005},{"NoteNumber":68,"Velocity":64,"Duration":114137,"SoundDuration":114137,"Delta":267168005},{"NoteNumber":72,"Velocity":64,"Duration":114137,"SoundDuration":114137,"Delta":267168005},{"NoteNumber":39,"Velocity":51,"Duration":112511,"SoundDuration":112511,"Delta":267282143},{"NoteNumber":75,"Velocity":64,"Duration":112511,"SoundDuration":112511,"Delta":267394654},{"NoteNumber":44,"Velocity":59,"Duration":112107,"SoundDuration":112107,"Delta":267507166},{"NoteNumber":53,"Velocity":59,"Duration":112107,"SoundDuration":112107,"Delta":267507166},{"NoteNumber":61,"Velocity":62,"Duration":112107,"SoundDuration":112107,"Delta":267619273},{"NoteNumber":68,"Velocity":62,"Duration":112107,"SoundDuration":112107,"Delta":267619273},{"NoteNumber":73,"Velocity":62,"Duration":112107,"SoundDuration":112107,"Delta":267619273},{"NoteNumber":39,"Velocity":53,"Duration":112107,"SoundDuration":112107,"Delta":267731381},{"NoteNumber":70,"Velocity":59,"Duration":112107,"SoundDuration":112107,"Delta":267843488},{"NoteNumber":61,"Velocity":48,"Duration":112107,"SoundDuration":112107,"Delta":267843488},{"NoteNumber":68,"Velocity":48,"Duration":112107,"SoundDuration":112107,"Delta":267843488},{"NoteNumber":44,"Velocity":57,"Duration":115821,"SoundDuration":115821,"Delta":267955596},{"NoteNumber":53,"Velocity":57,"Duration":115821,"SoundDuration":115821,"Delta":267955596},{"NoteNumber":61,"Velocity":48,"Duration":115821,"SoundDuration":115821,"Delta":268071417},{"NoteNumber":68,"Velocity":48,"Duration":115821,"SoundDuration":115821,"Delta":268071417},{"NoteNumber":72,"Velocity":61,"Duration":115821,"SoundDuration":115821,"Delta":268071417},{"NoteNumber":39,"Velocity":53,"Duration":115821,"SoundDuration":115821,"Delta":268187238},{"NoteNumber":61,"Velocity":48,"Duration":115821,"SoundDuration":115821,"Delta":268303059},{"NoteNumber":68,"Velocity":57,"Duration":115821,"SoundDuration":115821,"Delta":268303059},{"NoteNumber":39,"Velocity":60,"Duration":223430,"SoundDuration":223430,"Delta":268418881},{"NoteNumber":46,"Velocity":60,"Duration":223430,"SoundDuration":223430,"Delta":268418881},{"NoteNumber":53,"Velocity":60,"Duration":223430,"SoundDuration":223430,"Delta":268418881},{"NoteNumber":62,"Velocity":71,"Duration":111715,"SoundDuration":111715,"Delta":268530596},{"NoteNumber":68,"Velocity":71,"Duration":111715,"SoundDuration":111715,"Delta":268530596},{"NoteNumber":39,"Velocity":55,"Duration":223430,"SoundDuration":223430,"Delta":268642311},{"NoteNumber":46,"Velocity":55,"Duration":223430,"SoundDuration":223430,"Delta":268642311},{"NoteNumber":53,"Velocity":55,"Duration":223430,"SoundDuration":223430,"Delta":268642311},{"NoteNumber":68,"Velocity":63,"Duration":111715,"SoundDuration":111715,"Delta":268754026},{"NoteNumber":62,"Velocity":63,"Duration":111715,"SoundDuration":111715,"Delta":268754026},{"NoteNumber":70,"Velocity":63,"Duration":111715,"SoundDuration":111715,"Delta":268754026},{"NoteNumber":39,"Velocity":57,"Duration":459918,"SoundDuration":459918,"Delta":268865742},{"NoteNumber":46,"Velocity":57,"Duration":459918,"SoundDuration":459918,"Delta":268865742},{"NoteNumber":53,"Velocity":57,"Duration":459918,"SoundDuration":459918,"Delta":268865742},{"NoteNumber":62,"Velocity":70,"Duration":114137,"SoundDuration":114137,"Delta":268979880},{"NoteNumber":68,"Velocity":70,"Duration":114137,"SoundDuration":114137,"Delta":268979880},{"NoteNumber":72,"Velocity":70,"Duration":114137,"SoundDuration":114137,"Delta":268979880},{"NoteNumber":75,"Velocity":75,"Duration":115821,"SoundDuration":115821,"Delta":269209839},{"NoteNumber":51,"Velocity":53,"Duration":221844,"SoundDuration":221844,"Delta":269325660},{"NoteNumber":58,"Velocity":53,"Duration":221844,"SoundDuration":221844,"Delta":269325660},{"NoteNumber":65,"Velocity":53,"Duration":221844,"SoundDuration":221844,"Delta":269325660},{"NoteNumber":62,"Velocity":69,"Duration":110922,"SoundDuration":110922,"Delta":269436582},{"NoteNumber":68,"Velocity":69,"Duration":110922,"SoundDuration":110922,"Delta":269436582},{"NoteNumber":74,"Velocity":69,"Duration":110922,"SoundDuration":110922,"Delta":269436582},{"NoteNumber":51,"Velocity":53,"Duration":221844,"SoundDuration":221844,"Delta":269547505},{"NoteNumber":58,"Velocity":53,"Duration":221844,"SoundDuration":221844,"Delta":269547505},{"NoteNumber":65,"Velocity":53,"Duration":221844,"SoundDuration":221844,"Delta":269547505},{"NoteNumber":70,"Velocity":63,"Duration":110922,"SoundDuration":110922,"Delta":269658427},{"NoteNumber":62,"Velocity":52,"Duration":110922,"SoundDuration":110922,"Delta":269658427},{"NoteNumber":68,"Velocity":52,"Duration":110922,"SoundDuration":110922,"Delta":269658427},{"NoteNumber":51,"Velocity":61,"Duration":458225,"SoundDuration":458225,"Delta":269769349},{"NoteNumber":58,"Velocity":61,"Duration":458225,"SoundDuration":458225,"Delta":269769349},{"NoteNumber":65,"Velocity":61,"Duration":458225,"SoundDuration":458225,"Delta":269769349},{"NoteNumber":62,"Velocity":52,"Duration":114556,"SoundDuration":114556,"Delta":269883905},{"NoteNumber":68,"Velocity":52,"Duration":114556,"SoundDuration":114556,"Delta":269883905},{"NoteNumber":72,"Velocity":66,"Duration":114556,"SoundDuration":114556,"Delta":269883905},{"NoteNumber":68,"Velocity":62,"Duration":114556,"SoundDuration":114556,"Delta":270113018},{"NoteNumber":39,"Velocity":59,"Duration":222634,"SoundDuration":222634,"Delta":270227574},{"NoteNumber":46,"Velocity":59,"Duration":222634,"SoundDuration":222634,"Delta":270227574},{"NoteNumber":53,"Velocity":59,"Duration":222634,"SoundDuration":222634,"Delta":270227574},{"NoteNumber":74,"Velocity":70,"Duration":111317,"SoundDuration":111317,"Delta":270338891},{"NoteNumber":72,"Velocity":70,"Duration":111317,"SoundDuration":111317,"Delta":270338891},{"NoteNumber":68,"Velocity":70,"Duration":111317,"SoundDuration":111317,"Delta":270338891},{"NoteNumber":39,"Velocity":55,"Duration":222634,"SoundDuration":222634,"Delta":270450209},{"NoteNumber":46,"Velocity":55,"Duration":222634,"SoundDuration":222634,"Delta":270450209},{"NoteNumber":53,"Velocity":55,"Duration":222634,"SoundDuration":222634,"Delta":270450209},{"NoteNumber":68,"Velocity":66,"Duration":111317,"SoundDuration":111317,"Delta":270561526},{"NoteNumber":75,"Velocity":66,"Duration":111317,"SoundDuration":111317,"Delta":270561526},{"NoteNumber":72,"Velocity":66,"Duration":111317,"SoundDuration":111317,"Delta":270561526},{"NoteNumber":39,"Velocity":59,"Duration":460755,"SoundDuration":460755,"Delta":270672843},{"NoteNumber":46,"Velocity":59,"Duration":460755,"SoundDuration":460755,"Delta":270672843},{"NoteNumber":53,"Velocity":59,"Duration":460755,"SoundDuration":460755,"Delta":270672843},{"NoteNumber":77,"Velocity":72,"Duration":114556,"SoundDuration":114556,"Delta":270787399},{"NoteNumber":68,"Velocity":72,"Duration":114556,"SoundDuration":114556,"Delta":270787399},{"NoteNumber":72,"Velocity":72,"Duration":114556,"SoundDuration":114556,"Delta":270787399},{"NoteNumber":80,"Velocity":81,"Duration":115821,"SoundDuration":115821,"Delta":271017777},{"NoteNumber":51,"Velocity":61,"Duration":222634,"SoundDuration":222634,"Delta":271133598},{"NoteNumber":58,"Velocity":61,"Duration":222634,"SoundDuration":222634,"Delta":271133598},{"NoteNumber":65,"Velocity":61,"Duration":222634,"SoundDuration":222634,"Delta":271133598},{"NoteNumber":79,"Velocity":80,"Duration":111317,"SoundDuration":111317,"Delta":271244915},{"NoteNumber":68,"Velocity":80,"Duration":111317,"SoundDuration":111317,"Delta":271244915},{"NoteNumber":72,"Velocity":80,"Duration":111317,"SoundDuration":111317,"Delta":271244915},{"NoteNumber":51,"Velocity":56,"Duration":222634,"SoundDuration":222634,"Delta":271356233},{"NoteNumber":58,"Velocity":56,"Duration":222634,"SoundDuration":222634,"Delta":271356233},{"NoteNumber":65,"Velocity":56,"Duration":222634,"SoundDuration":222634,"Delta":271356233},{"NoteNumber":72,"Velocity":72,"Duration":111317,"SoundDuration":111317,"Delta":271467550},{"NoteNumber":75,"Velocity":72,"Duration":111317,"SoundDuration":111317,"Delta":271467550},{"NoteNumber":68,"Velocity":72,"Duration":111317,"SoundDuration":111317,"Delta":271467550},{"NoteNumber":51,"Velocity":64,"Duration":455809,"SoundDuration":455809,"Delta":271578867},{"NoteNumber":58,"Velocity":64,"Duration":455809,"SoundDuration":455809,"Delta":271578867},{"NoteNumber":65,"Velocity":64,"Duration":455809,"SoundDuration":455809,"Delta":271578867},{"NoteNumber":77,"Velocity":80,"Duration":115393,"SoundDuration":115393,"Delta":271694261},{"NoteNumber":68,"Velocity":80,"Duration":115393,"SoundDuration":115393,"Delta":271694261},{"NoteNumber":72,"Velocity":80,"Duration":115393,"SoundDuration":115393,"Delta":271694261},{"NoteNumber":74,"Velocity":66,"Duration":112511,"SoundDuration":112511,"Delta":271922165},{"NoteNumber":65,"Velocity":75,"Duration":111317,"SoundDuration":111317,"Delta":272034677},{"NoteNumber":53,"Velocity":75,"Duration":111317,"SoundDuration":111317,"Delta":272034677},{"NoteNumber":77,"Velocity":75,"Duration":111317,"SoundDuration":111317,"Delta":272145994},{"NoteNumber":55,"Velocity":75,"Duration":111317,"SoundDuration":111317,"Delta":272257311},{"NoteNumber":67,"Velocity":75,"Duration":111317,"SoundDuration":111317,"Delta":272257311},{"NoteNumber":79,"Velocity":75,"Duration":111317,"SoundDuration":111317,"Delta":272368628},{"NoteNumber":68,"Velocity":82,"Duration":109003,"SoundDuration":109003,"Delta":272479946},{"NoteNumber":56,"Velocity":82,"Duration":109003,"SoundDuration":109003,"Delta":272479946},{"NoteNumber":80,"Velocity":81,"Duration":109003,"SoundDuration":109003,"Delta":272588949},{"NoteNumber":72,"Velocity":75,"Duration":106428,"SoundDuration":106428,"Delta":272697953},{"NoteNumber":60,"Velocity":75,"Duration":106428,"SoundDuration":106428,"Delta":272697953},{"NoteNumber":84,"Velocity":75,"Duration":106428,"SoundDuration":106428,"Delta":272804381},{"NoteNumber":68,"Velocity":75,"Duration":106066,"SoundDuration":106066,"Delta":272910810},{"NoteNumber":56,"Velocity":75,"Duration":106066,"SoundDuration":106066,"Delta":272910810},{"NoteNumber":80,"Velocity":75,"Duration":106066,"SoundDuration":106066,"Delta":273016877},{"NoteNumber":65,"Velocity":75,"Duration":105715,"SoundDuration":105715,"Delta":273122944},{"NoteNumber":53,"Velocity":75,"Duration":105715,"SoundDuration":105715,"Delta":273122944},{"NoteNumber":77,"Velocity":75,"Duration":105656,"SoundDuration":105656,"Delta":273228659},{"NoteNumber":68,"Velocity":82,"Duration":216512,"SoundDuration":216512,"Delta":273334316},{"NoteNumber":56,"Velocity":82,"Duration":216512,"SoundDuration":216512,"Delta":273334316},{"NoteNumber":80,"Velocity":81,"Duration":108256,"SoundDuration":108256,"Delta":273442572},{"NoteNumber":65,"Velocity":75,"Duration":209321,"SoundDuration":209321,"Delta":273550828},{"NoteNumber":53,"Velocity":75,"Duration":209321,"SoundDuration":209321,"Delta":273550828},{"NoteNumber":77,"Velocity":75,"Duration":104660,"SoundDuration":104660,"Delta":273655489},{"NoteNumber":62,"Velocity":75,"Duration":209321,"SoundDuration":209321,"Delta":273760150},{"NoteNumber":50,"Velocity":75,"Duration":209321,"SoundDuration":209321,"Delta":273760150},{"NoteNumber":74,"Velocity":75,"Duration":104660,"SoundDuration":104660,"Delta":273864811},{"NoteNumber":53,"Velocity":75,"Duration":209322,"SoundDuration":209322,"Delta":273969472},{"NoteNumber":65,"Velocity":75,"Duration":209322,"SoundDuration":209322,"Delta":273969472},{"NoteNumber":77,"Velocity":75,"Duration":104661,"SoundDuration":104661,"Delta":274074133},{"NoteNumber":50,"Velocity":82,"Duration":213584,"SoundDuration":213584,"Delta":274178794},{"NoteNumber":62,"Velocity":82,"Duration":213584,"SoundDuration":213584,"Delta":274178794},{"NoteNumber":74,"Velocity":81,"Duration":106792,"SoundDuration":106792,"Delta":274285586},{"NoteNumber":46,"Velocity":75,"Duration":207943,"SoundDuration":207943,"Delta":274392378},{"NoteNumber":58,"Velocity":75,"Duration":207943,"SoundDuration":207943,"Delta":274392378},{"NoteNumber":70,"Velocity":75,"Duration":103971,"SoundDuration":103971,"Delta":274496350},{"NoteNumber":62,"Velocity":75,"Duration":207943,"SoundDuration":207943,"Delta":274600322},{"NoteNumber":50,"Velocity":75,"Duration":207943,"SoundDuration":207943,"Delta":274600322},{"NoteNumber":74,"Velocity":75,"Duration":103971,"SoundDuration":103971,"Delta":274704293},{"NoteNumber":46,"Velocity":75,"Duration":207943,"SoundDuration":207943,"Delta":274808265},{"NoteNumber":58,"Velocity":75,"Duration":207943,"SoundDuration":207943,"Delta":274808265},{"NoteNumber":70,"Velocity":75,"Duration":103971,"SoundDuration":103971,"Delta":274912237},{"NoteNumber":43,"Velocity":82,"Duration":213584,"SoundDuration":213584,"Delta":275016209},{"NoteNumber":55,"Velocity":82,"Duration":213584,"SoundDuration":213584,"Delta":275016209},{"NoteNumber":67,"Velocity":81,"Duration":106792,"SoundDuration":106792,"Delta":275123001},{"NoteNumber":46,"Velocity":75,"Duration":207943,"SoundDuration":207943,"Delta":275229793},{"NoteNumber":58,"Velocity":75,"Duration":207943,"SoundDuration":207943,"Delta":275229793},{"NoteNumber":70,"Velocity":75,"Duration":103971,"SoundDuration":103971,"Delta":275333764},{"NoteNumber":43,"Velocity":75,"Duration":207943,"SoundDuration":207943,"Delta":275437736},{"NoteNumber":55,"Velocity":75,"Duration":207943,"SoundDuration":207943,"Delta":275437736},{"NoteNumber":67,"Velocity":75,"Duration":103971,"SoundDuration":103971,"Delta":275541708},{"NoteNumber":39,"Velocity":75,"Duration":207943,"SoundDuration":207943,"Delta":275645680},{"NoteNumber":51,"Velocity":75,"Duration":207943,"SoundDuration":207943,"Delta":275645680},{"NoteNumber":63,"Velocity":75,"Duration":103971,"SoundDuration":103971,"Delta":275749651},{"NoteNumber":43,"Velocity":85,"Duration":218007,"SoundDuration":218007,"Delta":275853623},{"NoteNumber":55,"Velocity":85,"Duration":218007,"SoundDuration":218007,"Delta":275853623},{"NoteNumber":67,"Velocity":85,"Duration":109003,"SoundDuration":109003,"Delta":275962627},{"NoteNumber":39,"Velocity":79,"Duration":210010,"SoundDuration":210010,"Delta":276071631},{"NoteNumber":51,"Velocity":79,"Duration":210010,"SoundDuration":210010,"Delta":276071631},{"NoteNumber":63,"Velocity":80,"Duration":105005,"SoundDuration":105005,"Delta":276176636},{"NoteNumber":36,"Velocity":79,"Duration":210010,"SoundDuration":210010,"Delta":276281641},{"NoteNumber":48,"Velocity":79,"Duration":210010,"SoundDuration":210010,"Delta":276281641},{"NoteNumber":60,"Velocity":80,"Duration":105005,"SoundDuration":105005,"Delta":276386646},{"NoteNumber":39,"Velocity":79,"Duration":210010,"SoundDuration":210010,"Delta":276491652},{"NoteNumber":51,"Velocity":79,"Duration":210010,"SoundDuration":210010,"Delta":276491652},{"NoteNumber":63,"Velocity":80,"Duration":105005,"SoundDuration":105005,"Delta":276596657},{"NoteNumber":36,"Velocity":85,"Duration":221075,"SoundDuration":221075,"Delta":276701662},{"NoteNumber":48,"Velocity":85,"Duration":221075,"SoundDuration":221075,"Delta":276701662},{"NoteNumber":60,"Velocity":93,"Duration":110537,"SoundDuration":110537,"Delta":276812200},{"NoteNumber":32,"Velocity":81,"Duration":219070,"SoundDuration":219070,"Delta":276922738},{"NoteNumber":44,"Velocity":81,"Duration":219070,"SoundDuration":219070,"Delta":276922738},{"NoteNumber":56,"Velocity":86,"Duration":110932,"SoundDuration":110932,"Delta":277030876},{"NoteNumber":36,"Velocity":86,"Duration":231058,"SoundDuration":231058,"Delta":277141809},{"NoteNumber":48,"Velocity":86,"Duration":231058,"SoundDuration":231058,"Delta":277141809},{"NoteNumber":60,"Velocity":89,"Duration":117117,"SoundDuration":117117,"Delta":277255750},{"NoteNumber":32,"Velocity":95,"Duration":243056,"SoundDuration":243056,"Delta":277372867},{"NoteNumber":44,"Velocity":95,"Duration":243056,"SoundDuration":243056,"Delta":277372867},{"NoteNumber":56,"Velocity":103,"Duration":122578,"SoundDuration":122578,"Delta":277493345},{"NoteNumber":55,"Velocity":108,"Duration":1806863,"SoundDuration":1806863,"Delta":277615924},{"NoteNumber":31,"Velocity":90,"Duration":1806863,"SoundDuration":1806863,"Delta":277615924},{"NoteNumber":43,"Velocity":107,"Duration":1806863,"SoundDuration":1806863,"Delta":277615924},{"NoteNumber":68,"Velocity":93,"Duration":448430,"SoundDuration":448430,"Delta":278064354},{"NoteNumber":56,"Velocity":83,"Duration":448430,"SoundDuration":448430,"Delta":278064354},{"NoteNumber":60,"Velocity":83,"Duration":448430,"SoundDuration":448430,"Delta":278064354},{"NoteNumber":63,"Velocity":83,"Duration":448430,"SoundDuration":448430,"Delta":278064354},{"NoteNumber":51,"Velocity":88,"Duration":448430,"SoundDuration":448430,"Delta":278064354},{"NoteNumber":48,"Velocity":74,"Duration":448430,"SoundDuration":448430,"Delta":278064354},{"NoteNumber":44,"Velocity":74,"Duration":448430,"SoundDuration":448430,"Delta":278064354},{"NoteNumber":80,"Velocity":93,"Duration":448429,"SoundDuration":448429,"Delta":278512784},{"NoteNumber":75,"Velocity":83,"Duration":448429,"SoundDuration":448429,"Delta":278512784},{"NoteNumber":68,"Velocity":83,"Duration":448429,"SoundDuration":448429,"Delta":278512784},{"NoteNumber":72,"Velocity":83,"Duration":448429,"SoundDuration":448429,"Delta":278512784},{"NoteNumber":63,"Velocity":88,"Duration":448429,"SoundDuration":448429,"Delta":278512784},{"NoteNumber":60,"Velocity":74,"Duration":448429,"SoundDuration":448429,"Delta":278512784},{"NoteNumber":56,"Velocity":74,"Duration":448429,"SoundDuration":448429,"Delta":278512784},{"NoteNumber":92,"Velocity":91,"Duration":461573,"SoundDuration":461573,"Delta":278961214},{"NoteNumber":87,"Velocity":81,"Duration":461573,"SoundDuration":461573,"Delta":278961214},{"NoteNumber":84,"Velocity":81,"Duration":461573,"SoundDuration":461573,"Delta":278961214},{"NoteNumber":80,"Velocity":81,"Duration":461573,"SoundDuration":461573,"Delta":278961214},{"NoteNumber":75,"Velocity":88,"Duration":461573,"SoundDuration":461573,"Delta":278961214},{"NoteNumber":72,"Velocity":74,"Duration":461573,"SoundDuration":461573,"Delta":278961214},{"NoteNumber":68,"Velocity":74,"Duration":461573,"SoundDuration":461573,"Delta":278961214},{"NoteNumber":54,"Velocity":108,"Duration":1793720,"SoundDuration":1793720,"Delta":279422788},{"NoteNumber":30,"Velocity":90,"Duration":1793720,"SoundDuration":1793720,"Delta":279422788},{"NoteNumber":42,"Velocity":107,"Duration":1793720,"SoundDuration":1793720,"Delta":279422788},{"NoteNumber":68,"Velocity":93,"Duration":448430,"SoundDuration":448430,"Delta":279871218},{"NoteNumber":56,"Velocity":83,"Duration":448430,"SoundDuration":448430,"Delta":279871218},{"NoteNumber":60,"Velocity":83,"Duration":448430,"SoundDuration":448430,"Delta":279871218},{"NoteNumber":63,"Velocity":83,"Duration":448430,"SoundDuration":448430,"Delta":279871218},{"NoteNumber":51,"Velocity":88,"Duration":448430,"SoundDuration":448430,"Delta":279871218},{"NoteNumber":48,"Velocity":74,"Duration":448430,"SoundDuration":448430,"Delta":279871218},{"NoteNumber":44,"Velocity":74,"Duration":448430,"SoundDuration":448430,"Delta":279871218},{"NoteNumber":80,"Velocity":93,"Duration":448429,"SoundDuration":448429,"Delta":280319648},{"NoteNumber":75,"Velocity":83,"Duration":448429,"SoundDuration":448429,"Delta":280319648},{"NoteNumber":68,"Velocity":83,"Duration":448429,"SoundDuration":448429,"Delta":280319648},{"NoteNumber":72,"Velocity":83,"Duration":448429,"SoundDuration":448429,"Delta":280319648},{"NoteNumber":63,"Velocity":88,"Duration":448429,"SoundDuration":448429,"Delta":280319648},{"NoteNumber":60,"Velocity":74,"Duration":448429,"SoundDuration":448429,"Delta":280319648},{"NoteNumber":56,"Velocity":74,"Duration":448429,"SoundDuration":448429,"Delta":280319648},{"NoteNumber":92,"Velocity":91,"Duration":448430,"SoundDuration":448430,"Delta":280768078},{"NoteNumber":87,"Velocity":81,"Duration":448430,"SoundDuration":448430,"Delta":280768078},{"NoteNumber":84,"Velocity":81,"Duration":448430,"SoundDuration":448430,"Delta":280768078},{"NoteNumber":80,"Velocity":81,"Duration":448430,"SoundDuration":448430,"Delta":280768078},{"NoteNumber":75,"Velocity":88,"Duration":448430,"SoundDuration":448430,"Delta":280768078},{"NoteNumber":72,"Velocity":74,"Duration":448430,"SoundDuration":448430,"Delta":280768078},{"NoteNumber":68,"Velocity":74,"Duration":448430,"SoundDuration":448430,"Delta":280768078},{"NoteNumber":53,"Velocity":111,"Duration":1813420,"SoundDuration":1813420,"Delta":281216508},{"NoteNumber":29,"Velocity":93,"Duration":1813420,"SoundDuration":1813420,"Delta":281216508},{"NoteNumber":41,"Velocity":110,"Duration":1813420,"SoundDuration":1813420,"Delta":281216508},{"NoteNumber":68,"Velocity":93,"Duration":450044,"SoundDuration":450044,"Delta":281679793},{"NoteNumber":56,"Velocity":83,"Duration":450044,"SoundDuration":450044,"Delta":281679793},{"NoteNumber":59,"Velocity":83,"Duration":450044,"SoundDuration":450044,"Delta":281679793},{"NoteNumber":63,"Velocity":83,"Duration":450044,"SoundDuration":450044,"Delta":281679793},{"NoteNumber":51,"Velocity":88,"Duration":450044,"SoundDuration":450044,"Delta":281679793},{"NoteNumber":47,"Velocity":74,"Duration":450044,"SoundDuration":450044,"Delta":281679793},{"NoteNumber":44,"Velocity":74,"Duration":450044,"SoundDuration":450044,"Delta":281679793},{"NoteNumber":80,"Velocity":93,"Duration":450044,"SoundDuration":450044,"Delta":282129838},{"NoteNumber":75,"Velocity":83,"Duration":450044,"SoundDuration":450044,"Delta":282129838},{"NoteNumber":68,"Velocity":83,"Duration":450044,"SoundDuration":450044,"Delta":282129838},{"NoteNumber":71,"Velocity":83,"Duration":450044,"SoundDuration":450044,"Delta":282129838},{"NoteNumber":63,"Velocity":88,"Duration":450044,"SoundDuration":450044,"Delta":282129838},{"NoteNumber":59,"Velocity":74,"Duration":450044,"SoundDuration":450044,"Delta":282129838},{"NoteNumber":56,"Velocity":74,"Duration":450044,"SoundDuration":450044,"Delta":282129838},{"NoteNumber":92,"Velocity":91,"Duration":450045,"SoundDuration":450045,"Delta":282579883},{"NoteNumber":87,"Velocity":81,"Duration":450045,"SoundDuration":450045,"Delta":282579883},{"NoteNumber":83,"Velocity":81,"Duration":450045,"SoundDuration":450045,"Delta":282579883},{"NoteNumber":80,"Velocity":81,"Duration":450045,"SoundDuration":450045,"Delta":282579883},{"NoteNumber":75,"Velocity":88,"Duration":450045,"SoundDuration":450045,"Delta":282579883},{"NoteNumber":71,"Velocity":74,"Duration":450045,"SoundDuration":450045,"Delta":282579883},{"NoteNumber":68,"Velocity":74,"Duration":450045,"SoundDuration":450045,"Delta":282579883},{"NoteNumber":52,"Velocity":111,"Duration":1504338,"SoundDuration":1504338,"Delta":283029928},{"NoteNumber":28,"Velocity":93,"Duration":2217410,"SoundDuration":2217410,"Delta":283029928},{"NoteNumber":40,"Velocity":110,"Duration":983640,"SoundDuration":983640,"Delta":283029928},{"NoteNumber":57,"Velocity":83,"Duration":508129,"SoundDuration":508129,"Delta":283505439},{"NoteNumber":69,"Velocity":93,"Duration":508129,"SoundDuration":508129,"Delta":283505439},{"NoteNumber":55,"Velocity":83,"Duration":508129,"SoundDuration":508129,"Delta":283505439},{"NoteNumber":61,"Velocity":83,"Duration":508129,"SoundDuration":508129,"Delta":283505439},{"NoteNumber":67,"Velocity":93,"Duration":508129,"SoundDuration":508129,"Delta":283505439},{"NoteNumber":49,"Velocity":88,"Duration":508129,"SoundDuration":508129,"Delta":283505439},{"NoteNumber":45,"Velocity":74,"Duration":508129,"SoundDuration":508129,"Delta":283505439},{"NoteNumber":40,"Velocity":74,"Duration":1741899,"SoundDuration":1741899,"Delta":283505439},{"NoteNumber":67,"Velocity":83,"Duration":520697,"SoundDuration":520697,"Delta":284013569},{"NoteNumber":81,"Velocity":93,"Duration":520697,"SoundDuration":520697,"Delta":284013569},{"NoteNumber":79,"Velocity":93,"Duration":520697,"SoundDuration":520697,"Delta":284013569},{"NoteNumber":69,"Velocity":83,"Duration":520697,"SoundDuration":520697,"Delta":284013569},{"NoteNumber":73,"Velocity":83,"Duration":520697,"SoundDuration":520697,"Delta":284013569},{"NoteNumber":57,"Velocity":74,"Duration":520697,"SoundDuration":520697,"Delta":284013569},{"NoteNumber":61,"Velocity":88,"Duration":520697,"SoundDuration":520697,"Delta":284013569},{"NoteNumber":52,"Velocity":74,"Duration":1233769,"SoundDuration":1233769,"Delta":284013569},{"NoteNumber":81,"Velocity":78,"Duration":342426,"SoundDuration":342426,"Delta":284534267},{"NoteNumber":93,"Velocity":86,"Duration":342426,"SoundDuration":342426,"Delta":284534267},{"NoteNumber":91,"Velocity":86,"Duration":342426,"SoundDuration":342426,"Delta":284534267},{"NoteNumber":85,"Velocity":78,"Duration":342426,"SoundDuration":342426,"Delta":284534267},{"NoteNumber":79,"Velocity":78,"Duration":342426,"SoundDuration":342426,"Delta":284534267},{"NoteNumber":73,"Velocity":88,"Duration":342426,"SoundDuration":342426,"Delta":284534267},{"NoteNumber":69,"Velocity":74,"Duration":342426,"SoundDuration":342426,"Delta":284534267},{"NoteNumber":64,"Velocity":74,"Duration":342426,"SoundDuration":342426,"Delta":284534267},{"NoteNumber":81,"Velocity":88,"Duration":123548,"SoundDuration":123548,"Delta":284876694},{"NoteNumber":83,"Velocity":88,"Duration":123548,"SoundDuration":123548,"Delta":285000242},{"NoteNumber":81,"Velocity":88,"Duration":123548,"SoundDuration":123548,"Delta":285123790},{"NoteNumber":78,"Velocity":97,"Duration":473787,"SoundDuration":473787,"Delta":285247339},{"NoteNumber":38,"Velocity":79,"Duration":119779,"SoundDuration":119779,"Delta":285247339},{"NoteNumber":45,"Velocity":79,"Duration":119779,"SoundDuration":119779,"Delta":285247339},{"NoteNumber":50,"Velocity":68,"Duration":119779,"SoundDuration":119779,"Delta":285367118},{"NoteNumber":81,"Velocity":97,"Duration":234228,"SoundDuration":234228,"Delta":285486898},{"NoteNumber":54,"Velocity":68,"Duration":117114,"SoundDuration":117114,"Delta":285486898},{"NoteNumber":57,"Velocity":68,"Duration":117114,"SoundDuration":117114,"Delta":285604012},{"NoteNumber":81,"Velocity":90,"Duration":116242,"SoundDuration":116242,"Delta":285721126},{"NoteNumber":86,"Velocity":101,"Duration":116242,"SoundDuration":116242,"Delta":285721126},{"NoteNumber":78,"Velocity":90,"Duration":116242,"SoundDuration":116242,"Delta":285721126},{"NoteNumber":62,"Velocity":70,"Duration":92994,"SoundDuration":92994,"Delta":285721126},{"NoteNumber":57,"Velocity":70,"Duration":92994,"SoundDuration":92994,"Delta":285814120},{"NoteNumber":54,"Velocity":69,"Duration":92319,"SoundDuration":92319,"Delta":285907115},{"NoteNumber":81,"Velocity":83,"Duration":114556,"SoundDuration":114556,"Delta":285953612},{"NoteNumber":90,"Velocity":93,"Duration":114556,"SoundDuration":114556,"Delta":285953612},{"NoteNumber":78,"Velocity":83,"Duration":114556,"SoundDuration":114556,"Delta":285953612},{"NoteNumber":50,"Velocity":68,"Duration":91645,"SoundDuration":91645,"Delta":285999435},{"NoteNumber":45,"Velocity":68,"Duration":91644,"SoundDuration":91644,"Delta":286091080},{"NoteNumber":81,"Velocity":75,"Duration":461598,"SoundDuration":461598,"Delta":286182725},{"NoteNumber":88,"Velocity":102,"Duration":232485,"SoundDuration":232485,"Delta":286182725},{"NoteNumber":78,"Velocity":75,"Duration":461598,"SoundDuration":461598,"Delta":286182725},{"NoteNumber":38,"Velocity":64,"Duration":92994,"SoundDuration":92994,"Delta":286182725},{"NoteNumber":45,"Velocity":69,"Duration":92994,"SoundDuration":92994,"Delta":286275719},{"NoteNumber":50,"Velocity":70,"Duration":92319,"SoundDuration":92319,"Delta":286368713},{"NoteNumber":86,"Velocity":93,"Duration":229112,"SoundDuration":229112,"Delta":286415211},{"NoteNumber":54,"Velocity":71,"Duration":91645,"SoundDuration":91645,"Delta":286461033},{"NoteNumber":57,"Velocity":73,"Duration":91644,"SoundDuration":91644,"Delta":286552678},{"NoteNumber":74,"Velocity":90,"Duration":111715,"SoundDuration":111715,"Delta":286644323},{"NoteNumber":78,"Velocity":93,"Duration":111715,"SoundDuration":111715,"Delta":286644323},{"NoteNumber":62,"Velocity":75,"Duration":223430,"SoundDuration":223430,"Delta":286644323},{"NoteNumber":74,"Velocity":81,"Duration":113731,"SoundDuration":113731,"Delta":286867754},{"NoteNumber":81,"Velocity":90,"Duration":113731,"SoundDuration":113731,"Delta":286867754},{"NoteNumber":78,"Velocity":81,"Duration":113731,"SoundDuration":113731,"Delta":286867754},{"NoteNumber":74,"Velocity":85,"Duration":221075,"SoundDuration":221075,"Delta":287095216},{"NoteNumber":83,"Velocity":95,"Duration":221075,"SoundDuration":221075,"Delta":287095216},{"NoteNumber":81,"Velocity":95,"Duration":221075,"SoundDuration":221075,"Delta":287095216},{"NoteNumber":78,"Velocity":85,"Duration":221075,"SoundDuration":221075,"Delta":287095216},{"NoteNumber":38,"Velocity":77,"Duration":221075,"SoundDuration":221075,"Delta":287095216},{"NoteNumber":45,"Velocity":77,"Duration":221075,"SoundDuration":221075,"Delta":287095216},{"NoteNumber":50,"Velocity":77,"Duration":221075,"SoundDuration":221075,"Delta":287095216},{"NoteNumber":62,"Velocity":68,"Duration":442152,"SoundDuration":442152,"Delta":287316292},{"NoteNumber":57,"Velocity":68,"Duration":442152,"SoundDuration":442152,"Delta":287316292},{"NoteNumber":54,"Velocity":68,"Duration":442152,"SoundDuration":442152,"Delta":287316292},{"NoteNumber":74,"Velocity":77,"Duration":221075,"SoundDuration":221075,"Delta":287537368},{"NoteNumber":83,"Velocity":86,"Duration":221075,"SoundDuration":221075,"Delta":287537368},{"NoteNumber":81,"Velocity":86,"Duration":221075,"SoundDuration":221075,"Delta":287537368},{"NoteNumber":78,"Velocity":77,"Duration":221075,"SoundDuration":221075,"Delta":287537368},{"NoteNumber":66,"Velocity":68,"Duration":446098,"SoundDuration":446098,"Delta":287758444},{"NoteNumber":62,"Velocity":68,"Duration":446098,"SoundDuration":446098,"Delta":287758444},{"NoteNumber":57,"Velocity":68,"Duration":446098,"SoundDuration":446098,"Delta":287758444},{"NoteNumber":74,"Velocity":77,"Duration":110537,"SoundDuration":110537,"Delta":287868982},{"NoteNumber":83,"Velocity":86,"Duration":110537,"SoundDuration":110537,"Delta":287868982},{"NoteNumber":81,"Velocity":86,"Duration":110537,"SoundDuration":110537,"Delta":287868982},{"NoteNumber":78,"Velocity":77,"Duration":110537,"SoundDuration":110537,"Delta":287868982},{"NoteNumber":74,"Velocity":77,"Duration":450044,"SoundDuration":450044,"Delta":287979520},{"NoteNumber":83,"Velocity":86,"Duration":450044,"SoundDuration":450044,"Delta":287979520},{"NoteNumber":81,"Velocity":86,"Duration":450044,"SoundDuration":450044,"Delta":287979520},{"NoteNumber":78,"Velocity":77,"Duration":450044,"SoundDuration":450044,"Delta":287979520},{"NoteNumber":69,"Velocity":68,"Duration":225022,"SoundDuration":225022,"Delta":288204543},{"NoteNumber":66,"Velocity":68,"Duration":225022,"SoundDuration":225022,"Delta":288204543},{"NoteNumber":62,"Velocity":68,"Duration":225022,"SoundDuration":225022,"Delta":288204543},{"NoteNumber":74,"Velocity":90,"Duration":109769,"SoundDuration":109769,"Delta":288429565},{"NoteNumber":78,"Velocity":90,"Duration":109769,"SoundDuration":109769,"Delta":288429565},{"NoteNumber":74,"Velocity":90,"Duration":110922,"SoundDuration":110922,"Delta":288649104},{"NoteNumber":80,"Velocity":90,"Duration":110922,"SoundDuration":110922,"Delta":288649104},{"NoteNumber":78,"Velocity":90,"Duration":110922,"SoundDuration":110922,"Delta":288649104},{"NoteNumber":74,"Velocity":87,"Duration":444561,"SoundDuration":444561,"Delta":288870949},{"NoteNumber":78,"Velocity":87,"Duration":444561,"SoundDuration":444561,"Delta":288870949},{"NoteNumber":81,"Velocity":97,"Duration":225022,"SoundDuration":225022,"Delta":288870949},{"NoteNumber":35,"Velocity":66,"Duration":75007,"SoundDuration":75007,"Delta":288870949},{"NoteNumber":42,"Velocity":59,"Duration":75007,"SoundDuration":75007,"Delta":288945956},{"NoteNumber":47,"Velocity":59,"Duration":75007,"SoundDuration":75007,"Delta":289020964},{"NoteNumber":83,"Velocity":89,"Duration":219538,"SoundDuration":219538,"Delta":289095971},{"NoteNumber":50,"Velocity":59,"Duration":73179,"SoundDuration":73179,"Delta":289095971},{"NoteNumber":54,"Velocity":59,"Duration":73179,"SoundDuration":73179,"Delta":289169151},{"NoteNumber":59,"Velocity":59,"Duration":73179,"SoundDuration":73179,"Delta":289242330},{"NoteNumber":78,"Velocity":93,"Duration":109769,"SoundDuration":109769,"Delta":289315510},{"NoteNumber":74,"Velocity":93,"Duration":109769,"SoundDuration":109769,"Delta":289315510},{"NoteNumber":62,"Velocity":59,"Duration":219538,"SoundDuration":219538,"Delta":289315510},{"NoteNumber":80,"Velocity":90,"Duration":112107,"SoundDuration":112107,"Delta":289535049},{"NoteNumber":78,"Velocity":90,"Duration":112107,"SoundDuration":112107,"Delta":289535049},{"NoteNumber":74,"Velocity":90,"Duration":112107,"SoundDuration":112107,"Delta":289535049},{"NoteNumber":81,"Velocity":97,"Duration":229955,"SoundDuration":229955,"Delta":289759264},{"NoteNumber":74,"Velocity":87,"Duration":452590,"SoundDuration":452590,"Delta":289759264},{"NoteNumber":78,"Velocity":87,"Duration":452590,"SoundDuration":452590,"Delta":289759264},{"NoteNumber":40,"Velocity":66,"Duration":91982,"SoundDuration":91982,"Delta":289759264},{"NoteNumber":47,"Velocity":59,"Duration":91982,"SoundDuration":91982,"Delta":289851246},{"NoteNumber":52,"Velocity":59,"Duration":90518,"SoundDuration":90518,"Delta":289943228},{"NoteNumber":83,"Velocity":89,"Duration":222634,"SoundDuration":222634,"Delta":289989220},{"NoteNumber":56,"Velocity":59,"Duration":89053,"SoundDuration":89053,"Delta":290033746},{"NoteNumber":62,"Velocity":59,"Duration":89053,"SoundDuration":89053,"Delta":290122800},{"NoteNumber":74,"Velocity":93,"Duration":114138,"SoundDuration":114138,"Delta":290211854},{"NoteNumber":78,"Velocity":93,"Duration":114138,"SoundDuration":114138,"Delta":290211854},{"NoteNumber":66,"Velocity":59,"Duration":228275,"SoundDuration":228275,"Delta":290211854},{"NoteNumber":80,"Velocity":93,"Duration":117545,"SoundDuration":117545,"Delta":290440130},{"NoteNumber":74,"Velocity":93,"Duration":117545,"SoundDuration":117545,"Delta":290440130},{"NoteNumber":78,"Velocity":93,"Duration":117545,"SoundDuration":117545,"Delta":290440130},{"NoteNumber":69,"Velocity":87,"Duration":229955,"SoundDuration":229955,"Delta":290675222},{"NoteNumber":74,"Velocity":87,"Duration":229955,"SoundDuration":229955,"Delta":290675222},{"NoteNumber":76,"Velocity":87,"Duration":229955,"SoundDuration":229955,"Delta":290675222},{"NoteNumber":81,"Velocity":97,"Duration":229955,"SoundDuration":229955,"Delta":290675222},{"NoteNumber":33,"Velocity":75,"Duration":229955,"SoundDuration":229955,"Delta":290675222},{"NoteNumber":40,"Velocity":75,"Duration":229955,"SoundDuration":229955,"Delta":290675222},{"NoteNumber":45,"Velocity":75,"Duration":229955,"SoundDuration":229955,"Delta":290675222},{"NoteNumber":61,"Velocity":64,"Duration":463309,"SoundDuration":463309,"Delta":290905177},{"NoteNumber":57,"Velocity":64,"Duration":463309,"SoundDuration":463309,"Delta":290905177},{"NoteNumber":52,"Velocity":64,"Duration":463309,"SoundDuration":463309,"Delta":290905177},{"NoteNumber":76,"Velocity":75,"Duration":233354,"SoundDuration":233354,"Delta":291135133},{"NoteNumber":69,"Velocity":75,"Duration":233354,"SoundDuration":233354,"Delta":291135133},{"NoteNumber":73,"Velocity":75,"Duration":233354,"SoundDuration":233354,"Delta":291135133},{"NoteNumber":81,"Velocity":84,"Duration":233354,"SoundDuration":233354,"Delta":291135133},{"NoteNumber":64,"Velocity":64,"Duration":466707,"SoundDuration":466707,"Delta":291368487},{"NoteNumber":61,"Velocity":64,"Duration":466707,"SoundDuration":466707,"Delta":291368487},{"NoteNumber":57,"Velocity":64,"Duration":466707,"SoundDuration":466707,"Delta":291368487},{"NoteNumber":69,"Velocity":75,"Duration":116676,"SoundDuration":116676,"Delta":291485164},{"NoteNumber":76,"Velocity":75,"Duration":116676,"SoundDuration":116676,"Delta":291485164},{"NoteNumber":73,"Velocity":75,"Duration":116676,"SoundDuration":116676,"Delta":291485164},{"NoteNumber":81,"Velocity":84,"Duration":116676,"SoundDuration":116676,"Delta":291485164},{"NoteNumber":69,"Velocity":75,"Duration":466708,"SoundDuration":466708,"Delta":291601841},{"NoteNumber":76,"Velocity":75,"Duration":466708,"SoundDuration":466708,"Delta":291601841},{"NoteNumber":73,"Velocity":75,"Duration":466708,"SoundDuration":466708,"Delta":291601841},{"NoteNumber":81,"Velocity":84,"Duration":466708,"SoundDuration":466708,"Delta":291601841},{"NoteNumber":69,"Velocity":64,"Duration":233354,"SoundDuration":233354,"Delta":291835195},{"NoteNumber":64,"Velocity":64,"Duration":233354,"SoundDuration":233354,"Delta":291835195},{"NoteNumber":61,"Velocity":64,"Duration":233354,"SoundDuration":233354,"Delta":291835195},{"NoteNumber":85,"Velocity":89,"Duration":76651,"SoundDuration":76651,"Delta":292298504},{"NoteNumber":86,"Velocity":89,"Duration":76651,"SoundDuration":76651,"Delta":292375156},{"NoteNumber":85,"Velocity":89,"Duration":76651,"SoundDuration":76651,"Delta":292451808},{"NoteNumber":83,"Velocity":96,"Duration":453275,"SoundDuration":453275,"Delta":292528460},{"NoteNumber":43,"Velocity":65,"Duration":113318,"SoundDuration":113318,"Delta":292528460},{"NoteNumber":50,"Velocity":65,"Duration":113318,"SoundDuration":113318,"Delta":292528460},{"NoteNumber":55,"Velocity":57,"Duration":113318,"SoundDuration":113318,"Delta":292641778},{"NoteNumber":86,"Velocity":96,"Duration":226637,"SoundDuration":226637,"Delta":292755097},{"NoteNumber":59,"Velocity":57,"Duration":113318,"SoundDuration":113318,"Delta":292755097},{"NoteNumber":62,"Velocity":57,"Duration":113318,"SoundDuration":113318,"Delta":292868416},{"NoteNumber":86,"Velocity":89,"Duration":116676,"SoundDuration":116676,"Delta":292981735},{"NoteNumber":91,"Velocity":99,"Duration":116676,"SoundDuration":116676,"Delta":292981735},{"NoteNumber":83,"Velocity":89,"Duration":116676,"SoundDuration":116676,"Delta":292981735},{"NoteNumber":67,"Velocity":65,"Duration":93341,"SoundDuration":93341,"Delta":292981735},{"NoteNumber":62,"Velocity":59,"Duration":93341,"SoundDuration":93341,"Delta":293075076},{"NoteNumber":59,"Velocity":58,"Duration":92163,"SoundDuration":92163,"Delta":293168418},{"NoteNumber":86,"Velocity":81,"Duration":113731,"SoundDuration":113731,"Delta":293215089},{"NoteNumber":95,"Velocity":91,"Duration":113731,"SoundDuration":113731,"Delta":293215089},{"NoteNumber":83,"Velocity":81,"Duration":113731,"SoundDuration":113731,"Delta":293215089},{"NoteNumber":55,"Velocity":58,"Duration":90984,"SoundDuration":90984,"Delta":293260581},{"NoteNumber":50,"Velocity":57,"Duration":90984,"SoundDuration":90984,"Delta":293351566},{"NoteNumber":93,"Velocity":97,"Duration":222634,"SoundDuration":222634,"Delta":293442551},{"NoteNumber":83,"Velocity":76,"Duration":452590,"SoundDuration":452590,"Delta":293442551},{"NoteNumber":43,"Velocity":56,"Duration":89053,"SoundDuration":89053,"Delta":293442551},{"NoteNumber":47,"Velocity":56,"Duration":89053,"SoundDuration":89053,"Delta":293531605},{"NoteNumber":55,"Velocity":57,"Duration":90518,"SoundDuration":90518,"Delta":293620659},{"NoteNumber":91,"Velocity":86,"Duration":229955,"SoundDuration":229955,"Delta":293665186},{"NoteNumber":59,"Velocity":57,"Duration":91982,"SoundDuration":91982,"Delta":293711177},{"NoteNumber":62,"Velocity":57,"Duration":91982,"SoundDuration":91982,"Delta":293803159},{"NoteNumber":83,"Velocity":86,"Duration":110538,"SoundDuration":110538,"Delta":293895141},{"NoteNumber":79,"Velocity":86,"Duration":110538,"SoundDuration":110538,"Delta":293895141},{"NoteNumber":67,"Velocity":57,"Duration":221075,"SoundDuration":221075,"Delta":293895141},{"NoteNumber":83,"Velocity":86,"Duration":114556,"SoundDuration":114556,"Delta":294116217},{"NoteNumber":86,"Velocity":86,"Duration":114556,"SoundDuration":114556,"Delta":294116217},{"NoteNumber":79,"Velocity":76,"Duration":114556,"SoundDuration":114556,"Delta":294116217},{"NoteNumber":90,"Velocity":90,"Duration":230787,"SoundDuration":230787,"Delta":294345330},{"NoteNumber":86,"Velocity":80,"Duration":230787,"SoundDuration":230787,"Delta":294345330},{"NoteNumber":83,"Velocity":80,"Duration":230787,"SoundDuration":230787,"Delta":294345330},{"NoteNumber":79,"Velocity":80,"Duration":230787,"SoundDuration":230787,"Delta":294345330},{"NoteNumber":40,"Velocity":73,"Duration":230787,"SoundDuration":230787,"Delta":294345330},{"NoteNumber":47,"Velocity":73,"Duration":230787,"SoundDuration":230787,"Delta":294345330},{"NoteNumber":52,"Velocity":73,"Duration":230787,"SoundDuration":230787,"Delta":294345330},{"NoteNumber":66,"Velocity":62,"Duration":450325,"SoundDuration":450325,"Delta":294576117},{"NoteNumber":62,"Velocity":62,"Duration":450325,"SoundDuration":450325,"Delta":294576117},{"NoteNumber":59,"Velocity":62,"Duration":450325,"SoundDuration":450325,"Delta":294576117},{"NoteNumber":55,"Velocity":62,"Duration":450325,"SoundDuration":450325,"Delta":294576117},{"NoteNumber":90,"Velocity":80,"Duration":219538,"SoundDuration":219538,"Delta":294806904},{"NoteNumber":86,"Velocity":72,"Duration":219538,"SoundDuration":219538,"Delta":294806904},{"NoteNumber":83,"Velocity":72,"Duration":219538,"SoundDuration":219538,"Delta":294806904},{"NoteNumber":79,"Velocity":72,"Duration":219538,"SoundDuration":219538,"Delta":294806904},{"NoteNumber":67,"Velocity":62,"Duration":435303,"SoundDuration":435303,"Delta":295026443},{"NoteNumber":66,"Velocity":62,"Duration":435303,"SoundDuration":435303,"Delta":295026443},{"NoteNumber":62,"Velocity":62,"Duration":435303,"SoundDuration":435303,"Delta":295026443},{"NoteNumber":59,"Velocity":62,"Duration":435303,"SoundDuration":435303,"Delta":295026443},{"NoteNumber":90,"Velocity":80,"Duration":109769,"SoundDuration":109769,"Delta":295136212},{"NoteNumber":86,"Velocity":72,"Duration":109769,"SoundDuration":109769,"Delta":295136212},{"NoteNumber":83,"Velocity":72,"Duration":109769,"SoundDuration":109769,"Delta":295136212},{"NoteNumber":79,"Velocity":72,"Duration":109769,"SoundDuration":109769,"Delta":295136212},{"NoteNumber":90,"Velocity":80,"Duration":447407,"SoundDuration":447407,"Delta":295245982},{"NoteNumber":86,"Velocity":72,"Duration":447407,"SoundDuration":447407,"Delta":295245982},{"NoteNumber":83,"Velocity":72,"Duration":447407,"SoundDuration":447407,"Delta":295245982},{"NoteNumber":79,"Velocity":72,"Duration":447407,"SoundDuration":447407,"Delta":295245982},{"NoteNumber":71,"Velocity":62,"Duration":231642,"SoundDuration":231642,"Delta":295461747},{"NoteNumber":67,"Velocity":62,"Duration":231642,"SoundDuration":231642,"Delta":295461747},{"NoteNumber":66,"Velocity":62,"Duration":231642,"SoundDuration":231642,"Delta":295461747},{"NoteNumber":62,"Velocity":62,"Duration":231642,"SoundDuration":231642,"Delta":295461747},{"NoteNumber":83,"Velocity":86,"Duration":110148,"SoundDuration":110148,"Delta":295693389},{"NoteNumber":79,"Velocity":86,"Duration":110148,"SoundDuration":110148,"Delta":295693389},{"NoteNumber":85,"Velocity":86,"Duration":110148,"SoundDuration":110148,"Delta":295913686},{"NoteNumber":83,"Velocity":86,"Duration":110148,"SoundDuration":110148,"Delta":295913686},{"NoteNumber":79,"Velocity":86,"Duration":110148,"SoundDuration":110148,"Delta":295913686},{"NoteNumber":86,"Velocity":96,"Duration":226637,"SoundDuration":226637,"Delta":296133982},{"NoteNumber":79,"Velocity":86,"Duration":443902,"SoundDuration":443902,"Delta":296133982},{"NoteNumber":83,"Velocity":86,"Duration":443902,"SoundDuration":443902,"Delta":296133982},{"NoteNumber":45,"Velocity":69,"Duration":90655,"SoundDuration":90655,"Delta":296133982},{"NoteNumber":52,"Velocity":60,"Duration":90654,"SoundDuration":90654,"Delta":296224637},{"NoteNumber":57,"Velocity":60,"Duration":88780,"SoundDuration":88780,"Delta":296315292},{"NoteNumber":88,"Velocity":86,"Duration":217265,"SoundDuration":217265,"Delta":296360620},{"NoteNumber":62,"Velocity":60,"Duration":86906,"SoundDuration":86906,"Delta":296404073},{"NoteNumber":67,"Velocity":60,"Duration":86906,"SoundDuration":86906,"Delta":296490979},{"NoteNumber":83,"Velocity":91,"Duration":111715,"SoundDuration":111715,"Delta":296577885},{"NoteNumber":79,"Velocity":91,"Duration":111715,"SoundDuration":111715,"Delta":296577885},{"NoteNumber":71,"Velocity":60,"Duration":223430,"SoundDuration":223430,"Delta":296577885},{"NoteNumber":85,"Velocity":89,"Duration":111715,"SoundDuration":111715,"Delta":296801316},{"NoteNumber":83,"Velocity":89,"Duration":111715,"SoundDuration":111715,"Delta":296801316},{"NoteNumber":79,"Velocity":89,"Duration":111715,"SoundDuration":111715,"Delta":296801316},{"NoteNumber":86,"Velocity":96,"Duration":220296,"SoundDuration":220296,"Delta":297024746},{"NoteNumber":83,"Velocity":86,"Duration":451083,"SoundDuration":451083,"Delta":297024746},{"NoteNumber":79,"Velocity":86,"Duration":451083,"SoundDuration":451083,"Delta":297024746},{"NoteNumber":45,"Velocity":69,"Duration":88118,"SoundDuration":88118,"Delta":297024746},{"NoteNumber":52,"Velocity":60,"Duration":88118,"SoundDuration":88118,"Delta":297112865},{"NoteNumber":57,"Velocity":60,"Duration":90216,"SoundDuration":90216,"Delta":297200983},{"NoteNumber":88,"Velocity":89,"Duration":230787,"SoundDuration":230787,"Delta":297245043},{"NoteNumber":62,"Velocity":60,"Duration":92314,"SoundDuration":92314,"Delta":297291200},{"NoteNumber":67,"Velocity":60,"Duration":92314,"SoundDuration":92314,"Delta":297383515},{"NoteNumber":83,"Velocity":91,"Duration":115393,"SoundDuration":115393,"Delta":297475830},{"NoteNumber":79,"Velocity":91,"Duration":115393,"SoundDuration":115393,"Delta":297475830},{"NoteNumber":71,"Velocity":60,"Duration":230787,"SoundDuration":230787,"Delta":297475830},{"NoteNumber":85,"Velocity":91,"Duration":115393,"SoundDuration":115393,"Delta":297706617},{"NoteNumber":83,"Velocity":91,"Duration":115393,"SoundDuration":115393,"Delta":297706617},{"NoteNumber":79,"Velocity":91,"Duration":115393,"SoundDuration":115393,"Delta":297706617},{"NoteNumber":74,"Velocity":84,"Duration":235091,"SoundDuration":235091,"Delta":297937404},{"NoteNumber":86,"Velocity":94,"Duration":235091,"SoundDuration":235091,"Delta":297937404},{"NoteNumber":81,"Velocity":84,"Duration":235091,"SoundDuration":235091,"Delta":297937404},{"NoteNumber":79,"Velocity":84,"Duration":235091,"SoundDuration":235091,"Delta":297937404},{"NoteNumber":38,"Velocity":75,"Duration":235091,"SoundDuration":235091,"Delta":297937404},{"NoteNumber":45,"Velocity":75,"Duration":235091,"SoundDuration":235091,"Delta":297937404},{"NoteNumber":50,"Velocity":75,"Duration":235091,"SoundDuration":235091,"Delta":297937404},{"NoteNumber":66,"Velocity":64,"Duration":470182,"SoundDuration":470182,"Delta":298172495},{"NoteNumber":62,"Velocity":64,"Duration":470182,"SoundDuration":470182,"Delta":298172495},{"NoteNumber":57,"Velocity":64,"Duration":470182,"SoundDuration":470182,"Delta":298172495},{"NoteNumber":81,"Velocity":73,"Duration":235091,"SoundDuration":235091,"Delta":298407587},{"NoteNumber":74,"Velocity":73,"Duration":235091,"SoundDuration":235091,"Delta":298407587},{"NoteNumber":86,"Velocity":81,"Duration":235091,"SoundDuration":235091,"Delta":298407587},{"NoteNumber":78,"Velocity":73,"Duration":235091,"SoundDuration":235091,"Delta":298407587},{"NoteNumber":69,"Velocity":64,"Duration":484116,"SoundDuration":484116,"Delta":298642678},{"NoteNumber":66,"Velocity":64,"Duration":484116,"SoundDuration":484116,"Delta":298642678},{"NoteNumber":62,"Velocity":64,"Duration":484116,"SoundDuration":484116,"Delta":298642678},{"NoteNumber":81,"Velocity":73,"Duration":117545,"SoundDuration":117545,"Delta":298760224},{"NoteNumber":74,"Velocity":73,"Duration":117545,"SoundDuration":117545,"Delta":298760224},{"NoteNumber":86,"Velocity":81,"Duration":117545,"SoundDuration":117545,"Delta":298760224},{"NoteNumber":78,"Velocity":73,"Duration":117545,"SoundDuration":117545,"Delta":298760224},{"NoteNumber":81,"Velocity":73,"Duration":249024,"SoundDuration":249024,"Delta":298877770},{"NoteNumber":74,"Velocity":73,"Duration":249024,"SoundDuration":249024,"Delta":298877770},{"NoteNumber":86,"Velocity":81,"Duration":249024,"SoundDuration":249024,"Delta":298877770},{"NoteNumber":78,"Velocity":73,"Duration":249024,"SoundDuration":249024,"Delta":298877770},{"NoteNumber":66,"Velocity":62,"Duration":249024,"SoundDuration":249024,"Delta":299126794},{"NoteNumber":69,"Velocity":62,"Duration":249024,"SoundDuration":249024,"Delta":299126794},{"NoteNumber":74,"Velocity":62,"Duration":249024,"SoundDuration":249024,"Delta":299126794},{"NoteNumber":86,"Velocity":71,"Duration":78951,"SoundDuration":78951,"Delta":299624843},{"NoteNumber":88,"Velocity":71,"Duration":78951,"SoundDuration":78951,"Delta":299703795},{"NoteNumber":86,"Velocity":71,"Duration":65427,"SoundDuration":65427,"Delta":299782746},{"NoteNumber":38,"Velocity":55,"Duration":154397,"SoundDuration":154397,"Delta":299848174},{"NoteNumber":45,"Velocity":55,"Duration":154397,"SoundDuration":154397,"Delta":299848174},{"NoteNumber":84,"Velocity":72,"Duration":112511,"SoundDuration":112511,"Delta":299946316},{"NoteNumber":78,"Velocity":72,"Duration":112511,"SoundDuration":112511,"Delta":299946316},{"NoteNumber":33,"Velocity":48,"Duration":168766,"SoundDuration":168766,"Delta":300058827},{"NoteNumber":45,"Velocity":48,"Duration":168766,"SoundDuration":168766,"Delta":300058827},{"NoteNumber":88,"Velocity":72,"Duration":112511,"SoundDuration":112511,"Delta":300171338},{"NoteNumber":84,"Velocity":72,"Duration":112511,"SoundDuration":112511,"Delta":300171338},{"NoteNumber":78,"Velocity":72,"Duration":112511,"SoundDuration":112511,"Delta":300171338},{"NoteNumber":38,"Velocity":55,"Duration":168766,"SoundDuration":168766,"Delta":300283849},{"NoteNumber":45,"Velocity":55,"Duration":168766,"SoundDuration":168766,"Delta":300283849},{"NoteNumber":86,"Velocity":72,"Duration":112511,"SoundDuration":112511,"Delta":300396361},{"NoteNumber":84,"Velocity":72,"Duration":112511,"SoundDuration":112511,"Delta":300396361},{"NoteNumber":78,"Velocity":72,"Duration":112511,"SoundDuration":112511,"Delta":300396361},{"NoteNumber":33,"Velocity":48,"Duration":168766,"SoundDuration":168766,"Delta":300508872},{"NoteNumber":45,"Velocity":48,"Duration":168766,"SoundDuration":168766,"Delta":300508872},{"NoteNumber":90,"Velocity":72,"Duration":112852,"SoundDuration":112852,"Delta":300621383},{"NoteNumber":84,"Velocity":72,"Duration":112852,"SoundDuration":112852,"Delta":300621383},{"NoteNumber":78,"Velocity":72,"Duration":112852,"SoundDuration":112852,"Delta":300621383},{"NoteNumber":38,"Velocity":52,"Duration":168766,"SoundDuration":168766,"Delta":300734235},{"NoteNumber":45,"Velocity":52,"Duration":168766,"SoundDuration":168766,"Delta":300734235},{"NoteNumber":84,"Velocity":72,"Duration":112511,"SoundDuration":112511,"Delta":300846746},{"NoteNumber":78,"Velocity":72,"Duration":112511,"SoundDuration":112511,"Delta":300846746},{"NoteNumber":33,"Velocity":48,"Duration":168766,"SoundDuration":168766,"Delta":300959258},{"NoteNumber":45,"Velocity":48,"Duration":168766,"SoundDuration":168766,"Delta":300959258},{"NoteNumber":88,"Velocity":72,"Duration":112511,"SoundDuration":112511,"Delta":301071769},{"NoteNumber":84,"Velocity":72,"Duration":112511,"SoundDuration":112511,"Delta":301071769},{"NoteNumber":78,"Velocity":72,"Duration":112511,"SoundDuration":112511,"Delta":301071769},{"NoteNumber":38,"Velocity":55,"Duration":168766,"SoundDuration":168766,"Delta":301184280},{"NoteNumber":45,"Velocity":55,"Duration":168766,"SoundDuration":168766,"Delta":301184280},{"NoteNumber":86,"Velocity":72,"Duration":112511,"SoundDuration":112511,"Delta":301296791},{"NoteNumber":84,"Velocity":72,"Duration":112511,"SoundDuration":112511,"Delta":301296791},{"NoteNumber":78,"Velocity":72,"Duration":112511,"SoundDuration":112511,"Delta":301296791},{"NoteNumber":33,"Velocity":46,"Duration":183868,"SoundDuration":183868,"Delta":301409303},{"NoteNumber":45,"Velocity":46,"Duration":183868,"SoundDuration":183868,"Delta":301409303},{"NoteNumber":90,"Velocity":72,"Duration":122579,"SoundDuration":122579,"Delta":301531882},{"NoteNumber":84,"Velocity":72,"Duration":122579,"SoundDuration":122579,"Delta":301531882},{"NoteNumber":78,"Velocity":72,"Duration":122579,"SoundDuration":122579,"Delta":301531882},{"NoteNumber":83,"Velocity":84,"Duration":232485,"SoundDuration":232485,"Delta":301654461},{"NoteNumber":81,"Velocity":84,"Duration":232485,"SoundDuration":232485,"Delta":301654461},{"NoteNumber":86,"Velocity":84,"Duration":232485,"SoundDuration":232485,"Delta":301654461},{"NoteNumber":38,"Velocity":51,"Duration":174364,"SoundDuration":174364,"Delta":301654461},{"NoteNumber":45,"Velocity":51,"Duration":174364,"SoundDuration":174364,"Delta":301654461},{"NoteNumber":33,"Velocity":52,"Duration":174364,"SoundDuration":174364,"Delta":301886947},{"NoteNumber":83,"Velocity":72,"Duration":232485,"SoundDuration":232485,"Delta":302119433},{"NoteNumber":79,"Velocity":72,"Duration":232485,"SoundDuration":232485,"Delta":302119433},{"NoteNumber":86,"Velocity":72,"Duration":232485,"SoundDuration":232485,"Delta":302119433},{"NoteNumber":38,"Velocity":51,"Duration":174364,"SoundDuration":174364,"Delta":302119433},{"NoteNumber":45,"Velocity":51,"Duration":174364,"SoundDuration":174364,"Delta":302119433},{"NoteNumber":33,"Velocity":52,"Duration":174364,"SoundDuration":174364,"Delta":302351919},{"NoteNumber":83,"Velocity":72,"Duration":116242,"SoundDuration":116242,"Delta":302468162},{"NoteNumber":86,"Velocity":72,"Duration":116242,"SoundDuration":116242,"Delta":302468162},{"NoteNumber":79,"Velocity":72,"Duration":116242,"SoundDuration":116242,"Delta":302468162},{"NoteNumber":83,"Velocity":72,"Duration":450044,"SoundDuration":450044,"Delta":302584405},{"NoteNumber":86,"Velocity":72,"Duration":450044,"SoundDuration":450044,"Delta":302584405},{"NoteNumber":79,"Velocity":72,"Duration":450044,"SoundDuration":450044,"Delta":302584405},{"NoteNumber":38,"Velocity":51,"Duration":168766,"SoundDuration":168766,"Delta":302584405},{"NoteNumber":45,"Velocity":51,"Duration":168766,"SoundDuration":168766,"Delta":302584405},{"NoteNumber":33,"Velocity":51,"Duration":168766,"SoundDuration":168766,"Delta":302809427},{"NoteNumber":38,"Velocity":51,"Duration":182452,"SoundDuration":182452,"Delta":303034450},{"NoteNumber":45,"Velocity":51,"Duration":182452,"SoundDuration":182452,"Delta":303034450},{"NoteNumber":81,"Velocity":63,"Duration":78363,"SoundDuration":78363,"Delta":303277719},{"NoteNumber":33,"Velocity":52,"Duration":171434,"SoundDuration":171434,"Delta":303277719},{"NoteNumber":83,"Velocity":63,"Duration":78119,"SoundDuration":78119,"Delta":303357063},{"NoteNumber":81,"Velocity":63,"Duration":59071,"SoundDuration":59071,"Delta":303433467},{"NoteNumber":38,"Velocity":55,"Duration":144496,"SoundDuration":144496,"Delta":303493274},{"NoteNumber":45,"Velocity":55,"Duration":144496,"SoundDuration":144496,"Delta":303493274},{"NoteNumber":79,"Velocity":64,"Duration":112511,"SoundDuration":112511,"Delta":303581514},{"NoteNumber":73,"Velocity":64,"Duration":112511,"SoundDuration":112511,"Delta":303581514},{"NoteNumber":33,"Velocity":48,"Duration":168766,"SoundDuration":168766,"Delta":303694026},{"NoteNumber":45,"Velocity":48,"Duration":168766,"SoundDuration":168766,"Delta":303694026},{"NoteNumber":83,"Velocity":64,"Duration":112511,"SoundDuration":112511,"Delta":303806537},{"NoteNumber":79,"Velocity":64,"Duration":112511,"SoundDuration":112511,"Delta":303806537},{"NoteNumber":73,"Velocity":64,"Duration":112511,"SoundDuration":112511,"Delta":303806537},{"NoteNumber":38,"Velocity":55,"Duration":168766,"SoundDuration":168766,"Delta":303919048},{"NoteNumber":45,"Velocity":55,"Duration":168766,"SoundDuration":168766,"Delta":303919048},{"NoteNumber":79,"Velocity":64,"Duration":112511,"SoundDuration":112511,"Delta":304031559},{"NoteNumber":81,"Velocity":64,"Duration":112511,"SoundDuration":112511,"Delta":304031559},{"NoteNumber":73,"Velocity":64,"Duration":112511,"SoundDuration":112511,"Delta":304031559},{"NoteNumber":33,"Velocity":48,"Duration":168766,"SoundDuration":168766,"Delta":304144071},{"NoteNumber":45,"Velocity":48,"Duration":168766,"SoundDuration":168766,"Delta":304144071},{"NoteNumber":85,"Velocity":64,"Duration":112511,"SoundDuration":112511,"Delta":304256582},{"NoteNumber":79,"Velocity":64,"Duration":112511,"SoundDuration":112511,"Delta":304256582},{"NoteNumber":73,"Velocity":64,"Duration":112511,"SoundDuration":112511,"Delta":304256582},{"NoteNumber":38,"Velocity":53,"Duration":168766,"SoundDuration":168766,"Delta":304369093},{"NoteNumber":45,"Velocity":53,"Duration":168766,"SoundDuration":168766,"Delta":304369093},{"NoteNumber":73,"Velocity":63,"Duration":112511,"SoundDuration":112511,"Delta":304481604},{"NoteNumber":79,"Velocity":63,"Duration":112511,"SoundDuration":112511,"Delta":304481604},{"NoteNumber":33,"Velocity":48,"Duration":168766,"SoundDuration":168766,"Delta":304594116},{"NoteNumber":45,"Velocity":48,"Duration":168766,"SoundDuration":168766,"Delta":304594116},{"NoteNumber":83,"Velocity":63,"Duration":112511,"SoundDuration":112511,"Delta":304706627},{"NoteNumber":79,"Velocity":63,"Duration":112511,"SoundDuration":112511,"Delta":304706627},{"NoteNumber":73,"Velocity":63,"Duration":112511,"SoundDuration":112511,"Delta":304706627},{"NoteNumber":38,"Velocity":53,"Duration":168766,"SoundDuration":168766,"Delta":304819138},{"NoteNumber":45,"Velocity":53,"Duration":168766,"SoundDuration":168766,"Delta":304819138},{"NoteNumber":73,"Velocity":63,"Duration":112511,"SoundDuration":112511,"Delta":304931649},{"NoteNumber":79,"Velocity":63,"Duration":112511,"SoundDuration":112511,"Delta":304931649},{"NoteNumber":81,"Velocity":63,"Duration":112511,"SoundDuration":112511,"Delta":304931649},{"NoteNumber":33,"Velocity":46,"Duration":183281,"SoundDuration":183281,"Delta":305044161},{"NoteNumber":45,"Velocity":46,"Duration":183281,"SoundDuration":183281,"Delta":305044161},{"NoteNumber":79,"Velocity":63,"Duration":122578,"SoundDuration":122578,"Delta":305166152},{"NoteNumber":85,"Velocity":63,"Duration":122578,"SoundDuration":122578,"Delta":305166152},{"NoteNumber":73,"Velocity":63,"Duration":122578,"SoundDuration":122578,"Delta":305166152},{"NoteNumber":81,"Velocity":70,"Duration":232485,"SoundDuration":232485,"Delta":305288731},{"NoteNumber":78,"Velocity":70,"Duration":232485,"SoundDuration":232485,"Delta":305288731},{"NoteNumber":76,"Velocity":70,"Duration":232485,"SoundDuration":232485,"Delta":305288731},{"NoteNumber":38,"Velocity":51,"Duration":174364,"SoundDuration":174364,"Delta":305288731},{"NoteNumber":45,"Velocity":51,"Duration":174364,"SoundDuration":174364,"Delta":305288731},{"NoteNumber":33,"Velocity":52,"Duration":174364,"SoundDuration":174364,"Delta":305521217},{"NoteNumber":81,"Velocity":64,"Duration":232485,"SoundDuration":232485,"Delta":305753703},{"NoteNumber":78,"Velocity":64,"Duration":232485,"SoundDuration":232485,"Delta":305753703},{"NoteNumber":74,"Velocity":64,"Duration":232485,"SoundDuration":232485,"Delta":305753703},{"NoteNumber":38,"Velocity":51,"Duration":174364,"SoundDuration":174364,"Delta":305753703},{"NoteNumber":45,"Velocity":51,"Duration":174364,"SoundDuration":174364,"Delta":305753703},{"NoteNumber":33,"Velocity":52,"Duration":174364,"SoundDuration":174364,"Delta":305986189},{"NoteNumber":81,"Velocity":64,"Duration":116242,"SoundDuration":116242,"Delta":306102432},{"NoteNumber":78,"Velocity":64,"Duration":116242,"SoundDuration":116242,"Delta":306102432},{"NoteNumber":74,"Velocity":64,"Duration":116242,"SoundDuration":116242,"Delta":306102432},{"NoteNumber":81,"Velocity":64,"Duration":450262,"SoundDuration":450262,"Delta":306218675},{"NoteNumber":78,"Velocity":64,"Duration":450262,"SoundDuration":450262,"Delta":306218675},{"NoteNumber":74,"Velocity":64,"Duration":450262,"SoundDuration":450262,"Delta":306218675},{"NoteNumber":38,"Velocity":51,"Duration":168984,"SoundDuration":168984,"Delta":306218675},{"NoteNumber":45,"Velocity":51,"Duration":168984,"SoundDuration":168984,"Delta":306218675},{"NoteNumber":33,"Velocity":51,"Duration":168766,"SoundDuration":168766,"Delta":306443916},{"NoteNumber":38,"Velocity":51,"Duration":182452,"SoundDuration":182452,"Delta":306668938},{"NoteNumber":45,"Velocity":51,"Duration":182452,"SoundDuration":182452,"Delta":306668938},{"NoteNumber":74,"Velocity":50,"Duration":78363,"SoundDuration":78363,"Delta":306912208},{"NoteNumber":33,"Velocity":40,"Duration":172261,"SoundDuration":172261,"Delta":306912208},{"NoteNumber":76,"Velocity":50,"Duration":78363,"SoundDuration":78363,"Delta":306990571},{"NoteNumber":74,"Velocity":50,"Duration":62135,"SoundDuration":62135,"Delta":307068935},{"NoteNumber":38,"Velocity":44,"Duration":149861,"SoundDuration":149861,"Delta":307131070},{"NoteNumber":45,"Velocity":44,"Duration":149861,"SoundDuration":149861,"Delta":307131070},{"NoteNumber":72,"Velocity":51,"Duration":113318,"SoundDuration":113318,"Delta":307224273},{"NoteNumber":66,"Velocity":51,"Duration":113318,"SoundDuration":113318,"Delta":307224273},{"NoteNumber":33,"Velocity":38,"Duration":169978,"SoundDuration":169978,"Delta":307337591},{"NoteNumber":45,"Velocity":38,"Duration":169978,"SoundDuration":169978,"Delta":307337591},{"NoteNumber":76,"Velocity":51,"Duration":113318,"SoundDuration":113318,"Delta":307450910},{"NoteNumber":72,"Velocity":51,"Duration":113318,"SoundDuration":113318,"Delta":307450910},{"NoteNumber":66,"Velocity":51,"Duration":113318,"SoundDuration":113318,"Delta":307450910},{"NoteNumber":38,"Velocity":44,"Duration":169978,"SoundDuration":169978,"Delta":307564229},{"NoteNumber":45,"Velocity":44,"Duration":169978,"SoundDuration":169978,"Delta":307564229},{"NoteNumber":72,"Velocity":51,"Duration":113318,"SoundDuration":113318,"Delta":307677548},{"NoteNumber":74,"Velocity":51,"Duration":113318,"SoundDuration":113318,"Delta":307677548},{"NoteNumber":66,"Velocity":51,"Duration":113318,"SoundDuration":113318,"Delta":307677548},{"NoteNumber":33,"Velocity":38,"Duration":169978,"SoundDuration":169978,"Delta":307790866},{"NoteNumber":45,"Velocity":38,"Duration":169978,"SoundDuration":169978,"Delta":307790866},{"NoteNumber":78,"Velocity":51,"Duration":113318,"SoundDuration":113318,"Delta":307904185},{"NoteNumber":72,"Velocity":51,"Duration":113318,"SoundDuration":113318,"Delta":307904185},{"NoteNumber":66,"Velocity":51,"Duration":113318,"SoundDuration":113318,"Delta":307904185},{"NoteNumber":38,"Velocity":42,"Duration":169363,"SoundDuration":169363,"Delta":308017504},{"NoteNumber":45,"Velocity":42,"Duration":169363,"SoundDuration":169363,"Delta":308017504},{"NoteNumber":66,"Velocity":50,"Duration":112909,"SoundDuration":112909,"Delta":308130413},{"NoteNumber":72,"Velocity":50,"Duration":112909,"SoundDuration":112909,"Delta":308130413},{"NoteNumber":33,"Velocity":38,"Duration":169363,"SoundDuration":169363,"Delta":308243322},{"NoteNumber":45,"Velocity":38,"Duration":169363,"SoundDuration":169363,"Delta":308243322},{"NoteNumber":76,"Velocity":50,"Duration":112909,"SoundDuration":112909,"Delta":308356232},{"NoteNumber":72,"Velocity":50,"Duration":112909,"SoundDuration":112909,"Delta":308356232},{"NoteNumber":66,"Velocity":50,"Duration":112909,"SoundDuration":112909,"Delta":308356232},{"NoteNumber":38,"Velocity":42,"Duration":169363,"SoundDuration":169363,"Delta":308469141},{"NoteNumber":45,"Velocity":42,"Duration":169363,"SoundDuration":169363,"Delta":308469141},{"NoteNumber":66,"Velocity":50,"Duration":112909,"SoundDuration":112909,"Delta":308582050},{"NoteNumber":72,"Velocity":50,"Duration":112909,"SoundDuration":112909,"Delta":308582050},{"NoteNumber":74,"Velocity":50,"Duration":112909,"SoundDuration":112909,"Delta":308582050},{"NoteNumber":33,"Velocity":36,"Duration":186042,"SoundDuration":186042,"Delta":308694959},{"NoteNumber":72,"Velocity":50,"Duration":124028,"SoundDuration":124028,"Delta":308818988},{"NoteNumber":78,"Velocity":50,"Duration":124028,"SoundDuration":124028,"Delta":308818988},{"NoteNumber":66,"Velocity":50,"Duration":124028,"SoundDuration":124028,"Delta":308818988},{"NoteNumber":74,"Velocity":60,"Duration":232485,"SoundDuration":232485,"Delta":308943016},{"NoteNumber":71,"Velocity":60,"Duration":232485,"SoundDuration":232485,"Delta":308943016},{"NoteNumber":69,"Velocity":60,"Duration":232485,"SoundDuration":232485,"Delta":308943016},{"NoteNumber":38,"Velocity":39,"Duration":174364,"SoundDuration":174364,"Delta":308943016},{"NoteNumber":45,"Velocity":39,"Duration":174364,"SoundDuration":174364,"Delta":308943016},{"NoteNumber":33,"Velocity":40,"Duration":174364,"SoundDuration":174364,"Delta":309175502},{"NoteNumber":74,"Velocity":51,"Duration":232485,"SoundDuration":232485,"Delta":309407988},{"NoteNumber":71,"Velocity":51,"Duration":232485,"SoundDuration":232485,"Delta":309407988},{"NoteNumber":67,"Velocity":51,"Duration":232485,"SoundDuration":232485,"Delta":309407988},{"NoteNumber":38,"Velocity":39,"Duration":174364,"SoundDuration":174364,"Delta":309407988},{"NoteNumber":45,"Velocity":39,"Duration":174364,"SoundDuration":174364,"Delta":309407988},{"NoteNumber":33,"Velocity":40,"Duration":174364,"SoundDuration":174364,"Delta":309640474},{"NoteNumber":74,"Velocity":51,"Duration":116242,"SoundDuration":116242,"Delta":309756717},{"NoteNumber":71,"Velocity":51,"Duration":116242,"SoundDuration":116242,"Delta":309756717},{"NoteNumber":67,"Velocity":51,"Duration":116242,"SoundDuration":116242,"Delta":309756717},{"NoteNumber":74,"Velocity":51,"Duration":450262,"SoundDuration":450262,"Delta":309872960},{"NoteNumber":71,"Velocity":51,"Duration":450262,"SoundDuration":450262,"Delta":309872960},{"NoteNumber":67,"Velocity":51,"Duration":450262,"SoundDuration":450262,"Delta":309872960},{"NoteNumber":38,"Velocity":39,"Duration":168984,"SoundDuration":168984,"Delta":309872960},{"NoteNumber":45,"Velocity":39,"Duration":168984,"SoundDuration":168984,"Delta":309872960},{"NoteNumber":33,"Velocity":39,"Duration":168766,"SoundDuration":168766,"Delta":310098201},{"NoteNumber":38,"Velocity":39,"Duration":179691,"SoundDuration":179691,"Delta":310323223},{"NoteNumber":45,"Velocity":39,"Duration":179691,"SoundDuration":179691,"Delta":310323223},{"NoteNumber":69,"Velocity":47,"Duration":78076,"SoundDuration":78076,"Delta":310563267},{"NoteNumber":33,"Velocity":39,"Duration":171639,"SoundDuration":171639,"Delta":310563267},{"NoteNumber":71,"Velocity":47,"Duration":77874,"SoundDuration":77874,"Delta":310642320},{"NoteNumber":69,"Velocity":47,"Duration":62151,"SoundDuration":62151,"Delta":310718444},{"NoteNumber":38,"Velocity":44,"Duration":149790,"SoundDuration":149790,"Delta":310781370},{"NoteNumber":45,"Velocity":44,"Duration":149790,"SoundDuration":149790,"Delta":310781370},{"NoteNumber":67,"Velocity":47,"Duration":113731,"SoundDuration":113731,"Delta":310874295},{"NoteNumber":61,"Velocity":47,"Duration":113731,"SoundDuration":113731,"Delta":310874295},{"NoteNumber":33,"Velocity":38,"Duration":170596,"SoundDuration":170596,"Delta":310988026},{"NoteNumber":71,"Velocity":47,"Duration":113731,"SoundDuration":113731,"Delta":311101758},{"NoteNumber":67,"Velocity":47,"Duration":113731,"SoundDuration":113731,"Delta":311101758},{"NoteNumber":61,"Velocity":47,"Duration":113731,"SoundDuration":113731,"Delta":311101758},{"NoteNumber":38,"Velocity":44,"Duration":170596,"SoundDuration":170596,"Delta":311215489},{"NoteNumber":45,"Velocity":44,"Duration":170596,"SoundDuration":170596,"Delta":311215489},{"NoteNumber":67,"Velocity":47,"Duration":113731,"SoundDuration":113731,"Delta":311329220},{"NoteNumber":69,"Velocity":47,"Duration":113731,"SoundDuration":113731,"Delta":311329220},{"NoteNumber":61,"Velocity":47,"Duration":113731,"SoundDuration":113731,"Delta":311329220},{"NoteNumber":33,"Velocity":38,"Duration":170596,"SoundDuration":170596,"Delta":311442951},{"NoteNumber":73,"Velocity":47,"Duration":113731,"SoundDuration":113731,"Delta":311556683},{"NoteNumber":67,"Velocity":47,"Duration":113731,"SoundDuration":113731,"Delta":311556683},{"NoteNumber":61,"Velocity":47,"Duration":113731,"SoundDuration":113731,"Delta":311556683},{"NoteNumber":38,"Velocity":42,"Duration":170596,"SoundDuration":170596,"Delta":311670414},{"NoteNumber":45,"Velocity":42,"Duration":170596,"SoundDuration":170596,"Delta":311670414},{"NoteNumber":61,"Velocity":47,"Duration":113731,"SoundDuration":113731,"Delta":311784145},{"NoteNumber":67,"Velocity":47,"Duration":113731,"SoundDuration":113731,"Delta":311784145},{"NoteNumber":33,"Velocity":38,"Duration":170596,"SoundDuration":170596,"Delta":311897876},{"NoteNumber":71,"Velocity":47,"Duration":113731,"SoundDuration":113731,"Delta":312011608},{"NoteNumber":67,"Velocity":47,"Duration":113731,"SoundDuration":113731,"Delta":312011608},{"NoteNumber":61,"Velocity":47,"Duration":113731,"SoundDuration":113731,"Delta":312011608},{"NoteNumber":38,"Velocity":42,"Duration":170596,"SoundDuration":170596,"Delta":312125339},{"NoteNumber":45,"Velocity":42,"Duration":170596,"SoundDuration":170596,"Delta":312125339},{"NoteNumber":61,"Velocity":47,"Duration":113731,"SoundDuration":113731,"Delta":312239070},{"NoteNumber":67,"Velocity":47,"Duration":113731,"SoundDuration":113731,"Delta":312239070},{"NoteNumber":69,"Velocity":47,"Duration":113731,"SoundDuration":113731,"Delta":312239070},{"NoteNumber":33,"Velocity":36,"Duration":186042,"SoundDuration":186042,"Delta":312352801},{"NoteNumber":67,"Velocity":47,"Duration":124028,"SoundDuration":124028,"Delta":312476830},{"NoteNumber":73,"Velocity":47,"Duration":124028,"SoundDuration":124028,"Delta":312476830},{"NoteNumber":61,"Velocity":47,"Duration":124028,"SoundDuration":124028,"Delta":312476830},{"NoteNumber":69,"Velocity":55,"Duration":232485,"SoundDuration":232485,"Delta":312600858},{"NoteNumber":66,"Velocity":55,"Duration":232485,"SoundDuration":232485,"Delta":312600858},{"NoteNumber":64,"Velocity":55,"Duration":232485,"SoundDuration":232485,"Delta":312600858},{"NoteNumber":38,"Velocity":39,"Duration":174364,"SoundDuration":174364,"Delta":312600858},{"NoteNumber":45,"Velocity":39,"Duration":174364,"SoundDuration":174364,"Delta":312600858},{"NoteNumber":33,"Velocity":40,"Duration":174364,"SoundDuration":174364,"Delta":312833344},{"NoteNumber":69,"Velocity":47,"Duration":232485,"SoundDuration":232485,"Delta":313065830},{"NoteNumber":66,"Velocity":47,"Duration":232485,"SoundDuration":232485,"Delta":313065830},{"NoteNumber":62,"Velocity":47,"Duration":232485,"SoundDuration":232485,"Delta":313065830},{"NoteNumber":38,"Velocity":39,"Duration":174364,"SoundDuration":174364,"Delta":313065830},{"NoteNumber":45,"Velocity":39,"Duration":174364,"SoundDuration":174364,"Delta":313065830},{"NoteNumber":33,"Velocity":40,"Duration":174364,"SoundDuration":174364,"Delta":313298316},{"NoteNumber":69,"Velocity":47,"Duration":116242,"SoundDuration":116242,"Delta":313414559},{"NoteNumber":66,"Velocity":47,"Duration":116242,"SoundDuration":116242,"Delta":313414559},{"NoteNumber":62,"Velocity":47,"Duration":116242,"SoundDuration":116242,"Delta":313414559},{"NoteNumber":69,"Velocity":47,"Duration":428055,"SoundDuration":428055,"Delta":313530802},{"NoteNumber":66,"Velocity":47,"Duration":428055,"SoundDuration":428055,"Delta":313530802},{"NoteNumber":62,"Velocity":47,"Duration":428055,"SoundDuration":428055,"Delta":313530802},{"NoteNumber":38,"Velocity":39,"Duration":160064,"SoundDuration":160064,"Delta":313530802},{"NoteNumber":45,"Velocity":39,"Duration":160064,"SoundDuration":160064,"Delta":313530802},{"NoteNumber":33,"Velocity":39,"Duration":160794,"SoundDuration":160794,"Delta":313744465},{"NoteNumber":38,"Velocity":39,"Duration":160794,"SoundDuration":160794,"Delta":313958858},{"NoteNumber":45,"Velocity":39,"Duration":160794,"SoundDuration":160794,"Delta":313958858},{"NoteNumber":33,"Velocity":39,"Duration":163529,"SoundDuration":163529,"Delta":314173555},{"NoteNumber":62,"Velocity":45,"Duration":222733,"SoundDuration":222733,"Delta":314391594},{"NoteNumber":59,"Velocity":45,"Duration":222733,"SoundDuration":222733,"Delta":314391594},{"NoteNumber":57,"Velocity":45,"Duration":222733,"SoundDuration":222733,"Delta":314391594},{"NoteNumber":38,"Velocity":35,"Duration":167050,"SoundDuration":167050,"Delta":314391594},{"NoteNumber":45,"Velocity":35,"Duration":167050,"SoundDuration":167050,"Delta":314391594},{"NoteNumber":33,"Velocity":36,"Duration":167050,"SoundDuration":167050,"Delta":314614327},{"NoteNumber":62,"Velocity":42,"Duration":222733,"SoundDuration":222733,"Delta":314837061},{"NoteNumber":59,"Velocity":42,"Duration":222733,"SoundDuration":222733,"Delta":314837061},{"NoteNumber":55,"Velocity":42,"Duration":222733,"SoundDuration":222733,"Delta":314837061},{"NoteNumber":38,"Velocity":35,"Duration":167050,"SoundDuration":167050,"Delta":314837061},{"NoteNumber":45,"Velocity":35,"Duration":167050,"SoundDuration":167050,"Delta":314837061},{"NoteNumber":33,"Velocity":36,"Duration":167050,"SoundDuration":167050,"Delta":315059794},{"NoteNumber":62,"Velocity":42,"Duration":111366,"SoundDuration":111366,"Delta":315171161},{"NoteNumber":59,"Velocity":42,"Duration":111366,"SoundDuration":111366,"Delta":315171161},{"NoteNumber":55,"Velocity":42,"Duration":111366,"SoundDuration":111366,"Delta":315171161},{"NoteNumber":62,"Velocity":42,"Duration":428786,"SoundDuration":428786,"Delta":315282528},{"NoteNumber":59,"Velocity":42,"Duration":428786,"SoundDuration":428786,"Delta":315282528},{"NoteNumber":55,"Velocity":42,"Duration":428786,"SoundDuration":428786,"Delta":315282528},{"NoteNumber":38,"Velocity":35,"Duration":160794,"SoundDuration":160794,"Delta":315282528},{"NoteNumber":45,"Velocity":35,"Duration":160794,"SoundDuration":160794,"Delta":315282528},{"NoteNumber":33,"Velocity":35,"Duration":160794,"SoundDuration":160794,"Delta":315496921},{"NoteNumber":38,"Velocity":35,"Duration":160794,"SoundDuration":160794,"Delta":315711314},{"NoteNumber":45,"Velocity":35,"Duration":160794,"SoundDuration":160794,"Delta":315711314},{"NoteNumber":33,"Velocity":35,"Duration":160794,"SoundDuration":160794,"Delta":315925707},{"NoteNumber":38,"Velocity":35,"Duration":111201,"SoundDuration":111201,"Delta":316140100},{"NoteNumber":45,"Velocity":35,"Duration":111201,"SoundDuration":111201,"Delta":316140100},{"NoteNumber":52,"Velocity":35,"Duration":112722,"SoundDuration":112722,"Delta":316584907},{"NoteNumber":57,"Velocity":35,"Duration":112722,"SoundDuration":112722,"Delta":316584907},{"NoteNumber":54,"Velocity":35,"Duration":112722,"SoundDuration":112722,"Delta":316584907},{"NoteNumber":33,"Velocity":36,"Duration":112722,"SoundDuration":112722,"Delta":316584907},{"NoteNumber":38,"Velocity":35,"Duration":110464,"SoundDuration":110464,"Delta":317035798},{"NoteNumber":45,"Velocity":35,"Duration":110464,"SoundDuration":110464,"Delta":317035798},{"NoteNumber":50,"Velocity":35,"Duration":112334,"SoundDuration":112334,"Delta":317477657},{"NoteNumber":57,"Velocity":35,"Duration":112334,"SoundDuration":112334,"Delta":317477657},{"NoteNumber":54,"Velocity":35,"Duration":112334,"SoundDuration":112334,"Delta":317477657},{"NoteNumber":33,"Velocity":35,"Duration":112334,"SoundDuration":112334,"Delta":317477657},{"NoteNumber":38,"Velocity":35,"Duration":110091,"SoundDuration":110091,"Delta":317926994},{"NoteNumber":45,"Velocity":35,"Duration":110091,"SoundDuration":110091,"Delta":317926994},{"NoteNumber":45,"Velocity":35,"Duration":112722,"SoundDuration":112722,"Delta":318367361},{"NoteNumber":47,"Velocity":35,"Duration":112722,"SoundDuration":112722,"Delta":318367361},{"NoteNumber":50,"Velocity":35,"Duration":112722,"SoundDuration":112722,"Delta":318367361},{"NoteNumber":33,"Velocity":34,"Duration":112722,"SoundDuration":112722,"Delta":318367361},{"NoteNumber":38,"Velocity":35,"Duration":111582,"SoundDuration":111582,"Delta":318818252},{"NoteNumber":45,"Velocity":35,"Duration":111582,"SoundDuration":111582,"Delta":318818252},{"NoteNumber":43,"Velocity":35,"Duration":115074,"SoundDuration":115074,"Delta":319264581},{"NoteNumber":47,"Velocity":35,"Duration":115074,"SoundDuration":115074,"Delta":319264581},{"NoteNumber":50,"Velocity":35,"Duration":115074,"SoundDuration":115074,"Delta":319264581},{"NoteNumber":33,"Velocity":35,"Duration":115074,"SoundDuration":115074,"Delta":319264581},{"NoteNumber":38,"Velocity":35,"Duration":229340,"SoundDuration":229340,"Delta":319724880},{"NoteNumber":45,"Velocity":35,"Duration":229340,"SoundDuration":229340,"Delta":319724880},{"NoteNumber":50,"Velocity":35,"Duration":225445,"SoundDuration":225445,"Delta":320183561},{"NoteNumber":43,"Velocity":35,"Duration":225445,"SoundDuration":225445,"Delta":320183561},{"NoteNumber":57,"Velocity":35,"Duration":225445,"SoundDuration":225445,"Delta":320634452},{"NoteNumber":50,"Velocity":35,"Duration":225445,"SoundDuration":225445,"Delta":320634452},{"NoteNumber":62,"Velocity":35,"Duration":225445,"SoundDuration":225445,"Delta":321085343},{"NoteNumber":55,"Velocity":35,"Duration":225445,"SoundDuration":225445,"Delta":321085343},{"NoteNumber":62,"Velocity":35,"Duration":225764,"SoundDuration":225764,"Delta":321536234},{"NoteNumber":69,"Velocity":35,"Duration":225764,"SoundDuration":225764,"Delta":321536234},{"NoteNumber":74,"Velocity":37,"Duration":228489,"SoundDuration":228489,"Delta":321989048},{"NoteNumber":67,"Velocity":37,"Duration":228489,"SoundDuration":228489,"Delta":321989048},{"NoteNumber":81,"Velocity":38,"Duration":230947,"SoundDuration":230947,"Delta":322447417},{"NoteNumber":74,"Velocity":38,"Duration":230947,"SoundDuration":230947,"Delta":322447417},{"NoteNumber":86,"Velocity":39,"Duration":230947,"SoundDuration":230947,"Delta":322909311},{"NoteNumber":79,"Velocity":39,"Duration":230947,"SoundDuration":230947,"Delta":322909311},{"NoteNumber":93,"Velocity":42,"Duration":230747,"SoundDuration":230747,"Delta":323371205},{"NoteNumber":86,"Velocity":42,"Duration":230747,"SoundDuration":230747,"Delta":323371205},{"NoteNumber":86,"Velocity":39,"Duration":228750,"SoundDuration":228750,"Delta":323831697},{"NoteNumber":79,"Velocity":39,"Duration":228750,"SoundDuration":228750,"Delta":323831697},{"NoteNumber":81,"Velocity":39,"Duration":226595,"SoundDuration":226595,"Delta":324288023},{"NoteNumber":74,"Velocity":39,"Duration":226595,"SoundDuration":226595,"Delta":324288023},{"NoteNumber":67,"Velocity":37,"Duration":224668,"SoundDuration":224668,"Delta":324740255},{"NoteNumber":74,"Velocity":37,"Duration":224668,"SoundDuration":224668,"Delta":324740255},{"NoteNumber":62,"Velocity":35,"Duration":224668,"SoundDuration":224668,"Delta":325189592},{"NoteNumber":69,"Velocity":35,"Duration":224668,"SoundDuration":224668,"Delta":325189592},{"NoteNumber":55,"Velocity":35,"Duration":224668,"SoundDuration":224668,"Delta":325638929},{"NoteNumber":62,"Velocity":35,"Duration":224668,"SoundDuration":224668,"Delta":325638929},{"NoteNumber":50,"Velocity":31,"Duration":224668,"SoundDuration":224668,"Delta":326088266},{"NoteNumber":57,"Velocity":31,"Duration":224668,"SoundDuration":224668,"Delta":326088266},{"NoteNumber":43,"Velocity":34,"Duration":224668,"SoundDuration":224668,"Delta":326537603},{"NoteNumber":50,"Velocity":34,"Duration":224668,"SoundDuration":224668,"Delta":326537603},{"NoteNumber":38,"Velocity":31,"Duration":229340,"SoundDuration":229340,"Delta":326986940},{"NoteNumber":45,"Velocity":31,"Duration":229340,"SoundDuration":229340,"Delta":326986940},{"NoteNumber":31,"Velocity":30,"Duration":229340,"SoundDuration":229340,"Delta":327904302},{"NoteNumber":38,"Velocity":30,"Duration":229340,"SoundDuration":229340,"Delta":327904302},{"NoteNumber":86,"Velocity":126,"Duration":390083,"SoundDuration":390083,"Delta":328883094},{"NoteNumber":81,"Velocity":94,"Duration":390083,"SoundDuration":390083,"Delta":328883094},{"NoteNumber":78,"Velocity":93,"Duration":390083,"SoundDuration":390083,"Delta":328883094},{"NoteNumber":74,"Velocity":93,"Duration":390083,"SoundDuration":390083,"Delta":328883094},{"NoteNumber":26,"Velocity":77,"Duration":390083,"SoundDuration":390083,"Delta":328883094},{"NoteNumber":33,"Velocity":77,"Duration":390083,"SoundDuration":390083,"Delta":328883094},{"NoteNumber":38,"Velocity":91,"Duration":390083,"SoundDuration":390083,"Delta":328883094}],"license":{"name":"Creative Commons Attribution-ShareAlike 3.0 Germany","url":"http://creativecommons.org/licenses/by-sa/3.0/de/deed.en","text":"The MIDI, audio (MP3, OGG) and video files of Bernd Krueger are licensed under the cc-by-sa Germany License. This means that you can use and adapt the files, as long as you attribute the copyright holder.\n\nName: Bernd Krueger\nSource: http://www.piano-midi.de\n\nThe distribution or public playback of the files is only allowed under identical license conditions.\n\nThe scores are open source.","attribution":"MIDI files by Bernd Krueger (piano-midi.de)","attributionUrl":"http://www.piano-midi.de"}}