{"title":"Kobold Op 71, No. 3","artist":"Grieg","durationMs":84413,"midiSha256":"5b8c9ae8655eb0ee04d11bfdee72a6a8d3a0c83055f63e8415506dbb4227b739","midiObject":[{"NoteNumber":39,"Velocity":45,"Duration":77720,"SoundDuration":77720,"Delta":0},{"NoteNumber":46,"Velocity":41,"Duration":77720,"SoundDuration":77720,"Delta":154793},{"NoteNumber":39,"Velocity":41,"Duration":77720,"SoundDuration":77720,"Delta":310234},{"NoteNumber":34,"Velocity":41,"Duration":77720,"SoundDuration":77720,"Delta":465674},{"NoteNumber":39,"Velocity":45,"Duration":76726,"SoundDuration":76726,"Delta":621115},{"NoteNumber":46,"Velocity":41,"Duration":76726,"SoundDuration":76726,"Delta":774567},{"NoteNumber":39,"Velocity":41,"Duration":76726,"SoundDuration":76726,"Delta":928020},{"NoteNumber":63,"Velocity":45,"Duration":78125,"SoundDuration":78125,"Delta":1081472},{"NoteNumber":34,"Velocity":41,"Duration":78125,"SoundDuration":78125,"Delta":1081472},{"NoteNumber":65,"Velocity":45,"Duration":77891,"SoundDuration":77891,"Delta":1159597},{"NoteNumber":66,"Velocity":49,"Duration":77519,"SoundDuration":77519,"Delta":1237489},{"NoteNumber":70,"Velocity":49,"Duration":77519,"SoundDuration":77519,"Delta":1237489},{"NoteNumber":39,"Velocity":45,"Duration":77519,"SoundDuration":77519,"Delta":1237489},{"NoteNumber":65,"Velocity":45,"Duration":77519,"SoundDuration":77519,"Delta":1315008},{"NoteNumber":63,"Velocity":45,"Duration":77519,"SoundDuration":77519,"Delta":1392528},{"NoteNumber":46,"Velocity":42,"Duration":77519,"SoundDuration":77519,"Delta":1392528},{"NoteNumber":65,"Velocity":45,"Duration":77519,"SoundDuration":77519,"Delta":1470047},{"NoteNumber":66,"Velocity":47,"Duration":76142,"SoundDuration":76142,"Delta":1547567},{"NoteNumber":70,"Velocity":47,"Duration":76142,"SoundDuration":76142,"Delta":1547567},{"NoteNumber":39,"Velocity":42,"Duration":76142,"SoundDuration":76142,"Delta":1547567},{"NoteNumber":65,"Velocity":45,"Duration":76142,"SoundDuration":76142,"Delta":1623709},{"NoteNumber":63,"Velocity":45,"Duration":78329,"SoundDuration":78329,"Delta":1699851},{"NoteNumber":34,"Velocity":42,"Duration":78329,"SoundDuration":78329,"Delta":1699851},{"NoteNumber":65,"Velocity":45,"Duration":78328,"SoundDuration":78328,"Delta":1778180},{"NoteNumber":70,"Velocity":49,"Duration":77519,"SoundDuration":77519,"Delta":1856509},{"NoteNumber":66,"Velocity":49,"Duration":77519,"SoundDuration":77519,"Delta":1856509},{"NoteNumber":39,"Velocity":45,"Duration":77519,"SoundDuration":77519,"Delta":1856509},{"NoteNumber":66,"Velocity":45,"Duration":77519,"SoundDuration":77519,"Delta":2011548},{"NoteNumber":63,"Velocity":45,"Duration":77519,"SoundDuration":77519,"Delta":2011548},{"NoteNumber":46,"Velocity":42,"Duration":77519,"SoundDuration":77519,"Delta":2011548},{"NoteNumber":66,"Velocity":46,"Duration":79365,"SoundDuration":79365,"Delta":2166587},{"NoteNumber":63,"Velocity":46,"Duration":79365,"SoundDuration":79365,"Delta":2166587},{"NoteNumber":39,"Velocity":42,"Duration":79365,"SoundDuration":79365,"Delta":2166587},{"NoteNumber":66,"Velocity":45,"Duration":78125,"SoundDuration":78125,"Delta":2325317},{"NoteNumber":70,"Velocity":45,"Duration":78125,"SoundDuration":78125,"Delta":2325317},{"NoteNumber":34,"Velocity":42,"Duration":78125,"SoundDuration":78125,"Delta":2325317},{"NoteNumber":65,"Velocity":50,"Duration":77319,"SoundDuration":77319,"Delta":2481567},{"NoteNumber":69,"Velocity":50,"Duration":77319,"SoundDuration":77319,"Delta":2481567},{"NoteNumber":39,"Velocity":45,"Duration":77319,"SoundDuration":77319,"Delta":2481567},{"NoteNumber":60,"Velocity":45,"Duration":77319,"SoundDuration":77319,"Delta":2636206},{"NoteNumber":65,"Velocity":45,"Duration":77319,"SoundDuration":77319,"Delta":2636206},{"NoteNumber":46,"Velocity":42,"Duration":77319,"SoundDuration":77319,"Delta":2636206},{"NoteNumber":65,"Velocity":46,"Duration":79155,"SoundDuration":79155,"Delta":2790845},{"NoteNumber":60,"Velocity":46,"Duration":79155,"SoundDuration":79155,"Delta":2790845},{"NoteNumber":39,"Velocity":42,"Duration":79155,"SoundDuration":79155,"Delta":2790845},{"NoteNumber":65,"Velocity":45,"Duration":77922,"SoundDuration":77922,"Delta":2949157},{"NoteNumber":69,"Velocity":45,"Duration":77922,"SoundDuration":77922,"Delta":2949157},{"NoteNumber":34,"Velocity":42,"Duration":77922,"SoundDuration":77922,"Delta":2949157},{"NoteNumber":69,"Velocity":54,"Duration":459182,"SoundDuration":459182,"Delta":3105001},{"NoteNumber":65,"Velocity":54,"Duration":459182,"SoundDuration":459182,"Delta":3105001},{"NoteNumber":39,"Velocity":45,"Duration":76530,"SoundDuration":76530,"Delta":3105001},{"NoteNumber":46,"Velocity":41,"Duration":76530,"SoundDuration":76530,"Delta":3258062},{"NoteNumber":39,"Velocity":41,"Duration":76530,"SoundDuration":76530,"Delta":3411123},{"NoteNumber":68,"Velocity":46,"Duration":78740,"SoundDuration":78740,"Delta":3564184},{"NoteNumber":34,"Velocity":41,"Duration":78740,"SoundDuration":78740,"Delta":3564184},{"NoteNumber":70,"Velocity":49,"Duration":78275,"SoundDuration":78275,"Delta":3642924},{"NoteNumber":71,"Velocity":54,"Duration":77519,"SoundDuration":77519,"Delta":3721199},{"NoteNumber":75,"Velocity":54,"Duration":77519,"SoundDuration":77519,"Delta":3721199},{"NoteNumber":39,"Velocity":49,"Duration":77519,"SoundDuration":77519,"Delta":3721199},{"NoteNumber":70,"Velocity":51,"Duration":77519,"SoundDuration":77519,"Delta":3798719},{"NoteNumber":68,"Velocity":51,"Duration":77519,"SoundDuration":77519,"Delta":3876238},{"NoteNumber":46,"Velocity":45,"Duration":77519,"SoundDuration":77519,"Delta":3876238},{"NoteNumber":70,"Velocity":51,"Duration":77519,"SoundDuration":77519,"Delta":3953758},{"NoteNumber":75,"Velocity":54,"Duration":76336,"SoundDuration":76336,"Delta":4031277},{"NoteNumber":71,"Velocity":54,"Duration":76336,"SoundDuration":76336,"Delta":4031277},{"NoteNumber":39,"Velocity":45,"Duration":76336,"SoundDuration":76336,"Delta":4031277},{"NoteNumber":70,"Velocity":50,"Duration":76335,"SoundDuration":76335,"Delta":4107613},{"NoteNumber":68,"Velocity":50,"Duration":78534,"SoundDuration":78534,"Delta":4183949},{"NoteNumber":34,"Velocity":45,"Duration":78534,"SoundDuration":78534,"Delta":4183949},{"NoteNumber":70,"Velocity":50,"Duration":78533,"SoundDuration":78533,"Delta":4262483},{"NoteNumber":71,"Velocity":54,"Duration":77720,"SoundDuration":77720,"Delta":4341017},{"NoteNumber":75,"Velocity":54,"Duration":77720,"SoundDuration":77720,"Delta":4341017},{"NoteNumber":39,"Velocity":49,"Duration":77720,"SoundDuration":77720,"Delta":4341017},{"NoteNumber":71,"Velocity":50,"Duration":77720,"SoundDuration":77720,"Delta":4496458},{"NoteNumber":68,"Velocity":50,"Duration":77720,"SoundDuration":77720,"Delta":4496458},{"NoteNumber":46,"Velocity":45,"Duration":77720,"SoundDuration":77720,"Delta":4496458},{"NoteNumber":68,"Velocity":50,"Duration":79787,"SoundDuration":79787,"Delta":4651898},{"NoteNumber":71,"Velocity":50,"Duration":79787,"SoundDuration":79787,"Delta":4651898},{"NoteNumber":39,"Velocity":45,"Duration":79787,"SoundDuration":79787,"Delta":4651898},{"NoteNumber":75,"Velocity":50,"Duration":78329,"SoundDuration":78329,"Delta":4811473},{"NoteNumber":71,"Velocity":50,"Duration":78329,"SoundDuration":78329,"Delta":4811473},{"NoteNumber":34,"Velocity":45,"Duration":78329,"SoundDuration":78329,"Delta":4811473},{"NoteNumber":70,"Velocity":54,"Duration":77519,"SoundDuration":77519,"Delta":4968131},{"NoteNumber":74,"Velocity":54,"Duration":77519,"SoundDuration":77519,"Delta":4968131},{"NoteNumber":39,"Velocity":49,"Duration":77519,"SoundDuration":77519,"Delta":4968131},{"NoteNumber":70,"Velocity":50,"Duration":77519,"SoundDuration":77519,"Delta":5123170},{"NoteNumber":65,"Velocity":50,"Duration":77519,"SoundDuration":77519,"Delta":5123170},{"NoteNumber":46,"Velocity":45,"Duration":77519,"SoundDuration":77519,"Delta":5123170},{"NoteNumber":70,"Velocity":50,"Duration":79365,"SoundDuration":79365,"Delta":5278209},{"NoteNumber":65,"Velocity":50,"Duration":79365,"SoundDuration":79365,"Delta":5278209},{"NoteNumber":39,"Velocity":45,"Duration":79365,"SoundDuration":79365,"Delta":5278209},{"NoteNumber":74,"Velocity":50,"Duration":78125,"SoundDuration":78125,"Delta":5436939},{"NoteNumber":70,"Velocity":50,"Duration":78125,"SoundDuration":78125,"Delta":5436939},{"NoteNumber":34,"Velocity":45,"Duration":78125,"SoundDuration":78125,"Delta":5436939},{"NoteNumber":70,"Velocity":58,"Duration":227847,"SoundDuration":227847,"Delta":5593189},{"NoteNumber":74,"Velocity":58,"Duration":227847,"SoundDuration":227847,"Delta":5593189},{"NoteNumber":39,"Velocity":49,"Duration":75949,"SoundDuration":75949,"Delta":5593189},{"NoteNumber":46,"Velocity":45,"Duration":75949,"SoundDuration":75949,"Delta":5745087},{"NoteNumber":39,"Velocity":45,"Duration":77319,"SoundDuration":77319,"Delta":5896986},{"NoteNumber":78,"Velocity":74,"Duration":79155,"SoundDuration":79155,"Delta":6051625},{"NoteNumber":80,"Velocity":74,"Duration":79155,"SoundDuration":79155,"Delta":6130780},{"NoteNumber":82,"Velocity":86,"Duration":76530,"SoundDuration":76530,"Delta":6209936},{"NoteNumber":85,"Velocity":86,"Duration":76530,"SoundDuration":76530,"Delta":6209936},{"NoteNumber":66,"Velocity":67,"Duration":464433,"SoundDuration":464433,"Delta":6209936},{"NoteNumber":73,"Velocity":67,"Duration":464433,"SoundDuration":464433,"Delta":6209936},{"NoteNumber":80,"Velocity":73,"Duration":76530,"SoundDuration":76530,"Delta":6286467},{"NoteNumber":78,"Velocity":73,"Duration":76530,"SoundDuration":76530,"Delta":6362997},{"NoteNumber":80,"Velocity":73,"Duration":76530,"SoundDuration":76530,"Delta":6439528},{"NoteNumber":85,"Velocity":79,"Duration":145118,"SoundDuration":145118,"Delta":6516058},{"NoteNumber":82,"Velocity":79,"Duration":145118,"SoundDuration":145118,"Delta":6516058},{"NoteNumber":73,"Velocity":73,"Duration":78947,"SoundDuration":78947,"Delta":6674370},{"NoteNumber":75,"Velocity":73,"Duration":78947,"SoundDuration":78947,"Delta":6753317},{"NoteNumber":77,"Velocity":85,"Duration":76726,"SoundDuration":76726,"Delta":6832264},{"NoteNumber":80,"Velocity":85,"Duration":76726,"SoundDuration":76726,"Delta":6832264},{"NoteNumber":68,"Velocity":67,"Duration":464799,"SoundDuration":464799,"Delta":6832264},{"NoteNumber":61,"Velocity":67,"Duration":464799,"SoundDuration":464799,"Delta":6832264},{"NoteNumber":75,"Velocity":73,"Duration":76726,"SoundDuration":76726,"Delta":6908990},{"NoteNumber":73,"Velocity":71,"Duration":76726,"SoundDuration":76726,"Delta":6985717},{"NoteNumber":75,"Velocity":71,"Duration":76726,"SoundDuration":76726,"Delta":7062443},{"NoteNumber":77,"Velocity":80,"Duration":144736,"SoundDuration":144736,"Delta":7139169},{"NoteNumber":80,"Velocity":80,"Duration":144736,"SoundDuration":144736,"Delta":7139169},{"NoteNumber":71,"Velocity":73,"Duration":78534,"SoundDuration":78534,"Delta":7297064},{"NoteNumber":73,"Velocity":73,"Duration":78533,"SoundDuration":78533,"Delta":7375598},{"NoteNumber":78,"Velocity":86,"Duration":76726,"SoundDuration":76726,"Delta":7454132},{"NoteNumber":75,"Velocity":86,"Duration":76726,"SoundDuration":76726,"Delta":7454132},{"NoteNumber":66,"Velocity":67,"Duration":464799,"SoundDuration":464799,"Delta":7454132},{"NoteNumber":59,"Velocity":67,"Duration":464799,"SoundDuration":464799,"Delta":7454132},{"NoteNumber":73,"Velocity":71,"Duration":76726,"SoundDuration":76726,"Delta":7530858},{"NoteNumber":71,"Velocity":71,"Duration":76726,"SoundDuration":76726,"Delta":7607584},{"NoteNumber":73,"Velocity":71,"Duration":76726,"SoundDuration":76726,"Delta":7684310},{"NoteNumber":78,"Velocity":80,"Duration":144736,"SoundDuration":144736,"Delta":7761037},{"NoteNumber":75,"Velocity":80,"Duration":144736,"SoundDuration":144736,"Delta":7761037},{"NoteNumber":66,"Velocity":74,"Duration":78534,"SoundDuration":78534,"Delta":7918931},{"NoteNumber":68,"Velocity":74,"Duration":78533,"SoundDuration":78533,"Delta":7997465},{"NoteNumber":73,"Velocity":89,"Duration":76726,"SoundDuration":76726,"Delta":8075999},{"NoteNumber":70,"Velocity":89,"Duration":76726,"SoundDuration":76726,"Delta":8075999},{"NoteNumber":61,"Velocity":67,"Duration":460357,"SoundDuration":460357,"Delta":8075999},{"NoteNumber":54,"Velocity":67,"Duration":460357,"SoundDuration":460357,"Delta":8075999},{"NoteNumber":68,"Velocity":71,"Duration":76726,"SoundDuration":76726,"Delta":8152725},{"NoteNumber":66,"Velocity":71,"Duration":76726,"SoundDuration":76726,"Delta":8229452},{"NoteNumber":68,"Velocity":71,"Duration":76726,"SoundDuration":76726,"Delta":8306178},{"NoteNumber":73,"Velocity":79,"Duration":140664,"SoundDuration":140664,"Delta":8382904},{"NoteNumber":70,"Velocity":79,"Duration":140664,"SoundDuration":140664,"Delta":8382904},{"NoteNumber":53,"Velocity":69,"Duration":78740,"SoundDuration":78740,"Delta":8536357},{"NoteNumber":41,"Velocity":67,"Duration":78740,"SoundDuration":78740,"Delta":8536357},{"NoteNumber":54,"Velocity":69,"Duration":78740,"SoundDuration":78740,"Delta":8615097},{"NoteNumber":42,"Velocity":67,"Duration":78740,"SoundDuration":78740,"Delta":8615097},{"NoteNumber":56,"Velocity":79,"Duration":76530,"SoundDuration":76530,"Delta":8693837},{"NoteNumber":44,"Velocity":79,"Duration":76530,"SoundDuration":76530,"Delta":8693837},{"NoteNumber":54,"Velocity":67,"Duration":76530,"SoundDuration":76530,"Delta":8770368},{"NoteNumber":42,"Velocity":67,"Duration":76530,"SoundDuration":76530,"Delta":8770368},{"NoteNumber":53,"Velocity":67,"Duration":78533,"SoundDuration":78533,"Delta":8846898},{"NoteNumber":41,"Velocity":67,"Duration":78533,"SoundDuration":78533,"Delta":8846898},{"NoteNumber":54,"Velocity":73,"Duration":76530,"SoundDuration":76530,"Delta":9003966},{"NoteNumber":42,"Velocity":70,"Duration":76530,"SoundDuration":76530,"Delta":9003966},{"NoteNumber":53,"Velocity":63,"Duration":76530,"SoundDuration":76530,"Delta":9080497},{"NoteNumber":41,"Velocity":64,"Duration":76530,"SoundDuration":76530,"Delta":9080497},{"NoteNumber":51,"Velocity":63,"Duration":78740,"SoundDuration":78740,"Delta":9157027},{"NoteNumber":39,"Velocity":64,"Duration":78740,"SoundDuration":78740,"Delta":9157027},{"NoteNumber":53,"Velocity":69,"Duration":76530,"SoundDuration":76530,"Delta":9314508},{"NoteNumber":41,"Velocity":69,"Duration":76530,"SoundDuration":76530,"Delta":9314508},{"NoteNumber":51,"Velocity":61,"Duration":76530,"SoundDuration":76530,"Delta":9391038},{"NoteNumber":39,"Velocity":60,"Duration":76530,"SoundDuration":76530,"Delta":9391038},{"NoteNumber":49,"Velocity":61,"Duration":78329,"SoundDuration":78329,"Delta":9467569},{"NoteNumber":37,"Velocity":60,"Duration":78329,"SoundDuration":78329,"Delta":9467569},{"NoteNumber":51,"Velocity":66,"Duration":76530,"SoundDuration":76530,"Delta":9624227},{"NoteNumber":39,"Velocity":67,"Duration":76530,"SoundDuration":76530,"Delta":9624227},{"NoteNumber":49,"Velocity":59,"Duration":76530,"SoundDuration":76530,"Delta":9700757},{"NoteNumber":37,"Velocity":59,"Duration":76530,"SoundDuration":76530,"Delta":9700757},{"NoteNumber":48,"Velocity":59,"Duration":76530,"SoundDuration":76530,"Delta":9777288},{"NoteNumber":36,"Velocity":59,"Duration":76530,"SoundDuration":76530,"Delta":9777288},{"NoteNumber":51,"Velocity":45,"Duration":76726,"SoundDuration":76726,"Delta":10542593},{"NoteNumber":39,"Velocity":45,"Duration":76726,"SoundDuration":76726,"Delta":10542593},{"NoteNumber":49,"Velocity":40,"Duration":76726,"SoundDuration":76726,"Delta":10619319},{"NoteNumber":37,"Velocity":41,"Duration":76726,"SoundDuration":76726,"Delta":10619319},{"NoteNumber":47,"Velocity":40,"Duration":76726,"SoundDuration":76726,"Delta":10696045},{"NoteNumber":35,"Velocity":41,"Duration":76726,"SoundDuration":76726,"Delta":10696045},{"NoteNumber":46,"Velocity":73,"Duration":76563,"SoundDuration":76563,"Delta":11161186},{"NoteNumber":34,"Velocity":67,"Duration":620029,"SoundDuration":620029,"Delta":11161186},{"NoteNumber":41,"Velocity":67,"Duration":620029,"SoundDuration":620029,"Delta":11161186},{"NoteNumber":53,"Velocity":67,"Duration":76824,"SoundDuration":76824,"Delta":11237749},{"NoteNumber":58,"Velocity":67,"Duration":77054,"SoundDuration":77054,"Delta":11314573},{"NoteNumber":58,"Velocity":67,"Duration":77386,"SoundDuration":77386,"Delta":11391628},{"NoteNumber":65,"Velocity":72,"Duration":77619,"SoundDuration":77619,"Delta":11469014},{"NoteNumber":70,"Velocity":74,"Duration":77922,"SoundDuration":77922,"Delta":11546634},{"NoteNumber":70,"Velocity":78,"Duration":78192,"SoundDuration":78192,"Delta":11624557},{"NoteNumber":77,"Velocity":81,"Duration":78465,"SoundDuration":78465,"Delta":11702750},{"NoteNumber":77,"Velocity":85,"Duration":157480,"SoundDuration":157480,"Delta":11781215},{"NoteNumber":70,"Velocity":85,"Duration":157480,"SoundDuration":157480,"Delta":11781215},{"NoteNumber":82,"Velocity":85,"Duration":157480,"SoundDuration":157480,"Delta":11781215},{"NoteNumber":65,"Velocity":81,"Duration":157480,"SoundDuration":157480,"Delta":11781215},{"NoteNumber":58,"Velocity":81,"Duration":157480,"SoundDuration":157480,"Delta":11781215},{"NoteNumber":32,"Velocity":61,"Duration":78740,"SoundDuration":78740,"Delta":12253657},{"NoteNumber":34,"Velocity":61,"Duration":78740,"SoundDuration":78740,"Delta":12332397},{"NoteNumber":47,"Velocity":45,"Duration":775574,"SoundDuration":775574,"Delta":12411137},{"NoteNumber":50,"Velocity":45,"Duration":775574,"SoundDuration":775574,"Delta":12411137},{"NoteNumber":53,"Velocity":45,"Duration":775574,"SoundDuration":775574,"Delta":12411137},{"NoteNumber":35,"Velocity":68,"Duration":77519,"SoundDuration":77519,"Delta":12411137},{"NoteNumber":34,"Velocity":61,"Duration":77519,"SoundDuration":77519,"Delta":12488657},{"NoteNumber":32,"Velocity":61,"Duration":77519,"SoundDuration":77519,"Delta":12566176},{"NoteNumber":34,"Velocity":61,"Duration":77519,"SoundDuration":77519,"Delta":12643696},{"NoteNumber":35,"Velocity":64,"Duration":77519,"SoundDuration":77519,"Delta":12721215},{"NoteNumber":34,"Velocity":61,"Duration":77519,"SoundDuration":77519,"Delta":12798735},{"NoteNumber":32,"Velocity":61,"Duration":78125,"SoundDuration":78125,"Delta":12876254},{"NoteNumber":34,"Velocity":61,"Duration":78091,"SoundDuration":78091,"Delta":12954379},{"NoteNumber":35,"Velocity":73,"Duration":77120,"SoundDuration":77120,"Delta":13032470},{"NoteNumber":32,"Velocity":67,"Duration":78125,"SoundDuration":78125,"Delta":13186712},{"NoteNumber":32,"Velocity":67,"Duration":77120,"SoundDuration":77120,"Delta":13342962},{"NoteNumber":50,"Velocity":42,"Duration":75566,"SoundDuration":75566,"Delta":13497203},{"NoteNumber":53,"Velocity":42,"Duration":75566,"SoundDuration":75566,"Delta":13497203},{"NoteNumber":59,"Velocity":51,"Duration":75566,"SoundDuration":75566,"Delta":13497203},{"NoteNumber":50,"Velocity":46,"Duration":77120,"SoundDuration":77120,"Delta":13648337},{"NoteNumber":53,"Velocity":46,"Duration":77120,"SoundDuration":77120,"Delta":13648337},{"NoteNumber":59,"Velocity":55,"Duration":77120,"SoundDuration":77120,"Delta":13648337},{"NoteNumber":50,"Velocity":42,"Duration":77120,"SoundDuration":77120,"Delta":13802578},{"NoteNumber":53,"Velocity":42,"Duration":77120,"SoundDuration":77120,"Delta":13802578},{"NoteNumber":58,"Velocity":51,"Duration":77120,"SoundDuration":77120,"Delta":13802578},{"NoteNumber":46,"Velocity":52,"Duration":77120,"SoundDuration":77120,"Delta":13802578},{"NoteNumber":50,"Velocity":42,"Duration":77120,"SoundDuration":77120,"Delta":13956820},{"NoteNumber":53,"Velocity":42,"Duration":77120,"SoundDuration":77120,"Delta":13956820},{"NoteNumber":58,"Velocity":51,"Duration":77120,"SoundDuration":77120,"Delta":13956820},{"NoteNumber":46,"Velocity":52,"Duration":77120,"SoundDuration":77120,"Delta":13956820},{"NoteNumber":50,"Velocity":46,"Duration":77720,"SoundDuration":77720,"Delta":14111061},{"NoteNumber":53,"Velocity":46,"Duration":77720,"SoundDuration":77720,"Delta":14111061},{"NoteNumber":57,"Velocity":55,"Duration":77720,"SoundDuration":77720,"Delta":14111061},{"NoteNumber":47,"Velocity":54,"Duration":77720,"SoundDuration":77720,"Delta":14111061},{"NoteNumber":50,"Velocity":49,"Duration":78533,"SoundDuration":78533,"Delta":14266502},{"NoteNumber":53,"Velocity":49,"Duration":78533,"SoundDuration":78533,"Delta":14266502},{"NoteNumber":57,"Velocity":59,"Duration":78533,"SoundDuration":78533,"Delta":14266502},{"NoteNumber":47,"Velocity":56,"Duration":78533,"SoundDuration":78533,"Delta":14266502},{"NoteNumber":50,"Velocity":48,"Duration":78533,"SoundDuration":78533,"Delta":14423570},{"NoteNumber":53,"Velocity":48,"Duration":78533,"SoundDuration":78533,"Delta":14423570},{"NoteNumber":56,"Velocity":57,"Duration":78533,"SoundDuration":78533,"Delta":14423570},{"NoteNumber":50,"Velocity":46,"Duration":81300,"SoundDuration":81300,"Delta":14580638},{"NoteNumber":53,"Velocity":46,"Duration":81300,"SoundDuration":81300,"Delta":14580638},{"NoteNumber":56,"Velocity":55,"Duration":81300,"SoundDuration":81300,"Delta":14580638},{"NoteNumber":35,"Velocity":61,"Duration":78533,"SoundDuration":78533,"Delta":14743239},{"NoteNumber":37,"Velocity":61,"Duration":78534,"SoundDuration":78534,"Delta":14821773},{"NoteNumber":50,"Velocity":46,"Duration":773215,"SoundDuration":773215,"Delta":14900307},{"NoteNumber":53,"Velocity":46,"Duration":773215,"SoundDuration":773215,"Delta":14900307},{"NoteNumber":56,"Velocity":46,"Duration":773215,"SoundDuration":773215,"Delta":14900307},{"NoteNumber":38,"Velocity":68,"Duration":77120,"SoundDuration":77120,"Delta":14900307},{"NoteNumber":37,"Velocity":61,"Duration":77120,"SoundDuration":77120,"Delta":14977428},{"NoteNumber":35,"Velocity":61,"Duration":77120,"SoundDuration":77120,"Delta":15054549},{"NoteNumber":37,"Velocity":61,"Duration":77120,"SoundDuration":77120,"Delta":15131670},{"NoteNumber":38,"Velocity":64,"Duration":77120,"SoundDuration":77120,"Delta":15208790},{"NoteNumber":37,"Velocity":61,"Duration":77120,"SoundDuration":77120,"Delta":15285911},{"NoteNumber":35,"Velocity":61,"Duration":78125,"SoundDuration":78125,"Delta":15363032},{"NoteNumber":37,"Velocity":61,"Duration":78125,"SoundDuration":78125,"Delta":15441157},{"NoteNumber":38,"Velocity":73,"Duration":77120,"SoundDuration":77120,"Delta":15519282},{"NoteNumber":35,"Velocity":67,"Duration":77120,"SoundDuration":77120,"Delta":15673523},{"NoteNumber":35,"Velocity":67,"Duration":77120,"SoundDuration":77120,"Delta":15827765},{"NoteNumber":53,"Velocity":35,"Duration":75757,"SoundDuration":75757,"Delta":15982006},{"NoteNumber":56,"Velocity":35,"Duration":75757,"SoundDuration":75757,"Delta":15982006},{"NoteNumber":62,"Velocity":59,"Duration":75757,"SoundDuration":75757,"Delta":15982006},{"NoteNumber":53,"Velocity":36,"Duration":76336,"SoundDuration":76336,"Delta":16133521},{"NoteNumber":56,"Velocity":36,"Duration":76336,"SoundDuration":76336,"Delta":16133521},{"NoteNumber":62,"Velocity":60,"Duration":76336,"SoundDuration":76336,"Delta":16133521},{"NoteNumber":53,"Velocity":35,"Duration":76336,"SoundDuration":76336,"Delta":16286193},{"NoteNumber":56,"Velocity":35,"Duration":76336,"SoundDuration":76336,"Delta":16286193},{"NoteNumber":61,"Velocity":59,"Duration":76336,"SoundDuration":76336,"Delta":16286193},{"NoteNumber":49,"Velocity":54,"Duration":76336,"SoundDuration":76336,"Delta":16286193},{"NoteNumber":53,"Velocity":35,"Duration":76335,"SoundDuration":76335,"Delta":16438865},{"NoteNumber":56,"Velocity":35,"Duration":76335,"SoundDuration":76335,"Delta":16438865},{"NoteNumber":61,"Velocity":59,"Duration":76335,"SoundDuration":76335,"Delta":16438865},{"NoteNumber":49,"Velocity":54,"Duration":76335,"SoundDuration":76335,"Delta":16438865},{"NoteNumber":53,"Velocity":37,"Duration":77519,"SoundDuration":77519,"Delta":16591537},{"NoteNumber":56,"Velocity":37,"Duration":77519,"SoundDuration":77519,"Delta":16591537},{"NoteNumber":60,"Velocity":63,"Duration":77519,"SoundDuration":77519,"Delta":16591537},{"NoteNumber":50,"Velocity":56,"Duration":77519,"SoundDuration":77519,"Delta":16591537},{"NoteNumber":53,"Velocity":41,"Duration":78534,"SoundDuration":78534,"Delta":16746576},{"NoteNumber":56,"Velocity":41,"Duration":78534,"SoundDuration":78534,"Delta":16746576},{"NoteNumber":60,"Velocity":70,"Duration":78534,"SoundDuration":78534,"Delta":16746576},{"NoteNumber":50,"Velocity":61,"Duration":78534,"SoundDuration":78534,"Delta":16746576},{"NoteNumber":53,"Velocity":39,"Duration":78534,"SoundDuration":78534,"Delta":16903644},{"NoteNumber":56,"Velocity":39,"Duration":78534,"SoundDuration":78534,"Delta":16903644},{"NoteNumber":59,"Velocity":67,"Duration":78534,"SoundDuration":78534,"Delta":16903644},{"NoteNumber":53,"Velocity":38,"Duration":77120,"SoundDuration":77120,"Delta":17060712},{"NoteNumber":56,"Velocity":38,"Duration":77120,"SoundDuration":77120,"Delta":17060712},{"NoteNumber":59,"Velocity":64,"Duration":77120,"SoundDuration":77120,"Delta":17060712},{"NoteNumber":56,"Velocity":35,"Duration":75949,"SoundDuration":75949,"Delta":17214954},{"NoteNumber":59,"Velocity":35,"Duration":75949,"SoundDuration":75949,"Delta":17214954},{"NoteNumber":65,"Velocity":60,"Duration":75949,"SoundDuration":75949,"Delta":17214954},{"NoteNumber":56,"Velocity":37,"Duration":77319,"SoundDuration":77319,"Delta":17366852},{"NoteNumber":59,"Velocity":37,"Duration":77319,"SoundDuration":77319,"Delta":17366852},{"NoteNumber":65,"Velocity":64,"Duration":77319,"SoundDuration":77319,"Delta":17366852},{"NoteNumber":56,"Velocity":35,"Duration":77319,"SoundDuration":77319,"Delta":17521491},{"NoteNumber":59,"Velocity":35,"Duration":77319,"SoundDuration":77319,"Delta":17521491},{"NoteNumber":64,"Velocity":60,"Duration":77319,"SoundDuration":77319,"Delta":17521491},{"NoteNumber":52,"Velocity":58,"Duration":77319,"SoundDuration":77319,"Delta":17521491},{"NoteNumber":56,"Velocity":35,"Duration":77319,"SoundDuration":77319,"Delta":17676130},{"NoteNumber":59,"Velocity":35,"Duration":77319,"SoundDuration":77319,"Delta":17676130},{"NoteNumber":64,"Velocity":60,"Duration":77319,"SoundDuration":77319,"Delta":17676130},{"NoteNumber":52,"Velocity":58,"Duration":77319,"SoundDuration":77319,"Delta":17676130},{"NoteNumber":56,"Velocity":39,"Duration":75757,"SoundDuration":75757,"Delta":17830769},{"NoteNumber":60,"Velocity":39,"Duration":75757,"SoundDuration":75757,"Delta":17830769},{"NoteNumber":63,"Velocity":66,"Duration":75757,"SoundDuration":75757,"Delta":17830769},{"NoteNumber":53,"Velocity":63,"Duration":75757,"SoundDuration":75757,"Delta":17830769},{"NoteNumber":56,"Velocity":44,"Duration":76726,"SoundDuration":76726,"Delta":17982284},{"NoteNumber":59,"Velocity":44,"Duration":76726,"SoundDuration":76726,"Delta":17982284},{"NoteNumber":63,"Velocity":73,"Duration":76726,"SoundDuration":76726,"Delta":17982284},{"NoteNumber":53,"Velocity":67,"Duration":76726,"SoundDuration":76726,"Delta":17982284},{"NoteNumber":56,"Velocity":40,"Duration":76726,"SoundDuration":76726,"Delta":18135737},{"NoteNumber":59,"Velocity":40,"Duration":76726,"SoundDuration":76726,"Delta":18135737},{"NoteNumber":62,"Velocity":70,"Duration":76726,"SoundDuration":76726,"Delta":18135737},{"NoteNumber":56,"Velocity":39,"Duration":77720,"SoundDuration":77720,"Delta":18289189},{"NoteNumber":59,"Velocity":39,"Duration":77720,"SoundDuration":77720,"Delta":18289189},{"NoteNumber":62,"Velocity":67,"Duration":77720,"SoundDuration":77720,"Delta":18289189},{"NoteNumber":59,"Velocity":47,"Duration":76530,"SoundDuration":76530,"Delta":18444630},{"NoteNumber":62,"Velocity":47,"Duration":76530,"SoundDuration":76530,"Delta":18444630},{"NoteNumber":68,"Velocity":66,"Duration":76530,"SoundDuration":76530,"Delta":18444630},{"NoteNumber":59,"Velocity":49,"Duration":76923,"SoundDuration":76923,"Delta":18597691},{"NoteNumber":62,"Velocity":49,"Duration":76923,"SoundDuration":76923,"Delta":18597691},{"NoteNumber":68,"Velocity":70,"Duration":76923,"SoundDuration":76923,"Delta":18597691},{"NoteNumber":59,"Velocity":47,"Duration":76922,"SoundDuration":76922,"Delta":18751537},{"NoteNumber":62,"Velocity":47,"Duration":76922,"SoundDuration":76922,"Delta":18751537},{"NoteNumber":67,"Velocity":66,"Duration":76922,"SoundDuration":76922,"Delta":18751537},{"NoteNumber":55,"Velocity":63,"Duration":76922,"SoundDuration":76922,"Delta":18751537},{"NoteNumber":59,"Velocity":47,"Duration":77519,"SoundDuration":77519,"Delta":18905383},{"NoteNumber":62,"Velocity":47,"Duration":77519,"SoundDuration":77519,"Delta":18905383},{"NoteNumber":67,"Velocity":66,"Duration":77519,"SoundDuration":77519,"Delta":18905383},{"NoteNumber":55,"Velocity":63,"Duration":77519,"SoundDuration":77519,"Delta":18905383},{"NoteNumber":59,"Velocity":51,"Duration":75757,"SoundDuration":75757,"Delta":19060422},{"NoteNumber":62,"Velocity":51,"Duration":75757,"SoundDuration":75757,"Delta":19060422},{"NoteNumber":66,"Velocity":72,"Duration":75757,"SoundDuration":75757,"Delta":19060422},{"NoteNumber":56,"Velocity":68,"Duration":75757,"SoundDuration":75757,"Delta":19060422},{"NoteNumber":59,"Velocity":54,"Duration":76530,"SoundDuration":76530,"Delta":19211937},{"NoteNumber":62,"Velocity":54,"Duration":76530,"SoundDuration":76530,"Delta":19211937},{"NoteNumber":66,"Velocity":76,"Duration":76530,"SoundDuration":76530,"Delta":19211937},{"NoteNumber":56,"Velocity":69,"Duration":76530,"SoundDuration":76530,"Delta":19211937},{"NoteNumber":59,"Velocity":51,"Duration":76530,"SoundDuration":76530,"Delta":19364998},{"NoteNumber":62,"Velocity":51,"Duration":76530,"SoundDuration":76530,"Delta":19364998},{"NoteNumber":65,"Velocity":72,"Duration":76530,"SoundDuration":76530,"Delta":19364998},{"NoteNumber":59,"Velocity":49,"Duration":77519,"SoundDuration":77519,"Delta":19518059},{"NoteNumber":62,"Velocity":49,"Duration":77519,"SoundDuration":77519,"Delta":19518059},{"NoteNumber":65,"Velocity":69,"Duration":77519,"SoundDuration":77519,"Delta":19518059},{"NoteNumber":62,"Velocity":53,"Duration":76142,"SoundDuration":76142,"Delta":19673098},{"NoteNumber":65,"Velocity":53,"Duration":76142,"SoundDuration":76142,"Delta":19673098},{"NoteNumber":71,"Velocity":75,"Duration":76142,"SoundDuration":76142,"Delta":19673098},{"NoteNumber":62,"Velocity":58,"Duration":76530,"SoundDuration":76530,"Delta":19825382},{"NoteNumber":65,"Velocity":58,"Duration":76530,"SoundDuration":76530,"Delta":19825382},{"NoteNumber":71,"Velocity":81,"Duration":76530,"SoundDuration":76530,"Delta":19825382},{"NoteNumber":62,"Velocity":56,"Duration":76530,"SoundDuration":76530,"Delta":19978443},{"NoteNumber":65,"Velocity":56,"Duration":76530,"SoundDuration":76530,"Delta":19978443},{"NoteNumber":70,"Velocity":79,"Duration":76530,"SoundDuration":76530,"Delta":19978443},{"NoteNumber":58,"Velocity":70,"Duration":76530,"SoundDuration":76530,"Delta":19978443},{"NoteNumber":62,"Velocity":54,"Duration":77519,"SoundDuration":77519,"Delta":20131504},{"NoteNumber":65,"Velocity":54,"Duration":77519,"SoundDuration":77519,"Delta":20131504},{"NoteNumber":70,"Velocity":76,"Duration":77519,"SoundDuration":77519,"Delta":20131504},{"NoteNumber":58,"Velocity":76,"Duration":77519,"SoundDuration":77519,"Delta":20131504},{"NoteNumber":65,"Velocity":55,"Duration":75566,"SoundDuration":75566,"Delta":20286543},{"NoteNumber":68,"Velocity":55,"Duration":75566,"SoundDuration":75566,"Delta":20286543},{"NoteNumber":74,"Velocity":78,"Duration":75566,"SoundDuration":75566,"Delta":20286543},{"NoteNumber":65,"Velocity":60,"Duration":76530,"SoundDuration":76530,"Delta":20437677},{"NoteNumber":68,"Velocity":60,"Duration":76530,"SoundDuration":76530,"Delta":20437677},{"NoteNumber":74,"Velocity":86,"Duration":76530,"SoundDuration":76530,"Delta":20437677},{"NoteNumber":65,"Velocity":58,"Duration":76530,"SoundDuration":76530,"Delta":20590738},{"NoteNumber":68,"Velocity":58,"Duration":76530,"SoundDuration":76530,"Delta":20590738},{"NoteNumber":73,"Velocity":81,"Duration":76530,"SoundDuration":76530,"Delta":20590738},{"NoteNumber":61,"Velocity":74,"Duration":76530,"SoundDuration":76530,"Delta":20590738},{"NoteNumber":65,"Velocity":56,"Duration":77519,"SoundDuration":77519,"Delta":20743799},{"NoteNumber":68,"Velocity":56,"Duration":77519,"SoundDuration":77519,"Delta":20743799},{"NoteNumber":73,"Velocity":79,"Duration":77519,"SoundDuration":77519,"Delta":20743799},{"NoteNumber":61,"Velocity":78,"Duration":77519,"SoundDuration":77519,"Delta":20743799},{"NoteNumber":68,"Velocity":57,"Duration":75757,"SoundDuration":75757,"Delta":20898838},{"NoteNumber":71,"Velocity":57,"Duration":75757,"SoundDuration":75757,"Delta":20898838},{"NoteNumber":77,"Velocity":80,"Duration":75757,"SoundDuration":75757,"Delta":20898838},{"NoteNumber":68,"Velocity":62,"Duration":76530,"SoundDuration":76530,"Delta":21050353},{"NoteNumber":71,"Velocity":86,"Duration":76530,"SoundDuration":76530,"Delta":21050353},{"NoteNumber":77,"Velocity":86,"Duration":76530,"SoundDuration":76530,"Delta":21050353},{"NoteNumber":68,"Velocity":60,"Duration":76530,"SoundDuration":76530,"Delta":21203414},{"NoteNumber":71,"Velocity":60,"Duration":76530,"SoundDuration":76530,"Delta":21203414},{"NoteNumber":76,"Velocity":86,"Duration":76530,"SoundDuration":76530,"Delta":21203414},{"NoteNumber":64,"Velocity":76,"Duration":76530,"SoundDuration":76530,"Delta":21203414},{"NoteNumber":68,"Velocity":58,"Duration":77319,"SoundDuration":77319,"Delta":21356475},{"NoteNumber":71,"Velocity":58,"Duration":77319,"SoundDuration":77319,"Delta":21356475},{"NoteNumber":76,"Velocity":81,"Duration":77319,"SoundDuration":77319,"Delta":21356475},{"NoteNumber":64,"Velocity":82,"Duration":77319,"SoundDuration":77319,"Delta":21356475},{"NoteNumber":71,"Velocity":71,"Duration":79999,"SoundDuration":79999,"Delta":21511114},{"NoteNumber":74,"Velocity":71,"Duration":79999,"SoundDuration":79999,"Delta":21511114},{"NoteNumber":80,"Velocity":85,"Duration":79999,"SoundDuration":79999,"Delta":21511114},{"NoteNumber":71,"Velocity":79,"Duration":78125,"SoundDuration":78125,"Delta":21671114},{"NoteNumber":74,"Velocity":79,"Duration":78125,"SoundDuration":78125,"Delta":21671114},{"NoteNumber":80,"Velocity":94,"Duration":78125,"SoundDuration":78125,"Delta":21671114},{"NoteNumber":71,"Velocity":75,"Duration":78125,"SoundDuration":78125,"Delta":21827364},{"NoteNumber":74,"Velocity":75,"Duration":78125,"SoundDuration":78125,"Delta":21827364},{"NoteNumber":79,"Velocity":89,"Duration":78125,"SoundDuration":78125,"Delta":21827364},{"NoteNumber":67,"Velocity":80,"Duration":78125,"SoundDuration":78125,"Delta":21827364},{"NoteNumber":71,"Velocity":72,"Duration":82872,"SoundDuration":82872,"Delta":21983614},{"NoteNumber":74,"Velocity":72,"Duration":82872,"SoundDuration":82872,"Delta":21983614},{"NoteNumber":79,"Velocity":86,"Duration":82872,"SoundDuration":82872,"Delta":21983614},{"NoteNumber":67,"Velocity":85,"Duration":82872,"SoundDuration":82872,"Delta":21983614},{"NoteNumber":72,"Velocity":47,"Duration":78125,"SoundDuration":78125,"Delta":22149360},{"NoteNumber":74,"Velocity":45,"Duration":77891,"SoundDuration":77891,"Delta":22227485},{"NoteNumber":79,"Velocity":49,"Duration":77519,"SoundDuration":77519,"Delta":22305377},{"NoteNumber":76,"Velocity":49,"Duration":77519,"SoundDuration":77519,"Delta":22305377},{"NoteNumber":67,"Velocity":45,"Duration":77519,"SoundDuration":77519,"Delta":22305377},{"NoteNumber":60,"Velocity":45,"Duration":77519,"SoundDuration":77519,"Delta":22305377},{"NoteNumber":74,"Velocity":45,"Duration":77519,"SoundDuration":77519,"Delta":22382896},{"NoteNumber":72,"Velocity":45,"Duration":77519,"SoundDuration":77519,"Delta":22460416},{"NoteNumber":67,"Velocity":41,"Duration":77519,"SoundDuration":77519,"Delta":22460416},{"NoteNumber":60,"Velocity":41,"Duration":77519,"SoundDuration":77519,"Delta":22460416},{"NoteNumber":74,"Velocity":45,"Duration":77519,"SoundDuration":77519,"Delta":22537935},{"NoteNumber":76,"Velocity":47,"Duration":76142,"SoundDuration":76142,"Delta":22615455},{"NoteNumber":79,"Velocity":47,"Duration":76142,"SoundDuration":76142,"Delta":22615455},{"NoteNumber":67,"Velocity":41,"Duration":76142,"SoundDuration":76142,"Delta":22615455},{"NoteNumber":60,"Velocity":41,"Duration":76142,"SoundDuration":76142,"Delta":22615455},{"NoteNumber":74,"Velocity":45,"Duration":76142,"SoundDuration":76142,"Delta":22691597},{"NoteNumber":72,"Velocity":45,"Duration":78329,"SoundDuration":78329,"Delta":22767739},{"NoteNumber":67,"Velocity":41,"Duration":78329,"SoundDuration":78329,"Delta":22767739},{"NoteNumber":60,"Velocity":41,"Duration":78329,"SoundDuration":78329,"Delta":22767739},{"NoteNumber":74,"Velocity":45,"Duration":78329,"SoundDuration":78329,"Delta":22846068},{"NoteNumber":79,"Velocity":49,"Duration":77519,"SoundDuration":77519,"Delta":22924397},{"NoteNumber":76,"Velocity":49,"Duration":77519,"SoundDuration":77519,"Delta":22924397},{"NoteNumber":67,"Velocity":45,"Duration":77519,"SoundDuration":77519,"Delta":22924397},{"NoteNumber":60,"Velocity":45,"Duration":77519,"SoundDuration":77519,"Delta":22924397},{"NoteNumber":76,"Velocity":45,"Duration":77519,"SoundDuration":77519,"Delta":23079436},{"NoteNumber":72,"Velocity":45,"Duration":77519,"SoundDuration":77519,"Delta":23079436},{"NoteNumber":67,"Velocity":41,"Duration":77519,"SoundDuration":77519,"Delta":23079436},{"NoteNumber":60,"Velocity":41,"Duration":77519,"SoundDuration":77519,"Delta":23079436},{"NoteNumber":76,"Velocity":46,"Duration":79364,"SoundDuration":79364,"Delta":23234475},{"NoteNumber":72,"Velocity":46,"Duration":79364,"SoundDuration":79364,"Delta":23234475},{"NoteNumber":67,"Velocity":41,"Duration":79364,"SoundDuration":79364,"Delta":23234475},{"NoteNumber":60,"Velocity":41,"Duration":79364,"SoundDuration":79364,"Delta":23234475},{"NoteNumber":79,"Velocity":45,"Duration":78125,"SoundDuration":78125,"Delta":23393205},{"NoteNumber":76,"Velocity":45,"Duration":78125,"SoundDuration":78125,"Delta":23393205},{"NoteNumber":67,"Velocity":41,"Duration":78125,"SoundDuration":78125,"Delta":23393205},{"NoteNumber":60,"Velocity":41,"Duration":78125,"SoundDuration":78125,"Delta":23393205},{"NoteNumber":77,"Velocity":50,"Duration":77319,"SoundDuration":77319,"Delta":23549455},{"NoteNumber":81,"Velocity":50,"Duration":77319,"SoundDuration":77319,"Delta":23549455},{"NoteNumber":67,"Velocity":45,"Duration":77319,"SoundDuration":77319,"Delta":23549455},{"NoteNumber":60,"Velocity":45,"Duration":77319,"SoundDuration":77319,"Delta":23549455},{"NoteNumber":71,"Velocity":45,"Duration":77319,"SoundDuration":77319,"Delta":23704094},{"NoteNumber":74,"Velocity":45,"Duration":77319,"SoundDuration":77319,"Delta":23704094},{"NoteNumber":67,"Velocity":40,"Duration":77319,"SoundDuration":77319,"Delta":23704094},{"NoteNumber":60,"Velocity":40,"Duration":77319,"SoundDuration":77319,"Delta":23704094},{"NoteNumber":71,"Velocity":46,"Duration":79155,"SoundDuration":79155,"Delta":23858733},{"NoteNumber":74,"Velocity":46,"Duration":79155,"SoundDuration":79155,"Delta":23858733},{"NoteNumber":67,"Velocity":40,"Duration":79155,"SoundDuration":79155,"Delta":23858733},{"NoteNumber":60,"Velocity":40,"Duration":79155,"SoundDuration":79155,"Delta":23858733},{"NoteNumber":77,"Velocity":51,"Duration":77922,"SoundDuration":77922,"Delta":24017045},{"NoteNumber":81,"Velocity":51,"Duration":77922,"SoundDuration":77922,"Delta":24017045},{"NoteNumber":67,"Velocity":40,"Duration":77922,"SoundDuration":77922,"Delta":24017045},{"NoteNumber":60,"Velocity":40,"Duration":77922,"SoundDuration":77922,"Delta":24017045},{"NoteNumber":77,"Velocity":55,"Duration":459182,"SoundDuration":459182,"Delta":24172889},{"NoteNumber":81,"Velocity":55,"Duration":459182,"SoundDuration":459182,"Delta":24172889},{"NoteNumber":67,"Velocity":45,"Duration":76530,"SoundDuration":76530,"Delta":24172889},{"NoteNumber":60,"Velocity":45,"Duration":76530,"SoundDuration":76530,"Delta":24172889},{"NoteNumber":67,"Velocity":40,"Duration":76530,"SoundDuration":76530,"Delta":24325950},{"NoteNumber":60,"Velocity":40,"Duration":76530,"SoundDuration":76530,"Delta":24325950},{"NoteNumber":67,"Velocity":40,"Duration":76530,"SoundDuration":76530,"Delta":24479011},{"NoteNumber":60,"Velocity":40,"Duration":76530,"SoundDuration":76530,"Delta":24479011},{"NoteNumber":72,"Velocity":45,"Duration":78125,"SoundDuration":78125,"Delta":24632072},{"NoteNumber":60,"Velocity":40,"Duration":78125,"SoundDuration":78125,"Delta":24632072},{"NoteNumber":67,"Velocity":40,"Duration":78125,"SoundDuration":78125,"Delta":24632072},{"NoteNumber":74,"Velocity":45,"Duration":77891,"SoundDuration":77891,"Delta":24710197},{"NoteNumber":79,"Velocity":49,"Duration":77519,"SoundDuration":77519,"Delta":24788089},{"NoteNumber":76,"Velocity":49,"Duration":77519,"SoundDuration":77519,"Delta":24788089},{"NoteNumber":67,"Velocity":45,"Duration":77519,"SoundDuration":77519,"Delta":24788089},{"NoteNumber":60,"Velocity":45,"Duration":77519,"SoundDuration":77519,"Delta":24788089},{"NoteNumber":76,"Velocity":45,"Duration":77519,"SoundDuration":77519,"Delta":24943128},{"NoteNumber":72,"Velocity":45,"Duration":77519,"SoundDuration":77519,"Delta":24943128},{"NoteNumber":67,"Velocity":41,"Duration":77519,"SoundDuration":77519,"Delta":24943128},{"NoteNumber":60,"Velocity":41,"Duration":77519,"SoundDuration":77519,"Delta":24943128},{"NoteNumber":76,"Velocity":46,"Duration":79364,"SoundDuration":79364,"Delta":25098167},{"NoteNumber":72,"Velocity":46,"Duration":79364,"SoundDuration":79364,"Delta":25098167},{"NoteNumber":60,"Velocity":41,"Duration":79364,"SoundDuration":79364,"Delta":25098167},{"NoteNumber":67,"Velocity":41,"Duration":79364,"SoundDuration":79364,"Delta":25098167},{"NoteNumber":79,"Velocity":45,"Duration":78125,"SoundDuration":78125,"Delta":25256897},{"NoteNumber":76,"Velocity":45,"Duration":78125,"SoundDuration":78125,"Delta":25256897},{"NoteNumber":67,"Velocity":41,"Duration":78125,"SoundDuration":78125,"Delta":25256897},{"NoteNumber":60,"Velocity":41,"Duration":78125,"SoundDuration":78125,"Delta":25256897},{"NoteNumber":77,"Velocity":50,"Duration":77319,"SoundDuration":77319,"Delta":25413147},{"NoteNumber":81,"Velocity":50,"Duration":77319,"SoundDuration":77319,"Delta":25413147},{"NoteNumber":60,"Velocity":45,"Duration":77319,"SoundDuration":77319,"Delta":25413147},{"NoteNumber":67,"Velocity":45,"Duration":77319,"SoundDuration":77319,"Delta":25413147},{"NoteNumber":71,"Velocity":45,"Duration":77319,"SoundDuration":77319,"Delta":25567786},{"NoteNumber":74,"Velocity":45,"Duration":77319,"SoundDuration":77319,"Delta":25567786},{"NoteNumber":67,"Velocity":40,"Duration":77319,"SoundDuration":77319,"Delta":25567786},{"NoteNumber":60,"Velocity":40,"Duration":77319,"SoundDuration":77319,"Delta":25567786},{"NoteNumber":71,"Velocity":46,"Duration":79155,"SoundDuration":79155,"Delta":25722425},{"NoteNumber":74,"Velocity":46,"Duration":79155,"SoundDuration":79155,"Delta":25722425},{"NoteNumber":67,"Velocity":40,"Duration":79155,"SoundDuration":79155,"Delta":25722425},{"NoteNumber":60,"Velocity":40,"Duration":79155,"SoundDuration":79155,"Delta":25722425},{"NoteNumber":77,"Velocity":51,"Duration":77922,"SoundDuration":77922,"Delta":25880736},{"NoteNumber":81,"Velocity":51,"Duration":77922,"SoundDuration":77922,"Delta":25880736},{"NoteNumber":60,"Velocity":40,"Duration":77922,"SoundDuration":77922,"Delta":25880736},{"NoteNumber":67,"Velocity":40,"Duration":77922,"SoundDuration":77922,"Delta":25880736},{"NoteNumber":76,"Velocity":55,"Duration":76368,"SoundDuration":76368,"Delta":26036580},{"NoteNumber":79,"Velocity":55,"Duration":76368,"SoundDuration":76368,"Delta":26036580},{"NoteNumber":67,"Velocity":45,"Duration":76368,"SoundDuration":76368,"Delta":26036580},{"NoteNumber":60,"Velocity":45,"Duration":76368,"SoundDuration":76368,"Delta":26036580},{"NoteNumber":72,"Velocity":50,"Duration":76335,"SoundDuration":76335,"Delta":26189285},{"NoteNumber":76,"Velocity":50,"Duration":76335,"SoundDuration":76335,"Delta":26189285},{"NoteNumber":67,"Velocity":40,"Duration":76335,"SoundDuration":76335,"Delta":26189285},{"NoteNumber":60,"Velocity":40,"Duration":76335,"SoundDuration":76335,"Delta":26189285},{"NoteNumber":77,"Velocity":58,"Duration":76142,"SoundDuration":76142,"Delta":26341763},{"NoteNumber":81,"Velocity":58,"Duration":76142,"SoundDuration":76142,"Delta":26341763},{"NoteNumber":60,"Velocity":41,"Duration":76142,"SoundDuration":76142,"Delta":26341763},{"NoteNumber":67,"Velocity":41,"Duration":76142,"SoundDuration":76142,"Delta":26341763},{"NoteNumber":71,"Velocity":52,"Duration":75949,"SoundDuration":75949,"Delta":26494015},{"NoteNumber":74,"Velocity":52,"Duration":75949,"SoundDuration":75949,"Delta":26494015},{"NoteNumber":67,"Velocity":42,"Duration":75949,"SoundDuration":75949,"Delta":26494015},{"NoteNumber":60,"Velocity":42,"Duration":75949,"SoundDuration":75949,"Delta":26494015},{"NoteNumber":76,"Velocity":60,"Duration":75885,"SoundDuration":75885,"Delta":26645914},{"NoteNumber":79,"Velocity":60,"Duration":75885,"SoundDuration":75885,"Delta":26645914},{"NoteNumber":67,"Velocity":47,"Duration":75885,"SoundDuration":75885,"Delta":26645914},{"NoteNumber":60,"Velocity":47,"Duration":75885,"SoundDuration":75885,"Delta":26645914},{"NoteNumber":72,"Velocity":54,"Duration":75757,"SoundDuration":75757,"Delta":26797556},{"NoteNumber":76,"Velocity":54,"Duration":75757,"SoundDuration":75757,"Delta":26797556},{"NoteNumber":67,"Velocity":43,"Duration":75757,"SoundDuration":75757,"Delta":26797556},{"NoteNumber":60,"Velocity":43,"Duration":75757,"SoundDuration":75757,"Delta":26797556},{"NoteNumber":77,"Velocity":63,"Duration":75566,"SoundDuration":75566,"Delta":26948976},{"NoteNumber":81,"Velocity":63,"Duration":75566,"SoundDuration":75566,"Delta":26948976},{"NoteNumber":60,"Velocity":45,"Duration":75566,"SoundDuration":75566,"Delta":26948976},{"NoteNumber":67,"Velocity":45,"Duration":75566,"SoundDuration":75566,"Delta":26948976},{"NoteNumber":71,"Velocity":56,"Duration":76923,"SoundDuration":76923,"Delta":27100110},{"NoteNumber":74,"Velocity":56,"Duration":76923,"SoundDuration":76923,"Delta":27100110},{"NoteNumber":67,"Velocity":45,"Duration":76923,"SoundDuration":76923,"Delta":27100110},{"NoteNumber":60,"Velocity":45,"Duration":76923,"SoundDuration":76923,"Delta":27100110},{"NoteNumber":76,"Velocity":64,"Duration":75376,"SoundDuration":75376,"Delta":27253956},{"NoteNumber":79,"Velocity":64,"Duration":75376,"SoundDuration":75376,"Delta":27253956},{"NoteNumber":67,"Velocity":51,"Duration":75376,"SoundDuration":75376,"Delta":27253956},{"NoteNumber":60,"Velocity":51,"Duration":75376,"SoundDuration":75376,"Delta":27253956},{"NoteNumber":72,"Velocity":59,"Duration":75188,"SoundDuration":75188,"Delta":27404552},{"NoteNumber":76,"Velocity":59,"Duration":75188,"SoundDuration":75188,"Delta":27404552},{"NoteNumber":67,"Velocity":46,"Duration":75188,"SoundDuration":75188,"Delta":27404552},{"NoteNumber":60,"Velocity":46,"Duration":75188,"SoundDuration":75188,"Delta":27404552},{"NoteNumber":85,"Velocity":78,"Duration":74999,"SoundDuration":74999,"Delta":27554928},{"NoteNumber":81,"Velocity":78,"Duration":74999,"SoundDuration":74999,"Delta":27554928},{"NoteNumber":71,"Velocity":63,"Duration":74999,"SoundDuration":74999,"Delta":27554928},{"NoteNumber":64,"Velocity":63,"Duration":74999,"SoundDuration":74999,"Delta":27554928},{"NoteNumber":75,"Velocity":72,"Duration":75000,"SoundDuration":75000,"Delta":27704928},{"NoteNumber":78,"Velocity":72,"Duration":75000,"SoundDuration":75000,"Delta":27704928},{"NoteNumber":71,"Velocity":58,"Duration":75000,"SoundDuration":75000,"Delta":27704928},{"NoteNumber":64,"Velocity":58,"Duration":75000,"SoundDuration":75000,"Delta":27704928},{"NoteNumber":83,"Velocity":79,"Duration":74999,"SoundDuration":74999,"Delta":27854928},{"NoteNumber":80,"Velocity":79,"Duration":74999,"SoundDuration":74999,"Delta":27854928},{"NoteNumber":64,"Velocity":63,"Duration":74999,"SoundDuration":74999,"Delta":27854928},{"NoteNumber":71,"Velocity":63,"Duration":74999,"SoundDuration":74999,"Delta":27854928},{"NoteNumber":76,"Velocity":73,"Duration":74999,"SoundDuration":74999,"Delta":28004928},{"NoteNumber":80,"Velocity":73,"Duration":74999,"SoundDuration":74999,"Delta":28004928},{"NoteNumber":64,"Velocity":58,"Duration":74999,"SoundDuration":74999,"Delta":28004928},{"NoteNumber":71,"Velocity":58,"Duration":74999,"SoundDuration":74999,"Delta":28004928},{"NoteNumber":85,"Velocity":79,"Duration":74999,"SoundDuration":74999,"Delta":28154928},{"NoteNumber":81,"Velocity":79,"Duration":74999,"SoundDuration":74999,"Delta":28154928},{"NoteNumber":64,"Velocity":63,"Duration":74999,"SoundDuration":74999,"Delta":28154928},{"NoteNumber":71,"Velocity":63,"Duration":74999,"SoundDuration":74999,"Delta":28154928},{"NoteNumber":75,"Velocity":72,"Duration":74999,"SoundDuration":74999,"Delta":28304928},{"NoteNumber":78,"Velocity":72,"Duration":74999,"SoundDuration":74999,"Delta":28304928},{"NoteNumber":64,"Velocity":58,"Duration":74999,"SoundDuration":74999,"Delta":28304928},{"NoteNumber":71,"Velocity":58,"Duration":74999,"SoundDuration":74999,"Delta":28304928},{"NoteNumber":83,"Velocity":79,"Duration":74073,"SoundDuration":74073,"Delta":28454928},{"NoteNumber":80,"Velocity":79,"Duration":74073,"SoundDuration":74073,"Delta":28454928},{"NoteNumber":64,"Velocity":63,"Duration":74073,"SoundDuration":74073,"Delta":28454928},{"NoteNumber":71,"Velocity":63,"Duration":74073,"SoundDuration":74073,"Delta":28454928},{"NoteNumber":76,"Velocity":76,"Duration":74073,"SoundDuration":74073,"Delta":28603076},{"NoteNumber":80,"Velocity":76,"Duration":74073,"SoundDuration":74073,"Delta":28603076},{"NoteNumber":64,"Velocity":59,"Duration":74073,"SoundDuration":74073,"Delta":28603076},{"NoteNumber":71,"Velocity":59,"Duration":74073,"SoundDuration":74073,"Delta":28603076},{"NoteNumber":80,"Velocity":82,"Duration":74073,"SoundDuration":74073,"Delta":28751224},{"NoteNumber":83,"Velocity":82,"Duration":74073,"SoundDuration":74073,"Delta":28751224},{"NoteNumber":64,"Velocity":64,"Duration":74073,"SoundDuration":74073,"Delta":28751224},{"NoteNumber":71,"Velocity":64,"Duration":74073,"SoundDuration":74073,"Delta":28751224},{"NoteNumber":76,"Velocity":79,"Duration":74073,"SoundDuration":74073,"Delta":28899372},{"NoteNumber":80,"Velocity":79,"Duration":74073,"SoundDuration":74073,"Delta":28899372},{"NoteNumber":64,"Velocity":61,"Duration":74073,"SoundDuration":74073,"Delta":28899372},{"NoteNumber":71,"Velocity":61,"Duration":74073,"SoundDuration":74073,"Delta":28899372},{"NoteNumber":83,"Velocity":87,"Duration":72815,"SoundDuration":72815,"Delta":29047520},{"NoteNumber":80,"Velocity":87,"Duration":72815,"SoundDuration":72815,"Delta":29047520},{"NoteNumber":64,"Velocity":68,"Duration":72815,"SoundDuration":72815,"Delta":29047520},{"NoteNumber":71,"Velocity":68,"Duration":72815,"SoundDuration":72815,"Delta":29047520},{"NoteNumber":76,"Velocity":83,"Duration":72815,"SoundDuration":72815,"Delta":29193151},{"NoteNumber":80,"Velocity":83,"Duration":72815,"SoundDuration":72815,"Delta":29193151},{"NoteNumber":64,"Velocity":64,"Duration":72815,"SoundDuration":72815,"Delta":29193151},{"NoteNumber":71,"Velocity":64,"Duration":72815,"SoundDuration":72815,"Delta":29193151},{"NoteNumber":80,"Velocity":90,"Duration":72815,"SoundDuration":72815,"Delta":29338782},{"NoteNumber":83,"Velocity":90,"Duration":72815,"SoundDuration":72815,"Delta":29338782},{"NoteNumber":64,"Velocity":72,"Duration":72815,"SoundDuration":72815,"Delta":29338782},{"NoteNumber":71,"Velocity":72,"Duration":72815,"SoundDuration":72815,"Delta":29338782},{"NoteNumber":76,"Velocity":87,"Duration":76530,"SoundDuration":76530,"Delta":29484413},{"NoteNumber":80,"Velocity":87,"Duration":76530,"SoundDuration":76530,"Delta":29484413},{"NoteNumber":64,"Velocity":67,"Duration":76530,"SoundDuration":76530,"Delta":29484413},{"NoteNumber":71,"Velocity":67,"Duration":76530,"SoundDuration":76530,"Delta":29484413},{"NoteNumber":58,"Velocity":79,"Duration":585366,"SoundDuration":585366,"Delta":29637474},{"NoteNumber":83,"Velocity":87,"Duration":72815,"SoundDuration":72815,"Delta":30222840},{"NoteNumber":80,"Velocity":87,"Duration":72815,"SoundDuration":72815,"Delta":30222840},{"NoteNumber":64,"Velocity":68,"Duration":72815,"SoundDuration":72815,"Delta":30222840},{"NoteNumber":71,"Velocity":68,"Duration":72815,"SoundDuration":72815,"Delta":30222840},{"NoteNumber":76,"Velocity":83,"Duration":72815,"SoundDuration":72815,"Delta":30368471},{"NoteNumber":80,"Velocity":83,"Duration":72815,"SoundDuration":72815,"Delta":30368471},{"NoteNumber":64,"Velocity":64,"Duration":72815,"SoundDuration":72815,"Delta":30368471},{"NoteNumber":71,"Velocity":64,"Duration":72815,"SoundDuration":72815,"Delta":30368471},{"NoteNumber":80,"Velocity":90,"Duration":72815,"SoundDuration":72815,"Delta":30514102},{"NoteNumber":83,"Velocity":90,"Duration":72815,"SoundDuration":72815,"Delta":30514102},{"NoteNumber":64,"Velocity":72,"Duration":72815,"SoundDuration":72815,"Delta":30514102},{"NoteNumber":71,"Velocity":72,"Duration":72815,"SoundDuration":72815,"Delta":30514102},{"NoteNumber":76,"Velocity":87,"Duration":76530,"SoundDuration":76530,"Delta":30659733},{"NoteNumber":80,"Velocity":87,"Duration":76530,"SoundDuration":76530,"Delta":30659733},{"NoteNumber":64,"Velocity":67,"Duration":76530,"SoundDuration":76530,"Delta":30659733},{"NoteNumber":71,"Velocity":67,"Duration":76530,"SoundDuration":76530,"Delta":30659733},{"NoteNumber":58,"Velocity":76,"Duration":585366,"SoundDuration":585366,"Delta":30812794},{"NoteNumber":83,"Velocity":85,"Duration":72815,"SoundDuration":72815,"Delta":31398160},{"NoteNumber":80,"Velocity":85,"Duration":72815,"SoundDuration":72815,"Delta":31398160},{"NoteNumber":64,"Velocity":64,"Duration":72815,"SoundDuration":72815,"Delta":31398160},{"NoteNumber":71,"Velocity":64,"Duration":72815,"SoundDuration":72815,"Delta":31398160},{"NoteNumber":76,"Velocity":79,"Duration":72815,"SoundDuration":72815,"Delta":31543791},{"NoteNumber":80,"Velocity":79,"Duration":72815,"SoundDuration":72815,"Delta":31543791},{"NoteNumber":64,"Velocity":61,"Duration":72815,"SoundDuration":72815,"Delta":31543791},{"NoteNumber":71,"Velocity":61,"Duration":72815,"SoundDuration":72815,"Delta":31543791},{"NoteNumber":80,"Velocity":85,"Duration":72815,"SoundDuration":72815,"Delta":31689422},{"NoteNumber":83,"Velocity":85,"Duration":72815,"SoundDuration":72815,"Delta":31689422},{"NoteNumber":64,"Velocity":64,"Duration":72815,"SoundDuration":72815,"Delta":31689422},{"NoteNumber":71,"Velocity":64,"Duration":72815,"SoundDuration":72815,"Delta":31689422},{"NoteNumber":76,"Velocity":81,"Duration":76530,"SoundDuration":76530,"Delta":31835053},{"NoteNumber":80,"Velocity":81,"Duration":76530,"SoundDuration":76530,"Delta":31835053},{"NoteNumber":64,"Velocity":59,"Duration":76530,"SoundDuration":76530,"Delta":31835053},{"NoteNumber":71,"Velocity":59,"Duration":76530,"SoundDuration":76530,"Delta":31835053},{"NoteNumber":58,"Velocity":72,"Duration":5155863,"SoundDuration":5155863,"Delta":31988114},{"NoteNumber":57,"Velocity":45,"Duration":73170,"SoundDuration":73170,"Delta":32134456},{"NoteNumber":56,"Velocity":45,"Duration":73170,"SoundDuration":73170,"Delta":32280797},{"NoteNumber":55,"Velocity":45,"Duration":73170,"SoundDuration":73170,"Delta":32427139},{"NoteNumber":54,"Velocity":45,"Duration":73170,"SoundDuration":73170,"Delta":32573480},{"NoteNumber":53,"Velocity":45,"Duration":73170,"SoundDuration":73170,"Delta":32719822},{"NoteNumber":52,"Velocity":45,"Duration":73170,"SoundDuration":73170,"Delta":32866163},{"NoteNumber":51,"Velocity":45,"Duration":73170,"SoundDuration":73170,"Delta":33012505},{"NoteNumber":50,"Velocity":45,"Duration":73170,"SoundDuration":73170,"Delta":33305188},{"NoteNumber":49,"Velocity":45,"Duration":73170,"SoundDuration":73170,"Delta":33451529},{"NoteNumber":48,"Velocity":45,"Duration":73170,"SoundDuration":73170,"Delta":33597871},{"NoteNumber":47,"Velocity":45,"Duration":72992,"SoundDuration":72992,"Delta":33744212},{"NoteNumber":46,"Velocity":45,"Duration":73170,"SoundDuration":73170,"Delta":33890287},{"NoteNumber":45,"Velocity":45,"Duration":73439,"SoundDuration":73439,"Delta":34036807},{"NoteNumber":44,"Velocity":45,"Duration":73709,"SoundDuration":73709,"Delta":34183776},{"NoteNumber":43,"Velocity":41,"Duration":148822,"SoundDuration":148822,"Delta":34627707},{"NoteNumber":42,"Velocity":40,"Duration":152931,"SoundDuration":152931,"Delta":35229060},{"NoteNumber":41,"Velocity":37,"Duration":157309,"SoundDuration":157309,"Delta":35847292},{"NoteNumber":40,"Velocity":36,"Duration":163487,"SoundDuration":163487,"Delta":36490028},{"NoteNumber":63,"Velocity":45,"Duration":78125,"SoundDuration":78125,"Delta":37301493},{"NoteNumber":65,"Velocity":45,"Duration":77891,"SoundDuration":77891,"Delta":37379618},{"NoteNumber":70,"Velocity":49,"Duration":77519,"SoundDuration":77519,"Delta":37457510},{"NoteNumber":66,"Velocity":49,"Duration":77519,"SoundDuration":77519,"Delta":37457510},{"NoteNumber":39,"Velocity":45,"Duration":77519,"SoundDuration":77519,"Delta":37457510},{"NoteNumber":65,"Velocity":45,"Duration":77519,"SoundDuration":77519,"Delta":37535029},{"NoteNumber":63,"Velocity":45,"Duration":77519,"SoundDuration":77519,"Delta":37612549},{"NoteNumber":46,"Velocity":42,"Duration":77519,"SoundDuration":77519,"Delta":37612549},{"NoteNumber":65,"Velocity":45,"Duration":77519,"SoundDuration":77519,"Delta":37690068},{"NoteNumber":66,"Velocity":47,"Duration":76142,"SoundDuration":76142,"Delta":37767588},{"NoteNumber":70,"Velocity":47,"Duration":76142,"SoundDuration":76142,"Delta":37767588},{"NoteNumber":39,"Velocity":42,"Duration":76142,"SoundDuration":76142,"Delta":37767588},{"NoteNumber":65,"Velocity":45,"Duration":76142,"SoundDuration":76142,"Delta":37843730},{"NoteNumber":63,"Velocity":45,"Duration":78328,"SoundDuration":78328,"Delta":37919872},{"NoteNumber":34,"Velocity":42,"Duration":78328,"SoundDuration":78328,"Delta":37919872},{"NoteNumber":65,"Velocity":45,"Duration":78329,"SoundDuration":78329,"Delta":37998201},{"NoteNumber":70,"Velocity":49,"Duration":77519,"SoundDuration":77519,"Delta":38076530},{"NoteNumber":66,"Velocity":49,"Duration":77519,"SoundDuration":77519,"Delta":38076530},{"NoteNumber":39,"Velocity":45,"Duration":77519,"SoundDuration":77519,"Delta":38076530},{"NoteNumber":66,"Velocity":45,"Duration":77519,"SoundDuration":77519,"Delta":38231569},{"NoteNumber":63,"Velocity":45,"Duration":77519,"SoundDuration":77519,"Delta":38231569},{"NoteNumber":46,"Velocity":42,"Duration":77519,"SoundDuration":77519,"Delta":38231569},{"NoteNumber":66,"Velocity":46,"Duration":79365,"SoundDuration":79365,"Delta":38386608},{"NoteNumber":63,"Velocity":46,"Duration":79365,"SoundDuration":79365,"Delta":38386608},{"NoteNumber":39,"Velocity":42,"Duration":79365,"SoundDuration":79365,"Delta":38386608},{"NoteNumber":70,"Velocity":45,"Duration":78125,"SoundDuration":78125,"Delta":38545338},{"NoteNumber":66,"Velocity":45,"Duration":78125,"SoundDuration":78125,"Delta":38545338},{"NoteNumber":34,"Velocity":42,"Duration":78125,"SoundDuration":78125,"Delta":38545338},{"NoteNumber":65,"Velocity":50,"Duration":77319,"SoundDuration":77319,"Delta":38701588},{"NoteNumber":69,"Velocity":50,"Duration":77319,"SoundDuration":77319,"Delta":38701588},{"NoteNumber":39,"Velocity":45,"Duration":77319,"SoundDuration":77319,"Delta":38701588},{"NoteNumber":60,"Velocity":45,"Duration":77319,"SoundDuration":77319,"Delta":38856227},{"NoteNumber":65,"Velocity":45,"Duration":77319,"SoundDuration":77319,"Delta":38856227},{"NoteNumber":46,"Velocity":42,"Duration":77319,"SoundDuration":77319,"Delta":38856227},{"NoteNumber":60,"Velocity":46,"Duration":79155,"SoundDuration":79155,"Delta":39010866},{"NoteNumber":65,"Velocity":46,"Duration":79155,"SoundDuration":79155,"Delta":39010866},{"NoteNumber":39,"Velocity":42,"Duration":79155,"SoundDuration":79155,"Delta":39010866},{"NoteNumber":65,"Velocity":45,"Duration":77922,"SoundDuration":77922,"Delta":39169178},{"NoteNumber":69,"Velocity":45,"Duration":77922,"SoundDuration":77922,"Delta":39169178},{"NoteNumber":34,"Velocity":42,"Duration":77922,"SoundDuration":77922,"Delta":39169178},{"NoteNumber":65,"Velocity":54,"Duration":459183,"SoundDuration":459183,"Delta":39325022},{"NoteNumber":69,"Velocity":54,"Duration":459183,"SoundDuration":459183,"Delta":39325022},{"NoteNumber":39,"Velocity":45,"Duration":76530,"SoundDuration":76530,"Delta":39325022},{"NoteNumber":46,"Velocity":41,"Duration":76530,"SoundDuration":76530,"Delta":39478083},{"NoteNumber":39,"Velocity":41,"Duration":76530,"SoundDuration":76530,"Delta":39631144},{"NoteNumber":68,"Velocity":46,"Duration":78740,"SoundDuration":78740,"Delta":39784205},{"NoteNumber":34,"Velocity":41,"Duration":78740,"SoundDuration":78740,"Delta":39784205},{"NoteNumber":70,"Velocity":49,"Duration":78275,"SoundDuration":78275,"Delta":39862945},{"NoteNumber":71,"Velocity":54,"Duration":77519,"SoundDuration":77519,"Delta":39941220},{"NoteNumber":75,"Velocity":54,"Duration":77519,"SoundDuration":77519,"Delta":39941220},{"NoteNumber":39,"Velocity":49,"Duration":77519,"SoundDuration":77519,"Delta":39941220},{"NoteNumber":70,"Velocity":51,"Duration":77519,"SoundDuration":77519,"Delta":40018740},{"NoteNumber":68,"Velocity":51,"Duration":77519,"SoundDuration":77519,"Delta":40096259},{"NoteNumber":46,"Velocity":45,"Duration":77519,"SoundDuration":77519,"Delta":40096259},{"NoteNumber":70,"Velocity":51,"Duration":77519,"SoundDuration":77519,"Delta":40173779},{"NoteNumber":71,"Velocity":54,"Duration":76335,"SoundDuration":76335,"Delta":40251298},{"NoteNumber":75,"Velocity":54,"Duration":76335,"SoundDuration":76335,"Delta":40251298},{"NoteNumber":39,"Velocity":45,"Duration":76335,"SoundDuration":76335,"Delta":40251298},{"NoteNumber":70,"Velocity":50,"Duration":76336,"SoundDuration":76336,"Delta":40327634},{"NoteNumber":68,"Velocity":50,"Duration":78533,"SoundDuration":78533,"Delta":40403970},{"NoteNumber":34,"Velocity":45,"Duration":78533,"SoundDuration":78533,"Delta":40403970},{"NoteNumber":70,"Velocity":50,"Duration":78534,"SoundDuration":78534,"Delta":40482504},{"NoteNumber":71,"Velocity":54,"Duration":77720,"SoundDuration":77720,"Delta":40561038},{"NoteNumber":75,"Velocity":54,"Duration":77720,"SoundDuration":77720,"Delta":40561038},{"NoteNumber":39,"Velocity":49,"Duration":77720,"SoundDuration":77720,"Delta":40561038},{"NoteNumber":68,"Velocity":50,"Duration":77720,"SoundDuration":77720,"Delta":40716479},{"NoteNumber":71,"Velocity":50,"Duration":77720,"SoundDuration":77720,"Delta":40716479},{"NoteNumber":46,"Velocity":45,"Duration":77720,"SoundDuration":77720,"Delta":40716479},{"NoteNumber":71,"Velocity":50,"Duration":79787,"SoundDuration":79787,"Delta":40871919},{"NoteNumber":68,"Velocity":50,"Duration":79787,"SoundDuration":79787,"Delta":40871919},{"NoteNumber":39,"Velocity":45,"Duration":79787,"SoundDuration":79787,"Delta":40871919},{"NoteNumber":71,"Velocity":50,"Duration":78328,"SoundDuration":78328,"Delta":41031494},{"NoteNumber":75,"Velocity":50,"Duration":78328,"SoundDuration":78328,"Delta":41031494},{"NoteNumber":34,"Velocity":45,"Duration":78328,"SoundDuration":78328,"Delta":41031494},{"NoteNumber":70,"Velocity":54,"Duration":77519,"SoundDuration":77519,"Delta":41188152},{"NoteNumber":74,"Velocity":54,"Duration":77519,"SoundDuration":77519,"Delta":41188152},{"NoteNumber":39,"Velocity":49,"Duration":77519,"SoundDuration":77519,"Delta":41188152},{"NoteNumber":65,"Velocity":50,"Duration":77519,"SoundDuration":77519,"Delta":41343191},{"NoteNumber":70,"Velocity":50,"Duration":77519,"SoundDuration":77519,"Delta":41343191},{"NoteNumber":46,"Velocity":45,"Duration":77519,"SoundDuration":77519,"Delta":41343191},{"NoteNumber":65,"Velocity":50,"Duration":79365,"SoundDuration":79365,"Delta":41498230},{"NoteNumber":70,"Velocity":50,"Duration":79365,"SoundDuration":79365,"Delta":41498230},{"NoteNumber":39,"Velocity":45,"Duration":79365,"SoundDuration":79365,"Delta":41498230},{"NoteNumber":70,"Velocity":50,"Duration":78125,"SoundDuration":78125,"Delta":41656960},{"NoteNumber":74,"Velocity":50,"Duration":78125,"SoundDuration":78125,"Delta":41656960},{"NoteNumber":34,"Velocity":45,"Duration":78125,"SoundDuration":78125,"Delta":41656960},{"NoteNumber":70,"Velocity":58,"Duration":227847,"SoundDuration":227847,"Delta":41813210},{"NoteNumber":74,"Velocity":58,"Duration":227847,"SoundDuration":227847,"Delta":41813210},{"NoteNumber":39,"Velocity":49,"Duration":75949,"SoundDuration":75949,"Delta":41813210},{"NoteNumber":46,"Velocity":45,"Duration":75949,"SoundDuration":75949,"Delta":41965108},{"NoteNumber":39,"Velocity":45,"Duration":75949,"SoundDuration":75949,"Delta":42117007},{"NoteNumber":83,"Velocity":78,"Duration":79155,"SoundDuration":79155,"Delta":42268905},{"NoteNumber":85,"Velocity":78,"Duration":79155,"SoundDuration":79155,"Delta":42348061},{"NoteNumber":87,"Velocity":90,"Duration":76530,"SoundDuration":76530,"Delta":42427217},{"NoteNumber":90,"Velocity":90,"Duration":76530,"SoundDuration":76530,"Delta":42427217},{"NoteNumber":78,"Velocity":70,"Duration":464433,"SoundDuration":464433,"Delta":42427217},{"NoteNumber":71,"Velocity":70,"Duration":464433,"SoundDuration":464433,"Delta":42427217},{"NoteNumber":85,"Velocity":77,"Duration":76530,"SoundDuration":76530,"Delta":42503747},{"NoteNumber":83,"Velocity":77,"Duration":76530,"SoundDuration":76530,"Delta":42580278},{"NoteNumber":85,"Velocity":77,"Duration":76530,"SoundDuration":76530,"Delta":42656808},{"NoteNumber":90,"Velocity":81,"Duration":145118,"SoundDuration":145118,"Delta":42733339},{"NoteNumber":87,"Velocity":81,"Duration":145118,"SoundDuration":145118,"Delta":42733339},{"NoteNumber":78,"Velocity":77,"Duration":78947,"SoundDuration":78947,"Delta":42891650},{"NoteNumber":80,"Velocity":77,"Duration":78947,"SoundDuration":78947,"Delta":42970597},{"NoteNumber":85,"Velocity":90,"Duration":76726,"SoundDuration":76726,"Delta":43049545},{"NoteNumber":82,"Velocity":90,"Duration":76726,"SoundDuration":76726,"Delta":43049545},{"NoteNumber":66,"Velocity":70,"Duration":464799,"SoundDuration":464799,"Delta":43049545},{"NoteNumber":73,"Velocity":70,"Duration":464799,"SoundDuration":464799,"Delta":43049545},{"NoteNumber":80,"Velocity":77,"Duration":76726,"SoundDuration":76726,"Delta":43126271},{"NoteNumber":78,"Velocity":74,"Duration":76726,"SoundDuration":76726,"Delta":43202997},{"NoteNumber":80,"Velocity":74,"Duration":76726,"SoundDuration":76726,"Delta":43279723},{"NoteNumber":85,"Velocity":83,"Duration":144736,"SoundDuration":144736,"Delta":43356450},{"NoteNumber":82,"Velocity":83,"Duration":144736,"SoundDuration":144736,"Delta":43356450},{"NoteNumber":76,"Velocity":77,"Duration":78533,"SoundDuration":78533,"Delta":43514344},{"NoteNumber":78,"Velocity":77,"Duration":78534,"SoundDuration":78534,"Delta":43592878},{"NoteNumber":80,"Velocity":90,"Duration":76726,"SoundDuration":76726,"Delta":43671412},{"NoteNumber":83,"Velocity":90,"Duration":76726,"SoundDuration":76726,"Delta":43671412},{"NoteNumber":64,"Velocity":70,"Duration":464799,"SoundDuration":464799,"Delta":43671412},{"NoteNumber":71,"Velocity":70,"Duration":464799,"SoundDuration":464799,"Delta":43671412},{"NoteNumber":78,"Velocity":74,"Duration":76726,"SoundDuration":76726,"Delta":43748138},{"NoteNumber":76,"Velocity":74,"Duration":76726,"SoundDuration":76726,"Delta":43824865},{"NoteNumber":78,"Velocity":74,"Duration":76726,"SoundDuration":76726,"Delta":43901591},{"NoteNumber":83,"Velocity":83,"Duration":144736,"SoundDuration":144736,"Delta":43978317},{"NoteNumber":80,"Velocity":83,"Duration":144736,"SoundDuration":144736,"Delta":43978317},{"NoteNumber":71,"Velocity":78,"Duration":78533,"SoundDuration":78533,"Delta":44136212},{"NoteNumber":73,"Velocity":78,"Duration":78534,"SoundDuration":78534,"Delta":44214746},{"NoteNumber":78,"Velocity":91,"Duration":76726,"SoundDuration":76726,"Delta":44293280},{"NoteNumber":75,"Velocity":91,"Duration":76726,"SoundDuration":76726,"Delta":44293280},{"NoteNumber":59,"Velocity":70,"Duration":460357,"SoundDuration":460357,"Delta":44293280},{"NoteNumber":66,"Velocity":70,"Duration":460357,"SoundDuration":460357,"Delta":44293280},{"NoteNumber":73,"Velocity":74,"Duration":76726,"SoundDuration":76726,"Delta":44370006},{"NoteNumber":71,"Velocity":74,"Duration":76726,"SoundDuration":76726,"Delta":44446732},{"NoteNumber":73,"Velocity":74,"Duration":76726,"SoundDuration":76726,"Delta":44523458},{"NoteNumber":78,"Velocity":81,"Duration":140664,"SoundDuration":140664,"Delta":44600185},{"NoteNumber":75,"Velocity":81,"Duration":140664,"SoundDuration":140664,"Delta":44600185},{"NoteNumber":58,"Velocity":72,"Duration":78740,"SoundDuration":78740,"Delta":44753637},{"NoteNumber":46,"Velocity":70,"Duration":78740,"SoundDuration":78740,"Delta":44753637},{"NoteNumber":59,"Velocity":72,"Duration":78740,"SoundDuration":78740,"Delta":44832377},{"NoteNumber":47,"Velocity":70,"Duration":78740,"SoundDuration":78740,"Delta":44832377},{"NoteNumber":61,"Velocity":81,"Duration":76530,"SoundDuration":76530,"Delta":44911118},{"NoteNumber":49,"Velocity":81,"Duration":76530,"SoundDuration":76530,"Delta":44911118},{"NoteNumber":59,"Velocity":70,"Duration":76530,"SoundDuration":76530,"Delta":44987648},{"NoteNumber":47,"Velocity":70,"Duration":76530,"SoundDuration":76530,"Delta":44987648},{"NoteNumber":58,"Velocity":70,"Duration":78533,"SoundDuration":78533,"Delta":45064179},{"NoteNumber":46,"Velocity":70,"Duration":78533,"SoundDuration":78533,"Delta":45064179},{"NoteNumber":59,"Velocity":77,"Duration":76530,"SoundDuration":76530,"Delta":45221247},{"NoteNumber":47,"Velocity":73,"Duration":76530,"SoundDuration":76530,"Delta":45221247},{"NoteNumber":58,"Velocity":65,"Duration":76530,"SoundDuration":76530,"Delta":45297777},{"NoteNumber":46,"Velocity":67,"Duration":76530,"SoundDuration":76530,"Delta":45297777},{"NoteNumber":56,"Velocity":65,"Duration":78740,"SoundDuration":78740,"Delta":45374308},{"NoteNumber":44,"Velocity":67,"Duration":78740,"SoundDuration":78740,"Delta":45374308},{"NoteNumber":58,"Velocity":72,"Duration":76530,"SoundDuration":76530,"Delta":45531788},{"NoteNumber":46,"Velocity":72,"Duration":76530,"SoundDuration":76530,"Delta":45531788},{"NoteNumber":56,"Velocity":64,"Duration":76530,"SoundDuration":76530,"Delta":45608319},{"NoteNumber":44,"Velocity":63,"Duration":76530,"SoundDuration":76530,"Delta":45608319},{"NoteNumber":54,"Velocity":64,"Duration":78328,"SoundDuration":78328,"Delta":45684849},{"NoteNumber":42,"Velocity":63,"Duration":78328,"SoundDuration":78328,"Delta":45684849},{"NoteNumber":56,"Velocity":69,"Duration":76530,"SoundDuration":76530,"Delta":45841507},{"NoteNumber":44,"Velocity":70,"Duration":76530,"SoundDuration":76530,"Delta":45841507},{"NoteNumber":54,"Velocity":63,"Duration":76530,"SoundDuration":76530,"Delta":45918038},{"NoteNumber":42,"Velocity":63,"Duration":76530,"SoundDuration":76530,"Delta":45918038},{"NoteNumber":53,"Velocity":63,"Duration":76530,"SoundDuration":76530,"Delta":45994568},{"NoteNumber":41,"Velocity":63,"Duration":76530,"SoundDuration":76530,"Delta":45994568},{"NoteNumber":56,"Velocity":45,"Duration":77720,"SoundDuration":77720,"Delta":46759873},{"NoteNumber":44,"Velocity":45,"Duration":77720,"SoundDuration":77720,"Delta":46759873},{"NoteNumber":54,"Velocity":42,"Duration":77720,"SoundDuration":77720,"Delta":46837593},{"NoteNumber":42,"Velocity":41,"Duration":77720,"SoundDuration":77720,"Delta":46837593},{"NoteNumber":52,"Velocity":42,"Duration":77720,"SoundDuration":77720,"Delta":46915314},{"NoteNumber":40,"Velocity":41,"Duration":77720,"SoundDuration":77720,"Delta":46915314},{"NoteNumber":51,"Velocity":78,"Duration":76563,"SoundDuration":76563,"Delta":47394204},{"NoteNumber":39,"Velocity":77,"Duration":620029,"SoundDuration":620029,"Delta":47394204},{"NoteNumber":46,"Velocity":77,"Duration":620029,"SoundDuration":620029,"Delta":47394204},{"NoteNumber":58,"Velocity":73,"Duration":76824,"SoundDuration":76824,"Delta":47470767},{"NoteNumber":63,"Velocity":73,"Duration":77054,"SoundDuration":77054,"Delta":47547592},{"NoteNumber":63,"Velocity":73,"Duration":77386,"SoundDuration":77386,"Delta":47624647},{"NoteNumber":70,"Velocity":76,"Duration":77619,"SoundDuration":77619,"Delta":47702033},{"NoteNumber":75,"Velocity":81,"Duration":77922,"SoundDuration":77922,"Delta":47779653},{"NoteNumber":75,"Velocity":85,"Duration":78192,"SoundDuration":78192,"Delta":47857575},{"NoteNumber":82,"Velocity":87,"Duration":78465,"SoundDuration":78465,"Delta":47935768},{"NoteNumber":75,"Velocity":92,"Duration":159999,"SoundDuration":159999,"Delta":48014234},{"NoteNumber":87,"Velocity":92,"Duration":159999,"SoundDuration":159999,"Delta":48014234},{"NoteNumber":82,"Velocity":92,"Duration":159999,"SoundDuration":159999,"Delta":48014234},{"NoteNumber":70,"Velocity":92,"Duration":159999,"SoundDuration":159999,"Delta":48014234},{"NoteNumber":63,"Velocity":92,"Duration":159999,"SoundDuration":159999,"Delta":48014234},{"NoteNumber":32,"Velocity":61,"Duration":79155,"SoundDuration":79155,"Delta":48492545},{"NoteNumber":34,"Velocity":61,"Duration":79155,"SoundDuration":79155,"Delta":48571701},{"NoteNumber":47,"Velocity":45,"Duration":775574,"SoundDuration":775574,"Delta":48650857},{"NoteNumber":50,"Velocity":45,"Duration":775574,"SoundDuration":775574,"Delta":48650857},{"NoteNumber":53,"Velocity":45,"Duration":775574,"SoundDuration":775574,"Delta":48650857},{"NoteNumber":35,"Velocity":68,"Duration":77519,"SoundDuration":77519,"Delta":48650857},{"NoteNumber":34,"Velocity":61,"Duration":77519,"SoundDuration":77519,"Delta":48728376},{"NoteNumber":32,"Velocity":61,"Duration":77519,"SoundDuration":77519,"Delta":48805896},{"NoteNumber":34,"Velocity":61,"Duration":77519,"SoundDuration":77519,"Delta":48883415},{"NoteNumber":35,"Velocity":64,"Duration":77519,"SoundDuration":77519,"Delta":48960935},{"NoteNumber":34,"Velocity":61,"Duration":77519,"SoundDuration":77519,"Delta":49038454},{"NoteNumber":32,"Velocity":61,"Duration":78125,"SoundDuration":78125,"Delta":49115974},{"NoteNumber":34,"Velocity":61,"Duration":78091,"SoundDuration":78091,"Delta":49194099},{"NoteNumber":35,"Velocity":73,"Duration":77120,"SoundDuration":77120,"Delta":49272190},{"NoteNumber":32,"Velocity":67,"Duration":78328,"SoundDuration":78328,"Delta":49426431},{"NoteNumber":32,"Velocity":67,"Duration":77120,"SoundDuration":77120,"Delta":49583089},{"NoteNumber":50,"Velocity":36,"Duration":75566,"SoundDuration":75566,"Delta":49737331},{"NoteNumber":53,"Velocity":36,"Duration":75566,"SoundDuration":75566,"Delta":49737331},{"NoteNumber":59,"Velocity":51,"Duration":75566,"SoundDuration":75566,"Delta":49737331},{"NoteNumber":50,"Velocity":38,"Duration":77120,"SoundDuration":77120,"Delta":49888464},{"NoteNumber":53,"Velocity":38,"Duration":77120,"SoundDuration":77120,"Delta":49888464},{"NoteNumber":59,"Velocity":55,"Duration":77120,"SoundDuration":77120,"Delta":49888464},{"NoteNumber":50,"Velocity":36,"Duration":77120,"SoundDuration":77120,"Delta":50042706},{"NoteNumber":53,"Velocity":36,"Duration":77120,"SoundDuration":77120,"Delta":50042706},{"NoteNumber":58,"Velocity":51,"Duration":77120,"SoundDuration":77120,"Delta":50042706},{"NoteNumber":46,"Velocity":52,"Duration":77120,"SoundDuration":77120,"Delta":50042706},{"NoteNumber":50,"Velocity":36,"Duration":77120,"SoundDuration":77120,"Delta":50196947},{"NoteNumber":53,"Velocity":36,"Duration":77120,"SoundDuration":77120,"Delta":50196947},{"NoteNumber":58,"Velocity":51,"Duration":77120,"SoundDuration":77120,"Delta":50196947},{"NoteNumber":46,"Velocity":52,"Duration":77120,"SoundDuration":77120,"Delta":50196947},{"NoteNumber":50,"Velocity":38,"Duration":77720,"SoundDuration":77720,"Delta":50351189},{"NoteNumber":53,"Velocity":38,"Duration":77720,"SoundDuration":77720,"Delta":50351189},{"NoteNumber":57,"Velocity":55,"Duration":77720,"SoundDuration":77720,"Delta":50351189},{"NoteNumber":47,"Velocity":54,"Duration":77720,"SoundDuration":77720,"Delta":50351189},{"NoteNumber":50,"Velocity":41,"Duration":78533,"SoundDuration":78533,"Delta":50506629},{"NoteNumber":53,"Velocity":41,"Duration":78533,"SoundDuration":78533,"Delta":50506629},{"NoteNumber":57,"Velocity":59,"Duration":78533,"SoundDuration":78533,"Delta":50506629},{"NoteNumber":47,"Velocity":56,"Duration":78533,"SoundDuration":78533,"Delta":50506629},{"NoteNumber":50,"Velocity":40,"Duration":78533,"SoundDuration":78533,"Delta":50663697},{"NoteNumber":53,"Velocity":40,"Duration":78533,"SoundDuration":78533,"Delta":50663697},{"NoteNumber":56,"Velocity":57,"Duration":78533,"SoundDuration":78533,"Delta":50663697},{"NoteNumber":50,"Velocity":38,"Duration":81300,"SoundDuration":81300,"Delta":50820765},{"NoteNumber":53,"Velocity":38,"Duration":81300,"SoundDuration":81300,"Delta":50820765},{"NoteNumber":56,"Velocity":55,"Duration":81300,"SoundDuration":81300,"Delta":50820765},{"NoteNumber":35,"Velocity":61,"Duration":78533,"SoundDuration":78533,"Delta":50983367},{"NoteNumber":37,"Velocity":61,"Duration":78534,"SoundDuration":78534,"Delta":51061901},{"NoteNumber":50,"Velocity":46,"Duration":773215,"SoundDuration":773215,"Delta":51140435},{"NoteNumber":53,"Velocity":46,"Duration":773215,"SoundDuration":773215,"Delta":51140435},{"NoteNumber":56,"Velocity":46,"Duration":773215,"SoundDuration":773215,"Delta":51140435},{"NoteNumber":38,"Velocity":68,"Duration":77120,"SoundDuration":77120,"Delta":51140435},{"NoteNumber":37,"Velocity":61,"Duration":77120,"SoundDuration":77120,"Delta":51217556},{"NoteNumber":35,"Velocity":61,"Duration":77120,"SoundDuration":77120,"Delta":51294676},{"NoteNumber":37,"Velocity":61,"Duration":77120,"SoundDuration":77120,"Delta":51371797},{"NoteNumber":38,"Velocity":64,"Duration":77120,"SoundDuration":77120,"Delta":51448918},{"NoteNumber":37,"Velocity":61,"Duration":77120,"SoundDuration":77120,"Delta":51526039},{"NoteNumber":35,"Velocity":61,"Duration":78125,"SoundDuration":78125,"Delta":51603159},{"NoteNumber":37,"Velocity":61,"Duration":78125,"SoundDuration":78125,"Delta":51681284},{"NoteNumber":38,"Velocity":73,"Duration":77120,"SoundDuration":77120,"Delta":51759409},{"NoteNumber":35,"Velocity":67,"Duration":77120,"SoundDuration":77120,"Delta":51913651},{"NoteNumber":35,"Velocity":67,"Duration":77120,"SoundDuration":77120,"Delta":52067892},{"NoteNumber":53,"Velocity":49,"Duration":75757,"SoundDuration":75757,"Delta":52222134},{"NoteNumber":56,"Velocity":49,"Duration":75757,"SoundDuration":75757,"Delta":52222134},{"NoteNumber":62,"Velocity":59,"Duration":75757,"SoundDuration":75757,"Delta":52222134},{"NoteNumber":53,"Velocity":50,"Duration":76335,"SoundDuration":76335,"Delta":52373649},{"NoteNumber":56,"Velocity":50,"Duration":76335,"SoundDuration":76335,"Delta":52373649},{"NoteNumber":62,"Velocity":60,"Duration":76335,"SoundDuration":76335,"Delta":52373649},{"NoteNumber":53,"Velocity":49,"Duration":76335,"SoundDuration":76335,"Delta":52526321},{"NoteNumber":56,"Velocity":49,"Duration":76335,"SoundDuration":76335,"Delta":52526321},{"NoteNumber":61,"Velocity":59,"Duration":76335,"SoundDuration":76335,"Delta":52526321},{"NoteNumber":49,"Velocity":54,"Duration":76335,"SoundDuration":76335,"Delta":52526321},{"NoteNumber":53,"Velocity":49,"Duration":76336,"SoundDuration":76336,"Delta":52678993},{"NoteNumber":56,"Velocity":49,"Duration":76336,"SoundDuration":76336,"Delta":52678993},{"NoteNumber":61,"Velocity":59,"Duration":76336,"SoundDuration":76336,"Delta":52678993},{"NoteNumber":49,"Velocity":54,"Duration":76336,"SoundDuration":76336,"Delta":52678993},{"NoteNumber":53,"Velocity":53,"Duration":77519,"SoundDuration":77519,"Delta":52831665},{"NoteNumber":56,"Velocity":53,"Duration":77519,"SoundDuration":77519,"Delta":52831665},{"NoteNumber":60,"Velocity":63,"Duration":77519,"SoundDuration":77519,"Delta":52831665},{"NoteNumber":50,"Velocity":56,"Duration":77519,"SoundDuration":77519,"Delta":52831665},{"NoteNumber":53,"Velocity":59,"Duration":78533,"SoundDuration":78533,"Delta":52986704},{"NoteNumber":56,"Velocity":59,"Duration":78533,"SoundDuration":78533,"Delta":52986704},{"NoteNumber":60,"Velocity":70,"Duration":78533,"SoundDuration":78533,"Delta":52986704},{"NoteNumber":50,"Velocity":61,"Duration":78533,"SoundDuration":78533,"Delta":52986704},{"NoteNumber":53,"Velocity":56,"Duration":78533,"SoundDuration":78533,"Delta":53143772},{"NoteNumber":56,"Velocity":56,"Duration":78533,"SoundDuration":78533,"Delta":53143772},{"NoteNumber":59,"Velocity":67,"Duration":78533,"SoundDuration":78533,"Delta":53143772},{"NoteNumber":53,"Velocity":55,"Duration":77120,"SoundDuration":77120,"Delta":53300840},{"NoteNumber":56,"Velocity":55,"Duration":77120,"SoundDuration":77120,"Delta":53300840},{"NoteNumber":59,"Velocity":64,"Duration":77120,"SoundDuration":77120,"Delta":53300840},{"NoteNumber":56,"Velocity":51,"Duration":75949,"SoundDuration":75949,"Delta":53455081},{"NoteNumber":59,"Velocity":51,"Duration":75949,"SoundDuration":75949,"Delta":53455081},{"NoteNumber":65,"Velocity":60,"Duration":75949,"SoundDuration":75949,"Delta":53455081},{"NoteNumber":56,"Velocity":53,"Duration":77319,"SoundDuration":77319,"Delta":53606980},{"NoteNumber":59,"Velocity":53,"Duration":77319,"SoundDuration":77319,"Delta":53606980},{"NoteNumber":65,"Velocity":64,"Duration":77319,"SoundDuration":77319,"Delta":53606980},{"NoteNumber":56,"Velocity":51,"Duration":77319,"SoundDuration":77319,"Delta":53761619},{"NoteNumber":59,"Velocity":51,"Duration":77319,"SoundDuration":77319,"Delta":53761619},{"NoteNumber":64,"Velocity":60,"Duration":77319,"SoundDuration":77319,"Delta":53761619},{"NoteNumber":52,"Velocity":58,"Duration":77319,"SoundDuration":77319,"Delta":53761619},{"NoteNumber":56,"Velocity":51,"Duration":77319,"SoundDuration":77319,"Delta":53916258},{"NoteNumber":59,"Velocity":51,"Duration":77319,"SoundDuration":77319,"Delta":53916258},{"NoteNumber":64,"Velocity":60,"Duration":77319,"SoundDuration":77319,"Delta":53916258},{"NoteNumber":52,"Velocity":58,"Duration":77319,"SoundDuration":77319,"Delta":53916258},{"NoteNumber":56,"Velocity":55,"Duration":75757,"SoundDuration":75757,"Delta":54070897},{"NoteNumber":60,"Velocity":55,"Duration":75757,"SoundDuration":75757,"Delta":54070897},{"NoteNumber":63,"Velocity":66,"Duration":75757,"SoundDuration":75757,"Delta":54070897},{"NoteNumber":53,"Velocity":63,"Duration":75757,"SoundDuration":75757,"Delta":54070897},{"NoteNumber":56,"Velocity":61,"Duration":76726,"SoundDuration":76726,"Delta":54222412},{"NoteNumber":59,"Velocity":61,"Duration":76726,"SoundDuration":76726,"Delta":54222412},{"NoteNumber":63,"Velocity":73,"Duration":76726,"SoundDuration":76726,"Delta":54222412},{"NoteNumber":53,"Velocity":67,"Duration":76726,"SoundDuration":76726,"Delta":54222412},{"NoteNumber":56,"Velocity":58,"Duration":76726,"SoundDuration":76726,"Delta":54375864},{"NoteNumber":59,"Velocity":58,"Duration":76726,"SoundDuration":76726,"Delta":54375864},{"NoteNumber":62,"Velocity":70,"Duration":76726,"SoundDuration":76726,"Delta":54375864},{"NoteNumber":56,"Velocity":56,"Duration":77720,"SoundDuration":77720,"Delta":54529317},{"NoteNumber":59,"Velocity":56,"Duration":77720,"SoundDuration":77720,"Delta":54529317},{"NoteNumber":62,"Velocity":67,"Duration":77720,"SoundDuration":77720,"Delta":54529317},{"NoteNumber":59,"Velocity":55,"Duration":76530,"SoundDuration":76530,"Delta":54684757},{"NoteNumber":62,"Velocity":66,"Duration":76530,"SoundDuration":76530,"Delta":54684757},{"NoteNumber":68,"Velocity":66,"Duration":76530,"SoundDuration":76530,"Delta":54684757},{"NoteNumber":59,"Velocity":58,"Duration":76923,"SoundDuration":76923,"Delta":54837818},{"NoteNumber":62,"Velocity":58,"Duration":76923,"SoundDuration":76923,"Delta":54837818},{"NoteNumber":68,"Velocity":70,"Duration":76923,"SoundDuration":76923,"Delta":54837818},{"NoteNumber":59,"Velocity":55,"Duration":76923,"SoundDuration":76923,"Delta":54991664},{"NoteNumber":62,"Velocity":55,"Duration":76923,"SoundDuration":76923,"Delta":54991664},{"NoteNumber":67,"Velocity":66,"Duration":76923,"SoundDuration":76923,"Delta":54991664},{"NoteNumber":55,"Velocity":63,"Duration":76923,"SoundDuration":76923,"Delta":54991664},{"NoteNumber":59,"Velocity":55,"Duration":77519,"SoundDuration":77519,"Delta":55145510},{"NoteNumber":62,"Velocity":55,"Duration":77519,"SoundDuration":77519,"Delta":55145510},{"NoteNumber":67,"Velocity":66,"Duration":77519,"SoundDuration":77519,"Delta":55145510},{"NoteNumber":55,"Velocity":63,"Duration":77519,"SoundDuration":77519,"Delta":55145510},{"NoteNumber":59,"Velocity":60,"Duration":75757,"SoundDuration":75757,"Delta":55300549},{"NoteNumber":62,"Velocity":60,"Duration":75757,"SoundDuration":75757,"Delta":55300549},{"NoteNumber":66,"Velocity":72,"Duration":75757,"SoundDuration":75757,"Delta":55300549},{"NoteNumber":56,"Velocity":68,"Duration":75757,"SoundDuration":75757,"Delta":55300549},{"NoteNumber":59,"Velocity":65,"Duration":76530,"SoundDuration":76530,"Delta":55452064},{"NoteNumber":62,"Velocity":65,"Duration":76530,"SoundDuration":76530,"Delta":55452064},{"NoteNumber":66,"Velocity":76,"Duration":76530,"SoundDuration":76530,"Delta":55452064},{"NoteNumber":56,"Velocity":69,"Duration":76530,"SoundDuration":76530,"Delta":55452064},{"NoteNumber":59,"Velocity":60,"Duration":76530,"SoundDuration":76530,"Delta":55605125},{"NoteNumber":62,"Velocity":60,"Duration":76530,"SoundDuration":76530,"Delta":55605125},{"NoteNumber":65,"Velocity":72,"Duration":76530,"SoundDuration":76530,"Delta":55605125},{"NoteNumber":59,"Velocity":58,"Duration":77519,"SoundDuration":77519,"Delta":55758186},{"NoteNumber":62,"Velocity":58,"Duration":77519,"SoundDuration":77519,"Delta":55758186},{"NoteNumber":65,"Velocity":69,"Duration":77519,"SoundDuration":77519,"Delta":55758186},{"NoteNumber":62,"Velocity":53,"Duration":76142,"SoundDuration":76142,"Delta":55913225},{"NoteNumber":65,"Velocity":53,"Duration":76142,"SoundDuration":76142,"Delta":55913225},{"NoteNumber":71,"Velocity":75,"Duration":76142,"SoundDuration":76142,"Delta":55913225},{"NoteNumber":62,"Velocity":58,"Duration":76530,"SoundDuration":76530,"Delta":56065510},{"NoteNumber":65,"Velocity":58,"Duration":76530,"SoundDuration":76530,"Delta":56065510},{"NoteNumber":71,"Velocity":81,"Duration":76530,"SoundDuration":76530,"Delta":56065510},{"NoteNumber":62,"Velocity":56,"Duration":76530,"SoundDuration":76530,"Delta":56218571},{"NoteNumber":65,"Velocity":56,"Duration":76530,"SoundDuration":76530,"Delta":56218571},{"NoteNumber":70,"Velocity":79,"Duration":76530,"SoundDuration":76530,"Delta":56218571},{"NoteNumber":58,"Velocity":70,"Duration":76530,"SoundDuration":76530,"Delta":56218571},{"NoteNumber":62,"Velocity":54,"Duration":77519,"SoundDuration":77519,"Delta":56371632},{"NoteNumber":65,"Velocity":54,"Duration":77519,"SoundDuration":77519,"Delta":56371632},{"NoteNumber":70,"Velocity":76,"Duration":77519,"SoundDuration":77519,"Delta":56371632},{"NoteNumber":58,"Velocity":76,"Duration":77519,"SoundDuration":77519,"Delta":56371632},{"NoteNumber":65,"Velocity":55,"Duration":75566,"SoundDuration":75566,"Delta":56526671},{"NoteNumber":68,"Velocity":55,"Duration":75566,"SoundDuration":75566,"Delta":56526671},{"NoteNumber":74,"Velocity":78,"Duration":75566,"SoundDuration":75566,"Delta":56526671},{"NoteNumber":65,"Velocity":60,"Duration":76530,"SoundDuration":76530,"Delta":56677804},{"NoteNumber":68,"Velocity":60,"Duration":76530,"SoundDuration":76530,"Delta":56677804},{"NoteNumber":74,"Velocity":86,"Duration":76530,"SoundDuration":76530,"Delta":56677804},{"NoteNumber":65,"Velocity":58,"Duration":76530,"SoundDuration":76530,"Delta":56830865},{"NoteNumber":68,"Velocity":58,"Duration":76530,"SoundDuration":76530,"Delta":56830865},{"NoteNumber":73,"Velocity":81,"Duration":76530,"SoundDuration":76530,"Delta":56830865},{"NoteNumber":61,"Velocity":74,"Duration":76530,"SoundDuration":76530,"Delta":56830865},{"NoteNumber":65,"Velocity":56,"Duration":77519,"SoundDuration":77519,"Delta":56983926},{"NoteNumber":68,"Velocity":56,"Duration":77519,"SoundDuration":77519,"Delta":56983926},{"NoteNumber":73,"Velocity":79,"Duration":77519,"SoundDuration":77519,"Delta":56983926},{"NoteNumber":61,"Velocity":78,"Duration":77519,"SoundDuration":77519,"Delta":56983926},{"NoteNumber":68,"Velocity":57,"Duration":75757,"SoundDuration":75757,"Delta":57138965},{"NoteNumber":71,"Velocity":57,"Duration":75757,"SoundDuration":75757,"Delta":57138965},{"NoteNumber":77,"Velocity":80,"Duration":75757,"SoundDuration":75757,"Delta":57138965},{"NoteNumber":68,"Velocity":62,"Duration":76530,"SoundDuration":76530,"Delta":57290480},{"NoteNumber":71,"Velocity":62,"Duration":76530,"SoundDuration":76530,"Delta":57290480},{"NoteNumber":77,"Velocity":86,"Duration":76530,"SoundDuration":76530,"Delta":57290480},{"NoteNumber":68,"Velocity":60,"Duration":76530,"SoundDuration":76530,"Delta":57443541},{"NoteNumber":71,"Velocity":60,"Duration":76530,"SoundDuration":76530,"Delta":57443541},{"NoteNumber":76,"Velocity":86,"Duration":76530,"SoundDuration":76530,"Delta":57443541},{"NoteNumber":64,"Velocity":76,"Duration":76530,"SoundDuration":76530,"Delta":57443541},{"NoteNumber":68,"Velocity":58,"Duration":77319,"SoundDuration":77319,"Delta":57596602},{"NoteNumber":71,"Velocity":58,"Duration":77319,"SoundDuration":77319,"Delta":57596602},{"NoteNumber":76,"Velocity":81,"Duration":77319,"SoundDuration":77319,"Delta":57596602},{"NoteNumber":64,"Velocity":82,"Duration":77319,"SoundDuration":77319,"Delta":57596602},{"NoteNumber":71,"Velocity":71,"Duration":79999,"SoundDuration":79999,"Delta":57751241},{"NoteNumber":74,"Velocity":71,"Duration":79999,"SoundDuration":79999,"Delta":57751241},{"NoteNumber":80,"Velocity":85,"Duration":79999,"SoundDuration":79999,"Delta":57751241},{"NoteNumber":71,"Velocity":79,"Duration":78125,"SoundDuration":78125,"Delta":57911241},{"NoteNumber":74,"Velocity":79,"Duration":78125,"SoundDuration":78125,"Delta":57911241},{"NoteNumber":80,"Velocity":94,"Duration":78125,"SoundDuration":78125,"Delta":57911241},{"NoteNumber":71,"Velocity":75,"Duration":78125,"SoundDuration":78125,"Delta":58067491},{"NoteNumber":74,"Velocity":75,"Duration":78125,"SoundDuration":78125,"Delta":58067491},{"NoteNumber":79,"Velocity":89,"Duration":78125,"SoundDuration":78125,"Delta":58067491},{"NoteNumber":67,"Velocity":80,"Duration":78125,"SoundDuration":78125,"Delta":58067491},{"NoteNumber":71,"Velocity":72,"Duration":82872,"SoundDuration":82872,"Delta":58223741},{"NoteNumber":74,"Velocity":72,"Duration":82872,"SoundDuration":82872,"Delta":58223741},{"NoteNumber":79,"Velocity":86,"Duration":82872,"SoundDuration":82872,"Delta":58223741},{"NoteNumber":67,"Velocity":85,"Duration":82872,"SoundDuration":82872,"Delta":58223741},{"NoteNumber":72,"Velocity":45,"Duration":78125,"SoundDuration":78125,"Delta":58389487},{"NoteNumber":74,"Velocity":45,"Duration":77891,"SoundDuration":77891,"Delta":58467612},{"NoteNumber":79,"Velocity":49,"Duration":77519,"SoundDuration":77519,"Delta":58545504},{"NoteNumber":76,"Velocity":49,"Duration":77519,"SoundDuration":77519,"Delta":58545504},{"NoteNumber":67,"Velocity":45,"Duration":77519,"SoundDuration":77519,"Delta":58545504},{"NoteNumber":60,"Velocity":45,"Duration":77519,"SoundDuration":77519,"Delta":58545504},{"NoteNumber":74,"Velocity":45,"Duration":77519,"SoundDuration":77519,"Delta":58623024},{"NoteNumber":72,"Velocity":45,"Duration":77519,"SoundDuration":77519,"Delta":58700543},{"NoteNumber":67,"Velocity":41,"Duration":77519,"SoundDuration":77519,"Delta":58700543},{"NoteNumber":60,"Velocity":41,"Duration":77519,"SoundDuration":77519,"Delta":58700543},{"NoteNumber":74,"Velocity":45,"Duration":77519,"SoundDuration":77519,"Delta":58778063},{"NoteNumber":76,"Velocity":47,"Duration":76142,"SoundDuration":76142,"Delta":58855582},{"NoteNumber":79,"Velocity":47,"Duration":76142,"SoundDuration":76142,"Delta":58855582},{"NoteNumber":67,"Velocity":41,"Duration":76142,"SoundDuration":76142,"Delta":58855582},{"NoteNumber":60,"Velocity":41,"Duration":76142,"SoundDuration":76142,"Delta":58855582},{"NoteNumber":74,"Velocity":45,"Duration":76142,"SoundDuration":76142,"Delta":58931725},{"NoteNumber":72,"Velocity":45,"Duration":78328,"SoundDuration":78328,"Delta":59007867},{"NoteNumber":67,"Velocity":41,"Duration":78328,"SoundDuration":78328,"Delta":59007867},{"NoteNumber":60,"Velocity":41,"Duration":78328,"SoundDuration":78328,"Delta":59007867},{"NoteNumber":74,"Velocity":45,"Duration":78329,"SoundDuration":78329,"Delta":59086196},{"NoteNumber":79,"Velocity":49,"Duration":77519,"SoundDuration":77519,"Delta":59164525},{"NoteNumber":76,"Velocity":49,"Duration":77519,"SoundDuration":77519,"Delta":59164525},{"NoteNumber":67,"Velocity":45,"Duration":77519,"SoundDuration":77519,"Delta":59164525},{"NoteNumber":60,"Velocity":45,"Duration":77519,"SoundDuration":77519,"Delta":59164525},{"NoteNumber":76,"Velocity":45,"Duration":77519,"SoundDuration":77519,"Delta":59319564},{"NoteNumber":72,"Velocity":45,"Duration":77519,"SoundDuration":77519,"Delta":59319564},{"NoteNumber":67,"Velocity":41,"Duration":77519,"SoundDuration":77519,"Delta":59319564},{"NoteNumber":60,"Velocity":41,"Duration":77519,"SoundDuration":77519,"Delta":59319564},{"NoteNumber":76,"Velocity":46,"Duration":79365,"SoundDuration":79365,"Delta":59474603},{"NoteNumber":72,"Velocity":46,"Duration":79365,"SoundDuration":79365,"Delta":59474603},{"NoteNumber":67,"Velocity":41,"Duration":79365,"SoundDuration":79365,"Delta":59474603},{"NoteNumber":60,"Velocity":41,"Duration":79365,"SoundDuration":79365,"Delta":59474603},{"NoteNumber":79,"Velocity":45,"Duration":78125,"SoundDuration":78125,"Delta":59633333},{"NoteNumber":76,"Velocity":45,"Duration":78125,"SoundDuration":78125,"Delta":59633333},{"NoteNumber":67,"Velocity":41,"Duration":78125,"SoundDuration":78125,"Delta":59633333},{"NoteNumber":60,"Velocity":41,"Duration":78125,"SoundDuration":78125,"Delta":59633333},{"NoteNumber":77,"Velocity":50,"Duration":77319,"SoundDuration":77319,"Delta":59789583},{"NoteNumber":81,"Velocity":50,"Duration":77319,"SoundDuration":77319,"Delta":59789583},{"NoteNumber":67,"Velocity":45,"Duration":77319,"SoundDuration":77319,"Delta":59789583},{"NoteNumber":60,"Velocity":45,"Duration":77319,"SoundDuration":77319,"Delta":59789583},{"NoteNumber":71,"Velocity":45,"Duration":77319,"SoundDuration":77319,"Delta":59944222},{"NoteNumber":74,"Velocity":45,"Duration":77319,"SoundDuration":77319,"Delta":59944222},{"NoteNumber":67,"Velocity":40,"Duration":77319,"SoundDuration":77319,"Delta":59944222},{"NoteNumber":60,"Velocity":40,"Duration":77319,"SoundDuration":77319,"Delta":59944222},{"NoteNumber":71,"Velocity":46,"Duration":79155,"SoundDuration":79155,"Delta":60098861},{"NoteNumber":74,"Velocity":46,"Duration":79155,"SoundDuration":79155,"Delta":60098861},{"NoteNumber":67,"Velocity":40,"Duration":79155,"SoundDuration":79155,"Delta":60098861},{"NoteNumber":60,"Velocity":40,"Duration":79155,"SoundDuration":79155,"Delta":60098861},{"NoteNumber":77,"Velocity":51,"Duration":77922,"SoundDuration":77922,"Delta":60257172},{"NoteNumber":81,"Velocity":51,"Duration":77922,"SoundDuration":77922,"Delta":60257172},{"NoteNumber":67,"Velocity":40,"Duration":77922,"SoundDuration":77922,"Delta":60257172},{"NoteNumber":60,"Velocity":40,"Duration":77922,"SoundDuration":77922,"Delta":60257172},{"NoteNumber":77,"Velocity":55,"Duration":459183,"SoundDuration":459183,"Delta":60413016},{"NoteNumber":81,"Velocity":55,"Duration":459183,"SoundDuration":459183,"Delta":60413016},{"NoteNumber":67,"Velocity":45,"Duration":76530,"SoundDuration":76530,"Delta":60413016},{"NoteNumber":60,"Velocity":45,"Duration":76530,"SoundDuration":76530,"Delta":60413016},{"NoteNumber":67,"Velocity":40,"Duration":76530,"SoundDuration":76530,"Delta":60566077},{"NoteNumber":60,"Velocity":40,"Duration":76530,"SoundDuration":76530,"Delta":60566077},{"NoteNumber":67,"Velocity":40,"Duration":76530,"SoundDuration":76530,"Delta":60719138},{"NoteNumber":60,"Velocity":40,"Duration":76530,"SoundDuration":76530,"Delta":60719138},{"NoteNumber":72,"Velocity":45,"Duration":78125,"SoundDuration":78125,"Delta":60872199},{"NoteNumber":60,"Velocity":40,"Duration":78125,"SoundDuration":78125,"Delta":60872199},{"NoteNumber":67,"Velocity":40,"Duration":78125,"SoundDuration":78125,"Delta":60872199},{"NoteNumber":74,"Velocity":45,"Duration":77891,"SoundDuration":77891,"Delta":60950324},{"NoteNumber":79,"Velocity":49,"Duration":77519,"SoundDuration":77519,"Delta":61028216},{"NoteNumber":76,"Velocity":49,"Duration":77519,"SoundDuration":77519,"Delta":61028216},{"NoteNumber":67,"Velocity":45,"Duration":77519,"SoundDuration":77519,"Delta":61028216},{"NoteNumber":60,"Velocity":45,"Duration":77519,"SoundDuration":77519,"Delta":61028216},{"NoteNumber":76,"Velocity":45,"Duration":77519,"SoundDuration":77519,"Delta":61183255},{"NoteNumber":72,"Velocity":45,"Duration":77519,"SoundDuration":77519,"Delta":61183255},{"NoteNumber":67,"Velocity":41,"Duration":77519,"SoundDuration":77519,"Delta":61183255},{"NoteNumber":60,"Velocity":41,"Duration":77519,"SoundDuration":77519,"Delta":61183255},{"NoteNumber":76,"Velocity":46,"Duration":79365,"SoundDuration":79365,"Delta":61338294},{"NoteNumber":72,"Velocity":46,"Duration":79365,"SoundDuration":79365,"Delta":61338294},{"NoteNumber":60,"Velocity":41,"Duration":79365,"SoundDuration":79365,"Delta":61338294},{"NoteNumber":67,"Velocity":41,"Duration":79365,"SoundDuration":79365,"Delta":61338294},{"NoteNumber":79,"Velocity":45,"Duration":78125,"SoundDuration":78125,"Delta":61497024},{"NoteNumber":76,"Velocity":45,"Duration":78125,"SoundDuration":78125,"Delta":61497024},{"NoteNumber":67,"Velocity":41,"Duration":78125,"SoundDuration":78125,"Delta":61497024},{"NoteNumber":60,"Velocity":41,"Duration":78125,"SoundDuration":78125,"Delta":61497024},{"NoteNumber":77,"Velocity":50,"Duration":77319,"SoundDuration":77319,"Delta":61653274},{"NoteNumber":81,"Velocity":50,"Duration":77319,"SoundDuration":77319,"Delta":61653274},{"NoteNumber":60,"Velocity":45,"Duration":77319,"SoundDuration":77319,"Delta":61653274},{"NoteNumber":67,"Velocity":45,"Duration":77319,"SoundDuration":77319,"Delta":61653274},{"NoteNumber":71,"Velocity":45,"Duration":77319,"SoundDuration":77319,"Delta":61807913},{"NoteNumber":74,"Velocity":45,"Duration":77319,"SoundDuration":77319,"Delta":61807913},{"NoteNumber":67,"Velocity":40,"Duration":77319,"SoundDuration":77319,"Delta":61807913},{"NoteNumber":60,"Velocity":40,"Duration":77319,"SoundDuration":77319,"Delta":61807913},{"NoteNumber":71,"Velocity":46,"Duration":79155,"SoundDuration":79155,"Delta":61962552},{"NoteNumber":74,"Velocity":46,"Duration":79155,"SoundDuration":79155,"Delta":61962552},{"NoteNumber":67,"Velocity":40,"Duration":79155,"SoundDuration":79155,"Delta":61962552},{"NoteNumber":60,"Velocity":40,"Duration":79155,"SoundDuration":79155,"Delta":61962552},{"NoteNumber":77,"Velocity":51,"Duration":77922,"SoundDuration":77922,"Delta":62120864},{"NoteNumber":81,"Velocity":51,"Duration":77922,"SoundDuration":77922,"Delta":62120864},{"NoteNumber":60,"Velocity":40,"Duration":77922,"SoundDuration":77922,"Delta":62120864},{"NoteNumber":67,"Velocity":40,"Duration":77922,"SoundDuration":77922,"Delta":62120864},{"NoteNumber":76,"Velocity":55,"Duration":76368,"SoundDuration":76368,"Delta":62276708},{"NoteNumber":79,"Velocity":55,"Duration":76368,"SoundDuration":76368,"Delta":62276708},{"NoteNumber":67,"Velocity":45,"Duration":76368,"SoundDuration":76368,"Delta":62276708},{"NoteNumber":60,"Velocity":45,"Duration":76368,"SoundDuration":76368,"Delta":62276708},{"NoteNumber":72,"Velocity":50,"Duration":76336,"SoundDuration":76336,"Delta":62429412},{"NoteNumber":76,"Velocity":50,"Duration":76336,"SoundDuration":76336,"Delta":62429412},{"NoteNumber":67,"Velocity":40,"Duration":76336,"SoundDuration":76336,"Delta":62429412},{"NoteNumber":60,"Velocity":40,"Duration":76336,"SoundDuration":76336,"Delta":62429412},{"NoteNumber":77,"Velocity":58,"Duration":76142,"SoundDuration":76142,"Delta":62581890},{"NoteNumber":81,"Velocity":58,"Duration":76142,"SoundDuration":76142,"Delta":62581890},{"NoteNumber":60,"Velocity":41,"Duration":76142,"SoundDuration":76142,"Delta":62581890},{"NoteNumber":67,"Velocity":41,"Duration":76142,"SoundDuration":76142,"Delta":62581890},{"NoteNumber":71,"Velocity":52,"Duration":75949,"SoundDuration":75949,"Delta":62734143},{"NoteNumber":74,"Velocity":52,"Duration":75949,"SoundDuration":75949,"Delta":62734143},{"NoteNumber":67,"Velocity":42,"Duration":75949,"SoundDuration":75949,"Delta":62734143},{"NoteNumber":60,"Velocity":42,"Duration":75949,"SoundDuration":75949,"Delta":62734143},{"NoteNumber":76,"Velocity":60,"Duration":75885,"SoundDuration":75885,"Delta":62886041},{"NoteNumber":79,"Velocity":60,"Duration":75885,"SoundDuration":75885,"Delta":62886041},{"NoteNumber":67,"Velocity":47,"Duration":75885,"SoundDuration":75885,"Delta":62886041},{"NoteNumber":60,"Velocity":47,"Duration":75885,"SoundDuration":75885,"Delta":62886041},{"NoteNumber":72,"Velocity":54,"Duration":75757,"SoundDuration":75757,"Delta":63037684},{"NoteNumber":76,"Velocity":54,"Duration":75757,"SoundDuration":75757,"Delta":63037684},{"NoteNumber":67,"Velocity":43,"Duration":75757,"SoundDuration":75757,"Delta":63037684},{"NoteNumber":60,"Velocity":43,"Duration":75757,"SoundDuration":75757,"Delta":63037684},{"NoteNumber":77,"Velocity":63,"Duration":75566,"SoundDuration":75566,"Delta":63189104},{"NoteNumber":81,"Velocity":63,"Duration":75566,"SoundDuration":75566,"Delta":63189104},{"NoteNumber":60,"Velocity":45,"Duration":75566,"SoundDuration":75566,"Delta":63189104},{"NoteNumber":67,"Velocity":45,"Duration":75566,"SoundDuration":75566,"Delta":63189104},{"NoteNumber":71,"Velocity":56,"Duration":76923,"SoundDuration":76923,"Delta":63340237},{"NoteNumber":74,"Velocity":56,"Duration":76923,"SoundDuration":76923,"Delta":63340237},{"NoteNumber":67,"Velocity":45,"Duration":76923,"SoundDuration":76923,"Delta":63340237},{"NoteNumber":60,"Velocity":45,"Duration":76923,"SoundDuration":76923,"Delta":63340237},{"NoteNumber":76,"Velocity":64,"Duration":75377,"SoundDuration":75377,"Delta":63494083},{"NoteNumber":79,"Velocity":64,"Duration":75377,"SoundDuration":75377,"Delta":63494083},{"NoteNumber":67,"Velocity":51,"Duration":75377,"SoundDuration":75377,"Delta":63494083},{"NoteNumber":60,"Velocity":51,"Duration":75377,"SoundDuration":75377,"Delta":63494083},{"NoteNumber":72,"Velocity":59,"Duration":75187,"SoundDuration":75187,"Delta":63644680},{"NoteNumber":76,"Velocity":59,"Duration":75187,"SoundDuration":75187,"Delta":63644680},{"NoteNumber":67,"Velocity":46,"Duration":75187,"SoundDuration":75187,"Delta":63644680},{"NoteNumber":60,"Velocity":46,"Duration":75187,"SoundDuration":75187,"Delta":63644680},{"NoteNumber":85,"Velocity":78,"Duration":75000,"SoundDuration":75000,"Delta":63795056},{"NoteNumber":81,"Velocity":78,"Duration":75000,"SoundDuration":75000,"Delta":63795056},{"NoteNumber":71,"Velocity":63,"Duration":75000,"SoundDuration":75000,"Delta":63795056},{"NoteNumber":64,"Velocity":63,"Duration":75000,"SoundDuration":75000,"Delta":63795056},{"NoteNumber":75,"Velocity":72,"Duration":75000,"SoundDuration":75000,"Delta":63945056},{"NoteNumber":78,"Velocity":72,"Duration":75000,"SoundDuration":75000,"Delta":63945056},{"NoteNumber":71,"Velocity":58,"Duration":75000,"SoundDuration":75000,"Delta":63945056},{"NoteNumber":64,"Velocity":58,"Duration":75000,"SoundDuration":75000,"Delta":63945056},{"NoteNumber":83,"Velocity":79,"Duration":74999,"SoundDuration":74999,"Delta":64095056},{"NoteNumber":80,"Velocity":79,"Duration":74999,"SoundDuration":74999,"Delta":64095056},{"NoteNumber":64,"Velocity":63,"Duration":74999,"SoundDuration":74999,"Delta":64095056},{"NoteNumber":71,"Velocity":63,"Duration":74999,"SoundDuration":74999,"Delta":64095056},{"NoteNumber":76,"Velocity":73,"Duration":75000,"SoundDuration":75000,"Delta":64245056},{"NoteNumber":80,"Velocity":73,"Duration":75000,"SoundDuration":75000,"Delta":64245056},{"NoteNumber":64,"Velocity":58,"Duration":75000,"SoundDuration":75000,"Delta":64245056},{"NoteNumber":71,"Velocity":58,"Duration":75000,"SoundDuration":75000,"Delta":64245056},{"NoteNumber":85,"Velocity":79,"Duration":75000,"SoundDuration":75000,"Delta":64395056},{"NoteNumber":81,"Velocity":79,"Duration":75000,"SoundDuration":75000,"Delta":64395056},{"NoteNumber":64,"Velocity":63,"Duration":75000,"SoundDuration":75000,"Delta":64395056},{"NoteNumber":71,"Velocity":63,"Duration":75000,"SoundDuration":75000,"Delta":64395056},{"NoteNumber":75,"Velocity":72,"Duration":75000,"SoundDuration":75000,"Delta":64545056},{"NoteNumber":78,"Velocity":72,"Duration":75000,"SoundDuration":75000,"Delta":64545056},{"NoteNumber":64,"Velocity":58,"Duration":75000,"SoundDuration":75000,"Delta":64545056},{"NoteNumber":71,"Velocity":58,"Duration":75000,"SoundDuration":75000,"Delta":64545056},{"NoteNumber":83,"Velocity":79,"Duration":74073,"SoundDuration":74073,"Delta":64695056},{"NoteNumber":80,"Velocity":79,"Duration":74073,"SoundDuration":74073,"Delta":64695056},{"NoteNumber":64,"Velocity":63,"Duration":74073,"SoundDuration":74073,"Delta":64695056},{"NoteNumber":71,"Velocity":63,"Duration":74073,"SoundDuration":74073,"Delta":64695056},{"NoteNumber":76,"Velocity":76,"Duration":74073,"SoundDuration":74073,"Delta":64843204},{"NoteNumber":80,"Velocity":76,"Duration":74073,"SoundDuration":74073,"Delta":64843204},{"NoteNumber":64,"Velocity":59,"Duration":74073,"SoundDuration":74073,"Delta":64843204},{"NoteNumber":71,"Velocity":59,"Duration":74073,"SoundDuration":74073,"Delta":64843204},{"NoteNumber":80,"Velocity":82,"Duration":74073,"SoundDuration":74073,"Delta":64991352},{"NoteNumber":83,"Velocity":82,"Duration":74073,"SoundDuration":74073,"Delta":64991352},{"NoteNumber":64,"Velocity":64,"Duration":74073,"SoundDuration":74073,"Delta":64991352},{"NoteNumber":71,"Velocity":64,"Duration":74073,"SoundDuration":74073,"Delta":64991352},{"NoteNumber":76,"Velocity":79,"Duration":74073,"SoundDuration":74073,"Delta":65139500},{"NoteNumber":80,"Velocity":79,"Duration":74073,"SoundDuration":74073,"Delta":65139500},{"NoteNumber":64,"Velocity":61,"Duration":74073,"SoundDuration":74073,"Delta":65139500},{"NoteNumber":71,"Velocity":61,"Duration":74073,"SoundDuration":74073,"Delta":65139500},{"NoteNumber":83,"Velocity":87,"Duration":72815,"SoundDuration":72815,"Delta":65287648},{"NoteNumber":80,"Velocity":87,"Duration":72815,"SoundDuration":72815,"Delta":65287648},{"NoteNumber":64,"Velocity":68,"Duration":72815,"SoundDuration":72815,"Delta":65287648},{"NoteNumber":71,"Velocity":68,"Duration":72815,"SoundDuration":72815,"Delta":65287648},{"NoteNumber":76,"Velocity":83,"Duration":72815,"SoundDuration":72815,"Delta":65433279},{"NoteNumber":80,"Velocity":83,"Duration":72815,"SoundDuration":72815,"Delta":65433279},{"NoteNumber":64,"Velocity":64,"Duration":72815,"SoundDuration":72815,"Delta":65433279},{"NoteNumber":71,"Velocity":64,"Duration":72815,"SoundDuration":72815,"Delta":65433279},{"NoteNumber":80,"Velocity":90,"Duration":72815,"SoundDuration":72815,"Delta":65578910},{"NoteNumber":83,"Velocity":90,"Duration":72815,"SoundDuration":72815,"Delta":65578910},{"NoteNumber":64,"Velocity":72,"Duration":72815,"SoundDuration":72815,"Delta":65578910},{"NoteNumber":71,"Velocity":72,"Duration":72815,"SoundDuration":72815,"Delta":65578910},{"NoteNumber":76,"Velocity":87,"Duration":76530,"SoundDuration":76530,"Delta":65724541},{"NoteNumber":80,"Velocity":87,"Duration":76530,"SoundDuration":76530,"Delta":65724541},{"NoteNumber":64,"Velocity":67,"Duration":76530,"SoundDuration":76530,"Delta":65724541},{"NoteNumber":71,"Velocity":67,"Duration":76530,"SoundDuration":76530,"Delta":65724541},{"NoteNumber":58,"Velocity":79,"Duration":585365,"SoundDuration":585365,"Delta":65877602},{"NoteNumber":83,"Velocity":87,"Duration":72815,"SoundDuration":72815,"Delta":66462968},{"NoteNumber":80,"Velocity":87,"Duration":72815,"SoundDuration":72815,"Delta":66462968},{"NoteNumber":64,"Velocity":68,"Duration":72815,"SoundDuration":72815,"Delta":66462968},{"NoteNumber":71,"Velocity":68,"Duration":72815,"SoundDuration":72815,"Delta":66462968},{"NoteNumber":76,"Velocity":83,"Duration":72815,"SoundDuration":72815,"Delta":66608599},{"NoteNumber":80,"Velocity":83,"Duration":72815,"SoundDuration":72815,"Delta":66608599},{"NoteNumber":64,"Velocity":64,"Duration":72815,"SoundDuration":72815,"Delta":66608599},{"NoteNumber":71,"Velocity":64,"Duration":72815,"SoundDuration":72815,"Delta":66608599},{"NoteNumber":80,"Velocity":90,"Duration":72815,"SoundDuration":72815,"Delta":66754230},{"NoteNumber":83,"Velocity":90,"Duration":72815,"SoundDuration":72815,"Delta":66754230},{"NoteNumber":64,"Velocity":72,"Duration":72815,"SoundDuration":72815,"Delta":66754230},{"NoteNumber":71,"Velocity":72,"Duration":72815,"SoundDuration":72815,"Delta":66754230},{"NoteNumber":76,"Velocity":87,"Duration":76530,"SoundDuration":76530,"Delta":66899861},{"NoteNumber":80,"Velocity":87,"Duration":76530,"SoundDuration":76530,"Delta":66899861},{"NoteNumber":64,"Velocity":67,"Duration":76530,"SoundDuration":76530,"Delta":66899861},{"NoteNumber":71,"Velocity":67,"Duration":76530,"SoundDuration":76530,"Delta":66899861},{"NoteNumber":58,"Velocity":76,"Duration":585365,"SoundDuration":585365,"Delta":67052922},{"NoteNumber":83,"Velocity":85,"Duration":72815,"SoundDuration":72815,"Delta":67638288},{"NoteNumber":80,"Velocity":85,"Duration":72815,"SoundDuration":72815,"Delta":67638288},{"NoteNumber":64,"Velocity":64,"Duration":72815,"SoundDuration":72815,"Delta":67638288},{"NoteNumber":71,"Velocity":64,"Duration":72815,"SoundDuration":72815,"Delta":67638288},{"NoteNumber":76,"Velocity":79,"Duration":72815,"SoundDuration":72815,"Delta":67783919},{"NoteNumber":80,"Velocity":79,"Duration":72815,"SoundDuration":72815,"Delta":67783919},{"NoteNumber":64,"Velocity":61,"Duration":72815,"SoundDuration":72815,"Delta":67783919},{"NoteNumber":71,"Velocity":61,"Duration":72815,"SoundDuration":72815,"Delta":67783919},{"NoteNumber":80,"Velocity":85,"Duration":72815,"SoundDuration":72815,"Delta":67929550},{"NoteNumber":83,"Velocity":85,"Duration":72815,"SoundDuration":72815,"Delta":67929550},{"NoteNumber":64,"Velocity":64,"Duration":72815,"SoundDuration":72815,"Delta":67929550},{"NoteNumber":71,"Velocity":64,"Duration":72815,"SoundDuration":72815,"Delta":67929550},{"NoteNumber":76,"Velocity":81,"Duration":76530,"SoundDuration":76530,"Delta":68075181},{"NoteNumber":80,"Velocity":81,"Duration":76530,"SoundDuration":76530,"Delta":68075181},{"NoteNumber":64,"Velocity":59,"Duration":76530,"SoundDuration":76530,"Delta":68075181},{"NoteNumber":71,"Velocity":59,"Duration":76530,"SoundDuration":76530,"Delta":68075181},{"NoteNumber":58,"Velocity":72,"Duration":5155863,"SoundDuration":5155863,"Delta":68228242},{"NoteNumber":57,"Velocity":45,"Duration":73170,"SoundDuration":73170,"Delta":68374583},{"NoteNumber":56,"Velocity":45,"Duration":73170,"SoundDuration":73170,"Delta":68520925},{"NoteNumber":55,"Velocity":45,"Duration":73170,"SoundDuration":73170,"Delta":68667266},{"NoteNumber":54,"Velocity":45,"Duration":73170,"SoundDuration":73170,"Delta":68813608},{"NoteNumber":53,"Velocity":45,"Duration":73170,"SoundDuration":73170,"Delta":68959949},{"NoteNumber":52,"Velocity":45,"Duration":73170,"SoundDuration":73170,"Delta":69106291},{"NoteNumber":51,"Velocity":45,"Duration":73170,"SoundDuration":73170,"Delta":69252632},{"NoteNumber":50,"Velocity":45,"Duration":73170,"SoundDuration":73170,"Delta":69545315},{"NoteNumber":49,"Velocity":45,"Duration":73170,"SoundDuration":73170,"Delta":69691657},{"NoteNumber":48,"Velocity":45,"Duration":73170,"SoundDuration":73170,"Delta":69837998},{"NoteNumber":47,"Velocity":45,"Duration":72992,"SoundDuration":72992,"Delta":69984340},{"NoteNumber":46,"Velocity":45,"Duration":73170,"SoundDuration":73170,"Delta":70130414},{"NoteNumber":45,"Velocity":45,"Duration":73439,"SoundDuration":73439,"Delta":70276935},{"NoteNumber":44,"Velocity":45,"Duration":73710,"SoundDuration":73710,"Delta":70423904},{"NoteNumber":43,"Velocity":41,"Duration":148822,"SoundDuration":148822,"Delta":70867834},{"NoteNumber":42,"Velocity":40,"Duration":152931,"SoundDuration":152931,"Delta":71469187},{"NoteNumber":41,"Velocity":37,"Duration":157309,"SoundDuration":157309,"Delta":72087420},{"NoteNumber":40,"Velocity":36,"Duration":163487,"SoundDuration":163487,"Delta":72730155},{"NoteNumber":63,"Velocity":45,"Duration":78125,"SoundDuration":78125,"Delta":73541620},{"NoteNumber":65,"Velocity":45,"Duration":77891,"SoundDuration":77891,"Delta":73619745},{"NoteNumber":70,"Velocity":49,"Duration":77519,"SoundDuration":77519,"Delta":73697637},{"NoteNumber":66,"Velocity":49,"Duration":77519,"SoundDuration":77519,"Delta":73697637},{"NoteNumber":39,"Velocity":45,"Duration":77519,"SoundDuration":77519,"Delta":73697637},{"NoteNumber":65,"Velocity":45,"Duration":77519,"SoundDuration":77519,"Delta":73775157},{"NoteNumber":63,"Velocity":45,"Duration":77519,"SoundDuration":77519,"Delta":73852676},{"NoteNumber":46,"Velocity":42,"Duration":77519,"SoundDuration":77519,"Delta":73852676},{"NoteNumber":65,"Velocity":45,"Duration":77519,"SoundDuration":77519,"Delta":73930196},{"NoteNumber":66,"Velocity":47,"Duration":76142,"SoundDuration":76142,"Delta":74007715},{"NoteNumber":70,"Velocity":47,"Duration":76142,"SoundDuration":76142,"Delta":74007715},{"NoteNumber":39,"Velocity":42,"Duration":76142,"SoundDuration":76142,"Delta":74007715},{"NoteNumber":65,"Velocity":45,"Duration":76142,"SoundDuration":76142,"Delta":74083858},{"NoteNumber":63,"Velocity":45,"Duration":78328,"SoundDuration":78328,"Delta":74160000},{"NoteNumber":34,"Velocity":42,"Duration":78328,"SoundDuration":78328,"Delta":74160000},{"NoteNumber":65,"Velocity":45,"Duration":78328,"SoundDuration":78328,"Delta":74238329},{"NoteNumber":70,"Velocity":49,"Duration":77519,"SoundDuration":77519,"Delta":74316658},{"NoteNumber":66,"Velocity":49,"Duration":77519,"SoundDuration":77519,"Delta":74316658},{"NoteNumber":39,"Velocity":45,"Duration":77519,"SoundDuration":77519,"Delta":74316658},{"NoteNumber":66,"Velocity":45,"Duration":77519,"SoundDuration":77519,"Delta":74471697},{"NoteNumber":63,"Velocity":45,"Duration":77519,"SoundDuration":77519,"Delta":74471697},{"NoteNumber":46,"Velocity":42,"Duration":77519,"SoundDuration":77519,"Delta":74471697},{"NoteNumber":66,"Velocity":46,"Duration":79364,"SoundDuration":79364,"Delta":74626736},{"NoteNumber":63,"Velocity":46,"Duration":79364,"SoundDuration":79364,"Delta":74626736},{"NoteNumber":39,"Velocity":42,"Duration":79364,"SoundDuration":79364,"Delta":74626736},{"NoteNumber":70,"Velocity":45,"Duration":78125,"SoundDuration":78125,"Delta":74785466},{"NoteNumber":66,"Velocity":45,"Duration":78125,"SoundDuration":78125,"Delta":74785466},{"NoteNumber":34,"Velocity":42,"Duration":78125,"SoundDuration":78125,"Delta":74785466},{"NoteNumber":65,"Velocity":50,"Duration":77319,"SoundDuration":77319,"Delta":74941716},{"NoteNumber":69,"Velocity":50,"Duration":77319,"SoundDuration":77319,"Delta":74941716},{"NoteNumber":39,"Velocity":45,"Duration":77319,"SoundDuration":77319,"Delta":74941716},{"NoteNumber":60,"Velocity":45,"Duration":77319,"SoundDuration":77319,"Delta":75096355},{"NoteNumber":65,"Velocity":45,"Duration":77319,"SoundDuration":77319,"Delta":75096355},{"NoteNumber":46,"Velocity":42,"Duration":77319,"SoundDuration":77319,"Delta":75096355},{"NoteNumber":60,"Velocity":46,"Duration":79155,"SoundDuration":79155,"Delta":75250994},{"NoteNumber":65,"Velocity":46,"Duration":79155,"SoundDuration":79155,"Delta":75250994},{"NoteNumber":39,"Velocity":42,"Duration":79155,"SoundDuration":79155,"Delta":75250994},{"NoteNumber":65,"Velocity":45,"Duration":77922,"SoundDuration":77922,"Delta":75409305},{"NoteNumber":69,"Velocity":45,"Duration":77922,"SoundDuration":77922,"Delta":75409305},{"NoteNumber":34,"Velocity":42,"Duration":77922,"SoundDuration":77922,"Delta":75409305},{"NoteNumber":65,"Velocity":54,"Duration":459182,"SoundDuration":459182,"Delta":75565149},{"NoteNumber":69,"Velocity":54,"Duration":459182,"SoundDuration":459182,"Delta":75565149},{"NoteNumber":39,"Velocity":45,"Duration":76530,"SoundDuration":76530,"Delta":75565149},{"NoteNumber":46,"Velocity":41,"Duration":76530,"SoundDuration":76530,"Delta":75718210},{"NoteNumber":39,"Velocity":41,"Duration":76530,"SoundDuration":76530,"Delta":75871271},{"NoteNumber":68,"Velocity":46,"Duration":78740,"SoundDuration":78740,"Delta":76024332},{"NoteNumber":34,"Velocity":41,"Duration":78740,"SoundDuration":78740,"Delta":76024332},{"NoteNumber":70,"Velocity":49,"Duration":78275,"SoundDuration":78275,"Delta":76103073},{"NoteNumber":71,"Velocity":54,"Duration":77519,"SoundDuration":77519,"Delta":76181348},{"NoteNumber":75,"Velocity":54,"Duration":77519,"SoundDuration":77519,"Delta":76181348},{"NoteNumber":39,"Velocity":49,"Duration":77519,"SoundDuration":77519,"Delta":76181348},{"NoteNumber":70,"Velocity":51,"Duration":77519,"SoundDuration":77519,"Delta":76258867},{"NoteNumber":68,"Velocity":51,"Duration":77519,"SoundDuration":77519,"Delta":76336387},{"NoteNumber":46,"Velocity":45,"Duration":77519,"SoundDuration":77519,"Delta":76336387},{"NoteNumber":70,"Velocity":51,"Duration":77519,"SoundDuration":77519,"Delta":76413906},{"NoteNumber":71,"Velocity":54,"Duration":76335,"SoundDuration":76335,"Delta":76491426},{"NoteNumber":75,"Velocity":54,"Duration":76335,"SoundDuration":76335,"Delta":76491426},{"NoteNumber":39,"Velocity":45,"Duration":76335,"SoundDuration":76335,"Delta":76491426},{"NoteNumber":70,"Velocity":50,"Duration":76335,"SoundDuration":76335,"Delta":76567762},{"NoteNumber":68,"Velocity":50,"Duration":78534,"SoundDuration":78534,"Delta":76644098},{"NoteNumber":34,"Velocity":45,"Duration":78534,"SoundDuration":78534,"Delta":76644098},{"NoteNumber":70,"Velocity":50,"Duration":78533,"SoundDuration":78533,"Delta":76722632},{"NoteNumber":71,"Velocity":54,"Duration":77720,"SoundDuration":77720,"Delta":76801166},{"NoteNumber":75,"Velocity":54,"Duration":77720,"SoundDuration":77720,"Delta":76801166},{"NoteNumber":39,"Velocity":49,"Duration":77720,"SoundDuration":77720,"Delta":76801166},{"NoteNumber":68,"Velocity":50,"Duration":77720,"SoundDuration":77720,"Delta":76956606},{"NoteNumber":71,"Velocity":50,"Duration":77720,"SoundDuration":77720,"Delta":76956606},{"NoteNumber":46,"Velocity":45,"Duration":77720,"SoundDuration":77720,"Delta":76956606},{"NoteNumber":71,"Velocity":50,"Duration":79787,"SoundDuration":79787,"Delta":77112047},{"NoteNumber":68,"Velocity":50,"Duration":79787,"SoundDuration":79787,"Delta":77112047},{"NoteNumber":39,"Velocity":45,"Duration":79787,"SoundDuration":79787,"Delta":77112047},{"NoteNumber":71,"Velocity":50,"Duration":78328,"SoundDuration":78328,"Delta":77271621},{"NoteNumber":75,"Velocity":50,"Duration":78328,"SoundDuration":78328,"Delta":77271621},{"NoteNumber":34,"Velocity":45,"Duration":78328,"SoundDuration":78328,"Delta":77271621},{"NoteNumber":70,"Velocity":54,"Duration":77519,"SoundDuration":77519,"Delta":77428279},{"NoteNumber":74,"Velocity":54,"Duration":77519,"SoundDuration":77519,"Delta":77428279},{"NoteNumber":39,"Velocity":49,"Duration":77519,"SoundDuration":77519,"Delta":77428279},{"NoteNumber":65,"Velocity":50,"Duration":77519,"SoundDuration":77519,"Delta":77583318},{"NoteNumber":70,"Velocity":50,"Duration":77519,"SoundDuration":77519,"Delta":77583318},{"NoteNumber":46,"Velocity":45,"Duration":77519,"SoundDuration":77519,"Delta":77583318},{"NoteNumber":65,"Velocity":50,"Duration":79364,"SoundDuration":79364,"Delta":77738357},{"NoteNumber":70,"Velocity":50,"Duration":79364,"SoundDuration":79364,"Delta":77738357},{"NoteNumber":39,"Velocity":45,"Duration":79364,"SoundDuration":79364,"Delta":77738357},{"NoteNumber":70,"Velocity":50,"Duration":78125,"SoundDuration":78125,"Delta":77897087},{"NoteNumber":74,"Velocity":50,"Duration":78125,"SoundDuration":78125,"Delta":77897087},{"NoteNumber":34,"Velocity":45,"Duration":78125,"SoundDuration":78125,"Delta":77897087},{"NoteNumber":70,"Velocity":58,"Duration":227847,"SoundDuration":227847,"Delta":78053337},{"NoteNumber":74,"Velocity":58,"Duration":227847,"SoundDuration":227847,"Delta":78053337},{"NoteNumber":39,"Velocity":49,"Duration":75949,"SoundDuration":75949,"Delta":78053337},{"NoteNumber":46,"Velocity":45,"Duration":75949,"SoundDuration":75949,"Delta":78205236},{"NoteNumber":39,"Velocity":45,"Duration":75949,"SoundDuration":75949,"Delta":78357134},{"NoteNumber":83,"Velocity":78,"Duration":79155,"SoundDuration":79155,"Delta":78509033},{"NoteNumber":85,"Velocity":78,"Duration":79155,"SoundDuration":79155,"Delta":78588188},{"NoteNumber":87,"Velocity":90,"Duration":76530,"SoundDuration":76530,"Delta":78667344},{"NoteNumber":90,"Velocity":90,"Duration":76530,"SoundDuration":76530,"Delta":78667344},{"NoteNumber":78,"Velocity":70,"Duration":464433,"SoundDuration":464433,"Delta":78667344},{"NoteNumber":71,"Velocity":70,"Duration":464433,"SoundDuration":464433,"Delta":78667344},{"NoteNumber":85,"Velocity":77,"Duration":76530,"SoundDuration":76530,"Delta":78743875},{"NoteNumber":83,"Velocity":77,"Duration":76530,"SoundDuration":76530,"Delta":78820405},{"NoteNumber":85,"Velocity":77,"Duration":76530,"SoundDuration":76530,"Delta":78896936},{"NoteNumber":90,"Velocity":81,"Duration":145118,"SoundDuration":145118,"Delta":78973466},{"NoteNumber":87,"Velocity":81,"Duration":145118,"SoundDuration":145118,"Delta":78973466},{"NoteNumber":78,"Velocity":77,"Duration":78947,"SoundDuration":78947,"Delta":79131778},{"NoteNumber":80,"Velocity":77,"Duration":78947,"SoundDuration":78947,"Delta":79210725},{"NoteNumber":85,"Velocity":90,"Duration":76726,"SoundDuration":76726,"Delta":79289672},{"NoteNumber":82,"Velocity":90,"Duration":76726,"SoundDuration":76726,"Delta":79289672},{"NoteNumber":66,"Velocity":70,"Duration":464799,"SoundDuration":464799,"Delta":79289672},{"NoteNumber":73,"Velocity":70,"Duration":464799,"SoundDuration":464799,"Delta":79289672},{"NoteNumber":80,"Velocity":77,"Duration":76726,"SoundDuration":76726,"Delta":79366398},{"NoteNumber":78,"Velocity":74,"Duration":76726,"SoundDuration":76726,"Delta":79443125},{"NoteNumber":80,"Velocity":74,"Duration":76726,"SoundDuration":76726,"Delta":79519851},{"NoteNumber":85,"Velocity":83,"Duration":144736,"SoundDuration":144736,"Delta":79596577},{"NoteNumber":82,"Velocity":83,"Duration":144736,"SoundDuration":144736,"Delta":79596577},{"NoteNumber":76,"Velocity":77,"Duration":78534,"SoundDuration":78534,"Delta":79754472},{"NoteNumber":78,"Velocity":77,"Duration":78533,"SoundDuration":78533,"Delta":79833006},{"NoteNumber":80,"Velocity":90,"Duration":76726,"SoundDuration":76726,"Delta":79911540},{"NoteNumber":83,"Velocity":90,"Duration":76726,"SoundDuration":76726,"Delta":79911540},{"NoteNumber":64,"Velocity":70,"Duration":464799,"SoundDuration":464799,"Delta":79911540},{"NoteNumber":71,"Velocity":70,"Duration":464799,"SoundDuration":464799,"Delta":79911540},{"NoteNumber":78,"Velocity":74,"Duration":76726,"SoundDuration":76726,"Delta":79988266},{"NoteNumber":76,"Velocity":74,"Duration":76726,"SoundDuration":76726,"Delta":80064992},{"NoteNumber":78,"Velocity":74,"Duration":76726,"SoundDuration":76726,"Delta":80141718},{"NoteNumber":83,"Velocity":83,"Duration":144736,"SoundDuration":144736,"Delta":80218445},{"NoteNumber":80,"Velocity":83,"Duration":144736,"SoundDuration":144736,"Delta":80218445},{"NoteNumber":71,"Velocity":78,"Duration":78534,"SoundDuration":78534,"Delta":80376339},{"NoteNumber":73,"Velocity":78,"Duration":78533,"SoundDuration":78533,"Delta":80454873},{"NoteNumber":78,"Velocity":91,"Duration":76726,"SoundDuration":76726,"Delta":80533407},{"NoteNumber":75,"Velocity":91,"Duration":76726,"SoundDuration":76726,"Delta":80533407},{"NoteNumber":59,"Velocity":70,"Duration":460357,"SoundDuration":460357,"Delta":80533407},{"NoteNumber":66,"Velocity":70,"Duration":460357,"SoundDuration":460357,"Delta":80533407},{"NoteNumber":73,"Velocity":74,"Duration":76726,"SoundDuration":76726,"Delta":80610133},{"NoteNumber":71,"Velocity":74,"Duration":76726,"SoundDuration":76726,"Delta":80686860},{"NoteNumber":73,"Velocity":74,"Duration":76726,"SoundDuration":76726,"Delta":80763586},{"NoteNumber":78,"Velocity":81,"Duration":140664,"SoundDuration":140664,"Delta":80840312},{"NoteNumber":75,"Velocity":81,"Duration":140664,"SoundDuration":140664,"Delta":80840312},{"NoteNumber":58,"Velocity":72,"Duration":78740,"SoundDuration":78740,"Delta":80993765},{"NoteNumber":46,"Velocity":70,"Duration":78740,"SoundDuration":78740,"Delta":80993765},{"NoteNumber":59,"Velocity":72,"Duration":78740,"SoundDuration":78740,"Delta":81072505},{"NoteNumber":47,"Velocity":70,"Duration":78740,"SoundDuration":78740,"Delta":81072505},{"NoteNumber":61,"Velocity":81,"Duration":76530,"SoundDuration":76530,"Delta":81151245},{"NoteNumber":49,"Velocity":81,"Duration":76530,"SoundDuration":76530,"Delta":81151245},{"NoteNumber":59,"Velocity":70,"Duration":76530,"SoundDuration":76530,"Delta":81227776},{"NoteNumber":47,"Velocity":70,"Duration":76530,"SoundDuration":76530,"Delta":81227776},{"NoteNumber":58,"Velocity":70,"Duration":78534,"SoundDuration":78534,"Delta":81304306},{"NoteNumber":46,"Velocity":70,"Duration":78534,"SoundDuration":78534,"Delta":81304306},{"NoteNumber":59,"Velocity":77,"Duration":76530,"SoundDuration":76530,"Delta":81461374},{"NoteNumber":47,"Velocity":73,"Duration":76530,"SoundDuration":76530,"Delta":81461374},{"NoteNumber":58,"Velocity":65,"Duration":76530,"SoundDuration":76530,"Delta":81537905},{"NoteNumber":46,"Velocity":67,"Duration":76530,"SoundDuration":76530,"Delta":81537905},{"NoteNumber":56,"Velocity":65,"Duration":78740,"SoundDuration":78740,"Delta":81614435},{"NoteNumber":44,"Velocity":67,"Duration":78740,"SoundDuration":78740,"Delta":81614435},{"NoteNumber":58,"Velocity":72,"Duration":76530,"SoundDuration":76530,"Delta":81771916},{"NoteNumber":46,"Velocity":72,"Duration":76530,"SoundDuration":76530,"Delta":81771916},{"NoteNumber":56,"Velocity":64,"Duration":76530,"SoundDuration":76530,"Delta":81848446},{"NoteNumber":44,"Velocity":63,"Duration":76530,"SoundDuration":76530,"Delta":81848446},{"NoteNumber":54,"Velocity":64,"Duration":78328,"SoundDuration":78328,"Delta":81924977},{"NoteNumber":42,"Velocity":63,"Duration":78328,"SoundDuration":78328,"Delta":81924977},{"NoteNumber":56,"Velocity":69,"Duration":76530,"SoundDuration":76530,"Delta":82081635},{"NoteNumber":44,"Velocity":70,"Duration":76530,"SoundDuration":76530,"Delta":82081635},{"NoteNumber":54,"Velocity":63,"Duration":76530,"SoundDuration":76530,"Delta":82158165},{"NoteNumber":42,"Velocity":63,"Duration":76530,"SoundDuration":76530,"Delta":82158165},{"NoteNumber":53,"Velocity":63,"Duration":76530,"SoundDuration":76530,"Delta":82234696},{"NoteNumber":41,"Velocity":63,"Duration":76530,"SoundDuration":76530,"Delta":82234696},{"NoteNumber":56,"Velocity":45,"Duration":77586,"SoundDuration":77586,"Delta":83000001},{"NoteNumber":44,"Velocity":45,"Duration":77586,"SoundDuration":77586,"Delta":83000001},{"NoteNumber":54,"Velocity":42,"Duration":77956,"SoundDuration":77956,"Delta":83077587},{"NoteNumber":42,"Velocity":41,"Duration":77956,"SoundDuration":77956,"Delta":83077587},{"NoteNumber":52,"Velocity":42,"Duration":78363,"SoundDuration":78363,"Delta":83155543},{"NoteNumber":40,"Velocity":41,"Duration":78363,"SoundDuration":78363,"Delta":83155543},{"NoteNumber":51,"Velocity":82,"Duration":76563,"SoundDuration":76563,"Delta":83636131},{"NoteNumber":39,"Velocity":81,"Duration":620029,"SoundDuration":620029,"Delta":83636131},{"NoteNumber":46,"Velocity":81,"Duration":620029,"SoundDuration":620029,"Delta":83636131},{"NoteNumber":58,"Velocity":76,"Duration":76824,"SoundDuration":76824,"Delta":83712694},{"NoteNumber":63,"Velocity":76,"Duration":77054,"SoundDuration":77054,"Delta":83789519},{"NoteNumber":63,"Velocity":76,"Duration":77386,"SoundDuration":77386,"Delta":83866574},{"NoteNumber":70,"Velocity":80,"Duration":77619,"SoundDuration":77619,"Delta":83943960},{"NoteNumber":75,"Velocity":85,"Duration":77922,"SoundDuration":77922,"Delta":84021580},{"NoteNumber":75,"Velocity":89,"Duration":78193,"SoundDuration":78193,"Delta":84099502},{"NoteNumber":82,"Velocity":92,"Duration":78465,"SoundDuration":78465,"Delta":84177695},{"NoteNumber":75,"Velocity":95,"Duration":157480,"SoundDuration":157480,"Delta":84256161},{"NoteNumber":87,"Velocity":95,"Duration":157480,"SoundDuration":157480,"Delta":84256161},{"NoteNumber":82,"Velocity":95,"Duration":157480,"SoundDuration":157480,"Delta":84256161},{"NoteNumber":70,"Velocity":97,"Duration":157480,"SoundDuration":157480,"Delta":84256161},{"NoteNumber":63,"Velocity":97,"Duration":157480,"SoundDuration":157480,"Delta":84256161}],"license":{"name":"Creative Commons Attribution-ShareAlike 3.0 Germany","url":"http://creativecommons.org/licenses/by-sa/3.0/de/deed.en","text":"The MIDI, audio (MP3, OGG) and video files of Bernd Krueger are licensed under the cc-by-sa Germany License. This means that you can use and adapt the files, as long as you attribute the copyright holder.\n\nName: Bernd Krueger\nSource: http://www.piano-midi.de\n\nThe distribution or public playback of the files is only allowed under identical license conditions.\n\nThe scores are open source.","attribution":"MIDI files by Bernd Krueger (piano-midi.de)","attributionUrl":"http://www.piano-midi.de"}}