{"title":"Lyric Pieces, Op. 54 No. 2: Norwegian March","artist":"Grieg","durationMs":180618,"midiSha256":"c665063d3017e602e23103d8e530b8690ea698d069e69f89f24623790c36dcd3","midiObject":[{"NoteNumber":48,"Velocity":40,"Duration":5631844,"SoundDuration":5631844,"Delta":0},{"NoteNumber":60,"Velocity":96,"Duration":574713,"SoundDuration":574713,"Delta":0},{"NoteNumber":59,"Velocity":32,"Duration":562149,"SoundDuration":562149,"Delta":574713},{"NoteNumber":72,"Velocity":40,"Duration":187382,"SoundDuration":187382,"Delta":762096},{"NoteNumber":74,"Velocity":37,"Duration":187383,"SoundDuration":187383,"Delta":949479},{"NoteNumber":65,"Velocity":34,"Duration":562149,"SoundDuration":562149,"Delta":1136862},{"NoteNumber":76,"Velocity":45,"Duration":187382,"SoundDuration":187382,"Delta":1136862},{"NoteNumber":57,"Velocity":33,"Duration":562149,"SoundDuration":562149,"Delta":1136862},{"NoteNumber":72,"Velocity":38,"Duration":187383,"SoundDuration":187383,"Delta":1324245},{"NoteNumber":76,"Velocity":38,"Duration":279918,"SoundDuration":279918,"Delta":1511628},{"NoteNumber":67,"Velocity":34,"Duration":560497,"SoundDuration":560497,"Delta":1699011},{"NoteNumber":59,"Velocity":27,"Duration":560497,"SoundDuration":560497,"Delta":1699011},{"NoteNumber":74,"Velocity":34,"Duration":46267,"SoundDuration":46267,"Delta":1791546},{"NoteNumber":76,"Velocity":34,"Duration":46267,"SoundDuration":46267,"Delta":1837814},{"NoteNumber":74,"Velocity":43,"Duration":185071,"SoundDuration":185071,"Delta":1884082},{"NoteNumber":71,"Velocity":38,"Duration":190355,"SoundDuration":190355,"Delta":2069153},{"NoteNumber":64,"Velocity":34,"Duration":570716,"SoundDuration":570716,"Delta":2259508},{"NoteNumber":74,"Velocity":40,"Duration":97975,"SoundDuration":97975,"Delta":2259508},{"NoteNumber":55,"Velocity":31,"Duration":570716,"SoundDuration":570716,"Delta":2259508},{"NoteNumber":74,"Velocity":49,"Duration":374766,"SoundDuration":374766,"Delta":2642842},{"NoteNumber":65,"Velocity":34,"Duration":556387,"SoundDuration":556387,"Delta":2830225},{"NoteNumber":57,"Velocity":29,"Duration":556387,"SoundDuration":556387,"Delta":2830225},{"NoteNumber":72,"Velocity":40,"Duration":184502,"SoundDuration":184502,"Delta":3017608},{"NoteNumber":69,"Velocity":37,"Duration":184501,"SoundDuration":184501,"Delta":3202110},{"NoteNumber":62,"Velocity":34,"Duration":558158,"SoundDuration":558158,"Delta":3386612},{"NoteNumber":72,"Velocity":45,"Duration":184502,"SoundDuration":184502,"Delta":3386612},{"NoteNumber":53,"Velocity":33,"Duration":558158,"SoundDuration":558158,"Delta":3386612},{"NoteNumber":69,"Velocity":38,"Duration":184501,"SoundDuration":184501,"Delta":3571114},{"NoteNumber":72,"Velocity":38,"Duration":189154,"SoundDuration":189154,"Delta":3755616},{"NoteNumber":71,"Velocity":45,"Duration":185071,"SoundDuration":185071,"Delta":3944771},{"NoteNumber":60,"Velocity":34,"Duration":559895,"SoundDuration":559895,"Delta":3944771},{"NoteNumber":52,"Velocity":27,"Duration":559895,"SoundDuration":559895,"Delta":3944771},{"NoteNumber":67,"Velocity":43,"Duration":185070,"SoundDuration":185070,"Delta":4129842},{"NoteNumber":71,"Velocity":38,"Duration":189753,"SoundDuration":189753,"Delta":4314913},{"NoteNumber":59,"Velocity":34,"Duration":568389,"SoundDuration":568389,"Delta":4504666},{"NoteNumber":69,"Velocity":40,"Duration":97975,"SoundDuration":97975,"Delta":4504666},{"NoteNumber":50,"Velocity":31,"Duration":568389,"SoundDuration":568389,"Delta":4504666},{"NoteNumber":69,"Velocity":46,"Duration":372438,"SoundDuration":372438,"Delta":4886836},{"NoteNumber":60,"Velocity":34,"Duration":558788,"SoundDuration":558788,"Delta":5073056},{"NoteNumber":52,"Velocity":27,"Duration":558788,"SoundDuration":558788,"Delta":5073056},{"NoteNumber":67,"Velocity":40,"Duration":182815,"SoundDuration":182815,"Delta":5259275},{"NoteNumber":64,"Velocity":37,"Duration":189753,"SoundDuration":189753,"Delta":5442091},{"NoteNumber":59,"Velocity":34,"Duration":561806,"SoundDuration":561806,"Delta":5631844},{"NoteNumber":67,"Velocity":45,"Duration":184502,"SoundDuration":184502,"Delta":5631844},{"NoteNumber":43,"Velocity":28,"Duration":2275097,"SoundDuration":2275097,"Delta":5631844},{"NoteNumber":50,"Velocity":33,"Duration":561806,"SoundDuration":561806,"Delta":5631844},{"NoteNumber":62,"Velocity":38,"Duration":184502,"SoundDuration":184502,"Delta":5816346},{"NoteNumber":67,"Velocity":38,"Duration":286493,"SoundDuration":286493,"Delta":6000848},{"NoteNumber":57,"Velocity":34,"Duration":570078,"SoundDuration":570078,"Delta":6193650},{"NoteNumber":48,"Velocity":27,"Duration":570078,"SoundDuration":570078,"Delta":6193650},{"NoteNumber":64,"Velocity":34,"Duration":46845,"SoundDuration":46845,"Delta":6287342},{"NoteNumber":66,"Velocity":34,"Duration":46845,"SoundDuration":46845,"Delta":6334187},{"NoteNumber":64,"Velocity":43,"Duration":187383,"SoundDuration":187383,"Delta":6381033},{"NoteNumber":62,"Velocity":38,"Duration":195312,"SoundDuration":195312,"Delta":6568416},{"NoteNumber":59,"Velocity":30,"Duration":568389,"SoundDuration":568389,"Delta":6763729},{"NoteNumber":67,"Velocity":40,"Duration":186219,"SoundDuration":186219,"Delta":6763729},{"NoteNumber":50,"Velocity":29,"Duration":568389,"SoundDuration":568389,"Delta":6763729},{"NoteNumber":62,"Velocity":33,"Duration":186219,"SoundDuration":186219,"Delta":6949948},{"NoteNumber":67,"Velocity":32,"Duration":290528,"SoundDuration":290528,"Delta":7136168},{"NoteNumber":57,"Velocity":28,"Duration":574823,"SoundDuration":574823,"Delta":7332118},{"NoteNumber":48,"Velocity":22,"Duration":574823,"SoundDuration":574823,"Delta":7332118},{"NoteNumber":64,"Velocity":27,"Duration":47288,"SoundDuration":47288,"Delta":7426696},{"NoteNumber":66,"Velocity":27,"Duration":47288,"SoundDuration":47288,"Delta":7473984},{"NoteNumber":64,"Velocity":34,"Duration":190355,"SoundDuration":190355,"Delta":7521273},{"NoteNumber":62,"Velocity":29,"Duration":195312,"SoundDuration":195312,"Delta":7711629},{"NoteNumber":59,"Velocity":25,"Duration":101283,"SoundDuration":101283,"Delta":7906941},{"NoteNumber":67,"Velocity":30,"Duration":101283,"SoundDuration":101283,"Delta":7906941},{"NoteNumber":43,"Velocity":19,"Duration":620803,"SoundDuration":620803,"Delta":7906941},{"NoteNumber":50,"Velocity":23,"Duration":620803,"SoundDuration":620803,"Delta":7906941},{"NoteNumber":59,"Velocity":24,"Duration":823369,"SoundDuration":823369,"Delta":8312073},{"NoteNumber":67,"Velocity":29,"Duration":823369,"SoundDuration":823369,"Delta":8312073},{"NoteNumber":31,"Velocity":19,"Duration":607697,"SoundDuration":607697,"Delta":8527745},{"NoteNumber":38,"Velocity":23,"Duration":607697,"SoundDuration":607697,"Delta":8527745},{"NoteNumber":48,"Velocity":40,"Duration":5631844,"SoundDuration":5631844,"Delta":9135443},{"NoteNumber":60,"Velocity":96,"Duration":574712,"SoundDuration":574712,"Delta":9135443},{"NoteNumber":59,"Velocity":32,"Duration":562148,"SoundDuration":562148,"Delta":9710156},{"NoteNumber":72,"Velocity":40,"Duration":187382,"SoundDuration":187382,"Delta":9897539},{"NoteNumber":74,"Velocity":37,"Duration":187383,"SoundDuration":187383,"Delta":10084922},{"NoteNumber":65,"Velocity":34,"Duration":562148,"SoundDuration":562148,"Delta":10272305},{"NoteNumber":76,"Velocity":45,"Duration":187383,"SoundDuration":187383,"Delta":10272305},{"NoteNumber":57,"Velocity":33,"Duration":562148,"SoundDuration":562148,"Delta":10272305},{"NoteNumber":72,"Velocity":38,"Duration":187382,"SoundDuration":187382,"Delta":10459688},{"NoteNumber":76,"Velocity":38,"Duration":279918,"SoundDuration":279918,"Delta":10647071},{"NoteNumber":67,"Velocity":34,"Duration":560497,"SoundDuration":560497,"Delta":10834454},{"NoteNumber":59,"Velocity":27,"Duration":560497,"SoundDuration":560497,"Delta":10834454},{"NoteNumber":74,"Velocity":34,"Duration":46267,"SoundDuration":46267,"Delta":10926990},{"NoteNumber":76,"Velocity":34,"Duration":46267,"SoundDuration":46267,"Delta":10973257},{"NoteNumber":74,"Velocity":43,"Duration":185070,"SoundDuration":185070,"Delta":11019525},{"NoteNumber":71,"Velocity":38,"Duration":190355,"SoundDuration":190355,"Delta":11204596},{"NoteNumber":64,"Velocity":34,"Duration":570716,"SoundDuration":570716,"Delta":11394952},{"NoteNumber":74,"Velocity":40,"Duration":97975,"SoundDuration":97975,"Delta":11394952},{"NoteNumber":55,"Velocity":31,"Duration":570716,"SoundDuration":570716,"Delta":11394952},{"NoteNumber":74,"Velocity":49,"Duration":374765,"SoundDuration":374765,"Delta":11778285},{"NoteNumber":65,"Velocity":34,"Duration":556387,"SoundDuration":556387,"Delta":11965668},{"NoteNumber":57,"Velocity":29,"Duration":556387,"SoundDuration":556387,"Delta":11965668},{"NoteNumber":72,"Velocity":40,"Duration":184502,"SoundDuration":184502,"Delta":12153051},{"NoteNumber":69,"Velocity":37,"Duration":184502,"SoundDuration":184502,"Delta":12337553},{"NoteNumber":62,"Velocity":34,"Duration":558158,"SoundDuration":558158,"Delta":12522055},{"NoteNumber":72,"Velocity":45,"Duration":184502,"SoundDuration":184502,"Delta":12522055},{"NoteNumber":53,"Velocity":33,"Duration":558158,"SoundDuration":558158,"Delta":12522055},{"NoteNumber":69,"Velocity":38,"Duration":184502,"SoundDuration":184502,"Delta":12706557},{"NoteNumber":72,"Velocity":38,"Duration":189154,"SoundDuration":189154,"Delta":12891059},{"NoteNumber":71,"Velocity":45,"Duration":185071,"SoundDuration":185071,"Delta":13080214},{"NoteNumber":60,"Velocity":34,"Duration":559895,"SoundDuration":559895,"Delta":13080214},{"NoteNumber":52,"Velocity":27,"Duration":559895,"SoundDuration":559895,"Delta":13080214},{"NoteNumber":67,"Velocity":43,"Duration":185070,"SoundDuration":185070,"Delta":13265285},{"NoteNumber":71,"Velocity":38,"Duration":189753,"SoundDuration":189753,"Delta":13450356},{"NoteNumber":59,"Velocity":34,"Duration":568389,"SoundDuration":568389,"Delta":13640110},{"NoteNumber":69,"Velocity":40,"Duration":97975,"SoundDuration":97975,"Delta":13640110},{"NoteNumber":50,"Velocity":31,"Duration":568389,"SoundDuration":568389,"Delta":13640110},{"NoteNumber":69,"Velocity":46,"Duration":372438,"SoundDuration":372438,"Delta":14022280},{"NoteNumber":60,"Velocity":34,"Duration":558788,"SoundDuration":558788,"Delta":14208499},{"NoteNumber":52,"Velocity":27,"Duration":558788,"SoundDuration":558788,"Delta":14208499},{"NoteNumber":67,"Velocity":40,"Duration":182815,"SoundDuration":182815,"Delta":14394719},{"NoteNumber":64,"Velocity":37,"Duration":189753,"SoundDuration":189753,"Delta":14577534},{"NoteNumber":59,"Velocity":34,"Duration":561806,"SoundDuration":561806,"Delta":14767288},{"NoteNumber":67,"Velocity":45,"Duration":184502,"SoundDuration":184502,"Delta":14767288},{"NoteNumber":43,"Velocity":28,"Duration":2275096,"SoundDuration":2275096,"Delta":14767288},{"NoteNumber":50,"Velocity":33,"Duration":561806,"SoundDuration":561806,"Delta":14767288},{"NoteNumber":62,"Velocity":38,"Duration":184502,"SoundDuration":184502,"Delta":14951790},{"NoteNumber":67,"Velocity":38,"Duration":286493,"SoundDuration":286493,"Delta":15136292},{"NoteNumber":57,"Velocity":34,"Duration":570078,"SoundDuration":570078,"Delta":15329094},{"NoteNumber":48,"Velocity":27,"Duration":570078,"SoundDuration":570078,"Delta":15329094},{"NoteNumber":64,"Velocity":34,"Duration":46845,"SoundDuration":46845,"Delta":15422785},{"NoteNumber":66,"Velocity":34,"Duration":46845,"SoundDuration":46845,"Delta":15469631},{"NoteNumber":64,"Velocity":43,"Duration":187382,"SoundDuration":187382,"Delta":15516477},{"NoteNumber":62,"Velocity":38,"Duration":195312,"SoundDuration":195312,"Delta":15703860},{"NoteNumber":59,"Velocity":30,"Duration":568389,"SoundDuration":568389,"Delta":15899172},{"NoteNumber":67,"Velocity":40,"Duration":186219,"SoundDuration":186219,"Delta":15899172},{"NoteNumber":50,"Velocity":29,"Duration":568389,"SoundDuration":568389,"Delta":15899172},{"NoteNumber":62,"Velocity":33,"Duration":186219,"SoundDuration":186219,"Delta":16085392},{"NoteNumber":67,"Velocity":32,"Duration":290527,"SoundDuration":290527,"Delta":16271611},{"NoteNumber":57,"Velocity":28,"Duration":574822,"SoundDuration":574822,"Delta":16467562},{"NoteNumber":48,"Velocity":22,"Duration":574822,"SoundDuration":574822,"Delta":16467562},{"NoteNumber":64,"Velocity":27,"Duration":47288,"SoundDuration":47288,"Delta":16562139},{"NoteNumber":66,"Velocity":27,"Duration":47288,"SoundDuration":47288,"Delta":16609428},{"NoteNumber":64,"Velocity":34,"Duration":190355,"SoundDuration":190355,"Delta":16656717},{"NoteNumber":62,"Velocity":29,"Duration":195312,"SoundDuration":195312,"Delta":16847072},{"NoteNumber":59,"Velocity":25,"Duration":101282,"SoundDuration":101282,"Delta":17042385},{"NoteNumber":67,"Velocity":30,"Duration":101282,"SoundDuration":101282,"Delta":17042385},{"NoteNumber":43,"Velocity":19,"Duration":620803,"SoundDuration":620803,"Delta":17042385},{"NoteNumber":50,"Velocity":23,"Duration":620803,"SoundDuration":620803,"Delta":17042385},{"NoteNumber":59,"Velocity":24,"Duration":1228502,"SoundDuration":1228502,"Delta":17447516},{"NoteNumber":67,"Velocity":29,"Duration":1228502,"SoundDuration":1228502,"Delta":17447516},{"NoteNumber":31,"Velocity":19,"Duration":607697,"SoundDuration":607697,"Delta":17663189},{"NoteNumber":38,"Velocity":23,"Duration":607697,"SoundDuration":607697,"Delta":17663189},{"NoteNumber":43,"Velocity":22,"Duration":833398,"SoundDuration":833398,"Delta":18270887},{"NoteNumber":50,"Velocity":26,"Duration":833398,"SoundDuration":833398,"Delta":18270887},{"NoteNumber":59,"Velocity":17,"Duration":428266,"SoundDuration":428266,"Delta":18676019},{"NoteNumber":67,"Velocity":20,"Duration":428266,"SoundDuration":428266,"Delta":18676019},{"NoteNumber":62,"Velocity":79,"Duration":93691,"SoundDuration":93691,"Delta":19104285},{"NoteNumber":64,"Velocity":73,"Duration":93691,"SoundDuration":93691,"Delta":19291668},{"NoteNumber":68,"Velocity":73,"Duration":558757,"SoundDuration":558757,"Delta":19479051},{"NoteNumber":71,"Velocity":75,"Duration":558757,"SoundDuration":558757,"Delta":19479051},{"NoteNumber":65,"Velocity":89,"Duration":92251,"SoundDuration":92251,"Delta":19479051},{"NoteNumber":62,"Velocity":74,"Duration":92251,"SoundDuration":92251,"Delta":19663553},{"NoteNumber":65,"Velocity":74,"Duration":282288,"SoundDuration":282288,"Delta":19848055},{"NoteNumber":69,"Velocity":62,"Duration":560497,"SoundDuration":560497,"Delta":20037808},{"NoteNumber":72,"Velocity":75,"Duration":560497,"SoundDuration":560497,"Delta":20037808},{"NoteNumber":64,"Velocity":67,"Duration":46267,"SoundDuration":46267,"Delta":20130344},{"NoteNumber":65,"Velocity":67,"Duration":46267,"SoundDuration":46267,"Delta":20176611},{"NoteNumber":64,"Velocity":84,"Duration":92535,"SoundDuration":92535,"Delta":20222879},{"NoteNumber":63,"Velocity":74,"Duration":95177,"SoundDuration":95177,"Delta":20407950},{"NoteNumber":68,"Velocity":72,"Duration":97975,"SoundDuration":97975,"Delta":20598306},{"NoteNumber":71,"Velocity":75,"Duration":97975,"SoundDuration":97975,"Delta":20598306},{"NoteNumber":64,"Velocity":74,"Duration":581654,"SoundDuration":581654,"Delta":20598306},{"NoteNumber":68,"Velocity":48,"Duration":379507,"SoundDuration":379507,"Delta":20990207},{"NoteNumber":71,"Velocity":75,"Duration":379507,"SoundDuration":379507,"Delta":20990207},{"NoteNumber":59,"Velocity":54,"Duration":189753,"SoundDuration":189753,"Delta":21179960},{"NoteNumber":52,"Velocity":50,"Duration":189753,"SoundDuration":189753,"Delta":21179960},{"NoteNumber":71,"Velocity":40,"Duration":187383,"SoundDuration":187383,"Delta":21369714},{"NoteNumber":73,"Velocity":37,"Duration":187383,"SoundDuration":187383,"Delta":21557097},{"NoteNumber":64,"Velocity":34,"Duration":562148,"SoundDuration":562148,"Delta":21744480},{"NoteNumber":75,"Velocity":45,"Duration":187383,"SoundDuration":187383,"Delta":21744480},{"NoteNumber":47,"Velocity":28,"Duration":1122646,"SoundDuration":1122646,"Delta":21744480},{"NoteNumber":56,"Velocity":33,"Duration":562148,"SoundDuration":562148,"Delta":21744480},{"NoteNumber":71,"Velocity":38,"Duration":187382,"SoundDuration":187382,"Delta":21931863},{"NoteNumber":75,"Velocity":38,"Duration":279918,"SoundDuration":279918,"Delta":22119246},{"NoteNumber":63,"Velocity":34,"Duration":560497,"SoundDuration":560497,"Delta":22306629},{"NoteNumber":57,"Velocity":27,"Duration":560497,"SoundDuration":560497,"Delta":22306629},{"NoteNumber":73,"Velocity":34,"Duration":46267,"SoundDuration":46267,"Delta":22399164},{"NoteNumber":75,"Velocity":34,"Duration":46267,"SoundDuration":46267,"Delta":22445432},{"NoteNumber":73,"Velocity":43,"Duration":185071,"SoundDuration":185071,"Delta":22491700},{"NoteNumber":69,"Velocity":38,"Duration":190355,"SoundDuration":190355,"Delta":22676771},{"NoteNumber":64,"Velocity":27,"Duration":97975,"SoundDuration":97975,"Delta":22867126},{"NoteNumber":68,"Velocity":27,"Duration":97975,"SoundDuration":97975,"Delta":22867126},{"NoteNumber":71,"Velocity":34,"Duration":97975,"SoundDuration":97975,"Delta":22867126},{"NoteNumber":52,"Velocity":22,"Duration":570716,"SoundDuration":570716,"Delta":22867126},{"NoteNumber":59,"Velocity":26,"Duration":570716,"SoundDuration":570716,"Delta":22867126},{"NoteNumber":64,"Velocity":33,"Duration":374766,"SoundDuration":374766,"Delta":23250460},{"NoteNumber":68,"Velocity":33,"Duration":374766,"SoundDuration":374766,"Delta":23250460},{"NoteNumber":71,"Velocity":41,"Duration":374766,"SoundDuration":374766,"Delta":23250460},{"NoteNumber":40,"Velocity":22,"Duration":187383,"SoundDuration":187383,"Delta":23437843},{"NoteNumber":47,"Velocity":26,"Duration":187383,"SoundDuration":187383,"Delta":23437843},{"NoteNumber":65,"Velocity":79,"Duration":92535,"SoundDuration":92535,"Delta":23625226},{"NoteNumber":67,"Velocity":73,"Duration":92535,"SoundDuration":92535,"Delta":23810297},{"NoteNumber":71,"Velocity":73,"Duration":556501,"SoundDuration":556501,"Delta":23995368},{"NoteNumber":74,"Velocity":75,"Duration":556501,"SoundDuration":556501,"Delta":23995368},{"NoteNumber":68,"Velocity":89,"Duration":91687,"SoundDuration":91687,"Delta":23995368},{"NoteNumber":65,"Velocity":74,"Duration":91687,"SoundDuration":91687,"Delta":24178742},{"NoteNumber":68,"Velocity":74,"Duration":282288,"SoundDuration":282288,"Delta":24362116},{"NoteNumber":72,"Velocity":62,"Duration":560497,"SoundDuration":560497,"Delta":24551869},{"NoteNumber":75,"Velocity":75,"Duration":560497,"SoundDuration":560497,"Delta":24551869},{"NoteNumber":67,"Velocity":67,"Duration":46267,"SoundDuration":46267,"Delta":24644405},{"NoteNumber":68,"Velocity":67,"Duration":46267,"SoundDuration":46267,"Delta":24690672},{"NoteNumber":67,"Velocity":84,"Duration":92535,"SoundDuration":92535,"Delta":24736940},{"NoteNumber":66,"Velocity":74,"Duration":95177,"SoundDuration":95177,"Delta":24922011},{"NoteNumber":71,"Velocity":72,"Duration":97975,"SoundDuration":97975,"Delta":25112367},{"NoteNumber":74,"Velocity":75,"Duration":97975,"SoundDuration":97975,"Delta":25112367},{"NoteNumber":67,"Velocity":74,"Duration":581654,"SoundDuration":581654,"Delta":25112367},{"NoteNumber":71,"Velocity":48,"Duration":379507,"SoundDuration":379507,"Delta":25504268},{"NoteNumber":74,"Velocity":75,"Duration":379507,"SoundDuration":379507,"Delta":25504268},{"NoteNumber":62,"Velocity":54,"Duration":189753,"SoundDuration":189753,"Delta":25694021},{"NoteNumber":55,"Velocity":50,"Duration":189753,"SoundDuration":189753,"Delta":25694021},{"NoteNumber":74,"Velocity":40,"Duration":187383,"SoundDuration":187383,"Delta":25883775},{"NoteNumber":76,"Velocity":37,"Duration":187383,"SoundDuration":187383,"Delta":26071158},{"NoteNumber":67,"Velocity":34,"Duration":562148,"SoundDuration":562148,"Delta":26258541},{"NoteNumber":78,"Velocity":45,"Duration":187383,"SoundDuration":187383,"Delta":26258541},{"NoteNumber":50,"Velocity":28,"Duration":1122646,"SoundDuration":1122646,"Delta":26258541},{"NoteNumber":59,"Velocity":33,"Duration":562148,"SoundDuration":562148,"Delta":26258541},{"NoteNumber":74,"Velocity":38,"Duration":187382,"SoundDuration":187382,"Delta":26445924},{"NoteNumber":78,"Velocity":38,"Duration":279918,"SoundDuration":279918,"Delta":26633307},{"NoteNumber":66,"Velocity":34,"Duration":560497,"SoundDuration":560497,"Delta":26820690},{"NoteNumber":60,"Velocity":27,"Duration":560497,"SoundDuration":560497,"Delta":26820690},{"NoteNumber":76,"Velocity":34,"Duration":46267,"SoundDuration":46267,"Delta":26913225},{"NoteNumber":78,"Velocity":34,"Duration":46267,"SoundDuration":46267,"Delta":26959493},{"NoteNumber":76,"Velocity":43,"Duration":185071,"SoundDuration":185071,"Delta":27005761},{"NoteNumber":72,"Velocity":38,"Duration":190355,"SoundDuration":190355,"Delta":27190832},{"NoteNumber":67,"Velocity":27,"Duration":97975,"SoundDuration":97975,"Delta":27381187},{"NoteNumber":71,"Velocity":27,"Duration":97975,"SoundDuration":97975,"Delta":27381187},{"NoteNumber":74,"Velocity":34,"Duration":97975,"SoundDuration":97975,"Delta":27381187},{"NoteNumber":55,"Velocity":22,"Duration":570716,"SoundDuration":570716,"Delta":27381187},{"NoteNumber":62,"Velocity":26,"Duration":570716,"SoundDuration":570716,"Delta":27381187},{"NoteNumber":67,"Velocity":33,"Duration":380185,"SoundDuration":380185,"Delta":27764521},{"NoteNumber":71,"Velocity":33,"Duration":380185,"SoundDuration":380185,"Delta":27764521},{"NoteNumber":74,"Velocity":41,"Duration":380185,"SoundDuration":380185,"Delta":27764521},{"NoteNumber":43,"Velocity":22,"Duration":373961,"SoundDuration":373961,"Delta":27951904},{"NoteNumber":50,"Velocity":26,"Duration":373961,"SoundDuration":373961,"Delta":27951904},{"NoteNumber":74,"Velocity":43,"Duration":90579,"SoundDuration":90579,"Delta":28144706},{"NoteNumber":76,"Velocity":43,"Duration":90579,"SoundDuration":90579,"Delta":28235285},{"NoteNumber":69,"Velocity":30,"Duration":189819,"SoundDuration":189819,"Delta":28325865},{"NoteNumber":72,"Velocity":30,"Duration":189819,"SoundDuration":189819,"Delta":28325865},{"NoteNumber":78,"Velocity":38,"Duration":189819,"SoundDuration":189819,"Delta":28325865},{"NoteNumber":67,"Velocity":27,"Duration":97975,"SoundDuration":97975,"Delta":28526788},{"NoteNumber":71,"Velocity":27,"Duration":97975,"SoundDuration":97975,"Delta":28526788},{"NoteNumber":74,"Velocity":34,"Duration":97975,"SoundDuration":97975,"Delta":28526788},{"NoteNumber":55,"Velocity":22,"Duration":570716,"SoundDuration":570716,"Delta":28526788},{"NoteNumber":62,"Velocity":26,"Duration":570716,"SoundDuration":570716,"Delta":28526788},{"NoteNumber":67,"Velocity":33,"Duration":374766,"SoundDuration":374766,"Delta":28899191},{"NoteNumber":71,"Velocity":33,"Duration":374766,"SoundDuration":374766,"Delta":28899191},{"NoteNumber":74,"Velocity":41,"Duration":374766,"SoundDuration":374766,"Delta":28899191},{"NoteNumber":43,"Velocity":22,"Duration":368179,"SoundDuration":368179,"Delta":29097505},{"NoteNumber":50,"Velocity":26,"Duration":368179,"SoundDuration":368179,"Delta":29097505},{"NoteNumber":74,"Velocity":43,"Duration":90579,"SoundDuration":90579,"Delta":29273957},{"NoteNumber":76,"Velocity":43,"Duration":90579,"SoundDuration":90579,"Delta":29364537},{"NoteNumber":69,"Velocity":30,"Duration":189819,"SoundDuration":189819,"Delta":29455116},{"NoteNumber":72,"Velocity":30,"Duration":189819,"SoundDuration":189819,"Delta":29455116},{"NoteNumber":77,"Velocity":38,"Duration":189819,"SoundDuration":189819,"Delta":29455116},{"NoteNumber":55,"Velocity":22,"Duration":371548,"SoundDuration":371548,"Delta":29656075},{"NoteNumber":62,"Velocity":26,"Duration":371548,"SoundDuration":371548,"Delta":29656075},{"NoteNumber":74,"Velocity":43,"Duration":90579,"SoundDuration":90579,"Delta":29835897},{"NoteNumber":76,"Velocity":43,"Duration":90579,"SoundDuration":90579,"Delta":29926476},{"NoteNumber":69,"Velocity":30,"Duration":94641,"SoundDuration":94641,"Delta":30017056},{"NoteNumber":72,"Velocity":30,"Duration":94641,"SoundDuration":94641,"Delta":30017056},{"NoteNumber":78,"Velocity":38,"Duration":94641,"SoundDuration":94641,"Delta":30017056},{"NoteNumber":43,"Velocity":22,"Duration":370978,"SoundDuration":370978,"Delta":30217979},{"NoteNumber":50,"Velocity":26,"Duration":370978,"SoundDuration":370978,"Delta":30217979},{"NoteNumber":74,"Velocity":43,"Duration":90579,"SoundDuration":90579,"Delta":30397231},{"NoteNumber":76,"Velocity":43,"Duration":90579,"SoundDuration":90579,"Delta":30487810},{"NoteNumber":69,"Velocity":30,"Duration":94641,"SoundDuration":94641,"Delta":30578390},{"NoteNumber":72,"Velocity":30,"Duration":94641,"SoundDuration":94641,"Delta":30578390},{"NoteNumber":77,"Velocity":38,"Duration":94641,"SoundDuration":94641,"Delta":30578390},{"NoteNumber":55,"Velocity":22,"Duration":371548,"SoundDuration":371548,"Delta":30779349},{"NoteNumber":62,"Velocity":26,"Duration":371548,"SoundDuration":371548,"Delta":30779349},{"NoteNumber":74,"Velocity":43,"Duration":90579,"SoundDuration":90579,"Delta":30959170},{"NoteNumber":76,"Velocity":43,"Duration":90579,"SoundDuration":90579,"Delta":31049750},{"NoteNumber":69,"Velocity":30,"Duration":94641,"SoundDuration":94641,"Delta":31140330},{"NoteNumber":72,"Velocity":30,"Duration":94641,"SoundDuration":94641,"Delta":31140330},{"NoteNumber":78,"Velocity":38,"Duration":94641,"SoundDuration":94641,"Delta":31140330},{"NoteNumber":43,"Velocity":22,"Duration":370978,"SoundDuration":370978,"Delta":31341253},{"NoteNumber":50,"Velocity":26,"Duration":370978,"SoundDuration":370978,"Delta":31341253},{"NoteNumber":74,"Velocity":43,"Duration":90579,"SoundDuration":90579,"Delta":31520504},{"NoteNumber":76,"Velocity":43,"Duration":90579,"SoundDuration":90579,"Delta":31611084},{"NoteNumber":69,"Velocity":30,"Duration":94641,"SoundDuration":94641,"Delta":31701664},{"NoteNumber":72,"Velocity":30,"Duration":94641,"SoundDuration":94641,"Delta":31701664},{"NoteNumber":77,"Velocity":38,"Duration":94641,"SoundDuration":94641,"Delta":31701664},{"NoteNumber":55,"Velocity":22,"Duration":371946,"SoundDuration":371946,"Delta":31902622},{"NoteNumber":62,"Velocity":26,"Duration":371946,"SoundDuration":371946,"Delta":31902622},{"NoteNumber":77,"Velocity":43,"Duration":90579,"SoundDuration":90579,"Delta":32082444},{"NoteNumber":79,"Velocity":43,"Duration":90579,"SoundDuration":90579,"Delta":32173024},{"NoteNumber":72,"Velocity":30,"Duration":95038,"SoundDuration":95038,"Delta":32263603},{"NoteNumber":74,"Velocity":30,"Duration":95038,"SoundDuration":95038,"Delta":32263603},{"NoteNumber":81,"Velocity":38,"Duration":95038,"SoundDuration":95038,"Delta":32263603},{"NoteNumber":43,"Velocity":22,"Duration":371341,"SoundDuration":371341,"Delta":32464924},{"NoteNumber":50,"Velocity":26,"Duration":371341,"SoundDuration":371341,"Delta":32464924},{"NoteNumber":77,"Velocity":43,"Duration":90579,"SoundDuration":90579,"Delta":32644175},{"NoteNumber":79,"Velocity":43,"Duration":90579,"SoundDuration":90579,"Delta":32734755},{"NoteNumber":71,"Velocity":30,"Duration":93691,"SoundDuration":93691,"Delta":32825335},{"NoteNumber":74,"Velocity":30,"Duration":93691,"SoundDuration":93691,"Delta":32825335},{"NoteNumber":81,"Velocity":38,"Duration":93691,"SoundDuration":93691,"Delta":32825335},{"NoteNumber":55,"Velocity":26,"Duration":372120,"SoundDuration":372120,"Delta":33012718},{"NoteNumber":48,"Velocity":22,"Duration":372120,"SoundDuration":372120,"Delta":33012718},{"NoteNumber":76,"Velocity":43,"Duration":90579,"SoundDuration":90579,"Delta":33203679},{"NoteNumber":77,"Velocity":43,"Duration":90579,"SoundDuration":90579,"Delta":33294258},{"NoteNumber":71,"Velocity":30,"Duration":93109,"SoundDuration":93109,"Delta":33384838},{"NoteNumber":72,"Velocity":30,"Duration":93109,"SoundDuration":93109,"Delta":33384838},{"NoteNumber":79,"Velocity":38,"Duration":93109,"SoundDuration":93109,"Delta":33384838},{"NoteNumber":43,"Velocity":26,"Duration":367378,"SoundDuration":367378,"Delta":33571058},{"NoteNumber":36,"Velocity":22,"Duration":367378,"SoundDuration":367378,"Delta":33571058},{"NoteNumber":76,"Velocity":43,"Duration":90579,"SoundDuration":90579,"Delta":33757277},{"NoteNumber":77,"Velocity":43,"Duration":90579,"SoundDuration":90579,"Delta":33847857},{"NoteNumber":71,"Velocity":29,"Duration":94641,"SoundDuration":94641,"Delta":33938437},{"NoteNumber":72,"Velocity":29,"Duration":94641,"SoundDuration":94641,"Delta":33938437},{"NoteNumber":79,"Velocity":37,"Duration":94641,"SoundDuration":94641,"Delta":33938437},{"NoteNumber":60,"Velocity":25,"Duration":372120,"SoundDuration":372120,"Delta":34128256},{"NoteNumber":53,"Velocity":21,"Duration":372120,"SoundDuration":372120,"Delta":34128256},{"NoteNumber":76,"Velocity":41,"Duration":90579,"SoundDuration":90579,"Delta":34319217},{"NoteNumber":77,"Velocity":41,"Duration":90579,"SoundDuration":90579,"Delta":34409796},{"NoteNumber":69,"Velocity":28,"Duration":94641,"SoundDuration":94641,"Delta":34500376},{"NoteNumber":72,"Velocity":28,"Duration":94641,"SoundDuration":94641,"Delta":34500376},{"NoteNumber":79,"Velocity":36,"Duration":94641,"SoundDuration":94641,"Delta":34500376},{"NoteNumber":48,"Velocity":24,"Duration":371514,"SoundDuration":371514,"Delta":34690195},{"NoteNumber":41,"Velocity":20,"Duration":371514,"SoundDuration":371514,"Delta":34690195},{"NoteNumber":76,"Velocity":39,"Duration":90579,"SoundDuration":90579,"Delta":34880551},{"NoteNumber":77,"Velocity":39,"Duration":90579,"SoundDuration":90579,"Delta":34971131},{"NoteNumber":69,"Velocity":27,"Duration":100267,"SoundDuration":100267,"Delta":35061710},{"NoteNumber":72,"Velocity":27,"Duration":100267,"SoundDuration":100267,"Delta":35061710},{"NoteNumber":79,"Velocity":34,"Duration":100267,"SoundDuration":100267,"Delta":35061710},{"NoteNumber":53,"Velocity":23,"Duration":372120,"SoundDuration":372120,"Delta":35262245},{"NoteNumber":47,"Velocity":19,"Duration":372120,"SoundDuration":372120,"Delta":35262245},{"NoteNumber":74,"Velocity":37,"Duration":90579,"SoundDuration":90579,"Delta":35453206},{"NoteNumber":76,"Velocity":37,"Duration":90579,"SoundDuration":90579,"Delta":35543786},{"NoteNumber":69,"Velocity":26,"Duration":94641,"SoundDuration":94641,"Delta":35634366},{"NoteNumber":71,"Velocity":26,"Duration":94641,"SoundDuration":94641,"Delta":35634366},{"NoteNumber":77,"Velocity":33,"Duration":94641,"SoundDuration":94641,"Delta":35634366},{"NoteNumber":41,"Velocity":22,"Duration":371514,"SoundDuration":371514,"Delta":35824185},{"NoteNumber":35,"Velocity":18,"Duration":371514,"SoundDuration":371514,"Delta":35824185},{"NoteNumber":74,"Velocity":36,"Duration":90579,"SoundDuration":90579,"Delta":36014540},{"NoteNumber":76,"Velocity":36,"Duration":90579,"SoundDuration":90579,"Delta":36105120},{"NoteNumber":69,"Velocity":24,"Duration":94641,"SoundDuration":94641,"Delta":36195700},{"NoteNumber":71,"Velocity":24,"Duration":94641,"SoundDuration":94641,"Delta":36195700},{"NoteNumber":77,"Velocity":31,"Duration":94641,"SoundDuration":94641,"Delta":36195700},{"NoteNumber":59,"Velocity":21,"Duration":368542,"SoundDuration":368542,"Delta":36385519},{"NoteNumber":52,"Velocity":18,"Duration":368542,"SoundDuration":368542,"Delta":36385519},{"NoteNumber":74,"Velocity":34,"Duration":90579,"SoundDuration":90579,"Delta":36572902},{"NoteNumber":76,"Velocity":34,"Duration":90579,"SoundDuration":90579,"Delta":36663482},{"NoteNumber":67,"Velocity":23,"Duration":92535,"SoundDuration":92535,"Delta":36754061},{"NoteNumber":71,"Velocity":23,"Duration":92535,"SoundDuration":92535,"Delta":36754061},{"NoteNumber":77,"Velocity":30,"Duration":92535,"SoundDuration":92535,"Delta":36754061},{"NoteNumber":47,"Velocity":20,"Duration":366230,"SoundDuration":366230,"Delta":36939132},{"NoteNumber":40,"Velocity":17,"Duration":366230,"SoundDuration":366230,"Delta":36939132},{"NoteNumber":74,"Velocity":32,"Duration":90579,"SoundDuration":90579,"Delta":37124203},{"NoteNumber":76,"Velocity":32,"Duration":90579,"SoundDuration":90579,"Delta":37214783},{"NoteNumber":67,"Velocity":22,"Duration":94641,"SoundDuration":94641,"Delta":37305363},{"NoteNumber":71,"Velocity":22,"Duration":94641,"SoundDuration":94641,"Delta":37305363},{"NoteNumber":77,"Velocity":28,"Duration":94641,"SoundDuration":94641,"Delta":37305363},{"NoteNumber":52,"Velocity":19,"Duration":372120,"SoundDuration":372120,"Delta":37495182},{"NoteNumber":45,"Velocity":16,"Duration":372120,"SoundDuration":372120,"Delta":37495182},{"NoteNumber":72,"Velocity":30,"Duration":90579,"SoundDuration":90579,"Delta":37686143},{"NoteNumber":74,"Velocity":30,"Duration":90579,"SoundDuration":90579,"Delta":37776723},{"NoteNumber":67,"Velocity":21,"Duration":91968,"SoundDuration":91968,"Delta":37867302},{"NoteNumber":69,"Velocity":21,"Duration":91968,"SoundDuration":91968,"Delta":37867302},{"NoteNumber":76,"Velocity":26,"Duration":91968,"SoundDuration":91968,"Delta":37867302},{"NoteNumber":40,"Velocity":18,"Duration":365095,"SoundDuration":365095,"Delta":38051238},{"NoteNumber":33,"Velocity":15,"Duration":365095,"SoundDuration":365095,"Delta":38051238},{"NoteNumber":72,"Velocity":29,"Duration":90579,"SoundDuration":90579,"Delta":38235174},{"NoteNumber":74,"Velocity":29,"Duration":90579,"SoundDuration":90579,"Delta":38325754},{"NoteNumber":67,"Velocity":20,"Duration":94641,"SoundDuration":94641,"Delta":38416334},{"NoteNumber":69,"Velocity":20,"Duration":94641,"SoundDuration":94641,"Delta":38416334},{"NoteNumber":76,"Velocity":25,"Duration":94641,"SoundDuration":94641,"Delta":38416334},{"NoteNumber":57,"Velocity":16,"Duration":366802,"SoundDuration":366802,"Delta":38606153},{"NoteNumber":50,"Velocity":14,"Duration":366802,"SoundDuration":366802,"Delta":38606153},{"NoteNumber":72,"Velocity":27,"Duration":90579,"SoundDuration":90579,"Delta":38791797},{"NoteNumber":74,"Velocity":27,"Duration":90579,"SoundDuration":90579,"Delta":38882376},{"NoteNumber":65,"Velocity":19,"Duration":92821,"SoundDuration":92821,"Delta":38972956},{"NoteNumber":69,"Velocity":19,"Duration":92821,"SoundDuration":92821,"Delta":38972956},{"NoteNumber":76,"Velocity":24,"Duration":92821,"SoundDuration":92821,"Delta":38972956},{"NoteNumber":45,"Velocity":16,"Duration":366803,"SoundDuration":366803,"Delta":39158600},{"NoteNumber":38,"Velocity":14,"Duration":366803,"SoundDuration":366803,"Delta":39158600},{"NoteNumber":57,"Velocity":16,"Duration":372120,"SoundDuration":372120,"Delta":39715222},{"NoteNumber":50,"Velocity":14,"Duration":372120,"SoundDuration":372120,"Delta":39715222},{"NoteNumber":45,"Velocity":16,"Duration":371514,"SoundDuration":371514,"Delta":40277161},{"NoteNumber":38,"Velocity":14,"Duration":371514,"SoundDuration":371514,"Delta":40277161},{"NoteNumber":50,"Velocity":16,"Duration":372120,"SoundDuration":372120,"Delta":40838495},{"NoteNumber":43,"Velocity":14,"Duration":372120,"SoundDuration":372120,"Delta":40838495},{"NoteNumber":71,"Velocity":27,"Duration":90579,"SoundDuration":90579,"Delta":41029456},{"NoteNumber":72,"Velocity":27,"Duration":90579,"SoundDuration":90579,"Delta":41120036},{"NoteNumber":65,"Velocity":19,"Duration":94641,"SoundDuration":94641,"Delta":41210616},{"NoteNumber":69,"Velocity":19,"Duration":94641,"SoundDuration":94641,"Delta":41210616},{"NoteNumber":74,"Velocity":24,"Duration":94641,"SoundDuration":94641,"Delta":41210616},{"NoteNumber":38,"Velocity":16,"Duration":190355,"SoundDuration":190355,"Delta":41400435},{"NoteNumber":31,"Velocity":14,"Duration":190355,"SoundDuration":190355,"Delta":41400435},{"NoteNumber":50,"Velocity":16,"Duration":190961,"SoundDuration":190961,"Delta":41961769},{"NoteNumber":43,"Velocity":14,"Duration":190961,"SoundDuration":190961,"Delta":41961769},{"NoteNumber":38,"Velocity":16,"Duration":190355,"SoundDuration":190355,"Delta":42523708},{"NoteNumber":31,"Velocity":14,"Duration":190355,"SoundDuration":190355,"Delta":42523708},{"NoteNumber":50,"Velocity":16,"Duration":190961,"SoundDuration":190961,"Delta":43085043},{"NoteNumber":43,"Velocity":14,"Duration":190961,"SoundDuration":190961,"Delta":43085043},{"NoteNumber":62,"Velocity":16,"Duration":190355,"SoundDuration":190355,"Delta":43646982},{"NoteNumber":55,"Velocity":14,"Duration":190355,"SoundDuration":190355,"Delta":43646982},{"NoteNumber":67,"Velocity":14,"Duration":190961,"SoundDuration":190961,"Delta":44208316},{"NoteNumber":74,"Velocity":16,"Duration":190961,"SoundDuration":190961,"Delta":44208316},{"NoteNumber":86,"Velocity":16,"Duration":190355,"SoundDuration":190355,"Delta":44770256},{"NoteNumber":79,"Velocity":14,"Duration":190355,"SoundDuration":190355,"Delta":44770256},{"NoteNumber":84,"Velocity":32,"Duration":187382,"SoundDuration":187382,"Delta":44960611},{"NoteNumber":86,"Velocity":29,"Duration":187383,"SoundDuration":187383,"Delta":45147994},{"NoteNumber":88,"Velocity":36,"Duration":187382,"SoundDuration":187382,"Delta":45335377},{"NoteNumber":79,"Velocity":26,"Duration":93691,"SoundDuration":93691,"Delta":45335377},{"NoteNumber":84,"Velocity":30,"Duration":187383,"SoundDuration":187383,"Delta":45522760},{"NoteNumber":88,"Velocity":30,"Duration":279918,"SoundDuration":279918,"Delta":45710143},{"NoteNumber":79,"Velocity":21,"Duration":92535,"SoundDuration":92535,"Delta":45897526},{"NoteNumber":86,"Velocity":27,"Duration":46267,"SoundDuration":46267,"Delta":45990062},{"NoteNumber":88,"Velocity":27,"Duration":46267,"SoundDuration":46267,"Delta":46036329},{"NoteNumber":86,"Velocity":34,"Duration":185071,"SoundDuration":185071,"Delta":46082597},{"NoteNumber":84,"Velocity":30,"Duration":190355,"SoundDuration":190355,"Delta":46267668},{"NoteNumber":88,"Velocity":32,"Duration":97975,"SoundDuration":97975,"Delta":46458024},{"NoteNumber":79,"Velocity":24,"Duration":97975,"SoundDuration":97975,"Delta":46458024},{"NoteNumber":88,"Velocity":39,"Duration":374766,"SoundDuration":374766,"Delta":46841357},{"NoteNumber":79,"Velocity":24,"Duration":93691,"SoundDuration":93691,"Delta":47028740},{"NoteNumber":84,"Velocity":32,"Duration":185071,"SoundDuration":185071,"Delta":47216123},{"NoteNumber":86,"Velocity":29,"Duration":190961,"SoundDuration":190961,"Delta":47401194},{"NoteNumber":88,"Velocity":36,"Duration":187969,"SoundDuration":187969,"Delta":47592155},{"NoteNumber":91,"Velocity":26,"Duration":93984,"SoundDuration":93984,"Delta":47592155},{"NoteNumber":84,"Velocity":30,"Duration":187969,"SoundDuration":187969,"Delta":47780125},{"NoteNumber":88,"Velocity":30,"Duration":280505,"SoundDuration":280505,"Delta":47968095},{"NoteNumber":91,"Velocity":21,"Duration":92535,"SoundDuration":92535,"Delta":48156065},{"NoteNumber":86,"Velocity":27,"Duration":46267,"SoundDuration":46267,"Delta":48248601},{"NoteNumber":88,"Velocity":27,"Duration":46267,"SoundDuration":46267,"Delta":48294868},{"NoteNumber":86,"Velocity":34,"Duration":185071,"SoundDuration":185071,"Delta":48341136},{"NoteNumber":84,"Velocity":30,"Duration":190355,"SoundDuration":190355,"Delta":48526207},{"NoteNumber":88,"Velocity":32,"Duration":97975,"SoundDuration":97975,"Delta":48716563},{"NoteNumber":91,"Velocity":24,"Duration":97975,"SoundDuration":97975,"Delta":48716563},{"NoteNumber":88,"Velocity":39,"Duration":374766,"SoundDuration":374766,"Delta":49099896},{"NoteNumber":91,"Velocity":24,"Duration":93691,"SoundDuration":93691,"Delta":49287279},{"NoteNumber":84,"Velocity":35,"Duration":187382,"SoundDuration":187382,"Delta":49474662},{"NoteNumber":86,"Velocity":31,"Duration":187383,"SoundDuration":187383,"Delta":49662045},{"NoteNumber":96,"Velocity":28,"Duration":185071,"SoundDuration":185071,"Delta":49849428},{"NoteNumber":93,"Velocity":24,"Duration":185071,"SoundDuration":185071,"Delta":49849428},{"NoteNumber":89,"Velocity":24,"Duration":185071,"SoundDuration":185071,"Delta":49849428},{"NoteNumber":88,"Velocity":39,"Duration":185071,"SoundDuration":185071,"Delta":49849428},{"NoteNumber":84,"Velocity":33,"Duration":187969,"SoundDuration":187969,"Delta":50034499},{"NoteNumber":88,"Velocity":33,"Duration":280505,"SoundDuration":280505,"Delta":50222469},{"NoteNumber":89,"Velocity":24,"Duration":185071,"SoundDuration":185071,"Delta":50410439},{"NoteNumber":95,"Velocity":28,"Duration":185071,"SoundDuration":185071,"Delta":50410439},{"NoteNumber":91,"Velocity":24,"Duration":185071,"SoundDuration":185071,"Delta":50410439},{"NoteNumber":86,"Velocity":29,"Duration":46267,"SoundDuration":46267,"Delta":50502975},{"NoteNumber":88,"Velocity":29,"Duration":46267,"SoundDuration":46267,"Delta":50549242},{"NoteNumber":86,"Velocity":37,"Duration":185071,"SoundDuration":185071,"Delta":50595510},{"NoteNumber":83,"Velocity":33,"Duration":190355,"SoundDuration":190355,"Delta":50780581},{"NoteNumber":95,"Velocity":28,"Duration":195950,"SoundDuration":195950,"Delta":50970937},{"NoteNumber":91,"Velocity":24,"Duration":195950,"SoundDuration":195950,"Delta":50970937},{"NoteNumber":88,"Velocity":24,"Duration":195950,"SoundDuration":195950,"Delta":50970937},{"NoteNumber":86,"Velocity":35,"Duration":97975,"SoundDuration":97975,"Delta":50970937},{"NoteNumber":84,"Velocity":42,"Duration":374766,"SoundDuration":374766,"Delta":51354270},{"NoteNumber":93,"Velocity":28,"Duration":187382,"SoundDuration":187382,"Delta":51541653},{"NoteNumber":89,"Velocity":24,"Duration":187382,"SoundDuration":187382,"Delta":51541653},{"NoteNumber":88,"Velocity":24,"Duration":187382,"SoundDuration":187382,"Delta":51541653},{"NoteNumber":81,"Velocity":35,"Duration":184502,"SoundDuration":184502,"Delta":51729036},{"NoteNumber":83,"Velocity":31,"Duration":188560,"SoundDuration":188560,"Delta":51913538},{"NoteNumber":93,"Velocity":28,"Duration":187382,"SoundDuration":187382,"Delta":52102099},{"NoteNumber":89,"Velocity":24,"Duration":187382,"SoundDuration":187382,"Delta":52102099},{"NoteNumber":86,"Velocity":24,"Duration":187382,"SoundDuration":187382,"Delta":52102099},{"NoteNumber":84,"Velocity":39,"Duration":187382,"SoundDuration":187382,"Delta":52102099},{"NoteNumber":81,"Velocity":33,"Duration":187383,"SoundDuration":187383,"Delta":52289482},{"NoteNumber":84,"Velocity":33,"Duration":279918,"SoundDuration":279918,"Delta":52476865},{"NoteNumber":86,"Velocity":24,"Duration":185071,"SoundDuration":185071,"Delta":52664248},{"NoteNumber":91,"Velocity":28,"Duration":185071,"SoundDuration":185071,"Delta":52664248},{"NoteNumber":88,"Velocity":24,"Duration":185071,"SoundDuration":185071,"Delta":52664248},{"NoteNumber":83,"Velocity":29,"Duration":46267,"SoundDuration":46267,"Delta":52756783},{"NoteNumber":84,"Velocity":29,"Duration":46267,"SoundDuration":46267,"Delta":52803051},{"NoteNumber":83,"Velocity":37,"Duration":185071,"SoundDuration":185071,"Delta":52849319},{"NoteNumber":79,"Velocity":33,"Duration":190355,"SoundDuration":190355,"Delta":53034390},{"NoteNumber":91,"Velocity":28,"Duration":195950,"SoundDuration":195950,"Delta":53224745},{"NoteNumber":88,"Velocity":24,"Duration":195950,"SoundDuration":195950,"Delta":53224745},{"NoteNumber":84,"Velocity":24,"Duration":195950,"SoundDuration":195950,"Delta":53224745},{"NoteNumber":83,"Velocity":35,"Duration":97975,"SoundDuration":97975,"Delta":53224745},{"NoteNumber":81,"Velocity":42,"Duration":374766,"SoundDuration":374766,"Delta":53608079},{"NoteNumber":89,"Velocity":28,"Duration":187382,"SoundDuration":187382,"Delta":53795462},{"NoteNumber":86,"Velocity":24,"Duration":187382,"SoundDuration":187382,"Delta":53795462},{"NoteNumber":84,"Velocity":24,"Duration":187382,"SoundDuration":187382,"Delta":53795462},{"NoteNumber":77,"Velocity":35,"Duration":187382,"SoundDuration":187382,"Delta":53982845},{"NoteNumber":79,"Velocity":31,"Duration":187383,"SoundDuration":187383,"Delta":54170228},{"NoteNumber":89,"Velocity":28,"Duration":183374,"SoundDuration":183374,"Delta":54357611},{"NoteNumber":86,"Velocity":24,"Duration":183374,"SoundDuration":183374,"Delta":54357611},{"NoteNumber":83,"Velocity":24,"Duration":183374,"SoundDuration":183374,"Delta":54357611},{"NoteNumber":81,"Velocity":39,"Duration":183374,"SoundDuration":183374,"Delta":54357611},{"NoteNumber":77,"Velocity":33,"Duration":189154,"SoundDuration":189154,"Delta":54540985},{"NoteNumber":81,"Velocity":33,"Duration":281690,"SoundDuration":281690,"Delta":54730140},{"NoteNumber":83,"Velocity":24,"Duration":185071,"SoundDuration":185071,"Delta":54919295},{"NoteNumber":88,"Velocity":28,"Duration":185071,"SoundDuration":185071,"Delta":54919295},{"NoteNumber":84,"Velocity":24,"Duration":185071,"SoundDuration":185071,"Delta":54919295},{"NoteNumber":79,"Velocity":29,"Duration":46267,"SoundDuration":46267,"Delta":55011830},{"NoteNumber":81,"Velocity":29,"Duration":46267,"SoundDuration":46267,"Delta":55058098},{"NoteNumber":79,"Velocity":37,"Duration":185071,"SoundDuration":185071,"Delta":55104366},{"NoteNumber":76,"Velocity":33,"Duration":190355,"SoundDuration":190355,"Delta":55289437},{"NoteNumber":88,"Velocity":28,"Duration":187382,"SoundDuration":187382,"Delta":55479792},{"NoteNumber":84,"Velocity":24,"Duration":187382,"SoundDuration":187382,"Delta":55479792},{"NoteNumber":81,"Velocity":24,"Duration":187382,"SoundDuration":187382,"Delta":55479792},{"NoteNumber":79,"Velocity":39,"Duration":187382,"SoundDuration":187382,"Delta":55479792},{"NoteNumber":76,"Velocity":33,"Duration":187383,"SoundDuration":187383,"Delta":55667175},{"NoteNumber":79,"Velocity":33,"Duration":279918,"SoundDuration":279918,"Delta":55854558},{"NoteNumber":81,"Velocity":24,"Duration":185071,"SoundDuration":185071,"Delta":56041941},{"NoteNumber":86,"Velocity":28,"Duration":185071,"SoundDuration":185071,"Delta":56041941},{"NoteNumber":83,"Velocity":24,"Duration":185071,"SoundDuration":185071,"Delta":56041941},{"NoteNumber":77,"Velocity":29,"Duration":46267,"SoundDuration":46267,"Delta":56134477},{"NoteNumber":79,"Velocity":29,"Duration":46267,"SoundDuration":46267,"Delta":56180744},{"NoteNumber":77,"Velocity":37,"Duration":185071,"SoundDuration":185071,"Delta":56227012},{"NoteNumber":74,"Velocity":33,"Duration":190355,"SoundDuration":190355,"Delta":56412083},{"NoteNumber":86,"Velocity":28,"Duration":182259,"SoundDuration":182259,"Delta":56602439},{"NoteNumber":83,"Velocity":24,"Duration":182259,"SoundDuration":182259,"Delta":56602439},{"NoteNumber":79,"Velocity":24,"Duration":182259,"SoundDuration":182259,"Delta":56602439},{"NoteNumber":77,"Velocity":39,"Duration":182259,"SoundDuration":182259,"Delta":56602439},{"NoteNumber":74,"Velocity":33,"Duration":187382,"SoundDuration":187382,"Delta":56784699},{"NoteNumber":77,"Velocity":33,"Duration":279918,"SoundDuration":279918,"Delta":56972082},{"NoteNumber":79,"Velocity":24,"Duration":185071,"SoundDuration":185071,"Delta":57159465},{"NoteNumber":84,"Velocity":28,"Duration":185071,"SoundDuration":185071,"Delta":57159465},{"NoteNumber":81,"Velocity":24,"Duration":185071,"SoundDuration":185071,"Delta":57159465},{"NoteNumber":76,"Velocity":29,"Duration":46267,"SoundDuration":46267,"Delta":57252000},{"NoteNumber":77,"Velocity":29,"Duration":46267,"SoundDuration":46267,"Delta":57298268},{"NoteNumber":76,"Velocity":37,"Duration":185071,"SoundDuration":185071,"Delta":57344536},{"NoteNumber":72,"Velocity":33,"Duration":190355,"SoundDuration":190355,"Delta":57529607},{"NoteNumber":84,"Velocity":28,"Duration":195950,"SoundDuration":195950,"Delta":57719962},{"NoteNumber":81,"Velocity":24,"Duration":195950,"SoundDuration":195950,"Delta":57719962},{"NoteNumber":77,"Velocity":24,"Duration":195950,"SoundDuration":195950,"Delta":57719962},{"NoteNumber":76,"Velocity":35,"Duration":97975,"SoundDuration":97975,"Delta":57719962},{"NoteNumber":74,"Velocity":42,"Duration":374766,"SoundDuration":374766,"Delta":58103296},{"NoteNumber":77,"Velocity":24,"Duration":187382,"SoundDuration":187382,"Delta":58290679},{"NoteNumber":83,"Velocity":28,"Duration":187382,"SoundDuration":187382,"Delta":58290679},{"NoteNumber":79,"Velocity":24,"Duration":187382,"SoundDuration":187382,"Delta":58290679},{"NoteNumber":72,"Velocity":37,"Duration":185071,"SoundDuration":185071,"Delta":58478062},{"NoteNumber":74,"Velocity":33,"Duration":190355,"SoundDuration":190355,"Delta":58663133},{"NoteNumber":84,"Velocity":29,"Duration":187382,"SoundDuration":187382,"Delta":58853488},{"NoteNumber":81,"Velocity":25,"Duration":187382,"SoundDuration":187382,"Delta":58853488},{"NoteNumber":77,"Velocity":25,"Duration":187382,"SoundDuration":187382,"Delta":58853488},{"NoteNumber":76,"Velocity":41,"Duration":187382,"SoundDuration":187382,"Delta":58853488},{"NoteNumber":72,"Velocity":34,"Duration":187383,"SoundDuration":187383,"Delta":59040871},{"NoteNumber":76,"Velocity":34,"Duration":279918,"SoundDuration":279918,"Delta":59228254},{"NoteNumber":77,"Velocity":25,"Duration":185071,"SoundDuration":185071,"Delta":59415637},{"NoteNumber":83,"Velocity":30,"Duration":185071,"SoundDuration":185071,"Delta":59415637},{"NoteNumber":79,"Velocity":25,"Duration":185071,"SoundDuration":185071,"Delta":59415637},{"NoteNumber":74,"Velocity":31,"Duration":46267,"SoundDuration":46267,"Delta":59508173},{"NoteNumber":76,"Velocity":31,"Duration":46267,"SoundDuration":46267,"Delta":59554440},{"NoteNumber":74,"Velocity":39,"Duration":185071,"SoundDuration":185071,"Delta":59600708},{"NoteNumber":71,"Velocity":34,"Duration":190355,"SoundDuration":190355,"Delta":59785779},{"NoteNumber":83,"Velocity":30,"Duration":195950,"SoundDuration":195950,"Delta":59976135},{"NoteNumber":79,"Velocity":25,"Duration":195950,"SoundDuration":195950,"Delta":59976135},{"NoteNumber":76,"Velocity":25,"Duration":195950,"SoundDuration":195950,"Delta":59976135},{"NoteNumber":74,"Velocity":38,"Duration":97975,"SoundDuration":97975,"Delta":59976135},{"NoteNumber":72,"Velocity":46,"Duration":374766,"SoundDuration":374766,"Delta":60359468},{"NoteNumber":76,"Velocity":26,"Duration":187382,"SoundDuration":187382,"Delta":60546851},{"NoteNumber":81,"Velocity":31,"Duration":187382,"SoundDuration":187382,"Delta":60546851},{"NoteNumber":77,"Velocity":26,"Duration":187382,"SoundDuration":187382,"Delta":60546851},{"NoteNumber":69,"Velocity":42,"Duration":185071,"SoundDuration":185071,"Delta":60734234},{"NoteNumber":71,"Velocity":37,"Duration":190355,"SoundDuration":190355,"Delta":60919305},{"NoteNumber":81,"Velocity":31,"Duration":183374,"SoundDuration":183374,"Delta":61109661},{"NoteNumber":77,"Velocity":27,"Duration":183374,"SoundDuration":183374,"Delta":61109661},{"NoteNumber":74,"Velocity":27,"Duration":183374,"SoundDuration":183374,"Delta":61109661},{"NoteNumber":72,"Velocity":44,"Duration":183374,"SoundDuration":183374,"Delta":61109661},{"NoteNumber":69,"Velocity":37,"Duration":188560,"SoundDuration":188560,"Delta":61293035},{"NoteNumber":72,"Velocity":37,"Duration":281095,"SoundDuration":281095,"Delta":61481595},{"NoteNumber":74,"Velocity":28,"Duration":185071,"SoundDuration":185071,"Delta":61670156},{"NoteNumber":79,"Velocity":33,"Duration":185071,"SoundDuration":185071,"Delta":61670156},{"NoteNumber":76,"Velocity":28,"Duration":185071,"SoundDuration":185071,"Delta":61670156},{"NoteNumber":71,"Velocity":34,"Duration":46267,"SoundDuration":46267,"Delta":61762691},{"NoteNumber":72,"Velocity":34,"Duration":46267,"SoundDuration":46267,"Delta":61808959},{"NoteNumber":71,"Velocity":43,"Duration":185071,"SoundDuration":185071,"Delta":61855227},{"NoteNumber":67,"Velocity":39,"Duration":190355,"SoundDuration":190355,"Delta":62040298},{"NoteNumber":79,"Velocity":33,"Duration":195950,"SoundDuration":195950,"Delta":62230653},{"NoteNumber":76,"Velocity":28,"Duration":195950,"SoundDuration":195950,"Delta":62230653},{"NoteNumber":72,"Velocity":28,"Duration":195950,"SoundDuration":195950,"Delta":62230653},{"NoteNumber":71,"Velocity":41,"Duration":97975,"SoundDuration":97975,"Delta":62230653},{"NoteNumber":69,"Velocity":51,"Duration":374766,"SoundDuration":374766,"Delta":62613987},{"NoteNumber":72,"Velocity":28,"Duration":187382,"SoundDuration":187382,"Delta":62801370},{"NoteNumber":77,"Velocity":34,"Duration":187382,"SoundDuration":187382,"Delta":62801370},{"NoteNumber":74,"Velocity":28,"Duration":187382,"SoundDuration":187382,"Delta":62801370},{"NoteNumber":65,"Velocity":45,"Duration":185071,"SoundDuration":185071,"Delta":62988753},{"NoteNumber":67,"Velocity":40,"Duration":191571,"SoundDuration":191571,"Delta":63173824},{"NoteNumber":77,"Velocity":35,"Duration":184502,"SoundDuration":184502,"Delta":63365395},{"NoteNumber":74,"Velocity":30,"Duration":184502,"SoundDuration":184502,"Delta":63365395},{"NoteNumber":71,"Velocity":30,"Duration":184502,"SoundDuration":184502,"Delta":63365395},{"NoteNumber":69,"Velocity":49,"Duration":184502,"SoundDuration":184502,"Delta":63365395},{"NoteNumber":65,"Velocity":40,"Duration":187969,"SoundDuration":187969,"Delta":63549897},{"NoteNumber":69,"Velocity":41,"Duration":280505,"SoundDuration":280505,"Delta":63737867},{"NoteNumber":71,"Velocity":30,"Duration":185070,"SoundDuration":185070,"Delta":63925837},{"NoteNumber":76,"Velocity":36,"Duration":185070,"SoundDuration":185070,"Delta":63925837},{"NoteNumber":72,"Velocity":30,"Duration":185070,"SoundDuration":185070,"Delta":63925837},{"NoteNumber":67,"Velocity":37,"Duration":46267,"SoundDuration":46267,"Delta":64018372},{"NoteNumber":69,"Velocity":37,"Duration":46267,"SoundDuration":46267,"Delta":64064640},{"NoteNumber":67,"Velocity":48,"Duration":185071,"SoundDuration":185071,"Delta":64110908},{"NoteNumber":64,"Velocity":42,"Duration":190355,"SoundDuration":190355,"Delta":64295979},{"NoteNumber":76,"Velocity":37,"Duration":187382,"SoundDuration":187382,"Delta":64486334},{"NoteNumber":72,"Velocity":31,"Duration":187382,"SoundDuration":187382,"Delta":64486334},{"NoteNumber":69,"Velocity":31,"Duration":187382,"SoundDuration":187382,"Delta":64486334},{"NoteNumber":67,"Velocity":52,"Duration":187382,"SoundDuration":187382,"Delta":64486334},{"NoteNumber":64,"Velocity":44,"Duration":187382,"SoundDuration":187382,"Delta":64673717},{"NoteNumber":67,"Velocity":44,"Duration":279918,"SoundDuration":279918,"Delta":64861100},{"NoteNumber":69,"Velocity":33,"Duration":185070,"SoundDuration":185070,"Delta":65048483},{"NoteNumber":74,"Velocity":40,"Duration":185070,"SoundDuration":185070,"Delta":65048483},{"NoteNumber":71,"Velocity":33,"Duration":185070,"SoundDuration":185070,"Delta":65048483},{"NoteNumber":65,"Velocity":41,"Duration":46267,"SoundDuration":46267,"Delta":65141019},{"NoteNumber":67,"Velocity":41,"Duration":46267,"SoundDuration":46267,"Delta":65187286},{"NoteNumber":65,"Velocity":53,"Duration":185071,"SoundDuration":185071,"Delta":65233554},{"NoteNumber":62,"Velocity":47,"Duration":190355,"SoundDuration":190355,"Delta":65418625},{"NoteNumber":76,"Velocity":41,"Duration":187382,"SoundDuration":187382,"Delta":65608981},{"NoteNumber":72,"Velocity":35,"Duration":187382,"SoundDuration":187382,"Delta":65608981},{"NoteNumber":69,"Velocity":35,"Duration":187382,"SoundDuration":187382,"Delta":65608981},{"NoteNumber":65,"Velocity":58,"Duration":187382,"SoundDuration":187382,"Delta":65608981},{"NoteNumber":62,"Velocity":50,"Duration":187382,"SoundDuration":187382,"Delta":65796364},{"NoteNumber":65,"Velocity":50,"Duration":279918,"SoundDuration":279918,"Delta":65983747},{"NoteNumber":69,"Velocity":37,"Duration":185070,"SoundDuration":185070,"Delta":66171130},{"NoteNumber":74,"Velocity":44,"Duration":185070,"SoundDuration":185070,"Delta":66171130},{"NoteNumber":71,"Velocity":37,"Duration":185070,"SoundDuration":185070,"Delta":66171130},{"NoteNumber":64,"Velocity":47,"Duration":46267,"SoundDuration":46267,"Delta":66263665},{"NoteNumber":65,"Velocity":47,"Duration":46267,"SoundDuration":46267,"Delta":66309933},{"NoteNumber":64,"Velocity":59,"Duration":185071,"SoundDuration":185071,"Delta":66356201},{"NoteNumber":60,"Velocity":54,"Duration":190355,"SoundDuration":190355,"Delta":66541272},{"NoteNumber":72,"Velocity":47,"Duration":195950,"SoundDuration":195950,"Delta":66731627},{"NoteNumber":69,"Velocity":40,"Duration":195950,"SoundDuration":195950,"Delta":66731627},{"NoteNumber":65,"Velocity":40,"Duration":195950,"SoundDuration":195950,"Delta":66731627},{"NoteNumber":64,"Velocity":58,"Duration":97975,"SoundDuration":97975,"Delta":66731627},{"NoteNumber":62,"Velocity":75,"Duration":385926,"SoundDuration":385926,"Delta":67114961},{"NoteNumber":65,"Velocity":42,"Duration":198543,"SoundDuration":198543,"Delta":67302344},{"NoteNumber":71,"Velocity":50,"Duration":198543,"SoundDuration":198543,"Delta":67302344},{"NoteNumber":67,"Velocity":42,"Duration":198543,"SoundDuration":198543,"Delta":67302344},{"NoteNumber":48,"Velocity":62,"Duration":67049,"SoundDuration":67049,"Delta":67500888},{"NoteNumber":60,"Velocity":74,"Duration":67049,"SoundDuration":67049,"Delta":67500888},{"NoteNumber":50,"Velocity":56,"Duration":69721,"SoundDuration":69721,"Delta":67692459},{"NoteNumber":62,"Velocity":66,"Duration":69721,"SoundDuration":69721,"Delta":67692459},{"NoteNumber":72,"Velocity":52,"Duration":189753,"SoundDuration":189753,"Delta":67891662},{"NoteNumber":69,"Velocity":44,"Duration":189753,"SoundDuration":189753,"Delta":67891662},{"NoteNumber":65,"Velocity":44,"Duration":189753,"SoundDuration":189753,"Delta":67891662},{"NoteNumber":52,"Velocity":67,"Duration":66413,"SoundDuration":66413,"Delta":67891662},{"NoteNumber":64,"Velocity":79,"Duration":66413,"SoundDuration":66413,"Delta":67891662},{"NoteNumber":48,"Velocity":56,"Duration":66413,"SoundDuration":66413,"Delta":68081415},{"NoteNumber":60,"Velocity":66,"Duration":66413,"SoundDuration":66413,"Delta":68081415},{"NoteNumber":52,"Velocity":56,"Duration":374824,"SoundDuration":374824,"Delta":68271169},{"NoteNumber":64,"Velocity":66,"Duration":374824,"SoundDuration":374824,"Delta":68271169},{"NoteNumber":65,"Velocity":44,"Duration":185070,"SoundDuration":185070,"Delta":68460922},{"NoteNumber":71,"Velocity":52,"Duration":185070,"SoundDuration":185070,"Delta":68460922},{"NoteNumber":67,"Velocity":44,"Duration":185070,"SoundDuration":185070,"Delta":68460922},{"NoteNumber":50,"Velocity":62,"Duration":64774,"SoundDuration":64774,"Delta":68645993},{"NoteNumber":62,"Velocity":74,"Duration":64774,"SoundDuration":64774,"Delta":68645993},{"NoteNumber":47,"Velocity":56,"Duration":66624,"SoundDuration":66624,"Delta":68831064},{"NoteNumber":59,"Velocity":66,"Duration":66624,"SoundDuration":66624,"Delta":68831064},{"NoteNumber":71,"Velocity":52,"Duration":195950,"SoundDuration":195950,"Delta":69021420},{"NoteNumber":67,"Velocity":44,"Duration":195950,"SoundDuration":195950,"Delta":69021420},{"NoteNumber":64,"Velocity":44,"Duration":195950,"SoundDuration":195950,"Delta":69021420},{"NoteNumber":50,"Velocity":59,"Duration":97975,"SoundDuration":97975,"Delta":69021420},{"NoteNumber":62,"Velocity":70,"Duration":97975,"SoundDuration":97975,"Delta":69021420},{"NoteNumber":48,"Velocity":72,"Duration":374766,"SoundDuration":374766,"Delta":69404753},{"NoteNumber":60,"Velocity":85,"Duration":374766,"SoundDuration":374766,"Delta":69404753},{"NoteNumber":64,"Velocity":44,"Duration":187383,"SoundDuration":187383,"Delta":69592136},{"NoteNumber":69,"Velocity":52,"Duration":187383,"SoundDuration":187383,"Delta":69592136},{"NoteNumber":65,"Velocity":44,"Duration":187383,"SoundDuration":187383,"Delta":69592136},{"NoteNumber":45,"Velocity":62,"Duration":67049,"SoundDuration":67049,"Delta":69779519},{"NoteNumber":57,"Velocity":74,"Duration":67049,"SoundDuration":67049,"Delta":69779519},{"NoteNumber":47,"Velocity":56,"Duration":69721,"SoundDuration":69721,"Delta":69971090},{"NoteNumber":59,"Velocity":66,"Duration":69721,"SoundDuration":69721,"Delta":69971090},{"NoteNumber":69,"Velocity":52,"Duration":187969,"SoundDuration":187969,"Delta":70170293},{"NoteNumber":65,"Velocity":44,"Duration":187969,"SoundDuration":187969,"Delta":70170293},{"NoteNumber":62,"Velocity":44,"Duration":187969,"SoundDuration":187969,"Delta":70170293},{"NoteNumber":48,"Velocity":67,"Duration":65789,"SoundDuration":65789,"Delta":70170293},{"NoteNumber":60,"Velocity":79,"Duration":65789,"SoundDuration":65789,"Delta":70170293},{"NoteNumber":45,"Velocity":56,"Duration":65789,"SoundDuration":65789,"Delta":70358263},{"NoteNumber":57,"Velocity":66,"Duration":65789,"SoundDuration":65789,"Delta":70358263},{"NoteNumber":48,"Velocity":56,"Duration":373041,"SoundDuration":373041,"Delta":70546233},{"NoteNumber":60,"Velocity":66,"Duration":373041,"SoundDuration":373041,"Delta":70546233},{"NoteNumber":62,"Velocity":44,"Duration":185070,"SoundDuration":185070,"Delta":70734203},{"NoteNumber":67,"Velocity":52,"Duration":185070,"SoundDuration":185070,"Delta":70734203},{"NoteNumber":64,"Velocity":44,"Duration":185070,"SoundDuration":185070,"Delta":70734203},{"NoteNumber":47,"Velocity":62,"Duration":64774,"SoundDuration":64774,"Delta":70919274},{"NoteNumber":59,"Velocity":74,"Duration":64774,"SoundDuration":64774,"Delta":70919274},{"NoteNumber":43,"Velocity":56,"Duration":66624,"SoundDuration":66624,"Delta":71104345},{"NoteNumber":55,"Velocity":66,"Duration":66624,"SoundDuration":66624,"Delta":71104345},{"NoteNumber":67,"Velocity":52,"Duration":195950,"SoundDuration":195950,"Delta":71294701},{"NoteNumber":64,"Velocity":44,"Duration":195950,"SoundDuration":195950,"Delta":71294701},{"NoteNumber":60,"Velocity":44,"Duration":195950,"SoundDuration":195950,"Delta":71294701},{"NoteNumber":47,"Velocity":59,"Duration":97975,"SoundDuration":97975,"Delta":71294701},{"NoteNumber":59,"Velocity":70,"Duration":97975,"SoundDuration":97975,"Delta":71294701},{"NoteNumber":45,"Velocity":69,"Duration":374766,"SoundDuration":374766,"Delta":71678034},{"NoteNumber":57,"Velocity":82,"Duration":374766,"SoundDuration":374766,"Delta":71678034},{"NoteNumber":60,"Velocity":44,"Duration":187383,"SoundDuration":187383,"Delta":71865417},{"NoteNumber":65,"Velocity":52,"Duration":187383,"SoundDuration":187383,"Delta":71865417},{"NoteNumber":62,"Velocity":44,"Duration":187383,"SoundDuration":187383,"Delta":71865417},{"NoteNumber":41,"Velocity":62,"Duration":67049,"SoundDuration":67049,"Delta":72052800},{"NoteNumber":53,"Velocity":74,"Duration":67049,"SoundDuration":67049,"Delta":72052800},{"NoteNumber":43,"Velocity":56,"Duration":69721,"SoundDuration":69721,"Delta":72244371},{"NoteNumber":55,"Velocity":66,"Duration":69721,"SoundDuration":69721,"Delta":72244371},{"NoteNumber":65,"Velocity":52,"Duration":187969,"SoundDuration":187969,"Delta":72443574},{"NoteNumber":62,"Velocity":44,"Duration":187969,"SoundDuration":187969,"Delta":72443574},{"NoteNumber":59,"Velocity":44,"Duration":187969,"SoundDuration":187969,"Delta":72443574},{"NoteNumber":45,"Velocity":67,"Duration":65789,"SoundDuration":65789,"Delta":72443574},{"NoteNumber":57,"Velocity":79,"Duration":65789,"SoundDuration":65789,"Delta":72443574},{"NoteNumber":41,"Velocity":56,"Duration":65789,"SoundDuration":65789,"Delta":72631544},{"NoteNumber":53,"Velocity":66,"Duration":65789,"SoundDuration":65789,"Delta":72631544},{"NoteNumber":45,"Velocity":56,"Duration":373041,"SoundDuration":373041,"Delta":72819514},{"NoteNumber":57,"Velocity":66,"Duration":373041,"SoundDuration":373041,"Delta":72819514},{"NoteNumber":59,"Velocity":44,"Duration":185070,"SoundDuration":185070,"Delta":73007484},{"NoteNumber":64,"Velocity":52,"Duration":185070,"SoundDuration":185070,"Delta":73007484},{"NoteNumber":60,"Velocity":44,"Duration":185070,"SoundDuration":185070,"Delta":73007484},{"NoteNumber":43,"Velocity":62,"Duration":64774,"SoundDuration":64774,"Delta":73192555},{"NoteNumber":55,"Velocity":74,"Duration":64774,"SoundDuration":64774,"Delta":73192555},{"NoteNumber":40,"Velocity":56,"Duration":66624,"SoundDuration":66624,"Delta":73377626},{"NoteNumber":52,"Velocity":66,"Duration":66624,"SoundDuration":66624,"Delta":73377626},{"NoteNumber":64,"Velocity":52,"Duration":183936,"SoundDuration":183936,"Delta":73567982},{"NoteNumber":60,"Velocity":44,"Duration":183936,"SoundDuration":183936,"Delta":73567982},{"NoteNumber":57,"Velocity":44,"Duration":183936,"SoundDuration":183936,"Delta":73567982},{"NoteNumber":43,"Velocity":67,"Duration":64377,"SoundDuration":64377,"Delta":73567982},{"NoteNumber":55,"Velocity":79,"Duration":64377,"SoundDuration":64377,"Delta":73567982},{"NoteNumber":40,"Velocity":56,"Duration":65996,"SoundDuration":65996,"Delta":73751918},{"NoteNumber":52,"Velocity":66,"Duration":65996,"SoundDuration":65996,"Delta":73751918},{"NoteNumber":43,"Velocity":56,"Duration":373631,"SoundDuration":373631,"Delta":73940478},{"NoteNumber":55,"Velocity":66,"Duration":373631,"SoundDuration":373631,"Delta":73940478},{"NoteNumber":57,"Velocity":44,"Duration":185070,"SoundDuration":185070,"Delta":74129039},{"NoteNumber":62,"Velocity":52,"Duration":185070,"SoundDuration":185070,"Delta":74129039},{"NoteNumber":59,"Velocity":44,"Duration":185070,"SoundDuration":185070,"Delta":74129039},{"NoteNumber":41,"Velocity":62,"Duration":64774,"SoundDuration":64774,"Delta":74314110},{"NoteNumber":53,"Velocity":74,"Duration":64774,"SoundDuration":64774,"Delta":74314110},{"NoteNumber":38,"Velocity":56,"Duration":66624,"SoundDuration":66624,"Delta":74499181},{"NoteNumber":50,"Velocity":66,"Duration":66624,"SoundDuration":66624,"Delta":74499181},{"NoteNumber":62,"Velocity":52,"Duration":187970,"SoundDuration":187970,"Delta":74689536},{"NoteNumber":59,"Velocity":44,"Duration":187970,"SoundDuration":187970,"Delta":74689536},{"NoteNumber":55,"Velocity":44,"Duration":187970,"SoundDuration":187970,"Delta":74689536},{"NoteNumber":41,"Velocity":67,"Duration":65789,"SoundDuration":65789,"Delta":74689536},{"NoteNumber":53,"Velocity":79,"Duration":65789,"SoundDuration":65789,"Delta":74689536},{"NoteNumber":38,"Velocity":56,"Duration":65789,"SoundDuration":65789,"Delta":74877506},{"NoteNumber":50,"Velocity":66,"Duration":65789,"SoundDuration":65789,"Delta":74877506},{"NoteNumber":41,"Velocity":56,"Duration":373040,"SoundDuration":373040,"Delta":75065476},{"NoteNumber":53,"Velocity":66,"Duration":373040,"SoundDuration":373040,"Delta":75065476},{"NoteNumber":55,"Velocity":44,"Duration":185070,"SoundDuration":185070,"Delta":75253446},{"NoteNumber":60,"Velocity":52,"Duration":185070,"SoundDuration":185070,"Delta":75253446},{"NoteNumber":57,"Velocity":44,"Duration":185070,"SoundDuration":185070,"Delta":75253446},{"NoteNumber":40,"Velocity":62,"Duration":64774,"SoundDuration":64774,"Delta":75438517},{"NoteNumber":52,"Velocity":74,"Duration":64774,"SoundDuration":64774,"Delta":75438517},{"NoteNumber":36,"Velocity":56,"Duration":66624,"SoundDuration":66624,"Delta":75623588},{"NoteNumber":48,"Velocity":66,"Duration":66624,"SoundDuration":66624,"Delta":75623588},{"NoteNumber":64,"Velocity":52,"Duration":195950,"SoundDuration":195950,"Delta":75813944},{"NoteNumber":60,"Velocity":44,"Duration":195950,"SoundDuration":195950,"Delta":75813944},{"NoteNumber":57,"Velocity":44,"Duration":195950,"SoundDuration":195950,"Delta":75813944},{"NoteNumber":40,"Velocity":59,"Duration":97975,"SoundDuration":97975,"Delta":75813944},{"NoteNumber":52,"Velocity":70,"Duration":97975,"SoundDuration":97975,"Delta":75813944},{"NoteNumber":38,"Velocity":72,"Duration":383333,"SoundDuration":383333,"Delta":76197277},{"NoteNumber":50,"Velocity":85,"Duration":383333,"SoundDuration":383333,"Delta":76197277},{"NoteNumber":57,"Velocity":44,"Duration":195950,"SoundDuration":195950,"Delta":76384660},{"NoteNumber":62,"Velocity":52,"Duration":195950,"SoundDuration":195950,"Delta":76384660},{"NoteNumber":59,"Velocity":44,"Duration":195950,"SoundDuration":195950,"Delta":76384660},{"NoteNumber":48,"Velocity":68,"Duration":70187,"SoundDuration":70187,"Delta":76580611},{"NoteNumber":60,"Velocity":81,"Duration":70187,"SoundDuration":70187,"Delta":76580611},{"NoteNumber":49,"Velocity":61,"Duration":71623,"SoundDuration":71623,"Delta":76781146},{"NoteNumber":61,"Velocity":72,"Duration":71623,"SoundDuration":71623,"Delta":76781146},{"NoteNumber":60,"Velocity":73,"Duration":48512,"SoundDuration":48512,"Delta":76985784},{"NoteNumber":56,"Velocity":73,"Duration":48512,"SoundDuration":48512,"Delta":76985784},{"NoteNumber":51,"Velocity":73,"Duration":67917,"SoundDuration":67917,"Delta":76985784},{"NoteNumber":63,"Velocity":86,"Duration":67917,"SoundDuration":67917,"Delta":76985784},{"NoteNumber":32,"Velocity":49,"Duration":194049,"SoundDuration":194049,"Delta":76985784},{"NoteNumber":39,"Velocity":49,"Duration":194049,"SoundDuration":194049,"Delta":76985784},{"NoteNumber":44,"Velocity":62,"Duration":194049,"SoundDuration":194049,"Delta":76985784},{"NoteNumber":48,"Velocity":67,"Duration":65789,"SoundDuration":65789,"Delta":77179833},{"NoteNumber":60,"Velocity":79,"Duration":65789,"SoundDuration":65789,"Delta":77179833},{"NoteNumber":51,"Velocity":63,"Duration":373041,"SoundDuration":373041,"Delta":77367803},{"NoteNumber":63,"Velocity":76,"Duration":373041,"SoundDuration":373041,"Delta":77367803},{"NoteNumber":53,"Velocity":61,"Duration":185070,"SoundDuration":185070,"Delta":77555773},{"NoteNumber":56,"Velocity":61,"Duration":185070,"SoundDuration":185070,"Delta":77555773},{"NoteNumber":41,"Velocity":55,"Duration":185070,"SoundDuration":185070,"Delta":77555773},{"NoteNumber":32,"Velocity":44,"Duration":185070,"SoundDuration":185070,"Delta":77555773},{"NoteNumber":29,"Velocity":44,"Duration":185070,"SoundDuration":185070,"Delta":77555773},{"NoteNumber":49,"Velocity":68,"Duration":64774,"SoundDuration":64774,"Delta":77740844},{"NoteNumber":61,"Velocity":81,"Duration":64774,"SoundDuration":64774,"Delta":77740844},{"NoteNumber":48,"Velocity":61,"Duration":66624,"SoundDuration":66624,"Delta":77925915},{"NoteNumber":60,"Velocity":72,"Duration":66624,"SoundDuration":66624,"Delta":77925915},{"NoteNumber":60,"Velocity":64,"Duration":97975,"SoundDuration":97975,"Delta":78116271},{"NoteNumber":56,"Velocity":64,"Duration":97975,"SoundDuration":97975,"Delta":78116271},{"NoteNumber":51,"Velocity":64,"Duration":97975,"SoundDuration":97975,"Delta":78116271},{"NoteNumber":63,"Velocity":77,"Duration":97975,"SoundDuration":97975,"Delta":78116271},{"NoteNumber":32,"Velocity":49,"Duration":195950,"SoundDuration":195950,"Delta":78116271},{"NoteNumber":39,"Velocity":49,"Duration":195950,"SoundDuration":195950,"Delta":78116271},{"NoteNumber":44,"Velocity":62,"Duration":195950,"SoundDuration":195950,"Delta":78116271},{"NoteNumber":51,"Velocity":79,"Duration":374766,"SoundDuration":374766,"Delta":78499604},{"NoteNumber":63,"Velocity":93,"Duration":374766,"SoundDuration":374766,"Delta":78499604},{"NoteNumber":53,"Velocity":61,"Duration":187383,"SoundDuration":187383,"Delta":78686987},{"NoteNumber":56,"Velocity":61,"Duration":187383,"SoundDuration":187383,"Delta":78686987},{"NoteNumber":41,"Velocity":57,"Duration":187383,"SoundDuration":187383,"Delta":78686987},{"NoteNumber":32,"Velocity":45,"Duration":187383,"SoundDuration":187383,"Delta":78686987},{"NoteNumber":29,"Velocity":45,"Duration":187383,"SoundDuration":187383,"Delta":78686987},{"NoteNumber":48,"Velocity":68,"Duration":67264,"SoundDuration":67264,"Delta":78874370},{"NoteNumber":60,"Velocity":81,"Duration":67264,"SoundDuration":67264,"Delta":78874370},{"NoteNumber":49,"Velocity":61,"Duration":69033,"SoundDuration":69033,"Delta":79066555},{"NoteNumber":61,"Velocity":72,"Duration":69033,"SoundDuration":69033,"Delta":79066555},{"NoteNumber":60,"Velocity":73,"Duration":48512,"SoundDuration":48512,"Delta":79263793},{"NoteNumber":56,"Velocity":73,"Duration":48512,"SoundDuration":48512,"Delta":79263793},{"NoteNumber":51,"Velocity":73,"Duration":67917,"SoundDuration":67917,"Delta":79263793},{"NoteNumber":63,"Velocity":86,"Duration":67917,"SoundDuration":67917,"Delta":79263793},{"NoteNumber":32,"Velocity":49,"Duration":194049,"SoundDuration":194049,"Delta":79263793},{"NoteNumber":39,"Velocity":49,"Duration":194049,"SoundDuration":194049,"Delta":79263793},{"NoteNumber":44,"Velocity":62,"Duration":194049,"SoundDuration":194049,"Delta":79263793},{"NoteNumber":48,"Velocity":67,"Duration":65789,"SoundDuration":65789,"Delta":79457842},{"NoteNumber":60,"Velocity":79,"Duration":65789,"SoundDuration":65789,"Delta":79457842},{"NoteNumber":51,"Velocity":63,"Duration":373041,"SoundDuration":373041,"Delta":79645812},{"NoteNumber":63,"Velocity":76,"Duration":373041,"SoundDuration":373041,"Delta":79645812},{"NoteNumber":53,"Velocity":61,"Duration":185070,"SoundDuration":185070,"Delta":79833782},{"NoteNumber":56,"Velocity":61,"Duration":185070,"SoundDuration":185070,"Delta":79833782},{"NoteNumber":41,"Velocity":55,"Duration":185070,"SoundDuration":185070,"Delta":79833782},{"NoteNumber":32,"Velocity":44,"Duration":185070,"SoundDuration":185070,"Delta":79833782},{"NoteNumber":29,"Velocity":44,"Duration":185070,"SoundDuration":185070,"Delta":79833782},{"NoteNumber":49,"Velocity":68,"Duration":64774,"SoundDuration":64774,"Delta":80018853},{"NoteNumber":61,"Velocity":81,"Duration":64774,"SoundDuration":64774,"Delta":80018853},{"NoteNumber":48,"Velocity":61,"Duration":66624,"SoundDuration":66624,"Delta":80203924},{"NoteNumber":60,"Velocity":72,"Duration":66624,"SoundDuration":66624,"Delta":80203924},{"NoteNumber":60,"Velocity":64,"Duration":97975,"SoundDuration":97975,"Delta":80394280},{"NoteNumber":56,"Velocity":64,"Duration":97975,"SoundDuration":97975,"Delta":80394280},{"NoteNumber":51,"Velocity":64,"Duration":97975,"SoundDuration":97975,"Delta":80394280},{"NoteNumber":63,"Velocity":77,"Duration":97975,"SoundDuration":97975,"Delta":80394280},{"NoteNumber":32,"Velocity":49,"Duration":195950,"SoundDuration":195950,"Delta":80394280},{"NoteNumber":39,"Velocity":49,"Duration":195950,"SoundDuration":195950,"Delta":80394280},{"NoteNumber":44,"Velocity":62,"Duration":195950,"SoundDuration":195950,"Delta":80394280},{"NoteNumber":51,"Velocity":79,"Duration":380806,"SoundDuration":380806,"Delta":80777613},{"NoteNumber":63,"Velocity":93,"Duration":380806,"SoundDuration":380806,"Delta":80777613},{"NoteNumber":53,"Velocity":61,"Duration":193423,"SoundDuration":193423,"Delta":80964996},{"NoteNumber":56,"Velocity":61,"Duration":193423,"SoundDuration":193423,"Delta":80964996},{"NoteNumber":41,"Velocity":57,"Duration":193423,"SoundDuration":193423,"Delta":80964996},{"NoteNumber":32,"Velocity":45,"Duration":193423,"SoundDuration":193423,"Delta":80964996},{"NoteNumber":29,"Velocity":45,"Duration":193423,"SoundDuration":193423,"Delta":80964996},{"NoteNumber":48,"Velocity":74,"Duration":70187,"SoundDuration":70187,"Delta":81158420},{"NoteNumber":60,"Velocity":89,"Duration":70187,"SoundDuration":70187,"Delta":81158420},{"NoteNumber":50,"Velocity":67,"Duration":74415,"SoundDuration":74415,"Delta":81358955},{"NoteNumber":62,"Velocity":79,"Duration":74415,"SoundDuration":74415,"Delta":81358955},{"NoteNumber":60,"Velocity":80,"Duration":48512,"SoundDuration":48512,"Delta":81571570},{"NoteNumber":55,"Velocity":68,"Duration":48512,"SoundDuration":48512,"Delta":81571570},{"NoteNumber":52,"Velocity":68,"Duration":67917,"SoundDuration":67917,"Delta":81571570},{"NoteNumber":64,"Velocity":94,"Duration":67917,"SoundDuration":67917,"Delta":81571570},{"NoteNumber":36,"Velocity":53,"Duration":194049,"SoundDuration":194049,"Delta":81571570},{"NoteNumber":43,"Velocity":53,"Duration":194049,"SoundDuration":194049,"Delta":81571570},{"NoteNumber":48,"Velocity":68,"Duration":194049,"SoundDuration":194049,"Delta":81571570},{"NoteNumber":48,"Velocity":73,"Duration":65789,"SoundDuration":65789,"Delta":81765619},{"NoteNumber":60,"Velocity":86,"Duration":65789,"SoundDuration":65789,"Delta":81765619},{"NoteNumber":52,"Velocity":69,"Duration":373041,"SoundDuration":373041,"Delta":81953589},{"NoteNumber":64,"Velocity":83,"Duration":373041,"SoundDuration":373041,"Delta":81953589},{"NoteNumber":53,"Velocity":67,"Duration":185070,"SoundDuration":185070,"Delta":82141559},{"NoteNumber":57,"Velocity":67,"Duration":185070,"SoundDuration":185070,"Delta":82141559},{"NoteNumber":41,"Velocity":60,"Duration":185070,"SoundDuration":185070,"Delta":82141559},{"NoteNumber":36,"Velocity":48,"Duration":185070,"SoundDuration":185070,"Delta":82141559},{"NoteNumber":29,"Velocity":48,"Duration":185070,"SoundDuration":185070,"Delta":82141559},{"NoteNumber":50,"Velocity":74,"Duration":64774,"SoundDuration":64774,"Delta":82326630},{"NoteNumber":62,"Velocity":89,"Duration":64774,"SoundDuration":64774,"Delta":82326630},{"NoteNumber":48,"Velocity":67,"Duration":66624,"SoundDuration":66624,"Delta":82511701},{"NoteNumber":60,"Velocity":79,"Duration":66624,"SoundDuration":66624,"Delta":82511701},{"NoteNumber":60,"Velocity":70,"Duration":101282,"SoundDuration":101282,"Delta":82702056},{"NoteNumber":55,"Velocity":70,"Duration":101282,"SoundDuration":101282,"Delta":82702056},{"NoteNumber":52,"Velocity":70,"Duration":101282,"SoundDuration":101282,"Delta":82702056},{"NoteNumber":64,"Velocity":84,"Duration":101282,"SoundDuration":101282,"Delta":82702056},{"NoteNumber":36,"Velocity":53,"Duration":202566,"SoundDuration":202566,"Delta":82702056},{"NoteNumber":43,"Velocity":53,"Duration":202566,"SoundDuration":202566,"Delta":82702056},{"NoteNumber":48,"Velocity":68,"Duration":202566,"SoundDuration":202566,"Delta":82702056},{"NoteNumber":52,"Velocity":83,"Duration":374766,"SoundDuration":374766,"Delta":83092005},{"NoteNumber":64,"Velocity":98,"Duration":374766,"SoundDuration":374766,"Delta":83092005},{"NoteNumber":53,"Velocity":67,"Duration":187383,"SoundDuration":187383,"Delta":83279388},{"NoteNumber":57,"Velocity":67,"Duration":187383,"SoundDuration":187383,"Delta":83279388},{"NoteNumber":41,"Velocity":62,"Duration":187383,"SoundDuration":187383,"Delta":83279388},{"NoteNumber":36,"Velocity":49,"Duration":187383,"SoundDuration":187383,"Delta":83279388},{"NoteNumber":29,"Velocity":49,"Duration":187383,"SoundDuration":187383,"Delta":83279388},{"NoteNumber":48,"Velocity":74,"Duration":67264,"SoundDuration":67264,"Delta":83466771},{"NoteNumber":60,"Velocity":89,"Duration":67264,"SoundDuration":67264,"Delta":83466771},{"NoteNumber":50,"Velocity":67,"Duration":69033,"SoundDuration":69033,"Delta":83658956},{"NoteNumber":62,"Velocity":79,"Duration":69033,"SoundDuration":69033,"Delta":83658956},{"NoteNumber":60,"Velocity":80,"Duration":48512,"SoundDuration":48512,"Delta":83856194},{"NoteNumber":55,"Velocity":80,"Duration":48512,"SoundDuration":48512,"Delta":83856194},{"NoteNumber":52,"Velocity":80,"Duration":67917,"SoundDuration":67917,"Delta":83856194},{"NoteNumber":64,"Velocity":94,"Duration":67917,"SoundDuration":67917,"Delta":83856194},{"NoteNumber":36,"Velocity":53,"Duration":194049,"SoundDuration":194049,"Delta":83856194},{"NoteNumber":43,"Velocity":53,"Duration":194049,"SoundDuration":194049,"Delta":83856194},{"NoteNumber":48,"Velocity":68,"Duration":194049,"SoundDuration":194049,"Delta":83856194},{"NoteNumber":48,"Velocity":73,"Duration":65789,"SoundDuration":65789,"Delta":84050243},{"NoteNumber":60,"Velocity":86,"Duration":65789,"SoundDuration":65789,"Delta":84050243},{"NoteNumber":52,"Velocity":69,"Duration":373041,"SoundDuration":373041,"Delta":84238213},{"NoteNumber":64,"Velocity":83,"Duration":373041,"SoundDuration":373041,"Delta":84238213},{"NoteNumber":53,"Velocity":67,"Duration":185070,"SoundDuration":185070,"Delta":84426183},{"NoteNumber":57,"Velocity":67,"Duration":185070,"SoundDuration":185070,"Delta":84426183},{"NoteNumber":41,"Velocity":60,"Duration":185070,"SoundDuration":185070,"Delta":84426183},{"NoteNumber":36,"Velocity":48,"Duration":185070,"SoundDuration":185070,"Delta":84426183},{"NoteNumber":29,"Velocity":48,"Duration":185070,"SoundDuration":185070,"Delta":84426183},{"NoteNumber":50,"Velocity":74,"Duration":64774,"SoundDuration":64774,"Delta":84611254},{"NoteNumber":62,"Velocity":89,"Duration":64774,"SoundDuration":64774,"Delta":84611254},{"NoteNumber":48,"Velocity":67,"Duration":66624,"SoundDuration":66624,"Delta":84796325},{"NoteNumber":60,"Velocity":79,"Duration":66624,"SoundDuration":66624,"Delta":84796325},{"NoteNumber":60,"Velocity":70,"Duration":101625,"SoundDuration":101625,"Delta":84986681},{"NoteNumber":55,"Velocity":70,"Duration":101625,"SoundDuration":101625,"Delta":84986681},{"NoteNumber":52,"Velocity":70,"Duration":101625,"SoundDuration":101625,"Delta":84986681},{"NoteNumber":64,"Velocity":84,"Duration":101625,"SoundDuration":101625,"Delta":84986681},{"NoteNumber":36,"Velocity":53,"Duration":203252,"SoundDuration":203252,"Delta":84986681},{"NoteNumber":43,"Velocity":53,"Duration":203252,"SoundDuration":203252,"Delta":84986681},{"NoteNumber":48,"Velocity":68,"Duration":203252,"SoundDuration":203252,"Delta":84986681},{"NoteNumber":52,"Velocity":83,"Duration":374766,"SoundDuration":374766,"Delta":85377316},{"NoteNumber":64,"Velocity":98,"Duration":374766,"SoundDuration":374766,"Delta":85377316},{"NoteNumber":53,"Velocity":67,"Duration":187383,"SoundDuration":187383,"Delta":85564699},{"NoteNumber":57,"Velocity":67,"Duration":187383,"SoundDuration":187383,"Delta":85564699},{"NoteNumber":41,"Velocity":62,"Duration":187383,"SoundDuration":187383,"Delta":85564699},{"NoteNumber":36,"Velocity":49,"Duration":187383,"SoundDuration":187383,"Delta":85564699},{"NoteNumber":29,"Velocity":49,"Duration":187383,"SoundDuration":187383,"Delta":85564699},{"NoteNumber":48,"Velocity":70,"Duration":46845,"SoundDuration":46845,"Delta":85752082},{"NoteNumber":60,"Velocity":70,"Duration":46845,"SoundDuration":46845,"Delta":85757547},{"NoteNumber":50,"Velocity":70,"Duration":50813,"SoundDuration":50813,"Delta":85939465},{"NoteNumber":62,"Velocity":70,"Duration":50813,"SoundDuration":50813,"Delta":85939465},{"NoteNumber":36,"Velocity":45,"Duration":203252,"SoundDuration":203252,"Delta":86142717},{"NoteNumber":43,"Velocity":45,"Duration":203252,"SoundDuration":203252,"Delta":86142717},{"NoteNumber":48,"Velocity":57,"Duration":203252,"SoundDuration":203252,"Delta":86142717},{"NoteNumber":41,"Velocity":52,"Duration":185070,"SoundDuration":185070,"Delta":86721322},{"NoteNumber":36,"Velocity":41,"Duration":185070,"SoundDuration":185070,"Delta":86721322},{"NoteNumber":29,"Velocity":41,"Duration":185070,"SoundDuration":185070,"Delta":86721322},{"NoteNumber":36,"Velocity":37,"Duration":203252,"SoundDuration":203252,"Delta":87281819},{"NoteNumber":43,"Velocity":37,"Duration":203252,"SoundDuration":203252,"Delta":87281819},{"NoteNumber":48,"Velocity":47,"Duration":203252,"SoundDuration":203252,"Delta":87281819},{"NoteNumber":52,"Velocity":58,"Duration":373041,"SoundDuration":373041,"Delta":87672454},{"NoteNumber":41,"Velocity":43,"Duration":185070,"SoundDuration":185070,"Delta":87860424},{"NoteNumber":36,"Velocity":34,"Duration":185070,"SoundDuration":185070,"Delta":87860424},{"NoteNumber":29,"Velocity":34,"Duration":185070,"SoundDuration":185070,"Delta":87860424},{"NoteNumber":48,"Velocity":62,"Duration":67049,"SoundDuration":67049,"Delta":88045495},{"NoteNumber":50,"Velocity":55,"Duration":69953,"SoundDuration":69953,"Delta":88237066},{"NoteNumber":36,"Velocity":26,"Duration":210378,"SoundDuration":210378,"Delta":88436933},{"NoteNumber":43,"Velocity":26,"Duration":210378,"SoundDuration":210378,"Delta":88436933},{"NoteNumber":48,"Velocity":34,"Duration":210378,"SoundDuration":210378,"Delta":88436933},{"NoteNumber":41,"Velocity":31,"Duration":204638,"SoundDuration":204638,"Delta":89056589},{"NoteNumber":36,"Velocity":24,"Duration":204638,"SoundDuration":204638,"Delta":89056589},{"NoteNumber":29,"Velocity":24,"Duration":204638,"SoundDuration":204638,"Delta":89056589},{"NoteNumber":36,"Velocity":40,"Duration":2259508,"SoundDuration":2259508,"Delta":89670504},{"NoteNumber":48,"Velocity":35,"Duration":574713,"SoundDuration":574713,"Delta":89670504},{"NoteNumber":47,"Velocity":32,"Duration":562149,"SoundDuration":562149,"Delta":90245217},{"NoteNumber":60,"Velocity":40,"Duration":187382,"SoundDuration":187382,"Delta":90432600},{"NoteNumber":62,"Velocity":37,"Duration":187383,"SoundDuration":187383,"Delta":90619983},{"NoteNumber":53,"Velocity":34,"Duration":562148,"SoundDuration":562148,"Delta":90807366},{"NoteNumber":64,"Velocity":45,"Duration":187382,"SoundDuration":187382,"Delta":90807366},{"NoteNumber":45,"Velocity":33,"Duration":562148,"SoundDuration":562148,"Delta":90807366},{"NoteNumber":60,"Velocity":38,"Duration":187382,"SoundDuration":187382,"Delta":90994749},{"NoteNumber":64,"Velocity":38,"Duration":279918,"SoundDuration":279918,"Delta":91182132},{"NoteNumber":55,"Velocity":34,"Duration":560497,"SoundDuration":560497,"Delta":91369515},{"NoteNumber":47,"Velocity":27,"Duration":560497,"SoundDuration":560497,"Delta":91369515},{"NoteNumber":62,"Velocity":34,"Duration":46267,"SoundDuration":46267,"Delta":91462051},{"NoteNumber":64,"Velocity":34,"Duration":46267,"SoundDuration":46267,"Delta":91508318},{"NoteNumber":62,"Velocity":43,"Duration":185071,"SoundDuration":185071,"Delta":91554586},{"NoteNumber":59,"Velocity":42,"Duration":190355,"SoundDuration":190355,"Delta":91739657},{"NoteNumber":60,"Velocity":47,"Duration":97975,"SoundDuration":97975,"Delta":91930013},{"NoteNumber":36,"Velocity":40,"Duration":2255511,"SoundDuration":2255511,"Delta":91930013},{"NoteNumber":48,"Velocity":31,"Duration":570716,"SoundDuration":570716,"Delta":91930013},{"NoteNumber":60,"Velocity":49,"Duration":327920,"SoundDuration":327920,"Delta":92313346},{"NoteNumber":47,"Velocity":27,"Duration":562149,"SoundDuration":562149,"Delta":92500729},{"NoteNumber":60,"Velocity":40,"Duration":187382,"SoundDuration":187382,"Delta":92688112},{"NoteNumber":62,"Velocity":37,"Duration":187382,"SoundDuration":187382,"Delta":92875495},{"NoteNumber":53,"Velocity":34,"Duration":562149,"SoundDuration":562149,"Delta":93062878},{"NoteNumber":64,"Velocity":45,"Duration":187383,"SoundDuration":187383,"Delta":93062878},{"NoteNumber":45,"Velocity":33,"Duration":562149,"SoundDuration":562149,"Delta":93062878},{"NoteNumber":60,"Velocity":38,"Duration":187382,"SoundDuration":187382,"Delta":93250261},{"NoteNumber":64,"Velocity":38,"Duration":279918,"SoundDuration":279918,"Delta":93437644},{"NoteNumber":55,"Velocity":34,"Duration":560497,"SoundDuration":560497,"Delta":93625027},{"NoteNumber":47,"Velocity":27,"Duration":560497,"SoundDuration":560497,"Delta":93625027},{"NoteNumber":62,"Velocity":34,"Duration":46267,"SoundDuration":46267,"Delta":93717563},{"NoteNumber":64,"Velocity":34,"Duration":46267,"SoundDuration":46267,"Delta":93763830},{"NoteNumber":62,"Velocity":43,"Duration":185071,"SoundDuration":185071,"Delta":93810098},{"NoteNumber":59,"Velocity":42,"Duration":190355,"SoundDuration":190355,"Delta":93995169},{"NoteNumber":60,"Velocity":47,"Duration":97975,"SoundDuration":97975,"Delta":94185525},{"NoteNumber":36,"Velocity":40,"Duration":758099,"SoundDuration":758099,"Delta":94185525},{"NoteNumber":48,"Velocity":31,"Duration":758099,"SoundDuration":758099,"Delta":94185525},{"NoteNumber":60,"Velocity":49,"Duration":374766,"SoundDuration":374766,"Delta":94568858},{"NoteNumber":62,"Velocity":79,"Duration":93691,"SoundDuration":93691,"Delta":94943624},{"NoteNumber":64,"Velocity":73,"Duration":93691,"SoundDuration":93691,"Delta":95131007},{"NoteNumber":68,"Velocity":73,"Duration":558757,"SoundDuration":558757,"Delta":95318390},{"NoteNumber":71,"Velocity":75,"Duration":558757,"SoundDuration":558757,"Delta":95318390},{"NoteNumber":65,"Velocity":89,"Duration":92251,"SoundDuration":92251,"Delta":95318390},{"NoteNumber":62,"Velocity":74,"Duration":92251,"SoundDuration":92251,"Delta":95502892},{"NoteNumber":65,"Velocity":74,"Duration":282288,"SoundDuration":282288,"Delta":95687394},{"NoteNumber":69,"Velocity":62,"Duration":560497,"SoundDuration":560497,"Delta":95877148},{"NoteNumber":72,"Velocity":75,"Duration":560497,"SoundDuration":560497,"Delta":95877148},{"NoteNumber":64,"Velocity":67,"Duration":46267,"SoundDuration":46267,"Delta":95969683},{"NoteNumber":65,"Velocity":67,"Duration":46267,"SoundDuration":46267,"Delta":96015951},{"NoteNumber":64,"Velocity":84,"Duration":92535,"SoundDuration":92535,"Delta":96062219},{"NoteNumber":63,"Velocity":74,"Duration":95177,"SoundDuration":95177,"Delta":96247290},{"NoteNumber":68,"Velocity":72,"Duration":97975,"SoundDuration":97975,"Delta":96437645},{"NoteNumber":71,"Velocity":75,"Duration":97975,"SoundDuration":97975,"Delta":96437645},{"NoteNumber":64,"Velocity":74,"Duration":581654,"SoundDuration":581654,"Delta":96437645},{"NoteNumber":68,"Velocity":48,"Duration":379507,"SoundDuration":379507,"Delta":96829546},{"NoteNumber":71,"Velocity":75,"Duration":379507,"SoundDuration":379507,"Delta":96829546},{"NoteNumber":59,"Velocity":54,"Duration":189753,"SoundDuration":189753,"Delta":97019300},{"NoteNumber":52,"Velocity":50,"Duration":189753,"SoundDuration":189753,"Delta":97019300},{"NoteNumber":71,"Velocity":40,"Duration":187382,"SoundDuration":187382,"Delta":97209053},{"NoteNumber":73,"Velocity":37,"Duration":187382,"SoundDuration":187382,"Delta":97396436},{"NoteNumber":64,"Velocity":34,"Duration":562149,"SoundDuration":562149,"Delta":97583819},{"NoteNumber":75,"Velocity":45,"Duration":187383,"SoundDuration":187383,"Delta":97583819},{"NoteNumber":47,"Velocity":28,"Duration":1122646,"SoundDuration":1122646,"Delta":97583819},{"NoteNumber":56,"Velocity":33,"Duration":562149,"SoundDuration":562149,"Delta":97583819},{"NoteNumber":71,"Velocity":38,"Duration":187382,"SoundDuration":187382,"Delta":97771202},{"NoteNumber":75,"Velocity":38,"Duration":279918,"SoundDuration":279918,"Delta":97958585},{"NoteNumber":63,"Velocity":34,"Duration":560497,"SoundDuration":560497,"Delta":98145968},{"NoteNumber":57,"Velocity":27,"Duration":560497,"SoundDuration":560497,"Delta":98145968},{"NoteNumber":73,"Velocity":34,"Duration":46267,"SoundDuration":46267,"Delta":98238504},{"NoteNumber":75,"Velocity":34,"Duration":46267,"SoundDuration":46267,"Delta":98284771},{"NoteNumber":73,"Velocity":43,"Duration":185071,"SoundDuration":185071,"Delta":98331039},{"NoteNumber":69,"Velocity":38,"Duration":190355,"SoundDuration":190355,"Delta":98516110},{"NoteNumber":64,"Velocity":27,"Duration":97975,"SoundDuration":97975,"Delta":98706466},{"NoteNumber":68,"Velocity":27,"Duration":97975,"SoundDuration":97975,"Delta":98706466},{"NoteNumber":71,"Velocity":34,"Duration":97975,"SoundDuration":97975,"Delta":98706466},{"NoteNumber":52,"Velocity":22,"Duration":570716,"SoundDuration":570716,"Delta":98706466},{"NoteNumber":59,"Velocity":26,"Duration":570716,"SoundDuration":570716,"Delta":98706466},{"NoteNumber":64,"Velocity":33,"Duration":374766,"SoundDuration":374766,"Delta":99089799},{"NoteNumber":68,"Velocity":33,"Duration":374766,"SoundDuration":374766,"Delta":99089799},{"NoteNumber":71,"Velocity":41,"Duration":374766,"SoundDuration":374766,"Delta":99089799},{"NoteNumber":40,"Velocity":22,"Duration":187383,"SoundDuration":187383,"Delta":99277182},{"NoteNumber":47,"Velocity":26,"Duration":187383,"SoundDuration":187383,"Delta":99277182},{"NoteNumber":65,"Velocity":79,"Duration":92821,"SoundDuration":92821,"Delta":99464565},{"NoteNumber":67,"Velocity":73,"Duration":91407,"SoundDuration":91407,"Delta":99650209},{"NoteNumber":71,"Velocity":73,"Duration":561806,"SoundDuration":561806,"Delta":99833024},{"NoteNumber":74,"Velocity":75,"Duration":561806,"SoundDuration":561806,"Delta":99833024},{"NoteNumber":68,"Velocity":89,"Duration":92251,"SoundDuration":92251,"Delta":99833024},{"NoteNumber":65,"Velocity":74,"Duration":92251,"SoundDuration":92251,"Delta":100017526},{"NoteNumber":68,"Velocity":74,"Duration":285337,"SoundDuration":285337,"Delta":100202028},{"NoteNumber":72,"Velocity":62,"Duration":560497,"SoundDuration":560497,"Delta":100394830},{"NoteNumber":75,"Velocity":75,"Duration":560497,"SoundDuration":560497,"Delta":100394830},{"NoteNumber":67,"Velocity":67,"Duration":46267,"SoundDuration":46267,"Delta":100487366},{"NoteNumber":68,"Velocity":67,"Duration":46267,"SoundDuration":46267,"Delta":100533633},{"NoteNumber":67,"Velocity":84,"Duration":92535,"SoundDuration":92535,"Delta":100579901},{"NoteNumber":66,"Velocity":74,"Duration":95177,"SoundDuration":95177,"Delta":100764972},{"NoteNumber":71,"Velocity":72,"Duration":97975,"SoundDuration":97975,"Delta":100955328},{"NoteNumber":74,"Velocity":75,"Duration":97975,"SoundDuration":97975,"Delta":100955328},{"NoteNumber":67,"Velocity":74,"Duration":581654,"SoundDuration":581654,"Delta":100955328},{"NoteNumber":71,"Velocity":48,"Duration":379507,"SoundDuration":379507,"Delta":101347229},{"NoteNumber":74,"Velocity":75,"Duration":379507,"SoundDuration":379507,"Delta":101347229},{"NoteNumber":62,"Velocity":54,"Duration":189753,"SoundDuration":189753,"Delta":101536982},{"NoteNumber":55,"Velocity":50,"Duration":189753,"SoundDuration":189753,"Delta":101536982},{"NoteNumber":74,"Velocity":40,"Duration":187382,"SoundDuration":187382,"Delta":101726736},{"NoteNumber":76,"Velocity":37,"Duration":187382,"SoundDuration":187382,"Delta":101914119},{"NoteNumber":67,"Velocity":34,"Duration":562149,"SoundDuration":562149,"Delta":102101502},{"NoteNumber":78,"Velocity":45,"Duration":187383,"SoundDuration":187383,"Delta":102101502},{"NoteNumber":50,"Velocity":28,"Duration":1122646,"SoundDuration":1122646,"Delta":102101502},{"NoteNumber":59,"Velocity":33,"Duration":562149,"SoundDuration":562149,"Delta":102101502},{"NoteNumber":74,"Velocity":38,"Duration":187382,"SoundDuration":187382,"Delta":102288885},{"NoteNumber":78,"Velocity":38,"Duration":279918,"SoundDuration":279918,"Delta":102476268},{"NoteNumber":66,"Velocity":34,"Duration":560497,"SoundDuration":560497,"Delta":102663651},{"NoteNumber":60,"Velocity":27,"Duration":560497,"SoundDuration":560497,"Delta":102663651},{"NoteNumber":76,"Velocity":34,"Duration":46267,"SoundDuration":46267,"Delta":102756186},{"NoteNumber":78,"Velocity":34,"Duration":46267,"SoundDuration":46267,"Delta":102802454},{"NoteNumber":76,"Velocity":43,"Duration":185071,"SoundDuration":185071,"Delta":102848722},{"NoteNumber":72,"Velocity":38,"Duration":190355,"SoundDuration":190355,"Delta":103033793},{"NoteNumber":67,"Velocity":27,"Duration":97975,"SoundDuration":97975,"Delta":103224148},{"NoteNumber":71,"Velocity":27,"Duration":97975,"SoundDuration":97975,"Delta":103224148},{"NoteNumber":74,"Velocity":34,"Duration":97975,"SoundDuration":97975,"Delta":103224148},{"NoteNumber":55,"Velocity":22,"Duration":570716,"SoundDuration":570716,"Delta":103224148},{"NoteNumber":62,"Velocity":26,"Duration":570716,"SoundDuration":570716,"Delta":103224148},{"NoteNumber":67,"Velocity":33,"Duration":380184,"SoundDuration":380184,"Delta":103607482},{"NoteNumber":71,"Velocity":33,"Duration":380184,"SoundDuration":380184,"Delta":103607482},{"NoteNumber":74,"Velocity":41,"Duration":380184,"SoundDuration":380184,"Delta":103607482},{"NoteNumber":43,"Velocity":22,"Duration":373961,"SoundDuration":373961,"Delta":103794865},{"NoteNumber":50,"Velocity":26,"Duration":373961,"SoundDuration":373961,"Delta":103794865},{"NoteNumber":74,"Velocity":43,"Duration":90579,"SoundDuration":90579,"Delta":103987667},{"NoteNumber":76,"Velocity":43,"Duration":90579,"SoundDuration":90579,"Delta":104078246},{"NoteNumber":69,"Velocity":30,"Duration":189819,"SoundDuration":189819,"Delta":104168826},{"NoteNumber":72,"Velocity":30,"Duration":189819,"SoundDuration":189819,"Delta":104168826},{"NoteNumber":78,"Velocity":38,"Duration":189819,"SoundDuration":189819,"Delta":104168826},{"NoteNumber":67,"Velocity":27,"Duration":97975,"SoundDuration":97975,"Delta":104369749},{"NoteNumber":71,"Velocity":27,"Duration":97975,"SoundDuration":97975,"Delta":104369749},{"NoteNumber":74,"Velocity":34,"Duration":97975,"SoundDuration":97975,"Delta":104369749},{"NoteNumber":55,"Velocity":22,"Duration":570716,"SoundDuration":570716,"Delta":104369749},{"NoteNumber":62,"Velocity":26,"Duration":570716,"SoundDuration":570716,"Delta":104369749},{"NoteNumber":74,"Velocity":41,"Duration":374766,"SoundDuration":374766,"Delta":104742152},{"NoteNumber":67,"Velocity":33,"Duration":374766,"SoundDuration":374766,"Delta":104742152},{"NoteNumber":71,"Velocity":33,"Duration":374766,"SoundDuration":374766,"Delta":104742152},{"NoteNumber":43,"Velocity":22,"Duration":368179,"SoundDuration":368179,"Delta":104940466},{"NoteNumber":50,"Velocity":26,"Duration":368179,"SoundDuration":368179,"Delta":104940466},{"NoteNumber":74,"Velocity":43,"Duration":90579,"SoundDuration":90579,"Delta":105116918},{"NoteNumber":76,"Velocity":43,"Duration":90579,"SoundDuration":90579,"Delta":105207498},{"NoteNumber":69,"Velocity":30,"Duration":189819,"SoundDuration":189819,"Delta":105298078},{"NoteNumber":72,"Velocity":30,"Duration":189819,"SoundDuration":189819,"Delta":105298078},{"NoteNumber":77,"Velocity":38,"Duration":189819,"SoundDuration":189819,"Delta":105298078},{"NoteNumber":55,"Velocity":22,"Duration":371548,"SoundDuration":371548,"Delta":105499036},{"NoteNumber":62,"Velocity":26,"Duration":371548,"SoundDuration":371548,"Delta":105499036},{"NoteNumber":74,"Velocity":43,"Duration":90579,"SoundDuration":90579,"Delta":105678858},{"NoteNumber":76,"Velocity":43,"Duration":90579,"SoundDuration":90579,"Delta":105769437},{"NoteNumber":69,"Velocity":30,"Duration":94641,"SoundDuration":94641,"Delta":105860017},{"NoteNumber":72,"Velocity":30,"Duration":94641,"SoundDuration":94641,"Delta":105860017},{"NoteNumber":78,"Velocity":38,"Duration":94641,"SoundDuration":94641,"Delta":105860017},{"NoteNumber":43,"Velocity":22,"Duration":370978,"SoundDuration":370978,"Delta":106060940},{"NoteNumber":50,"Velocity":26,"Duration":370978,"SoundDuration":370978,"Delta":106060940},{"NoteNumber":74,"Velocity":43,"Duration":90579,"SoundDuration":90579,"Delta":106240192},{"NoteNumber":76,"Velocity":43,"Duration":90579,"SoundDuration":90579,"Delta":106330772},{"NoteNumber":69,"Velocity":30,"Duration":94641,"SoundDuration":94641,"Delta":106421351},{"NoteNumber":72,"Velocity":30,"Duration":94641,"SoundDuration":94641,"Delta":106421351},{"NoteNumber":77,"Velocity":38,"Duration":94641,"SoundDuration":94641,"Delta":106421351},{"NoteNumber":55,"Velocity":22,"Duration":371776,"SoundDuration":371776,"Delta":106622310},{"NoteNumber":62,"Velocity":26,"Duration":371776,"SoundDuration":371776,"Delta":106622310},{"NoteNumber":74,"Velocity":43,"Duration":90579,"SoundDuration":90579,"Delta":106802131},{"NoteNumber":76,"Velocity":43,"Duration":90579,"SoundDuration":90579,"Delta":106892711},{"NoteNumber":69,"Velocity":30,"Duration":92535,"SoundDuration":92535,"Delta":106983291},{"NoteNumber":72,"Velocity":30,"Duration":92535,"SoundDuration":92535,"Delta":106983291},{"NoteNumber":78,"Velocity":38,"Duration":92535,"SoundDuration":92535,"Delta":106983291},{"NoteNumber":43,"Velocity":22,"Duration":366002,"SoundDuration":366002,"Delta":107179158},{"NoteNumber":50,"Velocity":26,"Duration":366002,"SoundDuration":366002,"Delta":107179158},{"NoteNumber":74,"Velocity":43,"Duration":90579,"SoundDuration":90579,"Delta":107353433},{"NoteNumber":76,"Velocity":43,"Duration":90579,"SoundDuration":90579,"Delta":107444013},{"NoteNumber":69,"Velocity":30,"Duration":94641,"SoundDuration":94641,"Delta":107534592},{"NoteNumber":72,"Velocity":30,"Duration":94641,"SoundDuration":94641,"Delta":107534592},{"NoteNumber":77,"Velocity":38,"Duration":94641,"SoundDuration":94641,"Delta":107534592},{"NoteNumber":55,"Velocity":22,"Duration":371710,"SoundDuration":371710,"Delta":107735551},{"NoteNumber":62,"Velocity":26,"Duration":371710,"SoundDuration":371710,"Delta":107735551},{"NoteNumber":77,"Velocity":43,"Duration":90579,"SoundDuration":90579,"Delta":107915372},{"NoteNumber":79,"Velocity":43,"Duration":90579,"SoundDuration":90579,"Delta":108005952},{"NoteNumber":72,"Velocity":30,"Duration":91967,"SoundDuration":91967,"Delta":108096532},{"NoteNumber":74,"Velocity":30,"Duration":91967,"SoundDuration":91967,"Delta":108096532},{"NoteNumber":81,"Velocity":38,"Duration":91967,"SoundDuration":91967,"Delta":108096532},{"NoteNumber":43,"Velocity":22,"Duration":364933,"SoundDuration":364933,"Delta":108291198},{"NoteNumber":50,"Velocity":26,"Duration":364933,"SoundDuration":364933,"Delta":108291198},{"NoteNumber":77,"Velocity":43,"Duration":90579,"SoundDuration":90579,"Delta":108464404},{"NoteNumber":79,"Velocity":43,"Duration":90579,"SoundDuration":90579,"Delta":108554984},{"NoteNumber":71,"Velocity":30,"Duration":94641,"SoundDuration":94641,"Delta":108645563},{"NoteNumber":74,"Velocity":30,"Duration":94641,"SoundDuration":94641,"Delta":108645563},{"NoteNumber":81,"Velocity":38,"Duration":94641,"SoundDuration":94641,"Delta":108645563},{"NoteNumber":55,"Velocity":26,"Duration":372120,"SoundDuration":372120,"Delta":108835383},{"NoteNumber":48,"Velocity":22,"Duration":372120,"SoundDuration":372120,"Delta":108835383},{"NoteNumber":76,"Velocity":43,"Duration":90579,"SoundDuration":90579,"Delta":109026344},{"NoteNumber":77,"Velocity":43,"Duration":90579,"SoundDuration":90579,"Delta":109116923},{"NoteNumber":71,"Velocity":30,"Duration":92251,"SoundDuration":92251,"Delta":109207503},{"NoteNumber":72,"Velocity":30,"Duration":92251,"SoundDuration":92251,"Delta":109207503},{"NoteNumber":79,"Velocity":38,"Duration":92251,"SoundDuration":92251,"Delta":109207503},{"NoteNumber":43,"Velocity":26,"Duration":365661,"SoundDuration":365661,"Delta":109392005},{"NoteNumber":36,"Velocity":22,"Duration":365661,"SoundDuration":365661,"Delta":109392005},{"NoteNumber":76,"Velocity":43,"Duration":90579,"SoundDuration":90579,"Delta":109576507},{"NoteNumber":77,"Velocity":43,"Duration":90579,"SoundDuration":90579,"Delta":109667087},{"NoteNumber":71,"Velocity":29,"Duration":94641,"SoundDuration":94641,"Delta":109757667},{"NoteNumber":72,"Velocity":29,"Duration":94641,"SoundDuration":94641,"Delta":109757667},{"NoteNumber":79,"Velocity":37,"Duration":94641,"SoundDuration":94641,"Delta":109757667},{"NoteNumber":60,"Velocity":25,"Duration":372120,"SoundDuration":372120,"Delta":109947486},{"NoteNumber":53,"Velocity":21,"Duration":372120,"SoundDuration":372120,"Delta":109947486},{"NoteNumber":76,"Velocity":41,"Duration":90579,"SoundDuration":90579,"Delta":110138447},{"NoteNumber":77,"Velocity":41,"Duration":90579,"SoundDuration":90579,"Delta":110229026},{"NoteNumber":69,"Velocity":28,"Duration":92535,"SoundDuration":92535,"Delta":110319606},{"NoteNumber":72,"Velocity":28,"Duration":92535,"SoundDuration":92535,"Delta":110319606},{"NoteNumber":79,"Velocity":36,"Duration":92535,"SoundDuration":92535,"Delta":110319606},{"NoteNumber":48,"Velocity":24,"Duration":366230,"SoundDuration":366230,"Delta":110504677},{"NoteNumber":41,"Velocity":20,"Duration":366230,"SoundDuration":366230,"Delta":110504677},{"NoteNumber":76,"Velocity":39,"Duration":90579,"SoundDuration":90579,"Delta":110689748},{"NoteNumber":77,"Velocity":39,"Duration":90579,"SoundDuration":90579,"Delta":110780328},{"NoteNumber":69,"Velocity":27,"Duration":97656,"SoundDuration":97656,"Delta":110870908},{"NoteNumber":72,"Velocity":27,"Duration":97656,"SoundDuration":97656,"Delta":110870908},{"NoteNumber":79,"Velocity":34,"Duration":97656,"SoundDuration":97656,"Delta":110870908},{"NoteNumber":53,"Velocity":23,"Duration":372120,"SoundDuration":372120,"Delta":111066220},{"NoteNumber":47,"Velocity":19,"Duration":372120,"SoundDuration":372120,"Delta":111066220},{"NoteNumber":74,"Velocity":37,"Duration":90579,"SoundDuration":90579,"Delta":111257181},{"NoteNumber":76,"Velocity":37,"Duration":90579,"SoundDuration":90579,"Delta":111347761},{"NoteNumber":69,"Velocity":26,"Duration":94641,"SoundDuration":94641,"Delta":111438341},{"NoteNumber":71,"Velocity":26,"Duration":94641,"SoundDuration":94641,"Delta":111438341},{"NoteNumber":77,"Velocity":33,"Duration":94641,"SoundDuration":94641,"Delta":111438341},{"NoteNumber":41,"Velocity":22,"Duration":371515,"SoundDuration":371515,"Delta":111628160},{"NoteNumber":35,"Velocity":18,"Duration":371515,"SoundDuration":371515,"Delta":111628160},{"NoteNumber":74,"Velocity":36,"Duration":90579,"SoundDuration":90579,"Delta":111818515},{"NoteNumber":76,"Velocity":36,"Duration":90579,"SoundDuration":90579,"Delta":111909095},{"NoteNumber":69,"Velocity":24,"Duration":94641,"SoundDuration":94641,"Delta":111999675},{"NoteNumber":71,"Velocity":24,"Duration":94641,"SoundDuration":94641,"Delta":111999675},{"NoteNumber":77,"Velocity":31,"Duration":94641,"SoundDuration":94641,"Delta":111999675},{"NoteNumber":59,"Velocity":21,"Duration":372120,"SoundDuration":372120,"Delta":112189494},{"NoteNumber":52,"Velocity":18,"Duration":372120,"SoundDuration":372120,"Delta":112189494},{"NoteNumber":74,"Velocity":34,"Duration":90579,"SoundDuration":90579,"Delta":112380455},{"NoteNumber":76,"Velocity":34,"Duration":90579,"SoundDuration":90579,"Delta":112471034},{"NoteNumber":67,"Velocity":23,"Duration":92821,"SoundDuration":92821,"Delta":112561614},{"NoteNumber":71,"Velocity":23,"Duration":92821,"SoundDuration":92821,"Delta":112561614},{"NoteNumber":77,"Velocity":30,"Duration":92821,"SoundDuration":92821,"Delta":112561614},{"NoteNumber":47,"Velocity":20,"Duration":366803,"SoundDuration":366803,"Delta":112747258},{"NoteNumber":40,"Velocity":17,"Duration":366803,"SoundDuration":366803,"Delta":112747258},{"NoteNumber":74,"Velocity":32,"Duration":90579,"SoundDuration":90579,"Delta":112932901},{"NoteNumber":76,"Velocity":32,"Duration":90579,"SoundDuration":90579,"Delta":113023481},{"NoteNumber":67,"Velocity":22,"Duration":94641,"SoundDuration":94641,"Delta":113114061},{"NoteNumber":71,"Velocity":22,"Duration":94641,"SoundDuration":94641,"Delta":113114061},{"NoteNumber":77,"Velocity":28,"Duration":94641,"SoundDuration":94641,"Delta":113114061},{"NoteNumber":52,"Velocity":19,"Duration":372120,"SoundDuration":372120,"Delta":113303880},{"NoteNumber":45,"Velocity":16,"Duration":372120,"SoundDuration":372120,"Delta":113303880},{"NoteNumber":72,"Velocity":30,"Duration":90579,"SoundDuration":90579,"Delta":113494841},{"NoteNumber":74,"Velocity":30,"Duration":90579,"SoundDuration":90579,"Delta":113585421},{"NoteNumber":67,"Velocity":21,"Duration":92535,"SoundDuration":92535,"Delta":113676000},{"NoteNumber":69,"Velocity":21,"Duration":92535,"SoundDuration":92535,"Delta":113676000},{"NoteNumber":76,"Velocity":26,"Duration":92535,"SoundDuration":92535,"Delta":113676000},{"NoteNumber":40,"Velocity":18,"Duration":366230,"SoundDuration":366230,"Delta":113861071},{"NoteNumber":33,"Velocity":15,"Duration":366230,"SoundDuration":366230,"Delta":113861071},{"NoteNumber":72,"Velocity":29,"Duration":90579,"SoundDuration":90579,"Delta":114046142},{"NoteNumber":74,"Velocity":29,"Duration":90579,"SoundDuration":90579,"Delta":114136722},{"NoteNumber":67,"Velocity":20,"Duration":94641,"SoundDuration":94641,"Delta":114227302},{"NoteNumber":69,"Velocity":20,"Duration":94641,"SoundDuration":94641,"Delta":114227302},{"NoteNumber":76,"Velocity":25,"Duration":94641,"SoundDuration":94641,"Delta":114227302},{"NoteNumber":57,"Velocity":16,"Duration":372120,"SoundDuration":372120,"Delta":114417121},{"NoteNumber":50,"Velocity":14,"Duration":372120,"SoundDuration":372120,"Delta":114417121},{"NoteNumber":72,"Velocity":27,"Duration":90579,"SoundDuration":90579,"Delta":114608082},{"NoteNumber":74,"Velocity":27,"Duration":90579,"SoundDuration":90579,"Delta":114698662},{"NoteNumber":65,"Velocity":19,"Duration":92535,"SoundDuration":92535,"Delta":114789241},{"NoteNumber":69,"Velocity":19,"Duration":92535,"SoundDuration":92535,"Delta":114789241},{"NoteNumber":76,"Velocity":24,"Duration":92535,"SoundDuration":92535,"Delta":114789241},{"NoteNumber":45,"Velocity":16,"Duration":366230,"SoundDuration":366230,"Delta":114974312},{"NoteNumber":38,"Velocity":14,"Duration":366230,"SoundDuration":366230,"Delta":114974312},{"NoteNumber":57,"Velocity":16,"Duration":372120,"SoundDuration":372120,"Delta":115530362},{"NoteNumber":50,"Velocity":14,"Duration":372120,"SoundDuration":372120,"Delta":115530362},{"NoteNumber":45,"Velocity":16,"Duration":371515,"SoundDuration":371515,"Delta":116092301},{"NoteNumber":38,"Velocity":14,"Duration":371515,"SoundDuration":371515,"Delta":116092301},{"NoteNumber":50,"Velocity":16,"Duration":372120,"SoundDuration":372120,"Delta":116653636},{"NoteNumber":43,"Velocity":14,"Duration":372120,"SoundDuration":372120,"Delta":116653636},{"NoteNumber":71,"Velocity":27,"Duration":90579,"SoundDuration":90579,"Delta":116844597},{"NoteNumber":72,"Velocity":27,"Duration":90579,"SoundDuration":90579,"Delta":116935176},{"NoteNumber":65,"Velocity":19,"Duration":94641,"SoundDuration":94641,"Delta":117025756},{"NoteNumber":69,"Velocity":19,"Duration":94641,"SoundDuration":94641,"Delta":117025756},{"NoteNumber":74,"Velocity":24,"Duration":94641,"SoundDuration":94641,"Delta":117025756},{"NoteNumber":38,"Velocity":16,"Duration":190355,"SoundDuration":190355,"Delta":117215575},{"NoteNumber":31,"Velocity":14,"Duration":190355,"SoundDuration":190355,"Delta":117215575},{"NoteNumber":50,"Velocity":16,"Duration":190961,"SoundDuration":190961,"Delta":117776909},{"NoteNumber":43,"Velocity":14,"Duration":190961,"SoundDuration":190961,"Delta":117776909},{"NoteNumber":38,"Velocity":16,"Duration":190355,"SoundDuration":190355,"Delta":118338849},{"NoteNumber":31,"Velocity":14,"Duration":190355,"SoundDuration":190355,"Delta":118338849},{"NoteNumber":50,"Velocity":16,"Duration":190961,"SoundDuration":190961,"Delta":118900183},{"NoteNumber":43,"Velocity":14,"Duration":190961,"SoundDuration":190961,"Delta":118900183},{"NoteNumber":62,"Velocity":16,"Duration":190355,"SoundDuration":190355,"Delta":119462122},{"NoteNumber":55,"Velocity":14,"Duration":190355,"SoundDuration":190355,"Delta":119462122},{"NoteNumber":67,"Velocity":14,"Duration":190961,"SoundDuration":190961,"Delta":120023456},{"NoteNumber":74,"Velocity":16,"Duration":190961,"SoundDuration":190961,"Delta":120023456},{"NoteNumber":86,"Velocity":16,"Duration":190355,"SoundDuration":190355,"Delta":120585396},{"NoteNumber":79,"Velocity":14,"Duration":190355,"SoundDuration":190355,"Delta":120585396},{"NoteNumber":84,"Velocity":32,"Duration":187382,"SoundDuration":187382,"Delta":120775752},{"NoteNumber":86,"Velocity":29,"Duration":187382,"SoundDuration":187382,"Delta":120963135},{"NoteNumber":88,"Velocity":36,"Duration":187383,"SoundDuration":187383,"Delta":121150518},{"NoteNumber":79,"Velocity":26,"Duration":93691,"SoundDuration":93691,"Delta":121150518},{"NoteNumber":84,"Velocity":30,"Duration":187382,"SoundDuration":187382,"Delta":121337901},{"NoteNumber":88,"Velocity":30,"Duration":279918,"SoundDuration":279918,"Delta":121525284},{"NoteNumber":79,"Velocity":21,"Duration":92535,"SoundDuration":92535,"Delta":121712667},{"NoteNumber":86,"Velocity":27,"Duration":46267,"SoundDuration":46267,"Delta":121805202},{"NoteNumber":88,"Velocity":27,"Duration":46267,"SoundDuration":46267,"Delta":121851470},{"NoteNumber":86,"Velocity":34,"Duration":185071,"SoundDuration":185071,"Delta":121897738},{"NoteNumber":84,"Velocity":30,"Duration":190355,"SoundDuration":190355,"Delta":122082809},{"NoteNumber":88,"Velocity":32,"Duration":97975,"SoundDuration":97975,"Delta":122273164},{"NoteNumber":79,"Velocity":24,"Duration":97975,"SoundDuration":97975,"Delta":122273164},{"NoteNumber":88,"Velocity":39,"Duration":374766,"SoundDuration":374766,"Delta":122656498},{"NoteNumber":79,"Velocity":24,"Duration":93691,"SoundDuration":93691,"Delta":122843881},{"NoteNumber":84,"Velocity":32,"Duration":187382,"SoundDuration":187382,"Delta":123031264},{"NoteNumber":86,"Velocity":29,"Duration":187382,"SoundDuration":187382,"Delta":123218647},{"NoteNumber":88,"Velocity":36,"Duration":187383,"SoundDuration":187383,"Delta":123406030},{"NoteNumber":91,"Velocity":26,"Duration":93691,"SoundDuration":93691,"Delta":123406030},{"NoteNumber":84,"Velocity":30,"Duration":187382,"SoundDuration":187382,"Delta":123593413},{"NoteNumber":88,"Velocity":30,"Duration":279918,"SoundDuration":279918,"Delta":123780796},{"NoteNumber":91,"Velocity":21,"Duration":92535,"SoundDuration":92535,"Delta":123968179},{"NoteNumber":86,"Velocity":27,"Duration":46267,"SoundDuration":46267,"Delta":124060714},{"NoteNumber":88,"Velocity":27,"Duration":46267,"SoundDuration":46267,"Delta":124106982},{"NoteNumber":86,"Velocity":34,"Duration":185071,"SoundDuration":185071,"Delta":124153250},{"NoteNumber":84,"Velocity":30,"Duration":190355,"SoundDuration":190355,"Delta":124338321},{"NoteNumber":88,"Velocity":32,"Duration":97975,"SoundDuration":97975,"Delta":124528676},{"NoteNumber":91,"Velocity":24,"Duration":97975,"SoundDuration":97975,"Delta":124528676},{"NoteNumber":88,"Velocity":39,"Duration":374766,"SoundDuration":374766,"Delta":124912010},{"NoteNumber":91,"Velocity":24,"Duration":93691,"SoundDuration":93691,"Delta":125099393},{"NoteNumber":84,"Velocity":35,"Duration":184501,"SoundDuration":184501,"Delta":125286776},{"NoteNumber":86,"Velocity":31,"Duration":184502,"SoundDuration":184502,"Delta":125471278},{"NoteNumber":96,"Velocity":28,"Duration":187382,"SoundDuration":187382,"Delta":125655780},{"NoteNumber":93,"Velocity":24,"Duration":187382,"SoundDuration":187382,"Delta":125655780},{"NoteNumber":89,"Velocity":24,"Duration":187382,"SoundDuration":187382,"Delta":125655780},{"NoteNumber":88,"Velocity":39,"Duration":187382,"SoundDuration":187382,"Delta":125655780},{"NoteNumber":84,"Velocity":33,"Duration":187382,"SoundDuration":187382,"Delta":125843163},{"NoteNumber":88,"Velocity":33,"Duration":279918,"SoundDuration":279918,"Delta":126030546},{"NoteNumber":89,"Velocity":24,"Duration":185070,"SoundDuration":185070,"Delta":126217929},{"NoteNumber":95,"Velocity":28,"Duration":185070,"SoundDuration":185070,"Delta":126217929},{"NoteNumber":91,"Velocity":24,"Duration":185070,"SoundDuration":185070,"Delta":126217929},{"NoteNumber":86,"Velocity":29,"Duration":46267,"SoundDuration":46267,"Delta":126310464},{"NoteNumber":88,"Velocity":29,"Duration":46267,"SoundDuration":46267,"Delta":126356732},{"NoteNumber":86,"Velocity":37,"Duration":185071,"SoundDuration":185071,"Delta":126403000},{"NoteNumber":83,"Velocity":33,"Duration":190355,"SoundDuration":190355,"Delta":126588071},{"NoteNumber":95,"Velocity":28,"Duration":195950,"SoundDuration":195950,"Delta":126778426},{"NoteNumber":91,"Velocity":24,"Duration":195950,"SoundDuration":195950,"Delta":126778426},{"NoteNumber":88,"Velocity":24,"Duration":195950,"SoundDuration":195950,"Delta":126778426},{"NoteNumber":86,"Velocity":35,"Duration":97975,"SoundDuration":97975,"Delta":126778426},{"NoteNumber":84,"Velocity":42,"Duration":374766,"SoundDuration":374766,"Delta":127161760},{"NoteNumber":93,"Velocity":28,"Duration":187383,"SoundDuration":187383,"Delta":127349143},{"NoteNumber":89,"Velocity":24,"Duration":187383,"SoundDuration":187383,"Delta":127349143},{"NoteNumber":88,"Velocity":24,"Duration":187383,"SoundDuration":187383,"Delta":127349143},{"NoteNumber":81,"Velocity":35,"Duration":187382,"SoundDuration":187382,"Delta":127536526},{"NoteNumber":83,"Velocity":31,"Duration":187382,"SoundDuration":187382,"Delta":127723909},{"NoteNumber":93,"Velocity":28,"Duration":181708,"SoundDuration":181708,"Delta":127911292},{"NoteNumber":89,"Velocity":24,"Duration":181708,"SoundDuration":181708,"Delta":127911292},{"NoteNumber":86,"Velocity":24,"Duration":181708,"SoundDuration":181708,"Delta":127911292},{"NoteNumber":84,"Velocity":39,"Duration":181708,"SoundDuration":181708,"Delta":127911292},{"NoteNumber":81,"Velocity":33,"Duration":191571,"SoundDuration":191571,"Delta":128093000},{"NoteNumber":84,"Velocity":33,"Duration":279918,"SoundDuration":279918,"Delta":128284571},{"NoteNumber":86,"Velocity":24,"Duration":185070,"SoundDuration":185070,"Delta":128471954},{"NoteNumber":91,"Velocity":28,"Duration":185070,"SoundDuration":185070,"Delta":128471954},{"NoteNumber":88,"Velocity":24,"Duration":185070,"SoundDuration":185070,"Delta":128471954},{"NoteNumber":83,"Velocity":29,"Duration":46267,"SoundDuration":46267,"Delta":128564489},{"NoteNumber":84,"Velocity":29,"Duration":46267,"SoundDuration":46267,"Delta":128610757},{"NoteNumber":83,"Velocity":37,"Duration":185070,"SoundDuration":185070,"Delta":128657025},{"NoteNumber":79,"Velocity":33,"Duration":190355,"SoundDuration":190355,"Delta":128842096},{"NoteNumber":91,"Velocity":28,"Duration":195950,"SoundDuration":195950,"Delta":129032451},{"NoteNumber":88,"Velocity":24,"Duration":195950,"SoundDuration":195950,"Delta":129032451},{"NoteNumber":84,"Velocity":24,"Duration":195950,"SoundDuration":195950,"Delta":129032451},{"NoteNumber":83,"Velocity":35,"Duration":97975,"SoundDuration":97975,"Delta":129032451},{"NoteNumber":81,"Velocity":42,"Duration":374765,"SoundDuration":374765,"Delta":129415785},{"NoteNumber":89,"Velocity":28,"Duration":187383,"SoundDuration":187383,"Delta":129603168},{"NoteNumber":86,"Velocity":24,"Duration":187383,"SoundDuration":187383,"Delta":129603168},{"NoteNumber":84,"Velocity":24,"Duration":187383,"SoundDuration":187383,"Delta":129603168},{"NoteNumber":77,"Velocity":35,"Duration":183373,"SoundDuration":183373,"Delta":129790551},{"NoteNumber":79,"Velocity":31,"Duration":190355,"SoundDuration":190355,"Delta":129973925},{"NoteNumber":89,"Velocity":28,"Duration":187970,"SoundDuration":187970,"Delta":130164280},{"NoteNumber":86,"Velocity":24,"Duration":187970,"SoundDuration":187970,"Delta":130164280},{"NoteNumber":83,"Velocity":24,"Duration":187970,"SoundDuration":187970,"Delta":130164280},{"NoteNumber":81,"Velocity":39,"Duration":187970,"SoundDuration":187970,"Delta":130164280},{"NoteNumber":77,"Velocity":33,"Duration":187969,"SoundDuration":187969,"Delta":130352250},{"NoteNumber":81,"Velocity":33,"Duration":280505,"SoundDuration":280505,"Delta":130540220},{"NoteNumber":83,"Velocity":24,"Duration":185070,"SoundDuration":185070,"Delta":130728190},{"NoteNumber":88,"Velocity":28,"Duration":185070,"SoundDuration":185070,"Delta":130728190},{"NoteNumber":84,"Velocity":24,"Duration":185070,"SoundDuration":185070,"Delta":130728190},{"NoteNumber":79,"Velocity":29,"Duration":46267,"SoundDuration":46267,"Delta":130820726},{"NoteNumber":81,"Velocity":29,"Duration":46267,"SoundDuration":46267,"Delta":130866993},{"NoteNumber":79,"Velocity":37,"Duration":185070,"SoundDuration":185070,"Delta":130913261},{"NoteNumber":76,"Velocity":33,"Duration":190355,"SoundDuration":190355,"Delta":131098332},{"NoteNumber":88,"Velocity":28,"Duration":187383,"SoundDuration":187383,"Delta":131288688},{"NoteNumber":84,"Velocity":24,"Duration":187383,"SoundDuration":187383,"Delta":131288688},{"NoteNumber":81,"Velocity":24,"Duration":187383,"SoundDuration":187383,"Delta":131288688},{"NoteNumber":79,"Velocity":39,"Duration":187383,"SoundDuration":187383,"Delta":131288688},{"NoteNumber":76,"Velocity":33,"Duration":187382,"SoundDuration":187382,"Delta":131476071},{"NoteNumber":79,"Velocity":33,"Duration":277962,"SoundDuration":277962,"Delta":131663454},{"NoteNumber":81,"Velocity":24,"Duration":181159,"SoundDuration":181159,"Delta":131850837},{"NoteNumber":86,"Velocity":28,"Duration":181159,"SoundDuration":181159,"Delta":131850837},{"NoteNumber":83,"Velocity":24,"Duration":181159,"SoundDuration":181159,"Delta":131850837},{"NoteNumber":77,"Velocity":29,"Duration":45289,"SoundDuration":45289,"Delta":131941416},{"NoteNumber":79,"Velocity":29,"Duration":45289,"SoundDuration":45289,"Delta":131986706},{"NoteNumber":77,"Velocity":37,"Duration":185643,"SoundDuration":185643,"Delta":132031996},{"NoteNumber":74,"Velocity":33,"Duration":190355,"SoundDuration":190355,"Delta":132217640},{"NoteNumber":86,"Velocity":28,"Duration":187383,"SoundDuration":187383,"Delta":132407995},{"NoteNumber":83,"Velocity":24,"Duration":187383,"SoundDuration":187383,"Delta":132407995},{"NoteNumber":79,"Velocity":24,"Duration":187383,"SoundDuration":187383,"Delta":132407995},{"NoteNumber":77,"Velocity":39,"Duration":187383,"SoundDuration":187383,"Delta":132407995},{"NoteNumber":74,"Velocity":33,"Duration":187382,"SoundDuration":187382,"Delta":132595378},{"NoteNumber":77,"Velocity":33,"Duration":279918,"SoundDuration":279918,"Delta":132782761},{"NoteNumber":79,"Velocity":24,"Duration":185070,"SoundDuration":185070,"Delta":132970144},{"NoteNumber":84,"Velocity":28,"Duration":185070,"SoundDuration":185070,"Delta":132970144},{"NoteNumber":81,"Velocity":24,"Duration":185070,"SoundDuration":185070,"Delta":132970144},{"NoteNumber":76,"Velocity":29,"Duration":46267,"SoundDuration":46267,"Delta":133062680},{"NoteNumber":77,"Velocity":29,"Duration":46267,"SoundDuration":46267,"Delta":133108947},{"NoteNumber":76,"Velocity":37,"Duration":185070,"SoundDuration":185070,"Delta":133155215},{"NoteNumber":72,"Velocity":33,"Duration":190355,"SoundDuration":190355,"Delta":133340286},{"NoteNumber":84,"Velocity":28,"Duration":195950,"SoundDuration":195950,"Delta":133530642},{"NoteNumber":81,"Velocity":24,"Duration":195950,"SoundDuration":195950,"Delta":133530642},{"NoteNumber":77,"Velocity":24,"Duration":195950,"SoundDuration":195950,"Delta":133530642},{"NoteNumber":76,"Velocity":35,"Duration":97975,"SoundDuration":97975,"Delta":133530642},{"NoteNumber":74,"Velocity":42,"Duration":374765,"SoundDuration":374765,"Delta":133913975},{"NoteNumber":77,"Velocity":24,"Duration":187383,"SoundDuration":187383,"Delta":134101358},{"NoteNumber":83,"Velocity":28,"Duration":187383,"SoundDuration":187383,"Delta":134101358},{"NoteNumber":79,"Velocity":24,"Duration":187383,"SoundDuration":187383,"Delta":134101358},{"NoteNumber":72,"Velocity":37,"Duration":185070,"SoundDuration":185070,"Delta":134288741},{"NoteNumber":74,"Velocity":33,"Duration":190355,"SoundDuration":190355,"Delta":134473812},{"NoteNumber":84,"Velocity":29,"Duration":187383,"SoundDuration":187383,"Delta":134664168},{"NoteNumber":81,"Velocity":25,"Duration":187383,"SoundDuration":187383,"Delta":134664168},{"NoteNumber":77,"Velocity":25,"Duration":187383,"SoundDuration":187383,"Delta":134664168},{"NoteNumber":76,"Velocity":41,"Duration":187383,"SoundDuration":187383,"Delta":134664168},{"NoteNumber":72,"Velocity":34,"Duration":187382,"SoundDuration":187382,"Delta":134851551},{"NoteNumber":76,"Velocity":34,"Duration":279918,"SoundDuration":279918,"Delta":135038934},{"NoteNumber":77,"Velocity":25,"Duration":185070,"SoundDuration":185070,"Delta":135226317},{"NoteNumber":83,"Velocity":30,"Duration":185070,"SoundDuration":185070,"Delta":135226317},{"NoteNumber":79,"Velocity":25,"Duration":185070,"SoundDuration":185070,"Delta":135226317},{"NoteNumber":74,"Velocity":31,"Duration":46267,"SoundDuration":46267,"Delta":135318852},{"NoteNumber":76,"Velocity":31,"Duration":46267,"SoundDuration":46267,"Delta":135365120},{"NoteNumber":74,"Velocity":39,"Duration":182260,"SoundDuration":182260,"Delta":135411388},{"NoteNumber":71,"Velocity":34,"Duration":190355,"SoundDuration":190355,"Delta":135593648},{"NoteNumber":83,"Velocity":30,"Duration":195950,"SoundDuration":195950,"Delta":135784003},{"NoteNumber":79,"Velocity":25,"Duration":195950,"SoundDuration":195950,"Delta":135784003},{"NoteNumber":76,"Velocity":25,"Duration":195950,"SoundDuration":195950,"Delta":135784003},{"NoteNumber":74,"Velocity":38,"Duration":97975,"SoundDuration":97975,"Delta":135784003},{"NoteNumber":72,"Velocity":46,"Duration":374765,"SoundDuration":374765,"Delta":136167337},{"NoteNumber":76,"Velocity":26,"Duration":187383,"SoundDuration":187383,"Delta":136354720},{"NoteNumber":81,"Velocity":31,"Duration":187383,"SoundDuration":187383,"Delta":136354720},{"NoteNumber":77,"Velocity":26,"Duration":187383,"SoundDuration":187383,"Delta":136354720},{"NoteNumber":69,"Velocity":42,"Duration":185070,"SoundDuration":185070,"Delta":136542103},{"NoteNumber":71,"Velocity":37,"Duration":190355,"SoundDuration":190355,"Delta":136727174},{"NoteNumber":81,"Velocity":31,"Duration":187383,"SoundDuration":187383,"Delta":136917529},{"NoteNumber":77,"Velocity":27,"Duration":187383,"SoundDuration":187383,"Delta":136917529},{"NoteNumber":74,"Velocity":27,"Duration":187383,"SoundDuration":187383,"Delta":136917529},{"NoteNumber":72,"Velocity":44,"Duration":187383,"SoundDuration":187383,"Delta":136917529},{"NoteNumber":69,"Velocity":37,"Duration":187382,"SoundDuration":187382,"Delta":137104912},{"NoteNumber":72,"Velocity":37,"Duration":278237,"SoundDuration":278237,"Delta":137292295},{"NoteNumber":74,"Velocity":28,"Duration":181707,"SoundDuration":181707,"Delta":137479678},{"NoteNumber":79,"Velocity":33,"Duration":181707,"SoundDuration":181707,"Delta":137479678},{"NoteNumber":76,"Velocity":28,"Duration":181707,"SoundDuration":181707,"Delta":137479678},{"NoteNumber":71,"Velocity":34,"Duration":45426,"SoundDuration":45426,"Delta":137570532},{"NoteNumber":72,"Velocity":34,"Duration":45426,"SoundDuration":45426,"Delta":137615959},{"NoteNumber":71,"Velocity":43,"Duration":185643,"SoundDuration":185643,"Delta":137661386},{"NoteNumber":67,"Velocity":39,"Duration":190355,"SoundDuration":190355,"Delta":137847030},{"NoteNumber":79,"Velocity":33,"Duration":195950,"SoundDuration":195950,"Delta":138037385},{"NoteNumber":76,"Velocity":28,"Duration":195950,"SoundDuration":195950,"Delta":138037385},{"NoteNumber":72,"Velocity":28,"Duration":195950,"SoundDuration":195950,"Delta":138037385},{"NoteNumber":71,"Velocity":41,"Duration":97975,"SoundDuration":97975,"Delta":138037385},{"NoteNumber":69,"Velocity":51,"Duration":374765,"SoundDuration":374765,"Delta":138420719},{"NoteNumber":72,"Velocity":28,"Duration":187383,"SoundDuration":187383,"Delta":138608102},{"NoteNumber":77,"Velocity":34,"Duration":187383,"SoundDuration":187383,"Delta":138608102},{"NoteNumber":74,"Velocity":28,"Duration":187383,"SoundDuration":187383,"Delta":138608102},{"NoteNumber":65,"Velocity":45,"Duration":181707,"SoundDuration":181707,"Delta":138795485},{"NoteNumber":67,"Velocity":40,"Duration":190355,"SoundDuration":190355,"Delta":138977193},{"NoteNumber":77,"Velocity":35,"Duration":187383,"SoundDuration":187383,"Delta":139167548},{"NoteNumber":74,"Velocity":30,"Duration":187383,"SoundDuration":187383,"Delta":139167548},{"NoteNumber":71,"Velocity":30,"Duration":187383,"SoundDuration":187383,"Delta":139167548},{"NoteNumber":69,"Velocity":49,"Duration":187383,"SoundDuration":187383,"Delta":139167548},{"NoteNumber":65,"Velocity":40,"Duration":187382,"SoundDuration":187382,"Delta":139354931},{"NoteNumber":69,"Velocity":41,"Duration":279918,"SoundDuration":279918,"Delta":139542314},{"NoteNumber":71,"Velocity":30,"Duration":185070,"SoundDuration":185070,"Delta":139729697},{"NoteNumber":76,"Velocity":36,"Duration":185070,"SoundDuration":185070,"Delta":139729697},{"NoteNumber":72,"Velocity":30,"Duration":185070,"SoundDuration":185070,"Delta":139729697},{"NoteNumber":67,"Velocity":37,"Duration":46267,"SoundDuration":46267,"Delta":139822233},{"NoteNumber":69,"Velocity":37,"Duration":46267,"SoundDuration":46267,"Delta":139868500},{"NoteNumber":67,"Velocity":48,"Duration":185070,"SoundDuration":185070,"Delta":139914768},{"NoteNumber":64,"Velocity":42,"Duration":190355,"SoundDuration":190355,"Delta":140099839},{"NoteNumber":76,"Velocity":37,"Duration":187383,"SoundDuration":187383,"Delta":140290195},{"NoteNumber":72,"Velocity":31,"Duration":187383,"SoundDuration":187383,"Delta":140290195},{"NoteNumber":69,"Velocity":31,"Duration":187383,"SoundDuration":187383,"Delta":140290195},{"NoteNumber":67,"Velocity":52,"Duration":187383,"SoundDuration":187383,"Delta":140290195},{"NoteNumber":64,"Velocity":44,"Duration":187382,"SoundDuration":187382,"Delta":140477578},{"NoteNumber":67,"Velocity":44,"Duration":279918,"SoundDuration":279918,"Delta":140664961},{"NoteNumber":69,"Velocity":33,"Duration":185070,"SoundDuration":185070,"Delta":140852344},{"NoteNumber":74,"Velocity":40,"Duration":185070,"SoundDuration":185070,"Delta":140852344},{"NoteNumber":71,"Velocity":33,"Duration":185070,"SoundDuration":185070,"Delta":140852344},{"NoteNumber":65,"Velocity":41,"Duration":46267,"SoundDuration":46267,"Delta":140944879},{"NoteNumber":67,"Velocity":41,"Duration":46267,"SoundDuration":46267,"Delta":140991147},{"NoteNumber":65,"Velocity":53,"Duration":185070,"SoundDuration":185070,"Delta":141037415},{"NoteNumber":62,"Velocity":47,"Duration":190355,"SoundDuration":190355,"Delta":141222486},{"NoteNumber":76,"Velocity":41,"Duration":187383,"SoundDuration":187383,"Delta":141412841},{"NoteNumber":72,"Velocity":35,"Duration":187383,"SoundDuration":187383,"Delta":141412841},{"NoteNumber":69,"Velocity":35,"Duration":187383,"SoundDuration":187383,"Delta":141412841},{"NoteNumber":65,"Velocity":58,"Duration":187383,"SoundDuration":187383,"Delta":141412841},{"NoteNumber":62,"Velocity":50,"Duration":187382,"SoundDuration":187382,"Delta":141600224},{"NoteNumber":65,"Velocity":50,"Duration":279918,"SoundDuration":279918,"Delta":141787607},{"NoteNumber":69,"Velocity":37,"Duration":185070,"SoundDuration":185070,"Delta":141974990},{"NoteNumber":74,"Velocity":44,"Duration":185070,"SoundDuration":185070,"Delta":141974990},{"NoteNumber":71,"Velocity":37,"Duration":185070,"SoundDuration":185070,"Delta":141974990},{"NoteNumber":64,"Velocity":47,"Duration":46267,"SoundDuration":46267,"Delta":142067526},{"NoteNumber":65,"Velocity":47,"Duration":46267,"SoundDuration":46267,"Delta":142113793},{"NoteNumber":64,"Velocity":59,"Duration":185070,"SoundDuration":185070,"Delta":142160061},{"NoteNumber":60,"Velocity":54,"Duration":190355,"SoundDuration":190355,"Delta":142345132},{"NoteNumber":72,"Velocity":47,"Duration":195950,"SoundDuration":195950,"Delta":142535488},{"NoteNumber":69,"Velocity":40,"Duration":195950,"SoundDuration":195950,"Delta":142535488},{"NoteNumber":65,"Velocity":40,"Duration":195950,"SoundDuration":195950,"Delta":142535488},{"NoteNumber":64,"Velocity":58,"Duration":97975,"SoundDuration":97975,"Delta":142535488},{"NoteNumber":62,"Velocity":75,"Duration":385926,"SoundDuration":385926,"Delta":142918821},{"NoteNumber":65,"Velocity":42,"Duration":198543,"SoundDuration":198543,"Delta":143106204},{"NoteNumber":71,"Velocity":50,"Duration":198543,"SoundDuration":198543,"Delta":143106204},{"NoteNumber":67,"Velocity":42,"Duration":198543,"SoundDuration":198543,"Delta":143106204},{"NoteNumber":48,"Velocity":62,"Duration":67049,"SoundDuration":67049,"Delta":143304748},{"NoteNumber":60,"Velocity":74,"Duration":67049,"SoundDuration":67049,"Delta":143304748},{"NoteNumber":50,"Velocity":56,"Duration":69721,"SoundDuration":69721,"Delta":143496319},{"NoteNumber":62,"Velocity":66,"Duration":69721,"SoundDuration":69721,"Delta":143496319},{"NoteNumber":72,"Velocity":52,"Duration":187970,"SoundDuration":187970,"Delta":143695522},{"NoteNumber":69,"Velocity":44,"Duration":187970,"SoundDuration":187970,"Delta":143695522},{"NoteNumber":65,"Velocity":44,"Duration":187970,"SoundDuration":187970,"Delta":143695522},{"NoteNumber":52,"Velocity":67,"Duration":65789,"SoundDuration":65789,"Delta":143695522},{"NoteNumber":64,"Velocity":79,"Duration":65789,"SoundDuration":65789,"Delta":143695522},{"NoteNumber":48,"Velocity":56,"Duration":65789,"SoundDuration":65789,"Delta":143883492},{"NoteNumber":60,"Velocity":66,"Duration":65789,"SoundDuration":65789,"Delta":143883492},{"NoteNumber":52,"Velocity":56,"Duration":373040,"SoundDuration":373040,"Delta":144071462},{"NoteNumber":64,"Velocity":66,"Duration":373040,"SoundDuration":373040,"Delta":144071462},{"NoteNumber":65,"Velocity":44,"Duration":185070,"SoundDuration":185070,"Delta":144259432},{"NoteNumber":71,"Velocity":52,"Duration":185070,"SoundDuration":185070,"Delta":144259432},{"NoteNumber":67,"Velocity":44,"Duration":185070,"SoundDuration":185070,"Delta":144259432},{"NoteNumber":50,"Velocity":62,"Duration":64774,"SoundDuration":64774,"Delta":144444503},{"NoteNumber":62,"Velocity":74,"Duration":64774,"SoundDuration":64774,"Delta":144444503},{"NoteNumber":47,"Velocity":56,"Duration":66624,"SoundDuration":66624,"Delta":144629574},{"NoteNumber":59,"Velocity":66,"Duration":66624,"SoundDuration":66624,"Delta":144629574},{"NoteNumber":71,"Velocity":52,"Duration":195950,"SoundDuration":195950,"Delta":144819930},{"NoteNumber":67,"Velocity":44,"Duration":195950,"SoundDuration":195950,"Delta":144819930},{"NoteNumber":64,"Velocity":44,"Duration":195950,"SoundDuration":195950,"Delta":144819930},{"NoteNumber":50,"Velocity":59,"Duration":97975,"SoundDuration":97975,"Delta":144819930},{"NoteNumber":62,"Velocity":70,"Duration":97975,"SoundDuration":97975,"Delta":144819930},{"NoteNumber":48,"Velocity":72,"Duration":374765,"SoundDuration":374765,"Delta":145203263},{"NoteNumber":60,"Velocity":85,"Duration":374765,"SoundDuration":374765,"Delta":145203263},{"NoteNumber":64,"Velocity":44,"Duration":187383,"SoundDuration":187383,"Delta":145390646},{"NoteNumber":69,"Velocity":52,"Duration":187383,"SoundDuration":187383,"Delta":145390646},{"NoteNumber":65,"Velocity":44,"Duration":187383,"SoundDuration":187383,"Delta":145390646},{"NoteNumber":45,"Velocity":62,"Duration":67049,"SoundDuration":67049,"Delta":145578029},{"NoteNumber":57,"Velocity":74,"Duration":67049,"SoundDuration":67049,"Delta":145578029},{"NoteNumber":47,"Velocity":56,"Duration":69721,"SoundDuration":69721,"Delta":145769600},{"NoteNumber":59,"Velocity":66,"Duration":69721,"SoundDuration":69721,"Delta":145769600},{"NoteNumber":69,"Velocity":52,"Duration":187970,"SoundDuration":187970,"Delta":145968803},{"NoteNumber":65,"Velocity":44,"Duration":187970,"SoundDuration":187970,"Delta":145968803},{"NoteNumber":62,"Velocity":44,"Duration":187970,"SoundDuration":187970,"Delta":145968803},{"NoteNumber":48,"Velocity":67,"Duration":65789,"SoundDuration":65789,"Delta":145968803},{"NoteNumber":60,"Velocity":79,"Duration":65789,"SoundDuration":65789,"Delta":145968803},{"NoteNumber":45,"Velocity":56,"Duration":65789,"SoundDuration":65789,"Delta":146156773},{"NoteNumber":57,"Velocity":66,"Duration":65789,"SoundDuration":65789,"Delta":146156773},{"NoteNumber":48,"Velocity":56,"Duration":373041,"SoundDuration":373041,"Delta":146344743},{"NoteNumber":60,"Velocity":66,"Duration":373041,"SoundDuration":373041,"Delta":146344743},{"NoteNumber":62,"Velocity":44,"Duration":185070,"SoundDuration":185070,"Delta":146532713},{"NoteNumber":67,"Velocity":52,"Duration":185070,"SoundDuration":185070,"Delta":146532713},{"NoteNumber":64,"Velocity":44,"Duration":185070,"SoundDuration":185070,"Delta":146532713},{"NoteNumber":47,"Velocity":62,"Duration":64774,"SoundDuration":64774,"Delta":146717784},{"NoteNumber":59,"Velocity":74,"Duration":64774,"SoundDuration":64774,"Delta":146717784},{"NoteNumber":43,"Velocity":56,"Duration":66624,"SoundDuration":66624,"Delta":146902855},{"NoteNumber":55,"Velocity":66,"Duration":66624,"SoundDuration":66624,"Delta":146902855},{"NoteNumber":67,"Velocity":52,"Duration":195950,"SoundDuration":195950,"Delta":147093211},{"NoteNumber":64,"Velocity":44,"Duration":195950,"SoundDuration":195950,"Delta":147093211},{"NoteNumber":60,"Velocity":44,"Duration":195950,"SoundDuration":195950,"Delta":147093211},{"NoteNumber":47,"Velocity":59,"Duration":97975,"SoundDuration":97975,"Delta":147093211},{"NoteNumber":59,"Velocity":70,"Duration":97975,"SoundDuration":97975,"Delta":147093211},{"NoteNumber":45,"Velocity":69,"Duration":374765,"SoundDuration":374765,"Delta":147476544},{"NoteNumber":57,"Velocity":82,"Duration":374765,"SoundDuration":374765,"Delta":147476544},{"NoteNumber":60,"Velocity":44,"Duration":187383,"SoundDuration":187383,"Delta":147663927},{"NoteNumber":65,"Velocity":52,"Duration":187383,"SoundDuration":187383,"Delta":147663927},{"NoteNumber":62,"Velocity":44,"Duration":187383,"SoundDuration":187383,"Delta":147663927},{"NoteNumber":41,"Velocity":62,"Duration":67049,"SoundDuration":67049,"Delta":147851310},{"NoteNumber":53,"Velocity":74,"Duration":67049,"SoundDuration":67049,"Delta":147851310},{"NoteNumber":43,"Velocity":56,"Duration":69721,"SoundDuration":69721,"Delta":148042881},{"NoteNumber":55,"Velocity":66,"Duration":69721,"SoundDuration":69721,"Delta":148042881},{"NoteNumber":65,"Velocity":52,"Duration":187970,"SoundDuration":187970,"Delta":148242084},{"NoteNumber":62,"Velocity":44,"Duration":187970,"SoundDuration":187970,"Delta":148242084},{"NoteNumber":59,"Velocity":44,"Duration":187970,"SoundDuration":187970,"Delta":148242084},{"NoteNumber":45,"Velocity":67,"Duration":65789,"SoundDuration":65789,"Delta":148242084},{"NoteNumber":57,"Velocity":79,"Duration":65789,"SoundDuration":65789,"Delta":148242084},{"NoteNumber":41,"Velocity":56,"Duration":65789,"SoundDuration":65789,"Delta":148430054},{"NoteNumber":53,"Velocity":66,"Duration":65789,"SoundDuration":65789,"Delta":148430054},{"NoteNumber":45,"Velocity":56,"Duration":373040,"SoundDuration":373040,"Delta":148618024},{"NoteNumber":57,"Velocity":66,"Duration":373040,"SoundDuration":373040,"Delta":148618024},{"NoteNumber":59,"Velocity":44,"Duration":185070,"SoundDuration":185070,"Delta":148805994},{"NoteNumber":64,"Velocity":52,"Duration":185070,"SoundDuration":185070,"Delta":148805994},{"NoteNumber":60,"Velocity":44,"Duration":185070,"SoundDuration":185070,"Delta":148805994},{"NoteNumber":43,"Velocity":62,"Duration":64774,"SoundDuration":64774,"Delta":148991065},{"NoteNumber":55,"Velocity":74,"Duration":64774,"SoundDuration":64774,"Delta":148991065},{"NoteNumber":40,"Velocity":56,"Duration":66624,"SoundDuration":66624,"Delta":149176136},{"NoteNumber":52,"Velocity":66,"Duration":66624,"SoundDuration":66624,"Delta":149176136},{"NoteNumber":64,"Velocity":52,"Duration":187970,"SoundDuration":187970,"Delta":149366492},{"NoteNumber":60,"Velocity":44,"Duration":187970,"SoundDuration":187970,"Delta":149366492},{"NoteNumber":57,"Velocity":44,"Duration":187970,"SoundDuration":187970,"Delta":149366492},{"NoteNumber":43,"Velocity":67,"Duration":65789,"SoundDuration":65789,"Delta":149366492},{"NoteNumber":55,"Velocity":79,"Duration":65789,"SoundDuration":65789,"Delta":149366492},{"NoteNumber":40,"Velocity":56,"Duration":65789,"SoundDuration":65789,"Delta":149554462},{"NoteNumber":52,"Velocity":66,"Duration":65789,"SoundDuration":65789,"Delta":149554462},{"NoteNumber":43,"Velocity":56,"Duration":370230,"SoundDuration":370230,"Delta":149742432},{"NoteNumber":55,"Velocity":66,"Duration":370230,"SoundDuration":370230,"Delta":149742432},{"NoteNumber":57,"Velocity":44,"Duration":182260,"SoundDuration":182260,"Delta":149930402},{"NoteNumber":62,"Velocity":52,"Duration":182260,"SoundDuration":182260,"Delta":149930402},{"NoteNumber":59,"Velocity":44,"Duration":182260,"SoundDuration":182260,"Delta":149930402},{"NoteNumber":41,"Velocity":62,"Duration":63790,"SoundDuration":63790,"Delta":150112662},{"NoteNumber":53,"Velocity":74,"Duration":63790,"SoundDuration":63790,"Delta":150112662},{"NoteNumber":38,"Velocity":56,"Duration":68137,"SoundDuration":68137,"Delta":150294922},{"NoteNumber":50,"Velocity":66,"Duration":68137,"SoundDuration":68137,"Delta":150294922},{"NoteNumber":62,"Velocity":52,"Duration":187970,"SoundDuration":187970,"Delta":150489601},{"NoteNumber":59,"Velocity":44,"Duration":187970,"SoundDuration":187970,"Delta":150489601},{"NoteNumber":55,"Velocity":44,"Duration":187970,"SoundDuration":187970,"Delta":150489601},{"NoteNumber":41,"Velocity":67,"Duration":65789,"SoundDuration":65789,"Delta":150489601},{"NoteNumber":53,"Velocity":79,"Duration":65789,"SoundDuration":65789,"Delta":150489601},{"NoteNumber":38,"Velocity":56,"Duration":65789,"SoundDuration":65789,"Delta":150677571},{"NoteNumber":50,"Velocity":66,"Duration":65789,"SoundDuration":65789,"Delta":150677571},{"NoteNumber":41,"Velocity":56,"Duration":373041,"SoundDuration":373041,"Delta":150865541},{"NoteNumber":53,"Velocity":66,"Duration":373041,"SoundDuration":373041,"Delta":150865541},{"NoteNumber":55,"Velocity":44,"Duration":185070,"SoundDuration":185070,"Delta":151053511},{"NoteNumber":60,"Velocity":52,"Duration":185070,"SoundDuration":185070,"Delta":151053511},{"NoteNumber":57,"Velocity":44,"Duration":185070,"SoundDuration":185070,"Delta":151053511},{"NoteNumber":40,"Velocity":62,"Duration":64774,"SoundDuration":64774,"Delta":151238582},{"NoteNumber":52,"Velocity":74,"Duration":64774,"SoundDuration":64774,"Delta":151238582},{"NoteNumber":36,"Velocity":56,"Duration":66624,"SoundDuration":66624,"Delta":151423653},{"NoteNumber":48,"Velocity":66,"Duration":66624,"SoundDuration":66624,"Delta":151423653},{"NoteNumber":64,"Velocity":52,"Duration":195950,"SoundDuration":195950,"Delta":151614008},{"NoteNumber":60,"Velocity":44,"Duration":195950,"SoundDuration":195950,"Delta":151614008},{"NoteNumber":57,"Velocity":44,"Duration":195950,"SoundDuration":195950,"Delta":151614008},{"NoteNumber":40,"Velocity":59,"Duration":97975,"SoundDuration":97975,"Delta":151614008},{"NoteNumber":52,"Velocity":70,"Duration":97975,"SoundDuration":97975,"Delta":151614008},{"NoteNumber":38,"Velocity":72,"Duration":383333,"SoundDuration":383333,"Delta":151997342},{"NoteNumber":50,"Velocity":85,"Duration":383333,"SoundDuration":383333,"Delta":151997342},{"NoteNumber":57,"Velocity":44,"Duration":195950,"SoundDuration":195950,"Delta":152184725},{"NoteNumber":62,"Velocity":52,"Duration":195950,"SoundDuration":195950,"Delta":152184725},{"NoteNumber":59,"Velocity":44,"Duration":195950,"SoundDuration":195950,"Delta":152184725},{"NoteNumber":48,"Velocity":68,"Duration":70187,"SoundDuration":70187,"Delta":152380675},{"NoteNumber":60,"Velocity":81,"Duration":70187,"SoundDuration":70187,"Delta":152380675},{"NoteNumber":49,"Velocity":61,"Duration":71623,"SoundDuration":71623,"Delta":152581210},{"NoteNumber":61,"Velocity":72,"Duration":71623,"SoundDuration":71623,"Delta":152581210},{"NoteNumber":60,"Velocity":73,"Duration":48512,"SoundDuration":48512,"Delta":152785849},{"NoteNumber":56,"Velocity":73,"Duration":48512,"SoundDuration":48512,"Delta":152785849},{"NoteNumber":51,"Velocity":73,"Duration":67917,"SoundDuration":67917,"Delta":152785849},{"NoteNumber":63,"Velocity":86,"Duration":67917,"SoundDuration":67917,"Delta":152785849},{"NoteNumber":32,"Velocity":49,"Duration":194049,"SoundDuration":194049,"Delta":152785849},{"NoteNumber":39,"Velocity":49,"Duration":194049,"SoundDuration":194049,"Delta":152785849},{"NoteNumber":44,"Velocity":62,"Duration":194049,"SoundDuration":194049,"Delta":152785849},{"NoteNumber":48,"Velocity":67,"Duration":65789,"SoundDuration":65789,"Delta":152979898},{"NoteNumber":60,"Velocity":79,"Duration":65789,"SoundDuration":65789,"Delta":152979898},{"NoteNumber":51,"Velocity":63,"Duration":373040,"SoundDuration":373040,"Delta":153167868},{"NoteNumber":63,"Velocity":76,"Duration":373040,"SoundDuration":373040,"Delta":153167868},{"NoteNumber":53,"Velocity":61,"Duration":185070,"SoundDuration":185070,"Delta":153355838},{"NoteNumber":56,"Velocity":61,"Duration":185070,"SoundDuration":185070,"Delta":153355838},{"NoteNumber":41,"Velocity":55,"Duration":185070,"SoundDuration":185070,"Delta":153355838},{"NoteNumber":32,"Velocity":44,"Duration":185070,"SoundDuration":185070,"Delta":153355838},{"NoteNumber":29,"Velocity":44,"Duration":185070,"SoundDuration":185070,"Delta":153355838},{"NoteNumber":49,"Velocity":68,"Duration":64774,"SoundDuration":64774,"Delta":153540909},{"NoteNumber":61,"Velocity":81,"Duration":64774,"SoundDuration":64774,"Delta":153540909},{"NoteNumber":48,"Velocity":61,"Duration":66624,"SoundDuration":66624,"Delta":153725980},{"NoteNumber":60,"Velocity":72,"Duration":66624,"SoundDuration":66624,"Delta":153725980},{"NoteNumber":60,"Velocity":64,"Duration":97975,"SoundDuration":97975,"Delta":153916335},{"NoteNumber":56,"Velocity":64,"Duration":97975,"SoundDuration":97975,"Delta":153916335},{"NoteNumber":51,"Velocity":64,"Duration":97975,"SoundDuration":97975,"Delta":153916335},{"NoteNumber":63,"Velocity":77,"Duration":97975,"SoundDuration":97975,"Delta":153916335},{"NoteNumber":32,"Velocity":49,"Duration":195950,"SoundDuration":195950,"Delta":153916335},{"NoteNumber":39,"Velocity":49,"Duration":195950,"SoundDuration":195950,"Delta":153916335},{"NoteNumber":44,"Velocity":62,"Duration":195950,"SoundDuration":195950,"Delta":153916335},{"NoteNumber":51,"Velocity":79,"Duration":374765,"SoundDuration":374765,"Delta":154299669},{"NoteNumber":63,"Velocity":93,"Duration":374765,"SoundDuration":374765,"Delta":154299669},{"NoteNumber":53,"Velocity":61,"Duration":187383,"SoundDuration":187383,"Delta":154487052},{"NoteNumber":56,"Velocity":61,"Duration":187383,"SoundDuration":187383,"Delta":154487052},{"NoteNumber":41,"Velocity":57,"Duration":187383,"SoundDuration":187383,"Delta":154487052},{"NoteNumber":32,"Velocity":45,"Duration":187383,"SoundDuration":187383,"Delta":154487052},{"NoteNumber":29,"Velocity":45,"Duration":187383,"SoundDuration":187383,"Delta":154487052},{"NoteNumber":48,"Velocity":68,"Duration":67264,"SoundDuration":67264,"Delta":154674435},{"NoteNumber":60,"Velocity":81,"Duration":67264,"SoundDuration":67264,"Delta":154674435},{"NoteNumber":49,"Velocity":61,"Duration":69033,"SoundDuration":69033,"Delta":154866619},{"NoteNumber":61,"Velocity":72,"Duration":69033,"SoundDuration":69033,"Delta":154866619},{"NoteNumber":60,"Velocity":73,"Duration":48512,"SoundDuration":48512,"Delta":155063858},{"NoteNumber":56,"Velocity":73,"Duration":48512,"SoundDuration":48512,"Delta":155063858},{"NoteNumber":51,"Velocity":73,"Duration":67917,"SoundDuration":67917,"Delta":155063858},{"NoteNumber":63,"Velocity":86,"Duration":67917,"SoundDuration":67917,"Delta":155063858},{"NoteNumber":32,"Velocity":49,"Duration":194049,"SoundDuration":194049,"Delta":155063858},{"NoteNumber":39,"Velocity":49,"Duration":194049,"SoundDuration":194049,"Delta":155063858},{"NoteNumber":44,"Velocity":62,"Duration":194049,"SoundDuration":194049,"Delta":155063858},{"NoteNumber":48,"Velocity":67,"Duration":65789,"SoundDuration":65789,"Delta":155257907},{"NoteNumber":60,"Velocity":79,"Duration":65789,"SoundDuration":65789,"Delta":155257907},{"NoteNumber":51,"Velocity":63,"Duration":373040,"SoundDuration":373040,"Delta":155445877},{"NoteNumber":63,"Velocity":76,"Duration":373040,"SoundDuration":373040,"Delta":155445877},{"NoteNumber":53,"Velocity":61,"Duration":185070,"SoundDuration":185070,"Delta":155633847},{"NoteNumber":56,"Velocity":61,"Duration":185070,"SoundDuration":185070,"Delta":155633847},{"NoteNumber":41,"Velocity":55,"Duration":185070,"SoundDuration":185070,"Delta":155633847},{"NoteNumber":32,"Velocity":44,"Duration":185070,"SoundDuration":185070,"Delta":155633847},{"NoteNumber":29,"Velocity":44,"Duration":185070,"SoundDuration":185070,"Delta":155633847},{"NoteNumber":49,"Velocity":68,"Duration":64774,"SoundDuration":64774,"Delta":155818918},{"NoteNumber":61,"Velocity":81,"Duration":64774,"SoundDuration":64774,"Delta":155818918},{"NoteNumber":48,"Velocity":61,"Duration":66624,"SoundDuration":66624,"Delta":156003989},{"NoteNumber":60,"Velocity":72,"Duration":66624,"SoundDuration":66624,"Delta":156003989},{"NoteNumber":60,"Velocity":64,"Duration":97975,"SoundDuration":97975,"Delta":156194344},{"NoteNumber":56,"Velocity":64,"Duration":97975,"SoundDuration":97975,"Delta":156194344},{"NoteNumber":51,"Velocity":64,"Duration":97975,"SoundDuration":97975,"Delta":156194344},{"NoteNumber":63,"Velocity":77,"Duration":97975,"SoundDuration":97975,"Delta":156194344},{"NoteNumber":32,"Velocity":49,"Duration":195950,"SoundDuration":195950,"Delta":156194344},{"NoteNumber":39,"Velocity":49,"Duration":195950,"SoundDuration":195950,"Delta":156194344},{"NoteNumber":44,"Velocity":62,"Duration":195950,"SoundDuration":195950,"Delta":156194344},{"NoteNumber":51,"Velocity":79,"Duration":380806,"SoundDuration":380806,"Delta":156577678},{"NoteNumber":63,"Velocity":93,"Duration":380806,"SoundDuration":380806,"Delta":156577678},{"NoteNumber":53,"Velocity":61,"Duration":193423,"SoundDuration":193423,"Delta":156765061},{"NoteNumber":56,"Velocity":61,"Duration":193423,"SoundDuration":193423,"Delta":156765061},{"NoteNumber":41,"Velocity":57,"Duration":193423,"SoundDuration":193423,"Delta":156765061},{"NoteNumber":32,"Velocity":45,"Duration":193423,"SoundDuration":193423,"Delta":156765061},{"NoteNumber":29,"Velocity":45,"Duration":193423,"SoundDuration":193423,"Delta":156765061},{"NoteNumber":48,"Velocity":74,"Duration":70187,"SoundDuration":70187,"Delta":156958484},{"NoteNumber":60,"Velocity":89,"Duration":70187,"SoundDuration":70187,"Delta":156958484},{"NoteNumber":50,"Velocity":67,"Duration":74415,"SoundDuration":74415,"Delta":157159019},{"NoteNumber":62,"Velocity":79,"Duration":74415,"SoundDuration":74415,"Delta":157159019},{"NoteNumber":60,"Velocity":80,"Duration":48512,"SoundDuration":48512,"Delta":157371634},{"NoteNumber":55,"Velocity":68,"Duration":48512,"SoundDuration":48512,"Delta":157371634},{"NoteNumber":52,"Velocity":68,"Duration":67917,"SoundDuration":67917,"Delta":157371634},{"NoteNumber":64,"Velocity":94,"Duration":67917,"SoundDuration":67917,"Delta":157371634},{"NoteNumber":36,"Velocity":53,"Duration":194049,"SoundDuration":194049,"Delta":157371634},{"NoteNumber":43,"Velocity":53,"Duration":194049,"SoundDuration":194049,"Delta":157371634},{"NoteNumber":48,"Velocity":68,"Duration":194049,"SoundDuration":194049,"Delta":157371634},{"NoteNumber":48,"Velocity":73,"Duration":65789,"SoundDuration":65789,"Delta":157565683},{"NoteNumber":60,"Velocity":86,"Duration":65789,"SoundDuration":65789,"Delta":157565683},{"NoteNumber":52,"Velocity":69,"Duration":373040,"SoundDuration":373040,"Delta":157753653},{"NoteNumber":64,"Velocity":83,"Duration":373040,"SoundDuration":373040,"Delta":157753653},{"NoteNumber":53,"Velocity":67,"Duration":185070,"SoundDuration":185070,"Delta":157941623},{"NoteNumber":57,"Velocity":67,"Duration":185070,"SoundDuration":185070,"Delta":157941623},{"NoteNumber":41,"Velocity":60,"Duration":185070,"SoundDuration":185070,"Delta":157941623},{"NoteNumber":36,"Velocity":48,"Duration":185070,"SoundDuration":185070,"Delta":157941623},{"NoteNumber":29,"Velocity":48,"Duration":185070,"SoundDuration":185070,"Delta":157941623},{"NoteNumber":50,"Velocity":74,"Duration":64774,"SoundDuration":64774,"Delta":158126694},{"NoteNumber":62,"Velocity":89,"Duration":64774,"SoundDuration":64774,"Delta":158126694},{"NoteNumber":48,"Velocity":67,"Duration":66624,"SoundDuration":66624,"Delta":158311765},{"NoteNumber":60,"Velocity":79,"Duration":66624,"SoundDuration":66624,"Delta":158311765},{"NoteNumber":60,"Velocity":70,"Duration":101282,"SoundDuration":101282,"Delta":158502121},{"NoteNumber":55,"Velocity":70,"Duration":101282,"SoundDuration":101282,"Delta":158502121},{"NoteNumber":52,"Velocity":70,"Duration":101282,"SoundDuration":101282,"Delta":158502121},{"NoteNumber":64,"Velocity":84,"Duration":101282,"SoundDuration":101282,"Delta":158502121},{"NoteNumber":36,"Velocity":53,"Duration":202565,"SoundDuration":202565,"Delta":158502121},{"NoteNumber":43,"Velocity":53,"Duration":202565,"SoundDuration":202565,"Delta":158502121},{"NoteNumber":48,"Velocity":68,"Duration":202565,"SoundDuration":202565,"Delta":158502121},{"NoteNumber":52,"Velocity":83,"Duration":374765,"SoundDuration":374765,"Delta":158892070},{"NoteNumber":64,"Velocity":98,"Duration":374765,"SoundDuration":374765,"Delta":158892070},{"NoteNumber":53,"Velocity":67,"Duration":187383,"SoundDuration":187383,"Delta":159079453},{"NoteNumber":57,"Velocity":67,"Duration":187383,"SoundDuration":187383,"Delta":159079453},{"NoteNumber":41,"Velocity":62,"Duration":187383,"SoundDuration":187383,"Delta":159079453},{"NoteNumber":36,"Velocity":49,"Duration":187383,"SoundDuration":187383,"Delta":159079453},{"NoteNumber":29,"Velocity":49,"Duration":187383,"SoundDuration":187383,"Delta":159079453},{"NoteNumber":48,"Velocity":74,"Duration":67264,"SoundDuration":67264,"Delta":159266836},{"NoteNumber":60,"Velocity":89,"Duration":67264,"SoundDuration":67264,"Delta":159266836},{"NoteNumber":50,"Velocity":67,"Duration":69033,"SoundDuration":69033,"Delta":159459020},{"NoteNumber":62,"Velocity":79,"Duration":69033,"SoundDuration":69033,"Delta":159459020},{"NoteNumber":60,"Velocity":80,"Duration":48512,"SoundDuration":48512,"Delta":159656259},{"NoteNumber":55,"Velocity":80,"Duration":48512,"SoundDuration":48512,"Delta":159656259},{"NoteNumber":52,"Velocity":80,"Duration":67917,"SoundDuration":67917,"Delta":159656259},{"NoteNumber":64,"Velocity":94,"Duration":67917,"SoundDuration":67917,"Delta":159656259},{"NoteNumber":36,"Velocity":53,"Duration":194049,"SoundDuration":194049,"Delta":159656259},{"NoteNumber":43,"Velocity":53,"Duration":194049,"SoundDuration":194049,"Delta":159656259},{"NoteNumber":48,"Velocity":68,"Duration":194049,"SoundDuration":194049,"Delta":159656259},{"NoteNumber":48,"Velocity":73,"Duration":65789,"SoundDuration":65789,"Delta":159850308},{"NoteNumber":60,"Velocity":86,"Duration":65789,"SoundDuration":65789,"Delta":159850308},{"NoteNumber":52,"Velocity":69,"Duration":373041,"SoundDuration":373041,"Delta":160038278},{"NoteNumber":64,"Velocity":83,"Duration":373041,"SoundDuration":373041,"Delta":160038278},{"NoteNumber":53,"Velocity":67,"Duration":185070,"SoundDuration":185070,"Delta":160226248},{"NoteNumber":57,"Velocity":67,"Duration":185070,"SoundDuration":185070,"Delta":160226248},{"NoteNumber":41,"Velocity":60,"Duration":185070,"SoundDuration":185070,"Delta":160226248},{"NoteNumber":36,"Velocity":48,"Duration":185070,"SoundDuration":185070,"Delta":160226248},{"NoteNumber":29,"Velocity":48,"Duration":185070,"SoundDuration":185070,"Delta":160226248},{"NoteNumber":50,"Velocity":74,"Duration":64774,"SoundDuration":64774,"Delta":160411319},{"NoteNumber":62,"Velocity":89,"Duration":64774,"SoundDuration":64774,"Delta":160411319},{"NoteNumber":48,"Velocity":67,"Duration":66624,"SoundDuration":66624,"Delta":160596390},{"NoteNumber":60,"Velocity":79,"Duration":66624,"SoundDuration":66624,"Delta":160596390},{"NoteNumber":60,"Velocity":70,"Duration":101626,"SoundDuration":101626,"Delta":160786745},{"NoteNumber":55,"Velocity":70,"Duration":101626,"SoundDuration":101626,"Delta":160786745},{"NoteNumber":52,"Velocity":70,"Duration":101626,"SoundDuration":101626,"Delta":160786745},{"NoteNumber":64,"Velocity":84,"Duration":101626,"SoundDuration":101626,"Delta":160786745},{"NoteNumber":36,"Velocity":53,"Duration":203251,"SoundDuration":203251,"Delta":160786745},{"NoteNumber":43,"Velocity":53,"Duration":203251,"SoundDuration":203251,"Delta":160786745},{"NoteNumber":48,"Velocity":68,"Duration":203251,"SoundDuration":203251,"Delta":160786745},{"NoteNumber":52,"Velocity":83,"Duration":374765,"SoundDuration":374765,"Delta":161177380},{"NoteNumber":64,"Velocity":98,"Duration":374765,"SoundDuration":374765,"Delta":161177380},{"NoteNumber":53,"Velocity":67,"Duration":187383,"SoundDuration":187383,"Delta":161364763},{"NoteNumber":57,"Velocity":67,"Duration":187383,"SoundDuration":187383,"Delta":161364763},{"NoteNumber":41,"Velocity":62,"Duration":187383,"SoundDuration":187383,"Delta":161364763},{"NoteNumber":36,"Velocity":49,"Duration":187383,"SoundDuration":187383,"Delta":161364763},{"NoteNumber":29,"Velocity":49,"Duration":187383,"SoundDuration":187383,"Delta":161364763},{"NoteNumber":48,"Velocity":70,"Duration":48355,"SoundDuration":48355,"Delta":161552146},{"NoteNumber":60,"Velocity":70,"Duration":48355,"SoundDuration":48355,"Delta":161552146},{"NoteNumber":50,"Velocity":70,"Duration":50813,"SoundDuration":50813,"Delta":161745570},{"NoteNumber":62,"Velocity":70,"Duration":50813,"SoundDuration":50813,"Delta":161745570},{"NoteNumber":36,"Velocity":45,"Duration":203251,"SoundDuration":203251,"Delta":161948822},{"NoteNumber":43,"Velocity":45,"Duration":203251,"SoundDuration":203251,"Delta":161948822},{"NoteNumber":48,"Velocity":57,"Duration":203251,"SoundDuration":203251,"Delta":161948822},{"NoteNumber":41,"Velocity":52,"Duration":185070,"SoundDuration":185070,"Delta":162527427},{"NoteNumber":36,"Velocity":41,"Duration":185070,"SoundDuration":185070,"Delta":162527427},{"NoteNumber":29,"Velocity":41,"Duration":185070,"SoundDuration":185070,"Delta":162527427},{"NoteNumber":36,"Velocity":37,"Duration":203251,"SoundDuration":203251,"Delta":163087924},{"NoteNumber":43,"Velocity":37,"Duration":203251,"SoundDuration":203251,"Delta":163087924},{"NoteNumber":48,"Velocity":47,"Duration":203251,"SoundDuration":203251,"Delta":163087924},{"NoteNumber":52,"Velocity":58,"Duration":373041,"SoundDuration":373041,"Delta":163478559},{"NoteNumber":41,"Velocity":43,"Duration":185070,"SoundDuration":185070,"Delta":163666529},{"NoteNumber":36,"Velocity":34,"Duration":185070,"SoundDuration":185070,"Delta":163666529},{"NoteNumber":29,"Velocity":34,"Duration":185070,"SoundDuration":185070,"Delta":163666529},{"NoteNumber":48,"Velocity":62,"Duration":67049,"SoundDuration":67049,"Delta":163851600},{"NoteNumber":50,"Velocity":55,"Duration":69953,"SoundDuration":69953,"Delta":164043171},{"NoteNumber":36,"Velocity":26,"Duration":210378,"SoundDuration":210378,"Delta":164243038},{"NoteNumber":43,"Velocity":26,"Duration":210378,"SoundDuration":210378,"Delta":164243038},{"NoteNumber":48,"Velocity":34,"Duration":210378,"SoundDuration":210378,"Delta":164243038},{"NoteNumber":41,"Velocity":31,"Duration":204638,"SoundDuration":204638,"Delta":164862694},{"NoteNumber":36,"Velocity":24,"Duration":204638,"SoundDuration":204638,"Delta":164862694},{"NoteNumber":29,"Velocity":24,"Duration":204638,"SoundDuration":204638,"Delta":164862694},{"NoteNumber":36,"Velocity":40,"Duration":2259508,"SoundDuration":2259508,"Delta":165476609},{"NoteNumber":48,"Velocity":35,"Duration":574713,"SoundDuration":574713,"Delta":165476609},{"NoteNumber":47,"Velocity":32,"Duration":562149,"SoundDuration":562149,"Delta":166051322},{"NoteNumber":60,"Velocity":40,"Duration":187382,"SoundDuration":187382,"Delta":166238705},{"NoteNumber":62,"Velocity":37,"Duration":187383,"SoundDuration":187383,"Delta":166426088},{"NoteNumber":53,"Velocity":34,"Duration":562149,"SoundDuration":562149,"Delta":166613471},{"NoteNumber":64,"Velocity":45,"Duration":187382,"SoundDuration":187382,"Delta":166613471},{"NoteNumber":45,"Velocity":33,"Duration":562149,"SoundDuration":562149,"Delta":166613471},{"NoteNumber":60,"Velocity":38,"Duration":187383,"SoundDuration":187383,"Delta":166800854},{"NoteNumber":64,"Velocity":38,"Duration":279918,"SoundDuration":279918,"Delta":166988237},{"NoteNumber":55,"Velocity":34,"Duration":560497,"SoundDuration":560497,"Delta":167175620},{"NoteNumber":47,"Velocity":27,"Duration":560497,"SoundDuration":560497,"Delta":167175620},{"NoteNumber":62,"Velocity":34,"Duration":46267,"SoundDuration":46267,"Delta":167268156},{"NoteNumber":64,"Velocity":34,"Duration":46267,"SoundDuration":46267,"Delta":167314423},{"NoteNumber":62,"Velocity":43,"Duration":185070,"SoundDuration":185070,"Delta":167360691},{"NoteNumber":59,"Velocity":42,"Duration":190355,"SoundDuration":190355,"Delta":167545762},{"NoteNumber":60,"Velocity":47,"Duration":97975,"SoundDuration":97975,"Delta":167736118},{"NoteNumber":36,"Velocity":40,"Duration":2256143,"SoundDuration":2256143,"Delta":167736118},{"NoteNumber":48,"Velocity":31,"Duration":570716,"SoundDuration":570716,"Delta":167736118},{"NoteNumber":60,"Velocity":49,"Duration":327920,"SoundDuration":327920,"Delta":168119451},{"NoteNumber":47,"Velocity":27,"Duration":562149,"SoundDuration":562149,"Delta":168306834},{"NoteNumber":60,"Velocity":40,"Duration":187383,"SoundDuration":187383,"Delta":168494217},{"NoteNumber":62,"Velocity":37,"Duration":187382,"SoundDuration":187382,"Delta":168681600},{"NoteNumber":53,"Velocity":34,"Duration":562780,"SoundDuration":562780,"Delta":168868983},{"NoteNumber":64,"Velocity":45,"Duration":185643,"SoundDuration":185643,"Delta":168868983},{"NoteNumber":45,"Velocity":33,"Duration":562780,"SoundDuration":562780,"Delta":168868983},{"NoteNumber":60,"Velocity":38,"Duration":189753,"SoundDuration":189753,"Delta":169054627},{"NoteNumber":64,"Velocity":38,"Duration":279918,"SoundDuration":279918,"Delta":169244380},{"NoteNumber":55,"Velocity":34,"Duration":560497,"SoundDuration":560497,"Delta":169431763},{"NoteNumber":47,"Velocity":27,"Duration":560497,"SoundDuration":560497,"Delta":169431763},{"NoteNumber":62,"Velocity":34,"Duration":46267,"SoundDuration":46267,"Delta":169524299},{"NoteNumber":64,"Velocity":34,"Duration":46267,"SoundDuration":46267,"Delta":169570566},{"NoteNumber":62,"Velocity":43,"Duration":185070,"SoundDuration":185070,"Delta":169616834},{"NoteNumber":59,"Velocity":42,"Duration":190355,"SoundDuration":190355,"Delta":169801905},{"NoteNumber":60,"Velocity":47,"Duration":97975,"SoundDuration":97975,"Delta":169992261},{"NoteNumber":36,"Velocity":40,"Duration":570716,"SoundDuration":570716,"Delta":169992261},{"NoteNumber":48,"Velocity":31,"Duration":570716,"SoundDuration":570716,"Delta":169992261},{"NoteNumber":60,"Velocity":49,"Duration":374765,"SoundDuration":374765,"Delta":170375594},{"NoteNumber":69,"Velocity":27,"Duration":562809,"SoundDuration":562809,"Delta":170562977},{"NoteNumber":72,"Velocity":27,"Duration":562809,"SoundDuration":562809,"Delta":170562977},{"NoteNumber":77,"Velocity":36,"Duration":562809,"SoundDuration":562809,"Delta":170562977},{"NoteNumber":62,"Velocity":43,"Duration":185070,"SoundDuration":185070,"Delta":170750360},{"NoteNumber":64,"Velocity":42,"Duration":190355,"SoundDuration":190355,"Delta":170935431},{"NoteNumber":60,"Velocity":47,"Duration":97975,"SoundDuration":97975,"Delta":171125787},{"NoteNumber":67,"Velocity":31,"Duration":570716,"SoundDuration":570716,"Delta":171125787},{"NoteNumber":72,"Velocity":31,"Duration":570716,"SoundDuration":570716,"Delta":171125787},{"NoteNumber":76,"Velocity":40,"Duration":570716,"SoundDuration":570716,"Delta":171125787},{"NoteNumber":60,"Velocity":49,"Duration":374765,"SoundDuration":374765,"Delta":171509120},{"NoteNumber":65,"Velocity":27,"Duration":562809,"SoundDuration":562809,"Delta":171696503},{"NoteNumber":72,"Velocity":27,"Duration":562809,"SoundDuration":562809,"Delta":171696503},{"NoteNumber":74,"Velocity":36,"Duration":562809,"SoundDuration":562809,"Delta":171696503},{"NoteNumber":59,"Velocity":43,"Duration":185070,"SoundDuration":185070,"Delta":171883886},{"NoteNumber":55,"Velocity":42,"Duration":190355,"SoundDuration":190355,"Delta":172068957},{"NoteNumber":60,"Velocity":47,"Duration":97975,"SoundDuration":97975,"Delta":172259313},{"NoteNumber":64,"Velocity":31,"Duration":579284,"SoundDuration":579284,"Delta":172259313},{"NoteNumber":72,"Velocity":40,"Duration":579284,"SoundDuration":579284,"Delta":172259313},{"NoteNumber":60,"Velocity":41,"Duration":374765,"SoundDuration":374765,"Delta":172651214},{"NoteNumber":53,"Velocity":34,"Duration":562809,"SoundDuration":562809,"Delta":172838597},{"NoteNumber":36,"Velocity":22,"Duration":2274208,"SoundDuration":2274208,"Delta":172838597},{"NoteNumber":45,"Velocity":30,"Duration":562809,"SoundDuration":562809,"Delta":172838597},{"NoteNumber":62,"Velocity":36,"Duration":185070,"SoundDuration":185070,"Delta":173025980},{"NoteNumber":64,"Velocity":35,"Duration":190355,"SoundDuration":190355,"Delta":173211051},{"NoteNumber":52,"Velocity":34,"Duration":570716,"SoundDuration":570716,"Delta":173401406},{"NoteNumber":60,"Velocity":39,"Duration":97975,"SoundDuration":97975,"Delta":173401406},{"NoteNumber":43,"Velocity":34,"Duration":570716,"SoundDuration":570716,"Delta":173401406},{"NoteNumber":60,"Velocity":34,"Duration":374765,"SoundDuration":374765,"Delta":173784740},{"NoteNumber":50,"Velocity":28,"Duration":562809,"SoundDuration":562809,"Delta":173972123},{"NoteNumber":41,"Velocity":25,"Duration":562809,"SoundDuration":562809,"Delta":173972123},{"NoteNumber":59,"Velocity":30,"Duration":185070,"SoundDuration":185070,"Delta":174159506},{"NoteNumber":55,"Velocity":29,"Duration":190355,"SoundDuration":190355,"Delta":174344577},{"NoteNumber":52,"Velocity":28,"Duration":97975,"SoundDuration":97975,"Delta":174534932},{"NoteNumber":60,"Velocity":33,"Duration":97975,"SoundDuration":97975,"Delta":174534932},{"NoteNumber":43,"Velocity":28,"Duration":577872,"SoundDuration":577872,"Delta":174534932},{"NoteNumber":52,"Velocity":28,"Duration":763844,"SoundDuration":763844,"Delta":174921844},{"NoteNumber":60,"Velocity":33,"Duration":763844,"SoundDuration":763844,"Delta":174921844},{"NoteNumber":36,"Velocity":22,"Duration":1177955,"SoundDuration":1177955,"Delta":175112805},{"NoteNumber":43,"Velocity":22,"Duration":1177955,"SoundDuration":1177955,"Delta":175112805},{"NoteNumber":72,"Velocity":28,"Duration":102669,"SoundDuration":102669,"Delta":175685688},{"NoteNumber":64,"Velocity":23,"Duration":102669,"SoundDuration":102669,"Delta":175685688},{"NoteNumber":72,"Velocity":28,"Duration":819220,"SoundDuration":819220,"Delta":176090894},{"NoteNumber":64,"Velocity":23,"Duration":819220,"SoundDuration":819220,"Delta":176090894},{"NoteNumber":48,"Velocity":18,"Duration":1396911,"SoundDuration":1396911,"Delta":176290761},{"NoteNumber":55,"Velocity":18,"Duration":1396911,"SoundDuration":1396911,"Delta":176290761},{"NoteNumber":76,"Velocity":19,"Duration":122349,"SoundDuration":122349,"Delta":176910114},{"NoteNumber":84,"Velocity":23,"Duration":122349,"SoundDuration":122349,"Delta":176910114},{"NoteNumber":76,"Velocity":19,"Duration":3197159,"SoundDuration":3197159,"Delta":177421242},{"NoteNumber":84,"Velocity":23,"Duration":3197159,"SoundDuration":3197159,"Delta":177421242},{"NoteNumber":60,"Velocity":15,"Duration":2930730,"SoundDuration":2930730,"Delta":177687672},{"NoteNumber":67,"Velocity":15,"Duration":2930730,"SoundDuration":2930730,"Delta":177687672}],"license":{"name":"Creative Commons Attribution-ShareAlike 3.0 Germany","url":"http://creativecommons.org/licenses/by-sa/3.0/de/deed.en","text":"The MIDI files in this folder were downloaded from http://www.piano-midi.de and are licensed under the Creative Commons Attribution-ShareAlike 3.0 Germany license by Bernd Krueger.\n\nThe MIDI, audio(MP3, OGG) and video files of Bernd Krueger are licensed under the cc-by-sa Germany License . This means, that you can use and adapt the files, as long as you attribute to the copyright holder Name: Bernd Krueger Source: http://www.piano-midi.de The distribution or public playback of the files is only allowed under identical license conditions . The scores are open source.","attribution":"Bernd Krueger","attributionUrl":"http://www.piano-midi.de"}}