{"title":"Norwegischer Tanz","artist":"Grieg","durationMs":49882,"midiSha256":"9567f62ce65cb2d86f066870fb81840c94036db734dca9ca7b2e483529bddba8","midiObject":[{"NoteNumber":87,"Velocity":70,"Duration":74999,"SoundDuration":74999,"Delta":0},{"NoteNumber":86,"Velocity":77,"Duration":323974,"SoundDuration":323974,"Delta":75000},{"NoteNumber":86,"Velocity":70,"Duration":313807,"SoundDuration":313807,"Delta":398974},{"NoteNumber":82,"Velocity":58,"Duration":156903,"SoundDuration":156903,"Delta":398974},{"NoteNumber":67,"Velocity":41,"Duration":957528,"SoundDuration":957528,"Delta":398974},{"NoteNumber":74,"Velocity":49,"Duration":877399,"SoundDuration":877399,"Delta":398974},{"NoteNumber":79,"Velocity":70,"Duration":156903,"SoundDuration":156903,"Delta":555877},{"NoteNumber":79,"Velocity":63,"Duration":318809,"SoundDuration":318809,"Delta":712781},{"NoteNumber":81,"Velocity":75,"Duration":318809,"SoundDuration":318809,"Delta":712781},{"NoteNumber":72,"Velocity":54,"Duration":318809,"SoundDuration":318809,"Delta":712781},{"NoteNumber":81,"Velocity":68,"Duration":244782,"SoundDuration":244782,"Delta":1031591},{"NoteNumber":78,"Velocity":57,"Duration":164654,"SoundDuration":164654,"Delta":1031591},{"NoteNumber":69,"Velocity":49,"Duration":244782,"SoundDuration":244782,"Delta":1031591},{"NoteNumber":74,"Velocity":68,"Duration":160256,"SoundDuration":160256,"Delta":1196245},{"NoteNumber":87,"Velocity":70,"Duration":80128,"SoundDuration":80128,"Delta":1276373},{"NoteNumber":86,"Velocity":77,"Duration":320513,"SoundDuration":320513,"Delta":1356502},{"NoteNumber":86,"Velocity":71,"Duration":312174,"SoundDuration":312174,"Delta":1677015},{"NoteNumber":82,"Velocity":59,"Duration":156087,"SoundDuration":156087,"Delta":1677015},{"NoteNumber":67,"Velocity":41,"Duration":943442,"SoundDuration":943442,"Delta":1677015},{"NoteNumber":74,"Velocity":49,"Duration":943442,"SoundDuration":943442,"Delta":1677015},{"NoteNumber":79,"Velocity":72,"Duration":156087,"SoundDuration":156087,"Delta":1833102},{"NoteNumber":79,"Velocity":66,"Duration":322233,"SoundDuration":322233,"Delta":1989190},{"NoteNumber":81,"Velocity":78,"Duration":322233,"SoundDuration":322233,"Delta":1989190},{"NoteNumber":72,"Velocity":56,"Duration":322233,"SoundDuration":322233,"Delta":1989190},{"NoteNumber":81,"Velocity":72,"Duration":309033,"SoundDuration":309033,"Delta":2311424},{"NoteNumber":78,"Velocity":60,"Duration":156903,"SoundDuration":156903,"Delta":2311424},{"NoteNumber":69,"Velocity":52,"Duration":309033,"SoundDuration":309033,"Delta":2311424},{"NoteNumber":74,"Velocity":73,"Duration":152129,"SoundDuration":152129,"Delta":2468327},{"NoteNumber":91,"Velocity":69,"Duration":156903,"SoundDuration":156903,"Delta":2620457},{"NoteNumber":93,"Velocity":82,"Duration":315466,"SoundDuration":315466,"Delta":2620457},{"NoteNumber":90,"Velocity":66,"Duration":158562,"SoundDuration":158562,"Delta":2777361},{"NoteNumber":86,"Velocity":70,"Duration":158562,"SoundDuration":158562,"Delta":2935923},{"NoteNumber":81,"Velocity":78,"Duration":318714,"SoundDuration":318714,"Delta":2935923},{"NoteNumber":79,"Velocity":65,"Duration":158562,"SoundDuration":158562,"Delta":2935923},{"NoteNumber":78,"Velocity":63,"Duration":162866,"SoundDuration":162866,"Delta":3094486},{"NoteNumber":79,"Velocity":61,"Duration":158562,"SoundDuration":158562,"Delta":3257352},{"NoteNumber":81,"Velocity":73,"Duration":317124,"SoundDuration":317124,"Delta":3257352},{"NoteNumber":74,"Velocity":66,"Duration":158562,"SoundDuration":158562,"Delta":3257352},{"NoteNumber":78,"Velocity":58,"Duration":158562,"SoundDuration":158562,"Delta":3415914},{"NoteNumber":74,"Velocity":62,"Duration":158562,"SoundDuration":158562,"Delta":3574477},{"NoteNumber":67,"Velocity":57,"Duration":158562,"SoundDuration":158562,"Delta":3574477},{"NoteNumber":69,"Velocity":69,"Duration":324106,"SoundDuration":324106,"Delta":3574477},{"NoteNumber":66,"Velocity":56,"Duration":168350,"SoundDuration":168350,"Delta":3733039},{"NoteNumber":67,"Velocity":53,"Duration":173430,"SoundDuration":173430,"Delta":3901389},{"NoteNumber":69,"Velocity":63,"Duration":356379,"SoundDuration":356379,"Delta":3901389},{"NoteNumber":62,"Velocity":57,"Duration":173430,"SoundDuration":173430,"Delta":3901389},{"NoteNumber":66,"Velocity":54,"Duration":182949,"SoundDuration":182949,"Delta":4074819},{"NoteNumber":62,"Velocity":57,"Duration":384318,"SoundDuration":384318,"Delta":4257769},{"NoteNumber":50,"Velocity":46,"Duration":182949,"SoundDuration":182949,"Delta":4257769},{"NoteNumber":66,"Velocity":50,"Duration":201369,"SoundDuration":201369,"Delta":4440718},{"NoteNumber":67,"Velocity":57,"Duration":625074,"SoundDuration":625074,"Delta":4642087},{"NoteNumber":43,"Velocity":43,"Duration":625074,"SoundDuration":625074,"Delta":4642087},{"NoteNumber":55,"Velocity":51,"Duration":625074,"SoundDuration":625074,"Delta":4642087},{"NoteNumber":75,"Velocity":63,"Duration":75000,"SoundDuration":75000,"Delta":5267162},{"NoteNumber":74,"Velocity":69,"Duration":323973,"SoundDuration":323973,"Delta":5342162},{"NoteNumber":74,"Velocity":66,"Duration":313807,"SoundDuration":313807,"Delta":5666136},{"NoteNumber":70,"Velocity":55,"Duration":156903,"SoundDuration":156903,"Delta":5666136},{"NoteNumber":55,"Velocity":36,"Duration":957528,"SoundDuration":957528,"Delta":5666136},{"NoteNumber":62,"Velocity":44,"Duration":877399,"SoundDuration":877399,"Delta":5666136},{"NoteNumber":67,"Velocity":63,"Duration":156903,"SoundDuration":156903,"Delta":5823040},{"NoteNumber":67,"Velocity":56,"Duration":318810,"SoundDuration":318810,"Delta":5979943},{"NoteNumber":69,"Velocity":67,"Duration":318810,"SoundDuration":318810,"Delta":5979943},{"NoteNumber":60,"Velocity":48,"Duration":318810,"SoundDuration":318810,"Delta":5979943},{"NoteNumber":69,"Velocity":61,"Duration":244782,"SoundDuration":244782,"Delta":6298753},{"NoteNumber":66,"Velocity":51,"Duration":164654,"SoundDuration":164654,"Delta":6298753},{"NoteNumber":57,"Velocity":44,"Duration":324910,"SoundDuration":324910,"Delta":6298753},{"NoteNumber":62,"Velocity":61,"Duration":160256,"SoundDuration":160256,"Delta":6463408},{"NoteNumber":75,"Velocity":63,"Duration":80128,"SoundDuration":80128,"Delta":6543536},{"NoteNumber":74,"Velocity":69,"Duration":320512,"SoundDuration":320512,"Delta":6623664},{"NoteNumber":74,"Velocity":67,"Duration":312174,"SoundDuration":312174,"Delta":6944177},{"NoteNumber":70,"Velocity":56,"Duration":156087,"SoundDuration":156087,"Delta":6944177},{"NoteNumber":55,"Velocity":36,"Duration":943442,"SoundDuration":943442,"Delta":6944177},{"NoteNumber":62,"Velocity":44,"Duration":943442,"SoundDuration":943442,"Delta":6944177},{"NoteNumber":67,"Velocity":64,"Duration":156087,"SoundDuration":156087,"Delta":7100265},{"NoteNumber":67,"Velocity":59,"Duration":322233,"SoundDuration":322233,"Delta":7256352},{"NoteNumber":69,"Velocity":70,"Duration":322233,"SoundDuration":322233,"Delta":7256352},{"NoteNumber":60,"Velocity":50,"Duration":322233,"SoundDuration":322233,"Delta":7256352},{"NoteNumber":66,"Velocity":54,"Duration":156903,"SoundDuration":156903,"Delta":7578586},{"NoteNumber":69,"Velocity":64,"Duration":309033,"SoundDuration":309033,"Delta":7578586},{"NoteNumber":57,"Velocity":46,"Duration":309033,"SoundDuration":309033,"Delta":7578586},{"NoteNumber":62,"Velocity":65,"Duration":152129,"SoundDuration":152129,"Delta":7735490},{"NoteNumber":79,"Velocity":62,"Duration":156903,"SoundDuration":156903,"Delta":7887620},{"NoteNumber":81,"Velocity":73,"Duration":315465,"SoundDuration":315465,"Delta":7887620},{"NoteNumber":78,"Velocity":64,"Duration":158562,"SoundDuration":158562,"Delta":8044523},{"NoteNumber":74,"Velocity":63,"Duration":158562,"SoundDuration":158562,"Delta":8203086},{"NoteNumber":67,"Velocity":58,"Duration":158562,"SoundDuration":158562,"Delta":8203086},{"NoteNumber":69,"Velocity":70,"Duration":318714,"SoundDuration":318714,"Delta":8203086},{"NoteNumber":66,"Velocity":62,"Duration":162866,"SoundDuration":162866,"Delta":8361648},{"NoteNumber":67,"Velocity":54,"Duration":158562,"SoundDuration":158562,"Delta":8524514},{"NoteNumber":69,"Velocity":65,"Duration":317124,"SoundDuration":317124,"Delta":8524514},{"NoteNumber":62,"Velocity":59,"Duration":158562,"SoundDuration":158562,"Delta":8524514},{"NoteNumber":66,"Velocity":55,"Duration":158562,"SoundDuration":158562,"Delta":8683077},{"NoteNumber":62,"Velocity":55,"Duration":158562,"SoundDuration":158562,"Delta":8841639},{"NoteNumber":55,"Velocity":51,"Duration":158562,"SoundDuration":158562,"Delta":8841639},{"NoteNumber":57,"Velocity":62,"Duration":324106,"SoundDuration":324106,"Delta":8841639},{"NoteNumber":54,"Velocity":54,"Duration":168350,"SoundDuration":168350,"Delta":9000201},{"NoteNumber":55,"Velocity":47,"Duration":173430,"SoundDuration":173430,"Delta":9168551},{"NoteNumber":57,"Velocity":56,"Duration":363328,"SoundDuration":363328,"Delta":9168551},{"NoteNumber":50,"Velocity":51,"Duration":173430,"SoundDuration":173430,"Delta":9168551},{"NoteNumber":54,"Velocity":43,"Duration":189897,"SoundDuration":189897,"Delta":9341982},{"NoteNumber":50,"Velocity":51,"Duration":409731,"SoundDuration":409731,"Delta":9531879},{"NoteNumber":38,"Velocity":41,"Duration":201369,"SoundDuration":201369,"Delta":9531879},{"NoteNumber":54,"Velocity":45,"Duration":208362,"SoundDuration":208362,"Delta":9733249},{"NoteNumber":55,"Velocity":51,"Duration":632606,"SoundDuration":632606,"Delta":9941611},{"NoteNumber":31,"Velocity":38,"Duration":632606,"SoundDuration":632606,"Delta":9941611},{"NoteNumber":43,"Velocity":45,"Duration":632606,"SoundDuration":632606,"Delta":9941611},{"NoteNumber":79,"Velocity":50,"Duration":74999,"SoundDuration":74999,"Delta":10574217},{"NoteNumber":77,"Velocity":55,"Duration":161986,"SoundDuration":161986,"Delta":10649217},{"NoteNumber":77,"Velocity":52,"Duration":313807,"SoundDuration":313807,"Delta":10973191},{"NoteNumber":58,"Velocity":28,"Duration":944635,"SoundDuration":944635,"Delta":10973191},{"NoteNumber":65,"Velocity":35,"Duration":944635,"SoundDuration":944635,"Delta":10973191},{"NoteNumber":74,"Velocity":50,"Duration":156903,"SoundDuration":156903,"Delta":11130095},{"NoteNumber":75,"Velocity":55,"Duration":317675,"SoundDuration":317675,"Delta":11286999},{"NoteNumber":67,"Velocity":34,"Duration":317675,"SoundDuration":317675,"Delta":11286999},{"NoteNumber":75,"Velocity":52,"Duration":156576,"SoundDuration":156576,"Delta":11604674},{"NoteNumber":77,"Velocity":45,"Duration":634022,"SoundDuration":634022,"Delta":11604674},{"NoteNumber":69,"Velocity":34,"Duration":313152,"SoundDuration":313152,"Delta":11604674},{"NoteNumber":72,"Velocity":50,"Duration":156576,"SoundDuration":156576,"Delta":11761251},{"NoteNumber":74,"Velocity":52,"Duration":320869,"SoundDuration":320869,"Delta":11917827},{"NoteNumber":74,"Velocity":52,"Duration":156576,"SoundDuration":156576,"Delta":12238697},{"NoteNumber":77,"Velocity":45,"Duration":630500,"SoundDuration":630500,"Delta":12238697},{"NoteNumber":58,"Velocity":28,"Duration":1372075,"SoundDuration":1372075,"Delta":12238697},{"NoteNumber":65,"Velocity":35,"Duration":1372075,"SoundDuration":1372075,"Delta":12238697},{"NoteNumber":70,"Velocity":50,"Duration":156576,"SoundDuration":156576,"Delta":12395273},{"NoteNumber":72,"Velocity":52,"Duration":317348,"SoundDuration":317348,"Delta":12551849},{"NoteNumber":63,"Velocity":32,"Duration":317348,"SoundDuration":317348,"Delta":12551849},{"NoteNumber":77,"Velocity":42,"Duration":741574,"SoundDuration":741574,"Delta":12869197},{"NoteNumber":72,"Velocity":52,"Duration":164293,"SoundDuration":164293,"Delta":12869197},{"NoteNumber":60,"Velocity":32,"Duration":336114,"SoundDuration":336114,"Delta":12869197},{"NoteNumber":69,"Velocity":50,"Duration":171821,"SoundDuration":171821,"Delta":13033491},{"NoteNumber":70,"Velocity":52,"Duration":405459,"SoundDuration":405459,"Delta":13205312},{"NoteNumber":62,"Velocity":40,"Duration":405459,"SoundDuration":405459,"Delta":13205312},{"NoteNumber":77,"Velocity":45,"Duration":166112,"SoundDuration":166112,"Delta":13610772},{"NoteNumber":53,"Velocity":38,"Duration":166112,"SoundDuration":166112,"Delta":13610772},{"NoteNumber":82,"Velocity":40,"Duration":166113,"SoundDuration":166113,"Delta":13776885},{"NoteNumber":46,"Velocity":33,"Duration":166113,"SoundDuration":166113,"Delta":13776885},{"NoteNumber":70,"Velocity":42,"Duration":170842,"SoundDuration":170842,"Delta":13942998},{"NoteNumber":62,"Velocity":33,"Duration":170842,"SoundDuration":170842,"Delta":13942998},{"NoteNumber":77,"Velocity":45,"Duration":166112,"SoundDuration":166112,"Delta":14284683},{"NoteNumber":53,"Velocity":38,"Duration":166112,"SoundDuration":166112,"Delta":14284683},{"NoteNumber":82,"Velocity":41,"Duration":166113,"SoundDuration":166113,"Delta":14450796},{"NoteNumber":46,"Velocity":33,"Duration":166113,"SoundDuration":166113,"Delta":14450796},{"NoteNumber":70,"Velocity":41,"Duration":169875,"SoundDuration":169875,"Delta":14616909},{"NoteNumber":62,"Velocity":33,"Duration":169875,"SoundDuration":169875,"Delta":14616909},{"NoteNumber":77,"Velocity":45,"Duration":190355,"SoundDuration":190355,"Delta":14956660},{"NoteNumber":53,"Velocity":38,"Duration":190355,"SoundDuration":190355,"Delta":14956660},{"NoteNumber":82,"Velocity":41,"Duration":204638,"SoundDuration":204638,"Delta":15147016},{"NoteNumber":46,"Velocity":33,"Duration":204638,"SoundDuration":204638,"Delta":15147016},{"NoteNumber":70,"Velocity":41,"Duration":186358,"SoundDuration":186358,"Delta":15351654},{"NoteNumber":62,"Velocity":34,"Duration":186358,"SoundDuration":186358,"Delta":15351654},{"NoteNumber":67,"Velocity":47,"Duration":74999,"SoundDuration":74999,"Delta":16003909},{"NoteNumber":65,"Velocity":52,"Duration":161986,"SoundDuration":161986,"Delta":16078909},{"NoteNumber":65,"Velocity":49,"Duration":313807,"SoundDuration":313807,"Delta":16402883},{"NoteNumber":46,"Velocity":26,"Duration":944635,"SoundDuration":944635,"Delta":16402883},{"NoteNumber":53,"Velocity":33,"Duration":944635,"SoundDuration":944635,"Delta":16402883},{"NoteNumber":62,"Velocity":47,"Duration":156903,"SoundDuration":156903,"Delta":16559787},{"NoteNumber":63,"Velocity":52,"Duration":317675,"SoundDuration":317675,"Delta":16716690},{"NoteNumber":55,"Velocity":32,"Duration":317675,"SoundDuration":317675,"Delta":16716690},{"NoteNumber":63,"Velocity":49,"Duration":156576,"SoundDuration":156576,"Delta":17034366},{"NoteNumber":65,"Velocity":42,"Duration":634022,"SoundDuration":634022,"Delta":17034366},{"NoteNumber":57,"Velocity":32,"Duration":313152,"SoundDuration":313152,"Delta":17034366},{"NoteNumber":60,"Velocity":47,"Duration":156576,"SoundDuration":156576,"Delta":17190942},{"NoteNumber":62,"Velocity":49,"Duration":320869,"SoundDuration":320869,"Delta":17347519},{"NoteNumber":62,"Velocity":49,"Duration":156576,"SoundDuration":156576,"Delta":17668388},{"NoteNumber":65,"Velocity":42,"Duration":630500,"SoundDuration":630500,"Delta":17668388},{"NoteNumber":46,"Velocity":26,"Duration":1374834,"SoundDuration":1374834,"Delta":17668388},{"NoteNumber":53,"Velocity":33,"Duration":1374834,"SoundDuration":1374834,"Delta":17668388},{"NoteNumber":58,"Velocity":47,"Duration":156576,"SoundDuration":156576,"Delta":17824965},{"NoteNumber":60,"Velocity":49,"Duration":317347,"SoundDuration":317347,"Delta":17981541},{"NoteNumber":51,"Velocity":30,"Duration":317347,"SoundDuration":317347,"Delta":17981541},{"NoteNumber":65,"Velocity":39,"Duration":744333,"SoundDuration":744333,"Delta":18298889},{"NoteNumber":60,"Velocity":49,"Duration":164293,"SoundDuration":164293,"Delta":18298889},{"NoteNumber":48,"Velocity":30,"Duration":336114,"SoundDuration":336114,"Delta":18298889},{"NoteNumber":57,"Velocity":47,"Duration":171821,"SoundDuration":171821,"Delta":18463182},{"NoteNumber":58,"Velocity":49,"Duration":408218,"SoundDuration":408218,"Delta":18635004},{"NoteNumber":50,"Velocity":38,"Duration":408218,"SoundDuration":408218,"Delta":18635004},{"NoteNumber":69,"Velocity":42,"Duration":169875,"SoundDuration":169875,"Delta":19043222},{"NoteNumber":45,"Velocity":36,"Duration":169875,"SoundDuration":169875,"Delta":19043222},{"NoteNumber":74,"Velocity":38,"Duration":169875,"SoundDuration":169875,"Delta":19213098},{"NoteNumber":38,"Velocity":31,"Duration":169875,"SoundDuration":169875,"Delta":19213098},{"NoteNumber":62,"Velocity":39,"Duration":180071,"SoundDuration":180071,"Delta":19382973},{"NoteNumber":54,"Velocity":31,"Duration":180071,"SoundDuration":180071,"Delta":19382973},{"NoteNumber":69,"Velocity":42,"Duration":174825,"SoundDuration":174825,"Delta":19743117},{"NoteNumber":45,"Velocity":36,"Duration":174825,"SoundDuration":174825,"Delta":19743117},{"NoteNumber":74,"Velocity":38,"Duration":174825,"SoundDuration":174825,"Delta":19917943},{"NoteNumber":38,"Velocity":31,"Duration":174825,"SoundDuration":174825,"Delta":19917943},{"NoteNumber":62,"Velocity":38,"Duration":212796,"SoundDuration":212796,"Delta":20092768},{"NoteNumber":54,"Velocity":31,"Duration":212796,"SoundDuration":212796,"Delta":20092768},{"NoteNumber":69,"Velocity":42,"Duration":258665,"SoundDuration":258665,"Delta":20518360},{"NoteNumber":45,"Velocity":36,"Duration":258665,"SoundDuration":258665,"Delta":20518360},{"NoteNumber":74,"Velocity":38,"Duration":319216,"SoundDuration":319216,"Delta":20777026},{"NoteNumber":38,"Velocity":31,"Duration":319216,"SoundDuration":319216,"Delta":20777026},{"NoteNumber":62,"Velocity":38,"Duration":202729,"SoundDuration":202729,"Delta":21096242},{"NoteNumber":54,"Velocity":32,"Duration":202729,"SoundDuration":202729,"Delta":21096242},{"NoteNumber":63,"Velocity":50,"Duration":81699,"SoundDuration":81699,"Delta":21805797},{"NoteNumber":62,"Velocity":61,"Duration":575027,"SoundDuration":575027,"Delta":21887497},{"NoteNumber":70,"Velocity":52,"Duration":82146,"SoundDuration":82146,"Delta":22462524},{"NoteNumber":69,"Velocity":61,"Duration":575027,"SoundDuration":575027,"Delta":22544671},{"NoteNumber":75,"Velocity":54,"Duration":82146,"SoundDuration":82146,"Delta":23119698},{"NoteNumber":74,"Velocity":65,"Duration":575027,"SoundDuration":575027,"Delta":23201845},{"NoteNumber":82,"Velocity":61,"Duration":82146,"SoundDuration":82146,"Delta":23776872},{"NoteNumber":81,"Velocity":72,"Duration":575027,"SoundDuration":575027,"Delta":23859019},{"NoteNumber":87,"Velocity":70,"Duration":74999,"SoundDuration":74999,"Delta":24434046},{"NoteNumber":86,"Velocity":77,"Duration":323973,"SoundDuration":323973,"Delta":24509046},{"NoteNumber":86,"Velocity":70,"Duration":313807,"SoundDuration":313807,"Delta":24833020},{"NoteNumber":82,"Velocity":58,"Duration":156903,"SoundDuration":156903,"Delta":24833020},{"NoteNumber":67,"Velocity":41,"Duration":957528,"SoundDuration":957528,"Delta":24833020},{"NoteNumber":74,"Velocity":49,"Duration":877400,"SoundDuration":877400,"Delta":24833020},{"NoteNumber":79,"Velocity":70,"Duration":156903,"SoundDuration":156903,"Delta":24989924},{"NoteNumber":79,"Velocity":63,"Duration":318809,"SoundDuration":318809,"Delta":25146828},{"NoteNumber":81,"Velocity":75,"Duration":318809,"SoundDuration":318809,"Delta":25146828},{"NoteNumber":72,"Velocity":54,"Duration":318809,"SoundDuration":318809,"Delta":25146828},{"NoteNumber":81,"Velocity":68,"Duration":244782,"SoundDuration":244782,"Delta":25465638},{"NoteNumber":78,"Velocity":57,"Duration":164654,"SoundDuration":164654,"Delta":25465638},{"NoteNumber":69,"Velocity":49,"Duration":244782,"SoundDuration":244782,"Delta":25465638},{"NoteNumber":74,"Velocity":68,"Duration":160256,"SoundDuration":160256,"Delta":25630292},{"NoteNumber":87,"Velocity":70,"Duration":80128,"SoundDuration":80128,"Delta":25710420},{"NoteNumber":86,"Velocity":77,"Duration":320512,"SoundDuration":320512,"Delta":25790548},{"NoteNumber":86,"Velocity":71,"Duration":312174,"SoundDuration":312174,"Delta":26111061},{"NoteNumber":82,"Velocity":59,"Duration":156087,"SoundDuration":156087,"Delta":26111061},{"NoteNumber":67,"Velocity":41,"Duration":943442,"SoundDuration":943442,"Delta":26111061},{"NoteNumber":74,"Velocity":49,"Duration":943442,"SoundDuration":943442,"Delta":26111061},{"NoteNumber":79,"Velocity":72,"Duration":156087,"SoundDuration":156087,"Delta":26267149},{"NoteNumber":79,"Velocity":66,"Duration":322234,"SoundDuration":322234,"Delta":26423236},{"NoteNumber":81,"Velocity":78,"Duration":322234,"SoundDuration":322234,"Delta":26423236},{"NoteNumber":72,"Velocity":56,"Duration":322234,"SoundDuration":322234,"Delta":26423236},{"NoteNumber":81,"Velocity":72,"Duration":309033,"SoundDuration":309033,"Delta":26745470},{"NoteNumber":78,"Velocity":60,"Duration":156903,"SoundDuration":156903,"Delta":26745470},{"NoteNumber":69,"Velocity":52,"Duration":309033,"SoundDuration":309033,"Delta":26745470},{"NoteNumber":74,"Velocity":73,"Duration":152129,"SoundDuration":152129,"Delta":26902374},{"NoteNumber":79,"Velocity":69,"Duration":156903,"SoundDuration":156903,"Delta":27054504},{"NoteNumber":81,"Velocity":82,"Duration":315466,"SoundDuration":315466,"Delta":27054504},{"NoteNumber":78,"Velocity":66,"Duration":158562,"SoundDuration":158562,"Delta":27211408},{"NoteNumber":74,"Velocity":70,"Duration":158562,"SoundDuration":158562,"Delta":27369970},{"NoteNumber":69,"Velocity":78,"Duration":318714,"SoundDuration":318714,"Delta":27369970},{"NoteNumber":67,"Velocity":65,"Duration":158562,"SoundDuration":158562,"Delta":27369970},{"NoteNumber":66,"Velocity":63,"Duration":162866,"SoundDuration":162866,"Delta":27528532},{"NoteNumber":69,"Velocity":73,"Duration":317124,"SoundDuration":317124,"Delta":27691399},{"NoteNumber":67,"Velocity":61,"Duration":158562,"SoundDuration":158562,"Delta":27691399},{"NoteNumber":62,"Velocity":66,"Duration":158562,"SoundDuration":158562,"Delta":27691399},{"NoteNumber":66,"Velocity":59,"Duration":158562,"SoundDuration":158562,"Delta":27849961},{"NoteNumber":62,"Velocity":62,"Duration":158562,"SoundDuration":158562,"Delta":28008523},{"NoteNumber":57,"Velocity":69,"Duration":324106,"SoundDuration":324106,"Delta":28008523},{"NoteNumber":55,"Velocity":57,"Duration":158562,"SoundDuration":158562,"Delta":28008523},{"NoteNumber":54,"Velocity":56,"Duration":168350,"SoundDuration":168350,"Delta":28167085},{"NoteNumber":55,"Velocity":53,"Duration":172433,"SoundDuration":172433,"Delta":28335436},{"NoteNumber":57,"Velocity":63,"Duration":362331,"SoundDuration":362331,"Delta":28335436},{"NoteNumber":50,"Velocity":57,"Duration":172433,"SoundDuration":172433,"Delta":28335436},{"NoteNumber":54,"Velocity":48,"Duration":189897,"SoundDuration":189897,"Delta":28507869},{"NoteNumber":50,"Velocity":57,"Duration":383043,"SoundDuration":383043,"Delta":28697767},{"NoteNumber":38,"Velocity":46,"Duration":205507,"SoundDuration":205507,"Delta":28697767},{"NoteNumber":54,"Velocity":50,"Duration":177535,"SoundDuration":177535,"Delta":28903274},{"NoteNumber":55,"Velocity":57,"Duration":621375,"SoundDuration":621375,"Delta":29080810},{"NoteNumber":31,"Velocity":43,"Duration":621375,"SoundDuration":621375,"Delta":29080810},{"NoteNumber":43,"Velocity":51,"Duration":621375,"SoundDuration":621375,"Delta":29080810},{"NoteNumber":79,"Velocity":50,"Duration":74999,"SoundDuration":74999,"Delta":29702185},{"NoteNumber":77,"Velocity":55,"Duration":161986,"SoundDuration":161986,"Delta":29777185},{"NoteNumber":77,"Velocity":52,"Duration":313807,"SoundDuration":313807,"Delta":30101159},{"NoteNumber":58,"Velocity":28,"Duration":944635,"SoundDuration":944635,"Delta":30101159},{"NoteNumber":65,"Velocity":35,"Duration":944635,"SoundDuration":944635,"Delta":30101159},{"NoteNumber":74,"Velocity":50,"Duration":156903,"SoundDuration":156903,"Delta":30258063},{"NoteNumber":75,"Velocity":55,"Duration":317675,"SoundDuration":317675,"Delta":30414966},{"NoteNumber":67,"Velocity":34,"Duration":317675,"SoundDuration":317675,"Delta":30414966},{"NoteNumber":75,"Velocity":52,"Duration":156576,"SoundDuration":156576,"Delta":30732642},{"NoteNumber":77,"Velocity":45,"Duration":634022,"SoundDuration":634022,"Delta":30732642},{"NoteNumber":69,"Velocity":34,"Duration":313152,"SoundDuration":313152,"Delta":30732642},{"NoteNumber":72,"Velocity":50,"Duration":156576,"SoundDuration":156576,"Delta":30889218},{"NoteNumber":74,"Velocity":52,"Duration":320869,"SoundDuration":320869,"Delta":31045794},{"NoteNumber":74,"Velocity":52,"Duration":156576,"SoundDuration":156576,"Delta":31366664},{"NoteNumber":77,"Velocity":45,"Duration":630500,"SoundDuration":630500,"Delta":31366664},{"NoteNumber":58,"Velocity":28,"Duration":1364018,"SoundDuration":1364018,"Delta":31366664},{"NoteNumber":65,"Velocity":35,"Duration":1364018,"SoundDuration":1364018,"Delta":31366664},{"NoteNumber":70,"Velocity":50,"Duration":156576,"SoundDuration":156576,"Delta":31523240},{"NoteNumber":72,"Velocity":52,"Duration":317348,"SoundDuration":317348,"Delta":31679817},{"NoteNumber":63,"Velocity":32,"Duration":317348,"SoundDuration":317348,"Delta":31679817},{"NoteNumber":77,"Velocity":42,"Duration":733518,"SoundDuration":733518,"Delta":31997165},{"NoteNumber":72,"Velocity":52,"Duration":164293,"SoundDuration":164293,"Delta":31997165},{"NoteNumber":60,"Velocity":32,"Duration":336114,"SoundDuration":336114,"Delta":31997165},{"NoteNumber":69,"Velocity":50,"Duration":171821,"SoundDuration":171821,"Delta":32161458},{"NoteNumber":70,"Velocity":52,"Duration":397403,"SoundDuration":397403,"Delta":32333279},{"NoteNumber":62,"Velocity":40,"Duration":397403,"SoundDuration":397403,"Delta":32333279},{"NoteNumber":77,"Velocity":45,"Duration":166113,"SoundDuration":166113,"Delta":32730683},{"NoteNumber":53,"Velocity":38,"Duration":166113,"SoundDuration":166113,"Delta":32730683},{"NoteNumber":82,"Velocity":40,"Duration":166112,"SoundDuration":166112,"Delta":32896796},{"NoteNumber":46,"Velocity":33,"Duration":166112,"SoundDuration":166112,"Delta":32896796},{"NoteNumber":70,"Velocity":42,"Duration":170842,"SoundDuration":170842,"Delta":33062909},{"NoteNumber":62,"Velocity":33,"Duration":170842,"SoundDuration":170842,"Delta":33062909},{"NoteNumber":77,"Velocity":45,"Duration":166113,"SoundDuration":166113,"Delta":33404594},{"NoteNumber":53,"Velocity":38,"Duration":166113,"SoundDuration":166113,"Delta":33404594},{"NoteNumber":82,"Velocity":41,"Duration":166112,"SoundDuration":166112,"Delta":33570707},{"NoteNumber":46,"Velocity":33,"Duration":166112,"SoundDuration":166112,"Delta":33570707},{"NoteNumber":70,"Velocity":41,"Duration":181840,"SoundDuration":181840,"Delta":33736820},{"NoteNumber":62,"Velocity":33,"Duration":181840,"SoundDuration":181840,"Delta":33736820},{"NoteNumber":77,"Velocity":45,"Duration":202730,"SoundDuration":202730,"Delta":34100501},{"NoteNumber":53,"Velocity":38,"Duration":202730,"SoundDuration":202730,"Delta":34100501},{"NoteNumber":82,"Velocity":41,"Duration":219009,"SoundDuration":219009,"Delta":34303231},{"NoteNumber":46,"Velocity":33,"Duration":219009,"SoundDuration":219009,"Delta":34303231},{"NoteNumber":70,"Velocity":41,"Duration":184071,"SoundDuration":184071,"Delta":34522241},{"NoteNumber":62,"Velocity":34,"Duration":184071,"SoundDuration":184071,"Delta":34522241},{"NoteNumber":67,"Velocity":47,"Duration":75000,"SoundDuration":75000,"Delta":35166492},{"NoteNumber":65,"Velocity":52,"Duration":161987,"SoundDuration":161987,"Delta":35241492},{"NoteNumber":65,"Velocity":49,"Duration":313807,"SoundDuration":313807,"Delta":35565466},{"NoteNumber":46,"Velocity":26,"Duration":944635,"SoundDuration":944635,"Delta":35565466},{"NoteNumber":53,"Velocity":33,"Duration":944635,"SoundDuration":944635,"Delta":35565466},{"NoteNumber":62,"Velocity":47,"Duration":156903,"SoundDuration":156903,"Delta":35722370},{"NoteNumber":63,"Velocity":52,"Duration":317675,"SoundDuration":317675,"Delta":35879274},{"NoteNumber":55,"Velocity":32,"Duration":317675,"SoundDuration":317675,"Delta":35879274},{"NoteNumber":63,"Velocity":49,"Duration":156576,"SoundDuration":156576,"Delta":36196949},{"NoteNumber":65,"Velocity":42,"Duration":634022,"SoundDuration":634022,"Delta":36196949},{"NoteNumber":57,"Velocity":32,"Duration":313152,"SoundDuration":313152,"Delta":36196949},{"NoteNumber":60,"Velocity":47,"Duration":156576,"SoundDuration":156576,"Delta":36353525},{"NoteNumber":62,"Velocity":49,"Duration":320869,"SoundDuration":320869,"Delta":36510102},{"NoteNumber":62,"Velocity":49,"Duration":156576,"SoundDuration":156576,"Delta":36830971},{"NoteNumber":65,"Velocity":42,"Duration":630500,"SoundDuration":630500,"Delta":36830971},{"NoteNumber":46,"Velocity":26,"Duration":1383339,"SoundDuration":1383339,"Delta":36830971},{"NoteNumber":53,"Velocity":33,"Duration":1383339,"SoundDuration":1383339,"Delta":36830971},{"NoteNumber":58,"Velocity":47,"Duration":156576,"SoundDuration":156576,"Delta":36987548},{"NoteNumber":60,"Velocity":49,"Duration":317348,"SoundDuration":317348,"Delta":37144124},{"NoteNumber":51,"Velocity":30,"Duration":317348,"SoundDuration":317348,"Delta":37144124},{"NoteNumber":65,"Velocity":39,"Duration":752839,"SoundDuration":752839,"Delta":37461472},{"NoteNumber":60,"Velocity":49,"Duration":164293,"SoundDuration":164293,"Delta":37461472},{"NoteNumber":48,"Velocity":30,"Duration":336114,"SoundDuration":336114,"Delta":37461472},{"NoteNumber":57,"Velocity":47,"Duration":171821,"SoundDuration":171821,"Delta":37625765},{"NoteNumber":58,"Velocity":49,"Duration":416724,"SoundDuration":416724,"Delta":37797587},{"NoteNumber":50,"Velocity":38,"Duration":416724,"SoundDuration":416724,"Delta":37797587},{"NoteNumber":69,"Velocity":42,"Duration":169875,"SoundDuration":169875,"Delta":38214311},{"NoteNumber":45,"Velocity":36,"Duration":169875,"SoundDuration":169875,"Delta":38214311},{"NoteNumber":74,"Velocity":38,"Duration":169875,"SoundDuration":169875,"Delta":38384187},{"NoteNumber":38,"Velocity":31,"Duration":169875,"SoundDuration":169875,"Delta":38384187},{"NoteNumber":62,"Velocity":39,"Duration":180072,"SoundDuration":180072,"Delta":38554062},{"NoteNumber":54,"Velocity":31,"Duration":180072,"SoundDuration":180072,"Delta":38554062},{"NoteNumber":69,"Velocity":42,"Duration":174825,"SoundDuration":174825,"Delta":38914206},{"NoteNumber":45,"Velocity":36,"Duration":174825,"SoundDuration":174825,"Delta":38914206},{"NoteNumber":74,"Velocity":38,"Duration":174825,"SoundDuration":174825,"Delta":39089031},{"NoteNumber":38,"Velocity":31,"Duration":174825,"SoundDuration":174825,"Delta":39089031},{"NoteNumber":62,"Velocity":38,"Duration":215858,"SoundDuration":215858,"Delta":39263857},{"NoteNumber":54,"Velocity":31,"Duration":215858,"SoundDuration":215858,"Delta":39263857},{"NoteNumber":69,"Velocity":42,"Duration":258665,"SoundDuration":258665,"Delta":39695574},{"NoteNumber":45,"Velocity":36,"Duration":258665,"SoundDuration":258665,"Delta":39695574},{"NoteNumber":74,"Velocity":38,"Duration":291318,"SoundDuration":291318,"Delta":39954239},{"NoteNumber":38,"Velocity":31,"Duration":291318,"SoundDuration":291318,"Delta":39954239},{"NoteNumber":62,"Velocity":38,"Duration":204109,"SoundDuration":204109,"Delta":40245558},{"NoteNumber":54,"Velocity":32,"Duration":204109,"SoundDuration":204109,"Delta":40245558},{"NoteNumber":63,"Velocity":50,"Duration":81699,"SoundDuration":81699,"Delta":40959941},{"NoteNumber":62,"Velocity":61,"Duration":575027,"SoundDuration":575027,"Delta":41041640},{"NoteNumber":70,"Velocity":52,"Duration":82146,"SoundDuration":82146,"Delta":41616668},{"NoteNumber":69,"Velocity":61,"Duration":575027,"SoundDuration":575027,"Delta":41698814},{"NoteNumber":75,"Velocity":54,"Duration":82146,"SoundDuration":82146,"Delta":42273842},{"NoteNumber":74,"Velocity":65,"Duration":575027,"SoundDuration":575027,"Delta":42355988},{"NoteNumber":82,"Velocity":61,"Duration":82146,"SoundDuration":82146,"Delta":42931016},{"NoteNumber":81,"Velocity":72,"Duration":575027,"SoundDuration":575027,"Delta":43013162},{"NoteNumber":87,"Velocity":69,"Duration":75000,"SoundDuration":75000,"Delta":43588190},{"NoteNumber":86,"Velocity":75,"Duration":323973,"SoundDuration":323973,"Delta":43663190},{"NoteNumber":86,"Velocity":68,"Duration":313807,"SoundDuration":313807,"Delta":43987164},{"NoteNumber":82,"Velocity":57,"Duration":156903,"SoundDuration":156903,"Delta":43987164},{"NoteNumber":67,"Velocity":39,"Duration":957528,"SoundDuration":957528,"Delta":43987164},{"NoteNumber":74,"Velocity":48,"Duration":877400,"SoundDuration":877400,"Delta":43987164},{"NoteNumber":79,"Velocity":69,"Duration":156903,"SoundDuration":156903,"Delta":44144067},{"NoteNumber":79,"Velocity":61,"Duration":318809,"SoundDuration":318809,"Delta":44300971},{"NoteNumber":81,"Velocity":73,"Duration":318809,"SoundDuration":318809,"Delta":44300971},{"NoteNumber":72,"Velocity":52,"Duration":318809,"SoundDuration":318809,"Delta":44300971},{"NoteNumber":81,"Velocity":67,"Duration":244782,"SoundDuration":244782,"Delta":44619781},{"NoteNumber":78,"Velocity":56,"Duration":164654,"SoundDuration":164654,"Delta":44619781},{"NoteNumber":69,"Velocity":48,"Duration":324910,"SoundDuration":324910,"Delta":44619781},{"NoteNumber":74,"Velocity":61,"Duration":157585,"SoundDuration":157585,"Delta":44784435},{"NoteNumber":75,"Velocity":63,"Duration":80128,"SoundDuration":80128,"Delta":44864564},{"NoteNumber":74,"Velocity":69,"Duration":320512,"SoundDuration":320512,"Delta":44944692},{"NoteNumber":74,"Velocity":67,"Duration":312175,"SoundDuration":312175,"Delta":45265205},{"NoteNumber":70,"Velocity":56,"Duration":156087,"SoundDuration":156087,"Delta":45265205},{"NoteNumber":55,"Velocity":36,"Duration":943442,"SoundDuration":943442,"Delta":45265205},{"NoteNumber":62,"Velocity":44,"Duration":943442,"SoundDuration":943442,"Delta":45265205},{"NoteNumber":67,"Velocity":64,"Duration":156087,"SoundDuration":156087,"Delta":45421292},{"NoteNumber":67,"Velocity":59,"Duration":322234,"SoundDuration":322234,"Delta":45577380},{"NoteNumber":69,"Velocity":70,"Duration":322234,"SoundDuration":322234,"Delta":45577380},{"NoteNumber":60,"Velocity":50,"Duration":322234,"SoundDuration":322234,"Delta":45577380},{"NoteNumber":66,"Velocity":54,"Duration":156903,"SoundDuration":156903,"Delta":45899614},{"NoteNumber":69,"Velocity":64,"Duration":309033,"SoundDuration":309033,"Delta":45899614},{"NoteNumber":57,"Velocity":46,"Duration":309033,"SoundDuration":309033,"Delta":45899614},{"NoteNumber":62,"Velocity":65,"Duration":152129,"SoundDuration":152129,"Delta":46056518},{"NoteNumber":79,"Velocity":62,"Duration":156903,"SoundDuration":156903,"Delta":46208647},{"NoteNumber":81,"Velocity":73,"Duration":315466,"SoundDuration":315466,"Delta":46208647},{"NoteNumber":78,"Velocity":58,"Duration":158562,"SoundDuration":158562,"Delta":46365551},{"NoteNumber":74,"Velocity":59,"Duration":158562,"SoundDuration":158562,"Delta":46524113},{"NoteNumber":67,"Velocity":55,"Duration":158562,"SoundDuration":158562,"Delta":46524113},{"NoteNumber":69,"Velocity":66,"Duration":318714,"SoundDuration":318714,"Delta":46524113},{"NoteNumber":66,"Velocity":51,"Duration":162866,"SoundDuration":162866,"Delta":46682676},{"NoteNumber":67,"Velocity":48,"Duration":158562,"SoundDuration":158562,"Delta":46845542},{"NoteNumber":69,"Velocity":58,"Duration":317124,"SoundDuration":317124,"Delta":46845542},{"NoteNumber":62,"Velocity":53,"Duration":158562,"SoundDuration":158562,"Delta":46845542},{"NoteNumber":66,"Velocity":47,"Duration":158562,"SoundDuration":158562,"Delta":47004104},{"NoteNumber":62,"Velocity":46,"Duration":158562,"SoundDuration":158562,"Delta":47162667},{"NoteNumber":55,"Velocity":43,"Duration":158562,"SoundDuration":158562,"Delta":47162667},{"NoteNumber":57,"Velocity":52,"Duration":337784,"SoundDuration":337784,"Delta":47162667},{"NoteNumber":54,"Velocity":37,"Duration":182259,"SoundDuration":182259,"Delta":47321229},{"NoteNumber":55,"Velocity":37,"Duration":198701,"SoundDuration":198701,"Delta":47503489},{"NoteNumber":57,"Velocity":44,"Duration":422615,"SoundDuration":422615,"Delta":47503489},{"NoteNumber":50,"Velocity":40,"Duration":198701,"SoundDuration":198701,"Delta":47503489},{"NoteNumber":54,"Velocity":33,"Duration":223914,"SoundDuration":223914,"Delta":47702191},{"NoteNumber":50,"Velocity":38,"Duration":601804,"SoundDuration":601804,"Delta":47926105},{"NoteNumber":38,"Velocity":30,"Duration":263204,"SoundDuration":263204,"Delta":47926105},{"NoteNumber":54,"Velocity":32,"Duration":338600,"SoundDuration":338600,"Delta":48189309},{"NoteNumber":55,"Velocity":35,"Duration":1354402,"SoundDuration":1354402,"Delta":48527909},{"NoteNumber":31,"Velocity":26,"Duration":1354402,"SoundDuration":1354402,"Delta":48527909},{"NoteNumber":43,"Velocity":31,"Duration":1354402,"SoundDuration":1354402,"Delta":48527909}],"license":{"name":"Creative Commons Attribution-ShareAlike 3.0 Germany","url":"http://creativecommons.org/licenses/by-sa/3.0/de/deed.en","text":"The MIDI, audio (MP3, OGG) and video files of Bernd Krueger are licensed under the cc-by-sa Germany License. This means that you can use and adapt the files, as long as you attribute the copyright holder.\n\nName: Bernd Krueger\nSource: http://www.piano-midi.de\n\nThe distribution or public playback of the files is only allowed under identical license conditions.\n\nThe scores are open source.","attribution":"MIDI files by Bernd Krueger (piano-midi.de)","attributionUrl":"http://www.piano-midi.de"}}