{"title":"Lyric Pieces, Op. 71 No. 1: Once upon a Time","artist":"Grieg","durationMs":253853,"midiSha256":"1bbfdb4cfc09c6d1b272bac7ded80f7aea855e28dbfcce12c11febece5816414","midiObject":[{"NoteNumber":71,"Velocity":39,"Duration":952381,"SoundDuration":952381,"Delta":0},{"NoteNumber":64,"Velocity":42,"Duration":942460,"SoundDuration":942460,"Delta":952381},{"NoteNumber":66,"Velocity":36,"Duration":238095,"SoundDuration":238095,"Delta":1666666},{"NoteNumber":67,"Velocity":43,"Duration":714285,"SoundDuration":714285,"Delta":1904762},{"NoteNumber":64,"Velocity":30,"Duration":1904762,"SoundDuration":1904762,"Delta":1904762},{"NoteNumber":62,"Velocity":25,"Duration":952381,"SoundDuration":952381,"Delta":1904762},{"NoteNumber":69,"Velocity":37,"Duration":238095,"SoundDuration":238095,"Delta":2619047},{"NoteNumber":66,"Velocity":29,"Duration":238095,"SoundDuration":238095,"Delta":2619047},{"NoteNumber":67,"Velocity":36,"Duration":952380,"SoundDuration":952380,"Delta":2857143},{"NoteNumber":71,"Velocity":45,"Duration":714285,"SoundDuration":714285,"Delta":2857143},{"NoteNumber":61,"Velocity":30,"Duration":952380,"SoundDuration":952380,"Delta":2857143},{"NoteNumber":76,"Velocity":37,"Duration":238095,"SoundDuration":238095,"Delta":3571428},{"NoteNumber":72,"Velocity":36,"Duration":952380,"SoundDuration":952380,"Delta":3809524},{"NoteNumber":79,"Velocity":45,"Duration":714285,"SoundDuration":714285,"Delta":3809524},{"NoteNumber":60,"Velocity":22,"Duration":952380,"SoundDuration":952380,"Delta":3809524},{"NoteNumber":64,"Velocity":26,"Duration":952380,"SoundDuration":952380,"Delta":3809524},{"NoteNumber":78,"Velocity":37,"Duration":238095,"SoundDuration":238095,"Delta":4523809},{"NoteNumber":66,"Velocity":40,"Duration":952380,"SoundDuration":952380,"Delta":4761905},{"NoteNumber":74,"Velocity":50,"Duration":714285,"SoundDuration":714285,"Delta":4761905},{"NoteNumber":59,"Velocity":25,"Duration":952380,"SoundDuration":952380,"Delta":4761905},{"NoteNumber":62,"Velocity":30,"Duration":952380,"SoundDuration":952380,"Delta":4761905},{"NoteNumber":72,"Velocity":43,"Duration":238095,"SoundDuration":238095,"Delta":5476190},{"NoteNumber":76,"Velocity":54,"Duration":714285,"SoundDuration":714285,"Delta":5714286},{"NoteNumber":69,"Velocity":43,"Duration":989515,"SoundDuration":989515,"Delta":5714286},{"NoteNumber":57,"Velocity":27,"Duration":989515,"SoundDuration":989515,"Delta":5714286},{"NoteNumber":60,"Velocity":32,"Duration":989515,"SoundDuration":989515,"Delta":5714286},{"NoteNumber":74,"Velocity":46,"Duration":275229,"SoundDuration":275229,"Delta":6428571},{"NoteNumber":71,"Velocity":40,"Duration":1566148,"SoundDuration":1566148,"Delta":6703801},{"NoteNumber":63,"Velocity":32,"Duration":2070349,"SoundDuration":2070349,"Delta":6703801},{"NoteNumber":55,"Velocity":25,"Duration":1061947,"SoundDuration":1061947,"Delta":6703801},{"NoteNumber":59,"Velocity":30,"Duration":1061947,"SoundDuration":1061947,"Delta":6703801},{"NoteNumber":54,"Velocity":22,"Duration":1008402,"SoundDuration":1008402,"Delta":7765748},{"NoteNumber":57,"Velocity":26,"Duration":1008402,"SoundDuration":1008402,"Delta":7765748},{"NoteNumber":72,"Velocity":36,"Duration":504201,"SoundDuration":504201,"Delta":8269949},{"NoteNumber":69,"Velocity":43,"Duration":731707,"SoundDuration":731707,"Delta":8774151},{"NoteNumber":65,"Velocity":34,"Duration":975609,"SoundDuration":975609,"Delta":8774151},{"NoteNumber":53,"Velocity":25,"Duration":975609,"SoundDuration":975609,"Delta":8774151},{"NoteNumber":60,"Velocity":30,"Duration":975609,"SoundDuration":975609,"Delta":8774151},{"NoteNumber":71,"Velocity":36,"Duration":243902,"SoundDuration":243902,"Delta":9505858},{"NoteNumber":64,"Velocity":36,"Duration":975610,"SoundDuration":975610,"Delta":9749761},{"NoteNumber":67,"Velocity":45,"Duration":731707,"SoundDuration":731707,"Delta":9749761},{"NoteNumber":59,"Velocity":26,"Duration":975610,"SoundDuration":975610,"Delta":9749761},{"NoteNumber":48,"Velocity":22,"Duration":975610,"SoundDuration":975610,"Delta":9749761},{"NoteNumber":69,"Velocity":39,"Duration":243902,"SoundDuration":243902,"Delta":10481468},{"NoteNumber":62,"Velocity":36,"Duration":1034482,"SoundDuration":1034482,"Delta":10725371},{"NoteNumber":66,"Velocity":45,"Duration":775862,"SoundDuration":775862,"Delta":10725371},{"NoteNumber":50,"Velocity":25,"Duration":1034482,"SoundDuration":1034482,"Delta":10725371},{"NoteNumber":57,"Velocity":30,"Duration":1034482,"SoundDuration":1034482,"Delta":10725371},{"NoteNumber":67,"Velocity":36,"Duration":258620,"SoundDuration":258620,"Delta":11501233},{"NoteNumber":64,"Velocity":43,"Duration":775862,"SoundDuration":775862,"Delta":11759854},{"NoteNumber":60,"Velocity":34,"Duration":1061576,"SoundDuration":1061576,"Delta":11759854},{"NoteNumber":55,"Velocity":26,"Duration":1061576,"SoundDuration":1061576,"Delta":11759854},{"NoteNumber":45,"Velocity":22,"Duration":1061576,"SoundDuration":1061576,"Delta":11759854},{"NoteNumber":66,"Velocity":35,"Duration":285714,"SoundDuration":285714,"Delta":12535716},{"NoteNumber":63,"Velocity":41,"Duration":1034482,"SoundDuration":1034482,"Delta":12821430},{"NoteNumber":59,"Velocity":32,"Duration":1034482,"SoundDuration":1034482,"Delta":12821430},{"NoteNumber":54,"Velocity":27,"Duration":1034482,"SoundDuration":1034482,"Delta":12821430},{"NoteNumber":47,"Velocity":22,"Duration":1034482,"SoundDuration":1034482,"Delta":12821430},{"NoteNumber":64,"Velocity":36,"Duration":1518354,"SoundDuration":1518354,"Delta":13855913},{"NoteNumber":59,"Velocity":28,"Duration":1518354,"SoundDuration":1518354,"Delta":13855913},{"NoteNumber":55,"Velocity":28,"Duration":1518354,"SoundDuration":1518354,"Delta":13855913},{"NoteNumber":40,"Velocity":25,"Duration":1034483,"SoundDuration":1034483,"Delta":13855913},{"NoteNumber":52,"Velocity":46,"Duration":4792626,"SoundDuration":4792626,"Delta":14890396},{"NoteNumber":63,"Velocity":31,"Duration":967741,"SoundDuration":967741,"Delta":15858138},{"NoteNumber":71,"Velocity":39,"Duration":967741,"SoundDuration":967741,"Delta":15858138},{"NoteNumber":54,"Velocity":25,"Duration":967741,"SoundDuration":967741,"Delta":15858138},{"NoteNumber":60,"Velocity":38,"Duration":1012864,"SoundDuration":1012864,"Delta":16765396},{"NoteNumber":64,"Velocity":42,"Duration":714285,"SoundDuration":714285,"Delta":16825880},{"NoteNumber":59,"Velocity":35,"Duration":714285,"SoundDuration":714285,"Delta":16825880},{"NoteNumber":66,"Velocity":36,"Duration":238095,"SoundDuration":238095,"Delta":17540166},{"NoteNumber":57,"Velocity":30,"Duration":238095,"SoundDuration":238095,"Delta":17540166},{"NoteNumber":64,"Velocity":36,"Duration":714285,"SoundDuration":714285,"Delta":17778261},{"NoteNumber":67,"Velocity":43,"Duration":714285,"SoundDuration":714285,"Delta":17778261},{"NoteNumber":62,"Velocity":30,"Duration":714285,"SoundDuration":714285,"Delta":17778261},{"NoteNumber":69,"Velocity":37,"Duration":238095,"SoundDuration":238095,"Delta":18492547},{"NoteNumber":66,"Velocity":29,"Duration":238095,"SoundDuration":238095,"Delta":18492547},{"NoteNumber":60,"Velocity":24,"Duration":238095,"SoundDuration":238095,"Delta":18492547},{"NoteNumber":67,"Velocity":36,"Duration":952380,"SoundDuration":952380,"Delta":18730642},{"NoteNumber":71,"Velocity":45,"Duration":714285,"SoundDuration":714285,"Delta":18730642},{"NoteNumber":59,"Velocity":30,"Duration":952380,"SoundDuration":952380,"Delta":18730642},{"NoteNumber":76,"Velocity":37,"Duration":238095,"SoundDuration":238095,"Delta":19444928},{"NoteNumber":69,"Velocity":36,"Duration":952380,"SoundDuration":952380,"Delta":19683023},{"NoteNumber":79,"Velocity":45,"Duration":714285,"SoundDuration":714285,"Delta":19683023},{"NoteNumber":54,"Velocity":22,"Duration":952380,"SoundDuration":952380,"Delta":19683023},{"NoteNumber":64,"Velocity":26,"Duration":952380,"SoundDuration":952380,"Delta":19683023},{"NoteNumber":78,"Velocity":37,"Duration":238095,"SoundDuration":238095,"Delta":20397309},{"NoteNumber":66,"Velocity":40,"Duration":952381,"SoundDuration":952381,"Delta":20635404},{"NoteNumber":74,"Velocity":50,"Duration":714285,"SoundDuration":714285,"Delta":20635404},{"NoteNumber":55,"Velocity":25,"Duration":952381,"SoundDuration":952381,"Delta":20635404},{"NoteNumber":59,"Velocity":30,"Duration":952381,"SoundDuration":952381,"Delta":20635404},{"NoteNumber":72,"Velocity":43,"Duration":238095,"SoundDuration":238095,"Delta":21349690},{"NoteNumber":76,"Velocity":54,"Duration":714285,"SoundDuration":714285,"Delta":21587785},{"NoteNumber":67,"Velocity":43,"Duration":982142,"SoundDuration":982142,"Delta":21587785},{"NoteNumber":57,"Velocity":27,"Duration":982142,"SoundDuration":982142,"Delta":21587785},{"NoteNumber":60,"Velocity":32,"Duration":982142,"SoundDuration":982142,"Delta":21587785},{"NoteNumber":74,"Velocity":46,"Duration":267857,"SoundDuration":267857,"Delta":22302071},{"NoteNumber":71,"Velocity":40,"Duration":1598993,"SoundDuration":1598993,"Delta":22569928},{"NoteNumber":66,"Velocity":32,"Duration":1063279,"SoundDuration":1063279,"Delta":22569928},{"NoteNumber":59,"Velocity":25,"Duration":1063279,"SoundDuration":1063279,"Delta":22569928},{"NoteNumber":62,"Velocity":30,"Duration":2134708,"SoundDuration":2134708,"Delta":22569928},{"NoteNumber":65,"Velocity":32,"Duration":1071428,"SoundDuration":1071428,"Delta":23633207},{"NoteNumber":55,"Velocity":26,"Duration":1071428,"SoundDuration":1071428,"Delta":23633207},{"NoteNumber":72,"Velocity":27,"Duration":535714,"SoundDuration":535714,"Delta":24168922},{"NoteNumber":69,"Velocity":32,"Duration":724541,"SoundDuration":724541,"Delta":24704636},{"NoteNumber":60,"Velocity":25,"Duration":472440,"SoundDuration":472440,"Delta":24704636},{"NoteNumber":53,"Velocity":18,"Duration":976642,"SoundDuration":976642,"Delta":24704636},{"NoteNumber":57,"Velocity":22,"Duration":472440,"SoundDuration":472440,"Delta":24704636},{"NoteNumber":62,"Velocity":18,"Duration":504201,"SoundDuration":504201,"Delta":25177077},{"NoteNumber":59,"Velocity":16,"Duration":504201,"SoundDuration":504201,"Delta":25177077},{"NoteNumber":71,"Velocity":27,"Duration":252100,"SoundDuration":252100,"Delta":25429178},{"NoteNumber":64,"Velocity":27,"Duration":1009544,"SoundDuration":1009544,"Delta":25681279},{"NoteNumber":67,"Velocity":33,"Duration":748674,"SoundDuration":748674,"Delta":25681279},{"NoteNumber":60,"Velocity":19,"Duration":1009544,"SoundDuration":1009544,"Delta":25681279},{"NoteNumber":48,"Velocity":16,"Duration":1009544,"SoundDuration":1009544,"Delta":25681279},{"NoteNumber":69,"Velocity":29,"Duration":260869,"SoundDuration":260869,"Delta":26429953},{"NoteNumber":57,"Velocity":27,"Duration":487805,"SoundDuration":487805,"Delta":26690823},{"NoteNumber":66,"Velocity":33,"Duration":750963,"SoundDuration":750963,"Delta":26690823},{"NoteNumber":50,"Velocity":18,"Duration":1014121,"SoundDuration":1014121,"Delta":26690823},{"NoteNumber":54,"Velocity":22,"Duration":487805,"SoundDuration":487805,"Delta":26690823},{"NoteNumber":59,"Velocity":20,"Duration":526316,"SoundDuration":526316,"Delta":27178628},{"NoteNumber":55,"Velocity":16,"Duration":526316,"SoundDuration":526316,"Delta":27178628},{"NoteNumber":67,"Velocity":27,"Duration":263158,"SoundDuration":263158,"Delta":27441786},{"NoteNumber":64,"Velocity":32,"Duration":756302,"SoundDuration":756302,"Delta":27704944},{"NoteNumber":60,"Velocity":25,"Duration":1053332,"SoundDuration":1053332,"Delta":27704944},{"NoteNumber":57,"Velocity":19,"Duration":1053332,"SoundDuration":1053332,"Delta":27704944},{"NoteNumber":45,"Velocity":16,"Duration":1053332,"SoundDuration":1053332,"Delta":27704944},{"NoteNumber":66,"Velocity":26,"Duration":297029,"SoundDuration":297029,"Delta":28461246},{"NoteNumber":63,"Velocity":30,"Duration":1188119,"SoundDuration":1188119,"Delta":28758276},{"NoteNumber":59,"Velocity":24,"Duration":1188119,"SoundDuration":1188119,"Delta":28758276},{"NoteNumber":54,"Velocity":20,"Duration":1188119,"SoundDuration":1188119,"Delta":28758276},{"NoteNumber":47,"Velocity":16,"Duration":1188119,"SoundDuration":1188119,"Delta":28758276},{"NoteNumber":64,"Velocity":27,"Duration":2376237,"SoundDuration":2376237,"Delta":29946395},{"NoteNumber":59,"Velocity":21,"Duration":2376237,"SoundDuration":2376237,"Delta":29946395},{"NoteNumber":55,"Velocity":21,"Duration":2376237,"SoundDuration":2376237,"Delta":29946395},{"NoteNumber":40,"Velocity":18,"Duration":2376237,"SoundDuration":2376237,"Delta":29946395},{"NoteNumber":62,"Velocity":58,"Duration":937500,"SoundDuration":937500,"Delta":32322633},{"NoteNumber":66,"Velocity":58,"Duration":937500,"SoundDuration":937500,"Delta":32322633},{"NoteNumber":50,"Velocity":48,"Duration":937500,"SoundDuration":937500,"Delta":32322633},{"NoteNumber":57,"Velocity":55,"Duration":937500,"SoundDuration":937500,"Delta":32322633},{"NoteNumber":62,"Velocity":43,"Duration":888888,"SoundDuration":888888,"Delta":33260133},{"NoteNumber":67,"Velocity":63,"Duration":666666,"SoundDuration":666666,"Delta":33260133},{"NoteNumber":55,"Velocity":55,"Duration":1777777,"SoundDuration":1777777,"Delta":33260133},{"NoteNumber":59,"Velocity":55,"Duration":888888,"SoundDuration":888888,"Delta":33260133},{"NoteNumber":69,"Velocity":54,"Duration":222222,"SoundDuration":222222,"Delta":33926799},{"NoteNumber":64,"Velocity":43,"Duration":888888,"SoundDuration":888888,"Delta":34149022},{"NoteNumber":71,"Velocity":64,"Duration":444444,"SoundDuration":444444,"Delta":34149022},{"NoteNumber":61,"Velocity":49,"Duration":888888,"SoundDuration":888888,"Delta":34149022},{"NoteNumber":67,"Velocity":55,"Duration":444444,"SoundDuration":444444,"Delta":34593466},{"NoteNumber":66,"Velocity":54,"Duration":481087,"SoundDuration":481087,"Delta":34982355},{"NoteNumber":71,"Velocity":67,"Duration":425531,"SoundDuration":425531,"Delta":35037911},{"NoteNumber":62,"Velocity":53,"Duration":425531,"SoundDuration":425531,"Delta":35037911},{"NoteNumber":50,"Velocity":53,"Duration":1758865,"SoundDuration":1758865,"Delta":35037911},{"NoteNumber":64,"Velocity":55,"Duration":444444,"SoundDuration":444444,"Delta":35463443},{"NoteNumber":69,"Velocity":55,"Duration":444444,"SoundDuration":444444,"Delta":35463443},{"NoteNumber":57,"Velocity":45,"Duration":444444,"SoundDuration":444444,"Delta":35463443},{"NoteNumber":62,"Velocity":54,"Duration":425925,"SoundDuration":425925,"Delta":35907887},{"NoteNumber":69,"Velocity":67,"Duration":444444,"SoundDuration":444444,"Delta":35907887},{"NoteNumber":54,"Velocity":39,"Duration":888888,"SoundDuration":888888,"Delta":35907887},{"NoteNumber":62,"Velocity":55,"Duration":444444,"SoundDuration":444444,"Delta":36352332},{"NoteNumber":64,"Velocity":43,"Duration":888888,"SoundDuration":888888,"Delta":36796776},{"NoteNumber":72,"Velocity":63,"Duration":666666,"SoundDuration":666666,"Delta":36796776},{"NoteNumber":48,"Velocity":55,"Duration":1777777,"SoundDuration":1777777,"Delta":36796776},{"NoteNumber":55,"Velocity":55,"Duration":888888,"SoundDuration":888888,"Delta":36796776},{"NoteNumber":74,"Velocity":56,"Duration":222222,"SoundDuration":222222,"Delta":37463443},{"NoteNumber":66,"Velocity":46,"Duration":888888,"SoundDuration":888888,"Delta":37685665},{"NoteNumber":76,"Velocity":68,"Duration":444444,"SoundDuration":444444,"Delta":37685665},{"NoteNumber":57,"Velocity":52,"Duration":888888,"SoundDuration":888888,"Delta":37685665},{"NoteNumber":72,"Velocity":61,"Duration":444444,"SoundDuration":444444,"Delta":38130110},{"NoteNumber":67,"Velocity":61,"Duration":1007936,"SoundDuration":1007936,"Delta":38518998},{"NoteNumber":74,"Velocity":77,"Duration":1428571,"SoundDuration":1428571,"Delta":38574554},{"NoteNumber":59,"Velocity":60,"Duration":952381,"SoundDuration":952381,"Delta":38574554},{"NoteNumber":43,"Velocity":60,"Duration":1979166,"SoundDuration":1979166,"Delta":38574554},{"NoteNumber":69,"Velocity":62,"Duration":1026785,"SoundDuration":1026785,"Delta":39526935},{"NoteNumber":62,"Velocity":44,"Duration":1026785,"SoundDuration":1026785,"Delta":39526935},{"NoteNumber":74,"Velocity":77,"Duration":550595,"SoundDuration":550595,"Delta":40003126},{"NoteNumber":71,"Velocity":49,"Duration":888888,"SoundDuration":888888,"Delta":40553721},{"NoteNumber":76,"Velocity":72,"Duration":666666,"SoundDuration":666666,"Delta":40553721},{"NoteNumber":55,"Velocity":63,"Duration":5517386,"SoundDuration":5517386,"Delta":40553721},{"NoteNumber":67,"Velocity":63,"Duration":888888,"SoundDuration":888888,"Delta":40553721},{"NoteNumber":78,"Velocity":62,"Duration":222222,"SoundDuration":222222,"Delta":41220387},{"NoteNumber":69,"Velocity":49,"Duration":888888,"SoundDuration":888888,"Delta":41442610},{"NoteNumber":74,"Velocity":73,"Duration":444444,"SoundDuration":444444,"Delta":41442610},{"NoteNumber":66,"Velocity":56,"Duration":888888,"SoundDuration":888888,"Delta":41442610},{"NoteNumber":71,"Velocity":63,"Duration":444444,"SoundDuration":444444,"Delta":41887054},{"NoteNumber":72,"Velocity":70,"Duration":666666,"SoundDuration":666666,"Delta":42331499},{"NoteNumber":67,"Velocity":59,"Duration":888889,"SoundDuration":888889,"Delta":42331499},{"NoteNumber":64,"Velocity":60,"Duration":888889,"SoundDuration":888889,"Delta":42331499},{"NoteNumber":74,"Velocity":56,"Duration":222222,"SoundDuration":222222,"Delta":42998166},{"NoteNumber":71,"Velocity":68,"Duration":444444,"SoundDuration":444444,"Delta":43220388},{"NoteNumber":66,"Velocity":57,"Duration":888888,"SoundDuration":888888,"Delta":43220388},{"NoteNumber":62,"Velocity":44,"Duration":888888,"SoundDuration":888888,"Delta":43220388},{"NoteNumber":67,"Velocity":57,"Duration":444444,"SoundDuration":444444,"Delta":43664832},{"NoteNumber":64,"Velocity":58,"Duration":944881,"SoundDuration":944881,"Delta":44109277},{"NoteNumber":69,"Velocity":69,"Duration":944881,"SoundDuration":944881,"Delta":44109277},{"NoteNumber":60,"Velocity":44,"Duration":944881,"SoundDuration":944881,"Delta":44109277},{"NoteNumber":63,"Velocity":48,"Duration":2176921,"SoundDuration":2176921,"Delta":44995104},{"NoteNumber":71,"Velocity":57,"Duration":2117865,"SoundDuration":2117865,"Delta":45054159},{"NoteNumber":59,"Velocity":44,"Duration":1016948,"SoundDuration":1016948,"Delta":45054159},{"NoteNumber":58,"Velocity":33,"Duration":1100917,"SoundDuration":1100917,"Delta":46071108},{"NoteNumber":54,"Velocity":28,"Duration":1100917,"SoundDuration":1100917,"Delta":46071108},{"NoteNumber":71,"Velocity":46,"Duration":1319943,"SoundDuration":1319943,"Delta":47172025},{"NoteNumber":63,"Velocity":39,"Duration":1319943,"SoundDuration":1319943,"Delta":47172025},{"NoteNumber":53,"Velocity":27,"Duration":1319943,"SoundDuration":1319943,"Delta":47172025},{"NoteNumber":57,"Velocity":32,"Duration":588235,"SoundDuration":588235,"Delta":47172025},{"NoteNumber":56,"Velocity":29,"Duration":731707,"SoundDuration":731707,"Delta":47760260},{"NoteNumber":59,"Velocity":36,"Duration":1025641,"SoundDuration":1025641,"Delta":48491968},{"NoteNumber":64,"Velocity":42,"Duration":769230,"SoundDuration":769230,"Delta":48491968},{"NoteNumber":52,"Velocity":25,"Duration":1025641,"SoundDuration":1025641,"Delta":48491968},{"NoteNumber":55,"Velocity":30,"Duration":1025641,"SoundDuration":1025641,"Delta":48491968},{"NoteNumber":66,"Velocity":36,"Duration":256410,"SoundDuration":256410,"Delta":49261199},{"NoteNumber":59,"Velocity":29,"Duration":952381,"SoundDuration":952381,"Delta":49517609},{"NoteNumber":64,"Velocity":29,"Duration":952381,"SoundDuration":952381,"Delta":49517609},{"NoteNumber":67,"Velocity":43,"Duration":714285,"SoundDuration":714285,"Delta":49517609},{"NoteNumber":62,"Velocity":30,"Duration":952381,"SoundDuration":952381,"Delta":49517609},{"NoteNumber":50,"Velocity":25,"Duration":952381,"SoundDuration":952381,"Delta":49517609},{"NoteNumber":69,"Velocity":37,"Duration":238095,"SoundDuration":238095,"Delta":50231895},{"NoteNumber":64,"Velocity":36,"Duration":952380,"SoundDuration":952380,"Delta":50469990},{"NoteNumber":67,"Velocity":36,"Duration":952380,"SoundDuration":952380,"Delta":50469990},{"NoteNumber":71,"Velocity":45,"Duration":714285,"SoundDuration":714285,"Delta":50469990},{"NoteNumber":49,"Velocity":25,"Duration":952380,"SoundDuration":952380,"Delta":50469990},{"NoteNumber":61,"Velocity":30,"Duration":952380,"SoundDuration":952380,"Delta":50469990},{"NoteNumber":76,"Velocity":37,"Duration":238095,"SoundDuration":238095,"Delta":51184276},{"NoteNumber":64,"Velocity":36,"Duration":952381,"SoundDuration":952381,"Delta":51422371},{"NoteNumber":72,"Velocity":36,"Duration":952381,"SoundDuration":952381,"Delta":51422371},{"NoteNumber":79,"Velocity":45,"Duration":714285,"SoundDuration":714285,"Delta":51422371},{"NoteNumber":48,"Velocity":22,"Duration":952381,"SoundDuration":952381,"Delta":51422371},{"NoteNumber":60,"Velocity":26,"Duration":952381,"SoundDuration":952381,"Delta":51422371},{"NoteNumber":78,"Velocity":37,"Duration":238095,"SoundDuration":238095,"Delta":52136657},{"NoteNumber":71,"Velocity":40,"Duration":937500,"SoundDuration":937500,"Delta":52374752},{"NoteNumber":66,"Velocity":40,"Duration":937500,"SoundDuration":937500,"Delta":52374752},{"NoteNumber":74,"Velocity":50,"Duration":703125,"SoundDuration":703125,"Delta":52374752},{"NoteNumber":47,"Velocity":25,"Duration":937500,"SoundDuration":937500,"Delta":52374752},{"NoteNumber":59,"Velocity":30,"Duration":937500,"SoundDuration":937500,"Delta":52374752},{"NoteNumber":72,"Velocity":43,"Duration":234375,"SoundDuration":234375,"Delta":53077877},{"NoteNumber":60,"Velocity":43,"Duration":978354,"SoundDuration":978354,"Delta":53312252},{"NoteNumber":76,"Velocity":54,"Duration":703125,"SoundDuration":703125,"Delta":53312252},{"NoteNumber":69,"Velocity":43,"Duration":978354,"SoundDuration":978354,"Delta":53312252},{"NoteNumber":45,"Velocity":27,"Duration":978354,"SoundDuration":978354,"Delta":53312252},{"NoteNumber":57,"Velocity":32,"Duration":978354,"SoundDuration":978354,"Delta":53312252},{"NoteNumber":74,"Velocity":46,"Duration":275229,"SoundDuration":275229,"Delta":54015377},{"NoteNumber":59,"Velocity":43,"Duration":1071429,"SoundDuration":1071429,"Delta":54290606},{"NoteNumber":71,"Velocity":40,"Duration":1575630,"SoundDuration":1575630,"Delta":54290606},{"NoteNumber":63,"Velocity":32,"Duration":2079832,"SoundDuration":2079832,"Delta":54290606},{"NoteNumber":43,"Velocity":25,"Duration":1071429,"SoundDuration":1071429,"Delta":54290606},{"NoteNumber":55,"Velocity":30,"Duration":1071429,"SoundDuration":1071429,"Delta":54290606},{"NoteNumber":57,"Velocity":43,"Duration":1008403,"SoundDuration":1008403,"Delta":55362035},{"NoteNumber":42,"Velocity":22,"Duration":1008403,"SoundDuration":1008403,"Delta":55362035},{"NoteNumber":54,"Velocity":26,"Duration":1008403,"SoundDuration":1008403,"Delta":55362035},{"NoteNumber":72,"Velocity":36,"Duration":504201,"SoundDuration":504201,"Delta":55866237},{"NoteNumber":60,"Velocity":25,"Duration":975610,"SoundDuration":975610,"Delta":56370438},{"NoteNumber":69,"Velocity":32,"Duration":731707,"SoundDuration":731707,"Delta":56370438},{"NoteNumber":65,"Velocity":25,"Duration":975610,"SoundDuration":975610,"Delta":56370438},{"NoteNumber":41,"Velocity":18,"Duration":975610,"SoundDuration":975610,"Delta":56370438},{"NoteNumber":53,"Velocity":22,"Duration":975610,"SoundDuration":975610,"Delta":56370438},{"NoteNumber":71,"Velocity":27,"Duration":243902,"SoundDuration":243902,"Delta":57102146},{"NoteNumber":59,"Velocity":27,"Duration":975609,"SoundDuration":975609,"Delta":57346048},{"NoteNumber":64,"Velocity":27,"Duration":975609,"SoundDuration":975609,"Delta":57346048},{"NoteNumber":67,"Velocity":33,"Duration":731707,"SoundDuration":731707,"Delta":57346048},{"NoteNumber":48,"Velocity":19,"Duration":975609,"SoundDuration":975609,"Delta":57346048},{"NoteNumber":36,"Velocity":16,"Duration":975609,"SoundDuration":975609,"Delta":57346048},{"NoteNumber":69,"Velocity":29,"Duration":243902,"SoundDuration":243902,"Delta":58077756},{"NoteNumber":57,"Velocity":27,"Duration":1034483,"SoundDuration":1034483,"Delta":58321658},{"NoteNumber":62,"Velocity":27,"Duration":1034483,"SoundDuration":1034483,"Delta":58321658},{"NoteNumber":66,"Velocity":33,"Duration":775862,"SoundDuration":775862,"Delta":58321658},{"NoteNumber":38,"Velocity":18,"Duration":1034483,"SoundDuration":1034483,"Delta":58321658},{"NoteNumber":50,"Velocity":22,"Duration":1034483,"SoundDuration":1034483,"Delta":58321658},{"NoteNumber":67,"Velocity":27,"Duration":258620,"SoundDuration":258620,"Delta":59097520},{"NoteNumber":55,"Velocity":25,"Duration":1061576,"SoundDuration":1061576,"Delta":59356141},{"NoteNumber":64,"Velocity":32,"Duration":775862,"SoundDuration":775862,"Delta":59356141},{"NoteNumber":60,"Velocity":25,"Duration":1061576,"SoundDuration":1061576,"Delta":59356141},{"NoteNumber":45,"Velocity":19,"Duration":1061576,"SoundDuration":1061576,"Delta":59356141},{"NoteNumber":33,"Velocity":16,"Duration":1061576,"SoundDuration":1061576,"Delta":59356141},{"NoteNumber":66,"Velocity":26,"Duration":285714,"SoundDuration":285714,"Delta":60132003},{"NoteNumber":54,"Velocity":24,"Duration":1090909,"SoundDuration":1090909,"Delta":60417718},{"NoteNumber":63,"Velocity":30,"Duration":1090909,"SoundDuration":1090909,"Delta":60417718},{"NoteNumber":59,"Velocity":24,"Duration":1090909,"SoundDuration":1090909,"Delta":60417718},{"NoteNumber":47,"Velocity":20,"Duration":1090909,"SoundDuration":1090909,"Delta":60417718},{"NoteNumber":35,"Velocity":16,"Duration":1090909,"SoundDuration":1090909,"Delta":60417718},{"NoteNumber":64,"Velocity":27,"Duration":2181817,"SoundDuration":2181817,"Delta":61508627},{"NoteNumber":59,"Velocity":21,"Duration":2181817,"SoundDuration":2181817,"Delta":61508627},{"NoteNumber":55,"Velocity":21,"Duration":2181817,"SoundDuration":2181817,"Delta":61508627},{"NoteNumber":28,"Velocity":13,"Duration":2181817,"SoundDuration":2181817,"Delta":61508627},{"NoteNumber":40,"Velocity":18,"Duration":2181817,"SoundDuration":2181817,"Delta":61508627},{"NoteNumber":62,"Velocity":58,"Duration":937500,"SoundDuration":937500,"Delta":63690445},{"NoteNumber":66,"Velocity":58,"Duration":937500,"SoundDuration":937500,"Delta":63690445},{"NoteNumber":50,"Velocity":48,"Duration":937500,"SoundDuration":937500,"Delta":63690445},{"NoteNumber":57,"Velocity":55,"Duration":937500,"SoundDuration":937500,"Delta":63690445},{"NoteNumber":62,"Velocity":43,"Duration":888889,"SoundDuration":888889,"Delta":64627945},{"NoteNumber":67,"Velocity":63,"Duration":666666,"SoundDuration":666666,"Delta":64627945},{"NoteNumber":55,"Velocity":55,"Duration":1777777,"SoundDuration":1777777,"Delta":64627945},{"NoteNumber":59,"Velocity":55,"Duration":888889,"SoundDuration":888889,"Delta":64627945},{"NoteNumber":69,"Velocity":54,"Duration":222222,"SoundDuration":222222,"Delta":65294611},{"NoteNumber":64,"Velocity":43,"Duration":888888,"SoundDuration":888888,"Delta":65516834},{"NoteNumber":71,"Velocity":64,"Duration":444444,"SoundDuration":444444,"Delta":65516834},{"NoteNumber":61,"Velocity":49,"Duration":888888,"SoundDuration":888888,"Delta":65516834},{"NoteNumber":67,"Velocity":55,"Duration":444444,"SoundDuration":444444,"Delta":65961278},{"NoteNumber":66,"Velocity":54,"Duration":481087,"SoundDuration":481087,"Delta":66350167},{"NoteNumber":71,"Velocity":67,"Duration":425532,"SoundDuration":425532,"Delta":66405723},{"NoteNumber":62,"Velocity":53,"Duration":425532,"SoundDuration":425532,"Delta":66405723},{"NoteNumber":50,"Velocity":53,"Duration":1758865,"SoundDuration":1758865,"Delta":66405723},{"NoteNumber":64,"Velocity":55,"Duration":444444,"SoundDuration":444444,"Delta":66831255},{"NoteNumber":69,"Velocity":55,"Duration":444444,"SoundDuration":444444,"Delta":66831255},{"NoteNumber":57,"Velocity":45,"Duration":444444,"SoundDuration":444444,"Delta":66831255},{"NoteNumber":62,"Velocity":54,"Duration":425925,"SoundDuration":425925,"Delta":67275699},{"NoteNumber":69,"Velocity":67,"Duration":444444,"SoundDuration":444444,"Delta":67275699},{"NoteNumber":54,"Velocity":39,"Duration":888888,"SoundDuration":888888,"Delta":67275699},{"NoteNumber":62,"Velocity":55,"Duration":444444,"SoundDuration":444444,"Delta":67720144},{"NoteNumber":64,"Velocity":43,"Duration":888889,"SoundDuration":888889,"Delta":68164588},{"NoteNumber":72,"Velocity":63,"Duration":666666,"SoundDuration":666666,"Delta":68164588},{"NoteNumber":48,"Velocity":55,"Duration":1777777,"SoundDuration":1777777,"Delta":68164588},{"NoteNumber":55,"Velocity":55,"Duration":888889,"SoundDuration":888889,"Delta":68164588},{"NoteNumber":74,"Velocity":56,"Duration":222222,"SoundDuration":222222,"Delta":68831255},{"NoteNumber":66,"Velocity":46,"Duration":888888,"SoundDuration":888888,"Delta":69053477},{"NoteNumber":76,"Velocity":68,"Duration":444444,"SoundDuration":444444,"Delta":69053477},{"NoteNumber":57,"Velocity":52,"Duration":888888,"SoundDuration":888888,"Delta":69053477},{"NoteNumber":72,"Velocity":61,"Duration":444444,"SoundDuration":444444,"Delta":69497921},{"NoteNumber":67,"Velocity":61,"Duration":1007936,"SoundDuration":1007936,"Delta":69886810},{"NoteNumber":74,"Velocity":77,"Duration":1428571,"SoundDuration":1428571,"Delta":69942366},{"NoteNumber":59,"Velocity":60,"Duration":952381,"SoundDuration":952381,"Delta":69942366},{"NoteNumber":43,"Velocity":60,"Duration":1979166,"SoundDuration":1979166,"Delta":69942366},{"NoteNumber":69,"Velocity":62,"Duration":1026785,"SoundDuration":1026785,"Delta":70894747},{"NoteNumber":62,"Velocity":44,"Duration":1026785,"SoundDuration":1026785,"Delta":70894747},{"NoteNumber":74,"Velocity":77,"Duration":550595,"SoundDuration":550595,"Delta":71370938},{"NoteNumber":71,"Velocity":49,"Duration":888889,"SoundDuration":888889,"Delta":71921533},{"NoteNumber":76,"Velocity":72,"Duration":666666,"SoundDuration":666666,"Delta":71921533},{"NoteNumber":55,"Velocity":63,"Duration":5517386,"SoundDuration":5517386,"Delta":71921533},{"NoteNumber":67,"Velocity":63,"Duration":888889,"SoundDuration":888889,"Delta":71921533},{"NoteNumber":78,"Velocity":62,"Duration":222222,"SoundDuration":222222,"Delta":72588200},{"NoteNumber":69,"Velocity":49,"Duration":888888,"SoundDuration":888888,"Delta":72810422},{"NoteNumber":74,"Velocity":73,"Duration":444444,"SoundDuration":444444,"Delta":72810422},{"NoteNumber":66,"Velocity":56,"Duration":888888,"SoundDuration":888888,"Delta":72810422},{"NoteNumber":71,"Velocity":63,"Duration":444444,"SoundDuration":444444,"Delta":73254866},{"NoteNumber":72,"Velocity":70,"Duration":666666,"SoundDuration":666666,"Delta":73699311},{"NoteNumber":67,"Velocity":59,"Duration":888889,"SoundDuration":888889,"Delta":73699311},{"NoteNumber":64,"Velocity":60,"Duration":888889,"SoundDuration":888889,"Delta":73699311},{"NoteNumber":74,"Velocity":56,"Duration":222222,"SoundDuration":222222,"Delta":74365978},{"NoteNumber":71,"Velocity":68,"Duration":444444,"SoundDuration":444444,"Delta":74588200},{"NoteNumber":66,"Velocity":57,"Duration":888888,"SoundDuration":888888,"Delta":74588200},{"NoteNumber":62,"Velocity":44,"Duration":888888,"SoundDuration":888888,"Delta":74588200},{"NoteNumber":67,"Velocity":57,"Duration":444444,"SoundDuration":444444,"Delta":75032644},{"NoteNumber":64,"Velocity":58,"Duration":944882,"SoundDuration":944882,"Delta":75477089},{"NoteNumber":69,"Velocity":69,"Duration":944882,"SoundDuration":944882,"Delta":75477089},{"NoteNumber":60,"Velocity":44,"Duration":944882,"SoundDuration":944882,"Delta":75477089},{"NoteNumber":63,"Velocity":48,"Duration":2176921,"SoundDuration":2176921,"Delta":76362916},{"NoteNumber":71,"Velocity":57,"Duration":2117865,"SoundDuration":2117865,"Delta":76421971},{"NoteNumber":59,"Velocity":44,"Duration":1016948,"SoundDuration":1016948,"Delta":76421971},{"NoteNumber":58,"Velocity":33,"Duration":1100916,"SoundDuration":1100916,"Delta":77438920},{"NoteNumber":54,"Velocity":28,"Duration":1100916,"SoundDuration":1100916,"Delta":77438920},{"NoteNumber":71,"Velocity":46,"Duration":1319942,"SoundDuration":1319942,"Delta":78539837},{"NoteNumber":63,"Velocity":39,"Duration":1319942,"SoundDuration":1319942,"Delta":78539837},{"NoteNumber":53,"Velocity":27,"Duration":1319942,"SoundDuration":1319942,"Delta":78539837},{"NoteNumber":57,"Velocity":32,"Duration":588235,"SoundDuration":588235,"Delta":78539837},{"NoteNumber":56,"Velocity":29,"Duration":731707,"SoundDuration":731707,"Delta":79128072},{"NoteNumber":59,"Velocity":36,"Duration":1025640,"SoundDuration":1025640,"Delta":79859780},{"NoteNumber":64,"Velocity":42,"Duration":769230,"SoundDuration":769230,"Delta":79859780},{"NoteNumber":52,"Velocity":25,"Duration":1025640,"SoundDuration":1025640,"Delta":79859780},{"NoteNumber":55,"Velocity":30,"Duration":1025640,"SoundDuration":1025640,"Delta":79859780},{"NoteNumber":66,"Velocity":36,"Duration":256410,"SoundDuration":256410,"Delta":80629011},{"NoteNumber":59,"Velocity":29,"Duration":952381,"SoundDuration":952381,"Delta":80885421},{"NoteNumber":64,"Velocity":29,"Duration":952381,"SoundDuration":952381,"Delta":80885421},{"NoteNumber":67,"Velocity":43,"Duration":714285,"SoundDuration":714285,"Delta":80885421},{"NoteNumber":62,"Velocity":30,"Duration":952381,"SoundDuration":952381,"Delta":80885421},{"NoteNumber":50,"Velocity":25,"Duration":952381,"SoundDuration":952381,"Delta":80885421},{"NoteNumber":69,"Velocity":37,"Duration":238095,"SoundDuration":238095,"Delta":81599706},{"NoteNumber":64,"Velocity":36,"Duration":952381,"SoundDuration":952381,"Delta":81837802},{"NoteNumber":67,"Velocity":36,"Duration":952381,"SoundDuration":952381,"Delta":81837802},{"NoteNumber":71,"Velocity":45,"Duration":714285,"SoundDuration":714285,"Delta":81837802},{"NoteNumber":49,"Velocity":25,"Duration":952381,"SoundDuration":952381,"Delta":81837802},{"NoteNumber":61,"Velocity":30,"Duration":952381,"SoundDuration":952381,"Delta":81837802},{"NoteNumber":76,"Velocity":37,"Duration":238095,"SoundDuration":238095,"Delta":82552087},{"NoteNumber":64,"Velocity":36,"Duration":952380,"SoundDuration":952380,"Delta":82790183},{"NoteNumber":72,"Velocity":36,"Duration":952380,"SoundDuration":952380,"Delta":82790183},{"NoteNumber":79,"Velocity":45,"Duration":714285,"SoundDuration":714285,"Delta":82790183},{"NoteNumber":48,"Velocity":22,"Duration":952380,"SoundDuration":952380,"Delta":82790183},{"NoteNumber":60,"Velocity":26,"Duration":952380,"SoundDuration":952380,"Delta":82790183},{"NoteNumber":78,"Velocity":37,"Duration":238095,"SoundDuration":238095,"Delta":83504468},{"NoteNumber":71,"Velocity":40,"Duration":937500,"SoundDuration":937500,"Delta":83742564},{"NoteNumber":66,"Velocity":40,"Duration":937500,"SoundDuration":937500,"Delta":83742564},{"NoteNumber":74,"Velocity":50,"Duration":703125,"SoundDuration":703125,"Delta":83742564},{"NoteNumber":47,"Velocity":25,"Duration":937500,"SoundDuration":937500,"Delta":83742564},{"NoteNumber":59,"Velocity":30,"Duration":937500,"SoundDuration":937500,"Delta":83742564},{"NoteNumber":72,"Velocity":43,"Duration":234375,"SoundDuration":234375,"Delta":84445689},{"NoteNumber":60,"Velocity":43,"Duration":978354,"SoundDuration":978354,"Delta":84680064},{"NoteNumber":76,"Velocity":54,"Duration":703125,"SoundDuration":703125,"Delta":84680064},{"NoteNumber":69,"Velocity":43,"Duration":978354,"SoundDuration":978354,"Delta":84680064},{"NoteNumber":45,"Velocity":27,"Duration":978354,"SoundDuration":978354,"Delta":84680064},{"NoteNumber":57,"Velocity":32,"Duration":978354,"SoundDuration":978354,"Delta":84680064},{"NoteNumber":74,"Velocity":46,"Duration":275229,"SoundDuration":275229,"Delta":85383189},{"NoteNumber":59,"Velocity":43,"Duration":1071428,"SoundDuration":1071428,"Delta":85658418},{"NoteNumber":71,"Velocity":40,"Duration":1575630,"SoundDuration":1575630,"Delta":85658418},{"NoteNumber":63,"Velocity":32,"Duration":2079831,"SoundDuration":2079831,"Delta":85658418},{"NoteNumber":43,"Velocity":25,"Duration":1071428,"SoundDuration":1071428,"Delta":85658418},{"NoteNumber":55,"Velocity":30,"Duration":1071428,"SoundDuration":1071428,"Delta":85658418},{"NoteNumber":57,"Velocity":43,"Duration":1008403,"SoundDuration":1008403,"Delta":86729847},{"NoteNumber":42,"Velocity":22,"Duration":1008403,"SoundDuration":1008403,"Delta":86729847},{"NoteNumber":54,"Velocity":26,"Duration":1008403,"SoundDuration":1008403,"Delta":86729847},{"NoteNumber":72,"Velocity":36,"Duration":504201,"SoundDuration":504201,"Delta":87234048},{"NoteNumber":60,"Velocity":25,"Duration":975610,"SoundDuration":975610,"Delta":87738250},{"NoteNumber":69,"Velocity":32,"Duration":731707,"SoundDuration":731707,"Delta":87738250},{"NoteNumber":65,"Velocity":25,"Duration":975610,"SoundDuration":975610,"Delta":87738250},{"NoteNumber":41,"Velocity":18,"Duration":975610,"SoundDuration":975610,"Delta":87738250},{"NoteNumber":53,"Velocity":22,"Duration":975610,"SoundDuration":975610,"Delta":87738250},{"NoteNumber":71,"Velocity":27,"Duration":243902,"SoundDuration":243902,"Delta":88469957},{"NoteNumber":59,"Velocity":27,"Duration":975610,"SoundDuration":975610,"Delta":88713860},{"NoteNumber":64,"Velocity":27,"Duration":975610,"SoundDuration":975610,"Delta":88713860},{"NoteNumber":67,"Velocity":33,"Duration":731707,"SoundDuration":731707,"Delta":88713860},{"NoteNumber":48,"Velocity":19,"Duration":975610,"SoundDuration":975610,"Delta":88713860},{"NoteNumber":36,"Velocity":16,"Duration":975610,"SoundDuration":975610,"Delta":88713860},{"NoteNumber":69,"Velocity":29,"Duration":243902,"SoundDuration":243902,"Delta":89445567},{"NoteNumber":57,"Velocity":27,"Duration":1034482,"SoundDuration":1034482,"Delta":89689470},{"NoteNumber":62,"Velocity":27,"Duration":1034482,"SoundDuration":1034482,"Delta":89689470},{"NoteNumber":66,"Velocity":33,"Duration":775862,"SoundDuration":775862,"Delta":89689470},{"NoteNumber":38,"Velocity":18,"Duration":1034482,"SoundDuration":1034482,"Delta":89689470},{"NoteNumber":50,"Velocity":22,"Duration":1034482,"SoundDuration":1034482,"Delta":89689470},{"NoteNumber":67,"Velocity":27,"Duration":258620,"SoundDuration":258620,"Delta":90465332},{"NoteNumber":55,"Velocity":25,"Duration":1061576,"SoundDuration":1061576,"Delta":90723953},{"NoteNumber":64,"Velocity":32,"Duration":775862,"SoundDuration":775862,"Delta":90723953},{"NoteNumber":60,"Velocity":25,"Duration":1061576,"SoundDuration":1061576,"Delta":90723953},{"NoteNumber":45,"Velocity":19,"Duration":1061576,"SoundDuration":1061576,"Delta":90723953},{"NoteNumber":33,"Velocity":16,"Duration":1061576,"SoundDuration":1061576,"Delta":90723953},{"NoteNumber":66,"Velocity":26,"Duration":285714,"SoundDuration":285714,"Delta":91499815},{"NoteNumber":54,"Velocity":18,"Duration":1090909,"SoundDuration":1090909,"Delta":92876438},{"NoteNumber":63,"Velocity":22,"Duration":1090909,"SoundDuration":1090909,"Delta":92876438},{"NoteNumber":59,"Velocity":18,"Duration":1090909,"SoundDuration":1090909,"Delta":92876438},{"NoteNumber":47,"Velocity":15,"Duration":1090909,"SoundDuration":1090909,"Delta":92876438},{"NoteNumber":35,"Velocity":12,"Duration":1090909,"SoundDuration":1090909,"Delta":92876438},{"NoteNumber":47,"Velocity":24,"Duration":788090,"SoundDuration":788090,"Delta":96149165},{"NoteNumber":40,"Velocity":24,"Duration":788090,"SoundDuration":788090,"Delta":96149165},{"NoteNumber":47,"Velocity":21,"Duration":788091,"SoundDuration":788091,"Delta":96937256},{"NoteNumber":40,"Velocity":21,"Duration":788091,"SoundDuration":788091,"Delta":96937256},{"NoteNumber":47,"Velocity":21,"Duration":784125,"SoundDuration":784125,"Delta":97725347},{"NoteNumber":40,"Velocity":21,"Duration":784125,"SoundDuration":784125,"Delta":97725347},{"NoteNumber":68,"Velocity":34,"Duration":131348,"SoundDuration":131348,"Delta":97988044},{"NoteNumber":64,"Velocity":30,"Duration":262696,"SoundDuration":262696,"Delta":97988044},{"NoteNumber":71,"Velocity":28,"Duration":131348,"SoundDuration":131348,"Delta":98119393},{"NoteNumber":64,"Velocity":29,"Duration":258731,"SoundDuration":258731,"Delta":98250741},{"NoteNumber":68,"Velocity":33,"Duration":129366,"SoundDuration":129366,"Delta":98250741},{"NoteNumber":71,"Velocity":25,"Duration":129365,"SoundDuration":129365,"Delta":98380107},{"NoteNumber":73,"Velocity":43,"Duration":126903,"SoundDuration":126903,"Delta":98509473},{"NoteNumber":40,"Velocity":21,"Duration":781711,"SoundDuration":781711,"Delta":98509473},{"NoteNumber":47,"Velocity":21,"Duration":781711,"SoundDuration":781711,"Delta":98509473},{"NoteNumber":69,"Velocity":25,"Duration":126903,"SoundDuration":126903,"Delta":98636377},{"NoteNumber":61,"Velocity":32,"Duration":253807,"SoundDuration":253807,"Delta":98763280},{"NoteNumber":73,"Velocity":36,"Duration":126903,"SoundDuration":126903,"Delta":98763280},{"NoteNumber":69,"Velocity":25,"Duration":126903,"SoundDuration":126903,"Delta":98890184},{"NoteNumber":61,"Velocity":32,"Duration":68524,"SoundDuration":68524,"Delta":99017087},{"NoteNumber":66,"Velocity":36,"Duration":68524,"SoundDuration":68524,"Delta":99017087},{"NoteNumber":40,"Velocity":21,"Duration":792223,"SoundDuration":792223,"Delta":99291185},{"NoteNumber":47,"Velocity":21,"Duration":792223,"SoundDuration":792223,"Delta":99291185},{"NoteNumber":66,"Velocity":34,"Duration":131061,"SoundDuration":131061,"Delta":99553308},{"NoteNumber":61,"Velocity":30,"Duration":262123,"SoundDuration":262123,"Delta":99553308},{"NoteNumber":69,"Velocity":28,"Duration":131061,"SoundDuration":131061,"Delta":99684370},{"NoteNumber":61,"Velocity":29,"Duration":267977,"SoundDuration":267977,"Delta":99815431},{"NoteNumber":66,"Velocity":33,"Duration":133988,"SoundDuration":133988,"Delta":99815431},{"NoteNumber":69,"Velocity":25,"Duration":133988,"SoundDuration":133988,"Delta":99949420},{"NoteNumber":71,"Velocity":42,"Duration":883048,"SoundDuration":883048,"Delta":100083408},{"NoteNumber":40,"Velocity":21,"Duration":883048,"SoundDuration":883048,"Delta":100083408},{"NoteNumber":47,"Velocity":21,"Duration":883048,"SoundDuration":883048,"Delta":100083408},{"NoteNumber":63,"Velocity":30,"Duration":74478,"SoundDuration":74478,"Delta":100370627},{"NoteNumber":68,"Velocity":30,"Duration":74478,"SoundDuration":74478,"Delta":100370627},{"NoteNumber":63,"Velocity":30,"Duration":74478,"SoundDuration":74478,"Delta":100668542},{"NoteNumber":68,"Velocity":30,"Duration":74478,"SoundDuration":74478,"Delta":100668542},{"NoteNumber":47,"Velocity":21,"Duration":783570,"SoundDuration":783570,"Delta":100966457},{"NoteNumber":40,"Velocity":21,"Duration":783570,"SoundDuration":783570,"Delta":100966457},{"NoteNumber":64,"Velocity":34,"Duration":131348,"SoundDuration":131348,"Delta":101229154},{"NoteNumber":63,"Velocity":30,"Duration":262697,"SoundDuration":262697,"Delta":101229154},{"NoteNumber":68,"Velocity":28,"Duration":131348,"SoundDuration":131348,"Delta":101360503},{"NoteNumber":63,"Velocity":29,"Duration":258176,"SoundDuration":258176,"Delta":101491851},{"NoteNumber":64,"Velocity":33,"Duration":129087,"SoundDuration":129087,"Delta":101491851},{"NoteNumber":68,"Velocity":25,"Duration":129088,"SoundDuration":129088,"Delta":101620939},{"NoteNumber":69,"Velocity":46,"Duration":126903,"SoundDuration":126903,"Delta":101750027},{"NoteNumber":40,"Velocity":21,"Duration":792785,"SoundDuration":792785,"Delta":101750027},{"NoteNumber":47,"Velocity":21,"Duration":792785,"SoundDuration":792785,"Delta":101750027},{"NoteNumber":66,"Velocity":25,"Duration":126903,"SoundDuration":126903,"Delta":101876931},{"NoteNumber":57,"Velocity":32,"Duration":253807,"SoundDuration":253807,"Delta":102003834},{"NoteNumber":69,"Velocity":36,"Duration":126903,"SoundDuration":126903,"Delta":102003834},{"NoteNumber":66,"Velocity":25,"Duration":126903,"SoundDuration":126903,"Delta":102130738},{"NoteNumber":57,"Velocity":32,"Duration":71292,"SoundDuration":71292,"Delta":102257641},{"NoteNumber":61,"Velocity":36,"Duration":71292,"SoundDuration":71292,"Delta":102257641},{"NoteNumber":40,"Velocity":21,"Duration":792223,"SoundDuration":792223,"Delta":102542812},{"NoteNumber":47,"Velocity":21,"Duration":792223,"SoundDuration":792223,"Delta":102542812},{"NoteNumber":59,"Velocity":34,"Duration":131061,"SoundDuration":131061,"Delta":102804935},{"NoteNumber":54,"Velocity":30,"Duration":262123,"SoundDuration":262123,"Delta":102804935},{"NoteNumber":63,"Velocity":28,"Duration":131061,"SoundDuration":131061,"Delta":102935997},{"NoteNumber":54,"Velocity":29,"Duration":267977,"SoundDuration":267977,"Delta":103067058},{"NoteNumber":59,"Velocity":33,"Duration":133988,"SoundDuration":133988,"Delta":103067058},{"NoteNumber":63,"Velocity":25,"Duration":133988,"SoundDuration":133988,"Delta":103201047},{"NoteNumber":64,"Velocity":42,"Duration":887402,"SoundDuration":887402,"Delta":103335035},{"NoteNumber":40,"Velocity":21,"Duration":887402,"SoundDuration":887402,"Delta":103335035},{"NoteNumber":47,"Velocity":21,"Duration":887402,"SoundDuration":887402,"Delta":103335035},{"NoteNumber":56,"Velocity":30,"Duration":74850,"SoundDuration":74850,"Delta":103623636},{"NoteNumber":59,"Velocity":30,"Duration":74850,"SoundDuration":74850,"Delta":103623636},{"NoteNumber":56,"Velocity":30,"Duration":74850,"SoundDuration":74850,"Delta":103923037},{"NoteNumber":59,"Velocity":30,"Duration":74850,"SoundDuration":74850,"Delta":103923037},{"NoteNumber":35,"Velocity":21,"Duration":784126,"SoundDuration":784126,"Delta":104222438},{"NoteNumber":63,"Velocity":39,"Duration":131348,"SoundDuration":131348,"Delta":104485135},{"NoteNumber":59,"Velocity":30,"Duration":262697,"SoundDuration":262697,"Delta":104485135},{"NoteNumber":42,"Velocity":21,"Duration":262697,"SoundDuration":262697,"Delta":104485135},{"NoteNumber":66,"Velocity":32,"Duration":131348,"SoundDuration":131348,"Delta":104616483},{"NoteNumber":59,"Velocity":29,"Duration":258731,"SoundDuration":258731,"Delta":104747832},{"NoteNumber":63,"Velocity":37,"Duration":129366,"SoundDuration":129366,"Delta":104747832},{"NoteNumber":42,"Velocity":21,"Duration":258731,"SoundDuration":258731,"Delta":104747832},{"NoteNumber":66,"Velocity":28,"Duration":129365,"SoundDuration":129365,"Delta":104869651},{"NoteNumber":68,"Velocity":49,"Duration":126903,"SoundDuration":126903,"Delta":105006564},{"NoteNumber":35,"Velocity":21,"Duration":781711,"SoundDuration":781711,"Delta":105006564},{"NoteNumber":64,"Velocity":28,"Duration":126903,"SoundDuration":126903,"Delta":105133467},{"NoteNumber":56,"Velocity":32,"Duration":253807,"SoundDuration":253807,"Delta":105260371},{"NoteNumber":68,"Velocity":41,"Duration":126903,"SoundDuration":126903,"Delta":105260371},{"NoteNumber":42,"Velocity":21,"Duration":253807,"SoundDuration":253807,"Delta":105260371},{"NoteNumber":64,"Velocity":28,"Duration":126903,"SoundDuration":126903,"Delta":105387274},{"NoteNumber":56,"Velocity":32,"Duration":68524,"SoundDuration":68524,"Delta":105514178},{"NoteNumber":61,"Velocity":41,"Duration":68524,"SoundDuration":68524,"Delta":105514178},{"NoteNumber":42,"Velocity":21,"Duration":68524,"SoundDuration":68524,"Delta":105514178},{"NoteNumber":35,"Velocity":21,"Duration":792223,"SoundDuration":792223,"Delta":105788276},{"NoteNumber":61,"Velocity":39,"Duration":131061,"SoundDuration":131061,"Delta":106050399},{"NoteNumber":56,"Velocity":30,"Duration":262123,"SoundDuration":262123,"Delta":106050399},{"NoteNumber":42,"Velocity":21,"Duration":262123,"SoundDuration":262123,"Delta":106050399},{"NoteNumber":64,"Velocity":32,"Duration":131061,"SoundDuration":131061,"Delta":106181460},{"NoteNumber":56,"Velocity":29,"Duration":267977,"SoundDuration":267977,"Delta":106312522},{"NoteNumber":61,"Velocity":37,"Duration":133988,"SoundDuration":133988,"Delta":106312522},{"NoteNumber":42,"Velocity":21,"Duration":267977,"SoundDuration":267977,"Delta":106312522},{"NoteNumber":64,"Velocity":28,"Duration":133988,"SoundDuration":133988,"Delta":106446510},{"NoteNumber":66,"Velocity":48,"Duration":872185,"SoundDuration":872185,"Delta":106580499},{"NoteNumber":35,"Velocity":21,"Duration":872185,"SoundDuration":872185,"Delta":106580499},{"NoteNumber":58,"Velocity":30,"Duration":73206,"SoundDuration":73206,"Delta":106867032},{"NoteNumber":63,"Velocity":30,"Duration":73206,"SoundDuration":73206,"Delta":106867032},{"NoteNumber":42,"Velocity":21,"Duration":73206,"SoundDuration":73206,"Delta":106867032},{"NoteNumber":58,"Velocity":30,"Duration":73206,"SoundDuration":73206,"Delta":107159858},{"NoteNumber":63,"Velocity":30,"Duration":73206,"SoundDuration":73206,"Delta":107159858},{"NoteNumber":42,"Velocity":21,"Duration":73206,"SoundDuration":73206,"Delta":107159858},{"NoteNumber":35,"Velocity":21,"Duration":784126,"SoundDuration":784126,"Delta":107452684},{"NoteNumber":59,"Velocity":39,"Duration":131348,"SoundDuration":131348,"Delta":107715381},{"NoteNumber":58,"Velocity":30,"Duration":262697,"SoundDuration":262697,"Delta":107715381},{"NoteNumber":42,"Velocity":21,"Duration":262697,"SoundDuration":262697,"Delta":107715381},{"NoteNumber":63,"Velocity":32,"Duration":131348,"SoundDuration":131348,"Delta":107846729},{"NoteNumber":58,"Velocity":29,"Duration":258731,"SoundDuration":258731,"Delta":107978078},{"NoteNumber":59,"Velocity":37,"Duration":129366,"SoundDuration":129366,"Delta":107978078},{"NoteNumber":42,"Velocity":21,"Duration":258731,"SoundDuration":258731,"Delta":107978078},{"NoteNumber":63,"Velocity":28,"Duration":129365,"SoundDuration":129365,"Delta":108107444},{"NoteNumber":64,"Velocity":49,"Duration":126903,"SoundDuration":126903,"Delta":108236810},{"NoteNumber":35,"Velocity":21,"Duration":790766,"SoundDuration":790766,"Delta":108236810},{"NoteNumber":61,"Velocity":28,"Duration":126903,"SoundDuration":126903,"Delta":108363713},{"NoteNumber":52,"Velocity":32,"Duration":253807,"SoundDuration":253807,"Delta":108490617},{"NoteNumber":64,"Velocity":41,"Duration":126903,"SoundDuration":126903,"Delta":108490617},{"NoteNumber":42,"Velocity":21,"Duration":253807,"SoundDuration":253807,"Delta":108490617},{"NoteNumber":61,"Velocity":28,"Duration":126903,"SoundDuration":126903,"Delta":108617520},{"NoteNumber":52,"Velocity":32,"Duration":70787,"SoundDuration":70787,"Delta":108744424},{"NoteNumber":56,"Velocity":41,"Duration":70787,"SoundDuration":70787,"Delta":108744424},{"NoteNumber":42,"Velocity":21,"Duration":70787,"SoundDuration":70787,"Delta":108744424},{"NoteNumber":35,"Velocity":21,"Duration":792223,"SoundDuration":792223,"Delta":109027576},{"NoteNumber":54,"Velocity":39,"Duration":131061,"SoundDuration":131061,"Delta":109289699},{"NoteNumber":49,"Velocity":30,"Duration":262123,"SoundDuration":262123,"Delta":109289699},{"NoteNumber":42,"Velocity":21,"Duration":262123,"SoundDuration":262123,"Delta":109289699},{"NoteNumber":58,"Velocity":32,"Duration":131061,"SoundDuration":131061,"Delta":109420760},{"NoteNumber":49,"Velocity":29,"Duration":267977,"SoundDuration":267977,"Delta":109551822},{"NoteNumber":54,"Velocity":37,"Duration":133988,"SoundDuration":133988,"Delta":109551822},{"NoteNumber":42,"Velocity":21,"Duration":267977,"SoundDuration":267977,"Delta":109551822},{"NoteNumber":58,"Velocity":28,"Duration":133988,"SoundDuration":133988,"Delta":109685810},{"NoteNumber":59,"Velocity":48,"Duration":894837,"SoundDuration":894837,"Delta":109819799},{"NoteNumber":35,"Velocity":21,"Duration":894837,"SoundDuration":894837,"Delta":109819799},{"NoteNumber":51,"Velocity":30,"Duration":75414,"SoundDuration":75414,"Delta":110109794},{"NoteNumber":54,"Velocity":30,"Duration":75414,"SoundDuration":75414,"Delta":110109794},{"NoteNumber":42,"Velocity":21,"Duration":75414,"SoundDuration":75414,"Delta":110109794},{"NoteNumber":51,"Velocity":30,"Duration":75795,"SoundDuration":75795,"Delta":110411453},{"NoteNumber":54,"Velocity":30,"Duration":75795,"SoundDuration":75795,"Delta":110411453},{"NoteNumber":42,"Velocity":21,"Duration":75795,"SoundDuration":75795,"Delta":110411453},{"NoteNumber":70,"Velocity":21,"Duration":784126,"SoundDuration":784126,"Delta":110714636},{"NoteNumber":63,"Velocity":21,"Duration":784126,"SoundDuration":784126,"Delta":110714636},{"NoteNumber":78,"Velocity":30,"Duration":131348,"SoundDuration":131348,"Delta":110977333},{"NoteNumber":75,"Velocity":30,"Duration":262697,"SoundDuration":262697,"Delta":110977333},{"NoteNumber":82,"Velocity":25,"Duration":131348,"SoundDuration":131348,"Delta":111108681},{"NoteNumber":75,"Velocity":29,"Duration":258731,"SoundDuration":258731,"Delta":111240030},{"NoteNumber":78,"Velocity":29,"Duration":129366,"SoundDuration":129366,"Delta":111240030},{"NoteNumber":82,"Velocity":22,"Duration":129365,"SoundDuration":129365,"Delta":111369396},{"NoteNumber":84,"Velocity":38,"Duration":126903,"SoundDuration":126903,"Delta":111498762},{"NoteNumber":56,"Velocity":21,"Duration":781711,"SoundDuration":781711,"Delta":111498762},{"NoteNumber":63,"Velocity":21,"Duration":781711,"SoundDuration":781711,"Delta":111498762},{"NoteNumber":80,"Velocity":22,"Duration":126903,"SoundDuration":126903,"Delta":111625665},{"NoteNumber":72,"Velocity":32,"Duration":253807,"SoundDuration":253807,"Delta":111752569},{"NoteNumber":84,"Velocity":32,"Duration":126903,"SoundDuration":126903,"Delta":111752569},{"NoteNumber":80,"Velocity":22,"Duration":126903,"SoundDuration":126903,"Delta":111879472},{"NoteNumber":72,"Velocity":32,"Duration":68524,"SoundDuration":68524,"Delta":112006376},{"NoteNumber":75,"Velocity":32,"Duration":68524,"SoundDuration":68524,"Delta":112006376},{"NoteNumber":63,"Velocity":21,"Duration":792223,"SoundDuration":792223,"Delta":112280474},{"NoteNumber":70,"Velocity":21,"Duration":792223,"SoundDuration":792223,"Delta":112280474},{"NoteNumber":78,"Velocity":30,"Duration":131061,"SoundDuration":131061,"Delta":112542597},{"NoteNumber":75,"Velocity":30,"Duration":262123,"SoundDuration":262123,"Delta":112542597},{"NoteNumber":82,"Velocity":25,"Duration":131061,"SoundDuration":131061,"Delta":112673658},{"NoteNumber":75,"Velocity":29,"Duration":267977,"SoundDuration":267977,"Delta":112804720},{"NoteNumber":78,"Velocity":29,"Duration":133988,"SoundDuration":133988,"Delta":112804720},{"NoteNumber":82,"Velocity":22,"Duration":133988,"SoundDuration":133988,"Delta":112938708},{"NoteNumber":77,"Velocity":37,"Duration":883048,"SoundDuration":883048,"Delta":113072697},{"NoteNumber":58,"Velocity":21,"Duration":883048,"SoundDuration":883048,"Delta":113072697},{"NoteNumber":65,"Velocity":21,"Duration":883048,"SoundDuration":883048,"Delta":113072697},{"NoteNumber":70,"Velocity":30,"Duration":74478,"SoundDuration":74478,"Delta":113359916},{"NoteNumber":74,"Velocity":30,"Duration":74478,"SoundDuration":74478,"Delta":113359916},{"NoteNumber":70,"Velocity":30,"Duration":74478,"SoundDuration":74478,"Delta":113657831},{"NoteNumber":74,"Velocity":30,"Duration":74478,"SoundDuration":74478,"Delta":113657831},{"NoteNumber":77,"Velocity":21,"Duration":783570,"SoundDuration":783570,"Delta":113955746},{"NoteNumber":70,"Velocity":21,"Duration":783570,"SoundDuration":783570,"Delta":113955746},{"NoteNumber":85,"Velocity":33,"Duration":131348,"SoundDuration":131348,"Delta":114218443},{"NoteNumber":82,"Velocity":33,"Duration":262697,"SoundDuration":262697,"Delta":114218443},{"NoteNumber":89,"Velocity":27,"Duration":131348,"SoundDuration":131348,"Delta":114349791},{"NoteNumber":82,"Velocity":31,"Duration":258176,"SoundDuration":258176,"Delta":114481140},{"NoteNumber":85,"Velocity":31,"Duration":129087,"SoundDuration":129087,"Delta":114481140},{"NoteNumber":89,"Velocity":24,"Duration":129088,"SoundDuration":129088,"Delta":114610228},{"NoteNumber":91,"Velocity":44,"Duration":126903,"SoundDuration":126903,"Delta":114739316},{"NoteNumber":63,"Velocity":21,"Duration":792785,"SoundDuration":792785,"Delta":114739316},{"NoteNumber":70,"Velocity":21,"Duration":792785,"SoundDuration":792785,"Delta":114739316},{"NoteNumber":87,"Velocity":24,"Duration":126903,"SoundDuration":126903,"Delta":114866219},{"NoteNumber":79,"Velocity":35,"Duration":253807,"SoundDuration":253807,"Delta":114993123},{"NoteNumber":91,"Velocity":35,"Duration":126903,"SoundDuration":126903,"Delta":114993123},{"NoteNumber":87,"Velocity":24,"Duration":126903,"SoundDuration":126903,"Delta":115120026},{"NoteNumber":79,"Velocity":35,"Duration":71292,"SoundDuration":71292,"Delta":115246930},{"NoteNumber":82,"Velocity":35,"Duration":71292,"SoundDuration":71292,"Delta":115246930},{"NoteNumber":70,"Velocity":21,"Duration":792223,"SoundDuration":792223,"Delta":115532101},{"NoteNumber":77,"Velocity":21,"Duration":792223,"SoundDuration":792223,"Delta":115532101},{"NoteNumber":85,"Velocity":33,"Duration":131061,"SoundDuration":131061,"Delta":115794224},{"NoteNumber":82,"Velocity":33,"Duration":262123,"SoundDuration":262123,"Delta":115794224},{"NoteNumber":89,"Velocity":27,"Duration":131061,"SoundDuration":131061,"Delta":115925285},{"NoteNumber":82,"Velocity":31,"Duration":267977,"SoundDuration":267977,"Delta":116056347},{"NoteNumber":85,"Velocity":31,"Duration":133988,"SoundDuration":133988,"Delta":116056347},{"NoteNumber":89,"Velocity":24,"Duration":133988,"SoundDuration":133988,"Delta":116190335},{"NoteNumber":84,"Velocity":40,"Duration":887402,"SoundDuration":887402,"Delta":116324324},{"NoteNumber":65,"Velocity":21,"Duration":887402,"SoundDuration":887402,"Delta":116324324},{"NoteNumber":72,"Velocity":21,"Duration":887402,"SoundDuration":887402,"Delta":116324324},{"NoteNumber":77,"Velocity":33,"Duration":74850,"SoundDuration":74850,"Delta":116612924},{"NoteNumber":81,"Velocity":33,"Duration":74850,"SoundDuration":74850,"Delta":116612924},{"NoteNumber":77,"Velocity":33,"Duration":74850,"SoundDuration":74850,"Delta":116912325},{"NoteNumber":81,"Velocity":33,"Duration":74850,"SoundDuration":74850,"Delta":116912325},{"NoteNumber":60,"Velocity":21,"Duration":784126,"SoundDuration":784126,"Delta":117211726},{"NoteNumber":53,"Velocity":21,"Duration":784126,"SoundDuration":784126,"Delta":117211726},{"NoteNumber":68,"Velocity":30,"Duration":131348,"SoundDuration":131348,"Delta":117474423},{"NoteNumber":65,"Velocity":30,"Duration":262697,"SoundDuration":262697,"Delta":117474423},{"NoteNumber":72,"Velocity":25,"Duration":131348,"SoundDuration":131348,"Delta":117605771},{"NoteNumber":65,"Velocity":29,"Duration":258731,"SoundDuration":258731,"Delta":117737120},{"NoteNumber":68,"Velocity":29,"Duration":129366,"SoundDuration":129366,"Delta":117737120},{"NoteNumber":72,"Velocity":22,"Duration":129365,"SoundDuration":129365,"Delta":117866486},{"NoteNumber":74,"Velocity":38,"Duration":126903,"SoundDuration":126903,"Delta":117995852},{"NoteNumber":46,"Velocity":21,"Duration":781711,"SoundDuration":781711,"Delta":117995852},{"NoteNumber":53,"Velocity":21,"Duration":781711,"SoundDuration":781711,"Delta":117995852},{"NoteNumber":70,"Velocity":22,"Duration":126903,"SoundDuration":126903,"Delta":118122755},{"NoteNumber":62,"Velocity":32,"Duration":253807,"SoundDuration":253807,"Delta":118249659},{"NoteNumber":74,"Velocity":32,"Duration":126903,"SoundDuration":126903,"Delta":118249659},{"NoteNumber":70,"Velocity":22,"Duration":126903,"SoundDuration":126903,"Delta":118376562},{"NoteNumber":62,"Velocity":32,"Duration":68524,"SoundDuration":68524,"Delta":118503466},{"NoteNumber":65,"Velocity":32,"Duration":68524,"SoundDuration":68524,"Delta":118503466},{"NoteNumber":53,"Velocity":21,"Duration":792223,"SoundDuration":792223,"Delta":118777564},{"NoteNumber":60,"Velocity":21,"Duration":792223,"SoundDuration":792223,"Delta":118777564},{"NoteNumber":68,"Velocity":30,"Duration":131061,"SoundDuration":131061,"Delta":119039687},{"NoteNumber":65,"Velocity":30,"Duration":262123,"SoundDuration":262123,"Delta":119039687},{"NoteNumber":72,"Velocity":25,"Duration":131061,"SoundDuration":131061,"Delta":119170748},{"NoteNumber":65,"Velocity":29,"Duration":267977,"SoundDuration":267977,"Delta":119301810},{"NoteNumber":68,"Velocity":29,"Duration":133988,"SoundDuration":133988,"Delta":119301810},{"NoteNumber":72,"Velocity":22,"Duration":133988,"SoundDuration":133988,"Delta":119435798},{"NoteNumber":67,"Velocity":37,"Duration":883048,"SoundDuration":883048,"Delta":119569787},{"NoteNumber":48,"Velocity":21,"Duration":883048,"SoundDuration":883048,"Delta":119569787},{"NoteNumber":55,"Velocity":21,"Duration":883048,"SoundDuration":883048,"Delta":119569787},{"NoteNumber":60,"Velocity":30,"Duration":74478,"SoundDuration":74478,"Delta":119857006},{"NoteNumber":64,"Velocity":30,"Duration":74478,"SoundDuration":74478,"Delta":119857006},{"NoteNumber":60,"Velocity":30,"Duration":74478,"SoundDuration":74478,"Delta":120154921},{"NoteNumber":64,"Velocity":30,"Duration":74478,"SoundDuration":74478,"Delta":120154921},{"NoteNumber":67,"Velocity":28,"Duration":783570,"SoundDuration":783570,"Delta":120452836},{"NoteNumber":60,"Velocity":28,"Duration":783570,"SoundDuration":783570,"Delta":120452836},{"NoteNumber":75,"Velocity":41,"Duration":131348,"SoundDuration":131348,"Delta":120715533},{"NoteNumber":72,"Velocity":41,"Duration":262697,"SoundDuration":262697,"Delta":120715533},{"NoteNumber":79,"Velocity":35,"Duration":131348,"SoundDuration":131348,"Delta":120846881},{"NoteNumber":72,"Velocity":40,"Duration":258176,"SoundDuration":258176,"Delta":120978230},{"NoteNumber":75,"Velocity":40,"Duration":129087,"SoundDuration":129087,"Delta":120978230},{"NoteNumber":79,"Velocity":31,"Duration":129088,"SoundDuration":129088,"Delta":121107318},{"NoteNumber":81,"Velocity":59,"Duration":126903,"SoundDuration":126903,"Delta":121236406},{"NoteNumber":53,"Velocity":30,"Duration":792785,"SoundDuration":792785,"Delta":121236406},{"NoteNumber":60,"Velocity":30,"Duration":792785,"SoundDuration":792785,"Delta":121236406},{"NoteNumber":77,"Velocity":32,"Duration":126903,"SoundDuration":126903,"Delta":121363309},{"NoteNumber":69,"Velocity":48,"Duration":253807,"SoundDuration":253807,"Delta":121490213},{"NoteNumber":81,"Velocity":48,"Duration":126903,"SoundDuration":126903,"Delta":121490213},{"NoteNumber":77,"Velocity":33,"Duration":126903,"SoundDuration":126903,"Delta":121617116},{"NoteNumber":69,"Velocity":49,"Duration":71292,"SoundDuration":71292,"Delta":121744020},{"NoteNumber":72,"Velocity":49,"Duration":71292,"SoundDuration":71292,"Delta":121744020},{"NoteNumber":79,"Velocity":35,"Duration":783570,"SoundDuration":783570,"Delta":122029191},{"NoteNumber":72,"Velocity":35,"Duration":783570,"SoundDuration":783570,"Delta":122029191},{"NoteNumber":87,"Velocity":53,"Duration":131348,"SoundDuration":131348,"Delta":122291888},{"NoteNumber":84,"Velocity":53,"Duration":262697,"SoundDuration":262697,"Delta":122291888},{"NoteNumber":91,"Velocity":43,"Duration":131348,"SoundDuration":131348,"Delta":122423236},{"NoteNumber":84,"Velocity":51,"Duration":258176,"SoundDuration":258176,"Delta":122554585},{"NoteNumber":87,"Velocity":51,"Duration":129087,"SoundDuration":129087,"Delta":122554585},{"NoteNumber":91,"Velocity":38,"Duration":129088,"SoundDuration":129088,"Delta":122683673},{"NoteNumber":93,"Velocity":74,"Duration":126903,"SoundDuration":126903,"Delta":122812761},{"NoteNumber":65,"Velocity":38,"Duration":792785,"SoundDuration":792785,"Delta":122812761},{"NoteNumber":72,"Velocity":38,"Duration":792785,"SoundDuration":792785,"Delta":122812761},{"NoteNumber":89,"Velocity":39,"Duration":126903,"SoundDuration":126903,"Delta":122939664},{"NoteNumber":81,"Velocity":59,"Duration":253807,"SoundDuration":253807,"Delta":123066568},{"NoteNumber":93,"Velocity":59,"Duration":126903,"SoundDuration":126903,"Delta":123066568},{"NoteNumber":89,"Velocity":40,"Duration":126903,"SoundDuration":126903,"Delta":123193471},{"NoteNumber":81,"Velocity":61,"Duration":71292,"SoundDuration":71292,"Delta":123320375},{"NoteNumber":84,"Velocity":61,"Duration":71292,"SoundDuration":71292,"Delta":123320375},{"NoteNumber":75,"Velocity":63,"Duration":127123,"SoundDuration":127123,"Delta":123605546},{"NoteNumber":72,"Velocity":53,"Duration":254248,"SoundDuration":254248,"Delta":123605546},{"NoteNumber":67,"Velocity":53,"Duration":254248,"SoundDuration":254248,"Delta":123605546},{"NoteNumber":60,"Velocity":45,"Duration":254248,"SoundDuration":254248,"Delta":123605546},{"NoteNumber":79,"Velocity":70,"Duration":127124,"SoundDuration":127124,"Delta":123732670},{"NoteNumber":72,"Velocity":60,"Duration":568747,"SoundDuration":568747,"Delta":123859794},{"NoteNumber":77,"Velocity":71,"Duration":568747,"SoundDuration":568747,"Delta":123859794},{"NoteNumber":81,"Velocity":71,"Duration":568747,"SoundDuration":568747,"Delta":123859794},{"NoteNumber":69,"Velocity":50,"Duration":568747,"SoundDuration":568747,"Delta":123859794},{"NoteNumber":65,"Velocity":41,"Duration":568747,"SoundDuration":568747,"Delta":123859794},{"NoteNumber":87,"Velocity":72,"Duration":127123,"SoundDuration":127123,"Delta":124428542},{"NoteNumber":84,"Velocity":61,"Duration":254248,"SoundDuration":254248,"Delta":124428542},{"NoteNumber":79,"Velocity":62,"Duration":254248,"SoundDuration":254248,"Delta":124428542},{"NoteNumber":72,"Velocity":51,"Duration":254248,"SoundDuration":254248,"Delta":124428542},{"NoteNumber":91,"Velocity":80,"Duration":127124,"SoundDuration":127124,"Delta":124555666},{"NoteNumber":84,"Velocity":68,"Duration":568747,"SoundDuration":568747,"Delta":124682790},{"NoteNumber":89,"Velocity":81,"Duration":568747,"SoundDuration":568747,"Delta":124682790},{"NoteNumber":93,"Velocity":81,"Duration":568747,"SoundDuration":568747,"Delta":124682790},{"NoteNumber":81,"Velocity":56,"Duration":568747,"SoundDuration":568747,"Delta":124682790},{"NoteNumber":77,"Velocity":47,"Duration":568747,"SoundDuration":568747,"Delta":124682790},{"NoteNumber":75,"Velocity":70,"Duration":127123,"SoundDuration":127123,"Delta":125251538},{"NoteNumber":72,"Velocity":58,"Duration":254248,"SoundDuration":254248,"Delta":125251538},{"NoteNumber":67,"Velocity":58,"Duration":254248,"SoundDuration":254248,"Delta":125251538},{"NoteNumber":60,"Velocity":47,"Duration":254248,"SoundDuration":254248,"Delta":125251538},{"NoteNumber":79,"Velocity":76,"Duration":127124,"SoundDuration":127124,"Delta":125378662},{"NoteNumber":72,"Velocity":65,"Duration":568747,"SoundDuration":568747,"Delta":125505786},{"NoteNumber":77,"Velocity":77,"Duration":568747,"SoundDuration":568747,"Delta":125505786},{"NoteNumber":81,"Velocity":77,"Duration":568747,"SoundDuration":568747,"Delta":125505786},{"NoteNumber":69,"Velocity":53,"Duration":568747,"SoundDuration":568747,"Delta":125505786},{"NoteNumber":65,"Velocity":45,"Duration":568747,"SoundDuration":568747,"Delta":125505786},{"NoteNumber":87,"Velocity":78,"Duration":127123,"SoundDuration":127123,"Delta":126074534},{"NoteNumber":84,"Velocity":66,"Duration":254248,"SoundDuration":254248,"Delta":126074534},{"NoteNumber":79,"Velocity":68,"Duration":254248,"SoundDuration":254248,"Delta":126074534},{"NoteNumber":72,"Velocity":56,"Duration":254248,"SoundDuration":254248,"Delta":126074534},{"NoteNumber":91,"Velocity":87,"Duration":127124,"SoundDuration":127124,"Delta":126201658},{"NoteNumber":84,"Velocity":75,"Duration":563415,"SoundDuration":563415,"Delta":126328782},{"NoteNumber":89,"Velocity":88,"Duration":563415,"SoundDuration":563415,"Delta":126328782},{"NoteNumber":93,"Velocity":88,"Duration":563415,"SoundDuration":563415,"Delta":126328782},{"NoteNumber":81,"Velocity":60,"Duration":563415,"SoundDuration":563415,"Delta":126328782},{"NoteNumber":77,"Velocity":52,"Duration":563415,"SoundDuration":563415,"Delta":126328782},{"NoteNumber":72,"Velocity":85,"Duration":539139,"SoundDuration":539139,"Delta":126897530},{"NoteNumber":77,"Velocity":85,"Duration":539139,"SoundDuration":539139,"Delta":126897530},{"NoteNumber":81,"Velocity":85,"Duration":539139,"SoundDuration":539139,"Delta":126897530},{"NoteNumber":65,"Velocity":47,"Duration":539139,"SoundDuration":539139,"Delta":126897530},{"NoteNumber":69,"Velocity":58,"Duration":539139,"SoundDuration":539139,"Delta":126897530},{"NoteNumber":84,"Velocity":88,"Duration":559437,"SoundDuration":559437,"Delta":127441772},{"NoteNumber":89,"Velocity":88,"Duration":559437,"SoundDuration":559437,"Delta":127441772},{"NoteNumber":93,"Velocity":88,"Duration":559437,"SoundDuration":559437,"Delta":127441772},{"NoteNumber":77,"Velocity":52,"Duration":559437,"SoundDuration":559437,"Delta":127441772},{"NoteNumber":81,"Velocity":60,"Duration":559437,"SoundDuration":559437,"Delta":127441772},{"NoteNumber":72,"Velocity":85,"Duration":537919,"SoundDuration":537919,"Delta":128006504},{"NoteNumber":77,"Velocity":85,"Duration":537919,"SoundDuration":537919,"Delta":128006504},{"NoteNumber":81,"Velocity":85,"Duration":537919,"SoundDuration":537919,"Delta":128006504},{"NoteNumber":65,"Velocity":47,"Duration":537919,"SoundDuration":537919,"Delta":128006504},{"NoteNumber":69,"Velocity":58,"Duration":537919,"SoundDuration":537919,"Delta":128006504},{"NoteNumber":84,"Velocity":88,"Duration":558124,"SoundDuration":558124,"Delta":128549514},{"NoteNumber":89,"Velocity":88,"Duration":558124,"SoundDuration":558124,"Delta":128549514},{"NoteNumber":93,"Velocity":88,"Duration":558124,"SoundDuration":558124,"Delta":128549514},{"NoteNumber":77,"Velocity":52,"Duration":558124,"SoundDuration":558124,"Delta":128549514},{"NoteNumber":81,"Velocity":60,"Duration":558124,"SoundDuration":558124,"Delta":128549514},{"NoteNumber":72,"Velocity":85,"Duration":540366,"SoundDuration":540366,"Delta":129112920},{"NoteNumber":77,"Velocity":85,"Duration":540366,"SoundDuration":540366,"Delta":129112920},{"NoteNumber":81,"Velocity":85,"Duration":540366,"SoundDuration":540366,"Delta":129112920},{"NoteNumber":65,"Velocity":47,"Duration":540366,"SoundDuration":540366,"Delta":129112920},{"NoteNumber":69,"Velocity":58,"Duration":540366,"SoundDuration":540366,"Delta":129112920},{"NoteNumber":84,"Velocity":88,"Duration":601929,"SoundDuration":601929,"Delta":129658400},{"NoteNumber":89,"Velocity":88,"Duration":601929,"SoundDuration":601929,"Delta":129658400},{"NoteNumber":93,"Velocity":88,"Duration":601929,"SoundDuration":601929,"Delta":129658400},{"NoteNumber":77,"Velocity":52,"Duration":601929,"SoundDuration":601929,"Delta":129658400},{"NoteNumber":81,"Velocity":60,"Duration":601929,"SoundDuration":601929,"Delta":129658400},{"NoteNumber":71,"Velocity":92,"Duration":558124,"SoundDuration":558124,"Delta":130266026},{"NoteNumber":78,"Velocity":92,"Duration":558124,"SoundDuration":558124,"Delta":130266026},{"NoteNumber":83,"Velocity":92,"Duration":558124,"SoundDuration":558124,"Delta":130266026},{"NoteNumber":59,"Velocity":42,"Duration":558124,"SoundDuration":558124,"Delta":130266026},{"NoteNumber":66,"Velocity":51,"Duration":558124,"SoundDuration":558124,"Delta":130266026},{"NoteNumber":83,"Velocity":97,"Duration":574302,"SoundDuration":574302,"Delta":130829432},{"NoteNumber":90,"Velocity":97,"Duration":574302,"SoundDuration":574302,"Delta":130829432},{"NoteNumber":95,"Velocity":97,"Duration":574302,"SoundDuration":574302,"Delta":130829432},{"NoteNumber":71,"Velocity":46,"Duration":574302,"SoundDuration":574302,"Delta":130829432},{"NoteNumber":78,"Velocity":52,"Duration":574302,"SoundDuration":574302,"Delta":130829432},{"NoteNumber":71,"Velocity":92,"Duration":564753,"SoundDuration":564753,"Delta":131409170},{"NoteNumber":78,"Velocity":92,"Duration":564753,"SoundDuration":564753,"Delta":131409170},{"NoteNumber":83,"Velocity":92,"Duration":564753,"SoundDuration":564753,"Delta":131409170},{"NoteNumber":59,"Velocity":42,"Duration":564753,"SoundDuration":564753,"Delta":131409170},{"NoteNumber":66,"Velocity":51,"Duration":564753,"SoundDuration":564753,"Delta":131409170},{"NoteNumber":83,"Velocity":97,"Duration":579905,"SoundDuration":579905,"Delta":131979268},{"NoteNumber":90,"Velocity":97,"Duration":579905,"SoundDuration":579905,"Delta":131979268},{"NoteNumber":95,"Velocity":97,"Duration":579905,"SoundDuration":579905,"Delta":131979268},{"NoteNumber":71,"Velocity":46,"Duration":579905,"SoundDuration":579905,"Delta":131979268},{"NoteNumber":78,"Velocity":52,"Duration":579905,"SoundDuration":579905,"Delta":131979268},{"NoteNumber":71,"Velocity":92,"Duration":634866,"SoundDuration":634866,"Delta":132564662},{"NoteNumber":78,"Velocity":92,"Duration":634866,"SoundDuration":634866,"Delta":132564662},{"NoteNumber":83,"Velocity":92,"Duration":634866,"SoundDuration":634866,"Delta":132564662},{"NoteNumber":59,"Velocity":42,"Duration":634866,"SoundDuration":634866,"Delta":132564662},{"NoteNumber":66,"Velocity":51,"Duration":634866,"SoundDuration":634866,"Delta":132564662},{"NoteNumber":83,"Velocity":97,"Duration":559437,"SoundDuration":559437,"Delta":133205561},{"NoteNumber":90,"Velocity":97,"Duration":559437,"SoundDuration":559437,"Delta":133205561},{"NoteNumber":95,"Velocity":97,"Duration":559437,"SoundDuration":559437,"Delta":133205561},{"NoteNumber":71,"Velocity":46,"Duration":559437,"SoundDuration":559437,"Delta":133205561},{"NoteNumber":78,"Velocity":52,"Duration":559437,"SoundDuration":559437,"Delta":133205561},{"NoteNumber":47,"Velocity":94,"Duration":131348,"SoundDuration":131348,"Delta":133770293},{"NoteNumber":40,"Velocity":79,"Duration":131348,"SoundDuration":131348,"Delta":133770293},{"NoteNumber":76,"Velocity":76,"Duration":262697,"SoundDuration":262697,"Delta":134032990},{"NoteNumber":80,"Velocity":92,"Duration":131348,"SoundDuration":131348,"Delta":134032990},{"NoteNumber":59,"Velocity":71,"Duration":521429,"SoundDuration":521429,"Delta":134032990},{"NoteNumber":52,"Velocity":60,"Duration":521429,"SoundDuration":521429,"Delta":134032990},{"NoteNumber":83,"Velocity":76,"Duration":131348,"SoundDuration":131348,"Delta":134164338},{"NoteNumber":80,"Velocity":90,"Duration":129366,"SoundDuration":129366,"Delta":134295687},{"NoteNumber":76,"Velocity":75,"Duration":258732,"SoundDuration":258732,"Delta":134295687},{"NoteNumber":83,"Velocity":76,"Duration":129366,"SoundDuration":129366,"Delta":134425053},{"NoteNumber":85,"Velocity":92,"Duration":126903,"SoundDuration":126903,"Delta":134554419},{"NoteNumber":47,"Velocity":80,"Duration":126903,"SoundDuration":126903,"Delta":134554419},{"NoteNumber":40,"Velocity":68,"Duration":126903,"SoundDuration":126903,"Delta":134554419},{"NoteNumber":81,"Velocity":77,"Duration":126903,"SoundDuration":126903,"Delta":134681322},{"NoteNumber":73,"Velocity":55,"Duration":261448,"SoundDuration":261448,"Delta":134808226},{"NoteNumber":85,"Velocity":75,"Duration":130724,"SoundDuration":130724,"Delta":134808226},{"NoteNumber":59,"Velocity":70,"Duration":535547,"SoundDuration":535547,"Delta":134808226},{"NoteNumber":52,"Velocity":59,"Duration":535547,"SoundDuration":535547,"Delta":134808226},{"NoteNumber":81,"Velocity":72,"Duration":130724,"SoundDuration":130724,"Delta":134938950},{"NoteNumber":73,"Velocity":71,"Duration":68524,"SoundDuration":68524,"Delta":135069675},{"NoteNumber":78,"Velocity":80,"Duration":68524,"SoundDuration":68524,"Delta":135069675},{"NoteNumber":47,"Velocity":75,"Duration":131348,"SoundDuration":131348,"Delta":135343773},{"NoteNumber":40,"Velocity":63,"Duration":131348,"SoundDuration":131348,"Delta":135343773},{"NoteNumber":78,"Velocity":87,"Duration":131348,"SoundDuration":131348,"Delta":135606470},{"NoteNumber":73,"Velocity":87,"Duration":262697,"SoundDuration":262697,"Delta":135606470},{"NoteNumber":59,"Velocity":71,"Duration":521429,"SoundDuration":521429,"Delta":135606470},{"NoteNumber":52,"Velocity":60,"Duration":521429,"SoundDuration":521429,"Delta":135606470},{"NoteNumber":81,"Velocity":76,"Duration":131348,"SoundDuration":131348,"Delta":135737818},{"NoteNumber":73,"Velocity":86,"Duration":258732,"SoundDuration":258732,"Delta":135869167},{"NoteNumber":78,"Velocity":86,"Duration":129366,"SoundDuration":129366,"Delta":135869167},{"NoteNumber":81,"Velocity":75,"Duration":129366,"SoundDuration":129366,"Delta":135998533},{"NoteNumber":83,"Velocity":88,"Duration":862433,"SoundDuration":862433,"Delta":136127899},{"NoteNumber":47,"Velocity":80,"Duration":134534,"SoundDuration":134534,"Delta":136127899},{"NoteNumber":40,"Velocity":68,"Duration":134534,"SoundDuration":134534,"Delta":136127899},{"NoteNumber":80,"Velocity":72,"Duration":73895,"SoundDuration":73895,"Delta":136396969},{"NoteNumber":75,"Velocity":72,"Duration":73895,"SoundDuration":73895,"Delta":136396969},{"NoteNumber":59,"Velocity":70,"Duration":593363,"SoundDuration":593363,"Delta":136396969},{"NoteNumber":52,"Velocity":59,"Duration":593363,"SoundDuration":593363,"Delta":136396969},{"NoteNumber":75,"Velocity":72,"Duration":74445,"SoundDuration":74445,"Delta":136692550},{"NoteNumber":80,"Velocity":72,"Duration":74445,"SoundDuration":74445,"Delta":136692550},{"NoteNumber":47,"Velocity":63,"Duration":131348,"SoundDuration":131348,"Delta":136990332},{"NoteNumber":40,"Velocity":52,"Duration":131348,"SoundDuration":131348,"Delta":136990332},{"NoteNumber":76,"Velocity":75,"Duration":131348,"SoundDuration":131348,"Delta":137253029},{"NoteNumber":75,"Velocity":75,"Duration":262697,"SoundDuration":262697,"Delta":137253029},{"NoteNumber":59,"Velocity":59,"Duration":521429,"SoundDuration":521429,"Delta":137253029},{"NoteNumber":52,"Velocity":50,"Duration":521429,"SoundDuration":521429,"Delta":137253029},{"NoteNumber":80,"Velocity":63,"Duration":131348,"SoundDuration":131348,"Delta":137384377},{"NoteNumber":75,"Velocity":74,"Duration":258732,"SoundDuration":258732,"Delta":137515726},{"NoteNumber":76,"Velocity":74,"Duration":129366,"SoundDuration":129366,"Delta":137515726},{"NoteNumber":80,"Velocity":63,"Duration":129366,"SoundDuration":129366,"Delta":137645092},{"NoteNumber":81,"Velocity":73,"Duration":126903,"SoundDuration":126903,"Delta":137774458},{"NoteNumber":47,"Velocity":65,"Duration":126903,"SoundDuration":126903,"Delta":137774458},{"NoteNumber":40,"Velocity":55,"Duration":126903,"SoundDuration":126903,"Delta":137774458},{"NoteNumber":78,"Velocity":63,"Duration":126903,"SoundDuration":126903,"Delta":137901361},{"NoteNumber":81,"Velocity":65,"Duration":130724,"SoundDuration":130724,"Delta":138028265},{"NoteNumber":69,"Velocity":62,"Duration":261448,"SoundDuration":261448,"Delta":138028265},{"NoteNumber":59,"Velocity":57,"Duration":535547,"SoundDuration":535547,"Delta":138028265},{"NoteNumber":52,"Velocity":49,"Duration":535547,"SoundDuration":535547,"Delta":138028265},{"NoteNumber":78,"Velocity":58,"Duration":130724,"SoundDuration":130724,"Delta":138158989},{"NoteNumber":69,"Velocity":65,"Duration":68524,"SoundDuration":68524,"Delta":138289714},{"NoteNumber":73,"Velocity":65,"Duration":68524,"SoundDuration":68524,"Delta":138289714},{"NoteNumber":47,"Velocity":63,"Duration":131348,"SoundDuration":131348,"Delta":138563812},{"NoteNumber":40,"Velocity":52,"Duration":131348,"SoundDuration":131348,"Delta":138563812},{"NoteNumber":66,"Velocity":53,"Duration":262697,"SoundDuration":262697,"Delta":138826509},{"NoteNumber":71,"Velocity":63,"Duration":131348,"SoundDuration":131348,"Delta":138826509},{"NoteNumber":59,"Velocity":59,"Duration":521429,"SoundDuration":521429,"Delta":138826509},{"NoteNumber":52,"Velocity":50,"Duration":521429,"SoundDuration":521429,"Delta":138826509},{"NoteNumber":75,"Velocity":53,"Duration":131348,"SoundDuration":131348,"Delta":138957857},{"NoteNumber":71,"Velocity":63,"Duration":129366,"SoundDuration":129366,"Delta":139089206},{"NoteNumber":66,"Velocity":52,"Duration":258732,"SoundDuration":258732,"Delta":139089206},{"NoteNumber":75,"Velocity":53,"Duration":129366,"SoundDuration":129366,"Delta":139218572},{"NoteNumber":76,"Velocity":65,"Duration":892141,"SoundDuration":892141,"Delta":139347938},{"NoteNumber":47,"Velocity":65,"Duration":139541,"SoundDuration":139541,"Delta":139347938},{"NoteNumber":40,"Velocity":55,"Duration":139541,"SoundDuration":139541,"Delta":139347938},{"NoteNumber":71,"Velocity":47,"Duration":76534,"SoundDuration":76534,"Delta":139627021},{"NoteNumber":68,"Velocity":47,"Duration":76534,"SoundDuration":76534,"Delta":139627021},{"NoteNumber":59,"Velocity":51,"Duration":613058,"SoundDuration":613058,"Delta":139627021},{"NoteNumber":52,"Velocity":44,"Duration":613058,"SoundDuration":613058,"Delta":139627021},{"NoteNumber":68,"Velocity":45,"Duration":76730,"SoundDuration":76730,"Delta":139933159},{"NoteNumber":71,"Velocity":45,"Duration":76730,"SoundDuration":76730,"Delta":139933159},{"NoteNumber":35,"Velocity":21,"Duration":784126,"SoundDuration":784126,"Delta":140240080},{"NoteNumber":63,"Velocity":39,"Duration":131348,"SoundDuration":131348,"Delta":140502777},{"NoteNumber":59,"Velocity":30,"Duration":262697,"SoundDuration":262697,"Delta":140502777},{"NoteNumber":42,"Velocity":21,"Duration":262697,"SoundDuration":262697,"Delta":140502777},{"NoteNumber":66,"Velocity":32,"Duration":131348,"SoundDuration":131348,"Delta":140634125},{"NoteNumber":59,"Velocity":29,"Duration":258732,"SoundDuration":258732,"Delta":140765474},{"NoteNumber":63,"Velocity":37,"Duration":129366,"SoundDuration":129366,"Delta":140765474},{"NoteNumber":42,"Velocity":21,"Duration":258732,"SoundDuration":258732,"Delta":140765474},{"NoteNumber":66,"Velocity":28,"Duration":129366,"SoundDuration":129366,"Delta":140894840},{"NoteNumber":68,"Velocity":49,"Duration":126903,"SoundDuration":126903,"Delta":141024206},{"NoteNumber":35,"Velocity":21,"Duration":781711,"SoundDuration":781711,"Delta":141024206},{"NoteNumber":64,"Velocity":28,"Duration":126903,"SoundDuration":126903,"Delta":141151109},{"NoteNumber":56,"Velocity":32,"Duration":253806,"SoundDuration":253806,"Delta":141278013},{"NoteNumber":68,"Velocity":41,"Duration":126903,"SoundDuration":126903,"Delta":141278013},{"NoteNumber":42,"Velocity":21,"Duration":253806,"SoundDuration":253806,"Delta":141278013},{"NoteNumber":64,"Velocity":28,"Duration":126903,"SoundDuration":126903,"Delta":141404916},{"NoteNumber":56,"Velocity":32,"Duration":68524,"SoundDuration":68524,"Delta":141531820},{"NoteNumber":61,"Velocity":41,"Duration":68524,"SoundDuration":68524,"Delta":141531820},{"NoteNumber":42,"Velocity":21,"Duration":68524,"SoundDuration":68524,"Delta":141531820},{"NoteNumber":35,"Velocity":21,"Duration":792223,"SoundDuration":792223,"Delta":141805918},{"NoteNumber":61,"Velocity":39,"Duration":131061,"SoundDuration":131061,"Delta":142068041},{"NoteNumber":56,"Velocity":30,"Duration":262123,"SoundDuration":262123,"Delta":142068041},{"NoteNumber":42,"Velocity":21,"Duration":262123,"SoundDuration":262123,"Delta":142068041},{"NoteNumber":64,"Velocity":32,"Duration":131061,"SoundDuration":131061,"Delta":142199102},{"NoteNumber":56,"Velocity":29,"Duration":267977,"SoundDuration":267977,"Delta":142330164},{"NoteNumber":61,"Velocity":37,"Duration":133988,"SoundDuration":133988,"Delta":142330164},{"NoteNumber":42,"Velocity":21,"Duration":267977,"SoundDuration":267977,"Delta":142330164},{"NoteNumber":64,"Velocity":28,"Duration":133988,"SoundDuration":133988,"Delta":142464152},{"NoteNumber":66,"Velocity":48,"Duration":872185,"SoundDuration":872185,"Delta":142598141},{"NoteNumber":35,"Velocity":21,"Duration":872185,"SoundDuration":872185,"Delta":142598141},{"NoteNumber":58,"Velocity":30,"Duration":73206,"SoundDuration":73206,"Delta":142884674},{"NoteNumber":63,"Velocity":30,"Duration":73206,"SoundDuration":73206,"Delta":142884674},{"NoteNumber":42,"Velocity":21,"Duration":73206,"SoundDuration":73206,"Delta":142884674},{"NoteNumber":58,"Velocity":30,"Duration":73206,"SoundDuration":73206,"Delta":143177500},{"NoteNumber":63,"Velocity":30,"Duration":73206,"SoundDuration":73206,"Delta":143177500},{"NoteNumber":42,"Velocity":21,"Duration":73206,"SoundDuration":73206,"Delta":143177500},{"NoteNumber":35,"Velocity":21,"Duration":784126,"SoundDuration":784126,"Delta":143470326},{"NoteNumber":59,"Velocity":39,"Duration":131348,"SoundDuration":131348,"Delta":143733023},{"NoteNumber":58,"Velocity":30,"Duration":262697,"SoundDuration":262697,"Delta":143733023},{"NoteNumber":42,"Velocity":21,"Duration":262697,"SoundDuration":262697,"Delta":143733023},{"NoteNumber":63,"Velocity":32,"Duration":131348,"SoundDuration":131348,"Delta":143864371},{"NoteNumber":58,"Velocity":29,"Duration":258732,"SoundDuration":258732,"Delta":143995720},{"NoteNumber":59,"Velocity":37,"Duration":129366,"SoundDuration":129366,"Delta":143995720},{"NoteNumber":42,"Velocity":21,"Duration":258732,"SoundDuration":258732,"Delta":143995720},{"NoteNumber":63,"Velocity":28,"Duration":129366,"SoundDuration":129366,"Delta":144125086},{"NoteNumber":64,"Velocity":49,"Duration":126903,"SoundDuration":126903,"Delta":144254452},{"NoteNumber":35,"Velocity":21,"Duration":790765,"SoundDuration":790765,"Delta":144254452},{"NoteNumber":61,"Velocity":28,"Duration":126903,"SoundDuration":126903,"Delta":144381355},{"NoteNumber":52,"Velocity":32,"Duration":253806,"SoundDuration":253806,"Delta":144508259},{"NoteNumber":64,"Velocity":41,"Duration":126903,"SoundDuration":126903,"Delta":144508259},{"NoteNumber":42,"Velocity":21,"Duration":253806,"SoundDuration":253806,"Delta":144508259},{"NoteNumber":61,"Velocity":28,"Duration":126903,"SoundDuration":126903,"Delta":144635162},{"NoteNumber":52,"Velocity":32,"Duration":70787,"SoundDuration":70787,"Delta":144762066},{"NoteNumber":56,"Velocity":41,"Duration":70787,"SoundDuration":70787,"Delta":144762066},{"NoteNumber":42,"Velocity":21,"Duration":70787,"SoundDuration":70787,"Delta":144762066},{"NoteNumber":35,"Velocity":21,"Duration":792223,"SoundDuration":792223,"Delta":145045218},{"NoteNumber":54,"Velocity":39,"Duration":131061,"SoundDuration":131061,"Delta":145307341},{"NoteNumber":49,"Velocity":30,"Duration":262123,"SoundDuration":262123,"Delta":145307341},{"NoteNumber":42,"Velocity":21,"Duration":262123,"SoundDuration":262123,"Delta":145307341},{"NoteNumber":58,"Velocity":32,"Duration":131061,"SoundDuration":131061,"Delta":145438402},{"NoteNumber":49,"Velocity":29,"Duration":267977,"SoundDuration":267977,"Delta":145569464},{"NoteNumber":54,"Velocity":37,"Duration":133988,"SoundDuration":133988,"Delta":145569464},{"NoteNumber":42,"Velocity":21,"Duration":267977,"SoundDuration":267977,"Delta":145569464},{"NoteNumber":58,"Velocity":28,"Duration":133988,"SoundDuration":133988,"Delta":145703452},{"NoteNumber":59,"Velocity":48,"Duration":894836,"SoundDuration":894836,"Delta":145837441},{"NoteNumber":35,"Velocity":21,"Duration":894836,"SoundDuration":894836,"Delta":145837441},{"NoteNumber":51,"Velocity":30,"Duration":75414,"SoundDuration":75414,"Delta":146127436},{"NoteNumber":54,"Velocity":30,"Duration":75414,"SoundDuration":75414,"Delta":146127436},{"NoteNumber":42,"Velocity":21,"Duration":75414,"SoundDuration":75414,"Delta":146127436},{"NoteNumber":51,"Velocity":30,"Duration":75795,"SoundDuration":75795,"Delta":146429095},{"NoteNumber":54,"Velocity":30,"Duration":75795,"SoundDuration":75795,"Delta":146429095},{"NoteNumber":42,"Velocity":21,"Duration":75795,"SoundDuration":75795,"Delta":146429095},{"NoteNumber":70,"Velocity":21,"Duration":784126,"SoundDuration":784126,"Delta":146732278},{"NoteNumber":63,"Velocity":21,"Duration":784126,"SoundDuration":784126,"Delta":146732278},{"NoteNumber":78,"Velocity":30,"Duration":131348,"SoundDuration":131348,"Delta":146994975},{"NoteNumber":75,"Velocity":30,"Duration":262697,"SoundDuration":262697,"Delta":146994975},{"NoteNumber":82,"Velocity":25,"Duration":131348,"SoundDuration":131348,"Delta":147126323},{"NoteNumber":75,"Velocity":29,"Duration":258732,"SoundDuration":258732,"Delta":147257672},{"NoteNumber":78,"Velocity":29,"Duration":129366,"SoundDuration":129366,"Delta":147257672},{"NoteNumber":82,"Velocity":22,"Duration":129366,"SoundDuration":129366,"Delta":147387038},{"NoteNumber":84,"Velocity":38,"Duration":126903,"SoundDuration":126903,"Delta":147516404},{"NoteNumber":56,"Velocity":21,"Duration":781711,"SoundDuration":781711,"Delta":147516404},{"NoteNumber":63,"Velocity":21,"Duration":781711,"SoundDuration":781711,"Delta":147516404},{"NoteNumber":80,"Velocity":22,"Duration":126903,"SoundDuration":126903,"Delta":147643307},{"NoteNumber":72,"Velocity":32,"Duration":253806,"SoundDuration":253806,"Delta":147770211},{"NoteNumber":84,"Velocity":32,"Duration":126903,"SoundDuration":126903,"Delta":147770211},{"NoteNumber":80,"Velocity":22,"Duration":126903,"SoundDuration":126903,"Delta":147897114},{"NoteNumber":72,"Velocity":32,"Duration":68524,"SoundDuration":68524,"Delta":148024018},{"NoteNumber":75,"Velocity":32,"Duration":68524,"SoundDuration":68524,"Delta":148024018},{"NoteNumber":63,"Velocity":21,"Duration":792223,"SoundDuration":792223,"Delta":148298116},{"NoteNumber":70,"Velocity":21,"Duration":792223,"SoundDuration":792223,"Delta":148298116},{"NoteNumber":78,"Velocity":30,"Duration":131061,"SoundDuration":131061,"Delta":148560239},{"NoteNumber":75,"Velocity":30,"Duration":262123,"SoundDuration":262123,"Delta":148560239},{"NoteNumber":82,"Velocity":25,"Duration":131061,"SoundDuration":131061,"Delta":148691300},{"NoteNumber":75,"Velocity":29,"Duration":267977,"SoundDuration":267977,"Delta":148822362},{"NoteNumber":78,"Velocity":29,"Duration":133988,"SoundDuration":133988,"Delta":148822362},{"NoteNumber":82,"Velocity":22,"Duration":133988,"SoundDuration":133988,"Delta":148956350},{"NoteNumber":77,"Velocity":37,"Duration":883048,"SoundDuration":883048,"Delta":149090339},{"NoteNumber":58,"Velocity":21,"Duration":883048,"SoundDuration":883048,"Delta":149090339},{"NoteNumber":65,"Velocity":21,"Duration":883048,"SoundDuration":883048,"Delta":149090339},{"NoteNumber":70,"Velocity":30,"Duration":74478,"SoundDuration":74478,"Delta":149377558},{"NoteNumber":74,"Velocity":30,"Duration":74478,"SoundDuration":74478,"Delta":149377558},{"NoteNumber":70,"Velocity":30,"Duration":74478,"SoundDuration":74478,"Delta":149675473},{"NoteNumber":74,"Velocity":30,"Duration":74478,"SoundDuration":74478,"Delta":149675473},{"NoteNumber":77,"Velocity":21,"Duration":783569,"SoundDuration":783569,"Delta":149973388},{"NoteNumber":70,"Velocity":21,"Duration":783569,"SoundDuration":783569,"Delta":149973388},{"NoteNumber":85,"Velocity":33,"Duration":131348,"SoundDuration":131348,"Delta":150236085},{"NoteNumber":82,"Velocity":33,"Duration":262697,"SoundDuration":262697,"Delta":150236085},{"NoteNumber":89,"Velocity":27,"Duration":131348,"SoundDuration":131348,"Delta":150367433},{"NoteNumber":82,"Velocity":31,"Duration":258175,"SoundDuration":258175,"Delta":150498782},{"NoteNumber":85,"Velocity":31,"Duration":129087,"SoundDuration":129087,"Delta":150498782},{"NoteNumber":89,"Velocity":24,"Duration":129087,"SoundDuration":129087,"Delta":150627870},{"NoteNumber":91,"Velocity":44,"Duration":126903,"SoundDuration":126903,"Delta":150756958},{"NoteNumber":63,"Velocity":21,"Duration":792784,"SoundDuration":792784,"Delta":150756958},{"NoteNumber":70,"Velocity":21,"Duration":792784,"SoundDuration":792784,"Delta":150756958},{"NoteNumber":87,"Velocity":24,"Duration":126903,"SoundDuration":126903,"Delta":150883861},{"NoteNumber":79,"Velocity":35,"Duration":253806,"SoundDuration":253806,"Delta":151010765},{"NoteNumber":91,"Velocity":35,"Duration":126903,"SoundDuration":126903,"Delta":151010765},{"NoteNumber":87,"Velocity":24,"Duration":126903,"SoundDuration":126903,"Delta":151137668},{"NoteNumber":79,"Velocity":35,"Duration":71292,"SoundDuration":71292,"Delta":151264572},{"NoteNumber":82,"Velocity":35,"Duration":71292,"SoundDuration":71292,"Delta":151264572},{"NoteNumber":70,"Velocity":21,"Duration":792223,"SoundDuration":792223,"Delta":151549743},{"NoteNumber":77,"Velocity":21,"Duration":792223,"SoundDuration":792223,"Delta":151549743},{"NoteNumber":85,"Velocity":33,"Duration":131061,"SoundDuration":131061,"Delta":151811866},{"NoteNumber":82,"Velocity":33,"Duration":262123,"SoundDuration":262123,"Delta":151811866},{"NoteNumber":89,"Velocity":27,"Duration":131061,"SoundDuration":131061,"Delta":151942927},{"NoteNumber":82,"Velocity":31,"Duration":267977,"SoundDuration":267977,"Delta":152073989},{"NoteNumber":85,"Velocity":31,"Duration":133988,"SoundDuration":133988,"Delta":152073989},{"NoteNumber":89,"Velocity":24,"Duration":133988,"SoundDuration":133988,"Delta":152207977},{"NoteNumber":84,"Velocity":40,"Duration":887401,"SoundDuration":887401,"Delta":152341966},{"NoteNumber":65,"Velocity":21,"Duration":887401,"SoundDuration":887401,"Delta":152341966},{"NoteNumber":72,"Velocity":21,"Duration":887401,"SoundDuration":887401,"Delta":152341966},{"NoteNumber":77,"Velocity":33,"Duration":74850,"SoundDuration":74850,"Delta":152630566},{"NoteNumber":81,"Velocity":33,"Duration":74850,"SoundDuration":74850,"Delta":152630566},{"NoteNumber":77,"Velocity":33,"Duration":74850,"SoundDuration":74850,"Delta":152929967},{"NoteNumber":81,"Velocity":33,"Duration":74850,"SoundDuration":74850,"Delta":152929967},{"NoteNumber":60,"Velocity":21,"Duration":784126,"SoundDuration":784126,"Delta":153229368},{"NoteNumber":53,"Velocity":21,"Duration":784126,"SoundDuration":784126,"Delta":153229368},{"NoteNumber":68,"Velocity":30,"Duration":131348,"SoundDuration":131348,"Delta":153492065},{"NoteNumber":65,"Velocity":30,"Duration":262697,"SoundDuration":262697,"Delta":153492065},{"NoteNumber":72,"Velocity":25,"Duration":131348,"SoundDuration":131348,"Delta":153623413},{"NoteNumber":65,"Velocity":29,"Duration":258732,"SoundDuration":258732,"Delta":153754762},{"NoteNumber":68,"Velocity":29,"Duration":129366,"SoundDuration":129366,"Delta":153754762},{"NoteNumber":72,"Velocity":22,"Duration":129366,"SoundDuration":129366,"Delta":153884128},{"NoteNumber":74,"Velocity":38,"Duration":126903,"SoundDuration":126903,"Delta":154013494},{"NoteNumber":46,"Velocity":21,"Duration":781711,"SoundDuration":781711,"Delta":154013494},{"NoteNumber":53,"Velocity":21,"Duration":781711,"SoundDuration":781711,"Delta":154013494},{"NoteNumber":70,"Velocity":22,"Duration":126903,"SoundDuration":126903,"Delta":154140397},{"NoteNumber":62,"Velocity":32,"Duration":253806,"SoundDuration":253806,"Delta":154267301},{"NoteNumber":74,"Velocity":32,"Duration":126903,"SoundDuration":126903,"Delta":154267301},{"NoteNumber":70,"Velocity":22,"Duration":126903,"SoundDuration":126903,"Delta":154394204},{"NoteNumber":62,"Velocity":32,"Duration":68524,"SoundDuration":68524,"Delta":154521108},{"NoteNumber":65,"Velocity":32,"Duration":68524,"SoundDuration":68524,"Delta":154521108},{"NoteNumber":53,"Velocity":21,"Duration":792223,"SoundDuration":792223,"Delta":154795206},{"NoteNumber":60,"Velocity":21,"Duration":792223,"SoundDuration":792223,"Delta":154795206},{"NoteNumber":68,"Velocity":30,"Duration":131061,"SoundDuration":131061,"Delta":155057329},{"NoteNumber":65,"Velocity":30,"Duration":262123,"SoundDuration":262123,"Delta":155057329},{"NoteNumber":72,"Velocity":25,"Duration":131061,"SoundDuration":131061,"Delta":155188390},{"NoteNumber":65,"Velocity":29,"Duration":267977,"SoundDuration":267977,"Delta":155319452},{"NoteNumber":68,"Velocity":29,"Duration":133988,"SoundDuration":133988,"Delta":155319452},{"NoteNumber":72,"Velocity":22,"Duration":133988,"SoundDuration":133988,"Delta":155453440},{"NoteNumber":67,"Velocity":37,"Duration":883048,"SoundDuration":883048,"Delta":155587429},{"NoteNumber":48,"Velocity":21,"Duration":883048,"SoundDuration":883048,"Delta":155587429},{"NoteNumber":55,"Velocity":21,"Duration":883048,"SoundDuration":883048,"Delta":155587429},{"NoteNumber":60,"Velocity":30,"Duration":74478,"SoundDuration":74478,"Delta":155874648},{"NoteNumber":64,"Velocity":30,"Duration":74478,"SoundDuration":74478,"Delta":155874648},{"NoteNumber":60,"Velocity":30,"Duration":74478,"SoundDuration":74478,"Delta":156172563},{"NoteNumber":64,"Velocity":30,"Duration":74478,"SoundDuration":74478,"Delta":156172563},{"NoteNumber":67,"Velocity":28,"Duration":783569,"SoundDuration":783569,"Delta":156470478},{"NoteNumber":60,"Velocity":28,"Duration":783569,"SoundDuration":783569,"Delta":156470478},{"NoteNumber":75,"Velocity":41,"Duration":131348,"SoundDuration":131348,"Delta":156733175},{"NoteNumber":72,"Velocity":41,"Duration":262697,"SoundDuration":262697,"Delta":156733175},{"NoteNumber":79,"Velocity":35,"Duration":131348,"SoundDuration":131348,"Delta":156864523},{"NoteNumber":72,"Velocity":40,"Duration":258175,"SoundDuration":258175,"Delta":156995872},{"NoteNumber":75,"Velocity":40,"Duration":129087,"SoundDuration":129087,"Delta":156995872},{"NoteNumber":79,"Velocity":31,"Duration":129087,"SoundDuration":129087,"Delta":157124960},{"NoteNumber":81,"Velocity":59,"Duration":126903,"SoundDuration":126903,"Delta":157254048},{"NoteNumber":53,"Velocity":30,"Duration":792784,"SoundDuration":792784,"Delta":157254048},{"NoteNumber":60,"Velocity":30,"Duration":792784,"SoundDuration":792784,"Delta":157254048},{"NoteNumber":77,"Velocity":32,"Duration":126903,"SoundDuration":126903,"Delta":157380951},{"NoteNumber":69,"Velocity":48,"Duration":253806,"SoundDuration":253806,"Delta":157507855},{"NoteNumber":81,"Velocity":48,"Duration":126903,"SoundDuration":126903,"Delta":157507855},{"NoteNumber":77,"Velocity":33,"Duration":126903,"SoundDuration":126903,"Delta":157634758},{"NoteNumber":69,"Velocity":49,"Duration":71292,"SoundDuration":71292,"Delta":157761662},{"NoteNumber":72,"Velocity":49,"Duration":71292,"SoundDuration":71292,"Delta":157761662},{"NoteNumber":79,"Velocity":35,"Duration":783569,"SoundDuration":783569,"Delta":158046833},{"NoteNumber":72,"Velocity":35,"Duration":783569,"SoundDuration":783569,"Delta":158046833},{"NoteNumber":87,"Velocity":53,"Duration":131348,"SoundDuration":131348,"Delta":158309530},{"NoteNumber":84,"Velocity":53,"Duration":262697,"SoundDuration":262697,"Delta":158309530},{"NoteNumber":91,"Velocity":43,"Duration":131348,"SoundDuration":131348,"Delta":158440878},{"NoteNumber":84,"Velocity":51,"Duration":258175,"SoundDuration":258175,"Delta":158572227},{"NoteNumber":87,"Velocity":51,"Duration":129087,"SoundDuration":129087,"Delta":158572227},{"NoteNumber":91,"Velocity":38,"Duration":129087,"SoundDuration":129087,"Delta":158701315},{"NoteNumber":93,"Velocity":74,"Duration":126903,"SoundDuration":126903,"Delta":158830403},{"NoteNumber":65,"Velocity":38,"Duration":792784,"SoundDuration":792784,"Delta":158830403},{"NoteNumber":72,"Velocity":38,"Duration":792784,"SoundDuration":792784,"Delta":158830403},{"NoteNumber":89,"Velocity":39,"Duration":126903,"SoundDuration":126903,"Delta":158957306},{"NoteNumber":81,"Velocity":59,"Duration":253806,"SoundDuration":253806,"Delta":159084210},{"NoteNumber":93,"Velocity":59,"Duration":126903,"SoundDuration":126903,"Delta":159084210},{"NoteNumber":89,"Velocity":40,"Duration":126903,"SoundDuration":126903,"Delta":159211113},{"NoteNumber":81,"Velocity":61,"Duration":71292,"SoundDuration":71292,"Delta":159338017},{"NoteNumber":84,"Velocity":61,"Duration":71292,"SoundDuration":71292,"Delta":159338017},{"NoteNumber":75,"Velocity":63,"Duration":127124,"SoundDuration":127124,"Delta":159623188},{"NoteNumber":72,"Velocity":53,"Duration":254247,"SoundDuration":254247,"Delta":159623188},{"NoteNumber":67,"Velocity":53,"Duration":254247,"SoundDuration":254247,"Delta":159623188},{"NoteNumber":60,"Velocity":45,"Duration":254247,"SoundDuration":254247,"Delta":159623188},{"NoteNumber":79,"Velocity":70,"Duration":127123,"SoundDuration":127123,"Delta":159750312},{"NoteNumber":72,"Velocity":60,"Duration":568747,"SoundDuration":568747,"Delta":159877436},{"NoteNumber":77,"Velocity":71,"Duration":568747,"SoundDuration":568747,"Delta":159877436},{"NoteNumber":81,"Velocity":71,"Duration":568747,"SoundDuration":568747,"Delta":159877436},{"NoteNumber":69,"Velocity":50,"Duration":568747,"SoundDuration":568747,"Delta":159877436},{"NoteNumber":65,"Velocity":41,"Duration":568747,"SoundDuration":568747,"Delta":159877436},{"NoteNumber":87,"Velocity":72,"Duration":127124,"SoundDuration":127124,"Delta":160446184},{"NoteNumber":84,"Velocity":61,"Duration":254247,"SoundDuration":254247,"Delta":160446184},{"NoteNumber":79,"Velocity":62,"Duration":254247,"SoundDuration":254247,"Delta":160446184},{"NoteNumber":72,"Velocity":51,"Duration":254247,"SoundDuration":254247,"Delta":160446184},{"NoteNumber":91,"Velocity":80,"Duration":127123,"SoundDuration":127123,"Delta":160573308},{"NoteNumber":84,"Velocity":68,"Duration":568747,"SoundDuration":568747,"Delta":160700432},{"NoteNumber":89,"Velocity":81,"Duration":568747,"SoundDuration":568747,"Delta":160700432},{"NoteNumber":93,"Velocity":81,"Duration":568747,"SoundDuration":568747,"Delta":160700432},{"NoteNumber":81,"Velocity":56,"Duration":568747,"SoundDuration":568747,"Delta":160700432},{"NoteNumber":77,"Velocity":47,"Duration":568747,"SoundDuration":568747,"Delta":160700432},{"NoteNumber":75,"Velocity":70,"Duration":127124,"SoundDuration":127124,"Delta":161269180},{"NoteNumber":72,"Velocity":58,"Duration":254247,"SoundDuration":254247,"Delta":161269180},{"NoteNumber":67,"Velocity":58,"Duration":254247,"SoundDuration":254247,"Delta":161269180},{"NoteNumber":60,"Velocity":47,"Duration":254247,"SoundDuration":254247,"Delta":161269180},{"NoteNumber":79,"Velocity":76,"Duration":127123,"SoundDuration":127123,"Delta":161396304},{"NoteNumber":72,"Velocity":65,"Duration":568747,"SoundDuration":568747,"Delta":161523428},{"NoteNumber":77,"Velocity":77,"Duration":568747,"SoundDuration":568747,"Delta":161523428},{"NoteNumber":81,"Velocity":77,"Duration":568747,"SoundDuration":568747,"Delta":161523428},{"NoteNumber":69,"Velocity":53,"Duration":568747,"SoundDuration":568747,"Delta":161523428},{"NoteNumber":65,"Velocity":45,"Duration":568747,"SoundDuration":568747,"Delta":161523428},{"NoteNumber":87,"Velocity":78,"Duration":127124,"SoundDuration":127124,"Delta":162092176},{"NoteNumber":84,"Velocity":66,"Duration":254247,"SoundDuration":254247,"Delta":162092176},{"NoteNumber":79,"Velocity":68,"Duration":254247,"SoundDuration":254247,"Delta":162092176},{"NoteNumber":72,"Velocity":56,"Duration":254247,"SoundDuration":254247,"Delta":162092176},{"NoteNumber":91,"Velocity":87,"Duration":127123,"SoundDuration":127123,"Delta":162219300},{"NoteNumber":84,"Velocity":75,"Duration":563415,"SoundDuration":563415,"Delta":162346424},{"NoteNumber":89,"Velocity":88,"Duration":563415,"SoundDuration":563415,"Delta":162346424},{"NoteNumber":93,"Velocity":88,"Duration":563415,"SoundDuration":563415,"Delta":162346424},{"NoteNumber":81,"Velocity":60,"Duration":563415,"SoundDuration":563415,"Delta":162346424},{"NoteNumber":77,"Velocity":52,"Duration":563415,"SoundDuration":563415,"Delta":162346424},{"NoteNumber":72,"Velocity":85,"Duration":539139,"SoundDuration":539139,"Delta":162915172},{"NoteNumber":77,"Velocity":85,"Duration":539139,"SoundDuration":539139,"Delta":162915172},{"NoteNumber":81,"Velocity":85,"Duration":539139,"SoundDuration":539139,"Delta":162915172},{"NoteNumber":65,"Velocity":47,"Duration":539139,"SoundDuration":539139,"Delta":162915172},{"NoteNumber":69,"Velocity":58,"Duration":539139,"SoundDuration":539139,"Delta":162915172},{"NoteNumber":84,"Velocity":88,"Duration":559437,"SoundDuration":559437,"Delta":163459414},{"NoteNumber":89,"Velocity":88,"Duration":559437,"SoundDuration":559437,"Delta":163459414},{"NoteNumber":93,"Velocity":88,"Duration":559437,"SoundDuration":559437,"Delta":163459414},{"NoteNumber":77,"Velocity":52,"Duration":559437,"SoundDuration":559437,"Delta":163459414},{"NoteNumber":81,"Velocity":60,"Duration":559437,"SoundDuration":559437,"Delta":163459414},{"NoteNumber":72,"Velocity":85,"Duration":537919,"SoundDuration":537919,"Delta":164024146},{"NoteNumber":77,"Velocity":85,"Duration":537919,"SoundDuration":537919,"Delta":164024146},{"NoteNumber":81,"Velocity":85,"Duration":537919,"SoundDuration":537919,"Delta":164024146},{"NoteNumber":65,"Velocity":47,"Duration":537919,"SoundDuration":537919,"Delta":164024146},{"NoteNumber":69,"Velocity":58,"Duration":537919,"SoundDuration":537919,"Delta":164024146},{"NoteNumber":84,"Velocity":88,"Duration":558124,"SoundDuration":558124,"Delta":164567156},{"NoteNumber":89,"Velocity":88,"Duration":558124,"SoundDuration":558124,"Delta":164567156},{"NoteNumber":93,"Velocity":88,"Duration":558124,"SoundDuration":558124,"Delta":164567156},{"NoteNumber":77,"Velocity":52,"Duration":558124,"SoundDuration":558124,"Delta":164567156},{"NoteNumber":81,"Velocity":60,"Duration":558124,"SoundDuration":558124,"Delta":164567156},{"NoteNumber":72,"Velocity":85,"Duration":540366,"SoundDuration":540366,"Delta":165130562},{"NoteNumber":77,"Velocity":85,"Duration":540366,"SoundDuration":540366,"Delta":165130562},{"NoteNumber":81,"Velocity":85,"Duration":540366,"SoundDuration":540366,"Delta":165130562},{"NoteNumber":65,"Velocity":47,"Duration":540366,"SoundDuration":540366,"Delta":165130562},{"NoteNumber":69,"Velocity":58,"Duration":540366,"SoundDuration":540366,"Delta":165130562},{"NoteNumber":84,"Velocity":88,"Duration":601929,"SoundDuration":601929,"Delta":165676042},{"NoteNumber":89,"Velocity":88,"Duration":601929,"SoundDuration":601929,"Delta":165676042},{"NoteNumber":93,"Velocity":88,"Duration":601929,"SoundDuration":601929,"Delta":165676042},{"NoteNumber":77,"Velocity":52,"Duration":601929,"SoundDuration":601929,"Delta":165676042},{"NoteNumber":81,"Velocity":60,"Duration":601929,"SoundDuration":601929,"Delta":165676042},{"NoteNumber":71,"Velocity":92,"Duration":558124,"SoundDuration":558124,"Delta":166283668},{"NoteNumber":78,"Velocity":92,"Duration":558124,"SoundDuration":558124,"Delta":166283668},{"NoteNumber":83,"Velocity":92,"Duration":558124,"SoundDuration":558124,"Delta":166283668},{"NoteNumber":59,"Velocity":42,"Duration":558124,"SoundDuration":558124,"Delta":166283668},{"NoteNumber":66,"Velocity":51,"Duration":558124,"SoundDuration":558124,"Delta":166283668},{"NoteNumber":83,"Velocity":97,"Duration":574302,"SoundDuration":574302,"Delta":166847074},{"NoteNumber":90,"Velocity":97,"Duration":574302,"SoundDuration":574302,"Delta":166847074},{"NoteNumber":95,"Velocity":97,"Duration":574302,"SoundDuration":574302,"Delta":166847074},{"NoteNumber":71,"Velocity":46,"Duration":574302,"SoundDuration":574302,"Delta":166847074},{"NoteNumber":78,"Velocity":52,"Duration":574302,"SoundDuration":574302,"Delta":166847074},{"NoteNumber":71,"Velocity":92,"Duration":564753,"SoundDuration":564753,"Delta":167426812},{"NoteNumber":78,"Velocity":92,"Duration":564753,"SoundDuration":564753,"Delta":167426812},{"NoteNumber":83,"Velocity":92,"Duration":564753,"SoundDuration":564753,"Delta":167426812},{"NoteNumber":59,"Velocity":42,"Duration":564753,"SoundDuration":564753,"Delta":167426812},{"NoteNumber":66,"Velocity":51,"Duration":564753,"SoundDuration":564753,"Delta":167426812},{"NoteNumber":83,"Velocity":97,"Duration":579905,"SoundDuration":579905,"Delta":167996910},{"NoteNumber":90,"Velocity":97,"Duration":579905,"SoundDuration":579905,"Delta":167996910},{"NoteNumber":95,"Velocity":97,"Duration":579905,"SoundDuration":579905,"Delta":167996910},{"NoteNumber":71,"Velocity":46,"Duration":579905,"SoundDuration":579905,"Delta":167996910},{"NoteNumber":78,"Velocity":52,"Duration":579905,"SoundDuration":579905,"Delta":167996910},{"NoteNumber":71,"Velocity":92,"Duration":634866,"SoundDuration":634866,"Delta":168582304},{"NoteNumber":78,"Velocity":92,"Duration":634866,"SoundDuration":634866,"Delta":168582304},{"NoteNumber":83,"Velocity":92,"Duration":634866,"SoundDuration":634866,"Delta":168582304},{"NoteNumber":59,"Velocity":42,"Duration":634866,"SoundDuration":634866,"Delta":168582304},{"NoteNumber":66,"Velocity":51,"Duration":634866,"SoundDuration":634866,"Delta":168582304},{"NoteNumber":83,"Velocity":97,"Duration":559437,"SoundDuration":559437,"Delta":169223203},{"NoteNumber":90,"Velocity":97,"Duration":559437,"SoundDuration":559437,"Delta":169223203},{"NoteNumber":95,"Velocity":97,"Duration":559437,"SoundDuration":559437,"Delta":169223203},{"NoteNumber":71,"Velocity":46,"Duration":559437,"SoundDuration":559437,"Delta":169223203},{"NoteNumber":78,"Velocity":52,"Duration":559437,"SoundDuration":559437,"Delta":169223203},{"NoteNumber":47,"Velocity":94,"Duration":131348,"SoundDuration":131348,"Delta":169787935},{"NoteNumber":40,"Velocity":79,"Duration":131348,"SoundDuration":131348,"Delta":169787935},{"NoteNumber":76,"Velocity":76,"Duration":262697,"SoundDuration":262697,"Delta":170050632},{"NoteNumber":80,"Velocity":92,"Duration":131348,"SoundDuration":131348,"Delta":170050632},{"NoteNumber":59,"Velocity":71,"Duration":521429,"SoundDuration":521429,"Delta":170050632},{"NoteNumber":52,"Velocity":60,"Duration":521429,"SoundDuration":521429,"Delta":170050632},{"NoteNumber":83,"Velocity":76,"Duration":131348,"SoundDuration":131348,"Delta":170181980},{"NoteNumber":80,"Velocity":90,"Duration":129366,"SoundDuration":129366,"Delta":170313329},{"NoteNumber":76,"Velocity":75,"Duration":258732,"SoundDuration":258732,"Delta":170313329},{"NoteNumber":83,"Velocity":76,"Duration":129366,"SoundDuration":129366,"Delta":170442695},{"NoteNumber":85,"Velocity":92,"Duration":126903,"SoundDuration":126903,"Delta":170572061},{"NoteNumber":47,"Velocity":80,"Duration":126903,"SoundDuration":126903,"Delta":170572061},{"NoteNumber":40,"Velocity":68,"Duration":126903,"SoundDuration":126903,"Delta":170572061},{"NoteNumber":81,"Velocity":77,"Duration":126903,"SoundDuration":126903,"Delta":170698964},{"NoteNumber":73,"Velocity":55,"Duration":261448,"SoundDuration":261448,"Delta":170825868},{"NoteNumber":85,"Velocity":75,"Duration":130724,"SoundDuration":130724,"Delta":170825868},{"NoteNumber":59,"Velocity":70,"Duration":535547,"SoundDuration":535547,"Delta":170825868},{"NoteNumber":52,"Velocity":59,"Duration":535547,"SoundDuration":535547,"Delta":170825868},{"NoteNumber":81,"Velocity":72,"Duration":130724,"SoundDuration":130724,"Delta":170956592},{"NoteNumber":73,"Velocity":71,"Duration":68524,"SoundDuration":68524,"Delta":171087317},{"NoteNumber":78,"Velocity":80,"Duration":68524,"SoundDuration":68524,"Delta":171087317},{"NoteNumber":47,"Velocity":75,"Duration":131348,"SoundDuration":131348,"Delta":171361415},{"NoteNumber":40,"Velocity":63,"Duration":131348,"SoundDuration":131348,"Delta":171361415},{"NoteNumber":78,"Velocity":87,"Duration":131348,"SoundDuration":131348,"Delta":171624112},{"NoteNumber":73,"Velocity":87,"Duration":262697,"SoundDuration":262697,"Delta":171624112},{"NoteNumber":59,"Velocity":71,"Duration":521429,"SoundDuration":521429,"Delta":171624112},{"NoteNumber":52,"Velocity":60,"Duration":521429,"SoundDuration":521429,"Delta":171624112},{"NoteNumber":81,"Velocity":76,"Duration":131348,"SoundDuration":131348,"Delta":171755460},{"NoteNumber":73,"Velocity":86,"Duration":258732,"SoundDuration":258732,"Delta":171886809},{"NoteNumber":78,"Velocity":86,"Duration":129366,"SoundDuration":129366,"Delta":171886809},{"NoteNumber":81,"Velocity":75,"Duration":129366,"SoundDuration":129366,"Delta":172016175},{"NoteNumber":83,"Velocity":88,"Duration":862433,"SoundDuration":862433,"Delta":172145541},{"NoteNumber":47,"Velocity":80,"Duration":134534,"SoundDuration":134534,"Delta":172145541},{"NoteNumber":40,"Velocity":68,"Duration":134534,"SoundDuration":134534,"Delta":172145541},{"NoteNumber":80,"Velocity":72,"Duration":73895,"SoundDuration":73895,"Delta":172414611},{"NoteNumber":75,"Velocity":72,"Duration":73895,"SoundDuration":73895,"Delta":172414611},{"NoteNumber":59,"Velocity":70,"Duration":593363,"SoundDuration":593363,"Delta":172414611},{"NoteNumber":52,"Velocity":59,"Duration":593363,"SoundDuration":593363,"Delta":172414611},{"NoteNumber":75,"Velocity":72,"Duration":74445,"SoundDuration":74445,"Delta":172710192},{"NoteNumber":80,"Velocity":72,"Duration":74445,"SoundDuration":74445,"Delta":172710192},{"NoteNumber":47,"Velocity":63,"Duration":131348,"SoundDuration":131348,"Delta":173007974},{"NoteNumber":40,"Velocity":52,"Duration":131348,"SoundDuration":131348,"Delta":173007974},{"NoteNumber":76,"Velocity":75,"Duration":131348,"SoundDuration":131348,"Delta":173270671},{"NoteNumber":75,"Velocity":75,"Duration":262697,"SoundDuration":262697,"Delta":173270671},{"NoteNumber":59,"Velocity":59,"Duration":521429,"SoundDuration":521429,"Delta":173270671},{"NoteNumber":52,"Velocity":50,"Duration":521429,"SoundDuration":521429,"Delta":173270671},{"NoteNumber":80,"Velocity":63,"Duration":131348,"SoundDuration":131348,"Delta":173402019},{"NoteNumber":75,"Velocity":74,"Duration":258732,"SoundDuration":258732,"Delta":173533368},{"NoteNumber":76,"Velocity":74,"Duration":129366,"SoundDuration":129366,"Delta":173533368},{"NoteNumber":80,"Velocity":63,"Duration":129366,"SoundDuration":129366,"Delta":173662734},{"NoteNumber":81,"Velocity":73,"Duration":126903,"SoundDuration":126903,"Delta":173792100},{"NoteNumber":47,"Velocity":65,"Duration":126903,"SoundDuration":126903,"Delta":173792100},{"NoteNumber":40,"Velocity":55,"Duration":126903,"SoundDuration":126903,"Delta":173792100},{"NoteNumber":78,"Velocity":63,"Duration":126903,"SoundDuration":126903,"Delta":173919003},{"NoteNumber":81,"Velocity":64,"Duration":130724,"SoundDuration":130724,"Delta":174045907},{"NoteNumber":69,"Velocity":62,"Duration":261448,"SoundDuration":261448,"Delta":174045907},{"NoteNumber":59,"Velocity":57,"Duration":535547,"SoundDuration":535547,"Delta":174045907},{"NoteNumber":52,"Velocity":49,"Duration":535547,"SoundDuration":535547,"Delta":174045907},{"NoteNumber":78,"Velocity":58,"Duration":130724,"SoundDuration":130724,"Delta":174176631},{"NoteNumber":69,"Velocity":65,"Duration":68524,"SoundDuration":68524,"Delta":174307356},{"NoteNumber":73,"Velocity":65,"Duration":68524,"SoundDuration":68524,"Delta":174307356},{"NoteNumber":47,"Velocity":63,"Duration":131348,"SoundDuration":131348,"Delta":174581454},{"NoteNumber":40,"Velocity":52,"Duration":131348,"SoundDuration":131348,"Delta":174581454},{"NoteNumber":66,"Velocity":53,"Duration":262697,"SoundDuration":262697,"Delta":174844151},{"NoteNumber":71,"Velocity":63,"Duration":131348,"SoundDuration":131348,"Delta":174844151},{"NoteNumber":59,"Velocity":59,"Duration":521429,"SoundDuration":521429,"Delta":174844151},{"NoteNumber":52,"Velocity":50,"Duration":521429,"SoundDuration":521429,"Delta":174844151},{"NoteNumber":75,"Velocity":53,"Duration":131348,"SoundDuration":131348,"Delta":174975499},{"NoteNumber":71,"Velocity":63,"Duration":129366,"SoundDuration":129366,"Delta":175106848},{"NoteNumber":66,"Velocity":52,"Duration":258732,"SoundDuration":258732,"Delta":175106848},{"NoteNumber":75,"Velocity":53,"Duration":129366,"SoundDuration":129366,"Delta":175236214},{"NoteNumber":76,"Velocity":65,"Duration":892142,"SoundDuration":892142,"Delta":175365580},{"NoteNumber":47,"Velocity":65,"Duration":139541,"SoundDuration":139541,"Delta":175365580},{"NoteNumber":40,"Velocity":55,"Duration":139541,"SoundDuration":139541,"Delta":175365580},{"NoteNumber":71,"Velocity":47,"Duration":76534,"SoundDuration":76534,"Delta":175644663},{"NoteNumber":68,"Velocity":47,"Duration":76534,"SoundDuration":76534,"Delta":175644663},{"NoteNumber":59,"Velocity":51,"Duration":613058,"SoundDuration":613058,"Delta":175644663},{"NoteNumber":52,"Velocity":44,"Duration":613058,"SoundDuration":613058,"Delta":175644663},{"NoteNumber":68,"Velocity":45,"Duration":76730,"SoundDuration":76730,"Delta":175950801},{"NoteNumber":71,"Velocity":45,"Duration":76730,"SoundDuration":76730,"Delta":175950801},{"NoteNumber":40,"Velocity":30,"Duration":784126,"SoundDuration":784126,"Delta":177178485},{"NoteNumber":54,"Velocity":31,"Duration":262697,"SoundDuration":262697,"Delta":177441182},{"NoteNumber":59,"Velocity":37,"Duration":131348,"SoundDuration":131348,"Delta":177441182},{"NoteNumber":47,"Velocity":35,"Duration":521429,"SoundDuration":521429,"Delta":177441182},{"NoteNumber":63,"Velocity":31,"Duration":131348,"SoundDuration":131348,"Delta":177572530},{"NoteNumber":59,"Velocity":37,"Duration":129366,"SoundDuration":129366,"Delta":177703879},{"NoteNumber":54,"Velocity":30,"Duration":258732,"SoundDuration":258732,"Delta":177703879},{"NoteNumber":63,"Velocity":31,"Duration":129366,"SoundDuration":129366,"Delta":177833245},{"NoteNumber":64,"Velocity":38,"Duration":892141,"SoundDuration":892141,"Delta":177962611},{"NoteNumber":40,"Velocity":33,"Duration":892141,"SoundDuration":892141,"Delta":177962611},{"NoteNumber":59,"Velocity":26,"Duration":76534,"SoundDuration":76534,"Delta":178241694},{"NoteNumber":56,"Velocity":26,"Duration":76534,"SoundDuration":76534,"Delta":178241694},{"NoteNumber":47,"Velocity":30,"Duration":613058,"SoundDuration":613058,"Delta":178241694},{"NoteNumber":56,"Velocity":25,"Duration":76730,"SoundDuration":76730,"Delta":178547832},{"NoteNumber":59,"Velocity":25,"Duration":76730,"SoundDuration":76730,"Delta":178547832},{"NoteNumber":40,"Velocity":25,"Duration":784126,"SoundDuration":784126,"Delta":179775516},{"NoteNumber":54,"Velocity":26,"Duration":262697,"SoundDuration":262697,"Delta":180038213},{"NoteNumber":59,"Velocity":31,"Duration":131348,"SoundDuration":131348,"Delta":180038213},{"NoteNumber":47,"Velocity":29,"Duration":521429,"SoundDuration":521429,"Delta":180038213},{"NoteNumber":63,"Velocity":26,"Duration":131348,"SoundDuration":131348,"Delta":180169561},{"NoteNumber":59,"Velocity":31,"Duration":129366,"SoundDuration":129366,"Delta":180300910},{"NoteNumber":54,"Velocity":25,"Duration":258732,"SoundDuration":258732,"Delta":180300910},{"NoteNumber":63,"Velocity":26,"Duration":129366,"SoundDuration":129366,"Delta":180430276},{"NoteNumber":40,"Velocity":21,"Duration":784126,"SoundDuration":784126,"Delta":181410745},{"NoteNumber":54,"Velocity":22,"Duration":262697,"SoundDuration":262697,"Delta":181673442},{"NoteNumber":59,"Velocity":26,"Duration":131348,"SoundDuration":131348,"Delta":181673442},{"NoteNumber":47,"Velocity":24,"Duration":521429,"SoundDuration":521429,"Delta":181673442},{"NoteNumber":63,"Velocity":22,"Duration":131348,"SoundDuration":131348,"Delta":181804790},{"NoteNumber":59,"Velocity":26,"Duration":129366,"SoundDuration":129366,"Delta":181936139},{"NoteNumber":54,"Velocity":21,"Duration":258732,"SoundDuration":258732,"Delta":181936139},{"NoteNumber":63,"Velocity":22,"Duration":129366,"SoundDuration":129366,"Delta":182065505},{"NoteNumber":71,"Velocity":39,"Duration":952381,"SoundDuration":952381,"Delta":183934506},{"NoteNumber":64,"Velocity":42,"Duration":942460,"SoundDuration":942460,"Delta":184886887},{"NoteNumber":66,"Velocity":36,"Duration":238095,"SoundDuration":238095,"Delta":185601172},{"NoteNumber":67,"Velocity":43,"Duration":714285,"SoundDuration":714285,"Delta":185839268},{"NoteNumber":64,"Velocity":30,"Duration":1904762,"SoundDuration":1904762,"Delta":185839268},{"NoteNumber":62,"Velocity":25,"Duration":952381,"SoundDuration":952381,"Delta":185839268},{"NoteNumber":69,"Velocity":37,"Duration":238095,"SoundDuration":238095,"Delta":186553553},{"NoteNumber":66,"Velocity":29,"Duration":238095,"SoundDuration":238095,"Delta":186553553},{"NoteNumber":67,"Velocity":36,"Duration":952381,"SoundDuration":952381,"Delta":186791649},{"NoteNumber":71,"Velocity":45,"Duration":714285,"SoundDuration":714285,"Delta":186791649},{"NoteNumber":61,"Velocity":30,"Duration":952381,"SoundDuration":952381,"Delta":186791649},{"NoteNumber":76,"Velocity":37,"Duration":238095,"SoundDuration":238095,"Delta":187505934},{"NoteNumber":72,"Velocity":36,"Duration":952381,"SoundDuration":952381,"Delta":187744030},{"NoteNumber":79,"Velocity":45,"Duration":714285,"SoundDuration":714285,"Delta":187744030},{"NoteNumber":60,"Velocity":22,"Duration":952381,"SoundDuration":952381,"Delta":187744030},{"NoteNumber":64,"Velocity":26,"Duration":952381,"SoundDuration":952381,"Delta":187744030},{"NoteNumber":78,"Velocity":37,"Duration":238095,"SoundDuration":238095,"Delta":188458315},{"NoteNumber":66,"Velocity":40,"Duration":952380,"SoundDuration":952380,"Delta":188696411},{"NoteNumber":74,"Velocity":50,"Duration":714285,"SoundDuration":714285,"Delta":188696411},{"NoteNumber":59,"Velocity":25,"Duration":952380,"SoundDuration":952380,"Delta":188696411},{"NoteNumber":62,"Velocity":30,"Duration":952380,"SoundDuration":952380,"Delta":188696411},{"NoteNumber":72,"Velocity":43,"Duration":238095,"SoundDuration":238095,"Delta":189410696},{"NoteNumber":76,"Velocity":54,"Duration":714285,"SoundDuration":714285,"Delta":189648792},{"NoteNumber":69,"Velocity":43,"Duration":989515,"SoundDuration":989515,"Delta":189648792},{"NoteNumber":57,"Velocity":27,"Duration":989515,"SoundDuration":989515,"Delta":189648792},{"NoteNumber":60,"Velocity":32,"Duration":989515,"SoundDuration":989515,"Delta":189648792},{"NoteNumber":74,"Velocity":46,"Duration":275229,"SoundDuration":275229,"Delta":190363077},{"NoteNumber":71,"Velocity":40,"Duration":1566148,"SoundDuration":1566148,"Delta":190638307},{"NoteNumber":63,"Velocity":32,"Duration":2070349,"SoundDuration":2070349,"Delta":190638307},{"NoteNumber":55,"Velocity":25,"Duration":1061947,"SoundDuration":1061947,"Delta":190638307},{"NoteNumber":59,"Velocity":30,"Duration":1061947,"SoundDuration":1061947,"Delta":190638307},{"NoteNumber":54,"Velocity":22,"Duration":1008402,"SoundDuration":1008402,"Delta":191700254},{"NoteNumber":57,"Velocity":26,"Duration":1008402,"SoundDuration":1008402,"Delta":191700254},{"NoteNumber":72,"Velocity":36,"Duration":504201,"SoundDuration":504201,"Delta":192204455},{"NoteNumber":69,"Velocity":43,"Duration":731707,"SoundDuration":731707,"Delta":192708657},{"NoteNumber":65,"Velocity":34,"Duration":975609,"SoundDuration":975609,"Delta":192708657},{"NoteNumber":53,"Velocity":25,"Duration":975609,"SoundDuration":975609,"Delta":192708657},{"NoteNumber":60,"Velocity":30,"Duration":975609,"SoundDuration":975609,"Delta":192708657},{"NoteNumber":71,"Velocity":36,"Duration":243902,"SoundDuration":243902,"Delta":193440364},{"NoteNumber":64,"Velocity":36,"Duration":975610,"SoundDuration":975610,"Delta":193684267},{"NoteNumber":67,"Velocity":45,"Duration":731707,"SoundDuration":731707,"Delta":193684267},{"NoteNumber":59,"Velocity":26,"Duration":975610,"SoundDuration":975610,"Delta":193684267},{"NoteNumber":48,"Velocity":22,"Duration":975610,"SoundDuration":975610,"Delta":193684267},{"NoteNumber":69,"Velocity":39,"Duration":243902,"SoundDuration":243902,"Delta":194415974},{"NoteNumber":62,"Velocity":36,"Duration":1034482,"SoundDuration":1034482,"Delta":194659877},{"NoteNumber":66,"Velocity":45,"Duration":775862,"SoundDuration":775862,"Delta":194659877},{"NoteNumber":50,"Velocity":25,"Duration":1034482,"SoundDuration":1034482,"Delta":194659877},{"NoteNumber":57,"Velocity":30,"Duration":1034482,"SoundDuration":1034482,"Delta":194659877},{"NoteNumber":67,"Velocity":36,"Duration":258620,"SoundDuration":258620,"Delta":195435739},{"NoteNumber":64,"Velocity":43,"Duration":775862,"SoundDuration":775862,"Delta":195694360},{"NoteNumber":60,"Velocity":34,"Duration":1061576,"SoundDuration":1061576,"Delta":195694360},{"NoteNumber":55,"Velocity":26,"Duration":1061576,"SoundDuration":1061576,"Delta":195694360},{"NoteNumber":45,"Velocity":22,"Duration":1061576,"SoundDuration":1061576,"Delta":195694360},{"NoteNumber":66,"Velocity":35,"Duration":285714,"SoundDuration":285714,"Delta":196470222},{"NoteNumber":63,"Velocity":41,"Duration":1034482,"SoundDuration":1034482,"Delta":196755936},{"NoteNumber":59,"Velocity":32,"Duration":1034482,"SoundDuration":1034482,"Delta":196755936},{"NoteNumber":54,"Velocity":27,"Duration":1034482,"SoundDuration":1034482,"Delta":196755936},{"NoteNumber":47,"Velocity":22,"Duration":1034482,"SoundDuration":1034482,"Delta":196755936},{"NoteNumber":64,"Velocity":36,"Duration":1518353,"SoundDuration":1518353,"Delta":197790419},{"NoteNumber":59,"Velocity":28,"Duration":1518353,"SoundDuration":1518353,"Delta":197790419},{"NoteNumber":55,"Velocity":28,"Duration":1518353,"SoundDuration":1518353,"Delta":197790419},{"NoteNumber":40,"Velocity":25,"Duration":1034482,"SoundDuration":1034482,"Delta":197790419},{"NoteNumber":52,"Velocity":46,"Duration":4792627,"SoundDuration":4792627,"Delta":198824902},{"NoteNumber":63,"Velocity":31,"Duration":967742,"SoundDuration":967742,"Delta":199792644},{"NoteNumber":71,"Velocity":39,"Duration":967742,"SoundDuration":967742,"Delta":199792644},{"NoteNumber":54,"Velocity":25,"Duration":967742,"SoundDuration":967742,"Delta":199792644},{"NoteNumber":60,"Velocity":38,"Duration":1012864,"SoundDuration":1012864,"Delta":200699902},{"NoteNumber":64,"Velocity":42,"Duration":714285,"SoundDuration":714285,"Delta":200760386},{"NoteNumber":59,"Velocity":35,"Duration":476190,"SoundDuration":476190,"Delta":200760386},{"NoteNumber":57,"Velocity":30,"Duration":476190,"SoundDuration":476190,"Delta":201236577},{"NoteNumber":66,"Velocity":36,"Duration":238095,"SoundDuration":238095,"Delta":201474672},{"NoteNumber":64,"Velocity":36,"Duration":714285,"SoundDuration":714285,"Delta":201712767},{"NoteNumber":67,"Velocity":43,"Duration":714285,"SoundDuration":714285,"Delta":201712767},{"NoteNumber":62,"Velocity":30,"Duration":476190,"SoundDuration":476190,"Delta":201712767},{"NoteNumber":60,"Velocity":24,"Duration":476190,"SoundDuration":476190,"Delta":202188958},{"NoteNumber":69,"Velocity":37,"Duration":238095,"SoundDuration":238095,"Delta":202427053},{"NoteNumber":66,"Velocity":29,"Duration":238095,"SoundDuration":238095,"Delta":202427053},{"NoteNumber":67,"Velocity":36,"Duration":952381,"SoundDuration":952381,"Delta":202665148},{"NoteNumber":71,"Velocity":45,"Duration":714285,"SoundDuration":714285,"Delta":202665148},{"NoteNumber":59,"Velocity":30,"Duration":952381,"SoundDuration":952381,"Delta":202665148},{"NoteNumber":76,"Velocity":37,"Duration":238095,"SoundDuration":238095,"Delta":203379434},{"NoteNumber":69,"Velocity":36,"Duration":952381,"SoundDuration":952381,"Delta":203617529},{"NoteNumber":79,"Velocity":45,"Duration":714285,"SoundDuration":714285,"Delta":203617529},{"NoteNumber":54,"Velocity":22,"Duration":952381,"SoundDuration":952381,"Delta":203617529},{"NoteNumber":64,"Velocity":26,"Duration":952381,"SoundDuration":952381,"Delta":203617529},{"NoteNumber":78,"Velocity":37,"Duration":238095,"SoundDuration":238095,"Delta":204331815},{"NoteNumber":66,"Velocity":40,"Duration":952381,"SoundDuration":952381,"Delta":204569910},{"NoteNumber":74,"Velocity":50,"Duration":714285,"SoundDuration":714285,"Delta":204569910},{"NoteNumber":55,"Velocity":25,"Duration":952381,"SoundDuration":952381,"Delta":204569910},{"NoteNumber":59,"Velocity":30,"Duration":952381,"SoundDuration":952381,"Delta":204569910},{"NoteNumber":72,"Velocity":43,"Duration":238095,"SoundDuration":238095,"Delta":205284196},{"NoteNumber":76,"Velocity":54,"Duration":714285,"SoundDuration":714285,"Delta":205522291},{"NoteNumber":67,"Velocity":43,"Duration":982142,"SoundDuration":982142,"Delta":205522291},{"NoteNumber":57,"Velocity":27,"Duration":982142,"SoundDuration":982142,"Delta":205522291},{"NoteNumber":60,"Velocity":32,"Duration":982142,"SoundDuration":982142,"Delta":205522291},{"NoteNumber":74,"Velocity":46,"Duration":267857,"SoundDuration":267857,"Delta":206236577},{"NoteNumber":71,"Velocity":40,"Duration":1598993,"SoundDuration":1598993,"Delta":206504434},{"NoteNumber":66,"Velocity":32,"Duration":1063278,"SoundDuration":1063278,"Delta":206504434},{"NoteNumber":59,"Velocity":25,"Duration":1063278,"SoundDuration":1063278,"Delta":206504434},{"NoteNumber":62,"Velocity":30,"Duration":2134707,"SoundDuration":2134707,"Delta":206504434},{"NoteNumber":65,"Velocity":32,"Duration":1071428,"SoundDuration":1071428,"Delta":207567713},{"NoteNumber":55,"Velocity":26,"Duration":1071428,"SoundDuration":1071428,"Delta":207567713},{"NoteNumber":72,"Velocity":27,"Duration":535714,"SoundDuration":535714,"Delta":208103428},{"NoteNumber":69,"Velocity":32,"Duration":724541,"SoundDuration":724541,"Delta":208639142},{"NoteNumber":60,"Velocity":25,"Duration":472441,"SoundDuration":472441,"Delta":208639142},{"NoteNumber":53,"Velocity":18,"Duration":976642,"SoundDuration":976642,"Delta":208639142},{"NoteNumber":57,"Velocity":22,"Duration":472441,"SoundDuration":472441,"Delta":208639142},{"NoteNumber":62,"Velocity":18,"Duration":504201,"SoundDuration":504201,"Delta":209111583},{"NoteNumber":59,"Velocity":16,"Duration":504201,"SoundDuration":504201,"Delta":209111583},{"NoteNumber":71,"Velocity":27,"Duration":252100,"SoundDuration":252100,"Delta":209363684},{"NoteNumber":64,"Velocity":27,"Duration":1009544,"SoundDuration":1009544,"Delta":209615785},{"NoteNumber":67,"Velocity":33,"Duration":748674,"SoundDuration":748674,"Delta":209615785},{"NoteNumber":60,"Velocity":19,"Duration":1009544,"SoundDuration":1009544,"Delta":209615785},{"NoteNumber":48,"Velocity":16,"Duration":1009544,"SoundDuration":1009544,"Delta":209615785},{"NoteNumber":69,"Velocity":29,"Duration":260869,"SoundDuration":260869,"Delta":210364459},{"NoteNumber":57,"Velocity":27,"Duration":487805,"SoundDuration":487805,"Delta":210625329},{"NoteNumber":66,"Velocity":33,"Duration":750963,"SoundDuration":750963,"Delta":210625329},{"NoteNumber":50,"Velocity":18,"Duration":1014121,"SoundDuration":1014121,"Delta":210625329},{"NoteNumber":54,"Velocity":22,"Duration":487805,"SoundDuration":487805,"Delta":210625329},{"NoteNumber":59,"Velocity":20,"Duration":526316,"SoundDuration":526316,"Delta":211113134},{"NoteNumber":55,"Velocity":16,"Duration":526316,"SoundDuration":526316,"Delta":211113134},{"NoteNumber":67,"Velocity":27,"Duration":263158,"SoundDuration":263158,"Delta":211376292},{"NoteNumber":64,"Velocity":32,"Duration":756302,"SoundDuration":756302,"Delta":211639450},{"NoteNumber":60,"Velocity":25,"Duration":1053332,"SoundDuration":1053332,"Delta":211639450},{"NoteNumber":57,"Velocity":19,"Duration":1053332,"SoundDuration":1053332,"Delta":211639450},{"NoteNumber":45,"Velocity":16,"Duration":1053332,"SoundDuration":1053332,"Delta":211639450},{"NoteNumber":66,"Velocity":26,"Duration":297029,"SoundDuration":297029,"Delta":212395752},{"NoteNumber":63,"Velocity":30,"Duration":1188119,"SoundDuration":1188119,"Delta":212692782},{"NoteNumber":59,"Velocity":24,"Duration":1188119,"SoundDuration":1188119,"Delta":212692782},{"NoteNumber":54,"Velocity":20,"Duration":1188119,"SoundDuration":1188119,"Delta":212692782},{"NoteNumber":47,"Velocity":16,"Duration":1188119,"SoundDuration":1188119,"Delta":212692782},{"NoteNumber":64,"Velocity":27,"Duration":2376238,"SoundDuration":2376238,"Delta":213880901},{"NoteNumber":59,"Velocity":21,"Duration":2376238,"SoundDuration":2376238,"Delta":213880901},{"NoteNumber":55,"Velocity":21,"Duration":2376238,"SoundDuration":2376238,"Delta":213880901},{"NoteNumber":40,"Velocity":18,"Duration":2376238,"SoundDuration":2376238,"Delta":213880901},{"NoteNumber":62,"Velocity":58,"Duration":937500,"SoundDuration":937500,"Delta":216257139},{"NoteNumber":66,"Velocity":58,"Duration":937500,"SoundDuration":937500,"Delta":216257139},{"NoteNumber":50,"Velocity":48,"Duration":937500,"SoundDuration":937500,"Delta":216257139},{"NoteNumber":57,"Velocity":55,"Duration":937500,"SoundDuration":937500,"Delta":216257139},{"NoteNumber":62,"Velocity":43,"Duration":888889,"SoundDuration":888889,"Delta":217194639},{"NoteNumber":67,"Velocity":63,"Duration":666666,"SoundDuration":666666,"Delta":217194639},{"NoteNumber":55,"Velocity":55,"Duration":1777778,"SoundDuration":1777778,"Delta":217194639},{"NoteNumber":59,"Velocity":55,"Duration":888889,"SoundDuration":888889,"Delta":217194639},{"NoteNumber":69,"Velocity":54,"Duration":222222,"SoundDuration":222222,"Delta":217861305},{"NoteNumber":64,"Velocity":43,"Duration":888889,"SoundDuration":888889,"Delta":218083528},{"NoteNumber":71,"Velocity":64,"Duration":444444,"SoundDuration":444444,"Delta":218083528},{"NoteNumber":61,"Velocity":49,"Duration":888889,"SoundDuration":888889,"Delta":218083528},{"NoteNumber":67,"Velocity":55,"Duration":444444,"SoundDuration":444444,"Delta":218527972},{"NoteNumber":66,"Velocity":54,"Duration":481087,"SoundDuration":481087,"Delta":218916861},{"NoteNumber":71,"Velocity":67,"Duration":425532,"SoundDuration":425532,"Delta":218972417},{"NoteNumber":62,"Velocity":53,"Duration":425532,"SoundDuration":425532,"Delta":218972417},{"NoteNumber":50,"Velocity":53,"Duration":1758865,"SoundDuration":1758865,"Delta":218972417},{"NoteNumber":64,"Velocity":55,"Duration":444444,"SoundDuration":444444,"Delta":219397949},{"NoteNumber":69,"Velocity":55,"Duration":444444,"SoundDuration":444444,"Delta":219397949},{"NoteNumber":57,"Velocity":45,"Duration":444444,"SoundDuration":444444,"Delta":219397949},{"NoteNumber":62,"Velocity":54,"Duration":425925,"SoundDuration":425925,"Delta":219842393},{"NoteNumber":69,"Velocity":67,"Duration":444444,"SoundDuration":444444,"Delta":219842393},{"NoteNumber":54,"Velocity":39,"Duration":888889,"SoundDuration":888889,"Delta":219842393},{"NoteNumber":62,"Velocity":55,"Duration":444444,"SoundDuration":444444,"Delta":220286838},{"NoteNumber":64,"Velocity":43,"Duration":888889,"SoundDuration":888889,"Delta":220731282},{"NoteNumber":72,"Velocity":63,"Duration":666666,"SoundDuration":666666,"Delta":220731282},{"NoteNumber":48,"Velocity":55,"Duration":1777778,"SoundDuration":1777778,"Delta":220731282},{"NoteNumber":55,"Velocity":55,"Duration":888889,"SoundDuration":888889,"Delta":220731282},{"NoteNumber":74,"Velocity":56,"Duration":222222,"SoundDuration":222222,"Delta":221397949},{"NoteNumber":66,"Velocity":46,"Duration":888889,"SoundDuration":888889,"Delta":221620171},{"NoteNumber":76,"Velocity":68,"Duration":444444,"SoundDuration":444444,"Delta":221620171},{"NoteNumber":57,"Velocity":52,"Duration":888889,"SoundDuration":888889,"Delta":221620171},{"NoteNumber":72,"Velocity":61,"Duration":444444,"SoundDuration":444444,"Delta":222064616},{"NoteNumber":67,"Velocity":61,"Duration":1007936,"SoundDuration":1007936,"Delta":222453504},{"NoteNumber":74,"Velocity":77,"Duration":1428571,"SoundDuration":1428571,"Delta":222509060},{"NoteNumber":59,"Velocity":60,"Duration":952381,"SoundDuration":952381,"Delta":222509060},{"NoteNumber":43,"Velocity":60,"Duration":1979166,"SoundDuration":1979166,"Delta":222509060},{"NoteNumber":69,"Velocity":62,"Duration":1026785,"SoundDuration":1026785,"Delta":223461441},{"NoteNumber":62,"Velocity":44,"Duration":1026785,"SoundDuration":1026785,"Delta":223461441},{"NoteNumber":74,"Velocity":77,"Duration":550595,"SoundDuration":550595,"Delta":223937632},{"NoteNumber":71,"Velocity":49,"Duration":888889,"SoundDuration":888889,"Delta":224488227},{"NoteNumber":76,"Velocity":72,"Duration":666666,"SoundDuration":666666,"Delta":224488227},{"NoteNumber":55,"Velocity":63,"Duration":5517387,"SoundDuration":5517387,"Delta":224488227},{"NoteNumber":67,"Velocity":63,"Duration":888889,"SoundDuration":888889,"Delta":224488227},{"NoteNumber":78,"Velocity":62,"Duration":222222,"SoundDuration":222222,"Delta":225154894},{"NoteNumber":69,"Velocity":49,"Duration":888889,"SoundDuration":888889,"Delta":225377116},{"NoteNumber":74,"Velocity":73,"Duration":444444,"SoundDuration":444444,"Delta":225377116},{"NoteNumber":66,"Velocity":56,"Duration":888889,"SoundDuration":888889,"Delta":225377116},{"NoteNumber":71,"Velocity":63,"Duration":444444,"SoundDuration":444444,"Delta":225821560},{"NoteNumber":72,"Velocity":70,"Duration":666666,"SoundDuration":666666,"Delta":226266005},{"NoteNumber":67,"Velocity":59,"Duration":888888,"SoundDuration":888888,"Delta":226266005},{"NoteNumber":64,"Velocity":60,"Duration":888888,"SoundDuration":888888,"Delta":226266005},{"NoteNumber":74,"Velocity":56,"Duration":222222,"SoundDuration":222222,"Delta":226932672},{"NoteNumber":71,"Velocity":68,"Duration":444444,"SoundDuration":444444,"Delta":227154894},{"NoteNumber":66,"Velocity":57,"Duration":888889,"SoundDuration":888889,"Delta":227154894},{"NoteNumber":62,"Velocity":44,"Duration":888889,"SoundDuration":888889,"Delta":227154894},{"NoteNumber":67,"Velocity":57,"Duration":444444,"SoundDuration":444444,"Delta":227599338},{"NoteNumber":64,"Velocity":58,"Duration":944882,"SoundDuration":944882,"Delta":228043783},{"NoteNumber":69,"Velocity":69,"Duration":944882,"SoundDuration":944882,"Delta":228043783},{"NoteNumber":60,"Velocity":44,"Duration":944882,"SoundDuration":944882,"Delta":228043783},{"NoteNumber":63,"Velocity":48,"Duration":2176921,"SoundDuration":2176921,"Delta":228929610},{"NoteNumber":71,"Velocity":57,"Duration":2117866,"SoundDuration":2117866,"Delta":228988665},{"NoteNumber":59,"Velocity":44,"Duration":1016949,"SoundDuration":1016949,"Delta":228988665},{"NoteNumber":58,"Velocity":33,"Duration":1100917,"SoundDuration":1100917,"Delta":230005614},{"NoteNumber":54,"Velocity":28,"Duration":1100917,"SoundDuration":1100917,"Delta":230005614},{"NoteNumber":71,"Velocity":46,"Duration":1319942,"SoundDuration":1319942,"Delta":231106531},{"NoteNumber":63,"Velocity":39,"Duration":1319942,"SoundDuration":1319942,"Delta":231106531},{"NoteNumber":53,"Velocity":27,"Duration":1319942,"SoundDuration":1319942,"Delta":231106531},{"NoteNumber":57,"Velocity":32,"Duration":588235,"SoundDuration":588235,"Delta":231106531},{"NoteNumber":56,"Velocity":29,"Duration":731707,"SoundDuration":731707,"Delta":231694766},{"NoteNumber":59,"Velocity":36,"Duration":1025641,"SoundDuration":1025641,"Delta":232426474},{"NoteNumber":64,"Velocity":42,"Duration":769230,"SoundDuration":769230,"Delta":232426474},{"NoteNumber":52,"Velocity":25,"Duration":1025641,"SoundDuration":1025641,"Delta":232426474},{"NoteNumber":55,"Velocity":30,"Duration":1025641,"SoundDuration":1025641,"Delta":232426474},{"NoteNumber":66,"Velocity":36,"Duration":256410,"SoundDuration":256410,"Delta":233195705},{"NoteNumber":59,"Velocity":29,"Duration":952381,"SoundDuration":952381,"Delta":233452115},{"NoteNumber":64,"Velocity":29,"Duration":952381,"SoundDuration":952381,"Delta":233452115},{"NoteNumber":67,"Velocity":43,"Duration":714285,"SoundDuration":714285,"Delta":233452115},{"NoteNumber":62,"Velocity":30,"Duration":952381,"SoundDuration":952381,"Delta":233452115},{"NoteNumber":50,"Velocity":25,"Duration":952381,"SoundDuration":952381,"Delta":233452115},{"NoteNumber":69,"Velocity":37,"Duration":238095,"SoundDuration":238095,"Delta":234166401},{"NoteNumber":64,"Velocity":36,"Duration":952381,"SoundDuration":952381,"Delta":234404496},{"NoteNumber":67,"Velocity":36,"Duration":952381,"SoundDuration":952381,"Delta":234404496},{"NoteNumber":71,"Velocity":45,"Duration":714285,"SoundDuration":714285,"Delta":234404496},{"NoteNumber":49,"Velocity":25,"Duration":952381,"SoundDuration":952381,"Delta":234404496},{"NoteNumber":61,"Velocity":30,"Duration":952381,"SoundDuration":952381,"Delta":234404496},{"NoteNumber":76,"Velocity":37,"Duration":238095,"SoundDuration":238095,"Delta":235118782},{"NoteNumber":64,"Velocity":36,"Duration":952381,"SoundDuration":952381,"Delta":235356877},{"NoteNumber":72,"Velocity":36,"Duration":952381,"SoundDuration":952381,"Delta":235356877},{"NoteNumber":79,"Velocity":45,"Duration":714285,"SoundDuration":714285,"Delta":235356877},{"NoteNumber":48,"Velocity":22,"Duration":952381,"SoundDuration":952381,"Delta":235356877},{"NoteNumber":60,"Velocity":26,"Duration":952381,"SoundDuration":952381,"Delta":235356877},{"NoteNumber":78,"Velocity":37,"Duration":238095,"SoundDuration":238095,"Delta":236071163},{"NoteNumber":71,"Velocity":40,"Duration":937500,"SoundDuration":937500,"Delta":236309258},{"NoteNumber":66,"Velocity":40,"Duration":937500,"SoundDuration":937500,"Delta":236309258},{"NoteNumber":74,"Velocity":50,"Duration":703125,"SoundDuration":703125,"Delta":236309258},{"NoteNumber":47,"Velocity":25,"Duration":937500,"SoundDuration":937500,"Delta":236309258},{"NoteNumber":59,"Velocity":30,"Duration":937500,"SoundDuration":937500,"Delta":236309258},{"NoteNumber":72,"Velocity":43,"Duration":234375,"SoundDuration":234375,"Delta":237012383},{"NoteNumber":60,"Velocity":43,"Duration":978354,"SoundDuration":978354,"Delta":237246758},{"NoteNumber":76,"Velocity":54,"Duration":703125,"SoundDuration":703125,"Delta":237246758},{"NoteNumber":69,"Velocity":43,"Duration":978354,"SoundDuration":978354,"Delta":237246758},{"NoteNumber":45,"Velocity":27,"Duration":978354,"SoundDuration":978354,"Delta":237246758},{"NoteNumber":57,"Velocity":32,"Duration":978354,"SoundDuration":978354,"Delta":237246758},{"NoteNumber":74,"Velocity":46,"Duration":275229,"SoundDuration":275229,"Delta":237949883},{"NoteNumber":59,"Velocity":43,"Duration":1071428,"SoundDuration":1071428,"Delta":238225112},{"NoteNumber":71,"Velocity":40,"Duration":1575630,"SoundDuration":1575630,"Delta":238225112},{"NoteNumber":63,"Velocity":32,"Duration":2200500,"SoundDuration":2200500,"Delta":238225112},{"NoteNumber":43,"Velocity":25,"Duration":1071428,"SoundDuration":1071428,"Delta":238225112},{"NoteNumber":55,"Velocity":30,"Duration":1071428,"SoundDuration":1071428,"Delta":238225112},{"NoteNumber":57,"Velocity":43,"Duration":1129071,"SoundDuration":1129071,"Delta":239296541},{"NoteNumber":42,"Velocity":22,"Duration":1129071,"SoundDuration":1129071,"Delta":239296541},{"NoteNumber":54,"Velocity":26,"Duration":1129071,"SoundDuration":1129071,"Delta":239296541},{"NoteNumber":72,"Velocity":36,"Duration":624869,"SoundDuration":624869,"Delta":239800743},{"NoteNumber":60,"Velocity":25,"Duration":1131862,"SoundDuration":1131862,"Delta":240425613},{"NoteNumber":69,"Velocity":32,"Duration":848896,"SoundDuration":848896,"Delta":240425613},{"NoteNumber":65,"Velocity":25,"Duration":1131862,"SoundDuration":1131862,"Delta":240425613},{"NoteNumber":41,"Velocity":18,"Duration":1131862,"SoundDuration":1131862,"Delta":240425613},{"NoteNumber":53,"Velocity":22,"Duration":1131862,"SoundDuration":1131862,"Delta":240425613},{"NoteNumber":71,"Velocity":27,"Duration":282965,"SoundDuration":282965,"Delta":241274509},{"NoteNumber":59,"Velocity":27,"Duration":1131861,"SoundDuration":1131861,"Delta":241557475},{"NoteNumber":64,"Velocity":27,"Duration":1131861,"SoundDuration":1131861,"Delta":241557475},{"NoteNumber":67,"Velocity":33,"Duration":848896,"SoundDuration":848896,"Delta":241557475},{"NoteNumber":48,"Velocity":19,"Duration":1131861,"SoundDuration":1131861,"Delta":241557475},{"NoteNumber":36,"Velocity":16,"Duration":1131861,"SoundDuration":1131861,"Delta":241557475},{"NoteNumber":69,"Velocity":29,"Duration":282965,"SoundDuration":282965,"Delta":242406371},{"NoteNumber":57,"Velocity":27,"Duration":1262891,"SoundDuration":1262891,"Delta":242689337},{"NoteNumber":62,"Velocity":27,"Duration":1262891,"SoundDuration":1262891,"Delta":242689337},{"NoteNumber":66,"Velocity":33,"Duration":947169,"SoundDuration":947169,"Delta":242689337},{"NoteNumber":38,"Velocity":18,"Duration":1262891,"SoundDuration":1262891,"Delta":242689337},{"NoteNumber":50,"Velocity":22,"Duration":1262891,"SoundDuration":1262891,"Delta":242689337},{"NoteNumber":67,"Velocity":27,"Duration":315722,"SoundDuration":315722,"Delta":243636506},{"NoteNumber":55,"Velocity":25,"Duration":1331685,"SoundDuration":1331685,"Delta":243952229},{"NoteNumber":64,"Velocity":32,"Duration":947169,"SoundDuration":947169,"Delta":243952229},{"NoteNumber":60,"Velocity":25,"Duration":1331685,"SoundDuration":1331685,"Delta":243952229},{"NoteNumber":45,"Velocity":19,"Duration":1331685,"SoundDuration":1331685,"Delta":243952229},{"NoteNumber":33,"Velocity":16,"Duration":1331685,"SoundDuration":1331685,"Delta":243952229},{"NoteNumber":66,"Velocity":26,"Duration":384516,"SoundDuration":384516,"Delta":244899398},{"NoteNumber":54,"Velocity":20,"Duration":1428230,"SoundDuration":1428230,"Delta":246712145},{"NoteNumber":63,"Velocity":25,"Duration":1428230,"SoundDuration":1428230,"Delta":246712145},{"NoteNumber":59,"Velocity":20,"Duration":1428230,"SoundDuration":1428230,"Delta":246712145},{"NoteNumber":47,"Velocity":17,"Duration":1428230,"SoundDuration":1428230,"Delta":246712145},{"NoteNumber":35,"Velocity":13,"Duration":1428230,"SoundDuration":1428230,"Delta":246712145},{"NoteNumber":64,"Velocity":22,"Duration":4284693,"SoundDuration":4284693,"Delta":249568607},{"NoteNumber":59,"Velocity":17,"Duration":4284693,"SoundDuration":4284693,"Delta":249568607},{"NoteNumber":55,"Velocity":17,"Duration":4284693,"SoundDuration":4284693,"Delta":249568607},{"NoteNumber":28,"Velocity":11,"Duration":4284693,"SoundDuration":4284693,"Delta":249568607},{"NoteNumber":40,"Velocity":15,"Duration":4284693,"SoundDuration":4284693,"Delta":249568607}],"license":{"name":"Creative Commons Attribution-ShareAlike 3.0 Germany","url":"http://creativecommons.org/licenses/by-sa/3.0/de/deed.en","text":"The MIDI files in this folder were downloaded from http://www.piano-midi.de and are licensed under the Creative Commons Attribution-ShareAlike 3.0 Germany license by Bernd Krueger.\n\nThe MIDI, audio(MP3, OGG) and video files of Bernd Krueger are licensed under the cc-by-sa Germany License . This means, that you can use and adapt the files, as long as you attribute to the copyright holder Name: Bernd Krueger Source: http://www.piano-midi.de The distribution or public playback of the files is only allowed under identical license conditions . The scores are open source.","attribution":"Bernd Krueger","attributionUrl":"http://www.piano-midi.de"}}