{"title":"Wächterlied Op12, No. 3","artist":"Grieg","durationMs":143951,"midiSha256":"7f3bd4dee2cc458c7096032680d394a324e728844e269f0bff821f3bd95e4ee0","midiObject":[{"NoteNumber":59,"Velocity":57,"Duration":659921,"SoundDuration":659921,"Delta":0},{"NoteNumber":47,"Velocity":48,"Duration":659921,"SoundDuration":659921,"Delta":0},{"NoteNumber":64,"Velocity":60,"Duration":659920,"SoundDuration":659920,"Delta":659921},{"NoteNumber":52,"Velocity":51,"Duration":659920,"SoundDuration":659920,"Delta":659921},{"NoteNumber":64,"Velocity":61,"Duration":659921,"SoundDuration":659921,"Delta":1319841},{"NoteNumber":52,"Velocity":51,"Duration":659921,"SoundDuration":659921,"Delta":1319841},{"NoteNumber":63,"Velocity":57,"Duration":659921,"SoundDuration":659921,"Delta":1979763},{"NoteNumber":51,"Velocity":48,"Duration":659921,"SoundDuration":659921,"Delta":1979763},{"NoteNumber":61,"Velocity":55,"Duration":339213,"SoundDuration":339213,"Delta":2639684},{"NoteNumber":49,"Velocity":46,"Duration":339213,"SoundDuration":339213,"Delta":2639684},{"NoteNumber":59,"Velocity":49,"Duration":348999,"SoundDuration":348999,"Delta":2978897},{"NoteNumber":47,"Velocity":41,"Duration":348999,"SoundDuration":348999,"Delta":2978897},{"NoteNumber":61,"Velocity":53,"Duration":1356852,"SoundDuration":1356852,"Delta":3327896},{"NoteNumber":57,"Velocity":45,"Duration":1356852,"SoundDuration":1356852,"Delta":3327896},{"NoteNumber":45,"Velocity":38,"Duration":1356852,"SoundDuration":1356852,"Delta":3327896},{"NoteNumber":52,"Velocity":45,"Duration":1356852,"SoundDuration":1356852,"Delta":3327896},{"NoteNumber":56,"Velocity":44,"Duration":659920,"SoundDuration":659920,"Delta":4684748},{"NoteNumber":64,"Velocity":52,"Duration":659920,"SoundDuration":659920,"Delta":4684748},{"NoteNumber":52,"Velocity":44,"Duration":659920,"SoundDuration":659920,"Delta":4684748},{"NoteNumber":49,"Velocity":37,"Duration":659920,"SoundDuration":659920,"Delta":4684748},{"NoteNumber":61,"Velocity":45,"Duration":444000,"SoundDuration":444000,"Delta":6004590},{"NoteNumber":66,"Velocity":54,"Duration":444000,"SoundDuration":444000,"Delta":6004590},{"NoteNumber":45,"Velocity":37,"Duration":444000,"SoundDuration":444000,"Delta":6004590},{"NoteNumber":52,"Velocity":44,"Duration":444000,"SoundDuration":444000,"Delta":6004590},{"NoteNumber":61,"Velocity":43,"Duration":437924,"SoundDuration":437924,"Delta":6670591},{"NoteNumber":66,"Velocity":51,"Duration":437924,"SoundDuration":437924,"Delta":6670591},{"NoteNumber":52,"Velocity":42,"Duration":437924,"SoundDuration":437924,"Delta":6670591},{"NoteNumber":45,"Velocity":35,"Duration":437924,"SoundDuration":437924,"Delta":6670591},{"NoteNumber":59,"Velocity":41,"Duration":439947,"SoundDuration":439947,"Delta":7327477},{"NoteNumber":66,"Velocity":49,"Duration":439947,"SoundDuration":439947,"Delta":7327477},{"NoteNumber":51,"Velocity":42,"Duration":439947,"SoundDuration":439947,"Delta":7327477},{"NoteNumber":47,"Velocity":35,"Duration":439947,"SoundDuration":439947,"Delta":7327477},{"NoteNumber":66,"Velocity":48,"Duration":456568,"SoundDuration":456568,"Delta":7987398},{"NoteNumber":59,"Velocity":40,"Duration":456568,"SoundDuration":456568,"Delta":7987398},{"NoteNumber":51,"Velocity":39,"Duration":456568,"SoundDuration":456568,"Delta":7987398},{"NoteNumber":47,"Velocity":33,"Duration":456568,"SoundDuration":456568,"Delta":7987398},{"NoteNumber":68,"Velocity":52,"Duration":1319841,"SoundDuration":1319841,"Delta":8672251},{"NoteNumber":59,"Velocity":44,"Duration":1319841,"SoundDuration":1319841,"Delta":8672251},{"NoteNumber":52,"Velocity":44,"Duration":1319841,"SoundDuration":1319841,"Delta":8672251},{"NoteNumber":40,"Velocity":37,"Duration":1319841,"SoundDuration":1319841,"Delta":8672251},{"NoteNumber":68,"Velocity":64,"Duration":639521,"SoundDuration":639521,"Delta":10652014},{"NoteNumber":56,"Velocity":66,"Duration":639521,"SoundDuration":639521,"Delta":10652014},{"NoteNumber":73,"Velocity":71,"Duration":648158,"SoundDuration":648158,"Delta":11291536},{"NoteNumber":61,"Velocity":66,"Duration":648158,"SoundDuration":648158,"Delta":11291536},{"NoteNumber":73,"Velocity":69,"Duration":648157,"SoundDuration":648157,"Delta":11939694},{"NoteNumber":61,"Velocity":64,"Duration":648157,"SoundDuration":648157,"Delta":11939694},{"NoteNumber":71,"Velocity":69,"Duration":648158,"SoundDuration":648158,"Delta":12587852},{"NoteNumber":59,"Velocity":64,"Duration":648158,"SoundDuration":648158,"Delta":12587852},{"NoteNumber":69,"Velocity":69,"Duration":334522,"SoundDuration":334522,"Delta":13236010},{"NoteNumber":57,"Velocity":65,"Duration":334522,"SoundDuration":334522,"Delta":13236010},{"NoteNumber":68,"Velocity":63,"Duration":328443,"SoundDuration":328443,"Delta":13570533},{"NoteNumber":56,"Velocity":59,"Duration":328443,"SoundDuration":328443,"Delta":13570533},{"NoteNumber":61,"Velocity":69,"Duration":656886,"SoundDuration":656886,"Delta":13898976},{"NoteNumber":69,"Velocity":69,"Duration":1328928,"SoundDuration":1328928,"Delta":13898976},{"NoteNumber":57,"Velocity":69,"Duration":656886,"SoundDuration":656886,"Delta":13898976},{"NoteNumber":63,"Velocity":60,"Duration":672042,"SoundDuration":672042,"Delta":14555862},{"NoteNumber":54,"Velocity":59,"Duration":672042,"SoundDuration":672042,"Delta":14555862},{"NoteNumber":64,"Velocity":53,"Duration":1332001,"SoundDuration":1332001,"Delta":15227905},{"NoteNumber":68,"Velocity":62,"Duration":1332001,"SoundDuration":1332001,"Delta":15227905},{"NoteNumber":49,"Velocity":60,"Duration":1332001,"SoundDuration":1332001,"Delta":15227905},{"NoteNumber":61,"Velocity":56,"Duration":684853,"SoundDuration":684853,"Delta":16559906},{"NoteNumber":66,"Velocity":66,"Duration":684853,"SoundDuration":684853,"Delta":16559906},{"NoteNumber":45,"Velocity":46,"Duration":684853,"SoundDuration":684853,"Delta":16559906},{"NoteNumber":52,"Velocity":55,"Duration":684853,"SoundDuration":684853,"Delta":16559906},{"NoteNumber":57,"Velocity":47,"Duration":684853,"SoundDuration":684853,"Delta":17244759},{"NoteNumber":66,"Velocity":56,"Duration":684853,"SoundDuration":684853,"Delta":17244759},{"NoteNumber":52,"Velocity":47,"Duration":684853,"SoundDuration":684853,"Delta":17244759},{"NoteNumber":42,"Velocity":39,"Duration":684853,"SoundDuration":684853,"Delta":17244759},{"NoteNumber":66,"Velocity":56,"Duration":1047145,"SoundDuration":1047145,"Delta":17929613},{"NoteNumber":59,"Velocity":47,"Duration":1420354,"SoundDuration":1420354,"Delta":17929613},{"NoteNumber":57,"Velocity":47,"Duration":1420354,"SoundDuration":1420354,"Delta":17929613},{"NoteNumber":52,"Velocity":46,"Duration":693046,"SoundDuration":693046,"Delta":17929613},{"NoteNumber":47,"Velocity":39,"Duration":1420354,"SoundDuration":1420354,"Delta":17929613},{"NoteNumber":51,"Velocity":44,"Duration":727307,"SoundDuration":727307,"Delta":18622659},{"NoteNumber":64,"Velocity":51,"Duration":373208,"SoundDuration":373208,"Delta":18976758},{"NoteNumber":64,"Velocity":45,"Duration":1319842,"SoundDuration":1319842,"Delta":19349967},{"NoteNumber":59,"Velocity":37,"Duration":1319842,"SoundDuration":1319842,"Delta":19349967},{"NoteNumber":56,"Velocity":37,"Duration":1319842,"SoundDuration":1319842,"Delta":19349967},{"NoteNumber":47,"Velocity":29,"Duration":1319842,"SoundDuration":1319842,"Delta":19349967},{"NoteNumber":52,"Velocity":35,"Duration":1319842,"SoundDuration":1319842,"Delta":19349967},{"NoteNumber":40,"Velocity":29,"Duration":1319842,"SoundDuration":1319842,"Delta":19349967},{"NoteNumber":71,"Velocity":52,"Duration":950704,"SoundDuration":950704,"Delta":21329730},{"NoteNumber":68,"Velocity":31,"Duration":611789,"SoundDuration":611789,"Delta":21969457},{"NoteNumber":56,"Velocity":40,"Duration":1218462,"SoundDuration":1218462,"Delta":21969457},{"NoteNumber":73,"Velocity":52,"Duration":300812,"SoundDuration":300812,"Delta":22280435},{"NoteNumber":75,"Velocity":49,"Duration":594033,"SoundDuration":594033,"Delta":22581247},{"NoteNumber":66,"Velocity":41,"Duration":594033,"SoundDuration":594033,"Delta":22581247},{"NoteNumber":75,"Velocity":53,"Duration":625913,"SoundDuration":625913,"Delta":23187920},{"NoteNumber":64,"Velocity":40,"Duration":2431108,"SoundDuration":2431108,"Delta":23187920},{"NoteNumber":49,"Velocity":40,"Duration":1836755,"SoundDuration":1836755,"Delta":23187920},{"NoteNumber":71,"Velocity":49,"Duration":604168,"SoundDuration":604168,"Delta":23813833},{"NoteNumber":68,"Velocity":51,"Duration":606673,"SoundDuration":606673,"Delta":24418002},{"NoteNumber":70,"Velocity":49,"Duration":594353,"SoundDuration":594353,"Delta":25024675},{"NoteNumber":54,"Velocity":46,"Duration":594353,"SoundDuration":594353,"Delta":25024675},{"NoteNumber":63,"Velocity":39,"Duration":616709,"SoundDuration":616709,"Delta":25619029},{"NoteNumber":71,"Velocity":47,"Duration":616709,"SoundDuration":616709,"Delta":25619029},{"NoteNumber":47,"Velocity":47,"Duration":616709,"SoundDuration":616709,"Delta":25619029},{"NoteNumber":71,"Velocity":58,"Duration":910009,"SoundDuration":910009,"Delta":26276852},{"NoteNumber":68,"Velocity":36,"Duration":599369,"SoundDuration":599369,"Delta":26883525},{"NoteNumber":56,"Velocity":45,"Duration":1196146,"SoundDuration":1196146,"Delta":26883525},{"NoteNumber":73,"Velocity":52,"Duration":296033,"SoundDuration":296033,"Delta":27186861},{"NoteNumber":66,"Velocity":46,"Duration":596776,"SoundDuration":596776,"Delta":27482894},{"NoteNumber":75,"Velocity":55,"Duration":298388,"SoundDuration":298388,"Delta":27482894},{"NoteNumber":71,"Velocity":50,"Duration":298388,"SoundDuration":298388,"Delta":27781283},{"NoteNumber":64,"Velocity":43,"Duration":2408861,"SoundDuration":2408861,"Delta":28079671},{"NoteNumber":75,"Velocity":57,"Duration":614187,"SoundDuration":614187,"Delta":28079671},{"NoteNumber":49,"Velocity":45,"Duration":1799724,"SoundDuration":1799724,"Delta":28079671},{"NoteNumber":73,"Velocity":55,"Duration":294811,"SoundDuration":294811,"Delta":28693859},{"NoteNumber":71,"Velocity":47,"Duration":289100,"SoundDuration":289100,"Delta":28988671},{"NoteNumber":68,"Velocity":57,"Duration":601624,"SoundDuration":601624,"Delta":29277772},{"NoteNumber":70,"Velocity":53,"Duration":609137,"SoundDuration":609137,"Delta":29879396},{"NoteNumber":54,"Velocity":54,"Duration":609137,"SoundDuration":609137,"Delta":29879396},{"NoteNumber":63,"Velocity":42,"Duration":633892,"SoundDuration":633892,"Delta":30488533},{"NoteNumber":71,"Velocity":50,"Duration":633892,"SoundDuration":633892,"Delta":30488533},{"NoteNumber":47,"Velocity":51,"Duration":633892,"SoundDuration":633892,"Delta":30488533},{"NoteNumber":59,"Velocity":57,"Duration":666001,"SoundDuration":666001,"Delta":31164827},{"NoteNumber":47,"Velocity":48,"Duration":666001,"SoundDuration":666001,"Delta":31164827},{"NoteNumber":64,"Velocity":60,"Duration":666001,"SoundDuration":666001,"Delta":31830828},{"NoteNumber":52,"Velocity":51,"Duration":666001,"SoundDuration":666001,"Delta":31830828},{"NoteNumber":64,"Velocity":57,"Duration":666000,"SoundDuration":666000,"Delta":32496829},{"NoteNumber":52,"Velocity":48,"Duration":666000,"SoundDuration":666000,"Delta":32496829},{"NoteNumber":63,"Velocity":57,"Duration":666001,"SoundDuration":666001,"Delta":33162830},{"NoteNumber":51,"Velocity":48,"Duration":666001,"SoundDuration":666001,"Delta":33162830},{"NoteNumber":61,"Velocity":57,"Duration":345661,"SoundDuration":345661,"Delta":33828831},{"NoteNumber":49,"Velocity":46,"Duration":345661,"SoundDuration":345661,"Delta":33828831},{"NoteNumber":59,"Velocity":55,"Duration":359367,"SoundDuration":359367,"Delta":34174493},{"NoteNumber":47,"Velocity":44,"Duration":359367,"SoundDuration":359367,"Delta":34174493},{"NoteNumber":61,"Velocity":53,"Duration":1382648,"SoundDuration":1382648,"Delta":34533860},{"NoteNumber":57,"Velocity":45,"Duration":1382648,"SoundDuration":1382648,"Delta":34533860},{"NoteNumber":52,"Velocity":44,"Duration":1382648,"SoundDuration":1382648,"Delta":34533860},{"NoteNumber":45,"Velocity":37,"Duration":1382648,"SoundDuration":1382648,"Delta":34533860},{"NoteNumber":56,"Velocity":44,"Duration":659920,"SoundDuration":659920,"Delta":35916508},{"NoteNumber":64,"Velocity":52,"Duration":659920,"SoundDuration":659920,"Delta":35916508},{"NoteNumber":49,"Velocity":38,"Duration":659920,"SoundDuration":659920,"Delta":35916508},{"NoteNumber":52,"Velocity":45,"Duration":659920,"SoundDuration":659920,"Delta":35916508},{"NoteNumber":61,"Velocity":47,"Duration":688073,"SoundDuration":688073,"Delta":37236350},{"NoteNumber":66,"Velocity":56,"Duration":688073,"SoundDuration":688073,"Delta":37236350},{"NoteNumber":52,"Velocity":48,"Duration":688073,"SoundDuration":688073,"Delta":37236350},{"NoteNumber":45,"Velocity":40,"Duration":688073,"SoundDuration":688073,"Delta":37236350},{"NoteNumber":66,"Velocity":54,"Duration":688072,"SoundDuration":688072,"Delta":37924423},{"NoteNumber":57,"Velocity":45,"Duration":688072,"SoundDuration":688072,"Delta":37924423},{"NoteNumber":52,"Velocity":46,"Duration":688072,"SoundDuration":688072,"Delta":37924423},{"NoteNumber":42,"Velocity":39,"Duration":688072,"SoundDuration":688072,"Delta":37924423},{"NoteNumber":59,"Velocity":44,"Duration":1456783,"SoundDuration":1456783,"Delta":38612496},{"NoteNumber":57,"Velocity":44,"Duration":1456783,"SoundDuration":1456783,"Delta":38612496},{"NoteNumber":66,"Velocity":52,"Duration":1057528,"SoundDuration":1057528,"Delta":38612496},{"NoteNumber":47,"Velocity":36,"Duration":1456783,"SoundDuration":1456783,"Delta":38612496},{"NoteNumber":52,"Velocity":43,"Duration":697254,"SoundDuration":697254,"Delta":38612496},{"NoteNumber":51,"Velocity":43,"Duration":759528,"SoundDuration":759528,"Delta":39309751},{"NoteNumber":64,"Velocity":49,"Duration":399255,"SoundDuration":399255,"Delta":39670025},{"NoteNumber":59,"Velocity":39,"Duration":1519151,"SoundDuration":1519151,"Delta":40069280},{"NoteNumber":56,"Velocity":39,"Duration":1519151,"SoundDuration":1519151,"Delta":40069280},{"NoteNumber":64,"Velocity":46,"Duration":1519151,"SoundDuration":1519151,"Delta":40069280},{"NoteNumber":40,"Velocity":33,"Duration":1519151,"SoundDuration":1519151,"Delta":40069280},{"NoteNumber":52,"Velocity":39,"Duration":1519151,"SoundDuration":1519151,"Delta":40069280},{"NoteNumber":47,"Velocity":33,"Duration":1519151,"SoundDuration":1519151,"Delta":40069280},{"NoteNumber":71,"Velocity":52,"Duration":934748,"SoundDuration":934748,"Delta":42248352},{"NoteNumber":68,"Velocity":31,"Duration":603779,"SoundDuration":603779,"Delta":42876822},{"NoteNumber":56,"Velocity":40,"Duration":1213721,"SoundDuration":1213721,"Delta":42876822},{"NoteNumber":73,"Velocity":52,"Duration":297500,"SoundDuration":297500,"Delta":43183101},{"NoteNumber":75,"Velocity":49,"Duration":597234,"SoundDuration":597234,"Delta":43480602},{"NoteNumber":66,"Velocity":41,"Duration":597234,"SoundDuration":597234,"Delta":43480602},{"NoteNumber":75,"Velocity":53,"Duration":625717,"SoundDuration":625717,"Delta":44090544},{"NoteNumber":64,"Velocity":40,"Duration":2408394,"SoundDuration":2408394,"Delta":44090544},{"NoteNumber":49,"Velocity":40,"Duration":1818190,"SoundDuration":1818190,"Delta":44090544},{"NoteNumber":71,"Velocity":45,"Duration":592534,"SoundDuration":592534,"Delta":44716261},{"NoteNumber":68,"Velocity":43,"Duration":599939,"SoundDuration":599939,"Delta":45308795},{"NoteNumber":70,"Velocity":45,"Duration":590203,"SoundDuration":590203,"Delta":45908735},{"NoteNumber":54,"Velocity":47,"Duration":590203,"SoundDuration":590203,"Delta":45908735},{"NoteNumber":63,"Velocity":39,"Duration":613079,"SoundDuration":613079,"Delta":46498938},{"NoteNumber":71,"Velocity":47,"Duration":613079,"SoundDuration":613079,"Delta":46498938},{"NoteNumber":47,"Velocity":50,"Duration":613079,"SoundDuration":613079,"Delta":46498938},{"NoteNumber":71,"Velocity":58,"Duration":914912,"SoundDuration":914912,"Delta":47152889},{"NoteNumber":68,"Velocity":36,"Duration":596488,"SoundDuration":596488,"Delta":47762831},{"NoteNumber":56,"Velocity":45,"Duration":1186671,"SoundDuration":1186671,"Delta":47762831},{"NoteNumber":73,"Velocity":52,"Duration":291516,"SoundDuration":291516,"Delta":48067802},{"NoteNumber":75,"Velocity":55,"Duration":297500,"SoundDuration":297500,"Delta":48359319},{"NoteNumber":66,"Velocity":46,"Duration":590183,"SoundDuration":590183,"Delta":48359319},{"NoteNumber":71,"Velocity":50,"Duration":292682,"SoundDuration":292682,"Delta":48656820},{"NoteNumber":64,"Velocity":43,"Duration":2357707,"SoundDuration":2357707,"Delta":48949503},{"NoteNumber":75,"Velocity":57,"Duration":597431,"SoundDuration":597431,"Delta":48949503},{"NoteNumber":49,"Velocity":45,"Duration":1760276,"SoundDuration":1760276,"Delta":48949503},{"NoteNumber":73,"Velocity":55,"Duration":291516,"SoundDuration":291516,"Delta":49546934},{"NoteNumber":71,"Velocity":50,"Duration":283554,"SoundDuration":283554,"Delta":49838451},{"NoteNumber":68,"Velocity":53,"Duration":587774,"SoundDuration":587774,"Delta":50122005},{"NoteNumber":70,"Velocity":50,"Duration":597431,"SoundDuration":597431,"Delta":50709779},{"NoteNumber":54,"Velocity":51,"Duration":597431,"SoundDuration":597431,"Delta":50709779},{"NoteNumber":63,"Velocity":40,"Duration":636024,"SoundDuration":636024,"Delta":51307210},{"NoteNumber":71,"Velocity":48,"Duration":636024,"SoundDuration":636024,"Delta":51307210},{"NoteNumber":47,"Velocity":50,"Duration":636024,"SoundDuration":636024,"Delta":51307210},{"NoteNumber":59,"Velocity":57,"Duration":666001,"SoundDuration":666001,"Delta":51985636},{"NoteNumber":47,"Velocity":48,"Duration":666001,"SoundDuration":666001,"Delta":51985636},{"NoteNumber":64,"Velocity":60,"Duration":666001,"SoundDuration":666001,"Delta":52651637},{"NoteNumber":52,"Velocity":51,"Duration":666001,"SoundDuration":666001,"Delta":52651637},{"NoteNumber":64,"Velocity":57,"Duration":666000,"SoundDuration":666000,"Delta":53317638},{"NoteNumber":52,"Velocity":48,"Duration":666000,"SoundDuration":666000,"Delta":53317638},{"NoteNumber":63,"Velocity":57,"Duration":666001,"SoundDuration":666001,"Delta":53983639},{"NoteNumber":51,"Velocity":48,"Duration":666001,"SoundDuration":666001,"Delta":53983639},{"NoteNumber":61,"Velocity":57,"Duration":345661,"SoundDuration":345661,"Delta":54649640},{"NoteNumber":49,"Velocity":46,"Duration":345661,"SoundDuration":345661,"Delta":54649640},{"NoteNumber":59,"Velocity":55,"Duration":362976,"SoundDuration":362976,"Delta":54995302},{"NoteNumber":47,"Velocity":44,"Duration":362976,"SoundDuration":362976,"Delta":54995302},{"NoteNumber":57,"Velocity":45,"Duration":1382648,"SoundDuration":1382648,"Delta":55358278},{"NoteNumber":61,"Velocity":53,"Duration":1382648,"SoundDuration":1382648,"Delta":55358278},{"NoteNumber":45,"Velocity":37,"Duration":1382648,"SoundDuration":1382648,"Delta":55358278},{"NoteNumber":52,"Velocity":44,"Duration":1382648,"SoundDuration":1382648,"Delta":55358278},{"NoteNumber":56,"Velocity":44,"Duration":659920,"SoundDuration":659920,"Delta":56740926},{"NoteNumber":64,"Velocity":52,"Duration":659920,"SoundDuration":659920,"Delta":56740926},{"NoteNumber":49,"Velocity":38,"Duration":659920,"SoundDuration":659920,"Delta":56740926},{"NoteNumber":52,"Velocity":45,"Duration":659920,"SoundDuration":659920,"Delta":56740926},{"NoteNumber":61,"Velocity":41,"Duration":704721,"SoundDuration":704721,"Delta":58060768},{"NoteNumber":66,"Velocity":49,"Duration":704721,"SoundDuration":704721,"Delta":58060768},{"NoteNumber":45,"Velocity":38,"Duration":704721,"SoundDuration":704721,"Delta":58060768},{"NoteNumber":52,"Velocity":45,"Duration":704721,"SoundDuration":704721,"Delta":58060768},{"NoteNumber":66,"Velocity":47,"Duration":718735,"SoundDuration":718735,"Delta":58765490},{"NoteNumber":57,"Velocity":39,"Duration":718735,"SoundDuration":718735,"Delta":58765490},{"NoteNumber":52,"Velocity":41,"Duration":718735,"SoundDuration":718735,"Delta":58765490},{"NoteNumber":42,"Velocity":34,"Duration":718735,"SoundDuration":718735,"Delta":58765490},{"NoteNumber":59,"Velocity":33,"Duration":1570610,"SoundDuration":1570610,"Delta":59484225},{"NoteNumber":57,"Velocity":33,"Duration":1570610,"SoundDuration":1570610,"Delta":59484225},{"NoteNumber":66,"Velocity":39,"Duration":1139115,"SoundDuration":1139115,"Delta":59484225},{"NoteNumber":47,"Velocity":31,"Duration":1570610,"SoundDuration":1570610,"Delta":59484225},{"NoteNumber":52,"Velocity":37,"Duration":741267,"SoundDuration":741267,"Delta":59484225},{"NoteNumber":51,"Velocity":34,"Duration":829342,"SoundDuration":829342,"Delta":60225493},{"NoteNumber":64,"Velocity":37,"Duration":431495,"SoundDuration":431495,"Delta":60623341},{"NoteNumber":64,"Velocity":33,"Duration":1826762,"SoundDuration":1826762,"Delta":61054836},{"NoteNumber":59,"Velocity":28,"Duration":1826762,"SoundDuration":1826762,"Delta":61054836},{"NoteNumber":56,"Velocity":28,"Duration":1826762,"SoundDuration":1826762,"Delta":61054836},{"NoteNumber":47,"Velocity":23,"Duration":1826762,"SoundDuration":1826762,"Delta":61054836},{"NoteNumber":40,"Velocity":23,"Duration":1826762,"SoundDuration":1826762,"Delta":61054836},{"NoteNumber":52,"Velocity":28,"Duration":1826762,"SoundDuration":1826762,"Delta":61054836},{"NoteNumber":40,"Velocity":28,"Duration":1729106,"SoundDuration":1729106,"Delta":64708360},{"NoteNumber":47,"Velocity":21,"Duration":97262,"SoundDuration":97262,"Delta":66005189},{"NoteNumber":52,"Velocity":22,"Duration":91858,"SoundDuration":91858,"Delta":66070031},{"NoteNumber":55,"Velocity":24,"Duration":91858,"SoundDuration":91858,"Delta":66131270},{"NoteNumber":59,"Velocity":24,"Duration":91858,"SoundDuration":91858,"Delta":66192509},{"NoteNumber":55,"Velocity":24,"Duration":91858,"SoundDuration":91858,"Delta":66253748},{"NoteNumber":52,"Velocity":23,"Duration":91858,"SoundDuration":91858,"Delta":66314987},{"NoteNumber":47,"Velocity":22,"Duration":91858,"SoundDuration":91858,"Delta":66376227},{"NoteNumber":40,"Velocity":34,"Duration":1729106,"SoundDuration":1729106,"Delta":66437466},{"NoteNumber":47,"Velocity":22,"Duration":97262,"SoundDuration":97262,"Delta":67734295},{"NoteNumber":52,"Velocity":26,"Duration":91858,"SoundDuration":91858,"Delta":67799137},{"NoteNumber":55,"Velocity":28,"Duration":91858,"SoundDuration":91858,"Delta":67860376},{"NoteNumber":59,"Velocity":29,"Duration":91858,"SoundDuration":91858,"Delta":67921615},{"NoteNumber":55,"Velocity":28,"Duration":91858,"SoundDuration":91858,"Delta":67982854},{"NoteNumber":52,"Velocity":26,"Duration":91858,"SoundDuration":91858,"Delta":68044093},{"NoteNumber":47,"Velocity":24,"Duration":61239,"SoundDuration":61239,"Delta":68105333},{"NoteNumber":40,"Velocity":38,"Duration":2369743,"SoundDuration":2369743,"Delta":68166572},{"NoteNumber":59,"Velocity":31,"Duration":317326,"SoundDuration":317326,"Delta":70218989},{"NoteNumber":64,"Velocity":31,"Duration":317326,"SoundDuration":317326,"Delta":70218989},{"NoteNumber":67,"Velocity":37,"Duration":317326,"SoundDuration":317326,"Delta":70218989},{"NoteNumber":64,"Velocity":33,"Duration":311558,"SoundDuration":311558,"Delta":70536315},{"NoteNumber":67,"Velocity":33,"Duration":311558,"SoundDuration":311558,"Delta":70536315},{"NoteNumber":71,"Velocity":39,"Duration":311558,"SoundDuration":311558,"Delta":70536315},{"NoteNumber":67,"Velocity":35,"Duration":306005,"SoundDuration":306005,"Delta":70847874},{"NoteNumber":71,"Velocity":35,"Duration":306005,"SoundDuration":306005,"Delta":70847874},{"NoteNumber":76,"Velocity":42,"Duration":306005,"SoundDuration":306005,"Delta":70847874},{"NoteNumber":67,"Velocity":38,"Duration":911854,"SoundDuration":911854,"Delta":71153879},{"NoteNumber":71,"Velocity":38,"Duration":911854,"SoundDuration":911854,"Delta":71153879},{"NoteNumber":76,"Velocity":45,"Duration":911854,"SoundDuration":911854,"Delta":71153879},{"NoteNumber":64,"Velocity":37,"Duration":303951,"SoundDuration":303951,"Delta":72065734},{"NoteNumber":67,"Velocity":37,"Duration":303951,"SoundDuration":303951,"Delta":72065734},{"NoteNumber":71,"Velocity":44,"Duration":303951,"SoundDuration":303951,"Delta":72065734},{"NoteNumber":59,"Velocity":42,"Duration":607903,"SoundDuration":607903,"Delta":72369685},{"NoteNumber":64,"Velocity":42,"Duration":607903,"SoundDuration":607903,"Delta":72369685},{"NoteNumber":67,"Velocity":51,"Duration":607903,"SoundDuration":607903,"Delta":72369685},{"NoteNumber":64,"Velocity":51,"Duration":636200,"SoundDuration":636200,"Delta":72977588},{"NoteNumber":67,"Velocity":51,"Duration":636200,"SoundDuration":636200,"Delta":72977588},{"NoteNumber":71,"Velocity":60,"Duration":636200,"SoundDuration":636200,"Delta":72977588},{"NoteNumber":62,"Velocity":60,"Duration":2472157,"SoundDuration":2472157,"Delta":73613788},{"NoteNumber":66,"Velocity":60,"Duration":2472157,"SoundDuration":2472157,"Delta":73613788},{"NoteNumber":69,"Velocity":60,"Duration":2472157,"SoundDuration":2472157,"Delta":73613788},{"NoteNumber":74,"Velocity":70,"Duration":2472157,"SoundDuration":2472157,"Delta":73613788},{"NoteNumber":41,"Velocity":28,"Duration":1717476,"SoundDuration":1717476,"Delta":76111968},{"NoteNumber":48,"Velocity":23,"Duration":123443,"SoundDuration":123443,"Delta":77400075},{"NoteNumber":53,"Velocity":23,"Duration":118076,"SoundDuration":118076,"Delta":77464481},{"NoteNumber":57,"Velocity":24,"Duration":118076,"SoundDuration":118076,"Delta":77525308},{"NoteNumber":60,"Velocity":25,"Duration":118076,"SoundDuration":118076,"Delta":77586135},{"NoteNumber":57,"Velocity":28,"Duration":118076,"SoundDuration":118076,"Delta":77646962},{"NoteNumber":53,"Velocity":26,"Duration":118076,"SoundDuration":118076,"Delta":77707790},{"NoteNumber":48,"Velocity":26,"Duration":118076,"SoundDuration":118076,"Delta":77768617},{"NoteNumber":41,"Velocity":32,"Duration":1752503,"SoundDuration":1752503,"Delta":77829444},{"NoteNumber":48,"Velocity":22,"Duration":133513,"SoundDuration":133513,"Delta":79117551},{"NoteNumber":53,"Velocity":23,"Duration":127709,"SoundDuration":127709,"Delta":79187211},{"NoteNumber":57,"Velocity":24,"Duration":127709,"SoundDuration":127709,"Delta":79253000},{"NoteNumber":60,"Velocity":24,"Duration":127709,"SoundDuration":127709,"Delta":79318790},{"NoteNumber":57,"Velocity":26,"Duration":127709,"SoundDuration":127709,"Delta":79384579},{"NoteNumber":53,"Velocity":26,"Duration":127709,"SoundDuration":127709,"Delta":79450369},{"NoteNumber":48,"Velocity":26,"Duration":83679,"SoundDuration":83679,"Delta":79516158},{"NoteNumber":41,"Velocity":32,"Duration":2347003,"SoundDuration":2347003,"Delta":79581948},{"NoteNumber":60,"Velocity":38,"Duration":313561,"SoundDuration":313561,"Delta":81615390},{"NoteNumber":65,"Velocity":38,"Duration":313561,"SoundDuration":313561,"Delta":81615390},{"NoteNumber":69,"Velocity":45,"Duration":313561,"SoundDuration":313561,"Delta":81615390},{"NoteNumber":65,"Velocity":46,"Duration":311205,"SoundDuration":311205,"Delta":81928951},{"NoteNumber":69,"Velocity":46,"Duration":311205,"SoundDuration":311205,"Delta":81928951},{"NoteNumber":72,"Velocity":55,"Duration":311205,"SoundDuration":311205,"Delta":81928951},{"NoteNumber":69,"Velocity":54,"Duration":308739,"SoundDuration":308739,"Delta":82240157},{"NoteNumber":72,"Velocity":54,"Duration":308739,"SoundDuration":308739,"Delta":82240157},{"NoteNumber":77,"Velocity":65,"Duration":308739,"SoundDuration":308739,"Delta":82240157},{"NoteNumber":69,"Velocity":65,"Duration":920151,"SoundDuration":920151,"Delta":82548896},{"NoteNumber":72,"Velocity":65,"Duration":920151,"SoundDuration":920151,"Delta":82548896},{"NoteNumber":77,"Velocity":77,"Duration":920151,"SoundDuration":920151,"Delta":82548896},{"NoteNumber":65,"Velocity":51,"Duration":306716,"SoundDuration":306716,"Delta":83469047},{"NoteNumber":69,"Velocity":51,"Duration":306716,"SoundDuration":306716,"Delta":83469047},{"NoteNumber":72,"Velocity":60,"Duration":306716,"SoundDuration":306716,"Delta":83469047},{"NoteNumber":60,"Velocity":45,"Duration":613433,"SoundDuration":613433,"Delta":83775764},{"NoteNumber":65,"Velocity":45,"Duration":613433,"SoundDuration":613433,"Delta":83775764},{"NoteNumber":69,"Velocity":54,"Duration":613433,"SoundDuration":613433,"Delta":83775764},{"NoteNumber":69,"Velocity":39,"Duration":657606,"SoundDuration":657606,"Delta":84389198},{"NoteNumber":72,"Velocity":46,"Duration":657606,"SoundDuration":657606,"Delta":84389198},{"NoteNumber":64,"Velocity":39,"Duration":657606,"SoundDuration":657606,"Delta":84389198},{"NoteNumber":57,"Velocity":46,"Duration":657606,"SoundDuration":657606,"Delta":84389198},{"NoteNumber":63,"Velocity":37,"Duration":2472157,"SoundDuration":2472157,"Delta":85046804},{"NoteNumber":71,"Velocity":44,"Duration":2472157,"SoundDuration":2472157,"Delta":85046804},{"NoteNumber":66,"Velocity":37,"Duration":2472157,"SoundDuration":2472157,"Delta":85046804},{"NoteNumber":59,"Velocity":37,"Duration":2472157,"SoundDuration":2472157,"Delta":85046804},{"NoteNumber":40,"Velocity":28,"Duration":1717476,"SoundDuration":1717476,"Delta":87544984},{"NoteNumber":47,"Velocity":22,"Duration":123443,"SoundDuration":123443,"Delta":88833091},{"NoteNumber":52,"Velocity":22,"Duration":118076,"SoundDuration":118076,"Delta":88897496},{"NoteNumber":55,"Velocity":23,"Duration":118076,"SoundDuration":118076,"Delta":88958324},{"NoteNumber":59,"Velocity":23,"Duration":118076,"SoundDuration":118076,"Delta":89019151},{"NoteNumber":55,"Velocity":22,"Duration":118076,"SoundDuration":118076,"Delta":89079978},{"NoteNumber":52,"Velocity":22,"Duration":118076,"SoundDuration":118076,"Delta":89140805},{"NoteNumber":47,"Velocity":21,"Duration":118076,"SoundDuration":118076,"Delta":89201633},{"NoteNumber":40,"Velocity":27,"Duration":1717475,"SoundDuration":1717475,"Delta":89262460},{"NoteNumber":47,"Velocity":20,"Duration":123443,"SoundDuration":123443,"Delta":90550567},{"NoteNumber":52,"Velocity":22,"Duration":118076,"SoundDuration":118076,"Delta":90614972},{"NoteNumber":55,"Velocity":24,"Duration":118076,"SoundDuration":118076,"Delta":90675800},{"NoteNumber":59,"Velocity":26,"Duration":118076,"SoundDuration":118076,"Delta":90736627},{"NoteNumber":55,"Velocity":24,"Duration":118076,"SoundDuration":118076,"Delta":90797454},{"NoteNumber":52,"Velocity":22,"Duration":118076,"SoundDuration":118076,"Delta":90858281},{"NoteNumber":47,"Velocity":20,"Duration":118076,"SoundDuration":118076,"Delta":90919109},{"NoteNumber":40,"Velocity":32,"Duration":2365617,"SoundDuration":2365617,"Delta":90979936},{"NoteNumber":59,"Velocity":29,"Duration":312500,"SoundDuration":312500,"Delta":93033052},{"NoteNumber":64,"Velocity":29,"Duration":312500,"SoundDuration":312500,"Delta":93033052},{"NoteNumber":67,"Velocity":35,"Duration":312500,"SoundDuration":312500,"Delta":93033052},{"NoteNumber":64,"Velocity":33,"Duration":307604,"SoundDuration":307604,"Delta":93345553},{"NoteNumber":67,"Velocity":33,"Duration":307604,"SoundDuration":307604,"Delta":93345553},{"NoteNumber":71,"Velocity":39,"Duration":307604,"SoundDuration":307604,"Delta":93345553},{"NoteNumber":67,"Velocity":36,"Duration":303074,"SoundDuration":303074,"Delta":93653157},{"NoteNumber":71,"Velocity":36,"Duration":303074,"SoundDuration":303074,"Delta":93653157},{"NoteNumber":76,"Velocity":43,"Duration":303074,"SoundDuration":303074,"Delta":93653157},{"NoteNumber":67,"Velocity":39,"Duration":900000,"SoundDuration":900000,"Delta":93956232},{"NoteNumber":71,"Velocity":39,"Duration":900000,"SoundDuration":900000,"Delta":93956232},{"NoteNumber":76,"Velocity":46,"Duration":900000,"SoundDuration":900000,"Delta":93956232},{"NoteNumber":64,"Velocity":39,"Duration":299999,"SoundDuration":299999,"Delta":94856232},{"NoteNumber":67,"Velocity":39,"Duration":299999,"SoundDuration":299999,"Delta":94856232},{"NoteNumber":71,"Velocity":46,"Duration":299999,"SoundDuration":299999,"Delta":94856232},{"NoteNumber":59,"Velocity":44,"Duration":599999,"SoundDuration":599999,"Delta":95156232},{"NoteNumber":64,"Velocity":44,"Duration":599999,"SoundDuration":599999,"Delta":95156232},{"NoteNumber":67,"Velocity":52,"Duration":599999,"SoundDuration":599999,"Delta":95156232},{"NoteNumber":64,"Velocity":52,"Duration":621696,"SoundDuration":621696,"Delta":95756232},{"NoteNumber":67,"Velocity":52,"Duration":621696,"SoundDuration":621696,"Delta":95756232},{"NoteNumber":71,"Velocity":63,"Duration":621696,"SoundDuration":621696,"Delta":95756232},{"NoteNumber":62,"Velocity":62,"Duration":2460883,"SoundDuration":2460883,"Delta":96377929},{"NoteNumber":66,"Velocity":62,"Duration":2460883,"SoundDuration":2460883,"Delta":96377929},{"NoteNumber":69,"Velocity":62,"Duration":2460883,"SoundDuration":2460883,"Delta":96377929},{"NoteNumber":74,"Velocity":73,"Duration":2460883,"SoundDuration":2460883,"Delta":96377929},{"NoteNumber":41,"Velocity":28,"Duration":1717476,"SoundDuration":1717476,"Delta":98864717},{"NoteNumber":48,"Velocity":25,"Duration":123443,"SoundDuration":123443,"Delta":100152824},{"NoteNumber":53,"Velocity":25,"Duration":118076,"SoundDuration":118076,"Delta":100217229},{"NoteNumber":57,"Velocity":26,"Duration":118076,"SoundDuration":118076,"Delta":100278057},{"NoteNumber":60,"Velocity":28,"Duration":118076,"SoundDuration":118076,"Delta":100338884},{"NoteNumber":57,"Velocity":28,"Duration":118076,"SoundDuration":118076,"Delta":100399711},{"NoteNumber":53,"Velocity":28,"Duration":118076,"SoundDuration":118076,"Delta":100460538},{"NoteNumber":48,"Velocity":26,"Duration":118076,"SoundDuration":118076,"Delta":100521366},{"NoteNumber":41,"Velocity":32,"Duration":1786131,"SoundDuration":1786131,"Delta":100582193},{"NoteNumber":48,"Velocity":24,"Duration":134408,"SoundDuration":134408,"Delta":101870300},{"NoteNumber":53,"Velocity":24,"Duration":128564,"SoundDuration":128564,"Delta":101940426},{"NoteNumber":57,"Velocity":25,"Duration":132633,"SoundDuration":132633,"Delta":102006657},{"NoteNumber":60,"Velocity":26,"Duration":141279,"SoundDuration":141279,"Delta":102072887},{"NoteNumber":57,"Velocity":28,"Duration":145348,"SoundDuration":145348,"Delta":102143695},{"NoteNumber":53,"Velocity":28,"Duration":145348,"SoundDuration":145348,"Delta":102218571},{"NoteNumber":48,"Velocity":28,"Duration":132125,"SoundDuration":132125,"Delta":102293448},{"NoteNumber":41,"Velocity":39,"Duration":2349205,"SoundDuration":2349205,"Delta":102368325},{"NoteNumber":60,"Velocity":33,"Duration":314384,"SoundDuration":314384,"Delta":104403145},{"NoteNumber":65,"Velocity":33,"Duration":314384,"SoundDuration":314384,"Delta":104403145},{"NoteNumber":69,"Velocity":39,"Duration":314384,"SoundDuration":314384,"Delta":104403145},{"NoteNumber":65,"Velocity":42,"Duration":311560,"SoundDuration":311560,"Delta":104717530},{"NoteNumber":69,"Velocity":42,"Duration":311560,"SoundDuration":311560,"Delta":104717530},{"NoteNumber":72,"Velocity":50,"Duration":311560,"SoundDuration":311560,"Delta":104717530},{"NoteNumber":69,"Velocity":53,"Duration":308739,"SoundDuration":308739,"Delta":105029091},{"NoteNumber":72,"Velocity":53,"Duration":308739,"SoundDuration":308739,"Delta":105029091},{"NoteNumber":77,"Velocity":63,"Duration":308739,"SoundDuration":308739,"Delta":105029091},{"NoteNumber":69,"Velocity":63,"Duration":920151,"SoundDuration":920151,"Delta":105337830},{"NoteNumber":72,"Velocity":63,"Duration":920151,"SoundDuration":920151,"Delta":105337830},{"NoteNumber":77,"Velocity":75,"Duration":920151,"SoundDuration":920151,"Delta":105337830},{"NoteNumber":69,"Velocity":51,"Duration":306716,"SoundDuration":306716,"Delta":106257981},{"NoteNumber":72,"Velocity":61,"Duration":306716,"SoundDuration":306716,"Delta":106257981},{"NoteNumber":65,"Velocity":51,"Duration":306716,"SoundDuration":306716,"Delta":106257981},{"NoteNumber":60,"Velocity":48,"Duration":627352,"SoundDuration":627352,"Delta":106564698},{"NoteNumber":65,"Velocity":48,"Duration":627352,"SoundDuration":627352,"Delta":106564698},{"NoteNumber":69,"Velocity":57,"Duration":627352,"SoundDuration":627352,"Delta":106564698},{"NoteNumber":69,"Velocity":38,"Duration":708132,"SoundDuration":708132,"Delta":107192051},{"NoteNumber":72,"Velocity":45,"Duration":708132,"SoundDuration":708132,"Delta":107192051},{"NoteNumber":64,"Velocity":38,"Duration":708132,"SoundDuration":708132,"Delta":107192051},{"NoteNumber":57,"Velocity":37,"Duration":708132,"SoundDuration":708132,"Delta":107192051},{"NoteNumber":63,"Velocity":32,"Duration":1231402,"SoundDuration":1231402,"Delta":107900183},{"NoteNumber":66,"Velocity":32,"Duration":1231402,"SoundDuration":1231402,"Delta":107900183},{"NoteNumber":71,"Velocity":38,"Duration":1231402,"SoundDuration":1231402,"Delta":107900183},{"NoteNumber":59,"Velocity":31,"Duration":1231402,"SoundDuration":1231402,"Delta":107900183},{"NoteNumber":71,"Velocity":52,"Duration":936145,"SoundDuration":936145,"Delta":109791506},{"NoteNumber":68,"Velocity":31,"Duration":611207,"SoundDuration":611207,"Delta":110415248},{"NoteNumber":56,"Velocity":40,"Duration":1218679,"SoundDuration":1218679,"Delta":110415248},{"NoteNumber":73,"Velocity":52,"Duration":298805,"SoundDuration":298805,"Delta":110727651},{"NoteNumber":75,"Velocity":49,"Duration":607472,"SoundDuration":607472,"Delta":111026456},{"NoteNumber":66,"Velocity":41,"Duration":607472,"SoundDuration":607472,"Delta":111026456},{"NoteNumber":64,"Velocity":40,"Duration":2416966,"SoundDuration":2416966,"Delta":111633928},{"NoteNumber":75,"Velocity":53,"Duration":624804,"SoundDuration":624804,"Delta":111633928},{"NoteNumber":49,"Velocity":40,"Duration":1827691,"SoundDuration":1827691,"Delta":111633928},{"NoteNumber":71,"Velocity":51,"Duration":601443,"SoundDuration":601443,"Delta":112258733},{"NoteNumber":68,"Velocity":51,"Duration":601443,"SoundDuration":601443,"Delta":112860176},{"NoteNumber":70,"Velocity":50,"Duration":589275,"SoundDuration":589275,"Delta":113461619},{"NoteNumber":54,"Velocity":47,"Duration":589275,"SoundDuration":589275,"Delta":113461619},{"NoteNumber":63,"Velocity":41,"Duration":606730,"SoundDuration":606730,"Delta":114050894},{"NoteNumber":71,"Velocity":49,"Duration":606730,"SoundDuration":606730,"Delta":114050894},{"NoteNumber":47,"Velocity":50,"Duration":606730,"SoundDuration":606730,"Delta":114050894},{"NoteNumber":71,"Velocity":58,"Duration":917431,"SoundDuration":917431,"Delta":114698073},{"NoteNumber":68,"Velocity":36,"Duration":604110,"SoundDuration":604110,"Delta":115309694},{"NoteNumber":56,"Velocity":45,"Duration":1200709,"SoundDuration":1200709,"Delta":115309694},{"NoteNumber":73,"Velocity":52,"Duration":298299,"SoundDuration":298299,"Delta":115615504},{"NoteNumber":66,"Velocity":46,"Duration":596598,"SoundDuration":596598,"Delta":115913804},{"NoteNumber":75,"Velocity":55,"Duration":298299,"SoundDuration":298299,"Delta":115913804},{"NoteNumber":71,"Velocity":50,"Duration":298299,"SoundDuration":298299,"Delta":116212103},{"NoteNumber":75,"Velocity":57,"Duration":609075,"SoundDuration":609075,"Delta":116510403},{"NoteNumber":64,"Velocity":43,"Duration":2399530,"SoundDuration":2399530,"Delta":116510403},{"NoteNumber":49,"Velocity":43,"Duration":1797120,"SoundDuration":1797120,"Delta":116510403},{"NoteNumber":73,"Velocity":51,"Duration":295217,"SoundDuration":295217,"Delta":117119478},{"NoteNumber":71,"Velocity":51,"Duration":295217,"SoundDuration":295217,"Delta":117414695},{"NoteNumber":68,"Velocity":55,"Duration":597610,"SoundDuration":597610,"Delta":117709913},{"NoteNumber":70,"Velocity":51,"Duration":602410,"SoundDuration":602410,"Delta":118307523},{"NoteNumber":54,"Velocity":49,"Duration":602410,"SoundDuration":602410,"Delta":118307523},{"NoteNumber":71,"Velocity":49,"Duration":634784,"SoundDuration":634784,"Delta":118909933},{"NoteNumber":63,"Velocity":41,"Duration":634784,"SoundDuration":634784,"Delta":118909933},{"NoteNumber":47,"Velocity":47,"Duration":634784,"SoundDuration":634784,"Delta":118909933},{"NoteNumber":59,"Velocity":62,"Duration":666000,"SoundDuration":666000,"Delta":119587119},{"NoteNumber":47,"Velocity":52,"Duration":666000,"SoundDuration":666000,"Delta":119587119},{"NoteNumber":64,"Velocity":66,"Duration":666001,"SoundDuration":666001,"Delta":120253120},{"NoteNumber":52,"Velocity":56,"Duration":666001,"SoundDuration":666001,"Delta":120253120},{"NoteNumber":64,"Velocity":63,"Duration":666000,"SoundDuration":666000,"Delta":120919121},{"NoteNumber":52,"Velocity":54,"Duration":666000,"SoundDuration":666000,"Delta":120919121},{"NoteNumber":63,"Velocity":62,"Duration":666001,"SoundDuration":666001,"Delta":121585122},{"NoteNumber":51,"Velocity":52,"Duration":666001,"SoundDuration":666001,"Delta":121585122},{"NoteNumber":61,"Velocity":62,"Duration":339213,"SoundDuration":339213,"Delta":122251123},{"NoteNumber":49,"Velocity":51,"Duration":339213,"SoundDuration":339213,"Delta":122251123},{"NoteNumber":59,"Velocity":56,"Duration":339213,"SoundDuration":339213,"Delta":122590336},{"NoteNumber":47,"Velocity":46,"Duration":339213,"SoundDuration":339213,"Delta":122590336},{"NoteNumber":61,"Velocity":58,"Duration":1382648,"SoundDuration":1382648,"Delta":122929549},{"NoteNumber":57,"Velocity":49,"Duration":1382648,"SoundDuration":1382648,"Delta":122929549},{"NoteNumber":52,"Velocity":48,"Duration":1382648,"SoundDuration":1382648,"Delta":122929549},{"NoteNumber":45,"Velocity":40,"Duration":1382648,"SoundDuration":1382648,"Delta":122929549},{"NoteNumber":64,"Velocity":57,"Duration":659920,"SoundDuration":659920,"Delta":124312197},{"NoteNumber":56,"Velocity":48,"Duration":659920,"SoundDuration":659920,"Delta":124312197},{"NoteNumber":49,"Velocity":41,"Duration":659920,"SoundDuration":659920,"Delta":124312197},{"NoteNumber":52,"Velocity":49,"Duration":659920,"SoundDuration":659920,"Delta":124312197},{"NoteNumber":61,"Velocity":50,"Duration":642049,"SoundDuration":642049,"Delta":125632039},{"NoteNumber":66,"Velocity":59,"Duration":642049,"SoundDuration":642049,"Delta":125632039},{"NoteNumber":45,"Velocity":40,"Duration":642049,"SoundDuration":642049,"Delta":125632039},{"NoteNumber":52,"Velocity":48,"Duration":642049,"SoundDuration":642049,"Delta":125632039},{"NoteNumber":61,"Velocity":48,"Duration":642049,"SoundDuration":642049,"Delta":126316892},{"NoteNumber":66,"Velocity":57,"Duration":642049,"SoundDuration":642049,"Delta":126316892},{"NoteNumber":45,"Velocity":39,"Duration":642049,"SoundDuration":642049,"Delta":126316892},{"NoteNumber":52,"Velocity":46,"Duration":642049,"SoundDuration":642049,"Delta":126316892},{"NoteNumber":61,"Velocity":45,"Duration":643451,"SoundDuration":643451,"Delta":127001745},{"NoteNumber":69,"Velocity":53,"Duration":643451,"SoundDuration":643451,"Delta":127001745},{"NoteNumber":42,"Velocity":39,"Duration":643451,"SoundDuration":643451,"Delta":127001745},{"NoteNumber":52,"Velocity":46,"Duration":643451,"SoundDuration":643451,"Delta":127001745},{"NoteNumber":61,"Velocity":45,"Duration":752206,"SoundDuration":752206,"Delta":127692207},{"NoteNumber":69,"Velocity":53,"Duration":752206,"SoundDuration":752206,"Delta":127692207},{"NoteNumber":42,"Velocity":39,"Duration":752206,"SoundDuration":752206,"Delta":127692207},{"NoteNumber":52,"Velocity":46,"Duration":752206,"SoundDuration":752206,"Delta":127692207},{"NoteNumber":68,"Velocity":49,"Duration":1938517,"SoundDuration":1938517,"Delta":128494561},{"NoteNumber":60,"Velocity":41,"Duration":1938517,"SoundDuration":1938517,"Delta":128494561},{"NoteNumber":44,"Velocity":34,"Duration":1938517,"SoundDuration":1938517,"Delta":128494561},{"NoteNumber":51,"Velocity":40,"Duration":1938517,"SoundDuration":1938517,"Delta":128494561},{"NoteNumber":68,"Velocity":64,"Duration":653951,"SoundDuration":653951,"Delta":130474324},{"NoteNumber":56,"Velocity":66,"Duration":653951,"SoundDuration":653951,"Delta":130474324},{"NoteNumber":73,"Velocity":71,"Duration":653951,"SoundDuration":653951,"Delta":131128275},{"NoteNumber":61,"Velocity":66,"Duration":653951,"SoundDuration":653951,"Delta":131128275},{"NoteNumber":73,"Velocity":67,"Duration":653950,"SoundDuration":653950,"Delta":131782226},{"NoteNumber":61,"Velocity":62,"Duration":653950,"SoundDuration":653950,"Delta":131782226},{"NoteNumber":71,"Velocity":69,"Duration":653951,"SoundDuration":653951,"Delta":132436177},{"NoteNumber":59,"Velocity":64,"Duration":653951,"SoundDuration":653951,"Delta":132436177},{"NoteNumber":69,"Velocity":69,"Duration":334522,"SoundDuration":334522,"Delta":133090128},{"NoteNumber":57,"Velocity":65,"Duration":334522,"SoundDuration":334522,"Delta":133090128},{"NoteNumber":68,"Velocity":65,"Duration":334522,"SoundDuration":334522,"Delta":133424650},{"NoteNumber":56,"Velocity":61,"Duration":334522,"SoundDuration":334522,"Delta":133424650},{"NoteNumber":61,"Velocity":58,"Duration":678426,"SoundDuration":678426,"Delta":133759173},{"NoteNumber":69,"Velocity":69,"Duration":1356852,"SoundDuration":1356852,"Delta":133759173},{"NoteNumber":57,"Velocity":58,"Duration":678426,"SoundDuration":678426,"Delta":133759173},{"NoteNumber":63,"Velocity":57,"Duration":678426,"SoundDuration":678426,"Delta":134437599},{"NoteNumber":54,"Velocity":56,"Duration":678426,"SoundDuration":678426,"Delta":134437599},{"NoteNumber":64,"Velocity":56,"Duration":678426,"SoundDuration":678426,"Delta":135116025},{"NoteNumber":68,"Velocity":66,"Duration":1400247,"SoundDuration":1400247,"Delta":135116025},{"NoteNumber":49,"Velocity":54,"Duration":678426,"SoundDuration":678426,"Delta":135116025},{"NoteNumber":60,"Velocity":51,"Duration":721821,"SoundDuration":721821,"Delta":135794451},{"NoteNumber":44,"Velocity":51,"Duration":721821,"SoundDuration":721821,"Delta":135794451},{"NoteNumber":61,"Velocity":47,"Duration":754811,"SoundDuration":754811,"Delta":136516273},{"NoteNumber":66,"Velocity":56,"Duration":754811,"SoundDuration":754811,"Delta":136516273},{"NoteNumber":45,"Velocity":39,"Duration":754811,"SoundDuration":754811,"Delta":136516273},{"NoteNumber":52,"Velocity":46,"Duration":754811,"SoundDuration":754811,"Delta":136516273},{"NoteNumber":57,"Velocity":45,"Duration":757629,"SoundDuration":757629,"Delta":137271085},{"NoteNumber":66,"Velocity":54,"Duration":757629,"SoundDuration":757629,"Delta":137271085},{"NoteNumber":42,"Velocity":37,"Duration":757629,"SoundDuration":757629,"Delta":137271085},{"NoteNumber":52,"Velocity":44,"Duration":757629,"SoundDuration":757629,"Delta":137271085},{"NoteNumber":57,"Velocity":41,"Duration":1954824,"SoundDuration":1954824,"Delta":138028714},{"NoteNumber":59,"Velocity":41,"Duration":1954824,"SoundDuration":1954824,"Delta":138028714},{"NoteNumber":66,"Velocity":49,"Duration":1336140,"SoundDuration":1336140,"Delta":138028714},{"NoteNumber":52,"Velocity":40,"Duration":845417,"SoundDuration":845417,"Delta":138028714},{"NoteNumber":47,"Velocity":34,"Duration":1954824,"SoundDuration":1954824,"Delta":138028714},{"NoteNumber":51,"Velocity":31,"Duration":1109406,"SoundDuration":1109406,"Delta":138874132},{"NoteNumber":64,"Velocity":36,"Duration":618684,"SoundDuration":618684,"Delta":139364854},{"NoteNumber":56,"Velocity":23,"Duration":3967595,"SoundDuration":3967595,"Delta":139983539},{"NoteNumber":59,"Velocity":23,"Duration":3967595,"SoundDuration":3967595,"Delta":139983539},{"NoteNumber":64,"Velocity":27,"Duration":3967595,"SoundDuration":3967595,"Delta":139983539},{"NoteNumber":47,"Velocity":20,"Duration":3967595,"SoundDuration":3967595,"Delta":139983539},{"NoteNumber":40,"Velocity":20,"Duration":3967595,"SoundDuration":3967595,"Delta":139983539},{"NoteNumber":52,"Velocity":24,"Duration":3967595,"SoundDuration":3967595,"Delta":139983539}],"license":{"name":"Creative Commons Attribution-ShareAlike 3.0 Germany","url":"http://creativecommons.org/licenses/by-sa/3.0/de/deed.en","text":"The MIDI, audio (MP3, OGG) and video files of Bernd Krueger are licensed under the cc-by-sa Germany License. This means that you can use and adapt the files, as long as you attribute the copyright holder.\n\nName: Bernd Krueger\nSource: http://www.piano-midi.de\n\nThe distribution or public playback of the files is only allowed under identical license conditions.\n\nThe scores are open source.","attribution":"MIDI files by Bernd Krueger (piano-midi.de)","attributionUrl":"http://www.piano-midi.de"}}