{"title":"Zug der Zwerge Op 54, No. 3","artist":"Grieg","durationMs":152970,"midiSha256":"ed4083cb01a7fe1af60c3c4e38807f3e78de6826dc98c08de09ff8f93da4d9e5","midiObject":[{"NoteNumber":38,"Velocity":32,"Duration":92592,"SoundDuration":92592,"Delta":0},{"NoteNumber":45,"Velocity":31,"Duration":92592,"SoundDuration":92592,"Delta":184414},{"NoteNumber":38,"Velocity":32,"Duration":92592,"SoundDuration":92592,"Delta":369599},{"NoteNumber":45,"Velocity":31,"Duration":92592,"SoundDuration":92592,"Delta":554784},{"NoteNumber":38,"Velocity":32,"Duration":91463,"SoundDuration":91463,"Delta":739969},{"NoteNumber":45,"Velocity":31,"Duration":91463,"SoundDuration":91463,"Delta":922896},{"NoteNumber":38,"Velocity":32,"Duration":91463,"SoundDuration":91463,"Delta":1105823},{"NoteNumber":62,"Velocity":36,"Duration":44510,"SoundDuration":44510,"Delta":1288342},{"NoteNumber":45,"Velocity":31,"Duration":89020,"SoundDuration":89020,"Delta":1288342},{"NoteNumber":64,"Velocity":36,"Duration":44510,"SoundDuration":44510,"Delta":1332853},{"NoteNumber":65,"Velocity":36,"Duration":44510,"SoundDuration":44510,"Delta":1377363},{"NoteNumber":67,"Velocity":36,"Duration":44510,"SoundDuration":44510,"Delta":1421874},{"NoteNumber":69,"Velocity":38,"Duration":91742,"SoundDuration":91742,"Delta":1466384},{"NoteNumber":38,"Velocity":32,"Duration":91742,"SoundDuration":91742,"Delta":1466384},{"NoteNumber":74,"Velocity":34,"Duration":90908,"SoundDuration":90908,"Delta":1649870},{"NoteNumber":62,"Velocity":34,"Duration":90908,"SoundDuration":90908,"Delta":1649870},{"NoteNumber":65,"Velocity":34,"Duration":90908,"SoundDuration":90908,"Delta":1649870},{"NoteNumber":45,"Velocity":31,"Duration":90908,"SoundDuration":90908,"Delta":1649870},{"NoteNumber":62,"Velocity":34,"Duration":91463,"SoundDuration":91463,"Delta":1831688},{"NoteNumber":74,"Velocity":34,"Duration":91463,"SoundDuration":91463,"Delta":1831688},{"NoteNumber":65,"Velocity":34,"Duration":91463,"SoundDuration":91463,"Delta":1831688},{"NoteNumber":38,"Velocity":32,"Duration":91463,"SoundDuration":91463,"Delta":1831688},{"NoteNumber":73,"Velocity":34,"Duration":90090,"SoundDuration":90090,"Delta":2014615},{"NoteNumber":62,"Velocity":34,"Duration":90090,"SoundDuration":90090,"Delta":2014615},{"NoteNumber":65,"Velocity":34,"Duration":90090,"SoundDuration":90090,"Delta":2014615},{"NoteNumber":45,"Velocity":31,"Duration":90090,"SoundDuration":90090,"Delta":2014615},{"NoteNumber":73,"Velocity":36,"Duration":91185,"SoundDuration":91185,"Delta":2194795},{"NoteNumber":62,"Velocity":36,"Duration":91185,"SoundDuration":91185,"Delta":2194795},{"NoteNumber":65,"Velocity":36,"Duration":91185,"SoundDuration":91185,"Delta":2194795},{"NoteNumber":38,"Velocity":32,"Duration":91185,"SoundDuration":91185,"Delta":2194795},{"NoteNumber":65,"Velocity":34,"Duration":89285,"SoundDuration":89285,"Delta":2377166},{"NoteNumber":62,"Velocity":34,"Duration":89285,"SoundDuration":89285,"Delta":2377166},{"NoteNumber":72,"Velocity":34,"Duration":89285,"SoundDuration":89285,"Delta":2377166},{"NoteNumber":45,"Velocity":31,"Duration":89285,"SoundDuration":89285,"Delta":2377166},{"NoteNumber":72,"Velocity":34,"Duration":90090,"SoundDuration":90090,"Delta":2555737},{"NoteNumber":62,"Velocity":34,"Duration":90090,"SoundDuration":90090,"Delta":2555737},{"NoteNumber":65,"Velocity":34,"Duration":90090,"SoundDuration":90090,"Delta":2555737},{"NoteNumber":38,"Velocity":32,"Duration":90090,"SoundDuration":90090,"Delta":2555737},{"NoteNumber":62,"Velocity":34,"Duration":87719,"SoundDuration":87719,"Delta":2735917},{"NoteNumber":71,"Velocity":34,"Duration":87719,"SoundDuration":87719,"Delta":2735917},{"NoteNumber":65,"Velocity":34,"Duration":87719,"SoundDuration":87719,"Delta":2735917},{"NoteNumber":45,"Velocity":31,"Duration":87719,"SoundDuration":87719,"Delta":2735917},{"NoteNumber":71,"Velocity":36,"Duration":90090,"SoundDuration":90090,"Delta":2911356},{"NoteNumber":62,"Velocity":36,"Duration":90090,"SoundDuration":90090,"Delta":2911356},{"NoteNumber":65,"Velocity":36,"Duration":90090,"SoundDuration":90090,"Delta":2911356},{"NoteNumber":38,"Velocity":32,"Duration":90090,"SoundDuration":90090,"Delta":2911356},{"NoteNumber":70,"Velocity":33,"Duration":88757,"SoundDuration":88757,"Delta":3091536},{"NoteNumber":62,"Velocity":33,"Duration":88757,"SoundDuration":88757,"Delta":3091536},{"NoteNumber":65,"Velocity":33,"Duration":88757,"SoundDuration":88757,"Delta":3091536},{"NoteNumber":45,"Velocity":29,"Duration":88757,"SoundDuration":88757,"Delta":3091536},{"NoteNumber":65,"Velocity":33,"Duration":90090,"SoundDuration":90090,"Delta":3269051},{"NoteNumber":62,"Velocity":33,"Duration":90090,"SoundDuration":90090,"Delta":3269051},{"NoteNumber":70,"Velocity":33,"Duration":90090,"SoundDuration":90090,"Delta":3269051},{"NoteNumber":38,"Velocity":32,"Duration":90090,"SoundDuration":90090,"Delta":3269051},{"NoteNumber":69,"Velocity":32,"Duration":88495,"SoundDuration":88495,"Delta":3449231},{"NoteNumber":62,"Velocity":32,"Duration":88495,"SoundDuration":88495,"Delta":3449231},{"NoteNumber":65,"Velocity":32,"Duration":88495,"SoundDuration":88495,"Delta":3449231},{"NoteNumber":45,"Velocity":29,"Duration":88495,"SoundDuration":88495,"Delta":3449231},{"NoteNumber":59,"Velocity":43,"Duration":89552,"SoundDuration":89552,"Delta":3626222},{"NoteNumber":68,"Velocity":43,"Duration":89552,"SoundDuration":89552,"Delta":3626222},{"NoteNumber":64,"Velocity":43,"Duration":89552,"SoundDuration":89552,"Delta":3626222},{"NoteNumber":38,"Velocity":32,"Duration":89552,"SoundDuration":89552,"Delta":3626222},{"NoteNumber":64,"Velocity":43,"Duration":360922,"SoundDuration":360922,"Delta":3805326},{"NoteNumber":68,"Velocity":43,"Duration":360922,"SoundDuration":360922,"Delta":3805326},{"NoteNumber":59,"Velocity":43,"Duration":360922,"SoundDuration":360922,"Delta":3805326},{"NoteNumber":45,"Velocity":31,"Duration":89552,"SoundDuration":89552,"Delta":3805326},{"NoteNumber":38,"Velocity":32,"Duration":90908,"SoundDuration":90908,"Delta":3984431},{"NoteNumber":67,"Velocity":36,"Duration":44378,"SoundDuration":44378,"Delta":4166249},{"NoteNumber":45,"Velocity":31,"Duration":88757,"SoundDuration":88757,"Delta":4166249},{"NoteNumber":69,"Velocity":36,"Duration":44378,"SoundDuration":44378,"Delta":4210628},{"NoteNumber":70,"Velocity":36,"Duration":44378,"SoundDuration":44378,"Delta":4255006},{"NoteNumber":72,"Velocity":36,"Duration":44378,"SoundDuration":44378,"Delta":4299385},{"NoteNumber":74,"Velocity":38,"Duration":90908,"SoundDuration":90908,"Delta":4343764},{"NoteNumber":38,"Velocity":32,"Duration":90908,"SoundDuration":90908,"Delta":4343764},{"NoteNumber":67,"Velocity":34,"Duration":89820,"SoundDuration":89820,"Delta":4525582},{"NoteNumber":70,"Velocity":34,"Duration":89820,"SoundDuration":89820,"Delta":4525582},{"NoteNumber":79,"Velocity":34,"Duration":89820,"SoundDuration":89820,"Delta":4525582},{"NoteNumber":45,"Velocity":31,"Duration":89820,"SoundDuration":89820,"Delta":4525582},{"NoteNumber":70,"Velocity":34,"Duration":90908,"SoundDuration":90908,"Delta":4705222},{"NoteNumber":79,"Velocity":34,"Duration":90908,"SoundDuration":90908,"Delta":4705222},{"NoteNumber":67,"Velocity":34,"Duration":90908,"SoundDuration":90908,"Delta":4705222},{"NoteNumber":38,"Velocity":32,"Duration":90908,"SoundDuration":90908,"Delta":4705222},{"NoteNumber":78,"Velocity":34,"Duration":88757,"SoundDuration":88757,"Delta":4887040},{"NoteNumber":67,"Velocity":34,"Duration":88757,"SoundDuration":88757,"Delta":4887040},{"NoteNumber":70,"Velocity":34,"Duration":88757,"SoundDuration":88757,"Delta":4887040},{"NoteNumber":45,"Velocity":31,"Duration":88757,"SoundDuration":88757,"Delta":4887040},{"NoteNumber":70,"Velocity":36,"Duration":90361,"SoundDuration":90361,"Delta":5064555},{"NoteNumber":78,"Velocity":36,"Duration":90361,"SoundDuration":90361,"Delta":5064555},{"NoteNumber":67,"Velocity":36,"Duration":90361,"SoundDuration":90361,"Delta":5064555},{"NoteNumber":38,"Velocity":32,"Duration":90361,"SoundDuration":90361,"Delta":5064555},{"NoteNumber":77,"Velocity":34,"Duration":88235,"SoundDuration":88235,"Delta":5245278},{"NoteNumber":70,"Velocity":34,"Duration":88235,"SoundDuration":88235,"Delta":5245278},{"NoteNumber":67,"Velocity":34,"Duration":88235,"SoundDuration":88235,"Delta":5245278},{"NoteNumber":45,"Velocity":31,"Duration":88235,"SoundDuration":88235,"Delta":5245278},{"NoteNumber":70,"Velocity":34,"Duration":89020,"SoundDuration":89020,"Delta":5421749},{"NoteNumber":77,"Velocity":34,"Duration":89020,"SoundDuration":89020,"Delta":5421749},{"NoteNumber":67,"Velocity":34,"Duration":89020,"SoundDuration":89020,"Delta":5421749},{"NoteNumber":38,"Velocity":32,"Duration":89020,"SoundDuration":89020,"Delta":5421749},{"NoteNumber":70,"Velocity":34,"Duration":87463,"SoundDuration":87463,"Delta":5599790},{"NoteNumber":67,"Velocity":34,"Duration":87463,"SoundDuration":87463,"Delta":5599790},{"NoteNumber":76,"Velocity":34,"Duration":87463,"SoundDuration":87463,"Delta":5599790},{"NoteNumber":45,"Velocity":31,"Duration":87463,"SoundDuration":87463,"Delta":5599790},{"NoteNumber":76,"Velocity":36,"Duration":90090,"SoundDuration":90090,"Delta":5774717},{"NoteNumber":70,"Velocity":36,"Duration":90090,"SoundDuration":90090,"Delta":5774717},{"NoteNumber":67,"Velocity":36,"Duration":90090,"SoundDuration":90090,"Delta":5774717},{"NoteNumber":38,"Velocity":32,"Duration":90090,"SoundDuration":90090,"Delta":5774717},{"NoteNumber":75,"Velocity":32,"Duration":87719,"SoundDuration":87719,"Delta":5954897},{"NoteNumber":67,"Velocity":32,"Duration":87719,"SoundDuration":87719,"Delta":5954897},{"NoteNumber":70,"Velocity":32,"Duration":87719,"SoundDuration":87719,"Delta":5954897},{"NoteNumber":45,"Velocity":29,"Duration":87719,"SoundDuration":87719,"Delta":5954897},{"NoteNumber":75,"Velocity":32,"Duration":88757,"SoundDuration":88757,"Delta":6130336},{"NoteNumber":67,"Velocity":32,"Duration":88757,"SoundDuration":88757,"Delta":6130336},{"NoteNumber":70,"Velocity":32,"Duration":88757,"SoundDuration":88757,"Delta":6130336},{"NoteNumber":38,"Velocity":32,"Duration":88757,"SoundDuration":88757,"Delta":6130336},{"NoteNumber":74,"Velocity":32,"Duration":87719,"SoundDuration":87719,"Delta":6307851},{"NoteNumber":67,"Velocity":32,"Duration":87719,"SoundDuration":87719,"Delta":6307851},{"NoteNumber":70,"Velocity":32,"Duration":87719,"SoundDuration":87719,"Delta":6307851},{"NoteNumber":45,"Velocity":29,"Duration":87719,"SoundDuration":87719,"Delta":6307851},{"NoteNumber":64,"Velocity":44,"Duration":89552,"SoundDuration":89552,"Delta":6483289},{"NoteNumber":73,"Velocity":44,"Duration":89552,"SoundDuration":89552,"Delta":6483289},{"NoteNumber":69,"Velocity":44,"Duration":89552,"SoundDuration":89552,"Delta":6483289},{"NoteNumber":38,"Velocity":32,"Duration":89552,"SoundDuration":89552,"Delta":6483289},{"NoteNumber":64,"Velocity":44,"Duration":344827,"SoundDuration":344827,"Delta":6662394},{"NoteNumber":73,"Velocity":44,"Duration":344827,"SoundDuration":344827,"Delta":6662394},{"NoteNumber":69,"Velocity":44,"Duration":344827,"SoundDuration":344827,"Delta":6662394},{"NoteNumber":45,"Velocity":31,"Duration":86206,"SoundDuration":86206,"Delta":6662394},{"NoteNumber":38,"Velocity":32,"Duration":86206,"SoundDuration":86206,"Delta":6834808},{"NoteNumber":45,"Velocity":31,"Duration":84745,"SoundDuration":84745,"Delta":7007222},{"NoteNumber":74,"Velocity":46,"Duration":43352,"SoundDuration":43352,"Delta":7176713},{"NoteNumber":76,"Velocity":35,"Duration":43352,"SoundDuration":43352,"Delta":7220066},{"NoteNumber":77,"Velocity":35,"Duration":43352,"SoundDuration":43352,"Delta":7263419},{"NoteNumber":79,"Velocity":35,"Duration":43352,"SoundDuration":43352,"Delta":7306771},{"NoteNumber":81,"Velocity":40,"Duration":89285,"SoundDuration":89285,"Delta":7350124},{"NoteNumber":58,"Velocity":32,"Duration":89285,"SoundDuration":89285,"Delta":7350124},{"NoteNumber":65,"Velocity":32,"Duration":89285,"SoundDuration":89285,"Delta":7350124},{"NoteNumber":79,"Velocity":46,"Duration":43352,"SoundDuration":43352,"Delta":7528695},{"NoteNumber":77,"Velocity":36,"Duration":43352,"SoundDuration":43352,"Delta":7572048},{"NoteNumber":76,"Velocity":36,"Duration":43352,"SoundDuration":43352,"Delta":7615401},{"NoteNumber":74,"Velocity":36,"Duration":43352,"SoundDuration":43352,"Delta":7658753},{"NoteNumber":72,"Velocity":40,"Duration":89285,"SoundDuration":89285,"Delta":7702106},{"NoteNumber":53,"Velocity":32,"Duration":89285,"SoundDuration":89285,"Delta":7702106},{"NoteNumber":60,"Velocity":32,"Duration":89285,"SoundDuration":89285,"Delta":7702106},{"NoteNumber":70,"Velocity":45,"Duration":43352,"SoundDuration":43352,"Delta":7880677},{"NoteNumber":72,"Velocity":36,"Duration":43352,"SoundDuration":43352,"Delta":7924030},{"NoteNumber":74,"Velocity":36,"Duration":43352,"SoundDuration":43352,"Delta":7967383},{"NoteNumber":76,"Velocity":36,"Duration":43352,"SoundDuration":43352,"Delta":8010735},{"NoteNumber":77,"Velocity":41,"Duration":89285,"SoundDuration":89285,"Delta":8054088},{"NoteNumber":62,"Velocity":32,"Duration":89285,"SoundDuration":89285,"Delta":8054088},{"NoteNumber":55,"Velocity":32,"Duration":89285,"SoundDuration":89285,"Delta":8054088},{"NoteNumber":76,"Velocity":46,"Duration":43352,"SoundDuration":43352,"Delta":8232659},{"NoteNumber":74,"Velocity":37,"Duration":43352,"SoundDuration":43352,"Delta":8276012},{"NoteNumber":72,"Velocity":37,"Duration":43352,"SoundDuration":43352,"Delta":8319365},{"NoteNumber":70,"Velocity":37,"Duration":43352,"SoundDuration":43352,"Delta":8362717},{"NoteNumber":69,"Velocity":43,"Duration":89285,"SoundDuration":89285,"Delta":8406070},{"NoteNumber":50,"Velocity":32,"Duration":89285,"SoundDuration":89285,"Delta":8406070},{"NoteNumber":57,"Velocity":32,"Duration":89285,"SoundDuration":89285,"Delta":8406070},{"NoteNumber":67,"Velocity":46,"Duration":43352,"SoundDuration":43352,"Delta":8584641},{"NoteNumber":69,"Velocity":37,"Duration":43352,"SoundDuration":43352,"Delta":8627994},{"NoteNumber":70,"Velocity":37,"Duration":43352,"SoundDuration":43352,"Delta":8671347},{"NoteNumber":72,"Velocity":37,"Duration":43352,"SoundDuration":43352,"Delta":8714699},{"NoteNumber":74,"Velocity":44,"Duration":89285,"SoundDuration":89285,"Delta":8758052},{"NoteNumber":58,"Velocity":32,"Duration":89285,"SoundDuration":89285,"Delta":8758052},{"NoteNumber":51,"Velocity":32,"Duration":89285,"SoundDuration":89285,"Delta":8758052},{"NoteNumber":72,"Velocity":47,"Duration":43352,"SoundDuration":43352,"Delta":8936623},{"NoteNumber":70,"Velocity":37,"Duration":43352,"SoundDuration":43352,"Delta":8979976},{"NoteNumber":69,"Velocity":37,"Duration":43352,"SoundDuration":43352,"Delta":9023329},{"NoteNumber":67,"Velocity":37,"Duration":43352,"SoundDuration":43352,"Delta":9066681},{"NoteNumber":65,"Velocity":43,"Duration":89020,"SoundDuration":89020,"Delta":9110034},{"NoteNumber":53,"Velocity":32,"Duration":89020,"SoundDuration":89020,"Delta":9110034},{"NoteNumber":46,"Velocity":32,"Duration":89020,"SoundDuration":89020,"Delta":9110034},{"NoteNumber":45,"Velocity":37,"Duration":89020,"SoundDuration":89020,"Delta":9288075},{"NoteNumber":64,"Velocity":45,"Duration":511363,"SoundDuration":511363,"Delta":9466117},{"NoteNumber":57,"Velocity":45,"Duration":511363,"SoundDuration":511363,"Delta":9466117},{"NoteNumber":52,"Velocity":32,"Duration":85227,"SoundDuration":85227,"Delta":9466117},{"NoteNumber":45,"Velocity":38,"Duration":85227,"SoundDuration":85227,"Delta":9636571},{"NoteNumber":52,"Velocity":32,"Duration":85227,"SoundDuration":85227,"Delta":9807026},{"NoteNumber":86,"Velocity":47,"Duration":43352,"SoundDuration":43352,"Delta":9977480},{"NoteNumber":39,"Velocity":37,"Duration":86705,"SoundDuration":86705,"Delta":9977480},{"NoteNumber":84,"Velocity":37,"Duration":43352,"SoundDuration":43352,"Delta":10020833},{"NoteNumber":82,"Velocity":37,"Duration":43352,"SoundDuration":43352,"Delta":10064186},{"NoteNumber":81,"Velocity":37,"Duration":43352,"SoundDuration":43352,"Delta":10107538},{"NoteNumber":79,"Velocity":40,"Duration":89020,"SoundDuration":89020,"Delta":10150891},{"NoteNumber":46,"Velocity":32,"Duration":89020,"SoundDuration":89020,"Delta":10150891},{"NoteNumber":74,"Velocity":48,"Duration":43352,"SoundDuration":43352,"Delta":10328932},{"NoteNumber":39,"Velocity":37,"Duration":86705,"SoundDuration":86705,"Delta":10328932},{"NoteNumber":72,"Velocity":37,"Duration":43352,"SoundDuration":43352,"Delta":10372285},{"NoteNumber":70,"Velocity":37,"Duration":43352,"SoundDuration":43352,"Delta":10415638},{"NoteNumber":69,"Velocity":37,"Duration":43352,"SoundDuration":43352,"Delta":10458990},{"NoteNumber":67,"Velocity":40,"Duration":89020,"SoundDuration":89020,"Delta":10502343},{"NoteNumber":46,"Velocity":32,"Duration":89020,"SoundDuration":89020,"Delta":10502343},{"NoteNumber":45,"Velocity":37,"Duration":89020,"SoundDuration":89020,"Delta":10680384},{"NoteNumber":64,"Velocity":45,"Duration":512819,"SoundDuration":512819,"Delta":10858426},{"NoteNumber":57,"Velocity":45,"Duration":512819,"SoundDuration":512819,"Delta":10858426},{"NoteNumber":52,"Velocity":32,"Duration":85470,"SoundDuration":85470,"Delta":10858426},{"NoteNumber":45,"Velocity":38,"Duration":85470,"SoundDuration":85470,"Delta":11029366},{"NoteNumber":52,"Velocity":32,"Duration":85470,"SoundDuration":85470,"Delta":11200306},{"NoteNumber":86,"Velocity":47,"Duration":43352,"SoundDuration":43352,"Delta":11371246},{"NoteNumber":39,"Velocity":37,"Duration":86705,"SoundDuration":86705,"Delta":11371246},{"NoteNumber":84,"Velocity":37,"Duration":43352,"SoundDuration":43352,"Delta":11414599},{"NoteNumber":82,"Velocity":37,"Duration":43352,"SoundDuration":43352,"Delta":11457951},{"NoteNumber":81,"Velocity":37,"Duration":43352,"SoundDuration":43352,"Delta":11501304},{"NoteNumber":79,"Velocity":40,"Duration":89020,"SoundDuration":89020,"Delta":11544656},{"NoteNumber":46,"Velocity":32,"Duration":89020,"SoundDuration":89020,"Delta":11544656},{"NoteNumber":74,"Velocity":48,"Duration":43352,"SoundDuration":43352,"Delta":11722698},{"NoteNumber":39,"Velocity":37,"Duration":86705,"SoundDuration":86705,"Delta":11722698},{"NoteNumber":72,"Velocity":37,"Duration":43352,"SoundDuration":43352,"Delta":11766051},{"NoteNumber":70,"Velocity":37,"Duration":43352,"SoundDuration":43352,"Delta":11809403},{"NoteNumber":69,"Velocity":37,"Duration":43352,"SoundDuration":43352,"Delta":11852756},{"NoteNumber":67,"Velocity":40,"Duration":89020,"SoundDuration":89020,"Delta":11896108},{"NoteNumber":46,"Velocity":32,"Duration":89020,"SoundDuration":89020,"Delta":11896108},{"NoteNumber":45,"Velocity":37,"Duration":86705,"SoundDuration":86705,"Delta":12074150},{"NoteNumber":57,"Velocity":45,"Duration":173410,"SoundDuration":173410,"Delta":12247560},{"NoteNumber":64,"Velocity":45,"Duration":173410,"SoundDuration":173410,"Delta":12247560},{"NoteNumber":52,"Velocity":32,"Duration":86705,"SoundDuration":86705,"Delta":12247560},{"NoteNumber":74,"Velocity":40,"Duration":42372,"SoundDuration":42372,"Delta":12420971},{"NoteNumber":39,"Velocity":38,"Duration":84745,"SoundDuration":84745,"Delta":12420971},{"NoteNumber":72,"Velocity":36,"Duration":42372,"SoundDuration":42372,"Delta":12463344},{"NoteNumber":70,"Velocity":36,"Duration":42372,"SoundDuration":42372,"Delta":12505717},{"NoteNumber":69,"Velocity":36,"Duration":42372,"SoundDuration":42372,"Delta":12548089},{"NoteNumber":67,"Velocity":40,"Duration":84745,"SoundDuration":84745,"Delta":12590462},{"NoteNumber":46,"Velocity":31,"Duration":84745,"SoundDuration":84745,"Delta":12590462},{"NoteNumber":45,"Velocity":34,"Duration":85470,"SoundDuration":85470,"Delta":12759954},{"NoteNumber":64,"Velocity":38,"Duration":170939,"SoundDuration":170939,"Delta":12930894},{"NoteNumber":57,"Velocity":38,"Duration":170939,"SoundDuration":170939,"Delta":12930894},{"NoteNumber":52,"Velocity":32,"Duration":85470,"SoundDuration":85470,"Delta":12930894},{"NoteNumber":74,"Velocity":34,"Duration":42134,"SoundDuration":42134,"Delta":13101834},{"NoteNumber":39,"Velocity":34,"Duration":84269,"SoundDuration":84269,"Delta":13101834},{"NoteNumber":72,"Velocity":34,"Duration":42134,"SoundDuration":42134,"Delta":13143969},{"NoteNumber":70,"Velocity":34,"Duration":42134,"SoundDuration":42134,"Delta":13186104},{"NoteNumber":69,"Velocity":34,"Duration":42134,"SoundDuration":42134,"Delta":13228238},{"NoteNumber":67,"Velocity":32,"Duration":84269,"SoundDuration":84269,"Delta":13270373},{"NoteNumber":46,"Velocity":29,"Duration":84269,"SoundDuration":84269,"Delta":13270373},{"NoteNumber":45,"Velocity":35,"Duration":82872,"SoundDuration":82872,"Delta":13438913},{"NoteNumber":64,"Velocity":37,"Duration":165978,"SoundDuration":165978,"Delta":13604659},{"NoteNumber":57,"Velocity":37,"Duration":165978,"SoundDuration":165978,"Delta":13604659},{"NoteNumber":52,"Velocity":32,"Duration":82872,"SoundDuration":82872,"Delta":13604659},{"NoteNumber":74,"Velocity":32,"Duration":41899,"SoundDuration":41899,"Delta":13770638},{"NoteNumber":39,"Velocity":34,"Duration":83799,"SoundDuration":83799,"Delta":13770638},{"NoteNumber":72,"Velocity":32,"Duration":41899,"SoundDuration":41899,"Delta":13812537},{"NoteNumber":70,"Velocity":32,"Duration":41899,"SoundDuration":41899,"Delta":13854437},{"NoteNumber":69,"Velocity":32,"Duration":41899,"SoundDuration":41899,"Delta":13896336},{"NoteNumber":67,"Velocity":29,"Duration":83799,"SoundDuration":83799,"Delta":13938236},{"NoteNumber":46,"Velocity":28,"Duration":83799,"SoundDuration":83799,"Delta":13938236},{"NoteNumber":45,"Velocity":32,"Duration":82644,"SoundDuration":82644,"Delta":14105834},{"NoteNumber":64,"Velocity":35,"Duration":165560,"SoundDuration":165560,"Delta":14271123},{"NoteNumber":57,"Velocity":35,"Duration":165560,"SoundDuration":165560,"Delta":14271123},{"NoteNumber":52,"Velocity":29,"Duration":82644,"SoundDuration":82644,"Delta":14271123},{"NoteNumber":74,"Velocity":32,"Duration":41782,"SoundDuration":41782,"Delta":14436684},{"NoteNumber":39,"Velocity":32,"Duration":83565,"SoundDuration":83565,"Delta":14436684},{"NoteNumber":72,"Velocity":32,"Duration":41782,"SoundDuration":41782,"Delta":14478466},{"NoteNumber":70,"Velocity":32,"Duration":41782,"SoundDuration":41782,"Delta":14520249},{"NoteNumber":69,"Velocity":32,"Duration":41782,"SoundDuration":41782,"Delta":14562032},{"NoteNumber":67,"Velocity":29,"Duration":83565,"SoundDuration":83565,"Delta":14603815},{"NoteNumber":46,"Velocity":27,"Duration":83565,"SoundDuration":83565,"Delta":14603815},{"NoteNumber":45,"Velocity":46,"Duration":87209,"SoundDuration":87209,"Delta":14770946},{"NoteNumber":57,"Velocity":37,"Duration":85470,"SoundDuration":85470,"Delta":14945364},{"NoteNumber":64,"Velocity":37,"Duration":85470,"SoundDuration":85470,"Delta":14945364},{"NoteNumber":61,"Velocity":37,"Duration":85470,"SoundDuration":85470,"Delta":14945364},{"NoteNumber":52,"Velocity":41,"Duration":85470,"SoundDuration":85470,"Delta":14945364},{"NoteNumber":46,"Velocity":46,"Duration":87209,"SoundDuration":87209,"Delta":15116304},{"NoteNumber":64,"Velocity":37,"Duration":85714,"SoundDuration":85714,"Delta":15290723},{"NoteNumber":58,"Velocity":37,"Duration":85714,"SoundDuration":85714,"Delta":15290723},{"NoteNumber":61,"Velocity":37,"Duration":85714,"SoundDuration":85714,"Delta":15290723},{"NoteNumber":52,"Velocity":41,"Duration":85714,"SoundDuration":85714,"Delta":15290723},{"NoteNumber":44,"Velocity":44,"Duration":87209,"SoundDuration":87209,"Delta":15462151},{"NoteNumber":64,"Velocity":34,"Duration":85714,"SoundDuration":85714,"Delta":15636570},{"NoteNumber":56,"Velocity":34,"Duration":85714,"SoundDuration":85714,"Delta":15636570},{"NoteNumber":61,"Velocity":34,"Duration":85714,"SoundDuration":85714,"Delta":15636570},{"NoteNumber":52,"Velocity":42,"Duration":85714,"SoundDuration":85714,"Delta":15636570},{"NoteNumber":45,"Velocity":46,"Duration":87209,"SoundDuration":87209,"Delta":15807998},{"NoteNumber":61,"Velocity":35,"Duration":85714,"SoundDuration":85714,"Delta":15982416},{"NoteNumber":57,"Velocity":35,"Duration":85714,"SoundDuration":85714,"Delta":15982416},{"NoteNumber":64,"Velocity":35,"Duration":85714,"SoundDuration":85714,"Delta":15982416},{"NoteNumber":52,"Velocity":43,"Duration":85714,"SoundDuration":85714,"Delta":15982416},{"NoteNumber":46,"Velocity":48,"Duration":87209,"SoundDuration":87209,"Delta":16153845},{"NoteNumber":64,"Velocity":36,"Duration":85714,"SoundDuration":85714,"Delta":16328264},{"NoteNumber":58,"Velocity":36,"Duration":85714,"SoundDuration":85714,"Delta":16328264},{"NoteNumber":61,"Velocity":36,"Duration":85714,"SoundDuration":85714,"Delta":16328264},{"NoteNumber":52,"Velocity":43,"Duration":85714,"SoundDuration":85714,"Delta":16328264},{"NoteNumber":47,"Velocity":51,"Duration":87209,"SoundDuration":87209,"Delta":16499692},{"NoteNumber":59,"Velocity":40,"Duration":85714,"SoundDuration":85714,"Delta":16674111},{"NoteNumber":64,"Velocity":40,"Duration":85714,"SoundDuration":85714,"Delta":16674111},{"NoteNumber":61,"Velocity":40,"Duration":85714,"SoundDuration":85714,"Delta":16674111},{"NoteNumber":52,"Velocity":45,"Duration":85714,"SoundDuration":85714,"Delta":16674111},{"NoteNumber":48,"Velocity":53,"Duration":87209,"SoundDuration":87209,"Delta":16845539},{"NoteNumber":64,"Velocity":41,"Duration":85714,"SoundDuration":85714,"Delta":17019958},{"NoteNumber":60,"Velocity":41,"Duration":85714,"SoundDuration":85714,"Delta":17019958},{"NoteNumber":61,"Velocity":41,"Duration":85714,"SoundDuration":85714,"Delta":17019958},{"NoteNumber":52,"Velocity":49,"Duration":85714,"SoundDuration":85714,"Delta":17019958},{"NoteNumber":47,"Velocity":57,"Duration":87209,"SoundDuration":87209,"Delta":17191386},{"NoteNumber":64,"Velocity":43,"Duration":85714,"SoundDuration":85714,"Delta":17365805},{"NoteNumber":59,"Velocity":43,"Duration":85714,"SoundDuration":85714,"Delta":17365805},{"NoteNumber":61,"Velocity":43,"Duration":85714,"SoundDuration":85714,"Delta":17365805},{"NoteNumber":52,"Velocity":50,"Duration":85714,"SoundDuration":85714,"Delta":17365805},{"NoteNumber":46,"Velocity":58,"Duration":87209,"SoundDuration":87209,"Delta":17537233},{"NoteNumber":61,"Velocity":45,"Duration":85714,"SoundDuration":85714,"Delta":17711652},{"NoteNumber":58,"Velocity":45,"Duration":85714,"SoundDuration":85714,"Delta":17711652},{"NoteNumber":64,"Velocity":45,"Duration":85714,"SoundDuration":85714,"Delta":17711652},{"NoteNumber":52,"Velocity":53,"Duration":85714,"SoundDuration":85714,"Delta":17711652},{"NoteNumber":45,"Velocity":60,"Duration":87209,"SoundDuration":87209,"Delta":17883080},{"NoteNumber":64,"Velocity":48,"Duration":85714,"SoundDuration":85714,"Delta":18057499},{"NoteNumber":57,"Velocity":48,"Duration":85714,"SoundDuration":85714,"Delta":18057499},{"NoteNumber":61,"Velocity":48,"Duration":85714,"SoundDuration":85714,"Delta":18057499},{"NoteNumber":52,"Velocity":54,"Duration":85714,"SoundDuration":85714,"Delta":18057499},{"NoteNumber":44,"Velocity":63,"Duration":87209,"SoundDuration":87209,"Delta":18228927},{"NoteNumber":56,"Velocity":49,"Duration":85714,"SoundDuration":85714,"Delta":18403346},{"NoteNumber":64,"Velocity":49,"Duration":85714,"SoundDuration":85714,"Delta":18403346},{"NoteNumber":61,"Velocity":49,"Duration":85714,"SoundDuration":85714,"Delta":18403346},{"NoteNumber":52,"Velocity":58,"Duration":85714,"SoundDuration":85714,"Delta":18403346},{"NoteNumber":43,"Velocity":66,"Duration":87209,"SoundDuration":87209,"Delta":18574774},{"NoteNumber":61,"Velocity":51,"Duration":85714,"SoundDuration":85714,"Delta":18749193},{"NoteNumber":55,"Velocity":51,"Duration":85714,"SoundDuration":85714,"Delta":18749193},{"NoteNumber":58,"Velocity":51,"Duration":85714,"SoundDuration":85714,"Delta":18749193},{"NoteNumber":49,"Velocity":60,"Duration":85714,"SoundDuration":85714,"Delta":18749193},{"NoteNumber":42,"Velocity":69,"Duration":87209,"SoundDuration":87209,"Delta":18920621},{"NoteNumber":61,"Velocity":53,"Duration":85714,"SoundDuration":85714,"Delta":19095040},{"NoteNumber":58,"Velocity":53,"Duration":85714,"SoundDuration":85714,"Delta":19095040},{"NoteNumber":54,"Velocity":53,"Duration":85714,"SoundDuration":85714,"Delta":19095040},{"NoteNumber":49,"Velocity":64,"Duration":85714,"SoundDuration":85714,"Delta":19095040},{"NoteNumber":41,"Velocity":77,"Duration":87209,"SoundDuration":87209,"Delta":19266468},{"NoteNumber":61,"Velocity":55,"Duration":85714,"SoundDuration":85714,"Delta":19440887},{"NoteNumber":58,"Velocity":55,"Duration":85714,"SoundDuration":85714,"Delta":19440887},{"NoteNumber":53,"Velocity":55,"Duration":85714,"SoundDuration":85714,"Delta":19440887},{"NoteNumber":49,"Velocity":69,"Duration":85714,"SoundDuration":85714,"Delta":19440887},{"NoteNumber":40,"Velocity":83,"Duration":87209,"SoundDuration":87209,"Delta":19612315},{"NoteNumber":61,"Velocity":58,"Duration":85714,"SoundDuration":85714,"Delta":19786734},{"NoteNumber":52,"Velocity":58,"Duration":85714,"SoundDuration":85714,"Delta":19786734},{"NoteNumber":57,"Velocity":58,"Duration":85714,"SoundDuration":85714,"Delta":19786734},{"NoteNumber":49,"Velocity":76,"Duration":85714,"SoundDuration":85714,"Delta":19786734},{"NoteNumber":39,"Velocity":86,"Duration":87209,"SoundDuration":87209,"Delta":19958162},{"NoteNumber":55,"Velocity":59,"Duration":85714,"SoundDuration":85714,"Delta":20132581},{"NoteNumber":61,"Velocity":59,"Duration":85714,"SoundDuration":85714,"Delta":20132581},{"NoteNumber":51,"Velocity":59,"Duration":85714,"SoundDuration":85714,"Delta":20132581},{"NoteNumber":57,"Velocity":59,"Duration":85714,"SoundDuration":85714,"Delta":20132581},{"NoteNumber":49,"Velocity":79,"Duration":85714,"SoundDuration":85714,"Delta":20132581},{"NoteNumber":50,"Velocity":94,"Duration":87463,"SoundDuration":87463,"Delta":20304009},{"NoteNumber":38,"Velocity":80,"Duration":87463,"SoundDuration":87463,"Delta":20304009},{"NoteNumber":45,"Velocity":80,"Duration":87463,"SoundDuration":87463,"Delta":20478936},{"NoteNumber":33,"Velocity":68,"Duration":87463,"SoundDuration":87463,"Delta":20478936},{"NoteNumber":50,"Velocity":94,"Duration":87463,"SoundDuration":87463,"Delta":20653863},{"NoteNumber":38,"Velocity":80,"Duration":87463,"SoundDuration":87463,"Delta":20653863},{"NoteNumber":33,"Velocity":68,"Duration":87463,"SoundDuration":87463,"Delta":20828790},{"NoteNumber":45,"Velocity":80,"Duration":87463,"SoundDuration":87463,"Delta":20828790},{"NoteNumber":38,"Velocity":80,"Duration":87463,"SoundDuration":87463,"Delta":21003717},{"NoteNumber":50,"Velocity":94,"Duration":87463,"SoundDuration":87463,"Delta":21003717},{"NoteNumber":33,"Velocity":68,"Duration":87463,"SoundDuration":87463,"Delta":21178644},{"NoteNumber":45,"Velocity":80,"Duration":87463,"SoundDuration":87463,"Delta":21178644},{"NoteNumber":50,"Velocity":94,"Duration":87463,"SoundDuration":87463,"Delta":21353571},{"NoteNumber":38,"Velocity":80,"Duration":87463,"SoundDuration":87463,"Delta":21353571},{"NoteNumber":74,"Velocity":86,"Duration":43538,"SoundDuration":43538,"Delta":21528434},{"NoteNumber":33,"Velocity":68,"Duration":87077,"SoundDuration":87077,"Delta":21528434},{"NoteNumber":45,"Velocity":80,"Duration":87077,"SoundDuration":87077,"Delta":21528434},{"NoteNumber":76,"Velocity":86,"Duration":43538,"SoundDuration":43538,"Delta":21571973},{"NoteNumber":77,"Velocity":86,"Duration":43538,"SoundDuration":43538,"Delta":21615511},{"NoteNumber":79,"Velocity":86,"Duration":43432,"SoundDuration":43432,"Delta":21659050},{"NoteNumber":81,"Velocity":90,"Duration":89084,"SoundDuration":89084,"Delta":21702483},{"NoteNumber":38,"Velocity":71,"Duration":89084,"SoundDuration":89084,"Delta":21702483},{"NoteNumber":50,"Velocity":84,"Duration":89084,"SoundDuration":89084,"Delta":21702483},{"NoteNumber":86,"Velocity":81,"Duration":88276,"SoundDuration":88276,"Delta":21880652},{"NoteNumber":74,"Velocity":68,"Duration":88276,"SoundDuration":88276,"Delta":21880652},{"NoteNumber":77,"Velocity":68,"Duration":88276,"SoundDuration":88276,"Delta":21880652},{"NoteNumber":33,"Velocity":60,"Duration":88276,"SoundDuration":88276,"Delta":21880652},{"NoteNumber":45,"Velocity":71,"Duration":88276,"SoundDuration":88276,"Delta":21880652},{"NoteNumber":86,"Velocity":81,"Duration":88809,"SoundDuration":88809,"Delta":22057205},{"NoteNumber":74,"Velocity":68,"Duration":88809,"SoundDuration":88809,"Delta":22057205},{"NoteNumber":77,"Velocity":68,"Duration":88809,"SoundDuration":88809,"Delta":22057205},{"NoteNumber":38,"Velocity":71,"Duration":88809,"SoundDuration":88809,"Delta":22057205},{"NoteNumber":50,"Velocity":84,"Duration":88809,"SoundDuration":88809,"Delta":22057205},{"NoteNumber":77,"Velocity":68,"Duration":87478,"SoundDuration":87478,"Delta":22234825},{"NoteNumber":74,"Velocity":68,"Duration":87478,"SoundDuration":87478,"Delta":22234825},{"NoteNumber":85,"Velocity":81,"Duration":87478,"SoundDuration":87478,"Delta":22234825},{"NoteNumber":33,"Velocity":60,"Duration":87478,"SoundDuration":87478,"Delta":22234825},{"NoteNumber":45,"Velocity":71,"Duration":87478,"SoundDuration":87478,"Delta":22234825},{"NoteNumber":85,"Velocity":86,"Duration":88542,"SoundDuration":88542,"Delta":22409783},{"NoteNumber":74,"Velocity":73,"Duration":88542,"SoundDuration":88542,"Delta":22409783},{"NoteNumber":77,"Velocity":73,"Duration":88542,"SoundDuration":88542,"Delta":22409783},{"NoteNumber":50,"Velocity":84,"Duration":88542,"SoundDuration":88542,"Delta":22409783},{"NoteNumber":38,"Velocity":71,"Duration":88542,"SoundDuration":88542,"Delta":22409783},{"NoteNumber":74,"Velocity":68,"Duration":86695,"SoundDuration":86695,"Delta":22586868},{"NoteNumber":84,"Velocity":81,"Duration":86695,"SoundDuration":86695,"Delta":22586868},{"NoteNumber":77,"Velocity":68,"Duration":86695,"SoundDuration":86695,"Delta":22586868},{"NoteNumber":33,"Velocity":60,"Duration":86695,"SoundDuration":86695,"Delta":22586868},{"NoteNumber":45,"Velocity":71,"Duration":86695,"SoundDuration":86695,"Delta":22586868},{"NoteNumber":84,"Velocity":81,"Duration":87478,"SoundDuration":87478,"Delta":22760258},{"NoteNumber":74,"Velocity":68,"Duration":87478,"SoundDuration":87478,"Delta":22760258},{"NoteNumber":77,"Velocity":68,"Duration":87478,"SoundDuration":87478,"Delta":22760258},{"NoteNumber":38,"Velocity":71,"Duration":87478,"SoundDuration":87478,"Delta":22760258},{"NoteNumber":50,"Velocity":84,"Duration":87478,"SoundDuration":87478,"Delta":22760258},{"NoteNumber":83,"Velocity":81,"Duration":85179,"SoundDuration":85179,"Delta":22935216},{"NoteNumber":74,"Velocity":68,"Duration":85179,"SoundDuration":85179,"Delta":22935216},{"NoteNumber":77,"Velocity":68,"Duration":85179,"SoundDuration":85179,"Delta":22935216},{"NoteNumber":33,"Velocity":60,"Duration":85179,"SoundDuration":85179,"Delta":22935216},{"NoteNumber":45,"Velocity":71,"Duration":85179,"SoundDuration":85179,"Delta":22935216},{"NoteNumber":77,"Velocity":73,"Duration":87478,"SoundDuration":87478,"Delta":23105574},{"NoteNumber":74,"Velocity":73,"Duration":87478,"SoundDuration":87478,"Delta":23105574},{"NoteNumber":83,"Velocity":86,"Duration":87478,"SoundDuration":87478,"Delta":23105574},{"NoteNumber":50,"Velocity":84,"Duration":87478,"SoundDuration":87478,"Delta":23105574},{"NoteNumber":38,"Velocity":71,"Duration":87478,"SoundDuration":87478,"Delta":23105574},{"NoteNumber":77,"Velocity":69,"Duration":86182,"SoundDuration":86182,"Delta":23280531},{"NoteNumber":74,"Velocity":69,"Duration":86182,"SoundDuration":86182,"Delta":23280531},{"NoteNumber":82,"Velocity":82,"Duration":86182,"SoundDuration":86182,"Delta":23280531},{"NoteNumber":45,"Velocity":71,"Duration":86182,"SoundDuration":86182,"Delta":23280531},{"NoteNumber":33,"Velocity":60,"Duration":86182,"SoundDuration":86182,"Delta":23280531},{"NoteNumber":82,"Velocity":82,"Duration":87478,"SoundDuration":87478,"Delta":23452896},{"NoteNumber":77,"Velocity":69,"Duration":87478,"SoundDuration":87478,"Delta":23452896},{"NoteNumber":74,"Velocity":69,"Duration":87478,"SoundDuration":87478,"Delta":23452896},{"NoteNumber":50,"Velocity":84,"Duration":87478,"SoundDuration":87478,"Delta":23452896},{"NoteNumber":38,"Velocity":71,"Duration":87478,"SoundDuration":87478,"Delta":23452896},{"NoteNumber":81,"Velocity":82,"Duration":85930,"SoundDuration":85930,"Delta":23627853},{"NoteNumber":74,"Velocity":69,"Duration":85930,"SoundDuration":85930,"Delta":23627853},{"NoteNumber":77,"Velocity":82,"Duration":85930,"SoundDuration":85930,"Delta":23627853},{"NoteNumber":45,"Velocity":71,"Duration":85930,"SoundDuration":85930,"Delta":23627853},{"NoteNumber":33,"Velocity":60,"Duration":85930,"SoundDuration":85930,"Delta":23627853},{"NoteNumber":76,"Velocity":79,"Duration":86961,"SoundDuration":86961,"Delta":23799714},{"NoteNumber":71,"Velocity":79,"Duration":86961,"SoundDuration":86961,"Delta":23799714},{"NoteNumber":80,"Velocity":93,"Duration":86961,"SoundDuration":86961,"Delta":23799714},{"NoteNumber":38,"Velocity":71,"Duration":86961,"SoundDuration":86961,"Delta":23799714},{"NoteNumber":50,"Velocity":84,"Duration":86961,"SoundDuration":86961,"Delta":23799714},{"NoteNumber":80,"Velocity":97,"Duration":350476,"SoundDuration":350476,"Delta":23973637},{"NoteNumber":71,"Velocity":82,"Duration":350476,"SoundDuration":350476,"Delta":23973637},{"NoteNumber":76,"Velocity":82,"Duration":350476,"SoundDuration":350476,"Delta":23973637},{"NoteNumber":33,"Velocity":60,"Duration":86961,"SoundDuration":86961,"Delta":23973637},{"NoteNumber":45,"Velocity":71,"Duration":86961,"SoundDuration":86961,"Delta":23973637},{"NoteNumber":38,"Velocity":71,"Duration":88276,"SoundDuration":88276,"Delta":24147560},{"NoteNumber":50,"Velocity":84,"Duration":88276,"SoundDuration":88276,"Delta":24147560},{"NoteNumber":79,"Velocity":86,"Duration":43091,"SoundDuration":43091,"Delta":24324113},{"NoteNumber":33,"Velocity":60,"Duration":86182,"SoundDuration":86182,"Delta":24324113},{"NoteNumber":45,"Velocity":71,"Duration":86182,"SoundDuration":86182,"Delta":24324113},{"NoteNumber":81,"Velocity":86,"Duration":43091,"SoundDuration":43091,"Delta":24367204},{"NoteNumber":82,"Velocity":86,"Duration":43091,"SoundDuration":43091,"Delta":24410295},{"NoteNumber":84,"Velocity":86,"Duration":43091,"SoundDuration":43091,"Delta":24453386},{"NoteNumber":86,"Velocity":90,"Duration":87719,"SoundDuration":87719,"Delta":24496478},{"NoteNumber":50,"Velocity":84,"Duration":87719,"SoundDuration":87719,"Delta":24496478},{"NoteNumber":38,"Velocity":71,"Duration":87719,"SoundDuration":87719,"Delta":24496478},{"NoteNumber":79,"Velocity":68,"Duration":86207,"SoundDuration":86207,"Delta":24671916},{"NoteNumber":82,"Velocity":68,"Duration":86207,"SoundDuration":86207,"Delta":24671916},{"NoteNumber":91,"Velocity":81,"Duration":86207,"SoundDuration":86207,"Delta":24671916},{"NoteNumber":45,"Velocity":71,"Duration":86207,"SoundDuration":86207,"Delta":24671916},{"NoteNumber":33,"Velocity":60,"Duration":86207,"SoundDuration":86207,"Delta":24671916},{"NoteNumber":82,"Velocity":68,"Duration":87719,"SoundDuration":87719,"Delta":24844330},{"NoteNumber":91,"Velocity":81,"Duration":87719,"SoundDuration":87719,"Delta":24844330},{"NoteNumber":79,"Velocity":68,"Duration":87719,"SoundDuration":87719,"Delta":24844330},{"NoteNumber":50,"Velocity":84,"Duration":87719,"SoundDuration":87719,"Delta":24844330},{"NoteNumber":38,"Velocity":71,"Duration":87719,"SoundDuration":87719,"Delta":24844330},{"NoteNumber":90,"Velocity":81,"Duration":86182,"SoundDuration":86182,"Delta":25019769},{"NoteNumber":79,"Velocity":68,"Duration":86182,"SoundDuration":86182,"Delta":25019769},{"NoteNumber":82,"Velocity":68,"Duration":86182,"SoundDuration":86182,"Delta":25019769},{"NoteNumber":45,"Velocity":71,"Duration":86182,"SoundDuration":86182,"Delta":25019769},{"NoteNumber":33,"Velocity":60,"Duration":86182,"SoundDuration":86182,"Delta":25019769},{"NoteNumber":82,"Velocity":73,"Duration":87745,"SoundDuration":87745,"Delta":25192133},{"NoteNumber":90,"Velocity":86,"Duration":87745,"SoundDuration":87745,"Delta":25192133},{"NoteNumber":79,"Velocity":73,"Duration":87745,"SoundDuration":87745,"Delta":25192133},{"NoteNumber":38,"Velocity":71,"Duration":87745,"SoundDuration":87745,"Delta":25192133},{"NoteNumber":50,"Velocity":84,"Duration":87745,"SoundDuration":87745,"Delta":25192133},{"NoteNumber":89,"Velocity":81,"Duration":85679,"SoundDuration":85679,"Delta":25367623},{"NoteNumber":82,"Velocity":68,"Duration":85679,"SoundDuration":85679,"Delta":25367623},{"NoteNumber":79,"Velocity":68,"Duration":85679,"SoundDuration":85679,"Delta":25367623},{"NoteNumber":45,"Velocity":71,"Duration":85679,"SoundDuration":85679,"Delta":25367623},{"NoteNumber":33,"Velocity":60,"Duration":85679,"SoundDuration":85679,"Delta":25367623},{"NoteNumber":82,"Velocity":68,"Duration":86440,"SoundDuration":86440,"Delta":25538983},{"NoteNumber":89,"Velocity":81,"Duration":86440,"SoundDuration":86440,"Delta":25538983},{"NoteNumber":79,"Velocity":68,"Duration":86440,"SoundDuration":86440,"Delta":25538983},{"NoteNumber":50,"Velocity":84,"Duration":86440,"SoundDuration":86440,"Delta":25538983},{"NoteNumber":38,"Velocity":71,"Duration":86440,"SoundDuration":86440,"Delta":25538983},{"NoteNumber":82,"Velocity":68,"Duration":84932,"SoundDuration":84932,"Delta":25711864},{"NoteNumber":79,"Velocity":68,"Duration":84932,"SoundDuration":84932,"Delta":25711864},{"NoteNumber":88,"Velocity":81,"Duration":84932,"SoundDuration":84932,"Delta":25711864},{"NoteNumber":45,"Velocity":71,"Duration":84932,"SoundDuration":84932,"Delta":25711864},{"NoteNumber":33,"Velocity":60,"Duration":84932,"SoundDuration":84932,"Delta":25711864},{"NoteNumber":88,"Velocity":86,"Duration":87478,"SoundDuration":87478,"Delta":25881730},{"NoteNumber":79,"Velocity":73,"Duration":87478,"SoundDuration":87478,"Delta":25881730},{"NoteNumber":82,"Velocity":73,"Duration":87478,"SoundDuration":87478,"Delta":25881730},{"NoteNumber":38,"Velocity":71,"Duration":87478,"SoundDuration":87478,"Delta":25881730},{"NoteNumber":50,"Velocity":84,"Duration":87478,"SoundDuration":87478,"Delta":25881730},{"NoteNumber":82,"Velocity":69,"Duration":85179,"SoundDuration":85179,"Delta":26056688},{"NoteNumber":87,"Velocity":82,"Duration":85179,"SoundDuration":85179,"Delta":26056688},{"NoteNumber":79,"Velocity":69,"Duration":85179,"SoundDuration":85179,"Delta":26056688},{"NoteNumber":33,"Velocity":60,"Duration":85179,"SoundDuration":85179,"Delta":26056688},{"NoteNumber":45,"Velocity":71,"Duration":85179,"SoundDuration":85179,"Delta":26056688},{"NoteNumber":87,"Velocity":82,"Duration":86182,"SoundDuration":86182,"Delta":26227046},{"NoteNumber":79,"Velocity":69,"Duration":86182,"SoundDuration":86182,"Delta":26227046},{"NoteNumber":82,"Velocity":69,"Duration":86182,"SoundDuration":86182,"Delta":26227046},{"NoteNumber":50,"Velocity":84,"Duration":86182,"SoundDuration":86182,"Delta":26227046},{"NoteNumber":38,"Velocity":71,"Duration":86182,"SoundDuration":86182,"Delta":26227046},{"NoteNumber":82,"Velocity":69,"Duration":85179,"SoundDuration":85179,"Delta":26399410},{"NoteNumber":86,"Velocity":82,"Duration":85179,"SoundDuration":85179,"Delta":26399410},{"NoteNumber":79,"Velocity":69,"Duration":85179,"SoundDuration":85179,"Delta":26399410},{"NoteNumber":33,"Velocity":60,"Duration":85179,"SoundDuration":85179,"Delta":26399410},{"NoteNumber":45,"Velocity":71,"Duration":85179,"SoundDuration":85179,"Delta":26399410},{"NoteNumber":81,"Velocity":79,"Duration":86961,"SoundDuration":86961,"Delta":26569768},{"NoteNumber":76,"Velocity":79,"Duration":86961,"SoundDuration":86961,"Delta":26569768},{"NoteNumber":85,"Velocity":93,"Duration":86961,"SoundDuration":86961,"Delta":26569768},{"NoteNumber":38,"Velocity":71,"Duration":86961,"SoundDuration":86961,"Delta":26569768},{"NoteNumber":50,"Velocity":84,"Duration":86961,"SoundDuration":86961,"Delta":26569768},{"NoteNumber":85,"Velocity":97,"Duration":334839,"SoundDuration":334839,"Delta":26743691},{"NoteNumber":81,"Velocity":82,"Duration":334839,"SoundDuration":334839,"Delta":26743691},{"NoteNumber":76,"Velocity":82,"Duration":334839,"SoundDuration":334839,"Delta":26743691},{"NoteNumber":33,"Velocity":60,"Duration":83709,"SoundDuration":83709,"Delta":26743691},{"NoteNumber":45,"Velocity":71,"Duration":83709,"SoundDuration":83709,"Delta":26743691},{"NoteNumber":38,"Velocity":71,"Duration":83709,"SoundDuration":83709,"Delta":26911111},{"NoteNumber":50,"Velocity":84,"Duration":83709,"SoundDuration":83709,"Delta":26911111},{"NoteNumber":33,"Velocity":60,"Duration":82286,"SoundDuration":82286,"Delta":27078531},{"NoteNumber":45,"Velocity":71,"Duration":82286,"SoundDuration":82286,"Delta":27078531},{"NoteNumber":86,"Velocity":106,"Duration":42094,"SoundDuration":42094,"Delta":27243104},{"NoteNumber":53,"Velocity":71,"Duration":84189,"SoundDuration":84189,"Delta":27243104},{"NoteNumber":65,"Velocity":84,"Duration":84189,"SoundDuration":84189,"Delta":27243104},{"NoteNumber":88,"Velocity":83,"Duration":42094,"SoundDuration":42094,"Delta":27285199},{"NoteNumber":89,"Velocity":83,"Duration":42094,"SoundDuration":42094,"Delta":27327293},{"NoteNumber":91,"Velocity":83,"Duration":42094,"SoundDuration":42094,"Delta":27369388},{"NoteNumber":93,"Velocity":83,"Duration":86695,"SoundDuration":86695,"Delta":27411483},{"NoteNumber":50,"Velocity":71,"Duration":86695,"SoundDuration":86695,"Delta":27411483},{"NoteNumber":38,"Velocity":50,"Duration":86695,"SoundDuration":86695,"Delta":27411483},{"NoteNumber":91,"Velocity":104,"Duration":42094,"SoundDuration":42094,"Delta":27584873},{"NoteNumber":64,"Velocity":84,"Duration":84189,"SoundDuration":84189,"Delta":27584873},{"NoteNumber":52,"Velocity":71,"Duration":84189,"SoundDuration":84189,"Delta":27584873},{"NoteNumber":89,"Velocity":84,"Duration":42094,"SoundDuration":42094,"Delta":27626968},{"NoteNumber":88,"Velocity":84,"Duration":42094,"SoundDuration":42094,"Delta":27669062},{"NoteNumber":86,"Velocity":84,"Duration":42094,"SoundDuration":42094,"Delta":27711157},{"NoteNumber":84,"Velocity":85,"Duration":86695,"SoundDuration":86695,"Delta":27753252},{"NoteNumber":38,"Velocity":50,"Duration":86695,"SoundDuration":86695,"Delta":27753252},{"NoteNumber":50,"Velocity":71,"Duration":86695,"SoundDuration":86695,"Delta":27753252},{"NoteNumber":82,"Velocity":104,"Duration":42094,"SoundDuration":42094,"Delta":27926642},{"NoteNumber":62,"Velocity":84,"Duration":84189,"SoundDuration":84189,"Delta":27926642},{"NoteNumber":50,"Velocity":71,"Duration":84189,"SoundDuration":84189,"Delta":27926642},{"NoteNumber":84,"Velocity":84,"Duration":42094,"SoundDuration":42094,"Delta":27968737},{"NoteNumber":86,"Velocity":84,"Duration":42094,"SoundDuration":42094,"Delta":28010831},{"NoteNumber":88,"Velocity":84,"Duration":42094,"SoundDuration":42094,"Delta":28052926},{"NoteNumber":89,"Velocity":84,"Duration":86695,"SoundDuration":86695,"Delta":28095021},{"NoteNumber":50,"Velocity":71,"Duration":86695,"SoundDuration":86695,"Delta":28095021},{"NoteNumber":38,"Velocity":50,"Duration":86695,"SoundDuration":86695,"Delta":28095021},{"NoteNumber":88,"Velocity":104,"Duration":42094,"SoundDuration":42094,"Delta":28268411},{"NoteNumber":60,"Velocity":84,"Duration":84189,"SoundDuration":84189,"Delta":28268411},{"NoteNumber":48,"Velocity":71,"Duration":84189,"SoundDuration":84189,"Delta":28268411},{"NoteNumber":86,"Velocity":84,"Duration":42094,"SoundDuration":42094,"Delta":28310506},{"NoteNumber":84,"Velocity":84,"Duration":42094,"SoundDuration":42094,"Delta":28352600},{"NoteNumber":82,"Velocity":84,"Duration":42094,"SoundDuration":42094,"Delta":28394695},{"NoteNumber":81,"Velocity":84,"Duration":86695,"SoundDuration":86695,"Delta":28436790},{"NoteNumber":38,"Velocity":50,"Duration":86695,"SoundDuration":86695,"Delta":28436790},{"NoteNumber":50,"Velocity":71,"Duration":86695,"SoundDuration":86695,"Delta":28436790},{"NoteNumber":79,"Velocity":104,"Duration":42094,"SoundDuration":42094,"Delta":28610180},{"NoteNumber":46,"Velocity":60,"Duration":84189,"SoundDuration":84189,"Delta":28610180},{"NoteNumber":58,"Velocity":84,"Duration":84189,"SoundDuration":84189,"Delta":28610180},{"NoteNumber":81,"Velocity":86,"Duration":42094,"SoundDuration":42094,"Delta":28652275},{"NoteNumber":82,"Velocity":86,"Duration":42094,"SoundDuration":42094,"Delta":28694369},{"NoteNumber":84,"Velocity":86,"Duration":42094,"SoundDuration":42094,"Delta":28736464},{"NoteNumber":86,"Velocity":86,"Duration":86695,"SoundDuration":86695,"Delta":28778559},{"NoteNumber":38,"Velocity":50,"Duration":86695,"SoundDuration":86695,"Delta":28778559},{"NoteNumber":50,"Velocity":71,"Duration":86695,"SoundDuration":86695,"Delta":28778559},{"NoteNumber":84,"Velocity":104,"Duration":42094,"SoundDuration":42094,"Delta":28951949},{"NoteNumber":57,"Velocity":84,"Duration":84189,"SoundDuration":84189,"Delta":28951949},{"NoteNumber":45,"Velocity":60,"Duration":84189,"SoundDuration":84189,"Delta":28951949},{"NoteNumber":82,"Velocity":86,"Duration":42094,"SoundDuration":42094,"Delta":28994044},{"NoteNumber":81,"Velocity":85,"Duration":42094,"SoundDuration":42094,"Delta":29036138},{"NoteNumber":79,"Velocity":85,"Duration":42094,"SoundDuration":42094,"Delta":29078233},{"NoteNumber":77,"Velocity":85,"Duration":86455,"SoundDuration":86455,"Delta":29120328},{"NoteNumber":50,"Velocity":71,"Duration":86455,"SoundDuration":86455,"Delta":29120328},{"NoteNumber":38,"Velocity":50,"Duration":86455,"SoundDuration":86455,"Delta":29120328},{"NoteNumber":76,"Velocity":94,"Duration":85714,"SoundDuration":85714,"Delta":29293238},{"NoteNumber":81,"Velocity":94,"Duration":85714,"SoundDuration":85714,"Delta":29293238},{"NoteNumber":88,"Velocity":94,"Duration":85714,"SoundDuration":85714,"Delta":29293238},{"NoteNumber":43,"Velocity":60,"Duration":85714,"SoundDuration":85714,"Delta":29293238},{"NoteNumber":55,"Velocity":84,"Duration":85714,"SoundDuration":85714,"Delta":29293238},{"NoteNumber":76,"Velocity":94,"Duration":338982,"SoundDuration":338982,"Delta":29464667},{"NoteNumber":88,"Velocity":94,"Duration":338982,"SoundDuration":338982,"Delta":29464667},{"NoteNumber":81,"Velocity":94,"Duration":338982,"SoundDuration":338982,"Delta":29464667},{"NoteNumber":50,"Velocity":71,"Duration":84745,"SoundDuration":84745,"Delta":29464667},{"NoteNumber":38,"Velocity":50,"Duration":84745,"SoundDuration":84745,"Delta":29464667},{"NoteNumber":55,"Velocity":84,"Duration":84745,"SoundDuration":84745,"Delta":29634158},{"NoteNumber":43,"Velocity":60,"Duration":84745,"SoundDuration":84745,"Delta":29634158},{"NoteNumber":38,"Velocity":50,"Duration":84745,"SoundDuration":84745,"Delta":29803650},{"NoteNumber":50,"Velocity":71,"Duration":84745,"SoundDuration":84745,"Delta":29803650},{"NoteNumber":82,"Velocity":92,"Duration":42094,"SoundDuration":42094,"Delta":29973141},{"NoteNumber":62,"Velocity":84,"Duration":84189,"SoundDuration":84189,"Delta":29973141},{"NoteNumber":50,"Velocity":71,"Duration":84189,"SoundDuration":84189,"Delta":29973141},{"NoteNumber":84,"Velocity":83,"Duration":42094,"SoundDuration":42094,"Delta":30015236},{"NoteNumber":86,"Velocity":83,"Duration":42094,"SoundDuration":42094,"Delta":30057330},{"NoteNumber":88,"Velocity":83,"Duration":42094,"SoundDuration":42094,"Delta":30099425},{"NoteNumber":89,"Velocity":83,"Duration":86695,"SoundDuration":86695,"Delta":30141520},{"NoteNumber":38,"Velocity":60,"Duration":86695,"SoundDuration":86695,"Delta":30141520},{"NoteNumber":50,"Velocity":71,"Duration":86695,"SoundDuration":86695,"Delta":30141520},{"NoteNumber":88,"Velocity":92,"Duration":42094,"SoundDuration":42094,"Delta":30314910},{"NoteNumber":60,"Velocity":84,"Duration":84189,"SoundDuration":84189,"Delta":30314910},{"NoteNumber":48,"Velocity":71,"Duration":84189,"SoundDuration":84189,"Delta":30314910},{"NoteNumber":86,"Velocity":84,"Duration":42094,"SoundDuration":42094,"Delta":30357005},{"NoteNumber":84,"Velocity":84,"Duration":42094,"SoundDuration":42094,"Delta":30399099},{"NoteNumber":82,"Velocity":84,"Duration":42094,"SoundDuration":42094,"Delta":30441194},{"NoteNumber":81,"Velocity":85,"Duration":86695,"SoundDuration":86695,"Delta":30483289},{"NoteNumber":50,"Velocity":71,"Duration":86695,"SoundDuration":86695,"Delta":30483289},{"NoteNumber":38,"Velocity":60,"Duration":86695,"SoundDuration":86695,"Delta":30483289},{"NoteNumber":79,"Velocity":92,"Duration":42094,"SoundDuration":42094,"Delta":30656679},{"NoteNumber":58,"Velocity":84,"Duration":84189,"SoundDuration":84189,"Delta":30656679},{"NoteNumber":46,"Velocity":71,"Duration":84189,"SoundDuration":84189,"Delta":30656679},{"NoteNumber":81,"Velocity":84,"Duration":42094,"SoundDuration":42094,"Delta":30698774},{"NoteNumber":82,"Velocity":84,"Duration":42094,"SoundDuration":42094,"Delta":30740868},{"NoteNumber":84,"Velocity":84,"Duration":42094,"SoundDuration":42094,"Delta":30782963},{"NoteNumber":86,"Velocity":84,"Duration":86695,"SoundDuration":86695,"Delta":30825058},{"NoteNumber":38,"Velocity":60,"Duration":86695,"SoundDuration":86695,"Delta":30825058},{"NoteNumber":50,"Velocity":71,"Duration":86695,"SoundDuration":86695,"Delta":30825058},{"NoteNumber":84,"Velocity":92,"Duration":42094,"SoundDuration":42094,"Delta":30998448},{"NoteNumber":57,"Velocity":84,"Duration":84189,"SoundDuration":84189,"Delta":30998448},{"NoteNumber":45,"Velocity":71,"Duration":84189,"SoundDuration":84189,"Delta":30998448},{"NoteNumber":82,"Velocity":84,"Duration":42094,"SoundDuration":42094,"Delta":31040543},{"NoteNumber":81,"Velocity":84,"Duration":42094,"SoundDuration":42094,"Delta":31082637},{"NoteNumber":79,"Velocity":84,"Duration":42094,"SoundDuration":42094,"Delta":31124732},{"NoteNumber":77,"Velocity":84,"Duration":86695,"SoundDuration":86695,"Delta":31166827},{"NoteNumber":50,"Velocity":71,"Duration":86695,"SoundDuration":86695,"Delta":31166827},{"NoteNumber":38,"Velocity":60,"Duration":86695,"SoundDuration":86695,"Delta":31166827},{"NoteNumber":75,"Velocity":94,"Duration":42094,"SoundDuration":42094,"Delta":31340217},{"NoteNumber":55,"Velocity":84,"Duration":84189,"SoundDuration":84189,"Delta":31340217},{"NoteNumber":43,"Velocity":71,"Duration":84189,"SoundDuration":84189,"Delta":31340217},{"NoteNumber":77,"Velocity":83,"Duration":42094,"SoundDuration":42094,"Delta":31382312},{"NoteNumber":79,"Velocity":83,"Duration":42094,"SoundDuration":42094,"Delta":31424406},{"NoteNumber":81,"Velocity":83,"Duration":42094,"SoundDuration":42094,"Delta":31466501},{"NoteNumber":82,"Velocity":83,"Duration":86695,"SoundDuration":86695,"Delta":31508596},{"NoteNumber":50,"Velocity":71,"Duration":86695,"SoundDuration":86695,"Delta":31508596},{"NoteNumber":38,"Velocity":60,"Duration":86695,"SoundDuration":86695,"Delta":31508596},{"NoteNumber":81,"Velocity":92,"Duration":42094,"SoundDuration":42094,"Delta":31681986},{"NoteNumber":41,"Velocity":71,"Duration":84189,"SoundDuration":84189,"Delta":31681986},{"NoteNumber":53,"Velocity":84,"Duration":84189,"SoundDuration":84189,"Delta":31681986},{"NoteNumber":79,"Velocity":83,"Duration":42094,"SoundDuration":42094,"Delta":31724081},{"NoteNumber":77,"Velocity":83,"Duration":42094,"SoundDuration":42094,"Delta":31766175},{"NoteNumber":75,"Velocity":83,"Duration":42094,"SoundDuration":42094,"Delta":31808270},{"NoteNumber":74,"Velocity":83,"Duration":86455,"SoundDuration":86455,"Delta":31850365},{"NoteNumber":38,"Velocity":60,"Duration":86455,"SoundDuration":86455,"Delta":31850365},{"NoteNumber":50,"Velocity":71,"Duration":86455,"SoundDuration":86455,"Delta":31850365},{"NoteNumber":69,"Velocity":86,"Duration":85714,"SoundDuration":85714,"Delta":32023275},{"NoteNumber":81,"Velocity":86,"Duration":85714,"SoundDuration":85714,"Delta":32023275},{"NoteNumber":76,"Velocity":86,"Duration":85714,"SoundDuration":85714,"Delta":32023275},{"NoteNumber":40,"Velocity":71,"Duration":85714,"SoundDuration":85714,"Delta":32023275},{"NoteNumber":52,"Velocity":84,"Duration":85714,"SoundDuration":85714,"Delta":32023275},{"NoteNumber":76,"Velocity":86,"Duration":338982,"SoundDuration":338982,"Delta":32194704},{"NoteNumber":81,"Velocity":86,"Duration":338982,"SoundDuration":338982,"Delta":32194704},{"NoteNumber":69,"Velocity":86,"Duration":338982,"SoundDuration":338982,"Delta":32194704},{"NoteNumber":50,"Velocity":71,"Duration":84745,"SoundDuration":84745,"Delta":32194704},{"NoteNumber":38,"Velocity":60,"Duration":84745,"SoundDuration":84745,"Delta":32194704},{"NoteNumber":52,"Velocity":84,"Duration":84745,"SoundDuration":84745,"Delta":32364195},{"NoteNumber":40,"Velocity":71,"Duration":84745,"SoundDuration":84745,"Delta":32364195},{"NoteNumber":38,"Velocity":60,"Duration":84745,"SoundDuration":84745,"Delta":32533687},{"NoteNumber":50,"Velocity":71,"Duration":84745,"SoundDuration":84745,"Delta":32533687},{"NoteNumber":74,"Velocity":75,"Duration":42372,"SoundDuration":42372,"Delta":32703559},{"NoteNumber":53,"Velocity":62,"Duration":84745,"SoundDuration":84745,"Delta":32703559},{"NoteNumber":76,"Velocity":66,"Duration":42372,"SoundDuration":42372,"Delta":32745932},{"NoteNumber":77,"Velocity":66,"Duration":42372,"SoundDuration":42372,"Delta":32788305},{"NoteNumber":79,"Velocity":66,"Duration":42372,"SoundDuration":42372,"Delta":32830678},{"NoteNumber":81,"Velocity":66,"Duration":86455,"SoundDuration":86455,"Delta":32873051},{"NoteNumber":38,"Velocity":52,"Duration":86455,"SoundDuration":86455,"Delta":32873051},{"NoteNumber":79,"Velocity":77,"Duration":42372,"SoundDuration":42372,"Delta":33045961},{"NoteNumber":52,"Velocity":60,"Duration":84745,"SoundDuration":84745,"Delta":33045961},{"NoteNumber":77,"Velocity":65,"Duration":42372,"SoundDuration":42372,"Delta":33088334},{"NoteNumber":76,"Velocity":65,"Duration":42372,"SoundDuration":42372,"Delta":33130707},{"NoteNumber":74,"Velocity":65,"Duration":42372,"SoundDuration":42372,"Delta":33173080},{"NoteNumber":72,"Velocity":65,"Duration":86705,"SoundDuration":86705,"Delta":33215453},{"NoteNumber":38,"Velocity":51,"Duration":86705,"SoundDuration":86705,"Delta":33215453},{"NoteNumber":70,"Velocity":73,"Duration":42372,"SoundDuration":42372,"Delta":33388863},{"NoteNumber":50,"Velocity":59,"Duration":84745,"SoundDuration":84745,"Delta":33388863},{"NoteNumber":72,"Velocity":65,"Duration":42372,"SoundDuration":42372,"Delta":33431236},{"NoteNumber":74,"Velocity":64,"Duration":42372,"SoundDuration":42372,"Delta":33473609},{"NoteNumber":76,"Velocity":64,"Duration":42372,"SoundDuration":42372,"Delta":33515982},{"NoteNumber":77,"Velocity":64,"Duration":86455,"SoundDuration":86455,"Delta":33558355},{"NoteNumber":38,"Velocity":50,"Duration":86455,"SoundDuration":86455,"Delta":33558355},{"NoteNumber":76,"Velocity":72,"Duration":42214,"SoundDuration":42214,"Delta":33731265},{"NoteNumber":48,"Velocity":58,"Duration":84349,"SoundDuration":84349,"Delta":33731265},{"NoteNumber":74,"Velocity":64,"Duration":42134,"SoundDuration":42134,"Delta":33773479},{"NoteNumber":72,"Velocity":63,"Duration":42134,"SoundDuration":42134,"Delta":33815614},{"NoteNumber":70,"Velocity":63,"Duration":42134,"SoundDuration":42134,"Delta":33857749},{"NoteNumber":69,"Velocity":63,"Duration":86455,"SoundDuration":86455,"Delta":33899884},{"NoteNumber":38,"Velocity":49,"Duration":86455,"SoundDuration":86455,"Delta":33899884},{"NoteNumber":67,"Velocity":71,"Duration":42372,"SoundDuration":42372,"Delta":34072794},{"NoteNumber":46,"Velocity":57,"Duration":84745,"SoundDuration":84745,"Delta":34072794},{"NoteNumber":69,"Velocity":63,"Duration":42372,"SoundDuration":42372,"Delta":34115167},{"NoteNumber":70,"Velocity":63,"Duration":42372,"SoundDuration":42372,"Delta":34157540},{"NoteNumber":72,"Velocity":62,"Duration":42372,"SoundDuration":42372,"Delta":34199913},{"NoteNumber":74,"Velocity":62,"Duration":86455,"SoundDuration":86455,"Delta":34242286},{"NoteNumber":38,"Velocity":48,"Duration":86455,"SoundDuration":86455,"Delta":34242286},{"NoteNumber":72,"Velocity":71,"Duration":42372,"SoundDuration":42372,"Delta":34415196},{"NoteNumber":45,"Velocity":56,"Duration":84745,"SoundDuration":84745,"Delta":34415196},{"NoteNumber":70,"Velocity":62,"Duration":42372,"SoundDuration":42372,"Delta":34457569},{"NoteNumber":69,"Velocity":62,"Duration":42372,"SoundDuration":42372,"Delta":34499942},{"NoteNumber":67,"Velocity":60,"Duration":42372,"SoundDuration":42372,"Delta":34542315},{"NoteNumber":65,"Velocity":60,"Duration":86455,"SoundDuration":86455,"Delta":34584688},{"NoteNumber":38,"Velocity":48,"Duration":86455,"SoundDuration":86455,"Delta":34584688},{"NoteNumber":64,"Velocity":60,"Duration":85714,"SoundDuration":85714,"Delta":34757598},{"NoteNumber":76,"Velocity":71,"Duration":85714,"SoundDuration":85714,"Delta":34757598},{"NoteNumber":69,"Velocity":60,"Duration":85714,"SoundDuration":85714,"Delta":34757598},{"NoteNumber":43,"Velocity":55,"Duration":85714,"SoundDuration":85714,"Delta":34757598},{"NoteNumber":69,"Velocity":61,"Duration":338028,"SoundDuration":338028,"Delta":34929027},{"NoteNumber":64,"Velocity":61,"Duration":338028,"SoundDuration":338028,"Delta":34929027},{"NoteNumber":76,"Velocity":72,"Duration":338028,"SoundDuration":338028,"Delta":34929027},{"NoteNumber":38,"Velocity":47,"Duration":84507,"SoundDuration":84507,"Delta":34929027},{"NoteNumber":43,"Velocity":54,"Duration":84507,"SoundDuration":84507,"Delta":35098041},{"NoteNumber":38,"Velocity":46,"Duration":84507,"SoundDuration":84507,"Delta":35267055},{"NoteNumber":70,"Velocity":58,"Duration":42372,"SoundDuration":42372,"Delta":35436069},{"NoteNumber":50,"Velocity":49,"Duration":84745,"SoundDuration":84745,"Delta":35436069},{"NoteNumber":72,"Velocity":54,"Duration":42372,"SoundDuration":42372,"Delta":35478442},{"NoteNumber":74,"Velocity":54,"Duration":42372,"SoundDuration":42372,"Delta":35520815},{"NoteNumber":76,"Velocity":54,"Duration":42372,"SoundDuration":42372,"Delta":35563188},{"NoteNumber":77,"Velocity":54,"Duration":86705,"SoundDuration":86705,"Delta":35605560},{"NoteNumber":38,"Velocity":41,"Duration":86705,"SoundDuration":86705,"Delta":35605560},{"NoteNumber":76,"Velocity":60,"Duration":42492,"SoundDuration":42492,"Delta":35778971},{"NoteNumber":48,"Velocity":48,"Duration":84985,"SoundDuration":84985,"Delta":35778971},{"NoteNumber":74,"Velocity":54,"Duration":42492,"SoundDuration":42492,"Delta":35821464},{"NoteNumber":72,"Velocity":54,"Duration":42492,"SoundDuration":42492,"Delta":35863957},{"NoteNumber":70,"Velocity":54,"Duration":42492,"SoundDuration":42492,"Delta":35906450},{"NoteNumber":69,"Velocity":55,"Duration":86705,"SoundDuration":86705,"Delta":35948942},{"NoteNumber":38,"Velocity":41,"Duration":86705,"SoundDuration":86705,"Delta":35948942},{"NoteNumber":67,"Velocity":59,"Duration":42492,"SoundDuration":42492,"Delta":36122353},{"NoteNumber":46,"Velocity":48,"Duration":84985,"SoundDuration":84985,"Delta":36122353},{"NoteNumber":69,"Velocity":54,"Duration":42492,"SoundDuration":42492,"Delta":36164846},{"NoteNumber":70,"Velocity":54,"Duration":42492,"SoundDuration":42492,"Delta":36207339},{"NoteNumber":72,"Velocity":54,"Duration":42492,"SoundDuration":42492,"Delta":36249832},{"NoteNumber":74,"Velocity":52,"Duration":86705,"SoundDuration":86705,"Delta":36292324},{"NoteNumber":38,"Velocity":40,"Duration":86705,"SoundDuration":86705,"Delta":36292324},{"NoteNumber":72,"Velocity":56,"Duration":42492,"SoundDuration":42492,"Delta":36465735},{"NoteNumber":45,"Velocity":47,"Duration":84985,"SoundDuration":84985,"Delta":36465735},{"NoteNumber":70,"Velocity":52,"Duration":42492,"SoundDuration":42492,"Delta":36508228},{"NoteNumber":69,"Velocity":52,"Duration":42492,"SoundDuration":42492,"Delta":36550721},{"NoteNumber":67,"Velocity":52,"Duration":42492,"SoundDuration":42492,"Delta":36593214},{"NoteNumber":65,"Velocity":52,"Duration":86705,"SoundDuration":86705,"Delta":36635706},{"NoteNumber":38,"Velocity":40,"Duration":86705,"SoundDuration":86705,"Delta":36635706},{"NoteNumber":63,"Velocity":56,"Duration":42492,"SoundDuration":42492,"Delta":36809117},{"NoteNumber":43,"Velocity":47,"Duration":84985,"SoundDuration":84985,"Delta":36809117},{"NoteNumber":65,"Velocity":51,"Duration":42492,"SoundDuration":42492,"Delta":36851610},{"NoteNumber":67,"Velocity":51,"Duration":42492,"SoundDuration":42492,"Delta":36894103},{"NoteNumber":69,"Velocity":51,"Duration":42492,"SoundDuration":42492,"Delta":36936596},{"NoteNumber":70,"Velocity":51,"Duration":86705,"SoundDuration":86705,"Delta":36979088},{"NoteNumber":38,"Velocity":40,"Duration":86705,"SoundDuration":86705,"Delta":36979088},{"NoteNumber":69,"Velocity":55,"Duration":42492,"SoundDuration":42492,"Delta":37152499},{"NoteNumber":41,"Velocity":46,"Duration":84985,"SoundDuration":84985,"Delta":37152499},{"NoteNumber":67,"Velocity":50,"Duration":42492,"SoundDuration":42492,"Delta":37194992},{"NoteNumber":65,"Velocity":50,"Duration":42492,"SoundDuration":42492,"Delta":37237485},{"NoteNumber":63,"Velocity":50,"Duration":42492,"SoundDuration":42492,"Delta":37279978},{"NoteNumber":62,"Velocity":50,"Duration":86705,"SoundDuration":86705,"Delta":37322470},{"NoteNumber":38,"Velocity":39,"Duration":86705,"SoundDuration":86705,"Delta":37322470},{"NoteNumber":57,"Velocity":43,"Duration":86167,"SoundDuration":86167,"Delta":37495881},{"NoteNumber":64,"Velocity":43,"Duration":86167,"SoundDuration":86167,"Delta":37495881},{"NoteNumber":69,"Velocity":51,"Duration":86167,"SoundDuration":86167,"Delta":37495881},{"NoteNumber":40,"Velocity":46,"Duration":86167,"SoundDuration":86167,"Delta":37495881},{"NoteNumber":57,"Velocity":44,"Duration":338982,"SoundDuration":338982,"Delta":37668009},{"NoteNumber":69,"Velocity":52,"Duration":338982,"SoundDuration":338982,"Delta":37668009},{"NoteNumber":64,"Velocity":44,"Duration":338982,"SoundDuration":338982,"Delta":37668009},{"NoteNumber":38,"Velocity":37,"Duration":84745,"SoundDuration":84745,"Delta":37668009},{"NoteNumber":40,"Velocity":44,"Duration":84745,"SoundDuration":84745,"Delta":37837500},{"NoteNumber":38,"Velocity":37,"Duration":84745,"SoundDuration":84745,"Delta":38006992},{"NoteNumber":86,"Velocity":59,"Duration":42492,"SoundDuration":42492,"Delta":38176483},{"NoteNumber":39,"Velocity":47,"Duration":84985,"SoundDuration":84985,"Delta":38176483},{"NoteNumber":84,"Velocity":47,"Duration":42492,"SoundDuration":42492,"Delta":38218976},{"NoteNumber":82,"Velocity":47,"Duration":42492,"SoundDuration":42492,"Delta":38261469},{"NoteNumber":81,"Velocity":47,"Duration":42492,"SoundDuration":42492,"Delta":38303962},{"NoteNumber":79,"Velocity":51,"Duration":87209,"SoundDuration":87209,"Delta":38346455},{"NoteNumber":45,"Velocity":41,"Duration":87209,"SoundDuration":87209,"Delta":38346455},{"NoteNumber":74,"Velocity":60,"Duration":42613,"SoundDuration":42613,"Delta":38520873},{"NoteNumber":39,"Velocity":47,"Duration":85227,"SoundDuration":85227,"Delta":38520873},{"NoteNumber":72,"Velocity":47,"Duration":42613,"SoundDuration":42613,"Delta":38563487},{"NoteNumber":70,"Velocity":47,"Duration":42613,"SoundDuration":42613,"Delta":38606101},{"NoteNumber":69,"Velocity":47,"Duration":42613,"SoundDuration":42613,"Delta":38648714},{"NoteNumber":67,"Velocity":51,"Duration":87209,"SoundDuration":87209,"Delta":38691328},{"NoteNumber":45,"Velocity":41,"Duration":87209,"SoundDuration":87209,"Delta":38691328},{"NoteNumber":38,"Velocity":47,"Duration":87209,"SoundDuration":87209,"Delta":38865746},{"NoteNumber":69,"Velocity":51,"Duration":512819,"SoundDuration":512819,"Delta":39040165},{"NoteNumber":57,"Velocity":43,"Duration":512819,"SoundDuration":512819,"Delta":39040165},{"NoteNumber":64,"Velocity":43,"Duration":512819,"SoundDuration":512819,"Delta":39040165},{"NoteNumber":45,"Velocity":41,"Duration":85470,"SoundDuration":85470,"Delta":39040165},{"NoteNumber":38,"Velocity":48,"Duration":85470,"SoundDuration":85470,"Delta":39211105},{"NoteNumber":45,"Velocity":41,"Duration":85469,"SoundDuration":85469,"Delta":39382045},{"NoteNumber":86,"Velocity":59,"Duration":42857,"SoundDuration":42857,"Delta":39552985},{"NoteNumber":39,"Velocity":47,"Duration":85714,"SoundDuration":85714,"Delta":39552985},{"NoteNumber":84,"Velocity":47,"Duration":42857,"SoundDuration":42857,"Delta":39595842},{"NoteNumber":82,"Velocity":47,"Duration":42857,"SoundDuration":42857,"Delta":39638699},{"NoteNumber":81,"Velocity":47,"Duration":42857,"SoundDuration":42857,"Delta":39681556},{"NoteNumber":79,"Velocity":51,"Duration":87209,"SoundDuration":87209,"Delta":39724413},{"NoteNumber":45,"Velocity":41,"Duration":87209,"SoundDuration":87209,"Delta":39724413},{"NoteNumber":74,"Velocity":60,"Duration":42857,"SoundDuration":42857,"Delta":39898832},{"NoteNumber":39,"Velocity":47,"Duration":85714,"SoundDuration":85714,"Delta":39898832},{"NoteNumber":72,"Velocity":47,"Duration":42857,"SoundDuration":42857,"Delta":39941689},{"NoteNumber":70,"Velocity":47,"Duration":42857,"SoundDuration":42857,"Delta":39984546},{"NoteNumber":69,"Velocity":47,"Duration":42857,"SoundDuration":42857,"Delta":40027403},{"NoteNumber":67,"Velocity":51,"Duration":87209,"SoundDuration":87209,"Delta":40070260},{"NoteNumber":45,"Velocity":41,"Duration":87209,"SoundDuration":87209,"Delta":40070260},{"NoteNumber":38,"Velocity":47,"Duration":86705,"SoundDuration":86705,"Delta":40244679},{"NoteNumber":69,"Velocity":43,"Duration":86705,"SoundDuration":86705,"Delta":40418089},{"NoteNumber":64,"Velocity":36,"Duration":86705,"SoundDuration":86705,"Delta":40418089},{"NoteNumber":57,"Velocity":36,"Duration":86705,"SoundDuration":86705,"Delta":40418089},{"NoteNumber":45,"Velocity":41,"Duration":86705,"SoundDuration":86705,"Delta":40418089},{"NoteNumber":74,"Velocity":51,"Duration":42372,"SoundDuration":42372,"Delta":40591500},{"NoteNumber":39,"Velocity":48,"Duration":84745,"SoundDuration":84745,"Delta":40591500},{"NoteNumber":72,"Velocity":46,"Duration":42372,"SoundDuration":42372,"Delta":40633873},{"NoteNumber":70,"Velocity":46,"Duration":42372,"SoundDuration":42372,"Delta":40676246},{"NoteNumber":69,"Velocity":46,"Duration":42372,"SoundDuration":42372,"Delta":40718619},{"NoteNumber":67,"Velocity":50,"Duration":84745,"SoundDuration":84745,"Delta":40760991},{"NoteNumber":45,"Velocity":39,"Duration":84745,"SoundDuration":84745,"Delta":40760991},{"NoteNumber":38,"Velocity":43,"Duration":85470,"SoundDuration":85470,"Delta":40930483},{"NoteNumber":69,"Velocity":43,"Duration":85470,"SoundDuration":85470,"Delta":41101423},{"NoteNumber":64,"Velocity":36,"Duration":85470,"SoundDuration":85470,"Delta":41101423},{"NoteNumber":57,"Velocity":36,"Duration":85470,"SoundDuration":85470,"Delta":41101423},{"NoteNumber":45,"Velocity":41,"Duration":85470,"SoundDuration":85470,"Delta":41101423},{"NoteNumber":74,"Velocity":42,"Duration":42134,"SoundDuration":42134,"Delta":41272363},{"NoteNumber":39,"Velocity":43,"Duration":84269,"SoundDuration":84269,"Delta":41272363},{"NoteNumber":72,"Velocity":42,"Duration":42134,"SoundDuration":42134,"Delta":41314498},{"NoteNumber":70,"Velocity":42,"Duration":42134,"SoundDuration":42134,"Delta":41356633},{"NoteNumber":69,"Velocity":42,"Duration":42134,"SoundDuration":42134,"Delta":41398768},{"NoteNumber":67,"Velocity":40,"Duration":84269,"SoundDuration":84269,"Delta":41440902},{"NoteNumber":45,"Velocity":36,"Duration":84269,"SoundDuration":84269,"Delta":41440902},{"NoteNumber":38,"Velocity":43,"Duration":82872,"SoundDuration":82872,"Delta":41609442},{"NoteNumber":57,"Velocity":34,"Duration":82872,"SoundDuration":82872,"Delta":41775188},{"NoteNumber":69,"Velocity":40,"Duration":82872,"SoundDuration":82872,"Delta":41775188},{"NoteNumber":64,"Velocity":34,"Duration":82872,"SoundDuration":82872,"Delta":41775188},{"NoteNumber":45,"Velocity":39,"Duration":82872,"SoundDuration":82872,"Delta":41775188},{"NoteNumber":74,"Velocity":40,"Duration":41899,"SoundDuration":41899,"Delta":41941167},{"NoteNumber":39,"Velocity":42,"Duration":83798,"SoundDuration":83798,"Delta":41941167},{"NoteNumber":72,"Velocity":40,"Duration":41899,"SoundDuration":41899,"Delta":41983066},{"NoteNumber":70,"Velocity":40,"Duration":41899,"SoundDuration":41899,"Delta":42024966},{"NoteNumber":69,"Velocity":39,"Duration":41899,"SoundDuration":41899,"Delta":42066865},{"NoteNumber":67,"Velocity":36,"Duration":83798,"SoundDuration":83798,"Delta":42108765},{"NoteNumber":45,"Velocity":34,"Duration":83798,"SoundDuration":83798,"Delta":42108765},{"NoteNumber":38,"Velocity":39,"Duration":82644,"SoundDuration":82644,"Delta":42276363},{"NoteNumber":57,"Velocity":30,"Duration":82644,"SoundDuration":82644,"Delta":42441652},{"NoteNumber":64,"Velocity":30,"Duration":82644,"SoundDuration":82644,"Delta":42441652},{"NoteNumber":69,"Velocity":36,"Duration":82644,"SoundDuration":82644,"Delta":42441652},{"NoteNumber":45,"Velocity":36,"Duration":82644,"SoundDuration":82644,"Delta":42441652},{"NoteNumber":74,"Velocity":37,"Duration":41782,"SoundDuration":41782,"Delta":42607213},{"NoteNumber":39,"Velocity":37,"Duration":83565,"SoundDuration":83565,"Delta":42607213},{"NoteNumber":72,"Velocity":37,"Duration":41782,"SoundDuration":41782,"Delta":42648995},{"NoteNumber":70,"Velocity":37,"Duration":41782,"SoundDuration":41782,"Delta":42690778},{"NoteNumber":69,"Velocity":37,"Duration":41782,"SoundDuration":41782,"Delta":42732561},{"NoteNumber":67,"Velocity":35,"Duration":83565,"SoundDuration":83565,"Delta":42774344},{"NoteNumber":45,"Velocity":32,"Duration":83565,"SoundDuration":83565,"Delta":42774344},{"NoteNumber":38,"Velocity":41,"Duration":91463,"SoundDuration":91463,"Delta":42941475},{"NoteNumber":45,"Velocity":39,"Duration":91463,"SoundDuration":91463,"Delta":43124402},{"NoteNumber":38,"Velocity":41,"Duration":91463,"SoundDuration":91463,"Delta":43307329},{"NoteNumber":50,"Velocity":46,"Duration":44032,"SoundDuration":44032,"Delta":43489848},{"NoteNumber":45,"Velocity":39,"Duration":88064,"SoundDuration":88064,"Delta":43489848},{"NoteNumber":52,"Velocity":46,"Duration":44032,"SoundDuration":44032,"Delta":43533881},{"NoteNumber":53,"Velocity":46,"Duration":44032,"SoundDuration":44032,"Delta":43577913},{"NoteNumber":55,"Velocity":46,"Duration":44032,"SoundDuration":44032,"Delta":43621945},{"NoteNumber":57,"Velocity":50,"Duration":90760,"SoundDuration":90760,"Delta":43665977},{"NoteNumber":38,"Velocity":41,"Duration":90760,"SoundDuration":90760,"Delta":43665977},{"NoteNumber":53,"Velocity":36,"Duration":89933,"SoundDuration":89933,"Delta":43847498},{"NoteNumber":50,"Velocity":36,"Duration":89933,"SoundDuration":89933,"Delta":43847498},{"NoteNumber":62,"Velocity":43,"Duration":89933,"SoundDuration":89933,"Delta":43847498},{"NoteNumber":45,"Velocity":39,"Duration":89933,"SoundDuration":89933,"Delta":43847498},{"NoteNumber":50,"Velocity":36,"Duration":90481,"SoundDuration":90481,"Delta":44027365},{"NoteNumber":53,"Velocity":36,"Duration":90481,"SoundDuration":90481,"Delta":44027365},{"NoteNumber":62,"Velocity":43,"Duration":90481,"SoundDuration":90481,"Delta":44027365},{"NoteNumber":38,"Velocity":41,"Duration":90481,"SoundDuration":90481,"Delta":44027365},{"NoteNumber":50,"Velocity":36,"Duration":89121,"SoundDuration":89121,"Delta":44208327},{"NoteNumber":61,"Velocity":43,"Duration":89121,"SoundDuration":89121,"Delta":44208327},{"NoteNumber":53,"Velocity":36,"Duration":89121,"SoundDuration":89121,"Delta":44208327},{"NoteNumber":45,"Velocity":39,"Duration":89121,"SoundDuration":89121,"Delta":44208327},{"NoteNumber":50,"Velocity":39,"Duration":90209,"SoundDuration":90209,"Delta":44386570},{"NoteNumber":61,"Velocity":46,"Duration":90209,"SoundDuration":90209,"Delta":44386570},{"NoteNumber":53,"Velocity":39,"Duration":90209,"SoundDuration":90209,"Delta":44386570},{"NoteNumber":38,"Velocity":41,"Duration":90209,"SoundDuration":90209,"Delta":44386570},{"NoteNumber":53,"Velocity":36,"Duration":88328,"SoundDuration":88328,"Delta":44566988},{"NoteNumber":50,"Velocity":36,"Duration":88328,"SoundDuration":88328,"Delta":44566988},{"NoteNumber":60,"Velocity":43,"Duration":88328,"SoundDuration":88328,"Delta":44566988},{"NoteNumber":45,"Velocity":39,"Duration":88328,"SoundDuration":88328,"Delta":44566988},{"NoteNumber":53,"Velocity":36,"Duration":89121,"SoundDuration":89121,"Delta":44743646},{"NoteNumber":50,"Velocity":36,"Duration":89121,"SoundDuration":89121,"Delta":44743646},{"NoteNumber":60,"Velocity":43,"Duration":89121,"SoundDuration":89121,"Delta":44743646},{"NoteNumber":38,"Velocity":41,"Duration":89121,"SoundDuration":89121,"Delta":44743646},{"NoteNumber":50,"Velocity":36,"Duration":86775,"SoundDuration":86775,"Delta":44921888},{"NoteNumber":53,"Velocity":36,"Duration":86775,"SoundDuration":86775,"Delta":44921888},{"NoteNumber":59,"Velocity":43,"Duration":86775,"SoundDuration":86775,"Delta":44921888},{"NoteNumber":45,"Velocity":39,"Duration":86775,"SoundDuration":86775,"Delta":44921888},{"NoteNumber":50,"Velocity":39,"Duration":89121,"SoundDuration":89121,"Delta":45095439},{"NoteNumber":59,"Velocity":46,"Duration":89121,"SoundDuration":89121,"Delta":45095439},{"NoteNumber":53,"Velocity":39,"Duration":89121,"SoundDuration":89121,"Delta":45095439},{"NoteNumber":38,"Velocity":41,"Duration":89121,"SoundDuration":89121,"Delta":45095439},{"NoteNumber":50,"Velocity":35,"Duration":87806,"SoundDuration":87806,"Delta":45273682},{"NoteNumber":58,"Velocity":42,"Duration":87806,"SoundDuration":87806,"Delta":45273682},{"NoteNumber":53,"Velocity":35,"Duration":87806,"SoundDuration":87806,"Delta":45273682},{"NoteNumber":45,"Velocity":37,"Duration":87806,"SoundDuration":87806,"Delta":45273682},{"NoteNumber":53,"Velocity":35,"Duration":90634,"SoundDuration":90634,"Delta":45449295},{"NoteNumber":50,"Velocity":35,"Duration":90634,"SoundDuration":90634,"Delta":45449295},{"NoteNumber":58,"Velocity":42,"Duration":90634,"SoundDuration":90634,"Delta":45449295},{"NoteNumber":38,"Velocity":41,"Duration":90634,"SoundDuration":90634,"Delta":45449295},{"NoteNumber":53,"Velocity":34,"Duration":884903,"SoundDuration":884903,"Delta":45630564},{"NoteNumber":57,"Velocity":41,"Duration":884903,"SoundDuration":884903,"Delta":45630564},{"NoteNumber":50,"Velocity":34,"Duration":884903,"SoundDuration":884903,"Delta":45630564},{"NoteNumber":45,"Velocity":37,"Duration":88487,"SoundDuration":88487,"Delta":45630564},{"NoteNumber":38,"Velocity":43,"Duration":88495,"SoundDuration":88495,"Delta":45807547},{"NoteNumber":45,"Velocity":40,"Duration":88495,"SoundDuration":88495,"Delta":45984538},{"NoteNumber":38,"Velocity":43,"Duration":88495,"SoundDuration":88495,"Delta":46161529},{"NoteNumber":45,"Velocity":41,"Duration":88495,"SoundDuration":88495,"Delta":46338520},{"NoteNumber":38,"Velocity":42,"Duration":88235,"SoundDuration":88235,"Delta":46515468},{"NoteNumber":45,"Velocity":40,"Duration":88757,"SoundDuration":88757,"Delta":46692198},{"NoteNumber":50,"Velocity":42,"Duration":89285,"SoundDuration":89285,"Delta":46869977},{"NoteNumber":57,"Velocity":40,"Duration":89820,"SoundDuration":89820,"Delta":47048815},{"NoteNumber":62,"Velocity":40,"Duration":90407,"SoundDuration":90407,"Delta":47228725},{"NoteNumber":69,"Velocity":39,"Duration":92498,"SoundDuration":92498,"Delta":47410597},{"NoteNumber":74,"Velocity":36,"Duration":99667,"SoundDuration":99667,"Delta":47597687},{"NoteNumber":81,"Velocity":42,"Duration":1765918,"SoundDuration":1765918,"Delta":47804967},{"NoteNumber":74,"Velocity":27,"Duration":1093830,"SoundDuration":1093830,"Delta":49030344},{"NoteNumber":78,"Velocity":27,"Duration":1093830,"SoundDuration":1093830,"Delta":49030344},{"NoteNumber":62,"Velocity":27,"Duration":1093830,"SoundDuration":1093830,"Delta":49030344},{"NoteNumber":69,"Velocity":27,"Duration":1093830,"SoundDuration":1093830,"Delta":49030344},{"NoteNumber":83,"Velocity":48,"Duration":270270,"SoundDuration":270270,"Delta":49570885},{"NoteNumber":85,"Velocity":48,"Duration":283019,"SoundDuration":283019,"Delta":49841156},{"NoteNumber":74,"Velocity":27,"Duration":1066923,"SoundDuration":1066923,"Delta":50124175},{"NoteNumber":86,"Velocity":52,"Duration":528633,"SoundDuration":528633,"Delta":50124175},{"NoteNumber":66,"Velocity":27,"Duration":1066923,"SoundDuration":1066923,"Delta":50124175},{"NoteNumber":71,"Velocity":27,"Duration":1066923,"SoundDuration":1066923,"Delta":50124175},{"NoteNumber":59,"Velocity":27,"Duration":1066923,"SoundDuration":1066923,"Delta":50124175},{"NoteNumber":85,"Velocity":48,"Duration":264317,"SoundDuration":264317,"Delta":50652809},{"NoteNumber":83,"Velocity":48,"Duration":273972,"SoundDuration":273972,"Delta":50917126},{"NoteNumber":74,"Velocity":26,"Duration":1070432,"SoundDuration":1070432,"Delta":51191098},{"NoteNumber":78,"Velocity":26,"Duration":1070432,"SoundDuration":1070432,"Delta":51191098},{"NoteNumber":85,"Velocity":50,"Duration":265486,"SoundDuration":265486,"Delta":51191098},{"NoteNumber":62,"Velocity":27,"Duration":1070432,"SoundDuration":1070432,"Delta":51191098},{"NoteNumber":69,"Velocity":27,"Duration":1070432,"SoundDuration":1070432,"Delta":51191098},{"NoteNumber":81,"Velocity":48,"Duration":530973,"SoundDuration":530973,"Delta":51456585},{"NoteNumber":85,"Velocity":46,"Duration":205479,"SoundDuration":205479,"Delta":51987558},{"NoteNumber":85,"Velocity":39,"Duration":68493,"SoundDuration":68493,"Delta":52193037},{"NoteNumber":74,"Velocity":23,"Duration":1066665,"SoundDuration":1066665,"Delta":52261530},{"NoteNumber":78,"Velocity":42,"Duration":1066665,"SoundDuration":1066665,"Delta":52261530},{"NoteNumber":71,"Velocity":23,"Duration":1066665,"SoundDuration":1066665,"Delta":52261530},{"NoteNumber":59,"Velocity":23,"Duration":1066665,"SoundDuration":1066665,"Delta":52261530},{"NoteNumber":66,"Velocity":23,"Duration":1066665,"SoundDuration":1066665,"Delta":52261530},{"NoteNumber":81,"Velocity":48,"Duration":530973,"SoundDuration":530973,"Delta":53328196},{"NoteNumber":74,"Velocity":27,"Duration":1069186,"SoundDuration":1069186,"Delta":53328196},{"NoteNumber":78,"Velocity":27,"Duration":1069186,"SoundDuration":1069186,"Delta":53328196},{"NoteNumber":62,"Velocity":36,"Duration":530973,"SoundDuration":530973,"Delta":53328196},{"NoteNumber":69,"Velocity":27,"Duration":1069186,"SoundDuration":1069186,"Delta":53328196},{"NoteNumber":83,"Velocity":48,"Duration":265486,"SoundDuration":265486,"Delta":53859169},{"NoteNumber":61,"Velocity":36,"Duration":538213,"SoundDuration":538213,"Delta":53859169},{"NoteNumber":85,"Velocity":48,"Duration":272727,"SoundDuration":272727,"Delta":54124656},{"NoteNumber":74,"Velocity":27,"Duration":1066729,"SoundDuration":1066729,"Delta":54397383},{"NoteNumber":86,"Velocity":52,"Duration":530973,"SoundDuration":530973,"Delta":54397383},{"NoteNumber":71,"Velocity":27,"Duration":1066729,"SoundDuration":1066729,"Delta":54397383},{"NoteNumber":66,"Velocity":37,"Duration":530973,"SoundDuration":530973,"Delta":54397383},{"NoteNumber":59,"Velocity":27,"Duration":1066729,"SoundDuration":1066729,"Delta":54397383},{"NoteNumber":85,"Velocity":48,"Duration":265486,"SoundDuration":265486,"Delta":54928356},{"NoteNumber":65,"Velocity":35,"Duration":535756,"SoundDuration":535756,"Delta":54928356},{"NoteNumber":83,"Velocity":48,"Duration":270270,"SoundDuration":270270,"Delta":55193843},{"NoteNumber":74,"Velocity":26,"Duration":1064959,"SoundDuration":1064959,"Delta":55464113},{"NoteNumber":85,"Velocity":50,"Duration":264316,"SoundDuration":264316,"Delta":55464113},{"NoteNumber":69,"Velocity":40,"Duration":529803,"SoundDuration":529803,"Delta":55464113},{"NoteNumber":64,"Velocity":27,"Duration":1064959,"SoundDuration":1064959,"Delta":55464113},{"NoteNumber":78,"Velocity":48,"Duration":533976,"SoundDuration":533976,"Delta":55728430},{"NoteNumber":68,"Velocity":37,"Duration":535156,"SoundDuration":535156,"Delta":55993917},{"NoteNumber":85,"Velocity":46,"Duration":199999,"SoundDuration":199999,"Delta":56262406},{"NoteNumber":85,"Velocity":39,"Duration":66666,"SoundDuration":66666,"Delta":56462406},{"NoteNumber":73,"Velocity":23,"Duration":1052632,"SoundDuration":1052632,"Delta":56529073},{"NoteNumber":81,"Velocity":42,"Duration":1052632,"SoundDuration":1052632,"Delta":56529073},{"NoteNumber":64,"Velocity":35,"Duration":526316,"SoundDuration":526316,"Delta":56529073},{"NoteNumber":69,"Velocity":23,"Duration":1050439,"SoundDuration":1050439,"Delta":56529073},{"NoteNumber":57,"Velocity":23,"Duration":1052632,"SoundDuration":1052632,"Delta":56529073},{"NoteNumber":65,"Velocity":33,"Duration":526316,"SoundDuration":526316,"Delta":57055389},{"NoteNumber":69,"Velocity":42,"Duration":528633,"SoundDuration":528633,"Delta":57581705},{"NoteNumber":62,"Velocity":27,"Duration":795331,"SoundDuration":795331,"Delta":57846022},{"NoteNumber":66,"Velocity":27,"Duration":795331,"SoundDuration":795331,"Delta":57846022},{"NoteNumber":57,"Velocity":27,"Duration":795331,"SoundDuration":795331,"Delta":57846022},{"NoteNumber":50,"Velocity":21,"Duration":795331,"SoundDuration":795331,"Delta":57846022},{"NoteNumber":71,"Velocity":42,"Duration":263157,"SoundDuration":263157,"Delta":58110339},{"NoteNumber":73,"Velocity":42,"Duration":267856,"SoundDuration":267856,"Delta":58373497},{"NoteNumber":74,"Velocity":47,"Duration":528633,"SoundDuration":528633,"Delta":58641354},{"NoteNumber":62,"Velocity":27,"Duration":800127,"SoundDuration":800127,"Delta":58905671},{"NoteNumber":47,"Velocity":21,"Duration":800127,"SoundDuration":800127,"Delta":58905671},{"NoteNumber":59,"Velocity":27,"Duration":800127,"SoundDuration":800127,"Delta":58905671},{"NoteNumber":54,"Velocity":21,"Duration":800127,"SoundDuration":800127,"Delta":58905671},{"NoteNumber":73,"Velocity":42,"Duration":264317,"SoundDuration":264317,"Delta":59169988},{"NoteNumber":71,"Velocity":42,"Duration":271492,"SoundDuration":271492,"Delta":59434305},{"NoteNumber":73,"Velocity":44,"Duration":262008,"SoundDuration":262008,"Delta":59705798},{"NoteNumber":66,"Velocity":26,"Duration":801361,"SoundDuration":801361,"Delta":59967806},{"NoteNumber":62,"Velocity":26,"Duration":801361,"SoundDuration":801361,"Delta":59967806},{"NoteNumber":57,"Velocity":27,"Duration":801361,"SoundDuration":801361,"Delta":59967806},{"NoteNumber":50,"Velocity":21,"Duration":801361,"SoundDuration":801361,"Delta":59967806},{"NoteNumber":69,"Velocity":42,"Duration":264316,"SoundDuration":264316,"Delta":60232123},{"NoteNumber":73,"Velocity":41,"Duration":204545,"SoundDuration":204545,"Delta":60496440},{"NoteNumber":73,"Velocity":34,"Duration":68181,"SoundDuration":68181,"Delta":60700986},{"NoteNumber":66,"Velocity":37,"Duration":1061945,"SoundDuration":1061945,"Delta":60769168},{"NoteNumber":62,"Velocity":23,"Duration":796459,"SoundDuration":796459,"Delta":61034654},{"NoteNumber":59,"Velocity":23,"Duration":796459,"SoundDuration":796459,"Delta":61034654},{"NoteNumber":47,"Velocity":18,"Duration":796459,"SoundDuration":796459,"Delta":61034654},{"NoteNumber":54,"Velocity":18,"Duration":796459,"SoundDuration":796459,"Delta":61034654},{"NoteNumber":69,"Velocity":42,"Duration":530973,"SoundDuration":530973,"Delta":61831114},{"NoteNumber":62,"Velocity":27,"Duration":796553,"SoundDuration":796553,"Delta":62096600},{"NoteNumber":66,"Velocity":27,"Duration":796553,"SoundDuration":796553,"Delta":62096600},{"NoteNumber":57,"Velocity":27,"Duration":796553,"SoundDuration":796553,"Delta":62096600},{"NoteNumber":50,"Velocity":35,"Duration":527495,"SoundDuration":527495,"Delta":62096600},{"NoteNumber":71,"Velocity":42,"Duration":262008,"SoundDuration":262008,"Delta":62362087},{"NoteNumber":73,"Velocity":42,"Duration":269058,"SoundDuration":269058,"Delta":62624095},{"NoteNumber":49,"Velocity":34,"Duration":269058,"SoundDuration":269058,"Delta":62624095},{"NoteNumber":74,"Velocity":47,"Duration":530973,"SoundDuration":530973,"Delta":62893154},{"NoteNumber":62,"Velocity":27,"Duration":803700,"SoundDuration":803700,"Delta":63158640},{"NoteNumber":47,"Velocity":31,"Duration":803700,"SoundDuration":803700,"Delta":63158640},{"NoteNumber":59,"Velocity":31,"Duration":803700,"SoundDuration":803700,"Delta":63158640},{"NoteNumber":54,"Velocity":39,"Duration":530972,"SoundDuration":530972,"Delta":63158640},{"NoteNumber":73,"Velocity":44,"Duration":265486,"SoundDuration":265486,"Delta":63424127},{"NoteNumber":71,"Velocity":46,"Duration":272727,"SoundDuration":272727,"Delta":63689613},{"NoteNumber":53,"Velocity":35,"Duration":272727,"SoundDuration":272727,"Delta":63689613},{"NoteNumber":73,"Velocity":51,"Duration":532174,"SoundDuration":532174,"Delta":63962341},{"NoteNumber":40,"Velocity":27,"Duration":885163,"SoundDuration":885163,"Delta":64160579},{"NoteNumber":62,"Velocity":35,"Duration":819084,"SoundDuration":819084,"Delta":64226658},{"NoteNumber":57,"Velocity":35,"Duration":539350,"SoundDuration":539350,"Delta":64226658},{"NoteNumber":66,"Velocity":42,"Duration":271493,"SoundDuration":271493,"Delta":64494515},{"NoteNumber":73,"Velocity":41,"Duration":209311,"SoundDuration":209311,"Delta":64766008},{"NoteNumber":56,"Velocity":34,"Duration":279734,"SoundDuration":279734,"Delta":64766008},{"NoteNumber":73,"Velocity":34,"Duration":70422,"SoundDuration":70422,"Delta":64975319},{"NoteNumber":69,"Velocity":37,"Duration":1095889,"SoundDuration":1095889,"Delta":65045742},{"NoteNumber":61,"Velocity":23,"Duration":821917,"SoundDuration":821917,"Delta":65319714},{"NoteNumber":52,"Velocity":18,"Duration":821917,"SoundDuration":821917,"Delta":65319714},{"NoteNumber":57,"Velocity":23,"Duration":821917,"SoundDuration":821917,"Delta":65319714},{"NoteNumber":45,"Velocity":18,"Duration":821917,"SoundDuration":821917,"Delta":65319714},{"NoteNumber":57,"Velocity":35,"Duration":84388,"SoundDuration":84388,"Delta":66141632},{"NoteNumber":67,"Velocity":35,"Duration":84388,"SoundDuration":84388,"Delta":66226020},{"NoteNumber":73,"Velocity":35,"Duration":84388,"SoundDuration":84388,"Delta":66310408},{"NoteNumber":76,"Velocity":35,"Duration":84388,"SoundDuration":84388,"Delta":66394796},{"NoteNumber":79,"Velocity":35,"Duration":84388,"SoundDuration":84388,"Delta":66479185},{"NoteNumber":88,"Velocity":35,"Duration":84388,"SoundDuration":84388,"Delta":66563573},{"NoteNumber":83,"Velocity":41,"Duration":506329,"SoundDuration":506329,"Delta":66647961},{"NoteNumber":79,"Velocity":40,"Duration":506329,"SoundDuration":506329,"Delta":66647961},{"NoteNumber":57,"Velocity":35,"Duration":84388,"SoundDuration":84388,"Delta":67154290},{"NoteNumber":67,"Velocity":35,"Duration":84388,"SoundDuration":84388,"Delta":67238678},{"NoteNumber":73,"Velocity":35,"Duration":84388,"SoundDuration":84388,"Delta":67323066},{"NoteNumber":76,"Velocity":35,"Duration":84388,"SoundDuration":84388,"Delta":67407454},{"NoteNumber":79,"Velocity":35,"Duration":84388,"SoundDuration":84388,"Delta":67491843},{"NoteNumber":88,"Velocity":35,"Duration":84388,"SoundDuration":84388,"Delta":67576231},{"NoteNumber":83,"Velocity":41,"Duration":506329,"SoundDuration":506329,"Delta":67660619},{"NoteNumber":79,"Velocity":40,"Duration":506329,"SoundDuration":506329,"Delta":67660619},{"NoteNumber":57,"Velocity":40,"Duration":117952,"SoundDuration":117952,"Delta":68166948},{"NoteNumber":67,"Velocity":40,"Duration":117178,"SoundDuration":117178,"Delta":68402455},{"NoteNumber":64,"Velocity":40,"Duration":117178,"SoundDuration":117178,"Delta":68402455},{"NoteNumber":73,"Velocity":36,"Duration":116795,"SoundDuration":116795,"Delta":68519633},{"NoteNumber":71,"Velocity":40,"Duration":116414,"SoundDuration":116414,"Delta":68636428},{"NoteNumber":67,"Velocity":39,"Duration":116414,"SoundDuration":116414,"Delta":68636428},{"NoteNumber":76,"Velocity":36,"Duration":116045,"SoundDuration":116045,"Delta":68752843},{"NoteNumber":74,"Velocity":40,"Duration":115660,"SoundDuration":115660,"Delta":68868888},{"NoteNumber":71,"Velocity":39,"Duration":115660,"SoundDuration":115660,"Delta":68868888},{"NoteNumber":79,"Velocity":36,"Duration":115286,"SoundDuration":115286,"Delta":68984549},{"NoteNumber":76,"Velocity":39,"Duration":114924,"SoundDuration":114924,"Delta":69099836},{"NoteNumber":73,"Velocity":37,"Duration":114924,"SoundDuration":114924,"Delta":69099836},{"NoteNumber":81,"Velocity":36,"Duration":114556,"SoundDuration":114556,"Delta":69214761},{"NoteNumber":79,"Velocity":39,"Duration":114198,"SoundDuration":114198,"Delta":69329317},{"NoteNumber":76,"Velocity":36,"Duration":114198,"SoundDuration":114198,"Delta":69329317},{"NoteNumber":85,"Velocity":35,"Duration":113834,"SoundDuration":113834,"Delta":69443516},{"NoteNumber":83,"Velocity":39,"Duration":114931,"SoundDuration":114931,"Delta":69557350},{"NoteNumber":79,"Velocity":36,"Duration":114931,"SoundDuration":114931,"Delta":69557350},{"NoteNumber":88,"Velocity":36,"Duration":115660,"SoundDuration":115660,"Delta":69672282},{"NoteNumber":53,"Velocity":35,"Duration":84466,"SoundDuration":84466,"Delta":70019263},{"NoteNumber":63,"Velocity":35,"Duration":84466,"SoundDuration":84466,"Delta":70103730},{"NoteNumber":69,"Velocity":35,"Duration":84466,"SoundDuration":84466,"Delta":70188197},{"NoteNumber":72,"Velocity":35,"Duration":84466,"SoundDuration":84466,"Delta":70272663},{"NoteNumber":75,"Velocity":35,"Duration":84466,"SoundDuration":84466,"Delta":70353962},{"NoteNumber":84,"Velocity":35,"Duration":84466,"SoundDuration":84466,"Delta":70441597},{"NoteNumber":79,"Velocity":40,"Duration":506799,"SoundDuration":506799,"Delta":70526063},{"NoteNumber":75,"Velocity":39,"Duration":506799,"SoundDuration":506799,"Delta":70526063},{"NoteNumber":53,"Velocity":35,"Duration":84466,"SoundDuration":84466,"Delta":71032863},{"NoteNumber":63,"Velocity":35,"Duration":84466,"SoundDuration":84466,"Delta":71117330},{"NoteNumber":69,"Velocity":35,"Duration":84466,"SoundDuration":84466,"Delta":71201797},{"NoteNumber":72,"Velocity":35,"Duration":84466,"SoundDuration":84466,"Delta":71286263},{"NoteNumber":75,"Velocity":35,"Duration":84466,"SoundDuration":84466,"Delta":71370730},{"NoteNumber":84,"Velocity":35,"Duration":84466,"SoundDuration":84466,"Delta":71455197},{"NoteNumber":79,"Velocity":40,"Duration":506799,"SoundDuration":506799,"Delta":71539663},{"NoteNumber":75,"Velocity":41,"Duration":506799,"SoundDuration":506799,"Delta":71539663},{"NoteNumber":53,"Velocity":40,"Duration":116045,"SoundDuration":116045,"Delta":72046463},{"NoteNumber":63,"Velocity":40,"Duration":115535,"SoundDuration":115535,"Delta":72278297},{"NoteNumber":60,"Velocity":40,"Duration":115535,"SoundDuration":115535,"Delta":72278297},{"NoteNumber":69,"Velocity":36,"Duration":115287,"SoundDuration":115287,"Delta":72393833},{"NoteNumber":67,"Velocity":40,"Duration":114924,"SoundDuration":114924,"Delta":72509120},{"NoteNumber":63,"Velocity":39,"Duration":114924,"SoundDuration":114924,"Delta":72509120},{"NoteNumber":72,"Velocity":36,"Duration":114679,"SoundDuration":114679,"Delta":72624045},{"NoteNumber":70,"Velocity":40,"Duration":114437,"SoundDuration":114437,"Delta":72738724},{"NoteNumber":67,"Velocity":39,"Duration":114437,"SoundDuration":114437,"Delta":72738724},{"NoteNumber":75,"Velocity":36,"Duration":114198,"SoundDuration":114198,"Delta":72853162},{"NoteNumber":72,"Velocity":39,"Duration":113834,"SoundDuration":113834,"Delta":72967360},{"NoteNumber":69,"Velocity":37,"Duration":113834,"SoundDuration":113834,"Delta":72967360},{"NoteNumber":77,"Velocity":36,"Duration":113593,"SoundDuration":113593,"Delta":73081195},{"NoteNumber":75,"Velocity":39,"Duration":113353,"SoundDuration":113353,"Delta":73194789},{"NoteNumber":72,"Velocity":36,"Duration":113353,"SoundDuration":113353,"Delta":73194789},{"NoteNumber":81,"Velocity":35,"Duration":113055,"SoundDuration":113055,"Delta":73308142},{"NoteNumber":79,"Velocity":39,"Duration":114931,"SoundDuration":114931,"Delta":73421197},{"NoteNumber":75,"Velocity":36,"Duration":114931,"SoundDuration":114931,"Delta":73421197},{"NoteNumber":84,"Velocity":36,"Duration":115660,"SoundDuration":115660,"Delta":73536129},{"NoteNumber":50,"Velocity":33,"Duration":114198,"SoundDuration":114198,"Delta":73883110},{"NoteNumber":60,"Velocity":33,"Duration":114198,"SoundDuration":114198,"Delta":74111508},{"NoteNumber":57,"Velocity":33,"Duration":114198,"SoundDuration":114198,"Delta":74111508},{"NoteNumber":66,"Velocity":31,"Duration":114198,"SoundDuration":114198,"Delta":74225707},{"NoteNumber":64,"Velocity":33,"Duration":114198,"SoundDuration":114198,"Delta":74339905},{"NoteNumber":60,"Velocity":32,"Duration":114198,"SoundDuration":114198,"Delta":74339905},{"NoteNumber":69,"Velocity":31,"Duration":114198,"SoundDuration":114198,"Delta":74454104},{"NoteNumber":67,"Velocity":33,"Duration":114198,"SoundDuration":114198,"Delta":74568303},{"NoteNumber":64,"Velocity":32,"Duration":114198,"SoundDuration":114198,"Delta":74568303},{"NoteNumber":72,"Velocity":31,"Duration":114198,"SoundDuration":114198,"Delta":74682502},{"NoteNumber":69,"Velocity":32,"Duration":113834,"SoundDuration":113834,"Delta":74796700},{"NoteNumber":66,"Velocity":31,"Duration":113834,"SoundDuration":113834,"Delta":74796700},{"NoteNumber":74,"Velocity":29,"Duration":114258,"SoundDuration":114258,"Delta":74910535},{"NoteNumber":72,"Velocity":31,"Duration":114679,"SoundDuration":114679,"Delta":75024793},{"NoteNumber":69,"Velocity":29,"Duration":114679,"SoundDuration":114679,"Delta":75024793},{"NoteNumber":78,"Velocity":27,"Duration":115105,"SoundDuration":115105,"Delta":75139473},{"NoteNumber":76,"Velocity":29,"Duration":115536,"SoundDuration":115536,"Delta":75254579},{"NoteNumber":72,"Velocity":28,"Duration":115536,"SoundDuration":115536,"Delta":75254579},{"NoteNumber":81,"Velocity":25,"Duration":115981,"SoundDuration":115981,"Delta":75370115},{"NoteNumber":79,"Velocity":24,"Duration":1101757,"SoundDuration":1101757,"Delta":77236387},{"NoteNumber":83,"Velocity":24,"Duration":1101757,"SoundDuration":1101757,"Delta":77236387},{"NoteNumber":86,"Velocity":44,"Duration":544837,"SoundDuration":544837,"Delta":77236387},{"NoteNumber":74,"Velocity":24,"Duration":1101757,"SoundDuration":1101757,"Delta":77236387},{"NoteNumber":67,"Velocity":24,"Duration":1101757,"SoundDuration":1101757,"Delta":77236387},{"NoteNumber":88,"Velocity":42,"Duration":275229,"SoundDuration":275229,"Delta":77781225},{"NoteNumber":90,"Velocity":42,"Duration":281689,"SoundDuration":281689,"Delta":78056454},{"NoteNumber":79,"Velocity":24,"Duration":1077543,"SoundDuration":1077543,"Delta":78338144},{"NoteNumber":91,"Velocity":47,"Duration":535713,"SoundDuration":535713,"Delta":78338144},{"NoteNumber":76,"Velocity":24,"Duration":1077543,"SoundDuration":1077543,"Delta":78338144},{"NoteNumber":71,"Velocity":24,"Duration":1077543,"SoundDuration":1077543,"Delta":78338144},{"NoteNumber":64,"Velocity":24,"Duration":1077543,"SoundDuration":1077543,"Delta":78338144},{"NoteNumber":90,"Velocity":42,"Duration":267857,"SoundDuration":267857,"Delta":78873858},{"NoteNumber":88,"Velocity":42,"Duration":273972,"SoundDuration":273972,"Delta":79141715},{"NoteNumber":79,"Velocity":23,"Duration":1073965,"SoundDuration":1073965,"Delta":79415688},{"NoteNumber":83,"Velocity":23,"Duration":1073965,"SoundDuration":1073965,"Delta":79415688},{"NoteNumber":90,"Velocity":44,"Duration":265486,"SoundDuration":265486,"Delta":79415688},{"NoteNumber":67,"Velocity":24,"Duration":1073965,"SoundDuration":1073965,"Delta":79415688},{"NoteNumber":74,"Velocity":24,"Duration":1073965,"SoundDuration":1073965,"Delta":79415688},{"NoteNumber":86,"Velocity":42,"Duration":536986,"SoundDuration":536986,"Delta":79681174},{"NoteNumber":90,"Velocity":41,"Duration":203619,"SoundDuration":203619,"Delta":80218160},{"NoteNumber":90,"Velocity":34,"Duration":67873,"SoundDuration":67873,"Delta":80421780},{"NoteNumber":79,"Velocity":20,"Duration":1071427,"SoundDuration":1071427,"Delta":80489653},{"NoteNumber":83,"Velocity":37,"Duration":1071427,"SoundDuration":1071427,"Delta":80489653},{"NoteNumber":64,"Velocity":20,"Duration":1071427,"SoundDuration":1071427,"Delta":80489653},{"NoteNumber":71,"Velocity":20,"Duration":1071427,"SoundDuration":1071427,"Delta":80489653},{"NoteNumber":76,"Velocity":20,"Duration":1071427,"SoundDuration":1071427,"Delta":80489653},{"NoteNumber":86,"Velocity":42,"Duration":535713,"SoundDuration":535713,"Delta":81561081},{"NoteNumber":79,"Velocity":24,"Duration":1077543,"SoundDuration":1077543,"Delta":81561081},{"NoteNumber":83,"Velocity":24,"Duration":1077543,"SoundDuration":1077543,"Delta":81561081},{"NoteNumber":67,"Velocity":32,"Duration":535713,"SoundDuration":535713,"Delta":81561081},{"NoteNumber":74,"Velocity":24,"Duration":1077543,"SoundDuration":1077543,"Delta":81561081},{"NoteNumber":88,"Velocity":42,"Duration":267857,"SoundDuration":267857,"Delta":82096795},{"NoteNumber":66,"Velocity":32,"Duration":541829,"SoundDuration":541829,"Delta":82096795},{"NoteNumber":90,"Velocity":42,"Duration":273972,"SoundDuration":273972,"Delta":82364652},{"NoteNumber":79,"Velocity":24,"Duration":1076298,"SoundDuration":1076298,"Delta":82638625},{"NoteNumber":91,"Velocity":47,"Duration":535713,"SoundDuration":535713,"Delta":82638625},{"NoteNumber":76,"Velocity":24,"Duration":1076298,"SoundDuration":1076298,"Delta":82638625},{"NoteNumber":64,"Velocity":24,"Duration":1076298,"SoundDuration":1076298,"Delta":82638625},{"NoteNumber":71,"Velocity":33,"Duration":535713,"SoundDuration":535713,"Delta":82638625},{"NoteNumber":90,"Velocity":42,"Duration":267857,"SoundDuration":267857,"Delta":83174339},{"NoteNumber":70,"Velocity":31,"Duration":540584,"SoundDuration":540584,"Delta":83174339},{"NoteNumber":88,"Velocity":42,"Duration":272727,"SoundDuration":272727,"Delta":83442196},{"NoteNumber":79,"Velocity":23,"Duration":1071546,"SoundDuration":1071546,"Delta":83714923},{"NoteNumber":90,"Velocity":44,"Duration":265486,"SoundDuration":265486,"Delta":83714923},{"NoteNumber":69,"Velocity":24,"Duration":1071546,"SoundDuration":1071546,"Delta":83714923},{"NoteNumber":74,"Velocity":35,"Duration":532152,"SoundDuration":532152,"Delta":83714923},{"NoteNumber":83,"Velocity":42,"Duration":533332,"SoundDuration":533332,"Delta":83980410},{"NoteNumber":73,"Velocity":33,"Duration":539394,"SoundDuration":539394,"Delta":84247076},{"NoteNumber":90,"Velocity":41,"Duration":204545,"SoundDuration":204545,"Delta":84513743},{"NoteNumber":90,"Velocity":34,"Duration":68181,"SoundDuration":68181,"Delta":84718289},{"NoteNumber":78,"Velocity":20,"Duration":1066665,"SoundDuration":1066665,"Delta":84786470},{"NoteNumber":86,"Velocity":37,"Duration":1066665,"SoundDuration":1066665,"Delta":84786470},{"NoteNumber":62,"Velocity":20,"Duration":1066665,"SoundDuration":1066665,"Delta":84786470},{"NoteNumber":69,"Velocity":31,"Duration":533332,"SoundDuration":533332,"Delta":84786470},{"NoteNumber":74,"Velocity":20,"Duration":1064443,"SoundDuration":1064443,"Delta":84786470},{"NoteNumber":70,"Velocity":27,"Duration":533332,"SoundDuration":533332,"Delta":85319803},{"NoteNumber":74,"Velocity":41,"Duration":533332,"SoundDuration":533332,"Delta":85853136},{"NoteNumber":71,"Velocity":26,"Duration":800042,"SoundDuration":800042,"Delta":86119803},{"NoteNumber":67,"Velocity":26,"Duration":800042,"SoundDuration":800042,"Delta":86119803},{"NoteNumber":55,"Velocity":26,"Duration":800042,"SoundDuration":800042,"Delta":86119803},{"NoteNumber":62,"Velocity":26,"Duration":800042,"SoundDuration":800042,"Delta":86119803},{"NoteNumber":76,"Velocity":41,"Duration":264317,"SoundDuration":264317,"Delta":86386469},{"NoteNumber":78,"Velocity":41,"Duration":269058,"SoundDuration":269058,"Delta":86650786},{"NoteNumber":79,"Velocity":44,"Duration":528633,"SoundDuration":528633,"Delta":86919845},{"NoteNumber":67,"Velocity":26,"Duration":800127,"SoundDuration":800127,"Delta":87184162},{"NoteNumber":52,"Velocity":26,"Duration":800127,"SoundDuration":800127,"Delta":87184162},{"NoteNumber":59,"Velocity":26,"Duration":800127,"SoundDuration":800127,"Delta":87184162},{"NoteNumber":64,"Velocity":26,"Duration":800127,"SoundDuration":800127,"Delta":87184162},{"NoteNumber":78,"Velocity":41,"Duration":264317,"SoundDuration":264317,"Delta":87448479},{"NoteNumber":76,"Velocity":41,"Duration":271493,"SoundDuration":271493,"Delta":87712796},{"NoteNumber":78,"Velocity":43,"Duration":264317,"SoundDuration":264317,"Delta":87984289},{"NoteNumber":67,"Velocity":25,"Duration":808441,"SoundDuration":808441,"Delta":88248606},{"NoteNumber":71,"Velocity":25,"Duration":808441,"SoundDuration":808441,"Delta":88248606},{"NoteNumber":55,"Velocity":26,"Duration":808441,"SoundDuration":808441,"Delta":88248606},{"NoteNumber":62,"Velocity":26,"Duration":808441,"SoundDuration":808441,"Delta":88248606},{"NoteNumber":74,"Velocity":41,"Duration":267856,"SoundDuration":267856,"Delta":88516463},{"NoteNumber":78,"Velocity":40,"Duration":204545,"SoundDuration":204545,"Delta":88784320},{"NoteNumber":78,"Velocity":33,"Duration":68181,"SoundDuration":68181,"Delta":88988866},{"NoteNumber":71,"Velocity":35,"Duration":1066665,"SoundDuration":1066665,"Delta":89057047},{"NoteNumber":67,"Velocity":21,"Duration":799999,"SoundDuration":799999,"Delta":89323714},{"NoteNumber":64,"Velocity":21,"Duration":799999,"SoundDuration":799999,"Delta":89323714},{"NoteNumber":52,"Velocity":21,"Duration":799999,"SoundDuration":799999,"Delta":89323714},{"NoteNumber":59,"Velocity":21,"Duration":799999,"SoundDuration":799999,"Delta":89323714},{"NoteNumber":74,"Velocity":43,"Duration":533332,"SoundDuration":533332,"Delta":90123713},{"NoteNumber":67,"Velocity":26,"Duration":800042,"SoundDuration":800042,"Delta":90390380},{"NoteNumber":71,"Velocity":26,"Duration":800042,"SoundDuration":800042,"Delta":90390380},{"NoteNumber":55,"Velocity":33,"Duration":530983,"SoundDuration":530983,"Delta":90390380},{"NoteNumber":62,"Velocity":26,"Duration":800042,"SoundDuration":800042,"Delta":90390380},{"NoteNumber":76,"Velocity":43,"Duration":264317,"SoundDuration":264317,"Delta":90657046},{"NoteNumber":78,"Velocity":43,"Duration":269058,"SoundDuration":269058,"Delta":90921363},{"NoteNumber":54,"Velocity":33,"Duration":269058,"SoundDuration":269058,"Delta":90921363},{"NoteNumber":79,"Velocity":47,"Duration":530973,"SoundDuration":530973,"Delta":91190422},{"NoteNumber":67,"Velocity":26,"Duration":802466,"SoundDuration":802466,"Delta":91455908},{"NoteNumber":52,"Velocity":29,"Duration":802466,"SoundDuration":802466,"Delta":91455908},{"NoteNumber":59,"Velocity":37,"Duration":530973,"SoundDuration":530973,"Delta":91455908},{"NoteNumber":64,"Velocity":29,"Duration":802466,"SoundDuration":802466,"Delta":91455908},{"NoteNumber":78,"Velocity":42,"Duration":265486,"SoundDuration":265486,"Delta":91721395},{"NoteNumber":76,"Velocity":44,"Duration":271493,"SoundDuration":271493,"Delta":91986881},{"NoteNumber":58,"Velocity":33,"Duration":271493,"SoundDuration":271493,"Delta":91986881},{"NoteNumber":78,"Velocity":50,"Duration":535756,"SoundDuration":535756,"Delta":92258374},{"NoteNumber":45,"Velocity":26,"Duration":893839,"SoundDuration":893839,"Delta":92457489},{"NoteNumber":67,"Velocity":33,"Duration":827468,"SoundDuration":827468,"Delta":92523861},{"NoteNumber":62,"Velocity":33,"Duration":544242,"SoundDuration":544242,"Delta":92523861},{"NoteNumber":71,"Velocity":41,"Duration":273972,"SoundDuration":273972,"Delta":92794131},{"NoteNumber":78,"Velocity":40,"Duration":206301,"SoundDuration":206301,"Delta":93068104},{"NoteNumber":61,"Velocity":33,"Duration":283225,"SoundDuration":283225,"Delta":93068104},{"NoteNumber":78,"Velocity":33,"Duration":76923,"SoundDuration":76923,"Delta":93274406},{"NoteNumber":74,"Velocity":35,"Duration":1081081,"SoundDuration":1081081,"Delta":93351329},{"NoteNumber":66,"Velocity":21,"Duration":810811,"SoundDuration":810811,"Delta":93621600},{"NoteNumber":62,"Velocity":21,"Duration":810811,"SoundDuration":810811,"Delta":93621600},{"NoteNumber":50,"Velocity":21,"Duration":810811,"SoundDuration":810811,"Delta":93621600},{"NoteNumber":57,"Velocity":21,"Duration":810811,"SoundDuration":810811,"Delta":93621600},{"NoteNumber":62,"Velocity":35,"Duration":78369,"SoundDuration":78369,"Delta":94432411},{"NoteNumber":72,"Velocity":35,"Duration":78369,"SoundDuration":78369,"Delta":94510781},{"NoteNumber":78,"Velocity":35,"Duration":78369,"SoundDuration":78369,"Delta":94589151},{"NoteNumber":81,"Velocity":35,"Duration":78369,"SoundDuration":78369,"Delta":94667521},{"NoteNumber":84,"Velocity":35,"Duration":78369,"SoundDuration":78369,"Delta":94745890},{"NoteNumber":93,"Velocity":35,"Duration":78369,"SoundDuration":78369,"Delta":94824260},{"NoteNumber":88,"Velocity":41,"Duration":470219,"SoundDuration":470219,"Delta":94902630},{"NoteNumber":84,"Velocity":40,"Duration":470219,"SoundDuration":470219,"Delta":94902630},{"NoteNumber":62,"Velocity":40,"Duration":108987,"SoundDuration":108987,"Delta":95372849},{"NoteNumber":79,"Velocity":40,"Duration":108987,"SoundDuration":108987,"Delta":95590825},{"NoteNumber":71,"Velocity":40,"Duration":108987,"SoundDuration":108987,"Delta":95590825},{"NoteNumber":86,"Velocity":36,"Duration":108987,"SoundDuration":108987,"Delta":95699812},{"NoteNumber":83,"Velocity":40,"Duration":108987,"SoundDuration":108987,"Delta":95808800},{"NoteNumber":74,"Velocity":39,"Duration":108987,"SoundDuration":108987,"Delta":95808800},{"NoteNumber":91,"Velocity":36,"Duration":108987,"SoundDuration":108987,"Delta":95917788},{"NoteNumber":86,"Velocity":40,"Duration":108987,"SoundDuration":108987,"Delta":96026776},{"NoteNumber":79,"Velocity":39,"Duration":108987,"SoundDuration":108987,"Delta":96026776},{"NoteNumber":95,"Velocity":36,"Duration":108987,"SoundDuration":108987,"Delta":96135763},{"NoteNumber":62,"Velocity":35,"Duration":78369,"SoundDuration":78369,"Delta":96244751},{"NoteNumber":69,"Velocity":35,"Duration":78369,"SoundDuration":78369,"Delta":96323121},{"NoteNumber":73,"Velocity":35,"Duration":78369,"SoundDuration":78369,"Delta":96401491},{"NoteNumber":76,"Velocity":35,"Duration":78369,"SoundDuration":78369,"Delta":96479861},{"NoteNumber":79,"Velocity":35,"Duration":78369,"SoundDuration":78369,"Delta":96558230},{"NoteNumber":88,"Velocity":35,"Duration":78369,"SoundDuration":78369,"Delta":96636600},{"NoteNumber":83,"Velocity":41,"Duration":470219,"SoundDuration":470219,"Delta":96714970},{"NoteNumber":79,"Velocity":40,"Duration":470219,"SoundDuration":470219,"Delta":96714970},{"NoteNumber":62,"Velocity":40,"Duration":108987,"SoundDuration":108987,"Delta":97185189},{"NoteNumber":78,"Velocity":40,"Duration":108987,"SoundDuration":108987,"Delta":97403165},{"NoteNumber":69,"Velocity":40,"Duration":108987,"SoundDuration":108987,"Delta":97403165},{"NoteNumber":86,"Velocity":36,"Duration":108987,"SoundDuration":108987,"Delta":97512152},{"NoteNumber":81,"Velocity":40,"Duration":108987,"SoundDuration":108987,"Delta":97621140},{"NoteNumber":74,"Velocity":39,"Duration":108987,"SoundDuration":108987,"Delta":97621140},{"NoteNumber":90,"Velocity":36,"Duration":108987,"SoundDuration":108987,"Delta":97730128},{"NoteNumber":86,"Velocity":40,"Duration":108987,"SoundDuration":108987,"Delta":97839116},{"NoteNumber":78,"Velocity":39,"Duration":108987,"SoundDuration":108987,"Delta":97839116},{"NoteNumber":93,"Velocity":36,"Duration":108987,"SoundDuration":108987,"Delta":97948103},{"NoteNumber":50,"Velocity":35,"Duration":78369,"SoundDuration":78369,"Delta":98057091},{"NoteNumber":60,"Velocity":35,"Duration":78369,"SoundDuration":78369,"Delta":98136440},{"NoteNumber":66,"Velocity":35,"Duration":78369,"SoundDuration":78369,"Delta":98213831},{"NoteNumber":69,"Velocity":35,"Duration":78369,"SoundDuration":78369,"Delta":98292201},{"NoteNumber":72,"Velocity":35,"Duration":78369,"SoundDuration":78369,"Delta":98370570},{"NoteNumber":81,"Velocity":34,"Duration":78369,"SoundDuration":78369,"Delta":98448940},{"NoteNumber":76,"Velocity":40,"Duration":470219,"SoundDuration":470219,"Delta":98527310},{"NoteNumber":72,"Velocity":39,"Duration":470219,"SoundDuration":470219,"Delta":98527310},{"NoteNumber":50,"Velocity":39,"Duration":108987,"SoundDuration":108987,"Delta":98997529},{"NoteNumber":71,"Velocity":37,"Duration":108987,"SoundDuration":108987,"Delta":99215505},{"NoteNumber":59,"Velocity":37,"Duration":108987,"SoundDuration":108987,"Delta":99215505},{"NoteNumber":74,"Velocity":35,"Duration":108987,"SoundDuration":108987,"Delta":99324492},{"NoteNumber":71,"Velocity":37,"Duration":108987,"SoundDuration":108987,"Delta":99433480},{"NoteNumber":62,"Velocity":36,"Duration":108987,"SoundDuration":108987,"Delta":99433480},{"NoteNumber":79,"Velocity":34,"Duration":108987,"SoundDuration":108987,"Delta":99542468},{"NoteNumber":74,"Velocity":37,"Duration":108987,"SoundDuration":108987,"Delta":99651456},{"NoteNumber":67,"Velocity":36,"Duration":108987,"SoundDuration":108987,"Delta":99651456},{"NoteNumber":83,"Velocity":34,"Duration":108987,"SoundDuration":108987,"Delta":99760443},{"NoteNumber":50,"Velocity":33,"Duration":78369,"SoundDuration":78369,"Delta":99869431},{"NoteNumber":57,"Velocity":33,"Duration":78369,"SoundDuration":78369,"Delta":99947801},{"NoteNumber":61,"Velocity":33,"Duration":78369,"SoundDuration":78369,"Delta":100026171},{"NoteNumber":64,"Velocity":33,"Duration":78369,"SoundDuration":78369,"Delta":100104541},{"NoteNumber":67,"Velocity":33,"Duration":78369,"SoundDuration":78369,"Delta":100182910},{"NoteNumber":76,"Velocity":33,"Duration":78369,"SoundDuration":78369,"Delta":100261280},{"NoteNumber":71,"Velocity":39,"Duration":470219,"SoundDuration":470219,"Delta":100339650},{"NoteNumber":67,"Velocity":37,"Duration":470219,"SoundDuration":470219,"Delta":100339650},{"NoteNumber":50,"Velocity":35,"Duration":108987,"SoundDuration":108987,"Delta":100809869},{"NoteNumber":66,"Velocity":37,"Duration":108987,"SoundDuration":108987,"Delta":101027845},{"NoteNumber":57,"Velocity":37,"Duration":108987,"SoundDuration":108987,"Delta":101027845},{"NoteNumber":74,"Velocity":35,"Duration":108987,"SoundDuration":108987,"Delta":101136832},{"NoteNumber":69,"Velocity":39,"Duration":108987,"SoundDuration":108987,"Delta":101245820},{"NoteNumber":62,"Velocity":40,"Duration":108987,"SoundDuration":108987,"Delta":101245820},{"NoteNumber":78,"Velocity":35,"Duration":108987,"SoundDuration":108987,"Delta":101354808},{"NoteNumber":74,"Velocity":39,"Duration":108987,"SoundDuration":108987,"Delta":101463796},{"NoteNumber":69,"Velocity":42,"Duration":108987,"SoundDuration":108987,"Delta":101463796},{"NoteNumber":81,"Velocity":35,"Duration":108987,"SoundDuration":108987,"Delta":101572783},{"NoteNumber":74,"Velocity":46,"Duration":94339,"SoundDuration":94339,"Delta":101681771},{"NoteNumber":69,"Velocity":43,"Duration":94339,"SoundDuration":94339,"Delta":101870450},{"NoteNumber":62,"Velocity":43,"Duration":94339,"SoundDuration":94339,"Delta":102059129},{"NoteNumber":69,"Velocity":43,"Duration":94339,"SoundDuration":94339,"Delta":102247808},{"NoteNumber":62,"Velocity":43,"Duration":94043,"SoundDuration":94043,"Delta":102436487},{"NoteNumber":57,"Velocity":43,"Duration":93946,"SoundDuration":93946,"Delta":102624575},{"NoteNumber":62,"Velocity":42,"Duration":93750,"SoundDuration":93750,"Delta":102812271},{"NoteNumber":57,"Velocity":41,"Duration":93458,"SoundDuration":93458,"Delta":102999576},{"NoteNumber":50,"Velocity":42,"Duration":93167,"SoundDuration":93167,"Delta":103186492},{"NoteNumber":57,"Velocity":40,"Duration":93071,"SoundDuration":93071,"Delta":103372828},{"NoteNumber":50,"Velocity":42,"Duration":92879,"SoundDuration":92879,"Delta":103558779},{"NoteNumber":45,"Velocity":41,"Duration":92592,"SoundDuration":92592,"Delta":103744346},{"NoteNumber":38,"Velocity":41,"Duration":92307,"SoundDuration":92307,"Delta":103929531},{"NoteNumber":45,"Velocity":31,"Duration":91930,"SoundDuration":91930,"Delta":104113958},{"NoteNumber":38,"Velocity":32,"Duration":91463,"SoundDuration":91463,"Delta":104297631},{"NoteNumber":45,"Velocity":31,"Duration":91093,"SoundDuration":91093,"Delta":104480373},{"NoteNumber":38,"Velocity":32,"Duration":90634,"SoundDuration":90634,"Delta":104662375},{"NoteNumber":45,"Velocity":31,"Duration":90634,"SoundDuration":90634,"Delta":104843644},{"NoteNumber":38,"Velocity":32,"Duration":90634,"SoundDuration":90634,"Delta":105024913},{"NoteNumber":62,"Velocity":36,"Duration":44510,"SoundDuration":44510,"Delta":105205913},{"NoteNumber":45,"Velocity":31,"Duration":89020,"SoundDuration":89020,"Delta":105205913},{"NoteNumber":64,"Velocity":36,"Duration":44510,"SoundDuration":44510,"Delta":105250424},{"NoteNumber":65,"Velocity":36,"Duration":44510,"SoundDuration":44510,"Delta":105294934},{"NoteNumber":67,"Velocity":36,"Duration":44510,"SoundDuration":44510,"Delta":105339445},{"NoteNumber":69,"Velocity":38,"Duration":92024,"SoundDuration":92024,"Delta":105383955},{"NoteNumber":38,"Velocity":32,"Duration":92024,"SoundDuration":92024,"Delta":105383955},{"NoteNumber":62,"Velocity":34,"Duration":90361,"SoundDuration":90361,"Delta":105568004},{"NoteNumber":65,"Velocity":34,"Duration":90361,"SoundDuration":90361,"Delta":105568004},{"NoteNumber":74,"Velocity":34,"Duration":90361,"SoundDuration":90361,"Delta":105568004},{"NoteNumber":45,"Velocity":31,"Duration":90361,"SoundDuration":90361,"Delta":105568004},{"NoteNumber":62,"Velocity":34,"Duration":91742,"SoundDuration":91742,"Delta":105748727},{"NoteNumber":74,"Velocity":34,"Duration":91742,"SoundDuration":91742,"Delta":105748727},{"NoteNumber":65,"Velocity":34,"Duration":91742,"SoundDuration":91742,"Delta":105748727},{"NoteNumber":38,"Velocity":32,"Duration":91742,"SoundDuration":91742,"Delta":105748727},{"NoteNumber":62,"Velocity":34,"Duration":90090,"SoundDuration":90090,"Delta":105932213},{"NoteNumber":73,"Velocity":34,"Duration":90090,"SoundDuration":90090,"Delta":105932213},{"NoteNumber":65,"Velocity":34,"Duration":90090,"SoundDuration":90090,"Delta":105932213},{"NoteNumber":45,"Velocity":31,"Duration":90090,"SoundDuration":90090,"Delta":105932213},{"NoteNumber":65,"Velocity":36,"Duration":91185,"SoundDuration":91185,"Delta":106112393},{"NoteNumber":73,"Velocity":36,"Duration":91185,"SoundDuration":91185,"Delta":106112393},{"NoteNumber":62,"Velocity":36,"Duration":91185,"SoundDuration":91185,"Delta":106112393},{"NoteNumber":38,"Velocity":32,"Duration":91185,"SoundDuration":91185,"Delta":106112393},{"NoteNumber":62,"Velocity":34,"Duration":89285,"SoundDuration":89285,"Delta":106294764},{"NoteNumber":72,"Velocity":34,"Duration":89285,"SoundDuration":89285,"Delta":106294764},{"NoteNumber":65,"Velocity":34,"Duration":89285,"SoundDuration":89285,"Delta":106294764},{"NoteNumber":45,"Velocity":31,"Duration":89285,"SoundDuration":89285,"Delta":106294764},{"NoteNumber":65,"Velocity":34,"Duration":90090,"SoundDuration":90090,"Delta":106473335},{"NoteNumber":62,"Velocity":34,"Duration":90090,"SoundDuration":90090,"Delta":106473335},{"NoteNumber":72,"Velocity":34,"Duration":90090,"SoundDuration":90090,"Delta":106473335},{"NoteNumber":38,"Velocity":32,"Duration":90090,"SoundDuration":90090,"Delta":106473335},{"NoteNumber":65,"Velocity":34,"Duration":87719,"SoundDuration":87719,"Delta":106653515},{"NoteNumber":62,"Velocity":34,"Duration":87719,"SoundDuration":87719,"Delta":106653515},{"NoteNumber":71,"Velocity":34,"Duration":87719,"SoundDuration":87719,"Delta":106653515},{"NoteNumber":45,"Velocity":31,"Duration":87719,"SoundDuration":87719,"Delta":106653515},{"NoteNumber":62,"Velocity":36,"Duration":90090,"SoundDuration":90090,"Delta":106828954},{"NoteNumber":65,"Velocity":36,"Duration":90090,"SoundDuration":90090,"Delta":106828954},{"NoteNumber":71,"Velocity":36,"Duration":90090,"SoundDuration":90090,"Delta":106828954},{"NoteNumber":38,"Velocity":32,"Duration":90090,"SoundDuration":90090,"Delta":106828954},{"NoteNumber":62,"Velocity":33,"Duration":88757,"SoundDuration":88757,"Delta":107009134},{"NoteNumber":70,"Velocity":33,"Duration":88757,"SoundDuration":88757,"Delta":107009134},{"NoteNumber":65,"Velocity":33,"Duration":88757,"SoundDuration":88757,"Delta":107009134},{"NoteNumber":45,"Velocity":29,"Duration":88757,"SoundDuration":88757,"Delta":107009134},{"NoteNumber":62,"Velocity":33,"Duration":90090,"SoundDuration":90090,"Delta":107186649},{"NoteNumber":70,"Velocity":33,"Duration":90090,"SoundDuration":90090,"Delta":107186649},{"NoteNumber":65,"Velocity":33,"Duration":90090,"SoundDuration":90090,"Delta":107186649},{"NoteNumber":38,"Velocity":32,"Duration":90090,"SoundDuration":90090,"Delta":107186649},{"NoteNumber":65,"Velocity":32,"Duration":88495,"SoundDuration":88495,"Delta":107366829},{"NoteNumber":62,"Velocity":32,"Duration":88495,"SoundDuration":88495,"Delta":107366829},{"NoteNumber":69,"Velocity":32,"Duration":88495,"SoundDuration":88495,"Delta":107366829},{"NoteNumber":45,"Velocity":29,"Duration":88495,"SoundDuration":88495,"Delta":107366829},{"NoteNumber":64,"Velocity":43,"Duration":89552,"SoundDuration":89552,"Delta":107543820},{"NoteNumber":59,"Velocity":43,"Duration":89552,"SoundDuration":89552,"Delta":107543820},{"NoteNumber":68,"Velocity":43,"Duration":89552,"SoundDuration":89552,"Delta":107543820},{"NoteNumber":38,"Velocity":32,"Duration":89552,"SoundDuration":89552,"Delta":107543820},{"NoteNumber":59,"Velocity":43,"Duration":360922,"SoundDuration":360922,"Delta":107722924},{"NoteNumber":64,"Velocity":43,"Duration":360922,"SoundDuration":360922,"Delta":107722924},{"NoteNumber":68,"Velocity":43,"Duration":360922,"SoundDuration":360922,"Delta":107722924},{"NoteNumber":45,"Velocity":31,"Duration":89552,"SoundDuration":89552,"Delta":107722924},{"NoteNumber":38,"Velocity":32,"Duration":90908,"SoundDuration":90908,"Delta":107902029},{"NoteNumber":67,"Velocity":36,"Duration":44378,"SoundDuration":44378,"Delta":108083847},{"NoteNumber":45,"Velocity":31,"Duration":88757,"SoundDuration":88757,"Delta":108083847},{"NoteNumber":69,"Velocity":36,"Duration":44378,"SoundDuration":44378,"Delta":108128226},{"NoteNumber":70,"Velocity":36,"Duration":44378,"SoundDuration":44378,"Delta":108172604},{"NoteNumber":72,"Velocity":36,"Duration":44378,"SoundDuration":44378,"Delta":108216983},{"NoteNumber":74,"Velocity":38,"Duration":90908,"SoundDuration":90908,"Delta":108261362},{"NoteNumber":38,"Velocity":32,"Duration":90908,"SoundDuration":90908,"Delta":108261362},{"NoteNumber":67,"Velocity":34,"Duration":89820,"SoundDuration":89820,"Delta":108443180},{"NoteNumber":70,"Velocity":34,"Duration":89820,"SoundDuration":89820,"Delta":108443180},{"NoteNumber":79,"Velocity":34,"Duration":89820,"SoundDuration":89820,"Delta":108443180},{"NoteNumber":45,"Velocity":31,"Duration":89820,"SoundDuration":89820,"Delta":108443180},{"NoteNumber":79,"Velocity":34,"Duration":90908,"SoundDuration":90908,"Delta":108622820},{"NoteNumber":70,"Velocity":34,"Duration":90908,"SoundDuration":90908,"Delta":108622820},{"NoteNumber":67,"Velocity":34,"Duration":90908,"SoundDuration":90908,"Delta":108622820},{"NoteNumber":38,"Velocity":32,"Duration":90908,"SoundDuration":90908,"Delta":108622820},{"NoteNumber":70,"Velocity":34,"Duration":88757,"SoundDuration":88757,"Delta":108804638},{"NoteNumber":78,"Velocity":34,"Duration":88757,"SoundDuration":88757,"Delta":108804638},{"NoteNumber":67,"Velocity":34,"Duration":88757,"SoundDuration":88757,"Delta":108804638},{"NoteNumber":45,"Velocity":31,"Duration":88757,"SoundDuration":88757,"Delta":108804638},{"NoteNumber":70,"Velocity":36,"Duration":90361,"SoundDuration":90361,"Delta":108982153},{"NoteNumber":78,"Velocity":36,"Duration":90361,"SoundDuration":90361,"Delta":108982153},{"NoteNumber":67,"Velocity":36,"Duration":90361,"SoundDuration":90361,"Delta":108982153},{"NoteNumber":38,"Velocity":32,"Duration":90361,"SoundDuration":90361,"Delta":108982153},{"NoteNumber":67,"Velocity":34,"Duration":88235,"SoundDuration":88235,"Delta":109162876},{"NoteNumber":70,"Velocity":34,"Duration":88235,"SoundDuration":88235,"Delta":109162876},{"NoteNumber":77,"Velocity":34,"Duration":88235,"SoundDuration":88235,"Delta":109162876},{"NoteNumber":45,"Velocity":31,"Duration":88235,"SoundDuration":88235,"Delta":109162876},{"NoteNumber":70,"Velocity":34,"Duration":89020,"SoundDuration":89020,"Delta":109339347},{"NoteNumber":67,"Velocity":34,"Duration":89020,"SoundDuration":89020,"Delta":109339347},{"NoteNumber":77,"Velocity":34,"Duration":89020,"SoundDuration":89020,"Delta":109339347},{"NoteNumber":38,"Velocity":32,"Duration":89020,"SoundDuration":89020,"Delta":109339347},{"NoteNumber":67,"Velocity":34,"Duration":87463,"SoundDuration":87463,"Delta":109517388},{"NoteNumber":70,"Velocity":34,"Duration":87463,"SoundDuration":87463,"Delta":109517388},{"NoteNumber":76,"Velocity":34,"Duration":87463,"SoundDuration":87463,"Delta":109517388},{"NoteNumber":45,"Velocity":31,"Duration":87463,"SoundDuration":87463,"Delta":109517388},{"NoteNumber":70,"Velocity":36,"Duration":90090,"SoundDuration":90090,"Delta":109692315},{"NoteNumber":76,"Velocity":36,"Duration":90090,"SoundDuration":90090,"Delta":109692315},{"NoteNumber":67,"Velocity":36,"Duration":90090,"SoundDuration":90090,"Delta":109692315},{"NoteNumber":38,"Velocity":32,"Duration":90090,"SoundDuration":90090,"Delta":109692315},{"NoteNumber":75,"Velocity":32,"Duration":87719,"SoundDuration":87719,"Delta":109872495},{"NoteNumber":67,"Velocity":32,"Duration":87719,"SoundDuration":87719,"Delta":109872495},{"NoteNumber":70,"Velocity":32,"Duration":87719,"SoundDuration":87719,"Delta":109872495},{"NoteNumber":45,"Velocity":29,"Duration":87719,"SoundDuration":87719,"Delta":109872495},{"NoteNumber":70,"Velocity":32,"Duration":88757,"SoundDuration":88757,"Delta":110047934},{"NoteNumber":67,"Velocity":32,"Duration":88757,"SoundDuration":88757,"Delta":110047934},{"NoteNumber":75,"Velocity":32,"Duration":88757,"SoundDuration":88757,"Delta":110047934},{"NoteNumber":38,"Velocity":32,"Duration":88757,"SoundDuration":88757,"Delta":110047934},{"NoteNumber":74,"Velocity":32,"Duration":87719,"SoundDuration":87719,"Delta":110225449},{"NoteNumber":70,"Velocity":32,"Duration":87719,"SoundDuration":87719,"Delta":110225449},{"NoteNumber":67,"Velocity":32,"Duration":87719,"SoundDuration":87719,"Delta":110225449},{"NoteNumber":45,"Velocity":29,"Duration":87719,"SoundDuration":87719,"Delta":110225449},{"NoteNumber":64,"Velocity":44,"Duration":89552,"SoundDuration":89552,"Delta":110400887},{"NoteNumber":69,"Velocity":44,"Duration":89552,"SoundDuration":89552,"Delta":110400887},{"NoteNumber":73,"Velocity":44,"Duration":89552,"SoundDuration":89552,"Delta":110400887},{"NoteNumber":38,"Velocity":32,"Duration":89552,"SoundDuration":89552,"Delta":110400887},{"NoteNumber":73,"Velocity":44,"Duration":344828,"SoundDuration":344828,"Delta":110579992},{"NoteNumber":69,"Velocity":44,"Duration":344828,"SoundDuration":344828,"Delta":110579992},{"NoteNumber":64,"Velocity":44,"Duration":344828,"SoundDuration":344828,"Delta":110579992},{"NoteNumber":45,"Velocity":31,"Duration":86207,"SoundDuration":86207,"Delta":110579992},{"NoteNumber":38,"Velocity":32,"Duration":86207,"SoundDuration":86207,"Delta":110752406},{"NoteNumber":45,"Velocity":31,"Duration":84745,"SoundDuration":84745,"Delta":110924820},{"NoteNumber":74,"Velocity":46,"Duration":43352,"SoundDuration":43352,"Delta":111094311},{"NoteNumber":76,"Velocity":35,"Duration":43352,"SoundDuration":43352,"Delta":111137664},{"NoteNumber":77,"Velocity":35,"Duration":43352,"SoundDuration":43352,"Delta":111181017},{"NoteNumber":79,"Velocity":35,"Duration":43352,"SoundDuration":43352,"Delta":111224369},{"NoteNumber":81,"Velocity":40,"Duration":89285,"SoundDuration":89285,"Delta":111267722},{"NoteNumber":65,"Velocity":32,"Duration":89285,"SoundDuration":89285,"Delta":111267722},{"NoteNumber":58,"Velocity":32,"Duration":89285,"SoundDuration":89285,"Delta":111267722},{"NoteNumber":79,"Velocity":46,"Duration":43352,"SoundDuration":43352,"Delta":111446293},{"NoteNumber":77,"Velocity":36,"Duration":43352,"SoundDuration":43352,"Delta":111489646},{"NoteNumber":76,"Velocity":36,"Duration":43352,"SoundDuration":43352,"Delta":111532999},{"NoteNumber":74,"Velocity":36,"Duration":43352,"SoundDuration":43352,"Delta":111576351},{"NoteNumber":72,"Velocity":40,"Duration":89285,"SoundDuration":89285,"Delta":111619704},{"NoteNumber":60,"Velocity":32,"Duration":89285,"SoundDuration":89285,"Delta":111619704},{"NoteNumber":53,"Velocity":32,"Duration":89285,"SoundDuration":89285,"Delta":111619704},{"NoteNumber":70,"Velocity":45,"Duration":43352,"SoundDuration":43352,"Delta":111798275},{"NoteNumber":72,"Velocity":36,"Duration":43352,"SoundDuration":43352,"Delta":111841628},{"NoteNumber":74,"Velocity":36,"Duration":43352,"SoundDuration":43352,"Delta":111884981},{"NoteNumber":76,"Velocity":36,"Duration":43352,"SoundDuration":43352,"Delta":111928333},{"NoteNumber":77,"Velocity":41,"Duration":89285,"SoundDuration":89285,"Delta":111971686},{"NoteNumber":62,"Velocity":32,"Duration":89285,"SoundDuration":89285,"Delta":111971686},{"NoteNumber":55,"Velocity":32,"Duration":89285,"SoundDuration":89285,"Delta":111971686},{"NoteNumber":76,"Velocity":46,"Duration":43352,"SoundDuration":43352,"Delta":112150257},{"NoteNumber":74,"Velocity":37,"Duration":43352,"SoundDuration":43352,"Delta":112193610},{"NoteNumber":72,"Velocity":37,"Duration":43352,"SoundDuration":43352,"Delta":112236963},{"NoteNumber":70,"Velocity":37,"Duration":43352,"SoundDuration":43352,"Delta":112280315},{"NoteNumber":69,"Velocity":43,"Duration":89285,"SoundDuration":89285,"Delta":112323668},{"NoteNumber":50,"Velocity":32,"Duration":89285,"SoundDuration":89285,"Delta":112323668},{"NoteNumber":57,"Velocity":32,"Duration":89285,"SoundDuration":89285,"Delta":112323668},{"NoteNumber":67,"Velocity":46,"Duration":43352,"SoundDuration":43352,"Delta":112502239},{"NoteNumber":69,"Velocity":37,"Duration":43352,"SoundDuration":43352,"Delta":112545592},{"NoteNumber":70,"Velocity":37,"Duration":43352,"SoundDuration":43352,"Delta":112588945},{"NoteNumber":72,"Velocity":37,"Duration":43352,"SoundDuration":43352,"Delta":112632297},{"NoteNumber":74,"Velocity":44,"Duration":89285,"SoundDuration":89285,"Delta":112675650},{"NoteNumber":51,"Velocity":32,"Duration":89285,"SoundDuration":89285,"Delta":112675650},{"NoteNumber":58,"Velocity":32,"Duration":89285,"SoundDuration":89285,"Delta":112675650},{"NoteNumber":72,"Velocity":47,"Duration":43352,"SoundDuration":43352,"Delta":112854221},{"NoteNumber":70,"Velocity":37,"Duration":43352,"SoundDuration":43352,"Delta":112897574},{"NoteNumber":69,"Velocity":37,"Duration":43352,"SoundDuration":43352,"Delta":112940927},{"NoteNumber":67,"Velocity":37,"Duration":43352,"SoundDuration":43352,"Delta":112984279},{"NoteNumber":65,"Velocity":43,"Duration":89020,"SoundDuration":89020,"Delta":113027632},{"NoteNumber":46,"Velocity":32,"Duration":89020,"SoundDuration":89020,"Delta":113027632},{"NoteNumber":53,"Velocity":32,"Duration":89020,"SoundDuration":89020,"Delta":113027632},{"NoteNumber":45,"Velocity":37,"Duration":89020,"SoundDuration":89020,"Delta":113205673},{"NoteNumber":57,"Velocity":45,"Duration":511363,"SoundDuration":511363,"Delta":113383715},{"NoteNumber":64,"Velocity":45,"Duration":511363,"SoundDuration":511363,"Delta":113383715},{"NoteNumber":52,"Velocity":32,"Duration":85227,"SoundDuration":85227,"Delta":113383715},{"NoteNumber":45,"Velocity":38,"Duration":85227,"SoundDuration":85227,"Delta":113554169},{"NoteNumber":52,"Velocity":32,"Duration":85227,"SoundDuration":85227,"Delta":113724624},{"NoteNumber":86,"Velocity":47,"Duration":43352,"SoundDuration":43352,"Delta":113895078},{"NoteNumber":39,"Velocity":37,"Duration":86705,"SoundDuration":86705,"Delta":113895078},{"NoteNumber":84,"Velocity":37,"Duration":43352,"SoundDuration":43352,"Delta":113938431},{"NoteNumber":82,"Velocity":37,"Duration":43352,"SoundDuration":43352,"Delta":113981784},{"NoteNumber":81,"Velocity":37,"Duration":43352,"SoundDuration":43352,"Delta":114025136},{"NoteNumber":79,"Velocity":40,"Duration":89020,"SoundDuration":89020,"Delta":114068489},{"NoteNumber":46,"Velocity":32,"Duration":89020,"SoundDuration":89020,"Delta":114068489},{"NoteNumber":74,"Velocity":48,"Duration":43352,"SoundDuration":43352,"Delta":114246530},{"NoteNumber":39,"Velocity":37,"Duration":86705,"SoundDuration":86705,"Delta":114246530},{"NoteNumber":72,"Velocity":37,"Duration":43352,"SoundDuration":43352,"Delta":114289883},{"NoteNumber":70,"Velocity":37,"Duration":43352,"SoundDuration":43352,"Delta":114333236},{"NoteNumber":69,"Velocity":37,"Duration":43352,"SoundDuration":43352,"Delta":114376588},{"NoteNumber":67,"Velocity":40,"Duration":89020,"SoundDuration":89020,"Delta":114419941},{"NoteNumber":46,"Velocity":32,"Duration":89020,"SoundDuration":89020,"Delta":114419941},{"NoteNumber":45,"Velocity":37,"Duration":89020,"SoundDuration":89020,"Delta":114597982},{"NoteNumber":57,"Velocity":45,"Duration":512820,"SoundDuration":512820,"Delta":114776024},{"NoteNumber":64,"Velocity":45,"Duration":512820,"SoundDuration":512820,"Delta":114776024},{"NoteNumber":52,"Velocity":32,"Duration":85470,"SoundDuration":85470,"Delta":114776024},{"NoteNumber":45,"Velocity":38,"Duration":85470,"SoundDuration":85470,"Delta":114946964},{"NoteNumber":52,"Velocity":32,"Duration":85470,"SoundDuration":85470,"Delta":115117904},{"NoteNumber":86,"Velocity":47,"Duration":43352,"SoundDuration":43352,"Delta":115288844},{"NoteNumber":39,"Velocity":37,"Duration":86705,"SoundDuration":86705,"Delta":115288844},{"NoteNumber":84,"Velocity":37,"Duration":43352,"SoundDuration":43352,"Delta":115332197},{"NoteNumber":82,"Velocity":37,"Duration":43352,"SoundDuration":43352,"Delta":115375549},{"NoteNumber":81,"Velocity":37,"Duration":43352,"SoundDuration":43352,"Delta":115418902},{"NoteNumber":79,"Velocity":40,"Duration":89020,"SoundDuration":89020,"Delta":115462254},{"NoteNumber":46,"Velocity":32,"Duration":89020,"SoundDuration":89020,"Delta":115462254},{"NoteNumber":74,"Velocity":48,"Duration":43352,"SoundDuration":43352,"Delta":115640296},{"NoteNumber":39,"Velocity":37,"Duration":86705,"SoundDuration":86705,"Delta":115640296},{"NoteNumber":72,"Velocity":37,"Duration":43352,"SoundDuration":43352,"Delta":115683649},{"NoteNumber":70,"Velocity":37,"Duration":43352,"SoundDuration":43352,"Delta":115727001},{"NoteNumber":69,"Velocity":37,"Duration":43352,"SoundDuration":43352,"Delta":115770354},{"NoteNumber":67,"Velocity":40,"Duration":89020,"SoundDuration":89020,"Delta":115813706},{"NoteNumber":46,"Velocity":32,"Duration":89020,"SoundDuration":89020,"Delta":115813706},{"NoteNumber":45,"Velocity":37,"Duration":86705,"SoundDuration":86705,"Delta":115991748},{"NoteNumber":57,"Velocity":45,"Duration":173410,"SoundDuration":173410,"Delta":116165158},{"NoteNumber":64,"Velocity":45,"Duration":173410,"SoundDuration":173410,"Delta":116165158},{"NoteNumber":52,"Velocity":32,"Duration":86705,"SoundDuration":86705,"Delta":116165158},{"NoteNumber":74,"Velocity":40,"Duration":42372,"SoundDuration":42372,"Delta":116338569},{"NoteNumber":39,"Velocity":38,"Duration":84745,"SoundDuration":84745,"Delta":116338569},{"NoteNumber":72,"Velocity":36,"Duration":42372,"SoundDuration":42372,"Delta":116380942},{"NoteNumber":70,"Velocity":36,"Duration":42372,"SoundDuration":42372,"Delta":116423315},{"NoteNumber":69,"Velocity":36,"Duration":42372,"SoundDuration":42372,"Delta":116465688},{"NoteNumber":67,"Velocity":40,"Duration":84745,"SoundDuration":84745,"Delta":116508060},{"NoteNumber":46,"Velocity":31,"Duration":84745,"SoundDuration":84745,"Delta":116508060},{"NoteNumber":45,"Velocity":34,"Duration":85470,"SoundDuration":85470,"Delta":116677552},{"NoteNumber":64,"Velocity":38,"Duration":170940,"SoundDuration":170940,"Delta":116848492},{"NoteNumber":57,"Velocity":38,"Duration":170940,"SoundDuration":170940,"Delta":116848492},{"NoteNumber":52,"Velocity":32,"Duration":85470,"SoundDuration":85470,"Delta":116848492},{"NoteNumber":74,"Velocity":34,"Duration":42134,"SoundDuration":42134,"Delta":117019432},{"NoteNumber":39,"Velocity":34,"Duration":84269,"SoundDuration":84269,"Delta":117019432},{"NoteNumber":72,"Velocity":34,"Duration":42134,"SoundDuration":42134,"Delta":117061567},{"NoteNumber":70,"Velocity":34,"Duration":42134,"SoundDuration":42134,"Delta":117103702},{"NoteNumber":69,"Velocity":34,"Duration":42134,"SoundDuration":42134,"Delta":117145837},{"NoteNumber":67,"Velocity":32,"Duration":84269,"SoundDuration":84269,"Delta":117187971},{"NoteNumber":46,"Velocity":29,"Duration":84269,"SoundDuration":84269,"Delta":117187971},{"NoteNumber":45,"Velocity":35,"Duration":82873,"SoundDuration":82873,"Delta":117356511},{"NoteNumber":64,"Velocity":37,"Duration":165978,"SoundDuration":165978,"Delta":117522257},{"NoteNumber":57,"Velocity":37,"Duration":165978,"SoundDuration":165978,"Delta":117522257},{"NoteNumber":52,"Velocity":32,"Duration":82873,"SoundDuration":82873,"Delta":117522257},{"NoteNumber":74,"Velocity":32,"Duration":41899,"SoundDuration":41899,"Delta":117688236},{"NoteNumber":39,"Velocity":34,"Duration":83798,"SoundDuration":83798,"Delta":117688236},{"NoteNumber":72,"Velocity":32,"Duration":41899,"SoundDuration":41899,"Delta":117730135},{"NoteNumber":70,"Velocity":32,"Duration":41899,"SoundDuration":41899,"Delta":117772035},{"NoteNumber":69,"Velocity":32,"Duration":41899,"SoundDuration":41899,"Delta":117813934},{"NoteNumber":67,"Velocity":29,"Duration":83798,"SoundDuration":83798,"Delta":117855834},{"NoteNumber":46,"Velocity":28,"Duration":83798,"SoundDuration":83798,"Delta":117855834},{"NoteNumber":45,"Velocity":32,"Duration":82644,"SoundDuration":82644,"Delta":118023432},{"NoteNumber":57,"Velocity":35,"Duration":165560,"SoundDuration":165560,"Delta":118188721},{"NoteNumber":64,"Velocity":35,"Duration":165560,"SoundDuration":165560,"Delta":118188721},{"NoteNumber":52,"Velocity":29,"Duration":82644,"SoundDuration":82644,"Delta":118188721},{"NoteNumber":74,"Velocity":32,"Duration":41782,"SoundDuration":41782,"Delta":118354282},{"NoteNumber":39,"Velocity":32,"Duration":83565,"SoundDuration":83565,"Delta":118354282},{"NoteNumber":72,"Velocity":32,"Duration":41782,"SoundDuration":41782,"Delta":118396064},{"NoteNumber":70,"Velocity":32,"Duration":41782,"SoundDuration":41782,"Delta":118437847},{"NoteNumber":69,"Velocity":32,"Duration":41782,"SoundDuration":41782,"Delta":118479630},{"NoteNumber":67,"Velocity":29,"Duration":83565,"SoundDuration":83565,"Delta":118521413},{"NoteNumber":46,"Velocity":27,"Duration":83565,"SoundDuration":83565,"Delta":118521413},{"NoteNumber":45,"Velocity":46,"Duration":87209,"SoundDuration":87209,"Delta":118688544},{"NoteNumber":57,"Velocity":37,"Duration":85470,"SoundDuration":85470,"Delta":118862962},{"NoteNumber":64,"Velocity":37,"Duration":85470,"SoundDuration":85470,"Delta":118862962},{"NoteNumber":61,"Velocity":37,"Duration":85470,"SoundDuration":85470,"Delta":118862962},{"NoteNumber":52,"Velocity":41,"Duration":85470,"SoundDuration":85470,"Delta":118862962},{"NoteNumber":46,"Velocity":46,"Duration":87209,"SoundDuration":87209,"Delta":119033902},{"NoteNumber":58,"Velocity":37,"Duration":85714,"SoundDuration":85714,"Delta":119208321},{"NoteNumber":64,"Velocity":37,"Duration":85714,"SoundDuration":85714,"Delta":119208321},{"NoteNumber":61,"Velocity":37,"Duration":85714,"SoundDuration":85714,"Delta":119208321},{"NoteNumber":52,"Velocity":41,"Duration":85714,"SoundDuration":85714,"Delta":119208321},{"NoteNumber":44,"Velocity":44,"Duration":87209,"SoundDuration":87209,"Delta":119379749},{"NoteNumber":61,"Velocity":34,"Duration":85714,"SoundDuration":85714,"Delta":119554168},{"NoteNumber":56,"Velocity":34,"Duration":85714,"SoundDuration":85714,"Delta":119554168},{"NoteNumber":64,"Velocity":34,"Duration":85714,"SoundDuration":85714,"Delta":119554168},{"NoteNumber":52,"Velocity":42,"Duration":85714,"SoundDuration":85714,"Delta":119554168},{"NoteNumber":45,"Velocity":46,"Duration":87209,"SoundDuration":87209,"Delta":119725596},{"NoteNumber":61,"Velocity":35,"Duration":85714,"SoundDuration":85714,"Delta":119900015},{"NoteNumber":64,"Velocity":35,"Duration":85714,"SoundDuration":85714,"Delta":119900015},{"NoteNumber":57,"Velocity":35,"Duration":85714,"SoundDuration":85714,"Delta":119900015},{"NoteNumber":52,"Velocity":43,"Duration":85714,"SoundDuration":85714,"Delta":119900015},{"NoteNumber":46,"Velocity":48,"Duration":87209,"SoundDuration":87209,"Delta":120071443},{"NoteNumber":61,"Velocity":36,"Duration":85714,"SoundDuration":85714,"Delta":120245862},{"NoteNumber":58,"Velocity":36,"Duration":85714,"SoundDuration":85714,"Delta":120245862},{"NoteNumber":64,"Velocity":36,"Duration":85714,"SoundDuration":85714,"Delta":120245862},{"NoteNumber":52,"Velocity":43,"Duration":85714,"SoundDuration":85714,"Delta":120245862},{"NoteNumber":47,"Velocity":51,"Duration":87209,"SoundDuration":87209,"Delta":120417290},{"NoteNumber":61,"Velocity":40,"Duration":85714,"SoundDuration":85714,"Delta":120591709},{"NoteNumber":59,"Velocity":40,"Duration":85714,"SoundDuration":85714,"Delta":120591709},{"NoteNumber":64,"Velocity":40,"Duration":85714,"SoundDuration":85714,"Delta":120591709},{"NoteNumber":52,"Velocity":45,"Duration":85714,"SoundDuration":85714,"Delta":120591709},{"NoteNumber":48,"Velocity":53,"Duration":87209,"SoundDuration":87209,"Delta":120763137},{"NoteNumber":60,"Velocity":41,"Duration":85714,"SoundDuration":85714,"Delta":120937556},{"NoteNumber":61,"Velocity":41,"Duration":85714,"SoundDuration":85714,"Delta":120937556},{"NoteNumber":64,"Velocity":41,"Duration":85714,"SoundDuration":85714,"Delta":120937556},{"NoteNumber":52,"Velocity":49,"Duration":85714,"SoundDuration":85714,"Delta":120937556},{"NoteNumber":47,"Velocity":57,"Duration":87209,"SoundDuration":87209,"Delta":121108984},{"NoteNumber":59,"Velocity":43,"Duration":85714,"SoundDuration":85714,"Delta":121283403},{"NoteNumber":64,"Velocity":43,"Duration":85714,"SoundDuration":85714,"Delta":121283403},{"NoteNumber":61,"Velocity":43,"Duration":85714,"SoundDuration":85714,"Delta":121283403},{"NoteNumber":52,"Velocity":50,"Duration":85714,"SoundDuration":85714,"Delta":121283403},{"NoteNumber":46,"Velocity":58,"Duration":87209,"SoundDuration":87209,"Delta":121454831},{"NoteNumber":58,"Velocity":45,"Duration":85714,"SoundDuration":85714,"Delta":121629250},{"NoteNumber":64,"Velocity":45,"Duration":85714,"SoundDuration":85714,"Delta":121629250},{"NoteNumber":61,"Velocity":45,"Duration":85714,"SoundDuration":85714,"Delta":121629250},{"NoteNumber":52,"Velocity":53,"Duration":85714,"SoundDuration":85714,"Delta":121629250},{"NoteNumber":45,"Velocity":60,"Duration":87209,"SoundDuration":87209,"Delta":121800678},{"NoteNumber":61,"Velocity":48,"Duration":85714,"SoundDuration":85714,"Delta":121975097},{"NoteNumber":57,"Velocity":48,"Duration":85714,"SoundDuration":85714,"Delta":121975097},{"NoteNumber":64,"Velocity":48,"Duration":85714,"SoundDuration":85714,"Delta":121975097},{"NoteNumber":52,"Velocity":54,"Duration":85714,"SoundDuration":85714,"Delta":121975097},{"NoteNumber":44,"Velocity":63,"Duration":87209,"SoundDuration":87209,"Delta":122146525},{"NoteNumber":61,"Velocity":49,"Duration":85714,"SoundDuration":85714,"Delta":122320944},{"NoteNumber":56,"Velocity":49,"Duration":85714,"SoundDuration":85714,"Delta":122320944},{"NoteNumber":64,"Velocity":49,"Duration":85714,"SoundDuration":85714,"Delta":122320944},{"NoteNumber":52,"Velocity":58,"Duration":85714,"SoundDuration":85714,"Delta":122320944},{"NoteNumber":43,"Velocity":66,"Duration":87209,"SoundDuration":87209,"Delta":122492372},{"NoteNumber":55,"Velocity":51,"Duration":85714,"SoundDuration":85714,"Delta":122666791},{"NoteNumber":58,"Velocity":51,"Duration":85714,"SoundDuration":85714,"Delta":122666791},{"NoteNumber":61,"Velocity":51,"Duration":85714,"SoundDuration":85714,"Delta":122666791},{"NoteNumber":49,"Velocity":60,"Duration":85714,"SoundDuration":85714,"Delta":122666791},{"NoteNumber":42,"Velocity":69,"Duration":87209,"SoundDuration":87209,"Delta":122838219},{"NoteNumber":54,"Velocity":53,"Duration":85714,"SoundDuration":85714,"Delta":123012638},{"NoteNumber":61,"Velocity":53,"Duration":85714,"SoundDuration":85714,"Delta":123012638},{"NoteNumber":58,"Velocity":53,"Duration":85714,"SoundDuration":85714,"Delta":123012638},{"NoteNumber":49,"Velocity":64,"Duration":85714,"SoundDuration":85714,"Delta":123012638},{"NoteNumber":41,"Velocity":77,"Duration":87209,"SoundDuration":87209,"Delta":123184066},{"NoteNumber":53,"Velocity":55,"Duration":85714,"SoundDuration":85714,"Delta":123358485},{"NoteNumber":61,"Velocity":55,"Duration":85714,"SoundDuration":85714,"Delta":123358485},{"NoteNumber":58,"Velocity":55,"Duration":85714,"SoundDuration":85714,"Delta":123358485},{"NoteNumber":49,"Velocity":69,"Duration":85714,"SoundDuration":85714,"Delta":123358485},{"NoteNumber":40,"Velocity":83,"Duration":87209,"SoundDuration":87209,"Delta":123529913},{"NoteNumber":57,"Velocity":58,"Duration":85714,"SoundDuration":85714,"Delta":123704332},{"NoteNumber":52,"Velocity":58,"Duration":85714,"SoundDuration":85714,"Delta":123704332},{"NoteNumber":61,"Velocity":58,"Duration":85714,"SoundDuration":85714,"Delta":123704332},{"NoteNumber":49,"Velocity":76,"Duration":85714,"SoundDuration":85714,"Delta":123704332},{"NoteNumber":39,"Velocity":86,"Duration":87209,"SoundDuration":87209,"Delta":123875760},{"NoteNumber":55,"Velocity":59,"Duration":85714,"SoundDuration":85714,"Delta":124050179},{"NoteNumber":57,"Velocity":59,"Duration":85714,"SoundDuration":85714,"Delta":124050179},{"NoteNumber":61,"Velocity":59,"Duration":85714,"SoundDuration":85714,"Delta":124050179},{"NoteNumber":51,"Velocity":59,"Duration":85714,"SoundDuration":85714,"Delta":124050179},{"NoteNumber":49,"Velocity":79,"Duration":85714,"SoundDuration":85714,"Delta":124050179},{"NoteNumber":38,"Velocity":87,"Duration":87463,"SoundDuration":87463,"Delta":124221607},{"NoteNumber":50,"Velocity":102,"Duration":87463,"SoundDuration":87463,"Delta":124221607},{"NoteNumber":33,"Velocity":68,"Duration":87463,"SoundDuration":87463,"Delta":124396534},{"NoteNumber":45,"Velocity":80,"Duration":87463,"SoundDuration":87463,"Delta":124396534},{"NoteNumber":38,"Velocity":80,"Duration":87463,"SoundDuration":87463,"Delta":124571461},{"NoteNumber":50,"Velocity":94,"Duration":87463,"SoundDuration":87463,"Delta":124571461},{"NoteNumber":33,"Velocity":68,"Duration":87463,"SoundDuration":87463,"Delta":124746388},{"NoteNumber":45,"Velocity":80,"Duration":87463,"SoundDuration":87463,"Delta":124746388},{"NoteNumber":38,"Velocity":80,"Duration":87463,"SoundDuration":87463,"Delta":124921315},{"NoteNumber":50,"Velocity":94,"Duration":87463,"SoundDuration":87463,"Delta":124921315},{"NoteNumber":33,"Velocity":68,"Duration":87463,"SoundDuration":87463,"Delta":125096242},{"NoteNumber":45,"Velocity":80,"Duration":87463,"SoundDuration":87463,"Delta":125096242},{"NoteNumber":38,"Velocity":80,"Duration":87463,"SoundDuration":87463,"Delta":125271169},{"NoteNumber":50,"Velocity":94,"Duration":87463,"SoundDuration":87463,"Delta":125271169},{"NoteNumber":74,"Velocity":86,"Duration":43538,"SoundDuration":43538,"Delta":125446032},{"NoteNumber":45,"Velocity":80,"Duration":87077,"SoundDuration":87077,"Delta":125446032},{"NoteNumber":33,"Velocity":68,"Duration":87077,"SoundDuration":87077,"Delta":125446032},{"NoteNumber":76,"Velocity":86,"Duration":43538,"SoundDuration":43538,"Delta":125489571},{"NoteNumber":77,"Velocity":86,"Duration":43538,"SoundDuration":43538,"Delta":125533109},{"NoteNumber":79,"Velocity":86,"Duration":43432,"SoundDuration":43432,"Delta":125576648},{"NoteNumber":81,"Velocity":90,"Duration":89084,"SoundDuration":89084,"Delta":125620081},{"NoteNumber":38,"Velocity":71,"Duration":89084,"SoundDuration":89084,"Delta":125620081},{"NoteNumber":50,"Velocity":84,"Duration":89084,"SoundDuration":89084,"Delta":125620081},{"NoteNumber":74,"Velocity":68,"Duration":88276,"SoundDuration":88276,"Delta":125798250},{"NoteNumber":77,"Velocity":68,"Duration":88276,"SoundDuration":88276,"Delta":125798250},{"NoteNumber":86,"Velocity":81,"Duration":88276,"SoundDuration":88276,"Delta":125798250},{"NoteNumber":33,"Velocity":60,"Duration":88276,"SoundDuration":88276,"Delta":125798250},{"NoteNumber":45,"Velocity":71,"Duration":88276,"SoundDuration":88276,"Delta":125798250},{"NoteNumber":74,"Velocity":68,"Duration":88809,"SoundDuration":88809,"Delta":125974803},{"NoteNumber":77,"Velocity":68,"Duration":88809,"SoundDuration":88809,"Delta":125974803},{"NoteNumber":86,"Velocity":81,"Duration":88809,"SoundDuration":88809,"Delta":125974803},{"NoteNumber":38,"Velocity":71,"Duration":88809,"SoundDuration":88809,"Delta":125974803},{"NoteNumber":50,"Velocity":84,"Duration":88809,"SoundDuration":88809,"Delta":125974803},{"NoteNumber":74,"Velocity":68,"Duration":87478,"SoundDuration":87478,"Delta":126152423},{"NoteNumber":77,"Velocity":68,"Duration":87478,"SoundDuration":87478,"Delta":126152423},{"NoteNumber":85,"Velocity":81,"Duration":87478,"SoundDuration":87478,"Delta":126152423},{"NoteNumber":45,"Velocity":71,"Duration":87478,"SoundDuration":87478,"Delta":126152423},{"NoteNumber":33,"Velocity":60,"Duration":87478,"SoundDuration":87478,"Delta":126152423},{"NoteNumber":74,"Velocity":73,"Duration":88542,"SoundDuration":88542,"Delta":126327381},{"NoteNumber":77,"Velocity":73,"Duration":88542,"SoundDuration":88542,"Delta":126327381},{"NoteNumber":85,"Velocity":86,"Duration":88542,"SoundDuration":88542,"Delta":126327381},{"NoteNumber":38,"Velocity":71,"Duration":88542,"SoundDuration":88542,"Delta":126327381},{"NoteNumber":50,"Velocity":84,"Duration":88542,"SoundDuration":88542,"Delta":126327381},{"NoteNumber":74,"Velocity":68,"Duration":86695,"SoundDuration":86695,"Delta":126504466},{"NoteNumber":77,"Velocity":68,"Duration":86695,"SoundDuration":86695,"Delta":126504466},{"NoteNumber":84,"Velocity":81,"Duration":86695,"SoundDuration":86695,"Delta":126504466},{"NoteNumber":33,"Velocity":60,"Duration":86695,"SoundDuration":86695,"Delta":126504466},{"NoteNumber":45,"Velocity":71,"Duration":86695,"SoundDuration":86695,"Delta":126504466},{"NoteNumber":77,"Velocity":68,"Duration":87478,"SoundDuration":87478,"Delta":126677856},{"NoteNumber":84,"Velocity":81,"Duration":87478,"SoundDuration":87478,"Delta":126677856},{"NoteNumber":74,"Velocity":68,"Duration":87478,"SoundDuration":87478,"Delta":126677856},{"NoteNumber":38,"Velocity":71,"Duration":87478,"SoundDuration":87478,"Delta":126677856},{"NoteNumber":50,"Velocity":84,"Duration":87478,"SoundDuration":87478,"Delta":126677856},{"NoteNumber":74,"Velocity":68,"Duration":85178,"SoundDuration":85178,"Delta":126852814},{"NoteNumber":77,"Velocity":68,"Duration":85178,"SoundDuration":85178,"Delta":126852814},{"NoteNumber":83,"Velocity":81,"Duration":85178,"SoundDuration":85178,"Delta":126852814},{"NoteNumber":45,"Velocity":71,"Duration":85178,"SoundDuration":85178,"Delta":126852814},{"NoteNumber":33,"Velocity":60,"Duration":85178,"SoundDuration":85178,"Delta":126852814},{"NoteNumber":74,"Velocity":73,"Duration":87478,"SoundDuration":87478,"Delta":127023172},{"NoteNumber":77,"Velocity":73,"Duration":87478,"SoundDuration":87478,"Delta":127023172},{"NoteNumber":83,"Velocity":86,"Duration":87478,"SoundDuration":87478,"Delta":127023172},{"NoteNumber":38,"Velocity":71,"Duration":87478,"SoundDuration":87478,"Delta":127023172},{"NoteNumber":50,"Velocity":84,"Duration":87478,"SoundDuration":87478,"Delta":127023172},{"NoteNumber":74,"Velocity":69,"Duration":86182,"SoundDuration":86182,"Delta":127198129},{"NoteNumber":77,"Velocity":69,"Duration":86182,"SoundDuration":86182,"Delta":127198129},{"NoteNumber":82,"Velocity":82,"Duration":86182,"SoundDuration":86182,"Delta":127198129},{"NoteNumber":33,"Velocity":60,"Duration":86182,"SoundDuration":86182,"Delta":127198129},{"NoteNumber":45,"Velocity":71,"Duration":86182,"SoundDuration":86182,"Delta":127198129},{"NoteNumber":74,"Velocity":69,"Duration":87478,"SoundDuration":87478,"Delta":127370494},{"NoteNumber":77,"Velocity":69,"Duration":87478,"SoundDuration":87478,"Delta":127370494},{"NoteNumber":82,"Velocity":82,"Duration":87478,"SoundDuration":87478,"Delta":127370494},{"NoteNumber":38,"Velocity":71,"Duration":87478,"SoundDuration":87478,"Delta":127370494},{"NoteNumber":50,"Velocity":84,"Duration":87478,"SoundDuration":87478,"Delta":127370494},{"NoteNumber":77,"Velocity":69,"Duration":85930,"SoundDuration":85930,"Delta":127545451},{"NoteNumber":81,"Velocity":82,"Duration":85930,"SoundDuration":85930,"Delta":127545451},{"NoteNumber":74,"Velocity":69,"Duration":85930,"SoundDuration":85930,"Delta":127545451},{"NoteNumber":45,"Velocity":71,"Duration":85930,"SoundDuration":85930,"Delta":127545451},{"NoteNumber":33,"Velocity":60,"Duration":85930,"SoundDuration":85930,"Delta":127545451},{"NoteNumber":71,"Velocity":79,"Duration":86961,"SoundDuration":86961,"Delta":127717312},{"NoteNumber":76,"Velocity":79,"Duration":86961,"SoundDuration":86961,"Delta":127717312},{"NoteNumber":80,"Velocity":93,"Duration":86961,"SoundDuration":86961,"Delta":127717312},{"NoteNumber":38,"Velocity":71,"Duration":86961,"SoundDuration":86961,"Delta":127717312},{"NoteNumber":50,"Velocity":84,"Duration":86961,"SoundDuration":86961,"Delta":127717312},{"NoteNumber":71,"Velocity":82,"Duration":350476,"SoundDuration":350476,"Delta":127891235},{"NoteNumber":76,"Velocity":82,"Duration":350476,"SoundDuration":350476,"Delta":127891235},{"NoteNumber":80,"Velocity":97,"Duration":350476,"SoundDuration":350476,"Delta":127891235},{"NoteNumber":33,"Velocity":60,"Duration":86961,"SoundDuration":86961,"Delta":127891235},{"NoteNumber":45,"Velocity":71,"Duration":86961,"SoundDuration":86961,"Delta":127891235},{"NoteNumber":38,"Velocity":71,"Duration":88276,"SoundDuration":88276,"Delta":128065158},{"NoteNumber":50,"Velocity":84,"Duration":88276,"SoundDuration":88276,"Delta":128065158},{"NoteNumber":79,"Velocity":86,"Duration":43091,"SoundDuration":43091,"Delta":128241711},{"NoteNumber":45,"Velocity":71,"Duration":86182,"SoundDuration":86182,"Delta":128241711},{"NoteNumber":33,"Velocity":60,"Duration":86182,"SoundDuration":86182,"Delta":128241711},{"NoteNumber":81,"Velocity":86,"Duration":43091,"SoundDuration":43091,"Delta":128284802},{"NoteNumber":82,"Velocity":86,"Duration":43091,"SoundDuration":43091,"Delta":128327893},{"NoteNumber":84,"Velocity":86,"Duration":43091,"SoundDuration":43091,"Delta":128370984},{"NoteNumber":86,"Velocity":90,"Duration":87719,"SoundDuration":87719,"Delta":128414076},{"NoteNumber":38,"Velocity":71,"Duration":87719,"SoundDuration":87719,"Delta":128414076},{"NoteNumber":50,"Velocity":84,"Duration":87719,"SoundDuration":87719,"Delta":128414076},{"NoteNumber":79,"Velocity":68,"Duration":86207,"SoundDuration":86207,"Delta":128589514},{"NoteNumber":91,"Velocity":81,"Duration":86207,"SoundDuration":86207,"Delta":128589514},{"NoteNumber":82,"Velocity":68,"Duration":86207,"SoundDuration":86207,"Delta":128589514},{"NoteNumber":33,"Velocity":60,"Duration":86207,"SoundDuration":86207,"Delta":128589514},{"NoteNumber":45,"Velocity":71,"Duration":86207,"SoundDuration":86207,"Delta":128589514},{"NoteNumber":91,"Velocity":81,"Duration":87719,"SoundDuration":87719,"Delta":128761928},{"NoteNumber":79,"Velocity":68,"Duration":87719,"SoundDuration":87719,"Delta":128761928},{"NoteNumber":82,"Velocity":68,"Duration":87719,"SoundDuration":87719,"Delta":128761928},{"NoteNumber":38,"Velocity":71,"Duration":87719,"SoundDuration":87719,"Delta":128761928},{"NoteNumber":50,"Velocity":84,"Duration":87719,"SoundDuration":87719,"Delta":128761928},{"NoteNumber":79,"Velocity":68,"Duration":86182,"SoundDuration":86182,"Delta":128937367},{"NoteNumber":82,"Velocity":68,"Duration":86182,"SoundDuration":86182,"Delta":128937367},{"NoteNumber":90,"Velocity":81,"Duration":86182,"SoundDuration":86182,"Delta":128937367},{"NoteNumber":45,"Velocity":71,"Duration":86182,"SoundDuration":86182,"Delta":128937367},{"NoteNumber":33,"Velocity":60,"Duration":86182,"SoundDuration":86182,"Delta":128937367},{"NoteNumber":90,"Velocity":86,"Duration":87745,"SoundDuration":87745,"Delta":129109731},{"NoteNumber":82,"Velocity":73,"Duration":87745,"SoundDuration":87745,"Delta":129109731},{"NoteNumber":79,"Velocity":73,"Duration":87745,"SoundDuration":87745,"Delta":129109731},{"NoteNumber":38,"Velocity":71,"Duration":87745,"SoundDuration":87745,"Delta":129109731},{"NoteNumber":50,"Velocity":84,"Duration":87745,"SoundDuration":87745,"Delta":129109731},{"NoteNumber":79,"Velocity":68,"Duration":85679,"SoundDuration":85679,"Delta":129285221},{"NoteNumber":89,"Velocity":81,"Duration":85679,"SoundDuration":85679,"Delta":129285221},{"NoteNumber":82,"Velocity":68,"Duration":85679,"SoundDuration":85679,"Delta":129285221},{"NoteNumber":33,"Velocity":60,"Duration":85679,"SoundDuration":85679,"Delta":129285221},{"NoteNumber":45,"Velocity":71,"Duration":85679,"SoundDuration":85679,"Delta":129285221},{"NoteNumber":82,"Velocity":68,"Duration":86440,"SoundDuration":86440,"Delta":129456581},{"NoteNumber":79,"Velocity":68,"Duration":86440,"SoundDuration":86440,"Delta":129456581},{"NoteNumber":89,"Velocity":81,"Duration":86440,"SoundDuration":86440,"Delta":129456581},{"NoteNumber":38,"Velocity":71,"Duration":86440,"SoundDuration":86440,"Delta":129456581},{"NoteNumber":50,"Velocity":84,"Duration":86440,"SoundDuration":86440,"Delta":129456581},{"NoteNumber":79,"Velocity":68,"Duration":84933,"SoundDuration":84933,"Delta":129629462},{"NoteNumber":88,"Velocity":81,"Duration":84933,"SoundDuration":84933,"Delta":129629462},{"NoteNumber":82,"Velocity":68,"Duration":84933,"SoundDuration":84933,"Delta":129629462},{"NoteNumber":45,"Velocity":71,"Duration":84933,"SoundDuration":84933,"Delta":129629462},{"NoteNumber":33,"Velocity":60,"Duration":84933,"SoundDuration":84933,"Delta":129629462},{"NoteNumber":82,"Velocity":73,"Duration":87478,"SoundDuration":87478,"Delta":129799328},{"NoteNumber":79,"Velocity":73,"Duration":87478,"SoundDuration":87478,"Delta":129799328},{"NoteNumber":88,"Velocity":86,"Duration":87478,"SoundDuration":87478,"Delta":129799328},{"NoteNumber":38,"Velocity":71,"Duration":87478,"SoundDuration":87478,"Delta":129799328},{"NoteNumber":50,"Velocity":84,"Duration":87478,"SoundDuration":87478,"Delta":129799328},{"NoteNumber":79,"Velocity":69,"Duration":85179,"SoundDuration":85179,"Delta":129974286},{"NoteNumber":87,"Velocity":82,"Duration":85179,"SoundDuration":85179,"Delta":129974286},{"NoteNumber":82,"Velocity":69,"Duration":85179,"SoundDuration":85179,"Delta":129974286},{"NoteNumber":33,"Velocity":60,"Duration":85179,"SoundDuration":85179,"Delta":129974286},{"NoteNumber":45,"Velocity":71,"Duration":85179,"SoundDuration":85179,"Delta":129974286},{"NoteNumber":82,"Velocity":69,"Duration":86182,"SoundDuration":86182,"Delta":130144644},{"NoteNumber":87,"Velocity":82,"Duration":86182,"SoundDuration":86182,"Delta":130144644},{"NoteNumber":79,"Velocity":69,"Duration":86182,"SoundDuration":86182,"Delta":130144644},{"NoteNumber":38,"Velocity":71,"Duration":86182,"SoundDuration":86182,"Delta":130144644},{"NoteNumber":50,"Velocity":84,"Duration":86182,"SoundDuration":86182,"Delta":130144644},{"NoteNumber":86,"Velocity":82,"Duration":85179,"SoundDuration":85179,"Delta":130317008},{"NoteNumber":82,"Velocity":69,"Duration":85179,"SoundDuration":85179,"Delta":130317008},{"NoteNumber":79,"Velocity":69,"Duration":85179,"SoundDuration":85179,"Delta":130317008},{"NoteNumber":45,"Velocity":71,"Duration":85179,"SoundDuration":85179,"Delta":130317008},{"NoteNumber":33,"Velocity":60,"Duration":85179,"SoundDuration":85179,"Delta":130317008},{"NoteNumber":76,"Velocity":79,"Duration":86961,"SoundDuration":86961,"Delta":130487366},{"NoteNumber":85,"Velocity":93,"Duration":86961,"SoundDuration":86961,"Delta":130487366},{"NoteNumber":81,"Velocity":79,"Duration":86961,"SoundDuration":86961,"Delta":130487366},{"NoteNumber":38,"Velocity":71,"Duration":86961,"SoundDuration":86961,"Delta":130487366},{"NoteNumber":50,"Velocity":84,"Duration":86961,"SoundDuration":86961,"Delta":130487366},{"NoteNumber":85,"Velocity":97,"Duration":334840,"SoundDuration":334840,"Delta":130661289},{"NoteNumber":76,"Velocity":82,"Duration":334840,"SoundDuration":334840,"Delta":130661289},{"NoteNumber":81,"Velocity":82,"Duration":334840,"SoundDuration":334840,"Delta":130661289},{"NoteNumber":33,"Velocity":60,"Duration":83709,"SoundDuration":83709,"Delta":130661289},{"NoteNumber":45,"Velocity":71,"Duration":83709,"SoundDuration":83709,"Delta":130661289},{"NoteNumber":38,"Velocity":71,"Duration":83709,"SoundDuration":83709,"Delta":130828709},{"NoteNumber":50,"Velocity":84,"Duration":83709,"SoundDuration":83709,"Delta":130828709},{"NoteNumber":45,"Velocity":71,"Duration":82286,"SoundDuration":82286,"Delta":130996129},{"NoteNumber":33,"Velocity":60,"Duration":82286,"SoundDuration":82286,"Delta":130996129},{"NoteNumber":86,"Velocity":106,"Duration":42094,"SoundDuration":42094,"Delta":131160702},{"NoteNumber":65,"Velocity":84,"Duration":84189,"SoundDuration":84189,"Delta":131160702},{"NoteNumber":53,"Velocity":71,"Duration":84189,"SoundDuration":84189,"Delta":131160702},{"NoteNumber":88,"Velocity":83,"Duration":42094,"SoundDuration":42094,"Delta":131202797},{"NoteNumber":89,"Velocity":83,"Duration":42094,"SoundDuration":42094,"Delta":131244891},{"NoteNumber":91,"Velocity":83,"Duration":42094,"SoundDuration":42094,"Delta":131286986},{"NoteNumber":93,"Velocity":83,"Duration":86695,"SoundDuration":86695,"Delta":131329081},{"NoteNumber":38,"Velocity":60,"Duration":86695,"SoundDuration":86695,"Delta":131329081},{"NoteNumber":50,"Velocity":71,"Duration":86695,"SoundDuration":86695,"Delta":131329081},{"NoteNumber":91,"Velocity":104,"Duration":42094,"SoundDuration":42094,"Delta":131502471},{"NoteNumber":52,"Velocity":71,"Duration":84189,"SoundDuration":84189,"Delta":131502471},{"NoteNumber":64,"Velocity":84,"Duration":84189,"SoundDuration":84189,"Delta":131502471},{"NoteNumber":89,"Velocity":84,"Duration":42094,"SoundDuration":42094,"Delta":131544566},{"NoteNumber":88,"Velocity":84,"Duration":42094,"SoundDuration":42094,"Delta":131586660},{"NoteNumber":86,"Velocity":84,"Duration":42094,"SoundDuration":42094,"Delta":131628755},{"NoteNumber":84,"Velocity":85,"Duration":86695,"SoundDuration":86695,"Delta":131670850},{"NoteNumber":38,"Velocity":60,"Duration":86695,"SoundDuration":86695,"Delta":131670850},{"NoteNumber":50,"Velocity":71,"Duration":86695,"SoundDuration":86695,"Delta":131670850},{"NoteNumber":82,"Velocity":104,"Duration":42094,"SoundDuration":42094,"Delta":131844240},{"NoteNumber":62,"Velocity":84,"Duration":84189,"SoundDuration":84189,"Delta":131844240},{"NoteNumber":50,"Velocity":71,"Duration":84189,"SoundDuration":84189,"Delta":131844240},{"NoteNumber":84,"Velocity":84,"Duration":42094,"SoundDuration":42094,"Delta":131886335},{"NoteNumber":86,"Velocity":84,"Duration":42094,"SoundDuration":42094,"Delta":131928429},{"NoteNumber":88,"Velocity":84,"Duration":42094,"SoundDuration":42094,"Delta":131970524},{"NoteNumber":89,"Velocity":84,"Duration":86695,"SoundDuration":86695,"Delta":132012619},{"NoteNumber":38,"Velocity":60,"Duration":86695,"SoundDuration":86695,"Delta":132012619},{"NoteNumber":50,"Velocity":71,"Duration":86695,"SoundDuration":86695,"Delta":132012619},{"NoteNumber":88,"Velocity":104,"Duration":42094,"SoundDuration":42094,"Delta":132186009},{"NoteNumber":48,"Velocity":71,"Duration":84189,"SoundDuration":84189,"Delta":132186009},{"NoteNumber":60,"Velocity":84,"Duration":84189,"SoundDuration":84189,"Delta":132186009},{"NoteNumber":86,"Velocity":84,"Duration":42094,"SoundDuration":42094,"Delta":132228104},{"NoteNumber":84,"Velocity":84,"Duration":42094,"SoundDuration":42094,"Delta":132270198},{"NoteNumber":82,"Velocity":84,"Duration":42094,"SoundDuration":42094,"Delta":132312293},{"NoteNumber":81,"Velocity":84,"Duration":86695,"SoundDuration":86695,"Delta":132354388},{"NoteNumber":38,"Velocity":60,"Duration":86695,"SoundDuration":86695,"Delta":132354388},{"NoteNumber":50,"Velocity":71,"Duration":86695,"SoundDuration":86695,"Delta":132354388},{"NoteNumber":79,"Velocity":104,"Duration":42094,"SoundDuration":42094,"Delta":132527778},{"NoteNumber":46,"Velocity":71,"Duration":84189,"SoundDuration":84189,"Delta":132527778},{"NoteNumber":58,"Velocity":84,"Duration":84189,"SoundDuration":84189,"Delta":132527778},{"NoteNumber":81,"Velocity":86,"Duration":42094,"SoundDuration":42094,"Delta":132569873},{"NoteNumber":82,"Velocity":86,"Duration":42094,"SoundDuration":42094,"Delta":132611967},{"NoteNumber":84,"Velocity":86,"Duration":42094,"SoundDuration":42094,"Delta":132654062},{"NoteNumber":86,"Velocity":86,"Duration":86695,"SoundDuration":86695,"Delta":132696157},{"NoteNumber":38,"Velocity":60,"Duration":86695,"SoundDuration":86695,"Delta":132696157},{"NoteNumber":50,"Velocity":71,"Duration":86695,"SoundDuration":86695,"Delta":132696157},{"NoteNumber":84,"Velocity":104,"Duration":42094,"SoundDuration":42094,"Delta":132869547},{"NoteNumber":45,"Velocity":71,"Duration":84189,"SoundDuration":84189,"Delta":132869547},{"NoteNumber":57,"Velocity":84,"Duration":84189,"SoundDuration":84189,"Delta":132869547},{"NoteNumber":82,"Velocity":86,"Duration":42094,"SoundDuration":42094,"Delta":132911642},{"NoteNumber":81,"Velocity":85,"Duration":42094,"SoundDuration":42094,"Delta":132953736},{"NoteNumber":79,"Velocity":85,"Duration":42094,"SoundDuration":42094,"Delta":132995831},{"NoteNumber":77,"Velocity":85,"Duration":86455,"SoundDuration":86455,"Delta":133037926},{"NoteNumber":38,"Velocity":60,"Duration":86455,"SoundDuration":86455,"Delta":133037926},{"NoteNumber":50,"Velocity":71,"Duration":86455,"SoundDuration":86455,"Delta":133037926},{"NoteNumber":81,"Velocity":94,"Duration":85714,"SoundDuration":85714,"Delta":133210836},{"NoteNumber":88,"Velocity":94,"Duration":85714,"SoundDuration":85714,"Delta":133210836},{"NoteNumber":76,"Velocity":94,"Duration":85714,"SoundDuration":85714,"Delta":133210836},{"NoteNumber":43,"Velocity":71,"Duration":85714,"SoundDuration":85714,"Delta":133210836},{"NoteNumber":55,"Velocity":84,"Duration":85714,"SoundDuration":85714,"Delta":133210836},{"NoteNumber":76,"Velocity":94,"Duration":338983,"SoundDuration":338983,"Delta":133382265},{"NoteNumber":81,"Velocity":94,"Duration":338983,"SoundDuration":338983,"Delta":133382265},{"NoteNumber":88,"Velocity":94,"Duration":338983,"SoundDuration":338983,"Delta":133382265},{"NoteNumber":38,"Velocity":60,"Duration":84745,"SoundDuration":84745,"Delta":133382265},{"NoteNumber":50,"Velocity":71,"Duration":84745,"SoundDuration":84745,"Delta":133382265},{"NoteNumber":43,"Velocity":71,"Duration":84745,"SoundDuration":84745,"Delta":133551756},{"NoteNumber":55,"Velocity":84,"Duration":84745,"SoundDuration":84745,"Delta":133551756},{"NoteNumber":38,"Velocity":60,"Duration":84745,"SoundDuration":84745,"Delta":133721248},{"NoteNumber":50,"Velocity":71,"Duration":84745,"SoundDuration":84745,"Delta":133721248},{"NoteNumber":82,"Velocity":92,"Duration":42094,"SoundDuration":42094,"Delta":133890739},{"NoteNumber":62,"Velocity":84,"Duration":84189,"SoundDuration":84189,"Delta":133890739},{"NoteNumber":50,"Velocity":71,"Duration":84189,"SoundDuration":84189,"Delta":133890739},{"NoteNumber":84,"Velocity":83,"Duration":42094,"SoundDuration":42094,"Delta":133932834},{"NoteNumber":86,"Velocity":83,"Duration":42094,"SoundDuration":42094,"Delta":133974928},{"NoteNumber":88,"Velocity":83,"Duration":42094,"SoundDuration":42094,"Delta":134017023},{"NoteNumber":89,"Velocity":83,"Duration":86695,"SoundDuration":86695,"Delta":134059118},{"NoteNumber":38,"Velocity":60,"Duration":86695,"SoundDuration":86695,"Delta":134059118},{"NoteNumber":50,"Velocity":71,"Duration":86695,"SoundDuration":86695,"Delta":134059118},{"NoteNumber":88,"Velocity":92,"Duration":42094,"SoundDuration":42094,"Delta":134232508},{"NoteNumber":48,"Velocity":71,"Duration":84189,"SoundDuration":84189,"Delta":134232508},{"NoteNumber":60,"Velocity":84,"Duration":84189,"SoundDuration":84189,"Delta":134232508},{"NoteNumber":86,"Velocity":84,"Duration":42094,"SoundDuration":42094,"Delta":134274603},{"NoteNumber":84,"Velocity":84,"Duration":42094,"SoundDuration":42094,"Delta":134316697},{"NoteNumber":82,"Velocity":84,"Duration":42094,"SoundDuration":42094,"Delta":134358792},{"NoteNumber":81,"Velocity":85,"Duration":86695,"SoundDuration":86695,"Delta":134400887},{"NoteNumber":38,"Velocity":60,"Duration":86695,"SoundDuration":86695,"Delta":134400887},{"NoteNumber":50,"Velocity":71,"Duration":86695,"SoundDuration":86695,"Delta":134400887},{"NoteNumber":79,"Velocity":92,"Duration":42094,"SoundDuration":42094,"Delta":134574277},{"NoteNumber":58,"Velocity":84,"Duration":84189,"SoundDuration":84189,"Delta":134574277},{"NoteNumber":46,"Velocity":71,"Duration":84189,"SoundDuration":84189,"Delta":134574277},{"NoteNumber":81,"Velocity":84,"Duration":42094,"SoundDuration":42094,"Delta":134616372},{"NoteNumber":82,"Velocity":84,"Duration":42094,"SoundDuration":42094,"Delta":134658466},{"NoteNumber":84,"Velocity":84,"Duration":42094,"SoundDuration":42094,"Delta":134700561},{"NoteNumber":86,"Velocity":84,"Duration":86695,"SoundDuration":86695,"Delta":134742656},{"NoteNumber":38,"Velocity":60,"Duration":86695,"SoundDuration":86695,"Delta":134742656},{"NoteNumber":50,"Velocity":71,"Duration":86695,"SoundDuration":86695,"Delta":134742656},{"NoteNumber":84,"Velocity":92,"Duration":42094,"SoundDuration":42094,"Delta":134916046},{"NoteNumber":45,"Velocity":71,"Duration":84189,"SoundDuration":84189,"Delta":134916046},{"NoteNumber":57,"Velocity":84,"Duration":84189,"SoundDuration":84189,"Delta":134916046},{"NoteNumber":82,"Velocity":84,"Duration":42094,"SoundDuration":42094,"Delta":134958141},{"NoteNumber":81,"Velocity":84,"Duration":42094,"SoundDuration":42094,"Delta":135000235},{"NoteNumber":79,"Velocity":84,"Duration":42094,"SoundDuration":42094,"Delta":135042330},{"NoteNumber":77,"Velocity":84,"Duration":86695,"SoundDuration":86695,"Delta":135084425},{"NoteNumber":38,"Velocity":60,"Duration":86695,"SoundDuration":86695,"Delta":135084425},{"NoteNumber":50,"Velocity":71,"Duration":86695,"SoundDuration":86695,"Delta":135084425},{"NoteNumber":75,"Velocity":94,"Duration":42094,"SoundDuration":42094,"Delta":135257815},{"NoteNumber":43,"Velocity":71,"Duration":84189,"SoundDuration":84189,"Delta":135257815},{"NoteNumber":55,"Velocity":84,"Duration":84189,"SoundDuration":84189,"Delta":135257815},{"NoteNumber":77,"Velocity":83,"Duration":42094,"SoundDuration":42094,"Delta":135299910},{"NoteNumber":79,"Velocity":83,"Duration":42094,"SoundDuration":42094,"Delta":135342004},{"NoteNumber":81,"Velocity":83,"Duration":42094,"SoundDuration":42094,"Delta":135384099},{"NoteNumber":82,"Velocity":83,"Duration":86695,"SoundDuration":86695,"Delta":135426194},{"NoteNumber":38,"Velocity":60,"Duration":86695,"SoundDuration":86695,"Delta":135426194},{"NoteNumber":50,"Velocity":71,"Duration":86695,"SoundDuration":86695,"Delta":135426194},{"NoteNumber":81,"Velocity":92,"Duration":42094,"SoundDuration":42094,"Delta":135599584},{"NoteNumber":41,"Velocity":71,"Duration":84189,"SoundDuration":84189,"Delta":135599584},{"NoteNumber":53,"Velocity":84,"Duration":84189,"SoundDuration":84189,"Delta":135599584},{"NoteNumber":79,"Velocity":83,"Duration":42094,"SoundDuration":42094,"Delta":135641679},{"NoteNumber":77,"Velocity":83,"Duration":42094,"SoundDuration":42094,"Delta":135683773},{"NoteNumber":75,"Velocity":83,"Duration":42094,"SoundDuration":42094,"Delta":135725868},{"NoteNumber":74,"Velocity":83,"Duration":86455,"SoundDuration":86455,"Delta":135767963},{"NoteNumber":38,"Velocity":60,"Duration":86455,"SoundDuration":86455,"Delta":135767963},{"NoteNumber":50,"Velocity":71,"Duration":86455,"SoundDuration":86455,"Delta":135767963},{"NoteNumber":76,"Velocity":86,"Duration":85714,"SoundDuration":85714,"Delta":135940873},{"NoteNumber":81,"Velocity":86,"Duration":85714,"SoundDuration":85714,"Delta":135940873},{"NoteNumber":69,"Velocity":86,"Duration":85714,"SoundDuration":85714,"Delta":135940873},{"NoteNumber":40,"Velocity":71,"Duration":85714,"SoundDuration":85714,"Delta":135940873},{"NoteNumber":52,"Velocity":84,"Duration":85714,"SoundDuration":85714,"Delta":135940873},{"NoteNumber":69,"Velocity":86,"Duration":338983,"SoundDuration":338983,"Delta":136112302},{"NoteNumber":76,"Velocity":86,"Duration":338983,"SoundDuration":338983,"Delta":136112302},{"NoteNumber":81,"Velocity":86,"Duration":338983,"SoundDuration":338983,"Delta":136112302},{"NoteNumber":38,"Velocity":60,"Duration":84745,"SoundDuration":84745,"Delta":136112302},{"NoteNumber":50,"Velocity":71,"Duration":84745,"SoundDuration":84745,"Delta":136112302},{"NoteNumber":40,"Velocity":71,"Duration":84745,"SoundDuration":84745,"Delta":136281793},{"NoteNumber":52,"Velocity":84,"Duration":84745,"SoundDuration":84745,"Delta":136281793},{"NoteNumber":38,"Velocity":60,"Duration":84745,"SoundDuration":84745,"Delta":136451285},{"NoteNumber":50,"Velocity":71,"Duration":84745,"SoundDuration":84745,"Delta":136451285},{"NoteNumber":74,"Velocity":75,"Duration":42372,"SoundDuration":42372,"Delta":136621157},{"NoteNumber":53,"Velocity":62,"Duration":84745,"SoundDuration":84745,"Delta":136621157},{"NoteNumber":76,"Velocity":66,"Duration":42372,"SoundDuration":42372,"Delta":136663530},{"NoteNumber":77,"Velocity":66,"Duration":42372,"SoundDuration":42372,"Delta":136705903},{"NoteNumber":79,"Velocity":66,"Duration":42372,"SoundDuration":42372,"Delta":136748276},{"NoteNumber":81,"Velocity":66,"Duration":86455,"SoundDuration":86455,"Delta":136790649},{"NoteNumber":38,"Velocity":52,"Duration":86455,"SoundDuration":86455,"Delta":136790649},{"NoteNumber":79,"Velocity":77,"Duration":42372,"SoundDuration":42372,"Delta":136963559},{"NoteNumber":52,"Velocity":60,"Duration":84745,"SoundDuration":84745,"Delta":136963559},{"NoteNumber":77,"Velocity":65,"Duration":42372,"SoundDuration":42372,"Delta":137005932},{"NoteNumber":76,"Velocity":65,"Duration":42372,"SoundDuration":42372,"Delta":137048305},{"NoteNumber":74,"Velocity":65,"Duration":42372,"SoundDuration":42372,"Delta":137090678},{"NoteNumber":72,"Velocity":65,"Duration":86705,"SoundDuration":86705,"Delta":137133051},{"NoteNumber":38,"Velocity":51,"Duration":86705,"SoundDuration":86705,"Delta":137133051},{"NoteNumber":70,"Velocity":73,"Duration":42372,"SoundDuration":42372,"Delta":137306461},{"NoteNumber":50,"Velocity":59,"Duration":84745,"SoundDuration":84745,"Delta":137306461},{"NoteNumber":72,"Velocity":65,"Duration":42372,"SoundDuration":42372,"Delta":137348834},{"NoteNumber":74,"Velocity":64,"Duration":42372,"SoundDuration":42372,"Delta":137391207},{"NoteNumber":76,"Velocity":64,"Duration":42372,"SoundDuration":42372,"Delta":137433580},{"NoteNumber":77,"Velocity":64,"Duration":86455,"SoundDuration":86455,"Delta":137475953},{"NoteNumber":38,"Velocity":50,"Duration":86455,"SoundDuration":86455,"Delta":137475953},{"NoteNumber":76,"Velocity":72,"Duration":42214,"SoundDuration":42214,"Delta":137648863},{"NoteNumber":48,"Velocity":58,"Duration":84349,"SoundDuration":84349,"Delta":137648863},{"NoteNumber":74,"Velocity":64,"Duration":42134,"SoundDuration":42134,"Delta":137691077},{"NoteNumber":72,"Velocity":63,"Duration":42134,"SoundDuration":42134,"Delta":137733212},{"NoteNumber":70,"Velocity":63,"Duration":42134,"SoundDuration":42134,"Delta":137775347},{"NoteNumber":69,"Velocity":63,"Duration":86455,"SoundDuration":86455,"Delta":137817482},{"NoteNumber":38,"Velocity":49,"Duration":86455,"SoundDuration":86455,"Delta":137817482},{"NoteNumber":67,"Velocity":71,"Duration":42372,"SoundDuration":42372,"Delta":137990392},{"NoteNumber":46,"Velocity":57,"Duration":84745,"SoundDuration":84745,"Delta":137990392},{"NoteNumber":69,"Velocity":63,"Duration":42372,"SoundDuration":42372,"Delta":138032765},{"NoteNumber":70,"Velocity":63,"Duration":42372,"SoundDuration":42372,"Delta":138075138},{"NoteNumber":72,"Velocity":62,"Duration":42372,"SoundDuration":42372,"Delta":138117511},{"NoteNumber":74,"Velocity":62,"Duration":86455,"SoundDuration":86455,"Delta":138159884},{"NoteNumber":38,"Velocity":48,"Duration":86455,"SoundDuration":86455,"Delta":138159884},{"NoteNumber":72,"Velocity":71,"Duration":42372,"SoundDuration":42372,"Delta":138332794},{"NoteNumber":45,"Velocity":56,"Duration":84745,"SoundDuration":84745,"Delta":138332794},{"NoteNumber":70,"Velocity":62,"Duration":42372,"SoundDuration":42372,"Delta":138375167},{"NoteNumber":69,"Velocity":62,"Duration":42372,"SoundDuration":42372,"Delta":138417540},{"NoteNumber":67,"Velocity":60,"Duration":42372,"SoundDuration":42372,"Delta":138459913},{"NoteNumber":65,"Velocity":60,"Duration":86455,"SoundDuration":86455,"Delta":138502286},{"NoteNumber":38,"Velocity":48,"Duration":86455,"SoundDuration":86455,"Delta":138502286},{"NoteNumber":64,"Velocity":71,"Duration":85714,"SoundDuration":85714,"Delta":138675196},{"NoteNumber":69,"Velocity":71,"Duration":85714,"SoundDuration":85714,"Delta":138675196},{"NoteNumber":76,"Velocity":71,"Duration":85714,"SoundDuration":85714,"Delta":138675196},{"NoteNumber":43,"Velocity":55,"Duration":85714,"SoundDuration":85714,"Delta":138675196},{"NoteNumber":64,"Velocity":72,"Duration":338028,"SoundDuration":338028,"Delta":138846625},{"NoteNumber":69,"Velocity":72,"Duration":338028,"SoundDuration":338028,"Delta":138846625},{"NoteNumber":76,"Velocity":72,"Duration":338028,"SoundDuration":338028,"Delta":138846625},{"NoteNumber":38,"Velocity":47,"Duration":84507,"SoundDuration":84507,"Delta":138846625},{"NoteNumber":43,"Velocity":54,"Duration":84507,"SoundDuration":84507,"Delta":139015639},{"NoteNumber":38,"Velocity":46,"Duration":84507,"SoundDuration":84507,"Delta":139184653},{"NoteNumber":70,"Velocity":58,"Duration":42372,"SoundDuration":42372,"Delta":139353667},{"NoteNumber":50,"Velocity":49,"Duration":84745,"SoundDuration":84745,"Delta":139353667},{"NoteNumber":72,"Velocity":54,"Duration":42372,"SoundDuration":42372,"Delta":139396040},{"NoteNumber":74,"Velocity":54,"Duration":42372,"SoundDuration":42372,"Delta":139438413},{"NoteNumber":76,"Velocity":54,"Duration":42372,"SoundDuration":42372,"Delta":139480786},{"NoteNumber":77,"Velocity":54,"Duration":86705,"SoundDuration":86705,"Delta":139523158},{"NoteNumber":38,"Velocity":41,"Duration":86705,"SoundDuration":86705,"Delta":139523158},{"NoteNumber":76,"Velocity":60,"Duration":42492,"SoundDuration":42492,"Delta":139696569},{"NoteNumber":48,"Velocity":48,"Duration":84985,"SoundDuration":84985,"Delta":139696569},{"NoteNumber":74,"Velocity":54,"Duration":42492,"SoundDuration":42492,"Delta":139739062},{"NoteNumber":72,"Velocity":54,"Duration":42492,"SoundDuration":42492,"Delta":139781555},{"NoteNumber":70,"Velocity":54,"Duration":42492,"SoundDuration":42492,"Delta":139824048},{"NoteNumber":69,"Velocity":55,"Duration":86705,"SoundDuration":86705,"Delta":139866540},{"NoteNumber":38,"Velocity":41,"Duration":86705,"SoundDuration":86705,"Delta":139866540},{"NoteNumber":67,"Velocity":59,"Duration":42492,"SoundDuration":42492,"Delta":140039951},{"NoteNumber":46,"Velocity":48,"Duration":84985,"SoundDuration":84985,"Delta":140039951},{"NoteNumber":69,"Velocity":54,"Duration":42492,"SoundDuration":42492,"Delta":140082444},{"NoteNumber":70,"Velocity":54,"Duration":42492,"SoundDuration":42492,"Delta":140124937},{"NoteNumber":72,"Velocity":54,"Duration":42492,"SoundDuration":42492,"Delta":140167430},{"NoteNumber":74,"Velocity":52,"Duration":86705,"SoundDuration":86705,"Delta":140209922},{"NoteNumber":38,"Velocity":40,"Duration":86705,"SoundDuration":86705,"Delta":140209922},{"NoteNumber":72,"Velocity":56,"Duration":42492,"SoundDuration":42492,"Delta":140383333},{"NoteNumber":45,"Velocity":47,"Duration":84985,"SoundDuration":84985,"Delta":140383333},{"NoteNumber":70,"Velocity":52,"Duration":42492,"SoundDuration":42492,"Delta":140425826},{"NoteNumber":69,"Velocity":52,"Duration":42492,"SoundDuration":42492,"Delta":140468319},{"NoteNumber":67,"Velocity":52,"Duration":42492,"SoundDuration":42492,"Delta":140510812},{"NoteNumber":65,"Velocity":52,"Duration":86705,"SoundDuration":86705,"Delta":140553304},{"NoteNumber":38,"Velocity":40,"Duration":86705,"SoundDuration":86705,"Delta":140553304},{"NoteNumber":63,"Velocity":56,"Duration":42492,"SoundDuration":42492,"Delta":140726715},{"NoteNumber":43,"Velocity":47,"Duration":84985,"SoundDuration":84985,"Delta":140726715},{"NoteNumber":65,"Velocity":51,"Duration":42492,"SoundDuration":42492,"Delta":140769208},{"NoteNumber":67,"Velocity":51,"Duration":42492,"SoundDuration":42492,"Delta":140811701},{"NoteNumber":69,"Velocity":51,"Duration":42492,"SoundDuration":42492,"Delta":140854194},{"NoteNumber":70,"Velocity":51,"Duration":86705,"SoundDuration":86705,"Delta":140896686},{"NoteNumber":38,"Velocity":40,"Duration":86705,"SoundDuration":86705,"Delta":140896686},{"NoteNumber":69,"Velocity":55,"Duration":42492,"SoundDuration":42492,"Delta":141070097},{"NoteNumber":41,"Velocity":46,"Duration":84985,"SoundDuration":84985,"Delta":141070097},{"NoteNumber":67,"Velocity":50,"Duration":42492,"SoundDuration":42492,"Delta":141112590},{"NoteNumber":65,"Velocity":50,"Duration":42492,"SoundDuration":42492,"Delta":141155083},{"NoteNumber":63,"Velocity":50,"Duration":42492,"SoundDuration":42492,"Delta":141197576},{"NoteNumber":62,"Velocity":50,"Duration":86705,"SoundDuration":86705,"Delta":141240068},{"NoteNumber":38,"Velocity":39,"Duration":86705,"SoundDuration":86705,"Delta":141240068},{"NoteNumber":57,"Velocity":43,"Duration":86167,"SoundDuration":86167,"Delta":141413479},{"NoteNumber":64,"Velocity":43,"Duration":86167,"SoundDuration":86167,"Delta":141413479},{"NoteNumber":69,"Velocity":51,"Duration":86167,"SoundDuration":86167,"Delta":141413479},{"NoteNumber":40,"Velocity":46,"Duration":86167,"SoundDuration":86167,"Delta":141413479},{"NoteNumber":57,"Velocity":44,"Duration":338982,"SoundDuration":338982,"Delta":141585607},{"NoteNumber":64,"Velocity":44,"Duration":338982,"SoundDuration":338982,"Delta":141585607},{"NoteNumber":69,"Velocity":52,"Duration":338982,"SoundDuration":338982,"Delta":141585607},{"NoteNumber":38,"Velocity":37,"Duration":84745,"SoundDuration":84745,"Delta":141585607},{"NoteNumber":40,"Velocity":44,"Duration":84745,"SoundDuration":84745,"Delta":141755098},{"NoteNumber":38,"Velocity":37,"Duration":84745,"SoundDuration":84745,"Delta":141924590},{"NoteNumber":86,"Velocity":59,"Duration":42492,"SoundDuration":42492,"Delta":142094081},{"NoteNumber":39,"Velocity":47,"Duration":84985,"SoundDuration":84985,"Delta":142094081},{"NoteNumber":84,"Velocity":47,"Duration":42492,"SoundDuration":42492,"Delta":142136574},{"NoteNumber":82,"Velocity":47,"Duration":42492,"SoundDuration":42492,"Delta":142179067},{"NoteNumber":81,"Velocity":47,"Duration":42492,"SoundDuration":42492,"Delta":142221560},{"NoteNumber":79,"Velocity":51,"Duration":87209,"SoundDuration":87209,"Delta":142264053},{"NoteNumber":45,"Velocity":41,"Duration":87209,"SoundDuration":87209,"Delta":142264053},{"NoteNumber":74,"Velocity":60,"Duration":42613,"SoundDuration":42613,"Delta":142438471},{"NoteNumber":39,"Velocity":47,"Duration":85227,"SoundDuration":85227,"Delta":142438471},{"NoteNumber":72,"Velocity":47,"Duration":42613,"SoundDuration":42613,"Delta":142481085},{"NoteNumber":70,"Velocity":47,"Duration":42613,"SoundDuration":42613,"Delta":142523699},{"NoteNumber":69,"Velocity":47,"Duration":42613,"SoundDuration":42613,"Delta":142566312},{"NoteNumber":67,"Velocity":51,"Duration":87209,"SoundDuration":87209,"Delta":142608926},{"NoteNumber":45,"Velocity":41,"Duration":87209,"SoundDuration":87209,"Delta":142608926},{"NoteNumber":38,"Velocity":47,"Duration":87209,"SoundDuration":87209,"Delta":142783344},{"NoteNumber":69,"Velocity":51,"Duration":512820,"SoundDuration":512820,"Delta":142957763},{"NoteNumber":57,"Velocity":43,"Duration":512820,"SoundDuration":512820,"Delta":142957763},{"NoteNumber":64,"Velocity":43,"Duration":512820,"SoundDuration":512820,"Delta":142957763},{"NoteNumber":45,"Velocity":41,"Duration":85469,"SoundDuration":85469,"Delta":142957763},{"NoteNumber":38,"Velocity":48,"Duration":85469,"SoundDuration":85469,"Delta":143128703},{"NoteNumber":45,"Velocity":41,"Duration":85469,"SoundDuration":85469,"Delta":143299643},{"NoteNumber":86,"Velocity":59,"Duration":42857,"SoundDuration":42857,"Delta":143470583},{"NoteNumber":39,"Velocity":47,"Duration":85714,"SoundDuration":85714,"Delta":143470583},{"NoteNumber":84,"Velocity":47,"Duration":42857,"SoundDuration":42857,"Delta":143513440},{"NoteNumber":82,"Velocity":47,"Duration":42857,"SoundDuration":42857,"Delta":143556297},{"NoteNumber":81,"Velocity":47,"Duration":42857,"SoundDuration":42857,"Delta":143599154},{"NoteNumber":79,"Velocity":51,"Duration":87209,"SoundDuration":87209,"Delta":143642011},{"NoteNumber":45,"Velocity":41,"Duration":87209,"SoundDuration":87209,"Delta":143642011},{"NoteNumber":74,"Velocity":60,"Duration":42857,"SoundDuration":42857,"Delta":143816430},{"NoteNumber":39,"Velocity":47,"Duration":85714,"SoundDuration":85714,"Delta":143816430},{"NoteNumber":72,"Velocity":47,"Duration":42857,"SoundDuration":42857,"Delta":143859287},{"NoteNumber":70,"Velocity":47,"Duration":42857,"SoundDuration":42857,"Delta":143902144},{"NoteNumber":69,"Velocity":47,"Duration":42857,"SoundDuration":42857,"Delta":143945001},{"NoteNumber":67,"Velocity":51,"Duration":87209,"SoundDuration":87209,"Delta":143987858},{"NoteNumber":45,"Velocity":41,"Duration":87209,"SoundDuration":87209,"Delta":143987858},{"NoteNumber":38,"Velocity":47,"Duration":86705,"SoundDuration":86705,"Delta":144162277},{"NoteNumber":69,"Velocity":43,"Duration":86705,"SoundDuration":86705,"Delta":144335687},{"NoteNumber":57,"Velocity":36,"Duration":86705,"SoundDuration":86705,"Delta":144335687},{"NoteNumber":64,"Velocity":36,"Duration":86705,"SoundDuration":86705,"Delta":144335687},{"NoteNumber":45,"Velocity":41,"Duration":86705,"SoundDuration":86705,"Delta":144335687},{"NoteNumber":74,"Velocity":51,"Duration":42372,"SoundDuration":42372,"Delta":144509098},{"NoteNumber":39,"Velocity":48,"Duration":84745,"SoundDuration":84745,"Delta":144509098},{"NoteNumber":72,"Velocity":46,"Duration":42372,"SoundDuration":42372,"Delta":144551471},{"NoteNumber":70,"Velocity":46,"Duration":42372,"SoundDuration":42372,"Delta":144593844},{"NoteNumber":69,"Velocity":46,"Duration":42372,"SoundDuration":42372,"Delta":144636217},{"NoteNumber":67,"Velocity":50,"Duration":84745,"SoundDuration":84745,"Delta":144678589},{"NoteNumber":45,"Velocity":39,"Duration":84745,"SoundDuration":84745,"Delta":144678589},{"NoteNumber":38,"Velocity":43,"Duration":85469,"SoundDuration":85469,"Delta":144848081},{"NoteNumber":69,"Velocity":43,"Duration":85469,"SoundDuration":85469,"Delta":145019021},{"NoteNumber":57,"Velocity":36,"Duration":85469,"SoundDuration":85469,"Delta":145019021},{"NoteNumber":64,"Velocity":36,"Duration":85469,"SoundDuration":85469,"Delta":145019021},{"NoteNumber":45,"Velocity":41,"Duration":85469,"SoundDuration":85469,"Delta":145019021},{"NoteNumber":74,"Velocity":42,"Duration":42134,"SoundDuration":42134,"Delta":145189961},{"NoteNumber":39,"Velocity":43,"Duration":84269,"SoundDuration":84269,"Delta":145189961},{"NoteNumber":72,"Velocity":42,"Duration":42134,"SoundDuration":42134,"Delta":145232096},{"NoteNumber":70,"Velocity":42,"Duration":42134,"SoundDuration":42134,"Delta":145274231},{"NoteNumber":69,"Velocity":42,"Duration":42134,"SoundDuration":42134,"Delta":145316366},{"NoteNumber":67,"Velocity":40,"Duration":84269,"SoundDuration":84269,"Delta":145358500},{"NoteNumber":45,"Velocity":36,"Duration":84269,"SoundDuration":84269,"Delta":145358500},{"NoteNumber":38,"Velocity":43,"Duration":82873,"SoundDuration":82873,"Delta":145527040},{"NoteNumber":69,"Velocity":40,"Duration":82872,"SoundDuration":82872,"Delta":145692786},{"NoteNumber":57,"Velocity":34,"Duration":82872,"SoundDuration":82872,"Delta":145692786},{"NoteNumber":64,"Velocity":34,"Duration":82872,"SoundDuration":82872,"Delta":145692786},{"NoteNumber":45,"Velocity":39,"Duration":82872,"SoundDuration":82872,"Delta":145692786},{"NoteNumber":74,"Velocity":40,"Duration":41899,"SoundDuration":41899,"Delta":145858765},{"NoteNumber":39,"Velocity":42,"Duration":83798,"SoundDuration":83798,"Delta":145858765},{"NoteNumber":72,"Velocity":40,"Duration":41899,"SoundDuration":41899,"Delta":145900664},{"NoteNumber":70,"Velocity":40,"Duration":41899,"SoundDuration":41899,"Delta":145942564},{"NoteNumber":69,"Velocity":39,"Duration":41899,"SoundDuration":41899,"Delta":145984463},{"NoteNumber":67,"Velocity":36,"Duration":83798,"SoundDuration":83798,"Delta":146026363},{"NoteNumber":45,"Velocity":34,"Duration":83798,"SoundDuration":83798,"Delta":146026363},{"NoteNumber":38,"Velocity":39,"Duration":82644,"SoundDuration":82644,"Delta":146193961},{"NoteNumber":69,"Velocity":36,"Duration":82644,"SoundDuration":82644,"Delta":146359250},{"NoteNumber":57,"Velocity":36,"Duration":82644,"SoundDuration":82644,"Delta":146359250},{"NoteNumber":64,"Velocity":36,"Duration":82644,"SoundDuration":82644,"Delta":146359250},{"NoteNumber":45,"Velocity":36,"Duration":82644,"SoundDuration":82644,"Delta":146359250},{"NoteNumber":74,"Velocity":37,"Duration":41782,"SoundDuration":41782,"Delta":146524811},{"NoteNumber":39,"Velocity":37,"Duration":83565,"SoundDuration":83565,"Delta":146524811},{"NoteNumber":72,"Velocity":37,"Duration":41782,"SoundDuration":41782,"Delta":146566593},{"NoteNumber":70,"Velocity":37,"Duration":41782,"SoundDuration":41782,"Delta":146608376},{"NoteNumber":69,"Velocity":37,"Duration":41782,"SoundDuration":41782,"Delta":146650159},{"NoteNumber":67,"Velocity":35,"Duration":83565,"SoundDuration":83565,"Delta":146691942},{"NoteNumber":45,"Velocity":32,"Duration":83565,"SoundDuration":83565,"Delta":146691942},{"NoteNumber":38,"Velocity":41,"Duration":91463,"SoundDuration":91463,"Delta":146859073},{"NoteNumber":45,"Velocity":39,"Duration":91463,"SoundDuration":91463,"Delta":147042000},{"NoteNumber":38,"Velocity":41,"Duration":91463,"SoundDuration":91463,"Delta":147224927},{"NoteNumber":50,"Velocity":46,"Duration":44032,"SoundDuration":44032,"Delta":147407446},{"NoteNumber":45,"Velocity":39,"Duration":88064,"SoundDuration":88064,"Delta":147407446},{"NoteNumber":52,"Velocity":46,"Duration":44032,"SoundDuration":44032,"Delta":147451479},{"NoteNumber":53,"Velocity":46,"Duration":44032,"SoundDuration":44032,"Delta":147495511},{"NoteNumber":55,"Velocity":46,"Duration":44032,"SoundDuration":44032,"Delta":147539543},{"NoteNumber":57,"Velocity":50,"Duration":90760,"SoundDuration":90760,"Delta":147583575},{"NoteNumber":38,"Velocity":41,"Duration":90760,"SoundDuration":90760,"Delta":147583575},{"NoteNumber":50,"Velocity":36,"Duration":89933,"SoundDuration":89933,"Delta":147765096},{"NoteNumber":53,"Velocity":36,"Duration":89933,"SoundDuration":89933,"Delta":147765096},{"NoteNumber":62,"Velocity":43,"Duration":89933,"SoundDuration":89933,"Delta":147765096},{"NoteNumber":45,"Velocity":39,"Duration":89933,"SoundDuration":89933,"Delta":147765096},{"NoteNumber":50,"Velocity":36,"Duration":90481,"SoundDuration":90481,"Delta":147944963},{"NoteNumber":53,"Velocity":36,"Duration":90481,"SoundDuration":90481,"Delta":147944963},{"NoteNumber":62,"Velocity":43,"Duration":90481,"SoundDuration":90481,"Delta":147944963},{"NoteNumber":38,"Velocity":41,"Duration":90481,"SoundDuration":90481,"Delta":147944963},{"NoteNumber":50,"Velocity":36,"Duration":89121,"SoundDuration":89121,"Delta":148125925},{"NoteNumber":53,"Velocity":36,"Duration":89121,"SoundDuration":89121,"Delta":148125925},{"NoteNumber":61,"Velocity":43,"Duration":89121,"SoundDuration":89121,"Delta":148125925},{"NoteNumber":45,"Velocity":39,"Duration":89121,"SoundDuration":89121,"Delta":148125925},{"NoteNumber":53,"Velocity":39,"Duration":90209,"SoundDuration":90209,"Delta":148304168},{"NoteNumber":61,"Velocity":46,"Duration":90209,"SoundDuration":90209,"Delta":148304168},{"NoteNumber":50,"Velocity":39,"Duration":90209,"SoundDuration":90209,"Delta":148304168},{"NoteNumber":38,"Velocity":41,"Duration":90209,"SoundDuration":90209,"Delta":148304168},{"NoteNumber":50,"Velocity":36,"Duration":88328,"SoundDuration":88328,"Delta":148484586},{"NoteNumber":53,"Velocity":36,"Duration":88328,"SoundDuration":88328,"Delta":148484586},{"NoteNumber":60,"Velocity":43,"Duration":88328,"SoundDuration":88328,"Delta":148484586},{"NoteNumber":45,"Velocity":39,"Duration":88328,"SoundDuration":88328,"Delta":148484586},{"NoteNumber":50,"Velocity":36,"Duration":89121,"SoundDuration":89121,"Delta":148661244},{"NoteNumber":53,"Velocity":36,"Duration":89121,"SoundDuration":89121,"Delta":148661244},{"NoteNumber":60,"Velocity":43,"Duration":89121,"SoundDuration":89121,"Delta":148661244},{"NoteNumber":38,"Velocity":41,"Duration":89121,"SoundDuration":89121,"Delta":148661244},{"NoteNumber":50,"Velocity":36,"Duration":86775,"SoundDuration":86775,"Delta":148839486},{"NoteNumber":53,"Velocity":36,"Duration":86775,"SoundDuration":86775,"Delta":148839486},{"NoteNumber":59,"Velocity":43,"Duration":86775,"SoundDuration":86775,"Delta":148839486},{"NoteNumber":45,"Velocity":39,"Duration":86775,"SoundDuration":86775,"Delta":148839486},{"NoteNumber":50,"Velocity":39,"Duration":89121,"SoundDuration":89121,"Delta":149013037},{"NoteNumber":53,"Velocity":39,"Duration":89121,"SoundDuration":89121,"Delta":149013037},{"NoteNumber":59,"Velocity":46,"Duration":89121,"SoundDuration":89121,"Delta":149013037},{"NoteNumber":38,"Velocity":41,"Duration":89121,"SoundDuration":89121,"Delta":149013037},{"NoteNumber":53,"Velocity":35,"Duration":87806,"SoundDuration":87806,"Delta":149191280},{"NoteNumber":58,"Velocity":42,"Duration":87806,"SoundDuration":87806,"Delta":149191280},{"NoteNumber":50,"Velocity":35,"Duration":87806,"SoundDuration":87806,"Delta":149191280},{"NoteNumber":45,"Velocity":37,"Duration":87806,"SoundDuration":87806,"Delta":149191280},{"NoteNumber":50,"Velocity":35,"Duration":90634,"SoundDuration":90634,"Delta":149366893},{"NoteNumber":53,"Velocity":35,"Duration":90634,"SoundDuration":90634,"Delta":149366893},{"NoteNumber":58,"Velocity":42,"Duration":90634,"SoundDuration":90634,"Delta":149366893},{"NoteNumber":38,"Velocity":41,"Duration":90634,"SoundDuration":90634,"Delta":149366893},{"NoteNumber":50,"Velocity":34,"Duration":884903,"SoundDuration":884903,"Delta":149548162},{"NoteNumber":53,"Velocity":34,"Duration":884903,"SoundDuration":884903,"Delta":149548162},{"NoteNumber":57,"Velocity":41,"Duration":884903,"SoundDuration":884903,"Delta":149548162},{"NoteNumber":45,"Velocity":37,"Duration":88487,"SoundDuration":88487,"Delta":149548162},{"NoteNumber":38,"Velocity":43,"Duration":88495,"SoundDuration":88495,"Delta":149725145},{"NoteNumber":45,"Velocity":40,"Duration":88495,"SoundDuration":88495,"Delta":149902136},{"NoteNumber":38,"Velocity":43,"Duration":88495,"SoundDuration":88495,"Delta":150079127},{"NoteNumber":45,"Velocity":41,"Duration":88495,"SoundDuration":88495,"Delta":150256118},{"NoteNumber":38,"Velocity":42,"Duration":88235,"SoundDuration":88235,"Delta":150433066},{"NoteNumber":45,"Velocity":40,"Duration":88757,"SoundDuration":88757,"Delta":150609796},{"NoteNumber":50,"Velocity":42,"Duration":89285,"SoundDuration":89285,"Delta":150787575},{"NoteNumber":57,"Velocity":40,"Duration":89820,"SoundDuration":89820,"Delta":150966413},{"NoteNumber":62,"Velocity":40,"Duration":90407,"SoundDuration":90407,"Delta":151146323},{"NoteNumber":69,"Velocity":39,"Duration":92498,"SoundDuration":92498,"Delta":151328195},{"NoteNumber":74,"Velocity":36,"Duration":105263,"SoundDuration":105263,"Delta":151515285},{"NoteNumber":81,"Velocity":42,"Duration":1045372,"SoundDuration":1045372,"Delta":151725811},{"NoteNumber":86,"Velocity":113,"Duration":99667,"SoundDuration":99667,"Delta":152771184},{"NoteNumber":81,"Velocity":95,"Duration":99667,"SoundDuration":99667,"Delta":152771184},{"NoteNumber":74,"Velocity":95,"Duration":99667,"SoundDuration":99667,"Delta":152771184},{"NoteNumber":50,"Velocity":90,"Duration":99667,"SoundDuration":99667,"Delta":152771184},{"NoteNumber":38,"Velocity":75,"Duration":99667,"SoundDuration":99667,"Delta":152771184},{"NoteNumber":45,"Velocity":75,"Duration":99667,"SoundDuration":99667,"Delta":152771184},{"NoteNumber":74,"Velocity":86,"Duration":99667,"SoundDuration":99667,"Delta":152870852},{"NoteNumber":81,"Velocity":86,"Duration":99667,"SoundDuration":99667,"Delta":152870852},{"NoteNumber":86,"Velocity":102,"Duration":99667,"SoundDuration":99667,"Delta":152870852},{"NoteNumber":38,"Velocity":68,"Duration":99667,"SoundDuration":99667,"Delta":152870852},{"NoteNumber":50,"Velocity":81,"Duration":99667,"SoundDuration":99667,"Delta":152870852},{"NoteNumber":45,"Velocity":68,"Duration":99667,"SoundDuration":99667,"Delta":152870852}],"license":{"name":"Creative Commons Attribution-ShareAlike 3.0 Germany","url":"http://creativecommons.org/licenses/by-sa/3.0/de/deed.en","text":"The MIDI, audio (MP3, OGG) and video files of Bernd Krueger are licensed under the cc-by-sa Germany License. This means that you can use and adapt the files, as long as you attribute the copyright holder.\n\nName: Bernd Krueger\nSource: http://www.piano-midi.de\n\nThe distribution or public playback of the files is only allowed under identical license conditions.\n\nThe scores are open source.","attribution":"MIDI files by Bernd Krueger (piano-midi.de)","attributionUrl":"http://www.piano-midi.de"}}