{"title":"Klaviersonate a-Moll, Opus 143 3. Satz","artist":"Klaviersonate a","durationMs":326117,"midiSha256":"07cf84ee89926f5b6b1171c4cae010e5106c33c7ecc0593e5955f92888425b2f","midiObject":[{"NoteNumber":69,"Velocity":50,"Duration":118614,"SoundDuration":118614,"Delta":0},{"NoteNumber":71,"Velocity":46,"Duration":119360,"SoundDuration":119360,"Delta":118614},{"NoteNumber":72,"Velocity":46,"Duration":119360,"SoundDuration":119360,"Delta":237974},{"NoteNumber":71,"Velocity":50,"Duration":119360,"SoundDuration":119360,"Delta":357335},{"NoteNumber":72,"Velocity":46,"Duration":119360,"SoundDuration":119360,"Delta":476695},{"NoteNumber":74,"Velocity":46,"Duration":122421,"SoundDuration":122421,"Delta":596055},{"NoteNumber":76,"Velocity":65,"Duration":358080,"SoundDuration":358080,"Delta":718477},{"NoteNumber":64,"Velocity":50,"Duration":119360,"SoundDuration":119360,"Delta":718477},{"NoteNumber":66,"Velocity":44,"Duration":119360,"SoundDuration":119360,"Delta":837837},{"NoteNumber":68,"Velocity":44,"Duration":119360,"SoundDuration":119360,"Delta":957197},{"NoteNumber":69,"Velocity":50,"Duration":119360,"SoundDuration":119360,"Delta":1076557},{"NoteNumber":66,"Velocity":52,"Duration":119360,"SoundDuration":119360,"Delta":1076557},{"NoteNumber":71,"Velocity":45,"Duration":119360,"SoundDuration":119360,"Delta":1195918},{"NoteNumber":68,"Velocity":45,"Duration":119360,"SoundDuration":119360,"Delta":1195918},{"NoteNumber":72,"Velocity":45,"Duration":119360,"SoundDuration":119360,"Delta":1315278},{"NoteNumber":69,"Velocity":45,"Duration":119360,"SoundDuration":119360,"Delta":1315278},{"NoteNumber":71,"Velocity":70,"Duration":362047,"SoundDuration":362047,"Delta":1434639},{"NoteNumber":72,"Velocity":44,"Duration":119360,"SoundDuration":119360,"Delta":1553999},{"NoteNumber":74,"Velocity":44,"Duration":123327,"SoundDuration":123327,"Delta":1673359},{"NoteNumber":76,"Velocity":65,"Duration":362047,"SoundDuration":362047,"Delta":1796686},{"NoteNumber":64,"Velocity":50,"Duration":119360,"SoundDuration":119360,"Delta":1796686},{"NoteNumber":66,"Velocity":46,"Duration":119360,"SoundDuration":119360,"Delta":1916047},{"NoteNumber":68,"Velocity":46,"Duration":123327,"SoundDuration":123327,"Delta":2035407},{"NoteNumber":69,"Velocity":50,"Duration":119360,"SoundDuration":119360,"Delta":2158734},{"NoteNumber":66,"Velocity":50,"Duration":119360,"SoundDuration":119360,"Delta":2158734},{"NoteNumber":71,"Velocity":45,"Duration":119360,"SoundDuration":119360,"Delta":2278095},{"NoteNumber":68,"Velocity":45,"Duration":119360,"SoundDuration":119360,"Delta":2278095},{"NoteNumber":72,"Velocity":45,"Duration":121973,"SoundDuration":121973,"Delta":2397455},{"NoteNumber":69,"Velocity":45,"Duration":121973,"SoundDuration":121973,"Delta":2397455},{"NoteNumber":71,"Velocity":66,"Duration":360694,"SoundDuration":360694,"Delta":2519429},{"NoteNumber":72,"Velocity":45,"Duration":119360,"SoundDuration":119360,"Delta":2638789},{"NoteNumber":74,"Velocity":45,"Duration":121973,"SoundDuration":121973,"Delta":2758149},{"NoteNumber":72,"Velocity":50,"Duration":119360,"SoundDuration":119360,"Delta":2880123},{"NoteNumber":69,"Velocity":50,"Duration":119360,"SoundDuration":119360,"Delta":2880123},{"NoteNumber":74,"Velocity":48,"Duration":119360,"SoundDuration":119360,"Delta":2999483},{"NoteNumber":71,"Velocity":50,"Duration":119360,"SoundDuration":119360,"Delta":2999483},{"NoteNumber":76,"Velocity":50,"Duration":119360,"SoundDuration":119360,"Delta":3118844},{"NoteNumber":72,"Velocity":51,"Duration":119360,"SoundDuration":119360,"Delta":3118844},{"NoteNumber":77,"Velocity":50,"Duration":119467,"SoundDuration":119467,"Delta":3238204},{"NoteNumber":74,"Velocity":52,"Duration":119467,"SoundDuration":119467,"Delta":3238204},{"NoteNumber":79,"Velocity":54,"Duration":120113,"SoundDuration":120113,"Delta":3357672},{"NoteNumber":76,"Velocity":53,"Duration":120113,"SoundDuration":120113,"Delta":3357672},{"NoteNumber":81,"Velocity":58,"Duration":120875,"SoundDuration":120875,"Delta":3477785},{"NoteNumber":77,"Velocity":56,"Duration":120875,"SoundDuration":120875,"Delta":3477785},{"NoteNumber":79,"Velocity":61,"Duration":119789,"SoundDuration":119789,"Delta":3598661},{"NoteNumber":76,"Velocity":60,"Duration":119789,"SoundDuration":119789,"Delta":3598661},{"NoteNumber":77,"Velocity":56,"Duration":119789,"SoundDuration":119789,"Delta":3718450},{"NoteNumber":74,"Velocity":55,"Duration":119789,"SoundDuration":119789,"Delta":3718450},{"NoteNumber":76,"Velocity":53,"Duration":119789,"SoundDuration":119789,"Delta":3838239},{"NoteNumber":72,"Velocity":51,"Duration":119789,"SoundDuration":119789,"Delta":3838239},{"NoteNumber":74,"Velocity":55,"Duration":119789,"SoundDuration":119789,"Delta":3958029},{"NoteNumber":71,"Velocity":55,"Duration":119789,"SoundDuration":119789,"Delta":3958029},{"NoteNumber":72,"Velocity":52,"Duration":119789,"SoundDuration":119789,"Delta":4077818},{"NoteNumber":69,"Velocity":52,"Duration":119789,"SoundDuration":119789,"Delta":4077818},{"NoteNumber":71,"Velocity":48,"Duration":127795,"SoundDuration":127795,"Delta":4197607},{"NoteNumber":67,"Velocity":50,"Duration":127795,"SoundDuration":127795,"Delta":4197607},{"NoteNumber":69,"Velocity":56,"Duration":124610,"SoundDuration":124610,"Delta":4325403},{"NoteNumber":65,"Velocity":59,"Duration":140187,"SoundDuration":140187,"Delta":4325403},{"NoteNumber":71,"Velocity":50,"Duration":124610,"SoundDuration":124610,"Delta":4450014},{"NoteNumber":72,"Velocity":50,"Duration":124610,"SoundDuration":124610,"Delta":4574624},{"NoteNumber":71,"Velocity":53,"Duration":123077,"SoundDuration":123077,"Delta":4699235},{"NoteNumber":60,"Velocity":56,"Duration":138461,"SoundDuration":138461,"Delta":4699235},{"NoteNumber":69,"Velocity":48,"Duration":123076,"SoundDuration":123076,"Delta":4822312},{"NoteNumber":67,"Velocity":48,"Duration":123077,"SoundDuration":123077,"Delta":4945389},{"NoteNumber":65,"Velocity":53,"Duration":123839,"SoundDuration":123839,"Delta":5068466},{"NoteNumber":57,"Velocity":50,"Duration":373070,"SoundDuration":373070,"Delta":5068466},{"NoteNumber":64,"Velocity":47,"Duration":123838,"SoundDuration":123838,"Delta":5192305},{"NoteNumber":63,"Velocity":47,"Duration":125392,"SoundDuration":125392,"Delta":5316144},{"NoteNumber":64,"Velocity":57,"Duration":363096,"SoundDuration":363096,"Delta":5441536},{"NoteNumber":56,"Velocity":53,"Duration":121766,"SoundDuration":121766,"Delta":5441536},{"NoteNumber":54,"Velocity":48,"Duration":121029,"SoundDuration":121029,"Delta":5563302},{"NoteNumber":52,"Velocity":48,"Duration":120301,"SoundDuration":120301,"Delta":5684331},{"NoteNumber":51,"Velocity":52,"Duration":120120,"SoundDuration":120120,"Delta":5804632},{"NoteNumber":49,"Velocity":47,"Duration":121397,"SoundDuration":121397,"Delta":5924753},{"NoteNumber":47,"Velocity":48,"Duration":123327,"SoundDuration":123327,"Delta":6046150},{"NoteNumber":59,"Velocity":50,"Duration":119760,"SoundDuration":119760,"Delta":6169477},{"NoteNumber":57,"Velocity":64,"Duration":359281,"SoundDuration":359281,"Delta":6169477},{"NoteNumber":61,"Velocity":45,"Duration":119760,"SoundDuration":119760,"Delta":6289238},{"NoteNumber":63,"Velocity":45,"Duration":119760,"SoundDuration":119760,"Delta":6408998},{"NoteNumber":64,"Velocity":54,"Duration":121211,"SoundDuration":121211,"Delta":6528758},{"NoteNumber":56,"Velocity":54,"Duration":121211,"SoundDuration":121211,"Delta":6528758},{"NoteNumber":66,"Velocity":49,"Duration":121212,"SoundDuration":121212,"Delta":6649970},{"NoteNumber":54,"Velocity":49,"Duration":121212,"SoundDuration":121212,"Delta":6649970},{"NoteNumber":68,"Velocity":49,"Duration":123327,"SoundDuration":123327,"Delta":6771182},{"NoteNumber":52,"Velocity":49,"Duration":123327,"SoundDuration":123327,"Delta":6771182},{"NoteNumber":69,"Velocity":59,"Duration":362048,"SoundDuration":362048,"Delta":6894510},{"NoteNumber":51,"Velocity":53,"Duration":119360,"SoundDuration":119360,"Delta":6894510},{"NoteNumber":49,"Velocity":47,"Duration":119360,"SoundDuration":119360,"Delta":7013870},{"NoteNumber":47,"Velocity":47,"Duration":123327,"SoundDuration":123327,"Delta":7133230},{"NoteNumber":59,"Velocity":50,"Duration":119047,"SoundDuration":119047,"Delta":7256558},{"NoteNumber":57,"Velocity":64,"Duration":357142,"SoundDuration":357142,"Delta":7256558},{"NoteNumber":61,"Velocity":45,"Duration":119047,"SoundDuration":119047,"Delta":7375605},{"NoteNumber":63,"Velocity":45,"Duration":119047,"SoundDuration":119047,"Delta":7494653},{"NoteNumber":64,"Velocity":54,"Duration":120481,"SoundDuration":120481,"Delta":7613701},{"NoteNumber":56,"Velocity":54,"Duration":120481,"SoundDuration":120481,"Delta":7613701},{"NoteNumber":66,"Velocity":48,"Duration":120482,"SoundDuration":120482,"Delta":7734183},{"NoteNumber":54,"Velocity":47,"Duration":120482,"SoundDuration":120482,"Delta":7734183},{"NoteNumber":68,"Velocity":48,"Duration":123785,"SoundDuration":123785,"Delta":7854665},{"NoteNumber":52,"Velocity":47,"Duration":123785,"SoundDuration":123785,"Delta":7854665},{"NoteNumber":69,"Velocity":58,"Duration":361593,"SoundDuration":361593,"Delta":7978450},{"NoteNumber":51,"Velocity":52,"Duration":119360,"SoundDuration":119360,"Delta":7978450},{"NoteNumber":49,"Velocity":44,"Duration":119360,"SoundDuration":119360,"Delta":8097810},{"NoteNumber":47,"Velocity":44,"Duration":122872,"SoundDuration":122872,"Delta":8217171},{"NoteNumber":59,"Velocity":50,"Duration":119360,"SoundDuration":119360,"Delta":8340043},{"NoteNumber":57,"Velocity":64,"Duration":358081,"SoundDuration":358081,"Delta":8340043},{"NoteNumber":61,"Velocity":46,"Duration":119360,"SoundDuration":119360,"Delta":8459404},{"NoteNumber":63,"Velocity":46,"Duration":119360,"SoundDuration":119360,"Delta":8578764},{"NoteNumber":64,"Velocity":54,"Duration":120482,"SoundDuration":120482,"Delta":8698124},{"NoteNumber":56,"Velocity":50,"Duration":120482,"SoundDuration":120482,"Delta":8698124},{"NoteNumber":66,"Velocity":47,"Duration":120481,"SoundDuration":120481,"Delta":8818606},{"NoteNumber":54,"Velocity":43,"Duration":120481,"SoundDuration":120481,"Delta":8818606},{"NoteNumber":68,"Velocity":47,"Duration":123327,"SoundDuration":123327,"Delta":8939088},{"NoteNumber":52,"Velocity":43,"Duration":123327,"SoundDuration":123327,"Delta":8939088},{"NoteNumber":66,"Velocity":60,"Duration":119360,"SoundDuration":119360,"Delta":9062416},{"NoteNumber":54,"Velocity":52,"Duration":119360,"SoundDuration":119360,"Delta":9062416},{"NoteNumber":68,"Velocity":53,"Duration":119360,"SoundDuration":119360,"Delta":9181776},{"NoteNumber":52,"Velocity":44,"Duration":119360,"SoundDuration":119360,"Delta":9181776},{"NoteNumber":69,"Velocity":53,"Duration":122421,"SoundDuration":122421,"Delta":9301136},{"NoteNumber":51,"Velocity":44,"Duration":122421,"SoundDuration":122421,"Delta":9301136},{"NoteNumber":68,"Velocity":64,"Duration":119360,"SoundDuration":119360,"Delta":9423558},{"NoteNumber":52,"Velocity":52,"Duration":119360,"SoundDuration":119360,"Delta":9423558},{"NoteNumber":69,"Velocity":58,"Duration":119360,"SoundDuration":119360,"Delta":9542918},{"NoteNumber":51,"Velocity":47,"Duration":119360,"SoundDuration":119360,"Delta":9542918},{"NoteNumber":71,"Velocity":60,"Duration":122421,"SoundDuration":122421,"Delta":9662278},{"NoteNumber":50,"Velocity":47,"Duration":122421,"SoundDuration":122421,"Delta":9662278},{"NoteNumber":69,"Velocity":68,"Duration":118941,"SoundDuration":118941,"Delta":9784700},{"NoteNumber":52,"Velocity":56,"Duration":118941,"SoundDuration":118941,"Delta":9784700},{"NoteNumber":71,"Velocity":60,"Duration":119150,"SoundDuration":119150,"Delta":9903641},{"NoteNumber":50,"Velocity":52,"Duration":119150,"SoundDuration":119150,"Delta":9903641},{"NoteNumber":72,"Velocity":63,"Duration":119467,"SoundDuration":119467,"Delta":10022792},{"NoteNumber":48,"Velocity":53,"Duration":119467,"SoundDuration":119467,"Delta":10022792},{"NoteNumber":71,"Velocity":73,"Duration":119789,"SoundDuration":119789,"Delta":10142259},{"NoteNumber":50,"Velocity":58,"Duration":119789,"SoundDuration":119789,"Delta":10142259},{"NoteNumber":72,"Velocity":63,"Duration":120221,"SoundDuration":120221,"Delta":10262049},{"NoteNumber":48,"Velocity":55,"Duration":120221,"SoundDuration":120221,"Delta":10262049},{"NoteNumber":74,"Velocity":68,"Duration":120547,"SoundDuration":120547,"Delta":10382270},{"NoteNumber":47,"Velocity":55,"Duration":120547,"SoundDuration":120547,"Delta":10382270},{"NoteNumber":72,"Velocity":79,"Duration":120875,"SoundDuration":120875,"Delta":10502818},{"NoteNumber":48,"Velocity":65,"Duration":120875,"SoundDuration":120875,"Delta":10502818},{"NoteNumber":74,"Velocity":68,"Duration":121205,"SoundDuration":121205,"Delta":10623693},{"NoteNumber":47,"Velocity":59,"Duration":121205,"SoundDuration":121205,"Delta":10623693},{"NoteNumber":76,"Velocity":74,"Duration":121536,"SoundDuration":121536,"Delta":10744898},{"NoteNumber":45,"Velocity":59,"Duration":121536,"SoundDuration":121536,"Delta":10744898},{"NoteNumber":77,"Velocity":90,"Duration":121973,"SoundDuration":121973,"Delta":10866435},{"NoteNumber":44,"Velocity":77,"Duration":121973,"SoundDuration":121973,"Delta":10866435},{"NoteNumber":76,"Velocity":77,"Duration":121973,"SoundDuration":121973,"Delta":10988408},{"NoteNumber":45,"Velocity":67,"Duration":121973,"SoundDuration":121973,"Delta":10988408},{"NoteNumber":74,"Velocity":79,"Duration":126119,"SoundDuration":126119,"Delta":11110382},{"NoteNumber":47,"Velocity":67,"Duration":126119,"SoundDuration":126119,"Delta":11110382},{"NoteNumber":77,"Velocity":88,"Duration":121973,"SoundDuration":121973,"Delta":11236501},{"NoteNumber":83,"Velocity":88,"Duration":182960,"SoundDuration":182960,"Delta":11236501},{"NoteNumber":38,"Velocity":75,"Duration":182960,"SoundDuration":182960,"Delta":11236501},{"NoteNumber":44,"Velocity":75,"Duration":121973,"SoundDuration":121973,"Delta":11236501},{"NoteNumber":76,"Velocity":79,"Duration":121973,"SoundDuration":121973,"Delta":11358475},{"NoteNumber":45,"Velocity":66,"Duration":121973,"SoundDuration":121973,"Delta":11358475},{"NoteNumber":74,"Velocity":79,"Duration":122872,"SoundDuration":122872,"Delta":11480449},{"NoteNumber":47,"Velocity":66,"Duration":122872,"SoundDuration":122872,"Delta":11480449},{"NoteNumber":83,"Velocity":92,"Duration":182960,"SoundDuration":182960,"Delta":11603321},{"NoteNumber":77,"Velocity":92,"Duration":121973,"SoundDuration":121973,"Delta":11603321},{"NoteNumber":38,"Velocity":76,"Duration":182960,"SoundDuration":182960,"Delta":11603321},{"NoteNumber":44,"Velocity":76,"Duration":121973,"SoundDuration":121973,"Delta":11603321},{"NoteNumber":76,"Velocity":80,"Duration":121973,"SoundDuration":121973,"Delta":11725295},{"NoteNumber":45,"Velocity":69,"Duration":121973,"SoundDuration":121973,"Delta":11725295},{"NoteNumber":74,"Velocity":80,"Duration":123327,"SoundDuration":123327,"Delta":11847269},{"NoteNumber":47,"Velocity":69,"Duration":123327,"SoundDuration":123327,"Delta":11847269},{"NoteNumber":77,"Velocity":93,"Duration":122699,"SoundDuration":122699,"Delta":11970596},{"NoteNumber":83,"Velocity":93,"Duration":184048,"SoundDuration":184048,"Delta":11970596},{"NoteNumber":38,"Velocity":78,"Duration":184048,"SoundDuration":184048,"Delta":11970596},{"NoteNumber":44,"Velocity":78,"Duration":122699,"SoundDuration":122699,"Delta":11970596},{"NoteNumber":76,"Velocity":84,"Duration":122699,"SoundDuration":122699,"Delta":12093295},{"NoteNumber":45,"Velocity":72,"Duration":122699,"SoundDuration":122699,"Delta":12093295},{"NoteNumber":74,"Velocity":86,"Duration":126183,"SoundDuration":126183,"Delta":12215995},{"NoteNumber":47,"Velocity":74,"Duration":126183,"SoundDuration":126183,"Delta":12215995},{"NoteNumber":83,"Velocity":97,"Duration":185185,"SoundDuration":185185,"Delta":12342178},{"NoteNumber":77,"Velocity":97,"Duration":123456,"SoundDuration":123456,"Delta":12342178},{"NoteNumber":38,"Velocity":81,"Duration":185185,"SoundDuration":185185,"Delta":12342178},{"NoteNumber":44,"Velocity":81,"Duration":123456,"SoundDuration":123456,"Delta":12342178},{"NoteNumber":76,"Velocity":86,"Duration":123456,"SoundDuration":123456,"Delta":12465634},{"NoteNumber":45,"Velocity":74,"Duration":123456,"SoundDuration":123456,"Delta":12465634},{"NoteNumber":74,"Velocity":87,"Duration":126582,"SoundDuration":126582,"Delta":12589091},{"NoteNumber":47,"Velocity":76,"Duration":126582,"SoundDuration":126582,"Delta":12589091},{"NoteNumber":83,"Velocity":100,"Duration":185758,"SoundDuration":185758,"Delta":12715673},{"NoteNumber":77,"Velocity":100,"Duration":123839,"SoundDuration":123839,"Delta":12715673},{"NoteNumber":38,"Velocity":84,"Duration":185758,"SoundDuration":185758,"Delta":12715673},{"NoteNumber":44,"Velocity":84,"Duration":123839,"SoundDuration":123839,"Delta":12715673},{"NoteNumber":76,"Velocity":88,"Duration":123838,"SoundDuration":123838,"Delta":12839512},{"NoteNumber":45,"Velocity":76,"Duration":123838,"SoundDuration":123838,"Delta":12839512},{"NoteNumber":74,"Velocity":91,"Duration":130719,"SoundDuration":130719,"Delta":12963351},{"NoteNumber":47,"Velocity":78,"Duration":130719,"SoundDuration":130719,"Delta":12963351},{"NoteNumber":77,"Velocity":106,"Duration":121211,"SoundDuration":121211,"Delta":13094070},{"NoteNumber":83,"Velocity":106,"Duration":181817,"SoundDuration":181817,"Delta":13094070},{"NoteNumber":32,"Velocity":84,"Duration":181817,"SoundDuration":181817,"Delta":13094070},{"NoteNumber":44,"Velocity":99,"Duration":181817,"SoundDuration":181817,"Delta":13094070},{"NoteNumber":76,"Velocity":61,"Duration":121211,"SoundDuration":121211,"Delta":13215282},{"NoteNumber":74,"Velocity":52,"Duration":123077,"SoundDuration":123077,"Delta":13336494},{"NoteNumber":77,"Velocity":60,"Duration":122324,"SoundDuration":122324,"Delta":13459571},{"NoteNumber":76,"Velocity":51,"Duration":122323,"SoundDuration":122323,"Delta":13581895},{"NoteNumber":74,"Velocity":46,"Duration":123456,"SoundDuration":123456,"Delta":13704219},{"NoteNumber":77,"Velocity":57,"Duration":124223,"SoundDuration":124223,"Delta":13827676},{"NoteNumber":76,"Velocity":49,"Duration":124223,"SoundDuration":124223,"Delta":13951900},{"NoteNumber":74,"Velocity":43,"Duration":127830,"SoundDuration":127830,"Delta":14076123},{"NoteNumber":77,"Velocity":56,"Duration":125000,"SoundDuration":125000,"Delta":14203953},{"NoteNumber":76,"Velocity":47,"Duration":125000,"SoundDuration":125000,"Delta":14328953},{"NoteNumber":74,"Velocity":44,"Duration":126183,"SoundDuration":126183,"Delta":14453953},{"NoteNumber":76,"Velocity":56,"Duration":125000,"SoundDuration":125000,"Delta":14580136},{"NoteNumber":74,"Velocity":46,"Duration":125000,"SoundDuration":125000,"Delta":14705136},{"NoteNumber":72,"Velocity":46,"Duration":126984,"SoundDuration":126984,"Delta":14830136},{"NoteNumber":74,"Velocity":55,"Duration":125391,"SoundDuration":125391,"Delta":14957120},{"NoteNumber":72,"Velocity":45,"Duration":125391,"SoundDuration":125391,"Delta":15082512},{"NoteNumber":71,"Velocity":45,"Duration":126582,"SoundDuration":126582,"Delta":15207904},{"NoteNumber":69,"Velocity":50,"Duration":123314,"SoundDuration":123314,"Delta":15334487},{"NoteNumber":71,"Velocity":46,"Duration":122605,"SoundDuration":122605,"Delta":15457801},{"NoteNumber":72,"Velocity":46,"Duration":121951,"SoundDuration":121951,"Delta":15580407},{"NoteNumber":71,"Velocity":50,"Duration":121258,"SoundDuration":121258,"Delta":15702359},{"NoteNumber":72,"Velocity":46,"Duration":120573,"SoundDuration":120573,"Delta":15823617},{"NoteNumber":74,"Velocity":46,"Duration":122421,"SoundDuration":122421,"Delta":15944190},{"NoteNumber":76,"Velocity":65,"Duration":358080,"SoundDuration":358080,"Delta":16066612},{"NoteNumber":64,"Velocity":50,"Duration":119360,"SoundDuration":119360,"Delta":16066612},{"NoteNumber":66,"Velocity":44,"Duration":119360,"SoundDuration":119360,"Delta":16185972},{"NoteNumber":68,"Velocity":44,"Duration":119360,"SoundDuration":119360,"Delta":16305332},{"NoteNumber":69,"Velocity":50,"Duration":119360,"SoundDuration":119360,"Delta":16424693},{"NoteNumber":66,"Velocity":52,"Duration":119360,"SoundDuration":119360,"Delta":16424693},{"NoteNumber":71,"Velocity":45,"Duration":119360,"SoundDuration":119360,"Delta":16544053},{"NoteNumber":68,"Velocity":45,"Duration":119360,"SoundDuration":119360,"Delta":16544053},{"NoteNumber":72,"Velocity":45,"Duration":119360,"SoundDuration":119360,"Delta":16663413},{"NoteNumber":69,"Velocity":45,"Duration":119360,"SoundDuration":119360,"Delta":16663413},{"NoteNumber":71,"Velocity":70,"Duration":362048,"SoundDuration":362048,"Delta":16782774},{"NoteNumber":72,"Velocity":44,"Duration":119360,"SoundDuration":119360,"Delta":16902134},{"NoteNumber":74,"Velocity":44,"Duration":123327,"SoundDuration":123327,"Delta":17021494},{"NoteNumber":76,"Velocity":65,"Duration":362048,"SoundDuration":362048,"Delta":17144822},{"NoteNumber":64,"Velocity":50,"Duration":119360,"SoundDuration":119360,"Delta":17144822},{"NoteNumber":66,"Velocity":46,"Duration":119360,"SoundDuration":119360,"Delta":17264182},{"NoteNumber":68,"Velocity":46,"Duration":123327,"SoundDuration":123327,"Delta":17383542},{"NoteNumber":69,"Velocity":50,"Duration":119360,"SoundDuration":119360,"Delta":17506870},{"NoteNumber":66,"Velocity":50,"Duration":119360,"SoundDuration":119360,"Delta":17506870},{"NoteNumber":71,"Velocity":45,"Duration":119360,"SoundDuration":119360,"Delta":17626230},{"NoteNumber":68,"Velocity":45,"Duration":119360,"SoundDuration":119360,"Delta":17626230},{"NoteNumber":72,"Velocity":45,"Duration":121973,"SoundDuration":121973,"Delta":17745590},{"NoteNumber":69,"Velocity":45,"Duration":121973,"SoundDuration":121973,"Delta":17745590},{"NoteNumber":71,"Velocity":66,"Duration":360694,"SoundDuration":360694,"Delta":17867564},{"NoteNumber":72,"Velocity":45,"Duration":119360,"SoundDuration":119360,"Delta":17986924},{"NoteNumber":74,"Velocity":45,"Duration":121973,"SoundDuration":121973,"Delta":18106285},{"NoteNumber":72,"Velocity":50,"Duration":119360,"SoundDuration":119360,"Delta":18228258},{"NoteNumber":69,"Velocity":50,"Duration":119360,"SoundDuration":119360,"Delta":18228258},{"NoteNumber":74,"Velocity":48,"Duration":119360,"SoundDuration":119360,"Delta":18347619},{"NoteNumber":71,"Velocity":50,"Duration":119360,"SoundDuration":119360,"Delta":18347619},{"NoteNumber":76,"Velocity":50,"Duration":119360,"SoundDuration":119360,"Delta":18466979},{"NoteNumber":72,"Velocity":51,"Duration":119360,"SoundDuration":119360,"Delta":18466979},{"NoteNumber":77,"Velocity":50,"Duration":119467,"SoundDuration":119467,"Delta":18586339},{"NoteNumber":74,"Velocity":52,"Duration":119467,"SoundDuration":119467,"Delta":18586339},{"NoteNumber":79,"Velocity":54,"Duration":120113,"SoundDuration":120113,"Delta":18705807},{"NoteNumber":76,"Velocity":53,"Duration":120113,"SoundDuration":120113,"Delta":18705807},{"NoteNumber":81,"Velocity":58,"Duration":120875,"SoundDuration":120875,"Delta":18825920},{"NoteNumber":77,"Velocity":56,"Duration":120875,"SoundDuration":120875,"Delta":18825920},{"NoteNumber":79,"Velocity":61,"Duration":119789,"SoundDuration":119789,"Delta":18946796},{"NoteNumber":76,"Velocity":60,"Duration":119789,"SoundDuration":119789,"Delta":18946796},{"NoteNumber":77,"Velocity":56,"Duration":119789,"SoundDuration":119789,"Delta":19066585},{"NoteNumber":74,"Velocity":55,"Duration":119789,"SoundDuration":119789,"Delta":19066585},{"NoteNumber":76,"Velocity":53,"Duration":119789,"SoundDuration":119789,"Delta":19186374},{"NoteNumber":72,"Velocity":51,"Duration":119789,"SoundDuration":119789,"Delta":19186374},{"NoteNumber":74,"Velocity":55,"Duration":119789,"SoundDuration":119789,"Delta":19306164},{"NoteNumber":71,"Velocity":55,"Duration":119789,"SoundDuration":119789,"Delta":19306164},{"NoteNumber":72,"Velocity":52,"Duration":119789,"SoundDuration":119789,"Delta":19425953},{"NoteNumber":69,"Velocity":52,"Duration":119789,"SoundDuration":119789,"Delta":19425953},{"NoteNumber":71,"Velocity":48,"Duration":127795,"SoundDuration":127795,"Delta":19545742},{"NoteNumber":67,"Velocity":50,"Duration":127795,"SoundDuration":127795,"Delta":19545742},{"NoteNumber":69,"Velocity":56,"Duration":123839,"SoundDuration":123839,"Delta":19673538},{"NoteNumber":65,"Velocity":59,"Duration":139318,"SoundDuration":139318,"Delta":19673538},{"NoteNumber":71,"Velocity":50,"Duration":123839,"SoundDuration":123839,"Delta":19797377},{"NoteNumber":72,"Velocity":50,"Duration":123839,"SoundDuration":123839,"Delta":19921216},{"NoteNumber":71,"Velocity":53,"Duration":123076,"SoundDuration":123076,"Delta":20045055},{"NoteNumber":60,"Velocity":56,"Duration":138461,"SoundDuration":138461,"Delta":20045055},{"NoteNumber":69,"Velocity":48,"Duration":123077,"SoundDuration":123077,"Delta":20168132},{"NoteNumber":67,"Velocity":48,"Duration":123076,"SoundDuration":123076,"Delta":20291209},{"NoteNumber":65,"Velocity":53,"Duration":123839,"SoundDuration":123839,"Delta":20414286},{"NoteNumber":57,"Velocity":50,"Duration":139318,"SoundDuration":139318,"Delta":20414286},{"NoteNumber":64,"Velocity":47,"Duration":123839,"SoundDuration":123839,"Delta":20538125},{"NoteNumber":63,"Velocity":47,"Duration":125392,"SoundDuration":125392,"Delta":20661964},{"NoteNumber":64,"Velocity":54,"Duration":121211,"SoundDuration":121211,"Delta":20787356},{"NoteNumber":55,"Velocity":54,"Duration":121211,"SoundDuration":121211,"Delta":20787356},{"NoteNumber":66,"Velocity":49,"Duration":121211,"SoundDuration":121211,"Delta":20908568},{"NoteNumber":54,"Velocity":49,"Duration":121211,"SoundDuration":121211,"Delta":20908568},{"NoteNumber":67,"Velocity":49,"Duration":123327,"SoundDuration":123327,"Delta":21029780},{"NoteNumber":52,"Velocity":49,"Duration":123327,"SoundDuration":123327,"Delta":21029780},{"NoteNumber":69,"Velocity":59,"Duration":362048,"SoundDuration":362048,"Delta":21153107},{"NoteNumber":51,"Velocity":53,"Duration":119360,"SoundDuration":119360,"Delta":21153107},{"NoteNumber":49,"Velocity":47,"Duration":119360,"SoundDuration":119360,"Delta":21272468},{"NoteNumber":47,"Velocity":47,"Duration":123327,"SoundDuration":123327,"Delta":21391828},{"NoteNumber":59,"Velocity":50,"Duration":119047,"SoundDuration":119047,"Delta":21515155},{"NoteNumber":57,"Velocity":64,"Duration":357143,"SoundDuration":357143,"Delta":21515155},{"NoteNumber":61,"Velocity":45,"Duration":119047,"SoundDuration":119047,"Delta":21634203},{"NoteNumber":63,"Velocity":45,"Duration":119047,"SoundDuration":119047,"Delta":21753251},{"NoteNumber":64,"Velocity":54,"Duration":120481,"SoundDuration":120481,"Delta":21872298},{"NoteNumber":55,"Velocity":54,"Duration":120481,"SoundDuration":120481,"Delta":21872298},{"NoteNumber":66,"Velocity":48,"Duration":120481,"SoundDuration":120481,"Delta":21992780},{"NoteNumber":54,"Velocity":47,"Duration":120481,"SoundDuration":120481,"Delta":21992780},{"NoteNumber":67,"Velocity":48,"Duration":123785,"SoundDuration":123785,"Delta":22113262},{"NoteNumber":52,"Velocity":47,"Duration":123785,"SoundDuration":123785,"Delta":22113262},{"NoteNumber":69,"Velocity":58,"Duration":361593,"SoundDuration":361593,"Delta":22237048},{"NoteNumber":51,"Velocity":52,"Duration":119360,"SoundDuration":119360,"Delta":22237048},{"NoteNumber":49,"Velocity":44,"Duration":119360,"SoundDuration":119360,"Delta":22356408},{"NoteNumber":47,"Velocity":44,"Duration":122872,"SoundDuration":122872,"Delta":22475768},{"NoteNumber":59,"Velocity":50,"Duration":119360,"SoundDuration":119360,"Delta":22598641},{"NoteNumber":57,"Velocity":64,"Duration":358080,"SoundDuration":358080,"Delta":22598641},{"NoteNumber":61,"Velocity":46,"Duration":119360,"SoundDuration":119360,"Delta":22718001},{"NoteNumber":63,"Velocity":46,"Duration":119360,"SoundDuration":119360,"Delta":22837362},{"NoteNumber":64,"Velocity":54,"Duration":120481,"SoundDuration":120481,"Delta":22956722},{"NoteNumber":55,"Velocity":50,"Duration":120481,"SoundDuration":120481,"Delta":22956722},{"NoteNumber":66,"Velocity":47,"Duration":120481,"SoundDuration":120481,"Delta":23077204},{"NoteNumber":54,"Velocity":43,"Duration":120481,"SoundDuration":120481,"Delta":23077204},{"NoteNumber":67,"Velocity":47,"Duration":123327,"SoundDuration":123327,"Delta":23197686},{"NoteNumber":52,"Velocity":43,"Duration":123327,"SoundDuration":123327,"Delta":23197686},{"NoteNumber":66,"Velocity":60,"Duration":119360,"SoundDuration":119360,"Delta":23321013},{"NoteNumber":51,"Velocity":52,"Duration":119360,"SoundDuration":119360,"Delta":23321013},{"NoteNumber":67,"Velocity":53,"Duration":119360,"SoundDuration":119360,"Delta":23440374},{"NoteNumber":52,"Velocity":44,"Duration":119360,"SoundDuration":119360,"Delta":23440374},{"NoteNumber":69,"Velocity":53,"Duration":122421,"SoundDuration":122421,"Delta":23559734},{"NoteNumber":54,"Velocity":44,"Duration":122421,"SoundDuration":122421,"Delta":23559734},{"NoteNumber":67,"Velocity":64,"Duration":119360,"SoundDuration":119360,"Delta":23682155},{"NoteNumber":52,"Velocity":52,"Duration":119360,"SoundDuration":119360,"Delta":23682155},{"NoteNumber":69,"Velocity":58,"Duration":119360,"SoundDuration":119360,"Delta":23801516},{"NoteNumber":54,"Velocity":47,"Duration":119360,"SoundDuration":119360,"Delta":23801516},{"NoteNumber":71,"Velocity":60,"Duration":122421,"SoundDuration":122421,"Delta":23920876},{"NoteNumber":55,"Velocity":47,"Duration":122421,"SoundDuration":122421,"Delta":23920876},{"NoteNumber":69,"Velocity":68,"Duration":118941,"SoundDuration":118941,"Delta":24043297},{"NoteNumber":54,"Velocity":56,"Duration":118941,"SoundDuration":118941,"Delta":24043297},{"NoteNumber":71,"Velocity":60,"Duration":119150,"SoundDuration":119150,"Delta":24162239},{"NoteNumber":55,"Velocity":52,"Duration":119150,"SoundDuration":119150,"Delta":24162239},{"NoteNumber":72,"Velocity":63,"Duration":119467,"SoundDuration":119467,"Delta":24281390},{"NoteNumber":57,"Velocity":53,"Duration":119467,"SoundDuration":119467,"Delta":24281390},{"NoteNumber":71,"Velocity":73,"Duration":119789,"SoundDuration":119789,"Delta":24400857},{"NoteNumber":56,"Velocity":58,"Duration":119789,"SoundDuration":119789,"Delta":24400857},{"NoteNumber":72,"Velocity":63,"Duration":120221,"SoundDuration":120221,"Delta":24520647},{"NoteNumber":57,"Velocity":55,"Duration":120221,"SoundDuration":120221,"Delta":24520647},{"NoteNumber":74,"Velocity":68,"Duration":120547,"SoundDuration":120547,"Delta":24640868},{"NoteNumber":59,"Velocity":55,"Duration":120547,"SoundDuration":120547,"Delta":24640868},{"NoteNumber":72,"Velocity":79,"Duration":121350,"SoundDuration":121350,"Delta":24761415},{"NoteNumber":57,"Velocity":65,"Duration":121350,"SoundDuration":121350,"Delta":24761415},{"NoteNumber":74,"Velocity":68,"Duration":123364,"SoundDuration":123364,"Delta":24882766},{"NoteNumber":59,"Velocity":59,"Duration":123364,"SoundDuration":123364,"Delta":24882766},{"NoteNumber":76,"Velocity":74,"Duration":129869,"SoundDuration":129869,"Delta":25006130},{"NoteNumber":60,"Velocity":59,"Duration":129869,"SoundDuration":129869,"Delta":25006130},{"NoteNumber":65,"Velocity":96,"Duration":119047,"SoundDuration":119047,"Delta":25136000},{"NoteNumber":62,"Velocity":91,"Duration":119047,"SoundDuration":119047,"Delta":25136000},{"NoteNumber":70,"Velocity":78,"Duration":119403,"SoundDuration":119403,"Delta":25255047},{"NoteNumber":58,"Velocity":77,"Duration":119403,"SoundDuration":119403,"Delta":25255047},{"NoteNumber":74,"Velocity":74,"Duration":119850,"SoundDuration":119850,"Delta":25374450},{"NoteNumber":53,"Velocity":77,"Duration":119850,"SoundDuration":119850,"Delta":25374450},{"NoteNumber":77,"Velocity":87,"Duration":120210,"SoundDuration":120210,"Delta":25494301},{"NoteNumber":50,"Velocity":86,"Duration":120210,"SoundDuration":120210,"Delta":25494301},{"NoteNumber":82,"Velocity":76,"Duration":120664,"SoundDuration":120664,"Delta":25614511},{"NoteNumber":46,"Velocity":76,"Duration":120664,"SoundDuration":120664,"Delta":25614511},{"NoteNumber":86,"Velocity":76,"Duration":121029,"SoundDuration":121029,"Delta":25735175},{"NoteNumber":41,"Velocity":76,"Duration":121029,"SoundDuration":121029,"Delta":25735175},{"NoteNumber":89,"Velocity":88,"Duration":122051,"SoundDuration":122051,"Delta":25856204},{"NoteNumber":38,"Velocity":83,"Duration":122051,"SoundDuration":122051,"Delta":25856204},{"NoteNumber":94,"Velocity":76,"Duration":125597,"SoundDuration":125597,"Delta":25978256},{"NoteNumber":34,"Velocity":75,"Duration":125597,"SoundDuration":125597,"Delta":25978256},{"NoteNumber":98,"Velocity":76,"Duration":129354,"SoundDuration":129354,"Delta":26103854},{"NoteNumber":29,"Velocity":75,"Duration":129354,"SoundDuration":129354,"Delta":26103854},{"NoteNumber":101,"Velocity":97,"Duration":101009,"SoundDuration":101009,"Delta":26233208},{"NoteNumber":26,"Velocity":91,"Duration":101009,"SoundDuration":101009,"Delta":26233208},{"NoteNumber":69,"Velocity":79,"Duration":206896,"SoundDuration":206896,"Delta":26637248},{"NoteNumber":76,"Velocity":93,"Duration":206896,"SoundDuration":206896,"Delta":26637248},{"NoteNumber":72,"Velocity":79,"Duration":206896,"SoundDuration":206896,"Delta":26637248},{"NoteNumber":64,"Velocity":79,"Duration":206896,"SoundDuration":206896,"Delta":26637248},{"NoteNumber":52,"Velocity":77,"Duration":206896,"SoundDuration":206896,"Delta":26637248},{"NoteNumber":40,"Velocity":65,"Duration":206896,"SoundDuration":206896,"Delta":26637248},{"NoteNumber":48,"Velocity":65,"Duration":206896,"SoundDuration":206896,"Delta":26637248},{"NoteNumber":45,"Velocity":65,"Duration":206896,"SoundDuration":206896,"Delta":26637248},{"NoteNumber":64,"Velocity":74,"Duration":211587,"SoundDuration":211587,"Delta":27051041},{"NoteNumber":76,"Velocity":88,"Duration":211587,"SoundDuration":211587,"Delta":27051041},{"NoteNumber":68,"Velocity":74,"Duration":211587,"SoundDuration":211587,"Delta":27051041},{"NoteNumber":71,"Velocity":74,"Duration":211587,"SoundDuration":211587,"Delta":27051041},{"NoteNumber":44,"Velocity":61,"Duration":211587,"SoundDuration":211587,"Delta":27051041},{"NoteNumber":47,"Velocity":61,"Duration":211587,"SoundDuration":211587,"Delta":27051041},{"NoteNumber":52,"Velocity":72,"Duration":211587,"SoundDuration":211587,"Delta":27051041},{"NoteNumber":40,"Velocity":61,"Duration":211587,"SoundDuration":211587,"Delta":27051041},{"NoteNumber":69,"Velocity":67,"Duration":121211,"SoundDuration":121211,"Delta":27474642},{"NoteNumber":60,"Velocity":62,"Duration":121211,"SoundDuration":121211,"Delta":27474642},{"NoteNumber":71,"Velocity":56,"Duration":121212,"SoundDuration":121212,"Delta":27595854},{"NoteNumber":59,"Velocity":56,"Duration":121212,"SoundDuration":121212,"Delta":27595854},{"NoteNumber":72,"Velocity":56,"Duration":123327,"SoundDuration":123327,"Delta":27717066},{"NoteNumber":57,"Velocity":56,"Duration":123327,"SoundDuration":123327,"Delta":27717066},{"NoteNumber":74,"Velocity":65,"Duration":362048,"SoundDuration":362048,"Delta":27840394},{"NoteNumber":56,"Velocity":61,"Duration":119360,"SoundDuration":119360,"Delta":27840394},{"NoteNumber":54,"Velocity":55,"Duration":119360,"SoundDuration":119360,"Delta":27959754},{"NoteNumber":52,"Velocity":54,"Duration":123327,"SoundDuration":123327,"Delta":28079114},{"NoteNumber":64,"Velocity":66,"Duration":119047,"SoundDuration":119047,"Delta":28202442},{"NoteNumber":62,"Velocity":67,"Duration":357143,"SoundDuration":357143,"Delta":28202442},{"NoteNumber":66,"Velocity":54,"Duration":119047,"SoundDuration":119047,"Delta":28321489},{"NoteNumber":68,"Velocity":53,"Duration":119047,"SoundDuration":119047,"Delta":28440537},{"NoteNumber":69,"Velocity":64,"Duration":120481,"SoundDuration":120481,"Delta":28559585},{"NoteNumber":60,"Velocity":61,"Duration":120481,"SoundDuration":120481,"Delta":28559585},{"NoteNumber":71,"Velocity":55,"Duration":120482,"SoundDuration":120482,"Delta":28680067},{"NoteNumber":59,"Velocity":55,"Duration":120482,"SoundDuration":120482,"Delta":28680067},{"NoteNumber":72,"Velocity":55,"Duration":123785,"SoundDuration":123785,"Delta":28800549},{"NoteNumber":57,"Velocity":55,"Duration":123785,"SoundDuration":123785,"Delta":28800549},{"NoteNumber":74,"Velocity":65,"Duration":361593,"SoundDuration":361593,"Delta":28924334},{"NoteNumber":56,"Velocity":60,"Duration":119360,"SoundDuration":119360,"Delta":28924334},{"NoteNumber":54,"Velocity":54,"Duration":119360,"SoundDuration":119360,"Delta":29043694},{"NoteNumber":52,"Velocity":54,"Duration":122872,"SoundDuration":122872,"Delta":29163055},{"NoteNumber":64,"Velocity":64,"Duration":119360,"SoundDuration":119360,"Delta":29285927},{"NoteNumber":62,"Velocity":68,"Duration":358080,"SoundDuration":358080,"Delta":29285927},{"NoteNumber":66,"Velocity":58,"Duration":119360,"SoundDuration":119360,"Delta":29405288},{"NoteNumber":68,"Velocity":58,"Duration":119360,"SoundDuration":119360,"Delta":29524648},{"NoteNumber":69,"Velocity":68,"Duration":118941,"SoundDuration":118941,"Delta":29644008},{"NoteNumber":60,"Velocity":64,"Duration":118941,"SoundDuration":118941,"Delta":29644008},{"NoteNumber":71,"Velocity":60,"Duration":119150,"SoundDuration":119150,"Delta":29762950},{"NoteNumber":59,"Velocity":57,"Duration":119150,"SoundDuration":119150,"Delta":29762950},{"NoteNumber":72,"Velocity":63,"Duration":119467,"SoundDuration":119467,"Delta":29882101},{"NoteNumber":57,"Velocity":57,"Duration":119467,"SoundDuration":119467,"Delta":29882101},{"NoteNumber":71,"Velocity":73,"Duration":119789,"SoundDuration":119789,"Delta":30001568},{"NoteNumber":56,"Velocity":67,"Duration":119789,"SoundDuration":119789,"Delta":30001568},{"NoteNumber":72,"Velocity":63,"Duration":120221,"SoundDuration":120221,"Delta":30121357},{"NoteNumber":57,"Velocity":56,"Duration":120221,"SoundDuration":120221,"Delta":30121357},{"NoteNumber":74,"Velocity":68,"Duration":120547,"SoundDuration":120547,"Delta":30241579},{"NoteNumber":59,"Velocity":56,"Duration":120547,"SoundDuration":120547,"Delta":30241579},{"NoteNumber":72,"Velocity":79,"Duration":121350,"SoundDuration":121350,"Delta":30362126},{"NoteNumber":57,"Velocity":72,"Duration":121350,"SoundDuration":121350,"Delta":30362126},{"NoteNumber":74,"Velocity":68,"Duration":123364,"SoundDuration":123364,"Delta":30483476},{"NoteNumber":59,"Velocity":64,"Duration":123364,"SoundDuration":123364,"Delta":30483476},{"NoteNumber":76,"Velocity":74,"Duration":129869,"SoundDuration":129869,"Delta":30606841},{"NoteNumber":60,"Velocity":64,"Duration":129869,"SoundDuration":129869,"Delta":30606841},{"NoteNumber":65,"Velocity":96,"Duration":119047,"SoundDuration":119047,"Delta":30736711},{"NoteNumber":62,"Velocity":91,"Duration":119047,"SoundDuration":119047,"Delta":30736711},{"NoteNumber":70,"Velocity":78,"Duration":119403,"SoundDuration":119403,"Delta":30855758},{"NoteNumber":58,"Velocity":76,"Duration":119403,"SoundDuration":119403,"Delta":30855758},{"NoteNumber":74,"Velocity":75,"Duration":119850,"SoundDuration":119850,"Delta":30975161},{"NoteNumber":53,"Velocity":76,"Duration":119850,"SoundDuration":119850,"Delta":30975161},{"NoteNumber":77,"Velocity":93,"Duration":120210,"SoundDuration":120210,"Delta":31095012},{"NoteNumber":50,"Velocity":85,"Duration":120210,"SoundDuration":120210,"Delta":31095012},{"NoteNumber":82,"Velocity":77,"Duration":120664,"SoundDuration":120664,"Delta":31215222},{"NoteNumber":46,"Velocity":74,"Duration":120664,"SoundDuration":120664,"Delta":31215222},{"NoteNumber":86,"Velocity":77,"Duration":121029,"SoundDuration":121029,"Delta":31335886},{"NoteNumber":41,"Velocity":75,"Duration":121029,"SoundDuration":121029,"Delta":31335886},{"NoteNumber":89,"Velocity":92,"Duration":122051,"SoundDuration":122051,"Delta":31456915},{"NoteNumber":38,"Velocity":85,"Duration":122051,"SoundDuration":122051,"Delta":31456915},{"NoteNumber":94,"Velocity":78,"Duration":125597,"SoundDuration":125597,"Delta":31578967},{"NoteNumber":34,"Velocity":75,"Duration":125597,"SoundDuration":125597,"Delta":31578967},{"NoteNumber":98,"Velocity":78,"Duration":129354,"SoundDuration":129354,"Delta":31704565},{"NoteNumber":29,"Velocity":76,"Duration":129354,"SoundDuration":129354,"Delta":31704565},{"NoteNumber":101,"Velocity":97,"Duration":102388,"SoundDuration":102388,"Delta":31833919},{"NoteNumber":26,"Velocity":93,"Duration":102388,"SoundDuration":102388,"Delta":31833919},{"NoteNumber":69,"Velocity":79,"Duration":212766,"SoundDuration":212766,"Delta":32243475},{"NoteNumber":72,"Velocity":79,"Duration":212766,"SoundDuration":212766,"Delta":32243475},{"NoteNumber":64,"Velocity":79,"Duration":212766,"SoundDuration":212766,"Delta":32243475},{"NoteNumber":76,"Velocity":93,"Duration":212766,"SoundDuration":212766,"Delta":32243475},{"NoteNumber":40,"Velocity":68,"Duration":212766,"SoundDuration":212766,"Delta":32243475},{"NoteNumber":45,"Velocity":68,"Duration":212766,"SoundDuration":212766,"Delta":32243475},{"NoteNumber":48,"Velocity":68,"Duration":212766,"SoundDuration":212766,"Delta":32243475},{"NoteNumber":52,"Velocity":80,"Duration":212766,"SoundDuration":212766,"Delta":32243475},{"NoteNumber":68,"Velocity":74,"Duration":230769,"SoundDuration":230769,"Delta":32669007},{"NoteNumber":64,"Velocity":74,"Duration":230769,"SoundDuration":230769,"Delta":32669007},{"NoteNumber":71,"Velocity":74,"Duration":230769,"SoundDuration":230769,"Delta":32669007},{"NoteNumber":76,"Velocity":88,"Duration":230769,"SoundDuration":230769,"Delta":32669007},{"NoteNumber":40,"Velocity":63,"Duration":230769,"SoundDuration":230769,"Delta":32669007},{"NoteNumber":47,"Velocity":63,"Duration":230769,"SoundDuration":230769,"Delta":32669007},{"NoteNumber":44,"Velocity":63,"Duration":230769,"SoundDuration":230769,"Delta":32669007},{"NoteNumber":52,"Velocity":75,"Duration":230769,"SoundDuration":230769,"Delta":32669007},{"NoteNumber":69,"Velocity":88,"Duration":1107010,"SoundDuration":1107010,"Delta":33130545},{"NoteNumber":81,"Velocity":104,"Duration":1107010,"SoundDuration":1107010,"Delta":33130545},{"NoteNumber":72,"Velocity":88,"Duration":1107010,"SoundDuration":1107010,"Delta":33130545},{"NoteNumber":76,"Velocity":88,"Duration":1107010,"SoundDuration":1107010,"Delta":33130545},{"NoteNumber":36,"Velocity":73,"Duration":1107010,"SoundDuration":1107010,"Delta":33130545},{"NoteNumber":40,"Velocity":73,"Duration":1107010,"SoundDuration":1107010,"Delta":33130545},{"NoteNumber":45,"Velocity":86,"Duration":1107010,"SoundDuration":1107010,"Delta":33130545},{"NoteNumber":33,"Velocity":73,"Duration":1107010,"SoundDuration":1107010,"Delta":33130545},{"NoteNumber":45,"Velocity":76,"Duration":53571,"SoundDuration":53571,"Delta":34237555},{"NoteNumber":47,"Velocity":77,"Duration":53571,"SoundDuration":53571,"Delta":34291126},{"NoteNumber":48,"Velocity":77,"Duration":53571,"SoundDuration":53571,"Delta":34344698},{"NoteNumber":50,"Velocity":78,"Duration":53571,"SoundDuration":53571,"Delta":34398269},{"NoteNumber":76,"Velocity":88,"Duration":72347,"SoundDuration":72347,"Delta":34451840},{"NoteNumber":68,"Velocity":74,"Duration":72347,"SoundDuration":72347,"Delta":34451840},{"NoteNumber":52,"Velocity":85,"Duration":72347,"SoundDuration":72347,"Delta":34451840},{"NoteNumber":40,"Velocity":72,"Duration":72347,"SoundDuration":72347,"Delta":34451840},{"NoteNumber":75,"Velocity":69,"Duration":74503,"SoundDuration":74503,"Delta":34644766},{"NoteNumber":69,"Velocity":58,"Duration":74503,"SoundDuration":74503,"Delta":34644766},{"NoteNumber":53,"Velocity":69,"Duration":74503,"SoundDuration":74503,"Delta":34644766},{"NoteNumber":41,"Velocity":58,"Duration":74503,"SoundDuration":74503,"Delta":34644766},{"NoteNumber":68,"Velocity":68,"Duration":72580,"SoundDuration":72580,"Delta":34843442},{"NoteNumber":76,"Velocity":81,"Duration":72580,"SoundDuration":72580,"Delta":34843442},{"NoteNumber":52,"Velocity":77,"Duration":72580,"SoundDuration":72580,"Delta":34843442},{"NoteNumber":40,"Velocity":65,"Duration":72580,"SoundDuration":72580,"Delta":34843442},{"NoteNumber":69,"Velocity":58,"Duration":74503,"SoundDuration":74503,"Delta":35036990},{"NoteNumber":75,"Velocity":69,"Duration":74503,"SoundDuration":74503,"Delta":35036990},{"NoteNumber":53,"Velocity":69,"Duration":74503,"SoundDuration":74503,"Delta":35036990},{"NoteNumber":41,"Velocity":58,"Duration":74503,"SoundDuration":74503,"Delta":35036990},{"NoteNumber":76,"Velocity":88,"Duration":86872,"SoundDuration":86872,"Delta":35235666},{"NoteNumber":68,"Velocity":74,"Duration":86872,"SoundDuration":86872,"Delta":35235666},{"NoteNumber":52,"Velocity":77,"Duration":86872,"SoundDuration":86872,"Delta":35235666},{"NoteNumber":40,"Velocity":65,"Duration":86872,"SoundDuration":86872,"Delta":35235666},{"NoteNumber":72,"Velocity":88,"Duration":1107010,"SoundDuration":1107010,"Delta":35698986},{"NoteNumber":65,"Velocity":88,"Duration":1107010,"SoundDuration":1107010,"Delta":35698986},{"NoteNumber":69,"Velocity":88,"Duration":1107010,"SoundDuration":1107010,"Delta":35698986},{"NoteNumber":77,"Velocity":104,"Duration":1107010,"SoundDuration":1107010,"Delta":35698986},{"NoteNumber":29,"Velocity":73,"Duration":1107010,"SoundDuration":1107010,"Delta":35698986},{"NoteNumber":36,"Velocity":73,"Duration":1107010,"SoundDuration":1107010,"Delta":35698986},{"NoteNumber":33,"Velocity":73,"Duration":1107010,"SoundDuration":1107010,"Delta":35698986},{"NoteNumber":41,"Velocity":87,"Duration":1107010,"SoundDuration":1107010,"Delta":35698986},{"NoteNumber":41,"Velocity":69,"Duration":53571,"SoundDuration":53571,"Delta":36805996},{"NoteNumber":43,"Velocity":69,"Duration":53571,"SoundDuration":53571,"Delta":36859567},{"NoteNumber":45,"Velocity":69,"Duration":53571,"SoundDuration":53571,"Delta":36913139},{"NoteNumber":47,"Velocity":70,"Duration":53571,"SoundDuration":53571,"Delta":36966710},{"NoteNumber":64,"Velocity":74,"Duration":72347,"SoundDuration":72347,"Delta":37020281},{"NoteNumber":72,"Velocity":88,"Duration":72347,"SoundDuration":72347,"Delta":37020281},{"NoteNumber":36,"Velocity":59,"Duration":72347,"SoundDuration":72347,"Delta":37020281},{"NoteNumber":48,"Velocity":70,"Duration":72347,"SoundDuration":72347,"Delta":37020281},{"NoteNumber":71,"Velocity":72,"Duration":74503,"SoundDuration":74503,"Delta":37213207},{"NoteNumber":65,"Velocity":61,"Duration":74503,"SoundDuration":74503,"Delta":37213207},{"NoteNumber":38,"Velocity":52,"Duration":74503,"SoundDuration":74503,"Delta":37213207},{"NoteNumber":50,"Velocity":62,"Duration":74503,"SoundDuration":74503,"Delta":37213207},{"NoteNumber":64,"Velocity":67,"Duration":73325,"SoundDuration":73325,"Delta":37411883},{"NoteNumber":72,"Velocity":79,"Duration":73325,"SoundDuration":73325,"Delta":37411883},{"NoteNumber":36,"Velocity":60,"Duration":73325,"SoundDuration":73325,"Delta":37411883},{"NoteNumber":48,"Velocity":71,"Duration":73325,"SoundDuration":73325,"Delta":37411883},{"NoteNumber":65,"Velocity":61,"Duration":74257,"SoundDuration":74257,"Delta":37606177},{"NoteNumber":71,"Velocity":72,"Duration":74257,"SoundDuration":74257,"Delta":37606177},{"NoteNumber":50,"Velocity":64,"Duration":74257,"SoundDuration":74257,"Delta":37606177},{"NoteNumber":38,"Velocity":54,"Duration":74257,"SoundDuration":74257,"Delta":37606177},{"NoteNumber":72,"Velocity":88,"Duration":86872,"SoundDuration":86872,"Delta":37804197},{"NoteNumber":64,"Velocity":74,"Duration":86872,"SoundDuration":86872,"Delta":37804197},{"NoteNumber":36,"Velocity":65,"Duration":86872,"SoundDuration":86872,"Delta":37804197},{"NoteNumber":48,"Velocity":77,"Duration":86872,"SoundDuration":86872,"Delta":37804197},{"NoteNumber":71,"Velocity":83,"Duration":885607,"SoundDuration":885607,"Delta":38267517},{"NoteNumber":62,"Velocity":83,"Duration":885607,"SoundDuration":885607,"Delta":38267517},{"NoteNumber":65,"Velocity":83,"Duration":885607,"SoundDuration":885607,"Delta":38267517},{"NoteNumber":74,"Velocity":98,"Duration":885607,"SoundDuration":885607,"Delta":38267517},{"NoteNumber":32,"Velocity":73,"Duration":885607,"SoundDuration":885607,"Delta":38267517},{"NoteNumber":44,"Velocity":86,"Duration":885607,"SoundDuration":885607,"Delta":38267517},{"NoteNumber":64,"Velocity":76,"Duration":221402,"SoundDuration":221402,"Delta":39153125},{"NoteNumber":69,"Velocity":76,"Duration":221402,"SoundDuration":221402,"Delta":39153125},{"NoteNumber":60,"Velocity":76,"Duration":221402,"SoundDuration":221402,"Delta":39153125},{"NoteNumber":72,"Velocity":90,"Duration":221402,"SoundDuration":221402,"Delta":39153125},{"NoteNumber":33,"Velocity":68,"Duration":221402,"SoundDuration":221402,"Delta":39153125},{"NoteNumber":45,"Velocity":80,"Duration":221402,"SoundDuration":221402,"Delta":39153125},{"NoteNumber":62,"Velocity":76,"Duration":216606,"SoundDuration":216606,"Delta":39595929},{"NoteNumber":58,"Velocity":76,"Duration":216606,"SoundDuration":216606,"Delta":39595929},{"NoteNumber":65,"Velocity":76,"Duration":216606,"SoundDuration":216606,"Delta":39595929},{"NoteNumber":70,"Velocity":90,"Duration":216606,"SoundDuration":216606,"Delta":39595929},{"NoteNumber":34,"Velocity":65,"Duration":216606,"SoundDuration":216606,"Delta":39595929},{"NoteNumber":46,"Velocity":77,"Duration":216606,"SoundDuration":216606,"Delta":39595929},{"NoteNumber":65,"Velocity":80,"Duration":212014,"SoundDuration":212014,"Delta":40029142},{"NoteNumber":77,"Velocity":95,"Duration":212014,"SoundDuration":212014,"Delta":40029142},{"NoteNumber":68,"Velocity":80,"Duration":212014,"SoundDuration":212014,"Delta":40029142},{"NoteNumber":74,"Velocity":80,"Duration":212014,"SoundDuration":212014,"Delta":40029142},{"NoteNumber":35,"Velocity":70,"Duration":212014,"SoundDuration":212014,"Delta":40029142},{"NoteNumber":47,"Velocity":83,"Duration":212014,"SoundDuration":212014,"Delta":40029142},{"NoteNumber":72,"Velocity":77,"Duration":217391,"SoundDuration":217391,"Delta":40453170},{"NoteNumber":76,"Velocity":91,"Duration":217391,"SoundDuration":217391,"Delta":40453170},{"NoteNumber":64,"Velocity":77,"Duration":217391,"SoundDuration":217391,"Delta":40453170},{"NoteNumber":69,"Velocity":77,"Duration":217391,"SoundDuration":217391,"Delta":40453170},{"NoteNumber":48,"Velocity":79,"Duration":217391,"SoundDuration":217391,"Delta":40453170},{"NoteNumber":36,"Velocity":67,"Duration":217391,"SoundDuration":217391,"Delta":40453170},{"NoteNumber":74,"Velocity":94,"Duration":222222,"SoundDuration":222222,"Delta":40887953},{"NoteNumber":65,"Velocity":79,"Duration":222222,"SoundDuration":222222,"Delta":40887953},{"NoteNumber":71,"Velocity":79,"Duration":222222,"SoundDuration":222222,"Delta":40887953},{"NoteNumber":50,"Velocity":84,"Duration":222222,"SoundDuration":222222,"Delta":40887953},{"NoteNumber":38,"Velocity":71,"Duration":222222,"SoundDuration":222222,"Delta":40887953},{"NoteNumber":72,"Velocity":90,"Duration":227272,"SoundDuration":227272,"Delta":41332397},{"NoteNumber":64,"Velocity":76,"Duration":227272,"SoundDuration":227272,"Delta":41332397},{"NoteNumber":69,"Velocity":76,"Duration":227272,"SoundDuration":227272,"Delta":41332397},{"NoteNumber":52,"Velocity":78,"Duration":227272,"SoundDuration":227272,"Delta":41332397},{"NoteNumber":40,"Velocity":66,"Duration":227272,"SoundDuration":227272,"Delta":41332397},{"NoteNumber":71,"Velocity":88,"Duration":234375,"SoundDuration":234375,"Delta":41786942},{"NoteNumber":64,"Velocity":74,"Duration":234375,"SoundDuration":234375,"Delta":41786942},{"NoteNumber":68,"Velocity":74,"Duration":234375,"SoundDuration":234375,"Delta":41786942},{"NoteNumber":52,"Velocity":75,"Duration":234375,"SoundDuration":234375,"Delta":41786942},{"NoteNumber":40,"Velocity":63,"Duration":234375,"SoundDuration":234375,"Delta":41786942},{"NoteNumber":69,"Velocity":87,"Duration":194175,"SoundDuration":194175,"Delta":42255692},{"NoteNumber":45,"Velocity":69,"Duration":1173813,"SoundDuration":1173813,"Delta":42255692},{"NoteNumber":48,"Velocity":69,"Duration":1173813,"SoundDuration":1173813,"Delta":42255692},{"NoteNumber":52,"Velocity":69,"Duration":1173813,"SoundDuration":1173813,"Delta":42255692},{"NoteNumber":57,"Velocity":82,"Duration":1173813,"SoundDuration":1173813,"Delta":42255692},{"NoteNumber":71,"Velocity":83,"Duration":97087,"SoundDuration":97087,"Delta":42449867},{"NoteNumber":72,"Velocity":75,"Duration":97087,"SoundDuration":97087,"Delta":42546954},{"NoteNumber":74,"Velocity":76,"Duration":96878,"SoundDuration":96878,"Delta":42644042},{"NoteNumber":76,"Velocity":78,"Duration":96983,"SoundDuration":96983,"Delta":42740920},{"NoteNumber":78,"Velocity":80,"Duration":97508,"SoundDuration":97508,"Delta":42837903},{"NoteNumber":80,"Velocity":82,"Duration":97932,"SoundDuration":97932,"Delta":42935412},{"NoteNumber":81,"Velocity":83,"Duration":98360,"SoundDuration":98360,"Delta":43033344},{"NoteNumber":83,"Velocity":85,"Duration":98792,"SoundDuration":98792,"Delta":43131705},{"NoteNumber":84,"Velocity":87,"Duration":99228,"SoundDuration":99228,"Delta":43230498},{"NoteNumber":86,"Velocity":88,"Duration":99778,"SoundDuration":99778,"Delta":43329726},{"NoteNumber":88,"Velocity":99,"Duration":73051,"SoundDuration":73051,"Delta":43429505},{"NoteNumber":76,"Velocity":84,"Duration":73051,"SoundDuration":73051,"Delta":43429505},{"NoteNumber":56,"Velocity":77,"Duration":73051,"SoundDuration":73051,"Delta":43429505},{"NoteNumber":52,"Velocity":65,"Duration":73051,"SoundDuration":73051,"Delta":43429505},{"NoteNumber":75,"Velocity":73,"Duration":75000,"SoundDuration":75000,"Delta":43624310},{"NoteNumber":87,"Velocity":86,"Duration":75000,"SoundDuration":75000,"Delta":43624310},{"NoteNumber":57,"Velocity":67,"Duration":75000,"SoundDuration":75000,"Delta":43624310},{"NoteNumber":53,"Velocity":56,"Duration":75000,"SoundDuration":75000,"Delta":43624310},{"NoteNumber":88,"Velocity":93,"Duration":73051,"SoundDuration":73051,"Delta":43824310},{"NoteNumber":76,"Velocity":79,"Duration":73051,"SoundDuration":73051,"Delta":43824310},{"NoteNumber":56,"Velocity":72,"Duration":73051,"SoundDuration":73051,"Delta":43824310},{"NoteNumber":52,"Velocity":61,"Duration":73051,"SoundDuration":73051,"Delta":43824310},{"NoteNumber":75,"Velocity":73,"Duration":75250,"SoundDuration":75250,"Delta":44019115},{"NoteNumber":87,"Velocity":86,"Duration":75250,"SoundDuration":75250,"Delta":44019115},{"NoteNumber":57,"Velocity":65,"Duration":75250,"SoundDuration":75250,"Delta":44019115},{"NoteNumber":53,"Velocity":55,"Duration":75250,"SoundDuration":75250,"Delta":44019115},{"NoteNumber":88,"Velocity":101,"Duration":86872,"SoundDuration":86872,"Delta":44219784},{"NoteNumber":76,"Velocity":85,"Duration":86872,"SoundDuration":86872,"Delta":44219784},{"NoteNumber":56,"Velocity":77,"Duration":86872,"SoundDuration":86872,"Delta":44219784},{"NoteNumber":52,"Velocity":65,"Duration":86872,"SoundDuration":86872,"Delta":44219784},{"NoteNumber":65,"Velocity":89,"Duration":194175,"SoundDuration":194175,"Delta":44683104},{"NoteNumber":48,"Velocity":72,"Duration":1173813,"SoundDuration":1173813,"Delta":44683104},{"NoteNumber":45,"Velocity":72,"Duration":1173813,"SoundDuration":1173813,"Delta":44683104},{"NoteNumber":41,"Velocity":72,"Duration":1173813,"SoundDuration":1173813,"Delta":44683104},{"NoteNumber":53,"Velocity":85,"Duration":1173813,"SoundDuration":1173813,"Delta":44683104},{"NoteNumber":67,"Velocity":83,"Duration":97087,"SoundDuration":97087,"Delta":44877279},{"NoteNumber":69,"Velocity":75,"Duration":97087,"SoundDuration":97087,"Delta":44974366},{"NoteNumber":70,"Velocity":76,"Duration":96878,"SoundDuration":96878,"Delta":45071454},{"NoteNumber":72,"Velocity":78,"Duration":96983,"SoundDuration":96983,"Delta":45168333},{"NoteNumber":74,"Velocity":80,"Duration":97508,"SoundDuration":97508,"Delta":45265316},{"NoteNumber":76,"Velocity":82,"Duration":97932,"SoundDuration":97932,"Delta":45362824},{"NoteNumber":77,"Velocity":83,"Duration":98360,"SoundDuration":98360,"Delta":45460757},{"NoteNumber":79,"Velocity":85,"Duration":98792,"SoundDuration":98792,"Delta":45559117},{"NoteNumber":81,"Velocity":87,"Duration":99228,"SoundDuration":99228,"Delta":45657910},{"NoteNumber":82,"Velocity":88,"Duration":99778,"SoundDuration":99778,"Delta":45757139},{"NoteNumber":72,"Velocity":79,"Duration":73051,"SoundDuration":73051,"Delta":45856917},{"NoteNumber":84,"Velocity":94,"Duration":73051,"SoundDuration":73051,"Delta":45856917},{"NoteNumber":52,"Velocity":71,"Duration":73051,"SoundDuration":73051,"Delta":45856917},{"NoteNumber":48,"Velocity":60,"Duration":73051,"SoundDuration":73051,"Delta":45856917},{"NoteNumber":83,"Velocity":82,"Duration":75250,"SoundDuration":75250,"Delta":46051722},{"NoteNumber":71,"Velocity":69,"Duration":75250,"SoundDuration":75250,"Delta":46051722},{"NoteNumber":53,"Velocity":64,"Duration":75250,"SoundDuration":75250,"Delta":46051722},{"NoteNumber":50,"Velocity":54,"Duration":75250,"SoundDuration":75250,"Delta":46051722},{"NoteNumber":72,"Velocity":76,"Duration":73051,"SoundDuration":73051,"Delta":46252391},{"NoteNumber":84,"Velocity":90,"Duration":73051,"SoundDuration":73051,"Delta":46252391},{"NoteNumber":52,"Velocity":70,"Duration":73051,"SoundDuration":73051,"Delta":46252391},{"NoteNumber":48,"Velocity":59,"Duration":73051,"SoundDuration":73051,"Delta":46252391},{"NoteNumber":83,"Velocity":81,"Duration":75250,"SoundDuration":75250,"Delta":46447196},{"NoteNumber":71,"Velocity":68,"Duration":75250,"SoundDuration":75250,"Delta":46447196},{"NoteNumber":53,"Velocity":62,"Duration":75250,"SoundDuration":75250,"Delta":46447196},{"NoteNumber":50,"Velocity":52,"Duration":75250,"SoundDuration":75250,"Delta":46447196},{"NoteNumber":84,"Velocity":95,"Duration":86872,"SoundDuration":86872,"Delta":46647865},{"NoteNumber":72,"Velocity":80,"Duration":86872,"SoundDuration":86872,"Delta":46647865},{"NoteNumber":52,"Velocity":74,"Duration":86872,"SoundDuration":86872,"Delta":46647865},{"NoteNumber":48,"Velocity":62,"Duration":86872,"SoundDuration":86872,"Delta":46647865},{"NoteNumber":71,"Velocity":85,"Duration":110700,"SoundDuration":110700,"Delta":47111185},{"NoteNumber":50,"Velocity":57,"Duration":885607,"SoundDuration":885607,"Delta":47111185},{"NoteNumber":47,"Velocity":57,"Duration":885607,"SoundDuration":885607,"Delta":47111185},{"NoteNumber":56,"Velocity":68,"Duration":885607,"SoundDuration":885607,"Delta":47111185},{"NoteNumber":53,"Velocity":57,"Duration":885607,"SoundDuration":885607,"Delta":47111185},{"NoteNumber":44,"Velocity":57,"Duration":885607,"SoundDuration":885607,"Delta":47111185},{"NoteNumber":72,"Velocity":80,"Duration":110700,"SoundDuration":110700,"Delta":47221886},{"NoteNumber":74,"Velocity":80,"Duration":110700,"SoundDuration":110700,"Delta":47332587},{"NoteNumber":76,"Velocity":78,"Duration":110701,"SoundDuration":110701,"Delta":47443288},{"NoteNumber":77,"Velocity":90,"Duration":110700,"SoundDuration":110700,"Delta":47553989},{"NoteNumber":83,"Velocity":83,"Duration":110700,"SoundDuration":110700,"Delta":47664690},{"NoteNumber":86,"Velocity":82,"Duration":110700,"SoundDuration":110700,"Delta":47775391},{"NoteNumber":89,"Velocity":78,"Duration":110700,"SoundDuration":110700,"Delta":47886092},{"NoteNumber":88,"Velocity":92,"Duration":110701,"SoundDuration":110701,"Delta":47996793},{"NoteNumber":48,"Velocity":55,"Duration":221402,"SoundDuration":221402,"Delta":47996793},{"NoteNumber":57,"Velocity":65,"Duration":221402,"SoundDuration":221402,"Delta":47996793},{"NoteNumber":52,"Velocity":55,"Duration":221402,"SoundDuration":221402,"Delta":47996793},{"NoteNumber":45,"Velocity":55,"Duration":221402,"SoundDuration":221402,"Delta":47996793},{"NoteNumber":70,"Velocity":86,"Duration":112359,"SoundDuration":112359,"Delta":48449855},{"NoteNumber":50,"Velocity":51,"Duration":224719,"SoundDuration":224719,"Delta":48449855},{"NoteNumber":58,"Velocity":60,"Duration":224719,"SoundDuration":224719,"Delta":48449855},{"NoteNumber":53,"Velocity":51,"Duration":224719,"SoundDuration":224719,"Delta":48449855},{"NoteNumber":46,"Velocity":51,"Duration":224719,"SoundDuration":224719,"Delta":48449855},{"NoteNumber":74,"Velocity":78,"Duration":112359,"SoundDuration":112359,"Delta":48562215},{"NoteNumber":77,"Velocity":78,"Duration":112359,"SoundDuration":112359,"Delta":48674574},{"NoteNumber":82,"Velocity":78,"Duration":112359,"SoundDuration":112359,"Delta":48786934},{"NoteNumber":74,"Velocity":86,"Duration":112359,"SoundDuration":112359,"Delta":48899293},{"NoteNumber":50,"Velocity":49,"Duration":224719,"SoundDuration":224719,"Delta":48899293},{"NoteNumber":56,"Velocity":49,"Duration":224719,"SoundDuration":224719,"Delta":48899293},{"NoteNumber":59,"Velocity":58,"Duration":224719,"SoundDuration":224719,"Delta":48899293},{"NoteNumber":47,"Velocity":49,"Duration":224719,"SoundDuration":224719,"Delta":48899293},{"NoteNumber":53,"Velocity":49,"Duration":224719,"SoundDuration":224719,"Delta":48899293},{"NoteNumber":77,"Velocity":78,"Duration":112359,"SoundDuration":112359,"Delta":49011653},{"NoteNumber":80,"Velocity":78,"Duration":112359,"SoundDuration":112359,"Delta":49124012},{"NoteNumber":86,"Velocity":78,"Duration":112359,"SoundDuration":112359,"Delta":49236372},{"NoteNumber":72,"Velocity":86,"Duration":112359,"SoundDuration":112359,"Delta":49348731},{"NoteNumber":52,"Velocity":48,"Duration":224719,"SoundDuration":224719,"Delta":49348731},{"NoteNumber":60,"Velocity":57,"Duration":224719,"SoundDuration":224719,"Delta":49348731},{"NoteNumber":57,"Velocity":48,"Duration":224719,"SoundDuration":224719,"Delta":49348731},{"NoteNumber":48,"Velocity":48,"Duration":224719,"SoundDuration":224719,"Delta":49348731},{"NoteNumber":76,"Velocity":76,"Duration":112359,"SoundDuration":112359,"Delta":49461091},{"NoteNumber":81,"Velocity":76,"Duration":116278,"SoundDuration":116278,"Delta":49573450},{"NoteNumber":84,"Velocity":76,"Duration":116278,"SoundDuration":116278,"Delta":49689729},{"NoteNumber":71,"Velocity":80,"Duration":114068,"SoundDuration":114068,"Delta":49806008},{"NoteNumber":53,"Velocity":49,"Duration":228136,"SoundDuration":228136,"Delta":49806008},{"NoteNumber":62,"Velocity":58,"Duration":228136,"SoundDuration":228136,"Delta":49806008},{"NoteNumber":50,"Velocity":49,"Duration":228136,"SoundDuration":228136,"Delta":49806008},{"NoteNumber":59,"Velocity":49,"Duration":228136,"SoundDuration":228136,"Delta":49806008},{"NoteNumber":74,"Velocity":73,"Duration":114068,"SoundDuration":114068,"Delta":49920077},{"NoteNumber":77,"Velocity":73,"Duration":114068,"SoundDuration":114068,"Delta":50034145},{"NoteNumber":83,"Velocity":72,"Duration":114068,"SoundDuration":114068,"Delta":50148214},{"NoteNumber":69,"Velocity":78,"Duration":117646,"SoundDuration":117646,"Delta":50262282},{"NoteNumber":57,"Velocity":47,"Duration":235294,"SoundDuration":235294,"Delta":50262282},{"NoteNumber":64,"Velocity":56,"Duration":235294,"SoundDuration":235294,"Delta":50262282},{"NoteNumber":60,"Velocity":47,"Duration":235294,"SoundDuration":235294,"Delta":50262282},{"NoteNumber":52,"Velocity":47,"Duration":235294,"SoundDuration":235294,"Delta":50262282},{"NoteNumber":72,"Velocity":70,"Duration":117647,"SoundDuration":117647,"Delta":50379929},{"NoteNumber":76,"Velocity":70,"Duration":117646,"SoundDuration":117646,"Delta":50497576},{"NoteNumber":81,"Velocity":70,"Duration":117646,"SoundDuration":117646,"Delta":50615223},{"NoteNumber":68,"Velocity":77,"Duration":121951,"SoundDuration":121951,"Delta":50732870},{"NoteNumber":59,"Velocity":45,"Duration":243902,"SoundDuration":243902,"Delta":50732870},{"NoteNumber":64,"Velocity":54,"Duration":243902,"SoundDuration":243902,"Delta":50732870},{"NoteNumber":52,"Velocity":45,"Duration":243902,"SoundDuration":243902,"Delta":50732870},{"NoteNumber":56,"Velocity":45,"Duration":243902,"SoundDuration":243902,"Delta":50732870},{"NoteNumber":71,"Velocity":69,"Duration":121951,"SoundDuration":121951,"Delta":50854821},{"NoteNumber":76,"Velocity":69,"Duration":121951,"SoundDuration":121951,"Delta":50976773},{"NoteNumber":80,"Velocity":69,"Duration":121951,"SoundDuration":121951,"Delta":51098724},{"NoteNumber":57,"Velocity":87,"Duration":194175,"SoundDuration":194175,"Delta":51220675},{"NoteNumber":45,"Velocity":77,"Duration":194175,"SoundDuration":194175,"Delta":51220675},{"NoteNumber":59,"Velocity":82,"Duration":97087,"SoundDuration":97087,"Delta":51414850},{"NoteNumber":47,"Velocity":73,"Duration":97087,"SoundDuration":97087,"Delta":51414850},{"NoteNumber":60,"Velocity":78,"Duration":97087,"SoundDuration":97087,"Delta":51511938},{"NoteNumber":48,"Velocity":67,"Duration":97087,"SoundDuration":97087,"Delta":51511938},{"NoteNumber":62,"Velocity":77,"Duration":96878,"SoundDuration":96878,"Delta":51609025},{"NoteNumber":50,"Velocity":67,"Duration":96878,"SoundDuration":96878,"Delta":51609025},{"NoteNumber":64,"Velocity":77,"Duration":96983,"SoundDuration":96983,"Delta":51705904},{"NoteNumber":52,"Velocity":66,"Duration":96983,"SoundDuration":96983,"Delta":51705904},{"NoteNumber":66,"Velocity":77,"Duration":97508,"SoundDuration":97508,"Delta":51802887},{"NoteNumber":54,"Velocity":65,"Duration":97508,"SoundDuration":97508,"Delta":51802887},{"NoteNumber":68,"Velocity":76,"Duration":97932,"SoundDuration":97932,"Delta":51900395},{"NoteNumber":56,"Velocity":64,"Duration":97932,"SoundDuration":97932,"Delta":51900395},{"NoteNumber":69,"Velocity":76,"Duration":98360,"SoundDuration":98360,"Delta":51998328},{"NoteNumber":57,"Velocity":63,"Duration":98360,"SoundDuration":98360,"Delta":51998328},{"NoteNumber":71,"Velocity":76,"Duration":98792,"SoundDuration":98792,"Delta":52096689},{"NoteNumber":59,"Velocity":63,"Duration":98792,"SoundDuration":98792,"Delta":52096689},{"NoteNumber":72,"Velocity":75,"Duration":99228,"SoundDuration":99228,"Delta":52195482},{"NoteNumber":60,"Velocity":62,"Duration":99228,"SoundDuration":99228,"Delta":52195482},{"NoteNumber":74,"Velocity":75,"Duration":99337,"SoundDuration":99337,"Delta":52294710},{"NoteNumber":62,"Velocity":62,"Duration":99337,"SoundDuration":99337,"Delta":52294710},{"NoteNumber":76,"Velocity":74,"Duration":99778,"SoundDuration":99778,"Delta":52394048},{"NoteNumber":64,"Velocity":61,"Duration":99778,"SoundDuration":99778,"Delta":52394048},{"NoteNumber":77,"Velocity":74,"Duration":100111,"SoundDuration":100111,"Delta":52493826},{"NoteNumber":65,"Velocity":61,"Duration":100111,"SoundDuration":100111,"Delta":52493826},{"NoteNumber":79,"Velocity":73,"Duration":100559,"SoundDuration":100559,"Delta":52593938},{"NoteNumber":67,"Velocity":60,"Duration":100559,"SoundDuration":100559,"Delta":52593938},{"NoteNumber":81,"Velocity":73,"Duration":100897,"SoundDuration":100897,"Delta":52694497},{"NoteNumber":69,"Velocity":60,"Duration":100897,"SoundDuration":100897,"Delta":52694497},{"NoteNumber":82,"Velocity":71,"Duration":202702,"SoundDuration":202702,"Delta":52795394},{"NoteNumber":70,"Velocity":60,"Duration":202702,"SoundDuration":202702,"Delta":52795394},{"NoteNumber":79,"Velocity":71,"Duration":202702,"SoundDuration":202702,"Delta":54011609},{"NoteNumber":67,"Velocity":60,"Duration":202702,"SoundDuration":202702,"Delta":54011609},{"NoteNumber":76,"Velocity":67,"Duration":202702,"SoundDuration":202702,"Delta":55227824},{"NoteNumber":64,"Velocity":55,"Duration":202702,"SoundDuration":202702,"Delta":55227824},{"NoteNumber":73,"Velocity":55,"Duration":206896,"SoundDuration":206896,"Delta":56460815},{"NoteNumber":61,"Velocity":48,"Duration":206896,"SoundDuration":206896,"Delta":56460815},{"NoteNumber":72,"Velocity":50,"Duration":229885,"SoundDuration":229885,"Delta":57748171},{"NoteNumber":60,"Velocity":46,"Duration":229885,"SoundDuration":229885,"Delta":57748171},{"NoteNumber":69,"Velocity":38,"Duration":1072155,"SoundDuration":1072155,"Delta":59047102},{"NoteNumber":60,"Velocity":33,"Duration":2537846,"SoundDuration":2537846,"Delta":59047102},{"NoteNumber":41,"Velocity":36,"Duration":216450,"SoundDuration":216450,"Delta":59047102},{"NoteNumber":48,"Velocity":22,"Duration":216449,"SoundDuration":216449,"Delta":59263552},{"NoteNumber":53,"Velocity":27,"Duration":216450,"SoundDuration":216450,"Delta":59480002},{"NoteNumber":48,"Velocity":22,"Duration":216450,"SoundDuration":216450,"Delta":59696452},{"NoteNumber":53,"Velocity":36,"Duration":206355,"SoundDuration":206355,"Delta":59912902},{"NoteNumber":70,"Velocity":36,"Duration":103177,"SoundDuration":103177,"Delta":60119258},{"NoteNumber":69,"Velocity":31,"Duration":103177,"SoundDuration":103177,"Delta":60222436},{"NoteNumber":67,"Velocity":36,"Duration":412711,"SoundDuration":412711,"Delta":60325614},{"NoteNumber":40,"Velocity":36,"Duration":206355,"SoundDuration":206355,"Delta":60325614},{"NoteNumber":48,"Velocity":26,"Duration":206355,"SoundDuration":206355,"Delta":60531970},{"NoteNumber":70,"Velocity":38,"Duration":419697,"SoundDuration":419697,"Delta":60738326},{"NoteNumber":55,"Velocity":31,"Duration":209848,"SoundDuration":209848,"Delta":60738326},{"NoteNumber":48,"Velocity":26,"Duration":209848,"SoundDuration":209848,"Delta":60948175},{"NoteNumber":73,"Velocity":42,"Duration":426924,"SoundDuration":426924,"Delta":61158024},{"NoteNumber":58,"Velocity":35,"Duration":213462,"SoundDuration":213462,"Delta":61158024},{"NoteNumber":72,"Velocity":40,"Duration":833737,"SoundDuration":833737,"Delta":61584949},{"NoteNumber":60,"Velocity":33,"Duration":1255648,"SoundDuration":1255648,"Delta":61584949},{"NoteNumber":41,"Velocity":33,"Duration":208434,"SoundDuration":208434,"Delta":61584949},{"NoteNumber":48,"Velocity":23,"Duration":208434,"SoundDuration":208434,"Delta":61793383},{"NoteNumber":57,"Velocity":26,"Duration":208434,"SoundDuration":208434,"Delta":62001818},{"NoteNumber":48,"Velocity":22,"Duration":208434,"SoundDuration":208434,"Delta":62210252},{"NoteNumber":69,"Velocity":34,"Duration":413121,"SoundDuration":413121,"Delta":62418687},{"NoteNumber":53,"Velocity":36,"Duration":210955,"SoundDuration":210955,"Delta":62418687},{"NoteNumber":72,"Velocity":40,"Duration":825423,"SoundDuration":825423,"Delta":62840598},{"NoteNumber":60,"Velocity":33,"Duration":1261248,"SoundDuration":1261248,"Delta":62840598},{"NoteNumber":40,"Velocity":36,"Duration":206355,"SoundDuration":206355,"Delta":62840598},{"NoteNumber":48,"Velocity":27,"Duration":206355,"SoundDuration":206355,"Delta":63046954},{"NoteNumber":52,"Velocity":31,"Duration":206355,"SoundDuration":206355,"Delta":63253310},{"NoteNumber":48,"Velocity":26,"Duration":206355,"SoundDuration":206355,"Delta":63459666},{"NoteNumber":70,"Velocity":34,"Duration":426745,"SoundDuration":426745,"Delta":63666022},{"NoteNumber":55,"Velocity":35,"Duration":217912,"SoundDuration":217912,"Delta":63666022},{"NoteNumber":69,"Velocity":38,"Duration":1041702,"SoundDuration":1041702,"Delta":64101847},{"NoteNumber":60,"Velocity":38,"Duration":2482403,"SoundDuration":2482403,"Delta":64101847},{"NoteNumber":41,"Velocity":34,"Duration":209849,"SoundDuration":209849,"Delta":64101847},{"NoteNumber":48,"Velocity":27,"Duration":209848,"SoundDuration":209848,"Delta":64311696},{"NoteNumber":53,"Velocity":29,"Duration":209849,"SoundDuration":209849,"Delta":64521545},{"NoteNumber":48,"Velocity":26,"Duration":209848,"SoundDuration":209848,"Delta":64731394},{"NoteNumber":53,"Velocity":36,"Duration":202306,"SoundDuration":202306,"Delta":64941243},{"NoteNumber":70,"Velocity":35,"Duration":101153,"SoundDuration":101153,"Delta":65143549},{"NoteNumber":69,"Velocity":31,"Duration":101153,"SoundDuration":101153,"Delta":65244703},{"NoteNumber":67,"Velocity":36,"Duration":404612,"SoundDuration":404612,"Delta":65345856},{"NoteNumber":40,"Velocity":36,"Duration":202306,"SoundDuration":202306,"Delta":65345856},{"NoteNumber":48,"Velocity":27,"Duration":202306,"SoundDuration":202306,"Delta":65548162},{"NoteNumber":70,"Velocity":38,"Duration":408552,"SoundDuration":408552,"Delta":65750469},{"NoteNumber":55,"Velocity":31,"Duration":204275,"SoundDuration":204275,"Delta":65750469},{"NoteNumber":48,"Velocity":27,"Duration":204276,"SoundDuration":204276,"Delta":65954745},{"NoteNumber":73,"Velocity":42,"Duration":425229,"SoundDuration":425229,"Delta":66159021},{"NoteNumber":58,"Velocity":35,"Duration":212614,"SoundDuration":212614,"Delta":66159021},{"NoteNumber":72,"Velocity":40,"Duration":817661,"SoundDuration":817661,"Delta":66584251},{"NoteNumber":60,"Velocity":33,"Duration":1239572,"SoundDuration":1239572,"Delta":66584251},{"NoteNumber":41,"Velocity":33,"Duration":204415,"SoundDuration":204415,"Delta":66584251},{"NoteNumber":48,"Velocity":23,"Duration":204415,"SoundDuration":204415,"Delta":66788666},{"NoteNumber":57,"Velocity":27,"Duration":204415,"SoundDuration":204415,"Delta":66993082},{"NoteNumber":48,"Velocity":22,"Duration":204415,"SoundDuration":204415,"Delta":67197497},{"NoteNumber":69,"Velocity":34,"Duration":413121,"SoundDuration":413121,"Delta":67401913},{"NoteNumber":53,"Velocity":36,"Duration":210955,"SoundDuration":210955,"Delta":67401913},{"NoteNumber":72,"Velocity":47,"Duration":822764,"SoundDuration":822764,"Delta":67823824},{"NoteNumber":60,"Velocity":47,"Duration":1250114,"SoundDuration":1250114,"Delta":67823824},{"NoteNumber":40,"Velocity":38,"Duration":205691,"SoundDuration":205691,"Delta":67823824},{"NoteNumber":48,"Velocity":28,"Duration":205691,"SoundDuration":205691,"Delta":68029515},{"NoteNumber":52,"Velocity":35,"Duration":205691,"SoundDuration":205691,"Delta":68235206},{"NoteNumber":48,"Velocity":28,"Duration":205691,"SoundDuration":205691,"Delta":68440897},{"NoteNumber":70,"Velocity":45,"Duration":418446,"SoundDuration":418446,"Delta":68646588},{"NoteNumber":55,"Velocity":35,"Duration":213674,"SoundDuration":213674,"Delta":68646588},{"NoteNumber":61,"Velocity":53,"Duration":1246416,"SoundDuration":1246416,"Delta":69073938},{"NoteNumber":73,"Velocity":53,"Duration":817661,"SoundDuration":817661,"Delta":69073938},{"NoteNumber":40,"Velocity":38,"Duration":204415,"SoundDuration":204415,"Delta":69073938},{"NoteNumber":49,"Velocity":30,"Duration":204415,"SoundDuration":204415,"Delta":69278353},{"NoteNumber":52,"Velocity":36,"Duration":204415,"SoundDuration":204415,"Delta":69482769},{"NoteNumber":49,"Velocity":31,"Duration":204415,"SoundDuration":204415,"Delta":69687184},{"NoteNumber":70,"Velocity":49,"Duration":419822,"SoundDuration":419822,"Delta":69891600},{"NoteNumber":55,"Velocity":39,"Duration":214377,"SoundDuration":214377,"Delta":69891600},{"NoteNumber":62,"Velocity":57,"Duration":1259318,"SoundDuration":1259318,"Delta":70320355},{"NoteNumber":74,"Velocity":57,"Duration":830563,"SoundDuration":830563,"Delta":70320355},{"NoteNumber":41,"Velocity":47,"Duration":207640,"SoundDuration":207640,"Delta":70320355},{"NoteNumber":50,"Velocity":33,"Duration":207641,"SoundDuration":207641,"Delta":70527996},{"NoteNumber":53,"Velocity":36,"Duration":207640,"SoundDuration":207640,"Delta":70735637},{"NoteNumber":50,"Velocity":33,"Duration":207640,"SoundDuration":207640,"Delta":70943278},{"NoteNumber":70,"Velocity":49,"Duration":419822,"SoundDuration":419822,"Delta":71150919},{"NoteNumber":58,"Velocity":41,"Duration":214377,"SoundDuration":214377,"Delta":71150919},{"NoteNumber":63,"Velocity":53,"Duration":1282438,"SoundDuration":1282438,"Delta":71579674},{"NoteNumber":69,"Velocity":53,"Duration":431405,"SoundDuration":431405,"Delta":71579674},{"NoteNumber":41,"Velocity":48,"Duration":215703,"SoundDuration":215703,"Delta":71579674},{"NoteNumber":53,"Velocity":35,"Duration":215702,"SoundDuration":215702,"Delta":71795377},{"NoteNumber":78,"Velocity":61,"Duration":421141,"SoundDuration":421141,"Delta":72011080},{"NoteNumber":60,"Velocity":40,"Duration":210570,"SoundDuration":210570,"Delta":72011080},{"NoteNumber":53,"Velocity":35,"Duration":210570,"SoundDuration":210570,"Delta":72221650},{"NoteNumber":77,"Velocity":55,"Duration":429891,"SoundDuration":429891,"Delta":72432221},{"NoteNumber":60,"Velocity":44,"Duration":214945,"SoundDuration":214945,"Delta":72432221},{"NoteNumber":65,"Velocity":33,"Duration":1269874,"SoundDuration":1269874,"Delta":72862113},{"NoteNumber":75,"Velocity":50,"Duration":836911,"SoundDuration":836911,"Delta":72862113},{"NoteNumber":46,"Velocity":39,"Duration":210570,"SoundDuration":210570,"Delta":72862113},{"NoteNumber":53,"Velocity":24,"Duration":210570,"SoundDuration":210570,"Delta":73072683},{"NoteNumber":58,"Velocity":26,"Duration":208129,"SoundDuration":208129,"Delta":73283254},{"NoteNumber":53,"Velocity":22,"Duration":207640,"SoundDuration":207640,"Delta":73491383},{"NoteNumber":74,"Velocity":45,"Duration":423942,"SoundDuration":423942,"Delta":73699024},{"NoteNumber":62,"Velocity":31,"Duration":216481,"SoundDuration":216481,"Delta":73699024},{"NoteNumber":60,"Velocity":49,"Duration":1272654,"SoundDuration":1272654,"Delta":74131987},{"NoteNumber":69,"Velocity":49,"Duration":428754,"SoundDuration":428754,"Delta":74131987},{"NoteNumber":38,"Velocity":38,"Duration":214377,"SoundDuration":214377,"Delta":74131987},{"NoteNumber":50,"Velocity":30,"Duration":214377,"SoundDuration":214377,"Delta":74346365},{"NoteNumber":75,"Velocity":53,"Duration":417914,"SoundDuration":417914,"Delta":74560742},{"NoteNumber":54,"Velocity":33,"Duration":208957,"SoundDuration":208957,"Delta":74560742},{"NoteNumber":50,"Velocity":29,"Duration":208957,"SoundDuration":208957,"Delta":74769700},{"NoteNumber":74,"Velocity":45,"Duration":425984,"SoundDuration":425984,"Delta":74978657},{"NoteNumber":57,"Velocity":38,"Duration":212992,"SoundDuration":212992,"Delta":74978657},{"NoteNumber":72,"Velocity":48,"Duration":833878,"SoundDuration":833878,"Delta":75404642},{"NoteNumber":62,"Velocity":33,"Duration":1257129,"SoundDuration":1257129,"Delta":75404642},{"NoteNumber":43,"Velocity":36,"Duration":210955,"SoundDuration":210955,"Delta":75404642},{"NoteNumber":50,"Velocity":25,"Duration":207640,"SoundDuration":207640,"Delta":75615598},{"NoteNumber":55,"Velocity":28,"Duration":207641,"SoundDuration":207641,"Delta":75823239},{"NoteNumber":50,"Velocity":26,"Duration":207640,"SoundDuration":207640,"Delta":76030880},{"NoteNumber":70,"Velocity":45,"Duration":414433,"SoundDuration":414433,"Delta":76238521},{"NoteNumber":58,"Velocity":31,"Duration":211625,"SoundDuration":211625,"Delta":76238521},{"NoteNumber":60,"Velocity":33,"Duration":1250114,"SoundDuration":1250114,"Delta":76661772},{"NoteNumber":72,"Velocity":40,"Duration":822764,"SoundDuration":822764,"Delta":76661772},{"NoteNumber":40,"Velocity":36,"Duration":205691,"SoundDuration":205691,"Delta":76661772},{"NoteNumber":48,"Velocity":27,"Duration":205691,"SoundDuration":205691,"Delta":76867463},{"NoteNumber":52,"Velocity":29,"Duration":205691,"SoundDuration":205691,"Delta":77073154},{"NoteNumber":48,"Velocity":27,"Duration":205691,"SoundDuration":205691,"Delta":77278845},{"NoteNumber":70,"Velocity":34,"Duration":418446,"SoundDuration":418446,"Delta":77484536},{"NoteNumber":55,"Velocity":35,"Duration":213674,"SoundDuration":213674,"Delta":77484536},{"NoteNumber":60,"Velocity":33,"Duration":1251519,"SoundDuration":1251519,"Delta":77911886},{"NoteNumber":72,"Velocity":40,"Duration":822764,"SoundDuration":822764,"Delta":77911886},{"NoteNumber":41,"Velocity":33,"Duration":205691,"SoundDuration":205691,"Delta":77911886},{"NoteNumber":48,"Velocity":28,"Duration":205691,"SoundDuration":205691,"Delta":78117577},{"NoteNumber":57,"Velocity":29,"Duration":205691,"SoundDuration":205691,"Delta":78323268},{"NoteNumber":48,"Velocity":28,"Duration":205691,"SoundDuration":205691,"Delta":78528959},{"NoteNumber":69,"Velocity":34,"Duration":419822,"SoundDuration":419822,"Delta":78734650},{"NoteNumber":53,"Velocity":36,"Duration":214377,"SoundDuration":214377,"Delta":78734650},{"NoteNumber":58,"Velocity":33,"Duration":1268175,"SoundDuration":1268175,"Delta":79163405},{"NoteNumber":73,"Velocity":51,"Duration":419229,"SoundDuration":419229,"Delta":79163405},{"NoteNumber":36,"Velocity":33,"Duration":209614,"SoundDuration":209614,"Delta":79163405},{"NoteNumber":48,"Velocity":29,"Duration":209614,"SoundDuration":209614,"Delta":79373019},{"NoteNumber":72,"Velocity":36,"Duration":209944,"SoundDuration":209944,"Delta":79582634},{"NoteNumber":55,"Velocity":29,"Duration":209944,"SoundDuration":209944,"Delta":79582634},{"NoteNumber":70,"Velocity":31,"Duration":211516,"SoundDuration":211516,"Delta":79792579},{"NoteNumber":48,"Velocity":29,"Duration":211516,"SoundDuration":211516,"Delta":79792579},{"NoteNumber":69,"Velocity":35,"Duration":212993,"SoundDuration":212993,"Delta":80004096},{"NoteNumber":52,"Velocity":36,"Duration":212993,"SoundDuration":212993,"Delta":80004096},{"NoteNumber":67,"Velocity":29,"Duration":214490,"SoundDuration":214490,"Delta":80217089},{"NoteNumber":57,"Velocity":28,"Duration":431561,"SoundDuration":431561,"Delta":80431580},{"NoteNumber":65,"Velocity":35,"Duration":647343,"SoundDuration":647343,"Delta":80431580},{"NoteNumber":41,"Velocity":33,"Duration":215781,"SoundDuration":215781,"Delta":80431580},{"NoteNumber":48,"Velocity":26,"Duration":215780,"SoundDuration":215780,"Delta":80647361},{"NoteNumber":57,"Velocity":26,"Duration":215781,"SoundDuration":215781,"Delta":80863142},{"NoteNumber":67,"Velocity":38,"Duration":215780,"SoundDuration":215780,"Delta":81078923},{"NoteNumber":48,"Velocity":26,"Duration":215780,"SoundDuration":215780,"Delta":81078923},{"NoteNumber":69,"Velocity":43,"Duration":215781,"SoundDuration":215781,"Delta":81294704},{"NoteNumber":53,"Velocity":30,"Duration":215781,"SoundDuration":215781,"Delta":81294704},{"NoteNumber":70,"Velocity":46,"Duration":215780,"SoundDuration":215780,"Delta":81510485},{"NoteNumber":69,"Velocity":54,"Duration":425984,"SoundDuration":425984,"Delta":81726266},{"NoteNumber":63,"Velocity":54,"Duration":1269884,"SoundDuration":1269884,"Delta":81726266},{"NoteNumber":41,"Velocity":44,"Duration":212992,"SoundDuration":212992,"Delta":81726266},{"NoteNumber":53,"Velocity":36,"Duration":212992,"SoundDuration":212992,"Delta":81939259},{"NoteNumber":78,"Velocity":59,"Duration":417914,"SoundDuration":417914,"Delta":82152251},{"NoteNumber":60,"Velocity":38,"Duration":208957,"SoundDuration":208957,"Delta":82152251},{"NoteNumber":53,"Velocity":36,"Duration":208957,"SoundDuration":208957,"Delta":82361209},{"NoteNumber":77,"Velocity":54,"Duration":425984,"SoundDuration":425984,"Delta":82570166},{"NoteNumber":60,"Velocity":44,"Duration":212992,"SoundDuration":212992,"Delta":82570166},{"NoteNumber":65,"Velocity":52,"Duration":1266379,"SoundDuration":1266379,"Delta":82996151},{"NoteNumber":75,"Velocity":52,"Duration":833416,"SoundDuration":833416,"Delta":82996151},{"NoteNumber":46,"Velocity":39,"Duration":208957,"SoundDuration":208957,"Delta":82996151},{"NoteNumber":53,"Velocity":26,"Duration":208957,"SoundDuration":208957,"Delta":83205109},{"NoteNumber":58,"Velocity":26,"Duration":207860,"SoundDuration":207860,"Delta":83414066},{"NoteNumber":53,"Velocity":26,"Duration":207640,"SoundDuration":207640,"Delta":83621927},{"NoteNumber":74,"Velocity":49,"Duration":423942,"SoundDuration":423942,"Delta":83829568},{"NoteNumber":62,"Velocity":31,"Duration":216481,"SoundDuration":216481,"Delta":83829568},{"NoteNumber":69,"Velocity":50,"Duration":428754,"SoundDuration":428754,"Delta":84262531},{"NoteNumber":60,"Velocity":50,"Duration":1272654,"SoundDuration":1272654,"Delta":84262531},{"NoteNumber":38,"Velocity":40,"Duration":214377,"SoundDuration":214377,"Delta":84262531},{"NoteNumber":50,"Velocity":30,"Duration":214377,"SoundDuration":214377,"Delta":84476908},{"NoteNumber":75,"Velocity":56,"Duration":417914,"SoundDuration":417914,"Delta":84691286},{"NoteNumber":54,"Velocity":36,"Duration":208957,"SoundDuration":208957,"Delta":84691286},{"NoteNumber":50,"Velocity":29,"Duration":208957,"SoundDuration":208957,"Delta":84900243},{"NoteNumber":74,"Velocity":51,"Duration":425984,"SoundDuration":425984,"Delta":85109201},{"NoteNumber":57,"Velocity":38,"Duration":212992,"SoundDuration":212992,"Delta":85109201},{"NoteNumber":62,"Velocity":33,"Duration":1263770,"SoundDuration":1263770,"Delta":85535186},{"NoteNumber":72,"Velocity":48,"Duration":833878,"SoundDuration":833878,"Delta":85535186},{"NoteNumber":43,"Velocity":36,"Duration":210955,"SoundDuration":210955,"Delta":85535186},{"NoteNumber":50,"Velocity":26,"Duration":207640,"SoundDuration":207640,"Delta":85746141},{"NoteNumber":55,"Velocity":26,"Duration":207641,"SoundDuration":207641,"Delta":85953782},{"NoteNumber":50,"Velocity":26,"Duration":207640,"SoundDuration":207640,"Delta":86161423},{"NoteNumber":70,"Velocity":45,"Duration":420935,"SoundDuration":420935,"Delta":86369064},{"NoteNumber":58,"Velocity":31,"Duration":214945,"SoundDuration":214945,"Delta":86369064},{"NoteNumber":60,"Velocity":43,"Duration":1250114,"SoundDuration":1250114,"Delta":86798956},{"NoteNumber":72,"Velocity":43,"Duration":822764,"SoundDuration":822764,"Delta":86798956},{"NoteNumber":40,"Velocity":36,"Duration":205691,"SoundDuration":205691,"Delta":86798956},{"NoteNumber":48,"Velocity":27,"Duration":205691,"SoundDuration":205691,"Delta":87004647},{"NoteNumber":52,"Velocity":28,"Duration":205691,"SoundDuration":205691,"Delta":87210338},{"NoteNumber":48,"Velocity":28,"Duration":205691,"SoundDuration":205691,"Delta":87416029},{"NoteNumber":70,"Velocity":36,"Duration":418446,"SoundDuration":418446,"Delta":87621720},{"NoteNumber":55,"Velocity":35,"Duration":213674,"SoundDuration":213674,"Delta":87621720},{"NoteNumber":60,"Velocity":43,"Duration":1251380,"SoundDuration":1251380,"Delta":88049070},{"NoteNumber":72,"Velocity":43,"Duration":822764,"SoundDuration":822764,"Delta":88049070},{"NoteNumber":41,"Velocity":33,"Duration":205691,"SoundDuration":205691,"Delta":88049070},{"NoteNumber":48,"Velocity":27,"Duration":205691,"SoundDuration":205691,"Delta":88254761},{"NoteNumber":57,"Velocity":29,"Duration":205691,"SoundDuration":205691,"Delta":88460452},{"NoteNumber":48,"Velocity":26,"Duration":205691,"SoundDuration":205691,"Delta":88666143},{"NoteNumber":69,"Velocity":34,"Duration":419822,"SoundDuration":419822,"Delta":88871834},{"NoteNumber":53,"Velocity":36,"Duration":214377,"SoundDuration":214377,"Delta":88871834},{"NoteNumber":58,"Velocity":33,"Duration":1292850,"SoundDuration":1292850,"Delta":89300450},{"NoteNumber":73,"Velocity":51,"Duration":427231,"SoundDuration":427231,"Delta":89300450},{"NoteNumber":36,"Velocity":33,"Duration":213674,"SoundDuration":213674,"Delta":89300450},{"NoteNumber":48,"Velocity":26,"Duration":213556,"SoundDuration":213556,"Delta":89514125},{"NoteNumber":72,"Velocity":36,"Duration":214608,"SoundDuration":214608,"Delta":89727682},{"NoteNumber":55,"Velocity":29,"Duration":214608,"SoundDuration":214608,"Delta":89727682},{"NoteNumber":70,"Velocity":31,"Duration":215779,"SoundDuration":215779,"Delta":89942290},{"NoteNumber":48,"Velocity":27,"Duration":215779,"SoundDuration":215779,"Delta":89942290},{"NoteNumber":69,"Velocity":35,"Duration":216962,"SoundDuration":216962,"Delta":90158069},{"NoteNumber":52,"Velocity":36,"Duration":216962,"SoundDuration":216962,"Delta":90158069},{"NoteNumber":67,"Velocity":29,"Duration":218269,"SoundDuration":218269,"Delta":90375031},{"NoteNumber":65,"Velocity":35,"Duration":438725,"SoundDuration":438725,"Delta":90593301},{"NoteNumber":57,"Velocity":31,"Duration":438725,"SoundDuration":438725,"Delta":90593301},{"NoteNumber":41,"Velocity":33,"Duration":219362,"SoundDuration":219362,"Delta":90593301},{"NoteNumber":48,"Velocity":23,"Duration":219362,"SoundDuration":219362,"Delta":90812663},{"NoteNumber":53,"Velocity":26,"Duration":219362,"SoundDuration":219362,"Delta":91032026},{"NoteNumber":48,"Velocity":23,"Duration":219362,"SoundDuration":219362,"Delta":91251388},{"NoteNumber":57,"Velocity":23,"Duration":229884,"SoundDuration":229884,"Delta":91470751},{"NoteNumber":60,"Velocity":35,"Duration":1365539,"SoundDuration":1365539,"Delta":91930521},{"NoteNumber":69,"Velocity":35,"Duration":1365539,"SoundDuration":1365539,"Delta":91930521},{"NoteNumber":41,"Velocity":33,"Duration":219522,"SoundDuration":219522,"Delta":91930521},{"NoteNumber":48,"Velocity":20,"Duration":219523,"SoundDuration":219523,"Delta":92150044},{"NoteNumber":53,"Velocity":26,"Duration":219522,"SoundDuration":219522,"Delta":92369567},{"NoteNumber":48,"Velocity":20,"Duration":219522,"SoundDuration":219522,"Delta":92589090},{"NoteNumber":57,"Velocity":25,"Duration":243724,"SoundDuration":243724,"Delta":92808613},{"NoteNumber":64,"Velocity":32,"Duration":1387964,"SoundDuration":1387964,"Delta":93296061},{"NoteNumber":60,"Velocity":32,"Duration":1387964,"SoundDuration":1387964,"Delta":93296061},{"NoteNumber":69,"Velocity":32,"Duration":1387964,"SoundDuration":1387964,"Delta":93296061},{"NoteNumber":40,"Velocity":31,"Duration":218754,"SoundDuration":218754,"Delta":93296061},{"NoteNumber":48,"Velocity":18,"Duration":218754,"SoundDuration":218754,"Delta":93514815},{"NoteNumber":52,"Velocity":23,"Duration":227600,"SoundDuration":227600,"Delta":93733570},{"NoteNumber":48,"Velocity":18,"Duration":227600,"SoundDuration":227600,"Delta":93961170},{"NoteNumber":57,"Velocity":25,"Duration":247626,"SoundDuration":247626,"Delta":94188771},{"NoteNumber":64,"Velocity":30,"Duration":1698934,"SoundDuration":1698934,"Delta":94684025},{"NoteNumber":68,"Velocity":30,"Duration":1698934,"SoundDuration":1698934,"Delta":94684025},{"NoteNumber":59,"Velocity":30,"Duration":1698934,"SoundDuration":1698934,"Delta":94684025},{"NoteNumber":40,"Velocity":29,"Duration":225150,"SoundDuration":225150,"Delta":94684025},{"NoteNumber":47,"Velocity":20,"Duration":235422,"SoundDuration":235422,"Delta":94909175},{"NoteNumber":52,"Velocity":25,"Duration":246685,"SoundDuration":246685,"Delta":95144598},{"NoteNumber":47,"Velocity":18,"Duration":259075,"SoundDuration":259075,"Delta":95391283},{"NoteNumber":56,"Velocity":20,"Duration":366300,"SoundDuration":366300,"Delta":95650358},{"NoteNumber":69,"Velocity":42,"Duration":119360,"SoundDuration":119360,"Delta":96382959},{"NoteNumber":45,"Velocity":38,"Duration":358080,"SoundDuration":358080,"Delta":96382959},{"NoteNumber":71,"Velocity":39,"Duration":119360,"SoundDuration":119360,"Delta":96502320},{"NoteNumber":72,"Velocity":39,"Duration":119360,"SoundDuration":119360,"Delta":96621680},{"NoteNumber":71,"Velocity":42,"Duration":119360,"SoundDuration":119360,"Delta":96741040},{"NoteNumber":72,"Velocity":39,"Duration":119360,"SoundDuration":119360,"Delta":96860401},{"NoteNumber":74,"Velocity":39,"Duration":122421,"SoundDuration":122421,"Delta":96979761},{"NoteNumber":76,"Velocity":55,"Duration":358080,"SoundDuration":358080,"Delta":97102182},{"NoteNumber":64,"Velocity":42,"Duration":119360,"SoundDuration":119360,"Delta":97102182},{"NoteNumber":66,"Velocity":37,"Duration":119360,"SoundDuration":119360,"Delta":97221543},{"NoteNumber":68,"Velocity":37,"Duration":119360,"SoundDuration":119360,"Delta":97340903},{"NoteNumber":69,"Velocity":42,"Duration":119360,"SoundDuration":119360,"Delta":97460263},{"NoteNumber":66,"Velocity":44,"Duration":119360,"SoundDuration":119360,"Delta":97460263},{"NoteNumber":71,"Velocity":38,"Duration":119360,"SoundDuration":119360,"Delta":97579624},{"NoteNumber":68,"Velocity":38,"Duration":119360,"SoundDuration":119360,"Delta":97579624},{"NoteNumber":72,"Velocity":38,"Duration":119360,"SoundDuration":119360,"Delta":97698984},{"NoteNumber":69,"Velocity":38,"Duration":119360,"SoundDuration":119360,"Delta":97698984},{"NoteNumber":71,"Velocity":59,"Duration":362048,"SoundDuration":362048,"Delta":97818344},{"NoteNumber":72,"Velocity":37,"Duration":119360,"SoundDuration":119360,"Delta":97937705},{"NoteNumber":74,"Velocity":37,"Duration":123327,"SoundDuration":123327,"Delta":98057065},{"NoteNumber":76,"Velocity":55,"Duration":362048,"SoundDuration":362048,"Delta":98180392},{"NoteNumber":64,"Velocity":42,"Duration":119360,"SoundDuration":119360,"Delta":98180392},{"NoteNumber":66,"Velocity":39,"Duration":119360,"SoundDuration":119360,"Delta":98299753},{"NoteNumber":68,"Velocity":39,"Duration":123327,"SoundDuration":123327,"Delta":98419113},{"NoteNumber":69,"Velocity":42,"Duration":119360,"SoundDuration":119360,"Delta":98542440},{"NoteNumber":66,"Velocity":42,"Duration":119360,"SoundDuration":119360,"Delta":98542440},{"NoteNumber":71,"Velocity":38,"Duration":119360,"SoundDuration":119360,"Delta":98661801},{"NoteNumber":68,"Velocity":38,"Duration":119360,"SoundDuration":119360,"Delta":98661801},{"NoteNumber":72,"Velocity":38,"Duration":121973,"SoundDuration":121973,"Delta":98781161},{"NoteNumber":69,"Velocity":38,"Duration":121973,"SoundDuration":121973,"Delta":98781161},{"NoteNumber":71,"Velocity":56,"Duration":360694,"SoundDuration":360694,"Delta":98903135},{"NoteNumber":72,"Velocity":38,"Duration":119360,"SoundDuration":119360,"Delta":99022495},{"NoteNumber":74,"Velocity":38,"Duration":121973,"SoundDuration":121973,"Delta":99141855},{"NoteNumber":72,"Velocity":42,"Duration":119360,"SoundDuration":119360,"Delta":99263829},{"NoteNumber":69,"Velocity":42,"Duration":119360,"SoundDuration":119360,"Delta":99263829},{"NoteNumber":74,"Velocity":40,"Duration":119360,"SoundDuration":119360,"Delta":99383189},{"NoteNumber":71,"Velocity":42,"Duration":119360,"SoundDuration":119360,"Delta":99383189},{"NoteNumber":76,"Velocity":42,"Duration":119360,"SoundDuration":119360,"Delta":99502550},{"NoteNumber":72,"Velocity":43,"Duration":119360,"SoundDuration":119360,"Delta":99502550},{"NoteNumber":77,"Velocity":42,"Duration":119467,"SoundDuration":119467,"Delta":99621910},{"NoteNumber":74,"Velocity":44,"Duration":119467,"SoundDuration":119467,"Delta":99621910},{"NoteNumber":79,"Velocity":45,"Duration":120113,"SoundDuration":120113,"Delta":99741378},{"NoteNumber":76,"Velocity":45,"Duration":120113,"SoundDuration":120113,"Delta":99741378},{"NoteNumber":81,"Velocity":49,"Duration":120875,"SoundDuration":120875,"Delta":99861491},{"NoteNumber":77,"Velocity":47,"Duration":120875,"SoundDuration":120875,"Delta":99861491},{"NoteNumber":79,"Velocity":51,"Duration":119789,"SoundDuration":119789,"Delta":99982367},{"NoteNumber":76,"Velocity":51,"Duration":119789,"SoundDuration":119789,"Delta":99982367},{"NoteNumber":77,"Velocity":47,"Duration":119789,"SoundDuration":119789,"Delta":100102156},{"NoteNumber":74,"Velocity":46,"Duration":119789,"SoundDuration":119789,"Delta":100102156},{"NoteNumber":76,"Velocity":45,"Duration":119789,"SoundDuration":119789,"Delta":100221945},{"NoteNumber":72,"Velocity":43,"Duration":119789,"SoundDuration":119789,"Delta":100221945},{"NoteNumber":74,"Velocity":46,"Duration":119789,"SoundDuration":119789,"Delta":100341735},{"NoteNumber":71,"Velocity":46,"Duration":119789,"SoundDuration":119789,"Delta":100341735},{"NoteNumber":72,"Velocity":44,"Duration":119789,"SoundDuration":119789,"Delta":100461524},{"NoteNumber":69,"Velocity":44,"Duration":119789,"SoundDuration":119789,"Delta":100461524},{"NoteNumber":71,"Velocity":40,"Duration":127795,"SoundDuration":127795,"Delta":100581313},{"NoteNumber":67,"Velocity":42,"Duration":127795,"SoundDuration":127795,"Delta":100581313},{"NoteNumber":69,"Velocity":47,"Duration":124610,"SoundDuration":124610,"Delta":100709109},{"NoteNumber":65,"Velocity":50,"Duration":140186,"SoundDuration":140186,"Delta":100709109},{"NoteNumber":71,"Velocity":42,"Duration":124610,"SoundDuration":124610,"Delta":100833720},{"NoteNumber":72,"Velocity":42,"Duration":124610,"SoundDuration":124610,"Delta":100958330},{"NoteNumber":71,"Velocity":45,"Duration":123076,"SoundDuration":123076,"Delta":101082941},{"NoteNumber":60,"Velocity":47,"Duration":138461,"SoundDuration":138461,"Delta":101082941},{"NoteNumber":69,"Velocity":40,"Duration":123077,"SoundDuration":123077,"Delta":101206018},{"NoteNumber":67,"Velocity":40,"Duration":123076,"SoundDuration":123076,"Delta":101329095},{"NoteNumber":65,"Velocity":45,"Duration":123839,"SoundDuration":123839,"Delta":101452172},{"NoteNumber":57,"Velocity":42,"Duration":139318,"SoundDuration":139318,"Delta":101452172},{"NoteNumber":64,"Velocity":39,"Duration":123838,"SoundDuration":123838,"Delta":101576011},{"NoteNumber":63,"Velocity":39,"Duration":125392,"SoundDuration":125392,"Delta":101699850},{"NoteNumber":64,"Velocity":48,"Duration":363095,"SoundDuration":363095,"Delta":101825242},{"NoteNumber":56,"Velocity":45,"Duration":121766,"SoundDuration":121766,"Delta":101825242},{"NoteNumber":54,"Velocity":40,"Duration":121028,"SoundDuration":121028,"Delta":101947008},{"NoteNumber":52,"Velocity":40,"Duration":120300,"SoundDuration":120300,"Delta":102068037},{"NoteNumber":51,"Velocity":44,"Duration":120120,"SoundDuration":120120,"Delta":102188338},{"NoteNumber":49,"Velocity":39,"Duration":121397,"SoundDuration":121397,"Delta":102308458},{"NoteNumber":47,"Velocity":40,"Duration":123327,"SoundDuration":123327,"Delta":102429856},{"NoteNumber":59,"Velocity":42,"Duration":119760,"SoundDuration":119760,"Delta":102553183},{"NoteNumber":57,"Velocity":54,"Duration":359280,"SoundDuration":359280,"Delta":102553183},{"NoteNumber":61,"Velocity":38,"Duration":119760,"SoundDuration":119760,"Delta":102672944},{"NoteNumber":63,"Velocity":38,"Duration":119760,"SoundDuration":119760,"Delta":102792704},{"NoteNumber":64,"Velocity":45,"Duration":121211,"SoundDuration":121211,"Delta":102912464},{"NoteNumber":56,"Velocity":45,"Duration":121211,"SoundDuration":121211,"Delta":102912464},{"NoteNumber":66,"Velocity":41,"Duration":121211,"SoundDuration":121211,"Delta":103033676},{"NoteNumber":54,"Velocity":41,"Duration":121211,"SoundDuration":121211,"Delta":103033676},{"NoteNumber":68,"Velocity":41,"Duration":123327,"SoundDuration":123327,"Delta":103154888},{"NoteNumber":52,"Velocity":41,"Duration":123327,"SoundDuration":123327,"Delta":103154888},{"NoteNumber":69,"Velocity":50,"Duration":362048,"SoundDuration":362048,"Delta":103278216},{"NoteNumber":51,"Velocity":45,"Duration":119360,"SoundDuration":119360,"Delta":103278216},{"NoteNumber":49,"Velocity":39,"Duration":119360,"SoundDuration":119360,"Delta":103397576},{"NoteNumber":47,"Velocity":39,"Duration":123327,"SoundDuration":123327,"Delta":103516936},{"NoteNumber":59,"Velocity":42,"Duration":119047,"SoundDuration":119047,"Delta":103640264},{"NoteNumber":57,"Velocity":54,"Duration":357142,"SoundDuration":357142,"Delta":103640264},{"NoteNumber":61,"Velocity":38,"Duration":119047,"SoundDuration":119047,"Delta":103759311},{"NoteNumber":63,"Velocity":38,"Duration":119047,"SoundDuration":119047,"Delta":103878359},{"NoteNumber":64,"Velocity":45,"Duration":120481,"SoundDuration":120481,"Delta":103997407},{"NoteNumber":56,"Velocity":45,"Duration":120481,"SoundDuration":120481,"Delta":103997407},{"NoteNumber":66,"Velocity":40,"Duration":120482,"SoundDuration":120482,"Delta":104117889},{"NoteNumber":54,"Velocity":39,"Duration":120482,"SoundDuration":120482,"Delta":104117889},{"NoteNumber":68,"Velocity":40,"Duration":123785,"SoundDuration":123785,"Delta":104238371},{"NoteNumber":52,"Velocity":39,"Duration":123785,"SoundDuration":123785,"Delta":104238371},{"NoteNumber":69,"Velocity":49,"Duration":361593,"SoundDuration":361593,"Delta":104362156},{"NoteNumber":51,"Velocity":44,"Duration":119360,"SoundDuration":119360,"Delta":104362156},{"NoteNumber":49,"Velocity":37,"Duration":119360,"SoundDuration":119360,"Delta":104481516},{"NoteNumber":47,"Velocity":37,"Duration":122872,"SoundDuration":122872,"Delta":104600877},{"NoteNumber":59,"Velocity":42,"Duration":119360,"SoundDuration":119360,"Delta":104723749},{"NoteNumber":57,"Velocity":54,"Duration":358080,"SoundDuration":358080,"Delta":104723749},{"NoteNumber":61,"Velocity":39,"Duration":119360,"SoundDuration":119360,"Delta":104843110},{"NoteNumber":63,"Velocity":39,"Duration":119360,"SoundDuration":119360,"Delta":104962470},{"NoteNumber":64,"Velocity":45,"Duration":120481,"SoundDuration":120481,"Delta":105081830},{"NoteNumber":56,"Velocity":42,"Duration":120481,"SoundDuration":120481,"Delta":105081830},{"NoteNumber":66,"Velocity":39,"Duration":120482,"SoundDuration":120482,"Delta":105202312},{"NoteNumber":54,"Velocity":36,"Duration":120482,"SoundDuration":120482,"Delta":105202312},{"NoteNumber":68,"Velocity":40,"Duration":123327,"SoundDuration":123327,"Delta":105322794},{"NoteNumber":52,"Velocity":36,"Duration":123327,"SoundDuration":123327,"Delta":105322794},{"NoteNumber":66,"Velocity":52,"Duration":119360,"SoundDuration":119360,"Delta":105446122},{"NoteNumber":54,"Velocity":45,"Duration":119360,"SoundDuration":119360,"Delta":105446122},{"NoteNumber":68,"Velocity":46,"Duration":119360,"SoundDuration":119360,"Delta":105565482},{"NoteNumber":52,"Velocity":38,"Duration":119360,"SoundDuration":119360,"Delta":105565482},{"NoteNumber":69,"Velocity":47,"Duration":122421,"SoundDuration":122421,"Delta":105684842},{"NoteNumber":51,"Velocity":39,"Duration":122421,"SoundDuration":122421,"Delta":105684842},{"NoteNumber":68,"Velocity":57,"Duration":119360,"SoundDuration":119360,"Delta":105807264},{"NoteNumber":52,"Velocity":46,"Duration":119360,"SoundDuration":119360,"Delta":105807264},{"NoteNumber":69,"Velocity":52,"Duration":119360,"SoundDuration":119360,"Delta":105926624},{"NoteNumber":51,"Velocity":42,"Duration":119360,"SoundDuration":119360,"Delta":105926624},{"NoteNumber":71,"Velocity":54,"Duration":122421,"SoundDuration":122421,"Delta":106045984},{"NoteNumber":50,"Velocity":42,"Duration":122421,"SoundDuration":122421,"Delta":106045984},{"NoteNumber":69,"Velocity":62,"Duration":118941,"SoundDuration":118941,"Delta":106168406},{"NoteNumber":52,"Velocity":51,"Duration":118941,"SoundDuration":118941,"Delta":106168406},{"NoteNumber":71,"Velocity":55,"Duration":119150,"SoundDuration":119150,"Delta":106287347},{"NoteNumber":50,"Velocity":48,"Duration":119150,"SoundDuration":119150,"Delta":106287347},{"NoteNumber":72,"Velocity":59,"Duration":119467,"SoundDuration":119467,"Delta":106406498},{"NoteNumber":48,"Velocity":49,"Duration":119467,"SoundDuration":119467,"Delta":106406498},{"NoteNumber":71,"Velocity":69,"Duration":119789,"SoundDuration":119789,"Delta":106525965},{"NoteNumber":50,"Velocity":55,"Duration":119789,"SoundDuration":119789,"Delta":106525965},{"NoteNumber":72,"Velocity":59,"Duration":120221,"SoundDuration":120221,"Delta":106645755},{"NoteNumber":48,"Velocity":52,"Duration":120221,"SoundDuration":120221,"Delta":106645755},{"NoteNumber":74,"Velocity":65,"Duration":120547,"SoundDuration":120547,"Delta":106765976},{"NoteNumber":47,"Velocity":52,"Duration":120547,"SoundDuration":120547,"Delta":106765976},{"NoteNumber":72,"Velocity":76,"Duration":120875,"SoundDuration":120875,"Delta":106886524},{"NoteNumber":48,"Velocity":63,"Duration":120875,"SoundDuration":120875,"Delta":106886524},{"NoteNumber":74,"Velocity":66,"Duration":121205,"SoundDuration":121205,"Delta":107007399},{"NoteNumber":47,"Velocity":57,"Duration":121205,"SoundDuration":121205,"Delta":107007399},{"NoteNumber":76,"Velocity":73,"Duration":121536,"SoundDuration":121536,"Delta":107128604},{"NoteNumber":45,"Velocity":58,"Duration":121536,"SoundDuration":121536,"Delta":107128604},{"NoteNumber":77,"Velocity":90,"Duration":121973,"SoundDuration":121973,"Delta":107250141},{"NoteNumber":44,"Velocity":77,"Duration":121973,"SoundDuration":121973,"Delta":107250141},{"NoteNumber":76,"Velocity":77,"Duration":121973,"SoundDuration":121973,"Delta":107372114},{"NoteNumber":45,"Velocity":67,"Duration":121973,"SoundDuration":121973,"Delta":107372114},{"NoteNumber":74,"Velocity":79,"Duration":126119,"SoundDuration":126119,"Delta":107494088},{"NoteNumber":47,"Velocity":67,"Duration":126119,"SoundDuration":126119,"Delta":107494088},{"NoteNumber":83,"Velocity":88,"Duration":182960,"SoundDuration":182960,"Delta":107620207},{"NoteNumber":77,"Velocity":88,"Duration":121973,"SoundDuration":121973,"Delta":107620207},{"NoteNumber":44,"Velocity":75,"Duration":121973,"SoundDuration":121973,"Delta":107620207},{"NoteNumber":38,"Velocity":75,"Duration":182960,"SoundDuration":182960,"Delta":107620207},{"NoteNumber":76,"Velocity":79,"Duration":121973,"SoundDuration":121973,"Delta":107742181},{"NoteNumber":45,"Velocity":66,"Duration":121973,"SoundDuration":121973,"Delta":107742181},{"NoteNumber":74,"Velocity":79,"Duration":122872,"SoundDuration":122872,"Delta":107864155},{"NoteNumber":47,"Velocity":66,"Duration":122872,"SoundDuration":122872,"Delta":107864155},{"NoteNumber":77,"Velocity":92,"Duration":121973,"SoundDuration":121973,"Delta":107987027},{"NoteNumber":83,"Velocity":92,"Duration":182960,"SoundDuration":182960,"Delta":107987027},{"NoteNumber":44,"Velocity":76,"Duration":121973,"SoundDuration":121973,"Delta":107987027},{"NoteNumber":38,"Velocity":76,"Duration":182960,"SoundDuration":182960,"Delta":107987027},{"NoteNumber":76,"Velocity":80,"Duration":121973,"SoundDuration":121973,"Delta":108109001},{"NoteNumber":45,"Velocity":69,"Duration":121973,"SoundDuration":121973,"Delta":108109001},{"NoteNumber":74,"Velocity":80,"Duration":123327,"SoundDuration":123327,"Delta":108230975},{"NoteNumber":47,"Velocity":69,"Duration":123327,"SoundDuration":123327,"Delta":108230975},{"NoteNumber":83,"Velocity":93,"Duration":184049,"SoundDuration":184049,"Delta":108354302},{"NoteNumber":77,"Velocity":93,"Duration":122699,"SoundDuration":122699,"Delta":108354302},{"NoteNumber":38,"Velocity":78,"Duration":184049,"SoundDuration":184049,"Delta":108354302},{"NoteNumber":44,"Velocity":78,"Duration":122699,"SoundDuration":122699,"Delta":108354302},{"NoteNumber":76,"Velocity":84,"Duration":122699,"SoundDuration":122699,"Delta":108477001},{"NoteNumber":45,"Velocity":72,"Duration":122699,"SoundDuration":122699,"Delta":108477001},{"NoteNumber":74,"Velocity":86,"Duration":126182,"SoundDuration":126182,"Delta":108599701},{"NoteNumber":47,"Velocity":74,"Duration":126182,"SoundDuration":126182,"Delta":108599701},{"NoteNumber":77,"Velocity":97,"Duration":123456,"SoundDuration":123456,"Delta":108725884},{"NoteNumber":83,"Velocity":97,"Duration":185185,"SoundDuration":185185,"Delta":108725884},{"NoteNumber":38,"Velocity":81,"Duration":185185,"SoundDuration":185185,"Delta":108725884},{"NoteNumber":44,"Velocity":81,"Duration":123456,"SoundDuration":123456,"Delta":108725884},{"NoteNumber":76,"Velocity":86,"Duration":123456,"SoundDuration":123456,"Delta":108849340},{"NoteNumber":45,"Velocity":74,"Duration":123456,"SoundDuration":123456,"Delta":108849340},{"NoteNumber":74,"Velocity":87,"Duration":126582,"SoundDuration":126582,"Delta":108972797},{"NoteNumber":47,"Velocity":76,"Duration":126582,"SoundDuration":126582,"Delta":108972797},{"NoteNumber":83,"Velocity":100,"Duration":185758,"SoundDuration":185758,"Delta":109099379},{"NoteNumber":77,"Velocity":100,"Duration":123839,"SoundDuration":123839,"Delta":109099379},{"NoteNumber":44,"Velocity":84,"Duration":123839,"SoundDuration":123839,"Delta":109099379},{"NoteNumber":38,"Velocity":84,"Duration":185758,"SoundDuration":185758,"Delta":109099379},{"NoteNumber":76,"Velocity":88,"Duration":123839,"SoundDuration":123839,"Delta":109223218},{"NoteNumber":45,"Velocity":76,"Duration":123839,"SoundDuration":123839,"Delta":109223218},{"NoteNumber":74,"Velocity":91,"Duration":131578,"SoundDuration":131578,"Delta":109347057},{"NoteNumber":47,"Velocity":78,"Duration":131578,"SoundDuration":131578,"Delta":109347057},{"NoteNumber":77,"Velocity":106,"Duration":124223,"SoundDuration":124223,"Delta":109478636},{"NoteNumber":83,"Velocity":106,"Duration":186335,"SoundDuration":186335,"Delta":109478636},{"NoteNumber":43,"Velocity":99,"Duration":186335,"SoundDuration":186335,"Delta":109478636},{"NoteNumber":31,"Velocity":99,"Duration":186335,"SoundDuration":186335,"Delta":109478636},{"NoteNumber":75,"Velocity":79,"Duration":124223,"SoundDuration":124223,"Delta":109602860},{"NoteNumber":74,"Velocity":67,"Duration":124223,"SoundDuration":124223,"Delta":109727084},{"NoteNumber":77,"Velocity":75,"Duration":125786,"SoundDuration":125786,"Delta":109851307},{"NoteNumber":83,"Velocity":75,"Duration":188678,"SoundDuration":188678,"Delta":109851307},{"NoteNumber":75,"Velocity":64,"Duration":125785,"SoundDuration":125785,"Delta":109977093},{"NoteNumber":74,"Velocity":57,"Duration":125786,"SoundDuration":125786,"Delta":110102879},{"NoteNumber":77,"Velocity":63,"Duration":127388,"SoundDuration":127388,"Delta":110228665},{"NoteNumber":83,"Velocity":63,"Duration":191083,"SoundDuration":191083,"Delta":110228665},{"NoteNumber":75,"Velocity":56,"Duration":126742,"SoundDuration":126742,"Delta":110356054},{"NoteNumber":74,"Velocity":49,"Duration":140844,"SoundDuration":140844,"Delta":110482797},{"NoteNumber":80,"Velocity":61,"Duration":124610,"SoundDuration":124610,"Delta":110623642},{"NoteNumber":79,"Velocity":54,"Duration":124610,"SoundDuration":124610,"Delta":110748252},{"NoteNumber":77,"Velocity":50,"Duration":128204,"SoundDuration":128204,"Delta":110872863},{"NoteNumber":79,"Velocity":56,"Duration":125392,"SoundDuration":125392,"Delta":111001068},{"NoteNumber":77,"Velocity":46,"Duration":125392,"SoundDuration":125392,"Delta":111126460},{"NoteNumber":75,"Velocity":46,"Duration":129449,"SoundDuration":129449,"Delta":111251852},{"NoteNumber":77,"Velocity":55,"Duration":126582,"SoundDuration":126582,"Delta":111381302},{"NoteNumber":75,"Velocity":45,"Duration":126582,"SoundDuration":126582,"Delta":111507884},{"NoteNumber":74,"Velocity":45,"Duration":129032,"SoundDuration":129032,"Delta":111634467},{"NoteNumber":72,"Velocity":50,"Duration":123456,"SoundDuration":123456,"Delta":111763499},{"NoteNumber":74,"Velocity":46,"Duration":122982,"SoundDuration":122982,"Delta":111886956},{"NoteNumber":75,"Velocity":46,"Duration":122511,"SoundDuration":122511,"Delta":112009938},{"NoteNumber":74,"Velocity":50,"Duration":122044,"SoundDuration":122044,"Delta":112132450},{"NoteNumber":75,"Velocity":46,"Duration":121352,"SoundDuration":121352,"Delta":112254494},{"NoteNumber":77,"Velocity":46,"Duration":123456,"SoundDuration":123456,"Delta":112375846},{"NoteNumber":79,"Velocity":65,"Duration":360360,"SoundDuration":360360,"Delta":112499303},{"NoteNumber":67,"Velocity":50,"Duration":120120,"SoundDuration":120120,"Delta":112499303},{"NoteNumber":69,"Velocity":44,"Duration":120120,"SoundDuration":120120,"Delta":112619423},{"NoteNumber":71,"Velocity":44,"Duration":120120,"SoundDuration":120120,"Delta":112739543},{"NoteNumber":72,"Velocity":50,"Duration":119047,"SoundDuration":119047,"Delta":112859663},{"NoteNumber":69,"Velocity":52,"Duration":119047,"SoundDuration":119047,"Delta":112859663},{"NoteNumber":74,"Velocity":45,"Duration":119047,"SoundDuration":119047,"Delta":112978711},{"NoteNumber":71,"Velocity":45,"Duration":119047,"SoundDuration":119047,"Delta":112978711},{"NoteNumber":75,"Velocity":45,"Duration":119047,"SoundDuration":119047,"Delta":113097758},{"NoteNumber":72,"Velocity":45,"Duration":119047,"SoundDuration":119047,"Delta":113097758},{"NoteNumber":74,"Velocity":70,"Duration":361422,"SoundDuration":361422,"Delta":113216806},{"NoteNumber":75,"Velocity":44,"Duration":119047,"SoundDuration":119047,"Delta":113335854},{"NoteNumber":77,"Velocity":44,"Duration":123327,"SoundDuration":123327,"Delta":113454901},{"NoteNumber":79,"Velocity":65,"Duration":362048,"SoundDuration":362048,"Delta":113578229},{"NoteNumber":67,"Velocity":50,"Duration":119360,"SoundDuration":119360,"Delta":113578229},{"NoteNumber":69,"Velocity":46,"Duration":119360,"SoundDuration":119360,"Delta":113697589},{"NoteNumber":71,"Velocity":46,"Duration":123327,"SoundDuration":123327,"Delta":113816949},{"NoteNumber":72,"Velocity":50,"Duration":119360,"SoundDuration":119360,"Delta":113940277},{"NoteNumber":69,"Velocity":50,"Duration":119360,"SoundDuration":119360,"Delta":113940277},{"NoteNumber":74,"Velocity":45,"Duration":119360,"SoundDuration":119360,"Delta":114059637},{"NoteNumber":71,"Velocity":45,"Duration":119360,"SoundDuration":119360,"Delta":114059637},{"NoteNumber":75,"Velocity":45,"Duration":121973,"SoundDuration":121973,"Delta":114178997},{"NoteNumber":72,"Velocity":45,"Duration":121973,"SoundDuration":121973,"Delta":114178997},{"NoteNumber":74,"Velocity":66,"Duration":360694,"SoundDuration":360694,"Delta":114300971},{"NoteNumber":75,"Velocity":45,"Duration":119360,"SoundDuration":119360,"Delta":114420331},{"NoteNumber":77,"Velocity":45,"Duration":121973,"SoundDuration":121973,"Delta":114539692},{"NoteNumber":75,"Velocity":50,"Duration":119360,"SoundDuration":119360,"Delta":114661665},{"NoteNumber":72,"Velocity":50,"Duration":119360,"SoundDuration":119360,"Delta":114661665},{"NoteNumber":77,"Velocity":48,"Duration":119360,"SoundDuration":119360,"Delta":114781026},{"NoteNumber":74,"Velocity":50,"Duration":119360,"SoundDuration":119360,"Delta":114781026},{"NoteNumber":79,"Velocity":50,"Duration":119360,"SoundDuration":119360,"Delta":114900386},{"NoteNumber":75,"Velocity":51,"Duration":119360,"SoundDuration":119360,"Delta":114900386},{"NoteNumber":80,"Velocity":50,"Duration":119467,"SoundDuration":119467,"Delta":115019746},{"NoteNumber":77,"Velocity":52,"Duration":119467,"SoundDuration":119467,"Delta":115019746},{"NoteNumber":82,"Velocity":54,"Duration":120113,"SoundDuration":120113,"Delta":115139214},{"NoteNumber":79,"Velocity":53,"Duration":120113,"SoundDuration":120113,"Delta":115139214},{"NoteNumber":84,"Velocity":58,"Duration":120875,"SoundDuration":120875,"Delta":115259327},{"NoteNumber":80,"Velocity":56,"Duration":120875,"SoundDuration":120875,"Delta":115259327},{"NoteNumber":82,"Velocity":61,"Duration":119789,"SoundDuration":119789,"Delta":115380203},{"NoteNumber":79,"Velocity":60,"Duration":119789,"SoundDuration":119789,"Delta":115380203},{"NoteNumber":80,"Velocity":56,"Duration":119789,"SoundDuration":119789,"Delta":115499992},{"NoteNumber":77,"Velocity":55,"Duration":119789,"SoundDuration":119789,"Delta":115499992},{"NoteNumber":79,"Velocity":53,"Duration":119789,"SoundDuration":119789,"Delta":115619782},{"NoteNumber":75,"Velocity":51,"Duration":119789,"SoundDuration":119789,"Delta":115619782},{"NoteNumber":77,"Velocity":55,"Duration":119789,"SoundDuration":119789,"Delta":115739571},{"NoteNumber":74,"Velocity":55,"Duration":119789,"SoundDuration":119789,"Delta":115739571},{"NoteNumber":75,"Velocity":52,"Duration":119789,"SoundDuration":119789,"Delta":115859360},{"NoteNumber":72,"Velocity":52,"Duration":119789,"SoundDuration":119789,"Delta":115859360},{"NoteNumber":74,"Velocity":48,"Duration":127795,"SoundDuration":127795,"Delta":115979150},{"NoteNumber":70,"Velocity":50,"Duration":127795,"SoundDuration":127795,"Delta":115979150},{"NoteNumber":72,"Velocity":56,"Duration":123839,"SoundDuration":123839,"Delta":116106945},{"NoteNumber":68,"Velocity":55,"Duration":139318,"SoundDuration":139318,"Delta":116106945},{"NoteNumber":74,"Velocity":50,"Duration":123838,"SoundDuration":123838,"Delta":116230784},{"NoteNumber":75,"Velocity":50,"Duration":123839,"SoundDuration":123839,"Delta":116354623},{"NoteNumber":74,"Velocity":53,"Duration":123076,"SoundDuration":123076,"Delta":116478462},{"NoteNumber":63,"Velocity":52,"Duration":138461,"SoundDuration":138461,"Delta":116478462},{"NoteNumber":72,"Velocity":48,"Duration":123077,"SoundDuration":123077,"Delta":116601539},{"NoteNumber":70,"Velocity":48,"Duration":123076,"SoundDuration":123076,"Delta":116724616},{"NoteNumber":68,"Velocity":53,"Duration":123839,"SoundDuration":123839,"Delta":116847693},{"NoteNumber":60,"Velocity":50,"Duration":139318,"SoundDuration":139318,"Delta":116847693},{"NoteNumber":67,"Velocity":47,"Duration":123839,"SoundDuration":123839,"Delta":116971532},{"NoteNumber":66,"Velocity":47,"Duration":125391,"SoundDuration":125391,"Delta":117095371},{"NoteNumber":67,"Velocity":54,"Duration":181818,"SoundDuration":181818,"Delta":117220763},{"NoteNumber":59,"Velocity":54,"Duration":121211,"SoundDuration":121211,"Delta":117220763},{"NoteNumber":57,"Velocity":49,"Duration":121212,"SoundDuration":121212,"Delta":117341975},{"NoteNumber":55,"Velocity":49,"Duration":123327,"SoundDuration":123327,"Delta":117463187},{"NoteNumber":54,"Velocity":53,"Duration":119360,"SoundDuration":119360,"Delta":117586515},{"NoteNumber":52,"Velocity":47,"Duration":119360,"SoundDuration":119360,"Delta":117705875},{"NoteNumber":50,"Velocity":47,"Duration":123327,"SoundDuration":123327,"Delta":117825235},{"NoteNumber":62,"Velocity":50,"Duration":119047,"SoundDuration":119047,"Delta":117948563},{"NoteNumber":60,"Velocity":64,"Duration":357142,"SoundDuration":357142,"Delta":117948563},{"NoteNumber":64,"Velocity":45,"Duration":119047,"SoundDuration":119047,"Delta":118067610},{"NoteNumber":66,"Velocity":45,"Duration":119047,"SoundDuration":119047,"Delta":118186658},{"NoteNumber":67,"Velocity":54,"Duration":120481,"SoundDuration":120481,"Delta":118305706},{"NoteNumber":59,"Velocity":54,"Duration":120481,"SoundDuration":120481,"Delta":118305706},{"NoteNumber":69,"Velocity":48,"Duration":120482,"SoundDuration":120482,"Delta":118426188},{"NoteNumber":57,"Velocity":47,"Duration":120482,"SoundDuration":120482,"Delta":118426188},{"NoteNumber":71,"Velocity":48,"Duration":123785,"SoundDuration":123785,"Delta":118546670},{"NoteNumber":55,"Velocity":47,"Duration":123785,"SoundDuration":123785,"Delta":118546670},{"NoteNumber":72,"Velocity":58,"Duration":361593,"SoundDuration":361593,"Delta":118670455},{"NoteNumber":54,"Velocity":52,"Duration":119360,"SoundDuration":119360,"Delta":118670455},{"NoteNumber":52,"Velocity":44,"Duration":119360,"SoundDuration":119360,"Delta":118789815},{"NoteNumber":50,"Velocity":44,"Duration":122872,"SoundDuration":122872,"Delta":118909176},{"NoteNumber":62,"Velocity":50,"Duration":119360,"SoundDuration":119360,"Delta":119032048},{"NoteNumber":60,"Velocity":64,"Duration":358080,"SoundDuration":358080,"Delta":119032048},{"NoteNumber":64,"Velocity":46,"Duration":119360,"SoundDuration":119360,"Delta":119151409},{"NoteNumber":66,"Velocity":46,"Duration":119360,"SoundDuration":119360,"Delta":119270769},{"NoteNumber":67,"Velocity":54,"Duration":119360,"SoundDuration":119360,"Delta":119390129},{"NoteNumber":59,"Velocity":54,"Duration":119360,"SoundDuration":119360,"Delta":119390129},{"NoteNumber":69,"Velocity":48,"Duration":119360,"SoundDuration":119360,"Delta":119509490},{"NoteNumber":57,"Velocity":47,"Duration":119360,"SoundDuration":119360,"Delta":119509490},{"NoteNumber":71,"Velocity":48,"Duration":123785,"SoundDuration":123785,"Delta":119628850},{"NoteNumber":55,"Velocity":47,"Duration":123785,"SoundDuration":123785,"Delta":119628850},{"NoteNumber":72,"Velocity":58,"Duration":361593,"SoundDuration":361593,"Delta":119752635},{"NoteNumber":54,"Velocity":52,"Duration":119360,"SoundDuration":119360,"Delta":119752635},{"NoteNumber":52,"Velocity":44,"Duration":119360,"SoundDuration":119360,"Delta":119871996},{"NoteNumber":50,"Velocity":44,"Duration":122872,"SoundDuration":122872,"Delta":119991356},{"NoteNumber":62,"Velocity":50,"Duration":119360,"SoundDuration":119360,"Delta":120114229},{"NoteNumber":60,"Velocity":64,"Duration":358080,"SoundDuration":358080,"Delta":120114229},{"NoteNumber":64,"Velocity":46,"Duration":119360,"SoundDuration":119360,"Delta":120233589},{"NoteNumber":66,"Velocity":46,"Duration":119360,"SoundDuration":119360,"Delta":120352949},{"NoteNumber":67,"Velocity":54,"Duration":120481,"SoundDuration":120481,"Delta":120472310},{"NoteNumber":59,"Velocity":50,"Duration":120481,"SoundDuration":120481,"Delta":120472310},{"NoteNumber":69,"Velocity":47,"Duration":120482,"SoundDuration":120482,"Delta":120592792},{"NoteNumber":57,"Velocity":43,"Duration":120482,"SoundDuration":120482,"Delta":120592792},{"NoteNumber":71,"Velocity":47,"Duration":123327,"SoundDuration":123327,"Delta":120713274},{"NoteNumber":55,"Velocity":43,"Duration":123327,"SoundDuration":123327,"Delta":120713274},{"NoteNumber":69,"Velocity":60,"Duration":119360,"SoundDuration":119360,"Delta":120836601},{"NoteNumber":57,"Velocity":52,"Duration":119360,"SoundDuration":119360,"Delta":120836601},{"NoteNumber":71,"Velocity":53,"Duration":119360,"SoundDuration":119360,"Delta":120955961},{"NoteNumber":55,"Velocity":44,"Duration":119360,"SoundDuration":119360,"Delta":120955961},{"NoteNumber":72,"Velocity":53,"Duration":122421,"SoundDuration":122421,"Delta":121075322},{"NoteNumber":54,"Velocity":44,"Duration":122421,"SoundDuration":122421,"Delta":121075322},{"NoteNumber":71,"Velocity":64,"Duration":119360,"SoundDuration":119360,"Delta":121197743},{"NoteNumber":55,"Velocity":52,"Duration":119360,"SoundDuration":119360,"Delta":121197743},{"NoteNumber":72,"Velocity":58,"Duration":119360,"SoundDuration":119360,"Delta":121317103},{"NoteNumber":54,"Velocity":47,"Duration":119360,"SoundDuration":119360,"Delta":121317103},{"NoteNumber":74,"Velocity":60,"Duration":122421,"SoundDuration":122421,"Delta":121436464},{"NoteNumber":53,"Velocity":47,"Duration":122421,"SoundDuration":122421,"Delta":121436464},{"NoteNumber":72,"Velocity":68,"Duration":118941,"SoundDuration":118941,"Delta":121558885},{"NoteNumber":52,"Velocity":56,"Duration":118941,"SoundDuration":118941,"Delta":121558885},{"NoteNumber":74,"Velocity":60,"Duration":119150,"SoundDuration":119150,"Delta":121677826},{"NoteNumber":50,"Velocity":52,"Duration":119150,"SoundDuration":119150,"Delta":121677826},{"NoteNumber":76,"Velocity":63,"Duration":119467,"SoundDuration":119467,"Delta":121796977},{"NoteNumber":48,"Velocity":53,"Duration":119467,"SoundDuration":119467,"Delta":121796977},{"NoteNumber":74,"Velocity":73,"Duration":119789,"SoundDuration":119789,"Delta":121916445},{"NoteNumber":50,"Velocity":58,"Duration":119789,"SoundDuration":119789,"Delta":121916445},{"NoteNumber":76,"Velocity":63,"Duration":120221,"SoundDuration":120221,"Delta":122036234},{"NoteNumber":48,"Velocity":55,"Duration":120221,"SoundDuration":120221,"Delta":122036234},{"NoteNumber":77,"Velocity":68,"Duration":120547,"SoundDuration":120547,"Delta":122156455},{"NoteNumber":47,"Velocity":55,"Duration":120547,"SoundDuration":120547,"Delta":122156455},{"NoteNumber":76,"Velocity":79,"Duration":121350,"SoundDuration":121350,"Delta":122277003},{"NoteNumber":48,"Velocity":65,"Duration":121350,"SoundDuration":121350,"Delta":122277003},{"NoteNumber":77,"Velocity":68,"Duration":123364,"SoundDuration":123364,"Delta":122398353},{"NoteNumber":47,"Velocity":59,"Duration":123364,"SoundDuration":123364,"Delta":122398353},{"NoteNumber":79,"Velocity":74,"Duration":129869,"SoundDuration":129869,"Delta":122521717},{"NoteNumber":46,"Velocity":59,"Duration":129869,"SoundDuration":129869,"Delta":122521717},{"NoteNumber":60,"Velocity":97,"Duration":119047,"SoundDuration":119047,"Delta":122651587},{"NoteNumber":45,"Velocity":83,"Duration":89285,"SoundDuration":89285,"Delta":122651587},{"NoteNumber":65,"Velocity":77,"Duration":119403,"SoundDuration":119403,"Delta":122770635},{"NoteNumber":69,"Velocity":78,"Duration":119850,"SoundDuration":119850,"Delta":122890038},{"NoteNumber":72,"Velocity":85,"Duration":120210,"SoundDuration":120210,"Delta":123009888},{"NoteNumber":57,"Velocity":78,"Duration":120210,"SoundDuration":120210,"Delta":123009888},{"NoteNumber":77,"Velocity":74,"Duration":120664,"SoundDuration":120664,"Delta":123130099},{"NoteNumber":53,"Velocity":68,"Duration":120664,"SoundDuration":120664,"Delta":123130099},{"NoteNumber":81,"Velocity":77,"Duration":121028,"SoundDuration":121028,"Delta":123250763},{"NoteNumber":48,"Velocity":68,"Duration":121028,"SoundDuration":121028,"Delta":123250763},{"NoteNumber":84,"Velocity":91,"Duration":122051,"SoundDuration":122051,"Delta":123371792},{"NoteNumber":45,"Velocity":82,"Duration":122051,"SoundDuration":122051,"Delta":123371792},{"NoteNumber":89,"Velocity":79,"Duration":125597,"SoundDuration":125597,"Delta":123493843},{"NoteNumber":41,"Velocity":72,"Duration":125597,"SoundDuration":125597,"Delta":123493843},{"NoteNumber":93,"Velocity":79,"Duration":129354,"SoundDuration":129354,"Delta":123619441},{"NoteNumber":36,"Velocity":79,"Duration":129354,"SoundDuration":129354,"Delta":123619441},{"NoteNumber":96,"Velocity":108,"Duration":101010,"SoundDuration":101010,"Delta":123748795},{"NoteNumber":33,"Velocity":93,"Duration":101010,"SoundDuration":101010,"Delta":123748795},{"NoteNumber":71,"Velocity":79,"Duration":206896,"SoundDuration":206896,"Delta":124152835},{"NoteNumber":79,"Velocity":79,"Duration":206896,"SoundDuration":206896,"Delta":124152835},{"NoteNumber":83,"Velocity":93,"Duration":206896,"SoundDuration":206896,"Delta":124152835},{"NoteNumber":76,"Velocity":79,"Duration":206896,"SoundDuration":206896,"Delta":124152835},{"NoteNumber":52,"Velocity":70,"Duration":206896,"SoundDuration":206896,"Delta":124152835},{"NoteNumber":47,"Velocity":70,"Duration":206896,"SoundDuration":206896,"Delta":124152835},{"NoteNumber":55,"Velocity":70,"Duration":206896,"SoundDuration":206896,"Delta":124152835},{"NoteNumber":59,"Velocity":83,"Duration":206896,"SoundDuration":206896,"Delta":124152835},{"NoteNumber":75,"Velocity":74,"Duration":211587,"SoundDuration":211587,"Delta":124566628},{"NoteNumber":83,"Velocity":88,"Duration":211587,"SoundDuration":211587,"Delta":124566628},{"NoteNumber":71,"Velocity":74,"Duration":211587,"SoundDuration":211587,"Delta":124566628},{"NoteNumber":78,"Velocity":74,"Duration":211587,"SoundDuration":211587,"Delta":124566628},{"NoteNumber":59,"Velocity":75,"Duration":211587,"SoundDuration":211587,"Delta":124566628},{"NoteNumber":54,"Velocity":63,"Duration":211587,"SoundDuration":211587,"Delta":124566628},{"NoteNumber":51,"Velocity":63,"Duration":211587,"SoundDuration":211587,"Delta":124566628},{"NoteNumber":47,"Velocity":63,"Duration":211587,"SoundDuration":211587,"Delta":124566628},{"NoteNumber":76,"Velocity":67,"Duration":121211,"SoundDuration":121211,"Delta":124990230},{"NoteNumber":67,"Velocity":59,"Duration":121211,"SoundDuration":121211,"Delta":124990230},{"NoteNumber":78,"Velocity":56,"Duration":121212,"SoundDuration":121212,"Delta":125111442},{"NoteNumber":66,"Velocity":53,"Duration":121212,"SoundDuration":121212,"Delta":125111442},{"NoteNumber":79,"Velocity":56,"Duration":123327,"SoundDuration":123327,"Delta":125232654},{"NoteNumber":64,"Velocity":53,"Duration":123327,"SoundDuration":123327,"Delta":125232654},{"NoteNumber":81,"Velocity":65,"Duration":362048,"SoundDuration":362048,"Delta":125355981},{"NoteNumber":63,"Velocity":58,"Duration":119360,"SoundDuration":119360,"Delta":125355981},{"NoteNumber":61,"Velocity":52,"Duration":119360,"SoundDuration":119360,"Delta":125475341},{"NoteNumber":59,"Velocity":52,"Duration":123327,"SoundDuration":123327,"Delta":125594702},{"NoteNumber":71,"Velocity":66,"Duration":119047,"SoundDuration":119047,"Delta":125718029},{"NoteNumber":69,"Velocity":67,"Duration":357142,"SoundDuration":357142,"Delta":125718029},{"NoteNumber":73,"Velocity":54,"Duration":119047,"SoundDuration":119047,"Delta":125837077},{"NoteNumber":75,"Velocity":53,"Duration":119047,"SoundDuration":119047,"Delta":125956124},{"NoteNumber":76,"Velocity":64,"Duration":120481,"SoundDuration":120481,"Delta":126075172},{"NoteNumber":67,"Velocity":61,"Duration":120481,"SoundDuration":120481,"Delta":126075172},{"NoteNumber":78,"Velocity":55,"Duration":120482,"SoundDuration":120482,"Delta":126195654},{"NoteNumber":66,"Velocity":51,"Duration":120482,"SoundDuration":120482,"Delta":126195654},{"NoteNumber":79,"Velocity":55,"Duration":123785,"SoundDuration":123785,"Delta":126316136},{"NoteNumber":64,"Velocity":51,"Duration":123785,"SoundDuration":123785,"Delta":126316136},{"NoteNumber":81,"Velocity":65,"Duration":361593,"SoundDuration":361593,"Delta":126439921},{"NoteNumber":63,"Velocity":51,"Duration":119360,"SoundDuration":119360,"Delta":126439921},{"NoteNumber":61,"Velocity":54,"Duration":119360,"SoundDuration":119360,"Delta":126559282},{"NoteNumber":59,"Velocity":54,"Duration":122872,"SoundDuration":122872,"Delta":126678642},{"NoteNumber":71,"Velocity":64,"Duration":119360,"SoundDuration":119360,"Delta":126801515},{"NoteNumber":69,"Velocity":68,"Duration":358080,"SoundDuration":358080,"Delta":126801515},{"NoteNumber":73,"Velocity":58,"Duration":119360,"SoundDuration":119360,"Delta":126920875},{"NoteNumber":75,"Velocity":58,"Duration":119360,"SoundDuration":119360,"Delta":127040235},{"NoteNumber":76,"Velocity":68,"Duration":118941,"SoundDuration":118941,"Delta":127159596},{"NoteNumber":67,"Velocity":60,"Duration":118941,"SoundDuration":118941,"Delta":127159596},{"NoteNumber":78,"Velocity":60,"Duration":119150,"SoundDuration":119150,"Delta":127278537},{"NoteNumber":66,"Velocity":54,"Duration":119150,"SoundDuration":119150,"Delta":127278537},{"NoteNumber":79,"Velocity":63,"Duration":119467,"SoundDuration":119467,"Delta":127397688},{"NoteNumber":64,"Velocity":57,"Duration":119467,"SoundDuration":119467,"Delta":127397688},{"NoteNumber":78,"Velocity":73,"Duration":119789,"SoundDuration":119789,"Delta":127517156},{"NoteNumber":63,"Velocity":64,"Duration":119789,"SoundDuration":119789,"Delta":127517156},{"NoteNumber":79,"Velocity":63,"Duration":120221,"SoundDuration":120221,"Delta":127636945},{"NoteNumber":64,"Velocity":56,"Duration":120221,"SoundDuration":120221,"Delta":127636945},{"NoteNumber":81,"Velocity":68,"Duration":120547,"SoundDuration":120547,"Delta":127757166},{"NoteNumber":66,"Velocity":56,"Duration":120547,"SoundDuration":120547,"Delta":127757166},{"NoteNumber":79,"Velocity":79,"Duration":121350,"SoundDuration":121350,"Delta":127877714},{"NoteNumber":64,"Velocity":72,"Duration":121350,"SoundDuration":121350,"Delta":127877714},{"NoteNumber":81,"Velocity":68,"Duration":123364,"SoundDuration":123364,"Delta":127999064},{"NoteNumber":66,"Velocity":64,"Duration":123364,"SoundDuration":123364,"Delta":127999064},{"NoteNumber":83,"Velocity":74,"Duration":129869,"SoundDuration":129869,"Delta":128122428},{"NoteNumber":67,"Velocity":64,"Duration":129869,"SoundDuration":129869,"Delta":128122428},{"NoteNumber":60,"Velocity":97,"Duration":119047,"SoundDuration":119047,"Delta":128252298},{"NoteNumber":65,"Velocity":77,"Duration":119403,"SoundDuration":119403,"Delta":128371346},{"NoteNumber":69,"Velocity":77,"Duration":119850,"SoundDuration":119850,"Delta":128490749},{"NoteNumber":72,"Velocity":91,"Duration":120210,"SoundDuration":120210,"Delta":128610599},{"NoteNumber":57,"Velocity":82,"Duration":120210,"SoundDuration":120210,"Delta":128610599},{"NoteNumber":77,"Velocity":78,"Duration":120663,"SoundDuration":120663,"Delta":128730809},{"NoteNumber":53,"Velocity":73,"Duration":120663,"SoundDuration":120663,"Delta":128730809},{"NoteNumber":81,"Velocity":78,"Duration":121029,"SoundDuration":121029,"Delta":128851473},{"NoteNumber":48,"Velocity":73,"Duration":121029,"SoundDuration":121029,"Delta":128851473},{"NoteNumber":84,"Velocity":96,"Duration":122051,"SoundDuration":122051,"Delta":128972502},{"NoteNumber":45,"Velocity":89,"Duration":122051,"SoundDuration":122051,"Delta":128972502},{"NoteNumber":89,"Velocity":79,"Duration":125597,"SoundDuration":125597,"Delta":129094554},{"NoteNumber":41,"Velocity":79,"Duration":125597,"SoundDuration":125597,"Delta":129094554},{"NoteNumber":93,"Velocity":79,"Duration":129354,"SoundDuration":129354,"Delta":129220152},{"NoteNumber":36,"Velocity":79,"Duration":129354,"SoundDuration":129354,"Delta":129220152},{"NoteNumber":96,"Velocity":100,"Duration":101010,"SoundDuration":101010,"Delta":129349506},{"NoteNumber":33,"Velocity":93,"Duration":101010,"SoundDuration":101010,"Delta":129349506},{"NoteNumber":79,"Velocity":79,"Duration":206896,"SoundDuration":206896,"Delta":129753546},{"NoteNumber":83,"Velocity":93,"Duration":206896,"SoundDuration":206896,"Delta":129753546},{"NoteNumber":76,"Velocity":79,"Duration":206896,"SoundDuration":206896,"Delta":129753546},{"NoteNumber":71,"Velocity":79,"Duration":206896,"SoundDuration":206896,"Delta":129753546},{"NoteNumber":52,"Velocity":70,"Duration":206896,"SoundDuration":206896,"Delta":129753546},{"NoteNumber":47,"Velocity":70,"Duration":206896,"SoundDuration":206896,"Delta":129753546},{"NoteNumber":59,"Velocity":83,"Duration":206896,"SoundDuration":206896,"Delta":129753546},{"NoteNumber":55,"Velocity":70,"Duration":206896,"SoundDuration":206896,"Delta":129753546},{"NoteNumber":71,"Velocity":74,"Duration":223880,"SoundDuration":223880,"Delta":130167339},{"NoteNumber":78,"Velocity":74,"Duration":223880,"SoundDuration":223880,"Delta":130167339},{"NoteNumber":75,"Velocity":74,"Duration":223880,"SoundDuration":223880,"Delta":130167339},{"NoteNumber":83,"Velocity":88,"Duration":223880,"SoundDuration":223880,"Delta":130167339},{"NoteNumber":59,"Velocity":75,"Duration":223880,"SoundDuration":223880,"Delta":130167339},{"NoteNumber":54,"Velocity":63,"Duration":223880,"SoundDuration":223880,"Delta":130167339},{"NoteNumber":51,"Velocity":63,"Duration":223880,"SoundDuration":223880,"Delta":130167339},{"NoteNumber":47,"Velocity":63,"Duration":223880,"SoundDuration":223880,"Delta":130167339},{"NoteNumber":83,"Velocity":88,"Duration":1090910,"SoundDuration":1090910,"Delta":130615100},{"NoteNumber":88,"Velocity":104,"Duration":1090910,"SoundDuration":1090910,"Delta":130615100},{"NoteNumber":79,"Velocity":88,"Duration":1090910,"SoundDuration":1090910,"Delta":130615100},{"NoteNumber":76,"Velocity":88,"Duration":1090910,"SoundDuration":1090910,"Delta":130615100},{"NoteNumber":43,"Velocity":75,"Duration":1090910,"SoundDuration":1090910,"Delta":130615100},{"NoteNumber":40,"Velocity":75,"Duration":1090910,"SoundDuration":1090910,"Delta":130615100},{"NoteNumber":52,"Velocity":89,"Duration":1090910,"SoundDuration":1090910,"Delta":130615100},{"NoteNumber":47,"Velocity":75,"Duration":1090910,"SoundDuration":1090910,"Delta":130615100},{"NoteNumber":75,"Velocity":74,"Duration":72580,"SoundDuration":72580,"Delta":131924192},{"NoteNumber":83,"Velocity":88,"Duration":72580,"SoundDuration":72580,"Delta":131924192},{"NoteNumber":47,"Velocity":65,"Duration":72580,"SoundDuration":72580,"Delta":131924192},{"NoteNumber":59,"Velocity":77,"Duration":72580,"SoundDuration":72580,"Delta":131924192},{"NoteNumber":82,"Velocity":75,"Duration":74999,"SoundDuration":74999,"Delta":132117741},{"NoteNumber":76,"Velocity":63,"Duration":74999,"SoundDuration":74999,"Delta":132117741},{"NoteNumber":48,"Velocity":56,"Duration":74999,"SoundDuration":74999,"Delta":132117741},{"NoteNumber":60,"Velocity":67,"Duration":74999,"SoundDuration":74999,"Delta":132117741},{"NoteNumber":83,"Velocity":84,"Duration":72580,"SoundDuration":72580,"Delta":132317741},{"NoteNumber":75,"Velocity":71,"Duration":72580,"SoundDuration":72580,"Delta":132317741},{"NoteNumber":47,"Velocity":63,"Duration":72580,"SoundDuration":72580,"Delta":132317741},{"NoteNumber":59,"Velocity":75,"Duration":72580,"SoundDuration":72580,"Delta":132317741},{"NoteNumber":82,"Velocity":75,"Duration":74999,"SoundDuration":74999,"Delta":132511289},{"NoteNumber":76,"Velocity":63,"Duration":74999,"SoundDuration":74999,"Delta":132511289},{"NoteNumber":48,"Velocity":57,"Duration":74999,"SoundDuration":74999,"Delta":132511289},{"NoteNumber":60,"Velocity":68,"Duration":74999,"SoundDuration":74999,"Delta":132511289},{"NoteNumber":75,"Velocity":72,"Duration":86872,"SoundDuration":86872,"Delta":132711289},{"NoteNumber":83,"Velocity":85,"Duration":86872,"SoundDuration":86872,"Delta":132711289},{"NoteNumber":47,"Velocity":63,"Duration":86872,"SoundDuration":86872,"Delta":132711289},{"NoteNumber":59,"Velocity":75,"Duration":86872,"SoundDuration":86872,"Delta":132711289},{"NoteNumber":74,"Velocity":88,"Duration":1107010,"SoundDuration":1107010,"Delta":133174609},{"NoteNumber":86,"Velocity":104,"Duration":1107010,"SoundDuration":1107010,"Delta":133174609},{"NoteNumber":78,"Velocity":88,"Duration":1107010,"SoundDuration":1107010,"Delta":133174609},{"NoteNumber":81,"Velocity":88,"Duration":1107010,"SoundDuration":1107010,"Delta":133174609},{"NoteNumber":38,"Velocity":74,"Duration":1107010,"SoundDuration":1107010,"Delta":133174609},{"NoteNumber":45,"Velocity":74,"Duration":1107010,"SoundDuration":1107010,"Delta":133174609},{"NoteNumber":50,"Velocity":88,"Duration":1107010,"SoundDuration":1107010,"Delta":133174609},{"NoteNumber":42,"Velocity":74,"Duration":1107010,"SoundDuration":1107010,"Delta":133174609},{"NoteNumber":73,"Velocity":74,"Duration":72815,"SoundDuration":72815,"Delta":134495905},{"NoteNumber":81,"Velocity":88,"Duration":72815,"SoundDuration":72815,"Delta":134495905},{"NoteNumber":57,"Velocity":77,"Duration":72815,"SoundDuration":72815,"Delta":134495905},{"NoteNumber":45,"Velocity":65,"Duration":72815,"SoundDuration":72815,"Delta":134495905},{"NoteNumber":74,"Velocity":64,"Duration":74750,"SoundDuration":74750,"Delta":134690080},{"NoteNumber":80,"Velocity":76,"Duration":74750,"SoundDuration":74750,"Delta":134690080},{"NoteNumber":58,"Velocity":66,"Duration":74750,"SoundDuration":74750,"Delta":134690080},{"NoteNumber":46,"Velocity":56,"Duration":74750,"SoundDuration":74750,"Delta":134690080},{"NoteNumber":81,"Velocity":83,"Duration":72815,"SoundDuration":72815,"Delta":134889415},{"NoteNumber":73,"Velocity":70,"Duration":72815,"SoundDuration":72815,"Delta":134889415},{"NoteNumber":57,"Velocity":73,"Duration":72815,"SoundDuration":72815,"Delta":134889415},{"NoteNumber":45,"Velocity":62,"Duration":72815,"SoundDuration":72815,"Delta":134889415},{"NoteNumber":74,"Velocity":63,"Duration":74750,"SoundDuration":74750,"Delta":135083590},{"NoteNumber":80,"Velocity":75,"Duration":74750,"SoundDuration":74750,"Delta":135083590},{"NoteNumber":58,"Velocity":66,"Duration":74750,"SoundDuration":74750,"Delta":135083590},{"NoteNumber":46,"Velocity":56,"Duration":74750,"SoundDuration":74750,"Delta":135083590},{"NoteNumber":81,"Velocity":87,"Duration":86872,"SoundDuration":86872,"Delta":135282926},{"NoteNumber":73,"Velocity":73,"Duration":86872,"SoundDuration":86872,"Delta":135282926},{"NoteNumber":57,"Velocity":73,"Duration":86872,"SoundDuration":86872,"Delta":135282926},{"NoteNumber":45,"Velocity":62,"Duration":86872,"SoundDuration":86872,"Delta":135282926},{"NoteNumber":78,"Velocity":83,"Duration":885607,"SoundDuration":885607,"Delta":135746246},{"NoteNumber":81,"Velocity":83,"Duration":885607,"SoundDuration":885607,"Delta":135746246},{"NoteNumber":72,"Velocity":83,"Duration":885607,"SoundDuration":885607,"Delta":135746246},{"NoteNumber":84,"Velocity":98,"Duration":885607,"SoundDuration":885607,"Delta":135746246},{"NoteNumber":51,"Velocity":89,"Duration":885607,"SoundDuration":885607,"Delta":135746246},{"NoteNumber":39,"Velocity":75,"Duration":885607,"SoundDuration":885607,"Delta":135746246},{"NoteNumber":71,"Velocity":76,"Duration":221402,"SoundDuration":221402,"Delta":136631854},{"NoteNumber":83,"Velocity":90,"Duration":221402,"SoundDuration":221402,"Delta":136631854},{"NoteNumber":79,"Velocity":76,"Duration":221402,"SoundDuration":221402,"Delta":136631854},{"NoteNumber":76,"Velocity":76,"Duration":221402,"SoundDuration":221402,"Delta":136631854},{"NoteNumber":52,"Velocity":80,"Duration":221402,"SoundDuration":221402,"Delta":136631854},{"NoteNumber":40,"Velocity":68,"Duration":221402,"SoundDuration":221402,"Delta":136631854},{"NoteNumber":69,"Velocity":76,"Duration":217391,"SoundDuration":217391,"Delta":137074658},{"NoteNumber":77,"Velocity":76,"Duration":217391,"SoundDuration":217391,"Delta":137074658},{"NoteNumber":72,"Velocity":76,"Duration":217391,"SoundDuration":217391,"Delta":137074658},{"NoteNumber":81,"Velocity":90,"Duration":217391,"SoundDuration":217391,"Delta":137074658},{"NoteNumber":53,"Velocity":77,"Duration":217391,"SoundDuration":217391,"Delta":137074658},{"NoteNumber":41,"Velocity":65,"Duration":217391,"SoundDuration":217391,"Delta":137074658},{"NoteNumber":72,"Velocity":80,"Duration":221402,"SoundDuration":221402,"Delta":137509441},{"NoteNumber":84,"Velocity":95,"Duration":221402,"SoundDuration":221402,"Delta":137509441},{"NoteNumber":75,"Velocity":80,"Duration":221402,"SoundDuration":221402,"Delta":137509441},{"NoteNumber":81,"Velocity":80,"Duration":221402,"SoundDuration":221402,"Delta":137509441},{"NoteNumber":54,"Velocity":83,"Duration":221402,"SoundDuration":221402,"Delta":137509441},{"NoteNumber":42,"Velocity":70,"Duration":221402,"SoundDuration":221402,"Delta":137509441},{"NoteNumber":79,"Velocity":77,"Duration":221402,"SoundDuration":221402,"Delta":137952245},{"NoteNumber":71,"Velocity":77,"Duration":221402,"SoundDuration":221402,"Delta":137952245},{"NoteNumber":76,"Velocity":77,"Duration":221402,"SoundDuration":221402,"Delta":137952245},{"NoteNumber":83,"Velocity":91,"Duration":221402,"SoundDuration":221402,"Delta":137952245},{"NoteNumber":55,"Velocity":79,"Duration":221402,"SoundDuration":221402,"Delta":137952245},{"NoteNumber":43,"Velocity":67,"Duration":221402,"SoundDuration":221402,"Delta":137952245},{"NoteNumber":81,"Velocity":94,"Duration":223880,"SoundDuration":223880,"Delta":138395049},{"NoteNumber":78,"Velocity":79,"Duration":223880,"SoundDuration":223880,"Delta":138395049},{"NoteNumber":72,"Velocity":79,"Duration":223880,"SoundDuration":223880,"Delta":138395049},{"NoteNumber":57,"Velocity":84,"Duration":223880,"SoundDuration":223880,"Delta":138395049},{"NoteNumber":45,"Velocity":71,"Duration":223880,"SoundDuration":223880,"Delta":138395049},{"NoteNumber":71,"Velocity":76,"Duration":227272,"SoundDuration":227272,"Delta":138842810},{"NoteNumber":76,"Velocity":76,"Duration":227272,"SoundDuration":227272,"Delta":138842810},{"NoteNumber":79,"Velocity":90,"Duration":227272,"SoundDuration":227272,"Delta":138842810},{"NoteNumber":59,"Velocity":78,"Duration":227272,"SoundDuration":227272,"Delta":138842810},{"NoteNumber":47,"Velocity":66,"Duration":227272,"SoundDuration":227272,"Delta":138842810},{"NoteNumber":71,"Velocity":76,"Duration":234375,"SoundDuration":234375,"Delta":139297355},{"NoteNumber":75,"Velocity":90,"Duration":234375,"SoundDuration":234375,"Delta":139297355},{"NoteNumber":78,"Velocity":90,"Duration":234375,"SoundDuration":234375,"Delta":139297355},{"NoteNumber":59,"Velocity":75,"Duration":234375,"SoundDuration":234375,"Delta":139297355},{"NoteNumber":47,"Velocity":63,"Duration":234375,"SoundDuration":234375,"Delta":139297355},{"NoteNumber":64,"Velocity":89,"Duration":1173813,"SoundDuration":1173813,"Delta":139766105},{"NoteNumber":55,"Velocity":66,"Duration":1173813,"SoundDuration":1173813,"Delta":139766105},{"NoteNumber":59,"Velocity":66,"Duration":1173813,"SoundDuration":1173813,"Delta":139766105},{"NoteNumber":52,"Velocity":66,"Duration":1173813,"SoundDuration":1173813,"Delta":139766105},{"NoteNumber":66,"Velocity":83,"Duration":97087,"SoundDuration":97087,"Delta":139960280},{"NoteNumber":67,"Velocity":75,"Duration":97087,"SoundDuration":97087,"Delta":140057367},{"NoteNumber":69,"Velocity":76,"Duration":96878,"SoundDuration":96878,"Delta":140154455},{"NoteNumber":71,"Velocity":78,"Duration":96983,"SoundDuration":96983,"Delta":140251333},{"NoteNumber":73,"Velocity":80,"Duration":97508,"SoundDuration":97508,"Delta":140348316},{"NoteNumber":75,"Velocity":82,"Duration":97932,"SoundDuration":97932,"Delta":140445825},{"NoteNumber":76,"Velocity":83,"Duration":98360,"SoundDuration":98360,"Delta":140543757},{"NoteNumber":78,"Velocity":85,"Duration":98792,"SoundDuration":98792,"Delta":140642118},{"NoteNumber":79,"Velocity":87,"Duration":99228,"SoundDuration":99228,"Delta":140740911},{"NoteNumber":81,"Velocity":88,"Duration":99778,"SoundDuration":99778,"Delta":140840140},{"NoteNumber":71,"Velocity":79,"Duration":72580,"SoundDuration":72580,"Delta":140939918},{"NoteNumber":83,"Velocity":93,"Duration":72580,"SoundDuration":72580,"Delta":140939918},{"NoteNumber":51,"Velocity":77,"Duration":72580,"SoundDuration":72580,"Delta":140939918},{"NoteNumber":47,"Velocity":65,"Duration":72580,"SoundDuration":72580,"Delta":140939918},{"NoteNumber":82,"Velocity":76,"Duration":74503,"SoundDuration":74503,"Delta":141133467},{"NoteNumber":70,"Velocity":64,"Duration":74503,"SoundDuration":74503,"Delta":141133467},{"NoteNumber":52,"Velocity":66,"Duration":74503,"SoundDuration":74503,"Delta":141133467},{"NoteNumber":48,"Velocity":56,"Duration":74503,"SoundDuration":74503,"Delta":141133467},{"NoteNumber":71,"Velocity":73,"Duration":72815,"SoundDuration":72815,"Delta":141332142},{"NoteNumber":83,"Velocity":86,"Duration":72815,"SoundDuration":72815,"Delta":141332142},{"NoteNumber":51,"Velocity":71,"Duration":72815,"SoundDuration":72815,"Delta":141332142},{"NoteNumber":47,"Velocity":60,"Duration":72815,"SoundDuration":72815,"Delta":141332142},{"NoteNumber":70,"Velocity":67,"Duration":74503,"SoundDuration":74503,"Delta":141526317},{"NoteNumber":82,"Velocity":79,"Duration":74503,"SoundDuration":74503,"Delta":141526317},{"NoteNumber":52,"Velocity":65,"Duration":74503,"SoundDuration":74503,"Delta":141526317},{"NoteNumber":48,"Velocity":55,"Duration":74503,"SoundDuration":74503,"Delta":141526317},{"NoteNumber":71,"Velocity":78,"Duration":86872,"SoundDuration":86872,"Delta":141724993},{"NoteNumber":83,"Velocity":92,"Duration":86872,"SoundDuration":86872,"Delta":141724993},{"NoteNumber":47,"Velocity":65,"Duration":86872,"SoundDuration":86872,"Delta":141724993},{"NoteNumber":51,"Velocity":77,"Duration":86872,"SoundDuration":86872,"Delta":141724993},{"NoteNumber":62,"Velocity":89,"Duration":1173813,"SoundDuration":1173813,"Delta":142188313},{"NoteNumber":57,"Velocity":72,"Duration":1173813,"SoundDuration":1173813,"Delta":142188313},{"NoteNumber":54,"Velocity":72,"Duration":1173813,"SoundDuration":1173813,"Delta":142188313},{"NoteNumber":50,"Velocity":72,"Duration":1173813,"SoundDuration":1173813,"Delta":142188313},{"NoteNumber":64,"Velocity":83,"Duration":97087,"SoundDuration":97087,"Delta":142382488},{"NoteNumber":66,"Velocity":75,"Duration":97087,"SoundDuration":97087,"Delta":142479575},{"NoteNumber":67,"Velocity":76,"Duration":96878,"SoundDuration":96878,"Delta":142576663},{"NoteNumber":69,"Velocity":78,"Duration":96983,"SoundDuration":96983,"Delta":142673541},{"NoteNumber":71,"Velocity":80,"Duration":97508,"SoundDuration":97508,"Delta":142770524},{"NoteNumber":73,"Velocity":82,"Duration":97932,"SoundDuration":97932,"Delta":142868033},{"NoteNumber":74,"Velocity":83,"Duration":98360,"SoundDuration":98360,"Delta":142965965},{"NoteNumber":76,"Velocity":85,"Duration":98792,"SoundDuration":98792,"Delta":143064326},{"NoteNumber":78,"Velocity":87,"Duration":99228,"SoundDuration":99228,"Delta":143163119},{"NoteNumber":80,"Velocity":88,"Duration":99778,"SoundDuration":99778,"Delta":143262347},{"NoteNumber":81,"Velocity":93,"Duration":73289,"SoundDuration":73289,"Delta":143362126},{"NoteNumber":69,"Velocity":79,"Duration":73289,"SoundDuration":73289,"Delta":143362126},{"NoteNumber":45,"Velocity":62,"Duration":73289,"SoundDuration":73289,"Delta":143362126},{"NoteNumber":49,"Velocity":74,"Duration":73289,"SoundDuration":73289,"Delta":143362126},{"NoteNumber":80,"Velocity":78,"Duration":74999,"SoundDuration":74999,"Delta":143557565},{"NoteNumber":68,"Velocity":66,"Duration":74999,"SoundDuration":74999,"Delta":143557565},{"NoteNumber":46,"Velocity":56,"Duration":74999,"SoundDuration":74999,"Delta":143557565},{"NoteNumber":50,"Velocity":66,"Duration":74999,"SoundDuration":74999,"Delta":143557565},{"NoteNumber":81,"Velocity":85,"Duration":73289,"SoundDuration":73289,"Delta":143757565},{"NoteNumber":69,"Velocity":72,"Duration":73289,"SoundDuration":73289,"Delta":143757565},{"NoteNumber":45,"Velocity":61,"Duration":73289,"SoundDuration":73289,"Delta":143757565},{"NoteNumber":49,"Velocity":72,"Duration":73289,"SoundDuration":73289,"Delta":143757565},{"NoteNumber":68,"Velocity":65,"Duration":74999,"SoundDuration":74999,"Delta":143953005},{"NoteNumber":80,"Velocity":77,"Duration":74999,"SoundDuration":74999,"Delta":143953005},{"NoteNumber":46,"Velocity":54,"Duration":74999,"SoundDuration":74999,"Delta":143953005},{"NoteNumber":50,"Velocity":64,"Duration":74999,"SoundDuration":74999,"Delta":143953005},{"NoteNumber":81,"Velocity":88,"Duration":86872,"SoundDuration":86872,"Delta":144153005},{"NoteNumber":69,"Velocity":74,"Duration":86872,"SoundDuration":86872,"Delta":144153005},{"NoteNumber":45,"Velocity":62,"Duration":86872,"SoundDuration":86872,"Delta":144153005},{"NoteNumber":49,"Velocity":73,"Duration":86872,"SoundDuration":86872,"Delta":144153005},{"NoteNumber":43,"Velocity":57,"Duration":885607,"SoundDuration":885607,"Delta":144616325},{"NoteNumber":40,"Velocity":57,"Duration":885607,"SoundDuration":885607,"Delta":144616325},{"NoteNumber":36,"Velocity":57,"Duration":885607,"SoundDuration":885607,"Delta":144616325},{"NoteNumber":48,"Velocity":68,"Duration":885607,"SoundDuration":885607,"Delta":144616325},{"NoteNumber":72,"Velocity":77,"Duration":110701,"SoundDuration":110701,"Delta":144727026},{"NoteNumber":76,"Velocity":77,"Duration":110700,"SoundDuration":110700,"Delta":144837727},{"NoteNumber":79,"Velocity":75,"Duration":110701,"SoundDuration":110701,"Delta":144948428},{"NoteNumber":84,"Velocity":87,"Duration":110701,"SoundDuration":110701,"Delta":145059129},{"NoteNumber":88,"Velocity":75,"Duration":110701,"SoundDuration":110701,"Delta":145169830},{"NoteNumber":91,"Velocity":79,"Duration":110701,"SoundDuration":110701,"Delta":145280531},{"NoteNumber":96,"Velocity":75,"Duration":110700,"SoundDuration":110700,"Delta":145391232},{"NoteNumber":95,"Velocity":89,"Duration":110701,"SoundDuration":110701,"Delta":145501933},{"NoteNumber":47,"Velocity":55,"Duration":221402,"SoundDuration":221402,"Delta":145501933},{"NoteNumber":43,"Velocity":55,"Duration":221402,"SoundDuration":221402,"Delta":145501933},{"NoteNumber":40,"Velocity":55,"Duration":221402,"SoundDuration":221402,"Delta":145501933},{"NoteNumber":52,"Velocity":65,"Duration":221402,"SoundDuration":221402,"Delta":145501933},{"NoteNumber":69,"Velocity":86,"Duration":112359,"SoundDuration":112359,"Delta":145954995},{"NoteNumber":48,"Velocity":56,"Duration":224718,"SoundDuration":224718,"Delta":145954995},{"NoteNumber":45,"Velocity":56,"Duration":224718,"SoundDuration":224718,"Delta":145954995},{"NoteNumber":41,"Velocity":56,"Duration":224718,"SoundDuration":224718,"Delta":145954995},{"NoteNumber":53,"Velocity":66,"Duration":224718,"SoundDuration":224718,"Delta":145954995},{"NoteNumber":72,"Velocity":78,"Duration":112359,"SoundDuration":112359,"Delta":146067354},{"NoteNumber":77,"Velocity":78,"Duration":112359,"SoundDuration":112359,"Delta":146179714},{"NoteNumber":81,"Velocity":78,"Duration":112359,"SoundDuration":112359,"Delta":146292073},{"NoteNumber":72,"Velocity":86,"Duration":112359,"SoundDuration":112359,"Delta":146404433},{"NoteNumber":51,"Velocity":54,"Duration":224719,"SoundDuration":224719,"Delta":146404433},{"NoteNumber":54,"Velocity":64,"Duration":224719,"SoundDuration":224719,"Delta":146404433},{"NoteNumber":42,"Velocity":54,"Duration":224719,"SoundDuration":224719,"Delta":146404433},{"NoteNumber":45,"Velocity":54,"Duration":224719,"SoundDuration":224719,"Delta":146404433},{"NoteNumber":75,"Velocity":78,"Duration":112359,"SoundDuration":112359,"Delta":146516792},{"NoteNumber":81,"Velocity":78,"Duration":112359,"SoundDuration":112359,"Delta":146629152},{"NoteNumber":84,"Velocity":78,"Duration":112359,"SoundDuration":112359,"Delta":146741511},{"NoteNumber":71,"Velocity":86,"Duration":112359,"SoundDuration":112359,"Delta":146853871},{"NoteNumber":47,"Velocity":51,"Duration":224718,"SoundDuration":224718,"Delta":146853871},{"NoteNumber":55,"Velocity":61,"Duration":224718,"SoundDuration":224718,"Delta":146853871},{"NoteNumber":43,"Velocity":51,"Duration":224718,"SoundDuration":224718,"Delta":146853871},{"NoteNumber":52,"Velocity":51,"Duration":224718,"SoundDuration":224718,"Delta":146853871},{"NoteNumber":76,"Velocity":76,"Duration":112359,"SoundDuration":112359,"Delta":146966230},{"NoteNumber":79,"Velocity":76,"Duration":116278,"SoundDuration":116278,"Delta":147078590},{"NoteNumber":83,"Velocity":76,"Duration":116279,"SoundDuration":116279,"Delta":147194869},{"NoteNumber":69,"Velocity":80,"Duration":114068,"SoundDuration":114068,"Delta":147311148},{"NoteNumber":48,"Velocity":54,"Duration":228137,"SoundDuration":228137,"Delta":147311148},{"NoteNumber":57,"Velocity":64,"Duration":228137,"SoundDuration":228137,"Delta":147311148},{"NoteNumber":54,"Velocity":54,"Duration":228137,"SoundDuration":228137,"Delta":147311148},{"NoteNumber":45,"Velocity":54,"Duration":228137,"SoundDuration":228137,"Delta":147311148},{"NoteNumber":72,"Velocity":73,"Duration":114068,"SoundDuration":114068,"Delta":147425216},{"NoteNumber":78,"Velocity":73,"Duration":114068,"SoundDuration":114068,"Delta":147539285},{"NoteNumber":81,"Velocity":72,"Duration":114068,"SoundDuration":114068,"Delta":147653353},{"NoteNumber":67,"Velocity":78,"Duration":117647,"SoundDuration":117647,"Delta":147767422},{"NoteNumber":52,"Velocity":49,"Duration":235294,"SoundDuration":235294,"Delta":147767422},{"NoteNumber":59,"Velocity":58,"Duration":235294,"SoundDuration":235294,"Delta":147767422},{"NoteNumber":47,"Velocity":49,"Duration":235294,"SoundDuration":235294,"Delta":147767422},{"NoteNumber":55,"Velocity":49,"Duration":235294,"SoundDuration":235294,"Delta":147767422},{"NoteNumber":71,"Velocity":70,"Duration":117647,"SoundDuration":117647,"Delta":147885069},{"NoteNumber":76,"Velocity":70,"Duration":117646,"SoundDuration":117646,"Delta":148002716},{"NoteNumber":79,"Velocity":70,"Duration":117647,"SoundDuration":117647,"Delta":148120363},{"NoteNumber":66,"Velocity":77,"Duration":121951,"SoundDuration":121951,"Delta":148238010},{"NoteNumber":54,"Velocity":48,"Duration":243902,"SoundDuration":243902,"Delta":148238010},{"NoteNumber":59,"Velocity":57,"Duration":243902,"SoundDuration":243902,"Delta":148238010},{"NoteNumber":47,"Velocity":48,"Duration":243902,"SoundDuration":243902,"Delta":148238010},{"NoteNumber":51,"Velocity":48,"Duration":243902,"SoundDuration":243902,"Delta":148238010},{"NoteNumber":71,"Velocity":69,"Duration":121951,"SoundDuration":121951,"Delta":148359961},{"NoteNumber":75,"Velocity":69,"Duration":121951,"SoundDuration":121951,"Delta":148481912},{"NoteNumber":78,"Velocity":69,"Duration":121951,"SoundDuration":121951,"Delta":148603864},{"NoteNumber":64,"Velocity":87,"Duration":194175,"SoundDuration":194175,"Delta":148725815},{"NoteNumber":52,"Velocity":77,"Duration":194175,"SoundDuration":194175,"Delta":148725815},{"NoteNumber":66,"Velocity":82,"Duration":97087,"SoundDuration":97087,"Delta":148919990},{"NoteNumber":54,"Velocity":73,"Duration":97087,"SoundDuration":97087,"Delta":148919990},{"NoteNumber":67,"Velocity":78,"Duration":97087,"SoundDuration":97087,"Delta":149017077},{"NoteNumber":55,"Velocity":67,"Duration":97087,"SoundDuration":97087,"Delta":149017077},{"NoteNumber":69,"Velocity":77,"Duration":96878,"SoundDuration":96878,"Delta":149114165},{"NoteNumber":57,"Velocity":67,"Duration":96878,"SoundDuration":96878,"Delta":149114165},{"NoteNumber":71,"Velocity":77,"Duration":96983,"SoundDuration":96983,"Delta":149211044},{"NoteNumber":59,"Velocity":66,"Duration":96983,"SoundDuration":96983,"Delta":149211044},{"NoteNumber":73,"Velocity":77,"Duration":97508,"SoundDuration":97508,"Delta":149308027},{"NoteNumber":61,"Velocity":65,"Duration":97508,"SoundDuration":97508,"Delta":149308027},{"NoteNumber":75,"Velocity":76,"Duration":97932,"SoundDuration":97932,"Delta":149405535},{"NoteNumber":63,"Velocity":64,"Duration":97932,"SoundDuration":97932,"Delta":149405535},{"NoteNumber":76,"Velocity":76,"Duration":98360,"SoundDuration":98360,"Delta":149503468},{"NoteNumber":64,"Velocity":63,"Duration":98360,"SoundDuration":98360,"Delta":149503468},{"NoteNumber":78,"Velocity":76,"Duration":98792,"SoundDuration":98792,"Delta":149601828},{"NoteNumber":66,"Velocity":63,"Duration":98792,"SoundDuration":98792,"Delta":149601828},{"NoteNumber":79,"Velocity":75,"Duration":99228,"SoundDuration":99228,"Delta":149700621},{"NoteNumber":67,"Velocity":62,"Duration":99228,"SoundDuration":99228,"Delta":149700621},{"NoteNumber":81,"Velocity":75,"Duration":99337,"SoundDuration":99337,"Delta":149799850},{"NoteNumber":69,"Velocity":62,"Duration":99337,"SoundDuration":99337,"Delta":149799850},{"NoteNumber":83,"Velocity":74,"Duration":99778,"SoundDuration":99778,"Delta":149899187},{"NoteNumber":71,"Velocity":61,"Duration":99778,"SoundDuration":99778,"Delta":149899187},{"NoteNumber":84,"Velocity":74,"Duration":100111,"SoundDuration":100111,"Delta":149998966},{"NoteNumber":72,"Velocity":61,"Duration":100111,"SoundDuration":100111,"Delta":149998966},{"NoteNumber":86,"Velocity":73,"Duration":100558,"SoundDuration":100558,"Delta":150099077},{"NoteNumber":74,"Velocity":60,"Duration":100558,"SoundDuration":100558,"Delta":150099077},{"NoteNumber":88,"Velocity":73,"Duration":100897,"SoundDuration":100897,"Delta":150199636},{"NoteNumber":76,"Velocity":60,"Duration":100897,"SoundDuration":100897,"Delta":150199636},{"NoteNumber":89,"Velocity":71,"Duration":202702,"SoundDuration":202702,"Delta":150300534},{"NoteNumber":77,"Velocity":60,"Duration":202702,"SoundDuration":202702,"Delta":150300534},{"NoteNumber":86,"Velocity":71,"Duration":202702,"SoundDuration":202702,"Delta":151516749},{"NoteNumber":74,"Velocity":60,"Duration":202702,"SoundDuration":202702,"Delta":151516749},{"NoteNumber":83,"Velocity":67,"Duration":202702,"SoundDuration":202702,"Delta":152732964},{"NoteNumber":71,"Velocity":55,"Duration":202702,"SoundDuration":202702,"Delta":152732964},{"NoteNumber":80,"Velocity":55,"Duration":206896,"SoundDuration":206896,"Delta":153965955},{"NoteNumber":68,"Velocity":48,"Duration":206896,"SoundDuration":206896,"Delta":153965955},{"NoteNumber":79,"Velocity":50,"Duration":229884,"SoundDuration":229884,"Delta":155253311},{"NoteNumber":67,"Velocity":46,"Duration":229884,"SoundDuration":229884,"Delta":155253311},{"NoteNumber":76,"Velocity":41,"Duration":1072156,"SoundDuration":1072156,"Delta":156552242},{"NoteNumber":67,"Velocity":36,"Duration":2537847,"SoundDuration":2537847,"Delta":156552242},{"NoteNumber":48,"Velocity":39,"Duration":216450,"SoundDuration":216450,"Delta":156552242},{"NoteNumber":55,"Velocity":24,"Duration":216449,"SoundDuration":216449,"Delta":156768692},{"NoteNumber":60,"Velocity":29,"Duration":216450,"SoundDuration":216450,"Delta":156985142},{"NoteNumber":55,"Velocity":24,"Duration":216450,"SoundDuration":216450,"Delta":157201592},{"NoteNumber":64,"Velocity":39,"Duration":206355,"SoundDuration":206355,"Delta":157418042},{"NoteNumber":77,"Velocity":39,"Duration":103178,"SoundDuration":103178,"Delta":157624398},{"NoteNumber":76,"Velocity":34,"Duration":103177,"SoundDuration":103177,"Delta":157727576},{"NoteNumber":74,"Velocity":39,"Duration":412711,"SoundDuration":412711,"Delta":157830754},{"NoteNumber":47,"Velocity":39,"Duration":206355,"SoundDuration":206355,"Delta":157830754},{"NoteNumber":55,"Velocity":28,"Duration":206355,"SoundDuration":206355,"Delta":158037110},{"NoteNumber":77,"Velocity":41,"Duration":419698,"SoundDuration":419698,"Delta":158243466},{"NoteNumber":62,"Velocity":34,"Duration":209848,"SoundDuration":209848,"Delta":158243466},{"NoteNumber":55,"Velocity":28,"Duration":209849,"SoundDuration":209849,"Delta":158453315},{"NoteNumber":80,"Velocity":46,"Duration":426925,"SoundDuration":426925,"Delta":158663164},{"NoteNumber":65,"Velocity":38,"Duration":213462,"SoundDuration":213462,"Delta":158663164},{"NoteNumber":79,"Velocity":44,"Duration":833738,"SoundDuration":833738,"Delta":159090089},{"NoteNumber":67,"Velocity":36,"Duration":1255649,"SoundDuration":1255649,"Delta":159090089},{"NoteNumber":48,"Velocity":36,"Duration":208434,"SoundDuration":208434,"Delta":159090089},{"NoteNumber":55,"Velocity":25,"Duration":208434,"SoundDuration":208434,"Delta":159298523},{"NoteNumber":64,"Velocity":28,"Duration":208434,"SoundDuration":208434,"Delta":159506958},{"NoteNumber":55,"Velocity":24,"Duration":208434,"SoundDuration":208434,"Delta":159715392},{"NoteNumber":76,"Velocity":37,"Duration":413121,"SoundDuration":413121,"Delta":159923827},{"NoteNumber":60,"Velocity":39,"Duration":210955,"SoundDuration":210955,"Delta":159923827},{"NoteNumber":67,"Velocity":36,"Duration":1261248,"SoundDuration":1261248,"Delta":160345738},{"NoteNumber":79,"Velocity":44,"Duration":825423,"SoundDuration":825423,"Delta":160345738},{"NoteNumber":47,"Velocity":39,"Duration":206355,"SoundDuration":206355,"Delta":160345738},{"NoteNumber":55,"Velocity":29,"Duration":206355,"SoundDuration":206355,"Delta":160552094},{"NoteNumber":65,"Velocity":34,"Duration":206355,"SoundDuration":206355,"Delta":160758450},{"NoteNumber":55,"Velocity":28,"Duration":206355,"SoundDuration":206355,"Delta":160964806},{"NoteNumber":77,"Velocity":37,"Duration":426745,"SoundDuration":426745,"Delta":161171162},{"NoteNumber":62,"Velocity":38,"Duration":217912,"SoundDuration":217912,"Delta":161171162},{"NoteNumber":67,"Velocity":41,"Duration":2482403,"SoundDuration":2482403,"Delta":161606987},{"NoteNumber":76,"Velocity":41,"Duration":1041702,"SoundDuration":1041702,"Delta":161606987},{"NoteNumber":48,"Velocity":37,"Duration":209848,"SoundDuration":209848,"Delta":161606987},{"NoteNumber":55,"Velocity":29,"Duration":209849,"SoundDuration":209849,"Delta":161816836},{"NoteNumber":60,"Velocity":31,"Duration":209848,"SoundDuration":209848,"Delta":162026685},{"NoteNumber":55,"Velocity":28,"Duration":209848,"SoundDuration":209848,"Delta":162236534},{"NoteNumber":64,"Velocity":39,"Duration":202306,"SoundDuration":202306,"Delta":162446383},{"NoteNumber":77,"Velocity":38,"Duration":101153,"SoundDuration":101153,"Delta":162648689},{"NoteNumber":76,"Velocity":34,"Duration":101153,"SoundDuration":101153,"Delta":162749842},{"NoteNumber":74,"Velocity":39,"Duration":404612,"SoundDuration":404612,"Delta":162850996},{"NoteNumber":47,"Velocity":39,"Duration":202306,"SoundDuration":202306,"Delta":162850996},{"NoteNumber":55,"Velocity":29,"Duration":202306,"SoundDuration":202306,"Delta":163053302},{"NoteNumber":77,"Velocity":41,"Duration":408551,"SoundDuration":408551,"Delta":163255609},{"NoteNumber":62,"Velocity":34,"Duration":204275,"SoundDuration":204275,"Delta":163255609},{"NoteNumber":55,"Velocity":29,"Duration":204275,"SoundDuration":204275,"Delta":163459885},{"NoteNumber":80,"Velocity":46,"Duration":425229,"SoundDuration":425229,"Delta":163664161},{"NoteNumber":65,"Velocity":38,"Duration":212614,"SoundDuration":212614,"Delta":163664161},{"NoteNumber":79,"Velocity":44,"Duration":817662,"SoundDuration":817662,"Delta":164089391},{"NoteNumber":67,"Velocity":36,"Duration":1239573,"SoundDuration":1239573,"Delta":164089391},{"NoteNumber":48,"Velocity":36,"Duration":204415,"SoundDuration":204415,"Delta":164089391},{"NoteNumber":55,"Velocity":25,"Duration":204415,"SoundDuration":204415,"Delta":164293806},{"NoteNumber":64,"Velocity":29,"Duration":204415,"SoundDuration":204415,"Delta":164498222},{"NoteNumber":55,"Velocity":24,"Duration":204415,"SoundDuration":204415,"Delta":164702637},{"NoteNumber":76,"Velocity":37,"Duration":413121,"SoundDuration":413121,"Delta":164907053},{"NoteNumber":60,"Velocity":39,"Duration":210955,"SoundDuration":210955,"Delta":164907053},{"NoteNumber":67,"Velocity":51,"Duration":1250113,"SoundDuration":1250113,"Delta":165328964},{"NoteNumber":79,"Velocity":51,"Duration":822764,"SoundDuration":822764,"Delta":165328964},{"NoteNumber":47,"Velocity":41,"Duration":205691,"SoundDuration":205691,"Delta":165328964},{"NoteNumber":55,"Velocity":30,"Duration":205691,"SoundDuration":205691,"Delta":165534655},{"NoteNumber":65,"Velocity":38,"Duration":205691,"SoundDuration":205691,"Delta":165740346},{"NoteNumber":55,"Velocity":30,"Duration":205691,"SoundDuration":205691,"Delta":165946037},{"NoteNumber":77,"Velocity":49,"Duration":418446,"SoundDuration":418446,"Delta":166151728},{"NoteNumber":62,"Velocity":38,"Duration":213674,"SoundDuration":213674,"Delta":166151728},{"NoteNumber":68,"Velocity":58,"Duration":1246417,"SoundDuration":1246417,"Delta":166579078},{"NoteNumber":80,"Velocity":58,"Duration":817662,"SoundDuration":817662,"Delta":166579078},{"NoteNumber":47,"Velocity":41,"Duration":204415,"SoundDuration":204415,"Delta":166579078},{"NoteNumber":56,"Velocity":33,"Duration":204415,"SoundDuration":204415,"Delta":166783493},{"NoteNumber":65,"Velocity":39,"Duration":204415,"SoundDuration":204415,"Delta":166987909},{"NoteNumber":56,"Velocity":34,"Duration":204415,"SoundDuration":204415,"Delta":167192324},{"NoteNumber":77,"Velocity":53,"Duration":419822,"SoundDuration":419822,"Delta":167396740},{"NoteNumber":62,"Velocity":42,"Duration":214377,"SoundDuration":214377,"Delta":167396740},{"NoteNumber":69,"Velocity":62,"Duration":1259319,"SoundDuration":1259319,"Delta":167825495},{"NoteNumber":81,"Velocity":62,"Duration":830564,"SoundDuration":830564,"Delta":167825495},{"NoteNumber":48,"Velocity":51,"Duration":207640,"SoundDuration":207640,"Delta":167825495},{"NoteNumber":57,"Velocity":36,"Duration":207640,"SoundDuration":207640,"Delta":168033136},{"NoteNumber":65,"Velocity":39,"Duration":207640,"SoundDuration":207640,"Delta":168240777},{"NoteNumber":57,"Velocity":36,"Duration":207641,"SoundDuration":207641,"Delta":168448418},{"NoteNumber":77,"Velocity":53,"Duration":419822,"SoundDuration":419822,"Delta":168656059},{"NoteNumber":60,"Velocity":45,"Duration":214377,"SoundDuration":214377,"Delta":168656059},{"NoteNumber":76,"Velocity":58,"Duration":431406,"SoundDuration":431406,"Delta":169084814},{"NoteNumber":70,"Velocity":58,"Duration":1282439,"SoundDuration":1282439,"Delta":169084814},{"NoteNumber":48,"Velocity":52,"Duration":215702,"SoundDuration":215702,"Delta":169084814},{"NoteNumber":60,"Velocity":38,"Duration":215703,"SoundDuration":215703,"Delta":169300517},{"NoteNumber":85,"Velocity":63,"Duration":421141,"SoundDuration":421141,"Delta":169516220},{"NoteNumber":67,"Velocity":44,"Duration":210570,"SoundDuration":210570,"Delta":169516220},{"NoteNumber":60,"Velocity":38,"Duration":210570,"SoundDuration":210570,"Delta":169726790},{"NoteNumber":84,"Velocity":60,"Duration":429891,"SoundDuration":429891,"Delta":169937361},{"NoteNumber":64,"Velocity":48,"Duration":214945,"SoundDuration":214945,"Delta":169937361},{"NoteNumber":72,"Velocity":36,"Duration":1269874,"SoundDuration":1269874,"Delta":170367253},{"NoteNumber":82,"Velocity":55,"Duration":836911,"SoundDuration":836911,"Delta":170367253},{"NoteNumber":53,"Velocity":42,"Duration":210570,"SoundDuration":210570,"Delta":170367253},{"NoteNumber":60,"Velocity":26,"Duration":210570,"SoundDuration":210570,"Delta":170577823},{"NoteNumber":65,"Velocity":28,"Duration":208129,"SoundDuration":208129,"Delta":170788394},{"NoteNumber":60,"Velocity":24,"Duration":207640,"SoundDuration":207640,"Delta":170996523},{"NoteNumber":81,"Velocity":49,"Duration":432963,"SoundDuration":432963,"Delta":171204164},{"NoteNumber":69,"Velocity":34,"Duration":216481,"SoundDuration":216481,"Delta":171204164},{"NoteNumber":67,"Velocity":53,"Duration":1272654,"SoundDuration":1272654,"Delta":171637127},{"NoteNumber":76,"Velocity":53,"Duration":428754,"SoundDuration":428754,"Delta":171637127},{"NoteNumber":45,"Velocity":41,"Duration":214377,"SoundDuration":214377,"Delta":171637127},{"NoteNumber":57,"Velocity":33,"Duration":214377,"SoundDuration":214377,"Delta":171851504},{"NoteNumber":82,"Velocity":58,"Duration":417914,"SoundDuration":417914,"Delta":172065882},{"NoteNumber":61,"Velocity":36,"Duration":208957,"SoundDuration":208957,"Delta":172065882},{"NoteNumber":57,"Velocity":31,"Duration":208957,"SoundDuration":208957,"Delta":172274839},{"NoteNumber":81,"Velocity":49,"Duration":425984,"SoundDuration":425984,"Delta":172483797},{"NoteNumber":64,"Velocity":41,"Duration":212992,"SoundDuration":212992,"Delta":172483797},{"NoteNumber":79,"Velocity":52,"Duration":833878,"SoundDuration":833878,"Delta":172909782},{"NoteNumber":69,"Velocity":36,"Duration":1257129,"SoundDuration":1257129,"Delta":172909782},{"NoteNumber":50,"Velocity":39,"Duration":210955,"SoundDuration":210955,"Delta":172909782},{"NoteNumber":57,"Velocity":27,"Duration":207640,"SoundDuration":207640,"Delta":173120737},{"NoteNumber":62,"Velocity":30,"Duration":207640,"SoundDuration":207640,"Delta":173328378},{"NoteNumber":57,"Velocity":28,"Duration":207640,"SoundDuration":207640,"Delta":173536019},{"NoteNumber":77,"Velocity":49,"Duration":414433,"SoundDuration":414433,"Delta":173743660},{"NoteNumber":65,"Velocity":34,"Duration":211625,"SoundDuration":211625,"Delta":173743660},{"NoteNumber":79,"Velocity":44,"Duration":822764,"SoundDuration":822764,"Delta":174166911},{"NoteNumber":67,"Velocity":36,"Duration":1250113,"SoundDuration":1250113,"Delta":174166911},{"NoteNumber":47,"Velocity":39,"Duration":205691,"SoundDuration":205691,"Delta":174166911},{"NoteNumber":55,"Velocity":29,"Duration":205691,"SoundDuration":205691,"Delta":174372602},{"NoteNumber":65,"Velocity":31,"Duration":205691,"SoundDuration":205691,"Delta":174578293},{"NoteNumber":55,"Velocity":29,"Duration":205691,"SoundDuration":205691,"Delta":174783984},{"NoteNumber":77,"Velocity":37,"Duration":418446,"SoundDuration":418446,"Delta":174989675},{"NoteNumber":62,"Velocity":38,"Duration":213674,"SoundDuration":213674,"Delta":174989675},{"NoteNumber":67,"Velocity":36,"Duration":1251519,"SoundDuration":1251519,"Delta":175417025},{"NoteNumber":79,"Velocity":44,"Duration":822764,"SoundDuration":822764,"Delta":175417025},{"NoteNumber":48,"Velocity":36,"Duration":205691,"SoundDuration":205691,"Delta":175417025},{"NoteNumber":55,"Velocity":30,"Duration":205691,"SoundDuration":205691,"Delta":175622716},{"NoteNumber":64,"Velocity":31,"Duration":205691,"SoundDuration":205691,"Delta":175828407},{"NoteNumber":55,"Velocity":30,"Duration":205691,"SoundDuration":205691,"Delta":176034098},{"NoteNumber":76,"Velocity":37,"Duration":419822,"SoundDuration":419822,"Delta":176239789},{"NoteNumber":60,"Velocity":39,"Duration":214377,"SoundDuration":214377,"Delta":176239789},{"NoteNumber":65,"Velocity":36,"Duration":1268175,"SoundDuration":1268175,"Delta":176668544},{"NoteNumber":80,"Velocity":56,"Duration":419229,"SoundDuration":419229,"Delta":176668544},{"NoteNumber":43,"Velocity":36,"Duration":209614,"SoundDuration":209614,"Delta":176668544},{"NoteNumber":55,"Velocity":31,"Duration":209614,"SoundDuration":209614,"Delta":176878159},{"NoteNumber":79,"Velocity":39,"Duration":209945,"SoundDuration":209945,"Delta":177087773},{"NoteNumber":62,"Velocity":31,"Duration":209945,"SoundDuration":209945,"Delta":177087773},{"NoteNumber":77,"Velocity":34,"Duration":211516,"SoundDuration":211516,"Delta":177297718},{"NoteNumber":55,"Velocity":31,"Duration":211516,"SoundDuration":211516,"Delta":177297718},{"NoteNumber":76,"Velocity":38,"Duration":212993,"SoundDuration":212993,"Delta":177509235},{"NoteNumber":59,"Velocity":39,"Duration":212993,"SoundDuration":212993,"Delta":177509235},{"NoteNumber":74,"Velocity":31,"Duration":214490,"SoundDuration":214490,"Delta":177722229},{"NoteNumber":72,"Velocity":38,"Duration":647343,"SoundDuration":647343,"Delta":177936720},{"NoteNumber":64,"Velocity":30,"Duration":431562,"SoundDuration":431562,"Delta":177936720},{"NoteNumber":48,"Velocity":36,"Duration":215780,"SoundDuration":215780,"Delta":177936720},{"NoteNumber":55,"Velocity":28,"Duration":215781,"SoundDuration":215781,"Delta":178152501},{"NoteNumber":64,"Velocity":28,"Duration":215780,"SoundDuration":215780,"Delta":178368282},{"NoteNumber":74,"Velocity":41,"Duration":215780,"SoundDuration":215780,"Delta":178584063},{"NoteNumber":55,"Velocity":28,"Duration":215780,"SoundDuration":215780,"Delta":178584063},{"NoteNumber":76,"Velocity":50,"Duration":215780,"SoundDuration":215780,"Delta":178799844},{"NoteNumber":60,"Velocity":33,"Duration":215780,"SoundDuration":215780,"Delta":178799844},{"NoteNumber":77,"Velocity":54,"Duration":215781,"SoundDuration":215781,"Delta":179015625},{"NoteNumber":70,"Velocity":59,"Duration":1269884,"SoundDuration":1269884,"Delta":179231406},{"NoteNumber":76,"Velocity":59,"Duration":425984,"SoundDuration":425984,"Delta":179231406},{"NoteNumber":48,"Velocity":48,"Duration":212992,"SoundDuration":212992,"Delta":179231406},{"NoteNumber":60,"Velocity":39,"Duration":212992,"SoundDuration":212992,"Delta":179444398},{"NoteNumber":85,"Velocity":64,"Duration":417914,"SoundDuration":417914,"Delta":179657391},{"NoteNumber":67,"Velocity":41,"Duration":208957,"SoundDuration":208957,"Delta":179657391},{"NoteNumber":60,"Velocity":39,"Duration":208957,"SoundDuration":208957,"Delta":179866348},{"NoteNumber":84,"Velocity":59,"Duration":425984,"SoundDuration":425984,"Delta":180075306},{"NoteNumber":64,"Velocity":48,"Duration":212992,"SoundDuration":212992,"Delta":180075306},{"NoteNumber":72,"Velocity":57,"Duration":1266379,"SoundDuration":1266379,"Delta":180501291},{"NoteNumber":82,"Velocity":57,"Duration":833416,"SoundDuration":833416,"Delta":180501291},{"NoteNumber":53,"Velocity":42,"Duration":208957,"SoundDuration":208957,"Delta":180501291},{"NoteNumber":60,"Velocity":28,"Duration":208957,"SoundDuration":208957,"Delta":180710248},{"NoteNumber":65,"Velocity":28,"Duration":207860,"SoundDuration":207860,"Delta":180919206},{"NoteNumber":60,"Velocity":28,"Duration":207640,"SoundDuration":207640,"Delta":181127066},{"NoteNumber":81,"Velocity":53,"Duration":423942,"SoundDuration":423942,"Delta":181334707},{"NoteNumber":69,"Velocity":34,"Duration":216481,"SoundDuration":216481,"Delta":181334707},{"NoteNumber":67,"Velocity":55,"Duration":1272654,"SoundDuration":1272654,"Delta":181767670},{"NoteNumber":76,"Velocity":55,"Duration":428754,"SoundDuration":428754,"Delta":181767670},{"NoteNumber":45,"Velocity":44,"Duration":214377,"SoundDuration":214377,"Delta":181767670},{"NoteNumber":57,"Velocity":33,"Duration":214377,"SoundDuration":214377,"Delta":181982048},{"NoteNumber":82,"Velocity":61,"Duration":417914,"SoundDuration":417914,"Delta":182196425},{"NoteNumber":61,"Velocity":39,"Duration":208957,"SoundDuration":208957,"Delta":182196425},{"NoteNumber":57,"Velocity":31,"Duration":208957,"SoundDuration":208957,"Delta":182405383},{"NoteNumber":81,"Velocity":56,"Duration":425984,"SoundDuration":425984,"Delta":182614340},{"NoteNumber":64,"Velocity":41,"Duration":212992,"SoundDuration":212992,"Delta":182614340},{"NoteNumber":79,"Velocity":52,"Duration":833878,"SoundDuration":833878,"Delta":183040325},{"NoteNumber":69,"Velocity":36,"Duration":1263770,"SoundDuration":1263770,"Delta":183040325},{"NoteNumber":50,"Velocity":39,"Duration":210955,"SoundDuration":210955,"Delta":183040325},{"NoteNumber":57,"Velocity":28,"Duration":207640,"SoundDuration":207640,"Delta":183251281},{"NoteNumber":62,"Velocity":28,"Duration":207640,"SoundDuration":207640,"Delta":183458922},{"NoteNumber":57,"Velocity":28,"Duration":207640,"SoundDuration":207640,"Delta":183666563},{"NoteNumber":77,"Velocity":49,"Duration":420935,"SoundDuration":420935,"Delta":183874204},{"NoteNumber":65,"Velocity":34,"Duration":214945,"SoundDuration":214945,"Delta":183874204},{"NoteNumber":67,"Velocity":47,"Duration":1250113,"SoundDuration":1250113,"Delta":184304096},{"NoteNumber":79,"Velocity":47,"Duration":822764,"SoundDuration":822764,"Delta":184304096},{"NoteNumber":47,"Velocity":39,"Duration":205691,"SoundDuration":205691,"Delta":184304096},{"NoteNumber":55,"Velocity":29,"Duration":205691,"SoundDuration":205691,"Delta":184509787},{"NoteNumber":65,"Velocity":30,"Duration":205691,"SoundDuration":205691,"Delta":184715478},{"NoteNumber":55,"Velocity":30,"Duration":205691,"SoundDuration":205691,"Delta":184921169},{"NoteNumber":77,"Velocity":39,"Duration":418446,"SoundDuration":418446,"Delta":185126860},{"NoteNumber":62,"Velocity":38,"Duration":213674,"SoundDuration":213674,"Delta":185126860},{"NoteNumber":67,"Velocity":47,"Duration":1251380,"SoundDuration":1251380,"Delta":185554210},{"NoteNumber":79,"Velocity":47,"Duration":822764,"SoundDuration":822764,"Delta":185554210},{"NoteNumber":48,"Velocity":36,"Duration":205691,"SoundDuration":205691,"Delta":185554210},{"NoteNumber":55,"Velocity":29,"Duration":205691,"SoundDuration":205691,"Delta":185759901},{"NoteNumber":64,"Velocity":31,"Duration":205691,"SoundDuration":205691,"Delta":185965592},{"NoteNumber":55,"Velocity":28,"Duration":205691,"SoundDuration":205691,"Delta":186171283},{"NoteNumber":76,"Velocity":37,"Duration":419822,"SoundDuration":419822,"Delta":186376974},{"NoteNumber":60,"Velocity":39,"Duration":214377,"SoundDuration":214377,"Delta":186376974},{"NoteNumber":80,"Velocity":56,"Duration":427231,"SoundDuration":427231,"Delta":186805590},{"NoteNumber":65,"Velocity":36,"Duration":1292850,"SoundDuration":1292850,"Delta":186805590},{"NoteNumber":43,"Velocity":36,"Duration":213674,"SoundDuration":213674,"Delta":186805590},{"NoteNumber":55,"Velocity":28,"Duration":213556,"SoundDuration":213556,"Delta":187019265},{"NoteNumber":79,"Velocity":39,"Duration":214607,"SoundDuration":214607,"Delta":187232822},{"NoteNumber":62,"Velocity":31,"Duration":214607,"SoundDuration":214607,"Delta":187232822},{"NoteNumber":77,"Velocity":34,"Duration":215779,"SoundDuration":215779,"Delta":187447430},{"NoteNumber":55,"Velocity":29,"Duration":215779,"SoundDuration":215779,"Delta":187447430},{"NoteNumber":76,"Velocity":38,"Duration":216962,"SoundDuration":216962,"Delta":187663209},{"NoteNumber":59,"Velocity":39,"Duration":216962,"SoundDuration":216962,"Delta":187663209},{"NoteNumber":74,"Velocity":31,"Duration":218269,"SoundDuration":218269,"Delta":187880171},{"NoteNumber":72,"Velocity":38,"Duration":438725,"SoundDuration":438725,"Delta":188098441},{"NoteNumber":64,"Velocity":34,"Duration":438725,"SoundDuration":438725,"Delta":188098441},{"NoteNumber":48,"Velocity":36,"Duration":219362,"SoundDuration":219362,"Delta":188098441},{"NoteNumber":55,"Velocity":25,"Duration":219362,"SoundDuration":219362,"Delta":188317803},{"NoteNumber":60,"Velocity":28,"Duration":219362,"SoundDuration":219362,"Delta":188537166},{"NoteNumber":55,"Velocity":25,"Duration":219362,"SoundDuration":219362,"Delta":188756528},{"NoteNumber":64,"Velocity":25,"Duration":229884,"SoundDuration":229884,"Delta":188975891},{"NoteNumber":76,"Velocity":35,"Duration":1365540,"SoundDuration":1365540,"Delta":189435661},{"NoteNumber":67,"Velocity":35,"Duration":1365540,"SoundDuration":1365540,"Delta":189435661},{"NoteNumber":48,"Velocity":33,"Duration":219523,"SoundDuration":219523,"Delta":189435661},{"NoteNumber":55,"Velocity":20,"Duration":219522,"SoundDuration":219522,"Delta":189655184},{"NoteNumber":60,"Velocity":26,"Duration":219523,"SoundDuration":219523,"Delta":189874707},{"NoteNumber":55,"Velocity":20,"Duration":219523,"SoundDuration":219523,"Delta":190094230},{"NoteNumber":64,"Velocity":25,"Duration":243723,"SoundDuration":243723,"Delta":190313753},{"NoteNumber":76,"Velocity":32,"Duration":1387963,"SoundDuration":1387963,"Delta":190801201},{"NoteNumber":67,"Velocity":32,"Duration":1387963,"SoundDuration":1387963,"Delta":190801201},{"NoteNumber":71,"Velocity":32,"Duration":1387963,"SoundDuration":1387963,"Delta":190801201},{"NoteNumber":47,"Velocity":31,"Duration":218754,"SoundDuration":218754,"Delta":190801201},{"NoteNumber":55,"Velocity":18,"Duration":218754,"SoundDuration":218754,"Delta":191019955},{"NoteNumber":59,"Velocity":23,"Duration":227600,"SoundDuration":227600,"Delta":191238710},{"NoteNumber":55,"Velocity":18,"Duration":227600,"SoundDuration":227600,"Delta":191466310},{"NoteNumber":64,"Velocity":25,"Duration":247626,"SoundDuration":247626,"Delta":191693911},{"NoteNumber":75,"Velocity":30,"Duration":1698934,"SoundDuration":1698934,"Delta":192189165},{"NoteNumber":66,"Velocity":30,"Duration":1698934,"SoundDuration":1698934,"Delta":192189165},{"NoteNumber":71,"Velocity":30,"Duration":1698934,"SoundDuration":1698934,"Delta":192189165},{"NoteNumber":47,"Velocity":29,"Duration":225150,"SoundDuration":225150,"Delta":192189165},{"NoteNumber":54,"Velocity":20,"Duration":235422,"SoundDuration":235422,"Delta":192414315},{"NoteNumber":59,"Velocity":25,"Duration":246685,"SoundDuration":246685,"Delta":192649738},{"NoteNumber":54,"Velocity":18,"Duration":259075,"SoundDuration":259075,"Delta":192896423},{"NoteNumber":63,"Velocity":20,"Duration":366300,"SoundDuration":366300,"Delta":193155498},{"NoteNumber":65,"Velocity":91,"Duration":119047,"SoundDuration":119047,"Delta":193888099},{"NoteNumber":56,"Velocity":83,"Duration":119047,"SoundDuration":119047,"Delta":193888099},{"NoteNumber":71,"Velocity":77,"Duration":119403,"SoundDuration":119403,"Delta":194007147},{"NoteNumber":65,"Velocity":72,"Duration":119403,"SoundDuration":119403,"Delta":194007147},{"NoteNumber":74,"Velocity":74,"Duration":119850,"SoundDuration":119850,"Delta":194126550},{"NoteNumber":62,"Velocity":68,"Duration":119850,"SoundDuration":119850,"Delta":194126550},{"NoteNumber":77,"Velocity":82,"Duration":120210,"SoundDuration":120210,"Delta":194246400},{"NoteNumber":59,"Velocity":75,"Duration":120210,"SoundDuration":120210,"Delta":194246400},{"NoteNumber":83,"Velocity":73,"Duration":120663,"SoundDuration":120663,"Delta":194366611},{"NoteNumber":56,"Velocity":68,"Duration":120663,"SoundDuration":120663,"Delta":194366611},{"NoteNumber":86,"Velocity":71,"Duration":121029,"SoundDuration":121029,"Delta":194487275},{"NoteNumber":53,"Velocity":68,"Duration":121029,"SoundDuration":121029,"Delta":194487275},{"NoteNumber":89,"Velocity":78,"Duration":122051,"SoundDuration":122051,"Delta":194608304},{"NoteNumber":50,"Velocity":65,"Duration":122051,"SoundDuration":122051,"Delta":194608304},{"NoteNumber":95,"Velocity":71,"Duration":125597,"SoundDuration":125597,"Delta":194730355},{"NoteNumber":47,"Velocity":54,"Duration":125597,"SoundDuration":125597,"Delta":194730355},{"NoteNumber":98,"Velocity":70,"Duration":129354,"SoundDuration":129354,"Delta":194855953},{"NoteNumber":45,"Velocity":53,"Duration":129354,"SoundDuration":129354,"Delta":194855953},{"NoteNumber":101,"Velocity":76,"Duration":101010,"SoundDuration":101010,"Delta":194985307},{"NoteNumber":44,"Velocity":63,"Duration":101010,"SoundDuration":101010,"Delta":194985307},{"NoteNumber":46,"Velocity":33,"Duration":219362,"SoundDuration":219362,"Delta":196197427},{"NoteNumber":53,"Velocity":23,"Duration":219362,"SoundDuration":219362,"Delta":196416790},{"NoteNumber":58,"Velocity":26,"Duration":221402,"SoundDuration":221402,"Delta":196636152},{"NoteNumber":53,"Velocity":23,"Duration":221401,"SoundDuration":221401,"Delta":196857554},{"NoteNumber":62,"Velocity":23,"Duration":233463,"SoundDuration":233463,"Delta":197078956},{"NoteNumber":74,"Velocity":35,"Duration":1354357,"SoundDuration":1354357,"Delta":197545882},{"NoteNumber":68,"Velocity":35,"Duration":1354357,"SoundDuration":1354357,"Delta":197545882},{"NoteNumber":65,"Velocity":35,"Duration":1354357,"SoundDuration":1354357,"Delta":197545882},{"NoteNumber":46,"Velocity":33,"Duration":221402,"SoundDuration":221402,"Delta":197545882},{"NoteNumber":53,"Velocity":20,"Duration":221401,"SoundDuration":221401,"Delta":197767284},{"NoteNumber":58,"Velocity":26,"Duration":221402,"SoundDuration":221402,"Delta":197988686},{"NoteNumber":53,"Velocity":20,"Duration":221401,"SoundDuration":221401,"Delta":198210088},{"NoteNumber":62,"Velocity":25,"Duration":234375,"SoundDuration":234375,"Delta":198431490},{"NoteNumber":74,"Velocity":32,"Duration":1391630,"SoundDuration":1391630,"Delta":198900240},{"NoteNumber":69,"Velocity":32,"Duration":1391630,"SoundDuration":1391630,"Delta":198900240},{"NoteNumber":65,"Velocity":32,"Duration":1391630,"SoundDuration":1391630,"Delta":198900240},{"NoteNumber":45,"Velocity":31,"Duration":220587,"SoundDuration":220587,"Delta":198900240},{"NoteNumber":53,"Velocity":18,"Duration":220588,"SoundDuration":220588,"Delta":199120828},{"NoteNumber":57,"Velocity":23,"Duration":227600,"SoundDuration":227600,"Delta":199341416},{"NoteNumber":53,"Velocity":18,"Duration":227600,"SoundDuration":227600,"Delta":199569017},{"NoteNumber":62,"Velocity":25,"Duration":247626,"SoundDuration":247626,"Delta":199796617},{"NoteNumber":69,"Velocity":30,"Duration":1698934,"SoundDuration":1698934,"Delta":200291871},{"NoteNumber":64,"Velocity":30,"Duration":1698934,"SoundDuration":1698934,"Delta":200291871},{"NoteNumber":73,"Velocity":30,"Duration":1698934,"SoundDuration":1698934,"Delta":200291871},{"NoteNumber":45,"Velocity":29,"Duration":225150,"SoundDuration":225150,"Delta":200291871},{"NoteNumber":52,"Velocity":20,"Duration":235422,"SoundDuration":235422,"Delta":200517021},{"NoteNumber":57,"Velocity":25,"Duration":246685,"SoundDuration":246685,"Delta":200752444},{"NoteNumber":52,"Velocity":18,"Duration":259075,"SoundDuration":259075,"Delta":200999130},{"NoteNumber":61,"Velocity":20,"Duration":366300,"SoundDuration":366300,"Delta":201258205},{"NoteNumber":63,"Velocity":91,"Duration":119047,"SoundDuration":119047,"Delta":201990806},{"NoteNumber":54,"Velocity":83,"Duration":119047,"SoundDuration":119047,"Delta":201990806},{"NoteNumber":69,"Velocity":77,"Duration":119403,"SoundDuration":119403,"Delta":202109854},{"NoteNumber":63,"Velocity":73,"Duration":119403,"SoundDuration":119403,"Delta":202109854},{"NoteNumber":72,"Velocity":72,"Duration":119850,"SoundDuration":119850,"Delta":202229257},{"NoteNumber":60,"Velocity":70,"Duration":119850,"SoundDuration":119850,"Delta":202229257},{"NoteNumber":75,"Velocity":82,"Duration":120210,"SoundDuration":120210,"Delta":202349107},{"NoteNumber":57,"Velocity":75,"Duration":120210,"SoundDuration":120210,"Delta":202349107},{"NoteNumber":81,"Velocity":73,"Duration":120663,"SoundDuration":120663,"Delta":202469317},{"NoteNumber":53,"Velocity":68,"Duration":120663,"SoundDuration":120663,"Delta":202469317},{"NoteNumber":84,"Velocity":71,"Duration":121029,"SoundDuration":121029,"Delta":202589981},{"NoteNumber":51,"Velocity":68,"Duration":121029,"SoundDuration":121029,"Delta":202589981},{"NoteNumber":87,"Velocity":78,"Duration":122051,"SoundDuration":122051,"Delta":202711010},{"NoteNumber":48,"Velocity":65,"Duration":122051,"SoundDuration":122051,"Delta":202711010},{"NoteNumber":93,"Velocity":71,"Duration":125597,"SoundDuration":125597,"Delta":202833062},{"NoteNumber":45,"Velocity":54,"Duration":125597,"SoundDuration":125597,"Delta":202833062},{"NoteNumber":96,"Velocity":70,"Duration":129354,"SoundDuration":129354,"Delta":202958660},{"NoteNumber":43,"Velocity":53,"Duration":129354,"SoundDuration":129354,"Delta":202958660},{"NoteNumber":99,"Velocity":76,"Duration":101010,"SoundDuration":101010,"Delta":203088014},{"NoteNumber":42,"Velocity":63,"Duration":101010,"SoundDuration":101010,"Delta":203088014},{"NoteNumber":44,"Velocity":33,"Duration":223880,"SoundDuration":223880,"Delta":204300134},{"NoteNumber":51,"Velocity":23,"Duration":223880,"SoundDuration":223880,"Delta":204524015},{"NoteNumber":56,"Velocity":26,"Duration":227272,"SoundDuration":227272,"Delta":204747895},{"NoteNumber":51,"Velocity":23,"Duration":227272,"SoundDuration":227272,"Delta":204975168},{"NoteNumber":60,"Velocity":23,"Duration":239044,"SoundDuration":239044,"Delta":205202440},{"NoteNumber":66,"Velocity":35,"Duration":1395953,"SoundDuration":1395953,"Delta":205680528},{"NoteNumber":68,"Velocity":35,"Duration":1395953,"SoundDuration":1395953,"Delta":205680528},{"NoteNumber":75,"Velocity":35,"Duration":1395953,"SoundDuration":1395953,"Delta":205680528},{"NoteNumber":44,"Velocity":33,"Duration":227272,"SoundDuration":227272,"Delta":205680528},{"NoteNumber":51,"Velocity":20,"Duration":227272,"SoundDuration":227272,"Delta":205907801},{"NoteNumber":56,"Velocity":26,"Duration":231660,"SoundDuration":231660,"Delta":206135073},{"NoteNumber":51,"Velocity":20,"Duration":231660,"SoundDuration":231660,"Delta":206366733},{"NoteNumber":60,"Velocity":25,"Duration":239044,"SoundDuration":239044,"Delta":206598393},{"NoteNumber":68,"Velocity":32,"Duration":2667378,"SoundDuration":2667378,"Delta":207076481},{"NoteNumber":65,"Velocity":32,"Duration":2667378,"SoundDuration":2667378,"Delta":207076481},{"NoteNumber":75,"Velocity":32,"Duration":1411765,"SoundDuration":1411765,"Delta":207076481},{"NoteNumber":44,"Velocity":31,"Duration":223880,"SoundDuration":223880,"Delta":207076481},{"NoteNumber":53,"Velocity":18,"Duration":223880,"SoundDuration":223880,"Delta":207300362},{"NoteNumber":56,"Velocity":23,"Duration":234375,"SoundDuration":234375,"Delta":207524242},{"NoteNumber":53,"Velocity":18,"Duration":234375,"SoundDuration":234375,"Delta":207758617},{"NoteNumber":61,"Velocity":25,"Duration":247626,"SoundDuration":247626,"Delta":207992992},{"NoteNumber":73,"Velocity":39,"Duration":437509,"SoundDuration":437509,"Delta":208488246},{"NoteNumber":44,"Velocity":31,"Duration":218754,"SoundDuration":218754,"Delta":208488246},{"NoteNumber":53,"Velocity":18,"Duration":218754,"SoundDuration":218754,"Delta":208707001},{"NoteNumber":77,"Velocity":41,"Duration":455200,"SoundDuration":455200,"Delta":208925755},{"NoteNumber":56,"Velocity":23,"Duration":227600,"SoundDuration":227600,"Delta":208925755},{"NoteNumber":53,"Velocity":18,"Duration":227600,"SoundDuration":227600,"Delta":209153356},{"NoteNumber":78,"Velocity":47,"Duration":362903,"SoundDuration":362903,"Delta":209380956},{"NoteNumber":61,"Velocity":25,"Duration":241935,"SoundDuration":241935,"Delta":209380956},{"NoteNumber":63,"Velocity":34,"Duration":1432925,"SoundDuration":1432925,"Delta":209743859},{"NoteNumber":73,"Velocity":35,"Duration":1372441,"SoundDuration":1372441,"Delta":209804343},{"NoteNumber":80,"Velocity":47,"Duration":1311957,"SoundDuration":1311957,"Delta":209864827},{"NoteNumber":32,"Velocity":31,"Duration":229884,"SoundDuration":229884,"Delta":209864827},{"NoteNumber":44,"Velocity":18,"Duration":229884,"SoundDuration":229884,"Delta":210094712},{"NoteNumber":51,"Velocity":18,"Duration":236220,"SoundDuration":236220,"Delta":210324597},{"NoteNumber":44,"Velocity":18,"Duration":236220,"SoundDuration":236220,"Delta":210560818},{"NoteNumber":54,"Velocity":23,"Duration":253164,"SoundDuration":253164,"Delta":210797038},{"NoteNumber":66,"Velocity":29,"Duration":1486910,"SoundDuration":1486910,"Delta":211176785},{"NoteNumber":72,"Velocity":29,"Duration":1423619,"SoundDuration":1423619,"Delta":211240076},{"NoteNumber":80,"Velocity":44,"Duration":1360328,"SoundDuration":1360328,"Delta":211303367},{"NoteNumber":32,"Velocity":31,"Duration":232558,"SoundDuration":232558,"Delta":211303367},{"NoteNumber":44,"Velocity":18,"Duration":232557,"SoundDuration":232557,"Delta":211535925},{"NoteNumber":51,"Velocity":18,"Duration":244898,"SoundDuration":244898,"Delta":211768483},{"NoteNumber":44,"Velocity":18,"Duration":279943,"SoundDuration":279943,"Delta":212013381},{"NoteNumber":56,"Velocity":27,"Duration":246913,"SoundDuration":246913,"Delta":212293325},{"NoteNumber":73,"Velocity":36,"Duration":128205,"SoundDuration":128205,"Delta":212787152},{"NoteNumber":56,"Velocity":27,"Duration":2294067,"SoundDuration":2294067,"Delta":212787152},{"NoteNumber":61,"Velocity":27,"Duration":2294067,"SoundDuration":2294067,"Delta":212787152},{"NoteNumber":49,"Velocity":27,"Duration":2294067,"SoundDuration":2294067,"Delta":212787152},{"NoteNumber":53,"Velocity":27,"Duration":2294067,"SoundDuration":2294067,"Delta":212787152},{"NoteNumber":75,"Velocity":30,"Duration":128204,"SoundDuration":128204,"Delta":212915357},{"NoteNumber":77,"Velocity":30,"Duration":128205,"SoundDuration":128205,"Delta":213043562},{"NoteNumber":75,"Velocity":36,"Duration":128205,"SoundDuration":128205,"Delta":213171767},{"NoteNumber":77,"Velocity":31,"Duration":128205,"SoundDuration":128205,"Delta":213299972},{"NoteNumber":78,"Velocity":31,"Duration":128204,"SoundDuration":128204,"Delta":213428177},{"NoteNumber":77,"Velocity":35,"Duration":128205,"SoundDuration":128205,"Delta":213556382},{"NoteNumber":78,"Velocity":30,"Duration":128205,"SoundDuration":128205,"Delta":213684587},{"NoteNumber":80,"Velocity":31,"Duration":128204,"SoundDuration":128204,"Delta":213812792},{"NoteNumber":78,"Velocity":39,"Duration":127795,"SoundDuration":127795,"Delta":213940997},{"NoteNumber":80,"Velocity":32,"Duration":127388,"SoundDuration":127388,"Delta":214068792},{"NoteNumber":82,"Velocity":32,"Duration":126883,"SoundDuration":126883,"Delta":214196181},{"NoteNumber":80,"Velocity":43,"Duration":126482,"SoundDuration":126482,"Delta":214323065},{"NoteNumber":82,"Velocity":36,"Duration":125984,"SoundDuration":125984,"Delta":214449547},{"NoteNumber":84,"Velocity":35,"Duration":125588,"SoundDuration":125588,"Delta":214575532},{"NoteNumber":85,"Velocity":47,"Duration":125098,"SoundDuration":125098,"Delta":214701121},{"NoteNumber":87,"Velocity":39,"Duration":124707,"SoundDuration":124707,"Delta":214826219},{"NoteNumber":89,"Velocity":40,"Duration":130293,"SoundDuration":130293,"Delta":214950927},{"NoteNumber":90,"Velocity":52,"Duration":124610,"SoundDuration":124610,"Delta":215081220},{"NoteNumber":56,"Velocity":29,"Duration":2261392,"SoundDuration":2261392,"Delta":215081220},{"NoteNumber":60,"Velocity":29,"Duration":2261392,"SoundDuration":2261392,"Delta":215081220},{"NoteNumber":51,"Velocity":29,"Duration":1121496,"SoundDuration":1121496,"Delta":215081220},{"NoteNumber":49,"Velocity":29,"Duration":2261392,"SoundDuration":2261392,"Delta":215081220},{"NoteNumber":89,"Velocity":41,"Duration":124610,"SoundDuration":124610,"Delta":215205830},{"NoteNumber":87,"Velocity":41,"Duration":124610,"SoundDuration":124610,"Delta":215330441},{"NoteNumber":89,"Velocity":50,"Duration":124610,"SoundDuration":124610,"Delta":215455052},{"NoteNumber":87,"Velocity":39,"Duration":124610,"SoundDuration":124610,"Delta":215579662},{"NoteNumber":85,"Velocity":41,"Duration":124610,"SoundDuration":124610,"Delta":215704273},{"NoteNumber":87,"Velocity":48,"Duration":124610,"SoundDuration":124610,"Delta":215828884},{"NoteNumber":85,"Velocity":38,"Duration":124610,"SoundDuration":124610,"Delta":215953494},{"NoteNumber":84,"Velocity":38,"Duration":124610,"SoundDuration":124610,"Delta":216078105},{"NoteNumber":85,"Velocity":42,"Duration":124223,"SoundDuration":124223,"Delta":216202716},{"NoteNumber":54,"Velocity":28,"Duration":1139896,"SoundDuration":1139896,"Delta":216202716},{"NoteNumber":84,"Velocity":35,"Duration":124610,"SoundDuration":124610,"Delta":216326939},{"NoteNumber":82,"Velocity":35,"Duration":125000,"SoundDuration":125000,"Delta":216451550},{"NoteNumber":84,"Velocity":40,"Duration":125392,"SoundDuration":125392,"Delta":216576550},{"NoteNumber":82,"Velocity":33,"Duration":125785,"SoundDuration":125785,"Delta":216701942},{"NoteNumber":80,"Velocity":33,"Duration":126183,"SoundDuration":126183,"Delta":216827728},{"NoteNumber":78,"Velocity":37,"Duration":126582,"SoundDuration":126582,"Delta":216953911},{"NoteNumber":77,"Velocity":32,"Duration":126983,"SoundDuration":126983,"Delta":217080493},{"NoteNumber":75,"Velocity":32,"Duration":135135,"SoundDuration":135135,"Delta":217207477},{"NoteNumber":73,"Velocity":39,"Duration":128205,"SoundDuration":128205,"Delta":217342612},{"NoteNumber":56,"Velocity":29,"Duration":2281524,"SoundDuration":2281524,"Delta":217342612},{"NoteNumber":61,"Velocity":29,"Duration":2281524,"SoundDuration":2281524,"Delta":217342612},{"NoteNumber":49,"Velocity":29,"Duration":2281524,"SoundDuration":2281524,"Delta":217342612},{"NoteNumber":52,"Velocity":29,"Duration":2281524,"SoundDuration":2281524,"Delta":217342612},{"NoteNumber":75,"Velocity":33,"Duration":128204,"SoundDuration":128204,"Delta":217470817},{"NoteNumber":76,"Velocity":33,"Duration":128205,"SoundDuration":128205,"Delta":217599022},{"NoteNumber":75,"Velocity":39,"Duration":128205,"SoundDuration":128205,"Delta":217727227},{"NoteNumber":76,"Velocity":33,"Duration":128205,"SoundDuration":128205,"Delta":217855432},{"NoteNumber":78,"Velocity":33,"Duration":128204,"SoundDuration":128204,"Delta":217983637},{"NoteNumber":76,"Velocity":37,"Duration":128205,"SoundDuration":128205,"Delta":218111842},{"NoteNumber":78,"Velocity":32,"Duration":128205,"SoundDuration":128205,"Delta":218240047},{"NoteNumber":80,"Velocity":32,"Duration":128204,"SoundDuration":128204,"Delta":218368252},{"NoteNumber":78,"Velocity":41,"Duration":127592,"SoundDuration":127592,"Delta":218496457},{"NoteNumber":80,"Velocity":33,"Duration":126783,"SoundDuration":126783,"Delta":218624050},{"NoteNumber":81,"Velocity":33,"Duration":125984,"SoundDuration":125984,"Delta":218750833},{"NoteNumber":80,"Velocity":43,"Duration":125196,"SoundDuration":125196,"Delta":218876817},{"NoteNumber":82,"Velocity":36,"Duration":124417,"SoundDuration":124417,"Delta":219002013},{"NoteNumber":84,"Velocity":35,"Duration":123647,"SoundDuration":123647,"Delta":219126430},{"NoteNumber":85,"Velocity":46,"Duration":122888,"SoundDuration":122888,"Delta":219250078},{"NoteNumber":87,"Velocity":39,"Duration":122137,"SoundDuration":122137,"Delta":219372966},{"NoteNumber":88,"Velocity":39,"Duration":129032,"SoundDuration":129032,"Delta":219495104},{"NoteNumber":90,"Velocity":50,"Duration":121580,"SoundDuration":121580,"Delta":219624136},{"NoteNumber":56,"Velocity":28,"Duration":2574600,"SoundDuration":2574600,"Delta":219624136},{"NoteNumber":60,"Velocity":28,"Duration":2208746,"SoundDuration":2208746,"Delta":219624136},{"NoteNumber":51,"Velocity":28,"Duration":1094225,"SoundDuration":1094225,"Delta":219624136},{"NoteNumber":49,"Velocity":28,"Duration":2574600,"SoundDuration":2574600,"Delta":219624136},{"NoteNumber":88,"Velocity":39,"Duration":121580,"SoundDuration":121580,"Delta":219745717},{"NoteNumber":87,"Velocity":39,"Duration":121580,"SoundDuration":121580,"Delta":219867298},{"NoteNumber":88,"Velocity":48,"Duration":121580,"SoundDuration":121580,"Delta":219988878},{"NoteNumber":87,"Velocity":39,"Duration":121580,"SoundDuration":121580,"Delta":220110459},{"NoteNumber":85,"Velocity":40,"Duration":121580,"SoundDuration":121580,"Delta":220232040},{"NoteNumber":87,"Velocity":47,"Duration":121580,"SoundDuration":121580,"Delta":220353620},{"NoteNumber":85,"Velocity":38,"Duration":121580,"SoundDuration":121580,"Delta":220475201},{"NoteNumber":84,"Velocity":38,"Duration":121580,"SoundDuration":121580,"Delta":220596782},{"NoteNumber":85,"Velocity":42,"Duration":121951,"SoundDuration":121951,"Delta":220718362},{"NoteNumber":54,"Velocity":28,"Duration":1114520,"SoundDuration":1114520,"Delta":220718362},{"NoteNumber":83,"Velocity":36,"Duration":122137,"SoundDuration":122137,"Delta":220840314},{"NoteNumber":81,"Velocity":36,"Duration":122417,"SoundDuration":122417,"Delta":220962451},{"NoteNumber":83,"Velocity":42,"Duration":122699,"SoundDuration":122699,"Delta":221084869},{"NoteNumber":81,"Velocity":35,"Duration":123076,"SoundDuration":123076,"Delta":221207569},{"NoteNumber":80,"Velocity":35,"Duration":123266,"SoundDuration":123266,"Delta":221330646},{"NoteNumber":78,"Velocity":40,"Duration":123552,"SoundDuration":123552,"Delta":221453912},{"NoteNumber":76,"Velocity":34,"Duration":123839,"SoundDuration":123839,"Delta":221577465},{"NoteNumber":75,"Velocity":34,"Duration":131579,"SoundDuration":131579,"Delta":221701304},{"NoteNumber":73,"Velocity":40,"Duration":121951,"SoundDuration":121951,"Delta":221832883},{"NoteNumber":52,"Velocity":29,"Duration":365854,"SoundDuration":365854,"Delta":221832883},{"NoteNumber":61,"Velocity":29,"Duration":365854,"SoundDuration":365854,"Delta":221832883},{"NoteNumber":75,"Velocity":35,"Duration":121951,"SoundDuration":121951,"Delta":221954834},{"NoteNumber":76,"Velocity":35,"Duration":121951,"SoundDuration":121951,"Delta":222076785},{"NoteNumber":75,"Velocity":45,"Duration":121951,"SoundDuration":121951,"Delta":222198737},{"NoteNumber":76,"Velocity":37,"Duration":121951,"SoundDuration":121951,"Delta":222320688},{"NoteNumber":78,"Velocity":37,"Duration":121951,"SoundDuration":121951,"Delta":222442639},{"NoteNumber":76,"Velocity":47,"Duration":121951,"SoundDuration":121951,"Delta":222564591},{"NoteNumber":78,"Velocity":39,"Duration":121493,"SoundDuration":121493,"Delta":222686542},{"NoteNumber":80,"Velocity":38,"Duration":123456,"SoundDuration":123456,"Delta":222808035},{"NoteNumber":81,"Velocity":53,"Duration":731930,"SoundDuration":731930,"Delta":222931492},{"NoteNumber":60,"Velocity":40,"Duration":121988,"SoundDuration":121988,"Delta":222931492},{"NoteNumber":61,"Velocity":35,"Duration":121988,"SoundDuration":121988,"Delta":223053480},{"NoteNumber":63,"Velocity":35,"Duration":121988,"SoundDuration":121988,"Delta":223175469},{"NoteNumber":61,"Velocity":41,"Duration":121988,"SoundDuration":121988,"Delta":223297457},{"NoteNumber":63,"Velocity":37,"Duration":121988,"SoundDuration":121988,"Delta":223419445},{"NoteNumber":64,"Velocity":37,"Duration":121988,"SoundDuration":121988,"Delta":223541434},{"NoteNumber":80,"Velocity":48,"Duration":368960,"SoundDuration":368960,"Delta":223663422},{"NoteNumber":66,"Velocity":42,"Duration":121988,"SoundDuration":121988,"Delta":223663422},{"NoteNumber":64,"Velocity":37,"Duration":121988,"SoundDuration":121988,"Delta":223785410},{"NoteNumber":63,"Velocity":37,"Duration":124984,"SoundDuration":124984,"Delta":223907399},{"NoteNumber":73,"Velocity":40,"Duration":121988,"SoundDuration":121988,"Delta":224032383},{"NoteNumber":64,"Velocity":45,"Duration":731930,"SoundDuration":731930,"Delta":224032383},{"NoteNumber":75,"Velocity":35,"Duration":121988,"SoundDuration":121988,"Delta":224154371},{"NoteNumber":76,"Velocity":35,"Duration":121988,"SoundDuration":121988,"Delta":224276360},{"NoteNumber":75,"Velocity":46,"Duration":121988,"SoundDuration":121988,"Delta":224398348},{"NoteNumber":76,"Velocity":37,"Duration":121988,"SoundDuration":121988,"Delta":224520336},{"NoteNumber":78,"Velocity":37,"Duration":121988,"SoundDuration":121988,"Delta":224642325},{"NoteNumber":76,"Velocity":48,"Duration":121988,"SoundDuration":121988,"Delta":224764313},{"NoteNumber":61,"Velocity":37,"Duration":368579,"SoundDuration":368579,"Delta":224764313},{"NoteNumber":78,"Velocity":39,"Duration":121988,"SoundDuration":121988,"Delta":224886301},{"NoteNumber":80,"Velocity":38,"Duration":124602,"SoundDuration":124602,"Delta":225008290},{"NoteNumber":81,"Velocity":53,"Duration":731930,"SoundDuration":731930,"Delta":225132892},{"NoteNumber":60,"Velocity":40,"Duration":121988,"SoundDuration":121988,"Delta":225132892},{"NoteNumber":61,"Velocity":35,"Duration":121988,"SoundDuration":121988,"Delta":225254881},{"NoteNumber":63,"Velocity":35,"Duration":121988,"SoundDuration":121988,"Delta":225376869},{"NoteNumber":61,"Velocity":41,"Duration":121988,"SoundDuration":121988,"Delta":225498857},{"NoteNumber":63,"Velocity":37,"Duration":121988,"SoundDuration":121988,"Delta":225620846},{"NoteNumber":64,"Velocity":37,"Duration":121988,"SoundDuration":121988,"Delta":225742834},{"NoteNumber":80,"Velocity":48,"Duration":368192,"SoundDuration":368192,"Delta":225864822},{"NoteNumber":66,"Velocity":42,"Duration":121988,"SoundDuration":121988,"Delta":225864822},{"NoteNumber":64,"Velocity":37,"Duration":121988,"SoundDuration":121988,"Delta":225986811},{"NoteNumber":63,"Velocity":37,"Duration":124216,"SoundDuration":124216,"Delta":226108799},{"NoteNumber":76,"Velocity":46,"Duration":121988,"SoundDuration":121988,"Delta":226233015},{"NoteNumber":64,"Velocity":45,"Duration":1105362,"SoundDuration":1105362,"Delta":226233015},{"NoteNumber":78,"Velocity":38,"Duration":121988,"SoundDuration":121988,"Delta":226355003},{"NoteNumber":79,"Velocity":38,"Duration":121988,"SoundDuration":121988,"Delta":226476992},{"NoteNumber":78,"Velocity":51,"Duration":121988,"SoundDuration":121988,"Delta":226598980},{"NoteNumber":79,"Velocity":40,"Duration":121988,"SoundDuration":121988,"Delta":226720968},{"NoteNumber":81,"Velocity":40,"Duration":121988,"SoundDuration":121988,"Delta":226842957},{"NoteNumber":79,"Velocity":52,"Duration":123839,"SoundDuration":123839,"Delta":226964945},{"NoteNumber":81,"Velocity":42,"Duration":123838,"SoundDuration":123838,"Delta":227088784},{"NoteNumber":83,"Velocity":41,"Duration":125754,"SoundDuration":125754,"Delta":227212623},{"NoteNumber":84,"Velocity":58,"Duration":731930,"SoundDuration":731930,"Delta":227338378},{"NoteNumber":63,"Velocity":40,"Duration":121988,"SoundDuration":121988,"Delta":227338378},{"NoteNumber":64,"Velocity":35,"Duration":121988,"SoundDuration":121988,"Delta":227460366},{"NoteNumber":66,"Velocity":35,"Duration":121988,"SoundDuration":121988,"Delta":227582354},{"NoteNumber":64,"Velocity":41,"Duration":121988,"SoundDuration":121988,"Delta":227704343},{"NoteNumber":66,"Velocity":37,"Duration":121988,"SoundDuration":121988,"Delta":227826331},{"NoteNumber":67,"Velocity":37,"Duration":121988,"SoundDuration":121988,"Delta":227948319},{"NoteNumber":83,"Velocity":52,"Duration":379921,"SoundDuration":379921,"Delta":228070308},{"NoteNumber":69,"Velocity":42,"Duration":123076,"SoundDuration":123076,"Delta":228070308},{"NoteNumber":67,"Velocity":37,"Duration":123076,"SoundDuration":123076,"Delta":228193385},{"NoteNumber":66,"Velocity":37,"Duration":126143,"SoundDuration":126143,"Delta":228316462},{"NoteNumber":86,"Velocity":74,"Duration":731930,"SoundDuration":731930,"Delta":228442605},{"NoteNumber":65,"Velocity":40,"Duration":121988,"SoundDuration":121988,"Delta":228442605},{"NoteNumber":66,"Velocity":35,"Duration":121988,"SoundDuration":121988,"Delta":228564593},{"NoteNumber":68,"Velocity":35,"Duration":121988,"SoundDuration":121988,"Delta":228686582},{"NoteNumber":66,"Velocity":41,"Duration":121988,"SoundDuration":121988,"Delta":228808570},{"NoteNumber":68,"Velocity":37,"Duration":121988,"SoundDuration":121988,"Delta":228930558},{"NoteNumber":69,"Velocity":37,"Duration":121988,"SoundDuration":121988,"Delta":229052547},{"NoteNumber":85,"Velocity":63,"Duration":372699,"SoundDuration":372699,"Delta":229174535},{"NoteNumber":71,"Velocity":42,"Duration":123456,"SoundDuration":123456,"Delta":229174535},{"NoteNumber":69,"Velocity":37,"Duration":123456,"SoundDuration":123456,"Delta":229297992},{"NoteNumber":68,"Velocity":37,"Duration":125786,"SoundDuration":125786,"Delta":229421448},{"NoteNumber":78,"Velocity":58,"Duration":121988,"SoundDuration":121988,"Delta":229547234},{"NoteNumber":66,"Velocity":42,"Duration":365964,"SoundDuration":365964,"Delta":229547234},{"NoteNumber":80,"Velocity":50,"Duration":121988,"SoundDuration":121988,"Delta":229669223},{"NoteNumber":81,"Velocity":50,"Duration":121988,"SoundDuration":121988,"Delta":229791211},{"NoteNumber":80,"Velocity":60,"Duration":121988,"SoundDuration":121988,"Delta":229913199},{"NoteNumber":81,"Velocity":48,"Duration":121988,"SoundDuration":121988,"Delta":230035188},{"NoteNumber":83,"Velocity":48,"Duration":121988,"SoundDuration":121988,"Delta":230157176},{"NoteNumber":79,"Velocity":62,"Duration":371198,"SoundDuration":371198,"Delta":230279164},{"NoteNumber":85,"Velocity":62,"Duration":371198,"SoundDuration":371198,"Delta":230279164},{"NoteNumber":64,"Velocity":39,"Duration":122722,"SoundDuration":122722,"Delta":230279164},{"NoteNumber":70,"Velocity":36,"Duration":122721,"SoundDuration":122721,"Delta":230401886},{"NoteNumber":64,"Velocity":36,"Duration":125754,"SoundDuration":125754,"Delta":230524608},{"NoteNumber":90,"Velocity":57,"Duration":182982,"SoundDuration":182982,"Delta":230650363},{"NoteNumber":78,"Velocity":57,"Duration":182982,"SoundDuration":182982,"Delta":230650363},{"NoteNumber":63,"Velocity":40,"Duration":121988,"SoundDuration":121988,"Delta":230650363},{"NoteNumber":71,"Velocity":40,"Duration":121988,"SoundDuration":121988,"Delta":230650363},{"NoteNumber":64,"Velocity":35,"Duration":121988,"SoundDuration":121988,"Delta":230772351},{"NoteNumber":66,"Velocity":35,"Duration":121988,"SoundDuration":121988,"Delta":230894340},{"NoteNumber":64,"Velocity":41,"Duration":121988,"SoundDuration":121988,"Delta":231016328},{"NoteNumber":66,"Velocity":37,"Duration":121988,"SoundDuration":121988,"Delta":231138316},{"NoteNumber":67,"Velocity":37,"Duration":121988,"SoundDuration":121988,"Delta":231255730},{"NoteNumber":78,"Velocity":64,"Duration":123092,"SoundDuration":123092,"Delta":231382293},{"NoteNumber":75,"Velocity":41,"Duration":371552,"SoundDuration":371552,"Delta":231382293},{"NoteNumber":69,"Velocity":41,"Duration":371552,"SoundDuration":371552,"Delta":231382293},{"NoteNumber":83,"Velocity":55,"Duration":123091,"SoundDuration":123091,"Delta":231505385},{"NoteNumber":78,"Velocity":55,"Duration":125368,"SoundDuration":125368,"Delta":231628477},{"NoteNumber":88,"Velocity":63,"Duration":182982,"SoundDuration":182982,"Delta":231753845},{"NoteNumber":76,"Velocity":63,"Duration":121988,"SoundDuration":121988,"Delta":231753845},{"NoteNumber":68,"Velocity":41,"Duration":182982,"SoundDuration":182982,"Delta":231753845},{"NoteNumber":78,"Velocity":50,"Duration":121988,"SoundDuration":121988,"Delta":231875834},{"NoteNumber":80,"Velocity":50,"Duration":121988,"SoundDuration":121988,"Delta":231997822},{"NoteNumber":78,"Velocity":57,"Duration":121988,"SoundDuration":121988,"Delta":232119810},{"NoteNumber":80,"Velocity":48,"Duration":121988,"SoundDuration":121988,"Delta":232241799},{"NoteNumber":81,"Velocity":48,"Duration":121988,"SoundDuration":121988,"Delta":232363787},{"NoteNumber":77,"Velocity":65,"Duration":371168,"SoundDuration":371168,"Delta":232485775},{"NoteNumber":83,"Velocity":65,"Duration":371168,"SoundDuration":371168,"Delta":232485775},{"NoteNumber":62,"Velocity":40,"Duration":123092,"SoundDuration":123092,"Delta":232485775},{"NoteNumber":68,"Velocity":37,"Duration":123091,"SoundDuration":123091,"Delta":232608867},{"NoteNumber":62,"Velocity":37,"Duration":124984,"SoundDuration":124984,"Delta":232731959},{"NoteNumber":76,"Velocity":64,"Duration":182982,"SoundDuration":182982,"Delta":232856944},{"NoteNumber":88,"Velocity":64,"Duration":182982,"SoundDuration":182982,"Delta":232856944},{"NoteNumber":61,"Velocity":40,"Duration":121988,"SoundDuration":121988,"Delta":232856944},{"NoteNumber":69,"Velocity":40,"Duration":121988,"SoundDuration":121988,"Delta":232856944},{"NoteNumber":62,"Velocity":35,"Duration":121988,"SoundDuration":121988,"Delta":232978932},{"NoteNumber":64,"Velocity":35,"Duration":121988,"SoundDuration":121988,"Delta":233100920},{"NoteNumber":62,"Velocity":41,"Duration":121988,"SoundDuration":121988,"Delta":233222909},{"NoteNumber":64,"Velocity":37,"Duration":121988,"SoundDuration":121988,"Delta":233344897},{"NoteNumber":66,"Velocity":37,"Duration":121988,"SoundDuration":121988,"Delta":233466885},{"NoteNumber":76,"Velocity":65,"Duration":123839,"SoundDuration":123839,"Delta":233588874},{"NoteNumber":67,"Velocity":41,"Duration":375001,"SoundDuration":375001,"Delta":233588874},{"NoteNumber":73,"Velocity":41,"Duration":375001,"SoundDuration":375001,"Delta":233588874},{"NoteNumber":81,"Velocity":55,"Duration":123838,"SoundDuration":123838,"Delta":233712713},{"NoteNumber":76,"Velocity":55,"Duration":127323,"SoundDuration":127323,"Delta":233836552},{"NoteNumber":74,"Velocity":66,"Duration":121988,"SoundDuration":121988,"Delta":233963875},{"NoteNumber":86,"Velocity":66,"Duration":182982,"SoundDuration":182982,"Delta":233963875},{"NoteNumber":66,"Velocity":41,"Duration":182982,"SoundDuration":182982,"Delta":233963875},{"NoteNumber":76,"Velocity":50,"Duration":121988,"SoundDuration":121988,"Delta":234085864},{"NoteNumber":78,"Velocity":50,"Duration":121988,"SoundDuration":121988,"Delta":234207852},{"NoteNumber":76,"Velocity":57,"Duration":121988,"SoundDuration":121988,"Delta":234329840},{"NoteNumber":78,"Velocity":48,"Duration":121988,"SoundDuration":121988,"Delta":234451829},{"NoteNumber":79,"Velocity":48,"Duration":121988,"SoundDuration":121988,"Delta":234573817},{"NoteNumber":81,"Velocity":69,"Duration":373263,"SoundDuration":373263,"Delta":234695805},{"NoteNumber":74,"Velocity":69,"Duration":739228,"SoundDuration":739228,"Delta":234695805},{"NoteNumber":86,"Velocity":69,"Duration":739228,"SoundDuration":739228,"Delta":234695805},{"NoteNumber":65,"Velocity":41,"Duration":123839,"SoundDuration":123839,"Delta":234695805},{"NoteNumber":69,"Velocity":37,"Duration":123838,"SoundDuration":123838,"Delta":234819644},{"NoteNumber":65,"Velocity":37,"Duration":125585,"SoundDuration":125585,"Delta":234943483},{"NoteNumber":80,"Velocity":67,"Duration":365964,"SoundDuration":365964,"Delta":235069069},{"NoteNumber":64,"Velocity":40,"Duration":121988,"SoundDuration":121988,"Delta":235069069},{"NoteNumber":66,"Velocity":35,"Duration":121988,"SoundDuration":121988,"Delta":235191057},{"NoteNumber":68,"Velocity":35,"Duration":121988,"SoundDuration":121988,"Delta":235313046},{"NoteNumber":66,"Velocity":41,"Duration":121988,"SoundDuration":121988,"Delta":235435034},{"NoteNumber":68,"Velocity":37,"Duration":121988,"SoundDuration":121988,"Delta":235557022},{"NoteNumber":69,"Velocity":37,"Duration":121988,"SoundDuration":121988,"Delta":235679011},{"NoteNumber":81,"Velocity":65,"Duration":124215,"SoundDuration":124215,"Delta":235800999},{"NoteNumber":65,"Velocity":41,"Duration":374966,"SoundDuration":374966,"Delta":235800999},{"NoteNumber":71,"Velocity":41,"Duration":740931,"SoundDuration":740931,"Delta":235800999},{"NoteNumber":74,"Velocity":41,"Duration":740931,"SoundDuration":740931,"Delta":235800999},{"NoteNumber":86,"Velocity":55,"Duration":124215,"SoundDuration":124215,"Delta":235925215},{"NoteNumber":81,"Velocity":56,"Duration":126534,"SoundDuration":126534,"Delta":236049431},{"NoteNumber":80,"Velocity":65,"Duration":121988,"SoundDuration":121988,"Delta":236175965},{"NoteNumber":64,"Velocity":41,"Duration":365964,"SoundDuration":365964,"Delta":236175965},{"NoteNumber":81,"Velocity":53,"Duration":121988,"SoundDuration":121988,"Delta":236297954},{"NoteNumber":83,"Velocity":53,"Duration":121988,"SoundDuration":121988,"Delta":236419942},{"NoteNumber":81,"Velocity":62,"Duration":121988,"SoundDuration":121988,"Delta":236541930},{"NoteNumber":83,"Velocity":52,"Duration":121988,"SoundDuration":121988,"Delta":236663919},{"NoteNumber":84,"Velocity":52,"Duration":121988,"SoundDuration":121988,"Delta":236785907},{"NoteNumber":81,"Velocity":69,"Duration":374575,"SoundDuration":374575,"Delta":236907895},{"NoteNumber":74,"Velocity":69,"Duration":740540,"SoundDuration":740540,"Delta":236907895},{"NoteNumber":86,"Velocity":69,"Duration":740540,"SoundDuration":740540,"Delta":236907895},{"NoteNumber":65,"Velocity":39,"Duration":124215,"SoundDuration":124215,"Delta":236907895},{"NoteNumber":69,"Velocity":37,"Duration":124215,"SoundDuration":124215,"Delta":237032111},{"NoteNumber":65,"Velocity":38,"Duration":126143,"SoundDuration":126143,"Delta":237156327},{"NoteNumber":80,"Velocity":68,"Duration":365964,"SoundDuration":365964,"Delta":237282471},{"NoteNumber":64,"Velocity":40,"Duration":121988,"SoundDuration":121988,"Delta":237282471},{"NoteNumber":66,"Velocity":35,"Duration":121988,"SoundDuration":121988,"Delta":237404459},{"NoteNumber":68,"Velocity":35,"Duration":121988,"SoundDuration":121988,"Delta":237526447},{"NoteNumber":66,"Velocity":41,"Duration":121988,"SoundDuration":121988,"Delta":237648436},{"NoteNumber":68,"Velocity":37,"Duration":121988,"SoundDuration":121988,"Delta":237770424},{"NoteNumber":69,"Velocity":37,"Duration":121988,"SoundDuration":121988,"Delta":237892412},{"NoteNumber":81,"Velocity":65,"Duration":123092,"SoundDuration":123092,"Delta":238014401},{"NoteNumber":71,"Velocity":41,"Duration":737903,"SoundDuration":737903,"Delta":238014401},{"NoteNumber":74,"Velocity":41,"Duration":737903,"SoundDuration":737903,"Delta":238014401},{"NoteNumber":65,"Velocity":41,"Duration":371938,"SoundDuration":371938,"Delta":238014401},{"NoteNumber":86,"Velocity":57,"Duration":123091,"SoundDuration":123091,"Delta":238137493},{"NoteNumber":81,"Velocity":57,"Duration":125754,"SoundDuration":125754,"Delta":238260585},{"NoteNumber":80,"Velocity":64,"Duration":121988,"SoundDuration":121988,"Delta":238386339},{"NoteNumber":64,"Velocity":41,"Duration":365964,"SoundDuration":365964,"Delta":238386339},{"NoteNumber":81,"Velocity":50,"Duration":121988,"SoundDuration":121988,"Delta":238508328},{"NoteNumber":83,"Velocity":50,"Duration":121988,"SoundDuration":121988,"Delta":238630316},{"NoteNumber":81,"Velocity":57,"Duration":121988,"SoundDuration":121988,"Delta":238752304},{"NoteNumber":83,"Velocity":48,"Duration":121988,"SoundDuration":121988,"Delta":238874293},{"NoteNumber":84,"Velocity":48,"Duration":121988,"SoundDuration":121988,"Delta":238996281},{"NoteNumber":81,"Velocity":68,"Duration":370042,"SoundDuration":370042,"Delta":239118269},{"NoteNumber":74,"Velocity":68,"Duration":733404,"SoundDuration":733404,"Delta":239118269},{"NoteNumber":86,"Velocity":68,"Duration":733404,"SoundDuration":733404,"Delta":239118269},{"NoteNumber":65,"Velocity":45,"Duration":123092,"SoundDuration":123092,"Delta":239118269},{"NoteNumber":69,"Velocity":38,"Duration":123091,"SoundDuration":123091,"Delta":239241361},{"NoteNumber":65,"Velocity":38,"Duration":123858,"SoundDuration":123858,"Delta":239364453},{"NoteNumber":80,"Velocity":67,"Duration":363361,"SoundDuration":363361,"Delta":239488312},{"NoteNumber":64,"Velocity":45,"Duration":121212,"SoundDuration":121212,"Delta":239488312},{"NoteNumber":66,"Velocity":36,"Duration":121211,"SoundDuration":121211,"Delta":239609524},{"NoteNumber":68,"Velocity":36,"Duration":120937,"SoundDuration":120937,"Delta":239730736},{"NoteNumber":66,"Velocity":46,"Duration":120846,"SoundDuration":120846,"Delta":239851674},{"NoteNumber":68,"Velocity":37,"Duration":120664,"SoundDuration":120664,"Delta":239972520},{"NoteNumber":69,"Velocity":37,"Duration":120482,"SoundDuration":120482,"Delta":240093184},{"NoteNumber":68,"Velocity":47,"Duration":120391,"SoundDuration":120391,"Delta":240213666},{"NoteNumber":69,"Velocity":41,"Duration":120119,"SoundDuration":120119,"Delta":240334057},{"NoteNumber":71,"Velocity":42,"Duration":120120,"SoundDuration":120120,"Delta":240454177},{"NoteNumber":69,"Velocity":50,"Duration":119760,"SoundDuration":119760,"Delta":240574297},{"NoteNumber":71,"Velocity":46,"Duration":119760,"SoundDuration":119760,"Delta":240694057},{"NoteNumber":72,"Velocity":46,"Duration":119760,"SoundDuration":119760,"Delta":240813818},{"NoteNumber":71,"Velocity":50,"Duration":119760,"SoundDuration":119760,"Delta":240933578},{"NoteNumber":72,"Velocity":46,"Duration":119760,"SoundDuration":119760,"Delta":241053338},{"NoteNumber":74,"Velocity":46,"Duration":122421,"SoundDuration":122421,"Delta":241173099},{"NoteNumber":76,"Velocity":65,"Duration":358080,"SoundDuration":358080,"Delta":241295520},{"NoteNumber":64,"Velocity":50,"Duration":119360,"SoundDuration":119360,"Delta":241295520},{"NoteNumber":66,"Velocity":44,"Duration":119360,"SoundDuration":119360,"Delta":241414880},{"NoteNumber":68,"Velocity":44,"Duration":119360,"SoundDuration":119360,"Delta":241534241},{"NoteNumber":69,"Velocity":50,"Duration":119360,"SoundDuration":119360,"Delta":241653601},{"NoteNumber":66,"Velocity":52,"Duration":119360,"SoundDuration":119360,"Delta":241653601},{"NoteNumber":71,"Velocity":45,"Duration":119360,"SoundDuration":119360,"Delta":241772961},{"NoteNumber":68,"Velocity":45,"Duration":119360,"SoundDuration":119360,"Delta":241772961},{"NoteNumber":72,"Velocity":45,"Duration":119360,"SoundDuration":119360,"Delta":241892322},{"NoteNumber":69,"Velocity":45,"Duration":119360,"SoundDuration":119360,"Delta":241892322},{"NoteNumber":71,"Velocity":70,"Duration":362048,"SoundDuration":362048,"Delta":242011682},{"NoteNumber":72,"Velocity":44,"Duration":119360,"SoundDuration":119360,"Delta":242131042},{"NoteNumber":74,"Velocity":44,"Duration":123327,"SoundDuration":123327,"Delta":242250403},{"NoteNumber":76,"Velocity":65,"Duration":362048,"SoundDuration":362048,"Delta":242373730},{"NoteNumber":64,"Velocity":50,"Duration":119360,"SoundDuration":119360,"Delta":242373730},{"NoteNumber":66,"Velocity":46,"Duration":119360,"SoundDuration":119360,"Delta":242493090},{"NoteNumber":68,"Velocity":46,"Duration":123327,"SoundDuration":123327,"Delta":242612451},{"NoteNumber":69,"Velocity":50,"Duration":119360,"SoundDuration":119360,"Delta":242735778},{"NoteNumber":66,"Velocity":50,"Duration":119360,"SoundDuration":119360,"Delta":242735778},{"NoteNumber":71,"Velocity":45,"Duration":119360,"SoundDuration":119360,"Delta":242855138},{"NoteNumber":68,"Velocity":45,"Duration":119360,"SoundDuration":119360,"Delta":242855138},{"NoteNumber":72,"Velocity":45,"Duration":121973,"SoundDuration":121973,"Delta":242974499},{"NoteNumber":69,"Velocity":45,"Duration":121973,"SoundDuration":121973,"Delta":242974499},{"NoteNumber":71,"Velocity":66,"Duration":360694,"SoundDuration":360694,"Delta":243096472},{"NoteNumber":72,"Velocity":45,"Duration":119360,"SoundDuration":119360,"Delta":243215833},{"NoteNumber":74,"Velocity":45,"Duration":121973,"SoundDuration":121973,"Delta":243335193},{"NoteNumber":72,"Velocity":50,"Duration":119360,"SoundDuration":119360,"Delta":243457167},{"NoteNumber":69,"Velocity":50,"Duration":119360,"SoundDuration":119360,"Delta":243457167},{"NoteNumber":74,"Velocity":48,"Duration":119360,"SoundDuration":119360,"Delta":243576527},{"NoteNumber":71,"Velocity":50,"Duration":119360,"SoundDuration":119360,"Delta":243576527},{"NoteNumber":76,"Velocity":50,"Duration":119360,"SoundDuration":119360,"Delta":243695887},{"NoteNumber":72,"Velocity":51,"Duration":119360,"SoundDuration":119360,"Delta":243695887},{"NoteNumber":77,"Velocity":50,"Duration":119467,"SoundDuration":119467,"Delta":243815248},{"NoteNumber":74,"Velocity":52,"Duration":119467,"SoundDuration":119467,"Delta":243815248},{"NoteNumber":79,"Velocity":54,"Duration":120113,"SoundDuration":120113,"Delta":243934715},{"NoteNumber":76,"Velocity":53,"Duration":120113,"SoundDuration":120113,"Delta":243934715},{"NoteNumber":81,"Velocity":58,"Duration":120875,"SoundDuration":120875,"Delta":244054829},{"NoteNumber":77,"Velocity":56,"Duration":120875,"SoundDuration":120875,"Delta":244054829},{"NoteNumber":79,"Velocity":61,"Duration":119789,"SoundDuration":119789,"Delta":244175704},{"NoteNumber":76,"Velocity":60,"Duration":119789,"SoundDuration":119789,"Delta":244175704},{"NoteNumber":77,"Velocity":56,"Duration":119789,"SoundDuration":119789,"Delta":244295494},{"NoteNumber":74,"Velocity":55,"Duration":119789,"SoundDuration":119789,"Delta":244295494},{"NoteNumber":76,"Velocity":53,"Duration":119789,"SoundDuration":119789,"Delta":244415283},{"NoteNumber":72,"Velocity":51,"Duration":119789,"SoundDuration":119789,"Delta":244415283},{"NoteNumber":74,"Velocity":55,"Duration":119789,"SoundDuration":119789,"Delta":244535072},{"NoteNumber":71,"Velocity":55,"Duration":119789,"SoundDuration":119789,"Delta":244535072},{"NoteNumber":72,"Velocity":52,"Duration":119789,"SoundDuration":119789,"Delta":244654862},{"NoteNumber":69,"Velocity":52,"Duration":119789,"SoundDuration":119789,"Delta":244654862},{"NoteNumber":71,"Velocity":48,"Duration":127795,"SoundDuration":127795,"Delta":244774651},{"NoteNumber":67,"Velocity":50,"Duration":127795,"SoundDuration":127795,"Delta":244774651},{"NoteNumber":69,"Velocity":56,"Duration":124610,"SoundDuration":124610,"Delta":244902447},{"NoteNumber":65,"Velocity":59,"Duration":140186,"SoundDuration":140186,"Delta":244902447},{"NoteNumber":71,"Velocity":50,"Duration":124610,"SoundDuration":124610,"Delta":245027057},{"NoteNumber":72,"Velocity":50,"Duration":124610,"SoundDuration":124610,"Delta":245151668},{"NoteNumber":71,"Velocity":53,"Duration":123076,"SoundDuration":123076,"Delta":245276279},{"NoteNumber":60,"Velocity":56,"Duration":138461,"SoundDuration":138461,"Delta":245276279},{"NoteNumber":69,"Velocity":48,"Duration":123076,"SoundDuration":123076,"Delta":245399356},{"NoteNumber":67,"Velocity":48,"Duration":123077,"SoundDuration":123077,"Delta":245522433},{"NoteNumber":65,"Velocity":53,"Duration":123839,"SoundDuration":123839,"Delta":245645510},{"NoteNumber":57,"Velocity":50,"Duration":139318,"SoundDuration":139318,"Delta":245645510},{"NoteNumber":64,"Velocity":47,"Duration":123838,"SoundDuration":123838,"Delta":245769349},{"NoteNumber":63,"Velocity":47,"Duration":125392,"SoundDuration":125392,"Delta":245893188},{"NoteNumber":64,"Velocity":57,"Duration":363095,"SoundDuration":363095,"Delta":246018580},{"NoteNumber":56,"Velocity":53,"Duration":121766,"SoundDuration":121766,"Delta":246018580},{"NoteNumber":54,"Velocity":48,"Duration":121028,"SoundDuration":121028,"Delta":246140346},{"NoteNumber":52,"Velocity":48,"Duration":120301,"SoundDuration":120301,"Delta":246261375},{"NoteNumber":51,"Velocity":52,"Duration":120120,"SoundDuration":120120,"Delta":246381676},{"NoteNumber":49,"Velocity":47,"Duration":121397,"SoundDuration":121397,"Delta":246501796},{"NoteNumber":47,"Velocity":48,"Duration":123327,"SoundDuration":123327,"Delta":246623194},{"NoteNumber":59,"Velocity":50,"Duration":119760,"SoundDuration":119760,"Delta":246746521},{"NoteNumber":57,"Velocity":64,"Duration":359281,"SoundDuration":359281,"Delta":246746521},{"NoteNumber":61,"Velocity":45,"Duration":119760,"SoundDuration":119760,"Delta":246866281},{"NoteNumber":63,"Velocity":45,"Duration":119760,"SoundDuration":119760,"Delta":246986042},{"NoteNumber":64,"Velocity":54,"Duration":121212,"SoundDuration":121212,"Delta":247105802},{"NoteNumber":56,"Velocity":54,"Duration":121212,"SoundDuration":121212,"Delta":247105802},{"NoteNumber":66,"Velocity":49,"Duration":121211,"SoundDuration":121211,"Delta":247227014},{"NoteNumber":54,"Velocity":49,"Duration":121211,"SoundDuration":121211,"Delta":247227014},{"NoteNumber":68,"Velocity":49,"Duration":123327,"SoundDuration":123327,"Delta":247348226},{"NoteNumber":52,"Velocity":49,"Duration":123327,"SoundDuration":123327,"Delta":247348226},{"NoteNumber":69,"Velocity":59,"Duration":362048,"SoundDuration":362048,"Delta":247471553},{"NoteNumber":51,"Velocity":53,"Duration":119360,"SoundDuration":119360,"Delta":247471553},{"NoteNumber":49,"Velocity":47,"Duration":119360,"SoundDuration":119360,"Delta":247590914},{"NoteNumber":47,"Velocity":47,"Duration":123327,"SoundDuration":123327,"Delta":247710274},{"NoteNumber":59,"Velocity":50,"Duration":119047,"SoundDuration":119047,"Delta":247833601},{"NoteNumber":57,"Velocity":64,"Duration":357143,"SoundDuration":357143,"Delta":247833601},{"NoteNumber":61,"Velocity":45,"Duration":119047,"SoundDuration":119047,"Delta":247952649},{"NoteNumber":63,"Velocity":45,"Duration":119047,"SoundDuration":119047,"Delta":248071697},{"NoteNumber":64,"Velocity":54,"Duration":120482,"SoundDuration":120482,"Delta":248190744},{"NoteNumber":56,"Velocity":54,"Duration":120482,"SoundDuration":120482,"Delta":248190744},{"NoteNumber":66,"Velocity":48,"Duration":120481,"SoundDuration":120481,"Delta":248311226},{"NoteNumber":54,"Velocity":47,"Duration":120481,"SoundDuration":120481,"Delta":248311226},{"NoteNumber":68,"Velocity":48,"Duration":123785,"SoundDuration":123785,"Delta":248431708},{"NoteNumber":52,"Velocity":47,"Duration":123785,"SoundDuration":123785,"Delta":248431708},{"NoteNumber":69,"Velocity":58,"Duration":361593,"SoundDuration":361593,"Delta":248555494},{"NoteNumber":51,"Velocity":52,"Duration":119360,"SoundDuration":119360,"Delta":248555494},{"NoteNumber":49,"Velocity":44,"Duration":119360,"SoundDuration":119360,"Delta":248674854},{"NoteNumber":47,"Velocity":44,"Duration":122872,"SoundDuration":122872,"Delta":248794214},{"NoteNumber":59,"Velocity":50,"Duration":119360,"SoundDuration":119360,"Delta":248917087},{"NoteNumber":57,"Velocity":64,"Duration":358080,"SoundDuration":358080,"Delta":248917087},{"NoteNumber":61,"Velocity":46,"Duration":119360,"SoundDuration":119360,"Delta":249036447},{"NoteNumber":63,"Velocity":46,"Duration":119360,"SoundDuration":119360,"Delta":249155808},{"NoteNumber":64,"Velocity":54,"Duration":120482,"SoundDuration":120482,"Delta":249275168},{"NoteNumber":56,"Velocity":50,"Duration":120482,"SoundDuration":120482,"Delta":249275168},{"NoteNumber":66,"Velocity":47,"Duration":120481,"SoundDuration":120481,"Delta":249395650},{"NoteNumber":54,"Velocity":43,"Duration":120481,"SoundDuration":120481,"Delta":249395650},{"NoteNumber":68,"Velocity":47,"Duration":123327,"SoundDuration":123327,"Delta":249516132},{"NoteNumber":52,"Velocity":43,"Duration":123327,"SoundDuration":123327,"Delta":249516132},{"NoteNumber":66,"Velocity":60,"Duration":119360,"SoundDuration":119360,"Delta":249639459},{"NoteNumber":54,"Velocity":52,"Duration":119360,"SoundDuration":119360,"Delta":249639459},{"NoteNumber":68,"Velocity":53,"Duration":119360,"SoundDuration":119360,"Delta":249758820},{"NoteNumber":52,"Velocity":44,"Duration":119360,"SoundDuration":119360,"Delta":249758820},{"NoteNumber":69,"Velocity":53,"Duration":122421,"SoundDuration":122421,"Delta":249878180},{"NoteNumber":51,"Velocity":44,"Duration":122421,"SoundDuration":122421,"Delta":249878180},{"NoteNumber":68,"Velocity":64,"Duration":119360,"SoundDuration":119360,"Delta":250000601},{"NoteNumber":52,"Velocity":52,"Duration":119360,"SoundDuration":119360,"Delta":250000601},{"NoteNumber":69,"Velocity":58,"Duration":119360,"SoundDuration":119360,"Delta":250119962},{"NoteNumber":51,"Velocity":47,"Duration":119360,"SoundDuration":119360,"Delta":250119962},{"NoteNumber":71,"Velocity":60,"Duration":122421,"SoundDuration":122421,"Delta":250239322},{"NoteNumber":50,"Velocity":47,"Duration":122421,"SoundDuration":122421,"Delta":250239322},{"NoteNumber":69,"Velocity":68,"Duration":118941,"SoundDuration":118941,"Delta":250361743},{"NoteNumber":52,"Velocity":56,"Duration":118941,"SoundDuration":118941,"Delta":250361743},{"NoteNumber":71,"Velocity":60,"Duration":119150,"SoundDuration":119150,"Delta":250480685},{"NoteNumber":50,"Velocity":52,"Duration":119150,"SoundDuration":119150,"Delta":250480685},{"NoteNumber":72,"Velocity":63,"Duration":119467,"SoundDuration":119467,"Delta":250599835},{"NoteNumber":48,"Velocity":53,"Duration":119467,"SoundDuration":119467,"Delta":250599835},{"NoteNumber":71,"Velocity":73,"Duration":119789,"SoundDuration":119789,"Delta":250719303},{"NoteNumber":50,"Velocity":58,"Duration":119789,"SoundDuration":119789,"Delta":250719303},{"NoteNumber":72,"Velocity":63,"Duration":120221,"SoundDuration":120221,"Delta":250839092},{"NoteNumber":48,"Velocity":55,"Duration":120221,"SoundDuration":120221,"Delta":250839092},{"NoteNumber":74,"Velocity":68,"Duration":120547,"SoundDuration":120547,"Delta":250959314},{"NoteNumber":47,"Velocity":55,"Duration":120547,"SoundDuration":120547,"Delta":250959314},{"NoteNumber":72,"Velocity":79,"Duration":120875,"SoundDuration":120875,"Delta":251079861},{"NoteNumber":48,"Velocity":65,"Duration":120875,"SoundDuration":120875,"Delta":251079861},{"NoteNumber":74,"Velocity":68,"Duration":121205,"SoundDuration":121205,"Delta":251200737},{"NoteNumber":47,"Velocity":59,"Duration":121205,"SoundDuration":121205,"Delta":251200737},{"NoteNumber":76,"Velocity":74,"Duration":121536,"SoundDuration":121536,"Delta":251321942},{"NoteNumber":45,"Velocity":59,"Duration":121536,"SoundDuration":121536,"Delta":251321942},{"NoteNumber":65,"Velocity":93,"Duration":119047,"SoundDuration":119047,"Delta":251443478},{"NoteNumber":62,"Velocity":91,"Duration":119047,"SoundDuration":119047,"Delta":251443478},{"NoteNumber":70,"Velocity":79,"Duration":119402,"SoundDuration":119402,"Delta":251562526},{"NoteNumber":58,"Velocity":79,"Duration":119402,"SoundDuration":119402,"Delta":251562526},{"NoteNumber":74,"Velocity":77,"Duration":119850,"SoundDuration":119850,"Delta":251681929},{"NoteNumber":53,"Velocity":77,"Duration":119850,"SoundDuration":119850,"Delta":251681929},{"NoteNumber":77,"Velocity":90,"Duration":120210,"SoundDuration":120210,"Delta":251801779},{"NoteNumber":50,"Velocity":85,"Duration":120210,"SoundDuration":120210,"Delta":251801779},{"NoteNumber":82,"Velocity":79,"Duration":120663,"SoundDuration":120663,"Delta":251921990},{"NoteNumber":46,"Velocity":75,"Duration":120663,"SoundDuration":120663,"Delta":251921990},{"NoteNumber":86,"Velocity":79,"Duration":121028,"SoundDuration":121028,"Delta":252042654},{"NoteNumber":41,"Velocity":75,"Duration":121028,"SoundDuration":121028,"Delta":252042654},{"NoteNumber":89,"Velocity":89,"Duration":122051,"SoundDuration":122051,"Delta":252163683},{"NoteNumber":38,"Velocity":84,"Duration":122051,"SoundDuration":122051,"Delta":252163683},{"NoteNumber":94,"Velocity":78,"Duration":125597,"SoundDuration":125597,"Delta":252285734},{"NoteNumber":34,"Velocity":76,"Duration":125597,"SoundDuration":125597,"Delta":252285734},{"NoteNumber":98,"Velocity":78,"Duration":129354,"SoundDuration":129354,"Delta":252411332},{"NoteNumber":29,"Velocity":76,"Duration":129354,"SoundDuration":129354,"Delta":252411332},{"NoteNumber":101,"Velocity":96,"Duration":101010,"SoundDuration":101010,"Delta":252540686},{"NoteNumber":26,"Velocity":88,"Duration":101010,"SoundDuration":101010,"Delta":252540686},{"NoteNumber":72,"Velocity":79,"Duration":206896,"SoundDuration":206896,"Delta":252944726},{"NoteNumber":64,"Velocity":79,"Duration":206896,"SoundDuration":206896,"Delta":252944726},{"NoteNumber":69,"Velocity":79,"Duration":206896,"SoundDuration":206896,"Delta":252944726},{"NoteNumber":76,"Velocity":93,"Duration":206896,"SoundDuration":206896,"Delta":252944726},{"NoteNumber":60,"Velocity":83,"Duration":206896,"SoundDuration":206896,"Delta":252944726},{"NoteNumber":52,"Velocity":70,"Duration":206896,"SoundDuration":206896,"Delta":252944726},{"NoteNumber":57,"Velocity":70,"Duration":206896,"SoundDuration":206896,"Delta":252944726},{"NoteNumber":68,"Velocity":74,"Duration":211587,"SoundDuration":211587,"Delta":253358519},{"NoteNumber":76,"Velocity":88,"Duration":211587,"SoundDuration":211587,"Delta":253358519},{"NoteNumber":71,"Velocity":74,"Duration":211587,"SoundDuration":211587,"Delta":253358519},{"NoteNumber":64,"Velocity":74,"Duration":211587,"SoundDuration":211587,"Delta":253358519},{"NoteNumber":52,"Velocity":63,"Duration":211587,"SoundDuration":211587,"Delta":253358519},{"NoteNumber":59,"Velocity":75,"Duration":211587,"SoundDuration":211587,"Delta":253358519},{"NoteNumber":56,"Velocity":63,"Duration":211587,"SoundDuration":211587,"Delta":253358519},{"NoteNumber":69,"Velocity":67,"Duration":365751,"SoundDuration":365751,"Delta":253782121},{"NoteNumber":60,"Velocity":62,"Duration":121212,"SoundDuration":121212,"Delta":253782121},{"NoteNumber":59,"Velocity":56,"Duration":121211,"SoundDuration":121211,"Delta":253903333},{"NoteNumber":57,"Velocity":56,"Duration":123327,"SoundDuration":123327,"Delta":254024545},{"NoteNumber":56,"Velocity":61,"Duration":119360,"SoundDuration":119360,"Delta":254147872},{"NoteNumber":54,"Velocity":55,"Duration":119360,"SoundDuration":119360,"Delta":254267233},{"NoteNumber":52,"Velocity":54,"Duration":123327,"SoundDuration":123327,"Delta":254386593},{"NoteNumber":64,"Velocity":66,"Duration":119047,"SoundDuration":119047,"Delta":254509920},{"NoteNumber":62,"Velocity":67,"Duration":357143,"SoundDuration":357143,"Delta":254509920},{"NoteNumber":66,"Velocity":54,"Duration":119047,"SoundDuration":119047,"Delta":254628968},{"NoteNumber":68,"Velocity":53,"Duration":119047,"SoundDuration":119047,"Delta":254748016},{"NoteNumber":69,"Velocity":64,"Duration":120482,"SoundDuration":120482,"Delta":254867063},{"NoteNumber":60,"Velocity":61,"Duration":120482,"SoundDuration":120482,"Delta":254867063},{"NoteNumber":71,"Velocity":55,"Duration":120481,"SoundDuration":120481,"Delta":254987545},{"NoteNumber":59,"Velocity":55,"Duration":120481,"SoundDuration":120481,"Delta":254987545},{"NoteNumber":72,"Velocity":55,"Duration":123785,"SoundDuration":123785,"Delta":255108027},{"NoteNumber":57,"Velocity":55,"Duration":123785,"SoundDuration":123785,"Delta":255108027},{"NoteNumber":74,"Velocity":65,"Duration":361593,"SoundDuration":361593,"Delta":255231813},{"NoteNumber":56,"Velocity":60,"Duration":119360,"SoundDuration":119360,"Delta":255231813},{"NoteNumber":54,"Velocity":54,"Duration":119360,"SoundDuration":119360,"Delta":255351173},{"NoteNumber":52,"Velocity":54,"Duration":122872,"SoundDuration":122872,"Delta":255470533},{"NoteNumber":64,"Velocity":64,"Duration":119360,"SoundDuration":119360,"Delta":255593406},{"NoteNumber":62,"Velocity":68,"Duration":358080,"SoundDuration":358080,"Delta":255593406},{"NoteNumber":66,"Velocity":58,"Duration":119360,"SoundDuration":119360,"Delta":255712766},{"NoteNumber":68,"Velocity":58,"Duration":119360,"SoundDuration":119360,"Delta":255832127},{"NoteNumber":69,"Velocity":64,"Duration":120482,"SoundDuration":120482,"Delta":255951487},{"NoteNumber":60,"Velocity":61,"Duration":120482,"SoundDuration":120482,"Delta":255951487},{"NoteNumber":71,"Velocity":55,"Duration":120481,"SoundDuration":120481,"Delta":256071969},{"NoteNumber":59,"Velocity":55,"Duration":120481,"SoundDuration":120481,"Delta":256071969},{"NoteNumber":72,"Velocity":55,"Duration":123785,"SoundDuration":123785,"Delta":256192451},{"NoteNumber":57,"Velocity":55,"Duration":123785,"SoundDuration":123785,"Delta":256192451},{"NoteNumber":74,"Velocity":65,"Duration":361593,"SoundDuration":361593,"Delta":256316236},{"NoteNumber":56,"Velocity":60,"Duration":119360,"SoundDuration":119360,"Delta":256316236},{"NoteNumber":54,"Velocity":54,"Duration":119360,"SoundDuration":119360,"Delta":256435597},{"NoteNumber":52,"Velocity":54,"Duration":122872,"SoundDuration":122872,"Delta":256554957},{"NoteNumber":64,"Velocity":64,"Duration":119360,"SoundDuration":119360,"Delta":256677830},{"NoteNumber":62,"Velocity":68,"Duration":358081,"SoundDuration":358081,"Delta":256677830},{"NoteNumber":66,"Velocity":58,"Duration":119360,"SoundDuration":119360,"Delta":256797190},{"NoteNumber":68,"Velocity":58,"Duration":119360,"SoundDuration":119360,"Delta":256916550},{"NoteNumber":69,"Velocity":68,"Duration":119360,"SoundDuration":119360,"Delta":257035911},{"NoteNumber":60,"Velocity":64,"Duration":119360,"SoundDuration":119360,"Delta":257035911},{"NoteNumber":71,"Velocity":60,"Duration":119360,"SoundDuration":119360,"Delta":257155271},{"NoteNumber":59,"Velocity":57,"Duration":119360,"SoundDuration":119360,"Delta":257155271},{"NoteNumber":72,"Velocity":63,"Duration":119467,"SoundDuration":119467,"Delta":257274631},{"NoteNumber":57,"Velocity":57,"Duration":119467,"SoundDuration":119467,"Delta":257274631},{"NoteNumber":71,"Velocity":73,"Duration":119789,"SoundDuration":119789,"Delta":257394099},{"NoteNumber":56,"Velocity":67,"Duration":119789,"SoundDuration":119789,"Delta":257394099},{"NoteNumber":72,"Velocity":63,"Duration":120221,"SoundDuration":120221,"Delta":257513888},{"NoteNumber":57,"Velocity":56,"Duration":120221,"SoundDuration":120221,"Delta":257513888},{"NoteNumber":74,"Velocity":68,"Duration":120547,"SoundDuration":120547,"Delta":257634110},{"NoteNumber":59,"Velocity":56,"Duration":120547,"SoundDuration":120547,"Delta":257634110},{"NoteNumber":72,"Velocity":79,"Duration":121350,"SoundDuration":121350,"Delta":257754657},{"NoteNumber":57,"Velocity":72,"Duration":121350,"SoundDuration":121350,"Delta":257754657},{"NoteNumber":74,"Velocity":68,"Duration":123364,"SoundDuration":123364,"Delta":257876007},{"NoteNumber":59,"Velocity":64,"Duration":123364,"SoundDuration":123364,"Delta":257876007},{"NoteNumber":76,"Velocity":74,"Duration":129870,"SoundDuration":129870,"Delta":257999371},{"NoteNumber":60,"Velocity":64,"Duration":129870,"SoundDuration":129870,"Delta":257999371},{"NoteNumber":65,"Velocity":93,"Duration":119047,"SoundDuration":119047,"Delta":258129241},{"NoteNumber":62,"Velocity":91,"Duration":119047,"SoundDuration":119047,"Delta":258129241},{"NoteNumber":70,"Velocity":79,"Duration":119402,"SoundDuration":119402,"Delta":258248289},{"NoteNumber":58,"Velocity":79,"Duration":119402,"SoundDuration":119402,"Delta":258248289},{"NoteNumber":74,"Velocity":79,"Duration":119850,"SoundDuration":119850,"Delta":258367692},{"NoteNumber":53,"Velocity":79,"Duration":119850,"SoundDuration":119850,"Delta":258367692},{"NoteNumber":77,"Velocity":90,"Duration":120210,"SoundDuration":120210,"Delta":258487542},{"NoteNumber":50,"Velocity":86,"Duration":120210,"SoundDuration":120210,"Delta":258487542},{"NoteNumber":82,"Velocity":77,"Duration":120663,"SoundDuration":120663,"Delta":258607753},{"NoteNumber":46,"Velocity":77,"Duration":120663,"SoundDuration":120663,"Delta":258607753},{"NoteNumber":86,"Velocity":77,"Duration":121029,"SoundDuration":121029,"Delta":258728417},{"NoteNumber":41,"Velocity":77,"Duration":121029,"SoundDuration":121029,"Delta":258728417},{"NoteNumber":89,"Velocity":90,"Duration":122051,"SoundDuration":122051,"Delta":258849446},{"NoteNumber":38,"Velocity":86,"Duration":122051,"SoundDuration":122051,"Delta":258849446},{"NoteNumber":94,"Velocity":76,"Duration":125597,"SoundDuration":125597,"Delta":258971498},{"NoteNumber":34,"Velocity":78,"Duration":125597,"SoundDuration":125597,"Delta":258971498},{"NoteNumber":98,"Velocity":76,"Duration":129354,"SoundDuration":129354,"Delta":259097095},{"NoteNumber":29,"Velocity":77,"Duration":129354,"SoundDuration":129354,"Delta":259097095},{"NoteNumber":101,"Velocity":97,"Duration":102389,"SoundDuration":102389,"Delta":259226450},{"NoteNumber":26,"Velocity":93,"Duration":102389,"SoundDuration":102389,"Delta":259226450},{"NoteNumber":72,"Velocity":79,"Duration":212765,"SoundDuration":212765,"Delta":259636006},{"NoteNumber":76,"Velocity":93,"Duration":212765,"SoundDuration":212765,"Delta":259636006},{"NoteNumber":69,"Velocity":79,"Duration":212765,"SoundDuration":212765,"Delta":259636006},{"NoteNumber":64,"Velocity":79,"Duration":212765,"SoundDuration":212765,"Delta":259636006},{"NoteNumber":57,"Velocity":70,"Duration":212765,"SoundDuration":212765,"Delta":259636006},{"NoteNumber":52,"Velocity":70,"Duration":212765,"SoundDuration":212765,"Delta":259636006},{"NoteNumber":60,"Velocity":83,"Duration":212765,"SoundDuration":212765,"Delta":259636006},{"NoteNumber":68,"Velocity":74,"Duration":230769,"SoundDuration":230769,"Delta":260061538},{"NoteNumber":71,"Velocity":74,"Duration":230769,"SoundDuration":230769,"Delta":260061538},{"NoteNumber":64,"Velocity":74,"Duration":230769,"SoundDuration":230769,"Delta":260061538},{"NoteNumber":76,"Velocity":88,"Duration":230769,"SoundDuration":230769,"Delta":260061538},{"NoteNumber":56,"Velocity":63,"Duration":230769,"SoundDuration":230769,"Delta":260061538},{"NoteNumber":52,"Velocity":63,"Duration":230769,"SoundDuration":230769,"Delta":260061538},{"NoteNumber":59,"Velocity":75,"Duration":230769,"SoundDuration":230769,"Delta":260061538},{"NoteNumber":65,"Velocity":93,"Duration":117474,"SoundDuration":117474,"Delta":260523076},{"NoteNumber":62,"Velocity":91,"Duration":117474,"SoundDuration":117474,"Delta":260523076},{"NoteNumber":70,"Velocity":81,"Duration":118168,"SoundDuration":118168,"Delta":260640550},{"NoteNumber":58,"Velocity":79,"Duration":118168,"SoundDuration":118168,"Delta":260640550},{"NoteNumber":74,"Velocity":80,"Duration":118871,"SoundDuration":118871,"Delta":260758719},{"NoteNumber":53,"Velocity":79,"Duration":118871,"SoundDuration":118871,"Delta":260758719},{"NoteNumber":77,"Velocity":90,"Duration":119581,"SoundDuration":119581,"Delta":260877590},{"NoteNumber":50,"Velocity":86,"Duration":119581,"SoundDuration":119581,"Delta":260877590},{"NoteNumber":82,"Velocity":79,"Duration":120300,"SoundDuration":120300,"Delta":260997171},{"NoteNumber":46,"Velocity":76,"Duration":120300,"SoundDuration":120300,"Delta":260997171},{"NoteNumber":86,"Velocity":79,"Duration":121121,"SoundDuration":121121,"Delta":261117472},{"NoteNumber":41,"Velocity":76,"Duration":121121,"SoundDuration":121121,"Delta":261117472},{"NoteNumber":89,"Velocity":93,"Duration":122051,"SoundDuration":122051,"Delta":261238594},{"NoteNumber":38,"Velocity":86,"Duration":122051,"SoundDuration":122051,"Delta":261238594},{"NoteNumber":94,"Velocity":79,"Duration":125597,"SoundDuration":125597,"Delta":261360645},{"NoteNumber":34,"Velocity":76,"Duration":125597,"SoundDuration":125597,"Delta":261360645},{"NoteNumber":98,"Velocity":79,"Duration":129354,"SoundDuration":129354,"Delta":261486243},{"NoteNumber":29,"Velocity":76,"Duration":129354,"SoundDuration":129354,"Delta":261486243},{"NoteNumber":101,"Velocity":97,"Duration":98684,"SoundDuration":98684,"Delta":261615597},{"NoteNumber":26,"Velocity":90,"Duration":98684,"SoundDuration":98684,"Delta":261615597},{"NoteNumber":65,"Velocity":79,"Duration":202020,"SoundDuration":202020,"Delta":262010334},{"NoteNumber":77,"Velocity":93,"Duration":202020,"SoundDuration":202020,"Delta":262010334},{"NoteNumber":70,"Velocity":79,"Duration":202020,"SoundDuration":202020,"Delta":262010334},{"NoteNumber":74,"Velocity":79,"Duration":202020,"SoundDuration":202020,"Delta":262010334},{"NoteNumber":58,"Velocity":70,"Duration":202020,"SoundDuration":202020,"Delta":262010334},{"NoteNumber":53,"Velocity":70,"Duration":202020,"SoundDuration":202020,"Delta":262010334},{"NoteNumber":62,"Velocity":83,"Duration":202020,"SoundDuration":202020,"Delta":262010334},{"NoteNumber":72,"Velocity":74,"Duration":198675,"SoundDuration":198675,"Delta":262414374},{"NoteNumber":65,"Velocity":74,"Duration":198675,"SoundDuration":198675,"Delta":262414374},{"NoteNumber":69,"Velocity":74,"Duration":198675,"SoundDuration":198675,"Delta":262414374},{"NoteNumber":77,"Velocity":88,"Duration":198675,"SoundDuration":198675,"Delta":262414374},{"NoteNumber":60,"Velocity":75,"Duration":198675,"SoundDuration":198675,"Delta":262414374},{"NoteNumber":57,"Velocity":63,"Duration":198675,"SoundDuration":198675,"Delta":262414374},{"NoteNumber":53,"Velocity":63,"Duration":198675,"SoundDuration":198675,"Delta":262414374},{"NoteNumber":79,"Velocity":74,"Duration":193548,"SoundDuration":193548,"Delta":262811725},{"NoteNumber":91,"Velocity":88,"Duration":193548,"SoundDuration":193548,"Delta":262811725},{"NoteNumber":31,"Velocity":79,"Duration":193548,"SoundDuration":193548,"Delta":262811725},{"NoteNumber":43,"Velocity":93,"Duration":193548,"SoundDuration":193548,"Delta":262811725},{"NoteNumber":72,"Velocity":79,"Duration":201342,"SoundDuration":201342,"Delta":263198822},{"NoteNumber":67,"Velocity":79,"Duration":201342,"SoundDuration":201342,"Delta":263198822},{"NoteNumber":79,"Velocity":93,"Duration":201342,"SoundDuration":201342,"Delta":263198822},{"NoteNumber":75,"Velocity":79,"Duration":201342,"SoundDuration":201342,"Delta":263198822},{"NoteNumber":60,"Velocity":70,"Duration":201342,"SoundDuration":201342,"Delta":263198822},{"NoteNumber":55,"Velocity":70,"Duration":201342,"SoundDuration":201342,"Delta":263198822},{"NoteNumber":63,"Velocity":83,"Duration":201342,"SoundDuration":201342,"Delta":263198822},{"NoteNumber":74,"Velocity":74,"Duration":198675,"SoundDuration":198675,"Delta":263601507},{"NoteNumber":79,"Velocity":88,"Duration":198675,"SoundDuration":198675,"Delta":263601507},{"NoteNumber":71,"Velocity":74,"Duration":198675,"SoundDuration":198675,"Delta":263601507},{"NoteNumber":67,"Velocity":74,"Duration":198675,"SoundDuration":198675,"Delta":263601507},{"NoteNumber":55,"Velocity":63,"Duration":198675,"SoundDuration":198675,"Delta":263601507},{"NoteNumber":59,"Velocity":63,"Duration":198675,"SoundDuration":198675,"Delta":263601507},{"NoteNumber":62,"Velocity":75,"Duration":198675,"SoundDuration":198675,"Delta":263601507},{"NoteNumber":81,"Velocity":74,"Duration":194174,"SoundDuration":194174,"Delta":263998858},{"NoteNumber":93,"Velocity":88,"Duration":194174,"SoundDuration":194174,"Delta":263998858},{"NoteNumber":45,"Velocity":93,"Duration":194174,"SoundDuration":194174,"Delta":263998858},{"NoteNumber":33,"Velocity":79,"Duration":194174,"SoundDuration":194174,"Delta":263998858},{"NoteNumber":74,"Velocity":79,"Duration":202702,"SoundDuration":202702,"Delta":264387208},{"NoteNumber":81,"Velocity":93,"Duration":202702,"SoundDuration":202702,"Delta":264387208},{"NoteNumber":77,"Velocity":79,"Duration":202702,"SoundDuration":202702,"Delta":264387208},{"NoteNumber":69,"Velocity":79,"Duration":202702,"SoundDuration":202702,"Delta":264387208},{"NoteNumber":62,"Velocity":70,"Duration":202702,"SoundDuration":202702,"Delta":264387208},{"NoteNumber":57,"Velocity":70,"Duration":202702,"SoundDuration":202702,"Delta":264387208},{"NoteNumber":65,"Velocity":83,"Duration":202702,"SoundDuration":202702,"Delta":264387208},{"NoteNumber":69,"Velocity":74,"Duration":209789,"SoundDuration":209789,"Delta":264792613},{"NoteNumber":81,"Velocity":88,"Duration":209789,"SoundDuration":209789,"Delta":264792613},{"NoteNumber":73,"Velocity":74,"Duration":209789,"SoundDuration":209789,"Delta":264792613},{"NoteNumber":76,"Velocity":74,"Duration":209789,"SoundDuration":209789,"Delta":264792613},{"NoteNumber":57,"Velocity":63,"Duration":209789,"SoundDuration":209789,"Delta":264792613},{"NoteNumber":61,"Velocity":63,"Duration":209789,"SoundDuration":209789,"Delta":264792613},{"NoteNumber":64,"Velocity":75,"Duration":209789,"SoundDuration":209789,"Delta":264792613},{"NoteNumber":70,"Velocity":59,"Duration":102739,"SoundDuration":102739,"Delta":265212193},{"NoteNumber":67,"Velocity":50,"Duration":102739,"SoundDuration":102739,"Delta":265212193},{"NoteNumber":55,"Velocity":42,"Duration":102739,"SoundDuration":102739,"Delta":265212193},{"NoteNumber":58,"Velocity":50,"Duration":102739,"SoundDuration":102739,"Delta":265212193},{"NoteNumber":67,"Velocity":52,"Duration":102739,"SoundDuration":102739,"Delta":265417673},{"NoteNumber":70,"Velocity":62,"Duration":102739,"SoundDuration":102739,"Delta":265417673},{"NoteNumber":58,"Velocity":49,"Duration":102739,"SoundDuration":102739,"Delta":265417673},{"NoteNumber":55,"Velocity":41,"Duration":102739,"SoundDuration":102739,"Delta":265417673},{"NoteNumber":70,"Velocity":54,"Duration":102739,"SoundDuration":102739,"Delta":265623152},{"NoteNumber":67,"Velocity":54,"Duration":102739,"SoundDuration":102739,"Delta":265623152},{"NoteNumber":73,"Velocity":64,"Duration":102739,"SoundDuration":102739,"Delta":265623152},{"NoteNumber":55,"Velocity":44,"Duration":102739,"SoundDuration":102739,"Delta":265623152},{"NoteNumber":58,"Velocity":52,"Duration":102739,"SoundDuration":102739,"Delta":265623152},{"NoteNumber":52,"Velocity":44,"Duration":102739,"SoundDuration":102739,"Delta":265623152},{"NoteNumber":70,"Velocity":67,"Duration":102739,"SoundDuration":102739,"Delta":265828632},{"NoteNumber":67,"Velocity":56,"Duration":102739,"SoundDuration":102739,"Delta":265828632},{"NoteNumber":73,"Velocity":67,"Duration":102739,"SoundDuration":102739,"Delta":265828632},{"NoteNumber":52,"Velocity":45,"Duration":102739,"SoundDuration":102739,"Delta":265828632},{"NoteNumber":58,"Velocity":54,"Duration":102739,"SoundDuration":102739,"Delta":265828632},{"NoteNumber":55,"Velocity":45,"Duration":102739,"SoundDuration":102739,"Delta":265828632},{"NoteNumber":70,"Velocity":59,"Duration":102739,"SoundDuration":102739,"Delta":266034111},{"NoteNumber":67,"Velocity":59,"Duration":102739,"SoundDuration":102739,"Delta":266034111},{"NoteNumber":76,"Velocity":70,"Duration":102739,"SoundDuration":102739,"Delta":266034111},{"NoteNumber":73,"Velocity":59,"Duration":102739,"SoundDuration":102739,"Delta":266034111},{"NoteNumber":49,"Velocity":47,"Duration":102739,"SoundDuration":102739,"Delta":266034111},{"NoteNumber":55,"Velocity":47,"Duration":102739,"SoundDuration":102739,"Delta":266034111},{"NoteNumber":52,"Velocity":47,"Duration":102739,"SoundDuration":102739,"Delta":266034111},{"NoteNumber":58,"Velocity":56,"Duration":102739,"SoundDuration":102739,"Delta":266034111},{"NoteNumber":70,"Velocity":62,"Duration":102739,"SoundDuration":102739,"Delta":266239591},{"NoteNumber":76,"Velocity":73,"Duration":102739,"SoundDuration":102739,"Delta":266239591},{"NoteNumber":73,"Velocity":62,"Duration":102739,"SoundDuration":102739,"Delta":266239591},{"NoteNumber":67,"Velocity":62,"Duration":102739,"SoundDuration":102739,"Delta":266239591},{"NoteNumber":49,"Velocity":49,"Duration":102739,"SoundDuration":102739,"Delta":266239591},{"NoteNumber":55,"Velocity":49,"Duration":102739,"SoundDuration":102739,"Delta":266239591},{"NoteNumber":52,"Velocity":49,"Duration":102739,"SoundDuration":102739,"Delta":266239591},{"NoteNumber":58,"Velocity":58,"Duration":102739,"SoundDuration":102739,"Delta":266239591},{"NoteNumber":70,"Velocity":64,"Duration":102739,"SoundDuration":102739,"Delta":266445070},{"NoteNumber":79,"Velocity":76,"Duration":102739,"SoundDuration":102739,"Delta":266445070},{"NoteNumber":73,"Velocity":64,"Duration":102739,"SoundDuration":102739,"Delta":266445070},{"NoteNumber":76,"Velocity":64,"Duration":102739,"SoundDuration":102739,"Delta":266445070},{"NoteNumber":46,"Velocity":51,"Duration":102739,"SoundDuration":102739,"Delta":266445070},{"NoteNumber":52,"Velocity":51,"Duration":102739,"SoundDuration":102739,"Delta":266445070},{"NoteNumber":49,"Velocity":51,"Duration":102739,"SoundDuration":102739,"Delta":266445070},{"NoteNumber":55,"Velocity":60,"Duration":102739,"SoundDuration":102739,"Delta":266445070},{"NoteNumber":76,"Velocity":67,"Duration":102739,"SoundDuration":102739,"Delta":266650550},{"NoteNumber":70,"Velocity":67,"Duration":102739,"SoundDuration":102739,"Delta":266650550},{"NoteNumber":73,"Velocity":67,"Duration":102739,"SoundDuration":102739,"Delta":266650550},{"NoteNumber":79,"Velocity":79,"Duration":102739,"SoundDuration":102739,"Delta":266650550},{"NoteNumber":46,"Velocity":52,"Duration":102739,"SoundDuration":102739,"Delta":266650550},{"NoteNumber":52,"Velocity":52,"Duration":102739,"SoundDuration":102739,"Delta":266650550},{"NoteNumber":49,"Velocity":52,"Duration":102739,"SoundDuration":102739,"Delta":266650550},{"NoteNumber":55,"Velocity":62,"Duration":102739,"SoundDuration":102739,"Delta":266650550},{"NoteNumber":76,"Velocity":69,"Duration":102389,"SoundDuration":102389,"Delta":266856029},{"NoteNumber":79,"Velocity":69,"Duration":102389,"SoundDuration":102389,"Delta":266856029},{"NoteNumber":73,"Velocity":69,"Duration":102389,"SoundDuration":102389,"Delta":266856029},{"NoteNumber":82,"Velocity":82,"Duration":102389,"SoundDuration":102389,"Delta":266856029},{"NoteNumber":46,"Velocity":54,"Duration":102389,"SoundDuration":102389,"Delta":266856029},{"NoteNumber":49,"Velocity":54,"Duration":102389,"SoundDuration":102389,"Delta":266856029},{"NoteNumber":52,"Velocity":64,"Duration":102389,"SoundDuration":102389,"Delta":266856029},{"NoteNumber":43,"Velocity":54,"Duration":102389,"SoundDuration":102389,"Delta":266856029},{"NoteNumber":76,"Velocity":72,"Duration":103092,"SoundDuration":103092,"Delta":267061158},{"NoteNumber":73,"Velocity":72,"Duration":103092,"SoundDuration":103092,"Delta":267061158},{"NoteNumber":79,"Velocity":72,"Duration":103092,"SoundDuration":103092,"Delta":267061158},{"NoteNumber":82,"Velocity":85,"Duration":103092,"SoundDuration":103092,"Delta":267061158},{"NoteNumber":43,"Velocity":56,"Duration":103092,"SoundDuration":103092,"Delta":267061158},{"NoteNumber":49,"Velocity":56,"Duration":103092,"SoundDuration":103092,"Delta":267061158},{"NoteNumber":46,"Velocity":56,"Duration":103092,"SoundDuration":103092,"Delta":267061158},{"NoteNumber":52,"Velocity":66,"Duration":103092,"SoundDuration":103092,"Delta":267061158},{"NoteNumber":76,"Velocity":73,"Duration":103806,"SoundDuration":103806,"Delta":267267699},{"NoteNumber":85,"Velocity":87,"Duration":103806,"SoundDuration":103806,"Delta":267267699},{"NoteNumber":79,"Velocity":73,"Duration":103806,"SoundDuration":103806,"Delta":267267699},{"NoteNumber":82,"Velocity":73,"Duration":103806,"SoundDuration":103806,"Delta":267267699},{"NoteNumber":40,"Velocity":58,"Duration":103806,"SoundDuration":103806,"Delta":267267699},{"NoteNumber":46,"Velocity":58,"Duration":103806,"SoundDuration":103806,"Delta":267267699},{"NoteNumber":43,"Velocity":58,"Duration":103806,"SoundDuration":103806,"Delta":267267699},{"NoteNumber":49,"Velocity":69,"Duration":103806,"SoundDuration":103806,"Delta":267267699},{"NoteNumber":82,"Velocity":76,"Duration":109090,"SoundDuration":109090,"Delta":267475672},{"NoteNumber":85,"Velocity":90,"Duration":109090,"SoundDuration":109090,"Delta":267475672},{"NoteNumber":76,"Velocity":76,"Duration":109090,"SoundDuration":109090,"Delta":267475672},{"NoteNumber":79,"Velocity":76,"Duration":109090,"SoundDuration":109090,"Delta":267475672},{"NoteNumber":40,"Velocity":62,"Duration":109090,"SoundDuration":109090,"Delta":267475672},{"NoteNumber":46,"Velocity":62,"Duration":109090,"SoundDuration":109090,"Delta":267475672},{"NoteNumber":43,"Velocity":62,"Duration":109090,"SoundDuration":109090,"Delta":267475672},{"NoteNumber":49,"Velocity":74,"Duration":109090,"SoundDuration":109090,"Delta":267475672},{"NoteNumber":81,"Velocity":90,"Duration":218182,"SoundDuration":218182,"Delta":267693854},{"NoteNumber":74,"Velocity":85,"Duration":218182,"SoundDuration":218182,"Delta":267693854},{"NoteNumber":77,"Velocity":85,"Duration":218182,"SoundDuration":218182,"Delta":267693854},{"NoteNumber":86,"Velocity":100,"Duration":218182,"SoundDuration":218182,"Delta":267693854},{"NoteNumber":45,"Velocity":73,"Duration":218182,"SoundDuration":218182,"Delta":267693854},{"NoteNumber":41,"Velocity":73,"Duration":218182,"SoundDuration":218182,"Delta":267693854},{"NoteNumber":50,"Velocity":87,"Duration":218182,"SoundDuration":218182,"Delta":267693854},{"NoteNumber":77,"Velocity":85,"Duration":218182,"SoundDuration":218182,"Delta":269002946},{"NoteNumber":86,"Velocity":98,"Duration":218182,"SoundDuration":218182,"Delta":269002946},{"NoteNumber":81,"Velocity":85,"Duration":218182,"SoundDuration":218182,"Delta":269002946},{"NoteNumber":89,"Velocity":100,"Duration":218182,"SoundDuration":218182,"Delta":269002946},{"NoteNumber":41,"Velocity":73,"Duration":218182,"SoundDuration":218182,"Delta":269002946},{"NoteNumber":38,"Velocity":73,"Duration":218182,"SoundDuration":218182,"Delta":269002946},{"NoteNumber":50,"Velocity":87,"Duration":218182,"SoundDuration":218182,"Delta":269002946},{"NoteNumber":45,"Velocity":73,"Duration":218182,"SoundDuration":218182,"Delta":269002946},{"NoteNumber":69,"Velocity":42,"Duration":212765,"SoundDuration":212765,"Delta":270312038},{"NoteNumber":76,"Velocity":50,"Duration":212765,"SoundDuration":212765,"Delta":270312038},{"NoteNumber":52,"Velocity":42,"Duration":212765,"SoundDuration":212765,"Delta":270312038},{"NoteNumber":60,"Velocity":50,"Duration":212765,"SoundDuration":212765,"Delta":270312038},{"NoteNumber":68,"Velocity":42,"Duration":218182,"SoundDuration":218182,"Delta":271588634},{"NoteNumber":76,"Velocity":50,"Duration":218182,"SoundDuration":218182,"Delta":271588634},{"NoteNumber":59,"Velocity":50,"Duration":218182,"SoundDuration":218182,"Delta":271588634},{"NoteNumber":52,"Velocity":42,"Duration":218182,"SoundDuration":218182,"Delta":271588634},{"NoteNumber":73,"Velocity":38,"Duration":1072156,"SoundDuration":1072156,"Delta":272978603},{"NoteNumber":64,"Velocity":33,"Duration":2537846,"SoundDuration":2537846,"Delta":272978603},{"NoteNumber":45,"Velocity":36,"Duration":216450,"SoundDuration":216450,"Delta":272978603},{"NoteNumber":52,"Velocity":22,"Duration":216450,"SoundDuration":216450,"Delta":273195053},{"NoteNumber":57,"Velocity":27,"Duration":216450,"SoundDuration":216450,"Delta":273411503},{"NoteNumber":52,"Velocity":22,"Duration":216449,"SoundDuration":216449,"Delta":273627953},{"NoteNumber":61,"Velocity":36,"Duration":206356,"SoundDuration":206356,"Delta":273844403},{"NoteNumber":74,"Velocity":36,"Duration":103177,"SoundDuration":103177,"Delta":274050759},{"NoteNumber":73,"Velocity":31,"Duration":103178,"SoundDuration":103178,"Delta":274153937},{"NoteNumber":71,"Velocity":36,"Duration":412711,"SoundDuration":412711,"Delta":274257115},{"NoteNumber":44,"Velocity":36,"Duration":206356,"SoundDuration":206356,"Delta":274257115},{"NoteNumber":52,"Velocity":26,"Duration":206355,"SoundDuration":206355,"Delta":274463471},{"NoteNumber":74,"Velocity":38,"Duration":419697,"SoundDuration":419697,"Delta":274669827},{"NoteNumber":59,"Velocity":31,"Duration":209849,"SoundDuration":209849,"Delta":274669827},{"NoteNumber":52,"Velocity":26,"Duration":209848,"SoundDuration":209848,"Delta":274879676},{"NoteNumber":77,"Velocity":42,"Duration":426924,"SoundDuration":426924,"Delta":275089525},{"NoteNumber":62,"Velocity":35,"Duration":213462,"SoundDuration":213462,"Delta":275089525},{"NoteNumber":64,"Velocity":33,"Duration":1255649,"SoundDuration":1255649,"Delta":275516450},{"NoteNumber":76,"Velocity":40,"Duration":833737,"SoundDuration":833737,"Delta":275516450},{"NoteNumber":45,"Velocity":33,"Duration":208434,"SoundDuration":208434,"Delta":275516450},{"NoteNumber":52,"Velocity":23,"Duration":208434,"SoundDuration":208434,"Delta":275724885},{"NoteNumber":61,"Velocity":26,"Duration":208434,"SoundDuration":208434,"Delta":275933319},{"NoteNumber":52,"Velocity":22,"Duration":208434,"SoundDuration":208434,"Delta":276141754},{"NoteNumber":73,"Velocity":34,"Duration":413121,"SoundDuration":413121,"Delta":276350188},{"NoteNumber":57,"Velocity":36,"Duration":210955,"SoundDuration":210955,"Delta":276350188},{"NoteNumber":64,"Velocity":33,"Duration":1261249,"SoundDuration":1261249,"Delta":276772099},{"NoteNumber":76,"Velocity":40,"Duration":825423,"SoundDuration":825423,"Delta":276772099},{"NoteNumber":44,"Velocity":36,"Duration":206356,"SoundDuration":206356,"Delta":276772099},{"NoteNumber":52,"Velocity":27,"Duration":206355,"SoundDuration":206355,"Delta":276978455},{"NoteNumber":56,"Velocity":31,"Duration":206356,"SoundDuration":206356,"Delta":277184811},{"NoteNumber":52,"Velocity":26,"Duration":206355,"SoundDuration":206355,"Delta":277391167},{"NoteNumber":74,"Velocity":34,"Duration":426745,"SoundDuration":426745,"Delta":277597523},{"NoteNumber":59,"Velocity":35,"Duration":217912,"SoundDuration":217912,"Delta":277597523},{"NoteNumber":73,"Velocity":38,"Duration":1041702,"SoundDuration":1041702,"Delta":278033348},{"NoteNumber":64,"Velocity":38,"Duration":2482404,"SoundDuration":2482404,"Delta":278033348},{"NoteNumber":45,"Velocity":34,"Duration":209849,"SoundDuration":209849,"Delta":278033348},{"NoteNumber":52,"Velocity":27,"Duration":209848,"SoundDuration":209848,"Delta":278243197},{"NoteNumber":57,"Velocity":29,"Duration":209849,"SoundDuration":209849,"Delta":278453046},{"NoteNumber":52,"Velocity":26,"Duration":209849,"SoundDuration":209849,"Delta":278662895},{"NoteNumber":61,"Velocity":36,"Duration":202306,"SoundDuration":202306,"Delta":278872744},{"NoteNumber":74,"Velocity":35,"Duration":101153,"SoundDuration":101153,"Delta":279075051},{"NoteNumber":73,"Velocity":31,"Duration":101153,"SoundDuration":101153,"Delta":279176204},{"NoteNumber":71,"Velocity":36,"Duration":404613,"SoundDuration":404613,"Delta":279277357},{"NoteNumber":44,"Velocity":36,"Duration":202306,"SoundDuration":202306,"Delta":279277357},{"NoteNumber":52,"Velocity":27,"Duration":202306,"SoundDuration":202306,"Delta":279479664},{"NoteNumber":74,"Velocity":38,"Duration":408551,"SoundDuration":408551,"Delta":279681970},{"NoteNumber":59,"Velocity":31,"Duration":204275,"SoundDuration":204275,"Delta":279681970},{"NoteNumber":52,"Velocity":27,"Duration":204275,"SoundDuration":204275,"Delta":279886246},{"NoteNumber":77,"Velocity":42,"Duration":425229,"SoundDuration":425229,"Delta":280090522},{"NoteNumber":62,"Velocity":35,"Duration":212615,"SoundDuration":212615,"Delta":280090522},{"NoteNumber":64,"Velocity":33,"Duration":1239573,"SoundDuration":1239573,"Delta":280515752},{"NoteNumber":76,"Velocity":40,"Duration":817661,"SoundDuration":817661,"Delta":280515752},{"NoteNumber":45,"Velocity":33,"Duration":204415,"SoundDuration":204415,"Delta":280515752},{"NoteNumber":52,"Velocity":23,"Duration":204415,"SoundDuration":204415,"Delta":280720168},{"NoteNumber":61,"Velocity":27,"Duration":204415,"SoundDuration":204415,"Delta":280924583},{"NoteNumber":52,"Velocity":22,"Duration":204415,"SoundDuration":204415,"Delta":281128999},{"NoteNumber":73,"Velocity":34,"Duration":413121,"SoundDuration":413121,"Delta":281333414},{"NoteNumber":57,"Velocity":36,"Duration":210955,"SoundDuration":210955,"Delta":281333414},{"NoteNumber":64,"Velocity":47,"Duration":1250113,"SoundDuration":1250113,"Delta":281755325},{"NoteNumber":76,"Velocity":47,"Duration":822764,"SoundDuration":822764,"Delta":281755325},{"NoteNumber":44,"Velocity":38,"Duration":205691,"SoundDuration":205691,"Delta":281755325},{"NoteNumber":52,"Velocity":28,"Duration":205691,"SoundDuration":205691,"Delta":281961016},{"NoteNumber":56,"Velocity":35,"Duration":205691,"SoundDuration":205691,"Delta":282166707},{"NoteNumber":52,"Velocity":28,"Duration":205691,"SoundDuration":205691,"Delta":282372398},{"NoteNumber":74,"Velocity":45,"Duration":418446,"SoundDuration":418446,"Delta":282578089},{"NoteNumber":59,"Velocity":35,"Duration":213675,"SoundDuration":213675,"Delta":282578089},{"NoteNumber":77,"Velocity":53,"Duration":817661,"SoundDuration":817661,"Delta":283005439},{"NoteNumber":65,"Velocity":53,"Duration":1246417,"SoundDuration":1246417,"Delta":283005439},{"NoteNumber":44,"Velocity":38,"Duration":204415,"SoundDuration":204415,"Delta":283005439},{"NoteNumber":53,"Velocity":30,"Duration":204415,"SoundDuration":204415,"Delta":283209855},{"NoteNumber":56,"Velocity":36,"Duration":204415,"SoundDuration":204415,"Delta":283414270},{"NoteNumber":53,"Velocity":31,"Duration":204415,"SoundDuration":204415,"Delta":283618686},{"NoteNumber":74,"Velocity":49,"Duration":419822,"SoundDuration":419822,"Delta":283823101},{"NoteNumber":59,"Velocity":39,"Duration":214377,"SoundDuration":214377,"Delta":283823101},{"NoteNumber":78,"Velocity":57,"Duration":830563,"SoundDuration":830563,"Delta":284251856},{"NoteNumber":66,"Velocity":57,"Duration":1259319,"SoundDuration":1259319,"Delta":284251856},{"NoteNumber":45,"Velocity":47,"Duration":207641,"SoundDuration":207641,"Delta":284251856},{"NoteNumber":54,"Velocity":33,"Duration":207640,"SoundDuration":207640,"Delta":284459497},{"NoteNumber":57,"Velocity":36,"Duration":207641,"SoundDuration":207641,"Delta":284667138},{"NoteNumber":54,"Velocity":33,"Duration":207640,"SoundDuration":207640,"Delta":284874779},{"NoteNumber":74,"Velocity":49,"Duration":419822,"SoundDuration":419822,"Delta":285082420},{"NoteNumber":62,"Velocity":41,"Duration":214377,"SoundDuration":214377,"Delta":285082420},{"NoteNumber":73,"Velocity":53,"Duration":431405,"SoundDuration":431405,"Delta":285511175},{"NoteNumber":67,"Velocity":53,"Duration":1282438,"SoundDuration":1282438,"Delta":285511175},{"NoteNumber":45,"Velocity":48,"Duration":215703,"SoundDuration":215703,"Delta":285511175},{"NoteNumber":57,"Velocity":35,"Duration":215702,"SoundDuration":215702,"Delta":285726878},{"NoteNumber":82,"Velocity":61,"Duration":421140,"SoundDuration":421140,"Delta":285942581},{"NoteNumber":64,"Velocity":40,"Duration":210570,"SoundDuration":210570,"Delta":285942581},{"NoteNumber":57,"Velocity":35,"Duration":210570,"SoundDuration":210570,"Delta":286153152},{"NoteNumber":81,"Velocity":55,"Duration":429891,"SoundDuration":429891,"Delta":286363722},{"NoteNumber":64,"Velocity":44,"Duration":214945,"SoundDuration":214945,"Delta":286363722},{"NoteNumber":69,"Velocity":33,"Duration":1269874,"SoundDuration":1269874,"Delta":286793614},{"NoteNumber":79,"Velocity":50,"Duration":836911,"SoundDuration":836911,"Delta":286793614},{"NoteNumber":50,"Velocity":39,"Duration":210570,"SoundDuration":210570,"Delta":286793614},{"NoteNumber":57,"Velocity":24,"Duration":210570,"SoundDuration":210570,"Delta":287004185},{"NoteNumber":62,"Velocity":26,"Duration":208129,"SoundDuration":208129,"Delta":287214755},{"NoteNumber":57,"Velocity":22,"Duration":207641,"SoundDuration":207641,"Delta":287422884},{"NoteNumber":78,"Velocity":45,"Duration":423942,"SoundDuration":423942,"Delta":287630525},{"NoteNumber":66,"Velocity":31,"Duration":216481,"SoundDuration":216481,"Delta":287630525},{"NoteNumber":73,"Velocity":49,"Duration":428755,"SoundDuration":428755,"Delta":288063488},{"NoteNumber":64,"Velocity":49,"Duration":1272655,"SoundDuration":1272655,"Delta":288063488},{"NoteNumber":42,"Velocity":38,"Duration":214377,"SoundDuration":214377,"Delta":288063488},{"NoteNumber":54,"Velocity":30,"Duration":214377,"SoundDuration":214377,"Delta":288277866},{"NoteNumber":79,"Velocity":53,"Duration":417914,"SoundDuration":417914,"Delta":288492243},{"NoteNumber":61,"Velocity":33,"Duration":208957,"SoundDuration":208957,"Delta":288492243},{"NoteNumber":54,"Velocity":29,"Duration":208957,"SoundDuration":208957,"Delta":288701201},{"NoteNumber":78,"Velocity":45,"Duration":425985,"SoundDuration":425985,"Delta":288910158},{"NoteNumber":58,"Velocity":38,"Duration":212992,"SoundDuration":212992,"Delta":288910158},{"NoteNumber":66,"Velocity":33,"Duration":1257129,"SoundDuration":1257129,"Delta":289336143},{"NoteNumber":76,"Velocity":48,"Duration":833878,"SoundDuration":833878,"Delta":289336143},{"NoteNumber":47,"Velocity":36,"Duration":210955,"SoundDuration":210955,"Delta":289336143},{"NoteNumber":54,"Velocity":25,"Duration":207641,"SoundDuration":207641,"Delta":289547099},{"NoteNumber":59,"Velocity":28,"Duration":207640,"SoundDuration":207640,"Delta":289754740},{"NoteNumber":54,"Velocity":26,"Duration":207641,"SoundDuration":207641,"Delta":289962381},{"NoteNumber":74,"Velocity":45,"Duration":414433,"SoundDuration":414433,"Delta":290170022},{"NoteNumber":62,"Velocity":31,"Duration":211625,"SoundDuration":211625,"Delta":290170022},{"NoteNumber":64,"Velocity":33,"Duration":1250113,"SoundDuration":1250113,"Delta":290593273},{"NoteNumber":76,"Velocity":40,"Duration":822764,"SoundDuration":822764,"Delta":290593273},{"NoteNumber":44,"Velocity":36,"Duration":205691,"SoundDuration":205691,"Delta":290593273},{"NoteNumber":52,"Velocity":27,"Duration":205691,"SoundDuration":205691,"Delta":290798964},{"NoteNumber":62,"Velocity":29,"Duration":205691,"SoundDuration":205691,"Delta":291004655},{"NoteNumber":52,"Velocity":27,"Duration":205691,"SoundDuration":205691,"Delta":291210346},{"NoteNumber":74,"Velocity":34,"Duration":418446,"SoundDuration":418446,"Delta":291416037},{"NoteNumber":59,"Velocity":35,"Duration":213675,"SoundDuration":213675,"Delta":291416037},{"NoteNumber":64,"Velocity":33,"Duration":1251519,"SoundDuration":1251519,"Delta":291843387},{"NoteNumber":76,"Velocity":40,"Duration":822764,"SoundDuration":822764,"Delta":291843387},{"NoteNumber":45,"Velocity":33,"Duration":205691,"SoundDuration":205691,"Delta":291843387},{"NoteNumber":52,"Velocity":28,"Duration":205691,"SoundDuration":205691,"Delta":292049078},{"NoteNumber":61,"Velocity":29,"Duration":205691,"SoundDuration":205691,"Delta":292254769},{"NoteNumber":52,"Velocity":28,"Duration":205691,"SoundDuration":205691,"Delta":292460460},{"NoteNumber":73,"Velocity":34,"Duration":419822,"SoundDuration":419822,"Delta":292666151},{"NoteNumber":57,"Velocity":36,"Duration":214377,"SoundDuration":214377,"Delta":292666151},{"NoteNumber":62,"Velocity":33,"Duration":1268175,"SoundDuration":1268175,"Delta":293094906},{"NoteNumber":77,"Velocity":51,"Duration":419228,"SoundDuration":419228,"Delta":293094906},{"NoteNumber":40,"Velocity":33,"Duration":209614,"SoundDuration":209614,"Delta":293094906},{"NoteNumber":52,"Velocity":29,"Duration":209614,"SoundDuration":209614,"Delta":293304520},{"NoteNumber":76,"Velocity":36,"Duration":209945,"SoundDuration":209945,"Delta":293514135},{"NoteNumber":59,"Velocity":29,"Duration":209945,"SoundDuration":209945,"Delta":293514135},{"NoteNumber":74,"Velocity":31,"Duration":211516,"SoundDuration":211516,"Delta":293724080},{"NoteNumber":52,"Velocity":29,"Duration":211516,"SoundDuration":211516,"Delta":293724080},{"NoteNumber":73,"Velocity":35,"Duration":212993,"SoundDuration":212993,"Delta":293935597},{"NoteNumber":56,"Velocity":36,"Duration":212993,"SoundDuration":212993,"Delta":293935597},{"NoteNumber":71,"Velocity":29,"Duration":214490,"SoundDuration":214490,"Delta":294148591},{"NoteNumber":69,"Velocity":35,"Duration":647342,"SoundDuration":647342,"Delta":294363081},{"NoteNumber":61,"Velocity":28,"Duration":422571,"SoundDuration":422571,"Delta":294363081},{"NoteNumber":45,"Velocity":33,"Duration":215780,"SoundDuration":215780,"Delta":294363081},{"NoteNumber":52,"Velocity":26,"Duration":215780,"SoundDuration":215780,"Delta":294578862},{"NoteNumber":61,"Velocity":26,"Duration":215780,"SoundDuration":215780,"Delta":294794643},{"NoteNumber":71,"Velocity":38,"Duration":215781,"SoundDuration":215781,"Delta":295010424},{"NoteNumber":52,"Velocity":26,"Duration":215781,"SoundDuration":215781,"Delta":295010424},{"NoteNumber":73,"Velocity":43,"Duration":215780,"SoundDuration":215780,"Delta":295226205},{"NoteNumber":57,"Velocity":30,"Duration":215780,"SoundDuration":215780,"Delta":295226205},{"NoteNumber":74,"Velocity":46,"Duration":215780,"SoundDuration":215780,"Delta":295441986},{"NoteNumber":67,"Velocity":54,"Duration":1269885,"SoundDuration":1269885,"Delta":295657767},{"NoteNumber":73,"Velocity":54,"Duration":425985,"SoundDuration":425985,"Delta":295657767},{"NoteNumber":45,"Velocity":44,"Duration":212992,"SoundDuration":212992,"Delta":295657767},{"NoteNumber":57,"Velocity":36,"Duration":212992,"SoundDuration":212992,"Delta":295870760},{"NoteNumber":82,"Velocity":59,"Duration":417914,"SoundDuration":417914,"Delta":296083752},{"NoteNumber":64,"Velocity":38,"Duration":208957,"SoundDuration":208957,"Delta":296083752},{"NoteNumber":57,"Velocity":36,"Duration":208957,"SoundDuration":208957,"Delta":296292710},{"NoteNumber":81,"Velocity":54,"Duration":425985,"SoundDuration":425985,"Delta":296501667},{"NoteNumber":64,"Velocity":44,"Duration":212992,"SoundDuration":212992,"Delta":296501667},{"NoteNumber":79,"Velocity":52,"Duration":833416,"SoundDuration":833416,"Delta":296927652},{"NoteNumber":69,"Velocity":52,"Duration":1266379,"SoundDuration":1266379,"Delta":296927652},{"NoteNumber":50,"Velocity":39,"Duration":208957,"SoundDuration":208957,"Delta":296927652},{"NoteNumber":57,"Velocity":26,"Duration":208957,"SoundDuration":208957,"Delta":297136610},{"NoteNumber":62,"Velocity":26,"Duration":207860,"SoundDuration":207860,"Delta":297345567},{"NoteNumber":57,"Velocity":26,"Duration":207641,"SoundDuration":207641,"Delta":297553428},{"NoteNumber":78,"Velocity":49,"Duration":423942,"SoundDuration":423942,"Delta":297761069},{"NoteNumber":66,"Velocity":31,"Duration":216481,"SoundDuration":216481,"Delta":297761069},{"NoteNumber":64,"Velocity":50,"Duration":1272655,"SoundDuration":1272655,"Delta":298194032},{"NoteNumber":73,"Velocity":50,"Duration":428755,"SoundDuration":428755,"Delta":298194032},{"NoteNumber":42,"Velocity":40,"Duration":214377,"SoundDuration":214377,"Delta":298194032},{"NoteNumber":54,"Velocity":30,"Duration":214377,"SoundDuration":214377,"Delta":298408409},{"NoteNumber":79,"Velocity":56,"Duration":417914,"SoundDuration":417914,"Delta":298622787},{"NoteNumber":61,"Velocity":36,"Duration":208957,"SoundDuration":208957,"Delta":298622787},{"NoteNumber":54,"Velocity":29,"Duration":208957,"SoundDuration":208957,"Delta":298831744},{"NoteNumber":78,"Velocity":51,"Duration":425985,"SoundDuration":425985,"Delta":299040702},{"NoteNumber":58,"Velocity":38,"Duration":212992,"SoundDuration":212992,"Delta":299040702},{"NoteNumber":76,"Velocity":48,"Duration":833878,"SoundDuration":833878,"Delta":299466687},{"NoteNumber":66,"Velocity":33,"Duration":1263770,"SoundDuration":1263770,"Delta":299466687},{"NoteNumber":47,"Velocity":36,"Duration":210955,"SoundDuration":210955,"Delta":299466687},{"NoteNumber":54,"Velocity":26,"Duration":207641,"SoundDuration":207641,"Delta":299677642},{"NoteNumber":59,"Velocity":26,"Duration":207640,"SoundDuration":207640,"Delta":299885283},{"NoteNumber":54,"Velocity":26,"Duration":207641,"SoundDuration":207641,"Delta":300092924},{"NoteNumber":74,"Velocity":45,"Duration":420935,"SoundDuration":420935,"Delta":300300565},{"NoteNumber":62,"Velocity":31,"Duration":214945,"SoundDuration":214945,"Delta":300300565},{"NoteNumber":76,"Velocity":43,"Duration":822764,"SoundDuration":822764,"Delta":300730457},{"NoteNumber":64,"Velocity":43,"Duration":1250113,"SoundDuration":1250113,"Delta":300730457},{"NoteNumber":44,"Velocity":36,"Duration":205691,"SoundDuration":205691,"Delta":300730457},{"NoteNumber":52,"Velocity":27,"Duration":205691,"SoundDuration":205691,"Delta":300936148},{"NoteNumber":62,"Velocity":28,"Duration":205691,"SoundDuration":205691,"Delta":301141839},{"NoteNumber":52,"Velocity":28,"Duration":205691,"SoundDuration":205691,"Delta":301347530},{"NoteNumber":74,"Velocity":36,"Duration":418446,"SoundDuration":418446,"Delta":301553221},{"NoteNumber":59,"Velocity":35,"Duration":213675,"SoundDuration":213675,"Delta":301553221},{"NoteNumber":76,"Velocity":43,"Duration":822764,"SoundDuration":822764,"Delta":301980571},{"NoteNumber":64,"Velocity":43,"Duration":1251380,"SoundDuration":1251380,"Delta":301980571},{"NoteNumber":45,"Velocity":33,"Duration":205691,"SoundDuration":205691,"Delta":301980571},{"NoteNumber":52,"Velocity":27,"Duration":205691,"SoundDuration":205691,"Delta":302186262},{"NoteNumber":61,"Velocity":29,"Duration":205691,"SoundDuration":205691,"Delta":302391953},{"NoteNumber":52,"Velocity":26,"Duration":205691,"SoundDuration":205691,"Delta":302597644},{"NoteNumber":73,"Velocity":34,"Duration":419822,"SoundDuration":419822,"Delta":302803335},{"NoteNumber":57,"Velocity":36,"Duration":214377,"SoundDuration":214377,"Delta":302803335},{"NoteNumber":77,"Velocity":51,"Duration":427231,"SoundDuration":427231,"Delta":303231951},{"NoteNumber":62,"Velocity":33,"Duration":1292850,"SoundDuration":1292850,"Delta":303231951},{"NoteNumber":40,"Velocity":33,"Duration":213675,"SoundDuration":213675,"Delta":303231951},{"NoteNumber":52,"Velocity":26,"Duration":213556,"SoundDuration":213556,"Delta":303445626},{"NoteNumber":76,"Velocity":36,"Duration":214607,"SoundDuration":214607,"Delta":303659183},{"NoteNumber":59,"Velocity":29,"Duration":214607,"SoundDuration":214607,"Delta":303659183},{"NoteNumber":74,"Velocity":31,"Duration":215779,"SoundDuration":215779,"Delta":303873791},{"NoteNumber":52,"Velocity":27,"Duration":215779,"SoundDuration":215779,"Delta":303873791},{"NoteNumber":73,"Velocity":35,"Duration":216962,"SoundDuration":216962,"Delta":304089570},{"NoteNumber":56,"Velocity":36,"Duration":216962,"SoundDuration":216962,"Delta":304089570},{"NoteNumber":71,"Velocity":29,"Duration":218269,"SoundDuration":218269,"Delta":304306532},{"NoteNumber":69,"Velocity":35,"Duration":1337220,"SoundDuration":1337220,"Delta":304524802},{"NoteNumber":61,"Velocity":31,"Duration":868309,"SoundDuration":868309,"Delta":304524802},{"NoteNumber":45,"Velocity":33,"Duration":219362,"SoundDuration":219362,"Delta":304524802},{"NoteNumber":52,"Velocity":23,"Duration":219362,"SoundDuration":219362,"Delta":304744164},{"NoteNumber":57,"Velocity":26,"Duration":219362,"SoundDuration":219362,"Delta":304963527},{"NoteNumber":52,"Velocity":23,"Duration":219362,"SoundDuration":219362,"Delta":305182889},{"NoteNumber":61,"Velocity":23,"Duration":229885,"SoundDuration":229885,"Delta":305402252},{"NoteNumber":69,"Velocity":89,"Duration":194174,"SoundDuration":194174,"Delta":305862022},{"NoteNumber":45,"Velocity":72,"Duration":1173813,"SoundDuration":1173813,"Delta":305862022},{"NoteNumber":48,"Velocity":72,"Duration":1173813,"SoundDuration":1173813,"Delta":305862022},{"NoteNumber":52,"Velocity":72,"Duration":1173813,"SoundDuration":1173813,"Delta":305862022},{"NoteNumber":57,"Velocity":85,"Duration":1173813,"SoundDuration":1173813,"Delta":305862022},{"NoteNumber":71,"Velocity":83,"Duration":97087,"SoundDuration":97087,"Delta":306056197},{"NoteNumber":72,"Velocity":75,"Duration":97087,"SoundDuration":97087,"Delta":306153284},{"NoteNumber":74,"Velocity":76,"Duration":96878,"SoundDuration":96878,"Delta":306250372},{"NoteNumber":76,"Velocity":78,"Duration":96983,"SoundDuration":96983,"Delta":306347251},{"NoteNumber":78,"Velocity":80,"Duration":97508,"SoundDuration":97508,"Delta":306444234},{"NoteNumber":80,"Velocity":82,"Duration":97932,"SoundDuration":97932,"Delta":306541742},{"NoteNumber":81,"Velocity":83,"Duration":98360,"SoundDuration":98360,"Delta":306639675},{"NoteNumber":83,"Velocity":85,"Duration":98792,"SoundDuration":98792,"Delta":306738035},{"NoteNumber":84,"Velocity":87,"Duration":99228,"SoundDuration":99228,"Delta":306836828},{"NoteNumber":86,"Velocity":88,"Duration":99778,"SoundDuration":99778,"Delta":306936057},{"NoteNumber":76,"Velocity":81,"Duration":72580,"SoundDuration":72580,"Delta":307035835},{"NoteNumber":88,"Velocity":96,"Duration":72580,"SoundDuration":72580,"Delta":307035835},{"NoteNumber":52,"Velocity":62,"Duration":72580,"SoundDuration":72580,"Delta":307035835},{"NoteNumber":56,"Velocity":74,"Duration":72580,"SoundDuration":72580,"Delta":307035835},{"NoteNumber":87,"Velocity":85,"Duration":74999,"SoundDuration":74999,"Delta":307229384},{"NoteNumber":75,"Velocity":72,"Duration":74999,"SoundDuration":74999,"Delta":307229384},{"NoteNumber":53,"Velocity":55,"Duration":74999,"SoundDuration":74999,"Delta":307229384},{"NoteNumber":57,"Velocity":65,"Duration":74999,"SoundDuration":74999,"Delta":307229384},{"NoteNumber":88,"Velocity":92,"Duration":72580,"SoundDuration":72580,"Delta":307429384},{"NoteNumber":76,"Velocity":78,"Duration":72580,"SoundDuration":72580,"Delta":307429384},{"NoteNumber":52,"Velocity":60,"Duration":72580,"SoundDuration":72580,"Delta":307429384},{"NoteNumber":56,"Velocity":71,"Duration":72580,"SoundDuration":72580,"Delta":307429384},{"NoteNumber":75,"Velocity":72,"Duration":74750,"SoundDuration":74750,"Delta":307622932},{"NoteNumber":87,"Velocity":85,"Duration":74750,"SoundDuration":74750,"Delta":307622932},{"NoteNumber":53,"Velocity":55,"Duration":74750,"SoundDuration":74750,"Delta":307622932},{"NoteNumber":57,"Velocity":65,"Duration":74750,"SoundDuration":74750,"Delta":307622932},{"NoteNumber":88,"Velocity":94,"Duration":86872,"SoundDuration":86872,"Delta":307822268},{"NoteNumber":76,"Velocity":79,"Duration":86872,"SoundDuration":86872,"Delta":307822268},{"NoteNumber":52,"Velocity":62,"Duration":86872,"SoundDuration":86872,"Delta":307822268},{"NoteNumber":56,"Velocity":74,"Duration":86872,"SoundDuration":86872,"Delta":307822268},{"NoteNumber":67,"Velocity":89,"Duration":194174,"SoundDuration":194174,"Delta":308285588},{"NoteNumber":47,"Velocity":72,"Duration":1173813,"SoundDuration":1173813,"Delta":308285588},{"NoteNumber":50,"Velocity":72,"Duration":1173813,"SoundDuration":1173813,"Delta":308285588},{"NoteNumber":55,"Velocity":85,"Duration":1173813,"SoundDuration":1173813,"Delta":308285588},{"NoteNumber":43,"Velocity":72,"Duration":1173813,"SoundDuration":1173813,"Delta":308285588},{"NoteNumber":69,"Velocity":83,"Duration":97087,"SoundDuration":97087,"Delta":308479763},{"NoteNumber":71,"Velocity":75,"Duration":97087,"SoundDuration":97087,"Delta":308576850},{"NoteNumber":72,"Velocity":76,"Duration":96878,"SoundDuration":96878,"Delta":308673938},{"NoteNumber":74,"Velocity":78,"Duration":96983,"SoundDuration":96983,"Delta":308770816},{"NoteNumber":76,"Velocity":80,"Duration":97508,"SoundDuration":97508,"Delta":308867800},{"NoteNumber":78,"Velocity":82,"Duration":97932,"SoundDuration":97932,"Delta":308965308},{"NoteNumber":79,"Velocity":83,"Duration":98360,"SoundDuration":98360,"Delta":309063241},{"NoteNumber":81,"Velocity":85,"Duration":98792,"SoundDuration":98792,"Delta":309161601},{"NoteNumber":83,"Velocity":87,"Duration":99228,"SoundDuration":99228,"Delta":309260394},{"NoteNumber":85,"Velocity":88,"Duration":99778,"SoundDuration":99778,"Delta":309359623},{"NoteNumber":74,"Velocity":80,"Duration":72580,"SoundDuration":72580,"Delta":309459401},{"NoteNumber":86,"Velocity":95,"Duration":72580,"SoundDuration":72580,"Delta":309459401},{"NoteNumber":50,"Velocity":63,"Duration":72580,"SoundDuration":72580,"Delta":309459401},{"NoteNumber":54,"Velocity":75,"Duration":72580,"SoundDuration":72580,"Delta":309459401},{"NoteNumber":85,"Velocity":86,"Duration":74750,"SoundDuration":74750,"Delta":309652950},{"NoteNumber":73,"Velocity":73,"Duration":74750,"SoundDuration":74750,"Delta":309652950},{"NoteNumber":52,"Velocity":55,"Duration":74750,"SoundDuration":74750,"Delta":309652950},{"NoteNumber":55,"Velocity":65,"Duration":74750,"SoundDuration":74750,"Delta":309652950},{"NoteNumber":74,"Velocity":78,"Duration":72815,"SoundDuration":72815,"Delta":309852285},{"NoteNumber":86,"Velocity":92,"Duration":72815,"SoundDuration":72815,"Delta":309852285},{"NoteNumber":50,"Velocity":61,"Duration":72815,"SoundDuration":72815,"Delta":309852285},{"NoteNumber":54,"Velocity":72,"Duration":72815,"SoundDuration":72815,"Delta":309852285},{"NoteNumber":85,"Velocity":85,"Duration":74750,"SoundDuration":74750,"Delta":310046460},{"NoteNumber":73,"Velocity":72,"Duration":74750,"SoundDuration":74750,"Delta":310046460},{"NoteNumber":52,"Velocity":54,"Duration":74750,"SoundDuration":74750,"Delta":310046460},{"NoteNumber":55,"Velocity":64,"Duration":74750,"SoundDuration":74750,"Delta":310046460},{"NoteNumber":86,"Velocity":95,"Duration":86872,"SoundDuration":86872,"Delta":310245796},{"NoteNumber":74,"Velocity":80,"Duration":86872,"SoundDuration":86872,"Delta":310245796},{"NoteNumber":50,"Velocity":62,"Duration":86872,"SoundDuration":86872,"Delta":310245796},{"NoteNumber":54,"Velocity":74,"Duration":86872,"SoundDuration":86872,"Delta":310245796},{"NoteNumber":53,"Velocity":68,"Duration":879120,"SoundDuration":879120,"Delta":310709116},{"NoteNumber":45,"Velocity":57,"Duration":879120,"SoundDuration":879120,"Delta":310709116},{"NoteNumber":41,"Velocity":57,"Duration":879120,"SoundDuration":879120,"Delta":310709116},{"NoteNumber":48,"Velocity":57,"Duration":879120,"SoundDuration":879120,"Delta":310709116},{"NoteNumber":77,"Velocity":77,"Duration":109890,"SoundDuration":109890,"Delta":310819006},{"NoteNumber":81,"Velocity":77,"Duration":109890,"SoundDuration":109890,"Delta":310928896},{"NoteNumber":84,"Velocity":81,"Duration":109889,"SoundDuration":109889,"Delta":311038786},{"NoteNumber":89,"Velocity":87,"Duration":109890,"SoundDuration":109890,"Delta":311148676},{"NoteNumber":93,"Velocity":80,"Duration":109890,"SoundDuration":109890,"Delta":311258566},{"NoteNumber":96,"Velocity":79,"Duration":109890,"SoundDuration":109890,"Delta":311368456},{"NoteNumber":101,"Velocity":75,"Duration":109890,"SoundDuration":109890,"Delta":311478346},{"NoteNumber":100,"Velocity":89,"Duration":109890,"SoundDuration":109890,"Delta":311588236},{"NoteNumber":48,"Velocity":55,"Duration":219780,"SoundDuration":219780,"Delta":311588236},{"NoteNumber":57,"Velocity":65,"Duration":219780,"SoundDuration":219780,"Delta":311588236},{"NoteNumber":45,"Velocity":55,"Duration":219780,"SoundDuration":219780,"Delta":311588236},{"NoteNumber":52,"Velocity":55,"Duration":219780,"SoundDuration":219780,"Delta":311588236},{"NoteNumber":74,"Velocity":90,"Duration":110701,"SoundDuration":110701,"Delta":312039676},{"NoteNumber":50,"Velocity":58,"Duration":221402,"SoundDuration":221402,"Delta":312039676},{"NoteNumber":58,"Velocity":69,"Duration":221402,"SoundDuration":221402,"Delta":312039676},{"NoteNumber":46,"Velocity":58,"Duration":221402,"SoundDuration":221402,"Delta":312039676},{"NoteNumber":53,"Velocity":58,"Duration":221402,"SoundDuration":221402,"Delta":312039676},{"NoteNumber":77,"Velocity":81,"Duration":110701,"SoundDuration":110701,"Delta":312150377},{"NoteNumber":82,"Velocity":81,"Duration":110701,"SoundDuration":110701,"Delta":312261078},{"NoteNumber":86,"Velocity":81,"Duration":110701,"SoundDuration":110701,"Delta":312371779},{"NoteNumber":77,"Velocity":90,"Duration":110700,"SoundDuration":110700,"Delta":312482480},{"NoteNumber":50,"Velocity":56,"Duration":221401,"SoundDuration":221401,"Delta":312482480},{"NoteNumber":59,"Velocity":67,"Duration":221401,"SoundDuration":221401,"Delta":312482480},{"NoteNumber":56,"Velocity":56,"Duration":221401,"SoundDuration":221401,"Delta":312482480},{"NoteNumber":47,"Velocity":56,"Duration":221401,"SoundDuration":221401,"Delta":312482480},{"NoteNumber":80,"Velocity":81,"Duration":110701,"SoundDuration":110701,"Delta":312593181},{"NoteNumber":86,"Velocity":81,"Duration":110701,"SoundDuration":110701,"Delta":312703882},{"NoteNumber":89,"Velocity":81,"Duration":110701,"SoundDuration":110701,"Delta":312814583},{"NoteNumber":76,"Velocity":90,"Duration":110701,"SoundDuration":110701,"Delta":312925284},{"NoteNumber":57,"Velocity":54,"Duration":221402,"SoundDuration":221402,"Delta":312925284},{"NoteNumber":52,"Velocity":54,"Duration":221402,"SoundDuration":221402,"Delta":312925284},{"NoteNumber":48,"Velocity":54,"Duration":221402,"SoundDuration":221402,"Delta":312925284},{"NoteNumber":60,"Velocity":64,"Duration":221402,"SoundDuration":221402,"Delta":312925284},{"NoteNumber":81,"Velocity":79,"Duration":110701,"SoundDuration":110701,"Delta":313035985},{"NoteNumber":84,"Velocity":79,"Duration":116279,"SoundDuration":116279,"Delta":313146686},{"NoteNumber":88,"Velocity":79,"Duration":116278,"SoundDuration":116278,"Delta":313262965},{"NoteNumber":74,"Velocity":88,"Duration":112781,"SoundDuration":112781,"Delta":313379244},{"NoteNumber":59,"Velocity":56,"Duration":225564,"SoundDuration":225564,"Delta":313379244},{"NoteNumber":62,"Velocity":67,"Duration":225564,"SoundDuration":225564,"Delta":313379244},{"NoteNumber":50,"Velocity":56,"Duration":225564,"SoundDuration":225564,"Delta":313379244},{"NoteNumber":53,"Velocity":56,"Duration":225564,"SoundDuration":225564,"Delta":313379244},{"NoteNumber":77,"Velocity":78,"Duration":112782,"SoundDuration":112782,"Delta":313492026},{"NoteNumber":83,"Velocity":78,"Duration":112781,"SoundDuration":112781,"Delta":313604808},{"NoteNumber":86,"Velocity":78,"Duration":112781,"SoundDuration":112781,"Delta":313717590},{"NoteNumber":72,"Velocity":85,"Duration":114942,"SoundDuration":114942,"Delta":313830372},{"NoteNumber":60,"Velocity":52,"Duration":229885,"SoundDuration":229885,"Delta":313830372},{"NoteNumber":57,"Velocity":52,"Duration":229885,"SoundDuration":229885,"Delta":313830372},{"NoteNumber":52,"Velocity":52,"Duration":229885,"SoundDuration":229885,"Delta":313830372},{"NoteNumber":64,"Velocity":62,"Duration":229885,"SoundDuration":229885,"Delta":313830372},{"NoteNumber":76,"Velocity":76,"Duration":114942,"SoundDuration":114942,"Delta":313945314},{"NoteNumber":81,"Velocity":76,"Duration":114942,"SoundDuration":114942,"Delta":314060257},{"NoteNumber":84,"Velocity":76,"Duration":114942,"SoundDuration":114942,"Delta":314175199},{"NoteNumber":71,"Velocity":86,"Duration":119522,"SoundDuration":119522,"Delta":314290142},{"NoteNumber":59,"Velocity":52,"Duration":239043,"SoundDuration":239043,"Delta":314290142},{"NoteNumber":64,"Velocity":62,"Duration":239043,"SoundDuration":239043,"Delta":314290142},{"NoteNumber":52,"Velocity":52,"Duration":239043,"SoundDuration":239043,"Delta":314290142},{"NoteNumber":56,"Velocity":52,"Duration":239043,"SoundDuration":239043,"Delta":314290142},{"NoteNumber":76,"Velocity":75,"Duration":119521,"SoundDuration":119521,"Delta":314409664},{"NoteNumber":80,"Velocity":76,"Duration":119522,"SoundDuration":119522,"Delta":314529186},{"NoteNumber":83,"Velocity":76,"Duration":119522,"SoundDuration":119522,"Delta":314648708},{"NoteNumber":69,"Velocity":78,"Duration":133129,"SoundDuration":133129,"Delta":314768230},{"NoteNumber":57,"Velocity":66,"Duration":133129,"SoundDuration":133129,"Delta":314768230},{"NoteNumber":45,"Velocity":59,"Duration":199694,"SoundDuration":199694,"Delta":314768230},{"NoteNumber":59,"Velocity":59,"Duration":133129,"SoundDuration":133129,"Delta":314901359},{"NoteNumber":71,"Velocity":70,"Duration":133129,"SoundDuration":133129,"Delta":314901359},{"NoteNumber":60,"Velocity":58,"Duration":133129,"SoundDuration":133129,"Delta":315034488},{"NoteNumber":72,"Velocity":69,"Duration":133129,"SoundDuration":133129,"Delta":315034488},{"NoteNumber":71,"Velocity":77,"Duration":133129,"SoundDuration":133129,"Delta":315167618},{"NoteNumber":59,"Velocity":65,"Duration":133129,"SoundDuration":133129,"Delta":315167618},{"NoteNumber":72,"Velocity":71,"Duration":133129,"SoundDuration":133129,"Delta":315300747},{"NoteNumber":60,"Velocity":60,"Duration":133129,"SoundDuration":133129,"Delta":315300747},{"NoteNumber":74,"Velocity":72,"Duration":141123,"SoundDuration":141123,"Delta":315433876},{"NoteNumber":62,"Velocity":61,"Duration":141123,"SoundDuration":141123,"Delta":315433876},{"NoteNumber":64,"Velocity":74,"Duration":402563,"SoundDuration":402563,"Delta":315575000},{"NoteNumber":76,"Velocity":88,"Duration":402563,"SoundDuration":402563,"Delta":315575000},{"NoteNumber":40,"Velocity":51,"Duration":133129,"SoundDuration":133129,"Delta":315575000},{"NoteNumber":52,"Velocity":61,"Duration":133129,"SoundDuration":133129,"Delta":315575000},{"NoteNumber":54,"Velocity":56,"Duration":133129,"SoundDuration":133129,"Delta":315708129},{"NoteNumber":42,"Velocity":47,"Duration":133129,"SoundDuration":133129,"Delta":315708129},{"NoteNumber":56,"Velocity":56,"Duration":136304,"SoundDuration":136304,"Delta":315841258},{"NoteNumber":44,"Velocity":47,"Duration":136304,"SoundDuration":136304,"Delta":315841258},{"NoteNumber":57,"Velocity":66,"Duration":132450,"SoundDuration":132450,"Delta":315977563},{"NoteNumber":69,"Velocity":78,"Duration":132450,"SoundDuration":132450,"Delta":315977563},{"NoteNumber":42,"Velocity":50,"Duration":132450,"SoundDuration":132450,"Delta":315977563},{"NoteNumber":54,"Velocity":59,"Duration":132450,"SoundDuration":132450,"Delta":315977563},{"NoteNumber":71,"Velocity":70,"Duration":132450,"SoundDuration":132450,"Delta":316110013},{"NoteNumber":59,"Velocity":59,"Duration":132450,"SoundDuration":132450,"Delta":316110013},{"NoteNumber":56,"Velocity":61,"Duration":132450,"SoundDuration":132450,"Delta":316110013},{"NoteNumber":44,"Velocity":51,"Duration":132450,"SoundDuration":132450,"Delta":316110013},{"NoteNumber":60,"Velocity":58,"Duration":132450,"SoundDuration":132450,"Delta":316242464},{"NoteNumber":72,"Velocity":69,"Duration":132450,"SoundDuration":132450,"Delta":316242464},{"NoteNumber":57,"Velocity":53,"Duration":132450,"SoundDuration":132450,"Delta":316242464},{"NoteNumber":45,"Velocity":45,"Duration":132450,"SoundDuration":132450,"Delta":316242464},{"NoteNumber":59,"Velocity":65,"Duration":132450,"SoundDuration":132450,"Delta":316374914},{"NoteNumber":71,"Velocity":77,"Duration":132450,"SoundDuration":132450,"Delta":316374914},{"NoteNumber":59,"Velocity":66,"Duration":406023,"SoundDuration":406023,"Delta":316374914},{"NoteNumber":47,"Velocity":56,"Duration":406023,"SoundDuration":406023,"Delta":316374914},{"NoteNumber":72,"Velocity":71,"Duration":132450,"SoundDuration":132450,"Delta":316507364},{"NoteNumber":60,"Velocity":60,"Duration":132450,"SoundDuration":132450,"Delta":316507364},{"NoteNumber":62,"Velocity":61,"Duration":141123,"SoundDuration":141123,"Delta":316639815},{"NoteNumber":74,"Velocity":72,"Duration":141123,"SoundDuration":141123,"Delta":316639815},{"NoteNumber":76,"Velocity":88,"Duration":403020,"SoundDuration":403020,"Delta":316780938},{"NoteNumber":64,"Velocity":74,"Duration":403020,"SoundDuration":403020,"Delta":316780938},{"NoteNumber":52,"Velocity":61,"Duration":133129,"SoundDuration":133129,"Delta":316780938},{"NoteNumber":40,"Velocity":51,"Duration":133129,"SoundDuration":133129,"Delta":316780938},{"NoteNumber":42,"Velocity":47,"Duration":133129,"SoundDuration":133129,"Delta":316914067},{"NoteNumber":54,"Velocity":56,"Duration":133129,"SoundDuration":133129,"Delta":316914067},{"NoteNumber":44,"Velocity":47,"Duration":136761,"SoundDuration":136761,"Delta":317047197},{"NoteNumber":56,"Velocity":56,"Duration":136761,"SoundDuration":136761,"Delta":317047197},{"NoteNumber":69,"Velocity":71,"Duration":132450,"SoundDuration":132450,"Delta":317183958},{"NoteNumber":81,"Velocity":84,"Duration":132450,"SoundDuration":132450,"Delta":317183958},{"NoteNumber":54,"Velocity":59,"Duration":132450,"SoundDuration":132450,"Delta":317183958},{"NoteNumber":42,"Velocity":50,"Duration":132450,"SoundDuration":132450,"Delta":317183958},{"NoteNumber":71,"Velocity":64,"Duration":132450,"SoundDuration":132450,"Delta":317316408},{"NoteNumber":83,"Velocity":76,"Duration":132450,"SoundDuration":132450,"Delta":317316408},{"NoteNumber":56,"Velocity":61,"Duration":132450,"SoundDuration":132450,"Delta":317316408},{"NoteNumber":44,"Velocity":51,"Duration":132450,"SoundDuration":132450,"Delta":317316408},{"NoteNumber":84,"Velocity":76,"Duration":132450,"SoundDuration":132450,"Delta":317448859},{"NoteNumber":72,"Velocity":64,"Duration":132450,"SoundDuration":132450,"Delta":317448859},{"NoteNumber":57,"Velocity":53,"Duration":132450,"SoundDuration":132450,"Delta":317448859},{"NoteNumber":45,"Velocity":45,"Duration":132450,"SoundDuration":132450,"Delta":317448859},{"NoteNumber":83,"Velocity":85,"Duration":132450,"SoundDuration":132450,"Delta":317581309},{"NoteNumber":71,"Velocity":72,"Duration":132450,"SoundDuration":132450,"Delta":317581309},{"NoteNumber":59,"Velocity":70,"Duration":406023,"SoundDuration":406023,"Delta":317581309},{"NoteNumber":47,"Velocity":59,"Duration":406023,"SoundDuration":406023,"Delta":317581309},{"NoteNumber":84,"Velocity":77,"Duration":132450,"SoundDuration":132450,"Delta":317713759},{"NoteNumber":72,"Velocity":65,"Duration":132450,"SoundDuration":132450,"Delta":317713759},{"NoteNumber":74,"Velocity":65,"Duration":141123,"SoundDuration":141123,"Delta":317846210},{"NoteNumber":86,"Velocity":77,"Duration":141123,"SoundDuration":141123,"Delta":317846210},{"NoteNumber":76,"Velocity":80,"Duration":403508,"SoundDuration":403508,"Delta":317987333},{"NoteNumber":88,"Velocity":95,"Duration":403508,"SoundDuration":403508,"Delta":317987333},{"NoteNumber":52,"Velocity":61,"Duration":133129,"SoundDuration":133129,"Delta":317987333},{"NoteNumber":40,"Velocity":51,"Duration":133129,"SoundDuration":133129,"Delta":317987333},{"NoteNumber":42,"Velocity":47,"Duration":133129,"SoundDuration":133129,"Delta":318120462},{"NoteNumber":54,"Velocity":56,"Duration":133129,"SoundDuration":133129,"Delta":318120462},{"NoteNumber":44,"Velocity":47,"Duration":137249,"SoundDuration":137249,"Delta":318253592},{"NoteNumber":56,"Velocity":56,"Duration":137249,"SoundDuration":137249,"Delta":318253592},{"NoteNumber":81,"Velocity":84,"Duration":132013,"SoundDuration":132013,"Delta":318390841},{"NoteNumber":69,"Velocity":71,"Duration":132013,"SoundDuration":132013,"Delta":318390841},{"NoteNumber":54,"Velocity":59,"Duration":132013,"SoundDuration":132013,"Delta":318390841},{"NoteNumber":42,"Velocity":50,"Duration":132013,"SoundDuration":132013,"Delta":318390841},{"NoteNumber":71,"Velocity":64,"Duration":132013,"SoundDuration":132013,"Delta":318522855},{"NoteNumber":83,"Velocity":76,"Duration":132013,"SoundDuration":132013,"Delta":318522855},{"NoteNumber":56,"Velocity":61,"Duration":132013,"SoundDuration":132013,"Delta":318522855},{"NoteNumber":44,"Velocity":51,"Duration":132013,"SoundDuration":132013,"Delta":318522855},{"NoteNumber":72,"Velocity":64,"Duration":132013,"SoundDuration":132013,"Delta":318654868},{"NoteNumber":84,"Velocity":76,"Duration":132013,"SoundDuration":132013,"Delta":318654868},{"NoteNumber":57,"Velocity":53,"Duration":132013,"SoundDuration":132013,"Delta":318654868},{"NoteNumber":45,"Velocity":45,"Duration":132013,"SoundDuration":132013,"Delta":318654868},{"NoteNumber":71,"Velocity":72,"Duration":132013,"SoundDuration":132013,"Delta":318786881},{"NoteNumber":83,"Velocity":85,"Duration":132013,"SoundDuration":132013,"Delta":318786881},{"NoteNumber":47,"Velocity":59,"Duration":405149,"SoundDuration":405149,"Delta":318786881},{"NoteNumber":59,"Velocity":70,"Duration":405149,"SoundDuration":405149,"Delta":318786881},{"NoteNumber":84,"Velocity":77,"Duration":132013,"SoundDuration":132013,"Delta":318918895},{"NoteNumber":72,"Velocity":65,"Duration":132013,"SoundDuration":132013,"Delta":318918895},{"NoteNumber":74,"Velocity":65,"Duration":141123,"SoundDuration":141123,"Delta":319050908},{"NoteNumber":86,"Velocity":77,"Duration":141123,"SoundDuration":141123,"Delta":319050908},{"NoteNumber":76,"Velocity":80,"Duration":411164,"SoundDuration":411164,"Delta":319192031},{"NoteNumber":88,"Velocity":95,"Duration":411164,"SoundDuration":411164,"Delta":319192031},{"NoteNumber":40,"Velocity":57,"Duration":135134,"SoundDuration":135134,"Delta":319192031},{"NoteNumber":52,"Velocity":68,"Duration":135134,"SoundDuration":135134,"Delta":319192031},{"NoteNumber":54,"Velocity":59,"Duration":135134,"SoundDuration":135134,"Delta":319327166},{"NoteNumber":42,"Velocity":50,"Duration":135134,"SoundDuration":135134,"Delta":319327166},{"NoteNumber":56,"Velocity":57,"Duration":140894,"SoundDuration":140894,"Delta":319462301},{"NoteNumber":44,"Velocity":48,"Duration":140894,"SoundDuration":140894,"Delta":319462301},{"NoteNumber":81,"Velocity":80,"Duration":201018,"SoundDuration":201018,"Delta":319603196},{"NoteNumber":76,"Velocity":80,"Duration":201018,"SoundDuration":201018,"Delta":319603196},{"NoteNumber":72,"Velocity":80,"Duration":201018,"SoundDuration":201018,"Delta":319603196},{"NoteNumber":84,"Velocity":95,"Duration":201018,"SoundDuration":201018,"Delta":319603196},{"NoteNumber":45,"Velocity":56,"Duration":134012,"SoundDuration":134012,"Delta":319603196},{"NoteNumber":57,"Velocity":67,"Duration":134012,"SoundDuration":134012,"Delta":319603196},{"NoteNumber":59,"Velocity":58,"Duration":134012,"SoundDuration":134012,"Delta":319737208},{"NoteNumber":47,"Velocity":49,"Duration":134012,"SoundDuration":134012,"Delta":319737208},{"NoteNumber":60,"Velocity":58,"Duration":134012,"SoundDuration":134012,"Delta":319871221},{"NoteNumber":48,"Velocity":49,"Duration":134012,"SoundDuration":134012,"Delta":319871221},{"NoteNumber":59,"Velocity":66,"Duration":136967,"SoundDuration":136967,"Delta":320005233},{"NoteNumber":47,"Velocity":56,"Duration":136967,"SoundDuration":136967,"Delta":320005233},{"NoteNumber":60,"Velocity":59,"Duration":136967,"SoundDuration":136967,"Delta":320142201},{"NoteNumber":48,"Velocity":50,"Duration":136967,"SoundDuration":136967,"Delta":320142201},{"NoteNumber":62,"Velocity":59,"Duration":136967,"SoundDuration":136967,"Delta":320279168},{"NoteNumber":50,"Velocity":50,"Duration":136967,"SoundDuration":136967,"Delta":320279168},{"NoteNumber":83,"Velocity":91,"Duration":210585,"SoundDuration":210585,"Delta":320416136},{"NoteNumber":76,"Velocity":77,"Duration":210585,"SoundDuration":210585,"Delta":320416136},{"NoteNumber":80,"Velocity":77,"Duration":210585,"SoundDuration":210585,"Delta":320416136},{"NoteNumber":71,"Velocity":77,"Duration":210585,"SoundDuration":210585,"Delta":320416136},{"NoteNumber":64,"Velocity":70,"Duration":210585,"SoundDuration":210585,"Delta":320416136},{"NoteNumber":52,"Velocity":59,"Duration":210585,"SoundDuration":210585,"Delta":320416136},{"NoteNumber":84,"Velocity":95,"Duration":202387,"SoundDuration":202387,"Delta":320837307},{"NoteNumber":76,"Velocity":80,"Duration":202387,"SoundDuration":202387,"Delta":320837307},{"NoteNumber":81,"Velocity":80,"Duration":202387,"SoundDuration":202387,"Delta":320837307},{"NoteNumber":72,"Velocity":80,"Duration":202387,"SoundDuration":202387,"Delta":320837307},{"NoteNumber":57,"Velocity":67,"Duration":134925,"SoundDuration":134925,"Delta":320837307},{"NoteNumber":45,"Velocity":56,"Duration":134925,"SoundDuration":134925,"Delta":320837307},{"NoteNumber":47,"Velocity":49,"Duration":134925,"SoundDuration":134925,"Delta":320972232},{"NoteNumber":59,"Velocity":58,"Duration":134925,"SoundDuration":134925,"Delta":320972232},{"NoteNumber":60,"Velocity":58,"Duration":134925,"SoundDuration":134925,"Delta":321107158},{"NoteNumber":48,"Velocity":49,"Duration":134925,"SoundDuration":134925,"Delta":321107158},{"NoteNumber":47,"Velocity":56,"Duration":136967,"SoundDuration":136967,"Delta":321242083},{"NoteNumber":59,"Velocity":66,"Duration":136967,"SoundDuration":136967,"Delta":321242083},{"NoteNumber":48,"Velocity":50,"Duration":136967,"SoundDuration":136967,"Delta":321379051},{"NoteNumber":60,"Velocity":59,"Duration":136967,"SoundDuration":136967,"Delta":321379051},{"NoteNumber":50,"Velocity":50,"Duration":136967,"SoundDuration":136967,"Delta":321516018},{"NoteNumber":62,"Velocity":59,"Duration":136967,"SoundDuration":136967,"Delta":321516018},{"NoteNumber":71,"Velocity":77,"Duration":210187,"SoundDuration":210187,"Delta":321652986},{"NoteNumber":76,"Velocity":77,"Duration":210187,"SoundDuration":210187,"Delta":321652986},{"NoteNumber":80,"Velocity":77,"Duration":210187,"SoundDuration":210187,"Delta":321652986},{"NoteNumber":83,"Velocity":91,"Duration":210187,"SoundDuration":210187,"Delta":321652986},{"NoteNumber":52,"Velocity":59,"Duration":210187,"SoundDuration":210187,"Delta":321652986},{"NoteNumber":64,"Velocity":70,"Duration":210187,"SoundDuration":210187,"Delta":321652986},{"NoteNumber":81,"Velocity":80,"Duration":203073,"SoundDuration":203073,"Delta":322073360},{"NoteNumber":84,"Velocity":95,"Duration":203073,"SoundDuration":203073,"Delta":322073360},{"NoteNumber":76,"Velocity":80,"Duration":203073,"SoundDuration":203073,"Delta":322073360},{"NoteNumber":72,"Velocity":80,"Duration":203073,"SoundDuration":203073,"Delta":322073360},{"NoteNumber":33,"Velocity":56,"Duration":135381,"SoundDuration":135381,"Delta":322073360},{"NoteNumber":45,"Velocity":67,"Duration":135381,"SoundDuration":135381,"Delta":322073360},{"NoteNumber":47,"Velocity":58,"Duration":135381,"SoundDuration":135381,"Delta":322208742},{"NoteNumber":35,"Velocity":49,"Duration":135381,"SoundDuration":135381,"Delta":322208742},{"NoteNumber":48,"Velocity":58,"Duration":135381,"SoundDuration":135381,"Delta":322344124},{"NoteNumber":36,"Velocity":49,"Duration":135381,"SoundDuration":135381,"Delta":322344124},{"NoteNumber":35,"Velocity":56,"Duration":135382,"SoundDuration":135382,"Delta":322479506},{"NoteNumber":47,"Velocity":66,"Duration":135382,"SoundDuration":135382,"Delta":322479506},{"NoteNumber":36,"Velocity":50,"Duration":135381,"SoundDuration":135381,"Delta":322614888},{"NoteNumber":48,"Velocity":59,"Duration":135381,"SoundDuration":135381,"Delta":322614888},{"NoteNumber":38,"Velocity":50,"Duration":135381,"SoundDuration":135381,"Delta":322750270},{"NoteNumber":50,"Velocity":59,"Duration":135381,"SoundDuration":135381,"Delta":322750270},{"NoteNumber":80,"Velocity":91,"Duration":214715,"SoundDuration":214715,"Delta":322885652},{"NoteNumber":76,"Velocity":77,"Duration":214715,"SoundDuration":214715,"Delta":322885652},{"NoteNumber":71,"Velocity":77,"Duration":214715,"SoundDuration":214715,"Delta":322885652},{"NoteNumber":83,"Velocity":91,"Duration":214715,"SoundDuration":214715,"Delta":322885652},{"NoteNumber":40,"Velocity":59,"Duration":214715,"SoundDuration":214715,"Delta":322885652},{"NoteNumber":52,"Velocity":70,"Duration":214715,"SoundDuration":214715,"Delta":322885652},{"NoteNumber":69,"Velocity":80,"Duration":214714,"SoundDuration":214714,"Delta":323315082},{"NoteNumber":81,"Velocity":95,"Duration":214714,"SoundDuration":214714,"Delta":323315082},{"NoteNumber":72,"Velocity":80,"Duration":214714,"SoundDuration":214714,"Delta":323315082},{"NoteNumber":76,"Velocity":80,"Duration":214714,"SoundDuration":214714,"Delta":323315082},{"NoteNumber":33,"Velocity":61,"Duration":214714,"SoundDuration":214714,"Delta":323315082},{"NoteNumber":45,"Velocity":72,"Duration":214714,"SoundDuration":214714,"Delta":323315082},{"NoteNumber":64,"Velocity":72,"Duration":206157,"SoundDuration":206157,"Delta":324588770},{"NoteNumber":57,"Velocity":72,"Duration":206157,"SoundDuration":206157,"Delta":324588770},{"NoteNumber":60,"Velocity":72,"Duration":206157,"SoundDuration":206157,"Delta":324588770},{"NoteNumber":69,"Velocity":85,"Duration":206157,"SoundDuration":206157,"Delta":324588770},{"NoteNumber":36,"Velocity":49,"Duration":206157,"SoundDuration":206157,"Delta":324588770},{"NoteNumber":40,"Velocity":49,"Duration":206157,"SoundDuration":206157,"Delta":324588770},{"NoteNumber":45,"Velocity":58,"Duration":206157,"SoundDuration":206157,"Delta":324588770},{"NoteNumber":33,"Velocity":49,"Duration":206157,"SoundDuration":206157,"Delta":324588770},{"NoteNumber":60,"Velocity":74,"Duration":212871,"SoundDuration":212871,"Delta":325001084},{"NoteNumber":64,"Velocity":74,"Duration":212871,"SoundDuration":212871,"Delta":325001084},{"NoteNumber":57,"Velocity":74,"Duration":212871,"SoundDuration":212871,"Delta":325001084},{"NoteNumber":69,"Velocity":88,"Duration":212871,"SoundDuration":212871,"Delta":325001084},{"NoteNumber":33,"Velocity":52,"Duration":212871,"SoundDuration":212871,"Delta":325001084},{"NoteNumber":40,"Velocity":52,"Duration":212871,"SoundDuration":212871,"Delta":325001084},{"NoteNumber":45,"Velocity":62,"Duration":212871,"SoundDuration":212871,"Delta":325001084},{"NoteNumber":36,"Velocity":52,"Duration":212871,"SoundDuration":212871,"Delta":325001084},{"NoteNumber":60,"Velocity":76,"Duration":230326,"SoundDuration":230326,"Delta":325426827},{"NoteNumber":57,"Velocity":76,"Duration":230326,"SoundDuration":230326,"Delta":325426827},{"NoteNumber":64,"Velocity":76,"Duration":230326,"SoundDuration":230326,"Delta":325426827},{"NoteNumber":69,"Velocity":90,"Duration":230326,"SoundDuration":230326,"Delta":325426827},{"NoteNumber":33,"Velocity":56,"Duration":230326,"SoundDuration":230326,"Delta":325426827},{"NoteNumber":40,"Velocity":56,"Duration":230326,"SoundDuration":230326,"Delta":325426827},{"NoteNumber":45,"Velocity":67,"Duration":230326,"SoundDuration":230326,"Delta":325426827},{"NoteNumber":36,"Velocity":56,"Duration":230326,"SoundDuration":230326,"Delta":325426827},{"NoteNumber":57,"Velocity":77,"Duration":230326,"SoundDuration":230326,"Delta":325887480},{"NoteNumber":69,"Velocity":91,"Duration":230326,"SoundDuration":230326,"Delta":325887480},{"NoteNumber":60,"Velocity":77,"Duration":230326,"SoundDuration":230326,"Delta":325887480},{"NoteNumber":64,"Velocity":77,"Duration":230326,"SoundDuration":230326,"Delta":325887480},{"NoteNumber":33,"Velocity":57,"Duration":230326,"SoundDuration":230326,"Delta":325887480},{"NoteNumber":40,"Velocity":57,"Duration":230326,"SoundDuration":230326,"Delta":325887480},{"NoteNumber":45,"Velocity":68,"Duration":230326,"SoundDuration":230326,"Delta":325887480},{"NoteNumber":36,"Velocity":57,"Duration":230326,"SoundDuration":230326,"Delta":325887480}]}