{"title":"April","artist":"Tchaikovsky","durationMs":125716,"midiSha256":"04d5e86edcbabc87f066caebf9a68ec96d50cc0756be244f8e913d97d7c6bca2","midiObject":[{"NoteNumber":65,"Velocity":51,"Duration":251045,"SoundDuration":251045,"Delta":0},{"NoteNumber":67,"Velocity":55,"Duration":709858,"SoundDuration":709858,"Delta":251046},{"NoteNumber":58,"Velocity":30,"Duration":230769,"SoundDuration":230769,"Delta":251046},{"NoteNumber":62,"Velocity":30,"Duration":230769,"SoundDuration":230769,"Delta":251046},{"NoteNumber":65,"Velocity":36,"Duration":230769,"SoundDuration":230769,"Delta":251046},{"NoteNumber":58,"Velocity":31,"Duration":237153,"SoundDuration":237153,"Delta":481815},{"NoteNumber":65,"Velocity":35,"Duration":237153,"SoundDuration":237153,"Delta":481815},{"NoteNumber":62,"Velocity":31,"Duration":237153,"SoundDuration":237153,"Delta":481815},{"NoteNumber":58,"Velocity":28,"Duration":241935,"SoundDuration":241935,"Delta":718969},{"NoteNumber":65,"Velocity":32,"Duration":241935,"SoundDuration":241935,"Delta":718969},{"NoteNumber":62,"Velocity":28,"Duration":241935,"SoundDuration":241935,"Delta":718969},{"NoteNumber":69,"Velocity":56,"Duration":459770,"SoundDuration":459770,"Delta":960904},{"NoteNumber":62,"Velocity":31,"Duration":229884,"SoundDuration":229884,"Delta":960904},{"NoteNumber":65,"Velocity":35,"Duration":229884,"SoundDuration":229884,"Delta":960904},{"NoteNumber":58,"Velocity":31,"Duration":229884,"SoundDuration":229884,"Delta":960904},{"NoteNumber":62,"Velocity":24,"Duration":229885,"SoundDuration":229885,"Delta":1190789},{"NoteNumber":65,"Velocity":32,"Duration":229885,"SoundDuration":229885,"Delta":1190789},{"NoteNumber":58,"Velocity":24,"Duration":229885,"SoundDuration":229885,"Delta":1190789},{"NoteNumber":70,"Velocity":55,"Duration":240000,"SoundDuration":240000,"Delta":1420675},{"NoteNumber":74,"Velocity":61,"Duration":679322,"SoundDuration":679322,"Delta":1660675},{"NoteNumber":65,"Velocity":36,"Duration":228136,"SoundDuration":228136,"Delta":1883723},{"NoteNumber":63,"Velocity":36,"Duration":228136,"SoundDuration":228136,"Delta":1883723},{"NoteNumber":57,"Velocity":30,"Duration":228136,"SoundDuration":228136,"Delta":1883723},{"NoteNumber":63,"Velocity":36,"Duration":228137,"SoundDuration":228137,"Delta":2111860},{"NoteNumber":57,"Velocity":30,"Duration":228137,"SoundDuration":228137,"Delta":2111860},{"NoteNumber":65,"Velocity":36,"Duration":228137,"SoundDuration":228137,"Delta":2111860},{"NoteNumber":72,"Velocity":55,"Duration":456274,"SoundDuration":456274,"Delta":2339997},{"NoteNumber":57,"Velocity":30,"Duration":228136,"SoundDuration":228136,"Delta":2339997},{"NoteNumber":65,"Velocity":36,"Duration":228136,"SoundDuration":228136,"Delta":2339997},{"NoteNumber":63,"Velocity":36,"Duration":228136,"SoundDuration":228136,"Delta":2339997},{"NoteNumber":63,"Velocity":36,"Duration":218631,"SoundDuration":218631,"Delta":2568134},{"NoteNumber":57,"Velocity":30,"Duration":218631,"SoundDuration":218631,"Delta":2568134},{"NoteNumber":65,"Velocity":36,"Duration":218631,"SoundDuration":218631,"Delta":2568134},{"NoteNumber":65,"Velocity":52,"Duration":235756,"SoundDuration":235756,"Delta":2796271},{"NoteNumber":71,"Velocity":55,"Duration":679381,"SoundDuration":679381,"Delta":3032028},{"NoteNumber":62,"Velocity":30,"Duration":225564,"SoundDuration":225564,"Delta":3255076},{"NoteNumber":56,"Velocity":30,"Duration":225564,"SoundDuration":225564,"Delta":3255076},{"NoteNumber":65,"Velocity":36,"Duration":225564,"SoundDuration":225564,"Delta":3255076},{"NoteNumber":56,"Velocity":30,"Duration":230768,"SoundDuration":230768,"Delta":3480640},{"NoteNumber":65,"Velocity":36,"Duration":230768,"SoundDuration":230768,"Delta":3480640},{"NoteNumber":62,"Velocity":30,"Duration":230768,"SoundDuration":230768,"Delta":3480640},{"NoteNumber":72,"Velocity":60,"Duration":447901,"SoundDuration":447901,"Delta":3711409},{"NoteNumber":56,"Velocity":33,"Duration":224020,"SoundDuration":224020,"Delta":3711409},{"NoteNumber":65,"Velocity":40,"Duration":224020,"SoundDuration":224020,"Delta":3711409},{"NoteNumber":62,"Velocity":33,"Duration":224020,"SoundDuration":224020,"Delta":3711409},{"NoteNumber":56,"Velocity":33,"Duration":223880,"SoundDuration":223880,"Delta":3935430},{"NoteNumber":65,"Velocity":40,"Duration":223880,"SoundDuration":223880,"Delta":3935430},{"NoteNumber":62,"Velocity":33,"Duration":223880,"SoundDuration":223880,"Delta":3935430},{"NoteNumber":74,"Velocity":58,"Duration":237135,"SoundDuration":237135,"Delta":4159310},{"NoteNumber":77,"Velocity":66,"Duration":671641,"SoundDuration":671641,"Delta":4396446},{"NoteNumber":55,"Velocity":38,"Duration":223880,"SoundDuration":223880,"Delta":4620326},{"NoteNumber":63,"Velocity":47,"Duration":223880,"SoundDuration":223880,"Delta":4620326},{"NoteNumber":60,"Velocity":38,"Duration":223880,"SoundDuration":223880,"Delta":4620326},{"NoteNumber":60,"Velocity":38,"Duration":223880,"SoundDuration":223880,"Delta":4844207},{"NoteNumber":63,"Velocity":47,"Duration":223880,"SoundDuration":223880,"Delta":4844207},{"NoteNumber":55,"Velocity":38,"Duration":223880,"SoundDuration":223880,"Delta":4844207},{"NoteNumber":75,"Velocity":64,"Duration":447761,"SoundDuration":447761,"Delta":5068087},{"NoteNumber":55,"Velocity":38,"Duration":223880,"SoundDuration":223880,"Delta":5068087},{"NoteNumber":63,"Velocity":48,"Duration":223880,"SoundDuration":223880,"Delta":5068087},{"NoteNumber":60,"Velocity":38,"Duration":223880,"SoundDuration":223880,"Delta":5068087},{"NoteNumber":60,"Velocity":38,"Duration":223880,"SoundDuration":223880,"Delta":5291968},{"NoteNumber":55,"Velocity":38,"Duration":223880,"SoundDuration":223880,"Delta":5291968},{"NoteNumber":63,"Velocity":48,"Duration":223880,"SoundDuration":223880,"Delta":5291968},{"NoteNumber":75,"Velocity":71,"Duration":238474,"SoundDuration":238474,"Delta":5515848},{"NoteNumber":76,"Velocity":77,"Duration":699743,"SoundDuration":699743,"Delta":5754322},{"NoteNumber":57,"Velocity":45,"Duration":226414,"SoundDuration":226414,"Delta":5980737},{"NoteNumber":55,"Velocity":44,"Duration":226414,"SoundDuration":226414,"Delta":5980737},{"NoteNumber":64,"Velocity":49,"Duration":226414,"SoundDuration":226414,"Delta":5980737},{"NoteNumber":61,"Velocity":49,"Duration":226414,"SoundDuration":226414,"Delta":5980737},{"NoteNumber":55,"Velocity":38,"Duration":246913,"SoundDuration":246913,"Delta":6207152},{"NoteNumber":61,"Velocity":45,"Duration":246913,"SoundDuration":246913,"Delta":6207152},{"NoteNumber":57,"Velocity":38,"Duration":246913,"SoundDuration":246913,"Delta":6207152},{"NoteNumber":64,"Velocity":45,"Duration":246913,"SoundDuration":246913,"Delta":6207152},{"NoteNumber":82,"Velocity":72,"Duration":458014,"SoundDuration":458014,"Delta":6454066},{"NoteNumber":55,"Velocity":41,"Duration":229007,"SoundDuration":229007,"Delta":6454066},{"NoteNumber":61,"Velocity":50,"Duration":229007,"SoundDuration":229007,"Delta":6454066},{"NoteNumber":57,"Velocity":41,"Duration":229007,"SoundDuration":229007,"Delta":6454066},{"NoteNumber":64,"Velocity":50,"Duration":229007,"SoundDuration":229007,"Delta":6454066},{"NoteNumber":57,"Velocity":41,"Duration":229007,"SoundDuration":229007,"Delta":6683073},{"NoteNumber":55,"Velocity":41,"Duration":229007,"SoundDuration":229007,"Delta":6683073},{"NoteNumber":64,"Velocity":50,"Duration":229007,"SoundDuration":229007,"Delta":6683073},{"NoteNumber":61,"Velocity":50,"Duration":229007,"SoundDuration":229007,"Delta":6683073},{"NoteNumber":81,"Velocity":67,"Duration":244898,"SoundDuration":244898,"Delta":6912081},{"NoteNumber":69,"Velocity":66,"Duration":716684,"SoundDuration":716684,"Delta":7156979},{"NoteNumber":53,"Velocity":37,"Duration":234375,"SoundDuration":234375,"Delta":7391354},{"NoteNumber":57,"Velocity":37,"Duration":234375,"SoundDuration":234375,"Delta":7391354},{"NoteNumber":62,"Velocity":44,"Duration":234375,"SoundDuration":234375,"Delta":7391354},{"NoteNumber":62,"Velocity":43,"Duration":247934,"SoundDuration":247934,"Delta":7625729},{"NoteNumber":57,"Velocity":37,"Duration":247934,"SoundDuration":247934,"Delta":7625729},{"NoteNumber":53,"Velocity":37,"Duration":247934,"SoundDuration":247934,"Delta":7625729},{"NoteNumber":82,"Velocity":69,"Duration":472440,"SoundDuration":472440,"Delta":7873663},{"NoteNumber":53,"Velocity":36,"Duration":236220,"SoundDuration":236220,"Delta":7873663},{"NoteNumber":57,"Velocity":36,"Duration":236220,"SoundDuration":236220,"Delta":7873663},{"NoteNumber":62,"Velocity":43,"Duration":236220,"SoundDuration":236220,"Delta":7873663},{"NoteNumber":62,"Velocity":42,"Duration":236220,"SoundDuration":236220,"Delta":8109883},{"NoteNumber":53,"Velocity":36,"Duration":236220,"SoundDuration":236220,"Delta":8109883},{"NoteNumber":57,"Velocity":36,"Duration":236220,"SoundDuration":236220,"Delta":8109883},{"NoteNumber":81,"Velocity":61,"Duration":252100,"SoundDuration":252100,"Delta":8346104},{"NoteNumber":69,"Velocity":56,"Duration":736165,"SoundDuration":736165,"Delta":8598205},{"NoteNumber":55,"Velocity":31,"Duration":240963,"SoundDuration":240963,"Delta":8839169},{"NoteNumber":52,"Velocity":31,"Duration":240963,"SoundDuration":240963,"Delta":8839169},{"NoteNumber":57,"Velocity":37,"Duration":240963,"SoundDuration":240963,"Delta":8839169},{"NoteNumber":61,"Velocity":37,"Duration":240963,"SoundDuration":240963,"Delta":8839169},{"NoteNumber":52,"Velocity":31,"Duration":254237,"SoundDuration":254237,"Delta":9080133},{"NoteNumber":61,"Velocity":37,"Duration":254237,"SoundDuration":254237,"Delta":9080133},{"NoteNumber":55,"Velocity":26,"Duration":254237,"SoundDuration":254237,"Delta":9080133},{"NoteNumber":57,"Velocity":37,"Duration":254237,"SoundDuration":254237,"Delta":9080133},{"NoteNumber":82,"Velocity":58,"Duration":483871,"SoundDuration":483871,"Delta":9334370},{"NoteNumber":52,"Velocity":30,"Duration":241935,"SoundDuration":241935,"Delta":9334370},{"NoteNumber":61,"Velocity":37,"Duration":241935,"SoundDuration":241935,"Delta":9334370},{"NoteNumber":55,"Velocity":25,"Duration":241935,"SoundDuration":241935,"Delta":9334370},{"NoteNumber":57,"Velocity":37,"Duration":241935,"SoundDuration":241935,"Delta":9334370},{"NoteNumber":52,"Velocity":30,"Duration":241935,"SoundDuration":241935,"Delta":9576306},{"NoteNumber":61,"Velocity":36,"Duration":241935,"SoundDuration":241935,"Delta":9576306},{"NoteNumber":55,"Velocity":25,"Duration":241935,"SoundDuration":241935,"Delta":9576306},{"NoteNumber":57,"Velocity":36,"Duration":241935,"SoundDuration":241935,"Delta":9576306},{"NoteNumber":81,"Velocity":53,"Duration":250000,"SoundDuration":250000,"Delta":9818241},{"NoteNumber":69,"Velocity":50,"Duration":1282118,"SoundDuration":1282118,"Delta":10068241},{"NoteNumber":62,"Velocity":35,"Duration":258620,"SoundDuration":258620,"Delta":10318241},{"NoteNumber":65,"Velocity":35,"Duration":258620,"SoundDuration":258620,"Delta":10318241},{"NoteNumber":57,"Velocity":33,"Duration":258620,"SoundDuration":258620,"Delta":10318241},{"NoteNumber":50,"Velocity":23,"Duration":258620,"SoundDuration":258620,"Delta":10318241},{"NoteNumber":62,"Velocity":31,"Duration":258620,"SoundDuration":258620,"Delta":10576862},{"NoteNumber":65,"Velocity":31,"Duration":258620,"SoundDuration":258620,"Delta":10576862},{"NoteNumber":57,"Velocity":29,"Duration":258620,"SoundDuration":258620,"Delta":10576862},{"NoteNumber":50,"Velocity":21,"Duration":258620,"SoundDuration":258620,"Delta":10576862},{"NoteNumber":65,"Velocity":31,"Duration":258620,"SoundDuration":258620,"Delta":10835482},{"NoteNumber":62,"Velocity":31,"Duration":258620,"SoundDuration":258620,"Delta":10835482},{"NoteNumber":50,"Velocity":21,"Duration":258620,"SoundDuration":258620,"Delta":10835482},{"NoteNumber":57,"Velocity":29,"Duration":258620,"SoundDuration":258620,"Delta":10835482},{"NoteNumber":62,"Velocity":31,"Duration":256256,"SoundDuration":256256,"Delta":11094103},{"NoteNumber":65,"Velocity":31,"Duration":256256,"SoundDuration":256256,"Delta":11094103},{"NoteNumber":50,"Velocity":21,"Duration":256256,"SoundDuration":256256,"Delta":11094103},{"NoteNumber":57,"Velocity":29,"Duration":256256,"SoundDuration":256256,"Delta":11094103},{"NoteNumber":53,"Velocity":52,"Duration":246913,"SoundDuration":246913,"Delta":11350360},{"NoteNumber":55,"Velocity":55,"Duration":718148,"SoundDuration":718148,"Delta":11597273},{"NoteNumber":48,"Velocity":31,"Duration":240963,"SoundDuration":240963,"Delta":11838237},{"NoteNumber":63,"Velocity":35,"Duration":240963,"SoundDuration":240963,"Delta":11838237},{"NoteNumber":53,"Velocity":31,"Duration":240963,"SoundDuration":240963,"Delta":11838237},{"NoteNumber":65,"Velocity":35,"Duration":240963,"SoundDuration":240963,"Delta":11838237},{"NoteNumber":53,"Velocity":29,"Duration":236220,"SoundDuration":236220,"Delta":12079201},{"NoteNumber":48,"Velocity":29,"Duration":236220,"SoundDuration":236220,"Delta":12079201},{"NoteNumber":65,"Velocity":33,"Duration":236220,"SoundDuration":236220,"Delta":12079201},{"NoteNumber":63,"Velocity":33,"Duration":236220,"SoundDuration":236220,"Delta":12079201},{"NoteNumber":57,"Velocity":55,"Duration":471557,"SoundDuration":471557,"Delta":12315422},{"NoteNumber":53,"Velocity":35,"Duration":233463,"SoundDuration":233463,"Delta":12315422},{"NoteNumber":63,"Velocity":35,"Duration":233463,"SoundDuration":233463,"Delta":12315422},{"NoteNumber":65,"Velocity":35,"Duration":233463,"SoundDuration":233463,"Delta":12315422},{"NoteNumber":48,"Velocity":35,"Duration":233463,"SoundDuration":233463,"Delta":12315422},{"NoteNumber":53,"Velocity":27,"Duration":238094,"SoundDuration":238094,"Delta":12548885},{"NoteNumber":48,"Velocity":27,"Duration":238094,"SoundDuration":238094,"Delta":12548885},{"NoteNumber":65,"Velocity":32,"Duration":238094,"SoundDuration":238094,"Delta":12548885},{"NoteNumber":63,"Velocity":27,"Duration":238094,"SoundDuration":238094,"Delta":12548885},{"NoteNumber":60,"Velocity":52,"Duration":242915,"SoundDuration":242915,"Delta":12786980},{"NoteNumber":55,"Velocity":59,"Duration":687652,"SoundDuration":687652,"Delta":13029895},{"NoteNumber":46,"Velocity":30,"Duration":229217,"SoundDuration":229217,"Delta":13259112},{"NoteNumber":62,"Velocity":36,"Duration":229217,"SoundDuration":229217,"Delta":13259112},{"NoteNumber":65,"Velocity":36,"Duration":229217,"SoundDuration":229217,"Delta":13259112},{"NoteNumber":62,"Velocity":36,"Duration":229217,"SoundDuration":229217,"Delta":13488330},{"NoteNumber":65,"Velocity":36,"Duration":229217,"SoundDuration":229217,"Delta":13488330},{"NoteNumber":46,"Velocity":30,"Duration":229217,"SoundDuration":229217,"Delta":13488330},{"NoteNumber":53,"Velocity":55,"Duration":458434,"SoundDuration":458434,"Delta":13717547},{"NoteNumber":46,"Velocity":30,"Duration":229217,"SoundDuration":229217,"Delta":13717547},{"NoteNumber":65,"Velocity":36,"Duration":229217,"SoundDuration":229217,"Delta":13717547},{"NoteNumber":62,"Velocity":36,"Duration":229217,"SoundDuration":229217,"Delta":13717547},{"NoteNumber":62,"Velocity":36,"Duration":229217,"SoundDuration":229217,"Delta":13946765},{"NoteNumber":46,"Velocity":30,"Duration":229217,"SoundDuration":229217,"Delta":13946765},{"NoteNumber":65,"Velocity":36,"Duration":229217,"SoundDuration":229217,"Delta":13946765},{"NoteNumber":55,"Velocity":57,"Duration":238094,"SoundDuration":238094,"Delta":14175982},{"NoteNumber":57,"Velocity":63,"Duration":683874,"SoundDuration":683874,"Delta":14414077},{"NoteNumber":55,"Velocity":33,"Duration":226414,"SoundDuration":226414,"Delta":14637126},{"NoteNumber":50,"Velocity":33,"Duration":226414,"SoundDuration":226414,"Delta":14637126},{"NoteNumber":67,"Velocity":39,"Duration":226414,"SoundDuration":226414,"Delta":14637126},{"NoteNumber":65,"Velocity":33,"Duration":226414,"SoundDuration":226414,"Delta":14637126},{"NoteNumber":55,"Velocity":33,"Duration":234411,"SoundDuration":234411,"Delta":14863541},{"NoteNumber":65,"Velocity":33,"Duration":234411,"SoundDuration":234411,"Delta":14863541},{"NoteNumber":67,"Velocity":39,"Duration":234411,"SoundDuration":234411,"Delta":14863541},{"NoteNumber":50,"Velocity":33,"Duration":234411,"SoundDuration":234411,"Delta":14863541},{"NoteNumber":59,"Velocity":66,"Duration":458435,"SoundDuration":458435,"Delta":15097952},{"NoteNumber":55,"Velocity":36,"Duration":229217,"SoundDuration":229217,"Delta":15097952},{"NoteNumber":65,"Velocity":36,"Duration":229217,"SoundDuration":229217,"Delta":15097952},{"NoteNumber":67,"Velocity":42,"Duration":229217,"SoundDuration":229217,"Delta":15097952},{"NoteNumber":50,"Velocity":36,"Duration":229217,"SoundDuration":229217,"Delta":15097952},{"NoteNumber":55,"Velocity":36,"Duration":229217,"SoundDuration":229217,"Delta":15327170},{"NoteNumber":65,"Velocity":36,"Duration":229217,"SoundDuration":229217,"Delta":15327170},{"NoteNumber":67,"Velocity":44,"Duration":229217,"SoundDuration":229217,"Delta":15327170},{"NoteNumber":50,"Velocity":36,"Duration":229217,"SoundDuration":229217,"Delta":15327170},{"NoteNumber":62,"Velocity":61,"Duration":237135,"SoundDuration":237135,"Delta":15556387},{"NoteNumber":56,"Velocity":72,"Duration":679245,"SoundDuration":679245,"Delta":15793523},{"NoteNumber":60,"Velocity":41,"Duration":226414,"SoundDuration":226414,"Delta":16019938},{"NoteNumber":48,"Velocity":41,"Duration":226414,"SoundDuration":226414,"Delta":16019938},{"NoteNumber":63,"Velocity":51,"Duration":226414,"SoundDuration":226414,"Delta":16019938},{"NoteNumber":48,"Velocity":41,"Duration":226415,"SoundDuration":226415,"Delta":16246353},{"NoteNumber":63,"Velocity":52,"Duration":226415,"SoundDuration":226415,"Delta":16246353},{"NoteNumber":60,"Velocity":41,"Duration":226415,"SoundDuration":226415,"Delta":16246353},{"NoteNumber":55,"Velocity":70,"Duration":452829,"SoundDuration":452829,"Delta":16472768},{"NoteNumber":60,"Velocity":41,"Duration":226414,"SoundDuration":226414,"Delta":16472768},{"NoteNumber":48,"Velocity":41,"Duration":226414,"SoundDuration":226414,"Delta":16472768},{"NoteNumber":63,"Velocity":52,"Duration":226414,"SoundDuration":226414,"Delta":16472768},{"NoteNumber":48,"Velocity":42,"Duration":216981,"SoundDuration":216981,"Delta":16699183},{"NoteNumber":63,"Velocity":53,"Duration":216981,"SoundDuration":216981,"Delta":16699183},{"NoteNumber":60,"Velocity":42,"Duration":216981,"SoundDuration":216981,"Delta":16699183},{"NoteNumber":60,"Velocity":72,"Duration":251045,"SoundDuration":251045,"Delta":16925598},{"NoteNumber":61,"Velocity":75,"Duration":1412110,"SoundDuration":1412110,"Delta":17176644},{"NoteNumber":55,"Velocity":46,"Duration":231660,"SoundDuration":231660,"Delta":17404781},{"NoteNumber":64,"Velocity":57,"Duration":231660,"SoundDuration":231660,"Delta":17404781},{"NoteNumber":58,"Velocity":57,"Duration":231660,"SoundDuration":231660,"Delta":17404781},{"NoteNumber":58,"Velocity":47,"Duration":238474,"SoundDuration":238474,"Delta":17636441},{"NoteNumber":64,"Velocity":47,"Duration":238474,"SoundDuration":238474,"Delta":17636441},{"NoteNumber":55,"Velocity":39,"Duration":238474,"SoundDuration":238474,"Delta":17636441},{"NoteNumber":72,"Velocity":70,"Duration":466926,"SoundDuration":466926,"Delta":17874915},{"NoteNumber":55,"Velocity":43,"Duration":233463,"SoundDuration":233463,"Delta":17874915},{"NoteNumber":64,"Velocity":52,"Duration":233463,"SoundDuration":233463,"Delta":17874915},{"NoteNumber":58,"Velocity":52,"Duration":233463,"SoundDuration":233463,"Delta":17874915},{"NoteNumber":58,"Velocity":52,"Duration":233463,"SoundDuration":233463,"Delta":18108378},{"NoteNumber":55,"Velocity":43,"Duration":233463,"SoundDuration":233463,"Delta":18108378},{"NoteNumber":64,"Velocity":52,"Duration":233463,"SoundDuration":233463,"Delta":18108378},{"NoteNumber":70,"Velocity":67,"Duration":246913,"SoundDuration":246913,"Delta":18341841},{"NoteNumber":62,"Velocity":74,"Duration":1436126,"SoundDuration":1436126,"Delta":18588754},{"NoteNumber":65,"Velocity":46,"Duration":235293,"SoundDuration":235293,"Delta":18820414},{"NoteNumber":53,"Velocity":38,"Duration":235293,"SoundDuration":235293,"Delta":18820414},{"NoteNumber":58,"Velocity":38,"Duration":235293,"SoundDuration":235293,"Delta":18820414},{"NoteNumber":65,"Velocity":46,"Duration":245901,"SoundDuration":245901,"Delta":19055708},{"NoteNumber":53,"Velocity":38,"Duration":245901,"SoundDuration":245901,"Delta":19055708},{"NoteNumber":58,"Velocity":38,"Duration":245901,"SoundDuration":245901,"Delta":19055708},{"NoteNumber":69,"Velocity":70,"Duration":474308,"SoundDuration":474308,"Delta":19301610},{"NoteNumber":65,"Velocity":46,"Duration":237154,"SoundDuration":237154,"Delta":19301610},{"NoteNumber":58,"Velocity":38,"Duration":237154,"SoundDuration":237154,"Delta":19301610},{"NoteNumber":53,"Velocity":38,"Duration":237154,"SoundDuration":237154,"Delta":19301610},{"NoteNumber":53,"Velocity":38,"Duration":237154,"SoundDuration":237154,"Delta":19538764},{"NoteNumber":58,"Velocity":38,"Duration":237154,"SoundDuration":237154,"Delta":19538764},{"NoteNumber":65,"Velocity":46,"Duration":237154,"SoundDuration":237154,"Delta":19538764},{"NoteNumber":67,"Velocity":63,"Duration":248962,"SoundDuration":248962,"Delta":19775918},{"NoteNumber":56,"Velocity":58,"Duration":480000,"SoundDuration":480000,"Delta":20024880},{"NoteNumber":41,"Velocity":38,"Duration":240000,"SoundDuration":240000,"Delta":20264880},{"NoteNumber":51,"Velocity":38,"Duration":240000,"SoundDuration":240000,"Delta":20264880},{"NoteNumber":57,"Velocity":53,"Duration":254237,"SoundDuration":254237,"Delta":20504880},{"NoteNumber":51,"Velocity":38,"Duration":254237,"SoundDuration":254237,"Delta":20504880},{"NoteNumber":41,"Velocity":31,"Duration":254237,"SoundDuration":254237,"Delta":20504880},{"NoteNumber":62,"Velocity":58,"Duration":472440,"SoundDuration":472440,"Delta":20759118},{"NoteNumber":42,"Velocity":30,"Duration":236220,"SoundDuration":236220,"Delta":20995338},{"NoteNumber":50,"Velocity":37,"Duration":236220,"SoundDuration":236220,"Delta":20995338},{"NoteNumber":57,"Velocity":54,"Duration":245599,"SoundDuration":245599,"Delta":21231559},{"NoteNumber":42,"Velocity":30,"Duration":245599,"SoundDuration":245599,"Delta":21231559},{"NoteNumber":50,"Velocity":36,"Duration":245599,"SoundDuration":245599,"Delta":21231559},{"NoteNumber":57,"Velocity":50,"Duration":754074,"SoundDuration":754074,"Delta":21477158},{"NoteNumber":43,"Velocity":28,"Duration":254237,"SoundDuration":254237,"Delta":21722758},{"NoteNumber":50,"Velocity":33,"Duration":254237,"SoundDuration":254237,"Delta":21722758},{"NoteNumber":55,"Velocity":36,"Duration":254237,"SoundDuration":254237,"Delta":21722758},{"NoteNumber":43,"Velocity":25,"Duration":254237,"SoundDuration":254237,"Delta":21976995},{"NoteNumber":55,"Velocity":32,"Duration":254237,"SoundDuration":254237,"Delta":21976995},{"NoteNumber":50,"Velocity":29,"Duration":254237,"SoundDuration":254237,"Delta":21976995},{"NoteNumber":58,"Velocity":46,"Duration":508475,"SoundDuration":508475,"Delta":22231233},{"NoteNumber":55,"Velocity":32,"Duration":254237,"SoundDuration":254237,"Delta":22231233},{"NoteNumber":50,"Velocity":29,"Duration":254237,"SoundDuration":254237,"Delta":22231233},{"NoteNumber":43,"Velocity":25,"Duration":254237,"SoundDuration":254237,"Delta":22231233},{"NoteNumber":43,"Velocity":25,"Duration":254237,"SoundDuration":254237,"Delta":22485470},{"NoteNumber":55,"Velocity":32,"Duration":254237,"SoundDuration":254237,"Delta":22485470},{"NoteNumber":50,"Velocity":29,"Duration":254237,"SoundDuration":254237,"Delta":22485470},{"NoteNumber":57,"Velocity":52,"Duration":243902,"SoundDuration":243902,"Delta":22739708},{"NoteNumber":55,"Velocity":55,"Duration":709271,"SoundDuration":709271,"Delta":22983610},{"NoteNumber":53,"Velocity":28,"Duration":238094,"SoundDuration":238094,"Delta":23221705},{"NoteNumber":63,"Velocity":32,"Duration":238094,"SoundDuration":238094,"Delta":23221705},{"NoteNumber":65,"Velocity":32,"Duration":238094,"SoundDuration":238094,"Delta":23221705},{"NoteNumber":48,"Velocity":28,"Duration":238094,"SoundDuration":238094,"Delta":23221705},{"NoteNumber":48,"Velocity":27,"Duration":233081,"SoundDuration":233081,"Delta":23459800},{"NoteNumber":63,"Velocity":30,"Duration":233081,"SoundDuration":233081,"Delta":23459800},{"NoteNumber":65,"Velocity":30,"Duration":233081,"SoundDuration":233081,"Delta":23459800},{"NoteNumber":53,"Velocity":27,"Duration":233081,"SoundDuration":233081,"Delta":23459800},{"NoteNumber":57,"Velocity":56,"Duration":464974,"SoundDuration":464974,"Delta":23692882},{"NoteNumber":53,"Velocity":28,"Duration":229217,"SoundDuration":229217,"Delta":23692882},{"NoteNumber":48,"Velocity":28,"Duration":229217,"SoundDuration":229217,"Delta":23692882},{"NoteNumber":65,"Velocity":32,"Duration":229217,"SoundDuration":229217,"Delta":23692882},{"NoteNumber":63,"Velocity":32,"Duration":229217,"SoundDuration":229217,"Delta":23692882},{"NoteNumber":48,"Velocity":27,"Duration":235756,"SoundDuration":235756,"Delta":23922100},{"NoteNumber":63,"Velocity":30,"Duration":235756,"SoundDuration":235756,"Delta":23922100},{"NoteNumber":65,"Velocity":30,"Duration":235756,"SoundDuration":235756,"Delta":23922100},{"NoteNumber":53,"Velocity":27,"Duration":235756,"SoundDuration":235756,"Delta":23922100},{"NoteNumber":60,"Velocity":53,"Duration":243902,"SoundDuration":243902,"Delta":24157856},{"NoteNumber":55,"Velocity":59,"Duration":681817,"SoundDuration":681817,"Delta":24401759},{"NoteNumber":62,"Velocity":36,"Duration":227272,"SoundDuration":227272,"Delta":24629031},{"NoteNumber":58,"Velocity":36,"Duration":227272,"SoundDuration":227272,"Delta":24629031},{"NoteNumber":46,"Velocity":30,"Duration":227272,"SoundDuration":227272,"Delta":24629031},{"NoteNumber":58,"Velocity":36,"Duration":227272,"SoundDuration":227272,"Delta":24856304},{"NoteNumber":46,"Velocity":30,"Duration":227272,"SoundDuration":227272,"Delta":24856304},{"NoteNumber":62,"Velocity":36,"Duration":227272,"SoundDuration":227272,"Delta":24856304},{"NoteNumber":53,"Velocity":55,"Duration":454544,"SoundDuration":454544,"Delta":25083576},{"NoteNumber":46,"Velocity":30,"Duration":227272,"SoundDuration":227272,"Delta":25083576},{"NoteNumber":62,"Velocity":36,"Duration":227272,"SoundDuration":227272,"Delta":25083576},{"NoteNumber":58,"Velocity":36,"Duration":227272,"SoundDuration":227272,"Delta":25083576},{"NoteNumber":58,"Velocity":36,"Duration":227272,"SoundDuration":227272,"Delta":25310849},{"NoteNumber":46,"Velocity":30,"Duration":227272,"SoundDuration":227272,"Delta":25310849},{"NoteNumber":62,"Velocity":36,"Duration":227272,"SoundDuration":227272,"Delta":25310849},{"NoteNumber":55,"Velocity":57,"Duration":235756,"SoundDuration":235756,"Delta":25538121},{"NoteNumber":57,"Velocity":60,"Duration":688956,"SoundDuration":688956,"Delta":25773878},{"NoteNumber":55,"Velocity":33,"Duration":227272,"SoundDuration":227272,"Delta":26001150},{"NoteNumber":50,"Velocity":33,"Duration":227272,"SoundDuration":227272,"Delta":26001150},{"NoteNumber":67,"Velocity":39,"Duration":227272,"SoundDuration":227272,"Delta":26001150},{"NoteNumber":65,"Velocity":33,"Duration":227272,"SoundDuration":227272,"Delta":26001150},{"NoteNumber":55,"Velocity":33,"Duration":234411,"SoundDuration":234411,"Delta":26228423},{"NoteNumber":65,"Velocity":33,"Duration":234411,"SoundDuration":234411,"Delta":26228423},{"NoteNumber":67,"Velocity":39,"Duration":234411,"SoundDuration":234411,"Delta":26228423},{"NoteNumber":50,"Velocity":33,"Duration":234411,"SoundDuration":234411,"Delta":26228423},{"NoteNumber":59,"Velocity":66,"Duration":452829,"SoundDuration":452829,"Delta":26462834},{"NoteNumber":55,"Velocity":36,"Duration":226414,"SoundDuration":226414,"Delta":26462834},{"NoteNumber":65,"Velocity":36,"Duration":226414,"SoundDuration":226414,"Delta":26462834},{"NoteNumber":67,"Velocity":44,"Duration":226414,"SoundDuration":226414,"Delta":26462834},{"NoteNumber":50,"Velocity":36,"Duration":226414,"SoundDuration":226414,"Delta":26462834},{"NoteNumber":55,"Velocity":37,"Duration":226414,"SoundDuration":226414,"Delta":26689249},{"NoteNumber":65,"Velocity":37,"Duration":226414,"SoundDuration":226414,"Delta":26689249},{"NoteNumber":67,"Velocity":44,"Duration":226414,"SoundDuration":226414,"Delta":26689249},{"NoteNumber":50,"Velocity":37,"Duration":226414,"SoundDuration":226414,"Delta":26689249},{"NoteNumber":62,"Velocity":62,"Duration":237135,"SoundDuration":237135,"Delta":26915664},{"NoteNumber":56,"Velocity":72,"Duration":691403,"SoundDuration":691403,"Delta":27152800},{"NoteNumber":48,"Velocity":41,"Duration":230468,"SoundDuration":230468,"Delta":27383268},{"NoteNumber":63,"Velocity":51,"Duration":230468,"SoundDuration":230468,"Delta":27383268},{"NoteNumber":60,"Velocity":41,"Duration":230468,"SoundDuration":230468,"Delta":27383268},{"NoteNumber":48,"Velocity":41,"Duration":230467,"SoundDuration":230467,"Delta":27613736},{"NoteNumber":63,"Velocity":52,"Duration":230467,"SoundDuration":230467,"Delta":27613736},{"NoteNumber":60,"Velocity":41,"Duration":230467,"SoundDuration":230467,"Delta":27613736},{"NoteNumber":55,"Velocity":70,"Duration":460936,"SoundDuration":460936,"Delta":27844204},{"NoteNumber":60,"Velocity":41,"Duration":230468,"SoundDuration":230468,"Delta":27844204},{"NoteNumber":48,"Velocity":41,"Duration":230468,"SoundDuration":230468,"Delta":27844204},{"NoteNumber":63,"Velocity":52,"Duration":230468,"SoundDuration":230468,"Delta":27844204},{"NoteNumber":60,"Velocity":42,"Duration":220865,"SoundDuration":220865,"Delta":28074672},{"NoteNumber":63,"Velocity":53,"Duration":220865,"SoundDuration":220865,"Delta":28074672},{"NoteNumber":48,"Velocity":42,"Duration":220865,"SoundDuration":220865,"Delta":28074672},{"NoteNumber":60,"Velocity":72,"Duration":256410,"SoundDuration":256410,"Delta":28305140},{"NoteNumber":61,"Velocity":77,"Duration":1444333,"SoundDuration":1444333,"Delta":28561550},{"NoteNumber":58,"Velocity":55,"Duration":237154,"SoundDuration":237154,"Delta":28798704},{"NoteNumber":64,"Velocity":55,"Duration":237154,"SoundDuration":237154,"Delta":28798704},{"NoteNumber":55,"Velocity":44,"Duration":237154,"SoundDuration":237154,"Delta":28798704},{"NoteNumber":58,"Velocity":49,"Duration":245901,"SoundDuration":245901,"Delta":29035858},{"NoteNumber":55,"Velocity":41,"Duration":245901,"SoundDuration":245901,"Delta":29035858},{"NoteNumber":64,"Velocity":49,"Duration":245901,"SoundDuration":245901,"Delta":29035858},{"NoteNumber":72,"Velocity":72,"Duration":476189,"SoundDuration":476189,"Delta":29281760},{"NoteNumber":55,"Velocity":45,"Duration":238095,"SoundDuration":238095,"Delta":29281760},{"NoteNumber":64,"Velocity":55,"Duration":238095,"SoundDuration":238095,"Delta":29281760},{"NoteNumber":58,"Velocity":55,"Duration":238095,"SoundDuration":238095,"Delta":29281760},{"NoteNumber":58,"Velocity":55,"Duration":238094,"SoundDuration":238094,"Delta":29519855},{"NoteNumber":55,"Velocity":45,"Duration":238094,"SoundDuration":238094,"Delta":29519855},{"NoteNumber":64,"Velocity":55,"Duration":238094,"SoundDuration":238094,"Delta":29519855},{"NoteNumber":70,"Velocity":67,"Duration":247934,"SoundDuration":247934,"Delta":29757950},{"NoteNumber":62,"Velocity":74,"Duration":1443747,"SoundDuration":1443747,"Delta":30005884},{"NoteNumber":65,"Velocity":48,"Duration":236220,"SoundDuration":236220,"Delta":30242104},{"NoteNumber":53,"Velocity":40,"Duration":236220,"SoundDuration":236220,"Delta":30242104},{"NoteNumber":58,"Velocity":40,"Duration":236220,"SoundDuration":236220,"Delta":30242104},{"NoteNumber":53,"Velocity":40,"Duration":244897,"SoundDuration":244897,"Delta":30478325},{"NoteNumber":58,"Velocity":40,"Duration":244897,"SoundDuration":244897,"Delta":30478325},{"NoteNumber":65,"Velocity":48,"Duration":244897,"SoundDuration":244897,"Delta":30478325},{"NoteNumber":69,"Velocity":70,"Duration":474307,"SoundDuration":474307,"Delta":30723223},{"NoteNumber":65,"Velocity":48,"Duration":237154,"SoundDuration":237154,"Delta":30723223},{"NoteNumber":53,"Velocity":40,"Duration":237154,"SoundDuration":237154,"Delta":30723223},{"NoteNumber":58,"Velocity":40,"Duration":237154,"SoundDuration":237154,"Delta":30723223},{"NoteNumber":53,"Velocity":40,"Duration":237153,"SoundDuration":237153,"Delta":30960377},{"NoteNumber":58,"Velocity":40,"Duration":237153,"SoundDuration":237153,"Delta":30960377},{"NoteNumber":65,"Velocity":48,"Duration":237153,"SoundDuration":237153,"Delta":30960377},{"NoteNumber":67,"Velocity":58,"Duration":252101,"SoundDuration":252101,"Delta":31197531},{"NoteNumber":56,"Velocity":54,"Duration":479999,"SoundDuration":479999,"Delta":31449632},{"NoteNumber":48,"Velocity":36,"Duration":239999,"SoundDuration":239999,"Delta":31689632},{"NoteNumber":51,"Velocity":36,"Duration":239999,"SoundDuration":239999,"Delta":31689632},{"NoteNumber":57,"Velocity":50,"Duration":254237,"SoundDuration":254237,"Delta":31929632},{"NoteNumber":48,"Velocity":30,"Duration":254237,"SoundDuration":254237,"Delta":31929632},{"NoteNumber":51,"Velocity":36,"Duration":254237,"SoundDuration":254237,"Delta":31929632},{"NoteNumber":62,"Velocity":56,"Duration":485830,"SoundDuration":485830,"Delta":32183869},{"NoteNumber":51,"Velocity":36,"Duration":242914,"SoundDuration":242914,"Delta":32426784},{"NoteNumber":41,"Velocity":30,"Duration":242914,"SoundDuration":242914,"Delta":32426784},{"NoteNumber":57,"Velocity":36,"Duration":240890,"SoundDuration":240890,"Delta":32426784},{"NoteNumber":53,"Velocity":36,"Duration":242914,"SoundDuration":242914,"Delta":32426784},{"NoteNumber":57,"Velocity":53,"Duration":247934,"SoundDuration":247934,"Delta":32669699},{"NoteNumber":51,"Velocity":36,"Duration":247934,"SoundDuration":247934,"Delta":32669699},{"NoteNumber":41,"Velocity":30,"Duration":247934,"SoundDuration":247934,"Delta":32669699},{"NoteNumber":53,"Velocity":36,"Duration":247934,"SoundDuration":247934,"Delta":32669699},{"NoteNumber":60,"Velocity":50,"Duration":768215,"SoundDuration":768215,"Delta":32917633},{"NoteNumber":57,"Velocity":36,"Duration":254237,"SoundDuration":254237,"Delta":33171871},{"NoteNumber":54,"Velocity":36,"Duration":254237,"SoundDuration":254237,"Delta":33171871},{"NoteNumber":46,"Velocity":28,"Duration":254237,"SoundDuration":254237,"Delta":33171871},{"NoteNumber":51,"Velocity":36,"Duration":254237,"SoundDuration":254237,"Delta":33171871},{"NoteNumber":54,"Velocity":32,"Duration":259740,"SoundDuration":259740,"Delta":33426108},{"NoteNumber":51,"Velocity":32,"Duration":259740,"SoundDuration":259740,"Delta":33426108},{"NoteNumber":57,"Velocity":32,"Duration":259740,"SoundDuration":259740,"Delta":33426108},{"NoteNumber":46,"Velocity":24,"Duration":259740,"SoundDuration":259740,"Delta":33426108},{"NoteNumber":58,"Velocity":46,"Duration":530973,"SoundDuration":530973,"Delta":33685849},{"NoteNumber":53,"Velocity":29,"Duration":530973,"SoundDuration":530973,"Delta":33685849},{"NoteNumber":46,"Velocity":24,"Duration":530973,"SoundDuration":530973,"Delta":33685849},{"NoteNumber":51,"Velocity":32,"Duration":265486,"SoundDuration":265486,"Delta":33685849},{"NoteNumber":49,"Velocity":32,"Duration":265486,"SoundDuration":265486,"Delta":33951335},{"NoteNumber":50,"Velocity":32,"Duration":276573,"SoundDuration":276573,"Delta":34216822},{"NoteNumber":62,"Velocity":55,"Duration":719370,"SoundDuration":719370,"Delta":34493396},{"NoteNumber":55,"Velocity":31,"Duration":236723,"SoundDuration":236723,"Delta":34735253},{"NoteNumber":65,"Velocity":36,"Duration":236723,"SoundDuration":236723,"Delta":34735253},{"NoteNumber":58,"Velocity":31,"Duration":236723,"SoundDuration":236723,"Delta":34735253},{"NoteNumber":65,"Velocity":36,"Duration":230757,"SoundDuration":230757,"Delta":34971977},{"NoteNumber":55,"Velocity":31,"Duration":230757,"SoundDuration":230757,"Delta":34971977},{"NoteNumber":58,"Velocity":31,"Duration":230757,"SoundDuration":230757,"Delta":34971977},{"NoteNumber":65,"Velocity":64,"Duration":463823,"SoundDuration":463823,"Delta":35223392},{"NoteNumber":57,"Velocity":36,"Duration":231821,"SoundDuration":231821,"Delta":35444588},{"NoteNumber":61,"Velocity":36,"Duration":231821,"SoundDuration":231821,"Delta":35444588},{"NoteNumber":45,"Velocity":34,"Duration":231821,"SoundDuration":231821,"Delta":35444588},{"NoteNumber":55,"Velocity":34,"Duration":231821,"SoundDuration":231821,"Delta":35444588},{"NoteNumber":57,"Velocity":34,"Duration":234937,"SoundDuration":234937,"Delta":35676410},{"NoteNumber":61,"Velocity":34,"Duration":234937,"SoundDuration":234937,"Delta":35676410},{"NoteNumber":64,"Velocity":58,"Duration":234937,"SoundDuration":234937,"Delta":35676410},{"NoteNumber":55,"Velocity":34,"Duration":234937,"SoundDuration":234937,"Delta":35676410},{"NoteNumber":45,"Velocity":34,"Duration":234937,"SoundDuration":234937,"Delta":35676410},{"NoteNumber":61,"Velocity":51,"Duration":115263,"SoundDuration":115263,"Delta":35911347},{"NoteNumber":62,"Velocity":53,"Duration":114641,"SoundDuration":114641,"Delta":36026611},{"NoteNumber":64,"Velocity":55,"Duration":114007,"SoundDuration":114007,"Delta":36141252},{"NoteNumber":62,"Velocity":36,"Duration":114007,"SoundDuration":114007,"Delta":36141252},{"NoteNumber":53,"Velocity":30,"Duration":114007,"SoundDuration":114007,"Delta":36141252},{"NoteNumber":57,"Velocity":36,"Duration":114007,"SoundDuration":114007,"Delta":36141252},{"NoteNumber":65,"Velocity":58,"Duration":113396,"SoundDuration":113396,"Delta":36255260},{"NoteNumber":68,"Velocity":60,"Duration":112788,"SoundDuration":112788,"Delta":36368656},{"NoteNumber":50,"Velocity":30,"Duration":112788,"SoundDuration":112788,"Delta":36368656},{"NoteNumber":69,"Velocity":63,"Duration":112183,"SoundDuration":112183,"Delta":36481444},{"NoteNumber":73,"Velocity":66,"Duration":111585,"SoundDuration":111585,"Delta":36593627},{"NoteNumber":62,"Velocity":44,"Duration":111585,"SoundDuration":111585,"Delta":36593627},{"NoteNumber":57,"Velocity":44,"Duration":111585,"SoundDuration":111585,"Delta":36593627},{"NoteNumber":65,"Velocity":44,"Duration":111585,"SoundDuration":111585,"Delta":36593627},{"NoteNumber":74,"Velocity":68,"Duration":110990,"SoundDuration":110990,"Delta":36705212},{"NoteNumber":77,"Velocity":74,"Duration":110407,"SoundDuration":110407,"Delta":36816203},{"NoteNumber":50,"Velocity":40,"Duration":110407,"SoundDuration":110407,"Delta":36816203},{"NoteNumber":65,"Velocity":42,"Duration":127550,"SoundDuration":127550,"Delta":37037019},{"NoteNumber":62,"Velocity":42,"Duration":127550,"SoundDuration":127550,"Delta":37037019},{"NoteNumber":69,"Velocity":50,"Duration":127550,"SoundDuration":127550,"Delta":37037019},{"NoteNumber":62,"Velocity":56,"Duration":699552,"SoundDuration":699552,"Delta":37292121},{"NoteNumber":58,"Velocity":31,"Duration":231821,"SoundDuration":231821,"Delta":37521093},{"NoteNumber":55,"Velocity":31,"Duration":231821,"SoundDuration":231821,"Delta":37521093},{"NoteNumber":65,"Velocity":36,"Duration":231821,"SoundDuration":231821,"Delta":37521093},{"NoteNumber":58,"Velocity":31,"Duration":228810,"SoundDuration":228810,"Delta":37752915},{"NoteNumber":65,"Velocity":36,"Duration":228810,"SoundDuration":228810,"Delta":37752915},{"NoteNumber":55,"Velocity":31,"Duration":228810,"SoundDuration":228810,"Delta":37752915},{"NoteNumber":65,"Velocity":64,"Duration":463642,"SoundDuration":463642,"Delta":37991673},{"NoteNumber":57,"Velocity":36,"Duration":231821,"SoundDuration":231821,"Delta":38223495},{"NoteNumber":61,"Velocity":36,"Duration":231821,"SoundDuration":231821,"Delta":38223495},{"NoteNumber":55,"Velocity":34,"Duration":231821,"SoundDuration":231821,"Delta":38223495},{"NoteNumber":45,"Velocity":34,"Duration":231821,"SoundDuration":231821,"Delta":38223495},{"NoteNumber":57,"Velocity":34,"Duration":234937,"SoundDuration":234937,"Delta":38455316},{"NoteNumber":61,"Velocity":34,"Duration":234937,"SoundDuration":234937,"Delta":38455316},{"NoteNumber":64,"Velocity":58,"Duration":234937,"SoundDuration":234937,"Delta":38455316},{"NoteNumber":45,"Velocity":34,"Duration":234937,"SoundDuration":234937,"Delta":38455316},{"NoteNumber":55,"Velocity":34,"Duration":234937,"SoundDuration":234937,"Delta":38455316},{"NoteNumber":61,"Velocity":51,"Duration":115263,"SoundDuration":115263,"Delta":38690254},{"NoteNumber":62,"Velocity":53,"Duration":114641,"SoundDuration":114641,"Delta":38805517},{"NoteNumber":64,"Velocity":55,"Duration":114007,"SoundDuration":114007,"Delta":38920159},{"NoteNumber":53,"Velocity":30,"Duration":114007,"SoundDuration":114007,"Delta":38920159},{"NoteNumber":57,"Velocity":36,"Duration":114007,"SoundDuration":114007,"Delta":38920159},{"NoteNumber":62,"Velocity":36,"Duration":114007,"SoundDuration":114007,"Delta":38920159},{"NoteNumber":65,"Velocity":58,"Duration":113396,"SoundDuration":113396,"Delta":39034166},{"NoteNumber":68,"Velocity":60,"Duration":112788,"SoundDuration":112788,"Delta":39147563},{"NoteNumber":50,"Velocity":30,"Duration":112788,"SoundDuration":112788,"Delta":39147563},{"NoteNumber":69,"Velocity":63,"Duration":112183,"SoundDuration":112183,"Delta":39260351},{"NoteNumber":73,"Velocity":66,"Duration":111509,"SoundDuration":111509,"Delta":39372534},{"NoteNumber":57,"Velocity":44,"Duration":111509,"SoundDuration":111509,"Delta":39372534},{"NoteNumber":65,"Velocity":44,"Duration":111509,"SoundDuration":111509,"Delta":39372534},{"NoteNumber":62,"Velocity":44,"Duration":111509,"SoundDuration":111509,"Delta":39372534},{"NoteNumber":74,"Velocity":68,"Duration":113103,"SoundDuration":113103,"Delta":39484044},{"NoteNumber":81,"Velocity":73,"Duration":110407,"SoundDuration":110407,"Delta":39597147},{"NoteNumber":50,"Velocity":38,"Duration":110407,"SoundDuration":110407,"Delta":39597147},{"NoteNumber":62,"Velocity":43,"Duration":124709,"SoundDuration":124709,"Delta":39817963},{"NoteNumber":69,"Velocity":51,"Duration":124709,"SoundDuration":124709,"Delta":39817963},{"NoteNumber":65,"Velocity":43,"Duration":124709,"SoundDuration":124709,"Delta":39817963},{"NoteNumber":62,"Velocity":57,"Duration":692664,"SoundDuration":692664,"Delta":40067381},{"NoteNumber":55,"Velocity":31,"Duration":230840,"SoundDuration":230840,"Delta":40294481},{"NoteNumber":65,"Velocity":36,"Duration":230840,"SoundDuration":230840,"Delta":40294481},{"NoteNumber":58,"Velocity":31,"Duration":230840,"SoundDuration":230840,"Delta":40294481},{"NoteNumber":58,"Velocity":31,"Duration":224943,"SoundDuration":224943,"Delta":40525322},{"NoteNumber":55,"Velocity":31,"Duration":224943,"SoundDuration":224943,"Delta":40525322},{"NoteNumber":65,"Velocity":36,"Duration":224943,"SoundDuration":224943,"Delta":40525322},{"NoteNumber":65,"Velocity":64,"Duration":459805,"SoundDuration":459805,"Delta":40760045},{"NoteNumber":61,"Velocity":36,"Duration":229902,"SoundDuration":229902,"Delta":40989948},{"NoteNumber":57,"Velocity":36,"Duration":229902,"SoundDuration":229902,"Delta":40989948},{"NoteNumber":55,"Velocity":34,"Duration":229902,"SoundDuration":229902,"Delta":40989948},{"NoteNumber":45,"Velocity":34,"Duration":229902,"SoundDuration":229902,"Delta":40989948},{"NoteNumber":64,"Velocity":58,"Duration":234937,"SoundDuration":234937,"Delta":41219850},{"NoteNumber":57,"Velocity":34,"Duration":234937,"SoundDuration":234937,"Delta":41219850},{"NoteNumber":61,"Velocity":34,"Duration":234937,"SoundDuration":234937,"Delta":41219850},{"NoteNumber":55,"Velocity":34,"Duration":234937,"SoundDuration":234937,"Delta":41219850},{"NoteNumber":45,"Velocity":34,"Duration":234937,"SoundDuration":234937,"Delta":41219850},{"NoteNumber":61,"Velocity":51,"Duration":115263,"SoundDuration":115263,"Delta":41454788},{"NoteNumber":62,"Velocity":53,"Duration":114641,"SoundDuration":114641,"Delta":41570051},{"NoteNumber":64,"Velocity":55,"Duration":113269,"SoundDuration":113269,"Delta":41684693},{"NoteNumber":62,"Velocity":36,"Duration":113269,"SoundDuration":113269,"Delta":41684693},{"NoteNumber":53,"Velocity":30,"Duration":113269,"SoundDuration":113269,"Delta":41684693},{"NoteNumber":57,"Velocity":36,"Duration":113269,"SoundDuration":113269,"Delta":41684693},{"NoteNumber":65,"Velocity":58,"Duration":112430,"SoundDuration":112430,"Delta":41797963},{"NoteNumber":68,"Velocity":60,"Duration":111732,"SoundDuration":111732,"Delta":41910393},{"NoteNumber":50,"Velocity":30,"Duration":111732,"SoundDuration":111732,"Delta":41910393},{"NoteNumber":69,"Velocity":63,"Duration":110905,"SoundDuration":110905,"Delta":42022125},{"NoteNumber":73,"Velocity":66,"Duration":110294,"SoundDuration":110294,"Delta":42133031},{"NoteNumber":62,"Velocity":44,"Duration":110294,"SoundDuration":110294,"Delta":42133031},{"NoteNumber":65,"Velocity":44,"Duration":110294,"SoundDuration":110294,"Delta":42133031},{"NoteNumber":57,"Velocity":44,"Duration":110294,"SoundDuration":110294,"Delta":42133031},{"NoteNumber":74,"Velocity":68,"Duration":110293,"SoundDuration":110293,"Delta":42243325},{"NoteNumber":77,"Velocity":74,"Duration":110024,"SoundDuration":110024,"Delta":42353619},{"NoteNumber":50,"Velocity":40,"Duration":110024,"SoundDuration":110024,"Delta":42353619},{"NoteNumber":62,"Velocity":42,"Duration":125261,"SoundDuration":125261,"Delta":42573534},{"NoteNumber":69,"Velocity":50,"Duration":125261,"SoundDuration":125261,"Delta":42573534},{"NoteNumber":65,"Velocity":42,"Duration":125261,"SoundDuration":125261,"Delta":42573534},{"NoteNumber":62,"Velocity":58,"Duration":706266,"SoundDuration":706266,"Delta":42824056},{"NoteNumber":55,"Velocity":31,"Duration":233754,"SoundDuration":233754,"Delta":43057810},{"NoteNumber":65,"Velocity":36,"Duration":233754,"SoundDuration":233754,"Delta":43057810},{"NoteNumber":58,"Velocity":31,"Duration":233754,"SoundDuration":233754,"Delta":43057810},{"NoteNumber":65,"Velocity":36,"Duration":228810,"SoundDuration":228810,"Delta":43291564},{"NoteNumber":55,"Velocity":31,"Duration":228810,"SoundDuration":228810,"Delta":43291564},{"NoteNumber":58,"Velocity":31,"Duration":228810,"SoundDuration":228810,"Delta":43291564},{"NoteNumber":65,"Velocity":63,"Duration":463642,"SoundDuration":463642,"Delta":43530323},{"NoteNumber":61,"Velocity":36,"Duration":231821,"SoundDuration":231821,"Delta":43762144},{"NoteNumber":57,"Velocity":36,"Duration":231821,"SoundDuration":231821,"Delta":43762144},{"NoteNumber":45,"Velocity":34,"Duration":231821,"SoundDuration":231821,"Delta":43762144},{"NoteNumber":55,"Velocity":34,"Duration":231821,"SoundDuration":231821,"Delta":43762144},{"NoteNumber":64,"Velocity":58,"Duration":234937,"SoundDuration":234937,"Delta":43993966},{"NoteNumber":57,"Velocity":34,"Duration":234937,"SoundDuration":234937,"Delta":43993966},{"NoteNumber":61,"Velocity":34,"Duration":234937,"SoundDuration":234937,"Delta":43993966},{"NoteNumber":55,"Velocity":34,"Duration":234937,"SoundDuration":234937,"Delta":43993966},{"NoteNumber":45,"Velocity":34,"Duration":234937,"SoundDuration":234937,"Delta":43993966},{"NoteNumber":61,"Velocity":51,"Duration":115263,"SoundDuration":115263,"Delta":44228903},{"NoteNumber":62,"Velocity":53,"Duration":114641,"SoundDuration":114641,"Delta":44344167},{"NoteNumber":64,"Velocity":55,"Duration":114007,"SoundDuration":114007,"Delta":44458808},{"NoteNumber":62,"Velocity":36,"Duration":114007,"SoundDuration":114007,"Delta":44458808},{"NoteNumber":53,"Velocity":30,"Duration":114007,"SoundDuration":114007,"Delta":44458808},{"NoteNumber":57,"Velocity":36,"Duration":114007,"SoundDuration":114007,"Delta":44458808},{"NoteNumber":65,"Velocity":58,"Duration":113396,"SoundDuration":113396,"Delta":44572816},{"NoteNumber":68,"Velocity":60,"Duration":112788,"SoundDuration":112788,"Delta":44686212},{"NoteNumber":50,"Velocity":30,"Duration":112788,"SoundDuration":112788,"Delta":44686212},{"NoteNumber":69,"Velocity":63,"Duration":112183,"SoundDuration":112183,"Delta":44799000},{"NoteNumber":73,"Velocity":66,"Duration":111509,"SoundDuration":111509,"Delta":44911183},{"NoteNumber":62,"Velocity":44,"Duration":111509,"SoundDuration":111509,"Delta":44911183},{"NoteNumber":57,"Velocity":44,"Duration":111509,"SoundDuration":111509,"Delta":44911183},{"NoteNumber":65,"Velocity":44,"Duration":111509,"SoundDuration":111509,"Delta":44911183},{"NoteNumber":74,"Velocity":68,"Duration":113103,"SoundDuration":113103,"Delta":45022693},{"NoteNumber":81,"Velocity":74,"Duration":110407,"SoundDuration":110407,"Delta":45135797},{"NoteNumber":50,"Velocity":38,"Duration":110407,"SoundDuration":110407,"Delta":45135797},{"NoteNumber":65,"Velocity":43,"Duration":122509,"SoundDuration":122509,"Delta":45356612},{"NoteNumber":62,"Velocity":43,"Duration":122509,"SoundDuration":122509,"Delta":45356612},{"NoteNumber":69,"Velocity":51,"Duration":122509,"SoundDuration":122509,"Delta":45356612},{"NoteNumber":86,"Velocity":85,"Duration":713780,"SoundDuration":713780,"Delta":45601630},{"NoteNumber":62,"Velocity":34,"Duration":119522,"SoundDuration":119522,"Delta":45833452},{"NoteNumber":60,"Velocity":34,"Duration":119522,"SoundDuration":119522,"Delta":45833452},{"NoteNumber":70,"Velocity":46,"Duration":119522,"SoundDuration":119522,"Delta":45833452},{"NoteNumber":66,"Velocity":46,"Duration":119522,"SoundDuration":119522,"Delta":45833452},{"NoteNumber":60,"Velocity":28,"Duration":121457,"SoundDuration":121457,"Delta":46072496},{"NoteNumber":66,"Velocity":39,"Duration":121457,"SoundDuration":121457,"Delta":46072496},{"NoteNumber":69,"Velocity":39,"Duration":121457,"SoundDuration":121457,"Delta":46072496},{"NoteNumber":62,"Velocity":28,"Duration":121457,"SoundDuration":121457,"Delta":46072496},{"NoteNumber":74,"Velocity":72,"Duration":707278,"SoundDuration":707278,"Delta":46315411},{"NoteNumber":62,"Velocity":40,"Duration":116877,"SoundDuration":116877,"Delta":46549165},{"NoteNumber":58,"Velocity":40,"Duration":116877,"SoundDuration":116877,"Delta":46549165},{"NoteNumber":69,"Velocity":44,"Duration":116877,"SoundDuration":116877,"Delta":46549165},{"NoteNumber":58,"Velocity":34,"Duration":119884,"SoundDuration":119884,"Delta":46782919},{"NoteNumber":67,"Velocity":39,"Duration":119884,"SoundDuration":119884,"Delta":46782919},{"NoteNumber":62,"Velocity":34,"Duration":119884,"SoundDuration":119884,"Delta":46782919},{"NoteNumber":60,"Velocity":57,"Duration":349161,"SoundDuration":349161,"Delta":47022689},{"NoteNumber":55,"Velocity":40,"Duration":116387,"SoundDuration":116387,"Delta":47255463},{"NoteNumber":58,"Velocity":44,"Duration":116387,"SoundDuration":116387,"Delta":47255463},{"NoteNumber":62,"Velocity":54,"Duration":114796,"SoundDuration":114796,"Delta":47371850},{"NoteNumber":63,"Velocity":57,"Duration":113637,"SoundDuration":113637,"Delta":47486647},{"NoteNumber":58,"Velocity":41,"Duration":113637,"SoundDuration":113637,"Delta":47486647},{"NoteNumber":55,"Velocity":36,"Duration":113637,"SoundDuration":113637,"Delta":47486647},{"NoteNumber":64,"Velocity":59,"Duration":112360,"SoundDuration":112360,"Delta":47600284},{"NoteNumber":67,"Velocity":62,"Duration":444512,"SoundDuration":444512,"Delta":47712645},{"NoteNumber":57,"Velocity":46,"Duration":111110,"SoundDuration":111110,"Delta":47934935},{"NoteNumber":60,"Velocity":46,"Duration":111110,"SoundDuration":111110,"Delta":47934935},{"NoteNumber":41,"Velocity":36,"Duration":111110,"SoundDuration":111110,"Delta":47934935},{"NoteNumber":48,"Velocity":41,"Duration":111110,"SoundDuration":111110,"Delta":47934935},{"NoteNumber":60,"Velocity":42,"Duration":125261,"SoundDuration":125261,"Delta":48157157},{"NoteNumber":57,"Velocity":42,"Duration":125261,"SoundDuration":125261,"Delta":48157157},{"NoteNumber":65,"Velocity":59,"Duration":250521,"SoundDuration":250521,"Delta":48157157},{"NoteNumber":41,"Velocity":33,"Duration":125261,"SoundDuration":125261,"Delta":48157157},{"NoteNumber":48,"Velocity":37,"Duration":125261,"SoundDuration":125261,"Delta":48157157},{"NoteNumber":82,"Velocity":74,"Duration":715779,"SoundDuration":715779,"Delta":48407679},{"NoteNumber":62,"Velocity":46,"Duration":118577,"SoundDuration":118577,"Delta":48642403},{"NoteNumber":56,"Velocity":41,"Duration":118577,"SoundDuration":118577,"Delta":48642403},{"NoteNumber":67,"Velocity":46,"Duration":118577,"SoundDuration":118577,"Delta":48642403},{"NoteNumber":62,"Velocity":39,"Duration":121951,"SoundDuration":121951,"Delta":48879557},{"NoteNumber":65,"Velocity":39,"Duration":121951,"SoundDuration":121951,"Delta":48879557},{"NoteNumber":56,"Velocity":34,"Duration":121951,"SoundDuration":121951,"Delta":48879557},{"NoteNumber":70,"Velocity":67,"Duration":707278,"SoundDuration":707278,"Delta":49123459},{"NoteNumber":62,"Velocity":40,"Duration":116877,"SoundDuration":116877,"Delta":49357213},{"NoteNumber":55,"Velocity":40,"Duration":116877,"SoundDuration":116877,"Delta":49357213},{"NoteNumber":65,"Velocity":44,"Duration":116877,"SoundDuration":116877,"Delta":49357213},{"NoteNumber":62,"Velocity":34,"Duration":119884,"SoundDuration":119884,"Delta":49590967},{"NoteNumber":64,"Velocity":39,"Duration":119884,"SoundDuration":119884,"Delta":49590967},{"NoteNumber":55,"Velocity":34,"Duration":119884,"SoundDuration":119884,"Delta":49590967},{"NoteNumber":57,"Velocity":57,"Duration":349161,"SoundDuration":349161,"Delta":49830737},{"NoteNumber":52,"Velocity":40,"Duration":116387,"SoundDuration":116387,"Delta":50063512},{"NoteNumber":55,"Velocity":44,"Duration":116387,"SoundDuration":116387,"Delta":50063512},{"NoteNumber":58,"Velocity":49,"Duration":114796,"SoundDuration":114796,"Delta":50179899},{"NoteNumber":59,"Velocity":52,"Duration":114167,"SoundDuration":114167,"Delta":50294695},{"NoteNumber":55,"Velocity":41,"Duration":114167,"SoundDuration":114167,"Delta":50294695},{"NoteNumber":52,"Velocity":36,"Duration":114167,"SoundDuration":114167,"Delta":50294695},{"NoteNumber":61,"Velocity":55,"Duration":113396,"SoundDuration":113396,"Delta":50408863},{"NoteNumber":64,"Velocity":58,"Duration":450552,"SoundDuration":450552,"Delta":50522259},{"NoteNumber":53,"Velocity":46,"Duration":112637,"SoundDuration":112637,"Delta":50747535},{"NoteNumber":46,"Velocity":36,"Duration":112637,"SoundDuration":112637,"Delta":50747535},{"NoteNumber":50,"Velocity":41,"Duration":112637,"SoundDuration":112637,"Delta":50747535},{"NoteNumber":62,"Velocity":56,"Duration":250521,"SoundDuration":250521,"Delta":50972811},{"NoteNumber":53,"Velocity":42,"Duration":125261,"SoundDuration":125261,"Delta":50972811},{"NoteNumber":50,"Velocity":37,"Duration":125261,"SoundDuration":125261,"Delta":50972811},{"NoteNumber":46,"Velocity":33,"Duration":125261,"SoundDuration":125261,"Delta":50972811},{"NoteNumber":64,"Velocity":66,"Duration":476258,"SoundDuration":476258,"Delta":51223333},{"NoteNumber":67,"Velocity":41,"Duration":240963,"SoundDuration":240963,"Delta":51458627},{"NoteNumber":58,"Velocity":36,"Duration":240963,"SoundDuration":240963,"Delta":51458627},{"NoteNumber":62,"Velocity":41,"Duration":240963,"SoundDuration":240963,"Delta":51458627},{"NoteNumber":67,"Velocity":35,"Duration":246913,"SoundDuration":246913,"Delta":51699591},{"NoteNumber":58,"Velocity":30,"Duration":246913,"SoundDuration":246913,"Delta":51699591},{"NoteNumber":62,"Velocity":35,"Duration":246913,"SoundDuration":246913,"Delta":51699591},{"NoteNumber":52,"Velocity":40,"Duration":246913,"SoundDuration":246913,"Delta":51699591},{"NoteNumber":81,"Velocity":70,"Duration":474308,"SoundDuration":474308,"Delta":51946504},{"NoteNumber":57,"Velocity":40,"Duration":237154,"SoundDuration":237154,"Delta":52183658},{"NoteNumber":67,"Velocity":44,"Duration":237154,"SoundDuration":237154,"Delta":52183658},{"NoteNumber":61,"Velocity":40,"Duration":237154,"SoundDuration":237154,"Delta":52183658},{"NoteNumber":69,"Velocity":59,"Duration":242915,"SoundDuration":242915,"Delta":52420812},{"NoteNumber":61,"Velocity":34,"Duration":242915,"SoundDuration":242915,"Delta":52420812},{"NoteNumber":57,"Velocity":34,"Duration":242915,"SoundDuration":242915,"Delta":52420812},{"NoteNumber":67,"Velocity":39,"Duration":242915,"SoundDuration":242915,"Delta":52420812},{"NoteNumber":64,"Velocity":66,"Duration":476220,"SoundDuration":476220,"Delta":52663727},{"NoteNumber":62,"Velocity":41,"Duration":240000,"SoundDuration":240000,"Delta":52899948},{"NoteNumber":58,"Velocity":36,"Duration":240000,"SoundDuration":240000,"Delta":52899948},{"NoteNumber":67,"Velocity":41,"Duration":240000,"SoundDuration":240000,"Delta":52899948},{"NoteNumber":62,"Velocity":35,"Duration":244897,"SoundDuration":244897,"Delta":53139948},{"NoteNumber":58,"Velocity":30,"Duration":244897,"SoundDuration":244897,"Delta":53139948},{"NoteNumber":67,"Velocity":35,"Duration":244897,"SoundDuration":244897,"Delta":53139948},{"NoteNumber":52,"Velocity":40,"Duration":244897,"SoundDuration":244897,"Delta":53139948},{"NoteNumber":81,"Velocity":69,"Duration":474308,"SoundDuration":474308,"Delta":53384846},{"NoteNumber":61,"Velocity":40,"Duration":237154,"SoundDuration":237154,"Delta":53622000},{"NoteNumber":57,"Velocity":40,"Duration":237154,"SoundDuration":237154,"Delta":53622000},{"NoteNumber":67,"Velocity":44,"Duration":237154,"SoundDuration":237154,"Delta":53622000},{"NoteNumber":69,"Velocity":59,"Duration":245901,"SoundDuration":245901,"Delta":53859154},{"NoteNumber":61,"Velocity":34,"Duration":245901,"SoundDuration":245901,"Delta":53859154},{"NoteNumber":67,"Velocity":39,"Duration":245901,"SoundDuration":245901,"Delta":53859154},{"NoteNumber":57,"Velocity":34,"Duration":245901,"SoundDuration":245901,"Delta":53859154},{"NoteNumber":64,"Velocity":50,"Duration":370370,"SoundDuration":370370,"Delta":54105055},{"NoteNumber":62,"Velocity":39,"Duration":482022,"SoundDuration":482022,"Delta":54351969},{"NoteNumber":55,"Velocity":36,"Duration":482022,"SoundDuration":482022,"Delta":54351969},{"NoteNumber":58,"Velocity":39,"Duration":482022,"SoundDuration":482022,"Delta":54351969},{"NoteNumber":63,"Velocity":45,"Duration":119522,"SoundDuration":119522,"Delta":54475426},{"NoteNumber":64,"Velocity":48,"Duration":119521,"SoundDuration":119521,"Delta":54594948},{"NoteNumber":65,"Velocity":51,"Duration":119522,"SoundDuration":119522,"Delta":54714470},{"NoteNumber":69,"Velocity":54,"Duration":495868,"SoundDuration":495868,"Delta":54833992},{"NoteNumber":52,"Velocity":32,"Duration":533376,"SoundDuration":533376,"Delta":55081926},{"NoteNumber":62,"Velocity":36,"Duration":533376,"SoundDuration":533376,"Delta":55081926},{"NoteNumber":58,"Velocity":32,"Duration":533376,"SoundDuration":533376,"Delta":55081926},{"NoteNumber":67,"Velocity":52,"Duration":285442,"SoundDuration":285442,"Delta":55329860},{"NoteNumber":40,"Velocity":46,"Duration":384615,"SoundDuration":384615,"Delta":55615302},{"NoteNumber":62,"Velocity":39,"Duration":516702,"SoundDuration":516702,"Delta":55871713},{"NoteNumber":58,"Velocity":39,"Duration":516702,"SoundDuration":516702,"Delta":55871713},{"NoteNumber":55,"Velocity":36,"Duration":516702,"SoundDuration":516702,"Delta":55871713},{"NoteNumber":39,"Velocity":40,"Duration":124481,"SoundDuration":124481,"Delta":55999918},{"NoteNumber":40,"Velocity":42,"Duration":124481,"SoundDuration":124481,"Delta":56124399},{"NoteNumber":43,"Velocity":44,"Duration":139535,"SoundDuration":139535,"Delta":56248880},{"NoteNumber":46,"Velocity":46,"Duration":560747,"SoundDuration":560747,"Delta":56388415},{"NoteNumber":52,"Velocity":32,"Duration":635403,"SoundDuration":635403,"Delta":56668789},{"NoteNumber":55,"Velocity":32,"Duration":635403,"SoundDuration":635403,"Delta":56668789},{"NoteNumber":61,"Velocity":36,"Duration":635403,"SoundDuration":635403,"Delta":56668789},{"NoteNumber":45,"Velocity":43,"Duration":355029,"SoundDuration":355029,"Delta":56949163},{"NoteNumber":62,"Velocity":55,"Duration":742465,"SoundDuration":742465,"Delta":57304193},{"NoteNumber":55,"Velocity":31,"Duration":241935,"SoundDuration":241935,"Delta":57563933},{"NoteNumber":65,"Velocity":36,"Duration":241935,"SoundDuration":241935,"Delta":57563933},{"NoteNumber":58,"Velocity":31,"Duration":241935,"SoundDuration":241935,"Delta":57563933},{"NoteNumber":65,"Velocity":36,"Duration":230757,"SoundDuration":230757,"Delta":57805869},{"NoteNumber":55,"Velocity":31,"Duration":230757,"SoundDuration":230757,"Delta":57805869},{"NoteNumber":58,"Velocity":31,"Duration":230757,"SoundDuration":230757,"Delta":57805869},{"NoteNumber":65,"Velocity":64,"Duration":472441,"SoundDuration":472441,"Delta":58046659},{"NoteNumber":61,"Velocity":36,"Duration":236220,"SoundDuration":236220,"Delta":58282879},{"NoteNumber":57,"Velocity":36,"Duration":236220,"SoundDuration":236220,"Delta":58282879},{"NoteNumber":45,"Velocity":34,"Duration":236220,"SoundDuration":236220,"Delta":58282879},{"NoteNumber":55,"Velocity":34,"Duration":236220,"SoundDuration":236220,"Delta":58282879},{"NoteNumber":64,"Velocity":58,"Duration":238473,"SoundDuration":238473,"Delta":58519100},{"NoteNumber":57,"Velocity":34,"Duration":238473,"SoundDuration":238473,"Delta":58519100},{"NoteNumber":61,"Velocity":34,"Duration":238473,"SoundDuration":238473,"Delta":58519100},{"NoteNumber":55,"Velocity":34,"Duration":238473,"SoundDuration":238473,"Delta":58519100},{"NoteNumber":45,"Velocity":34,"Duration":238473,"SoundDuration":238473,"Delta":58519100},{"NoteNumber":61,"Velocity":51,"Duration":115263,"SoundDuration":115263,"Delta":58757573},{"NoteNumber":62,"Velocity":53,"Duration":114641,"SoundDuration":114641,"Delta":58872837},{"NoteNumber":64,"Velocity":55,"Duration":114007,"SoundDuration":114007,"Delta":58987478},{"NoteNumber":62,"Velocity":36,"Duration":114007,"SoundDuration":114007,"Delta":58987478},{"NoteNumber":53,"Velocity":30,"Duration":114007,"SoundDuration":114007,"Delta":58987478},{"NoteNumber":57,"Velocity":36,"Duration":114007,"SoundDuration":114007,"Delta":58987478},{"NoteNumber":65,"Velocity":58,"Duration":113396,"SoundDuration":113396,"Delta":59101486},{"NoteNumber":68,"Velocity":60,"Duration":112788,"SoundDuration":112788,"Delta":59214882},{"NoteNumber":50,"Velocity":30,"Duration":112788,"SoundDuration":112788,"Delta":59214882},{"NoteNumber":69,"Velocity":63,"Duration":112183,"SoundDuration":112183,"Delta":59327670},{"NoteNumber":73,"Velocity":66,"Duration":111585,"SoundDuration":111585,"Delta":59439853},{"NoteNumber":62,"Velocity":44,"Duration":111585,"SoundDuration":111585,"Delta":59439853},{"NoteNumber":57,"Velocity":44,"Duration":111585,"SoundDuration":111585,"Delta":59439853},{"NoteNumber":65,"Velocity":44,"Duration":111585,"SoundDuration":111585,"Delta":59439853},{"NoteNumber":74,"Velocity":68,"Duration":110990,"SoundDuration":110990,"Delta":59551439},{"NoteNumber":77,"Velocity":75,"Duration":110407,"SoundDuration":110407,"Delta":59662430},{"NoteNumber":50,"Velocity":40,"Duration":110407,"SoundDuration":110407,"Delta":59662430},{"NoteNumber":65,"Velocity":50,"Duration":127550,"SoundDuration":127550,"Delta":59883245},{"NoteNumber":62,"Velocity":50,"Duration":127550,"SoundDuration":127550,"Delta":59883245},{"NoteNumber":69,"Velocity":50,"Duration":127550,"SoundDuration":127550,"Delta":59883245},{"NoteNumber":62,"Velocity":58,"Duration":700505,"SoundDuration":700505,"Delta":60138347},{"NoteNumber":58,"Velocity":31,"Duration":232774,"SoundDuration":232774,"Delta":60367320},{"NoteNumber":55,"Velocity":31,"Duration":232774,"SoundDuration":232774,"Delta":60367320},{"NoteNumber":65,"Velocity":36,"Duration":232774,"SoundDuration":232774,"Delta":60367320},{"NoteNumber":65,"Velocity":36,"Duration":228810,"SoundDuration":228810,"Delta":60600094},{"NoteNumber":55,"Velocity":31,"Duration":228810,"SoundDuration":228810,"Delta":60600094},{"NoteNumber":58,"Velocity":31,"Duration":228810,"SoundDuration":228810,"Delta":60600094},{"NoteNumber":65,"Velocity":64,"Duration":463642,"SoundDuration":463642,"Delta":60838853},{"NoteNumber":57,"Velocity":36,"Duration":231821,"SoundDuration":231821,"Delta":61070674},{"NoteNumber":61,"Velocity":36,"Duration":231821,"SoundDuration":231821,"Delta":61070674},{"NoteNumber":45,"Velocity":34,"Duration":231821,"SoundDuration":231821,"Delta":61070674},{"NoteNumber":55,"Velocity":34,"Duration":231821,"SoundDuration":231821,"Delta":61070674},{"NoteNumber":61,"Velocity":34,"Duration":234937,"SoundDuration":234937,"Delta":61302496},{"NoteNumber":64,"Velocity":58,"Duration":234937,"SoundDuration":234937,"Delta":61302496},{"NoteNumber":57,"Velocity":34,"Duration":234937,"SoundDuration":234937,"Delta":61302496},{"NoteNumber":45,"Velocity":34,"Duration":234937,"SoundDuration":234937,"Delta":61302496},{"NoteNumber":55,"Velocity":34,"Duration":234937,"SoundDuration":234937,"Delta":61302496},{"NoteNumber":61,"Velocity":51,"Duration":115263,"SoundDuration":115263,"Delta":61537433},{"NoteNumber":62,"Velocity":53,"Duration":114641,"SoundDuration":114641,"Delta":61652697},{"NoteNumber":64,"Velocity":55,"Duration":112924,"SoundDuration":112924,"Delta":61767338},{"NoteNumber":62,"Velocity":36,"Duration":112924,"SoundDuration":112924,"Delta":61767338},{"NoteNumber":57,"Velocity":36,"Duration":112924,"SoundDuration":112924,"Delta":61767338},{"NoteNumber":53,"Velocity":30,"Duration":112924,"SoundDuration":112924,"Delta":61767338},{"NoteNumber":65,"Velocity":58,"Duration":111871,"SoundDuration":111871,"Delta":61880262},{"NoteNumber":68,"Velocity":60,"Duration":110702,"SoundDuration":110702,"Delta":61992134},{"NoteNumber":50,"Velocity":30,"Duration":110702,"SoundDuration":110702,"Delta":61992134},{"NoteNumber":69,"Velocity":63,"Duration":110293,"SoundDuration":110293,"Delta":62102836},{"NoteNumber":73,"Velocity":66,"Duration":110551,"SoundDuration":110551,"Delta":62213130},{"NoteNumber":62,"Velocity":44,"Duration":110551,"SoundDuration":110551,"Delta":62213130},{"NoteNumber":65,"Velocity":44,"Duration":110551,"SoundDuration":110551,"Delta":62213130},{"NoteNumber":57,"Velocity":44,"Duration":110551,"SoundDuration":110551,"Delta":62213130},{"NoteNumber":74,"Velocity":68,"Duration":113103,"SoundDuration":113103,"Delta":62323681},{"NoteNumber":81,"Velocity":74,"Duration":110407,"SoundDuration":110407,"Delta":62436785},{"NoteNumber":50,"Velocity":38,"Duration":110407,"SoundDuration":110407,"Delta":62436785},{"NoteNumber":65,"Velocity":43,"Duration":122509,"SoundDuration":122509,"Delta":62657601},{"NoteNumber":69,"Velocity":51,"Duration":122509,"SoundDuration":122509,"Delta":62657601},{"NoteNumber":62,"Velocity":43,"Duration":122509,"SoundDuration":122509,"Delta":62657601},{"NoteNumber":62,"Velocity":59,"Duration":696404,"SoundDuration":696404,"Delta":62902619},{"NoteNumber":58,"Velocity":31,"Duration":230840,"SoundDuration":230840,"Delta":63133459},{"NoteNumber":65,"Velocity":36,"Duration":230840,"SoundDuration":230840,"Delta":63133459},{"NoteNumber":55,"Velocity":31,"Duration":230840,"SoundDuration":230840,"Delta":63133459},{"NoteNumber":58,"Velocity":31,"Duration":224943,"SoundDuration":224943,"Delta":63364300},{"NoteNumber":65,"Velocity":36,"Duration":224943,"SoundDuration":224943,"Delta":63364300},{"NoteNumber":55,"Velocity":31,"Duration":224943,"SoundDuration":224943,"Delta":63364300},{"NoteNumber":65,"Velocity":64,"Duration":459805,"SoundDuration":459805,"Delta":63599023},{"NoteNumber":61,"Velocity":36,"Duration":229902,"SoundDuration":229902,"Delta":63828926},{"NoteNumber":57,"Velocity":36,"Duration":229902,"SoundDuration":229902,"Delta":63828926},{"NoteNumber":55,"Velocity":34,"Duration":229902,"SoundDuration":229902,"Delta":63828926},{"NoteNumber":45,"Velocity":34,"Duration":229902,"SoundDuration":229902,"Delta":63828926},{"NoteNumber":64,"Velocity":58,"Duration":234639,"SoundDuration":234639,"Delta":64058828},{"NoteNumber":57,"Velocity":34,"Duration":234639,"SoundDuration":234639,"Delta":64058828},{"NoteNumber":61,"Velocity":34,"Duration":234639,"SoundDuration":234639,"Delta":64058828},{"NoteNumber":55,"Velocity":34,"Duration":234639,"SoundDuration":234639,"Delta":64058828},{"NoteNumber":45,"Velocity":34,"Duration":234639,"SoundDuration":234639,"Delta":64058828},{"NoteNumber":61,"Velocity":51,"Duration":113564,"SoundDuration":113564,"Delta":64293468},{"NoteNumber":62,"Velocity":53,"Duration":113136,"SoundDuration":113136,"Delta":64407033},{"NoteNumber":64,"Velocity":55,"Duration":112711,"SoundDuration":112711,"Delta":64520169},{"NoteNumber":53,"Velocity":30,"Duration":112711,"SoundDuration":112711,"Delta":64520169},{"NoteNumber":57,"Velocity":36,"Duration":112711,"SoundDuration":112711,"Delta":64520169},{"NoteNumber":62,"Velocity":36,"Duration":112711,"SoundDuration":112711,"Delta":64520169},{"NoteNumber":65,"Velocity":58,"Duration":112219,"SoundDuration":112219,"Delta":64632881},{"NoteNumber":68,"Velocity":60,"Duration":111801,"SoundDuration":111801,"Delta":64745101},{"NoteNumber":50,"Velocity":30,"Duration":111801,"SoundDuration":111801,"Delta":64745101},{"NoteNumber":69,"Velocity":63,"Duration":111386,"SoundDuration":111386,"Delta":64856902},{"NoteNumber":73,"Velocity":66,"Duration":111103,"SoundDuration":111103,"Delta":64968289},{"NoteNumber":57,"Velocity":44,"Duration":111103,"SoundDuration":111103,"Delta":64968289},{"NoteNumber":65,"Velocity":44,"Duration":111103,"SoundDuration":111103,"Delta":64968289},{"NoteNumber":62,"Velocity":44,"Duration":111103,"SoundDuration":111103,"Delta":64968289},{"NoteNumber":74,"Velocity":68,"Duration":110990,"SoundDuration":110990,"Delta":65079392},{"NoteNumber":77,"Velocity":73,"Duration":110407,"SoundDuration":110407,"Delta":65190383},{"NoteNumber":50,"Velocity":40,"Duration":110407,"SoundDuration":110407,"Delta":65190383},{"NoteNumber":62,"Velocity":42,"Duration":125260,"SoundDuration":125260,"Delta":65411198},{"NoteNumber":69,"Velocity":50,"Duration":125260,"SoundDuration":125260,"Delta":65411198},{"NoteNumber":65,"Velocity":42,"Duration":125260,"SoundDuration":125260,"Delta":65411198},{"NoteNumber":62,"Velocity":58,"Duration":704334,"SoundDuration":704334,"Delta":65661720},{"NoteNumber":55,"Velocity":31,"Duration":233754,"SoundDuration":233754,"Delta":65893542},{"NoteNumber":65,"Velocity":36,"Duration":233754,"SoundDuration":233754,"Delta":65893542},{"NoteNumber":58,"Velocity":31,"Duration":233754,"SoundDuration":233754,"Delta":65893542},{"NoteNumber":65,"Velocity":36,"Duration":228810,"SoundDuration":228810,"Delta":66127296},{"NoteNumber":55,"Velocity":31,"Duration":228810,"SoundDuration":228810,"Delta":66127296},{"NoteNumber":58,"Velocity":31,"Duration":228810,"SoundDuration":228810,"Delta":66127296},{"NoteNumber":65,"Velocity":63,"Duration":463643,"SoundDuration":463643,"Delta":66366054},{"NoteNumber":61,"Velocity":36,"Duration":231821,"SoundDuration":231821,"Delta":66597876},{"NoteNumber":57,"Velocity":36,"Duration":231821,"SoundDuration":231821,"Delta":66597876},{"NoteNumber":45,"Velocity":34,"Duration":231821,"SoundDuration":231821,"Delta":66597876},{"NoteNumber":55,"Velocity":34,"Duration":231821,"SoundDuration":231821,"Delta":66597876},{"NoteNumber":64,"Velocity":58,"Duration":234937,"SoundDuration":234937,"Delta":66829697},{"NoteNumber":57,"Velocity":34,"Duration":234937,"SoundDuration":234937,"Delta":66829697},{"NoteNumber":61,"Velocity":34,"Duration":234937,"SoundDuration":234937,"Delta":66829697},{"NoteNumber":55,"Velocity":34,"Duration":234937,"SoundDuration":234937,"Delta":66829697},{"NoteNumber":45,"Velocity":34,"Duration":234937,"SoundDuration":234937,"Delta":66829697},{"NoteNumber":61,"Velocity":51,"Duration":115263,"SoundDuration":115263,"Delta":67064635},{"NoteNumber":62,"Velocity":53,"Duration":114641,"SoundDuration":114641,"Delta":67179898},{"NoteNumber":64,"Velocity":55,"Duration":114007,"SoundDuration":114007,"Delta":67294540},{"NoteNumber":62,"Velocity":36,"Duration":114007,"SoundDuration":114007,"Delta":67294540},{"NoteNumber":53,"Velocity":30,"Duration":114007,"SoundDuration":114007,"Delta":67294540},{"NoteNumber":57,"Velocity":36,"Duration":114007,"SoundDuration":114007,"Delta":67294540},{"NoteNumber":65,"Velocity":58,"Duration":113396,"SoundDuration":113396,"Delta":67408547},{"NoteNumber":68,"Velocity":60,"Duration":112788,"SoundDuration":112788,"Delta":67521944},{"NoteNumber":50,"Velocity":30,"Duration":112788,"SoundDuration":112788,"Delta":67521944},{"NoteNumber":69,"Velocity":63,"Duration":112183,"SoundDuration":112183,"Delta":67634732},{"NoteNumber":73,"Velocity":66,"Duration":111509,"SoundDuration":111509,"Delta":67746915},{"NoteNumber":57,"Velocity":44,"Duration":111509,"SoundDuration":111509,"Delta":67746915},{"NoteNumber":65,"Velocity":44,"Duration":111509,"SoundDuration":111509,"Delta":67746915},{"NoteNumber":62,"Velocity":44,"Duration":111509,"SoundDuration":111509,"Delta":67746915},{"NoteNumber":74,"Velocity":68,"Duration":113103,"SoundDuration":113103,"Delta":67858425},{"NoteNumber":81,"Velocity":74,"Duration":110407,"SoundDuration":110407,"Delta":67971528},{"NoteNumber":50,"Velocity":38,"Duration":110407,"SoundDuration":110407,"Delta":67971528},{"NoteNumber":62,"Velocity":43,"Duration":122508,"SoundDuration":122508,"Delta":68192344},{"NoteNumber":69,"Velocity":51,"Duration":122508,"SoundDuration":122508,"Delta":68192344},{"NoteNumber":65,"Velocity":43,"Duration":122508,"SoundDuration":122508,"Delta":68192344},{"NoteNumber":86,"Velocity":86,"Duration":715458,"SoundDuration":715458,"Delta":68437362},{"NoteNumber":60,"Velocity":34,"Duration":118361,"SoundDuration":118361,"Delta":68669183},{"NoteNumber":66,"Velocity":46,"Duration":118361,"SoundDuration":118361,"Delta":68669183},{"NoteNumber":62,"Velocity":34,"Duration":118361,"SoundDuration":118361,"Delta":68669183},{"NoteNumber":70,"Velocity":46,"Duration":118361,"SoundDuration":118361,"Delta":68669183},{"NoteNumber":69,"Velocity":39,"Duration":123456,"SoundDuration":123456,"Delta":68905907},{"NoteNumber":60,"Velocity":28,"Duration":123456,"SoundDuration":123456,"Delta":68905907},{"NoteNumber":62,"Velocity":28,"Duration":123456,"SoundDuration":123456,"Delta":68905907},{"NoteNumber":66,"Velocity":39,"Duration":123456,"SoundDuration":123456,"Delta":68905907},{"NoteNumber":74,"Velocity":72,"Duration":707277,"SoundDuration":707277,"Delta":69152820},{"NoteNumber":58,"Velocity":40,"Duration":116877,"SoundDuration":116877,"Delta":69386574},{"NoteNumber":69,"Velocity":44,"Duration":116877,"SoundDuration":116877,"Delta":69386574},{"NoteNumber":62,"Velocity":40,"Duration":116877,"SoundDuration":116877,"Delta":69386574},{"NoteNumber":58,"Velocity":34,"Duration":119884,"SoundDuration":119884,"Delta":69620328},{"NoteNumber":62,"Velocity":34,"Duration":119884,"SoundDuration":119884,"Delta":69620328},{"NoteNumber":67,"Velocity":39,"Duration":119884,"SoundDuration":119884,"Delta":69620328},{"NoteNumber":60,"Velocity":57,"Duration":349161,"SoundDuration":349161,"Delta":69860098},{"NoteNumber":55,"Velocity":40,"Duration":116387,"SoundDuration":116387,"Delta":70092873},{"NoteNumber":58,"Velocity":44,"Duration":116387,"SoundDuration":116387,"Delta":70092873},{"NoteNumber":62,"Velocity":54,"Duration":114796,"SoundDuration":114796,"Delta":70209260},{"NoteNumber":63,"Velocity":57,"Duration":114167,"SoundDuration":114167,"Delta":70324056},{"NoteNumber":55,"Velocity":36,"Duration":114167,"SoundDuration":114167,"Delta":70324056},{"NoteNumber":58,"Velocity":41,"Duration":114167,"SoundDuration":114167,"Delta":70324056},{"NoteNumber":64,"Velocity":59,"Duration":113396,"SoundDuration":113396,"Delta":70438224},{"NoteNumber":67,"Velocity":62,"Duration":450552,"SoundDuration":450552,"Delta":70551620},{"NoteNumber":60,"Velocity":46,"Duration":112638,"SoundDuration":112638,"Delta":70776896},{"NoteNumber":57,"Velocity":46,"Duration":112638,"SoundDuration":112638,"Delta":70776896},{"NoteNumber":48,"Velocity":41,"Duration":112638,"SoundDuration":112638,"Delta":70776896},{"NoteNumber":41,"Velocity":36,"Duration":112638,"SoundDuration":112638,"Delta":70776896},{"NoteNumber":60,"Velocity":42,"Duration":125260,"SoundDuration":125260,"Delta":71002172},{"NoteNumber":65,"Velocity":59,"Duration":250522,"SoundDuration":250522,"Delta":71002172},{"NoteNumber":57,"Velocity":42,"Duration":125260,"SoundDuration":125260,"Delta":71002172},{"NoteNumber":48,"Velocity":37,"Duration":125260,"SoundDuration":125260,"Delta":71002172},{"NoteNumber":41,"Velocity":33,"Duration":125260,"SoundDuration":125260,"Delta":71002172},{"NoteNumber":82,"Velocity":72,"Duration":720394,"SoundDuration":720394,"Delta":71252694},{"NoteNumber":58,"Velocity":32,"Duration":122950,"SoundDuration":122950,"Delta":71487417},{"NoteNumber":62,"Velocity":43,"Duration":122950,"SoundDuration":122950,"Delta":71487417},{"NoteNumber":56,"Velocity":32,"Duration":122950,"SoundDuration":122950,"Delta":71487417},{"NoteNumber":67,"Velocity":43,"Duration":122950,"SoundDuration":122950,"Delta":71487417},{"NoteNumber":65,"Velocity":36,"Duration":119884,"SoundDuration":119884,"Delta":71733319},{"NoteNumber":58,"Velocity":26,"Duration":119884,"SoundDuration":119884,"Delta":71733319},{"NoteNumber":56,"Velocity":26,"Duration":119884,"SoundDuration":119884,"Delta":71733319},{"NoteNumber":62,"Velocity":36,"Duration":119884,"SoundDuration":119884,"Delta":71733319},{"NoteNumber":70,"Velocity":62,"Duration":711910,"SoundDuration":711910,"Delta":71973089},{"NoteNumber":55,"Velocity":30,"Duration":118110,"SoundDuration":118110,"Delta":72206843},{"NoteNumber":65,"Velocity":40,"Duration":118110,"SoundDuration":118110,"Delta":72206843},{"NoteNumber":58,"Velocity":36,"Duration":118110,"SoundDuration":118110,"Delta":72206843},{"NoteNumber":55,"Velocity":25,"Duration":120967,"SoundDuration":120967,"Delta":72443063},{"NoteNumber":58,"Velocity":30,"Duration":120967,"SoundDuration":120967,"Delta":72443063},{"NoteNumber":63,"Velocity":35,"Duration":120967,"SoundDuration":120967,"Delta":72443063},{"NoteNumber":58,"Velocity":51,"Duration":349161,"SoundDuration":349161,"Delta":72684999},{"NoteNumber":53,"Velocity":36,"Duration":116387,"SoundDuration":116387,"Delta":72917773},{"NoteNumber":56,"Velocity":39,"Duration":116387,"SoundDuration":116387,"Delta":72917773},{"NoteNumber":59,"Velocity":43,"Duration":114796,"SoundDuration":114796,"Delta":73034161},{"NoteNumber":60,"Velocity":46,"Duration":114167,"SoundDuration":114167,"Delta":73148957},{"NoteNumber":53,"Velocity":32,"Duration":114167,"SoundDuration":114167,"Delta":73148957},{"NoteNumber":56,"Velocity":36,"Duration":114167,"SoundDuration":114167,"Delta":73148957},{"NoteNumber":62,"Velocity":48,"Duration":113396,"SoundDuration":113396,"Delta":73263124},{"NoteNumber":65,"Velocity":51,"Duration":450552,"SoundDuration":450552,"Delta":73376520},{"NoteNumber":55,"Velocity":31,"Duration":112638,"SoundDuration":112638,"Delta":73601796},{"NoteNumber":48,"Velocity":31,"Duration":112638,"SoundDuration":112638,"Delta":73601796},{"NoteNumber":60,"Velocity":35,"Duration":112638,"SoundDuration":112638,"Delta":73601796},{"NoteNumber":63,"Velocity":48,"Duration":242895,"SoundDuration":242895,"Delta":73827072},{"NoteNumber":48,"Velocity":28,"Duration":121447,"SoundDuration":121447,"Delta":73827072},{"NoteNumber":60,"Velocity":31,"Duration":121447,"SoundDuration":121447,"Delta":73827072},{"NoteNumber":55,"Velocity":28,"Duration":121447,"SoundDuration":121447,"Delta":73827072},{"NoteNumber":44,"Velocity":51,"Duration":354986,"SoundDuration":354986,"Delta":74069968},{"NoteNumber":53,"Velocity":30,"Duration":174102,"SoundDuration":174102,"Delta":74308726},{"NoteNumber":65,"Velocity":33,"Duration":174102,"SoundDuration":174102,"Delta":74308726},{"NoteNumber":63,"Velocity":33,"Duration":174102,"SoundDuration":174102,"Delta":74308726},{"NoteNumber":45,"Velocity":43,"Duration":115583,"SoundDuration":115583,"Delta":74424955},{"NoteNumber":63,"Velocity":30,"Duration":171645,"SoundDuration":171645,"Delta":74540538},{"NoteNumber":53,"Velocity":27,"Duration":171645,"SoundDuration":171645,"Delta":74540538},{"NoteNumber":65,"Velocity":30,"Duration":171645,"SoundDuration":171645,"Delta":74540538},{"NoteNumber":44,"Velocity":46,"Duration":114641,"SoundDuration":114641,"Delta":74540538},{"NoteNumber":45,"Velocity":48,"Duration":113855,"SoundDuration":113855,"Delta":74655180},{"NoteNumber":50,"Velocity":51,"Duration":226175,"SoundDuration":226175,"Delta":74769035},{"NoteNumber":63,"Velocity":29,"Duration":169632,"SoundDuration":169632,"Delta":74995211},{"NoteNumber":53,"Velocity":26,"Duration":169632,"SoundDuration":169632,"Delta":74995211},{"NoteNumber":65,"Velocity":29,"Duration":169632,"SoundDuration":169632,"Delta":74995211},{"NoteNumber":47,"Velocity":42,"Duration":226176,"SoundDuration":226176,"Delta":74995211},{"NoteNumber":63,"Velocity":26,"Duration":191927,"SoundDuration":191927,"Delta":75221387},{"NoteNumber":53,"Velocity":23,"Duration":191927,"SoundDuration":191927,"Delta":75221387},{"NoteNumber":65,"Velocity":26,"Duration":191927,"SoundDuration":191927,"Delta":75221387},{"NoteNumber":48,"Velocity":48,"Duration":258594,"SoundDuration":258594,"Delta":75221387},{"NoteNumber":68,"Velocity":51,"Duration":361962,"SoundDuration":361962,"Delta":75479981},{"NoteNumber":63,"Velocity":39,"Duration":177002,"SoundDuration":177002,"Delta":75722896},{"NoteNumber":54,"Velocity":36,"Duration":177002,"SoundDuration":177002,"Delta":75722896},{"NoteNumber":60,"Velocity":36,"Duration":177002,"SoundDuration":177002,"Delta":75722896},{"NoteNumber":69,"Velocity":43,"Duration":115747,"SoundDuration":115747,"Delta":75841944},{"NoteNumber":68,"Velocity":46,"Duration":114641,"SoundDuration":114641,"Delta":75957691},{"NoteNumber":60,"Velocity":32,"Duration":171568,"SoundDuration":171568,"Delta":75957691},{"NoteNumber":54,"Velocity":32,"Duration":171568,"SoundDuration":171568,"Delta":75957691},{"NoteNumber":63,"Velocity":36,"Duration":171568,"SoundDuration":171568,"Delta":75957691},{"NoteNumber":69,"Velocity":48,"Duration":113548,"SoundDuration":113548,"Delta":76072332},{"NoteNumber":74,"Velocity":51,"Duration":225275,"SoundDuration":225275,"Delta":76185881},{"NoteNumber":63,"Velocity":35,"Duration":168957,"SoundDuration":168957,"Delta":76411157},{"NoteNumber":71,"Velocity":51,"Duration":225276,"SoundDuration":225276,"Delta":76411157},{"NoteNumber":57,"Velocity":35,"Duration":168957,"SoundDuration":168957,"Delta":76411157},{"NoteNumber":53,"Velocity":31,"Duration":168957,"SoundDuration":168957,"Delta":76411157},{"NoteNumber":72,"Velocity":48,"Duration":243961,"SoundDuration":243961,"Delta":76636433},{"NoteNumber":63,"Velocity":31,"Duration":182971,"SoundDuration":182971,"Delta":76636433},{"NoteNumber":57,"Velocity":31,"Duration":182971,"SoundDuration":182971,"Delta":76636433},{"NoteNumber":53,"Velocity":28,"Duration":182971,"SoundDuration":182971,"Delta":76636433},{"NoteNumber":44,"Velocity":51,"Duration":356077,"SoundDuration":356077,"Delta":76880395},{"NoteNumber":65,"Velocity":33,"Duration":176960,"SoundDuration":176960,"Delta":77118113},{"NoteNumber":53,"Velocity":30,"Duration":176960,"SoundDuration":176960,"Delta":77118113},{"NoteNumber":63,"Velocity":33,"Duration":176960,"SoundDuration":176960,"Delta":77118113},{"NoteNumber":45,"Velocity":43,"Duration":117038,"SoundDuration":117038,"Delta":77236473},{"NoteNumber":65,"Velocity":30,"Duration":173779,"SoundDuration":173779,"Delta":77353511},{"NoteNumber":53,"Velocity":27,"Duration":173779,"SoundDuration":173779,"Delta":77353511},{"NoteNumber":63,"Velocity":30,"Duration":173779,"SoundDuration":173779,"Delta":77353511},{"NoteNumber":44,"Velocity":46,"Duration":116069,"SoundDuration":116069,"Delta":77353511},{"NoteNumber":45,"Velocity":48,"Duration":115263,"SoundDuration":115263,"Delta":77469581},{"NoteNumber":50,"Velocity":51,"Duration":228972,"SoundDuration":228972,"Delta":77584845},{"NoteNumber":65,"Velocity":29,"Duration":171729,"SoundDuration":171729,"Delta":77813817},{"NoteNumber":53,"Velocity":26,"Duration":171729,"SoundDuration":171729,"Delta":77813817},{"NoteNumber":63,"Velocity":29,"Duration":171729,"SoundDuration":171729,"Delta":77813817},{"NoteNumber":47,"Velocity":42,"Duration":228972,"SoundDuration":228972,"Delta":77813817},{"NoteNumber":53,"Velocity":23,"Duration":187891,"SoundDuration":187891,"Delta":78042790},{"NoteNumber":63,"Velocity":26,"Duration":187891,"SoundDuration":187891,"Delta":78042790},{"NoteNumber":65,"Velocity":26,"Duration":187891,"SoundDuration":187891,"Delta":78042790},{"NoteNumber":48,"Velocity":48,"Duration":250522,"SoundDuration":250522,"Delta":78042790},{"NoteNumber":68,"Velocity":51,"Duration":358137,"SoundDuration":358137,"Delta":78293312},{"NoteNumber":63,"Velocity":39,"Duration":178060,"SoundDuration":178060,"Delta":78532070},{"NoteNumber":54,"Velocity":36,"Duration":178060,"SoundDuration":178060,"Delta":78532070},{"NoteNumber":60,"Velocity":36,"Duration":178060,"SoundDuration":178060,"Delta":78532070},{"NoteNumber":69,"Velocity":43,"Duration":117200,"SoundDuration":117200,"Delta":78651450},{"NoteNumber":68,"Velocity":46,"Duration":116550,"SoundDuration":116550,"Delta":78768650},{"NoteNumber":60,"Velocity":32,"Duration":174505,"SoundDuration":174505,"Delta":78768650},{"NoteNumber":54,"Velocity":32,"Duration":174505,"SoundDuration":174505,"Delta":78768650},{"NoteNumber":63,"Velocity":36,"Duration":174505,"SoundDuration":174505,"Delta":78768650},{"NoteNumber":69,"Velocity":48,"Duration":115747,"SoundDuration":115747,"Delta":78885200},{"NoteNumber":74,"Velocity":51,"Duration":229902,"SoundDuration":229902,"Delta":79000947},{"NoteNumber":71,"Velocity":51,"Duration":229902,"SoundDuration":229902,"Delta":79230850},{"NoteNumber":63,"Velocity":35,"Duration":172426,"SoundDuration":172426,"Delta":79230850},{"NoteNumber":57,"Velocity":35,"Duration":172426,"SoundDuration":172426,"Delta":79230850},{"NoteNumber":53,"Velocity":31,"Duration":172426,"SoundDuration":172426,"Delta":79230850},{"NoteNumber":72,"Velocity":48,"Duration":248282,"SoundDuration":248282,"Delta":79460752},{"NoteNumber":63,"Velocity":31,"Duration":186211,"SoundDuration":186211,"Delta":79460752},{"NoteNumber":57,"Velocity":31,"Duration":186211,"SoundDuration":186211,"Delta":79460752},{"NoteNumber":53,"Velocity":28,"Duration":186211,"SoundDuration":186211,"Delta":79460752},{"NoteNumber":67,"Velocity":51,"Duration":485829,"SoundDuration":485829,"Delta":79709035},{"NoteNumber":58,"Velocity":36,"Duration":182186,"SoundDuration":182186,"Delta":79951950},{"NoteNumber":60,"Velocity":36,"Duration":182186,"SoundDuration":182186,"Delta":79951950},{"NoteNumber":63,"Velocity":39,"Duration":182186,"SoundDuration":182186,"Delta":79951950},{"NoteNumber":72,"Velocity":46,"Duration":255319,"SoundDuration":255319,"Delta":80194865},{"NoteNumber":60,"Velocity":27,"Duration":191489,"SoundDuration":191489,"Delta":80194865},{"NoteNumber":63,"Velocity":30,"Duration":191489,"SoundDuration":191489,"Delta":80194865},{"NoteNumber":58,"Velocity":27,"Duration":191489,"SoundDuration":191489,"Delta":80194865},{"NoteNumber":66,"Velocity":51,"Duration":243902,"SoundDuration":243902,"Delta":80450184},{"NoteNumber":60,"Velocity":35,"Duration":182926,"SoundDuration":182926,"Delta":80694086},{"NoteNumber":63,"Velocity":35,"Duration":182926,"SoundDuration":182926,"Delta":80694086},{"NoteNumber":57,"Velocity":35,"Duration":182926,"SoundDuration":182926,"Delta":80694086},{"NoteNumber":53,"Velocity":31,"Duration":182926,"SoundDuration":182926,"Delta":80694086},{"NoteNumber":63,"Velocity":31,"Duration":199114,"SoundDuration":199114,"Delta":80937989},{"NoteNumber":60,"Velocity":31,"Duration":199114,"SoundDuration":199114,"Delta":80937989},{"NoteNumber":65,"Velocity":48,"Duration":265486,"SoundDuration":265486,"Delta":80937989},{"NoteNumber":53,"Velocity":28,"Duration":199114,"SoundDuration":199114,"Delta":80937989},{"NoteNumber":57,"Velocity":31,"Duration":199114,"SoundDuration":199114,"Delta":80937989},{"NoteNumber":67,"Velocity":48,"Duration":514579,"SoundDuration":514579,"Delta":81203475},{"NoteNumber":63,"Velocity":36,"Duration":192967,"SoundDuration":192967,"Delta":81460765},{"NoteNumber":58,"Velocity":33,"Duration":192967,"SoundDuration":192967,"Delta":81460765},{"NoteNumber":60,"Velocity":33,"Duration":192967,"SoundDuration":192967,"Delta":81460765},{"NoteNumber":72,"Velocity":42,"Duration":289575,"SoundDuration":289575,"Delta":81718055},{"NoteNumber":58,"Velocity":24,"Duration":217181,"SoundDuration":217181,"Delta":81718055},{"NoteNumber":63,"Velocity":28,"Duration":217181,"SoundDuration":217181,"Delta":81718055},{"NoteNumber":60,"Velocity":24,"Duration":217181,"SoundDuration":217181,"Delta":81718055},{"NoteNumber":66,"Velocity":45,"Duration":278810,"SoundDuration":278810,"Delta":82007631},{"NoteNumber":63,"Velocity":31,"Duration":230532,"SoundDuration":230532,"Delta":82286441},{"NoteNumber":60,"Velocity":31,"Duration":230532,"SoundDuration":230532,"Delta":82286441},{"NoteNumber":53,"Velocity":22,"Duration":230532,"SoundDuration":230532,"Delta":82286441},{"NoteNumber":57,"Velocity":26,"Duration":230532,"SoundDuration":230532,"Delta":82286441},{"NoteNumber":65,"Velocity":41,"Duration":331125,"SoundDuration":331125,"Delta":82593818},{"NoteNumber":60,"Velocity":26,"Duration":248344,"SoundDuration":248344,"Delta":82593818},{"NoteNumber":63,"Velocity":26,"Duration":248344,"SoundDuration":248344,"Delta":82593818},{"NoteNumber":53,"Velocity":20,"Duration":248344,"SoundDuration":248344,"Delta":82593818},{"NoteNumber":57,"Velocity":22,"Duration":248344,"SoundDuration":248344,"Delta":82593818},{"NoteNumber":67,"Velocity":51,"Duration":738252,"SoundDuration":738252,"Delta":82924944},{"NoteNumber":62,"Velocity":31,"Duration":250836,"SoundDuration":250836,"Delta":83167663},{"NoteNumber":58,"Velocity":31,"Duration":250836,"SoundDuration":250836,"Delta":83167663},{"NoteNumber":65,"Velocity":35,"Duration":250836,"SoundDuration":250836,"Delta":83167663},{"NoteNumber":62,"Velocity":28,"Duration":244697,"SoundDuration":244697,"Delta":83418499},{"NoteNumber":58,"Velocity":28,"Duration":244697,"SoundDuration":244697,"Delta":83418499},{"NoteNumber":65,"Velocity":32,"Duration":244697,"SoundDuration":244697,"Delta":83418499},{"NoteNumber":69,"Velocity":53,"Duration":481541,"SoundDuration":481541,"Delta":83663197},{"NoteNumber":58,"Velocity":30,"Duration":240770,"SoundDuration":240770,"Delta":83663197},{"NoteNumber":65,"Velocity":34,"Duration":240770,"SoundDuration":240770,"Delta":83663197},{"NoteNumber":62,"Velocity":30,"Duration":240770,"SoundDuration":240770,"Delta":83663197},{"NoteNumber":62,"Velocity":28,"Duration":240770,"SoundDuration":240770,"Delta":83903967},{"NoteNumber":58,"Velocity":28,"Duration":240770,"SoundDuration":240770,"Delta":83903967},{"NoteNumber":65,"Velocity":32,"Duration":240770,"SoundDuration":240770,"Delta":83903967},{"NoteNumber":70,"Velocity":54,"Duration":241935,"SoundDuration":241935,"Delta":84144738},{"NoteNumber":74,"Velocity":61,"Duration":695804,"SoundDuration":695804,"Delta":84386673},{"NoteNumber":65,"Velocity":36,"Duration":229884,"SoundDuration":229884,"Delta":84622708},{"NoteNumber":57,"Velocity":30,"Duration":229884,"SoundDuration":229884,"Delta":84622708},{"NoteNumber":63,"Velocity":36,"Duration":229884,"SoundDuration":229884,"Delta":84622708},{"NoteNumber":63,"Velocity":36,"Duration":229885,"SoundDuration":229885,"Delta":84852593},{"NoteNumber":57,"Velocity":30,"Duration":229885,"SoundDuration":229885,"Delta":84852593},{"NoteNumber":65,"Velocity":36,"Duration":229885,"SoundDuration":229885,"Delta":84852593},{"NoteNumber":72,"Velocity":55,"Duration":466562,"SoundDuration":466562,"Delta":85082478},{"NoteNumber":63,"Velocity":36,"Duration":233281,"SoundDuration":233281,"Delta":85082478},{"NoteNumber":65,"Velocity":36,"Duration":233281,"SoundDuration":233281,"Delta":85082478},{"NoteNumber":57,"Velocity":30,"Duration":233281,"SoundDuration":233281,"Delta":85082478},{"NoteNumber":57,"Velocity":30,"Duration":223561,"SoundDuration":223561,"Delta":85315759},{"NoteNumber":65,"Velocity":36,"Duration":223561,"SoundDuration":223561,"Delta":85315759},{"NoteNumber":63,"Velocity":36,"Duration":223561,"SoundDuration":223561,"Delta":85315759},{"NoteNumber":65,"Velocity":52,"Duration":236034,"SoundDuration":236034,"Delta":85549041},{"NoteNumber":71,"Velocity":55,"Duration":687102,"SoundDuration":687102,"Delta":85785075},{"NoteNumber":56,"Velocity":30,"Duration":227272,"SoundDuration":227272,"Delta":86012348},{"NoteNumber":65,"Velocity":36,"Duration":227272,"SoundDuration":227272,"Delta":86012348},{"NoteNumber":62,"Velocity":30,"Duration":227272,"SoundDuration":227272,"Delta":86012348},{"NoteNumber":56,"Velocity":30,"Duration":232557,"SoundDuration":232557,"Delta":86239620},{"NoteNumber":65,"Velocity":36,"Duration":232557,"SoundDuration":232557,"Delta":86239620},{"NoteNumber":62,"Velocity":30,"Duration":232557,"SoundDuration":232557,"Delta":86239620},{"NoteNumber":72,"Velocity":60,"Duration":449438,"SoundDuration":449438,"Delta":86472178},{"NoteNumber":56,"Velocity":33,"Duration":224718,"SoundDuration":224718,"Delta":86472178},{"NoteNumber":65,"Velocity":40,"Duration":224718,"SoundDuration":224718,"Delta":86472178},{"NoteNumber":62,"Velocity":33,"Duration":224718,"SoundDuration":224718,"Delta":86472178},{"NoteNumber":62,"Velocity":33,"Duration":224719,"SoundDuration":224719,"Delta":86696897},{"NoteNumber":65,"Velocity":40,"Duration":224719,"SoundDuration":224719,"Delta":86696897},{"NoteNumber":56,"Velocity":33,"Duration":224719,"SoundDuration":224719,"Delta":86696897},{"NoteNumber":74,"Velocity":59,"Duration":237135,"SoundDuration":237135,"Delta":86921616},{"NoteNumber":77,"Velocity":66,"Duration":675973,"SoundDuration":675973,"Delta":87158752},{"NoteNumber":60,"Velocity":38,"Duration":229007,"SoundDuration":229007,"Delta":87380154},{"NoteNumber":63,"Velocity":47,"Duration":229007,"SoundDuration":229007,"Delta":87380154},{"NoteNumber":55,"Velocity":38,"Duration":229007,"SoundDuration":229007,"Delta":87380154},{"NoteNumber":60,"Velocity":38,"Duration":225564,"SoundDuration":225564,"Delta":87609161},{"NoteNumber":55,"Velocity":38,"Duration":225564,"SoundDuration":225564,"Delta":87609161},{"NoteNumber":63,"Velocity":47,"Duration":225564,"SoundDuration":225564,"Delta":87609161},{"NoteNumber":75,"Velocity":64,"Duration":451127,"SoundDuration":451127,"Delta":87834725},{"NoteNumber":55,"Velocity":38,"Duration":225563,"SoundDuration":225563,"Delta":87834725},{"NoteNumber":63,"Velocity":48,"Duration":225563,"SoundDuration":225563,"Delta":87834725},{"NoteNumber":60,"Velocity":38,"Duration":225563,"SoundDuration":225563,"Delta":87834725},{"NoteNumber":60,"Velocity":38,"Duration":225564,"SoundDuration":225564,"Delta":88060289},{"NoteNumber":55,"Velocity":38,"Duration":225564,"SoundDuration":225564,"Delta":88060289},{"NoteNumber":63,"Velocity":48,"Duration":225564,"SoundDuration":225564,"Delta":88060289},{"NoteNumber":75,"Velocity":71,"Duration":243902,"SoundDuration":243902,"Delta":88285853},{"NoteNumber":76,"Velocity":77,"Duration":696488,"SoundDuration":696488,"Delta":88529756},{"NoteNumber":57,"Velocity":44,"Duration":229007,"SoundDuration":229007,"Delta":88758763},{"NoteNumber":55,"Velocity":44,"Duration":229007,"SoundDuration":229007,"Delta":88758763},{"NoteNumber":64,"Velocity":55,"Duration":229007,"SoundDuration":229007,"Delta":88758763},{"NoteNumber":61,"Velocity":55,"Duration":229007,"SoundDuration":229007,"Delta":88758763},{"NoteNumber":57,"Velocity":41,"Duration":238473,"SoundDuration":238473,"Delta":88987771},{"NoteNumber":61,"Velocity":49,"Duration":238473,"SoundDuration":238473,"Delta":88987771},{"NoteNumber":64,"Velocity":49,"Duration":238473,"SoundDuration":238473,"Delta":88987771},{"NoteNumber":55,"Velocity":41,"Duration":238473,"SoundDuration":238473,"Delta":88987771},{"NoteNumber":82,"Velocity":72,"Duration":460936,"SoundDuration":460936,"Delta":89226245},{"NoteNumber":57,"Velocity":45,"Duration":230468,"SoundDuration":230468,"Delta":89226245},{"NoteNumber":61,"Velocity":55,"Duration":230468,"SoundDuration":230468,"Delta":89226245},{"NoteNumber":64,"Velocity":55,"Duration":230468,"SoundDuration":230468,"Delta":89226245},{"NoteNumber":55,"Velocity":45,"Duration":230468,"SoundDuration":230468,"Delta":89226245},{"NoteNumber":57,"Velocity":45,"Duration":230468,"SoundDuration":230468,"Delta":89456713},{"NoteNumber":61,"Velocity":55,"Duration":230468,"SoundDuration":230468,"Delta":89456713},{"NoteNumber":64,"Velocity":55,"Duration":230468,"SoundDuration":230468,"Delta":89456713},{"NoteNumber":55,"Velocity":45,"Duration":230468,"SoundDuration":230468,"Delta":89456713},{"NoteNumber":81,"Velocity":67,"Duration":240115,"SoundDuration":240115,"Delta":89687181},{"NoteNumber":69,"Velocity":66,"Duration":705850,"SoundDuration":705850,"Delta":89927296},{"NoteNumber":62,"Velocity":46,"Duration":232973,"SoundDuration":232973,"Delta":90160270},{"NoteNumber":53,"Velocity":38,"Duration":232973,"SoundDuration":232973,"Delta":90160270},{"NoteNumber":57,"Velocity":38,"Duration":232973,"SoundDuration":232973,"Delta":90160270},{"NoteNumber":53,"Velocity":38,"Duration":239903,"SoundDuration":239903,"Delta":90393243},{"NoteNumber":57,"Velocity":38,"Duration":239903,"SoundDuration":239903,"Delta":90393243},{"NoteNumber":62,"Velocity":46,"Duration":239903,"SoundDuration":239903,"Delta":90393243},{"NoteNumber":82,"Velocity":70,"Duration":463678,"SoundDuration":463678,"Delta":90633147},{"NoteNumber":62,"Velocity":46,"Duration":231839,"SoundDuration":231839,"Delta":90633147},{"NoteNumber":53,"Velocity":38,"Duration":231839,"SoundDuration":231839,"Delta":90633147},{"NoteNumber":57,"Velocity":38,"Duration":231839,"SoundDuration":231839,"Delta":90633147},{"NoteNumber":62,"Velocity":45,"Duration":231839,"SoundDuration":231839,"Delta":90864987},{"NoteNumber":57,"Velocity":38,"Duration":231839,"SoundDuration":231839,"Delta":90864987},{"NoteNumber":53,"Velocity":38,"Duration":231839,"SoundDuration":231839,"Delta":90864987},{"NoteNumber":81,"Velocity":62,"Duration":249527,"SoundDuration":249527,"Delta":91096826},{"NoteNumber":69,"Velocity":57,"Duration":739190,"SoundDuration":739190,"Delta":91346354},{"NoteNumber":55,"Velocity":38,"Duration":241935,"SoundDuration":241935,"Delta":91588290},{"NoteNumber":61,"Velocity":38,"Duration":241935,"SoundDuration":241935,"Delta":91588290},{"NoteNumber":57,"Velocity":38,"Duration":241935,"SoundDuration":241935,"Delta":91588290},{"NoteNumber":52,"Velocity":31,"Duration":241935,"SoundDuration":241935,"Delta":91588290},{"NoteNumber":52,"Velocity":31,"Duration":255319,"SoundDuration":255319,"Delta":91830225},{"NoteNumber":61,"Velocity":37,"Duration":255319,"SoundDuration":255319,"Delta":91830225},{"NoteNumber":57,"Velocity":37,"Duration":255319,"SoundDuration":255319,"Delta":91830225},{"NoteNumber":55,"Velocity":31,"Duration":255319,"SoundDuration":255319,"Delta":91830225},{"NoteNumber":82,"Velocity":59,"Duration":485830,"SoundDuration":485830,"Delta":92085544},{"NoteNumber":52,"Velocity":31,"Duration":242914,"SoundDuration":242914,"Delta":92085544},{"NoteNumber":61,"Velocity":37,"Duration":242914,"SoundDuration":242914,"Delta":92085544},{"NoteNumber":57,"Velocity":37,"Duration":242914,"SoundDuration":242914,"Delta":92085544},{"NoteNumber":55,"Velocity":31,"Duration":242914,"SoundDuration":242914,"Delta":92085544},{"NoteNumber":52,"Velocity":30,"Duration":242915,"SoundDuration":242915,"Delta":92328459},{"NoteNumber":61,"Velocity":37,"Duration":242915,"SoundDuration":242915,"Delta":92328459},{"NoteNumber":57,"Velocity":37,"Duration":242915,"SoundDuration":242915,"Delta":92328459},{"NoteNumber":55,"Velocity":30,"Duration":242915,"SoundDuration":242915,"Delta":92328459},{"NoteNumber":81,"Velocity":54,"Duration":256410,"SoundDuration":256410,"Delta":92571374},{"NoteNumber":69,"Velocity":50,"Duration":1289911,"SoundDuration":1289911,"Delta":92827785},{"NoteNumber":62,"Velocity":35,"Duration":260869,"SoundDuration":260869,"Delta":93078831},{"NoteNumber":65,"Velocity":35,"Duration":260869,"SoundDuration":260869,"Delta":93078831},{"NoteNumber":57,"Velocity":33,"Duration":260869,"SoundDuration":260869,"Delta":93078831},{"NoteNumber":50,"Velocity":23,"Duration":260869,"SoundDuration":260869,"Delta":93078831},{"NoteNumber":65,"Velocity":31,"Duration":260869,"SoundDuration":260869,"Delta":93339700},{"NoteNumber":62,"Velocity":31,"Duration":260869,"SoundDuration":260869,"Delta":93339700},{"NoteNumber":50,"Velocity":21,"Duration":260869,"SoundDuration":260869,"Delta":93339700},{"NoteNumber":57,"Velocity":29,"Duration":260869,"SoundDuration":260869,"Delta":93339700},{"NoteNumber":62,"Velocity":31,"Duration":260869,"SoundDuration":260869,"Delta":93600570},{"NoteNumber":65,"Velocity":31,"Duration":260869,"SoundDuration":260869,"Delta":93600570},{"NoteNumber":50,"Velocity":21,"Duration":260869,"SoundDuration":260869,"Delta":93600570},{"NoteNumber":57,"Velocity":29,"Duration":260869,"SoundDuration":260869,"Delta":93600570},{"NoteNumber":65,"Velocity":31,"Duration":256257,"SoundDuration":256257,"Delta":93861439},{"NoteNumber":62,"Velocity":31,"Duration":256257,"SoundDuration":256257,"Delta":93861439},{"NoteNumber":57,"Velocity":29,"Duration":256257,"SoundDuration":256257,"Delta":93861439},{"NoteNumber":50,"Velocity":21,"Duration":256257,"SoundDuration":256257,"Delta":93861439},{"NoteNumber":53,"Velocity":52,"Duration":244898,"SoundDuration":244898,"Delta":94117696},{"NoteNumber":55,"Velocity":55,"Duration":705968,"SoundDuration":705968,"Delta":94362594},{"NoteNumber":48,"Velocity":31,"Duration":231660,"SoundDuration":231660,"Delta":94599748},{"NoteNumber":63,"Velocity":35,"Duration":231660,"SoundDuration":231660,"Delta":94599748},{"NoteNumber":65,"Velocity":35,"Duration":231660,"SoundDuration":231660,"Delta":94599748},{"NoteNumber":53,"Velocity":31,"Duration":231660,"SoundDuration":231660,"Delta":94599748},{"NoteNumber":53,"Velocity":28,"Duration":237154,"SoundDuration":237154,"Delta":94831408},{"NoteNumber":48,"Velocity":28,"Duration":237154,"SoundDuration":237154,"Delta":94831408},{"NoteNumber":65,"Velocity":32,"Duration":237154,"SoundDuration":237154,"Delta":94831408},{"NoteNumber":63,"Velocity":32,"Duration":237154,"SoundDuration":237154,"Delta":94831408},{"NoteNumber":57,"Velocity":56,"Duration":471602,"SoundDuration":471602,"Delta":95068562},{"NoteNumber":48,"Velocity":31,"Duration":232557,"SoundDuration":232557,"Delta":95068562},{"NoteNumber":63,"Velocity":35,"Duration":232557,"SoundDuration":232557,"Delta":95068562},{"NoteNumber":53,"Velocity":31,"Duration":232557,"SoundDuration":232557,"Delta":95068562},{"NoteNumber":65,"Velocity":35,"Duration":232557,"SoundDuration":232557,"Delta":95068562},{"NoteNumber":53,"Velocity":29,"Duration":239044,"SoundDuration":239044,"Delta":95301120},{"NoteNumber":48,"Velocity":29,"Duration":239044,"SoundDuration":239044,"Delta":95301120},{"NoteNumber":65,"Velocity":33,"Duration":239044,"SoundDuration":239044,"Delta":95301120},{"NoteNumber":63,"Velocity":33,"Duration":239044,"SoundDuration":239044,"Delta":95301120},{"NoteNumber":60,"Velocity":52,"Duration":239999,"SoundDuration":239999,"Delta":95540164},{"NoteNumber":55,"Velocity":59,"Duration":680154,"SoundDuration":680154,"Delta":95780164},{"NoteNumber":46,"Velocity":30,"Duration":223880,"SoundDuration":223880,"Delta":96008301},{"NoteNumber":58,"Velocity":36,"Duration":223880,"SoundDuration":223880,"Delta":96008301},{"NoteNumber":62,"Velocity":36,"Duration":223880,"SoundDuration":223880,"Delta":96008301},{"NoteNumber":46,"Velocity":30,"Duration":228137,"SoundDuration":228137,"Delta":96232182},{"NoteNumber":62,"Velocity":36,"Duration":228137,"SoundDuration":228137,"Delta":96232182},{"NoteNumber":58,"Velocity":36,"Duration":228137,"SoundDuration":228137,"Delta":96232182},{"NoteNumber":53,"Velocity":55,"Duration":456273,"SoundDuration":456273,"Delta":96460319},{"NoteNumber":58,"Velocity":36,"Duration":228136,"SoundDuration":228136,"Delta":96460319},{"NoteNumber":46,"Velocity":30,"Duration":228136,"SoundDuration":228136,"Delta":96460319},{"NoteNumber":62,"Velocity":36,"Duration":228136,"SoundDuration":228136,"Delta":96460319},{"NoteNumber":58,"Velocity":36,"Duration":228137,"SoundDuration":228137,"Delta":96688456},{"NoteNumber":62,"Velocity":36,"Duration":228137,"SoundDuration":228137,"Delta":96688456},{"NoteNumber":46,"Velocity":30,"Duration":228137,"SoundDuration":228137,"Delta":96688456},{"NoteNumber":55,"Velocity":57,"Duration":235756,"SoundDuration":235756,"Delta":96916593},{"NoteNumber":57,"Velocity":60,"Duration":683632,"SoundDuration":683632,"Delta":97152349},{"NoteNumber":55,"Velocity":33,"Duration":223048,"SoundDuration":223048,"Delta":97378522},{"NoteNumber":65,"Velocity":33,"Duration":223048,"SoundDuration":223048,"Delta":97378522},{"NoteNumber":67,"Velocity":40,"Duration":223048,"SoundDuration":223048,"Delta":97378522},{"NoteNumber":50,"Velocity":33,"Duration":223048,"SoundDuration":223048,"Delta":97378522},{"NoteNumber":55,"Velocity":34,"Duration":234411,"SoundDuration":234411,"Delta":97601570},{"NoteNumber":50,"Velocity":34,"Duration":234411,"SoundDuration":234411,"Delta":97601570},{"NoteNumber":67,"Velocity":40,"Duration":234411,"SoundDuration":234411,"Delta":97601570},{"NoteNumber":65,"Velocity":34,"Duration":234411,"SoundDuration":234411,"Delta":97601570},{"NoteNumber":59,"Velocity":66,"Duration":448612,"SoundDuration":448612,"Delta":97835982},{"NoteNumber":50,"Velocity":37,"Duration":225564,"SoundDuration":225564,"Delta":97835982},{"NoteNumber":65,"Velocity":37,"Duration":225564,"SoundDuration":225564,"Delta":97835982},{"NoteNumber":67,"Velocity":45,"Duration":225564,"SoundDuration":225564,"Delta":97835982},{"NoteNumber":55,"Velocity":37,"Duration":225564,"SoundDuration":225564,"Delta":97835982},{"NoteNumber":55,"Velocity":38,"Duration":223048,"SoundDuration":223048,"Delta":98061546},{"NoteNumber":50,"Velocity":38,"Duration":223048,"SoundDuration":223048,"Delta":98061546},{"NoteNumber":67,"Velocity":46,"Duration":223048,"SoundDuration":223048,"Delta":98061546},{"NoteNumber":65,"Velocity":38,"Duration":223048,"SoundDuration":223048,"Delta":98061546},{"NoteNumber":62,"Velocity":63,"Duration":237135,"SoundDuration":237135,"Delta":98284594},{"NoteNumber":56,"Velocity":75,"Duration":684410,"SoundDuration":684410,"Delta":98521730},{"NoteNumber":48,"Velocity":44,"Duration":228136,"SoundDuration":228136,"Delta":98749867},{"NoteNumber":63,"Velocity":55,"Duration":228136,"SoundDuration":228136,"Delta":98749867},{"NoteNumber":60,"Velocity":44,"Duration":228136,"SoundDuration":228136,"Delta":98749867},{"NoteNumber":48,"Velocity":45,"Duration":228137,"SoundDuration":228137,"Delta":98978004},{"NoteNumber":63,"Velocity":56,"Duration":228137,"SoundDuration":228137,"Delta":98978004},{"NoteNumber":60,"Velocity":45,"Duration":228137,"SoundDuration":228137,"Delta":98978004},{"NoteNumber":55,"Velocity":75,"Duration":456274,"SoundDuration":456274,"Delta":99206141},{"NoteNumber":60,"Velocity":45,"Duration":228137,"SoundDuration":228137,"Delta":99206141},{"NoteNumber":48,"Velocity":45,"Duration":228137,"SoundDuration":228137,"Delta":99206141},{"NoteNumber":63,"Velocity":57,"Duration":228137,"SoundDuration":228137,"Delta":99206141},{"NoteNumber":60,"Velocity":42,"Duration":218631,"SoundDuration":218631,"Delta":99434278},{"NoteNumber":63,"Velocity":53,"Duration":218631,"SoundDuration":218631,"Delta":99434278},{"NoteNumber":48,"Velocity":42,"Duration":218631,"SoundDuration":218631,"Delta":99434278},{"NoteNumber":60,"Velocity":79,"Duration":254237,"SoundDuration":254237,"Delta":99662415},{"NoteNumber":61,"Velocity":84,"Duration":1433185,"SoundDuration":1433185,"Delta":99916652},{"NoteNumber":58,"Velocity":63,"Duration":235293,"SoundDuration":235293,"Delta":100147421},{"NoteNumber":64,"Velocity":63,"Duration":235293,"SoundDuration":235293,"Delta":100147421},{"NoteNumber":55,"Velocity":50,"Duration":235293,"SoundDuration":235293,"Delta":100147421},{"NoteNumber":58,"Velocity":51,"Duration":246913,"SoundDuration":246913,"Delta":100382715},{"NoteNumber":55,"Velocity":44,"Duration":246913,"SoundDuration":246913,"Delta":100382715},{"NoteNumber":64,"Velocity":51,"Duration":246913,"SoundDuration":246913,"Delta":100382715},{"NoteNumber":72,"Velocity":79,"Duration":474307,"SoundDuration":474307,"Delta":100629629},{"NoteNumber":55,"Velocity":47,"Duration":237154,"SoundDuration":237154,"Delta":100629629},{"NoteNumber":64,"Velocity":57,"Duration":237154,"SoundDuration":237154,"Delta":100629629},{"NoteNumber":58,"Velocity":57,"Duration":237154,"SoundDuration":237154,"Delta":100629629},{"NoteNumber":58,"Velocity":57,"Duration":237153,"SoundDuration":237153,"Delta":100866783},{"NoteNumber":55,"Velocity":47,"Duration":237153,"SoundDuration":237153,"Delta":100866783},{"NoteNumber":64,"Velocity":57,"Duration":237153,"SoundDuration":237153,"Delta":100866783},{"NoteNumber":70,"Velocity":73,"Duration":245901,"SoundDuration":245901,"Delta":101103937},{"NoteNumber":62,"Velocity":81,"Duration":1432051,"SoundDuration":1432051,"Delta":101349838},{"NoteNumber":65,"Velocity":50,"Duration":235294,"SoundDuration":235294,"Delta":101585132},{"NoteNumber":53,"Velocity":42,"Duration":235294,"SoundDuration":235294,"Delta":101585132},{"NoteNumber":58,"Velocity":42,"Duration":235294,"SoundDuration":235294,"Delta":101585132},{"NoteNumber":53,"Velocity":42,"Duration":245901,"SoundDuration":245901,"Delta":101820426},{"NoteNumber":58,"Velocity":42,"Duration":245901,"SoundDuration":245901,"Delta":101820426},{"NoteNumber":65,"Velocity":50,"Duration":245901,"SoundDuration":245901,"Delta":101820426},{"NoteNumber":69,"Velocity":76,"Duration":474307,"SoundDuration":474307,"Delta":102066328},{"NoteNumber":65,"Velocity":50,"Duration":237154,"SoundDuration":237154,"Delta":102066328},{"NoteNumber":53,"Velocity":42,"Duration":237154,"SoundDuration":237154,"Delta":102066328},{"NoteNumber":58,"Velocity":42,"Duration":237154,"SoundDuration":237154,"Delta":102066328},{"NoteNumber":53,"Velocity":42,"Duration":237153,"SoundDuration":237153,"Delta":102303482},{"NoteNumber":58,"Velocity":42,"Duration":237153,"SoundDuration":237153,"Delta":102303482},{"NoteNumber":65,"Velocity":50,"Duration":237153,"SoundDuration":237153,"Delta":102303482},{"NoteNumber":67,"Velocity":69,"Duration":241254,"SoundDuration":241254,"Delta":102540636},{"NoteNumber":56,"Velocity":64,"Duration":474271,"SoundDuration":474271,"Delta":102781890},{"NoteNumber":48,"Velocity":42,"Duration":237135,"SoundDuration":237135,"Delta":103019026},{"NoteNumber":51,"Velocity":42,"Duration":237135,"SoundDuration":237135,"Delta":103019026},{"NoteNumber":57,"Velocity":58,"Duration":256410,"SoundDuration":256410,"Delta":103256161},{"NoteNumber":48,"Velocity":34,"Duration":256410,"SoundDuration":256410,"Delta":103256161},{"NoteNumber":51,"Velocity":41,"Duration":256410,"SoundDuration":256410,"Delta":103256161},{"NoteNumber":62,"Velocity":63,"Duration":476190,"SoundDuration":476190,"Delta":103512572},{"NoteNumber":51,"Velocity":40,"Duration":238095,"SoundDuration":238095,"Delta":103750667},{"NoteNumber":41,"Velocity":33,"Duration":238095,"SoundDuration":238095,"Delta":103750667},{"NoteNumber":57,"Velocity":40,"Duration":236110,"SoundDuration":236110,"Delta":103750667},{"NoteNumber":53,"Velocity":40,"Duration":238095,"SoundDuration":238095,"Delta":103750667},{"NoteNumber":57,"Velocity":57,"Duration":252100,"SoundDuration":252100,"Delta":103988762},{"NoteNumber":51,"Velocity":39,"Duration":252100,"SoundDuration":252100,"Delta":103988762},{"NoteNumber":41,"Velocity":32,"Duration":252100,"SoundDuration":252100,"Delta":103988762},{"NoteNumber":53,"Velocity":39,"Duration":252100,"SoundDuration":252100,"Delta":103988762},{"NoteNumber":60,"Velocity":53,"Duration":763942,"SoundDuration":763942,"Delta":104240863},{"NoteNumber":57,"Velocity":37,"Duration":252100,"SoundDuration":252100,"Delta":104492964},{"NoteNumber":54,"Velocity":37,"Duration":252100,"SoundDuration":252100,"Delta":104492964},{"NoteNumber":46,"Velocity":34,"Duration":252100,"SoundDuration":252100,"Delta":104492964},{"NoteNumber":51,"Velocity":37,"Duration":252100,"SoundDuration":252100,"Delta":104492964},{"NoteNumber":57,"Velocity":32,"Duration":259740,"SoundDuration":259740,"Delta":104745065},{"NoteNumber":51,"Velocity":32,"Duration":259740,"SoundDuration":259740,"Delta":104745065},{"NoteNumber":46,"Velocity":29,"Duration":259740,"SoundDuration":259740,"Delta":104745065},{"NoteNumber":54,"Velocity":32,"Duration":259740,"SoundDuration":259740,"Delta":104745065},{"NoteNumber":58,"Velocity":46,"Duration":533332,"SoundDuration":533332,"Delta":105004805},{"NoteNumber":51,"Velocity":32,"Duration":266666,"SoundDuration":266666,"Delta":105004805},{"NoteNumber":46,"Velocity":29,"Duration":533332,"SoundDuration":533332,"Delta":105004805},{"NoteNumber":53,"Velocity":29,"Duration":533332,"SoundDuration":533332,"Delta":105004805},{"NoteNumber":49,"Velocity":32,"Duration":266666,"SoundDuration":266666,"Delta":105271472},{"NoteNumber":50,"Velocity":32,"Duration":288461,"SoundDuration":288461,"Delta":105538138},{"NoteNumber":68,"Velocity":45,"Duration":479540,"SoundDuration":479540,"Delta":105826600},{"NoteNumber":63,"Velocity":30,"Duration":179827,"SoundDuration":179827,"Delta":106066370},{"NoteNumber":54,"Velocity":27,"Duration":179827,"SoundDuration":179827,"Delta":106066370},{"NoteNumber":60,"Velocity":27,"Duration":179827,"SoundDuration":179827,"Delta":106066370},{"NoteNumber":69,"Velocity":39,"Duration":248282,"SoundDuration":248282,"Delta":106306140},{"NoteNumber":60,"Velocity":24,"Duration":186211,"SoundDuration":186211,"Delta":106306140},{"NoteNumber":54,"Velocity":24,"Duration":186211,"SoundDuration":186211,"Delta":106306140},{"NoteNumber":63,"Velocity":27,"Duration":186211,"SoundDuration":186211,"Delta":106306140},{"NoteNumber":74,"Velocity":45,"Duration":481579,"SoundDuration":481579,"Delta":106554422},{"NoteNumber":54,"Velocity":27,"Duration":180592,"SoundDuration":180592,"Delta":106554422},{"NoteNumber":60,"Velocity":27,"Duration":180592,"SoundDuration":180592,"Delta":106554422},{"NoteNumber":62,"Velocity":31,"Duration":180592,"SoundDuration":180592,"Delta":106554422},{"NoteNumber":62,"Velocity":28,"Duration":180592,"SoundDuration":180592,"Delta":106795212},{"NoteNumber":60,"Velocity":25,"Duration":180592,"SoundDuration":180592,"Delta":106795212},{"NoteNumber":54,"Velocity":25,"Duration":180592,"SoundDuration":180592,"Delta":106795212},{"NoteNumber":69,"Velocity":39,"Duration":255101,"SoundDuration":255101,"Delta":107036002},{"NoteNumber":72,"Velocity":45,"Duration":727822,"SoundDuration":727822,"Delta":107291104},{"NoteNumber":55,"Velocity":27,"Duration":179827,"SoundDuration":179827,"Delta":107530874},{"NoteNumber":58,"Velocity":27,"Duration":179827,"SoundDuration":179827,"Delta":107530874},{"NoteNumber":62,"Velocity":30,"Duration":179827,"SoundDuration":179827,"Delta":107530874},{"NoteNumber":55,"Velocity":24,"Duration":186211,"SoundDuration":186211,"Delta":107770644},{"NoteNumber":62,"Velocity":27,"Duration":186211,"SoundDuration":186211,"Delta":107770644},{"NoteNumber":58,"Velocity":24,"Duration":186211,"SoundDuration":186211,"Delta":107770644},{"NoteNumber":70,"Velocity":45,"Duration":736681,"SoundDuration":736681,"Delta":108018927},{"NoteNumber":55,"Velocity":27,"Duration":180592,"SoundDuration":180592,"Delta":108259717},{"NoteNumber":63,"Velocity":31,"Duration":180592,"SoundDuration":180592,"Delta":108259717},{"NoteNumber":58,"Velocity":27,"Duration":180592,"SoundDuration":180592,"Delta":108259717},{"NoteNumber":58,"Velocity":25,"Duration":191326,"SoundDuration":191326,"Delta":108500507},{"NoteNumber":63,"Velocity":28,"Duration":191326,"SoundDuration":191326,"Delta":108500507},{"NoteNumber":55,"Velocity":25,"Duration":191326,"SoundDuration":191326,"Delta":108500507},{"NoteNumber":61,"Velocity":50,"Duration":745137,"SoundDuration":745137,"Delta":108755609},{"NoteNumber":64,"Velocity":30,"Duration":183763,"SoundDuration":183763,"Delta":109000627},{"NoteNumber":58,"Velocity":27,"Duration":183763,"SoundDuration":183763,"Delta":109000627},{"NoteNumber":54,"Velocity":27,"Duration":183763,"SoundDuration":183763,"Delta":109000627},{"NoteNumber":58,"Velocity":24,"Duration":191326,"SoundDuration":191326,"Delta":109245645},{"NoteNumber":54,"Velocity":24,"Duration":191326,"SoundDuration":191326,"Delta":109245645},{"NoteNumber":64,"Velocity":27,"Duration":191326,"SoundDuration":191326,"Delta":109245645},{"NoteNumber":62,"Velocity":47,"Duration":757925,"SoundDuration":757925,"Delta":109500747},{"NoteNumber":58,"Velocity":27,"Duration":185398,"SoundDuration":185398,"Delta":109747945},{"NoteNumber":53,"Velocity":27,"Duration":185398,"SoundDuration":185398,"Delta":109747945},{"NoteNumber":65,"Velocity":31,"Duration":185398,"SoundDuration":185398,"Delta":109747945},{"NoteNumber":58,"Velocity":25,"Duration":197646,"SoundDuration":197646,"Delta":109995144},{"NoteNumber":53,"Velocity":25,"Duration":197646,"SoundDuration":197646,"Delta":109995144},{"NoteNumber":65,"Velocity":28,"Duration":197646,"SoundDuration":197646,"Delta":109995144},{"NoteNumber":57,"Velocity":44,"Duration":768097,"SoundDuration":768097,"Delta":110258672},{"NoteNumber":54,"Velocity":27,"Duration":264784,"SoundDuration":264784,"Delta":110761985},{"NoteNumber":51,"Velocity":27,"Duration":264784,"SoundDuration":264784,"Delta":110761985},{"NoteNumber":58,"Velocity":36,"Duration":779365,"SoundDuration":779365,"Delta":111026769},{"NoteNumber":50,"Velocity":20,"Duration":271493,"SoundDuration":271493,"Delta":111534641},{"NoteNumber":53,"Velocity":26,"Duration":271493,"SoundDuration":271493,"Delta":111534641},{"NoteNumber":46,"Velocity":20,"Duration":271493,"SoundDuration":271493,"Delta":111534641},{"NoteNumber":80,"Velocity":51,"Duration":487924,"SoundDuration":487924,"Delta":111806134},{"NoteNumber":75,"Velocity":27,"Duration":182971,"SoundDuration":182971,"Delta":112050096},{"NoteNumber":72,"Velocity":24,"Duration":182971,"SoundDuration":182971,"Delta":112050096},{"NoteNumber":66,"Velocity":24,"Duration":182971,"SoundDuration":182971,"Delta":112050096},{"NoteNumber":81,"Velocity":44,"Duration":251656,"SoundDuration":251656,"Delta":112294058},{"NoteNumber":72,"Velocity":21,"Duration":188742,"SoundDuration":188742,"Delta":112294058},{"NoteNumber":66,"Velocity":21,"Duration":188742,"SoundDuration":188742,"Delta":112294058},{"NoteNumber":75,"Velocity":24,"Duration":188742,"SoundDuration":188742,"Delta":112294058},{"NoteNumber":86,"Velocity":51,"Duration":490036,"SoundDuration":490036,"Delta":112545714},{"NoteNumber":66,"Velocity":24,"Duration":183763,"SoundDuration":183763,"Delta":112790732},{"NoteNumber":74,"Velocity":27,"Duration":183763,"SoundDuration":183763,"Delta":112790732},{"NoteNumber":72,"Velocity":24,"Duration":183763,"SoundDuration":183763,"Delta":112790732},{"NoteNumber":81,"Velocity":44,"Duration":255101,"SoundDuration":255101,"Delta":113035750},{"NoteNumber":72,"Velocity":22,"Duration":191326,"SoundDuration":191326,"Delta":113035750},{"NoteNumber":74,"Velocity":25,"Duration":191326,"SoundDuration":191326,"Delta":113035750},{"NoteNumber":66,"Velocity":22,"Duration":191326,"SoundDuration":191326,"Delta":113035750},{"NoteNumber":84,"Velocity":51,"Duration":745716,"SoundDuration":745716,"Delta":113290852},{"NoteNumber":74,"Velocity":27,"Duration":182186,"SoundDuration":182186,"Delta":113540852},{"NoteNumber":70,"Velocity":24,"Duration":182186,"SoundDuration":182186,"Delta":113540852},{"NoteNumber":67,"Velocity":24,"Duration":182186,"SoundDuration":182186,"Delta":113540852},{"NoteNumber":70,"Velocity":21,"Duration":189601,"SoundDuration":189601,"Delta":113783767},{"NoteNumber":67,"Velocity":21,"Duration":189601,"SoundDuration":189601,"Delta":113783767},{"NoteNumber":74,"Velocity":24,"Duration":189601,"SoundDuration":189601,"Delta":113783767},{"NoteNumber":82,"Velocity":51,"Duration":745137,"SoundDuration":745137,"Delta":114036569},{"NoteNumber":70,"Velocity":24,"Duration":183763,"SoundDuration":183763,"Delta":114281587},{"NoteNumber":67,"Velocity":24,"Duration":183763,"SoundDuration":183763,"Delta":114281587},{"NoteNumber":75,"Velocity":27,"Duration":183763,"SoundDuration":183763,"Delta":114281587},{"NoteNumber":70,"Velocity":22,"Duration":191326,"SoundDuration":191326,"Delta":114526605},{"NoteNumber":67,"Velocity":22,"Duration":191326,"SoundDuration":191326,"Delta":114526605},{"NoteNumber":75,"Velocity":25,"Duration":191326,"SoundDuration":191326,"Delta":114526605},{"NoteNumber":73,"Velocity":57,"Duration":758665,"SoundDuration":758665,"Delta":114781707},{"NoteNumber":76,"Velocity":27,"Duration":187063,"SoundDuration":187063,"Delta":115031125},{"NoteNumber":66,"Velocity":24,"Duration":187063,"SoundDuration":187063,"Delta":115031125},{"NoteNumber":70,"Velocity":24,"Duration":187063,"SoundDuration":187063,"Delta":115031125},{"NoteNumber":66,"Velocity":21,"Duration":194872,"SoundDuration":194872,"Delta":115280543},{"NoteNumber":76,"Velocity":24,"Duration":194872,"SoundDuration":194872,"Delta":115280543},{"NoteNumber":70,"Velocity":21,"Duration":194872,"SoundDuration":194872,"Delta":115280543},{"NoteNumber":74,"Velocity":54,"Duration":766840,"SoundDuration":766840,"Delta":115540373},{"NoteNumber":65,"Velocity":24,"Duration":188742,"SoundDuration":188742,"Delta":115792030},{"NoteNumber":77,"Velocity":27,"Duration":188742,"SoundDuration":188742,"Delta":115792030},{"NoteNumber":70,"Velocity":24,"Duration":188742,"SoundDuration":188742,"Delta":115792030},{"NoteNumber":65,"Velocity":22,"Duration":197646,"SoundDuration":197646,"Delta":116043686},{"NoteNumber":77,"Velocity":25,"Duration":197646,"SoundDuration":197646,"Delta":116043686},{"NoteNumber":70,"Velocity":22,"Duration":197646,"SoundDuration":197646,"Delta":116043686},{"NoteNumber":69,"Velocity":44,"Duration":777298,"SoundDuration":777298,"Delta":116307214},{"NoteNumber":63,"Velocity":24,"Duration":264784,"SoundDuration":264784,"Delta":116819728},{"NoteNumber":66,"Velocity":24,"Duration":264784,"SoundDuration":264784,"Delta":116819728},{"NoteNumber":70,"Velocity":36,"Duration":777216,"SoundDuration":777216,"Delta":117084512},{"NoteNumber":62,"Velocity":18,"Duration":262283,"SoundDuration":262283,"Delta":117599445},{"NoteNumber":58,"Velocity":18,"Duration":262283,"SoundDuration":262283,"Delta":117599445},{"NoteNumber":65,"Velocity":23,"Duration":262283,"SoundDuration":262283,"Delta":117599445},{"NoteNumber":69,"Velocity":44,"Duration":777298,"SoundDuration":777298,"Delta":117861729},{"NoteNumber":66,"Velocity":24,"Duration":264784,"SoundDuration":264784,"Delta":118374243},{"NoteNumber":63,"Velocity":24,"Duration":264784,"SoundDuration":264784,"Delta":118374243},{"NoteNumber":70,"Velocity":36,"Duration":782240,"SoundDuration":782240,"Delta":118639027},{"NoteNumber":62,"Velocity":18,"Duration":267307,"SoundDuration":267307,"Delta":119153960},{"NoteNumber":65,"Velocity":23,"Duration":267307,"SoundDuration":267307,"Delta":119153960},{"NoteNumber":58,"Velocity":18,"Duration":267307,"SoundDuration":267307,"Delta":119153960},{"NoteNumber":69,"Velocity":44,"Duration":793346,"SoundDuration":793346,"Delta":119421268},{"NoteNumber":66,"Velocity":24,"Duration":271198,"SoundDuration":271198,"Delta":119943416},{"NoteNumber":63,"Velocity":24,"Duration":271198,"SoundDuration":271198,"Delta":119943416},{"NoteNumber":70,"Velocity":36,"Duration":836742,"SoundDuration":836742,"Delta":120214614},{"NoteNumber":58,"Velocity":18,"Duration":312174,"SoundDuration":312174,"Delta":120739181},{"NoteNumber":65,"Velocity":23,"Duration":312174,"SoundDuration":312174,"Delta":120739181},{"NoteNumber":62,"Velocity":18,"Duration":312174,"SoundDuration":312174,"Delta":120739181},{"NoteNumber":69,"Velocity":44,"Duration":1165324,"SoundDuration":1165324,"Delta":121037048},{"NoteNumber":66,"Velocity":24,"Duration":924776,"SoundDuration":924776,"Delta":121929025},{"NoteNumber":63,"Velocity":24,"Duration":924776,"SoundDuration":924776,"Delta":121929025},{"NoteNumber":68,"Velocity":39,"Duration":159574,"SoundDuration":159574,"Delta":122215503},{"NoteNumber":69,"Velocity":33,"Duration":159574,"SoundDuration":159574,"Delta":122375078},{"NoteNumber":70,"Velocity":37,"Duration":159574,"SoundDuration":159574,"Delta":122534652},{"NoteNumber":69,"Velocity":31,"Duration":159574,"SoundDuration":159574,"Delta":122694227},{"NoteNumber":74,"Velocity":42,"Duration":769231,"SoundDuration":769231,"Delta":122853801},{"NoteNumber":72,"Velocity":38,"Duration":544464,"SoundDuration":544464,"Delta":123623032},{"NoteNumber":70,"Velocity":34,"Duration":1549053,"SoundDuration":1549053,"Delta":124167497},{"NoteNumber":62,"Velocity":23,"Duration":1549053,"SoundDuration":1549053,"Delta":124167497},{"NoteNumber":65,"Velocity":28,"Duration":1549053,"SoundDuration":1549053,"Delta":124167497},{"NoteNumber":53,"Velocity":22,"Duration":1549053,"SoundDuration":1549053,"Delta":124167497},{"NoteNumber":46,"Velocity":18,"Duration":1549053,"SoundDuration":1549053,"Delta":124167497}],"license":{"name":"Creative Commons Attribution-ShareAlike 3.0 Germany","url":"http://creativecommons.org/licenses/by-sa/3.0/de/deed.en","text":"The MIDI, audio (MP3, OGG) and video files of Bernd Krueger are licensed under the cc-by-sa Germany License. This means that you can use and adapt the files, as long as you attribute the copyright holder.\n\nName: Bernd Krueger\nSource: http://www.piano-midi.de\n\nThe distribution or public playback of the files is only allowed under identical license conditions.\n\nThe scores are open source.","attribution":"MIDI files by Bernd Krueger (piano-midi.de)","attributionUrl":"http://www.piano-midi.de"}}