{"title":"August","artist":"Tchaikovsky","durationMs":188819,"midiSha256":"ed25c60eb4a5e2019ec5bce1be4526b73b5a190e465f3e5862333a12bf1c0b3b","midiObject":[{"NoteNumber":66,"Velocity":45,"Duration":149253,"SoundDuration":149253,"Delta":0},{"NoteNumber":71,"Velocity":49,"Duration":149253,"SoundDuration":149253,"Delta":0},{"NoteNumber":62,"Velocity":45,"Duration":149253,"SoundDuration":149253,"Delta":0},{"NoteNumber":65,"Velocity":46,"Duration":149253,"SoundDuration":149253,"Delta":149253},{"NoteNumber":61,"Velocity":43,"Duration":149253,"SoundDuration":149253,"Delta":149253},{"NoteNumber":66,"Velocity":45,"Duration":299252,"SoundDuration":299252,"Delta":298507},{"NoteNumber":71,"Velocity":49,"Duration":299252,"SoundDuration":299252,"Delta":298507},{"NoteNumber":62,"Velocity":45,"Duration":299252,"SoundDuration":299252,"Delta":298507},{"NoteNumber":47,"Velocity":38,"Duration":149626,"SoundDuration":149626,"Delta":448133},{"NoteNumber":64,"Velocity":45,"Duration":152655,"SoundDuration":152655,"Delta":597759},{"NoteNumber":70,"Velocity":49,"Duration":152655,"SoundDuration":152655,"Delta":597759},{"NoteNumber":61,"Velocity":43,"Duration":152655,"SoundDuration":152655,"Delta":597759},{"NoteNumber":47,"Velocity":37,"Duration":152088,"SoundDuration":152088,"Delta":750415},{"NoteNumber":62,"Velocity":45,"Duration":149626,"SoundDuration":149626,"Delta":902503},{"NoteNumber":67,"Velocity":49,"Duration":149626,"SoundDuration":149626,"Delta":902503},{"NoteNumber":59,"Velocity":44,"Duration":149626,"SoundDuration":149626,"Delta":902503},{"NoteNumber":61,"Velocity":45,"Duration":149626,"SoundDuration":149626,"Delta":1052129},{"NoteNumber":58,"Velocity":42,"Duration":149626,"SoundDuration":149626,"Delta":1052129},{"NoteNumber":67,"Velocity":49,"Duration":300751,"SoundDuration":300751,"Delta":1201755},{"NoteNumber":62,"Velocity":45,"Duration":300751,"SoundDuration":300751,"Delta":1201755},{"NoteNumber":59,"Velocity":45,"Duration":300751,"SoundDuration":300751,"Delta":1201755},{"NoteNumber":47,"Velocity":39,"Duration":150375,"SoundDuration":150375,"Delta":1352131},{"NoteNumber":61,"Velocity":44,"Duration":153452,"SoundDuration":153452,"Delta":1502507},{"NoteNumber":66,"Velocity":47,"Duration":153452,"SoundDuration":153452,"Delta":1502507},{"NoteNumber":58,"Velocity":44,"Duration":153452,"SoundDuration":153452,"Delta":1502507},{"NoteNumber":47,"Velocity":38,"Duration":153452,"SoundDuration":153452,"Delta":1655960},{"NoteNumber":60,"Velocity":45,"Duration":149626,"SoundDuration":149626,"Delta":1809412},{"NoteNumber":66,"Velocity":49,"Duration":149626,"SoundDuration":149626,"Delta":1809412},{"NoteNumber":57,"Velocity":44,"Duration":149626,"SoundDuration":149626,"Delta":1809412},{"NoteNumber":59,"Velocity":46,"Duration":149626,"SoundDuration":149626,"Delta":1959038},{"NoteNumber":56,"Velocity":41,"Duration":149626,"SoundDuration":149626,"Delta":1959038},{"NoteNumber":60,"Velocity":45,"Duration":301508,"SoundDuration":301508,"Delta":2108664},{"NoteNumber":66,"Velocity":49,"Duration":301508,"SoundDuration":301508,"Delta":2108664},{"NoteNumber":57,"Velocity":45,"Duration":301508,"SoundDuration":301508,"Delta":2108664},{"NoteNumber":47,"Velocity":38,"Duration":150754,"SoundDuration":150754,"Delta":2259418},{"NoteNumber":64,"Velocity":46,"Duration":149917,"SoundDuration":149917,"Delta":2410172},{"NoteNumber":59,"Velocity":43,"Duration":149917,"SoundDuration":149917,"Delta":2410172},{"NoteNumber":56,"Velocity":44,"Duration":149917,"SoundDuration":149917,"Delta":2410172},{"NoteNumber":47,"Velocity":35,"Duration":149917,"SoundDuration":149917,"Delta":2560090},{"NoteNumber":64,"Velocity":49,"Duration":151079,"SoundDuration":151079,"Delta":2710007},{"NoteNumber":58,"Velocity":45,"Duration":151079,"SoundDuration":151079,"Delta":2710007},{"NoteNumber":55,"Velocity":45,"Duration":151079,"SoundDuration":151079,"Delta":2710007},{"NoteNumber":47,"Velocity":43,"Duration":151080,"SoundDuration":151080,"Delta":2861087},{"NoteNumber":58,"Velocity":47,"Duration":151079,"SoundDuration":151079,"Delta":3012167},{"NoteNumber":62,"Velocity":52,"Duration":151079,"SoundDuration":151079,"Delta":3012167},{"NoteNumber":54,"Velocity":49,"Duration":151079,"SoundDuration":151079,"Delta":3012167},{"NoteNumber":47,"Velocity":50,"Duration":151079,"SoundDuration":151079,"Delta":3163247},{"NoteNumber":58,"Velocity":45,"Duration":151080,"SoundDuration":151080,"Delta":3314327},{"NoteNumber":61,"Velocity":50,"Duration":151080,"SoundDuration":151080,"Delta":3314327},{"NoteNumber":52,"Velocity":47,"Duration":151080,"SoundDuration":151080,"Delta":3314327},{"NoteNumber":59,"Velocity":47,"Duration":151860,"SoundDuration":151860,"Delta":3465407},{"NoteNumber":47,"Velocity":44,"Duration":151860,"SoundDuration":151860,"Delta":3465407},{"NoteNumber":50,"Velocity":44,"Duration":151860,"SoundDuration":151860,"Delta":3465407},{"NoteNumber":53,"Velocity":52,"Duration":74958,"SoundDuration":74958,"Delta":3617268},{"NoteNumber":54,"Velocity":54,"Duration":77128,"SoundDuration":77128,"Delta":3767185},{"NoteNumber":55,"Velocity":59,"Duration":453240,"SoundDuration":453240,"Delta":3921443},{"NoteNumber":62,"Velocity":47,"Duration":75540,"SoundDuration":75540,"Delta":4072523},{"NoteNumber":74,"Velocity":47,"Duration":75540,"SoundDuration":75540,"Delta":4072523},{"NoteNumber":71,"Velocity":47,"Duration":75540,"SoundDuration":75540,"Delta":4072523},{"NoteNumber":74,"Velocity":49,"Duration":75539,"SoundDuration":75539,"Delta":4223603},{"NoteNumber":71,"Velocity":49,"Duration":75539,"SoundDuration":75539,"Delta":4223603},{"NoteNumber":64,"Velocity":49,"Duration":75539,"SoundDuration":75539,"Delta":4223603},{"NoteNumber":74,"Velocity":46,"Duration":75930,"SoundDuration":75930,"Delta":4374683},{"NoteNumber":71,"Velocity":46,"Duration":75930,"SoundDuration":75930,"Delta":4374683},{"NoteNumber":65,"Velocity":46,"Duration":75930,"SoundDuration":75930,"Delta":4374683},{"NoteNumber":43,"Velocity":49,"Duration":151860,"SoundDuration":151860,"Delta":4374683},{"NoteNumber":45,"Velocity":51,"Duration":75540,"SoundDuration":75540,"Delta":4526543},{"NoteNumber":43,"Velocity":49,"Duration":75539,"SoundDuration":75539,"Delta":4677623},{"NoteNumber":42,"Velocity":51,"Duration":454801,"SoundDuration":454801,"Delta":4828703},{"NoteNumber":56,"Velocity":45,"Duration":75930,"SoundDuration":75930,"Delta":4979783},{"NoteNumber":66,"Velocity":45,"Duration":75930,"SoundDuration":75930,"Delta":4979783},{"NoteNumber":59,"Velocity":45,"Duration":75930,"SoundDuration":75930,"Delta":4979783},{"NoteNumber":61,"Velocity":46,"Duration":75930,"SoundDuration":75930,"Delta":5131644},{"NoteNumber":58,"Velocity":46,"Duration":75930,"SoundDuration":75930,"Delta":5131644},{"NoteNumber":64,"Velocity":46,"Duration":75930,"SoundDuration":75930,"Delta":5131644},{"NoteNumber":59,"Velocity":46,"Duration":76126,"SoundDuration":76126,"Delta":5283504},{"NoteNumber":62,"Velocity":46,"Duration":76126,"SoundDuration":76126,"Delta":5283504},{"NoteNumber":47,"Velocity":48,"Duration":152253,"SoundDuration":152253,"Delta":5283504},{"NoteNumber":53,"Velocity":51,"Duration":74958,"SoundDuration":74958,"Delta":5435758},{"NoteNumber":54,"Velocity":54,"Duration":74958,"SoundDuration":74958,"Delta":5585675},{"NoteNumber":55,"Velocity":58,"Duration":454020,"SoundDuration":454020,"Delta":5735593},{"NoteNumber":74,"Velocity":47,"Duration":75540,"SoundDuration":75540,"Delta":5887453},{"NoteNumber":71,"Velocity":47,"Duration":75540,"SoundDuration":75540,"Delta":5887453},{"NoteNumber":62,"Velocity":47,"Duration":75540,"SoundDuration":75540,"Delta":5887453},{"NoteNumber":74,"Velocity":49,"Duration":75539,"SoundDuration":75539,"Delta":6038533},{"NoteNumber":64,"Velocity":49,"Duration":75539,"SoundDuration":75539,"Delta":6038533},{"NoteNumber":71,"Velocity":49,"Duration":75539,"SoundDuration":75539,"Delta":6038533},{"NoteNumber":65,"Velocity":45,"Duration":76328,"SoundDuration":76328,"Delta":6189613},{"NoteNumber":71,"Velocity":45,"Duration":76328,"SoundDuration":76328,"Delta":6189613},{"NoteNumber":74,"Velocity":45,"Duration":76328,"SoundDuration":76328,"Delta":6189613},{"NoteNumber":43,"Velocity":49,"Duration":152656,"SoundDuration":152656,"Delta":6189613},{"NoteNumber":45,"Velocity":51,"Duration":75540,"SoundDuration":75540,"Delta":6342269},{"NoteNumber":43,"Velocity":49,"Duration":75539,"SoundDuration":75539,"Delta":6493349},{"NoteNumber":42,"Velocity":49,"Duration":454801,"SoundDuration":454801,"Delta":6644429},{"NoteNumber":66,"Velocity":47,"Duration":75930,"SoundDuration":75930,"Delta":6795509},{"NoteNumber":59,"Velocity":47,"Duration":75930,"SoundDuration":75930,"Delta":6795509},{"NoteNumber":56,"Velocity":47,"Duration":75930,"SoundDuration":75930,"Delta":6795509},{"NoteNumber":64,"Velocity":46,"Duration":75930,"SoundDuration":75930,"Delta":6947370},{"NoteNumber":61,"Velocity":46,"Duration":75930,"SoundDuration":75930,"Delta":6947370},{"NoteNumber":58,"Velocity":46,"Duration":75930,"SoundDuration":75930,"Delta":6947370},{"NoteNumber":59,"Velocity":46,"Duration":124481,"SoundDuration":124481,"Delta":7099230},{"NoteNumber":62,"Velocity":46,"Duration":124481,"SoundDuration":124481,"Delta":7099230},{"NoteNumber":47,"Velocity":49,"Duration":124481,"SoundDuration":124481,"Delta":7099230},{"NoteNumber":66,"Velocity":45,"Duration":149253,"SoundDuration":149253,"Delta":7348193},{"NoteNumber":71,"Velocity":49,"Duration":149253,"SoundDuration":149253,"Delta":7348193},{"NoteNumber":62,"Velocity":45,"Duration":149253,"SoundDuration":149253,"Delta":7348193},{"NoteNumber":65,"Velocity":46,"Duration":149253,"SoundDuration":149253,"Delta":7497446},{"NoteNumber":61,"Velocity":43,"Duration":149253,"SoundDuration":149253,"Delta":7497446},{"NoteNumber":66,"Velocity":45,"Duration":299251,"SoundDuration":299251,"Delta":7646700},{"NoteNumber":71,"Velocity":49,"Duration":299251,"SoundDuration":299251,"Delta":7646700},{"NoteNumber":62,"Velocity":45,"Duration":299251,"SoundDuration":299251,"Delta":7646700},{"NoteNumber":47,"Velocity":41,"Duration":149625,"SoundDuration":149625,"Delta":7796326},{"NoteNumber":70,"Velocity":49,"Duration":152656,"SoundDuration":152656,"Delta":7945952},{"NoteNumber":64,"Velocity":45,"Duration":152656,"SoundDuration":152656,"Delta":7945952},{"NoteNumber":61,"Velocity":43,"Duration":152656,"SoundDuration":152656,"Delta":7945952},{"NoteNumber":47,"Velocity":37,"Duration":152656,"SoundDuration":152656,"Delta":8098608},{"NoteNumber":62,"Velocity":45,"Duration":149253,"SoundDuration":149253,"Delta":8251264},{"NoteNumber":67,"Velocity":49,"Duration":149253,"SoundDuration":149253,"Delta":8251264},{"NoteNumber":59,"Velocity":44,"Duration":149253,"SoundDuration":149253,"Delta":8251264},{"NoteNumber":61,"Velocity":45,"Duration":149253,"SoundDuration":149253,"Delta":8400517},{"NoteNumber":58,"Velocity":42,"Duration":149253,"SoundDuration":149253,"Delta":8400517},{"NoteNumber":62,"Velocity":45,"Duration":300000,"SoundDuration":300000,"Delta":8549771},{"NoteNumber":67,"Velocity":49,"Duration":300000,"SoundDuration":300000,"Delta":8549771},{"NoteNumber":59,"Velocity":45,"Duration":300000,"SoundDuration":300000,"Delta":8549771},{"NoteNumber":47,"Velocity":40,"Duration":150000,"SoundDuration":150000,"Delta":8699771},{"NoteNumber":61,"Velocity":44,"Duration":153452,"SoundDuration":153452,"Delta":8849771},{"NoteNumber":66,"Velocity":47,"Duration":153452,"SoundDuration":153452,"Delta":8849771},{"NoteNumber":58,"Velocity":44,"Duration":153452,"SoundDuration":153452,"Delta":8849771},{"NoteNumber":47,"Velocity":36,"Duration":153452,"SoundDuration":153452,"Delta":9003223},{"NoteNumber":66,"Velocity":49,"Duration":149625,"SoundDuration":149625,"Delta":9156676},{"NoteNumber":60,"Velocity":45,"Duration":149625,"SoundDuration":149625,"Delta":9156676},{"NoteNumber":57,"Velocity":44,"Duration":149625,"SoundDuration":149625,"Delta":9156676},{"NoteNumber":59,"Velocity":46,"Duration":149625,"SoundDuration":149625,"Delta":9306302},{"NoteNumber":56,"Velocity":41,"Duration":149625,"SoundDuration":149625,"Delta":9306302},{"NoteNumber":66,"Velocity":49,"Duration":301508,"SoundDuration":301508,"Delta":9455928},{"NoteNumber":60,"Velocity":45,"Duration":301508,"SoundDuration":301508,"Delta":9455928},{"NoteNumber":57,"Velocity":45,"Duration":301508,"SoundDuration":301508,"Delta":9455928},{"NoteNumber":47,"Velocity":42,"Duration":150754,"SoundDuration":150754,"Delta":9606682},{"NoteNumber":59,"Velocity":43,"Duration":149917,"SoundDuration":149917,"Delta":9757436},{"NoteNumber":64,"Velocity":46,"Duration":149917,"SoundDuration":149917,"Delta":9757436},{"NoteNumber":56,"Velocity":44,"Duration":149917,"SoundDuration":149917,"Delta":9757436},{"NoteNumber":47,"Velocity":38,"Duration":149917,"SoundDuration":149917,"Delta":9907353},{"NoteNumber":58,"Velocity":45,"Duration":151080,"SoundDuration":151080,"Delta":10057271},{"NoteNumber":64,"Velocity":49,"Duration":151080,"SoundDuration":151080,"Delta":10057271},{"NoteNumber":55,"Velocity":45,"Duration":151080,"SoundDuration":151080,"Delta":10057271},{"NoteNumber":47,"Velocity":43,"Duration":151080,"SoundDuration":151080,"Delta":10208351},{"NoteNumber":58,"Velocity":47,"Duration":151079,"SoundDuration":151079,"Delta":10359431},{"NoteNumber":62,"Velocity":52,"Duration":151079,"SoundDuration":151079,"Delta":10359431},{"NoteNumber":54,"Velocity":49,"Duration":151079,"SoundDuration":151079,"Delta":10359431},{"NoteNumber":47,"Velocity":50,"Duration":151080,"SoundDuration":151080,"Delta":10510511},{"NoteNumber":61,"Velocity":50,"Duration":151080,"SoundDuration":151080,"Delta":10661591},{"NoteNumber":58,"Velocity":45,"Duration":151080,"SoundDuration":151080,"Delta":10661591},{"NoteNumber":52,"Velocity":47,"Duration":151080,"SoundDuration":151080,"Delta":10661591},{"NoteNumber":59,"Velocity":47,"Duration":151860,"SoundDuration":151860,"Delta":10812671},{"NoteNumber":50,"Velocity":44,"Duration":151860,"SoundDuration":151860,"Delta":10812671},{"NoteNumber":47,"Velocity":44,"Duration":151860,"SoundDuration":151860,"Delta":10812671},{"NoteNumber":53,"Velocity":52,"Duration":74958,"SoundDuration":74958,"Delta":10964531},{"NoteNumber":54,"Velocity":54,"Duration":77128,"SoundDuration":77128,"Delta":11114449},{"NoteNumber":55,"Velocity":59,"Duration":453240,"SoundDuration":453240,"Delta":11268706},{"NoteNumber":62,"Velocity":47,"Duration":75540,"SoundDuration":75540,"Delta":11419786},{"NoteNumber":71,"Velocity":47,"Duration":75540,"SoundDuration":75540,"Delta":11419786},{"NoteNumber":74,"Velocity":47,"Duration":75540,"SoundDuration":75540,"Delta":11419786},{"NoteNumber":74,"Velocity":49,"Duration":75540,"SoundDuration":75540,"Delta":11570866},{"NoteNumber":71,"Velocity":49,"Duration":75540,"SoundDuration":75540,"Delta":11570866},{"NoteNumber":64,"Velocity":49,"Duration":75540,"SoundDuration":75540,"Delta":11570866},{"NoteNumber":74,"Velocity":46,"Duration":75930,"SoundDuration":75930,"Delta":11721946},{"NoteNumber":71,"Velocity":46,"Duration":75930,"SoundDuration":75930,"Delta":11721946},{"NoteNumber":65,"Velocity":46,"Duration":75930,"SoundDuration":75930,"Delta":11721946},{"NoteNumber":43,"Velocity":49,"Duration":151860,"SoundDuration":151860,"Delta":11721946},{"NoteNumber":45,"Velocity":51,"Duration":75540,"SoundDuration":75540,"Delta":11873807},{"NoteNumber":43,"Velocity":49,"Duration":75540,"SoundDuration":75540,"Delta":12024887},{"NoteNumber":42,"Velocity":51,"Duration":454800,"SoundDuration":454800,"Delta":12175967},{"NoteNumber":66,"Velocity":45,"Duration":75930,"SoundDuration":75930,"Delta":12327047},{"NoteNumber":59,"Velocity":45,"Duration":75930,"SoundDuration":75930,"Delta":12327047},{"NoteNumber":56,"Velocity":45,"Duration":75930,"SoundDuration":75930,"Delta":12327047},{"NoteNumber":64,"Velocity":44,"Duration":75930,"SoundDuration":75930,"Delta":12478907},{"NoteNumber":61,"Velocity":44,"Duration":75930,"SoundDuration":75930,"Delta":12478907},{"NoteNumber":58,"Velocity":44,"Duration":75930,"SoundDuration":75930,"Delta":12478907},{"NoteNumber":59,"Velocity":46,"Duration":76126,"SoundDuration":76126,"Delta":12630768},{"NoteNumber":62,"Velocity":46,"Duration":76126,"SoundDuration":76126,"Delta":12630768},{"NoteNumber":47,"Velocity":48,"Duration":152253,"SoundDuration":152253,"Delta":12630768},{"NoteNumber":53,"Velocity":51,"Duration":74958,"SoundDuration":74958,"Delta":12783021},{"NoteNumber":54,"Velocity":54,"Duration":74958,"SoundDuration":74958,"Delta":12932939},{"NoteNumber":55,"Velocity":60,"Duration":606676,"SoundDuration":606676,"Delta":13082856},{"NoteNumber":71,"Velocity":50,"Duration":75540,"SoundDuration":75540,"Delta":13234717},{"NoteNumber":62,"Velocity":50,"Duration":75540,"SoundDuration":75540,"Delta":13234717},{"NoteNumber":74,"Velocity":50,"Duration":75540,"SoundDuration":75540,"Delta":13234717},{"NoteNumber":64,"Velocity":53,"Duration":75540,"SoundDuration":75540,"Delta":13385797},{"NoteNumber":71,"Velocity":53,"Duration":75540,"SoundDuration":75540,"Delta":13385797},{"NoteNumber":74,"Velocity":53,"Duration":75540,"SoundDuration":75540,"Delta":13385797},{"NoteNumber":65,"Velocity":58,"Duration":304909,"SoundDuration":304909,"Delta":13536877},{"NoteNumber":71,"Velocity":58,"Duration":304909,"SoundDuration":304909,"Delta":13536877},{"NoteNumber":74,"Velocity":58,"Duration":304909,"SoundDuration":304909,"Delta":13536877},{"NoteNumber":56,"Velocity":66,"Duration":304506,"SoundDuration":304506,"Delta":13689533},{"NoteNumber":65,"Velocity":62,"Duration":305306,"SoundDuration":305306,"Delta":13841786},{"NoteNumber":71,"Velocity":62,"Duration":305306,"SoundDuration":305306,"Delta":13841786},{"NoteNumber":73,"Velocity":62,"Duration":305306,"SoundDuration":305306,"Delta":13841786},{"NoteNumber":61,"Velocity":66,"Duration":307311,"SoundDuration":307311,"Delta":13994040},{"NoteNumber":71,"Velocity":68,"Duration":305337,"SoundDuration":305337,"Delta":14147093},{"NoteNumber":73,"Velocity":68,"Duration":305337,"SoundDuration":305337,"Delta":14147093},{"NoteNumber":77,"Velocity":68,"Duration":305337,"SoundDuration":305337,"Delta":14147093},{"NoteNumber":68,"Velocity":68,"Duration":151080,"SoundDuration":151080,"Delta":14301351},{"NoteNumber":78,"Velocity":69,"Duration":187500,"SoundDuration":187500,"Delta":14452431},{"NoteNumber":73,"Velocity":69,"Duration":187500,"SoundDuration":187500,"Delta":14452431},{"NoteNumber":70,"Velocity":69,"Duration":187500,"SoundDuration":187500,"Delta":14452431},{"NoteNumber":66,"Velocity":61,"Duration":187500,"SoundDuration":187500,"Delta":14452431},{"NoteNumber":83,"Velocity":49,"Duration":148883,"SoundDuration":148883,"Delta":14702431},{"NoteNumber":78,"Velocity":45,"Duration":148883,"SoundDuration":148883,"Delta":14702431},{"NoteNumber":74,"Velocity":45,"Duration":148883,"SoundDuration":148883,"Delta":14702431},{"NoteNumber":77,"Velocity":46,"Duration":148883,"SoundDuration":148883,"Delta":14851314},{"NoteNumber":73,"Velocity":43,"Duration":148883,"SoundDuration":148883,"Delta":14851314},{"NoteNumber":78,"Velocity":45,"Duration":299251,"SoundDuration":299251,"Delta":15000198},{"NoteNumber":83,"Velocity":49,"Duration":299251,"SoundDuration":299251,"Delta":15000198},{"NoteNumber":74,"Velocity":45,"Duration":299251,"SoundDuration":299251,"Delta":15000198},{"NoteNumber":66,"Velocity":36,"Duration":149625,"SoundDuration":149625,"Delta":15149824},{"NoteNumber":76,"Velocity":45,"Duration":152656,"SoundDuration":152656,"Delta":15299450},{"NoteNumber":82,"Velocity":49,"Duration":152656,"SoundDuration":152656,"Delta":15299450},{"NoteNumber":73,"Velocity":43,"Duration":152656,"SoundDuration":152656,"Delta":15299450},{"NoteNumber":66,"Velocity":33,"Duration":601539,"SoundDuration":601539,"Delta":15452106},{"NoteNumber":74,"Velocity":45,"Duration":149253,"SoundDuration":149253,"Delta":15604762},{"NoteNumber":79,"Velocity":49,"Duration":149253,"SoundDuration":149253,"Delta":15604762},{"NoteNumber":71,"Velocity":44,"Duration":149253,"SoundDuration":149253,"Delta":15604762},{"NoteNumber":73,"Velocity":45,"Duration":149253,"SoundDuration":149253,"Delta":15754015},{"NoteNumber":70,"Velocity":42,"Duration":149253,"SoundDuration":149253,"Delta":15754015},{"NoteNumber":74,"Velocity":45,"Duration":300751,"SoundDuration":300751,"Delta":15903269},{"NoteNumber":79,"Velocity":49,"Duration":300751,"SoundDuration":300751,"Delta":15903269},{"NoteNumber":71,"Velocity":45,"Duration":300751,"SoundDuration":300751,"Delta":15903269},{"NoteNumber":66,"Velocity":39,"Duration":150375,"SoundDuration":150375,"Delta":16053645},{"NoteNumber":73,"Velocity":44,"Duration":153452,"SoundDuration":153452,"Delta":16204021},{"NoteNumber":78,"Velocity":47,"Duration":153452,"SoundDuration":153452,"Delta":16204021},{"NoteNumber":70,"Velocity":44,"Duration":153452,"SoundDuration":153452,"Delta":16204021},{"NoteNumber":66,"Velocity":37,"Duration":160000,"SoundDuration":160000,"Delta":16357473},{"NoteNumber":72,"Velocity":62,"Duration":147420,"SoundDuration":147420,"Delta":16517473},{"NoteNumber":78,"Velocity":69,"Duration":147420,"SoundDuration":147420,"Delta":16517473},{"NoteNumber":69,"Velocity":60,"Duration":448164,"SoundDuration":448164,"Delta":16517473},{"NoteNumber":64,"Velocity":60,"Duration":448164,"SoundDuration":448164,"Delta":16517473},{"NoteNumber":71,"Velocity":64,"Duration":148883,"SoundDuration":148883,"Delta":16664893},{"NoteNumber":72,"Velocity":62,"Duration":151860,"SoundDuration":151860,"Delta":16813777},{"NoteNumber":78,"Velocity":69,"Duration":151860,"SoundDuration":151860,"Delta":16813777},{"NoteNumber":72,"Velocity":67,"Duration":147420,"SoundDuration":147420,"Delta":16965637},{"NoteNumber":66,"Velocity":67,"Duration":147420,"SoundDuration":147420,"Delta":16965637},{"NoteNumber":64,"Velocity":53,"Duration":448557,"SoundDuration":448557,"Delta":16965637},{"NoteNumber":57,"Velocity":53,"Duration":448557,"SoundDuration":448557,"Delta":16965637},{"NoteNumber":65,"Velocity":60,"Duration":148883,"SoundDuration":148883,"Delta":17113057},{"NoteNumber":66,"Velocity":64,"Duration":152253,"SoundDuration":152253,"Delta":17261941},{"NoteNumber":72,"Velocity":64,"Duration":152253,"SoundDuration":152253,"Delta":17261941},{"NoteNumber":60,"Velocity":67,"Duration":149917,"SoundDuration":149917,"Delta":17414194},{"NoteNumber":64,"Velocity":67,"Duration":149917,"SoundDuration":149917,"Delta":17414194},{"NoteNumber":57,"Velocity":53,"Duration":450135,"SoundDuration":450135,"Delta":17414194},{"NoteNumber":54,"Velocity":53,"Duration":450135,"SoundDuration":450135,"Delta":17414194},{"NoteNumber":59,"Velocity":67,"Duration":149917,"SoundDuration":149917,"Delta":17564112},{"NoteNumber":60,"Velocity":64,"Duration":150300,"SoundDuration":150300,"Delta":17714029},{"NoteNumber":64,"Velocity":64,"Duration":150300,"SoundDuration":150300,"Delta":17714029},{"NoteNumber":48,"Velocity":53,"Duration":77335,"SoundDuration":77335,"Delta":17864330},{"NoteNumber":63,"Velocity":66,"Duration":76126,"SoundDuration":76126,"Delta":18019001},{"NoteNumber":54,"Velocity":66,"Duration":76126,"SoundDuration":76126,"Delta":18019001},{"NoteNumber":57,"Velocity":66,"Duration":76126,"SoundDuration":76126,"Delta":18019001},{"NoteNumber":47,"Velocity":46,"Duration":76126,"SoundDuration":76126,"Delta":18019001},{"NoteNumber":64,"Velocity":70,"Duration":100334,"SoundDuration":100334,"Delta":18171254},{"NoteNumber":59,"Velocity":70,"Duration":100334,"SoundDuration":100334,"Delta":18171254},{"NoteNumber":55,"Velocity":70,"Duration":100334,"SoundDuration":100334,"Delta":18171254},{"NoteNumber":52,"Velocity":53,"Duration":100334,"SoundDuration":100334,"Delta":18171254},{"NoteNumber":83,"Velocity":50,"Duration":149253,"SoundDuration":149253,"Delta":18371923},{"NoteNumber":88,"Velocity":55,"Duration":149253,"SoundDuration":149253,"Delta":18371923},{"NoteNumber":79,"Velocity":50,"Duration":149253,"SoundDuration":149253,"Delta":18371923},{"NoteNumber":82,"Velocity":52,"Duration":149253,"SoundDuration":149253,"Delta":18521177},{"NoteNumber":78,"Velocity":48,"Duration":149253,"SoundDuration":149253,"Delta":18521177},{"NoteNumber":83,"Velocity":50,"Duration":299251,"SoundDuration":299251,"Delta":18670430},{"NoteNumber":88,"Velocity":55,"Duration":299251,"SoundDuration":299251,"Delta":18670430},{"NoteNumber":79,"Velocity":50,"Duration":299251,"SoundDuration":299251,"Delta":18670430},{"NoteNumber":71,"Velocity":46,"Duration":149625,"SoundDuration":149625,"Delta":18820056},{"NoteNumber":87,"Velocity":55,"Duration":152656,"SoundDuration":152656,"Delta":18969682},{"NoteNumber":81,"Velocity":50,"Duration":152656,"SoundDuration":152656,"Delta":18969682},{"NoteNumber":78,"Velocity":48,"Duration":152656,"SoundDuration":152656,"Delta":18969682},{"NoteNumber":71,"Velocity":43,"Duration":600789,"SoundDuration":600789,"Delta":19122338},{"NoteNumber":79,"Velocity":50,"Duration":149253,"SoundDuration":149253,"Delta":19274994},{"NoteNumber":84,"Velocity":55,"Duration":149253,"SoundDuration":149253,"Delta":19274994},{"NoteNumber":76,"Velocity":49,"Duration":149253,"SoundDuration":149253,"Delta":19274994},{"NoteNumber":78,"Velocity":51,"Duration":149253,"SoundDuration":149253,"Delta":19424248},{"NoteNumber":75,"Velocity":47,"Duration":149253,"SoundDuration":149253,"Delta":19424248},{"NoteNumber":79,"Velocity":50,"Duration":299251,"SoundDuration":299251,"Delta":19573501},{"NoteNumber":84,"Velocity":55,"Duration":299251,"SoundDuration":299251,"Delta":19573501},{"NoteNumber":76,"Velocity":50,"Duration":299251,"SoundDuration":299251,"Delta":19573501},{"NoteNumber":71,"Velocity":44,"Duration":149625,"SoundDuration":149625,"Delta":19723127},{"NoteNumber":78,"Velocity":49,"Duration":153452,"SoundDuration":153452,"Delta":19872753},{"NoteNumber":83,"Velocity":53,"Duration":153452,"SoundDuration":153452,"Delta":19872753},{"NoteNumber":75,"Velocity":49,"Duration":153452,"SoundDuration":153452,"Delta":19872753},{"NoteNumber":71,"Velocity":38,"Duration":157480,"SoundDuration":157480,"Delta":20026206},{"NoteNumber":77,"Velocity":62,"Duration":148147,"SoundDuration":148147,"Delta":20183686},{"NoteNumber":83,"Velocity":69,"Duration":148147,"SoundDuration":148147,"Delta":20183686},{"NoteNumber":69,"Velocity":60,"Duration":449262,"SoundDuration":449262,"Delta":20183686},{"NoteNumber":74,"Velocity":60,"Duration":449262,"SoundDuration":449262,"Delta":20183686},{"NoteNumber":76,"Velocity":64,"Duration":149253,"SoundDuration":149253,"Delta":20331834},{"NoteNumber":77,"Velocity":62,"Duration":151860,"SoundDuration":151860,"Delta":20481088},{"NoteNumber":83,"Velocity":69,"Duration":151860,"SoundDuration":151860,"Delta":20481088},{"NoteNumber":71,"Velocity":67,"Duration":148147,"SoundDuration":148147,"Delta":20632948},{"NoteNumber":77,"Velocity":67,"Duration":148147,"SoundDuration":148147,"Delta":20632948},{"NoteNumber":62,"Velocity":53,"Duration":451481,"SoundDuration":451481,"Delta":20632948},{"NoteNumber":69,"Velocity":53,"Duration":451481,"SoundDuration":451481,"Delta":20632948},{"NoteNumber":70,"Velocity":60,"Duration":151080,"SoundDuration":151080,"Delta":20781096},{"NoteNumber":71,"Velocity":64,"Duration":152253,"SoundDuration":152253,"Delta":20932176},{"NoteNumber":77,"Velocity":64,"Duration":152253,"SoundDuration":152253,"Delta":20932176},{"NoteNumber":69,"Velocity":67,"Duration":148748,"SoundDuration":148748,"Delta":21084430},{"NoteNumber":65,"Velocity":67,"Duration":148748,"SoundDuration":148748,"Delta":21084430},{"NoteNumber":59,"Velocity":53,"Duration":447564,"SoundDuration":447564,"Delta":21084430},{"NoteNumber":62,"Velocity":53,"Duration":447564,"SoundDuration":447564,"Delta":21084430},{"NoteNumber":64,"Velocity":67,"Duration":148514,"SoundDuration":148514,"Delta":21233179},{"NoteNumber":65,"Velocity":64,"Duration":150300,"SoundDuration":150300,"Delta":21381694},{"NoteNumber":69,"Velocity":64,"Duration":150300,"SoundDuration":150300,"Delta":21381694},{"NoteNumber":53,"Velocity":53,"Duration":77335,"SoundDuration":77335,"Delta":21531994},{"NoteNumber":68,"Velocity":58,"Duration":152253,"SoundDuration":152253,"Delta":21686665},{"NoteNumber":62,"Velocity":58,"Duration":152253,"SoundDuration":152253,"Delta":21686665},{"NoteNumber":59,"Velocity":52,"Duration":152253,"SoundDuration":152253,"Delta":21686665},{"NoteNumber":52,"Velocity":40,"Duration":76126,"SoundDuration":76126,"Delta":21686665},{"NoteNumber":69,"Velocity":58,"Duration":152253,"SoundDuration":152253,"Delta":21838919},{"NoteNumber":60,"Velocity":52,"Duration":152253,"SoundDuration":152253,"Delta":21838919},{"NoteNumber":45,"Velocity":47,"Duration":76126,"SoundDuration":76126,"Delta":21838919},{"NoteNumber":69,"Velocity":56,"Duration":302160,"SoundDuration":302160,"Delta":21991172},{"NoteNumber":60,"Velocity":50,"Duration":302160,"SoundDuration":302160,"Delta":21991172},{"NoteNumber":53,"Velocity":37,"Duration":75540,"SoundDuration":75540,"Delta":21991172},{"NoteNumber":52,"Velocity":37,"Duration":75540,"SoundDuration":75540,"Delta":22142252},{"NoteNumber":62,"Velocity":49,"Duration":302160,"SoundDuration":302160,"Delta":22293332},{"NoteNumber":68,"Velocity":55,"Duration":302160,"SoundDuration":302160,"Delta":22293332},{"NoteNumber":71,"Velocity":55,"Duration":302160,"SoundDuration":302160,"Delta":22293332},{"NoteNumber":45,"Velocity":43,"Duration":75540,"SoundDuration":75540,"Delta":22293332},{"NoteNumber":53,"Velocity":37,"Duration":75540,"SoundDuration":75540,"Delta":22444412},{"NoteNumber":72,"Velocity":57,"Duration":151080,"SoundDuration":151080,"Delta":22595492},{"NoteNumber":69,"Velocity":57,"Duration":151080,"SoundDuration":151080,"Delta":22595492},{"NoteNumber":64,"Velocity":51,"Duration":151080,"SoundDuration":151080,"Delta":22595492},{"NoteNumber":52,"Velocity":37,"Duration":75540,"SoundDuration":75540,"Delta":22595492},{"NoteNumber":45,"Velocity":43,"Duration":76328,"SoundDuration":76328,"Delta":22746572},{"NoteNumber":69,"Velocity":57,"Duration":303720,"SoundDuration":303720,"Delta":22899228},{"NoteNumber":60,"Velocity":51,"Duration":303720,"SoundDuration":303720,"Delta":22899228},{"NoteNumber":53,"Velocity":37,"Duration":75930,"SoundDuration":75930,"Delta":22899228},{"NoteNumber":52,"Velocity":37,"Duration":75930,"SoundDuration":75930,"Delta":23051089},{"NoteNumber":68,"Velocity":55,"Duration":303720,"SoundDuration":303720,"Delta":23202949},{"NoteNumber":62,"Velocity":55,"Duration":303720,"SoundDuration":303720,"Delta":23202949},{"NoteNumber":59,"Velocity":49,"Duration":303720,"SoundDuration":303720,"Delta":23202949},{"NoteNumber":45,"Velocity":43,"Duration":75930,"SoundDuration":75930,"Delta":23202949},{"NoteNumber":53,"Velocity":38,"Duration":75930,"SoundDuration":75930,"Delta":23354810},{"NoteNumber":69,"Velocity":55,"Duration":151860,"SoundDuration":151860,"Delta":23506670},{"NoteNumber":60,"Velocity":55,"Duration":151860,"SoundDuration":151860,"Delta":23506670},{"NoteNumber":57,"Velocity":49,"Duration":151860,"SoundDuration":151860,"Delta":23506670},{"NoteNumber":52,"Velocity":38,"Duration":75930,"SoundDuration":75930,"Delta":23506670},{"NoteNumber":45,"Velocity":45,"Duration":76526,"SoundDuration":76526,"Delta":23658531},{"NoteNumber":64,"Velocity":52,"Duration":302160,"SoundDuration":302160,"Delta":23811584},{"NoteNumber":72,"Velocity":58,"Duration":302160,"SoundDuration":302160,"Delta":23811584},{"NoteNumber":57,"Velocity":39,"Duration":75540,"SoundDuration":75540,"Delta":23811584},{"NoteNumber":56,"Velocity":39,"Duration":75540,"SoundDuration":75540,"Delta":23962664},{"NoteNumber":74,"Velocity":61,"Duration":302160,"SoundDuration":302160,"Delta":24113744},{"NoteNumber":71,"Velocity":61,"Duration":302160,"SoundDuration":302160,"Delta":24113744},{"NoteNumber":65,"Velocity":54,"Duration":302160,"SoundDuration":302160,"Delta":24113744},{"NoteNumber":48,"Velocity":48,"Duration":75540,"SoundDuration":75540,"Delta":24113744},{"NoteNumber":57,"Velocity":44,"Duration":75540,"SoundDuration":75540,"Delta":24264824},{"NoteNumber":64,"Velocity":56,"Duration":151080,"SoundDuration":151080,"Delta":24415904},{"NoteNumber":72,"Velocity":63,"Duration":151080,"SoundDuration":151080,"Delta":24415904},{"NoteNumber":76,"Velocity":63,"Duration":151080,"SoundDuration":151080,"Delta":24415904},{"NoteNumber":56,"Velocity":44,"Duration":75540,"SoundDuration":75540,"Delta":24415904},{"NoteNumber":48,"Velocity":47,"Duration":76526,"SoundDuration":76526,"Delta":24566984},{"NoteNumber":64,"Velocity":53,"Duration":303720,"SoundDuration":303720,"Delta":24720038},{"NoteNumber":72,"Velocity":59,"Duration":303720,"SoundDuration":303720,"Delta":24720038},{"NoteNumber":57,"Velocity":44,"Duration":75930,"SoundDuration":75930,"Delta":24720038},{"NoteNumber":56,"Velocity":44,"Duration":75930,"SoundDuration":75930,"Delta":24871898},{"NoteNumber":62,"Velocity":51,"Duration":303720,"SoundDuration":303720,"Delta":25023759},{"NoteNumber":71,"Velocity":57,"Duration":303720,"SoundDuration":303720,"Delta":25023759},{"NoteNumber":65,"Velocity":51,"Duration":303720,"SoundDuration":303720,"Delta":25023759},{"NoteNumber":48,"Velocity":47,"Duration":75930,"SoundDuration":75930,"Delta":25023759},{"NoteNumber":57,"Velocity":43,"Duration":75930,"SoundDuration":75930,"Delta":25175619},{"NoteNumber":72,"Velocity":58,"Duration":151860,"SoundDuration":151860,"Delta":25327480},{"NoteNumber":64,"Velocity":58,"Duration":151860,"SoundDuration":151860,"Delta":25327480},{"NoteNumber":60,"Velocity":52,"Duration":151860,"SoundDuration":151860,"Delta":25327480},{"NoteNumber":56,"Velocity":43,"Duration":75930,"SoundDuration":75930,"Delta":25327480},{"NoteNumber":48,"Velocity":49,"Duration":76526,"SoundDuration":76526,"Delta":25479340},{"NoteNumber":67,"Velocity":55,"Duration":302160,"SoundDuration":302160,"Delta":25632394},{"NoteNumber":76,"Velocity":62,"Duration":302160,"SoundDuration":302160,"Delta":25632394},{"NoteNumber":60,"Velocity":44,"Duration":75540,"SoundDuration":75540,"Delta":25632394},{"NoteNumber":59,"Velocity":44,"Duration":75540,"SoundDuration":75540,"Delta":25783474},{"NoteNumber":69,"Velocity":54,"Duration":302160,"SoundDuration":302160,"Delta":25934554},{"NoteNumber":75,"Velocity":55,"Duration":302160,"SoundDuration":302160,"Delta":25934554},{"NoteNumber":78,"Velocity":61,"Duration":302160,"SoundDuration":302160,"Delta":25934554},{"NoteNumber":52,"Velocity":48,"Duration":75540,"SoundDuration":75540,"Delta":25934554},{"NoteNumber":60,"Velocity":43,"Duration":75540,"SoundDuration":75540,"Delta":26085634},{"NoteNumber":79,"Velocity":61,"Duration":151080,"SoundDuration":151080,"Delta":26236714},{"NoteNumber":67,"Velocity":54,"Duration":151080,"SoundDuration":151080,"Delta":26236714},{"NoteNumber":76,"Velocity":61,"Duration":151080,"SoundDuration":151080,"Delta":26236714},{"NoteNumber":59,"Velocity":43,"Duration":75540,"SoundDuration":75540,"Delta":26236714},{"NoteNumber":52,"Velocity":49,"Duration":76126,"SoundDuration":76126,"Delta":26387794},{"NoteNumber":71,"Velocity":60,"Duration":302160,"SoundDuration":302160,"Delta":26540047},{"NoteNumber":79,"Velocity":67,"Duration":302160,"SoundDuration":302160,"Delta":26540047},{"NoteNumber":64,"Velocity":44,"Duration":75540,"SoundDuration":75540,"Delta":26540047},{"NoteNumber":63,"Velocity":44,"Duration":75540,"SoundDuration":75540,"Delta":26691127},{"NoteNumber":72,"Velocity":57,"Duration":302160,"SoundDuration":302160,"Delta":26842207},{"NoteNumber":81,"Velocity":64,"Duration":302160,"SoundDuration":302160,"Delta":26842207},{"NoteNumber":78,"Velocity":57,"Duration":302160,"SoundDuration":302160,"Delta":26842207},{"NoteNumber":55,"Velocity":51,"Duration":75540,"SoundDuration":75540,"Delta":26842207},{"NoteNumber":64,"Velocity":46,"Duration":75540,"SoundDuration":75540,"Delta":26993287},{"NoteNumber":71,"Velocity":57,"Duration":151080,"SoundDuration":151080,"Delta":27144367},{"NoteNumber":79,"Velocity":64,"Duration":151080,"SoundDuration":151080,"Delta":27144367},{"NoteNumber":83,"Velocity":64,"Duration":151080,"SoundDuration":151080,"Delta":27144367},{"NoteNumber":63,"Velocity":47,"Duration":75540,"SoundDuration":75540,"Delta":27144367},{"NoteNumber":55,"Velocity":51,"Duration":76526,"SoundDuration":76526,"Delta":27295447},{"NoteNumber":83,"Velocity":69,"Duration":302160,"SoundDuration":302160,"Delta":27448501},{"NoteNumber":74,"Velocity":62,"Duration":302160,"SoundDuration":302160,"Delta":27448501},{"NoteNumber":67,"Velocity":46,"Duration":75540,"SoundDuration":75540,"Delta":27448501},{"NoteNumber":66,"Velocity":46,"Duration":75540,"SoundDuration":75540,"Delta":27599581},{"NoteNumber":85,"Velocity":67,"Duration":302160,"SoundDuration":302160,"Delta":27750661},{"NoteNumber":82,"Velocity":60,"Duration":302160,"SoundDuration":302160,"Delta":27750661},{"NoteNumber":76,"Velocity":60,"Duration":302160,"SoundDuration":302160,"Delta":27750661},{"NoteNumber":59,"Velocity":54,"Duration":75540,"SoundDuration":75540,"Delta":27750661},{"NoteNumber":67,"Velocity":49,"Duration":75540,"SoundDuration":75540,"Delta":27901741},{"NoteNumber":74,"Velocity":65,"Duration":151080,"SoundDuration":151080,"Delta":28052821},{"NoteNumber":83,"Velocity":72,"Duration":151080,"SoundDuration":151080,"Delta":28052821},{"NoteNumber":86,"Velocity":72,"Duration":151080,"SoundDuration":151080,"Delta":28052821},{"NoteNumber":66,"Velocity":51,"Duration":75540,"SoundDuration":75540,"Delta":28052821},{"NoteNumber":59,"Velocity":57,"Duration":76328,"SoundDuration":76328,"Delta":28203901},{"NoteNumber":78,"Velocity":74,"Duration":302160,"SoundDuration":302160,"Delta":28356557},{"NoteNumber":86,"Velocity":83,"Duration":302160,"SoundDuration":302160,"Delta":28356557},{"NoteNumber":71,"Velocity":53,"Duration":75540,"SoundDuration":75540,"Delta":28356557},{"NoteNumber":70,"Velocity":51,"Duration":75540,"SoundDuration":75540,"Delta":28507637},{"NoteNumber":85,"Velocity":71,"Duration":302160,"SoundDuration":302160,"Delta":28658717},{"NoteNumber":88,"Velocity":79,"Duration":302160,"SoundDuration":302160,"Delta":28658717},{"NoteNumber":79,"Velocity":71,"Duration":302160,"SoundDuration":302160,"Delta":28658717},{"NoteNumber":62,"Velocity":62,"Duration":75540,"SoundDuration":75540,"Delta":28658717},{"NoteNumber":71,"Velocity":52,"Duration":75540,"SoundDuration":75540,"Delta":28809797},{"NoteNumber":90,"Velocity":81,"Duration":151080,"SoundDuration":151080,"Delta":28960877},{"NoteNumber":86,"Velocity":81,"Duration":151080,"SoundDuration":151080,"Delta":28960877},{"NoteNumber":78,"Velocity":72,"Duration":151080,"SoundDuration":151080,"Delta":28960877},{"NoteNumber":70,"Velocity":61,"Duration":75540,"SoundDuration":75540,"Delta":28960877},{"NoteNumber":62,"Velocity":49,"Duration":76726,"SoundDuration":76726,"Delta":29111957},{"NoteNumber":78,"Velocity":74,"Duration":302160,"SoundDuration":302160,"Delta":29265409},{"NoteNumber":86,"Velocity":83,"Duration":302160,"SoundDuration":302160,"Delta":29265409},{"NoteNumber":90,"Velocity":83,"Duration":302160,"SoundDuration":302160,"Delta":29265409},{"NoteNumber":70,"Velocity":62,"Duration":151080,"SoundDuration":151080,"Delta":29265409},{"NoteNumber":62,"Velocity":48,"Duration":151080,"SoundDuration":151080,"Delta":29416489},{"NoteNumber":86,"Velocity":80,"Duration":302160,"SoundDuration":302160,"Delta":29567569},{"NoteNumber":78,"Velocity":71,"Duration":302160,"SoundDuration":302160,"Delta":29567569},{"NoteNumber":90,"Velocity":80,"Duration":302160,"SoundDuration":302160,"Delta":29567569},{"NoteNumber":70,"Velocity":61,"Duration":151080,"SoundDuration":151080,"Delta":29567569},{"NoteNumber":62,"Velocity":48,"Duration":151080,"SoundDuration":151080,"Delta":29718649},{"NoteNumber":90,"Velocity":81,"Duration":304133,"SoundDuration":304133,"Delta":29869729},{"NoteNumber":86,"Velocity":81,"Duration":304133,"SoundDuration":304133,"Delta":29869729},{"NoteNumber":78,"Velocity":72,"Duration":304133,"SoundDuration":304133,"Delta":29869729},{"NoteNumber":70,"Velocity":61,"Duration":151080,"SoundDuration":151080,"Delta":29869729},{"NoteNumber":62,"Velocity":48,"Duration":153053,"SoundDuration":153053,"Delta":30020809},{"NoteNumber":88,"Velocity":82,"Duration":302160,"SoundDuration":302160,"Delta":30173863},{"NoteNumber":90,"Velocity":82,"Duration":302160,"SoundDuration":302160,"Delta":30173863},{"NoteNumber":78,"Velocity":73,"Duration":302160,"SoundDuration":302160,"Delta":30173863},{"NoteNumber":70,"Velocity":61,"Duration":151080,"SoundDuration":151080,"Delta":30173863},{"NoteNumber":61,"Velocity":48,"Duration":151080,"SoundDuration":151080,"Delta":30324943},{"NoteNumber":90,"Velocity":78,"Duration":302160,"SoundDuration":302160,"Delta":30476023},{"NoteNumber":88,"Velocity":78,"Duration":302160,"SoundDuration":302160,"Delta":30476023},{"NoteNumber":78,"Velocity":69,"Duration":302160,"SoundDuration":302160,"Delta":30476023},{"NoteNumber":70,"Velocity":58,"Duration":151080,"SoundDuration":151080,"Delta":30476023},{"NoteNumber":61,"Velocity":46,"Duration":151080,"SoundDuration":151080,"Delta":30627103},{"NoteNumber":78,"Velocity":70,"Duration":304133,"SoundDuration":304133,"Delta":30778183},{"NoteNumber":88,"Velocity":79,"Duration":304133,"SoundDuration":304133,"Delta":30778183},{"NoteNumber":90,"Velocity":79,"Duration":304133,"SoundDuration":304133,"Delta":30778183},{"NoteNumber":70,"Velocity":57,"Duration":151080,"SoundDuration":151080,"Delta":30778183},{"NoteNumber":61,"Velocity":46,"Duration":153053,"SoundDuration":153053,"Delta":30929263},{"NoteNumber":76,"Velocity":79,"Duration":302267,"SoundDuration":302267,"Delta":31082316},{"NoteNumber":70,"Velocity":70,"Duration":302267,"SoundDuration":302267,"Delta":31082316},{"NoteNumber":78,"Velocity":79,"Duration":302267,"SoundDuration":302267,"Delta":31082316},{"NoteNumber":61,"Velocity":57,"Duration":151133,"SoundDuration":151133,"Delta":31082316},{"NoteNumber":54,"Velocity":46,"Duration":151133,"SoundDuration":151133,"Delta":31233450},{"NoteNumber":76,"Velocity":79,"Duration":302267,"SoundDuration":302267,"Delta":31384583},{"NoteNumber":70,"Velocity":70,"Duration":302267,"SoundDuration":302267,"Delta":31384583},{"NoteNumber":78,"Velocity":79,"Duration":302267,"SoundDuration":302267,"Delta":31384583},{"NoteNumber":61,"Velocity":56,"Duration":151133,"SoundDuration":151133,"Delta":31384583},{"NoteNumber":54,"Velocity":42,"Duration":151133,"SoundDuration":151133,"Delta":31535717},{"NoteNumber":70,"Velocity":69,"Duration":320624,"SoundDuration":320624,"Delta":31686850},{"NoteNumber":76,"Velocity":77,"Duration":320624,"SoundDuration":320624,"Delta":31686850},{"NoteNumber":78,"Velocity":77,"Duration":320624,"SoundDuration":320624,"Delta":31686850},{"NoteNumber":61,"Velocity":57,"Duration":151133,"SoundDuration":151133,"Delta":31686850},{"NoteNumber":54,"Velocity":44,"Duration":169491,"SoundDuration":169491,"Delta":31837984},{"NoteNumber":64,"Velocity":70,"Duration":303638,"SoundDuration":303638,"Delta":32007475},{"NoteNumber":66,"Velocity":70,"Duration":303638,"SoundDuration":303638,"Delta":32007475},{"NoteNumber":58,"Velocity":63,"Duration":303638,"SoundDuration":303638,"Delta":32007475},{"NoteNumber":49,"Velocity":50,"Duration":151578,"SoundDuration":151578,"Delta":32007475},{"NoteNumber":42,"Velocity":40,"Duration":152059,"SoundDuration":152059,"Delta":32159054},{"NoteNumber":66,"Velocity":70,"Duration":315979,"SoundDuration":315979,"Delta":32311114},{"NoteNumber":64,"Velocity":70,"Duration":315979,"SoundDuration":315979,"Delta":32311114},{"NoteNumber":58,"Velocity":63,"Duration":315979,"SoundDuration":315979,"Delta":32311114},{"NoteNumber":49,"Velocity":50,"Duration":155286,"SoundDuration":155286,"Delta":32311114},{"NoteNumber":42,"Velocity":41,"Duration":160693,"SoundDuration":160693,"Delta":32466400},{"NoteNumber":64,"Velocity":69,"Duration":353212,"SoundDuration":353212,"Delta":32627093},{"NoteNumber":66,"Velocity":69,"Duration":353212,"SoundDuration":353212,"Delta":32627093},{"NoteNumber":58,"Velocity":62,"Duration":353212,"SoundDuration":353212,"Delta":32627093},{"NoteNumber":49,"Velocity":49,"Duration":166490,"SoundDuration":166490,"Delta":32627093},{"NoteNumber":42,"Velocity":41,"Duration":186721,"SoundDuration":186721,"Delta":32793584},{"NoteNumber":66,"Velocity":45,"Duration":149253,"SoundDuration":149253,"Delta":33042546},{"NoteNumber":71,"Velocity":49,"Duration":149253,"SoundDuration":149253,"Delta":33042546},{"NoteNumber":62,"Velocity":45,"Duration":149253,"SoundDuration":149253,"Delta":33042546},{"NoteNumber":65,"Velocity":46,"Duration":149253,"SoundDuration":149253,"Delta":33191800},{"NoteNumber":61,"Velocity":43,"Duration":149253,"SoundDuration":149253,"Delta":33191800},{"NoteNumber":66,"Velocity":45,"Duration":299252,"SoundDuration":299252,"Delta":33341053},{"NoteNumber":71,"Velocity":49,"Duration":299252,"SoundDuration":299252,"Delta":33341053},{"NoteNumber":62,"Velocity":45,"Duration":299252,"SoundDuration":299252,"Delta":33341053},{"NoteNumber":47,"Velocity":40,"Duration":149626,"SoundDuration":149626,"Delta":33490679},{"NoteNumber":70,"Velocity":49,"Duration":152656,"SoundDuration":152656,"Delta":33640305},{"NoteNumber":64,"Velocity":45,"Duration":152656,"SoundDuration":152656,"Delta":33640305},{"NoteNumber":61,"Velocity":43,"Duration":152656,"SoundDuration":152656,"Delta":33640305},{"NoteNumber":47,"Velocity":36,"Duration":152656,"SoundDuration":152656,"Delta":33792961},{"NoteNumber":62,"Velocity":45,"Duration":149557,"SoundDuration":149557,"Delta":33945617},{"NoteNumber":67,"Velocity":49,"Duration":149557,"SoundDuration":149557,"Delta":33945617},{"NoteNumber":59,"Velocity":44,"Duration":149557,"SoundDuration":149557,"Delta":33945617},{"NoteNumber":61,"Velocity":45,"Duration":149253,"SoundDuration":149253,"Delta":34095175},{"NoteNumber":58,"Velocity":42,"Duration":149253,"SoundDuration":149253,"Delta":34095175},{"NoteNumber":62,"Velocity":45,"Duration":299252,"SoundDuration":299252,"Delta":34244429},{"NoteNumber":67,"Velocity":49,"Duration":299252,"SoundDuration":299252,"Delta":34244429},{"NoteNumber":59,"Velocity":45,"Duration":299252,"SoundDuration":299252,"Delta":34244429},{"NoteNumber":47,"Velocity":39,"Duration":149626,"SoundDuration":149626,"Delta":34394055},{"NoteNumber":61,"Velocity":44,"Duration":153452,"SoundDuration":153452,"Delta":34543681},{"NoteNumber":66,"Velocity":47,"Duration":153452,"SoundDuration":153452,"Delta":34543681},{"NoteNumber":58,"Velocity":44,"Duration":153452,"SoundDuration":153452,"Delta":34543681},{"NoteNumber":47,"Velocity":36,"Duration":153452,"SoundDuration":153452,"Delta":34697133},{"NoteNumber":60,"Velocity":45,"Duration":149253,"SoundDuration":149253,"Delta":34850586},{"NoteNumber":66,"Velocity":49,"Duration":149253,"SoundDuration":149253,"Delta":34850586},{"NoteNumber":57,"Velocity":44,"Duration":149253,"SoundDuration":149253,"Delta":34850586},{"NoteNumber":59,"Velocity":46,"Duration":149253,"SoundDuration":149253,"Delta":34999839},{"NoteNumber":56,"Velocity":41,"Duration":149253,"SoundDuration":149253,"Delta":34999839},{"NoteNumber":66,"Velocity":49,"Duration":300752,"SoundDuration":300752,"Delta":35149093},{"NoteNumber":60,"Velocity":45,"Duration":300752,"SoundDuration":300752,"Delta":35149093},{"NoteNumber":57,"Velocity":45,"Duration":300752,"SoundDuration":300752,"Delta":35149093},{"NoteNumber":47,"Velocity":40,"Duration":150376,"SoundDuration":150376,"Delta":35299469},{"NoteNumber":59,"Velocity":43,"Duration":149917,"SoundDuration":149917,"Delta":35449845},{"NoteNumber":64,"Velocity":46,"Duration":149917,"SoundDuration":149917,"Delta":35449845},{"NoteNumber":56,"Velocity":44,"Duration":149917,"SoundDuration":149917,"Delta":35449845},{"NoteNumber":47,"Velocity":37,"Duration":149917,"SoundDuration":149917,"Delta":35599762},{"NoteNumber":58,"Velocity":45,"Duration":151080,"SoundDuration":151080,"Delta":35749680},{"NoteNumber":64,"Velocity":49,"Duration":151080,"SoundDuration":151080,"Delta":35749680},{"NoteNumber":55,"Velocity":45,"Duration":151080,"SoundDuration":151080,"Delta":35749680},{"NoteNumber":47,"Velocity":43,"Duration":151080,"SoundDuration":151080,"Delta":35900760},{"NoteNumber":58,"Velocity":47,"Duration":151080,"SoundDuration":151080,"Delta":36051840},{"NoteNumber":62,"Velocity":52,"Duration":151080,"SoundDuration":151080,"Delta":36051840},{"NoteNumber":54,"Velocity":49,"Duration":151080,"SoundDuration":151080,"Delta":36051840},{"NoteNumber":47,"Velocity":50,"Duration":151080,"SoundDuration":151080,"Delta":36202920},{"NoteNumber":61,"Velocity":50,"Duration":151080,"SoundDuration":151080,"Delta":36354000},{"NoteNumber":58,"Velocity":45,"Duration":151080,"SoundDuration":151080,"Delta":36354000},{"NoteNumber":52,"Velocity":47,"Duration":151080,"SoundDuration":151080,"Delta":36354000},{"NoteNumber":59,"Velocity":47,"Duration":151860,"SoundDuration":151860,"Delta":36505080},{"NoteNumber":47,"Velocity":44,"Duration":151860,"SoundDuration":151860,"Delta":36505080},{"NoteNumber":50,"Velocity":44,"Duration":151860,"SoundDuration":151860,"Delta":36505080},{"NoteNumber":53,"Velocity":52,"Duration":74958,"SoundDuration":74958,"Delta":36656940},{"NoteNumber":54,"Velocity":54,"Duration":77128,"SoundDuration":77128,"Delta":36806858},{"NoteNumber":55,"Velocity":59,"Duration":453240,"SoundDuration":453240,"Delta":36961115},{"NoteNumber":62,"Velocity":47,"Duration":75539,"SoundDuration":75539,"Delta":37112195},{"NoteNumber":71,"Velocity":47,"Duration":75539,"SoundDuration":75539,"Delta":37112195},{"NoteNumber":74,"Velocity":47,"Duration":75539,"SoundDuration":75539,"Delta":37112195},{"NoteNumber":74,"Velocity":49,"Duration":75539,"SoundDuration":75539,"Delta":37263275},{"NoteNumber":71,"Velocity":49,"Duration":75539,"SoundDuration":75539,"Delta":37263275},{"NoteNumber":64,"Velocity":49,"Duration":75539,"SoundDuration":75539,"Delta":37263275},{"NoteNumber":74,"Velocity":46,"Duration":75930,"SoundDuration":75930,"Delta":37414355},{"NoteNumber":71,"Velocity":46,"Duration":75930,"SoundDuration":75930,"Delta":37414355},{"NoteNumber":65,"Velocity":46,"Duration":75930,"SoundDuration":75930,"Delta":37414355},{"NoteNumber":43,"Velocity":49,"Duration":151860,"SoundDuration":151860,"Delta":37414355},{"NoteNumber":45,"Velocity":51,"Duration":75539,"SoundDuration":75539,"Delta":37566216},{"NoteNumber":43,"Velocity":49,"Duration":75539,"SoundDuration":75539,"Delta":37717296},{"NoteNumber":42,"Velocity":51,"Duration":454801,"SoundDuration":454801,"Delta":37868376},{"NoteNumber":66,"Velocity":45,"Duration":75930,"SoundDuration":75930,"Delta":38019456},{"NoteNumber":59,"Velocity":45,"Duration":75930,"SoundDuration":75930,"Delta":38019456},{"NoteNumber":56,"Velocity":45,"Duration":75930,"SoundDuration":75930,"Delta":38019456},{"NoteNumber":64,"Velocity":46,"Duration":75930,"SoundDuration":75930,"Delta":38171316},{"NoteNumber":61,"Velocity":46,"Duration":75930,"SoundDuration":75930,"Delta":38171316},{"NoteNumber":58,"Velocity":46,"Duration":75930,"SoundDuration":75930,"Delta":38171316},{"NoteNumber":59,"Velocity":46,"Duration":76126,"SoundDuration":76126,"Delta":38323177},{"NoteNumber":62,"Velocity":46,"Duration":76126,"SoundDuration":76126,"Delta":38323177},{"NoteNumber":47,"Velocity":48,"Duration":152253,"SoundDuration":152253,"Delta":38323177},{"NoteNumber":53,"Velocity":51,"Duration":74958,"SoundDuration":74958,"Delta":38475430},{"NoteNumber":54,"Velocity":54,"Duration":74958,"SoundDuration":74958,"Delta":38625348},{"NoteNumber":55,"Velocity":58,"Duration":454020,"SoundDuration":454020,"Delta":38775265},{"NoteNumber":71,"Velocity":47,"Duration":75539,"SoundDuration":75539,"Delta":38927126},{"NoteNumber":62,"Velocity":47,"Duration":75539,"SoundDuration":75539,"Delta":38927126},{"NoteNumber":74,"Velocity":47,"Duration":75539,"SoundDuration":75539,"Delta":38927126},{"NoteNumber":64,"Velocity":49,"Duration":75539,"SoundDuration":75539,"Delta":39078206},{"NoteNumber":71,"Velocity":49,"Duration":75539,"SoundDuration":75539,"Delta":39078206},{"NoteNumber":74,"Velocity":49,"Duration":75539,"SoundDuration":75539,"Delta":39078206},{"NoteNumber":65,"Velocity":45,"Duration":76327,"SoundDuration":76327,"Delta":39229286},{"NoteNumber":71,"Velocity":45,"Duration":76327,"SoundDuration":76327,"Delta":39229286},{"NoteNumber":74,"Velocity":45,"Duration":76327,"SoundDuration":76327,"Delta":39229286},{"NoteNumber":43,"Velocity":49,"Duration":152656,"SoundDuration":152656,"Delta":39229286},{"NoteNumber":45,"Velocity":54,"Duration":75539,"SoundDuration":75539,"Delta":39381942},{"NoteNumber":43,"Velocity":51,"Duration":75539,"SoundDuration":75539,"Delta":39533022},{"NoteNumber":42,"Velocity":52,"Duration":456774,"SoundDuration":456774,"Delta":39684102},{"NoteNumber":66,"Velocity":47,"Duration":75930,"SoundDuration":75930,"Delta":39837155},{"NoteNumber":59,"Velocity":47,"Duration":75930,"SoundDuration":75930,"Delta":39837155},{"NoteNumber":56,"Velocity":47,"Duration":75930,"SoundDuration":75930,"Delta":39837155},{"NoteNumber":58,"Velocity":46,"Duration":75930,"SoundDuration":75930,"Delta":39989016},{"NoteNumber":61,"Velocity":46,"Duration":75930,"SoundDuration":75930,"Delta":39989016},{"NoteNumber":64,"Velocity":46,"Duration":75930,"SoundDuration":75930,"Delta":39989016},{"NoteNumber":59,"Velocity":46,"Duration":78157,"SoundDuration":78157,"Delta":40140876},{"NoteNumber":62,"Velocity":46,"Duration":78157,"SoundDuration":78157,"Delta":40140876},{"NoteNumber":47,"Velocity":49,"Duration":156314,"SoundDuration":156314,"Delta":40140876},{"NoteNumber":52,"Velocity":55,"Duration":75539,"SoundDuration":75539,"Delta":40297191},{"NoteNumber":50,"Velocity":52,"Duration":75539,"SoundDuration":75539,"Delta":40448271},{"NoteNumber":49,"Velocity":51,"Duration":456377,"SoundDuration":456377,"Delta":40599351},{"NoteNumber":57,"Velocity":47,"Duration":75930,"SoundDuration":75930,"Delta":40752007},{"NoteNumber":69,"Velocity":47,"Duration":75930,"SoundDuration":75930,"Delta":40752007},{"NoteNumber":64,"Velocity":47,"Duration":75930,"SoundDuration":75930,"Delta":40752007},{"NoteNumber":67,"Velocity":46,"Duration":75930,"SoundDuration":75930,"Delta":40903868},{"NoteNumber":64,"Velocity":46,"Duration":75930,"SoundDuration":75930,"Delta":40903868},{"NoteNumber":57,"Velocity":46,"Duration":75930,"SoundDuration":75930,"Delta":40903868},{"NoteNumber":66,"Velocity":47,"Duration":78157,"SoundDuration":78157,"Delta":41055728},{"NoteNumber":62,"Velocity":47,"Duration":78157,"SoundDuration":78157,"Delta":41055728},{"NoteNumber":57,"Velocity":47,"Duration":78157,"SoundDuration":78157,"Delta":41055728},{"NoteNumber":50,"Velocity":50,"Duration":156314,"SoundDuration":156314,"Delta":41055728},{"NoteNumber":56,"Velocity":58,"Duration":75539,"SoundDuration":75539,"Delta":41212043},{"NoteNumber":54,"Velocity":56,"Duration":75539,"SoundDuration":75539,"Delta":41363123},{"NoteNumber":53,"Velocity":55,"Duration":456377,"SoundDuration":456377,"Delta":41514203},{"NoteNumber":61,"Velocity":55,"Duration":75930,"SoundDuration":75930,"Delta":41666859},{"NoteNumber":73,"Velocity":55,"Duration":75930,"SoundDuration":75930,"Delta":41666859},{"NoteNumber":68,"Velocity":55,"Duration":75930,"SoundDuration":75930,"Delta":41666859},{"NoteNumber":68,"Velocity":55,"Duration":75930,"SoundDuration":75930,"Delta":41818720},{"NoteNumber":61,"Velocity":55,"Duration":75930,"SoundDuration":75930,"Delta":41818720},{"NoteNumber":71,"Velocity":55,"Duration":75930,"SoundDuration":75930,"Delta":41818720},{"NoteNumber":61,"Velocity":55,"Duration":78157,"SoundDuration":78157,"Delta":41970580},{"NoteNumber":66,"Velocity":55,"Duration":78157,"SoundDuration":78157,"Delta":41970580},{"NoteNumber":70,"Velocity":55,"Duration":78157,"SoundDuration":78157,"Delta":41970580},{"NoteNumber":54,"Velocity":52,"Duration":156314,"SoundDuration":156314,"Delta":41970580},{"NoteNumber":73,"Velocity":66,"Duration":300601,"SoundDuration":300601,"Delta":42126895},{"NoteNumber":78,"Velocity":66,"Duration":150300,"SoundDuration":150300,"Delta":42126895},{"NoteNumber":66,"Velocity":56,"Duration":452461,"SoundDuration":452461,"Delta":42126895},{"NoteNumber":58,"Velocity":56,"Duration":300601,"SoundDuration":300601,"Delta":42126895},{"NoteNumber":76,"Velocity":66,"Duration":150300,"SoundDuration":150300,"Delta":42277196},{"NoteNumber":74,"Velocity":64,"Duration":151860,"SoundDuration":151860,"Delta":42427496},{"NoteNumber":71,"Velocity":64,"Duration":151860,"SoundDuration":151860,"Delta":42427496},{"NoteNumber":56,"Velocity":60,"Duration":151860,"SoundDuration":151860,"Delta":42427496},{"NoteNumber":73,"Velocity":72,"Duration":300601,"SoundDuration":300601,"Delta":42579357},{"NoteNumber":78,"Velocity":72,"Duration":150300,"SoundDuration":150300,"Delta":42579357},{"NoteNumber":66,"Velocity":60,"Duration":452854,"SoundDuration":452854,"Delta":42579357},{"NoteNumber":58,"Velocity":60,"Duration":300601,"SoundDuration":300601,"Delta":42579357},{"NoteNumber":76,"Velocity":69,"Duration":150300,"SoundDuration":150300,"Delta":42729657},{"NoteNumber":71,"Velocity":70,"Duration":152253,"SoundDuration":152253,"Delta":42879958},{"NoteNumber":74,"Velocity":70,"Duration":152253,"SoundDuration":152253,"Delta":42879958},{"NoteNumber":56,"Velocity":65,"Duration":152253,"SoundDuration":152253,"Delta":42879958},{"NoteNumber":73,"Velocity":77,"Duration":300601,"SoundDuration":300601,"Delta":43032211},{"NoteNumber":78,"Velocity":77,"Duration":150300,"SoundDuration":150300,"Delta":43032211},{"NoteNumber":66,"Velocity":65,"Duration":455272,"SoundDuration":455272,"Delta":43032211},{"NoteNumber":58,"Velocity":65,"Duration":300601,"SoundDuration":300601,"Delta":43032211},{"NoteNumber":76,"Velocity":78,"Duration":150300,"SoundDuration":150300,"Delta":43182512},{"NoteNumber":71,"Velocity":80,"Duration":154671,"SoundDuration":154671,"Delta":43332812},{"NoteNumber":74,"Velocity":80,"Duration":154671,"SoundDuration":154671,"Delta":43332812},{"NoteNumber":56,"Velocity":71,"Duration":154671,"SoundDuration":154671,"Delta":43332812},{"NoteNumber":78,"Velocity":82,"Duration":78369,"SoundDuration":78369,"Delta":43487483},{"NoteNumber":73,"Velocity":82,"Duration":78369,"SoundDuration":78369,"Delta":43487483},{"NoteNumber":58,"Velocity":72,"Duration":78369,"SoundDuration":78369,"Delta":43487483},{"NoteNumber":66,"Velocity":72,"Duration":78369,"SoundDuration":78369,"Delta":43487483},{"NoteNumber":71,"Velocity":78,"Duration":79365,"SoundDuration":79365,"Delta":43644223},{"NoteNumber":74,"Velocity":78,"Duration":79365,"SoundDuration":79365,"Delta":43644223},{"NoteNumber":66,"Velocity":69,"Duration":79365,"SoundDuration":79365,"Delta":43644223},{"NoteNumber":59,"Velocity":69,"Duration":79365,"SoundDuration":79365,"Delta":43644223},{"NoteNumber":76,"Velocity":88,"Duration":481057,"SoundDuration":481057,"Delta":43802953},{"NoteNumber":71,"Velocity":74,"Duration":481057,"SoundDuration":481057,"Delta":43802953},{"NoteNumber":67,"Velocity":74,"Duration":481057,"SoundDuration":481057,"Delta":43802953},{"NoteNumber":79,"Velocity":88,"Duration":481057,"SoundDuration":481057,"Delta":43802953},{"NoteNumber":59,"Velocity":63,"Duration":481057,"SoundDuration":481057,"Delta":43802953},{"NoteNumber":52,"Velocity":63,"Duration":481057,"SoundDuration":481057,"Delta":43802953},{"NoteNumber":64,"Velocity":75,"Duration":481057,"SoundDuration":481057,"Delta":43802953},{"NoteNumber":52,"Velocity":54,"Duration":310623,"SoundDuration":310623,"Delta":44284010},{"NoteNumber":55,"Velocity":56,"Duration":77854,"SoundDuration":77854,"Delta":44362271},{"NoteNumber":59,"Velocity":57,"Duration":77452,"SoundDuration":77452,"Delta":44440126},{"NoteNumber":61,"Velocity":59,"Duration":77054,"SoundDuration":77054,"Delta":44517579},{"NoteNumber":64,"Velocity":64,"Duration":76661,"SoundDuration":76661,"Delta":44594634},{"NoteNumber":67,"Velocity":63,"Duration":76271,"SoundDuration":76271,"Delta":44671295},{"NoteNumber":76,"Velocity":61,"Duration":75738,"SoundDuration":75738,"Delta":44747566},{"NoteNumber":73,"Velocity":60,"Duration":75539,"SoundDuration":75539,"Delta":44823304},{"NoteNumber":71,"Velocity":59,"Duration":75540,"SoundDuration":75540,"Delta":44898844},{"NoteNumber":67,"Velocity":58,"Duration":75637,"SoundDuration":75637,"Delta":44974384},{"NoteNumber":64,"Velocity":56,"Duration":75734,"SoundDuration":75734,"Delta":45050022},{"NoteNumber":61,"Velocity":57,"Duration":75604,"SoundDuration":75604,"Delta":45125756},{"NoteNumber":59,"Velocity":57,"Duration":75799,"SoundDuration":75799,"Delta":45201361},{"NoteNumber":55,"Velocity":56,"Duration":76193,"SoundDuration":76193,"Delta":45277161},{"NoteNumber":52,"Velocity":56,"Duration":76527,"SoundDuration":76527,"Delta":45353355},{"NoteNumber":49,"Velocity":58,"Duration":76860,"SoundDuration":76860,"Delta":45429882},{"NoteNumber":47,"Velocity":58,"Duration":77266,"SoundDuration":77266,"Delta":45506742},{"NoteNumber":43,"Velocity":58,"Duration":77438,"SoundDuration":77438,"Delta":45584009},{"NoteNumber":40,"Velocity":57,"Duration":155901,"SoundDuration":155901,"Delta":45661447},{"NoteNumber":49,"Velocity":57,"Duration":155901,"SoundDuration":155901,"Delta":45817348},{"NoteNumber":59,"Velocity":56,"Duration":77950,"SoundDuration":77950,"Delta":45973249},{"NoteNumber":55,"Velocity":56,"Duration":77950,"SoundDuration":77950,"Delta":45973249},{"NoteNumber":64,"Velocity":56,"Duration":77950,"SoundDuration":77950,"Delta":45973249},{"NoteNumber":52,"Velocity":53,"Duration":77452,"SoundDuration":77452,"Delta":46129150},{"NoteNumber":59,"Velocity":55,"Duration":77187,"SoundDuration":77187,"Delta":46206603},{"NoteNumber":61,"Velocity":56,"Duration":76857,"SoundDuration":76857,"Delta":46283790},{"NoteNumber":64,"Velocity":58,"Duration":76465,"SoundDuration":76465,"Delta":46360648},{"NoteNumber":67,"Velocity":63,"Duration":76206,"SoundDuration":76206,"Delta":46437113},{"NoteNumber":71,"Velocity":63,"Duration":75885,"SoundDuration":75885,"Delta":46513320},{"NoteNumber":79,"Velocity":61,"Duration":75566,"SoundDuration":75566,"Delta":46589206},{"NoteNumber":76,"Velocity":60,"Duration":75566,"SoundDuration":75566,"Delta":46664772},{"NoteNumber":73,"Velocity":59,"Duration":75566,"SoundDuration":75566,"Delta":46740339},{"NoteNumber":71,"Velocity":58,"Duration":75566,"SoundDuration":75566,"Delta":46815906},{"NoteNumber":67,"Velocity":57,"Duration":75566,"SoundDuration":75566,"Delta":46891473},{"NoteNumber":64,"Velocity":58,"Duration":75493,"SoundDuration":75493,"Delta":46967039},{"NoteNumber":61,"Velocity":57,"Duration":75411,"SoundDuration":75411,"Delta":47042533},{"NoteNumber":59,"Velocity":56,"Duration":75669,"SoundDuration":75669,"Delta":47117944},{"NoteNumber":55,"Velocity":56,"Duration":75995,"SoundDuration":75995,"Delta":47193613},{"NoteNumber":52,"Velocity":58,"Duration":76260,"SoundDuration":76260,"Delta":47269609},{"NoteNumber":49,"Velocity":58,"Duration":76593,"SoundDuration":76593,"Delta":47345870},{"NoteNumber":47,"Velocity":58,"Duration":76726,"SoundDuration":76726,"Delta":47422463},{"NoteNumber":43,"Velocity":60,"Duration":155489,"SoundDuration":155489,"Delta":47499190},{"NoteNumber":49,"Velocity":57,"Duration":155488,"SoundDuration":155488,"Delta":47654679},{"NoteNumber":64,"Velocity":62,"Duration":77744,"SoundDuration":77744,"Delta":47810168},{"NoteNumber":67,"Velocity":62,"Duration":77744,"SoundDuration":77744,"Delta":47810168},{"NoteNumber":71,"Velocity":62,"Duration":77744,"SoundDuration":77744,"Delta":47810168},{"NoteNumber":59,"Velocity":62,"Duration":77744,"SoundDuration":77744,"Delta":47810168},{"NoteNumber":42,"Velocity":63,"Duration":77744,"SoundDuration":77744,"Delta":47965657},{"NoteNumber":47,"Velocity":65,"Duration":77605,"SoundDuration":77605,"Delta":48043402},{"NoteNumber":50,"Velocity":68,"Duration":77402,"SoundDuration":77402,"Delta":48121007},{"NoteNumber":54,"Velocity":70,"Duration":77197,"SoundDuration":77197,"Delta":48198409},{"NoteNumber":59,"Velocity":71,"Duration":77061,"SoundDuration":77061,"Delta":48275607},{"NoteNumber":62,"Velocity":73,"Duration":76860,"SoundDuration":76860,"Delta":48352668},{"NoteNumber":66,"Velocity":75,"Duration":76659,"SoundDuration":76659,"Delta":48429528},{"NoteNumber":54,"Velocity":75,"Duration":76659,"SoundDuration":76659,"Delta":48429528},{"NoteNumber":71,"Velocity":78,"Duration":76460,"SoundDuration":76460,"Delta":48506188},{"NoteNumber":59,"Velocity":77,"Duration":76460,"SoundDuration":76460,"Delta":48506188},{"NoteNumber":62,"Velocity":79,"Duration":76328,"SoundDuration":76328,"Delta":48582648},{"NoteNumber":74,"Velocity":79,"Duration":76328,"SoundDuration":76328,"Delta":48582648},{"NoteNumber":66,"Velocity":81,"Duration":76327,"SoundDuration":76327,"Delta":48658976},{"NoteNumber":78,"Velocity":81,"Duration":76327,"SoundDuration":76327,"Delta":48658976},{"NoteNumber":71,"Velocity":84,"Duration":76328,"SoundDuration":76328,"Delta":48735304},{"NoteNumber":83,"Velocity":84,"Duration":76328,"SoundDuration":76328,"Delta":48735304},{"NoteNumber":86,"Velocity":86,"Duration":76328,"SoundDuration":76328,"Delta":48811632},{"NoteNumber":74,"Velocity":86,"Duration":76328,"SoundDuration":76328,"Delta":48811632},{"NoteNumber":90,"Velocity":90,"Duration":218977,"SoundDuration":218977,"Delta":48887960},{"NoteNumber":78,"Velocity":81,"Duration":218977,"SoundDuration":218977,"Delta":48887960},{"NoteNumber":64,"Velocity":72,"Duration":74812,"SoundDuration":74812,"Delta":49106938},{"NoteNumber":91,"Velocity":95,"Duration":74812,"SoundDuration":74812,"Delta":49106938},{"NoteNumber":79,"Velocity":85,"Duration":74812,"SoundDuration":74812,"Delta":49106938},{"NoteNumber":76,"Velocity":80,"Duration":74812,"SoundDuration":74812,"Delta":49106938},{"NoteNumber":61,"Velocity":68,"Duration":74812,"SoundDuration":74812,"Delta":49256564},{"NoteNumber":88,"Velocity":90,"Duration":74812,"SoundDuration":74812,"Delta":49256564},{"NoteNumber":76,"Velocity":81,"Duration":74812,"SoundDuration":74812,"Delta":49256564},{"NoteNumber":73,"Velocity":76,"Duration":74812,"SoundDuration":74812,"Delta":49256564},{"NoteNumber":90,"Velocity":95,"Duration":75000,"SoundDuration":75000,"Delta":49406253},{"NoteNumber":74,"Velocity":80,"Duration":75000,"SoundDuration":75000,"Delta":49406253},{"NoteNumber":62,"Velocity":72,"Duration":75000,"SoundDuration":75000,"Delta":49406253},{"NoteNumber":78,"Velocity":85,"Duration":75000,"SoundDuration":75000,"Delta":49406253},{"NoteNumber":74,"Velocity":81,"Duration":75000,"SoundDuration":75000,"Delta":49556253},{"NoteNumber":71,"Velocity":76,"Duration":75000,"SoundDuration":75000,"Delta":49556253},{"NoteNumber":59,"Velocity":68,"Duration":75000,"SoundDuration":75000,"Delta":49556253},{"NoteNumber":86,"Velocity":90,"Duration":75000,"SoundDuration":75000,"Delta":49556253},{"NoteNumber":73,"Velocity":80,"Duration":75187,"SoundDuration":75187,"Delta":49706378},{"NoteNumber":76,"Velocity":85,"Duration":75187,"SoundDuration":75187,"Delta":49706378},{"NoteNumber":88,"Velocity":95,"Duration":75187,"SoundDuration":75187,"Delta":49706378},{"NoteNumber":61,"Velocity":80,"Duration":75187,"SoundDuration":75187,"Delta":49706378},{"NoteNumber":73,"Velocity":81,"Duration":75187,"SoundDuration":75187,"Delta":49856754},{"NoteNumber":85,"Velocity":90,"Duration":75187,"SoundDuration":75187,"Delta":49856754},{"NoteNumber":58,"Velocity":68,"Duration":75187,"SoundDuration":75187,"Delta":49856754},{"NoteNumber":70,"Velocity":76,"Duration":75187,"SoundDuration":75187,"Delta":49856754},{"NoteNumber":86,"Velocity":94,"Duration":75376,"SoundDuration":75376,"Delta":50007319},{"NoteNumber":74,"Velocity":84,"Duration":75376,"SoundDuration":75376,"Delta":50007319},{"NoteNumber":71,"Velocity":79,"Duration":75376,"SoundDuration":75376,"Delta":50007319},{"NoteNumber":59,"Velocity":71,"Duration":75376,"SoundDuration":75376,"Delta":50007319},{"NoteNumber":70,"Velocity":77,"Duration":75440,"SoundDuration":75440,"Delta":50158073},{"NoteNumber":66,"Velocity":73,"Duration":75440,"SoundDuration":75440,"Delta":50158073},{"NoteNumber":54,"Velocity":65,"Duration":75440,"SoundDuration":75440,"Delta":50158073},{"NoteNumber":82,"Velocity":86,"Duration":75440,"SoundDuration":75440,"Delta":50158073},{"NoteNumber":71,"Velocity":82,"Duration":75566,"SoundDuration":75566,"Delta":50309080},{"NoteNumber":83,"Velocity":92,"Duration":75566,"SoundDuration":75566,"Delta":50309080},{"NoteNumber":55,"Velocity":70,"Duration":75566,"SoundDuration":75566,"Delta":50309080},{"NoteNumber":67,"Velocity":78,"Duration":75566,"SoundDuration":75566,"Delta":50309080},{"NoteNumber":78,"Velocity":85,"Duration":75693,"SoundDuration":75693,"Delta":50460214},{"NoteNumber":66,"Velocity":76,"Duration":75693,"SoundDuration":75693,"Delta":50460214},{"NoteNumber":62,"Velocity":72,"Duration":75693,"SoundDuration":75693,"Delta":50460214},{"NoteNumber":50,"Velocity":64,"Duration":75693,"SoundDuration":75693,"Delta":50460214},{"NoteNumber":79,"Velocity":90,"Duration":75757,"SoundDuration":75757,"Delta":50611665},{"NoteNumber":67,"Velocity":81,"Duration":75757,"SoundDuration":75757,"Delta":50611665},{"NoteNumber":64,"Velocity":76,"Duration":75757,"SoundDuration":75757,"Delta":50611665},{"NoteNumber":52,"Velocity":68,"Duration":75757,"SoundDuration":75757,"Delta":50611665},{"NoteNumber":64,"Velocity":75,"Duration":76142,"SoundDuration":76142,"Delta":50763244},{"NoteNumber":76,"Velocity":84,"Duration":76142,"SoundDuration":76142,"Delta":50763244},{"NoteNumber":49,"Velocity":63,"Duration":76142,"SoundDuration":76142,"Delta":50763244},{"NoteNumber":61,"Velocity":71,"Duration":76142,"SoundDuration":76142,"Delta":50763244},{"NoteNumber":66,"Velocity":81,"Duration":76142,"SoundDuration":76142,"Delta":50915528},{"NoteNumber":78,"Velocity":91,"Duration":76142,"SoundDuration":76142,"Delta":50915528},{"NoteNumber":50,"Velocity":69,"Duration":76142,"SoundDuration":76142,"Delta":50915528},{"NoteNumber":62,"Velocity":77,"Duration":76142,"SoundDuration":76142,"Delta":50915528},{"NoteNumber":62,"Velocity":74,"Duration":76142,"SoundDuration":76142,"Delta":51067813},{"NoteNumber":74,"Velocity":83,"Duration":76142,"SoundDuration":76142,"Delta":51067813},{"NoteNumber":59,"Velocity":70,"Duration":76142,"SoundDuration":76142,"Delta":51067813},{"NoteNumber":47,"Velocity":63,"Duration":76142,"SoundDuration":76142,"Delta":51067813},{"NoteNumber":76,"Velocity":90,"Duration":76142,"SoundDuration":76142,"Delta":51220097},{"NoteNumber":64,"Velocity":81,"Duration":76142,"SoundDuration":76142,"Delta":51220097},{"NoteNumber":49,"Velocity":68,"Duration":76142,"SoundDuration":76142,"Delta":51220097},{"NoteNumber":61,"Velocity":76,"Duration":76142,"SoundDuration":76142,"Delta":51220097},{"NoteNumber":73,"Velocity":82,"Duration":76142,"SoundDuration":76142,"Delta":51372382},{"NoteNumber":61,"Velocity":73,"Duration":76142,"SoundDuration":76142,"Delta":51372382},{"NoteNumber":58,"Velocity":69,"Duration":76142,"SoundDuration":76142,"Delta":51372382},{"NoteNumber":46,"Velocity":62,"Duration":76142,"SoundDuration":76142,"Delta":51372382},{"NoteNumber":62,"Velocity":81,"Duration":76142,"SoundDuration":76142,"Delta":51524666},{"NoteNumber":74,"Velocity":90,"Duration":76142,"SoundDuration":76142,"Delta":51524666},{"NoteNumber":59,"Velocity":68,"Duration":76142,"SoundDuration":76142,"Delta":51524666},{"NoteNumber":47,"Velocity":68,"Duration":76142,"SoundDuration":76142,"Delta":51524666},{"NoteNumber":58,"Velocity":75,"Duration":76193,"SoundDuration":76193,"Delta":51676951},{"NoteNumber":70,"Velocity":84,"Duration":76193,"SoundDuration":76193,"Delta":51676951},{"NoteNumber":54,"Velocity":71,"Duration":76193,"SoundDuration":76193,"Delta":51676951},{"NoteNumber":42,"Velocity":63,"Duration":76193,"SoundDuration":76193,"Delta":51676951},{"NoteNumber":59,"Velocity":81,"Duration":76793,"SoundDuration":76793,"Delta":51829605},{"NoteNumber":71,"Velocity":91,"Duration":76793,"SoundDuration":76793,"Delta":51829605},{"NoteNumber":43,"Velocity":69,"Duration":76793,"SoundDuration":76793,"Delta":51829605},{"NoteNumber":55,"Velocity":77,"Duration":76793,"SoundDuration":76793,"Delta":51829605},{"NoteNumber":66,"Velocity":82,"Duration":81415,"SoundDuration":81415,"Delta":51983460},{"NoteNumber":54,"Velocity":73,"Duration":81415,"SoundDuration":81415,"Delta":51983460},{"NoteNumber":38,"Velocity":62,"Duration":81415,"SoundDuration":81415,"Delta":51983460},{"NoteNumber":50,"Velocity":62,"Duration":81415,"SoundDuration":81415,"Delta":51983460},{"NoteNumber":55,"Velocity":80,"Duration":310977,"SoundDuration":310977,"Delta":52146291},{"NoteNumber":67,"Velocity":89,"Duration":310977,"SoundDuration":310977,"Delta":52146291},{"NoteNumber":40,"Velocity":67,"Duration":310977,"SoundDuration":310977,"Delta":52146291},{"NoteNumber":52,"Velocity":75,"Duration":310977,"SoundDuration":310977,"Delta":52146291},{"NoteNumber":61,"Velocity":72,"Duration":155489,"SoundDuration":155489,"Delta":52457269},{"NoteNumber":64,"Velocity":72,"Duration":155489,"SoundDuration":155489,"Delta":52457269},{"NoteNumber":70,"Velocity":80,"Duration":155489,"SoundDuration":155489,"Delta":52457269},{"NoteNumber":42,"Velocity":61,"Duration":155489,"SoundDuration":155489,"Delta":52457269},{"NoteNumber":54,"Velocity":68,"Duration":155489,"SoundDuration":155489,"Delta":52457269},{"NoteNumber":62,"Velocity":77,"Duration":159286,"SoundDuration":159286,"Delta":52612758},{"NoteNumber":66,"Velocity":77,"Duration":159286,"SoundDuration":159286,"Delta":52612758},{"NoteNumber":71,"Velocity":86,"Duration":159286,"SoundDuration":159286,"Delta":52612758},{"NoteNumber":47,"Velocity":68,"Duration":159286,"SoundDuration":159286,"Delta":52612758},{"NoteNumber":52,"Velocity":58,"Duration":74958,"SoundDuration":74958,"Delta":52772044},{"NoteNumber":54,"Velocity":60,"Duration":77128,"SoundDuration":77128,"Delta":52921962},{"NoteNumber":55,"Velocity":66,"Duration":605100,"SoundDuration":605100,"Delta":53076219},{"NoteNumber":74,"Velocity":56,"Duration":75539,"SoundDuration":75539,"Delta":53227299},{"NoteNumber":73,"Velocity":56,"Duration":75539,"SoundDuration":75539,"Delta":53227299},{"NoteNumber":61,"Velocity":56,"Duration":75539,"SoundDuration":75539,"Delta":53227299},{"NoteNumber":62,"Velocity":53,"Duration":75539,"SoundDuration":75539,"Delta":53378379},{"NoteNumber":73,"Velocity":53,"Duration":75539,"SoundDuration":75539,"Delta":53378379},{"NoteNumber":74,"Velocity":53,"Duration":75539,"SoundDuration":75539,"Delta":53378379},{"NoteNumber":74,"Velocity":52,"Duration":75930,"SoundDuration":75930,"Delta":53529459},{"NoteNumber":73,"Velocity":52,"Duration":75930,"SoundDuration":75930,"Delta":53529459},{"NoteNumber":64,"Velocity":52,"Duration":75930,"SoundDuration":75930,"Delta":53529459},{"NoteNumber":45,"Velocity":57,"Duration":75539,"SoundDuration":75539,"Delta":53681320},{"NoteNumber":43,"Velocity":55,"Duration":75539,"SoundDuration":75539,"Delta":53832400},{"NoteNumber":42,"Velocity":57,"Duration":454801,"SoundDuration":454801,"Delta":53983480},{"NoteNumber":66,"Velocity":53,"Duration":75930,"SoundDuration":75930,"Delta":54134560},{"NoteNumber":56,"Velocity":53,"Duration":75930,"SoundDuration":75930,"Delta":54134560},{"NoteNumber":59,"Velocity":53,"Duration":75930,"SoundDuration":75930,"Delta":54134560},{"NoteNumber":58,"Velocity":52,"Duration":75930,"SoundDuration":75930,"Delta":54286420},{"NoteNumber":61,"Velocity":52,"Duration":75930,"SoundDuration":75930,"Delta":54286420},{"NoteNumber":66,"Velocity":52,"Duration":75930,"SoundDuration":75930,"Delta":54286420},{"NoteNumber":62,"Velocity":52,"Duration":76126,"SoundDuration":76126,"Delta":54438281},{"NoteNumber":59,"Velocity":52,"Duration":76126,"SoundDuration":76126,"Delta":54438281},{"NoteNumber":66,"Velocity":52,"Duration":76126,"SoundDuration":76126,"Delta":54438281},{"NoteNumber":47,"Velocity":54,"Duration":152253,"SoundDuration":152253,"Delta":54438281},{"NoteNumber":52,"Velocity":57,"Duration":74958,"SoundDuration":74958,"Delta":54590534},{"NoteNumber":54,"Velocity":60,"Duration":74958,"SoundDuration":74958,"Delta":54740452},{"NoteNumber":55,"Velocity":65,"Duration":606676,"SoundDuration":606676,"Delta":54890369},{"NoteNumber":74,"Velocity":54,"Duration":75539,"SoundDuration":75539,"Delta":55042230},{"NoteNumber":73,"Velocity":54,"Duration":75539,"SoundDuration":75539,"Delta":55042230},{"NoteNumber":61,"Velocity":54,"Duration":75539,"SoundDuration":75539,"Delta":55042230},{"NoteNumber":74,"Velocity":55,"Duration":75539,"SoundDuration":75539,"Delta":55193310},{"NoteNumber":73,"Velocity":55,"Duration":75539,"SoundDuration":75539,"Delta":55193310},{"NoteNumber":62,"Velocity":55,"Duration":75539,"SoundDuration":75539,"Delta":55193310},{"NoteNumber":74,"Velocity":51,"Duration":76327,"SoundDuration":76327,"Delta":55344390},{"NoteNumber":73,"Velocity":51,"Duration":76327,"SoundDuration":76327,"Delta":55344390},{"NoteNumber":64,"Velocity":51,"Duration":76327,"SoundDuration":76327,"Delta":55344390},{"NoteNumber":45,"Velocity":61,"Duration":75539,"SoundDuration":75539,"Delta":55497046},{"NoteNumber":43,"Velocity":57,"Duration":75539,"SoundDuration":75539,"Delta":55648126},{"NoteNumber":42,"Velocity":58,"Duration":456774,"SoundDuration":456774,"Delta":55799206},{"NoteNumber":56,"Velocity":55,"Duration":75930,"SoundDuration":75930,"Delta":55952259},{"NoteNumber":66,"Velocity":55,"Duration":75930,"SoundDuration":75930,"Delta":55952259},{"NoteNumber":59,"Velocity":55,"Duration":75930,"SoundDuration":75930,"Delta":55952259},{"NoteNumber":66,"Velocity":55,"Duration":75930,"SoundDuration":75930,"Delta":56104120},{"NoteNumber":61,"Velocity":55,"Duration":75930,"SoundDuration":75930,"Delta":56104120},{"NoteNumber":58,"Velocity":55,"Duration":75930,"SoundDuration":75930,"Delta":56104120},{"NoteNumber":66,"Velocity":52,"Duration":76726,"SoundDuration":76726,"Delta":56255980},{"NoteNumber":62,"Velocity":52,"Duration":76726,"SoundDuration":76726,"Delta":56255980},{"NoteNumber":59,"Velocity":52,"Duration":76726,"SoundDuration":76726,"Delta":56255980},{"NoteNumber":47,"Velocity":58,"Duration":76726,"SoundDuration":76726,"Delta":56255980},{"NoteNumber":62,"Velocity":60,"Duration":75930,"SoundDuration":75930,"Delta":56409433},{"NoteNumber":71,"Velocity":66,"Duration":75930,"SoundDuration":75930,"Delta":56409433},{"NoteNumber":66,"Velocity":60,"Duration":75930,"SoundDuration":75930,"Delta":56409433},{"NoteNumber":54,"Velocity":49,"Duration":75930,"SoundDuration":75930,"Delta":56409433},{"NoteNumber":50,"Velocity":49,"Duration":75930,"SoundDuration":75930,"Delta":56409433},{"NoteNumber":59,"Velocity":55,"Duration":75930,"SoundDuration":75930,"Delta":56409433},{"NoteNumber":70,"Velocity":62,"Duration":75930,"SoundDuration":75930,"Delta":56561293},{"NoteNumber":66,"Velocity":57,"Duration":75930,"SoundDuration":75930,"Delta":56561293},{"NoteNumber":62,"Velocity":57,"Duration":75930,"SoundDuration":75930,"Delta":56561293},{"NoteNumber":50,"Velocity":45,"Duration":75930,"SoundDuration":75930,"Delta":56561293},{"NoteNumber":58,"Velocity":50,"Duration":75930,"SoundDuration":75930,"Delta":56561293},{"NoteNumber":54,"Velocity":45,"Duration":75930,"SoundDuration":75930,"Delta":56561293},{"NoteNumber":62,"Velocity":60,"Duration":76526,"SoundDuration":76526,"Delta":56713154},{"NoteNumber":66,"Velocity":60,"Duration":76526,"SoundDuration":76526,"Delta":56713154},{"NoteNumber":71,"Velocity":66,"Duration":76526,"SoundDuration":76526,"Delta":56713154},{"NoteNumber":54,"Velocity":48,"Duration":76526,"SoundDuration":76526,"Delta":56713154},{"NoteNumber":59,"Velocity":54,"Duration":76526,"SoundDuration":76526,"Delta":56713154},{"NoteNumber":50,"Velocity":48,"Duration":76526,"SoundDuration":76526,"Delta":56713154},{"NoteNumber":74,"Velocity":67,"Duration":75930,"SoundDuration":75930,"Delta":56866207},{"NoteNumber":71,"Velocity":61,"Duration":75930,"SoundDuration":75930,"Delta":56866207},{"NoteNumber":66,"Velocity":61,"Duration":75930,"SoundDuration":75930,"Delta":56866207},{"NoteNumber":54,"Velocity":50,"Duration":75930,"SoundDuration":75930,"Delta":56866207},{"NoteNumber":62,"Velocity":56,"Duration":75930,"SoundDuration":75930,"Delta":56866207},{"NoteNumber":59,"Velocity":50,"Duration":75930,"SoundDuration":75930,"Delta":56866207},{"NoteNumber":73,"Velocity":63,"Duration":75930,"SoundDuration":75930,"Delta":57018068},{"NoteNumber":66,"Velocity":58,"Duration":75930,"SoundDuration":75930,"Delta":57018068},{"NoteNumber":71,"Velocity":58,"Duration":75930,"SoundDuration":75930,"Delta":57018068},{"NoteNumber":59,"Velocity":48,"Duration":75930,"SoundDuration":75930,"Delta":57018068},{"NoteNumber":54,"Velocity":48,"Duration":75930,"SoundDuration":75930,"Delta":57018068},{"NoteNumber":61,"Velocity":54,"Duration":75930,"SoundDuration":75930,"Delta":57018068},{"NoteNumber":66,"Velocity":63,"Duration":76526,"SoundDuration":76526,"Delta":57169928},{"NoteNumber":71,"Velocity":63,"Duration":76526,"SoundDuration":76526,"Delta":57169928},{"NoteNumber":74,"Velocity":69,"Duration":76526,"SoundDuration":76526,"Delta":57169928},{"NoteNumber":59,"Velocity":52,"Duration":76526,"SoundDuration":76526,"Delta":57169928},{"NoteNumber":54,"Velocity":52,"Duration":76526,"SoundDuration":76526,"Delta":57169928},{"NoteNumber":62,"Velocity":58,"Duration":76526,"SoundDuration":76526,"Delta":57169928},{"NoteNumber":78,"Velocity":69,"Duration":75930,"SoundDuration":75930,"Delta":57322982},{"NoteNumber":74,"Velocity":63,"Duration":75930,"SoundDuration":75930,"Delta":57322982},{"NoteNumber":71,"Velocity":63,"Duration":75930,"SoundDuration":75930,"Delta":57322982},{"NoteNumber":62,"Velocity":48,"Duration":75930,"SoundDuration":75930,"Delta":57322982},{"NoteNumber":59,"Velocity":48,"Duration":75930,"SoundDuration":75930,"Delta":57322982},{"NoteNumber":66,"Velocity":54,"Duration":75930,"SoundDuration":75930,"Delta":57322982},{"NoteNumber":77,"Velocity":67,"Duration":75930,"SoundDuration":75930,"Delta":57474842},{"NoteNumber":74,"Velocity":61,"Duration":75930,"SoundDuration":75930,"Delta":57474842},{"NoteNumber":71,"Velocity":61,"Duration":75930,"SoundDuration":75930,"Delta":57474842},{"NoteNumber":65,"Velocity":59,"Duration":75930,"SoundDuration":75930,"Delta":57474842},{"NoteNumber":59,"Velocity":53,"Duration":75930,"SoundDuration":75930,"Delta":57474842},{"NoteNumber":62,"Velocity":53,"Duration":75930,"SoundDuration":75930,"Delta":57474842},{"NoteNumber":78,"Velocity":72,"Duration":76327,"SoundDuration":76327,"Delta":57626703},{"NoteNumber":74,"Velocity":66,"Duration":76327,"SoundDuration":76327,"Delta":57626703},{"NoteNumber":71,"Velocity":66,"Duration":76327,"SoundDuration":76327,"Delta":57626703},{"NoteNumber":62,"Velocity":54,"Duration":76327,"SoundDuration":76327,"Delta":57626703},{"NoteNumber":66,"Velocity":60,"Duration":76327,"SoundDuration":76327,"Delta":57626703},{"NoteNumber":59,"Velocity":54,"Duration":76327,"SoundDuration":76327,"Delta":57626703},{"NoteNumber":83,"Velocity":73,"Duration":75930,"SoundDuration":75930,"Delta":57779359},{"NoteNumber":78,"Velocity":67,"Duration":75930,"SoundDuration":75930,"Delta":57779359},{"NoteNumber":74,"Velocity":67,"Duration":75930,"SoundDuration":75930,"Delta":57779359},{"NoteNumber":66,"Velocity":51,"Duration":75930,"SoundDuration":75930,"Delta":57779359},{"NoteNumber":71,"Velocity":57,"Duration":75930,"SoundDuration":75930,"Delta":57779359},{"NoteNumber":62,"Velocity":51,"Duration":75930,"SoundDuration":75930,"Delta":57779359},{"NoteNumber":74,"Velocity":63,"Duration":75930,"SoundDuration":75930,"Delta":57931219},{"NoteNumber":82,"Velocity":69,"Duration":75930,"SoundDuration":75930,"Delta":57931219},{"NoteNumber":78,"Velocity":63,"Duration":75930,"SoundDuration":75930,"Delta":57931219},{"NoteNumber":62,"Velocity":55,"Duration":75930,"SoundDuration":75930,"Delta":57931219},{"NoteNumber":70,"Velocity":62,"Duration":75930,"SoundDuration":75930,"Delta":57931219},{"NoteNumber":66,"Velocity":55,"Duration":75930,"SoundDuration":75930,"Delta":57931219},{"NoteNumber":83,"Velocity":74,"Duration":76526,"SoundDuration":76526,"Delta":58083080},{"NoteNumber":78,"Velocity":68,"Duration":76526,"SoundDuration":76526,"Delta":58083080},{"NoteNumber":74,"Velocity":68,"Duration":76526,"SoundDuration":76526,"Delta":58083080},{"NoteNumber":62,"Velocity":55,"Duration":76526,"SoundDuration":76526,"Delta":58083080},{"NoteNumber":71,"Velocity":62,"Duration":76526,"SoundDuration":76526,"Delta":58083080},{"NoteNumber":66,"Velocity":55,"Duration":76526,"SoundDuration":76526,"Delta":58083080},{"NoteNumber":86,"Velocity":75,"Duration":75930,"SoundDuration":75930,"Delta":58236133},{"NoteNumber":83,"Velocity":69,"Duration":75930,"SoundDuration":75930,"Delta":58236133},{"NoteNumber":78,"Velocity":69,"Duration":75930,"SoundDuration":75930,"Delta":58236133},{"NoteNumber":71,"Velocity":55,"Duration":75930,"SoundDuration":75930,"Delta":58236133},{"NoteNumber":66,"Velocity":55,"Duration":75930,"SoundDuration":75930,"Delta":58236133},{"NoteNumber":74,"Velocity":62,"Duration":75930,"SoundDuration":75930,"Delta":58236133},{"NoteNumber":78,"Velocity":63,"Duration":75930,"SoundDuration":75930,"Delta":58387994},{"NoteNumber":85,"Velocity":69,"Duration":75930,"SoundDuration":75930,"Delta":58387994},{"NoteNumber":83,"Velocity":63,"Duration":75930,"SoundDuration":75930,"Delta":58387994},{"NoteNumber":71,"Velocity":52,"Duration":75930,"SoundDuration":75930,"Delta":58387994},{"NoteNumber":73,"Velocity":58,"Duration":75930,"SoundDuration":75930,"Delta":58387994},{"NoteNumber":66,"Velocity":52,"Duration":75930,"SoundDuration":75930,"Delta":58387994},{"NoteNumber":83,"Velocity":70,"Duration":76526,"SoundDuration":76526,"Delta":58539854},{"NoteNumber":78,"Velocity":70,"Duration":76526,"SoundDuration":76526,"Delta":58539854},{"NoteNumber":86,"Velocity":77,"Duration":76526,"SoundDuration":76526,"Delta":58539854},{"NoteNumber":71,"Velocity":57,"Duration":76526,"SoundDuration":76526,"Delta":58539854},{"NoteNumber":66,"Velocity":57,"Duration":76526,"SoundDuration":76526,"Delta":58539854},{"NoteNumber":74,"Velocity":64,"Duration":76526,"SoundDuration":76526,"Delta":58539854},{"NoteNumber":83,"Velocity":71,"Duration":75930,"SoundDuration":75930,"Delta":58692908},{"NoteNumber":86,"Velocity":71,"Duration":75930,"SoundDuration":75930,"Delta":58692908},{"NoteNumber":90,"Velocity":78,"Duration":75930,"SoundDuration":75930,"Delta":58692908},{"NoteNumber":71,"Velocity":58,"Duration":75930,"SoundDuration":75930,"Delta":58692908},{"NoteNumber":78,"Velocity":65,"Duration":75930,"SoundDuration":75930,"Delta":58692908},{"NoteNumber":74,"Velocity":58,"Duration":75930,"SoundDuration":75930,"Delta":58692908},{"NoteNumber":83,"Velocity":66,"Duration":75930,"SoundDuration":75930,"Delta":58844768},{"NoteNumber":86,"Velocity":66,"Duration":75930,"SoundDuration":75930,"Delta":58844768},{"NoteNumber":89,"Velocity":72,"Duration":75930,"SoundDuration":75930,"Delta":58844768},{"NoteNumber":74,"Velocity":56,"Duration":75930,"SoundDuration":75930,"Delta":58844768},{"NoteNumber":71,"Velocity":56,"Duration":75930,"SoundDuration":75930,"Delta":58844768},{"NoteNumber":77,"Velocity":63,"Duration":75930,"SoundDuration":75930,"Delta":58844768},{"NoteNumber":86,"Velocity":73,"Duration":75930,"SoundDuration":75930,"Delta":58996629},{"NoteNumber":83,"Velocity":73,"Duration":75930,"SoundDuration":75930,"Delta":58996629},{"NoteNumber":90,"Velocity":80,"Duration":75930,"SoundDuration":75930,"Delta":58996629},{"NoteNumber":71,"Velocity":60,"Duration":75930,"SoundDuration":75930,"Delta":58996629},{"NoteNumber":78,"Velocity":67,"Duration":75930,"SoundDuration":75930,"Delta":58996629},{"NoteNumber":74,"Velocity":60,"Duration":75930,"SoundDuration":75930,"Delta":58996629},{"NoteNumber":86,"Velocity":73,"Duration":75930,"SoundDuration":75930,"Delta":59148489},{"NoteNumber":90,"Velocity":73,"Duration":75930,"SoundDuration":75930,"Delta":59148489},{"NoteNumber":95,"Velocity":80,"Duration":75930,"SoundDuration":75930,"Delta":59148489},{"NoteNumber":74,"Velocity":60,"Duration":75930,"SoundDuration":75930,"Delta":59148489},{"NoteNumber":71,"Velocity":60,"Duration":75930,"SoundDuration":75930,"Delta":59148489},{"NoteNumber":83,"Velocity":67,"Duration":75930,"SoundDuration":75930,"Delta":59148489},{"NoteNumber":78,"Velocity":67,"Duration":75930,"SoundDuration":75930,"Delta":59148489},{"NoteNumber":86,"Velocity":70,"Duration":75734,"SoundDuration":75734,"Delta":59300220},{"NoteNumber":90,"Velocity":70,"Duration":75734,"SoundDuration":75734,"Delta":59300220},{"NoteNumber":94,"Velocity":76,"Duration":75734,"SoundDuration":75734,"Delta":59300220},{"NoteNumber":74,"Velocity":57,"Duration":75734,"SoundDuration":75734,"Delta":59300220},{"NoteNumber":71,"Velocity":57,"Duration":75734,"SoundDuration":75734,"Delta":59300220},{"NoteNumber":82,"Velocity":64,"Duration":75734,"SoundDuration":75734,"Delta":59300220},{"NoteNumber":78,"Velocity":64,"Duration":75734,"SoundDuration":75734,"Delta":59300220},{"NoteNumber":95,"Velocity":86,"Duration":75475,"SoundDuration":75475,"Delta":59451494},{"NoteNumber":90,"Velocity":78,"Duration":75475,"SoundDuration":75475,"Delta":59451494},{"NoteNumber":86,"Velocity":78,"Duration":75475,"SoundDuration":75475,"Delta":59451494},{"NoteNumber":71,"Velocity":65,"Duration":75475,"SoundDuration":75475,"Delta":59451494},{"NoteNumber":78,"Velocity":72,"Duration":75475,"SoundDuration":75475,"Delta":59451494},{"NoteNumber":74,"Velocity":65,"Duration":75475,"SoundDuration":75475,"Delta":59451494},{"NoteNumber":83,"Velocity":72,"Duration":75475,"SoundDuration":75475,"Delta":59451494},{"NoteNumber":86,"Velocity":82,"Duration":75150,"SoundDuration":75150,"Delta":59602316},{"NoteNumber":90,"Velocity":82,"Duration":75150,"SoundDuration":75150,"Delta":59602316},{"NoteNumber":95,"Velocity":90,"Duration":75150,"SoundDuration":75150,"Delta":59602316},{"NoteNumber":71,"Velocity":65,"Duration":75150,"SoundDuration":75150,"Delta":59602316},{"NoteNumber":78,"Velocity":73,"Duration":75150,"SoundDuration":75150,"Delta":59602316},{"NoteNumber":74,"Velocity":65,"Duration":75150,"SoundDuration":75150,"Delta":59602316},{"NoteNumber":83,"Velocity":73,"Duration":75150,"SoundDuration":75150,"Delta":59602316},{"NoteNumber":94,"Velocity":85,"Duration":77128,"SoundDuration":77128,"Delta":59752617},{"NoteNumber":90,"Velocity":77,"Duration":77128,"SoundDuration":77128,"Delta":59752617},{"NoteNumber":86,"Velocity":77,"Duration":77128,"SoundDuration":77128,"Delta":59752617},{"NoteNumber":71,"Velocity":63,"Duration":77128,"SoundDuration":77128,"Delta":59752617},{"NoteNumber":78,"Velocity":71,"Duration":77128,"SoundDuration":77128,"Delta":59752617},{"NoteNumber":74,"Velocity":63,"Duration":77128,"SoundDuration":77128,"Delta":59752617},{"NoteNumber":82,"Velocity":71,"Duration":77128,"SoundDuration":77128,"Delta":59752617},{"NoteNumber":95,"Velocity":93,"Duration":75930,"SoundDuration":75930,"Delta":59906874},{"NoteNumber":86,"Velocity":85,"Duration":75930,"SoundDuration":75930,"Delta":59906874},{"NoteNumber":90,"Velocity":85,"Duration":75930,"SoundDuration":75930,"Delta":59906874},{"NoteNumber":74,"Velocity":69,"Duration":75930,"SoundDuration":75930,"Delta":59906874},{"NoteNumber":71,"Velocity":69,"Duration":75930,"SoundDuration":75930,"Delta":59906874},{"NoteNumber":83,"Velocity":78,"Duration":75930,"SoundDuration":75930,"Delta":59906874},{"NoteNumber":78,"Velocity":78,"Duration":75930,"SoundDuration":75930,"Delta":59906874},{"NoteNumber":74,"Velocity":81,"Duration":82644,"SoundDuration":82644,"Delta":60362456},{"NoteNumber":78,"Velocity":81,"Duration":82644,"SoundDuration":82644,"Delta":60362456},{"NoteNumber":83,"Velocity":89,"Duration":82644,"SoundDuration":82644,"Delta":60362456},{"NoteNumber":66,"Velocity":66,"Duration":82644,"SoundDuration":82644,"Delta":60362456},{"NoteNumber":71,"Velocity":74,"Duration":82644,"SoundDuration":82644,"Delta":60362456},{"NoteNumber":59,"Velocity":66,"Duration":82644,"SoundDuration":82644,"Delta":60362456},{"NoteNumber":71,"Velocity":89,"Duration":88495,"SoundDuration":88495,"Delta":60858324},{"NoteNumber":66,"Velocity":81,"Duration":88495,"SoundDuration":88495,"Delta":60858324},{"NoteNumber":62,"Velocity":81,"Duration":88495,"SoundDuration":88495,"Delta":60858324},{"NoteNumber":54,"Velocity":66,"Duration":88495,"SoundDuration":88495,"Delta":60858324},{"NoteNumber":59,"Velocity":74,"Duration":88495,"SoundDuration":88495,"Delta":60858324},{"NoteNumber":47,"Velocity":66,"Duration":88495,"SoundDuration":88495,"Delta":60858324},{"NoteNumber":42,"Velocity":66,"Duration":106383,"SoundDuration":106383,"Delta":61389297},{"NoteNumber":35,"Velocity":66,"Duration":106383,"SoundDuration":106383,"Delta":61389297},{"NoteNumber":50,"Velocity":74,"Duration":106383,"SoundDuration":106383,"Delta":61389297},{"NoteNumber":54,"Velocity":74,"Duration":106383,"SoundDuration":106383,"Delta":61389297},{"NoteNumber":59,"Velocity":81,"Duration":106383,"SoundDuration":106383,"Delta":61389297},{"NoteNumber":47,"Velocity":74,"Duration":106383,"SoundDuration":106383,"Delta":61389297},{"NoteNumber":66,"Velocity":42,"Duration":1938743,"SoundDuration":1938743,"Delta":62419354},{"NoteNumber":74,"Velocity":55,"Duration":486565,"SoundDuration":486565,"Delta":62419354},{"NoteNumber":57,"Velocity":36,"Duration":1938743,"SoundDuration":1938743,"Delta":62419354},{"NoteNumber":50,"Velocity":36,"Duration":1938743,"SoundDuration":1938743,"Delta":62419354},{"NoteNumber":73,"Velocity":51,"Duration":482806,"SoundDuration":482806,"Delta":62905919},{"NoteNumber":71,"Velocity":52,"Duration":324376,"SoundDuration":324376,"Delta":63388726},{"NoteNumber":69,"Velocity":47,"Duration":162188,"SoundDuration":162188,"Delta":63713103},{"NoteNumber":69,"Velocity":47,"Duration":482806,"SoundDuration":482806,"Delta":63875291},{"NoteNumber":64,"Velocity":42,"Duration":959018,"SoundDuration":959018,"Delta":64358098},{"NoteNumber":71,"Velocity":55,"Duration":477452,"SoundDuration":477452,"Delta":64358098},{"NoteNumber":49,"Velocity":36,"Duration":959018,"SoundDuration":959018,"Delta":64358098},{"NoteNumber":57,"Velocity":36,"Duration":1932744,"SoundDuration":1932744,"Delta":64358098},{"NoteNumber":69,"Velocity":51,"Duration":481566,"SoundDuration":481566,"Delta":64835551},{"NoteNumber":63,"Velocity":42,"Duration":973725,"SoundDuration":973725,"Delta":65317117},{"NoteNumber":67,"Velocity":55,"Duration":324376,"SoundDuration":324376,"Delta":65317117},{"NoteNumber":48,"Velocity":36,"Duration":973725,"SoundDuration":973725,"Delta":65317117},{"NoteNumber":66,"Velocity":51,"Duration":162188,"SoundDuration":162188,"Delta":65641494},{"NoteNumber":66,"Velocity":51,"Duration":487160,"SoundDuration":487160,"Delta":65803682},{"NoteNumber":69,"Velocity":55,"Duration":477452,"SoundDuration":477452,"Delta":66290843},{"NoteNumber":62,"Velocity":42,"Duration":477452,"SoundDuration":477452,"Delta":66290843},{"NoteNumber":47,"Velocity":36,"Duration":1947861,"SoundDuration":1947861,"Delta":66290843},{"NoteNumber":54,"Velocity":36,"Duration":960259,"SoundDuration":960259,"Delta":66290843},{"NoteNumber":62,"Velocity":51,"Duration":482806,"SoundDuration":482806,"Delta":66768296},{"NoteNumber":62,"Velocity":42,"Duration":987602,"SoundDuration":987602,"Delta":67251102},{"NoteNumber":66,"Velocity":55,"Duration":324376,"SoundDuration":324376,"Delta":67251102},{"NoteNumber":56,"Velocity":36,"Duration":987602,"SoundDuration":987602,"Delta":67251102},{"NoteNumber":64,"Velocity":51,"Duration":162188,"SoundDuration":162188,"Delta":67575479},{"NoteNumber":64,"Velocity":51,"Duration":501036,"SoundDuration":501036,"Delta":67737668},{"NoteNumber":66,"Velocity":55,"Duration":493150,"SoundDuration":493150,"Delta":68238705},{"NoteNumber":59,"Velocity":42,"Duration":493150,"SoundDuration":493150,"Delta":68238705},{"NoteNumber":44,"Velocity":36,"Duration":991765,"SoundDuration":991765,"Delta":68238705},{"NoteNumber":50,"Velocity":36,"Duration":991765,"SoundDuration":991765,"Delta":68238705},{"NoteNumber":59,"Velocity":51,"Duration":498615,"SoundDuration":498615,"Delta":68731855},{"NoteNumber":58,"Velocity":40,"Duration":1002917,"SoundDuration":1002917,"Delta":69230470},{"NoteNumber":62,"Velocity":53,"Duration":330579,"SoundDuration":330579,"Delta":69230470},{"NoteNumber":43,"Velocity":36,"Duration":1002917,"SoundDuration":1002917,"Delta":69230470},{"NoteNumber":52,"Velocity":36,"Duration":1002917,"SoundDuration":1002917,"Delta":69230470},{"NoteNumber":61,"Velocity":49,"Duration":165289,"SoundDuration":165289,"Delta":69561049},{"NoteNumber":61,"Velocity":49,"Duration":507049,"SoundDuration":507049,"Delta":69726339},{"NoteNumber":57,"Velocity":47,"Duration":966940,"SoundDuration":966940,"Delta":70233388},{"NoteNumber":69,"Velocity":47,"Duration":966940,"SoundDuration":966940,"Delta":70233388},{"NoteNumber":62,"Velocity":47,"Duration":966940,"SoundDuration":966940,"Delta":70233388},{"NoteNumber":42,"Velocity":47,"Duration":966940,"SoundDuration":966940,"Delta":70233388},{"NoteNumber":45,"Velocity":58,"Duration":485305,"SoundDuration":485305,"Delta":70233388},{"NoteNumber":47,"Velocity":55,"Duration":481634,"SoundDuration":481634,"Delta":70718694},{"NoteNumber":54,"Velocity":46,"Duration":966871,"SoundDuration":966871,"Delta":71200329},{"NoteNumber":57,"Velocity":46,"Duration":966871,"SoundDuration":966871,"Delta":71200329},{"NoteNumber":45,"Velocity":46,"Duration":966871,"SoundDuration":966871,"Delta":71200329},{"NoteNumber":49,"Velocity":57,"Duration":323537,"SoundDuration":323537,"Delta":71200329},{"NoteNumber":50,"Velocity":54,"Duration":161768,"SoundDuration":161768,"Delta":71523866},{"NoteNumber":50,"Velocity":54,"Duration":481566,"SoundDuration":481566,"Delta":71685634},{"NoteNumber":64,"Velocity":49,"Duration":957829,"SoundDuration":957829,"Delta":72167200},{"NoteNumber":71,"Velocity":49,"Duration":957829,"SoundDuration":957829,"Delta":72167200},{"NoteNumber":74,"Velocity":49,"Duration":957829,"SoundDuration":957829,"Delta":72167200},{"NoteNumber":44,"Velocity":49,"Duration":957829,"SoundDuration":957829,"Delta":72167200},{"NoteNumber":52,"Velocity":58,"Duration":478723,"SoundDuration":478723,"Delta":72167200},{"NoteNumber":54,"Velocity":57,"Duration":479106,"SoundDuration":479106,"Delta":72645924},{"NoteNumber":59,"Velocity":52,"Duration":963159,"SoundDuration":963159,"Delta":73125030},{"NoteNumber":64,"Velocity":52,"Duration":963159,"SoundDuration":963159,"Delta":73125030},{"NoteNumber":50,"Velocity":52,"Duration":963159,"SoundDuration":963159,"Delta":73125030},{"NoteNumber":55,"Velocity":67,"Duration":322702,"SoundDuration":322702,"Delta":73125030},{"NoteNumber":56,"Velocity":59,"Duration":161350,"SoundDuration":161350,"Delta":73447732},{"NoteNumber":56,"Velocity":59,"Duration":479106,"SoundDuration":479106,"Delta":73609083},{"NoteNumber":64,"Velocity":52,"Duration":965257,"SoundDuration":965257,"Delta":74088189},{"NoteNumber":76,"Velocity":52,"Duration":965257,"SoundDuration":965257,"Delta":74088189},{"NoteNumber":49,"Velocity":54,"Duration":965257,"SoundDuration":965257,"Delta":74088189},{"NoteNumber":56,"Velocity":70,"Duration":477452,"SoundDuration":477452,"Delta":74088189},{"NoteNumber":57,"Velocity":66,"Duration":487804,"SoundDuration":487804,"Delta":74565642},{"NoteNumber":63,"Velocity":50,"Duration":994611,"SoundDuration":994611,"Delta":75053446},{"NoteNumber":69,"Velocity":50,"Duration":994611,"SoundDuration":994611,"Delta":75053446},{"NoteNumber":54,"Velocity":69,"Duration":994611,"SoundDuration":994611,"Delta":75053446},{"NoteNumber":59,"Velocity":69,"Duration":330579,"SoundDuration":330579,"Delta":75053446},{"NoteNumber":60,"Velocity":63,"Duration":165289,"SoundDuration":165289,"Delta":75384025},{"NoteNumber":60,"Velocity":63,"Duration":498742,"SoundDuration":498742,"Delta":75549315},{"NoteNumber":69,"Velocity":56,"Duration":499999,"SoundDuration":499999,"Delta":76048057},{"NoteNumber":76,"Velocity":56,"Duration":499999,"SoundDuration":499999,"Delta":76048057},{"NoteNumber":81,"Velocity":56,"Duration":499999,"SoundDuration":499999,"Delta":76048057},{"NoteNumber":52,"Velocity":60,"Duration":988699,"SoundDuration":988699,"Delta":76048057},{"NoteNumber":61,"Velocity":68,"Duration":499999,"SoundDuration":499999,"Delta":76048057},{"NoteNumber":69,"Velocity":56,"Duration":488700,"SoundDuration":488700,"Delta":76548057},{"NoteNumber":73,"Velocity":56,"Duration":488700,"SoundDuration":488700,"Delta":76548057},{"NoteNumber":66,"Velocity":68,"Duration":326975,"SoundDuration":326975,"Delta":76548057},{"NoteNumber":64,"Velocity":55,"Duration":161725,"SoundDuration":161725,"Delta":76875032},{"NoteNumber":68,"Velocity":53,"Duration":494505,"SoundDuration":494505,"Delta":77036757},{"NoteNumber":73,"Velocity":69,"Duration":329669,"SoundDuration":329669,"Delta":77036757},{"NoteNumber":52,"Velocity":45,"Duration":494505,"SoundDuration":494505,"Delta":77036757},{"NoteNumber":62,"Velocity":49,"Duration":494505,"SoundDuration":494505,"Delta":77036757},{"NoteNumber":71,"Velocity":60,"Duration":164835,"SoundDuration":164835,"Delta":77366427},{"NoteNumber":69,"Velocity":60,"Duration":517757,"SoundDuration":517757,"Delta":77531262},{"NoteNumber":57,"Velocity":43,"Duration":517757,"SoundDuration":517757,"Delta":77531262},{"NoteNumber":61,"Velocity":46,"Duration":517757,"SoundDuration":517757,"Delta":77531262},{"NoteNumber":67,"Velocity":47,"Duration":969371,"SoundDuration":969371,"Delta":78049020},{"NoteNumber":76,"Velocity":55,"Duration":486565,"SoundDuration":486565,"Delta":78049020},{"NoteNumber":57,"Velocity":41,"Duration":1943097,"SoundDuration":1943097,"Delta":78049020},{"NoteNumber":49,"Velocity":41,"Duration":969371,"SoundDuration":969371,"Delta":78049020},{"NoteNumber":69,"Velocity":51,"Duration":482806,"SoundDuration":482806,"Delta":78535585},{"NoteNumber":66,"Velocity":47,"Duration":973725,"SoundDuration":973725,"Delta":79018392},{"NoteNumber":71,"Velocity":55,"Duration":324376,"SoundDuration":324376,"Delta":79018392},{"NoteNumber":50,"Velocity":41,"Duration":973725,"SoundDuration":973725,"Delta":79018392},{"NoteNumber":69,"Velocity":51,"Duration":162188,"SoundDuration":162188,"Delta":79342769},{"NoteNumber":69,"Velocity":51,"Duration":487160,"SoundDuration":487160,"Delta":79504957},{"NoteNumber":71,"Velocity":47,"Duration":962806,"SoundDuration":962806,"Delta":79992118},{"NoteNumber":69,"Velocity":47,"Duration":962806,"SoundDuration":962806,"Delta":79992118},{"NoteNumber":66,"Velocity":55,"Duration":480000,"SoundDuration":480000,"Delta":79992118},{"NoteNumber":51,"Velocity":41,"Duration":962806,"SoundDuration":962806,"Delta":79992118},{"NoteNumber":59,"Velocity":51,"Duration":482806,"SoundDuration":482806,"Delta":80472118},{"NoteNumber":69,"Velocity":47,"Duration":486565,"SoundDuration":486565,"Delta":80954924},{"NoteNumber":67,"Velocity":47,"Duration":486565,"SoundDuration":486565,"Delta":80954924},{"NoteNumber":61,"Velocity":53,"Duration":324376,"SoundDuration":324376,"Delta":80954924},{"NoteNumber":52,"Velocity":48,"Duration":974641,"SoundDuration":974641,"Delta":80954924},{"NoteNumber":59,"Velocity":50,"Duration":162188,"SoundDuration":162188,"Delta":81279301},{"NoteNumber":68,"Velocity":36,"Duration":488076,"SoundDuration":488076,"Delta":81441490},{"NoteNumber":71,"Velocity":36,"Duration":488076,"SoundDuration":488076,"Delta":81441490},{"NoteNumber":59,"Velocity":50,"Duration":488076,"SoundDuration":488076,"Delta":81441490},{"NoteNumber":71,"Velocity":49,"Duration":964090,"SoundDuration":964090,"Delta":81929566},{"NoteNumber":80,"Velocity":57,"Duration":481284,"SoundDuration":481284,"Delta":81929566},{"NoteNumber":61,"Velocity":43,"Duration":1933462,"SoundDuration":1933462,"Delta":81929566},{"NoteNumber":53,"Velocity":43,"Duration":964090,"SoundDuration":964090,"Delta":81929566},{"NoteNumber":73,"Velocity":53,"Duration":482806,"SoundDuration":482806,"Delta":82410850},{"NoteNumber":74,"Velocity":57,"Duration":324376,"SoundDuration":324376,"Delta":82893656},{"NoteNumber":69,"Velocity":49,"Duration":969371,"SoundDuration":969371,"Delta":82893656},{"NoteNumber":54,"Velocity":43,"Duration":969371,"SoundDuration":969371,"Delta":82893656},{"NoteNumber":73,"Velocity":53,"Duration":162120,"SoundDuration":162120,"Delta":83226818},{"NoteNumber":73,"Velocity":53,"Duration":482806,"SoundDuration":482806,"Delta":83380222},{"NoteNumber":74,"Velocity":49,"Duration":974305,"SoundDuration":974305,"Delta":83863028},{"NoteNumber":72,"Velocity":49,"Duration":974305,"SoundDuration":974305,"Delta":83863028},{"NoteNumber":69,"Velocity":57,"Duration":485174,"SoundDuration":485174,"Delta":83863028},{"NoteNumber":54,"Velocity":43,"Duration":974305,"SoundDuration":974305,"Delta":83863028},{"NoteNumber":62,"Velocity":53,"Duration":489130,"SoundDuration":489130,"Delta":84348203},{"NoteNumber":73,"Velocity":49,"Duration":501392,"SoundDuration":501392,"Delta":84837334},{"NoteNumber":70,"Velocity":49,"Duration":501392,"SoundDuration":501392,"Delta":84837334},{"NoteNumber":64,"Velocity":55,"Duration":334261,"SoundDuration":334261,"Delta":84837334},{"NoteNumber":55,"Velocity":50,"Duration":993196,"SoundDuration":993196,"Delta":84837334},{"NoteNumber":62,"Velocity":52,"Duration":167130,"SoundDuration":167130,"Delta":85171596},{"NoteNumber":71,"Velocity":45,"Duration":491803,"SoundDuration":491803,"Delta":85338727},{"NoteNumber":74,"Velocity":45,"Duration":491803,"SoundDuration":491803,"Delta":85338727},{"NoteNumber":62,"Velocity":52,"Duration":491803,"SoundDuration":491803,"Delta":85338727},{"NoteNumber":74,"Velocity":53,"Duration":969371,"SoundDuration":969371,"Delta":85830530},{"NoteNumber":83,"Velocity":62,"Duration":486565,"SoundDuration":486565,"Delta":85830530},{"NoteNumber":64,"Velocity":47,"Duration":1944474,"SoundDuration":1944474,"Delta":85830530},{"NoteNumber":56,"Velocity":47,"Duration":969371,"SoundDuration":969371,"Delta":85830530},{"NoteNumber":76,"Velocity":58,"Duration":482806,"SoundDuration":482806,"Delta":86317096},{"NoteNumber":75,"Velocity":65,"Duration":324376,"SoundDuration":324376,"Delta":86799902},{"NoteNumber":73,"Velocity":56,"Duration":975103,"SoundDuration":975103,"Delta":86799902},{"NoteNumber":57,"Velocity":47,"Duration":975103,"SoundDuration":975103,"Delta":86799902},{"NoteNumber":76,"Velocity":63,"Duration":162188,"SoundDuration":162188,"Delta":87124279},{"NoteNumber":76,"Velocity":63,"Duration":488537,"SoundDuration":488537,"Delta":87286468},{"NoteNumber":76,"Velocity":54,"Duration":967316,"SoundDuration":967316,"Delta":87775005},{"NoteNumber":85,"Velocity":68,"Duration":482573,"SoundDuration":482573,"Delta":87775005},{"NoteNumber":66,"Velocity":51,"Duration":1953685,"SoundDuration":1953685,"Delta":87775005},{"NoteNumber":58,"Velocity":46,"Duration":967316,"SoundDuration":967316,"Delta":87775005},{"NoteNumber":78,"Velocity":63,"Duration":484742,"SoundDuration":484742,"Delta":88257579},{"NoteNumber":77,"Velocity":71,"Duration":331491,"SoundDuration":331491,"Delta":88742322},{"NoteNumber":74,"Velocity":61,"Duration":986368,"SoundDuration":986368,"Delta":88742322},{"NoteNumber":59,"Velocity":47,"Duration":986368,"SoundDuration":986368,"Delta":88742322},{"NoteNumber":78,"Velocity":69,"Duration":165745,"SoundDuration":165745,"Delta":89073814},{"NoteNumber":78,"Velocity":69,"Duration":489130,"SoundDuration":489130,"Delta":89239560},{"NoteNumber":68,"Velocity":58,"Duration":1987513,"SoundDuration":1987513,"Delta":89728691},{"NoteNumber":71,"Velocity":58,"Duration":1987513,"SoundDuration":1987513,"Delta":89728691},{"NoteNumber":66,"Velocity":63,"Duration":495868,"SoundDuration":495868,"Delta":89728691},{"NoteNumber":52,"Velocity":51,"Duration":1987513,"SoundDuration":1987513,"Delta":89728691},{"NoteNumber":59,"Velocity":56,"Duration":490462,"SoundDuration":490462,"Delta":90224559},{"NoteNumber":66,"Velocity":60,"Duration":334261,"SoundDuration":334261,"Delta":90715022},{"NoteNumber":64,"Velocity":54,"Duration":167130,"SoundDuration":167130,"Delta":91049284},{"NoteNumber":64,"Velocity":54,"Duration":499789,"SoundDuration":499789,"Delta":91216415},{"NoteNumber":67,"Velocity":57,"Duration":515760,"SoundDuration":515760,"Delta":91716204},{"NoteNumber":74,"Velocity":64,"Duration":515760,"SoundDuration":515760,"Delta":91716204},{"NoteNumber":52,"Velocity":45,"Duration":2169541,"SoundDuration":2169541,"Delta":91716204},{"NoteNumber":46,"Velocity":45,"Duration":1048976,"SoundDuration":1048976,"Delta":91716204},{"NoteNumber":67,"Velocity":57,"Duration":533216,"SoundDuration":533216,"Delta":92231964},{"NoteNumber":67,"Velocity":58,"Duration":1120564,"SoundDuration":1120564,"Delta":92765180},{"NoteNumber":74,"Velocity":58,"Duration":349853,"SoundDuration":349853,"Delta":92765180},{"NoteNumber":45,"Velocity":39,"Duration":1120564,"SoundDuration":1120564,"Delta":92765180},{"NoteNumber":73,"Velocity":51,"Duration":174927,"SoundDuration":174927,"Delta":93115034},{"NoteNumber":73,"Velocity":53,"Duration":595783,"SoundDuration":595783,"Delta":93289961},{"NoteNumber":66,"Velocity":42,"Duration":1938743,"SoundDuration":1938743,"Delta":93885745},{"NoteNumber":74,"Velocity":55,"Duration":486565,"SoundDuration":486565,"Delta":93885745},{"NoteNumber":57,"Velocity":36,"Duration":1938743,"SoundDuration":1938743,"Delta":93885745},{"NoteNumber":50,"Velocity":36,"Duration":1938743,"SoundDuration":1938743,"Delta":93885745},{"NoteNumber":73,"Velocity":51,"Duration":482806,"SoundDuration":482806,"Delta":94372310},{"NoteNumber":71,"Velocity":52,"Duration":324376,"SoundDuration":324376,"Delta":94855117},{"NoteNumber":69,"Velocity":47,"Duration":162188,"SoundDuration":162188,"Delta":95179494},{"NoteNumber":69,"Velocity":47,"Duration":482806,"SoundDuration":482806,"Delta":95341682},{"NoteNumber":64,"Velocity":42,"Duration":967804,"SoundDuration":967804,"Delta":95824489},{"NoteNumber":71,"Velocity":55,"Duration":480000,"SoundDuration":480000,"Delta":95824489},{"NoteNumber":49,"Velocity":36,"Duration":967804,"SoundDuration":967804,"Delta":95824489},{"NoteNumber":57,"Velocity":36,"Duration":1949151,"SoundDuration":1949151,"Delta":95824489},{"NoteNumber":69,"Velocity":51,"Duration":487804,"SoundDuration":487804,"Delta":96304489},{"NoteNumber":63,"Velocity":42,"Duration":981346,"SoundDuration":981346,"Delta":96792293},{"NoteNumber":67,"Velocity":55,"Duration":324376,"SoundDuration":324376,"Delta":96792293},{"NoteNumber":48,"Velocity":36,"Duration":981346,"SoundDuration":981346,"Delta":96792293},{"NoteNumber":66,"Velocity":51,"Duration":162188,"SoundDuration":162188,"Delta":97116670},{"NoteNumber":66,"Velocity":51,"Duration":494781,"SoundDuration":494781,"Delta":97278859},{"NoteNumber":69,"Velocity":55,"Duration":480000,"SoundDuration":480000,"Delta":97773640},{"NoteNumber":62,"Velocity":42,"Duration":480000,"SoundDuration":480000,"Delta":97773640},{"NoteNumber":47,"Velocity":36,"Duration":1942306,"SoundDuration":1942306,"Delta":97773640},{"NoteNumber":54,"Velocity":36,"Duration":962806,"SoundDuration":962806,"Delta":97773640},{"NoteNumber":62,"Velocity":51,"Duration":482806,"SoundDuration":482806,"Delta":98253640},{"NoteNumber":62,"Velocity":42,"Duration":979500,"SoundDuration":979500,"Delta":98736447},{"NoteNumber":66,"Velocity":55,"Duration":324376,"SoundDuration":324376,"Delta":98736447},{"NoteNumber":56,"Velocity":36,"Duration":979500,"SoundDuration":979500,"Delta":98736447},{"NoteNumber":64,"Velocity":51,"Duration":162188,"SoundDuration":162188,"Delta":99060824},{"NoteNumber":64,"Velocity":51,"Duration":492934,"SoundDuration":492934,"Delta":99223012},{"NoteNumber":66,"Velocity":55,"Duration":487804,"SoundDuration":487804,"Delta":99715947},{"NoteNumber":59,"Velocity":42,"Duration":487804,"SoundDuration":487804,"Delta":99715947},{"NoteNumber":44,"Velocity":36,"Duration":986419,"SoundDuration":986419,"Delta":99715947},{"NoteNumber":50,"Velocity":36,"Duration":986419,"SoundDuration":986419,"Delta":99715947},{"NoteNumber":59,"Velocity":51,"Duration":498615,"SoundDuration":498615,"Delta":100203751},{"NoteNumber":58,"Velocity":40,"Duration":1018135,"SoundDuration":1018135,"Delta":100702366},{"NoteNumber":62,"Velocity":53,"Duration":337079,"SoundDuration":337079,"Delta":100702366},{"NoteNumber":43,"Velocity":36,"Duration":1018135,"SoundDuration":1018135,"Delta":100702366},{"NoteNumber":52,"Velocity":36,"Duration":1018135,"SoundDuration":1018135,"Delta":100702366},{"NoteNumber":61,"Velocity":49,"Duration":168539,"SoundDuration":168539,"Delta":101039445},{"NoteNumber":61,"Velocity":49,"Duration":512517,"SoundDuration":512517,"Delta":101207985},{"NoteNumber":57,"Velocity":47,"Duration":972228,"SoundDuration":972228,"Delta":101720502},{"NoteNumber":69,"Velocity":47,"Duration":972228,"SoundDuration":972228,"Delta":101720502},{"NoteNumber":62,"Velocity":47,"Duration":972228,"SoundDuration":972228,"Delta":101720502},{"NoteNumber":42,"Velocity":47,"Duration":972228,"SoundDuration":972228,"Delta":101720502},{"NoteNumber":45,"Velocity":58,"Duration":490462,"SoundDuration":490462,"Delta":101720502},{"NoteNumber":47,"Velocity":55,"Duration":481766,"SoundDuration":481766,"Delta":102210965},{"NoteNumber":62,"Velocity":46,"Duration":982309,"SoundDuration":982309,"Delta":102692731},{"NoteNumber":54,"Velocity":46,"Duration":982309,"SoundDuration":982309,"Delta":102692731},{"NoteNumber":57,"Velocity":46,"Duration":982309,"SoundDuration":982309,"Delta":102692731},{"NoteNumber":45,"Velocity":46,"Duration":982309,"SoundDuration":982309,"Delta":102692731},{"NoteNumber":47,"Velocity":57,"Duration":329669,"SoundDuration":329669,"Delta":102692731},{"NoteNumber":48,"Velocity":54,"Duration":164835,"SoundDuration":164835,"Delta":103022401},{"NoteNumber":48,"Velocity":54,"Duration":487804,"SoundDuration":487804,"Delta":103187236},{"NoteNumber":62,"Velocity":49,"Duration":967770,"SoundDuration":967770,"Delta":103675041},{"NoteNumber":74,"Velocity":49,"Duration":967770,"SoundDuration":967770,"Delta":103675041},{"NoteNumber":67,"Velocity":49,"Duration":967770,"SoundDuration":967770,"Delta":103675041},{"NoteNumber":43,"Velocity":49,"Duration":967770,"SoundDuration":967770,"Delta":103675041},{"NoteNumber":46,"Velocity":61,"Duration":481284,"SoundDuration":481284,"Delta":103675041},{"NoteNumber":47,"Velocity":57,"Duration":486485,"SoundDuration":486485,"Delta":104156325},{"NoteNumber":71,"Velocity":48,"Duration":979607,"SoundDuration":979607,"Delta":104642811},{"NoteNumber":59,"Velocity":48,"Duration":979607,"SoundDuration":979607,"Delta":104642811},{"NoteNumber":65,"Velocity":48,"Duration":979607,"SoundDuration":979607,"Delta":104642811},{"NoteNumber":44,"Velocity":48,"Duration":979607,"SoundDuration":979607,"Delta":104642811},{"NoteNumber":49,"Velocity":60,"Duration":327869,"SoundDuration":327869,"Delta":104642811},{"NoteNumber":50,"Velocity":56,"Duration":163934,"SoundDuration":163934,"Delta":104970680},{"NoteNumber":50,"Velocity":56,"Duration":487804,"SoundDuration":487804,"Delta":105134614},{"NoteNumber":57,"Velocity":51,"Duration":980991,"SoundDuration":980991,"Delta":105622419},{"NoteNumber":69,"Velocity":51,"Duration":980991,"SoundDuration":980991,"Delta":105622419},{"NoteNumber":66,"Velocity":51,"Duration":980991,"SoundDuration":980991,"Delta":105622419},{"NoteNumber":45,"Velocity":51,"Duration":980991,"SoundDuration":980991,"Delta":105622419},{"NoteNumber":50,"Velocity":64,"Duration":494505,"SoundDuration":494505,"Delta":105622419},{"NoteNumber":51,"Velocity":59,"Duration":486485,"SoundDuration":486485,"Delta":106116924},{"NoteNumber":59,"Velocity":50,"Duration":966871,"SoundDuration":966871,"Delta":106603410},{"NoteNumber":64,"Velocity":50,"Duration":966871,"SoundDuration":966871,"Delta":106603410},{"NoteNumber":43,"Velocity":50,"Duration":966871,"SoundDuration":966871,"Delta":106603410},{"NoteNumber":57,"Velocity":63,"Duration":323537,"SoundDuration":323537,"Delta":106603410},{"NoteNumber":55,"Velocity":57,"Duration":161768,"SoundDuration":161768,"Delta":106926947},{"NoteNumber":55,"Velocity":57,"Duration":481566,"SoundDuration":481566,"Delta":107088715},{"NoteNumber":55,"Velocity":45,"Duration":998946,"SoundDuration":998946,"Delta":107570281},{"NoteNumber":61,"Velocity":45,"Duration":998946,"SoundDuration":998946,"Delta":107570281},{"NoteNumber":45,"Velocity":45,"Duration":998946,"SoundDuration":998946,"Delta":107570281},{"NoteNumber":54,"Velocity":54,"Duration":330579,"SoundDuration":330579,"Delta":107570281},{"NoteNumber":52,"Velocity":50,"Duration":165289,"SoundDuration":165289,"Delta":107900860},{"NoteNumber":52,"Velocity":50,"Duration":503078,"SoundDuration":503078,"Delta":108066150},{"NoteNumber":54,"Velocity":40,"Duration":1074696,"SoundDuration":1074696,"Delta":108569228},{"NoteNumber":62,"Velocity":40,"Duration":1074696,"SoundDuration":1074696,"Delta":108569228},{"NoteNumber":38,"Velocity":40,"Duration":1074696,"SoundDuration":1074696,"Delta":108569228},{"NoteNumber":46,"Velocity":48,"Duration":340908,"SoundDuration":340908,"Delta":108569228},{"NoteNumber":45,"Velocity":44,"Duration":170454,"SoundDuration":170454,"Delta":108910137},{"NoteNumber":45,"Velocity":44,"Duration":563333,"SoundDuration":563333,"Delta":109080591},{"NoteNumber":66,"Velocity":39,"Duration":983672,"SoundDuration":983672,"Delta":109643924},{"NoteNumber":71,"Velocity":55,"Duration":495868,"SoundDuration":495868,"Delta":109643924},{"NoteNumber":62,"Velocity":46,"Duration":495868,"SoundDuration":495868,"Delta":109643924},{"NoteNumber":54,"Velocity":34,"Duration":1981513,"SoundDuration":1981513,"Delta":109643924},{"NoteNumber":70,"Velocity":51,"Duration":487804,"SoundDuration":487804,"Delta":110139793},{"NoteNumber":61,"Velocity":43,"Duration":487804,"SoundDuration":487804,"Delta":110139793},{"NoteNumber":61,"Velocity":36,"Duration":997840,"SoundDuration":997840,"Delta":110627597},{"NoteNumber":67,"Velocity":55,"Duration":333332,"SoundDuration":333332,"Delta":110627597},{"NoteNumber":59,"Velocity":44,"Duration":499999,"SoundDuration":499999,"Delta":110627597},{"NoteNumber":66,"Velocity":51,"Duration":166666,"SoundDuration":166666,"Delta":110960930},{"NoteNumber":66,"Velocity":51,"Duration":497840,"SoundDuration":497840,"Delta":111127597},{"NoteNumber":58,"Velocity":41,"Duration":497840,"SoundDuration":497840,"Delta":111127597},{"NoteNumber":64,"Velocity":35,"Duration":979593,"SoundDuration":979593,"Delta":111625437},{"NoteNumber":66,"Velocity":37,"Duration":979593,"SoundDuration":979593,"Delta":111625437},{"NoteNumber":74,"Velocity":49,"Duration":489130,"SoundDuration":489130,"Delta":111625437},{"NoteNumber":54,"Velocity":55,"Duration":1970055,"SoundDuration":1970055,"Delta":111625437},{"NoteNumber":56,"Velocity":34,"Duration":489130,"SoundDuration":489130,"Delta":111625437},{"NoteNumber":73,"Velocity":45,"Duration":490462,"SoundDuration":490462,"Delta":112114568},{"NoteNumber":58,"Velocity":51,"Duration":490462,"SoundDuration":490462,"Delta":112114568},{"NoteNumber":62,"Velocity":44,"Duration":499999,"SoundDuration":499999,"Delta":112605030},{"NoteNumber":66,"Velocity":43,"Duration":499999,"SoundDuration":499999,"Delta":112605030},{"NoteNumber":71,"Velocity":47,"Duration":499999,"SoundDuration":499999,"Delta":112605030},{"NoteNumber":59,"Velocity":53,"Duration":333332,"SoundDuration":333332,"Delta":112605030},{"NoteNumber":61,"Velocity":49,"Duration":166666,"SoundDuration":166666,"Delta":112938363},{"NoteNumber":66,"Velocity":44,"Duration":490462,"SoundDuration":490462,"Delta":113105030},{"NoteNumber":70,"Velocity":44,"Duration":490462,"SoundDuration":490462,"Delta":113105030},{"NoteNumber":61,"Velocity":49,"Duration":490462,"SoundDuration":490462,"Delta":113105030},{"NoteNumber":78,"Velocity":39,"Duration":989130,"SoundDuration":989130,"Delta":113595492},{"NoteNumber":83,"Velocity":55,"Duration":499999,"SoundDuration":499999,"Delta":113595492},{"NoteNumber":74,"Velocity":46,"Duration":499999,"SoundDuration":499999,"Delta":113595492},{"NoteNumber":66,"Velocity":34,"Duration":1990806,"SoundDuration":1990806,"Delta":113595492},{"NoteNumber":82,"Velocity":51,"Duration":489130,"SoundDuration":489130,"Delta":114095492},{"NoteNumber":73,"Velocity":43,"Duration":489130,"SoundDuration":489130,"Delta":114095492},{"NoteNumber":73,"Velocity":36,"Duration":1001676,"SoundDuration":1001676,"Delta":114584622},{"NoteNumber":79,"Velocity":55,"Duration":334261,"SoundDuration":334261,"Delta":114584622},{"NoteNumber":71,"Velocity":44,"Duration":334261,"SoundDuration":334261,"Delta":114584622},{"NoteNumber":78,"Velocity":51,"Duration":167130,"SoundDuration":167130,"Delta":114918884},{"NoteNumber":70,"Velocity":41,"Duration":167130,"SoundDuration":167130,"Delta":114918884},{"NoteNumber":78,"Velocity":51,"Duration":500283,"SoundDuration":500283,"Delta":115086015},{"NoteNumber":70,"Velocity":41,"Duration":500283,"SoundDuration":500283,"Delta":115086015},{"NoteNumber":76,"Velocity":39,"Duration":974377,"SoundDuration":974377,"Delta":115586298},{"NoteNumber":78,"Velocity":39,"Duration":974377,"SoundDuration":974377,"Delta":115586298},{"NoteNumber":86,"Velocity":49,"Duration":482573,"SoundDuration":482573,"Delta":115586298},{"NoteNumber":66,"Velocity":55,"Duration":1970382,"SoundDuration":1970382,"Delta":115586298},{"NoteNumber":68,"Velocity":34,"Duration":482573,"SoundDuration":482573,"Delta":115586298},{"NoteNumber":85,"Velocity":45,"Duration":491803,"SoundDuration":491803,"Delta":116068872},{"NoteNumber":70,"Velocity":51,"Duration":491803,"SoundDuration":491803,"Delta":116068872},{"NoteNumber":74,"Velocity":44,"Duration":504200,"SoundDuration":504200,"Delta":116560676},{"NoteNumber":78,"Velocity":43,"Duration":504200,"SoundDuration":504200,"Delta":116560676},{"NoteNumber":83,"Velocity":47,"Duration":504200,"SoundDuration":504200,"Delta":116560676},{"NoteNumber":71,"Velocity":55,"Duration":336134,"SoundDuration":336134,"Delta":116560676},{"NoteNumber":73,"Velocity":51,"Duration":168066,"SoundDuration":168066,"Delta":116896810},{"NoteNumber":78,"Velocity":44,"Duration":491803,"SoundDuration":491803,"Delta":117064877},{"NoteNumber":82,"Velocity":44,"Duration":491803,"SoundDuration":491803,"Delta":117064877},{"NoteNumber":73,"Velocity":51,"Duration":491803,"SoundDuration":491803,"Delta":117064877},{"NoteNumber":76,"Velocity":31,"Duration":991803,"SoundDuration":991803,"Delta":117556680},{"NoteNumber":83,"Velocity":44,"Duration":333332,"SoundDuration":333332,"Delta":117556680},{"NoteNumber":67,"Velocity":36,"Duration":499999,"SoundDuration":499999,"Delta":117556680},{"NoteNumber":73,"Velocity":27,"Duration":991803,"SoundDuration":991803,"Delta":117556680},{"NoteNumber":82,"Velocity":40,"Duration":166666,"SoundDuration":166666,"Delta":117890013},{"NoteNumber":82,"Velocity":40,"Duration":491803,"SoundDuration":491803,"Delta":118056680},{"NoteNumber":66,"Velocity":34,"Duration":491803,"SoundDuration":491803,"Delta":118056680},{"NoteNumber":67,"Velocity":39,"Duration":338982,"SoundDuration":338982,"Delta":118548483},{"NoteNumber":66,"Velocity":35,"Duration":169491,"SoundDuration":169491,"Delta":118887466},{"NoteNumber":66,"Velocity":35,"Duration":498615,"SoundDuration":498615,"Delta":119056958},{"NoteNumber":64,"Velocity":31,"Duration":1024486,"SoundDuration":1024486,"Delta":119555573},{"NoteNumber":71,"Velocity":44,"Duration":341880,"SoundDuration":341880,"Delta":119555573},{"NoteNumber":55,"Velocity":36,"Duration":512820,"SoundDuration":512820,"Delta":119555573},{"NoteNumber":61,"Velocity":27,"Duration":1024486,"SoundDuration":1024486,"Delta":119555573},{"NoteNumber":70,"Velocity":40,"Duration":170940,"SoundDuration":170940,"Delta":119897453},{"NoteNumber":70,"Velocity":40,"Duration":511666,"SoundDuration":511666,"Delta":120068393},{"NoteNumber":54,"Velocity":34,"Duration":511666,"SoundDuration":511666,"Delta":120068393},{"NoteNumber":55,"Velocity":35,"Duration":344828,"SoundDuration":344828,"Delta":120580059},{"NoteNumber":54,"Velocity":29,"Duration":172413,"SoundDuration":172413,"Delta":120924887},{"NoteNumber":54,"Velocity":30,"Duration":509914,"SoundDuration":509914,"Delta":121097301},{"NoteNumber":55,"Velocity":33,"Duration":358209,"SoundDuration":358209,"Delta":121607216},{"NoteNumber":54,"Velocity":29,"Duration":179104,"SoundDuration":179104,"Delta":121965425},{"NoteNumber":54,"Velocity":29,"Duration":526315,"SoundDuration":526315,"Delta":122144529},{"NoteNumber":55,"Velocity":31,"Duration":388350,"SoundDuration":388350,"Delta":122670845},{"NoteNumber":54,"Velocity":26,"Duration":208333,"SoundDuration":208333,"Delta":123059195},{"NoteNumber":54,"Velocity":26,"Duration":1463414,"SoundDuration":1463414,"Delta":123267528},{"NoteNumber":66,"Velocity":45,"Duration":152284,"SoundDuration":152284,"Delta":124730943},{"NoteNumber":71,"Velocity":49,"Duration":152284,"SoundDuration":152284,"Delta":124730943},{"NoteNumber":62,"Velocity":45,"Duration":152284,"SoundDuration":152284,"Delta":124730943},{"NoteNumber":65,"Velocity":46,"Duration":152284,"SoundDuration":152284,"Delta":124883227},{"NoteNumber":61,"Velocity":43,"Duration":152284,"SoundDuration":152284,"Delta":124883227},{"NoteNumber":66,"Velocity":45,"Duration":307692,"SoundDuration":307692,"Delta":125035512},{"NoteNumber":71,"Velocity":49,"Duration":307692,"SoundDuration":307692,"Delta":125035512},{"NoteNumber":62,"Velocity":45,"Duration":307692,"SoundDuration":307692,"Delta":125035512},{"NoteNumber":47,"Velocity":38,"Duration":153846,"SoundDuration":153846,"Delta":125189358},{"NoteNumber":64,"Velocity":45,"Duration":152655,"SoundDuration":152655,"Delta":125343204},{"NoteNumber":70,"Velocity":49,"Duration":152655,"SoundDuration":152655,"Delta":125343204},{"NoteNumber":61,"Velocity":43,"Duration":152655,"SoundDuration":152655,"Delta":125343204},{"NoteNumber":47,"Velocity":37,"Duration":152088,"SoundDuration":152088,"Delta":125495860},{"NoteNumber":62,"Velocity":45,"Duration":151133,"SoundDuration":151133,"Delta":125647949},{"NoteNumber":67,"Velocity":49,"Duration":151133,"SoundDuration":151133,"Delta":125647949},{"NoteNumber":59,"Velocity":44,"Duration":151133,"SoundDuration":151133,"Delta":125647949},{"NoteNumber":61,"Velocity":45,"Duration":151133,"SoundDuration":151133,"Delta":125799082},{"NoteNumber":58,"Velocity":42,"Duration":151133,"SoundDuration":151133,"Delta":125799082},{"NoteNumber":62,"Velocity":45,"Duration":304569,"SoundDuration":304569,"Delta":125950216},{"NoteNumber":67,"Velocity":49,"Duration":304569,"SoundDuration":304569,"Delta":125950216},{"NoteNumber":59,"Velocity":45,"Duration":304569,"SoundDuration":304569,"Delta":125950216},{"NoteNumber":47,"Velocity":39,"Duration":152284,"SoundDuration":152284,"Delta":126102500},{"NoteNumber":61,"Velocity":44,"Duration":153452,"SoundDuration":153452,"Delta":126254785},{"NoteNumber":66,"Velocity":47,"Duration":153452,"SoundDuration":153452,"Delta":126254785},{"NoteNumber":58,"Velocity":44,"Duration":153452,"SoundDuration":153452,"Delta":126254785},{"NoteNumber":47,"Velocity":38,"Duration":153452,"SoundDuration":153452,"Delta":126408237},{"NoteNumber":60,"Velocity":45,"Duration":150000,"SoundDuration":150000,"Delta":126561690},{"NoteNumber":66,"Velocity":49,"Duration":150000,"SoundDuration":150000,"Delta":126561690},{"NoteNumber":57,"Velocity":44,"Duration":150000,"SoundDuration":150000,"Delta":126561690},{"NoteNumber":59,"Velocity":46,"Duration":149999,"SoundDuration":149999,"Delta":126711690},{"NoteNumber":56,"Velocity":41,"Duration":149999,"SoundDuration":149999,"Delta":126711690},{"NoteNumber":60,"Velocity":45,"Duration":302267,"SoundDuration":302267,"Delta":126861690},{"NoteNumber":66,"Velocity":49,"Duration":302267,"SoundDuration":302267,"Delta":126861690},{"NoteNumber":57,"Velocity":45,"Duration":302267,"SoundDuration":302267,"Delta":126861690},{"NoteNumber":47,"Velocity":38,"Duration":151133,"SoundDuration":151133,"Delta":127012823},{"NoteNumber":59,"Velocity":43,"Duration":149917,"SoundDuration":149917,"Delta":127163957},{"NoteNumber":64,"Velocity":46,"Duration":149917,"SoundDuration":149917,"Delta":127163957},{"NoteNumber":56,"Velocity":44,"Duration":149917,"SoundDuration":149917,"Delta":127163957},{"NoteNumber":47,"Velocity":35,"Duration":149917,"SoundDuration":149917,"Delta":127313874},{"NoteNumber":58,"Velocity":45,"Duration":151080,"SoundDuration":151080,"Delta":127463792},{"NoteNumber":64,"Velocity":49,"Duration":151080,"SoundDuration":151080,"Delta":127463792},{"NoteNumber":55,"Velocity":45,"Duration":151080,"SoundDuration":151080,"Delta":127463792},{"NoteNumber":47,"Velocity":43,"Duration":151079,"SoundDuration":151079,"Delta":127614872},{"NoteNumber":58,"Velocity":47,"Duration":151080,"SoundDuration":151080,"Delta":127765952},{"NoteNumber":62,"Velocity":52,"Duration":151080,"SoundDuration":151080,"Delta":127765952},{"NoteNumber":54,"Velocity":49,"Duration":151080,"SoundDuration":151080,"Delta":127765952},{"NoteNumber":47,"Velocity":50,"Duration":151080,"SoundDuration":151080,"Delta":127917032},{"NoteNumber":58,"Velocity":45,"Duration":151080,"SoundDuration":151080,"Delta":128068112},{"NoteNumber":61,"Velocity":50,"Duration":151080,"SoundDuration":151080,"Delta":128068112},{"NoteNumber":52,"Velocity":47,"Duration":151080,"SoundDuration":151080,"Delta":128068112},{"NoteNumber":59,"Velocity":47,"Duration":151860,"SoundDuration":151860,"Delta":128219192},{"NoteNumber":47,"Velocity":44,"Duration":151860,"SoundDuration":151860,"Delta":128219192},{"NoteNumber":50,"Velocity":44,"Duration":151860,"SoundDuration":151860,"Delta":128219192},{"NoteNumber":53,"Velocity":52,"Duration":74958,"SoundDuration":74958,"Delta":128371052},{"NoteNumber":54,"Velocity":54,"Duration":77128,"SoundDuration":77128,"Delta":128520970},{"NoteNumber":55,"Velocity":59,"Duration":453239,"SoundDuration":453239,"Delta":128675227},{"NoteNumber":62,"Velocity":47,"Duration":75539,"SoundDuration":75539,"Delta":128826307},{"NoteNumber":71,"Velocity":47,"Duration":75539,"SoundDuration":75539,"Delta":128826307},{"NoteNumber":74,"Velocity":47,"Duration":75539,"SoundDuration":75539,"Delta":128826307},{"NoteNumber":64,"Velocity":49,"Duration":75539,"SoundDuration":75539,"Delta":128977387},{"NoteNumber":71,"Velocity":49,"Duration":75539,"SoundDuration":75539,"Delta":128977387},{"NoteNumber":74,"Velocity":49,"Duration":75539,"SoundDuration":75539,"Delta":128977387},{"NoteNumber":65,"Velocity":46,"Duration":75930,"SoundDuration":75930,"Delta":129128467},{"NoteNumber":71,"Velocity":46,"Duration":75930,"SoundDuration":75930,"Delta":129128467},{"NoteNumber":74,"Velocity":46,"Duration":75930,"SoundDuration":75930,"Delta":129128467},{"NoteNumber":43,"Velocity":49,"Duration":151860,"SoundDuration":151860,"Delta":129128467},{"NoteNumber":45,"Velocity":51,"Duration":75539,"SoundDuration":75539,"Delta":129280328},{"NoteNumber":43,"Velocity":49,"Duration":75539,"SoundDuration":75539,"Delta":129431408},{"NoteNumber":42,"Velocity":51,"Duration":454801,"SoundDuration":454801,"Delta":129582488},{"NoteNumber":56,"Velocity":45,"Duration":75930,"SoundDuration":75930,"Delta":129733568},{"NoteNumber":59,"Velocity":45,"Duration":75930,"SoundDuration":75930,"Delta":129733568},{"NoteNumber":66,"Velocity":45,"Duration":75930,"SoundDuration":75930,"Delta":129733568},{"NoteNumber":58,"Velocity":46,"Duration":75930,"SoundDuration":75930,"Delta":129885428},{"NoteNumber":61,"Velocity":46,"Duration":75930,"SoundDuration":75930,"Delta":129885428},{"NoteNumber":64,"Velocity":46,"Duration":75930,"SoundDuration":75930,"Delta":129885428},{"NoteNumber":59,"Velocity":46,"Duration":76126,"SoundDuration":76126,"Delta":130037289},{"NoteNumber":62,"Velocity":46,"Duration":76126,"SoundDuration":76126,"Delta":130037289},{"NoteNumber":47,"Velocity":48,"Duration":152253,"SoundDuration":152253,"Delta":130037289},{"NoteNumber":53,"Velocity":51,"Duration":74958,"SoundDuration":74958,"Delta":130189542},{"NoteNumber":54,"Velocity":54,"Duration":74958,"SoundDuration":74958,"Delta":130339460},{"NoteNumber":55,"Velocity":58,"Duration":454020,"SoundDuration":454020,"Delta":130489377},{"NoteNumber":62,"Velocity":47,"Duration":75539,"SoundDuration":75539,"Delta":130641238},{"NoteNumber":71,"Velocity":47,"Duration":75539,"SoundDuration":75539,"Delta":130641238},{"NoteNumber":74,"Velocity":47,"Duration":75539,"SoundDuration":75539,"Delta":130641238},{"NoteNumber":64,"Velocity":49,"Duration":75539,"SoundDuration":75539,"Delta":130792318},{"NoteNumber":71,"Velocity":49,"Duration":75539,"SoundDuration":75539,"Delta":130792318},{"NoteNumber":74,"Velocity":49,"Duration":75539,"SoundDuration":75539,"Delta":130792318},{"NoteNumber":65,"Velocity":45,"Duration":76327,"SoundDuration":76327,"Delta":130943398},{"NoteNumber":71,"Velocity":45,"Duration":76327,"SoundDuration":76327,"Delta":130943398},{"NoteNumber":74,"Velocity":45,"Duration":76327,"SoundDuration":76327,"Delta":130943398},{"NoteNumber":43,"Velocity":49,"Duration":152656,"SoundDuration":152656,"Delta":130943398},{"NoteNumber":45,"Velocity":51,"Duration":75539,"SoundDuration":75539,"Delta":131096054},{"NoteNumber":43,"Velocity":49,"Duration":75539,"SoundDuration":75539,"Delta":131247134},{"NoteNumber":42,"Velocity":49,"Duration":454801,"SoundDuration":454801,"Delta":131398214},{"NoteNumber":56,"Velocity":47,"Duration":75930,"SoundDuration":75930,"Delta":131549294},{"NoteNumber":59,"Velocity":47,"Duration":75930,"SoundDuration":75930,"Delta":131549294},{"NoteNumber":66,"Velocity":47,"Duration":75930,"SoundDuration":75930,"Delta":131549294},{"NoteNumber":58,"Velocity":46,"Duration":75930,"SoundDuration":75930,"Delta":131701154},{"NoteNumber":61,"Velocity":46,"Duration":75930,"SoundDuration":75930,"Delta":131701154},{"NoteNumber":64,"Velocity":46,"Duration":75930,"SoundDuration":75930,"Delta":131701154},{"NoteNumber":59,"Velocity":46,"Duration":124481,"SoundDuration":124481,"Delta":131853015},{"NoteNumber":62,"Velocity":46,"Duration":124481,"SoundDuration":124481,"Delta":131853015},{"NoteNumber":47,"Velocity":49,"Duration":124481,"SoundDuration":124481,"Delta":131853015},{"NoteNumber":66,"Velocity":45,"Duration":149253,"SoundDuration":149253,"Delta":132101977},{"NoteNumber":71,"Velocity":49,"Duration":149253,"SoundDuration":149253,"Delta":132101977},{"NoteNumber":62,"Velocity":45,"Duration":149253,"SoundDuration":149253,"Delta":132101977},{"NoteNumber":65,"Velocity":46,"Duration":149253,"SoundDuration":149253,"Delta":132251231},{"NoteNumber":61,"Velocity":43,"Duration":149253,"SoundDuration":149253,"Delta":132251231},{"NoteNumber":66,"Velocity":45,"Duration":299251,"SoundDuration":299251,"Delta":132400484},{"NoteNumber":71,"Velocity":49,"Duration":299251,"SoundDuration":299251,"Delta":132400484},{"NoteNumber":62,"Velocity":45,"Duration":299251,"SoundDuration":299251,"Delta":132400484},{"NoteNumber":47,"Velocity":41,"Duration":149625,"SoundDuration":149625,"Delta":132550110},{"NoteNumber":64,"Velocity":45,"Duration":152656,"SoundDuration":152656,"Delta":132699736},{"NoteNumber":70,"Velocity":49,"Duration":152656,"SoundDuration":152656,"Delta":132699736},{"NoteNumber":61,"Velocity":43,"Duration":152656,"SoundDuration":152656,"Delta":132699736},{"NoteNumber":47,"Velocity":37,"Duration":152655,"SoundDuration":152655,"Delta":132852392},{"NoteNumber":62,"Velocity":45,"Duration":149253,"SoundDuration":149253,"Delta":133005048},{"NoteNumber":67,"Velocity":49,"Duration":149253,"SoundDuration":149253,"Delta":133005048},{"NoteNumber":59,"Velocity":44,"Duration":149253,"SoundDuration":149253,"Delta":133005048},{"NoteNumber":61,"Velocity":45,"Duration":149253,"SoundDuration":149253,"Delta":133154302},{"NoteNumber":58,"Velocity":42,"Duration":149253,"SoundDuration":149253,"Delta":133154302},{"NoteNumber":62,"Velocity":45,"Duration":300000,"SoundDuration":300000,"Delta":133303555},{"NoteNumber":67,"Velocity":49,"Duration":300000,"SoundDuration":300000,"Delta":133303555},{"NoteNumber":59,"Velocity":45,"Duration":300000,"SoundDuration":300000,"Delta":133303555},{"NoteNumber":47,"Velocity":40,"Duration":150000,"SoundDuration":150000,"Delta":133453555},{"NoteNumber":61,"Velocity":44,"Duration":153452,"SoundDuration":153452,"Delta":133603555},{"NoteNumber":66,"Velocity":47,"Duration":153452,"SoundDuration":153452,"Delta":133603555},{"NoteNumber":58,"Velocity":44,"Duration":153452,"SoundDuration":153452,"Delta":133603555},{"NoteNumber":47,"Velocity":36,"Duration":153452,"SoundDuration":153452,"Delta":133757008},{"NoteNumber":60,"Velocity":45,"Duration":149626,"SoundDuration":149626,"Delta":133910460},{"NoteNumber":66,"Velocity":49,"Duration":149626,"SoundDuration":149626,"Delta":133910460},{"NoteNumber":57,"Velocity":44,"Duration":149626,"SoundDuration":149626,"Delta":133910460},{"NoteNumber":59,"Velocity":46,"Duration":149625,"SoundDuration":149625,"Delta":134060086},{"NoteNumber":56,"Velocity":41,"Duration":149625,"SoundDuration":149625,"Delta":134060086},{"NoteNumber":60,"Velocity":45,"Duration":301508,"SoundDuration":301508,"Delta":134209712},{"NoteNumber":66,"Velocity":49,"Duration":301508,"SoundDuration":301508,"Delta":134209712},{"NoteNumber":57,"Velocity":45,"Duration":301508,"SoundDuration":301508,"Delta":134209712},{"NoteNumber":47,"Velocity":42,"Duration":150754,"SoundDuration":150754,"Delta":134360466},{"NoteNumber":59,"Velocity":43,"Duration":149917,"SoundDuration":149917,"Delta":134511220},{"NoteNumber":64,"Velocity":46,"Duration":149917,"SoundDuration":149917,"Delta":134511220},{"NoteNumber":56,"Velocity":44,"Duration":149917,"SoundDuration":149917,"Delta":134511220},{"NoteNumber":47,"Velocity":38,"Duration":149917,"SoundDuration":149917,"Delta":134661138},{"NoteNumber":58,"Velocity":45,"Duration":151080,"SoundDuration":151080,"Delta":134811055},{"NoteNumber":64,"Velocity":49,"Duration":151080,"SoundDuration":151080,"Delta":134811055},{"NoteNumber":55,"Velocity":45,"Duration":151080,"SoundDuration":151080,"Delta":134811055},{"NoteNumber":47,"Velocity":43,"Duration":151079,"SoundDuration":151079,"Delta":134962135},{"NoteNumber":58,"Velocity":47,"Duration":151080,"SoundDuration":151080,"Delta":135113215},{"NoteNumber":62,"Velocity":52,"Duration":151080,"SoundDuration":151080,"Delta":135113215},{"NoteNumber":54,"Velocity":49,"Duration":151080,"SoundDuration":151080,"Delta":135113215},{"NoteNumber":47,"Velocity":50,"Duration":151080,"SoundDuration":151080,"Delta":135264295},{"NoteNumber":58,"Velocity":45,"Duration":151080,"SoundDuration":151080,"Delta":135415375},{"NoteNumber":61,"Velocity":50,"Duration":151080,"SoundDuration":151080,"Delta":135415375},{"NoteNumber":52,"Velocity":47,"Duration":151080,"SoundDuration":151080,"Delta":135415375},{"NoteNumber":59,"Velocity":47,"Duration":151860,"SoundDuration":151860,"Delta":135566455},{"NoteNumber":47,"Velocity":44,"Duration":151860,"SoundDuration":151860,"Delta":135566455},{"NoteNumber":50,"Velocity":44,"Duration":151860,"SoundDuration":151860,"Delta":135566455},{"NoteNumber":53,"Velocity":52,"Duration":74958,"SoundDuration":74958,"Delta":135718316},{"NoteNumber":54,"Velocity":54,"Duration":77128,"SoundDuration":77128,"Delta":135868233},{"NoteNumber":55,"Velocity":59,"Duration":453239,"SoundDuration":453239,"Delta":136022491},{"NoteNumber":62,"Velocity":47,"Duration":75539,"SoundDuration":75539,"Delta":136173571},{"NoteNumber":71,"Velocity":47,"Duration":75539,"SoundDuration":75539,"Delta":136173571},{"NoteNumber":74,"Velocity":47,"Duration":75539,"SoundDuration":75539,"Delta":136173571},{"NoteNumber":64,"Velocity":49,"Duration":75539,"SoundDuration":75539,"Delta":136324651},{"NoteNumber":71,"Velocity":49,"Duration":75539,"SoundDuration":75539,"Delta":136324651},{"NoteNumber":74,"Velocity":49,"Duration":75539,"SoundDuration":75539,"Delta":136324651},{"NoteNumber":65,"Velocity":46,"Duration":75930,"SoundDuration":75930,"Delta":136475731},{"NoteNumber":71,"Velocity":46,"Duration":75930,"SoundDuration":75930,"Delta":136475731},{"NoteNumber":74,"Velocity":46,"Duration":75930,"SoundDuration":75930,"Delta":136475731},{"NoteNumber":43,"Velocity":49,"Duration":151860,"SoundDuration":151860,"Delta":136475731},{"NoteNumber":45,"Velocity":51,"Duration":75539,"SoundDuration":75539,"Delta":136627591},{"NoteNumber":43,"Velocity":49,"Duration":75539,"SoundDuration":75539,"Delta":136778671},{"NoteNumber":42,"Velocity":51,"Duration":454801,"SoundDuration":454801,"Delta":136929751},{"NoteNumber":56,"Velocity":45,"Duration":75930,"SoundDuration":75930,"Delta":137080831},{"NoteNumber":59,"Velocity":45,"Duration":75930,"SoundDuration":75930,"Delta":137080831},{"NoteNumber":66,"Velocity":45,"Duration":75930,"SoundDuration":75930,"Delta":137080831},{"NoteNumber":58,"Velocity":44,"Duration":75930,"SoundDuration":75930,"Delta":137232692},{"NoteNumber":61,"Velocity":44,"Duration":75930,"SoundDuration":75930,"Delta":137232692},{"NoteNumber":64,"Velocity":44,"Duration":75930,"SoundDuration":75930,"Delta":137232692},{"NoteNumber":59,"Velocity":46,"Duration":76126,"SoundDuration":76126,"Delta":137384552},{"NoteNumber":62,"Velocity":46,"Duration":76126,"SoundDuration":76126,"Delta":137384552},{"NoteNumber":47,"Velocity":48,"Duration":152253,"SoundDuration":152253,"Delta":137384552},{"NoteNumber":53,"Velocity":51,"Duration":74958,"SoundDuration":74958,"Delta":137536806},{"NoteNumber":54,"Velocity":54,"Duration":74958,"SoundDuration":74958,"Delta":137686723},{"NoteNumber":55,"Velocity":60,"Duration":606676,"SoundDuration":606676,"Delta":137836641},{"NoteNumber":62,"Velocity":50,"Duration":75539,"SoundDuration":75539,"Delta":137988501},{"NoteNumber":71,"Velocity":50,"Duration":75539,"SoundDuration":75539,"Delta":137988501},{"NoteNumber":74,"Velocity":50,"Duration":75539,"SoundDuration":75539,"Delta":137988501},{"NoteNumber":64,"Velocity":54,"Duration":75539,"SoundDuration":75539,"Delta":138139581},{"NoteNumber":71,"Velocity":54,"Duration":75539,"SoundDuration":75539,"Delta":138139581},{"NoteNumber":74,"Velocity":54,"Duration":75539,"SoundDuration":75539,"Delta":138139581},{"NoteNumber":65,"Velocity":58,"Duration":304909,"SoundDuration":304909,"Delta":138290661},{"NoteNumber":71,"Velocity":58,"Duration":304909,"SoundDuration":304909,"Delta":138290661},{"NoteNumber":74,"Velocity":58,"Duration":304909,"SoundDuration":304909,"Delta":138290661},{"NoteNumber":56,"Velocity":67,"Duration":304507,"SoundDuration":304507,"Delta":138443317},{"NoteNumber":73,"Velocity":63,"Duration":305306,"SoundDuration":305306,"Delta":138595571},{"NoteNumber":71,"Velocity":63,"Duration":305306,"SoundDuration":305306,"Delta":138595571},{"NoteNumber":65,"Velocity":63,"Duration":305306,"SoundDuration":305306,"Delta":138595571},{"NoteNumber":61,"Velocity":66,"Duration":307310,"SoundDuration":307310,"Delta":138747824},{"NoteNumber":71,"Velocity":68,"Duration":305337,"SoundDuration":305337,"Delta":138900878},{"NoteNumber":73,"Velocity":68,"Duration":305337,"SoundDuration":305337,"Delta":138900878},{"NoteNumber":77,"Velocity":68,"Duration":305337,"SoundDuration":305337,"Delta":138900878},{"NoteNumber":68,"Velocity":68,"Duration":151080,"SoundDuration":151080,"Delta":139055135},{"NoteNumber":70,"Velocity":69,"Duration":187500,"SoundDuration":187500,"Delta":139206215},{"NoteNumber":73,"Velocity":69,"Duration":187500,"SoundDuration":187500,"Delta":139206215},{"NoteNumber":78,"Velocity":69,"Duration":187500,"SoundDuration":187500,"Delta":139206215},{"NoteNumber":66,"Velocity":61,"Duration":187500,"SoundDuration":187500,"Delta":139206215},{"NoteNumber":78,"Velocity":45,"Duration":148883,"SoundDuration":148883,"Delta":139456215},{"NoteNumber":83,"Velocity":49,"Duration":148883,"SoundDuration":148883,"Delta":139456215},{"NoteNumber":74,"Velocity":45,"Duration":148883,"SoundDuration":148883,"Delta":139456215},{"NoteNumber":77,"Velocity":46,"Duration":148883,"SoundDuration":148883,"Delta":139605099},{"NoteNumber":73,"Velocity":43,"Duration":148883,"SoundDuration":148883,"Delta":139605099},{"NoteNumber":78,"Velocity":45,"Duration":299251,"SoundDuration":299251,"Delta":139753982},{"NoteNumber":83,"Velocity":49,"Duration":299251,"SoundDuration":299251,"Delta":139753982},{"NoteNumber":74,"Velocity":45,"Duration":299251,"SoundDuration":299251,"Delta":139753982},{"NoteNumber":66,"Velocity":36,"Duration":149625,"SoundDuration":149625,"Delta":139903608},{"NoteNumber":76,"Velocity":45,"Duration":152656,"SoundDuration":152656,"Delta":140053234},{"NoteNumber":82,"Velocity":49,"Duration":152656,"SoundDuration":152656,"Delta":140053234},{"NoteNumber":73,"Velocity":43,"Duration":152656,"SoundDuration":152656,"Delta":140053234},{"NoteNumber":66,"Velocity":33,"Duration":601538,"SoundDuration":601538,"Delta":140205890},{"NoteNumber":74,"Velocity":45,"Duration":149253,"SoundDuration":149253,"Delta":140358546},{"NoteNumber":79,"Velocity":49,"Duration":149253,"SoundDuration":149253,"Delta":140358546},{"NoteNumber":71,"Velocity":44,"Duration":149253,"SoundDuration":149253,"Delta":140358546},{"NoteNumber":73,"Velocity":45,"Duration":149253,"SoundDuration":149253,"Delta":140507800},{"NoteNumber":70,"Velocity":42,"Duration":149253,"SoundDuration":149253,"Delta":140507800},{"NoteNumber":74,"Velocity":45,"Duration":300751,"SoundDuration":300751,"Delta":140657053},{"NoteNumber":79,"Velocity":49,"Duration":300751,"SoundDuration":300751,"Delta":140657053},{"NoteNumber":71,"Velocity":45,"Duration":300751,"SoundDuration":300751,"Delta":140657053},{"NoteNumber":66,"Velocity":39,"Duration":150375,"SoundDuration":150375,"Delta":140807429},{"NoteNumber":73,"Velocity":44,"Duration":153452,"SoundDuration":153452,"Delta":140957805},{"NoteNumber":78,"Velocity":47,"Duration":153452,"SoundDuration":153452,"Delta":140957805},{"NoteNumber":70,"Velocity":44,"Duration":153452,"SoundDuration":153452,"Delta":140957805},{"NoteNumber":66,"Velocity":37,"Duration":167597,"SoundDuration":167597,"Delta":141111258},{"NoteNumber":72,"Velocity":62,"Duration":147420,"SoundDuration":147420,"Delta":141278856},{"NoteNumber":78,"Velocity":69,"Duration":147420,"SoundDuration":147420,"Delta":141278856},{"NoteNumber":64,"Velocity":60,"Duration":448164,"SoundDuration":448164,"Delta":141278856},{"NoteNumber":69,"Velocity":60,"Duration":448164,"SoundDuration":448164,"Delta":141278856},{"NoteNumber":71,"Velocity":64,"Duration":148883,"SoundDuration":148883,"Delta":141426276},{"NoteNumber":72,"Velocity":62,"Duration":151860,"SoundDuration":151860,"Delta":141575159},{"NoteNumber":78,"Velocity":69,"Duration":151860,"SoundDuration":151860,"Delta":141575159},{"NoteNumber":66,"Velocity":67,"Duration":147783,"SoundDuration":147783,"Delta":141727020},{"NoteNumber":72,"Velocity":67,"Duration":147783,"SoundDuration":147783,"Delta":141727020},{"NoteNumber":64,"Velocity":53,"Duration":451117,"SoundDuration":451117,"Delta":141727020},{"NoteNumber":57,"Velocity":53,"Duration":451117,"SoundDuration":451117,"Delta":141727020},{"NoteNumber":65,"Velocity":60,"Duration":151080,"SoundDuration":151080,"Delta":141874803},{"NoteNumber":66,"Velocity":64,"Duration":152253,"SoundDuration":152253,"Delta":142025883},{"NoteNumber":72,"Velocity":64,"Duration":152253,"SoundDuration":152253,"Delta":142025883},{"NoteNumber":60,"Velocity":67,"Duration":149917,"SoundDuration":149917,"Delta":142178137},{"NoteNumber":64,"Velocity":67,"Duration":149917,"SoundDuration":149917,"Delta":142178137},{"NoteNumber":54,"Velocity":53,"Duration":450135,"SoundDuration":450135,"Delta":142178137},{"NoteNumber":57,"Velocity":53,"Duration":450135,"SoundDuration":450135,"Delta":142178137},{"NoteNumber":59,"Velocity":67,"Duration":149917,"SoundDuration":149917,"Delta":142328054},{"NoteNumber":60,"Velocity":64,"Duration":150300,"SoundDuration":150300,"Delta":142477972},{"NoteNumber":64,"Velocity":64,"Duration":150300,"SoundDuration":150300,"Delta":142477972},{"NoteNumber":48,"Velocity":53,"Duration":77335,"SoundDuration":77335,"Delta":142628272},{"NoteNumber":54,"Velocity":66,"Duration":76126,"SoundDuration":76126,"Delta":142782943},{"NoteNumber":57,"Velocity":66,"Duration":76126,"SoundDuration":76126,"Delta":142782943},{"NoteNumber":63,"Velocity":66,"Duration":76126,"SoundDuration":76126,"Delta":142782943},{"NoteNumber":47,"Velocity":46,"Duration":76126,"SoundDuration":76126,"Delta":142782943},{"NoteNumber":55,"Velocity":70,"Duration":100671,"SoundDuration":100671,"Delta":142935197},{"NoteNumber":59,"Velocity":70,"Duration":100671,"SoundDuration":100671,"Delta":142935197},{"NoteNumber":64,"Velocity":70,"Duration":100671,"SoundDuration":100671,"Delta":142935197},{"NoteNumber":52,"Velocity":53,"Duration":100671,"SoundDuration":100671,"Delta":142935197},{"NoteNumber":83,"Velocity":45,"Duration":149253,"SoundDuration":149253,"Delta":143136539},{"NoteNumber":88,"Velocity":49,"Duration":149253,"SoundDuration":149253,"Delta":143136539},{"NoteNumber":79,"Velocity":45,"Duration":149253,"SoundDuration":149253,"Delta":143136539},{"NoteNumber":82,"Velocity":46,"Duration":149253,"SoundDuration":149253,"Delta":143285793},{"NoteNumber":78,"Velocity":43,"Duration":149253,"SoundDuration":149253,"Delta":143285793},{"NoteNumber":83,"Velocity":45,"Duration":299251,"SoundDuration":299251,"Delta":143435046},{"NoteNumber":88,"Velocity":49,"Duration":299251,"SoundDuration":299251,"Delta":143435046},{"NoteNumber":79,"Velocity":45,"Duration":299251,"SoundDuration":299251,"Delta":143435046},{"NoteNumber":71,"Velocity":41,"Duration":149625,"SoundDuration":149625,"Delta":143584672},{"NoteNumber":81,"Velocity":45,"Duration":152656,"SoundDuration":152656,"Delta":143734298},{"NoteNumber":87,"Velocity":49,"Duration":152656,"SoundDuration":152656,"Delta":143734298},{"NoteNumber":78,"Velocity":43,"Duration":152656,"SoundDuration":152656,"Delta":143734298},{"NoteNumber":71,"Velocity":38,"Duration":600788,"SoundDuration":600788,"Delta":143886954},{"NoteNumber":79,"Velocity":45,"Duration":149253,"SoundDuration":149253,"Delta":144039610},{"NoteNumber":84,"Velocity":49,"Duration":149253,"SoundDuration":149253,"Delta":144039610},{"NoteNumber":76,"Velocity":44,"Duration":149253,"SoundDuration":149253,"Delta":144039610},{"NoteNumber":78,"Velocity":45,"Duration":149253,"SoundDuration":149253,"Delta":144188864},{"NoteNumber":75,"Velocity":42,"Duration":149253,"SoundDuration":149253,"Delta":144188864},{"NoteNumber":79,"Velocity":45,"Duration":299251,"SoundDuration":299251,"Delta":144338117},{"NoteNumber":84,"Velocity":49,"Duration":299251,"SoundDuration":299251,"Delta":144338117},{"NoteNumber":76,"Velocity":45,"Duration":299251,"SoundDuration":299251,"Delta":144338117},{"NoteNumber":71,"Velocity":39,"Duration":149625,"SoundDuration":149625,"Delta":144487743},{"NoteNumber":78,"Velocity":44,"Duration":153452,"SoundDuration":153452,"Delta":144637369},{"NoteNumber":83,"Velocity":47,"Duration":153452,"SoundDuration":153452,"Delta":144637369},{"NoteNumber":75,"Velocity":44,"Duration":153452,"SoundDuration":153452,"Delta":144637369},{"NoteNumber":71,"Velocity":34,"Duration":163043,"SoundDuration":163043,"Delta":144790822},{"NoteNumber":77,"Velocity":62,"Duration":148147,"SoundDuration":148147,"Delta":144953865},{"NoteNumber":83,"Velocity":69,"Duration":148147,"SoundDuration":148147,"Delta":144953865},{"NoteNumber":69,"Velocity":60,"Duration":449634,"SoundDuration":449634,"Delta":144953865},{"NoteNumber":74,"Velocity":60,"Duration":449634,"SoundDuration":449634,"Delta":144953865},{"NoteNumber":76,"Velocity":64,"Duration":149626,"SoundDuration":149626,"Delta":145102013},{"NoteNumber":77,"Velocity":62,"Duration":151860,"SoundDuration":151860,"Delta":145251639},{"NoteNumber":83,"Velocity":69,"Duration":151860,"SoundDuration":151860,"Delta":145251639},{"NoteNumber":71,"Velocity":67,"Duration":148515,"SoundDuration":148515,"Delta":145403500},{"NoteNumber":77,"Velocity":67,"Duration":148515,"SoundDuration":148515,"Delta":145403500},{"NoteNumber":69,"Velocity":53,"Duration":451848,"SoundDuration":451848,"Delta":145403500},{"NoteNumber":62,"Velocity":53,"Duration":451848,"SoundDuration":451848,"Delta":145403500},{"NoteNumber":70,"Velocity":60,"Duration":151080,"SoundDuration":151080,"Delta":145552015},{"NoteNumber":71,"Velocity":64,"Duration":152253,"SoundDuration":152253,"Delta":145703095},{"NoteNumber":77,"Velocity":64,"Duration":152253,"SoundDuration":152253,"Delta":145703095},{"NoteNumber":65,"Velocity":67,"Duration":149917,"SoundDuration":149917,"Delta":145855348},{"NoteNumber":69,"Velocity":67,"Duration":149917,"SoundDuration":149917,"Delta":145855348},{"NoteNumber":59,"Velocity":53,"Duration":450135,"SoundDuration":450135,"Delta":145855348},{"NoteNumber":62,"Velocity":53,"Duration":450135,"SoundDuration":450135,"Delta":145855348},{"NoteNumber":64,"Velocity":67,"Duration":149917,"SoundDuration":149917,"Delta":146005266},{"NoteNumber":65,"Velocity":64,"Duration":150300,"SoundDuration":150300,"Delta":146155183},{"NoteNumber":69,"Velocity":64,"Duration":150300,"SoundDuration":150300,"Delta":146155183},{"NoteNumber":53,"Velocity":53,"Duration":77335,"SoundDuration":77335,"Delta":146305484},{"NoteNumber":59,"Velocity":52,"Duration":152253,"SoundDuration":152253,"Delta":146460155},{"NoteNumber":62,"Velocity":58,"Duration":152253,"SoundDuration":152253,"Delta":146460155},{"NoteNumber":68,"Velocity":58,"Duration":152253,"SoundDuration":152253,"Delta":146460155},{"NoteNumber":52,"Velocity":40,"Duration":76126,"SoundDuration":76126,"Delta":146460155},{"NoteNumber":60,"Velocity":52,"Duration":152253,"SoundDuration":152253,"Delta":146612408},{"NoteNumber":69,"Velocity":58,"Duration":152253,"SoundDuration":152253,"Delta":146612408},{"NoteNumber":45,"Velocity":47,"Duration":76126,"SoundDuration":76126,"Delta":146612408},{"NoteNumber":60,"Velocity":50,"Duration":302159,"SoundDuration":302159,"Delta":146764662},{"NoteNumber":69,"Velocity":56,"Duration":302159,"SoundDuration":302159,"Delta":146764662},{"NoteNumber":53,"Velocity":37,"Duration":75539,"SoundDuration":75539,"Delta":146764662},{"NoteNumber":52,"Velocity":37,"Duration":75539,"SoundDuration":75539,"Delta":146915742},{"NoteNumber":62,"Velocity":49,"Duration":302160,"SoundDuration":302160,"Delta":147066822},{"NoteNumber":68,"Velocity":55,"Duration":302160,"SoundDuration":302160,"Delta":147066822},{"NoteNumber":71,"Velocity":55,"Duration":302160,"SoundDuration":302160,"Delta":147066822},{"NoteNumber":45,"Velocity":43,"Duration":75540,"SoundDuration":75540,"Delta":147066822},{"NoteNumber":53,"Velocity":37,"Duration":75540,"SoundDuration":75540,"Delta":147217902},{"NoteNumber":64,"Velocity":51,"Duration":151080,"SoundDuration":151080,"Delta":147368982},{"NoteNumber":69,"Velocity":57,"Duration":151080,"SoundDuration":151080,"Delta":147368982},{"NoteNumber":72,"Velocity":57,"Duration":151080,"SoundDuration":151080,"Delta":147368982},{"NoteNumber":52,"Velocity":37,"Duration":75539,"SoundDuration":75539,"Delta":147368982},{"NoteNumber":45,"Velocity":43,"Duration":76327,"SoundDuration":76327,"Delta":147520062},{"NoteNumber":60,"Velocity":51,"Duration":303720,"SoundDuration":303720,"Delta":147672718},{"NoteNumber":69,"Velocity":57,"Duration":303720,"SoundDuration":303720,"Delta":147672718},{"NoteNumber":53,"Velocity":37,"Duration":75930,"SoundDuration":75930,"Delta":147672718},{"NoteNumber":52,"Velocity":37,"Duration":75930,"SoundDuration":75930,"Delta":147824578},{"NoteNumber":59,"Velocity":46,"Duration":303720,"SoundDuration":303720,"Delta":147976439},{"NoteNumber":62,"Velocity":52,"Duration":303720,"SoundDuration":303720,"Delta":147976439},{"NoteNumber":68,"Velocity":52,"Duration":303720,"SoundDuration":303720,"Delta":147976439},{"NoteNumber":45,"Velocity":43,"Duration":75930,"SoundDuration":75930,"Delta":147976439},{"NoteNumber":53,"Velocity":38,"Duration":75930,"SoundDuration":75930,"Delta":148128299},{"NoteNumber":57,"Velocity":46,"Duration":151860,"SoundDuration":151860,"Delta":148280160},{"NoteNumber":60,"Velocity":52,"Duration":151860,"SoundDuration":151860,"Delta":148280160},{"NoteNumber":69,"Velocity":52,"Duration":151860,"SoundDuration":151860,"Delta":148280160},{"NoteNumber":52,"Velocity":38,"Duration":75930,"SoundDuration":75930,"Delta":148280160},{"NoteNumber":45,"Velocity":45,"Duration":76526,"SoundDuration":76526,"Delta":148432020},{"NoteNumber":64,"Velocity":52,"Duration":302159,"SoundDuration":302159,"Delta":148585074},{"NoteNumber":72,"Velocity":58,"Duration":302159,"SoundDuration":302159,"Delta":148585074},{"NoteNumber":57,"Velocity":39,"Duration":75539,"SoundDuration":75539,"Delta":148585074},{"NoteNumber":56,"Velocity":39,"Duration":75539,"SoundDuration":75539,"Delta":148736154},{"NoteNumber":65,"Velocity":54,"Duration":302160,"SoundDuration":302160,"Delta":148887234},{"NoteNumber":71,"Velocity":61,"Duration":302160,"SoundDuration":302160,"Delta":148887234},{"NoteNumber":74,"Velocity":61,"Duration":302160,"SoundDuration":302160,"Delta":148887234},{"NoteNumber":48,"Velocity":48,"Duration":75540,"SoundDuration":75540,"Delta":148887234},{"NoteNumber":57,"Velocity":44,"Duration":75540,"SoundDuration":75540,"Delta":149038314},{"NoteNumber":64,"Velocity":56,"Duration":151080,"SoundDuration":151080,"Delta":149189394},{"NoteNumber":72,"Velocity":63,"Duration":151080,"SoundDuration":151080,"Delta":149189394},{"NoteNumber":76,"Velocity":63,"Duration":151080,"SoundDuration":151080,"Delta":149189394},{"NoteNumber":56,"Velocity":44,"Duration":75539,"SoundDuration":75539,"Delta":149189394},{"NoteNumber":48,"Velocity":47,"Duration":76526,"SoundDuration":76526,"Delta":149340474},{"NoteNumber":64,"Velocity":53,"Duration":303720,"SoundDuration":303720,"Delta":149493527},{"NoteNumber":72,"Velocity":59,"Duration":303720,"SoundDuration":303720,"Delta":149493527},{"NoteNumber":57,"Velocity":44,"Duration":75930,"SoundDuration":75930,"Delta":149493527},{"NoteNumber":56,"Velocity":44,"Duration":75930,"SoundDuration":75930,"Delta":149645388},{"NoteNumber":62,"Velocity":51,"Duration":303720,"SoundDuration":303720,"Delta":149797248},{"NoteNumber":65,"Velocity":51,"Duration":303720,"SoundDuration":303720,"Delta":149797248},{"NoteNumber":71,"Velocity":57,"Duration":303720,"SoundDuration":303720,"Delta":149797248},{"NoteNumber":48,"Velocity":47,"Duration":75930,"SoundDuration":75930,"Delta":149797248},{"NoteNumber":57,"Velocity":43,"Duration":75930,"SoundDuration":75930,"Delta":149949109},{"NoteNumber":60,"Velocity":52,"Duration":151860,"SoundDuration":151860,"Delta":150100969},{"NoteNumber":64,"Velocity":58,"Duration":151860,"SoundDuration":151860,"Delta":150100969},{"NoteNumber":72,"Velocity":58,"Duration":151860,"SoundDuration":151860,"Delta":150100969},{"NoteNumber":56,"Velocity":43,"Duration":75930,"SoundDuration":75930,"Delta":150100969},{"NoteNumber":48,"Velocity":49,"Duration":76526,"SoundDuration":76526,"Delta":150252830},{"NoteNumber":67,"Velocity":55,"Duration":302159,"SoundDuration":302159,"Delta":150405883},{"NoteNumber":76,"Velocity":62,"Duration":302159,"SoundDuration":302159,"Delta":150405883},{"NoteNumber":60,"Velocity":44,"Duration":75539,"SoundDuration":75539,"Delta":150405883},{"NoteNumber":59,"Velocity":44,"Duration":75539,"SoundDuration":75539,"Delta":150556963},{"NoteNumber":69,"Velocity":54,"Duration":302160,"SoundDuration":302160,"Delta":150708043},{"NoteNumber":75,"Velocity":55,"Duration":302160,"SoundDuration":302160,"Delta":150708043},{"NoteNumber":78,"Velocity":61,"Duration":302160,"SoundDuration":302160,"Delta":150708043},{"NoteNumber":52,"Velocity":48,"Duration":75540,"SoundDuration":75540,"Delta":150708043},{"NoteNumber":60,"Velocity":43,"Duration":75540,"SoundDuration":75540,"Delta":150859123},{"NoteNumber":67,"Velocity":54,"Duration":151080,"SoundDuration":151080,"Delta":151010203},{"NoteNumber":76,"Velocity":61,"Duration":151080,"SoundDuration":151080,"Delta":151010203},{"NoteNumber":79,"Velocity":61,"Duration":151080,"SoundDuration":151080,"Delta":151010203},{"NoteNumber":59,"Velocity":43,"Duration":75539,"SoundDuration":75539,"Delta":151010203},{"NoteNumber":52,"Velocity":49,"Duration":76126,"SoundDuration":76126,"Delta":151161283},{"NoteNumber":71,"Velocity":60,"Duration":302159,"SoundDuration":302159,"Delta":151313537},{"NoteNumber":79,"Velocity":67,"Duration":302159,"SoundDuration":302159,"Delta":151313537},{"NoteNumber":64,"Velocity":44,"Duration":75539,"SoundDuration":75539,"Delta":151313537},{"NoteNumber":63,"Velocity":44,"Duration":75539,"SoundDuration":75539,"Delta":151464617},{"NoteNumber":72,"Velocity":57,"Duration":302160,"SoundDuration":302160,"Delta":151615697},{"NoteNumber":81,"Velocity":64,"Duration":302160,"SoundDuration":302160,"Delta":151615697},{"NoteNumber":78,"Velocity":57,"Duration":302160,"SoundDuration":302160,"Delta":151615697},{"NoteNumber":55,"Velocity":51,"Duration":75540,"SoundDuration":75540,"Delta":151615697},{"NoteNumber":64,"Velocity":46,"Duration":75540,"SoundDuration":75540,"Delta":151766777},{"NoteNumber":71,"Velocity":57,"Duration":151080,"SoundDuration":151080,"Delta":151917857},{"NoteNumber":79,"Velocity":64,"Duration":151080,"SoundDuration":151080,"Delta":151917857},{"NoteNumber":83,"Velocity":64,"Duration":151080,"SoundDuration":151080,"Delta":151917857},{"NoteNumber":63,"Velocity":47,"Duration":75539,"SoundDuration":75539,"Delta":151917857},{"NoteNumber":55,"Velocity":51,"Duration":76526,"SoundDuration":76526,"Delta":152068937},{"NoteNumber":74,"Velocity":62,"Duration":302159,"SoundDuration":302159,"Delta":152221990},{"NoteNumber":83,"Velocity":69,"Duration":302159,"SoundDuration":302159,"Delta":152221990},{"NoteNumber":67,"Velocity":46,"Duration":75539,"SoundDuration":75539,"Delta":152221990},{"NoteNumber":66,"Velocity":46,"Duration":75539,"SoundDuration":75539,"Delta":152373070},{"NoteNumber":85,"Velocity":66,"Duration":302160,"SoundDuration":302160,"Delta":152524150},{"NoteNumber":82,"Velocity":59,"Duration":302160,"SoundDuration":302160,"Delta":152524150},{"NoteNumber":76,"Velocity":59,"Duration":302160,"SoundDuration":302160,"Delta":152524150},{"NoteNumber":59,"Velocity":53,"Duration":75540,"SoundDuration":75540,"Delta":152524150},{"NoteNumber":67,"Velocity":47,"Duration":75540,"SoundDuration":75540,"Delta":152675230},{"NoteNumber":86,"Velocity":68,"Duration":151080,"SoundDuration":151080,"Delta":152826310},{"NoteNumber":83,"Velocity":68,"Duration":151080,"SoundDuration":151080,"Delta":152826310},{"NoteNumber":74,"Velocity":61,"Duration":151080,"SoundDuration":151080,"Delta":152826310},{"NoteNumber":66,"Velocity":48,"Duration":75539,"SoundDuration":75539,"Delta":152826310},{"NoteNumber":59,"Velocity":53,"Duration":76327,"SoundDuration":76327,"Delta":152977390},{"NoteNumber":86,"Velocity":76,"Duration":302159,"SoundDuration":302159,"Delta":153130046},{"NoteNumber":78,"Velocity":68,"Duration":302159,"SoundDuration":302159,"Delta":153130046},{"NoteNumber":71,"Velocity":49,"Duration":75539,"SoundDuration":75539,"Delta":153130046},{"NoteNumber":70,"Velocity":47,"Duration":75539,"SoundDuration":75539,"Delta":153281126},{"NoteNumber":88,"Velocity":74,"Duration":302160,"SoundDuration":302160,"Delta":153432206},{"NoteNumber":85,"Velocity":66,"Duration":302160,"SoundDuration":302160,"Delta":153432206},{"NoteNumber":79,"Velocity":66,"Duration":302160,"SoundDuration":302160,"Delta":153432206},{"NoteNumber":62,"Velocity":58,"Duration":75540,"SoundDuration":75540,"Delta":153432206},{"NoteNumber":71,"Velocity":50,"Duration":75540,"SoundDuration":75540,"Delta":153583286},{"NoteNumber":90,"Velocity":79,"Duration":151080,"SoundDuration":151080,"Delta":153734366},{"NoteNumber":86,"Velocity":79,"Duration":151080,"SoundDuration":151080,"Delta":153734366},{"NoteNumber":78,"Velocity":70,"Duration":151080,"SoundDuration":151080,"Delta":153734366},{"NoteNumber":70,"Velocity":59,"Duration":75539,"SoundDuration":75539,"Delta":153734366},{"NoteNumber":62,"Velocity":48,"Duration":76726,"SoundDuration":76726,"Delta":153885446},{"NoteNumber":78,"Velocity":74,"Duration":302159,"SoundDuration":302159,"Delta":154038899},{"NoteNumber":86,"Velocity":83,"Duration":302159,"SoundDuration":302159,"Delta":154038899},{"NoteNumber":90,"Velocity":83,"Duration":302159,"SoundDuration":302159,"Delta":154038899},{"NoteNumber":70,"Velocity":62,"Duration":151080,"SoundDuration":151080,"Delta":154038899},{"NoteNumber":62,"Velocity":48,"Duration":151079,"SoundDuration":151079,"Delta":154189979},{"NoteNumber":78,"Velocity":71,"Duration":302160,"SoundDuration":302160,"Delta":154341059},{"NoteNumber":86,"Velocity":80,"Duration":302160,"SoundDuration":302160,"Delta":154341059},{"NoteNumber":90,"Velocity":80,"Duration":302160,"SoundDuration":302160,"Delta":154341059},{"NoteNumber":70,"Velocity":61,"Duration":151080,"SoundDuration":151080,"Delta":154341059},{"NoteNumber":62,"Velocity":48,"Duration":151080,"SoundDuration":151080,"Delta":154492139},{"NoteNumber":90,"Velocity":81,"Duration":304133,"SoundDuration":304133,"Delta":154643219},{"NoteNumber":86,"Velocity":81,"Duration":304133,"SoundDuration":304133,"Delta":154643219},{"NoteNumber":78,"Velocity":72,"Duration":304133,"SoundDuration":304133,"Delta":154643219},{"NoteNumber":70,"Velocity":61,"Duration":151080,"SoundDuration":151080,"Delta":154643219},{"NoteNumber":62,"Velocity":48,"Duration":153053,"SoundDuration":153053,"Delta":154794299},{"NoteNumber":88,"Velocity":82,"Duration":302159,"SoundDuration":302159,"Delta":154947352},{"NoteNumber":90,"Velocity":82,"Duration":302159,"SoundDuration":302159,"Delta":154947352},{"NoteNumber":78,"Velocity":73,"Duration":302159,"SoundDuration":302159,"Delta":154947352},{"NoteNumber":70,"Velocity":61,"Duration":151080,"SoundDuration":151080,"Delta":154947352},{"NoteNumber":61,"Velocity":48,"Duration":151079,"SoundDuration":151079,"Delta":155098432},{"NoteNumber":78,"Velocity":69,"Duration":302160,"SoundDuration":302160,"Delta":155249512},{"NoteNumber":88,"Velocity":78,"Duration":302160,"SoundDuration":302160,"Delta":155249512},{"NoteNumber":90,"Velocity":78,"Duration":302160,"SoundDuration":302160,"Delta":155249512},{"NoteNumber":70,"Velocity":58,"Duration":151080,"SoundDuration":151080,"Delta":155249512},{"NoteNumber":61,"Velocity":46,"Duration":151080,"SoundDuration":151080,"Delta":155400592},{"NoteNumber":78,"Velocity":70,"Duration":304133,"SoundDuration":304133,"Delta":155551672},{"NoteNumber":88,"Velocity":79,"Duration":304133,"SoundDuration":304133,"Delta":155551672},{"NoteNumber":90,"Velocity":79,"Duration":304133,"SoundDuration":304133,"Delta":155551672},{"NoteNumber":70,"Velocity":57,"Duration":151080,"SoundDuration":151080,"Delta":155551672},{"NoteNumber":61,"Velocity":46,"Duration":153053,"SoundDuration":153053,"Delta":155702752},{"NoteNumber":78,"Velocity":79,"Duration":302267,"SoundDuration":302267,"Delta":155855806},{"NoteNumber":70,"Velocity":70,"Duration":302267,"SoundDuration":302267,"Delta":155855806},{"NoteNumber":76,"Velocity":79,"Duration":302267,"SoundDuration":302267,"Delta":155855806},{"NoteNumber":61,"Velocity":57,"Duration":151133,"SoundDuration":151133,"Delta":155855806},{"NoteNumber":54,"Velocity":46,"Duration":151133,"SoundDuration":151133,"Delta":156006939},{"NoteNumber":70,"Velocity":70,"Duration":306121,"SoundDuration":306121,"Delta":156158073},{"NoteNumber":78,"Velocity":79,"Duration":306121,"SoundDuration":306121,"Delta":156158073},{"NoteNumber":76,"Velocity":79,"Duration":306121,"SoundDuration":306121,"Delta":156158073},{"NoteNumber":61,"Velocity":56,"Duration":153061,"SoundDuration":153061,"Delta":156158073},{"NoteNumber":54,"Velocity":42,"Duration":153060,"SoundDuration":153060,"Delta":156311134},{"NoteNumber":70,"Velocity":69,"Duration":313489,"SoundDuration":313489,"Delta":156464195},{"NoteNumber":76,"Velocity":77,"Duration":313489,"SoundDuration":313489,"Delta":156464195},{"NoteNumber":78,"Velocity":77,"Duration":313489,"SoundDuration":313489,"Delta":156464195},{"NoteNumber":61,"Velocity":57,"Duration":153061,"SoundDuration":153061,"Delta":156464195},{"NoteNumber":54,"Velocity":44,"Duration":160427,"SoundDuration":160427,"Delta":156617256},{"NoteNumber":58,"Velocity":63,"Duration":307342,"SoundDuration":307342,"Delta":156777684},{"NoteNumber":66,"Velocity":70,"Duration":307342,"SoundDuration":307342,"Delta":156777684},{"NoteNumber":64,"Velocity":70,"Duration":307342,"SoundDuration":307342,"Delta":156777684},{"NoteNumber":49,"Velocity":50,"Duration":152867,"SoundDuration":152867,"Delta":156777684},{"NoteNumber":42,"Velocity":40,"Duration":154474,"SoundDuration":154474,"Delta":156930551},{"NoteNumber":58,"Velocity":63,"Duration":320312,"SoundDuration":320312,"Delta":157085026},{"NoteNumber":64,"Velocity":70,"Duration":320312,"SoundDuration":320312,"Delta":157085026},{"NoteNumber":66,"Velocity":70,"Duration":320312,"SoundDuration":320312,"Delta":157085026},{"NoteNumber":49,"Velocity":50,"Duration":157700,"SoundDuration":157700,"Delta":157085026},{"NoteNumber":42,"Velocity":41,"Duration":162612,"SoundDuration":162612,"Delta":157242726},{"NoteNumber":58,"Velocity":62,"Duration":355347,"SoundDuration":355347,"Delta":157405339},{"NoteNumber":66,"Velocity":69,"Duration":355347,"SoundDuration":355347,"Delta":157405339},{"NoteNumber":64,"Velocity":69,"Duration":355347,"SoundDuration":355347,"Delta":157405339},{"NoteNumber":49,"Velocity":49,"Duration":167847,"SoundDuration":167847,"Delta":157405339},{"NoteNumber":42,"Velocity":41,"Duration":187500,"SoundDuration":187500,"Delta":157573187},{"NoteNumber":66,"Velocity":45,"Duration":149253,"SoundDuration":149253,"Delta":157823187},{"NoteNumber":71,"Velocity":49,"Duration":149253,"SoundDuration":149253,"Delta":157823187},{"NoteNumber":62,"Velocity":45,"Duration":149253,"SoundDuration":149253,"Delta":157823187},{"NoteNumber":65,"Velocity":46,"Duration":149253,"SoundDuration":149253,"Delta":157972440},{"NoteNumber":61,"Velocity":43,"Duration":149253,"SoundDuration":149253,"Delta":157972440},{"NoteNumber":66,"Velocity":45,"Duration":299251,"SoundDuration":299251,"Delta":158121694},{"NoteNumber":71,"Velocity":49,"Duration":299251,"SoundDuration":299251,"Delta":158121694},{"NoteNumber":62,"Velocity":45,"Duration":299251,"SoundDuration":299251,"Delta":158121694},{"NoteNumber":47,"Velocity":40,"Duration":149625,"SoundDuration":149625,"Delta":158271320},{"NoteNumber":64,"Velocity":45,"Duration":152656,"SoundDuration":152656,"Delta":158420946},{"NoteNumber":70,"Velocity":49,"Duration":152656,"SoundDuration":152656,"Delta":158420946},{"NoteNumber":61,"Velocity":43,"Duration":152656,"SoundDuration":152656,"Delta":158420946},{"NoteNumber":47,"Velocity":36,"Duration":152655,"SoundDuration":152655,"Delta":158573602},{"NoteNumber":62,"Velocity":45,"Duration":149557,"SoundDuration":149557,"Delta":158726258},{"NoteNumber":67,"Velocity":49,"Duration":149557,"SoundDuration":149557,"Delta":158726258},{"NoteNumber":59,"Velocity":44,"Duration":149557,"SoundDuration":149557,"Delta":158726258},{"NoteNumber":61,"Velocity":45,"Duration":149253,"SoundDuration":149253,"Delta":158875816},{"NoteNumber":58,"Velocity":42,"Duration":149253,"SoundDuration":149253,"Delta":158875816},{"NoteNumber":62,"Velocity":45,"Duration":299251,"SoundDuration":299251,"Delta":159025069},{"NoteNumber":67,"Velocity":49,"Duration":299251,"SoundDuration":299251,"Delta":159025069},{"NoteNumber":59,"Velocity":45,"Duration":299251,"SoundDuration":299251,"Delta":159025069},{"NoteNumber":47,"Velocity":39,"Duration":149625,"SoundDuration":149625,"Delta":159174695},{"NoteNumber":61,"Velocity":44,"Duration":153452,"SoundDuration":153452,"Delta":159324321},{"NoteNumber":66,"Velocity":47,"Duration":153452,"SoundDuration":153452,"Delta":159324321},{"NoteNumber":58,"Velocity":44,"Duration":153452,"SoundDuration":153452,"Delta":159324321},{"NoteNumber":47,"Velocity":36,"Duration":153452,"SoundDuration":153452,"Delta":159477774},{"NoteNumber":60,"Velocity":45,"Duration":149253,"SoundDuration":149253,"Delta":159631226},{"NoteNumber":66,"Velocity":49,"Duration":149253,"SoundDuration":149253,"Delta":159631226},{"NoteNumber":57,"Velocity":44,"Duration":149253,"SoundDuration":149253,"Delta":159631226},{"NoteNumber":59,"Velocity":46,"Duration":149253,"SoundDuration":149253,"Delta":159780480},{"NoteNumber":56,"Velocity":41,"Duration":149253,"SoundDuration":149253,"Delta":159780480},{"NoteNumber":60,"Velocity":45,"Duration":300751,"SoundDuration":300751,"Delta":159929733},{"NoteNumber":66,"Velocity":49,"Duration":300751,"SoundDuration":300751,"Delta":159929733},{"NoteNumber":57,"Velocity":45,"Duration":300751,"SoundDuration":300751,"Delta":159929733},{"NoteNumber":47,"Velocity":40,"Duration":150375,"SoundDuration":150375,"Delta":160080109},{"NoteNumber":59,"Velocity":43,"Duration":149917,"SoundDuration":149917,"Delta":160230485},{"NoteNumber":64,"Velocity":46,"Duration":149917,"SoundDuration":149917,"Delta":160230485},{"NoteNumber":56,"Velocity":44,"Duration":149917,"SoundDuration":149917,"Delta":160230485},{"NoteNumber":47,"Velocity":37,"Duration":149917,"SoundDuration":149917,"Delta":160380403},{"NoteNumber":58,"Velocity":45,"Duration":151080,"SoundDuration":151080,"Delta":160530320},{"NoteNumber":64,"Velocity":49,"Duration":151080,"SoundDuration":151080,"Delta":160530320},{"NoteNumber":55,"Velocity":45,"Duration":151080,"SoundDuration":151080,"Delta":160530320},{"NoteNumber":47,"Velocity":43,"Duration":151079,"SoundDuration":151079,"Delta":160681400},{"NoteNumber":58,"Velocity":47,"Duration":151080,"SoundDuration":151080,"Delta":160832480},{"NoteNumber":62,"Velocity":52,"Duration":151080,"SoundDuration":151080,"Delta":160832480},{"NoteNumber":54,"Velocity":49,"Duration":151080,"SoundDuration":151080,"Delta":160832480},{"NoteNumber":47,"Velocity":50,"Duration":151080,"SoundDuration":151080,"Delta":160983560},{"NoteNumber":58,"Velocity":45,"Duration":151080,"SoundDuration":151080,"Delta":161134640},{"NoteNumber":61,"Velocity":50,"Duration":151080,"SoundDuration":151080,"Delta":161134640},{"NoteNumber":52,"Velocity":47,"Duration":151080,"SoundDuration":151080,"Delta":161134640},{"NoteNumber":59,"Velocity":47,"Duration":151860,"SoundDuration":151860,"Delta":161285720},{"NoteNumber":47,"Velocity":44,"Duration":151860,"SoundDuration":151860,"Delta":161285720},{"NoteNumber":50,"Velocity":44,"Duration":151860,"SoundDuration":151860,"Delta":161285720},{"NoteNumber":53,"Velocity":52,"Duration":74958,"SoundDuration":74958,"Delta":161437581},{"NoteNumber":54,"Velocity":54,"Duration":77128,"SoundDuration":77128,"Delta":161587498},{"NoteNumber":55,"Velocity":59,"Duration":453239,"SoundDuration":453239,"Delta":161741756},{"NoteNumber":62,"Velocity":47,"Duration":75539,"SoundDuration":75539,"Delta":161892836},{"NoteNumber":71,"Velocity":47,"Duration":75539,"SoundDuration":75539,"Delta":161892836},{"NoteNumber":74,"Velocity":47,"Duration":75539,"SoundDuration":75539,"Delta":161892836},{"NoteNumber":64,"Velocity":49,"Duration":75539,"SoundDuration":75539,"Delta":162043916},{"NoteNumber":71,"Velocity":49,"Duration":75539,"SoundDuration":75539,"Delta":162043916},{"NoteNumber":74,"Velocity":49,"Duration":75539,"SoundDuration":75539,"Delta":162043916},{"NoteNumber":65,"Velocity":46,"Duration":75930,"SoundDuration":75930,"Delta":162194996},{"NoteNumber":71,"Velocity":46,"Duration":75930,"SoundDuration":75930,"Delta":162194996},{"NoteNumber":74,"Velocity":46,"Duration":75930,"SoundDuration":75930,"Delta":162194996},{"NoteNumber":43,"Velocity":49,"Duration":151860,"SoundDuration":151860,"Delta":162194996},{"NoteNumber":45,"Velocity":51,"Duration":75539,"SoundDuration":75539,"Delta":162346856},{"NoteNumber":43,"Velocity":49,"Duration":75539,"SoundDuration":75539,"Delta":162497936},{"NoteNumber":42,"Velocity":51,"Duration":454801,"SoundDuration":454801,"Delta":162649016},{"NoteNumber":56,"Velocity":45,"Duration":75930,"SoundDuration":75930,"Delta":162800096},{"NoteNumber":59,"Velocity":45,"Duration":75930,"SoundDuration":75930,"Delta":162800096},{"NoteNumber":66,"Velocity":45,"Duration":75930,"SoundDuration":75930,"Delta":162800096},{"NoteNumber":58,"Velocity":46,"Duration":75930,"SoundDuration":75930,"Delta":162951957},{"NoteNumber":61,"Velocity":46,"Duration":75930,"SoundDuration":75930,"Delta":162951957},{"NoteNumber":64,"Velocity":46,"Duration":75930,"SoundDuration":75930,"Delta":162951957},{"NoteNumber":59,"Velocity":46,"Duration":76126,"SoundDuration":76126,"Delta":163103817},{"NoteNumber":62,"Velocity":46,"Duration":76126,"SoundDuration":76126,"Delta":163103817},{"NoteNumber":47,"Velocity":48,"Duration":152253,"SoundDuration":152253,"Delta":163103817},{"NoteNumber":53,"Velocity":51,"Duration":74958,"SoundDuration":74958,"Delta":163256071},{"NoteNumber":54,"Velocity":54,"Duration":74958,"SoundDuration":74958,"Delta":163405988},{"NoteNumber":55,"Velocity":58,"Duration":454020,"SoundDuration":454020,"Delta":163555906},{"NoteNumber":62,"Velocity":47,"Duration":75539,"SoundDuration":75539,"Delta":163707766},{"NoteNumber":71,"Velocity":47,"Duration":75539,"SoundDuration":75539,"Delta":163707766},{"NoteNumber":74,"Velocity":47,"Duration":75539,"SoundDuration":75539,"Delta":163707766},{"NoteNumber":64,"Velocity":49,"Duration":75539,"SoundDuration":75539,"Delta":163858846},{"NoteNumber":71,"Velocity":49,"Duration":75539,"SoundDuration":75539,"Delta":163858846},{"NoteNumber":74,"Velocity":49,"Duration":75539,"SoundDuration":75539,"Delta":163858846},{"NoteNumber":65,"Velocity":45,"Duration":76327,"SoundDuration":76327,"Delta":164009926},{"NoteNumber":71,"Velocity":45,"Duration":76327,"SoundDuration":76327,"Delta":164009926},{"NoteNumber":74,"Velocity":45,"Duration":76327,"SoundDuration":76327,"Delta":164009926},{"NoteNumber":43,"Velocity":49,"Duration":152656,"SoundDuration":152656,"Delta":164009926},{"NoteNumber":45,"Velocity":54,"Duration":75539,"SoundDuration":75539,"Delta":164162582},{"NoteNumber":43,"Velocity":51,"Duration":75539,"SoundDuration":75539,"Delta":164313662},{"NoteNumber":42,"Velocity":52,"Duration":456774,"SoundDuration":456774,"Delta":164464742},{"NoteNumber":56,"Velocity":47,"Duration":75930,"SoundDuration":75930,"Delta":164617796},{"NoteNumber":59,"Velocity":47,"Duration":75930,"SoundDuration":75930,"Delta":164617796},{"NoteNumber":66,"Velocity":47,"Duration":75930,"SoundDuration":75930,"Delta":164617796},{"NoteNumber":58,"Velocity":46,"Duration":75930,"SoundDuration":75930,"Delta":164769656},{"NoteNumber":61,"Velocity":46,"Duration":75930,"SoundDuration":75930,"Delta":164769656},{"NoteNumber":64,"Velocity":46,"Duration":75930,"SoundDuration":75930,"Delta":164769656},{"NoteNumber":59,"Velocity":46,"Duration":78157,"SoundDuration":78157,"Delta":164921517},{"NoteNumber":62,"Velocity":46,"Duration":78157,"SoundDuration":78157,"Delta":164921517},{"NoteNumber":47,"Velocity":49,"Duration":156315,"SoundDuration":156315,"Delta":164921517},{"NoteNumber":52,"Velocity":55,"Duration":75539,"SoundDuration":75539,"Delta":165077832},{"NoteNumber":50,"Velocity":52,"Duration":75539,"SoundDuration":75539,"Delta":165228912},{"NoteNumber":49,"Velocity":51,"Duration":456377,"SoundDuration":456377,"Delta":165379992},{"NoteNumber":57,"Velocity":47,"Duration":75930,"SoundDuration":75930,"Delta":165532648},{"NoteNumber":64,"Velocity":47,"Duration":75930,"SoundDuration":75930,"Delta":165532648},{"NoteNumber":69,"Velocity":47,"Duration":75930,"SoundDuration":75930,"Delta":165532648},{"NoteNumber":57,"Velocity":46,"Duration":75930,"SoundDuration":75930,"Delta":165684508},{"NoteNumber":64,"Velocity":46,"Duration":75930,"SoundDuration":75930,"Delta":165684508},{"NoteNumber":67,"Velocity":46,"Duration":75930,"SoundDuration":75930,"Delta":165684508},{"NoteNumber":57,"Velocity":47,"Duration":78157,"SoundDuration":78157,"Delta":165836369},{"NoteNumber":62,"Velocity":47,"Duration":78157,"SoundDuration":78157,"Delta":165836369},{"NoteNumber":66,"Velocity":47,"Duration":78157,"SoundDuration":78157,"Delta":165836369},{"NoteNumber":50,"Velocity":50,"Duration":156315,"SoundDuration":156315,"Delta":165836369},{"NoteNumber":56,"Velocity":58,"Duration":75539,"SoundDuration":75539,"Delta":165992684},{"NoteNumber":54,"Velocity":56,"Duration":75539,"SoundDuration":75539,"Delta":166143764},{"NoteNumber":53,"Velocity":55,"Duration":456377,"SoundDuration":456377,"Delta":166294844},{"NoteNumber":61,"Velocity":55,"Duration":75930,"SoundDuration":75930,"Delta":166447500},{"NoteNumber":68,"Velocity":55,"Duration":75930,"SoundDuration":75930,"Delta":166447500},{"NoteNumber":73,"Velocity":55,"Duration":75930,"SoundDuration":75930,"Delta":166447500},{"NoteNumber":61,"Velocity":55,"Duration":75930,"SoundDuration":75930,"Delta":166599360},{"NoteNumber":68,"Velocity":55,"Duration":75930,"SoundDuration":75930,"Delta":166599360},{"NoteNumber":71,"Velocity":55,"Duration":75930,"SoundDuration":75930,"Delta":166599360},{"NoteNumber":61,"Velocity":55,"Duration":78157,"SoundDuration":78157,"Delta":166751221},{"NoteNumber":66,"Velocity":55,"Duration":78157,"SoundDuration":78157,"Delta":166751221},{"NoteNumber":70,"Velocity":55,"Duration":78157,"SoundDuration":78157,"Delta":166751221},{"NoteNumber":54,"Velocity":52,"Duration":156315,"SoundDuration":156315,"Delta":166751221},{"NoteNumber":73,"Velocity":66,"Duration":300601,"SoundDuration":300601,"Delta":166907536},{"NoteNumber":78,"Velocity":66,"Duration":150300,"SoundDuration":150300,"Delta":166907536},{"NoteNumber":58,"Velocity":56,"Duration":300601,"SoundDuration":300601,"Delta":166907536},{"NoteNumber":66,"Velocity":56,"Duration":452461,"SoundDuration":452461,"Delta":166907536},{"NoteNumber":76,"Velocity":66,"Duration":150300,"SoundDuration":150300,"Delta":167057836},{"NoteNumber":71,"Velocity":64,"Duration":151860,"SoundDuration":151860,"Delta":167208137},{"NoteNumber":74,"Velocity":64,"Duration":151860,"SoundDuration":151860,"Delta":167208137},{"NoteNumber":56,"Velocity":60,"Duration":151860,"SoundDuration":151860,"Delta":167208137},{"NoteNumber":73,"Velocity":72,"Duration":300601,"SoundDuration":300601,"Delta":167359997},{"NoteNumber":78,"Velocity":72,"Duration":150300,"SoundDuration":150300,"Delta":167359997},{"NoteNumber":58,"Velocity":60,"Duration":300601,"SoundDuration":300601,"Delta":167359997},{"NoteNumber":66,"Velocity":60,"Duration":452854,"SoundDuration":452854,"Delta":167359997},{"NoteNumber":76,"Velocity":69,"Duration":150300,"SoundDuration":150300,"Delta":167510298},{"NoteNumber":71,"Velocity":70,"Duration":152253,"SoundDuration":152253,"Delta":167660598},{"NoteNumber":74,"Velocity":70,"Duration":152253,"SoundDuration":152253,"Delta":167660598},{"NoteNumber":56,"Velocity":65,"Duration":152253,"SoundDuration":152253,"Delta":167660598},{"NoteNumber":73,"Velocity":77,"Duration":300601,"SoundDuration":300601,"Delta":167812852},{"NoteNumber":78,"Velocity":77,"Duration":150300,"SoundDuration":150300,"Delta":167812852},{"NoteNumber":58,"Velocity":65,"Duration":300601,"SoundDuration":300601,"Delta":167812852},{"NoteNumber":66,"Velocity":65,"Duration":455272,"SoundDuration":455272,"Delta":167812852},{"NoteNumber":76,"Velocity":78,"Duration":150300,"SoundDuration":150300,"Delta":167963152},{"NoteNumber":71,"Velocity":80,"Duration":154671,"SoundDuration":154671,"Delta":168113453},{"NoteNumber":74,"Velocity":80,"Duration":154671,"SoundDuration":154671,"Delta":168113453},{"NoteNumber":56,"Velocity":71,"Duration":154671,"SoundDuration":154671,"Delta":168113453},{"NoteNumber":78,"Velocity":82,"Duration":78370,"SoundDuration":78370,"Delta":168268124},{"NoteNumber":73,"Velocity":82,"Duration":78370,"SoundDuration":78370,"Delta":168268124},{"NoteNumber":58,"Velocity":72,"Duration":78370,"SoundDuration":78370,"Delta":168268124},{"NoteNumber":66,"Velocity":72,"Duration":78370,"SoundDuration":78370,"Delta":168268124},{"NoteNumber":71,"Velocity":78,"Duration":79364,"SoundDuration":79364,"Delta":168424864},{"NoteNumber":74,"Velocity":78,"Duration":79364,"SoundDuration":79364,"Delta":168424864},{"NoteNumber":59,"Velocity":69,"Duration":79364,"SoundDuration":79364,"Delta":168424864},{"NoteNumber":66,"Velocity":69,"Duration":79364,"SoundDuration":79364,"Delta":168424864},{"NoteNumber":67,"Velocity":74,"Duration":481057,"SoundDuration":481057,"Delta":168583594},{"NoteNumber":71,"Velocity":74,"Duration":481057,"SoundDuration":481057,"Delta":168583594},{"NoteNumber":76,"Velocity":88,"Duration":481057,"SoundDuration":481057,"Delta":168583594},{"NoteNumber":79,"Velocity":88,"Duration":481057,"SoundDuration":481057,"Delta":168583594},{"NoteNumber":52,"Velocity":63,"Duration":481057,"SoundDuration":481057,"Delta":168583594},{"NoteNumber":59,"Velocity":63,"Duration":481057,"SoundDuration":481057,"Delta":168583594},{"NoteNumber":64,"Velocity":75,"Duration":481057,"SoundDuration":481057,"Delta":168583594},{"NoteNumber":52,"Velocity":54,"Duration":310623,"SoundDuration":310623,"Delta":169064651},{"NoteNumber":55,"Velocity":56,"Duration":77854,"SoundDuration":77854,"Delta":169142912},{"NoteNumber":59,"Velocity":57,"Duration":77452,"SoundDuration":77452,"Delta":169220767},{"NoteNumber":61,"Velocity":59,"Duration":77054,"SoundDuration":77054,"Delta":169298219},{"NoteNumber":64,"Velocity":64,"Duration":76661,"SoundDuration":76661,"Delta":169375274},{"NoteNumber":67,"Velocity":63,"Duration":76271,"SoundDuration":76271,"Delta":169451935},{"NoteNumber":76,"Velocity":61,"Duration":75738,"SoundDuration":75738,"Delta":169528207},{"NoteNumber":73,"Velocity":60,"Duration":75540,"SoundDuration":75540,"Delta":169603945},{"NoteNumber":71,"Velocity":59,"Duration":75539,"SoundDuration":75539,"Delta":169679485},{"NoteNumber":67,"Velocity":58,"Duration":75637,"SoundDuration":75637,"Delta":169755025},{"NoteNumber":64,"Velocity":56,"Duration":75734,"SoundDuration":75734,"Delta":169830662},{"NoteNumber":61,"Velocity":57,"Duration":75604,"SoundDuration":75604,"Delta":169906397},{"NoteNumber":59,"Velocity":57,"Duration":75799,"SoundDuration":75799,"Delta":169982002},{"NoteNumber":55,"Velocity":56,"Duration":76193,"SoundDuration":76193,"Delta":170057802},{"NoteNumber":52,"Velocity":56,"Duration":76526,"SoundDuration":76526,"Delta":170133996},{"NoteNumber":49,"Velocity":58,"Duration":76860,"SoundDuration":76860,"Delta":170210523},{"NoteNumber":47,"Velocity":58,"Duration":77266,"SoundDuration":77266,"Delta":170287383},{"NoteNumber":43,"Velocity":58,"Duration":77438,"SoundDuration":77438,"Delta":170364649},{"NoteNumber":40,"Velocity":57,"Duration":155901,"SoundDuration":155901,"Delta":170442088},{"NoteNumber":49,"Velocity":57,"Duration":155901,"SoundDuration":155901,"Delta":170597989},{"NoteNumber":55,"Velocity":56,"Duration":77950,"SoundDuration":77950,"Delta":170753890},{"NoteNumber":59,"Velocity":56,"Duration":77950,"SoundDuration":77950,"Delta":170753890},{"NoteNumber":64,"Velocity":56,"Duration":77950,"SoundDuration":77950,"Delta":170753890},{"NoteNumber":52,"Velocity":53,"Duration":77452,"SoundDuration":77452,"Delta":170909791},{"NoteNumber":59,"Velocity":55,"Duration":77187,"SoundDuration":77187,"Delta":170987244},{"NoteNumber":61,"Velocity":56,"Duration":76857,"SoundDuration":76857,"Delta":171064431},{"NoteNumber":64,"Velocity":58,"Duration":76465,"SoundDuration":76465,"Delta":171141288},{"NoteNumber":67,"Velocity":63,"Duration":76206,"SoundDuration":76206,"Delta":171217754},{"NoteNumber":71,"Velocity":63,"Duration":75885,"SoundDuration":75885,"Delta":171293961},{"NoteNumber":79,"Velocity":61,"Duration":75566,"SoundDuration":75566,"Delta":171369846},{"NoteNumber":76,"Velocity":60,"Duration":75566,"SoundDuration":75566,"Delta":171445413},{"NoteNumber":73,"Velocity":59,"Duration":75566,"SoundDuration":75566,"Delta":171520980},{"NoteNumber":71,"Velocity":58,"Duration":75566,"SoundDuration":75566,"Delta":171596546},{"NoteNumber":67,"Velocity":57,"Duration":75566,"SoundDuration":75566,"Delta":171672113},{"NoteNumber":64,"Velocity":58,"Duration":75493,"SoundDuration":75493,"Delta":171747680},{"NoteNumber":61,"Velocity":57,"Duration":75411,"SoundDuration":75411,"Delta":171823173},{"NoteNumber":59,"Velocity":56,"Duration":75669,"SoundDuration":75669,"Delta":171898584},{"NoteNumber":55,"Velocity":56,"Duration":75995,"SoundDuration":75995,"Delta":171974254},{"NoteNumber":52,"Velocity":58,"Duration":76260,"SoundDuration":76260,"Delta":172050250},{"NoteNumber":49,"Velocity":58,"Duration":76593,"SoundDuration":76593,"Delta":172126511},{"NoteNumber":47,"Velocity":58,"Duration":76726,"SoundDuration":76726,"Delta":172203104},{"NoteNumber":43,"Velocity":60,"Duration":155488,"SoundDuration":155488,"Delta":172279831},{"NoteNumber":49,"Velocity":57,"Duration":155489,"SoundDuration":155489,"Delta":172435320},{"NoteNumber":71,"Velocity":62,"Duration":77744,"SoundDuration":77744,"Delta":172590809},{"NoteNumber":59,"Velocity":62,"Duration":77744,"SoundDuration":77744,"Delta":172590809},{"NoteNumber":64,"Velocity":62,"Duration":77744,"SoundDuration":77744,"Delta":172590809},{"NoteNumber":67,"Velocity":62,"Duration":77744,"SoundDuration":77744,"Delta":172590809},{"NoteNumber":42,"Velocity":63,"Duration":77744,"SoundDuration":77744,"Delta":172746298},{"NoteNumber":47,"Velocity":65,"Duration":77605,"SoundDuration":77605,"Delta":172824042},{"NoteNumber":50,"Velocity":68,"Duration":77402,"SoundDuration":77402,"Delta":172901647},{"NoteNumber":54,"Velocity":70,"Duration":77197,"SoundDuration":77197,"Delta":172979049},{"NoteNumber":59,"Velocity":71,"Duration":77061,"SoundDuration":77061,"Delta":173056247},{"NoteNumber":62,"Velocity":73,"Duration":76860,"SoundDuration":76860,"Delta":173133309},{"NoteNumber":66,"Velocity":75,"Duration":76659,"SoundDuration":76659,"Delta":173210169},{"NoteNumber":54,"Velocity":75,"Duration":76659,"SoundDuration":76659,"Delta":173210169},{"NoteNumber":71,"Velocity":78,"Duration":76460,"SoundDuration":76460,"Delta":173286828},{"NoteNumber":59,"Velocity":77,"Duration":76460,"SoundDuration":76460,"Delta":173286828},{"NoteNumber":62,"Velocity":79,"Duration":76327,"SoundDuration":76327,"Delta":173363289},{"NoteNumber":74,"Velocity":79,"Duration":76327,"SoundDuration":76327,"Delta":173363289},{"NoteNumber":66,"Velocity":81,"Duration":76328,"SoundDuration":76328,"Delta":173439617},{"NoteNumber":78,"Velocity":81,"Duration":76328,"SoundDuration":76328,"Delta":173439617},{"NoteNumber":71,"Velocity":84,"Duration":76327,"SoundDuration":76327,"Delta":173515945},{"NoteNumber":83,"Velocity":84,"Duration":76327,"SoundDuration":76327,"Delta":173515945},{"NoteNumber":74,"Velocity":86,"Duration":76328,"SoundDuration":76328,"Delta":173592273},{"NoteNumber":86,"Velocity":86,"Duration":76328,"SoundDuration":76328,"Delta":173592273},{"NoteNumber":90,"Velocity":90,"Duration":229884,"SoundDuration":229884,"Delta":173668601},{"NoteNumber":78,"Velocity":81,"Duration":229884,"SoundDuration":229884,"Delta":173668601},{"NoteNumber":64,"Velocity":72,"Duration":74441,"SoundDuration":74441,"Delta":173898486},{"NoteNumber":76,"Velocity":80,"Duration":74441,"SoundDuration":74441,"Delta":173898486},{"NoteNumber":79,"Velocity":85,"Duration":74441,"SoundDuration":74441,"Delta":173898486},{"NoteNumber":91,"Velocity":95,"Duration":74441,"SoundDuration":74441,"Delta":173898486},{"NoteNumber":61,"Velocity":68,"Duration":74441,"SoundDuration":74441,"Delta":174047369},{"NoteNumber":73,"Velocity":76,"Duration":74441,"SoundDuration":74441,"Delta":174047369},{"NoteNumber":76,"Velocity":81,"Duration":74441,"SoundDuration":74441,"Delta":174047369},{"NoteNumber":88,"Velocity":90,"Duration":74441,"SoundDuration":74441,"Delta":174047369},{"NoteNumber":62,"Velocity":72,"Duration":74626,"SoundDuration":74626,"Delta":174196438},{"NoteNumber":74,"Velocity":80,"Duration":74626,"SoundDuration":74626,"Delta":174196438},{"NoteNumber":90,"Velocity":95,"Duration":74626,"SoundDuration":74626,"Delta":174196438},{"NoteNumber":78,"Velocity":85,"Duration":74626,"SoundDuration":74626,"Delta":174196438},{"NoteNumber":59,"Velocity":68,"Duration":74813,"SoundDuration":74813,"Delta":174345753},{"NoteNumber":71,"Velocity":76,"Duration":74813,"SoundDuration":74813,"Delta":174345753},{"NoteNumber":74,"Velocity":81,"Duration":74813,"SoundDuration":74813,"Delta":174345753},{"NoteNumber":86,"Velocity":90,"Duration":74813,"SoundDuration":74813,"Delta":174345753},{"NoteNumber":61,"Velocity":80,"Duration":74937,"SoundDuration":74937,"Delta":174495379},{"NoteNumber":73,"Velocity":80,"Duration":74937,"SoundDuration":74937,"Delta":174495379},{"NoteNumber":88,"Velocity":95,"Duration":74937,"SoundDuration":74937,"Delta":174495379},{"NoteNumber":76,"Velocity":85,"Duration":74937,"SoundDuration":74937,"Delta":174495379},{"NoteNumber":58,"Velocity":68,"Duration":74999,"SoundDuration":74999,"Delta":174645317},{"NoteNumber":70,"Velocity":76,"Duration":74999,"SoundDuration":74999,"Delta":174645317},{"NoteNumber":73,"Velocity":81,"Duration":74999,"SoundDuration":74999,"Delta":174645317},{"NoteNumber":85,"Velocity":90,"Duration":74999,"SoundDuration":74999,"Delta":174645317},{"NoteNumber":59,"Velocity":71,"Duration":75187,"SoundDuration":75187,"Delta":174795505},{"NoteNumber":71,"Velocity":79,"Duration":75187,"SoundDuration":75187,"Delta":174795505},{"NoteNumber":86,"Velocity":94,"Duration":75187,"SoundDuration":75187,"Delta":174795505},{"NoteNumber":74,"Velocity":84,"Duration":75187,"SoundDuration":75187,"Delta":174795505},{"NoteNumber":54,"Velocity":65,"Duration":75377,"SoundDuration":75377,"Delta":174945944},{"NoteNumber":66,"Velocity":73,"Duration":75377,"SoundDuration":75377,"Delta":174945944},{"NoteNumber":70,"Velocity":77,"Duration":75377,"SoundDuration":75377,"Delta":174945944},{"NoteNumber":82,"Velocity":86,"Duration":75377,"SoundDuration":75377,"Delta":174945944},{"NoteNumber":71,"Velocity":82,"Duration":75503,"SoundDuration":75503,"Delta":175096698},{"NoteNumber":83,"Velocity":92,"Duration":75503,"SoundDuration":75503,"Delta":175096698},{"NoteNumber":67,"Velocity":78,"Duration":75503,"SoundDuration":75503,"Delta":175096698},{"NoteNumber":55,"Velocity":70,"Duration":75503,"SoundDuration":75503,"Delta":175096698},{"NoteNumber":78,"Velocity":85,"Duration":75566,"SoundDuration":75566,"Delta":175247768},{"NoteNumber":66,"Velocity":76,"Duration":75566,"SoundDuration":75566,"Delta":175247768},{"NoteNumber":50,"Velocity":64,"Duration":75566,"SoundDuration":75566,"Delta":175247768},{"NoteNumber":62,"Velocity":72,"Duration":75566,"SoundDuration":75566,"Delta":175247768},{"NoteNumber":67,"Velocity":81,"Duration":75757,"SoundDuration":75757,"Delta":175399093},{"NoteNumber":79,"Velocity":90,"Duration":75757,"SoundDuration":75757,"Delta":175399093},{"NoteNumber":52,"Velocity":68,"Duration":75757,"SoundDuration":75757,"Delta":175399093},{"NoteNumber":64,"Velocity":76,"Duration":75757,"SoundDuration":75757,"Delta":175399093},{"NoteNumber":64,"Velocity":75,"Duration":75949,"SoundDuration":75949,"Delta":175550672},{"NoteNumber":76,"Velocity":84,"Duration":75949,"SoundDuration":75949,"Delta":175550672},{"NoteNumber":49,"Velocity":63,"Duration":75949,"SoundDuration":75949,"Delta":175550672},{"NoteNumber":61,"Velocity":71,"Duration":75949,"SoundDuration":75949,"Delta":175550672},{"NoteNumber":66,"Velocity":81,"Duration":75949,"SoundDuration":75949,"Delta":175702570},{"NoteNumber":78,"Velocity":91,"Duration":75949,"SoundDuration":75949,"Delta":175702570},{"NoteNumber":50,"Velocity":69,"Duration":75949,"SoundDuration":75949,"Delta":175702570},{"NoteNumber":62,"Velocity":77,"Duration":75949,"SoundDuration":75949,"Delta":175702570},{"NoteNumber":62,"Velocity":74,"Duration":75949,"SoundDuration":75949,"Delta":175854469},{"NoteNumber":74,"Velocity":83,"Duration":75949,"SoundDuration":75949,"Delta":175854469},{"NoteNumber":47,"Velocity":63,"Duration":75949,"SoundDuration":75949,"Delta":175854469},{"NoteNumber":59,"Velocity":70,"Duration":75949,"SoundDuration":75949,"Delta":175854469},{"NoteNumber":64,"Velocity":81,"Duration":75949,"SoundDuration":75949,"Delta":176006367},{"NoteNumber":76,"Velocity":90,"Duration":75949,"SoundDuration":75949,"Delta":176006367},{"NoteNumber":49,"Velocity":68,"Duration":75949,"SoundDuration":75949,"Delta":176006367},{"NoteNumber":61,"Velocity":76,"Duration":75949,"SoundDuration":75949,"Delta":176006367},{"NoteNumber":61,"Velocity":73,"Duration":75949,"SoundDuration":75949,"Delta":176158266},{"NoteNumber":73,"Velocity":82,"Duration":75949,"SoundDuration":75949,"Delta":176158266},{"NoteNumber":46,"Velocity":62,"Duration":75949,"SoundDuration":75949,"Delta":176158266},{"NoteNumber":58,"Velocity":69,"Duration":75949,"SoundDuration":75949,"Delta":176158266},{"NoteNumber":62,"Velocity":81,"Duration":75949,"SoundDuration":75949,"Delta":176310164},{"NoteNumber":74,"Velocity":90,"Duration":75949,"SoundDuration":75949,"Delta":176310164},{"NoteNumber":47,"Velocity":68,"Duration":75949,"SoundDuration":75949,"Delta":176310164},{"NoteNumber":59,"Velocity":68,"Duration":75949,"SoundDuration":75949,"Delta":176310164},{"NoteNumber":58,"Velocity":75,"Duration":76193,"SoundDuration":76193,"Delta":176462063},{"NoteNumber":70,"Velocity":84,"Duration":76193,"SoundDuration":76193,"Delta":176462063},{"NoteNumber":42,"Velocity":63,"Duration":76193,"SoundDuration":76193,"Delta":176462063},{"NoteNumber":54,"Velocity":71,"Duration":76193,"SoundDuration":76193,"Delta":176462063},{"NoteNumber":59,"Velocity":81,"Duration":76793,"SoundDuration":76793,"Delta":176614717},{"NoteNumber":71,"Velocity":91,"Duration":76793,"SoundDuration":76793,"Delta":176614717},{"NoteNumber":43,"Velocity":69,"Duration":76793,"SoundDuration":76793,"Delta":176614717},{"NoteNumber":55,"Velocity":77,"Duration":76793,"SoundDuration":76793,"Delta":176614717},{"NoteNumber":54,"Velocity":73,"Duration":81415,"SoundDuration":81415,"Delta":176768572},{"NoteNumber":66,"Velocity":82,"Duration":81415,"SoundDuration":81415,"Delta":176768572},{"NoteNumber":38,"Velocity":62,"Duration":81415,"SoundDuration":81415,"Delta":176768572},{"NoteNumber":50,"Velocity":62,"Duration":81415,"SoundDuration":81415,"Delta":176768572},{"NoteNumber":55,"Velocity":80,"Duration":310978,"SoundDuration":310978,"Delta":176931403},{"NoteNumber":67,"Velocity":89,"Duration":310978,"SoundDuration":310978,"Delta":176931403},{"NoteNumber":40,"Velocity":67,"Duration":310978,"SoundDuration":310978,"Delta":176931403},{"NoteNumber":52,"Velocity":75,"Duration":310978,"SoundDuration":310978,"Delta":176931403},{"NoteNumber":61,"Velocity":72,"Duration":155488,"SoundDuration":155488,"Delta":177242381},{"NoteNumber":64,"Velocity":72,"Duration":155488,"SoundDuration":155488,"Delta":177242381},{"NoteNumber":70,"Velocity":80,"Duration":155488,"SoundDuration":155488,"Delta":177242381},{"NoteNumber":42,"Velocity":61,"Duration":155488,"SoundDuration":155488,"Delta":177242381},{"NoteNumber":54,"Velocity":68,"Duration":155488,"SoundDuration":155488,"Delta":177242381},{"NoteNumber":62,"Velocity":77,"Duration":159286,"SoundDuration":159286,"Delta":177397870},{"NoteNumber":66,"Velocity":77,"Duration":159286,"SoundDuration":159286,"Delta":177397870},{"NoteNumber":71,"Velocity":86,"Duration":159286,"SoundDuration":159286,"Delta":177397870},{"NoteNumber":47,"Velocity":68,"Duration":159286,"SoundDuration":159286,"Delta":177397870},{"NoteNumber":52,"Velocity":58,"Duration":74958,"SoundDuration":74958,"Delta":177557156},{"NoteNumber":54,"Velocity":60,"Duration":77128,"SoundDuration":77128,"Delta":177707074},{"NoteNumber":55,"Velocity":66,"Duration":605100,"SoundDuration":605100,"Delta":177861331},{"NoteNumber":61,"Velocity":56,"Duration":75539,"SoundDuration":75539,"Delta":178012411},{"NoteNumber":73,"Velocity":56,"Duration":75539,"SoundDuration":75539,"Delta":178012411},{"NoteNumber":74,"Velocity":56,"Duration":75539,"SoundDuration":75539,"Delta":178012411},{"NoteNumber":62,"Velocity":53,"Duration":75539,"SoundDuration":75539,"Delta":178163491},{"NoteNumber":73,"Velocity":53,"Duration":75539,"SoundDuration":75539,"Delta":178163491},{"NoteNumber":74,"Velocity":53,"Duration":75539,"SoundDuration":75539,"Delta":178163491},{"NoteNumber":64,"Velocity":52,"Duration":75930,"SoundDuration":75930,"Delta":178314571},{"NoteNumber":73,"Velocity":52,"Duration":75930,"SoundDuration":75930,"Delta":178314571},{"NoteNumber":74,"Velocity":52,"Duration":75930,"SoundDuration":75930,"Delta":178314571},{"NoteNumber":45,"Velocity":57,"Duration":75539,"SoundDuration":75539,"Delta":178466432},{"NoteNumber":43,"Velocity":55,"Duration":75539,"SoundDuration":75539,"Delta":178617512},{"NoteNumber":42,"Velocity":57,"Duration":454801,"SoundDuration":454801,"Delta":178768592},{"NoteNumber":56,"Velocity":53,"Duration":75930,"SoundDuration":75930,"Delta":178919672},{"NoteNumber":59,"Velocity":53,"Duration":75930,"SoundDuration":75930,"Delta":178919672},{"NoteNumber":66,"Velocity":53,"Duration":75930,"SoundDuration":75930,"Delta":178919672},{"NoteNumber":58,"Velocity":52,"Duration":75930,"SoundDuration":75930,"Delta":179071532},{"NoteNumber":61,"Velocity":52,"Duration":75930,"SoundDuration":75930,"Delta":179071532},{"NoteNumber":66,"Velocity":52,"Duration":75930,"SoundDuration":75930,"Delta":179071532},{"NoteNumber":66,"Velocity":52,"Duration":76126,"SoundDuration":76126,"Delta":179223393},{"NoteNumber":59,"Velocity":52,"Duration":76126,"SoundDuration":76126,"Delta":179223393},{"NoteNumber":62,"Velocity":52,"Duration":76126,"SoundDuration":76126,"Delta":179223393},{"NoteNumber":47,"Velocity":54,"Duration":152253,"SoundDuration":152253,"Delta":179223393},{"NoteNumber":52,"Velocity":57,"Duration":74958,"SoundDuration":74958,"Delta":179375646},{"NoteNumber":54,"Velocity":60,"Duration":74958,"SoundDuration":74958,"Delta":179525564},{"NoteNumber":55,"Velocity":65,"Duration":606676,"SoundDuration":606676,"Delta":179675481},{"NoteNumber":61,"Velocity":54,"Duration":75539,"SoundDuration":75539,"Delta":179827342},{"NoteNumber":73,"Velocity":54,"Duration":75539,"SoundDuration":75539,"Delta":179827342},{"NoteNumber":74,"Velocity":54,"Duration":75539,"SoundDuration":75539,"Delta":179827342},{"NoteNumber":62,"Velocity":55,"Duration":75539,"SoundDuration":75539,"Delta":179978422},{"NoteNumber":73,"Velocity":55,"Duration":75539,"SoundDuration":75539,"Delta":179978422},{"NoteNumber":74,"Velocity":55,"Duration":75539,"SoundDuration":75539,"Delta":179978422},{"NoteNumber":64,"Velocity":51,"Duration":76327,"SoundDuration":76327,"Delta":180129502},{"NoteNumber":73,"Velocity":51,"Duration":76327,"SoundDuration":76327,"Delta":180129502},{"NoteNumber":74,"Velocity":51,"Duration":76327,"SoundDuration":76327,"Delta":180129502},{"NoteNumber":45,"Velocity":61,"Duration":75539,"SoundDuration":75539,"Delta":180282158},{"NoteNumber":43,"Velocity":57,"Duration":75539,"SoundDuration":75539,"Delta":180433238},{"NoteNumber":42,"Velocity":58,"Duration":456774,"SoundDuration":456774,"Delta":180584318},{"NoteNumber":56,"Velocity":55,"Duration":75930,"SoundDuration":75930,"Delta":180737371},{"NoteNumber":59,"Velocity":55,"Duration":75930,"SoundDuration":75930,"Delta":180737371},{"NoteNumber":66,"Velocity":55,"Duration":75930,"SoundDuration":75930,"Delta":180737371},{"NoteNumber":58,"Velocity":55,"Duration":75930,"SoundDuration":75930,"Delta":180889232},{"NoteNumber":61,"Velocity":55,"Duration":75930,"SoundDuration":75930,"Delta":180889232},{"NoteNumber":66,"Velocity":55,"Duration":75930,"SoundDuration":75930,"Delta":180889232},{"NoteNumber":59,"Velocity":52,"Duration":76726,"SoundDuration":76726,"Delta":181041092},{"NoteNumber":62,"Velocity":52,"Duration":76726,"SoundDuration":76726,"Delta":181041092},{"NoteNumber":66,"Velocity":52,"Duration":76726,"SoundDuration":76726,"Delta":181041092},{"NoteNumber":47,"Velocity":58,"Duration":76726,"SoundDuration":76726,"Delta":181041092},{"NoteNumber":62,"Velocity":60,"Duration":75930,"SoundDuration":75930,"Delta":181194545},{"NoteNumber":66,"Velocity":60,"Duration":75930,"SoundDuration":75930,"Delta":181194545},{"NoteNumber":71,"Velocity":66,"Duration":75930,"SoundDuration":75930,"Delta":181194545},{"NoteNumber":50,"Velocity":49,"Duration":75930,"SoundDuration":75930,"Delta":181194545},{"NoteNumber":54,"Velocity":49,"Duration":75930,"SoundDuration":75930,"Delta":181194545},{"NoteNumber":59,"Velocity":55,"Duration":75930,"SoundDuration":75930,"Delta":181194545},{"NoteNumber":62,"Velocity":57,"Duration":75930,"SoundDuration":75930,"Delta":181346405},{"NoteNumber":66,"Velocity":57,"Duration":75930,"SoundDuration":75930,"Delta":181346405},{"NoteNumber":70,"Velocity":62,"Duration":75930,"SoundDuration":75930,"Delta":181346405},{"NoteNumber":50,"Velocity":45,"Duration":75930,"SoundDuration":75930,"Delta":181346405},{"NoteNumber":54,"Velocity":45,"Duration":75930,"SoundDuration":75930,"Delta":181346405},{"NoteNumber":58,"Velocity":50,"Duration":75930,"SoundDuration":75930,"Delta":181346405},{"NoteNumber":62,"Velocity":60,"Duration":76526,"SoundDuration":76526,"Delta":181498266},{"NoteNumber":66,"Velocity":60,"Duration":76526,"SoundDuration":76526,"Delta":181498266},{"NoteNumber":71,"Velocity":66,"Duration":76526,"SoundDuration":76526,"Delta":181498266},{"NoteNumber":50,"Velocity":48,"Duration":76526,"SoundDuration":76526,"Delta":181498266},{"NoteNumber":54,"Velocity":48,"Duration":76526,"SoundDuration":76526,"Delta":181498266},{"NoteNumber":59,"Velocity":54,"Duration":76526,"SoundDuration":76526,"Delta":181498266},{"NoteNumber":66,"Velocity":61,"Duration":75930,"SoundDuration":75930,"Delta":181651319},{"NoteNumber":71,"Velocity":61,"Duration":75930,"SoundDuration":75930,"Delta":181651319},{"NoteNumber":74,"Velocity":67,"Duration":75930,"SoundDuration":75930,"Delta":181651319},{"NoteNumber":54,"Velocity":50,"Duration":75930,"SoundDuration":75930,"Delta":181651319},{"NoteNumber":59,"Velocity":50,"Duration":75930,"SoundDuration":75930,"Delta":181651319},{"NoteNumber":62,"Velocity":56,"Duration":75930,"SoundDuration":75930,"Delta":181651319},{"NoteNumber":66,"Velocity":58,"Duration":75930,"SoundDuration":75930,"Delta":181803180},{"NoteNumber":71,"Velocity":58,"Duration":75930,"SoundDuration":75930,"Delta":181803180},{"NoteNumber":73,"Velocity":63,"Duration":75930,"SoundDuration":75930,"Delta":181803180},{"NoteNumber":54,"Velocity":48,"Duration":75930,"SoundDuration":75930,"Delta":181803180},{"NoteNumber":59,"Velocity":48,"Duration":75930,"SoundDuration":75930,"Delta":181803180},{"NoteNumber":61,"Velocity":54,"Duration":75930,"SoundDuration":75930,"Delta":181803180},{"NoteNumber":66,"Velocity":63,"Duration":76526,"SoundDuration":76526,"Delta":181955040},{"NoteNumber":71,"Velocity":63,"Duration":76526,"SoundDuration":76526,"Delta":181955040},{"NoteNumber":74,"Velocity":69,"Duration":76526,"SoundDuration":76526,"Delta":181955040},{"NoteNumber":54,"Velocity":52,"Duration":76526,"SoundDuration":76526,"Delta":181955040},{"NoteNumber":59,"Velocity":52,"Duration":76526,"SoundDuration":76526,"Delta":181955040},{"NoteNumber":62,"Velocity":58,"Duration":76526,"SoundDuration":76526,"Delta":181955040},{"NoteNumber":71,"Velocity":63,"Duration":75930,"SoundDuration":75930,"Delta":182108094},{"NoteNumber":74,"Velocity":63,"Duration":75930,"SoundDuration":75930,"Delta":182108094},{"NoteNumber":78,"Velocity":69,"Duration":75930,"SoundDuration":75930,"Delta":182108094},{"NoteNumber":66,"Velocity":54,"Duration":75930,"SoundDuration":75930,"Delta":182108094},{"NoteNumber":62,"Velocity":48,"Duration":75930,"SoundDuration":75930,"Delta":182108094},{"NoteNumber":59,"Velocity":48,"Duration":75930,"SoundDuration":75930,"Delta":182108094},{"NoteNumber":71,"Velocity":61,"Duration":75930,"SoundDuration":75930,"Delta":182259954},{"NoteNumber":74,"Velocity":61,"Duration":75930,"SoundDuration":75930,"Delta":182259954},{"NoteNumber":77,"Velocity":67,"Duration":75930,"SoundDuration":75930,"Delta":182259954},{"NoteNumber":65,"Velocity":59,"Duration":75930,"SoundDuration":75930,"Delta":182259954},{"NoteNumber":62,"Velocity":53,"Duration":75930,"SoundDuration":75930,"Delta":182259954},{"NoteNumber":59,"Velocity":53,"Duration":75930,"SoundDuration":75930,"Delta":182259954},{"NoteNumber":71,"Velocity":66,"Duration":76327,"SoundDuration":76327,"Delta":182411815},{"NoteNumber":74,"Velocity":66,"Duration":76327,"SoundDuration":76327,"Delta":182411815},{"NoteNumber":78,"Velocity":72,"Duration":76327,"SoundDuration":76327,"Delta":182411815},{"NoteNumber":66,"Velocity":60,"Duration":76327,"SoundDuration":76327,"Delta":182411815},{"NoteNumber":62,"Velocity":54,"Duration":76327,"SoundDuration":76327,"Delta":182411815},{"NoteNumber":59,"Velocity":54,"Duration":76327,"SoundDuration":76327,"Delta":182411815},{"NoteNumber":74,"Velocity":67,"Duration":75930,"SoundDuration":75930,"Delta":182564471},{"NoteNumber":78,"Velocity":67,"Duration":75930,"SoundDuration":75930,"Delta":182564471},{"NoteNumber":83,"Velocity":73,"Duration":75930,"SoundDuration":75930,"Delta":182564471},{"NoteNumber":62,"Velocity":51,"Duration":75930,"SoundDuration":75930,"Delta":182564471},{"NoteNumber":66,"Velocity":51,"Duration":75930,"SoundDuration":75930,"Delta":182564471},{"NoteNumber":71,"Velocity":57,"Duration":75930,"SoundDuration":75930,"Delta":182564471},{"NoteNumber":74,"Velocity":63,"Duration":75930,"SoundDuration":75930,"Delta":182716331},{"NoteNumber":78,"Velocity":63,"Duration":75930,"SoundDuration":75930,"Delta":182716331},{"NoteNumber":82,"Velocity":69,"Duration":75930,"SoundDuration":75930,"Delta":182716331},{"NoteNumber":62,"Velocity":55,"Duration":75930,"SoundDuration":75930,"Delta":182716331},{"NoteNumber":66,"Velocity":55,"Duration":75930,"SoundDuration":75930,"Delta":182716331},{"NoteNumber":70,"Velocity":62,"Duration":75930,"SoundDuration":75930,"Delta":182716331},{"NoteNumber":74,"Velocity":68,"Duration":76526,"SoundDuration":76526,"Delta":182868192},{"NoteNumber":78,"Velocity":68,"Duration":76526,"SoundDuration":76526,"Delta":182868192},{"NoteNumber":83,"Velocity":74,"Duration":76526,"SoundDuration":76526,"Delta":182868192},{"NoteNumber":62,"Velocity":55,"Duration":76526,"SoundDuration":76526,"Delta":182868192},{"NoteNumber":66,"Velocity":55,"Duration":76526,"SoundDuration":76526,"Delta":182868192},{"NoteNumber":71,"Velocity":62,"Duration":76526,"SoundDuration":76526,"Delta":182868192},{"NoteNumber":78,"Velocity":69,"Duration":75930,"SoundDuration":75930,"Delta":183021245},{"NoteNumber":83,"Velocity":69,"Duration":75930,"SoundDuration":75930,"Delta":183021245},{"NoteNumber":86,"Velocity":75,"Duration":75930,"SoundDuration":75930,"Delta":183021245},{"NoteNumber":66,"Velocity":55,"Duration":75930,"SoundDuration":75930,"Delta":183021245},{"NoteNumber":71,"Velocity":55,"Duration":75930,"SoundDuration":75930,"Delta":183021245},{"NoteNumber":74,"Velocity":62,"Duration":75930,"SoundDuration":75930,"Delta":183021245},{"NoteNumber":78,"Velocity":63,"Duration":75930,"SoundDuration":75930,"Delta":183173106},{"NoteNumber":83,"Velocity":63,"Duration":75930,"SoundDuration":75930,"Delta":183173106},{"NoteNumber":85,"Velocity":69,"Duration":75930,"SoundDuration":75930,"Delta":183173106},{"NoteNumber":66,"Velocity":52,"Duration":75930,"SoundDuration":75930,"Delta":183173106},{"NoteNumber":71,"Velocity":52,"Duration":75930,"SoundDuration":75930,"Delta":183173106},{"NoteNumber":73,"Velocity":58,"Duration":75930,"SoundDuration":75930,"Delta":183173106},{"NoteNumber":78,"Velocity":70,"Duration":76526,"SoundDuration":76526,"Delta":183324966},{"NoteNumber":83,"Velocity":70,"Duration":76526,"SoundDuration":76526,"Delta":183324966},{"NoteNumber":86,"Velocity":77,"Duration":76526,"SoundDuration":76526,"Delta":183324966},{"NoteNumber":66,"Velocity":57,"Duration":76526,"SoundDuration":76526,"Delta":183324966},{"NoteNumber":71,"Velocity":57,"Duration":76526,"SoundDuration":76526,"Delta":183324966},{"NoteNumber":74,"Velocity":64,"Duration":76526,"SoundDuration":76526,"Delta":183324966},{"NoteNumber":83,"Velocity":71,"Duration":75930,"SoundDuration":75930,"Delta":183478020},{"NoteNumber":86,"Velocity":71,"Duration":75930,"SoundDuration":75930,"Delta":183478020},{"NoteNumber":90,"Velocity":78,"Duration":75930,"SoundDuration":75930,"Delta":183478020},{"NoteNumber":71,"Velocity":58,"Duration":75930,"SoundDuration":75930,"Delta":183478020},{"NoteNumber":74,"Velocity":58,"Duration":75930,"SoundDuration":75930,"Delta":183478020},{"NoteNumber":78,"Velocity":65,"Duration":75930,"SoundDuration":75930,"Delta":183478020},{"NoteNumber":83,"Velocity":66,"Duration":75930,"SoundDuration":75930,"Delta":183629880},{"NoteNumber":86,"Velocity":66,"Duration":75930,"SoundDuration":75930,"Delta":183629880},{"NoteNumber":89,"Velocity":72,"Duration":75930,"SoundDuration":75930,"Delta":183629880},{"NoteNumber":71,"Velocity":56,"Duration":75930,"SoundDuration":75930,"Delta":183629880},{"NoteNumber":74,"Velocity":56,"Duration":75930,"SoundDuration":75930,"Delta":183629880},{"NoteNumber":77,"Velocity":63,"Duration":75930,"SoundDuration":75930,"Delta":183629880},{"NoteNumber":83,"Velocity":73,"Duration":75930,"SoundDuration":75930,"Delta":183781741},{"NoteNumber":86,"Velocity":73,"Duration":75930,"SoundDuration":75930,"Delta":183781741},{"NoteNumber":90,"Velocity":80,"Duration":75930,"SoundDuration":75930,"Delta":183781741},{"NoteNumber":71,"Velocity":60,"Duration":75930,"SoundDuration":75930,"Delta":183781741},{"NoteNumber":74,"Velocity":60,"Duration":75930,"SoundDuration":75930,"Delta":183781741},{"NoteNumber":78,"Velocity":67,"Duration":75930,"SoundDuration":75930,"Delta":183781741},{"NoteNumber":86,"Velocity":73,"Duration":75930,"SoundDuration":75930,"Delta":183933601},{"NoteNumber":90,"Velocity":73,"Duration":75930,"SoundDuration":75930,"Delta":183933601},{"NoteNumber":95,"Velocity":80,"Duration":75930,"SoundDuration":75930,"Delta":183933601},{"NoteNumber":71,"Velocity":60,"Duration":75930,"SoundDuration":75930,"Delta":183933601},{"NoteNumber":74,"Velocity":60,"Duration":75930,"SoundDuration":75930,"Delta":183933601},{"NoteNumber":78,"Velocity":67,"Duration":75930,"SoundDuration":75930,"Delta":183933601},{"NoteNumber":83,"Velocity":67,"Duration":75930,"SoundDuration":75930,"Delta":183933601},{"NoteNumber":86,"Velocity":70,"Duration":75734,"SoundDuration":75734,"Delta":184085331},{"NoteNumber":90,"Velocity":70,"Duration":75734,"SoundDuration":75734,"Delta":184085331},{"NoteNumber":94,"Velocity":76,"Duration":75734,"SoundDuration":75734,"Delta":184085331},{"NoteNumber":71,"Velocity":57,"Duration":75734,"SoundDuration":75734,"Delta":184085331},{"NoteNumber":74,"Velocity":57,"Duration":75734,"SoundDuration":75734,"Delta":184085331},{"NoteNumber":78,"Velocity":64,"Duration":75734,"SoundDuration":75734,"Delta":184085331},{"NoteNumber":82,"Velocity":64,"Duration":75734,"SoundDuration":75734,"Delta":184085331},{"NoteNumber":86,"Velocity":78,"Duration":75475,"SoundDuration":75475,"Delta":184236606},{"NoteNumber":90,"Velocity":78,"Duration":75475,"SoundDuration":75475,"Delta":184236606},{"NoteNumber":95,"Velocity":86,"Duration":75475,"SoundDuration":75475,"Delta":184236606},{"NoteNumber":71,"Velocity":65,"Duration":75475,"SoundDuration":75475,"Delta":184236606},{"NoteNumber":74,"Velocity":65,"Duration":75475,"SoundDuration":75475,"Delta":184236606},{"NoteNumber":78,"Velocity":72,"Duration":75475,"SoundDuration":75475,"Delta":184236606},{"NoteNumber":83,"Velocity":72,"Duration":75475,"SoundDuration":75475,"Delta":184236606},{"NoteNumber":86,"Velocity":82,"Duration":75150,"SoundDuration":75150,"Delta":184387428},{"NoteNumber":90,"Velocity":82,"Duration":75150,"SoundDuration":75150,"Delta":184387428},{"NoteNumber":95,"Velocity":90,"Duration":75150,"SoundDuration":75150,"Delta":184387428},{"NoteNumber":71,"Velocity":65,"Duration":75150,"SoundDuration":75150,"Delta":184387428},{"NoteNumber":74,"Velocity":65,"Duration":75150,"SoundDuration":75150,"Delta":184387428},{"NoteNumber":78,"Velocity":73,"Duration":75150,"SoundDuration":75150,"Delta":184387428},{"NoteNumber":83,"Velocity":73,"Duration":75150,"SoundDuration":75150,"Delta":184387428},{"NoteNumber":86,"Velocity":77,"Duration":77128,"SoundDuration":77128,"Delta":184537728},{"NoteNumber":90,"Velocity":77,"Duration":77128,"SoundDuration":77128,"Delta":184537728},{"NoteNumber":94,"Velocity":85,"Duration":77128,"SoundDuration":77128,"Delta":184537728},{"NoteNumber":71,"Velocity":63,"Duration":77128,"SoundDuration":77128,"Delta":184537728},{"NoteNumber":74,"Velocity":63,"Duration":77128,"SoundDuration":77128,"Delta":184537728},{"NoteNumber":78,"Velocity":71,"Duration":77128,"SoundDuration":77128,"Delta":184537728},{"NoteNumber":82,"Velocity":71,"Duration":77128,"SoundDuration":77128,"Delta":184537728},{"NoteNumber":86,"Velocity":85,"Duration":75930,"SoundDuration":75930,"Delta":184691986},{"NoteNumber":90,"Velocity":85,"Duration":75930,"SoundDuration":75930,"Delta":184691986},{"NoteNumber":95,"Velocity":93,"Duration":75930,"SoundDuration":75930,"Delta":184691986},{"NoteNumber":71,"Velocity":69,"Duration":75930,"SoundDuration":75930,"Delta":184691986},{"NoteNumber":74,"Velocity":69,"Duration":75930,"SoundDuration":75930,"Delta":184691986},{"NoteNumber":78,"Velocity":78,"Duration":75930,"SoundDuration":75930,"Delta":184691986},{"NoteNumber":83,"Velocity":78,"Duration":75930,"SoundDuration":75930,"Delta":184691986},{"NoteNumber":74,"Velocity":81,"Duration":75930,"SoundDuration":75930,"Delta":185147567},{"NoteNumber":78,"Velocity":81,"Duration":75930,"SoundDuration":75930,"Delta":185147567},{"NoteNumber":83,"Velocity":89,"Duration":75930,"SoundDuration":75930,"Delta":185147567},{"NoteNumber":59,"Velocity":66,"Duration":75930,"SoundDuration":75930,"Delta":185147567},{"NoteNumber":66,"Velocity":66,"Duration":75930,"SoundDuration":75930,"Delta":185147567},{"NoteNumber":71,"Velocity":74,"Duration":75930,"SoundDuration":75930,"Delta":185147567},{"NoteNumber":62,"Velocity":81,"Duration":75930,"SoundDuration":75930,"Delta":185603149},{"NoteNumber":66,"Velocity":81,"Duration":75930,"SoundDuration":75930,"Delta":185603149},{"NoteNumber":71,"Velocity":89,"Duration":75930,"SoundDuration":75930,"Delta":185603149},{"NoteNumber":47,"Velocity":66,"Duration":75930,"SoundDuration":75930,"Delta":185603149},{"NoteNumber":54,"Velocity":66,"Duration":75930,"SoundDuration":75930,"Delta":185603149},{"NoteNumber":59,"Velocity":74,"Duration":75930,"SoundDuration":75930,"Delta":185603149},{"NoteNumber":35,"Velocity":66,"Duration":77120,"SoundDuration":77120,"Delta":186058730},{"NoteNumber":42,"Velocity":66,"Duration":77120,"SoundDuration":77120,"Delta":186058730},{"NoteNumber":47,"Velocity":74,"Duration":77120,"SoundDuration":77120,"Delta":186058730},{"NoteNumber":50,"Velocity":74,"Duration":77120,"SoundDuration":77120,"Delta":186058730},{"NoteNumber":54,"Velocity":74,"Duration":77120,"SoundDuration":77120,"Delta":186058730},{"NoteNumber":59,"Velocity":81,"Duration":77120,"SoundDuration":77120,"Delta":186058730},{"NoteNumber":62,"Velocity":81,"Duration":77720,"SoundDuration":77720,"Delta":186521455},{"NoteNumber":66,"Velocity":81,"Duration":77720,"SoundDuration":77720,"Delta":186521455},{"NoteNumber":71,"Velocity":89,"Duration":77720,"SoundDuration":77720,"Delta":186521455},{"NoteNumber":47,"Velocity":66,"Duration":77720,"SoundDuration":77720,"Delta":186521455},{"NoteNumber":54,"Velocity":66,"Duration":77720,"SoundDuration":77720,"Delta":186521455},{"NoteNumber":59,"Velocity":74,"Duration":77720,"SoundDuration":77720,"Delta":186521455},{"NoteNumber":47,"Velocity":63,"Duration":201181,"SoundDuration":201181,"Delta":186872659},{"NoteNumber":54,"Velocity":63,"Duration":160859,"SoundDuration":160859,"Delta":186912981},{"NoteNumber":59,"Velocity":70,"Duration":120536,"SoundDuration":120536,"Delta":186953304},{"NoteNumber":71,"Velocity":80,"Duration":80214,"SoundDuration":80214,"Delta":186993626},{"NoteNumber":74,"Velocity":80,"Duration":80214,"SoundDuration":80214,"Delta":186993626},{"NoteNumber":78,"Velocity":89,"Duration":80214,"SoundDuration":80214,"Delta":186993626},{"NoteNumber":83,"Velocity":89,"Duration":80214,"SoundDuration":80214,"Delta":186993626},{"NoteNumber":62,"Velocity":70,"Duration":80214,"SoundDuration":80214,"Delta":186993626},{"NoteNumber":59,"Velocity":94,"Duration":1290323,"SoundDuration":1290323,"Delta":187529536},{"NoteNumber":35,"Velocity":75,"Duration":1290323,"SoundDuration":1290323,"Delta":187529536},{"NoteNumber":47,"Velocity":75,"Duration":1290323,"SoundDuration":1290323,"Delta":187529536}],"license":{"name":"Creative Commons Attribution-ShareAlike 3.0 Germany","url":"http://creativecommons.org/licenses/by-sa/3.0/de/deed.en","text":"The MIDI, audio (MP3, OGG) and video files of Bernd Krueger are licensed under the cc-by-sa Germany License. This means that you can use and adapt the files, as long as you attribute the copyright holder.\n\nName: Bernd Krueger\nSource: http://www.piano-midi.de\n\nThe distribution or public playback of the files is only allowed under identical license conditions.\n\nThe scores are open source.","attribution":"MIDI files by Bernd Krueger (piano-midi.de)","attributionUrl":"http://www.piano-midi.de"}}