{"title":"Februar","artist":"Tchaikovsky","durationMs":161653,"midiSha256":"dd8999a0edff471b5e5180b8629eac93c556f980df099b4ff672a16097750fcf","midiObject":[{"NoteNumber":78,"Velocity":79,"Duration":228053,"SoundDuration":228053,"Delta":0},{"NoteNumber":74,"Velocity":79,"Duration":228053,"SoundDuration":228053,"Delta":0},{"NoteNumber":81,"Velocity":88,"Duration":457060,"SoundDuration":457060,"Delta":0},{"NoteNumber":54,"Velocity":64,"Duration":457060,"SoundDuration":457060,"Delta":0},{"NoteNumber":57,"Velocity":74,"Duration":228053,"SoundDuration":228053,"Delta":0},{"NoteNumber":50,"Velocity":64,"Duration":457060,"SoundDuration":457060,"Delta":0},{"NoteNumber":69,"Velocity":74,"Duration":229007,"SoundDuration":229007,"Delta":228053},{"NoteNumber":62,"Velocity":60,"Duration":229007,"SoundDuration":229007,"Delta":228053},{"NoteNumber":76,"Velocity":84,"Duration":458015,"SoundDuration":458015,"Delta":457061},{"NoteNumber":70,"Velocity":75,"Duration":229007,"SoundDuration":229007,"Delta":457061},{"NoteNumber":74,"Velocity":75,"Duration":229007,"SoundDuration":229007,"Delta":457061},{"NoteNumber":55,"Velocity":62,"Duration":458015,"SoundDuration":458015,"Delta":457061},{"NoteNumber":58,"Velocity":71,"Duration":229007,"SoundDuration":229007,"Delta":457061},{"NoteNumber":50,"Velocity":62,"Duration":458015,"SoundDuration":458015,"Delta":457061},{"NoteNumber":64,"Velocity":69,"Duration":229007,"SoundDuration":229007,"Delta":686068},{"NoteNumber":62,"Velocity":55,"Duration":229007,"SoundDuration":229007,"Delta":686068},{"NoteNumber":81,"Velocity":88,"Duration":442804,"SoundDuration":442804,"Delta":915076},{"NoteNumber":74,"Velocity":79,"Duration":221402,"SoundDuration":221402,"Delta":915076},{"NoteNumber":78,"Velocity":79,"Duration":221402,"SoundDuration":221402,"Delta":915076},{"NoteNumber":54,"Velocity":64,"Duration":442804,"SoundDuration":442804,"Delta":915076},{"NoteNumber":50,"Velocity":64,"Duration":442804,"SoundDuration":442804,"Delta":915076},{"NoteNumber":57,"Velocity":74,"Duration":221402,"SoundDuration":221402,"Delta":915076},{"NoteNumber":69,"Velocity":75,"Duration":221402,"SoundDuration":221402,"Delta":1136478},{"NoteNumber":62,"Velocity":61,"Duration":221402,"SoundDuration":221402,"Delta":1136478},{"NoteNumber":76,"Velocity":84,"Duration":442804,"SoundDuration":442804,"Delta":1357880},{"NoteNumber":70,"Velocity":75,"Duration":221402,"SoundDuration":221402,"Delta":1357880},{"NoteNumber":74,"Velocity":75,"Duration":221402,"SoundDuration":221402,"Delta":1357880},{"NoteNumber":58,"Velocity":71,"Duration":221402,"SoundDuration":221402,"Delta":1357880},{"NoteNumber":50,"Velocity":62,"Duration":442804,"SoundDuration":442804,"Delta":1357880},{"NoteNumber":55,"Velocity":62,"Duration":442804,"SoundDuration":442804,"Delta":1357880},{"NoteNumber":64,"Velocity":70,"Duration":221401,"SoundDuration":221401,"Delta":1579282},{"NoteNumber":62,"Velocity":53,"Duration":221401,"SoundDuration":221401,"Delta":1579282},{"NoteNumber":74,"Velocity":72,"Duration":52816,"SoundDuration":52816,"Delta":1800684},{"NoteNumber":62,"Velocity":63,"Duration":849829,"SoundDuration":849829,"Delta":1800684},{"NoteNumber":69,"Velocity":70,"Duration":849829,"SoundDuration":849829,"Delta":1800684},{"NoteNumber":66,"Velocity":70,"Duration":849829,"SoundDuration":849829,"Delta":1800684},{"NoteNumber":60,"Velocity":63,"Duration":849829,"SoundDuration":849829,"Delta":1800684},{"NoteNumber":76,"Velocity":67,"Duration":52816,"SoundDuration":52816,"Delta":1906317},{"NoteNumber":74,"Velocity":71,"Duration":52816,"SoundDuration":52816,"Delta":2011951},{"NoteNumber":76,"Velocity":67,"Duration":53003,"SoundDuration":53003,"Delta":2117585},{"NoteNumber":78,"Velocity":72,"Duration":106761,"SoundDuration":106761,"Delta":2223467},{"NoteNumber":78,"Velocity":68,"Duration":106761,"SoundDuration":106761,"Delta":2436990},{"NoteNumber":76,"Velocity":73,"Duration":214286,"SoundDuration":214286,"Delta":2650513},{"NoteNumber":67,"Velocity":66,"Duration":427430,"SoundDuration":427430,"Delta":2650513},{"NoteNumber":74,"Velocity":66,"Duration":427430,"SoundDuration":427430,"Delta":2650513},{"NoteNumber":58,"Velocity":70,"Duration":53699,"SoundDuration":53699,"Delta":2650513},{"NoteNumber":57,"Velocity":66,"Duration":53571,"SoundDuration":53571,"Delta":2757784},{"NoteNumber":79,"Velocity":69,"Duration":213144,"SoundDuration":213144,"Delta":2864800},{"NoteNumber":55,"Velocity":70,"Duration":53380,"SoundDuration":53380,"Delta":2864800},{"NoteNumber":54,"Velocity":67,"Duration":53191,"SoundDuration":53191,"Delta":2971561},{"NoteNumber":73,"Velocity":64,"Duration":212765,"SoundDuration":212765,"Delta":3077944},{"NoteNumber":76,"Velocity":72,"Duration":447140,"SoundDuration":447140,"Delta":3077944},{"NoteNumber":52,"Velocity":72,"Duration":212765,"SoundDuration":212765,"Delta":3077944},{"NoteNumber":69,"Velocity":68,"Duration":234375,"SoundDuration":234375,"Delta":3290710},{"NoteNumber":57,"Velocity":66,"Duration":234375,"SoundDuration":234375,"Delta":3290710},{"NoteNumber":81,"Velocity":88,"Duration":454545,"SoundDuration":454545,"Delta":3525085},{"NoteNumber":74,"Velocity":79,"Duration":227272,"SoundDuration":227272,"Delta":3525085},{"NoteNumber":78,"Velocity":79,"Duration":227272,"SoundDuration":227272,"Delta":3525085},{"NoteNumber":57,"Velocity":74,"Duration":227272,"SoundDuration":227272,"Delta":3525085},{"NoteNumber":54,"Velocity":64,"Duration":454545,"SoundDuration":454545,"Delta":3525085},{"NoteNumber":50,"Velocity":64,"Duration":454545,"SoundDuration":454545,"Delta":3525085},{"NoteNumber":69,"Velocity":75,"Duration":227272,"SoundDuration":227272,"Delta":3752358},{"NoteNumber":62,"Velocity":62,"Duration":227272,"SoundDuration":227272,"Delta":3752358},{"NoteNumber":76,"Velocity":84,"Duration":454545,"SoundDuration":454545,"Delta":3979630},{"NoteNumber":70,"Velocity":75,"Duration":227272,"SoundDuration":227272,"Delta":3979630},{"NoteNumber":74,"Velocity":75,"Duration":227272,"SoundDuration":227272,"Delta":3979630},{"NoteNumber":55,"Velocity":62,"Duration":454545,"SoundDuration":454545,"Delta":3979630},{"NoteNumber":50,"Velocity":62,"Duration":454545,"SoundDuration":454545,"Delta":3979630},{"NoteNumber":58,"Velocity":71,"Duration":227272,"SoundDuration":227272,"Delta":3979630},{"NoteNumber":64,"Velocity":73,"Duration":227272,"SoundDuration":227272,"Delta":4206903},{"NoteNumber":62,"Velocity":59,"Duration":227272,"SoundDuration":227272,"Delta":4206903},{"NoteNumber":81,"Velocity":88,"Duration":436364,"SoundDuration":436364,"Delta":4434175},{"NoteNumber":74,"Velocity":79,"Duration":218181,"SoundDuration":218181,"Delta":4434175},{"NoteNumber":78,"Velocity":79,"Duration":218181,"SoundDuration":218181,"Delta":4434175},{"NoteNumber":57,"Velocity":74,"Duration":218181,"SoundDuration":218181,"Delta":4434175},{"NoteNumber":54,"Velocity":64,"Duration":436364,"SoundDuration":436364,"Delta":4434175},{"NoteNumber":50,"Velocity":64,"Duration":436364,"SoundDuration":436364,"Delta":4434175},{"NoteNumber":69,"Velocity":75,"Duration":218182,"SoundDuration":218182,"Delta":4652357},{"NoteNumber":62,"Velocity":62,"Duration":218182,"SoundDuration":218182,"Delta":4652357},{"NoteNumber":76,"Velocity":84,"Duration":436364,"SoundDuration":436364,"Delta":4870539},{"NoteNumber":70,"Velocity":75,"Duration":218181,"SoundDuration":218181,"Delta":4870539},{"NoteNumber":74,"Velocity":75,"Duration":218181,"SoundDuration":218181,"Delta":4870539},{"NoteNumber":55,"Velocity":62,"Duration":436364,"SoundDuration":436364,"Delta":4870539},{"NoteNumber":50,"Velocity":62,"Duration":436364,"SoundDuration":436364,"Delta":4870539},{"NoteNumber":58,"Velocity":71,"Duration":218181,"SoundDuration":218181,"Delta":4870539},{"NoteNumber":64,"Velocity":72,"Duration":218182,"SoundDuration":218182,"Delta":5088721},{"NoteNumber":62,"Velocity":55,"Duration":218182,"SoundDuration":218182,"Delta":5088721},{"NoteNumber":74,"Velocity":77,"Duration":53571,"SoundDuration":53571,"Delta":5306903},{"NoteNumber":62,"Velocity":63,"Duration":857141,"SoundDuration":857141,"Delta":5306903},{"NoteNumber":60,"Velocity":63,"Duration":857141,"SoundDuration":857141,"Delta":5306903},{"NoteNumber":66,"Velocity":70,"Duration":857141,"SoundDuration":857141,"Delta":5306903},{"NoteNumber":69,"Velocity":70,"Duration":857141,"SoundDuration":857141,"Delta":5306903},{"NoteNumber":76,"Velocity":73,"Duration":53571,"SoundDuration":53571,"Delta":5414046},{"NoteNumber":74,"Velocity":78,"Duration":53571,"SoundDuration":53571,"Delta":5521189},{"NoteNumber":76,"Velocity":73,"Duration":53571,"SoundDuration":53571,"Delta":5628332},{"NoteNumber":78,"Velocity":80,"Duration":107142,"SoundDuration":107142,"Delta":5735474},{"NoteNumber":78,"Velocity":72,"Duration":107142,"SoundDuration":107142,"Delta":5949760},{"NoteNumber":74,"Velocity":80,"Duration":53571,"SoundDuration":53571,"Delta":6164045},{"NoteNumber":76,"Velocity":80,"Duration":53571,"SoundDuration":53571,"Delta":6164045},{"NoteNumber":58,"Velocity":60,"Duration":53571,"SoundDuration":53571,"Delta":6164045},{"NoteNumber":62,"Velocity":60,"Duration":53571,"SoundDuration":53571,"Delta":6164045},{"NoteNumber":78,"Velocity":81,"Duration":53380,"SoundDuration":53380,"Delta":6271188},{"NoteNumber":79,"Velocity":83,"Duration":53191,"SoundDuration":53191,"Delta":6377950},{"NoteNumber":58,"Velocity":66,"Duration":53191,"SoundDuration":53191,"Delta":6377950},{"NoteNumber":81,"Velocity":85,"Duration":53003,"SoundDuration":53003,"Delta":6484333},{"NoteNumber":57,"Velocity":68,"Duration":53003,"SoundDuration":53003,"Delta":6484333},{"NoteNumber":82,"Velocity":86,"Duration":223048,"SoundDuration":223048,"Delta":6590340},{"NoteNumber":55,"Velocity":71,"Duration":223048,"SoundDuration":223048,"Delta":6590340},{"NoteNumber":51,"Velocity":41,"Duration":429014,"SoundDuration":429014,"Delta":7036437},{"NoteNumber":43,"Velocity":41,"Duration":429014,"SoundDuration":429014,"Delta":7036437},{"NoteNumber":61,"Velocity":42,"Duration":103806,"SoundDuration":103806,"Delta":7140243},{"NoteNumber":63,"Velocity":42,"Duration":103806,"SoundDuration":103806,"Delta":7140243},{"NoteNumber":58,"Velocity":37,"Duration":221402,"SoundDuration":221402,"Delta":7244049},{"NoteNumber":61,"Velocity":42,"Duration":110701,"SoundDuration":110701,"Delta":7354750},{"NoteNumber":63,"Velocity":42,"Duration":110701,"SoundDuration":110701,"Delta":7354750},{"NoteNumber":60,"Velocity":47,"Duration":434783,"SoundDuration":434783,"Delta":7465451},{"NoteNumber":56,"Velocity":43,"Duration":434783,"SoundDuration":434783,"Delta":7465451},{"NoteNumber":72,"Velocity":42,"Duration":217391,"SoundDuration":217391,"Delta":7682843},{"NoteNumber":63,"Velocity":42,"Duration":217391,"SoundDuration":217391,"Delta":7682843},{"NoteNumber":51,"Velocity":37,"Duration":217391,"SoundDuration":217391,"Delta":7682843},{"NoteNumber":44,"Velocity":37,"Duration":217391,"SoundDuration":217391,"Delta":7682843},{"NoteNumber":53,"Velocity":44,"Duration":430461,"SoundDuration":430461,"Delta":7900234},{"NoteNumber":45,"Velocity":44,"Duration":430461,"SoundDuration":430461,"Delta":7900234},{"NoteNumber":63,"Velocity":46,"Duration":104529,"SoundDuration":104529,"Delta":8004764},{"NoteNumber":65,"Velocity":46,"Duration":104529,"SoundDuration":104529,"Delta":8004764},{"NoteNumber":60,"Velocity":40,"Duration":221401,"SoundDuration":221401,"Delta":8109293},{"NoteNumber":63,"Velocity":46,"Duration":110700,"SoundDuration":110700,"Delta":8219994},{"NoteNumber":65,"Velocity":46,"Duration":110700,"SoundDuration":110700,"Delta":8219994},{"NoteNumber":62,"Velocity":52,"Duration":434782,"SoundDuration":434782,"Delta":8330695},{"NoteNumber":58,"Velocity":48,"Duration":434782,"SoundDuration":434782,"Delta":8330695},{"NoteNumber":74,"Velocity":47,"Duration":217391,"SoundDuration":217391,"Delta":8548087},{"NoteNumber":65,"Velocity":41,"Duration":217391,"SoundDuration":217391,"Delta":8548087},{"NoteNumber":46,"Velocity":40,"Duration":217391,"SoundDuration":217391,"Delta":8548087},{"NoteNumber":53,"Velocity":40,"Duration":217391,"SoundDuration":217391,"Delta":8548087},{"NoteNumber":62,"Velocity":49,"Duration":439584,"SoundDuration":439584,"Delta":8765478},{"NoteNumber":47,"Velocity":45,"Duration":218182,"SoundDuration":218182,"Delta":8765478},{"NoteNumber":55,"Velocity":45,"Duration":439584,"SoundDuration":439584,"Delta":8765478},{"NoteNumber":67,"Velocity":38,"Duration":221401,"SoundDuration":221401,"Delta":8983660},{"NoteNumber":74,"Velocity":41,"Duration":221401,"SoundDuration":221401,"Delta":8983660},{"NoteNumber":65,"Velocity":38,"Duration":221401,"SoundDuration":221401,"Delta":8983660},{"NoteNumber":59,"Velocity":38,"Duration":221401,"SoundDuration":221401,"Delta":8983660},{"NoteNumber":63,"Velocity":50,"Duration":436386,"SoundDuration":436386,"Delta":9205062},{"NoteNumber":55,"Velocity":47,"Duration":436386,"SoundDuration":436386,"Delta":9205062},{"NoteNumber":48,"Velocity":47,"Duration":216606,"SoundDuration":216606,"Delta":9205062},{"NoteNumber":75,"Velocity":43,"Duration":219780,"SoundDuration":219780,"Delta":9421669},{"NoteNumber":67,"Velocity":38,"Duration":219780,"SoundDuration":219780,"Delta":9421669},{"NoteNumber":60,"Velocity":39,"Duration":219780,"SoundDuration":219780,"Delta":9421669},{"NoteNumber":65,"Velocity":54,"Duration":435584,"SoundDuration":435584,"Delta":9641449},{"NoteNumber":55,"Velocity":49,"Duration":435584,"SoundDuration":435584,"Delta":9641449},{"NoteNumber":50,"Velocity":49,"Duration":216606,"SoundDuration":216606,"Delta":9641449},{"NoteNumber":71,"Velocity":38,"Duration":218977,"SoundDuration":218977,"Delta":9858055},{"NoteNumber":79,"Velocity":43,"Duration":218977,"SoundDuration":218977,"Delta":9858055},{"NoteNumber":62,"Velocity":41,"Duration":218977,"SoundDuration":218977,"Delta":9858055},{"NoteNumber":63,"Velocity":53,"Duration":434782,"SoundDuration":434782,"Delta":10077033},{"NoteNumber":55,"Velocity":47,"Duration":434782,"SoundDuration":434782,"Delta":10077033},{"NoteNumber":48,"Velocity":47,"Duration":217391,"SoundDuration":217391,"Delta":10077033},{"NoteNumber":75,"Velocity":45,"Duration":217391,"SoundDuration":217391,"Delta":10294425},{"NoteNumber":67,"Velocity":40,"Duration":217391,"SoundDuration":217391,"Delta":10294425},{"NoteNumber":60,"Velocity":40,"Duration":217391,"SoundDuration":217391,"Delta":10294425},{"NoteNumber":47,"Velocity":46,"Duration":430460,"SoundDuration":430460,"Delta":10511816},{"NoteNumber":55,"Velocity":46,"Duration":430460,"SoundDuration":430460,"Delta":10511816},{"NoteNumber":65,"Velocity":47,"Duration":104529,"SoundDuration":104529,"Delta":10616346},{"NoteNumber":67,"Velocity":47,"Duration":104529,"SoundDuration":104529,"Delta":10616346},{"NoteNumber":62,"Velocity":42,"Duration":221401,"SoundDuration":221401,"Delta":10720875},{"NoteNumber":65,"Velocity":48,"Duration":110700,"SoundDuration":110700,"Delta":10831576},{"NoteNumber":67,"Velocity":48,"Duration":110700,"SoundDuration":110700,"Delta":10831576},{"NoteNumber":64,"Velocity":53,"Duration":434782,"SoundDuration":434782,"Delta":10942277},{"NoteNumber":60,"Velocity":51,"Duration":434782,"SoundDuration":434782,"Delta":10942277},{"NoteNumber":76,"Velocity":48,"Duration":217391,"SoundDuration":217391,"Delta":11159669},{"NoteNumber":67,"Velocity":43,"Duration":217391,"SoundDuration":217391,"Delta":11159669},{"NoteNumber":55,"Velocity":42,"Duration":217391,"SoundDuration":217391,"Delta":11159669},{"NoteNumber":48,"Velocity":42,"Duration":217391,"SoundDuration":217391,"Delta":11159669},{"NoteNumber":49,"Velocity":52,"Duration":430460,"SoundDuration":430460,"Delta":11377060},{"NoteNumber":57,"Velocity":52,"Duration":430460,"SoundDuration":430460,"Delta":11377060},{"NoteNumber":67,"Velocity":53,"Duration":104529,"SoundDuration":104529,"Delta":11481590},{"NoteNumber":69,"Velocity":53,"Duration":104529,"SoundDuration":104529,"Delta":11481590},{"NoteNumber":64,"Velocity":46,"Duration":221401,"SoundDuration":221401,"Delta":11586119},{"NoteNumber":67,"Velocity":53,"Duration":110700,"SoundDuration":110700,"Delta":11696820},{"NoteNumber":69,"Velocity":53,"Duration":110700,"SoundDuration":110700,"Delta":11696820},{"NoteNumber":65,"Velocity":58,"Duration":434782,"SoundDuration":434782,"Delta":11807521},{"NoteNumber":62,"Velocity":54,"Duration":434782,"SoundDuration":434782,"Delta":11807521},{"NoteNumber":77,"Velocity":53,"Duration":217391,"SoundDuration":217391,"Delta":12024913},{"NoteNumber":69,"Velocity":47,"Duration":217391,"SoundDuration":217391,"Delta":12024913},{"NoteNumber":50,"Velocity":47,"Duration":217391,"SoundDuration":217391,"Delta":12024913},{"NoteNumber":57,"Velocity":47,"Duration":217391,"SoundDuration":217391,"Delta":12024913},{"NoteNumber":64,"Velocity":58,"Duration":438793,"SoundDuration":438793,"Delta":12242304},{"NoteNumber":57,"Velocity":54,"Duration":438793,"SoundDuration":438793,"Delta":12242304},{"NoteNumber":49,"Velocity":54,"Duration":217391,"SoundDuration":217391,"Delta":12242304},{"NoteNumber":67,"Velocity":44,"Duration":221401,"SoundDuration":221401,"Delta":12459696},{"NoteNumber":76,"Velocity":49,"Duration":221401,"SoundDuration":221401,"Delta":12459696},{"NoteNumber":69,"Velocity":44,"Duration":221401,"SoundDuration":221401,"Delta":12459696},{"NoteNumber":61,"Velocity":46,"Duration":221401,"SoundDuration":221401,"Delta":12459696},{"NoteNumber":65,"Velocity":59,"Duration":432445,"SoundDuration":432445,"Delta":12681098},{"NoteNumber":57,"Velocity":56,"Duration":432445,"SoundDuration":432445,"Delta":12681098},{"NoteNumber":50,"Velocity":56,"Duration":215054,"SoundDuration":215054,"Delta":12681098},{"NoteNumber":77,"Velocity":52,"Duration":217391,"SoundDuration":217391,"Delta":12896152},{"NoteNumber":69,"Velocity":46,"Duration":217391,"SoundDuration":217391,"Delta":12896152},{"NoteNumber":62,"Velocity":47,"Duration":217391,"SoundDuration":217391,"Delta":12896152},{"NoteNumber":67,"Velocity":65,"Duration":433263,"SoundDuration":433263,"Delta":13113543},{"NoteNumber":57,"Velocity":57,"Duration":433263,"SoundDuration":433263,"Delta":13113543},{"NoteNumber":52,"Velocity":57,"Duration":214285,"SoundDuration":214285,"Delta":13113543},{"NoteNumber":73,"Velocity":46,"Duration":218977,"SoundDuration":218977,"Delta":13327829},{"NoteNumber":81,"Velocity":53,"Duration":218977,"SoundDuration":218977,"Delta":13327829},{"NoteNumber":64,"Velocity":49,"Duration":218977,"SoundDuration":218977,"Delta":13327829},{"NoteNumber":65,"Velocity":62,"Duration":434782,"SoundDuration":434782,"Delta":13546807},{"NoteNumber":50,"Velocity":56,"Duration":217391,"SoundDuration":217391,"Delta":13546807},{"NoteNumber":57,"Velocity":56,"Duration":434782,"SoundDuration":434782,"Delta":13546807},{"NoteNumber":77,"Velocity":55,"Duration":217391,"SoundDuration":217391,"Delta":13764198},{"NoteNumber":69,"Velocity":48,"Duration":217391,"SoundDuration":217391,"Delta":13764198},{"NoteNumber":62,"Velocity":48,"Duration":217391,"SoundDuration":217391,"Delta":13764198},{"NoteNumber":64,"Velocity":66,"Duration":435687,"SoundDuration":435687,"Delta":13981590},{"NoteNumber":49,"Velocity":58,"Duration":214285,"SoundDuration":214285,"Delta":13981590},{"NoteNumber":57,"Velocity":58,"Duration":435687,"SoundDuration":435687,"Delta":13981590},{"NoteNumber":69,"Velocity":50,"Duration":221401,"SoundDuration":221401,"Delta":14195875},{"NoteNumber":76,"Velocity":57,"Duration":221401,"SoundDuration":221401,"Delta":14195875},{"NoteNumber":67,"Velocity":50,"Duration":221401,"SoundDuration":221401,"Delta":14195875},{"NoteNumber":61,"Velocity":49,"Duration":221401,"SoundDuration":221401,"Delta":14195875},{"NoteNumber":65,"Velocity":66,"Duration":430157,"SoundDuration":430157,"Delta":14417277},{"NoteNumber":57,"Velocity":61,"Duration":430157,"SoundDuration":430157,"Delta":14417277},{"NoteNumber":50,"Velocity":61,"Duration":212766,"SoundDuration":212766,"Delta":14417277},{"NoteNumber":77,"Velocity":57,"Duration":217391,"SoundDuration":217391,"Delta":14630043},{"NoteNumber":69,"Velocity":50,"Duration":217391,"SoundDuration":217391,"Delta":14630043},{"NoteNumber":62,"Velocity":52,"Duration":217391,"SoundDuration":217391,"Delta":14630043},{"NoteNumber":69,"Velocity":70,"Duration":433263,"SoundDuration":433263,"Delta":14847435},{"NoteNumber":59,"Velocity":63,"Duration":433263,"SoundDuration":433263,"Delta":14847435},{"NoteNumber":51,"Velocity":63,"Duration":214285,"SoundDuration":214285,"Delta":14847435},{"NoteNumber":78,"Velocity":50,"Duration":218977,"SoundDuration":218977,"Delta":15061720},{"NoteNumber":83,"Velocity":57,"Duration":218977,"SoundDuration":218977,"Delta":15061720},{"NoteNumber":63,"Velocity":53,"Duration":218977,"SoundDuration":218977,"Delta":15061720},{"NoteNumber":67,"Velocity":67,"Duration":434782,"SoundDuration":434782,"Delta":15280698},{"NoteNumber":59,"Velocity":60,"Duration":434782,"SoundDuration":434782,"Delta":15280698},{"NoteNumber":52,"Velocity":60,"Duration":217391,"SoundDuration":217391,"Delta":15280698},{"NoteNumber":79,"Velocity":59,"Duration":217391,"SoundDuration":217391,"Delta":15498090},{"NoteNumber":71,"Velocity":53,"Duration":217391,"SoundDuration":217391,"Delta":15498090},{"NoteNumber":64,"Velocity":52,"Duration":217391,"SoundDuration":217391,"Delta":15498090},{"NoteNumber":66,"Velocity":71,"Duration":431744,"SoundDuration":431744,"Delta":15715481},{"NoteNumber":59,"Velocity":64,"Duration":431744,"SoundDuration":431744,"Delta":15715481},{"NoteNumber":51,"Velocity":64,"Duration":212766,"SoundDuration":212766,"Delta":15715481},{"NoteNumber":71,"Velocity":57,"Duration":218978,"SoundDuration":218978,"Delta":15928247},{"NoteNumber":78,"Velocity":64,"Duration":218978,"SoundDuration":218978,"Delta":15928247},{"NoteNumber":69,"Velocity":57,"Duration":218978,"SoundDuration":218978,"Delta":15928247},{"NoteNumber":63,"Velocity":54,"Duration":218978,"SoundDuration":218978,"Delta":15928247},{"NoteNumber":67,"Velocity":74,"Duration":427095,"SoundDuration":427095,"Delta":16147225},{"NoteNumber":59,"Velocity":66,"Duration":427095,"SoundDuration":427095,"Delta":16147225},{"NoteNumber":52,"Velocity":66,"Duration":211267,"SoundDuration":211267,"Delta":16147225},{"NoteNumber":79,"Velocity":64,"Duration":215827,"SoundDuration":215827,"Delta":16358493},{"NoteNumber":71,"Velocity":58,"Duration":215827,"SoundDuration":215827,"Delta":16358493},{"NoteNumber":64,"Velocity":56,"Duration":215827,"SoundDuration":215827,"Delta":16358493},{"NoteNumber":71,"Velocity":76,"Duration":430328,"SoundDuration":430328,"Delta":16574320},{"NoteNumber":61,"Velocity":67,"Duration":430328,"SoundDuration":430328,"Delta":16574320},{"NoteNumber":53,"Velocity":67,"Duration":212013,"SoundDuration":212013,"Delta":16574320},{"NoteNumber":80,"Velocity":58,"Duration":218314,"SoundDuration":218314,"Delta":16786334},{"NoteNumber":85,"Velocity":65,"Duration":218314,"SoundDuration":218314,"Delta":16786334},{"NoteNumber":65,"Velocity":57,"Duration":218314,"SoundDuration":218314,"Delta":16786334},{"NoteNumber":69,"Velocity":75,"Duration":430108,"SoundDuration":430108,"Delta":17004649},{"NoteNumber":61,"Velocity":65,"Duration":430108,"SoundDuration":430108,"Delta":17004649},{"NoteNumber":54,"Velocity":65,"Duration":215053,"SoundDuration":215053,"Delta":17004649},{"NoteNumber":81,"Velocity":67,"Duration":215054,"SoundDuration":215054,"Delta":17219703},{"NoteNumber":73,"Velocity":60,"Duration":215054,"SoundDuration":215054,"Delta":17219703},{"NoteNumber":66,"Velocity":56,"Duration":215054,"SoundDuration":215054,"Delta":17219703},{"NoteNumber":72,"Velocity":82,"Duration":429372,"SoundDuration":429372,"Delta":17434757},{"NoteNumber":62,"Velocity":72,"Duration":429372,"SoundDuration":429372,"Delta":17434757},{"NoteNumber":54,"Velocity":72,"Duration":212765,"SoundDuration":212765,"Delta":17434757},{"NoteNumber":81,"Velocity":60,"Duration":216606,"SoundDuration":216606,"Delta":17647523},{"NoteNumber":86,"Velocity":69,"Duration":216606,"SoundDuration":216606,"Delta":17647523},{"NoteNumber":66,"Velocity":60,"Duration":216606,"SoundDuration":216606,"Delta":17647523},{"NoteNumber":71,"Velocity":78,"Duration":431654,"SoundDuration":431654,"Delta":17864129},{"NoteNumber":62,"Velocity":70,"Duration":431654,"SoundDuration":431654,"Delta":17864129},{"NoteNumber":55,"Velocity":70,"Duration":215827,"SoundDuration":215827,"Delta":17864129},{"NoteNumber":83,"Velocity":72,"Duration":215827,"SoundDuration":215827,"Delta":18079957},{"NoteNumber":74,"Velocity":65,"Duration":215827,"SoundDuration":215827,"Delta":18079957},{"NoteNumber":67,"Velocity":60,"Duration":215827,"SoundDuration":215827,"Delta":18079957},{"NoteNumber":72,"Velocity":83,"Duration":428620,"SoundDuration":428620,"Delta":18295784},{"NoteNumber":54,"Velocity":73,"Duration":212013,"SoundDuration":212013,"Delta":18295784},{"NoteNumber":62,"Velocity":73,"Duration":428620,"SoundDuration":428620,"Delta":18295784},{"NoteNumber":81,"Velocity":61,"Duration":216606,"SoundDuration":216606,"Delta":18507798},{"NoteNumber":86,"Velocity":70,"Duration":216606,"SoundDuration":216606,"Delta":18507798},{"NoteNumber":66,"Velocity":61,"Duration":216606,"SoundDuration":216606,"Delta":18507798},{"NoteNumber":71,"Velocity":79,"Duration":434031,"SoundDuration":434031,"Delta":18724405},{"NoteNumber":55,"Velocity":71,"Duration":215053,"SoundDuration":215053,"Delta":18724405},{"NoteNumber":62,"Velocity":71,"Duration":434031,"SoundDuration":434031,"Delta":18724405},{"NoteNumber":83,"Velocity":70,"Duration":218977,"SoundDuration":218977,"Delta":18939459},{"NoteNumber":74,"Velocity":61,"Duration":218977,"SoundDuration":218977,"Delta":18939459},{"NoteNumber":67,"Velocity":60,"Duration":218977,"SoundDuration":218977,"Delta":18939459},{"NoteNumber":88,"Velocity":86,"Duration":52264,"SoundDuration":52264,"Delta":19158437},{"NoteNumber":70,"Velocity":69,"Duration":104529,"SoundDuration":104529,"Delta":19158437},{"NoteNumber":74,"Velocity":77,"Duration":104529,"SoundDuration":104529,"Delta":19158437},{"NoteNumber":67,"Velocity":69,"Duration":104529,"SoundDuration":104529,"Delta":19158437},{"NoteNumber":86,"Velocity":74,"Duration":52264,"SoundDuration":52264,"Delta":19262966},{"NoteNumber":82,"Velocity":80,"Duration":52264,"SoundDuration":52264,"Delta":19367496},{"NoteNumber":81,"Velocity":72,"Duration":52264,"SoundDuration":52264,"Delta":19472025},{"NoteNumber":79,"Velocity":77,"Duration":104529,"SoundDuration":104529,"Delta":19576555},{"NoteNumber":76,"Velocity":79,"Duration":52264,"SoundDuration":52264,"Delta":19576555},{"NoteNumber":74,"Velocity":71,"Duration":52264,"SoundDuration":52264,"Delta":19681084},{"NoteNumber":70,"Velocity":74,"Duration":52264,"SoundDuration":52264,"Delta":19785614},{"NoteNumber":69,"Velocity":68,"Duration":52264,"SoundDuration":52264,"Delta":19890143},{"NoteNumber":64,"Velocity":74,"Duration":52816,"SoundDuration":52816,"Delta":19994673},{"NoteNumber":67,"Velocity":82,"Duration":105633,"SoundDuration":105633,"Delta":19994673},{"NoteNumber":62,"Velocity":63,"Duration":52816,"SoundDuration":52816,"Delta":20100306},{"NoteNumber":58,"Velocity":70,"Duration":53003,"SoundDuration":53003,"Delta":20206065},{"NoteNumber":57,"Velocity":64,"Duration":53066,"SoundDuration":53066,"Delta":20312072},{"NoteNumber":55,"Velocity":75,"Duration":106509,"SoundDuration":106509,"Delta":20418329},{"NoteNumber":52,"Velocity":71,"Duration":53191,"SoundDuration":53191,"Delta":20418329},{"NoteNumber":50,"Velocity":62,"Duration":53380,"SoundDuration":53380,"Delta":20524838},{"NoteNumber":46,"Velocity":66,"Duration":53444,"SoundDuration":53444,"Delta":20631600},{"NoteNumber":45,"Velocity":58,"Duration":53571,"SoundDuration":53571,"Delta":20738616},{"NoteNumber":43,"Velocity":75,"Duration":107527,"SoundDuration":107527,"Delta":20845887},{"NoteNumber":43,"Velocity":69,"Duration":107527,"SoundDuration":107527,"Delta":21060941},{"NoteNumber":62,"Velocity":72,"Duration":646714,"SoundDuration":646714,"Delta":21275995},{"NoteNumber":64,"Velocity":72,"Duration":646714,"SoundDuration":646714,"Delta":21275995},{"NoteNumber":44,"Velocity":74,"Duration":107527,"SoundDuration":107527,"Delta":21275995},{"NoteNumber":45,"Velocity":62,"Duration":107526,"SoundDuration":107526,"Delta":21383522},{"NoteNumber":46,"Velocity":68,"Duration":107527,"SoundDuration":107527,"Delta":21491049},{"NoteNumber":44,"Velocity":60,"Duration":107527,"SoundDuration":107527,"Delta":21598576},{"NoteNumber":45,"Velocity":73,"Duration":216606,"SoundDuration":216606,"Delta":21706103},{"NoteNumber":61,"Velocity":80,"Duration":167286,"SoundDuration":167286,"Delta":21922709},{"NoteNumber":64,"Velocity":80,"Duration":167286,"SoundDuration":167286,"Delta":21922709},{"NoteNumber":69,"Velocity":80,"Duration":167286,"SoundDuration":167286,"Delta":21922709},{"NoteNumber":45,"Velocity":71,"Duration":167286,"SoundDuration":167286,"Delta":21922709},{"NoteNumber":55,"Velocity":71,"Duration":167286,"SoundDuration":167286,"Delta":21922709},{"NoteNumber":62,"Velocity":86,"Duration":223048,"SoundDuration":223048,"Delta":22145758},{"NoteNumber":69,"Velocity":86,"Duration":223048,"SoundDuration":223048,"Delta":22145758},{"NoteNumber":74,"Velocity":86,"Duration":223048,"SoundDuration":223048,"Delta":22145758},{"NoteNumber":54,"Velocity":77,"Duration":223048,"SoundDuration":223048,"Delta":22145758},{"NoteNumber":50,"Velocity":77,"Duration":223048,"SoundDuration":223048,"Delta":22145758},{"NoteNumber":78,"Velocity":78,"Duration":52816,"SoundDuration":52816,"Delta":22591855},{"NoteNumber":76,"Velocity":71,"Duration":52816,"SoundDuration":52816,"Delta":22697488},{"NoteNumber":74,"Velocity":73,"Duration":52816,"SoundDuration":52816,"Delta":22803122},{"NoteNumber":73,"Velocity":68,"Duration":52816,"SoundDuration":52816,"Delta":22908756},{"NoteNumber":71,"Velocity":75,"Duration":212765,"SoundDuration":212765,"Delta":23014390},{"NoteNumber":66,"Velocity":57,"Duration":212765,"SoundDuration":212765,"Delta":23014390},{"NoteNumber":59,"Velocity":50,"Duration":212765,"SoundDuration":212765,"Delta":23014390},{"NoteNumber":62,"Velocity":50,"Duration":212765,"SoundDuration":212765,"Delta":23014390},{"NoteNumber":73,"Velocity":66,"Duration":217391,"SoundDuration":217391,"Delta":23227156},{"NoteNumber":61,"Velocity":77,"Duration":433235,"SoundDuration":433235,"Delta":23444547},{"NoteNumber":54,"Velocity":70,"Duration":53763,"SoundDuration":53763,"Delta":23444547},{"NoteNumber":52,"Velocity":60,"Duration":53763,"SoundDuration":53763,"Delta":23552074},{"NoteNumber":70,"Velocity":69,"Duration":218181,"SoundDuration":218181,"Delta":23659601},{"NoteNumber":66,"Velocity":69,"Duration":218181,"SoundDuration":218181,"Delta":23659601},{"NoteNumber":50,"Velocity":62,"Duration":54545,"SoundDuration":54545,"Delta":23659601},{"NoteNumber":49,"Velocity":58,"Duration":54545,"SoundDuration":54545,"Delta":23768692},{"NoteNumber":62,"Velocity":77,"Duration":434873,"SoundDuration":434873,"Delta":23877783},{"NoteNumber":47,"Velocity":69,"Duration":107142,"SoundDuration":107142,"Delta":23877783},{"NoteNumber":71,"Velocity":69,"Duration":220587,"SoundDuration":220587,"Delta":24092069},{"NoteNumber":66,"Velocity":69,"Duration":220587,"SoundDuration":220587,"Delta":24092069},{"NoteNumber":61,"Velocity":71,"Duration":444468,"SoundDuration":444468,"Delta":24312656},{"NoteNumber":59,"Velocity":52,"Duration":444468,"SoundDuration":444468,"Delta":24312656},{"NoteNumber":55,"Velocity":47,"Duration":220587,"SoundDuration":220587,"Delta":24312656},{"NoteNumber":73,"Velocity":52,"Duration":110293,"SoundDuration":110293,"Delta":24422950},{"NoteNumber":67,"Velocity":59,"Duration":111940,"SoundDuration":111940,"Delta":24533244},{"NoteNumber":47,"Velocity":44,"Duration":223880,"SoundDuration":223880,"Delta":24533244},{"NoteNumber":71,"Velocity":55,"Duration":111940,"SoundDuration":111940,"Delta":24645185},{"NoteNumber":62,"Velocity":66,"Duration":444468,"SoundDuration":444468,"Delta":24757125},{"NoteNumber":59,"Velocity":55,"Duration":444468,"SoundDuration":444468,"Delta":24757125},{"NoteNumber":54,"Velocity":48,"Duration":220587,"SoundDuration":220587,"Delta":24757125},{"NoteNumber":74,"Velocity":59,"Duration":110293,"SoundDuration":110293,"Delta":24867419},{"NoteNumber":66,"Velocity":62,"Duration":111940,"SoundDuration":111940,"Delta":24977713},{"NoteNumber":45,"Velocity":45,"Duration":223880,"SoundDuration":223880,"Delta":24977713},{"NoteNumber":71,"Velocity":59,"Duration":111940,"SoundDuration":111940,"Delta":25089653},{"NoteNumber":67,"Velocity":73,"Duration":441199,"SoundDuration":441199,"Delta":25201593},{"NoteNumber":55,"Velocity":49,"Duration":218977,"SoundDuration":218977,"Delta":25201593},{"NoteNumber":52,"Velocity":49,"Duration":218977,"SoundDuration":218977,"Delta":25201593},{"NoteNumber":59,"Velocity":56,"Duration":441199,"SoundDuration":441199,"Delta":25201593},{"NoteNumber":79,"Velocity":60,"Duration":109488,"SoundDuration":109488,"Delta":25311082},{"NoteNumber":71,"Velocity":66,"Duration":111111,"SoundDuration":111111,"Delta":25420571},{"NoteNumber":47,"Velocity":46,"Duration":222221,"SoundDuration":222221,"Delta":25420571},{"NoteNumber":76,"Velocity":59,"Duration":111110,"SoundDuration":111110,"Delta":25531682},{"NoteNumber":66,"Velocity":70,"Duration":438793,"SoundDuration":438793,"Delta":25642793},{"NoteNumber":50,"Velocity":41,"Duration":217391,"SoundDuration":217391,"Delta":25642793},{"NoteNumber":59,"Velocity":47,"Duration":438793,"SoundDuration":438793,"Delta":25642793},{"NoteNumber":54,"Velocity":41,"Duration":217391,"SoundDuration":217391,"Delta":25642793},{"NoteNumber":78,"Velocity":53,"Duration":108695,"SoundDuration":108695,"Delta":25751489},{"NoteNumber":71,"Velocity":58,"Duration":110700,"SoundDuration":110700,"Delta":25860185},{"NoteNumber":47,"Velocity":36,"Duration":221402,"SoundDuration":221402,"Delta":25860185},{"NoteNumber":74,"Velocity":52,"Duration":110701,"SoundDuration":110701,"Delta":25970886},{"NoteNumber":78,"Velocity":73,"Duration":53191,"SoundDuration":53191,"Delta":26081587},{"NoteNumber":76,"Velocity":67,"Duration":53191,"SoundDuration":53191,"Delta":26187970},{"NoteNumber":74,"Velocity":70,"Duration":53191,"SoundDuration":53191,"Delta":26294353},{"NoteNumber":73,"Velocity":63,"Duration":53191,"SoundDuration":53191,"Delta":26400736},{"NoteNumber":71,"Velocity":75,"Duration":212765,"SoundDuration":212765,"Delta":26507119},{"NoteNumber":66,"Velocity":57,"Duration":212765,"SoundDuration":212765,"Delta":26507119},{"NoteNumber":59,"Velocity":50,"Duration":212765,"SoundDuration":212765,"Delta":26507119},{"NoteNumber":62,"Velocity":50,"Duration":212765,"SoundDuration":212765,"Delta":26507119},{"NoteNumber":73,"Velocity":66,"Duration":217391,"SoundDuration":217391,"Delta":26719885},{"NoteNumber":61,"Velocity":77,"Duration":437171,"SoundDuration":437171,"Delta":26937277},{"NoteNumber":54,"Velocity":64,"Duration":54347,"SoundDuration":54347,"Delta":26937277},{"NoteNumber":52,"Velocity":58,"Duration":54347,"SoundDuration":54347,"Delta":27045972},{"NoteNumber":70,"Velocity":69,"Duration":219780,"SoundDuration":219780,"Delta":27154668},{"NoteNumber":66,"Velocity":69,"Duration":219780,"SoundDuration":219780,"Delta":27154668},{"NoteNumber":50,"Velocity":62,"Duration":54945,"SoundDuration":54945,"Delta":27154668},{"NoteNumber":49,"Velocity":58,"Duration":54945,"SoundDuration":54945,"Delta":27264558},{"NoteNumber":62,"Velocity":77,"Duration":437194,"SoundDuration":437194,"Delta":27374448},{"NoteNumber":47,"Velocity":63,"Duration":108303,"SoundDuration":108303,"Delta":27374448},{"NoteNumber":71,"Velocity":69,"Duration":220587,"SoundDuration":220587,"Delta":27591055},{"NoteNumber":66,"Velocity":69,"Duration":220587,"SoundDuration":220587,"Delta":27591055},{"NoteNumber":61,"Velocity":71,"Duration":441272,"SoundDuration":441272,"Delta":27811643},{"NoteNumber":55,"Velocity":47,"Duration":217391,"SoundDuration":217391,"Delta":27811643},{"NoteNumber":59,"Velocity":52,"Duration":441272,"SoundDuration":441272,"Delta":27811643},{"NoteNumber":73,"Velocity":52,"Duration":108695,"SoundDuration":108695,"Delta":27920338},{"NoteNumber":67,"Velocity":59,"Duration":111940,"SoundDuration":111940,"Delta":28029034},{"NoteNumber":47,"Velocity":44,"Duration":223880,"SoundDuration":223880,"Delta":28029034},{"NoteNumber":71,"Velocity":55,"Duration":111940,"SoundDuration":111940,"Delta":28140974},{"NoteNumber":62,"Velocity":66,"Duration":441272,"SoundDuration":441272,"Delta":28252915},{"NoteNumber":54,"Velocity":48,"Duration":217391,"SoundDuration":217391,"Delta":28252915},{"NoteNumber":59,"Velocity":55,"Duration":441272,"SoundDuration":441272,"Delta":28252915},{"NoteNumber":74,"Velocity":59,"Duration":108695,"SoundDuration":108695,"Delta":28361610},{"NoteNumber":66,"Velocity":62,"Duration":111940,"SoundDuration":111940,"Delta":28470306},{"NoteNumber":45,"Velocity":45,"Duration":223880,"SoundDuration":223880,"Delta":28470306},{"NoteNumber":71,"Velocity":59,"Duration":111940,"SoundDuration":111940,"Delta":28582246},{"NoteNumber":67,"Velocity":73,"Duration":440403,"SoundDuration":440403,"Delta":28694187},{"NoteNumber":55,"Velocity":49,"Duration":218181,"SoundDuration":218181,"Delta":28694187},{"NoteNumber":52,"Velocity":49,"Duration":218181,"SoundDuration":218181,"Delta":28694187},{"NoteNumber":59,"Velocity":56,"Duration":440403,"SoundDuration":440403,"Delta":28694187},{"NoteNumber":79,"Velocity":60,"Duration":109090,"SoundDuration":109090,"Delta":28803278},{"NoteNumber":71,"Velocity":66,"Duration":111111,"SoundDuration":111111,"Delta":28912369},{"NoteNumber":47,"Velocity":46,"Duration":222221,"SoundDuration":222221,"Delta":28912369},{"NoteNumber":76,"Velocity":59,"Duration":111110,"SoundDuration":111110,"Delta":29023480},{"NoteNumber":66,"Velocity":70,"Duration":434782,"SoundDuration":434782,"Delta":29134591},{"NoteNumber":50,"Velocity":41,"Duration":217391,"SoundDuration":217391,"Delta":29134591},{"NoteNumber":59,"Velocity":47,"Duration":434782,"SoundDuration":434782,"Delta":29134591},{"NoteNumber":54,"Velocity":41,"Duration":217391,"SoundDuration":217391,"Delta":29134591},{"NoteNumber":78,"Velocity":53,"Duration":108695,"SoundDuration":108695,"Delta":29243286},{"NoteNumber":71,"Velocity":58,"Duration":108695,"SoundDuration":108695,"Delta":29351982},{"NoteNumber":47,"Velocity":36,"Duration":217391,"SoundDuration":217391,"Delta":29351982},{"NoteNumber":74,"Velocity":52,"Duration":108695,"SoundDuration":108695,"Delta":29460678},{"NoteNumber":47,"Velocity":59,"Duration":54151,"SoundDuration":54151,"Delta":29569374},{"NoteNumber":49,"Velocity":53,"Duration":53892,"SoundDuration":53892,"Delta":29677547},{"NoteNumber":59,"Velocity":48,"Duration":431581,"SoundDuration":431581,"Delta":29785203},{"NoteNumber":62,"Velocity":48,"Duration":431581,"SoundDuration":431581,"Delta":29785203},{"NoteNumber":50,"Velocity":55,"Duration":53571,"SoundDuration":53571,"Delta":29785203},{"NoteNumber":52,"Velocity":50,"Duration":53317,"SoundDuration":53317,"Delta":29892219},{"NoteNumber":53,"Velocity":57,"Duration":54545,"SoundDuration":54545,"Delta":29998602},{"NoteNumber":59,"Velocity":52,"Duration":438769,"SoundDuration":438769,"Delta":30216784},{"NoteNumber":62,"Velocity":52,"Duration":438769,"SoundDuration":438769,"Delta":30216784},{"NoteNumber":54,"Velocity":58,"Duration":220587,"SoundDuration":220587,"Delta":30216784},{"NoteNumber":57,"Velocity":60,"Duration":218181,"SoundDuration":218181,"Delta":30437372},{"NoteNumber":59,"Velocity":51,"Duration":439584,"SoundDuration":439584,"Delta":30655554},{"NoteNumber":62,"Velocity":51,"Duration":439584,"SoundDuration":439584,"Delta":30655554},{"NoteNumber":56,"Velocity":55,"Duration":221402,"SoundDuration":221402,"Delta":30655554},{"NoteNumber":55,"Velocity":57,"Duration":218181,"SoundDuration":218181,"Delta":30876956},{"NoteNumber":59,"Velocity":44,"Duration":56391,"SoundDuration":56391,"Delta":31095138},{"NoteNumber":62,"Velocity":44,"Duration":56391,"SoundDuration":56391,"Delta":31095138},{"NoteNumber":54,"Velocity":51,"Duration":56391,"SoundDuration":56391,"Delta":31095138},{"NoteNumber":71,"Velocity":64,"Duration":54151,"SoundDuration":54151,"Delta":31320702},{"NoteNumber":53,"Velocity":51,"Duration":429228,"SoundDuration":429228,"Delta":31320702},{"NoteNumber":70,"Velocity":58,"Duration":53892,"SoundDuration":53892,"Delta":31428876},{"NoteNumber":69,"Velocity":60,"Duration":53571,"SoundDuration":53571,"Delta":31536532},{"NoteNumber":62,"Velocity":44,"Duration":431581,"SoundDuration":431581,"Delta":31536532},{"NoteNumber":59,"Velocity":44,"Duration":431581,"SoundDuration":431581,"Delta":31536532},{"NoteNumber":68,"Velocity":55,"Duration":53317,"SoundDuration":53317,"Delta":31643547},{"NoteNumber":67,"Velocity":62,"Duration":54545,"SoundDuration":54545,"Delta":31749931},{"NoteNumber":52,"Velocity":51,"Duration":438769,"SoundDuration":438769,"Delta":31749931},{"NoteNumber":68,"Velocity":63,"Duration":220587,"SoundDuration":220587,"Delta":31968113},{"NoteNumber":59,"Velocity":42,"Duration":438769,"SoundDuration":438769,"Delta":31968113},{"NoteNumber":62,"Velocity":42,"Duration":438769,"SoundDuration":438769,"Delta":31968113},{"NoteNumber":73,"Velocity":72,"Duration":218181,"SoundDuration":218181,"Delta":32188701},{"NoteNumber":50,"Velocity":51,"Duration":439583,"SoundDuration":439583,"Delta":32188701},{"NoteNumber":71,"Velocity":60,"Duration":221401,"SoundDuration":221401,"Delta":32406883},{"NoteNumber":59,"Velocity":44,"Duration":221401,"SoundDuration":221401,"Delta":32406883},{"NoteNumber":64,"Velocity":44,"Duration":221401,"SoundDuration":221401,"Delta":32406883},{"NoteNumber":56,"Velocity":44,"Duration":221401,"SoundDuration":221401,"Delta":32406883},{"NoteNumber":63,"Velocity":62,"Duration":218181,"SoundDuration":218181,"Delta":32628285},{"NoteNumber":49,"Velocity":51,"Duration":438769,"SoundDuration":438769,"Delta":32628285},{"NoteNumber":64,"Velocity":56,"Duration":55146,"SoundDuration":55146,"Delta":32846467},{"NoteNumber":57,"Velocity":44,"Duration":55146,"SoundDuration":55146,"Delta":32846467},{"NoteNumber":52,"Velocity":44,"Duration":55146,"SoundDuration":55146,"Delta":32846467},{"NoteNumber":61,"Velocity":44,"Duration":55146,"SoundDuration":55146,"Delta":32846467},{"NoteNumber":49,"Velocity":59,"Duration":54151,"SoundDuration":54151,"Delta":33067055},{"NoteNumber":50,"Velocity":53,"Duration":53892,"SoundDuration":53892,"Delta":33175229},{"NoteNumber":61,"Velocity":48,"Duration":431581,"SoundDuration":431581,"Delta":33282884},{"NoteNumber":64,"Velocity":48,"Duration":431581,"SoundDuration":431581,"Delta":33282884},{"NoteNumber":52,"Velocity":55,"Duration":53571,"SoundDuration":53571,"Delta":33282884},{"NoteNumber":54,"Velocity":50,"Duration":53317,"SoundDuration":53317,"Delta":33389900},{"NoteNumber":55,"Velocity":57,"Duration":54545,"SoundDuration":54545,"Delta":33496284},{"NoteNumber":61,"Velocity":52,"Duration":438769,"SoundDuration":438769,"Delta":33714466},{"NoteNumber":64,"Velocity":52,"Duration":438769,"SoundDuration":438769,"Delta":33714466},{"NoteNumber":56,"Velocity":58,"Duration":220587,"SoundDuration":220587,"Delta":33714466},{"NoteNumber":59,"Velocity":60,"Duration":218181,"SoundDuration":218181,"Delta":33935054},{"NoteNumber":61,"Velocity":51,"Duration":439583,"SoundDuration":439583,"Delta":34153236},{"NoteNumber":64,"Velocity":51,"Duration":439583,"SoundDuration":439583,"Delta":34153236},{"NoteNumber":58,"Velocity":55,"Duration":221401,"SoundDuration":221401,"Delta":34153236},{"NoteNumber":57,"Velocity":57,"Duration":218181,"SoundDuration":218181,"Delta":34374638},{"NoteNumber":61,"Velocity":44,"Duration":112782,"SoundDuration":112782,"Delta":34592820},{"NoteNumber":64,"Velocity":44,"Duration":112782,"SoundDuration":112782,"Delta":34592820},{"NoteNumber":56,"Velocity":51,"Duration":112782,"SoundDuration":112782,"Delta":34592820},{"NoteNumber":73,"Velocity":64,"Duration":54151,"SoundDuration":54151,"Delta":34818384},{"NoteNumber":55,"Velocity":51,"Duration":429228,"SoundDuration":429228,"Delta":34818384},{"NoteNumber":72,"Velocity":58,"Duration":53892,"SoundDuration":53892,"Delta":34926557},{"NoteNumber":71,"Velocity":60,"Duration":53571,"SoundDuration":53571,"Delta":35034213},{"NoteNumber":61,"Velocity":44,"Duration":431581,"SoundDuration":431581,"Delta":35034213},{"NoteNumber":64,"Velocity":44,"Duration":431581,"SoundDuration":431581,"Delta":35034213},{"NoteNumber":70,"Velocity":55,"Duration":53317,"SoundDuration":53317,"Delta":35141229},{"NoteNumber":69,"Velocity":62,"Duration":54545,"SoundDuration":54545,"Delta":35247613},{"NoteNumber":54,"Velocity":51,"Duration":438769,"SoundDuration":438769,"Delta":35247613},{"NoteNumber":70,"Velocity":63,"Duration":220587,"SoundDuration":220587,"Delta":35465795},{"NoteNumber":64,"Velocity":42,"Duration":438769,"SoundDuration":438769,"Delta":35465795},{"NoteNumber":61,"Velocity":42,"Duration":438769,"SoundDuration":438769,"Delta":35465795},{"NoteNumber":74,"Velocity":72,"Duration":218181,"SoundDuration":218181,"Delta":35686383},{"NoteNumber":52,"Velocity":51,"Duration":439583,"SoundDuration":439583,"Delta":35686383},{"NoteNumber":73,"Velocity":60,"Duration":221401,"SoundDuration":221401,"Delta":35904565},{"NoteNumber":61,"Velocity":44,"Duration":221401,"SoundDuration":221401,"Delta":35904565},{"NoteNumber":66,"Velocity":44,"Duration":221401,"SoundDuration":221401,"Delta":35904565},{"NoteNumber":58,"Velocity":44,"Duration":221401,"SoundDuration":221401,"Delta":35904565},{"NoteNumber":65,"Velocity":62,"Duration":218181,"SoundDuration":218181,"Delta":36125967},{"NoteNumber":50,"Velocity":51,"Duration":438769,"SoundDuration":438769,"Delta":36125967},{"NoteNumber":66,"Velocity":56,"Duration":55146,"SoundDuration":55146,"Delta":36344149},{"NoteNumber":59,"Velocity":44,"Duration":55146,"SoundDuration":55146,"Delta":36344149},{"NoteNumber":54,"Velocity":44,"Duration":55146,"SoundDuration":55146,"Delta":36344149},{"NoteNumber":62,"Velocity":44,"Duration":55146,"SoundDuration":55146,"Delta":36344149},{"NoteNumber":71,"Velocity":83,"Duration":54151,"SoundDuration":54151,"Delta":36564737},{"NoteNumber":47,"Velocity":74,"Duration":54151,"SoundDuration":54151,"Delta":36564737},{"NoteNumber":73,"Velocity":74,"Duration":53892,"SoundDuration":53892,"Delta":36672910},{"NoteNumber":49,"Velocity":64,"Duration":53892,"SoundDuration":53892,"Delta":36672910},{"NoteNumber":74,"Velocity":80,"Duration":53571,"SoundDuration":53571,"Delta":36780566},{"NoteNumber":50,"Velocity":70,"Duration":53571,"SoundDuration":53571,"Delta":36780566},{"NoteNumber":76,"Velocity":73,"Duration":53317,"SoundDuration":53317,"Delta":36887582},{"NoteNumber":52,"Velocity":62,"Duration":53317,"SoundDuration":53317,"Delta":36887582},{"NoteNumber":78,"Velocity":85,"Duration":55350,"SoundDuration":55350,"Delta":36993966},{"NoteNumber":54,"Velocity":75,"Duration":55350,"SoundDuration":55350,"Delta":36993966},{"NoteNumber":74,"Velocity":70,"Duration":168539,"SoundDuration":168539,"Delta":37215368},{"NoteNumber":71,"Velocity":70,"Duration":168539,"SoundDuration":168539,"Delta":37215368},{"NoteNumber":67,"Velocity":70,"Duration":168539,"SoundDuration":168539,"Delta":37215368},{"NoteNumber":79,"Velocity":80,"Duration":168539,"SoundDuration":168539,"Delta":37215368},{"NoteNumber":47,"Velocity":60,"Duration":168539,"SoundDuration":168539,"Delta":37215368},{"NoteNumber":50,"Velocity":60,"Duration":168539,"SoundDuration":168539,"Delta":37215368},{"NoteNumber":55,"Velocity":67,"Duration":168539,"SoundDuration":168539,"Delta":37215368},{"NoteNumber":43,"Velocity":60,"Duration":168539,"SoundDuration":168539,"Delta":37215368},{"NoteNumber":65,"Velocity":84,"Duration":439583,"SoundDuration":439583,"Delta":37440087},{"NoteNumber":41,"Velocity":71,"Duration":439583,"SoundDuration":439583,"Delta":37440087},{"NoteNumber":77,"Velocity":78,"Duration":221401,"SoundDuration":221401,"Delta":37658269},{"NoteNumber":53,"Velocity":64,"Duration":221401,"SoundDuration":221401,"Delta":37658269},{"NoteNumber":66,"Velocity":85,"Duration":438769,"SoundDuration":438769,"Delta":37879671},{"NoteNumber":42,"Velocity":72,"Duration":438769,"SoundDuration":438769,"Delta":37879671},{"NoteNumber":78,"Velocity":77,"Duration":220587,"SoundDuration":220587,"Delta":38097853},{"NoteNumber":54,"Velocity":63,"Duration":220587,"SoundDuration":220587,"Delta":38097853},{"NoteNumber":71,"Velocity":83,"Duration":54151,"SoundDuration":54151,"Delta":38318441},{"NoteNumber":47,"Velocity":74,"Duration":54151,"SoundDuration":54151,"Delta":38318441},{"NoteNumber":73,"Velocity":77,"Duration":53892,"SoundDuration":53892,"Delta":38426614},{"NoteNumber":49,"Velocity":63,"Duration":53892,"SoundDuration":53892,"Delta":38426614},{"NoteNumber":74,"Velocity":80,"Duration":53571,"SoundDuration":53571,"Delta":38534270},{"NoteNumber":50,"Velocity":70,"Duration":53571,"SoundDuration":53571,"Delta":38534270},{"NoteNumber":76,"Velocity":75,"Duration":53317,"SoundDuration":53317,"Delta":38641286},{"NoteNumber":52,"Velocity":64,"Duration":53317,"SoundDuration":53317,"Delta":38641286},{"NoteNumber":78,"Velocity":85,"Duration":55350,"SoundDuration":55350,"Delta":38747669},{"NoteNumber":54,"Velocity":75,"Duration":55350,"SoundDuration":55350,"Delta":38747669},{"NoteNumber":67,"Velocity":70,"Duration":168539,"SoundDuration":168539,"Delta":38969071},{"NoteNumber":71,"Velocity":70,"Duration":168539,"SoundDuration":168539,"Delta":38969071},{"NoteNumber":74,"Velocity":70,"Duration":168539,"SoundDuration":168539,"Delta":38969071},{"NoteNumber":79,"Velocity":80,"Duration":168539,"SoundDuration":168539,"Delta":38969071},{"NoteNumber":47,"Velocity":60,"Duration":168539,"SoundDuration":168539,"Delta":38969071},{"NoteNumber":43,"Velocity":60,"Duration":168539,"SoundDuration":168539,"Delta":38969071},{"NoteNumber":55,"Velocity":67,"Duration":168539,"SoundDuration":168539,"Delta":38969071},{"NoteNumber":50,"Velocity":60,"Duration":168539,"SoundDuration":168539,"Delta":38969071},{"NoteNumber":65,"Velocity":84,"Duration":439583,"SoundDuration":439583,"Delta":39193790},{"NoteNumber":41,"Velocity":71,"Duration":439583,"SoundDuration":439583,"Delta":39193790},{"NoteNumber":77,"Velocity":78,"Duration":221401,"SoundDuration":221401,"Delta":39411972},{"NoteNumber":53,"Velocity":64,"Duration":221401,"SoundDuration":221401,"Delta":39411972},{"NoteNumber":66,"Velocity":85,"Duration":438769,"SoundDuration":438769,"Delta":39633374},{"NoteNumber":42,"Velocity":72,"Duration":438769,"SoundDuration":438769,"Delta":39633374},{"NoteNumber":78,"Velocity":77,"Duration":220587,"SoundDuration":220587,"Delta":39851556},{"NoteNumber":54,"Velocity":63,"Duration":220587,"SoundDuration":220587,"Delta":39851556},{"NoteNumber":74,"Velocity":83,"Duration":54151,"SoundDuration":54151,"Delta":40072144},{"NoteNumber":50,"Velocity":74,"Duration":54151,"SoundDuration":54151,"Delta":40072144},{"NoteNumber":76,"Velocity":74,"Duration":53892,"SoundDuration":53892,"Delta":40180318},{"NoteNumber":52,"Velocity":61,"Duration":53892,"SoundDuration":53892,"Delta":40180318},{"NoteNumber":78,"Velocity":80,"Duration":53571,"SoundDuration":53571,"Delta":40287974},{"NoteNumber":54,"Velocity":69,"Duration":53571,"SoundDuration":53571,"Delta":40287974},{"NoteNumber":79,"Velocity":75,"Duration":53317,"SoundDuration":53317,"Delta":40394989},{"NoteNumber":55,"Velocity":60,"Duration":53317,"SoundDuration":53317,"Delta":40394989},{"NoteNumber":81,"Velocity":85,"Duration":55350,"SoundDuration":55350,"Delta":40501373},{"NoteNumber":57,"Velocity":75,"Duration":55350,"SoundDuration":55350,"Delta":40501373},{"NoteNumber":70,"Velocity":71,"Duration":168539,"SoundDuration":168539,"Delta":40722775},{"NoteNumber":82,"Velocity":81,"Duration":168539,"SoundDuration":168539,"Delta":40722775},{"NoteNumber":77,"Velocity":71,"Duration":168539,"SoundDuration":168539,"Delta":40722775},{"NoteNumber":74,"Velocity":71,"Duration":168539,"SoundDuration":168539,"Delta":40722775},{"NoteNumber":46,"Velocity":61,"Duration":168539,"SoundDuration":168539,"Delta":40722775},{"NoteNumber":53,"Velocity":61,"Duration":168539,"SoundDuration":168539,"Delta":40722775},{"NoteNumber":50,"Velocity":61,"Duration":168539,"SoundDuration":168539,"Delta":40722775},{"NoteNumber":58,"Velocity":69,"Duration":168539,"SoundDuration":168539,"Delta":40722775},{"NoteNumber":68,"Velocity":84,"Duration":439583,"SoundDuration":439583,"Delta":40947494},{"NoteNumber":44,"Velocity":71,"Duration":439583,"SoundDuration":439583,"Delta":40947494},{"NoteNumber":80,"Velocity":78,"Duration":221401,"SoundDuration":221401,"Delta":41165676},{"NoteNumber":56,"Velocity":64,"Duration":221401,"SoundDuration":221401,"Delta":41165676},{"NoteNumber":69,"Velocity":85,"Duration":438769,"SoundDuration":438769,"Delta":41387078},{"NoteNumber":45,"Velocity":72,"Duration":438769,"SoundDuration":438769,"Delta":41387078},{"NoteNumber":81,"Velocity":77,"Duration":220587,"SoundDuration":220587,"Delta":41605260},{"NoteNumber":57,"Velocity":63,"Duration":220587,"SoundDuration":220587,"Delta":41605260},{"NoteNumber":74,"Velocity":83,"Duration":54151,"SoundDuration":54151,"Delta":41825848},{"NoteNumber":50,"Velocity":74,"Duration":54151,"SoundDuration":54151,"Delta":41825848},{"NoteNumber":76,"Velocity":75,"Duration":53892,"SoundDuration":53892,"Delta":41934022},{"NoteNumber":52,"Velocity":64,"Duration":53892,"SoundDuration":53892,"Delta":41934022},{"NoteNumber":78,"Velocity":80,"Duration":53571,"SoundDuration":53571,"Delta":42041678},{"NoteNumber":54,"Velocity":70,"Duration":53571,"SoundDuration":53571,"Delta":42041678},{"NoteNumber":79,"Velocity":75,"Duration":53317,"SoundDuration":53317,"Delta":42148693},{"NoteNumber":55,"Velocity":64,"Duration":53317,"SoundDuration":53317,"Delta":42148693},{"NoteNumber":81,"Velocity":85,"Duration":55350,"SoundDuration":55350,"Delta":42255077},{"NoteNumber":57,"Velocity":75,"Duration":55350,"SoundDuration":55350,"Delta":42255077},{"NoteNumber":77,"Velocity":71,"Duration":168539,"SoundDuration":168539,"Delta":42476479},{"NoteNumber":82,"Velocity":81,"Duration":168539,"SoundDuration":168539,"Delta":42476479},{"NoteNumber":70,"Velocity":71,"Duration":168539,"SoundDuration":168539,"Delta":42476479},{"NoteNumber":74,"Velocity":71,"Duration":168539,"SoundDuration":168539,"Delta":42476479},{"NoteNumber":50,"Velocity":61,"Duration":168539,"SoundDuration":168539,"Delta":42476479},{"NoteNumber":53,"Velocity":61,"Duration":168539,"SoundDuration":168539,"Delta":42476479},{"NoteNumber":58,"Velocity":69,"Duration":168539,"SoundDuration":168539,"Delta":42476479},{"NoteNumber":46,"Velocity":61,"Duration":168539,"SoundDuration":168539,"Delta":42476479},{"NoteNumber":68,"Velocity":84,"Duration":439583,"SoundDuration":439583,"Delta":42701198},{"NoteNumber":44,"Velocity":71,"Duration":439583,"SoundDuration":439583,"Delta":42701198},{"NoteNumber":80,"Velocity":78,"Duration":221401,"SoundDuration":221401,"Delta":42919380},{"NoteNumber":56,"Velocity":64,"Duration":221401,"SoundDuration":221401,"Delta":42919380},{"NoteNumber":69,"Velocity":85,"Duration":438769,"SoundDuration":438769,"Delta":43140782},{"NoteNumber":45,"Velocity":72,"Duration":438769,"SoundDuration":438769,"Delta":43140782},{"NoteNumber":81,"Velocity":77,"Duration":220587,"SoundDuration":220587,"Delta":43358964},{"NoteNumber":57,"Velocity":63,"Duration":220587,"SoundDuration":220587,"Delta":43358964},{"NoteNumber":68,"Velocity":84,"Duration":439583,"SoundDuration":439583,"Delta":43579552},{"NoteNumber":44,"Velocity":71,"Duration":439583,"SoundDuration":439583,"Delta":43579552},{"NoteNumber":80,"Velocity":78,"Duration":221401,"SoundDuration":221401,"Delta":43797734},{"NoteNumber":56,"Velocity":64,"Duration":221401,"SoundDuration":221401,"Delta":43797734},{"NoteNumber":69,"Velocity":85,"Duration":438769,"SoundDuration":438769,"Delta":44019136},{"NoteNumber":45,"Velocity":72,"Duration":438769,"SoundDuration":438769,"Delta":44019136},{"NoteNumber":81,"Velocity":77,"Duration":220587,"SoundDuration":220587,"Delta":44237318},{"NoteNumber":57,"Velocity":63,"Duration":220587,"SoundDuration":220587,"Delta":44237318},{"NoteNumber":70,"Velocity":84,"Duration":439583,"SoundDuration":439583,"Delta":44457906},{"NoteNumber":46,"Velocity":71,"Duration":439583,"SoundDuration":439583,"Delta":44457906},{"NoteNumber":82,"Velocity":78,"Duration":221401,"SoundDuration":221401,"Delta":44676088},{"NoteNumber":58,"Velocity":64,"Duration":221401,"SoundDuration":221401,"Delta":44676088},{"NoteNumber":64,"Velocity":85,"Duration":438769,"SoundDuration":438769,"Delta":44897490},{"NoteNumber":40,"Velocity":72,"Duration":438769,"SoundDuration":438769,"Delta":44897490},{"NoteNumber":76,"Velocity":77,"Duration":220587,"SoundDuration":220587,"Delta":45115672},{"NoteNumber":52,"Velocity":63,"Duration":220587,"SoundDuration":220587,"Delta":45115672},{"NoteNumber":67,"Velocity":84,"Duration":439583,"SoundDuration":439583,"Delta":45336260},{"NoteNumber":43,"Velocity":71,"Duration":439583,"SoundDuration":439583,"Delta":45336260},{"NoteNumber":79,"Velocity":78,"Duration":221401,"SoundDuration":221401,"Delta":45554442},{"NoteNumber":55,"Velocity":64,"Duration":221401,"SoundDuration":221401,"Delta":45554442},{"NoteNumber":58,"Velocity":85,"Duration":438769,"SoundDuration":438769,"Delta":45775844},{"NoteNumber":34,"Velocity":72,"Duration":438769,"SoundDuration":438769,"Delta":45775844},{"NoteNumber":70,"Velocity":77,"Duration":220587,"SoundDuration":220587,"Delta":45994026},{"NoteNumber":46,"Velocity":63,"Duration":220587,"SoundDuration":220587,"Delta":45994026},{"NoteNumber":62,"Velocity":84,"Duration":439583,"SoundDuration":439583,"Delta":46214614},{"NoteNumber":38,"Velocity":71,"Duration":439583,"SoundDuration":439583,"Delta":46214614},{"NoteNumber":74,"Velocity":78,"Duration":221401,"SoundDuration":221401,"Delta":46432796},{"NoteNumber":50,"Velocity":64,"Duration":221401,"SoundDuration":221401,"Delta":46432796},{"NoteNumber":57,"Velocity":85,"Duration":438769,"SoundDuration":438769,"Delta":46654198},{"NoteNumber":33,"Velocity":72,"Duration":438769,"SoundDuration":438769,"Delta":46654198},{"NoteNumber":69,"Velocity":77,"Duration":220587,"SoundDuration":220587,"Delta":46872380},{"NoteNumber":45,"Velocity":63,"Duration":220587,"SoundDuration":220587,"Delta":46872380},{"NoteNumber":44,"Velocity":68,"Duration":126353,"SoundDuration":126353,"Delta":47092968},{"NoteNumber":45,"Velocity":59,"Duration":126353,"SoundDuration":126353,"Delta":47201271},{"NoteNumber":48,"Velocity":62,"Duration":126353,"SoundDuration":126353,"Delta":47309575},{"NoteNumber":49,"Velocity":57,"Duration":108303,"SoundDuration":108303,"Delta":47417878},{"NoteNumber":51,"Velocity":69,"Duration":126353,"SoundDuration":126353,"Delta":47526181},{"NoteNumber":52,"Velocity":61,"Duration":126353,"SoundDuration":126353,"Delta":47634484},{"NoteNumber":56,"Velocity":66,"Duration":127029,"SoundDuration":127029,"Delta":47742788},{"NoteNumber":57,"Velocity":60,"Duration":112359,"SoundDuration":112359,"Delta":47851091},{"NoteNumber":56,"Velocity":71,"Duration":126353,"SoundDuration":126353,"Delta":47963450},{"NoteNumber":57,"Velocity":63,"Duration":126353,"SoundDuration":126353,"Delta":48071754},{"NoteNumber":60,"Velocity":69,"Duration":126353,"SoundDuration":126353,"Delta":48180057},{"NoteNumber":61,"Velocity":63,"Duration":108303,"SoundDuration":108303,"Delta":48288360},{"NoteNumber":63,"Velocity":72,"Duration":126353,"SoundDuration":126353,"Delta":48396663},{"NoteNumber":64,"Velocity":64,"Duration":126353,"SoundDuration":126353,"Delta":48504967},{"NoteNumber":68,"Velocity":70,"Duration":127029,"SoundDuration":127029,"Delta":48613270},{"NoteNumber":69,"Velocity":64,"Duration":112359,"SoundDuration":112359,"Delta":48721573},{"NoteNumber":68,"Velocity":73,"Duration":126353,"SoundDuration":126353,"Delta":48833933},{"NoteNumber":69,"Velocity":62,"Duration":126353,"SoundDuration":126353,"Delta":48942236},{"NoteNumber":72,"Velocity":70,"Duration":126353,"SoundDuration":126353,"Delta":49050539},{"NoteNumber":73,"Velocity":61,"Duration":108303,"SoundDuration":108303,"Delta":49158842},{"NoteNumber":75,"Velocity":74,"Duration":126353,"SoundDuration":126353,"Delta":49267146},{"NoteNumber":76,"Velocity":64,"Duration":126353,"SoundDuration":126353,"Delta":49375449},{"NoteNumber":80,"Velocity":74,"Duration":126890,"SoundDuration":126890,"Delta":49483752},{"NoteNumber":81,"Velocity":69,"Duration":111524,"SoundDuration":111524,"Delta":49592055},{"NoteNumber":80,"Velocity":74,"Duration":126353,"SoundDuration":126353,"Delta":49703580},{"NoteNumber":81,"Velocity":66,"Duration":126353,"SoundDuration":126353,"Delta":49811883},{"NoteNumber":84,"Velocity":73,"Duration":126353,"SoundDuration":126353,"Delta":49920186},{"NoteNumber":85,"Velocity":64,"Duration":108303,"SoundDuration":108303,"Delta":50028489},{"NoteNumber":87,"Velocity":77,"Duration":126615,"SoundDuration":126615,"Delta":50136793},{"NoteNumber":88,"Velocity":67,"Duration":127872,"SoundDuration":127872,"Delta":50245227},{"NoteNumber":92,"Velocity":75,"Duration":235701,"SoundDuration":235701,"Delta":50354717},{"NoteNumber":93,"Velocity":67,"Duration":750000,"SoundDuration":750000,"Delta":50465419},{"NoteNumber":81,"Velocity":88,"Duration":457060,"SoundDuration":457060,"Delta":51216373},{"NoteNumber":74,"Velocity":79,"Duration":228053,"SoundDuration":228053,"Delta":51216373},{"NoteNumber":78,"Velocity":79,"Duration":228053,"SoundDuration":228053,"Delta":51216373},{"NoteNumber":54,"Velocity":64,"Duration":457060,"SoundDuration":457060,"Delta":51216373},{"NoteNumber":57,"Velocity":74,"Duration":228053,"SoundDuration":228053,"Delta":51216373},{"NoteNumber":50,"Velocity":64,"Duration":457060,"SoundDuration":457060,"Delta":51216373},{"NoteNumber":69,"Velocity":72,"Duration":229007,"SoundDuration":229007,"Delta":51444426},{"NoteNumber":62,"Velocity":61,"Duration":229007,"SoundDuration":229007,"Delta":51444426},{"NoteNumber":74,"Velocity":75,"Duration":223880,"SoundDuration":223880,"Delta":51673434},{"NoteNumber":70,"Velocity":75,"Duration":223880,"SoundDuration":223880,"Delta":51673434},{"NoteNumber":76,"Velocity":84,"Duration":447760,"SoundDuration":447760,"Delta":51673434},{"NoteNumber":58,"Velocity":71,"Duration":223880,"SoundDuration":223880,"Delta":51673434},{"NoteNumber":50,"Velocity":62,"Duration":447760,"SoundDuration":447760,"Delta":51673434},{"NoteNumber":55,"Velocity":62,"Duration":447760,"SoundDuration":447760,"Delta":51673434},{"NoteNumber":64,"Velocity":70,"Duration":223880,"SoundDuration":223880,"Delta":51897314},{"NoteNumber":62,"Velocity":56,"Duration":223880,"SoundDuration":223880,"Delta":51897314},{"NoteNumber":78,"Velocity":79,"Duration":221401,"SoundDuration":221401,"Delta":52121195},{"NoteNumber":74,"Velocity":79,"Duration":221401,"SoundDuration":221401,"Delta":52121195},{"NoteNumber":81,"Velocity":88,"Duration":442804,"SoundDuration":442804,"Delta":52121195},{"NoteNumber":57,"Velocity":74,"Duration":221401,"SoundDuration":221401,"Delta":52121195},{"NoteNumber":50,"Velocity":64,"Duration":442804,"SoundDuration":442804,"Delta":52121195},{"NoteNumber":54,"Velocity":64,"Duration":442804,"SoundDuration":442804,"Delta":52121195},{"NoteNumber":69,"Velocity":74,"Duration":221402,"SoundDuration":221402,"Delta":52342597},{"NoteNumber":62,"Velocity":61,"Duration":221402,"SoundDuration":221402,"Delta":52342597},{"NoteNumber":74,"Velocity":75,"Duration":221401,"SoundDuration":221401,"Delta":52563999},{"NoteNumber":70,"Velocity":75,"Duration":221401,"SoundDuration":221401,"Delta":52563999},{"NoteNumber":76,"Velocity":84,"Duration":442803,"SoundDuration":442803,"Delta":52563999},{"NoteNumber":58,"Velocity":71,"Duration":221401,"SoundDuration":221401,"Delta":52563999},{"NoteNumber":50,"Velocity":62,"Duration":442803,"SoundDuration":442803,"Delta":52563999},{"NoteNumber":55,"Velocity":62,"Duration":442803,"SoundDuration":442803,"Delta":52563999},{"NoteNumber":64,"Velocity":70,"Duration":221401,"SoundDuration":221401,"Delta":52785401},{"NoteNumber":62,"Velocity":56,"Duration":221401,"SoundDuration":221401,"Delta":52785401},{"NoteNumber":74,"Velocity":72,"Duration":52816,"SoundDuration":52816,"Delta":53006803},{"NoteNumber":62,"Velocity":63,"Duration":849829,"SoundDuration":849829,"Delta":53006803},{"NoteNumber":69,"Velocity":70,"Duration":849829,"SoundDuration":849829,"Delta":53006803},{"NoteNumber":66,"Velocity":70,"Duration":849829,"SoundDuration":849829,"Delta":53006803},{"NoteNumber":60,"Velocity":63,"Duration":849829,"SoundDuration":849829,"Delta":53006803},{"NoteNumber":76,"Velocity":67,"Duration":52816,"SoundDuration":52816,"Delta":53112436},{"NoteNumber":74,"Velocity":70,"Duration":52816,"SoundDuration":52816,"Delta":53218070},{"NoteNumber":76,"Velocity":66,"Duration":53003,"SoundDuration":53003,"Delta":53323704},{"NoteNumber":78,"Velocity":72,"Duration":106761,"SoundDuration":106761,"Delta":53429587},{"NoteNumber":78,"Velocity":68,"Duration":106761,"SoundDuration":106761,"Delta":53643110},{"NoteNumber":74,"Velocity":66,"Duration":427430,"SoundDuration":427430,"Delta":53856633},{"NoteNumber":67,"Velocity":66,"Duration":427430,"SoundDuration":427430,"Delta":53856633},{"NoteNumber":76,"Velocity":73,"Duration":214286,"SoundDuration":214286,"Delta":53856633},{"NoteNumber":58,"Velocity":70,"Duration":53699,"SoundDuration":53699,"Delta":53856633},{"NoteNumber":57,"Velocity":60,"Duration":53571,"SoundDuration":53571,"Delta":53963903},{"NoteNumber":79,"Velocity":69,"Duration":213144,"SoundDuration":213144,"Delta":54070919},{"NoteNumber":55,"Velocity":67,"Duration":53380,"SoundDuration":53380,"Delta":54070919},{"NoteNumber":54,"Velocity":60,"Duration":53191,"SoundDuration":53191,"Delta":54177681},{"NoteNumber":73,"Velocity":64,"Duration":211267,"SoundDuration":211267,"Delta":54284064},{"NoteNumber":76,"Velocity":72,"Duration":444730,"SoundDuration":444730,"Delta":54284064},{"NoteNumber":52,"Velocity":72,"Duration":211267,"SoundDuration":211267,"Delta":54284064},{"NoteNumber":69,"Velocity":68,"Duration":233463,"SoundDuration":233463,"Delta":54495331},{"NoteNumber":57,"Velocity":66,"Duration":233463,"SoundDuration":233463,"Delta":54495331},{"NoteNumber":81,"Velocity":88,"Duration":451127,"SoundDuration":451127,"Delta":54728794},{"NoteNumber":74,"Velocity":79,"Duration":225563,"SoundDuration":225563,"Delta":54728794},{"NoteNumber":78,"Velocity":79,"Duration":225563,"SoundDuration":225563,"Delta":54728794},{"NoteNumber":57,"Velocity":74,"Duration":225563,"SoundDuration":225563,"Delta":54728794},{"NoteNumber":54,"Velocity":64,"Duration":451127,"SoundDuration":451127,"Delta":54728794},{"NoteNumber":50,"Velocity":64,"Duration":451127,"SoundDuration":451127,"Delta":54728794},{"NoteNumber":69,"Velocity":73,"Duration":225563,"SoundDuration":225563,"Delta":54954358},{"NoteNumber":62,"Velocity":61,"Duration":225563,"SoundDuration":225563,"Delta":54954358},{"NoteNumber":76,"Velocity":84,"Duration":451128,"SoundDuration":451128,"Delta":55179922},{"NoteNumber":70,"Velocity":75,"Duration":225564,"SoundDuration":225564,"Delta":55179922},{"NoteNumber":74,"Velocity":75,"Duration":225564,"SoundDuration":225564,"Delta":55179922},{"NoteNumber":55,"Velocity":62,"Duration":451128,"SoundDuration":451128,"Delta":55179922},{"NoteNumber":50,"Velocity":62,"Duration":451128,"SoundDuration":451128,"Delta":55179922},{"NoteNumber":58,"Velocity":71,"Duration":225564,"SoundDuration":225564,"Delta":55179922},{"NoteNumber":64,"Velocity":70,"Duration":225563,"SoundDuration":225563,"Delta":55405486},{"NoteNumber":62,"Velocity":53,"Duration":225563,"SoundDuration":225563,"Delta":55405486},{"NoteNumber":81,"Velocity":88,"Duration":437955,"SoundDuration":437955,"Delta":55631050},{"NoteNumber":74,"Velocity":79,"Duration":218977,"SoundDuration":218977,"Delta":55631050},{"NoteNumber":78,"Velocity":79,"Duration":218977,"SoundDuration":218977,"Delta":55631050},{"NoteNumber":57,"Velocity":74,"Duration":218977,"SoundDuration":218977,"Delta":55631050},{"NoteNumber":54,"Velocity":64,"Duration":437955,"SoundDuration":437955,"Delta":55631050},{"NoteNumber":50,"Velocity":64,"Duration":437955,"SoundDuration":437955,"Delta":55631050},{"NoteNumber":69,"Velocity":73,"Duration":218977,"SoundDuration":218977,"Delta":55850028},{"NoteNumber":62,"Velocity":60,"Duration":218977,"SoundDuration":218977,"Delta":55850028},{"NoteNumber":76,"Velocity":84,"Duration":437955,"SoundDuration":437955,"Delta":56069006},{"NoteNumber":70,"Velocity":75,"Duration":218977,"SoundDuration":218977,"Delta":56069006},{"NoteNumber":74,"Velocity":75,"Duration":218977,"SoundDuration":218977,"Delta":56069006},{"NoteNumber":55,"Velocity":62,"Duration":437955,"SoundDuration":437955,"Delta":56069006},{"NoteNumber":50,"Velocity":62,"Duration":437955,"SoundDuration":437955,"Delta":56069006},{"NoteNumber":58,"Velocity":71,"Duration":218977,"SoundDuration":218977,"Delta":56069006},{"NoteNumber":64,"Velocity":69,"Duration":218977,"SoundDuration":218977,"Delta":56287984},{"NoteNumber":62,"Velocity":53,"Duration":218977,"SoundDuration":218977,"Delta":56287984},{"NoteNumber":74,"Velocity":77,"Duration":53571,"SoundDuration":53571,"Delta":56506962},{"NoteNumber":62,"Velocity":63,"Duration":857142,"SoundDuration":857142,"Delta":56506962},{"NoteNumber":60,"Velocity":63,"Duration":857142,"SoundDuration":857142,"Delta":56506962},{"NoteNumber":66,"Velocity":70,"Duration":857142,"SoundDuration":857142,"Delta":56506962},{"NoteNumber":69,"Velocity":70,"Duration":857142,"SoundDuration":857142,"Delta":56506962},{"NoteNumber":76,"Velocity":71,"Duration":53571,"SoundDuration":53571,"Delta":56614105},{"NoteNumber":74,"Velocity":77,"Duration":53571,"SoundDuration":53571,"Delta":56721248},{"NoteNumber":76,"Velocity":70,"Duration":53571,"SoundDuration":53571,"Delta":56828390},{"NoteNumber":78,"Velocity":80,"Duration":107142,"SoundDuration":107142,"Delta":56935533},{"NoteNumber":78,"Velocity":72,"Duration":107142,"SoundDuration":107142,"Delta":57149819},{"NoteNumber":74,"Velocity":80,"Duration":53571,"SoundDuration":53571,"Delta":57364104},{"NoteNumber":76,"Velocity":80,"Duration":53571,"SoundDuration":53571,"Delta":57364104},{"NoteNumber":58,"Velocity":60,"Duration":53571,"SoundDuration":53571,"Delta":57364104},{"NoteNumber":62,"Velocity":60,"Duration":53571,"SoundDuration":53571,"Delta":57364104},{"NoteNumber":78,"Velocity":81,"Duration":53380,"SoundDuration":53380,"Delta":57471247},{"NoteNumber":79,"Velocity":83,"Duration":53191,"SoundDuration":53191,"Delta":57578008},{"NoteNumber":58,"Velocity":66,"Duration":53191,"SoundDuration":53191,"Delta":57578008},{"NoteNumber":81,"Velocity":85,"Duration":53003,"SoundDuration":53003,"Delta":57684391},{"NoteNumber":57,"Velocity":68,"Duration":53003,"SoundDuration":53003,"Delta":57684391},{"NoteNumber":82,"Velocity":86,"Duration":223048,"SoundDuration":223048,"Delta":57790398},{"NoteNumber":55,"Velocity":71,"Duration":223048,"SoundDuration":223048,"Delta":57790398},{"NoteNumber":43,"Velocity":41,"Duration":429014,"SoundDuration":429014,"Delta":58236495},{"NoteNumber":51,"Velocity":41,"Duration":429014,"SoundDuration":429014,"Delta":58236495},{"NoteNumber":61,"Velocity":42,"Duration":103806,"SoundDuration":103806,"Delta":58340302},{"NoteNumber":63,"Velocity":42,"Duration":103806,"SoundDuration":103806,"Delta":58340302},{"NoteNumber":58,"Velocity":37,"Duration":221401,"SoundDuration":221401,"Delta":58444108},{"NoteNumber":61,"Velocity":42,"Duration":110700,"SoundDuration":110700,"Delta":58554809},{"NoteNumber":63,"Velocity":42,"Duration":110700,"SoundDuration":110700,"Delta":58554809},{"NoteNumber":60,"Velocity":47,"Duration":434783,"SoundDuration":434783,"Delta":58665510},{"NoteNumber":56,"Velocity":43,"Duration":434783,"SoundDuration":434783,"Delta":58665510},{"NoteNumber":72,"Velocity":42,"Duration":217391,"SoundDuration":217391,"Delta":58882901},{"NoteNumber":63,"Velocity":42,"Duration":217391,"SoundDuration":217391,"Delta":58882901},{"NoteNumber":51,"Velocity":37,"Duration":217391,"SoundDuration":217391,"Delta":58882901},{"NoteNumber":44,"Velocity":37,"Duration":217391,"SoundDuration":217391,"Delta":58882901},{"NoteNumber":45,"Velocity":44,"Duration":430461,"SoundDuration":430461,"Delta":59100293},{"NoteNumber":53,"Velocity":44,"Duration":430461,"SoundDuration":430461,"Delta":59100293},{"NoteNumber":63,"Velocity":46,"Duration":104529,"SoundDuration":104529,"Delta":59204822},{"NoteNumber":65,"Velocity":46,"Duration":104529,"SoundDuration":104529,"Delta":59204822},{"NoteNumber":60,"Velocity":40,"Duration":221401,"SoundDuration":221401,"Delta":59309352},{"NoteNumber":63,"Velocity":46,"Duration":110700,"SoundDuration":110700,"Delta":59420053},{"NoteNumber":65,"Velocity":46,"Duration":110700,"SoundDuration":110700,"Delta":59420053},{"NoteNumber":62,"Velocity":52,"Duration":434783,"SoundDuration":434783,"Delta":59530754},{"NoteNumber":58,"Velocity":48,"Duration":434783,"SoundDuration":434783,"Delta":59530754},{"NoteNumber":74,"Velocity":47,"Duration":217391,"SoundDuration":217391,"Delta":59748145},{"NoteNumber":65,"Velocity":41,"Duration":217391,"SoundDuration":217391,"Delta":59748145},{"NoteNumber":46,"Velocity":40,"Duration":217391,"SoundDuration":217391,"Delta":59748145},{"NoteNumber":53,"Velocity":40,"Duration":217391,"SoundDuration":217391,"Delta":59748145},{"NoteNumber":62,"Velocity":49,"Duration":442828,"SoundDuration":442828,"Delta":59965537},{"NoteNumber":55,"Velocity":45,"Duration":442828,"SoundDuration":442828,"Delta":59965537},{"NoteNumber":47,"Velocity":45,"Duration":442828,"SoundDuration":442828,"Delta":59965537},{"NoteNumber":65,"Velocity":38,"Duration":223048,"SoundDuration":223048,"Delta":60185317},{"NoteNumber":74,"Velocity":41,"Duration":223048,"SoundDuration":223048,"Delta":60185317},{"NoteNumber":67,"Velocity":38,"Duration":223048,"SoundDuration":223048,"Delta":60185317},{"NoteNumber":59,"Velocity":38,"Duration":223048,"SoundDuration":223048,"Delta":60185317},{"NoteNumber":63,"Velocity":50,"Duration":435584,"SoundDuration":435584,"Delta":60408365},{"NoteNumber":55,"Velocity":47,"Duration":435584,"SoundDuration":435584,"Delta":60408365},{"NoteNumber":48,"Velocity":47,"Duration":435584,"SoundDuration":435584,"Delta":60408365},{"NoteNumber":75,"Velocity":43,"Duration":216606,"SoundDuration":216606,"Delta":60627343},{"NoteNumber":67,"Velocity":38,"Duration":216606,"SoundDuration":216606,"Delta":60627343},{"NoteNumber":60,"Velocity":39,"Duration":216606,"SoundDuration":216606,"Delta":60627343},{"NoteNumber":65,"Velocity":54,"Duration":436369,"SoundDuration":436369,"Delta":60843950},{"NoteNumber":55,"Velocity":49,"Duration":436369,"SoundDuration":436369,"Delta":60843950},{"NoteNumber":50,"Velocity":49,"Duration":436369,"SoundDuration":436369,"Delta":60843950},{"NoteNumber":71,"Velocity":38,"Duration":218977,"SoundDuration":218977,"Delta":61061341},{"NoteNumber":79,"Velocity":43,"Duration":218977,"SoundDuration":218977,"Delta":61061341},{"NoteNumber":62,"Velocity":41,"Duration":218977,"SoundDuration":218977,"Delta":61061341},{"NoteNumber":63,"Velocity":53,"Duration":434783,"SoundDuration":434783,"Delta":61280319},{"NoteNumber":48,"Velocity":47,"Duration":434783,"SoundDuration":434783,"Delta":61280319},{"NoteNumber":55,"Velocity":47,"Duration":434783,"SoundDuration":434783,"Delta":61280319},{"NoteNumber":75,"Velocity":45,"Duration":217391,"SoundDuration":217391,"Delta":61497711},{"NoteNumber":67,"Velocity":40,"Duration":217391,"SoundDuration":217391,"Delta":61497711},{"NoteNumber":60,"Velocity":40,"Duration":217391,"SoundDuration":217391,"Delta":61497711},{"NoteNumber":47,"Velocity":46,"Duration":430461,"SoundDuration":430461,"Delta":61715102},{"NoteNumber":55,"Velocity":46,"Duration":430461,"SoundDuration":430461,"Delta":61715102},{"NoteNumber":65,"Velocity":47,"Duration":104529,"SoundDuration":104529,"Delta":61819632},{"NoteNumber":67,"Velocity":47,"Duration":104529,"SoundDuration":104529,"Delta":61819632},{"NoteNumber":62,"Velocity":42,"Duration":221401,"SoundDuration":221401,"Delta":61924161},{"NoteNumber":65,"Velocity":48,"Duration":110700,"SoundDuration":110700,"Delta":62034862},{"NoteNumber":67,"Velocity":48,"Duration":110700,"SoundDuration":110700,"Delta":62034862},{"NoteNumber":64,"Velocity":53,"Duration":434783,"SoundDuration":434783,"Delta":62145563},{"NoteNumber":60,"Velocity":51,"Duration":434783,"SoundDuration":434783,"Delta":62145563},{"NoteNumber":76,"Velocity":48,"Duration":217391,"SoundDuration":217391,"Delta":62362955},{"NoteNumber":67,"Velocity":43,"Duration":217391,"SoundDuration":217391,"Delta":62362955},{"NoteNumber":55,"Velocity":42,"Duration":217391,"SoundDuration":217391,"Delta":62362955},{"NoteNumber":48,"Velocity":42,"Duration":217391,"SoundDuration":217391,"Delta":62362955},{"NoteNumber":57,"Velocity":52,"Duration":430461,"SoundDuration":430461,"Delta":62580346},{"NoteNumber":49,"Velocity":52,"Duration":430461,"SoundDuration":430461,"Delta":62580346},{"NoteNumber":67,"Velocity":53,"Duration":104529,"SoundDuration":104529,"Delta":62684876},{"NoteNumber":69,"Velocity":53,"Duration":104529,"SoundDuration":104529,"Delta":62684876},{"NoteNumber":64,"Velocity":46,"Duration":221401,"SoundDuration":221401,"Delta":62789405},{"NoteNumber":67,"Velocity":53,"Duration":110700,"SoundDuration":110700,"Delta":62900106},{"NoteNumber":69,"Velocity":53,"Duration":110700,"SoundDuration":110700,"Delta":62900106},{"NoteNumber":65,"Velocity":58,"Duration":434783,"SoundDuration":434783,"Delta":63010807},{"NoteNumber":62,"Velocity":54,"Duration":434783,"SoundDuration":434783,"Delta":63010807},{"NoteNumber":77,"Velocity":53,"Duration":217391,"SoundDuration":217391,"Delta":63228199},{"NoteNumber":69,"Velocity":47,"Duration":217391,"SoundDuration":217391,"Delta":63228199},{"NoteNumber":57,"Velocity":47,"Duration":217391,"SoundDuration":217391,"Delta":63228199},{"NoteNumber":50,"Velocity":47,"Duration":217391,"SoundDuration":217391,"Delta":63228199},{"NoteNumber":64,"Velocity":58,"Duration":436977,"SoundDuration":436977,"Delta":63445590},{"NoteNumber":57,"Velocity":54,"Duration":436977,"SoundDuration":436977,"Delta":63445590},{"NoteNumber":49,"Velocity":54,"Duration":215575,"SoundDuration":215575,"Delta":63445590},{"NoteNumber":67,"Velocity":44,"Duration":221401,"SoundDuration":221401,"Delta":63661166},{"NoteNumber":76,"Velocity":49,"Duration":221401,"SoundDuration":221401,"Delta":63661166},{"NoteNumber":69,"Velocity":44,"Duration":221401,"SoundDuration":221401,"Delta":63661166},{"NoteNumber":61,"Velocity":46,"Duration":221401,"SoundDuration":221401,"Delta":63661166},{"NoteNumber":65,"Velocity":59,"Duration":436256,"SoundDuration":436256,"Delta":63882568},{"NoteNumber":57,"Velocity":56,"Duration":436256,"SoundDuration":436256,"Delta":63882568},{"NoteNumber":50,"Velocity":56,"Duration":216476,"SoundDuration":216476,"Delta":63882568},{"NoteNumber":77,"Velocity":52,"Duration":219780,"SoundDuration":219780,"Delta":64099044},{"NoteNumber":69,"Velocity":46,"Duration":219780,"SoundDuration":219780,"Delta":64099044},{"NoteNumber":62,"Velocity":47,"Duration":219780,"SoundDuration":219780,"Delta":64099044},{"NoteNumber":67,"Velocity":65,"Duration":436369,"SoundDuration":436369,"Delta":64318824},{"NoteNumber":57,"Velocity":57,"Duration":436369,"SoundDuration":436369,"Delta":64318824},{"NoteNumber":52,"Velocity":57,"Duration":217391,"SoundDuration":217391,"Delta":64318824},{"NoteNumber":73,"Velocity":46,"Duration":218978,"SoundDuration":218978,"Delta":64536216},{"NoteNumber":81,"Velocity":53,"Duration":218978,"SoundDuration":218978,"Delta":64536216},{"NoteNumber":64,"Velocity":49,"Duration":218978,"SoundDuration":218978,"Delta":64536216},{"NoteNumber":65,"Velocity":62,"Duration":434782,"SoundDuration":434782,"Delta":64755194},{"NoteNumber":57,"Velocity":56,"Duration":434782,"SoundDuration":434782,"Delta":64755194},{"NoteNumber":50,"Velocity":56,"Duration":217391,"SoundDuration":217391,"Delta":64755194},{"NoteNumber":77,"Velocity":55,"Duration":217391,"SoundDuration":217391,"Delta":64972585},{"NoteNumber":69,"Velocity":48,"Duration":217391,"SoundDuration":217391,"Delta":64972585},{"NoteNumber":62,"Velocity":48,"Duration":217391,"SoundDuration":217391,"Delta":64972585},{"NoteNumber":64,"Velocity":66,"Duration":437229,"SoundDuration":437229,"Delta":65189977},{"NoteNumber":57,"Velocity":58,"Duration":437229,"SoundDuration":437229,"Delta":65189977},{"NoteNumber":49,"Velocity":58,"Duration":215827,"SoundDuration":215827,"Delta":65189977},{"NoteNumber":67,"Velocity":50,"Duration":221401,"SoundDuration":221401,"Delta":65405804},{"NoteNumber":76,"Velocity":57,"Duration":221401,"SoundDuration":221401,"Delta":65405804},{"NoteNumber":69,"Velocity":50,"Duration":221401,"SoundDuration":221401,"Delta":65405804},{"NoteNumber":61,"Velocity":49,"Duration":221401,"SoundDuration":221401,"Delta":65405804},{"NoteNumber":65,"Velocity":66,"Duration":430914,"SoundDuration":430914,"Delta":65627206},{"NoteNumber":57,"Velocity":61,"Duration":430914,"SoundDuration":430914,"Delta":65627206},{"NoteNumber":50,"Velocity":61,"Duration":213522,"SoundDuration":213522,"Delta":65627206},{"NoteNumber":77,"Velocity":57,"Duration":217391,"SoundDuration":217391,"Delta":65840729},{"NoteNumber":69,"Velocity":50,"Duration":217391,"SoundDuration":217391,"Delta":65840729},{"NoteNumber":62,"Velocity":52,"Duration":217391,"SoundDuration":217391,"Delta":65840729},{"NoteNumber":69,"Velocity":70,"Duration":434032,"SoundDuration":434032,"Delta":66058121},{"NoteNumber":51,"Velocity":63,"Duration":215053,"SoundDuration":215053,"Delta":66058121},{"NoteNumber":59,"Velocity":63,"Duration":434032,"SoundDuration":434032,"Delta":66058121},{"NoteNumber":78,"Velocity":50,"Duration":218978,"SoundDuration":218978,"Delta":66273175},{"NoteNumber":83,"Velocity":57,"Duration":218978,"SoundDuration":218978,"Delta":66273175},{"NoteNumber":63,"Velocity":53,"Duration":218978,"SoundDuration":218978,"Delta":66273175},{"NoteNumber":67,"Velocity":67,"Duration":434782,"SoundDuration":434782,"Delta":66492153},{"NoteNumber":52,"Velocity":60,"Duration":217391,"SoundDuration":217391,"Delta":66492153},{"NoteNumber":59,"Velocity":60,"Duration":434782,"SoundDuration":434782,"Delta":66492153},{"NoteNumber":79,"Velocity":59,"Duration":217391,"SoundDuration":217391,"Delta":66709544},{"NoteNumber":71,"Velocity":53,"Duration":217391,"SoundDuration":217391,"Delta":66709544},{"NoteNumber":64,"Velocity":52,"Duration":217391,"SoundDuration":217391,"Delta":66709544},{"NoteNumber":66,"Velocity":71,"Duration":434032,"SoundDuration":434032,"Delta":66926936},{"NoteNumber":59,"Velocity":64,"Duration":434032,"SoundDuration":434032,"Delta":66926936},{"NoteNumber":51,"Velocity":64,"Duration":215053,"SoundDuration":215053,"Delta":66926936},{"NoteNumber":71,"Velocity":57,"Duration":218978,"SoundDuration":218978,"Delta":67141990},{"NoteNumber":78,"Velocity":64,"Duration":218978,"SoundDuration":218978,"Delta":67141990},{"NoteNumber":69,"Velocity":57,"Duration":218978,"SoundDuration":218978,"Delta":67141990},{"NoteNumber":63,"Velocity":54,"Duration":218978,"SoundDuration":218978,"Delta":67141990},{"NoteNumber":67,"Velocity":74,"Duration":428593,"SoundDuration":428593,"Delta":67360968},{"NoteNumber":59,"Velocity":66,"Duration":428593,"SoundDuration":428593,"Delta":67360968},{"NoteNumber":52,"Velocity":66,"Duration":212766,"SoundDuration":212766,"Delta":67360968},{"NoteNumber":79,"Velocity":64,"Duration":215827,"SoundDuration":215827,"Delta":67573734},{"NoteNumber":71,"Velocity":58,"Duration":215827,"SoundDuration":215827,"Delta":67573734},{"NoteNumber":64,"Velocity":56,"Duration":215827,"SoundDuration":215827,"Delta":67573734},{"NoteNumber":71,"Velocity":76,"Duration":432600,"SoundDuration":432600,"Delta":67789561},{"NoteNumber":61,"Velocity":67,"Duration":432600,"SoundDuration":432600,"Delta":67789561},{"NoteNumber":53,"Velocity":67,"Duration":214285,"SoundDuration":214285,"Delta":67789561},{"NoteNumber":80,"Velocity":58,"Duration":218314,"SoundDuration":218314,"Delta":68003847},{"NoteNumber":85,"Velocity":65,"Duration":218314,"SoundDuration":218314,"Delta":68003847},{"NoteNumber":65,"Velocity":57,"Duration":218314,"SoundDuration":218314,"Delta":68003847},{"NoteNumber":69,"Velocity":75,"Duration":430108,"SoundDuration":430108,"Delta":68222161},{"NoteNumber":54,"Velocity":65,"Duration":215053,"SoundDuration":215053,"Delta":68222161},{"NoteNumber":61,"Velocity":65,"Duration":430108,"SoundDuration":430108,"Delta":68222161},{"NoteNumber":81,"Velocity":67,"Duration":215054,"SoundDuration":215054,"Delta":68437215},{"NoteNumber":73,"Velocity":60,"Duration":215054,"SoundDuration":215054,"Delta":68437215},{"NoteNumber":66,"Velocity":56,"Duration":215054,"SoundDuration":215054,"Delta":68437215},{"NoteNumber":72,"Velocity":82,"Duration":429372,"SoundDuration":429372,"Delta":68652269},{"NoteNumber":54,"Velocity":72,"Duration":212766,"SoundDuration":212766,"Delta":68652269},{"NoteNumber":62,"Velocity":72,"Duration":429372,"SoundDuration":429372,"Delta":68652269},{"NoteNumber":81,"Velocity":60,"Duration":216606,"SoundDuration":216606,"Delta":68865035},{"NoteNumber":86,"Velocity":69,"Duration":216606,"SoundDuration":216606,"Delta":68865035},{"NoteNumber":66,"Velocity":60,"Duration":216606,"SoundDuration":216606,"Delta":68865035},{"NoteNumber":71,"Velocity":78,"Duration":431655,"SoundDuration":431655,"Delta":69081642},{"NoteNumber":55,"Velocity":70,"Duration":215827,"SoundDuration":215827,"Delta":69081642},{"NoteNumber":62,"Velocity":70,"Duration":431655,"SoundDuration":431655,"Delta":69081642},{"NoteNumber":83,"Velocity":72,"Duration":215827,"SoundDuration":215827,"Delta":69297469},{"NoteNumber":74,"Velocity":65,"Duration":215827,"SoundDuration":215827,"Delta":69297469},{"NoteNumber":67,"Velocity":60,"Duration":215827,"SoundDuration":215827,"Delta":69297469},{"NoteNumber":72,"Velocity":83,"Duration":428620,"SoundDuration":428620,"Delta":69513297},{"NoteNumber":54,"Velocity":73,"Duration":212013,"SoundDuration":212013,"Delta":69513297},{"NoteNumber":62,"Velocity":73,"Duration":428620,"SoundDuration":428620,"Delta":69513297},{"NoteNumber":81,"Velocity":61,"Duration":216606,"SoundDuration":216606,"Delta":69725311},{"NoteNumber":86,"Velocity":70,"Duration":216606,"SoundDuration":216606,"Delta":69725311},{"NoteNumber":66,"Velocity":61,"Duration":216606,"SoundDuration":216606,"Delta":69725311},{"NoteNumber":71,"Velocity":79,"Duration":434032,"SoundDuration":434032,"Delta":69941917},{"NoteNumber":62,"Velocity":71,"Duration":434032,"SoundDuration":434032,"Delta":69941917},{"NoteNumber":55,"Velocity":71,"Duration":215053,"SoundDuration":215053,"Delta":69941917},{"NoteNumber":83,"Velocity":70,"Duration":218978,"SoundDuration":218978,"Delta":70156971},{"NoteNumber":74,"Velocity":61,"Duration":218978,"SoundDuration":218978,"Delta":70156971},{"NoteNumber":67,"Velocity":60,"Duration":218978,"SoundDuration":218978,"Delta":70156971},{"NoteNumber":88,"Velocity":86,"Duration":52816,"SoundDuration":52816,"Delta":70375949},{"NoteNumber":70,"Velocity":69,"Duration":105633,"SoundDuration":105633,"Delta":70375949},{"NoteNumber":67,"Velocity":69,"Duration":105633,"SoundDuration":105633,"Delta":70375949},{"NoteNumber":74,"Velocity":77,"Duration":105633,"SoundDuration":105633,"Delta":70375949},{"NoteNumber":86,"Velocity":74,"Duration":52816,"SoundDuration":52816,"Delta":70481583},{"NoteNumber":82,"Velocity":78,"Duration":52816,"SoundDuration":52816,"Delta":70587217},{"NoteNumber":81,"Velocity":75,"Duration":52816,"SoundDuration":52816,"Delta":70692851},{"NoteNumber":79,"Velocity":77,"Duration":105633,"SoundDuration":105633,"Delta":70798484},{"NoteNumber":76,"Velocity":80,"Duration":52816,"SoundDuration":52816,"Delta":70798484},{"NoteNumber":74,"Velocity":71,"Duration":52816,"SoundDuration":52816,"Delta":70904118},{"NoteNumber":70,"Velocity":75,"Duration":52816,"SoundDuration":52816,"Delta":71009752},{"NoteNumber":69,"Velocity":67,"Duration":52816,"SoundDuration":52816,"Delta":71115386},{"NoteNumber":64,"Velocity":74,"Duration":52816,"SoundDuration":52816,"Delta":71221019},{"NoteNumber":67,"Velocity":82,"Duration":105633,"SoundDuration":105633,"Delta":71221019},{"NoteNumber":62,"Velocity":64,"Duration":52816,"SoundDuration":52816,"Delta":71326653},{"NoteNumber":58,"Velocity":71,"Duration":53003,"SoundDuration":53003,"Delta":71432411},{"NoteNumber":57,"Velocity":64,"Duration":53066,"SoundDuration":53066,"Delta":71538418},{"NoteNumber":55,"Velocity":75,"Duration":106509,"SoundDuration":106509,"Delta":71644676},{"NoteNumber":52,"Velocity":71,"Duration":53191,"SoundDuration":53191,"Delta":71644676},{"NoteNumber":50,"Velocity":62,"Duration":53380,"SoundDuration":53380,"Delta":71751185},{"NoteNumber":46,"Velocity":68,"Duration":53444,"SoundDuration":53444,"Delta":71857947},{"NoteNumber":45,"Velocity":61,"Duration":53571,"SoundDuration":53571,"Delta":71964962},{"NoteNumber":43,"Velocity":75,"Duration":107527,"SoundDuration":107527,"Delta":72072233},{"NoteNumber":43,"Velocity":69,"Duration":107527,"SoundDuration":107527,"Delta":72287287},{"NoteNumber":62,"Velocity":72,"Duration":646714,"SoundDuration":646714,"Delta":72502341},{"NoteNumber":64,"Velocity":72,"Duration":646714,"SoundDuration":646714,"Delta":72502341},{"NoteNumber":44,"Velocity":74,"Duration":107526,"SoundDuration":107526,"Delta":72502341},{"NoteNumber":45,"Velocity":66,"Duration":107527,"SoundDuration":107527,"Delta":72609868},{"NoteNumber":46,"Velocity":73,"Duration":107527,"SoundDuration":107527,"Delta":72717395},{"NoteNumber":44,"Velocity":64,"Duration":107526,"SoundDuration":107526,"Delta":72824922},{"NoteNumber":45,"Velocity":73,"Duration":216606,"SoundDuration":216606,"Delta":72932449},{"NoteNumber":61,"Velocity":80,"Duration":167286,"SoundDuration":167286,"Delta":73149056},{"NoteNumber":64,"Velocity":80,"Duration":167286,"SoundDuration":167286,"Delta":73149056},{"NoteNumber":69,"Velocity":80,"Duration":167286,"SoundDuration":167286,"Delta":73149056},{"NoteNumber":55,"Velocity":71,"Duration":167286,"SoundDuration":167286,"Delta":73149056},{"NoteNumber":45,"Velocity":71,"Duration":167286,"SoundDuration":167286,"Delta":73149056},{"NoteNumber":74,"Velocity":86,"Duration":250000,"SoundDuration":250000,"Delta":73372104},{"NoteNumber":69,"Velocity":86,"Duration":250000,"SoundDuration":250000,"Delta":73372104},{"NoteNumber":62,"Velocity":86,"Duration":250000,"SoundDuration":250000,"Delta":73372104},{"NoteNumber":54,"Velocity":77,"Duration":250000,"SoundDuration":250000,"Delta":73372104},{"NoteNumber":50,"Velocity":77,"Duration":250000,"SoundDuration":250000,"Delta":73372104},{"NoteNumber":78,"Velocity":91,"Duration":466926,"SoundDuration":466926,"Delta":73872104},{"NoteNumber":86,"Velocity":91,"Duration":928464,"SoundDuration":928464,"Delta":73872104},{"NoteNumber":74,"Velocity":81,"Duration":928464,"SoundDuration":928464,"Delta":73872104},{"NoteNumber":54,"Velocity":73,"Duration":466926,"SoundDuration":466926,"Delta":73872104},{"NoteNumber":46,"Velocity":64,"Duration":928464,"SoundDuration":928464,"Delta":73872104},{"NoteNumber":58,"Velocity":73,"Duration":928464,"SoundDuration":928464,"Delta":73872104},{"NoteNumber":79,"Velocity":79,"Duration":461538,"SoundDuration":461538,"Delta":74339030},{"NoteNumber":55,"Velocity":57,"Duration":461538,"SoundDuration":461538,"Delta":74339030},{"NoteNumber":76,"Velocity":89,"Duration":465115,"SoundDuration":465115,"Delta":74800568},{"NoteNumber":84,"Velocity":89,"Duration":926653,"SoundDuration":926653,"Delta":74800568},{"NoteNumber":72,"Velocity":79,"Duration":926653,"SoundDuration":926653,"Delta":74800568},{"NoteNumber":56,"Velocity":69,"Duration":465115,"SoundDuration":465115,"Delta":74800568},{"NoteNumber":60,"Velocity":69,"Duration":926653,"SoundDuration":926653,"Delta":74800568},{"NoteNumber":48,"Velocity":62,"Duration":926653,"SoundDuration":926653,"Delta":74800568},{"NoteNumber":77,"Velocity":81,"Duration":461538,"SoundDuration":461538,"Delta":75265684},{"NoteNumber":57,"Velocity":59,"Duration":461538,"SoundDuration":461538,"Delta":75265684},{"NoteNumber":69,"Velocity":79,"Duration":339622,"SoundDuration":339622,"Delta":75727222},{"NoteNumber":81,"Velocity":89,"Duration":339622,"SoundDuration":339622,"Delta":75727222},{"NoteNumber":77,"Velocity":89,"Duration":452830,"SoundDuration":452830,"Delta":75727222},{"NoteNumber":49,"Velocity":63,"Duration":452830,"SoundDuration":452830,"Delta":75727222},{"NoteNumber":61,"Velocity":70,"Duration":452830,"SoundDuration":452830,"Delta":75727222},{"NoteNumber":57,"Velocity":70,"Duration":452830,"SoundDuration":452830,"Delta":75727222},{"NoteNumber":70,"Velocity":64,"Duration":113207,"SoundDuration":113207,"Delta":76066845},{"NoteNumber":82,"Velocity":72,"Duration":113207,"SoundDuration":113207,"Delta":76066845},{"NoteNumber":67,"Velocity":70,"Duration":235293,"SoundDuration":235293,"Delta":76180052},{"NoteNumber":77,"Velocity":79,"Duration":235293,"SoundDuration":235293,"Delta":76180052},{"NoteNumber":79,"Velocity":79,"Duration":235293,"SoundDuration":235293,"Delta":76180052},{"NoteNumber":50,"Velocity":56,"Duration":235293,"SoundDuration":235293,"Delta":76180052},{"NoteNumber":58,"Velocity":63,"Duration":235293,"SoundDuration":235293,"Delta":76180052},{"NoteNumber":62,"Velocity":63,"Duration":235293,"SoundDuration":235293,"Delta":76180052},{"NoteNumber":58,"Velocity":67,"Duration":468750,"SoundDuration":468750,"Delta":76650640},{"NoteNumber":64,"Velocity":75,"Duration":468750,"SoundDuration":468750,"Delta":76650640},{"NoteNumber":69,"Velocity":75,"Duration":468750,"SoundDuration":468750,"Delta":76650640},{"NoteNumber":48,"Velocity":55,"Duration":468750,"SoundDuration":468750,"Delta":76650640},{"NoteNumber":55,"Velocity":62,"Duration":468750,"SoundDuration":468750,"Delta":76650640},{"NoteNumber":57,"Velocity":53,"Duration":230768,"SoundDuration":230768,"Delta":77119390},{"NoteNumber":65,"Velocity":60,"Duration":230768,"SoundDuration":230768,"Delta":77119390},{"NoteNumber":41,"Velocity":44,"Duration":230768,"SoundDuration":230768,"Delta":77119390},{"NoteNumber":48,"Velocity":50,"Duration":230768,"SoundDuration":230768,"Delta":77119390},{"NoteNumber":29,"Velocity":35,"Duration":230768,"SoundDuration":230768,"Delta":77580928},{"NoteNumber":41,"Velocity":39,"Duration":230768,"SoundDuration":230768,"Delta":77580928},{"NoteNumber":57,"Velocity":39,"Duration":227272,"SoundDuration":227272,"Delta":77811697},{"NoteNumber":60,"Velocity":44,"Duration":227272,"SoundDuration":227272,"Delta":77811697},{"NoteNumber":58,"Velocity":44,"Duration":936681,"SoundDuration":936681,"Delta":78038970},{"NoteNumber":65,"Velocity":49,"Duration":233463,"SoundDuration":233463,"Delta":78038970},{"NoteNumber":41,"Velocity":37,"Duration":936681,"SoundDuration":936681,"Delta":78038970},{"NoteNumber":48,"Velocity":37,"Duration":936681,"SoundDuration":936681,"Delta":78038970},{"NoteNumber":55,"Velocity":41,"Duration":936681,"SoundDuration":936681,"Delta":78038970},{"NoteNumber":64,"Velocity":40,"Duration":233463,"SoundDuration":233463,"Delta":78272433},{"NoteNumber":62,"Velocity":41,"Duration":231660,"SoundDuration":231660,"Delta":78505896},{"NoteNumber":64,"Velocity":38,"Duration":238095,"SoundDuration":238095,"Delta":78737556},{"NoteNumber":57,"Velocity":33,"Duration":470588,"SoundDuration":470588,"Delta":78975651},{"NoteNumber":65,"Velocity":37,"Duration":470588,"SoundDuration":470588,"Delta":78975651},{"NoteNumber":41,"Velocity":26,"Duration":470588,"SoundDuration":470588,"Delta":78975651},{"NoteNumber":48,"Velocity":26,"Duration":470588,"SoundDuration":470588,"Delta":78975651},{"NoteNumber":53,"Velocity":29,"Duration":470588,"SoundDuration":470588,"Delta":78975651},{"NoteNumber":65,"Velocity":38,"Duration":236220,"SoundDuration":236220,"Delta":79446239},{"NoteNumber":69,"Velocity":38,"Duration":236220,"SoundDuration":236220,"Delta":79446239},{"NoteNumber":72,"Velocity":42,"Duration":236220,"SoundDuration":236220,"Delta":79446239},{"NoteNumber":48,"Velocity":37,"Duration":229007,"SoundDuration":229007,"Delta":79682459},{"NoteNumber":58,"Velocity":40,"Duration":938484,"SoundDuration":938484,"Delta":79911467},{"NoteNumber":61,"Velocity":45,"Duration":938484,"SoundDuration":938484,"Delta":79911467},{"NoteNumber":53,"Velocity":40,"Duration":233463,"SoundDuration":233463,"Delta":79911467},{"NoteNumber":52,"Velocity":35,"Duration":233463,"SoundDuration":233463,"Delta":80144930},{"NoteNumber":50,"Velocity":38,"Duration":233463,"SoundDuration":233463,"Delta":80378393},{"NoteNumber":52,"Velocity":35,"Duration":238095,"SoundDuration":238095,"Delta":80611856},{"NoteNumber":57,"Velocity":28,"Duration":466232,"SoundDuration":466232,"Delta":80849951},{"NoteNumber":60,"Velocity":31,"Duration":466232,"SoundDuration":466232,"Delta":80849951},{"NoteNumber":53,"Velocity":36,"Duration":466232,"SoundDuration":466232,"Delta":80849951},{"NoteNumber":57,"Velocity":40,"Duration":228136,"SoundDuration":228136,"Delta":81316183},{"NoteNumber":62,"Velocity":49,"Duration":229884,"SoundDuration":229884,"Delta":81544320},{"NoteNumber":50,"Velocity":46,"Duration":229884,"SoundDuration":229884,"Delta":81544320},{"NoteNumber":73,"Velocity":52,"Duration":229885,"SoundDuration":229885,"Delta":81774205},{"NoteNumber":69,"Velocity":52,"Duration":229885,"SoundDuration":229885,"Delta":81774205},{"NoteNumber":41,"Velocity":40,"Duration":229885,"SoundDuration":229885,"Delta":81774205},{"NoteNumber":74,"Velocity":49,"Duration":226415,"SoundDuration":226415,"Delta":82004090},{"NoteNumber":58,"Velocity":47,"Duration":226415,"SoundDuration":226415,"Delta":82230505},{"NoteNumber":62,"Velocity":58,"Duration":227849,"SoundDuration":227849,"Delta":82456920},{"NoteNumber":50,"Velocity":51,"Duration":227849,"SoundDuration":227849,"Delta":82456920},{"NoteNumber":70,"Velocity":61,"Duration":228137,"SoundDuration":228137,"Delta":82684770},{"NoteNumber":73,"Velocity":61,"Duration":228137,"SoundDuration":228137,"Delta":82684770},{"NoteNumber":43,"Velocity":48,"Duration":228137,"SoundDuration":228137,"Delta":82684770},{"NoteNumber":74,"Velocity":58,"Duration":224718,"SoundDuration":224718,"Delta":82912907},{"NoteNumber":59,"Velocity":56,"Duration":224719,"SoundDuration":224719,"Delta":83137626},{"NoteNumber":64,"Velocity":66,"Duration":227272,"SoundDuration":227272,"Delta":83362345},{"NoteNumber":52,"Velocity":59,"Duration":227272,"SoundDuration":227272,"Delta":83362345},{"NoteNumber":75,"Velocity":74,"Duration":227272,"SoundDuration":227272,"Delta":83589617},{"NoteNumber":71,"Velocity":74,"Duration":227272,"SoundDuration":227272,"Delta":83589617},{"NoteNumber":44,"Velocity":55,"Duration":227272,"SoundDuration":227272,"Delta":83589617},{"NoteNumber":76,"Velocity":68,"Duration":224718,"SoundDuration":224718,"Delta":83816890},{"NoteNumber":61,"Velocity":62,"Duration":224719,"SoundDuration":224719,"Delta":84041609},{"NoteNumber":64,"Velocity":80,"Duration":226415,"SoundDuration":226415,"Delta":84266328},{"NoteNumber":52,"Velocity":68,"Duration":226415,"SoundDuration":226415,"Delta":84266328},{"NoteNumber":75,"Velocity":84,"Duration":226415,"SoundDuration":226415,"Delta":84492743},{"NoteNumber":69,"Velocity":84,"Duration":226415,"SoundDuration":226415,"Delta":84492743},{"NoteNumber":73,"Velocity":84,"Duration":226415,"SoundDuration":226415,"Delta":84492743},{"NoteNumber":45,"Velocity":63,"Duration":226415,"SoundDuration":226415,"Delta":84492743},{"NoteNumber":76,"Velocity":80,"Duration":240964,"SoundDuration":240964,"Delta":84719158},{"NoteNumber":78,"Velocity":91,"Duration":466926,"SoundDuration":466926,"Delta":84960122},{"NoteNumber":86,"Velocity":91,"Duration":928464,"SoundDuration":928464,"Delta":84960122},{"NoteNumber":74,"Velocity":81,"Duration":928464,"SoundDuration":928464,"Delta":84960122},{"NoteNumber":54,"Velocity":73,"Duration":466926,"SoundDuration":466926,"Delta":84960122},{"NoteNumber":46,"Velocity":64,"Duration":928464,"SoundDuration":928464,"Delta":84960122},{"NoteNumber":58,"Velocity":73,"Duration":928464,"SoundDuration":928464,"Delta":84960122},{"NoteNumber":79,"Velocity":83,"Duration":461538,"SoundDuration":461538,"Delta":85427048},{"NoteNumber":55,"Velocity":62,"Duration":461538,"SoundDuration":461538,"Delta":85427048},{"NoteNumber":76,"Velocity":89,"Duration":465115,"SoundDuration":465115,"Delta":85888586},{"NoteNumber":84,"Velocity":89,"Duration":926653,"SoundDuration":926653,"Delta":85888586},{"NoteNumber":72,"Velocity":79,"Duration":926653,"SoundDuration":926653,"Delta":85888586},{"NoteNumber":56,"Velocity":69,"Duration":465115,"SoundDuration":465115,"Delta":85888586},{"NoteNumber":60,"Velocity":69,"Duration":926653,"SoundDuration":926653,"Delta":85888586},{"NoteNumber":48,"Velocity":62,"Duration":926653,"SoundDuration":926653,"Delta":85888586},{"NoteNumber":77,"Velocity":79,"Duration":461538,"SoundDuration":461538,"Delta":86353702},{"NoteNumber":57,"Velocity":60,"Duration":461538,"SoundDuration":461538,"Delta":86353702},{"NoteNumber":69,"Velocity":79,"Duration":339622,"SoundDuration":339622,"Delta":86815240},{"NoteNumber":81,"Velocity":89,"Duration":339622,"SoundDuration":339622,"Delta":86815240},{"NoteNumber":77,"Velocity":89,"Duration":452830,"SoundDuration":452830,"Delta":86815240},{"NoteNumber":49,"Velocity":63,"Duration":452830,"SoundDuration":452830,"Delta":86815240},{"NoteNumber":61,"Velocity":70,"Duration":452830,"SoundDuration":452830,"Delta":86815240},{"NoteNumber":57,"Velocity":70,"Duration":452830,"SoundDuration":452830,"Delta":86815240},{"NoteNumber":70,"Velocity":64,"Duration":113207,"SoundDuration":113207,"Delta":87154862},{"NoteNumber":82,"Velocity":72,"Duration":113207,"SoundDuration":113207,"Delta":87154862},{"NoteNumber":67,"Velocity":70,"Duration":237154,"SoundDuration":237154,"Delta":87268070},{"NoteNumber":77,"Velocity":79,"Duration":237154,"SoundDuration":237154,"Delta":87268070},{"NoteNumber":79,"Velocity":79,"Duration":237154,"SoundDuration":237154,"Delta":87268070},{"NoteNumber":50,"Velocity":56,"Duration":237154,"SoundDuration":237154,"Delta":87268070},{"NoteNumber":58,"Velocity":63,"Duration":237154,"SoundDuration":237154,"Delta":87268070},{"NoteNumber":62,"Velocity":63,"Duration":237154,"SoundDuration":237154,"Delta":87268070},{"NoteNumber":58,"Velocity":67,"Duration":466926,"SoundDuration":466926,"Delta":87742378},{"NoteNumber":64,"Velocity":75,"Duration":466926,"SoundDuration":466926,"Delta":87742378},{"NoteNumber":69,"Velocity":75,"Duration":466926,"SoundDuration":466926,"Delta":87742378},{"NoteNumber":48,"Velocity":55,"Duration":466926,"SoundDuration":466926,"Delta":87742378},{"NoteNumber":55,"Velocity":62,"Duration":466926,"SoundDuration":466926,"Delta":87742378},{"NoteNumber":57,"Velocity":53,"Duration":230768,"SoundDuration":230768,"Delta":88209304},{"NoteNumber":65,"Velocity":60,"Duration":230768,"SoundDuration":230768,"Delta":88209304},{"NoteNumber":41,"Velocity":44,"Duration":230768,"SoundDuration":230768,"Delta":88209304},{"NoteNumber":48,"Velocity":50,"Duration":230768,"SoundDuration":230768,"Delta":88209304},{"NoteNumber":29,"Velocity":35,"Duration":230768,"SoundDuration":230768,"Delta":88670842},{"NoteNumber":41,"Velocity":39,"Duration":230768,"SoundDuration":230768,"Delta":88670842},{"NoteNumber":57,"Velocity":39,"Duration":227272,"SoundDuration":227272,"Delta":88901611},{"NoteNumber":60,"Velocity":44,"Duration":227272,"SoundDuration":227272,"Delta":88901611},{"NoteNumber":58,"Velocity":44,"Duration":936681,"SoundDuration":936681,"Delta":89128883},{"NoteNumber":65,"Velocity":49,"Duration":233463,"SoundDuration":233463,"Delta":89128883},{"NoteNumber":41,"Velocity":37,"Duration":936681,"SoundDuration":936681,"Delta":89128883},{"NoteNumber":48,"Velocity":37,"Duration":936681,"SoundDuration":936681,"Delta":89128883},{"NoteNumber":55,"Velocity":41,"Duration":936681,"SoundDuration":936681,"Delta":89128883},{"NoteNumber":64,"Velocity":40,"Duration":233463,"SoundDuration":233463,"Delta":89362346},{"NoteNumber":62,"Velocity":41,"Duration":231660,"SoundDuration":231660,"Delta":89595809},{"NoteNumber":64,"Velocity":38,"Duration":238095,"SoundDuration":238095,"Delta":89827469},{"NoteNumber":57,"Velocity":33,"Duration":466926,"SoundDuration":466926,"Delta":90065564},{"NoteNumber":65,"Velocity":37,"Duration":466926,"SoundDuration":466926,"Delta":90065564},{"NoteNumber":41,"Velocity":26,"Duration":466926,"SoundDuration":466926,"Delta":90065564},{"NoteNumber":48,"Velocity":26,"Duration":466926,"SoundDuration":466926,"Delta":90065564},{"NoteNumber":53,"Velocity":29,"Duration":466926,"SoundDuration":466926,"Delta":90065564},{"NoteNumber":65,"Velocity":38,"Duration":236220,"SoundDuration":236220,"Delta":90532490},{"NoteNumber":69,"Velocity":38,"Duration":236220,"SoundDuration":236220,"Delta":90532490},{"NoteNumber":72,"Velocity":42,"Duration":236220,"SoundDuration":236220,"Delta":90532490},{"NoteNumber":48,"Velocity":37,"Duration":229007,"SoundDuration":229007,"Delta":90768711},{"NoteNumber":58,"Velocity":40,"Duration":938484,"SoundDuration":938484,"Delta":90997718},{"NoteNumber":61,"Velocity":45,"Duration":938484,"SoundDuration":938484,"Delta":90997718},{"NoteNumber":53,"Velocity":40,"Duration":233463,"SoundDuration":233463,"Delta":90997718},{"NoteNumber":52,"Velocity":35,"Duration":233463,"SoundDuration":233463,"Delta":91231181},{"NoteNumber":50,"Velocity":38,"Duration":233463,"SoundDuration":233463,"Delta":91464644},{"NoteNumber":52,"Velocity":35,"Duration":238095,"SoundDuration":238095,"Delta":91698107},{"NoteNumber":57,"Velocity":28,"Duration":465367,"SoundDuration":465367,"Delta":91936202},{"NoteNumber":60,"Velocity":31,"Duration":465367,"SoundDuration":465367,"Delta":91936202},{"NoteNumber":53,"Velocity":36,"Duration":465367,"SoundDuration":465367,"Delta":91936202},{"NoteNumber":57,"Velocity":40,"Duration":226132,"SoundDuration":226132,"Delta":92401570},{"NoteNumber":62,"Velocity":48,"Duration":229884,"SoundDuration":229884,"Delta":92627702},{"NoteNumber":50,"Velocity":46,"Duration":229884,"SoundDuration":229884,"Delta":92627702},{"NoteNumber":73,"Velocity":50,"Duration":229885,"SoundDuration":229885,"Delta":92857587},{"NoteNumber":69,"Velocity":50,"Duration":229885,"SoundDuration":229885,"Delta":92857587},{"NoteNumber":41,"Velocity":40,"Duration":229885,"SoundDuration":229885,"Delta":92857587},{"NoteNumber":74,"Velocity":48,"Duration":224718,"SoundDuration":224718,"Delta":93087472},{"NoteNumber":58,"Velocity":47,"Duration":226415,"SoundDuration":226415,"Delta":93312191},{"NoteNumber":62,"Velocity":56,"Duration":229007,"SoundDuration":229007,"Delta":93538606},{"NoteNumber":50,"Velocity":51,"Duration":229007,"SoundDuration":229007,"Delta":93538606},{"NoteNumber":70,"Velocity":59,"Duration":229007,"SoundDuration":229007,"Delta":93767614},{"NoteNumber":73,"Velocity":59,"Duration":229007,"SoundDuration":229007,"Delta":93767614},{"NoteNumber":43,"Velocity":48,"Duration":229007,"SoundDuration":229007,"Delta":93767614},{"NoteNumber":74,"Velocity":57,"Duration":223880,"SoundDuration":223880,"Delta":93996621},{"NoteNumber":59,"Velocity":56,"Duration":223880,"SoundDuration":223880,"Delta":94220502},{"NoteNumber":64,"Velocity":64,"Duration":225564,"SoundDuration":225564,"Delta":94444382},{"NoteNumber":52,"Velocity":59,"Duration":225564,"SoundDuration":225564,"Delta":94444382},{"NoteNumber":75,"Velocity":69,"Duration":225563,"SoundDuration":225563,"Delta":94669946},{"NoteNumber":71,"Velocity":69,"Duration":225563,"SoundDuration":225563,"Delta":94669946},{"NoteNumber":44,"Velocity":55,"Duration":225563,"SoundDuration":225563,"Delta":94669946},{"NoteNumber":76,"Velocity":66,"Duration":222222,"SoundDuration":222222,"Delta":94895510},{"NoteNumber":61,"Velocity":62,"Duration":222222,"SoundDuration":222222,"Delta":95117732},{"NoteNumber":64,"Velocity":71,"Duration":224718,"SoundDuration":224718,"Delta":95339954},{"NoteNumber":52,"Velocity":68,"Duration":224718,"SoundDuration":224718,"Delta":95339954},{"NoteNumber":75,"Velocity":78,"Duration":228137,"SoundDuration":228137,"Delta":95564673},{"NoteNumber":69,"Velocity":78,"Duration":228137,"SoundDuration":228137,"Delta":95564673},{"NoteNumber":73,"Velocity":78,"Duration":228137,"SoundDuration":228137,"Delta":95564673},{"NoteNumber":45,"Velocity":63,"Duration":228137,"SoundDuration":228137,"Delta":95564673},{"NoteNumber":76,"Velocity":72,"Duration":236220,"SoundDuration":236220,"Delta":95792810},{"NoteNumber":85,"Velocity":89,"Duration":466926,"SoundDuration":466926,"Delta":96029031},{"NoteNumber":89,"Velocity":79,"Duration":928464,"SoundDuration":928464,"Delta":96029031},{"NoteNumber":77,"Velocity":75,"Duration":928464,"SoundDuration":928464,"Delta":96029031},{"NoteNumber":53,"Velocity":64,"Duration":928464,"SoundDuration":928464,"Delta":96029031},{"NoteNumber":45,"Velocity":64,"Duration":466926,"SoundDuration":466926,"Delta":96029031},{"NoteNumber":57,"Velocity":73,"Duration":466926,"SoundDuration":466926,"Delta":96029031},{"NoteNumber":86,"Velocity":89,"Duration":461538,"SoundDuration":461538,"Delta":96495957},{"NoteNumber":46,"Velocity":58,"Duration":461538,"SoundDuration":461538,"Delta":96495957},{"NoteNumber":58,"Velocity":66,"Duration":461538,"SoundDuration":461538,"Delta":96495957},{"NoteNumber":75,"Velocity":89,"Duration":466926,"SoundDuration":466926,"Delta":96957495},{"NoteNumber":79,"Velocity":89,"Duration":928464,"SoundDuration":928464,"Delta":96957495},{"NoteNumber":67,"Velocity":79,"Duration":928464,"SoundDuration":928464,"Delta":96957495},{"NoteNumber":55,"Velocity":64,"Duration":928464,"SoundDuration":928464,"Delta":96957495},{"NoteNumber":47,"Velocity":62,"Duration":466926,"SoundDuration":466926,"Delta":96957495},{"NoteNumber":59,"Velocity":69,"Duration":466926,"SoundDuration":466926,"Delta":96957495},{"NoteNumber":76,"Velocity":85,"Duration":461538,"SoundDuration":461538,"Delta":97424421},{"NoteNumber":48,"Velocity":57,"Duration":461538,"SoundDuration":461538,"Delta":97424421},{"NoteNumber":60,"Velocity":64,"Duration":461538,"SoundDuration":461538,"Delta":97424421},{"NoteNumber":72,"Velocity":79,"Duration":339622,"SoundDuration":339622,"Delta":97885959},{"NoteNumber":84,"Velocity":89,"Duration":339622,"SoundDuration":339622,"Delta":97885959},{"NoteNumber":80,"Velocity":81,"Duration":452830,"SoundDuration":452830,"Delta":97885959},{"NoteNumber":60,"Velocity":63,"Duration":916150,"SoundDuration":916150,"Delta":97885959},{"NoteNumber":52,"Velocity":63,"Duration":452830,"SoundDuration":452830,"Delta":97885959},{"NoteNumber":64,"Velocity":70,"Duration":452830,"SoundDuration":452830,"Delta":97885959},{"NoteNumber":71,"Velocity":64,"Duration":113207,"SoundDuration":113207,"Delta":98225581},{"NoteNumber":83,"Velocity":72,"Duration":113207,"SoundDuration":113207,"Delta":98225581},{"NoteNumber":69,"Velocity":70,"Duration":231660,"SoundDuration":231660,"Delta":98338789},{"NoteNumber":81,"Velocity":79,"Duration":231660,"SoundDuration":231660,"Delta":98338789},{"NoteNumber":53,"Velocity":56,"Duration":231660,"SoundDuration":231660,"Delta":98338789},{"NoteNumber":65,"Velocity":63,"Duration":231660,"SoundDuration":231660,"Delta":98338789},{"NoteNumber":65,"Velocity":79,"Duration":342205,"SoundDuration":342205,"Delta":98802109},{"NoteNumber":77,"Velocity":89,"Duration":342205,"SoundDuration":342205,"Delta":98802109},{"NoteNumber":73,"Velocity":81,"Duration":456273,"SoundDuration":456273,"Delta":98802109},{"NoteNumber":57,"Velocity":70,"Duration":456273,"SoundDuration":456273,"Delta":98802109},{"NoteNumber":64,"Velocity":64,"Duration":114068,"SoundDuration":114068,"Delta":99144314},{"NoteNumber":76,"Velocity":72,"Duration":114068,"SoundDuration":114068,"Delta":99144314},{"NoteNumber":62,"Velocity":70,"Duration":231660,"SoundDuration":231660,"Delta":99258383},{"NoteNumber":74,"Velocity":79,"Duration":231660,"SoundDuration":231660,"Delta":99258383},{"NoteNumber":58,"Velocity":63,"Duration":231660,"SoundDuration":231660,"Delta":99258383},{"NoteNumber":58,"Velocity":39,"Duration":458041,"SoundDuration":458041,"Delta":99727197},{"NoteNumber":62,"Velocity":44,"Duration":227272,"SoundDuration":227272,"Delta":99957966},{"NoteNumber":60,"Velocity":44,"Duration":936681,"SoundDuration":936681,"Delta":100185238},{"NoteNumber":67,"Velocity":49,"Duration":233463,"SoundDuration":233463,"Delta":100185238},{"NoteNumber":57,"Velocity":41,"Duration":936681,"SoundDuration":936681,"Delta":100185238},{"NoteNumber":66,"Velocity":40,"Duration":233463,"SoundDuration":233463,"Delta":100418701},{"NoteNumber":64,"Velocity":41,"Duration":231660,"SoundDuration":231660,"Delta":100652164},{"NoteNumber":50,"Velocity":41,"Duration":699640,"SoundDuration":699640,"Delta":100652164},{"NoteNumber":66,"Velocity":38,"Duration":238095,"SoundDuration":238095,"Delta":100883824},{"NoteNumber":58,"Velocity":33,"Duration":229884,"SoundDuration":229884,"Delta":101121919},{"NoteNumber":62,"Velocity":33,"Duration":229884,"SoundDuration":229884,"Delta":101121919},{"NoteNumber":67,"Velocity":37,"Duration":229884,"SoundDuration":229884,"Delta":101121919},{"NoteNumber":43,"Velocity":26,"Duration":229884,"SoundDuration":229884,"Delta":101121919},{"NoteNumber":55,"Velocity":29,"Duration":229884,"SoundDuration":229884,"Delta":101121919},{"NoteNumber":70,"Velocity":39,"Duration":458041,"SoundDuration":458041,"Delta":101581689},{"NoteNumber":74,"Velocity":44,"Duration":227272,"SoundDuration":227272,"Delta":101812458},{"NoteNumber":72,"Velocity":44,"Duration":942146,"SoundDuration":942146,"Delta":102039731},{"NoteNumber":79,"Velocity":49,"Duration":235293,"SoundDuration":235293,"Delta":102039731},{"NoteNumber":69,"Velocity":41,"Duration":942146,"SoundDuration":942146,"Delta":102039731},{"NoteNumber":78,"Velocity":40,"Duration":235294,"SoundDuration":235294,"Delta":102275025},{"NoteNumber":76,"Velocity":41,"Duration":233463,"SoundDuration":233463,"Delta":102510319},{"NoteNumber":62,"Velocity":41,"Duration":709653,"SoundDuration":709653,"Delta":102510319},{"NoteNumber":78,"Velocity":38,"Duration":238095,"SoundDuration":238095,"Delta":102743782},{"NoteNumber":70,"Velocity":33,"Duration":238095,"SoundDuration":238095,"Delta":102981877},{"NoteNumber":74,"Velocity":33,"Duration":238095,"SoundDuration":238095,"Delta":102981877},{"NoteNumber":79,"Velocity":37,"Duration":238095,"SoundDuration":238095,"Delta":102981877},{"NoteNumber":55,"Velocity":26,"Duration":238095,"SoundDuration":238095,"Delta":102981877},{"NoteNumber":67,"Velocity":29,"Duration":238095,"SoundDuration":238095,"Delta":102981877},{"NoteNumber":87,"Velocity":91,"Duration":466926,"SoundDuration":466926,"Delta":103469972},{"NoteNumber":91,"Velocity":85,"Duration":928464,"SoundDuration":928464,"Delta":103469972},{"NoteNumber":79,"Velocity":81,"Duration":928464,"SoundDuration":928464,"Delta":103469972},{"NoteNumber":55,"Velocity":64,"Duration":928464,"SoundDuration":928464,"Delta":103469972},{"NoteNumber":47,"Velocity":64,"Duration":466926,"SoundDuration":466926,"Delta":103469972},{"NoteNumber":59,"Velocity":73,"Duration":466926,"SoundDuration":466926,"Delta":103469972},{"NoteNumber":88,"Velocity":86,"Duration":461538,"SoundDuration":461538,"Delta":103936898},{"NoteNumber":48,"Velocity":58,"Duration":461538,"SoundDuration":461538,"Delta":103936898},{"NoteNumber":60,"Velocity":66,"Duration":461538,"SoundDuration":461538,"Delta":103936898},{"NoteNumber":77,"Velocity":89,"Duration":466926,"SoundDuration":466926,"Delta":104398436},{"NoteNumber":81,"Velocity":89,"Duration":928464,"SoundDuration":928464,"Delta":104398436},{"NoteNumber":69,"Velocity":79,"Duration":928464,"SoundDuration":928464,"Delta":104398436},{"NoteNumber":57,"Velocity":64,"Duration":928464,"SoundDuration":928464,"Delta":104398436},{"NoteNumber":49,"Velocity":62,"Duration":466926,"SoundDuration":466926,"Delta":104398436},{"NoteNumber":61,"Velocity":69,"Duration":466926,"SoundDuration":466926,"Delta":104398436},{"NoteNumber":78,"Velocity":85,"Duration":461538,"SoundDuration":461538,"Delta":104865362},{"NoteNumber":50,"Velocity":57,"Duration":461538,"SoundDuration":461538,"Delta":104865362},{"NoteNumber":62,"Velocity":64,"Duration":461538,"SoundDuration":461538,"Delta":104865362},{"NoteNumber":74,"Velocity":79,"Duration":339622,"SoundDuration":339622,"Delta":105326900},{"NoteNumber":86,"Velocity":89,"Duration":339622,"SoundDuration":339622,"Delta":105326900},{"NoteNumber":82,"Velocity":81,"Duration":452830,"SoundDuration":452830,"Delta":105326900},{"NoteNumber":62,"Velocity":63,"Duration":916150,"SoundDuration":916150,"Delta":105326900},{"NoteNumber":54,"Velocity":63,"Duration":452830,"SoundDuration":452830,"Delta":105326900},{"NoteNumber":66,"Velocity":70,"Duration":452830,"SoundDuration":452830,"Delta":105326900},{"NoteNumber":73,"Velocity":64,"Duration":113207,"SoundDuration":113207,"Delta":105666522},{"NoteNumber":85,"Velocity":72,"Duration":113207,"SoundDuration":113207,"Delta":105666522},{"NoteNumber":71,"Velocity":70,"Duration":231660,"SoundDuration":231660,"Delta":105779730},{"NoteNumber":83,"Velocity":79,"Duration":231660,"SoundDuration":231660,"Delta":105779730},{"NoteNumber":55,"Velocity":56,"Duration":231660,"SoundDuration":231660,"Delta":105779730},{"NoteNumber":67,"Velocity":63,"Duration":231660,"SoundDuration":231660,"Delta":105779730},{"NoteNumber":67,"Velocity":79,"Duration":342205,"SoundDuration":342205,"Delta":106243050},{"NoteNumber":79,"Velocity":89,"Duration":342205,"SoundDuration":342205,"Delta":106243050},{"NoteNumber":75,"Velocity":81,"Duration":456273,"SoundDuration":456273,"Delta":106243050},{"NoteNumber":59,"Velocity":70,"Duration":456273,"SoundDuration":456273,"Delta":106243050},{"NoteNumber":66,"Velocity":64,"Duration":114068,"SoundDuration":114068,"Delta":106585255},{"NoteNumber":78,"Velocity":72,"Duration":114068,"SoundDuration":114068,"Delta":106585255},{"NoteNumber":64,"Velocity":70,"Duration":231660,"SoundDuration":231660,"Delta":106699324},{"NoteNumber":76,"Velocity":79,"Duration":231660,"SoundDuration":231660,"Delta":106699324},{"NoteNumber":60,"Velocity":63,"Duration":231660,"SoundDuration":231660,"Delta":106699324},{"NoteNumber":60,"Velocity":39,"Duration":458041,"SoundDuration":458041,"Delta":107168138},{"NoteNumber":64,"Velocity":44,"Duration":227272,"SoundDuration":227272,"Delta":107398907},{"NoteNumber":62,"Velocity":44,"Duration":936681,"SoundDuration":936681,"Delta":107626179},{"NoteNumber":69,"Velocity":49,"Duration":233463,"SoundDuration":233463,"Delta":107626179},{"NoteNumber":59,"Velocity":41,"Duration":936681,"SoundDuration":936681,"Delta":107626179},{"NoteNumber":68,"Velocity":40,"Duration":233463,"SoundDuration":233463,"Delta":107859642},{"NoteNumber":66,"Velocity":41,"Duration":231660,"SoundDuration":231660,"Delta":108093105},{"NoteNumber":52,"Velocity":41,"Duration":699640,"SoundDuration":699640,"Delta":108093105},{"NoteNumber":68,"Velocity":38,"Duration":238095,"SoundDuration":238095,"Delta":108324765},{"NoteNumber":60,"Velocity":33,"Duration":229884,"SoundDuration":229884,"Delta":108562860},{"NoteNumber":64,"Velocity":33,"Duration":229884,"SoundDuration":229884,"Delta":108562860},{"NoteNumber":69,"Velocity":37,"Duration":229884,"SoundDuration":229884,"Delta":108562860},{"NoteNumber":45,"Velocity":26,"Duration":229884,"SoundDuration":229884,"Delta":108562860},{"NoteNumber":57,"Velocity":29,"Duration":229884,"SoundDuration":229884,"Delta":108562860},{"NoteNumber":72,"Velocity":39,"Duration":458041,"SoundDuration":458041,"Delta":109022630},{"NoteNumber":76,"Velocity":44,"Duration":227272,"SoundDuration":227272,"Delta":109253399},{"NoteNumber":74,"Velocity":44,"Duration":942146,"SoundDuration":942146,"Delta":109480672},{"NoteNumber":81,"Velocity":49,"Duration":235293,"SoundDuration":235293,"Delta":109480672},{"NoteNumber":71,"Velocity":41,"Duration":942146,"SoundDuration":942146,"Delta":109480672},{"NoteNumber":80,"Velocity":40,"Duration":235294,"SoundDuration":235294,"Delta":109715966},{"NoteNumber":78,"Velocity":41,"Duration":233463,"SoundDuration":233463,"Delta":109951260},{"NoteNumber":64,"Velocity":41,"Duration":709653,"SoundDuration":709653,"Delta":109951260},{"NoteNumber":80,"Velocity":38,"Duration":238095,"SoundDuration":238095,"Delta":110184723},{"NoteNumber":72,"Velocity":33,"Duration":238095,"SoundDuration":238095,"Delta":110422818},{"NoteNumber":76,"Velocity":33,"Duration":238095,"SoundDuration":238095,"Delta":110422818},{"NoteNumber":81,"Velocity":37,"Duration":238095,"SoundDuration":238095,"Delta":110422818},{"NoteNumber":57,"Velocity":26,"Duration":238095,"SoundDuration":238095,"Delta":110422818},{"NoteNumber":69,"Velocity":29,"Duration":238095,"SoundDuration":238095,"Delta":110422818},{"NoteNumber":72,"Velocity":39,"Duration":449595,"SoundDuration":449595,"Delta":110899008},{"NoteNumber":76,"Velocity":49,"Duration":114503,"SoundDuration":114503,"Delta":111013511},{"NoteNumber":81,"Velocity":53,"Duration":110293,"SoundDuration":110293,"Delta":111128015},{"NoteNumber":88,"Velocity":49,"Duration":110294,"SoundDuration":110294,"Delta":111238309},{"NoteNumber":80,"Velocity":50,"Duration":460052,"SoundDuration":460052,"Delta":111348603},{"NoteNumber":74,"Velocity":50,"Duration":460052,"SoundDuration":460052,"Delta":111348603},{"NoteNumber":76,"Velocity":50,"Duration":460052,"SoundDuration":460052,"Delta":111348603},{"NoteNumber":71,"Velocity":49,"Duration":460052,"SoundDuration":460052,"Delta":111348603},{"NoteNumber":57,"Velocity":35,"Duration":230026,"SoundDuration":230026,"Delta":111578629},{"NoteNumber":64,"Velocity":35,"Duration":230026,"SoundDuration":230026,"Delta":111578629},{"NoteNumber":69,"Velocity":39,"Duration":453027,"SoundDuration":453027,"Delta":111808655},{"NoteNumber":72,"Velocity":49,"Duration":114129,"SoundDuration":114129,"Delta":111922784},{"NoteNumber":76,"Velocity":53,"Duration":112384,"SoundDuration":112384,"Delta":112036914},{"NoteNumber":81,"Velocity":49,"Duration":112384,"SoundDuration":112384,"Delta":112149298},{"NoteNumber":76,"Velocity":50,"Duration":464639,"SoundDuration":464639,"Delta":112261683},{"NoteNumber":71,"Velocity":50,"Duration":464639,"SoundDuration":464639,"Delta":112261683},{"NoteNumber":74,"Velocity":50,"Duration":464639,"SoundDuration":464639,"Delta":112261683},{"NoteNumber":68,"Velocity":49,"Duration":464639,"SoundDuration":464639,"Delta":112261683},{"NoteNumber":57,"Velocity":35,"Duration":234613,"SoundDuration":234613,"Delta":112491709},{"NoteNumber":64,"Velocity":35,"Duration":234613,"SoundDuration":234613,"Delta":112491709},{"NoteNumber":72,"Velocity":39,"Duration":448927,"SoundDuration":448927,"Delta":112726323},{"NoteNumber":76,"Velocity":49,"Duration":114573,"SoundDuration":114573,"Delta":112840896},{"NoteNumber":81,"Velocity":53,"Duration":109889,"SoundDuration":109889,"Delta":112955470},{"NoteNumber":88,"Velocity":49,"Duration":109890,"SoundDuration":109890,"Delta":113065360},{"NoteNumber":80,"Velocity":50,"Duration":460052,"SoundDuration":460052,"Delta":113175250},{"NoteNumber":74,"Velocity":50,"Duration":460052,"SoundDuration":460052,"Delta":113175250},{"NoteNumber":76,"Velocity":50,"Duration":460052,"SoundDuration":460052,"Delta":113175250},{"NoteNumber":71,"Velocity":49,"Duration":460052,"SoundDuration":460052,"Delta":113175250},{"NoteNumber":57,"Velocity":35,"Duration":230026,"SoundDuration":230026,"Delta":113405276},{"NoteNumber":64,"Velocity":35,"Duration":230026,"SoundDuration":230026,"Delta":113405276},{"NoteNumber":69,"Velocity":39,"Duration":453873,"SoundDuration":453873,"Delta":113635302},{"NoteNumber":72,"Velocity":49,"Duration":114129,"SoundDuration":114129,"Delta":113749431},{"NoteNumber":76,"Velocity":53,"Duration":112807,"SoundDuration":112807,"Delta":113863561},{"NoteNumber":81,"Velocity":49,"Duration":112807,"SoundDuration":112807,"Delta":113976368},{"NoteNumber":76,"Velocity":50,"Duration":460052,"SoundDuration":460052,"Delta":114089176},{"NoteNumber":71,"Velocity":50,"Duration":460052,"SoundDuration":460052,"Delta":114089176},{"NoteNumber":74,"Velocity":50,"Duration":460052,"SoundDuration":460052,"Delta":114089176},{"NoteNumber":68,"Velocity":49,"Duration":460052,"SoundDuration":460052,"Delta":114089176},{"NoteNumber":57,"Velocity":35,"Duration":230026,"SoundDuration":230026,"Delta":114319202},{"NoteNumber":64,"Velocity":35,"Duration":230026,"SoundDuration":230026,"Delta":114319202},{"NoteNumber":81,"Velocity":56,"Duration":116731,"SoundDuration":116731,"Delta":114549228},{"NoteNumber":57,"Velocity":39,"Duration":231673,"SoundDuration":231673,"Delta":114549228},{"NoteNumber":88,"Velocity":46,"Duration":114942,"SoundDuration":114942,"Delta":114665959},{"NoteNumber":90,"Velocity":52,"Duration":114942,"SoundDuration":114942,"Delta":114780902},{"NoteNumber":73,"Velocity":49,"Duration":114942,"SoundDuration":114942,"Delta":114780902},{"NoteNumber":88,"Velocity":48,"Duration":117647,"SoundDuration":117647,"Delta":114895844},{"NoteNumber":80,"Velocity":56,"Duration":116279,"SoundDuration":116279,"Delta":115013491},{"NoteNumber":74,"Velocity":52,"Duration":116279,"SoundDuration":116279,"Delta":115013491},{"NoteNumber":88,"Velocity":46,"Duration":114942,"SoundDuration":114942,"Delta":115129770},{"NoteNumber":90,"Velocity":53,"Duration":114942,"SoundDuration":114942,"Delta":115244713},{"NoteNumber":64,"Velocity":35,"Duration":114942,"SoundDuration":114942,"Delta":115244713},{"NoteNumber":88,"Velocity":48,"Duration":116279,"SoundDuration":116279,"Delta":115359655},{"NoteNumber":83,"Velocity":56,"Duration":115013,"SoundDuration":115013,"Delta":115475934},{"NoteNumber":57,"Velocity":39,"Duration":115013,"SoundDuration":115013,"Delta":115475934},{"NoteNumber":88,"Velocity":46,"Duration":114068,"SoundDuration":114068,"Delta":115590947},{"NoteNumber":90,"Velocity":52,"Duration":114068,"SoundDuration":114068,"Delta":115705016},{"NoteNumber":68,"Velocity":49,"Duration":114068,"SoundDuration":114068,"Delta":115705016},{"NoteNumber":88,"Velocity":48,"Duration":115473,"SoundDuration":115473,"Delta":115819084},{"NoteNumber":85,"Velocity":56,"Duration":115013,"SoundDuration":115013,"Delta":115934558},{"NoteNumber":69,"Velocity":52,"Duration":115013,"SoundDuration":115013,"Delta":115934558},{"NoteNumber":88,"Velocity":46,"Duration":114068,"SoundDuration":114068,"Delta":116049571},{"NoteNumber":90,"Velocity":53,"Duration":114068,"SoundDuration":114068,"Delta":116163639},{"NoteNumber":64,"Velocity":35,"Duration":114068,"SoundDuration":114068,"Delta":116163639},{"NoteNumber":88,"Velocity":48,"Duration":117187,"SoundDuration":117187,"Delta":116277708},{"NoteNumber":69,"Velocity":56,"Duration":115013,"SoundDuration":115013,"Delta":116394895},{"NoteNumber":57,"Velocity":39,"Duration":115013,"SoundDuration":115013,"Delta":116394895},{"NoteNumber":76,"Velocity":46,"Duration":112807,"SoundDuration":112807,"Delta":116509908},{"NoteNumber":78,"Velocity":52,"Duration":112807,"SoundDuration":112807,"Delta":116622716},{"NoteNumber":61,"Velocity":49,"Duration":112807,"SoundDuration":112807,"Delta":116622716},{"NoteNumber":76,"Velocity":48,"Duration":115473,"SoundDuration":115473,"Delta":116735523},{"NoteNumber":68,"Velocity":56,"Duration":115013,"SoundDuration":115013,"Delta":116850997},{"NoteNumber":62,"Velocity":52,"Duration":115013,"SoundDuration":115013,"Delta":116850997},{"NoteNumber":76,"Velocity":46,"Duration":113250,"SoundDuration":113250,"Delta":116966010},{"NoteNumber":78,"Velocity":53,"Duration":113250,"SoundDuration":113250,"Delta":117079260},{"NoteNumber":52,"Velocity":35,"Duration":113250,"SoundDuration":113250,"Delta":117079260},{"NoteNumber":76,"Velocity":48,"Duration":115473,"SoundDuration":115473,"Delta":117192510},{"NoteNumber":71,"Velocity":56,"Duration":115013,"SoundDuration":115013,"Delta":117307984},{"NoteNumber":45,"Velocity":39,"Duration":115013,"SoundDuration":115013,"Delta":117307984},{"NoteNumber":76,"Velocity":46,"Duration":113636,"SoundDuration":113636,"Delta":117422997},{"NoteNumber":78,"Velocity":52,"Duration":113636,"SoundDuration":113636,"Delta":117536633},{"NoteNumber":56,"Velocity":49,"Duration":113636,"SoundDuration":113636,"Delta":117536633},{"NoteNumber":76,"Velocity":48,"Duration":115473,"SoundDuration":115473,"Delta":117650269},{"NoteNumber":73,"Velocity":56,"Duration":115013,"SoundDuration":115013,"Delta":117765743},{"NoteNumber":57,"Velocity":52,"Duration":115013,"SoundDuration":115013,"Delta":117765743},{"NoteNumber":76,"Velocity":46,"Duration":113250,"SoundDuration":113250,"Delta":117880756},{"NoteNumber":78,"Velocity":53,"Duration":113250,"SoundDuration":113250,"Delta":117994006},{"NoteNumber":61,"Velocity":35,"Duration":113250,"SoundDuration":113250,"Delta":117994006},{"NoteNumber":76,"Velocity":48,"Duration":115473,"SoundDuration":115473,"Delta":118107256},{"NoteNumber":66,"Velocity":70,"Duration":460512,"SoundDuration":460512,"Delta":118222730},{"NoteNumber":69,"Velocity":58,"Duration":134181,"SoundDuration":134181,"Delta":118222730},{"NoteNumber":73,"Velocity":48,"Duration":134181,"SoundDuration":134181,"Delta":118337743},{"NoteNumber":74,"Velocity":55,"Duration":134258,"SoundDuration":134258,"Delta":118452756},{"NoteNumber":73,"Velocity":50,"Duration":115473,"SoundDuration":115473,"Delta":118567769},{"NoteNumber":65,"Velocity":64,"Duration":113250,"SoundDuration":113250,"Delta":118683242},{"NoteNumber":69,"Velocity":48,"Duration":132495,"SoundDuration":132495,"Delta":118796492},{"NoteNumber":64,"Velocity":62,"Duration":115473,"SoundDuration":115473,"Delta":118909743},{"NoteNumber":73,"Velocity":56,"Duration":134719,"SoundDuration":134719,"Delta":118909743},{"NoteNumber":69,"Velocity":50,"Duration":115473,"SoundDuration":115473,"Delta":119025216},{"NoteNumber":62,"Velocity":64,"Duration":115473,"SoundDuration":115473,"Delta":119140690},{"NoteNumber":64,"Velocity":48,"Duration":134719,"SoundDuration":134719,"Delta":119256163},{"NoteNumber":69,"Velocity":48,"Duration":134719,"SoundDuration":134719,"Delta":119371637},{"NoteNumber":61,"Velocity":61,"Duration":115473,"SoundDuration":115473,"Delta":119371637},{"NoteNumber":64,"Velocity":50,"Duration":115473,"SoundDuration":115473,"Delta":119487110},{"NoteNumber":61,"Velocity":58,"Duration":115473,"SoundDuration":115473,"Delta":119602584},{"NoteNumber":45,"Velocity":63,"Duration":115473,"SoundDuration":115473,"Delta":119602584},{"NoteNumber":64,"Velocity":48,"Duration":134719,"SoundDuration":134719,"Delta":119718057},{"NoteNumber":66,"Velocity":55,"Duration":134719,"SoundDuration":134719,"Delta":119833531},{"NoteNumber":49,"Velocity":58,"Duration":115473,"SoundDuration":115473,"Delta":119833531},{"NoteNumber":64,"Velocity":50,"Duration":115473,"SoundDuration":115473,"Delta":119949004},{"NoteNumber":54,"Velocity":64,"Duration":460512,"SoundDuration":460512,"Delta":120064478},{"NoteNumber":57,"Velocity":58,"Duration":115013,"SoundDuration":115013,"Delta":120064478},{"NoteNumber":61,"Velocity":48,"Duration":134181,"SoundDuration":134181,"Delta":120179491},{"NoteNumber":62,"Velocity":55,"Duration":134258,"SoundDuration":134258,"Delta":120294504},{"NoteNumber":61,"Velocity":50,"Duration":115473,"SoundDuration":115473,"Delta":120409517},{"NoteNumber":53,"Velocity":59,"Duration":113250,"SoundDuration":113250,"Delta":120524990},{"NoteNumber":57,"Velocity":48,"Duration":132495,"SoundDuration":132495,"Delta":120638240},{"NoteNumber":52,"Velocity":57,"Duration":115473,"SoundDuration":115473,"Delta":120751491},{"NoteNumber":61,"Velocity":56,"Duration":134719,"SoundDuration":134719,"Delta":120751491},{"NoteNumber":57,"Velocity":50,"Duration":115473,"SoundDuration":115473,"Delta":120866964},{"NoteNumber":50,"Velocity":59,"Duration":115473,"SoundDuration":115473,"Delta":120982438},{"NoteNumber":52,"Velocity":48,"Duration":134719,"SoundDuration":134719,"Delta":121097911},{"NoteNumber":57,"Velocity":48,"Duration":134719,"SoundDuration":134719,"Delta":121213385},{"NoteNumber":49,"Velocity":56,"Duration":115473,"SoundDuration":115473,"Delta":121213385},{"NoteNumber":52,"Velocity":50,"Duration":115473,"SoundDuration":115473,"Delta":121328858},{"NoteNumber":47,"Velocity":59,"Duration":115473,"SoundDuration":115473,"Delta":121444332},{"NoteNumber":49,"Velocity":48,"Duration":134719,"SoundDuration":134719,"Delta":121559805},{"NoteNumber":45,"Velocity":56,"Duration":115473,"SoundDuration":115473,"Delta":121675279},{"NoteNumber":52,"Velocity":55,"Duration":134719,"SoundDuration":134719,"Delta":121675279},{"NoteNumber":49,"Velocity":50,"Duration":115473,"SoundDuration":115473,"Delta":121790752},{"NoteNumber":44,"Velocity":59,"Duration":114129,"SoundDuration":114129,"Delta":121906226},{"NoteNumber":49,"Velocity":48,"Duration":133150,"SoundDuration":133150,"Delta":122020355},{"NoteNumber":52,"Velocity":48,"Duration":133150,"SoundDuration":133150,"Delta":122134484},{"NoteNumber":45,"Velocity":56,"Duration":114129,"SoundDuration":114129,"Delta":122134484},{"NoteNumber":49,"Velocity":51,"Duration":114129,"SoundDuration":114129,"Delta":122248613},{"NoteNumber":47,"Velocity":61,"Duration":114129,"SoundDuration":114129,"Delta":122362743},{"NoteNumber":49,"Velocity":49,"Duration":133150,"SoundDuration":133150,"Delta":122476872},{"NoteNumber":45,"Velocity":58,"Duration":114129,"SoundDuration":114129,"Delta":122591001},{"NoteNumber":52,"Velocity":57,"Duration":133150,"SoundDuration":133150,"Delta":122591001},{"NoteNumber":49,"Velocity":52,"Duration":114129,"SoundDuration":114129,"Delta":122705130},{"NoteNumber":44,"Velocity":63,"Duration":114129,"SoundDuration":114129,"Delta":122819260},{"NoteNumber":49,"Velocity":51,"Duration":133150,"SoundDuration":133150,"Delta":122933389},{"NoteNumber":52,"Velocity":51,"Duration":133150,"SoundDuration":133150,"Delta":123047518},{"NoteNumber":45,"Velocity":60,"Duration":114129,"SoundDuration":114129,"Delta":123047518},{"NoteNumber":49,"Velocity":55,"Duration":114129,"SoundDuration":114129,"Delta":123161647},{"NoteNumber":47,"Velocity":66,"Duration":114129,"SoundDuration":114129,"Delta":123275777},{"NoteNumber":49,"Velocity":53,"Duration":133150,"SoundDuration":133150,"Delta":123389906},{"NoteNumber":45,"Velocity":62,"Duration":114129,"SoundDuration":114129,"Delta":123504035},{"NoteNumber":52,"Velocity":61,"Duration":133150,"SoundDuration":133150,"Delta":123504035},{"NoteNumber":49,"Velocity":57,"Duration":114129,"SoundDuration":114129,"Delta":123618164},{"NoteNumber":44,"Velocity":68,"Duration":131086,"SoundDuration":131086,"Delta":123732294},{"NoteNumber":45,"Velocity":57,"Duration":131086,"SoundDuration":131086,"Delta":123844653},{"NoteNumber":48,"Velocity":63,"Duration":131086,"SoundDuration":131086,"Delta":123957013},{"NoteNumber":49,"Velocity":57,"Duration":112359,"SoundDuration":112359,"Delta":124069372},{"NoteNumber":51,"Velocity":69,"Duration":131086,"SoundDuration":131086,"Delta":124181732},{"NoteNumber":52,"Velocity":61,"Duration":131086,"SoundDuration":131086,"Delta":124294091},{"NoteNumber":56,"Velocity":66,"Duration":132122,"SoundDuration":132122,"Delta":124406451},{"NoteNumber":57,"Velocity":59,"Duration":118577,"SoundDuration":118577,"Delta":124518810},{"NoteNumber":56,"Velocity":71,"Duration":129151,"SoundDuration":129151,"Delta":124637387},{"NoteNumber":57,"Velocity":61,"Duration":129151,"SoundDuration":129151,"Delta":124748088},{"NoteNumber":60,"Velocity":66,"Duration":129151,"SoundDuration":129151,"Delta":124858789},{"NoteNumber":61,"Velocity":59,"Duration":110700,"SoundDuration":110700,"Delta":124969490},{"NoteNumber":63,"Velocity":72,"Duration":129151,"SoundDuration":129151,"Delta":125080191},{"NoteNumber":64,"Velocity":63,"Duration":129151,"SoundDuration":129151,"Delta":125190892},{"NoteNumber":68,"Velocity":69,"Duration":129858,"SoundDuration":129858,"Delta":125301593},{"NoteNumber":69,"Velocity":64,"Duration":114942,"SoundDuration":114942,"Delta":125412294},{"NoteNumber":68,"Velocity":74,"Duration":127272,"SoundDuration":127272,"Delta":125527237},{"NoteNumber":69,"Velocity":63,"Duration":127272,"SoundDuration":127272,"Delta":125636328},{"NoteNumber":72,"Velocity":71,"Duration":127272,"SoundDuration":127272,"Delta":125745419},{"NoteNumber":73,"Velocity":63,"Duration":109090,"SoundDuration":109090,"Delta":125854510},{"NoteNumber":75,"Velocity":75,"Duration":127272,"SoundDuration":127272,"Delta":125963601},{"NoteNumber":76,"Velocity":64,"Duration":127272,"SoundDuration":127272,"Delta":126072692},{"NoteNumber":80,"Velocity":72,"Duration":127958,"SoundDuration":127958,"Delta":126181783},{"NoteNumber":81,"Velocity":64,"Duration":113207,"SoundDuration":113207,"Delta":126290874},{"NoteNumber":80,"Velocity":78,"Duration":126353,"SoundDuration":126353,"Delta":126404081},{"NoteNumber":81,"Velocity":67,"Duration":126353,"SoundDuration":126353,"Delta":126512384},{"NoteNumber":84,"Velocity":74,"Duration":126353,"SoundDuration":126353,"Delta":126620688},{"NoteNumber":85,"Velocity":67,"Duration":108303,"SoundDuration":108303,"Delta":126728991},{"NoteNumber":87,"Velocity":79,"Duration":126615,"SoundDuration":126615,"Delta":126837294},{"NoteNumber":88,"Velocity":71,"Duration":127872,"SoundDuration":127872,"Delta":126945728},{"NoteNumber":92,"Velocity":77,"Duration":235702,"SoundDuration":235702,"Delta":127055218},{"NoteNumber":93,"Velocity":72,"Duration":750000,"SoundDuration":750000,"Delta":127165920},{"NoteNumber":78,"Velocity":79,"Duration":228053,"SoundDuration":228053,"Delta":127916874},{"NoteNumber":74,"Velocity":79,"Duration":228053,"SoundDuration":228053,"Delta":127916874},{"NoteNumber":81,"Velocity":88,"Duration":457060,"SoundDuration":457060,"Delta":127916874},{"NoteNumber":50,"Velocity":64,"Duration":457060,"SoundDuration":457060,"Delta":127916874},{"NoteNumber":54,"Velocity":64,"Duration":457060,"SoundDuration":457060,"Delta":127916874},{"NoteNumber":57,"Velocity":74,"Duration":228053,"SoundDuration":228053,"Delta":127916874},{"NoteNumber":69,"Velocity":74,"Duration":229007,"SoundDuration":229007,"Delta":128144928},{"NoteNumber":62,"Velocity":60,"Duration":229007,"SoundDuration":229007,"Delta":128144928},{"NoteNumber":76,"Velocity":84,"Duration":458014,"SoundDuration":458014,"Delta":128373935},{"NoteNumber":70,"Velocity":75,"Duration":229007,"SoundDuration":229007,"Delta":128373935},{"NoteNumber":74,"Velocity":75,"Duration":229007,"SoundDuration":229007,"Delta":128373935},{"NoteNumber":58,"Velocity":71,"Duration":229007,"SoundDuration":229007,"Delta":128373935},{"NoteNumber":55,"Velocity":62,"Duration":458014,"SoundDuration":458014,"Delta":128373935},{"NoteNumber":50,"Velocity":62,"Duration":458014,"SoundDuration":458014,"Delta":128373935},{"NoteNumber":64,"Velocity":69,"Duration":229007,"SoundDuration":229007,"Delta":128602943},{"NoteNumber":62,"Velocity":53,"Duration":229007,"SoundDuration":229007,"Delta":128602943},{"NoteNumber":81,"Velocity":88,"Duration":447761,"SoundDuration":447761,"Delta":128831950},{"NoteNumber":74,"Velocity":79,"Duration":223880,"SoundDuration":223880,"Delta":128831950},{"NoteNumber":78,"Velocity":79,"Duration":223880,"SoundDuration":223880,"Delta":128831950},{"NoteNumber":57,"Velocity":74,"Duration":223880,"SoundDuration":223880,"Delta":128831950},{"NoteNumber":54,"Velocity":64,"Duration":447761,"SoundDuration":447761,"Delta":128831950},{"NoteNumber":50,"Velocity":64,"Duration":447761,"SoundDuration":447761,"Delta":128831950},{"NoteNumber":69,"Velocity":74,"Duration":223880,"SoundDuration":223880,"Delta":129055831},{"NoteNumber":62,"Velocity":59,"Duration":223880,"SoundDuration":223880,"Delta":129055831},{"NoteNumber":76,"Velocity":84,"Duration":442803,"SoundDuration":442803,"Delta":129279711},{"NoteNumber":70,"Velocity":75,"Duration":221402,"SoundDuration":221402,"Delta":129279711},{"NoteNumber":74,"Velocity":75,"Duration":221402,"SoundDuration":221402,"Delta":129279711},{"NoteNumber":58,"Velocity":71,"Duration":221402,"SoundDuration":221402,"Delta":129279711},{"NoteNumber":55,"Velocity":62,"Duration":442803,"SoundDuration":442803,"Delta":129279711},{"NoteNumber":50,"Velocity":62,"Duration":442803,"SoundDuration":442803,"Delta":129279711},{"NoteNumber":64,"Velocity":74,"Duration":221401,"SoundDuration":221401,"Delta":129501113},{"NoteNumber":62,"Velocity":55,"Duration":221401,"SoundDuration":221401,"Delta":129501113},{"NoteNumber":74,"Velocity":72,"Duration":52816,"SoundDuration":52816,"Delta":129722515},{"NoteNumber":60,"Velocity":63,"Duration":849829,"SoundDuration":849829,"Delta":129722515},{"NoteNumber":62,"Velocity":63,"Duration":849829,"SoundDuration":849829,"Delta":129722515},{"NoteNumber":69,"Velocity":70,"Duration":849829,"SoundDuration":849829,"Delta":129722515},{"NoteNumber":66,"Velocity":70,"Duration":849829,"SoundDuration":849829,"Delta":129722515},{"NoteNumber":76,"Velocity":62,"Duration":52816,"SoundDuration":52816,"Delta":129828149},{"NoteNumber":74,"Velocity":69,"Duration":52816,"SoundDuration":52816,"Delta":129933783},{"NoteNumber":76,"Velocity":63,"Duration":53003,"SoundDuration":53003,"Delta":130039416},{"NoteNumber":78,"Velocity":72,"Duration":106761,"SoundDuration":106761,"Delta":130145299},{"NoteNumber":78,"Velocity":68,"Duration":106761,"SoundDuration":106761,"Delta":130358822},{"NoteNumber":74,"Velocity":66,"Duration":427431,"SoundDuration":427431,"Delta":130572345},{"NoteNumber":67,"Velocity":66,"Duration":427431,"SoundDuration":427431,"Delta":130572345},{"NoteNumber":76,"Velocity":73,"Duration":214286,"SoundDuration":214286,"Delta":130572345},{"NoteNumber":58,"Velocity":70,"Duration":53699,"SoundDuration":53699,"Delta":130572345},{"NoteNumber":57,"Velocity":61,"Duration":53571,"SoundDuration":53571,"Delta":130679616},{"NoteNumber":79,"Velocity":69,"Duration":213144,"SoundDuration":213144,"Delta":130786632},{"NoteNumber":55,"Velocity":67,"Duration":53380,"SoundDuration":53380,"Delta":130786632},{"NoteNumber":54,"Velocity":61,"Duration":53191,"SoundDuration":53191,"Delta":130893393},{"NoteNumber":73,"Velocity":64,"Duration":211267,"SoundDuration":211267,"Delta":130999776},{"NoteNumber":76,"Velocity":72,"Duration":445642,"SoundDuration":445642,"Delta":130999776},{"NoteNumber":52,"Velocity":72,"Duration":211267,"SoundDuration":211267,"Delta":130999776},{"NoteNumber":69,"Velocity":68,"Duration":234375,"SoundDuration":234375,"Delta":131211044},{"NoteNumber":57,"Velocity":66,"Duration":234375,"SoundDuration":234375,"Delta":131211044},{"NoteNumber":81,"Velocity":88,"Duration":458014,"SoundDuration":458014,"Delta":131445419},{"NoteNumber":74,"Velocity":79,"Duration":229007,"SoundDuration":229007,"Delta":131445419},{"NoteNumber":78,"Velocity":79,"Duration":229007,"SoundDuration":229007,"Delta":131445419},{"NoteNumber":57,"Velocity":74,"Duration":229007,"SoundDuration":229007,"Delta":131445419},{"NoteNumber":54,"Velocity":64,"Duration":458014,"SoundDuration":458014,"Delta":131445419},{"NoteNumber":50,"Velocity":64,"Duration":458014,"SoundDuration":458014,"Delta":131445419},{"NoteNumber":69,"Velocity":74,"Duration":229007,"SoundDuration":229007,"Delta":131674426},{"NoteNumber":62,"Velocity":60,"Duration":229007,"SoundDuration":229007,"Delta":131674426},{"NoteNumber":76,"Velocity":84,"Duration":458015,"SoundDuration":458015,"Delta":131903434},{"NoteNumber":70,"Velocity":75,"Duration":229007,"SoundDuration":229007,"Delta":131903434},{"NoteNumber":74,"Velocity":75,"Duration":229007,"SoundDuration":229007,"Delta":131903434},{"NoteNumber":58,"Velocity":71,"Duration":229007,"SoundDuration":229007,"Delta":131903434},{"NoteNumber":55,"Velocity":62,"Duration":458015,"SoundDuration":458015,"Delta":131903434},{"NoteNumber":50,"Velocity":62,"Duration":458015,"SoundDuration":458015,"Delta":131903434},{"NoteNumber":64,"Velocity":70,"Duration":229007,"SoundDuration":229007,"Delta":132132441},{"NoteNumber":62,"Velocity":56,"Duration":229007,"SoundDuration":229007,"Delta":132132441},{"NoteNumber":81,"Velocity":88,"Duration":442803,"SoundDuration":442803,"Delta":132361449},{"NoteNumber":74,"Velocity":79,"Duration":221402,"SoundDuration":221402,"Delta":132361449},{"NoteNumber":78,"Velocity":79,"Duration":221402,"SoundDuration":221402,"Delta":132361449},{"NoteNumber":57,"Velocity":74,"Duration":221402,"SoundDuration":221402,"Delta":132361449},{"NoteNumber":54,"Velocity":64,"Duration":442803,"SoundDuration":442803,"Delta":132361449},{"NoteNumber":50,"Velocity":64,"Duration":442803,"SoundDuration":442803,"Delta":132361449},{"NoteNumber":69,"Velocity":74,"Duration":221401,"SoundDuration":221401,"Delta":132582851},{"NoteNumber":62,"Velocity":60,"Duration":221401,"SoundDuration":221401,"Delta":132582851},{"NoteNumber":76,"Velocity":84,"Duration":442803,"SoundDuration":442803,"Delta":132804253},{"NoteNumber":70,"Velocity":75,"Duration":221402,"SoundDuration":221402,"Delta":132804253},{"NoteNumber":74,"Velocity":75,"Duration":221402,"SoundDuration":221402,"Delta":132804253},{"NoteNumber":58,"Velocity":71,"Duration":221402,"SoundDuration":221402,"Delta":132804253},{"NoteNumber":55,"Velocity":62,"Duration":442803,"SoundDuration":442803,"Delta":132804253},{"NoteNumber":50,"Velocity":62,"Duration":442803,"SoundDuration":442803,"Delta":132804253},{"NoteNumber":64,"Velocity":71,"Duration":221401,"SoundDuration":221401,"Delta":133025655},{"NoteNumber":62,"Velocity":55,"Duration":221401,"SoundDuration":221401,"Delta":133025655},{"NoteNumber":74,"Velocity":77,"Duration":53571,"SoundDuration":53571,"Delta":133247057},{"NoteNumber":60,"Velocity":63,"Duration":857142,"SoundDuration":857142,"Delta":133247057},{"NoteNumber":62,"Velocity":63,"Duration":857142,"SoundDuration":857142,"Delta":133247057},{"NoteNumber":69,"Velocity":70,"Duration":857142,"SoundDuration":857142,"Delta":133247057},{"NoteNumber":66,"Velocity":70,"Duration":857142,"SoundDuration":857142,"Delta":133247057},{"NoteNumber":76,"Velocity":72,"Duration":53571,"SoundDuration":53571,"Delta":133354199},{"NoteNumber":74,"Velocity":77,"Duration":53571,"SoundDuration":53571,"Delta":133461342},{"NoteNumber":76,"Velocity":71,"Duration":53571,"SoundDuration":53571,"Delta":133568485},{"NoteNumber":78,"Velocity":80,"Duration":107142,"SoundDuration":107142,"Delta":133675628},{"NoteNumber":78,"Velocity":72,"Duration":107142,"SoundDuration":107142,"Delta":133889913},{"NoteNumber":74,"Velocity":80,"Duration":53571,"SoundDuration":53571,"Delta":134104199},{"NoteNumber":76,"Velocity":80,"Duration":53571,"SoundDuration":53571,"Delta":134104199},{"NoteNumber":62,"Velocity":60,"Duration":53571,"SoundDuration":53571,"Delta":134104199},{"NoteNumber":58,"Velocity":60,"Duration":53571,"SoundDuration":53571,"Delta":134104199},{"NoteNumber":78,"Velocity":81,"Duration":53380,"SoundDuration":53380,"Delta":134211341},{"NoteNumber":79,"Velocity":83,"Duration":53191,"SoundDuration":53191,"Delta":134318103},{"NoteNumber":58,"Velocity":66,"Duration":53191,"SoundDuration":53191,"Delta":134318103},{"NoteNumber":81,"Velocity":85,"Duration":53003,"SoundDuration":53003,"Delta":134424486},{"NoteNumber":57,"Velocity":68,"Duration":53003,"SoundDuration":53003,"Delta":134424486},{"NoteNumber":82,"Velocity":86,"Duration":223048,"SoundDuration":223048,"Delta":134530493},{"NoteNumber":55,"Velocity":71,"Duration":223048,"SoundDuration":223048,"Delta":134530493},{"NoteNumber":43,"Velocity":41,"Duration":429735,"SoundDuration":429735,"Delta":134976590},{"NoteNumber":51,"Velocity":41,"Duration":429735,"SoundDuration":429735,"Delta":134976590},{"NoteNumber":61,"Velocity":42,"Duration":104166,"SoundDuration":104166,"Delta":135080757},{"NoteNumber":63,"Velocity":42,"Duration":104166,"SoundDuration":104166,"Delta":135080757},{"NoteNumber":58,"Velocity":37,"Duration":221402,"SoundDuration":221402,"Delta":135184923},{"NoteNumber":61,"Velocity":42,"Duration":110701,"SoundDuration":110701,"Delta":135295624},{"NoteNumber":63,"Velocity":42,"Duration":110701,"SoundDuration":110701,"Delta":135295624},{"NoteNumber":60,"Velocity":47,"Duration":434783,"SoundDuration":434783,"Delta":135406325},{"NoteNumber":56,"Velocity":43,"Duration":434783,"SoundDuration":434783,"Delta":135406325},{"NoteNumber":72,"Velocity":42,"Duration":217391,"SoundDuration":217391,"Delta":135623717},{"NoteNumber":63,"Velocity":42,"Duration":217391,"SoundDuration":217391,"Delta":135623717},{"NoteNumber":44,"Velocity":37,"Duration":217391,"SoundDuration":217391,"Delta":135623717},{"NoteNumber":51,"Velocity":37,"Duration":217391,"SoundDuration":217391,"Delta":135623717},{"NoteNumber":45,"Velocity":44,"Duration":430461,"SoundDuration":430461,"Delta":135841108},{"NoteNumber":53,"Velocity":44,"Duration":430461,"SoundDuration":430461,"Delta":135841108},{"NoteNumber":63,"Velocity":46,"Duration":104529,"SoundDuration":104529,"Delta":135945638},{"NoteNumber":65,"Velocity":46,"Duration":104529,"SoundDuration":104529,"Delta":135945638},{"NoteNumber":60,"Velocity":40,"Duration":221402,"SoundDuration":221402,"Delta":136050167},{"NoteNumber":63,"Velocity":46,"Duration":110701,"SoundDuration":110701,"Delta":136160868},{"NoteNumber":65,"Velocity":46,"Duration":110701,"SoundDuration":110701,"Delta":136160868},{"NoteNumber":62,"Velocity":52,"Duration":434783,"SoundDuration":434783,"Delta":136271569},{"NoteNumber":58,"Velocity":48,"Duration":434783,"SoundDuration":434783,"Delta":136271569},{"NoteNumber":74,"Velocity":47,"Duration":217391,"SoundDuration":217391,"Delta":136488961},{"NoteNumber":65,"Velocity":41,"Duration":217391,"SoundDuration":217391,"Delta":136488961},{"NoteNumber":46,"Velocity":40,"Duration":217391,"SoundDuration":217391,"Delta":136488961},{"NoteNumber":53,"Velocity":40,"Duration":217391,"SoundDuration":217391,"Delta":136488961},{"NoteNumber":62,"Velocity":49,"Duration":440380,"SoundDuration":440380,"Delta":136706352},{"NoteNumber":47,"Velocity":45,"Duration":218977,"SoundDuration":218977,"Delta":136706352},{"NoteNumber":55,"Velocity":45,"Duration":440380,"SoundDuration":440380,"Delta":136706352},{"NoteNumber":67,"Velocity":38,"Duration":221402,"SoundDuration":221402,"Delta":136925330},{"NoteNumber":74,"Velocity":41,"Duration":221402,"SoundDuration":221402,"Delta":136925330},{"NoteNumber":65,"Velocity":38,"Duration":221402,"SoundDuration":221402,"Delta":136925330},{"NoteNumber":59,"Velocity":38,"Duration":221402,"SoundDuration":221402,"Delta":136925330},{"NoteNumber":63,"Velocity":50,"Duration":437171,"SoundDuration":437171,"Delta":137146732},{"NoteNumber":48,"Velocity":47,"Duration":217391,"SoundDuration":217391,"Delta":137146732},{"NoteNumber":55,"Velocity":47,"Duration":437171,"SoundDuration":437171,"Delta":137146732},{"NoteNumber":75,"Velocity":43,"Duration":219779,"SoundDuration":219779,"Delta":137364124},{"NoteNumber":67,"Velocity":38,"Duration":219779,"SoundDuration":219779,"Delta":137364124},{"NoteNumber":60,"Velocity":39,"Duration":219779,"SoundDuration":219779,"Delta":137364124},{"NoteNumber":65,"Velocity":54,"Duration":435584,"SoundDuration":435584,"Delta":137583904},{"NoteNumber":50,"Velocity":49,"Duration":216606,"SoundDuration":216606,"Delta":137583904},{"NoteNumber":55,"Velocity":49,"Duration":435584,"SoundDuration":435584,"Delta":137583904},{"NoteNumber":71,"Velocity":38,"Duration":218977,"SoundDuration":218977,"Delta":137800510},{"NoteNumber":79,"Velocity":43,"Duration":218977,"SoundDuration":218977,"Delta":137800510},{"NoteNumber":62,"Velocity":41,"Duration":218977,"SoundDuration":218977,"Delta":137800510},{"NoteNumber":63,"Velocity":53,"Duration":434783,"SoundDuration":434783,"Delta":138019488},{"NoteNumber":48,"Velocity":47,"Duration":217391,"SoundDuration":217391,"Delta":138019488},{"NoteNumber":55,"Velocity":47,"Duration":434783,"SoundDuration":434783,"Delta":138019488},{"NoteNumber":75,"Velocity":45,"Duration":217391,"SoundDuration":217391,"Delta":138236880},{"NoteNumber":67,"Velocity":40,"Duration":217391,"SoundDuration":217391,"Delta":138236880},{"NoteNumber":60,"Velocity":40,"Duration":217391,"SoundDuration":217391,"Delta":138236880},{"NoteNumber":47,"Velocity":46,"Duration":429014,"SoundDuration":429014,"Delta":138454271},{"NoteNumber":55,"Velocity":46,"Duration":429014,"SoundDuration":429014,"Delta":138454271},{"NoteNumber":65,"Velocity":47,"Duration":103806,"SoundDuration":103806,"Delta":138558078},{"NoteNumber":67,"Velocity":47,"Duration":103806,"SoundDuration":103806,"Delta":138558078},{"NoteNumber":62,"Velocity":42,"Duration":221402,"SoundDuration":221402,"Delta":138661884},{"NoteNumber":65,"Velocity":48,"Duration":110701,"SoundDuration":110701,"Delta":138772585},{"NoteNumber":67,"Velocity":48,"Duration":110701,"SoundDuration":110701,"Delta":138772585},{"NoteNumber":64,"Velocity":53,"Duration":434783,"SoundDuration":434783,"Delta":138883286},{"NoteNumber":60,"Velocity":51,"Duration":434783,"SoundDuration":434783,"Delta":138883286},{"NoteNumber":76,"Velocity":48,"Duration":217391,"SoundDuration":217391,"Delta":139100677},{"NoteNumber":67,"Velocity":43,"Duration":217391,"SoundDuration":217391,"Delta":139100677},{"NoteNumber":48,"Velocity":42,"Duration":217391,"SoundDuration":217391,"Delta":139100677},{"NoteNumber":55,"Velocity":42,"Duration":217391,"SoundDuration":217391,"Delta":139100677},{"NoteNumber":49,"Velocity":52,"Duration":429735,"SoundDuration":429735,"Delta":139318069},{"NoteNumber":57,"Velocity":52,"Duration":429735,"SoundDuration":429735,"Delta":139318069},{"NoteNumber":67,"Velocity":53,"Duration":104166,"SoundDuration":104166,"Delta":139422236},{"NoteNumber":69,"Velocity":53,"Duration":104166,"SoundDuration":104166,"Delta":139422236},{"NoteNumber":64,"Velocity":46,"Duration":221402,"SoundDuration":221402,"Delta":139526402},{"NoteNumber":67,"Velocity":53,"Duration":110701,"SoundDuration":110701,"Delta":139637103},{"NoteNumber":69,"Velocity":53,"Duration":110701,"SoundDuration":110701,"Delta":139637103},{"NoteNumber":65,"Velocity":58,"Duration":434783,"SoundDuration":434783,"Delta":139747804},{"NoteNumber":62,"Velocity":54,"Duration":434783,"SoundDuration":434783,"Delta":139747804},{"NoteNumber":77,"Velocity":53,"Duration":217391,"SoundDuration":217391,"Delta":139965196},{"NoteNumber":69,"Velocity":47,"Duration":217391,"SoundDuration":217391,"Delta":139965196},{"NoteNumber":50,"Velocity":47,"Duration":217391,"SoundDuration":217391,"Delta":139965196},{"NoteNumber":57,"Velocity":47,"Duration":217391,"SoundDuration":217391,"Delta":139965196},{"NoteNumber":64,"Velocity":58,"Duration":439584,"SoundDuration":439584,"Delta":140182587},{"NoteNumber":49,"Velocity":54,"Duration":218182,"SoundDuration":218182,"Delta":140182587},{"NoteNumber":57,"Velocity":54,"Duration":439584,"SoundDuration":439584,"Delta":140182587},{"NoteNumber":69,"Velocity":44,"Duration":221402,"SoundDuration":221402,"Delta":140400769},{"NoteNumber":76,"Velocity":49,"Duration":221402,"SoundDuration":221402,"Delta":140400769},{"NoteNumber":67,"Velocity":44,"Duration":221402,"SoundDuration":221402,"Delta":140400769},{"NoteNumber":61,"Velocity":46,"Duration":221402,"SoundDuration":221402,"Delta":140400769},{"NoteNumber":65,"Velocity":59,"Duration":434805,"SoundDuration":434805,"Delta":140622171},{"NoteNumber":50,"Velocity":56,"Duration":215827,"SoundDuration":215827,"Delta":140622171},{"NoteNumber":57,"Velocity":56,"Duration":434805,"SoundDuration":434805,"Delta":140622171},{"NoteNumber":77,"Velocity":52,"Duration":218977,"SoundDuration":218977,"Delta":140837999},{"NoteNumber":69,"Velocity":46,"Duration":218977,"SoundDuration":218977,"Delta":140837999},{"NoteNumber":62,"Velocity":47,"Duration":218977,"SoundDuration":218977,"Delta":140837999},{"NoteNumber":67,"Velocity":65,"Duration":434032,"SoundDuration":434032,"Delta":141056977},{"NoteNumber":52,"Velocity":57,"Duration":215054,"SoundDuration":215054,"Delta":141056977},{"NoteNumber":57,"Velocity":57,"Duration":434032,"SoundDuration":434032,"Delta":141056977},{"NoteNumber":73,"Velocity":46,"Duration":218977,"SoundDuration":218977,"Delta":141272031},{"NoteNumber":81,"Velocity":53,"Duration":218977,"SoundDuration":218977,"Delta":141272031},{"NoteNumber":64,"Velocity":49,"Duration":218977,"SoundDuration":218977,"Delta":141272031},{"NoteNumber":65,"Velocity":62,"Duration":434783,"SoundDuration":434783,"Delta":141491009},{"NoteNumber":50,"Velocity":56,"Duration":217391,"SoundDuration":217391,"Delta":141491009},{"NoteNumber":57,"Velocity":56,"Duration":434783,"SoundDuration":434783,"Delta":141491009},{"NoteNumber":77,"Velocity":55,"Duration":217391,"SoundDuration":217391,"Delta":141708400},{"NoteNumber":69,"Velocity":48,"Duration":217391,"SoundDuration":217391,"Delta":141708400},{"NoteNumber":62,"Velocity":48,"Duration":217391,"SoundDuration":217391,"Delta":141708400},{"NoteNumber":64,"Velocity":66,"Duration":435687,"SoundDuration":435687,"Delta":141925792},{"NoteNumber":49,"Velocity":58,"Duration":214285,"SoundDuration":214285,"Delta":141925792},{"NoteNumber":57,"Velocity":58,"Duration":435687,"SoundDuration":435687,"Delta":141925792},{"NoteNumber":69,"Velocity":50,"Duration":221402,"SoundDuration":221402,"Delta":142140077},{"NoteNumber":76,"Velocity":57,"Duration":221402,"SoundDuration":221402,"Delta":142140077},{"NoteNumber":67,"Velocity":50,"Duration":221402,"SoundDuration":221402,"Delta":142140077},{"NoteNumber":61,"Velocity":49,"Duration":221402,"SoundDuration":221402,"Delta":142140077},{"NoteNumber":65,"Velocity":66,"Duration":430157,"SoundDuration":430157,"Delta":142361479},{"NoteNumber":50,"Velocity":61,"Duration":212765,"SoundDuration":212765,"Delta":142361479},{"NoteNumber":57,"Velocity":61,"Duration":430157,"SoundDuration":430157,"Delta":142361479},{"NoteNumber":77,"Velocity":57,"Duration":217391,"SoundDuration":217391,"Delta":142574245},{"NoteNumber":69,"Velocity":50,"Duration":217391,"SoundDuration":217391,"Delta":142574245},{"NoteNumber":62,"Velocity":52,"Duration":217391,"SoundDuration":217391,"Delta":142574245},{"NoteNumber":69,"Velocity":70,"Duration":433263,"SoundDuration":433263,"Delta":142791637},{"NoteNumber":51,"Velocity":63,"Duration":214285,"SoundDuration":214285,"Delta":142791637},{"NoteNumber":59,"Velocity":63,"Duration":433263,"SoundDuration":433263,"Delta":142791637},{"NoteNumber":78,"Velocity":50,"Duration":218977,"SoundDuration":218977,"Delta":143005922},{"NoteNumber":83,"Velocity":57,"Duration":218977,"SoundDuration":218977,"Delta":143005922},{"NoteNumber":63,"Velocity":53,"Duration":218977,"SoundDuration":218977,"Delta":143005922},{"NoteNumber":67,"Velocity":67,"Duration":434783,"SoundDuration":434783,"Delta":143224900},{"NoteNumber":52,"Velocity":60,"Duration":217391,"SoundDuration":217391,"Delta":143224900},{"NoteNumber":59,"Velocity":60,"Duration":434783,"SoundDuration":434783,"Delta":143224900},{"NoteNumber":79,"Velocity":59,"Duration":217391,"SoundDuration":217391,"Delta":143442292},{"NoteNumber":71,"Velocity":53,"Duration":217391,"SoundDuration":217391,"Delta":143442292},{"NoteNumber":64,"Velocity":52,"Duration":217391,"SoundDuration":217391,"Delta":143442292},{"NoteNumber":66,"Velocity":71,"Duration":431743,"SoundDuration":431743,"Delta":143659683},{"NoteNumber":51,"Velocity":64,"Duration":212765,"SoundDuration":212765,"Delta":143659683},{"NoteNumber":59,"Velocity":64,"Duration":431743,"SoundDuration":431743,"Delta":143659683},{"NoteNumber":71,"Velocity":57,"Duration":218977,"SoundDuration":218977,"Delta":143872449},{"NoteNumber":78,"Velocity":64,"Duration":218977,"SoundDuration":218977,"Delta":143872449},{"NoteNumber":69,"Velocity":57,"Duration":218977,"SoundDuration":218977,"Delta":143872449},{"NoteNumber":63,"Velocity":54,"Duration":218977,"SoundDuration":218977,"Delta":143872449},{"NoteNumber":67,"Velocity":74,"Duration":427094,"SoundDuration":427094,"Delta":144091427},{"NoteNumber":52,"Velocity":66,"Duration":211267,"SoundDuration":211267,"Delta":144091427},{"NoteNumber":59,"Velocity":66,"Duration":427094,"SoundDuration":427094,"Delta":144091427},{"NoteNumber":79,"Velocity":64,"Duration":215827,"SoundDuration":215827,"Delta":144302695},{"NoteNumber":71,"Velocity":58,"Duration":215827,"SoundDuration":215827,"Delta":144302695},{"NoteNumber":64,"Velocity":56,"Duration":215827,"SoundDuration":215827,"Delta":144302695},{"NoteNumber":71,"Velocity":76,"Duration":430328,"SoundDuration":430328,"Delta":144518522},{"NoteNumber":53,"Velocity":67,"Duration":212014,"SoundDuration":212014,"Delta":144518522},{"NoteNumber":61,"Velocity":67,"Duration":430328,"SoundDuration":430328,"Delta":144518522},{"NoteNumber":80,"Velocity":58,"Duration":218314,"SoundDuration":218314,"Delta":144730536},{"NoteNumber":85,"Velocity":65,"Duration":218314,"SoundDuration":218314,"Delta":144730536},{"NoteNumber":65,"Velocity":57,"Duration":218314,"SoundDuration":218314,"Delta":144730536},{"NoteNumber":69,"Velocity":75,"Duration":430107,"SoundDuration":430107,"Delta":144948851},{"NoteNumber":54,"Velocity":65,"Duration":215054,"SoundDuration":215054,"Delta":144948851},{"NoteNumber":61,"Velocity":65,"Duration":430107,"SoundDuration":430107,"Delta":144948851},{"NoteNumber":81,"Velocity":67,"Duration":215053,"SoundDuration":215053,"Delta":145163905},{"NoteNumber":73,"Velocity":60,"Duration":215053,"SoundDuration":215053,"Delta":145163905},{"NoteNumber":66,"Velocity":56,"Duration":215053,"SoundDuration":215053,"Delta":145163905},{"NoteNumber":72,"Velocity":82,"Duration":429372,"SoundDuration":429372,"Delta":145378959},{"NoteNumber":54,"Velocity":72,"Duration":212765,"SoundDuration":212765,"Delta":145378959},{"NoteNumber":62,"Velocity":72,"Duration":429372,"SoundDuration":429372,"Delta":145378959},{"NoteNumber":81,"Velocity":60,"Duration":216606,"SoundDuration":216606,"Delta":145591725},{"NoteNumber":86,"Velocity":69,"Duration":216606,"SoundDuration":216606,"Delta":145591725},{"NoteNumber":66,"Velocity":60,"Duration":216606,"SoundDuration":216606,"Delta":145591725},{"NoteNumber":71,"Velocity":78,"Duration":431655,"SoundDuration":431655,"Delta":145808331},{"NoteNumber":55,"Velocity":70,"Duration":215827,"SoundDuration":215827,"Delta":145808331},{"NoteNumber":62,"Velocity":70,"Duration":431655,"SoundDuration":431655,"Delta":145808331},{"NoteNumber":83,"Velocity":72,"Duration":215827,"SoundDuration":215827,"Delta":146024159},{"NoteNumber":74,"Velocity":65,"Duration":215827,"SoundDuration":215827,"Delta":146024159},{"NoteNumber":67,"Velocity":60,"Duration":215827,"SoundDuration":215827,"Delta":146024159},{"NoteNumber":72,"Velocity":83,"Duration":428620,"SoundDuration":428620,"Delta":146239986},{"NoteNumber":54,"Velocity":73,"Duration":212014,"SoundDuration":212014,"Delta":146239986},{"NoteNumber":62,"Velocity":73,"Duration":428620,"SoundDuration":428620,"Delta":146239986},{"NoteNumber":81,"Velocity":61,"Duration":216606,"SoundDuration":216606,"Delta":146452000},{"NoteNumber":86,"Velocity":70,"Duration":216606,"SoundDuration":216606,"Delta":146452000},{"NoteNumber":66,"Velocity":61,"Duration":216606,"SoundDuration":216606,"Delta":146452000},{"NoteNumber":71,"Velocity":79,"Duration":434032,"SoundDuration":434032,"Delta":146668607},{"NoteNumber":55,"Velocity":71,"Duration":215054,"SoundDuration":215054,"Delta":146668607},{"NoteNumber":62,"Velocity":71,"Duration":434032,"SoundDuration":434032,"Delta":146668607},{"NoteNumber":83,"Velocity":70,"Duration":218977,"SoundDuration":218977,"Delta":146883661},{"NoteNumber":74,"Velocity":61,"Duration":218977,"SoundDuration":218977,"Delta":146883661},{"NoteNumber":67,"Velocity":60,"Duration":218977,"SoundDuration":218977,"Delta":146883661},{"NoteNumber":88,"Velocity":86,"Duration":51903,"SoundDuration":51903,"Delta":147102639},{"NoteNumber":67,"Velocity":69,"Duration":103806,"SoundDuration":103806,"Delta":147102639},{"NoteNumber":70,"Velocity":69,"Duration":103806,"SoundDuration":103806,"Delta":147102639},{"NoteNumber":74,"Velocity":77,"Duration":103806,"SoundDuration":103806,"Delta":147102639},{"NoteNumber":86,"Velocity":73,"Duration":51903,"SoundDuration":51903,"Delta":147206445},{"NoteNumber":82,"Velocity":80,"Duration":51903,"SoundDuration":51903,"Delta":147310251},{"NoteNumber":81,"Velocity":71,"Duration":51903,"SoundDuration":51903,"Delta":147414058},{"NoteNumber":79,"Velocity":77,"Duration":103806,"SoundDuration":103806,"Delta":147517864},{"NoteNumber":76,"Velocity":80,"Duration":51903,"SoundDuration":51903,"Delta":147517864},{"NoteNumber":74,"Velocity":71,"Duration":51903,"SoundDuration":51903,"Delta":147621670},{"NoteNumber":70,"Velocity":74,"Duration":51903,"SoundDuration":51903,"Delta":147725476},{"NoteNumber":69,"Velocity":71,"Duration":51784,"SoundDuration":51784,"Delta":147829283},{"NoteNumber":76,"Velocity":74,"Duration":51605,"SoundDuration":51605,"Delta":147932613},{"NoteNumber":67,"Velocity":82,"Duration":103329,"SoundDuration":103329,"Delta":147932613},{"NoteNumber":74,"Velocity":67,"Duration":51903,"SoundDuration":51903,"Delta":148035943},{"NoteNumber":70,"Velocity":72,"Duration":52143,"SoundDuration":52143,"Delta":148139869},{"NoteNumber":69,"Velocity":64,"Duration":52325,"SoundDuration":52325,"Delta":148244278},{"NoteNumber":67,"Velocity":75,"Duration":105386,"SoundDuration":105386,"Delta":148349051},{"NoteNumber":64,"Velocity":71,"Duration":52631,"SoundDuration":52631,"Delta":148349051},{"NoteNumber":62,"Velocity":60,"Duration":52879,"SoundDuration":52879,"Delta":148454438},{"NoteNumber":58,"Velocity":67,"Duration":53318,"SoundDuration":53318,"Delta":148560321},{"NoteNumber":57,"Velocity":61,"Duration":53571,"SoundDuration":53571,"Delta":148667210},{"NoteNumber":64,"Velocity":74,"Duration":52816,"SoundDuration":52816,"Delta":148774481},{"NoteNumber":55,"Velocity":74,"Duration":105633,"SoundDuration":105633,"Delta":148774481},{"NoteNumber":62,"Velocity":63,"Duration":52816,"SoundDuration":52816,"Delta":148880115},{"NoteNumber":58,"Velocity":70,"Duration":53003,"SoundDuration":53003,"Delta":148985873},{"NoteNumber":57,"Velocity":60,"Duration":53066,"SoundDuration":53066,"Delta":149091880},{"NoteNumber":55,"Velocity":75,"Duration":106509,"SoundDuration":106509,"Delta":149198137},{"NoteNumber":52,"Velocity":71,"Duration":53191,"SoundDuration":53191,"Delta":149198137},{"NoteNumber":50,"Velocity":62,"Duration":53380,"SoundDuration":53380,"Delta":149304647},{"NoteNumber":46,"Velocity":67,"Duration":53444,"SoundDuration":53444,"Delta":149411408},{"NoteNumber":45,"Velocity":61,"Duration":53571,"SoundDuration":53571,"Delta":149518424},{"NoteNumber":52,"Velocity":74,"Duration":52816,"SoundDuration":52816,"Delta":149625695},{"NoteNumber":43,"Velocity":71,"Duration":105633,"SoundDuration":105633,"Delta":149625695},{"NoteNumber":50,"Velocity":64,"Duration":52816,"SoundDuration":52816,"Delta":149731328},{"NoteNumber":46,"Velocity":70,"Duration":53003,"SoundDuration":53003,"Delta":149837087},{"NoteNumber":45,"Velocity":64,"Duration":53066,"SoundDuration":53066,"Delta":149943094},{"NoteNumber":43,"Velocity":75,"Duration":106509,"SoundDuration":106509,"Delta":150049351},{"NoteNumber":40,"Velocity":69,"Duration":53191,"SoundDuration":53191,"Delta":150049351},{"NoteNumber":38,"Velocity":59,"Duration":53380,"SoundDuration":53380,"Delta":150155860},{"NoteNumber":34,"Velocity":64,"Duration":53444,"SoundDuration":53444,"Delta":150262622},{"NoteNumber":33,"Velocity":55,"Duration":53571,"SoundDuration":53571,"Delta":150369638},{"NoteNumber":31,"Velocity":63,"Duration":109091,"SoundDuration":109091,"Delta":150476908},{"NoteNumber":31,"Velocity":62,"Duration":109090,"SoundDuration":109090,"Delta":150695090},{"NoteNumber":31,"Velocity":63,"Duration":104529,"SoundDuration":104529,"Delta":150913272},{"NoteNumber":33,"Velocity":56,"Duration":104529,"SoundDuration":104529,"Delta":151017802},{"NoteNumber":34,"Velocity":59,"Duration":110294,"SoundDuration":110294,"Delta":151122331},{"NoteNumber":31,"Velocity":53,"Duration":110293,"SoundDuration":110293,"Delta":151232625},{"NoteNumber":33,"Velocity":61,"Duration":108303,"SoundDuration":108303,"Delta":151342919},{"NoteNumber":33,"Velocity":59,"Duration":108303,"SoundDuration":108303,"Delta":151559526},{"NoteNumber":34,"Velocity":63,"Duration":213523,"SoundDuration":213523,"Delta":151776132},{"NoteNumber":31,"Velocity":58,"Duration":227272,"SoundDuration":227272,"Delta":151989655},{"NoteNumber":50,"Velocity":56,"Duration":1743954,"SoundDuration":1743954,"Delta":152216928},{"NoteNumber":52,"Velocity":56,"Duration":1743954,"SoundDuration":1743954,"Delta":152216928},{"NoteNumber":64,"Velocity":62,"Duration":1743954,"SoundDuration":1743954,"Delta":152216928},{"NoteNumber":62,"Velocity":62,"Duration":1743954,"SoundDuration":1743954,"Delta":152216928},{"NoteNumber":31,"Velocity":56,"Duration":441176,"SoundDuration":441176,"Delta":152650141},{"NoteNumber":43,"Velocity":56,"Duration":441176,"SoundDuration":441176,"Delta":152650141},{"NoteNumber":33,"Velocity":59,"Duration":434783,"SoundDuration":434783,"Delta":153091317},{"NoteNumber":45,"Velocity":59,"Duration":434783,"SoundDuration":434783,"Delta":153091317},{"NoteNumber":34,"Velocity":55,"Duration":434782,"SoundDuration":434782,"Delta":153526100},{"NoteNumber":46,"Velocity":55,"Duration":434782,"SoundDuration":434782,"Delta":153526100},{"NoteNumber":43,"Velocity":49,"Duration":109091,"SoundDuration":109091,"Delta":153960883},{"NoteNumber":43,"Velocity":44,"Duration":109090,"SoundDuration":109090,"Delta":154179065},{"NoteNumber":43,"Velocity":49,"Duration":104529,"SoundDuration":104529,"Delta":154397247},{"NoteNumber":45,"Velocity":42,"Duration":104529,"SoundDuration":104529,"Delta":154501776},{"NoteNumber":46,"Velocity":49,"Duration":110294,"SoundDuration":110294,"Delta":154606306},{"NoteNumber":43,"Velocity":41,"Duration":110293,"SoundDuration":110293,"Delta":154716600},{"NoteNumber":45,"Velocity":49,"Duration":108303,"SoundDuration":108303,"Delta":154826894},{"NoteNumber":45,"Velocity":42,"Duration":108303,"SoundDuration":108303,"Delta":155043500},{"NoteNumber":46,"Velocity":49,"Duration":213523,"SoundDuration":213523,"Delta":155260107},{"NoteNumber":43,"Velocity":45,"Duration":218182,"SoundDuration":218182,"Delta":155473630},{"NoteNumber":62,"Velocity":49,"Duration":1758610,"SoundDuration":1758610,"Delta":155691812},{"NoteNumber":64,"Velocity":49,"Duration":1758610,"SoundDuration":1758610,"Delta":155691812},{"NoteNumber":76,"Velocity":56,"Duration":1758610,"SoundDuration":1758610,"Delta":155691812},{"NoteNumber":74,"Velocity":56,"Duration":1758610,"SoundDuration":1758610,"Delta":155691812},{"NoteNumber":43,"Velocity":42,"Duration":441176,"SoundDuration":441176,"Delta":156125025},{"NoteNumber":55,"Velocity":42,"Duration":441176,"SoundDuration":441176,"Delta":156125025},{"NoteNumber":45,"Velocity":48,"Duration":434783,"SoundDuration":434783,"Delta":156566201},{"NoteNumber":57,"Velocity":48,"Duration":434783,"SoundDuration":434783,"Delta":156566201},{"NoteNumber":46,"Velocity":44,"Duration":449437,"SoundDuration":449437,"Delta":157000984},{"NoteNumber":58,"Velocity":44,"Duration":449437,"SoundDuration":449437,"Delta":157000984},{"NoteNumber":74,"Velocity":41,"Duration":1743760,"SoundDuration":1743760,"Delta":157450422},{"NoteNumber":76,"Velocity":41,"Duration":1743760,"SoundDuration":1743760,"Delta":157450422},{"NoteNumber":88,"Velocity":45,"Duration":1743760,"SoundDuration":1743760,"Delta":157450422},{"NoteNumber":86,"Velocity":45,"Duration":1743760,"SoundDuration":1743760,"Delta":157450422},{"NoteNumber":55,"Velocity":35,"Duration":441176,"SoundDuration":441176,"Delta":157883635},{"NoteNumber":67,"Velocity":35,"Duration":441176,"SoundDuration":441176,"Delta":157883635},{"NoteNumber":57,"Velocity":39,"Duration":434783,"SoundDuration":434783,"Delta":158324811},{"NoteNumber":69,"Velocity":39,"Duration":434783,"SoundDuration":434783,"Delta":158324811},{"NoteNumber":58,"Velocity":36,"Duration":434588,"SoundDuration":434588,"Delta":158759594},{"NoteNumber":70,"Velocity":36,"Duration":434588,"SoundDuration":434588,"Delta":158759594},{"NoteNumber":79,"Velocity":97,"Duration":108695,"SoundDuration":108695,"Delta":160054398},{"NoteNumber":43,"Velocity":85,"Duration":108695,"SoundDuration":108695,"Delta":160054398},{"NoteNumber":79,"Velocity":88,"Duration":108695,"SoundDuration":108695,"Delta":160271790},{"NoteNumber":43,"Velocity":77,"Duration":108695,"SoundDuration":108695,"Delta":160271790},{"NoteNumber":79,"Velocity":96,"Duration":129151,"SoundDuration":129151,"Delta":160489181},{"NoteNumber":43,"Velocity":84,"Duration":129151,"SoundDuration":129151,"Delta":160489181},{"NoteNumber":81,"Velocity":83,"Duration":129151,"SoundDuration":129151,"Delta":160599882},{"NoteNumber":45,"Velocity":72,"Duration":129151,"SoundDuration":129151,"Delta":160599882},{"NoteNumber":82,"Velocity":88,"Duration":129427,"SoundDuration":129427,"Delta":160710583},{"NoteNumber":46,"Velocity":79,"Duration":129427,"SoundDuration":129427,"Delta":160710583},{"NoteNumber":79,"Velocity":79,"Duration":112359,"SoundDuration":112359,"Delta":160821284},{"NoteNumber":43,"Velocity":72,"Duration":112359,"SoundDuration":112359,"Delta":160821284},{"NoteNumber":80,"Velocity":101,"Duration":115384,"SoundDuration":115384,"Delta":160933644},{"NoteNumber":44,"Velocity":86,"Duration":115384,"SoundDuration":115384,"Delta":160933644},{"NoteNumber":81,"Velocity":93,"Duration":119521,"SoundDuration":119521,"Delta":161163769},{"NoteNumber":45,"Velocity":82,"Duration":119521,"SoundDuration":119521,"Delta":161163769},{"NoteNumber":74,"Velocity":99,"Duration":250000,"SoundDuration":250000,"Delta":161403726},{"NoteNumber":78,"Velocity":99,"Duration":250000,"SoundDuration":250000,"Delta":161403726},{"NoteNumber":86,"Velocity":111,"Duration":250000,"SoundDuration":250000,"Delta":161403726},{"NoteNumber":50,"Velocity":91,"Duration":250000,"SoundDuration":250000,"Delta":161403726},{"NoteNumber":45,"Velocity":81,"Duration":250000,"SoundDuration":250000,"Delta":161403726},{"NoteNumber":38,"Velocity":81,"Duration":250000,"SoundDuration":250000,"Delta":161403726}],"license":{"name":"Creative Commons Attribution-ShareAlike 3.0 Germany","url":"http://creativecommons.org/licenses/by-sa/3.0/de/deed.en","text":"The MIDI, audio (MP3, OGG) and video files of Bernd Krueger are licensed under the cc-by-sa Germany License. This means that you can use and adapt the files, as long as you attribute the copyright holder.\n\nName: Bernd Krueger\nSource: http://www.piano-midi.de\n\nThe distribution or public playback of the files is only allowed under identical license conditions.\n\nThe scores are open source.","attribution":"MIDI files by Bernd Krueger (piano-midi.de)","attributionUrl":"http://www.piano-midi.de"}}