{"title":"Januar","artist":"Tchaikovsky","durationMs":280348,"midiSha256":"a83e25669b44e52dfd471372ec460ad961168452e6745976c976635fe4f79f92","midiObject":[{"NoteNumber":66,"Velocity":55,"Duration":423518,"SoundDuration":423518,"Delta":0},{"NoteNumber":68,"Velocity":52,"Duration":242393,"SoundDuration":242393,"Delta":423518},{"NoteNumber":69,"Velocity":48,"Duration":224349,"SoundDuration":224349,"Delta":628520},{"NoteNumber":68,"Velocity":55,"Duration":425290,"SoundDuration":425290,"Delta":852870},{"NoteNumber":64,"Velocity":36,"Duration":850581,"SoundDuration":850581,"Delta":852870},{"NoteNumber":59,"Velocity":30,"Duration":850581,"SoundDuration":850581,"Delta":852870},{"NoteNumber":50,"Velocity":37,"Duration":850581,"SoundDuration":850581,"Delta":852870},{"NoteNumber":52,"Velocity":44,"Duration":2549192,"SoundDuration":2549192,"Delta":852870},{"NoteNumber":71,"Velocity":45,"Duration":425290,"SoundDuration":425290,"Delta":1278160},{"NoteNumber":64,"Velocity":55,"Duration":1698611,"SoundDuration":1698611,"Delta":1703451},{"NoteNumber":49,"Velocity":42,"Duration":850581,"SoundDuration":850581,"Delta":1703451},{"NoteNumber":69,"Velocity":52,"Duration":425290,"SoundDuration":425290,"Delta":2128741},{"NoteNumber":68,"Velocity":52,"Duration":378579,"SoundDuration":378579,"Delta":2554032},{"NoteNumber":71,"Velocity":62,"Duration":378579,"SoundDuration":378579,"Delta":2554032},{"NoteNumber":47,"Velocity":53,"Duration":378579,"SoundDuration":378579,"Delta":2554032},{"NoteNumber":69,"Velocity":56,"Duration":398782,"SoundDuration":398782,"Delta":2967027},{"NoteNumber":73,"Velocity":66,"Duration":398782,"SoundDuration":398782,"Delta":2967027},{"NoteNumber":45,"Velocity":55,"Duration":398782,"SoundDuration":398782,"Delta":2967027},{"NoteNumber":64,"Velocity":46,"Duration":1701162,"SoundDuration":1701162,"Delta":3402062},{"NoteNumber":71,"Velocity":49,"Duration":850581,"SoundDuration":850581,"Delta":3402062},{"NoteNumber":76,"Velocity":59,"Duration":850581,"SoundDuration":850581,"Delta":3402062},{"NoteNumber":44,"Velocity":40,"Duration":850581,"SoundDuration":850581,"Delta":3402062},{"NoteNumber":52,"Velocity":45,"Duration":1701162,"SoundDuration":1701162,"Delta":3402062},{"NoteNumber":73,"Velocity":57,"Duration":850581,"SoundDuration":850581,"Delta":4252643},{"NoteNumber":69,"Velocity":49,"Duration":850581,"SoundDuration":850581,"Delta":4252643},{"NoteNumber":45,"Velocity":39,"Duration":850581,"SoundDuration":850581,"Delta":4252643},{"NoteNumber":73,"Velocity":69,"Duration":416666,"SoundDuration":416666,"Delta":5103224},{"NoteNumber":74,"Velocity":68,"Duration":242105,"SoundDuration":242105,"Delta":5519891},{"NoteNumber":76,"Velocity":66,"Duration":222617,"SoundDuration":222617,"Delta":5724893},{"NoteNumber":78,"Velocity":66,"Duration":422178,"SoundDuration":422178,"Delta":5947511},{"NoteNumber":73,"Velocity":55,"Duration":860582,"SoundDuration":860582,"Delta":5947511},{"NoteNumber":66,"Velocity":46,"Duration":860582,"SoundDuration":860582,"Delta":5947511},{"NoteNumber":46,"Velocity":36,"Duration":860582,"SoundDuration":860582,"Delta":5947511},{"NoteNumber":61,"Velocity":53,"Duration":860582,"SoundDuration":860582,"Delta":5947511},{"NoteNumber":54,"Velocity":43,"Duration":860582,"SoundDuration":860582,"Delta":5947511},{"NoteNumber":73,"Velocity":59,"Duration":438404,"SoundDuration":438404,"Delta":6369689},{"NoteNumber":71,"Velocity":42,"Duration":850581,"SoundDuration":850581,"Delta":6808093},{"NoteNumber":66,"Velocity":35,"Duration":850581,"SoundDuration":850581,"Delta":6808093},{"NoteNumber":74,"Velocity":57,"Duration":850581,"SoundDuration":850581,"Delta":6808093},{"NoteNumber":47,"Velocity":30,"Duration":850581,"SoundDuration":850581,"Delta":6808093},{"NoteNumber":59,"Velocity":42,"Duration":850581,"SoundDuration":850581,"Delta":6808093},{"NoteNumber":54,"Velocity":36,"Duration":850581,"SoundDuration":850581,"Delta":6808093},{"NoteNumber":66,"Velocity":58,"Duration":434782,"SoundDuration":434782,"Delta":7658674},{"NoteNumber":68,"Velocity":55,"Duration":244755,"SoundDuration":244755,"Delta":8093457},{"NoteNumber":69,"Velocity":51,"Duration":217633,"SoundDuration":217633,"Delta":8303247},{"NoteNumber":63,"Velocity":46,"Duration":870295,"SoundDuration":870295,"Delta":8520880},{"NoteNumber":73,"Velocity":50,"Duration":422534,"SoundDuration":422534,"Delta":8520880},{"NoteNumber":57,"Velocity":41,"Duration":870295,"SoundDuration":870295,"Delta":8520880},{"NoteNumber":47,"Velocity":35,"Duration":870295,"SoundDuration":870295,"Delta":8520880},{"NoteNumber":70,"Velocity":45,"Duration":873051,"SoundDuration":873051,"Delta":8943415},{"NoteNumber":62,"Velocity":40,"Duration":905782,"SoundDuration":905782,"Delta":9391176},{"NoteNumber":52,"Velocity":28,"Duration":905782,"SoundDuration":905782,"Delta":9391176},{"NoteNumber":56,"Velocity":34,"Duration":905782,"SoundDuration":905782,"Delta":9391176},{"NoteNumber":71,"Velocity":42,"Duration":480492,"SoundDuration":480492,"Delta":9816467},{"NoteNumber":66,"Velocity":55,"Duration":425290,"SoundDuration":425290,"Delta":10296959},{"NoteNumber":68,"Velocity":54,"Duration":242393,"SoundDuration":242393,"Delta":10722249},{"NoteNumber":69,"Velocity":50,"Duration":224349,"SoundDuration":224349,"Delta":10927251},{"NoteNumber":68,"Velocity":55,"Duration":425290,"SoundDuration":425290,"Delta":11151601},{"NoteNumber":64,"Velocity":37,"Duration":850581,"SoundDuration":850581,"Delta":11151601},{"NoteNumber":59,"Velocity":37,"Duration":850581,"SoundDuration":850581,"Delta":11151601},{"NoteNumber":52,"Velocity":44,"Duration":2555539,"SoundDuration":2555539,"Delta":11151601},{"NoteNumber":50,"Velocity":44,"Duration":850581,"SoundDuration":850581,"Delta":11151601},{"NoteNumber":71,"Velocity":45,"Duration":425290,"SoundDuration":425290,"Delta":11576891},{"NoteNumber":64,"Velocity":55,"Duration":1704958,"SoundDuration":1704958,"Delta":12002182},{"NoteNumber":49,"Velocity":42,"Duration":850581,"SoundDuration":850581,"Delta":12002182},{"NoteNumber":69,"Velocity":55,"Duration":425290,"SoundDuration":425290,"Delta":12427472},{"NoteNumber":68,"Velocity":52,"Duration":381309,"SoundDuration":381309,"Delta":12852763},{"NoteNumber":71,"Velocity":62,"Duration":381309,"SoundDuration":381309,"Delta":12852763},{"NoteNumber":47,"Velocity":53,"Duration":381309,"SoundDuration":381309,"Delta":12852763},{"NoteNumber":69,"Velocity":57,"Duration":401870,"SoundDuration":401870,"Delta":13268736},{"NoteNumber":73,"Velocity":67,"Duration":401870,"SoundDuration":401870,"Delta":13268736},{"NoteNumber":45,"Velocity":56,"Duration":401870,"SoundDuration":401870,"Delta":13268736},{"NoteNumber":64,"Velocity":45,"Duration":1701162,"SoundDuration":1701162,"Delta":13707140},{"NoteNumber":71,"Velocity":49,"Duration":850581,"SoundDuration":850581,"Delta":13707140},{"NoteNumber":76,"Velocity":61,"Duration":850581,"SoundDuration":850581,"Delta":13707140},{"NoteNumber":52,"Velocity":42,"Duration":1701162,"SoundDuration":1701162,"Delta":13707140},{"NoteNumber":44,"Velocity":43,"Duration":850581,"SoundDuration":850581,"Delta":13707140},{"NoteNumber":73,"Velocity":63,"Duration":850581,"SoundDuration":850581,"Delta":14557721},{"NoteNumber":69,"Velocity":54,"Duration":850581,"SoundDuration":850581,"Delta":14557721},{"NoteNumber":45,"Velocity":43,"Duration":850581,"SoundDuration":850581,"Delta":14557721},{"NoteNumber":73,"Velocity":75,"Duration":412995,"SoundDuration":412995,"Delta":15408302},{"NoteNumber":75,"Velocity":72,"Duration":237875,"SoundDuration":237875,"Delta":15821298},{"NoteNumber":76,"Velocity":68,"Duration":219201,"SoundDuration":219201,"Delta":16022640},{"NoteNumber":64,"Velocity":53,"Duration":850711,"SoundDuration":850711,"Delta":16241842},{"NoteNumber":68,"Velocity":73,"Duration":418994,"SoundDuration":418994,"Delta":16241842},{"NoteNumber":47,"Velocity":50,"Duration":2565553,"SoundDuration":2565553,"Delta":16241842},{"NoteNumber":73,"Velocity":59,"Duration":431716,"SoundDuration":431716,"Delta":16660837},{"NoteNumber":71,"Velocity":62,"Duration":870526,"SoundDuration":870526,"Delta":17092554},{"NoteNumber":63,"Velocity":43,"Duration":870526,"SoundDuration":870526,"Delta":17092554},{"NoteNumber":66,"Velocity":43,"Duration":870526,"SoundDuration":870526,"Delta":17092554},{"NoteNumber":57,"Velocity":59,"Duration":425290,"SoundDuration":425290,"Delta":17092554},{"NoteNumber":59,"Velocity":54,"Duration":445236,"SoundDuration":445236,"Delta":17517844},{"NoteNumber":71,"Velocity":58,"Duration":844315,"SoundDuration":844315,"Delta":17963080},{"NoteNumber":64,"Velocity":58,"Duration":844315,"SoundDuration":844315,"Delta":17963080},{"NoteNumber":73,"Velocity":76,"Duration":418994,"SoundDuration":418994,"Delta":17963080},{"NoteNumber":56,"Velocity":61,"Duration":844315,"SoundDuration":844315,"Delta":17963080},{"NoteNumber":75,"Velocity":75,"Duration":239805,"SoundDuration":239805,"Delta":18382075},{"NoteNumber":76,"Velocity":70,"Duration":222618,"SoundDuration":222618,"Delta":18584777},{"NoteNumber":64,"Velocity":53,"Duration":860820,"SoundDuration":860820,"Delta":18807395},{"NoteNumber":68,"Velocity":73,"Duration":418994,"SoundDuration":418994,"Delta":18807395},{"NoteNumber":47,"Velocity":50,"Duration":2154368,"SoundDuration":2154368,"Delta":18807395},{"NoteNumber":73,"Velocity":58,"Duration":441825,"SoundDuration":441825,"Delta":19226390},{"NoteNumber":71,"Velocity":62,"Duration":877574,"SoundDuration":877574,"Delta":19668216},{"NoteNumber":66,"Velocity":43,"Duration":877574,"SoundDuration":877574,"Delta":19668216},{"NoteNumber":63,"Velocity":43,"Duration":877574,"SoundDuration":877574,"Delta":19668216},{"NoteNumber":57,"Velocity":59,"Duration":425290,"SoundDuration":425290,"Delta":19668216},{"NoteNumber":59,"Velocity":54,"Duration":452283,"SoundDuration":452283,"Delta":20093506},{"NoteNumber":73,"Velocity":77,"Duration":415973,"SoundDuration":415973,"Delta":20545790},{"NoteNumber":64,"Velocity":59,"Duration":858335,"SoundDuration":858335,"Delta":20545790},{"NoteNumber":71,"Velocity":59,"Duration":858335,"SoundDuration":858335,"Delta":20545790},{"NoteNumber":56,"Velocity":58,"Duration":415973,"SoundDuration":415973,"Delta":20545790},{"NoteNumber":75,"Velocity":75,"Duration":247049,"SoundDuration":247049,"Delta":20961764},{"NoteNumber":76,"Velocity":71,"Duration":234375,"SoundDuration":234375,"Delta":21169751},{"NoteNumber":80,"Velocity":75,"Duration":431716,"SoundDuration":431716,"Delta":21404126},{"NoteNumber":76,"Velocity":64,"Duration":431717,"SoundDuration":431717,"Delta":21835843},{"NoteNumber":75,"Velocity":68,"Duration":422178,"SoundDuration":422178,"Delta":22267560},{"NoteNumber":73,"Velocity":62,"Duration":448699,"SoundDuration":448699,"Delta":22689738},{"NoteNumber":73,"Velocity":55,"Duration":878315,"SoundDuration":878315,"Delta":23138437},{"NoteNumber":66,"Velocity":44,"Duration":878315,"SoundDuration":878315,"Delta":23138437},{"NoteNumber":63,"Velocity":44,"Duration":878315,"SoundDuration":878315,"Delta":23138437},{"NoteNumber":54,"Velocity":62,"Duration":434782,"SoundDuration":434782,"Delta":23138437},{"NoteNumber":56,"Velocity":58,"Duration":255081,"SoundDuration":255081,"Delta":23573220},{"NoteNumber":57,"Velocity":50,"Duration":226141,"SoundDuration":226141,"Delta":23790611},{"NoteNumber":63,"Velocity":44,"Duration":913617,"SoundDuration":913617,"Delta":24016753},{"NoteNumber":61,"Velocity":58,"Duration":441176,"SoundDuration":441176,"Delta":24016753},{"NoteNumber":66,"Velocity":52,"Duration":913617,"SoundDuration":913617,"Delta":24016753},{"NoteNumber":47,"Velocity":50,"Duration":913617,"SoundDuration":913617,"Delta":24016753},{"NoteNumber":59,"Velocity":56,"Duration":452755,"SoundDuration":452755,"Delta":24457929},{"NoteNumber":59,"Velocity":39,"Duration":1017255,"SoundDuration":1017255,"Delta":24930370},{"NoteNumber":64,"Velocity":45,"Duration":1017255,"SoundDuration":1017255,"Delta":24930370},{"NoteNumber":57,"Velocity":52,"Duration":480000,"SoundDuration":480000,"Delta":24930370},{"NoteNumber":52,"Velocity":44,"Duration":1017255,"SoundDuration":1017255,"Delta":24930370},{"NoteNumber":56,"Velocity":50,"Duration":537255,"SoundDuration":537255,"Delta":25410370},{"NoteNumber":74,"Velocity":54,"Duration":420657,"SoundDuration":420657,"Delta":25947626},{"NoteNumber":40,"Velocity":50,"Duration":420657,"SoundDuration":420657,"Delta":25947626},{"NoteNumber":52,"Velocity":45,"Duration":104496,"SoundDuration":104496,"Delta":26160290},{"NoteNumber":73,"Velocity":50,"Duration":240692,"SoundDuration":240692,"Delta":26368283},{"NoteNumber":54,"Velocity":46,"Duration":102255,"SoundDuration":102255,"Delta":26368283},{"NoteNumber":71,"Velocity":47,"Duration":224349,"SoundDuration":224349,"Delta":26571584},{"NoteNumber":56,"Velocity":47,"Duration":112174,"SoundDuration":112174,"Delta":26571584},{"NoteNumber":63,"Velocity":43,"Duration":877574,"SoundDuration":877574,"Delta":26795934},{"NoteNumber":66,"Velocity":51,"Duration":425290,"SoundDuration":425290,"Delta":26795934},{"NoteNumber":57,"Velocity":50,"Duration":212645,"SoundDuration":212645,"Delta":26795934},{"NoteNumber":52,"Velocity":36,"Duration":1745267,"SoundDuration":1745267,"Delta":26795934},{"NoteNumber":59,"Velocity":45,"Duration":212645,"SoundDuration":212645,"Delta":27008579},{"NoteNumber":69,"Velocity":40,"Duration":452283,"SoundDuration":452283,"Delta":27221224},{"NoteNumber":60,"Velocity":47,"Duration":871278,"SoundDuration":871278,"Delta":27221224},{"NoteNumber":64,"Velocity":39,"Duration":867693,"SoundDuration":867693,"Delta":27673508},{"NoteNumber":68,"Velocity":46,"Duration":867693,"SoundDuration":867693,"Delta":27673508},{"NoteNumber":59,"Velocity":35,"Duration":448699,"SoundDuration":448699,"Delta":28092503},{"NoteNumber":61,"Velocity":41,"Duration":431654,"SoundDuration":431654,"Delta":28541202},{"NoteNumber":66,"Velocity":50,"Duration":431654,"SoundDuration":431654,"Delta":28541202},{"NoteNumber":45,"Velocity":44,"Duration":431654,"SoundDuration":431654,"Delta":28541202},{"NoteNumber":52,"Velocity":37,"Duration":1763957,"SoundDuration":1763957,"Delta":28541202},{"NoteNumber":60,"Velocity":31,"Duration":445236,"SoundDuration":445236,"Delta":28972856},{"NoteNumber":68,"Velocity":39,"Duration":445236,"SoundDuration":445236,"Delta":28972856},{"NoteNumber":44,"Velocity":31,"Duration":445236,"SoundDuration":445236,"Delta":28972856},{"NoteNumber":61,"Velocity":41,"Duration":434782,"SoundDuration":434782,"Delta":29418092},{"NoteNumber":66,"Velocity":50,"Duration":434782,"SoundDuration":434782,"Delta":29418092},{"NoteNumber":45,"Velocity":44,"Duration":434782,"SoundDuration":434782,"Delta":29418092},{"NoteNumber":68,"Velocity":38,"Duration":452283,"SoundDuration":452283,"Delta":29852875},{"NoteNumber":60,"Velocity":30,"Duration":452283,"SoundDuration":452283,"Delta":29852875},{"NoteNumber":44,"Velocity":34,"Duration":452283,"SoundDuration":452283,"Delta":29852875},{"NoteNumber":59,"Velocity":37,"Duration":918426,"SoundDuration":918426,"Delta":30305159},{"NoteNumber":64,"Velocity":42,"Duration":918426,"SoundDuration":918426,"Delta":30305159},{"NoteNumber":57,"Velocity":38,"Duration":452284,"SoundDuration":452284,"Delta":30305159},{"NoteNumber":52,"Velocity":33,"Duration":918426,"SoundDuration":918426,"Delta":30305159},{"NoteNumber":56,"Velocity":36,"Duration":466141,"SoundDuration":466141,"Delta":30757443},{"NoteNumber":74,"Velocity":54,"Duration":414533,"SoundDuration":414533,"Delta":31223585},{"NoteNumber":40,"Velocity":50,"Duration":414533,"SoundDuration":414533,"Delta":31223585},{"NoteNumber":52,"Velocity":45,"Duration":102999,"SoundDuration":102999,"Delta":31433109},{"NoteNumber":73,"Velocity":50,"Duration":237830,"SoundDuration":237830,"Delta":31638118},{"NoteNumber":54,"Velocity":46,"Duration":100803,"SoundDuration":100803,"Delta":31638118},{"NoteNumber":71,"Velocity":47,"Duration":224349,"SoundDuration":224349,"Delta":31838557},{"NoteNumber":56,"Velocity":47,"Duration":112174,"SoundDuration":112174,"Delta":31838557},{"NoteNumber":63,"Velocity":43,"Duration":880794,"SoundDuration":880794,"Delta":32062906},{"NoteNumber":66,"Velocity":51,"Duration":428510,"SoundDuration":428510,"Delta":32062906},{"NoteNumber":57,"Velocity":50,"Duration":214255,"SoundDuration":214255,"Delta":32062906},{"NoteNumber":52,"Velocity":36,"Duration":1754783,"SoundDuration":1754783,"Delta":32062906},{"NoteNumber":59,"Velocity":45,"Duration":214255,"SoundDuration":214255,"Delta":32277161},{"NoteNumber":69,"Velocity":40,"Duration":452283,"SoundDuration":452283,"Delta":32491416},{"NoteNumber":60,"Velocity":46,"Duration":877574,"SoundDuration":877574,"Delta":32491416},{"NoteNumber":64,"Velocity":39,"Duration":873989,"SoundDuration":873989,"Delta":32943700},{"NoteNumber":68,"Velocity":46,"Duration":873989,"SoundDuration":873989,"Delta":32943700},{"NoteNumber":59,"Velocity":34,"Duration":448698,"SoundDuration":448698,"Delta":33368991},{"NoteNumber":61,"Velocity":41,"Duration":437955,"SoundDuration":437955,"Delta":33817690},{"NoteNumber":66,"Velocity":50,"Duration":437955,"SoundDuration":437955,"Delta":33817690},{"NoteNumber":45,"Velocity":44,"Duration":437955,"SoundDuration":437955,"Delta":33817690},{"NoteNumber":52,"Velocity":37,"Duration":1770258,"SoundDuration":1770258,"Delta":33817690},{"NoteNumber":60,"Velocity":31,"Duration":445236,"SoundDuration":445236,"Delta":34255646},{"NoteNumber":68,"Velocity":39,"Duration":445236,"SoundDuration":445236,"Delta":34255646},{"NoteNumber":44,"Velocity":31,"Duration":445236,"SoundDuration":445236,"Delta":34255646},{"NoteNumber":61,"Velocity":41,"Duration":434782,"SoundDuration":434782,"Delta":34700882},{"NoteNumber":66,"Velocity":50,"Duration":434782,"SoundDuration":434782,"Delta":34700882},{"NoteNumber":45,"Velocity":44,"Duration":434782,"SoundDuration":434782,"Delta":34700882},{"NoteNumber":68,"Velocity":38,"Duration":452283,"SoundDuration":452283,"Delta":35135664},{"NoteNumber":60,"Velocity":30,"Duration":452283,"SoundDuration":452283,"Delta":35135664},{"NoteNumber":44,"Velocity":34,"Duration":452283,"SoundDuration":452283,"Delta":35135664},{"NoteNumber":59,"Velocity":37,"Duration":904567,"SoundDuration":904567,"Delta":35587948},{"NoteNumber":64,"Velocity":42,"Duration":904567,"SoundDuration":904567,"Delta":35587948},{"NoteNumber":57,"Velocity":38,"Duration":452283,"SoundDuration":452283,"Delta":35587948},{"NoteNumber":52,"Velocity":33,"Duration":904567,"SoundDuration":904567,"Delta":35587948},{"NoteNumber":56,"Velocity":36,"Duration":452283,"SoundDuration":452283,"Delta":36040232},{"NoteNumber":64,"Velocity":46,"Duration":410958,"SoundDuration":410958,"Delta":36492516},{"NoteNumber":70,"Velocity":56,"Duration":410958,"SoundDuration":410958,"Delta":36492516},{"NoteNumber":49,"Velocity":50,"Duration":410958,"SoundDuration":410958,"Delta":36492516},{"NoteNumber":56,"Velocity":41,"Duration":1691188,"SoundDuration":1691188,"Delta":36492516},{"NoteNumber":63,"Velocity":42,"Duration":431654,"SoundDuration":431654,"Delta":36903475},{"NoteNumber":72,"Velocity":50,"Duration":431654,"SoundDuration":431654,"Delta":36903475},{"NoteNumber":48,"Velocity":42,"Duration":431654,"SoundDuration":431654,"Delta":36903475},{"NoteNumber":70,"Velocity":56,"Duration":413792,"SoundDuration":413792,"Delta":37335130},{"NoteNumber":64,"Velocity":46,"Duration":413792,"SoundDuration":413792,"Delta":37335130},{"NoteNumber":49,"Velocity":51,"Duration":413792,"SoundDuration":413792,"Delta":37335130},{"NoteNumber":63,"Velocity":41,"Duration":434782,"SoundDuration":434782,"Delta":37748923},{"NoteNumber":72,"Velocity":50,"Duration":434782,"SoundDuration":434782,"Delta":37748923},{"NoteNumber":48,"Velocity":46,"Duration":434782,"SoundDuration":434782,"Delta":37748923},{"NoteNumber":63,"Velocity":42,"Duration":869565,"SoundDuration":869565,"Delta":38183705},{"NoteNumber":68,"Velocity":51,"Duration":869565,"SoundDuration":869565,"Delta":38183705},{"NoteNumber":61,"Velocity":44,"Duration":434782,"SoundDuration":434782,"Delta":38183705},{"NoteNumber":56,"Velocity":34,"Duration":869565,"SoundDuration":869565,"Delta":38183705},{"NoteNumber":60,"Velocity":41,"Duration":434782,"SoundDuration":434782,"Delta":38618488},{"NoteNumber":68,"Velocity":51,"Duration":402684,"SoundDuration":402684,"Delta":39053270},{"NoteNumber":74,"Velocity":59,"Duration":402684,"SoundDuration":402684,"Delta":39053270},{"NoteNumber":53,"Velocity":53,"Duration":402684,"SoundDuration":402684,"Delta":39053270},{"NoteNumber":60,"Velocity":45,"Duration":1659870,"SoundDuration":1659870,"Delta":39053270},{"NoteNumber":67,"Velocity":46,"Duration":431654,"SoundDuration":431654,"Delta":39455955},{"NoteNumber":76,"Velocity":56,"Duration":431654,"SoundDuration":431654,"Delta":39455955},{"NoteNumber":52,"Velocity":46,"Duration":431654,"SoundDuration":431654,"Delta":39455955},{"NoteNumber":74,"Velocity":62,"Duration":399999,"SoundDuration":399999,"Delta":39887609},{"NoteNumber":68,"Velocity":53,"Duration":399999,"SoundDuration":399999,"Delta":39887609},{"NoteNumber":53,"Velocity":57,"Duration":399999,"SoundDuration":399999,"Delta":39887609},{"NoteNumber":67,"Velocity":47,"Duration":425531,"SoundDuration":425531,"Delta":40287609},{"NoteNumber":76,"Velocity":57,"Duration":425531,"SoundDuration":425531,"Delta":40287609},{"NoteNumber":52,"Velocity":51,"Duration":425531,"SoundDuration":425531,"Delta":40287609},{"NoteNumber":72,"Velocity":52,"Duration":851064,"SoundDuration":851064,"Delta":40713141},{"NoteNumber":66,"Velocity":44,"Duration":425532,"SoundDuration":425532,"Delta":40713141},{"NoteNumber":63,"Velocity":37,"Duration":425532,"SoundDuration":425532,"Delta":40713141},{"NoteNumber":60,"Velocity":46,"Duration":425532,"SoundDuration":425532,"Delta":40713141},{"NoteNumber":56,"Velocity":38,"Duration":425532,"SoundDuration":425532,"Delta":40713141},{"NoteNumber":64,"Velocity":30,"Duration":425531,"SoundDuration":425531,"Delta":41138673},{"NoteNumber":67,"Velocity":38,"Duration":425531,"SoundDuration":425531,"Delta":41138673},{"NoteNumber":48,"Velocity":26,"Duration":425531,"SoundDuration":425531,"Delta":41138673},{"NoteNumber":55,"Velocity":32,"Duration":425531,"SoundDuration":425531,"Delta":41138673},{"NoteNumber":74,"Velocity":59,"Duration":228758,"SoundDuration":228758,"Delta":41564205},{"NoteNumber":68,"Velocity":55,"Duration":392156,"SoundDuration":392156,"Delta":41564205},{"NoteNumber":60,"Velocity":44,"Duration":1625650,"SoundDuration":1625650,"Delta":41564205},{"NoteNumber":53,"Velocity":55,"Duration":392156,"SoundDuration":392156,"Delta":41564205},{"NoteNumber":77,"Velocity":47,"Duration":230325,"SoundDuration":230325,"Delta":41760284},{"NoteNumber":72,"Velocity":44,"Duration":410958,"SoundDuration":410958,"Delta":41956362},{"NoteNumber":67,"Velocity":44,"Duration":410958,"SoundDuration":410958,"Delta":41956362},{"NoteNumber":76,"Velocity":59,"Duration":410958,"SoundDuration":410958,"Delta":41956362},{"NoteNumber":55,"Velocity":40,"Duration":410958,"SoundDuration":410958,"Delta":41956362},{"NoteNumber":68,"Velocity":56,"Duration":399999,"SoundDuration":399999,"Delta":42367321},{"NoteNumber":74,"Velocity":59,"Duration":233333,"SoundDuration":233333,"Delta":42367321},{"NoteNumber":53,"Velocity":58,"Duration":399999,"SoundDuration":399999,"Delta":42367321},{"NoteNumber":77,"Velocity":49,"Duration":235211,"SoundDuration":235211,"Delta":42567321},{"NoteNumber":67,"Velocity":44,"Duration":422535,"SoundDuration":422535,"Delta":42767321},{"NoteNumber":72,"Velocity":45,"Duration":422535,"SoundDuration":422535,"Delta":42767321},{"NoteNumber":76,"Velocity":59,"Duration":422535,"SoundDuration":422535,"Delta":42767321},{"NoteNumber":55,"Velocity":44,"Duration":422535,"SoundDuration":422535,"Delta":42767321},{"NoteNumber":63,"Velocity":41,"Duration":422534,"SoundDuration":422534,"Delta":43189856},{"NoteNumber":66,"Velocity":49,"Duration":422534,"SoundDuration":422534,"Delta":43189856},{"NoteNumber":72,"Velocity":59,"Duration":845069,"SoundDuration":845069,"Delta":43189856},{"NoteNumber":56,"Velocity":36,"Duration":422534,"SoundDuration":422534,"Delta":43189856},{"NoteNumber":60,"Velocity":45,"Duration":422534,"SoundDuration":422534,"Delta":43189856},{"NoteNumber":64,"Velocity":33,"Duration":422535,"SoundDuration":422535,"Delta":43612391},{"NoteNumber":67,"Velocity":42,"Duration":422535,"SoundDuration":422535,"Delta":43612391},{"NoteNumber":55,"Velocity":32,"Duration":422535,"SoundDuration":422535,"Delta":43612391},{"NoteNumber":48,"Velocity":21,"Duration":422535,"SoundDuration":422535,"Delta":43612391},{"NoteNumber":74,"Velocity":67,"Duration":405405,"SoundDuration":405405,"Delta":44034926},{"NoteNumber":68,"Velocity":56,"Duration":405405,"SoundDuration":405405,"Delta":44034926},{"NoteNumber":60,"Velocity":46,"Duration":827940,"SoundDuration":827940,"Delta":44034926},{"NoteNumber":53,"Velocity":56,"Duration":405405,"SoundDuration":405405,"Delta":44034926},{"NoteNumber":76,"Velocity":63,"Duration":422535,"SoundDuration":422535,"Delta":44440332},{"NoteNumber":67,"Velocity":49,"Duration":422535,"SoundDuration":422535,"Delta":44440332},{"NoteNumber":72,"Velocity":49,"Duration":422535,"SoundDuration":422535,"Delta":44440332},{"NoteNumber":48,"Velocity":46,"Duration":422535,"SoundDuration":422535,"Delta":44440332},{"NoteNumber":70,"Velocity":59,"Duration":397351,"SoundDuration":397351,"Delta":44862867},{"NoteNumber":79,"Velocity":71,"Duration":397351,"SoundDuration":397351,"Delta":44862867},{"NoteNumber":61,"Velocity":55,"Duration":397351,"SoundDuration":397351,"Delta":44862867},{"NoteNumber":57,"Velocity":47,"Duration":397351,"SoundDuration":397351,"Delta":44862867},{"NoteNumber":69,"Velocity":52,"Duration":425531,"SoundDuration":425531,"Delta":45260218},{"NoteNumber":78,"Velocity":64,"Duration":425531,"SoundDuration":425531,"Delta":45260218},{"NoteNumber":62,"Velocity":54,"Duration":425531,"SoundDuration":425531,"Delta":45260218},{"NoteNumber":77,"Velocity":71,"Duration":397351,"SoundDuration":397351,"Delta":45685750},{"NoteNumber":68,"Velocity":59,"Duration":397351,"SoundDuration":397351,"Delta":45685750},{"NoteNumber":59,"Velocity":55,"Duration":397351,"SoundDuration":397351,"Delta":45685750},{"NoteNumber":55,"Velocity":47,"Duration":397351,"SoundDuration":397351,"Delta":45685750},{"NoteNumber":67,"Velocity":52,"Duration":419580,"SoundDuration":419580,"Delta":46083101},{"NoteNumber":76,"Velocity":64,"Duration":419580,"SoundDuration":419580,"Delta":46083101},{"NoteNumber":60,"Velocity":54,"Duration":419580,"SoundDuration":419580,"Delta":46083101},{"NoteNumber":67,"Velocity":59,"Duration":404338,"SoundDuration":404338,"Delta":46502681},{"NoteNumber":76,"Velocity":71,"Duration":404338,"SoundDuration":404338,"Delta":46502681},{"NoteNumber":58,"Velocity":51,"Duration":404338,"SoundDuration":404338,"Delta":46502681},{"NoteNumber":54,"Velocity":42,"Duration":404338,"SoundDuration":404338,"Delta":46502681},{"NoteNumber":66,"Velocity":52,"Duration":416666,"SoundDuration":416666,"Delta":46907020},{"NoteNumber":75,"Velocity":64,"Duration":416666,"SoundDuration":416666,"Delta":46907020},{"NoteNumber":59,"Velocity":54,"Duration":416666,"SoundDuration":416666,"Delta":46907020},{"NoteNumber":70,"Velocity":65,"Duration":231788,"SoundDuration":231788,"Delta":47323687},{"NoteNumber":64,"Velocity":63,"Duration":397351,"SoundDuration":397351,"Delta":47323687},{"NoteNumber":55,"Velocity":58,"Duration":397351,"SoundDuration":397351,"Delta":47323687},{"NoteNumber":73,"Velocity":52,"Duration":233886,"SoundDuration":233886,"Delta":47522362},{"NoteNumber":66,"Velocity":42,"Duration":422535,"SoundDuration":422535,"Delta":47721038},{"NoteNumber":71,"Velocity":55,"Duration":422535,"SoundDuration":422535,"Delta":47721038},{"NoteNumber":63,"Velocity":42,"Duration":422535,"SoundDuration":422535,"Delta":47721038},{"NoteNumber":47,"Velocity":29,"Duration":422535,"SoundDuration":422535,"Delta":47721038},{"NoteNumber":54,"Velocity":39,"Duration":422535,"SoundDuration":422535,"Delta":47721038},{"NoteNumber":67,"Velocity":57,"Duration":419580,"SoundDuration":419580,"Delta":48143573},{"NoteNumber":76,"Velocity":69,"Duration":419580,"SoundDuration":419580,"Delta":48143573},{"NoteNumber":58,"Velocity":46,"Duration":419580,"SoundDuration":419580,"Delta":48143573},{"NoteNumber":54,"Velocity":41,"Duration":419580,"SoundDuration":419580,"Delta":48143573},{"NoteNumber":66,"Velocity":52,"Duration":445236,"SoundDuration":445236,"Delta":48563153},{"NoteNumber":75,"Velocity":63,"Duration":445236,"SoundDuration":445236,"Delta":48563153},{"NoteNumber":59,"Velocity":49,"Duration":445236,"SoundDuration":445236,"Delta":48563153},{"NoteNumber":64,"Velocity":58,"Duration":397351,"SoundDuration":397351,"Delta":49008389},{"NoteNumber":70,"Velocity":55,"Duration":231788,"SoundDuration":231788,"Delta":49008389},{"NoteNumber":55,"Velocity":57,"Duration":397351,"SoundDuration":397351,"Delta":49008389},{"NoteNumber":73,"Velocity":52,"Duration":233640,"SoundDuration":233640,"Delta":49207065},{"NoteNumber":63,"Velocity":33,"Duration":419580,"SoundDuration":419580,"Delta":49405740},{"NoteNumber":71,"Velocity":42,"Duration":419580,"SoundDuration":419580,"Delta":49405740},{"NoteNumber":66,"Velocity":33,"Duration":419580,"SoundDuration":419580,"Delta":49405740},{"NoteNumber":54,"Velocity":31,"Duration":419580,"SoundDuration":419580,"Delta":49405740},{"NoteNumber":47,"Velocity":26,"Duration":419580,"SoundDuration":419580,"Delta":49405740},{"NoteNumber":70,"Velocity":56,"Duration":233333,"SoundDuration":233333,"Delta":49825321},{"NoteNumber":64,"Velocity":56,"Duration":399999,"SoundDuration":399999,"Delta":49825321},{"NoteNumber":55,"Velocity":55,"Duration":399999,"SoundDuration":399999,"Delta":49825321},{"NoteNumber":73,"Velocity":48,"Duration":237593,"SoundDuration":237593,"Delta":50025321},{"NoteNumber":66,"Velocity":30,"Duration":451127,"SoundDuration":451127,"Delta":50225321},{"NoteNumber":63,"Velocity":30,"Duration":451127,"SoundDuration":451127,"Delta":50225321},{"NoteNumber":71,"Velocity":41,"Duration":451127,"SoundDuration":451127,"Delta":50225321},{"NoteNumber":47,"Velocity":24,"Duration":451127,"SoundDuration":451127,"Delta":50225321},{"NoteNumber":54,"Velocity":30,"Duration":451127,"SoundDuration":451127,"Delta":50225321},{"NoteNumber":58,"Velocity":34,"Duration":468750,"SoundDuration":468750,"Delta":50676449},{"NoteNumber":61,"Velocity":41,"Duration":468750,"SoundDuration":468750,"Delta":50676449},{"NoteNumber":66,"Velocity":48,"Duration":977224,"SoundDuration":977224,"Delta":50676449},{"NoteNumber":52,"Velocity":37,"Duration":468750,"SoundDuration":468750,"Delta":50676449},{"NoteNumber":59,"Velocity":36,"Duration":508474,"SoundDuration":508474,"Delta":51145199},{"NoteNumber":51,"Velocity":28,"Duration":508474,"SoundDuration":508474,"Delta":51145199},{"NoteNumber":66,"Velocity":54,"Duration":441176,"SoundDuration":441176,"Delta":51653673},{"NoteNumber":68,"Velocity":51,"Duration":247181,"SoundDuration":247181,"Delta":52094850},{"NoteNumber":69,"Velocity":47,"Duration":224349,"SoundDuration":224349,"Delta":52304640},{"NoteNumber":64,"Velocity":36,"Duration":850580,"SoundDuration":850580,"Delta":52528989},{"NoteNumber":59,"Velocity":36,"Duration":850580,"SoundDuration":850580,"Delta":52528989},{"NoteNumber":68,"Velocity":55,"Duration":425290,"SoundDuration":425290,"Delta":52528989},{"NoteNumber":50,"Velocity":44,"Duration":850580,"SoundDuration":850580,"Delta":52528989},{"NoteNumber":52,"Velocity":44,"Duration":2549192,"SoundDuration":2549192,"Delta":52528989},{"NoteNumber":71,"Velocity":44,"Duration":425290,"SoundDuration":425290,"Delta":52954280},{"NoteNumber":64,"Velocity":55,"Duration":1698611,"SoundDuration":1698611,"Delta":53379570},{"NoteNumber":49,"Velocity":42,"Duration":850581,"SoundDuration":850581,"Delta":53379570},{"NoteNumber":69,"Velocity":56,"Duration":425290,"SoundDuration":425290,"Delta":53804861},{"NoteNumber":68,"Velocity":52,"Duration":378579,"SoundDuration":378579,"Delta":54230151},{"NoteNumber":71,"Velocity":62,"Duration":378579,"SoundDuration":378579,"Delta":54230151},{"NoteNumber":47,"Velocity":53,"Duration":378579,"SoundDuration":378579,"Delta":54230151},{"NoteNumber":73,"Velocity":66,"Duration":398782,"SoundDuration":398782,"Delta":54643147},{"NoteNumber":69,"Velocity":56,"Duration":398782,"SoundDuration":398782,"Delta":54643147},{"NoteNumber":45,"Velocity":55,"Duration":398782,"SoundDuration":398782,"Delta":54643147},{"NoteNumber":76,"Velocity":59,"Duration":850580,"SoundDuration":850580,"Delta":55078182},{"NoteNumber":71,"Velocity":49,"Duration":850580,"SoundDuration":850580,"Delta":55078182},{"NoteNumber":64,"Velocity":49,"Duration":1701162,"SoundDuration":1701162,"Delta":55078182},{"NoteNumber":44,"Velocity":40,"Duration":850580,"SoundDuration":850580,"Delta":55078182},{"NoteNumber":52,"Velocity":45,"Duration":1701162,"SoundDuration":1701162,"Delta":55078182},{"NoteNumber":69,"Velocity":49,"Duration":850581,"SoundDuration":850581,"Delta":55928763},{"NoteNumber":73,"Velocity":57,"Duration":850581,"SoundDuration":850581,"Delta":55928763},{"NoteNumber":45,"Velocity":39,"Duration":850581,"SoundDuration":850581,"Delta":55928763},{"NoteNumber":73,"Velocity":69,"Duration":425290,"SoundDuration":425290,"Delta":56779344},{"NoteNumber":74,"Velocity":68,"Duration":245001,"SoundDuration":245001,"Delta":57204634},{"NoteNumber":76,"Velocity":66,"Duration":240000,"SoundDuration":240000,"Delta":57409636},{"NoteNumber":73,"Velocity":55,"Duration":860582,"SoundDuration":860582,"Delta":57649636},{"NoteNumber":66,"Velocity":46,"Duration":860582,"SoundDuration":860582,"Delta":57649636},{"NoteNumber":78,"Velocity":66,"Duration":422178,"SoundDuration":422178,"Delta":57649636},{"NoteNumber":54,"Velocity":43,"Duration":860582,"SoundDuration":860582,"Delta":57649636},{"NoteNumber":61,"Velocity":53,"Duration":860582,"SoundDuration":860582,"Delta":57649636},{"NoteNumber":46,"Velocity":36,"Duration":860582,"SoundDuration":860582,"Delta":57649636},{"NoteNumber":73,"Velocity":59,"Duration":438403,"SoundDuration":438403,"Delta":58071815},{"NoteNumber":74,"Velocity":57,"Duration":850580,"SoundDuration":850580,"Delta":58510219},{"NoteNumber":71,"Velocity":46,"Duration":850580,"SoundDuration":850580,"Delta":58510219},{"NoteNumber":66,"Velocity":46,"Duration":850580,"SoundDuration":850580,"Delta":58510219},{"NoteNumber":47,"Velocity":36,"Duration":850580,"SoundDuration":850580,"Delta":58510219},{"NoteNumber":54,"Velocity":36,"Duration":850580,"SoundDuration":850580,"Delta":58510219},{"NoteNumber":59,"Velocity":42,"Duration":850580,"SoundDuration":850580,"Delta":58510219},{"NoteNumber":66,"Velocity":57,"Duration":431654,"SoundDuration":431654,"Delta":59360800},{"NoteNumber":68,"Velocity":52,"Duration":244755,"SoundDuration":244755,"Delta":59792454},{"NoteNumber":69,"Velocity":46,"Duration":217633,"SoundDuration":217633,"Delta":60002245},{"NoteNumber":63,"Velocity":49,"Duration":867341,"SoundDuration":867341,"Delta":60219878},{"NoteNumber":73,"Velocity":54,"Duration":419580,"SoundDuration":419580,"Delta":60219878},{"NoteNumber":47,"Velocity":37,"Duration":867341,"SoundDuration":867341,"Delta":60219878},{"NoteNumber":57,"Velocity":45,"Duration":867341,"SoundDuration":867341,"Delta":60219878},{"NoteNumber":70,"Velocity":44,"Duration":905776,"SoundDuration":905776,"Delta":60639458},{"NoteNumber":62,"Velocity":40,"Duration":938015,"SoundDuration":938015,"Delta":61087219},{"NoteNumber":56,"Velocity":34,"Duration":938015,"SoundDuration":938015,"Delta":61087219},{"NoteNumber":52,"Velocity":28,"Duration":938015,"SoundDuration":938015,"Delta":61087219},{"NoteNumber":71,"Velocity":42,"Duration":479999,"SoundDuration":479999,"Delta":61545235},{"NoteNumber":66,"Velocity":55,"Duration":425290,"SoundDuration":425290,"Delta":62025235},{"NoteNumber":68,"Velocity":54,"Duration":242393,"SoundDuration":242393,"Delta":62450525},{"NoteNumber":69,"Velocity":47,"Duration":224349,"SoundDuration":224349,"Delta":62655527},{"NoteNumber":64,"Velocity":36,"Duration":850580,"SoundDuration":850580,"Delta":62879877},{"NoteNumber":59,"Velocity":36,"Duration":850580,"SoundDuration":850580,"Delta":62879877},{"NoteNumber":68,"Velocity":55,"Duration":425290,"SoundDuration":425290,"Delta":62879877},{"NoteNumber":50,"Velocity":44,"Duration":850580,"SoundDuration":850580,"Delta":62879877},{"NoteNumber":52,"Velocity":44,"Duration":2555539,"SoundDuration":2555539,"Delta":62879877},{"NoteNumber":71,"Velocity":45,"Duration":425290,"SoundDuration":425290,"Delta":63305167},{"NoteNumber":64,"Velocity":55,"Duration":1704958,"SoundDuration":1704958,"Delta":63730458},{"NoteNumber":49,"Velocity":42,"Duration":850581,"SoundDuration":850581,"Delta":63730458},{"NoteNumber":69,"Velocity":55,"Duration":425290,"SoundDuration":425290,"Delta":64155748},{"NoteNumber":68,"Velocity":52,"Duration":381309,"SoundDuration":381309,"Delta":64581039},{"NoteNumber":71,"Velocity":62,"Duration":381309,"SoundDuration":381309,"Delta":64581039},{"NoteNumber":47,"Velocity":53,"Duration":381309,"SoundDuration":381309,"Delta":64581039},{"NoteNumber":73,"Velocity":67,"Duration":401870,"SoundDuration":401870,"Delta":64997012},{"NoteNumber":69,"Velocity":57,"Duration":401870,"SoundDuration":401870,"Delta":64997012},{"NoteNumber":45,"Velocity":56,"Duration":401870,"SoundDuration":401870,"Delta":64997012},{"NoteNumber":76,"Velocity":61,"Duration":850581,"SoundDuration":850581,"Delta":65435416},{"NoteNumber":71,"Velocity":51,"Duration":850581,"SoundDuration":850581,"Delta":65435416},{"NoteNumber":64,"Velocity":47,"Duration":1701161,"SoundDuration":1701161,"Delta":65435416},{"NoteNumber":44,"Velocity":43,"Duration":850581,"SoundDuration":850581,"Delta":65435416},{"NoteNumber":52,"Velocity":45,"Duration":1701161,"SoundDuration":1701161,"Delta":65435416},{"NoteNumber":69,"Velocity":54,"Duration":850580,"SoundDuration":850580,"Delta":66285997},{"NoteNumber":73,"Velocity":63,"Duration":850580,"SoundDuration":850580,"Delta":66285997},{"NoteNumber":45,"Velocity":43,"Duration":850580,"SoundDuration":850580,"Delta":66285997},{"NoteNumber":73,"Velocity":72,"Duration":412995,"SoundDuration":412995,"Delta":67136578},{"NoteNumber":75,"Velocity":70,"Duration":243031,"SoundDuration":243031,"Delta":67549574},{"NoteNumber":76,"Velocity":66,"Duration":219201,"SoundDuration":219201,"Delta":67756072},{"NoteNumber":68,"Velocity":74,"Duration":418994,"SoundDuration":418994,"Delta":67975274},{"NoteNumber":64,"Velocity":50,"Duration":850711,"SoundDuration":850711,"Delta":67975274},{"NoteNumber":47,"Velocity":46,"Duration":2572347,"SoundDuration":2572347,"Delta":67975274},{"NoteNumber":73,"Velocity":60,"Duration":431717,"SoundDuration":431717,"Delta":68394268},{"NoteNumber":63,"Velocity":47,"Duration":870526,"SoundDuration":870526,"Delta":68825985},{"NoteNumber":66,"Velocity":47,"Duration":870526,"SoundDuration":870526,"Delta":68825985},{"NoteNumber":71,"Velocity":66,"Duration":870526,"SoundDuration":870526,"Delta":68825985},{"NoteNumber":57,"Velocity":57,"Duration":425290,"SoundDuration":425290,"Delta":68825985},{"NoteNumber":59,"Velocity":52,"Duration":445235,"SoundDuration":445235,"Delta":69251276},{"NoteNumber":71,"Velocity":60,"Duration":851109,"SoundDuration":851109,"Delta":69696512},{"NoteNumber":64,"Velocity":60,"Duration":851109,"SoundDuration":851109,"Delta":69696512},{"NoteNumber":73,"Velocity":78,"Duration":418994,"SoundDuration":418994,"Delta":69696512},{"NoteNumber":56,"Velocity":58,"Duration":851109,"SoundDuration":851109,"Delta":69696512},{"NoteNumber":75,"Velocity":70,"Duration":246600,"SoundDuration":246600,"Delta":70115506},{"NoteNumber":76,"Velocity":64,"Duration":222617,"SoundDuration":222617,"Delta":70325003},{"NoteNumber":64,"Velocity":50,"Duration":860820,"SoundDuration":860820,"Delta":70547621},{"NoteNumber":68,"Velocity":74,"Duration":418994,"SoundDuration":418994,"Delta":70547621},{"NoteNumber":47,"Velocity":48,"Duration":1812252,"SoundDuration":1812252,"Delta":70547621},{"NoteNumber":73,"Velocity":62,"Duration":441826,"SoundDuration":441826,"Delta":70966616},{"NoteNumber":71,"Velocity":66,"Duration":951432,"SoundDuration":951432,"Delta":71408442},{"NoteNumber":66,"Velocity":47,"Duration":951432,"SoundDuration":951432,"Delta":71408442},{"NoteNumber":63,"Velocity":47,"Duration":951432,"SoundDuration":951432,"Delta":71408442},{"NoteNumber":57,"Velocity":57,"Duration":425290,"SoundDuration":425290,"Delta":71408442},{"NoteNumber":59,"Velocity":52,"Duration":526141,"SoundDuration":526141,"Delta":71833732},{"NoteNumber":64,"Velocity":48,"Duration":2952476,"SoundDuration":2952476,"Delta":72359874},{"NoteNumber":67,"Velocity":48,"Duration":2952476,"SoundDuration":2952476,"Delta":72359874},{"NoteNumber":76,"Velocity":61,"Duration":991736,"SoundDuration":991736,"Delta":72359874},{"NoteNumber":48,"Velocity":40,"Duration":2952476,"SoundDuration":2952476,"Delta":72359874},{"NoteNumber":55,"Velocity":40,"Duration":2952476,"SoundDuration":2952476,"Delta":72359874},{"NoteNumber":60,"Velocity":48,"Duration":2952476,"SoundDuration":2952476,"Delta":72359874},{"NoteNumber":74,"Velocity":52,"Duration":472441,"SoundDuration":472441,"Delta":73351610},{"NoteNumber":72,"Velocity":44,"Duration":495868,"SoundDuration":495868,"Delta":73824051},{"NoteNumber":71,"Velocity":50,"Duration":479611,"SoundDuration":479611,"Delta":74319919},{"NoteNumber":70,"Velocity":42,"Duration":512820,"SoundDuration":512820,"Delta":74799531},{"NoteNumber":40,"Velocity":31,"Duration":168350,"SoundDuration":168350,"Delta":75497537},{"NoteNumber":47,"Velocity":30,"Duration":151515,"SoundDuration":151515,"Delta":75665887},{"NoteNumber":55,"Velocity":38,"Duration":151515,"SoundDuration":151515,"Delta":75817402},{"NoteNumber":59,"Velocity":34,"Duration":151515,"SoundDuration":151515,"Delta":75968917},{"NoteNumber":64,"Velocity":36,"Duration":151515,"SoundDuration":151515,"Delta":76120432},{"NoteNumber":69,"Velocity":39,"Duration":149819,"SoundDuration":149819,"Delta":76271947},{"NoteNumber":67,"Velocity":34,"Duration":149253,"SoundDuration":149253,"Delta":76421766},{"NoteNumber":64,"Velocity":34,"Duration":142700,"SoundDuration":142700,"Delta":76571020},{"NoteNumber":70,"Velocity":38,"Duration":138892,"SoundDuration":138892,"Delta":76713721},{"NoteNumber":71,"Velocity":34,"Duration":136989,"SoundDuration":136989,"Delta":76852613},{"NoteNumber":76,"Velocity":34,"Duration":134914,"SoundDuration":134914,"Delta":76989603},{"NoteNumber":78,"Velocity":38,"Duration":133333,"SoundDuration":133333,"Delta":77124517},{"NoteNumber":79,"Velocity":34,"Duration":133333,"SoundDuration":133333,"Delta":77257851},{"NoteNumber":83,"Velocity":34,"Duration":135159,"SoundDuration":135159,"Delta":77391184},{"NoteNumber":88,"Velocity":40,"Duration":246872,"SoundDuration":246872,"Delta":77526344},{"NoteNumber":64,"Velocity":48,"Duration":2911839,"SoundDuration":2911839,"Delta":78009939},{"NoteNumber":67,"Velocity":48,"Duration":2911839,"SoundDuration":2911839,"Delta":78009939},{"NoteNumber":76,"Velocity":61,"Duration":952381,"SoundDuration":952381,"Delta":78009939},{"NoteNumber":48,"Velocity":40,"Duration":2911839,"SoundDuration":2911839,"Delta":78009939},{"NoteNumber":55,"Velocity":40,"Duration":2911839,"SoundDuration":2911839,"Delta":78009939},{"NoteNumber":60,"Velocity":48,"Duration":2911839,"SoundDuration":2911839,"Delta":78009939},{"NoteNumber":74,"Velocity":55,"Duration":458015,"SoundDuration":458015,"Delta":78962320},{"NoteNumber":72,"Velocity":46,"Duration":504201,"SoundDuration":504201,"Delta":79420335},{"NoteNumber":71,"Velocity":50,"Duration":480000,"SoundDuration":480000,"Delta":79924537},{"NoteNumber":70,"Velocity":41,"Duration":517241,"SoundDuration":517241,"Delta":80404537},{"NoteNumber":40,"Velocity":31,"Duration":170977,"SoundDuration":170977,"Delta":81108694},{"NoteNumber":47,"Velocity":30,"Duration":155038,"SoundDuration":155038,"Delta":81279671},{"NoteNumber":55,"Velocity":38,"Duration":155038,"SoundDuration":155038,"Delta":81434710},{"NoteNumber":59,"Velocity":34,"Duration":155038,"SoundDuration":155038,"Delta":81589749},{"NoteNumber":64,"Velocity":36,"Duration":155038,"SoundDuration":155038,"Delta":81744788},{"NoteNumber":69,"Velocity":39,"Duration":153775,"SoundDuration":153775,"Delta":81899827},{"NoteNumber":67,"Velocity":34,"Duration":153775,"SoundDuration":153775,"Delta":82053602},{"NoteNumber":64,"Velocity":34,"Duration":152368,"SoundDuration":152368,"Delta":82207377},{"NoteNumber":60,"Velocity":38,"Duration":147062,"SoundDuration":147062,"Delta":82359745},{"NoteNumber":59,"Velocity":34,"Duration":144406,"SoundDuration":144406,"Delta":82506808},{"NoteNumber":55,"Velocity":34,"Duration":141847,"SoundDuration":141847,"Delta":82651214},{"NoteNumber":48,"Velocity":37,"Duration":139617,"SoundDuration":139617,"Delta":82793062},{"NoteNumber":47,"Velocity":34,"Duration":137698,"SoundDuration":137698,"Delta":82932679},{"NoteNumber":43,"Velocity":33,"Duration":135364,"SoundDuration":135364,"Delta":83070377},{"NoteNumber":40,"Velocity":40,"Duration":472972,"SoundDuration":472972,"Delta":83205742},{"NoteNumber":64,"Velocity":48,"Duration":2956129,"SoundDuration":2956129,"Delta":83678715},{"NoteNumber":67,"Velocity":48,"Duration":2956129,"SoundDuration":2956129,"Delta":83678715},{"NoteNumber":76,"Velocity":61,"Duration":975610,"SoundDuration":975610,"Delta":83678715},{"NoteNumber":48,"Velocity":40,"Duration":2956129,"SoundDuration":2956129,"Delta":83678715},{"NoteNumber":55,"Velocity":40,"Duration":2956129,"SoundDuration":2956129,"Delta":83678715},{"NoteNumber":60,"Velocity":48,"Duration":2956129,"SoundDuration":2956129,"Delta":83678715},{"NoteNumber":74,"Velocity":53,"Duration":461538,"SoundDuration":461538,"Delta":84654325},{"NoteNumber":72,"Velocity":45,"Duration":517241,"SoundDuration":517241,"Delta":85115864},{"NoteNumber":71,"Velocity":51,"Duration":480000,"SoundDuration":480000,"Delta":85633105},{"NoteNumber":70,"Velocity":44,"Duration":521738,"SoundDuration":521738,"Delta":86113105},{"NoteNumber":40,"Velocity":31,"Duration":160503,"SoundDuration":160503,"Delta":86804336},{"NoteNumber":47,"Velocity":30,"Duration":151515,"SoundDuration":151515,"Delta":86964839},{"NoteNumber":55,"Velocity":38,"Duration":151515,"SoundDuration":151515,"Delta":87116354},{"NoteNumber":59,"Velocity":34,"Duration":151515,"SoundDuration":151515,"Delta":87267869},{"NoteNumber":64,"Velocity":36,"Duration":151515,"SoundDuration":151515,"Delta":87419385},{"NoteNumber":69,"Velocity":39,"Duration":151515,"SoundDuration":151515,"Delta":87570900},{"NoteNumber":67,"Velocity":34,"Duration":150673,"SoundDuration":150673,"Delta":87722415},{"NoteNumber":64,"Velocity":34,"Duration":146529,"SoundDuration":146529,"Delta":87873088},{"NoteNumber":70,"Velocity":38,"Duration":143378,"SoundDuration":143378,"Delta":88019618},{"NoteNumber":71,"Velocity":34,"Duration":140359,"SoundDuration":140359,"Delta":88162997},{"NoteNumber":76,"Velocity":34,"Duration":137465,"SoundDuration":137465,"Delta":88303356},{"NoteNumber":78,"Velocity":38,"Duration":135135,"SoundDuration":135135,"Delta":88440821},{"NoteNumber":79,"Velocity":34,"Duration":135135,"SoundDuration":135135,"Delta":88575956},{"NoteNumber":83,"Velocity":34,"Duration":142137,"SoundDuration":142137,"Delta":88711092},{"NoteNumber":88,"Velocity":40,"Duration":248797,"SoundDuration":248797,"Delta":88853229},{"NoteNumber":64,"Velocity":48,"Duration":2979785,"SoundDuration":2979785,"Delta":89350824},{"NoteNumber":67,"Velocity":48,"Duration":2979785,"SoundDuration":2979785,"Delta":89350824},{"NoteNumber":76,"Velocity":61,"Duration":983607,"SoundDuration":983607,"Delta":89350824},{"NoteNumber":48,"Velocity":40,"Duration":2979785,"SoundDuration":2979785,"Delta":89350824},{"NoteNumber":55,"Velocity":40,"Duration":2979785,"SoundDuration":2979785,"Delta":89350824},{"NoteNumber":60,"Velocity":48,"Duration":2979785,"SoundDuration":2979785,"Delta":89350824},{"NoteNumber":74,"Velocity":57,"Duration":468750,"SoundDuration":468750,"Delta":90334431},{"NoteNumber":72,"Velocity":52,"Duration":517241,"SoundDuration":517241,"Delta":90803181},{"NoteNumber":71,"Velocity":57,"Duration":483870,"SoundDuration":483870,"Delta":91320422},{"NoteNumber":70,"Velocity":51,"Duration":526315,"SoundDuration":526315,"Delta":91804293},{"NoteNumber":76,"Velocity":58,"Duration":491803,"SoundDuration":491803,"Delta":92822413},{"NoteNumber":64,"Velocity":45,"Duration":1990871,"SoundDuration":1990871,"Delta":93314216},{"NoteNumber":67,"Velocity":59,"Duration":1990871,"SoundDuration":1990871,"Delta":93314216},{"NoteNumber":74,"Velocity":65,"Duration":472441,"SoundDuration":472441,"Delta":93314216},{"NoteNumber":48,"Velocity":34,"Duration":1990871,"SoundDuration":1990871,"Delta":93314216},{"NoteNumber":55,"Velocity":37,"Duration":1990871,"SoundDuration":1990871,"Delta":93314216},{"NoteNumber":60,"Velocity":46,"Duration":1990871,"SoundDuration":1990871,"Delta":93314216},{"NoteNumber":72,"Velocity":60,"Duration":512820,"SoundDuration":512820,"Delta":93786657},{"NoteNumber":71,"Velocity":69,"Duration":483870,"SoundDuration":483870,"Delta":94299478},{"NoteNumber":70,"Velocity":69,"Duration":521738,"SoundDuration":521738,"Delta":94783349},{"NoteNumber":77,"Velocity":72,"Duration":987445,"SoundDuration":987445,"Delta":95305088},{"NoteNumber":49,"Velocity":57,"Duration":502929,"SoundDuration":502929,"Delta":95474579},{"NoteNumber":56,"Velocity":57,"Duration":169491,"SoundDuration":169491,"Delta":95644071},{"NoteNumber":61,"Velocity":62,"Duration":163946,"SoundDuration":163946,"Delta":95813562},{"NoteNumber":65,"Velocity":57,"Duration":158993,"SoundDuration":158993,"Delta":95977509},{"NoteNumber":68,"Velocity":57,"Duration":156030,"SoundDuration":156030,"Delta":96136503},{"NoteNumber":70,"Velocity":74,"Duration":920309,"SoundDuration":920309,"Delta":96292533},{"NoteNumber":49,"Velocity":58,"Duration":469452,"SoundDuration":469452,"Delta":96448564},{"NoteNumber":51,"Velocity":58,"Duration":156030,"SoundDuration":156030,"Delta":96604594},{"NoteNumber":58,"Velocity":62,"Duration":157391,"SoundDuration":157391,"Delta":96760625},{"NoteNumber":63,"Velocity":55,"Duration":150397,"SoundDuration":150397,"Delta":96918017},{"NoteNumber":67,"Velocity":55,"Duration":144428,"SoundDuration":144428,"Delta":97068414},{"NoteNumber":75,"Velocity":74,"Duration":905976,"SoundDuration":905976,"Delta":97212843},{"NoteNumber":48,"Velocity":59,"Duration":461891,"SoundDuration":461891,"Delta":97367737},{"NoteNumber":51,"Velocity":59,"Duration":154894,"SoundDuration":154894,"Delta":97522632},{"NoteNumber":60,"Velocity":62,"Duration":152102,"SoundDuration":152102,"Delta":97677527},{"NoteNumber":63,"Velocity":57,"Duration":147078,"SoundDuration":147078,"Delta":97829629},{"NoteNumber":68,"Velocity":57,"Duration":124629,"SoundDuration":124629,"Delta":97976708},{"NoteNumber":68,"Velocity":74,"Duration":925982,"SoundDuration":925982,"Delta":98118819},{"NoteNumber":46,"Velocity":59,"Duration":453960,"SoundDuration":453960,"Delta":98272736},{"NoteNumber":53,"Velocity":59,"Duration":152431,"SoundDuration":152431,"Delta":98426653},{"NoteNumber":58,"Velocity":62,"Duration":147611,"SoundDuration":147611,"Delta":98579085},{"NoteNumber":61,"Velocity":57,"Duration":154170,"SoundDuration":154170,"Delta":98726696},{"NoteNumber":65,"Velocity":57,"Duration":163934,"SoundDuration":163934,"Delta":98880867},{"NoteNumber":67,"Velocity":66,"Duration":510608,"SoundDuration":510608,"Delta":99044801},{"NoteNumber":68,"Velocity":58,"Duration":498338,"SoundDuration":498338,"Delta":99517242},{"NoteNumber":61,"Velocity":41,"Duration":1014844,"SoundDuration":1014844,"Delta":99975258},{"NoteNumber":63,"Velocity":41,"Duration":1014844,"SoundDuration":1014844,"Delta":99975258},{"NoteNumber":72,"Velocity":58,"Duration":528118,"SoundDuration":528118,"Delta":99975258},{"NoteNumber":51,"Velocity":34,"Duration":1014844,"SoundDuration":1014844,"Delta":99975258},{"NoteNumber":55,"Velocity":34,"Duration":1014844,"SoundDuration":1014844,"Delta":99975258},{"NoteNumber":70,"Velocity":42,"Duration":530973,"SoundDuration":530973,"Delta":100459129},{"NoteNumber":77,"Velocity":71,"Duration":939761,"SoundDuration":939761,"Delta":100990102},{"NoteNumber":49,"Velocity":57,"Duration":477620,"SoundDuration":477620,"Delta":101159594},{"NoteNumber":56,"Velocity":57,"Duration":157463,"SoundDuration":157463,"Delta":101329085},{"NoteNumber":61,"Velocity":62,"Duration":150664,"SoundDuration":150664,"Delta":101486549},{"NoteNumber":65,"Velocity":57,"Duration":147879,"SoundDuration":147879,"Delta":101637214},{"NoteNumber":68,"Velocity":57,"Duration":144769,"SoundDuration":144769,"Delta":101785094},{"NoteNumber":70,"Velocity":73,"Duration":890075,"SoundDuration":890075,"Delta":101929863},{"NoteNumber":49,"Velocity":58,"Duration":456636,"SoundDuration":456636,"Delta":102085894},{"NoteNumber":51,"Velocity":58,"Duration":154336,"SoundDuration":154336,"Delta":102241924},{"NoteNumber":58,"Velocity":62,"Duration":146269,"SoundDuration":146269,"Delta":102396260},{"NoteNumber":63,"Velocity":55,"Duration":141108,"SoundDuration":141108,"Delta":102542530},{"NoteNumber":67,"Velocity":55,"Duration":136300,"SoundDuration":136300,"Delta":102683639},{"NoteNumber":75,"Velocity":75,"Duration":916531,"SoundDuration":916531,"Delta":102819939},{"NoteNumber":48,"Velocity":59,"Duration":449441,"SoundDuration":449441,"Delta":102974833},{"NoteNumber":51,"Velocity":59,"Duration":152667,"SoundDuration":152667,"Delta":103129728},{"NoteNumber":60,"Velocity":62,"Duration":141879,"SoundDuration":141879,"Delta":103282395},{"NoteNumber":63,"Velocity":57,"Duration":134258,"SoundDuration":134258,"Delta":103424275},{"NoteNumber":68,"Velocity":57,"Duration":177937,"SoundDuration":177937,"Delta":103558533},{"NoteNumber":80,"Velocity":76,"Duration":888195,"SoundDuration":888195,"Delta":103736470},{"NoteNumber":53,"Velocity":57,"Duration":453504,"SoundDuration":453504,"Delta":103890388},{"NoteNumber":60,"Velocity":57,"Duration":153329,"SoundDuration":153329,"Delta":104044305},{"NoteNumber":65,"Velocity":62,"Duration":146257,"SoundDuration":146257,"Delta":104197634},{"NoteNumber":68,"Velocity":57,"Duration":142357,"SoundDuration":142357,"Delta":104343892},{"NoteNumber":72,"Velocity":57,"Duration":138416,"SoundDuration":138416,"Delta":104486250},{"NoteNumber":74,"Velocity":74,"Duration":881299,"SoundDuration":881299,"Delta":104624666},{"NoteNumber":53,"Velocity":58,"Duration":448818,"SoundDuration":448818,"Delta":104778583},{"NoteNumber":55,"Velocity":58,"Duration":150487,"SoundDuration":150487,"Delta":104932501},{"NoteNumber":62,"Velocity":62,"Duration":144413,"SoundDuration":144413,"Delta":105082989},{"NoteNumber":67,"Velocity":55,"Duration":141098,"SoundDuration":141098,"Delta":105227402},{"NoteNumber":71,"Velocity":55,"Duration":137465,"SoundDuration":137465,"Delta":105368501},{"NoteNumber":79,"Velocity":75,"Duration":891846,"SoundDuration":891846,"Delta":105505966},{"NoteNumber":51,"Velocity":59,"Duration":455169,"SoundDuration":455169,"Delta":105659883},{"NoteNumber":55,"Velocity":59,"Duration":153917,"SoundDuration":153917,"Delta":105813800},{"NoteNumber":63,"Velocity":62,"Duration":147335,"SoundDuration":147335,"Delta":105967717},{"NoteNumber":67,"Velocity":57,"Duration":143378,"SoundDuration":143378,"Delta":106115052},{"NoteNumber":72,"Velocity":57,"Duration":139381,"SoundDuration":139381,"Delta":106258431},{"NoteNumber":71,"Velocity":71,"Duration":908259,"SoundDuration":908259,"Delta":106397812},{"NoteNumber":49,"Velocity":57,"Duration":153917,"SoundDuration":153917,"Delta":106551729},{"NoteNumber":55,"Velocity":57,"Duration":153917,"SoundDuration":153917,"Delta":106705646},{"NoteNumber":61,"Velocity":58,"Duration":151831,"SoundDuration":151831,"Delta":106859563},{"NoteNumber":59,"Velocity":55,"Duration":148885,"SoundDuration":148885,"Delta":107011395},{"NoteNumber":65,"Velocity":55,"Duration":145792,"SoundDuration":145792,"Delta":107160280},{"NoteNumber":70,"Velocity":68,"Duration":481481,"SoundDuration":481481,"Delta":107306072},{"NoteNumber":71,"Velocity":64,"Duration":482323,"SoundDuration":482323,"Delta":107750516},{"NoteNumber":64,"Velocity":45,"Duration":938650,"SoundDuration":938650,"Delta":108194961},{"NoteNumber":67,"Velocity":58,"Duration":938650,"SoundDuration":938650,"Delta":108194961},{"NoteNumber":76,"Velocity":58,"Duration":494887,"SoundDuration":494887,"Delta":108194961},{"NoteNumber":48,"Velocity":39,"Duration":938650,"SoundDuration":938650,"Delta":108194961},{"NoteNumber":55,"Velocity":46,"Duration":938650,"SoundDuration":938650,"Delta":108194961},{"NoteNumber":60,"Velocity":46,"Duration":938650,"SoundDuration":938650,"Delta":108194961},{"NoteNumber":72,"Velocity":47,"Duration":484104,"SoundDuration":484104,"Delta":108649506},{"NoteNumber":71,"Velocity":71,"Duration":893662,"SoundDuration":893662,"Delta":109133611},{"NoteNumber":49,"Velocity":57,"Duration":153917,"SoundDuration":153917,"Delta":109287529},{"NoteNumber":55,"Velocity":57,"Duration":152751,"SoundDuration":152751,"Delta":109441446},{"NoteNumber":61,"Velocity":58,"Duration":146529,"SoundDuration":146529,"Delta":109594197},{"NoteNumber":59,"Velocity":55,"Duration":142357,"SoundDuration":142357,"Delta":109740727},{"NoteNumber":65,"Velocity":55,"Duration":144189,"SoundDuration":144189,"Delta":109883085},{"NoteNumber":70,"Velocity":68,"Duration":519336,"SoundDuration":519336,"Delta":110027274},{"NoteNumber":71,"Velocity":58,"Duration":210359,"SoundDuration":210359,"Delta":110499864},{"NoteNumber":48,"Velocity":46,"Duration":1287543,"SoundDuration":1287543,"Delta":110710223},{"NoteNumber":55,"Velocity":46,"Duration":1217424,"SoundDuration":1217424,"Delta":110780343},{"NoteNumber":64,"Velocity":46,"Duration":1147304,"SoundDuration":1147304,"Delta":110850462},{"NoteNumber":67,"Velocity":64,"Duration":1077184,"SoundDuration":1077184,"Delta":110920582},{"NoteNumber":72,"Velocity":64,"Duration":1007065,"SoundDuration":1007065,"Delta":110990702},{"NoteNumber":79,"Velocity":69,"Duration":287769,"SoundDuration":287769,"Delta":111060821},{"NoteNumber":76,"Velocity":63,"Duration":310077,"SoundDuration":310077,"Delta":111348591},{"NoteNumber":72,"Velocity":63,"Duration":339097,"SoundDuration":339097,"Delta":111658669},{"NoteNumber":71,"Velocity":71,"Duration":914557,"SoundDuration":914557,"Delta":111997767},{"NoteNumber":49,"Velocity":57,"Duration":153917,"SoundDuration":153917,"Delta":112151684},{"NoteNumber":55,"Velocity":57,"Duration":153917,"SoundDuration":153917,"Delta":112305601},{"NoteNumber":61,"Velocity":58,"Duration":152104,"SoundDuration":152104,"Delta":112459518},{"NoteNumber":59,"Velocity":55,"Duration":149938,"SoundDuration":149938,"Delta":112611623},{"NoteNumber":65,"Velocity":55,"Duration":150763,"SoundDuration":150763,"Delta":112761561},{"NoteNumber":70,"Velocity":69,"Duration":500000,"SoundDuration":500000,"Delta":112912324},{"NoteNumber":71,"Velocity":64,"Duration":519248,"SoundDuration":519248,"Delta":113373863},{"NoteNumber":64,"Velocity":51,"Duration":929991,"SoundDuration":929991,"Delta":113854632},{"NoteNumber":67,"Velocity":57,"Duration":929991,"SoundDuration":929991,"Delta":113854632},{"NoteNumber":76,"Velocity":65,"Duration":486228,"SoundDuration":486228,"Delta":113854632},{"NoteNumber":48,"Velocity":39,"Duration":929991,"SoundDuration":929991,"Delta":113854632},{"NoteNumber":55,"Velocity":39,"Duration":929991,"SoundDuration":929991,"Delta":113854632},{"NoteNumber":60,"Velocity":47,"Duration":929991,"SoundDuration":929991,"Delta":113854632},{"NoteNumber":72,"Velocity":49,"Duration":484104,"SoundDuration":484104,"Delta":114300519},{"NoteNumber":71,"Velocity":73,"Duration":913600,"SoundDuration":913600,"Delta":114784624},{"NoteNumber":49,"Velocity":57,"Duration":153917,"SoundDuration":153917,"Delta":114938541},{"NoteNumber":55,"Velocity":57,"Duration":153917,"SoundDuration":153917,"Delta":115092458},{"NoteNumber":61,"Velocity":58,"Duration":153211,"SoundDuration":153211,"Delta":115246375},{"NoteNumber":59,"Velocity":55,"Duration":149406,"SoundDuration":149406,"Delta":115399587},{"NoteNumber":65,"Velocity":55,"Duration":149231,"SoundDuration":149231,"Delta":115548994},{"NoteNumber":70,"Velocity":70,"Duration":461751,"SoundDuration":461751,"Delta":115698225},{"NoteNumber":71,"Velocity":58,"Duration":225089,"SoundDuration":225089,"Delta":116159976},{"NoteNumber":71,"Velocity":53,"Duration":75030,"SoundDuration":75030,"Delta":116385066},{"NoteNumber":72,"Velocity":58,"Duration":75029,"SoundDuration":75029,"Delta":116460096},{"NoteNumber":71,"Velocity":52,"Duration":75029,"SoundDuration":75029,"Delta":116535126},{"NoteNumber":70,"Velocity":58,"Duration":75029,"SoundDuration":75029,"Delta":116610156},{"NoteNumber":71,"Velocity":52,"Duration":75029,"SoundDuration":75029,"Delta":116685186},{"NoteNumber":80,"Velocity":69,"Duration":307692,"SoundDuration":307692,"Delta":116760216},{"NoteNumber":79,"Velocity":63,"Duration":496478,"SoundDuration":496478,"Delta":117067909},{"NoteNumber":77,"Velocity":63,"Duration":182573,"SoundDuration":182573,"Delta":117564387},{"NoteNumber":77,"Velocity":79,"Duration":961434,"SoundDuration":961434,"Delta":117746960},{"NoteNumber":48,"Velocity":57,"Duration":475054,"SoundDuration":475054,"Delta":117905766},{"NoteNumber":55,"Velocity":57,"Duration":157196,"SoundDuration":157196,"Delta":118064572},{"NoteNumber":64,"Velocity":58,"Duration":159052,"SoundDuration":159052,"Delta":118221769},{"NoteNumber":67,"Velocity":55,"Duration":162279,"SoundDuration":162279,"Delta":118380821},{"NoteNumber":72,"Velocity":55,"Duration":165294,"SoundDuration":165294,"Delta":118543100},{"NoteNumber":76,"Velocity":73,"Duration":508498,"SoundDuration":508498,"Delta":118708395},{"NoteNumber":75,"Velocity":64,"Duration":169491,"SoundDuration":169491,"Delta":118876462},{"NoteNumber":76,"Velocity":53,"Duration":170940,"SoundDuration":170940,"Delta":119045954},{"NoteNumber":79,"Velocity":53,"Duration":172413,"SoundDuration":172413,"Delta":119216894},{"NoteNumber":78,"Velocity":52,"Duration":174294,"SoundDuration":174294,"Delta":119389308},{"NoteNumber":79,"Velocity":46,"Duration":202142,"SoundDuration":202142,"Delta":119563602},{"NoteNumber":84,"Velocity":52,"Duration":606428,"SoundDuration":606428,"Delta":119765745},{"NoteNumber":64,"Velocity":48,"Duration":2952476,"SoundDuration":2952476,"Delta":120978601},{"NoteNumber":67,"Velocity":48,"Duration":2952476,"SoundDuration":2952476,"Delta":120978601},{"NoteNumber":76,"Velocity":61,"Duration":991736,"SoundDuration":991736,"Delta":120978601},{"NoteNumber":48,"Velocity":40,"Duration":2952476,"SoundDuration":2952476,"Delta":120978601},{"NoteNumber":55,"Velocity":40,"Duration":2952476,"SoundDuration":2952476,"Delta":120978601},{"NoteNumber":60,"Velocity":48,"Duration":2952476,"SoundDuration":2952476,"Delta":120978601},{"NoteNumber":74,"Velocity":53,"Duration":472441,"SoundDuration":472441,"Delta":121970337},{"NoteNumber":72,"Velocity":45,"Duration":495868,"SoundDuration":495868,"Delta":122442778},{"NoteNumber":71,"Velocity":52,"Duration":479611,"SoundDuration":479611,"Delta":122938646},{"NoteNumber":70,"Velocity":40,"Duration":512820,"SoundDuration":512820,"Delta":123418257},{"NoteNumber":40,"Velocity":31,"Duration":178850,"SoundDuration":178850,"Delta":124137263},{"NoteNumber":47,"Velocity":30,"Duration":151515,"SoundDuration":151515,"Delta":124316114},{"NoteNumber":55,"Velocity":38,"Duration":151515,"SoundDuration":151515,"Delta":124467629},{"NoteNumber":59,"Velocity":34,"Duration":151515,"SoundDuration":151515,"Delta":124619144},{"NoteNumber":64,"Velocity":36,"Duration":149607,"SoundDuration":149607,"Delta":124770659},{"NoteNumber":69,"Velocity":39,"Duration":143370,"SoundDuration":143370,"Delta":124920267},{"NoteNumber":67,"Velocity":34,"Duration":141847,"SoundDuration":141847,"Delta":125063638},{"NoteNumber":64,"Velocity":34,"Duration":139138,"SoundDuration":139138,"Delta":125205485},{"NoteNumber":70,"Velocity":38,"Duration":136989,"SoundDuration":136989,"Delta":125344624},{"NoteNumber":71,"Velocity":34,"Duration":135138,"SoundDuration":135138,"Delta":125481613},{"NoteNumber":76,"Velocity":34,"Duration":133336,"SoundDuration":133336,"Delta":125616752},{"NoteNumber":78,"Velocity":38,"Duration":131579,"SoundDuration":131579,"Delta":125750088},{"NoteNumber":79,"Velocity":34,"Duration":131579,"SoundDuration":131579,"Delta":125881667},{"NoteNumber":83,"Velocity":34,"Duration":134282,"SoundDuration":134282,"Delta":126013246},{"NoteNumber":88,"Velocity":40,"Duration":246872,"SoundDuration":246872,"Delta":126147529},{"NoteNumber":64,"Velocity":48,"Duration":2911839,"SoundDuration":2911839,"Delta":126631123},{"NoteNumber":67,"Velocity":48,"Duration":2911839,"SoundDuration":2911839,"Delta":126631123},{"NoteNumber":76,"Velocity":61,"Duration":952381,"SoundDuration":952381,"Delta":126631123},{"NoteNumber":48,"Velocity":40,"Duration":2911839,"SoundDuration":2911839,"Delta":126631123},{"NoteNumber":55,"Velocity":40,"Duration":2911839,"SoundDuration":2911839,"Delta":126631123},{"NoteNumber":60,"Velocity":48,"Duration":2911839,"SoundDuration":2911839,"Delta":126631123},{"NoteNumber":74,"Velocity":53,"Duration":458015,"SoundDuration":458015,"Delta":127583504},{"NoteNumber":72,"Velocity":44,"Duration":504201,"SoundDuration":504201,"Delta":128041520},{"NoteNumber":71,"Velocity":51,"Duration":479999,"SoundDuration":479999,"Delta":128545721},{"NoteNumber":70,"Velocity":42,"Duration":517241,"SoundDuration":517241,"Delta":129025721},{"NoteNumber":40,"Velocity":31,"Duration":169215,"SoundDuration":169215,"Delta":129729879},{"NoteNumber":47,"Velocity":30,"Duration":151515,"SoundDuration":151515,"Delta":129899094},{"NoteNumber":55,"Velocity":38,"Duration":151515,"SoundDuration":151515,"Delta":130050609},{"NoteNumber":59,"Velocity":34,"Duration":151515,"SoundDuration":151515,"Delta":130202124},{"NoteNumber":64,"Velocity":36,"Duration":151515,"SoundDuration":151515,"Delta":130353640},{"NoteNumber":69,"Velocity":39,"Duration":148148,"SoundDuration":148148,"Delta":130505155},{"NoteNumber":67,"Velocity":34,"Duration":147603,"SoundDuration":147603,"Delta":130653303},{"NoteNumber":64,"Velocity":34,"Duration":147058,"SoundDuration":147058,"Delta":130800906},{"NoteNumber":60,"Velocity":38,"Duration":145195,"SoundDuration":145195,"Delta":130947965},{"NoteNumber":59,"Velocity":34,"Duration":142607,"SoundDuration":142607,"Delta":131093161},{"NoteNumber":55,"Velocity":34,"Duration":139863,"SoundDuration":139863,"Delta":131235769},{"NoteNumber":48,"Velocity":37,"Duration":137225,"SoundDuration":137225,"Delta":131375632},{"NoteNumber":47,"Velocity":34,"Duration":134687,"SoundDuration":134687,"Delta":131512858},{"NoteNumber":43,"Velocity":33,"Duration":135365,"SoundDuration":135365,"Delta":131647546},{"NoteNumber":40,"Velocity":40,"Duration":472972,"SoundDuration":472972,"Delta":131782911},{"NoteNumber":64,"Velocity":48,"Duration":2984848,"SoundDuration":2984848,"Delta":132255884},{"NoteNumber":67,"Velocity":48,"Duration":2984848,"SoundDuration":2984848,"Delta":132255884},{"NoteNumber":76,"Velocity":61,"Duration":975609,"SoundDuration":975609,"Delta":132255884},{"NoteNumber":48,"Velocity":40,"Duration":2984848,"SoundDuration":2984848,"Delta":132255884},{"NoteNumber":55,"Velocity":40,"Duration":2984848,"SoundDuration":2984848,"Delta":132255884},{"NoteNumber":60,"Velocity":48,"Duration":2984848,"SoundDuration":2984848,"Delta":132255884},{"NoteNumber":74,"Velocity":56,"Duration":461538,"SoundDuration":461538,"Delta":133231494},{"NoteNumber":72,"Velocity":45,"Duration":517241,"SoundDuration":517241,"Delta":133693032},{"NoteNumber":71,"Velocity":50,"Duration":479999,"SoundDuration":479999,"Delta":134210274},{"NoteNumber":70,"Velocity":44,"Duration":550458,"SoundDuration":550458,"Delta":134690274},{"NoteNumber":40,"Velocity":31,"Duration":176767,"SoundDuration":176767,"Delta":135442752},{"NoteNumber":47,"Velocity":30,"Duration":151515,"SoundDuration":151515,"Delta":135619520},{"NoteNumber":55,"Velocity":38,"Duration":151515,"SoundDuration":151515,"Delta":135771035},{"NoteNumber":59,"Velocity":34,"Duration":151515,"SoundDuration":151515,"Delta":135922550},{"NoteNumber":64,"Velocity":36,"Duration":151515,"SoundDuration":151515,"Delta":136074065},{"NoteNumber":69,"Velocity":39,"Duration":145720,"SoundDuration":145720,"Delta":136225581},{"NoteNumber":67,"Velocity":34,"Duration":143888,"SoundDuration":143888,"Delta":136371301},{"NoteNumber":64,"Velocity":34,"Duration":141847,"SoundDuration":141847,"Delta":136515190},{"NoteNumber":70,"Velocity":38,"Duration":139863,"SoundDuration":139863,"Delta":136657038},{"NoteNumber":71,"Velocity":34,"Duration":137934,"SoundDuration":137934,"Delta":136796901},{"NoteNumber":76,"Velocity":34,"Duration":136520,"SoundDuration":136520,"Delta":136934835},{"NoteNumber":78,"Velocity":38,"Duration":135135,"SoundDuration":135135,"Delta":137071356},{"NoteNumber":79,"Velocity":34,"Duration":135135,"SoundDuration":135135,"Delta":137206491},{"NoteNumber":83,"Velocity":34,"Duration":142137,"SoundDuration":142137,"Delta":137341626},{"NoteNumber":88,"Velocity":40,"Duration":248797,"SoundDuration":248797,"Delta":137483763},{"NoteNumber":76,"Velocity":64,"Duration":983607,"SoundDuration":983607,"Delta":137981358},{"NoteNumber":64,"Velocity":35,"Duration":1996178,"SoundDuration":1996178,"Delta":138964965},{"NoteNumber":67,"Velocity":42,"Duration":1996178,"SoundDuration":1996178,"Delta":138964965},{"NoteNumber":74,"Velocity":57,"Duration":468750,"SoundDuration":468750,"Delta":138964965},{"NoteNumber":48,"Velocity":30,"Duration":1996178,"SoundDuration":1996178,"Delta":138964965},{"NoteNumber":55,"Velocity":36,"Duration":1996178,"SoundDuration":1996178,"Delta":138964965},{"NoteNumber":60,"Velocity":42,"Duration":1996178,"SoundDuration":1996178,"Delta":138964965},{"NoteNumber":72,"Velocity":48,"Duration":517241,"SoundDuration":517241,"Delta":139433715},{"NoteNumber":71,"Velocity":53,"Duration":483870,"SoundDuration":483870,"Delta":139950957},{"NoteNumber":70,"Velocity":51,"Duration":526316,"SoundDuration":526316,"Delta":140434828},{"NoteNumber":76,"Velocity":58,"Duration":491803,"SoundDuration":491803,"Delta":141452947},{"NoteNumber":64,"Velocity":37,"Duration":1990871,"SoundDuration":1990871,"Delta":141944751},{"NoteNumber":66,"Velocity":44,"Duration":1990871,"SoundDuration":1990871,"Delta":141944751},{"NoteNumber":48,"Velocity":29,"Duration":1990871,"SoundDuration":1990871,"Delta":141944751},{"NoteNumber":54,"Velocity":29,"Duration":1990871,"SoundDuration":1990871,"Delta":141944751},{"NoteNumber":60,"Velocity":38,"Duration":1990871,"SoundDuration":1990871,"Delta":141944751},{"NoteNumber":68,"Velocity":65,"Duration":512820,"SoundDuration":512820,"Delta":142417192},{"NoteNumber":69,"Velocity":67,"Duration":483870,"SoundDuration":483870,"Delta":142930012},{"NoteNumber":70,"Velocity":71,"Duration":521738,"SoundDuration":521738,"Delta":143413883},{"NoteNumber":78,"Velocity":73,"Duration":987445,"SoundDuration":987445,"Delta":143935622},{"NoteNumber":47,"Velocity":57,"Duration":502929,"SoundDuration":502929,"Delta":144105114},{"NoteNumber":54,"Velocity":57,"Duration":169491,"SoundDuration":169491,"Delta":144274605},{"NoteNumber":63,"Velocity":62,"Duration":163946,"SoundDuration":163946,"Delta":144444097},{"NoteNumber":66,"Velocity":57,"Duration":158993,"SoundDuration":158993,"Delta":144608044},{"NoteNumber":71,"Velocity":57,"Duration":156030,"SoundDuration":156030,"Delta":144767037},{"NoteNumber":74,"Velocity":73,"Duration":920309,"SoundDuration":920309,"Delta":144923068},{"NoteNumber":47,"Velocity":58,"Duration":469452,"SoundDuration":469452,"Delta":145079098},{"NoteNumber":55,"Velocity":58,"Duration":156030,"SoundDuration":156030,"Delta":145235129},{"NoteNumber":59,"Velocity":62,"Duration":157391,"SoundDuration":157391,"Delta":145391159},{"NoteNumber":62,"Velocity":55,"Duration":150397,"SoundDuration":150397,"Delta":145548551},{"NoteNumber":67,"Velocity":55,"Duration":144428,"SoundDuration":144428,"Delta":145698948},{"NoteNumber":75,"Velocity":74,"Duration":905976,"SoundDuration":905976,"Delta":145843377},{"NoteNumber":47,"Velocity":59,"Duration":461891,"SoundDuration":461891,"Delta":145998272},{"NoteNumber":54,"Velocity":59,"Duration":154894,"SoundDuration":154894,"Delta":146153166},{"NoteNumber":59,"Velocity":62,"Duration":152102,"SoundDuration":152102,"Delta":146308061},{"NoteNumber":63,"Velocity":57,"Duration":147078,"SoundDuration":147078,"Delta":146460163},{"NoteNumber":66,"Velocity":57,"Duration":124629,"SoundDuration":124629,"Delta":146607242},{"NoteNumber":68,"Velocity":71,"Duration":887974,"SoundDuration":887974,"Delta":146749354},{"NoteNumber":47,"Velocity":59,"Duration":431804,"SoundDuration":431804,"Delta":146889214},{"NoteNumber":53,"Velocity":59,"Duration":139860,"SoundDuration":139860,"Delta":147029074},{"NoteNumber":59,"Velocity":62,"Duration":152084,"SoundDuration":152084,"Delta":147168934},{"NoteNumber":61,"Velocity":57,"Duration":155653,"SoundDuration":155653,"Delta":147321019},{"NoteNumber":65,"Velocity":57,"Duration":160655,"SoundDuration":160655,"Delta":147476673},{"NoteNumber":70,"Velocity":70,"Duration":500813,"SoundDuration":500813,"Delta":147637328},{"NoteNumber":71,"Velocity":64,"Duration":507229,"SoundDuration":507229,"Delta":148099080},{"NoteNumber":64,"Velocity":37,"Duration":945856,"SoundDuration":945856,"Delta":148567830},{"NoteNumber":66,"Velocity":43,"Duration":945856,"SoundDuration":945856,"Delta":148567830},{"NoteNumber":75,"Velocity":69,"Duration":502093,"SoundDuration":502093,"Delta":148567830},{"NoteNumber":47,"Velocity":37,"Duration":945856,"SoundDuration":945856,"Delta":148567830},{"NoteNumber":54,"Velocity":37,"Duration":945856,"SoundDuration":945856,"Delta":148567830},{"NoteNumber":58,"Velocity":37,"Duration":945856,"SoundDuration":945856,"Delta":148567830},{"NoteNumber":73,"Velocity":54,"Duration":484104,"SoundDuration":484104,"Delta":149029581},{"NoteNumber":78,"Velocity":71,"Duration":900571,"SoundDuration":900571,"Delta":149513686},{"NoteNumber":47,"Velocity":57,"Duration":458611,"SoundDuration":458611,"Delta":149670894},{"NoteNumber":54,"Velocity":57,"Duration":153791,"SoundDuration":153791,"Delta":149828102},{"NoteNumber":63,"Velocity":62,"Duration":147611,"SoundDuration":147611,"Delta":149981894},{"NoteNumber":66,"Velocity":57,"Duration":144149,"SoundDuration":144149,"Delta":150129506},{"NoteNumber":71,"Velocity":57,"Duration":140602,"SoundDuration":140602,"Delta":150273655},{"NoteNumber":74,"Velocity":74,"Duration":882622,"SoundDuration":882622,"Delta":150414257},{"NoteNumber":47,"Velocity":58,"Duration":445158,"SoundDuration":445158,"Delta":150564633},{"NoteNumber":55,"Velocity":58,"Duration":150376,"SoundDuration":150376,"Delta":150715009},{"NoteNumber":59,"Velocity":62,"Duration":144406,"SoundDuration":144406,"Delta":150865385},{"NoteNumber":62,"Velocity":55,"Duration":141847,"SoundDuration":141847,"Delta":151009791},{"NoteNumber":67,"Velocity":55,"Duration":145240,"SoundDuration":145240,"Delta":151151639},{"NoteNumber":75,"Velocity":75,"Duration":880160,"SoundDuration":880160,"Delta":151296879},{"NoteNumber":47,"Velocity":59,"Duration":449130,"SoundDuration":449130,"Delta":151448395},{"NoteNumber":54,"Velocity":59,"Duration":151515,"SoundDuration":151515,"Delta":151599910},{"NoteNumber":59,"Velocity":62,"Duration":146100,"SoundDuration":146100,"Delta":151751425},{"NoteNumber":63,"Velocity":57,"Duration":141098,"SoundDuration":141098,"Delta":151897525},{"NoteNumber":66,"Velocity":57,"Duration":121293,"SoundDuration":121293,"Delta":152038624},{"NoteNumber":68,"Velocity":71,"Duration":891483,"SoundDuration":891483,"Delta":152177040},{"NoteNumber":47,"Velocity":59,"Duration":439842,"SoundDuration":439842,"Delta":152324099},{"NoteNumber":53,"Velocity":59,"Duration":147058,"SoundDuration":147058,"Delta":152471158},{"NoteNumber":59,"Velocity":62,"Duration":145724,"SoundDuration":145724,"Delta":152618217},{"NoteNumber":61,"Velocity":57,"Duration":149823,"SoundDuration":149823,"Delta":152763942},{"NoteNumber":65,"Velocity":57,"Duration":154759,"SoundDuration":154759,"Delta":152913765},{"NoteNumber":70,"Velocity":68,"Duration":469248,"SoundDuration":469248,"Delta":153068524},{"NoteNumber":71,"Velocity":57,"Duration":488165,"SoundDuration":488165,"Delta":153500179},{"NoteNumber":64,"Velocity":37,"Duration":928549,"SoundDuration":928549,"Delta":153951307},{"NoteNumber":66,"Velocity":43,"Duration":928549,"SoundDuration":928549,"Delta":153951307},{"NoteNumber":75,"Velocity":69,"Duration":484786,"SoundDuration":484786,"Delta":153951307},{"NoteNumber":47,"Velocity":37,"Duration":928549,"SoundDuration":928549,"Delta":153951307},{"NoteNumber":54,"Velocity":37,"Duration":928549,"SoundDuration":928549,"Delta":153951307},{"NoteNumber":58,"Velocity":37,"Duration":928549,"SoundDuration":928549,"Delta":153951307},{"NoteNumber":73,"Velocity":54,"Duration":484104,"SoundDuration":484104,"Delta":154395751},{"NoteNumber":78,"Velocity":74,"Duration":905055,"SoundDuration":905055,"Delta":154879856},{"NoteNumber":47,"Velocity":57,"Duration":457811,"SoundDuration":457811,"Delta":155033702},{"NoteNumber":54,"Velocity":57,"Duration":153293,"SoundDuration":153293,"Delta":155187548},{"NoteNumber":63,"Velocity":62,"Duration":150671,"SoundDuration":150671,"Delta":155340842},{"NoteNumber":66,"Velocity":57,"Duration":146794,"SoundDuration":146794,"Delta":155491514},{"NoteNumber":71,"Velocity":57,"Duration":146602,"SoundDuration":146602,"Delta":155638308},{"NoteNumber":74,"Velocity":74,"Duration":898491,"SoundDuration":898491,"Delta":155784911},{"NoteNumber":47,"Velocity":58,"Duration":454027,"SoundDuration":454027,"Delta":155937583},{"NoteNumber":55,"Velocity":58,"Duration":152097,"SoundDuration":152097,"Delta":156090255},{"NoteNumber":59,"Velocity":62,"Duration":149257,"SoundDuration":149257,"Delta":156242353},{"NoteNumber":62,"Velocity":55,"Duration":146257,"SoundDuration":146257,"Delta":156391611},{"NoteNumber":67,"Velocity":55,"Duration":145534,"SoundDuration":145534,"Delta":156537868},{"NoteNumber":75,"Velocity":75,"Duration":882557,"SoundDuration":882557,"Delta":156683402},{"NoteNumber":47,"Velocity":59,"Duration":442013,"SoundDuration":442013,"Delta":156831550},{"NoteNumber":54,"Velocity":59,"Duration":147875,"SoundDuration":147875,"Delta":156979699},{"NoteNumber":59,"Velocity":62,"Duration":145989,"SoundDuration":145989,"Delta":157127574},{"NoteNumber":63,"Velocity":57,"Duration":143888,"SoundDuration":143888,"Delta":157273564},{"NoteNumber":66,"Velocity":57,"Duration":128498,"SoundDuration":128498,"Delta":157417452},{"NoteNumber":67,"Velocity":73,"Duration":907291,"SoundDuration":907291,"Delta":157565960},{"NoteNumber":47,"Velocity":57,"Duration":457320,"SoundDuration":457320,"Delta":157719877},{"NoteNumber":53,"Velocity":57,"Duration":153022,"SoundDuration":153022,"Delta":157873795},{"NoteNumber":55,"Velocity":62,"Duration":150380,"SoundDuration":150380,"Delta":158026817},{"NoteNumber":59,"Velocity":57,"Duration":147335,"SoundDuration":147335,"Delta":158177198},{"NoteNumber":62,"Velocity":57,"Duration":148718,"SoundDuration":148718,"Delta":158324533},{"NoteNumber":66,"Velocity":74,"Duration":915224,"SoundDuration":915224,"Delta":158473251},{"NoteNumber":47,"Velocity":58,"Duration":461046,"SoundDuration":461046,"Delta":158627168},{"NoteNumber":54,"Velocity":58,"Duration":153917,"SoundDuration":153917,"Delta":158781086},{"NoteNumber":59,"Velocity":62,"Duration":153211,"SoundDuration":153211,"Delta":158935003},{"NoteNumber":62,"Velocity":55,"Duration":149938,"SoundDuration":149938,"Delta":159088215},{"NoteNumber":63,"Velocity":55,"Duration":150322,"SoundDuration":150322,"Delta":159238153},{"NoteNumber":55,"Velocity":75,"Duration":941416,"SoundDuration":941416,"Delta":159388476},{"NoteNumber":35,"Velocity":59,"Duration":475448,"SoundDuration":475448,"Delta":159546854},{"NoteNumber":41,"Velocity":59,"Duration":158378,"SoundDuration":158378,"Delta":159705232},{"NoteNumber":43,"Velocity":62,"Duration":158692,"SoundDuration":158692,"Delta":159863610},{"NoteNumber":47,"Velocity":57,"Duration":155477,"SoundDuration":155477,"Delta":160022302},{"NoteNumber":50,"Velocity":57,"Duration":133304,"SoundDuration":133304,"Delta":160177780},{"NoteNumber":54,"Velocity":76,"Duration":629350,"SoundDuration":629350,"Delta":160329892},{"NoteNumber":35,"Velocity":59,"Duration":470971,"SoundDuration":470971,"Delta":160488270},{"NoteNumber":42,"Velocity":59,"Duration":158378,"SoundDuration":158378,"Delta":160646649},{"NoteNumber":51,"Velocity":62,"Duration":154215,"SoundDuration":154215,"Delta":160805027},{"NoteNumber":53,"Velocity":68,"Duration":195522,"SoundDuration":195522,"Delta":160947609},{"NoteNumber":54,"Velocity":64,"Duration":198397,"SoundDuration":198397,"Delta":161103750},{"NoteNumber":55,"Velocity":71,"Duration":278412,"SoundDuration":278412,"Delta":161274369},{"NoteNumber":56,"Velocity":62,"Duration":280967,"SoundDuration":280967,"Delta":161512782},{"NoteNumber":57,"Velocity":65,"Duration":283569,"SoundDuration":283569,"Delta":161753427},{"NoteNumber":58,"Velocity":57,"Duration":286557,"SoundDuration":286557,"Delta":161996346},{"NoteNumber":59,"Velocity":62,"Duration":289945,"SoundDuration":289945,"Delta":162241581},{"NoteNumber":61,"Velocity":63,"Duration":546242,"SoundDuration":546242,"Delta":162489859},{"NoteNumber":62,"Velocity":59,"Duration":842448,"SoundDuration":842448,"Delta":162993729},{"NoteNumber":63,"Velocity":62,"Duration":1251505,"SoundDuration":1251505,"Delta":163789881},{"NoteNumber":64,"Velocity":46,"Duration":980392,"SoundDuration":980392,"Delta":164967857},{"NoteNumber":65,"Velocity":42,"Duration":1274509,"SoundDuration":1274509,"Delta":165850210},{"NoteNumber":66,"Velocity":38,"Duration":1176470,"SoundDuration":1176470,"Delta":167026681},{"NoteNumber":66,"Velocity":50,"Duration":441176,"SoundDuration":441176,"Delta":171254111},{"NoteNumber":68,"Velocity":49,"Duration":248659,"SoundDuration":248659,"Delta":171695288},{"NoteNumber":69,"Velocity":46,"Duration":224349,"SoundDuration":224349,"Delta":171906555},{"NoteNumber":59,"Velocity":34,"Duration":850581,"SoundDuration":850581,"Delta":172130905},{"NoteNumber":64,"Velocity":41,"Duration":850581,"SoundDuration":850581,"Delta":172130905},{"NoteNumber":68,"Velocity":51,"Duration":425290,"SoundDuration":425290,"Delta":172130905},{"NoteNumber":50,"Velocity":39,"Duration":850581,"SoundDuration":850581,"Delta":172130905},{"NoteNumber":52,"Velocity":50,"Duration":2549192,"SoundDuration":2549192,"Delta":172130905},{"NoteNumber":71,"Velocity":46,"Duration":425290,"SoundDuration":425290,"Delta":172556195},{"NoteNumber":64,"Velocity":55,"Duration":1698611,"SoundDuration":1698611,"Delta":172981486},{"NoteNumber":49,"Velocity":48,"Duration":850581,"SoundDuration":850581,"Delta":172981486},{"NoteNumber":69,"Velocity":54,"Duration":425290,"SoundDuration":425290,"Delta":173406776},{"NoteNumber":68,"Velocity":52,"Duration":378579,"SoundDuration":378579,"Delta":173832067},{"NoteNumber":71,"Velocity":62,"Duration":378579,"SoundDuration":378579,"Delta":173832067},{"NoteNumber":47,"Velocity":53,"Duration":378579,"SoundDuration":378579,"Delta":173832067},{"NoteNumber":69,"Velocity":56,"Duration":398782,"SoundDuration":398782,"Delta":174245062},{"NoteNumber":73,"Velocity":66,"Duration":398782,"SoundDuration":398782,"Delta":174245062},{"NoteNumber":45,"Velocity":55,"Duration":398782,"SoundDuration":398782,"Delta":174245062},{"NoteNumber":64,"Velocity":47,"Duration":1701162,"SoundDuration":1701162,"Delta":174680097},{"NoteNumber":71,"Velocity":50,"Duration":850581,"SoundDuration":850581,"Delta":174680097},{"NoteNumber":76,"Velocity":61,"Duration":850581,"SoundDuration":850581,"Delta":174680097},{"NoteNumber":52,"Velocity":45,"Duration":1701162,"SoundDuration":1701162,"Delta":174680097},{"NoteNumber":44,"Velocity":43,"Duration":850581,"SoundDuration":850581,"Delta":174680097},{"NoteNumber":69,"Velocity":49,"Duration":850581,"SoundDuration":850581,"Delta":175530678},{"NoteNumber":73,"Velocity":57,"Duration":850581,"SoundDuration":850581,"Delta":175530678},{"NoteNumber":45,"Velocity":39,"Duration":850581,"SoundDuration":850581,"Delta":175530678},{"NoteNumber":73,"Velocity":69,"Duration":425290,"SoundDuration":425290,"Delta":176381259},{"NoteNumber":74,"Velocity":68,"Duration":242105,"SoundDuration":242105,"Delta":176806550},{"NoteNumber":76,"Velocity":66,"Duration":222618,"SoundDuration":222618,"Delta":177011552},{"NoteNumber":66,"Velocity":46,"Duration":860582,"SoundDuration":860582,"Delta":177234170},{"NoteNumber":73,"Velocity":55,"Duration":860582,"SoundDuration":860582,"Delta":177234170},{"NoteNumber":78,"Velocity":66,"Duration":422178,"SoundDuration":422178,"Delta":177234170},{"NoteNumber":46,"Velocity":36,"Duration":860582,"SoundDuration":860582,"Delta":177234170},{"NoteNumber":54,"Velocity":43,"Duration":860582,"SoundDuration":860582,"Delta":177234170},{"NoteNumber":61,"Velocity":53,"Duration":860582,"SoundDuration":860582,"Delta":177234170},{"NoteNumber":73,"Velocity":59,"Duration":438403,"SoundDuration":438403,"Delta":177656348},{"NoteNumber":66,"Velocity":42,"Duration":883305,"SoundDuration":883305,"Delta":178094752},{"NoteNumber":71,"Velocity":42,"Duration":883305,"SoundDuration":883305,"Delta":178094752},{"NoteNumber":74,"Velocity":57,"Duration":883305,"SoundDuration":883305,"Delta":178094752},{"NoteNumber":47,"Velocity":36,"Duration":883305,"SoundDuration":883305,"Delta":178094752},{"NoteNumber":54,"Velocity":36,"Duration":883305,"SoundDuration":883305,"Delta":178094752},{"NoteNumber":59,"Velocity":42,"Duration":883305,"SoundDuration":883305,"Delta":178094752},{"NoteNumber":66,"Velocity":56,"Duration":441176,"SoundDuration":441176,"Delta":178978058},{"NoteNumber":68,"Velocity":52,"Duration":247103,"SoundDuration":247103,"Delta":179419235},{"NoteNumber":69,"Velocity":48,"Duration":223880,"SoundDuration":223880,"Delta":179629025},{"NoteNumber":63,"Velocity":46,"Duration":866979,"SoundDuration":866979,"Delta":179852906},{"NoteNumber":73,"Velocity":52,"Duration":422535,"SoundDuration":422535,"Delta":179852906},{"NoteNumber":47,"Velocity":32,"Duration":866979,"SoundDuration":866979,"Delta":179852906},{"NoteNumber":57,"Velocity":47,"Duration":866979,"SoundDuration":866979,"Delta":179852906},{"NoteNumber":70,"Velocity":48,"Duration":876099,"SoundDuration":876099,"Delta":180275441},{"NoteNumber":62,"Velocity":36,"Duration":876890,"SoundDuration":876890,"Delta":180719885},{"NoteNumber":52,"Velocity":28,"Duration":876890,"SoundDuration":876890,"Delta":180719885},{"NoteNumber":56,"Velocity":34,"Duration":876890,"SoundDuration":876890,"Delta":180719885},{"NoteNumber":71,"Velocity":38,"Duration":445235,"SoundDuration":445235,"Delta":181151540},{"NoteNumber":66,"Velocity":55,"Duration":425290,"SoundDuration":425290,"Delta":181596776},{"NoteNumber":68,"Velocity":50,"Duration":242393,"SoundDuration":242393,"Delta":182022066},{"NoteNumber":69,"Velocity":46,"Duration":224349,"SoundDuration":224349,"Delta":182227068},{"NoteNumber":59,"Velocity":34,"Duration":850581,"SoundDuration":850581,"Delta":182451418},{"NoteNumber":64,"Velocity":41,"Duration":850581,"SoundDuration":850581,"Delta":182451418},{"NoteNumber":68,"Velocity":55,"Duration":425290,"SoundDuration":425290,"Delta":182451418},{"NoteNumber":50,"Velocity":42,"Duration":850581,"SoundDuration":850581,"Delta":182451418},{"NoteNumber":52,"Velocity":50,"Duration":2555539,"SoundDuration":2555539,"Delta":182451418},{"NoteNumber":71,"Velocity":48,"Duration":425290,"SoundDuration":425290,"Delta":182876708},{"NoteNumber":64,"Velocity":62,"Duration":1704958,"SoundDuration":1704958,"Delta":183301999},{"NoteNumber":49,"Velocity":48,"Duration":850581,"SoundDuration":850581,"Delta":183301999},{"NoteNumber":69,"Velocity":55,"Duration":425290,"SoundDuration":425290,"Delta":183727289},{"NoteNumber":68,"Velocity":52,"Duration":381309,"SoundDuration":381309,"Delta":184152580},{"NoteNumber":71,"Velocity":62,"Duration":381309,"SoundDuration":381309,"Delta":184152580},{"NoteNumber":47,"Velocity":53,"Duration":381309,"SoundDuration":381309,"Delta":184152580},{"NoteNumber":69,"Velocity":57,"Duration":401870,"SoundDuration":401870,"Delta":184568553},{"NoteNumber":73,"Velocity":67,"Duration":401870,"SoundDuration":401870,"Delta":184568553},{"NoteNumber":45,"Velocity":56,"Duration":401870,"SoundDuration":401870,"Delta":184568553},{"NoteNumber":64,"Velocity":48,"Duration":1701162,"SoundDuration":1701162,"Delta":185006957},{"NoteNumber":71,"Velocity":54,"Duration":850581,"SoundDuration":850581,"Delta":185006957},{"NoteNumber":76,"Velocity":61,"Duration":850581,"SoundDuration":850581,"Delta":185006957},{"NoteNumber":52,"Velocity":45,"Duration":1701162,"SoundDuration":1701162,"Delta":185006957},{"NoteNumber":44,"Velocity":45,"Duration":850581,"SoundDuration":850581,"Delta":185006957},{"NoteNumber":69,"Velocity":54,"Duration":850581,"SoundDuration":850581,"Delta":185857538},{"NoteNumber":73,"Velocity":63,"Duration":850581,"SoundDuration":850581,"Delta":185857538},{"NoteNumber":45,"Velocity":43,"Duration":850581,"SoundDuration":850581,"Delta":185857538},{"NoteNumber":73,"Velocity":75,"Duration":412995,"SoundDuration":412995,"Delta":186708119},{"NoteNumber":75,"Velocity":70,"Duration":243031,"SoundDuration":243031,"Delta":187121115},{"NoteNumber":76,"Velocity":67,"Duration":219201,"SoundDuration":219201,"Delta":187327612},{"NoteNumber":64,"Velocity":50,"Duration":850711,"SoundDuration":850711,"Delta":187546814},{"NoteNumber":68,"Velocity":74,"Duration":418994,"SoundDuration":418994,"Delta":187546814},{"NoteNumber":47,"Velocity":50,"Duration":2572347,"SoundDuration":2572347,"Delta":187546814},{"NoteNumber":73,"Velocity":64,"Duration":431716,"SoundDuration":431716,"Delta":187965809},{"NoteNumber":63,"Velocity":43,"Duration":870526,"SoundDuration":870526,"Delta":188397526},{"NoteNumber":66,"Velocity":43,"Duration":870526,"SoundDuration":870526,"Delta":188397526},{"NoteNumber":71,"Velocity":62,"Duration":870526,"SoundDuration":870526,"Delta":188397526},{"NoteNumber":57,"Velocity":59,"Duration":425290,"SoundDuration":425290,"Delta":188397526},{"NoteNumber":59,"Velocity":54,"Duration":445235,"SoundDuration":445235,"Delta":188822816},{"NoteNumber":71,"Velocity":62,"Duration":851109,"SoundDuration":851109,"Delta":189268052},{"NoteNumber":64,"Velocity":62,"Duration":851109,"SoundDuration":851109,"Delta":189268052},{"NoteNumber":73,"Velocity":81,"Duration":418994,"SoundDuration":418994,"Delta":189268052},{"NoteNumber":56,"Velocity":61,"Duration":851109,"SoundDuration":851109,"Delta":189268052},{"NoteNumber":75,"Velocity":75,"Duration":246600,"SoundDuration":246600,"Delta":189687047},{"NoteNumber":76,"Velocity":71,"Duration":222618,"SoundDuration":222618,"Delta":189896544},{"NoteNumber":64,"Velocity":50,"Duration":860820,"SoundDuration":860820,"Delta":190119162},{"NoteNumber":68,"Velocity":73,"Duration":418994,"SoundDuration":418994,"Delta":190119162},{"NoteNumber":47,"Velocity":50,"Duration":2154368,"SoundDuration":2154368,"Delta":190119162},{"NoteNumber":73,"Velocity":63,"Duration":441825,"SoundDuration":441825,"Delta":190538157},{"NoteNumber":63,"Velocity":43,"Duration":877574,"SoundDuration":877574,"Delta":190979983},{"NoteNumber":66,"Velocity":43,"Duration":877574,"SoundDuration":877574,"Delta":190979983},{"NoteNumber":71,"Velocity":62,"Duration":877574,"SoundDuration":877574,"Delta":190979983},{"NoteNumber":57,"Velocity":59,"Duration":425290,"SoundDuration":425290,"Delta":190979983},{"NoteNumber":59,"Velocity":54,"Duration":452283,"SoundDuration":452283,"Delta":191405273},{"NoteNumber":71,"Velocity":59,"Duration":858335,"SoundDuration":858335,"Delta":191857557},{"NoteNumber":64,"Velocity":59,"Duration":858335,"SoundDuration":858335,"Delta":191857557},{"NoteNumber":73,"Velocity":77,"Duration":415973,"SoundDuration":415973,"Delta":191857557},{"NoteNumber":56,"Velocity":58,"Duration":415973,"SoundDuration":415973,"Delta":191857557},{"NoteNumber":75,"Velocity":69,"Duration":247049,"SoundDuration":247049,"Delta":192273531},{"NoteNumber":76,"Velocity":64,"Duration":234375,"SoundDuration":234375,"Delta":192481517},{"NoteNumber":80,"Velocity":74,"Duration":431716,"SoundDuration":431716,"Delta":192715892},{"NoteNumber":76,"Velocity":62,"Duration":431717,"SoundDuration":431717,"Delta":193147609},{"NoteNumber":75,"Velocity":66,"Duration":422178,"SoundDuration":422178,"Delta":193579326},{"NoteNumber":73,"Velocity":63,"Duration":448699,"SoundDuration":448699,"Delta":194001505},{"NoteNumber":63,"Velocity":44,"Duration":878315,"SoundDuration":878315,"Delta":194450204},{"NoteNumber":66,"Velocity":44,"Duration":878315,"SoundDuration":878315,"Delta":194450204},{"NoteNumber":73,"Velocity":55,"Duration":878315,"SoundDuration":878315,"Delta":194450204},{"NoteNumber":54,"Velocity":62,"Duration":434782,"SoundDuration":434782,"Delta":194450204},{"NoteNumber":56,"Velocity":58,"Duration":255081,"SoundDuration":255081,"Delta":194884986},{"NoteNumber":57,"Velocity":52,"Duration":226142,"SoundDuration":226142,"Delta":195102378},{"NoteNumber":63,"Velocity":44,"Duration":902715,"SoundDuration":902715,"Delta":195328520},{"NoteNumber":66,"Velocity":55,"Duration":902715,"SoundDuration":902715,"Delta":195328520},{"NoteNumber":61,"Velocity":58,"Duration":441176,"SoundDuration":441176,"Delta":195328520},{"NoteNumber":47,"Velocity":46,"Duration":902715,"SoundDuration":902715,"Delta":195328520},{"NoteNumber":59,"Velocity":48,"Duration":461538,"SoundDuration":461538,"Delta":195769696},{"NoteNumber":59,"Velocity":50,"Duration":956919,"SoundDuration":956919,"Delta":196231235},{"NoteNumber":64,"Velocity":50,"Duration":956919,"SoundDuration":956919,"Delta":196231235},{"NoteNumber":52,"Velocity":46,"Duration":956919,"SoundDuration":956919,"Delta":196231235},{"NoteNumber":57,"Velocity":58,"Duration":465116,"SoundDuration":465116,"Delta":196231235},{"NoteNumber":56,"Velocity":56,"Duration":491803,"SoundDuration":491803,"Delta":196696351},{"NoteNumber":74,"Velocity":54,"Duration":420657,"SoundDuration":420657,"Delta":197188155},{"NoteNumber":40,"Velocity":50,"Duration":420657,"SoundDuration":420657,"Delta":197188155},{"NoteNumber":52,"Velocity":45,"Duration":104496,"SoundDuration":104496,"Delta":197400818},{"NoteNumber":73,"Velocity":50,"Duration":240692,"SoundDuration":240692,"Delta":197608812},{"NoteNumber":54,"Velocity":46,"Duration":102255,"SoundDuration":102255,"Delta":197608812},{"NoteNumber":71,"Velocity":47,"Duration":224349,"SoundDuration":224349,"Delta":197812112},{"NoteNumber":56,"Velocity":47,"Duration":112174,"SoundDuration":112174,"Delta":197812112},{"NoteNumber":63,"Velocity":43,"Duration":877574,"SoundDuration":877574,"Delta":198036462},{"NoteNumber":66,"Velocity":51,"Duration":425290,"SoundDuration":425290,"Delta":198036462},{"NoteNumber":52,"Velocity":36,"Duration":1745267,"SoundDuration":1745267,"Delta":198036462},{"NoteNumber":57,"Velocity":50,"Duration":212645,"SoundDuration":212645,"Delta":198036462},{"NoteNumber":59,"Velocity":45,"Duration":212645,"SoundDuration":212645,"Delta":198249107},{"NoteNumber":69,"Velocity":36,"Duration":452283,"SoundDuration":452283,"Delta":198461752},{"NoteNumber":60,"Velocity":47,"Duration":871278,"SoundDuration":871278,"Delta":198461752},{"NoteNumber":64,"Velocity":39,"Duration":867693,"SoundDuration":867693,"Delta":198914036},{"NoteNumber":68,"Velocity":46,"Duration":867693,"SoundDuration":867693,"Delta":198914036},{"NoteNumber":59,"Velocity":35,"Duration":448699,"SoundDuration":448699,"Delta":199333031},{"NoteNumber":61,"Velocity":41,"Duration":495868,"SoundDuration":495868,"Delta":199781730},{"NoteNumber":66,"Velocity":50,"Duration":495868,"SoundDuration":495868,"Delta":199781730},{"NoteNumber":52,"Velocity":37,"Duration":1828170,"SoundDuration":1828170,"Delta":199781730},{"NoteNumber":45,"Velocity":44,"Duration":495868,"SoundDuration":495868,"Delta":199781730},{"NoteNumber":60,"Velocity":31,"Duration":445235,"SoundDuration":445235,"Delta":200277598},{"NoteNumber":68,"Velocity":39,"Duration":445235,"SoundDuration":445235,"Delta":200277598},{"NoteNumber":44,"Velocity":31,"Duration":445235,"SoundDuration":445235,"Delta":200277598},{"NoteNumber":61,"Velocity":41,"Duration":434782,"SoundDuration":434782,"Delta":200722834},{"NoteNumber":66,"Velocity":50,"Duration":434782,"SoundDuration":434782,"Delta":200722834},{"NoteNumber":45,"Velocity":44,"Duration":434782,"SoundDuration":434782,"Delta":200722834},{"NoteNumber":60,"Velocity":30,"Duration":452283,"SoundDuration":452283,"Delta":201157616},{"NoteNumber":68,"Velocity":38,"Duration":452283,"SoundDuration":452283,"Delta":201157616},{"NoteNumber":44,"Velocity":34,"Duration":452283,"SoundDuration":452283,"Delta":201157616},{"NoteNumber":59,"Velocity":37,"Duration":921034,"SoundDuration":921034,"Delta":201609900},{"NoteNumber":64,"Velocity":42,"Duration":921034,"SoundDuration":921034,"Delta":201609900},{"NoteNumber":52,"Velocity":33,"Duration":921034,"SoundDuration":921034,"Delta":201609900},{"NoteNumber":57,"Velocity":38,"Duration":452284,"SoundDuration":452284,"Delta":201609900},{"NoteNumber":56,"Velocity":36,"Duration":468750,"SoundDuration":468750,"Delta":202062184},{"NoteNumber":74,"Velocity":54,"Duration":414533,"SoundDuration":414533,"Delta":202530934},{"NoteNumber":40,"Velocity":50,"Duration":414533,"SoundDuration":414533,"Delta":202530934},{"NoteNumber":52,"Velocity":45,"Duration":102999,"SoundDuration":102999,"Delta":202740459},{"NoteNumber":73,"Velocity":50,"Duration":237830,"SoundDuration":237830,"Delta":202945468},{"NoteNumber":54,"Velocity":46,"Duration":100803,"SoundDuration":100803,"Delta":202945468},{"NoteNumber":71,"Velocity":47,"Duration":224349,"SoundDuration":224349,"Delta":203145907},{"NoteNumber":56,"Velocity":47,"Duration":112174,"SoundDuration":112174,"Delta":203145907},{"NoteNumber":63,"Velocity":43,"Duration":880793,"SoundDuration":880793,"Delta":203370256},{"NoteNumber":66,"Velocity":51,"Duration":428509,"SoundDuration":428509,"Delta":203370256},{"NoteNumber":52,"Velocity":36,"Duration":1754783,"SoundDuration":1754783,"Delta":203370256},{"NoteNumber":57,"Velocity":50,"Duration":214255,"SoundDuration":214255,"Delta":203370256},{"NoteNumber":59,"Velocity":45,"Duration":214254,"SoundDuration":214254,"Delta":203584511},{"NoteNumber":69,"Velocity":39,"Duration":452283,"SoundDuration":452283,"Delta":203798766},{"NoteNumber":60,"Velocity":46,"Duration":877574,"SoundDuration":877574,"Delta":203798766},{"NoteNumber":64,"Velocity":39,"Duration":873989,"SoundDuration":873989,"Delta":204251050},{"NoteNumber":68,"Velocity":46,"Duration":873989,"SoundDuration":873989,"Delta":204251050},{"NoteNumber":59,"Velocity":34,"Duration":448699,"SoundDuration":448699,"Delta":204676341},{"NoteNumber":61,"Velocity":41,"Duration":437956,"SoundDuration":437956,"Delta":205125040},{"NoteNumber":66,"Velocity":50,"Duration":437956,"SoundDuration":437956,"Delta":205125040},{"NoteNumber":52,"Velocity":37,"Duration":1770258,"SoundDuration":1770258,"Delta":205125040},{"NoteNumber":45,"Velocity":44,"Duration":437956,"SoundDuration":437956,"Delta":205125040},{"NoteNumber":60,"Velocity":31,"Duration":445235,"SoundDuration":445235,"Delta":205562996},{"NoteNumber":68,"Velocity":39,"Duration":445235,"SoundDuration":445235,"Delta":205562996},{"NoteNumber":44,"Velocity":31,"Duration":445235,"SoundDuration":445235,"Delta":205562996},{"NoteNumber":61,"Velocity":41,"Duration":434782,"SoundDuration":434782,"Delta":206008232},{"NoteNumber":66,"Velocity":50,"Duration":434782,"SoundDuration":434782,"Delta":206008232},{"NoteNumber":45,"Velocity":44,"Duration":434782,"SoundDuration":434782,"Delta":206008232},{"NoteNumber":60,"Velocity":30,"Duration":452283,"SoundDuration":452283,"Delta":206443014},{"NoteNumber":68,"Velocity":38,"Duration":452283,"SoundDuration":452283,"Delta":206443014},{"NoteNumber":44,"Velocity":34,"Duration":452283,"SoundDuration":452283,"Delta":206443014},{"NoteNumber":59,"Velocity":37,"Duration":904568,"SoundDuration":904568,"Delta":206895298},{"NoteNumber":64,"Velocity":42,"Duration":904568,"SoundDuration":904568,"Delta":206895298},{"NoteNumber":52,"Velocity":33,"Duration":904568,"SoundDuration":904568,"Delta":206895298},{"NoteNumber":57,"Velocity":38,"Duration":452284,"SoundDuration":452284,"Delta":206895298},{"NoteNumber":56,"Velocity":36,"Duration":452283,"SoundDuration":452283,"Delta":207347582},{"NoteNumber":64,"Velocity":46,"Duration":410958,"SoundDuration":410958,"Delta":207799866},{"NoteNumber":70,"Velocity":56,"Duration":410958,"SoundDuration":410958,"Delta":207799866},{"NoteNumber":56,"Velocity":41,"Duration":1691189,"SoundDuration":1691189,"Delta":207799866},{"NoteNumber":49,"Velocity":50,"Duration":410958,"SoundDuration":410958,"Delta":207799866},{"NoteNumber":63,"Velocity":39,"Duration":431654,"SoundDuration":431654,"Delta":208210825},{"NoteNumber":72,"Velocity":46,"Duration":431654,"SoundDuration":431654,"Delta":208210825},{"NoteNumber":48,"Velocity":39,"Duration":431654,"SoundDuration":431654,"Delta":208210825},{"NoteNumber":64,"Velocity":46,"Duration":413792,"SoundDuration":413792,"Delta":208642480},{"NoteNumber":70,"Velocity":56,"Duration":413792,"SoundDuration":413792,"Delta":208642480},{"NoteNumber":49,"Velocity":51,"Duration":413792,"SoundDuration":413792,"Delta":208642480},{"NoteNumber":63,"Velocity":38,"Duration":434782,"SoundDuration":434782,"Delta":209056273},{"NoteNumber":72,"Velocity":46,"Duration":434782,"SoundDuration":434782,"Delta":209056273},{"NoteNumber":48,"Velocity":42,"Duration":434782,"SoundDuration":434782,"Delta":209056273},{"NoteNumber":63,"Velocity":42,"Duration":869564,"SoundDuration":869564,"Delta":209491055},{"NoteNumber":68,"Velocity":51,"Duration":869564,"SoundDuration":869564,"Delta":209491055},{"NoteNumber":56,"Velocity":38,"Duration":869564,"SoundDuration":869564,"Delta":209491055},{"NoteNumber":61,"Velocity":44,"Duration":434782,"SoundDuration":434782,"Delta":209491055},{"NoteNumber":60,"Velocity":41,"Duration":434782,"SoundDuration":434782,"Delta":209925838},{"NoteNumber":68,"Velocity":51,"Duration":402684,"SoundDuration":402684,"Delta":210360620},{"NoteNumber":74,"Velocity":59,"Duration":402684,"SoundDuration":402684,"Delta":210360620},{"NoteNumber":60,"Velocity":45,"Duration":1662999,"SoundDuration":1662999,"Delta":210360620},{"NoteNumber":53,"Velocity":53,"Duration":402684,"SoundDuration":402684,"Delta":210360620},{"NoteNumber":67,"Velocity":46,"Duration":434782,"SoundDuration":434782,"Delta":210763305},{"NoteNumber":76,"Velocity":56,"Duration":434782,"SoundDuration":434782,"Delta":210763305},{"NoteNumber":52,"Velocity":46,"Duration":434782,"SoundDuration":434782,"Delta":210763305},{"NoteNumber":68,"Velocity":53,"Duration":400000,"SoundDuration":400000,"Delta":211198087},{"NoteNumber":74,"Velocity":62,"Duration":400000,"SoundDuration":400000,"Delta":211198087},{"NoteNumber":53,"Velocity":57,"Duration":400000,"SoundDuration":400000,"Delta":211198087},{"NoteNumber":67,"Velocity":47,"Duration":425532,"SoundDuration":425532,"Delta":211598087},{"NoteNumber":76,"Velocity":57,"Duration":425532,"SoundDuration":425532,"Delta":211598087},{"NoteNumber":52,"Velocity":51,"Duration":425532,"SoundDuration":425532,"Delta":211598087},{"NoteNumber":63,"Velocity":37,"Duration":425532,"SoundDuration":425532,"Delta":212023619},{"NoteNumber":66,"Velocity":44,"Duration":425532,"SoundDuration":425532,"Delta":212023619},{"NoteNumber":72,"Velocity":52,"Duration":851064,"SoundDuration":851064,"Delta":212023619},{"NoteNumber":56,"Velocity":38,"Duration":425532,"SoundDuration":425532,"Delta":212023619},{"NoteNumber":60,"Velocity":46,"Duration":425532,"SoundDuration":425532,"Delta":212023619},{"NoteNumber":64,"Velocity":30,"Duration":425532,"SoundDuration":425532,"Delta":212449151},{"NoteNumber":67,"Velocity":38,"Duration":425532,"SoundDuration":425532,"Delta":212449151},{"NoteNumber":48,"Velocity":26,"Duration":425532,"SoundDuration":425532,"Delta":212449151},{"NoteNumber":55,"Velocity":32,"Duration":425532,"SoundDuration":425532,"Delta":212449151},{"NoteNumber":68,"Velocity":55,"Duration":392156,"SoundDuration":392156,"Delta":212874683},{"NoteNumber":74,"Velocity":60,"Duration":228758,"SoundDuration":228758,"Delta":212874683},{"NoteNumber":60,"Velocity":44,"Duration":1625651,"SoundDuration":1625651,"Delta":212874683},{"NoteNumber":53,"Velocity":55,"Duration":392156,"SoundDuration":392156,"Delta":212874683},{"NoteNumber":77,"Velocity":47,"Duration":230325,"SoundDuration":230325,"Delta":213070762},{"NoteNumber":72,"Velocity":44,"Duration":410958,"SoundDuration":410958,"Delta":213266840},{"NoteNumber":67,"Velocity":44,"Duration":410958,"SoundDuration":410958,"Delta":213266840},{"NoteNumber":76,"Velocity":59,"Duration":410958,"SoundDuration":410958,"Delta":213266840},{"NoteNumber":55,"Velocity":40,"Duration":410958,"SoundDuration":410958,"Delta":213266840},{"NoteNumber":68,"Velocity":55,"Duration":400000,"SoundDuration":400000,"Delta":213677799},{"NoteNumber":74,"Velocity":60,"Duration":233333,"SoundDuration":233333,"Delta":213677799},{"NoteNumber":53,"Velocity":58,"Duration":400000,"SoundDuration":400000,"Delta":213677799},{"NoteNumber":77,"Velocity":49,"Duration":235211,"SoundDuration":235211,"Delta":213877799},{"NoteNumber":72,"Velocity":45,"Duration":422535,"SoundDuration":422535,"Delta":214077799},{"NoteNumber":67,"Velocity":44,"Duration":422535,"SoundDuration":422535,"Delta":214077799},{"NoteNumber":76,"Velocity":59,"Duration":422535,"SoundDuration":422535,"Delta":214077799},{"NoteNumber":55,"Velocity":44,"Duration":422535,"SoundDuration":422535,"Delta":214077799},{"NoteNumber":63,"Velocity":41,"Duration":422534,"SoundDuration":422534,"Delta":214500334},{"NoteNumber":66,"Velocity":49,"Duration":422534,"SoundDuration":422534,"Delta":214500334},{"NoteNumber":72,"Velocity":59,"Duration":845069,"SoundDuration":845069,"Delta":214500334},{"NoteNumber":56,"Velocity":36,"Duration":422534,"SoundDuration":422534,"Delta":214500334},{"NoteNumber":60,"Velocity":45,"Duration":422534,"SoundDuration":422534,"Delta":214500334},{"NoteNumber":64,"Velocity":33,"Duration":422535,"SoundDuration":422535,"Delta":214922869},{"NoteNumber":67,"Velocity":42,"Duration":422535,"SoundDuration":422535,"Delta":214922869},{"NoteNumber":48,"Velocity":21,"Duration":422535,"SoundDuration":422535,"Delta":214922869},{"NoteNumber":55,"Velocity":32,"Duration":422535,"SoundDuration":422535,"Delta":214922869},{"NoteNumber":68,"Velocity":56,"Duration":405405,"SoundDuration":405405,"Delta":215345404},{"NoteNumber":74,"Velocity":67,"Duration":405405,"SoundDuration":405405,"Delta":215345404},{"NoteNumber":60,"Velocity":46,"Duration":827940,"SoundDuration":827940,"Delta":215345404},{"NoteNumber":53,"Velocity":56,"Duration":405405,"SoundDuration":405405,"Delta":215345404},{"NoteNumber":72,"Velocity":46,"Duration":422535,"SoundDuration":422535,"Delta":215750810},{"NoteNumber":67,"Velocity":46,"Duration":422535,"SoundDuration":422535,"Delta":215750810},{"NoteNumber":76,"Velocity":59,"Duration":422535,"SoundDuration":422535,"Delta":215750810},{"NoteNumber":48,"Velocity":43,"Duration":422535,"SoundDuration":422535,"Delta":215750810},{"NoteNumber":70,"Velocity":59,"Duration":402684,"SoundDuration":402684,"Delta":216173345},{"NoteNumber":79,"Velocity":71,"Duration":402684,"SoundDuration":402684,"Delta":216173345},{"NoteNumber":57,"Velocity":47,"Duration":402684,"SoundDuration":402684,"Delta":216173345},{"NoteNumber":61,"Velocity":55,"Duration":402684,"SoundDuration":402684,"Delta":216173345},{"NoteNumber":69,"Velocity":52,"Duration":425532,"SoundDuration":425532,"Delta":216576029},{"NoteNumber":78,"Velocity":64,"Duration":425532,"SoundDuration":425532,"Delta":216576029},{"NoteNumber":62,"Velocity":54,"Duration":425532,"SoundDuration":425532,"Delta":216576029},{"NoteNumber":68,"Velocity":59,"Duration":400000,"SoundDuration":400000,"Delta":217001561},{"NoteNumber":77,"Velocity":71,"Duration":400000,"SoundDuration":400000,"Delta":217001561},{"NoteNumber":55,"Velocity":47,"Duration":400000,"SoundDuration":400000,"Delta":217001561},{"NoteNumber":59,"Velocity":55,"Duration":400000,"SoundDuration":400000,"Delta":217001561},{"NoteNumber":67,"Velocity":52,"Duration":419580,"SoundDuration":419580,"Delta":217401561},{"NoteNumber":76,"Velocity":64,"Duration":419580,"SoundDuration":419580,"Delta":217401561},{"NoteNumber":60,"Velocity":54,"Duration":419580,"SoundDuration":419580,"Delta":217401561},{"NoteNumber":67,"Velocity":59,"Duration":404338,"SoundDuration":404338,"Delta":217821142},{"NoteNumber":76,"Velocity":71,"Duration":404338,"SoundDuration":404338,"Delta":217821142},{"NoteNumber":54,"Velocity":47,"Duration":404338,"SoundDuration":404338,"Delta":217821142},{"NoteNumber":58,"Velocity":55,"Duration":404338,"SoundDuration":404338,"Delta":217821142},{"NoteNumber":66,"Velocity":52,"Duration":416666,"SoundDuration":416666,"Delta":218225480},{"NoteNumber":75,"Velocity":64,"Duration":416666,"SoundDuration":416666,"Delta":218225480},{"NoteNumber":59,"Velocity":54,"Duration":416666,"SoundDuration":416666,"Delta":218225480},{"NoteNumber":70,"Velocity":64,"Duration":231788,"SoundDuration":231788,"Delta":218642147},{"NoteNumber":64,"Velocity":63,"Duration":397350,"SoundDuration":397350,"Delta":218642147},{"NoteNumber":55,"Velocity":58,"Duration":397350,"SoundDuration":397350,"Delta":218642147},{"NoteNumber":73,"Velocity":46,"Duration":233886,"SoundDuration":233886,"Delta":218840822},{"NoteNumber":63,"Velocity":35,"Duration":422535,"SoundDuration":422535,"Delta":219039498},{"NoteNumber":71,"Velocity":55,"Duration":422535,"SoundDuration":422535,"Delta":219039498},{"NoteNumber":66,"Velocity":42,"Duration":422535,"SoundDuration":422535,"Delta":219039498},{"NoteNumber":47,"Velocity":24,"Duration":422535,"SoundDuration":422535,"Delta":219039498},{"NoteNumber":54,"Velocity":39,"Duration":422535,"SoundDuration":422535,"Delta":219039498},{"NoteNumber":67,"Velocity":57,"Duration":419580,"SoundDuration":419580,"Delta":219462033},{"NoteNumber":76,"Velocity":69,"Duration":419580,"SoundDuration":419580,"Delta":219462033},{"NoteNumber":58,"Velocity":46,"Duration":419580,"SoundDuration":419580,"Delta":219462033},{"NoteNumber":54,"Velocity":41,"Duration":419580,"SoundDuration":419580,"Delta":219462033},{"NoteNumber":66,"Velocity":48,"Duration":445235,"SoundDuration":445235,"Delta":219881613},{"NoteNumber":75,"Velocity":58,"Duration":445235,"SoundDuration":445235,"Delta":219881613},{"NoteNumber":59,"Velocity":45,"Duration":445235,"SoundDuration":445235,"Delta":219881613},{"NoteNumber":70,"Velocity":57,"Duration":231788,"SoundDuration":231788,"Delta":220326849},{"NoteNumber":64,"Velocity":58,"Duration":397350,"SoundDuration":397350,"Delta":220326849},{"NoteNumber":55,"Velocity":57,"Duration":397350,"SoundDuration":397350,"Delta":220326849},{"NoteNumber":73,"Velocity":45,"Duration":233640,"SoundDuration":233640,"Delta":220525525},{"NoteNumber":63,"Velocity":33,"Duration":419580,"SoundDuration":419580,"Delta":220724200},{"NoteNumber":71,"Velocity":42,"Duration":419580,"SoundDuration":419580,"Delta":220724200},{"NoteNumber":66,"Velocity":33,"Duration":419580,"SoundDuration":419580,"Delta":220724200},{"NoteNumber":47,"Velocity":26,"Duration":419580,"SoundDuration":419580,"Delta":220724200},{"NoteNumber":54,"Velocity":31,"Duration":419580,"SoundDuration":419580,"Delta":220724200},{"NoteNumber":70,"Velocity":54,"Duration":233333,"SoundDuration":233333,"Delta":221143781},{"NoteNumber":64,"Velocity":56,"Duration":400000,"SoundDuration":400000,"Delta":221143781},{"NoteNumber":55,"Velocity":55,"Duration":400000,"SoundDuration":400000,"Delta":221143781},{"NoteNumber":73,"Velocity":41,"Duration":237594,"SoundDuration":237594,"Delta":221343781},{"NoteNumber":63,"Velocity":30,"Duration":451128,"SoundDuration":451128,"Delta":221543781},{"NoteNumber":71,"Velocity":41,"Duration":451128,"SoundDuration":451128,"Delta":221543781},{"NoteNumber":66,"Velocity":30,"Duration":451128,"SoundDuration":451128,"Delta":221543781},{"NoteNumber":47,"Velocity":24,"Duration":451128,"SoundDuration":451128,"Delta":221543781},{"NoteNumber":54,"Velocity":30,"Duration":451128,"SoundDuration":451128,"Delta":221543781},{"NoteNumber":58,"Velocity":28,"Duration":468750,"SoundDuration":468750,"Delta":221994909},{"NoteNumber":61,"Velocity":41,"Duration":468750,"SoundDuration":468750,"Delta":221994909},{"NoteNumber":66,"Velocity":48,"Duration":977224,"SoundDuration":977224,"Delta":221994909},{"NoteNumber":52,"Velocity":31,"Duration":468750,"SoundDuration":468750,"Delta":221994909},{"NoteNumber":59,"Velocity":36,"Duration":508474,"SoundDuration":508474,"Delta":222463659},{"NoteNumber":51,"Velocity":28,"Duration":508474,"SoundDuration":508474,"Delta":222463659},{"NoteNumber":66,"Velocity":55,"Duration":441176,"SoundDuration":441176,"Delta":222972133},{"NoteNumber":68,"Velocity":51,"Duration":247181,"SoundDuration":247181,"Delta":223413310},{"NoteNumber":69,"Velocity":46,"Duration":224349,"SoundDuration":224349,"Delta":223623100},{"NoteNumber":59,"Velocity":30,"Duration":850581,"SoundDuration":850581,"Delta":223847450},{"NoteNumber":64,"Velocity":36,"Duration":850581,"SoundDuration":850581,"Delta":223847450},{"NoteNumber":68,"Velocity":55,"Duration":425290,"SoundDuration":425290,"Delta":223847450},{"NoteNumber":50,"Velocity":37,"Duration":850581,"SoundDuration":850581,"Delta":223847450},{"NoteNumber":52,"Velocity":44,"Duration":2549192,"SoundDuration":2549192,"Delta":223847450},{"NoteNumber":71,"Velocity":48,"Duration":425290,"SoundDuration":425290,"Delta":224272740},{"NoteNumber":64,"Velocity":55,"Duration":1698611,"SoundDuration":1698611,"Delta":224698031},{"NoteNumber":49,"Velocity":42,"Duration":850581,"SoundDuration":850581,"Delta":224698031},{"NoteNumber":69,"Velocity":58,"Duration":425290,"SoundDuration":425290,"Delta":225123321},{"NoteNumber":68,"Velocity":52,"Duration":378579,"SoundDuration":378579,"Delta":225548612},{"NoteNumber":71,"Velocity":62,"Duration":378579,"SoundDuration":378579,"Delta":225548612},{"NoteNumber":47,"Velocity":53,"Duration":378579,"SoundDuration":378579,"Delta":225548612},{"NoteNumber":69,"Velocity":56,"Duration":398782,"SoundDuration":398782,"Delta":225961607},{"NoteNumber":73,"Velocity":66,"Duration":398782,"SoundDuration":398782,"Delta":225961607},{"NoteNumber":45,"Velocity":55,"Duration":398782,"SoundDuration":398782,"Delta":225961607},{"NoteNumber":64,"Velocity":45,"Duration":1701162,"SoundDuration":1701162,"Delta":226396642},{"NoteNumber":71,"Velocity":49,"Duration":850581,"SoundDuration":850581,"Delta":226396642},{"NoteNumber":76,"Velocity":59,"Duration":850581,"SoundDuration":850581,"Delta":226396642},{"NoteNumber":52,"Velocity":45,"Duration":1701162,"SoundDuration":1701162,"Delta":226396642},{"NoteNumber":44,"Velocity":40,"Duration":850581,"SoundDuration":850581,"Delta":226396642},{"NoteNumber":69,"Velocity":49,"Duration":850581,"SoundDuration":850581,"Delta":227247223},{"NoteNumber":73,"Velocity":57,"Duration":850581,"SoundDuration":850581,"Delta":227247223},{"NoteNumber":45,"Velocity":39,"Duration":850581,"SoundDuration":850581,"Delta":227247223},{"NoteNumber":73,"Velocity":69,"Duration":425290,"SoundDuration":425290,"Delta":228097804},{"NoteNumber":74,"Velocity":68,"Duration":245324,"SoundDuration":245324,"Delta":228523095},{"NoteNumber":76,"Velocity":66,"Duration":241935,"SoundDuration":241935,"Delta":228728097},{"NoteNumber":66,"Velocity":46,"Duration":860582,"SoundDuration":860582,"Delta":228970032},{"NoteNumber":73,"Velocity":55,"Duration":860582,"SoundDuration":860582,"Delta":228970032},{"NoteNumber":78,"Velocity":67,"Duration":422178,"SoundDuration":422178,"Delta":228970032},{"NoteNumber":46,"Velocity":36,"Duration":860582,"SoundDuration":860582,"Delta":228970032},{"NoteNumber":54,"Velocity":43,"Duration":860582,"SoundDuration":860582,"Delta":228970032},{"NoteNumber":61,"Velocity":53,"Duration":860582,"SoundDuration":860582,"Delta":228970032},{"NoteNumber":73,"Velocity":63,"Duration":438403,"SoundDuration":438403,"Delta":229392211},{"NoteNumber":66,"Velocity":41,"Duration":850581,"SoundDuration":850581,"Delta":229830615},{"NoteNumber":71,"Velocity":49,"Duration":850581,"SoundDuration":850581,"Delta":229830615},{"NoteNumber":74,"Velocity":59,"Duration":850581,"SoundDuration":850581,"Delta":229830615},{"NoteNumber":47,"Velocity":32,"Duration":850581,"SoundDuration":850581,"Delta":229830615},{"NoteNumber":54,"Velocity":38,"Duration":850581,"SoundDuration":850581,"Delta":229830615},{"NoteNumber":59,"Velocity":46,"Duration":850581,"SoundDuration":850581,"Delta":229830615},{"NoteNumber":66,"Velocity":58,"Duration":425290,"SoundDuration":425290,"Delta":230681196},{"NoteNumber":68,"Velocity":55,"Duration":240914,"SoundDuration":240914,"Delta":231106486},{"NoteNumber":69,"Velocity":48,"Duration":217084,"SoundDuration":217084,"Delta":231312984},{"NoteNumber":63,"Velocity":49,"Duration":851008,"SoundDuration":851008,"Delta":231530068},{"NoteNumber":73,"Velocity":55,"Duration":415973,"SoundDuration":415973,"Delta":231530068},{"NoteNumber":47,"Velocity":41,"Duration":851008,"SoundDuration":851008,"Delta":231530068},{"NoteNumber":57,"Velocity":50,"Duration":851008,"SoundDuration":851008,"Delta":231530068},{"NoteNumber":70,"Velocity":44,"Duration":860325,"SoundDuration":860325,"Delta":231946042},{"NoteNumber":62,"Velocity":40,"Duration":890406,"SoundDuration":890406,"Delta":232381077},{"NoteNumber":52,"Velocity":31,"Duration":890406,"SoundDuration":890406,"Delta":232381077},{"NoteNumber":56,"Velocity":39,"Duration":890406,"SoundDuration":890406,"Delta":232381077},{"NoteNumber":71,"Velocity":42,"Duration":465116,"SoundDuration":465116,"Delta":232806367},{"NoteNumber":66,"Velocity":55,"Duration":425290,"SoundDuration":425290,"Delta":233271484},{"NoteNumber":68,"Velocity":54,"Duration":242393,"SoundDuration":242393,"Delta":233696774},{"NoteNumber":69,"Velocity":47,"Duration":224349,"SoundDuration":224349,"Delta":233901776},{"NoteNumber":59,"Velocity":30,"Duration":850581,"SoundDuration":850581,"Delta":234126126},{"NoteNumber":64,"Velocity":36,"Duration":850581,"SoundDuration":850581,"Delta":234126126},{"NoteNumber":68,"Velocity":55,"Duration":425290,"SoundDuration":425290,"Delta":234126126},{"NoteNumber":50,"Velocity":37,"Duration":850581,"SoundDuration":850581,"Delta":234126126},{"NoteNumber":52,"Velocity":44,"Duration":2555539,"SoundDuration":2555539,"Delta":234126126},{"NoteNumber":71,"Velocity":51,"Duration":425290,"SoundDuration":425290,"Delta":234551416},{"NoteNumber":64,"Velocity":55,"Duration":1704958,"SoundDuration":1704958,"Delta":234976707},{"NoteNumber":49,"Velocity":42,"Duration":850581,"SoundDuration":850581,"Delta":234976707},{"NoteNumber":69,"Velocity":56,"Duration":425290,"SoundDuration":425290,"Delta":235401997},{"NoteNumber":68,"Velocity":52,"Duration":381309,"SoundDuration":381309,"Delta":235827288},{"NoteNumber":71,"Velocity":62,"Duration":381309,"SoundDuration":381309,"Delta":235827288},{"NoteNumber":47,"Velocity":53,"Duration":381309,"SoundDuration":381309,"Delta":235827288},{"NoteNumber":69,"Velocity":57,"Duration":401870,"SoundDuration":401870,"Delta":236243261},{"NoteNumber":73,"Velocity":67,"Duration":401870,"SoundDuration":401870,"Delta":236243261},{"NoteNumber":45,"Velocity":56,"Duration":401870,"SoundDuration":401870,"Delta":236243261},{"NoteNumber":64,"Velocity":48,"Duration":1701162,"SoundDuration":1701162,"Delta":236681665},{"NoteNumber":71,"Velocity":51,"Duration":850581,"SoundDuration":850581,"Delta":236681665},{"NoteNumber":76,"Velocity":61,"Duration":850581,"SoundDuration":850581,"Delta":236681665},{"NoteNumber":52,"Velocity":51,"Duration":1701162,"SoundDuration":1701162,"Delta":236681665},{"NoteNumber":44,"Velocity":43,"Duration":850581,"SoundDuration":850581,"Delta":236681665},{"NoteNumber":69,"Velocity":54,"Duration":850581,"SoundDuration":850581,"Delta":237532246},{"NoteNumber":73,"Velocity":63,"Duration":850581,"SoundDuration":850581,"Delta":237532246},{"NoteNumber":45,"Velocity":43,"Duration":850581,"SoundDuration":850581,"Delta":237532246},{"NoteNumber":73,"Velocity":72,"Duration":425532,"SoundDuration":425532,"Delta":238382827},{"NoteNumber":74,"Velocity":71,"Duration":242105,"SoundDuration":242105,"Delta":238808359},{"NoteNumber":76,"Velocity":69,"Duration":222618,"SoundDuration":222618,"Delta":239013361},{"NoteNumber":66,"Velocity":54,"Duration":860582,"SoundDuration":860582,"Delta":239235979},{"NoteNumber":73,"Velocity":54,"Duration":860582,"SoundDuration":860582,"Delta":239235979},{"NoteNumber":78,"Velocity":69,"Duration":422178,"SoundDuration":422178,"Delta":239235979},{"NoteNumber":46,"Velocity":36,"Duration":860582,"SoundDuration":860582,"Delta":239235979},{"NoteNumber":54,"Velocity":43,"Duration":860582,"SoundDuration":860582,"Delta":239235979},{"NoteNumber":61,"Velocity":51,"Duration":860582,"SoundDuration":860582,"Delta":239235979},{"NoteNumber":73,"Velocity":62,"Duration":438403,"SoundDuration":438403,"Delta":239658158},{"NoteNumber":66,"Velocity":43,"Duration":850581,"SoundDuration":850581,"Delta":240096562},{"NoteNumber":71,"Velocity":51,"Duration":850581,"SoundDuration":850581,"Delta":240096562},{"NoteNumber":74,"Velocity":62,"Duration":850581,"SoundDuration":850581,"Delta":240096562},{"NoteNumber":47,"Velocity":33,"Duration":850581,"SoundDuration":850581,"Delta":240096562},{"NoteNumber":54,"Velocity":39,"Duration":850581,"SoundDuration":850581,"Delta":240096562},{"NoteNumber":59,"Velocity":48,"Duration":850581,"SoundDuration":850581,"Delta":240096562},{"NoteNumber":74,"Velocity":75,"Duration":425532,"SoundDuration":425532,"Delta":240947143},{"NoteNumber":76,"Velocity":73,"Duration":242105,"SoundDuration":242105,"Delta":241372675},{"NoteNumber":78,"Velocity":69,"Duration":222618,"SoundDuration":222618,"Delta":241577677},{"NoteNumber":68,"Velocity":47,"Duration":860582,"SoundDuration":860582,"Delta":241800295},{"NoteNumber":75,"Velocity":56,"Duration":422178,"SoundDuration":422178,"Delta":241800295},{"NoteNumber":80,"Velocity":71,"Duration":422178,"SoundDuration":422178,"Delta":241800295},{"NoteNumber":48,"Velocity":37,"Duration":860582,"SoundDuration":860582,"Delta":241800295},{"NoteNumber":56,"Velocity":44,"Duration":860582,"SoundDuration":860582,"Delta":241800295},{"NoteNumber":63,"Velocity":54,"Duration":860582,"SoundDuration":860582,"Delta":241800295},{"NoteNumber":75,"Velocity":66,"Duration":438403,"SoundDuration":438403,"Delta":242222473},{"NoteNumber":68,"Velocity":45,"Duration":850581,"SoundDuration":850581,"Delta":242660877},{"NoteNumber":73,"Velocity":54,"Duration":850581,"SoundDuration":850581,"Delta":242660877},{"NoteNumber":76,"Velocity":65,"Duration":850581,"SoundDuration":850581,"Delta":242660877},{"NoteNumber":49,"Velocity":34,"Duration":850581,"SoundDuration":850581,"Delta":242660877},{"NoteNumber":56,"Velocity":40,"Duration":850581,"SoundDuration":850581,"Delta":242660877},{"NoteNumber":61,"Velocity":50,"Duration":850581,"SoundDuration":850581,"Delta":242660877},{"NoteNumber":76,"Velocity":73,"Duration":410958,"SoundDuration":410958,"Delta":243511458},{"NoteNumber":78,"Velocity":68,"Duration":242298,"SoundDuration":242298,"Delta":243922417},{"NoteNumber":80,"Velocity":64,"Duration":220912,"SoundDuration":220912,"Delta":244127897},{"NoteNumber":81,"Velocity":71,"Duration":395740,"SoundDuration":395740,"Delta":244348810},{"NoteNumber":80,"Velocity":62,"Duration":395740,"SoundDuration":395740,"Delta":244780527},{"NoteNumber":78,"Velocity":65,"Duration":386996,"SoundDuration":386996,"Delta":245212244},{"NoteNumber":76,"Velocity":59,"Duration":404411,"SoundDuration":404411,"Delta":245634422},{"NoteNumber":74,"Velocity":63,"Duration":392857,"SoundDuration":392857,"Delta":246075599},{"NoteNumber":54,"Velocity":56,"Duration":1749645,"SoundDuration":1749645,"Delta":246075599},{"NoteNumber":57,"Velocity":64,"Duration":428571,"SoundDuration":428571,"Delta":246075599},{"NoteNumber":69,"Velocity":63,"Duration":866528,"SoundDuration":866528,"Delta":246504170},{"NoteNumber":59,"Velocity":61,"Duration":251050,"SoundDuration":251050,"Delta":246504170},{"NoteNumber":61,"Velocity":58,"Duration":220588,"SoundDuration":220588,"Delta":246718456},{"NoteNumber":62,"Velocity":61,"Duration":395683,"SoundDuration":395683,"Delta":246939044},{"NoteNumber":81,"Velocity":69,"Duration":895722,"SoundDuration":895722,"Delta":247370699},{"NoteNumber":61,"Velocity":58,"Duration":416666,"SoundDuration":416666,"Delta":247370699},{"NoteNumber":53,"Velocity":52,"Duration":892304,"SoundDuration":892304,"Delta":247825244},{"NoteNumber":59,"Velocity":61,"Duration":404411,"SoundDuration":404411,"Delta":247825244},{"NoteNumber":63,"Velocity":52,"Duration":451128,"SoundDuration":451128,"Delta":248266421},{"NoteNumber":72,"Velocity":52,"Duration":451128,"SoundDuration":451128,"Delta":248266421},{"NoteNumber":75,"Velocity":52,"Duration":451128,"SoundDuration":451128,"Delta":248266421},{"NoteNumber":57,"Velocity":56,"Duration":873663,"SoundDuration":873663,"Delta":248266421},{"NoteNumber":64,"Velocity":60,"Duration":422535,"SoundDuration":422535,"Delta":248717549},{"NoteNumber":73,"Velocity":60,"Duration":422535,"SoundDuration":422535,"Delta":248717549},{"NoteNumber":76,"Velocity":60,"Duration":422535,"SoundDuration":422535,"Delta":248717549},{"NoteNumber":52,"Velocity":50,"Duration":422535,"SoundDuration":422535,"Delta":248717549},{"NoteNumber":66,"Velocity":52,"Duration":248032,"SoundDuration":248032,"Delta":249140084},{"NoteNumber":68,"Velocity":45,"Duration":220588,"SoundDuration":220588,"Delta":249351351},{"NoteNumber":69,"Velocity":52,"Duration":390071,"SoundDuration":390071,"Delta":249571940},{"NoteNumber":59,"Velocity":36,"Duration":1346850,"SoundDuration":1346850,"Delta":249997472},{"NoteNumber":62,"Velocity":36,"Duration":1346850,"SoundDuration":1346850,"Delta":249997472},{"NoteNumber":64,"Velocity":42,"Duration":1769385,"SoundDuration":1769385,"Delta":249997472},{"NoteNumber":57,"Velocity":45,"Duration":416666,"SoundDuration":416666,"Delta":249997472},{"NoteNumber":52,"Velocity":42,"Duration":892304,"SoundDuration":892304,"Delta":250452017},{"NoteNumber":55,"Velocity":48,"Duration":404411,"SoundDuration":404411,"Delta":250452017},{"NoteNumber":56,"Velocity":45,"Duration":451128,"SoundDuration":451128,"Delta":250893194},{"NoteNumber":57,"Velocity":41,"Duration":422535,"SoundDuration":422535,"Delta":251344322},{"NoteNumber":61,"Velocity":41,"Duration":422535,"SoundDuration":422535,"Delta":251344322},{"NoteNumber":40,"Velocity":38,"Duration":422535,"SoundDuration":422535,"Delta":251344322},{"NoteNumber":66,"Velocity":42,"Duration":248032,"SoundDuration":248032,"Delta":251766857},{"NoteNumber":68,"Velocity":38,"Duration":220588,"SoundDuration":220588,"Delta":251978124},{"NoteNumber":69,"Velocity":42,"Duration":390071,"SoundDuration":390071,"Delta":252198712},{"NoteNumber":59,"Velocity":29,"Duration":1340456,"SoundDuration":1340456,"Delta":252624244},{"NoteNumber":62,"Velocity":29,"Duration":1340456,"SoundDuration":1340456,"Delta":252624244},{"NoteNumber":64,"Velocity":36,"Duration":1762991,"SoundDuration":1762991,"Delta":252624244},{"NoteNumber":57,"Velocity":38,"Duration":416666,"SoundDuration":416666,"Delta":252624244},{"NoteNumber":52,"Velocity":36,"Duration":885910,"SoundDuration":885910,"Delta":253078790},{"NoteNumber":55,"Velocity":40,"Duration":398550,"SoundDuration":398550,"Delta":253078790},{"NoteNumber":56,"Velocity":38,"Duration":451128,"SoundDuration":451128,"Delta":253513572},{"NoteNumber":57,"Velocity":40,"Duration":422535,"SoundDuration":422535,"Delta":253964700},{"NoteNumber":61,"Velocity":41,"Duration":422535,"SoundDuration":422535,"Delta":253964700},{"NoteNumber":40,"Velocity":38,"Duration":422535,"SoundDuration":422535,"Delta":253964700},{"NoteNumber":66,"Velocity":52,"Duration":248032,"SoundDuration":248032,"Delta":254387235},{"NoteNumber":68,"Velocity":45,"Duration":220588,"SoundDuration":220588,"Delta":254598503},{"NoteNumber":69,"Velocity":52,"Duration":390071,"SoundDuration":390071,"Delta":254819091},{"NoteNumber":57,"Velocity":36,"Duration":876099,"SoundDuration":876099,"Delta":255244623},{"NoteNumber":61,"Velocity":36,"Duration":876099,"SoundDuration":876099,"Delta":255244623},{"NoteNumber":54,"Velocity":45,"Duration":259259,"SoundDuration":259259,"Delta":255244623},{"NoteNumber":53,"Velocity":39,"Duration":258193,"SoundDuration":258193,"Delta":255466845},{"NoteNumber":52,"Velocity":48,"Duration":395683,"SoundDuration":395683,"Delta":255689068},{"NoteNumber":51,"Velocity":39,"Duration":897254,"SoundDuration":897254,"Delta":256120722},{"NoteNumber":57,"Velocity":39,"Duration":897254,"SoundDuration":897254,"Delta":256120722},{"NoteNumber":60,"Velocity":39,"Duration":897254,"SoundDuration":897254,"Delta":256120722},{"NoteNumber":42,"Velocity":42,"Duration":263157,"SoundDuration":263157,"Delta":256120722},{"NoteNumber":41,"Velocity":39,"Duration":262060,"SoundDuration":262060,"Delta":256346286},{"NoteNumber":40,"Velocity":48,"Duration":1783165,"SoundDuration":1783165,"Delta":256571850},{"NoteNumber":52,"Velocity":36,"Duration":434782,"SoundDuration":434782,"Delta":257017977},{"NoteNumber":57,"Velocity":36,"Duration":434782,"SoundDuration":434782,"Delta":257017977},{"NoteNumber":61,"Velocity":42,"Duration":434782,"SoundDuration":434782,"Delta":257017977},{"NoteNumber":54,"Velocity":33,"Duration":1353384,"SoundDuration":1353384,"Delta":257452759},{"NoteNumber":56,"Velocity":39,"Duration":1353384,"SoundDuration":1353384,"Delta":257452759},{"NoteNumber":62,"Velocity":46,"Duration":1353384,"SoundDuration":1353384,"Delta":257452759},{"NoteNumber":52,"Velocity":42,"Duration":902255,"SoundDuration":902255,"Delta":258355015},{"NoteNumber":56,"Velocity":41,"Duration":451127,"SoundDuration":451127,"Delta":258806143},{"NoteNumber":51,"Velocity":41,"Duration":451127,"SoundDuration":451127,"Delta":258806143},{"NoteNumber":33,"Velocity":31,"Duration":161290,"SoundDuration":161290,"Delta":259257271},{"NoteNumber":40,"Velocity":31,"Duration":161290,"SoundDuration":161290,"Delta":259418562},{"NoteNumber":45,"Velocity":30,"Duration":161290,"SoundDuration":161290,"Delta":259579852},{"NoteNumber":49,"Velocity":38,"Duration":161290,"SoundDuration":161290,"Delta":259741142},{"NoteNumber":52,"Velocity":34,"Duration":161290,"SoundDuration":161290,"Delta":259902433},{"NoteNumber":57,"Velocity":36,"Duration":161290,"SoundDuration":161290,"Delta":260063723},{"NoteNumber":51,"Velocity":39,"Duration":156250,"SoundDuration":156250,"Delta":260225013},{"NoteNumber":52,"Velocity":34,"Duration":155644,"SoundDuration":155644,"Delta":260381263},{"NoteNumber":57,"Velocity":34,"Duration":154442,"SoundDuration":154442,"Delta":260536908},{"NoteNumber":60,"Velocity":38,"Duration":153846,"SoundDuration":153846,"Delta":260691350},{"NoteNumber":61,"Velocity":34,"Duration":152671,"SoundDuration":152671,"Delta":260845197},{"NoteNumber":64,"Velocity":34,"Duration":151515,"SoundDuration":151515,"Delta":260997868},{"NoteNumber":69,"Velocity":45,"Duration":1841950,"SoundDuration":1841950,"Delta":261149384},{"NoteNumber":57,"Velocity":34,"Duration":2781887,"SoundDuration":2781887,"Delta":262082243},{"NoteNumber":60,"Velocity":33,"Duration":2781887,"SoundDuration":2781887,"Delta":262082243},{"NoteNumber":53,"Velocity":31,"Duration":2781887,"SoundDuration":2781887,"Delta":262082243},{"NoteNumber":67,"Velocity":44,"Duration":444444,"SoundDuration":444444,"Delta":262991334},{"NoteNumber":65,"Velocity":41,"Duration":468750,"SoundDuration":468750,"Delta":263435779},{"NoteNumber":64,"Velocity":44,"Duration":451127,"SoundDuration":451127,"Delta":263904529},{"NoteNumber":63,"Velocity":40,"Duration":508474,"SoundDuration":508474,"Delta":264355657},{"NoteNumber":45,"Velocity":31,"Duration":158730,"SoundDuration":158730,"Delta":264864131},{"NoteNumber":52,"Velocity":31,"Duration":158730,"SoundDuration":158730,"Delta":265022861},{"NoteNumber":57,"Velocity":30,"Duration":158730,"SoundDuration":158730,"Delta":265181591},{"NoteNumber":61,"Velocity":38,"Duration":158730,"SoundDuration":158730,"Delta":265340322},{"NoteNumber":64,"Velocity":34,"Duration":158730,"SoundDuration":158730,"Delta":265499052},{"NoteNumber":69,"Velocity":36,"Duration":158730,"SoundDuration":158730,"Delta":265657782},{"NoteNumber":63,"Velocity":39,"Duration":158730,"SoundDuration":158730,"Delta":265816512},{"NoteNumber":64,"Velocity":34,"Duration":158105,"SoundDuration":158105,"Delta":265975242},{"NoteNumber":69,"Velocity":34,"Duration":156865,"SoundDuration":156865,"Delta":266133348},{"NoteNumber":72,"Velocity":38,"Duration":155644,"SoundDuration":155644,"Delta":266290213},{"NoteNumber":73,"Velocity":34,"Duration":154442,"SoundDuration":154442,"Delta":266445857},{"NoteNumber":76,"Velocity":34,"Duration":153259,"SoundDuration":153259,"Delta":266600300},{"NoteNumber":81,"Velocity":49,"Duration":1866332,"SoundDuration":1866332,"Delta":266753559},{"NoteNumber":69,"Velocity":34,"Duration":2763372,"SoundDuration":2763372,"Delta":267703860},{"NoteNumber":72,"Velocity":33,"Duration":2763372,"SoundDuration":2763372,"Delta":267703860},{"NoteNumber":65,"Velocity":31,"Duration":2763372,"SoundDuration":2763372,"Delta":267703860},{"NoteNumber":79,"Velocity":44,"Duration":444444,"SoundDuration":444444,"Delta":268619891},{"NoteNumber":77,"Velocity":41,"Duration":472441,"SoundDuration":472441,"Delta":269064335},{"NoteNumber":76,"Velocity":44,"Duration":458015,"SoundDuration":458015,"Delta":269536776},{"NoteNumber":75,"Velocity":40,"Duration":472441,"SoundDuration":472441,"Delta":269994792},{"NoteNumber":57,"Velocity":28,"Duration":159999,"SoundDuration":159999,"Delta":270627233},{"NoteNumber":64,"Velocity":27,"Duration":160000,"SoundDuration":160000,"Delta":270787233},{"NoteNumber":69,"Velocity":33,"Duration":159999,"SoundDuration":159999,"Delta":270947233},{"NoteNumber":73,"Velocity":30,"Duration":160000,"SoundDuration":160000,"Delta":271107233},{"NoteNumber":75,"Velocity":31,"Duration":159999,"SoundDuration":159999,"Delta":271267233},{"NoteNumber":78,"Velocity":34,"Duration":160000,"SoundDuration":160000,"Delta":271427233},{"NoteNumber":76,"Velocity":30,"Duration":159999,"SoundDuration":159999,"Delta":271587233},{"NoteNumber":73,"Velocity":30,"Duration":160000,"SoundDuration":160000,"Delta":271747233},{"NoteNumber":81,"Velocity":33,"Duration":157480,"SoundDuration":157480,"Delta":271907233},{"NoteNumber":85,"Velocity":30,"Duration":158105,"SoundDuration":158105,"Delta":272064713},{"NoteNumber":88,"Velocity":30,"Duration":158730,"SoundDuration":158730,"Delta":272222819},{"NoteNumber":92,"Velocity":33,"Duration":160000,"SoundDuration":160000,"Delta":272381549},{"NoteNumber":93,"Velocity":30,"Duration":160645,"SoundDuration":160645,"Delta":272541549},{"NoteNumber":97,"Velocity":30,"Duration":161946,"SoundDuration":161946,"Delta":272702194},{"NoteNumber":100,"Velocity":36,"Duration":7484588,"SoundDuration":7484588,"Delta":272864140},{"NoteNumber":93,"Velocity":29,"Duration":1074766,"SoundDuration":1074766,"Delta":273399854},{"NoteNumber":88,"Velocity":29,"Duration":1074766,"SoundDuration":1074766,"Delta":273399854},{"NoteNumber":81,"Velocity":25,"Duration":1074766,"SoundDuration":1074766,"Delta":273399854},{"NoteNumber":85,"Velocity":25,"Duration":1074766,"SoundDuration":1074766,"Delta":273399854},{"NoteNumber":93,"Velocity":29,"Duration":1074766,"SoundDuration":1074766,"Delta":274521349},{"NoteNumber":88,"Velocity":29,"Duration":1074766,"SoundDuration":1074766,"Delta":274521349},{"NoteNumber":81,"Velocity":26,"Duration":1074766,"SoundDuration":1074766,"Delta":274521349},{"NoteNumber":85,"Velocity":26,"Duration":1074766,"SoundDuration":1074766,"Delta":274521349},{"NoteNumber":93,"Velocity":29,"Duration":1127451,"SoundDuration":1127451,"Delta":275642844},{"NoteNumber":88,"Velocity":29,"Duration":1127451,"SoundDuration":1127451,"Delta":275642844},{"NoteNumber":81,"Velocity":26,"Duration":1127451,"SoundDuration":1127451,"Delta":275642844},{"NoteNumber":85,"Velocity":26,"Duration":1127451,"SoundDuration":1127451,"Delta":275642844},{"NoteNumber":88,"Velocity":28,"Duration":3529413,"SoundDuration":3529413,"Delta":276819315},{"NoteNumber":93,"Velocity":28,"Duration":3529413,"SoundDuration":3529413,"Delta":276819315},{"NoteNumber":81,"Velocity":25,"Duration":3529413,"SoundDuration":3529413,"Delta":276819315},{"NoteNumber":85,"Velocity":25,"Duration":3529413,"SoundDuration":3529413,"Delta":276819315}],"license":{"name":"Creative Commons Attribution-ShareAlike 3.0 Germany","url":"http://creativecommons.org/licenses/by-sa/3.0/de/deed.en","text":"The MIDI, audio (MP3, OGG) and video files of Bernd Krueger are licensed under the cc-by-sa Germany License. This means that you can use and adapt the files, as long as you attribute the copyright holder.\n\nName: Bernd Krueger\nSource: http://www.piano-midi.de\n\nThe distribution or public playback of the files is only allowed under identical license conditions.\n\nThe scores are open source.","attribution":"MIDI files by Bernd Krueger (piano-midi.de)","attributionUrl":"http://www.piano-midi.de"}}