{"title":"Maerz","artist":"Tchaikovsky","durationMs":134562,"midiSha256":"b461bd72182d894d9ff467e798354eaee045d64ee5e82bc1896b6c32f5e475dc","midiObject":[{"NoteNumber":62,"Velocity":45,"Duration":1575503,"SoundDuration":1575503,"Delta":0},{"NoteNumber":58,"Velocity":40,"Duration":1575503,"SoundDuration":1575503,"Delta":0},{"NoteNumber":55,"Velocity":38,"Duration":1578882,"SoundDuration":1578882,"Delta":807651},{"NoteNumber":63,"Velocity":45,"Duration":1578882,"SoundDuration":1578882,"Delta":1575503},{"NoteNumber":60,"Velocity":40,"Duration":1578882,"SoundDuration":1578882,"Delta":1575503},{"NoteNumber":55,"Velocity":33,"Duration":1578882,"SoundDuration":1578882,"Delta":2386533},{"NoteNumber":62,"Velocity":45,"Duration":1558973,"SoundDuration":1558973,"Delta":3154386},{"NoteNumber":58,"Velocity":40,"Duration":1558973,"SoundDuration":1558973,"Delta":3154386},{"NoteNumber":55,"Velocity":36,"Duration":1536794,"SoundDuration":1536794,"Delta":3965416},{"NoteNumber":62,"Velocity":45,"Duration":1536794,"SoundDuration":1536794,"Delta":4713359},{"NoteNumber":57,"Velocity":40,"Duration":1536794,"SoundDuration":1536794,"Delta":4713359},{"NoteNumber":60,"Velocity":45,"Duration":1536794,"SoundDuration":1536794,"Delta":4713359},{"NoteNumber":55,"Velocity":33,"Duration":1495886,"SoundDuration":1495886,"Delta":5502210},{"NoteNumber":62,"Velocity":45,"Duration":1450354,"SoundDuration":1450354,"Delta":6250153},{"NoteNumber":58,"Velocity":40,"Duration":1450354,"SoundDuration":1450354,"Delta":6250153},{"NoteNumber":67,"Velocity":56,"Duration":175602,"SoundDuration":175602,"Delta":6998096},{"NoteNumber":55,"Velocity":38,"Duration":1470264,"SoundDuration":1470264,"Delta":6998096},{"NoteNumber":67,"Velocity":52,"Duration":117068,"SoundDuration":117068,"Delta":7349301},{"NoteNumber":69,"Velocity":49,"Duration":117068,"SoundDuration":117068,"Delta":7466370},{"NoteNumber":67,"Velocity":48,"Duration":117068,"SoundDuration":117068,"Delta":7583438},{"NoteNumber":66,"Velocity":57,"Duration":1110631,"SoundDuration":1110631,"Delta":7700507},{"NoteNumber":60,"Velocity":38,"Duration":1466081,"SoundDuration":1466081,"Delta":7700507},{"NoteNumber":63,"Velocity":42,"Duration":1466081,"SoundDuration":1466081,"Delta":7700507},{"NoteNumber":55,"Velocity":33,"Duration":1417998,"SoundDuration":1417998,"Delta":8468360},{"NoteNumber":69,"Velocity":44,"Duration":355450,"SoundDuration":355450,"Delta":8811138},{"NoteNumber":67,"Velocity":52,"Duration":359884,"SoundDuration":359884,"Delta":9166589},{"NoteNumber":62,"Velocity":49,"Duration":1468215,"SoundDuration":1468215,"Delta":9166589},{"NoteNumber":58,"Velocity":42,"Duration":1468215,"SoundDuration":1468215,"Delta":9166589},{"NoteNumber":70,"Velocity":57,"Duration":359884,"SoundDuration":359884,"Delta":9526473},{"NoteNumber":74,"Velocity":64,"Duration":364520,"SoundDuration":364520,"Delta":9886358},{"NoteNumber":55,"Velocity":40,"Duration":1526656,"SoundDuration":1526656,"Delta":9886358},{"NoteNumber":78,"Velocity":69,"Duration":383926,"SoundDuration":383926,"Delta":10250878},{"NoteNumber":79,"Velocity":68,"Duration":1142730,"SoundDuration":1142730,"Delta":10634804},{"NoteNumber":60,"Velocity":39,"Duration":1526656,"SoundDuration":1526656,"Delta":10634804},{"NoteNumber":57,"Velocity":33,"Duration":1526656,"SoundDuration":1526656,"Delta":10634804},{"NoteNumber":62,"Velocity":45,"Duration":1526656,"SoundDuration":1526656,"Delta":10634804},{"NoteNumber":55,"Velocity":34,"Duration":1548446,"SoundDuration":1548446,"Delta":11413014},{"NoteNumber":78,"Velocity":60,"Duration":383926,"SoundDuration":383926,"Delta":11777534},{"NoteNumber":74,"Velocity":61,"Duration":800000,"SoundDuration":800000,"Delta":12161461},{"NoteNumber":58,"Velocity":34,"Duration":793333,"SoundDuration":793333,"Delta":12161461},{"NoteNumber":62,"Velocity":38,"Duration":793333,"SoundDuration":793333,"Delta":12161461},{"NoteNumber":55,"Velocity":37,"Duration":702411,"SoundDuration":702411,"Delta":12961461},{"NoteNumber":58,"Velocity":37,"Duration":702411,"SoundDuration":702411,"Delta":12961461},{"NoteNumber":62,"Velocity":41,"Duration":702411,"SoundDuration":702411,"Delta":12961461},{"NoteNumber":43,"Velocity":46,"Duration":175602,"SoundDuration":175602,"Delta":12961461},{"NoteNumber":43,"Velocity":39,"Duration":117068,"SoundDuration":117068,"Delta":13312666},{"NoteNumber":45,"Velocity":39,"Duration":117068,"SoundDuration":117068,"Delta":13429735},{"NoteNumber":43,"Velocity":39,"Duration":117068,"SoundDuration":117068,"Delta":13546803},{"NoteNumber":42,"Velocity":49,"Duration":1104587,"SoundDuration":1104587,"Delta":13663872},{"NoteNumber":62,"Velocity":42,"Duration":711340,"SoundDuration":711340,"Delta":14421639},{"NoteNumber":60,"Velocity":42,"Duration":711340,"SoundDuration":711340,"Delta":14421639},{"NoteNumber":57,"Velocity":38,"Duration":711340,"SoundDuration":711340,"Delta":14421639},{"NoteNumber":45,"Velocity":47,"Duration":364520,"SoundDuration":364520,"Delta":14768460},{"NoteNumber":43,"Velocity":46,"Duration":414691,"SoundDuration":414691,"Delta":15132980},{"NoteNumber":46,"Velocity":49,"Duration":416203,"SoundDuration":416203,"Delta":15488430},{"NoteNumber":62,"Velocity":49,"Duration":748446,"SoundDuration":748446,"Delta":15843880},{"NoteNumber":58,"Velocity":42,"Duration":748446,"SoundDuration":748446,"Delta":15843880},{"NoteNumber":50,"Velocity":51,"Duration":428507,"SoundDuration":428507,"Delta":15843880},{"NoteNumber":54,"Velocity":54,"Duration":448777,"SoundDuration":448777,"Delta":16208400},{"NoteNumber":55,"Velocity":57,"Duration":1157093,"SoundDuration":1157093,"Delta":16592327},{"NoteNumber":62,"Velocity":42,"Duration":743403,"SoundDuration":743403,"Delta":17370537},{"NoteNumber":57,"Velocity":38,"Duration":743403,"SoundDuration":743403,"Delta":17370537},{"NoteNumber":60,"Velocity":38,"Duration":743403,"SoundDuration":743403,"Delta":17370537},{"NoteNumber":54,"Velocity":44,"Duration":364519,"SoundDuration":364519,"Delta":17749420},{"NoteNumber":50,"Velocity":40,"Duration":1450354,"SoundDuration":1450354,"Delta":18113940},{"NoteNumber":67,"Velocity":56,"Duration":175602,"SoundDuration":175602,"Delta":18861883},{"NoteNumber":62,"Velocity":38,"Duration":702411,"SoundDuration":702411,"Delta":18861883},{"NoteNumber":55,"Velocity":33,"Duration":702411,"SoundDuration":702411,"Delta":18861883},{"NoteNumber":58,"Velocity":33,"Duration":702411,"SoundDuration":702411,"Delta":18861883},{"NoteNumber":67,"Velocity":52,"Duration":117068,"SoundDuration":117068,"Delta":19213089},{"NoteNumber":69,"Velocity":48,"Duration":117068,"SoundDuration":117068,"Delta":19330157},{"NoteNumber":67,"Velocity":48,"Duration":117068,"SoundDuration":117068,"Delta":19447226},{"NoteNumber":66,"Velocity":61,"Duration":1110631,"SoundDuration":1110631,"Delta":19564295},{"NoteNumber":48,"Velocity":45,"Duration":1466081,"SoundDuration":1466081,"Delta":19564295},{"NoteNumber":54,"Velocity":33,"Duration":698229,"SoundDuration":698229,"Delta":20332147},{"NoteNumber":62,"Velocity":38,"Duration":698229,"SoundDuration":698229,"Delta":20332147},{"NoteNumber":57,"Velocity":33,"Duration":698229,"SoundDuration":698229,"Delta":20332147},{"NoteNumber":69,"Velocity":53,"Duration":355450,"SoundDuration":355450,"Delta":20674926},{"NoteNumber":67,"Velocity":58,"Duration":359884,"SoundDuration":359884,"Delta":21030376},{"NoteNumber":46,"Velocity":49,"Duration":719769,"SoundDuration":719769,"Delta":21030376},{"NoteNumber":70,"Velocity":62,"Duration":359884,"SoundDuration":359884,"Delta":21390261},{"NoteNumber":74,"Velocity":66,"Duration":364519,"SoundDuration":364519,"Delta":21750146},{"NoteNumber":62,"Velocity":40,"Duration":748446,"SoundDuration":748446,"Delta":21750146},{"NoteNumber":58,"Velocity":36,"Duration":748446,"SoundDuration":748446,"Delta":21750146},{"NoteNumber":55,"Velocity":36,"Duration":748446,"SoundDuration":748446,"Delta":21750146},{"NoteNumber":78,"Velocity":69,"Duration":383926,"SoundDuration":383926,"Delta":22114666},{"NoteNumber":79,"Velocity":73,"Duration":1142730,"SoundDuration":1142730,"Delta":22498592},{"NoteNumber":47,"Velocity":53,"Duration":778210,"SoundDuration":778210,"Delta":22498592},{"NoteNumber":59,"Velocity":34,"Duration":764519,"SoundDuration":764519,"Delta":23276802},{"NoteNumber":55,"Velocity":34,"Duration":764519,"SoundDuration":764519,"Delta":23276802},{"NoteNumber":62,"Velocity":39,"Duration":764519,"SoundDuration":764519,"Delta":23276802},{"NoteNumber":77,"Velocity":67,"Duration":399999,"SoundDuration":399999,"Delta":23641322},{"NoteNumber":77,"Velocity":67,"Duration":729421,"SoundDuration":729421,"Delta":24041322},{"NoteNumber":48,"Velocity":52,"Duration":729421,"SoundDuration":729421,"Delta":24041322},{"NoteNumber":54,"Velocity":52,"Duration":418597,"SoundDuration":418597,"Delta":24415293},{"NoteNumber":67,"Velocity":44,"Duration":762809,"SoundDuration":762809,"Delta":24770744},{"NoteNumber":75,"Velocity":58,"Duration":762809,"SoundDuration":762809,"Delta":24770744},{"NoteNumber":72,"Velocity":52,"Duration":762809,"SoundDuration":762809,"Delta":24770744},{"NoteNumber":55,"Velocity":51,"Duration":442871,"SoundDuration":442871,"Delta":24770744},{"NoteNumber":60,"Velocity":54,"Duration":448777,"SoundDuration":448777,"Delta":25149627},{"NoteNumber":74,"Velocity":62,"Duration":778210,"SoundDuration":778210,"Delta":25533553},{"NoteNumber":65,"Velocity":57,"Duration":1157093,"SoundDuration":1157093,"Delta":25533553},{"NoteNumber":72,"Velocity":46,"Duration":778883,"SoundDuration":778883,"Delta":26311763},{"NoteNumber":67,"Velocity":46,"Duration":778883,"SoundDuration":778883,"Delta":26311763},{"NoteNumber":55,"Velocity":36,"Duration":778883,"SoundDuration":778883,"Delta":26311763},{"NoteNumber":60,"Velocity":40,"Duration":778883,"SoundDuration":778883,"Delta":26311763},{"NoteNumber":63,"Velocity":51,"Duration":399999,"SoundDuration":399999,"Delta":26690647},{"NoteNumber":72,"Velocity":68,"Duration":276820,"SoundDuration":276820,"Delta":27090647},{"NoteNumber":58,"Velocity":36,"Duration":1500998,"SoundDuration":1500998,"Delta":27090647},{"NoteNumber":55,"Velocity":36,"Duration":1500998,"SoundDuration":1500998,"Delta":27090647},{"NoteNumber":62,"Velocity":40,"Duration":1500998,"SoundDuration":1500998,"Delta":27090647},{"NoteNumber":66,"Velocity":57,"Duration":276820,"SoundDuration":276820,"Delta":27459741},{"NoteNumber":67,"Velocity":62,"Duration":284162,"SoundDuration":284162,"Delta":27828836},{"NoteNumber":50,"Velocity":45,"Duration":2305539,"SoundDuration":2305539,"Delta":27828836},{"NoteNumber":69,"Velocity":58,"Duration":287944,"SoundDuration":287944,"Delta":28207719},{"NoteNumber":60,"Velocity":46,"Duration":1542729,"SoundDuration":1542729,"Delta":28591646},{"NoteNumber":70,"Velocity":58,"Duration":1142730,"SoundDuration":1142730,"Delta":28591646},{"NoteNumber":66,"Velocity":46,"Duration":1541729,"SoundDuration":1541729,"Delta":28611101},{"NoteNumber":62,"Velocity":35,"Duration":764519,"SoundDuration":764519,"Delta":29369856},{"NoteNumber":69,"Velocity":46,"Duration":399999,"SoundDuration":399999,"Delta":29734376},{"NoteNumber":67,"Velocity":42,"Duration":746199,"SoundDuration":746199,"Delta":30134376},{"NoteNumber":62,"Velocity":37,"Duration":746199,"SoundDuration":746199,"Delta":30134376},{"NoteNumber":58,"Velocity":37,"Duration":746199,"SoundDuration":746199,"Delta":30134376},{"NoteNumber":43,"Velocity":28,"Duration":746199,"SoundDuration":746199,"Delta":30134376},{"NoteNumber":50,"Velocity":36,"Duration":746199,"SoundDuration":746199,"Delta":30134376},{"NoteNumber":74,"Velocity":64,"Duration":562662,"SoundDuration":562662,"Delta":30880575},{"NoteNumber":74,"Velocity":63,"Duration":74034,"SoundDuration":74034,"Delta":31443238},{"NoteNumber":75,"Velocity":63,"Duration":74034,"SoundDuration":74034,"Delta":31517273},{"NoteNumber":74,"Velocity":69,"Duration":1037507,"SoundDuration":1037507,"Delta":31591307},{"NoteNumber":66,"Velocity":43,"Duration":1382335,"SoundDuration":1382335,"Delta":31591307},{"NoteNumber":63,"Velocity":37,"Duration":1382335,"SoundDuration":1382335,"Delta":31591307},{"NoteNumber":58,"Velocity":35,"Duration":1374100,"SoundDuration":1374100,"Delta":32283988},{"NoteNumber":69,"Velocity":55,"Duration":344827,"SoundDuration":344827,"Delta":32628815},{"NoteNumber":70,"Velocity":56,"Duration":171760,"SoundDuration":171760,"Delta":32973643},{"NoteNumber":65,"Velocity":43,"Duration":1350542,"SoundDuration":1350542,"Delta":32973643},{"NoteNumber":62,"Velocity":37,"Duration":1350542,"SoundDuration":1350542,"Delta":32973643},{"NoteNumber":73,"Velocity":58,"Duration":170454,"SoundDuration":170454,"Delta":33317817},{"NoteNumber":74,"Velocity":62,"Duration":168539,"SoundDuration":168539,"Delta":33658088},{"NoteNumber":58,"Velocity":36,"Duration":1341021,"SoundDuration":1341021,"Delta":33658088},{"NoteNumber":75,"Velocity":66,"Duration":166056,"SoundDuration":166056,"Delta":33993294},{"NoteNumber":77,"Velocity":67,"Duration":163043,"SoundDuration":163043,"Delta":34324185},{"NoteNumber":63,"Velocity":43,"Duration":1349848,"SoundDuration":1349848,"Delta":34324185},{"NoteNumber":60,"Velocity":37,"Duration":1349848,"SoundDuration":1349848,"Delta":34324185},{"NoteNumber":78,"Velocity":68,"Duration":174418,"SoundDuration":174418,"Delta":34650272},{"NoteNumber":82,"Velocity":70,"Duration":163043,"SoundDuration":163043,"Delta":34999109},{"NoteNumber":58,"Velocity":34,"Duration":1306503,"SoundDuration":1306503,"Delta":34999109},{"NoteNumber":81,"Velocity":68,"Duration":174418,"SoundDuration":174418,"Delta":35325196},{"NoteNumber":81,"Velocity":64,"Duration":58139,"SoundDuration":58139,"Delta":35615894},{"NoteNumber":84,"Velocity":77,"Duration":949681,"SoundDuration":949681,"Delta":35674034},{"NoteNumber":65,"Velocity":47,"Duration":1279352,"SoundDuration":1279352,"Delta":35674034},{"NoteNumber":62,"Velocity":43,"Duration":1279352,"SoundDuration":1279352,"Delta":35674034},{"NoteNumber":58,"Velocity":39,"Duration":1289943,"SoundDuration":1289943,"Delta":36305613},{"NoteNumber":82,"Velocity":67,"Duration":247252,"SoundDuration":247252,"Delta":36623716},{"NoteNumber":82,"Velocity":68,"Duration":54945,"SoundDuration":54945,"Delta":36898441},{"NoteNumber":86,"Velocity":75,"Duration":156250,"SoundDuration":156250,"Delta":36953386},{"NoteNumber":62,"Velocity":47,"Duration":1287630,"SoundDuration":1287630,"Delta":36953386},{"NoteNumber":72,"Velocity":54,"Duration":1287630,"SoundDuration":1287630,"Delta":36953386},{"NoteNumber":66,"Velocity":47,"Duration":1287630,"SoundDuration":1287630,"Delta":36953386},{"NoteNumber":81,"Velocity":70,"Duration":164835,"SoundDuration":164835,"Delta":37265886},{"NoteNumber":82,"Velocity":67,"Duration":54945,"SoundDuration":54945,"Delta":37540611},{"NoteNumber":86,"Velocity":75,"Duration":157894,"SoundDuration":157894,"Delta":37595556},{"NoteNumber":58,"Velocity":49,"Duration":1294582,"SoundDuration":1294582,"Delta":37595556},{"NoteNumber":81,"Velocity":69,"Duration":164835,"SoundDuration":164835,"Delta":37911346},{"NoteNumber":81,"Velocity":68,"Duration":54945,"SoundDuration":54945,"Delta":38186071},{"NoteNumber":86,"Velocity":75,"Duration":315789,"SoundDuration":315789,"Delta":38241016},{"NoteNumber":62,"Velocity":39,"Duration":1312384,"SoundDuration":1312384,"Delta":38241016},{"NoteNumber":70,"Velocity":47,"Duration":1312384,"SoundDuration":1312384,"Delta":38241016},{"NoteNumber":67,"Velocity":43,"Duration":1312384,"SoundDuration":1312384,"Delta":38241016},{"NoteNumber":79,"Velocity":68,"Duration":650254,"SoundDuration":650254,"Delta":38556805},{"NoteNumber":58,"Velocity":37,"Duration":1326474,"SoundDuration":1326474,"Delta":38890139},{"NoteNumber":82,"Velocity":70,"Duration":658840,"SoundDuration":658840,"Delta":39207060},{"NoteNumber":60,"Velocity":42,"Duration":1325342,"SoundDuration":1325342,"Delta":39553400},{"NoteNumber":63,"Velocity":47,"Duration":1325342,"SoundDuration":1325342,"Delta":39553400},{"NoteNumber":78,"Velocity":64,"Duration":666502,"SoundDuration":666502,"Delta":39865900},{"NoteNumber":58,"Velocity":34,"Duration":1340076,"SoundDuration":1340076,"Delta":40216613},{"NoteNumber":81,"Velocity":68,"Duration":668920,"SoundDuration":668920,"Delta":40532403},{"NoteNumber":62,"Velocity":49,"Duration":1375765,"SoundDuration":1375765,"Delta":40878743},{"NoteNumber":74,"Velocity":64,"Duration":693127,"SoundDuration":693127,"Delta":41201324},{"NoteNumber":58,"Velocity":32,"Duration":1364485,"SoundDuration":1364485,"Delta":41556690},{"NoteNumber":79,"Velocity":67,"Duration":210033,"SoundDuration":210033,"Delta":41894452},{"NoteNumber":74,"Velocity":55,"Duration":75011,"SoundDuration":75011,"Delta":42104485},{"NoteNumber":75,"Velocity":58,"Duration":75011,"SoundDuration":75011,"Delta":42179497},{"NoteNumber":74,"Velocity":67,"Duration":985815,"SoundDuration":985815,"Delta":42254509},{"NoteNumber":66,"Velocity":50,"Duration":1309891,"SoundDuration":1309891,"Delta":42254509},{"NoteNumber":63,"Velocity":45,"Duration":1309891,"SoundDuration":1309891,"Delta":42254509},{"NoteNumber":58,"Velocity":36,"Duration":1298071,"SoundDuration":1298071,"Delta":42921176},{"NoteNumber":69,"Velocity":55,"Duration":324075,"SoundDuration":324075,"Delta":43240325},{"NoteNumber":70,"Velocity":56,"Duration":159574,"SoundDuration":159574,"Delta":43564400},{"NoteNumber":62,"Velocity":37,"Duration":1298552,"SoundDuration":1298552,"Delta":43564400},{"NoteNumber":65,"Velocity":43,"Duration":1298552,"SoundDuration":1298552,"Delta":43564400},{"NoteNumber":73,"Velocity":58,"Duration":166666,"SoundDuration":166666,"Delta":43885913},{"NoteNumber":74,"Velocity":62,"Duration":157894,"SoundDuration":157894,"Delta":44219247},{"NoteNumber":58,"Velocity":36,"Duration":1282004,"SoundDuration":1282004,"Delta":44219247},{"NoteNumber":75,"Velocity":64,"Duration":164835,"SoundDuration":164835,"Delta":44535036},{"NoteNumber":77,"Velocity":67,"Duration":159574,"SoundDuration":159574,"Delta":44862953},{"NoteNumber":60,"Velocity":37,"Duration":1276596,"SoundDuration":1276596,"Delta":44862953},{"NoteNumber":63,"Velocity":43,"Duration":1276596,"SoundDuration":1276596,"Delta":44862953},{"NoteNumber":78,"Velocity":68,"Duration":159574,"SoundDuration":159574,"Delta":45182102},{"NoteNumber":82,"Velocity":70,"Duration":159574,"SoundDuration":159574,"Delta":45501251},{"NoteNumber":58,"Velocity":34,"Duration":1276595,"SoundDuration":1276595,"Delta":45501251},{"NoteNumber":81,"Velocity":68,"Duration":159574,"SoundDuration":159574,"Delta":45820400},{"NoteNumber":81,"Velocity":64,"Duration":53191,"SoundDuration":53191,"Delta":46086357},{"NoteNumber":84,"Velocity":75,"Duration":957447,"SoundDuration":957447,"Delta":46139549},{"NoteNumber":62,"Velocity":43,"Duration":1276595,"SoundDuration":1276595,"Delta":46139549},{"NoteNumber":65,"Velocity":47,"Duration":1276595,"SoundDuration":1276595,"Delta":46139549},{"NoteNumber":58,"Velocity":39,"Duration":1286162,"SoundDuration":1286162,"Delta":46777847},{"NoteNumber":82,"Velocity":67,"Duration":239361,"SoundDuration":239361,"Delta":47096996},{"NoteNumber":78,"Velocity":63,"Duration":53191,"SoundDuration":53191,"Delta":47362953},{"NoteNumber":82,"Velocity":73,"Duration":157265,"SoundDuration":157265,"Delta":47416145},{"NoteNumber":66,"Velocity":45,"Duration":1304393,"SoundDuration":1304393,"Delta":47416145},{"NoteNumber":72,"Velocity":51,"Duration":1304393,"SoundDuration":1304393,"Delta":47416145},{"NoteNumber":62,"Velocity":45,"Duration":1304393,"SoundDuration":1304393,"Delta":47416145},{"NoteNumber":78,"Velocity":67,"Duration":166666,"SoundDuration":166666,"Delta":47730676},{"NoteNumber":78,"Velocity":63,"Duration":55555,"SoundDuration":55555,"Delta":48008454},{"NoteNumber":82,"Velocity":73,"Duration":157265,"SoundDuration":157265,"Delta":48064009},{"NoteNumber":58,"Velocity":49,"Duration":1301690,"SoundDuration":1301690,"Delta":48064009},{"NoteNumber":78,"Velocity":64,"Duration":170998,"SoundDuration":170998,"Delta":48378541},{"NoteNumber":78,"Velocity":62,"Duration":56999,"SoundDuration":56999,"Delta":48663538},{"NoteNumber":81,"Velocity":70,"Duration":322580,"SoundDuration":322580,"Delta":48720538},{"NoteNumber":62,"Velocity":43,"Duration":1290323,"SoundDuration":1290323,"Delta":48720538},{"NoteNumber":67,"Velocity":43,"Duration":1290323,"SoundDuration":1290323,"Delta":48720538},{"NoteNumber":70,"Velocity":47,"Duration":1284946,"SoundDuration":1284946,"Delta":48720538},{"NoteNumber":74,"Velocity":60,"Duration":645161,"SoundDuration":645161,"Delta":49043119},{"NoteNumber":58,"Velocity":39,"Duration":1290994,"SoundDuration":1290994,"Delta":49365699},{"NoteNumber":79,"Velocity":61,"Duration":241935,"SoundDuration":241935,"Delta":49688280},{"NoteNumber":74,"Velocity":57,"Duration":53763,"SoundDuration":53763,"Delta":49957097},{"NoteNumber":70,"Velocity":66,"Duration":156250,"SoundDuration":156250,"Delta":50010861},{"NoteNumber":50,"Velocity":41,"Duration":1300330,"SoundDuration":1300330,"Delta":50010861},{"NoteNumber":54,"Velocity":41,"Duration":1300330,"SoundDuration":1300330,"Delta":50010861},{"NoteNumber":60,"Velocity":46,"Duration":1300330,"SoundDuration":1300330,"Delta":50010861},{"NoteNumber":69,"Velocity":58,"Duration":166666,"SoundDuration":166666,"Delta":50323361},{"NoteNumber":74,"Velocity":57,"Duration":55555,"SoundDuration":55555,"Delta":50601138},{"NoteNumber":70,"Velocity":64,"Duration":156250,"SoundDuration":156250,"Delta":50656694},{"NoteNumber":46,"Velocity":37,"Duration":1343567,"SoundDuration":1343567,"Delta":50656694},{"NoteNumber":69,"Velocity":55,"Duration":170998,"SoundDuration":170998,"Delta":50969194},{"NoteNumber":74,"Velocity":56,"Duration":56999,"SoundDuration":56999,"Delta":51254192},{"NoteNumber":69,"Velocity":68,"Duration":689069,"SoundDuration":689069,"Delta":51311191},{"NoteNumber":58,"Velocity":46,"Duration":1386889,"SoundDuration":1386889,"Delta":51311191},{"NoteNumber":50,"Velocity":41,"Duration":1386889,"SoundDuration":1386889,"Delta":51311191},{"NoteNumber":55,"Velocity":41,"Duration":1386889,"SoundDuration":1386889,"Delta":51311191},{"NoteNumber":67,"Velocity":64,"Duration":693127,"SoundDuration":693127,"Delta":51644895},{"NoteNumber":46,"Velocity":37,"Duration":1381813,"SoundDuration":1381813,"Delta":52000261},{"NoteNumber":62,"Velocity":58,"Duration":210033,"SoundDuration":210033,"Delta":52338023},{"NoteNumber":62,"Velocity":50,"Duration":75011,"SoundDuration":75011,"Delta":52548057},{"NoteNumber":63,"Velocity":50,"Duration":75011,"SoundDuration":75011,"Delta":52623069},{"NoteNumber":62,"Velocity":62,"Duration":1025991,"SoundDuration":1025991,"Delta":52698081},{"NoteNumber":51,"Velocity":39,"Duration":1367989,"SoundDuration":1367989,"Delta":52698081},{"NoteNumber":54,"Velocity":45,"Duration":1367989,"SoundDuration":1367989,"Delta":52698081},{"NoteNumber":46,"Velocity":39,"Duration":1322292,"SoundDuration":1322292,"Delta":53382075},{"NoteNumber":57,"Velocity":60,"Duration":341997,"SoundDuration":341997,"Delta":53724072},{"NoteNumber":58,"Velocity":62,"Duration":159574,"SoundDuration":159574,"Delta":54066070},{"NoteNumber":53,"Velocity":43,"Duration":1276036,"SoundDuration":1276036,"Delta":54066070},{"NoteNumber":50,"Velocity":37,"Duration":1276036,"SoundDuration":1276036,"Delta":54066070},{"NoteNumber":61,"Velocity":63,"Duration":159574,"SoundDuration":159574,"Delta":54385219},{"NoteNumber":62,"Velocity":64,"Duration":159574,"SoundDuration":159574,"Delta":54704368},{"NoteNumber":46,"Velocity":36,"Duration":1269317,"SoundDuration":1269317,"Delta":54704368},{"NoteNumber":63,"Velocity":66,"Duration":159574,"SoundDuration":159574,"Delta":55023517},{"NoteNumber":65,"Velocity":67,"Duration":157894,"SoundDuration":157894,"Delta":55342106},{"NoteNumber":51,"Velocity":43,"Duration":1269949,"SoundDuration":1269949,"Delta":55342106},{"NoteNumber":48,"Velocity":37,"Duration":1269949,"SoundDuration":1269949,"Delta":55342106},{"NoteNumber":66,"Velocity":68,"Duration":157894,"SoundDuration":157894,"Delta":55657895},{"NoteNumber":70,"Velocity":70,"Duration":157894,"SoundDuration":157894,"Delta":55973685},{"NoteNumber":46,"Velocity":36,"Duration":1290544,"SoundDuration":1290544,"Delta":55973685},{"NoteNumber":69,"Velocity":68,"Duration":160146,"SoundDuration":160146,"Delta":56290034},{"NoteNumber":69,"Velocity":64,"Duration":54347,"SoundDuration":54347,"Delta":56557707},{"NoteNumber":72,"Velocity":72,"Duration":978261,"SoundDuration":978261,"Delta":56612055},{"NoteNumber":53,"Velocity":47,"Duration":1304347,"SoundDuration":1304347,"Delta":56612055},{"NoteNumber":50,"Velocity":43,"Duration":1304347,"SoundDuration":1304347,"Delta":56612055},{"NoteNumber":46,"Velocity":39,"Duration":1309009,"SoundDuration":1309009,"Delta":57264229},{"NoteNumber":70,"Velocity":67,"Duration":244565,"SoundDuration":244565,"Delta":57590316},{"NoteNumber":70,"Velocity":61,"Duration":54347,"SoundDuration":54347,"Delta":57862055},{"NoteNumber":74,"Velocity":72,"Duration":153061,"SoundDuration":153061,"Delta":57916403},{"NoteNumber":54,"Velocity":45,"Duration":1304955,"SoundDuration":1304955,"Delta":57916403},{"NoteNumber":60,"Velocity":51,"Duration":1304955,"SoundDuration":1304955,"Delta":57916403},{"NoteNumber":50,"Velocity":45,"Duration":1304955,"SoundDuration":1304955,"Delta":57916403},{"NoteNumber":69,"Velocity":64,"Duration":175356,"SoundDuration":175356,"Delta":58222526},{"NoteNumber":70,"Velocity":60,"Duration":58452,"SoundDuration":58452,"Delta":58514787},{"NoteNumber":74,"Velocity":73,"Duration":153061,"SoundDuration":153061,"Delta":58573239},{"NoteNumber":46,"Velocity":49,"Duration":1300293,"SoundDuration":1300293,"Delta":58573239},{"NoteNumber":69,"Velocity":62,"Duration":170998,"SoundDuration":170998,"Delta":58879361},{"NoteNumber":69,"Velocity":59,"Duration":56999,"SoundDuration":56999,"Delta":59164359},{"NoteNumber":74,"Velocity":70,"Duration":326087,"SoundDuration":326087,"Delta":59221358},{"NoteNumber":50,"Velocity":43,"Duration":1304347,"SoundDuration":1304347,"Delta":59221358},{"NoteNumber":55,"Velocity":43,"Duration":1304347,"SoundDuration":1304347,"Delta":59221358},{"NoteNumber":58,"Velocity":47,"Duration":1304347,"SoundDuration":1304347,"Delta":59221358},{"NoteNumber":62,"Velocity":64,"Duration":652174,"SoundDuration":652174,"Delta":59547445},{"NoteNumber":46,"Velocity":39,"Duration":1320039,"SoundDuration":1320039,"Delta":59873532},{"NoteNumber":67,"Velocity":61,"Duration":244565,"SoundDuration":244565,"Delta":60199619},{"NoteNumber":62,"Velocity":61,"Duration":54347,"SoundDuration":54347,"Delta":60471359},{"NoteNumber":67,"Velocity":70,"Duration":156250,"SoundDuration":156250,"Delta":60525706},{"NoteNumber":52,"Velocity":41,"Duration":1355768,"SoundDuration":1355768,"Delta":60525706},{"NoteNumber":57,"Velocity":46,"Duration":1355768,"SoundDuration":1355768,"Delta":60525706},{"NoteNumber":61,"Velocity":63,"Duration":177683,"SoundDuration":177683,"Delta":60838206},{"NoteNumber":62,"Velocity":57,"Duration":59227,"SoundDuration":59227,"Delta":61134345},{"NoteNumber":67,"Velocity":68,"Duration":161290,"SoundDuration":161290,"Delta":61193572},{"NoteNumber":45,"Velocity":37,"Duration":687902,"SoundDuration":687902,"Delta":61193572},{"NoteNumber":61,"Velocity":62,"Duration":187406,"SoundDuration":187406,"Delta":61516153},{"NoteNumber":62,"Velocity":58,"Duration":57723,"SoundDuration":57723,"Delta":61823752},{"NoteNumber":67,"Velocity":68,"Duration":1058823,"SoundDuration":1058823,"Delta":61881475},{"NoteNumber":50,"Velocity":45,"Duration":1461076,"SoundDuration":1461076,"Delta":61881475},{"NoteNumber":57,"Velocity":52,"Duration":1108135,"SoundDuration":1108135,"Delta":62234416},{"NoteNumber":38,"Velocity":34,"Duration":755193,"SoundDuration":755193,"Delta":62587357},{"NoteNumber":66,"Velocity":54,"Duration":402252,"SoundDuration":402252,"Delta":62940299},{"NoteNumber":58,"Velocity":41,"Duration":1377901,"SoundDuration":1377901,"Delta":63342551},{"NoteNumber":55,"Velocity":37,"Duration":1377901,"SoundDuration":1377901,"Delta":63342551},{"NoteNumber":62,"Velocity":49,"Duration":105263,"SoundDuration":105263,"Delta":63684548},{"NoteNumber":63,"Velocity":49,"Duration":105263,"SoundDuration":105263,"Delta":63789812},{"NoteNumber":62,"Velocity":49,"Duration":105263,"SoundDuration":105263,"Delta":63895075},{"NoteNumber":61,"Velocity":57,"Duration":540086,"SoundDuration":540086,"Delta":64000338},{"NoteNumber":50,"Velocity":41,"Duration":720115,"SoundDuration":720115,"Delta":64000338},{"NoteNumber":62,"Velocity":55,"Duration":180028,"SoundDuration":180028,"Delta":64540424},{"NoteNumber":66,"Velocity":66,"Duration":77319,"SoundDuration":77319,"Delta":64720453},{"NoteNumber":60,"Velocity":41,"Duration":1287539,"SoundDuration":1287539,"Delta":64720453},{"NoteNumber":57,"Velocity":41,"Duration":1287539,"SoundDuration":1287539,"Delta":64720453},{"NoteNumber":68,"Velocity":62,"Duration":77319,"SoundDuration":77319,"Delta":64875092},{"NoteNumber":69,"Velocity":64,"Duration":81521,"SoundDuration":81521,"Delta":65029731},{"NoteNumber":73,"Velocity":67,"Duration":81521,"SoundDuration":81521,"Delta":65192775},{"NoteNumber":74,"Velocity":69,"Duration":652174,"SoundDuration":652174,"Delta":65355818},{"NoteNumber":50,"Velocity":41,"Duration":652174,"SoundDuration":652174,"Delta":65355818},{"NoteNumber":58,"Velocity":43,"Duration":1302452,"SoundDuration":1302452,"Delta":66007992},{"NoteNumber":62,"Velocity":43,"Duration":1302452,"SoundDuration":1302452,"Delta":66007992},{"NoteNumber":79,"Velocity":66,"Duration":156250,"SoundDuration":156250,"Delta":66331278},{"NoteNumber":79,"Velocity":58,"Duration":52083,"SoundDuration":52083,"Delta":66487528},{"NoteNumber":81,"Velocity":58,"Duration":52083,"SoundDuration":52083,"Delta":66539611},{"NoteNumber":79,"Velocity":58,"Duration":52083,"SoundDuration":52083,"Delta":66591694},{"NoteNumber":78,"Velocity":67,"Duration":499999,"SoundDuration":499999,"Delta":66643778},{"NoteNumber":50,"Velocity":37,"Duration":666666,"SoundDuration":666666,"Delta":66643778},{"NoteNumber":79,"Velocity":63,"Duration":166666,"SoundDuration":166666,"Delta":67143778},{"NoteNumber":86,"Velocity":74,"Duration":315789,"SoundDuration":315789,"Delta":67310444},{"NoteNumber":57,"Velocity":52,"Duration":1364569,"SoundDuration":1364569,"Delta":67310444},{"NoteNumber":60,"Velocity":52,"Duration":1364569,"SoundDuration":1364569,"Delta":67310444},{"NoteNumber":74,"Velocity":64,"Duration":706783,"SoundDuration":706783,"Delta":67626234},{"NoteNumber":50,"Velocity":40,"Duration":683994,"SoundDuration":683994,"Delta":67991020},{"NoteNumber":62,"Velocity":40,"Duration":341997,"SoundDuration":341997,"Delta":68333017},{"NoteNumber":55,"Velocity":37,"Duration":1362285,"SoundDuration":1362285,"Delta":68675014},{"NoteNumber":58,"Velocity":41,"Duration":1362285,"SoundDuration":1362285,"Delta":68675014},{"NoteNumber":62,"Velocity":52,"Duration":104166,"SoundDuration":104166,"Delta":69004685},{"NoteNumber":63,"Velocity":52,"Duration":104166,"SoundDuration":104166,"Delta":69108851},{"NoteNumber":62,"Velocity":52,"Duration":104166,"SoundDuration":104166,"Delta":69213018},{"NoteNumber":61,"Velocity":61,"Duration":540086,"SoundDuration":540086,"Delta":69317185},{"NoteNumber":50,"Velocity":41,"Duration":720115,"SoundDuration":720115,"Delta":69317185},{"NoteNumber":62,"Velocity":57,"Duration":180028,"SoundDuration":180028,"Delta":69857271},{"NoteNumber":66,"Velocity":64,"Duration":77319,"SoundDuration":77319,"Delta":70037300},{"NoteNumber":57,"Velocity":41,"Duration":1306016,"SoundDuration":1306016,"Delta":70037300},{"NoteNumber":60,"Velocity":41,"Duration":1306016,"SoundDuration":1306016,"Delta":70037300},{"NoteNumber":68,"Velocity":61,"Duration":77319,"SoundDuration":77319,"Delta":70191939},{"NoteNumber":69,"Velocity":64,"Duration":80645,"SoundDuration":80645,"Delta":70346578},{"NoteNumber":73,"Velocity":68,"Duration":80645,"SoundDuration":80645,"Delta":70507868},{"NoteNumber":74,"Velocity":73,"Duration":674157,"SoundDuration":674157,"Delta":70669159},{"NoteNumber":50,"Velocity":41,"Duration":674157,"SoundDuration":674157,"Delta":70669159},{"NoteNumber":62,"Velocity":43,"Duration":1360393,"SoundDuration":1360393,"Delta":71343316},{"NoteNumber":58,"Velocity":43,"Duration":1360393,"SoundDuration":1360393,"Delta":71343316},{"NoteNumber":79,"Velocity":64,"Duration":160944,"SoundDuration":160944,"Delta":71680395},{"NoteNumber":79,"Velocity":59,"Duration":53648,"SoundDuration":53648,"Delta":71841339},{"NoteNumber":81,"Velocity":59,"Duration":53648,"SoundDuration":53648,"Delta":71894987},{"NoteNumber":79,"Velocity":59,"Duration":53648,"SoundDuration":53648,"Delta":71948635},{"NoteNumber":78,"Velocity":65,"Duration":526069,"SoundDuration":526069,"Delta":72002283},{"NoteNumber":50,"Velocity":38,"Duration":701425,"SoundDuration":701425,"Delta":72002283},{"NoteNumber":79,"Velocity":64,"Duration":175356,"SoundDuration":175356,"Delta":72528353},{"NoteNumber":86,"Velocity":76,"Duration":312500,"SoundDuration":312500,"Delta":72703709},{"NoteNumber":60,"Velocity":43,"Duration":1361280,"SoundDuration":1361280,"Delta":72703709},{"NoteNumber":57,"Velocity":43,"Duration":1361280,"SoundDuration":1361280,"Delta":72703709},{"NoteNumber":74,"Velocity":54,"Duration":706783,"SoundDuration":706783,"Delta":73016209},{"NoteNumber":50,"Velocity":35,"Duration":683994,"SoundDuration":683994,"Delta":73380995},{"NoteNumber":62,"Velocity":35,"Duration":341997,"SoundDuration":341997,"Delta":73722993},{"NoteNumber":55,"Velocity":35,"Duration":1391637,"SoundDuration":1391637,"Delta":74064990},{"NoteNumber":58,"Velocity":38,"Duration":1391637,"SoundDuration":1391637,"Delta":74064990},{"NoteNumber":79,"Velocity":64,"Duration":164762,"SoundDuration":164762,"Delta":74406987},{"NoteNumber":79,"Velocity":59,"Duration":54920,"SoundDuration":54920,"Delta":74571750},{"NoteNumber":81,"Velocity":59,"Duration":54920,"SoundDuration":54920,"Delta":74626671},{"NoteNumber":79,"Velocity":60,"Duration":54920,"SoundDuration":54920,"Delta":74681592},{"NoteNumber":78,"Velocity":65,"Duration":540086,"SoundDuration":540086,"Delta":74736513},{"NoteNumber":50,"Velocity":38,"Duration":720115,"SoundDuration":720115,"Delta":74736513},{"NoteNumber":79,"Velocity":65,"Duration":180028,"SoundDuration":180028,"Delta":75276599},{"NoteNumber":86,"Velocity":77,"Duration":312500,"SoundDuration":312500,"Delta":75456628},{"NoteNumber":57,"Velocity":53,"Duration":1361280,"SoundDuration":1361280,"Delta":75456628},{"NoteNumber":60,"Velocity":53,"Duration":1361280,"SoundDuration":1361280,"Delta":75456628},{"NoteNumber":74,"Velocity":64,"Duration":706783,"SoundDuration":706783,"Delta":75769128},{"NoteNumber":50,"Velocity":41,"Duration":683994,"SoundDuration":683994,"Delta":76133914},{"NoteNumber":62,"Velocity":41,"Duration":341997,"SoundDuration":341997,"Delta":76475911},{"NoteNumber":55,"Velocity":46,"Duration":1367989,"SoundDuration":1367989,"Delta":76817908},{"NoteNumber":58,"Velocity":46,"Duration":1367989,"SoundDuration":1367989,"Delta":76817908},{"NoteNumber":73,"Velocity":63,"Duration":683994,"SoundDuration":683994,"Delta":77159905},{"NoteNumber":50,"Velocity":38,"Duration":683994,"SoundDuration":683994,"Delta":77501903},{"NoteNumber":61,"Velocity":41,"Duration":341997,"SoundDuration":341997,"Delta":77843900},{"NoteNumber":54,"Velocity":45,"Duration":1373577,"SoundDuration":1373577,"Delta":78185897},{"NoteNumber":57,"Velocity":45,"Duration":1373577,"SoundDuration":1373577,"Delta":78185897},{"NoteNumber":74,"Velocity":64,"Duration":671522,"SoundDuration":671522,"Delta":78527894},{"NoteNumber":50,"Velocity":38,"Duration":689582,"SoundDuration":689582,"Delta":78869892},{"NoteNumber":62,"Velocity":41,"Duration":360057,"SoundDuration":360057,"Delta":79199417},{"NoteNumber":55,"Velocity":47,"Duration":1402984,"SoundDuration":1402984,"Delta":79559475},{"NoteNumber":58,"Velocity":47,"Duration":1402984,"SoundDuration":1402984,"Delta":79559475},{"NoteNumber":73,"Velocity":59,"Duration":690476,"SoundDuration":690476,"Delta":79916617},{"NoteNumber":50,"Velocity":38,"Duration":688699,"SoundDuration":688699,"Delta":80273760},{"NoteNumber":61,"Velocity":41,"Duration":355366,"SoundDuration":355366,"Delta":80607093},{"NoteNumber":57,"Velocity":41,"Duration":1395187,"SoundDuration":1395187,"Delta":80962459},{"NoteNumber":54,"Velocity":41,"Duration":1395187,"SoundDuration":1395187,"Delta":80962459},{"NoteNumber":74,"Velocity":57,"Duration":684416,"SoundDuration":684416,"Delta":81313172},{"NoteNumber":50,"Velocity":38,"Duration":693761,"SoundDuration":693761,"Delta":81663885},{"NoteNumber":62,"Velocity":39,"Duration":360057,"SoundDuration":360057,"Delta":81997589},{"NoteNumber":57,"Velocity":42,"Duration":1583333,"SoundDuration":1583333,"Delta":82357647},{"NoteNumber":54,"Velocity":42,"Duration":1583333,"SoundDuration":1583333,"Delta":82357647},{"NoteNumber":74,"Velocity":55,"Duration":791666,"SoundDuration":791666,"Delta":82732647},{"NoteNumber":50,"Velocity":38,"Duration":833333,"SoundDuration":833333,"Delta":83107647},{"NoteNumber":62,"Velocity":38,"Duration":409722,"SoundDuration":409722,"Delta":83524314},{"NoteNumber":62,"Velocity":45,"Duration":1450354,"SoundDuration":1450354,"Delta":83940980},{"NoteNumber":58,"Velocity":40,"Duration":1450354,"SoundDuration":1450354,"Delta":83940980},{"NoteNumber":67,"Velocity":56,"Duration":175602,"SoundDuration":175602,"Delta":84688923},{"NoteNumber":55,"Velocity":38,"Duration":1470264,"SoundDuration":1470264,"Delta":84688923},{"NoteNumber":67,"Velocity":49,"Duration":117068,"SoundDuration":117068,"Delta":85040129},{"NoteNumber":69,"Velocity":49,"Duration":117068,"SoundDuration":117068,"Delta":85157198},{"NoteNumber":67,"Velocity":48,"Duration":117068,"SoundDuration":117068,"Delta":85274266},{"NoteNumber":66,"Velocity":61,"Duration":1110631,"SoundDuration":1110631,"Delta":85391335},{"NoteNumber":63,"Velocity":42,"Duration":1466081,"SoundDuration":1466081,"Delta":85391335},{"NoteNumber":60,"Velocity":38,"Duration":1466081,"SoundDuration":1466081,"Delta":85391335},{"NoteNumber":55,"Velocity":34,"Duration":1417998,"SoundDuration":1417998,"Delta":86159187},{"NoteNumber":69,"Velocity":53,"Duration":355450,"SoundDuration":355450,"Delta":86501966},{"NoteNumber":67,"Velocity":58,"Duration":359884,"SoundDuration":359884,"Delta":86857416},{"NoteNumber":58,"Velocity":42,"Duration":1468215,"SoundDuration":1468215,"Delta":86857416},{"NoteNumber":62,"Velocity":49,"Duration":1468215,"SoundDuration":1468215,"Delta":86857416},{"NoteNumber":70,"Velocity":62,"Duration":359884,"SoundDuration":359884,"Delta":87217301},{"NoteNumber":74,"Velocity":66,"Duration":364519,"SoundDuration":364519,"Delta":87577186},{"NoteNumber":55,"Velocity":40,"Duration":1526656,"SoundDuration":1526656,"Delta":87577186},{"NoteNumber":78,"Velocity":68,"Duration":383926,"SoundDuration":383926,"Delta":87941706},{"NoteNumber":79,"Velocity":68,"Duration":1142730,"SoundDuration":1142730,"Delta":88325632},{"NoteNumber":62,"Velocity":45,"Duration":1526656,"SoundDuration":1526656,"Delta":88325632},{"NoteNumber":60,"Velocity":39,"Duration":1526656,"SoundDuration":1526656,"Delta":88325632},{"NoteNumber":57,"Velocity":39,"Duration":1526656,"SoundDuration":1526656,"Delta":88325632},{"NoteNumber":55,"Velocity":34,"Duration":1548446,"SoundDuration":1548446,"Delta":89103842},{"NoteNumber":78,"Velocity":64,"Duration":383926,"SoundDuration":383926,"Delta":89468362},{"NoteNumber":74,"Velocity":62,"Duration":799999,"SoundDuration":799999,"Delta":89852288},{"NoteNumber":62,"Velocity":42,"Duration":793333,"SoundDuration":793333,"Delta":89852288},{"NoteNumber":58,"Velocity":38,"Duration":793333,"SoundDuration":793333,"Delta":89852288},{"NoteNumber":58,"Velocity":37,"Duration":702411,"SoundDuration":702411,"Delta":90652288},{"NoteNumber":55,"Velocity":37,"Duration":702411,"SoundDuration":702411,"Delta":90652288},{"NoteNumber":62,"Velocity":41,"Duration":702411,"SoundDuration":702411,"Delta":90652288},{"NoteNumber":43,"Velocity":46,"Duration":175602,"SoundDuration":175602,"Delta":90652288},{"NoteNumber":43,"Velocity":39,"Duration":117068,"SoundDuration":117068,"Delta":91003494},{"NoteNumber":45,"Velocity":40,"Duration":117068,"SoundDuration":117068,"Delta":91120563},{"NoteNumber":43,"Velocity":40,"Duration":117068,"SoundDuration":117068,"Delta":91237631},{"NoteNumber":42,"Velocity":46,"Duration":1104587,"SoundDuration":1104587,"Delta":91354700},{"NoteNumber":57,"Velocity":38,"Duration":711340,"SoundDuration":711340,"Delta":92112467},{"NoteNumber":60,"Velocity":42,"Duration":711340,"SoundDuration":711340,"Delta":92112467},{"NoteNumber":62,"Velocity":42,"Duration":711340,"SoundDuration":711340,"Delta":92112467},{"NoteNumber":45,"Velocity":43,"Duration":364519,"SoundDuration":364519,"Delta":92459288},{"NoteNumber":43,"Velocity":46,"Duration":414691,"SoundDuration":414691,"Delta":92823808},{"NoteNumber":46,"Velocity":49,"Duration":416203,"SoundDuration":416203,"Delta":93179258},{"NoteNumber":58,"Velocity":42,"Duration":748446,"SoundDuration":748446,"Delta":93534708},{"NoteNumber":62,"Velocity":49,"Duration":748446,"SoundDuration":748446,"Delta":93534708},{"NoteNumber":50,"Velocity":51,"Duration":428507,"SoundDuration":428507,"Delta":93534708},{"NoteNumber":54,"Velocity":54,"Duration":448777,"SoundDuration":448777,"Delta":93899228},{"NoteNumber":55,"Velocity":57,"Duration":1157093,"SoundDuration":1157093,"Delta":94283154},{"NoteNumber":57,"Velocity":38,"Duration":743403,"SoundDuration":743403,"Delta":95061364},{"NoteNumber":60,"Velocity":38,"Duration":743403,"SoundDuration":743403,"Delta":95061364},{"NoteNumber":62,"Velocity":42,"Duration":743403,"SoundDuration":743403,"Delta":95061364},{"NoteNumber":54,"Velocity":39,"Duration":364519,"SoundDuration":364519,"Delta":95440248},{"NoteNumber":50,"Velocity":36,"Duration":1450354,"SoundDuration":1450354,"Delta":95804768},{"NoteNumber":67,"Velocity":56,"Duration":175602,"SoundDuration":175602,"Delta":96552711},{"NoteNumber":55,"Velocity":33,"Duration":702411,"SoundDuration":702411,"Delta":96552711},{"NoteNumber":58,"Velocity":33,"Duration":702411,"SoundDuration":702411,"Delta":96552711},{"NoteNumber":62,"Velocity":38,"Duration":702411,"SoundDuration":702411,"Delta":96552711},{"NoteNumber":67,"Velocity":52,"Duration":117068,"SoundDuration":117068,"Delta":96903917},{"NoteNumber":69,"Velocity":52,"Duration":117068,"SoundDuration":117068,"Delta":97020985},{"NoteNumber":67,"Velocity":52,"Duration":117068,"SoundDuration":117068,"Delta":97138054},{"NoteNumber":66,"Velocity":61,"Duration":1110631,"SoundDuration":1110631,"Delta":97255122},{"NoteNumber":48,"Velocity":45,"Duration":1466081,"SoundDuration":1466081,"Delta":97255122},{"NoteNumber":57,"Velocity":33,"Duration":698228,"SoundDuration":698228,"Delta":98022975},{"NoteNumber":62,"Velocity":38,"Duration":698228,"SoundDuration":698228,"Delta":98022975},{"NoteNumber":54,"Velocity":33,"Duration":698228,"SoundDuration":698228,"Delta":98022975},{"NoteNumber":69,"Velocity":53,"Duration":355450,"SoundDuration":355450,"Delta":98365754},{"NoteNumber":67,"Velocity":54,"Duration":359884,"SoundDuration":359884,"Delta":98721204},{"NoteNumber":46,"Velocity":49,"Duration":719769,"SoundDuration":719769,"Delta":98721204},{"NoteNumber":70,"Velocity":57,"Duration":359884,"SoundDuration":359884,"Delta":99081089},{"NoteNumber":74,"Velocity":60,"Duration":364519,"SoundDuration":364519,"Delta":99440973},{"NoteNumber":62,"Velocity":40,"Duration":748446,"SoundDuration":748446,"Delta":99440973},{"NoteNumber":55,"Velocity":36,"Duration":748446,"SoundDuration":748446,"Delta":99440973},{"NoteNumber":58,"Velocity":36,"Duration":748446,"SoundDuration":748446,"Delta":99440973},{"NoteNumber":78,"Velocity":63,"Duration":383926,"SoundDuration":383926,"Delta":99805493},{"NoteNumber":79,"Velocity":66,"Duration":1142730,"SoundDuration":1142730,"Delta":100189420},{"NoteNumber":47,"Velocity":49,"Duration":778210,"SoundDuration":778210,"Delta":100189420},{"NoteNumber":59,"Velocity":39,"Duration":764520,"SoundDuration":764520,"Delta":100967630},{"NoteNumber":55,"Velocity":31,"Duration":764520,"SoundDuration":764520,"Delta":100967630},{"NoteNumber":62,"Velocity":44,"Duration":764520,"SoundDuration":764520,"Delta":100967630},{"NoteNumber":77,"Velocity":57,"Duration":400000,"SoundDuration":400000,"Delta":101332150},{"NoteNumber":77,"Velocity":56,"Duration":729421,"SoundDuration":729421,"Delta":101732150},{"NoteNumber":48,"Velocity":41,"Duration":729421,"SoundDuration":729421,"Delta":101732150},{"NoteNumber":54,"Velocity":46,"Duration":418597,"SoundDuration":418597,"Delta":102106121},{"NoteNumber":75,"Velocity":52,"Duration":762809,"SoundDuration":762809,"Delta":102461571},{"NoteNumber":72,"Velocity":46,"Duration":762809,"SoundDuration":762809,"Delta":102461571},{"NoteNumber":67,"Velocity":40,"Duration":762809,"SoundDuration":762809,"Delta":102461571},{"NoteNumber":55,"Velocity":49,"Duration":442871,"SoundDuration":442871,"Delta":102461571},{"NoteNumber":60,"Velocity":45,"Duration":448777,"SoundDuration":448777,"Delta":102840455},{"NoteNumber":74,"Velocity":60,"Duration":778210,"SoundDuration":778210,"Delta":103224381},{"NoteNumber":65,"Velocity":49,"Duration":1157093,"SoundDuration":1157093,"Delta":103224381},{"NoteNumber":67,"Velocity":41,"Duration":778883,"SoundDuration":778883,"Delta":104002591},{"NoteNumber":72,"Velocity":41,"Duration":778883,"SoundDuration":778883,"Delta":104002591},{"NoteNumber":60,"Velocity":36,"Duration":778883,"SoundDuration":778883,"Delta":104002591},{"NoteNumber":55,"Velocity":32,"Duration":778883,"SoundDuration":778883,"Delta":104002591},{"NoteNumber":63,"Velocity":45,"Duration":400000,"SoundDuration":400000,"Delta":104381475},{"NoteNumber":72,"Velocity":56,"Duration":276820,"SoundDuration":276820,"Delta":104781475},{"NoteNumber":62,"Velocity":36,"Duration":1500998,"SoundDuration":1500998,"Delta":104781475},{"NoteNumber":55,"Velocity":32,"Duration":1500998,"SoundDuration":1500998,"Delta":104781475},{"NoteNumber":58,"Velocity":32,"Duration":1500998,"SoundDuration":1500998,"Delta":104781475},{"NoteNumber":66,"Velocity":49,"Duration":276820,"SoundDuration":276820,"Delta":105150569},{"NoteNumber":67,"Velocity":54,"Duration":284162,"SoundDuration":284162,"Delta":105519664},{"NoteNumber":50,"Velocity":37,"Duration":2305539,"SoundDuration":2305539,"Delta":105519664},{"NoteNumber":69,"Velocity":50,"Duration":287944,"SoundDuration":287944,"Delta":105898547},{"NoteNumber":60,"Velocity":37,"Duration":1542730,"SoundDuration":1542730,"Delta":106282473},{"NoteNumber":70,"Velocity":46,"Duration":1142730,"SoundDuration":1142730,"Delta":106282473},{"NoteNumber":66,"Velocity":37,"Duration":1541973,"SoundDuration":1541973,"Delta":106301929},{"NoteNumber":62,"Velocity":26,"Duration":757853,"SoundDuration":757853,"Delta":107060683},{"NoteNumber":69,"Velocity":48,"Duration":400000,"SoundDuration":400000,"Delta":107425203},{"NoteNumber":62,"Velocity":36,"Duration":747943,"SoundDuration":747943,"Delta":107825203},{"NoteNumber":67,"Velocity":42,"Duration":747943,"SoundDuration":747943,"Delta":107825203},{"NoteNumber":58,"Velocity":35,"Duration":747943,"SoundDuration":747943,"Delta":107825203},{"NoteNumber":50,"Velocity":31,"Duration":1450354,"SoundDuration":1450354,"Delta":107825203},{"NoteNumber":43,"Velocity":31,"Duration":1450354,"SoundDuration":1450354,"Delta":107825203},{"NoteNumber":67,"Velocity":46,"Duration":175602,"SoundDuration":175602,"Delta":108573146},{"NoteNumber":62,"Velocity":39,"Duration":351205,"SoundDuration":351205,"Delta":108573146},{"NoteNumber":55,"Velocity":34,"Duration":6020619,"SoundDuration":6020619,"Delta":108573146},{"NoteNumber":58,"Velocity":34,"Duration":351205,"SoundDuration":351205,"Delta":108573146},{"NoteNumber":67,"Velocity":41,"Duration":117068,"SoundDuration":117068,"Delta":108924352},{"NoteNumber":69,"Velocity":41,"Duration":117068,"SoundDuration":117068,"Delta":109041421},{"NoteNumber":67,"Velocity":41,"Duration":117068,"SoundDuration":117068,"Delta":109158489},{"NoteNumber":66,"Velocity":48,"Duration":1123302,"SoundDuration":1123302,"Delta":109275558},{"NoteNumber":63,"Velocity":37,"Duration":355450,"SoundDuration":355450,"Delta":110043410},{"NoteNumber":60,"Velocity":31,"Duration":355450,"SoundDuration":355450,"Delta":110043410},{"NoteNumber":69,"Velocity":40,"Duration":355450,"SoundDuration":355450,"Delta":110398861},{"NoteNumber":67,"Velocity":42,"Duration":369094,"SoundDuration":369094,"Delta":110754311},{"NoteNumber":70,"Velocity":46,"Duration":369094,"SoundDuration":369094,"Delta":111123405},{"NoteNumber":74,"Velocity":49,"Duration":364519,"SoundDuration":364519,"Delta":111492500},{"NoteNumber":62,"Velocity":37,"Duration":364519,"SoundDuration":364519,"Delta":111492500},{"NoteNumber":58,"Velocity":31,"Duration":364519,"SoundDuration":364519,"Delta":111492500},{"NoteNumber":78,"Velocity":50,"Duration":383926,"SoundDuration":383926,"Delta":111857020},{"NoteNumber":79,"Velocity":55,"Duration":1147304,"SoundDuration":1147304,"Delta":112240946},{"NoteNumber":60,"Velocity":31,"Duration":369094,"SoundDuration":369094,"Delta":113019156},{"NoteNumber":63,"Velocity":37,"Duration":369094,"SoundDuration":369094,"Delta":113019156},{"NoteNumber":78,"Velocity":50,"Duration":405514,"SoundDuration":405514,"Delta":113388251},{"NoteNumber":74,"Velocity":45,"Duration":799999,"SoundDuration":799999,"Delta":113793766},{"NoteNumber":58,"Velocity":35,"Duration":793333,"SoundDuration":793333,"Delta":113793766},{"NoteNumber":62,"Velocity":39,"Duration":793333,"SoundDuration":793333,"Delta":113793766},{"NoteNumber":62,"Velocity":36,"Duration":351205,"SoundDuration":351205,"Delta":114593766},{"NoteNumber":55,"Velocity":29,"Duration":351205,"SoundDuration":351205,"Delta":114593766},{"NoteNumber":58,"Velocity":29,"Duration":351205,"SoundDuration":351205,"Delta":114593766},{"NoteNumber":43,"Velocity":38,"Duration":175602,"SoundDuration":175602,"Delta":114593766},{"NoteNumber":43,"Velocity":33,"Duration":117068,"SoundDuration":117068,"Delta":114944971},{"NoteNumber":45,"Velocity":36,"Duration":117068,"SoundDuration":117068,"Delta":115062040},{"NoteNumber":43,"Velocity":36,"Duration":117068,"SoundDuration":117068,"Delta":115179108},{"NoteNumber":42,"Velocity":42,"Duration":1131956,"SoundDuration":1131956,"Delta":115296177},{"NoteNumber":60,"Velocity":33,"Duration":355450,"SoundDuration":355450,"Delta":116072683},{"NoteNumber":57,"Velocity":28,"Duration":355450,"SoundDuration":355450,"Delta":116072683},{"NoteNumber":62,"Velocity":33,"Duration":355450,"SoundDuration":355450,"Delta":116072683},{"NoteNumber":45,"Velocity":37,"Duration":364519,"SoundDuration":364519,"Delta":116428134},{"NoteNumber":43,"Velocity":36,"Duration":425273,"SoundDuration":425273,"Delta":116792654},{"NoteNumber":46,"Velocity":38,"Duration":426848,"SoundDuration":426848,"Delta":117157174},{"NoteNumber":55,"Velocity":30,"Duration":373971,"SoundDuration":373971,"Delta":117521694},{"NoteNumber":58,"Velocity":33,"Duration":373971,"SoundDuration":373971,"Delta":117521694},{"NoteNumber":62,"Velocity":36,"Duration":373971,"SoundDuration":373971,"Delta":117521694},{"NoteNumber":50,"Velocity":40,"Duration":437959,"SoundDuration":437959,"Delta":117521694},{"NoteNumber":54,"Velocity":42,"Duration":448777,"SoundDuration":448777,"Delta":117895665},{"NoteNumber":55,"Velocity":44,"Duration":1157093,"SoundDuration":1157093,"Delta":118279591},{"NoteNumber":62,"Velocity":33,"Duration":378883,"SoundDuration":378883,"Delta":119057801},{"NoteNumber":57,"Velocity":28,"Duration":378883,"SoundDuration":378883,"Delta":119057801},{"NoteNumber":60,"Velocity":28,"Duration":378883,"SoundDuration":378883,"Delta":119057801},{"NoteNumber":54,"Velocity":36,"Duration":389105,"SoundDuration":389105,"Delta":119436685},{"NoteNumber":50,"Velocity":26,"Duration":778210,"SoundDuration":778210,"Delta":119825790},{"NoteNumber":43,"Velocity":26,"Duration":778210,"SoundDuration":778210,"Delta":119825790},{"NoteNumber":62,"Velocity":33,"Duration":364519,"SoundDuration":364519,"Delta":120604000},{"NoteNumber":58,"Velocity":28,"Duration":364519,"SoundDuration":364519,"Delta":120604000},{"NoteNumber":55,"Velocity":38,"Duration":1157093,"SoundDuration":1157093,"Delta":121352446},{"NoteNumber":57,"Velocity":25,"Duration":378883,"SoundDuration":378883,"Delta":122130656},{"NoteNumber":62,"Velocity":28,"Duration":378883,"SoundDuration":378883,"Delta":122130656},{"NoteNumber":60,"Velocity":25,"Duration":378883,"SoundDuration":378883,"Delta":122130656},{"NoteNumber":54,"Velocity":33,"Duration":394425,"SoundDuration":394425,"Delta":122509540},{"NoteNumber":50,"Velocity":26,"Duration":767852,"SoundDuration":767852,"Delta":122903965},{"NoteNumber":43,"Velocity":26,"Duration":767852,"SoundDuration":767852,"Delta":122903965},{"NoteNumber":58,"Velocity":28,"Duration":369094,"SoundDuration":369094,"Delta":123671818},{"NoteNumber":62,"Velocity":33,"Duration":369094,"SoundDuration":369094,"Delta":123671818},{"NoteNumber":55,"Velocity":38,"Duration":1157093,"SoundDuration":1157093,"Delta":124440912},{"NoteNumber":62,"Velocity":28,"Duration":378883,"SoundDuration":378883,"Delta":125219122},{"NoteNumber":57,"Velocity":25,"Duration":378883,"SoundDuration":378883,"Delta":125219122},{"NoteNumber":60,"Velocity":25,"Duration":378883,"SoundDuration":378883,"Delta":125219122},{"NoteNumber":54,"Velocity":33,"Duration":405514,"SoundDuration":405514,"Delta":125598006},{"NoteNumber":43,"Velocity":26,"Duration":8559054,"SoundDuration":8559054,"Delta":126003521},{"NoteNumber":50,"Velocity":26,"Duration":8559054,"SoundDuration":8559054,"Delta":126003521},{"NoteNumber":62,"Velocity":29,"Duration":1622060,"SoundDuration":1622060,"Delta":126814551},{"NoteNumber":58,"Velocity":24,"Duration":1622060,"SoundDuration":1622060,"Delta":126814551},{"NoteNumber":55,"Velocity":24,"Duration":1622060,"SoundDuration":1622060,"Delta":126814551},{"NoteNumber":62,"Velocity":26,"Duration":1622060,"SoundDuration":1622060,"Delta":128436611},{"NoteNumber":55,"Velocity":22,"Duration":1622060,"SoundDuration":1622060,"Delta":128436611},{"NoteNumber":58,"Velocity":22,"Duration":1622060,"SoundDuration":1622060,"Delta":128436611},{"NoteNumber":58,"Velocity":20,"Duration":1622060,"SoundDuration":1622060,"Delta":130058671},{"NoteNumber":55,"Velocity":20,"Duration":1622060,"SoundDuration":1622060,"Delta":130058671},{"NoteNumber":62,"Velocity":25,"Duration":1622060,"SoundDuration":1622060,"Delta":130058671},{"NoteNumber":58,"Velocity":18,"Duration":2881844,"SoundDuration":2881844,"Delta":131680731},{"NoteNumber":62,"Velocity":23,"Duration":2881844,"SoundDuration":2881844,"Delta":131680731},{"NoteNumber":55,"Velocity":18,"Duration":2881844,"SoundDuration":2881844,"Delta":131680731}],"license":{"name":"Creative Commons Attribution-ShareAlike 3.0 Germany","url":"http://creativecommons.org/licenses/by-sa/3.0/de/deed.en","text":"The MIDI, audio (MP3, OGG) and video files of Bernd Krueger are licensed under the cc-by-sa Germany License. This means that you can use and adapt the files, as long as you attribute the copyright holder.\n\nName: Bernd Krueger\nSource: http://www.piano-midi.de\n\nThe distribution or public playback of the files is only allowed under identical license conditions.\n\nThe scores are open source.","attribution":"MIDI files by Bernd Krueger (piano-midi.de)","attributionUrl":"http://www.piano-midi.de"}}