{"title":"The Seasons, Op. 37a: May (Starlit Nights)","artist":"Tchaikovsky","durationMs":191517,"midiSha256":"e68444752e6a2a994fedb2cb3a2ca7e596501764993f445b35cf1b3387b35469","midiObject":[{"NoteNumber":50,"Velocity":33,"Duration":1406562,"SoundDuration":1406562,"Delta":0},{"NoteNumber":57,"Velocity":37,"Duration":1342213,"SoundDuration":1342213,"Delta":64349},{"NoteNumber":62,"Velocity":40,"Duration":1280679,"SoundDuration":1280679,"Delta":125883},{"NoteNumber":66,"Velocity":45,"Duration":1222097,"SoundDuration":1222097,"Delta":184464},{"NoteNumber":74,"Velocity":50,"Duration":697674,"SoundDuration":697674,"Delta":240370},{"NoteNumber":71,"Velocity":51,"Duration":468517,"SoundDuration":468517,"Delta":938044},{"NoteNumber":52,"Velocity":31,"Duration":1110985,"SoundDuration":1110985,"Delta":1215822},{"NoteNumber":55,"Velocity":36,"Duration":1061508,"SoundDuration":1061508,"Delta":1265299},{"NoteNumber":62,"Velocity":37,"Duration":1013385,"SoundDuration":1013385,"Delta":1313422},{"NoteNumber":67,"Velocity":39,"Duration":966624,"SoundDuration":966624,"Delta":1360183},{"NoteNumber":71,"Velocity":55,"Duration":920245,"SoundDuration":920245,"Delta":1406562},{"NoteNumber":54,"Velocity":36,"Duration":1372555,"SoundDuration":1372555,"Delta":2326807},{"NoteNumber":57,"Velocity":44,"Duration":1317149,"SoundDuration":1317149,"Delta":2382214},{"NoteNumber":62,"Velocity":40,"Duration":1264243,"SoundDuration":1264243,"Delta":2435119},{"NoteNumber":69,"Velocity":42,"Duration":1213763,"SoundDuration":1213763,"Delta":2485599},{"NoteNumber":74,"Velocity":53,"Duration":701754,"SoundDuration":701754,"Delta":2533869},{"NoteNumber":71,"Velocity":53,"Duration":463740,"SoundDuration":463740,"Delta":3235623},{"NoteNumber":55,"Velocity":33,"Duration":1231476,"SoundDuration":1231476,"Delta":3508350},{"NoteNumber":59,"Velocity":36,"Duration":1182710,"SoundDuration":1182710,"Delta":3557116},{"NoteNumber":62,"Velocity":36,"Duration":1134611,"SoundDuration":1134611,"Delta":3605214},{"NoteNumber":67,"Velocity":39,"Duration":1087202,"SoundDuration":1087202,"Delta":3652624},{"NoteNumber":71,"Velocity":52,"Duration":1040462,"SoundDuration":1040462,"Delta":3699363},{"NoteNumber":66,"Velocity":52,"Duration":1084337,"SoundDuration":1084337,"Delta":4739826},{"NoteNumber":76,"Velocity":63,"Duration":722891,"SoundDuration":722891,"Delta":4739826},{"NoteNumber":60,"Velocity":47,"Duration":1084337,"SoundDuration":1084337,"Delta":4739826},{"NoteNumber":57,"Velocity":41,"Duration":1084337,"SoundDuration":1084337,"Delta":4739826},{"NoteNumber":74,"Velocity":60,"Duration":361445,"SoundDuration":361445,"Delta":5462718},{"NoteNumber":67,"Velocity":52,"Duration":1084338,"SoundDuration":1084338,"Delta":5824164},{"NoteNumber":74,"Velocity":59,"Duration":1084338,"SoundDuration":1084338,"Delta":5824164},{"NoteNumber":59,"Velocity":41,"Duration":1084338,"SoundDuration":1084338,"Delta":5824164},{"NoteNumber":62,"Velocity":46,"Duration":1084338,"SoundDuration":1084338,"Delta":5824164},{"NoteNumber":70,"Velocity":52,"Duration":1065390,"SoundDuration":1065390,"Delta":6908502},{"NoteNumber":79,"Velocity":66,"Duration":350877,"SoundDuration":350877,"Delta":6908502},{"NoteNumber":64,"Velocity":48,"Duration":1065390,"SoundDuration":1065390,"Delta":6908502},{"NoteNumber":61,"Velocity":42,"Duration":1065390,"SoundDuration":1065390,"Delta":6908502},{"NoteNumber":78,"Velocity":58,"Duration":350876,"SoundDuration":350876,"Delta":7259379},{"NoteNumber":76,"Velocity":56,"Duration":363636,"SoundDuration":363636,"Delta":7610256},{"NoteNumber":69,"Velocity":48,"Duration":1090909,"SoundDuration":1090909,"Delta":7973892},{"NoteNumber":67,"Velocity":51,"Duration":363636,"SoundDuration":363636,"Delta":7973892},{"NoteNumber":62,"Velocity":51,"Duration":1090909,"SoundDuration":1090909,"Delta":7973892},{"NoteNumber":66,"Velocity":50,"Duration":363636,"SoundDuration":363636,"Delta":8337529},{"NoteNumber":64,"Velocity":49,"Duration":363636,"SoundDuration":363636,"Delta":8701165},{"NoteNumber":74,"Velocity":60,"Duration":363636,"SoundDuration":363636,"Delta":9064802},{"NoteNumber":66,"Velocity":48,"Duration":1102273,"SoundDuration":1102273,"Delta":9064802},{"NoteNumber":57,"Velocity":48,"Duration":1102273,"SoundDuration":1102273,"Delta":9064802},{"NoteNumber":50,"Velocity":42,"Duration":1102273,"SoundDuration":1102273,"Delta":9064802},{"NoteNumber":69,"Velocity":56,"Duration":363636,"SoundDuration":363636,"Delta":9428438},{"NoteNumber":72,"Velocity":58,"Duration":375000,"SoundDuration":375000,"Delta":9792075},{"NoteNumber":72,"Velocity":57,"Duration":727273,"SoundDuration":727273,"Delta":10167075},{"NoteNumber":66,"Velocity":50,"Duration":727273,"SoundDuration":727273,"Delta":10167075},{"NoteNumber":51,"Velocity":39,"Duration":727273,"SoundDuration":727273,"Delta":10167075},{"NoteNumber":57,"Velocity":45,"Duration":727273,"SoundDuration":727273,"Delta":10167075},{"NoteNumber":67,"Velocity":49,"Duration":363636,"SoundDuration":363636,"Delta":10894348},{"NoteNumber":71,"Velocity":55,"Duration":363636,"SoundDuration":363636,"Delta":10894348},{"NoteNumber":52,"Velocity":34,"Duration":363636,"SoundDuration":363636,"Delta":10894348},{"NoteNumber":55,"Velocity":38,"Duration":363636,"SoundDuration":363636,"Delta":10894348},{"NoteNumber":64,"Velocity":52,"Duration":359281,"SoundDuration":359281,"Delta":11257984},{"NoteNumber":69,"Velocity":52,"Duration":1086660,"SoundDuration":1086660,"Delta":11257984},{"NoteNumber":49,"Velocity":33,"Duration":1086660,"SoundDuration":1086660,"Delta":11257984},{"NoteNumber":57,"Velocity":51,"Duration":359281,"SoundDuration":359281,"Delta":11617266},{"NoteNumber":64,"Velocity":53,"Duration":368097,"SoundDuration":368097,"Delta":11976547},{"NoteNumber":55,"Velocity":40,"Duration":368097,"SoundDuration":368097,"Delta":11976547},{"NoteNumber":69,"Velocity":55,"Duration":1211973,"SoundDuration":1211973,"Delta":12344645},{"NoteNumber":64,"Velocity":55,"Duration":770782,"SoundDuration":770782,"Delta":12344645},{"NoteNumber":50,"Velocity":39,"Duration":1211973,"SoundDuration":1211973,"Delta":12344645},{"NoteNumber":55,"Velocity":45,"Duration":770782,"SoundDuration":770782,"Delta":12344645},{"NoteNumber":62,"Velocity":53,"Duration":203034,"SoundDuration":203034,"Delta":13115428},{"NoteNumber":54,"Velocity":40,"Duration":203034,"SoundDuration":203034,"Delta":13115428},{"NoteNumber":50,"Velocity":33,"Duration":1388519,"SoundDuration":1388519,"Delta":13318462},{"NoteNumber":57,"Velocity":37,"Duration":1326084,"SoundDuration":1326084,"Delta":13380897},{"NoteNumber":62,"Velocity":40,"Duration":1265786,"SoundDuration":1265786,"Delta":13441195},{"NoteNumber":66,"Velocity":45,"Duration":1207155,"SoundDuration":1207155,"Delta":13499827},{"NoteNumber":74,"Velocity":55,"Duration":697673,"SoundDuration":697673,"Delta":13556619},{"NoteNumber":71,"Velocity":51,"Duration":452688,"SoundDuration":452688,"Delta":14254293},{"NoteNumber":52,"Velocity":31,"Duration":1122933,"SoundDuration":1122933,"Delta":14504293},{"NoteNumber":55,"Velocity":36,"Duration":1068889,"SoundDuration":1068889,"Delta":14558337},{"NoteNumber":62,"Velocity":37,"Duration":1017080,"SoundDuration":1017080,"Delta":14610146},{"NoteNumber":67,"Velocity":39,"Duration":967600,"SoundDuration":967600,"Delta":14659627},{"NoteNumber":71,"Velocity":52,"Duration":920245,"SoundDuration":920245,"Delta":14706982},{"NoteNumber":50,"Velocity":36,"Duration":1355406,"SoundDuration":1355406,"Delta":15627227},{"NoteNumber":57,"Velocity":44,"Duration":1299999,"SoundDuration":1299999,"Delta":15682633},{"NoteNumber":62,"Velocity":40,"Duration":1247094,"SoundDuration":1247094,"Delta":15735539},{"NoteNumber":69,"Velocity":42,"Duration":1196614,"SoundDuration":1196614,"Delta":15786019},{"NoteNumber":74,"Velocity":53,"Duration":701754,"SoundDuration":701754,"Delta":15834288},{"NoteNumber":71,"Velocity":53,"Duration":446590,"SoundDuration":446590,"Delta":16536042},{"NoteNumber":55,"Velocity":33,"Duration":1243151,"SoundDuration":1243151,"Delta":16779945},{"NoteNumber":59,"Velocity":36,"Duration":1189107,"SoundDuration":1189107,"Delta":16833988},{"NoteNumber":62,"Velocity":36,"Duration":1137298,"SoundDuration":1137298,"Delta":16885797},{"NoteNumber":67,"Velocity":39,"Duration":1087818,"SoundDuration":1087818,"Delta":16935278},{"NoteNumber":71,"Velocity":50,"Duration":1040462,"SoundDuration":1040462,"Delta":16982633},{"NoteNumber":66,"Velocity":52,"Duration":1084337,"SoundDuration":1084337,"Delta":18023096},{"NoteNumber":76,"Velocity":63,"Duration":722892,"SoundDuration":722892,"Delta":18023096},{"NoteNumber":57,"Velocity":41,"Duration":1084337,"SoundDuration":1084337,"Delta":18023096},{"NoteNumber":60,"Velocity":47,"Duration":1084337,"SoundDuration":1084337,"Delta":18023096},{"NoteNumber":74,"Velocity":60,"Duration":361445,"SoundDuration":361445,"Delta":18745988},{"NoteNumber":74,"Velocity":62,"Duration":1084338,"SoundDuration":1084338,"Delta":19107434},{"NoteNumber":67,"Velocity":53,"Duration":1084338,"SoundDuration":1084338,"Delta":19107434},{"NoteNumber":62,"Velocity":49,"Duration":1084338,"SoundDuration":1084338,"Delta":19107434},{"NoteNumber":59,"Velocity":44,"Duration":1084338,"SoundDuration":1084338,"Delta":19107434},{"NoteNumber":70,"Velocity":52,"Duration":1065390,"SoundDuration":1065390,"Delta":20191772},{"NoteNumber":79,"Velocity":66,"Duration":350877,"SoundDuration":350877,"Delta":20191772},{"NoteNumber":61,"Velocity":40,"Duration":1065390,"SoundDuration":1065390,"Delta":20191772},{"NoteNumber":64,"Velocity":51,"Duration":1065390,"SoundDuration":1065390,"Delta":20191772},{"NoteNumber":76,"Velocity":55,"Duration":350877,"SoundDuration":350877,"Delta":20542649},{"NoteNumber":79,"Velocity":57,"Duration":363636,"SoundDuration":363636,"Delta":20893526},{"NoteNumber":71,"Velocity":58,"Duration":1090909,"SoundDuration":1090909,"Delta":21257162},{"NoteNumber":78,"Velocity":62,"Duration":727273,"SoundDuration":727273,"Delta":21257162},{"NoteNumber":62,"Velocity":44,"Duration":1090909,"SoundDuration":1090909,"Delta":21257162},{"NoteNumber":66,"Velocity":49,"Duration":1090909,"SoundDuration":1090909,"Delta":21257162},{"NoteNumber":78,"Velocity":56,"Duration":363636,"SoundDuration":363636,"Delta":21984435},{"NoteNumber":83,"Velocity":62,"Duration":352941,"SoundDuration":352941,"Delta":22348072},{"NoteNumber":73,"Velocity":53,"Duration":1080881,"SoundDuration":1080881,"Delta":22348072},{"NoteNumber":64,"Velocity":41,"Duration":1080881,"SoundDuration":1080881,"Delta":22348072},{"NoteNumber":67,"Velocity":47,"Duration":1080881,"SoundDuration":1080881,"Delta":22348072},{"NoteNumber":79,"Velocity":60,"Duration":352940,"SoundDuration":352940,"Delta":22701013},{"NoteNumber":83,"Velocity":57,"Duration":375000,"SoundDuration":375000,"Delta":23053954},{"NoteNumber":81,"Velocity":61,"Duration":727273,"SoundDuration":727273,"Delta":23428954},{"NoteNumber":74,"Velocity":51,"Duration":1090909,"SoundDuration":1090909,"Delta":23428954},{"NoteNumber":69,"Velocity":47,"Duration":1090909,"SoundDuration":1090909,"Delta":23428954},{"NoteNumber":66,"Velocity":41,"Duration":1090909,"SoundDuration":1090909,"Delta":23428954},{"NoteNumber":81,"Velocity":55,"Duration":363636,"SoundDuration":363636,"Delta":24156227},{"NoteNumber":74,"Velocity":49,"Duration":1090909,"SoundDuration":1090909,"Delta":24519863},{"NoteNumber":86,"Velocity":55,"Duration":363636,"SoundDuration":363636,"Delta":24519863},{"NoteNumber":66,"Velocity":34,"Duration":1090909,"SoundDuration":1090909,"Delta":24519863},{"NoteNumber":69,"Velocity":39,"Duration":1090909,"SoundDuration":1090909,"Delta":24519863},{"NoteNumber":81,"Velocity":53,"Duration":363636,"SoundDuration":363636,"Delta":24883500},{"NoteNumber":86,"Velocity":53,"Duration":363636,"SoundDuration":363636,"Delta":25247136},{"NoteNumber":86,"Velocity":57,"Duration":1090909,"SoundDuration":1090909,"Delta":25610773},{"NoteNumber":81,"Velocity":50,"Duration":1090909,"SoundDuration":1090909,"Delta":25610773},{"NoteNumber":66,"Velocity":26,"Duration":4075711,"SoundDuration":4075711,"Delta":25610773},{"NoteNumber":74,"Velocity":44,"Duration":363636,"SoundDuration":363636,"Delta":25610773},{"NoteNumber":69,"Velocity":41,"Duration":3712075,"SoundDuration":3712075,"Delta":25974409},{"NoteNumber":74,"Velocity":41,"Duration":363636,"SoundDuration":363636,"Delta":26338046},{"NoteNumber":74,"Velocity":48,"Duration":2984802,"SoundDuration":2984802,"Delta":26701682},{"NoteNumber":81,"Velocity":39,"Duration":363636,"SoundDuration":363636,"Delta":27065319},{"NoteNumber":86,"Velocity":39,"Duration":363636,"SoundDuration":363636,"Delta":27428955},{"NoteNumber":93,"Velocity":44,"Duration":366241,"SoundDuration":366241,"Delta":27792592},{"NoteNumber":86,"Velocity":42,"Duration":1527651,"SoundDuration":1527651,"Delta":28158833},{"NoteNumber":93,"Velocity":42,"Duration":1152626,"SoundDuration":1152626,"Delta":28533858},{"NoteNumber":98,"Velocity":45,"Duration":769230,"SoundDuration":769230,"Delta":28917254},{"NoteNumber":74,"Velocity":57,"Duration":3167456,"SoundDuration":3167456,"Delta":30071100},{"NoteNumber":86,"Velocity":57,"Duration":344827,"SoundDuration":344827,"Delta":30071100},{"NoteNumber":65,"Velocity":44,"Duration":3167456,"SoundDuration":3167456,"Delta":30071100},{"NoteNumber":70,"Velocity":44,"Duration":3167456,"SoundDuration":3167456,"Delta":30071100},{"NoteNumber":82,"Velocity":55,"Duration":348837,"SoundDuration":348837,"Delta":30415928},{"NoteNumber":79,"Velocity":52,"Duration":355029,"SoundDuration":355029,"Delta":30764765},{"NoteNumber":77,"Velocity":53,"Duration":338982,"SoundDuration":338982,"Delta":31119794},{"NoteNumber":81,"Velocity":49,"Duration":348837,"SoundDuration":348837,"Delta":31458777},{"NoteNumber":79,"Velocity":49,"Duration":365853,"SoundDuration":365853,"Delta":31807614},{"NoteNumber":77,"Velocity":52,"Duration":1065088,"SoundDuration":1065088,"Delta":32173468},{"NoteNumber":74,"Velocity":55,"Duration":168539,"SoundDuration":168539,"Delta":33575635},{"NoteNumber":72,"Velocity":51,"Duration":168539,"SoundDuration":168539,"Delta":33912713},{"NoteNumber":70,"Velocity":55,"Duration":168539,"SoundDuration":168539,"Delta":34249792},{"NoteNumber":67,"Velocity":51,"Duration":168539,"SoundDuration":168539,"Delta":34586870},{"NoteNumber":65,"Velocity":50,"Duration":167597,"SoundDuration":167597,"Delta":34923949},{"NoteNumber":62,"Velocity":51,"Duration":169973,"SoundDuration":169973,"Delta":35259144},{"NoteNumber":58,"Velocity":46,"Duration":173914,"SoundDuration":173914,"Delta":35601038},{"NoteNumber":55,"Velocity":45,"Duration":177514,"SoundDuration":177514,"Delta":35950907},{"NoteNumber":62,"Velocity":57,"Duration":3167456,"SoundDuration":3167456,"Delta":36309145},{"NoteNumber":74,"Velocity":57,"Duration":344827,"SoundDuration":344827,"Delta":36309145},{"NoteNumber":58,"Velocity":44,"Duration":3167456,"SoundDuration":3167456,"Delta":36309145},{"NoteNumber":53,"Velocity":44,"Duration":3167456,"SoundDuration":3167456,"Delta":36309145},{"NoteNumber":70,"Velocity":55,"Duration":348837,"SoundDuration":348837,"Delta":36653972},{"NoteNumber":67,"Velocity":52,"Duration":355029,"SoundDuration":355029,"Delta":37002809},{"NoteNumber":65,"Velocity":53,"Duration":338982,"SoundDuration":338982,"Delta":37357839},{"NoteNumber":69,"Velocity":49,"Duration":348837,"SoundDuration":348837,"Delta":37696822},{"NoteNumber":67,"Velocity":46,"Duration":365853,"SoundDuration":365853,"Delta":38045659},{"NoteNumber":65,"Velocity":51,"Duration":1065088,"SoundDuration":1065088,"Delta":38411512},{"NoteNumber":62,"Velocity":55,"Duration":167597,"SoundDuration":167597,"Delta":39811796},{"NoteNumber":60,"Velocity":51,"Duration":167597,"SoundDuration":167597,"Delta":40146992},{"NoteNumber":58,"Velocity":55,"Duration":167597,"SoundDuration":167597,"Delta":40482187},{"NoteNumber":55,"Velocity":51,"Duration":167597,"SoundDuration":167597,"Delta":40817383},{"NoteNumber":53,"Velocity":50,"Duration":167597,"SoundDuration":167597,"Delta":41152578},{"NoteNumber":50,"Velocity":51,"Duration":169973,"SoundDuration":169973,"Delta":41487774},{"NoteNumber":46,"Velocity":46,"Duration":173914,"SoundDuration":173914,"Delta":41829668},{"NoteNumber":43,"Velocity":45,"Duration":177514,"SoundDuration":177514,"Delta":42179537},{"NoteNumber":57,"Velocity":55,"Duration":1088745,"SoundDuration":1088745,"Delta":42557052},{"NoteNumber":62,"Velocity":55,"Duration":722892,"SoundDuration":722892,"Delta":42557052},{"NoteNumber":42,"Velocity":44,"Duration":1088745,"SoundDuration":1088745,"Delta":42557052},{"NoteNumber":50,"Velocity":44,"Duration":2173083,"SoundDuration":2173083,"Delta":42557052},{"NoteNumber":59,"Velocity":51,"Duration":365853,"SoundDuration":365853,"Delta":43279944},{"NoteNumber":59,"Velocity":48,"Duration":1084338,"SoundDuration":1084338,"Delta":43645797},{"NoteNumber":55,"Velocity":48,"Duration":1084338,"SoundDuration":1084338,"Delta":43645797},{"NoteNumber":40,"Velocity":44,"Duration":1084338,"SoundDuration":1084338,"Delta":43645797},{"NoteNumber":57,"Velocity":51,"Duration":1090990,"SoundDuration":1090990,"Delta":44730135},{"NoteNumber":62,"Velocity":51,"Duration":722892,"SoundDuration":722892,"Delta":44730135},{"NoteNumber":42,"Velocity":44,"Duration":1090990,"SoundDuration":1090990,"Delta":44730135},{"NoteNumber":50,"Velocity":44,"Duration":2131453,"SoundDuration":2131453,"Delta":44740678},{"NoteNumber":59,"Velocity":51,"Duration":368098,"SoundDuration":368098,"Delta":45453027},{"NoteNumber":55,"Velocity":41,"Duration":1085643,"SoundDuration":1085643,"Delta":45821125},{"NoteNumber":59,"Velocity":46,"Duration":1040463,"SoundDuration":1040463,"Delta":45821125},{"NoteNumber":43,"Velocity":44,"Duration":1040463,"SoundDuration":1040463,"Delta":45821125},{"NoteNumber":54,"Velocity":50,"Duration":1084338,"SoundDuration":1084338,"Delta":46861588},{"NoteNumber":64,"Velocity":57,"Duration":722892,"SoundDuration":722892,"Delta":46861588},{"NoteNumber":45,"Velocity":41,"Duration":1084338,"SoundDuration":1084338,"Delta":46861588},{"NoteNumber":48,"Velocity":47,"Duration":1084338,"SoundDuration":1084338,"Delta":46861588},{"NoteNumber":62,"Velocity":53,"Duration":361446,"SoundDuration":361446,"Delta":47584480},{"NoteNumber":62,"Velocity":59,"Duration":1084337,"SoundDuration":1084337,"Delta":47945926},{"NoteNumber":55,"Velocity":53,"Duration":1084337,"SoundDuration":1084337,"Delta":47945926},{"NoteNumber":47,"Velocity":44,"Duration":1084337,"SoundDuration":1084337,"Delta":47945926},{"NoteNumber":50,"Velocity":49,"Duration":1084337,"SoundDuration":1084337,"Delta":47945926},{"NoteNumber":58,"Velocity":59,"Duration":1065390,"SoundDuration":1065390,"Delta":49030264},{"NoteNumber":67,"Velocity":66,"Duration":350876,"SoundDuration":350876,"Delta":49030264},{"NoteNumber":52,"Velocity":51,"Duration":1065390,"SoundDuration":1065390,"Delta":49030264},{"NoteNumber":49,"Velocity":46,"Duration":1065390,"SoundDuration":1065390,"Delta":49030264},{"NoteNumber":66,"Velocity":63,"Duration":350877,"SoundDuration":350877,"Delta":49381141},{"NoteNumber":64,"Velocity":62,"Duration":363636,"SoundDuration":363636,"Delta":49732018},{"NoteNumber":57,"Velocity":60,"Duration":1454546,"SoundDuration":1454546,"Delta":50095655},{"NoteNumber":55,"Velocity":51,"Duration":363636,"SoundDuration":363636,"Delta":50095655},{"NoteNumber":50,"Velocity":51,"Duration":1454546,"SoundDuration":1454546,"Delta":50095655},{"NoteNumber":54,"Velocity":50,"Duration":363636,"SoundDuration":363636,"Delta":50459291},{"NoteNumber":52,"Velocity":49,"Duration":363636,"SoundDuration":363636,"Delta":50822928},{"NoteNumber":54,"Velocity":48,"Duration":363636,"SoundDuration":363636,"Delta":51186564},{"NoteNumber":59,"Velocity":52,"Duration":370370,"SoundDuration":370370,"Delta":51550201},{"NoteNumber":60,"Velocity":56,"Duration":387096,"SoundDuration":387096,"Delta":51920571},{"NoteNumber":60,"Velocity":58,"Duration":727272,"SoundDuration":727272,"Delta":52307668},{"NoteNumber":59,"Velocity":55,"Duration":375000,"SoundDuration":375000,"Delta":53034941},{"NoteNumber":59,"Velocity":55,"Duration":2209338,"SoundDuration":2209338,"Delta":53409941},{"NoteNumber":51,"Velocity":41,"Duration":1125000,"SoundDuration":1125000,"Delta":53409941},{"NoteNumber":57,"Velocity":47,"Duration":1125000,"SoundDuration":1125000,"Delta":53409941},{"NoteNumber":54,"Velocity":41,"Duration":1125000,"SoundDuration":1125000,"Delta":53409941},{"NoteNumber":52,"Velocity":37,"Duration":361446,"SoundDuration":361446,"Delta":54534941},{"NoteNumber":55,"Velocity":41,"Duration":361446,"SoundDuration":361446,"Delta":54534941},{"NoteNumber":59,"Velocity":57,"Duration":727272,"SoundDuration":727272,"Delta":55619279},{"NoteNumber":57,"Velocity":53,"Duration":375000,"SoundDuration":375000,"Delta":56346552},{"NoteNumber":57,"Velocity":52,"Duration":2215909,"SoundDuration":2215909,"Delta":56721552},{"NoteNumber":49,"Velocity":38,"Duration":1125000,"SoundDuration":1125000,"Delta":56721552},{"NoteNumber":55,"Velocity":42,"Duration":1125000,"SoundDuration":1125000,"Delta":56721552},{"NoteNumber":52,"Velocity":38,"Duration":1125000,"SoundDuration":1125000,"Delta":56721552},{"NoteNumber":50,"Velocity":33,"Duration":363636,"SoundDuration":363636,"Delta":57846552},{"NoteNumber":54,"Velocity":37,"Duration":363636,"SoundDuration":363636,"Delta":57846552},{"NoteNumber":57,"Velocity":49,"Duration":372670,"SoundDuration":372670,"Delta":58937462},{"NoteNumber":59,"Velocity":46,"Duration":372671,"SoundDuration":372671,"Delta":59310133},{"NoteNumber":60,"Velocity":46,"Duration":392156,"SoundDuration":392156,"Delta":59682804},{"NoteNumber":54,"Velocity":42,"Duration":1225531,"SoundDuration":1225531,"Delta":60074961},{"NoteNumber":60,"Velocity":48,"Duration":799999,"SoundDuration":799999,"Delta":60074961},{"NoteNumber":43,"Velocity":36,"Duration":3051063,"SoundDuration":3051063,"Delta":60074961},{"NoteNumber":51,"Velocity":40,"Duration":1225531,"SoundDuration":1225531,"Delta":60074961},{"NoteNumber":59,"Velocity":42,"Duration":425531,"SoundDuration":425531,"Delta":60874961},{"NoteNumber":55,"Velocity":38,"Duration":1325532,"SoundDuration":1325532,"Delta":61300493},{"NoteNumber":59,"Velocity":42,"Duration":1325532,"SoundDuration":1325532,"Delta":61300493},{"NoteNumber":50,"Velocity":37,"Duration":1325532,"SoundDuration":1325532,"Delta":61300493},{"NoteNumber":71,"Velocity":70,"Duration":623481,"SoundDuration":623481,"Delta":63126025},{"NoteNumber":52,"Velocity":49,"Duration":469635,"SoundDuration":469635,"Delta":63279871},{"NoteNumber":61,"Velocity":55,"Duration":315789,"SoundDuration":315789,"Delta":63433717},{"NoteNumber":67,"Velocity":52,"Duration":157894,"SoundDuration":157894,"Delta":63591612},{"NoteNumber":70,"Velocity":62,"Duration":607910,"SoundDuration":607910,"Delta":63749507},{"NoteNumber":54,"Velocity":49,"Duration":459395,"SoundDuration":459395,"Delta":63898022},{"NoteNumber":61,"Velocity":56,"Duration":310880,"SoundDuration":310880,"Delta":64046536},{"NoteNumber":66,"Velocity":57,"Duration":155440,"SoundDuration":155440,"Delta":64201977},{"NoteNumber":74,"Velocity":73,"Duration":277983,"SoundDuration":277983,"Delta":64357417},{"NoteNumber":47,"Velocity":59,"Duration":277983,"SoundDuration":277983,"Delta":64357417},{"NoteNumber":54,"Velocity":47,"Duration":138991,"SoundDuration":138991,"Delta":64496409},{"NoteNumber":64,"Velocity":57,"Duration":289855,"SoundDuration":289855,"Delta":64635401},{"NoteNumber":66,"Velocity":57,"Duration":289855,"SoundDuration":289855,"Delta":64635401},{"NoteNumber":73,"Velocity":67,"Duration":289855,"SoundDuration":289855,"Delta":64635401},{"NoteNumber":56,"Velocity":49,"Duration":144927,"SoundDuration":144927,"Delta":64635401},{"NoteNumber":58,"Velocity":52,"Duration":144927,"SoundDuration":144927,"Delta":64780328},{"NoteNumber":62,"Velocity":51,"Duration":291601,"SoundDuration":291601,"Delta":64925256},{"NoteNumber":66,"Velocity":51,"Duration":291601,"SoundDuration":291601,"Delta":64925256},{"NoteNumber":71,"Velocity":61,"Duration":291601,"SoundDuration":291601,"Delta":64925256},{"NoteNumber":59,"Velocity":53,"Duration":145801,"SoundDuration":145801,"Delta":64925256},{"NoteNumber":61,"Velocity":51,"Duration":145800,"SoundDuration":145800,"Delta":65071057},{"NoteNumber":62,"Velocity":55,"Duration":151729,"SoundDuration":151729,"Delta":65216858},{"NoteNumber":59,"Velocity":50,"Duration":151729,"SoundDuration":151729,"Delta":65368588},{"NoteNumber":71,"Velocity":70,"Duration":584376,"SoundDuration":584376,"Delta":65520317},{"NoteNumber":52,"Velocity":49,"Duration":440835,"SoundDuration":440835,"Delta":65663858},{"NoteNumber":61,"Velocity":55,"Duration":297294,"SoundDuration":297294,"Delta":65807399},{"NoteNumber":67,"Velocity":55,"Duration":148647,"SoundDuration":148647,"Delta":65956046},{"NoteNumber":70,"Velocity":62,"Duration":574690,"SoundDuration":574690,"Delta":66104693},{"NoteNumber":54,"Velocity":49,"Duration":432483,"SoundDuration":432483,"Delta":66246900},{"NoteNumber":61,"Velocity":56,"Duration":290276,"SoundDuration":290276,"Delta":66389107},{"NoteNumber":66,"Velocity":57,"Duration":145138,"SoundDuration":145138,"Delta":66534245},{"NoteNumber":78,"Velocity":74,"Duration":279277,"SoundDuration":279277,"Delta":66679383},{"NoteNumber":60,"Velocity":59,"Duration":279277,"SoundDuration":279277,"Delta":66679383},{"NoteNumber":66,"Velocity":47,"Duration":139638,"SoundDuration":139638,"Delta":66819022},{"NoteNumber":76,"Velocity":71,"Duration":290387,"SoundDuration":290387,"Delta":66958661},{"NoteNumber":67,"Velocity":49,"Duration":145194,"SoundDuration":145194,"Delta":66958661},{"NoteNumber":69,"Velocity":51,"Duration":145193,"SoundDuration":145193,"Delta":67103855},{"NoteNumber":71,"Velocity":56,"Duration":142355,"SoundDuration":142355,"Delta":67249049},{"NoteNumber":76,"Velocity":70,"Duration":284711,"SoundDuration":284711,"Delta":67249049},{"NoteNumber":59,"Velocity":53,"Duration":284711,"SoundDuration":284711,"Delta":67249049},{"NoteNumber":72,"Velocity":57,"Duration":142355,"SoundDuration":142355,"Delta":67391404},{"NoteNumber":71,"Velocity":52,"Duration":150210,"SoundDuration":150210,"Delta":67533760},{"NoteNumber":75,"Velocity":62,"Duration":300420,"SoundDuration":300420,"Delta":67533760},{"NoteNumber":66,"Velocity":51,"Duration":150210,"SoundDuration":150210,"Delta":67683970},{"NoteNumber":71,"Velocity":70,"Duration":585811,"SoundDuration":585811,"Delta":67834180},{"NoteNumber":52,"Velocity":49,"Duration":441552,"SoundDuration":441552,"Delta":67978439},{"NoteNumber":61,"Velocity":55,"Duration":297294,"SoundDuration":297294,"Delta":68122697},{"NoteNumber":67,"Velocity":55,"Duration":148647,"SoundDuration":148647,"Delta":68271345},{"NoteNumber":70,"Velocity":62,"Duration":571798,"SoundDuration":571798,"Delta":68419992},{"NoteNumber":54,"Velocity":49,"Duration":429591,"SoundDuration":429591,"Delta":68562199},{"NoteNumber":61,"Velocity":56,"Duration":287384,"SoundDuration":287384,"Delta":68704406},{"NoteNumber":66,"Velocity":57,"Duration":143692,"SoundDuration":143692,"Delta":68848098},{"NoteNumber":74,"Velocity":73,"Duration":277983,"SoundDuration":277983,"Delta":68991790},{"NoteNumber":47,"Velocity":59,"Duration":277983,"SoundDuration":277983,"Delta":68991790},{"NoteNumber":54,"Velocity":47,"Duration":138991,"SoundDuration":138991,"Delta":69130782},{"NoteNumber":64,"Velocity":57,"Duration":290276,"SoundDuration":290276,"Delta":69269773},{"NoteNumber":66,"Velocity":57,"Duration":290276,"SoundDuration":290276,"Delta":69269773},{"NoteNumber":73,"Velocity":67,"Duration":290276,"SoundDuration":290276,"Delta":69269773},{"NoteNumber":56,"Velocity":49,"Duration":145138,"SoundDuration":145138,"Delta":69269773},{"NoteNumber":58,"Velocity":52,"Duration":145138,"SoundDuration":145138,"Delta":69414911},{"NoteNumber":62,"Velocity":51,"Duration":290275,"SoundDuration":290275,"Delta":69560049},{"NoteNumber":66,"Velocity":51,"Duration":290275,"SoundDuration":290275,"Delta":69560049},{"NoteNumber":71,"Velocity":61,"Duration":290275,"SoundDuration":290275,"Delta":69560049},{"NoteNumber":59,"Velocity":53,"Duration":145137,"SoundDuration":145137,"Delta":69560049},{"NoteNumber":61,"Velocity":50,"Duration":145138,"SoundDuration":145138,"Delta":69705187},{"NoteNumber":62,"Velocity":53,"Duration":145138,"SoundDuration":145138,"Delta":69850325},{"NoteNumber":59,"Velocity":51,"Duration":145138,"SoundDuration":145138,"Delta":69995463},{"NoteNumber":71,"Velocity":70,"Duration":574690,"SoundDuration":574690,"Delta":70140601},{"NoteNumber":52,"Velocity":49,"Duration":432483,"SoundDuration":432483,"Delta":70282808},{"NoteNumber":61,"Velocity":55,"Duration":290276,"SoundDuration":290276,"Delta":70425015},{"NoteNumber":67,"Velocity":55,"Duration":145138,"SoundDuration":145138,"Delta":70570153},{"NoteNumber":70,"Velocity":62,"Duration":578201,"SoundDuration":578201,"Delta":70715291},{"NoteNumber":54,"Velocity":49,"Duration":438562,"SoundDuration":438562,"Delta":70854930},{"NoteNumber":61,"Velocity":56,"Duration":298923,"SoundDuration":298923,"Delta":70994569},{"NoteNumber":66,"Velocity":57,"Duration":149461,"SoundDuration":149461,"Delta":71144031},{"NoteNumber":78,"Velocity":72,"Duration":288516,"SoundDuration":288516,"Delta":71293493},{"NoteNumber":60,"Velocity":59,"Duration":288516,"SoundDuration":288516,"Delta":71293493},{"NoteNumber":66,"Velocity":47,"Duration":144258,"SoundDuration":144258,"Delta":71437751},{"NoteNumber":76,"Velocity":71,"Duration":297294,"SoundDuration":297294,"Delta":71582010},{"NoteNumber":67,"Velocity":49,"Duration":148647,"SoundDuration":148647,"Delta":71582010},{"NoteNumber":69,"Velocity":52,"Duration":148647,"SoundDuration":148647,"Delta":71730657},{"NoteNumber":71,"Velocity":56,"Duration":144258,"SoundDuration":144258,"Delta":71879304},{"NoteNumber":76,"Velocity":70,"Duration":288516,"SoundDuration":288516,"Delta":71879304},{"NoteNumber":59,"Velocity":53,"Duration":288516,"SoundDuration":288516,"Delta":71879304},{"NoteNumber":72,"Velocity":56,"Duration":144258,"SoundDuration":144258,"Delta":72023563},{"NoteNumber":71,"Velocity":52,"Duration":148647,"SoundDuration":148647,"Delta":72167821},{"NoteNumber":75,"Velocity":62,"Duration":297294,"SoundDuration":297294,"Delta":72167821},{"NoteNumber":66,"Velocity":51,"Duration":148647,"SoundDuration":148647,"Delta":72316469},{"NoteNumber":79,"Velocity":79,"Duration":570754,"SoundDuration":570754,"Delta":72465116},{"NoteNumber":52,"Velocity":52,"Duration":141229,"SoundDuration":141229,"Delta":72606346},{"NoteNumber":67,"Velocity":52,"Duration":144147,"SoundDuration":144147,"Delta":72747575},{"NoteNumber":59,"Velocity":49,"Duration":144147,"SoundDuration":144147,"Delta":72747575},{"NoteNumber":71,"Velocity":48,"Duration":144147,"SoundDuration":144147,"Delta":72891723},{"NoteNumber":64,"Velocity":42,"Duration":144147,"SoundDuration":144147,"Delta":72891723},{"NoteNumber":78,"Velocity":77,"Duration":578653,"SoundDuration":578653,"Delta":73035870},{"NoteNumber":50,"Velocity":53,"Duration":143170,"SoundDuration":143170,"Delta":73179041},{"NoteNumber":66,"Velocity":50,"Duration":146156,"SoundDuration":146156,"Delta":73322212},{"NoteNumber":59,"Velocity":50,"Duration":146156,"SoundDuration":146156,"Delta":73322212},{"NoteNumber":71,"Velocity":47,"Duration":146155,"SoundDuration":146155,"Delta":73468368},{"NoteNumber":62,"Velocity":44,"Duration":146155,"SoundDuration":146155,"Delta":73468368},{"NoteNumber":77,"Velocity":77,"Duration":292312,"SoundDuration":292312,"Delta":73614524},{"NoteNumber":49,"Velocity":49,"Duration":146156,"SoundDuration":146156,"Delta":73760680},{"NoteNumber":71,"Velocity":49,"Duration":292311,"SoundDuration":292311,"Delta":73906836},{"NoteNumber":73,"Velocity":50,"Duration":292311,"SoundDuration":292311,"Delta":73906836},{"NoteNumber":80,"Velocity":67,"Duration":292311,"SoundDuration":292311,"Delta":73906836},{"NoteNumber":61,"Velocity":52,"Duration":146155,"SoundDuration":146155,"Delta":73906836},{"NoteNumber":65,"Velocity":48,"Duration":146156,"SoundDuration":146156,"Delta":74052992},{"NoteNumber":71,"Velocity":60,"Duration":292311,"SoundDuration":292311,"Delta":74199148},{"NoteNumber":73,"Velocity":71,"Duration":584624,"SoundDuration":584624,"Delta":74199148},{"NoteNumber":54,"Velocity":41,"Duration":146155,"SoundDuration":146155,"Delta":74345304},{"NoteNumber":69,"Velocity":57,"Duration":292312,"SoundDuration":292312,"Delta":74491460},{"NoteNumber":61,"Velocity":48,"Duration":146156,"SoundDuration":146156,"Delta":74491460},{"NoteNumber":66,"Velocity":40,"Duration":146156,"SoundDuration":146156,"Delta":74637616},{"NoteNumber":78,"Velocity":77,"Duration":570754,"SoundDuration":570754,"Delta":74783772},{"NoteNumber":49,"Velocity":52,"Duration":141229,"SoundDuration":141229,"Delta":74925002},{"NoteNumber":66,"Velocity":52,"Duration":144147,"SoundDuration":144147,"Delta":75066231},{"NoteNumber":57,"Velocity":49,"Duration":144147,"SoundDuration":144147,"Delta":75066231},{"NoteNumber":69,"Velocity":48,"Duration":144147,"SoundDuration":144147,"Delta":75210379},{"NoteNumber":61,"Velocity":44,"Duration":144147,"SoundDuration":144147,"Delta":75210379},{"NoteNumber":76,"Velocity":75,"Duration":578653,"SoundDuration":578653,"Delta":75354526},{"NoteNumber":48,"Velocity":53,"Duration":143170,"SoundDuration":143170,"Delta":75497697},{"NoteNumber":64,"Velocity":50,"Duration":146156,"SoundDuration":146156,"Delta":75640868},{"NoteNumber":54,"Velocity":50,"Duration":146156,"SoundDuration":146156,"Delta":75640868},{"NoteNumber":69,"Velocity":46,"Duration":146155,"SoundDuration":146155,"Delta":75787024},{"NoteNumber":60,"Velocity":45,"Duration":146155,"SoundDuration":146155,"Delta":75787024},{"NoteNumber":75,"Velocity":79,"Duration":295799,"SoundDuration":295799,"Delta":75933180},{"NoteNumber":47,"Velocity":49,"Duration":147899,"SoundDuration":147899,"Delta":76081080},{"NoteNumber":69,"Velocity":49,"Duration":295799,"SoundDuration":295799,"Delta":76228979},{"NoteNumber":71,"Velocity":50,"Duration":295799,"SoundDuration":295799,"Delta":76228979},{"NoteNumber":78,"Velocity":69,"Duration":295799,"SoundDuration":295799,"Delta":76228979},{"NoteNumber":54,"Velocity":52,"Duration":147899,"SoundDuration":147899,"Delta":76228979},{"NoteNumber":59,"Velocity":49,"Duration":147899,"SoundDuration":147899,"Delta":76376879},{"NoteNumber":69,"Velocity":60,"Duration":295799,"SoundDuration":295799,"Delta":76524779},{"NoteNumber":71,"Velocity":71,"Duration":591599,"SoundDuration":591599,"Delta":76524779},{"NoteNumber":52,"Velocity":46,"Duration":147899,"SoundDuration":147899,"Delta":76672679},{"NoteNumber":67,"Velocity":57,"Duration":295799,"SoundDuration":295799,"Delta":76820578},{"NoteNumber":59,"Velocity":51,"Duration":147899,"SoundDuration":147899,"Delta":76820578},{"NoteNumber":64,"Velocity":47,"Duration":147899,"SoundDuration":147899,"Delta":76968478},{"NoteNumber":76,"Velocity":75,"Duration":574245,"SoundDuration":574245,"Delta":77116378},{"NoteNumber":50,"Velocity":49,"Duration":142153,"SoundDuration":142153,"Delta":77258531},{"NoteNumber":64,"Velocity":52,"Duration":144969,"SoundDuration":144969,"Delta":77400684},{"NoteNumber":55,"Velocity":48,"Duration":144969,"SoundDuration":144969,"Delta":77400684},{"NoteNumber":67,"Velocity":48,"Duration":144969,"SoundDuration":144969,"Delta":77545654},{"NoteNumber":59,"Velocity":42,"Duration":144969,"SoundDuration":144969,"Delta":77545654},{"NoteNumber":74,"Velocity":73,"Duration":582250,"SoundDuration":582250,"Delta":77690623},{"NoteNumber":46,"Velocity":49,"Duration":144969,"SoundDuration":144969,"Delta":77835593},{"NoteNumber":62,"Velocity":50,"Duration":146156,"SoundDuration":146156,"Delta":77980562},{"NoteNumber":52,"Velocity":47,"Duration":146156,"SoundDuration":146156,"Delta":77980562},{"NoteNumber":67,"Velocity":47,"Duration":146155,"SoundDuration":146155,"Delta":78126718},{"NoteNumber":58,"Velocity":41,"Duration":146155,"SoundDuration":146155,"Delta":78126718},{"NoteNumber":74,"Velocity":72,"Duration":292312,"SoundDuration":292312,"Delta":78272874},{"NoteNumber":45,"Velocity":44,"Duration":146156,"SoundDuration":146156,"Delta":78419030},{"NoteNumber":61,"Velocity":41,"Duration":292311,"SoundDuration":292311,"Delta":78565186},{"NoteNumber":67,"Velocity":42,"Duration":292311,"SoundDuration":292311,"Delta":78565186},{"NoteNumber":73,"Velocity":67,"Duration":292311,"SoundDuration":292311,"Delta":78565186},{"NoteNumber":52,"Velocity":48,"Duration":146155,"SoundDuration":146155,"Delta":78565186},{"NoteNumber":57,"Velocity":42,"Duration":146156,"SoundDuration":146156,"Delta":78711342},{"NoteNumber":64,"Velocity":51,"Duration":292311,"SoundDuration":292311,"Delta":78857498},{"NoteNumber":67,"Velocity":51,"Duration":292311,"SoundDuration":292311,"Delta":78857498},{"NoteNumber":71,"Velocity":59,"Duration":292311,"SoundDuration":292311,"Delta":78857498},{"NoteNumber":62,"Velocity":49,"Duration":292311,"SoundDuration":292311,"Delta":79003654},{"NoteNumber":69,"Velocity":57,"Duration":292312,"SoundDuration":292312,"Delta":79149810},{"NoteNumber":61,"Velocity":46,"Duration":146156,"SoundDuration":146156,"Delta":79295966},{"NoteNumber":67,"Velocity":59,"Duration":574690,"SoundDuration":574690,"Delta":79442122},{"NoteNumber":45,"Velocity":41,"Duration":432483,"SoundDuration":432483,"Delta":79584329},{"NoteNumber":58,"Velocity":46,"Duration":290276,"SoundDuration":290276,"Delta":79726536},{"NoteNumber":61,"Velocity":46,"Duration":145138,"SoundDuration":145138,"Delta":79871674},{"NoteNumber":66,"Velocity":57,"Duration":574690,"SoundDuration":574690,"Delta":80016812},{"NoteNumber":45,"Velocity":41,"Duration":432483,"SoundDuration":432483,"Delta":80159019},{"NoteNumber":57,"Velocity":47,"Duration":290276,"SoundDuration":290276,"Delta":80301226},{"NoteNumber":62,"Velocity":46,"Duration":145138,"SoundDuration":145138,"Delta":80446364},{"NoteNumber":73,"Velocity":60,"Duration":288516,"SoundDuration":288516,"Delta":80591502},{"NoteNumber":45,"Velocity":35,"Duration":144258,"SoundDuration":144258,"Delta":80735761},{"NoteNumber":62,"Velocity":36,"Duration":290276,"SoundDuration":290276,"Delta":80880019},{"NoteNumber":66,"Velocity":39,"Duration":290276,"SoundDuration":290276,"Delta":80880019},{"NoteNumber":71,"Velocity":49,"Duration":290276,"SoundDuration":290276,"Delta":80880019},{"NoteNumber":50,"Velocity":41,"Duration":145138,"SoundDuration":145138,"Delta":80880019},{"NoteNumber":54,"Velocity":39,"Duration":145138,"SoundDuration":145138,"Delta":81025157},{"NoteNumber":69,"Velocity":55,"Duration":290275,"SoundDuration":290275,"Delta":81170295},{"NoteNumber":57,"Velocity":40,"Duration":145137,"SoundDuration":145137,"Delta":81170295},{"NoteNumber":62,"Velocity":40,"Duration":145138,"SoundDuration":145138,"Delta":81315433},{"NoteNumber":66,"Velocity":42,"Duration":145138,"SoundDuration":145138,"Delta":81460571},{"NoteNumber":69,"Velocity":39,"Duration":139090,"SoundDuration":139090,"Delta":81605709},{"NoteNumber":69,"Velocity":62,"Duration":570754,"SoundDuration":570754,"Delta":81750847},{"NoteNumber":45,"Velocity":41,"Duration":429524,"SoundDuration":429524,"Delta":81892077},{"NoteNumber":60,"Velocity":47,"Duration":288295,"SoundDuration":288295,"Delta":82033307},{"NoteNumber":63,"Velocity":49,"Duration":144147,"SoundDuration":144147,"Delta":82177454},{"NoteNumber":67,"Velocity":60,"Duration":578653,"SoundDuration":578653,"Delta":82321602},{"NoteNumber":45,"Velocity":40,"Duration":435482,"SoundDuration":435482,"Delta":82464773},{"NoteNumber":59,"Velocity":45,"Duration":292311,"SoundDuration":292311,"Delta":82607943},{"NoteNumber":64,"Velocity":49,"Duration":146155,"SoundDuration":146155,"Delta":82754099},{"NoteNumber":76,"Velocity":66,"Duration":292312,"SoundDuration":292312,"Delta":82900255},{"NoteNumber":45,"Velocity":39,"Duration":146156,"SoundDuration":146156,"Delta":83046411},{"NoteNumber":64,"Velocity":45,"Duration":292311,"SoundDuration":292311,"Delta":83192567},{"NoteNumber":67,"Velocity":45,"Duration":292311,"SoundDuration":292311,"Delta":83192567},{"NoteNumber":74,"Velocity":53,"Duration":292311,"SoundDuration":292311,"Delta":83192567},{"NoteNumber":52,"Velocity":42,"Duration":146155,"SoundDuration":146155,"Delta":83192567},{"NoteNumber":55,"Velocity":38,"Duration":146156,"SoundDuration":146156,"Delta":83338723},{"NoteNumber":74,"Velocity":61,"Duration":292311,"SoundDuration":292311,"Delta":83484879},{"NoteNumber":58,"Velocity":39,"Duration":146156,"SoundDuration":146156,"Delta":83484879},{"NoteNumber":64,"Velocity":41,"Duration":146155,"SoundDuration":146155,"Delta":83631035},{"NoteNumber":73,"Velocity":57,"Duration":292312,"SoundDuration":292312,"Delta":83777191},{"NoteNumber":67,"Velocity":44,"Duration":146156,"SoundDuration":146156,"Delta":83777191},{"NoteNumber":57,"Velocity":39,"Duration":146156,"SoundDuration":146156,"Delta":83923347},{"NoteNumber":67,"Velocity":59,"Duration":574690,"SoundDuration":574690,"Delta":84069503},{"NoteNumber":45,"Velocity":41,"Duration":432483,"SoundDuration":432483,"Delta":84211710},{"NoteNumber":58,"Velocity":46,"Duration":290276,"SoundDuration":290276,"Delta":84353917},{"NoteNumber":61,"Velocity":46,"Duration":145138,"SoundDuration":145138,"Delta":84499055},{"NoteNumber":66,"Velocity":57,"Duration":574690,"SoundDuration":574690,"Delta":84644193},{"NoteNumber":45,"Velocity":41,"Duration":432483,"SoundDuration":432483,"Delta":84786400},{"NoteNumber":57,"Velocity":47,"Duration":290276,"SoundDuration":290276,"Delta":84928607},{"NoteNumber":62,"Velocity":46,"Duration":145138,"SoundDuration":145138,"Delta":85073745},{"NoteNumber":73,"Velocity":58,"Duration":280583,"SoundDuration":280583,"Delta":85218883},{"NoteNumber":45,"Velocity":35,"Duration":140291,"SoundDuration":140291,"Delta":85359175},{"NoteNumber":62,"Velocity":36,"Duration":290276,"SoundDuration":290276,"Delta":85499467},{"NoteNumber":66,"Velocity":39,"Duration":290276,"SoundDuration":290276,"Delta":85499467},{"NoteNumber":71,"Velocity":49,"Duration":290276,"SoundDuration":290276,"Delta":85499467},{"NoteNumber":50,"Velocity":41,"Duration":145138,"SoundDuration":145138,"Delta":85499467},{"NoteNumber":54,"Velocity":39,"Duration":145138,"SoundDuration":145138,"Delta":85644605},{"NoteNumber":69,"Velocity":55,"Duration":290275,"SoundDuration":290275,"Delta":85789743},{"NoteNumber":57,"Velocity":40,"Duration":145137,"SoundDuration":145137,"Delta":85789743},{"NoteNumber":62,"Velocity":39,"Duration":145138,"SoundDuration":145138,"Delta":85934881},{"NoteNumber":66,"Velocity":42,"Duration":145138,"SoundDuration":145138,"Delta":86080019},{"NoteNumber":69,"Velocity":39,"Duration":139090,"SoundDuration":139090,"Delta":86225157},{"NoteNumber":69,"Velocity":60,"Duration":570754,"SoundDuration":570754,"Delta":86370295},{"NoteNumber":45,"Velocity":41,"Duration":429524,"SoundDuration":429524,"Delta":86511525},{"NoteNumber":60,"Velocity":47,"Duration":288295,"SoundDuration":288295,"Delta":86652754},{"NoteNumber":63,"Velocity":49,"Duration":144147,"SoundDuration":144147,"Delta":86796902},{"NoteNumber":67,"Velocity":60,"Duration":578653,"SoundDuration":578653,"Delta":86941049},{"NoteNumber":45,"Velocity":40,"Duration":435482,"SoundDuration":435482,"Delta":87084220},{"NoteNumber":59,"Velocity":45,"Duration":292311,"SoundDuration":292311,"Delta":87227391},{"NoteNumber":64,"Velocity":51,"Duration":146155,"SoundDuration":146155,"Delta":87373547},{"NoteNumber":76,"Velocity":64,"Duration":282885,"SoundDuration":282885,"Delta":87519703},{"NoteNumber":45,"Velocity":39,"Duration":141442,"SoundDuration":141442,"Delta":87661146},{"NoteNumber":64,"Velocity":45,"Duration":292368,"SoundDuration":292368,"Delta":87802588},{"NoteNumber":67,"Velocity":45,"Duration":292368,"SoundDuration":292368,"Delta":87802588},{"NoteNumber":74,"Velocity":53,"Duration":292368,"SoundDuration":292368,"Delta":87802588},{"NoteNumber":52,"Velocity":42,"Duration":146184,"SoundDuration":146184,"Delta":87802588},{"NoteNumber":55,"Velocity":38,"Duration":146184,"SoundDuration":146184,"Delta":87948773},{"NoteNumber":73,"Velocity":61,"Duration":284711,"SoundDuration":284711,"Delta":88094957},{"NoteNumber":58,"Velocity":39,"Duration":142355,"SoundDuration":142355,"Delta":88094957},{"NoteNumber":64,"Velocity":41,"Duration":142355,"SoundDuration":142355,"Delta":88237313},{"NoteNumber":67,"Velocity":44,"Duration":148162,"SoundDuration":148162,"Delta":88379668},{"NoteNumber":70,"Velocity":39,"Duration":148162,"SoundDuration":148162,"Delta":88527831},{"NoteNumber":72,"Velocity":71,"Duration":586905,"SoundDuration":586905,"Delta":88675994},{"NoteNumber":45,"Velocity":45,"Duration":144258,"SoundDuration":144258,"Delta":88820252},{"NoteNumber":62,"Velocity":49,"Duration":298388,"SoundDuration":298388,"Delta":88964511},{"NoteNumber":69,"Velocity":59,"Duration":298388,"SoundDuration":298388,"Delta":88964511},{"NoteNumber":54,"Velocity":48,"Duration":149194,"SoundDuration":149194,"Delta":88964511},{"NoteNumber":57,"Velocity":45,"Duration":149194,"SoundDuration":149194,"Delta":89113705},{"NoteNumber":71,"Velocity":72,"Duration":586905,"SoundDuration":586905,"Delta":89262899},{"NoteNumber":45,"Velocity":45,"Duration":144258,"SoundDuration":144258,"Delta":89407158},{"NoteNumber":62,"Velocity":52,"Duration":298388,"SoundDuration":298388,"Delta":89551416},{"NoteNumber":67,"Velocity":62,"Duration":298388,"SoundDuration":298388,"Delta":89551416},{"NoteNumber":55,"Velocity":48,"Duration":149194,"SoundDuration":149194,"Delta":89551416},{"NoteNumber":59,"Velocity":45,"Duration":149194,"SoundDuration":149194,"Delta":89700611},{"NoteNumber":74,"Velocity":74,"Duration":583018,"SoundDuration":583018,"Delta":89849805},{"NoteNumber":45,"Velocity":47,"Duration":142315,"SoundDuration":142315,"Delta":89992120},{"NoteNumber":64,"Velocity":53,"Duration":298388,"SoundDuration":298388,"Delta":90134435},{"NoteNumber":71,"Velocity":63,"Duration":298388,"SoundDuration":298388,"Delta":90134435},{"NoteNumber":56,"Velocity":50,"Duration":149194,"SoundDuration":149194,"Delta":90134435},{"NoteNumber":59,"Velocity":50,"Duration":149194,"SoundDuration":149194,"Delta":90283629},{"NoteNumber":73,"Velocity":74,"Duration":595265,"SoundDuration":595265,"Delta":90432823},{"NoteNumber":45,"Velocity":47,"Duration":144258,"SoundDuration":144258,"Delta":90577082},{"NoteNumber":64,"Velocity":53,"Duration":306748,"SoundDuration":306748,"Delta":90721340},{"NoteNumber":69,"Velocity":63,"Duration":306748,"SoundDuration":306748,"Delta":90721340},{"NoteNumber":57,"Velocity":50,"Duration":153374,"SoundDuration":153374,"Delta":90721340},{"NoteNumber":61,"Velocity":47,"Duration":153374,"SoundDuration":153374,"Delta":90874715},{"NoteNumber":73,"Velocity":78,"Duration":603308,"SoundDuration":603308,"Delta":91028089},{"NoteNumber":44,"Velocity":49,"Duration":147174,"SoundDuration":147174,"Delta":91175263},{"NoteNumber":65,"Velocity":56,"Duration":308959,"SoundDuration":308959,"Delta":91322437},{"NoteNumber":71,"Velocity":67,"Duration":308959,"SoundDuration":308959,"Delta":91322437},{"NoteNumber":56,"Velocity":53,"Duration":154480,"SoundDuration":154480,"Delta":91322437},{"NoteNumber":61,"Velocity":49,"Duration":154479,"SoundDuration":154479,"Delta":91476917},{"NoteNumber":73,"Velocity":80,"Duration":625195,"SoundDuration":625195,"Delta":91631397},{"NoteNumber":44,"Velocity":53,"Duration":151255,"SoundDuration":151255,"Delta":91782653},{"NoteNumber":65,"Velocity":58,"Duration":322684,"SoundDuration":322684,"Delta":91933908},{"NoteNumber":71,"Velocity":69,"Duration":322684,"SoundDuration":322684,"Delta":91933908},{"NoteNumber":56,"Velocity":57,"Duration":161342,"SoundDuration":161342,"Delta":91933908},{"NoteNumber":61,"Velocity":53,"Duration":161342,"SoundDuration":161342,"Delta":92095251},{"NoteNumber":70,"Velocity":73,"Duration":1192166,"SoundDuration":1192166,"Delta":92256593},{"NoteNumber":66,"Velocity":73,"Duration":1192166,"SoundDuration":1192166,"Delta":92256593},{"NoteNumber":78,"Velocity":86,"Duration":591982,"SoundDuration":591982,"Delta":92256593},{"NoteNumber":42,"Velocity":60,"Duration":146484,"SoundDuration":146484,"Delta":92403077},{"NoteNumber":49,"Velocity":62,"Duration":149506,"SoundDuration":149506,"Delta":92549562},{"NoteNumber":54,"Velocity":60,"Duration":149506,"SoundDuration":149506,"Delta":92699069},{"NoteNumber":73,"Velocity":85,"Duration":600183,"SoundDuration":600183,"Delta":92848575},{"NoteNumber":49,"Velocity":60,"Duration":148500,"SoundDuration":148500,"Delta":92997076},{"NoteNumber":54,"Velocity":62,"Duration":151591,"SoundDuration":151591,"Delta":93145576},{"NoteNumber":61,"Velocity":57,"Duration":151591,"SoundDuration":151591,"Delta":93297168},{"NoteNumber":70,"Velocity":60,"Duration":1217748,"SoundDuration":1217748,"Delta":93448759},{"NoteNumber":65,"Velocity":60,"Duration":1217748,"SoundDuration":1217748,"Delta":93448759},{"NoteNumber":73,"Velocity":80,"Duration":305966,"SoundDuration":305966,"Delta":93448759},{"NoteNumber":42,"Velocity":59,"Duration":152983,"SoundDuration":152983,"Delta":93601743},{"NoteNumber":75,"Velocity":80,"Duration":305966,"SoundDuration":305966,"Delta":93754726},{"NoteNumber":49,"Velocity":63,"Duration":152983,"SoundDuration":152983,"Delta":93754726},{"NoteNumber":56,"Velocity":58,"Duration":152983,"SoundDuration":152983,"Delta":93907709},{"NoteNumber":73,"Velocity":81,"Duration":605816,"SoundDuration":605816,"Delta":94060692},{"NoteNumber":49,"Velocity":57,"Duration":151454,"SoundDuration":151454,"Delta":94212146},{"NoteNumber":56,"Velocity":62,"Duration":151454,"SoundDuration":151454,"Delta":94363600},{"NoteNumber":61,"Velocity":58,"Duration":151454,"SoundDuration":151454,"Delta":94515054},{"NoteNumber":70,"Velocity":73,"Duration":1192166,"SoundDuration":1192166,"Delta":94666508},{"NoteNumber":66,"Velocity":73,"Duration":1192166,"SoundDuration":1192166,"Delta":94666508},{"NoteNumber":78,"Velocity":86,"Duration":591982,"SoundDuration":591982,"Delta":94666508},{"NoteNumber":42,"Velocity":60,"Duration":146484,"SoundDuration":146484,"Delta":94812993},{"NoteNumber":49,"Velocity":62,"Duration":149506,"SoundDuration":149506,"Delta":94959477},{"NoteNumber":54,"Velocity":60,"Duration":149506,"SoundDuration":149506,"Delta":95108984},{"NoteNumber":73,"Velocity":84,"Duration":600183,"SoundDuration":600183,"Delta":95258491},{"NoteNumber":49,"Velocity":60,"Duration":148500,"SoundDuration":148500,"Delta":95406991},{"NoteNumber":54,"Velocity":62,"Duration":151591,"SoundDuration":151591,"Delta":95555491},{"NoteNumber":61,"Velocity":57,"Duration":151591,"SoundDuration":151591,"Delta":95707083},{"NoteNumber":70,"Velocity":60,"Duration":1223662,"SoundDuration":1223662,"Delta":95858675},{"NoteNumber":65,"Velocity":60,"Duration":1223662,"SoundDuration":1223662,"Delta":95858675},{"NoteNumber":73,"Velocity":80,"Duration":309150,"SoundDuration":309150,"Delta":95858675},{"NoteNumber":42,"Velocity":59,"Duration":154575,"SoundDuration":154575,"Delta":96013250},{"NoteNumber":75,"Velocity":80,"Duration":309150,"SoundDuration":309150,"Delta":96167826},{"NoteNumber":49,"Velocity":63,"Duration":154575,"SoundDuration":154575,"Delta":96167826},{"NoteNumber":56,"Velocity":58,"Duration":154575,"SoundDuration":154575,"Delta":96322401},{"NoteNumber":73,"Velocity":81,"Duration":605360,"SoundDuration":605360,"Delta":96476977},{"NoteNumber":49,"Velocity":57,"Duration":151454,"SoundDuration":151454,"Delta":96628431},{"NoteNumber":56,"Velocity":62,"Duration":151454,"SoundDuration":151454,"Delta":96779885},{"NoteNumber":61,"Velocity":58,"Duration":150998,"SoundDuration":150998,"Delta":96931339},{"NoteNumber":66,"Velocity":82,"Duration":592167,"SoundDuration":592167,"Delta":97082337},{"NoteNumber":42,"Velocity":57,"Duration":146761,"SoundDuration":146761,"Delta":97228822},{"NoteNumber":70,"Velocity":55,"Duration":298921,"SoundDuration":298921,"Delta":97375583},{"NoteNumber":73,"Velocity":64,"Duration":298921,"SoundDuration":298921,"Delta":97375583},{"NoteNumber":49,"Velocity":59,"Duration":149506,"SoundDuration":149506,"Delta":97375583},{"NoteNumber":54,"Velocity":57,"Duration":149414,"SoundDuration":149414,"Delta":97525090},{"NoteNumber":61,"Velocity":72,"Duration":600467,"SoundDuration":600467,"Delta":97674505},{"NoteNumber":49,"Velocity":57,"Duration":148783,"SoundDuration":148783,"Delta":97823005},{"NoteNumber":70,"Velocity":56,"Duration":303183,"SoundDuration":303183,"Delta":97971788},{"NoteNumber":66,"Velocity":46,"Duration":303183,"SoundDuration":303183,"Delta":97971788},{"NoteNumber":54,"Velocity":59,"Duration":151591,"SoundDuration":151591,"Delta":97971788},{"NoteNumber":61,"Velocity":53,"Duration":145275,"SoundDuration":145275,"Delta":98123380},{"NoteNumber":61,"Velocity":75,"Duration":303183,"SoundDuration":303183,"Delta":98274972},{"NoteNumber":42,"Velocity":56,"Duration":151591,"SoundDuration":151591,"Delta":98426564},{"NoteNumber":68,"Velocity":52,"Duration":914280,"SoundDuration":914280,"Delta":98578155},{"NoteNumber":71,"Velocity":52,"Duration":914280,"SoundDuration":914280,"Delta":98578155},{"NoteNumber":63,"Velocity":70,"Duration":303183,"SoundDuration":303183,"Delta":98578155},{"NoteNumber":49,"Velocity":60,"Duration":151591,"SoundDuration":151591,"Delta":98578155},{"NoteNumber":53,"Velocity":55,"Duration":151591,"SoundDuration":151591,"Delta":98729747},{"NoteNumber":61,"Velocity":72,"Duration":611097,"SoundDuration":611097,"Delta":98881339},{"NoteNumber":49,"Velocity":53,"Duration":151591,"SoundDuration":151591,"Delta":99032931},{"NoteNumber":53,"Velocity":59,"Duration":153956,"SoundDuration":153956,"Delta":99184522},{"NoteNumber":59,"Velocity":55,"Duration":153956,"SoundDuration":153956,"Delta":99338479},{"NoteNumber":66,"Velocity":73,"Duration":594036,"SoundDuration":594036,"Delta":99492436},{"NoteNumber":42,"Velocity":45,"Duration":147651,"SoundDuration":147651,"Delta":99639900},{"NoteNumber":70,"Velocity":49,"Duration":298921,"SoundDuration":298921,"Delta":99787551},{"NoteNumber":73,"Velocity":58,"Duration":298921,"SoundDuration":298921,"Delta":99787551},{"NoteNumber":49,"Velocity":47,"Duration":149506,"SoundDuration":149506,"Delta":99787551},{"NoteNumber":54,"Velocity":45,"Duration":149414,"SoundDuration":149414,"Delta":99937057},{"NoteNumber":61,"Velocity":64,"Duration":600467,"SoundDuration":600467,"Delta":100086472},{"NoteNumber":49,"Velocity":45,"Duration":148783,"SoundDuration":148783,"Delta":100234972},{"NoteNumber":70,"Velocity":49,"Duration":303183,"SoundDuration":303183,"Delta":100383756},{"NoteNumber":66,"Velocity":40,"Duration":303183,"SoundDuration":303183,"Delta":100383756},{"NoteNumber":54,"Velocity":47,"Duration":151591,"SoundDuration":151591,"Delta":100383756},{"NoteNumber":61,"Velocity":42,"Duration":145275,"SoundDuration":145275,"Delta":100535348},{"NoteNumber":61,"Velocity":68,"Duration":303183,"SoundDuration":303183,"Delta":100686939},{"NoteNumber":42,"Velocity":44,"Duration":151591,"SoundDuration":151591,"Delta":100838531},{"NoteNumber":68,"Velocity":47,"Duration":921195,"SoundDuration":921195,"Delta":100990123},{"NoteNumber":71,"Velocity":47,"Duration":921195,"SoundDuration":921195,"Delta":100990123},{"NoteNumber":63,"Velocity":62,"Duration":303183,"SoundDuration":303183,"Delta":100990123},{"NoteNumber":49,"Velocity":48,"Duration":151591,"SoundDuration":151591,"Delta":100990123},{"NoteNumber":53,"Velocity":44,"Duration":151591,"SoundDuration":151591,"Delta":101141715},{"NoteNumber":61,"Velocity":64,"Duration":618012,"SoundDuration":618012,"Delta":101293306},{"NoteNumber":49,"Velocity":42,"Duration":151591,"SoundDuration":151591,"Delta":101444898},{"NoteNumber":53,"Velocity":47,"Duration":157414,"SoundDuration":157414,"Delta":101596490},{"NoteNumber":59,"Velocity":44,"Duration":157414,"SoundDuration":157414,"Delta":101753904},{"NoteNumber":66,"Velocity":66,"Duration":605547,"SoundDuration":605547,"Delta":101911318},{"NoteNumber":42,"Velocity":39,"Duration":149088,"SoundDuration":149088,"Delta":102060364},{"NoteNumber":70,"Velocity":44,"Duration":307413,"SoundDuration":307413,"Delta":102209453},{"NoteNumber":73,"Velocity":51,"Duration":307413,"SoundDuration":307413,"Delta":102209453},{"NoteNumber":49,"Velocity":41,"Duration":153956,"SoundDuration":153956,"Delta":102209453},{"NoteNumber":54,"Velocity":39,"Duration":153956,"SoundDuration":153956,"Delta":102349297},{"NoteNumber":61,"Velocity":58,"Duration":619510,"SoundDuration":619510,"Delta":102516866},{"NoteNumber":49,"Velocity":39,"Duration":151466,"SoundDuration":151466,"Delta":102668320},{"NoteNumber":70,"Velocity":44,"Duration":316589,"SoundDuration":316589,"Delta":102819787},{"NoteNumber":66,"Velocity":36,"Duration":316589,"SoundDuration":316589,"Delta":102819787},{"NoteNumber":54,"Velocity":41,"Duration":158294,"SoundDuration":158294,"Delta":102819787},{"NoteNumber":61,"Velocity":38,"Duration":158294,"SoundDuration":158294,"Delta":102978081},{"NoteNumber":66,"Velocity":59,"Duration":620035,"SoundDuration":620035,"Delta":103136376},{"NoteNumber":42,"Velocity":35,"Duration":152043,"SoundDuration":152043,"Delta":103288676},{"NoteNumber":73,"Velocity":46,"Duration":315691,"SoundDuration":315691,"Delta":103440720},{"NoteNumber":70,"Velocity":39,"Duration":315691,"SoundDuration":315691,"Delta":103440720},{"NoteNumber":49,"Velocity":37,"Duration":158294,"SoundDuration":158294,"Delta":103440720},{"NoteNumber":54,"Velocity":35,"Duration":157396,"SoundDuration":157396,"Delta":103599014},{"NoteNumber":61,"Velocity":51,"Duration":627935,"SoundDuration":627935,"Delta":103756411},{"NoteNumber":49,"Velocity":35,"Duration":153739,"SoundDuration":153739,"Delta":103910368},{"NoteNumber":66,"Velocity":31,"Duration":320239,"SoundDuration":320239,"Delta":104064108},{"NoteNumber":70,"Velocity":39,"Duration":320239,"SoundDuration":320239,"Delta":104064108},{"NoteNumber":54,"Velocity":37,"Duration":160119,"SoundDuration":160119,"Delta":104064108},{"NoteNumber":61,"Velocity":34,"Duration":160119,"SoundDuration":160119,"Delta":104224227},{"NoteNumber":71,"Velocity":70,"Duration":607786,"SoundDuration":607786,"Delta":104384347},{"NoteNumber":52,"Velocity":49,"Duration":458532,"SoundDuration":458532,"Delta":104533601},{"NoteNumber":61,"Velocity":55,"Duration":309278,"SoundDuration":309278,"Delta":104682854},{"NoteNumber":67,"Velocity":52,"Duration":154639,"SoundDuration":154639,"Delta":104837494},{"NoteNumber":70,"Velocity":62,"Duration":594292,"SoundDuration":594292,"Delta":104992133},{"NoteNumber":54,"Velocity":49,"Duration":448661,"SoundDuration":448661,"Delta":105137764},{"NoteNumber":61,"Velocity":56,"Duration":303030,"SoundDuration":303030,"Delta":105283395},{"NoteNumber":66,"Velocity":57,"Duration":151515,"SoundDuration":151515,"Delta":105434910},{"NoteNumber":74,"Velocity":73,"Duration":282885,"SoundDuration":282885,"Delta":105586425},{"NoteNumber":47,"Velocity":59,"Duration":282885,"SoundDuration":282885,"Delta":105586425},{"NoteNumber":54,"Velocity":47,"Duration":141442,"SoundDuration":141442,"Delta":105727868},{"NoteNumber":64,"Velocity":57,"Duration":292368,"SoundDuration":292368,"Delta":105869311},{"NoteNumber":66,"Velocity":57,"Duration":292368,"SoundDuration":292368,"Delta":105869311},{"NoteNumber":73,"Velocity":67,"Duration":292368,"SoundDuration":292368,"Delta":105869311},{"NoteNumber":56,"Velocity":49,"Duration":146184,"SoundDuration":146184,"Delta":105869311},{"NoteNumber":58,"Velocity":52,"Duration":146184,"SoundDuration":146184,"Delta":106015495},{"NoteNumber":62,"Velocity":51,"Duration":292369,"SoundDuration":292369,"Delta":106161680},{"NoteNumber":66,"Velocity":51,"Duration":292369,"SoundDuration":292369,"Delta":106161680},{"NoteNumber":71,"Velocity":61,"Duration":292369,"SoundDuration":292369,"Delta":106161680},{"NoteNumber":59,"Velocity":53,"Duration":146184,"SoundDuration":146184,"Delta":106161680},{"NoteNumber":61,"Velocity":51,"Duration":146184,"SoundDuration":146184,"Delta":106307864},{"NoteNumber":62,"Velocity":55,"Duration":150951,"SoundDuration":150951,"Delta":106454049},{"NoteNumber":59,"Velocity":50,"Duration":150950,"SoundDuration":150950,"Delta":106605000},{"NoteNumber":71,"Velocity":70,"Duration":574690,"SoundDuration":574690,"Delta":106755951},{"NoteNumber":52,"Velocity":49,"Duration":432483,"SoundDuration":432483,"Delta":106898158},{"NoteNumber":61,"Velocity":55,"Duration":290276,"SoundDuration":290276,"Delta":107040365},{"NoteNumber":67,"Velocity":55,"Duration":145138,"SoundDuration":145138,"Delta":107185503},{"NoteNumber":70,"Velocity":62,"Duration":574690,"SoundDuration":574690,"Delta":107330641},{"NoteNumber":54,"Velocity":49,"Duration":432483,"SoundDuration":432483,"Delta":107472848},{"NoteNumber":61,"Velocity":56,"Duration":290276,"SoundDuration":290276,"Delta":107615055},{"NoteNumber":66,"Velocity":57,"Duration":145138,"SoundDuration":145138,"Delta":107760193},{"NoteNumber":78,"Velocity":74,"Duration":288516,"SoundDuration":288516,"Delta":107905331},{"NoteNumber":60,"Velocity":59,"Duration":288516,"SoundDuration":288516,"Delta":107905331},{"NoteNumber":66,"Velocity":47,"Duration":144258,"SoundDuration":144258,"Delta":108049589},{"NoteNumber":76,"Velocity":71,"Duration":298805,"SoundDuration":298805,"Delta":108193848},{"NoteNumber":67,"Velocity":49,"Duration":149402,"SoundDuration":149402,"Delta":108193848},{"NoteNumber":69,"Velocity":51,"Duration":149402,"SoundDuration":149402,"Delta":108343250},{"NoteNumber":71,"Velocity":56,"Duration":142355,"SoundDuration":142355,"Delta":108492653},{"NoteNumber":76,"Velocity":70,"Duration":284711,"SoundDuration":284711,"Delta":108492653},{"NoteNumber":59,"Velocity":53,"Duration":284711,"SoundDuration":284711,"Delta":108492653},{"NoteNumber":72,"Velocity":57,"Duration":142355,"SoundDuration":142355,"Delta":108635008},{"NoteNumber":71,"Velocity":52,"Duration":150210,"SoundDuration":150210,"Delta":108777364},{"NoteNumber":75,"Velocity":62,"Duration":300420,"SoundDuration":300420,"Delta":108777364},{"NoteNumber":66,"Velocity":51,"Duration":150210,"SoundDuration":150210,"Delta":108927574},{"NoteNumber":79,"Velocity":79,"Duration":570754,"SoundDuration":570754,"Delta":109077784},{"NoteNumber":64,"Velocity":52,"Duration":429524,"SoundDuration":429524,"Delta":109219014},{"NoteNumber":67,"Velocity":49,"Duration":288295,"SoundDuration":288295,"Delta":109360244},{"NoteNumber":71,"Velocity":42,"Duration":144147,"SoundDuration":144147,"Delta":109504391},{"NoteNumber":78,"Velocity":77,"Duration":578653,"SoundDuration":578653,"Delta":109648539},{"NoteNumber":62,"Velocity":53,"Duration":435482,"SoundDuration":435482,"Delta":109791710},{"NoteNumber":66,"Velocity":50,"Duration":292311,"SoundDuration":292311,"Delta":109934880},{"NoteNumber":71,"Velocity":44,"Duration":146155,"SoundDuration":146155,"Delta":110081036},{"NoteNumber":78,"Velocity":75,"Duration":292312,"SoundDuration":292312,"Delta":110227192},{"NoteNumber":60,"Velocity":49,"Duration":438468,"SoundDuration":438468,"Delta":110373348},{"NoteNumber":66,"Velocity":52,"Duration":146155,"SoundDuration":146155,"Delta":110519504},{"NoteNumber":76,"Velocity":67,"Duration":292311,"SoundDuration":292311,"Delta":110519504},{"NoteNumber":62,"Velocity":49,"Duration":292311,"SoundDuration":292311,"Delta":110519504},{"NoteNumber":69,"Velocity":48,"Duration":146156,"SoundDuration":146156,"Delta":110665660},{"NoteNumber":74,"Velocity":71,"Duration":584624,"SoundDuration":584624,"Delta":110811816},{"NoteNumber":59,"Velocity":41,"Duration":438468,"SoundDuration":438468,"Delta":110957972},{"NoteNumber":62,"Velocity":48,"Duration":292312,"SoundDuration":292312,"Delta":111104128},{"NoteNumber":67,"Velocity":40,"Duration":146156,"SoundDuration":146156,"Delta":111250284},{"NoteNumber":76,"Velocity":77,"Duration":570754,"SoundDuration":570754,"Delta":111396440},{"NoteNumber":60,"Velocity":52,"Duration":429524,"SoundDuration":429524,"Delta":111537670},{"NoteNumber":66,"Velocity":49,"Duration":288295,"SoundDuration":288295,"Delta":111678900},{"NoteNumber":69,"Velocity":42,"Duration":144147,"SoundDuration":144147,"Delta":111823047},{"NoteNumber":74,"Velocity":73,"Duration":578653,"SoundDuration":578653,"Delta":111967195},{"NoteNumber":59,"Velocity":53,"Duration":435482,"SoundDuration":435482,"Delta":112110366},{"NoteNumber":62,"Velocity":50,"Duration":292311,"SoundDuration":292311,"Delta":112253536},{"NoteNumber":67,"Velocity":44,"Duration":146155,"SoundDuration":146155,"Delta":112399692},{"NoteNumber":74,"Velocity":77,"Duration":292312,"SoundDuration":292312,"Delta":112545848},{"NoteNumber":54,"Velocity":49,"Duration":438468,"SoundDuration":438468,"Delta":112692004},{"NoteNumber":62,"Velocity":52,"Duration":146155,"SoundDuration":146155,"Delta":112838160},{"NoteNumber":72,"Velocity":67,"Duration":292311,"SoundDuration":292311,"Delta":112838160},{"NoteNumber":57,"Velocity":49,"Duration":292311,"SoundDuration":292311,"Delta":112838160},{"NoteNumber":69,"Velocity":48,"Duration":146156,"SoundDuration":146156,"Delta":112984316},{"NoteNumber":71,"Velocity":67,"Duration":584624,"SoundDuration":584624,"Delta":113130472},{"NoteNumber":53,"Velocity":41,"Duration":438468,"SoundDuration":438468,"Delta":113276628},{"NoteNumber":55,"Velocity":48,"Duration":292312,"SoundDuration":292312,"Delta":113422784},{"NoteNumber":62,"Velocity":40,"Duration":146156,"SoundDuration":146156,"Delta":113568940},{"NoteNumber":67,"Velocity":40,"Duration":146156,"SoundDuration":146156,"Delta":113568940},{"NoteNumber":67,"Velocity":62,"Duration":590819,"SoundDuration":590819,"Delta":113715096},{"NoteNumber":52,"Velocity":44,"Duration":444663,"SoundDuration":444663,"Delta":113861252},{"NoteNumber":55,"Velocity":44,"Duration":298507,"SoundDuration":298507,"Delta":114007408},{"NoteNumber":61,"Velocity":42,"Duration":149253,"SoundDuration":149253,"Delta":114156662},{"NoteNumber":66,"Velocity":61,"Duration":295246,"SoundDuration":295246,"Delta":114305916},{"NoteNumber":51,"Velocity":37,"Duration":456360,"SoundDuration":456360,"Delta":114453539},{"NoteNumber":67,"Velocity":58,"Duration":308737,"SoundDuration":308737,"Delta":114601162},{"NoteNumber":55,"Velocity":42,"Duration":308737,"SoundDuration":308737,"Delta":114601162},{"NoteNumber":61,"Velocity":36,"Duration":154368,"SoundDuration":154368,"Delta":114755531},{"NoteNumber":71,"Velocity":62,"Duration":593706,"SoundDuration":593706,"Delta":114909900},{"NoteNumber":50,"Velocity":44,"Duration":445280,"SoundDuration":445280,"Delta":115058327},{"NoteNumber":55,"Velocity":44,"Duration":296853,"SoundDuration":296853,"Delta":115206753},{"NoteNumber":62,"Velocity":42,"Duration":148426,"SoundDuration":148426,"Delta":115355180},{"NoteNumber":69,"Velocity":59,"Duration":603821,"SoundDuration":603821,"Delta":115503607},{"NoteNumber":50,"Velocity":37,"Duration":455394,"SoundDuration":455394,"Delta":115652034},{"NoteNumber":54,"Velocity":42,"Duration":306967,"SoundDuration":306967,"Delta":115800460},{"NoteNumber":62,"Velocity":36,"Duration":153483,"SoundDuration":153483,"Delta":115953944},{"NoteNumber":63,"Velocity":56,"Duration":445280,"SoundDuration":445280,"Delta":116107428},{"NoteNumber":55,"Velocity":37,"Duration":445280,"SoundDuration":445280,"Delta":116255855},{"NoteNumber":57,"Velocity":42,"Duration":296853,"SoundDuration":296853,"Delta":116404282},{"NoteNumber":60,"Velocity":36,"Duration":148426,"SoundDuration":148426,"Delta":116552709},{"NoteNumber":62,"Velocity":52,"Duration":296853,"SoundDuration":296853,"Delta":116701135},{"NoteNumber":54,"Velocity":35,"Duration":148426,"SoundDuration":148426,"Delta":116849562},{"NoteNumber":57,"Velocity":38,"Duration":155263,"SoundDuration":155263,"Delta":116997989},{"NoteNumber":62,"Velocity":35,"Duration":155263,"SoundDuration":155263,"Delta":117153252},{"NoteNumber":51,"Velocity":56,"Duration":447761,"SoundDuration":447761,"Delta":117308516},{"NoteNumber":43,"Velocity":37,"Duration":447761,"SoundDuration":447761,"Delta":117457770},{"NoteNumber":45,"Velocity":42,"Duration":298507,"SoundDuration":298507,"Delta":117607023},{"NoteNumber":48,"Velocity":35,"Duration":149253,"SoundDuration":149253,"Delta":117756277},{"NoteNumber":50,"Velocity":53,"Duration":298507,"SoundDuration":298507,"Delta":117905531},{"NoteNumber":42,"Velocity":35,"Duration":149253,"SoundDuration":149253,"Delta":118054785},{"NoteNumber":45,"Velocity":38,"Duration":149253,"SoundDuration":149253,"Delta":118204038},{"NoteNumber":50,"Velocity":35,"Duration":148978,"SoundDuration":148978,"Delta":118353292},{"NoteNumber":53,"Velocity":42,"Duration":148978,"SoundDuration":148978,"Delta":118502270},{"NoteNumber":54,"Velocity":40,"Duration":150648,"SoundDuration":150648,"Delta":118651248},{"NoteNumber":56,"Velocity":42,"Duration":152352,"SoundDuration":152352,"Delta":118801897},{"NoteNumber":57,"Velocity":38,"Duration":154073,"SoundDuration":154073,"Delta":118954250},{"NoteNumber":61,"Velocity":47,"Duration":156677,"SoundDuration":156677,"Delta":119108323},{"NoteNumber":62,"Velocity":40,"Duration":163408,"SoundDuration":163408,"Delta":119265001},{"NoteNumber":66,"Velocity":45,"Duration":170813,"SoundDuration":170813,"Delta":119428409},{"NoteNumber":69,"Velocity":40,"Duration":178927,"SoundDuration":178927,"Delta":119599223},{"NoteNumber":50,"Velocity":33,"Duration":1407986,"SoundDuration":1407986,"Delta":120317110},{"NoteNumber":57,"Velocity":37,"Duration":1341791,"SoundDuration":1341791,"Delta":120383304},{"NoteNumber":62,"Velocity":40,"Duration":1278573,"SoundDuration":1278573,"Delta":120446523},{"NoteNumber":66,"Velocity":45,"Duration":1218719,"SoundDuration":1218719,"Delta":120506377},{"NoteNumber":74,"Velocity":53,"Duration":697674,"SoundDuration":697674,"Delta":120558904},{"NoteNumber":71,"Velocity":51,"Duration":468517,"SoundDuration":468517,"Delta":121256578},{"NoteNumber":52,"Velocity":31,"Duration":1110985,"SoundDuration":1110985,"Delta":121534356},{"NoteNumber":55,"Velocity":36,"Duration":1061508,"SoundDuration":1061508,"Delta":121583833},{"NoteNumber":62,"Velocity":37,"Duration":1013385,"SoundDuration":1013385,"Delta":121631956},{"NoteNumber":67,"Velocity":39,"Duration":966624,"SoundDuration":966624,"Delta":121678717},{"NoteNumber":71,"Velocity":55,"Duration":920244,"SoundDuration":920244,"Delta":121725096},{"NoteNumber":54,"Velocity":36,"Duration":1372555,"SoundDuration":1372555,"Delta":122645341},{"NoteNumber":57,"Velocity":44,"Duration":1317149,"SoundDuration":1317149,"Delta":122700748},{"NoteNumber":62,"Velocity":40,"Duration":1264243,"SoundDuration":1264243,"Delta":122753653},{"NoteNumber":69,"Velocity":42,"Duration":1213763,"SoundDuration":1213763,"Delta":122804133},{"NoteNumber":74,"Velocity":53,"Duration":701753,"SoundDuration":701753,"Delta":122852403},{"NoteNumber":71,"Velocity":53,"Duration":463740,"SoundDuration":463740,"Delta":123554157},{"NoteNumber":55,"Velocity":33,"Duration":1231476,"SoundDuration":1231476,"Delta":123826884},{"NoteNumber":59,"Velocity":36,"Duration":1182710,"SoundDuration":1182710,"Delta":123875650},{"NoteNumber":62,"Velocity":36,"Duration":1134611,"SoundDuration":1134611,"Delta":123923748},{"NoteNumber":67,"Velocity":39,"Duration":1087202,"SoundDuration":1087202,"Delta":123971158},{"NoteNumber":71,"Velocity":52,"Duration":1040463,"SoundDuration":1040463,"Delta":124017897},{"NoteNumber":66,"Velocity":52,"Duration":1084337,"SoundDuration":1084337,"Delta":125058360},{"NoteNumber":76,"Velocity":63,"Duration":722892,"SoundDuration":722892,"Delta":125058360},{"NoteNumber":60,"Velocity":47,"Duration":1084337,"SoundDuration":1084337,"Delta":125058360},{"NoteNumber":57,"Velocity":41,"Duration":1084337,"SoundDuration":1084337,"Delta":125058360},{"NoteNumber":74,"Velocity":60,"Duration":361445,"SoundDuration":361445,"Delta":125781252},{"NoteNumber":74,"Velocity":59,"Duration":1084338,"SoundDuration":1084338,"Delta":126142698},{"NoteNumber":67,"Velocity":52,"Duration":1084338,"SoundDuration":1084338,"Delta":126142698},{"NoteNumber":62,"Velocity":46,"Duration":1084338,"SoundDuration":1084338,"Delta":126142698},{"NoteNumber":59,"Velocity":41,"Duration":1084338,"SoundDuration":1084338,"Delta":126142698},{"NoteNumber":70,"Velocity":52,"Duration":1065390,"SoundDuration":1065390,"Delta":127227036},{"NoteNumber":79,"Velocity":66,"Duration":350876,"SoundDuration":350876,"Delta":127227036},{"NoteNumber":64,"Velocity":48,"Duration":1065390,"SoundDuration":1065390,"Delta":127227036},{"NoteNumber":61,"Velocity":42,"Duration":1065390,"SoundDuration":1065390,"Delta":127227036},{"NoteNumber":78,"Velocity":60,"Duration":350876,"SoundDuration":350876,"Delta":127577913},{"NoteNumber":76,"Velocity":57,"Duration":363636,"SoundDuration":363636,"Delta":127928790},{"NoteNumber":69,"Velocity":48,"Duration":1090909,"SoundDuration":1090909,"Delta":128292426},{"NoteNumber":62,"Velocity":51,"Duration":1090909,"SoundDuration":1090909,"Delta":128292426},{"NoteNumber":67,"Velocity":51,"Duration":363636,"SoundDuration":363636,"Delta":128292426},{"NoteNumber":66,"Velocity":50,"Duration":363636,"SoundDuration":363636,"Delta":128656063},{"NoteNumber":64,"Velocity":49,"Duration":363636,"SoundDuration":363636,"Delta":129019699},{"NoteNumber":74,"Velocity":60,"Duration":363636,"SoundDuration":363636,"Delta":129383336},{"NoteNumber":66,"Velocity":48,"Duration":1102272,"SoundDuration":1102272,"Delta":129383336},{"NoteNumber":50,"Velocity":42,"Duration":1102272,"SoundDuration":1102272,"Delta":129383336},{"NoteNumber":57,"Velocity":48,"Duration":1102272,"SoundDuration":1102272,"Delta":129383336},{"NoteNumber":69,"Velocity":56,"Duration":363636,"SoundDuration":363636,"Delta":129746972},{"NoteNumber":72,"Velocity":58,"Duration":375000,"SoundDuration":375000,"Delta":130110609},{"NoteNumber":72,"Velocity":57,"Duration":727272,"SoundDuration":727272,"Delta":130485609},{"NoteNumber":66,"Velocity":50,"Duration":727272,"SoundDuration":727272,"Delta":130485609},{"NoteNumber":51,"Velocity":39,"Duration":727272,"SoundDuration":727272,"Delta":130485609},{"NoteNumber":57,"Velocity":45,"Duration":727272,"SoundDuration":727272,"Delta":130485609},{"NoteNumber":67,"Velocity":49,"Duration":363636,"SoundDuration":363636,"Delta":131212882},{"NoteNumber":71,"Velocity":55,"Duration":363636,"SoundDuration":363636,"Delta":131212882},{"NoteNumber":52,"Velocity":34,"Duration":363636,"SoundDuration":363636,"Delta":131212882},{"NoteNumber":55,"Velocity":38,"Duration":363636,"SoundDuration":363636,"Delta":131212882},{"NoteNumber":64,"Velocity":52,"Duration":359281,"SoundDuration":359281,"Delta":131576518},{"NoteNumber":69,"Velocity":52,"Duration":1086660,"SoundDuration":1086660,"Delta":131576518},{"NoteNumber":49,"Velocity":33,"Duration":1086660,"SoundDuration":1086660,"Delta":131576518},{"NoteNumber":57,"Velocity":51,"Duration":359281,"SoundDuration":359281,"Delta":131935800},{"NoteNumber":64,"Velocity":53,"Duration":368098,"SoundDuration":368098,"Delta":132295081},{"NoteNumber":55,"Velocity":40,"Duration":368098,"SoundDuration":368098,"Delta":132295081},{"NoteNumber":69,"Velocity":55,"Duration":1204945,"SoundDuration":1204945,"Delta":132663179},{"NoteNumber":64,"Velocity":55,"Duration":770782,"SoundDuration":770782,"Delta":132663179},{"NoteNumber":50,"Velocity":39,"Duration":1204945,"SoundDuration":1204945,"Delta":132663179},{"NoteNumber":55,"Velocity":45,"Duration":770782,"SoundDuration":770782,"Delta":132663179},{"NoteNumber":62,"Velocity":53,"Duration":201342,"SoundDuration":201342,"Delta":133433962},{"NoteNumber":54,"Velocity":40,"Duration":201342,"SoundDuration":201342,"Delta":133433962},{"NoteNumber":50,"Velocity":33,"Duration":1383183,"SoundDuration":1383183,"Delta":133635304},{"NoteNumber":57,"Velocity":37,"Duration":1321024,"SoundDuration":1321024,"Delta":133697463},{"NoteNumber":62,"Velocity":40,"Duration":1260533,"SoundDuration":1260533,"Delta":133757954},{"NoteNumber":66,"Velocity":45,"Duration":1202386,"SoundDuration":1202386,"Delta":133816101},{"NoteNumber":74,"Velocity":55,"Duration":697674,"SoundDuration":697674,"Delta":133868125},{"NoteNumber":71,"Velocity":51,"Duration":452688,"SoundDuration":452688,"Delta":134565799},{"NoteNumber":52,"Velocity":31,"Duration":1122933,"SoundDuration":1122933,"Delta":134815799},{"NoteNumber":55,"Velocity":36,"Duration":1068889,"SoundDuration":1068889,"Delta":134869843},{"NoteNumber":62,"Velocity":37,"Duration":1017080,"SoundDuration":1017080,"Delta":134921652},{"NoteNumber":67,"Velocity":39,"Duration":967600,"SoundDuration":967600,"Delta":134971133},{"NoteNumber":71,"Velocity":52,"Duration":920244,"SoundDuration":920244,"Delta":135018488},{"NoteNumber":54,"Velocity":36,"Duration":1355406,"SoundDuration":1355406,"Delta":135938733},{"NoteNumber":57,"Velocity":44,"Duration":1299999,"SoundDuration":1299999,"Delta":135994139},{"NoteNumber":62,"Velocity":40,"Duration":1247094,"SoundDuration":1247094,"Delta":136047045},{"NoteNumber":69,"Velocity":42,"Duration":1196614,"SoundDuration":1196614,"Delta":136097525},{"NoteNumber":74,"Velocity":53,"Duration":701753,"SoundDuration":701753,"Delta":136145794},{"NoteNumber":71,"Velocity":53,"Duration":446590,"SoundDuration":446590,"Delta":136847548},{"NoteNumber":55,"Velocity":33,"Duration":1243151,"SoundDuration":1243151,"Delta":137091451},{"NoteNumber":59,"Velocity":36,"Duration":1189107,"SoundDuration":1189107,"Delta":137145494},{"NoteNumber":62,"Velocity":36,"Duration":1137298,"SoundDuration":1137298,"Delta":137197303},{"NoteNumber":67,"Velocity":39,"Duration":1087818,"SoundDuration":1087818,"Delta":137246784},{"NoteNumber":71,"Velocity":50,"Duration":1040462,"SoundDuration":1040462,"Delta":137294139},{"NoteNumber":66,"Velocity":52,"Duration":1084338,"SoundDuration":1084338,"Delta":138334602},{"NoteNumber":76,"Velocity":63,"Duration":722892,"SoundDuration":722892,"Delta":138334602},{"NoteNumber":60,"Velocity":47,"Duration":1084338,"SoundDuration":1084338,"Delta":138334602},{"NoteNumber":57,"Velocity":41,"Duration":1084338,"SoundDuration":1084338,"Delta":138334602},{"NoteNumber":74,"Velocity":60,"Duration":361446,"SoundDuration":361446,"Delta":139057494},{"NoteNumber":74,"Velocity":62,"Duration":1084338,"SoundDuration":1084338,"Delta":139418940},{"NoteNumber":67,"Velocity":53,"Duration":1084338,"SoundDuration":1084338,"Delta":139418940},{"NoteNumber":62,"Velocity":49,"Duration":1084338,"SoundDuration":1084338,"Delta":139418940},{"NoteNumber":59,"Velocity":44,"Duration":1084338,"SoundDuration":1084338,"Delta":139418940},{"NoteNumber":70,"Velocity":52,"Duration":1065390,"SoundDuration":1065390,"Delta":140503278},{"NoteNumber":79,"Velocity":66,"Duration":350876,"SoundDuration":350876,"Delta":140503278},{"NoteNumber":64,"Velocity":51,"Duration":1065390,"SoundDuration":1065390,"Delta":140503278},{"NoteNumber":61,"Velocity":40,"Duration":1065390,"SoundDuration":1065390,"Delta":140503278},{"NoteNumber":76,"Velocity":61,"Duration":350876,"SoundDuration":350876,"Delta":140854155},{"NoteNumber":79,"Velocity":62,"Duration":363636,"SoundDuration":363636,"Delta":141205032},{"NoteNumber":71,"Velocity":58,"Duration":1090909,"SoundDuration":1090909,"Delta":141568668},{"NoteNumber":78,"Velocity":62,"Duration":727272,"SoundDuration":727272,"Delta":141568668},{"NoteNumber":62,"Velocity":44,"Duration":1090909,"SoundDuration":1090909,"Delta":141568668},{"NoteNumber":66,"Velocity":49,"Duration":1090909,"SoundDuration":1090909,"Delta":141568668},{"NoteNumber":78,"Velocity":56,"Duration":363636,"SoundDuration":363636,"Delta":142295941},{"NoteNumber":83,"Velocity":62,"Duration":352940,"SoundDuration":352940,"Delta":142659578},{"NoteNumber":73,"Velocity":53,"Duration":1080882,"SoundDuration":1080882,"Delta":142659578},{"NoteNumber":64,"Velocity":41,"Duration":1080882,"SoundDuration":1080882,"Delta":142659578},{"NoteNumber":67,"Velocity":47,"Duration":1080882,"SoundDuration":1080882,"Delta":142659578},{"NoteNumber":79,"Velocity":60,"Duration":352941,"SoundDuration":352941,"Delta":143012519},{"NoteNumber":83,"Velocity":57,"Duration":375000,"SoundDuration":375000,"Delta":143365460},{"NoteNumber":74,"Velocity":51,"Duration":1090909,"SoundDuration":1090909,"Delta":143740460},{"NoteNumber":81,"Velocity":61,"Duration":727272,"SoundDuration":727272,"Delta":143740460},{"NoteNumber":66,"Velocity":41,"Duration":1090909,"SoundDuration":1090909,"Delta":143740460},{"NoteNumber":69,"Velocity":47,"Duration":1090909,"SoundDuration":1090909,"Delta":143740460},{"NoteNumber":81,"Velocity":55,"Duration":363636,"SoundDuration":363636,"Delta":144467733},{"NoteNumber":74,"Velocity":49,"Duration":1090909,"SoundDuration":1090909,"Delta":144831369},{"NoteNumber":86,"Velocity":55,"Duration":363636,"SoundDuration":363636,"Delta":144831369},{"NoteNumber":66,"Velocity":34,"Duration":1090909,"SoundDuration":1090909,"Delta":144831369},{"NoteNumber":69,"Velocity":39,"Duration":1090909,"SoundDuration":1090909,"Delta":144831369},{"NoteNumber":81,"Velocity":53,"Duration":363636,"SoundDuration":363636,"Delta":145195006},{"NoteNumber":86,"Velocity":53,"Duration":363636,"SoundDuration":363636,"Delta":145558642},{"NoteNumber":86,"Velocity":57,"Duration":1090909,"SoundDuration":1090909,"Delta":145922279},{"NoteNumber":81,"Velocity":50,"Duration":1090909,"SoundDuration":1090909,"Delta":145922279},{"NoteNumber":66,"Velocity":26,"Duration":4075711,"SoundDuration":4075711,"Delta":145922279},{"NoteNumber":74,"Velocity":44,"Duration":363636,"SoundDuration":363636,"Delta":145922279},{"NoteNumber":69,"Velocity":41,"Duration":3712075,"SoundDuration":3712075,"Delta":146285915},{"NoteNumber":74,"Velocity":41,"Duration":363636,"SoundDuration":363636,"Delta":146649552},{"NoteNumber":74,"Velocity":48,"Duration":2984802,"SoundDuration":2984802,"Delta":147013188},{"NoteNumber":81,"Velocity":39,"Duration":363636,"SoundDuration":363636,"Delta":147376825},{"NoteNumber":86,"Velocity":39,"Duration":363636,"SoundDuration":363636,"Delta":147740461},{"NoteNumber":93,"Velocity":44,"Duration":366241,"SoundDuration":366241,"Delta":148104098},{"NoteNumber":86,"Velocity":42,"Duration":1527651,"SoundDuration":1527651,"Delta":148470339},{"NoteNumber":93,"Velocity":42,"Duration":1152626,"SoundDuration":1152626,"Delta":148845364},{"NoteNumber":98,"Velocity":44,"Duration":769231,"SoundDuration":769231,"Delta":149228759},{"NoteNumber":74,"Velocity":57,"Duration":3167456,"SoundDuration":3167456,"Delta":150382606},{"NoteNumber":86,"Velocity":57,"Duration":344827,"SoundDuration":344827,"Delta":150382606},{"NoteNumber":70,"Velocity":44,"Duration":3167456,"SoundDuration":3167456,"Delta":150382606},{"NoteNumber":65,"Velocity":44,"Duration":3167456,"SoundDuration":3167456,"Delta":150382606},{"NoteNumber":82,"Velocity":55,"Duration":348837,"SoundDuration":348837,"Delta":150727433},{"NoteNumber":79,"Velocity":52,"Duration":355029,"SoundDuration":355029,"Delta":151076270},{"NoteNumber":77,"Velocity":53,"Duration":338983,"SoundDuration":338983,"Delta":151431300},{"NoteNumber":81,"Velocity":49,"Duration":348837,"SoundDuration":348837,"Delta":151770283},{"NoteNumber":79,"Velocity":49,"Duration":365853,"SoundDuration":365853,"Delta":152119120},{"NoteNumber":77,"Velocity":52,"Duration":1065088,"SoundDuration":1065088,"Delta":152484973},{"NoteNumber":74,"Velocity":55,"Duration":168539,"SoundDuration":168539,"Delta":153887140},{"NoteNumber":72,"Velocity":51,"Duration":168539,"SoundDuration":168539,"Delta":154224219},{"NoteNumber":70,"Velocity":55,"Duration":168539,"SoundDuration":168539,"Delta":154561297},{"NoteNumber":67,"Velocity":51,"Duration":168539,"SoundDuration":168539,"Delta":154898376},{"NoteNumber":65,"Velocity":50,"Duration":167597,"SoundDuration":167597,"Delta":155235454},{"NoteNumber":62,"Velocity":51,"Duration":169972,"SoundDuration":169972,"Delta":155570650},{"NoteNumber":58,"Velocity":46,"Duration":173914,"SoundDuration":173914,"Delta":155912544},{"NoteNumber":55,"Velocity":45,"Duration":177514,"SoundDuration":177514,"Delta":156262413},{"NoteNumber":62,"Velocity":57,"Duration":3167456,"SoundDuration":3167456,"Delta":156620651},{"NoteNumber":74,"Velocity":57,"Duration":344827,"SoundDuration":344827,"Delta":156620651},{"NoteNumber":58,"Velocity":44,"Duration":3167456,"SoundDuration":3167456,"Delta":156620651},{"NoteNumber":53,"Velocity":44,"Duration":3167456,"SoundDuration":3167456,"Delta":156620651},{"NoteNumber":70,"Velocity":55,"Duration":348837,"SoundDuration":348837,"Delta":156965478},{"NoteNumber":67,"Velocity":52,"Duration":355029,"SoundDuration":355029,"Delta":157314315},{"NoteNumber":65,"Velocity":53,"Duration":338983,"SoundDuration":338983,"Delta":157669345},{"NoteNumber":69,"Velocity":49,"Duration":348837,"SoundDuration":348837,"Delta":158008328},{"NoteNumber":67,"Velocity":49,"Duration":365853,"SoundDuration":365853,"Delta":158357165},{"NoteNumber":65,"Velocity":51,"Duration":1065088,"SoundDuration":1065088,"Delta":158723018},{"NoteNumber":62,"Velocity":55,"Duration":167597,"SoundDuration":167597,"Delta":160123302},{"NoteNumber":60,"Velocity":51,"Duration":167597,"SoundDuration":167597,"Delta":160458498},{"NoteNumber":58,"Velocity":55,"Duration":167597,"SoundDuration":167597,"Delta":160793693},{"NoteNumber":55,"Velocity":51,"Duration":167597,"SoundDuration":167597,"Delta":161128889},{"NoteNumber":53,"Velocity":50,"Duration":167597,"SoundDuration":167597,"Delta":161464084},{"NoteNumber":50,"Velocity":51,"Duration":169972,"SoundDuration":169972,"Delta":161799280},{"NoteNumber":46,"Velocity":46,"Duration":173914,"SoundDuration":173914,"Delta":162141174},{"NoteNumber":43,"Velocity":45,"Duration":177514,"SoundDuration":177514,"Delta":162491043},{"NoteNumber":57,"Velocity":55,"Duration":1088745,"SoundDuration":1088745,"Delta":162868558},{"NoteNumber":62,"Velocity":55,"Duration":722892,"SoundDuration":722892,"Delta":162868558},{"NoteNumber":42,"Velocity":44,"Duration":1088745,"SoundDuration":1088745,"Delta":162868558},{"NoteNumber":50,"Velocity":44,"Duration":2173083,"SoundDuration":2173083,"Delta":162868558},{"NoteNumber":59,"Velocity":51,"Duration":365853,"SoundDuration":365853,"Delta":163591450},{"NoteNumber":55,"Velocity":48,"Duration":1084338,"SoundDuration":1084338,"Delta":163957303},{"NoteNumber":59,"Velocity":48,"Duration":1084338,"SoundDuration":1084338,"Delta":163957303},{"NoteNumber":40,"Velocity":44,"Duration":1084338,"SoundDuration":1084338,"Delta":163957303},{"NoteNumber":57,"Velocity":51,"Duration":1090990,"SoundDuration":1090990,"Delta":165041641},{"NoteNumber":62,"Velocity":51,"Duration":722892,"SoundDuration":722892,"Delta":165041641},{"NoteNumber":42,"Velocity":44,"Duration":1090990,"SoundDuration":1090990,"Delta":165041641},{"NoteNumber":50,"Velocity":44,"Duration":2131452,"SoundDuration":2131452,"Delta":165052183},{"NoteNumber":59,"Velocity":51,"Duration":368098,"SoundDuration":368098,"Delta":165764533},{"NoteNumber":55,"Velocity":41,"Duration":1085643,"SoundDuration":1085643,"Delta":166132631},{"NoteNumber":59,"Velocity":46,"Duration":1040462,"SoundDuration":1040462,"Delta":166132631},{"NoteNumber":43,"Velocity":44,"Duration":1040462,"SoundDuration":1040462,"Delta":166132631},{"NoteNumber":54,"Velocity":50,"Duration":1084338,"SoundDuration":1084338,"Delta":167173094},{"NoteNumber":64,"Velocity":57,"Duration":722892,"SoundDuration":722892,"Delta":167173094},{"NoteNumber":48,"Velocity":47,"Duration":1084338,"SoundDuration":1084338,"Delta":167173094},{"NoteNumber":45,"Velocity":41,"Duration":1084338,"SoundDuration":1084338,"Delta":167173094},{"NoteNumber":62,"Velocity":53,"Duration":361446,"SoundDuration":361446,"Delta":167895986},{"NoteNumber":62,"Velocity":59,"Duration":1084338,"SoundDuration":1084338,"Delta":168257432},{"NoteNumber":55,"Velocity":53,"Duration":1084338,"SoundDuration":1084338,"Delta":168257432},{"NoteNumber":50,"Velocity":49,"Duration":1084338,"SoundDuration":1084338,"Delta":168257432},{"NoteNumber":47,"Velocity":44,"Duration":1084338,"SoundDuration":1084338,"Delta":168257432},{"NoteNumber":58,"Velocity":52,"Duration":1065390,"SoundDuration":1065390,"Delta":169341770},{"NoteNumber":67,"Velocity":59,"Duration":350876,"SoundDuration":350876,"Delta":169341770},{"NoteNumber":52,"Velocity":51,"Duration":1065390,"SoundDuration":1065390,"Delta":169341770},{"NoteNumber":49,"Velocity":46,"Duration":1065390,"SoundDuration":1065390,"Delta":169341770},{"NoteNumber":66,"Velocity":57,"Duration":350876,"SoundDuration":350876,"Delta":169692647},{"NoteNumber":64,"Velocity":56,"Duration":363636,"SoundDuration":363636,"Delta":170043524},{"NoteNumber":57,"Velocity":53,"Duration":1454545,"SoundDuration":1454545,"Delta":170407161},{"NoteNumber":50,"Velocity":46,"Duration":1454545,"SoundDuration":1454545,"Delta":170407161},{"NoteNumber":55,"Velocity":46,"Duration":363636,"SoundDuration":363636,"Delta":170407161},{"NoteNumber":54,"Velocity":45,"Duration":363636,"SoundDuration":363636,"Delta":170770797},{"NoteNumber":52,"Velocity":44,"Duration":363636,"SoundDuration":363636,"Delta":171134434},{"NoteNumber":54,"Velocity":42,"Duration":363636,"SoundDuration":363636,"Delta":171498070},{"NoteNumber":59,"Velocity":47,"Duration":370370,"SoundDuration":370370,"Delta":171861707},{"NoteNumber":60,"Velocity":49,"Duration":387097,"SoundDuration":387097,"Delta":172232077},{"NoteNumber":60,"Velocity":51,"Duration":727272,"SoundDuration":727272,"Delta":172619174},{"NoteNumber":59,"Velocity":49,"Duration":375000,"SoundDuration":375000,"Delta":173346447},{"NoteNumber":59,"Velocity":49,"Duration":2209338,"SoundDuration":2209338,"Delta":173721447},{"NoteNumber":51,"Velocity":37,"Duration":1125000,"SoundDuration":1125000,"Delta":173721447},{"NoteNumber":54,"Velocity":37,"Duration":1125000,"SoundDuration":1125000,"Delta":173721447},{"NoteNumber":57,"Velocity":41,"Duration":1125000,"SoundDuration":1125000,"Delta":173721447},{"NoteNumber":52,"Velocity":33,"Duration":361446,"SoundDuration":361446,"Delta":174846447},{"NoteNumber":55,"Velocity":37,"Duration":361446,"SoundDuration":361446,"Delta":174846447},{"NoteNumber":59,"Velocity":45,"Duration":727272,"SoundDuration":727272,"Delta":175930785},{"NoteNumber":57,"Velocity":42,"Duration":375000,"SoundDuration":375000,"Delta":176658058},{"NoteNumber":57,"Velocity":41,"Duration":2215909,"SoundDuration":2215909,"Delta":177033058},{"NoteNumber":49,"Velocity":29,"Duration":1125000,"SoundDuration":1125000,"Delta":177033058},{"NoteNumber":52,"Velocity":29,"Duration":1125000,"SoundDuration":1125000,"Delta":177033058},{"NoteNumber":55,"Velocity":34,"Duration":1125000,"SoundDuration":1125000,"Delta":177033058},{"NoteNumber":50,"Velocity":26,"Duration":363636,"SoundDuration":363636,"Delta":178158058},{"NoteNumber":54,"Velocity":29,"Duration":363636,"SoundDuration":363636,"Delta":178158058},{"NoteNumber":57,"Velocity":39,"Duration":372670,"SoundDuration":372670,"Delta":179248968},{"NoteNumber":59,"Velocity":36,"Duration":372670,"SoundDuration":372670,"Delta":179621639},{"NoteNumber":60,"Velocity":36,"Duration":392156,"SoundDuration":392156,"Delta":179994310},{"NoteNumber":54,"Velocity":34,"Duration":2720286,"SoundDuration":2720286,"Delta":180386467},{"NoteNumber":60,"Velocity":38,"Duration":2159538,"SoundDuration":2159538,"Delta":180386467},{"NoteNumber":51,"Velocity":31,"Duration":2720286,"SoundDuration":2720286,"Delta":180386467},{"NoteNumber":43,"Velocity":27,"Duration":3176996,"SoundDuration":3176996,"Delta":181611999},{"NoteNumber":59,"Velocity":34,"Duration":560747,"SoundDuration":560747,"Delta":182546005},{"NoteNumber":55,"Velocity":29,"Duration":5046727,"SoundDuration":5046727,"Delta":183106753},{"NoteNumber":59,"Velocity":34,"Duration":5046727,"SoundDuration":5046727,"Delta":183106753},{"NoteNumber":50,"Velocity":29,"Duration":5046727,"SoundDuration":5046727,"Delta":183106753},{"NoteNumber":43,"Velocity":26,"Duration":1682242,"SoundDuration":1682242,"Delta":184788995},{"NoteNumber":43,"Velocity":26,"Duration":5046727,"SoundDuration":5046727,"Delta":186471238},{"NoteNumber":55,"Velocity":24,"Duration":3364485,"SoundDuration":3364485,"Delta":188153480},{"NoteNumber":59,"Velocity":25,"Duration":3364485,"SoundDuration":3364485,"Delta":188153480},{"NoteNumber":50,"Velocity":21,"Duration":3364485,"SoundDuration":3364485,"Delta":188153480}],"license":{"name":"Creative Commons Attribution-ShareAlike 3.0 Germany","url":"http://creativecommons.org/licenses/by-sa/3.0/de/deed.en","text":"The MIDI files in this folder were downloaded from http://www.piano-midi.de and are licensed under the Creative Commons Attribution-ShareAlike 3.0 Germany license by Bernd Krueger.\n\nThe MIDI, audio(MP3, OGG) and video files of Bernd Krueger are licensed under the cc-by-sa Germany License . This means, that you can use and adapt the files, as long as you attribute to the copyright holder Name: Bernd Krueger Source: http://www.piano-midi.de The distribution or public playback of the files is only allowed under identical license conditions . The scores are open source.","attribution":"Bernd Krueger","attributionUrl":"http://www.piano-midi.de"}}