{"title":"The Seasons, Op. 37a: November (Troika)","artist":"Tchaikovsky","durationMs":175393,"midiSha256":"1961c41788782f3d7c09d68344018d73b954ba5eb7f7208a15d6a831f54f9cef","midiObject":[{"NoteNumber":73,"Velocity":68,"Duration":309438,"SoundDuration":309438,"Delta":0},{"NoteNumber":61,"Velocity":53,"Duration":309438,"SoundDuration":309438,"Delta":0},{"NoteNumber":71,"Velocity":62,"Duration":319931,"SoundDuration":319931,"Delta":309438},{"NoteNumber":59,"Velocity":49,"Duration":319931,"SoundDuration":319931,"Delta":309438},{"NoteNumber":76,"Velocity":63,"Duration":1251472,"SoundDuration":1251472,"Delta":629369},{"NoteNumber":64,"Velocity":50,"Duration":1251472,"SoundDuration":1251472,"Delta":629369},{"NoteNumber":68,"Velocity":44,"Duration":629195,"SoundDuration":629195,"Delta":1251647},{"NoteNumber":71,"Velocity":44,"Duration":629195,"SoundDuration":629195,"Delta":1251647},{"NoteNumber":59,"Velocity":37,"Duration":629195,"SoundDuration":629195,"Delta":1251647},{"NoteNumber":52,"Velocity":37,"Duration":629195,"SoundDuration":629195,"Delta":1251647},{"NoteNumber":80,"Velocity":67,"Duration":309438,"SoundDuration":309438,"Delta":1880842},{"NoteNumber":68,"Velocity":52,"Duration":309438,"SoundDuration":309438,"Delta":1880842},{"NoteNumber":83,"Velocity":63,"Duration":309438,"SoundDuration":309438,"Delta":2190280},{"NoteNumber":71,"Velocity":50,"Duration":309438,"SoundDuration":309438,"Delta":2190280},{"NoteNumber":85,"Velocity":69,"Duration":309438,"SoundDuration":309438,"Delta":2499718},{"NoteNumber":73,"Velocity":55,"Duration":309438,"SoundDuration":309438,"Delta":2499718},{"NoteNumber":83,"Velocity":62,"Duration":327332,"SoundDuration":327332,"Delta":2809156},{"NoteNumber":71,"Velocity":49,"Duration":327332,"SoundDuration":327332,"Delta":2809156},{"NoteNumber":80,"Velocity":64,"Duration":1248071,"SoundDuration":1248071,"Delta":3136488},{"NoteNumber":68,"Velocity":51,"Duration":1248071,"SoundDuration":1248071,"Delta":3136488},{"NoteNumber":71,"Velocity":44,"Duration":629195,"SoundDuration":629195,"Delta":3755364},{"NoteNumber":68,"Velocity":44,"Duration":629195,"SoundDuration":629195,"Delta":3755364},{"NoteNumber":52,"Velocity":37,"Duration":629195,"SoundDuration":629195,"Delta":3755364},{"NoteNumber":59,"Velocity":37,"Duration":629195,"SoundDuration":629195,"Delta":3755364},{"NoteNumber":76,"Velocity":63,"Duration":312858,"SoundDuration":312858,"Delta":4384559},{"NoteNumber":64,"Velocity":50,"Duration":312858,"SoundDuration":312858,"Delta":4384559},{"NoteNumber":73,"Velocity":60,"Duration":312858,"SoundDuration":312858,"Delta":4697418},{"NoteNumber":61,"Velocity":48,"Duration":312858,"SoundDuration":312858,"Delta":4697418},{"NoteNumber":80,"Velocity":63,"Duration":312858,"SoundDuration":312858,"Delta":5010276},{"NoteNumber":68,"Velocity":50,"Duration":312858,"SoundDuration":312858,"Delta":5010276},{"NoteNumber":78,"Velocity":59,"Duration":321750,"SoundDuration":321750,"Delta":5323135},{"NoteNumber":66,"Velocity":47,"Duration":321750,"SoundDuration":321750,"Delta":5323135},{"NoteNumber":73,"Velocity":62,"Duration":1251472,"SoundDuration":1251472,"Delta":5644885},{"NoteNumber":61,"Velocity":49,"Duration":1251472,"SoundDuration":1251472,"Delta":5644885},{"NoteNumber":66,"Velocity":44,"Duration":629195,"SoundDuration":629195,"Delta":6267163},{"NoteNumber":69,"Velocity":44,"Duration":629195,"SoundDuration":629195,"Delta":6267163},{"NoteNumber":59,"Velocity":37,"Duration":629195,"SoundDuration":629195,"Delta":6267163},{"NoteNumber":52,"Velocity":37,"Duration":629195,"SoundDuration":629195,"Delta":6267163},{"NoteNumber":73,"Velocity":61,"Duration":309438,"SoundDuration":309438,"Delta":6896358},{"NoteNumber":61,"Velocity":48,"Duration":309438,"SoundDuration":309438,"Delta":6896358},{"NoteNumber":71,"Velocity":57,"Duration":309438,"SoundDuration":309438,"Delta":7205796},{"NoteNumber":59,"Velocity":41,"Duration":309438,"SoundDuration":309438,"Delta":7205796},{"NoteNumber":78,"Velocity":62,"Duration":314597,"SoundDuration":314597,"Delta":7515234},{"NoteNumber":66,"Velocity":47,"Duration":314597,"SoundDuration":314597,"Delta":7515234},{"NoteNumber":76,"Velocity":57,"Duration":321750,"SoundDuration":321750,"Delta":7829832},{"NoteNumber":64,"Velocity":39,"Duration":321750,"SoundDuration":321750,"Delta":7829832},{"NoteNumber":71,"Velocity":58,"Duration":1258390,"SoundDuration":1258390,"Delta":8151582},{"NoteNumber":59,"Velocity":41,"Duration":1258390,"SoundDuration":1258390,"Delta":8151582},{"NoteNumber":68,"Velocity":44,"Duration":629195,"SoundDuration":629195,"Delta":8780777},{"NoteNumber":64,"Velocity":44,"Duration":629195,"SoundDuration":629195,"Delta":8780777},{"NoteNumber":52,"Velocity":37,"Duration":629195,"SoundDuration":629195,"Delta":8780777},{"NoteNumber":56,"Velocity":37,"Duration":629195,"SoundDuration":629195,"Delta":8780777},{"NoteNumber":70,"Velocity":61,"Duration":314597,"SoundDuration":314597,"Delta":9409972},{"NoteNumber":58,"Velocity":48,"Duration":314597,"SoundDuration":314597,"Delta":9409972},{"NoteNumber":71,"Velocity":59,"Duration":314597,"SoundDuration":314597,"Delta":9724570},{"NoteNumber":59,"Velocity":47,"Duration":314597,"SoundDuration":314597,"Delta":9724570},{"NoteNumber":73,"Velocity":68,"Duration":309438,"SoundDuration":309438,"Delta":10039167},{"NoteNumber":61,"Velocity":53,"Duration":309438,"SoundDuration":309438,"Delta":10039167},{"NoteNumber":71,"Velocity":62,"Duration":319931,"SoundDuration":319931,"Delta":10348605},{"NoteNumber":59,"Velocity":49,"Duration":319931,"SoundDuration":319931,"Delta":10348605},{"NoteNumber":76,"Velocity":63,"Duration":1251472,"SoundDuration":1251472,"Delta":10668537},{"NoteNumber":64,"Velocity":50,"Duration":1251472,"SoundDuration":1251472,"Delta":10668537},{"NoteNumber":68,"Velocity":44,"Duration":629194,"SoundDuration":629194,"Delta":11290815},{"NoteNumber":71,"Velocity":44,"Duration":629194,"SoundDuration":629194,"Delta":11290815},{"NoteNumber":59,"Velocity":37,"Duration":629194,"SoundDuration":629194,"Delta":11290815},{"NoteNumber":52,"Velocity":37,"Duration":629194,"SoundDuration":629194,"Delta":11290815},{"NoteNumber":80,"Velocity":67,"Duration":309438,"SoundDuration":309438,"Delta":11920010},{"NoteNumber":68,"Velocity":52,"Duration":309438,"SoundDuration":309438,"Delta":11920010},{"NoteNumber":83,"Velocity":63,"Duration":309438,"SoundDuration":309438,"Delta":12229448},{"NoteNumber":71,"Velocity":50,"Duration":309438,"SoundDuration":309438,"Delta":12229448},{"NoteNumber":85,"Velocity":69,"Duration":309438,"SoundDuration":309438,"Delta":12538886},{"NoteNumber":73,"Velocity":55,"Duration":309438,"SoundDuration":309438,"Delta":12538886},{"NoteNumber":83,"Velocity":62,"Duration":327332,"SoundDuration":327332,"Delta":12848324},{"NoteNumber":71,"Velocity":49,"Duration":327332,"SoundDuration":327332,"Delta":12848324},{"NoteNumber":80,"Velocity":64,"Duration":1248070,"SoundDuration":1248070,"Delta":13175656},{"NoteNumber":68,"Velocity":51,"Duration":1248070,"SoundDuration":1248070,"Delta":13175656},{"NoteNumber":68,"Velocity":44,"Duration":629194,"SoundDuration":629194,"Delta":13794532},{"NoteNumber":71,"Velocity":44,"Duration":629194,"SoundDuration":629194,"Delta":13794532},{"NoteNumber":52,"Velocity":37,"Duration":629194,"SoundDuration":629194,"Delta":13794532},{"NoteNumber":59,"Velocity":37,"Duration":629194,"SoundDuration":629194,"Delta":13794532},{"NoteNumber":76,"Velocity":63,"Duration":312858,"SoundDuration":312858,"Delta":14423727},{"NoteNumber":64,"Velocity":50,"Duration":312858,"SoundDuration":312858,"Delta":14423727},{"NoteNumber":73,"Velocity":60,"Duration":312858,"SoundDuration":312858,"Delta":14736585},{"NoteNumber":61,"Velocity":48,"Duration":312858,"SoundDuration":312858,"Delta":14736585},{"NoteNumber":71,"Velocity":63,"Duration":312858,"SoundDuration":312858,"Delta":15049444},{"NoteNumber":59,"Velocity":50,"Duration":312858,"SoundDuration":312858,"Delta":15049444},{"NoteNumber":75,"Velocity":59,"Duration":327332,"SoundDuration":327332,"Delta":15362302},{"NoteNumber":63,"Velocity":47,"Duration":327332,"SoundDuration":327332,"Delta":15362302},{"NoteNumber":83,"Velocity":62,"Duration":1251473,"SoundDuration":1251473,"Delta":15689634},{"NoteNumber":71,"Velocity":49,"Duration":1251473,"SoundDuration":1251473,"Delta":15689634},{"NoteNumber":75,"Velocity":44,"Duration":629194,"SoundDuration":629194,"Delta":16311912},{"NoteNumber":71,"Velocity":44,"Duration":629194,"SoundDuration":629194,"Delta":16311912},{"NoteNumber":56,"Velocity":37,"Duration":629194,"SoundDuration":629194,"Delta":16311912},{"NoteNumber":51,"Velocity":37,"Duration":629194,"SoundDuration":629194,"Delta":16311912},{"NoteNumber":59,"Velocity":37,"Duration":629194,"SoundDuration":629194,"Delta":16311912},{"NoteNumber":82,"Velocity":61,"Duration":316355,"SoundDuration":316355,"Delta":16941107},{"NoteNumber":70,"Velocity":48,"Duration":316355,"SoundDuration":316355,"Delta":16941107},{"NoteNumber":80,"Velocity":57,"Duration":319931,"SoundDuration":319931,"Delta":17257463},{"NoteNumber":68,"Velocity":41,"Duration":319931,"SoundDuration":319931,"Delta":17257463},{"NoteNumber":76,"Velocity":57,"Duration":629194,"SoundDuration":629194,"Delta":17577394},{"NoteNumber":64,"Velocity":48,"Duration":629194,"SoundDuration":629194,"Delta":17577394},{"NoteNumber":70,"Velocity":44,"Duration":638187,"SoundDuration":638187,"Delta":18206589},{"NoteNumber":67,"Velocity":44,"Duration":638187,"SoundDuration":638187,"Delta":18206589},{"NoteNumber":75,"Velocity":57,"Duration":314597,"SoundDuration":314597,"Delta":18206589},{"NoteNumber":58,"Velocity":37,"Duration":638187,"SoundDuration":638187,"Delta":18206589},{"NoteNumber":63,"Velocity":48,"Duration":314597,"SoundDuration":314597,"Delta":18206589},{"NoteNumber":51,"Velocity":37,"Duration":638187,"SoundDuration":638187,"Delta":18206589},{"NoteNumber":73,"Velocity":53,"Duration":323589,"SoundDuration":323589,"Delta":18521187},{"NoteNumber":61,"Velocity":41,"Duration":323589,"SoundDuration":323589,"Delta":18521187},{"NoteNumber":73,"Velocity":57,"Duration":316355,"SoundDuration":316355,"Delta":18844776},{"NoteNumber":63,"Velocity":40,"Duration":665338,"SoundDuration":665338,"Delta":18844776},{"NoteNumber":68,"Velocity":40,"Duration":665338,"SoundDuration":665338,"Delta":18844776},{"NoteNumber":61,"Velocity":46,"Duration":316355,"SoundDuration":316355,"Delta":18844776},{"NoteNumber":56,"Velocity":34,"Duration":560442,"SoundDuration":560442,"Delta":18844776},{"NoteNumber":71,"Velocity":52,"Duration":348982,"SoundDuration":348982,"Delta":19161132},{"NoteNumber":59,"Velocity":39,"Duration":244087,"SoundDuration":244087,"Delta":19161132},{"NoteNumber":44,"Velocity":31,"Duration":744779,"SoundDuration":744779,"Delta":19405219},{"NoteNumber":51,"Velocity":31,"Duration":692331,"SoundDuration":692331,"Delta":19457667},{"NoteNumber":59,"Velocity":37,"Duration":639883,"SoundDuration":639883,"Delta":19510114},{"NoteNumber":70,"Velocity":52,"Duration":318133,"SoundDuration":318133,"Delta":19510114},{"NoteNumber":63,"Velocity":38,"Duration":639883,"SoundDuration":639883,"Delta":19510114},{"NoteNumber":58,"Velocity":40,"Duration":318133,"SoundDuration":318133,"Delta":19510114},{"NoteNumber":68,"Velocity":52,"Duration":321750,"SoundDuration":321750,"Delta":19828248},{"NoteNumber":56,"Velocity":37,"Duration":321750,"SoundDuration":321750,"Delta":19828248},{"NoteNumber":69,"Velocity":64,"Duration":318133,"SoundDuration":318133,"Delta":20149998},{"NoteNumber":65,"Velocity":60,"Duration":323589,"SoundDuration":323589,"Delta":20468132},{"NoteNumber":66,"Velocity":64,"Duration":955299,"SoundDuration":955299,"Delta":20791721},{"NoteNumber":42,"Velocity":39,"Duration":159066,"SoundDuration":159066,"Delta":20950788},{"NoteNumber":49,"Velocity":37,"Duration":159066,"SoundDuration":159066,"Delta":21109855},{"NoteNumber":54,"Velocity":37,"Duration":159066,"SoundDuration":159066,"Delta":21268921},{"NoteNumber":57,"Velocity":39,"Duration":159066,"SoundDuration":159066,"Delta":21427988},{"NoteNumber":61,"Velocity":39,"Duration":159965,"SoundDuration":159965,"Delta":21587055},{"NoteNumber":66,"Velocity":39,"Duration":160875,"SoundDuration":160875,"Delta":21747021},{"NoteNumber":69,"Velocity":42,"Duration":162104,"SoundDuration":162104,"Delta":21907896},{"NoteNumber":78,"Velocity":67,"Duration":316355,"SoundDuration":316355,"Delta":22070001},{"NoteNumber":76,"Velocity":63,"Duration":327331,"SoundDuration":327331,"Delta":22386356},{"NoteNumber":76,"Velocity":67,"Duration":318133,"SoundDuration":318133,"Delta":22713688},{"NoteNumber":74,"Velocity":63,"Duration":321750,"SoundDuration":321750,"Delta":23031822},{"NoteNumber":75,"Velocity":66,"Duration":1294487,"SoundDuration":1294487,"Delta":23353572},{"NoteNumber":47,"Velocity":39,"Duration":160875,"SoundDuration":160875,"Delta":23514447},{"NoteNumber":54,"Velocity":37,"Duration":160875,"SoundDuration":160875,"Delta":23675323},{"NoteNumber":57,"Velocity":37,"Duration":160875,"SoundDuration":160875,"Delta":23836198},{"NoteNumber":59,"Velocity":39,"Duration":160875,"SoundDuration":160875,"Delta":23997073},{"NoteNumber":63,"Velocity":39,"Duration":160875,"SoundDuration":160875,"Delta":24157948},{"NoteNumber":66,"Velocity":39,"Duration":164618,"SoundDuration":164618,"Delta":24318824},{"NoteNumber":69,"Velocity":42,"Duration":164618,"SoundDuration":164618,"Delta":24483442},{"NoteNumber":73,"Velocity":67,"Duration":323589,"SoundDuration":323589,"Delta":24648060},{"NoteNumber":71,"Velocity":67,"Duration":329236,"SoundDuration":329236,"Delta":24971649},{"NoteNumber":69,"Velocity":64,"Duration":319931,"SoundDuration":319931,"Delta":25300885},{"NoteNumber":65,"Velocity":60,"Duration":323589,"SoundDuration":323589,"Delta":25620817},{"NoteNumber":66,"Velocity":64,"Duration":966211,"SoundDuration":966211,"Delta":25944406},{"NoteNumber":42,"Velocity":37,"Duration":161794,"SoundDuration":161794,"Delta":26106201},{"NoteNumber":49,"Velocity":40,"Duration":161794,"SoundDuration":161794,"Delta":26267996},{"NoteNumber":54,"Velocity":44,"Duration":161794,"SoundDuration":161794,"Delta":26429790},{"NoteNumber":57,"Velocity":48,"Duration":159066,"SoundDuration":159066,"Delta":26591585},{"NoteNumber":61,"Velocity":46,"Duration":159965,"SoundDuration":159965,"Delta":26750652},{"NoteNumber":66,"Velocity":50,"Duration":160875,"SoundDuration":160875,"Delta":26910618},{"NoteNumber":69,"Velocity":55,"Duration":162104,"SoundDuration":162104,"Delta":27071493},{"NoteNumber":81,"Velocity":68,"Duration":219490,"SoundDuration":219490,"Delta":27233598},{"NoteNumber":80,"Velocity":64,"Duration":218856,"SoundDuration":218856,"Delta":27453088},{"NoteNumber":78,"Velocity":63,"Duration":218221,"SoundDuration":218221,"Delta":27671944},{"NoteNumber":76,"Velocity":68,"Duration":323589,"SoundDuration":323589,"Delta":27890166},{"NoteNumber":63,"Velocity":35,"Duration":323589,"SoundDuration":323589,"Delta":28213755},{"NoteNumber":69,"Velocity":35,"Duration":323589,"SoundDuration":323589,"Delta":28213755},{"NoteNumber":75,"Velocity":60,"Duration":323589,"SoundDuration":323589,"Delta":28213755},{"NoteNumber":47,"Velocity":29,"Duration":323589,"SoundDuration":323589,"Delta":28213755},{"NoteNumber":59,"Velocity":35,"Duration":323589,"SoundDuration":323589,"Delta":28213755},{"NoteNumber":54,"Velocity":29,"Duration":323589,"SoundDuration":323589,"Delta":28213755},{"NoteNumber":73,"Velocity":68,"Duration":323589,"SoundDuration":323589,"Delta":28537345},{"NoteNumber":64,"Velocity":35,"Duration":323589,"SoundDuration":323589,"Delta":28860934},{"NoteNumber":69,"Velocity":35,"Duration":323589,"SoundDuration":323589,"Delta":28860934},{"NoteNumber":75,"Velocity":59,"Duration":323589,"SoundDuration":323589,"Delta":28860934},{"NoteNumber":52,"Velocity":25,"Duration":323589,"SoundDuration":323589,"Delta":28860934},{"NoteNumber":49,"Velocity":25,"Duration":323589,"SoundDuration":323589,"Delta":28860934},{"NoteNumber":57,"Velocity":35,"Duration":323589,"SoundDuration":323589,"Delta":28860934},{"NoteNumber":73,"Velocity":63,"Duration":323589,"SoundDuration":323589,"Delta":29184524},{"NoteNumber":71,"Velocity":56,"Duration":323589,"SoundDuration":323589,"Delta":29508113},{"NoteNumber":65,"Velocity":35,"Duration":323589,"SoundDuration":323589,"Delta":29508113},{"NoteNumber":50,"Velocity":29,"Duration":323589,"SoundDuration":323589,"Delta":29508113},{"NoteNumber":56,"Velocity":35,"Duration":323589,"SoundDuration":323589,"Delta":29508113},{"NoteNumber":70,"Velocity":59,"Duration":323589,"SoundDuration":323589,"Delta":29831703},{"NoteNumber":66,"Velocity":35,"Duration":327331,"SoundDuration":327331,"Delta":30155292},{"NoteNumber":71,"Velocity":57,"Duration":327331,"SoundDuration":327331,"Delta":30155292},{"NoteNumber":51,"Velocity":29,"Duration":327331,"SoundDuration":327331,"Delta":30155292},{"NoteNumber":57,"Velocity":35,"Duration":327331,"SoundDuration":327331,"Delta":30155292},{"NoteNumber":69,"Velocity":64,"Duration":321750,"SoundDuration":321750,"Delta":30482624},{"NoteNumber":65,"Velocity":60,"Duration":323589,"SoundDuration":323589,"Delta":30804375},{"NoteNumber":66,"Velocity":64,"Duration":955299,"SoundDuration":955299,"Delta":31127964},{"NoteNumber":42,"Velocity":39,"Duration":159066,"SoundDuration":159066,"Delta":31287031},{"NoteNumber":49,"Velocity":37,"Duration":159066,"SoundDuration":159066,"Delta":31446098},{"NoteNumber":54,"Velocity":37,"Duration":159066,"SoundDuration":159066,"Delta":31605165},{"NoteNumber":57,"Velocity":39,"Duration":159066,"SoundDuration":159066,"Delta":31764231},{"NoteNumber":61,"Velocity":39,"Duration":159965,"SoundDuration":159965,"Delta":31923298},{"NoteNumber":66,"Velocity":39,"Duration":160875,"SoundDuration":160875,"Delta":32083264},{"NoteNumber":69,"Velocity":42,"Duration":162104,"SoundDuration":162104,"Delta":32244139},{"NoteNumber":78,"Velocity":67,"Duration":316355,"SoundDuration":316355,"Delta":32406244},{"NoteNumber":76,"Velocity":63,"Duration":327331,"SoundDuration":327331,"Delta":32722599},{"NoteNumber":76,"Velocity":67,"Duration":318133,"SoundDuration":318133,"Delta":33049931},{"NoteNumber":74,"Velocity":63,"Duration":321750,"SoundDuration":321750,"Delta":33368065},{"NoteNumber":75,"Velocity":66,"Duration":1294487,"SoundDuration":1294487,"Delta":33689815},{"NoteNumber":47,"Velocity":39,"Duration":160875,"SoundDuration":160875,"Delta":33850691},{"NoteNumber":54,"Velocity":37,"Duration":160875,"SoundDuration":160875,"Delta":34011566},{"NoteNumber":57,"Velocity":37,"Duration":160875,"SoundDuration":160875,"Delta":34172441},{"NoteNumber":59,"Velocity":39,"Duration":160875,"SoundDuration":160875,"Delta":34333316},{"NoteNumber":63,"Velocity":39,"Duration":160875,"SoundDuration":160875,"Delta":34494192},{"NoteNumber":66,"Velocity":39,"Duration":164617,"SoundDuration":164617,"Delta":34655067},{"NoteNumber":69,"Velocity":42,"Duration":164618,"SoundDuration":164618,"Delta":34819685},{"NoteNumber":73,"Velocity":67,"Duration":323589,"SoundDuration":323589,"Delta":34984303},{"NoteNumber":71,"Velocity":67,"Duration":329236,"SoundDuration":329236,"Delta":35307892},{"NoteNumber":69,"Velocity":64,"Duration":319931,"SoundDuration":319931,"Delta":35637128},{"NoteNumber":65,"Velocity":60,"Duration":323589,"SoundDuration":323589,"Delta":35957060},{"NoteNumber":66,"Velocity":64,"Duration":966211,"SoundDuration":966211,"Delta":36280649},{"NoteNumber":42,"Velocity":37,"Duration":161794,"SoundDuration":161794,"Delta":36442444},{"NoteNumber":49,"Velocity":40,"Duration":161794,"SoundDuration":161794,"Delta":36604239},{"NoteNumber":54,"Velocity":44,"Duration":161794,"SoundDuration":161794,"Delta":36766034},{"NoteNumber":57,"Velocity":48,"Duration":159066,"SoundDuration":159066,"Delta":36927828},{"NoteNumber":61,"Velocity":46,"Duration":159965,"SoundDuration":159965,"Delta":37086895},{"NoteNumber":66,"Velocity":50,"Duration":160875,"SoundDuration":160875,"Delta":37246861},{"NoteNumber":69,"Velocity":55,"Duration":162104,"SoundDuration":162104,"Delta":37407736},{"NoteNumber":81,"Velocity":68,"Duration":219490,"SoundDuration":219490,"Delta":37569841},{"NoteNumber":80,"Velocity":64,"Duration":218856,"SoundDuration":218856,"Delta":37789332},{"NoteNumber":78,"Velocity":63,"Duration":218221,"SoundDuration":218221,"Delta":38008188},{"NoteNumber":76,"Velocity":68,"Duration":321750,"SoundDuration":321750,"Delta":38226409},{"NoteNumber":63,"Velocity":35,"Duration":331162,"SoundDuration":331162,"Delta":38548159},{"NoteNumber":69,"Velocity":35,"Duration":331162,"SoundDuration":331162,"Delta":38548159},{"NoteNumber":75,"Velocity":60,"Duration":331162,"SoundDuration":331162,"Delta":38548159},{"NoteNumber":47,"Velocity":29,"Duration":331162,"SoundDuration":331162,"Delta":38548159},{"NoteNumber":59,"Velocity":35,"Duration":331162,"SoundDuration":331162,"Delta":38548159},{"NoteNumber":54,"Velocity":29,"Duration":331162,"SoundDuration":331162,"Delta":38548159},{"NoteNumber":80,"Velocity":64,"Duration":216966,"SoundDuration":216966,"Delta":38879322},{"NoteNumber":78,"Velocity":61,"Duration":216966,"SoundDuration":216966,"Delta":39096289},{"NoteNumber":76,"Velocity":60,"Duration":216966,"SoundDuration":216966,"Delta":39313255},{"NoteNumber":75,"Velocity":63,"Duration":319931,"SoundDuration":319931,"Delta":39530222},{"NoteNumber":64,"Velocity":29,"Duration":329236,"SoundDuration":329236,"Delta":39850153},{"NoteNumber":73,"Velocity":59,"Duration":329236,"SoundDuration":329236,"Delta":39850153},{"NoteNumber":69,"Velocity":29,"Duration":329236,"SoundDuration":329236,"Delta":39850153},{"NoteNumber":49,"Velocity":24,"Duration":329236,"SoundDuration":329236,"Delta":39850153},{"NoteNumber":57,"Velocity":24,"Duration":329236,"SoundDuration":329236,"Delta":39850153},{"NoteNumber":52,"Velocity":24,"Duration":329236,"SoundDuration":329236,"Delta":39850153},{"NoteNumber":61,"Velocity":29,"Duration":329236,"SoundDuration":329236,"Delta":39850153},{"NoteNumber":78,"Velocity":63,"Duration":216966,"SoundDuration":216966,"Delta":40179389},{"NoteNumber":76,"Velocity":60,"Duration":216966,"SoundDuration":216966,"Delta":40396356},{"NoteNumber":75,"Velocity":60,"Duration":216966,"SoundDuration":216966,"Delta":40613323},{"NoteNumber":73,"Velocity":71,"Duration":323589,"SoundDuration":323589,"Delta":40830289},{"NoteNumber":61,"Velocity":59,"Duration":323589,"SoundDuration":323589,"Delta":40830289},{"NoteNumber":69,"Velocity":37,"Duration":323589,"SoundDuration":323589,"Delta":41153879},{"NoteNumber":66,"Velocity":37,"Duration":323589,"SoundDuration":323589,"Delta":41153879},{"NoteNumber":71,"Velocity":66,"Duration":323589,"SoundDuration":323589,"Delta":41153879},{"NoteNumber":54,"Velocity":37,"Duration":323589,"SoundDuration":323589,"Delta":41153879},{"NoteNumber":51,"Velocity":37,"Duration":323589,"SoundDuration":323589,"Delta":41153879},{"NoteNumber":59,"Velocity":37,"Duration":323589,"SoundDuration":323589,"Delta":41153879},{"NoteNumber":73,"Velocity":80,"Duration":323589,"SoundDuration":323589,"Delta":41477468},{"NoteNumber":61,"Velocity":67,"Duration":323589,"SoundDuration":323589,"Delta":41477468},{"NoteNumber":71,"Velocity":73,"Duration":323589,"SoundDuration":323589,"Delta":41801058},{"NoteNumber":64,"Velocity":42,"Duration":323589,"SoundDuration":323589,"Delta":41801058},{"NoteNumber":68,"Velocity":42,"Duration":323589,"SoundDuration":323589,"Delta":41801058},{"NoteNumber":56,"Velocity":42,"Duration":323589,"SoundDuration":323589,"Delta":41801058},{"NoteNumber":52,"Velocity":42,"Duration":323589,"SoundDuration":323589,"Delta":41801058},{"NoteNumber":59,"Velocity":42,"Duration":323589,"SoundDuration":323589,"Delta":41801058},{"NoteNumber":73,"Velocity":84,"Duration":327331,"SoundDuration":327331,"Delta":42124647},{"NoteNumber":61,"Velocity":71,"Duration":327331,"SoundDuration":327331,"Delta":42124647},{"NoteNumber":62,"Velocity":48,"Duration":327332,"SoundDuration":327332,"Delta":42451979},{"NoteNumber":71,"Velocity":79,"Duration":327332,"SoundDuration":327332,"Delta":42451979},{"NoteNumber":68,"Velocity":48,"Duration":327332,"SoundDuration":327332,"Delta":42451979},{"NoteNumber":56,"Velocity":48,"Duration":327332,"SoundDuration":327332,"Delta":42451979},{"NoteNumber":53,"Velocity":48,"Duration":327332,"SoundDuration":327332,"Delta":42451979},{"NoteNumber":59,"Velocity":48,"Duration":327332,"SoundDuration":327332,"Delta":42451979},{"NoteNumber":73,"Velocity":86,"Duration":335082,"SoundDuration":335082,"Delta":42779311},{"NoteNumber":61,"Velocity":72,"Duration":335082,"SoundDuration":335082,"Delta":42779311},{"NoteNumber":63,"Velocity":55,"Duration":335083,"SoundDuration":335083,"Delta":43114394},{"NoteNumber":69,"Velocity":55,"Duration":335083,"SoundDuration":335083,"Delta":43114394},{"NoteNumber":71,"Velocity":89,"Duration":335083,"SoundDuration":335083,"Delta":43114394},{"NoteNumber":59,"Velocity":55,"Duration":335083,"SoundDuration":335083,"Delta":43114394},{"NoteNumber":54,"Velocity":55,"Duration":335083,"SoundDuration":335083,"Delta":43114394},{"NoteNumber":73,"Velocity":88,"Duration":321750,"SoundDuration":321750,"Delta":43449477},{"NoteNumber":61,"Velocity":70,"Duration":321750,"SoundDuration":321750,"Delta":43449477},{"NoteNumber":59,"Velocity":64,"Duration":319931,"SoundDuration":319931,"Delta":43771228},{"NoteNumber":71,"Velocity":81,"Duration":319931,"SoundDuration":319931,"Delta":43771228},{"NoteNumber":71,"Velocity":69,"Duration":1224268,"SoundDuration":1224268,"Delta":44091159},{"NoteNumber":76,"Velocity":85,"Duration":1224268,"SoundDuration":1224268,"Delta":44091159},{"NoteNumber":64,"Velocity":69,"Duration":1224268,"SoundDuration":1224268,"Delta":44091159},{"NoteNumber":68,"Velocity":69,"Duration":1224268,"SoundDuration":1224268,"Delta":44091159},{"NoteNumber":40,"Velocity":61,"Duration":204866,"SoundDuration":204866,"Delta":44296288},{"NoteNumber":47,"Velocity":61,"Duration":203566,"SoundDuration":203566,"Delta":44501154},{"NoteNumber":52,"Velocity":66,"Duration":202276,"SoundDuration":202276,"Delta":44704721},{"NoteNumber":47,"Velocity":62,"Duration":203563,"SoundDuration":203563,"Delta":44906997},{"NoteNumber":52,"Velocity":62,"Duration":204866,"SoundDuration":204866,"Delta":45110561},{"NoteNumber":68,"Velocity":69,"Duration":309278,"SoundDuration":309278,"Delta":45315428},{"NoteNumber":71,"Velocity":69,"Duration":309278,"SoundDuration":309278,"Delta":45315428},{"NoteNumber":80,"Velocity":86,"Duration":309278,"SoundDuration":309278,"Delta":45315428},{"NoteNumber":76,"Velocity":69,"Duration":309278,"SoundDuration":309278,"Delta":45315428},{"NoteNumber":59,"Velocity":69,"Duration":206185,"SoundDuration":206185,"Delta":45315428},{"NoteNumber":52,"Velocity":62,"Duration":206185,"SoundDuration":206185,"Delta":45521613},{"NoteNumber":71,"Velocity":66,"Duration":309278,"SoundDuration":309278,"Delta":45624706},{"NoteNumber":76,"Velocity":66,"Duration":309278,"SoundDuration":309278,"Delta":45624706},{"NoteNumber":80,"Velocity":66,"Duration":309278,"SoundDuration":309278,"Delta":45624706},{"NoteNumber":83,"Velocity":82,"Duration":309278,"SoundDuration":309278,"Delta":45624706},{"NoteNumber":59,"Velocity":61,"Duration":206185,"SoundDuration":206185,"Delta":45727799},{"NoteNumber":76,"Velocity":70,"Duration":309438,"SoundDuration":309438,"Delta":45933985},{"NoteNumber":85,"Velocity":89,"Duration":309438,"SoundDuration":309438,"Delta":45933985},{"NoteNumber":80,"Velocity":70,"Duration":309438,"SoundDuration":309438,"Delta":45933985},{"NoteNumber":73,"Velocity":70,"Duration":309438,"SoundDuration":309438,"Delta":45933985},{"NoteNumber":64,"Velocity":71,"Duration":309438,"SoundDuration":309438,"Delta":45933985},{"NoteNumber":83,"Velocity":81,"Duration":327331,"SoundDuration":327331,"Delta":46243423},{"NoteNumber":71,"Velocity":64,"Duration":327331,"SoundDuration":327331,"Delta":46243423},{"NoteNumber":68,"Velocity":66,"Duration":1228439,"SoundDuration":1228439,"Delta":46570755},{"NoteNumber":71,"Velocity":66,"Duration":1228439,"SoundDuration":1228439,"Delta":46570755},{"NoteNumber":76,"Velocity":66,"Duration":1228439,"SoundDuration":1228439,"Delta":46570755},{"NoteNumber":80,"Velocity":83,"Duration":1228439,"SoundDuration":1228439,"Delta":46570755},{"NoteNumber":40,"Velocity":61,"Duration":204605,"SoundDuration":204605,"Delta":46775883},{"NoteNumber":47,"Velocity":61,"Duration":203822,"SoundDuration":203822,"Delta":46980488},{"NoteNumber":52,"Velocity":66,"Duration":203563,"SoundDuration":203563,"Delta":47184311},{"NoteNumber":47,"Velocity":62,"Duration":204866,"SoundDuration":204866,"Delta":47387874},{"NoteNumber":52,"Velocity":62,"Duration":206452,"SoundDuration":206452,"Delta":47592741},{"NoteNumber":68,"Velocity":66,"Duration":309438,"SoundDuration":309438,"Delta":47799194},{"NoteNumber":76,"Velocity":82,"Duration":309438,"SoundDuration":309438,"Delta":47799194},{"NoteNumber":71,"Velocity":66,"Duration":309438,"SoundDuration":309438,"Delta":47799194},{"NoteNumber":64,"Velocity":66,"Duration":309438,"SoundDuration":309438,"Delta":47799194},{"NoteNumber":59,"Velocity":69,"Duration":206291,"SoundDuration":206291,"Delta":47799194},{"NoteNumber":52,"Velocity":62,"Duration":206292,"SoundDuration":206292,"Delta":48005486},{"NoteNumber":71,"Velocity":61,"Duration":309438,"SoundDuration":309438,"Delta":48108632},{"NoteNumber":73,"Velocity":78,"Duration":309438,"SoundDuration":309438,"Delta":48108632},{"NoteNumber":68,"Velocity":61,"Duration":309438,"SoundDuration":309438,"Delta":48108632},{"NoteNumber":61,"Velocity":61,"Duration":309438,"SoundDuration":309438,"Delta":48108632},{"NoteNumber":59,"Velocity":61,"Duration":206291,"SoundDuration":206291,"Delta":48211778},{"NoteNumber":68,"Velocity":66,"Duration":309438,"SoundDuration":309438,"Delta":48418070},{"NoteNumber":80,"Velocity":82,"Duration":309438,"SoundDuration":309438,"Delta":48418070},{"NoteNumber":71,"Velocity":66,"Duration":309438,"SoundDuration":309438,"Delta":48418070},{"NoteNumber":63,"Velocity":71,"Duration":309438,"SoundDuration":309438,"Delta":48418070},{"NoteNumber":66,"Velocity":61,"Duration":309438,"SoundDuration":309438,"Delta":48727508},{"NoteNumber":78,"Velocity":77,"Duration":309438,"SoundDuration":309438,"Delta":48727508},{"NoteNumber":61,"Velocity":64,"Duration":1234230,"SoundDuration":1234230,"Delta":49036946},{"NoteNumber":73,"Velocity":81,"Duration":1234230,"SoundDuration":1234230,"Delta":49036946},{"NoteNumber":66,"Velocity":64,"Duration":1234230,"SoundDuration":1234230,"Delta":49036946},{"NoteNumber":69,"Velocity":64,"Duration":1234230,"SoundDuration":1234230,"Delta":49036946},{"NoteNumber":40,"Velocity":55,"Duration":206185,"SoundDuration":206185,"Delta":49244200},{"NoteNumber":47,"Velocity":55,"Duration":205128,"SoundDuration":205128,"Delta":49450386},{"NoteNumber":54,"Velocity":59,"Duration":204081,"SoundDuration":204081,"Delta":49655514},{"NoteNumber":47,"Velocity":56,"Duration":205128,"SoundDuration":205128,"Delta":49859596},{"NoteNumber":54,"Velocity":56,"Duration":206452,"SoundDuration":206452,"Delta":50064724},{"NoteNumber":61,"Velocity":62,"Duration":309438,"SoundDuration":309438,"Delta":50271177},{"NoteNumber":66,"Velocity":62,"Duration":309438,"SoundDuration":309438,"Delta":50271177},{"NoteNumber":73,"Velocity":79,"Duration":309438,"SoundDuration":309438,"Delta":50271177},{"NoteNumber":69,"Velocity":62,"Duration":309438,"SoundDuration":309438,"Delta":50271177},{"NoteNumber":59,"Velocity":61,"Duration":206291,"SoundDuration":206291,"Delta":50271177},{"NoteNumber":54,"Velocity":56,"Duration":206292,"SoundDuration":206292,"Delta":50477469},{"NoteNumber":63,"Velocity":58,"Duration":309438,"SoundDuration":309438,"Delta":50580615},{"NoteNumber":66,"Velocity":58,"Duration":309438,"SoundDuration":309438,"Delta":50580615},{"NoteNumber":71,"Velocity":73,"Duration":309438,"SoundDuration":309438,"Delta":50580615},{"NoteNumber":59,"Velocity":55,"Duration":206291,"SoundDuration":206291,"Delta":50683761},{"NoteNumber":71,"Velocity":61,"Duration":309438,"SoundDuration":309438,"Delta":50890053},{"NoteNumber":78,"Velocity":77,"Duration":309438,"SoundDuration":309438,"Delta":50890053},{"NoteNumber":68,"Velocity":61,"Duration":309438,"SoundDuration":309438,"Delta":50890053},{"NoteNumber":66,"Velocity":61,"Duration":309438,"SoundDuration":309438,"Delta":50890053},{"NoteNumber":64,"Velocity":63,"Duration":309438,"SoundDuration":309438,"Delta":50890053},{"NoteNumber":64,"Velocity":58,"Duration":309411,"SoundDuration":309411,"Delta":51199491},{"NoteNumber":76,"Velocity":73,"Duration":309411,"SoundDuration":309411,"Delta":51199491},{"NoteNumber":64,"Velocity":59,"Duration":1235528,"SoundDuration":1235528,"Delta":51508902},{"NoteNumber":71,"Velocity":74,"Duration":1235528,"SoundDuration":1235528,"Delta":51508902},{"NoteNumber":68,"Velocity":59,"Duration":1235528,"SoundDuration":1235528,"Delta":51508902},{"NoteNumber":59,"Velocity":59,"Duration":1235528,"SoundDuration":1235528,"Delta":51508902},{"NoteNumber":40,"Velocity":55,"Duration":206185,"SoundDuration":206185,"Delta":51715088},{"NoteNumber":47,"Velocity":55,"Duration":206185,"SoundDuration":206185,"Delta":51921273},{"NoteNumber":52,"Velocity":59,"Duration":205392,"SoundDuration":205392,"Delta":52127459},{"NoteNumber":47,"Velocity":56,"Duration":205392,"SoundDuration":205392,"Delta":52332852},{"NoteNumber":52,"Velocity":56,"Duration":206185,"SoundDuration":206185,"Delta":52538244},{"NoteNumber":68,"Velocity":62,"Duration":310881,"SoundDuration":310881,"Delta":52744430},{"NoteNumber":70,"Velocity":79,"Duration":310881,"SoundDuration":310881,"Delta":52744430},{"NoteNumber":64,"Velocity":62,"Duration":310881,"SoundDuration":310881,"Delta":52744430},{"NoteNumber":58,"Velocity":62,"Duration":310881,"SoundDuration":310881,"Delta":52744430},{"NoteNumber":56,"Velocity":61,"Duration":207253,"SoundDuration":207253,"Delta":52744430},{"NoteNumber":52,"Velocity":56,"Duration":207253,"SoundDuration":207253,"Delta":52951684},{"NoteNumber":59,"Velocity":61,"Duration":310880,"SoundDuration":310880,"Delta":53055311},{"NoteNumber":71,"Velocity":77,"Duration":310880,"SoundDuration":310880,"Delta":53055311},{"NoteNumber":56,"Velocity":55,"Duration":207253,"SoundDuration":207253,"Delta":53158938},{"NoteNumber":64,"Velocity":70,"Duration":321750,"SoundDuration":321750,"Delta":53366192},{"NoteNumber":73,"Velocity":88,"Duration":321750,"SoundDuration":321750,"Delta":53366192},{"NoteNumber":61,"Velocity":70,"Duration":321750,"SoundDuration":321750,"Delta":53366192},{"NoteNumber":68,"Velocity":70,"Duration":321750,"SoundDuration":321750,"Delta":53366192},{"NoteNumber":59,"Velocity":63,"Duration":321750,"SoundDuration":321750,"Delta":53366192},{"NoteNumber":59,"Velocity":64,"Duration":319931,"SoundDuration":319931,"Delta":53687943},{"NoteNumber":71,"Velocity":81,"Duration":319931,"SoundDuration":319931,"Delta":53687943},{"NoteNumber":64,"Velocity":64,"Duration":319931,"SoundDuration":319931,"Delta":53687943},{"NoteNumber":68,"Velocity":64,"Duration":319931,"SoundDuration":319931,"Delta":53687943},{"NoteNumber":64,"Velocity":69,"Duration":1230861,"SoundDuration":1230861,"Delta":54007874},{"NoteNumber":76,"Velocity":85,"Duration":1230861,"SoundDuration":1230861,"Delta":54007874},{"NoteNumber":68,"Velocity":69,"Duration":1230861,"SoundDuration":1230861,"Delta":54007874},{"NoteNumber":71,"Velocity":69,"Duration":1230861,"SoundDuration":1230861,"Delta":54007874},{"NoteNumber":40,"Velocity":61,"Duration":205392,"SoundDuration":205392,"Delta":54214370},{"NoteNumber":47,"Velocity":61,"Duration":204343,"SoundDuration":204343,"Delta":54419762},{"NoteNumber":52,"Velocity":66,"Duration":203304,"SoundDuration":203304,"Delta":54624106},{"NoteNumber":47,"Velocity":62,"Duration":204605,"SoundDuration":204605,"Delta":54827410},{"NoteNumber":52,"Velocity":62,"Duration":206719,"SoundDuration":206719,"Delta":55032015},{"NoteNumber":68,"Velocity":69,"Duration":312500,"SoundDuration":312500,"Delta":55238735},{"NoteNumber":71,"Velocity":69,"Duration":312500,"SoundDuration":312500,"Delta":55238735},{"NoteNumber":80,"Velocity":86,"Duration":312500,"SoundDuration":312500,"Delta":55238735},{"NoteNumber":76,"Velocity":69,"Duration":312500,"SoundDuration":312500,"Delta":55238735},{"NoteNumber":59,"Velocity":69,"Duration":208333,"SoundDuration":208333,"Delta":55238735},{"NoteNumber":52,"Velocity":62,"Duration":208333,"SoundDuration":208333,"Delta":55447069},{"NoteNumber":71,"Velocity":66,"Duration":312500,"SoundDuration":312500,"Delta":55551235},{"NoteNumber":76,"Velocity":66,"Duration":312500,"SoundDuration":312500,"Delta":55551235},{"NoteNumber":80,"Velocity":66,"Duration":312500,"SoundDuration":312500,"Delta":55551235},{"NoteNumber":83,"Velocity":82,"Duration":312500,"SoundDuration":312500,"Delta":55551235},{"NoteNumber":59,"Velocity":61,"Duration":208333,"SoundDuration":208333,"Delta":55655402},{"NoteNumber":80,"Velocity":70,"Duration":309438,"SoundDuration":309438,"Delta":55863735},{"NoteNumber":76,"Velocity":70,"Duration":309438,"SoundDuration":309438,"Delta":55863735},{"NoteNumber":73,"Velocity":70,"Duration":309438,"SoundDuration":309438,"Delta":55863735},{"NoteNumber":85,"Velocity":89,"Duration":309438,"SoundDuration":309438,"Delta":55863735},{"NoteNumber":64,"Velocity":71,"Duration":309438,"SoundDuration":309438,"Delta":55863735},{"NoteNumber":71,"Velocity":64,"Duration":327331,"SoundDuration":327331,"Delta":56173173},{"NoteNumber":83,"Velocity":81,"Duration":327331,"SoundDuration":327331,"Delta":56173173},{"NoteNumber":71,"Velocity":66,"Duration":1229226,"SoundDuration":1229226,"Delta":56500505},{"NoteNumber":80,"Velocity":83,"Duration":1229226,"SoundDuration":1229226,"Delta":56500505},{"NoteNumber":76,"Velocity":66,"Duration":1229226,"SoundDuration":1229226,"Delta":56500505},{"NoteNumber":68,"Velocity":66,"Duration":1229226,"SoundDuration":1229226,"Delta":56500505},{"NoteNumber":40,"Velocity":61,"Duration":205392,"SoundDuration":205392,"Delta":56706691},{"NoteNumber":47,"Velocity":61,"Duration":204343,"SoundDuration":204343,"Delta":56912084},{"NoteNumber":52,"Velocity":66,"Duration":203304,"SoundDuration":203304,"Delta":57116427},{"NoteNumber":47,"Velocity":62,"Duration":204343,"SoundDuration":204343,"Delta":57319732},{"NoteNumber":52,"Velocity":62,"Duration":205657,"SoundDuration":205657,"Delta":57524075},{"NoteNumber":71,"Velocity":66,"Duration":309438,"SoundDuration":309438,"Delta":57729732},{"NoteNumber":76,"Velocity":82,"Duration":309438,"SoundDuration":309438,"Delta":57729732},{"NoteNumber":68,"Velocity":66,"Duration":309438,"SoundDuration":309438,"Delta":57729732},{"NoteNumber":64,"Velocity":66,"Duration":309438,"SoundDuration":309438,"Delta":57729732},{"NoteNumber":59,"Velocity":69,"Duration":206291,"SoundDuration":206291,"Delta":57729732},{"NoteNumber":52,"Velocity":62,"Duration":206292,"SoundDuration":206292,"Delta":57936024},{"NoteNumber":61,"Velocity":61,"Duration":309438,"SoundDuration":309438,"Delta":58039170},{"NoteNumber":73,"Velocity":78,"Duration":309438,"SoundDuration":309438,"Delta":58039170},{"NoteNumber":68,"Velocity":61,"Duration":309438,"SoundDuration":309438,"Delta":58039170},{"NoteNumber":71,"Velocity":61,"Duration":309438,"SoundDuration":309438,"Delta":58039170},{"NoteNumber":59,"Velocity":61,"Duration":206291,"SoundDuration":206291,"Delta":58142316},{"NoteNumber":68,"Velocity":66,"Duration":309438,"SoundDuration":309438,"Delta":58348608},{"NoteNumber":71,"Velocity":66,"Duration":309438,"SoundDuration":309438,"Delta":58348608},{"NoteNumber":80,"Velocity":82,"Duration":309438,"SoundDuration":309438,"Delta":58348608},{"NoteNumber":63,"Velocity":71,"Duration":309438,"SoundDuration":309438,"Delta":58348608},{"NoteNumber":78,"Velocity":77,"Duration":309438,"SoundDuration":309438,"Delta":58658046},{"NoteNumber":66,"Velocity":61,"Duration":309438,"SoundDuration":309438,"Delta":58658046},{"NoteNumber":61,"Velocity":64,"Duration":1233696,"SoundDuration":1233696,"Delta":58967484},{"NoteNumber":66,"Velocity":64,"Duration":1233696,"SoundDuration":1233696,"Delta":58967484},{"NoteNumber":73,"Velocity":81,"Duration":1233696,"SoundDuration":1233696,"Delta":58967484},{"NoteNumber":69,"Velocity":64,"Duration":1233696,"SoundDuration":1233696,"Delta":58967484},{"NoteNumber":40,"Velocity":55,"Duration":205656,"SoundDuration":205656,"Delta":59173670},{"NoteNumber":47,"Velocity":55,"Duration":204866,"SoundDuration":204866,"Delta":59379327},{"NoteNumber":54,"Velocity":59,"Duration":204343,"SoundDuration":204343,"Delta":59584193},{"NoteNumber":47,"Velocity":56,"Duration":205657,"SoundDuration":205657,"Delta":59788537},{"NoteNumber":54,"Velocity":56,"Duration":206986,"SoundDuration":206986,"Delta":59994194},{"NoteNumber":61,"Velocity":62,"Duration":309438,"SoundDuration":309438,"Delta":60201181},{"NoteNumber":66,"Velocity":62,"Duration":309438,"SoundDuration":309438,"Delta":60201181},{"NoteNumber":69,"Velocity":62,"Duration":309438,"SoundDuration":309438,"Delta":60201181},{"NoteNumber":73,"Velocity":79,"Duration":309438,"SoundDuration":309438,"Delta":60201181},{"NoteNumber":59,"Velocity":61,"Duration":206291,"SoundDuration":206291,"Delta":60201181},{"NoteNumber":54,"Velocity":56,"Duration":206292,"SoundDuration":206292,"Delta":60407473},{"NoteNumber":66,"Velocity":58,"Duration":309438,"SoundDuration":309438,"Delta":60510619},{"NoteNumber":63,"Velocity":58,"Duration":309438,"SoundDuration":309438,"Delta":60510619},{"NoteNumber":71,"Velocity":73,"Duration":309438,"SoundDuration":309438,"Delta":60510619},{"NoteNumber":59,"Velocity":55,"Duration":206291,"SoundDuration":206291,"Delta":60613765},{"NoteNumber":66,"Velocity":61,"Duration":309438,"SoundDuration":309438,"Delta":60820057},{"NoteNumber":78,"Velocity":77,"Duration":309438,"SoundDuration":309438,"Delta":60820057},{"NoteNumber":68,"Velocity":61,"Duration":309438,"SoundDuration":309438,"Delta":60820057},{"NoteNumber":71,"Velocity":61,"Duration":309438,"SoundDuration":309438,"Delta":60820057},{"NoteNumber":64,"Velocity":63,"Duration":309438,"SoundDuration":309438,"Delta":60820057},{"NoteNumber":64,"Velocity":58,"Duration":309411,"SoundDuration":309411,"Delta":61129495},{"NoteNumber":76,"Velocity":73,"Duration":309411,"SoundDuration":309411,"Delta":61129495},{"NoteNumber":68,"Velocity":59,"Duration":1231840,"SoundDuration":1231840,"Delta":61438906},{"NoteNumber":71,"Velocity":74,"Duration":1231840,"SoundDuration":1231840,"Delta":61438906},{"NoteNumber":64,"Velocity":59,"Duration":1231840,"SoundDuration":1231840,"Delta":61438906},{"NoteNumber":59,"Velocity":59,"Duration":1231840,"SoundDuration":1231840,"Delta":61438906},{"NoteNumber":40,"Velocity":55,"Duration":205657,"SoundDuration":205657,"Delta":61645092},{"NoteNumber":47,"Velocity":55,"Duration":205128,"SoundDuration":205128,"Delta":61850749},{"NoteNumber":52,"Velocity":59,"Duration":204081,"SoundDuration":204081,"Delta":62055877},{"NoteNumber":47,"Velocity":56,"Duration":204866,"SoundDuration":204866,"Delta":62259959},{"NoteNumber":52,"Velocity":56,"Duration":205921,"SoundDuration":205921,"Delta":62464825},{"NoteNumber":58,"Velocity":59,"Duration":310613,"SoundDuration":310613,"Delta":62670747},{"NoteNumber":70,"Velocity":74,"Duration":310613,"SoundDuration":310613,"Delta":62670747},{"NoteNumber":64,"Velocity":59,"Duration":310613,"SoundDuration":310613,"Delta":62670747},{"NoteNumber":68,"Velocity":59,"Duration":310613,"SoundDuration":310613,"Delta":62670747},{"NoteNumber":56,"Velocity":61,"Duration":206986,"SoundDuration":206986,"Delta":62670747},{"NoteNumber":52,"Velocity":56,"Duration":207254,"SoundDuration":207254,"Delta":62877734},{"NoteNumber":64,"Velocity":58,"Duration":310881,"SoundDuration":310881,"Delta":62981361},{"NoteNumber":68,"Velocity":58,"Duration":310881,"SoundDuration":310881,"Delta":62981361},{"NoteNumber":71,"Velocity":72,"Duration":310881,"SoundDuration":310881,"Delta":62981361},{"NoteNumber":59,"Velocity":58,"Duration":310881,"SoundDuration":310881,"Delta":62981361},{"NoteNumber":56,"Velocity":55,"Duration":207253,"SoundDuration":207253,"Delta":63084988},{"NoteNumber":61,"Velocity":58,"Duration":309438,"SoundDuration":309438,"Delta":63292242},{"NoteNumber":64,"Velocity":58,"Duration":309438,"SoundDuration":309438,"Delta":63292242},{"NoteNumber":68,"Velocity":58,"Duration":309438,"SoundDuration":309438,"Delta":63292242},{"NoteNumber":73,"Velocity":72,"Duration":309438,"SoundDuration":309438,"Delta":63292242},{"NoteNumber":59,"Velocity":63,"Duration":309438,"SoundDuration":309438,"Delta":63292242},{"NoteNumber":70,"Velocity":67,"Duration":309438,"SoundDuration":309438,"Delta":63601680},{"NoteNumber":58,"Velocity":52,"Duration":309438,"SoundDuration":309438,"Delta":63601680},{"NoteNumber":59,"Velocity":52,"Duration":1238196,"SoundDuration":1238196,"Delta":63911118},{"NoteNumber":64,"Velocity":52,"Duration":1238196,"SoundDuration":1238196,"Delta":63911118},{"NoteNumber":71,"Velocity":66,"Duration":1238196,"SoundDuration":1238196,"Delta":63911118},{"NoteNumber":68,"Velocity":52,"Duration":1238196,"SoundDuration":1238196,"Delta":63911118},{"NoteNumber":40,"Velocity":51,"Duration":206719,"SoundDuration":206719,"Delta":64118372},{"NoteNumber":47,"Velocity":50,"Duration":206185,"SoundDuration":206185,"Delta":64325091},{"NoteNumber":52,"Velocity":52,"Duration":205128,"SoundDuration":205128,"Delta":64531277},{"NoteNumber":47,"Velocity":49,"Duration":205921,"SoundDuration":205921,"Delta":64736405},{"NoteNumber":52,"Velocity":48,"Duration":206986,"SoundDuration":206986,"Delta":64942327},{"NoteNumber":58,"Velocity":44,"Duration":312230,"SoundDuration":312230,"Delta":65149314},{"NoteNumber":64,"Velocity":44,"Duration":312230,"SoundDuration":312230,"Delta":65149314},{"NoteNumber":68,"Velocity":44,"Duration":312230,"SoundDuration":312230,"Delta":65149314},{"NoteNumber":70,"Velocity":56,"Duration":312230,"SoundDuration":312230,"Delta":65149314},{"NoteNumber":56,"Velocity":51,"Duration":208063,"SoundDuration":208063,"Delta":65149314},{"NoteNumber":52,"Velocity":46,"Duration":208333,"SoundDuration":208333,"Delta":65357377},{"NoteNumber":68,"Velocity":42,"Duration":312500,"SoundDuration":312500,"Delta":65461544},{"NoteNumber":71,"Velocity":53,"Duration":312500,"SoundDuration":312500,"Delta":65461544},{"NoteNumber":59,"Velocity":42,"Duration":312500,"SoundDuration":312500,"Delta":65461544},{"NoteNumber":64,"Velocity":42,"Duration":312500,"SoundDuration":312500,"Delta":65461544},{"NoteNumber":56,"Velocity":45,"Duration":208333,"SoundDuration":208333,"Delta":65565710},{"NoteNumber":68,"Velocity":40,"Duration":309438,"SoundDuration":309438,"Delta":65774044},{"NoteNumber":73,"Velocity":51,"Duration":309438,"SoundDuration":309438,"Delta":65774044},{"NoteNumber":64,"Velocity":40,"Duration":309438,"SoundDuration":309438,"Delta":65774044},{"NoteNumber":61,"Velocity":40,"Duration":309438,"SoundDuration":309438,"Delta":65774044},{"NoteNumber":59,"Velocity":50,"Duration":309438,"SoundDuration":309438,"Delta":65774044},{"NoteNumber":58,"Velocity":37,"Duration":309438,"SoundDuration":309438,"Delta":66083482},{"NoteNumber":70,"Velocity":48,"Duration":309438,"SoundDuration":309438,"Delta":66083482},{"NoteNumber":64,"Velocity":37,"Duration":1235830,"SoundDuration":1235830,"Delta":66392920},{"NoteNumber":71,"Velocity":47,"Duration":1235830,"SoundDuration":1235830,"Delta":66392920},{"NoteNumber":68,"Velocity":37,"Duration":1235830,"SoundDuration":1235830,"Delta":66392920},{"NoteNumber":59,"Velocity":37,"Duration":1235830,"SoundDuration":1235830,"Delta":66392920},{"NoteNumber":40,"Velocity":40,"Duration":205921,"SoundDuration":205921,"Delta":66600174},{"NoteNumber":47,"Velocity":39,"Duration":204605,"SoundDuration":204605,"Delta":66806095},{"NoteNumber":52,"Velocity":41,"Duration":204605,"SoundDuration":204605,"Delta":67010700},{"NoteNumber":47,"Velocity":39,"Duration":205921,"SoundDuration":205921,"Delta":67215305},{"NoteNumber":52,"Velocity":38,"Duration":207523,"SoundDuration":207523,"Delta":67421226},{"NoteNumber":56,"Velocity":40,"Duration":208878,"SoundDuration":208878,"Delta":67628750},{"NoteNumber":52,"Velocity":36,"Duration":210804,"SoundDuration":210804,"Delta":67837629},{"NoteNumber":56,"Velocity":35,"Duration":211640,"SoundDuration":211640,"Delta":68048434},{"NoteNumber":45,"Velocity":42,"Duration":553847,"SoundDuration":553847,"Delta":68260074},{"NoteNumber":52,"Velocity":47,"Duration":515187,"SoundDuration":515187,"Delta":68298734},{"NoteNumber":57,"Velocity":52,"Duration":476527,"SoundDuration":476527,"Delta":68337394},{"NoteNumber":60,"Velocity":62,"Duration":437867,"SoundDuration":437867,"Delta":68376054},{"NoteNumber":64,"Velocity":67,"Duration":399207,"SoundDuration":399207,"Delta":68414713},{"NoteNumber":69,"Velocity":69,"Duration":360547,"SoundDuration":360547,"Delta":68453373},{"NoteNumber":72,"Velocity":73,"Duration":579398,"SoundDuration":579398,"Delta":68492033},{"NoteNumber":72,"Velocity":62,"Duration":230768,"SoundDuration":230768,"Delta":69071432},{"NoteNumber":60,"Velocity":60,"Duration":474307,"SoundDuration":474307,"Delta":69302201},{"NoteNumber":66,"Velocity":60,"Duration":474307,"SoundDuration":474307,"Delta":69302201},{"NoteNumber":72,"Velocity":68,"Duration":355731,"SoundDuration":355731,"Delta":69302201},{"NoteNumber":50,"Velocity":48,"Duration":474307,"SoundDuration":474307,"Delta":69302201},{"NoteNumber":57,"Velocity":53,"Duration":474307,"SoundDuration":474307,"Delta":69302201},{"NoteNumber":71,"Velocity":62,"Duration":59288,"SoundDuration":59288,"Delta":69657932},{"NoteNumber":69,"Velocity":62,"Duration":59288,"SoundDuration":59288,"Delta":69717220},{"NoteNumber":62,"Velocity":63,"Duration":114503,"SoundDuration":114503,"Delta":69776509},{"NoteNumber":67,"Velocity":71,"Duration":114503,"SoundDuration":114503,"Delta":69776509},{"NoteNumber":43,"Velocity":50,"Duration":114503,"SoundDuration":114503,"Delta":69776509},{"NoteNumber":50,"Velocity":50,"Duration":114503,"SoundDuration":114503,"Delta":69776509},{"NoteNumber":59,"Velocity":57,"Duration":114503,"SoundDuration":114503,"Delta":69776509},{"NoteNumber":62,"Velocity":62,"Duration":116279,"SoundDuration":116279,"Delta":70005516},{"NoteNumber":67,"Velocity":62,"Duration":116279,"SoundDuration":116279,"Delta":70005516},{"NoteNumber":74,"Velocity":70,"Duration":116279,"SoundDuration":116279,"Delta":70005516},{"NoteNumber":47,"Velocity":49,"Duration":116279,"SoundDuration":116279,"Delta":70005516},{"NoteNumber":55,"Velocity":49,"Duration":116279,"SoundDuration":116279,"Delta":70005516},{"NoteNumber":59,"Velocity":56,"Duration":116279,"SoundDuration":116279,"Delta":70005516},{"NoteNumber":64,"Velocity":68,"Duration":120967,"SoundDuration":120967,"Delta":70238074},{"NoteNumber":67,"Velocity":68,"Duration":120967,"SoundDuration":120967,"Delta":70238074},{"NoteNumber":72,"Velocity":68,"Duration":120967,"SoundDuration":120967,"Delta":70238074},{"NoteNumber":76,"Velocity":75,"Duration":120967,"SoundDuration":120967,"Delta":70238074},{"NoteNumber":48,"Velocity":53,"Duration":120967,"SoundDuration":120967,"Delta":70238074},{"NoteNumber":55,"Velocity":53,"Duration":120967,"SoundDuration":120967,"Delta":70238074},{"NoteNumber":60,"Velocity":60,"Duration":120967,"SoundDuration":120967,"Delta":70238074},{"NoteNumber":67,"Velocity":66,"Duration":124481,"SoundDuration":124481,"Delta":70480010},{"NoteNumber":72,"Velocity":66,"Duration":124481,"SoundDuration":124481,"Delta":70480010},{"NoteNumber":79,"Velocity":73,"Duration":124481,"SoundDuration":124481,"Delta":70480010},{"NoteNumber":52,"Velocity":51,"Duration":124481,"SoundDuration":124481,"Delta":70480010},{"NoteNumber":60,"Velocity":51,"Duration":124481,"SoundDuration":124481,"Delta":70480010},{"NoteNumber":64,"Velocity":58,"Duration":124481,"SoundDuration":124481,"Delta":70480010},{"NoteNumber":67,"Velocity":69,"Duration":858245,"SoundDuration":858245,"Delta":70728972},{"NoteNumber":71,"Velocity":69,"Duration":858245,"SoundDuration":858245,"Delta":70728972},{"NoteNumber":74,"Velocity":78,"Duration":858245,"SoundDuration":858245,"Delta":70728972},{"NoteNumber":62,"Velocity":61,"Duration":858245,"SoundDuration":858245,"Delta":70728972},{"NoteNumber":59,"Velocity":55,"Duration":858245,"SoundDuration":858245,"Delta":70728972},{"NoteNumber":55,"Velocity":55,"Duration":858245,"SoundDuration":858245,"Delta":70728972},{"NoteNumber":68,"Velocity":64,"Duration":201006,"SoundDuration":201006,"Delta":71587218},{"NoteNumber":71,"Velocity":64,"Duration":201006,"SoundDuration":201006,"Delta":71587218},{"NoteNumber":76,"Velocity":81,"Duration":100120,"SoundDuration":100120,"Delta":71587218},{"NoteNumber":52,"Velocity":58,"Duration":201006,"SoundDuration":201006,"Delta":71587218},{"NoteNumber":64,"Velocity":58,"Duration":201006,"SoundDuration":201006,"Delta":71587218},{"NoteNumber":59,"Velocity":58,"Duration":201006,"SoundDuration":201006,"Delta":71587218},{"NoteNumber":74,"Velocity":71,"Duration":100885,"SoundDuration":100885,"Delta":71687339},{"NoteNumber":72,"Velocity":66,"Duration":101787,"SoundDuration":101787,"Delta":71788224},{"NoteNumber":71,"Velocity":59,"Duration":102710,"SoundDuration":102710,"Delta":71890012},{"NoteNumber":72,"Velocity":55,"Duration":102711,"SoundDuration":102711,"Delta":71992722},{"NoteNumber":69,"Velocity":46,"Duration":102711,"SoundDuration":102711,"Delta":71992722},{"NoteNumber":63,"Velocity":46,"Duration":102711,"SoundDuration":102711,"Delta":71992722},{"NoteNumber":83,"Velocity":55,"Duration":25677,"SoundDuration":25677,"Delta":72172467},{"NoteNumber":78,"Velocity":59,"Duration":102711,"SoundDuration":102711,"Delta":72198145},{"NoteNumber":84,"Velocity":59,"Duration":102711,"SoundDuration":102711,"Delta":72198145},{"NoteNumber":57,"Velocity":49,"Duration":102711,"SoundDuration":102711,"Delta":72198145},{"NoteNumber":72,"Velocity":57,"Duration":102711,"SoundDuration":102711,"Delta":72403568},{"NoteNumber":69,"Velocity":48,"Duration":102711,"SoundDuration":102711,"Delta":72403568},{"NoteNumber":63,"Velocity":48,"Duration":102711,"SoundDuration":102711,"Delta":72403568},{"NoteNumber":83,"Velocity":55,"Duration":25677,"SoundDuration":25677,"Delta":72583313},{"NoteNumber":84,"Velocity":58,"Duration":102711,"SoundDuration":102711,"Delta":72608991},{"NoteNumber":78,"Velocity":58,"Duration":102711,"SoundDuration":102711,"Delta":72608991},{"NoteNumber":57,"Velocity":49,"Duration":102711,"SoundDuration":102711,"Delta":72608991},{"NoteNumber":72,"Velocity":55,"Duration":102711,"SoundDuration":102711,"Delta":72814414},{"NoteNumber":69,"Velocity":46,"Duration":102711,"SoundDuration":102711,"Delta":72814414},{"NoteNumber":63,"Velocity":46,"Duration":102711,"SoundDuration":102711,"Delta":72814414},{"NoteNumber":83,"Velocity":55,"Duration":25677,"SoundDuration":25677,"Delta":72994159},{"NoteNumber":84,"Velocity":59,"Duration":102711,"SoundDuration":102711,"Delta":73019837},{"NoteNumber":78,"Velocity":59,"Duration":102711,"SoundDuration":102711,"Delta":73019837},{"NoteNumber":57,"Velocity":49,"Duration":102711,"SoundDuration":102711,"Delta":73019837},{"NoteNumber":68,"Velocity":64,"Duration":201006,"SoundDuration":201006,"Delta":73225260},{"NoteNumber":71,"Velocity":64,"Duration":201006,"SoundDuration":201006,"Delta":73225260},{"NoteNumber":76,"Velocity":81,"Duration":100120,"SoundDuration":100120,"Delta":73225260},{"NoteNumber":52,"Velocity":58,"Duration":201006,"SoundDuration":201006,"Delta":73225260},{"NoteNumber":64,"Velocity":58,"Duration":201006,"SoundDuration":201006,"Delta":73225260},{"NoteNumber":59,"Velocity":58,"Duration":201006,"SoundDuration":201006,"Delta":73225260},{"NoteNumber":74,"Velocity":71,"Duration":100885,"SoundDuration":100885,"Delta":73325380},{"NoteNumber":72,"Velocity":66,"Duration":101787,"SoundDuration":101787,"Delta":73426266},{"NoteNumber":71,"Velocity":59,"Duration":102710,"SoundDuration":102710,"Delta":73528053},{"NoteNumber":72,"Velocity":55,"Duration":102711,"SoundDuration":102711,"Delta":73630764},{"NoteNumber":69,"Velocity":46,"Duration":102711,"SoundDuration":102711,"Delta":73630764},{"NoteNumber":63,"Velocity":46,"Duration":102711,"SoundDuration":102711,"Delta":73630764},{"NoteNumber":83,"Velocity":55,"Duration":25677,"SoundDuration":25677,"Delta":73810509},{"NoteNumber":78,"Velocity":59,"Duration":102711,"SoundDuration":102711,"Delta":73836187},{"NoteNumber":84,"Velocity":59,"Duration":102711,"SoundDuration":102711,"Delta":73836187},{"NoteNumber":57,"Velocity":49,"Duration":102711,"SoundDuration":102711,"Delta":73836187},{"NoteNumber":72,"Velocity":57,"Duration":102711,"SoundDuration":102711,"Delta":74041610},{"NoteNumber":69,"Velocity":48,"Duration":102711,"SoundDuration":102711,"Delta":74041610},{"NoteNumber":63,"Velocity":48,"Duration":102711,"SoundDuration":102711,"Delta":74041610},{"NoteNumber":83,"Velocity":55,"Duration":25677,"SoundDuration":25677,"Delta":74221355},{"NoteNumber":84,"Velocity":58,"Duration":102711,"SoundDuration":102711,"Delta":74247033},{"NoteNumber":78,"Velocity":58,"Duration":102711,"SoundDuration":102711,"Delta":74247033},{"NoteNumber":57,"Velocity":49,"Duration":102711,"SoundDuration":102711,"Delta":74247033},{"NoteNumber":72,"Velocity":55,"Duration":102711,"SoundDuration":102711,"Delta":74452456},{"NoteNumber":69,"Velocity":46,"Duration":102711,"SoundDuration":102711,"Delta":74452456},{"NoteNumber":63,"Velocity":46,"Duration":102711,"SoundDuration":102711,"Delta":74452456},{"NoteNumber":83,"Velocity":55,"Duration":25677,"SoundDuration":25677,"Delta":74632201},{"NoteNumber":84,"Velocity":59,"Duration":102711,"SoundDuration":102711,"Delta":74657879},{"NoteNumber":78,"Velocity":59,"Duration":102711,"SoundDuration":102711,"Delta":74657879},{"NoteNumber":57,"Velocity":49,"Duration":102711,"SoundDuration":102711,"Delta":74657879},{"NoteNumber":68,"Velocity":64,"Duration":201006,"SoundDuration":201006,"Delta":74863302},{"NoteNumber":71,"Velocity":64,"Duration":201006,"SoundDuration":201006,"Delta":74863302},{"NoteNumber":76,"Velocity":81,"Duration":100120,"SoundDuration":100120,"Delta":74863302},{"NoteNumber":52,"Velocity":58,"Duration":201006,"SoundDuration":201006,"Delta":74863302},{"NoteNumber":64,"Velocity":58,"Duration":201006,"SoundDuration":201006,"Delta":74863302},{"NoteNumber":59,"Velocity":58,"Duration":201006,"SoundDuration":201006,"Delta":74863302},{"NoteNumber":74,"Velocity":71,"Duration":100885,"SoundDuration":100885,"Delta":74963422},{"NoteNumber":72,"Velocity":66,"Duration":101787,"SoundDuration":101787,"Delta":75064308},{"NoteNumber":71,"Velocity":59,"Duration":94978,"SoundDuration":94978,"Delta":75166095},{"NoteNumber":45,"Velocity":42,"Duration":557490,"SoundDuration":557490,"Delta":75261074},{"NoteNumber":52,"Velocity":47,"Duration":518223,"SoundDuration":518223,"Delta":75300341},{"NoteNumber":57,"Velocity":52,"Duration":478956,"SoundDuration":478956,"Delta":75339608},{"NoteNumber":60,"Velocity":62,"Duration":439689,"SoundDuration":439689,"Delta":75378875},{"NoteNumber":64,"Velocity":67,"Duration":400422,"SoundDuration":400422,"Delta":75418142},{"NoteNumber":69,"Velocity":69,"Duration":361155,"SoundDuration":361155,"Delta":75457409},{"NoteNumber":72,"Velocity":73,"Duration":579398,"SoundDuration":579398,"Delta":75496676},{"NoteNumber":72,"Velocity":62,"Duration":231660,"SoundDuration":231660,"Delta":76076074},{"NoteNumber":60,"Velocity":60,"Duration":476190,"SoundDuration":476190,"Delta":76307734},{"NoteNumber":66,"Velocity":60,"Duration":476190,"SoundDuration":476190,"Delta":76307734},{"NoteNumber":72,"Velocity":68,"Duration":357142,"SoundDuration":357142,"Delta":76307734},{"NoteNumber":50,"Velocity":48,"Duration":476190,"SoundDuration":476190,"Delta":76307734},{"NoteNumber":57,"Velocity":53,"Duration":476190,"SoundDuration":476190,"Delta":76307734},{"NoteNumber":71,"Velocity":62,"Duration":59523,"SoundDuration":59523,"Delta":76664877},{"NoteNumber":69,"Velocity":62,"Duration":59523,"SoundDuration":59523,"Delta":76724401},{"NoteNumber":62,"Velocity":63,"Duration":114503,"SoundDuration":114503,"Delta":76783924},{"NoteNumber":67,"Velocity":71,"Duration":114503,"SoundDuration":114503,"Delta":76783924},{"NoteNumber":43,"Velocity":50,"Duration":114503,"SoundDuration":114503,"Delta":76783924},{"NoteNumber":50,"Velocity":50,"Duration":114503,"SoundDuration":114503,"Delta":76783924},{"NoteNumber":59,"Velocity":57,"Duration":114503,"SoundDuration":114503,"Delta":76783924},{"NoteNumber":62,"Velocity":62,"Duration":117647,"SoundDuration":117647,"Delta":77012932},{"NoteNumber":67,"Velocity":62,"Duration":117647,"SoundDuration":117647,"Delta":77012932},{"NoteNumber":74,"Velocity":70,"Duration":117647,"SoundDuration":117647,"Delta":77012932},{"NoteNumber":47,"Velocity":49,"Duration":117647,"SoundDuration":117647,"Delta":77012932},{"NoteNumber":55,"Velocity":49,"Duration":117647,"SoundDuration":117647,"Delta":77012932},{"NoteNumber":59,"Velocity":56,"Duration":117647,"SoundDuration":117647,"Delta":77012932},{"NoteNumber":64,"Velocity":68,"Duration":120967,"SoundDuration":120967,"Delta":77248226},{"NoteNumber":67,"Velocity":68,"Duration":120967,"SoundDuration":120967,"Delta":77248226},{"NoteNumber":72,"Velocity":68,"Duration":120967,"SoundDuration":120967,"Delta":77248226},{"NoteNumber":76,"Velocity":75,"Duration":120967,"SoundDuration":120967,"Delta":77248226},{"NoteNumber":48,"Velocity":53,"Duration":120967,"SoundDuration":120967,"Delta":77248226},{"NoteNumber":55,"Velocity":53,"Duration":120967,"SoundDuration":120967,"Delta":77248226},{"NoteNumber":60,"Velocity":60,"Duration":120967,"SoundDuration":120967,"Delta":77248226},{"NoteNumber":67,"Velocity":66,"Duration":124481,"SoundDuration":124481,"Delta":77490161},{"NoteNumber":72,"Velocity":66,"Duration":124481,"SoundDuration":124481,"Delta":77490161},{"NoteNumber":79,"Velocity":73,"Duration":124481,"SoundDuration":124481,"Delta":77490161},{"NoteNumber":52,"Velocity":51,"Duration":124481,"SoundDuration":124481,"Delta":77490161},{"NoteNumber":60,"Velocity":51,"Duration":124481,"SoundDuration":124481,"Delta":77490161},{"NoteNumber":64,"Velocity":58,"Duration":124481,"SoundDuration":124481,"Delta":77490161},{"NoteNumber":67,"Velocity":69,"Duration":858245,"SoundDuration":858245,"Delta":77739124},{"NoteNumber":71,"Velocity":69,"Duration":858245,"SoundDuration":858245,"Delta":77739124},{"NoteNumber":74,"Velocity":78,"Duration":858245,"SoundDuration":858245,"Delta":77739124},{"NoteNumber":62,"Velocity":61,"Duration":858245,"SoundDuration":858245,"Delta":77739124},{"NoteNumber":59,"Velocity":55,"Duration":858245,"SoundDuration":858245,"Delta":77739124},{"NoteNumber":55,"Velocity":55,"Duration":858245,"SoundDuration":858245,"Delta":77739124},{"NoteNumber":71,"Velocity":64,"Duration":201006,"SoundDuration":201006,"Delta":78597370},{"NoteNumber":76,"Velocity":81,"Duration":100120,"SoundDuration":100120,"Delta":78597370},{"NoteNumber":59,"Velocity":58,"Duration":201006,"SoundDuration":201006,"Delta":78597370},{"NoteNumber":55,"Velocity":58,"Duration":201006,"SoundDuration":201006,"Delta":78597370},{"NoteNumber":64,"Velocity":58,"Duration":201006,"SoundDuration":201006,"Delta":78597370},{"NoteNumber":61,"Velocity":58,"Duration":201006,"SoundDuration":201006,"Delta":78597370},{"NoteNumber":74,"Velocity":71,"Duration":100885,"SoundDuration":100885,"Delta":78697490},{"NoteNumber":73,"Velocity":66,"Duration":101787,"SoundDuration":101787,"Delta":78798376},{"NoteNumber":71,"Velocity":59,"Duration":102710,"SoundDuration":102710,"Delta":78900163},{"NoteNumber":62,"Velocity":46,"Duration":102711,"SoundDuration":102711,"Delta":79002874},{"NoteNumber":66,"Velocity":46,"Duration":102711,"SoundDuration":102711,"Delta":79002874},{"NoteNumber":59,"Velocity":46,"Duration":102711,"SoundDuration":102711,"Delta":79002874},{"NoteNumber":79,"Velocity":55,"Duration":25677,"SoundDuration":25677,"Delta":79182619},{"NoteNumber":74,"Velocity":59,"Duration":102711,"SoundDuration":102711,"Delta":79208297},{"NoteNumber":71,"Velocity":59,"Duration":102711,"SoundDuration":102711,"Delta":79208297},{"NoteNumber":78,"Velocity":59,"Duration":102711,"SoundDuration":102711,"Delta":79208297},{"NoteNumber":54,"Velocity":49,"Duration":102711,"SoundDuration":102711,"Delta":79208297},{"NoteNumber":62,"Velocity":48,"Duration":102711,"SoundDuration":102711,"Delta":79413720},{"NoteNumber":66,"Velocity":48,"Duration":102711,"SoundDuration":102711,"Delta":79413720},{"NoteNumber":59,"Velocity":48,"Duration":102711,"SoundDuration":102711,"Delta":79413720},{"NoteNumber":79,"Velocity":55,"Duration":25677,"SoundDuration":25677,"Delta":79593465},{"NoteNumber":74,"Velocity":58,"Duration":102711,"SoundDuration":102711,"Delta":79619143},{"NoteNumber":78,"Velocity":58,"Duration":102711,"SoundDuration":102711,"Delta":79619143},{"NoteNumber":71,"Velocity":58,"Duration":102711,"SoundDuration":102711,"Delta":79619143},{"NoteNumber":54,"Velocity":49,"Duration":102711,"SoundDuration":102711,"Delta":79619143},{"NoteNumber":62,"Velocity":46,"Duration":102711,"SoundDuration":102711,"Delta":79824566},{"NoteNumber":66,"Velocity":46,"Duration":102711,"SoundDuration":102711,"Delta":79824566},{"NoteNumber":59,"Velocity":46,"Duration":102711,"SoundDuration":102711,"Delta":79824566},{"NoteNumber":79,"Velocity":55,"Duration":25677,"SoundDuration":25677,"Delta":80004311},{"NoteNumber":74,"Velocity":59,"Duration":102711,"SoundDuration":102711,"Delta":80029989},{"NoteNumber":78,"Velocity":59,"Duration":102711,"SoundDuration":102711,"Delta":80029989},{"NoteNumber":71,"Velocity":59,"Duration":102711,"SoundDuration":102711,"Delta":80029989},{"NoteNumber":54,"Velocity":49,"Duration":102711,"SoundDuration":102711,"Delta":80029989},{"NoteNumber":71,"Velocity":64,"Duration":201006,"SoundDuration":201006,"Delta":80235412},{"NoteNumber":76,"Velocity":81,"Duration":100120,"SoundDuration":100120,"Delta":80235412},{"NoteNumber":59,"Velocity":58,"Duration":201006,"SoundDuration":201006,"Delta":80235412},{"NoteNumber":55,"Velocity":58,"Duration":201006,"SoundDuration":201006,"Delta":80235412},{"NoteNumber":64,"Velocity":58,"Duration":201006,"SoundDuration":201006,"Delta":80235412},{"NoteNumber":61,"Velocity":58,"Duration":201006,"SoundDuration":201006,"Delta":80235412},{"NoteNumber":74,"Velocity":71,"Duration":100885,"SoundDuration":100885,"Delta":80335532},{"NoteNumber":73,"Velocity":66,"Duration":101787,"SoundDuration":101787,"Delta":80436418},{"NoteNumber":71,"Velocity":59,"Duration":102710,"SoundDuration":102710,"Delta":80538205},{"NoteNumber":62,"Velocity":46,"Duration":102711,"SoundDuration":102711,"Delta":80640915},{"NoteNumber":66,"Velocity":46,"Duration":102711,"SoundDuration":102711,"Delta":80640915},{"NoteNumber":59,"Velocity":46,"Duration":102711,"SoundDuration":102711,"Delta":80640915},{"NoteNumber":79,"Velocity":55,"Duration":25677,"SoundDuration":25677,"Delta":80820661},{"NoteNumber":74,"Velocity":59,"Duration":102711,"SoundDuration":102711,"Delta":80846338},{"NoteNumber":71,"Velocity":59,"Duration":102711,"SoundDuration":102711,"Delta":80846338},{"NoteNumber":78,"Velocity":59,"Duration":102711,"SoundDuration":102711,"Delta":80846338},{"NoteNumber":54,"Velocity":49,"Duration":102711,"SoundDuration":102711,"Delta":80846338},{"NoteNumber":62,"Velocity":48,"Duration":102711,"SoundDuration":102711,"Delta":81051761},{"NoteNumber":66,"Velocity":48,"Duration":102711,"SoundDuration":102711,"Delta":81051761},{"NoteNumber":59,"Velocity":48,"Duration":102711,"SoundDuration":102711,"Delta":81051761},{"NoteNumber":79,"Velocity":55,"Duration":25677,"SoundDuration":25677,"Delta":81231507},{"NoteNumber":74,"Velocity":58,"Duration":102711,"SoundDuration":102711,"Delta":81257184},{"NoteNumber":78,"Velocity":58,"Duration":102711,"SoundDuration":102711,"Delta":81257184},{"NoteNumber":71,"Velocity":58,"Duration":102711,"SoundDuration":102711,"Delta":81257184},{"NoteNumber":54,"Velocity":49,"Duration":102711,"SoundDuration":102711,"Delta":81257184},{"NoteNumber":62,"Velocity":46,"Duration":102711,"SoundDuration":102711,"Delta":81462607},{"NoteNumber":66,"Velocity":46,"Duration":102711,"SoundDuration":102711,"Delta":81462607},{"NoteNumber":59,"Velocity":46,"Duration":102711,"SoundDuration":102711,"Delta":81462607},{"NoteNumber":79,"Velocity":55,"Duration":25677,"SoundDuration":25677,"Delta":81642353},{"NoteNumber":74,"Velocity":59,"Duration":102711,"SoundDuration":102711,"Delta":81668030},{"NoteNumber":78,"Velocity":59,"Duration":102711,"SoundDuration":102711,"Delta":81668030},{"NoteNumber":71,"Velocity":59,"Duration":102711,"SoundDuration":102711,"Delta":81668030},{"NoteNumber":54,"Velocity":49,"Duration":102711,"SoundDuration":102711,"Delta":81668030},{"NoteNumber":71,"Velocity":64,"Duration":201006,"SoundDuration":201006,"Delta":81873453},{"NoteNumber":76,"Velocity":81,"Duration":100120,"SoundDuration":100120,"Delta":81873453},{"NoteNumber":59,"Velocity":58,"Duration":201006,"SoundDuration":201006,"Delta":81873453},{"NoteNumber":55,"Velocity":58,"Duration":201006,"SoundDuration":201006,"Delta":81873453},{"NoteNumber":64,"Velocity":58,"Duration":201006,"SoundDuration":201006,"Delta":81873453},{"NoteNumber":61,"Velocity":58,"Duration":201006,"SoundDuration":201006,"Delta":81873453},{"NoteNumber":74,"Velocity":71,"Duration":100885,"SoundDuration":100885,"Delta":81973574},{"NoteNumber":73,"Velocity":66,"Duration":101787,"SoundDuration":101787,"Delta":82074460},{"NoteNumber":71,"Velocity":59,"Duration":102710,"SoundDuration":102710,"Delta":82176247},{"NoteNumber":54,"Velocity":46,"Duration":102711,"SoundDuration":102711,"Delta":82278957},{"NoteNumber":57,"Velocity":46,"Duration":102711,"SoundDuration":102711,"Delta":82278957},{"NoteNumber":50,"Velocity":46,"Duration":102711,"SoundDuration":102711,"Delta":82278957},{"NoteNumber":71,"Velocity":55,"Duration":25677,"SoundDuration":25677,"Delta":82458702},{"NoteNumber":66,"Velocity":59,"Duration":102711,"SoundDuration":102711,"Delta":82484380},{"NoteNumber":62,"Velocity":59,"Duration":102711,"SoundDuration":102711,"Delta":82484380},{"NoteNumber":69,"Velocity":59,"Duration":102711,"SoundDuration":102711,"Delta":82484380},{"NoteNumber":45,"Velocity":49,"Duration":102711,"SoundDuration":102711,"Delta":82484380},{"NoteNumber":54,"Velocity":48,"Duration":102711,"SoundDuration":102711,"Delta":82689803},{"NoteNumber":57,"Velocity":48,"Duration":102711,"SoundDuration":102711,"Delta":82689803},{"NoteNumber":50,"Velocity":48,"Duration":102711,"SoundDuration":102711,"Delta":82689803},{"NoteNumber":71,"Velocity":55,"Duration":25677,"SoundDuration":25677,"Delta":82869548},{"NoteNumber":66,"Velocity":58,"Duration":102711,"SoundDuration":102711,"Delta":82895226},{"NoteNumber":69,"Velocity":58,"Duration":102711,"SoundDuration":102711,"Delta":82895226},{"NoteNumber":62,"Velocity":58,"Duration":102711,"SoundDuration":102711,"Delta":82895226},{"NoteNumber":45,"Velocity":49,"Duration":102711,"SoundDuration":102711,"Delta":82895226},{"NoteNumber":54,"Velocity":46,"Duration":102711,"SoundDuration":102711,"Delta":83100649},{"NoteNumber":57,"Velocity":46,"Duration":102711,"SoundDuration":102711,"Delta":83100649},{"NoteNumber":51,"Velocity":46,"Duration":102711,"SoundDuration":102711,"Delta":83100649},{"NoteNumber":71,"Velocity":55,"Duration":25677,"SoundDuration":25677,"Delta":83280394},{"NoteNumber":66,"Velocity":59,"Duration":102711,"SoundDuration":102711,"Delta":83306072},{"NoteNumber":69,"Velocity":59,"Duration":102711,"SoundDuration":102711,"Delta":83306072},{"NoteNumber":60,"Velocity":59,"Duration":102711,"SoundDuration":102711,"Delta":83306072},{"NoteNumber":45,"Velocity":49,"Duration":102711,"SoundDuration":102711,"Delta":83306072},{"NoteNumber":61,"Velocity":64,"Duration":201006,"SoundDuration":201006,"Delta":83511495},{"NoteNumber":69,"Velocity":81,"Duration":110196,"SoundDuration":110196,"Delta":83511495},{"NoteNumber":52,"Velocity":58,"Duration":201006,"SoundDuration":201006,"Delta":83511495},{"NoteNumber":57,"Velocity":58,"Duration":201006,"SoundDuration":201006,"Delta":83511495},{"NoteNumber":55,"Velocity":58,"Duration":201006,"SoundDuration":201006,"Delta":83511495},{"NoteNumber":67,"Velocity":71,"Duration":111038,"SoundDuration":111038,"Delta":83611616},{"NoteNumber":66,"Velocity":66,"Duration":112018,"SoundDuration":112018,"Delta":83712501},{"NoteNumber":64,"Velocity":59,"Duration":112672,"SoundDuration":112672,"Delta":83814289},{"NoteNumber":62,"Velocity":80,"Duration":109782,"SoundDuration":109782,"Delta":83916999},{"NoteNumber":61,"Velocity":68,"Duration":110616,"SoundDuration":110616,"Delta":84016744},{"NoteNumber":59,"Velocity":66,"Duration":111591,"SoundDuration":111591,"Delta":84117247},{"NoteNumber":57,"Velocity":70,"Duration":111245,"SoundDuration":111245,"Delta":84218647},{"NoteNumber":55,"Velocity":78,"Duration":109906,"SoundDuration":109906,"Delta":84319930},{"NoteNumber":54,"Velocity":66,"Duration":110744,"SoundDuration":110744,"Delta":84419799},{"NoteNumber":52,"Velocity":66,"Duration":111461,"SoundDuration":111461,"Delta":84520430},{"NoteNumber":50,"Velocity":64,"Duration":100217,"SoundDuration":100217,"Delta":84621700},{"NoteNumber":50,"Velocity":73,"Duration":111759,"SoundDuration":111759,"Delta":84723616},{"NoteNumber":49,"Velocity":64,"Duration":113368,"SoundDuration":113368,"Delta":84825144},{"NoteNumber":47,"Velocity":63,"Duration":115160,"SoundDuration":115160,"Delta":84928122},{"NoteNumber":45,"Velocity":61,"Duration":115872,"SoundDuration":115872,"Delta":85032724},{"NoteNumber":43,"Velocity":69,"Duration":115118,"SoundDuration":115118,"Delta":85138165},{"NoteNumber":42,"Velocity":62,"Duration":116032,"SoundDuration":116032,"Delta":85242767},{"NoteNumber":40,"Velocity":60,"Duration":116963,"SoundDuration":116963,"Delta":85348201},{"NoteNumber":38,"Velocity":58,"Duration":107138,"SoundDuration":107138,"Delta":85454479},{"NoteNumber":45,"Velocity":42,"Duration":543728,"SoundDuration":543728,"Delta":85561617},{"NoteNumber":52,"Velocity":47,"Duration":505849,"SoundDuration":505849,"Delta":85599496},{"NoteNumber":57,"Velocity":52,"Duration":467970,"SoundDuration":467970,"Delta":85637375},{"NoteNumber":60,"Velocity":62,"Duration":430092,"SoundDuration":430092,"Delta":85675253},{"NoteNumber":64,"Velocity":67,"Duration":392213,"SoundDuration":392213,"Delta":85713132},{"NoteNumber":69,"Velocity":69,"Duration":354334,"SoundDuration":354334,"Delta":85751011},{"NoteNumber":72,"Velocity":73,"Duration":569620,"SoundDuration":569620,"Delta":85788890},{"NoteNumber":72,"Velocity":62,"Duration":232557,"SoundDuration":232557,"Delta":86358510},{"NoteNumber":60,"Velocity":60,"Duration":474307,"SoundDuration":474307,"Delta":86591068},{"NoteNumber":66,"Velocity":60,"Duration":474307,"SoundDuration":474307,"Delta":86591068},{"NoteNumber":72,"Velocity":68,"Duration":355731,"SoundDuration":355731,"Delta":86591068},{"NoteNumber":50,"Velocity":48,"Duration":474307,"SoundDuration":474307,"Delta":86591068},{"NoteNumber":57,"Velocity":53,"Duration":474307,"SoundDuration":474307,"Delta":86591068},{"NoteNumber":71,"Velocity":62,"Duration":59288,"SoundDuration":59288,"Delta":86946799},{"NoteNumber":69,"Velocity":62,"Duration":59288,"SoundDuration":59288,"Delta":87006087},{"NoteNumber":62,"Velocity":63,"Duration":115384,"SoundDuration":115384,"Delta":87065376},{"NoteNumber":67,"Velocity":71,"Duration":115384,"SoundDuration":115384,"Delta":87065376},{"NoteNumber":43,"Velocity":50,"Duration":115384,"SoundDuration":115384,"Delta":87065376},{"NoteNumber":50,"Velocity":50,"Duration":115384,"SoundDuration":115384,"Delta":87065376},{"NoteNumber":59,"Velocity":57,"Duration":115384,"SoundDuration":115384,"Delta":87065376},{"NoteNumber":62,"Velocity":62,"Duration":118110,"SoundDuration":118110,"Delta":87296145},{"NoteNumber":67,"Velocity":62,"Duration":118110,"SoundDuration":118110,"Delta":87296145},{"NoteNumber":74,"Velocity":70,"Duration":118110,"SoundDuration":118110,"Delta":87296145},{"NoteNumber":47,"Velocity":49,"Duration":118110,"SoundDuration":118110,"Delta":87296145},{"NoteNumber":55,"Velocity":49,"Duration":118110,"SoundDuration":118110,"Delta":87296145},{"NoteNumber":59,"Velocity":56,"Duration":118110,"SoundDuration":118110,"Delta":87296145},{"NoteNumber":64,"Velocity":68,"Duration":120967,"SoundDuration":120967,"Delta":87532365},{"NoteNumber":67,"Velocity":68,"Duration":120967,"SoundDuration":120967,"Delta":87532365},{"NoteNumber":72,"Velocity":68,"Duration":120967,"SoundDuration":120967,"Delta":87532365},{"NoteNumber":76,"Velocity":75,"Duration":120967,"SoundDuration":120967,"Delta":87532365},{"NoteNumber":48,"Velocity":53,"Duration":120967,"SoundDuration":120967,"Delta":87532365},{"NoteNumber":55,"Velocity":53,"Duration":120967,"SoundDuration":120967,"Delta":87532365},{"NoteNumber":60,"Velocity":60,"Duration":120967,"SoundDuration":120967,"Delta":87532365},{"NoteNumber":67,"Velocity":66,"Duration":125000,"SoundDuration":125000,"Delta":87774301},{"NoteNumber":72,"Velocity":66,"Duration":125000,"SoundDuration":125000,"Delta":87774301},{"NoteNumber":79,"Velocity":73,"Duration":125000,"SoundDuration":125000,"Delta":87774301},{"NoteNumber":52,"Velocity":51,"Duration":125000,"SoundDuration":125000,"Delta":87774301},{"NoteNumber":60,"Velocity":51,"Duration":125000,"SoundDuration":125000,"Delta":87774301},{"NoteNumber":64,"Velocity":58,"Duration":125000,"SoundDuration":125000,"Delta":87774301},{"NoteNumber":67,"Velocity":69,"Duration":858245,"SoundDuration":858245,"Delta":88024301},{"NoteNumber":71,"Velocity":69,"Duration":858245,"SoundDuration":858245,"Delta":88024301},{"NoteNumber":74,"Velocity":78,"Duration":858245,"SoundDuration":858245,"Delta":88024301},{"NoteNumber":62,"Velocity":61,"Duration":858245,"SoundDuration":858245,"Delta":88024301},{"NoteNumber":59,"Velocity":55,"Duration":858245,"SoundDuration":858245,"Delta":88024301},{"NoteNumber":55,"Velocity":55,"Duration":858245,"SoundDuration":858245,"Delta":88024301},{"NoteNumber":68,"Velocity":64,"Duration":201006,"SoundDuration":201006,"Delta":88882547},{"NoteNumber":71,"Velocity":64,"Duration":201006,"SoundDuration":201006,"Delta":88882547},{"NoteNumber":76,"Velocity":81,"Duration":100120,"SoundDuration":100120,"Delta":88882547},{"NoteNumber":52,"Velocity":58,"Duration":201006,"SoundDuration":201006,"Delta":88882547},{"NoteNumber":64,"Velocity":58,"Duration":201006,"SoundDuration":201006,"Delta":88882547},{"NoteNumber":59,"Velocity":58,"Duration":201006,"SoundDuration":201006,"Delta":88882547},{"NoteNumber":74,"Velocity":71,"Duration":100885,"SoundDuration":100885,"Delta":88982667},{"NoteNumber":72,"Velocity":66,"Duration":101787,"SoundDuration":101787,"Delta":89083553},{"NoteNumber":71,"Velocity":59,"Duration":102710,"SoundDuration":102710,"Delta":89185340},{"NoteNumber":72,"Velocity":55,"Duration":102711,"SoundDuration":102711,"Delta":89288051},{"NoteNumber":69,"Velocity":46,"Duration":102711,"SoundDuration":102711,"Delta":89288051},{"NoteNumber":63,"Velocity":46,"Duration":102711,"SoundDuration":102711,"Delta":89288051},{"NoteNumber":83,"Velocity":55,"Duration":25677,"SoundDuration":25677,"Delta":89467796},{"NoteNumber":78,"Velocity":59,"Duration":102711,"SoundDuration":102711,"Delta":89493474},{"NoteNumber":84,"Velocity":59,"Duration":102711,"SoundDuration":102711,"Delta":89493474},{"NoteNumber":57,"Velocity":49,"Duration":102711,"SoundDuration":102711,"Delta":89493474},{"NoteNumber":72,"Velocity":57,"Duration":102711,"SoundDuration":102711,"Delta":89698897},{"NoteNumber":69,"Velocity":48,"Duration":102711,"SoundDuration":102711,"Delta":89698897},{"NoteNumber":63,"Velocity":48,"Duration":102711,"SoundDuration":102711,"Delta":89698897},{"NoteNumber":83,"Velocity":55,"Duration":25677,"SoundDuration":25677,"Delta":89878642},{"NoteNumber":84,"Velocity":58,"Duration":102711,"SoundDuration":102711,"Delta":89904320},{"NoteNumber":78,"Velocity":58,"Duration":102711,"SoundDuration":102711,"Delta":89904320},{"NoteNumber":57,"Velocity":49,"Duration":102711,"SoundDuration":102711,"Delta":89904320},{"NoteNumber":72,"Velocity":55,"Duration":102711,"SoundDuration":102711,"Delta":90109743},{"NoteNumber":69,"Velocity":46,"Duration":102711,"SoundDuration":102711,"Delta":90109743},{"NoteNumber":63,"Velocity":46,"Duration":102711,"SoundDuration":102711,"Delta":90109743},{"NoteNumber":83,"Velocity":55,"Duration":25677,"SoundDuration":25677,"Delta":90289488},{"NoteNumber":84,"Velocity":59,"Duration":102711,"SoundDuration":102711,"Delta":90315166},{"NoteNumber":78,"Velocity":59,"Duration":102711,"SoundDuration":102711,"Delta":90315166},{"NoteNumber":57,"Velocity":49,"Duration":102711,"SoundDuration":102711,"Delta":90315166},{"NoteNumber":68,"Velocity":64,"Duration":201006,"SoundDuration":201006,"Delta":90520589},{"NoteNumber":71,"Velocity":64,"Duration":201006,"SoundDuration":201006,"Delta":90520589},{"NoteNumber":76,"Velocity":81,"Duration":100120,"SoundDuration":100120,"Delta":90520589},{"NoteNumber":52,"Velocity":58,"Duration":201006,"SoundDuration":201006,"Delta":90520589},{"NoteNumber":64,"Velocity":58,"Duration":201006,"SoundDuration":201006,"Delta":90520589},{"NoteNumber":59,"Velocity":58,"Duration":201006,"SoundDuration":201006,"Delta":90520589},{"NoteNumber":74,"Velocity":71,"Duration":100885,"SoundDuration":100885,"Delta":90620709},{"NoteNumber":72,"Velocity":66,"Duration":101787,"SoundDuration":101787,"Delta":90721595},{"NoteNumber":71,"Velocity":59,"Duration":102710,"SoundDuration":102710,"Delta":90823382},{"NoteNumber":72,"Velocity":55,"Duration":102711,"SoundDuration":102711,"Delta":90926092},{"NoteNumber":69,"Velocity":46,"Duration":102711,"SoundDuration":102711,"Delta":90926092},{"NoteNumber":63,"Velocity":46,"Duration":102711,"SoundDuration":102711,"Delta":90926092},{"NoteNumber":83,"Velocity":55,"Duration":25677,"SoundDuration":25677,"Delta":91105838},{"NoteNumber":78,"Velocity":59,"Duration":102711,"SoundDuration":102711,"Delta":91131515},{"NoteNumber":84,"Velocity":59,"Duration":102711,"SoundDuration":102711,"Delta":91131515},{"NoteNumber":57,"Velocity":49,"Duration":102711,"SoundDuration":102711,"Delta":91131515},{"NoteNumber":72,"Velocity":57,"Duration":102711,"SoundDuration":102711,"Delta":91336938},{"NoteNumber":69,"Velocity":48,"Duration":102711,"SoundDuration":102711,"Delta":91336938},{"NoteNumber":63,"Velocity":48,"Duration":102711,"SoundDuration":102711,"Delta":91336938},{"NoteNumber":83,"Velocity":55,"Duration":25677,"SoundDuration":25677,"Delta":91516684},{"NoteNumber":84,"Velocity":58,"Duration":102711,"SoundDuration":102711,"Delta":91542361},{"NoteNumber":78,"Velocity":58,"Duration":102711,"SoundDuration":102711,"Delta":91542361},{"NoteNumber":57,"Velocity":49,"Duration":102711,"SoundDuration":102711,"Delta":91542361},{"NoteNumber":72,"Velocity":55,"Duration":102711,"SoundDuration":102711,"Delta":91747784},{"NoteNumber":69,"Velocity":46,"Duration":102711,"SoundDuration":102711,"Delta":91747784},{"NoteNumber":63,"Velocity":46,"Duration":102711,"SoundDuration":102711,"Delta":91747784},{"NoteNumber":83,"Velocity":55,"Duration":25677,"SoundDuration":25677,"Delta":91927530},{"NoteNumber":84,"Velocity":59,"Duration":102711,"SoundDuration":102711,"Delta":91953207},{"NoteNumber":78,"Velocity":59,"Duration":102711,"SoundDuration":102711,"Delta":91953207},{"NoteNumber":57,"Velocity":49,"Duration":102711,"SoundDuration":102711,"Delta":91953207},{"NoteNumber":68,"Velocity":64,"Duration":201006,"SoundDuration":201006,"Delta":92158630},{"NoteNumber":71,"Velocity":64,"Duration":201006,"SoundDuration":201006,"Delta":92158630},{"NoteNumber":76,"Velocity":81,"Duration":100120,"SoundDuration":100120,"Delta":92158630},{"NoteNumber":52,"Velocity":58,"Duration":201006,"SoundDuration":201006,"Delta":92158630},{"NoteNumber":64,"Velocity":58,"Duration":201006,"SoundDuration":201006,"Delta":92158630},{"NoteNumber":59,"Velocity":58,"Duration":201006,"SoundDuration":201006,"Delta":92158630},{"NoteNumber":74,"Velocity":71,"Duration":100885,"SoundDuration":100885,"Delta":92258751},{"NoteNumber":72,"Velocity":66,"Duration":101787,"SoundDuration":101787,"Delta":92359637},{"NoteNumber":71,"Velocity":59,"Duration":94978,"SoundDuration":94978,"Delta":92461424},{"NoteNumber":45,"Velocity":42,"Duration":548740,"SoundDuration":548740,"Delta":92556403},{"NoteNumber":52,"Velocity":47,"Duration":510475,"SoundDuration":510475,"Delta":92594668},{"NoteNumber":57,"Velocity":52,"Duration":472209,"SoundDuration":472209,"Delta":92632933},{"NoteNumber":60,"Velocity":62,"Duration":433944,"SoundDuration":433944,"Delta":92671199},{"NoteNumber":64,"Velocity":67,"Duration":395679,"SoundDuration":395679,"Delta":92709464},{"NoteNumber":69,"Velocity":69,"Duration":357414,"SoundDuration":357414,"Delta":92747729},{"NoteNumber":72,"Velocity":73,"Duration":574467,"SoundDuration":574467,"Delta":92785995},{"NoteNumber":72,"Velocity":62,"Duration":232557,"SoundDuration":232557,"Delta":93360462},{"NoteNumber":60,"Velocity":60,"Duration":470588,"SoundDuration":470588,"Delta":93593020},{"NoteNumber":66,"Velocity":60,"Duration":470588,"SoundDuration":470588,"Delta":93593020},{"NoteNumber":72,"Velocity":68,"Duration":352941,"SoundDuration":352941,"Delta":93593020},{"NoteNumber":50,"Velocity":48,"Duration":470588,"SoundDuration":470588,"Delta":93593020},{"NoteNumber":57,"Velocity":53,"Duration":470588,"SoundDuration":470588,"Delta":93593020},{"NoteNumber":71,"Velocity":62,"Duration":58823,"SoundDuration":58823,"Delta":93945961},{"NoteNumber":69,"Velocity":62,"Duration":58823,"SoundDuration":58823,"Delta":94004785},{"NoteNumber":62,"Velocity":63,"Duration":114503,"SoundDuration":114503,"Delta":94063608},{"NoteNumber":67,"Velocity":71,"Duration":114503,"SoundDuration":114503,"Delta":94063608},{"NoteNumber":43,"Velocity":50,"Duration":114503,"SoundDuration":114503,"Delta":94063608},{"NoteNumber":50,"Velocity":50,"Duration":114503,"SoundDuration":114503,"Delta":94063608},{"NoteNumber":59,"Velocity":57,"Duration":114503,"SoundDuration":114503,"Delta":94063608},{"NoteNumber":62,"Velocity":62,"Duration":117647,"SoundDuration":117647,"Delta":94292616},{"NoteNumber":67,"Velocity":62,"Duration":117647,"SoundDuration":117647,"Delta":94292616},{"NoteNumber":74,"Velocity":70,"Duration":117647,"SoundDuration":117647,"Delta":94292616},{"NoteNumber":47,"Velocity":49,"Duration":117647,"SoundDuration":117647,"Delta":94292616},{"NoteNumber":55,"Velocity":49,"Duration":117647,"SoundDuration":117647,"Delta":94292616},{"NoteNumber":59,"Velocity":56,"Duration":117647,"SoundDuration":117647,"Delta":94292616},{"NoteNumber":64,"Velocity":68,"Duration":121951,"SoundDuration":121951,"Delta":94527910},{"NoteNumber":67,"Velocity":68,"Duration":121951,"SoundDuration":121951,"Delta":94527910},{"NoteNumber":72,"Velocity":68,"Duration":121951,"SoundDuration":121951,"Delta":94527910},{"NoteNumber":76,"Velocity":75,"Duration":121951,"SoundDuration":121951,"Delta":94527910},{"NoteNumber":48,"Velocity":53,"Duration":121951,"SoundDuration":121951,"Delta":94527910},{"NoteNumber":55,"Velocity":53,"Duration":121951,"SoundDuration":121951,"Delta":94527910},{"NoteNumber":60,"Velocity":60,"Duration":121951,"SoundDuration":121951,"Delta":94527910},{"NoteNumber":67,"Velocity":66,"Duration":123966,"SoundDuration":123966,"Delta":94771812},{"NoteNumber":72,"Velocity":66,"Duration":123966,"SoundDuration":123966,"Delta":94771812},{"NoteNumber":79,"Velocity":73,"Duration":123966,"SoundDuration":123966,"Delta":94771812},{"NoteNumber":52,"Velocity":51,"Duration":123966,"SoundDuration":123966,"Delta":94771812},{"NoteNumber":60,"Velocity":51,"Duration":123966,"SoundDuration":123966,"Delta":94771812},{"NoteNumber":64,"Velocity":58,"Duration":123966,"SoundDuration":123966,"Delta":94771812},{"NoteNumber":67,"Velocity":69,"Duration":858245,"SoundDuration":858245,"Delta":95019746},{"NoteNumber":71,"Velocity":69,"Duration":858245,"SoundDuration":858245,"Delta":95019746},{"NoteNumber":74,"Velocity":78,"Duration":858245,"SoundDuration":858245,"Delta":95019746},{"NoteNumber":62,"Velocity":61,"Duration":858245,"SoundDuration":858245,"Delta":95019746},{"NoteNumber":59,"Velocity":55,"Duration":858245,"SoundDuration":858245,"Delta":95019746},{"NoteNumber":55,"Velocity":55,"Duration":858245,"SoundDuration":858245,"Delta":95019746},{"NoteNumber":71,"Velocity":64,"Duration":201006,"SoundDuration":201006,"Delta":95877992},{"NoteNumber":76,"Velocity":81,"Duration":100120,"SoundDuration":100120,"Delta":95877992},{"NoteNumber":59,"Velocity":58,"Duration":201006,"SoundDuration":201006,"Delta":95877992},{"NoteNumber":55,"Velocity":58,"Duration":201006,"SoundDuration":201006,"Delta":95877992},{"NoteNumber":64,"Velocity":58,"Duration":201006,"SoundDuration":201006,"Delta":95877992},{"NoteNumber":61,"Velocity":58,"Duration":201006,"SoundDuration":201006,"Delta":95877992},{"NoteNumber":74,"Velocity":71,"Duration":100885,"SoundDuration":100885,"Delta":95978113},{"NoteNumber":73,"Velocity":66,"Duration":101787,"SoundDuration":101787,"Delta":96078999},{"NoteNumber":71,"Velocity":59,"Duration":102710,"SoundDuration":102710,"Delta":96180786},{"NoteNumber":62,"Velocity":46,"Duration":102711,"SoundDuration":102711,"Delta":96283496},{"NoteNumber":66,"Velocity":46,"Duration":102711,"SoundDuration":102711,"Delta":96283496},{"NoteNumber":59,"Velocity":46,"Duration":102711,"SoundDuration":102711,"Delta":96283496},{"NoteNumber":79,"Velocity":55,"Duration":25677,"SoundDuration":25677,"Delta":96463241},{"NoteNumber":74,"Velocity":59,"Duration":102711,"SoundDuration":102711,"Delta":96488919},{"NoteNumber":71,"Velocity":59,"Duration":102711,"SoundDuration":102711,"Delta":96488919},{"NoteNumber":78,"Velocity":59,"Duration":102711,"SoundDuration":102711,"Delta":96488919},{"NoteNumber":54,"Velocity":49,"Duration":102711,"SoundDuration":102711,"Delta":96488919},{"NoteNumber":62,"Velocity":48,"Duration":102711,"SoundDuration":102711,"Delta":96694342},{"NoteNumber":66,"Velocity":48,"Duration":102711,"SoundDuration":102711,"Delta":96694342},{"NoteNumber":59,"Velocity":48,"Duration":102711,"SoundDuration":102711,"Delta":96694342},{"NoteNumber":79,"Velocity":55,"Duration":25677,"SoundDuration":25677,"Delta":96874087},{"NoteNumber":74,"Velocity":58,"Duration":102711,"SoundDuration":102711,"Delta":96899765},{"NoteNumber":78,"Velocity":58,"Duration":102711,"SoundDuration":102711,"Delta":96899765},{"NoteNumber":71,"Velocity":58,"Duration":102711,"SoundDuration":102711,"Delta":96899765},{"NoteNumber":54,"Velocity":49,"Duration":102711,"SoundDuration":102711,"Delta":96899765},{"NoteNumber":62,"Velocity":46,"Duration":102711,"SoundDuration":102711,"Delta":97105188},{"NoteNumber":66,"Velocity":46,"Duration":102711,"SoundDuration":102711,"Delta":97105188},{"NoteNumber":59,"Velocity":46,"Duration":102711,"SoundDuration":102711,"Delta":97105188},{"NoteNumber":79,"Velocity":55,"Duration":25677,"SoundDuration":25677,"Delta":97284933},{"NoteNumber":74,"Velocity":59,"Duration":102711,"SoundDuration":102711,"Delta":97310611},{"NoteNumber":78,"Velocity":59,"Duration":102711,"SoundDuration":102711,"Delta":97310611},{"NoteNumber":71,"Velocity":59,"Duration":102711,"SoundDuration":102711,"Delta":97310611},{"NoteNumber":54,"Velocity":49,"Duration":102711,"SoundDuration":102711,"Delta":97310611},{"NoteNumber":71,"Velocity":64,"Duration":201006,"SoundDuration":201006,"Delta":97516034},{"NoteNumber":76,"Velocity":81,"Duration":100120,"SoundDuration":100120,"Delta":97516034},{"NoteNumber":59,"Velocity":58,"Duration":201006,"SoundDuration":201006,"Delta":97516034},{"NoteNumber":55,"Velocity":58,"Duration":201006,"SoundDuration":201006,"Delta":97516034},{"NoteNumber":64,"Velocity":58,"Duration":201006,"SoundDuration":201006,"Delta":97516034},{"NoteNumber":61,"Velocity":58,"Duration":201006,"SoundDuration":201006,"Delta":97516034},{"NoteNumber":74,"Velocity":71,"Duration":100885,"SoundDuration":100885,"Delta":97616155},{"NoteNumber":73,"Velocity":66,"Duration":101787,"SoundDuration":101787,"Delta":97717040},{"NoteNumber":71,"Velocity":59,"Duration":102710,"SoundDuration":102710,"Delta":97818828},{"NoteNumber":62,"Velocity":46,"Duration":102711,"SoundDuration":102711,"Delta":97921538},{"NoteNumber":66,"Velocity":46,"Duration":102711,"SoundDuration":102711,"Delta":97921538},{"NoteNumber":59,"Velocity":46,"Duration":102711,"SoundDuration":102711,"Delta":97921538},{"NoteNumber":79,"Velocity":55,"Duration":25677,"SoundDuration":25677,"Delta":98101283},{"NoteNumber":74,"Velocity":59,"Duration":102711,"SoundDuration":102711,"Delta":98126961},{"NoteNumber":71,"Velocity":59,"Duration":102711,"SoundDuration":102711,"Delta":98126961},{"NoteNumber":78,"Velocity":59,"Duration":102711,"SoundDuration":102711,"Delta":98126961},{"NoteNumber":54,"Velocity":49,"Duration":102711,"SoundDuration":102711,"Delta":98126961},{"NoteNumber":62,"Velocity":48,"Duration":102711,"SoundDuration":102711,"Delta":98332384},{"NoteNumber":66,"Velocity":48,"Duration":102711,"SoundDuration":102711,"Delta":98332384},{"NoteNumber":59,"Velocity":48,"Duration":102711,"SoundDuration":102711,"Delta":98332384},{"NoteNumber":79,"Velocity":55,"Duration":25677,"SoundDuration":25677,"Delta":98512129},{"NoteNumber":74,"Velocity":58,"Duration":102711,"SoundDuration":102711,"Delta":98537807},{"NoteNumber":78,"Velocity":58,"Duration":102711,"SoundDuration":102711,"Delta":98537807},{"NoteNumber":71,"Velocity":58,"Duration":102711,"SoundDuration":102711,"Delta":98537807},{"NoteNumber":54,"Velocity":49,"Duration":102711,"SoundDuration":102711,"Delta":98537807},{"NoteNumber":62,"Velocity":46,"Duration":102711,"SoundDuration":102711,"Delta":98743230},{"NoteNumber":66,"Velocity":46,"Duration":102711,"SoundDuration":102711,"Delta":98743230},{"NoteNumber":59,"Velocity":46,"Duration":102711,"SoundDuration":102711,"Delta":98743230},{"NoteNumber":79,"Velocity":55,"Duration":25677,"SoundDuration":25677,"Delta":98922975},{"NoteNumber":74,"Velocity":59,"Duration":102711,"SoundDuration":102711,"Delta":98948653},{"NoteNumber":78,"Velocity":59,"Duration":102711,"SoundDuration":102711,"Delta":98948653},{"NoteNumber":71,"Velocity":59,"Duration":102711,"SoundDuration":102711,"Delta":98948653},{"NoteNumber":54,"Velocity":49,"Duration":102711,"SoundDuration":102711,"Delta":98948653},{"NoteNumber":71,"Velocity":64,"Duration":201006,"SoundDuration":201006,"Delta":99154076},{"NoteNumber":76,"Velocity":81,"Duration":100120,"SoundDuration":100120,"Delta":99154076},{"NoteNumber":59,"Velocity":58,"Duration":201006,"SoundDuration":201006,"Delta":99154076},{"NoteNumber":55,"Velocity":58,"Duration":201006,"SoundDuration":201006,"Delta":99154076},{"NoteNumber":64,"Velocity":58,"Duration":201006,"SoundDuration":201006,"Delta":99154076},{"NoteNumber":61,"Velocity":58,"Duration":201006,"SoundDuration":201006,"Delta":99154076},{"NoteNumber":74,"Velocity":71,"Duration":100885,"SoundDuration":100885,"Delta":99254196},{"NoteNumber":73,"Velocity":66,"Duration":101787,"SoundDuration":101787,"Delta":99355082},{"NoteNumber":71,"Velocity":59,"Duration":102710,"SoundDuration":102710,"Delta":99456869},{"NoteNumber":63,"Velocity":46,"Duration":102711,"SoundDuration":102711,"Delta":99559580},{"NoteNumber":66,"Velocity":46,"Duration":102711,"SoundDuration":102711,"Delta":99559580},{"NoteNumber":59,"Velocity":46,"Duration":102711,"SoundDuration":102711,"Delta":99559580},{"NoteNumber":80,"Velocity":55,"Duration":25677,"SoundDuration":25677,"Delta":99739325},{"NoteNumber":75,"Velocity":59,"Duration":102711,"SoundDuration":102711,"Delta":99765003},{"NoteNumber":71,"Velocity":59,"Duration":102711,"SoundDuration":102711,"Delta":99765003},{"NoteNumber":78,"Velocity":59,"Duration":102711,"SoundDuration":102711,"Delta":99765003},{"NoteNumber":54,"Velocity":49,"Duration":102711,"SoundDuration":102711,"Delta":99765003},{"NoteNumber":63,"Velocity":48,"Duration":102711,"SoundDuration":102711,"Delta":99970426},{"NoteNumber":66,"Velocity":48,"Duration":102711,"SoundDuration":102711,"Delta":99970426},{"NoteNumber":59,"Velocity":48,"Duration":102711,"SoundDuration":102711,"Delta":99970426},{"NoteNumber":80,"Velocity":55,"Duration":25677,"SoundDuration":25677,"Delta":100150171},{"NoteNumber":75,"Velocity":58,"Duration":102711,"SoundDuration":102711,"Delta":100175849},{"NoteNumber":78,"Velocity":58,"Duration":102711,"SoundDuration":102711,"Delta":100175849},{"NoteNumber":71,"Velocity":58,"Duration":102711,"SoundDuration":102711,"Delta":100175849},{"NoteNumber":54,"Velocity":49,"Duration":102711,"SoundDuration":102711,"Delta":100175849},{"NoteNumber":63,"Velocity":46,"Duration":102711,"SoundDuration":102711,"Delta":100381272},{"NoteNumber":66,"Velocity":46,"Duration":102711,"SoundDuration":102711,"Delta":100381272},{"NoteNumber":59,"Velocity":46,"Duration":102711,"SoundDuration":102711,"Delta":100381272},{"NoteNumber":80,"Velocity":55,"Duration":25677,"SoundDuration":25677,"Delta":100561017},{"NoteNumber":75,"Velocity":59,"Duration":102711,"SoundDuration":102711,"Delta":100586695},{"NoteNumber":78,"Velocity":59,"Duration":102711,"SoundDuration":102711,"Delta":100586695},{"NoteNumber":71,"Velocity":59,"Duration":102711,"SoundDuration":102711,"Delta":100586695},{"NoteNumber":54,"Velocity":49,"Duration":102711,"SoundDuration":102711,"Delta":100586695},{"NoteNumber":59,"Velocity":46,"Duration":102711,"SoundDuration":102711,"Delta":100792118},{"NoteNumber":63,"Velocity":46,"Duration":102711,"SoundDuration":102711,"Delta":100792118},{"NoteNumber":66,"Velocity":46,"Duration":102711,"SoundDuration":102711,"Delta":100792118},{"NoteNumber":80,"Velocity":55,"Duration":25677,"SoundDuration":25677,"Delta":100971863},{"NoteNumber":71,"Velocity":59,"Duration":104529,"SoundDuration":104529,"Delta":100997541},{"NoteNumber":75,"Velocity":59,"Duration":104529,"SoundDuration":104529,"Delta":100997541},{"NoteNumber":78,"Velocity":59,"Duration":104529,"SoundDuration":104529,"Delta":100997541},{"NoteNumber":54,"Velocity":49,"Duration":104529,"SoundDuration":104529,"Delta":100997541},{"NoteNumber":69,"Velocity":46,"Duration":102711,"SoundDuration":102711,"Delta":101206125},{"NoteNumber":71,"Velocity":46,"Duration":102711,"SoundDuration":102711,"Delta":101206125},{"NoteNumber":66,"Velocity":46,"Duration":102711,"SoundDuration":102711,"Delta":101206125},{"NoteNumber":85,"Velocity":55,"Duration":25677,"SoundDuration":25677,"Delta":101385871},{"NoteNumber":75,"Velocity":59,"Duration":102711,"SoundDuration":102711,"Delta":101411548},{"NoteNumber":78,"Velocity":59,"Duration":102711,"SoundDuration":102711,"Delta":101411548},{"NoteNumber":83,"Velocity":59,"Duration":102711,"SoundDuration":102711,"Delta":101411548},{"NoteNumber":59,"Velocity":49,"Duration":102711,"SoundDuration":102711,"Delta":101411548},{"NoteNumber":69,"Velocity":48,"Duration":102711,"SoundDuration":102711,"Delta":101616971},{"NoteNumber":71,"Velocity":48,"Duration":102711,"SoundDuration":102711,"Delta":101616971},{"NoteNumber":66,"Velocity":48,"Duration":102711,"SoundDuration":102711,"Delta":101616971},{"NoteNumber":85,"Velocity":55,"Duration":25677,"SoundDuration":25677,"Delta":101796717},{"NoteNumber":75,"Velocity":58,"Duration":102711,"SoundDuration":102711,"Delta":101822394},{"NoteNumber":83,"Velocity":58,"Duration":102711,"SoundDuration":102711,"Delta":101822394},{"NoteNumber":78,"Velocity":58,"Duration":102711,"SoundDuration":102711,"Delta":101822394},{"NoteNumber":59,"Velocity":49,"Duration":102711,"SoundDuration":102711,"Delta":101822394},{"NoteNumber":69,"Velocity":46,"Duration":102711,"SoundDuration":102711,"Delta":102027817},{"NoteNumber":71,"Velocity":46,"Duration":102711,"SoundDuration":102711,"Delta":102027817},{"NoteNumber":66,"Velocity":46,"Duration":102711,"SoundDuration":102711,"Delta":102027817},{"NoteNumber":85,"Velocity":55,"Duration":25677,"SoundDuration":25677,"Delta":102207563},{"NoteNumber":75,"Velocity":59,"Duration":102711,"SoundDuration":102711,"Delta":102233240},{"NoteNumber":83,"Velocity":59,"Duration":102711,"SoundDuration":102711,"Delta":102233240},{"NoteNumber":78,"Velocity":59,"Duration":102711,"SoundDuration":102711,"Delta":102233240},{"NoteNumber":59,"Velocity":49,"Duration":102711,"SoundDuration":102711,"Delta":102233240},{"NoteNumber":66,"Velocity":46,"Duration":102711,"SoundDuration":102711,"Delta":102438663},{"NoteNumber":69,"Velocity":46,"Duration":102711,"SoundDuration":102711,"Delta":102438663},{"NoteNumber":71,"Velocity":46,"Duration":102711,"SoundDuration":102711,"Delta":102438663},{"NoteNumber":85,"Velocity":55,"Duration":25677,"SoundDuration":25677,"Delta":102618409},{"NoteNumber":83,"Velocity":59,"Duration":104529,"SoundDuration":104529,"Delta":102644086},{"NoteNumber":75,"Velocity":59,"Duration":104529,"SoundDuration":104529,"Delta":102644086},{"NoteNumber":78,"Velocity":59,"Duration":104529,"SoundDuration":104529,"Delta":102644086},{"NoteNumber":59,"Velocity":49,"Duration":104529,"SoundDuration":104529,"Delta":102644086},{"NoteNumber":59,"Velocity":52,"Duration":102739,"SoundDuration":102739,"Delta":102853145},{"NoteNumber":66,"Velocity":52,"Duration":102739,"SoundDuration":102739,"Delta":102853145},{"NoteNumber":69,"Velocity":52,"Duration":102739,"SoundDuration":102739,"Delta":102853145},{"NoteNumber":71,"Velocity":52,"Duration":102739,"SoundDuration":102739,"Delta":102853145},{"NoteNumber":76,"Velocity":59,"Duration":51369,"SoundDuration":51369,"Delta":102955885},{"NoteNumber":74,"Velocity":62,"Duration":51369,"SoundDuration":51369,"Delta":103058625},{"NoteNumber":75,"Velocity":59,"Duration":51903,"SoundDuration":51903,"Delta":103161365},{"NoteNumber":71,"Velocity":63,"Duration":51369,"SoundDuration":51369,"Delta":103265171},{"NoteNumber":76,"Velocity":62,"Duration":51369,"SoundDuration":51369,"Delta":103367911},{"NoteNumber":74,"Velocity":66,"Duration":51369,"SoundDuration":51369,"Delta":103470650},{"NoteNumber":75,"Velocity":62,"Duration":51724,"SoundDuration":51724,"Delta":103573390},{"NoteNumber":63,"Velocity":57,"Duration":102739,"SoundDuration":102739,"Delta":103676838},{"NoteNumber":69,"Velocity":57,"Duration":102739,"SoundDuration":102739,"Delta":103676838},{"NoteNumber":71,"Velocity":57,"Duration":102739,"SoundDuration":102739,"Delta":103676838},{"NoteNumber":80,"Velocity":66,"Duration":51369,"SoundDuration":51369,"Delta":103779578},{"NoteNumber":77,"Velocity":70,"Duration":51369,"SoundDuration":51369,"Delta":103882318},{"NoteNumber":78,"Velocity":66,"Duration":51903,"SoundDuration":51903,"Delta":103985058},{"NoteNumber":71,"Velocity":71,"Duration":51725,"SoundDuration":51725,"Delta":104088864},{"NoteNumber":80,"Velocity":67,"Duration":51369,"SoundDuration":51369,"Delta":104191959},{"NoteNumber":77,"Velocity":73,"Duration":51369,"SoundDuration":51369,"Delta":104294699},{"NoteNumber":78,"Velocity":71,"Duration":51903,"SoundDuration":51903,"Delta":104397439},{"NoteNumber":66,"Velocity":59,"Duration":102739,"SoundDuration":102739,"Delta":104501245},{"NoteNumber":71,"Velocity":59,"Duration":102739,"SoundDuration":102739,"Delta":104501245},{"NoteNumber":75,"Velocity":59,"Duration":102739,"SoundDuration":102739,"Delta":104501245},{"NoteNumber":83,"Velocity":75,"Duration":51369,"SoundDuration":51369,"Delta":104603985},{"NoteNumber":80,"Velocity":80,"Duration":51369,"SoundDuration":51369,"Delta":104706724},{"NoteNumber":81,"Velocity":77,"Duration":51903,"SoundDuration":51903,"Delta":104809464},{"NoteNumber":78,"Velocity":79,"Duration":51369,"SoundDuration":51369,"Delta":104913270},{"NoteNumber":83,"Velocity":71,"Duration":51369,"SoundDuration":51369,"Delta":105016010},{"NoteNumber":80,"Velocity":77,"Duration":51369,"SoundDuration":51369,"Delta":105118750},{"NoteNumber":81,"Velocity":71,"Duration":52083,"SoundDuration":52083,"Delta":105221490},{"NoteNumber":78,"Velocity":76,"Duration":51369,"SoundDuration":51369,"Delta":105325656},{"NoteNumber":83,"Velocity":70,"Duration":51369,"SoundDuration":51369,"Delta":105428396},{"NoteNumber":80,"Velocity":75,"Duration":51369,"SoundDuration":51369,"Delta":105531136},{"NoteNumber":81,"Velocity":69,"Duration":52083,"SoundDuration":52083,"Delta":105633876},{"NoteNumber":78,"Velocity":75,"Duration":51369,"SoundDuration":51369,"Delta":105738042},{"NoteNumber":83,"Velocity":68,"Duration":51369,"SoundDuration":51369,"Delta":105840782},{"NoteNumber":80,"Velocity":73,"Duration":51369,"SoundDuration":51369,"Delta":105943522},{"NoteNumber":81,"Velocity":67,"Duration":51903,"SoundDuration":51903,"Delta":106046262},{"NoteNumber":78,"Velocity":72,"Duration":51428,"SoundDuration":51428,"Delta":106150068},{"NoteNumber":83,"Velocity":65,"Duration":51546,"SoundDuration":51546,"Delta":106253043},{"NoteNumber":80,"Velocity":69,"Duration":51605,"SoundDuration":51605,"Delta":106356136},{"NoteNumber":81,"Velocity":64,"Duration":51724,"SoundDuration":51724,"Delta":106459466},{"NoteNumber":78,"Velocity":65,"Duration":51903,"SoundDuration":51903,"Delta":106562914},{"NoteNumber":83,"Velocity":57,"Duration":51903,"SoundDuration":51903,"Delta":106666720},{"NoteNumber":80,"Velocity":60,"Duration":52083,"SoundDuration":52083,"Delta":106770526},{"NoteNumber":81,"Velocity":55,"Duration":52083,"SoundDuration":52083,"Delta":106874693},{"NoteNumber":78,"Velocity":57,"Duration":52264,"SoundDuration":52264,"Delta":106978981},{"NoteNumber":83,"Velocity":52,"Duration":52325,"SoundDuration":52325,"Delta":107083510},{"NoteNumber":80,"Velocity":54,"Duration":52447,"SoundDuration":52447,"Delta":107188283},{"NoteNumber":81,"Velocity":49,"Duration":52508,"SoundDuration":52508,"Delta":107293178},{"NoteNumber":78,"Velocity":51,"Duration":52631,"SoundDuration":52631,"Delta":107398319},{"NoteNumber":83,"Velocity":45,"Duration":52816,"SoundDuration":52816,"Delta":107503582},{"NoteNumber":80,"Velocity":48,"Duration":52816,"SoundDuration":52816,"Delta":107609216},{"NoteNumber":81,"Velocity":43,"Duration":53003,"SoundDuration":53003,"Delta":107714974},{"NoteNumber":76,"Velocity":44,"Duration":53682,"SoundDuration":53682,"Delta":107826254},{"NoteNumber":61,"Velocity":53,"Duration":107365,"SoundDuration":107365,"Delta":107826254},{"NoteNumber":83,"Velocity":39,"Duration":53682,"SoundDuration":53682,"Delta":107933619},{"NoteNumber":79,"Velocity":44,"Duration":55502,"SoundDuration":55502,"Delta":108040984},{"NoteNumber":59,"Velocity":49,"Duration":111004,"SoundDuration":111004,"Delta":108040984},{"NoteNumber":80,"Velocity":39,"Duration":55502,"SoundDuration":55502,"Delta":108151989},{"NoteNumber":76,"Velocity":44,"Duration":53976,"SoundDuration":53976,"Delta":108262993},{"NoteNumber":64,"Velocity":50,"Duration":868427,"SoundDuration":868427,"Delta":108262993},{"NoteNumber":83,"Velocity":40,"Duration":53976,"SoundDuration":53976,"Delta":108370945},{"NoteNumber":79,"Velocity":44,"Duration":53976,"SoundDuration":53976,"Delta":108478898},{"NoteNumber":80,"Velocity":40,"Duration":53976,"SoundDuration":53976,"Delta":108586850},{"NoteNumber":76,"Velocity":44,"Duration":54577,"SoundDuration":54577,"Delta":108694803},{"NoteNumber":52,"Velocity":37,"Duration":218309,"SoundDuration":218309,"Delta":108694803},{"NoteNumber":59,"Velocity":37,"Duration":218309,"SoundDuration":218309,"Delta":108694803},{"NoteNumber":83,"Velocity":39,"Duration":54577,"SoundDuration":54577,"Delta":108803957},{"NoteNumber":79,"Velocity":44,"Duration":54577,"SoundDuration":54577,"Delta":108913112},{"NoteNumber":80,"Velocity":39,"Duration":54577,"SoundDuration":54577,"Delta":109022266},{"NoteNumber":76,"Velocity":46,"Duration":53682,"SoundDuration":53682,"Delta":109131421},{"NoteNumber":68,"Velocity":52,"Duration":214730,"SoundDuration":214730,"Delta":109131421},{"NoteNumber":83,"Velocity":43,"Duration":53682,"SoundDuration":53682,"Delta":109238786},{"NoteNumber":79,"Velocity":47,"Duration":53682,"SoundDuration":53682,"Delta":109346151},{"NoteNumber":71,"Velocity":50,"Duration":214730,"SoundDuration":214730,"Delta":109346151},{"NoteNumber":80,"Velocity":43,"Duration":53682,"SoundDuration":53682,"Delta":109453517},{"NoteNumber":76,"Velocity":50,"Duration":53682,"SoundDuration":53682,"Delta":109560882},{"NoteNumber":73,"Velocity":55,"Duration":214730,"SoundDuration":214730,"Delta":109560882},{"NoteNumber":83,"Velocity":45,"Duration":53682,"SoundDuration":53682,"Delta":109668247},{"NoteNumber":80,"Velocity":47,"Duration":56788,"SoundDuration":56788,"Delta":109775612},{"NoteNumber":71,"Velocity":49,"Duration":113576,"SoundDuration":113576,"Delta":109775612},{"NoteNumber":85,"Velocity":45,"Duration":56788,"SoundDuration":56788,"Delta":109889189},{"NoteNumber":76,"Velocity":44,"Duration":53682,"SoundDuration":53682,"Delta":110002765},{"NoteNumber":68,"Velocity":51,"Duration":866078,"SoundDuration":866078,"Delta":110002765},{"NoteNumber":83,"Velocity":40,"Duration":53682,"SoundDuration":53682,"Delta":110110130},{"NoteNumber":80,"Velocity":44,"Duration":53682,"SoundDuration":53682,"Delta":110217495},{"NoteNumber":85,"Velocity":40,"Duration":53682,"SoundDuration":53682,"Delta":110324861},{"NoteNumber":76,"Velocity":44,"Duration":54577,"SoundDuration":54577,"Delta":110432226},{"NoteNumber":52,"Velocity":37,"Duration":218309,"SoundDuration":218309,"Delta":110432226},{"NoteNumber":59,"Velocity":37,"Duration":218309,"SoundDuration":218309,"Delta":110432226},{"NoteNumber":83,"Velocity":40,"Duration":54577,"SoundDuration":54577,"Delta":110541380},{"NoteNumber":80,"Velocity":44,"Duration":54577,"SoundDuration":54577,"Delta":110650535},{"NoteNumber":85,"Velocity":40,"Duration":54577,"SoundDuration":54577,"Delta":110759689},{"NoteNumber":76,"Velocity":45,"Duration":54273,"SoundDuration":54273,"Delta":110868844},{"NoteNumber":64,"Velocity":50,"Duration":217092,"SoundDuration":217092,"Delta":110868844},{"NoteNumber":83,"Velocity":43,"Duration":54273,"SoundDuration":54273,"Delta":110977390},{"NoteNumber":80,"Velocity":46,"Duration":54273,"SoundDuration":54273,"Delta":111085936},{"NoteNumber":61,"Velocity":48,"Duration":217092,"SoundDuration":217092,"Delta":111085936},{"NoteNumber":85,"Velocity":43,"Duration":54273,"SoundDuration":54273,"Delta":111194483},{"NoteNumber":78,"Velocity":49,"Duration":54273,"SoundDuration":54273,"Delta":111303029},{"NoteNumber":68,"Velocity":50,"Duration":217092,"SoundDuration":217092,"Delta":111303029},{"NoteNumber":83,"Velocity":40,"Duration":54273,"SoundDuration":54273,"Delta":111411575},{"NoteNumber":81,"Velocity":45,"Duration":55815,"SoundDuration":55815,"Delta":111520121},{"NoteNumber":66,"Velocity":47,"Duration":111632,"SoundDuration":111632,"Delta":111520121},{"NoteNumber":87,"Velocity":40,"Duration":55815,"SoundDuration":55815,"Delta":111631753},{"NoteNumber":78,"Velocity":46,"Duration":53976,"SoundDuration":53976,"Delta":111743385},{"NoteNumber":61,"Velocity":49,"Duration":868427,"SoundDuration":868427,"Delta":111743385},{"NoteNumber":83,"Velocity":44,"Duration":53976,"SoundDuration":53976,"Delta":111851338},{"NoteNumber":81,"Velocity":45,"Duration":53976,"SoundDuration":53976,"Delta":111959290},{"NoteNumber":87,"Velocity":42,"Duration":53976,"SoundDuration":53976,"Delta":112067243},{"NoteNumber":78,"Velocity":47,"Duration":54577,"SoundDuration":54577,"Delta":112175195},{"NoteNumber":54,"Velocity":37,"Duration":218309,"SoundDuration":218309,"Delta":112175195},{"NoteNumber":52,"Velocity":37,"Duration":218309,"SoundDuration":218309,"Delta":112175195},{"NoteNumber":57,"Velocity":37,"Duration":218309,"SoundDuration":218309,"Delta":112175195},{"NoteNumber":83,"Velocity":44,"Duration":54577,"SoundDuration":54577,"Delta":112284350},{"NoteNumber":81,"Velocity":44,"Duration":54577,"SoundDuration":54577,"Delta":112393504},{"NoteNumber":87,"Velocity":43,"Duration":54577,"SoundDuration":54577,"Delta":112502659},{"NoteNumber":78,"Velocity":46,"Duration":53682,"SoundDuration":53682,"Delta":112611813},{"NoteNumber":61,"Velocity":48,"Duration":214730,"SoundDuration":214730,"Delta":112611813},{"NoteNumber":83,"Velocity":43,"Duration":53682,"SoundDuration":53682,"Delta":112719179},{"NoteNumber":81,"Velocity":45,"Duration":53682,"SoundDuration":53682,"Delta":112826544},{"NoteNumber":59,"Velocity":41,"Duration":214730,"SoundDuration":214730,"Delta":112826544},{"NoteNumber":87,"Velocity":42,"Duration":53682,"SoundDuration":53682,"Delta":112933909},{"NoteNumber":81,"Velocity":44,"Duration":54577,"SoundDuration":54577,"Delta":113041274},{"NoteNumber":66,"Velocity":47,"Duration":218309,"SoundDuration":218309,"Delta":113041274},{"NoteNumber":83,"Velocity":40,"Duration":54577,"SoundDuration":54577,"Delta":113150429},{"NoteNumber":80,"Velocity":44,"Duration":55815,"SoundDuration":55815,"Delta":113259583},{"NoteNumber":64,"Velocity":39,"Duration":111632,"SoundDuration":111632,"Delta":113259583},{"NoteNumber":88,"Velocity":40,"Duration":55815,"SoundDuration":55815,"Delta":113371215},{"NoteNumber":79,"Velocity":44,"Duration":54577,"SoundDuration":54577,"Delta":113482847},{"NoteNumber":59,"Velocity":41,"Duration":873236,"SoundDuration":873236,"Delta":113482847},{"NoteNumber":83,"Velocity":40,"Duration":54577,"SoundDuration":54577,"Delta":113592002},{"NoteNumber":80,"Velocity":44,"Duration":54577,"SoundDuration":54577,"Delta":113701156},{"NoteNumber":88,"Velocity":40,"Duration":54577,"SoundDuration":54577,"Delta":113810311},{"NoteNumber":79,"Velocity":44,"Duration":54577,"SoundDuration":54577,"Delta":113919465},{"NoteNumber":52,"Velocity":37,"Duration":218309,"SoundDuration":218309,"Delta":113919465},{"NoteNumber":83,"Velocity":40,"Duration":54577,"SoundDuration":54577,"Delta":114028620},{"NoteNumber":80,"Velocity":44,"Duration":54577,"SoundDuration":54577,"Delta":114137774},{"NoteNumber":88,"Velocity":40,"Duration":54577,"SoundDuration":54577,"Delta":114246929},{"NoteNumber":79,"Velocity":46,"Duration":54577,"SoundDuration":54577,"Delta":114356083},{"NoteNumber":58,"Velocity":48,"Duration":218308,"SoundDuration":218308,"Delta":114356083},{"NoteNumber":85,"Velocity":40,"Duration":54577,"SoundDuration":54577,"Delta":114465238},{"NoteNumber":80,"Velocity":46,"Duration":54577,"SoundDuration":54577,"Delta":114574392},{"NoteNumber":59,"Velocity":47,"Duration":218309,"SoundDuration":218309,"Delta":114574392},{"NoteNumber":83,"Velocity":43,"Duration":54577,"SoundDuration":54577,"Delta":114683547},{"NoteNumber":76,"Velocity":49,"Duration":53682,"SoundDuration":53682,"Delta":114792701},{"NoteNumber":61,"Velocity":53,"Duration":214730,"SoundDuration":214730,"Delta":114792701},{"NoteNumber":83,"Velocity":43,"Duration":53682,"SoundDuration":53682,"Delta":114900067},{"NoteNumber":79,"Velocity":46,"Duration":55502,"SoundDuration":55502,"Delta":115007432},{"NoteNumber":59,"Velocity":49,"Duration":111004,"SoundDuration":111004,"Delta":115007432},{"NoteNumber":80,"Velocity":44,"Duration":55502,"SoundDuration":55502,"Delta":115118436},{"NoteNumber":76,"Velocity":44,"Duration":53976,"SoundDuration":53976,"Delta":115229440},{"NoteNumber":64,"Velocity":50,"Duration":868427,"SoundDuration":868427,"Delta":115229440},{"NoteNumber":83,"Velocity":40,"Duration":53976,"SoundDuration":53976,"Delta":115337393},{"NoteNumber":79,"Velocity":44,"Duration":53976,"SoundDuration":53976,"Delta":115445345},{"NoteNumber":80,"Velocity":40,"Duration":53976,"SoundDuration":53976,"Delta":115553298},{"NoteNumber":76,"Velocity":44,"Duration":54577,"SoundDuration":54577,"Delta":115661250},{"NoteNumber":52,"Velocity":37,"Duration":218309,"SoundDuration":218309,"Delta":115661250},{"NoteNumber":59,"Velocity":37,"Duration":218309,"SoundDuration":218309,"Delta":115661250},{"NoteNumber":83,"Velocity":39,"Duration":54577,"SoundDuration":54577,"Delta":115770405},{"NoteNumber":79,"Velocity":47,"Duration":54577,"SoundDuration":54577,"Delta":115879559},{"NoteNumber":80,"Velocity":43,"Duration":54577,"SoundDuration":54577,"Delta":115988714},{"NoteNumber":76,"Velocity":49,"Duration":53682,"SoundDuration":53682,"Delta":116097868},{"NoteNumber":68,"Velocity":52,"Duration":214730,"SoundDuration":214730,"Delta":116097868},{"NoteNumber":83,"Velocity":44,"Duration":53682,"SoundDuration":53682,"Delta":116205234},{"NoteNumber":79,"Velocity":47,"Duration":53682,"SoundDuration":53682,"Delta":116312599},{"NoteNumber":71,"Velocity":50,"Duration":214730,"SoundDuration":214730,"Delta":116312599},{"NoteNumber":80,"Velocity":44,"Duration":53682,"SoundDuration":53682,"Delta":116419964},{"NoteNumber":76,"Velocity":50,"Duration":53682,"SoundDuration":53682,"Delta":116527329},{"NoteNumber":73,"Velocity":55,"Duration":214730,"SoundDuration":214730,"Delta":116527329},{"NoteNumber":83,"Velocity":44,"Duration":53682,"SoundDuration":53682,"Delta":116634695},{"NoteNumber":80,"Velocity":49,"Duration":56788,"SoundDuration":56788,"Delta":116742060},{"NoteNumber":71,"Velocity":49,"Duration":113576,"SoundDuration":113576,"Delta":116742060},{"NoteNumber":85,"Velocity":44,"Duration":56788,"SoundDuration":56788,"Delta":116855636},{"NoteNumber":76,"Velocity":47,"Duration":53682,"SoundDuration":53682,"Delta":116969212},{"NoteNumber":68,"Velocity":51,"Duration":866078,"SoundDuration":866078,"Delta":116969212},{"NoteNumber":83,"Velocity":43,"Duration":53682,"SoundDuration":53682,"Delta":117076578},{"NoteNumber":80,"Velocity":46,"Duration":53682,"SoundDuration":53682,"Delta":117183943},{"NoteNumber":85,"Velocity":44,"Duration":53682,"SoundDuration":53682,"Delta":117291308},{"NoteNumber":76,"Velocity":44,"Duration":54577,"SoundDuration":54577,"Delta":117398673},{"NoteNumber":52,"Velocity":37,"Duration":218309,"SoundDuration":218309,"Delta":117398673},{"NoteNumber":59,"Velocity":37,"Duration":218309,"SoundDuration":218309,"Delta":117398673},{"NoteNumber":83,"Velocity":40,"Duration":54577,"SoundDuration":54577,"Delta":117507828},{"NoteNumber":80,"Velocity":44,"Duration":54577,"SoundDuration":54577,"Delta":117616982},{"NoteNumber":85,"Velocity":40,"Duration":54577,"SoundDuration":54577,"Delta":117726137},{"NoteNumber":76,"Velocity":45,"Duration":54945,"SoundDuration":54945,"Delta":117835291},{"NoteNumber":64,"Velocity":50,"Duration":219780,"SoundDuration":219780,"Delta":117835291},{"NoteNumber":83,"Velocity":42,"Duration":54945,"SoundDuration":54945,"Delta":117945181},{"NoteNumber":80,"Velocity":45,"Duration":54945,"SoundDuration":54945,"Delta":118055071},{"NoteNumber":61,"Velocity":48,"Duration":219780,"SoundDuration":219780,"Delta":118055071},{"NoteNumber":85,"Velocity":42,"Duration":54945,"SoundDuration":54945,"Delta":118164961},{"NoteNumber":79,"Velocity":45,"Duration":54945,"SoundDuration":54945,"Delta":118274851},{"NoteNumber":51,"Velocity":45,"Duration":219780,"SoundDuration":219780,"Delta":118274851},{"NoteNumber":59,"Velocity":50,"Duration":219780,"SoundDuration":219780,"Delta":118274851},{"NoteNumber":87,"Velocity":42,"Duration":54945,"SoundDuration":54945,"Delta":118384741},{"NoteNumber":80,"Velocity":47,"Duration":57251,"SoundDuration":57251,"Delta":118494631},{"NoteNumber":63,"Velocity":47,"Duration":114503,"SoundDuration":114503,"Delta":118494631},{"NoteNumber":83,"Velocity":43,"Duration":57251,"SoundDuration":57251,"Delta":118609135},{"NoteNumber":79,"Velocity":50,"Duration":54744,"SoundDuration":54744,"Delta":118723639},{"NoteNumber":71,"Velocity":49,"Duration":880759,"SoundDuration":880759,"Delta":118723639},{"NoteNumber":87,"Velocity":44,"Duration":54744,"SoundDuration":54744,"Delta":118833128},{"NoteNumber":80,"Velocity":49,"Duration":54744,"SoundDuration":54744,"Delta":118942617},{"NoteNumber":83,"Velocity":46,"Duration":54744,"SoundDuration":54744,"Delta":119052106},{"NoteNumber":79,"Velocity":44,"Duration":55350,"SoundDuration":55350,"Delta":119161595},{"NoteNumber":63,"Velocity":37,"Duration":221401,"SoundDuration":221401,"Delta":119161595},{"NoteNumber":87,"Velocity":40,"Duration":55350,"SoundDuration":55350,"Delta":119272296},{"NoteNumber":80,"Velocity":44,"Duration":55350,"SoundDuration":55350,"Delta":119382997},{"NoteNumber":83,"Velocity":40,"Duration":55350,"SoundDuration":55350,"Delta":119493698},{"NoteNumber":79,"Velocity":47,"Duration":55970,"SoundDuration":55970,"Delta":119604399},{"NoteNumber":70,"Velocity":48,"Duration":223880,"SoundDuration":223880,"Delta":119604399},{"NoteNumber":87,"Velocity":44,"Duration":55970,"SoundDuration":55970,"Delta":119716339},{"NoteNumber":80,"Velocity":47,"Duration":55798,"SoundDuration":55798,"Delta":119828279},{"NoteNumber":68,"Velocity":41,"Duration":224971,"SoundDuration":224971,"Delta":119828279},{"NoteNumber":83,"Velocity":45,"Duration":56391,"SoundDuration":56391,"Delta":119940469},{"NoteNumber":82,"Velocity":49,"Duration":55762,"SoundDuration":55762,"Delta":120053251},{"NoteNumber":64,"Velocity":48,"Duration":446096,"SoundDuration":446096,"Delta":120053251},{"NoteNumber":91,"Velocity":44,"Duration":55762,"SoundDuration":55762,"Delta":120164775},{"NoteNumber":84,"Velocity":47,"Duration":55762,"SoundDuration":55762,"Delta":120276299},{"NoteNumber":85,"Velocity":44,"Duration":55762,"SoundDuration":55762,"Delta":120387824},{"NoteNumber":82,"Velocity":50,"Duration":56892,"SoundDuration":56892,"Delta":120499348},{"NoteNumber":51,"Velocity":37,"Duration":229306,"SoundDuration":229306,"Delta":120499348},{"NoteNumber":63,"Velocity":48,"Duration":229306,"SoundDuration":229306,"Delta":120499348},{"NoteNumber":91,"Velocity":44,"Duration":57471,"SoundDuration":57471,"Delta":120613712},{"NoteNumber":86,"Velocity":47,"Duration":59055,"SoundDuration":59055,"Delta":120728655},{"NoteNumber":61,"Velocity":41,"Duration":236220,"SoundDuration":236220,"Delta":120728655},{"NoteNumber":87,"Velocity":43,"Duration":59055,"SoundDuration":59055,"Delta":120846765},{"NoteNumber":80,"Velocity":50,"Duration":57692,"SoundDuration":57692,"Delta":120964875},{"NoteNumber":56,"Velocity":34,"Duration":966767,"SoundDuration":966767,"Delta":120964875},{"NoteNumber":61,"Velocity":46,"Duration":230768,"SoundDuration":230768,"Delta":120964875},{"NoteNumber":92,"Velocity":45,"Duration":57692,"SoundDuration":57692,"Delta":121080260},{"NoteNumber":87,"Velocity":46,"Duration":60241,"SoundDuration":60241,"Delta":121195644},{"NoteNumber":59,"Velocity":39,"Duration":240964,"SoundDuration":240964,"Delta":121195644},{"NoteNumber":80,"Velocity":43,"Duration":60241,"SoundDuration":60241,"Delta":121316126},{"NoteNumber":80,"Velocity":45,"Duration":58823,"SoundDuration":58823,"Delta":121436608},{"NoteNumber":58,"Velocity":40,"Duration":235293,"SoundDuration":235293,"Delta":121436608},{"NoteNumber":75,"Velocity":42,"Duration":58823,"SoundDuration":58823,"Delta":121554255},{"NoteNumber":75,"Velocity":44,"Duration":64935,"SoundDuration":64935,"Delta":121671902},{"NoteNumber":59,"Velocity":37,"Duration":259740,"SoundDuration":259740,"Delta":121671902},{"NoteNumber":68,"Velocity":36,"Duration":64935,"SoundDuration":64935,"Delta":121801772},{"NoteNumber":69,"Velocity":61,"Duration":318133,"SoundDuration":318133,"Delta":121931643},{"NoteNumber":42,"Velocity":37,"Duration":159066,"SoundDuration":159066,"Delta":122090709},{"NoteNumber":65,"Velocity":57,"Duration":323589,"SoundDuration":323589,"Delta":122249776},{"NoteNumber":49,"Velocity":35,"Duration":161794,"SoundDuration":161794,"Delta":122249776},{"NoteNumber":54,"Velocity":35,"Duration":161794,"SoundDuration":161794,"Delta":122411571},{"NoteNumber":66,"Velocity":61,"Duration":318133,"SoundDuration":318133,"Delta":122573366},{"NoteNumber":57,"Velocity":37,"Duration":159066,"SoundDuration":159066,"Delta":122573366},{"NoteNumber":61,"Velocity":37,"Duration":159066,"SoundDuration":159066,"Delta":122732432},{"NoteNumber":66,"Velocity":37,"Duration":159066,"SoundDuration":159066,"Delta":122891499},{"NoteNumber":69,"Velocity":40,"Duration":159066,"SoundDuration":159066,"Delta":123050566},{"NoteNumber":73,"Velocity":46,"Duration":159066,"SoundDuration":159066,"Delta":123209633},{"NoteNumber":66,"Velocity":42,"Duration":159965,"SoundDuration":159965,"Delta":123368699},{"NoteNumber":69,"Velocity":49,"Duration":160875,"SoundDuration":160875,"Delta":123528665},{"NoteNumber":73,"Velocity":45,"Duration":162104,"SoundDuration":162104,"Delta":123689540},{"NoteNumber":78,"Velocity":62,"Duration":316355,"SoundDuration":316355,"Delta":123851645},{"NoteNumber":76,"Velocity":60,"Duration":327331,"SoundDuration":327331,"Delta":124168001},{"NoteNumber":76,"Velocity":62,"Duration":318133,"SoundDuration":318133,"Delta":124495333},{"NoteNumber":47,"Velocity":37,"Duration":159066,"SoundDuration":159066,"Delta":124654399},{"NoteNumber":74,"Velocity":60,"Duration":321750,"SoundDuration":321750,"Delta":124813466},{"NoteNumber":54,"Velocity":35,"Duration":160875,"SoundDuration":160875,"Delta":124813466},{"NoteNumber":57,"Velocity":35,"Duration":160875,"SoundDuration":160875,"Delta":124974341},{"NoteNumber":75,"Velocity":62,"Duration":1294487,"SoundDuration":1294487,"Delta":125135217},{"NoteNumber":59,"Velocity":37,"Duration":160875,"SoundDuration":160875,"Delta":125135217},{"NoteNumber":63,"Velocity":37,"Duration":160875,"SoundDuration":160875,"Delta":125296092},{"NoteNumber":66,"Velocity":37,"Duration":160875,"SoundDuration":160875,"Delta":125456967},{"NoteNumber":69,"Velocity":40,"Duration":158193,"SoundDuration":158193,"Delta":125617842},{"NoteNumber":69,"Velocity":44,"Duration":160875,"SoundDuration":160875,"Delta":125778718},{"NoteNumber":63,"Velocity":40,"Duration":160875,"SoundDuration":160875,"Delta":125939593},{"NoteNumber":66,"Velocity":47,"Duration":164618,"SoundDuration":164618,"Delta":126100468},{"NoteNumber":69,"Velocity":45,"Duration":164617,"SoundDuration":164617,"Delta":126265086},{"NoteNumber":73,"Velocity":62,"Duration":323589,"SoundDuration":323589,"Delta":126429704},{"NoteNumber":71,"Velocity":62,"Duration":329235,"SoundDuration":329235,"Delta":126753294},{"NoteNumber":69,"Velocity":61,"Duration":319931,"SoundDuration":319931,"Delta":127082530},{"NoteNumber":42,"Velocity":35,"Duration":159965,"SoundDuration":159965,"Delta":127242495},{"NoteNumber":65,"Velocity":57,"Duration":323589,"SoundDuration":323589,"Delta":127402461},{"NoteNumber":49,"Velocity":38,"Duration":161794,"SoundDuration":161794,"Delta":127402461},{"NoteNumber":54,"Velocity":41,"Duration":161794,"SoundDuration":161794,"Delta":127564256},{"NoteNumber":66,"Velocity":61,"Duration":323589,"SoundDuration":323589,"Delta":127726051},{"NoteNumber":57,"Velocity":45,"Duration":161794,"SoundDuration":161794,"Delta":127726051},{"NoteNumber":61,"Velocity":42,"Duration":161794,"SoundDuration":161794,"Delta":127887845},{"NoteNumber":66,"Velocity":47,"Duration":161794,"SoundDuration":161794,"Delta":128049640},{"NoteNumber":69,"Velocity":51,"Duration":161794,"SoundDuration":161794,"Delta":128211435},{"NoteNumber":73,"Velocity":55,"Duration":159066,"SoundDuration":159066,"Delta":128373230},{"NoteNumber":69,"Velocity":52,"Duration":159965,"SoundDuration":159965,"Delta":128532296},{"NoteNumber":73,"Velocity":54,"Duration":160875,"SoundDuration":160875,"Delta":128692262},{"NoteNumber":78,"Velocity":56,"Duration":162104,"SoundDuration":162104,"Delta":128853137},{"NoteNumber":81,"Velocity":63,"Duration":164617,"SoundDuration":164617,"Delta":129015242},{"NoteNumber":80,"Velocity":61,"Duration":164300,"SoundDuration":164300,"Delta":129234733},{"NoteNumber":78,"Velocity":60,"Duration":163665,"SoundDuration":163665,"Delta":129453589},{"NoteNumber":76,"Velocity":63,"Duration":323589,"SoundDuration":323589,"Delta":129671810},{"NoteNumber":63,"Velocity":33,"Duration":323589,"SoundDuration":323589,"Delta":129995400},{"NoteNumber":69,"Velocity":33,"Duration":323589,"SoundDuration":323589,"Delta":129995400},{"NoteNumber":75,"Velocity":57,"Duration":323589,"SoundDuration":323589,"Delta":129995400},{"NoteNumber":47,"Velocity":28,"Duration":323589,"SoundDuration":323589,"Delta":129995400},{"NoteNumber":54,"Velocity":28,"Duration":323589,"SoundDuration":323589,"Delta":129995400},{"NoteNumber":59,"Velocity":33,"Duration":323589,"SoundDuration":323589,"Delta":129995400},{"NoteNumber":73,"Velocity":63,"Duration":323589,"SoundDuration":323589,"Delta":130318989},{"NoteNumber":64,"Velocity":33,"Duration":323589,"SoundDuration":323589,"Delta":130642579},{"NoteNumber":69,"Velocity":33,"Duration":323589,"SoundDuration":323589,"Delta":130642579},{"NoteNumber":75,"Velocity":56,"Duration":323589,"SoundDuration":323589,"Delta":130642579},{"NoteNumber":49,"Velocity":23,"Duration":323589,"SoundDuration":323589,"Delta":130642579},{"NoteNumber":52,"Velocity":23,"Duration":323589,"SoundDuration":323589,"Delta":130642579},{"NoteNumber":57,"Velocity":33,"Duration":323589,"SoundDuration":323589,"Delta":130642579},{"NoteNumber":73,"Velocity":60,"Duration":323589,"SoundDuration":323589,"Delta":130966168},{"NoteNumber":65,"Velocity":33,"Duration":323589,"SoundDuration":323589,"Delta":131289758},{"NoteNumber":71,"Velocity":52,"Duration":323589,"SoundDuration":323589,"Delta":131289758},{"NoteNumber":50,"Velocity":28,"Duration":323589,"SoundDuration":323589,"Delta":131289758},{"NoteNumber":56,"Velocity":28,"Duration":323589,"SoundDuration":323589,"Delta":131289758},{"NoteNumber":70,"Velocity":56,"Duration":323589,"SoundDuration":323589,"Delta":131613347},{"NoteNumber":66,"Velocity":33,"Duration":327332,"SoundDuration":327332,"Delta":131936937},{"NoteNumber":71,"Velocity":53,"Duration":327332,"SoundDuration":327332,"Delta":131936937},{"NoteNumber":51,"Velocity":28,"Duration":327332,"SoundDuration":327332,"Delta":131936937},{"NoteNumber":57,"Velocity":33,"Duration":327332,"SoundDuration":327332,"Delta":131936937},{"NoteNumber":69,"Velocity":61,"Duration":321750,"SoundDuration":321750,"Delta":132264269},{"NoteNumber":42,"Velocity":37,"Duration":160875,"SoundDuration":160875,"Delta":132425144},{"NoteNumber":65,"Velocity":57,"Duration":323589,"SoundDuration":323589,"Delta":132586019},{"NoteNumber":49,"Velocity":35,"Duration":161794,"SoundDuration":161794,"Delta":132586019},{"NoteNumber":54,"Velocity":35,"Duration":161794,"SoundDuration":161794,"Delta":132747814},{"NoteNumber":66,"Velocity":61,"Duration":318133,"SoundDuration":318133,"Delta":132909609},{"NoteNumber":57,"Velocity":37,"Duration":159066,"SoundDuration":159066,"Delta":132909609},{"NoteNumber":61,"Velocity":37,"Duration":159066,"SoundDuration":159066,"Delta":133068675},{"NoteNumber":66,"Velocity":37,"Duration":159066,"SoundDuration":159066,"Delta":133227742},{"NoteNumber":69,"Velocity":40,"Duration":159066,"SoundDuration":159066,"Delta":133386809},{"NoteNumber":73,"Velocity":45,"Duration":159066,"SoundDuration":159066,"Delta":133545876},{"NoteNumber":66,"Velocity":41,"Duration":159965,"SoundDuration":159965,"Delta":133704942},{"NoteNumber":69,"Velocity":45,"Duration":160875,"SoundDuration":160875,"Delta":133864908},{"NoteNumber":73,"Velocity":43,"Duration":162104,"SoundDuration":162104,"Delta":134025783},{"NoteNumber":78,"Velocity":62,"Duration":316355,"SoundDuration":316355,"Delta":134187888},{"NoteNumber":76,"Velocity":60,"Duration":327332,"SoundDuration":327332,"Delta":134504244},{"NoteNumber":76,"Velocity":62,"Duration":318133,"SoundDuration":318133,"Delta":134831576},{"NoteNumber":47,"Velocity":37,"Duration":159066,"SoundDuration":159066,"Delta":134990643},{"NoteNumber":74,"Velocity":60,"Duration":321750,"SoundDuration":321750,"Delta":135149709},{"NoteNumber":54,"Velocity":35,"Duration":160875,"SoundDuration":160875,"Delta":135149709},{"NoteNumber":57,"Velocity":35,"Duration":160875,"SoundDuration":160875,"Delta":135310585},{"NoteNumber":75,"Velocity":62,"Duration":1294487,"SoundDuration":1294487,"Delta":135471460},{"NoteNumber":59,"Velocity":37,"Duration":160875,"SoundDuration":160875,"Delta":135471460},{"NoteNumber":63,"Velocity":37,"Duration":160875,"SoundDuration":160875,"Delta":135632335},{"NoteNumber":66,"Velocity":37,"Duration":160875,"SoundDuration":160875,"Delta":135793210},{"NoteNumber":69,"Velocity":37,"Duration":160875,"SoundDuration":160875,"Delta":135954086},{"NoteNumber":69,"Velocity":46,"Duration":160875,"SoundDuration":160875,"Delta":136114961},{"NoteNumber":63,"Velocity":41,"Duration":160875,"SoundDuration":160875,"Delta":136275836},{"NoteNumber":66,"Velocity":48,"Duration":164617,"SoundDuration":164617,"Delta":136436711},{"NoteNumber":69,"Velocity":46,"Duration":164618,"SoundDuration":164618,"Delta":136601329},{"NoteNumber":73,"Velocity":62,"Duration":323589,"SoundDuration":323589,"Delta":136765947},{"NoteNumber":71,"Velocity":62,"Duration":329236,"SoundDuration":329236,"Delta":137089537},{"NoteNumber":69,"Velocity":61,"Duration":319931,"SoundDuration":319931,"Delta":137418773},{"NoteNumber":42,"Velocity":35,"Duration":159965,"SoundDuration":159965,"Delta":137578739},{"NoteNumber":65,"Velocity":57,"Duration":323589,"SoundDuration":323589,"Delta":137738704},{"NoteNumber":49,"Velocity":38,"Duration":161794,"SoundDuration":161794,"Delta":137738704},{"NoteNumber":54,"Velocity":41,"Duration":161794,"SoundDuration":161794,"Delta":137900499},{"NoteNumber":66,"Velocity":61,"Duration":323589,"SoundDuration":323589,"Delta":138062294},{"NoteNumber":57,"Velocity":45,"Duration":161794,"SoundDuration":161794,"Delta":138062294},{"NoteNumber":61,"Velocity":42,"Duration":161794,"SoundDuration":161794,"Delta":138224089},{"NoteNumber":66,"Velocity":47,"Duration":161794,"SoundDuration":161794,"Delta":138385883},{"NoteNumber":69,"Velocity":51,"Duration":161794,"SoundDuration":161794,"Delta":138547678},{"NoteNumber":73,"Velocity":48,"Duration":159066,"SoundDuration":159066,"Delta":138709473},{"NoteNumber":69,"Velocity":50,"Duration":159965,"SoundDuration":159965,"Delta":138868540},{"NoteNumber":73,"Velocity":52,"Duration":160875,"SoundDuration":160875,"Delta":139028505},{"NoteNumber":78,"Velocity":54,"Duration":162104,"SoundDuration":162104,"Delta":139189381},{"NoteNumber":81,"Velocity":63,"Duration":219490,"SoundDuration":219490,"Delta":139351485},{"NoteNumber":80,"Velocity":61,"Duration":218856,"SoundDuration":218856,"Delta":139570976},{"NoteNumber":78,"Velocity":60,"Duration":218221,"SoundDuration":218221,"Delta":139789832},{"NoteNumber":76,"Velocity":63,"Duration":321750,"SoundDuration":321750,"Delta":140008053},{"NoteNumber":63,"Velocity":33,"Duration":331162,"SoundDuration":331162,"Delta":140329804},{"NoteNumber":69,"Velocity":33,"Duration":331162,"SoundDuration":331162,"Delta":140329804},{"NoteNumber":75,"Velocity":57,"Duration":331162,"SoundDuration":331162,"Delta":140329804},{"NoteNumber":47,"Velocity":28,"Duration":331162,"SoundDuration":331162,"Delta":140329804},{"NoteNumber":54,"Velocity":33,"Duration":331162,"SoundDuration":331162,"Delta":140329804},{"NoteNumber":59,"Velocity":33,"Duration":331162,"SoundDuration":331162,"Delta":140329804},{"NoteNumber":80,"Velocity":61,"Duration":216966,"SoundDuration":216966,"Delta":140660966},{"NoteNumber":78,"Velocity":58,"Duration":216966,"SoundDuration":216966,"Delta":140877933},{"NoteNumber":76,"Velocity":57,"Duration":216966,"SoundDuration":216966,"Delta":141094900},{"NoteNumber":75,"Velocity":60,"Duration":319931,"SoundDuration":319931,"Delta":141311866},{"NoteNumber":64,"Velocity":27,"Duration":329236,"SoundDuration":329236,"Delta":141631798},{"NoteNumber":69,"Velocity":27,"Duration":329236,"SoundDuration":329236,"Delta":141631798},{"NoteNumber":73,"Velocity":56,"Duration":329236,"SoundDuration":329236,"Delta":141631798},{"NoteNumber":49,"Velocity":22,"Duration":329236,"SoundDuration":329236,"Delta":141631798},{"NoteNumber":52,"Velocity":22,"Duration":329236,"SoundDuration":329236,"Delta":141631798},{"NoteNumber":57,"Velocity":22,"Duration":329236,"SoundDuration":329236,"Delta":141631798},{"NoteNumber":61,"Velocity":27,"Duration":329236,"SoundDuration":329236,"Delta":141631798},{"NoteNumber":78,"Velocity":60,"Duration":216966,"SoundDuration":216966,"Delta":141961034},{"NoteNumber":76,"Velocity":57,"Duration":216966,"SoundDuration":216966,"Delta":142178001},{"NoteNumber":75,"Velocity":57,"Duration":216966,"SoundDuration":216966,"Delta":142394967},{"NoteNumber":73,"Velocity":67,"Duration":323589,"SoundDuration":323589,"Delta":142611934},{"NoteNumber":61,"Velocity":56,"Duration":323589,"SoundDuration":323589,"Delta":142611934},{"NoteNumber":66,"Velocity":35,"Duration":323589,"SoundDuration":323589,"Delta":142935523},{"NoteNumber":69,"Velocity":35,"Duration":323589,"SoundDuration":323589,"Delta":142935523},{"NoteNumber":71,"Velocity":62,"Duration":323589,"SoundDuration":323589,"Delta":142935523},{"NoteNumber":51,"Velocity":35,"Duration":323589,"SoundDuration":323589,"Delta":142935523},{"NoteNumber":54,"Velocity":35,"Duration":323589,"SoundDuration":323589,"Delta":142935523},{"NoteNumber":59,"Velocity":35,"Duration":323589,"SoundDuration":323589,"Delta":142935523},{"NoteNumber":73,"Velocity":71,"Duration":323589,"SoundDuration":323589,"Delta":143259113},{"NoteNumber":61,"Velocity":58,"Duration":323589,"SoundDuration":323589,"Delta":143259113},{"NoteNumber":64,"Velocity":37,"Duration":323589,"SoundDuration":323589,"Delta":143582702},{"NoteNumber":68,"Velocity":37,"Duration":323589,"SoundDuration":323589,"Delta":143582702},{"NoteNumber":71,"Velocity":63,"Duration":323589,"SoundDuration":323589,"Delta":143582702},{"NoteNumber":52,"Velocity":37,"Duration":323589,"SoundDuration":323589,"Delta":143582702},{"NoteNumber":56,"Velocity":37,"Duration":323589,"SoundDuration":323589,"Delta":143582702},{"NoteNumber":59,"Velocity":37,"Duration":323589,"SoundDuration":323589,"Delta":143582702},{"NoteNumber":73,"Velocity":74,"Duration":327331,"SoundDuration":327331,"Delta":143906292},{"NoteNumber":61,"Velocity":61,"Duration":327331,"SoundDuration":327331,"Delta":143906292},{"NoteNumber":62,"Velocity":40,"Duration":327332,"SoundDuration":327332,"Delta":144233624},{"NoteNumber":68,"Velocity":40,"Duration":327332,"SoundDuration":327332,"Delta":144233624},{"NoteNumber":71,"Velocity":68,"Duration":327332,"SoundDuration":327332,"Delta":144233624},{"NoteNumber":53,"Velocity":40,"Duration":327332,"SoundDuration":327332,"Delta":144233624},{"NoteNumber":56,"Velocity":40,"Duration":327332,"SoundDuration":327332,"Delta":144233624},{"NoteNumber":59,"Velocity":40,"Duration":327332,"SoundDuration":327332,"Delta":144233624},{"NoteNumber":73,"Velocity":75,"Duration":335082,"SoundDuration":335082,"Delta":144560956},{"NoteNumber":61,"Velocity":61,"Duration":335082,"SoundDuration":335082,"Delta":144560956},{"NoteNumber":63,"Velocity":46,"Duration":335082,"SoundDuration":335082,"Delta":144896039},{"NoteNumber":69,"Velocity":46,"Duration":335082,"SoundDuration":335082,"Delta":144896039},{"NoteNumber":71,"Velocity":75,"Duration":335082,"SoundDuration":335082,"Delta":144896039},{"NoteNumber":54,"Velocity":46,"Duration":335082,"SoundDuration":335082,"Delta":144896039},{"NoteNumber":59,"Velocity":46,"Duration":335082,"SoundDuration":335082,"Delta":144896039},{"NoteNumber":69,"Velocity":59,"Duration":51428,"SoundDuration":51428,"Delta":145231122},{"NoteNumber":73,"Velocity":53,"Duration":51546,"SoundDuration":51546,"Delta":145334097},{"NoteNumber":70,"Velocity":59,"Duration":51546,"SoundDuration":51546,"Delta":145437190},{"NoteNumber":51,"Velocity":45,"Duration":103092,"SoundDuration":103092,"Delta":145437190},{"NoteNumber":71,"Velocity":55,"Duration":51546,"SoundDuration":51546,"Delta":145540282},{"NoteNumber":69,"Velocity":59,"Duration":51546,"SoundDuration":51546,"Delta":145643375},{"NoteNumber":66,"Velocity":45,"Duration":103092,"SoundDuration":103092,"Delta":145643375},{"NoteNumber":57,"Velocity":45,"Duration":103092,"SoundDuration":103092,"Delta":145643375},{"NoteNumber":59,"Velocity":45,"Duration":103092,"SoundDuration":103092,"Delta":145643375},{"NoteNumber":73,"Velocity":55,"Duration":51546,"SoundDuration":51546,"Delta":145746468},{"NoteNumber":70,"Velocity":59,"Duration":51546,"SoundDuration":51546,"Delta":145849561},{"NoteNumber":71,"Velocity":53,"Duration":51546,"SoundDuration":51546,"Delta":145952653},{"NoteNumber":69,"Velocity":59,"Duration":51546,"SoundDuration":51546,"Delta":146055746},{"NoteNumber":76,"Velocity":55,"Duration":51546,"SoundDuration":51546,"Delta":146158839},{"NoteNumber":74,"Velocity":59,"Duration":51546,"SoundDuration":51546,"Delta":146261932},{"NoteNumber":47,"Velocity":45,"Duration":103092,"SoundDuration":103092,"Delta":146261932},{"NoteNumber":75,"Velocity":53,"Duration":51546,"SoundDuration":51546,"Delta":146365024},{"NoteNumber":69,"Velocity":60,"Duration":51546,"SoundDuration":51546,"Delta":146468117},{"NoteNumber":66,"Velocity":45,"Duration":103092,"SoundDuration":103092,"Delta":146468117},{"NoteNumber":57,"Velocity":45,"Duration":103092,"SoundDuration":103092,"Delta":146468117},{"NoteNumber":59,"Velocity":45,"Duration":103092,"SoundDuration":103092,"Delta":146468117},{"NoteNumber":76,"Velocity":56,"Duration":51546,"SoundDuration":51546,"Delta":146571210},{"NoteNumber":74,"Velocity":59,"Duration":51546,"SoundDuration":51546,"Delta":146674303},{"NoteNumber":75,"Velocity":53,"Duration":51546,"SoundDuration":51546,"Delta":146777395},{"NoteNumber":75,"Velocity":53,"Duration":56092,"SoundDuration":56092,"Delta":146887194},{"NoteNumber":80,"Velocity":47,"Duration":51546,"SoundDuration":51546,"Delta":146994833},{"NoteNumber":77,"Velocity":51,"Duration":51605,"SoundDuration":51605,"Delta":147097926},{"NoteNumber":78,"Velocity":47,"Duration":51724,"SoundDuration":51724,"Delta":147201255},{"NoteNumber":75,"Velocity":50,"Duration":51903,"SoundDuration":51903,"Delta":147304704},{"NoteNumber":80,"Velocity":46,"Duration":51903,"SoundDuration":51903,"Delta":147408510},{"NoteNumber":77,"Velocity":49,"Duration":52083,"SoundDuration":52083,"Delta":147512316},{"NoteNumber":78,"Velocity":43,"Duration":52083,"SoundDuration":52083,"Delta":147616483},{"NoteNumber":78,"Velocity":48,"Duration":52264,"SoundDuration":52264,"Delta":147720771},{"NoteNumber":83,"Velocity":44,"Duration":52325,"SoundDuration":52325,"Delta":147825300},{"NoteNumber":80,"Velocity":47,"Duration":52447,"SoundDuration":52447,"Delta":147930073},{"NoteNumber":81,"Velocity":41,"Duration":52508,"SoundDuration":52508,"Delta":148034968},{"NoteNumber":78,"Velocity":46,"Duration":52631,"SoundDuration":52631,"Delta":148140109},{"NoteNumber":83,"Velocity":43,"Duration":52816,"SoundDuration":52816,"Delta":148245372},{"NoteNumber":80,"Velocity":44,"Duration":52816,"SoundDuration":52816,"Delta":148351006},{"NoteNumber":81,"Velocity":42,"Duration":53003,"SoundDuration":53003,"Delta":148456764},{"NoteNumber":76,"Velocity":44,"Duration":53682,"SoundDuration":53682,"Delta":148568044},{"NoteNumber":61,"Velocity":53,"Duration":107365,"SoundDuration":107365,"Delta":148568044},{"NoteNumber":83,"Velocity":39,"Duration":53682,"SoundDuration":53682,"Delta":148675409},{"NoteNumber":79,"Velocity":44,"Duration":55502,"SoundDuration":55502,"Delta":148782774},{"NoteNumber":59,"Velocity":49,"Duration":111004,"SoundDuration":111004,"Delta":148782774},{"NoteNumber":80,"Velocity":39,"Duration":55502,"SoundDuration":55502,"Delta":148893779},{"NoteNumber":76,"Velocity":44,"Duration":53976,"SoundDuration":53976,"Delta":149004783},{"NoteNumber":64,"Velocity":50,"Duration":868428,"SoundDuration":868428,"Delta":149004783},{"NoteNumber":83,"Velocity":40,"Duration":53976,"SoundDuration":53976,"Delta":149112735},{"NoteNumber":79,"Velocity":44,"Duration":53976,"SoundDuration":53976,"Delta":149220688},{"NoteNumber":80,"Velocity":40,"Duration":53976,"SoundDuration":53976,"Delta":149328640},{"NoteNumber":76,"Velocity":44,"Duration":54577,"SoundDuration":54577,"Delta":149436593},{"NoteNumber":52,"Velocity":37,"Duration":218309,"SoundDuration":218309,"Delta":149436593},{"NoteNumber":59,"Velocity":37,"Duration":218309,"SoundDuration":218309,"Delta":149436593},{"NoteNumber":83,"Velocity":39,"Duration":54577,"SoundDuration":54577,"Delta":149545747},{"NoteNumber":79,"Velocity":44,"Duration":54577,"SoundDuration":54577,"Delta":149654902},{"NoteNumber":80,"Velocity":39,"Duration":54577,"SoundDuration":54577,"Delta":149764056},{"NoteNumber":76,"Velocity":46,"Duration":53682,"SoundDuration":53682,"Delta":149873211},{"NoteNumber":68,"Velocity":52,"Duration":214730,"SoundDuration":214730,"Delta":149873211},{"NoteNumber":83,"Velocity":43,"Duration":53682,"SoundDuration":53682,"Delta":149980576},{"NoteNumber":79,"Velocity":47,"Duration":53682,"SoundDuration":53682,"Delta":150087941},{"NoteNumber":71,"Velocity":50,"Duration":214730,"SoundDuration":214730,"Delta":150087941},{"NoteNumber":80,"Velocity":43,"Duration":53682,"SoundDuration":53682,"Delta":150195307},{"NoteNumber":76,"Velocity":50,"Duration":53682,"SoundDuration":53682,"Delta":150302672},{"NoteNumber":73,"Velocity":55,"Duration":214730,"SoundDuration":214730,"Delta":150302672},{"NoteNumber":83,"Velocity":45,"Duration":53682,"SoundDuration":53682,"Delta":150410037},{"NoteNumber":80,"Velocity":47,"Duration":56788,"SoundDuration":56788,"Delta":150517402},{"NoteNumber":71,"Velocity":49,"Duration":113576,"SoundDuration":113576,"Delta":150517402},{"NoteNumber":85,"Velocity":45,"Duration":56788,"SoundDuration":56788,"Delta":150630979},{"NoteNumber":76,"Velocity":44,"Duration":53682,"SoundDuration":53682,"Delta":150744555},{"NoteNumber":68,"Velocity":51,"Duration":866079,"SoundDuration":866079,"Delta":150744555},{"NoteNumber":83,"Velocity":40,"Duration":53682,"SoundDuration":53682,"Delta":150851920},{"NoteNumber":80,"Velocity":44,"Duration":53682,"SoundDuration":53682,"Delta":150959285},{"NoteNumber":85,"Velocity":40,"Duration":53682,"SoundDuration":53682,"Delta":151066651},{"NoteNumber":76,"Velocity":44,"Duration":54577,"SoundDuration":54577,"Delta":151174016},{"NoteNumber":52,"Velocity":37,"Duration":218309,"SoundDuration":218309,"Delta":151174016},{"NoteNumber":59,"Velocity":37,"Duration":218309,"SoundDuration":218309,"Delta":151174016},{"NoteNumber":83,"Velocity":40,"Duration":54577,"SoundDuration":54577,"Delta":151283170},{"NoteNumber":80,"Velocity":44,"Duration":54577,"SoundDuration":54577,"Delta":151392325},{"NoteNumber":85,"Velocity":40,"Duration":54577,"SoundDuration":54577,"Delta":151501479},{"NoteNumber":76,"Velocity":45,"Duration":54273,"SoundDuration":54273,"Delta":151610634},{"NoteNumber":64,"Velocity":50,"Duration":217092,"SoundDuration":217092,"Delta":151610634},{"NoteNumber":83,"Velocity":43,"Duration":54273,"SoundDuration":54273,"Delta":151719180},{"NoteNumber":80,"Velocity":46,"Duration":54273,"SoundDuration":54273,"Delta":151827726},{"NoteNumber":61,"Velocity":48,"Duration":217092,"SoundDuration":217092,"Delta":151827726},{"NoteNumber":85,"Velocity":43,"Duration":54273,"SoundDuration":54273,"Delta":151936273},{"NoteNumber":78,"Velocity":49,"Duration":54273,"SoundDuration":54273,"Delta":152044819},{"NoteNumber":68,"Velocity":50,"Duration":217092,"SoundDuration":217092,"Delta":152044819},{"NoteNumber":83,"Velocity":40,"Duration":54273,"SoundDuration":54273,"Delta":152153365},{"NoteNumber":81,"Velocity":45,"Duration":55815,"SoundDuration":55815,"Delta":152261911},{"NoteNumber":66,"Velocity":47,"Duration":111631,"SoundDuration":111631,"Delta":152261911},{"NoteNumber":87,"Velocity":40,"Duration":55816,"SoundDuration":55816,"Delta":152373543},{"NoteNumber":78,"Velocity":46,"Duration":53976,"SoundDuration":53976,"Delta":152485175},{"NoteNumber":61,"Velocity":49,"Duration":868428,"SoundDuration":868428,"Delta":152485175},{"NoteNumber":83,"Velocity":44,"Duration":53976,"SoundDuration":53976,"Delta":152593128},{"NoteNumber":81,"Velocity":45,"Duration":53976,"SoundDuration":53976,"Delta":152701080},{"NoteNumber":87,"Velocity":42,"Duration":53976,"SoundDuration":53976,"Delta":152809033},{"NoteNumber":78,"Velocity":47,"Duration":54577,"SoundDuration":54577,"Delta":152916985},{"NoteNumber":54,"Velocity":37,"Duration":218309,"SoundDuration":218309,"Delta":152916985},{"NoteNumber":52,"Velocity":37,"Duration":218309,"SoundDuration":218309,"Delta":152916985},{"NoteNumber":57,"Velocity":37,"Duration":218309,"SoundDuration":218309,"Delta":152916985},{"NoteNumber":83,"Velocity":44,"Duration":54577,"SoundDuration":54577,"Delta":153026140},{"NoteNumber":81,"Velocity":44,"Duration":54577,"SoundDuration":54577,"Delta":153135294},{"NoteNumber":87,"Velocity":43,"Duration":54577,"SoundDuration":54577,"Delta":153244449},{"NoteNumber":78,"Velocity":46,"Duration":53682,"SoundDuration":53682,"Delta":153353603},{"NoteNumber":61,"Velocity":48,"Duration":214730,"SoundDuration":214730,"Delta":153353603},{"NoteNumber":83,"Velocity":43,"Duration":53682,"SoundDuration":53682,"Delta":153460969},{"NoteNumber":81,"Velocity":45,"Duration":53682,"SoundDuration":53682,"Delta":153568334},{"NoteNumber":59,"Velocity":41,"Duration":214730,"SoundDuration":214730,"Delta":153568334},{"NoteNumber":87,"Velocity":42,"Duration":53682,"SoundDuration":53682,"Delta":153675699},{"NoteNumber":81,"Velocity":44,"Duration":54577,"SoundDuration":54577,"Delta":153783064},{"NoteNumber":66,"Velocity":47,"Duration":218309,"SoundDuration":218309,"Delta":153783064},{"NoteNumber":83,"Velocity":40,"Duration":54577,"SoundDuration":54577,"Delta":153892219},{"NoteNumber":80,"Velocity":44,"Duration":55815,"SoundDuration":55815,"Delta":154001373},{"NoteNumber":64,"Velocity":39,"Duration":111631,"SoundDuration":111631,"Delta":154001373},{"NoteNumber":88,"Velocity":40,"Duration":55816,"SoundDuration":55816,"Delta":154113005},{"NoteNumber":79,"Velocity":44,"Duration":54577,"SoundDuration":54577,"Delta":154224637},{"NoteNumber":59,"Velocity":41,"Duration":873235,"SoundDuration":873235,"Delta":154224637},{"NoteNumber":83,"Velocity":40,"Duration":54577,"SoundDuration":54577,"Delta":154333792},{"NoteNumber":80,"Velocity":44,"Duration":54577,"SoundDuration":54577,"Delta":154442946},{"NoteNumber":88,"Velocity":40,"Duration":54577,"SoundDuration":54577,"Delta":154552101},{"NoteNumber":79,"Velocity":44,"Duration":54577,"SoundDuration":54577,"Delta":154661255},{"NoteNumber":52,"Velocity":37,"Duration":218308,"SoundDuration":218308,"Delta":154661255},{"NoteNumber":83,"Velocity":40,"Duration":54577,"SoundDuration":54577,"Delta":154770410},{"NoteNumber":80,"Velocity":44,"Duration":54577,"SoundDuration":54577,"Delta":154879564},{"NoteNumber":88,"Velocity":40,"Duration":54577,"SoundDuration":54577,"Delta":154988719},{"NoteNumber":79,"Velocity":46,"Duration":54577,"SoundDuration":54577,"Delta":155097873},{"NoteNumber":58,"Velocity":48,"Duration":218309,"SoundDuration":218309,"Delta":155097873},{"NoteNumber":85,"Velocity":40,"Duration":54577,"SoundDuration":54577,"Delta":155207028},{"NoteNumber":80,"Velocity":46,"Duration":54577,"SoundDuration":54577,"Delta":155316182},{"NoteNumber":59,"Velocity":47,"Duration":218309,"SoundDuration":218309,"Delta":155316182},{"NoteNumber":83,"Velocity":43,"Duration":54577,"SoundDuration":54577,"Delta":155425337},{"NoteNumber":76,"Velocity":49,"Duration":53682,"SoundDuration":53682,"Delta":155534491},{"NoteNumber":61,"Velocity":53,"Duration":214730,"SoundDuration":214730,"Delta":155534491},{"NoteNumber":83,"Velocity":43,"Duration":53682,"SoundDuration":53682,"Delta":155641857},{"NoteNumber":79,"Velocity":46,"Duration":55502,"SoundDuration":55502,"Delta":155749222},{"NoteNumber":59,"Velocity":49,"Duration":111004,"SoundDuration":111004,"Delta":155749222},{"NoteNumber":80,"Velocity":44,"Duration":55502,"SoundDuration":55502,"Delta":155860226},{"NoteNumber":76,"Velocity":44,"Duration":53976,"SoundDuration":53976,"Delta":155971230},{"NoteNumber":64,"Velocity":50,"Duration":868428,"SoundDuration":868428,"Delta":155971230},{"NoteNumber":83,"Velocity":40,"Duration":53976,"SoundDuration":53976,"Delta":156079183},{"NoteNumber":79,"Velocity":44,"Duration":53976,"SoundDuration":53976,"Delta":156187135},{"NoteNumber":80,"Velocity":40,"Duration":53976,"SoundDuration":53976,"Delta":156295088},{"NoteNumber":76,"Velocity":44,"Duration":54577,"SoundDuration":54577,"Delta":156403040},{"NoteNumber":52,"Velocity":37,"Duration":218309,"SoundDuration":218309,"Delta":156403040},{"NoteNumber":59,"Velocity":37,"Duration":218309,"SoundDuration":218309,"Delta":156403040},{"NoteNumber":83,"Velocity":39,"Duration":54577,"SoundDuration":54577,"Delta":156512195},{"NoteNumber":79,"Velocity":47,"Duration":54577,"SoundDuration":54577,"Delta":156621349},{"NoteNumber":80,"Velocity":43,"Duration":54577,"SoundDuration":54577,"Delta":156730504},{"NoteNumber":76,"Velocity":49,"Duration":53682,"SoundDuration":53682,"Delta":156839658},{"NoteNumber":68,"Velocity":52,"Duration":214730,"SoundDuration":214730,"Delta":156839658},{"NoteNumber":83,"Velocity":44,"Duration":53682,"SoundDuration":53682,"Delta":156947024},{"NoteNumber":79,"Velocity":47,"Duration":53682,"SoundDuration":53682,"Delta":157054389},{"NoteNumber":71,"Velocity":50,"Duration":214730,"SoundDuration":214730,"Delta":157054389},{"NoteNumber":80,"Velocity":44,"Duration":53682,"SoundDuration":53682,"Delta":157161754},{"NoteNumber":76,"Velocity":50,"Duration":53682,"SoundDuration":53682,"Delta":157269119},{"NoteNumber":73,"Velocity":55,"Duration":214730,"SoundDuration":214730,"Delta":157269119},{"NoteNumber":83,"Velocity":44,"Duration":53682,"SoundDuration":53682,"Delta":157376485},{"NoteNumber":80,"Velocity":49,"Duration":54945,"SoundDuration":54945,"Delta":157483850},{"NoteNumber":71,"Velocity":49,"Duration":109890,"SoundDuration":109890,"Delta":157483850},{"NoteNumber":85,"Velocity":44,"Duration":54945,"SoundDuration":54945,"Delta":157593740},{"NoteNumber":76,"Velocity":47,"Duration":53682,"SoundDuration":53682,"Delta":157703630},{"NoteNumber":68,"Velocity":51,"Duration":866079,"SoundDuration":866079,"Delta":157703630},{"NoteNumber":83,"Velocity":43,"Duration":53682,"SoundDuration":53682,"Delta":157810995},{"NoteNumber":80,"Velocity":46,"Duration":53682,"SoundDuration":53682,"Delta":157918360},{"NoteNumber":85,"Velocity":44,"Duration":53682,"SoundDuration":53682,"Delta":158025726},{"NoteNumber":76,"Velocity":44,"Duration":54577,"SoundDuration":54577,"Delta":158133091},{"NoteNumber":52,"Velocity":37,"Duration":218309,"SoundDuration":218309,"Delta":158133091},{"NoteNumber":59,"Velocity":37,"Duration":218309,"SoundDuration":218309,"Delta":158133091},{"NoteNumber":83,"Velocity":40,"Duration":54577,"SoundDuration":54577,"Delta":158242245},{"NoteNumber":80,"Velocity":44,"Duration":54577,"SoundDuration":54577,"Delta":158351400},{"NoteNumber":85,"Velocity":40,"Duration":54577,"SoundDuration":54577,"Delta":158460554},{"NoteNumber":76,"Velocity":45,"Duration":54151,"SoundDuration":54151,"Delta":158569709},{"NoteNumber":64,"Velocity":50,"Duration":216606,"SoundDuration":216606,"Delta":158569709},{"NoteNumber":83,"Velocity":42,"Duration":54151,"SoundDuration":54151,"Delta":158678012},{"NoteNumber":80,"Velocity":45,"Duration":54151,"SoundDuration":54151,"Delta":158786315},{"NoteNumber":61,"Velocity":48,"Duration":216606,"SoundDuration":216606,"Delta":158786315},{"NoteNumber":85,"Velocity":42,"Duration":54151,"SoundDuration":54151,"Delta":158894619},{"NoteNumber":78,"Velocity":45,"Duration":54151,"SoundDuration":54151,"Delta":159002922},{"NoteNumber":68,"Velocity":50,"Duration":216606,"SoundDuration":216606,"Delta":159002922},{"NoteNumber":83,"Velocity":42,"Duration":54151,"SoundDuration":54151,"Delta":159111225},{"NoteNumber":81,"Velocity":47,"Duration":54945,"SoundDuration":54945,"Delta":159219528},{"NoteNumber":66,"Velocity":47,"Duration":109890,"SoundDuration":109890,"Delta":159219528},{"NoteNumber":87,"Velocity":43,"Duration":54945,"SoundDuration":54945,"Delta":159329418},{"NoteNumber":78,"Velocity":47,"Duration":54151,"SoundDuration":54151,"Delta":159439308},{"NoteNumber":61,"Velocity":49,"Duration":871169,"SoundDuration":871169,"Delta":159439308},{"NoteNumber":83,"Velocity":44,"Duration":54151,"SoundDuration":54151,"Delta":159547612},{"NoteNumber":81,"Velocity":46,"Duration":54151,"SoundDuration":54151,"Delta":159655915},{"NoteNumber":87,"Velocity":42,"Duration":54151,"SoundDuration":54151,"Delta":159764218},{"NoteNumber":78,"Velocity":44,"Duration":54744,"SoundDuration":54744,"Delta":159872521},{"NoteNumber":52,"Velocity":37,"Duration":218977,"SoundDuration":218977,"Delta":159872521},{"NoteNumber":54,"Velocity":37,"Duration":218977,"SoundDuration":218977,"Delta":159872521},{"NoteNumber":57,"Velocity":37,"Duration":218977,"SoundDuration":218977,"Delta":159872521},{"NoteNumber":83,"Velocity":40,"Duration":54744,"SoundDuration":54744,"Delta":159982010},{"NoteNumber":81,"Velocity":44,"Duration":54744,"SoundDuration":54744,"Delta":160091499},{"NoteNumber":87,"Velocity":40,"Duration":54744,"SoundDuration":54744,"Delta":160200988},{"NoteNumber":78,"Velocity":47,"Duration":54151,"SoundDuration":54151,"Delta":160310477},{"NoteNumber":61,"Velocity":48,"Duration":216606,"SoundDuration":216606,"Delta":160310477},{"NoteNumber":83,"Velocity":44,"Duration":54151,"SoundDuration":54151,"Delta":160418781},{"NoteNumber":81,"Velocity":47,"Duration":55147,"SoundDuration":55147,"Delta":160527084},{"NoteNumber":59,"Velocity":41,"Duration":220587,"SoundDuration":220587,"Delta":160527084},{"NoteNumber":87,"Velocity":45,"Duration":55146,"SoundDuration":55146,"Delta":160637378},{"NoteNumber":81,"Velocity":49,"Duration":54347,"SoundDuration":54347,"Delta":160747672},{"NoteNumber":66,"Velocity":48,"Duration":217391,"SoundDuration":217391,"Delta":160747672},{"NoteNumber":83,"Velocity":44,"Duration":54347,"SoundDuration":54347,"Delta":160856368},{"NoteNumber":80,"Velocity":47,"Duration":54347,"SoundDuration":54347,"Delta":160965063},{"NoteNumber":64,"Velocity":41,"Duration":108695,"SoundDuration":108695,"Delta":160965063},{"NoteNumber":88,"Velocity":44,"Duration":54347,"SoundDuration":54347,"Delta":161073759},{"NoteNumber":79,"Velocity":50,"Duration":54347,"SoundDuration":54347,"Delta":161182455},{"NoteNumber":59,"Velocity":48,"Duration":884988,"SoundDuration":884988,"Delta":161182455},{"NoteNumber":83,"Velocity":44,"Duration":54347,"SoundDuration":54347,"Delta":161291151},{"NoteNumber":80,"Velocity":47,"Duration":54945,"SoundDuration":54945,"Delta":161399846},{"NoteNumber":88,"Velocity":43,"Duration":54945,"SoundDuration":54945,"Delta":161509736},{"NoteNumber":79,"Velocity":50,"Duration":55350,"SoundDuration":55350,"Delta":161619626},{"NoteNumber":52,"Velocity":41,"Duration":221402,"SoundDuration":221402,"Delta":161619626},{"NoteNumber":83,"Velocity":45,"Duration":55350,"SoundDuration":55350,"Delta":161730327},{"NoteNumber":80,"Velocity":46,"Duration":56603,"SoundDuration":56603,"Delta":161841028},{"NoteNumber":88,"Velocity":43,"Duration":56603,"SoundDuration":56603,"Delta":161954236},{"NoteNumber":79,"Velocity":45,"Duration":55350,"SoundDuration":55350,"Delta":162067443},{"NoteNumber":58,"Velocity":40,"Duration":221402,"SoundDuration":221402,"Delta":162067443},{"NoteNumber":85,"Velocity":42,"Duration":55350,"SoundDuration":55350,"Delta":162178144},{"NoteNumber":80,"Velocity":44,"Duration":55350,"SoundDuration":55350,"Delta":162288845},{"NoteNumber":59,"Velocity":37,"Duration":221401,"SoundDuration":221401,"Delta":162288845},{"NoteNumber":83,"Velocity":36,"Duration":55350,"SoundDuration":55350,"Delta":162399546},{"NoteNumber":76,"Velocity":49,"Duration":54347,"SoundDuration":54347,"Delta":162510247},{"NoteNumber":61,"Velocity":42,"Duration":217391,"SoundDuration":217391,"Delta":162510247},{"NoteNumber":83,"Velocity":44,"Duration":54347,"SoundDuration":54347,"Delta":162618943},{"NoteNumber":79,"Velocity":47,"Duration":54347,"SoundDuration":54347,"Delta":162727639},{"NoteNumber":59,"Velocity":39,"Duration":108695,"SoundDuration":108695,"Delta":162727639},{"NoteNumber":80,"Velocity":44,"Duration":54347,"SoundDuration":54347,"Delta":162836335},{"NoteNumber":71,"Velocity":47,"Duration":54347,"SoundDuration":54347,"Delta":162945030},{"NoteNumber":56,"Velocity":42,"Duration":884988,"SoundDuration":884988,"Delta":162945030},{"NoteNumber":76,"Velocity":44,"Duration":54347,"SoundDuration":54347,"Delta":163053726},{"NoteNumber":75,"Velocity":47,"Duration":54945,"SoundDuration":54945,"Delta":163162422},{"NoteNumber":76,"Velocity":43,"Duration":54945,"SoundDuration":54945,"Delta":163272312},{"NoteNumber":71,"Velocity":46,"Duration":55350,"SoundDuration":55350,"Delta":163382202},{"NoteNumber":52,"Velocity":39,"Duration":1108012,"SoundDuration":1108012,"Delta":163382202},{"NoteNumber":76,"Velocity":43,"Duration":55350,"SoundDuration":55350,"Delta":163492903},{"NoteNumber":75,"Velocity":45,"Duration":56603,"SoundDuration":56603,"Delta":163603604},{"NoteNumber":76,"Velocity":43,"Duration":56603,"SoundDuration":56603,"Delta":163716811},{"NoteNumber":71,"Velocity":45,"Duration":55350,"SoundDuration":55350,"Delta":163830019},{"NoteNumber":55,"Velocity":40,"Duration":221402,"SoundDuration":221402,"Delta":163830019},{"NoteNumber":76,"Velocity":42,"Duration":55350,"SoundDuration":55350,"Delta":163940720},{"NoteNumber":75,"Velocity":44,"Duration":55350,"SoundDuration":55350,"Delta":164051421},{"NoteNumber":56,"Velocity":37,"Duration":221401,"SoundDuration":221401,"Delta":164051421},{"NoteNumber":76,"Velocity":36,"Duration":55350,"SoundDuration":55350,"Delta":164162122},{"NoteNumber":64,"Velocity":43,"Duration":54347,"SoundDuration":54347,"Delta":164272823},{"NoteNumber":57,"Velocity":42,"Duration":217391,"SoundDuration":217391,"Delta":164272823},{"NoteNumber":71,"Velocity":39,"Duration":54347,"SoundDuration":54347,"Delta":164381519},{"NoteNumber":70,"Velocity":43,"Duration":54347,"SoundDuration":54347,"Delta":164490214},{"NoteNumber":56,"Velocity":39,"Duration":217391,"SoundDuration":217391,"Delta":164490214},{"NoteNumber":71,"Velocity":37,"Duration":54347,"SoundDuration":54347,"Delta":164598910},{"NoteNumber":59,"Velocity":43,"Duration":54347,"SoundDuration":54347,"Delta":164707606},{"NoteNumber":52,"Velocity":40,"Duration":437171,"SoundDuration":437171,"Delta":164707606},{"NoteNumber":68,"Velocity":36,"Duration":54347,"SoundDuration":54347,"Delta":164816302},{"NoteNumber":67,"Velocity":43,"Duration":54945,"SoundDuration":54945,"Delta":164924997},{"NoteNumber":68,"Velocity":36,"Duration":54945,"SoundDuration":54945,"Delta":165034887},{"NoteNumber":59,"Velocity":43,"Duration":55350,"SoundDuration":55350,"Delta":165144777},{"NoteNumber":40,"Velocity":39,"Duration":1824081,"SoundDuration":1824081,"Delta":165144777},{"NoteNumber":68,"Velocity":36,"Duration":55350,"SoundDuration":55350,"Delta":165255478},{"NoteNumber":67,"Velocity":42,"Duration":56603,"SoundDuration":56603,"Delta":165366179},{"NoteNumber":68,"Velocity":36,"Duration":56603,"SoundDuration":56603,"Delta":165479387},{"NoteNumber":56,"Velocity":42,"Duration":55970,"SoundDuration":55970,"Delta":165592594},{"NoteNumber":46,"Velocity":40,"Duration":223880,"SoundDuration":223880,"Delta":165592594},{"NoteNumber":64,"Velocity":36,"Duration":55970,"SoundDuration":55970,"Delta":165704535},{"NoteNumber":63,"Velocity":41,"Duration":55970,"SoundDuration":55970,"Delta":165816475},{"NoteNumber":47,"Velocity":37,"Duration":223950,"SoundDuration":223950,"Delta":165816475},{"NoteNumber":64,"Velocity":36,"Duration":55970,"SoundDuration":55970,"Delta":165928415},{"NoteNumber":56,"Velocity":37,"Duration":56179,"SoundDuration":56179,"Delta":166040425},{"NoteNumber":49,"Velocity":42,"Duration":226135,"SoundDuration":226135,"Delta":166040425},{"NoteNumber":64,"Velocity":35,"Duration":56603,"SoundDuration":56603,"Delta":166153067},{"NoteNumber":63,"Velocity":37,"Duration":57179,"SoundDuration":57179,"Delta":166266561},{"NoteNumber":47,"Velocity":39,"Duration":114504,"SoundDuration":114504,"Delta":166266561},{"NoteNumber":64,"Velocity":34,"Duration":57618,"SoundDuration":57618,"Delta":166381065},{"NoteNumber":52,"Velocity":37,"Duration":58064,"SoundDuration":58064,"Delta":166496599},{"NoteNumber":44,"Velocity":40,"Duration":961525,"SoundDuration":961525,"Delta":166496599},{"NoteNumber":59,"Velocity":32,"Duration":58593,"SoundDuration":58593,"Delta":166613105},{"NoteNumber":58,"Velocity":37,"Duration":59210,"SoundDuration":59210,"Delta":166730600},{"NoteNumber":59,"Velocity":32,"Duration":59681,"SoundDuration":59681,"Delta":166849177},{"NoteNumber":52,"Velocity":37,"Duration":60160,"SoundDuration":60160,"Delta":166968859},{"NoteNumber":40,"Velocity":39,"Duration":2012327,"SoundDuration":2012327,"Delta":166968859},{"NoteNumber":59,"Velocity":33,"Duration":60728,"SoundDuration":60728,"Delta":167089585},{"NoteNumber":58,"Velocity":36,"Duration":61224,"SoundDuration":61224,"Delta":167211373},{"NoteNumber":59,"Velocity":33,"Duration":61898,"SoundDuration":61898,"Delta":167334157},{"NoteNumber":52,"Velocity":36,"Duration":62413,"SoundDuration":62413,"Delta":167458124},{"NoteNumber":43,"Velocity":40,"Duration":499913,"SoundDuration":499913,"Delta":167458124},{"NoteNumber":59,"Velocity":33,"Duration":62500,"SoundDuration":62500,"Delta":167583038},{"NoteNumber":58,"Velocity":36,"Duration":62500,"SoundDuration":62500,"Delta":167708038},{"NoteNumber":59,"Velocity":33,"Duration":62500,"SoundDuration":62500,"Delta":167833038},{"NoteNumber":52,"Velocity":37,"Duration":62500,"SoundDuration":62500,"Delta":167958038},{"NoteNumber":44,"Velocity":42,"Duration":500718,"SoundDuration":500718,"Delta":167958038},{"NoteNumber":59,"Velocity":35,"Duration":62500,"SoundDuration":62500,"Delta":168083038},{"NoteNumber":58,"Velocity":37,"Duration":62500,"SoundDuration":62500,"Delta":168208038},{"NoteNumber":59,"Velocity":34,"Duration":62500,"SoundDuration":62500,"Delta":168333038},{"NoteNumber":52,"Velocity":37,"Duration":64655,"SoundDuration":64655,"Delta":168458756},{"NoteNumber":45,"Velocity":40,"Duration":522429,"SoundDuration":522429,"Delta":168458756},{"NoteNumber":59,"Velocity":32,"Duration":64935,"SoundDuration":64935,"Delta":168588160},{"NoteNumber":58,"Velocity":37,"Duration":65407,"SoundDuration":65407,"Delta":168718312},{"NoteNumber":59,"Velocity":32,"Duration":65789,"SoundDuration":65789,"Delta":168849318},{"NoteNumber":52,"Velocity":37,"Duration":66274,"SoundDuration":66274,"Delta":168981186},{"NoteNumber":44,"Velocity":42,"Duration":536346,"SoundDuration":536346,"Delta":168981186},{"NoteNumber":40,"Velocity":39,"Duration":6412225,"SoundDuration":6412225,"Delta":168981186},{"NoteNumber":59,"Velocity":33,"Duration":66666,"SoundDuration":66666,"Delta":169113930},{"NoteNumber":58,"Velocity":36,"Duration":67164,"SoundDuration":67164,"Delta":169247561},{"NoteNumber":59,"Velocity":33,"Duration":67567,"SoundDuration":67567,"Delta":169382091},{"NoteNumber":52,"Velocity":36,"Duration":68079,"SoundDuration":68079,"Delta":169517532},{"NoteNumber":43,"Velocity":40,"Duration":553381,"SoundDuration":553381,"Delta":169517532},{"NoteNumber":59,"Velocity":33,"Duration":68493,"SoundDuration":68493,"Delta":169653897},{"NoteNumber":58,"Velocity":36,"Duration":69018,"SoundDuration":69018,"Delta":169791197},{"NoteNumber":59,"Velocity":33,"Duration":69444,"SoundDuration":69444,"Delta":169929447},{"NoteNumber":52,"Velocity":37,"Duration":76530,"SoundDuration":76530,"Delta":170070914},{"NoteNumber":44,"Velocity":39,"Duration":5322498,"SoundDuration":5322498,"Delta":170070914},{"NoteNumber":59,"Velocity":35,"Duration":77586,"SoundDuration":77586,"Delta":170224500},{"NoteNumber":58,"Velocity":37,"Duration":78397,"SoundDuration":78397,"Delta":170379941},{"NoteNumber":59,"Velocity":33,"Duration":79225,"SoundDuration":79225,"Delta":170537286},{"NoteNumber":52,"Velocity":36,"Duration":80213,"SoundDuration":80213,"Delta":170696442},{"NoteNumber":59,"Velocity":30,"Duration":81374,"SoundDuration":81374,"Delta":170857446},{"NoteNumber":58,"Velocity":36,"Duration":82267,"SoundDuration":82267,"Delta":171020491},{"NoteNumber":59,"Velocity":30,"Duration":83179,"SoundDuration":83179,"Delta":171185328},{"NoteNumber":52,"Velocity":35,"Duration":88409,"SoundDuration":88409,"Delta":171352307},{"NoteNumber":59,"Velocity":30,"Duration":90544,"SoundDuration":90544,"Delta":171529826},{"NoteNumber":58,"Velocity":31,"Duration":92784,"SoundDuration":92784,"Delta":171711648},{"NoteNumber":59,"Velocity":25,"Duration":95138,"SoundDuration":95138,"Delta":171897989},{"NoteNumber":52,"Velocity":27,"Duration":97614,"SoundDuration":97614,"Delta":172089077},{"NoteNumber":59,"Velocity":23,"Duration":100223,"SoundDuration":100223,"Delta":172285161},{"NoteNumber":58,"Velocity":27,"Duration":102975,"SoundDuration":102975,"Delta":172486509},{"NoteNumber":59,"Velocity":24,"Duration":150000,"SoundDuration":150000,"Delta":172693412},{"NoteNumber":52,"Velocity":22,"Duration":300000,"SoundDuration":300000,"Delta":172993412}],"license":{"name":"Creative Commons Attribution-ShareAlike 3.0 Germany","url":"http://creativecommons.org/licenses/by-sa/3.0/de/deed.en","text":"The MIDI files in this folder were downloaded from http://www.piano-midi.de and are licensed under the Creative Commons Attribution-ShareAlike 3.0 Germany license by Bernd Krueger.\n\nThe MIDI, audio(MP3, OGG) and video files of Bernd Krueger are licensed under the cc-by-sa Germany License . This means, that you can use and adapt the files, as long as you attribute to the copyright holder Name: Bernd Krueger Source: http://www.piano-midi.de The distribution or public playback of the files is only allowed under identical license conditions . The scores are open source.","attribution":"Bernd Krueger","attributionUrl":"http://www.piano-midi.de"}}