{"title":"The Seasons, Op. 37a: No. 10 October (Autumn Song)","artist":"Tchaikovsky","durationMs":190763,"midiSha256":"ac0f1a56f668d9fc6b1b2b1bdae67d0f0d3ce6e05217a113a453514eb5436c6f","midiObject":[{"NoteNumber":65,"Velocity":44,"Duration":1632955,"SoundDuration":1632955,"Delta":0},{"NoteNumber":69,"Velocity":49,"Duration":1632955,"SoundDuration":1632955,"Delta":0},{"NoteNumber":50,"Velocity":35,"Duration":1632955,"SoundDuration":1632955,"Delta":0},{"NoteNumber":62,"Velocity":39,"Duration":1632955,"SoundDuration":1632955,"Delta":0},{"NoteNumber":57,"Velocity":35,"Duration":1632955,"SoundDuration":1632955,"Delta":0},{"NoteNumber":77,"Velocity":52,"Duration":1638701,"SoundDuration":1638701,"Delta":827586},{"NoteNumber":69,"Velocity":49,"Duration":1638701,"SoundDuration":1638701,"Delta":1632955},{"NoteNumber":67,"Velocity":44,"Duration":1638701,"SoundDuration":1638701,"Delta":1632955},{"NoteNumber":50,"Velocity":27,"Duration":1638701,"SoundDuration":1638701,"Delta":1632955},{"NoteNumber":57,"Velocity":31,"Duration":1638701,"SoundDuration":1638701,"Delta":1632955},{"NoteNumber":61,"Velocity":31,"Duration":1638701,"SoundDuration":1638701,"Delta":1632955},{"NoteNumber":76,"Velocity":53,"Duration":1213532,"SoundDuration":1213532,"Delta":2466288},{"NoteNumber":65,"Velocity":36,"Duration":816326,"SoundDuration":816326,"Delta":3271657},{"NoteNumber":69,"Velocity":42,"Duration":816326,"SoundDuration":816326,"Delta":3271657},{"NoteNumber":50,"Velocity":33,"Duration":816326,"SoundDuration":816326,"Delta":3271657},{"NoteNumber":62,"Velocity":36,"Duration":816326,"SoundDuration":816326,"Delta":3271657},{"NoteNumber":57,"Velocity":33,"Duration":816326,"SoundDuration":816326,"Delta":3271657},{"NoteNumber":74,"Velocity":52,"Duration":408163,"SoundDuration":408163,"Delta":3679820},{"NoteNumber":68,"Velocity":54,"Duration":408163,"SoundDuration":408163,"Delta":4087983},{"NoteNumber":69,"Velocity":50,"Duration":408163,"SoundDuration":408163,"Delta":4496147},{"NoteNumber":62,"Velocity":42,"Duration":2450224,"SoundDuration":2450224,"Delta":4904311},{"NoteNumber":69,"Velocity":42,"Duration":1632654,"SoundDuration":1632654,"Delta":4904311},{"NoteNumber":74,"Velocity":52,"Duration":1224490,"SoundDuration":1224490,"Delta":4904311},{"NoteNumber":57,"Velocity":36,"Duration":1632654,"SoundDuration":1632654,"Delta":4904311},{"NoteNumber":53,"Velocity":40,"Duration":816326,"SoundDuration":816326,"Delta":4904311},{"NoteNumber":54,"Velocity":38,"Duration":816327,"SoundDuration":816327,"Delta":5720637},{"NoteNumber":72,"Velocity":47,"Duration":408163,"SoundDuration":408163,"Delta":6128801},{"NoteNumber":67,"Velocity":47,"Duration":817570,"SoundDuration":817570,"Delta":6536965},{"NoteNumber":70,"Velocity":52,"Duration":817570,"SoundDuration":817570,"Delta":6536965},{"NoteNumber":55,"Velocity":41,"Duration":817570,"SoundDuration":817570,"Delta":6536965},{"NoteNumber":70,"Velocity":59,"Duration":1638702,"SoundDuration":1638702,"Delta":7354535},{"NoteNumber":62,"Velocity":49,"Duration":1638702,"SoundDuration":1638702,"Delta":8159904},{"NoteNumber":60,"Velocity":44,"Duration":1638702,"SoundDuration":1638702,"Delta":8159904},{"NoteNumber":45,"Velocity":27,"Duration":1638702,"SoundDuration":1638702,"Delta":8159904},{"NoteNumber":50,"Velocity":31,"Duration":1638702,"SoundDuration":1638702,"Delta":8159904},{"NoteNumber":66,"Velocity":57,"Duration":1213532,"SoundDuration":1213532,"Delta":8993237},{"NoteNumber":58,"Velocity":36,"Duration":808163,"SoundDuration":808163,"Delta":9798606},{"NoteNumber":62,"Velocity":36,"Duration":808163,"SoundDuration":808163,"Delta":9798606},{"NoteNumber":50,"Velocity":42,"Duration":1618974,"SoundDuration":1618974,"Delta":9798606},{"NoteNumber":46,"Velocity":36,"Duration":1618974,"SoundDuration":1618974,"Delta":9798606},{"NoteNumber":67,"Velocity":57,"Duration":400000,"SoundDuration":400000,"Delta":10206769},{"NoteNumber":67,"Velocity":36,"Duration":810810,"SoundDuration":810810,"Delta":10606769},{"NoteNumber":64,"Velocity":34,"Duration":810810,"SoundDuration":810810,"Delta":10606769},{"NoteNumber":76,"Velocity":62,"Duration":405405,"SoundDuration":405405,"Delta":10606769},{"NoteNumber":58,"Velocity":34,"Duration":810810,"SoundDuration":810810,"Delta":10606769},{"NoteNumber":74,"Velocity":58,"Duration":405405,"SoundDuration":405405,"Delta":11012175},{"NoteNumber":64,"Velocity":36,"Duration":1643836,"SoundDuration":1643836,"Delta":11417580},{"NoteNumber":67,"Velocity":36,"Duration":1643836,"SoundDuration":1643836,"Delta":11417580},{"NoteNumber":74,"Velocity":59,"Duration":821918,"SoundDuration":821918,"Delta":11417580},{"NoteNumber":45,"Velocity":32,"Duration":1643836,"SoundDuration":1643836,"Delta":11417580},{"NoteNumber":57,"Velocity":36,"Duration":1643836,"SoundDuration":1643836,"Delta":11417580},{"NoteNumber":52,"Velocity":32,"Duration":1643836,"SoundDuration":1643836,"Delta":11417580},{"NoteNumber":73,"Velocity":56,"Duration":821918,"SoundDuration":821918,"Delta":12239498},{"NoteNumber":55,"Velocity":48,"Duration":1625971,"SoundDuration":1625971,"Delta":13061416},{"NoteNumber":69,"Velocity":58,"Duration":268456,"SoundDuration":268456,"Delta":13335389},{"NoteNumber":71,"Velocity":55,"Duration":268456,"SoundDuration":268456,"Delta":13603845},{"NoteNumber":73,"Velocity":57,"Duration":267561,"SoundDuration":267561,"Delta":13872302},{"NoteNumber":61,"Velocity":37,"Duration":815085,"SoundDuration":815085,"Delta":13872302},{"NoteNumber":57,"Velocity":37,"Duration":815085,"SoundDuration":815085,"Delta":13872302},{"NoteNumber":64,"Velocity":41,"Duration":815085,"SoundDuration":815085,"Delta":13872302},{"NoteNumber":74,"Velocity":61,"Duration":271655,"SoundDuration":271655,"Delta":14139863},{"NoteNumber":76,"Velocity":64,"Duration":275868,"SoundDuration":275868,"Delta":14411519},{"NoteNumber":81,"Velocity":68,"Duration":1935051,"SoundDuration":1935051,"Delta":14687387},{"NoteNumber":53,"Velocity":40,"Duration":1661078,"SoundDuration":1661078,"Delta":14687387},{"NoteNumber":65,"Velocity":36,"Duration":821917,"SoundDuration":821917,"Delta":15526548},{"NoteNumber":57,"Velocity":33,"Duration":821917,"SoundDuration":821917,"Delta":15526548},{"NoteNumber":62,"Velocity":36,"Duration":821917,"SoundDuration":821917,"Delta":15526548},{"NoteNumber":52,"Velocity":49,"Duration":1628346,"SoundDuration":1628346,"Delta":16348466},{"NoteNumber":69,"Velocity":61,"Duration":268456,"SoundDuration":268456,"Delta":16622439},{"NoteNumber":71,"Velocity":57,"Duration":268456,"SoundDuration":268456,"Delta":16890895},{"NoteNumber":73,"Velocity":61,"Duration":267561,"SoundDuration":267561,"Delta":17159352},{"NoteNumber":67,"Velocity":47,"Duration":817461,"SoundDuration":817461,"Delta":17159352},{"NoteNumber":57,"Velocity":41,"Duration":817461,"SoundDuration":817461,"Delta":17159352},{"NoteNumber":61,"Velocity":41,"Duration":817461,"SoundDuration":817461,"Delta":17159352},{"NoteNumber":74,"Velocity":65,"Duration":272115,"SoundDuration":272115,"Delta":17426913},{"NoteNumber":76,"Velocity":68,"Duration":277784,"SoundDuration":277784,"Delta":17699028},{"NoteNumber":81,"Velocity":72,"Duration":1258741,"SoundDuration":1258741,"Delta":17976813},{"NoteNumber":50,"Velocity":50,"Duration":1678322,"SoundDuration":1678322,"Delta":17976813},{"NoteNumber":60,"Velocity":37,"Duration":839161,"SoundDuration":839161,"Delta":18815974},{"NoteNumber":57,"Velocity":37,"Duration":839161,"SoundDuration":839161,"Delta":18815974},{"NoteNumber":66,"Velocity":41,"Duration":839161,"SoundDuration":839161,"Delta":18815974},{"NoteNumber":74,"Velocity":67,"Duration":419580,"SoundDuration":419580,"Delta":19235554},{"NoteNumber":79,"Velocity":69,"Duration":273972,"SoundDuration":273972,"Delta":19655135},{"NoteNumber":43,"Velocity":50,"Duration":840319,"SoundDuration":840319,"Delta":19655135},{"NoteNumber":77,"Velocity":65,"Duration":273972,"SoundDuration":273972,"Delta":19929107},{"NoteNumber":76,"Velocity":64,"Duration":180433,"SoundDuration":180433,"Delta":20203080},{"NoteNumber":74,"Velocity":62,"Duration":55970,"SoundDuration":55970,"Delta":20383513},{"NoteNumber":76,"Velocity":62,"Duration":55970,"SoundDuration":55970,"Delta":20439484},{"NoteNumber":74,"Velocity":69,"Duration":273972,"SoundDuration":273972,"Delta":20495454},{"NoteNumber":67,"Velocity":41,"Duration":831633,"SoundDuration":831633,"Delta":20495454},{"NoteNumber":58,"Velocity":37,"Duration":831633,"SoundDuration":831633,"Delta":20495454},{"NoteNumber":55,"Velocity":37,"Duration":831633,"SoundDuration":831633,"Delta":20495454},{"NoteNumber":62,"Velocity":37,"Duration":831633,"SoundDuration":831633,"Delta":20495454},{"NoteNumber":73,"Velocity":64,"Duration":273972,"SoundDuration":273972,"Delta":20769426},{"NoteNumber":74,"Velocity":64,"Duration":283687,"SoundDuration":283687,"Delta":21043399},{"NoteNumber":77,"Velocity":69,"Duration":1095890,"SoundDuration":1095890,"Delta":21327087},{"NoteNumber":44,"Velocity":48,"Duration":821918,"SoundDuration":821918,"Delta":21327087},{"NoteNumber":62,"Velocity":36,"Duration":835715,"SoundDuration":835715,"Delta":22149005},{"NoteNumber":59,"Velocity":36,"Duration":835715,"SoundDuration":835715,"Delta":22149005},{"NoteNumber":56,"Velocity":36,"Duration":835715,"SoundDuration":835715,"Delta":22149005},{"NoteNumber":65,"Velocity":40,"Duration":835715,"SoundDuration":835715,"Delta":22149005},{"NoteNumber":76,"Velocity":63,"Duration":273972,"SoundDuration":273972,"Delta":22422978},{"NoteNumber":74,"Velocity":57,"Duration":559878,"SoundDuration":559878,"Delta":22696950},{"NoteNumber":45,"Velocity":49,"Duration":816327,"SoundDuration":816327,"Delta":22984720},{"NoteNumber":73,"Velocity":68,"Duration":272109,"SoundDuration":272109,"Delta":23256829},{"NoteNumber":72,"Velocity":58,"Duration":546081,"SoundDuration":546081,"Delta":23528938},{"NoteNumber":65,"Velocity":45,"Duration":821918,"SoundDuration":821918,"Delta":23801047},{"NoteNumber":62,"Velocity":39,"Duration":821918,"SoundDuration":821918,"Delta":23801047},{"NoteNumber":57,"Velocity":39,"Duration":821918,"SoundDuration":821918,"Delta":23801047},{"NoteNumber":71,"Velocity":66,"Duration":273972,"SoundDuration":273972,"Delta":24075020},{"NoteNumber":70,"Velocity":57,"Duration":547945,"SoundDuration":547945,"Delta":24348992},{"NoteNumber":45,"Velocity":48,"Duration":821918,"SoundDuration":821918,"Delta":24622965},{"NoteNumber":69,"Velocity":63,"Duration":273972,"SoundDuration":273972,"Delta":24896938},{"NoteNumber":65,"Velocity":55,"Duration":717979,"SoundDuration":717979,"Delta":25170910},{"NoteNumber":61,"Velocity":41,"Duration":845751,"SoundDuration":845751,"Delta":25444883},{"NoteNumber":57,"Velocity":37,"Duration":845751,"SoundDuration":845751,"Delta":25444883},{"NoteNumber":55,"Velocity":37,"Duration":845751,"SoundDuration":845751,"Delta":25444883},{"NoteNumber":64,"Velocity":50,"Duration":61983,"SoundDuration":61983,"Delta":25888890},{"NoteNumber":65,"Velocity":50,"Duration":61983,"SoundDuration":61983,"Delta":25950873},{"NoteNumber":64,"Velocity":56,"Duration":277777,"SoundDuration":277777,"Delta":26012857},{"NoteNumber":62,"Velocity":54,"Duration":392157,"SoundDuration":392157,"Delta":26290635},{"NoteNumber":53,"Velocity":42,"Duration":1553671,"SoundDuration":1553671,"Delta":26290635},{"NoteNumber":57,"Velocity":50,"Duration":1553671,"SoundDuration":1553671,"Delta":26290635},{"NoteNumber":50,"Velocity":40,"Duration":1553671,"SoundDuration":1553671,"Delta":26290635},{"NoteNumber":65,"Velocity":60,"Duration":1546129,"SoundDuration":1546129,"Delta":27074949},{"NoteNumber":69,"Velocity":49,"Duration":774225,"SoundDuration":774225,"Delta":27454696},{"NoteNumber":55,"Velocity":49,"Duration":1571474,"SoundDuration":1571474,"Delta":27844306},{"NoteNumber":57,"Velocity":55,"Duration":1571474,"SoundDuration":1571474,"Delta":27844306},{"NoteNumber":71,"Velocity":53,"Duration":789508,"SoundDuration":789508,"Delta":28228922},{"NoteNumber":64,"Velocity":62,"Duration":1179317,"SoundDuration":1179317,"Delta":28621079},{"NoteNumber":73,"Velocity":57,"Duration":781966,"SoundDuration":781966,"Delta":29018430},{"NoteNumber":53,"Velocity":41,"Duration":774225,"SoundDuration":774225,"Delta":29415781},{"NoteNumber":57,"Velocity":47,"Duration":774225,"SoundDuration":774225,"Delta":29415781},{"NoteNumber":74,"Velocity":49,"Duration":779220,"SoundDuration":779220,"Delta":29800396},{"NoteNumber":62,"Velocity":58,"Duration":389610,"SoundDuration":389610,"Delta":29800396},{"NoteNumber":56,"Velocity":61,"Duration":405636,"SoundDuration":405636,"Delta":30190007},{"NoteNumber":73,"Velocity":54,"Duration":759615,"SoundDuration":759615,"Delta":30579617},{"NoteNumber":57,"Velocity":57,"Duration":1816182,"SoundDuration":1816182,"Delta":30579617},{"NoteNumber":62,"Velocity":62,"Duration":1137449,"SoundDuration":1137449,"Delta":30964233},{"NoteNumber":54,"Velocity":47,"Duration":1431567,"SoundDuration":1431567,"Delta":30964233},{"NoteNumber":72,"Velocity":53,"Duration":377834,"SoundDuration":377834,"Delta":31339233},{"NoteNumber":70,"Velocity":52,"Duration":384615,"SoundDuration":384615,"Delta":31717067},{"NoteNumber":69,"Velocity":51,"Duration":407754,"SoundDuration":407754,"Delta":32101682},{"NoteNumber":60,"Velocity":55,"Duration":294117,"SoundDuration":294117,"Delta":32101682},{"NoteNumber":43,"Velocity":47,"Duration":878091,"SoundDuration":878091,"Delta":32395800},{"NoteNumber":50,"Velocity":47,"Duration":821273,"SoundDuration":821273,"Delta":32452618},{"NoteNumber":67,"Velocity":57,"Duration":387096,"SoundDuration":387096,"Delta":32509436},{"NoteNumber":58,"Velocity":57,"Duration":387096,"SoundDuration":387096,"Delta":32509436},{"NoteNumber":62,"Velocity":53,"Duration":752358,"SoundDuration":752358,"Delta":32896533},{"NoteNumber":58,"Velocity":64,"Duration":1516659,"SoundDuration":1516659,"Delta":33273892},{"NoteNumber":74,"Velocity":67,"Duration":759494,"SoundDuration":759494,"Delta":33648892},{"NoteNumber":48,"Velocity":49,"Duration":1541166,"SoundDuration":1541166,"Delta":34028639},{"NoteNumber":50,"Velocity":55,"Duration":1541166,"SoundDuration":1541166,"Delta":34028639},{"NoteNumber":70,"Velocity":63,"Duration":769262,"SoundDuration":769262,"Delta":34408386},{"NoteNumber":54,"Velocity":53,"Duration":1179253,"SoundDuration":1179253,"Delta":34790551},{"NoteNumber":69,"Velocity":57,"Duration":792156,"SoundDuration":792156,"Delta":35177648},{"NoteNumber":46,"Velocity":51,"Duration":789610,"SoundDuration":789610,"Delta":35569805},{"NoteNumber":50,"Velocity":51,"Duration":789610,"SoundDuration":789610,"Delta":35569805},{"NoteNumber":67,"Velocity":57,"Duration":792295,"SoundDuration":792295,"Delta":35969805},{"NoteNumber":55,"Velocity":62,"Duration":389610,"SoundDuration":389610,"Delta":35969805},{"NoteNumber":64,"Velocity":63,"Duration":402684,"SoundDuration":402684,"Delta":36359416},{"NoteNumber":68,"Velocity":56,"Duration":811502,"SoundDuration":811502,"Delta":36762100},{"NoteNumber":62,"Velocity":60,"Duration":302013,"SoundDuration":302013,"Delta":36762100},{"NoteNumber":45,"Velocity":36,"Duration":909489,"SoundDuration":909489,"Delta":37064114},{"NoteNumber":52,"Velocity":36,"Duration":854744,"SoundDuration":854744,"Delta":37118858},{"NoteNumber":62,"Velocity":62,"Duration":799999,"SoundDuration":799999,"Delta":37173603},{"NoteNumber":69,"Velocity":55,"Duration":810958,"SoundDuration":810958,"Delta":37573603},{"NoteNumber":61,"Velocity":57,"Duration":821917,"SoundDuration":821917,"Delta":37973603},{"NoteNumber":64,"Velocity":53,"Duration":410958,"SoundDuration":410958,"Delta":38384562},{"NoteNumber":58,"Velocity":50,"Duration":1629696,"SoundDuration":1629696,"Delta":38795521},{"NoteNumber":60,"Velocity":57,"Duration":1629696,"SoundDuration":1629696,"Delta":38795521},{"NoteNumber":72,"Velocity":69,"Duration":266666,"SoundDuration":266666,"Delta":39069493},{"NoteNumber":74,"Velocity":70,"Duration":283688,"SoundDuration":283688,"Delta":39336160},{"NoteNumber":76,"Velocity":73,"Duration":268456,"SoundDuration":268456,"Delta":39619848},{"NoteNumber":67,"Velocity":59,"Duration":1079341,"SoundDuration":1079341,"Delta":39619848},{"NoteNumber":77,"Velocity":70,"Duration":268456,"SoundDuration":268456,"Delta":39888304},{"NoteNumber":79,"Velocity":67,"Duration":268456,"SoundDuration":268456,"Delta":40156761},{"NoteNumber":72,"Velocity":74,"Duration":1655571,"SoundDuration":1655571,"Delta":40425217},{"NoteNumber":60,"Velocity":44,"Duration":1655571,"SoundDuration":1655571,"Delta":40425217},{"NoteNumber":57,"Velocity":44,"Duration":1655571,"SoundDuration":1655571,"Delta":40425217},{"NoteNumber":65,"Velocity":57,"Duration":273972,"SoundDuration":273972,"Delta":40699190},{"NoteNumber":64,"Velocity":57,"Duration":279720,"SoundDuration":279720,"Delta":40973162},{"NoteNumber":67,"Velocity":61,"Duration":544218,"SoundDuration":544218,"Delta":41252883},{"NoteNumber":65,"Velocity":59,"Duration":283688,"SoundDuration":283688,"Delta":41797101},{"NoteNumber":65,"Velocity":61,"Duration":818416,"SoundDuration":818416,"Delta":42080789},{"NoteNumber":55,"Velocity":52,"Duration":1623785,"SoundDuration":1623785,"Delta":42080789},{"NoteNumber":57,"Velocity":59,"Duration":1623785,"SoundDuration":1623785,"Delta":42080789},{"NoteNumber":69,"Velocity":71,"Duration":266666,"SoundDuration":266666,"Delta":42354761},{"NoteNumber":71,"Velocity":71,"Duration":277777,"SoundDuration":277777,"Delta":42621428},{"NoteNumber":73,"Velocity":73,"Duration":268456,"SoundDuration":268456,"Delta":42899206},{"NoteNumber":64,"Velocity":57,"Duration":1079341,"SoundDuration":1079341,"Delta":42899206},{"NoteNumber":74,"Velocity":70,"Duration":268456,"SoundDuration":268456,"Delta":43167662},{"NoteNumber":76,"Velocity":67,"Duration":268456,"SoundDuration":268456,"Delta":43436118},{"NoteNumber":69,"Velocity":74,"Duration":1643992,"SoundDuration":1643992,"Delta":43704575},{"NoteNumber":57,"Velocity":47,"Duration":1643992,"SoundDuration":1643992,"Delta":43704575},{"NoteNumber":53,"Velocity":47,"Duration":1643992,"SoundDuration":1643992,"Delta":43704575},{"NoteNumber":62,"Velocity":57,"Duration":273972,"SoundDuration":273972,"Delta":43978547},{"NoteNumber":61,"Velocity":57,"Duration":279720,"SoundDuration":279720,"Delta":44252520},{"NoteNumber":64,"Velocity":61,"Duration":544218,"SoundDuration":544218,"Delta":44532240},{"NoteNumber":62,"Velocity":59,"Duration":272109,"SoundDuration":272109,"Delta":45076458},{"NoteNumber":43,"Velocity":48,"Duration":102040,"SoundDuration":102040,"Delta":45246526},{"NoteNumber":60,"Velocity":59,"Duration":816327,"SoundDuration":816327,"Delta":45348567},{"NoteNumber":50,"Velocity":52,"Duration":1627211,"SoundDuration":1627211,"Delta":45348567},{"NoteNumber":55,"Velocity":52,"Duration":1627211,"SoundDuration":1627211,"Delta":45348567},{"NoteNumber":64,"Velocity":71,"Duration":170068,"SoundDuration":170068,"Delta":45620676},{"NoteNumber":65,"Velocity":70,"Duration":170068,"SoundDuration":170068,"Delta":45892785},{"NoteNumber":67,"Velocity":71,"Duration":170068,"SoundDuration":170068,"Delta":46164894},{"NoteNumber":58,"Velocity":56,"Duration":810884,"SoundDuration":810884,"Delta":46164894},{"NoteNumber":69,"Velocity":70,"Duration":170068,"SoundDuration":170068,"Delta":46437003},{"NoteNumber":70,"Velocity":71,"Duration":538775,"SoundDuration":538775,"Delta":46709112},{"NoteNumber":46,"Velocity":57,"Duration":816327,"SoundDuration":816327,"Delta":46975779},{"NoteNumber":70,"Velocity":71,"Duration":272109,"SoundDuration":272109,"Delta":47247888},{"NoteNumber":69,"Velocity":67,"Duration":544218,"SoundDuration":544218,"Delta":47519997},{"NoteNumber":62,"Velocity":46,"Duration":816327,"SoundDuration":816327,"Delta":47792106},{"NoteNumber":57,"Velocity":41,"Duration":816327,"SoundDuration":816327,"Delta":47792106},{"NoteNumber":53,"Velocity":41,"Duration":816327,"SoundDuration":816327,"Delta":47792106},{"NoteNumber":68,"Velocity":69,"Duration":272109,"SoundDuration":272109,"Delta":48064215},{"NoteNumber":67,"Velocity":66,"Duration":553799,"SoundDuration":553799,"Delta":48336324},{"NoteNumber":45,"Velocity":53,"Duration":825908,"SoundDuration":825908,"Delta":48608433},{"NoteNumber":66,"Velocity":68,"Duration":272109,"SoundDuration":272109,"Delta":48890123},{"NoteNumber":65,"Velocity":62,"Duration":544218,"SoundDuration":544218,"Delta":49162232},{"NoteNumber":57,"Velocity":37,"Duration":821995,"SoundDuration":821995,"Delta":49434341},{"NoteNumber":55,"Velocity":37,"Duration":821995,"SoundDuration":821995,"Delta":49434341},{"NoteNumber":61,"Velocity":40,"Duration":821995,"SoundDuration":821995,"Delta":49434341},{"NoteNumber":63,"Velocity":66,"Duration":272108,"SoundDuration":272108,"Delta":49706450},{"NoteNumber":64,"Velocity":61,"Duration":837218,"SoundDuration":837218,"Delta":49978559},{"NoteNumber":53,"Velocity":38,"Duration":1783269,"SoundDuration":1783269,"Delta":50256337},{"NoteNumber":57,"Velocity":38,"Duration":1783269,"SoundDuration":1783269,"Delta":50256337},{"NoteNumber":38,"Velocity":35,"Duration":1783269,"SoundDuration":1783269,"Delta":50256337},{"NoteNumber":45,"Velocity":35,"Duration":1783269,"SoundDuration":1783269,"Delta":50256337},{"NoteNumber":61,"Velocity":55,"Duration":300752,"SoundDuration":300752,"Delta":50815777},{"NoteNumber":61,"Velocity":55,"Duration":615384,"SoundDuration":615384,"Delta":51116529},{"NoteNumber":62,"Velocity":50,"Duration":307692,"SoundDuration":307692,"Delta":51731914},{"NoteNumber":46,"Velocity":48,"Duration":802405,"SoundDuration":802405,"Delta":52039606},{"NoteNumber":67,"Velocity":58,"Duration":265111,"SoundDuration":265111,"Delta":52311789},{"NoteNumber":69,"Velocity":58,"Duration":265111,"SoundDuration":265111,"Delta":52576901},{"NoteNumber":70,"Velocity":57,"Duration":263802,"SoundDuration":263802,"Delta":52842012},{"NoteNumber":60,"Velocity":37,"Duration":796995,"SoundDuration":796995,"Delta":52842012},{"NoteNumber":55,"Velocity":37,"Duration":796995,"SoundDuration":796995,"Delta":52842012},{"NoteNumber":64,"Velocity":41,"Duration":796995,"SoundDuration":796995,"Delta":52842012},{"NoteNumber":71,"Velocity":60,"Duration":266384,"SoundDuration":266384,"Delta":53105814},{"NoteNumber":72,"Velocity":63,"Duration":266808,"SoundDuration":266808,"Delta":53372199},{"NoteNumber":77,"Velocity":67,"Duration":544365,"SoundDuration":544365,"Delta":53639008},{"NoteNumber":45,"Velocity":46,"Duration":816549,"SoundDuration":816549,"Delta":53639008},{"NoteNumber":76,"Velocity":63,"Duration":272183,"SoundDuration":272183,"Delta":54183374},{"NoteNumber":76,"Velocity":65,"Duration":555632,"SoundDuration":555632,"Delta":54455557},{"NoteNumber":65,"Velocity":41,"Duration":833449,"SoundDuration":833449,"Delta":54455557},{"NoteNumber":60,"Velocity":37,"Duration":833449,"SoundDuration":833449,"Delta":54455557},{"NoteNumber":57,"Velocity":37,"Duration":833449,"SoundDuration":833449,"Delta":54455557},{"NoteNumber":74,"Velocity":63,"Duration":277816,"SoundDuration":277816,"Delta":55011189},{"NoteNumber":74,"Velocity":64,"Duration":814945,"SoundDuration":814945,"Delta":55289006},{"NoteNumber":43,"Velocity":46,"Duration":814945,"SoundDuration":814945,"Delta":55289006},{"NoteNumber":64,"Velocity":54,"Duration":268564,"SoundDuration":268564,"Delta":55566822},{"NoteNumber":65,"Velocity":54,"Duration":268564,"SoundDuration":268564,"Delta":55835387},{"NoteNumber":66,"Velocity":56,"Duration":266809,"SoundDuration":266809,"Delta":56103951},{"NoteNumber":72,"Velocity":67,"Duration":1076545,"SoundDuration":1076545,"Delta":56103951},{"NoteNumber":58,"Velocity":36,"Duration":811434,"SoundDuration":811434,"Delta":56103951},{"NoteNumber":60,"Velocity":36,"Duration":811434,"SoundDuration":811434,"Delta":56103951},{"NoteNumber":64,"Velocity":41,"Duration":811434,"SoundDuration":811434,"Delta":56103951},{"NoteNumber":67,"Velocity":56,"Duration":266809,"SoundDuration":266809,"Delta":56370760},{"NoteNumber":68,"Velocity":56,"Duration":277816,"SoundDuration":277816,"Delta":56637569},{"NoteNumber":70,"Velocity":67,"Duration":802331,"SoundDuration":802331,"Delta":56915386},{"NoteNumber":41,"Velocity":46,"Duration":802331,"SoundDuration":802331,"Delta":56915386},{"NoteNumber":72,"Velocity":56,"Duration":265111,"SoundDuration":265111,"Delta":57180497},{"NoteNumber":71,"Velocity":56,"Duration":272109,"SoundDuration":272109,"Delta":57445608},{"NoteNumber":74,"Velocity":61,"Duration":544218,"SoundDuration":544218,"Delta":57717717},{"NoteNumber":69,"Velocity":45,"Duration":816326,"SoundDuration":816326,"Delta":57717717},{"NoteNumber":65,"Velocity":41,"Duration":816326,"SoundDuration":816326,"Delta":57717717},{"NoteNumber":57,"Velocity":36,"Duration":816326,"SoundDuration":816326,"Delta":57717717},{"NoteNumber":60,"Velocity":36,"Duration":816326,"SoundDuration":816326,"Delta":57717717},{"NoteNumber":72,"Velocity":58,"Duration":272108,"SoundDuration":272108,"Delta":58261935},{"NoteNumber":46,"Velocity":48,"Duration":802405,"SoundDuration":802405,"Delta":58534044},{"NoteNumber":67,"Velocity":58,"Duration":265111,"SoundDuration":265111,"Delta":58806227},{"NoteNumber":69,"Velocity":58,"Duration":265111,"SoundDuration":265111,"Delta":59071339},{"NoteNumber":70,"Velocity":57,"Duration":263802,"SoundDuration":263802,"Delta":59336450},{"NoteNumber":64,"Velocity":41,"Duration":796995,"SoundDuration":796995,"Delta":59336450},{"NoteNumber":55,"Velocity":37,"Duration":796995,"SoundDuration":796995,"Delta":59336450},{"NoteNumber":60,"Velocity":37,"Duration":796995,"SoundDuration":796995,"Delta":59336450},{"NoteNumber":71,"Velocity":60,"Duration":266384,"SoundDuration":266384,"Delta":59600252},{"NoteNumber":72,"Velocity":63,"Duration":266808,"SoundDuration":266808,"Delta":59866637},{"NoteNumber":77,"Velocity":67,"Duration":544365,"SoundDuration":544365,"Delta":60133446},{"NoteNumber":45,"Velocity":46,"Duration":816549,"SoundDuration":816549,"Delta":60133446},{"NoteNumber":76,"Velocity":63,"Duration":272183,"SoundDuration":272183,"Delta":60677812},{"NoteNumber":76,"Velocity":65,"Duration":555632,"SoundDuration":555632,"Delta":60949995},{"NoteNumber":57,"Velocity":37,"Duration":833449,"SoundDuration":833449,"Delta":60949995},{"NoteNumber":60,"Velocity":37,"Duration":833449,"SoundDuration":833449,"Delta":60949995},{"NoteNumber":65,"Velocity":41,"Duration":833449,"SoundDuration":833449,"Delta":60949995},{"NoteNumber":74,"Velocity":63,"Duration":277816,"SoundDuration":277816,"Delta":61505627},{"NoteNumber":74,"Velocity":64,"Duration":814945,"SoundDuration":814945,"Delta":61783444},{"NoteNumber":43,"Velocity":46,"Duration":814945,"SoundDuration":814945,"Delta":61783444},{"NoteNumber":64,"Velocity":54,"Duration":268564,"SoundDuration":268564,"Delta":62061260},{"NoteNumber":63,"Velocity":54,"Duration":268564,"SoundDuration":268564,"Delta":62329825},{"NoteNumber":64,"Velocity":56,"Duration":266809,"SoundDuration":266809,"Delta":62598389},{"NoteNumber":73,"Velocity":67,"Duration":1076545,"SoundDuration":1076545,"Delta":62598389},{"NoteNumber":55,"Velocity":36,"Duration":811434,"SoundDuration":811434,"Delta":62598389},{"NoteNumber":57,"Velocity":36,"Duration":811434,"SoundDuration":811434,"Delta":62598389},{"NoteNumber":65,"Velocity":56,"Duration":266809,"SoundDuration":266809,"Delta":62865198},{"NoteNumber":64,"Velocity":56,"Duration":277816,"SoundDuration":277816,"Delta":63132007},{"NoteNumber":70,"Velocity":67,"Duration":802331,"SoundDuration":802331,"Delta":63409824},{"NoteNumber":41,"Velocity":46,"Duration":802331,"SoundDuration":802331,"Delta":63409824},{"NoteNumber":74,"Velocity":64,"Duration":265111,"SoundDuration":265111,"Delta":63674935},{"NoteNumber":73,"Velocity":62,"Duration":272108,"SoundDuration":272108,"Delta":63940046},{"NoteNumber":69,"Velocity":54,"Duration":816327,"SoundDuration":816327,"Delta":64212155},{"NoteNumber":76,"Velocity":68,"Duration":544218,"SoundDuration":544218,"Delta":64212155},{"NoteNumber":57,"Velocity":34,"Duration":816327,"SoundDuration":816327,"Delta":64212155},{"NoteNumber":53,"Velocity":34,"Duration":816327,"SoundDuration":816327,"Delta":64212155},{"NoteNumber":62,"Velocity":38,"Duration":816327,"SoundDuration":816327,"Delta":64212155},{"NoteNumber":74,"Velocity":58,"Duration":272109,"SoundDuration":272109,"Delta":64756373},{"NoteNumber":77,"Velocity":68,"Duration":814945,"SoundDuration":814945,"Delta":65028482},{"NoteNumber":37,"Velocity":46,"Duration":814945,"SoundDuration":814945,"Delta":65028482},{"NoteNumber":67,"Velocity":60,"Duration":268564,"SoundDuration":268564,"Delta":65306299},{"NoteNumber":66,"Velocity":60,"Duration":268564,"SoundDuration":268564,"Delta":65574863},{"NoteNumber":67,"Velocity":70,"Duration":266808,"SoundDuration":266808,"Delta":65843428},{"NoteNumber":76,"Velocity":70,"Duration":1076545,"SoundDuration":1076545,"Delta":65843428},{"NoteNumber":55,"Velocity":36,"Duration":811434,"SoundDuration":811434,"Delta":65843428},{"NoteNumber":64,"Velocity":36,"Duration":811434,"SoundDuration":811434,"Delta":65843428},{"NoteNumber":57,"Velocity":36,"Duration":811434,"SoundDuration":811434,"Delta":65843428},{"NoteNumber":69,"Velocity":60,"Duration":266809,"SoundDuration":266809,"Delta":66110237},{"NoteNumber":67,"Velocity":60,"Duration":277816,"SoundDuration":277816,"Delta":66377046},{"NoteNumber":74,"Velocity":72,"Duration":928688,"SoundDuration":928688,"Delta":66654862},{"NoteNumber":46,"Velocity":46,"Duration":685209,"SoundDuration":685209,"Delta":66654862},{"NoteNumber":77,"Velocity":67,"Duration":277816,"SoundDuration":277816,"Delta":66919974},{"NoteNumber":76,"Velocity":67,"Duration":142281,"SoundDuration":142281,"Delta":67197790},{"NoteNumber":45,"Velocity":26,"Duration":1877395,"SoundDuration":1877395,"Delta":67340071},{"NoteNumber":52,"Velocity":29,"Duration":1839663,"SoundDuration":1839663,"Delta":67377803},{"NoteNumber":57,"Velocity":33,"Duration":1800788,"SoundDuration":1800788,"Delta":67416678},{"NoteNumber":64,"Velocity":41,"Duration":1760921,"SoundDuration":1760921,"Delta":67456545},{"NoteNumber":67,"Velocity":54,"Duration":1719824,"SoundDuration":1719824,"Delta":67497642},{"NoteNumber":73,"Velocity":63,"Duration":1677560,"SoundDuration":1677560,"Delta":67539907},{"NoteNumber":82,"Velocity":71,"Duration":1352265,"SoundDuration":1352265,"Delta":67583551},{"NoteNumber":81,"Velocity":57,"Duration":281650,"SoundDuration":281650,"Delta":68935816},{"NoteNumber":42,"Velocity":51,"Duration":826016,"SoundDuration":826016,"Delta":69217467},{"NoteNumber":81,"Velocity":65,"Duration":272182,"SoundDuration":272182,"Delta":69499117},{"NoteNumber":80,"Velocity":66,"Duration":272183,"SoundDuration":272183,"Delta":69771300},{"NoteNumber":82,"Velocity":70,"Duration":548095,"SoundDuration":548095,"Delta":70043483},{"NoteNumber":62,"Velocity":46,"Duration":829745,"SoundDuration":829745,"Delta":70043483},{"NoteNumber":60,"Velocity":46,"Duration":829745,"SoundDuration":829745,"Delta":70043483},{"NoteNumber":54,"Velocity":46,"Duration":829745,"SoundDuration":829745,"Delta":70043483},{"NoteNumber":81,"Velocity":64,"Duration":281650,"SoundDuration":281650,"Delta":70591578},{"NoteNumber":81,"Velocity":67,"Duration":266808,"SoundDuration":266808,"Delta":70873229},{"NoteNumber":43,"Velocity":49,"Duration":807665,"SoundDuration":807665,"Delta":70873229},{"NoteNumber":79,"Velocity":59,"Duration":266809,"SoundDuration":266809,"Delta":71140038},{"NoteNumber":78,"Velocity":61,"Duration":274047,"SoundDuration":274047,"Delta":71406847},{"NoteNumber":62,"Velocity":50,"Duration":274047,"SoundDuration":274047,"Delta":71406847},{"NoteNumber":81,"Velocity":62,"Duration":548095,"SoundDuration":548095,"Delta":71680894},{"NoteNumber":58,"Velocity":33,"Duration":737259,"SoundDuration":737259,"Delta":71680894},{"NoteNumber":65,"Velocity":54,"Duration":274047,"SoundDuration":274047,"Delta":71680894},{"NoteNumber":55,"Velocity":33,"Duration":737259,"SoundDuration":737259,"Delta":71680894},{"NoteNumber":64,"Velocity":50,"Duration":274047,"SoundDuration":274047,"Delta":71954942},{"NoteNumber":79,"Velocity":63,"Duration":189164,"SoundDuration":189164,"Delta":72228990},{"NoteNumber":62,"Velocity":46,"Duration":189164,"SoundDuration":189164,"Delta":72228990},{"NoteNumber":48,"Velocity":42,"Duration":102767,"SoundDuration":102767,"Delta":72418154},{"NoteNumber":55,"Velocity":45,"Duration":1648159,"SoundDuration":1648159,"Delta":72520922},{"NoteNumber":60,"Velocity":45,"Duration":1648159,"SoundDuration":1648159,"Delta":72520922},{"NoteNumber":65,"Velocity":51,"Duration":818413,"SoundDuration":818413,"Delta":72520922},{"NoteNumber":79,"Velocity":65,"Duration":272182,"SoundDuration":272182,"Delta":72794970},{"NoteNumber":78,"Velocity":63,"Duration":272183,"SoundDuration":272183,"Delta":73067153},{"NoteNumber":81,"Velocity":67,"Duration":548095,"SoundDuration":548095,"Delta":73339336},{"NoteNumber":64,"Velocity":44,"Duration":829745,"SoundDuration":829745,"Delta":73339336},{"NoteNumber":79,"Velocity":64,"Duration":281650,"SoundDuration":281650,"Delta":73887431},{"NoteNumber":79,"Velocity":69,"Duration":266808,"SoundDuration":266808,"Delta":74169081},{"NoteNumber":41,"Velocity":49,"Duration":807665,"SoundDuration":807665,"Delta":74169081},{"NoteNumber":77,"Velocity":66,"Duration":266809,"SoundDuration":266809,"Delta":74435890},{"NoteNumber":76,"Velocity":64,"Duration":274047,"SoundDuration":274047,"Delta":74702699},{"NoteNumber":60,"Velocity":50,"Duration":274047,"SoundDuration":274047,"Delta":74702699},{"NoteNumber":79,"Velocity":70,"Duration":548095,"SoundDuration":548095,"Delta":74976747},{"NoteNumber":53,"Velocity":33,"Duration":835883,"SoundDuration":835883,"Delta":74976747},{"NoteNumber":57,"Velocity":33,"Duration":835883,"SoundDuration":835883,"Delta":74976747},{"NoteNumber":64,"Velocity":54,"Duration":274047,"SoundDuration":274047,"Delta":74976747},{"NoteNumber":62,"Velocity":50,"Duration":274047,"SoundDuration":274047,"Delta":75250795},{"NoteNumber":77,"Velocity":62,"Duration":185020,"SoundDuration":185020,"Delta":75524842},{"NoteNumber":61,"Velocity":46,"Duration":185020,"SoundDuration":185020,"Delta":75524842},{"NoteNumber":46,"Velocity":42,"Duration":102767,"SoundDuration":102767,"Delta":75709863},{"NoteNumber":58,"Velocity":45,"Duration":1648159,"SoundDuration":1648159,"Delta":75812631},{"NoteNumber":64,"Velocity":51,"Duration":818413,"SoundDuration":818413,"Delta":75812631},{"NoteNumber":53,"Velocity":45,"Duration":1648159,"SoundDuration":1648159,"Delta":75812631},{"NoteNumber":77,"Velocity":65,"Duration":272182,"SoundDuration":272182,"Delta":76086678},{"NoteNumber":76,"Velocity":63,"Duration":272183,"SoundDuration":272183,"Delta":76358861},{"NoteNumber":79,"Velocity":70,"Duration":548095,"SoundDuration":548095,"Delta":76631044},{"NoteNumber":62,"Velocity":46,"Duration":829745,"SoundDuration":829745,"Delta":76631044},{"NoteNumber":77,"Velocity":65,"Duration":281650,"SoundDuration":281650,"Delta":77179140},{"NoteNumber":77,"Velocity":69,"Duration":266808,"SoundDuration":266808,"Delta":77460790},{"NoteNumber":43,"Velocity":49,"Duration":807665,"SoundDuration":807665,"Delta":77460790},{"NoteNumber":76,"Velocity":66,"Duration":266809,"SoundDuration":266809,"Delta":77727599},{"NoteNumber":74,"Velocity":64,"Duration":274047,"SoundDuration":274047,"Delta":77994408},{"NoteNumber":77,"Velocity":69,"Duration":274047,"SoundDuration":274047,"Delta":78268456},{"NoteNumber":62,"Velocity":44,"Duration":822142,"SoundDuration":822142,"Delta":78268456},{"NoteNumber":55,"Velocity":39,"Duration":822142,"SoundDuration":822142,"Delta":78268456},{"NoteNumber":58,"Velocity":39,"Duration":822142,"SoundDuration":822142,"Delta":78268456},{"NoteNumber":76,"Velocity":67,"Duration":274047,"SoundDuration":274047,"Delta":78542503},{"NoteNumber":74,"Velocity":65,"Duration":274047,"SoundDuration":274047,"Delta":78816551},{"NoteNumber":40,"Velocity":48,"Duration":818413,"SoundDuration":818413,"Delta":79090599},{"NoteNumber":67,"Velocity":61,"Duration":272182,"SoundDuration":272182,"Delta":79364646},{"NoteNumber":69,"Velocity":62,"Duration":272183,"SoundDuration":272183,"Delta":79636829},{"NoteNumber":70,"Velocity":66,"Duration":274047,"SoundDuration":274047,"Delta":79909012},{"NoteNumber":55,"Velocity":43,"Duration":829745,"SoundDuration":829745,"Delta":79909012},{"NoteNumber":62,"Velocity":43,"Duration":829745,"SoundDuration":829745,"Delta":79909012},{"NoteNumber":52,"Velocity":43,"Duration":829745,"SoundDuration":829745,"Delta":79909012},{"NoteNumber":77,"Velocity":62,"Duration":274047,"SoundDuration":274047,"Delta":80183060},{"NoteNumber":76,"Velocity":58,"Duration":281650,"SoundDuration":281650,"Delta":80457108},{"NoteNumber":74,"Velocity":64,"Duration":266808,"SoundDuration":266808,"Delta":80738758},{"NoteNumber":45,"Velocity":46,"Duration":802182,"SoundDuration":802182,"Delta":80738758},{"NoteNumber":73,"Velocity":61,"Duration":266809,"SoundDuration":266809,"Delta":81005567},{"NoteNumber":72,"Velocity":59,"Duration":268564,"SoundDuration":268564,"Delta":81272376},{"NoteNumber":73,"Velocity":62,"Duration":552915,"SoundDuration":552915,"Delta":81540941},{"NoteNumber":64,"Velocity":41,"Duration":836603,"SoundDuration":836603,"Delta":81540941},{"NoteNumber":52,"Velocity":37,"Duration":836603,"SoundDuration":836603,"Delta":81540941},{"NoteNumber":57,"Velocity":37,"Duration":836603,"SoundDuration":836603,"Delta":81540941},{"NoteNumber":69,"Velocity":55,"Duration":283687,"SoundDuration":283687,"Delta":82093856},{"NoteNumber":42,"Velocity":43,"Duration":826056,"SoundDuration":826056,"Delta":82377544},{"NoteNumber":81,"Velocity":55,"Duration":272182,"SoundDuration":272182,"Delta":82659234},{"NoteNumber":80,"Velocity":53,"Duration":272183,"SoundDuration":272183,"Delta":82931417},{"NoteNumber":82,"Velocity":58,"Duration":548095,"SoundDuration":548095,"Delta":83203600},{"NoteNumber":62,"Velocity":31,"Duration":829745,"SoundDuration":829745,"Delta":83203600},{"NoteNumber":60,"Velocity":31,"Duration":829745,"SoundDuration":829745,"Delta":83203600},{"NoteNumber":54,"Velocity":31,"Duration":829745,"SoundDuration":829745,"Delta":83203600},{"NoteNumber":81,"Velocity":54,"Duration":281650,"SoundDuration":281650,"Delta":83751696},{"NoteNumber":81,"Velocity":56,"Duration":266808,"SoundDuration":266808,"Delta":84033346},{"NoteNumber":43,"Velocity":41,"Duration":807665,"SoundDuration":807665,"Delta":84033346},{"NoteNumber":79,"Velocity":52,"Duration":266809,"SoundDuration":266809,"Delta":84300155},{"NoteNumber":78,"Velocity":50,"Duration":274047,"SoundDuration":274047,"Delta":84566964},{"NoteNumber":62,"Velocity":42,"Duration":274047,"SoundDuration":274047,"Delta":84566964},{"NoteNumber":81,"Velocity":59,"Duration":548095,"SoundDuration":548095,"Delta":84841012},{"NoteNumber":55,"Velocity":28,"Duration":737259,"SoundDuration":737259,"Delta":84841012},{"NoteNumber":58,"Velocity":28,"Duration":737259,"SoundDuration":737259,"Delta":84841012},{"NoteNumber":65,"Velocity":45,"Duration":274047,"SoundDuration":274047,"Delta":84841012},{"NoteNumber":64,"Velocity":42,"Duration":274047,"SoundDuration":274047,"Delta":85115059},{"NoteNumber":79,"Velocity":53,"Duration":189164,"SoundDuration":189164,"Delta":85389107},{"NoteNumber":62,"Velocity":39,"Duration":189164,"SoundDuration":189164,"Delta":85389107},{"NoteNumber":48,"Velocity":35,"Duration":102767,"SoundDuration":102767,"Delta":85578272},{"NoteNumber":55,"Velocity":34,"Duration":1648159,"SoundDuration":1648159,"Delta":85681039},{"NoteNumber":65,"Velocity":43,"Duration":818413,"SoundDuration":818413,"Delta":85681039},{"NoteNumber":60,"Velocity":34,"Duration":1648159,"SoundDuration":1648159,"Delta":85681039},{"NoteNumber":79,"Velocity":55,"Duration":272182,"SoundDuration":272182,"Delta":85955087},{"NoteNumber":78,"Velocity":53,"Duration":272183,"SoundDuration":272183,"Delta":86227270},{"NoteNumber":81,"Velocity":58,"Duration":548095,"SoundDuration":548095,"Delta":86499453},{"NoteNumber":64,"Velocity":39,"Duration":829745,"SoundDuration":829745,"Delta":86499453},{"NoteNumber":79,"Velocity":53,"Duration":281650,"SoundDuration":281650,"Delta":87047548},{"NoteNumber":79,"Velocity":57,"Duration":266808,"SoundDuration":266808,"Delta":87329199},{"NoteNumber":41,"Velocity":41,"Duration":807665,"SoundDuration":807665,"Delta":87329199},{"NoteNumber":77,"Velocity":56,"Duration":266809,"SoundDuration":266809,"Delta":87596008},{"NoteNumber":76,"Velocity":54,"Duration":274047,"SoundDuration":274047,"Delta":87862817},{"NoteNumber":60,"Velocity":42,"Duration":274047,"SoundDuration":274047,"Delta":87862817},{"NoteNumber":79,"Velocity":58,"Duration":548095,"SoundDuration":548095,"Delta":88136864},{"NoteNumber":57,"Velocity":28,"Duration":835883,"SoundDuration":835883,"Delta":88136864},{"NoteNumber":64,"Velocity":45,"Duration":274047,"SoundDuration":274047,"Delta":88136864},{"NoteNumber":53,"Velocity":28,"Duration":835883,"SoundDuration":835883,"Delta":88136864},{"NoteNumber":62,"Velocity":42,"Duration":274047,"SoundDuration":274047,"Delta":88410912},{"NoteNumber":77,"Velocity":52,"Duration":185020,"SoundDuration":185020,"Delta":88684960},{"NoteNumber":61,"Velocity":39,"Duration":185020,"SoundDuration":185020,"Delta":88684960},{"NoteNumber":46,"Velocity":35,"Duration":102767,"SoundDuration":102767,"Delta":88869980},{"NoteNumber":58,"Velocity":38,"Duration":1648159,"SoundDuration":1648159,"Delta":88972748},{"NoteNumber":64,"Velocity":43,"Duration":818413,"SoundDuration":818413,"Delta":88972748},{"NoteNumber":53,"Velocity":38,"Duration":1648159,"SoundDuration":1648159,"Delta":88972748},{"NoteNumber":77,"Velocity":55,"Duration":272182,"SoundDuration":272182,"Delta":89246796},{"NoteNumber":76,"Velocity":56,"Duration":272183,"SoundDuration":272183,"Delta":89518979},{"NoteNumber":79,"Velocity":59,"Duration":548095,"SoundDuration":548095,"Delta":89791162},{"NoteNumber":62,"Velocity":39,"Duration":829745,"SoundDuration":829745,"Delta":89791162},{"NoteNumber":77,"Velocity":56,"Duration":281650,"SoundDuration":281650,"Delta":90339257},{"NoteNumber":77,"Velocity":58,"Duration":266808,"SoundDuration":266808,"Delta":90620908},{"NoteNumber":43,"Velocity":41,"Duration":807665,"SoundDuration":807665,"Delta":90620908},{"NoteNumber":76,"Velocity":56,"Duration":266809,"SoundDuration":266809,"Delta":90887717},{"NoteNumber":74,"Velocity":54,"Duration":274047,"SoundDuration":274047,"Delta":91154526},{"NoteNumber":77,"Velocity":58,"Duration":274047,"SoundDuration":274047,"Delta":91428573},{"NoteNumber":62,"Velocity":37,"Duration":822142,"SoundDuration":822142,"Delta":91428573},{"NoteNumber":58,"Velocity":33,"Duration":822142,"SoundDuration":822142,"Delta":91428573},{"NoteNumber":55,"Velocity":33,"Duration":822142,"SoundDuration":822142,"Delta":91428573},{"NoteNumber":76,"Velocity":56,"Duration":274047,"SoundDuration":274047,"Delta":91702621},{"NoteNumber":74,"Velocity":55,"Duration":274047,"SoundDuration":274047,"Delta":91976669},{"NoteNumber":40,"Velocity":43,"Duration":818413,"SoundDuration":818413,"Delta":92250716},{"NoteNumber":67,"Velocity":55,"Duration":272182,"SoundDuration":272182,"Delta":92524764},{"NoteNumber":69,"Velocity":56,"Duration":272183,"SoundDuration":272183,"Delta":92796947},{"NoteNumber":70,"Velocity":59,"Duration":274047,"SoundDuration":274047,"Delta":93069130},{"NoteNumber":52,"Velocity":39,"Duration":829745,"SoundDuration":829745,"Delta":93069130},{"NoteNumber":62,"Velocity":39,"Duration":829745,"SoundDuration":829745,"Delta":93069130},{"NoteNumber":55,"Velocity":39,"Duration":829745,"SoundDuration":829745,"Delta":93069130},{"NoteNumber":77,"Velocity":56,"Duration":274047,"SoundDuration":274047,"Delta":93343178},{"NoteNumber":76,"Velocity":52,"Duration":281650,"SoundDuration":281650,"Delta":93617225},{"NoteNumber":74,"Velocity":57,"Duration":266808,"SoundDuration":266808,"Delta":93898876},{"NoteNumber":45,"Velocity":41,"Duration":802182,"SoundDuration":802182,"Delta":93898876},{"NoteNumber":73,"Velocity":55,"Duration":266809,"SoundDuration":266809,"Delta":94165685},{"NoteNumber":72,"Velocity":53,"Duration":268564,"SoundDuration":268564,"Delta":94432494},{"NoteNumber":73,"Velocity":56,"Duration":551916,"SoundDuration":551916,"Delta":94701058},{"NoteNumber":52,"Velocity":33,"Duration":833606,"SoundDuration":833606,"Delta":94701058},{"NoteNumber":57,"Velocity":33,"Duration":833606,"SoundDuration":833606,"Delta":94701058},{"NoteNumber":64,"Velocity":37,"Duration":833606,"SoundDuration":833606,"Delta":94701058},{"NoteNumber":69,"Velocity":49,"Duration":281689,"SoundDuration":281689,"Delta":95252975},{"NoteNumber":62,"Velocity":49,"Duration":1638550,"SoundDuration":1638550,"Delta":95534665},{"NoteNumber":52,"Velocity":36,"Duration":1912523,"SoundDuration":1912523,"Delta":95534665},{"NoteNumber":58,"Velocity":41,"Duration":1638550,"SoundDuration":1638550,"Delta":95534665},{"NoteNumber":43,"Velocity":36,"Duration":1638550,"SoundDuration":1638550,"Delta":95534665},{"NoteNumber":67,"Velocity":51,"Duration":268456,"SoundDuration":268456,"Delta":95814385},{"NoteNumber":66,"Velocity":51,"Duration":268456,"SoundDuration":268456,"Delta":96082841},{"NoteNumber":69,"Velocity":54,"Duration":547945,"SoundDuration":547945,"Delta":96351298},{"NoteNumber":67,"Velocity":52,"Duration":273972,"SoundDuration":273972,"Delta":96899243},{"NoteNumber":61,"Velocity":41,"Duration":408200,"SoundDuration":408200,"Delta":97173216},{"NoteNumber":67,"Velocity":49,"Duration":408200,"SoundDuration":408200,"Delta":97173216},{"NoteNumber":57,"Velocity":47,"Duration":408200,"SoundDuration":408200,"Delta":97173216},{"NoteNumber":45,"Velocity":42,"Duration":408200,"SoundDuration":408200,"Delta":97173216},{"NoteNumber":52,"Velocity":48,"Duration":268456,"SoundDuration":268456,"Delta":97447188},{"NoteNumber":51,"Velocity":45,"Duration":279720,"SoundDuration":279720,"Delta":97715645},{"NoteNumber":53,"Velocity":49,"Duration":559440,"SoundDuration":559440,"Delta":97995365},{"NoteNumber":52,"Velocity":44,"Duration":279720,"SoundDuration":279720,"Delta":98554806},{"NoteNumber":62,"Velocity":49,"Duration":1638550,"SoundDuration":1638550,"Delta":98834526},{"NoteNumber":43,"Velocity":36,"Duration":1638550,"SoundDuration":1638550,"Delta":98834526},{"NoteNumber":58,"Velocity":41,"Duration":1638550,"SoundDuration":1638550,"Delta":98834526},{"NoteNumber":52,"Velocity":36,"Duration":1912523,"SoundDuration":1912523,"Delta":98834526},{"NoteNumber":67,"Velocity":51,"Duration":268456,"SoundDuration":268456,"Delta":99114246},{"NoteNumber":66,"Velocity":51,"Duration":268456,"SoundDuration":268456,"Delta":99382703},{"NoteNumber":69,"Velocity":54,"Duration":547945,"SoundDuration":547945,"Delta":99651159},{"NoteNumber":67,"Velocity":52,"Duration":273972,"SoundDuration":273972,"Delta":100199104},{"NoteNumber":61,"Velocity":41,"Duration":408200,"SoundDuration":408200,"Delta":100473077},{"NoteNumber":67,"Velocity":49,"Duration":408200,"SoundDuration":408200,"Delta":100473077},{"NoteNumber":45,"Velocity":42,"Duration":408200,"SoundDuration":408200,"Delta":100473077},{"NoteNumber":57,"Velocity":47,"Duration":408200,"SoundDuration":408200,"Delta":100473077},{"NoteNumber":52,"Velocity":49,"Duration":268456,"SoundDuration":268456,"Delta":100747050},{"NoteNumber":51,"Velocity":47,"Duration":279720,"SoundDuration":279720,"Delta":101015506},{"NoteNumber":53,"Velocity":53,"Duration":559440,"SoundDuration":559440,"Delta":101295226},{"NoteNumber":52,"Velocity":51,"Duration":279720,"SoundDuration":279720,"Delta":101854667},{"NoteNumber":57,"Velocity":56,"Duration":544218,"SoundDuration":544218,"Delta":102134387},{"NoteNumber":55,"Velocity":53,"Duration":283687,"SoundDuration":283687,"Delta":102678605},{"NoteNumber":62,"Velocity":57,"Duration":544218,"SoundDuration":544218,"Delta":102962293},{"NoteNumber":61,"Velocity":56,"Duration":264900,"SoundDuration":264900,"Delta":103506511},{"NoteNumber":65,"Velocity":64,"Duration":272109,"SoundDuration":272109,"Delta":103771412},{"NoteNumber":64,"Velocity":58,"Duration":272109,"SoundDuration":272109,"Delta":104043521},{"NoteNumber":62,"Velocity":55,"Duration":544218,"SoundDuration":544218,"Delta":104315630},{"NoteNumber":61,"Velocity":55,"Duration":277777,"SoundDuration":277777,"Delta":104859848},{"NoteNumber":58,"Velocity":51,"Duration":837238,"SoundDuration":837238,"Delta":105137626},{"NoteNumber":57,"Velocity":53,"Duration":864433,"SoundDuration":864433,"Delta":105974864},{"NoteNumber":55,"Velocity":52,"Duration":896736,"SoundDuration":896736,"Delta":106839298},{"NoteNumber":53,"Velocity":48,"Duration":926673,"SoundDuration":926673,"Delta":107736035},{"NoteNumber":52,"Velocity":43,"Duration":816326,"SoundDuration":816326,"Delta":108662708},{"NoteNumber":65,"Velocity":44,"Duration":1632954,"SoundDuration":1632954,"Delta":109479035},{"NoteNumber":69,"Velocity":49,"Duration":1632954,"SoundDuration":1632954,"Delta":109479035},{"NoteNumber":50,"Velocity":35,"Duration":1632954,"SoundDuration":1632954,"Delta":109479035},{"NoteNumber":62,"Velocity":39,"Duration":1632954,"SoundDuration":1632954,"Delta":109479035},{"NoteNumber":57,"Velocity":35,"Duration":1632954,"SoundDuration":1632954,"Delta":109479035},{"NoteNumber":77,"Velocity":53,"Duration":1638701,"SoundDuration":1638701,"Delta":110306621},{"NoteNumber":69,"Velocity":49,"Duration":1638701,"SoundDuration":1638701,"Delta":111111990},{"NoteNumber":67,"Velocity":44,"Duration":1638701,"SoundDuration":1638701,"Delta":111111990},{"NoteNumber":50,"Velocity":27,"Duration":1638701,"SoundDuration":1638701,"Delta":111111990},{"NoteNumber":61,"Velocity":31,"Duration":1638701,"SoundDuration":1638701,"Delta":111111990},{"NoteNumber":57,"Velocity":31,"Duration":1638701,"SoundDuration":1638701,"Delta":111111990},{"NoteNumber":76,"Velocity":54,"Duration":1213532,"SoundDuration":1213532,"Delta":111945323},{"NoteNumber":65,"Velocity":36,"Duration":808163,"SoundDuration":808163,"Delta":112750692},{"NoteNumber":69,"Velocity":42,"Duration":808163,"SoundDuration":808163,"Delta":112750692},{"NoteNumber":50,"Velocity":33,"Duration":808163,"SoundDuration":808163,"Delta":112750692},{"NoteNumber":57,"Velocity":33,"Duration":808163,"SoundDuration":808163,"Delta":112750692},{"NoteNumber":62,"Velocity":36,"Duration":808163,"SoundDuration":808163,"Delta":112750692},{"NoteNumber":74,"Velocity":52,"Duration":400000,"SoundDuration":400000,"Delta":113158855},{"NoteNumber":68,"Velocity":55,"Duration":405405,"SoundDuration":405405,"Delta":113558855},{"NoteNumber":69,"Velocity":52,"Duration":405405,"SoundDuration":405405,"Delta":113964261},{"NoteNumber":62,"Velocity":42,"Duration":2437117,"SoundDuration":2437117,"Delta":114369666},{"NoteNumber":69,"Velocity":42,"Duration":1624454,"SoundDuration":1624454,"Delta":114369666},{"NoteNumber":74,"Velocity":52,"Duration":1219049,"SoundDuration":1219049,"Delta":114369666},{"NoteNumber":53,"Velocity":40,"Duration":813643,"SoundDuration":813643,"Delta":114369666},{"NoteNumber":57,"Velocity":36,"Duration":1624454,"SoundDuration":1624454,"Delta":114369666},{"NoteNumber":54,"Velocity":38,"Duration":810811,"SoundDuration":810811,"Delta":115183310},{"NoteNumber":72,"Velocity":50,"Duration":405405,"SoundDuration":405405,"Delta":115588715},{"NoteNumber":67,"Velocity":47,"Duration":812663,"SoundDuration":812663,"Delta":115994121},{"NoteNumber":70,"Velocity":52,"Duration":812663,"SoundDuration":812663,"Delta":115994121},{"NoteNumber":55,"Velocity":41,"Duration":812663,"SoundDuration":812663,"Delta":115994121},{"NoteNumber":70,"Velocity":59,"Duration":1638701,"SoundDuration":1638701,"Delta":116806784},{"NoteNumber":62,"Velocity":49,"Duration":1638701,"SoundDuration":1638701,"Delta":117612153},{"NoteNumber":60,"Velocity":44,"Duration":1638701,"SoundDuration":1638701,"Delta":117612153},{"NoteNumber":45,"Velocity":27,"Duration":1638701,"SoundDuration":1638701,"Delta":117612153},{"NoteNumber":50,"Velocity":31,"Duration":1638701,"SoundDuration":1638701,"Delta":117612153},{"NoteNumber":66,"Velocity":57,"Duration":1213532,"SoundDuration":1213532,"Delta":118445486},{"NoteNumber":58,"Velocity":36,"Duration":808163,"SoundDuration":808163,"Delta":119250855},{"NoteNumber":62,"Velocity":36,"Duration":808163,"SoundDuration":808163,"Delta":119250855},{"NoteNumber":46,"Velocity":36,"Duration":1618974,"SoundDuration":1618974,"Delta":119250855},{"NoteNumber":50,"Velocity":42,"Duration":1618974,"SoundDuration":1618974,"Delta":119250855},{"NoteNumber":67,"Velocity":57,"Duration":400000,"SoundDuration":400000,"Delta":119659018},{"NoteNumber":64,"Velocity":36,"Duration":810811,"SoundDuration":810811,"Delta":120059018},{"NoteNumber":67,"Velocity":36,"Duration":810811,"SoundDuration":810811,"Delta":120059018},{"NoteNumber":76,"Velocity":62,"Duration":405405,"SoundDuration":405405,"Delta":120059018},{"NoteNumber":58,"Velocity":36,"Duration":810811,"SoundDuration":810811,"Delta":120059018},{"NoteNumber":74,"Velocity":58,"Duration":405405,"SoundDuration":405405,"Delta":120464424},{"NoteNumber":64,"Velocity":36,"Duration":1643835,"SoundDuration":1643835,"Delta":120869829},{"NoteNumber":67,"Velocity":36,"Duration":1643835,"SoundDuration":1643835,"Delta":120869829},{"NoteNumber":74,"Velocity":59,"Duration":821917,"SoundDuration":821917,"Delta":120869829},{"NoteNumber":45,"Velocity":32,"Duration":1643835,"SoundDuration":1643835,"Delta":120869829},{"NoteNumber":52,"Velocity":32,"Duration":1643835,"SoundDuration":1643835,"Delta":120869829},{"NoteNumber":57,"Velocity":36,"Duration":1643835,"SoundDuration":1643835,"Delta":120869829},{"NoteNumber":73,"Velocity":56,"Duration":821917,"SoundDuration":821917,"Delta":121691747},{"NoteNumber":55,"Velocity":48,"Duration":1625971,"SoundDuration":1625971,"Delta":122513665},{"NoteNumber":69,"Velocity":58,"Duration":268456,"SoundDuration":268456,"Delta":122787638},{"NoteNumber":71,"Velocity":55,"Duration":268456,"SoundDuration":268456,"Delta":123056094},{"NoteNumber":73,"Velocity":61,"Duration":267561,"SoundDuration":267561,"Delta":123324551},{"NoteNumber":64,"Velocity":41,"Duration":815085,"SoundDuration":815085,"Delta":123324551},{"NoteNumber":61,"Velocity":37,"Duration":815085,"SoundDuration":815085,"Delta":123324551},{"NoteNumber":57,"Velocity":37,"Duration":815085,"SoundDuration":815085,"Delta":123324551},{"NoteNumber":74,"Velocity":63,"Duration":271655,"SoundDuration":271655,"Delta":123592112},{"NoteNumber":76,"Velocity":67,"Duration":275868,"SoundDuration":275868,"Delta":123863768},{"NoteNumber":81,"Velocity":68,"Duration":1935051,"SoundDuration":1935051,"Delta":124139636},{"NoteNumber":53,"Velocity":46,"Duration":1661079,"SoundDuration":1661079,"Delta":124139636},{"NoteNumber":65,"Velocity":41,"Duration":821917,"SoundDuration":821917,"Delta":124978797},{"NoteNumber":62,"Velocity":41,"Duration":821917,"SoundDuration":821917,"Delta":124978797},{"NoteNumber":57,"Velocity":37,"Duration":821917,"SoundDuration":821917,"Delta":124978797},{"NoteNumber":52,"Velocity":49,"Duration":1624767,"SoundDuration":1624767,"Delta":125800715},{"NoteNumber":69,"Velocity":61,"Duration":266666,"SoundDuration":266666,"Delta":126074688},{"NoteNumber":71,"Velocity":58,"Duration":266666,"SoundDuration":266666,"Delta":126341355},{"NoteNumber":73,"Velocity":61,"Duration":267561,"SoundDuration":267561,"Delta":126608021},{"NoteNumber":67,"Velocity":47,"Duration":817461,"SoundDuration":817461,"Delta":126608021},{"NoteNumber":61,"Velocity":41,"Duration":817461,"SoundDuration":817461,"Delta":126608021},{"NoteNumber":57,"Velocity":41,"Duration":817461,"SoundDuration":817461,"Delta":126608021},{"NoteNumber":74,"Velocity":62,"Duration":272115,"SoundDuration":272115,"Delta":126875583},{"NoteNumber":76,"Velocity":65,"Duration":277784,"SoundDuration":277784,"Delta":127147698},{"NoteNumber":81,"Velocity":68,"Duration":1258741,"SoundDuration":1258741,"Delta":127425482},{"NoteNumber":50,"Velocity":50,"Duration":1678322,"SoundDuration":1678322,"Delta":127425482},{"NoteNumber":66,"Velocity":41,"Duration":839161,"SoundDuration":839161,"Delta":128264643},{"NoteNumber":60,"Velocity":37,"Duration":839161,"SoundDuration":839161,"Delta":128264643},{"NoteNumber":57,"Velocity":37,"Duration":839161,"SoundDuration":839161,"Delta":128264643},{"NoteNumber":74,"Velocity":68,"Duration":419580,"SoundDuration":419580,"Delta":128684224},{"NoteNumber":79,"Velocity":70,"Duration":273972,"SoundDuration":273972,"Delta":129103804},{"NoteNumber":43,"Velocity":50,"Duration":840318,"SoundDuration":840318,"Delta":129103804},{"NoteNumber":77,"Velocity":67,"Duration":273972,"SoundDuration":273972,"Delta":129377777},{"NoteNumber":76,"Velocity":66,"Duration":180433,"SoundDuration":180433,"Delta":129651750},{"NoteNumber":74,"Velocity":62,"Duration":55970,"SoundDuration":55970,"Delta":129832183},{"NoteNumber":76,"Velocity":62,"Duration":55970,"SoundDuration":55970,"Delta":129888153},{"NoteNumber":74,"Velocity":69,"Duration":273972,"SoundDuration":273972,"Delta":129944123},{"NoteNumber":67,"Velocity":41,"Duration":831633,"SoundDuration":831633,"Delta":129944123},{"NoteNumber":62,"Velocity":37,"Duration":831633,"SoundDuration":831633,"Delta":129944123},{"NoteNumber":58,"Velocity":37,"Duration":831633,"SoundDuration":831633,"Delta":129944123},{"NoteNumber":55,"Velocity":37,"Duration":831633,"SoundDuration":831633,"Delta":129944123},{"NoteNumber":73,"Velocity":64,"Duration":273972,"SoundDuration":273972,"Delta":130218096},{"NoteNumber":74,"Velocity":64,"Duration":283688,"SoundDuration":283688,"Delta":130492069},{"NoteNumber":77,"Velocity":69,"Duration":1084783,"SoundDuration":1084783,"Delta":130775757},{"NoteNumber":44,"Velocity":48,"Duration":810811,"SoundDuration":810811,"Delta":130775757},{"NoteNumber":65,"Velocity":40,"Duration":835714,"SoundDuration":835714,"Delta":131586568},{"NoteNumber":62,"Velocity":36,"Duration":835714,"SoundDuration":835714,"Delta":131586568},{"NoteNumber":59,"Velocity":36,"Duration":835714,"SoundDuration":835714,"Delta":131586568},{"NoteNumber":56,"Velocity":36,"Duration":835714,"SoundDuration":835714,"Delta":131586568},{"NoteNumber":76,"Velocity":63,"Duration":273972,"SoundDuration":273972,"Delta":131860540},{"NoteNumber":74,"Velocity":57,"Duration":556226,"SoundDuration":556226,"Delta":132134513},{"NoteNumber":45,"Velocity":49,"Duration":810847,"SoundDuration":810847,"Delta":132422283},{"NoteNumber":73,"Velocity":68,"Duration":270282,"SoundDuration":270282,"Delta":132690739},{"NoteNumber":72,"Velocity":58,"Duration":542379,"SoundDuration":542379,"Delta":132961022},{"NoteNumber":65,"Velocity":45,"Duration":816364,"SoundDuration":816364,"Delta":133233131},{"NoteNumber":62,"Velocity":39,"Duration":816364,"SoundDuration":816364,"Delta":133233131},{"NoteNumber":57,"Velocity":39,"Duration":816364,"SoundDuration":816364,"Delta":133233131},{"NoteNumber":71,"Velocity":66,"Duration":272121,"SoundDuration":272121,"Delta":133503401},{"NoteNumber":70,"Velocity":57,"Duration":546081,"SoundDuration":546081,"Delta":133775523},{"NoteNumber":45,"Velocity":48,"Duration":819122,"SoundDuration":819122,"Delta":134049495},{"NoteNumber":69,"Velocity":63,"Duration":273040,"SoundDuration":273040,"Delta":134321604},{"NoteNumber":65,"Velocity":55,"Duration":717979,"SoundDuration":717979,"Delta":134594645},{"NoteNumber":61,"Velocity":41,"Duration":845751,"SoundDuration":845751,"Delta":134868618},{"NoteNumber":57,"Velocity":37,"Duration":845751,"SoundDuration":845751,"Delta":134868618},{"NoteNumber":55,"Velocity":37,"Duration":845751,"SoundDuration":845751,"Delta":134868618},{"NoteNumber":64,"Velocity":50,"Duration":61983,"SoundDuration":61983,"Delta":135312625},{"NoteNumber":65,"Velocity":50,"Duration":61983,"SoundDuration":61983,"Delta":135374608},{"NoteNumber":64,"Velocity":56,"Duration":277777,"SoundDuration":277777,"Delta":135436592},{"NoteNumber":62,"Velocity":54,"Duration":392156,"SoundDuration":392156,"Delta":135714369},{"NoteNumber":50,"Velocity":40,"Duration":1553671,"SoundDuration":1553671,"Delta":135714369},{"NoteNumber":53,"Velocity":42,"Duration":1553671,"SoundDuration":1553671,"Delta":135714369},{"NoteNumber":57,"Velocity":50,"Duration":1553671,"SoundDuration":1553671,"Delta":135714369},{"NoteNumber":65,"Velocity":60,"Duration":1546130,"SoundDuration":1546130,"Delta":136498683},{"NoteNumber":69,"Velocity":49,"Duration":774225,"SoundDuration":774225,"Delta":136878430},{"NoteNumber":57,"Velocity":55,"Duration":1571474,"SoundDuration":1571474,"Delta":137268041},{"NoteNumber":55,"Velocity":49,"Duration":1571474,"SoundDuration":1571474,"Delta":137268041},{"NoteNumber":71,"Velocity":53,"Duration":789507,"SoundDuration":789507,"Delta":137652656},{"NoteNumber":64,"Velocity":62,"Duration":1179317,"SoundDuration":1179317,"Delta":138044813},{"NoteNumber":73,"Velocity":57,"Duration":781966,"SoundDuration":781966,"Delta":138442164},{"NoteNumber":53,"Velocity":41,"Duration":774225,"SoundDuration":774225,"Delta":138839515},{"NoteNumber":57,"Velocity":47,"Duration":774225,"SoundDuration":774225,"Delta":138839515},{"NoteNumber":74,"Velocity":49,"Duration":776707,"SoundDuration":776707,"Delta":139224131},{"NoteNumber":62,"Velocity":58,"Duration":389610,"SoundDuration":389610,"Delta":139224131},{"NoteNumber":56,"Velocity":61,"Duration":403020,"SoundDuration":403020,"Delta":139613741},{"NoteNumber":73,"Velocity":54,"Duration":757165,"SoundDuration":757165,"Delta":140000838},{"NoteNumber":57,"Velocity":57,"Duration":1818064,"SoundDuration":1818064,"Delta":140000838},{"NoteNumber":54,"Velocity":47,"Duration":1435898,"SoundDuration":1435898,"Delta":140383004},{"NoteNumber":62,"Velocity":62,"Duration":1141781,"SoundDuration":1141781,"Delta":140383004},{"NoteNumber":72,"Velocity":53,"Duration":382165,"SoundDuration":382165,"Delta":140758004},{"NoteNumber":70,"Velocity":52,"Duration":384615,"SoundDuration":384615,"Delta":141140169},{"NoteNumber":69,"Velocity":51,"Duration":407754,"SoundDuration":407754,"Delta":141524785},{"NoteNumber":60,"Velocity":55,"Duration":294117,"SoundDuration":294117,"Delta":141524785},{"NoteNumber":43,"Velocity":47,"Duration":873130,"SoundDuration":873130,"Delta":141818903},{"NoteNumber":50,"Velocity":47,"Duration":816312,"SoundDuration":816312,"Delta":141875721},{"NoteNumber":67,"Velocity":57,"Duration":379747,"SoundDuration":379747,"Delta":141932539},{"NoteNumber":58,"Velocity":57,"Duration":379747,"SoundDuration":379747,"Delta":141932539},{"NoteNumber":62,"Velocity":53,"Duration":752418,"SoundDuration":752418,"Delta":142312286},{"NoteNumber":58,"Velocity":64,"Duration":1509583,"SoundDuration":1509583,"Delta":142692033},{"NoteNumber":74,"Velocity":67,"Duration":754747,"SoundDuration":754747,"Delta":143064704},{"NoteNumber":50,"Velocity":55,"Duration":1536419,"SoundDuration":1536419,"Delta":143444451},{"NoteNumber":48,"Velocity":49,"Duration":1536419,"SoundDuration":1536419,"Delta":143444451},{"NoteNumber":70,"Velocity":63,"Duration":769262,"SoundDuration":769262,"Delta":143819451},{"NoteNumber":54,"Velocity":53,"Duration":1171411,"SoundDuration":1171411,"Delta":144201616},{"NoteNumber":69,"Velocity":57,"Duration":784313,"SoundDuration":784313,"Delta":144588713},{"NoteNumber":46,"Velocity":51,"Duration":781767,"SoundDuration":781767,"Delta":144980870},{"NoteNumber":50,"Velocity":51,"Duration":781767,"SoundDuration":781767,"Delta":144980870},{"NoteNumber":67,"Velocity":57,"Duration":792294,"SoundDuration":792294,"Delta":145373027},{"NoteNumber":55,"Velocity":62,"Duration":389610,"SoundDuration":389610,"Delta":145373027},{"NoteNumber":64,"Velocity":63,"Duration":402684,"SoundDuration":402684,"Delta":145762638},{"NoteNumber":68,"Velocity":56,"Duration":811502,"SoundDuration":811502,"Delta":146165322},{"NoteNumber":62,"Velocity":60,"Duration":302013,"SoundDuration":302013,"Delta":146165322},{"NoteNumber":45,"Velocity":36,"Duration":909489,"SoundDuration":909489,"Delta":146467336},{"NoteNumber":52,"Velocity":36,"Duration":854744,"SoundDuration":854744,"Delta":146522080},{"NoteNumber":62,"Velocity":62,"Duration":800000,"SoundDuration":800000,"Delta":146576825},{"NoteNumber":69,"Velocity":55,"Duration":810958,"SoundDuration":810958,"Delta":146976825},{"NoteNumber":61,"Velocity":57,"Duration":821918,"SoundDuration":821918,"Delta":147376825},{"NoteNumber":64,"Velocity":53,"Duration":410959,"SoundDuration":410959,"Delta":147787784},{"NoteNumber":60,"Velocity":57,"Duration":1623786,"SoundDuration":1623786,"Delta":148198743},{"NoteNumber":58,"Velocity":50,"Duration":1623786,"SoundDuration":1623786,"Delta":148198743},{"NoteNumber":72,"Velocity":69,"Duration":266666,"SoundDuration":266666,"Delta":148472715},{"NoteNumber":74,"Velocity":70,"Duration":277777,"SoundDuration":277777,"Delta":148739382},{"NoteNumber":76,"Velocity":73,"Duration":268456,"SoundDuration":268456,"Delta":149017160},{"NoteNumber":67,"Velocity":59,"Duration":1079341,"SoundDuration":1079341,"Delta":149017160},{"NoteNumber":77,"Velocity":70,"Duration":268456,"SoundDuration":268456,"Delta":149285616},{"NoteNumber":79,"Velocity":67,"Duration":268456,"SoundDuration":268456,"Delta":149554072},{"NoteNumber":72,"Velocity":74,"Duration":1655571,"SoundDuration":1655571,"Delta":149822529},{"NoteNumber":60,"Velocity":44,"Duration":1655571,"SoundDuration":1655571,"Delta":149822529},{"NoteNumber":57,"Velocity":44,"Duration":1655571,"SoundDuration":1655571,"Delta":149822529},{"NoteNumber":65,"Velocity":57,"Duration":273972,"SoundDuration":273972,"Delta":150096501},{"NoteNumber":64,"Velocity":57,"Duration":279720,"SoundDuration":279720,"Delta":150370474},{"NoteNumber":67,"Velocity":61,"Duration":544218,"SoundDuration":544218,"Delta":150650194},{"NoteNumber":65,"Velocity":59,"Duration":283688,"SoundDuration":283688,"Delta":151194412},{"NoteNumber":65,"Velocity":61,"Duration":818417,"SoundDuration":818417,"Delta":151478100},{"NoteNumber":57,"Velocity":59,"Duration":1618417,"SoundDuration":1618417,"Delta":151478100},{"NoteNumber":55,"Velocity":52,"Duration":1618417,"SoundDuration":1618417,"Delta":151478100},{"NoteNumber":69,"Velocity":71,"Duration":266666,"SoundDuration":266666,"Delta":151752073},{"NoteNumber":71,"Velocity":71,"Duration":277777,"SoundDuration":277777,"Delta":152018740},{"NoteNumber":73,"Velocity":73,"Duration":266666,"SoundDuration":266666,"Delta":152296517},{"NoteNumber":64,"Velocity":57,"Duration":1073972,"SoundDuration":1073972,"Delta":152296517},{"NoteNumber":74,"Velocity":70,"Duration":266666,"SoundDuration":266666,"Delta":152563184},{"NoteNumber":76,"Velocity":67,"Duration":266666,"SoundDuration":266666,"Delta":152829851},{"NoteNumber":69,"Velocity":74,"Duration":1643992,"SoundDuration":1643992,"Delta":153096517},{"NoteNumber":57,"Velocity":47,"Duration":1643992,"SoundDuration":1643992,"Delta":153096517},{"NoteNumber":53,"Velocity":47,"Duration":1643992,"SoundDuration":1643992,"Delta":153096517},{"NoteNumber":62,"Velocity":57,"Duration":273972,"SoundDuration":273972,"Delta":153370490},{"NoteNumber":61,"Velocity":57,"Duration":279720,"SoundDuration":279720,"Delta":153644463},{"NoteNumber":64,"Velocity":61,"Duration":544218,"SoundDuration":544218,"Delta":153924183},{"NoteNumber":62,"Velocity":59,"Duration":272109,"SoundDuration":272109,"Delta":154468401},{"NoteNumber":43,"Velocity":48,"Duration":102040,"SoundDuration":102040,"Delta":154638469},{"NoteNumber":60,"Velocity":59,"Duration":816327,"SoundDuration":816327,"Delta":154740510},{"NoteNumber":50,"Velocity":52,"Duration":1627211,"SoundDuration":1627211,"Delta":154740510},{"NoteNumber":55,"Velocity":52,"Duration":1627211,"SoundDuration":1627211,"Delta":154740510},{"NoteNumber":64,"Velocity":71,"Duration":170068,"SoundDuration":170068,"Delta":155012619},{"NoteNumber":65,"Velocity":70,"Duration":170068,"SoundDuration":170068,"Delta":155284728},{"NoteNumber":67,"Velocity":71,"Duration":170068,"SoundDuration":170068,"Delta":155556837},{"NoteNumber":58,"Velocity":56,"Duration":810884,"SoundDuration":810884,"Delta":155556837},{"NoteNumber":69,"Velocity":70,"Duration":170068,"SoundDuration":170068,"Delta":155828946},{"NoteNumber":70,"Velocity":71,"Duration":538775,"SoundDuration":538775,"Delta":156101055},{"NoteNumber":46,"Velocity":57,"Duration":816327,"SoundDuration":816327,"Delta":156367722},{"NoteNumber":70,"Velocity":71,"Duration":272109,"SoundDuration":272109,"Delta":156639831},{"NoteNumber":69,"Velocity":67,"Duration":544218,"SoundDuration":544218,"Delta":156911940},{"NoteNumber":62,"Velocity":46,"Duration":816327,"SoundDuration":816327,"Delta":157184049},{"NoteNumber":57,"Velocity":41,"Duration":816327,"SoundDuration":816327,"Delta":157184049},{"NoteNumber":53,"Velocity":41,"Duration":816327,"SoundDuration":816327,"Delta":157184049},{"NoteNumber":68,"Velocity":69,"Duration":272109,"SoundDuration":272109,"Delta":157456158},{"NoteNumber":67,"Velocity":66,"Duration":553798,"SoundDuration":553798,"Delta":157728267},{"NoteNumber":45,"Velocity":53,"Duration":825907,"SoundDuration":825907,"Delta":158000376},{"NoteNumber":66,"Velocity":68,"Duration":272109,"SoundDuration":272109,"Delta":158282066},{"NoteNumber":65,"Velocity":62,"Duration":544218,"SoundDuration":544218,"Delta":158554175},{"NoteNumber":61,"Velocity":40,"Duration":821995,"SoundDuration":821995,"Delta":158826284},{"NoteNumber":57,"Velocity":37,"Duration":821995,"SoundDuration":821995,"Delta":158826284},{"NoteNumber":55,"Velocity":37,"Duration":821995,"SoundDuration":821995,"Delta":158826284},{"NoteNumber":63,"Velocity":66,"Duration":272108,"SoundDuration":272108,"Delta":159098393},{"NoteNumber":64,"Velocity":61,"Duration":837218,"SoundDuration":837218,"Delta":159370502},{"NoteNumber":53,"Velocity":38,"Duration":1783269,"SoundDuration":1783269,"Delta":159648279},{"NoteNumber":57,"Velocity":38,"Duration":1783269,"SoundDuration":1783269,"Delta":159648279},{"NoteNumber":38,"Velocity":35,"Duration":1783269,"SoundDuration":1783269,"Delta":159648279},{"NoteNumber":45,"Velocity":35,"Duration":1783269,"SoundDuration":1783269,"Delta":159648279},{"NoteNumber":61,"Velocity":51,"Duration":300752,"SoundDuration":300752,"Delta":160207720},{"NoteNumber":61,"Velocity":50,"Duration":615384,"SoundDuration":615384,"Delta":160508472},{"NoteNumber":62,"Velocity":45,"Duration":303846,"SoundDuration":303846,"Delta":161123857},{"NoteNumber":50,"Velocity":32,"Duration":1612312,"SoundDuration":1612312,"Delta":161431549},{"NoteNumber":55,"Velocity":32,"Duration":1612312,"SoundDuration":1612312,"Delta":161431549},{"NoteNumber":58,"Velocity":36,"Duration":1612312,"SoundDuration":1612312,"Delta":161431549},{"NoteNumber":62,"Velocity":36,"Duration":1612312,"SoundDuration":1612312,"Delta":161431549},{"NoteNumber":64,"Velocity":45,"Duration":265111,"SoundDuration":265111,"Delta":161703732},{"NoteNumber":63,"Velocity":46,"Duration":265111,"SoundDuration":265111,"Delta":161968843},{"NoteNumber":64,"Velocity":45,"Duration":263802,"SoundDuration":263802,"Delta":162233955},{"NoteNumber":65,"Velocity":43,"Duration":266384,"SoundDuration":266384,"Delta":162497757},{"NoteNumber":64,"Velocity":43,"Duration":824086,"SoundDuration":824086,"Delta":162764141},{"NoteNumber":53,"Velocity":28,"Duration":1657535,"SoundDuration":1657535,"Delta":163043862},{"NoteNumber":57,"Velocity":28,"Duration":1657535,"SoundDuration":1657535,"Delta":163043862},{"NoteNumber":38,"Velocity":25,"Duration":1657535,"SoundDuration":1657535,"Delta":163043862},{"NoteNumber":45,"Velocity":28,"Duration":1657535,"SoundDuration":1657535,"Delta":163043862},{"NoteNumber":61,"Velocity":40,"Duration":279720,"SoundDuration":279720,"Delta":163588228},{"NoteNumber":61,"Velocity":45,"Duration":555632,"SoundDuration":555632,"Delta":163867948},{"NoteNumber":62,"Velocity":42,"Duration":274343,"SoundDuration":274343,"Delta":164423581},{"NoteNumber":50,"Velocity":32,"Duration":1604701,"SoundDuration":1604701,"Delta":164701397},{"NoteNumber":55,"Velocity":32,"Duration":1604701,"SoundDuration":1604701,"Delta":164701397},{"NoteNumber":58,"Velocity":36,"Duration":1604701,"SoundDuration":1604701,"Delta":164701397},{"NoteNumber":62,"Velocity":36,"Duration":1601299,"SoundDuration":1601299,"Delta":164701397},{"NoteNumber":67,"Velocity":45,"Duration":265111,"SoundDuration":265111,"Delta":164973580},{"NoteNumber":69,"Velocity":46,"Duration":265111,"SoundDuration":265111,"Delta":165238691},{"NoteNumber":70,"Velocity":47,"Duration":1082015,"SoundDuration":1082015,"Delta":165503803},{"NoteNumber":57,"Velocity":28,"Duration":1636798,"SoundDuration":1636798,"Delta":166306098},{"NoteNumber":62,"Velocity":28,"Duration":1636798,"SoundDuration":1636798,"Delta":166306098},{"NoteNumber":38,"Velocity":25,"Duration":1636798,"SoundDuration":1636798,"Delta":166306098},{"NoteNumber":45,"Velocity":28,"Duration":1636798,"SoundDuration":1636798,"Delta":166306098},{"NoteNumber":65,"Velocity":46,"Duration":266666,"SoundDuration":266666,"Delta":166585819},{"NoteNumber":67,"Velocity":45,"Duration":268493,"SoundDuration":268493,"Delta":166852485},{"NoteNumber":69,"Velocity":49,"Duration":821918,"SoundDuration":821918,"Delta":167120979},{"NoteNumber":50,"Velocity":32,"Duration":1612312,"SoundDuration":1612312,"Delta":167942897},{"NoteNumber":55,"Velocity":32,"Duration":1612312,"SoundDuration":1612312,"Delta":167942897},{"NoteNumber":58,"Velocity":36,"Duration":1612312,"SoundDuration":1612312,"Delta":167942897},{"NoteNumber":62,"Velocity":36,"Duration":1612312,"SoundDuration":1612312,"Delta":167942897},{"NoteNumber":64,"Velocity":45,"Duration":265111,"SoundDuration":265111,"Delta":168215080},{"NoteNumber":63,"Velocity":46,"Duration":265111,"SoundDuration":265111,"Delta":168480191},{"NoteNumber":64,"Velocity":45,"Duration":263802,"SoundDuration":263802,"Delta":168745302},{"NoteNumber":65,"Velocity":43,"Duration":266384,"SoundDuration":266384,"Delta":169009104},{"NoteNumber":64,"Velocity":43,"Duration":824086,"SoundDuration":824086,"Delta":169275489},{"NoteNumber":53,"Velocity":28,"Duration":1657535,"SoundDuration":1657535,"Delta":169555209},{"NoteNumber":57,"Velocity":28,"Duration":1657535,"SoundDuration":1657535,"Delta":169555209},{"NoteNumber":38,"Velocity":25,"Duration":1657535,"SoundDuration":1657535,"Delta":169555209},{"NoteNumber":45,"Velocity":28,"Duration":1657535,"SoundDuration":1657535,"Delta":169555209},{"NoteNumber":61,"Velocity":40,"Duration":279720,"SoundDuration":279720,"Delta":170099575},{"NoteNumber":61,"Velocity":45,"Duration":555632,"SoundDuration":555632,"Delta":170379296},{"NoteNumber":62,"Velocity":42,"Duration":274343,"SoundDuration":274343,"Delta":170934928},{"NoteNumber":50,"Velocity":32,"Duration":1604701,"SoundDuration":1604701,"Delta":171212745},{"NoteNumber":52,"Velocity":32,"Duration":1604701,"SoundDuration":1604701,"Delta":171212745},{"NoteNumber":62,"Velocity":36,"Duration":1604701,"SoundDuration":1604701,"Delta":171212745},{"NoteNumber":55,"Velocity":40,"Duration":298250,"SoundDuration":298250,"Delta":171484928},{"NoteNumber":57,"Velocity":41,"Duration":298032,"SoundDuration":298032,"Delta":171750039},{"NoteNumber":58,"Velocity":42,"Duration":1082015,"SoundDuration":1082015,"Delta":172015150},{"NoteNumber":38,"Velocity":25,"Duration":1636798,"SoundDuration":1636798,"Delta":172817446},{"NoteNumber":45,"Velocity":28,"Duration":1636798,"SoundDuration":1636798,"Delta":172817446},{"NoteNumber":53,"Velocity":41,"Duration":300000,"SoundDuration":300000,"Delta":173097166},{"NoteNumber":55,"Velocity":40,"Duration":302739,"SoundDuration":302739,"Delta":173363833},{"NoteNumber":57,"Velocity":44,"Duration":821918,"SoundDuration":821918,"Delta":173632326},{"NoteNumber":50,"Velocity":32,"Duration":1604701,"SoundDuration":1604701,"Delta":174454244},{"NoteNumber":52,"Velocity":32,"Duration":1604701,"SoundDuration":1604701,"Delta":174454244},{"NoteNumber":62,"Velocity":36,"Duration":1604701,"SoundDuration":1604701,"Delta":174454244},{"NoteNumber":55,"Velocity":40,"Duration":298250,"SoundDuration":298250,"Delta":174726427},{"NoteNumber":57,"Velocity":41,"Duration":298032,"SoundDuration":298032,"Delta":174991538},{"NoteNumber":58,"Velocity":42,"Duration":1082015,"SoundDuration":1082015,"Delta":175256650},{"NoteNumber":38,"Velocity":25,"Duration":1643104,"SoundDuration":1643104,"Delta":176058945},{"NoteNumber":45,"Velocity":28,"Duration":1643104,"SoundDuration":1643104,"Delta":176058945},{"NoteNumber":53,"Velocity":41,"Duration":304054,"SoundDuration":304054,"Delta":176338666},{"NoteNumber":55,"Velocity":40,"Duration":305442,"SoundDuration":305442,"Delta":176608936},{"NoteNumber":57,"Velocity":44,"Duration":1377473,"SoundDuration":1377473,"Delta":176880132},{"NoteNumber":53,"Velocity":25,"Duration":2079520,"SoundDuration":2079520,"Delta":177702050},{"NoteNumber":50,"Velocity":25,"Duration":2079520,"SoundDuration":2079520,"Delta":177702050},{"NoteNumber":62,"Velocity":28,"Duration":2079520,"SoundDuration":2079520,"Delta":177702050},{"NoteNumber":58,"Velocity":36,"Duration":277777,"SoundDuration":277777,"Delta":178257605},{"NoteNumber":58,"Velocity":39,"Duration":590277,"SoundDuration":590277,"Delta":178535383},{"NoteNumber":57,"Velocity":36,"Duration":277135,"SoundDuration":277135,"Delta":179090938},{"NoteNumber":58,"Velocity":39,"Duration":588250,"SoundDuration":588250,"Delta":179368074},{"NoteNumber":57,"Velocity":34,"Duration":282366,"SoundDuration":282366,"Delta":179921273},{"NoteNumber":58,"Velocity":36,"Duration":637780,"SoundDuration":637780,"Delta":180203640},{"NoteNumber":57,"Velocity":30,"Duration":330578,"SoundDuration":330578,"Delta":180800098},{"NoteNumber":60,"Velocity":35,"Duration":2302520,"SoundDuration":2302520,"Delta":181130676},{"NoteNumber":58,"Velocity":23,"Duration":1432880,"SoundDuration":1432880,"Delta":183433197},{"NoteNumber":57,"Velocity":22,"Duration":6153845,"SoundDuration":6153845,"Delta":184609668}],"license":{"name":"Creative Commons Attribution-ShareAlike 3.0 Germany","url":"http://creativecommons.org/licenses/by-sa/3.0/de/deed.en","text":"The MIDI files in this folder were downloaded from http://www.piano-midi.de and are licensed under the Creative Commons Attribution-ShareAlike 3.0 Germany license by Bernd Krueger.\n\nThe MIDI, audio(MP3, OGG) and video files of Bernd Krueger are licensed under the cc-by-sa Germany License . This means, that you can use and adapt the files, as long as you attribute to the copyright holder Name: Bernd Krueger Source: http://www.piano-midi.de The distribution or public playback of the files is only allowed under identical license conditions . The scores are open source.","attribution":"Bernd Krueger","attributionUrl":"http://www.piano-midi.de"}}