{"title":"The Seasons, Op. 37a No. 9: September (The Hunt)","artist":"Tchaikovsky","durationMs":161408,"midiSha256":"59f8664327c66e2566ea725387904caf61b96f1b1436ac5d33991f0d62eac60b","midiObject":[{"NoteNumber":62,"Velocity":67,"Duration":835255,"SoundDuration":835255,"Delta":0},{"NoteNumber":74,"Velocity":75,"Duration":835255,"SoundDuration":835255,"Delta":0},{"NoteNumber":74,"Velocity":73,"Duration":119322,"SoundDuration":119322,"Delta":835255},{"NoteNumber":62,"Velocity":65,"Duration":119322,"SoundDuration":119322,"Delta":835255},{"NoteNumber":62,"Velocity":67,"Duration":835255,"SoundDuration":835255,"Delta":954577},{"NoteNumber":74,"Velocity":75,"Duration":835255,"SoundDuration":835255,"Delta":954577},{"NoteNumber":74,"Velocity":71,"Duration":119322,"SoundDuration":119322,"Delta":1789833},{"NoteNumber":62,"Velocity":63,"Duration":119322,"SoundDuration":119322,"Delta":1789833},{"NoteNumber":62,"Velocity":70,"Duration":835255,"SoundDuration":835255,"Delta":1909155},{"NoteNumber":74,"Velocity":78,"Duration":835255,"SoundDuration":835255,"Delta":1909155},{"NoteNumber":62,"Velocity":66,"Duration":119322,"SoundDuration":119322,"Delta":2744411},{"NoteNumber":74,"Velocity":74,"Duration":119322,"SoundDuration":119322,"Delta":2744411},{"NoteNumber":74,"Velocity":78,"Duration":835255,"SoundDuration":835255,"Delta":2863734},{"NoteNumber":62,"Velocity":70,"Duration":835255,"SoundDuration":835255,"Delta":2863734},{"NoteNumber":62,"Velocity":67,"Duration":119322,"SoundDuration":119322,"Delta":3698989},{"NoteNumber":74,"Velocity":75,"Duration":119322,"SoundDuration":119322,"Delta":3698989},{"NoteNumber":62,"Velocity":70,"Duration":467581,"SoundDuration":467581,"Delta":3818311},{"NoteNumber":74,"Velocity":78,"Duration":467581,"SoundDuration":467581,"Delta":3818311},{"NoteNumber":55,"Velocity":68,"Duration":606469,"SoundDuration":606469,"Delta":3818311},{"NoteNumber":47,"Velocity":61,"Duration":606469,"SoundDuration":606469,"Delta":3818311},{"NoteNumber":74,"Velocity":78,"Duration":870959,"SoundDuration":870959,"Delta":4285893},{"NoteNumber":62,"Velocity":70,"Duration":870959,"SoundDuration":870959,"Delta":4285893},{"NoteNumber":47,"Velocity":56,"Duration":104166,"SoundDuration":104166,"Delta":4424782},{"NoteNumber":55,"Velocity":63,"Duration":104166,"SoundDuration":104166,"Delta":4424782},{"NoteNumber":55,"Velocity":63,"Duration":111873,"SoundDuration":111873,"Delta":4563670},{"NoteNumber":47,"Velocity":56,"Duration":111873,"SoundDuration":111873,"Delta":4563670},{"NoteNumber":47,"Velocity":62,"Duration":583389,"SoundDuration":583389,"Delta":4712835},{"NoteNumber":55,"Velocity":69,"Duration":583389,"SoundDuration":583389,"Delta":4712835},{"NoteNumber":62,"Velocity":70,"Duration":865611,"SoundDuration":865611,"Delta":5156852},{"NoteNumber":74,"Velocity":78,"Duration":865611,"SoundDuration":865611,"Delta":5156852},{"NoteNumber":47,"Velocity":56,"Duration":104529,"SoundDuration":104529,"Delta":5296225},{"NoteNumber":55,"Velocity":63,"Duration":104529,"SoundDuration":104529,"Delta":5296225},{"NoteNumber":55,"Velocity":62,"Duration":104529,"SoundDuration":104529,"Delta":5435597},{"NoteNumber":47,"Velocity":55,"Duration":104529,"SoundDuration":104529,"Delta":5435597},{"NoteNumber":47,"Velocity":61,"Duration":675683,"SoundDuration":675683,"Delta":5574970},{"NoteNumber":55,"Velocity":68,"Duration":675683,"SoundDuration":675683,"Delta":5574970},{"NoteNumber":62,"Velocity":70,"Duration":697673,"SoundDuration":697673,"Delta":6022464},{"NoteNumber":74,"Velocity":78,"Duration":697673,"SoundDuration":697673,"Delta":6022464},{"NoteNumber":59,"Velocity":62,"Duration":117371,"SoundDuration":117371,"Delta":6250653},{"NoteNumber":55,"Velocity":55,"Duration":117371,"SoundDuration":117371,"Delta":6250653},{"NoteNumber":57,"Velocity":61,"Duration":117371,"SoundDuration":117371,"Delta":6485395},{"NoteNumber":60,"Velocity":68,"Duration":117371,"SoundDuration":117371,"Delta":6485395},{"NoteNumber":74,"Velocity":75,"Duration":469484,"SoundDuration":469484,"Delta":6720137},{"NoteNumber":62,"Velocity":67,"Duration":469484,"SoundDuration":469484,"Delta":6720137},{"NoteNumber":59,"Velocity":62,"Duration":117371,"SoundDuration":117371,"Delta":6720137},{"NoteNumber":55,"Velocity":55,"Duration":117371,"SoundDuration":117371,"Delta":6720137},{"NoteNumber":60,"Velocity":68,"Duration":117370,"SoundDuration":117370,"Delta":6954879},{"NoteNumber":57,"Velocity":61,"Duration":117370,"SoundDuration":117370,"Delta":6954879},{"NoteNumber":74,"Velocity":76,"Duration":117371,"SoundDuration":117371,"Delta":7189621},{"NoteNumber":62,"Velocity":68,"Duration":117371,"SoundDuration":117371,"Delta":7189621},{"NoteNumber":50,"Velocity":60,"Duration":117371,"SoundDuration":117371,"Delta":7189621},{"NoteNumber":57,"Velocity":67,"Duration":117371,"SoundDuration":117371,"Delta":7189621},{"NoteNumber":59,"Velocity":61,"Duration":598085,"SoundDuration":598085,"Delta":7424363},{"NoteNumber":62,"Velocity":68,"Duration":598085,"SoundDuration":598085,"Delta":7424363},{"NoteNumber":79,"Velocity":83,"Duration":872314,"SoundDuration":872314,"Delta":7882588},{"NoteNumber":67,"Velocity":83,"Duration":872314,"SoundDuration":872314,"Delta":7882588},{"NoteNumber":62,"Velocity":63,"Duration":104894,"SoundDuration":104894,"Delta":8022448},{"NoteNumber":59,"Velocity":56,"Duration":104894,"SoundDuration":104894,"Delta":8022448},{"NoteNumber":59,"Velocity":56,"Duration":111432,"SoundDuration":111432,"Delta":8162308},{"NoteNumber":62,"Velocity":63,"Duration":111432,"SoundDuration":111432,"Delta":8162308},{"NoteNumber":59,"Velocity":62,"Duration":583389,"SoundDuration":583389,"Delta":8310885},{"NoteNumber":62,"Velocity":69,"Duration":583389,"SoundDuration":583389,"Delta":8310885},{"NoteNumber":67,"Velocity":70,"Duration":657423,"SoundDuration":657423,"Delta":8754902},{"NoteNumber":79,"Velocity":78,"Duration":657423,"SoundDuration":657423,"Delta":8754902},{"NoteNumber":62,"Velocity":63,"Duration":107122,"SoundDuration":107122,"Delta":8894275},{"NoteNumber":59,"Velocity":56,"Duration":107122,"SoundDuration":107122,"Delta":8894275},{"NoteNumber":59,"Velocity":55,"Duration":112309,"SoundDuration":112309,"Delta":9038834},{"NoteNumber":62,"Velocity":62,"Duration":112309,"SoundDuration":112309,"Delta":9038834},{"NoteNumber":64,"Velocity":68,"Duration":111873,"SoundDuration":111873,"Delta":9188579},{"NoteNumber":60,"Velocity":61,"Duration":111873,"SoundDuration":111873,"Delta":9188579},{"NoteNumber":67,"Velocity":70,"Duration":451936,"SoundDuration":451936,"Delta":9412326},{"NoteNumber":79,"Velocity":78,"Duration":451936,"SoundDuration":451936,"Delta":9412326},{"NoteNumber":59,"Velocity":54,"Duration":111873,"SoundDuration":111873,"Delta":9412326},{"NoteNumber":62,"Velocity":61,"Duration":111873,"SoundDuration":111873,"Delta":9412326},{"NoteNumber":57,"Velocity":58,"Duration":114094,"SoundDuration":114094,"Delta":9636073},{"NoteNumber":60,"Velocity":65,"Duration":114094,"SoundDuration":114094,"Delta":9636073},{"NoteNumber":79,"Velocity":76,"Duration":117371,"SoundDuration":117371,"Delta":9864263},{"NoteNumber":67,"Velocity":68,"Duration":117371,"SoundDuration":117371,"Delta":9864263},{"NoteNumber":55,"Velocity":53,"Duration":117371,"SoundDuration":117371,"Delta":9864263},{"NoteNumber":59,"Velocity":59,"Duration":117371,"SoundDuration":117371,"Delta":9864263},{"NoteNumber":86,"Velocity":97,"Duration":117370,"SoundDuration":117370,"Delta":10099005},{"NoteNumber":74,"Velocity":87,"Duration":117370,"SoundDuration":117370,"Delta":10099005},{"NoteNumber":78,"Velocity":87,"Duration":117370,"SoundDuration":117370,"Delta":10099005},{"NoteNumber":57,"Velocity":79,"Duration":117370,"SoundDuration":117370,"Delta":10099005},{"NoteNumber":50,"Velocity":71,"Duration":117370,"SoundDuration":117370,"Delta":10099005},{"NoteNumber":86,"Velocity":88,"Duration":117371,"SoundDuration":117371,"Delta":10333746},{"NoteNumber":74,"Velocity":79,"Duration":117371,"SoundDuration":117371,"Delta":10333746},{"NoteNumber":79,"Velocity":79,"Duration":117371,"SoundDuration":117371,"Delta":10333746},{"NoteNumber":59,"Velocity":74,"Duration":117371,"SoundDuration":117371,"Delta":10333746},{"NoteNumber":55,"Velocity":66,"Duration":117371,"SoundDuration":117371,"Delta":10333746},{"NoteNumber":86,"Velocity":94,"Duration":234741,"SoundDuration":234741,"Delta":10568489},{"NoteNumber":74,"Velocity":84,"Duration":234741,"SoundDuration":234741,"Delta":10568489},{"NoteNumber":78,"Velocity":84,"Duration":234741,"SoundDuration":234741,"Delta":10568489},{"NoteNumber":50,"Velocity":71,"Duration":234741,"SoundDuration":234741,"Delta":10568489},{"NoteNumber":57,"Velocity":79,"Duration":234741,"SoundDuration":234741,"Delta":10568489},{"NoteNumber":59,"Velocity":72,"Duration":607440,"SoundDuration":607440,"Delta":11037973},{"NoteNumber":67,"Velocity":80,"Duration":607440,"SoundDuration":607440,"Delta":11037973},{"NoteNumber":51,"Velocity":64,"Duration":871166,"SoundDuration":871166,"Delta":11505553},{"NoteNumber":63,"Velocity":72,"Duration":871166,"SoundDuration":871166,"Delta":11505553},{"NoteNumber":59,"Velocity":67,"Duration":104894,"SoundDuration":104894,"Delta":11645413},{"NoteNumber":67,"Velocity":75,"Duration":104894,"SoundDuration":104894,"Delta":11645413},{"NoteNumber":67,"Velocity":75,"Duration":111873,"SoundDuration":111873,"Delta":11785274},{"NoteNumber":59,"Velocity":67,"Duration":111873,"SoundDuration":111873,"Delta":11785274},{"NoteNumber":67,"Velocity":81,"Duration":582142,"SoundDuration":582142,"Delta":11934438},{"NoteNumber":59,"Velocity":72,"Duration":582142,"SoundDuration":582142,"Delta":11934438},{"NoteNumber":50,"Velocity":63,"Duration":419579,"SoundDuration":419579,"Delta":12376720},{"NoteNumber":62,"Velocity":70,"Duration":419579,"SoundDuration":419579,"Delta":12376720},{"NoteNumber":67,"Velocity":75,"Duration":104894,"SoundDuration":104894,"Delta":12516580},{"NoteNumber":59,"Velocity":67,"Duration":104894,"SoundDuration":104894,"Delta":12516580},{"NoteNumber":59,"Velocity":66,"Duration":104895,"SoundDuration":104895,"Delta":12656440},{"NoteNumber":67,"Velocity":74,"Duration":104895,"SoundDuration":104895,"Delta":12656440},{"NoteNumber":59,"Velocity":72,"Duration":673892,"SoundDuration":673892,"Delta":12796300},{"NoteNumber":67,"Velocity":80,"Duration":673892,"SoundDuration":673892,"Delta":12796300},{"NoteNumber":63,"Velocity":72,"Duration":912848,"SoundDuration":912848,"Delta":13243794},{"NoteNumber":51,"Velocity":64,"Duration":912848,"SoundDuration":912848,"Delta":13243794},{"NoteNumber":67,"Velocity":66,"Duration":115012,"SoundDuration":115012,"Delta":13470192},{"NoteNumber":71,"Velocity":74,"Duration":115012,"SoundDuration":115012,"Delta":13470192},{"NoteNumber":69,"Velocity":72,"Duration":113198,"SoundDuration":113198,"Delta":13700218},{"NoteNumber":72,"Velocity":80,"Duration":113198,"SoundDuration":113198,"Delta":13700218},{"NoteNumber":67,"Velocity":66,"Duration":115012,"SoundDuration":115012,"Delta":13926616},{"NoteNumber":71,"Velocity":74,"Duration":115012,"SoundDuration":115012,"Delta":13926616},{"NoteNumber":69,"Velocity":72,"Duration":113198,"SoundDuration":113198,"Delta":14156642},{"NoteNumber":72,"Velocity":80,"Duration":113198,"SoundDuration":113198,"Delta":14156642},{"NoteNumber":50,"Velocity":62,"Duration":452795,"SoundDuration":452795,"Delta":14156642},{"NoteNumber":62,"Velocity":69,"Duration":452795,"SoundDuration":452795,"Delta":14156642},{"NoteNumber":62,"Velocity":71,"Duration":113198,"SoundDuration":113198,"Delta":14383040},{"NoteNumber":69,"Velocity":79,"Duration":113198,"SoundDuration":113198,"Delta":14383040},{"NoteNumber":74,"Velocity":80,"Duration":598085,"SoundDuration":598085,"Delta":14609438},{"NoteNumber":71,"Velocity":72,"Duration":598085,"SoundDuration":598085,"Delta":14609438},{"NoteNumber":67,"Velocity":68,"Duration":428297,"SoundDuration":428297,"Delta":15067663},{"NoteNumber":55,"Velocity":61,"Duration":428297,"SoundDuration":428297,"Delta":15067663},{"NoteNumber":74,"Velocity":75,"Duration":104894,"SoundDuration":104894,"Delta":15207523},{"NoteNumber":71,"Velocity":67,"Duration":104894,"SoundDuration":104894,"Delta":15207523},{"NoteNumber":71,"Velocity":67,"Duration":111432,"SoundDuration":111432,"Delta":15347383},{"NoteNumber":74,"Velocity":75,"Duration":111432,"SoundDuration":111432,"Delta":15347383},{"NoteNumber":71,"Velocity":72,"Duration":577572,"SoundDuration":577572,"Delta":15495961},{"NoteNumber":74,"Velocity":81,"Duration":577572,"SoundDuration":577572,"Delta":15495961},{"NoteNumber":66,"Velocity":72,"Duration":437222,"SoundDuration":437222,"Delta":15495961},{"NoteNumber":54,"Velocity":64,"Duration":437222,"SoundDuration":437222,"Delta":15495961},{"NoteNumber":65,"Velocity":69,"Duration":435144,"SoundDuration":435144,"Delta":15933183},{"NoteNumber":53,"Velocity":62,"Duration":435144,"SoundDuration":435144,"Delta":15933183},{"NoteNumber":74,"Velocity":75,"Duration":107611,"SoundDuration":107611,"Delta":16073533},{"NoteNumber":71,"Velocity":67,"Duration":107611,"SoundDuration":107611,"Delta":16073533},{"NoteNumber":71,"Velocity":66,"Duration":112308,"SoundDuration":112308,"Delta":16218582},{"NoteNumber":74,"Velocity":74,"Duration":112308,"SoundDuration":112308,"Delta":16218582},{"NoteNumber":72,"Velocity":72,"Duration":111873,"SoundDuration":111873,"Delta":16368327},{"NoteNumber":76,"Velocity":80,"Duration":111873,"SoundDuration":111873,"Delta":16368327},{"NoteNumber":52,"Velocity":64,"Duration":675682,"SoundDuration":675682,"Delta":16368327},{"NoteNumber":64,"Velocity":72,"Duration":675682,"SoundDuration":675682,"Delta":16368327},{"NoteNumber":71,"Velocity":69,"Duration":111873,"SoundDuration":111873,"Delta":16592074},{"NoteNumber":74,"Velocity":77,"Duration":111873,"SoundDuration":111873,"Delta":16592074},{"NoteNumber":69,"Velocity":69,"Duration":114094,"SoundDuration":114094,"Delta":16815821},{"NoteNumber":72,"Velocity":77,"Duration":114094,"SoundDuration":114094,"Delta":16815821},{"NoteNumber":68,"Velocity":75,"Duration":117370,"SoundDuration":117370,"Delta":17044010},{"NoteNumber":64,"Velocity":67,"Duration":117370,"SoundDuration":117370,"Delta":17044010},{"NoteNumber":71,"Velocity":75,"Duration":117370,"SoundDuration":117370,"Delta":17044010},{"NoteNumber":50,"Velocity":54,"Duration":117370,"SoundDuration":117370,"Delta":17044010},{"NoteNumber":52,"Velocity":54,"Duration":117370,"SoundDuration":117370,"Delta":17044010},{"NoteNumber":62,"Velocity":60,"Duration":117370,"SoundDuration":117370,"Delta":17044010},{"NoteNumber":69,"Velocity":82,"Duration":115946,"SoundDuration":115946,"Delta":17278752},{"NoteNumber":64,"Velocity":73,"Duration":115946,"SoundDuration":115946,"Delta":17278752},{"NoteNumber":52,"Velocity":59,"Duration":115946,"SoundDuration":115946,"Delta":17278752},{"NoteNumber":60,"Velocity":66,"Duration":115946,"SoundDuration":115946,"Delta":17278752},{"NoteNumber":48,"Velocity":59,"Duration":115946,"SoundDuration":115946,"Delta":17278752},{"NoteNumber":64,"Velocity":69,"Duration":117859,"SoundDuration":117859,"Delta":17510645},{"NoteNumber":68,"Velocity":69,"Duration":117859,"SoundDuration":117859,"Delta":17510645},{"NoteNumber":71,"Velocity":77,"Duration":117859,"SoundDuration":117859,"Delta":17510645},{"NoteNumber":52,"Velocity":51,"Duration":117859,"SoundDuration":117859,"Delta":17510645},{"NoteNumber":59,"Velocity":57,"Duration":117859,"SoundDuration":117859,"Delta":17510645},{"NoteNumber":47,"Velocity":51,"Duration":117859,"SoundDuration":117859,"Delta":17510645},{"NoteNumber":64,"Velocity":67,"Duration":116414,"SoundDuration":116414,"Delta":17746364},{"NoteNumber":69,"Velocity":73,"Duration":116414,"SoundDuration":116414,"Delta":17746364},{"NoteNumber":72,"Velocity":82,"Duration":116414,"SoundDuration":116414,"Delta":17746364},{"NoteNumber":52,"Velocity":54,"Duration":116414,"SoundDuration":116414,"Delta":17746364},{"NoteNumber":57,"Velocity":60,"Duration":116414,"SoundDuration":116414,"Delta":17746364},{"NoteNumber":45,"Velocity":54,"Duration":116414,"SoundDuration":116414,"Delta":17746364},{"NoteNumber":55,"Velocity":55,"Duration":117370,"SoundDuration":117370,"Delta":17979193},{"NoteNumber":43,"Velocity":49,"Duration":117370,"SoundDuration":117370,"Delta":17979193},{"NoteNumber":74,"Velocity":64,"Duration":112241,"SoundDuration":112241,"Delta":18213935},{"NoteNumber":78,"Velocity":72,"Duration":112241,"SoundDuration":112241,"Delta":18213935},{"NoteNumber":54,"Velocity":60,"Duration":112241,"SoundDuration":112241,"Delta":18213935},{"NoteNumber":42,"Velocity":54,"Duration":112241,"SoundDuration":112241,"Delta":18213935},{"NoteNumber":76,"Velocity":66,"Duration":115004,"SoundDuration":115004,"Delta":18438419},{"NoteNumber":73,"Velocity":59,"Duration":115004,"SoundDuration":115004,"Delta":18438419},{"NoteNumber":74,"Velocity":71,"Duration":113147,"SoundDuration":113147,"Delta":18668428},{"NoteNumber":71,"Velocity":63,"Duration":113147,"SoundDuration":113147,"Delta":18668428},{"NoteNumber":70,"Velocity":67,"Duration":115004,"SoundDuration":115004,"Delta":18894723},{"NoteNumber":73,"Velocity":67,"Duration":115004,"SoundDuration":115004,"Delta":18894723},{"NoteNumber":66,"Velocity":60,"Duration":115004,"SoundDuration":115004,"Delta":18894723},{"NoteNumber":52,"Velocity":51,"Duration":115004,"SoundDuration":115004,"Delta":18894723},{"NoteNumber":64,"Velocity":57,"Duration":115004,"SoundDuration":115004,"Delta":18894723},{"NoteNumber":66,"Velocity":62,"Duration":114068,"SoundDuration":114068,"Delta":19124731},{"NoteNumber":71,"Velocity":69,"Duration":114068,"SoundDuration":114068,"Delta":19124731},{"NoteNumber":50,"Velocity":54,"Duration":114068,"SoundDuration":114068,"Delta":19124731},{"NoteNumber":62,"Velocity":60,"Duration":114068,"SoundDuration":114068,"Delta":19124731},{"NoteNumber":66,"Velocity":57,"Duration":115491,"SoundDuration":115491,"Delta":19352869},{"NoteNumber":70,"Velocity":64,"Duration":115491,"SoundDuration":115491,"Delta":19352869},{"NoteNumber":73,"Velocity":64,"Duration":115491,"SoundDuration":115491,"Delta":19352869},{"NoteNumber":49,"Velocity":50,"Duration":115491,"SoundDuration":115491,"Delta":19352869},{"NoteNumber":61,"Velocity":56,"Duration":115491,"SoundDuration":115491,"Delta":19352869},{"NoteNumber":66,"Velocity":60,"Duration":114068,"SoundDuration":114068,"Delta":19583851},{"NoteNumber":71,"Velocity":67,"Duration":114068,"SoundDuration":114068,"Delta":19583851},{"NoteNumber":74,"Velocity":67,"Duration":114068,"SoundDuration":114068,"Delta":19583851},{"NoteNumber":47,"Velocity":53,"Duration":114068,"SoundDuration":114068,"Delta":19583851},{"NoteNumber":59,"Velocity":59,"Duration":114068,"SoundDuration":114068,"Delta":19583851},{"NoteNumber":45,"Velocity":50,"Duration":115004,"SoundDuration":115004,"Delta":19811988},{"NoteNumber":57,"Velocity":56,"Duration":115004,"SoundDuration":115004,"Delta":19811988},{"NoteNumber":76,"Velocity":64,"Duration":111004,"SoundDuration":111004,"Delta":20041997},{"NoteNumber":80,"Velocity":72,"Duration":111004,"SoundDuration":111004,"Delta":20041997},{"NoteNumber":56,"Velocity":60,"Duration":111004,"SoundDuration":111004,"Delta":20041997},{"NoteNumber":44,"Velocity":54,"Duration":111004,"SoundDuration":111004,"Delta":20041997},{"NoteNumber":78,"Velocity":66,"Duration":113199,"SoundDuration":113199,"Delta":20264005},{"NoteNumber":75,"Velocity":59,"Duration":113199,"SoundDuration":113199,"Delta":20264005},{"NoteNumber":73,"Velocity":63,"Duration":111873,"SoundDuration":111873,"Delta":20490403},{"NoteNumber":76,"Velocity":71,"Duration":111873,"SoundDuration":111873,"Delta":20490403},{"NoteNumber":68,"Velocity":60,"Duration":113645,"SoundDuration":113645,"Delta":20714150},{"NoteNumber":72,"Velocity":67,"Duration":113645,"SoundDuration":113645,"Delta":20714150},{"NoteNumber":75,"Velocity":67,"Duration":113645,"SoundDuration":113645,"Delta":20714150},{"NoteNumber":54,"Velocity":51,"Duration":113645,"SoundDuration":113645,"Delta":20714150},{"NoteNumber":66,"Velocity":57,"Duration":113645,"SoundDuration":113645,"Delta":20714150},{"NoteNumber":68,"Velocity":62,"Duration":111433,"SoundDuration":111433,"Delta":20941440},{"NoteNumber":73,"Velocity":69,"Duration":111433,"SoundDuration":111433,"Delta":20941440},{"NoteNumber":56,"Velocity":54,"Duration":111433,"SoundDuration":111433,"Delta":20941440},{"NoteNumber":64,"Velocity":60,"Duration":111433,"SoundDuration":111433,"Delta":20941440},{"NoteNumber":52,"Velocity":54,"Duration":111433,"SoundDuration":111433,"Delta":20941440},{"NoteNumber":72,"Velocity":64,"Duration":113199,"SoundDuration":113199,"Delta":21164306},{"NoteNumber":68,"Velocity":57,"Duration":113199,"SoundDuration":113199,"Delta":21164306},{"NoteNumber":75,"Velocity":64,"Duration":113199,"SoundDuration":113199,"Delta":21164306},{"NoteNumber":51,"Velocity":50,"Duration":113199,"SoundDuration":113199,"Delta":21164306},{"NoteNumber":63,"Velocity":56,"Duration":113199,"SoundDuration":113199,"Delta":21164306},{"NoteNumber":56,"Velocity":51,"Duration":113199,"SoundDuration":113199,"Delta":21164306},{"NoteNumber":73,"Velocity":67,"Duration":112747,"SoundDuration":112747,"Delta":21390704},{"NoteNumber":76,"Velocity":67,"Duration":112747,"SoundDuration":112747,"Delta":21390704},{"NoteNumber":68,"Velocity":60,"Duration":112747,"SoundDuration":112747,"Delta":21390704},{"NoteNumber":49,"Velocity":53,"Duration":112747,"SoundDuration":112747,"Delta":21390704},{"NoteNumber":61,"Velocity":59,"Duration":112747,"SoundDuration":112747,"Delta":21390704},{"NoteNumber":56,"Velocity":53,"Duration":112747,"SoundDuration":112747,"Delta":21390704},{"NoteNumber":47,"Velocity":50,"Duration":115004,"SoundDuration":115004,"Delta":21616200},{"NoteNumber":59,"Velocity":56,"Duration":115004,"SoundDuration":115004,"Delta":21616200},{"NoteNumber":78,"Velocity":54,"Duration":222865,"SoundDuration":222865,"Delta":21846209},{"NoteNumber":81,"Velocity":61,"Duration":222865,"SoundDuration":222865,"Delta":21846209},{"NoteNumber":45,"Velocity":54,"Duration":445731,"SoundDuration":445731,"Delta":21846209},{"NoteNumber":57,"Velocity":60,"Duration":445731,"SoundDuration":445731,"Delta":21846209},{"NoteNumber":76,"Velocity":49,"Duration":222865,"SoundDuration":222865,"Delta":22069074},{"NoteNumber":79,"Velocity":55,"Duration":222865,"SoundDuration":222865,"Delta":22069074},{"NoteNumber":78,"Velocity":60,"Duration":219458,"SoundDuration":219458,"Delta":22291940},{"NoteNumber":74,"Velocity":54,"Duration":219458,"SoundDuration":219458,"Delta":22291940},{"NoteNumber":59,"Velocity":56,"Duration":437244,"SoundDuration":437244,"Delta":22291940},{"NoteNumber":57,"Velocity":56,"Duration":437244,"SoundDuration":437244,"Delta":22291940},{"NoteNumber":47,"Velocity":50,"Duration":437244,"SoundDuration":437244,"Delta":22291940},{"NoteNumber":69,"Velocity":50,"Duration":217786,"SoundDuration":217786,"Delta":22511399},{"NoteNumber":76,"Velocity":56,"Duration":217786,"SoundDuration":217786,"Delta":22511399},{"NoteNumber":78,"Velocity":54,"Duration":221140,"SoundDuration":221140,"Delta":22729185},{"NoteNumber":81,"Velocity":61,"Duration":221140,"SoundDuration":221140,"Delta":22729185},{"NoteNumber":57,"Velocity":60,"Duration":660892,"SoundDuration":660892,"Delta":22729185},{"NoteNumber":60,"Velocity":60,"Duration":660892,"SoundDuration":660892,"Delta":22729185},{"NoteNumber":48,"Velocity":54,"Duration":660892,"SoundDuration":660892,"Delta":22729185},{"NoteNumber":79,"Velocity":55,"Duration":221140,"SoundDuration":221140,"Delta":22950326},{"NoteNumber":76,"Velocity":49,"Duration":221140,"SoundDuration":221140,"Delta":22950326},{"NoteNumber":74,"Velocity":54,"Duration":218610,"SoundDuration":218610,"Delta":23171467},{"NoteNumber":78,"Velocity":60,"Duration":218610,"SoundDuration":218610,"Delta":23171467},{"NoteNumber":69,"Velocity":52,"Duration":222865,"SoundDuration":222865,"Delta":23390078},{"NoteNumber":76,"Velocity":58,"Duration":222865,"SoundDuration":222865,"Delta":23390078},{"NoteNumber":49,"Velocity":51,"Duration":222865,"SoundDuration":222865,"Delta":23390078},{"NoteNumber":61,"Velocity":57,"Duration":222865,"SoundDuration":222865,"Delta":23390078},{"NoteNumber":57,"Velocity":57,"Duration":222865,"SoundDuration":222865,"Delta":23390078},{"NoteNumber":81,"Velocity":62,"Duration":217786,"SoundDuration":217786,"Delta":23612944},{"NoteNumber":78,"Velocity":55,"Duration":217786,"SoundDuration":217786,"Delta":23612944},{"NoteNumber":45,"Velocity":55,"Duration":438082,"SoundDuration":438082,"Delta":23612944},{"NoteNumber":57,"Velocity":62,"Duration":438082,"SoundDuration":438082,"Delta":23612944},{"NoteNumber":76,"Velocity":51,"Duration":220296,"SoundDuration":220296,"Delta":23830730},{"NoteNumber":79,"Velocity":57,"Duration":220296,"SoundDuration":220296,"Delta":23830730},{"NoteNumber":74,"Velocity":56,"Duration":220296,"SoundDuration":220296,"Delta":24051026},{"NoteNumber":78,"Velocity":63,"Duration":220296,"SoundDuration":220296,"Delta":24051026},{"NoteNumber":59,"Velocity":58,"Duration":444043,"SoundDuration":444043,"Delta":24051026},{"NoteNumber":57,"Velocity":58,"Duration":444043,"SoundDuration":444043,"Delta":24051026},{"NoteNumber":47,"Velocity":52,"Duration":444043,"SoundDuration":444043,"Delta":24051026},{"NoteNumber":76,"Velocity":59,"Duration":223746,"SoundDuration":223746,"Delta":24271323},{"NoteNumber":69,"Velocity":53,"Duration":223746,"SoundDuration":223746,"Delta":24271323},{"NoteNumber":78,"Velocity":56,"Duration":216967,"SoundDuration":216967,"Delta":24495070},{"NoteNumber":81,"Velocity":63,"Duration":216967,"SoundDuration":216967,"Delta":24495070},{"NoteNumber":57,"Velocity":62,"Duration":657560,"SoundDuration":657560,"Delta":24495070},{"NoteNumber":60,"Velocity":62,"Duration":657560,"SoundDuration":657560,"Delta":24495070},{"NoteNumber":48,"Velocity":55,"Duration":657560,"SoundDuration":657560,"Delta":24495070},{"NoteNumber":79,"Velocity":59,"Duration":220296,"SoundDuration":220296,"Delta":24712037},{"NoteNumber":76,"Velocity":53,"Duration":220296,"SoundDuration":220296,"Delta":24712037},{"NoteNumber":74,"Velocity":56,"Duration":220296,"SoundDuration":220296,"Delta":24932333},{"NoteNumber":78,"Velocity":63,"Duration":220296,"SoundDuration":220296,"Delta":24932333},{"NoteNumber":69,"Velocity":54,"Duration":223746,"SoundDuration":223746,"Delta":25152630},{"NoteNumber":76,"Velocity":61,"Duration":223746,"SoundDuration":223746,"Delta":25152630},{"NoteNumber":49,"Velocity":54,"Duration":223746,"SoundDuration":223746,"Delta":25152630},{"NoteNumber":57,"Velocity":60,"Duration":223746,"SoundDuration":223746,"Delta":25152630},{"NoteNumber":61,"Velocity":60,"Duration":223746,"SoundDuration":223746,"Delta":25152630},{"NoteNumber":86,"Velocity":69,"Duration":216138,"SoundDuration":216138,"Delta":25376377},{"NoteNumber":83,"Velocity":62,"Duration":216138,"SoundDuration":216138,"Delta":25376377},{"NoteNumber":50,"Velocity":62,"Duration":432276,"SoundDuration":432276,"Delta":25376377},{"NoteNumber":62,"Velocity":69,"Duration":432276,"SoundDuration":432276,"Delta":25376377},{"NoteNumber":81,"Velocity":56,"Duration":216138,"SoundDuration":216138,"Delta":25592515},{"NoteNumber":84,"Velocity":63,"Duration":216138,"SoundDuration":216138,"Delta":25592515},{"NoteNumber":79,"Velocity":61,"Duration":220296,"SoundDuration":220296,"Delta":25808654},{"NoteNumber":83,"Velocity":68,"Duration":220296,"SoundDuration":220296,"Delta":25808654},{"NoteNumber":64,"Velocity":63,"Duration":444914,"SoundDuration":444914,"Delta":25808654},{"NoteNumber":62,"Velocity":63,"Duration":444914,"SoundDuration":444914,"Delta":25808654},{"NoteNumber":52,"Velocity":56,"Duration":444914,"SoundDuration":444914,"Delta":25808654},{"NoteNumber":81,"Velocity":63,"Duration":224617,"SoundDuration":224617,"Delta":26028950},{"NoteNumber":74,"Velocity":56,"Duration":224617,"SoundDuration":224617,"Delta":26028950},{"NoteNumber":83,"Velocity":63,"Duration":215331,"SoundDuration":215331,"Delta":26253568},{"NoteNumber":86,"Velocity":71,"Duration":215331,"SoundDuration":215331,"Delta":26253568},{"NoteNumber":62,"Velocity":69,"Duration":648448,"SoundDuration":648448,"Delta":26253568},{"NoteNumber":53,"Velocity":62,"Duration":648448,"SoundDuration":648448,"Delta":26253568},{"NoteNumber":65,"Velocity":69,"Duration":648448,"SoundDuration":648448,"Delta":26253568},{"NoteNumber":81,"Velocity":57,"Duration":215331,"SoundDuration":215331,"Delta":26468900},{"NoteNumber":84,"Velocity":64,"Duration":215331,"SoundDuration":215331,"Delta":26468900},{"NoteNumber":83,"Velocity":69,"Duration":217786,"SoundDuration":217786,"Delta":26684231},{"NoteNumber":79,"Velocity":62,"Duration":217786,"SoundDuration":217786,"Delta":26684231},{"NoteNumber":81,"Velocity":66,"Duration":222865,"SoundDuration":222865,"Delta":26902017},{"NoteNumber":74,"Velocity":59,"Duration":222865,"SoundDuration":222865,"Delta":26902017},{"NoteNumber":54,"Velocity":58,"Duration":222865,"SoundDuration":222865,"Delta":26902017},{"NoteNumber":62,"Velocity":65,"Duration":222865,"SoundDuration":222865,"Delta":26902017},{"NoteNumber":66,"Velocity":65,"Duration":222865,"SoundDuration":222865,"Delta":26902017},{"NoteNumber":86,"Velocity":72,"Duration":214515,"SoundDuration":214515,"Delta":27124883},{"NoteNumber":83,"Velocity":64,"Duration":214515,"SoundDuration":214515,"Delta":27124883},{"NoteNumber":62,"Velocity":71,"Duration":429030,"SoundDuration":429030,"Delta":27124883},{"NoteNumber":50,"Velocity":63,"Duration":429030,"SoundDuration":429030,"Delta":27124883},{"NoteNumber":81,"Velocity":58,"Duration":214515,"SoundDuration":214515,"Delta":27339399},{"NoteNumber":84,"Velocity":65,"Duration":214515,"SoundDuration":214515,"Delta":27339399},{"NoteNumber":79,"Velocity":63,"Duration":218610,"SoundDuration":218610,"Delta":27553914},{"NoteNumber":83,"Velocity":71,"Duration":218610,"SoundDuration":218610,"Delta":27553914},{"NoteNumber":64,"Velocity":66,"Duration":433942,"SoundDuration":433942,"Delta":27553914},{"NoteNumber":62,"Velocity":66,"Duration":433942,"SoundDuration":433942,"Delta":27553914},{"NoteNumber":52,"Velocity":59,"Duration":433942,"SoundDuration":433942,"Delta":27553914},{"NoteNumber":81,"Velocity":68,"Duration":215331,"SoundDuration":215331,"Delta":27772525},{"NoteNumber":74,"Velocity":61,"Duration":215331,"SoundDuration":215331,"Delta":27772525},{"NoteNumber":83,"Velocity":65,"Duration":216138,"SoundDuration":216138,"Delta":27987857},{"NoteNumber":86,"Velocity":73,"Duration":216138,"SoundDuration":216138,"Delta":27987857},{"NoteNumber":62,"Velocity":73,"Duration":653360,"SoundDuration":653360,"Delta":27987857},{"NoteNumber":65,"Velocity":73,"Duration":653360,"SoundDuration":653360,"Delta":27987857},{"NoteNumber":53,"Velocity":65,"Duration":653360,"SoundDuration":653360,"Delta":27987857},{"NoteNumber":81,"Velocity":61,"Duration":218610,"SoundDuration":218610,"Delta":28203995},{"NoteNumber":84,"Velocity":68,"Duration":218610,"SoundDuration":218610,"Delta":28203995},{"NoteNumber":83,"Velocity":72,"Duration":218610,"SoundDuration":218610,"Delta":28422606},{"NoteNumber":79,"Velocity":64,"Duration":218610,"SoundDuration":218610,"Delta":28422606},{"NoteNumber":74,"Velocity":70,"Duration":226397,"SoundDuration":226397,"Delta":28641217},{"NoteNumber":81,"Velocity":70,"Duration":226397,"SoundDuration":226397,"Delta":28641217},{"NoteNumber":54,"Velocity":61,"Duration":226397,"SoundDuration":226397,"Delta":28641217},{"NoteNumber":62,"Velocity":68,"Duration":226397,"SoundDuration":226397,"Delta":28641217},{"NoteNumber":66,"Velocity":68,"Duration":226397,"SoundDuration":226397,"Delta":28641217},{"NoteNumber":67,"Velocity":82,"Duration":608425,"SoundDuration":608425,"Delta":28867615},{"NoteNumber":71,"Velocity":82,"Duration":608425,"SoundDuration":608425,"Delta":28867615},{"NoteNumber":79,"Velocity":92,"Duration":608425,"SoundDuration":608425,"Delta":28867615},{"NoteNumber":55,"Velocity":79,"Duration":467580,"SoundDuration":467580,"Delta":28867615},{"NoteNumber":55,"Velocity":71,"Duration":868076,"SoundDuration":868076,"Delta":29335196},{"NoteNumber":65,"Velocity":79,"Duration":868076,"SoundDuration":868076,"Delta":29335196},{"NoteNumber":53,"Velocity":71,"Duration":868076,"SoundDuration":868076,"Delta":29335196},{"NoteNumber":67,"Velocity":77,"Duration":105633,"SoundDuration":105633,"Delta":29476041},{"NoteNumber":71,"Velocity":77,"Duration":105633,"SoundDuration":105633,"Delta":29476041},{"NoteNumber":79,"Velocity":86,"Duration":105633,"SoundDuration":105633,"Delta":29476041},{"NoteNumber":67,"Velocity":77,"Duration":111873,"SoundDuration":111873,"Delta":29616886},{"NoteNumber":79,"Velocity":86,"Duration":111873,"SoundDuration":111873,"Delta":29616886},{"NoteNumber":71,"Velocity":77,"Duration":111873,"SoundDuration":111873,"Delta":29616886},{"NoteNumber":79,"Velocity":93,"Duration":579065,"SoundDuration":579065,"Delta":29766051},{"NoteNumber":71,"Velocity":83,"Duration":579065,"SoundDuration":579065,"Delta":29766051},{"NoteNumber":67,"Velocity":83,"Duration":579065,"SoundDuration":579065,"Delta":29766051},{"NoteNumber":55,"Velocity":69,"Duration":873025,"SoundDuration":873025,"Delta":30203273},{"NoteNumber":52,"Velocity":69,"Duration":873025,"SoundDuration":873025,"Delta":30203273},{"NoteNumber":64,"Velocity":77,"Duration":873025,"SoundDuration":873025,"Delta":30203273},{"NoteNumber":67,"Velocity":77,"Duration":106383,"SoundDuration":106383,"Delta":30345117},{"NoteNumber":71,"Velocity":77,"Duration":106383,"SoundDuration":106383,"Delta":30345117},{"NoteNumber":79,"Velocity":86,"Duration":106383,"SoundDuration":106383,"Delta":30345117},{"NoteNumber":67,"Velocity":76,"Duration":106382,"SoundDuration":106382,"Delta":30486961},{"NoteNumber":71,"Velocity":76,"Duration":106382,"SoundDuration":106382,"Delta":30486961},{"NoteNumber":79,"Velocity":85,"Duration":106382,"SoundDuration":106382,"Delta":30486961},{"NoteNumber":67,"Velocity":82,"Duration":661016,"SoundDuration":661016,"Delta":30628805},{"NoteNumber":71,"Velocity":82,"Duration":661016,"SoundDuration":661016,"Delta":30628805},{"NoteNumber":79,"Velocity":92,"Duration":661016,"SoundDuration":661016,"Delta":30628805},{"NoteNumber":51,"Velocity":71,"Duration":885223,"SoundDuration":885223,"Delta":31076299},{"NoteNumber":63,"Velocity":79,"Duration":885223,"SoundDuration":885223,"Delta":31076299},{"NoteNumber":55,"Velocity":71,"Duration":885223,"SoundDuration":885223,"Delta":31076299},{"NoteNumber":71,"Velocity":73,"Duration":112747,"SoundDuration":112747,"Delta":31289822},{"NoteNumber":83,"Velocity":82,"Duration":112747,"SoundDuration":112747,"Delta":31289822},{"NoteNumber":79,"Velocity":82,"Duration":112747,"SoundDuration":112747,"Delta":31289822},{"NoteNumber":72,"Velocity":78,"Duration":110570,"SoundDuration":110570,"Delta":31515318},{"NoteNumber":81,"Velocity":87,"Duration":110570,"SoundDuration":110570,"Delta":31515318},{"NoteNumber":84,"Velocity":87,"Duration":110570,"SoundDuration":110570,"Delta":31515318},{"NoteNumber":71,"Velocity":76,"Duration":112754,"SoundDuration":112754,"Delta":31736459},{"NoteNumber":79,"Velocity":85,"Duration":112754,"SoundDuration":112754,"Delta":31736459},{"NoteNumber":83,"Velocity":85,"Duration":112754,"SoundDuration":112754,"Delta":31736459},{"NoteNumber":72,"Velocity":78,"Duration":110570,"SoundDuration":110570,"Delta":31961522},{"NoteNumber":84,"Velocity":87,"Duration":110570,"SoundDuration":110570,"Delta":31961522},{"NoteNumber":81,"Velocity":87,"Duration":110570,"SoundDuration":110570,"Delta":31961522},{"NoteNumber":54,"Velocity":67,"Duration":448431,"SoundDuration":448431,"Delta":31961522},{"NoteNumber":62,"Velocity":75,"Duration":448431,"SoundDuration":448431,"Delta":31961522},{"NoteNumber":50,"Velocity":67,"Duration":448431,"SoundDuration":448431,"Delta":31961522},{"NoteNumber":69,"Velocity":72,"Duration":113644,"SoundDuration":113644,"Delta":32182663},{"NoteNumber":81,"Velocity":81,"Duration":113644,"SoundDuration":113644,"Delta":32182663},{"NoteNumber":74,"Velocity":81,"Duration":113644,"SoundDuration":113644,"Delta":32182663},{"NoteNumber":86,"Velocity":101,"Duration":599069,"SoundDuration":599069,"Delta":32409953},{"NoteNumber":74,"Velocity":90,"Duration":599069,"SoundDuration":599069,"Delta":32409953},{"NoteNumber":83,"Velocity":101,"Duration":599069,"SoundDuration":599069,"Delta":32409953},{"NoteNumber":50,"Velocity":74,"Duration":458224,"SoundDuration":458224,"Delta":32409953},{"NoteNumber":38,"Velocity":66,"Duration":458224,"SoundDuration":458224,"Delta":32409953},{"NoteNumber":52,"Velocity":74,"Duration":430267,"SoundDuration":430267,"Delta":32868178},{"NoteNumber":40,"Velocity":66,"Duration":430267,"SoundDuration":430267,"Delta":32868178},{"NoteNumber":50,"Velocity":74,"Duration":430267,"SoundDuration":430267,"Delta":32868178},{"NoteNumber":83,"Velocity":94,"Duration":105633,"SoundDuration":105633,"Delta":33009023},{"NoteNumber":74,"Velocity":84,"Duration":105633,"SoundDuration":105633,"Delta":33009023},{"NoteNumber":86,"Velocity":94,"Duration":105633,"SoundDuration":105633,"Delta":33009023},{"NoteNumber":83,"Velocity":94,"Duration":111432,"SoundDuration":111432,"Delta":33149868},{"NoteNumber":74,"Velocity":84,"Duration":111432,"SoundDuration":111432,"Delta":33149868},{"NoteNumber":86,"Velocity":94,"Duration":111432,"SoundDuration":111432,"Delta":33149868},{"NoteNumber":83,"Velocity":102,"Duration":578066,"SoundDuration":578066,"Delta":33298446},{"NoteNumber":74,"Velocity":91,"Duration":578066,"SoundDuration":578066,"Delta":33298446},{"NoteNumber":86,"Velocity":102,"Duration":578066,"SoundDuration":578066,"Delta":33298446},{"NoteNumber":54,"Velocity":79,"Duration":437221,"SoundDuration":437221,"Delta":33298446},{"NoteNumber":42,"Velocity":71,"Duration":437221,"SoundDuration":437221,"Delta":33298446},{"NoteNumber":50,"Velocity":79,"Duration":437221,"SoundDuration":437221,"Delta":33298446},{"NoteNumber":50,"Velocity":75,"Duration":435885,"SoundDuration":435885,"Delta":33735668},{"NoteNumber":43,"Velocity":67,"Duration":435885,"SoundDuration":435885,"Delta":33735668},{"NoteNumber":55,"Velocity":75,"Duration":435885,"SoundDuration":435885,"Delta":33735668},{"NoteNumber":83,"Velocity":94,"Duration":107858,"SoundDuration":107858,"Delta":33876513},{"NoteNumber":74,"Velocity":84,"Duration":107858,"SoundDuration":107858,"Delta":33876513},{"NoteNumber":86,"Velocity":94,"Duration":107858,"SoundDuration":107858,"Delta":33876513},{"NoteNumber":83,"Velocity":93,"Duration":112309,"SoundDuration":112309,"Delta":34021808},{"NoteNumber":74,"Velocity":83,"Duration":112309,"SoundDuration":112309,"Delta":34021808},{"NoteNumber":86,"Velocity":93,"Duration":112309,"SoundDuration":112309,"Delta":34021808},{"NoteNumber":88,"Velocity":93,"Duration":111873,"SoundDuration":111873,"Delta":34171553},{"NoteNumber":76,"Velocity":83,"Duration":111873,"SoundDuration":111873,"Delta":34171553},{"NoteNumber":84,"Velocity":93,"Duration":111873,"SoundDuration":111873,"Delta":34171553},{"NoteNumber":83,"Velocity":86,"Duration":111873,"SoundDuration":111873,"Delta":34395300},{"NoteNumber":74,"Velocity":77,"Duration":111873,"SoundDuration":111873,"Delta":34395300},{"NoteNumber":86,"Velocity":86,"Duration":111873,"SoundDuration":111873,"Delta":34395300},{"NoteNumber":50,"Velocity":64,"Duration":111873,"SoundDuration":111873,"Delta":34395300},{"NoteNumber":55,"Velocity":72,"Duration":111873,"SoundDuration":111873,"Delta":34395300},{"NoteNumber":43,"Velocity":64,"Duration":111873,"SoundDuration":111873,"Delta":34395300},{"NoteNumber":81,"Velocity":91,"Duration":114094,"SoundDuration":114094,"Delta":34619047},{"NoteNumber":84,"Velocity":91,"Duration":114094,"SoundDuration":114094,"Delta":34619047},{"NoteNumber":72,"Velocity":81,"Duration":114094,"SoundDuration":114094,"Delta":34619047},{"NoteNumber":50,"Velocity":66,"Duration":114094,"SoundDuration":114094,"Delta":34619047},{"NoteNumber":57,"Velocity":74,"Duration":114094,"SoundDuration":114094,"Delta":34619047},{"NoteNumber":45,"Velocity":66,"Duration":114094,"SoundDuration":114094,"Delta":34619047},{"NoteNumber":79,"Velocity":85,"Duration":117370,"SoundDuration":117370,"Delta":34847236},{"NoteNumber":71,"Velocity":76,"Duration":117370,"SoundDuration":117370,"Delta":34847236},{"NoteNumber":74,"Velocity":85,"Duration":117370,"SoundDuration":117370,"Delta":34847236},{"NoteNumber":83,"Velocity":85,"Duration":117370,"SoundDuration":117370,"Delta":34847236},{"NoteNumber":47,"Velocity":59,"Duration":117370,"SoundDuration":117370,"Delta":34847236},{"NoteNumber":59,"Velocity":66,"Duration":117370,"SoundDuration":117370,"Delta":34847236},{"NoteNumber":50,"Velocity":59,"Duration":117370,"SoundDuration":117370,"Delta":34847236},{"NoteNumber":74,"Velocity":84,"Duration":117371,"SoundDuration":117371,"Delta":35081978},{"NoteNumber":81,"Velocity":94,"Duration":117371,"SoundDuration":117371,"Delta":35081978},{"NoteNumber":78,"Velocity":94,"Duration":117371,"SoundDuration":117371,"Delta":35081978},{"NoteNumber":69,"Velocity":84,"Duration":117371,"SoundDuration":117371,"Delta":35081978},{"NoteNumber":57,"Velocity":78,"Duration":117371,"SoundDuration":117371,"Delta":35081978},{"NoteNumber":50,"Velocity":70,"Duration":117371,"SoundDuration":117371,"Delta":35081978},{"NoteNumber":62,"Velocity":78,"Duration":117371,"SoundDuration":117371,"Delta":35081978},{"NoteNumber":54,"Velocity":70,"Duration":117371,"SoundDuration":117371,"Delta":35081978},{"NoteNumber":71,"Velocity":80,"Duration":117370,"SoundDuration":117370,"Delta":35316720},{"NoteNumber":83,"Velocity":89,"Duration":117370,"SoundDuration":117370,"Delta":35316720},{"NoteNumber":74,"Velocity":80,"Duration":117370,"SoundDuration":117370,"Delta":35316720},{"NoteNumber":79,"Velocity":89,"Duration":117370,"SoundDuration":117370,"Delta":35316720},{"NoteNumber":55,"Velocity":65,"Duration":117370,"SoundDuration":117370,"Delta":35316720},{"NoteNumber":62,"Velocity":73,"Duration":117370,"SoundDuration":117370,"Delta":35316720},{"NoteNumber":59,"Velocity":73,"Duration":117370,"SoundDuration":117370,"Delta":35316720},{"NoteNumber":78,"Velocity":94,"Duration":117370,"SoundDuration":117370,"Delta":35551462},{"NoteNumber":69,"Velocity":77,"Duration":117370,"SoundDuration":117370,"Delta":35551462},{"NoteNumber":74,"Velocity":77,"Duration":117370,"SoundDuration":117370,"Delta":35551462},{"NoteNumber":81,"Velocity":94,"Duration":117370,"SoundDuration":117370,"Delta":35551462},{"NoteNumber":50,"Velocity":68,"Duration":117370,"SoundDuration":117370,"Delta":35551462},{"NoteNumber":57,"Velocity":76,"Duration":117370,"SoundDuration":117370,"Delta":35551462},{"NoteNumber":54,"Velocity":68,"Duration":117370,"SoundDuration":117370,"Delta":35551462},{"NoteNumber":62,"Velocity":76,"Duration":117370,"SoundDuration":117370,"Delta":35551462},{"NoteNumber":71,"Velocity":82,"Duration":609425,"SoundDuration":609425,"Delta":36020946},{"NoteNumber":67,"Velocity":82,"Duration":609425,"SoundDuration":609425,"Delta":36020946},{"NoteNumber":79,"Velocity":92,"Duration":609425,"SoundDuration":609425,"Delta":36020946},{"NoteNumber":55,"Velocity":79,"Duration":467581,"SoundDuration":467581,"Delta":36020946},{"NoteNumber":65,"Velocity":79,"Duration":870074,"SoundDuration":870074,"Delta":36488527},{"NoteNumber":53,"Velocity":71,"Duration":870074,"SoundDuration":870074,"Delta":36488527},{"NoteNumber":55,"Velocity":71,"Duration":870074,"SoundDuration":870074,"Delta":36488527},{"NoteNumber":71,"Velocity":77,"Duration":141844,"SoundDuration":141844,"Delta":36630371},{"NoteNumber":67,"Velocity":77,"Duration":141844,"SoundDuration":141844,"Delta":36630371},{"NoteNumber":79,"Velocity":86,"Duration":141844,"SoundDuration":141844,"Delta":36630371},{"NoteNumber":71,"Velocity":77,"Duration":149164,"SoundDuration":149164,"Delta":36772215},{"NoteNumber":79,"Velocity":86,"Duration":149164,"SoundDuration":149164,"Delta":36772215},{"NoteNumber":67,"Velocity":77,"Duration":149164,"SoundDuration":149164,"Delta":36772215},{"NoteNumber":79,"Velocity":93,"Duration":578564,"SoundDuration":578564,"Delta":36921380},{"NoteNumber":67,"Velocity":83,"Duration":578564,"SoundDuration":578564,"Delta":36921380},{"NoteNumber":71,"Velocity":83,"Duration":578564,"SoundDuration":578564,"Delta":36921380},{"NoteNumber":52,"Velocity":69,"Duration":871521,"SoundDuration":871521,"Delta":37358602},{"NoteNumber":64,"Velocity":77,"Duration":871521,"SoundDuration":871521,"Delta":37358602},{"NoteNumber":55,"Velocity":69,"Duration":871521,"SoundDuration":871521,"Delta":37358602},{"NoteNumber":79,"Velocity":86,"Duration":141342,"SoundDuration":141342,"Delta":37499945},{"NoteNumber":67,"Velocity":77,"Duration":141342,"SoundDuration":141342,"Delta":37499945},{"NoteNumber":71,"Velocity":77,"Duration":141342,"SoundDuration":141342,"Delta":37499945},{"NoteNumber":79,"Velocity":85,"Duration":141342,"SoundDuration":141342,"Delta":37641287},{"NoteNumber":67,"Velocity":76,"Duration":141342,"SoundDuration":141342,"Delta":37641287},{"NoteNumber":71,"Velocity":76,"Duration":141342,"SoundDuration":141342,"Delta":37641287},{"NoteNumber":79,"Velocity":92,"Duration":664460,"SoundDuration":664460,"Delta":37782630},{"NoteNumber":67,"Velocity":82,"Duration":664460,"SoundDuration":664460,"Delta":37782630},{"NoteNumber":71,"Velocity":82,"Duration":664460,"SoundDuration":664460,"Delta":37782630},{"NoteNumber":51,"Velocity":71,"Duration":441584,"SoundDuration":441584,"Delta":38230124},{"NoteNumber":63,"Velocity":79,"Duration":441584,"SoundDuration":441584,"Delta":38230124},{"NoteNumber":55,"Velocity":71,"Duration":441584,"SoundDuration":441584,"Delta":38230124},{"NoteNumber":79,"Velocity":82,"Duration":224617,"SoundDuration":224617,"Delta":38447091},{"NoteNumber":71,"Velocity":73,"Duration":224617,"SoundDuration":224617,"Delta":38447091},{"NoteNumber":83,"Velocity":82,"Duration":224617,"SoundDuration":224617,"Delta":38447091},{"NoteNumber":84,"Velocity":87,"Duration":218611,"SoundDuration":218611,"Delta":38671709},{"NoteNumber":72,"Velocity":78,"Duration":218611,"SoundDuration":218611,"Delta":38671709},{"NoteNumber":81,"Velocity":87,"Duration":218611,"SoundDuration":218611,"Delta":38671709},{"NoteNumber":54,"Velocity":67,"Duration":662687,"SoundDuration":662687,"Delta":38671709},{"NoteNumber":62,"Velocity":75,"Duration":662687,"SoundDuration":662687,"Delta":38671709},{"NoteNumber":50,"Velocity":67,"Duration":662687,"SoundDuration":662687,"Delta":38671709},{"NoteNumber":83,"Velocity":85,"Duration":224617,"SoundDuration":224617,"Delta":38890320},{"NoteNumber":71,"Velocity":76,"Duration":224617,"SoundDuration":224617,"Delta":38890320},{"NoteNumber":80,"Velocity":85,"Duration":224617,"SoundDuration":224617,"Delta":38890320},{"NoteNumber":81,"Velocity":87,"Duration":109729,"SoundDuration":109729,"Delta":39114938},{"NoteNumber":84,"Velocity":87,"Duration":109729,"SoundDuration":109729,"Delta":39114938},{"NoteNumber":72,"Velocity":78,"Duration":109729,"SoundDuration":109729,"Delta":39114938},{"NoteNumber":74,"Velocity":81,"Duration":112309,"SoundDuration":112309,"Delta":39334396},{"NoteNumber":69,"Velocity":72,"Duration":112309,"SoundDuration":112309,"Delta":39334396},{"NoteNumber":81,"Velocity":81,"Duration":112309,"SoundDuration":112309,"Delta":39334396},{"NoteNumber":48,"Velocity":61,"Duration":112309,"SoundDuration":112309,"Delta":39334396},{"NoteNumber":54,"Velocity":61,"Duration":112309,"SoundDuration":112309,"Delta":39334396},{"NoteNumber":60,"Velocity":68,"Duration":112309,"SoundDuration":112309,"Delta":39334396},{"NoteNumber":79,"Velocity":87,"Duration":886469,"SoundDuration":886469,"Delta":39559014},{"NoteNumber":74,"Velocity":82,"Duration":664460,"SoundDuration":664460,"Delta":39559014},{"NoteNumber":86,"Velocity":96,"Duration":664460,"SoundDuration":664460,"Delta":39559014},{"NoteNumber":47,"Velocity":64,"Duration":223747,"SoundDuration":223747,"Delta":39559014},{"NoteNumber":55,"Velocity":72,"Duration":223747,"SoundDuration":223747,"Delta":39559014},{"NoteNumber":59,"Velocity":72,"Duration":223747,"SoundDuration":223747,"Delta":39559014},{"NoteNumber":50,"Velocity":64,"Duration":223747,"SoundDuration":223747,"Delta":39559014},{"NoteNumber":48,"Velocity":60,"Duration":223746,"SoundDuration":223746,"Delta":39782761},{"NoteNumber":60,"Velocity":67,"Duration":223746,"SoundDuration":223746,"Delta":39782761},{"NoteNumber":59,"Velocity":72,"Duration":216966,"SoundDuration":216966,"Delta":40006508},{"NoteNumber":47,"Velocity":64,"Duration":216966,"SoundDuration":216966,"Delta":40006508},{"NoteNumber":84,"Velocity":82,"Duration":222008,"SoundDuration":222008,"Delta":40223475},{"NoteNumber":72,"Velocity":73,"Duration":222008,"SoundDuration":222008,"Delta":40223475},{"NoteNumber":45,"Velocity":60,"Duration":222008,"SoundDuration":222008,"Delta":40223475},{"NoteNumber":57,"Velocity":67,"Duration":222008,"SoundDuration":222008,"Delta":40223475},{"NoteNumber":83,"Velocity":87,"Duration":219458,"SoundDuration":219458,"Delta":40445484},{"NoteNumber":71,"Velocity":78,"Duration":219458,"SoundDuration":219458,"Delta":40445484},{"NoteNumber":79,"Velocity":87,"Duration":219458,"SoundDuration":219458,"Delta":40445484},{"NoteNumber":43,"Velocity":63,"Duration":661816,"SoundDuration":661816,"Delta":40445484},{"NoteNumber":55,"Velocity":71,"Duration":661816,"SoundDuration":661816,"Delta":40445484},{"NoteNumber":50,"Velocity":71,"Duration":885563,"SoundDuration":885563,"Delta":40445484},{"NoteNumber":84,"Velocity":85,"Duration":223747,"SoundDuration":223747,"Delta":40664942},{"NoteNumber":72,"Velocity":76,"Duration":223747,"SoundDuration":223747,"Delta":40664942},{"NoteNumber":81,"Velocity":85,"Duration":223747,"SoundDuration":223747,"Delta":40664942},{"NoteNumber":83,"Velocity":87,"Duration":109305,"SoundDuration":109305,"Delta":40888689},{"NoteNumber":74,"Velocity":78,"Duration":109305,"SoundDuration":109305,"Delta":40888689},{"NoteNumber":86,"Velocity":87,"Duration":109305,"SoundDuration":109305,"Delta":40888689},{"NoteNumber":83,"Velocity":81,"Duration":111873,"SoundDuration":111873,"Delta":41107300},{"NoteNumber":71,"Velocity":72,"Duration":111873,"SoundDuration":111873,"Delta":41107300},{"NoteNumber":79,"Velocity":81,"Duration":111873,"SoundDuration":111873,"Delta":41107300},{"NoteNumber":53,"Velocity":67,"Duration":111873,"SoundDuration":111873,"Delta":41107300},{"NoteNumber":41,"Velocity":60,"Duration":111873,"SoundDuration":111873,"Delta":41107300},{"NoteNumber":91,"Velocity":96,"Duration":666105,"SoundDuration":666105,"Delta":41331047},{"NoteNumber":79,"Velocity":82,"Duration":666105,"SoundDuration":666105,"Delta":41331047},{"NoteNumber":84,"Velocity":87,"Duration":666105,"SoundDuration":666105,"Delta":41331047},{"NoteNumber":40,"Velocity":64,"Duration":111873,"SoundDuration":111873,"Delta":41331047},{"NoteNumber":52,"Velocity":72,"Duration":111873,"SoundDuration":111873,"Delta":41331047},{"NoteNumber":54,"Velocity":67,"Duration":111873,"SoundDuration":111873,"Delta":41554794},{"NoteNumber":42,"Velocity":60,"Duration":111873,"SoundDuration":111873,"Delta":41554794},{"NoteNumber":40,"Velocity":64,"Duration":109305,"SoundDuration":109305,"Delta":41778541},{"NoteNumber":52,"Velocity":72,"Duration":109305,"SoundDuration":109305,"Delta":41778541},{"NoteNumber":90,"Velocity":77,"Duration":109938,"SoundDuration":109938,"Delta":41997152},{"NoteNumber":84,"Velocity":69,"Duration":109938,"SoundDuration":109938,"Delta":41997152},{"NoteNumber":78,"Velocity":69,"Duration":109938,"SoundDuration":109938,"Delta":41997152},{"NoteNumber":38,"Velocity":63,"Duration":109938,"SoundDuration":109938,"Delta":41997152},{"NoteNumber":50,"Velocity":70,"Duration":109938,"SoundDuration":109938,"Delta":41997152},{"NoteNumber":76,"Velocity":74,"Duration":107804,"SoundDuration":107804,"Delta":42217029},{"NoteNumber":84,"Velocity":82,"Duration":107804,"SoundDuration":107804,"Delta":42217029},{"NoteNumber":88,"Velocity":82,"Duration":107804,"SoundDuration":107804,"Delta":42217029},{"NoteNumber":48,"Velocity":74,"Duration":652834,"SoundDuration":652834,"Delta":42217029},{"NoteNumber":36,"Velocity":66,"Duration":652834,"SoundDuration":652834,"Delta":42217029},{"NoteNumber":78,"Velocity":72,"Duration":110807,"SoundDuration":110807,"Delta":42432639},{"NoteNumber":86,"Velocity":80,"Duration":110807,"SoundDuration":110807,"Delta":42432639},{"NoteNumber":90,"Velocity":80,"Duration":110807,"SoundDuration":110807,"Delta":42432639},{"NoteNumber":76,"Velocity":74,"Duration":107804,"SoundDuration":107804,"Delta":42654254},{"NoteNumber":88,"Velocity":82,"Duration":107804,"SoundDuration":107804,"Delta":42654254},{"NoteNumber":84,"Velocity":82,"Duration":107804,"SoundDuration":107804,"Delta":42654254},{"NoteNumber":74,"Velocity":68,"Duration":110807,"SoundDuration":110807,"Delta":42869864},{"NoteNumber":83,"Velocity":76,"Duration":110807,"SoundDuration":110807,"Delta":42869864},{"NoteNumber":86,"Velocity":76,"Duration":110807,"SoundDuration":110807,"Delta":42869864},{"NoteNumber":38,"Velocity":65,"Duration":110807,"SoundDuration":110807,"Delta":42869864},{"NoteNumber":50,"Velocity":65,"Duration":110807,"SoundDuration":110807,"Delta":42869864},{"NoteNumber":72,"Velocity":73,"Duration":109074,"SoundDuration":109074,"Delta":43091479},{"NoteNumber":81,"Velocity":81,"Duration":109074,"SoundDuration":109074,"Delta":43091479},{"NoteNumber":84,"Velocity":81,"Duration":109074,"SoundDuration":109074,"Delta":43091479},{"NoteNumber":39,"Velocity":70,"Duration":649459,"SoundDuration":649459,"Delta":43091479},{"NoteNumber":51,"Velocity":70,"Duration":649459,"SoundDuration":649459,"Delta":43091479},{"NoteNumber":83,"Velocity":74,"Duration":109074,"SoundDuration":109074,"Delta":43309629},{"NoteNumber":86,"Velocity":74,"Duration":109074,"SoundDuration":109074,"Delta":43309629},{"NoteNumber":74,"Velocity":66,"Duration":109074,"SoundDuration":109074,"Delta":43309629},{"NoteNumber":72,"Velocity":71,"Duration":106579,"SoundDuration":106579,"Delta":43527779},{"NoteNumber":81,"Velocity":79,"Duration":106579,"SoundDuration":106579,"Delta":43527779},{"NoteNumber":84,"Velocity":79,"Duration":106579,"SoundDuration":106579,"Delta":43527779},{"NoteNumber":79,"Velocity":72,"Duration":109938,"SoundDuration":109938,"Delta":43740938},{"NoteNumber":83,"Velocity":72,"Duration":109938,"SoundDuration":109938,"Delta":43740938},{"NoteNumber":71,"Velocity":64,"Duration":109938,"SoundDuration":109938,"Delta":43740938},{"NoteNumber":40,"Velocity":64,"Duration":109938,"SoundDuration":109938,"Delta":43740938},{"NoteNumber":52,"Velocity":64,"Duration":109938,"SoundDuration":109938,"Delta":43740938},{"NoteNumber":78,"Velocity":77,"Duration":107804,"SoundDuration":107804,"Delta":43960815},{"NoteNumber":69,"Velocity":69,"Duration":107804,"SoundDuration":107804,"Delta":43960815},{"NoteNumber":81,"Velocity":77,"Duration":107804,"SoundDuration":107804,"Delta":43960815},{"NoteNumber":42,"Velocity":71,"Duration":652834,"SoundDuration":652834,"Delta":43960815},{"NoteNumber":54,"Velocity":71,"Duration":652834,"SoundDuration":652834,"Delta":43960815},{"NoteNumber":79,"Velocity":74,"Duration":110807,"SoundDuration":110807,"Delta":44176425},{"NoteNumber":71,"Velocity":66,"Duration":110807,"SoundDuration":110807,"Delta":44176425},{"NoteNumber":83,"Velocity":74,"Duration":110807,"SoundDuration":110807,"Delta":44176425},{"NoteNumber":81,"Velocity":77,"Duration":107804,"SoundDuration":107804,"Delta":44398040},{"NoteNumber":69,"Velocity":69,"Duration":107804,"SoundDuration":107804,"Delta":44398040},{"NoteNumber":78,"Velocity":77,"Duration":107804,"SoundDuration":107804,"Delta":44398040},{"NoteNumber":76,"Velocity":73,"Duration":110807,"SoundDuration":110807,"Delta":44613650},{"NoteNumber":67,"Velocity":65,"Duration":110807,"SoundDuration":110807,"Delta":44613650},{"NoteNumber":79,"Velocity":73,"Duration":110807,"SoundDuration":110807,"Delta":44613650},{"NoteNumber":55,"Velocity":65,"Duration":110807,"SoundDuration":110807,"Delta":44613650},{"NoteNumber":43,"Velocity":65,"Duration":110807,"SoundDuration":110807,"Delta":44613650},{"NoteNumber":74,"Velocity":81,"Duration":109074,"SoundDuration":109074,"Delta":44835265},{"NoteNumber":66,"Velocity":73,"Duration":109074,"SoundDuration":109074,"Delta":44835265},{"NoteNumber":78,"Velocity":81,"Duration":109074,"SoundDuration":109074,"Delta":44835265},{"NoteNumber":45,"Velocity":70,"Duration":649459,"SoundDuration":649459,"Delta":44835265},{"NoteNumber":57,"Velocity":70,"Duration":649459,"SoundDuration":649459,"Delta":44835265},{"NoteNumber":79,"Velocity":74,"Duration":109074,"SoundDuration":109074,"Delta":45053415},{"NoteNumber":76,"Velocity":74,"Duration":109074,"SoundDuration":109074,"Delta":45053415},{"NoteNumber":67,"Velocity":66,"Duration":109074,"SoundDuration":109074,"Delta":45053415},{"NoteNumber":74,"Velocity":79,"Duration":106579,"SoundDuration":106579,"Delta":45271565},{"NoteNumber":66,"Velocity":71,"Duration":106579,"SoundDuration":106579,"Delta":45271565},{"NoteNumber":78,"Velocity":79,"Duration":106579,"SoundDuration":106579,"Delta":45271565},{"NoteNumber":64,"Velocity":64,"Duration":109938,"SoundDuration":109938,"Delta":45484724},{"NoteNumber":72,"Velocity":72,"Duration":109938,"SoundDuration":109938,"Delta":45484724},{"NoteNumber":76,"Velocity":72,"Duration":109938,"SoundDuration":109938,"Delta":45484724},{"NoteNumber":46,"Velocity":64,"Duration":109938,"SoundDuration":109938,"Delta":45484724},{"NoteNumber":58,"Velocity":64,"Duration":109938,"SoundDuration":109938,"Delta":45484724},{"NoteNumber":71,"Velocity":73,"Duration":107804,"SoundDuration":107804,"Delta":45704601},{"NoteNumber":74,"Velocity":73,"Duration":107804,"SoundDuration":107804,"Delta":45704601},{"NoteNumber":62,"Velocity":65,"Duration":107804,"SoundDuration":107804,"Delta":45704601},{"NoteNumber":47,"Velocity":67,"Duration":652834,"SoundDuration":652834,"Delta":45704601},{"NoteNumber":59,"Velocity":67,"Duration":652834,"SoundDuration":652834,"Delta":45704601},{"NoteNumber":72,"Velocity":70,"Duration":110807,"SoundDuration":110807,"Delta":45920211},{"NoteNumber":64,"Velocity":62,"Duration":110807,"SoundDuration":110807,"Delta":45920211},{"NoteNumber":76,"Velocity":70,"Duration":110807,"SoundDuration":110807,"Delta":45920211},{"NoteNumber":71,"Velocity":73,"Duration":107804,"SoundDuration":107804,"Delta":46141826},{"NoteNumber":62,"Velocity":65,"Duration":107804,"SoundDuration":107804,"Delta":46141826},{"NoteNumber":74,"Velocity":73,"Duration":107804,"SoundDuration":107804,"Delta":46141826},{"NoteNumber":72,"Velocity":69,"Duration":110807,"SoundDuration":110807,"Delta":46357436},{"NoteNumber":64,"Velocity":61,"Duration":110807,"SoundDuration":110807,"Delta":46357436},{"NoteNumber":69,"Velocity":69,"Duration":110807,"SoundDuration":110807,"Delta":46357436},{"NoteNumber":48,"Velocity":60,"Duration":110807,"SoundDuration":110807,"Delta":46357436},{"NoteNumber":60,"Velocity":60,"Duration":110807,"SoundDuration":110807,"Delta":46357436},{"NoteNumber":67,"Velocity":65,"Duration":609929,"SoundDuration":609929,"Delta":46579051},{"NoteNumber":71,"Velocity":73,"Duration":609929,"SoundDuration":609929,"Delta":46579051},{"NoteNumber":62,"Velocity":63,"Duration":467581,"SoundDuration":467581,"Delta":46579051},{"NoteNumber":50,"Velocity":63,"Duration":467581,"SoundDuration":467581,"Delta":46579051},{"NoteNumber":63,"Velocity":63,"Duration":433861,"SoundDuration":433861,"Delta":47046632},{"NoteNumber":51,"Velocity":56,"Duration":433861,"SoundDuration":433861,"Delta":47046632},{"NoteNumber":59,"Velocity":61,"Duration":142348,"SoundDuration":142348,"Delta":47188981},{"NoteNumber":67,"Velocity":61,"Duration":142348,"SoundDuration":142348,"Delta":47188981},{"NoteNumber":71,"Velocity":68,"Duration":142348,"SoundDuration":142348,"Delta":47188981},{"NoteNumber":59,"Velocity":61,"Duration":149164,"SoundDuration":149164,"Delta":47331330},{"NoteNumber":67,"Velocity":61,"Duration":149164,"SoundDuration":149164,"Delta":47331330},{"NoteNumber":71,"Velocity":68,"Duration":149164,"SoundDuration":149164,"Delta":47331330},{"NoteNumber":59,"Velocity":62,"Duration":578066,"SoundDuration":578066,"Delta":47480494},{"NoteNumber":67,"Velocity":62,"Duration":578066,"SoundDuration":578066,"Delta":47480494},{"NoteNumber":71,"Velocity":70,"Duration":578066,"SoundDuration":578066,"Delta":47480494},{"NoteNumber":50,"Velocity":63,"Duration":437221,"SoundDuration":437221,"Delta":47480494},{"NoteNumber":62,"Velocity":63,"Duration":437221,"SoundDuration":437221,"Delta":47480494},{"NoteNumber":51,"Velocity":55,"Duration":422535,"SoundDuration":422535,"Delta":47917716},{"NoteNumber":63,"Velocity":61,"Duration":422535,"SoundDuration":422535,"Delta":47917716},{"NoteNumber":59,"Velocity":61,"Duration":140844,"SoundDuration":140844,"Delta":48058561},{"NoteNumber":71,"Velocity":68,"Duration":140844,"SoundDuration":140844,"Delta":48058561},{"NoteNumber":67,"Velocity":61,"Duration":140844,"SoundDuration":140844,"Delta":48058561},{"NoteNumber":71,"Velocity":68,"Duration":140845,"SoundDuration":140845,"Delta":48199406},{"NoteNumber":67,"Velocity":60,"Duration":140845,"SoundDuration":140845,"Delta":48199406},{"NoteNumber":59,"Velocity":60,"Duration":140845,"SoundDuration":140845,"Delta":48199406},{"NoteNumber":59,"Velocity":61,"Duration":447493,"SoundDuration":447493,"Delta":48340251},{"NoteNumber":67,"Velocity":61,"Duration":447493,"SoundDuration":447493,"Delta":48340251},{"NoteNumber":71,"Velocity":69,"Duration":447493,"SoundDuration":447493,"Delta":48340251},{"NoteNumber":62,"Velocity":63,"Duration":447493,"SoundDuration":447493,"Delta":48340251},{"NoteNumber":50,"Velocity":63,"Duration":447493,"SoundDuration":447493,"Delta":48340251},{"NoteNumber":47,"Velocity":56,"Duration":441584,"SoundDuration":441584,"Delta":48787745},{"NoteNumber":59,"Velocity":63,"Duration":441584,"SoundDuration":441584,"Delta":48787745},{"NoteNumber":62,"Velocity":58,"Duration":112309,"SoundDuration":112309,"Delta":49004712},{"NoteNumber":74,"Velocity":65,"Duration":112309,"SoundDuration":112309,"Delta":49004712},{"NoteNumber":67,"Velocity":65,"Duration":112309,"SoundDuration":112309,"Delta":49004712},{"NoteNumber":67,"Velocity":62,"Duration":108483,"SoundDuration":108483,"Delta":49229330},{"NoteNumber":76,"Velocity":69,"Duration":108483,"SoundDuration":108483,"Delta":49229330},{"NoteNumber":64,"Velocity":62,"Duration":108483,"SoundDuration":108483,"Delta":49229330},{"NoteNumber":73,"Velocity":69,"Duration":108483,"SoundDuration":108483,"Delta":49229330},{"NoteNumber":46,"Velocity":53,"Duration":438107,"SoundDuration":438107,"Delta":49229330},{"NoteNumber":58,"Velocity":60,"Duration":438107,"SoundDuration":438107,"Delta":49229330},{"NoteNumber":62,"Velocity":60,"Duration":110570,"SoundDuration":110570,"Delta":49446297},{"NoteNumber":74,"Velocity":68,"Duration":110570,"SoundDuration":110570,"Delta":49446297},{"NoteNumber":64,"Velocity":62,"Duration":108483,"SoundDuration":108483,"Delta":49667438},{"NoteNumber":76,"Velocity":69,"Duration":108483,"SoundDuration":108483,"Delta":49667438},{"NoteNumber":72,"Velocity":69,"Duration":108483,"SoundDuration":108483,"Delta":49667438},{"NoteNumber":45,"Velocity":48,"Duration":441584,"SoundDuration":441584,"Delta":49667438},{"NoteNumber":57,"Velocity":54,"Duration":441584,"SoundDuration":441584,"Delta":49667438},{"NoteNumber":66,"Velocity":57,"Duration":112309,"SoundDuration":112309,"Delta":49884405},{"NoteNumber":78,"Velocity":64,"Duration":112309,"SoundDuration":112309,"Delta":49884405},{"NoteNumber":71,"Velocity":62,"Duration":224617,"SoundDuration":224617,"Delta":50109023},{"NoteNumber":67,"Velocity":62,"Duration":224617,"SoundDuration":224617,"Delta":50109023},{"NoteNumber":79,"Velocity":69,"Duration":224617,"SoundDuration":224617,"Delta":50109023},{"NoteNumber":43,"Velocity":54,"Duration":224617,"SoundDuration":224617,"Delta":50109023},{"NoteNumber":55,"Velocity":60,"Duration":224617,"SoundDuration":224617,"Delta":50109023},{"NoteNumber":51,"Velocity":58,"Duration":435903,"SoundDuration":435903,"Delta":50558259},{"NoteNumber":63,"Velocity":66,"Duration":435903,"SoundDuration":435903,"Delta":50558259},{"NoteNumber":79,"Velocity":67,"Duration":143369,"SoundDuration":143369,"Delta":50701629},{"NoteNumber":71,"Velocity":67,"Duration":143369,"SoundDuration":143369,"Delta":50701629},{"NoteNumber":83,"Velocity":74,"Duration":143369,"SoundDuration":143369,"Delta":50701629},{"NoteNumber":79,"Velocity":67,"Duration":149164,"SoundDuration":149164,"Delta":50844998},{"NoteNumber":83,"Velocity":74,"Duration":149164,"SoundDuration":149164,"Delta":50844998},{"NoteNumber":71,"Velocity":67,"Duration":149164,"SoundDuration":149164,"Delta":50844998},{"NoteNumber":83,"Velocity":77,"Duration":579065,"SoundDuration":579065,"Delta":50994163},{"NoteNumber":71,"Velocity":68,"Duration":579065,"SoundDuration":579065,"Delta":50994163},{"NoteNumber":79,"Velocity":68,"Duration":579065,"SoundDuration":579065,"Delta":50994163},{"NoteNumber":62,"Velocity":66,"Duration":437221,"SoundDuration":437221,"Delta":50994163},{"NoteNumber":50,"Velocity":66,"Duration":437221,"SoundDuration":437221,"Delta":50994163},{"NoteNumber":51,"Velocity":57,"Duration":425531,"SoundDuration":425531,"Delta":51431385},{"NoteNumber":63,"Velocity":64,"Duration":425531,"SoundDuration":425531,"Delta":51431385},{"NoteNumber":83,"Velocity":74,"Duration":141843,"SoundDuration":141843,"Delta":51573229},{"NoteNumber":71,"Velocity":67,"Duration":141843,"SoundDuration":141843,"Delta":51573229},{"NoteNumber":79,"Velocity":67,"Duration":141843,"SoundDuration":141843,"Delta":51573229},{"NoteNumber":83,"Velocity":74,"Duration":141843,"SoundDuration":141843,"Delta":51715073},{"NoteNumber":71,"Velocity":66,"Duration":141843,"SoundDuration":141843,"Delta":51715073},{"NoteNumber":79,"Velocity":66,"Duration":141843,"SoundDuration":141843,"Delta":51715073},{"NoteNumber":83,"Velocity":75,"Duration":447493,"SoundDuration":447493,"Delta":51856917},{"NoteNumber":71,"Velocity":67,"Duration":447493,"SoundDuration":447493,"Delta":51856917},{"NoteNumber":79,"Velocity":67,"Duration":447493,"SoundDuration":447493,"Delta":51856917},{"NoteNumber":62,"Velocity":66,"Duration":447493,"SoundDuration":447493,"Delta":51856917},{"NoteNumber":50,"Velocity":66,"Duration":447493,"SoundDuration":447493,"Delta":51856917},{"NoteNumber":47,"Velocity":58,"Duration":441584,"SoundDuration":441584,"Delta":52304411},{"NoteNumber":59,"Velocity":66,"Duration":441584,"SoundDuration":441584,"Delta":52304411},{"NoteNumber":79,"Velocity":74,"Duration":112309,"SoundDuration":112309,"Delta":52521378},{"NoteNumber":74,"Velocity":66,"Duration":112309,"SoundDuration":112309,"Delta":52521378},{"NoteNumber":86,"Velocity":74,"Duration":112309,"SoundDuration":112309,"Delta":52521378},{"NoteNumber":85,"Velocity":78,"Duration":108483,"SoundDuration":108483,"Delta":52745996},{"NoteNumber":88,"Velocity":78,"Duration":108483,"SoundDuration":108483,"Delta":52745996},{"NoteNumber":76,"Velocity":71,"Duration":108483,"SoundDuration":108483,"Delta":52745996},{"NoteNumber":79,"Velocity":71,"Duration":108483,"SoundDuration":108483,"Delta":52745996},{"NoteNumber":46,"Velocity":55,"Duration":438975,"SoundDuration":438975,"Delta":52745996},{"NoteNumber":58,"Velocity":63,"Duration":438975,"SoundDuration":438975,"Delta":52745996},{"NoteNumber":86,"Velocity":77,"Duration":111004,"SoundDuration":111004,"Delta":52962963},{"NoteNumber":74,"Velocity":69,"Duration":111004,"SoundDuration":111004,"Delta":52962963},{"NoteNumber":84,"Velocity":78,"Duration":217785,"SoundDuration":217785,"Delta":53184971},{"NoteNumber":76,"Velocity":71,"Duration":217785,"SoundDuration":217785,"Delta":53184971},{"NoteNumber":88,"Velocity":78,"Duration":217785,"SoundDuration":217785,"Delta":53184971},{"NoteNumber":45,"Velocity":50,"Duration":442403,"SoundDuration":442403,"Delta":53184971},{"NoteNumber":57,"Velocity":56,"Duration":442403,"SoundDuration":442403,"Delta":53184971},{"NoteNumber":84,"Velocity":65,"Duration":224617,"SoundDuration":224617,"Delta":53402757},{"NoteNumber":90,"Velocity":73,"Duration":224617,"SoundDuration":224617,"Delta":53402757},{"NoteNumber":86,"Velocity":73,"Duration":224617,"SoundDuration":224617,"Delta":53402757},{"NoteNumber":78,"Velocity":65,"Duration":224617,"SoundDuration":224617,"Delta":53402757},{"NoteNumber":83,"Velocity":71,"Duration":224617,"SoundDuration":224617,"Delta":53627375},{"NoteNumber":91,"Velocity":78,"Duration":224617,"SoundDuration":224617,"Delta":53627375},{"NoteNumber":79,"Velocity":71,"Duration":224617,"SoundDuration":224617,"Delta":53627375},{"NoteNumber":86,"Velocity":71,"Duration":224617,"SoundDuration":224617,"Delta":53627375},{"NoteNumber":43,"Velocity":56,"Duration":224617,"SoundDuration":224617,"Delta":53627375},{"NoteNumber":55,"Velocity":63,"Duration":224617,"SoundDuration":224617,"Delta":53627375},{"NoteNumber":86,"Velocity":76,"Duration":108483,"SoundDuration":108483,"Delta":54076611},{"NoteNumber":74,"Velocity":68,"Duration":108483,"SoundDuration":108483,"Delta":54076611},{"NoteNumber":47,"Velocity":53,"Duration":432155,"SoundDuration":432155,"Delta":54076611},{"NoteNumber":54,"Velocity":53,"Duration":432155,"SoundDuration":432155,"Delta":54076611},{"NoteNumber":62,"Velocity":59,"Duration":432155,"SoundDuration":432155,"Delta":54076611},{"NoteNumber":50,"Velocity":53,"Duration":432155,"SoundDuration":432155,"Delta":54076611},{"NoteNumber":76,"Velocity":68,"Duration":108069,"SoundDuration":108069,"Delta":54221256},{"NoteNumber":88,"Velocity":76,"Duration":108069,"SoundDuration":108069,"Delta":54221256},{"NoteNumber":78,"Velocity":69,"Duration":107665,"SoundDuration":107665,"Delta":54365348},{"NoteNumber":90,"Velocity":77,"Duration":107665,"SoundDuration":107665,"Delta":54365348},{"NoteNumber":91,"Velocity":78,"Duration":111432,"SoundDuration":111432,"Delta":54508767},{"NoteNumber":79,"Velocity":70,"Duration":111432,"SoundDuration":111432,"Delta":54508767},{"NoteNumber":55,"Velocity":56,"Duration":111432,"SoundDuration":111432,"Delta":54508767},{"NoteNumber":62,"Velocity":63,"Duration":111432,"SoundDuration":111432,"Delta":54508767},{"NoteNumber":59,"Velocity":56,"Duration":111432,"SoundDuration":111432,"Delta":54508767},{"NoteNumber":74,"Velocity":68,"Duration":108483,"SoundDuration":108483,"Delta":54954499},{"NoteNumber":86,"Velocity":76,"Duration":108483,"SoundDuration":108483,"Delta":54954499},{"NoteNumber":50,"Velocity":53,"Duration":432155,"SoundDuration":432155,"Delta":54954499},{"NoteNumber":54,"Velocity":53,"Duration":432155,"SoundDuration":432155,"Delta":54954499},{"NoteNumber":62,"Velocity":59,"Duration":432155,"SoundDuration":432155,"Delta":54954499},{"NoteNumber":47,"Velocity":53,"Duration":432155,"SoundDuration":432155,"Delta":54954499},{"NoteNumber":76,"Velocity":68,"Duration":108069,"SoundDuration":108069,"Delta":55099143},{"NoteNumber":88,"Velocity":76,"Duration":108069,"SoundDuration":108069,"Delta":55099143},{"NoteNumber":90,"Velocity":77,"Duration":107665,"SoundDuration":107665,"Delta":55243236},{"NoteNumber":78,"Velocity":69,"Duration":107665,"SoundDuration":107665,"Delta":55243236},{"NoteNumber":91,"Velocity":78,"Duration":109305,"SoundDuration":109305,"Delta":55386654},{"NoteNumber":79,"Velocity":70,"Duration":109305,"SoundDuration":109305,"Delta":55386654},{"NoteNumber":59,"Velocity":56,"Duration":109305,"SoundDuration":109305,"Delta":55386654},{"NoteNumber":62,"Velocity":63,"Duration":109305,"SoundDuration":109305,"Delta":55386654},{"NoteNumber":55,"Velocity":56,"Duration":109305,"SoundDuration":109305,"Delta":55386654},{"NoteNumber":86,"Velocity":76,"Duration":108207,"SoundDuration":108207,"Delta":55823876},{"NoteNumber":74,"Velocity":68,"Duration":108207,"SoundDuration":108207,"Delta":55823876},{"NoteNumber":47,"Velocity":53,"Duration":437821,"SoundDuration":437821,"Delta":55823876},{"NoteNumber":54,"Velocity":53,"Duration":437821,"SoundDuration":437821,"Delta":55823876},{"NoteNumber":62,"Velocity":59,"Duration":437821,"SoundDuration":437821,"Delta":55823876},{"NoteNumber":50,"Velocity":53,"Duration":437821,"SoundDuration":437821,"Delta":55823876},{"NoteNumber":76,"Velocity":68,"Duration":109309,"SoundDuration":109309,"Delta":55968381},{"NoteNumber":88,"Velocity":76,"Duration":109309,"SoundDuration":109309,"Delta":55968381},{"NoteNumber":78,"Velocity":69,"Duration":110429,"SoundDuration":110429,"Delta":56114267},{"NoteNumber":90,"Velocity":77,"Duration":110429,"SoundDuration":110429,"Delta":56114267},{"NoteNumber":91,"Velocity":78,"Duration":222866,"SoundDuration":222866,"Delta":56261698},{"NoteNumber":79,"Velocity":70,"Duration":222866,"SoundDuration":222866,"Delta":56261698},{"NoteNumber":55,"Velocity":56,"Duration":222866,"SoundDuration":222866,"Delta":56261698},{"NoteNumber":59,"Velocity":56,"Duration":222866,"SoundDuration":222866,"Delta":56261698},{"NoteNumber":62,"Velocity":63,"Duration":222866,"SoundDuration":222866,"Delta":56261698},{"NoteNumber":67,"Velocity":55,"Duration":73432,"SoundDuration":73432,"Delta":56707430},{"NoteNumber":59,"Velocity":35,"Duration":220863,"SoundDuration":220863,"Delta":56707430},{"NoteNumber":62,"Velocity":39,"Duration":220863,"SoundDuration":220863,"Delta":56707430},{"NoteNumber":69,"Velocity":55,"Duration":73858,"SoundDuration":73858,"Delta":56854435},{"NoteNumber":70,"Velocity":51,"Duration":74435,"SoundDuration":74435,"Delta":57002439},{"NoteNumber":71,"Velocity":55,"Duration":872777,"SoundDuration":872777,"Delta":57151602},{"NoteNumber":59,"Velocity":31,"Duration":222866,"SoundDuration":222866,"Delta":57578648},{"NoteNumber":63,"Velocity":35,"Duration":222866,"SoundDuration":222866,"Delta":57578648},{"NoteNumber":57,"Velocity":31,"Duration":222866,"SoundDuration":222866,"Delta":57578648},{"NoteNumber":72,"Velocity":55,"Duration":445731,"SoundDuration":445731,"Delta":58024380},{"NoteNumber":67,"Velocity":55,"Duration":73152,"SoundDuration":73152,"Delta":58470112},{"NoteNumber":60,"Velocity":31,"Duration":220443,"SoundDuration":220443,"Delta":58470112},{"NoteNumber":64,"Velocity":35,"Duration":220443,"SoundDuration":220443,"Delta":58470112},{"NoteNumber":55,"Velocity":31,"Duration":220443,"SoundDuration":220443,"Delta":58470112},{"NoteNumber":69,"Velocity":55,"Duration":73858,"SoundDuration":73858,"Delta":58616697},{"NoteNumber":71,"Velocity":51,"Duration":74582,"SoundDuration":74582,"Delta":58764701},{"NoteNumber":72,"Velocity":55,"Duration":765993,"SoundDuration":765993,"Delta":58914302},{"NoteNumber":64,"Velocity":34,"Duration":222866,"SoundDuration":222866,"Delta":59342873},{"NoteNumber":60,"Velocity":30,"Duration":222866,"SoundDuration":222866,"Delta":59342873},{"NoteNumber":54,"Velocity":30,"Duration":222866,"SoundDuration":222866,"Delta":59342873},{"NoteNumber":57,"Velocity":30,"Duration":222866,"SoundDuration":222866,"Delta":59342873},{"NoteNumber":76,"Velocity":55,"Duration":114556,"SoundDuration":114556,"Delta":59680295},{"NoteNumber":71,"Velocity":55,"Duration":445731,"SoundDuration":445731,"Delta":59794852},{"NoteNumber":54,"Velocity":55,"Duration":73432,"SoundDuration":73432,"Delta":60240584},{"NoteNumber":59,"Velocity":35,"Duration":220863,"SoundDuration":220863,"Delta":60240584},{"NoteNumber":63,"Velocity":39,"Duration":220863,"SoundDuration":220863,"Delta":60240584},{"NoteNumber":55,"Velocity":55,"Duration":73858,"SoundDuration":73858,"Delta":60387589},{"NoteNumber":57,"Velocity":51,"Duration":74435,"SoundDuration":74435,"Delta":60535593},{"NoteNumber":59,"Velocity":55,"Duration":874302,"SoundDuration":874302,"Delta":60684756},{"NoteNumber":66,"Velocity":39,"Duration":222866,"SoundDuration":222866,"Delta":61113327},{"NoteNumber":63,"Velocity":35,"Duration":222866,"SoundDuration":222866,"Delta":61113327},{"NoteNumber":45,"Velocity":28,"Duration":222866,"SoundDuration":222866,"Delta":61113327},{"NoteNumber":57,"Velocity":32,"Duration":222866,"SoundDuration":222866,"Delta":61113327},{"NoteNumber":47,"Velocity":28,"Duration":222866,"SoundDuration":222866,"Delta":61113327},{"NoteNumber":60,"Velocity":55,"Duration":445731,"SoundDuration":445731,"Delta":61559059},{"NoteNumber":67,"Velocity":39,"Duration":220443,"SoundDuration":220443,"Delta":62004791},{"NoteNumber":64,"Velocity":39,"Duration":220443,"SoundDuration":220443,"Delta":62004791},{"NoteNumber":55,"Velocity":55,"Duration":73152,"SoundDuration":73152,"Delta":62004791},{"NoteNumber":48,"Velocity":27,"Duration":220443,"SoundDuration":220443,"Delta":62004791},{"NoteNumber":55,"Velocity":31,"Duration":220443,"SoundDuration":220443,"Delta":62004791},{"NoteNumber":43,"Velocity":27,"Duration":220443,"SoundDuration":220443,"Delta":62004791},{"NoteNumber":57,"Velocity":55,"Duration":73858,"SoundDuration":73858,"Delta":62151376},{"NoteNumber":59,"Velocity":51,"Duration":74582,"SoundDuration":74582,"Delta":62299380},{"NoteNumber":60,"Velocity":55,"Duration":767530,"SoundDuration":767530,"Delta":62448981},{"NoteNumber":72,"Velocity":39,"Duration":222866,"SoundDuration":222866,"Delta":62879089},{"NoteNumber":69,"Velocity":39,"Duration":222866,"SoundDuration":222866,"Delta":62879089},{"NoteNumber":54,"Velocity":33,"Duration":222866,"SoundDuration":222866,"Delta":62879089},{"NoteNumber":48,"Velocity":29,"Duration":222866,"SoundDuration":222866,"Delta":62879089},{"NoteNumber":42,"Velocity":29,"Duration":222866,"SoundDuration":222866,"Delta":62879089},{"NoteNumber":64,"Velocity":55,"Duration":114556,"SoundDuration":114556,"Delta":63216511},{"NoteNumber":59,"Velocity":55,"Duration":445731,"SoundDuration":445731,"Delta":63331068},{"NoteNumber":63,"Velocity":39,"Duration":220863,"SoundDuration":220863,"Delta":63776800},{"NoteNumber":66,"Velocity":55,"Duration":73432,"SoundDuration":73432,"Delta":63776800},{"NoteNumber":54,"Velocity":31,"Duration":220863,"SoundDuration":220863,"Delta":63776800},{"NoteNumber":59,"Velocity":35,"Duration":220863,"SoundDuration":220863,"Delta":63776800},{"NoteNumber":47,"Velocity":31,"Duration":220863,"SoundDuration":220863,"Delta":63776800},{"NoteNumber":68,"Velocity":55,"Duration":73858,"SoundDuration":73858,"Delta":63923805},{"NoteNumber":70,"Velocity":51,"Duration":74435,"SoundDuration":74435,"Delta":64071809},{"NoteNumber":71,"Velocity":55,"Duration":884649,"SoundDuration":884649,"Delta":64220972},{"NoteNumber":57,"Velocity":31,"Duration":222865,"SoundDuration":222865,"Delta":64659889},{"NoteNumber":59,"Velocity":31,"Duration":222865,"SoundDuration":222865,"Delta":64659889},{"NoteNumber":63,"Velocity":35,"Duration":222865,"SoundDuration":222865,"Delta":64659889},{"NoteNumber":72,"Velocity":55,"Duration":445731,"SoundDuration":445731,"Delta":65105621},{"NoteNumber":67,"Velocity":55,"Duration":73152,"SoundDuration":73152,"Delta":65551353},{"NoteNumber":55,"Velocity":31,"Duration":220443,"SoundDuration":220443,"Delta":65551353},{"NoteNumber":64,"Velocity":35,"Duration":220443,"SoundDuration":220443,"Delta":65551353},{"NoteNumber":60,"Velocity":31,"Duration":220443,"SoundDuration":220443,"Delta":65551353},{"NoteNumber":69,"Velocity":55,"Duration":73858,"SoundDuration":73858,"Delta":65697938},{"NoteNumber":71,"Velocity":51,"Duration":74582,"SoundDuration":74582,"Delta":65845942},{"NoteNumber":72,"Velocity":55,"Duration":765993,"SoundDuration":765993,"Delta":65995543},{"NoteNumber":60,"Velocity":30,"Duration":222865,"SoundDuration":222865,"Delta":66424114},{"NoteNumber":57,"Velocity":30,"Duration":222865,"SoundDuration":222865,"Delta":66424114},{"NoteNumber":54,"Velocity":30,"Duration":222865,"SoundDuration":222865,"Delta":66424114},{"NoteNumber":64,"Velocity":34,"Duration":222865,"SoundDuration":222865,"Delta":66424114},{"NoteNumber":76,"Velocity":55,"Duration":114556,"SoundDuration":114556,"Delta":66761536},{"NoteNumber":71,"Velocity":55,"Duration":445732,"SoundDuration":445732,"Delta":66876093},{"NoteNumber":54,"Velocity":55,"Duration":73432,"SoundDuration":73432,"Delta":67321825},{"NoteNumber":63,"Velocity":39,"Duration":220863,"SoundDuration":220863,"Delta":67321825},{"NoteNumber":59,"Velocity":35,"Duration":220863,"SoundDuration":220863,"Delta":67321825},{"NoteNumber":55,"Velocity":55,"Duration":73858,"SoundDuration":73858,"Delta":67468830},{"NoteNumber":57,"Velocity":51,"Duration":74435,"SoundDuration":74435,"Delta":67616834},{"NoteNumber":59,"Velocity":55,"Duration":886325,"SoundDuration":886325,"Delta":67765997},{"NoteNumber":63,"Velocity":39,"Duration":222865,"SoundDuration":222865,"Delta":68206590},{"NoteNumber":66,"Velocity":39,"Duration":222865,"SoundDuration":222865,"Delta":68206590},{"NoteNumber":45,"Velocity":28,"Duration":222865,"SoundDuration":222865,"Delta":68206590},{"NoteNumber":47,"Velocity":28,"Duration":222865,"SoundDuration":222865,"Delta":68206590},{"NoteNumber":57,"Velocity":32,"Duration":222865,"SoundDuration":222865,"Delta":68206590},{"NoteNumber":60,"Velocity":55,"Duration":445731,"SoundDuration":445731,"Delta":68652322},{"NoteNumber":64,"Velocity":39,"Duration":220443,"SoundDuration":220443,"Delta":69098054},{"NoteNumber":67,"Velocity":39,"Duration":220443,"SoundDuration":220443,"Delta":69098054},{"NoteNumber":55,"Velocity":55,"Duration":73152,"SoundDuration":73152,"Delta":69098054},{"NoteNumber":43,"Velocity":27,"Duration":220443,"SoundDuration":220443,"Delta":69098054},{"NoteNumber":55,"Velocity":31,"Duration":220443,"SoundDuration":220443,"Delta":69098054},{"NoteNumber":48,"Velocity":27,"Duration":220443,"SoundDuration":220443,"Delta":69098054},{"NoteNumber":57,"Velocity":55,"Duration":73858,"SoundDuration":73858,"Delta":69244639},{"NoteNumber":59,"Velocity":51,"Duration":74582,"SoundDuration":74582,"Delta":69392643},{"NoteNumber":60,"Velocity":55,"Duration":778015,"SoundDuration":778015,"Delta":69542244},{"NoteNumber":69,"Velocity":39,"Duration":222865,"SoundDuration":222865,"Delta":69982837},{"NoteNumber":72,"Velocity":39,"Duration":222865,"SoundDuration":222865,"Delta":69982837},{"NoteNumber":54,"Velocity":33,"Duration":222865,"SoundDuration":222865,"Delta":69982837},{"NoteNumber":42,"Velocity":29,"Duration":222865,"SoundDuration":222865,"Delta":69982837},{"NoteNumber":48,"Velocity":29,"Duration":222865,"SoundDuration":222865,"Delta":69982837},{"NoteNumber":64,"Velocity":55,"Duration":114556,"SoundDuration":114556,"Delta":70320259},{"NoteNumber":59,"Velocity":55,"Duration":445732,"SoundDuration":445732,"Delta":70434815},{"NoteNumber":71,"Velocity":42,"Duration":220863,"SoundDuration":220863,"Delta":70880547},{"NoteNumber":63,"Velocity":59,"Duration":73432,"SoundDuration":73432,"Delta":70880547},{"NoteNumber":54,"Velocity":33,"Duration":220863,"SoundDuration":220863,"Delta":70880547},{"NoteNumber":59,"Velocity":37,"Duration":220863,"SoundDuration":220863,"Delta":70880547},{"NoteNumber":47,"Velocity":33,"Duration":220863,"SoundDuration":220863,"Delta":70880547},{"NoteNumber":64,"Velocity":59,"Duration":73858,"SoundDuration":73858,"Delta":71027553},{"NoteNumber":65,"Velocity":57,"Duration":74435,"SoundDuration":74435,"Delta":71175557},{"NoteNumber":66,"Velocity":62,"Duration":875840,"SoundDuration":875840,"Delta":71324720},{"NoteNumber":61,"Velocity":46,"Duration":445732,"SoundDuration":445732,"Delta":71754828},{"NoteNumber":45,"Velocity":36,"Duration":445732,"SoundDuration":445732,"Delta":71754828},{"NoteNumber":54,"Velocity":41,"Duration":445732,"SoundDuration":445732,"Delta":71754828},{"NoteNumber":57,"Velocity":41,"Duration":445732,"SoundDuration":445732,"Delta":71754828},{"NoteNumber":60,"Velocity":64,"Duration":222865,"SoundDuration":222865,"Delta":72200560},{"NoteNumber":68,"Velocity":67,"Duration":222865,"SoundDuration":222865,"Delta":72200560},{"NoteNumber":44,"Velocity":44,"Duration":222865,"SoundDuration":222865,"Delta":72200560},{"NoteNumber":56,"Velocity":49,"Duration":222865,"SoundDuration":222865,"Delta":72200560},{"NoteNumber":80,"Velocity":68,"Duration":444017,"SoundDuration":444017,"Delta":72646292},{"NoteNumber":68,"Velocity":61,"Duration":444017,"SoundDuration":444017,"Delta":72646292},{"NoteNumber":44,"Velocity":57,"Duration":74002,"SoundDuration":74002,"Delta":72646292},{"NoteNumber":43,"Velocity":52,"Duration":74002,"SoundDuration":74002,"Delta":72794297},{"NoteNumber":44,"Velocity":52,"Duration":74002,"SoundDuration":74002,"Delta":72942303},{"NoteNumber":67,"Velocity":60,"Duration":444017,"SoundDuration":444017,"Delta":73090309},{"NoteNumber":79,"Velocity":67,"Duration":444017,"SoundDuration":444017,"Delta":73090309},{"NoteNumber":46,"Velocity":59,"Duration":74002,"SoundDuration":74002,"Delta":73090309},{"NoteNumber":44,"Velocity":53,"Duration":74002,"SoundDuration":74002,"Delta":73238314},{"NoteNumber":46,"Velocity":53,"Duration":74002,"SoundDuration":74002,"Delta":73386320},{"NoteNumber":66,"Velocity":60,"Duration":445732,"SoundDuration":445732,"Delta":73534326},{"NoteNumber":68,"Velocity":60,"Duration":445732,"SoundDuration":445732,"Delta":73534326},{"NoteNumber":78,"Velocity":67,"Duration":445732,"SoundDuration":445732,"Delta":73534326},{"NoteNumber":48,"Velocity":59,"Duration":74288,"SoundDuration":74288,"Delta":73534326},{"NoteNumber":46,"Velocity":55,"Duration":74288,"SoundDuration":74288,"Delta":73682903},{"NoteNumber":48,"Velocity":55,"Duration":74288,"SoundDuration":74288,"Delta":73831480},{"NoteNumber":64,"Velocity":54,"Duration":223747,"SoundDuration":223747,"Delta":73980058},{"NoteNumber":68,"Velocity":54,"Duration":223747,"SoundDuration":223747,"Delta":73980058},{"NoteNumber":76,"Velocity":67,"Duration":223747,"SoundDuration":223747,"Delta":73980058},{"NoteNumber":49,"Velocity":60,"Duration":223747,"SoundDuration":223747,"Delta":73980058},{"NoteNumber":64,"Velocity":61,"Duration":147005,"SoundDuration":147005,"Delta":74427552},{"NoteNumber":56,"Velocity":39,"Duration":220863,"SoundDuration":220863,"Delta":74427552},{"NoteNumber":61,"Velocity":44,"Duration":220863,"SoundDuration":220863,"Delta":74427552},{"NoteNumber":49,"Velocity":39,"Duration":220863,"SoundDuration":220863,"Delta":74427552},{"NoteNumber":66,"Velocity":61,"Duration":148004,"SoundDuration":148004,"Delta":74574557},{"NoteNumber":67,"Velocity":59,"Duration":149162,"SoundDuration":149162,"Delta":74722561},{"NoteNumber":68,"Velocity":65,"Duration":875840,"SoundDuration":875840,"Delta":74871724},{"NoteNumber":63,"Velocity":48,"Duration":445732,"SoundDuration":445732,"Delta":75301832},{"NoteNumber":56,"Velocity":48,"Duration":445732,"SoundDuration":445732,"Delta":75301832},{"NoteNumber":59,"Velocity":48,"Duration":445732,"SoundDuration":445732,"Delta":75301832},{"NoteNumber":47,"Velocity":43,"Duration":445732,"SoundDuration":445732,"Delta":75301832},{"NoteNumber":70,"Velocity":69,"Duration":222865,"SoundDuration":222865,"Delta":75747564},{"NoteNumber":62,"Velocity":67,"Duration":222865,"SoundDuration":222865,"Delta":75747564},{"NoteNumber":46,"Velocity":45,"Duration":222865,"SoundDuration":222865,"Delta":75747564},{"NoteNumber":58,"Velocity":51,"Duration":222865,"SoundDuration":222865,"Delta":75747564},{"NoteNumber":82,"Velocity":70,"Duration":438917,"SoundDuration":438917,"Delta":76193296},{"NoteNumber":70,"Velocity":63,"Duration":438917,"SoundDuration":438917,"Delta":76193296},{"NoteNumber":46,"Velocity":61,"Duration":73152,"SoundDuration":73152,"Delta":76193296},{"NoteNumber":45,"Velocity":56,"Duration":73152,"SoundDuration":73152,"Delta":76339601},{"NoteNumber":46,"Velocity":56,"Duration":73152,"SoundDuration":73152,"Delta":76485907},{"NoteNumber":81,"Velocity":70,"Duration":442282,"SoundDuration":442282,"Delta":76632213},{"NoteNumber":69,"Velocity":63,"Duration":442282,"SoundDuration":442282,"Delta":76632213},{"NoteNumber":48,"Velocity":64,"Duration":73713,"SoundDuration":73713,"Delta":76632213},{"NoteNumber":46,"Velocity":57,"Duration":73713,"SoundDuration":73713,"Delta":76779640},{"NoteNumber":48,"Velocity":57,"Duration":73713,"SoundDuration":73713,"Delta":76927067},{"NoteNumber":70,"Velocity":59,"Duration":444017,"SoundDuration":444017,"Delta":77074495},{"NoteNumber":68,"Velocity":59,"Duration":444017,"SoundDuration":444017,"Delta":77074495},{"NoteNumber":80,"Velocity":66,"Duration":444017,"SoundDuration":444017,"Delta":77074495},{"NoteNumber":50,"Velocity":64,"Duration":74002,"SoundDuration":74002,"Delta":77074495},{"NoteNumber":49,"Velocity":59,"Duration":74002,"SoundDuration":74002,"Delta":77222500},{"NoteNumber":50,"Velocity":59,"Duration":74002,"SoundDuration":74002,"Delta":77370506},{"NoteNumber":70,"Velocity":56,"Duration":224618,"SoundDuration":224618,"Delta":77518512},{"NoteNumber":66,"Velocity":56,"Duration":224618,"SoundDuration":224618,"Delta":77518512},{"NoteNumber":78,"Velocity":70,"Duration":224618,"SoundDuration":224618,"Delta":77518512},{"NoteNumber":51,"Velocity":66,"Duration":224618,"SoundDuration":224618,"Delta":77518512},{"NoteNumber":70,"Velocity":59,"Duration":74002,"SoundDuration":74002,"Delta":77967748},{"NoteNumber":58,"Velocity":37,"Duration":222008,"SoundDuration":222008,"Delta":77967748},{"NoteNumber":56,"Velocity":37,"Duration":222008,"SoundDuration":222008,"Delta":77967748},{"NoteNumber":68,"Velocity":41,"Duration":222008,"SoundDuration":222008,"Delta":77967748},{"NoteNumber":72,"Velocity":57,"Duration":74002,"SoundDuration":74002,"Delta":78115753},{"NoteNumber":74,"Velocity":57,"Duration":74002,"SoundDuration":74002,"Delta":78263759},{"NoteNumber":75,"Velocity":60,"Duration":74002,"SoundDuration":74002,"Delta":78411765},{"NoteNumber":58,"Velocity":39,"Duration":222008,"SoundDuration":222008,"Delta":78411765},{"NoteNumber":54,"Velocity":39,"Duration":222008,"SoundDuration":222008,"Delta":78411765},{"NoteNumber":66,"Velocity":44,"Duration":222008,"SoundDuration":222008,"Delta":78411765},{"NoteNumber":74,"Velocity":57,"Duration":74002,"SoundDuration":74002,"Delta":78559770},{"NoteNumber":75,"Velocity":57,"Duration":74002,"SoundDuration":74002,"Delta":78707776},{"NoteNumber":82,"Velocity":60,"Duration":74002,"SoundDuration":74002,"Delta":78855782},{"NoteNumber":62,"Velocity":40,"Duration":222008,"SoundDuration":222008,"Delta":78855782},{"NoteNumber":58,"Velocity":40,"Duration":222008,"SoundDuration":222008,"Delta":78855782},{"NoteNumber":50,"Velocity":36,"Duration":222008,"SoundDuration":222008,"Delta":78855782},{"NoteNumber":81,"Velocity":56,"Duration":74002,"SoundDuration":74002,"Delta":79003787},{"NoteNumber":82,"Velocity":56,"Duration":74002,"SoundDuration":74002,"Delta":79151793},{"NoteNumber":78,"Velocity":60,"Duration":74002,"SoundDuration":74002,"Delta":79299799},{"NoteNumber":51,"Velocity":39,"Duration":222008,"SoundDuration":222008,"Delta":79299799},{"NoteNumber":63,"Velocity":44,"Duration":222008,"SoundDuration":222008,"Delta":79299799},{"NoteNumber":58,"Velocity":39,"Duration":222008,"SoundDuration":222008,"Delta":79299799},{"NoteNumber":77,"Velocity":57,"Duration":74002,"SoundDuration":74002,"Delta":79447804},{"NoteNumber":78,"Velocity":57,"Duration":74002,"SoundDuration":74002,"Delta":79595810},{"NoteNumber":74,"Velocity":61,"Duration":73432,"SoundDuration":73432,"Delta":79743816},{"NoteNumber":53,"Velocity":36,"Duration":220296,"SoundDuration":220296,"Delta":79743816},{"NoteNumber":65,"Velocity":40,"Duration":220296,"SoundDuration":220296,"Delta":79743816},{"NoteNumber":58,"Velocity":36,"Duration":220296,"SoundDuration":220296,"Delta":79743816},{"NoteNumber":73,"Velocity":59,"Duration":73432,"SoundDuration":73432,"Delta":79890680},{"NoteNumber":74,"Velocity":59,"Duration":73432,"SoundDuration":73432,"Delta":80037544},{"NoteNumber":75,"Velocity":60,"Duration":74002,"SoundDuration":74002,"Delta":80184409},{"NoteNumber":66,"Velocity":44,"Duration":222008,"SoundDuration":222008,"Delta":80184409},{"NoteNumber":54,"Velocity":39,"Duration":222008,"SoundDuration":222008,"Delta":80184409},{"NoteNumber":58,"Velocity":39,"Duration":222008,"SoundDuration":222008,"Delta":80184409},{"NoteNumber":74,"Velocity":58,"Duration":74002,"SoundDuration":74002,"Delta":80332414},{"NoteNumber":75,"Velocity":58,"Duration":74002,"SoundDuration":74002,"Delta":80480420},{"NoteNumber":70,"Velocity":59,"Duration":74582,"SoundDuration":74582,"Delta":80628426},{"NoteNumber":68,"Velocity":39,"Duration":223747,"SoundDuration":223747,"Delta":80628426},{"NoteNumber":56,"Velocity":35,"Duration":223747,"SoundDuration":223747,"Delta":80628426},{"NoteNumber":58,"Velocity":35,"Duration":223747,"SoundDuration":223747,"Delta":80628426},{"NoteNumber":69,"Velocity":57,"Duration":74582,"SoundDuration":74582,"Delta":80777590},{"NoteNumber":70,"Velocity":57,"Duration":74582,"SoundDuration":74582,"Delta":80926755},{"NoteNumber":75,"Velocity":60,"Duration":74872,"SoundDuration":74872,"Delta":81075920},{"NoteNumber":66,"Velocity":44,"Duration":224618,"SoundDuration":224618,"Delta":81075920},{"NoteNumber":58,"Velocity":39,"Duration":224618,"SoundDuration":224618,"Delta":81075920},{"NoteNumber":54,"Velocity":39,"Duration":224618,"SoundDuration":224618,"Delta":81075920},{"NoteNumber":74,"Velocity":57,"Duration":74872,"SoundDuration":74872,"Delta":81225665},{"NoteNumber":75,"Velocity":58,"Duration":74872,"SoundDuration":74872,"Delta":81375410},{"NoteNumber":58,"Velocity":70,"Duration":153988,"SoundDuration":153988,"Delta":81525156},{"NoteNumber":58,"Velocity":67,"Duration":153988,"SoundDuration":153988,"Delta":81679144},{"NoteNumber":58,"Velocity":66,"Duration":153988,"SoundDuration":153988,"Delta":81833132},{"NoteNumber":63,"Velocity":72,"Duration":458224,"SoundDuration":458224,"Delta":81987121},{"NoteNumber":54,"Velocity":72,"Duration":458224,"SoundDuration":458224,"Delta":81987121},{"NoteNumber":82,"Velocity":71,"Duration":152741,"SoundDuration":152741,"Delta":82139862},{"NoteNumber":81,"Velocity":66,"Duration":152741,"SoundDuration":152741,"Delta":82292604},{"NoteNumber":82,"Velocity":71,"Duration":152125,"SoundDuration":152125,"Delta":82445346},{"NoteNumber":65,"Velocity":68,"Duration":456378,"SoundDuration":456378,"Delta":82445346},{"NoteNumber":58,"Velocity":68,"Duration":456378,"SoundDuration":456378,"Delta":82445346},{"NoteNumber":70,"Velocity":65,"Duration":152126,"SoundDuration":152126,"Delta":82597472},{"NoteNumber":82,"Velocity":67,"Duration":152125,"SoundDuration":152125,"Delta":82749598},{"NoteNumber":82,"Velocity":71,"Duration":155219,"SoundDuration":155219,"Delta":82901724},{"NoteNumber":66,"Velocity":71,"Duration":465658,"SoundDuration":465658,"Delta":82901724},{"NoteNumber":63,"Velocity":71,"Duration":465658,"SoundDuration":465658,"Delta":82901724},{"NoteNumber":70,"Velocity":67,"Duration":155219,"SoundDuration":155219,"Delta":83056943},{"NoteNumber":82,"Velocity":67,"Duration":155219,"SoundDuration":155219,"Delta":83212162},{"NoteNumber":58,"Velocity":73,"Duration":155219,"SoundDuration":155219,"Delta":83367382},{"NoteNumber":58,"Velocity":70,"Duration":155219,"SoundDuration":155219,"Delta":83522601},{"NoteNumber":58,"Velocity":70,"Duration":155219,"SoundDuration":155219,"Delta":83677820},{"NoteNumber":54,"Velocity":72,"Duration":458224,"SoundDuration":458224,"Delta":83833040},{"NoteNumber":63,"Velocity":72,"Duration":458224,"SoundDuration":458224,"Delta":83833040},{"NoteNumber":82,"Velocity":71,"Duration":152741,"SoundDuration":152741,"Delta":83985781},{"NoteNumber":81,"Velocity":66,"Duration":152741,"SoundDuration":152741,"Delta":84138523},{"NoteNumber":82,"Velocity":71,"Duration":152125,"SoundDuration":152125,"Delta":84291265},{"NoteNumber":58,"Velocity":68,"Duration":456378,"SoundDuration":456378,"Delta":84291265},{"NoteNumber":65,"Velocity":68,"Duration":456378,"SoundDuration":456378,"Delta":84291265},{"NoteNumber":70,"Velocity":65,"Duration":152126,"SoundDuration":152126,"Delta":84443391},{"NoteNumber":82,"Velocity":67,"Duration":152125,"SoundDuration":152125,"Delta":84595517},{"NoteNumber":82,"Velocity":71,"Duration":155219,"SoundDuration":155219,"Delta":84747643},{"NoteNumber":63,"Velocity":71,"Duration":465658,"SoundDuration":465658,"Delta":84747643},{"NoteNumber":66,"Velocity":71,"Duration":465658,"SoundDuration":465658,"Delta":84747643},{"NoteNumber":70,"Velocity":67,"Duration":155219,"SoundDuration":155219,"Delta":84902862},{"NoteNumber":82,"Velocity":67,"Duration":155219,"SoundDuration":155219,"Delta":85058081},{"NoteNumber":71,"Velocity":59,"Duration":74002,"SoundDuration":74002,"Delta":85213301},{"NoteNumber":69,"Velocity":41,"Duration":222008,"SoundDuration":222008,"Delta":85213301},{"NoteNumber":59,"Velocity":37,"Duration":222008,"SoundDuration":222008,"Delta":85213301},{"NoteNumber":57,"Velocity":37,"Duration":222008,"SoundDuration":222008,"Delta":85213301},{"NoteNumber":73,"Velocity":57,"Duration":74002,"SoundDuration":74002,"Delta":85361306},{"NoteNumber":75,"Velocity":57,"Duration":74002,"SoundDuration":74002,"Delta":85509312},{"NoteNumber":76,"Velocity":60,"Duration":74002,"SoundDuration":74002,"Delta":85657318},{"NoteNumber":67,"Velocity":44,"Duration":222008,"SoundDuration":222008,"Delta":85657318},{"NoteNumber":59,"Velocity":39,"Duration":222008,"SoundDuration":222008,"Delta":85657318},{"NoteNumber":55,"Velocity":39,"Duration":222008,"SoundDuration":222008,"Delta":85657318},{"NoteNumber":75,"Velocity":57,"Duration":74002,"SoundDuration":74002,"Delta":85805323},{"NoteNumber":76,"Velocity":57,"Duration":74002,"SoundDuration":74002,"Delta":85953329},{"NoteNumber":83,"Velocity":60,"Duration":74002,"SoundDuration":74002,"Delta":86101335},{"NoteNumber":63,"Velocity":40,"Duration":222008,"SoundDuration":222008,"Delta":86101335},{"NoteNumber":59,"Velocity":40,"Duration":222008,"SoundDuration":222008,"Delta":86101335},{"NoteNumber":51,"Velocity":36,"Duration":222008,"SoundDuration":222008,"Delta":86101335},{"NoteNumber":82,"Velocity":56,"Duration":74002,"SoundDuration":74002,"Delta":86249340},{"NoteNumber":83,"Velocity":56,"Duration":74002,"SoundDuration":74002,"Delta":86397346},{"NoteNumber":79,"Velocity":60,"Duration":74002,"SoundDuration":74002,"Delta":86545352},{"NoteNumber":59,"Velocity":39,"Duration":222008,"SoundDuration":222008,"Delta":86545352},{"NoteNumber":64,"Velocity":44,"Duration":222008,"SoundDuration":222008,"Delta":86545352},{"NoteNumber":52,"Velocity":39,"Duration":222008,"SoundDuration":222008,"Delta":86545352},{"NoteNumber":78,"Velocity":57,"Duration":74002,"SoundDuration":74002,"Delta":86693357},{"NoteNumber":79,"Velocity":57,"Duration":74002,"SoundDuration":74002,"Delta":86841363},{"NoteNumber":75,"Velocity":61,"Duration":73432,"SoundDuration":73432,"Delta":86989369},{"NoteNumber":59,"Velocity":36,"Duration":220296,"SoundDuration":220296,"Delta":86989369},{"NoteNumber":66,"Velocity":40,"Duration":220296,"SoundDuration":220296,"Delta":86989369},{"NoteNumber":54,"Velocity":36,"Duration":220296,"SoundDuration":220296,"Delta":86989369},{"NoteNumber":74,"Velocity":59,"Duration":73432,"SoundDuration":73432,"Delta":87136233},{"NoteNumber":75,"Velocity":59,"Duration":73432,"SoundDuration":73432,"Delta":87283097},{"NoteNumber":76,"Velocity":60,"Duration":74002,"SoundDuration":74002,"Delta":87429962},{"NoteNumber":59,"Velocity":39,"Duration":222008,"SoundDuration":222008,"Delta":87429962},{"NoteNumber":55,"Velocity":39,"Duration":222008,"SoundDuration":222008,"Delta":87429962},{"NoteNumber":67,"Velocity":44,"Duration":222008,"SoundDuration":222008,"Delta":87429962},{"NoteNumber":75,"Velocity":58,"Duration":74002,"SoundDuration":74002,"Delta":87577967},{"NoteNumber":76,"Velocity":58,"Duration":74002,"SoundDuration":74002,"Delta":87725973},{"NoteNumber":71,"Velocity":59,"Duration":74582,"SoundDuration":74582,"Delta":87873979},{"NoteNumber":59,"Velocity":35,"Duration":223747,"SoundDuration":223747,"Delta":87873979},{"NoteNumber":57,"Velocity":35,"Duration":223747,"SoundDuration":223747,"Delta":87873979},{"NoteNumber":69,"Velocity":39,"Duration":223747,"SoundDuration":223747,"Delta":87873979},{"NoteNumber":70,"Velocity":57,"Duration":74582,"SoundDuration":74582,"Delta":88023143},{"NoteNumber":71,"Velocity":57,"Duration":74582,"SoundDuration":74582,"Delta":88172308},{"NoteNumber":76,"Velocity":60,"Duration":74872,"SoundDuration":74872,"Delta":88321473},{"NoteNumber":67,"Velocity":44,"Duration":224618,"SoundDuration":224618,"Delta":88321473},{"NoteNumber":55,"Velocity":39,"Duration":224618,"SoundDuration":224618,"Delta":88321473},{"NoteNumber":59,"Velocity":39,"Duration":224618,"SoundDuration":224618,"Delta":88321473},{"NoteNumber":75,"Velocity":57,"Duration":74872,"SoundDuration":74872,"Delta":88471218},{"NoteNumber":76,"Velocity":58,"Duration":74872,"SoundDuration":74872,"Delta":88620963},{"NoteNumber":59,"Velocity":70,"Duration":153988,"SoundDuration":153988,"Delta":88770709},{"NoteNumber":59,"Velocity":67,"Duration":153988,"SoundDuration":153988,"Delta":88924697},{"NoteNumber":59,"Velocity":66,"Duration":153988,"SoundDuration":153988,"Delta":89078685},{"NoteNumber":55,"Velocity":72,"Duration":458224,"SoundDuration":458224,"Delta":89232674},{"NoteNumber":64,"Velocity":72,"Duration":458224,"SoundDuration":458224,"Delta":89232674},{"NoteNumber":83,"Velocity":71,"Duration":152741,"SoundDuration":152741,"Delta":89385415},{"NoteNumber":82,"Velocity":66,"Duration":152741,"SoundDuration":152741,"Delta":89538157},{"NoteNumber":83,"Velocity":71,"Duration":152125,"SoundDuration":152125,"Delta":89690899},{"NoteNumber":59,"Velocity":68,"Duration":456378,"SoundDuration":456378,"Delta":89690899},{"NoteNumber":66,"Velocity":68,"Duration":456378,"SoundDuration":456378,"Delta":89690899},{"NoteNumber":71,"Velocity":65,"Duration":152126,"SoundDuration":152126,"Delta":89843025},{"NoteNumber":83,"Velocity":67,"Duration":152125,"SoundDuration":152125,"Delta":89995151},{"NoteNumber":83,"Velocity":71,"Duration":155219,"SoundDuration":155219,"Delta":90147277},{"NoteNumber":67,"Velocity":71,"Duration":465658,"SoundDuration":465658,"Delta":90147277},{"NoteNumber":64,"Velocity":71,"Duration":465658,"SoundDuration":465658,"Delta":90147277},{"NoteNumber":71,"Velocity":67,"Duration":155219,"SoundDuration":155219,"Delta":90302496},{"NoteNumber":83,"Velocity":67,"Duration":155219,"SoundDuration":155219,"Delta":90457715},{"NoteNumber":59,"Velocity":73,"Duration":155219,"SoundDuration":155219,"Delta":90612935},{"NoteNumber":59,"Velocity":70,"Duration":155219,"SoundDuration":155219,"Delta":90768154},{"NoteNumber":59,"Velocity":70,"Duration":155219,"SoundDuration":155219,"Delta":90923373},{"NoteNumber":55,"Velocity":72,"Duration":458224,"SoundDuration":458224,"Delta":91078593},{"NoteNumber":64,"Velocity":72,"Duration":458224,"SoundDuration":458224,"Delta":91078593},{"NoteNumber":83,"Velocity":71,"Duration":152741,"SoundDuration":152741,"Delta":91231334},{"NoteNumber":82,"Velocity":66,"Duration":152741,"SoundDuration":152741,"Delta":91384076},{"NoteNumber":83,"Velocity":71,"Duration":152125,"SoundDuration":152125,"Delta":91536818},{"NoteNumber":59,"Velocity":68,"Duration":456378,"SoundDuration":456378,"Delta":91536818},{"NoteNumber":66,"Velocity":68,"Duration":456378,"SoundDuration":456378,"Delta":91536818},{"NoteNumber":71,"Velocity":65,"Duration":152126,"SoundDuration":152126,"Delta":91688944},{"NoteNumber":83,"Velocity":67,"Duration":152125,"SoundDuration":152125,"Delta":91841070},{"NoteNumber":83,"Velocity":71,"Duration":155219,"SoundDuration":155219,"Delta":91993196},{"NoteNumber":64,"Velocity":71,"Duration":465658,"SoundDuration":465658,"Delta":91993196},{"NoteNumber":67,"Velocity":71,"Duration":465658,"SoundDuration":465658,"Delta":91993196},{"NoteNumber":71,"Velocity":67,"Duration":155219,"SoundDuration":155219,"Delta":92148415},{"NoteNumber":83,"Velocity":67,"Duration":155219,"SoundDuration":155219,"Delta":92303634},{"NoteNumber":84,"Velocity":60,"Duration":153350,"SoundDuration":153350,"Delta":92458854},{"NoteNumber":58,"Velocity":44,"Duration":230025,"SoundDuration":230025,"Delta":92458854},{"NoteNumber":60,"Velocity":44,"Duration":230025,"SoundDuration":230025,"Delta":92458854},{"NoteNumber":64,"Velocity":49,"Duration":230025,"SoundDuration":230025,"Delta":92458854},{"NoteNumber":72,"Velocity":56,"Duration":153350,"SoundDuration":153350,"Delta":92612204},{"NoteNumber":84,"Velocity":56,"Duration":153350,"SoundDuration":153350,"Delta":92765555},{"NoteNumber":84,"Velocity":62,"Duration":152125,"SoundDuration":152125,"Delta":92918906},{"NoteNumber":60,"Velocity":45,"Duration":228189,"SoundDuration":228189,"Delta":92918906},{"NoteNumber":65,"Velocity":51,"Duration":228189,"SoundDuration":228189,"Delta":92918906},{"NoteNumber":57,"Velocity":45,"Duration":228189,"SoundDuration":228189,"Delta":92918906},{"NoteNumber":72,"Velocity":59,"Duration":152126,"SoundDuration":152126,"Delta":93071032},{"NoteNumber":84,"Velocity":58,"Duration":152125,"SoundDuration":152125,"Delta":93223158},{"NoteNumber":86,"Velocity":64,"Duration":152125,"SoundDuration":152125,"Delta":93375284},{"NoteNumber":60,"Velocity":46,"Duration":228189,"SoundDuration":228189,"Delta":93375284},{"NoteNumber":62,"Velocity":46,"Duration":228189,"SoundDuration":228189,"Delta":93375284},{"NoteNumber":66,"Velocity":52,"Duration":228189,"SoundDuration":228189,"Delta":93375284},{"NoteNumber":74,"Velocity":59,"Duration":152126,"SoundDuration":152126,"Delta":93527410},{"NoteNumber":86,"Velocity":62,"Duration":151530,"SoundDuration":151530,"Delta":93679536},{"NoteNumber":86,"Velocity":67,"Duration":152125,"SoundDuration":152125,"Delta":93831066},{"NoteNumber":62,"Velocity":48,"Duration":228189,"SoundDuration":228189,"Delta":93831066},{"NoteNumber":67,"Velocity":54,"Duration":228189,"SoundDuration":228189,"Delta":93831066},{"NoteNumber":59,"Velocity":48,"Duration":228189,"SoundDuration":228189,"Delta":93831066},{"NoteNumber":74,"Velocity":62,"Duration":151976,"SoundDuration":151976,"Delta":93983192},{"NoteNumber":86,"Velocity":63,"Duration":151526,"SoundDuration":151526,"Delta":94135169},{"NoteNumber":88,"Velocity":69,"Duration":151080,"SoundDuration":151080,"Delta":94286695},{"NoteNumber":62,"Velocity":50,"Duration":226546,"SoundDuration":226546,"Delta":94286695},{"NoteNumber":64,"Velocity":50,"Duration":226546,"SoundDuration":226546,"Delta":94286695},{"NoteNumber":68,"Velocity":56,"Duration":226546,"SoundDuration":226546,"Delta":94286695},{"NoteNumber":76,"Velocity":65,"Duration":150931,"SoundDuration":150931,"Delta":94437776},{"NoteNumber":88,"Velocity":67,"Duration":150330,"SoundDuration":150330,"Delta":94588708},{"NoteNumber":88,"Velocity":71,"Duration":150038,"SoundDuration":150038,"Delta":94739039},{"NoteNumber":64,"Velocity":52,"Duration":224910,"SoundDuration":224910,"Delta":94739039},{"NoteNumber":69,"Velocity":58,"Duration":224910,"SoundDuration":224910,"Delta":94739039},{"NoteNumber":61,"Velocity":52,"Duration":224910,"SoundDuration":224910,"Delta":94739039},{"NoteNumber":76,"Velocity":67,"Duration":149745,"SoundDuration":149745,"Delta":94889077},{"NoteNumber":88,"Velocity":66,"Duration":149745,"SoundDuration":149745,"Delta":95038822},{"NoteNumber":90,"Velocity":72,"Duration":149745,"SoundDuration":149745,"Delta":95188567},{"NoteNumber":64,"Velocity":53,"Duration":224617,"SoundDuration":224617,"Delta":95188567},{"NoteNumber":70,"Velocity":59,"Duration":224617,"SoundDuration":224617,"Delta":95188567},{"NoteNumber":66,"Velocity":53,"Duration":224617,"SoundDuration":224617,"Delta":95188567},{"NoteNumber":78,"Velocity":68,"Duration":149745,"SoundDuration":149745,"Delta":95338313},{"NoteNumber":90,"Velocity":68,"Duration":149745,"SoundDuration":149745,"Delta":95488058},{"NoteNumber":90,"Velocity":76,"Duration":148577,"SoundDuration":148577,"Delta":95637803},{"NoteNumber":63,"Velocity":54,"Duration":222865,"SoundDuration":222865,"Delta":95637803},{"NoteNumber":71,"Velocity":61,"Duration":222865,"SoundDuration":222865,"Delta":95637803},{"NoteNumber":66,"Velocity":61,"Duration":222865,"SoundDuration":222865,"Delta":95637803},{"NoteNumber":78,"Velocity":69,"Duration":148577,"SoundDuration":148577,"Delta":95786381},{"NoteNumber":90,"Velocity":72,"Duration":148005,"SoundDuration":148005,"Delta":95934958},{"NoteNumber":90,"Velocity":78,"Duration":148005,"SoundDuration":148005,"Delta":96082964},{"NoteNumber":61,"Velocity":56,"Duration":221719,"SoundDuration":221719,"Delta":96082964},{"NoteNumber":64,"Velocity":56,"Duration":221719,"SoundDuration":221719,"Delta":96082964},{"NoteNumber":70,"Velocity":63,"Duration":221719,"SoundDuration":221719,"Delta":96082964},{"NoteNumber":66,"Velocity":63,"Duration":221719,"SoundDuration":221719,"Delta":96082964},{"NoteNumber":78,"Velocity":71,"Duration":147427,"SoundDuration":147427,"Delta":96230969},{"NoteNumber":90,"Velocity":73,"Duration":147427,"SoundDuration":147427,"Delta":96378397},{"NoteNumber":90,"Velocity":80,"Duration":146864,"SoundDuration":146864,"Delta":96525824},{"NoteNumber":59,"Velocity":58,"Duration":220296,"SoundDuration":220296,"Delta":96525824},{"NoteNumber":63,"Velocity":58,"Duration":220296,"SoundDuration":220296,"Delta":96525824},{"NoteNumber":66,"Velocity":65,"Duration":220296,"SoundDuration":220296,"Delta":96525824},{"NoteNumber":71,"Velocity":65,"Duration":220296,"SoundDuration":220296,"Delta":96525824},{"NoteNumber":78,"Velocity":73,"Duration":146864,"SoundDuration":146864,"Delta":96672688},{"NoteNumber":90,"Velocity":76,"Duration":146864,"SoundDuration":146864,"Delta":96819553},{"NoteNumber":90,"Velocity":80,"Duration":146864,"SoundDuration":146864,"Delta":96966417},{"NoteNumber":61,"Velocity":58,"Duration":220296,"SoundDuration":220296,"Delta":96966417},{"NoteNumber":64,"Velocity":58,"Duration":220296,"SoundDuration":220296,"Delta":96966417},{"NoteNumber":66,"Velocity":65,"Duration":220296,"SoundDuration":220296,"Delta":96966417},{"NoteNumber":70,"Velocity":65,"Duration":220296,"SoundDuration":220296,"Delta":96966417},{"NoteNumber":78,"Velocity":73,"Duration":146864,"SoundDuration":146864,"Delta":97113281},{"NoteNumber":90,"Velocity":76,"Duration":146864,"SoundDuration":146864,"Delta":97260146},{"NoteNumber":90,"Velocity":80,"Duration":149164,"SoundDuration":149164,"Delta":97407010},{"NoteNumber":63,"Velocity":58,"Duration":223747,"SoundDuration":223747,"Delta":97407010},{"NoteNumber":66,"Velocity":65,"Duration":223747,"SoundDuration":223747,"Delta":97407010},{"NoteNumber":71,"Velocity":65,"Duration":223747,"SoundDuration":223747,"Delta":97407010},{"NoteNumber":59,"Velocity":58,"Duration":223747,"SoundDuration":223747,"Delta":97407010},{"NoteNumber":78,"Velocity":73,"Duration":149164,"SoundDuration":149164,"Delta":97556175},{"NoteNumber":90,"Velocity":76,"Duration":149164,"SoundDuration":149164,"Delta":97705339},{"NoteNumber":78,"Velocity":78,"Duration":145740,"SoundDuration":145740,"Delta":97854504},{"NoteNumber":49,"Velocity":50,"Duration":218610,"SoundDuration":218610,"Delta":97854504},{"NoteNumber":54,"Velocity":50,"Duration":218610,"SoundDuration":218610,"Delta":97854504},{"NoteNumber":58,"Velocity":56,"Duration":218610,"SoundDuration":218610,"Delta":97854504},{"NoteNumber":52,"Velocity":50,"Duration":218610,"SoundDuration":218610,"Delta":97854504},{"NoteNumber":66,"Velocity":71,"Duration":145740,"SoundDuration":145740,"Delta":98000245},{"NoteNumber":78,"Velocity":73,"Duration":145740,"SoundDuration":145740,"Delta":98145985},{"NoteNumber":78,"Velocity":80,"Duration":148005,"SoundDuration":148005,"Delta":98291726},{"NoteNumber":51,"Velocity":52,"Duration":222008,"SoundDuration":222008,"Delta":98291726},{"NoteNumber":54,"Velocity":52,"Duration":222008,"SoundDuration":222008,"Delta":98291726},{"NoteNumber":59,"Velocity":58,"Duration":222008,"SoundDuration":222008,"Delta":98291726},{"NoteNumber":47,"Velocity":52,"Duration":222008,"SoundDuration":222008,"Delta":98291726},{"NoteNumber":66,"Velocity":73,"Duration":148005,"SoundDuration":148005,"Delta":98439732},{"NoteNumber":78,"Velocity":78,"Duration":148005,"SoundDuration":148005,"Delta":98587737},{"NoteNumber":78,"Velocity":84,"Duration":148005,"SoundDuration":148005,"Delta":98735743},{"NoteNumber":58,"Velocity":60,"Duration":222008,"SoundDuration":222008,"Delta":98735743},{"NoteNumber":49,"Velocity":54,"Duration":222008,"SoundDuration":222008,"Delta":98735743},{"NoteNumber":54,"Velocity":54,"Duration":222008,"SoundDuration":222008,"Delta":98735743},{"NoteNumber":52,"Velocity":54,"Duration":222008,"SoundDuration":222008,"Delta":98735743},{"NoteNumber":66,"Velocity":77,"Duration":148005,"SoundDuration":148005,"Delta":98883749},{"NoteNumber":78,"Velocity":82,"Duration":148005,"SoundDuration":148005,"Delta":99031754},{"NoteNumber":78,"Velocity":88,"Duration":149164,"SoundDuration":149164,"Delta":99179760},{"NoteNumber":47,"Velocity":57,"Duration":223747,"SoundDuration":223747,"Delta":99179760},{"NoteNumber":51,"Velocity":57,"Duration":223747,"SoundDuration":223747,"Delta":99179760},{"NoteNumber":59,"Velocity":63,"Duration":223747,"SoundDuration":223747,"Delta":99179760},{"NoteNumber":54,"Velocity":57,"Duration":223747,"SoundDuration":223747,"Delta":99179760},{"NoteNumber":66,"Velocity":81,"Duration":149164,"SoundDuration":149164,"Delta":99328925},{"NoteNumber":78,"Velocity":85,"Duration":149164,"SoundDuration":149164,"Delta":99478089},{"NoteNumber":78,"Velocity":92,"Duration":150188,"SoundDuration":150188,"Delta":99627254},{"NoteNumber":58,"Velocity":66,"Duration":226101,"SoundDuration":226101,"Delta":99627254},{"NoteNumber":52,"Velocity":59,"Duration":226101,"SoundDuration":226101,"Delta":99627254},{"NoteNumber":54,"Velocity":59,"Duration":226101,"SoundDuration":226101,"Delta":99627254},{"NoteNumber":49,"Velocity":59,"Duration":226101,"SoundDuration":226101,"Delta":99627254},{"NoteNumber":66,"Velocity":84,"Duration":152130,"SoundDuration":152130,"Delta":99777442},{"NoteNumber":78,"Velocity":89,"Duration":154288,"SoundDuration":154288,"Delta":99929572},{"NoteNumber":78,"Velocity":79,"Duration":112308,"SoundDuration":112308,"Delta":100083861},{"NoteNumber":71,"Velocity":79,"Duration":112308,"SoundDuration":112308,"Delta":100083861},{"NoteNumber":75,"Velocity":79,"Duration":112308,"SoundDuration":112308,"Delta":100083861},{"NoteNumber":83,"Velocity":94,"Duration":112308,"SoundDuration":112308,"Delta":100083861},{"NoteNumber":47,"Velocity":55,"Duration":112308,"SoundDuration":112308,"Delta":100083861},{"NoteNumber":54,"Velocity":55,"Duration":112308,"SoundDuration":112308,"Delta":100083861},{"NoteNumber":59,"Velocity":65,"Duration":112308,"SoundDuration":112308,"Delta":100083861},{"NoteNumber":51,"Velocity":55,"Duration":112308,"SoundDuration":112308,"Delta":100083861},{"NoteNumber":75,"Velocity":71,"Duration":111149,"SoundDuration":111149,"Delta":100233606},{"NoteNumber":83,"Velocity":84,"Duration":111149,"SoundDuration":111149,"Delta":100233606},{"NoteNumber":78,"Velocity":71,"Duration":111149,"SoundDuration":111149,"Delta":100233606},{"NoteNumber":71,"Velocity":71,"Duration":111149,"SoundDuration":111149,"Delta":100233606},{"NoteNumber":51,"Velocity":49,"Duration":111149,"SoundDuration":111149,"Delta":100233606},{"NoteNumber":54,"Velocity":49,"Duration":111149,"SoundDuration":111149,"Delta":100233606},{"NoteNumber":59,"Velocity":58,"Duration":111149,"SoundDuration":111149,"Delta":100233606},{"NoteNumber":47,"Velocity":49,"Duration":111149,"SoundDuration":111149,"Delta":100233606},{"NoteNumber":71,"Velocity":71,"Duration":114094,"SoundDuration":114094,"Delta":100381613},{"NoteNumber":83,"Velocity":84,"Duration":114094,"SoundDuration":114094,"Delta":100381613},{"NoteNumber":75,"Velocity":71,"Duration":114094,"SoundDuration":114094,"Delta":100381613},{"NoteNumber":78,"Velocity":71,"Duration":114094,"SoundDuration":114094,"Delta":100381613},{"NoteNumber":47,"Velocity":49,"Duration":114094,"SoundDuration":114094,"Delta":100381613},{"NoteNumber":51,"Velocity":49,"Duration":114094,"SoundDuration":114094,"Delta":100381613},{"NoteNumber":59,"Velocity":58,"Duration":114094,"SoundDuration":114094,"Delta":100381613},{"NoteNumber":54,"Velocity":49,"Duration":114094,"SoundDuration":114094,"Delta":100381613},{"NoteNumber":78,"Velocity":79,"Duration":224618,"SoundDuration":224618,"Delta":100533739},{"NoteNumber":71,"Velocity":79,"Duration":224618,"SoundDuration":224618,"Delta":100533739},{"NoteNumber":75,"Velocity":79,"Duration":224618,"SoundDuration":224618,"Delta":100533739},{"NoteNumber":83,"Velocity":94,"Duration":224618,"SoundDuration":224618,"Delta":100533739},{"NoteNumber":47,"Velocity":55,"Duration":224618,"SoundDuration":224618,"Delta":100533739},{"NoteNumber":54,"Velocity":55,"Duration":224618,"SoundDuration":224618,"Delta":100533739},{"NoteNumber":59,"Velocity":65,"Duration":224618,"SoundDuration":224618,"Delta":100533739},{"NoteNumber":51,"Velocity":55,"Duration":224618,"SoundDuration":224618,"Delta":100533739},{"NoteNumber":75,"Velocity":79,"Duration":112308,"SoundDuration":112308,"Delta":100982975},{"NoteNumber":83,"Velocity":94,"Duration":112308,"SoundDuration":112308,"Delta":100982975},{"NoteNumber":78,"Velocity":79,"Duration":112308,"SoundDuration":112308,"Delta":100982975},{"NoteNumber":71,"Velocity":79,"Duration":112308,"SoundDuration":112308,"Delta":100982975},{"NoteNumber":51,"Velocity":55,"Duration":112308,"SoundDuration":112308,"Delta":100982975},{"NoteNumber":54,"Velocity":55,"Duration":112308,"SoundDuration":112308,"Delta":100982975},{"NoteNumber":59,"Velocity":65,"Duration":112308,"SoundDuration":112308,"Delta":100982975},{"NoteNumber":47,"Velocity":55,"Duration":112308,"SoundDuration":112308,"Delta":100982975},{"NoteNumber":71,"Velocity":71,"Duration":110570,"SoundDuration":110570,"Delta":101132720},{"NoteNumber":83,"Velocity":84,"Duration":110570,"SoundDuration":110570,"Delta":101132720},{"NoteNumber":75,"Velocity":71,"Duration":110570,"SoundDuration":110570,"Delta":101132720},{"NoteNumber":78,"Velocity":71,"Duration":110570,"SoundDuration":110570,"Delta":101132720},{"NoteNumber":47,"Velocity":49,"Duration":110570,"SoundDuration":110570,"Delta":101132720},{"NoteNumber":54,"Velocity":49,"Duration":110570,"SoundDuration":110570,"Delta":101132720},{"NoteNumber":59,"Velocity":58,"Duration":110570,"SoundDuration":110570,"Delta":101132720},{"NoteNumber":51,"Velocity":49,"Duration":110570,"SoundDuration":110570,"Delta":101132720},{"NoteNumber":71,"Velocity":71,"Duration":113645,"SoundDuration":113645,"Delta":101280148},{"NoteNumber":83,"Velocity":84,"Duration":113645,"SoundDuration":113645,"Delta":101280148},{"NoteNumber":75,"Velocity":71,"Duration":113645,"SoundDuration":113645,"Delta":101280148},{"NoteNumber":78,"Velocity":71,"Duration":113645,"SoundDuration":113645,"Delta":101280148},{"NoteNumber":51,"Velocity":49,"Duration":113645,"SoundDuration":113645,"Delta":101280148},{"NoteNumber":54,"Velocity":49,"Duration":113645,"SoundDuration":113645,"Delta":101280148},{"NoteNumber":47,"Velocity":49,"Duration":113645,"SoundDuration":113645,"Delta":101280148},{"NoteNumber":59,"Velocity":58,"Duration":113645,"SoundDuration":113645,"Delta":101280148},{"NoteNumber":78,"Velocity":79,"Duration":224618,"SoundDuration":224618,"Delta":101431674},{"NoteNumber":83,"Velocity":94,"Duration":224618,"SoundDuration":224618,"Delta":101431674},{"NoteNumber":75,"Velocity":79,"Duration":224618,"SoundDuration":224618,"Delta":101431674},{"NoteNumber":71,"Velocity":79,"Duration":224618,"SoundDuration":224618,"Delta":101431674},{"NoteNumber":51,"Velocity":55,"Duration":224618,"SoundDuration":224618,"Delta":101431674},{"NoteNumber":54,"Velocity":55,"Duration":224618,"SoundDuration":224618,"Delta":101431674},{"NoteNumber":59,"Velocity":65,"Duration":224618,"SoundDuration":224618,"Delta":101431674},{"NoteNumber":47,"Velocity":55,"Duration":224618,"SoundDuration":224618,"Delta":101431674},{"NoteNumber":75,"Velocity":79,"Duration":110570,"SoundDuration":110570,"Delta":101880910},{"NoteNumber":71,"Velocity":79,"Duration":110570,"SoundDuration":110570,"Delta":101880910},{"NoteNumber":78,"Velocity":79,"Duration":110570,"SoundDuration":110570,"Delta":101880910},{"NoteNumber":83,"Velocity":94,"Duration":110570,"SoundDuration":110570,"Delta":101880910},{"NoteNumber":47,"Velocity":55,"Duration":110570,"SoundDuration":110570,"Delta":101880910},{"NoteNumber":54,"Velocity":55,"Duration":110570,"SoundDuration":110570,"Delta":101880910},{"NoteNumber":59,"Velocity":65,"Duration":110570,"SoundDuration":110570,"Delta":101880910},{"NoteNumber":51,"Velocity":55,"Duration":110570,"SoundDuration":110570,"Delta":101880910},{"NoteNumber":71,"Velocity":71,"Duration":110570,"SoundDuration":110570,"Delta":102028338},{"NoteNumber":83,"Velocity":84,"Duration":110570,"SoundDuration":110570,"Delta":102028338},{"NoteNumber":75,"Velocity":71,"Duration":110570,"SoundDuration":110570,"Delta":102028338},{"NoteNumber":78,"Velocity":71,"Duration":110570,"SoundDuration":110570,"Delta":102028338},{"NoteNumber":47,"Velocity":49,"Duration":110570,"SoundDuration":110570,"Delta":102028338},{"NoteNumber":51,"Velocity":49,"Duration":110570,"SoundDuration":110570,"Delta":102028338},{"NoteNumber":59,"Velocity":58,"Duration":110570,"SoundDuration":110570,"Delta":102028338},{"NoteNumber":54,"Velocity":49,"Duration":110570,"SoundDuration":110570,"Delta":102028338},{"NoteNumber":78,"Velocity":71,"Duration":113645,"SoundDuration":113645,"Delta":102175765},{"NoteNumber":83,"Velocity":84,"Duration":113645,"SoundDuration":113645,"Delta":102175765},{"NoteNumber":75,"Velocity":71,"Duration":113645,"SoundDuration":113645,"Delta":102175765},{"NoteNumber":71,"Velocity":71,"Duration":113645,"SoundDuration":113645,"Delta":102175765},{"NoteNumber":51,"Velocity":49,"Duration":113645,"SoundDuration":113645,"Delta":102175765},{"NoteNumber":54,"Velocity":49,"Duration":113645,"SoundDuration":113645,"Delta":102175765},{"NoteNumber":59,"Velocity":58,"Duration":113645,"SoundDuration":113645,"Delta":102175765},{"NoteNumber":47,"Velocity":49,"Duration":113645,"SoundDuration":113645,"Delta":102175765},{"NoteNumber":75,"Velocity":79,"Duration":225063,"SoundDuration":225063,"Delta":102327292},{"NoteNumber":71,"Velocity":79,"Duration":225063,"SoundDuration":225063,"Delta":102327292},{"NoteNumber":83,"Velocity":94,"Duration":225063,"SoundDuration":225063,"Delta":102327292},{"NoteNumber":78,"Velocity":79,"Duration":225063,"SoundDuration":225063,"Delta":102327292},{"NoteNumber":47,"Velocity":55,"Duration":225063,"SoundDuration":225063,"Delta":102327292},{"NoteNumber":51,"Velocity":55,"Duration":225063,"SoundDuration":225063,"Delta":102327292},{"NoteNumber":59,"Velocity":65,"Duration":225063,"SoundDuration":225063,"Delta":102327292},{"NoteNumber":54,"Velocity":55,"Duration":225063,"SoundDuration":225063,"Delta":102327292},{"NoteNumber":75,"Velocity":79,"Duration":111004,"SoundDuration":111004,"Delta":102776973},{"NoteNumber":83,"Velocity":94,"Duration":111004,"SoundDuration":111004,"Delta":102776973},{"NoteNumber":78,"Velocity":79,"Duration":111004,"SoundDuration":111004,"Delta":102776973},{"NoteNumber":71,"Velocity":79,"Duration":111004,"SoundDuration":111004,"Delta":102776973},{"NoteNumber":51,"Velocity":55,"Duration":111004,"SoundDuration":111004,"Delta":102776973},{"NoteNumber":54,"Velocity":55,"Duration":111004,"SoundDuration":111004,"Delta":102776973},{"NoteNumber":47,"Velocity":55,"Duration":111004,"SoundDuration":111004,"Delta":102776973},{"NoteNumber":59,"Velocity":65,"Duration":111004,"SoundDuration":111004,"Delta":102776973},{"NoteNumber":71,"Velocity":71,"Duration":111004,"SoundDuration":111004,"Delta":102924979},{"NoteNumber":83,"Velocity":84,"Duration":111004,"SoundDuration":111004,"Delta":102924979},{"NoteNumber":75,"Velocity":71,"Duration":111004,"SoundDuration":111004,"Delta":102924979},{"NoteNumber":78,"Velocity":71,"Duration":111004,"SoundDuration":111004,"Delta":102924979},{"NoteNumber":47,"Velocity":49,"Duration":111004,"SoundDuration":111004,"Delta":102924979},{"NoteNumber":51,"Velocity":49,"Duration":111004,"SoundDuration":111004,"Delta":102924979},{"NoteNumber":59,"Velocity":58,"Duration":111004,"SoundDuration":111004,"Delta":102924979},{"NoteNumber":54,"Velocity":49,"Duration":111004,"SoundDuration":111004,"Delta":102924979},{"NoteNumber":78,"Velocity":71,"Duration":113198,"SoundDuration":113198,"Delta":103072984},{"NoteNumber":71,"Velocity":71,"Duration":113198,"SoundDuration":113198,"Delta":103072984},{"NoteNumber":75,"Velocity":71,"Duration":113198,"SoundDuration":113198,"Delta":103072984},{"NoteNumber":83,"Velocity":84,"Duration":113198,"SoundDuration":113198,"Delta":103072984},{"NoteNumber":47,"Velocity":49,"Duration":113198,"SoundDuration":113198,"Delta":103072984},{"NoteNumber":54,"Velocity":49,"Duration":113198,"SoundDuration":113198,"Delta":103072984},{"NoteNumber":59,"Velocity":58,"Duration":113198,"SoundDuration":113198,"Delta":103072984},{"NoteNumber":51,"Velocity":49,"Duration":113198,"SoundDuration":113198,"Delta":103072984},{"NoteNumber":75,"Velocity":79,"Duration":224618,"SoundDuration":224618,"Delta":103223916},{"NoteNumber":83,"Velocity":94,"Duration":224618,"SoundDuration":224618,"Delta":103223916},{"NoteNumber":78,"Velocity":79,"Duration":224618,"SoundDuration":224618,"Delta":103223916},{"NoteNumber":71,"Velocity":79,"Duration":224618,"SoundDuration":224618,"Delta":103223916},{"NoteNumber":51,"Velocity":55,"Duration":224618,"SoundDuration":224618,"Delta":103223916},{"NoteNumber":54,"Velocity":55,"Duration":224618,"SoundDuration":224618,"Delta":103223916},{"NoteNumber":47,"Velocity":55,"Duration":224618,"SoundDuration":224618,"Delta":103223916},{"NoteNumber":59,"Velocity":65,"Duration":224618,"SoundDuration":224618,"Delta":103223916},{"NoteNumber":74,"Velocity":79,"Duration":148869,"SoundDuration":148869,"Delta":103673152},{"NoteNumber":86,"Velocity":94,"Duration":148869,"SoundDuration":148869,"Delta":103673152},{"NoteNumber":50,"Velocity":55,"Duration":148869,"SoundDuration":148869,"Delta":103673152},{"NoteNumber":62,"Velocity":65,"Duration":148869,"SoundDuration":148869,"Delta":103673152},{"NoteNumber":86,"Velocity":84,"Duration":148577,"SoundDuration":148577,"Delta":103822022},{"NoteNumber":74,"Velocity":71,"Duration":148577,"SoundDuration":148577,"Delta":103822022},{"NoteNumber":50,"Velocity":49,"Duration":148577,"SoundDuration":148577,"Delta":103822022},{"NoteNumber":62,"Velocity":58,"Duration":148577,"SoundDuration":148577,"Delta":103822022},{"NoteNumber":74,"Velocity":71,"Duration":151526,"SoundDuration":151526,"Delta":103970599},{"NoteNumber":86,"Velocity":84,"Duration":151526,"SoundDuration":151526,"Delta":103970599},{"NoteNumber":62,"Velocity":58,"Duration":151526,"SoundDuration":151526,"Delta":103970599},{"NoteNumber":50,"Velocity":49,"Duration":151526,"SoundDuration":151526,"Delta":103970599},{"NoteNumber":74,"Velocity":79,"Duration":224618,"SoundDuration":224618,"Delta":104122126},{"NoteNumber":86,"Velocity":94,"Duration":224618,"SoundDuration":224618,"Delta":104122126},{"NoteNumber":50,"Velocity":55,"Duration":224618,"SoundDuration":224618,"Delta":104122126},{"NoteNumber":62,"Velocity":65,"Duration":224618,"SoundDuration":224618,"Delta":104122126},{"NoteNumber":86,"Velocity":94,"Duration":148577,"SoundDuration":148577,"Delta":104571362},{"NoteNumber":74,"Velocity":79,"Duration":148577,"SoundDuration":148577,"Delta":104571362},{"NoteNumber":50,"Velocity":55,"Duration":148577,"SoundDuration":148577,"Delta":104571362},{"NoteNumber":62,"Velocity":65,"Duration":148577,"SoundDuration":148577,"Delta":104571362},{"NoteNumber":74,"Velocity":71,"Duration":148577,"SoundDuration":148577,"Delta":104719939},{"NoteNumber":86,"Velocity":84,"Duration":148577,"SoundDuration":148577,"Delta":104719939},{"NoteNumber":50,"Velocity":49,"Duration":148577,"SoundDuration":148577,"Delta":104719939},{"NoteNumber":62,"Velocity":58,"Duration":148577,"SoundDuration":148577,"Delta":104719939},{"NoteNumber":86,"Velocity":84,"Duration":152126,"SoundDuration":152126,"Delta":104868516},{"NoteNumber":74,"Velocity":71,"Duration":152126,"SoundDuration":152126,"Delta":104868516},{"NoteNumber":62,"Velocity":58,"Duration":152126,"SoundDuration":152126,"Delta":104868516},{"NoteNumber":50,"Velocity":49,"Duration":152126,"SoundDuration":152126,"Delta":104868516},{"NoteNumber":74,"Velocity":79,"Duration":224618,"SoundDuration":224618,"Delta":105020642},{"NoteNumber":86,"Velocity":94,"Duration":224618,"SoundDuration":224618,"Delta":105020642},{"NoteNumber":50,"Velocity":55,"Duration":224618,"SoundDuration":224618,"Delta":105020642},{"NoteNumber":62,"Velocity":65,"Duration":224618,"SoundDuration":224618,"Delta":105020642},{"NoteNumber":62,"Velocity":71,"Duration":149164,"SoundDuration":149164,"Delta":105469878},{"NoteNumber":74,"Velocity":84,"Duration":149164,"SoundDuration":149164,"Delta":105469878},{"NoteNumber":74,"Velocity":75,"Duration":149164,"SoundDuration":149164,"Delta":105619043},{"NoteNumber":62,"Velocity":63,"Duration":149164,"SoundDuration":149164,"Delta":105619043},{"NoteNumber":62,"Velocity":63,"Duration":151526,"SoundDuration":151526,"Delta":105768208},{"NoteNumber":74,"Velocity":75,"Duration":151526,"SoundDuration":151526,"Delta":105768208},{"NoteNumber":62,"Velocity":71,"Duration":224618,"SoundDuration":224618,"Delta":105919734},{"NoteNumber":74,"Velocity":84,"Duration":224618,"SoundDuration":224618,"Delta":105919734},{"NoteNumber":74,"Velocity":84,"Duration":149745,"SoundDuration":149745,"Delta":106368970},{"NoteNumber":62,"Velocity":71,"Duration":149745,"SoundDuration":149745,"Delta":106368970},{"NoteNumber":62,"Velocity":63,"Duration":149745,"SoundDuration":149745,"Delta":106518716},{"NoteNumber":74,"Velocity":75,"Duration":149745,"SoundDuration":149745,"Delta":106518716},{"NoteNumber":62,"Velocity":63,"Duration":151526,"SoundDuration":151526,"Delta":106668461},{"NoteNumber":74,"Velocity":75,"Duration":151526,"SoundDuration":151526,"Delta":106668461},{"NoteNumber":74,"Velocity":84,"Duration":224618,"SoundDuration":224618,"Delta":106819988},{"NoteNumber":62,"Velocity":71,"Duration":224618,"SoundDuration":224618,"Delta":106819988},{"NoteNumber":62,"Velocity":70,"Duration":151526,"SoundDuration":151526,"Delta":107269224},{"NoteNumber":74,"Velocity":78,"Duration":151526,"SoundDuration":151526,"Delta":107269224},{"NoteNumber":47,"Velocity":61,"Duration":600565,"SoundDuration":600565,"Delta":107269224},{"NoteNumber":55,"Velocity":68,"Duration":600565,"SoundDuration":600565,"Delta":107269224},{"NoteNumber":62,"Velocity":65,"Duration":151526,"SoundDuration":151526,"Delta":107420750},{"NoteNumber":74,"Velocity":73,"Duration":151526,"SoundDuration":151526,"Delta":107420750},{"NoteNumber":62,"Velocity":65,"Duration":151526,"SoundDuration":151526,"Delta":107572277},{"NoteNumber":74,"Velocity":73,"Duration":151526,"SoundDuration":151526,"Delta":107572277},{"NoteNumber":62,"Velocity":70,"Duration":597485,"SoundDuration":597485,"Delta":107723804},{"NoteNumber":74,"Velocity":78,"Duration":597485,"SoundDuration":597485,"Delta":107723804},{"NoteNumber":47,"Velocity":56,"Duration":109489,"SoundDuration":109489,"Delta":107869789},{"NoteNumber":55,"Velocity":63,"Duration":109489,"SoundDuration":109489,"Delta":107869789},{"NoteNumber":47,"Velocity":56,"Duration":115491,"SoundDuration":115491,"Delta":108015774},{"NoteNumber":55,"Velocity":63,"Duration":115491,"SoundDuration":115491,"Delta":108015774},{"NoteNumber":47,"Velocity":62,"Duration":603744,"SoundDuration":603744,"Delta":108169763},{"NoteNumber":55,"Velocity":69,"Duration":603744,"SoundDuration":603744,"Delta":108169763},{"NoteNumber":62,"Velocity":64,"Duration":113644,"SoundDuration":113644,"Delta":108321289},{"NoteNumber":74,"Velocity":72,"Duration":113644,"SoundDuration":113644,"Delta":108321289},{"NoteNumber":62,"Velocity":64,"Duration":113644,"SoundDuration":113644,"Delta":108472816},{"NoteNumber":74,"Velocity":72,"Duration":113644,"SoundDuration":113644,"Delta":108472816},{"NoteNumber":62,"Velocity":70,"Duration":597824,"SoundDuration":597824,"Delta":108624343},{"NoteNumber":74,"Velocity":78,"Duration":597824,"SoundDuration":597824,"Delta":108624343},{"NoteNumber":47,"Velocity":56,"Duration":111873,"SoundDuration":111873,"Delta":108773507},{"NoteNumber":55,"Velocity":63,"Duration":111873,"SoundDuration":111873,"Delta":108773507},{"NoteNumber":47,"Velocity":55,"Duration":111873,"SoundDuration":111873,"Delta":108922672},{"NoteNumber":55,"Velocity":62,"Duration":111873,"SoundDuration":111873,"Delta":108922672},{"NoteNumber":47,"Velocity":61,"Duration":675674,"SoundDuration":675674,"Delta":109071837},{"NoteNumber":55,"Velocity":68,"Duration":675674,"SoundDuration":675674,"Delta":109071837},{"NoteNumber":62,"Velocity":64,"Duration":111433,"SoundDuration":111433,"Delta":109222167},{"NoteNumber":74,"Velocity":72,"Duration":111433,"SoundDuration":111433,"Delta":109222167},{"NoteNumber":62,"Velocity":64,"Duration":111432,"SoundDuration":111432,"Delta":109370745},{"NoteNumber":74,"Velocity":72,"Duration":111432,"SoundDuration":111432,"Delta":109370745},{"NoteNumber":62,"Velocity":70,"Duration":697672,"SoundDuration":697672,"Delta":109519322},{"NoteNumber":74,"Velocity":78,"Duration":697672,"SoundDuration":697672,"Delta":109519322},{"NoteNumber":59,"Velocity":62,"Duration":117371,"SoundDuration":117371,"Delta":109747511},{"NoteNumber":55,"Velocity":55,"Duration":117371,"SoundDuration":117371,"Delta":109747511},{"NoteNumber":57,"Velocity":61,"Duration":117371,"SoundDuration":117371,"Delta":109982253},{"NoteNumber":60,"Velocity":68,"Duration":117371,"SoundDuration":117371,"Delta":109982253},{"NoteNumber":62,"Velocity":67,"Duration":469484,"SoundDuration":469484,"Delta":110216995},{"NoteNumber":74,"Velocity":75,"Duration":469484,"SoundDuration":469484,"Delta":110216995},{"NoteNumber":55,"Velocity":55,"Duration":117371,"SoundDuration":117371,"Delta":110216995},{"NoteNumber":59,"Velocity":62,"Duration":117371,"SoundDuration":117371,"Delta":110216995},{"NoteNumber":60,"Velocity":68,"Duration":117370,"SoundDuration":117370,"Delta":110451737},{"NoteNumber":57,"Velocity":61,"Duration":117370,"SoundDuration":117370,"Delta":110451737},{"NoteNumber":62,"Velocity":68,"Duration":117370,"SoundDuration":117370,"Delta":110686479},{"NoteNumber":74,"Velocity":76,"Duration":117370,"SoundDuration":117370,"Delta":110686479},{"NoteNumber":50,"Velocity":60,"Duration":117370,"SoundDuration":117370,"Delta":110686479},{"NoteNumber":57,"Velocity":67,"Duration":117370,"SoundDuration":117370,"Delta":110686479},{"NoteNumber":62,"Velocity":68,"Duration":597986,"SoundDuration":597986,"Delta":110921221},{"NoteNumber":59,"Velocity":61,"Duration":597986,"SoundDuration":597986,"Delta":110921221},{"NoteNumber":67,"Velocity":67,"Duration":113199,"SoundDuration":113199,"Delta":111072153},{"NoteNumber":79,"Velocity":75,"Duration":113199,"SoundDuration":113199,"Delta":111072153},{"NoteNumber":67,"Velocity":67,"Duration":113199,"SoundDuration":113199,"Delta":111223085},{"NoteNumber":79,"Velocity":75,"Duration":113199,"SoundDuration":113199,"Delta":111223085},{"NoteNumber":67,"Velocity":74,"Duration":586964,"SoundDuration":586964,"Delta":111374017},{"NoteNumber":79,"Velocity":83,"Duration":586964,"SoundDuration":586964,"Delta":111374017},{"NoteNumber":59,"Velocity":56,"Duration":108893,"SoundDuration":108893,"Delta":111519208},{"NoteNumber":62,"Velocity":63,"Duration":108893,"SoundDuration":108893,"Delta":111519208},{"NoteNumber":59,"Velocity":56,"Duration":111433,"SoundDuration":111433,"Delta":111664398},{"NoteNumber":62,"Velocity":63,"Duration":111433,"SoundDuration":111433,"Delta":111664398},{"NoteNumber":59,"Velocity":62,"Duration":588661,"SoundDuration":588661,"Delta":111812976},{"NoteNumber":62,"Velocity":69,"Duration":588661,"SoundDuration":588661,"Delta":111812976},{"NoteNumber":67,"Velocity":67,"Duration":111004,"SoundDuration":111004,"Delta":111960981},{"NoteNumber":79,"Velocity":75,"Duration":111004,"SoundDuration":111004,"Delta":111960981},{"NoteNumber":67,"Velocity":67,"Duration":111004,"SoundDuration":111004,"Delta":112108987},{"NoteNumber":79,"Velocity":75,"Duration":111004,"SoundDuration":111004,"Delta":112108987},{"NoteNumber":67,"Velocity":70,"Duration":665332,"SoundDuration":665332,"Delta":112256993},{"NoteNumber":79,"Velocity":78,"Duration":665332,"SoundDuration":665332,"Delta":112256993},{"NoteNumber":59,"Velocity":56,"Duration":109758,"SoundDuration":109758,"Delta":112401637},{"NoteNumber":62,"Velocity":63,"Duration":109758,"SoundDuration":109758,"Delta":112401637},{"NoteNumber":59,"Velocity":55,"Duration":112308,"SoundDuration":112308,"Delta":112548832},{"NoteNumber":62,"Velocity":62,"Duration":112308,"SoundDuration":112308,"Delta":112548832},{"NoteNumber":64,"Velocity":68,"Duration":111873,"SoundDuration":111873,"Delta":112698578},{"NoteNumber":60,"Velocity":61,"Duration":111873,"SoundDuration":111873,"Delta":112698578},{"NoteNumber":67,"Velocity":70,"Duration":451936,"SoundDuration":451936,"Delta":112922325},{"NoteNumber":79,"Velocity":78,"Duration":451936,"SoundDuration":451936,"Delta":112922325},{"NoteNumber":59,"Velocity":54,"Duration":111873,"SoundDuration":111873,"Delta":112922325},{"NoteNumber":62,"Velocity":61,"Duration":111873,"SoundDuration":111873,"Delta":112922325},{"NoteNumber":57,"Velocity":58,"Duration":114094,"SoundDuration":114094,"Delta":113146072},{"NoteNumber":60,"Velocity":65,"Duration":114094,"SoundDuration":114094,"Delta":113146072},{"NoteNumber":67,"Velocity":68,"Duration":117371,"SoundDuration":117371,"Delta":113374261},{"NoteNumber":79,"Velocity":76,"Duration":117371,"SoundDuration":117371,"Delta":113374261},{"NoteNumber":55,"Velocity":53,"Duration":117371,"SoundDuration":117371,"Delta":113374261},{"NoteNumber":59,"Velocity":59,"Duration":117371,"SoundDuration":117371,"Delta":113374261},{"NoteNumber":74,"Velocity":87,"Duration":117371,"SoundDuration":117371,"Delta":113609003},{"NoteNumber":78,"Velocity":87,"Duration":117371,"SoundDuration":117371,"Delta":113609003},{"NoteNumber":86,"Velocity":97,"Duration":117371,"SoundDuration":117371,"Delta":113609003},{"NoteNumber":50,"Velocity":71,"Duration":117371,"SoundDuration":117371,"Delta":113609003},{"NoteNumber":57,"Velocity":79,"Duration":117371,"SoundDuration":117371,"Delta":113609003},{"NoteNumber":74,"Velocity":79,"Duration":117371,"SoundDuration":117371,"Delta":113843745},{"NoteNumber":79,"Velocity":79,"Duration":117371,"SoundDuration":117371,"Delta":113843745},{"NoteNumber":86,"Velocity":88,"Duration":117371,"SoundDuration":117371,"Delta":113843745},{"NoteNumber":55,"Velocity":66,"Duration":117371,"SoundDuration":117371,"Delta":113843745},{"NoteNumber":59,"Velocity":74,"Duration":117371,"SoundDuration":117371,"Delta":113843745},{"NoteNumber":74,"Velocity":84,"Duration":234741,"SoundDuration":234741,"Delta":114078487},{"NoteNumber":78,"Velocity":84,"Duration":234741,"SoundDuration":234741,"Delta":114078487},{"NoteNumber":86,"Velocity":94,"Duration":234741,"SoundDuration":234741,"Delta":114078487},{"NoteNumber":50,"Velocity":71,"Duration":234741,"SoundDuration":234741,"Delta":114078487},{"NoteNumber":57,"Velocity":79,"Duration":234741,"SoundDuration":234741,"Delta":114078487},{"NoteNumber":59,"Velocity":72,"Duration":606470,"SoundDuration":606470,"Delta":114547971},{"NoteNumber":67,"Velocity":80,"Duration":606470,"SoundDuration":606470,"Delta":114547971},{"NoteNumber":63,"Velocity":72,"Duration":869224,"SoundDuration":869224,"Delta":115015552},{"NoteNumber":51,"Velocity":64,"Duration":869224,"SoundDuration":869224,"Delta":115015552},{"NoteNumber":59,"Velocity":67,"Duration":104166,"SoundDuration":104166,"Delta":115154441},{"NoteNumber":67,"Velocity":75,"Duration":104166,"SoundDuration":104166,"Delta":115154441},{"NoteNumber":59,"Velocity":67,"Duration":111873,"SoundDuration":111873,"Delta":115293330},{"NoteNumber":67,"Velocity":75,"Duration":111873,"SoundDuration":111873,"Delta":115293330},{"NoteNumber":59,"Velocity":72,"Duration":582142,"SoundDuration":582142,"Delta":115442494},{"NoteNumber":67,"Velocity":81,"Duration":582142,"SoundDuration":582142,"Delta":115442494},{"NoteNumber":50,"Velocity":63,"Duration":419579,"SoundDuration":419579,"Delta":115884776},{"NoteNumber":62,"Velocity":70,"Duration":419579,"SoundDuration":419579,"Delta":115884776},{"NoteNumber":59,"Velocity":67,"Duration":104894,"SoundDuration":104894,"Delta":116024636},{"NoteNumber":67,"Velocity":75,"Duration":104894,"SoundDuration":104894,"Delta":116024636},{"NoteNumber":59,"Velocity":66,"Duration":104894,"SoundDuration":104894,"Delta":116164496},{"NoteNumber":67,"Velocity":74,"Duration":104894,"SoundDuration":104894,"Delta":116164496},{"NoteNumber":59,"Velocity":72,"Duration":673892,"SoundDuration":673892,"Delta":116304356},{"NoteNumber":67,"Velocity":80,"Duration":673892,"SoundDuration":673892,"Delta":116304356},{"NoteNumber":51,"Velocity":64,"Duration":912847,"SoundDuration":912847,"Delta":116751850},{"NoteNumber":63,"Velocity":72,"Duration":912847,"SoundDuration":912847,"Delta":116751850},{"NoteNumber":71,"Velocity":74,"Duration":115013,"SoundDuration":115013,"Delta":116978248},{"NoteNumber":67,"Velocity":66,"Duration":115013,"SoundDuration":115013,"Delta":116978248},{"NoteNumber":69,"Velocity":72,"Duration":113198,"SoundDuration":113198,"Delta":117208274},{"NoteNumber":72,"Velocity":80,"Duration":113198,"SoundDuration":113198,"Delta":117208274},{"NoteNumber":67,"Velocity":66,"Duration":115013,"SoundDuration":115013,"Delta":117434672},{"NoteNumber":71,"Velocity":74,"Duration":115013,"SoundDuration":115013,"Delta":117434672},{"NoteNumber":72,"Velocity":80,"Duration":113198,"SoundDuration":113198,"Delta":117664698},{"NoteNumber":69,"Velocity":72,"Duration":113198,"SoundDuration":113198,"Delta":117664698},{"NoteNumber":50,"Velocity":62,"Duration":452796,"SoundDuration":452796,"Delta":117664698},{"NoteNumber":62,"Velocity":69,"Duration":452796,"SoundDuration":452796,"Delta":117664698},{"NoteNumber":62,"Velocity":71,"Duration":113198,"SoundDuration":113198,"Delta":117891096},{"NoteNumber":69,"Velocity":79,"Duration":113198,"SoundDuration":113198,"Delta":117891096},{"NoteNumber":74,"Velocity":80,"Duration":597597,"SoundDuration":597597,"Delta":118117494},{"NoteNumber":71,"Velocity":72,"Duration":597597,"SoundDuration":597597,"Delta":118117494},{"NoteNumber":67,"Velocity":68,"Duration":427322,"SoundDuration":427322,"Delta":118575719},{"NoteNumber":55,"Velocity":61,"Duration":427322,"SoundDuration":427322,"Delta":118575719},{"NoteNumber":71,"Velocity":67,"Duration":104529,"SoundDuration":104529,"Delta":118715092},{"NoteNumber":74,"Velocity":75,"Duration":104529,"SoundDuration":104529,"Delta":118715092},{"NoteNumber":71,"Velocity":67,"Duration":111433,"SoundDuration":111433,"Delta":118854465},{"NoteNumber":74,"Velocity":75,"Duration":111433,"SoundDuration":111433,"Delta":118854465},{"NoteNumber":71,"Velocity":72,"Duration":577573,"SoundDuration":577573,"Delta":119003042},{"NoteNumber":74,"Velocity":81,"Duration":577573,"SoundDuration":577573,"Delta":119003042},{"NoteNumber":66,"Velocity":72,"Duration":437222,"SoundDuration":437222,"Delta":119003042},{"NoteNumber":54,"Velocity":64,"Duration":437222,"SoundDuration":437222,"Delta":119003042},{"NoteNumber":65,"Velocity":69,"Duration":435144,"SoundDuration":435144,"Delta":119440264},{"NoteNumber":53,"Velocity":62,"Duration":435144,"SoundDuration":435144,"Delta":119440264},{"NoteNumber":71,"Velocity":67,"Duration":107611,"SoundDuration":107611,"Delta":119580615},{"NoteNumber":74,"Velocity":75,"Duration":107611,"SoundDuration":107611,"Delta":119580615},{"NoteNumber":71,"Velocity":66,"Duration":112308,"SoundDuration":112308,"Delta":119725663},{"NoteNumber":74,"Velocity":74,"Duration":112308,"SoundDuration":112308,"Delta":119725663},{"NoteNumber":76,"Velocity":80,"Duration":111873,"SoundDuration":111873,"Delta":119875409},{"NoteNumber":72,"Velocity":72,"Duration":111873,"SoundDuration":111873,"Delta":119875409},{"NoteNumber":52,"Velocity":64,"Duration":675683,"SoundDuration":675683,"Delta":119875409},{"NoteNumber":64,"Velocity":72,"Duration":675683,"SoundDuration":675683,"Delta":119875409},{"NoteNumber":71,"Velocity":69,"Duration":111873,"SoundDuration":111873,"Delta":120099156},{"NoteNumber":74,"Velocity":77,"Duration":111873,"SoundDuration":111873,"Delta":120099156},{"NoteNumber":69,"Velocity":69,"Duration":114094,"SoundDuration":114094,"Delta":120322903},{"NoteNumber":72,"Velocity":77,"Duration":114094,"SoundDuration":114094,"Delta":120322903},{"NoteNumber":64,"Velocity":67,"Duration":117371,"SoundDuration":117371,"Delta":120551092},{"NoteNumber":68,"Velocity":75,"Duration":117371,"SoundDuration":117371,"Delta":120551092},{"NoteNumber":71,"Velocity":75,"Duration":117371,"SoundDuration":117371,"Delta":120551092},{"NoteNumber":50,"Velocity":54,"Duration":117371,"SoundDuration":117371,"Delta":120551092},{"NoteNumber":52,"Velocity":54,"Duration":117371,"SoundDuration":117371,"Delta":120551092},{"NoteNumber":62,"Velocity":60,"Duration":117371,"SoundDuration":117371,"Delta":120551092},{"NoteNumber":64,"Velocity":73,"Duration":115946,"SoundDuration":115946,"Delta":120785834},{"NoteNumber":69,"Velocity":82,"Duration":115946,"SoundDuration":115946,"Delta":120785834},{"NoteNumber":52,"Velocity":59,"Duration":115946,"SoundDuration":115946,"Delta":120785834},{"NoteNumber":48,"Velocity":59,"Duration":115946,"SoundDuration":115946,"Delta":120785834},{"NoteNumber":60,"Velocity":66,"Duration":115946,"SoundDuration":115946,"Delta":120785834},{"NoteNumber":64,"Velocity":69,"Duration":117859,"SoundDuration":117859,"Delta":121017727},{"NoteNumber":68,"Velocity":69,"Duration":117859,"SoundDuration":117859,"Delta":121017727},{"NoteNumber":71,"Velocity":77,"Duration":117859,"SoundDuration":117859,"Delta":121017727},{"NoteNumber":47,"Velocity":51,"Duration":117859,"SoundDuration":117859,"Delta":121017727},{"NoteNumber":52,"Velocity":51,"Duration":117859,"SoundDuration":117859,"Delta":121017727},{"NoteNumber":59,"Velocity":57,"Duration":117859,"SoundDuration":117859,"Delta":121017727},{"NoteNumber":64,"Velocity":67,"Duration":116414,"SoundDuration":116414,"Delta":121253446},{"NoteNumber":69,"Velocity":73,"Duration":116414,"SoundDuration":116414,"Delta":121253446},{"NoteNumber":72,"Velocity":82,"Duration":116414,"SoundDuration":116414,"Delta":121253446},{"NoteNumber":45,"Velocity":54,"Duration":116414,"SoundDuration":116414,"Delta":121253446},{"NoteNumber":52,"Velocity":54,"Duration":116414,"SoundDuration":116414,"Delta":121253446},{"NoteNumber":57,"Velocity":60,"Duration":116414,"SoundDuration":116414,"Delta":121253446},{"NoteNumber":43,"Velocity":49,"Duration":117371,"SoundDuration":117371,"Delta":121486275},{"NoteNumber":55,"Velocity":55,"Duration":117371,"SoundDuration":117371,"Delta":121486275},{"NoteNumber":74,"Velocity":64,"Duration":112241,"SoundDuration":112241,"Delta":121721017},{"NoteNumber":78,"Velocity":72,"Duration":112241,"SoundDuration":112241,"Delta":121721017},{"NoteNumber":42,"Velocity":54,"Duration":112241,"SoundDuration":112241,"Delta":121721017},{"NoteNumber":54,"Velocity":60,"Duration":112241,"SoundDuration":112241,"Delta":121721017},{"NoteNumber":73,"Velocity":59,"Duration":115004,"SoundDuration":115004,"Delta":121945501},{"NoteNumber":76,"Velocity":66,"Duration":115004,"SoundDuration":115004,"Delta":121945501},{"NoteNumber":71,"Velocity":63,"Duration":113147,"SoundDuration":113147,"Delta":122175509},{"NoteNumber":74,"Velocity":71,"Duration":113147,"SoundDuration":113147,"Delta":122175509},{"NoteNumber":66,"Velocity":60,"Duration":115004,"SoundDuration":115004,"Delta":122401805},{"NoteNumber":70,"Velocity":67,"Duration":115004,"SoundDuration":115004,"Delta":122401805},{"NoteNumber":73,"Velocity":67,"Duration":115004,"SoundDuration":115004,"Delta":122401805},{"NoteNumber":52,"Velocity":51,"Duration":115004,"SoundDuration":115004,"Delta":122401805},{"NoteNumber":64,"Velocity":57,"Duration":115004,"SoundDuration":115004,"Delta":122401805},{"NoteNumber":66,"Velocity":62,"Duration":114068,"SoundDuration":114068,"Delta":122631813},{"NoteNumber":71,"Velocity":69,"Duration":114068,"SoundDuration":114068,"Delta":122631813},{"NoteNumber":50,"Velocity":54,"Duration":114068,"SoundDuration":114068,"Delta":122631813},{"NoteNumber":62,"Velocity":60,"Duration":114068,"SoundDuration":114068,"Delta":122631813},{"NoteNumber":66,"Velocity":57,"Duration":115491,"SoundDuration":115491,"Delta":122859950},{"NoteNumber":70,"Velocity":64,"Duration":115491,"SoundDuration":115491,"Delta":122859950},{"NoteNumber":73,"Velocity":64,"Duration":115491,"SoundDuration":115491,"Delta":122859950},{"NoteNumber":49,"Velocity":50,"Duration":115491,"SoundDuration":115491,"Delta":122859950},{"NoteNumber":61,"Velocity":56,"Duration":115491,"SoundDuration":115491,"Delta":122859950},{"NoteNumber":66,"Velocity":60,"Duration":114068,"SoundDuration":114068,"Delta":123090933},{"NoteNumber":71,"Velocity":67,"Duration":114068,"SoundDuration":114068,"Delta":123090933},{"NoteNumber":74,"Velocity":67,"Duration":114068,"SoundDuration":114068,"Delta":123090933},{"NoteNumber":47,"Velocity":53,"Duration":114068,"SoundDuration":114068,"Delta":123090933},{"NoteNumber":59,"Velocity":59,"Duration":114068,"SoundDuration":114068,"Delta":123090933},{"NoteNumber":45,"Velocity":50,"Duration":115004,"SoundDuration":115004,"Delta":123319070},{"NoteNumber":57,"Velocity":56,"Duration":115004,"SoundDuration":115004,"Delta":123319070},{"NoteNumber":76,"Velocity":64,"Duration":111004,"SoundDuration":111004,"Delta":123549078},{"NoteNumber":80,"Velocity":72,"Duration":111004,"SoundDuration":111004,"Delta":123549078},{"NoteNumber":44,"Velocity":54,"Duration":111004,"SoundDuration":111004,"Delta":123549078},{"NoteNumber":56,"Velocity":60,"Duration":111004,"SoundDuration":111004,"Delta":123549078},{"NoteNumber":75,"Velocity":59,"Duration":113198,"SoundDuration":113198,"Delta":123771087},{"NoteNumber":78,"Velocity":66,"Duration":113198,"SoundDuration":113198,"Delta":123771087},{"NoteNumber":73,"Velocity":63,"Duration":111873,"SoundDuration":111873,"Delta":123997485},{"NoteNumber":76,"Velocity":71,"Duration":111873,"SoundDuration":111873,"Delta":123997485},{"NoteNumber":68,"Velocity":60,"Duration":113645,"SoundDuration":113645,"Delta":124221232},{"NoteNumber":72,"Velocity":67,"Duration":113645,"SoundDuration":113645,"Delta":124221232},{"NoteNumber":75,"Velocity":67,"Duration":113645,"SoundDuration":113645,"Delta":124221232},{"NoteNumber":54,"Velocity":51,"Duration":113645,"SoundDuration":113645,"Delta":124221232},{"NoteNumber":66,"Velocity":57,"Duration":113645,"SoundDuration":113645,"Delta":124221232},{"NoteNumber":68,"Velocity":62,"Duration":111433,"SoundDuration":111433,"Delta":124448522},{"NoteNumber":73,"Velocity":69,"Duration":111433,"SoundDuration":111433,"Delta":124448522},{"NoteNumber":56,"Velocity":54,"Duration":111433,"SoundDuration":111433,"Delta":124448522},{"NoteNumber":52,"Velocity":54,"Duration":111433,"SoundDuration":111433,"Delta":124448522},{"NoteNumber":64,"Velocity":60,"Duration":111433,"SoundDuration":111433,"Delta":124448522},{"NoteNumber":68,"Velocity":57,"Duration":113198,"SoundDuration":113198,"Delta":124671388},{"NoteNumber":72,"Velocity":64,"Duration":113198,"SoundDuration":113198,"Delta":124671388},{"NoteNumber":75,"Velocity":64,"Duration":113198,"SoundDuration":113198,"Delta":124671388},{"NoteNumber":56,"Velocity":51,"Duration":113198,"SoundDuration":113198,"Delta":124671388},{"NoteNumber":51,"Velocity":50,"Duration":113198,"SoundDuration":113198,"Delta":124671388},{"NoteNumber":63,"Velocity":56,"Duration":113198,"SoundDuration":113198,"Delta":124671388},{"NoteNumber":68,"Velocity":60,"Duration":112747,"SoundDuration":112747,"Delta":124897786},{"NoteNumber":73,"Velocity":67,"Duration":112747,"SoundDuration":112747,"Delta":124897786},{"NoteNumber":76,"Velocity":67,"Duration":112747,"SoundDuration":112747,"Delta":124897786},{"NoteNumber":56,"Velocity":53,"Duration":112747,"SoundDuration":112747,"Delta":124897786},{"NoteNumber":49,"Velocity":53,"Duration":112747,"SoundDuration":112747,"Delta":124897786},{"NoteNumber":61,"Velocity":59,"Duration":112747,"SoundDuration":112747,"Delta":124897786},{"NoteNumber":47,"Velocity":50,"Duration":115004,"SoundDuration":115004,"Delta":125123282},{"NoteNumber":59,"Velocity":56,"Duration":115004,"SoundDuration":115004,"Delta":125123282},{"NoteNumber":78,"Velocity":54,"Duration":222865,"SoundDuration":222865,"Delta":125353290},{"NoteNumber":81,"Velocity":61,"Duration":222865,"SoundDuration":222865,"Delta":125353290},{"NoteNumber":45,"Velocity":54,"Duration":445732,"SoundDuration":445732,"Delta":125353290},{"NoteNumber":57,"Velocity":60,"Duration":445732,"SoundDuration":445732,"Delta":125353290},{"NoteNumber":76,"Velocity":49,"Duration":222866,"SoundDuration":222866,"Delta":125576156},{"NoteNumber":79,"Velocity":55,"Duration":222866,"SoundDuration":222866,"Delta":125576156},{"NoteNumber":74,"Velocity":54,"Duration":219458,"SoundDuration":219458,"Delta":125799022},{"NoteNumber":78,"Velocity":60,"Duration":219458,"SoundDuration":219458,"Delta":125799022},{"NoteNumber":47,"Velocity":50,"Duration":437244,"SoundDuration":437244,"Delta":125799022},{"NoteNumber":59,"Velocity":56,"Duration":437244,"SoundDuration":437244,"Delta":125799022},{"NoteNumber":57,"Velocity":56,"Duration":437244,"SoundDuration":437244,"Delta":125799022},{"NoteNumber":69,"Velocity":50,"Duration":217786,"SoundDuration":217786,"Delta":126018481},{"NoteNumber":76,"Velocity":56,"Duration":217786,"SoundDuration":217786,"Delta":126018481},{"NoteNumber":78,"Velocity":54,"Duration":221141,"SoundDuration":221141,"Delta":126236267},{"NoteNumber":81,"Velocity":61,"Duration":221141,"SoundDuration":221141,"Delta":126236267},{"NoteNumber":57,"Velocity":60,"Duration":660893,"SoundDuration":660893,"Delta":126236267},{"NoteNumber":48,"Velocity":54,"Duration":660893,"SoundDuration":660893,"Delta":126236267},{"NoteNumber":60,"Velocity":60,"Duration":660893,"SoundDuration":660893,"Delta":126236267},{"NoteNumber":76,"Velocity":49,"Duration":221141,"SoundDuration":221141,"Delta":126457408},{"NoteNumber":79,"Velocity":55,"Duration":221141,"SoundDuration":221141,"Delta":126457408},{"NoteNumber":74,"Velocity":54,"Duration":218610,"SoundDuration":218610,"Delta":126678549},{"NoteNumber":78,"Velocity":60,"Duration":218610,"SoundDuration":218610,"Delta":126678549},{"NoteNumber":69,"Velocity":52,"Duration":222865,"SoundDuration":222865,"Delta":126897160},{"NoteNumber":76,"Velocity":58,"Duration":222865,"SoundDuration":222865,"Delta":126897160},{"NoteNumber":49,"Velocity":51,"Duration":222865,"SoundDuration":222865,"Delta":126897160},{"NoteNumber":57,"Velocity":57,"Duration":222865,"SoundDuration":222865,"Delta":126897160},{"NoteNumber":61,"Velocity":57,"Duration":222865,"SoundDuration":222865,"Delta":126897160},{"NoteNumber":78,"Velocity":55,"Duration":217786,"SoundDuration":217786,"Delta":127120026},{"NoteNumber":81,"Velocity":62,"Duration":217786,"SoundDuration":217786,"Delta":127120026},{"NoteNumber":45,"Velocity":55,"Duration":438082,"SoundDuration":438082,"Delta":127120026},{"NoteNumber":57,"Velocity":62,"Duration":438082,"SoundDuration":438082,"Delta":127120026},{"NoteNumber":76,"Velocity":51,"Duration":220296,"SoundDuration":220296,"Delta":127337812},{"NoteNumber":79,"Velocity":57,"Duration":220296,"SoundDuration":220296,"Delta":127337812},{"NoteNumber":74,"Velocity":56,"Duration":220296,"SoundDuration":220296,"Delta":127558108},{"NoteNumber":78,"Velocity":63,"Duration":220296,"SoundDuration":220296,"Delta":127558108},{"NoteNumber":47,"Velocity":52,"Duration":444043,"SoundDuration":444043,"Delta":127558108},{"NoteNumber":59,"Velocity":58,"Duration":444043,"SoundDuration":444043,"Delta":127558108},{"NoteNumber":57,"Velocity":58,"Duration":444043,"SoundDuration":444043,"Delta":127558108},{"NoteNumber":69,"Velocity":53,"Duration":223746,"SoundDuration":223746,"Delta":127778405},{"NoteNumber":76,"Velocity":59,"Duration":223746,"SoundDuration":223746,"Delta":127778405},{"NoteNumber":78,"Velocity":56,"Duration":216967,"SoundDuration":216967,"Delta":128002152},{"NoteNumber":81,"Velocity":63,"Duration":216967,"SoundDuration":216967,"Delta":128002152},{"NoteNumber":57,"Velocity":62,"Duration":657560,"SoundDuration":657560,"Delta":128002152},{"NoteNumber":48,"Velocity":55,"Duration":657560,"SoundDuration":657560,"Delta":128002152},{"NoteNumber":60,"Velocity":62,"Duration":657560,"SoundDuration":657560,"Delta":128002152},{"NoteNumber":76,"Velocity":53,"Duration":220296,"SoundDuration":220296,"Delta":128219119},{"NoteNumber":79,"Velocity":59,"Duration":220296,"SoundDuration":220296,"Delta":128219119},{"NoteNumber":74,"Velocity":56,"Duration":220296,"SoundDuration":220296,"Delta":128439415},{"NoteNumber":78,"Velocity":63,"Duration":220296,"SoundDuration":220296,"Delta":128439415},{"NoteNumber":69,"Velocity":54,"Duration":223747,"SoundDuration":223747,"Delta":128659712},{"NoteNumber":76,"Velocity":61,"Duration":223747,"SoundDuration":223747,"Delta":128659712},{"NoteNumber":49,"Velocity":54,"Duration":223747,"SoundDuration":223747,"Delta":128659712},{"NoteNumber":57,"Velocity":60,"Duration":223747,"SoundDuration":223747,"Delta":128659712},{"NoteNumber":61,"Velocity":60,"Duration":223747,"SoundDuration":223747,"Delta":128659712},{"NoteNumber":83,"Velocity":62,"Duration":216138,"SoundDuration":216138,"Delta":128883459},{"NoteNumber":86,"Velocity":69,"Duration":216138,"SoundDuration":216138,"Delta":128883459},{"NoteNumber":50,"Velocity":62,"Duration":432276,"SoundDuration":432276,"Delta":128883459},{"NoteNumber":62,"Velocity":69,"Duration":432276,"SoundDuration":432276,"Delta":128883459},{"NoteNumber":81,"Velocity":56,"Duration":216138,"SoundDuration":216138,"Delta":129099597},{"NoteNumber":84,"Velocity":63,"Duration":216138,"SoundDuration":216138,"Delta":129099597},{"NoteNumber":79,"Velocity":61,"Duration":220296,"SoundDuration":220296,"Delta":129315736},{"NoteNumber":83,"Velocity":68,"Duration":220296,"SoundDuration":220296,"Delta":129315736},{"NoteNumber":52,"Velocity":56,"Duration":444914,"SoundDuration":444914,"Delta":129315736},{"NoteNumber":64,"Velocity":63,"Duration":444914,"SoundDuration":444914,"Delta":129315736},{"NoteNumber":62,"Velocity":63,"Duration":444914,"SoundDuration":444914,"Delta":129315736},{"NoteNumber":74,"Velocity":56,"Duration":224617,"SoundDuration":224617,"Delta":129536032},{"NoteNumber":81,"Velocity":63,"Duration":224617,"SoundDuration":224617,"Delta":129536032},{"NoteNumber":83,"Velocity":63,"Duration":215331,"SoundDuration":215331,"Delta":129760650},{"NoteNumber":86,"Velocity":71,"Duration":215331,"SoundDuration":215331,"Delta":129760650},{"NoteNumber":62,"Velocity":69,"Duration":648448,"SoundDuration":648448,"Delta":129760650},{"NoteNumber":53,"Velocity":62,"Duration":648448,"SoundDuration":648448,"Delta":129760650},{"NoteNumber":65,"Velocity":69,"Duration":648448,"SoundDuration":648448,"Delta":129760650},{"NoteNumber":81,"Velocity":57,"Duration":215331,"SoundDuration":215331,"Delta":129975982},{"NoteNumber":84,"Velocity":64,"Duration":215331,"SoundDuration":215331,"Delta":129975982},{"NoteNumber":79,"Velocity":62,"Duration":217785,"SoundDuration":217785,"Delta":130191313},{"NoteNumber":83,"Velocity":69,"Duration":217785,"SoundDuration":217785,"Delta":130191313},{"NoteNumber":74,"Velocity":59,"Duration":222866,"SoundDuration":222866,"Delta":130409099},{"NoteNumber":81,"Velocity":66,"Duration":222866,"SoundDuration":222866,"Delta":130409099},{"NoteNumber":54,"Velocity":58,"Duration":222866,"SoundDuration":222866,"Delta":130409099},{"NoteNumber":62,"Velocity":65,"Duration":222866,"SoundDuration":222866,"Delta":130409099},{"NoteNumber":66,"Velocity":65,"Duration":222866,"SoundDuration":222866,"Delta":130409099},{"NoteNumber":83,"Velocity":64,"Duration":214515,"SoundDuration":214515,"Delta":130631965},{"NoteNumber":86,"Velocity":72,"Duration":214515,"SoundDuration":214515,"Delta":130631965},{"NoteNumber":50,"Velocity":63,"Duration":429031,"SoundDuration":429031,"Delta":130631965},{"NoteNumber":62,"Velocity":71,"Duration":429031,"SoundDuration":429031,"Delta":130631965},{"NoteNumber":81,"Velocity":58,"Duration":214515,"SoundDuration":214515,"Delta":130846481},{"NoteNumber":84,"Velocity":65,"Duration":214515,"SoundDuration":214515,"Delta":130846481},{"NoteNumber":79,"Velocity":63,"Duration":218611,"SoundDuration":218611,"Delta":131060996},{"NoteNumber":83,"Velocity":71,"Duration":218611,"SoundDuration":218611,"Delta":131060996},{"NoteNumber":52,"Velocity":59,"Duration":433942,"SoundDuration":433942,"Delta":131060996},{"NoteNumber":64,"Velocity":66,"Duration":433942,"SoundDuration":433942,"Delta":131060996},{"NoteNumber":62,"Velocity":66,"Duration":433942,"SoundDuration":433942,"Delta":131060996},{"NoteNumber":74,"Velocity":61,"Duration":215331,"SoundDuration":215331,"Delta":131279607},{"NoteNumber":81,"Velocity":68,"Duration":215331,"SoundDuration":215331,"Delta":131279607},{"NoteNumber":83,"Velocity":65,"Duration":216138,"SoundDuration":216138,"Delta":131494939},{"NoteNumber":86,"Velocity":73,"Duration":216138,"SoundDuration":216138,"Delta":131494939},{"NoteNumber":62,"Velocity":73,"Duration":653360,"SoundDuration":653360,"Delta":131494939},{"NoteNumber":53,"Velocity":65,"Duration":653360,"SoundDuration":653360,"Delta":131494939},{"NoteNumber":65,"Velocity":73,"Duration":653360,"SoundDuration":653360,"Delta":131494939},{"NoteNumber":81,"Velocity":61,"Duration":218611,"SoundDuration":218611,"Delta":131711077},{"NoteNumber":84,"Velocity":68,"Duration":218611,"SoundDuration":218611,"Delta":131711077},{"NoteNumber":79,"Velocity":64,"Duration":218610,"SoundDuration":218610,"Delta":131929688},{"NoteNumber":83,"Velocity":72,"Duration":218610,"SoundDuration":218610,"Delta":131929688},{"NoteNumber":74,"Velocity":70,"Duration":226397,"SoundDuration":226397,"Delta":132148299},{"NoteNumber":81,"Velocity":70,"Duration":226397,"SoundDuration":226397,"Delta":132148299},{"NoteNumber":54,"Velocity":61,"Duration":226397,"SoundDuration":226397,"Delta":132148299},{"NoteNumber":62,"Velocity":68,"Duration":226397,"SoundDuration":226397,"Delta":132148299},{"NoteNumber":66,"Velocity":68,"Duration":226397,"SoundDuration":226397,"Delta":132148299},{"NoteNumber":67,"Velocity":82,"Duration":607932,"SoundDuration":607932,"Delta":132374697},{"NoteNumber":71,"Velocity":82,"Duration":607932,"SoundDuration":607932,"Delta":132374697},{"NoteNumber":79,"Velocity":92,"Duration":607932,"SoundDuration":607932,"Delta":132374697},{"NoteNumber":55,"Velocity":79,"Duration":467580,"SoundDuration":467580,"Delta":132374697},{"NoteNumber":55,"Velocity":71,"Duration":867088,"SoundDuration":867088,"Delta":132842278},{"NoteNumber":65,"Velocity":79,"Duration":867088,"SoundDuration":867088,"Delta":132842278},{"NoteNumber":53,"Velocity":71,"Duration":867088,"SoundDuration":867088,"Delta":132842278},{"NoteNumber":67,"Velocity":77,"Duration":105263,"SoundDuration":105263,"Delta":132982629},{"NoteNumber":71,"Velocity":77,"Duration":105263,"SoundDuration":105263,"Delta":132982629},{"NoteNumber":79,"Velocity":86,"Duration":105263,"SoundDuration":105263,"Delta":132982629},{"NoteNumber":67,"Velocity":77,"Duration":111873,"SoundDuration":111873,"Delta":133122980},{"NoteNumber":71,"Velocity":77,"Duration":111873,"SoundDuration":111873,"Delta":133122980},{"NoteNumber":79,"Velocity":86,"Duration":111873,"SoundDuration":111873,"Delta":133122980},{"NoteNumber":67,"Velocity":83,"Duration":577081,"SoundDuration":577081,"Delta":133272145},{"NoteNumber":71,"Velocity":83,"Duration":577081,"SoundDuration":577081,"Delta":133272145},{"NoteNumber":79,"Velocity":93,"Duration":577081,"SoundDuration":577081,"Delta":133272145},{"NoteNumber":55,"Velocity":69,"Duration":867074,"SoundDuration":867074,"Delta":133709367},{"NoteNumber":52,"Velocity":69,"Duration":867074,"SoundDuration":867074,"Delta":133709367},{"NoteNumber":64,"Velocity":77,"Duration":867074,"SoundDuration":867074,"Delta":133709367},{"NoteNumber":67,"Velocity":77,"Duration":104894,"SoundDuration":104894,"Delta":133849227},{"NoteNumber":71,"Velocity":77,"Duration":104894,"SoundDuration":104894,"Delta":133849227},{"NoteNumber":79,"Velocity":86,"Duration":104894,"SoundDuration":104894,"Delta":133849227},{"NoteNumber":67,"Velocity":76,"Duration":104894,"SoundDuration":104894,"Delta":133989087},{"NoteNumber":71,"Velocity":76,"Duration":104894,"SoundDuration":104894,"Delta":133989087},{"NoteNumber":79,"Velocity":85,"Duration":104894,"SoundDuration":104894,"Delta":133989087},{"NoteNumber":67,"Velocity":82,"Duration":661017,"SoundDuration":661017,"Delta":134128947},{"NoteNumber":71,"Velocity":82,"Duration":661017,"SoundDuration":661017,"Delta":134128947},{"NoteNumber":79,"Velocity":92,"Duration":661017,"SoundDuration":661017,"Delta":134128947},{"NoteNumber":55,"Velocity":71,"Duration":879136,"SoundDuration":879136,"Delta":134576441},{"NoteNumber":51,"Velocity":71,"Duration":879136,"SoundDuration":879136,"Delta":134576441},{"NoteNumber":63,"Velocity":79,"Duration":879136,"SoundDuration":879136,"Delta":134576441},{"NoteNumber":71,"Velocity":73,"Duration":225495,"SoundDuration":225495,"Delta":134789964},{"NoteNumber":83,"Velocity":82,"Duration":225495,"SoundDuration":225495,"Delta":134789964},{"NoteNumber":79,"Velocity":82,"Duration":225495,"SoundDuration":225495,"Delta":134789964},{"NoteNumber":72,"Velocity":78,"Duration":215054,"SoundDuration":215054,"Delta":135015460},{"NoteNumber":81,"Velocity":87,"Duration":215054,"SoundDuration":215054,"Delta":135015460},{"NoteNumber":84,"Velocity":87,"Duration":215054,"SoundDuration":215054,"Delta":135015460},{"NoteNumber":71,"Velocity":76,"Duration":225063,"SoundDuration":225063,"Delta":135230514},{"NoteNumber":79,"Velocity":85,"Duration":225063,"SoundDuration":225063,"Delta":135230514},{"NoteNumber":83,"Velocity":85,"Duration":225063,"SoundDuration":225063,"Delta":135230514},{"NoteNumber":72,"Velocity":78,"Duration":221140,"SoundDuration":221140,"Delta":135455577},{"NoteNumber":84,"Velocity":87,"Duration":221140,"SoundDuration":221140,"Delta":135455577},{"NoteNumber":81,"Velocity":87,"Duration":221140,"SoundDuration":221140,"Delta":135455577},{"NoteNumber":54,"Velocity":67,"Duration":448430,"SoundDuration":448430,"Delta":135455577},{"NoteNumber":50,"Velocity":67,"Duration":448430,"SoundDuration":448430,"Delta":135455577},{"NoteNumber":62,"Velocity":75,"Duration":448430,"SoundDuration":448430,"Delta":135455577},{"NoteNumber":69,"Velocity":72,"Duration":227290,"SoundDuration":227290,"Delta":135676718},{"NoteNumber":74,"Velocity":81,"Duration":227290,"SoundDuration":227290,"Delta":135676718},{"NoteNumber":81,"Velocity":81,"Duration":227290,"SoundDuration":227290,"Delta":135676718},{"NoteNumber":74,"Velocity":90,"Duration":598084,"SoundDuration":598084,"Delta":135904008},{"NoteNumber":86,"Velocity":101,"Duration":598084,"SoundDuration":598084,"Delta":135904008},{"NoteNumber":83,"Velocity":101,"Duration":598084,"SoundDuration":598084,"Delta":135904008},{"NoteNumber":38,"Velocity":66,"Duration":458224,"SoundDuration":458224,"Delta":135904008},{"NoteNumber":50,"Velocity":74,"Duration":458224,"SoundDuration":458224,"Delta":135904008},{"NoteNumber":50,"Velocity":74,"Duration":428297,"SoundDuration":428297,"Delta":136362233},{"NoteNumber":52,"Velocity":74,"Duration":428297,"SoundDuration":428297,"Delta":136362233},{"NoteNumber":40,"Velocity":66,"Duration":428297,"SoundDuration":428297,"Delta":136362233},{"NoteNumber":74,"Velocity":84,"Duration":104894,"SoundDuration":104894,"Delta":136502093},{"NoteNumber":83,"Velocity":94,"Duration":104894,"SoundDuration":104894,"Delta":136502093},{"NoteNumber":86,"Velocity":94,"Duration":104894,"SoundDuration":104894,"Delta":136502093},{"NoteNumber":74,"Velocity":84,"Duration":111433,"SoundDuration":111433,"Delta":136641953},{"NoteNumber":83,"Velocity":94,"Duration":111433,"SoundDuration":111433,"Delta":136641953},{"NoteNumber":86,"Velocity":94,"Duration":111433,"SoundDuration":111433,"Delta":136641953},{"NoteNumber":74,"Velocity":91,"Duration":577573,"SoundDuration":577573,"Delta":136790530},{"NoteNumber":83,"Velocity":102,"Duration":577573,"SoundDuration":577573,"Delta":136790530},{"NoteNumber":86,"Velocity":102,"Duration":577573,"SoundDuration":577573,"Delta":136790530},{"NoteNumber":50,"Velocity":79,"Duration":437221,"SoundDuration":437221,"Delta":136790530},{"NoteNumber":54,"Velocity":79,"Duration":437221,"SoundDuration":437221,"Delta":136790530},{"NoteNumber":42,"Velocity":71,"Duration":437221,"SoundDuration":437221,"Delta":136790530},{"NoteNumber":50,"Velocity":75,"Duration":435144,"SoundDuration":435144,"Delta":137227752},{"NoteNumber":55,"Velocity":75,"Duration":435144,"SoundDuration":435144,"Delta":137227752},{"NoteNumber":43,"Velocity":67,"Duration":435144,"SoundDuration":435144,"Delta":137227752},{"NoteNumber":74,"Velocity":84,"Duration":107611,"SoundDuration":107611,"Delta":137368103},{"NoteNumber":83,"Velocity":94,"Duration":107611,"SoundDuration":107611,"Delta":137368103},{"NoteNumber":86,"Velocity":94,"Duration":107611,"SoundDuration":107611,"Delta":137368103},{"NoteNumber":74,"Velocity":83,"Duration":112309,"SoundDuration":112309,"Delta":137513152},{"NoteNumber":83,"Velocity":93,"Duration":112309,"SoundDuration":112309,"Delta":137513152},{"NoteNumber":86,"Velocity":93,"Duration":112309,"SoundDuration":112309,"Delta":137513152},{"NoteNumber":76,"Velocity":83,"Duration":111873,"SoundDuration":111873,"Delta":137662897},{"NoteNumber":88,"Velocity":93,"Duration":111873,"SoundDuration":111873,"Delta":137662897},{"NoteNumber":84,"Velocity":93,"Duration":111873,"SoundDuration":111873,"Delta":137662897},{"NoteNumber":74,"Velocity":77,"Duration":111873,"SoundDuration":111873,"Delta":137886644},{"NoteNumber":83,"Velocity":86,"Duration":111873,"SoundDuration":111873,"Delta":137886644},{"NoteNumber":86,"Velocity":86,"Duration":111873,"SoundDuration":111873,"Delta":137886644},{"NoteNumber":43,"Velocity":64,"Duration":111873,"SoundDuration":111873,"Delta":137886644},{"NoteNumber":50,"Velocity":64,"Duration":111873,"SoundDuration":111873,"Delta":137886644},{"NoteNumber":55,"Velocity":72,"Duration":111873,"SoundDuration":111873,"Delta":137886644},{"NoteNumber":72,"Velocity":81,"Duration":114094,"SoundDuration":114094,"Delta":138110391},{"NoteNumber":81,"Velocity":91,"Duration":114094,"SoundDuration":114094,"Delta":138110391},{"NoteNumber":84,"Velocity":91,"Duration":114094,"SoundDuration":114094,"Delta":138110391},{"NoteNumber":45,"Velocity":66,"Duration":114094,"SoundDuration":114094,"Delta":138110391},{"NoteNumber":50,"Velocity":66,"Duration":114094,"SoundDuration":114094,"Delta":138110391},{"NoteNumber":57,"Velocity":74,"Duration":114094,"SoundDuration":114094,"Delta":138110391},{"NoteNumber":71,"Velocity":76,"Duration":117370,"SoundDuration":117370,"Delta":138338580},{"NoteNumber":74,"Velocity":85,"Duration":117370,"SoundDuration":117370,"Delta":138338580},{"NoteNumber":79,"Velocity":85,"Duration":117370,"SoundDuration":117370,"Delta":138338580},{"NoteNumber":83,"Velocity":85,"Duration":117370,"SoundDuration":117370,"Delta":138338580},{"NoteNumber":47,"Velocity":59,"Duration":117370,"SoundDuration":117370,"Delta":138338580},{"NoteNumber":50,"Velocity":59,"Duration":117370,"SoundDuration":117370,"Delta":138338580},{"NoteNumber":59,"Velocity":66,"Duration":117370,"SoundDuration":117370,"Delta":138338580},{"NoteNumber":69,"Velocity":84,"Duration":117370,"SoundDuration":117370,"Delta":138573322},{"NoteNumber":74,"Velocity":84,"Duration":117370,"SoundDuration":117370,"Delta":138573322},{"NoteNumber":78,"Velocity":94,"Duration":117370,"SoundDuration":117370,"Delta":138573322},{"NoteNumber":81,"Velocity":94,"Duration":117370,"SoundDuration":117370,"Delta":138573322},{"NoteNumber":54,"Velocity":70,"Duration":117370,"SoundDuration":117370,"Delta":138573322},{"NoteNumber":57,"Velocity":78,"Duration":117370,"SoundDuration":117370,"Delta":138573322},{"NoteNumber":50,"Velocity":70,"Duration":117370,"SoundDuration":117370,"Delta":138573322},{"NoteNumber":62,"Velocity":78,"Duration":117370,"SoundDuration":117370,"Delta":138573322},{"NoteNumber":71,"Velocity":80,"Duration":117371,"SoundDuration":117371,"Delta":138808064},{"NoteNumber":74,"Velocity":80,"Duration":117371,"SoundDuration":117371,"Delta":138808064},{"NoteNumber":79,"Velocity":89,"Duration":117371,"SoundDuration":117371,"Delta":138808064},{"NoteNumber":83,"Velocity":89,"Duration":117371,"SoundDuration":117371,"Delta":138808064},{"NoteNumber":55,"Velocity":65,"Duration":117371,"SoundDuration":117371,"Delta":138808064},{"NoteNumber":59,"Velocity":73,"Duration":117371,"SoundDuration":117371,"Delta":138808064},{"NoteNumber":62,"Velocity":73,"Duration":117371,"SoundDuration":117371,"Delta":138808064},{"NoteNumber":69,"Velocity":77,"Duration":117370,"SoundDuration":117370,"Delta":139042806},{"NoteNumber":74,"Velocity":77,"Duration":117370,"SoundDuration":117370,"Delta":139042806},{"NoteNumber":78,"Velocity":94,"Duration":117370,"SoundDuration":117370,"Delta":139042806},{"NoteNumber":81,"Velocity":94,"Duration":117370,"SoundDuration":117370,"Delta":139042806},{"NoteNumber":54,"Velocity":68,"Duration":117370,"SoundDuration":117370,"Delta":139042806},{"NoteNumber":50,"Velocity":68,"Duration":117370,"SoundDuration":117370,"Delta":139042806},{"NoteNumber":57,"Velocity":76,"Duration":117370,"SoundDuration":117370,"Delta":139042806},{"NoteNumber":62,"Velocity":76,"Duration":117370,"SoundDuration":117370,"Delta":139042806},{"NoteNumber":67,"Velocity":82,"Duration":609424,"SoundDuration":609424,"Delta":139512290},{"NoteNumber":71,"Velocity":82,"Duration":609424,"SoundDuration":609424,"Delta":139512290},{"NoteNumber":79,"Velocity":92,"Duration":609424,"SoundDuration":609424,"Delta":139512290},{"NoteNumber":55,"Velocity":79,"Duration":467580,"SoundDuration":467580,"Delta":139512290},{"NoteNumber":55,"Velocity":71,"Duration":870074,"SoundDuration":870074,"Delta":139979871},{"NoteNumber":65,"Velocity":79,"Duration":870074,"SoundDuration":870074,"Delta":139979871},{"NoteNumber":53,"Velocity":71,"Duration":870074,"SoundDuration":870074,"Delta":139979871},{"NoteNumber":67,"Velocity":77,"Duration":106383,"SoundDuration":106383,"Delta":140121715},{"NoteNumber":71,"Velocity":77,"Duration":106383,"SoundDuration":106383,"Delta":140121715},{"NoteNumber":79,"Velocity":86,"Duration":106383,"SoundDuration":106383,"Delta":140121715},{"NoteNumber":67,"Velocity":77,"Duration":111873,"SoundDuration":111873,"Delta":140263559},{"NoteNumber":71,"Velocity":77,"Duration":111873,"SoundDuration":111873,"Delta":140263559},{"NoteNumber":79,"Velocity":86,"Duration":111873,"SoundDuration":111873,"Delta":140263559},{"NoteNumber":67,"Velocity":83,"Duration":579065,"SoundDuration":579065,"Delta":140412724},{"NoteNumber":71,"Velocity":83,"Duration":579065,"SoundDuration":579065,"Delta":140412724},{"NoteNumber":79,"Velocity":93,"Duration":579065,"SoundDuration":579065,"Delta":140412724},{"NoteNumber":55,"Velocity":69,"Duration":873026,"SoundDuration":873026,"Delta":140849946},{"NoteNumber":52,"Velocity":69,"Duration":873026,"SoundDuration":873026,"Delta":140849946},{"NoteNumber":64,"Velocity":77,"Duration":873026,"SoundDuration":873026,"Delta":140849946},{"NoteNumber":67,"Velocity":77,"Duration":106383,"SoundDuration":106383,"Delta":140991790},{"NoteNumber":71,"Velocity":77,"Duration":106383,"SoundDuration":106383,"Delta":140991790},{"NoteNumber":79,"Velocity":86,"Duration":106383,"SoundDuration":106383,"Delta":140991790},{"NoteNumber":67,"Velocity":76,"Duration":106382,"SoundDuration":106382,"Delta":141133634},{"NoteNumber":71,"Velocity":76,"Duration":106382,"SoundDuration":106382,"Delta":141133634},{"NoteNumber":79,"Velocity":85,"Duration":106382,"SoundDuration":106382,"Delta":141133634},{"NoteNumber":67,"Velocity":82,"Duration":661017,"SoundDuration":661017,"Delta":141275478},{"NoteNumber":71,"Velocity":82,"Duration":661017,"SoundDuration":661017,"Delta":141275478},{"NoteNumber":79,"Velocity":92,"Duration":661017,"SoundDuration":661017,"Delta":141275478},{"NoteNumber":55,"Velocity":71,"Duration":438141,"SoundDuration":438141,"Delta":141722972},{"NoteNumber":51,"Velocity":71,"Duration":438141,"SoundDuration":438141,"Delta":141722972},{"NoteNumber":63,"Velocity":79,"Duration":438141,"SoundDuration":438141,"Delta":141722972},{"NoteNumber":71,"Velocity":73,"Duration":224617,"SoundDuration":224617,"Delta":141936495},{"NoteNumber":83,"Velocity":82,"Duration":224617,"SoundDuration":224617,"Delta":141936495},{"NoteNumber":79,"Velocity":82,"Duration":224617,"SoundDuration":224617,"Delta":141936495},{"NoteNumber":72,"Velocity":78,"Duration":215054,"SoundDuration":215054,"Delta":142161113},{"NoteNumber":81,"Velocity":87,"Duration":215054,"SoundDuration":215054,"Delta":142161113},{"NoteNumber":84,"Velocity":87,"Duration":215054,"SoundDuration":215054,"Delta":142161113},{"NoteNumber":50,"Velocity":67,"Duration":659130,"SoundDuration":659130,"Delta":142161113},{"NoteNumber":54,"Velocity":67,"Duration":659130,"SoundDuration":659130,"Delta":142161113},{"NoteNumber":62,"Velocity":75,"Duration":659130,"SoundDuration":659130,"Delta":142161113},{"NoteNumber":71,"Velocity":76,"Duration":224617,"SoundDuration":224617,"Delta":142376167},{"NoteNumber":80,"Velocity":85,"Duration":224617,"SoundDuration":224617,"Delta":142376167},{"NoteNumber":83,"Velocity":85,"Duration":224617,"SoundDuration":224617,"Delta":142376167},{"NoteNumber":72,"Velocity":78,"Duration":109729,"SoundDuration":109729,"Delta":142600785},{"NoteNumber":84,"Velocity":87,"Duration":109729,"SoundDuration":109729,"Delta":142600785},{"NoteNumber":81,"Velocity":87,"Duration":109729,"SoundDuration":109729,"Delta":142600785},{"NoteNumber":69,"Velocity":72,"Duration":112309,"SoundDuration":112309,"Delta":142820243},{"NoteNumber":74,"Velocity":81,"Duration":112309,"SoundDuration":112309,"Delta":142820243},{"NoteNumber":81,"Velocity":81,"Duration":112309,"SoundDuration":112309,"Delta":142820243},{"NoteNumber":48,"Velocity":61,"Duration":112309,"SoundDuration":112309,"Delta":142820243},{"NoteNumber":54,"Velocity":61,"Duration":112309,"SoundDuration":112309,"Delta":142820243},{"NoteNumber":60,"Velocity":68,"Duration":112309,"SoundDuration":112309,"Delta":142820243},{"NoteNumber":74,"Velocity":82,"Duration":664461,"SoundDuration":664461,"Delta":143044861},{"NoteNumber":79,"Velocity":87,"Duration":886469,"SoundDuration":886469,"Delta":143044861},{"NoteNumber":86,"Velocity":96,"Duration":664461,"SoundDuration":664461,"Delta":143044861},{"NoteNumber":47,"Velocity":64,"Duration":223747,"SoundDuration":223747,"Delta":143044861},{"NoteNumber":50,"Velocity":64,"Duration":223747,"SoundDuration":223747,"Delta":143044861},{"NoteNumber":55,"Velocity":72,"Duration":223747,"SoundDuration":223747,"Delta":143044861},{"NoteNumber":59,"Velocity":72,"Duration":223747,"SoundDuration":223747,"Delta":143044861},{"NoteNumber":48,"Velocity":60,"Duration":223747,"SoundDuration":223747,"Delta":143268608},{"NoteNumber":60,"Velocity":67,"Duration":223747,"SoundDuration":223747,"Delta":143268608},{"NoteNumber":47,"Velocity":64,"Duration":216967,"SoundDuration":216967,"Delta":143492355},{"NoteNumber":59,"Velocity":72,"Duration":216967,"SoundDuration":216967,"Delta":143492355},{"NoteNumber":72,"Velocity":73,"Duration":222008,"SoundDuration":222008,"Delta":143709322},{"NoteNumber":84,"Velocity":82,"Duration":222008,"SoundDuration":222008,"Delta":143709322},{"NoteNumber":45,"Velocity":60,"Duration":222008,"SoundDuration":222008,"Delta":143709322},{"NoteNumber":57,"Velocity":67,"Duration":222008,"SoundDuration":222008,"Delta":143709322},{"NoteNumber":71,"Velocity":78,"Duration":219458,"SoundDuration":219458,"Delta":143931331},{"NoteNumber":79,"Velocity":87,"Duration":219458,"SoundDuration":219458,"Delta":143931331},{"NoteNumber":83,"Velocity":87,"Duration":219458,"SoundDuration":219458,"Delta":143931331},{"NoteNumber":43,"Velocity":63,"Duration":661816,"SoundDuration":661816,"Delta":143931331},{"NoteNumber":55,"Velocity":71,"Duration":661816,"SoundDuration":661816,"Delta":143931331},{"NoteNumber":50,"Velocity":71,"Duration":885563,"SoundDuration":885563,"Delta":143931331},{"NoteNumber":72,"Velocity":76,"Duration":223747,"SoundDuration":223747,"Delta":144150789},{"NoteNumber":81,"Velocity":85,"Duration":223747,"SoundDuration":223747,"Delta":144150789},{"NoteNumber":84,"Velocity":85,"Duration":223747,"SoundDuration":223747,"Delta":144150789},{"NoteNumber":74,"Velocity":78,"Duration":109305,"SoundDuration":109305,"Delta":144374536},{"NoteNumber":86,"Velocity":87,"Duration":109305,"SoundDuration":109305,"Delta":144374536},{"NoteNumber":83,"Velocity":87,"Duration":109305,"SoundDuration":109305,"Delta":144374536},{"NoteNumber":71,"Velocity":72,"Duration":111873,"SoundDuration":111873,"Delta":144593147},{"NoteNumber":79,"Velocity":81,"Duration":111873,"SoundDuration":111873,"Delta":144593147},{"NoteNumber":83,"Velocity":81,"Duration":111873,"SoundDuration":111873,"Delta":144593147},{"NoteNumber":41,"Velocity":60,"Duration":111873,"SoundDuration":111873,"Delta":144593147},{"NoteNumber":53,"Velocity":67,"Duration":111873,"SoundDuration":111873,"Delta":144593147},{"NoteNumber":79,"Velocity":82,"Duration":666105,"SoundDuration":666105,"Delta":144816894},{"NoteNumber":84,"Velocity":87,"Duration":666105,"SoundDuration":666105,"Delta":144816894},{"NoteNumber":91,"Velocity":96,"Duration":666105,"SoundDuration":666105,"Delta":144816894},{"NoteNumber":40,"Velocity":64,"Duration":111873,"SoundDuration":111873,"Delta":144816894},{"NoteNumber":52,"Velocity":72,"Duration":111873,"SoundDuration":111873,"Delta":144816894},{"NoteNumber":42,"Velocity":60,"Duration":111873,"SoundDuration":111873,"Delta":145040641},{"NoteNumber":54,"Velocity":67,"Duration":111873,"SoundDuration":111873,"Delta":145040641},{"NoteNumber":40,"Velocity":64,"Duration":109305,"SoundDuration":109305,"Delta":145264388},{"NoteNumber":52,"Velocity":72,"Duration":109305,"SoundDuration":109305,"Delta":145264388},{"NoteNumber":84,"Velocity":69,"Duration":109938,"SoundDuration":109938,"Delta":145482999},{"NoteNumber":78,"Velocity":69,"Duration":109938,"SoundDuration":109938,"Delta":145482999},{"NoteNumber":90,"Velocity":77,"Duration":109938,"SoundDuration":109938,"Delta":145482999},{"NoteNumber":38,"Velocity":63,"Duration":109938,"SoundDuration":109938,"Delta":145482999},{"NoteNumber":50,"Velocity":70,"Duration":109938,"SoundDuration":109938,"Delta":145482999},{"NoteNumber":76,"Velocity":74,"Duration":107805,"SoundDuration":107805,"Delta":145702876},{"NoteNumber":84,"Velocity":82,"Duration":107805,"SoundDuration":107805,"Delta":145702876},{"NoteNumber":88,"Velocity":82,"Duration":107805,"SoundDuration":107805,"Delta":145702876},{"NoteNumber":36,"Velocity":66,"Duration":652835,"SoundDuration":652835,"Delta":145702876},{"NoteNumber":48,"Velocity":74,"Duration":652835,"SoundDuration":652835,"Delta":145702876},{"NoteNumber":78,"Velocity":72,"Duration":110807,"SoundDuration":110807,"Delta":145918486},{"NoteNumber":86,"Velocity":80,"Duration":110807,"SoundDuration":110807,"Delta":145918486},{"NoteNumber":90,"Velocity":80,"Duration":110807,"SoundDuration":110807,"Delta":145918486},{"NoteNumber":76,"Velocity":74,"Duration":107805,"SoundDuration":107805,"Delta":146140101},{"NoteNumber":88,"Velocity":82,"Duration":107805,"SoundDuration":107805,"Delta":146140101},{"NoteNumber":84,"Velocity":82,"Duration":107805,"SoundDuration":107805,"Delta":146140101},{"NoteNumber":74,"Velocity":68,"Duration":110807,"SoundDuration":110807,"Delta":146355711},{"NoteNumber":83,"Velocity":76,"Duration":110807,"SoundDuration":110807,"Delta":146355711},{"NoteNumber":86,"Velocity":76,"Duration":110807,"SoundDuration":110807,"Delta":146355711},{"NoteNumber":38,"Velocity":65,"Duration":110807,"SoundDuration":110807,"Delta":146355711},{"NoteNumber":50,"Velocity":65,"Duration":110807,"SoundDuration":110807,"Delta":146355711},{"NoteNumber":72,"Velocity":73,"Duration":109074,"SoundDuration":109074,"Delta":146577326},{"NoteNumber":81,"Velocity":81,"Duration":109074,"SoundDuration":109074,"Delta":146577326},{"NoteNumber":84,"Velocity":81,"Duration":109074,"SoundDuration":109074,"Delta":146577326},{"NoteNumber":39,"Velocity":70,"Duration":649458,"SoundDuration":649458,"Delta":146577326},{"NoteNumber":51,"Velocity":70,"Duration":649458,"SoundDuration":649458,"Delta":146577326},{"NoteNumber":83,"Velocity":74,"Duration":109074,"SoundDuration":109074,"Delta":146795476},{"NoteNumber":86,"Velocity":74,"Duration":109074,"SoundDuration":109074,"Delta":146795476},{"NoteNumber":74,"Velocity":66,"Duration":109074,"SoundDuration":109074,"Delta":146795476},{"NoteNumber":72,"Velocity":71,"Duration":106579,"SoundDuration":106579,"Delta":147013626},{"NoteNumber":81,"Velocity":79,"Duration":106579,"SoundDuration":106579,"Delta":147013626},{"NoteNumber":84,"Velocity":79,"Duration":106579,"SoundDuration":106579,"Delta":147013626},{"NoteNumber":79,"Velocity":72,"Duration":109938,"SoundDuration":109938,"Delta":147226785},{"NoteNumber":71,"Velocity":64,"Duration":109938,"SoundDuration":109938,"Delta":147226785},{"NoteNumber":83,"Velocity":72,"Duration":109938,"SoundDuration":109938,"Delta":147226785},{"NoteNumber":40,"Velocity":64,"Duration":109938,"SoundDuration":109938,"Delta":147226785},{"NoteNumber":52,"Velocity":64,"Duration":109938,"SoundDuration":109938,"Delta":147226785},{"NoteNumber":69,"Velocity":69,"Duration":107805,"SoundDuration":107805,"Delta":147446662},{"NoteNumber":78,"Velocity":77,"Duration":107805,"SoundDuration":107805,"Delta":147446662},{"NoteNumber":81,"Velocity":77,"Duration":107805,"SoundDuration":107805,"Delta":147446662},{"NoteNumber":42,"Velocity":71,"Duration":652835,"SoundDuration":652835,"Delta":147446662},{"NoteNumber":54,"Velocity":71,"Duration":652835,"SoundDuration":652835,"Delta":147446662},{"NoteNumber":71,"Velocity":66,"Duration":110807,"SoundDuration":110807,"Delta":147662272},{"NoteNumber":79,"Velocity":74,"Duration":110807,"SoundDuration":110807,"Delta":147662272},{"NoteNumber":83,"Velocity":74,"Duration":110807,"SoundDuration":110807,"Delta":147662272},{"NoteNumber":69,"Velocity":69,"Duration":107805,"SoundDuration":107805,"Delta":147883887},{"NoteNumber":81,"Velocity":77,"Duration":107805,"SoundDuration":107805,"Delta":147883887},{"NoteNumber":78,"Velocity":77,"Duration":107805,"SoundDuration":107805,"Delta":147883887},{"NoteNumber":67,"Velocity":65,"Duration":110807,"SoundDuration":110807,"Delta":148099497},{"NoteNumber":76,"Velocity":73,"Duration":110807,"SoundDuration":110807,"Delta":148099497},{"NoteNumber":79,"Velocity":73,"Duration":110807,"SoundDuration":110807,"Delta":148099497},{"NoteNumber":43,"Velocity":65,"Duration":110807,"SoundDuration":110807,"Delta":148099497},{"NoteNumber":55,"Velocity":65,"Duration":110807,"SoundDuration":110807,"Delta":148099497},{"NoteNumber":66,"Velocity":73,"Duration":109074,"SoundDuration":109074,"Delta":148321112},{"NoteNumber":74,"Velocity":81,"Duration":109074,"SoundDuration":109074,"Delta":148321112},{"NoteNumber":78,"Velocity":81,"Duration":109074,"SoundDuration":109074,"Delta":148321112},{"NoteNumber":45,"Velocity":70,"Duration":649458,"SoundDuration":649458,"Delta":148321112},{"NoteNumber":57,"Velocity":70,"Duration":649458,"SoundDuration":649458,"Delta":148321112},{"NoteNumber":76,"Velocity":74,"Duration":109074,"SoundDuration":109074,"Delta":148539262},{"NoteNumber":79,"Velocity":74,"Duration":109074,"SoundDuration":109074,"Delta":148539262},{"NoteNumber":67,"Velocity":66,"Duration":109074,"SoundDuration":109074,"Delta":148539262},{"NoteNumber":66,"Velocity":71,"Duration":106579,"SoundDuration":106579,"Delta":148757412},{"NoteNumber":74,"Velocity":79,"Duration":106579,"SoundDuration":106579,"Delta":148757412},{"NoteNumber":78,"Velocity":79,"Duration":106579,"SoundDuration":106579,"Delta":148757412},{"NoteNumber":72,"Velocity":72,"Duration":109938,"SoundDuration":109938,"Delta":148970571},{"NoteNumber":64,"Velocity":64,"Duration":109938,"SoundDuration":109938,"Delta":148970571},{"NoteNumber":76,"Velocity":72,"Duration":109938,"SoundDuration":109938,"Delta":148970571},{"NoteNumber":46,"Velocity":64,"Duration":109938,"SoundDuration":109938,"Delta":148970571},{"NoteNumber":58,"Velocity":64,"Duration":109938,"SoundDuration":109938,"Delta":148970571},{"NoteNumber":62,"Velocity":65,"Duration":107805,"SoundDuration":107805,"Delta":149190448},{"NoteNumber":71,"Velocity":73,"Duration":107805,"SoundDuration":107805,"Delta":149190448},{"NoteNumber":74,"Velocity":73,"Duration":107805,"SoundDuration":107805,"Delta":149190448},{"NoteNumber":47,"Velocity":67,"Duration":652835,"SoundDuration":652835,"Delta":149190448},{"NoteNumber":59,"Velocity":67,"Duration":652835,"SoundDuration":652835,"Delta":149190448},{"NoteNumber":64,"Velocity":62,"Duration":110807,"SoundDuration":110807,"Delta":149406058},{"NoteNumber":76,"Velocity":70,"Duration":110807,"SoundDuration":110807,"Delta":149406058},{"NoteNumber":72,"Velocity":70,"Duration":110807,"SoundDuration":110807,"Delta":149406058},{"NoteNumber":62,"Velocity":65,"Duration":107805,"SoundDuration":107805,"Delta":149627673},{"NoteNumber":74,"Velocity":73,"Duration":107805,"SoundDuration":107805,"Delta":149627673},{"NoteNumber":71,"Velocity":73,"Duration":107805,"SoundDuration":107805,"Delta":149627673},{"NoteNumber":64,"Velocity":61,"Duration":110807,"SoundDuration":110807,"Delta":149843283},{"NoteNumber":69,"Velocity":69,"Duration":110807,"SoundDuration":110807,"Delta":149843283},{"NoteNumber":72,"Velocity":69,"Duration":110807,"SoundDuration":110807,"Delta":149843283},{"NoteNumber":48,"Velocity":60,"Duration":110807,"SoundDuration":110807,"Delta":149843283},{"NoteNumber":60,"Velocity":60,"Duration":110807,"SoundDuration":110807,"Delta":149843283},{"NoteNumber":67,"Velocity":65,"Duration":609929,"SoundDuration":609929,"Delta":150064898},{"NoteNumber":71,"Velocity":73,"Duration":609929,"SoundDuration":609929,"Delta":150064898},{"NoteNumber":50,"Velocity":63,"Duration":467580,"SoundDuration":467580,"Delta":150064898},{"NoteNumber":62,"Velocity":63,"Duration":467580,"SoundDuration":467580,"Delta":150064898},{"NoteNumber":51,"Velocity":56,"Duration":433862,"SoundDuration":433862,"Delta":150532479},{"NoteNumber":63,"Velocity":63,"Duration":433862,"SoundDuration":433862,"Delta":150532479},{"NoteNumber":59,"Velocity":61,"Duration":106761,"SoundDuration":106761,"Delta":150674828},{"NoteNumber":67,"Velocity":61,"Duration":106761,"SoundDuration":106761,"Delta":150674828},{"NoteNumber":71,"Velocity":68,"Duration":106761,"SoundDuration":106761,"Delta":150674828},{"NoteNumber":59,"Velocity":61,"Duration":111873,"SoundDuration":111873,"Delta":150817176},{"NoteNumber":67,"Velocity":61,"Duration":111873,"SoundDuration":111873,"Delta":150817176},{"NoteNumber":71,"Velocity":68,"Duration":111873,"SoundDuration":111873,"Delta":150817176},{"NoteNumber":59,"Velocity":62,"Duration":579065,"SoundDuration":579065,"Delta":150966341},{"NoteNumber":67,"Velocity":62,"Duration":579065,"SoundDuration":579065,"Delta":150966341},{"NoteNumber":71,"Velocity":70,"Duration":579065,"SoundDuration":579065,"Delta":150966341},{"NoteNumber":50,"Velocity":63,"Duration":437221,"SoundDuration":437221,"Delta":150966341},{"NoteNumber":62,"Velocity":63,"Duration":437221,"SoundDuration":437221,"Delta":150966341},{"NoteNumber":51,"Velocity":55,"Duration":425532,"SoundDuration":425532,"Delta":151403563},{"NoteNumber":63,"Velocity":61,"Duration":425532,"SoundDuration":425532,"Delta":151403563},{"NoteNumber":59,"Velocity":61,"Duration":106383,"SoundDuration":106383,"Delta":151545407},{"NoteNumber":67,"Velocity":61,"Duration":106383,"SoundDuration":106383,"Delta":151545407},{"NoteNumber":71,"Velocity":68,"Duration":106383,"SoundDuration":106383,"Delta":151545407},{"NoteNumber":59,"Velocity":60,"Duration":106382,"SoundDuration":106382,"Delta":151687251},{"NoteNumber":67,"Velocity":60,"Duration":106382,"SoundDuration":106382,"Delta":151687251},{"NoteNumber":71,"Velocity":68,"Duration":106382,"SoundDuration":106382,"Delta":151687251},{"NoteNumber":59,"Velocity":61,"Duration":447494,"SoundDuration":447494,"Delta":151829095},{"NoteNumber":67,"Velocity":61,"Duration":447494,"SoundDuration":447494,"Delta":151829095},{"NoteNumber":71,"Velocity":69,"Duration":447494,"SoundDuration":447494,"Delta":151829095},{"NoteNumber":50,"Velocity":63,"Duration":447494,"SoundDuration":447494,"Delta":151829095},{"NoteNumber":62,"Velocity":63,"Duration":447494,"SoundDuration":447494,"Delta":151829095},{"NoteNumber":47,"Velocity":56,"Duration":441585,"SoundDuration":441585,"Delta":152276589},{"NoteNumber":59,"Velocity":63,"Duration":441585,"SoundDuration":441585,"Delta":152276589},{"NoteNumber":62,"Velocity":58,"Duration":224617,"SoundDuration":224617,"Delta":152493556},{"NoteNumber":74,"Velocity":65,"Duration":224617,"SoundDuration":224617,"Delta":152493556},{"NoteNumber":67,"Velocity":65,"Duration":224617,"SoundDuration":224617,"Delta":152493556},{"NoteNumber":67,"Velocity":62,"Duration":216967,"SoundDuration":216967,"Delta":152718174},{"NoteNumber":64,"Velocity":62,"Duration":216967,"SoundDuration":216967,"Delta":152718174},{"NoteNumber":73,"Velocity":69,"Duration":216967,"SoundDuration":216967,"Delta":152718174},{"NoteNumber":76,"Velocity":69,"Duration":216967,"SoundDuration":216967,"Delta":152718174},{"NoteNumber":46,"Velocity":53,"Duration":438107,"SoundDuration":438107,"Delta":152718174},{"NoteNumber":58,"Velocity":60,"Duration":438107,"SoundDuration":438107,"Delta":152718174},{"NoteNumber":62,"Velocity":60,"Duration":221140,"SoundDuration":221140,"Delta":152935141},{"NoteNumber":74,"Velocity":68,"Duration":221140,"SoundDuration":221140,"Delta":152935141},{"NoteNumber":64,"Velocity":62,"Duration":216967,"SoundDuration":216967,"Delta":153156282},{"NoteNumber":76,"Velocity":69,"Duration":216967,"SoundDuration":216967,"Delta":153156282},{"NoteNumber":72,"Velocity":69,"Duration":216967,"SoundDuration":216967,"Delta":153156282},{"NoteNumber":45,"Velocity":48,"Duration":441585,"SoundDuration":441585,"Delta":153156282},{"NoteNumber":57,"Velocity":54,"Duration":441585,"SoundDuration":441585,"Delta":153156282},{"NoteNumber":66,"Velocity":57,"Duration":224617,"SoundDuration":224617,"Delta":153373249},{"NoteNumber":78,"Velocity":64,"Duration":224617,"SoundDuration":224617,"Delta":153373249},{"NoteNumber":67,"Velocity":62,"Duration":224618,"SoundDuration":224618,"Delta":153597867},{"NoteNumber":71,"Velocity":62,"Duration":224618,"SoundDuration":224618,"Delta":153597867},{"NoteNumber":79,"Velocity":69,"Duration":224618,"SoundDuration":224618,"Delta":153597867},{"NoteNumber":43,"Velocity":54,"Duration":224618,"SoundDuration":224618,"Delta":153597867},{"NoteNumber":55,"Velocity":60,"Duration":224618,"SoundDuration":224618,"Delta":153597867},{"NoteNumber":51,"Velocity":58,"Duration":435903,"SoundDuration":435903,"Delta":154047103},{"NoteNumber":63,"Velocity":66,"Duration":435903,"SoundDuration":435903,"Delta":154047103},{"NoteNumber":71,"Velocity":67,"Duration":107527,"SoundDuration":107527,"Delta":154190472},{"NoteNumber":79,"Velocity":67,"Duration":107527,"SoundDuration":107527,"Delta":154190472},{"NoteNumber":83,"Velocity":74,"Duration":107527,"SoundDuration":107527,"Delta":154190472},{"NoteNumber":71,"Velocity":67,"Duration":111873,"SoundDuration":111873,"Delta":154333842},{"NoteNumber":79,"Velocity":67,"Duration":111873,"SoundDuration":111873,"Delta":154333842},{"NoteNumber":83,"Velocity":74,"Duration":111873,"SoundDuration":111873,"Delta":154333842},{"NoteNumber":71,"Velocity":68,"Duration":578564,"SoundDuration":578564,"Delta":154483006},{"NoteNumber":79,"Velocity":68,"Duration":578564,"SoundDuration":578564,"Delta":154483006},{"NoteNumber":83,"Velocity":77,"Duration":578564,"SoundDuration":578564,"Delta":154483006},{"NoteNumber":50,"Velocity":66,"Duration":437221,"SoundDuration":437221,"Delta":154483006},{"NoteNumber":62,"Velocity":66,"Duration":437221,"SoundDuration":437221,"Delta":154483006},{"NoteNumber":51,"Velocity":57,"Duration":424027,"SoundDuration":424027,"Delta":154920228},{"NoteNumber":63,"Velocity":64,"Duration":424027,"SoundDuration":424027,"Delta":154920228},{"NoteNumber":71,"Velocity":67,"Duration":106007,"SoundDuration":106007,"Delta":155061571},{"NoteNumber":79,"Velocity":67,"Duration":106007,"SoundDuration":106007,"Delta":155061571},{"NoteNumber":83,"Velocity":74,"Duration":106007,"SoundDuration":106007,"Delta":155061571},{"NoteNumber":71,"Velocity":66,"Duration":106006,"SoundDuration":106006,"Delta":155202914},{"NoteNumber":79,"Velocity":66,"Duration":106006,"SoundDuration":106006,"Delta":155202914},{"NoteNumber":83,"Velocity":74,"Duration":106006,"SoundDuration":106006,"Delta":155202914},{"NoteNumber":71,"Velocity":67,"Duration":447494,"SoundDuration":447494,"Delta":155344256},{"NoteNumber":79,"Velocity":67,"Duration":447494,"SoundDuration":447494,"Delta":155344256},{"NoteNumber":83,"Velocity":75,"Duration":447494,"SoundDuration":447494,"Delta":155344256},{"NoteNumber":50,"Velocity":66,"Duration":447494,"SoundDuration":447494,"Delta":155344256},{"NoteNumber":62,"Velocity":66,"Duration":447494,"SoundDuration":447494,"Delta":155344256},{"NoteNumber":47,"Velocity":58,"Duration":441585,"SoundDuration":441585,"Delta":155791750},{"NoteNumber":59,"Velocity":66,"Duration":441585,"SoundDuration":441585,"Delta":155791750},{"NoteNumber":74,"Velocity":72,"Duration":224617,"SoundDuration":224617,"Delta":156008717},{"NoteNumber":86,"Velocity":81,"Duration":224617,"SoundDuration":224617,"Delta":156008717},{"NoteNumber":79,"Velocity":81,"Duration":224617,"SoundDuration":224617,"Delta":156008717},{"NoteNumber":79,"Velocity":78,"Duration":216967,"SoundDuration":216967,"Delta":156233335},{"NoteNumber":76,"Velocity":78,"Duration":216967,"SoundDuration":216967,"Delta":156233335},{"NoteNumber":85,"Velocity":85,"Duration":216967,"SoundDuration":216967,"Delta":156233335},{"NoteNumber":88,"Velocity":85,"Duration":216967,"SoundDuration":216967,"Delta":156233335},{"NoteNumber":46,"Velocity":60,"Duration":438975,"SoundDuration":438975,"Delta":156233335},{"NoteNumber":58,"Velocity":69,"Duration":438975,"SoundDuration":438975,"Delta":156233335},{"NoteNumber":74,"Velocity":75,"Duration":222008,"SoundDuration":222008,"Delta":156450302},{"NoteNumber":86,"Velocity":84,"Duration":222008,"SoundDuration":222008,"Delta":156450302},{"NoteNumber":76,"Velocity":78,"Duration":217785,"SoundDuration":217785,"Delta":156672311},{"NoteNumber":88,"Velocity":85,"Duration":217785,"SoundDuration":217785,"Delta":156672311},{"NoteNumber":84,"Velocity":85,"Duration":217785,"SoundDuration":217785,"Delta":156672311},{"NoteNumber":45,"Velocity":55,"Duration":442403,"SoundDuration":442403,"Delta":156672311},{"NoteNumber":57,"Velocity":61,"Duration":442403,"SoundDuration":442403,"Delta":156672311},{"NoteNumber":84,"Velocity":71,"Duration":224617,"SoundDuration":224617,"Delta":156890097},{"NoteNumber":86,"Velocity":80,"Duration":224617,"SoundDuration":224617,"Delta":156890097},{"NoteNumber":78,"Velocity":71,"Duration":224617,"SoundDuration":224617,"Delta":156890097},{"NoteNumber":90,"Velocity":80,"Duration":224617,"SoundDuration":224617,"Delta":156890097},{"NoteNumber":86,"Velocity":78,"Duration":224618,"SoundDuration":224618,"Delta":157114715},{"NoteNumber":79,"Velocity":78,"Duration":224618,"SoundDuration":224618,"Delta":157114715},{"NoteNumber":83,"Velocity":78,"Duration":224618,"SoundDuration":224618,"Delta":157114715},{"NoteNumber":91,"Velocity":85,"Duration":224618,"SoundDuration":224618,"Delta":157114715},{"NoteNumber":43,"Velocity":61,"Duration":224618,"SoundDuration":224618,"Delta":157114715},{"NoteNumber":55,"Velocity":69,"Duration":224618,"SoundDuration":224618,"Delta":157114715},{"NoteNumber":74,"Velocity":74,"Duration":108483,"SoundDuration":108483,"Delta":157563951},{"NoteNumber":86,"Velocity":83,"Duration":108483,"SoundDuration":108483,"Delta":157563951},{"NoteNumber":47,"Velocity":58,"Duration":432155,"SoundDuration":432155,"Delta":157563951},{"NoteNumber":50,"Velocity":58,"Duration":432155,"SoundDuration":432155,"Delta":157563951},{"NoteNumber":54,"Velocity":58,"Duration":432155,"SoundDuration":432155,"Delta":157563951},{"NoteNumber":62,"Velocity":64,"Duration":432155,"SoundDuration":432155,"Delta":157563951},{"NoteNumber":76,"Velocity":74,"Duration":108069,"SoundDuration":108069,"Delta":157708596},{"NoteNumber":88,"Velocity":83,"Duration":108069,"SoundDuration":108069,"Delta":157708596},{"NoteNumber":78,"Velocity":75,"Duration":107665,"SoundDuration":107665,"Delta":157852688},{"NoteNumber":90,"Velocity":84,"Duration":107665,"SoundDuration":107665,"Delta":157852688},{"NoteNumber":79,"Velocity":77,"Duration":222866,"SoundDuration":222866,"Delta":157996106},{"NoteNumber":91,"Velocity":85,"Duration":222866,"SoundDuration":222866,"Delta":157996106},{"NoteNumber":55,"Velocity":61,"Duration":222866,"SoundDuration":222866,"Delta":157996106},{"NoteNumber":59,"Velocity":61,"Duration":222866,"SoundDuration":222866,"Delta":157996106},{"NoteNumber":62,"Velocity":69,"Duration":222866,"SoundDuration":222866,"Delta":157996106},{"NoteNumber":74,"Velocity":74,"Duration":108483,"SoundDuration":108483,"Delta":158441838},{"NoteNumber":86,"Velocity":83,"Duration":108483,"SoundDuration":108483,"Delta":158441838},{"NoteNumber":47,"Velocity":58,"Duration":432155,"SoundDuration":432155,"Delta":158441838},{"NoteNumber":50,"Velocity":58,"Duration":432155,"SoundDuration":432155,"Delta":158441838},{"NoteNumber":54,"Velocity":58,"Duration":432155,"SoundDuration":432155,"Delta":158441838},{"NoteNumber":62,"Velocity":64,"Duration":432155,"SoundDuration":432155,"Delta":158441838},{"NoteNumber":76,"Velocity":74,"Duration":108069,"SoundDuration":108069,"Delta":158586483},{"NoteNumber":88,"Velocity":83,"Duration":108069,"SoundDuration":108069,"Delta":158586483},{"NoteNumber":78,"Velocity":75,"Duration":107665,"SoundDuration":107665,"Delta":158730575},{"NoteNumber":90,"Velocity":84,"Duration":107665,"SoundDuration":107665,"Delta":158730575},{"NoteNumber":79,"Velocity":77,"Duration":240000,"SoundDuration":240000,"Delta":158873994},{"NoteNumber":91,"Velocity":85,"Duration":240000,"SoundDuration":240000,"Delta":158873994},{"NoteNumber":55,"Velocity":61,"Duration":240000,"SoundDuration":240000,"Delta":158873994},{"NoteNumber":59,"Velocity":61,"Duration":240000,"SoundDuration":240000,"Delta":158873994},{"NoteNumber":62,"Velocity":69,"Duration":240000,"SoundDuration":240000,"Delta":158873994},{"NoteNumber":67,"Velocity":71,"Duration":281689,"SoundDuration":281689,"Delta":159353994},{"NoteNumber":71,"Velocity":71,"Duration":281689,"SoundDuration":281689,"Delta":159353994},{"NoteNumber":74,"Velocity":71,"Duration":281689,"SoundDuration":281689,"Delta":159353994},{"NoteNumber":79,"Velocity":79,"Duration":281689,"SoundDuration":281689,"Delta":159353994},{"NoteNumber":55,"Velocity":61,"Duration":281689,"SoundDuration":281689,"Delta":159353994},{"NoteNumber":59,"Velocity":61,"Duration":281689,"SoundDuration":281689,"Delta":159353994},{"NoteNumber":62,"Velocity":68,"Duration":281689,"SoundDuration":281689,"Delta":159353994},{"NoteNumber":59,"Velocity":79,"Duration":1490683,"SoundDuration":1490683,"Delta":159917374},{"NoteNumber":62,"Velocity":79,"Duration":1490683,"SoundDuration":1490683,"Delta":159917374},{"NoteNumber":67,"Velocity":88,"Duration":1490683,"SoundDuration":1490683,"Delta":159917374},{"NoteNumber":43,"Velocity":65,"Duration":1490683,"SoundDuration":1490683,"Delta":159917374},{"NoteNumber":50,"Velocity":65,"Duration":1490683,"SoundDuration":1490683,"Delta":159917374},{"NoteNumber":55,"Velocity":73,"Duration":1490683,"SoundDuration":1490683,"Delta":159917374}],"license":{"name":"Creative Commons Attribution-ShareAlike 3.0 Germany","url":"http://creativecommons.org/licenses/by-sa/3.0/de/deed.en","text":"The MIDI files in this folder were downloaded from http://www.piano-midi.de and are licensed under the Creative Commons Attribution-ShareAlike 3.0 Germany license by Bernd Krueger.\n\nThe MIDI, audio(MP3, OGG) and video files of Bernd Krueger are licensed under the cc-by-sa Germany License . This means, that you can use and adapt the files, as long as you attribute to the copyright holder Name: Bernd Krueger Source: http://www.piano-midi.de The distribution or public playback of the files is only allowed under identical license conditions . The scores are open source.","attribution":"Bernd Krueger","attributionUrl":"http://www.piano-midi.de"}}