{"title":"Miroirs - Noctuelles","artist":"Miroirs","durationMs":273074,"midiSha256":"b5e11ed11b3a07ef1ae3017e5d510e177ed047b183947bb39f9261458b0311c5","midiObject":[{"NoteNumber":81,"Velocity":47,"Duration":132967,"SoundDuration":132967,"Delta":0},{"NoteNumber":78,"Velocity":42,"Duration":177289,"SoundDuration":177289,"Delta":0},{"NoteNumber":87,"Velocity":40,"Duration":132967,"SoundDuration":132967,"Delta":132967},{"NoteNumber":82,"Velocity":40,"Duration":132967,"SoundDuration":132967,"Delta":132967},{"NoteNumber":72,"Velocity":31,"Duration":177289,"SoundDuration":177289,"Delta":177289},{"NoteNumber":77,"Velocity":58,"Duration":132967,"SoundDuration":132967,"Delta":265934},{"NoteNumber":68,"Velocity":32,"Duration":174739,"SoundDuration":174739,"Delta":354578},{"NoteNumber":82,"Velocity":65,"Duration":385533,"SoundDuration":385533,"Delta":398901},{"NoteNumber":78,"Velocity":57,"Duration":385533,"SoundDuration":385533,"Delta":398901},{"NoteNumber":76,"Velocity":50,"Duration":170256,"SoundDuration":170256,"Delta":529318},{"NoteNumber":70,"Velocity":43,"Duration":168960,"SoundDuration":168960,"Delta":699574},{"NoteNumber":79,"Velocity":49,"Duration":125876,"SoundDuration":125876,"Delta":784434},{"NoteNumber":66,"Velocity":36,"Duration":166193,"SoundDuration":166193,"Delta":868535},{"NoteNumber":84,"Velocity":52,"Duration":124417,"SoundDuration":124417,"Delta":910311},{"NoteNumber":80,"Velocity":52,"Duration":124417,"SoundDuration":124417,"Delta":910311},{"NoteNumber":81,"Velocity":55,"Duration":122906,"SoundDuration":122906,"Delta":1034728},{"NoteNumber":80,"Velocity":60,"Duration":163556,"SoundDuration":163556,"Delta":1034728},{"NoteNumber":87,"Velocity":58,"Duration":121553,"SoundDuration":121553,"Delta":1157635},{"NoteNumber":82,"Velocity":58,"Duration":121553,"SoundDuration":121553,"Delta":1157635},{"NoteNumber":74,"Velocity":46,"Duration":161131,"SoundDuration":161131,"Delta":1198285},{"NoteNumber":83,"Velocity":61,"Duration":120093,"SoundDuration":120093,"Delta":1279188},{"NoteNumber":70,"Velocity":49,"Duration":194567,"SoundDuration":194567,"Delta":1359417},{"NoteNumber":89,"Velocity":64,"Duration":154703,"SoundDuration":154703,"Delta":1399282},{"NoteNumber":84,"Velocity":64,"Duration":154703,"SoundDuration":154703,"Delta":1399282},{"NoteNumber":81,"Velocity":47,"Duration":133511,"SoundDuration":133511,"Delta":1553985},{"NoteNumber":78,"Velocity":42,"Duration":178015,"SoundDuration":178015,"Delta":1553985},{"NoteNumber":87,"Velocity":40,"Duration":133511,"SoundDuration":133511,"Delta":1687496},{"NoteNumber":82,"Velocity":40,"Duration":133511,"SoundDuration":133511,"Delta":1687496},{"NoteNumber":72,"Velocity":31,"Duration":178015,"SoundDuration":178015,"Delta":1732000},{"NoteNumber":77,"Velocity":58,"Duration":133511,"SoundDuration":133511,"Delta":1821007},{"NoteNumber":68,"Velocity":32,"Duration":175202,"SoundDuration":175202,"Delta":1910015},{"NoteNumber":82,"Velocity":64,"Duration":385944,"SoundDuration":385944,"Delta":1954518},{"NoteNumber":78,"Velocity":54,"Duration":385944,"SoundDuration":385944,"Delta":1954518},{"NoteNumber":76,"Velocity":50,"Duration":170256,"SoundDuration":170256,"Delta":2085217},{"NoteNumber":70,"Velocity":41,"Duration":169276,"SoundDuration":169276,"Delta":2255473},{"NoteNumber":79,"Velocity":49,"Duration":126153,"SoundDuration":126153,"Delta":2340463},{"NoteNumber":66,"Velocity":39,"Duration":166218,"SoundDuration":166218,"Delta":2424750},{"NoteNumber":84,"Velocity":52,"Duration":124350,"SoundDuration":124350,"Delta":2466617},{"NoteNumber":80,"Velocity":52,"Duration":124350,"SoundDuration":124350,"Delta":2466617},{"NoteNumber":81,"Velocity":55,"Duration":122667,"SoundDuration":122667,"Delta":2590968},{"NoteNumber":80,"Velocity":60,"Duration":163182,"SoundDuration":163182,"Delta":2590968},{"NoteNumber":87,"Velocity":58,"Duration":120925,"SoundDuration":120925,"Delta":2713636},{"NoteNumber":82,"Velocity":58,"Duration":120925,"SoundDuration":120925,"Delta":2713636},{"NoteNumber":74,"Velocity":46,"Duration":160152,"SoundDuration":160152,"Delta":2754151},{"NoteNumber":83,"Velocity":61,"Duration":119290,"SoundDuration":119290,"Delta":2834561},{"NoteNumber":70,"Velocity":49,"Duration":195750,"SoundDuration":195750,"Delta":2914303},{"NoteNumber":89,"Velocity":64,"Duration":156201,"SoundDuration":156201,"Delta":2953852},{"NoteNumber":84,"Velocity":64,"Duration":156201,"SoundDuration":156201,"Delta":2953852},{"NoteNumber":87,"Velocity":69,"Duration":86956,"SoundDuration":86956,"Delta":3110053},{"NoteNumber":61,"Velocity":47,"Duration":173913,"SoundDuration":173913,"Delta":3110053},{"NoteNumber":80,"Velocity":42,"Duration":86956,"SoundDuration":86956,"Delta":3197010},{"NoteNumber":75,"Velocity":42,"Duration":86956,"SoundDuration":86956,"Delta":3283966},{"NoteNumber":68,"Velocity":34,"Duration":173912,"SoundDuration":173912,"Delta":3283966},{"NoteNumber":85,"Velocity":57,"Duration":86956,"SoundDuration":86956,"Delta":3370923},{"NoteNumber":80,"Velocity":38,"Duration":86956,"SoundDuration":86956,"Delta":3457879},{"NoteNumber":76,"Velocity":34,"Duration":173912,"SoundDuration":173912,"Delta":3457879},{"NoteNumber":73,"Velocity":38,"Duration":86956,"SoundDuration":86956,"Delta":3544836},{"NoteNumber":80,"Velocity":57,"Duration":86956,"SoundDuration":86956,"Delta":3631792},{"NoteNumber":77,"Velocity":38,"Duration":86956,"SoundDuration":86956,"Delta":3718749},{"NoteNumber":68,"Velocity":38,"Duration":86943,"SoundDuration":86943,"Delta":3805705},{"NoteNumber":75,"Velocity":67,"Duration":87135,"SoundDuration":87135,"Delta":3892649},{"NoteNumber":56,"Velocity":44,"Duration":175185,"SoundDuration":175185,"Delta":3892649},{"NoteNumber":68,"Velocity":41,"Duration":88049,"SoundDuration":88049,"Delta":3979784},{"NoteNumber":63,"Velocity":41,"Duration":88987,"SoundDuration":88987,"Delta":4067834},{"NoteNumber":64,"Velocity":32,"Duration":178870,"SoundDuration":178870,"Delta":4067834},{"NoteNumber":73,"Velocity":53,"Duration":89883,"SoundDuration":89883,"Delta":4156821},{"NoteNumber":68,"Velocity":37,"Duration":90853,"SoundDuration":90853,"Delta":4246705},{"NoteNumber":49,"Velocity":32,"Duration":182661,"SoundDuration":182661,"Delta":4246705},{"NoteNumber":61,"Velocity":40,"Duration":91807,"SoundDuration":91807,"Delta":4337558},{"NoteNumber":68,"Velocity":49,"Duration":92791,"SoundDuration":92791,"Delta":4429366},{"NoteNumber":65,"Velocity":35,"Duration":93828,"SoundDuration":93828,"Delta":4522157},{"NoteNumber":56,"Velocity":35,"Duration":94894,"SoundDuration":94894,"Delta":4615986},{"NoteNumber":65,"Velocity":48,"Duration":133511,"SoundDuration":133511,"Delta":4710880},{"NoteNumber":52,"Velocity":33,"Duration":178015,"SoundDuration":178015,"Delta":4710880},{"NoteNumber":73,"Velocity":35,"Duration":133511,"SoundDuration":133511,"Delta":4844391},{"NoteNumber":66,"Velocity":35,"Duration":133511,"SoundDuration":133511,"Delta":4844391},{"NoteNumber":56,"Velocity":39,"Duration":178014,"SoundDuration":178014,"Delta":4888895},{"NoteNumber":64,"Velocity":48,"Duration":133511,"SoundDuration":133511,"Delta":4977902},{"NoteNumber":62,"Velocity":43,"Duration":178015,"SoundDuration":178015,"Delta":5066910},{"NoteNumber":71,"Velocity":43,"Duration":408574,"SoundDuration":408574,"Delta":5111414},{"NoteNumber":65,"Velocity":38,"Duration":133511,"SoundDuration":133511,"Delta":5111414},{"NoteNumber":66,"Velocity":50,"Duration":180972,"SoundDuration":180972,"Delta":5244925},{"NoteNumber":62,"Velocity":37,"Duration":182427,"SoundDuration":182427,"Delta":5425897},{"NoteNumber":65,"Velocity":50,"Duration":132658,"SoundDuration":132658,"Delta":5519988},{"NoteNumber":56,"Velocity":34,"Duration":177997,"SoundDuration":177997,"Delta":5608325},{"NoteNumber":71,"Velocity":43,"Duration":133675,"SoundDuration":133675,"Delta":5652647},{"NoteNumber":66,"Velocity":43,"Duration":133675,"SoundDuration":133675,"Delta":5652647},{"NoteNumber":63,"Velocity":44,"Duration":134659,"SoundDuration":134659,"Delta":5786322},{"NoteNumber":57,"Velocity":39,"Duration":270320,"SoundDuration":270320,"Delta":5786322},{"NoteNumber":71,"Velocity":39,"Duration":135660,"SoundDuration":135660,"Delta":5920982},{"NoteNumber":61,"Velocity":42,"Duration":136689,"SoundDuration":136689,"Delta":6056643},{"NoteNumber":64,"Velocity":32,"Duration":277812,"SoundDuration":277812,"Delta":6056643},{"NoteNumber":69,"Velocity":35,"Duration":141123,"SoundDuration":141123,"Delta":6193332},{"NoteNumber":65,"Velocity":42,"Duration":134072,"SoundDuration":134072,"Delta":6334456},{"NoteNumber":52,"Velocity":33,"Duration":178763,"SoundDuration":178763,"Delta":6334456},{"NoteNumber":73,"Velocity":35,"Duration":134072,"SoundDuration":134072,"Delta":6468528},{"NoteNumber":66,"Velocity":35,"Duration":134072,"SoundDuration":134072,"Delta":6468528},{"NoteNumber":56,"Velocity":42,"Duration":178763,"SoundDuration":178763,"Delta":6513219},{"NoteNumber":64,"Velocity":43,"Duration":134072,"SoundDuration":134072,"Delta":6602600},{"NoteNumber":62,"Velocity":46,"Duration":178763,"SoundDuration":178763,"Delta":6691982},{"NoteNumber":71,"Velocity":40,"Duration":411996,"SoundDuration":411996,"Delta":6736672},{"NoteNumber":65,"Velocity":37,"Duration":134072,"SoundDuration":134072,"Delta":6736672},{"NoteNumber":66,"Velocity":51,"Duration":182386,"SoundDuration":182386,"Delta":6870745},{"NoteNumber":62,"Velocity":37,"Duration":183596,"SoundDuration":183596,"Delta":7053131},{"NoteNumber":65,"Velocity":49,"Duration":132352,"SoundDuration":132352,"Delta":7148669},{"NoteNumber":56,"Velocity":34,"Duration":178242,"SoundDuration":178242,"Delta":7236727},{"NoteNumber":71,"Velocity":43,"Duration":133947,"SoundDuration":133947,"Delta":7281022},{"NoteNumber":66,"Velocity":43,"Duration":133947,"SoundDuration":133947,"Delta":7281022},{"NoteNumber":63,"Velocity":45,"Duration":135523,"SoundDuration":135523,"Delta":7414969},{"NoteNumber":45,"Velocity":39,"Duration":181003,"SoundDuration":181003,"Delta":7414969},{"NoteNumber":64,"Velocity":39,"Duration":136998,"SoundDuration":136998,"Delta":7550492},{"NoteNumber":71,"Velocity":39,"Duration":136998,"SoundDuration":136998,"Delta":7550492},{"NoteNumber":52,"Velocity":35,"Duration":183698,"SoundDuration":183698,"Delta":7595973},{"NoteNumber":60,"Velocity":41,"Duration":138584,"SoundDuration":138584,"Delta":7687491},{"NoteNumber":57,"Velocity":34,"Duration":203373,"SoundDuration":203373,"Delta":7779671},{"NoteNumber":61,"Velocity":35,"Duration":156969,"SoundDuration":156969,"Delta":7826075},{"NoteNumber":69,"Velocity":35,"Duration":156969,"SoundDuration":156969,"Delta":7826075},{"NoteNumber":39,"Velocity":39,"Duration":137513,"SoundDuration":137513,"Delta":7983045},{"NoteNumber":46,"Velocity":43,"Duration":137513,"SoundDuration":137513,"Delta":8120558},{"NoteNumber":54,"Velocity":45,"Duration":137513,"SoundDuration":137513,"Delta":8258072},{"NoteNumber":55,"Velocity":47,"Duration":137513,"SoundDuration":137513,"Delta":8395586},{"NoteNumber":61,"Velocity":46,"Duration":87727,"SoundDuration":87727,"Delta":8533100},{"NoteNumber":65,"Velocity":46,"Duration":260722,"SoundDuration":260722,"Delta":8533100},{"NoteNumber":57,"Velocity":47,"Duration":86497,"SoundDuration":86497,"Delta":8620827},{"NoteNumber":58,"Velocity":49,"Duration":86497,"SoundDuration":86497,"Delta":8707325},{"NoteNumber":58,"Velocity":50,"Duration":64873,"SoundDuration":64873,"Delta":8793822},{"NoteNumber":63,"Velocity":49,"Duration":64873,"SoundDuration":64873,"Delta":8858696},{"NoteNumber":66,"Velocity":48,"Duration":64798,"SoundDuration":64798,"Delta":8923569},{"NoteNumber":67,"Velocity":48,"Duration":66004,"SoundDuration":66004,"Delta":8988368},{"NoteNumber":69,"Velocity":41,"Duration":63833,"SoundDuration":63833,"Delta":9054373},{"NoteNumber":70,"Velocity":40,"Duration":63490,"SoundDuration":63490,"Delta":9118206},{"NoteNumber":73,"Velocity":38,"Duration":63118,"SoundDuration":63118,"Delta":9181697},{"NoteNumber":77,"Velocity":37,"Duration":62804,"SoundDuration":62804,"Delta":9244815},{"NoteNumber":70,"Velocity":39,"Duration":62471,"SoundDuration":62471,"Delta":9307619},{"NoteNumber":75,"Velocity":38,"Duration":62086,"SoundDuration":62086,"Delta":9370091},{"NoteNumber":78,"Velocity":37,"Duration":61813,"SoundDuration":61813,"Delta":9432177},{"NoteNumber":79,"Velocity":36,"Duration":61186,"SoundDuration":61186,"Delta":9493991},{"NoteNumber":81,"Velocity":32,"Duration":61259,"SoundDuration":61259,"Delta":9555177},{"NoteNumber":82,"Velocity":34,"Duration":61674,"SoundDuration":61674,"Delta":9616436},{"NoteNumber":85,"Velocity":36,"Duration":62094,"SoundDuration":62094,"Delta":9678111},{"NoteNumber":89,"Velocity":39,"Duration":62592,"SoundDuration":62592,"Delta":9740205},{"NoteNumber":70,"Velocity":41,"Duration":53313,"SoundDuration":53313,"Delta":10315299},{"NoteNumber":74,"Velocity":42,"Duration":52920,"SoundDuration":52920,"Delta":10368613},{"NoteNumber":75,"Velocity":44,"Duration":52484,"SoundDuration":52484,"Delta":10421533},{"NoteNumber":78,"Velocity":45,"Duration":52149,"SoundDuration":52149,"Delta":10474018},{"NoteNumber":79,"Velocity":47,"Duration":51727,"SoundDuration":51727,"Delta":10526167},{"NoteNumber":81,"Velocity":48,"Duration":51359,"SoundDuration":51359,"Delta":10577895},{"NoteNumber":82,"Velocity":49,"Duration":51029,"SoundDuration":51029,"Delta":10629255},{"NoteNumber":85,"Velocity":51,"Duration":50630,"SoundDuration":50630,"Delta":10680284},{"NoteNumber":89,"Velocity":54,"Duration":50231,"SoundDuration":50231,"Delta":10730915},{"NoteNumber":94,"Velocity":58,"Duration":50079,"SoundDuration":50079,"Delta":10781147},{"NoteNumber":101,"Velocity":62,"Duration":127969,"SoundDuration":127969,"Delta":10831226},{"NoteNumber":97,"Velocity":62,"Duration":127969,"SoundDuration":127969,"Delta":10831226},{"NoteNumber":99,"Velocity":37,"Duration":151775,"SoundDuration":151775,"Delta":11343778},{"NoteNumber":97,"Velocity":37,"Duration":151775,"SoundDuration":151775,"Delta":11343778},{"NoteNumber":85,"Velocity":37,"Duration":151775,"SoundDuration":151775,"Delta":11343778},{"NoteNumber":87,"Velocity":37,"Duration":151775,"SoundDuration":151775,"Delta":11343778},{"NoteNumber":75,"Velocity":33,"Duration":151775,"SoundDuration":151775,"Delta":11343778},{"NoteNumber":73,"Velocity":33,"Duration":151775,"SoundDuration":151775,"Delta":11343778},{"NoteNumber":89,"Velocity":37,"Duration":151775,"SoundDuration":151775,"Delta":11647330},{"NoteNumber":91,"Velocity":37,"Duration":151775,"SoundDuration":151775,"Delta":11647330},{"NoteNumber":79,"Velocity":33,"Duration":151775,"SoundDuration":151775,"Delta":11647330},{"NoteNumber":77,"Velocity":33,"Duration":151775,"SoundDuration":151775,"Delta":11647330},{"NoteNumber":87,"Velocity":34,"Duration":174886,"SoundDuration":174886,"Delta":12650426},{"NoteNumber":85,"Velocity":34,"Duration":174886,"SoundDuration":174886,"Delta":12650426},{"NoteNumber":73,"Velocity":30,"Duration":174886,"SoundDuration":174886,"Delta":12650426},{"NoteNumber":75,"Velocity":30,"Duration":174886,"SoundDuration":174886,"Delta":12650426},{"NoteNumber":81,"Velocity":30,"Duration":187079,"SoundDuration":187079,"Delta":13724129},{"NoteNumber":79,"Velocity":30,"Duration":187079,"SoundDuration":187079,"Delta":13724129},{"NoteNumber":81,"Velocity":47,"Duration":132967,"SoundDuration":132967,"Delta":15594919},{"NoteNumber":78,"Velocity":42,"Duration":177289,"SoundDuration":177289,"Delta":15594919},{"NoteNumber":87,"Velocity":40,"Duration":132966,"SoundDuration":132966,"Delta":15727886},{"NoteNumber":82,"Velocity":40,"Duration":132966,"SoundDuration":132966,"Delta":15727886},{"NoteNumber":72,"Velocity":31,"Duration":177289,"SoundDuration":177289,"Delta":15772209},{"NoteNumber":77,"Velocity":48,"Duration":132967,"SoundDuration":132967,"Delta":15860853},{"NoteNumber":68,"Velocity":32,"Duration":174739,"SoundDuration":174739,"Delta":15949498},{"NoteNumber":82,"Velocity":56,"Duration":385533,"SoundDuration":385533,"Delta":15993820},{"NoteNumber":78,"Velocity":51,"Duration":385533,"SoundDuration":385533,"Delta":15993820},{"NoteNumber":76,"Velocity":50,"Duration":170256,"SoundDuration":170256,"Delta":16124238},{"NoteNumber":70,"Velocity":43,"Duration":168960,"SoundDuration":168960,"Delta":16294494},{"NoteNumber":79,"Velocity":49,"Duration":125876,"SoundDuration":125876,"Delta":16379354},{"NoteNumber":66,"Velocity":36,"Duration":166193,"SoundDuration":166193,"Delta":16463455},{"NoteNumber":84,"Velocity":52,"Duration":124417,"SoundDuration":124417,"Delta":16505230},{"NoteNumber":80,"Velocity":52,"Duration":124417,"SoundDuration":124417,"Delta":16505230},{"NoteNumber":81,"Velocity":55,"Duration":122906,"SoundDuration":122906,"Delta":16629648},{"NoteNumber":80,"Velocity":60,"Duration":163556,"SoundDuration":163556,"Delta":16629648},{"NoteNumber":87,"Velocity":58,"Duration":121553,"SoundDuration":121553,"Delta":16752554},{"NoteNumber":82,"Velocity":58,"Duration":121553,"SoundDuration":121553,"Delta":16752554},{"NoteNumber":74,"Velocity":46,"Duration":161131,"SoundDuration":161131,"Delta":16793205},{"NoteNumber":83,"Velocity":61,"Duration":120093,"SoundDuration":120093,"Delta":16874107},{"NoteNumber":70,"Velocity":49,"Duration":194567,"SoundDuration":194567,"Delta":16954337},{"NoteNumber":89,"Velocity":64,"Duration":154703,"SoundDuration":154703,"Delta":16994201},{"NoteNumber":84,"Velocity":64,"Duration":154703,"SoundDuration":154703,"Delta":16994201},{"NoteNumber":81,"Velocity":47,"Duration":133511,"SoundDuration":133511,"Delta":17148904},{"NoteNumber":78,"Velocity":42,"Duration":178014,"SoundDuration":178014,"Delta":17148904},{"NoteNumber":87,"Velocity":40,"Duration":133511,"SoundDuration":133511,"Delta":17282416},{"NoteNumber":82,"Velocity":40,"Duration":133511,"SoundDuration":133511,"Delta":17282416},{"NoteNumber":72,"Velocity":31,"Duration":178015,"SoundDuration":178015,"Delta":17326919},{"NoteNumber":77,"Velocity":49,"Duration":133511,"SoundDuration":133511,"Delta":17415927},{"NoteNumber":68,"Velocity":32,"Duration":175202,"SoundDuration":175202,"Delta":17504934},{"NoteNumber":82,"Velocity":58,"Duration":385944,"SoundDuration":385944,"Delta":17549438},{"NoteNumber":78,"Velocity":53,"Duration":385944,"SoundDuration":385944,"Delta":17549438},{"NoteNumber":76,"Velocity":50,"Duration":170256,"SoundDuration":170256,"Delta":17680137},{"NoteNumber":70,"Velocity":41,"Duration":169276,"SoundDuration":169276,"Delta":17850393},{"NoteNumber":79,"Velocity":49,"Duration":126153,"SoundDuration":126153,"Delta":17935383},{"NoteNumber":66,"Velocity":39,"Duration":166218,"SoundDuration":166218,"Delta":18019669},{"NoteNumber":84,"Velocity":52,"Duration":124350,"SoundDuration":124350,"Delta":18061537},{"NoteNumber":80,"Velocity":52,"Duration":124350,"SoundDuration":124350,"Delta":18061537},{"NoteNumber":81,"Velocity":55,"Duration":122667,"SoundDuration":122667,"Delta":18185888},{"NoteNumber":80,"Velocity":60,"Duration":163182,"SoundDuration":163182,"Delta":18185888},{"NoteNumber":87,"Velocity":58,"Duration":120925,"SoundDuration":120925,"Delta":18308555},{"NoteNumber":82,"Velocity":58,"Duration":120925,"SoundDuration":120925,"Delta":18308555},{"NoteNumber":74,"Velocity":46,"Duration":160152,"SoundDuration":160152,"Delta":18349070},{"NoteNumber":83,"Velocity":61,"Duration":119290,"SoundDuration":119290,"Delta":18429481},{"NoteNumber":70,"Velocity":49,"Duration":195750,"SoundDuration":195750,"Delta":18509223},{"NoteNumber":89,"Velocity":64,"Duration":156201,"SoundDuration":156201,"Delta":18548772},{"NoteNumber":84,"Velocity":64,"Duration":156201,"SoundDuration":156201,"Delta":18548772},{"NoteNumber":87,"Velocity":72,"Duration":86956,"SoundDuration":86956,"Delta":18704973},{"NoteNumber":61,"Velocity":47,"Duration":173912,"SoundDuration":173912,"Delta":18704973},{"NoteNumber":80,"Velocity":42,"Duration":86956,"SoundDuration":86956,"Delta":18791929},{"NoteNumber":75,"Velocity":42,"Duration":86956,"SoundDuration":86956,"Delta":18878886},{"NoteNumber":68,"Velocity":41,"Duration":173913,"SoundDuration":173913,"Delta":18878886},{"NoteNumber":85,"Velocity":57,"Duration":86956,"SoundDuration":86956,"Delta":18965842},{"NoteNumber":80,"Velocity":43,"Duration":86956,"SoundDuration":86956,"Delta":19052799},{"NoteNumber":76,"Velocity":47,"Duration":173912,"SoundDuration":173912,"Delta":19052799},{"NoteNumber":73,"Velocity":43,"Duration":86956,"SoundDuration":86956,"Delta":19139755},{"NoteNumber":80,"Velocity":62,"Duration":86956,"SoundDuration":86956,"Delta":19226712},{"NoteNumber":77,"Velocity":46,"Duration":86956,"SoundDuration":86956,"Delta":19313668},{"NoteNumber":68,"Velocity":47,"Duration":86943,"SoundDuration":86943,"Delta":19400625},{"NoteNumber":91,"Velocity":75,"Duration":87135,"SoundDuration":87135,"Delta":19487568},{"NoteNumber":44,"Velocity":52,"Duration":175185,"SoundDuration":175185,"Delta":19487568},{"NoteNumber":84,"Velocity":51,"Duration":88049,"SoundDuration":88049,"Delta":19574704},{"NoteNumber":79,"Velocity":51,"Duration":88987,"SoundDuration":88987,"Delta":19662754},{"NoteNumber":51,"Velocity":39,"Duration":178870,"SoundDuration":178870,"Delta":19662754},{"NoteNumber":89,"Velocity":66,"Duration":89883,"SoundDuration":89883,"Delta":19751741},{"NoteNumber":84,"Velocity":44,"Duration":90853,"SoundDuration":90853,"Delta":19841624},{"NoteNumber":60,"Velocity":39,"Duration":182661,"SoundDuration":182661,"Delta":19841624},{"NoteNumber":77,"Velocity":45,"Duration":91807,"SoundDuration":91807,"Delta":19932478},{"NoteNumber":84,"Velocity":59,"Duration":92791,"SoundDuration":92791,"Delta":20024286},{"NoteNumber":77,"Velocity":44,"Duration":93828,"SoundDuration":93828,"Delta":20117077},{"NoteNumber":72,"Velocity":44,"Duration":94894,"SoundDuration":94894,"Delta":20210905},{"NoteNumber":79,"Velocity":68,"Duration":87135,"SoundDuration":87135,"Delta":20305800},{"NoteNumber":60,"Velocity":52,"Duration":175185,"SoundDuration":175185,"Delta":20305800},{"NoteNumber":72,"Velocity":45,"Duration":88049,"SoundDuration":88049,"Delta":20392935},{"NoteNumber":67,"Velocity":45,"Duration":88987,"SoundDuration":88987,"Delta":20480985},{"NoteNumber":68,"Velocity":34,"Duration":178870,"SoundDuration":178870,"Delta":20480985},{"NoteNumber":77,"Velocity":56,"Duration":89883,"SoundDuration":89883,"Delta":20569972},{"NoteNumber":72,"Velocity":41,"Duration":90853,"SoundDuration":90853,"Delta":20659856},{"NoteNumber":53,"Velocity":34,"Duration":182661,"SoundDuration":182661,"Delta":20659856},{"NoteNumber":65,"Velocity":41,"Duration":91807,"SoundDuration":91807,"Delta":20750710},{"NoteNumber":72,"Velocity":53,"Duration":92791,"SoundDuration":92791,"Delta":20842517},{"NoteNumber":65,"Velocity":39,"Duration":93828,"SoundDuration":93828,"Delta":20935308},{"NoteNumber":60,"Velocity":39,"Duration":94894,"SoundDuration":94894,"Delta":21029137},{"NoteNumber":72,"Velocity":60,"Duration":552994,"SoundDuration":552994,"Delta":21124031},{"NoteNumber":58,"Velocity":40,"Duration":92165,"SoundDuration":92165,"Delta":21124031},{"NoteNumber":60,"Velocity":33,"Duration":92165,"SoundDuration":92165,"Delta":21216197},{"NoteNumber":61,"Velocity":33,"Duration":92165,"SoundDuration":92165,"Delta":21308363},{"NoteNumber":68,"Velocity":40,"Duration":92165,"SoundDuration":92165,"Delta":21400529},{"NoteNumber":64,"Velocity":34,"Duration":92165,"SoundDuration":92165,"Delta":21492694},{"NoteNumber":65,"Velocity":36,"Duration":92165,"SoundDuration":92165,"Delta":21584860},{"NoteNumber":70,"Velocity":50,"Duration":295549,"SoundDuration":295549,"Delta":21677026},{"NoteNumber":65,"Velocity":34,"Duration":98522,"SoundDuration":98522,"Delta":21775548},{"NoteNumber":62,"Velocity":34,"Duration":98505,"SoundDuration":98505,"Delta":21874070},{"NoteNumber":74,"Velocity":58,"Duration":290978,"SoundDuration":290978,"Delta":21972576},{"NoteNumber":60,"Velocity":41,"Duration":58946,"SoundDuration":58946,"Delta":21972576},{"NoteNumber":63,"Velocity":44,"Duration":58550,"SoundDuration":58550,"Delta":22031522},{"NoteNumber":64,"Velocity":47,"Duration":58184,"SoundDuration":58184,"Delta":22090073},{"NoteNumber":66,"Velocity":50,"Duration":57845,"SoundDuration":57845,"Delta":22148257},{"NoteNumber":67,"Velocity":53,"Duration":57452,"SoundDuration":57452,"Delta":22206102},{"NoteNumber":72,"Velocity":52,"Duration":239031,"SoundDuration":239031,"Delta":22263555},{"NoteNumber":67,"Velocity":50,"Duration":58665,"SoundDuration":58665,"Delta":22321026},{"NoteNumber":70,"Velocity":47,"Duration":61723,"SoundDuration":61723,"Delta":22379692},{"NoteNumber":71,"Velocity":45,"Duration":63829,"SoundDuration":63829,"Delta":22441416},{"NoteNumber":72,"Velocity":42,"Duration":63829,"SoundDuration":63829,"Delta":22505246},{"NoteNumber":79,"Velocity":71,"Duration":283018,"SoundDuration":283018,"Delta":22569076},{"NoteNumber":72,"Velocity":60,"Duration":552994,"SoundDuration":552994,"Delta":22852095},{"NoteNumber":58,"Velocity":40,"Duration":92165,"SoundDuration":92165,"Delta":22852095},{"NoteNumber":60,"Velocity":33,"Duration":92165,"SoundDuration":92165,"Delta":22944261},{"NoteNumber":61,"Velocity":33,"Duration":92165,"SoundDuration":92165,"Delta":23036426},{"NoteNumber":68,"Velocity":40,"Duration":92165,"SoundDuration":92165,"Delta":23128592},{"NoteNumber":64,"Velocity":34,"Duration":92165,"SoundDuration":92165,"Delta":23220758},{"NoteNumber":65,"Velocity":36,"Duration":92165,"SoundDuration":92165,"Delta":23312924},{"NoteNumber":70,"Velocity":50,"Duration":293870,"SoundDuration":293870,"Delta":23405090},{"NoteNumber":65,"Velocity":34,"Duration":98039,"SoundDuration":98039,"Delta":23503129},{"NoteNumber":62,"Velocity":34,"Duration":97792,"SoundDuration":97792,"Delta":23601168},{"NoteNumber":74,"Velocity":58,"Duration":289839,"SoundDuration":289839,"Delta":23698960},{"NoteNumber":60,"Velocity":36,"Duration":58747,"SoundDuration":58747,"Delta":23698960},{"NoteNumber":63,"Velocity":39,"Duration":58354,"SoundDuration":58354,"Delta":23757708},{"NoteNumber":64,"Velocity":42,"Duration":57967,"SoundDuration":57967,"Delta":23816063},{"NoteNumber":66,"Velocity":46,"Duration":57590,"SoundDuration":57590,"Delta":23874030},{"NoteNumber":67,"Velocity":49,"Duration":57179,"SoundDuration":57179,"Delta":23931621},{"NoteNumber":72,"Velocity":52,"Duration":236581,"SoundDuration":236581,"Delta":23988800},{"NoteNumber":67,"Velocity":49,"Duration":58274,"SoundDuration":58274,"Delta":24045968},{"NoteNumber":70,"Velocity":47,"Duration":60929,"SoundDuration":60929,"Delta":24104243},{"NoteNumber":71,"Velocity":44,"Duration":62827,"SoundDuration":62827,"Delta":24165172},{"NoteNumber":72,"Velocity":42,"Duration":62827,"SoundDuration":62827,"Delta":24227999},{"NoteNumber":79,"Velocity":70,"Duration":283018,"SoundDuration":283018,"Delta":24290826},{"NoteNumber":72,"Velocity":64,"Duration":552994,"SoundDuration":552994,"Delta":24573845},{"NoteNumber":58,"Velocity":40,"Duration":92165,"SoundDuration":92165,"Delta":24573845},{"NoteNumber":60,"Velocity":33,"Duration":92165,"SoundDuration":92165,"Delta":24666011},{"NoteNumber":61,"Velocity":33,"Duration":92165,"SoundDuration":92165,"Delta":24758177},{"NoteNumber":68,"Velocity":40,"Duration":92165,"SoundDuration":92165,"Delta":24850343},{"NoteNumber":64,"Velocity":34,"Duration":92165,"SoundDuration":92165,"Delta":24942509},{"NoteNumber":65,"Velocity":36,"Duration":92165,"SoundDuration":92165,"Delta":25034675},{"NoteNumber":70,"Velocity":50,"Duration":293802,"SoundDuration":293802,"Delta":25126840},{"NoteNumber":65,"Velocity":34,"Duration":98039,"SoundDuration":98039,"Delta":25224880},{"NoteNumber":62,"Velocity":34,"Duration":97724,"SoundDuration":97724,"Delta":25322919},{"NoteNumber":67,"Velocity":60,"Duration":576349,"SoundDuration":576349,"Delta":25420643},{"NoteNumber":56,"Velocity":40,"Duration":94699,"SoundDuration":94699,"Delta":25420643},{"NoteNumber":58,"Velocity":33,"Duration":93324,"SoundDuration":93324,"Delta":25515342},{"NoteNumber":61,"Velocity":33,"Duration":92100,"SoundDuration":92100,"Delta":25597093},{"NoteNumber":68,"Velocity":46,"Duration":91933,"SoundDuration":91933,"Delta":25689193},{"NoteNumber":59,"Velocity":34,"Duration":99493,"SoundDuration":99493,"Delta":25792787},{"NoteNumber":62,"Velocity":36,"Duration":104711,"SoundDuration":104711,"Delta":25892280},{"NoteNumber":65,"Velocity":54,"Duration":283018,"SoundDuration":283018,"Delta":25996992},{"NoteNumber":62,"Velocity":40,"Duration":94339,"SoundDuration":94339,"Delta":26091332},{"NoteNumber":59,"Velocity":41,"Duration":94339,"SoundDuration":94339,"Delta":26185671},{"NoteNumber":67,"Velocity":67,"Duration":269058,"SoundDuration":269058,"Delta":26280011},{"NoteNumber":53,"Velocity":40,"Duration":89686,"SoundDuration":89686,"Delta":26280011},{"NoteNumber":56,"Velocity":37,"Duration":89686,"SoundDuration":89686,"Delta":26369697},{"NoteNumber":59,"Velocity":37,"Duration":89686,"SoundDuration":89686,"Delta":26459383},{"NoteNumber":65,"Velocity":50,"Duration":275229,"SoundDuration":275229,"Delta":26549069},{"NoteNumber":63,"Velocity":36,"Duration":91743,"SoundDuration":91743,"Delta":26640813},{"NoteNumber":57,"Velocity":36,"Duration":91743,"SoundDuration":91743,"Delta":26732556},{"NoteNumber":62,"Velocity":65,"Duration":267856,"SoundDuration":267856,"Delta":26824299},{"NoteNumber":51,"Velocity":40,"Duration":89285,"SoundDuration":89285,"Delta":26824299},{"NoteNumber":53,"Velocity":36,"Duration":89285,"SoundDuration":89285,"Delta":26913585},{"NoteNumber":56,"Velocity":36,"Duration":89285,"SoundDuration":89285,"Delta":27002870},{"NoteNumber":60,"Velocity":49,"Duration":275229,"SoundDuration":275229,"Delta":27092156},{"NoteNumber":57,"Velocity":36,"Duration":91743,"SoundDuration":91743,"Delta":27183899},{"NoteNumber":54,"Velocity":36,"Duration":91743,"SoundDuration":91743,"Delta":27275642},{"NoteNumber":62,"Velocity":63,"Duration":270270,"SoundDuration":270270,"Delta":27367385},{"NoteNumber":48,"Velocity":40,"Duration":90090,"SoundDuration":90090,"Delta":27367385},{"NoteNumber":51,"Velocity":34,"Duration":90090,"SoundDuration":90090,"Delta":27457476},{"NoteNumber":54,"Velocity":34,"Duration":90090,"SoundDuration":90090,"Delta":27547566},{"NoteNumber":60,"Velocity":50,"Duration":280373,"SoundDuration":280373,"Delta":27637656},{"NoteNumber":58,"Velocity":36,"Duration":93458,"SoundDuration":93458,"Delta":27731114},{"NoteNumber":52,"Velocity":36,"Duration":93457,"SoundDuration":93457,"Delta":27824572},{"NoteNumber":57,"Velocity":64,"Duration":271492,"SoundDuration":271492,"Delta":27918030},{"NoteNumber":46,"Velocity":40,"Duration":90497,"SoundDuration":90497,"Delta":27918030},{"NoteNumber":48,"Velocity":36,"Duration":90497,"SoundDuration":90497,"Delta":28008528},{"NoteNumber":49,"Velocity":36,"Duration":90497,"SoundDuration":90497,"Delta":28099025},{"NoteNumber":55,"Velocity":45,"Duration":283018,"SoundDuration":283018,"Delta":28189523},{"NoteNumber":52,"Velocity":32,"Duration":94339,"SoundDuration":94339,"Delta":28283863},{"NoteNumber":49,"Velocity":32,"Duration":94339,"SoundDuration":94339,"Delta":28378202},{"NoteNumber":57,"Velocity":53,"Duration":464512,"SoundDuration":464512,"Delta":28472542},{"NoteNumber":43,"Velocity":36,"Duration":92165,"SoundDuration":92165,"Delta":28472542},{"NoteNumber":49,"Velocity":28,"Duration":92165,"SoundDuration":92165,"Delta":28564708},{"NoteNumber":58,"Velocity":28,"Duration":92165,"SoundDuration":92165,"Delta":28656874},{"NoteNumber":47,"Velocity":38,"Duration":93896,"SoundDuration":93896,"Delta":28749039},{"NoteNumber":50,"Velocity":26,"Duration":94118,"SoundDuration":94118,"Delta":28842936},{"NoteNumber":55,"Velocity":35,"Duration":94912,"SoundDuration":94912,"Delta":28937054},{"NoteNumber":54,"Velocity":38,"Duration":56894,"SoundDuration":56894,"Delta":29031967},{"NoteNumber":58,"Velocity":35,"Duration":56537,"SoundDuration":56537,"Delta":29088861},{"NoteNumber":50,"Velocity":36,"Duration":56321,"SoundDuration":56321,"Delta":29145399},{"NoteNumber":59,"Velocity":38,"Duration":56009,"SoundDuration":56009,"Delta":29201720},{"NoteNumber":62,"Velocity":47,"Duration":262087,"SoundDuration":262087,"Delta":29257730},{"NoteNumber":66,"Velocity":32,"Duration":69209,"SoundDuration":69209,"Delta":29313426},{"NoteNumber":70,"Velocity":32,"Duration":68839,"SoundDuration":68839,"Delta":29382635},{"NoteNumber":62,"Velocity":32,"Duration":81963,"SoundDuration":81963,"Delta":29451475},{"NoteNumber":71,"Velocity":32,"Duration":67919,"SoundDuration":67919,"Delta":29519817},{"NoteNumber":74,"Velocity":41,"Duration":135746,"SoundDuration":135746,"Delta":29587737},{"NoteNumber":73,"Velocity":32,"Duration":38507,"SoundDuration":38507,"Delta":30135761},{"NoteNumber":76,"Velocity":33,"Duration":38363,"SoundDuration":38363,"Delta":30174269},{"NoteNumber":78,"Velocity":33,"Duration":38096,"SoundDuration":38096,"Delta":30212632},{"NoteNumber":82,"Velocity":34,"Duration":37962,"SoundDuration":37962,"Delta":30250729},{"NoteNumber":74,"Velocity":34,"Duration":37701,"SoundDuration":37701,"Delta":30288691},{"NoteNumber":79,"Velocity":35,"Duration":37562,"SoundDuration":37562,"Delta":30326392},{"NoteNumber":83,"Velocity":35,"Duration":37313,"SoundDuration":37313,"Delta":30363955},{"NoteNumber":86,"Velocity":36,"Duration":37177,"SoundDuration":37177,"Delta":30401269},{"NoteNumber":85,"Velocity":36,"Duration":37043,"SoundDuration":37043,"Delta":30438447},{"NoteNumber":88,"Velocity":37,"Duration":36800,"SoundDuration":36800,"Delta":30475490},{"NoteNumber":90,"Velocity":37,"Duration":36669,"SoundDuration":36669,"Delta":30512291},{"NoteNumber":94,"Velocity":38,"Duration":36425,"SoundDuration":36425,"Delta":30548960},{"NoteNumber":86,"Velocity":39,"Duration":36302,"SoundDuration":36302,"Delta":30585386},{"NoteNumber":91,"Velocity":39,"Duration":36063,"SoundDuration":36063,"Delta":30621688},{"NoteNumber":95,"Velocity":40,"Duration":35925,"SoundDuration":35925,"Delta":30657751},{"NoteNumber":98,"Velocity":40,"Duration":35714,"SoundDuration":35714,"Delta":30693677},{"NoteNumber":103,"Velocity":41,"Duration":136986,"SoundDuration":136986,"Delta":30729391},{"NoteNumber":86,"Velocity":34,"Duration":339366,"SoundDuration":339366,"Delta":31480956},{"NoteNumber":91,"Velocity":34,"Duration":339366,"SoundDuration":339366,"Delta":31480956},{"NoteNumber":97,"Velocity":34,"Duration":90497,"SoundDuration":90497,"Delta":31480956},{"NoteNumber":73,"Velocity":32,"Duration":67873,"SoundDuration":67873,"Delta":31480956},{"NoteNumber":98,"Velocity":41,"Duration":271492,"SoundDuration":271492,"Delta":31548829},{"NoteNumber":67,"Velocity":37,"Duration":271492,"SoundDuration":271492,"Delta":31548829},{"NoteNumber":74,"Velocity":37,"Duration":271492,"SoundDuration":271492,"Delta":31548829},{"NoteNumber":91,"Velocity":66,"Duration":536317,"SoundDuration":536317,"Delta":32906294},{"NoteNumber":71,"Velocity":45,"Duration":536317,"SoundDuration":536317,"Delta":32906294},{"NoteNumber":74,"Velocity":45,"Duration":536317,"SoundDuration":536317,"Delta":32906294},{"NoteNumber":80,"Velocity":45,"Duration":536317,"SoundDuration":536317,"Delta":32906294},{"NoteNumber":86,"Velocity":46,"Duration":88105,"SoundDuration":88105,"Delta":32994400},{"NoteNumber":79,"Velocity":45,"Duration":88105,"SoundDuration":88105,"Delta":33082505},{"NoteNumber":86,"Velocity":55,"Duration":88105,"SoundDuration":88105,"Delta":33170611},{"NoteNumber":79,"Velocity":48,"Duration":88105,"SoundDuration":88105,"Delta":33258717},{"NoteNumber":74,"Velocity":48,"Duration":95789,"SoundDuration":95789,"Delta":33346822},{"NoteNumber":90,"Velocity":73,"Duration":1053235,"SoundDuration":1053235,"Delta":33442612},{"NoteNumber":71,"Velocity":51,"Duration":1053235,"SoundDuration":1053235,"Delta":33442612},{"NoteNumber":81,"Velocity":51,"Duration":519975,"SoundDuration":519975,"Delta":33442612},{"NoteNumber":75,"Velocity":51,"Duration":522110,"SoundDuration":522110,"Delta":33442612},{"NoteNumber":85,"Velocity":50,"Duration":87792,"SoundDuration":87792,"Delta":33530889},{"NoteNumber":78,"Velocity":50,"Duration":87256,"SoundDuration":87256,"Delta":33618682},{"NoteNumber":85,"Velocity":58,"Duration":86745,"SoundDuration":86745,"Delta":33705938},{"NoteNumber":78,"Velocity":52,"Duration":86277,"SoundDuration":86277,"Delta":33792684},{"NoteNumber":73,"Velocity":52,"Duration":85759,"SoundDuration":85759,"Delta":33878962},{"NoteNumber":81,"Velocity":55,"Duration":85558,"SoundDuration":85558,"Delta":33964722},{"NoteNumber":75,"Velocity":45,"Duration":531125,"SoundDuration":531125,"Delta":33964722},{"NoteNumber":73,"Velocity":50,"Duration":86189,"SoundDuration":86189,"Delta":34050280},{"NoteNumber":78,"Velocity":48,"Duration":86787,"SoundDuration":86787,"Delta":34136470},{"NoteNumber":85,"Velocity":55,"Duration":87414,"SoundDuration":87414,"Delta":34223258},{"NoteNumber":78,"Velocity":45,"Duration":88088,"SoundDuration":88088,"Delta":34310672},{"NoteNumber":85,"Velocity":45,"Duration":97087,"SoundDuration":97087,"Delta":34398760},{"NoteNumber":89,"Velocity":55,"Duration":263157,"SoundDuration":263157,"Delta":34495848},{"NoteNumber":72,"Velocity":38,"Duration":540637,"SoundDuration":540637,"Delta":34495848},{"NoteNumber":81,"Velocity":38,"Duration":540637,"SoundDuration":540637,"Delta":34495848},{"NoteNumber":75,"Velocity":38,"Duration":540637,"SoundDuration":540637,"Delta":34495848},{"NoteNumber":84,"Velocity":44,"Duration":87719,"SoundDuration":87719,"Delta":34583567},{"NoteNumber":77,"Velocity":42,"Duration":87719,"SoundDuration":87719,"Delta":34671286},{"NoteNumber":84,"Velocity":49,"Duration":87719,"SoundDuration":87719,"Delta":34759006},{"NoteNumber":77,"Velocity":43,"Duration":87719,"SoundDuration":87719,"Delta":34846725},{"NoteNumber":72,"Velocity":43,"Duration":102040,"SoundDuration":102040,"Delta":34934444},{"NoteNumber":65,"Velocity":44,"Duration":272528,"SoundDuration":272528,"Delta":35036485},{"NoteNumber":63,"Velocity":44,"Duration":1055338,"SoundDuration":1055338,"Delta":35036485},{"NoteNumber":73,"Velocity":44,"Duration":545057,"SoundDuration":545057,"Delta":35036485},{"NoteNumber":72,"Velocity":38,"Duration":68132,"SoundDuration":68132,"Delta":35104617},{"NoteNumber":84,"Velocity":51,"Duration":272528,"SoundDuration":272528,"Delta":35172750},{"NoteNumber":77,"Velocity":51,"Duration":68132,"SoundDuration":68132,"Delta":35172750},{"NoteNumber":72,"Velocity":38,"Duration":68132,"SoundDuration":68132,"Delta":35240882},{"NoteNumber":66,"Velocity":55,"Duration":272528,"SoundDuration":272528,"Delta":35309014},{"NoteNumber":71,"Velocity":43,"Duration":68132,"SoundDuration":68132,"Delta":35377146},{"NoteNumber":83,"Velocity":52,"Duration":276451,"SoundDuration":276451,"Delta":35445279},{"NoteNumber":76,"Velocity":52,"Duration":68132,"SoundDuration":68132,"Delta":35445279},{"NoteNumber":71,"Velocity":43,"Duration":68132,"SoundDuration":68132,"Delta":35513411},{"NoteNumber":73,"Velocity":66,"Duration":140186,"SoundDuration":140186,"Delta":35581543},{"NoteNumber":67,"Velocity":66,"Duration":140186,"SoundDuration":140186,"Delta":35581543},{"NoteNumber":70,"Velocity":50,"Duration":70093,"SoundDuration":70093,"Delta":35651637},{"NoteNumber":82,"Velocity":60,"Duration":70093,"SoundDuration":70093,"Delta":35721730},{"NoteNumber":75,"Velocity":60,"Duration":70093,"SoundDuration":70093,"Delta":35721730},{"NoteNumber":70,"Velocity":51,"Duration":299999,"SoundDuration":299999,"Delta":35791824},{"NoteNumber":91,"Velocity":66,"Duration":541531,"SoundDuration":541531,"Delta":36091824},{"NoteNumber":71,"Velocity":45,"Duration":541531,"SoundDuration":541531,"Delta":36091824},{"NoteNumber":80,"Velocity":45,"Duration":541531,"SoundDuration":541531,"Delta":36091824},{"NoteNumber":74,"Velocity":45,"Duration":541531,"SoundDuration":541531,"Delta":36091824},{"NoteNumber":86,"Velocity":46,"Duration":88888,"SoundDuration":88888,"Delta":36180712},{"NoteNumber":79,"Velocity":45,"Duration":88888,"SoundDuration":88888,"Delta":36269601},{"NoteNumber":86,"Velocity":55,"Duration":88888,"SoundDuration":88888,"Delta":36358490},{"NoteNumber":79,"Velocity":48,"Duration":88888,"SoundDuration":88888,"Delta":36447379},{"NoteNumber":74,"Velocity":48,"Duration":97087,"SoundDuration":97087,"Delta":36536268},{"NoteNumber":90,"Velocity":73,"Duration":1059811,"SoundDuration":1059811,"Delta":36633355},{"NoteNumber":75,"Velocity":51,"Duration":525934,"SoundDuration":525934,"Delta":36633355},{"NoteNumber":81,"Velocity":51,"Duration":523781,"SoundDuration":523781,"Delta":36633355},{"NoteNumber":71,"Velocity":51,"Duration":1059811,"SoundDuration":1059811,"Delta":36633355},{"NoteNumber":85,"Velocity":50,"Duration":88325,"SoundDuration":88325,"Delta":36722087},{"NoteNumber":78,"Velocity":50,"Duration":87913,"SoundDuration":87913,"Delta":36810413},{"NoteNumber":85,"Velocity":58,"Duration":87433,"SoundDuration":87433,"Delta":36898326},{"NoteNumber":78,"Velocity":52,"Duration":87028,"SoundDuration":87028,"Delta":36985759},{"NoteNumber":73,"Velocity":52,"Duration":86501,"SoundDuration":86501,"Delta":37072788},{"NoteNumber":81,"Velocity":55,"Duration":86296,"SoundDuration":86296,"Delta":37159290},{"NoteNumber":75,"Velocity":45,"Duration":533877,"SoundDuration":533877,"Delta":37159290},{"NoteNumber":73,"Velocity":50,"Duration":86764,"SoundDuration":86764,"Delta":37245586},{"NoteNumber":78,"Velocity":48,"Duration":87366,"SoundDuration":87366,"Delta":37332351},{"NoteNumber":85,"Velocity":55,"Duration":87884,"SoundDuration":87884,"Delta":37419717},{"NoteNumber":78,"Velocity":45,"Duration":88477,"SoundDuration":88477,"Delta":37507602},{"NoteNumber":85,"Velocity":45,"Duration":97087,"SoundDuration":97087,"Delta":37596080},{"NoteNumber":89,"Velocity":55,"Duration":263157,"SoundDuration":263157,"Delta":37693167},{"NoteNumber":75,"Velocity":38,"Duration":540637,"SoundDuration":540637,"Delta":37693167},{"NoteNumber":81,"Velocity":38,"Duration":540637,"SoundDuration":540637,"Delta":37693167},{"NoteNumber":72,"Velocity":38,"Duration":540637,"SoundDuration":540637,"Delta":37693167},{"NoteNumber":84,"Velocity":44,"Duration":87719,"SoundDuration":87719,"Delta":37780886},{"NoteNumber":77,"Velocity":42,"Duration":87719,"SoundDuration":87719,"Delta":37868606},{"NoteNumber":84,"Velocity":49,"Duration":87719,"SoundDuration":87719,"Delta":37956325},{"NoteNumber":77,"Velocity":43,"Duration":87719,"SoundDuration":87719,"Delta":38044044},{"NoteNumber":72,"Velocity":43,"Duration":102040,"SoundDuration":102040,"Delta":38131764},{"NoteNumber":63,"Velocity":44,"Duration":1022694,"SoundDuration":1022694,"Delta":38233804},{"NoteNumber":73,"Velocity":44,"Duration":542594,"SoundDuration":542594,"Delta":38233804},{"NoteNumber":65,"Velocity":44,"Duration":271296,"SoundDuration":271296,"Delta":38233804},{"NoteNumber":72,"Velocity":38,"Duration":67824,"SoundDuration":67824,"Delta":38301629},{"NoteNumber":84,"Velocity":51,"Duration":271296,"SoundDuration":271296,"Delta":38369453},{"NoteNumber":77,"Velocity":51,"Duration":67824,"SoundDuration":67824,"Delta":38369453},{"NoteNumber":72,"Velocity":38,"Duration":67824,"SoundDuration":67824,"Delta":38437277},{"NoteNumber":66,"Velocity":55,"Duration":271297,"SoundDuration":271297,"Delta":38505101},{"NoteNumber":71,"Velocity":43,"Duration":67824,"SoundDuration":67824,"Delta":38572926},{"NoteNumber":83,"Velocity":52,"Duration":273897,"SoundDuration":273897,"Delta":38640750},{"NoteNumber":76,"Velocity":52,"Duration":67824,"SoundDuration":67824,"Delta":38640750},{"NoteNumber":71,"Velocity":43,"Duration":67824,"SoundDuration":67824,"Delta":38708574},{"NoteNumber":67,"Velocity":66,"Duration":138248,"SoundDuration":138248,"Delta":38776398},{"NoteNumber":73,"Velocity":66,"Duration":138248,"SoundDuration":138248,"Delta":38776398},{"NoteNumber":70,"Velocity":50,"Duration":69124,"SoundDuration":69124,"Delta":38845523},{"NoteNumber":82,"Velocity":60,"Duration":69124,"SoundDuration":69124,"Delta":38914647},{"NoteNumber":75,"Velocity":60,"Duration":69124,"SoundDuration":69124,"Delta":38914647},{"NoteNumber":70,"Velocity":51,"Duration":272727,"SoundDuration":272727,"Delta":38983772},{"NoteNumber":70,"Velocity":45,"Duration":289855,"SoundDuration":289855,"Delta":39256499},{"NoteNumber":56,"Velocity":36,"Duration":289855,"SoundDuration":289855,"Delta":39256499},{"NoteNumber":63,"Velocity":36,"Duration":289855,"SoundDuration":289855,"Delta":39256499},{"NoteNumber":59,"Velocity":32,"Duration":96618,"SoundDuration":96618,"Delta":39353117},{"NoteNumber":62,"Velocity":32,"Duration":96618,"SoundDuration":96618,"Delta":39449735},{"NoteNumber":67,"Velocity":41,"Duration":289854,"SoundDuration":289854,"Delta":39546354},{"NoteNumber":63,"Velocity":36,"Duration":601449,"SoundDuration":601449,"Delta":39546354},{"NoteNumber":51,"Velocity":36,"Duration":601449,"SoundDuration":601449,"Delta":39546354},{"NoteNumber":59,"Velocity":34,"Duration":96618,"SoundDuration":96618,"Delta":39642972},{"NoteNumber":62,"Velocity":34,"Duration":96618,"SoundDuration":96618,"Delta":39739590},{"NoteNumber":65,"Velocity":44,"Duration":311594,"SoundDuration":311594,"Delta":39836209},{"NoteNumber":59,"Velocity":34,"Duration":103864,"SoundDuration":103864,"Delta":39932827},{"NoteNumber":62,"Velocity":35,"Duration":111111,"SoundDuration":111111,"Delta":40036692},{"NoteNumber":65,"Velocity":54,"Duration":296816,"SoundDuration":296816,"Delta":40147803},{"NoteNumber":55,"Velocity":42,"Duration":296816,"SoundDuration":296816,"Delta":40147803},{"NoteNumber":61,"Velocity":42,"Duration":296816,"SoundDuration":296816,"Delta":40147803},{"NoteNumber":62,"Velocity":38,"Duration":99009,"SoundDuration":99009,"Delta":40246813},{"NoteNumber":63,"Velocity":38,"Duration":98796,"SoundDuration":98796,"Delta":40345823},{"NoteNumber":64,"Velocity":38,"Duration":98058,"SoundDuration":98058,"Delta":40444619},{"NoteNumber":51,"Velocity":35,"Duration":349216,"SoundDuration":349216,"Delta":40444619},{"NoteNumber":61,"Velocity":35,"Duration":349216,"SoundDuration":349216,"Delta":40444619},{"NoteNumber":65,"Velocity":41,"Duration":97312,"SoundDuration":97312,"Delta":40542678},{"NoteNumber":71,"Velocity":44,"Duration":153846,"SoundDuration":153846,"Delta":40639990},{"NoteNumber":70,"Velocity":48,"Duration":289855,"SoundDuration":289855,"Delta":40793836},{"NoteNumber":56,"Velocity":36,"Duration":289855,"SoundDuration":289855,"Delta":40793836},{"NoteNumber":63,"Velocity":36,"Duration":289855,"SoundDuration":289855,"Delta":40793836},{"NoteNumber":59,"Velocity":32,"Duration":96618,"SoundDuration":96618,"Delta":40890454},{"NoteNumber":62,"Velocity":32,"Duration":96618,"SoundDuration":96618,"Delta":40987073},{"NoteNumber":67,"Velocity":41,"Duration":289854,"SoundDuration":289854,"Delta":41083691},{"NoteNumber":63,"Velocity":36,"Duration":601449,"SoundDuration":601449,"Delta":41083691},{"NoteNumber":51,"Velocity":36,"Duration":601449,"SoundDuration":601449,"Delta":41083691},{"NoteNumber":59,"Velocity":34,"Duration":96618,"SoundDuration":96618,"Delta":41180309},{"NoteNumber":62,"Velocity":34,"Duration":96618,"SoundDuration":96618,"Delta":41276928},{"NoteNumber":65,"Velocity":44,"Duration":311594,"SoundDuration":311594,"Delta":41373546},{"NoteNumber":59,"Velocity":34,"Duration":103864,"SoundDuration":103864,"Delta":41470164},{"NoteNumber":62,"Velocity":35,"Duration":111111,"SoundDuration":111111,"Delta":41574029},{"NoteNumber":65,"Velocity":56,"Duration":296816,"SoundDuration":296816,"Delta":41685140},{"NoteNumber":55,"Velocity":42,"Duration":296816,"SoundDuration":296816,"Delta":41685140},{"NoteNumber":61,"Velocity":42,"Duration":296816,"SoundDuration":296816,"Delta":41685140},{"NoteNumber":62,"Velocity":38,"Duration":99009,"SoundDuration":99009,"Delta":41784150},{"NoteNumber":63,"Velocity":38,"Duration":98796,"SoundDuration":98796,"Delta":41883160},{"NoteNumber":64,"Velocity":42,"Duration":98058,"SoundDuration":98058,"Delta":41981957},{"NoteNumber":51,"Velocity":35,"Duration":350409,"SoundDuration":350409,"Delta":41981957},{"NoteNumber":61,"Velocity":35,"Duration":350409,"SoundDuration":350409,"Delta":41981957},{"NoteNumber":65,"Velocity":42,"Duration":97312,"SoundDuration":97312,"Delta":42080015},{"NoteNumber":71,"Velocity":47,"Duration":155038,"SoundDuration":155038,"Delta":42177327},{"NoteNumber":70,"Velocity":48,"Duration":289855,"SoundDuration":289855,"Delta":42332366},{"NoteNumber":56,"Velocity":36,"Duration":289855,"SoundDuration":289855,"Delta":42332366},{"NoteNumber":63,"Velocity":36,"Duration":289855,"SoundDuration":289855,"Delta":42332366},{"NoteNumber":59,"Velocity":32,"Duration":96618,"SoundDuration":96618,"Delta":42428984},{"NoteNumber":62,"Velocity":32,"Duration":96618,"SoundDuration":96618,"Delta":42525603},{"NoteNumber":67,"Velocity":41,"Duration":289854,"SoundDuration":289854,"Delta":42622221},{"NoteNumber":63,"Velocity":36,"Duration":601449,"SoundDuration":601449,"Delta":42622221},{"NoteNumber":51,"Velocity":36,"Duration":601449,"SoundDuration":601449,"Delta":42622221},{"NoteNumber":59,"Velocity":34,"Duration":96618,"SoundDuration":96618,"Delta":42718839},{"NoteNumber":62,"Velocity":34,"Duration":96618,"SoundDuration":96618,"Delta":42815458},{"NoteNumber":65,"Velocity":44,"Duration":311594,"SoundDuration":311594,"Delta":42912076},{"NoteNumber":59,"Velocity":34,"Duration":103864,"SoundDuration":103864,"Delta":43008694},{"NoteNumber":62,"Velocity":35,"Duration":111111,"SoundDuration":111111,"Delta":43112559},{"NoteNumber":65,"Velocity":49,"Duration":296816,"SoundDuration":296816,"Delta":43223670},{"NoteNumber":54,"Velocity":42,"Duration":296816,"SoundDuration":296816,"Delta":43223670},{"NoteNumber":61,"Velocity":42,"Duration":296816,"SoundDuration":296816,"Delta":43223670},{"NoteNumber":60,"Velocity":38,"Duration":99009,"SoundDuration":99009,"Delta":43322680},{"NoteNumber":57,"Velocity":38,"Duration":98796,"SoundDuration":98796,"Delta":43421690},{"NoteNumber":63,"Velocity":46,"Duration":309847,"SoundDuration":309847,"Delta":43520486},{"NoteNumber":49,"Velocity":35,"Duration":309847,"SoundDuration":309847,"Delta":43520486},{"NoteNumber":60,"Velocity":38,"Duration":98039,"SoundDuration":98039,"Delta":43618658},{"NoteNumber":57,"Velocity":36,"Duration":113636,"SoundDuration":113636,"Delta":43716698},{"NoteNumber":65,"Velocity":44,"Duration":294117,"SoundDuration":294117,"Delta":43830334},{"NoteNumber":54,"Velocity":37,"Duration":294117,"SoundDuration":294117,"Delta":43830334},{"NoteNumber":61,"Velocity":37,"Duration":294117,"SoundDuration":294117,"Delta":43830334},{"NoteNumber":60,"Velocity":35,"Duration":98039,"SoundDuration":98039,"Delta":43928373},{"NoteNumber":57,"Velocity":35,"Duration":98039,"SoundDuration":98039,"Delta":44026412},{"NoteNumber":63,"Velocity":41,"Duration":305368,"SoundDuration":305368,"Delta":44124451},{"NoteNumber":49,"Velocity":30,"Duration":305368,"SoundDuration":305368,"Delta":44124451},{"NoteNumber":60,"Velocity":30,"Duration":98039,"SoundDuration":98039,"Delta":44222491},{"NoteNumber":57,"Velocity":30,"Duration":109289,"SoundDuration":109289,"Delta":44320530},{"NoteNumber":65,"Velocity":41,"Duration":294117,"SoundDuration":294117,"Delta":44429819},{"NoteNumber":54,"Velocity":38,"Duration":294117,"SoundDuration":294117,"Delta":44429819},{"NoteNumber":61,"Velocity":38,"Duration":294117,"SoundDuration":294117,"Delta":44429819},{"NoteNumber":60,"Velocity":29,"Duration":98039,"SoundDuration":98039,"Delta":44527859},{"NoteNumber":57,"Velocity":29,"Duration":98039,"SoundDuration":98039,"Delta":44625898},{"NoteNumber":63,"Velocity":38,"Duration":294117,"SoundDuration":294117,"Delta":44723937},{"NoteNumber":49,"Velocity":31,"Duration":294117,"SoundDuration":294117,"Delta":44723937},{"NoteNumber":60,"Velocity":30,"Duration":98039,"SoundDuration":98039,"Delta":44821976},{"NoteNumber":57,"Velocity":30,"Duration":98039,"SoundDuration":98039,"Delta":44920015},{"NoteNumber":42,"Velocity":27,"Duration":147058,"SoundDuration":147058,"Delta":45018054},{"NoteNumber":52,"Velocity":25,"Duration":98039,"SoundDuration":98039,"Delta":45116094},{"NoteNumber":49,"Velocity":29,"Duration":147058,"SoundDuration":147058,"Delta":45165113},{"NoteNumber":58,"Velocity":27,"Duration":98039,"SoundDuration":98039,"Delta":45214133},{"NoteNumber":63,"Velocity":29,"Duration":98039,"SoundDuration":98039,"Delta":45312172},{"NoteNumber":57,"Velocity":31,"Duration":147058,"SoundDuration":147058,"Delta":45312172},{"NoteNumber":64,"Velocity":31,"Duration":98039,"SoundDuration":98039,"Delta":45410211},{"NoteNumber":61,"Velocity":33,"Duration":147058,"SoundDuration":147058,"Delta":45459231},{"NoteNumber":69,"Velocity":33,"Duration":98039,"SoundDuration":98039,"Delta":45508250},{"NoteNumber":75,"Velocity":45,"Duration":289855,"SoundDuration":289855,"Delta":45606289},{"NoteNumber":58,"Velocity":36,"Duration":289855,"SoundDuration":289855,"Delta":45606289},{"NoteNumber":67,"Velocity":36,"Duration":289855,"SoundDuration":289855,"Delta":45606289},{"NoteNumber":69,"Velocity":32,"Duration":96618,"SoundDuration":96618,"Delta":45702908},{"NoteNumber":64,"Velocity":32,"Duration":96618,"SoundDuration":96618,"Delta":45799526},{"NoteNumber":73,"Velocity":41,"Duration":289854,"SoundDuration":289854,"Delta":45896144},{"NoteNumber":54,"Velocity":36,"Duration":601449,"SoundDuration":601449,"Delta":45896144},{"NoteNumber":69,"Velocity":34,"Duration":96618,"SoundDuration":96618,"Delta":45992763},{"NoteNumber":64,"Velocity":34,"Duration":96618,"SoundDuration":96618,"Delta":46089381},{"NoteNumber":70,"Velocity":44,"Duration":311594,"SoundDuration":311594,"Delta":46185999},{"NoteNumber":67,"Velocity":34,"Duration":103864,"SoundDuration":103864,"Delta":46282618},{"NoteNumber":64,"Velocity":35,"Duration":111111,"SoundDuration":111111,"Delta":46386483},{"NoteNumber":70,"Velocity":49,"Duration":99009,"SoundDuration":99009,"Delta":46497594},{"NoteNumber":59,"Velocity":42,"Duration":296816,"SoundDuration":296816,"Delta":46497594},{"NoteNumber":66,"Velocity":42,"Duration":296816,"SoundDuration":296816,"Delta":46497594},{"NoteNumber":62,"Velocity":38,"Duration":99009,"SoundDuration":99009,"Delta":46596604},{"NoteNumber":65,"Velocity":38,"Duration":98796,"SoundDuration":98796,"Delta":46695613},{"NoteNumber":70,"Velocity":38,"Duration":98058,"SoundDuration":98058,"Delta":46794410},{"NoteNumber":54,"Velocity":35,"Duration":349216,"SoundDuration":349216,"Delta":46794410},{"NoteNumber":71,"Velocity":41,"Duration":97312,"SoundDuration":97312,"Delta":46892468},{"NoteNumber":78,"Velocity":44,"Duration":153846,"SoundDuration":153846,"Delta":46989781},{"NoteNumber":75,"Velocity":45,"Duration":289855,"SoundDuration":289855,"Delta":47143627},{"NoteNumber":67,"Velocity":36,"Duration":289855,"SoundDuration":289855,"Delta":47143627},{"NoteNumber":58,"Velocity":36,"Duration":289855,"SoundDuration":289855,"Delta":47143627},{"NoteNumber":69,"Velocity":32,"Duration":96618,"SoundDuration":96618,"Delta":47240245},{"NoteNumber":64,"Velocity":32,"Duration":96618,"SoundDuration":96618,"Delta":47336863},{"NoteNumber":73,"Velocity":41,"Duration":289854,"SoundDuration":289854,"Delta":47433482},{"NoteNumber":54,"Velocity":36,"Duration":601449,"SoundDuration":601449,"Delta":47433482},{"NoteNumber":69,"Velocity":34,"Duration":96618,"SoundDuration":96618,"Delta":47530100},{"NoteNumber":64,"Velocity":34,"Duration":96618,"SoundDuration":96618,"Delta":47626718},{"NoteNumber":70,"Velocity":44,"Duration":311594,"SoundDuration":311594,"Delta":47723337},{"NoteNumber":67,"Velocity":34,"Duration":103864,"SoundDuration":103864,"Delta":47819955},{"NoteNumber":64,"Velocity":35,"Duration":111111,"SoundDuration":111111,"Delta":47923820},{"NoteNumber":70,"Velocity":49,"Duration":99009,"SoundDuration":99009,"Delta":48034931},{"NoteNumber":66,"Velocity":42,"Duration":296816,"SoundDuration":296816,"Delta":48034931},{"NoteNumber":59,"Velocity":42,"Duration":296816,"SoundDuration":296816,"Delta":48034931},{"NoteNumber":62,"Velocity":38,"Duration":99009,"SoundDuration":99009,"Delta":48133941},{"NoteNumber":65,"Velocity":38,"Duration":98796,"SoundDuration":98796,"Delta":48232951},{"NoteNumber":70,"Velocity":38,"Duration":98058,"SoundDuration":98058,"Delta":48331747},{"NoteNumber":54,"Velocity":35,"Duration":349216,"SoundDuration":349216,"Delta":48331747},{"NoteNumber":71,"Velocity":41,"Duration":97312,"SoundDuration":97312,"Delta":48429806},{"NoteNumber":78,"Velocity":44,"Duration":153846,"SoundDuration":153846,"Delta":48527118},{"NoteNumber":75,"Velocity":51,"Duration":279288,"SoundDuration":279288,"Delta":48680964},{"NoteNumber":60,"Velocity":44,"Duration":554752,"SoundDuration":554752,"Delta":48680964},{"NoteNumber":63,"Velocity":39,"Duration":138996,"SoundDuration":138996,"Delta":48821256},{"NoteNumber":69,"Velocity":38,"Duration":275464,"SoundDuration":275464,"Delta":48960253},{"NoteNumber":68,"Velocity":39,"Duration":138111,"SoundDuration":138111,"Delta":48960253},{"NoteNumber":66,"Velocity":39,"Duration":137352,"SoundDuration":137352,"Delta":49098364},{"NoteNumber":70,"Velocity":37,"Duration":272355,"SoundDuration":272355,"Delta":49235717},{"NoteNumber":63,"Velocity":50,"Duration":523163,"SoundDuration":523163,"Delta":49235717},{"NoteNumber":66,"Velocity":40,"Duration":135752,"SoundDuration":135752,"Delta":49372319},{"NoteNumber":78,"Velocity":58,"Duration":250808,"SoundDuration":250808,"Delta":49508072},{"NoteNumber":74,"Velocity":40,"Duration":126459,"SoundDuration":126459,"Delta":49508072},{"NoteNumber":73,"Velocity":44,"Duration":124348,"SoundDuration":124348,"Delta":49634532},{"NoteNumber":74,"Velocity":40,"Duration":246448,"SoundDuration":246448,"Delta":49758880},{"NoteNumber":66,"Velocity":54,"Duration":489773,"SoundDuration":489773,"Delta":49758880},{"NoteNumber":70,"Velocity":41,"Duration":122796,"SoundDuration":122796,"Delta":49882533},{"NoteNumber":75,"Velocity":43,"Duration":243325,"SoundDuration":243325,"Delta":50005329},{"NoteNumber":73,"Velocity":42,"Duration":122071,"SoundDuration":122071,"Delta":50005329},{"NoteNumber":72,"Velocity":42,"Duration":121253,"SoundDuration":121253,"Delta":50127400},{"NoteNumber":82,"Velocity":62,"Duration":226157,"SoundDuration":226157,"Delta":50248654},{"NoteNumber":70,"Velocity":59,"Duration":449752,"SoundDuration":449752,"Delta":50248654},{"NoteNumber":73,"Velocity":44,"Duration":112786,"SoundDuration":112786,"Delta":50362026},{"NoteNumber":77,"Velocity":50,"Duration":223594,"SoundDuration":223594,"Delta":50474812},{"NoteNumber":75,"Velocity":44,"Duration":112135,"SoundDuration":112135,"Delta":50474812},{"NoteNumber":73,"Velocity":44,"Duration":111459,"SoundDuration":111459,"Delta":50586948},{"NoteNumber":78,"Velocity":50,"Duration":221027,"SoundDuration":221027,"Delta":50698407},{"NoteNumber":75,"Velocity":61,"Duration":110858,"SoundDuration":110858,"Delta":50698407},{"NoteNumber":81,"Velocity":49,"Duration":110169,"SoundDuration":110169,"Delta":50809265},{"NoteNumber":87,"Velocity":67,"Duration":213690,"SoundDuration":213690,"Delta":50919434},{"NoteNumber":72,"Velocity":49,"Duration":424793,"SoundDuration":424793,"Delta":50919434},{"NoteNumber":75,"Velocity":49,"Duration":106547,"SoundDuration":106547,"Delta":51026577},{"NoteNumber":81,"Velocity":55,"Duration":211102,"SoundDuration":211102,"Delta":51133125},{"NoteNumber":80,"Velocity":65,"Duration":105835,"SoundDuration":105835,"Delta":51133125},{"NoteNumber":78,"Velocity":52,"Duration":105266,"SoundDuration":105266,"Delta":51238961},{"NoteNumber":82,"Velocity":55,"Duration":208752,"SoundDuration":208752,"Delta":51344228},{"NoteNumber":75,"Velocity":53,"Duration":409489,"SoundDuration":409489,"Delta":51344228},{"NoteNumber":78,"Velocity":53,"Duration":104052,"SoundDuration":104052,"Delta":51448928},{"NoteNumber":90,"Velocity":76,"Duration":200736,"SoundDuration":200736,"Delta":51552981},{"NoteNumber":86,"Velocity":72,"Duration":100671,"SoundDuration":100671,"Delta":51552981},{"NoteNumber":85,"Velocity":51,"Duration":100064,"SoundDuration":100064,"Delta":51653652},{"NoteNumber":86,"Velocity":67,"Duration":198240,"SoundDuration":198240,"Delta":51753717},{"NoteNumber":78,"Velocity":51,"Duration":394147,"SoundDuration":394147,"Delta":51753717},{"NoteNumber":82,"Velocity":51,"Duration":98822,"SoundDuration":98822,"Delta":51853135},{"NoteNumber":87,"Velocity":74,"Duration":195907,"SoundDuration":195907,"Delta":51951957},{"NoteNumber":85,"Velocity":72,"Duration":98234,"SoundDuration":98234,"Delta":51951957},{"NoteNumber":84,"Velocity":52,"Duration":97672,"SoundDuration":97672,"Delta":52050192},{"NoteNumber":94,"Velocity":85,"Duration":191693,"SoundDuration":191693,"Delta":52147865},{"NoteNumber":82,"Velocity":52,"Duration":383386,"SoundDuration":383386,"Delta":52147865},{"NoteNumber":85,"Velocity":52,"Duration":95846,"SoundDuration":95846,"Delta":52243712},{"NoteNumber":89,"Velocity":75,"Duration":191693,"SoundDuration":191693,"Delta":52339558},{"NoteNumber":87,"Velocity":72,"Duration":95846,"SoundDuration":95846,"Delta":52339558},{"NoteNumber":85,"Velocity":57,"Duration":95846,"SoundDuration":95846,"Delta":52435405},{"NoteNumber":90,"Velocity":83,"Duration":201589,"SoundDuration":201589,"Delta":52531252},{"NoteNumber":87,"Velocity":57,"Duration":95846,"SoundDuration":95846,"Delta":52531252},{"NoteNumber":93,"Velocity":57,"Duration":105742,"SoundDuration":105742,"Delta":52627099},{"NoteNumber":99,"Velocity":87,"Duration":97057,"SoundDuration":97057,"Delta":52732841},{"NoteNumber":94,"Velocity":73,"Duration":97057,"SoundDuration":97057,"Delta":52732841},{"NoteNumber":90,"Velocity":73,"Duration":97057,"SoundDuration":97057,"Delta":52732841},{"NoteNumber":93,"Velocity":72,"Duration":96042,"SoundDuration":96042,"Delta":52829898},{"NoteNumber":89,"Velocity":60,"Duration":96042,"SoundDuration":96042,"Delta":52829898},{"NoteNumber":84,"Velocity":60,"Duration":96042,"SoundDuration":96042,"Delta":52829898},{"NoteNumber":90,"Velocity":73,"Duration":95158,"SoundDuration":95158,"Delta":52925940},{"NoteNumber":94,"Velocity":73,"Duration":95158,"SoundDuration":95158,"Delta":52925940},{"NoteNumber":99,"Velocity":87,"Duration":95158,"SoundDuration":95158,"Delta":52925940},{"NoteNumber":84,"Velocity":60,"Duration":94113,"SoundDuration":94113,"Delta":53021099},{"NoteNumber":89,"Velocity":60,"Duration":94113,"SoundDuration":94113,"Delta":53021099},{"NoteNumber":93,"Velocity":72,"Duration":94113,"SoundDuration":94113,"Delta":53021099},{"NoteNumber":99,"Velocity":87,"Duration":92490,"SoundDuration":92490,"Delta":53115213},{"NoteNumber":94,"Velocity":73,"Duration":92490,"SoundDuration":92490,"Delta":53115213},{"NoteNumber":90,"Velocity":73,"Duration":92490,"SoundDuration":92490,"Delta":53115213},{"NoteNumber":93,"Velocity":72,"Duration":90747,"SoundDuration":90747,"Delta":53207704},{"NoteNumber":89,"Velocity":61,"Duration":90747,"SoundDuration":90747,"Delta":53207704},{"NoteNumber":84,"Velocity":61,"Duration":90747,"SoundDuration":90747,"Delta":53207704},{"NoteNumber":90,"Velocity":72,"Duration":88825,"SoundDuration":88825,"Delta":53298451},{"NoteNumber":94,"Velocity":72,"Duration":88825,"SoundDuration":88825,"Delta":53298451},{"NoteNumber":99,"Velocity":86,"Duration":88825,"SoundDuration":88825,"Delta":53298451},{"NoteNumber":84,"Velocity":61,"Duration":85795,"SoundDuration":85795,"Delta":53387276},{"NoteNumber":89,"Velocity":61,"Duration":85795,"SoundDuration":85795,"Delta":53387276},{"NoteNumber":93,"Velocity":72,"Duration":85795,"SoundDuration":85795,"Delta":53387276},{"NoteNumber":99,"Velocity":86,"Duration":82385,"SoundDuration":82385,"Delta":53473071},{"NoteNumber":94,"Velocity":72,"Duration":82385,"SoundDuration":82385,"Delta":53473071},{"NoteNumber":90,"Velocity":72,"Duration":82385,"SoundDuration":82385,"Delta":53473071},{"NoteNumber":93,"Velocity":72,"Duration":79984,"SoundDuration":79984,"Delta":53555457},{"NoteNumber":89,"Velocity":61,"Duration":79984,"SoundDuration":79984,"Delta":53555457},{"NoteNumber":84,"Velocity":61,"Duration":79984,"SoundDuration":79984,"Delta":53555457},{"NoteNumber":90,"Velocity":72,"Duration":77792,"SoundDuration":77792,"Delta":53635441},{"NoteNumber":94,"Velocity":72,"Duration":77792,"SoundDuration":77792,"Delta":53635441},{"NoteNumber":99,"Velocity":85,"Duration":77792,"SoundDuration":77792,"Delta":53635441},{"NoteNumber":84,"Velocity":60,"Duration":75730,"SoundDuration":75730,"Delta":53713234},{"NoteNumber":89,"Velocity":60,"Duration":75730,"SoundDuration":75730,"Delta":53713234},{"NoteNumber":93,"Velocity":72,"Duration":75730,"SoundDuration":75730,"Delta":53713234},{"NoteNumber":99,"Velocity":85,"Duration":73696,"SoundDuration":73696,"Delta":53788965},{"NoteNumber":94,"Velocity":72,"Duration":73696,"SoundDuration":73696,"Delta":53788965},{"NoteNumber":90,"Velocity":72,"Duration":73696,"SoundDuration":73696,"Delta":53788965},{"NoteNumber":93,"Velocity":71,"Duration":71831,"SoundDuration":71831,"Delta":53862661},{"NoteNumber":89,"Velocity":59,"Duration":71831,"SoundDuration":71831,"Delta":53862661},{"NoteNumber":84,"Velocity":59,"Duration":71831,"SoundDuration":71831,"Delta":53862661},{"NoteNumber":90,"Velocity":72,"Duration":70069,"SoundDuration":70069,"Delta":53934493},{"NoteNumber":94,"Velocity":72,"Duration":70069,"SoundDuration":70069,"Delta":53934493},{"NoteNumber":99,"Velocity":85,"Duration":70069,"SoundDuration":70069,"Delta":53934493},{"NoteNumber":84,"Velocity":59,"Duration":67783,"SoundDuration":67783,"Delta":54004563},{"NoteNumber":89,"Velocity":59,"Duration":67783,"SoundDuration":67783,"Delta":54004563},{"NoteNumber":93,"Velocity":70,"Duration":67783,"SoundDuration":67783,"Delta":54004563},{"NoteNumber":99,"Velocity":84,"Duration":67070,"SoundDuration":67070,"Delta":54072346},{"NoteNumber":94,"Velocity":71,"Duration":67070,"SoundDuration":67070,"Delta":54072346},{"NoteNumber":90,"Velocity":71,"Duration":67070,"SoundDuration":67070,"Delta":54072346},{"NoteNumber":93,"Velocity":70,"Duration":66391,"SoundDuration":66391,"Delta":54139416},{"NoteNumber":89,"Velocity":59,"Duration":66391,"SoundDuration":66391,"Delta":54139416},{"NoteNumber":84,"Velocity":59,"Duration":66391,"SoundDuration":66391,"Delta":54139416},{"NoteNumber":90,"Velocity":71,"Duration":65665,"SoundDuration":65665,"Delta":54205808},{"NoteNumber":94,"Velocity":71,"Duration":65665,"SoundDuration":65665,"Delta":54205808},{"NoteNumber":99,"Velocity":84,"Duration":65665,"SoundDuration":65665,"Delta":54205808},{"NoteNumber":84,"Velocity":60,"Duration":65034,"SoundDuration":65034,"Delta":54271473},{"NoteNumber":89,"Velocity":60,"Duration":65034,"SoundDuration":65034,"Delta":54271473},{"NoteNumber":93,"Velocity":71,"Duration":65034,"SoundDuration":65034,"Delta":54271473},{"NoteNumber":99,"Velocity":83,"Duration":64396,"SoundDuration":64396,"Delta":54336507},{"NoteNumber":94,"Velocity":70,"Duration":64396,"SoundDuration":64396,"Delta":54336507},{"NoteNumber":90,"Velocity":70,"Duration":64396,"SoundDuration":64396,"Delta":54336507},{"NoteNumber":93,"Velocity":69,"Duration":63712,"SoundDuration":63712,"Delta":54400904},{"NoteNumber":89,"Velocity":58,"Duration":63712,"SoundDuration":63712,"Delta":54400904},{"NoteNumber":84,"Velocity":58,"Duration":63712,"SoundDuration":63712,"Delta":54400904},{"NoteNumber":90,"Velocity":70,"Duration":63118,"SoundDuration":63118,"Delta":54464617},{"NoteNumber":94,"Velocity":70,"Duration":63118,"SoundDuration":63118,"Delta":54464617},{"NoteNumber":99,"Velocity":83,"Duration":63118,"SoundDuration":63118,"Delta":54464617},{"NoteNumber":84,"Velocity":59,"Duration":62517,"SoundDuration":62517,"Delta":54527735},{"NoteNumber":89,"Velocity":59,"Duration":62517,"SoundDuration":62517,"Delta":54527735},{"NoteNumber":93,"Velocity":70,"Duration":62517,"SoundDuration":62517,"Delta":54527735},{"NoteNumber":99,"Velocity":83,"Duration":62155,"SoundDuration":62155,"Delta":54590253},{"NoteNumber":94,"Velocity":70,"Duration":62155,"SoundDuration":62155,"Delta":54590253},{"NoteNumber":90,"Velocity":70,"Duration":62155,"SoundDuration":62155,"Delta":54590253},{"NoteNumber":93,"Velocity":67,"Duration":61983,"SoundDuration":61983,"Delta":54652409},{"NoteNumber":89,"Velocity":56,"Duration":61983,"SoundDuration":61983,"Delta":54652409},{"NoteNumber":84,"Velocity":56,"Duration":61983,"SoundDuration":61983,"Delta":54652409},{"NoteNumber":90,"Velocity":66,"Duration":61983,"SoundDuration":61983,"Delta":54714392},{"NoteNumber":94,"Velocity":66,"Duration":61983,"SoundDuration":61983,"Delta":54714392},{"NoteNumber":99,"Velocity":78,"Duration":61983,"SoundDuration":61983,"Delta":54714392},{"NoteNumber":84,"Velocity":54,"Duration":61983,"SoundDuration":61983,"Delta":54776376},{"NoteNumber":89,"Velocity":54,"Duration":61983,"SoundDuration":61983,"Delta":54776376},{"NoteNumber":93,"Velocity":64,"Duration":61983,"SoundDuration":61983,"Delta":54776376},{"NoteNumber":99,"Velocity":74,"Duration":61983,"SoundDuration":61983,"Delta":54838359},{"NoteNumber":94,"Velocity":62,"Duration":61983,"SoundDuration":61983,"Delta":54838359},{"NoteNumber":90,"Velocity":62,"Duration":61983,"SoundDuration":61983,"Delta":54838359},{"NoteNumber":93,"Velocity":61,"Duration":61983,"SoundDuration":61983,"Delta":54900343},{"NoteNumber":89,"Velocity":51,"Duration":61983,"SoundDuration":61983,"Delta":54900343},{"NoteNumber":84,"Velocity":51,"Duration":61983,"SoundDuration":61983,"Delta":54900343},{"NoteNumber":90,"Velocity":59,"Duration":61983,"SoundDuration":61983,"Delta":54962326},{"NoteNumber":94,"Velocity":59,"Duration":61983,"SoundDuration":61983,"Delta":54962326},{"NoteNumber":99,"Velocity":70,"Duration":61983,"SoundDuration":61983,"Delta":54962326},{"NoteNumber":84,"Velocity":49,"Duration":61720,"SoundDuration":61720,"Delta":55024310},{"NoteNumber":89,"Velocity":49,"Duration":61720,"SoundDuration":61720,"Delta":55024310},{"NoteNumber":93,"Velocity":58,"Duration":61720,"SoundDuration":61720,"Delta":55024310},{"NoteNumber":99,"Velocity":66,"Duration":61754,"SoundDuration":61754,"Delta":55086031},{"NoteNumber":94,"Velocity":56,"Duration":61754,"SoundDuration":61754,"Delta":55086031},{"NoteNumber":90,"Velocity":56,"Duration":61754,"SoundDuration":61754,"Delta":55086031},{"NoteNumber":93,"Velocity":54,"Duration":62137,"SoundDuration":62137,"Delta":55147785},{"NoteNumber":89,"Velocity":45,"Duration":62137,"SoundDuration":62137,"Delta":55147785},{"NoteNumber":84,"Velocity":45,"Duration":62137,"SoundDuration":62137,"Delta":55147785},{"NoteNumber":90,"Velocity":52,"Duration":62569,"SoundDuration":62569,"Delta":55209923},{"NoteNumber":94,"Velocity":52,"Duration":62569,"SoundDuration":62569,"Delta":55209923},{"NoteNumber":99,"Velocity":62,"Duration":62569,"SoundDuration":62569,"Delta":55209923},{"NoteNumber":84,"Velocity":43,"Duration":62946,"SoundDuration":62946,"Delta":55272493},{"NoteNumber":89,"Velocity":43,"Duration":62946,"SoundDuration":62946,"Delta":55272493},{"NoteNumber":93,"Velocity":51,"Duration":62946,"SoundDuration":62946,"Delta":55272493},{"NoteNumber":99,"Velocity":58,"Duration":63416,"SoundDuration":63416,"Delta":55335439},{"NoteNumber":94,"Velocity":49,"Duration":63416,"SoundDuration":63416,"Delta":55335439},{"NoteNumber":90,"Velocity":49,"Duration":63416,"SoundDuration":63416,"Delta":55335439},{"NoteNumber":93,"Velocity":46,"Duration":64185,"SoundDuration":64185,"Delta":55398855},{"NoteNumber":89,"Velocity":39,"Duration":64185,"SoundDuration":64185,"Delta":55398855},{"NoteNumber":84,"Velocity":39,"Duration":64185,"SoundDuration":64185,"Delta":55398855},{"NoteNumber":90,"Velocity":45,"Duration":65053,"SoundDuration":65053,"Delta":55463041},{"NoteNumber":94,"Velocity":45,"Duration":65053,"SoundDuration":65053,"Delta":55463041},{"NoteNumber":99,"Velocity":53,"Duration":65053,"SoundDuration":65053,"Delta":55463041},{"NoteNumber":84,"Velocity":36,"Duration":65949,"SoundDuration":65949,"Delta":55528095},{"NoteNumber":89,"Velocity":36,"Duration":65949,"SoundDuration":65949,"Delta":55528095},{"NoteNumber":93,"Velocity":43,"Duration":65949,"SoundDuration":65949,"Delta":55528095},{"NoteNumber":99,"Velocity":49,"Duration":66861,"SoundDuration":66861,"Delta":55594045},{"NoteNumber":94,"Velocity":41,"Duration":66861,"SoundDuration":66861,"Delta":55594045},{"NoteNumber":90,"Velocity":41,"Duration":66861,"SoundDuration":66861,"Delta":55594045},{"NoteNumber":93,"Velocity":40,"Duration":67993,"SoundDuration":67993,"Delta":55660906},{"NoteNumber":89,"Velocity":34,"Duration":67993,"SoundDuration":67993,"Delta":55660906},{"NoteNumber":84,"Velocity":34,"Duration":67993,"SoundDuration":67993,"Delta":55660906},{"NoteNumber":90,"Velocity":38,"Duration":69093,"SoundDuration":69093,"Delta":55728900},{"NoteNumber":94,"Velocity":38,"Duration":69093,"SoundDuration":69093,"Delta":55728900},{"NoteNumber":99,"Velocity":45,"Duration":69093,"SoundDuration":69093,"Delta":55728900},{"NoteNumber":84,"Velocity":31,"Duration":70111,"SoundDuration":70111,"Delta":55797993},{"NoteNumber":89,"Velocity":31,"Duration":70111,"SoundDuration":70111,"Delta":55797993},{"NoteNumber":93,"Velocity":37,"Duration":70111,"SoundDuration":70111,"Delta":55797993},{"NoteNumber":99,"Velocity":41,"Duration":71153,"SoundDuration":71153,"Delta":55868104},{"NoteNumber":94,"Velocity":34,"Duration":71153,"SoundDuration":71153,"Delta":55868104},{"NoteNumber":90,"Velocity":34,"Duration":71153,"SoundDuration":71153,"Delta":55868104},{"NoteNumber":93,"Velocity":33,"Duration":72291,"SoundDuration":72291,"Delta":55939258},{"NoteNumber":89,"Velocity":28,"Duration":72291,"SoundDuration":72291,"Delta":55939258},{"NoteNumber":84,"Velocity":28,"Duration":72291,"SoundDuration":72291,"Delta":55939258},{"NoteNumber":90,"Velocity":31,"Duration":78143,"SoundDuration":78143,"Delta":56011549},{"NoteNumber":94,"Velocity":31,"Duration":78143,"SoundDuration":78143,"Delta":56011549},{"NoteNumber":99,"Velocity":37,"Duration":78143,"SoundDuration":78143,"Delta":56011549},{"NoteNumber":84,"Velocity":25,"Duration":98578,"SoundDuration":98578,"Delta":56089692},{"NoteNumber":89,"Velocity":25,"Duration":98578,"SoundDuration":98578,"Delta":56089692},{"NoteNumber":93,"Velocity":30,"Duration":98578,"SoundDuration":98578,"Delta":56089692},{"NoteNumber":99,"Velocity":40,"Duration":76495,"SoundDuration":76495,"Delta":56188271},{"NoteNumber":89,"Velocity":35,"Duration":112981,"SoundDuration":112981,"Delta":56188271},{"NoteNumber":94,"Velocity":27,"Duration":71367,"SoundDuration":71367,"Delta":56264767},{"NoteNumber":87,"Velocity":28,"Duration":100458,"SoundDuration":100458,"Delta":56301252},{"NoteNumber":90,"Velocity":27,"Duration":65576,"SoundDuration":65576,"Delta":56336134},{"NoteNumber":94,"Velocity":39,"Duration":60962,"SoundDuration":60962,"Delta":56401710},{"NoteNumber":84,"Velocity":35,"Duration":89772,"SoundDuration":89772,"Delta":56401710},{"NoteNumber":90,"Velocity":26,"Duration":57219,"SoundDuration":57219,"Delta":56462673},{"NoteNumber":82,"Velocity":26,"Duration":85227,"SoundDuration":85227,"Delta":56491483},{"NoteNumber":87,"Velocity":26,"Duration":56818,"SoundDuration":56818,"Delta":56519892},{"NoteNumber":90,"Velocity":39,"Duration":56818,"SoundDuration":56818,"Delta":56576710},{"NoteNumber":84,"Velocity":36,"Duration":85227,"SoundDuration":85227,"Delta":56576710},{"NoteNumber":87,"Velocity":29,"Duration":56818,"SoundDuration":56818,"Delta":56633528},{"NoteNumber":78,"Velocity":29,"Duration":85227,"SoundDuration":85227,"Delta":56661938},{"NoteNumber":82,"Velocity":29,"Duration":56818,"SoundDuration":56818,"Delta":56690347},{"NoteNumber":87,"Velocity":40,"Duration":56802,"SoundDuration":56802,"Delta":56747165},{"NoteNumber":77,"Velocity":35,"Duration":85050,"SoundDuration":85050,"Delta":56747165},{"NoteNumber":82,"Velocity":27,"Duration":56497,"SoundDuration":56497,"Delta":56803967},{"NoteNumber":75,"Velocity":28,"Duration":84555,"SoundDuration":84555,"Delta":56832215},{"NoteNumber":78,"Velocity":27,"Duration":56306,"SoundDuration":56306,"Delta":56860464},{"NoteNumber":82,"Velocity":39,"Duration":55975,"SoundDuration":55975,"Delta":56916771},{"NoteNumber":72,"Velocity":35,"Duration":83854,"SoundDuration":83854,"Delta":56916771},{"NoteNumber":78,"Velocity":26,"Duration":55656,"SoundDuration":55656,"Delta":56972747},{"NoteNumber":70,"Velocity":26,"Duration":83256,"SoundDuration":83256,"Delta":57000625},{"NoteNumber":75,"Velocity":26,"Duration":55478,"SoundDuration":55478,"Delta":57028403},{"NoteNumber":78,"Velocity":39,"Duration":55165,"SoundDuration":55165,"Delta":57083882},{"NoteNumber":72,"Velocity":36,"Duration":82637,"SoundDuration":82637,"Delta":57083882},{"NoteNumber":75,"Velocity":29,"Duration":54847,"SoundDuration":54847,"Delta":57139047},{"NoteNumber":66,"Velocity":29,"Duration":82019,"SoundDuration":82019,"Delta":57166519},{"NoteNumber":70,"Velocity":29,"Duration":54644,"SoundDuration":54644,"Delta":57193894},{"NoteNumber":75,"Velocity":40,"Duration":54384,"SoundDuration":54384,"Delta":57248539},{"NoteNumber":65,"Velocity":35,"Duration":81434,"SoundDuration":81434,"Delta":57248539},{"NoteNumber":70,"Velocity":27,"Duration":54076,"SoundDuration":54076,"Delta":57302924},{"NoteNumber":63,"Velocity":28,"Duration":80804,"SoundDuration":80804,"Delta":57329973},{"NoteNumber":66,"Velocity":27,"Duration":53777,"SoundDuration":53777,"Delta":57357000},{"NoteNumber":70,"Velocity":39,"Duration":53612,"SoundDuration":53612,"Delta":57410778},{"NoteNumber":60,"Velocity":35,"Duration":80336,"SoundDuration":80336,"Delta":57410778},{"NoteNumber":66,"Velocity":26,"Duration":53319,"SoundDuration":53319,"Delta":57464391},{"NoteNumber":58,"Velocity":26,"Duration":79618,"SoundDuration":79618,"Delta":57491114},{"NoteNumber":63,"Velocity":26,"Duration":53022,"SoundDuration":53022,"Delta":57517710},{"NoteNumber":66,"Velocity":39,"Duration":52729,"SoundDuration":52729,"Delta":57570733},{"NoteNumber":60,"Velocity":36,"Duration":79044,"SoundDuration":79044,"Delta":57570733},{"NoteNumber":63,"Velocity":29,"Duration":52631,"SoundDuration":52631,"Delta":57623462},{"NoteNumber":54,"Velocity":29,"Duration":78947,"SoundDuration":78947,"Delta":57649778},{"NoteNumber":58,"Velocity":29,"Duration":52631,"SoundDuration":52631,"Delta":57676094},{"NoteNumber":57,"Velocity":39,"Duration":105263,"SoundDuration":105263,"Delta":57886620},{"NoteNumber":53,"Velocity":38,"Duration":157894,"SoundDuration":157894,"Delta":57886620},{"NoteNumber":63,"Velocity":31,"Duration":105263,"SoundDuration":105263,"Delta":57991883},{"NoteNumber":58,"Velocity":31,"Duration":105263,"SoundDuration":105263,"Delta":57991883},{"NoteNumber":51,"Velocity":31,"Duration":157894,"SoundDuration":157894,"Delta":58044515},{"NoteNumber":53,"Velocity":35,"Duration":105263,"SoundDuration":105263,"Delta":58097146},{"NoteNumber":58,"Velocity":31,"Duration":105263,"SoundDuration":105263,"Delta":58202409},{"NoteNumber":54,"Velocity":31,"Duration":105263,"SoundDuration":105263,"Delta":58202409},{"NoteNumber":46,"Velocity":37,"Duration":157894,"SoundDuration":157894,"Delta":58202409},{"NoteNumber":50,"Velocity":36,"Duration":105263,"SoundDuration":105263,"Delta":58307673},{"NoteNumber":41,"Velocity":31,"Duration":157894,"SoundDuration":157894,"Delta":58360304},{"NoteNumber":54,"Velocity":31,"Duration":105263,"SoundDuration":105263,"Delta":58412936},{"NoteNumber":51,"Velocity":31,"Duration":105263,"SoundDuration":105263,"Delta":58412936},{"NoteNumber":29,"Velocity":42,"Duration":530973,"SoundDuration":530973,"Delta":58518199},{"NoteNumber":65,"Velocity":49,"Duration":1061946,"SoundDuration":1061946,"Delta":59049172},{"NoteNumber":53,"Velocity":41,"Duration":1061946,"SoundDuration":1061946,"Delta":59049172},{"NoteNumber":53,"Velocity":39,"Duration":1018778,"SoundDuration":1018778,"Delta":60111119},{"NoteNumber":65,"Velocity":46,"Duration":1018778,"SoundDuration":1018778,"Delta":60111119},{"NoteNumber":53,"Velocity":35,"Duration":949761,"SoundDuration":949761,"Delta":61129898},{"NoteNumber":65,"Velocity":42,"Duration":949761,"SoundDuration":949761,"Delta":61129898},{"NoteNumber":65,"Velocity":33,"Duration":966673,"SoundDuration":966673,"Delta":62083541},{"NoteNumber":53,"Velocity":28,"Duration":966673,"SoundDuration":966673,"Delta":62083541},{"NoteNumber":53,"Velocity":24,"Duration":945938,"SoundDuration":945938,"Delta":63050214},{"NoteNumber":65,"Velocity":29,"Duration":945938,"SoundDuration":945938,"Delta":63050214},{"NoteNumber":49,"Velocity":27,"Duration":890208,"SoundDuration":890208,"Delta":63551049},{"NoteNumber":52,"Velocity":27,"Duration":890208,"SoundDuration":890208,"Delta":63551049},{"NoteNumber":60,"Velocity":46,"Duration":890208,"SoundDuration":890208,"Delta":63551049},{"NoteNumber":65,"Velocity":29,"Duration":925872,"SoundDuration":925872,"Delta":63996153},{"NoteNumber":53,"Velocity":24,"Duration":925872,"SoundDuration":925872,"Delta":63996153},{"NoteNumber":57,"Velocity":42,"Duration":1851746,"SoundDuration":1851746,"Delta":64441257},{"NoteNumber":49,"Velocity":24,"Duration":1851746,"SoundDuration":1851746,"Delta":64441257},{"NoteNumber":46,"Velocity":24,"Duration":1851746,"SoundDuration":1851746,"Delta":64441257},{"NoteNumber":65,"Velocity":29,"Duration":925873,"SoundDuration":925873,"Delta":64922026},{"NoteNumber":53,"Velocity":24,"Duration":925873,"SoundDuration":925873,"Delta":64922026},{"NoteNumber":65,"Velocity":29,"Duration":890208,"SoundDuration":890208,"Delta":65847899},{"NoteNumber":53,"Velocity":24,"Duration":890208,"SoundDuration":890208,"Delta":65847899},{"NoteNumber":41,"Velocity":39,"Duration":1859513,"SoundDuration":1859513,"Delta":66293003},{"NoteNumber":53,"Velocity":24,"Duration":929756,"SoundDuration":929756,"Delta":66738107},{"NoteNumber":65,"Velocity":29,"Duration":929756,"SoundDuration":929756,"Delta":66738107},{"NoteNumber":49,"Velocity":27,"Duration":969305,"SoundDuration":969305,"Delta":67183211},{"NoteNumber":52,"Velocity":27,"Duration":969305,"SoundDuration":969305,"Delta":67183211},{"NoteNumber":60,"Velocity":47,"Duration":969305,"SoundDuration":969305,"Delta":67183211},{"NoteNumber":53,"Velocity":24,"Duration":926478,"SoundDuration":926478,"Delta":67667863},{"NoteNumber":65,"Velocity":29,"Duration":922796,"SoundDuration":922796,"Delta":67667863},{"NoteNumber":54,"Velocity":31,"Duration":883651,"SoundDuration":883651,"Delta":68152516},{"NoteNumber":56,"Velocity":31,"Duration":883651,"SoundDuration":883651,"Delta":68152516},{"NoteNumber":65,"Velocity":54,"Duration":441826,"SoundDuration":441826,"Delta":68152516},{"NoteNumber":53,"Velocity":24,"Duration":900541,"SoundDuration":900541,"Delta":68594342},{"NoteNumber":65,"Velocity":29,"Duration":900541,"SoundDuration":900541,"Delta":68594342},{"NoteNumber":63,"Velocity":51,"Duration":917430,"SoundDuration":917430,"Delta":69036168},{"NoteNumber":58,"Velocity":29,"Duration":917430,"SoundDuration":917430,"Delta":69036168},{"NoteNumber":55,"Velocity":29,"Duration":917430,"SoundDuration":917430,"Delta":69036168},{"NoteNumber":65,"Velocity":29,"Duration":951326,"SoundDuration":951326,"Delta":69494883},{"NoteNumber":53,"Velocity":24,"Duration":951326,"SoundDuration":951326,"Delta":69494883},{"NoteNumber":49,"Velocity":28,"Duration":985221,"SoundDuration":985221,"Delta":69953599},{"NoteNumber":51,"Velocity":28,"Duration":985221,"SoundDuration":985221,"Delta":69953599},{"NoteNumber":60,"Velocity":49,"Duration":985221,"SoundDuration":985221,"Delta":69953599},{"NoteNumber":65,"Velocity":29,"Duration":954860,"SoundDuration":954860,"Delta":70446210},{"NoteNumber":53,"Velocity":24,"Duration":954860,"SoundDuration":954860,"Delta":70446210},{"NoteNumber":46,"Velocity":26,"Duration":924498,"SoundDuration":924498,"Delta":70938821},{"NoteNumber":49,"Velocity":26,"Duration":924498,"SoundDuration":924498,"Delta":70938821},{"NoteNumber":57,"Velocity":45,"Duration":924498,"SoundDuration":924498,"Delta":70938821},{"NoteNumber":65,"Velocity":29,"Duration":950849,"SoundDuration":950849,"Delta":71401070},{"NoteNumber":53,"Velocity":24,"Duration":950849,"SoundDuration":950849,"Delta":71401070},{"NoteNumber":47,"Velocity":32,"Duration":977198,"SoundDuration":977198,"Delta":71863320},{"NoteNumber":50,"Velocity":32,"Duration":977198,"SoundDuration":977198,"Delta":71863320},{"NoteNumber":58,"Velocity":55,"Duration":977198,"SoundDuration":977198,"Delta":71863320},{"NoteNumber":53,"Velocity":24,"Duration":958082,"SoundDuration":958082,"Delta":72351919},{"NoteNumber":65,"Velocity":29,"Duration":958082,"SoundDuration":958082,"Delta":72351919},{"NoteNumber":48,"Velocity":29,"Duration":1944164,"SoundDuration":1944164,"Delta":72840519},{"NoteNumber":51,"Velocity":29,"Duration":1944164,"SoundDuration":1944164,"Delta":72840519},{"NoteNumber":55,"Velocity":50,"Duration":1944164,"SoundDuration":1944164,"Delta":72840519},{"NoteNumber":65,"Velocity":29,"Duration":1005197,"SoundDuration":1005197,"Delta":73310002},{"NoteNumber":53,"Velocity":24,"Duration":1005197,"SoundDuration":1005197,"Delta":73310002},{"NoteNumber":41,"Velocity":40,"Duration":1924188,"SoundDuration":1924188,"Delta":73845717},{"NoteNumber":53,"Velocity":24,"Duration":962094,"SoundDuration":962094,"Delta":74315200},{"NoteNumber":65,"Velocity":29,"Duration":962094,"SoundDuration":962094,"Delta":74315200},{"NoteNumber":60,"Velocity":53,"Duration":985221,"SoundDuration":985221,"Delta":74784684},{"NoteNumber":57,"Velocity":31,"Duration":985221,"SoundDuration":985221,"Delta":74784684},{"NoteNumber":53,"Velocity":31,"Duration":985221,"SoundDuration":985221,"Delta":74784684},{"NoteNumber":65,"Velocity":29,"Duration":951326,"SoundDuration":951326,"Delta":75277295},{"NoteNumber":53,"Velocity":24,"Duration":951326,"SoundDuration":951326,"Delta":75277295},{"NoteNumber":53,"Velocity":26,"Duration":917431,"SoundDuration":917431,"Delta":76228621},{"NoteNumber":65,"Velocity":31,"Duration":917431,"SoundDuration":917431,"Delta":76228621},{"NoteNumber":53,"Velocity":26,"Duration":917430,"SoundDuration":917430,"Delta":77146052},{"NoteNumber":65,"Velocity":31,"Duration":917430,"SoundDuration":917430,"Delta":77146052},{"NoteNumber":67,"Velocity":59,"Duration":947315,"SoundDuration":947315,"Delta":77604768},{"NoteNumber":63,"Velocity":34,"Duration":947315,"SoundDuration":947315,"Delta":77604768},{"NoteNumber":60,"Velocity":34,"Duration":947315,"SoundDuration":947315,"Delta":77604768},{"NoteNumber":65,"Velocity":31,"Duration":484527,"SoundDuration":484527,"Delta":78063483},{"NoteNumber":53,"Velocity":26,"Duration":977198,"SoundDuration":977198,"Delta":78063483},{"NoteNumber":72,"Velocity":53,"Duration":977198,"SoundDuration":977198,"Delta":78552083},{"NoteNumber":69,"Velocity":31,"Duration":977198,"SoundDuration":977198,"Delta":78552083},{"NoteNumber":65,"Velocity":31,"Duration":484527,"SoundDuration":484527,"Delta":78552083},{"NoteNumber":65,"Velocity":31,"Duration":977198,"SoundDuration":977198,"Delta":79040682},{"NoteNumber":53,"Velocity":26,"Duration":977198,"SoundDuration":977198,"Delta":79040682},{"NoteNumber":53,"Velocity":31,"Duration":1601772,"SoundDuration":1601772,"Delta":80017881},{"NoteNumber":60,"Velocity":27,"Duration":556586,"SoundDuration":556586,"Delta":80506481},{"NoteNumber":63,"Velocity":27,"Duration":556586,"SoundDuration":556586,"Delta":80506481},{"NoteNumber":67,"Velocity":40,"Duration":556586,"SoundDuration":556586,"Delta":80506481},{"NoteNumber":72,"Velocity":32,"Duration":556586,"SoundDuration":556586,"Delta":80506481},{"NoteNumber":79,"Velocity":48,"Duration":742115,"SoundDuration":742115,"Delta":80506481},{"NoteNumber":75,"Velocity":32,"Duration":742115,"SoundDuration":742115,"Delta":80506481},{"NoteNumber":84,"Velocity":64,"Duration":371057,"SoundDuration":371057,"Delta":80877539},{"NoteNumber":65,"Velocity":27,"Duration":2510984,"SoundDuration":2510984,"Delta":81063067},{"NoteNumber":69,"Velocity":27,"Duration":2510984,"SoundDuration":2510984,"Delta":81063067},{"NoteNumber":72,"Velocity":40,"Duration":2510984,"SoundDuration":2510984,"Delta":81063067},{"NoteNumber":77,"Velocity":50,"Duration":2325455,"SoundDuration":2325455,"Delta":81248596},{"NoteNumber":81,"Velocity":50,"Duration":2325455,"SoundDuration":2325455,"Delta":81248596},{"NoteNumber":89,"Velocity":71,"Duration":2325455,"SoundDuration":2325455,"Delta":81248596},{"NoteNumber":84,"Velocity":50,"Duration":2325455,"SoundDuration":2325455,"Delta":81248596},{"NoteNumber":53,"Velocity":31,"Duration":488599,"SoundDuration":488599,"Delta":81619654},{"NoteNumber":53,"Velocity":31,"Duration":977198,"SoundDuration":977198,"Delta":82108253},{"NoteNumber":53,"Velocity":31,"Duration":923541,"SoundDuration":923541,"Delta":83085452},{"NoteNumber":63,"Velocity":34,"Duration":438596,"SoundDuration":438596,"Delta":83574052},{"NoteNumber":66,"Velocity":34,"Duration":438596,"SoundDuration":438596,"Delta":83574052},{"NoteNumber":70,"Velocity":34,"Duration":438596,"SoundDuration":438596,"Delta":83574052},{"NoteNumber":75,"Velocity":41,"Duration":438596,"SoundDuration":438596,"Delta":83574052},{"NoteNumber":78,"Velocity":41,"Duration":438596,"SoundDuration":438596,"Delta":83574052},{"NoteNumber":82,"Velocity":41,"Duration":438596,"SoundDuration":438596,"Delta":83574052},{"NoteNumber":87,"Velocity":62,"Duration":438596,"SoundDuration":438596,"Delta":83574052},{"NoteNumber":65,"Velocity":34,"Duration":438596,"SoundDuration":438596,"Delta":84012648},{"NoteNumber":69,"Velocity":34,"Duration":438596,"SoundDuration":438596,"Delta":84012648},{"NoteNumber":72,"Velocity":34,"Duration":438596,"SoundDuration":438596,"Delta":84012648},{"NoteNumber":77,"Velocity":41,"Duration":438596,"SoundDuration":438596,"Delta":84012648},{"NoteNumber":81,"Velocity":41,"Duration":438596,"SoundDuration":438596,"Delta":84012648},{"NoteNumber":84,"Velocity":41,"Duration":438596,"SoundDuration":438596,"Delta":84012648},{"NoteNumber":89,"Velocity":62,"Duration":438596,"SoundDuration":438596,"Delta":84012648},{"NoteNumber":61,"Velocity":34,"Duration":961538,"SoundDuration":961538,"Delta":84451245},{"NoteNumber":64,"Velocity":34,"Duration":961538,"SoundDuration":961538,"Delta":84451245},{"NoteNumber":68,"Velocity":34,"Duration":961538,"SoundDuration":961538,"Delta":84451245},{"NoteNumber":73,"Velocity":41,"Duration":961538,"SoundDuration":961538,"Delta":84451245},{"NoteNumber":76,"Velocity":41,"Duration":961538,"SoundDuration":961538,"Delta":84451245},{"NoteNumber":80,"Velocity":41,"Duration":961538,"SoundDuration":961538,"Delta":84451245},{"NoteNumber":85,"Velocity":62,"Duration":961538,"SoundDuration":961538,"Delta":84451245},{"NoteNumber":53,"Velocity":31,"Duration":943018,"SoundDuration":943018,"Delta":84932014},{"NoteNumber":60,"Velocity":34,"Duration":924498,"SoundDuration":924498,"Delta":85412783},{"NoteNumber":63,"Velocity":34,"Duration":924498,"SoundDuration":924498,"Delta":85412783},{"NoteNumber":67,"Velocity":34,"Duration":924498,"SoundDuration":924498,"Delta":85412783},{"NoteNumber":72,"Velocity":41,"Duration":924498,"SoundDuration":924498,"Delta":85412783},{"NoteNumber":75,"Velocity":41,"Duration":924498,"SoundDuration":924498,"Delta":85412783},{"NoteNumber":79,"Velocity":41,"Duration":924498,"SoundDuration":924498,"Delta":85412783},{"NoteNumber":84,"Velocity":62,"Duration":924498,"SoundDuration":924498,"Delta":85412783},{"NoteNumber":53,"Velocity":31,"Duration":943018,"SoundDuration":943018,"Delta":85875032},{"NoteNumber":60,"Velocity":29,"Duration":961538,"SoundDuration":961538,"Delta":86337282},{"NoteNumber":63,"Velocity":29,"Duration":961538,"SoundDuration":961538,"Delta":86337282},{"NoteNumber":67,"Velocity":37,"Duration":961538,"SoundDuration":961538,"Delta":86337282},{"NoteNumber":72,"Velocity":44,"Duration":961538,"SoundDuration":961538,"Delta":86337282},{"NoteNumber":65,"Velocity":31,"Duration":1923075,"SoundDuration":1923075,"Delta":87298820},{"NoteNumber":69,"Velocity":31,"Duration":1923075,"SoundDuration":1923075,"Delta":87298820},{"NoteNumber":72,"Velocity":31,"Duration":1923075,"SoundDuration":1923075,"Delta":87298820},{"NoteNumber":77,"Velocity":47,"Duration":1923075,"SoundDuration":1923075,"Delta":87298820},{"NoteNumber":53,"Velocity":31,"Duration":1442306,"SoundDuration":1442306,"Delta":87779589},{"NoteNumber":63,"Velocity":32,"Duration":448430,"SoundDuration":448430,"Delta":89221896},{"NoteNumber":66,"Velocity":32,"Duration":448430,"SoundDuration":448430,"Delta":89221896},{"NoteNumber":70,"Velocity":32,"Duration":448430,"SoundDuration":448430,"Delta":89221896},{"NoteNumber":75,"Velocity":48,"Duration":448430,"SoundDuration":448430,"Delta":89221896},{"NoteNumber":65,"Velocity":28,"Duration":448430,"SoundDuration":448430,"Delta":89670326},{"NoteNumber":69,"Velocity":28,"Duration":448430,"SoundDuration":448430,"Delta":89670326},{"NoteNumber":72,"Velocity":28,"Duration":448430,"SoundDuration":448430,"Delta":89670326},{"NoteNumber":77,"Velocity":42,"Duration":448430,"SoundDuration":448430,"Delta":89670326},{"NoteNumber":61,"Velocity":33,"Duration":931676,"SoundDuration":931676,"Delta":90118757},{"NoteNumber":64,"Velocity":33,"Duration":931676,"SoundDuration":931676,"Delta":90118757},{"NoteNumber":68,"Velocity":33,"Duration":931676,"SoundDuration":931676,"Delta":90118757},{"NoteNumber":73,"Velocity":49,"Duration":931676,"SoundDuration":931676,"Delta":90118757},{"NoteNumber":53,"Velocity":45,"Duration":949085,"SoundDuration":949085,"Delta":90584595},{"NoteNumber":60,"Velocity":35,"Duration":483247,"SoundDuration":483247,"Delta":91050434},{"NoteNumber":63,"Velocity":35,"Duration":483247,"SoundDuration":483247,"Delta":91050434},{"NoteNumber":67,"Velocity":38,"Duration":483247,"SoundDuration":483247,"Delta":91050434},{"NoteNumber":72,"Velocity":56,"Duration":483247,"SoundDuration":483247,"Delta":91050434},{"NoteNumber":61,"Velocity":30,"Duration":483247,"SoundDuration":483247,"Delta":91533681},{"NoteNumber":65,"Velocity":30,"Duration":483247,"SoundDuration":483247,"Delta":91533681},{"NoteNumber":69,"Velocity":39,"Duration":483247,"SoundDuration":483247,"Delta":91533681},{"NoteNumber":73,"Velocity":51,"Duration":483247,"SoundDuration":483247,"Delta":91533681},{"NoteNumber":72,"Velocity":64,"Duration":931676,"SoundDuration":931676,"Delta":92016929},{"NoteNumber":61,"Velocity":34,"Duration":1863354,"SoundDuration":1863354,"Delta":92016929},{"NoteNumber":65,"Velocity":40,"Duration":1863354,"SoundDuration":1863354,"Delta":92016929},{"NoteNumber":60,"Velocity":43,"Duration":931676,"SoundDuration":931676,"Delta":92016929},{"NoteNumber":53,"Velocity":33,"Duration":931676,"SoundDuration":931676,"Delta":92482767},{"NoteNumber":70,"Velocity":44,"Duration":931677,"SoundDuration":931677,"Delta":92948606},{"NoteNumber":58,"Velocity":33,"Duration":931677,"SoundDuration":931677,"Delta":92948606},{"NoteNumber":53,"Velocity":32,"Duration":931677,"SoundDuration":931677,"Delta":93414444},{"NoteNumber":65,"Velocity":39,"Duration":465838,"SoundDuration":465838,"Delta":93880283},{"NoteNumber":59,"Velocity":33,"Duration":903614,"SoundDuration":903614,"Delta":94811960},{"NoteNumber":63,"Velocity":33,"Duration":903614,"SoundDuration":903614,"Delta":94811960},{"NoteNumber":70,"Velocity":47,"Duration":903614,"SoundDuration":903614,"Delta":94811960},{"NoteNumber":41,"Velocity":31,"Duration":921290,"SoundDuration":921290,"Delta":95263767},{"NoteNumber":58,"Velocity":31,"Duration":938967,"SoundDuration":938967,"Delta":95715574},{"NoteNumber":62,"Velocity":37,"Duration":938967,"SoundDuration":938967,"Delta":95715574},{"NoteNumber":65,"Velocity":44,"Duration":1877933,"SoundDuration":1877933,"Delta":95715574},{"NoteNumber":41,"Velocity":31,"Duration":938967,"SoundDuration":938967,"Delta":96185057},{"NoteNumber":57,"Velocity":28,"Duration":704225,"SoundDuration":704225,"Delta":96654541},{"NoteNumber":61,"Velocity":34,"Duration":704225,"SoundDuration":704225,"Delta":96654541},{"NoteNumber":56,"Velocity":33,"Duration":2133143,"SoundDuration":2133143,"Delta":97358766},{"NoteNumber":60,"Velocity":33,"Duration":1014231,"SoundDuration":1014231,"Delta":97476137},{"NoteNumber":70,"Velocity":47,"Duration":896861,"SoundDuration":896861,"Delta":97593508},{"NoteNumber":57,"Velocity":31,"Duration":924498,"SoundDuration":924498,"Delta":98490369},{"NoteNumber":61,"Velocity":37,"Duration":924498,"SoundDuration":924498,"Delta":98490369},{"NoteNumber":65,"Velocity":44,"Duration":1848997,"SoundDuration":1848997,"Delta":98490369},{"NoteNumber":41,"Velocity":31,"Duration":924498,"SoundDuration":924498,"Delta":98952618},{"NoteNumber":58,"Velocity":28,"Duration":924498,"SoundDuration":924498,"Delta":99414868},{"NoteNumber":62,"Velocity":34,"Duration":924498,"SoundDuration":924498,"Delta":99414868},{"NoteNumber":59,"Velocity":35,"Duration":883651,"SoundDuration":883651,"Delta":100339367},{"NoteNumber":63,"Velocity":35,"Duration":883651,"SoundDuration":883651,"Delta":100339367},{"NoteNumber":70,"Velocity":42,"Duration":1338886,"SoundDuration":1338886,"Delta":100339367},{"NoteNumber":41,"Velocity":27,"Duration":897060,"SoundDuration":897060,"Delta":100781193},{"NoteNumber":58,"Velocity":28,"Duration":910470,"SoundDuration":910470,"Delta":101223019},{"NoteNumber":62,"Velocity":33,"Duration":910470,"SoundDuration":910470,"Delta":101223019},{"NoteNumber":65,"Velocity":39,"Duration":910470,"SoundDuration":910470,"Delta":101678254},{"NoteNumber":41,"Velocity":27,"Duration":910470,"SoundDuration":910470,"Delta":101678254},{"NoteNumber":57,"Velocity":25,"Duration":910469,"SoundDuration":910469,"Delta":102133489},{"NoteNumber":61,"Velocity":30,"Duration":910469,"SoundDuration":910469,"Delta":102133489},{"NoteNumber":56,"Velocity":29,"Duration":910470,"SoundDuration":910470,"Delta":103043959},{"NoteNumber":60,"Velocity":35,"Duration":910470,"SoundDuration":910470,"Delta":103043959},{"NoteNumber":57,"Velocity":28,"Duration":883651,"SoundDuration":883651,"Delta":103954429},{"NoteNumber":61,"Velocity":33,"Duration":883651,"SoundDuration":883651,"Delta":103954429},{"NoteNumber":41,"Velocity":27,"Duration":897060,"SoundDuration":897060,"Delta":104396255},{"NoteNumber":57,"Velocity":25,"Duration":569043,"SoundDuration":569043,"Delta":104838081},{"NoteNumber":60,"Velocity":30,"Duration":569043,"SoundDuration":569043,"Delta":104838081},{"NoteNumber":55,"Velocity":40,"Duration":113808,"SoundDuration":113808,"Delta":105407125},{"NoteNumber":61,"Velocity":40,"Duration":113808,"SoundDuration":113808,"Delta":105520933},{"NoteNumber":64,"Velocity":40,"Duration":113808,"SoundDuration":113808,"Delta":105634742},{"NoteNumber":83,"Velocity":43,"Duration":890208,"SoundDuration":890208,"Delta":105748551},{"NoteNumber":76,"Velocity":43,"Duration":890208,"SoundDuration":890208,"Delta":105748551},{"NoteNumber":71,"Velocity":43,"Duration":890208,"SoundDuration":890208,"Delta":105748551},{"NoteNumber":39,"Velocity":27,"Duration":890208,"SoundDuration":890208,"Delta":105748551},{"NoteNumber":46,"Velocity":27,"Duration":890208,"SoundDuration":890208,"Delta":105748551},{"NoteNumber":64,"Velocity":33,"Duration":445104,"SoundDuration":445104,"Delta":106193655},{"NoteNumber":61,"Velocity":33,"Duration":445104,"SoundDuration":445104,"Delta":106193655},{"NoteNumber":55,"Velocity":33,"Duration":445104,"SoundDuration":445104,"Delta":106193655},{"NoteNumber":67,"Velocity":39,"Duration":2741954,"SoundDuration":2741954,"Delta":106638759},{"NoteNumber":71,"Velocity":39,"Duration":2741954,"SoundDuration":2741954,"Delta":106638759},{"NoteNumber":79,"Velocity":39,"Duration":2741954,"SoundDuration":2741954,"Delta":106638759},{"NoteNumber":59,"Velocity":34,"Duration":961538,"SoundDuration":961538,"Delta":106638759},{"NoteNumber":62,"Velocity":34,"Duration":961538,"SoundDuration":961538,"Delta":106638759},{"NoteNumber":53,"Velocity":34,"Duration":961538,"SoundDuration":961538,"Delta":106638759},{"NoteNumber":37,"Velocity":27,"Duration":925873,"SoundDuration":925873,"Delta":107119528},{"NoteNumber":44,"Velocity":27,"Duration":2261185,"SoundDuration":2261185,"Delta":107119528},{"NoteNumber":37,"Velocity":27,"Duration":890208,"SoundDuration":890208,"Delta":108045401},{"NoteNumber":37,"Velocity":27,"Duration":929756,"SoundDuration":929756,"Delta":108935609},{"NoteNumber":68,"Velocity":42,"Duration":969305,"SoundDuration":969305,"Delta":109380713},{"NoteNumber":75,"Velocity":42,"Duration":969305,"SoundDuration":969305,"Delta":109380713},{"NoteNumber":80,"Velocity":42,"Duration":969305,"SoundDuration":969305,"Delta":109380713},{"NoteNumber":59,"Velocity":37,"Duration":969305,"SoundDuration":969305,"Delta":109380713},{"NoteNumber":63,"Velocity":37,"Duration":969305,"SoundDuration":969305,"Delta":109380713},{"NoteNumber":56,"Velocity":37,"Duration":969305,"SoundDuration":969305,"Delta":109380713},{"NoteNumber":37,"Velocity":27,"Duration":484652,"SoundDuration":484652,"Delta":109865365},{"NoteNumber":87,"Velocity":64,"Duration":883651,"SoundDuration":883651,"Delta":110350018},{"NoteNumber":80,"Velocity":54,"Duration":883651,"SoundDuration":883651,"Delta":110350018},{"NoteNumber":75,"Velocity":54,"Duration":883651,"SoundDuration":883651,"Delta":110350018},{"NoteNumber":42,"Velocity":47,"Duration":441826,"SoundDuration":441826,"Delta":110350018},{"NoteNumber":49,"Velocity":47,"Duration":441826,"SoundDuration":441826,"Delta":110350018},{"NoteNumber":56,"Velocity":33,"Duration":441825,"SoundDuration":441825,"Delta":110791844},{"NoteNumber":85,"Velocity":57,"Duration":917430,"SoundDuration":917430,"Delta":111233670},{"NoteNumber":78,"Velocity":48,"Duration":917430,"SoundDuration":917430,"Delta":111233670},{"NoteNumber":73,"Velocity":48,"Duration":917430,"SoundDuration":917430,"Delta":111233670},{"NoteNumber":58,"Velocity":40,"Duration":458715,"SoundDuration":458715,"Delta":111233670},{"NoteNumber":61,"Velocity":33,"Duration":458715,"SoundDuration":458715,"Delta":111692385},{"NoteNumber":78,"Velocity":60,"Duration":987887,"SoundDuration":987887,"Delta":112151101},{"NoteNumber":73,"Velocity":51,"Duration":324302,"SoundDuration":324302,"Delta":112151101},{"NoteNumber":66,"Velocity":51,"Duration":324302,"SoundDuration":324302,"Delta":112151101},{"NoteNumber":63,"Velocity":35,"Duration":328407,"SoundDuration":328407,"Delta":112151101},{"NoteNumber":66,"Velocity":37,"Duration":328407,"SoundDuration":328407,"Delta":112479508},{"NoteNumber":73,"Velocity":42,"Duration":331072,"SoundDuration":331072,"Delta":112807916},{"NoteNumber":69,"Velocity":30,"Duration":55658,"SoundDuration":55658,"Delta":113138989},{"NoteNumber":72,"Velocity":31,"Duration":55232,"SoundDuration":55232,"Delta":113194647},{"NoteNumber":70,"Velocity":32,"Duration":54542,"SoundDuration":54542,"Delta":113249879},{"NoteNumber":73,"Velocity":33,"Duration":53949,"SoundDuration":53949,"Delta":113304422},{"NoteNumber":78,"Velocity":34,"Duration":53369,"SoundDuration":53369,"Delta":113358371},{"NoteNumber":72,"Velocity":35,"Duration":52801,"SoundDuration":52801,"Delta":113411741},{"NoteNumber":77,"Velocity":36,"Duration":52170,"SoundDuration":52170,"Delta":113464543},{"NoteNumber":73,"Velocity":36,"Duration":51628,"SoundDuration":51628,"Delta":113516714},{"NoteNumber":78,"Velocity":38,"Duration":51097,"SoundDuration":51097,"Delta":113568343},{"NoteNumber":85,"Velocity":38,"Duration":50576,"SoundDuration":50576,"Delta":113619440},{"NoteNumber":83,"Velocity":43,"Duration":919398,"SoundDuration":919398,"Delta":114493842},{"NoteNumber":76,"Velocity":43,"Duration":919398,"SoundDuration":919398,"Delta":114493842},{"NoteNumber":71,"Velocity":43,"Duration":919398,"SoundDuration":919398,"Delta":114493842},{"NoteNumber":61,"Velocity":33,"Duration":919398,"SoundDuration":919398,"Delta":114493842},{"NoteNumber":55,"Velocity":33,"Duration":919398,"SoundDuration":919398,"Delta":114493842},{"NoteNumber":64,"Velocity":33,"Duration":919398,"SoundDuration":919398,"Delta":114493842},{"NoteNumber":46,"Velocity":32,"Duration":612932,"SoundDuration":612932,"Delta":114800309},{"NoteNumber":39,"Velocity":38,"Duration":306466,"SoundDuration":306466,"Delta":115106775},{"NoteNumber":67,"Velocity":30,"Duration":2741954,"SoundDuration":2741954,"Delta":115413241},{"NoteNumber":71,"Velocity":33,"Duration":2741954,"SoundDuration":2741954,"Delta":115413241},{"NoteNumber":79,"Velocity":39,"Duration":2741954,"SoundDuration":2741954,"Delta":115413241},{"NoteNumber":37,"Velocity":36,"Duration":2741954,"SoundDuration":2741954,"Delta":115413241},{"NoteNumber":44,"Velocity":43,"Duration":2741954,"SoundDuration":2741954,"Delta":115413241},{"NoteNumber":53,"Velocity":23,"Duration":925873,"SoundDuration":925873,"Delta":115894010},{"NoteNumber":62,"Velocity":28,"Duration":2745837,"SoundDuration":2745837,"Delta":115894010},{"NoteNumber":59,"Velocity":23,"Duration":925873,"SoundDuration":925873,"Delta":115894010},{"NoteNumber":53,"Velocity":22,"Duration":890208,"SoundDuration":890208,"Delta":116819883},{"NoteNumber":59,"Velocity":27,"Duration":890208,"SoundDuration":890208,"Delta":116819883},{"NoteNumber":53,"Velocity":22,"Duration":929756,"SoundDuration":929756,"Delta":117710091},{"NoteNumber":59,"Velocity":27,"Duration":929756,"SoundDuration":929756,"Delta":117710091},{"NoteNumber":68,"Velocity":35,"Duration":969305,"SoundDuration":969305,"Delta":118155195},{"NoteNumber":75,"Velocity":41,"Duration":969305,"SoundDuration":969305,"Delta":118155195},{"NoteNumber":80,"Velocity":52,"Duration":969305,"SoundDuration":969305,"Delta":118155195},{"NoteNumber":63,"Velocity":37,"Duration":969305,"SoundDuration":969305,"Delta":118155195},{"NoteNumber":53,"Velocity":27,"Duration":484652,"SoundDuration":484652,"Delta":118639848},{"NoteNumber":59,"Velocity":27,"Duration":484652,"SoundDuration":484652,"Delta":118639848},{"NoteNumber":87,"Velocity":64,"Duration":883651,"SoundDuration":883651,"Delta":119124500},{"NoteNumber":80,"Velocity":54,"Duration":883651,"SoundDuration":883651,"Delta":119124500},{"NoteNumber":75,"Velocity":54,"Duration":883651,"SoundDuration":883651,"Delta":119124500},{"NoteNumber":42,"Velocity":39,"Duration":441826,"SoundDuration":441826,"Delta":119124500},{"NoteNumber":49,"Velocity":47,"Duration":441826,"SoundDuration":441826,"Delta":119124500},{"NoteNumber":56,"Velocity":40,"Duration":900541,"SoundDuration":900541,"Delta":119566326},{"NoteNumber":85,"Velocity":57,"Duration":917430,"SoundDuration":917430,"Delta":120008152},{"NoteNumber":78,"Velocity":48,"Duration":917430,"SoundDuration":917430,"Delta":120008152},{"NoteNumber":73,"Velocity":48,"Duration":917430,"SoundDuration":917430,"Delta":120008152},{"NoteNumber":58,"Velocity":45,"Duration":787122,"SoundDuration":787122,"Delta":120466868},{"NoteNumber":78,"Velocity":60,"Duration":985221,"SoundDuration":985221,"Delta":120925583},{"NoteNumber":73,"Velocity":51,"Duration":985221,"SoundDuration":985221,"Delta":120925583},{"NoteNumber":66,"Velocity":51,"Duration":985221,"SoundDuration":985221,"Delta":120925583},{"NoteNumber":61,"Velocity":50,"Duration":328407,"SoundDuration":328407,"Delta":121253991},{"NoteNumber":63,"Velocity":54,"Duration":328407,"SoundDuration":328407,"Delta":121582398},{"NoteNumber":57,"Velocity":32,"Duration":112135,"SoundDuration":112135,"Delta":121910805},{"NoteNumber":60,"Velocity":33,"Duration":112135,"SoundDuration":112135,"Delta":122022941},{"NoteNumber":58,"Velocity":35,"Duration":112135,"SoundDuration":112135,"Delta":122135076},{"NoteNumber":61,"Velocity":36,"Duration":126986,"SoundDuration":126986,"Delta":122247212},{"NoteNumber":66,"Velocity":38,"Duration":149006,"SoundDuration":149006,"Delta":122374198},{"NoteNumber":60,"Velocity":30,"Duration":54641,"SoundDuration":54641,"Delta":122775764},{"NoteNumber":65,"Velocity":31,"Duration":53642,"SoundDuration":53642,"Delta":122830406},{"NoteNumber":61,"Velocity":32,"Duration":52819,"SoundDuration":52819,"Delta":122884049},{"NoteNumber":66,"Velocity":33,"Duration":51718,"SoundDuration":51718,"Delta":122936868},{"NoteNumber":70,"Velocity":34,"Duration":50931,"SoundDuration":50931,"Delta":122988586},{"NoteNumber":65,"Velocity":35,"Duration":50061,"SoundDuration":50061,"Delta":123039517},{"NoteNumber":69,"Velocity":36,"Duration":49344,"SoundDuration":49344,"Delta":123089579},{"NoteNumber":66,"Velocity":36,"Duration":48381,"SoundDuration":48381,"Delta":123138923},{"NoteNumber":70,"Velocity":38,"Duration":48185,"SoundDuration":48185,"Delta":123187305},{"NoteNumber":73,"Velocity":38,"Duration":48185,"SoundDuration":48185,"Delta":123235490},{"NoteNumber":66,"Velocity":44,"Duration":901929,"SoundDuration":901929,"Delta":124049443},{"NoteNumber":78,"Velocity":52,"Duration":901929,"SoundDuration":901929,"Delta":124049443},{"NoteNumber":68,"Velocity":27,"Duration":901929,"SoundDuration":901929,"Delta":124512263},{"NoteNumber":72,"Velocity":33,"Duration":901929,"SoundDuration":901929,"Delta":124512263},{"NoteNumber":60,"Velocity":29,"Duration":901929,"SoundDuration":901929,"Delta":124512263},{"NoteNumber":56,"Velocity":25,"Duration":901929,"SoundDuration":901929,"Delta":124512263},{"NoteNumber":65,"Velocity":37,"Duration":1391155,"SoundDuration":1391155,"Delta":124951373},{"NoteNumber":77,"Velocity":44,"Duration":1391155,"SoundDuration":1391155,"Delta":124951373},{"NoteNumber":70,"Velocity":27,"Duration":928335,"SoundDuration":928335,"Delta":125414193},{"NoteNumber":74,"Velocity":33,"Duration":928335,"SoundDuration":928335,"Delta":125414193},{"NoteNumber":62,"Velocity":28,"Duration":928335,"SoundDuration":928335,"Delta":125414193},{"NoteNumber":58,"Velocity":24,"Duration":928335,"SoundDuration":928335,"Delta":125414193},{"NoteNumber":34,"Velocity":39,"Duration":921908,"SoundDuration":921908,"Delta":125856540},{"NoteNumber":56,"Velocity":28,"Duration":597048,"SoundDuration":597048,"Delta":126181400},{"NoteNumber":60,"Velocity":30,"Duration":543339,"SoundDuration":543339,"Delta":126235109},{"NoteNumber":68,"Velocity":31,"Duration":489629,"SoundDuration":489629,"Delta":126288819},{"NoteNumber":72,"Velocity":39,"Duration":435919,"SoundDuration":435919,"Delta":126342528},{"NoteNumber":65,"Velocity":44,"Duration":911629,"SoundDuration":911629,"Delta":126778448},{"NoteNumber":77,"Velocity":52,"Duration":911629,"SoundDuration":911629,"Delta":126778448},{"NoteNumber":67,"Velocity":27,"Duration":898387,"SoundDuration":898387,"Delta":127230800},{"NoteNumber":71,"Velocity":33,"Duration":898387,"SoundDuration":898387,"Delta":127230800},{"NoteNumber":59,"Velocity":29,"Duration":898387,"SoundDuration":898387,"Delta":127230800},{"NoteNumber":55,"Velocity":25,"Duration":898387,"SoundDuration":898387,"Delta":127230800},{"NoteNumber":75,"Velocity":44,"Duration":898387,"SoundDuration":898387,"Delta":127690078},{"NoteNumber":63,"Velocity":37,"Duration":898387,"SoundDuration":898387,"Delta":127690078},{"NoteNumber":66,"Velocity":27,"Duration":918554,"SoundDuration":918554,"Delta":128129188},{"NoteNumber":70,"Velocity":33,"Duration":459277,"SoundDuration":459277,"Delta":128129188},{"NoteNumber":54,"Velocity":27,"Duration":918554,"SoundDuration":918554,"Delta":128129188},{"NoteNumber":58,"Velocity":28,"Duration":918554,"SoundDuration":918554,"Delta":128129188},{"NoteNumber":70,"Velocity":44,"Duration":918554,"SoundDuration":918554,"Delta":128588465},{"NoteNumber":34,"Velocity":39,"Duration":918554,"SoundDuration":918554,"Delta":128588465},{"NoteNumber":65,"Velocity":29,"Duration":459277,"SoundDuration":459277,"Delta":129047743},{"NoteNumber":69,"Velocity":35,"Duration":459277,"SoundDuration":459277,"Delta":129047743},{"NoteNumber":56,"Velocity":33,"Duration":895197,"SoundDuration":895197,"Delta":129507020},{"NoteNumber":63,"Velocity":47,"Duration":895197,"SoundDuration":895197,"Delta":129507020},{"NoteNumber":52,"Velocity":33,"Duration":895197,"SoundDuration":895197,"Delta":129507020},{"NoteNumber":34,"Velocity":31,"Duration":905403,"SoundDuration":905403,"Delta":129966298},{"NoteNumber":58,"Velocity":44,"Duration":1877934,"SoundDuration":1877934,"Delta":130402218},{"NoteNumber":51,"Velocity":27,"Duration":938966,"SoundDuration":938966,"Delta":130402218},{"NoteNumber":55,"Velocity":33,"Duration":938966,"SoundDuration":938966,"Delta":130402218},{"NoteNumber":34,"Velocity":31,"Duration":938966,"SoundDuration":938966,"Delta":130871701},{"NoteNumber":50,"Velocity":25,"Duration":938967,"SoundDuration":938967,"Delta":131341185},{"NoteNumber":54,"Velocity":30,"Duration":938967,"SoundDuration":938967,"Delta":131341185},{"NoteNumber":49,"Velocity":33,"Duration":878219,"SoundDuration":878219,"Delta":132280152},{"NoteNumber":53,"Velocity":33,"Duration":878219,"SoundDuration":878219,"Delta":132280152},{"NoteNumber":63,"Velocity":47,"Duration":878219,"SoundDuration":878219,"Delta":132280152},{"NoteNumber":50,"Velocity":27,"Duration":924498,"SoundDuration":924498,"Delta":133158372},{"NoteNumber":54,"Velocity":33,"Duration":924498,"SoundDuration":924498,"Delta":133158372},{"NoteNumber":58,"Velocity":44,"Duration":1848997,"SoundDuration":1848997,"Delta":133158372},{"NoteNumber":34,"Velocity":27,"Duration":1386748,"SoundDuration":1386748,"Delta":133620621},{"NoteNumber":51,"Velocity":25,"Duration":924498,"SoundDuration":924498,"Delta":134082871},{"NoteNumber":55,"Velocity":30,"Duration":924498,"SoundDuration":924498,"Delta":134082871},{"NoteNumber":63,"Velocity":42,"Duration":1338886,"SoundDuration":1338886,"Delta":135007370},{"NoteNumber":52,"Velocity":35,"Duration":883652,"SoundDuration":883652,"Delta":135007370},{"NoteNumber":56,"Velocity":35,"Duration":883652,"SoundDuration":883652,"Delta":135007370},{"NoteNumber":51,"Velocity":28,"Duration":910470,"SoundDuration":910470,"Delta":135891022},{"NoteNumber":55,"Velocity":33,"Duration":910470,"SoundDuration":910470,"Delta":135891022},{"NoteNumber":58,"Velocity":39,"Duration":1410345,"SoundDuration":1410345,"Delta":136346257},{"NoteNumber":50,"Velocity":25,"Duration":955109,"SoundDuration":955109,"Delta":136801492},{"NoteNumber":54,"Velocity":30,"Duration":955109,"SoundDuration":955109,"Delta":136801492},{"NoteNumber":34,"Velocity":27,"Duration":2336030,"SoundDuration":2336030,"Delta":137279047},{"NoteNumber":49,"Velocity":27,"Duration":925639,"SoundDuration":925639,"Delta":137756602},{"NoteNumber":53,"Velocity":30,"Duration":925639,"SoundDuration":925639,"Delta":137756602},{"NoteNumber":54,"Velocity":25,"Duration":932836,"SoundDuration":932836,"Delta":138682242},{"NoteNumber":50,"Velocity":22,"Duration":932836,"SoundDuration":932836,"Delta":138682242},{"NoteNumber":49,"Velocity":22,"Duration":955109,"SoundDuration":955109,"Delta":139615078},{"NoteNumber":53,"Velocity":25,"Duration":955109,"SoundDuration":955109,"Delta":139615078},{"NoteNumber":34,"Velocity":27,"Duration":1391030,"SoundDuration":1391030,"Delta":140092633},{"NoteNumber":48,"Velocity":24,"Duration":2657155,"SoundDuration":2657155,"Delta":140570188},{"NoteNumber":52,"Velocity":27,"Duration":2657155,"SoundDuration":2657155,"Delta":140570188},{"NoteNumber":34,"Velocity":27,"Duration":871839,"SoundDuration":871839,"Delta":141483663},{"NoteNumber":34,"Velocity":27,"Duration":871839,"SoundDuration":871839,"Delta":142355503},{"NoteNumber":34,"Velocity":31,"Duration":871840,"SoundDuration":871840,"Delta":143227343},{"NoteNumber":34,"Velocity":28,"Duration":871839,"SoundDuration":871839,"Delta":144099183},{"NoteNumber":34,"Velocity":28,"Duration":871839,"SoundDuration":871839,"Delta":144971023},{"NoteNumber":54,"Velocity":31,"Duration":139769,"SoundDuration":139769,"Delta":145842863},{"NoteNumber":34,"Velocity":34,"Duration":553238,"SoundDuration":553238,"Delta":145842863},{"NoteNumber":60,"Velocity":30,"Duration":139769,"SoundDuration":139769,"Delta":145982632},{"NoteNumber":55,"Velocity":25,"Duration":139769,"SoundDuration":139769,"Delta":145982632},{"NoteNumber":51,"Velocity":33,"Duration":139769,"SoundDuration":139769,"Delta":146122401},{"NoteNumber":55,"Velocity":28,"Duration":389048,"SoundDuration":389048,"Delta":146262170},{"NoteNumber":52,"Velocity":23,"Duration":389048,"SoundDuration":389048,"Delta":146262170},{"NoteNumber":34,"Velocity":33,"Duration":505410,"SoundDuration":505410,"Delta":146396102},{"NoteNumber":54,"Velocity":29,"Duration":125876,"SoundDuration":125876,"Delta":146651218},{"NoteNumber":60,"Velocity":30,"Duration":124417,"SoundDuration":124417,"Delta":146777094},{"NoteNumber":55,"Velocity":25,"Duration":124417,"SoundDuration":124417,"Delta":146777094},{"NoteNumber":59,"Velocity":32,"Duration":122906,"SoundDuration":122906,"Delta":146901512},{"NoteNumber":34,"Velocity":33,"Duration":571964,"SoundDuration":571964,"Delta":146901512},{"NoteNumber":64,"Velocity":33,"Duration":121553,"SoundDuration":121553,"Delta":147024418},{"NoteNumber":60,"Velocity":28,"Duration":121553,"SoundDuration":121553,"Delta":147024418},{"NoteNumber":63,"Velocity":34,"Duration":120093,"SoundDuration":120093,"Delta":147145971},{"NoteNumber":67,"Velocity":35,"Duration":103705,"SoundDuration":103705,"Delta":147266065},{"NoteNumber":64,"Velocity":29,"Duration":103705,"SoundDuration":103705,"Delta":147266065},{"NoteNumber":62,"Velocity":37,"Duration":59759,"SoundDuration":59759,"Delta":147473477},{"NoteNumber":60,"Velocity":36,"Duration":59430,"SoundDuration":59430,"Delta":147533236},{"NoteNumber":55,"Velocity":34,"Duration":59875,"SoundDuration":59875,"Delta":147592667},{"NoteNumber":52,"Velocity":34,"Duration":60372,"SoundDuration":60372,"Delta":147652542},{"NoteNumber":48,"Velocity":33,"Duration":60887,"SoundDuration":60887,"Delta":147714433},{"NoteNumber":43,"Velocity":31,"Duration":61353,"SoundDuration":61353,"Delta":147775320},{"NoteNumber":34,"Velocity":42,"Duration":379140,"SoundDuration":379140,"Delta":147835137},{"NoteNumber":68,"Velocity":38,"Duration":371195,"SoundDuration":371195,"Delta":148214277},{"NoteNumber":73,"Velocity":29,"Duration":759193,"SoundDuration":759193,"Delta":148214277},{"NoteNumber":77,"Velocity":29,"Duration":759193,"SoundDuration":759193,"Delta":148214277},{"NoteNumber":70,"Velocity":40,"Duration":387998,"SoundDuration":387998,"Delta":148585472},{"NoteNumber":46,"Velocity":32,"Duration":1152027,"SoundDuration":1152027,"Delta":148585472},{"NoteNumber":72,"Velocity":46,"Duration":1154552,"SoundDuration":1154552,"Delta":148973470},{"NoteNumber":73,"Velocity":35,"Duration":1154552,"SoundDuration":1154552,"Delta":148973470},{"NoteNumber":77,"Velocity":35,"Duration":1154552,"SoundDuration":1154552,"Delta":148973470},{"NoteNumber":61,"Velocity":27,"Duration":781047,"SoundDuration":781047,"Delta":149346976},{"NoteNumber":65,"Velocity":32,"Duration":781047,"SoundDuration":781047,"Delta":149346976},{"NoteNumber":60,"Velocity":27,"Duration":781047,"SoundDuration":781047,"Delta":149346976},{"NoteNumber":68,"Velocity":46,"Duration":390523,"SoundDuration":390523,"Delta":150128023},{"NoteNumber":73,"Velocity":35,"Duration":390523,"SoundDuration":390523,"Delta":150128023},{"NoteNumber":77,"Velocity":35,"Duration":390523,"SoundDuration":390523,"Delta":150128023},{"NoteNumber":61,"Velocity":25,"Duration":390523,"SoundDuration":390523,"Delta":150128023},{"NoteNumber":65,"Velocity":30,"Duration":390523,"SoundDuration":390523,"Delta":150128023},{"NoteNumber":56,"Velocity":25,"Duration":390523,"SoundDuration":390523,"Delta":150128023},{"NoteNumber":73,"Velocity":28,"Duration":759193,"SoundDuration":759193,"Delta":150518547},{"NoteNumber":77,"Velocity":28,"Duration":759193,"SoundDuration":759193,"Delta":150518547},{"NoteNumber":68,"Velocity":36,"Duration":371195,"SoundDuration":371195,"Delta":150518547},{"NoteNumber":70,"Velocity":41,"Duration":387998,"SoundDuration":387998,"Delta":150889742},{"NoteNumber":46,"Velocity":41,"Duration":1169873,"SoundDuration":1169873,"Delta":150889742},{"NoteNumber":72,"Velocity":46,"Duration":1169873,"SoundDuration":1169873,"Delta":151277740},{"NoteNumber":73,"Velocity":35,"Duration":1557871,"SoundDuration":1557871,"Delta":151277740},{"NoteNumber":77,"Velocity":35,"Duration":1557871,"SoundDuration":1557871,"Delta":151277740},{"NoteNumber":60,"Velocity":28,"Duration":791658,"SoundDuration":791658,"Delta":151655955},{"NoteNumber":61,"Velocity":28,"Duration":791658,"SoundDuration":791658,"Delta":151655955},{"NoteNumber":65,"Velocity":33,"Duration":791658,"SoundDuration":791658,"Delta":151655955},{"NoteNumber":68,"Velocity":36,"Duration":387997,"SoundDuration":387997,"Delta":152447613},{"NoteNumber":56,"Velocity":23,"Duration":387997,"SoundDuration":387997,"Delta":152447613},{"NoteNumber":61,"Velocity":23,"Duration":387997,"SoundDuration":387997,"Delta":152447613},{"NoteNumber":65,"Velocity":28,"Duration":387997,"SoundDuration":387997,"Delta":152447613},{"NoteNumber":46,"Velocity":28,"Duration":871839,"SoundDuration":871839,"Delta":152835611},{"NoteNumber":46,"Velocity":28,"Duration":871840,"SoundDuration":871840,"Delta":153707451},{"NoteNumber":59,"Velocity":34,"Duration":143788,"SoundDuration":143788,"Delta":154579291},{"NoteNumber":46,"Velocity":37,"Duration":567373,"SoundDuration":567373,"Delta":154579291},{"NoteNumber":65,"Velocity":33,"Duration":143788,"SoundDuration":143788,"Delta":154723079},{"NoteNumber":60,"Velocity":28,"Duration":143788,"SoundDuration":143788,"Delta":154723079},{"NoteNumber":55,"Velocity":36,"Duration":143788,"SoundDuration":143788,"Delta":154866867},{"NoteNumber":60,"Velocity":30,"Duration":391124,"SoundDuration":391124,"Delta":155010656},{"NoteNumber":56,"Velocity":25,"Duration":391124,"SoundDuration":391124,"Delta":155010656},{"NoteNumber":46,"Velocity":36,"Duration":505410,"SoundDuration":505410,"Delta":155146664},{"NoteNumber":59,"Velocity":31,"Duration":125876,"SoundDuration":125876,"Delta":155401780},{"NoteNumber":65,"Velocity":33,"Duration":124417,"SoundDuration":124417,"Delta":155527657},{"NoteNumber":60,"Velocity":28,"Duration":124417,"SoundDuration":124417,"Delta":155527657},{"NoteNumber":64,"Velocity":35,"Duration":122906,"SoundDuration":122906,"Delta":155652075},{"NoteNumber":34,"Velocity":36,"Duration":244459,"SoundDuration":244459,"Delta":155652075},{"NoteNumber":68,"Velocity":36,"Duration":121553,"SoundDuration":121553,"Delta":155774981},{"NoteNumber":65,"Velocity":30,"Duration":121553,"SoundDuration":121553,"Delta":155774981},{"NoteNumber":46,"Velocity":36,"Duration":274796,"SoundDuration":274796,"Delta":155896534},{"NoteNumber":67,"Velocity":40,"Duration":89408,"SoundDuration":89408,"Delta":156171331},{"NoteNumber":62,"Velocity":36,"Duration":361660,"SoundDuration":361660,"Delta":156171331},{"NoteNumber":56,"Velocity":36,"Duration":361660,"SoundDuration":361660,"Delta":156171331},{"NoteNumber":65,"Velocity":39,"Duration":89656,"SoundDuration":89656,"Delta":156260739},{"NoteNumber":60,"Velocity":37,"Duration":90741,"SoundDuration":90741,"Delta":156350396},{"NoteNumber":53,"Velocity":37,"Duration":91853,"SoundDuration":91853,"Delta":156441138},{"NoteNumber":46,"Velocity":46,"Duration":379140,"SoundDuration":379140,"Delta":156532991},{"NoteNumber":73,"Velocity":41,"Duration":371195,"SoundDuration":371195,"Delta":156912131},{"NoteNumber":78,"Velocity":31,"Duration":759193,"SoundDuration":759193,"Delta":156912131},{"NoteNumber":82,"Velocity":31,"Duration":759193,"SoundDuration":759193,"Delta":156912131},{"NoteNumber":58,"Velocity":35,"Duration":1523222,"SoundDuration":1523222,"Delta":156912131},{"NoteNumber":75,"Velocity":44,"Duration":387998,"SoundDuration":387998,"Delta":157283326},{"NoteNumber":63,"Velocity":29,"Duration":761504,"SoundDuration":761504,"Delta":157283326},{"NoteNumber":66,"Velocity":29,"Duration":761504,"SoundDuration":761504,"Delta":157283326},{"NoteNumber":70,"Velocity":35,"Duration":761504,"SoundDuration":761504,"Delta":157283326},{"NoteNumber":77,"Velocity":50,"Duration":1154552,"SoundDuration":1154552,"Delta":157671324},{"NoteNumber":78,"Velocity":38,"Duration":1154552,"SoundDuration":1154552,"Delta":157671324},{"NoteNumber":82,"Velocity":38,"Duration":1154552,"SoundDuration":1154552,"Delta":157671324},{"NoteNumber":65,"Velocity":29,"Duration":781047,"SoundDuration":781047,"Delta":158044830},{"NoteNumber":66,"Velocity":29,"Duration":781047,"SoundDuration":781047,"Delta":158044830},{"NoteNumber":70,"Velocity":35,"Duration":781047,"SoundDuration":781047,"Delta":158044830},{"NoteNumber":73,"Velocity":50,"Duration":390523,"SoundDuration":390523,"Delta":158825877},{"NoteNumber":78,"Velocity":38,"Duration":390523,"SoundDuration":390523,"Delta":158825877},{"NoteNumber":82,"Velocity":38,"Duration":390523,"SoundDuration":390523,"Delta":158825877},{"NoteNumber":61,"Velocity":29,"Duration":761718,"SoundDuration":761718,"Delta":158825877},{"NoteNumber":66,"Velocity":29,"Duration":761718,"SoundDuration":761718,"Delta":158825877},{"NoteNumber":70,"Velocity":35,"Duration":761718,"SoundDuration":761718,"Delta":158825877},{"NoteNumber":78,"Velocity":33,"Duration":759193,"SoundDuration":759193,"Delta":159216401},{"NoteNumber":82,"Velocity":33,"Duration":759193,"SoundDuration":759193,"Delta":159216401},{"NoteNumber":73,"Velocity":42,"Duration":371195,"SoundDuration":371195,"Delta":159216401},{"NoteNumber":75,"Velocity":49,"Duration":387998,"SoundDuration":387998,"Delta":159587596},{"NoteNumber":63,"Velocity":29,"Duration":766213,"SoundDuration":766213,"Delta":159587596},{"NoteNumber":66,"Velocity":29,"Duration":766213,"SoundDuration":766213,"Delta":159587596},{"NoteNumber":70,"Velocity":35,"Duration":766213,"SoundDuration":766213,"Delta":159587596},{"NoteNumber":77,"Velocity":55,"Duration":1169873,"SoundDuration":1169873,"Delta":159975594},{"NoteNumber":78,"Velocity":41,"Duration":1557871,"SoundDuration":1557871,"Delta":159975594},{"NoteNumber":82,"Velocity":41,"Duration":1557871,"SoundDuration":1557871,"Delta":159975594},{"NoteNumber":65,"Velocity":30,"Duration":791658,"SoundDuration":791658,"Delta":160353809},{"NoteNumber":66,"Velocity":30,"Duration":791658,"SoundDuration":791658,"Delta":160353809},{"NoteNumber":70,"Velocity":36,"Duration":791658,"SoundDuration":791658,"Delta":160353809},{"NoteNumber":73,"Velocity":42,"Duration":387997,"SoundDuration":387997,"Delta":161145467},{"NoteNumber":61,"Velocity":27,"Duration":387997,"SoundDuration":387997,"Delta":161145467},{"NoteNumber":66,"Velocity":27,"Duration":387997,"SoundDuration":387997,"Delta":161145467},{"NoteNumber":70,"Velocity":32,"Duration":387997,"SoundDuration":387997,"Delta":161145467},{"NoteNumber":58,"Velocity":34,"Duration":823918,"SoundDuration":823918,"Delta":161533465},{"NoteNumber":58,"Velocity":32,"Duration":775995,"SoundDuration":775995,"Delta":162357383},{"NoteNumber":58,"Velocity":31,"Duration":751690,"SoundDuration":751690,"Delta":163133379},{"NoteNumber":58,"Velocity":29,"Duration":728862,"SoundDuration":728862,"Delta":163885070},{"NoteNumber":58,"Velocity":27,"Duration":728863,"SoundDuration":728863,"Delta":164613933},{"NoteNumber":69,"Velocity":34,"Duration":143788,"SoundDuration":143788,"Delta":165342796},{"NoteNumber":55,"Velocity":31,"Duration":1072783,"SoundDuration":1072783,"Delta":165342796},{"NoteNumber":61,"Velocity":37,"Duration":1072783,"SoundDuration":1072783,"Delta":165342796},{"NoteNumber":75,"Velocity":33,"Duration":143788,"SoundDuration":143788,"Delta":165486584},{"NoteNumber":70,"Velocity":28,"Duration":143788,"SoundDuration":143788,"Delta":165486584},{"NoteNumber":65,"Velocity":36,"Duration":143788,"SoundDuration":143788,"Delta":165630372},{"NoteNumber":70,"Velocity":30,"Duration":391124,"SoundDuration":391124,"Delta":165774161},{"NoteNumber":66,"Velocity":25,"Duration":391124,"SoundDuration":391124,"Delta":165774161},{"NoteNumber":39,"Velocity":38,"Duration":1102524,"SoundDuration":1102524,"Delta":165910169},{"NoteNumber":46,"Velocity":45,"Duration":1102524,"SoundDuration":1102524,"Delta":165910169},{"NoteNumber":67,"Velocity":35,"Duration":125876,"SoundDuration":125876,"Delta":166165286},{"NoteNumber":73,"Velocity":37,"Duration":124417,"SoundDuration":124417,"Delta":166291162},{"NoteNumber":68,"Velocity":31,"Duration":124417,"SoundDuration":124417,"Delta":166291162},{"NoteNumber":69,"Velocity":40,"Duration":122906,"SoundDuration":122906,"Delta":166415580},{"NoteNumber":61,"Velocity":41,"Duration":597114,"SoundDuration":597114,"Delta":166415580},{"NoteNumber":55,"Velocity":41,"Duration":597114,"SoundDuration":597114,"Delta":166415580},{"NoteNumber":75,"Velocity":43,"Duration":121553,"SoundDuration":121553,"Delta":166538486},{"NoteNumber":70,"Velocity":36,"Duration":121553,"SoundDuration":121553,"Delta":166538486},{"NoteNumber":74,"Velocity":46,"Duration":120093,"SoundDuration":120093,"Delta":166660039},{"NoteNumber":75,"Velocity":40,"Duration":232560,"SoundDuration":232560,"Delta":166780133},{"NoteNumber":79,"Velocity":48,"Duration":232560,"SoundDuration":232560,"Delta":166780133},{"NoteNumber":79,"Velocity":51,"Duration":76249,"SoundDuration":76249,"Delta":167012694},{"NoteNumber":41,"Velocity":30,"Duration":2207834,"SoundDuration":2207834,"Delta":167012694},{"NoteNumber":48,"Velocity":36,"Duration":2207834,"SoundDuration":2207834,"Delta":167012694},{"NoteNumber":77,"Velocity":45,"Duration":78689,"SoundDuration":78689,"Delta":167088943},{"NoteNumber":72,"Velocity":37,"Duration":81349,"SoundDuration":81349,"Delta":167167632},{"NoteNumber":65,"Velocity":37,"Duration":84149,"SoundDuration":84149,"Delta":167248982},{"NoteNumber":72,"Velocity":46,"Duration":369374,"SoundDuration":369374,"Delta":167333131},{"NoteNumber":60,"Velocity":46,"Duration":369374,"SoundDuration":369374,"Delta":167333131},{"NoteNumber":75,"Velocity":60,"Duration":1518022,"SoundDuration":1518022,"Delta":167702506},{"NoteNumber":57,"Velocity":30,"Duration":1891528,"SoundDuration":1891528,"Delta":167702506},{"NoteNumber":63,"Velocity":36,"Duration":1518022,"SoundDuration":1518022,"Delta":167702506},{"NoteNumber":65,"Velocity":24,"Duration":759011,"SoundDuration":759011,"Delta":168088011},{"NoteNumber":67,"Velocity":24,"Duration":759011,"SoundDuration":759011,"Delta":168088011},{"NoteNumber":77,"Velocity":29,"Duration":759011,"SoundDuration":759011,"Delta":168088011},{"NoteNumber":79,"Velocity":35,"Duration":759011,"SoundDuration":759011,"Delta":168088011},{"NoteNumber":65,"Velocity":25,"Duration":747012,"SoundDuration":747012,"Delta":168847022},{"NoteNumber":67,"Velocity":25,"Duration":747012,"SoundDuration":747012,"Delta":168847022},{"NoteNumber":77,"Velocity":30,"Duration":747012,"SoundDuration":747012,"Delta":168847022},{"NoteNumber":79,"Velocity":36,"Duration":747012,"SoundDuration":747012,"Delta":168847022},{"NoteNumber":72,"Velocity":42,"Duration":373505,"SoundDuration":373505,"Delta":169220528},{"NoteNumber":60,"Velocity":36,"Duration":373505,"SoundDuration":373505,"Delta":169220528},{"NoteNumber":65,"Velocity":23,"Duration":497347,"SoundDuration":497347,"Delta":169594034},{"NoteNumber":67,"Velocity":23,"Duration":497347,"SoundDuration":497347,"Delta":169594034},{"NoteNumber":77,"Velocity":28,"Duration":497347,"SoundDuration":497347,"Delta":169594034},{"NoteNumber":79,"Velocity":34,"Duration":497347,"SoundDuration":497347,"Delta":169594034},{"NoteNumber":55,"Velocity":30,"Duration":1168282,"SoundDuration":1168282,"Delta":170091382},{"NoteNumber":61,"Velocity":36,"Duration":1168282,"SoundDuration":1168282,"Delta":170091382},{"NoteNumber":57,"Velocity":34,"Duration":132079,"SoundDuration":132079,"Delta":170435934},{"NoteNumber":63,"Velocity":35,"Duration":130357,"SoundDuration":130357,"Delta":170568014},{"NoteNumber":58,"Velocity":29,"Duration":130357,"SoundDuration":130357,"Delta":170568014},{"NoteNumber":62,"Velocity":37,"Duration":128749,"SoundDuration":128749,"Delta":170698371},{"NoteNumber":46,"Velocity":36,"Duration":561292,"SoundDuration":561292,"Delta":170698371},{"NoteNumber":39,"Velocity":30,"Duration":561292,"SoundDuration":561292,"Delta":170698371},{"NoteNumber":67,"Velocity":38,"Duration":127180,"SoundDuration":127180,"Delta":170827120},{"NoteNumber":63,"Velocity":32,"Duration":127180,"SoundDuration":127180,"Delta":170827120},{"NoteNumber":66,"Velocity":40,"Duration":125582,"SoundDuration":125582,"Delta":170954300},{"NoteNumber":67,"Velocity":34,"Duration":179780,"SoundDuration":179780,"Delta":171079883},{"NoteNumber":70,"Velocity":41,"Duration":179780,"SoundDuration":179780,"Delta":171079883},{"NoteNumber":67,"Velocity":46,"Duration":76022,"SoundDuration":76022,"Delta":171259664},{"NoteNumber":41,"Velocity":30,"Duration":2229892,"SoundDuration":2229892,"Delta":171259664},{"NoteNumber":65,"Velocity":39,"Duration":78469,"SoundDuration":78469,"Delta":171335686},{"NoteNumber":60,"Velocity":37,"Duration":81108,"SoundDuration":81108,"Delta":171414156},{"NoteNumber":55,"Velocity":37,"Duration":83883,"SoundDuration":83883,"Delta":171495264},{"NoteNumber":48,"Velocity":46,"Duration":368388,"SoundDuration":368388,"Delta":171579147},{"NoteNumber":57,"Velocity":39,"Duration":1542020,"SoundDuration":1542020,"Delta":171947536},{"NoteNumber":51,"Velocity":30,"Duration":771009,"SoundDuration":771009,"Delta":171947536},{"NoteNumber":65,"Velocity":29,"Duration":771010,"SoundDuration":771010,"Delta":172333041},{"NoteNumber":53,"Velocity":24,"Duration":771010,"SoundDuration":771010,"Delta":172333041},{"NoteNumber":55,"Velocity":24,"Duration":771010,"SoundDuration":771010,"Delta":172333041},{"NoteNumber":67,"Velocity":35,"Duration":771010,"SoundDuration":771010,"Delta":172333041},{"NoteNumber":48,"Velocity":30,"Duration":771010,"SoundDuration":771010,"Delta":172718546},{"NoteNumber":53,"Velocity":25,"Duration":382292,"SoundDuration":382292,"Delta":173104051},{"NoteNumber":55,"Velocity":25,"Duration":385504,"SoundDuration":385504,"Delta":173104051},{"NoteNumber":65,"Velocity":30,"Duration":385504,"SoundDuration":385504,"Delta":173104051},{"NoteNumber":67,"Velocity":36,"Duration":385504,"SoundDuration":385504,"Delta":173104051},{"NoteNumber":41,"Velocity":31,"Duration":670241,"SoundDuration":670241,"Delta":173489556},{"NoteNumber":41,"Velocity":31,"Duration":670241,"SoundDuration":670241,"Delta":174159797},{"NoteNumber":59,"Velocity":34,"Duration":143788,"SoundDuration":143788,"Delta":174830038},{"NoteNumber":41,"Velocity":31,"Duration":567373,"SoundDuration":567373,"Delta":174830038},{"NoteNumber":65,"Velocity":33,"Duration":143788,"SoundDuration":143788,"Delta":174973826},{"NoteNumber":60,"Velocity":28,"Duration":143788,"SoundDuration":143788,"Delta":174973826},{"NoteNumber":56,"Velocity":36,"Duration":143788,"SoundDuration":143788,"Delta":175117614},{"NoteNumber":60,"Velocity":30,"Duration":391124,"SoundDuration":391124,"Delta":175261403},{"NoteNumber":57,"Velocity":25,"Duration":391124,"SoundDuration":391124,"Delta":175261403},{"NoteNumber":41,"Velocity":31,"Duration":505410,"SoundDuration":505410,"Delta":175397411},{"NoteNumber":59,"Velocity":36,"Duration":125876,"SoundDuration":125876,"Delta":175652527},{"NoteNumber":65,"Velocity":40,"Duration":124417,"SoundDuration":124417,"Delta":175778404},{"NoteNumber":60,"Velocity":34,"Duration":124417,"SoundDuration":124417,"Delta":175778404},{"NoteNumber":64,"Velocity":44,"Duration":122906,"SoundDuration":122906,"Delta":175902822},{"NoteNumber":41,"Velocity":31,"Duration":498653,"SoundDuration":498653,"Delta":175902822},{"NoteNumber":69,"Velocity":48,"Duration":121553,"SoundDuration":121553,"Delta":176025728},{"NoteNumber":65,"Velocity":40,"Duration":121553,"SoundDuration":121553,"Delta":176025728},{"NoteNumber":57,"Velocity":31,"Duration":254194,"SoundDuration":254194,"Delta":176147281},{"NoteNumber":63,"Velocity":56,"Duration":254194,"SoundDuration":254194,"Delta":176147281},{"NoteNumber":67,"Velocity":54,"Duration":129847,"SoundDuration":129847,"Delta":176401475},{"NoteNumber":56,"Velocity":35,"Duration":518349,"SoundDuration":518349,"Delta":176401475},{"NoteNumber":61,"Velocity":35,"Duration":518349,"SoundDuration":518349,"Delta":176401475},{"NoteNumber":73,"Velocity":45,"Duration":129847,"SoundDuration":129847,"Delta":176531323},{"NoteNumber":68,"Velocity":38,"Duration":129847,"SoundDuration":129847,"Delta":176531323},{"NoteNumber":64,"Velocity":52,"Duration":129847,"SoundDuration":129847,"Delta":176661170},{"NoteNumber":68,"Velocity":45,"Duration":383922,"SoundDuration":383922,"Delta":176791018},{"NoteNumber":65,"Velocity":38,"Duration":383922,"SoundDuration":383922,"Delta":176791018},{"NoteNumber":41,"Velocity":39,"Duration":505410,"SoundDuration":505410,"Delta":176919824},{"NoteNumber":67,"Velocity":50,"Duration":125876,"SoundDuration":125876,"Delta":177174940},{"NoteNumber":73,"Velocity":53,"Duration":124417,"SoundDuration":124417,"Delta":177300817},{"NoteNumber":68,"Velocity":45,"Duration":124417,"SoundDuration":124417,"Delta":177300817},{"NoteNumber":72,"Velocity":56,"Duration":122906,"SoundDuration":122906,"Delta":177425234},{"NoteNumber":41,"Velocity":39,"Duration":486394,"SoundDuration":486394,"Delta":177425234},{"NoteNumber":77,"Velocity":60,"Duration":121553,"SoundDuration":121553,"Delta":177548141},{"NoteNumber":73,"Velocity":51,"Duration":121553,"SoundDuration":121553,"Delta":177548141},{"NoteNumber":68,"Velocity":61,"Duration":241935,"SoundDuration":241935,"Delta":177669694},{"NoteNumber":61,"Velocity":35,"Duration":241935,"SoundDuration":241935,"Delta":177669694},{"NoteNumber":65,"Velocity":35,"Duration":241935,"SoundDuration":241935,"Delta":177669694},{"NoteNumber":69,"Velocity":58,"Duration":120967,"SoundDuration":120967,"Delta":177911629},{"NoteNumber":58,"Velocity":41,"Duration":505733,"SoundDuration":505733,"Delta":177911629},{"NoteNumber":67,"Velocity":41,"Duration":505733,"SoundDuration":505733,"Delta":177911629},{"NoteNumber":61,"Velocity":41,"Duration":505733,"SoundDuration":505733,"Delta":177911629},{"NoteNumber":70,"Velocity":53,"Duration":120967,"SoundDuration":120967,"Delta":178032597},{"NoteNumber":75,"Velocity":60,"Duration":120967,"SoundDuration":120967,"Delta":178032597},{"NoteNumber":74,"Velocity":63,"Duration":120967,"SoundDuration":120967,"Delta":178153565},{"NoteNumber":75,"Velocity":56,"Duration":142830,"SoundDuration":142830,"Delta":178274533},{"NoteNumber":79,"Velocity":65,"Duration":142830,"SoundDuration":142830,"Delta":178274533},{"NoteNumber":53,"Velocity":61,"Duration":483792,"SoundDuration":483792,"Delta":178417363},{"NoteNumber":74,"Velocity":64,"Duration":120948,"SoundDuration":120948,"Delta":178659259},{"NoteNumber":79,"Velocity":67,"Duration":120948,"SoundDuration":120948,"Delta":178780207},{"NoteNumber":75,"Velocity":67,"Duration":120948,"SoundDuration":120948,"Delta":178780207},{"NoteNumber":78,"Velocity":69,"Duration":120948,"SoundDuration":120948,"Delta":178901156},{"NoteNumber":65,"Velocity":49,"Duration":504642,"SoundDuration":504642,"Delta":178901156},{"NoteNumber":82,"Velocity":72,"Duration":140818,"SoundDuration":140818,"Delta":179022104},{"NoteNumber":79,"Velocity":72,"Duration":140818,"SoundDuration":140818,"Delta":179022104},{"NoteNumber":70,"Velocity":60,"Duration":242875,"SoundDuration":242875,"Delta":179162923},{"NoteNumber":75,"Velocity":60,"Duration":242875,"SoundDuration":242875,"Delta":179162923},{"NoteNumber":78,"Velocity":74,"Duration":121437,"SoundDuration":121437,"Delta":179405798},{"NoteNumber":67,"Velocity":51,"Duration":242875,"SoundDuration":242875,"Delta":179405798},{"NoteNumber":72,"Velocity":51,"Duration":242875,"SoundDuration":242875,"Delta":179405798},{"NoteNumber":82,"Velocity":69,"Duration":121437,"SoundDuration":121437,"Delta":179527236},{"NoteNumber":79,"Velocity":69,"Duration":121437,"SoundDuration":121437,"Delta":179527236},{"NoteNumber":79,"Velocity":74,"Duration":121437,"SoundDuration":121437,"Delta":179648674},{"NoteNumber":70,"Velocity":57,"Duration":250725,"SoundDuration":250725,"Delta":179648674},{"NoteNumber":75,"Velocity":57,"Duration":250725,"SoundDuration":250725,"Delta":179648674},{"NoteNumber":84,"Velocity":69,"Duration":129288,"SoundDuration":129288,"Delta":179770111},{"NoteNumber":80,"Velocity":69,"Duration":129288,"SoundDuration":129288,"Delta":179770111},{"NoteNumber":79,"Velocity":84,"Duration":117720,"SoundDuration":117720,"Delta":179899399},{"NoteNumber":77,"Velocity":78,"Duration":470884,"SoundDuration":470884,"Delta":179899399},{"NoteNumber":84,"Velocity":69,"Duration":117721,"SoundDuration":117721,"Delta":180017120},{"NoteNumber":80,"Velocity":69,"Duration":117721,"SoundDuration":117721,"Delta":180017120},{"NoteNumber":81,"Velocity":76,"Duration":117720,"SoundDuration":117720,"Delta":180134841},{"NoteNumber":87,"Velocity":68,"Duration":117721,"SoundDuration":117721,"Delta":180252562},{"NoteNumber":82,"Velocity":68,"Duration":117721,"SoundDuration":117721,"Delta":180252562},{"NoteNumber":83,"Velocity":85,"Duration":117720,"SoundDuration":117720,"Delta":180370283},{"NoteNumber":65,"Velocity":68,"Duration":481056,"SoundDuration":481056,"Delta":180370283},{"NoteNumber":89,"Velocity":66,"Duration":133309,"SoundDuration":133309,"Delta":180488004},{"NoteNumber":84,"Velocity":66,"Duration":133309,"SoundDuration":133309,"Delta":180488004},{"NoteNumber":79,"Velocity":76,"Duration":115013,"SoundDuration":115013,"Delta":180621314},{"NoteNumber":84,"Velocity":66,"Duration":115013,"SoundDuration":115013,"Delta":180736327},{"NoteNumber":80,"Velocity":66,"Duration":115013,"SoundDuration":115013,"Delta":180736327},{"NoteNumber":81,"Velocity":84,"Duration":115013,"SoundDuration":115013,"Delta":180851340},{"NoteNumber":87,"Velocity":66,"Duration":115012,"SoundDuration":115012,"Delta":180966353},{"NoteNumber":82,"Velocity":66,"Duration":115012,"SoundDuration":115012,"Delta":180966353},{"NoteNumber":83,"Velocity":74,"Duration":115013,"SoundDuration":115013,"Delta":181081366},{"NoteNumber":89,"Velocity":68,"Duration":132135,"SoundDuration":132135,"Delta":181196379},{"NoteNumber":84,"Velocity":68,"Duration":132135,"SoundDuration":132135,"Delta":181196379},{"NoteNumber":79,"Velocity":82,"Duration":114573,"SoundDuration":114573,"Delta":181328514},{"NoteNumber":53,"Velocity":65,"Duration":458294,"SoundDuration":458294,"Delta":181328514},{"NoteNumber":84,"Velocity":64,"Duration":114573,"SoundDuration":114573,"Delta":181443088},{"NoteNumber":80,"Velocity":64,"Duration":114573,"SoundDuration":114573,"Delta":181443088},{"NoteNumber":81,"Velocity":68,"Duration":114573,"SoundDuration":114573,"Delta":181557662},{"NoteNumber":87,"Velocity":61,"Duration":114573,"SoundDuration":114573,"Delta":181672236},{"NoteNumber":82,"Velocity":61,"Duration":114573,"SoundDuration":114573,"Delta":181672236},{"NoteNumber":83,"Velocity":74,"Duration":114573,"SoundDuration":114573,"Delta":181786809},{"NoteNumber":89,"Velocity":56,"Duration":133309,"SoundDuration":133309,"Delta":181901383},{"NoteNumber":84,"Velocity":56,"Duration":133309,"SoundDuration":133309,"Delta":181901383},{"NoteNumber":79,"Velocity":62,"Duration":123538,"SoundDuration":123538,"Delta":182034693},{"NoteNumber":84,"Velocity":54,"Duration":123538,"SoundDuration":123538,"Delta":182158231},{"NoteNumber":80,"Velocity":54,"Duration":123538,"SoundDuration":123538,"Delta":182158231},{"NoteNumber":81,"Velocity":59,"Duration":123538,"SoundDuration":123538,"Delta":182281769},{"NoteNumber":87,"Velocity":52,"Duration":123538,"SoundDuration":123538,"Delta":182405308},{"NoteNumber":82,"Velocity":52,"Duration":123538,"SoundDuration":123538,"Delta":182405308},{"NoteNumber":83,"Velocity":56,"Duration":123538,"SoundDuration":123538,"Delta":182528846},{"NoteNumber":89,"Velocity":51,"Duration":124049,"SoundDuration":124049,"Delta":182652384},{"NoteNumber":84,"Velocity":51,"Duration":124049,"SoundDuration":124049,"Delta":182652384},{"NoteNumber":79,"Velocity":61,"Duration":115901,"SoundDuration":115901,"Delta":182776433},{"NoteNumber":84,"Velocity":48,"Duration":115013,"SoundDuration":115013,"Delta":182892335},{"NoteNumber":80,"Velocity":48,"Duration":115013,"SoundDuration":115013,"Delta":182892335},{"NoteNumber":81,"Velocity":51,"Duration":115013,"SoundDuration":115013,"Delta":183007348},{"NoteNumber":87,"Velocity":45,"Duration":115013,"SoundDuration":115013,"Delta":183122361},{"NoteNumber":82,"Velocity":45,"Duration":115013,"SoundDuration":115013,"Delta":183122361},{"NoteNumber":83,"Velocity":55,"Duration":115012,"SoundDuration":115012,"Delta":183237374},{"NoteNumber":89,"Velocity":42,"Duration":123538,"SoundDuration":123538,"Delta":183352387},{"NoteNumber":84,"Velocity":42,"Duration":123538,"SoundDuration":123538,"Delta":183352387},{"NoteNumber":79,"Velocity":45,"Duration":116351,"SoundDuration":116351,"Delta":183475925},{"NoteNumber":84,"Velocity":39,"Duration":116351,"SoundDuration":116351,"Delta":183592276},{"NoteNumber":80,"Velocity":39,"Duration":116351,"SoundDuration":116351,"Delta":183592276},{"NoteNumber":81,"Velocity":42,"Duration":116351,"SoundDuration":116351,"Delta":183708628},{"NoteNumber":87,"Velocity":36,"Duration":116351,"SoundDuration":116351,"Delta":183824979},{"NoteNumber":82,"Velocity":36,"Duration":116351,"SoundDuration":116351,"Delta":183824979},{"NoteNumber":83,"Velocity":39,"Duration":116351,"SoundDuration":116351,"Delta":183941330},{"NoteNumber":89,"Velocity":35,"Duration":124563,"SoundDuration":124563,"Delta":184057681},{"NoteNumber":84,"Velocity":35,"Duration":124563,"SoundDuration":124563,"Delta":184057681},{"NoteNumber":79,"Velocity":42,"Duration":116804,"SoundDuration":116804,"Delta":184182245},{"NoteNumber":84,"Velocity":34,"Duration":116804,"SoundDuration":116804,"Delta":184299050},{"NoteNumber":80,"Velocity":34,"Duration":116804,"SoundDuration":116804,"Delta":184299050},{"NoteNumber":81,"Velocity":37,"Duration":116804,"SoundDuration":116804,"Delta":184415854},{"NoteNumber":87,"Velocity":34,"Duration":116804,"SoundDuration":116804,"Delta":184532658},{"NoteNumber":82,"Velocity":34,"Duration":116804,"SoundDuration":116804,"Delta":184532658},{"NoteNumber":83,"Velocity":42,"Duration":116804,"SoundDuration":116804,"Delta":184649462},{"NoteNumber":89,"Velocity":33,"Duration":125607,"SoundDuration":125607,"Delta":184766267},{"NoteNumber":84,"Velocity":33,"Duration":125607,"SoundDuration":125607,"Delta":184766267},{"NoteNumber":79,"Velocity":37,"Duration":116804,"SoundDuration":116804,"Delta":184891874},{"NoteNumber":84,"Velocity":33,"Duration":116804,"SoundDuration":116804,"Delta":185008678},{"NoteNumber":80,"Velocity":33,"Duration":116804,"SoundDuration":116804,"Delta":185008678},{"NoteNumber":81,"Velocity":37,"Duration":116804,"SoundDuration":116804,"Delta":185125482},{"NoteNumber":87,"Velocity":33,"Duration":116804,"SoundDuration":116804,"Delta":185242286},{"NoteNumber":82,"Velocity":33,"Duration":116804,"SoundDuration":116804,"Delta":185242286},{"NoteNumber":83,"Velocity":37,"Duration":116804,"SoundDuration":116804,"Delta":185359091},{"NoteNumber":89,"Velocity":34,"Duration":132135,"SoundDuration":132135,"Delta":185475895},{"NoteNumber":84,"Velocity":34,"Duration":132135,"SoundDuration":132135,"Delta":185475895},{"NoteNumber":79,"Velocity":42,"Duration":116918,"SoundDuration":116918,"Delta":185608030},{"NoteNumber":84,"Velocity":34,"Duration":118221,"SoundDuration":118221,"Delta":185724948},{"NoteNumber":80,"Velocity":34,"Duration":118221,"SoundDuration":118221,"Delta":185724948},{"NoteNumber":81,"Velocity":37,"Duration":119934,"SoundDuration":119934,"Delta":185843170},{"NoteNumber":87,"Velocity":34,"Duration":121674,"SoundDuration":121674,"Delta":185963105},{"NoteNumber":82,"Velocity":34,"Duration":121674,"SoundDuration":121674,"Delta":185963105},{"NoteNumber":83,"Velocity":50,"Duration":137614,"SoundDuration":137614,"Delta":186084779},{"NoteNumber":44,"Velocity":67,"Duration":573736,"SoundDuration":573736,"Delta":186084779},{"NoteNumber":89,"Velocity":39,"Duration":137614,"SoundDuration":137614,"Delta":186222394},{"NoteNumber":84,"Velocity":39,"Duration":137614,"SoundDuration":137614,"Delta":186222394},{"NoteNumber":79,"Velocity":45,"Duration":149253,"SoundDuration":149253,"Delta":186360009},{"NoteNumber":56,"Velocity":73,"Duration":298507,"SoundDuration":298507,"Delta":186360009},{"NoteNumber":84,"Velocity":40,"Duration":149253,"SoundDuration":149253,"Delta":186509262},{"NoteNumber":80,"Velocity":40,"Duration":149253,"SoundDuration":149253,"Delta":186509262},{"NoteNumber":81,"Velocity":50,"Duration":142857,"SoundDuration":142857,"Delta":186658516},{"NoteNumber":66,"Velocity":55,"Duration":564718,"SoundDuration":564718,"Delta":186658516},{"NoteNumber":77,"Velocity":75,"Duration":564718,"SoundDuration":564718,"Delta":186658516},{"NoteNumber":69,"Velocity":55,"Duration":564718,"SoundDuration":564718,"Delta":186658516},{"NoteNumber":72,"Velocity":55,"Duration":564718,"SoundDuration":564718,"Delta":186658516},{"NoteNumber":87,"Velocity":42,"Duration":142857,"SoundDuration":142857,"Delta":186801373},{"NoteNumber":82,"Velocity":42,"Duration":142857,"SoundDuration":142857,"Delta":186801373},{"NoteNumber":83,"Velocity":48,"Duration":144927,"SoundDuration":144927,"Delta":186944231},{"NoteNumber":89,"Velocity":41,"Duration":134076,"SoundDuration":134076,"Delta":187089158},{"NoteNumber":84,"Velocity":41,"Duration":134076,"SoundDuration":134076,"Delta":187089158},{"NoteNumber":87,"Velocity":57,"Duration":72505,"SoundDuration":72505,"Delta":187223235},{"NoteNumber":72,"Velocity":57,"Duration":877534,"SoundDuration":877534,"Delta":187223235},{"NoteNumber":64,"Velocity":57,"Duration":436621,"SoundDuration":436621,"Delta":187223235},{"NoteNumber":61,"Velocity":57,"Duration":877534,"SoundDuration":877534,"Delta":187223235},{"NoteNumber":80,"Velocity":48,"Duration":72519,"SoundDuration":72519,"Delta":187295741},{"NoteNumber":75,"Velocity":48,"Duration":72769,"SoundDuration":72769,"Delta":187368260},{"NoteNumber":85,"Velocity":57,"Duration":72769,"SoundDuration":72769,"Delta":187441030},{"NoteNumber":80,"Velocity":48,"Duration":73022,"SoundDuration":73022,"Delta":187513799},{"NoteNumber":73,"Velocity":48,"Duration":73035,"SoundDuration":73035,"Delta":187586821},{"NoteNumber":80,"Velocity":57,"Duration":73182,"SoundDuration":73182,"Delta":187659857},{"NoteNumber":65,"Velocity":55,"Duration":440913,"SoundDuration":440913,"Delta":187659857},{"NoteNumber":77,"Velocity":42,"Duration":73303,"SoundDuration":73303,"Delta":187733039},{"NoteNumber":68,"Velocity":42,"Duration":73424,"SoundDuration":73424,"Delta":187806342},{"NoteNumber":75,"Velocity":53,"Duration":73572,"SoundDuration":73572,"Delta":187879767},{"NoteNumber":68,"Velocity":39,"Duration":73586,"SoundDuration":73586,"Delta":187953339},{"NoteNumber":63,"Velocity":39,"Duration":73844,"SoundDuration":73844,"Delta":188026925},{"NoteNumber":73,"Velocity":52,"Duration":222066,"SoundDuration":222066,"Delta":188100770},{"NoteNumber":68,"Velocity":39,"Duration":74104,"SoundDuration":74104,"Delta":188174614},{"NoteNumber":61,"Velocity":39,"Duration":74117,"SoundDuration":74117,"Delta":188248718},{"NoteNumber":68,"Velocity":50,"Duration":74269,"SoundDuration":74269,"Delta":188322836},{"NoteNumber":65,"Velocity":37,"Duration":74393,"SoundDuration":74393,"Delta":188397106},{"NoteNumber":56,"Velocity":37,"Duration":74518,"SoundDuration":74518,"Delta":188471500},{"NoteNumber":68,"Velocity":56,"Duration":467217,"SoundDuration":467217,"Delta":188546018},{"NoteNumber":73,"Velocity":56,"Duration":77869,"SoundDuration":77869,"Delta":188546018},{"NoteNumber":80,"Velocity":66,"Duration":467217,"SoundDuration":467217,"Delta":188546018},{"NoteNumber":73,"Velocity":50,"Duration":467217,"SoundDuration":467217,"Delta":188546018},{"NoteNumber":66,"Velocity":41,"Duration":77869,"SoundDuration":77869,"Delta":188623888},{"NoteNumber":63,"Velocity":41,"Duration":77869,"SoundDuration":77869,"Delta":188701757},{"NoteNumber":70,"Velocity":50,"Duration":77869,"SoundDuration":77869,"Delta":188779627},{"NoteNumber":63,"Velocity":39,"Duration":77869,"SoundDuration":77869,"Delta":188857496},{"NoteNumber":61,"Velocity":38,"Duration":77869,"SoundDuration":77869,"Delta":188935366},{"NoteNumber":66,"Velocity":50,"Duration":474958,"SoundDuration":474958,"Delta":189013235},{"NoteNumber":75,"Velocity":59,"Duration":474958,"SoundDuration":474958,"Delta":189013235},{"NoteNumber":78,"Velocity":59,"Duration":474958,"SoundDuration":474958,"Delta":189013235},{"NoteNumber":68,"Velocity":49,"Duration":79101,"SoundDuration":79101,"Delta":189013235},{"NoteNumber":61,"Velocity":37,"Duration":79101,"SoundDuration":79101,"Delta":189092337},{"NoteNumber":58,"Velocity":37,"Duration":79101,"SoundDuration":79101,"Delta":189171438},{"NoteNumber":70,"Velocity":48,"Duration":79101,"SoundDuration":79101,"Delta":189250539},{"NoteNumber":63,"Velocity":35,"Duration":79101,"SoundDuration":79101,"Delta":189329641},{"NoteNumber":61,"Velocity":35,"Duration":79452,"SoundDuration":79452,"Delta":189408742},{"NoteNumber":70,"Velocity":44,"Duration":488209,"SoundDuration":488209,"Delta":189488194},{"NoteNumber":73,"Velocity":52,"Duration":488209,"SoundDuration":488209,"Delta":189488194},{"NoteNumber":68,"Velocity":47,"Duration":80446,"SoundDuration":80446,"Delta":189488194},{"NoteNumber":63,"Velocity":35,"Duration":80804,"SoundDuration":80804,"Delta":189568641},{"NoteNumber":58,"Velocity":35,"Duration":81165,"SoundDuration":81165,"Delta":189649445},{"NoteNumber":66,"Velocity":46,"Duration":81528,"SoundDuration":81528,"Delta":189730610},{"NoteNumber":61,"Velocity":35,"Duration":81959,"SoundDuration":81959,"Delta":189812139},{"NoteNumber":56,"Velocity":35,"Duration":82304,"SoundDuration":82304,"Delta":189894099},{"NoteNumber":68,"Velocity":50,"Duration":487805,"SoundDuration":487805,"Delta":189976403},{"NoteNumber":54,"Velocity":46,"Duration":97561,"SoundDuration":97561,"Delta":189976403},{"NoteNumber":57,"Velocity":40,"Duration":97560,"SoundDuration":97560,"Delta":190073964},{"NoteNumber":58,"Velocity":40,"Duration":97561,"SoundDuration":97561,"Delta":190171525},{"NoteNumber":60,"Velocity":41,"Duration":97560,"SoundDuration":97560,"Delta":190269086},{"NoteNumber":61,"Velocity":41,"Duration":97561,"SoundDuration":97561,"Delta":190366647},{"NoteNumber":66,"Velocity":47,"Duration":284375,"SoundDuration":284375,"Delta":190464208},{"NoteNumber":60,"Velocity":34,"Duration":71875,"SoundDuration":71875,"Delta":190535041},{"NoteNumber":61,"Velocity":34,"Duration":70833,"SoundDuration":70833,"Delta":190606916},{"NoteNumber":66,"Velocity":35,"Duration":286458,"SoundDuration":286458,"Delta":190677750},{"NoteNumber":69,"Velocity":36,"Duration":71874,"SoundDuration":71874,"Delta":190748583},{"NoteNumber":70,"Velocity":36,"Duration":70833,"SoundDuration":70833,"Delta":190820458},{"NoteNumber":73,"Velocity":37,"Duration":72916,"SoundDuration":72916,"Delta":190891291},{"NoteNumber":78,"Velocity":36,"Duration":87719,"SoundDuration":87719,"Delta":190964208},{"NoteNumber":61,"Velocity":48,"Duration":526316,"SoundDuration":526316,"Delta":190964208},{"NoteNumber":73,"Velocity":36,"Duration":87719,"SoundDuration":87719,"Delta":191051927},{"NoteNumber":70,"Velocity":35,"Duration":87719,"SoundDuration":87719,"Delta":191139647},{"NoteNumber":69,"Velocity":34,"Duration":87719,"SoundDuration":87719,"Delta":191227366},{"NoteNumber":66,"Velocity":34,"Duration":87719,"SoundDuration":87719,"Delta":191315085},{"NoteNumber":65,"Velocity":33,"Duration":220462,"SoundDuration":220462,"Delta":191402805},{"NoteNumber":73,"Velocity":46,"Duration":530972,"SoundDuration":530972,"Delta":191490524},{"NoteNumber":52,"Velocity":37,"Duration":176990,"SoundDuration":176990,"Delta":191490524},{"NoteNumber":66,"Velocity":33,"Duration":132743,"SoundDuration":132743,"Delta":191623267},{"NoteNumber":56,"Velocity":28,"Duration":176991,"SoundDuration":176991,"Delta":191667515},{"NoteNumber":64,"Velocity":33,"Duration":132743,"SoundDuration":132743,"Delta":191756011},{"NoteNumber":62,"Velocity":28,"Duration":176990,"SoundDuration":176990,"Delta":191844506},{"NoteNumber":65,"Velocity":33,"Duration":132743,"SoundDuration":132743,"Delta":191888754},{"NoteNumber":68,"Velocity":39,"Duration":781558,"SoundDuration":781558,"Delta":192021497},{"NoteNumber":66,"Velocity":37,"Duration":172413,"SoundDuration":172413,"Delta":192021497},{"NoteNumber":62,"Velocity":28,"Duration":172413,"SoundDuration":172413,"Delta":192193911},{"NoteNumber":65,"Velocity":33,"Duration":129310,"SoundDuration":129310,"Delta":192280118},{"NoteNumber":56,"Velocity":28,"Duration":172413,"SoundDuration":172413,"Delta":192366324},{"NoteNumber":66,"Velocity":33,"Duration":129310,"SoundDuration":129310,"Delta":192409428},{"NoteNumber":63,"Velocity":33,"Duration":132158,"SoundDuration":132158,"Delta":192538738},{"NoteNumber":60,"Velocity":39,"Duration":176211,"SoundDuration":176211,"Delta":192538738},{"NoteNumber":64,"Velocity":33,"Duration":132158,"SoundDuration":132158,"Delta":192670897},{"NoteNumber":54,"Velocity":37,"Duration":176211,"SoundDuration":176211,"Delta":192714949},{"NoteNumber":61,"Velocity":33,"Duration":132158,"SoundDuration":132158,"Delta":192803055},{"NoteNumber":69,"Velocity":46,"Duration":264317,"SoundDuration":264317,"Delta":192803055},{"NoteNumber":50,"Velocity":44,"Duration":176211,"SoundDuration":176211,"Delta":192891161},{"NoteNumber":62,"Velocity":33,"Duration":132158,"SoundDuration":132158,"Delta":192935214},{"NoteNumber":43,"Velocity":51,"Duration":126582,"SoundDuration":126582,"Delta":193067372},{"NoteNumber":49,"Velocity":51,"Duration":126582,"SoundDuration":126582,"Delta":193067372},{"NoteNumber":50,"Velocity":50,"Duration":126582,"SoundDuration":126582,"Delta":193193954},{"NoteNumber":62,"Velocity":43,"Duration":579130,"SoundDuration":579130,"Delta":193257246},{"NoteNumber":71,"Velocity":46,"Duration":547484,"SoundDuration":547484,"Delta":193288891},{"NoteNumber":76,"Velocity":50,"Duration":515839,"SoundDuration":515839,"Delta":193320537},{"NoteNumber":54,"Velocity":47,"Duration":127613,"SoundDuration":127613,"Delta":193320537},{"NoteNumber":55,"Velocity":45,"Duration":128480,"SoundDuration":128480,"Delta":193448150},{"NoteNumber":58,"Velocity":39,"Duration":129422,"SoundDuration":129422,"Delta":193576631},{"NoteNumber":59,"Velocity":38,"Duration":130322,"SoundDuration":130322,"Delta":193706053},{"NoteNumber":74,"Velocity":47,"Duration":531547,"SoundDuration":531547,"Delta":193836376},{"NoteNumber":61,"Velocity":37,"Duration":131291,"SoundDuration":131291,"Delta":193836376},{"NoteNumber":62,"Velocity":36,"Duration":132392,"SoundDuration":132392,"Delta":193967667},{"NoteNumber":70,"Velocity":34,"Duration":133452,"SoundDuration":133452,"Delta":194100060},{"NoteNumber":71,"Velocity":33,"Duration":134409,"SoundDuration":134409,"Delta":194233513},{"NoteNumber":67,"Velocity":43,"Duration":271629,"SoundDuration":271629,"Delta":194367923},{"NoteNumber":61,"Velocity":32,"Duration":135440,"SoundDuration":135440,"Delta":194367923},{"NoteNumber":62,"Velocity":31,"Duration":136188,"SoundDuration":136188,"Delta":194503364},{"NoteNumber":39,"Velocity":39,"Duration":137513,"SoundDuration":137513,"Delta":194639553},{"NoteNumber":46,"Velocity":43,"Duration":137513,"SoundDuration":137513,"Delta":194777066},{"NoteNumber":54,"Velocity":45,"Duration":137513,"SoundDuration":137513,"Delta":194914580},{"NoteNumber":55,"Velocity":47,"Duration":137513,"SoundDuration":137513,"Delta":195052094},{"NoteNumber":61,"Velocity":46,"Duration":87727,"SoundDuration":87727,"Delta":195189608},{"NoteNumber":65,"Velocity":46,"Duration":260722,"SoundDuration":260722,"Delta":195189608},{"NoteNumber":57,"Velocity":47,"Duration":86497,"SoundDuration":86497,"Delta":195277335},{"NoteNumber":58,"Velocity":49,"Duration":86497,"SoundDuration":86497,"Delta":195363833},{"NoteNumber":58,"Velocity":50,"Duration":64873,"SoundDuration":64873,"Delta":195450330},{"NoteNumber":63,"Velocity":49,"Duration":64873,"SoundDuration":64873,"Delta":195515204},{"NoteNumber":66,"Velocity":48,"Duration":64798,"SoundDuration":64798,"Delta":195580077},{"NoteNumber":67,"Velocity":48,"Duration":66004,"SoundDuration":66004,"Delta":195644876},{"NoteNumber":69,"Velocity":41,"Duration":63833,"SoundDuration":63833,"Delta":195710881},{"NoteNumber":70,"Velocity":40,"Duration":63490,"SoundDuration":63490,"Delta":195774714},{"NoteNumber":73,"Velocity":38,"Duration":63118,"SoundDuration":63118,"Delta":195838205},{"NoteNumber":77,"Velocity":37,"Duration":62804,"SoundDuration":62804,"Delta":195901323},{"NoteNumber":70,"Velocity":39,"Duration":62471,"SoundDuration":62471,"Delta":195964127},{"NoteNumber":75,"Velocity":38,"Duration":62086,"SoundDuration":62086,"Delta":196026599},{"NoteNumber":78,"Velocity":37,"Duration":61813,"SoundDuration":61813,"Delta":196088685},{"NoteNumber":79,"Velocity":36,"Duration":61186,"SoundDuration":61186,"Delta":196150499},{"NoteNumber":81,"Velocity":32,"Duration":61259,"SoundDuration":61259,"Delta":196211685},{"NoteNumber":82,"Velocity":34,"Duration":61674,"SoundDuration":61674,"Delta":196272944},{"NoteNumber":85,"Velocity":36,"Duration":62094,"SoundDuration":62094,"Delta":196334619},{"NoteNumber":89,"Velocity":39,"Duration":62592,"SoundDuration":62592,"Delta":196396713},{"NoteNumber":70,"Velocity":41,"Duration":53313,"SoundDuration":53313,"Delta":196971807},{"NoteNumber":74,"Velocity":42,"Duration":52920,"SoundDuration":52920,"Delta":197025121},{"NoteNumber":75,"Velocity":44,"Duration":52484,"SoundDuration":52484,"Delta":197078041},{"NoteNumber":78,"Velocity":45,"Duration":52149,"SoundDuration":52149,"Delta":197130526},{"NoteNumber":79,"Velocity":47,"Duration":51727,"SoundDuration":51727,"Delta":197182675},{"NoteNumber":81,"Velocity":48,"Duration":51359,"SoundDuration":51359,"Delta":197234403},{"NoteNumber":82,"Velocity":49,"Duration":51029,"SoundDuration":51029,"Delta":197285763},{"NoteNumber":85,"Velocity":51,"Duration":50630,"SoundDuration":50630,"Delta":197336792},{"NoteNumber":89,"Velocity":54,"Duration":50231,"SoundDuration":50231,"Delta":197387423},{"NoteNumber":94,"Velocity":58,"Duration":50079,"SoundDuration":50079,"Delta":197437655},{"NoteNumber":101,"Velocity":62,"Duration":127969,"SoundDuration":127969,"Delta":197487734},{"NoteNumber":97,"Velocity":62,"Duration":127969,"SoundDuration":127969,"Delta":197487734},{"NoteNumber":99,"Velocity":37,"Duration":151775,"SoundDuration":151775,"Delta":198000286},{"NoteNumber":97,"Velocity":37,"Duration":151775,"SoundDuration":151775,"Delta":198000286},{"NoteNumber":85,"Velocity":37,"Duration":151775,"SoundDuration":151775,"Delta":198000286},{"NoteNumber":87,"Velocity":37,"Duration":151775,"SoundDuration":151775,"Delta":198000286},{"NoteNumber":73,"Velocity":33,"Duration":151775,"SoundDuration":151775,"Delta":198000286},{"NoteNumber":75,"Velocity":33,"Duration":151775,"SoundDuration":151775,"Delta":198000286},{"NoteNumber":89,"Velocity":37,"Duration":151775,"SoundDuration":151775,"Delta":198303838},{"NoteNumber":91,"Velocity":37,"Duration":151775,"SoundDuration":151775,"Delta":198303838},{"NoteNumber":79,"Velocity":33,"Duration":151775,"SoundDuration":151775,"Delta":198303838},{"NoteNumber":77,"Velocity":33,"Duration":151775,"SoundDuration":151775,"Delta":198303838},{"NoteNumber":87,"Velocity":34,"Duration":174886,"SoundDuration":174886,"Delta":199306934},{"NoteNumber":85,"Velocity":34,"Duration":174886,"SoundDuration":174886,"Delta":199306934},{"NoteNumber":75,"Velocity":30,"Duration":174886,"SoundDuration":174886,"Delta":199306934},{"NoteNumber":73,"Velocity":30,"Duration":174886,"SoundDuration":174886,"Delta":199306934},{"NoteNumber":81,"Velocity":30,"Duration":187079,"SoundDuration":187079,"Delta":200380637},{"NoteNumber":79,"Velocity":30,"Duration":187079,"SoundDuration":187079,"Delta":200380637},{"NoteNumber":81,"Velocity":47,"Duration":132967,"SoundDuration":132967,"Delta":202251427},{"NoteNumber":78,"Velocity":42,"Duration":177289,"SoundDuration":177289,"Delta":202251427},{"NoteNumber":87,"Velocity":40,"Duration":132966,"SoundDuration":132966,"Delta":202384394},{"NoteNumber":82,"Velocity":40,"Duration":132966,"SoundDuration":132966,"Delta":202384394},{"NoteNumber":72,"Velocity":31,"Duration":177289,"SoundDuration":177289,"Delta":202428717},{"NoteNumber":77,"Velocity":48,"Duration":132967,"SoundDuration":132967,"Delta":202517361},{"NoteNumber":68,"Velocity":32,"Duration":174739,"SoundDuration":174739,"Delta":202606006},{"NoteNumber":82,"Velocity":56,"Duration":385533,"SoundDuration":385533,"Delta":202650328},{"NoteNumber":78,"Velocity":51,"Duration":385533,"SoundDuration":385533,"Delta":202650328},{"NoteNumber":76,"Velocity":50,"Duration":170256,"SoundDuration":170256,"Delta":202780746},{"NoteNumber":70,"Velocity":43,"Duration":168960,"SoundDuration":168960,"Delta":202951002},{"NoteNumber":79,"Velocity":49,"Duration":125876,"SoundDuration":125876,"Delta":203035862},{"NoteNumber":66,"Velocity":36,"Duration":166193,"SoundDuration":166193,"Delta":203119963},{"NoteNumber":84,"Velocity":52,"Duration":124417,"SoundDuration":124417,"Delta":203161738},{"NoteNumber":80,"Velocity":52,"Duration":124417,"SoundDuration":124417,"Delta":203161738},{"NoteNumber":81,"Velocity":55,"Duration":122906,"SoundDuration":122906,"Delta":203286156},{"NoteNumber":80,"Velocity":60,"Duration":163556,"SoundDuration":163556,"Delta":203286156},{"NoteNumber":87,"Velocity":58,"Duration":121553,"SoundDuration":121553,"Delta":203409062},{"NoteNumber":82,"Velocity":58,"Duration":121553,"SoundDuration":121553,"Delta":203409062},{"NoteNumber":74,"Velocity":46,"Duration":161131,"SoundDuration":161131,"Delta":203449713},{"NoteNumber":83,"Velocity":61,"Duration":120093,"SoundDuration":120093,"Delta":203530615},{"NoteNumber":70,"Velocity":49,"Duration":194567,"SoundDuration":194567,"Delta":203610845},{"NoteNumber":89,"Velocity":64,"Duration":154703,"SoundDuration":154703,"Delta":203650709},{"NoteNumber":84,"Velocity":64,"Duration":154703,"SoundDuration":154703,"Delta":203650709},{"NoteNumber":81,"Velocity":47,"Duration":133511,"SoundDuration":133511,"Delta":203805412},{"NoteNumber":78,"Velocity":42,"Duration":178014,"SoundDuration":178014,"Delta":203805412},{"NoteNumber":87,"Velocity":40,"Duration":133511,"SoundDuration":133511,"Delta":203938924},{"NoteNumber":82,"Velocity":40,"Duration":133511,"SoundDuration":133511,"Delta":203938924},{"NoteNumber":72,"Velocity":31,"Duration":178015,"SoundDuration":178015,"Delta":203983427},{"NoteNumber":77,"Velocity":49,"Duration":133511,"SoundDuration":133511,"Delta":204072435},{"NoteNumber":68,"Velocity":32,"Duration":175202,"SoundDuration":175202,"Delta":204161442},{"NoteNumber":82,"Velocity":58,"Duration":385944,"SoundDuration":385944,"Delta":204205946},{"NoteNumber":78,"Velocity":53,"Duration":385944,"SoundDuration":385944,"Delta":204205946},{"NoteNumber":76,"Velocity":50,"Duration":170256,"SoundDuration":170256,"Delta":204336645},{"NoteNumber":70,"Velocity":41,"Duration":169276,"SoundDuration":169276,"Delta":204506901},{"NoteNumber":79,"Velocity":49,"Duration":126153,"SoundDuration":126153,"Delta":204591891},{"NoteNumber":66,"Velocity":39,"Duration":166218,"SoundDuration":166218,"Delta":204676177},{"NoteNumber":84,"Velocity":52,"Duration":124350,"SoundDuration":124350,"Delta":204718045},{"NoteNumber":80,"Velocity":52,"Duration":124350,"SoundDuration":124350,"Delta":204718045},{"NoteNumber":81,"Velocity":55,"Duration":122667,"SoundDuration":122667,"Delta":204842396},{"NoteNumber":80,"Velocity":60,"Duration":163182,"SoundDuration":163182,"Delta":204842396},{"NoteNumber":87,"Velocity":58,"Duration":120925,"SoundDuration":120925,"Delta":204965063},{"NoteNumber":82,"Velocity":58,"Duration":120925,"SoundDuration":120925,"Delta":204965063},{"NoteNumber":74,"Velocity":46,"Duration":160152,"SoundDuration":160152,"Delta":205005578},{"NoteNumber":83,"Velocity":61,"Duration":119290,"SoundDuration":119290,"Delta":205085989},{"NoteNumber":70,"Velocity":49,"Duration":195750,"SoundDuration":195750,"Delta":205165731},{"NoteNumber":89,"Velocity":64,"Duration":156201,"SoundDuration":156201,"Delta":205205280},{"NoteNumber":84,"Velocity":64,"Duration":156201,"SoundDuration":156201,"Delta":205205280},{"NoteNumber":87,"Velocity":74,"Duration":86956,"SoundDuration":86956,"Delta":205361481},{"NoteNumber":61,"Velocity":47,"Duration":173912,"SoundDuration":173912,"Delta":205361481},{"NoteNumber":80,"Velocity":42,"Duration":86956,"SoundDuration":86956,"Delta":205448437},{"NoteNumber":75,"Velocity":42,"Duration":86956,"SoundDuration":86956,"Delta":205535394},{"NoteNumber":68,"Velocity":39,"Duration":173912,"SoundDuration":173912,"Delta":205535394},{"NoteNumber":85,"Velocity":57,"Duration":86956,"SoundDuration":86956,"Delta":205622350},{"NoteNumber":80,"Velocity":43,"Duration":86956,"SoundDuration":86956,"Delta":205709307},{"NoteNumber":76,"Velocity":44,"Duration":173912,"SoundDuration":173912,"Delta":205709307},{"NoteNumber":73,"Velocity":43,"Duration":86956,"SoundDuration":86956,"Delta":205796263},{"NoteNumber":80,"Velocity":62,"Duration":86956,"SoundDuration":86956,"Delta":205883220},{"NoteNumber":77,"Velocity":46,"Duration":86956,"SoundDuration":86956,"Delta":205970176},{"NoteNumber":68,"Velocity":47,"Duration":86943,"SoundDuration":86943,"Delta":206057133},{"NoteNumber":84,"Velocity":73,"Duration":87135,"SoundDuration":87135,"Delta":206144076},{"NoteNumber":58,"Velocity":52,"Duration":175185,"SoundDuration":175185,"Delta":206144076},{"NoteNumber":77,"Velocity":51,"Duration":88049,"SoundDuration":88049,"Delta":206231212},{"NoteNumber":72,"Velocity":51,"Duration":88987,"SoundDuration":88987,"Delta":206319262},{"NoteNumber":65,"Velocity":39,"Duration":178870,"SoundDuration":178870,"Delta":206319262},{"NoteNumber":82,"Velocity":66,"Duration":89883,"SoundDuration":89883,"Delta":206408249},{"NoteNumber":77,"Velocity":44,"Duration":90853,"SoundDuration":90853,"Delta":206498132},{"NoteNumber":73,"Velocity":39,"Duration":182661,"SoundDuration":182661,"Delta":206498132},{"NoteNumber":70,"Velocity":45,"Duration":91807,"SoundDuration":91807,"Delta":206588986},{"NoteNumber":77,"Velocity":59,"Duration":92726,"SoundDuration":92726,"Delta":206680794},{"NoteNumber":70,"Velocity":44,"Duration":107350,"SoundDuration":107350,"Delta":206773520},{"NoteNumber":65,"Velocity":44,"Duration":121832,"SoundDuration":121832,"Delta":206880870},{"NoteNumber":72,"Velocity":67,"Duration":97499,"SoundDuration":97499,"Delta":207002703},{"NoteNumber":53,"Velocity":52,"Duration":196310,"SoundDuration":196310,"Delta":207002703},{"NoteNumber":65,"Velocity":45,"Duration":98810,"SoundDuration":98810,"Delta":207100202},{"NoteNumber":60,"Velocity":45,"Duration":99896,"SoundDuration":99896,"Delta":207199013},{"NoteNumber":61,"Velocity":34,"Duration":200902,"SoundDuration":200902,"Delta":207199013},{"NoteNumber":70,"Velocity":56,"Duration":101006,"SoundDuration":101006,"Delta":207298909},{"NoteNumber":65,"Velocity":41,"Duration":102298,"SoundDuration":102298,"Delta":207399916},{"NoteNumber":46,"Velocity":34,"Duration":205814,"SoundDuration":205814,"Delta":207399916},{"NoteNumber":58,"Velocity":41,"Duration":103515,"SoundDuration":103515,"Delta":207502214},{"NoteNumber":65,"Velocity":53,"Duration":104708,"SoundDuration":104708,"Delta":207605730},{"NoteNumber":58,"Velocity":39,"Duration":105927,"SoundDuration":105927,"Delta":207710438},{"NoteNumber":53,"Velocity":39,"Duration":104152,"SoundDuration":104152,"Delta":207816366},{"NoteNumber":65,"Velocity":60,"Duration":552995,"SoundDuration":552995,"Delta":207920518},{"NoteNumber":46,"Velocity":40,"Duration":92165,"SoundDuration":92165,"Delta":207920518},{"NoteNumber":51,"Velocity":33,"Duration":92165,"SoundDuration":92165,"Delta":208012684},{"NoteNumber":54,"Velocity":33,"Duration":92165,"SoundDuration":92165,"Delta":208104850},{"NoteNumber":61,"Velocity":40,"Duration":92165,"SoundDuration":92165,"Delta":208197016},{"NoteNumber":55,"Velocity":34,"Duration":92165,"SoundDuration":92165,"Delta":208289181},{"NoteNumber":57,"Velocity":36,"Duration":92165,"SoundDuration":92165,"Delta":208381347},{"NoteNumber":63,"Velocity":50,"Duration":295146,"SoundDuration":295146,"Delta":208473513},{"NoteNumber":58,"Velocity":34,"Duration":98522,"SoundDuration":98522,"Delta":208572035},{"NoteNumber":55,"Velocity":34,"Duration":98101,"SoundDuration":98101,"Delta":208670557},{"NoteNumber":67,"Velocity":58,"Duration":281608,"SoundDuration":281608,"Delta":208768659},{"NoteNumber":51,"Velocity":41,"Duration":56872,"SoundDuration":56872,"Delta":208768659},{"NoteNumber":53,"Velocity":44,"Duration":56603,"SoundDuration":56603,"Delta":208825531},{"NoteNumber":56,"Velocity":47,"Duration":56393,"SoundDuration":56393,"Delta":208882135},{"NoteNumber":57,"Velocity":50,"Duration":56074,"SoundDuration":56074,"Delta":208938529},{"NoteNumber":60,"Velocity":53,"Duration":55664,"SoundDuration":55664,"Delta":208994603},{"NoteNumber":65,"Velocity":52,"Duration":233805,"SoundDuration":233805,"Delta":209050268},{"NoteNumber":63,"Velocity":53,"Duration":46866,"SoundDuration":46866,"Delta":209096683},{"NoteNumber":68,"Velocity":51,"Duration":47439,"SoundDuration":47439,"Delta":209143549},{"NoteNumber":60,"Velocity":49,"Duration":53191,"SoundDuration":53191,"Delta":209190988},{"NoteNumber":65,"Velocity":47,"Duration":53191,"SoundDuration":53191,"Delta":209244180},{"NoteNumber":69,"Velocity":45,"Duration":53191,"SoundDuration":53191,"Delta":209297371},{"NoteNumber":72,"Velocity":71,"Duration":283018,"SoundDuration":283018,"Delta":209350563},{"NoteNumber":65,"Velocity":60,"Duration":552995,"SoundDuration":552995,"Delta":209633582},{"NoteNumber":46,"Velocity":40,"Duration":92165,"SoundDuration":92165,"Delta":209633582},{"NoteNumber":51,"Velocity":33,"Duration":92165,"SoundDuration":92165,"Delta":209725748},{"NoteNumber":54,"Velocity":33,"Duration":92165,"SoundDuration":92165,"Delta":209817914},{"NoteNumber":61,"Velocity":40,"Duration":92165,"SoundDuration":92165,"Delta":209910079},{"NoteNumber":55,"Velocity":34,"Duration":92165,"SoundDuration":92165,"Delta":210002245},{"NoteNumber":57,"Velocity":36,"Duration":92165,"SoundDuration":92165,"Delta":210094411},{"NoteNumber":63,"Velocity":50,"Duration":293802,"SoundDuration":293802,"Delta":210186577},{"NoteNumber":58,"Velocity":34,"Duration":98039,"SoundDuration":98039,"Delta":210284616},{"NoteNumber":55,"Velocity":34,"Duration":97724,"SoundDuration":97724,"Delta":210382655},{"NoteNumber":67,"Velocity":58,"Duration":279913,"SoundDuration":279913,"Delta":210480379},{"NoteNumber":51,"Velocity":41,"Duration":57035,"SoundDuration":57035,"Delta":210480379},{"NoteNumber":53,"Velocity":44,"Duration":56443,"SoundDuration":56443,"Delta":210537415},{"NoteNumber":56,"Velocity":47,"Duration":56026,"SoundDuration":56026,"Delta":210593858},{"NoteNumber":57,"Velocity":50,"Duration":55507,"SoundDuration":55507,"Delta":210649885},{"NoteNumber":60,"Velocity":53,"Duration":54900,"SoundDuration":54900,"Delta":210705392},{"NoteNumber":65,"Velocity":52,"Duration":230990,"SoundDuration":230990,"Delta":210760293},{"NoteNumber":63,"Velocity":53,"Duration":46447,"SoundDuration":46447,"Delta":210806076},{"NoteNumber":68,"Velocity":51,"Duration":47137,"SoundDuration":47137,"Delta":210852523},{"NoteNumber":60,"Velocity":49,"Duration":52356,"SoundDuration":52356,"Delta":210899660},{"NoteNumber":65,"Velocity":47,"Duration":52356,"SoundDuration":52356,"Delta":210952016},{"NoteNumber":69,"Velocity":45,"Duration":52356,"SoundDuration":52356,"Delta":211004372},{"NoteNumber":72,"Velocity":70,"Duration":283018,"SoundDuration":283018,"Delta":211056728},{"NoteNumber":65,"Velocity":70,"Duration":552995,"SoundDuration":552995,"Delta":211339747},{"NoteNumber":51,"Velocity":40,"Duration":92165,"SoundDuration":92165,"Delta":211339747},{"NoteNumber":53,"Velocity":33,"Duration":92165,"SoundDuration":92165,"Delta":211431913},{"NoteNumber":54,"Velocity":33,"Duration":92165,"SoundDuration":92165,"Delta":211524079},{"NoteNumber":61,"Velocity":40,"Duration":92165,"SoundDuration":92165,"Delta":211616245},{"NoteNumber":57,"Velocity":34,"Duration":92165,"SoundDuration":92165,"Delta":211708411},{"NoteNumber":58,"Velocity":36,"Duration":92165,"SoundDuration":92165,"Delta":211800577},{"NoteNumber":63,"Velocity":50,"Duration":293802,"SoundDuration":293802,"Delta":211892742},{"NoteNumber":58,"Velocity":34,"Duration":98039,"SoundDuration":98039,"Delta":211990782},{"NoteNumber":55,"Velocity":34,"Duration":97724,"SoundDuration":97724,"Delta":212088821},{"NoteNumber":60,"Velocity":64,"Duration":576349,"SoundDuration":576349,"Delta":212186545},{"NoteNumber":49,"Velocity":40,"Duration":94699,"SoundDuration":94699,"Delta":212186545},{"NoteNumber":51,"Velocity":33,"Duration":93324,"SoundDuration":93324,"Delta":212281244},{"NoteNumber":54,"Velocity":33,"Duration":92100,"SoundDuration":92100,"Delta":212362995},{"NoteNumber":61,"Velocity":46,"Duration":91933,"SoundDuration":91933,"Delta":212455095},{"NoteNumber":52,"Velocity":34,"Duration":99493,"SoundDuration":99493,"Delta":212558689},{"NoteNumber":55,"Velocity":36,"Duration":104712,"SoundDuration":104712,"Delta":212658182},{"NoteNumber":58,"Velocity":54,"Duration":283018,"SoundDuration":283018,"Delta":212762894},{"NoteNumber":55,"Velocity":40,"Duration":94339,"SoundDuration":94339,"Delta":212857234},{"NoteNumber":52,"Velocity":41,"Duration":94339,"SoundDuration":94339,"Delta":212951573},{"NoteNumber":60,"Velocity":72,"Duration":269058,"SoundDuration":269058,"Delta":213045913},{"NoteNumber":46,"Velocity":40,"Duration":89686,"SoundDuration":89686,"Delta":213045913},{"NoteNumber":49,"Velocity":37,"Duration":89686,"SoundDuration":89686,"Delta":213135599},{"NoteNumber":50,"Velocity":37,"Duration":89686,"SoundDuration":89686,"Delta":213225285},{"NoteNumber":58,"Velocity":50,"Duration":275229,"SoundDuration":275229,"Delta":213314971},{"NoteNumber":56,"Velocity":36,"Duration":91743,"SoundDuration":91743,"Delta":213406715},{"NoteNumber":50,"Velocity":36,"Duration":91743,"SoundDuration":91743,"Delta":213498458},{"NoteNumber":55,"Velocity":68,"Duration":267856,"SoundDuration":267856,"Delta":213590201},{"NoteNumber":44,"Velocity":40,"Duration":89285,"SoundDuration":89285,"Delta":213590201},{"NoteNumber":46,"Velocity":36,"Duration":89285,"SoundDuration":89285,"Delta":213679487},{"NoteNumber":49,"Velocity":36,"Duration":89285,"SoundDuration":89285,"Delta":213768772},{"NoteNumber":53,"Velocity":49,"Duration":275229,"SoundDuration":275229,"Delta":213858058},{"NoteNumber":50,"Velocity":36,"Duration":91743,"SoundDuration":91743,"Delta":213949801},{"NoteNumber":47,"Velocity":36,"Duration":91743,"SoundDuration":91743,"Delta":214041544},{"NoteNumber":55,"Velocity":64,"Duration":270270,"SoundDuration":270270,"Delta":214133287},{"NoteNumber":41,"Velocity":40,"Duration":90090,"SoundDuration":90090,"Delta":214133287},{"NoteNumber":44,"Velocity":34,"Duration":90090,"SoundDuration":90090,"Delta":214223378},{"NoteNumber":47,"Velocity":34,"Duration":90090,"SoundDuration":90090,"Delta":214313468},{"NoteNumber":53,"Velocity":50,"Duration":280373,"SoundDuration":280373,"Delta":214403558},{"NoteNumber":51,"Velocity":36,"Duration":93457,"SoundDuration":93457,"Delta":214497016},{"NoteNumber":45,"Velocity":36,"Duration":93457,"SoundDuration":93457,"Delta":214590474},{"NoteNumber":50,"Velocity":52,"Duration":271492,"SoundDuration":271492,"Delta":214683932},{"NoteNumber":39,"Velocity":40,"Duration":90497,"SoundDuration":90497,"Delta":214683932},{"NoteNumber":41,"Velocity":36,"Duration":90497,"SoundDuration":90497,"Delta":214774430},{"NoteNumber":44,"Velocity":36,"Duration":90497,"SoundDuration":90497,"Delta":214864927},{"NoteNumber":48,"Velocity":40,"Duration":283018,"SoundDuration":283018,"Delta":214955425},{"NoteNumber":45,"Velocity":32,"Duration":94339,"SoundDuration":94339,"Delta":215049765},{"NoteNumber":42,"Velocity":32,"Duration":94339,"SoundDuration":94339,"Delta":215144104},{"NoteNumber":50,"Velocity":45,"Duration":464512,"SoundDuration":464512,"Delta":215238444},{"NoteNumber":36,"Velocity":36,"Duration":92165,"SoundDuration":92165,"Delta":215238444},{"NoteNumber":42,"Velocity":28,"Duration":92165,"SoundDuration":92165,"Delta":215330610},{"NoteNumber":51,"Velocity":28,"Duration":92165,"SoundDuration":92165,"Delta":215422776},{"NoteNumber":40,"Velocity":38,"Duration":93896,"SoundDuration":93896,"Delta":215514941},{"NoteNumber":43,"Velocity":26,"Duration":94118,"SoundDuration":94118,"Delta":215608838},{"NoteNumber":48,"Velocity":35,"Duration":94912,"SoundDuration":94912,"Delta":215702956},{"NoteNumber":51,"Velocity":38,"Duration":56894,"SoundDuration":56894,"Delta":215797869},{"NoteNumber":54,"Velocity":35,"Duration":56470,"SoundDuration":56470,"Delta":215868914},{"NoteNumber":52,"Velocity":35,"Duration":70208,"SoundDuration":70208,"Delta":215939470},{"NoteNumber":55,"Velocity":47,"Duration":276040,"SoundDuration":276040,"Delta":216009679},{"NoteNumber":59,"Velocity":32,"Duration":69209,"SoundDuration":69209,"Delta":216079328},{"NoteNumber":63,"Velocity":32,"Duration":68839,"SoundDuration":68839,"Delta":216148537},{"NoteNumber":55,"Velocity":32,"Duration":68342,"SoundDuration":68342,"Delta":216217377},{"NoteNumber":64,"Velocity":32,"Duration":67919,"SoundDuration":67919,"Delta":216285719},{"NoteNumber":67,"Velocity":41,"Duration":135746,"SoundDuration":135746,"Delta":216353639},{"NoteNumber":66,"Velocity":32,"Duration":38507,"SoundDuration":38507,"Delta":216901663},{"NoteNumber":70,"Velocity":33,"Duration":38363,"SoundDuration":38363,"Delta":216940171},{"NoteNumber":71,"Velocity":33,"Duration":38096,"SoundDuration":38096,"Delta":216978534},{"NoteNumber":75,"Velocity":34,"Duration":37962,"SoundDuration":37962,"Delta":217016631},{"NoteNumber":67,"Velocity":34,"Duration":37701,"SoundDuration":37701,"Delta":217054593},{"NoteNumber":72,"Velocity":35,"Duration":37562,"SoundDuration":37562,"Delta":217092295},{"NoteNumber":76,"Velocity":35,"Duration":37313,"SoundDuration":37313,"Delta":217129857},{"NoteNumber":79,"Velocity":36,"Duration":37177,"SoundDuration":37177,"Delta":217167171},{"NoteNumber":78,"Velocity":36,"Duration":37043,"SoundDuration":37043,"Delta":217204349},{"NoteNumber":82,"Velocity":37,"Duration":36800,"SoundDuration":36800,"Delta":217241392},{"NoteNumber":83,"Velocity":37,"Duration":36669,"SoundDuration":36669,"Delta":217278193},{"NoteNumber":87,"Velocity":38,"Duration":36425,"SoundDuration":36425,"Delta":217314862},{"NoteNumber":79,"Velocity":39,"Duration":36302,"SoundDuration":36302,"Delta":217351288},{"NoteNumber":84,"Velocity":39,"Duration":36063,"SoundDuration":36063,"Delta":217387590},{"NoteNumber":88,"Velocity":40,"Duration":35925,"SoundDuration":35925,"Delta":217423653},{"NoteNumber":91,"Velocity":40,"Duration":35714,"SoundDuration":35714,"Delta":217459579},{"NoteNumber":100,"Velocity":41,"Duration":136986,"SoundDuration":136986,"Delta":217495293},{"NoteNumber":96,"Velocity":41,"Duration":136986,"SoundDuration":136986,"Delta":217495293},{"NoteNumber":79,"Velocity":34,"Duration":339366,"SoundDuration":339366,"Delta":218246858},{"NoteNumber":84,"Velocity":34,"Duration":339366,"SoundDuration":339366,"Delta":218246858},{"NoteNumber":90,"Velocity":34,"Duration":90497,"SoundDuration":90497,"Delta":218246858},{"NoteNumber":78,"Velocity":32,"Duration":67873,"SoundDuration":67873,"Delta":218246858},{"NoteNumber":91,"Velocity":41,"Duration":271493,"SoundDuration":271493,"Delta":218314731},{"NoteNumber":72,"Velocity":37,"Duration":271493,"SoundDuration":271493,"Delta":218314731},{"NoteNumber":84,"Velocity":66,"Duration":537615,"SoundDuration":537615,"Delta":219672196},{"NoteNumber":64,"Velocity":45,"Duration":537615,"SoundDuration":537615,"Delta":219672196},{"NoteNumber":67,"Velocity":45,"Duration":537615,"SoundDuration":537615,"Delta":219672196},{"NoteNumber":73,"Velocity":45,"Duration":537615,"SoundDuration":537615,"Delta":219672196},{"NoteNumber":79,"Velocity":46,"Duration":88105,"SoundDuration":88105,"Delta":219760302},{"NoteNumber":72,"Velocity":45,"Duration":88105,"SoundDuration":88105,"Delta":219848407},{"NoteNumber":79,"Velocity":55,"Duration":88105,"SoundDuration":88105,"Delta":219936513},{"NoteNumber":72,"Velocity":48,"Duration":88105,"SoundDuration":88105,"Delta":220024619},{"NoteNumber":67,"Velocity":48,"Duration":97087,"SoundDuration":97087,"Delta":220112724},{"NoteNumber":83,"Velocity":69,"Duration":1041908,"SoundDuration":1041908,"Delta":220209812},{"NoteNumber":68,"Velocity":51,"Duration":514888,"SoundDuration":514888,"Delta":220209812},{"NoteNumber":74,"Velocity":51,"Duration":514888,"SoundDuration":514888,"Delta":220209812},{"NoteNumber":64,"Velocity":51,"Duration":1041908,"SoundDuration":1041908,"Delta":220209812},{"NoteNumber":78,"Velocity":50,"Duration":86206,"SoundDuration":86206,"Delta":220296093},{"NoteNumber":71,"Velocity":50,"Duration":85883,"SoundDuration":85883,"Delta":220382300},{"NoteNumber":78,"Velocity":58,"Duration":85763,"SoundDuration":85763,"Delta":220468183},{"NoteNumber":71,"Velocity":52,"Duration":85470,"SoundDuration":85470,"Delta":220553947},{"NoteNumber":66,"Velocity":52,"Duration":85283,"SoundDuration":85283,"Delta":220639417},{"NoteNumber":74,"Velocity":55,"Duration":85220,"SoundDuration":85220,"Delta":220724701},{"NoteNumber":68,"Velocity":45,"Duration":527019,"SoundDuration":527019,"Delta":220724701},{"NoteNumber":66,"Velocity":50,"Duration":85598,"SoundDuration":85598,"Delta":220809921},{"NoteNumber":71,"Velocity":48,"Duration":85984,"SoundDuration":85984,"Delta":220895519},{"NoteNumber":78,"Velocity":55,"Duration":86370,"SoundDuration":86370,"Delta":220981504},{"NoteNumber":71,"Velocity":45,"Duration":86758,"SoundDuration":86758,"Delta":221067874},{"NoteNumber":78,"Velocity":45,"Duration":97087,"SoundDuration":97087,"Delta":221154633},{"NoteNumber":82,"Velocity":55,"Duration":263158,"SoundDuration":263158,"Delta":221251720},{"NoteNumber":74,"Velocity":38,"Duration":540637,"SoundDuration":540637,"Delta":221251720},{"NoteNumber":65,"Velocity":38,"Duration":540637,"SoundDuration":540637,"Delta":221251720},{"NoteNumber":68,"Velocity":38,"Duration":540637,"SoundDuration":540637,"Delta":221251720},{"NoteNumber":77,"Velocity":44,"Duration":87719,"SoundDuration":87719,"Delta":221339440},{"NoteNumber":70,"Velocity":42,"Duration":87719,"SoundDuration":87719,"Delta":221427159},{"NoteNumber":77,"Velocity":49,"Duration":87719,"SoundDuration":87719,"Delta":221514878},{"NoteNumber":70,"Velocity":43,"Duration":87719,"SoundDuration":87719,"Delta":221602598},{"NoteNumber":65,"Velocity":43,"Duration":102040,"SoundDuration":102040,"Delta":221690317},{"NoteNumber":56,"Velocity":44,"Duration":1117119,"SoundDuration":1117119,"Delta":221792358},{"NoteNumber":66,"Velocity":44,"Duration":1117119,"SoundDuration":1117119,"Delta":221792358},{"NoteNumber":58,"Velocity":44,"Duration":266666,"SoundDuration":266666,"Delta":221792358},{"NoteNumber":65,"Velocity":38,"Duration":66666,"SoundDuration":66666,"Delta":221859025},{"NoteNumber":77,"Velocity":51,"Duration":266666,"SoundDuration":266666,"Delta":221925691},{"NoteNumber":70,"Velocity":51,"Duration":66666,"SoundDuration":66666,"Delta":221925691},{"NoteNumber":65,"Velocity":38,"Duration":66666,"SoundDuration":66666,"Delta":221992358},{"NoteNumber":59,"Velocity":55,"Duration":266666,"SoundDuration":266666,"Delta":222059024},{"NoteNumber":64,"Velocity":43,"Duration":66666,"SoundDuration":66666,"Delta":222125691},{"NoteNumber":76,"Velocity":52,"Duration":273520,"SoundDuration":273520,"Delta":222192358},{"NoteNumber":69,"Velocity":52,"Duration":66666,"SoundDuration":66666,"Delta":222192358},{"NoteNumber":64,"Velocity":43,"Duration":66666,"SoundDuration":66666,"Delta":222259024},{"NoteNumber":60,"Velocity":66,"Duration":583786,"SoundDuration":583786,"Delta":222325691},{"NoteNumber":63,"Velocity":50,"Duration":70093,"SoundDuration":70093,"Delta":222395784},{"NoteNumber":75,"Velocity":60,"Duration":70093,"SoundDuration":70093,"Delta":222465878},{"NoteNumber":68,"Velocity":60,"Duration":70093,"SoundDuration":70093,"Delta":222465878},{"NoteNumber":63,"Velocity":42,"Duration":373505,"SoundDuration":373505,"Delta":222535971},{"NoteNumber":84,"Velocity":66,"Duration":541531,"SoundDuration":541531,"Delta":222909477},{"NoteNumber":73,"Velocity":45,"Duration":541531,"SoundDuration":541531,"Delta":222909477},{"NoteNumber":67,"Velocity":45,"Duration":541531,"SoundDuration":541531,"Delta":222909477},{"NoteNumber":64,"Velocity":45,"Duration":541531,"SoundDuration":541531,"Delta":222909477},{"NoteNumber":79,"Velocity":46,"Duration":88888,"SoundDuration":88888,"Delta":222998366},{"NoteNumber":72,"Velocity":45,"Duration":88888,"SoundDuration":88888,"Delta":223087255},{"NoteNumber":79,"Velocity":55,"Duration":88888,"SoundDuration":88888,"Delta":223176144},{"NoteNumber":72,"Velocity":48,"Duration":88888,"SoundDuration":88888,"Delta":223265033},{"NoteNumber":67,"Velocity":48,"Duration":97087,"SoundDuration":97087,"Delta":223353922},{"NoteNumber":83,"Velocity":69,"Duration":1041908,"SoundDuration":1041908,"Delta":223451009},{"NoteNumber":68,"Velocity":51,"Duration":514888,"SoundDuration":514888,"Delta":223451009},{"NoteNumber":64,"Velocity":51,"Duration":1041908,"SoundDuration":1041908,"Delta":223451009},{"NoteNumber":74,"Velocity":51,"Duration":514888,"SoundDuration":514888,"Delta":223451009},{"NoteNumber":78,"Velocity":50,"Duration":86206,"SoundDuration":86206,"Delta":223537290},{"NoteNumber":71,"Velocity":50,"Duration":85883,"SoundDuration":85883,"Delta":223623497},{"NoteNumber":78,"Velocity":58,"Duration":85763,"SoundDuration":85763,"Delta":223709380},{"NoteNumber":71,"Velocity":52,"Duration":85470,"SoundDuration":85470,"Delta":223795144},{"NoteNumber":66,"Velocity":52,"Duration":85283,"SoundDuration":85283,"Delta":223880614},{"NoteNumber":74,"Velocity":55,"Duration":85220,"SoundDuration":85220,"Delta":223965898},{"NoteNumber":68,"Velocity":45,"Duration":527019,"SoundDuration":527019,"Delta":223965898},{"NoteNumber":66,"Velocity":50,"Duration":85598,"SoundDuration":85598,"Delta":224051118},{"NoteNumber":71,"Velocity":48,"Duration":85984,"SoundDuration":85984,"Delta":224136716},{"NoteNumber":78,"Velocity":55,"Duration":86370,"SoundDuration":86370,"Delta":224222701},{"NoteNumber":71,"Velocity":45,"Duration":86758,"SoundDuration":86758,"Delta":224309071},{"NoteNumber":78,"Velocity":45,"Duration":97087,"SoundDuration":97087,"Delta":224395830},{"NoteNumber":82,"Velocity":55,"Duration":263158,"SoundDuration":263158,"Delta":224492917},{"NoteNumber":68,"Velocity":38,"Duration":540637,"SoundDuration":540637,"Delta":224492917},{"NoteNumber":65,"Velocity":38,"Duration":540637,"SoundDuration":540637,"Delta":224492917},{"NoteNumber":74,"Velocity":38,"Duration":540637,"SoundDuration":540637,"Delta":224492917},{"NoteNumber":77,"Velocity":44,"Duration":87719,"SoundDuration":87719,"Delta":224580637},{"NoteNumber":70,"Velocity":42,"Duration":87719,"SoundDuration":87719,"Delta":224668356},{"NoteNumber":77,"Velocity":49,"Duration":87719,"SoundDuration":87719,"Delta":224756075},{"NoteNumber":70,"Velocity":43,"Duration":87719,"SoundDuration":87719,"Delta":224843795},{"NoteNumber":65,"Velocity":43,"Duration":102040,"SoundDuration":102040,"Delta":224931514},{"NoteNumber":66,"Velocity":44,"Duration":1144365,"SoundDuration":1144365,"Delta":225033555},{"NoteNumber":58,"Velocity":44,"Duration":266666,"SoundDuration":266666,"Delta":225033555},{"NoteNumber":56,"Velocity":44,"Duration":1144365,"SoundDuration":1144365,"Delta":225033555},{"NoteNumber":65,"Velocity":38,"Duration":66666,"SoundDuration":66666,"Delta":225100222},{"NoteNumber":77,"Velocity":51,"Duration":266666,"SoundDuration":266666,"Delta":225166888},{"NoteNumber":70,"Velocity":51,"Duration":66666,"SoundDuration":66666,"Delta":225166888},{"NoteNumber":65,"Velocity":38,"Duration":66666,"SoundDuration":66666,"Delta":225233555},{"NoteNumber":59,"Velocity":55,"Duration":266666,"SoundDuration":266666,"Delta":225300221},{"NoteNumber":64,"Velocity":43,"Duration":66666,"SoundDuration":66666,"Delta":225366888},{"NoteNumber":76,"Velocity":52,"Duration":271581,"SoundDuration":271581,"Delta":225433555},{"NoteNumber":69,"Velocity":52,"Duration":66666,"SoundDuration":66666,"Delta":225433555},{"NoteNumber":64,"Velocity":43,"Duration":66666,"SoundDuration":66666,"Delta":225500221},{"NoteNumber":60,"Velocity":66,"Duration":611032,"SoundDuration":611032,"Delta":225566888},{"NoteNumber":63,"Velocity":50,"Duration":69124,"SoundDuration":69124,"Delta":225636012},{"NoteNumber":75,"Velocity":60,"Duration":69124,"SoundDuration":69124,"Delta":225705137},{"NoteNumber":68,"Velocity":60,"Duration":69124,"SoundDuration":69124,"Delta":225705137},{"NoteNumber":63,"Velocity":41,"Duration":403659,"SoundDuration":403659,"Delta":225774261},{"NoteNumber":75,"Velocity":49,"Duration":289854,"SoundDuration":289854,"Delta":226177921},{"NoteNumber":68,"Velocity":36,"Duration":289854,"SoundDuration":289854,"Delta":226177921},{"NoteNumber":61,"Velocity":36,"Duration":289854,"SoundDuration":289854,"Delta":226177921},{"NoteNumber":64,"Velocity":32,"Duration":96618,"SoundDuration":96618,"Delta":226274539},{"NoteNumber":67,"Velocity":32,"Duration":96618,"SoundDuration":96618,"Delta":226371158},{"NoteNumber":72,"Velocity":45,"Duration":289855,"SoundDuration":289855,"Delta":226467776},{"NoteNumber":56,"Velocity":36,"Duration":601449,"SoundDuration":601449,"Delta":226467776},{"NoteNumber":68,"Velocity":36,"Duration":601449,"SoundDuration":601449,"Delta":226467776},{"NoteNumber":64,"Velocity":34,"Duration":96618,"SoundDuration":96618,"Delta":226564394},{"NoteNumber":67,"Velocity":34,"Duration":96618,"SoundDuration":96618,"Delta":226661013},{"NoteNumber":70,"Velocity":48,"Duration":311594,"SoundDuration":311594,"Delta":226757631},{"NoteNumber":64,"Velocity":34,"Duration":103864,"SoundDuration":103864,"Delta":226854249},{"NoteNumber":67,"Velocity":35,"Duration":111111,"SoundDuration":111111,"Delta":226958114},{"NoteNumber":70,"Velocity":53,"Duration":296816,"SoundDuration":296816,"Delta":227069225},{"NoteNumber":60,"Velocity":42,"Duration":296816,"SoundDuration":296816,"Delta":227069225},{"NoteNumber":66,"Velocity":42,"Duration":296816,"SoundDuration":296816,"Delta":227069225},{"NoteNumber":67,"Velocity":38,"Duration":99009,"SoundDuration":99009,"Delta":227168235},{"NoteNumber":68,"Velocity":38,"Duration":98796,"SoundDuration":98796,"Delta":227267245},{"NoteNumber":69,"Velocity":41,"Duration":98058,"SoundDuration":98058,"Delta":227366041},{"NoteNumber":66,"Velocity":35,"Duration":349216,"SoundDuration":349216,"Delta":227366041},{"NoteNumber":56,"Velocity":35,"Duration":349216,"SoundDuration":349216,"Delta":227366041},{"NoteNumber":70,"Velocity":41,"Duration":97312,"SoundDuration":97312,"Delta":227464100},{"NoteNumber":76,"Velocity":44,"Duration":153846,"SoundDuration":153846,"Delta":227561412},{"NoteNumber":75,"Velocity":52,"Duration":289854,"SoundDuration":289854,"Delta":227715258},{"NoteNumber":61,"Velocity":36,"Duration":289854,"SoundDuration":289854,"Delta":227715258},{"NoteNumber":68,"Velocity":36,"Duration":289854,"SoundDuration":289854,"Delta":227715258},{"NoteNumber":64,"Velocity":32,"Duration":96618,"SoundDuration":96618,"Delta":227811877},{"NoteNumber":67,"Velocity":32,"Duration":96618,"SoundDuration":96618,"Delta":227908495},{"NoteNumber":72,"Velocity":45,"Duration":289855,"SoundDuration":289855,"Delta":228005113},{"NoteNumber":68,"Velocity":36,"Duration":601449,"SoundDuration":601449,"Delta":228005113},{"NoteNumber":56,"Velocity":36,"Duration":601449,"SoundDuration":601449,"Delta":228005113},{"NoteNumber":64,"Velocity":34,"Duration":96618,"SoundDuration":96618,"Delta":228101732},{"NoteNumber":67,"Velocity":34,"Duration":96618,"SoundDuration":96618,"Delta":228198350},{"NoteNumber":70,"Velocity":48,"Duration":311594,"SoundDuration":311594,"Delta":228294968},{"NoteNumber":64,"Velocity":34,"Duration":103864,"SoundDuration":103864,"Delta":228391587},{"NoteNumber":67,"Velocity":35,"Duration":111111,"SoundDuration":111111,"Delta":228495451},{"NoteNumber":70,"Velocity":53,"Duration":296816,"SoundDuration":296816,"Delta":228606563},{"NoteNumber":66,"Velocity":42,"Duration":296816,"SoundDuration":296816,"Delta":228606563},{"NoteNumber":60,"Velocity":42,"Duration":296816,"SoundDuration":296816,"Delta":228606563},{"NoteNumber":67,"Velocity":38,"Duration":99009,"SoundDuration":99009,"Delta":228705572},{"NoteNumber":68,"Velocity":38,"Duration":98796,"SoundDuration":98796,"Delta":228804582},{"NoteNumber":69,"Velocity":46,"Duration":98058,"SoundDuration":98058,"Delta":228903379},{"NoteNumber":56,"Velocity":35,"Duration":350409,"SoundDuration":350409,"Delta":228903379},{"NoteNumber":66,"Velocity":35,"Duration":350409,"SoundDuration":350409,"Delta":228903379},{"NoteNumber":70,"Velocity":42,"Duration":97312,"SoundDuration":97312,"Delta":229001437},{"NoteNumber":76,"Velocity":47,"Duration":155038,"SoundDuration":155038,"Delta":229098749},{"NoteNumber":75,"Velocity":52,"Duration":289854,"SoundDuration":289854,"Delta":229253788},{"NoteNumber":68,"Velocity":36,"Duration":289854,"SoundDuration":289854,"Delta":229253788},{"NoteNumber":61,"Velocity":36,"Duration":289854,"SoundDuration":289854,"Delta":229253788},{"NoteNumber":64,"Velocity":32,"Duration":96618,"SoundDuration":96618,"Delta":229350407},{"NoteNumber":67,"Velocity":32,"Duration":96618,"SoundDuration":96618,"Delta":229447025},{"NoteNumber":72,"Velocity":45,"Duration":289855,"SoundDuration":289855,"Delta":229543643},{"NoteNumber":68,"Velocity":36,"Duration":601449,"SoundDuration":601449,"Delta":229543643},{"NoteNumber":56,"Velocity":36,"Duration":601449,"SoundDuration":601449,"Delta":229543643},{"NoteNumber":64,"Velocity":34,"Duration":96618,"SoundDuration":96618,"Delta":229640262},{"NoteNumber":67,"Velocity":34,"Duration":96618,"SoundDuration":96618,"Delta":229736880},{"NoteNumber":70,"Velocity":48,"Duration":311594,"SoundDuration":311594,"Delta":229833498},{"NoteNumber":64,"Velocity":34,"Duration":103864,"SoundDuration":103864,"Delta":229930117},{"NoteNumber":67,"Velocity":35,"Duration":111111,"SoundDuration":111111,"Delta":230033981},{"NoteNumber":70,"Velocity":53,"Duration":296816,"SoundDuration":296816,"Delta":230145093},{"NoteNumber":66,"Velocity":42,"Duration":296816,"SoundDuration":296816,"Delta":230145093},{"NoteNumber":59,"Velocity":42,"Duration":296816,"SoundDuration":296816,"Delta":230145093},{"NoteNumber":65,"Velocity":38,"Duration":99009,"SoundDuration":99009,"Delta":230244102},{"NoteNumber":62,"Velocity":38,"Duration":98796,"SoundDuration":98796,"Delta":230343112},{"NoteNumber":68,"Velocity":50,"Duration":309847,"SoundDuration":309847,"Delta":230441909},{"NoteNumber":54,"Velocity":35,"Duration":309847,"SoundDuration":309847,"Delta":230441909},{"NoteNumber":65,"Velocity":38,"Duration":98039,"SoundDuration":98039,"Delta":230540081},{"NoteNumber":62,"Velocity":36,"Duration":113636,"SoundDuration":113636,"Delta":230638120},{"NoteNumber":70,"Velocity":48,"Duration":98039,"SoundDuration":98039,"Delta":230751756},{"NoteNumber":66,"Velocity":37,"Duration":294117,"SoundDuration":294117,"Delta":230751756},{"NoteNumber":59,"Velocity":37,"Duration":294117,"SoundDuration":294117,"Delta":230751756},{"NoteNumber":65,"Velocity":35,"Duration":98039,"SoundDuration":98039,"Delta":230849795},{"NoteNumber":62,"Velocity":35,"Duration":98039,"SoundDuration":98039,"Delta":230947834},{"NoteNumber":68,"Velocity":45,"Duration":98039,"SoundDuration":98039,"Delta":231045874},{"NoteNumber":54,"Velocity":30,"Duration":305368,"SoundDuration":305368,"Delta":231045874},{"NoteNumber":65,"Velocity":30,"Duration":98039,"SoundDuration":98039,"Delta":231143913},{"NoteNumber":62,"Velocity":30,"Duration":109289,"SoundDuration":109289,"Delta":231241952},{"NoteNumber":70,"Velocity":45,"Duration":294117,"SoundDuration":294117,"Delta":231351242},{"NoteNumber":66,"Velocity":38,"Duration":294117,"SoundDuration":294117,"Delta":231351242},{"NoteNumber":59,"Velocity":38,"Duration":294117,"SoundDuration":294117,"Delta":231351242},{"NoteNumber":65,"Velocity":29,"Duration":98039,"SoundDuration":98039,"Delta":231449281},{"NoteNumber":62,"Velocity":29,"Duration":98039,"SoundDuration":98039,"Delta":231547320},{"NoteNumber":68,"Velocity":41,"Duration":294117,"SoundDuration":294117,"Delta":231645359},{"NoteNumber":54,"Velocity":31,"Duration":294117,"SoundDuration":294117,"Delta":231645359},{"NoteNumber":65,"Velocity":30,"Duration":98039,"SoundDuration":98039,"Delta":231743398},{"NoteNumber":62,"Velocity":30,"Duration":98039,"SoundDuration":98039,"Delta":231841437},{"NoteNumber":35,"Velocity":27,"Duration":147058,"SoundDuration":147058,"Delta":231939477},{"NoteNumber":45,"Velocity":25,"Duration":98039,"SoundDuration":98039,"Delta":232037516},{"NoteNumber":42,"Velocity":29,"Duration":147058,"SoundDuration":147058,"Delta":232086535},{"NoteNumber":51,"Velocity":27,"Duration":98039,"SoundDuration":98039,"Delta":232135555},{"NoteNumber":56,"Velocity":29,"Duration":98039,"SoundDuration":98039,"Delta":232233594},{"NoteNumber":50,"Velocity":31,"Duration":147058,"SoundDuration":147058,"Delta":232233594},{"NoteNumber":57,"Velocity":31,"Duration":98039,"SoundDuration":98039,"Delta":232331633},{"NoteNumber":54,"Velocity":33,"Duration":147058,"SoundDuration":147058,"Delta":232380653},{"NoteNumber":62,"Velocity":33,"Duration":98039,"SoundDuration":98039,"Delta":232429672},{"NoteNumber":68,"Velocity":49,"Duration":289854,"SoundDuration":289854,"Delta":232527712},{"NoteNumber":60,"Velocity":36,"Duration":289854,"SoundDuration":289854,"Delta":232527712},{"NoteNumber":51,"Velocity":36,"Duration":289854,"SoundDuration":289854,"Delta":232527712},{"NoteNumber":62,"Velocity":32,"Duration":96618,"SoundDuration":96618,"Delta":232624330},{"NoteNumber":57,"Velocity":32,"Duration":96618,"SoundDuration":96618,"Delta":232720948},{"NoteNumber":66,"Velocity":45,"Duration":289855,"SoundDuration":289855,"Delta":232817567},{"NoteNumber":47,"Velocity":36,"Duration":601449,"SoundDuration":601449,"Delta":232817567},{"NoteNumber":62,"Velocity":34,"Duration":96618,"SoundDuration":96618,"Delta":232914185},{"NoteNumber":57,"Velocity":34,"Duration":96618,"SoundDuration":96618,"Delta":233010803},{"NoteNumber":63,"Velocity":48,"Duration":311594,"SoundDuration":311594,"Delta":233107422},{"NoteNumber":60,"Velocity":34,"Duration":103864,"SoundDuration":103864,"Delta":233204040},{"NoteNumber":57,"Velocity":35,"Duration":111111,"SoundDuration":111111,"Delta":233307905},{"NoteNumber":63,"Velocity":53,"Duration":99009,"SoundDuration":99009,"Delta":233419016},{"NoteNumber":52,"Velocity":42,"Duration":296816,"SoundDuration":296816,"Delta":233419016},{"NoteNumber":59,"Velocity":42,"Duration":296816,"SoundDuration":296816,"Delta":233419016},{"NoteNumber":55,"Velocity":38,"Duration":99009,"SoundDuration":99009,"Delta":233518026},{"NoteNumber":58,"Velocity":38,"Duration":98796,"SoundDuration":98796,"Delta":233617036},{"NoteNumber":63,"Velocity":41,"Duration":98058,"SoundDuration":98058,"Delta":233715832},{"NoteNumber":47,"Velocity":35,"Duration":349216,"SoundDuration":349216,"Delta":233715832},{"NoteNumber":64,"Velocity":41,"Duration":97312,"SoundDuration":97312,"Delta":233813890},{"NoteNumber":71,"Velocity":44,"Duration":153846,"SoundDuration":153846,"Delta":233911203},{"NoteNumber":68,"Velocity":49,"Duration":289854,"SoundDuration":289854,"Delta":234065049},{"NoteNumber":60,"Velocity":36,"Duration":289854,"SoundDuration":289854,"Delta":234065049},{"NoteNumber":51,"Velocity":36,"Duration":289854,"SoundDuration":289854,"Delta":234065049},{"NoteNumber":62,"Velocity":32,"Duration":96618,"SoundDuration":96618,"Delta":234161667},{"NoteNumber":57,"Velocity":32,"Duration":96618,"SoundDuration":96618,"Delta":234258286},{"NoteNumber":66,"Velocity":45,"Duration":289855,"SoundDuration":289855,"Delta":234354904},{"NoteNumber":47,"Velocity":36,"Duration":601449,"SoundDuration":601449,"Delta":234354904},{"NoteNumber":62,"Velocity":34,"Duration":96618,"SoundDuration":96618,"Delta":234451522},{"NoteNumber":57,"Velocity":34,"Duration":96618,"SoundDuration":96618,"Delta":234548141},{"NoteNumber":63,"Velocity":48,"Duration":311594,"SoundDuration":311594,"Delta":234644759},{"NoteNumber":60,"Velocity":34,"Duration":103864,"SoundDuration":103864,"Delta":234741377},{"NoteNumber":57,"Velocity":35,"Duration":111111,"SoundDuration":111111,"Delta":234845242},{"NoteNumber":63,"Velocity":53,"Duration":99009,"SoundDuration":99009,"Delta":234956353},{"NoteNumber":59,"Velocity":42,"Duration":296816,"SoundDuration":296816,"Delta":234956353},{"NoteNumber":52,"Velocity":42,"Duration":296816,"SoundDuration":296816,"Delta":234956353},{"NoteNumber":55,"Velocity":38,"Duration":99009,"SoundDuration":99009,"Delta":235055363},{"NoteNumber":58,"Velocity":38,"Duration":98796,"SoundDuration":98796,"Delta":235154373},{"NoteNumber":63,"Velocity":38,"Duration":98058,"SoundDuration":98058,"Delta":235253169},{"NoteNumber":47,"Velocity":35,"Duration":349216,"SoundDuration":349216,"Delta":235253169},{"NoteNumber":64,"Velocity":41,"Duration":97312,"SoundDuration":97312,"Delta":235351228},{"NoteNumber":71,"Velocity":44,"Duration":153846,"SoundDuration":153846,"Delta":235448540},{"NoteNumber":68,"Velocity":44,"Duration":279288,"SoundDuration":279288,"Delta":235602386},{"NoteNumber":53,"Velocity":44,"Duration":554752,"SoundDuration":554752,"Delta":235602386},{"NoteNumber":56,"Velocity":39,"Duration":138996,"SoundDuration":138996,"Delta":235742678},{"NoteNumber":62,"Velocity":38,"Duration":275464,"SoundDuration":275464,"Delta":235881675},{"NoteNumber":61,"Velocity":39,"Duration":138111,"SoundDuration":138111,"Delta":235881675},{"NoteNumber":59,"Velocity":39,"Duration":137352,"SoundDuration":137352,"Delta":236019786},{"NoteNumber":63,"Velocity":37,"Duration":272355,"SoundDuration":272355,"Delta":236157139},{"NoteNumber":56,"Velocity":50,"Duration":523163,"SoundDuration":523163,"Delta":236157139},{"NoteNumber":59,"Velocity":40,"Duration":135752,"SoundDuration":135752,"Delta":236293742},{"NoteNumber":71,"Velocity":58,"Duration":250808,"SoundDuration":250808,"Delta":236429494},{"NoteNumber":67,"Velocity":40,"Duration":126459,"SoundDuration":126459,"Delta":236429494},{"NoteNumber":66,"Velocity":44,"Duration":124348,"SoundDuration":124348,"Delta":236555954},{"NoteNumber":67,"Velocity":40,"Duration":246448,"SoundDuration":246448,"Delta":236680302},{"NoteNumber":59,"Velocity":54,"Duration":489773,"SoundDuration":489773,"Delta":236680302},{"NoteNumber":63,"Velocity":41,"Duration":122796,"SoundDuration":122796,"Delta":236803955},{"NoteNumber":68,"Velocity":43,"Duration":243325,"SoundDuration":243325,"Delta":236926751},{"NoteNumber":66,"Velocity":42,"Duration":122071,"SoundDuration":122071,"Delta":236926751},{"NoteNumber":65,"Velocity":42,"Duration":121253,"SoundDuration":121253,"Delta":237048823},{"NoteNumber":75,"Velocity":62,"Duration":226157,"SoundDuration":226157,"Delta":237170076},{"NoteNumber":63,"Velocity":59,"Duration":449752,"SoundDuration":449752,"Delta":237170076},{"NoteNumber":66,"Velocity":44,"Duration":112786,"SoundDuration":112786,"Delta":237283448},{"NoteNumber":70,"Velocity":50,"Duration":223594,"SoundDuration":223594,"Delta":237396234},{"NoteNumber":68,"Velocity":44,"Duration":112135,"SoundDuration":112135,"Delta":237396234},{"NoteNumber":66,"Velocity":44,"Duration":111459,"SoundDuration":111459,"Delta":237508370},{"NoteNumber":71,"Velocity":50,"Duration":221027,"SoundDuration":221027,"Delta":237619829},{"NoteNumber":68,"Velocity":61,"Duration":110858,"SoundDuration":110858,"Delta":237619829},{"NoteNumber":74,"Velocity":49,"Duration":110169,"SoundDuration":110169,"Delta":237730687},{"NoteNumber":80,"Velocity":67,"Duration":213690,"SoundDuration":213690,"Delta":237840857},{"NoteNumber":65,"Velocity":49,"Duration":424793,"SoundDuration":424793,"Delta":237840857},{"NoteNumber":68,"Velocity":49,"Duration":106548,"SoundDuration":106548,"Delta":237947999},{"NoteNumber":74,"Velocity":55,"Duration":211102,"SoundDuration":211102,"Delta":238054547},{"NoteNumber":73,"Velocity":65,"Duration":105835,"SoundDuration":105835,"Delta":238054547},{"NoteNumber":71,"Velocity":52,"Duration":105266,"SoundDuration":105266,"Delta":238160383},{"NoteNumber":75,"Velocity":55,"Duration":208752,"SoundDuration":208752,"Delta":238265650},{"NoteNumber":68,"Velocity":53,"Duration":409489,"SoundDuration":409489,"Delta":238265650},{"NoteNumber":71,"Velocity":53,"Duration":104052,"SoundDuration":104052,"Delta":238370350},{"NoteNumber":83,"Velocity":76,"Duration":200736,"SoundDuration":200736,"Delta":238474403},{"NoteNumber":79,"Velocity":72,"Duration":100671,"SoundDuration":100671,"Delta":238474403},{"NoteNumber":78,"Velocity":51,"Duration":100064,"SoundDuration":100064,"Delta":238575074},{"NoteNumber":79,"Velocity":67,"Duration":198240,"SoundDuration":198240,"Delta":238675139},{"NoteNumber":71,"Velocity":51,"Duration":394147,"SoundDuration":394147,"Delta":238675139},{"NoteNumber":75,"Velocity":51,"Duration":98822,"SoundDuration":98822,"Delta":238774557},{"NoteNumber":80,"Velocity":74,"Duration":195907,"SoundDuration":195907,"Delta":238873379},{"NoteNumber":78,"Velocity":72,"Duration":98234,"SoundDuration":98234,"Delta":238873379},{"NoteNumber":77,"Velocity":52,"Duration":97672,"SoundDuration":97672,"Delta":238971614},{"NoteNumber":87,"Velocity":85,"Duration":191693,"SoundDuration":191693,"Delta":239069287},{"NoteNumber":75,"Velocity":52,"Duration":383386,"SoundDuration":383386,"Delta":239069287},{"NoteNumber":78,"Velocity":52,"Duration":95846,"SoundDuration":95846,"Delta":239165134},{"NoteNumber":82,"Velocity":75,"Duration":191693,"SoundDuration":191693,"Delta":239260980},{"NoteNumber":80,"Velocity":72,"Duration":95846,"SoundDuration":95846,"Delta":239260980},{"NoteNumber":78,"Velocity":57,"Duration":95846,"SoundDuration":95846,"Delta":239356827},{"NoteNumber":83,"Velocity":83,"Duration":201589,"SoundDuration":201589,"Delta":239452674},{"NoteNumber":80,"Velocity":57,"Duration":95846,"SoundDuration":95846,"Delta":239452674},{"NoteNumber":86,"Velocity":64,"Duration":105742,"SoundDuration":105742,"Delta":239548521},{"NoteNumber":94,"Velocity":87,"Duration":97057,"SoundDuration":97057,"Delta":239654263},{"NoteNumber":87,"Velocity":73,"Duration":97057,"SoundDuration":97057,"Delta":239654263},{"NoteNumber":83,"Velocity":73,"Duration":97057,"SoundDuration":97057,"Delta":239654263},{"NoteNumber":86,"Velocity":72,"Duration":96042,"SoundDuration":96042,"Delta":239751320},{"NoteNumber":82,"Velocity":60,"Duration":96042,"SoundDuration":96042,"Delta":239751320},{"NoteNumber":77,"Velocity":60,"Duration":96042,"SoundDuration":96042,"Delta":239751320},{"NoteNumber":83,"Velocity":73,"Duration":95158,"SoundDuration":95158,"Delta":239847363},{"NoteNumber":87,"Velocity":73,"Duration":95158,"SoundDuration":95158,"Delta":239847363},{"NoteNumber":94,"Velocity":87,"Duration":95158,"SoundDuration":95158,"Delta":239847363},{"NoteNumber":77,"Velocity":60,"Duration":94113,"SoundDuration":94113,"Delta":239942521},{"NoteNumber":82,"Velocity":60,"Duration":94113,"SoundDuration":94113,"Delta":239942521},{"NoteNumber":86,"Velocity":72,"Duration":94113,"SoundDuration":94113,"Delta":239942521},{"NoteNumber":94,"Velocity":87,"Duration":92490,"SoundDuration":92490,"Delta":240036635},{"NoteNumber":87,"Velocity":73,"Duration":92490,"SoundDuration":92490,"Delta":240036635},{"NoteNumber":83,"Velocity":73,"Duration":92490,"SoundDuration":92490,"Delta":240036635},{"NoteNumber":86,"Velocity":72,"Duration":90747,"SoundDuration":90747,"Delta":240129126},{"NoteNumber":82,"Velocity":61,"Duration":90747,"SoundDuration":90747,"Delta":240129126},{"NoteNumber":77,"Velocity":61,"Duration":90747,"SoundDuration":90747,"Delta":240129126},{"NoteNumber":83,"Velocity":72,"Duration":88825,"SoundDuration":88825,"Delta":240219873},{"NoteNumber":87,"Velocity":72,"Duration":88825,"SoundDuration":88825,"Delta":240219873},{"NoteNumber":94,"Velocity":86,"Duration":88825,"SoundDuration":88825,"Delta":240219873},{"NoteNumber":77,"Velocity":61,"Duration":82630,"SoundDuration":82630,"Delta":240308698},{"NoteNumber":82,"Velocity":61,"Duration":82630,"SoundDuration":82630,"Delta":240308698},{"NoteNumber":86,"Velocity":72,"Duration":82630,"SoundDuration":82630,"Delta":240308698},{"NoteNumber":94,"Velocity":86,"Duration":79682,"SoundDuration":79682,"Delta":240391328},{"NoteNumber":87,"Velocity":72,"Duration":79682,"SoundDuration":79682,"Delta":240391328},{"NoteNumber":83,"Velocity":72,"Duration":79682,"SoundDuration":79682,"Delta":240391328},{"NoteNumber":86,"Velocity":72,"Duration":77007,"SoundDuration":77007,"Delta":240471011},{"NoteNumber":82,"Velocity":61,"Duration":77007,"SoundDuration":77007,"Delta":240471011},{"NoteNumber":77,"Velocity":61,"Duration":77007,"SoundDuration":77007,"Delta":240471011},{"NoteNumber":83,"Velocity":72,"Duration":74534,"SoundDuration":74534,"Delta":240548019},{"NoteNumber":87,"Velocity":72,"Duration":74534,"SoundDuration":74534,"Delta":240548019},{"NoteNumber":94,"Velocity":85,"Duration":74534,"SoundDuration":74534,"Delta":240548019},{"NoteNumber":77,"Velocity":60,"Duration":72189,"SoundDuration":72189,"Delta":240622554},{"NoteNumber":82,"Velocity":60,"Duration":72189,"SoundDuration":72189,"Delta":240622554},{"NoteNumber":86,"Velocity":72,"Duration":72189,"SoundDuration":72189,"Delta":240622554},{"NoteNumber":94,"Velocity":85,"Duration":70011,"SoundDuration":70011,"Delta":240694743},{"NoteNumber":87,"Velocity":72,"Duration":70011,"SoundDuration":70011,"Delta":240694743},{"NoteNumber":83,"Velocity":72,"Duration":70011,"SoundDuration":70011,"Delta":240694743},{"NoteNumber":86,"Velocity":71,"Duration":67873,"SoundDuration":67873,"Delta":240764755},{"NoteNumber":82,"Velocity":59,"Duration":67873,"SoundDuration":67873,"Delta":240764755},{"NoteNumber":77,"Velocity":59,"Duration":67873,"SoundDuration":67873,"Delta":240764755},{"NoteNumber":83,"Velocity":72,"Duration":66781,"SoundDuration":66781,"Delta":240832629},{"NoteNumber":87,"Velocity":72,"Duration":66781,"SoundDuration":66781,"Delta":240832629},{"NoteNumber":94,"Velocity":85,"Duration":66781,"SoundDuration":66781,"Delta":240832629},{"NoteNumber":77,"Velocity":59,"Duration":65817,"SoundDuration":65817,"Delta":240899411},{"NoteNumber":82,"Velocity":59,"Duration":65817,"SoundDuration":65817,"Delta":240899411},{"NoteNumber":86,"Velocity":70,"Duration":65817,"SoundDuration":65817,"Delta":240899411},{"NoteNumber":94,"Velocity":84,"Duration":65369,"SoundDuration":65369,"Delta":240965228},{"NoteNumber":87,"Velocity":71,"Duration":65369,"SoundDuration":65369,"Delta":240965228},{"NoteNumber":83,"Velocity":71,"Duration":65369,"SoundDuration":65369,"Delta":240965228},{"NoteNumber":86,"Velocity":70,"Duration":65015,"SoundDuration":65015,"Delta":241030597},{"NoteNumber":82,"Velocity":59,"Duration":65015,"SoundDuration":65015,"Delta":241030597},{"NoteNumber":77,"Velocity":59,"Duration":65015,"SoundDuration":65015,"Delta":241030597},{"NoteNumber":83,"Velocity":71,"Duration":64604,"SoundDuration":64604,"Delta":241095612},{"NoteNumber":87,"Velocity":71,"Duration":64604,"SoundDuration":64604,"Delta":241095612},{"NoteNumber":94,"Velocity":84,"Duration":64604,"SoundDuration":64604,"Delta":241095612},{"NoteNumber":77,"Velocity":59,"Duration":64249,"SoundDuration":64249,"Delta":241160217},{"NoteNumber":82,"Velocity":59,"Duration":64249,"SoundDuration":64249,"Delta":241160217},{"NoteNumber":86,"Velocity":70,"Duration":64249,"SoundDuration":64249,"Delta":241160217},{"NoteNumber":94,"Velocity":83,"Duration":63780,"SoundDuration":63780,"Delta":241224466},{"NoteNumber":87,"Velocity":70,"Duration":63780,"SoundDuration":63780,"Delta":241224466},{"NoteNumber":83,"Velocity":70,"Duration":63780,"SoundDuration":63780,"Delta":241224466},{"NoteNumber":86,"Velocity":69,"Duration":63434,"SoundDuration":63434,"Delta":241288246},{"NoteNumber":82,"Velocity":58,"Duration":63434,"SoundDuration":63434,"Delta":241288246},{"NoteNumber":77,"Velocity":58,"Duration":63434,"SoundDuration":63434,"Delta":241288246},{"NoteNumber":83,"Velocity":70,"Duration":63100,"SoundDuration":63100,"Delta":241351680},{"NoteNumber":87,"Velocity":70,"Duration":63100,"SoundDuration":63100,"Delta":241351680},{"NoteNumber":94,"Velocity":83,"Duration":63100,"SoundDuration":63100,"Delta":241351680},{"NoteNumber":77,"Velocity":59,"Duration":62713,"SoundDuration":62713,"Delta":241414781},{"NoteNumber":82,"Velocity":59,"Duration":62713,"SoundDuration":62713,"Delta":241414781},{"NoteNumber":86,"Velocity":70,"Duration":62713,"SoundDuration":62713,"Delta":241414781},{"NoteNumber":94,"Velocity":83,"Duration":62378,"SoundDuration":62378,"Delta":241477495},{"NoteNumber":87,"Velocity":70,"Duration":62378,"SoundDuration":62378,"Delta":241477495},{"NoteNumber":83,"Velocity":70,"Duration":62378,"SoundDuration":62378,"Delta":241477495},{"NoteNumber":86,"Velocity":67,"Duration":61992,"SoundDuration":61992,"Delta":241539873},{"NoteNumber":82,"Velocity":56,"Duration":61992,"SoundDuration":61992,"Delta":241539873},{"NoteNumber":77,"Velocity":56,"Duration":61992,"SoundDuration":61992,"Delta":241539873},{"NoteNumber":83,"Velocity":66,"Duration":61983,"SoundDuration":61983,"Delta":241601866},{"NoteNumber":87,"Velocity":66,"Duration":61983,"SoundDuration":61983,"Delta":241601866},{"NoteNumber":94,"Velocity":78,"Duration":61983,"SoundDuration":61983,"Delta":241601866},{"NoteNumber":77,"Velocity":54,"Duration":61983,"SoundDuration":61983,"Delta":241663849},{"NoteNumber":82,"Velocity":54,"Duration":61983,"SoundDuration":61983,"Delta":241663849},{"NoteNumber":86,"Velocity":64,"Duration":61983,"SoundDuration":61983,"Delta":241663849},{"NoteNumber":94,"Velocity":74,"Duration":61983,"SoundDuration":61983,"Delta":241725833},{"NoteNumber":87,"Velocity":62,"Duration":61983,"SoundDuration":61983,"Delta":241725833},{"NoteNumber":83,"Velocity":62,"Duration":61983,"SoundDuration":61983,"Delta":241725833},{"NoteNumber":86,"Velocity":61,"Duration":61983,"SoundDuration":61983,"Delta":241787816},{"NoteNumber":82,"Velocity":51,"Duration":61983,"SoundDuration":61983,"Delta":241787816},{"NoteNumber":77,"Velocity":51,"Duration":61983,"SoundDuration":61983,"Delta":241787816},{"NoteNumber":83,"Velocity":59,"Duration":61983,"SoundDuration":61983,"Delta":241849800},{"NoteNumber":87,"Velocity":59,"Duration":61983,"SoundDuration":61983,"Delta":241849800},{"NoteNumber":94,"Velocity":70,"Duration":61983,"SoundDuration":61983,"Delta":241849800},{"NoteNumber":77,"Velocity":49,"Duration":61720,"SoundDuration":61720,"Delta":241911783},{"NoteNumber":82,"Velocity":49,"Duration":61720,"SoundDuration":61720,"Delta":241911783},{"NoteNumber":86,"Velocity":58,"Duration":61720,"SoundDuration":61720,"Delta":241911783},{"NoteNumber":94,"Velocity":66,"Duration":61754,"SoundDuration":61754,"Delta":241973504},{"NoteNumber":87,"Velocity":56,"Duration":61754,"SoundDuration":61754,"Delta":241973504},{"NoteNumber":83,"Velocity":56,"Duration":61754,"SoundDuration":61754,"Delta":241973504},{"NoteNumber":86,"Velocity":54,"Duration":62137,"SoundDuration":62137,"Delta":242035258},{"NoteNumber":82,"Velocity":45,"Duration":62137,"SoundDuration":62137,"Delta":242035258},{"NoteNumber":77,"Velocity":45,"Duration":62137,"SoundDuration":62137,"Delta":242035258},{"NoteNumber":83,"Velocity":52,"Duration":62569,"SoundDuration":62569,"Delta":242097396},{"NoteNumber":87,"Velocity":52,"Duration":62569,"SoundDuration":62569,"Delta":242097396},{"NoteNumber":94,"Velocity":62,"Duration":62569,"SoundDuration":62569,"Delta":242097396},{"NoteNumber":77,"Velocity":43,"Duration":62946,"SoundDuration":62946,"Delta":242159966},{"NoteNumber":82,"Velocity":43,"Duration":62946,"SoundDuration":62946,"Delta":242159966},{"NoteNumber":86,"Velocity":51,"Duration":62946,"SoundDuration":62946,"Delta":242159966},{"NoteNumber":94,"Velocity":58,"Duration":63416,"SoundDuration":63416,"Delta":242222912},{"NoteNumber":87,"Velocity":49,"Duration":63416,"SoundDuration":63416,"Delta":242222912},{"NoteNumber":83,"Velocity":49,"Duration":63416,"SoundDuration":63416,"Delta":242222912},{"NoteNumber":86,"Velocity":46,"Duration":64185,"SoundDuration":64185,"Delta":242286328},{"NoteNumber":82,"Velocity":39,"Duration":64185,"SoundDuration":64185,"Delta":242286328},{"NoteNumber":77,"Velocity":39,"Duration":64185,"SoundDuration":64185,"Delta":242286328},{"NoteNumber":83,"Velocity":45,"Duration":65053,"SoundDuration":65053,"Delta":242350514},{"NoteNumber":87,"Velocity":45,"Duration":65053,"SoundDuration":65053,"Delta":242350514},{"NoteNumber":94,"Velocity":53,"Duration":65053,"SoundDuration":65053,"Delta":242350514},{"NoteNumber":77,"Velocity":36,"Duration":65949,"SoundDuration":65949,"Delta":242415568},{"NoteNumber":82,"Velocity":36,"Duration":65949,"SoundDuration":65949,"Delta":242415568},{"NoteNumber":86,"Velocity":43,"Duration":65949,"SoundDuration":65949,"Delta":242415568},{"NoteNumber":94,"Velocity":49,"Duration":66861,"SoundDuration":66861,"Delta":242481518},{"NoteNumber":87,"Velocity":41,"Duration":66861,"SoundDuration":66861,"Delta":242481518},{"NoteNumber":83,"Velocity":41,"Duration":66861,"SoundDuration":66861,"Delta":242481518},{"NoteNumber":86,"Velocity":40,"Duration":67993,"SoundDuration":67993,"Delta":242548379},{"NoteNumber":82,"Velocity":34,"Duration":67993,"SoundDuration":67993,"Delta":242548379},{"NoteNumber":77,"Velocity":34,"Duration":67993,"SoundDuration":67993,"Delta":242548379},{"NoteNumber":83,"Velocity":38,"Duration":69093,"SoundDuration":69093,"Delta":242616373},{"NoteNumber":87,"Velocity":38,"Duration":69093,"SoundDuration":69093,"Delta":242616373},{"NoteNumber":94,"Velocity":45,"Duration":69093,"SoundDuration":69093,"Delta":242616373},{"NoteNumber":77,"Velocity":31,"Duration":70111,"SoundDuration":70111,"Delta":242685467},{"NoteNumber":82,"Velocity":31,"Duration":70111,"SoundDuration":70111,"Delta":242685467},{"NoteNumber":86,"Velocity":37,"Duration":70111,"SoundDuration":70111,"Delta":242685467},{"NoteNumber":94,"Velocity":41,"Duration":71153,"SoundDuration":71153,"Delta":242755578},{"NoteNumber":87,"Velocity":34,"Duration":71153,"SoundDuration":71153,"Delta":242755578},{"NoteNumber":83,"Velocity":34,"Duration":71153,"SoundDuration":71153,"Delta":242755578},{"NoteNumber":86,"Velocity":33,"Duration":72291,"SoundDuration":72291,"Delta":242826731},{"NoteNumber":82,"Velocity":28,"Duration":72291,"SoundDuration":72291,"Delta":242826731},{"NoteNumber":77,"Velocity":28,"Duration":72291,"SoundDuration":72291,"Delta":242826731},{"NoteNumber":83,"Velocity":31,"Duration":78143,"SoundDuration":78143,"Delta":242899022},{"NoteNumber":87,"Velocity":31,"Duration":78143,"SoundDuration":78143,"Delta":242899022},{"NoteNumber":94,"Velocity":37,"Duration":78143,"SoundDuration":78143,"Delta":242899022},{"NoteNumber":77,"Velocity":25,"Duration":98578,"SoundDuration":98578,"Delta":242977166},{"NoteNumber":82,"Velocity":25,"Duration":98578,"SoundDuration":98578,"Delta":242977166},{"NoteNumber":86,"Velocity":30,"Duration":98578,"SoundDuration":98578,"Delta":242977166},{"NoteNumber":92,"Velocity":40,"Duration":76495,"SoundDuration":76495,"Delta":243075744},{"NoteNumber":86,"Velocity":35,"Duration":112981,"SoundDuration":112981,"Delta":243075744},{"NoteNumber":87,"Velocity":27,"Duration":71367,"SoundDuration":71367,"Delta":243152240},{"NoteNumber":78,"Velocity":28,"Duration":100458,"SoundDuration":100458,"Delta":243188725},{"NoteNumber":82,"Velocity":27,"Duration":65576,"SoundDuration":65576,"Delta":243223607},{"NoteNumber":90,"Velocity":39,"Duration":60962,"SoundDuration":60962,"Delta":243289183},{"NoteNumber":81,"Velocity":35,"Duration":89772,"SoundDuration":89772,"Delta":243289183},{"NoteNumber":85,"Velocity":26,"Duration":57219,"SoundDuration":57219,"Delta":243350146},{"NoteNumber":75,"Velocity":26,"Duration":85227,"SoundDuration":85227,"Delta":243378956},{"NoteNumber":80,"Velocity":26,"Duration":56818,"SoundDuration":56818,"Delta":243407365},{"NoteNumber":87,"Velocity":39,"Duration":56818,"SoundDuration":56818,"Delta":243464183},{"NoteNumber":79,"Velocity":36,"Duration":85227,"SoundDuration":85227,"Delta":243464183},{"NoteNumber":82,"Velocity":29,"Duration":56818,"SoundDuration":56818,"Delta":243521002},{"NoteNumber":73,"Velocity":29,"Duration":85227,"SoundDuration":85227,"Delta":243549411},{"NoteNumber":78,"Velocity":29,"Duration":56818,"SoundDuration":56818,"Delta":243577820},{"NoteNumber":89,"Velocity":40,"Duration":56802,"SoundDuration":56802,"Delta":243634638},{"NoteNumber":81,"Velocity":35,"Duration":85050,"SoundDuration":85050,"Delta":243634638},{"NoteNumber":85,"Velocity":27,"Duration":56497,"SoundDuration":56497,"Delta":243691440},{"NoteNumber":75,"Velocity":28,"Duration":84555,"SoundDuration":84555,"Delta":243719689},{"NoteNumber":80,"Velocity":27,"Duration":56306,"SoundDuration":56306,"Delta":243747937},{"NoteNumber":87,"Velocity":39,"Duration":55975,"SoundDuration":55975,"Delta":243804244},{"NoteNumber":79,"Velocity":36,"Duration":83854,"SoundDuration":83854,"Delta":243804244},{"NoteNumber":82,"Velocity":29,"Duration":55656,"SoundDuration":55656,"Delta":243860220},{"NoteNumber":73,"Velocity":29,"Duration":83333,"SoundDuration":83333,"Delta":243888098},{"NoteNumber":78,"Velocity":29,"Duration":55555,"SoundDuration":55555,"Delta":243915876},{"NoteNumber":85,"Velocity":39,"Duration":55555,"SoundDuration":55555,"Delta":243971432},{"NoteNumber":77,"Velocity":36,"Duration":83333,"SoundDuration":83333,"Delta":243971432},{"NoteNumber":80,"Velocity":29,"Duration":83856,"SoundDuration":83856,"Delta":244026987},{"NoteNumber":70,"Velocity":29,"Duration":168236,"SoundDuration":168236,"Delta":244054765},{"NoteNumber":76,"Velocity":29,"Duration":112157,"SoundDuration":112157,"Delta":244110844},{"NoteNumber":68,"Velocity":36,"Duration":88937,"SoundDuration":88937,"Delta":244223002},{"NoteNumber":72,"Velocity":36,"Duration":88937,"SoundDuration":88937,"Delta":244223002},{"NoteNumber":73,"Velocity":30,"Duration":87767,"SoundDuration":87767,"Delta":244311939},{"NoteNumber":74,"Velocity":31,"Duration":86626,"SoundDuration":86626,"Delta":244399707},{"NoteNumber":75,"Velocity":29,"Duration":85515,"SoundDuration":85515,"Delta":244486333},{"NoteNumber":74,"Velocity":33,"Duration":84314,"SoundDuration":84314,"Delta":244571849},{"NoteNumber":75,"Velocity":34,"Duration":83260,"SoundDuration":83260,"Delta":244656163},{"NoteNumber":77,"Velocity":39,"Duration":82234,"SoundDuration":82234,"Delta":244739424},{"NoteNumber":78,"Velocity":34,"Duration":81122,"SoundDuration":81122,"Delta":244821658},{"NoteNumber":84,"Velocity":39,"Duration":57142,"SoundDuration":57142,"Delta":244902780},{"NoteNumber":79,"Velocity":36,"Duration":85714,"SoundDuration":85714,"Delta":244902780},{"NoteNumber":78,"Velocity":29,"Duration":57142,"SoundDuration":57142,"Delta":244959923},{"NoteNumber":73,"Velocity":29,"Duration":85714,"SoundDuration":85714,"Delta":244988494},{"NoteNumber":75,"Velocity":29,"Duration":57142,"SoundDuration":57142,"Delta":245017066},{"NoteNumber":82,"Velocity":39,"Duration":57142,"SoundDuration":57142,"Delta":245074209},{"NoteNumber":72,"Velocity":36,"Duration":85714,"SoundDuration":85714,"Delta":245074209},{"NoteNumber":78,"Velocity":29,"Duration":57102,"SoundDuration":57102,"Delta":245131351},{"NoteNumber":70,"Velocity":29,"Duration":85348,"SoundDuration":85348,"Delta":245159923},{"NoteNumber":75,"Velocity":29,"Duration":56818,"SoundDuration":56818,"Delta":245188454},{"NoteNumber":80,"Velocity":40,"Duration":56818,"SoundDuration":56818,"Delta":245245272},{"NoteNumber":74,"Velocity":35,"Duration":85227,"SoundDuration":85227,"Delta":245245272},{"NoteNumber":75,"Velocity":27,"Duration":56818,"SoundDuration":56818,"Delta":245302090},{"NoteNumber":66,"Velocity":28,"Duration":85227,"SoundDuration":85227,"Delta":245330499},{"NoteNumber":70,"Velocity":27,"Duration":56818,"SoundDuration":56818,"Delta":245358908},{"NoteNumber":78,"Velocity":39,"Duration":56737,"SoundDuration":56737,"Delta":245415726},{"NoteNumber":69,"Velocity":35,"Duration":84986,"SoundDuration":84986,"Delta":245415726},{"NoteNumber":73,"Velocity":26,"Duration":56497,"SoundDuration":56497,"Delta":245472464},{"NoteNumber":63,"Velocity":26,"Duration":84745,"SoundDuration":84745,"Delta":245500713},{"NoteNumber":68,"Velocity":26,"Duration":56497,"SoundDuration":56497,"Delta":245528961},{"NoteNumber":75,"Velocity":39,"Duration":56497,"SoundDuration":56497,"Delta":245585459},{"NoteNumber":67,"Velocity":36,"Duration":84745,"SoundDuration":84745,"Delta":245585459},{"NoteNumber":70,"Velocity":29,"Duration":56497,"SoundDuration":56497,"Delta":245641956},{"NoteNumber":61,"Velocity":29,"Duration":84626,"SoundDuration":84626,"Delta":245670204},{"NoteNumber":66,"Velocity":29,"Duration":56378,"SoundDuration":56378,"Delta":245698453},{"NoteNumber":77,"Velocity":40,"Duration":56179,"SoundDuration":56179,"Delta":245754831},{"NoteNumber":69,"Velocity":35,"Duration":84269,"SoundDuration":84269,"Delta":245754831},{"NoteNumber":73,"Velocity":27,"Duration":56179,"SoundDuration":56179,"Delta":245811011},{"NoteNumber":63,"Velocity":28,"Duration":84269,"SoundDuration":84269,"Delta":245839101},{"NoteNumber":68,"Velocity":27,"Duration":56179,"SoundDuration":56179,"Delta":245867191},{"NoteNumber":75,"Velocity":39,"Duration":56179,"SoundDuration":56179,"Delta":245923370},{"NoteNumber":67,"Velocity":36,"Duration":84097,"SoundDuration":84097,"Delta":245923370},{"NoteNumber":70,"Velocity":29,"Duration":55695,"SoundDuration":55695,"Delta":245979550},{"NoteNumber":61,"Velocity":29,"Duration":83333,"SoundDuration":83333,"Delta":246007468},{"NoteNumber":66,"Velocity":29,"Duration":55555,"SoundDuration":55555,"Delta":246035246},{"NoteNumber":73,"Velocity":39,"Duration":55555,"SoundDuration":55555,"Delta":246090801},{"NoteNumber":65,"Velocity":36,"Duration":83333,"SoundDuration":83333,"Delta":246090801},{"NoteNumber":68,"Velocity":29,"Duration":83856,"SoundDuration":83856,"Delta":246146357},{"NoteNumber":58,"Velocity":29,"Duration":168236,"SoundDuration":168236,"Delta":246174135},{"NoteNumber":64,"Velocity":29,"Duration":112157,"SoundDuration":112157,"Delta":246230214},{"NoteNumber":56,"Velocity":36,"Duration":88937,"SoundDuration":88937,"Delta":246342372},{"NoteNumber":60,"Velocity":36,"Duration":88937,"SoundDuration":88937,"Delta":246342372},{"NoteNumber":61,"Velocity":30,"Duration":87767,"SoundDuration":87767,"Delta":246431309},{"NoteNumber":62,"Velocity":31,"Duration":86626,"SoundDuration":86626,"Delta":246519076},{"NoteNumber":63,"Velocity":29,"Duration":85515,"SoundDuration":85515,"Delta":246605703},{"NoteNumber":62,"Velocity":33,"Duration":84314,"SoundDuration":84314,"Delta":246691219},{"NoteNumber":63,"Velocity":34,"Duration":83260,"SoundDuration":83260,"Delta":246775533},{"NoteNumber":65,"Velocity":39,"Duration":82234,"SoundDuration":82234,"Delta":246858793},{"NoteNumber":66,"Velocity":34,"Duration":83705,"SoundDuration":83705,"Delta":246941027},{"NoteNumber":72,"Velocity":39,"Duration":60606,"SoundDuration":60606,"Delta":247024733},{"NoteNumber":67,"Velocity":36,"Duration":90772,"SoundDuration":90772,"Delta":247024733},{"NoteNumber":66,"Velocity":29,"Duration":60286,"SoundDuration":60286,"Delta":247085339},{"NoteNumber":61,"Velocity":29,"Duration":90090,"SoundDuration":90090,"Delta":247115505},{"NoteNumber":63,"Velocity":29,"Duration":59970,"SoundDuration":59970,"Delta":247145626},{"NoteNumber":70,"Velocity":39,"Duration":59657,"SoundDuration":59657,"Delta":247205596},{"NoteNumber":60,"Velocity":36,"Duration":89419,"SoundDuration":89419,"Delta":247205596},{"NoteNumber":66,"Velocity":29,"Duration":59347,"SoundDuration":59347,"Delta":247265254},{"NoteNumber":58,"Velocity":29,"Duration":88626,"SoundDuration":88626,"Delta":247295016},{"NoteNumber":63,"Velocity":29,"Duration":59041,"SoundDuration":59041,"Delta":247324601},{"NoteNumber":68,"Velocity":40,"Duration":58823,"SoundDuration":58823,"Delta":247383642},{"NoteNumber":62,"Velocity":35,"Duration":88106,"SoundDuration":88106,"Delta":247383642},{"NoteNumber":63,"Velocity":27,"Duration":58522,"SoundDuration":58522,"Delta":247442466},{"NoteNumber":54,"Velocity":28,"Duration":87464,"SoundDuration":87464,"Delta":247471749},{"NoteNumber":58,"Velocity":27,"Duration":58224,"SoundDuration":58224,"Delta":247500988},{"NoteNumber":66,"Velocity":39,"Duration":57929,"SoundDuration":57929,"Delta":247559213},{"NoteNumber":57,"Velocity":35,"Duration":86831,"SoundDuration":86831,"Delta":247559213},{"NoteNumber":61,"Velocity":26,"Duration":57637,"SoundDuration":57637,"Delta":247617142},{"NoteNumber":51,"Velocity":26,"Duration":86083,"SoundDuration":86083,"Delta":247646044},{"NoteNumber":56,"Velocity":26,"Duration":57348,"SoundDuration":57348,"Delta":247674780},{"NoteNumber":63,"Velocity":39,"Duration":57061,"SoundDuration":57061,"Delta":247732128},{"NoteNumber":55,"Velocity":36,"Duration":85470,"SoundDuration":85470,"Delta":247732128},{"NoteNumber":58,"Velocity":29,"Duration":56818,"SoundDuration":56818,"Delta":247789189},{"NoteNumber":49,"Velocity":29,"Duration":84986,"SoundDuration":84986,"Delta":247817599},{"NoteNumber":54,"Velocity":29,"Duration":56577,"SoundDuration":56577,"Delta":247846008},{"NoteNumber":65,"Velocity":40,"Duration":56298,"SoundDuration":56298,"Delta":247902585},{"NoteNumber":57,"Velocity":35,"Duration":84388,"SoundDuration":84388,"Delta":247902585},{"NoteNumber":61,"Velocity":27,"Duration":56022,"SoundDuration":56022,"Delta":247958884},{"NoteNumber":51,"Velocity":28,"Duration":83682,"SoundDuration":83682,"Delta":247986974},{"NoteNumber":56,"Velocity":27,"Duration":55749,"SoundDuration":55749,"Delta":248014907},{"NoteNumber":63,"Velocity":39,"Duration":55478,"SoundDuration":55478,"Delta":248070656},{"NoteNumber":55,"Velocity":36,"Duration":83103,"SoundDuration":83103,"Delta":248070656},{"NoteNumber":58,"Velocity":29,"Duration":55210,"SoundDuration":55210,"Delta":248126135},{"NoteNumber":49,"Velocity":29,"Duration":82531,"SoundDuration":82531,"Delta":248153759},{"NoteNumber":54,"Velocity":29,"Duration":54945,"SoundDuration":54945,"Delta":248181346},{"NoteNumber":61,"Velocity":39,"Duration":54945,"SoundDuration":54945,"Delta":248236291},{"NoteNumber":53,"Velocity":36,"Duration":82417,"SoundDuration":82417,"Delta":248236291},{"NoteNumber":56,"Velocity":29,"Duration":54945,"SoundDuration":54945,"Delta":248291236},{"NoteNumber":46,"Velocity":29,"Duration":82417,"SoundDuration":82417,"Delta":248318708},{"NoteNumber":52,"Velocity":29,"Duration":54945,"SoundDuration":54945,"Delta":248346181},{"NoteNumber":57,"Velocity":39,"Duration":105174,"SoundDuration":105174,"Delta":248602252},{"NoteNumber":53,"Velocity":38,"Duration":157761,"SoundDuration":157761,"Delta":248602252},{"NoteNumber":63,"Velocity":31,"Duration":105174,"SoundDuration":105174,"Delta":248707427},{"NoteNumber":58,"Velocity":31,"Duration":105174,"SoundDuration":105174,"Delta":248707427},{"NoteNumber":51,"Velocity":31,"Duration":157761,"SoundDuration":157761,"Delta":248760014},{"NoteNumber":53,"Velocity":35,"Duration":105174,"SoundDuration":105174,"Delta":248812602},{"NoteNumber":58,"Velocity":31,"Duration":105174,"SoundDuration":105174,"Delta":248917776},{"NoteNumber":54,"Velocity":31,"Duration":105174,"SoundDuration":105174,"Delta":248917776},{"NoteNumber":46,"Velocity":37,"Duration":157762,"SoundDuration":157762,"Delta":248917776},{"NoteNumber":50,"Velocity":36,"Duration":105174,"SoundDuration":105174,"Delta":249022951},{"NoteNumber":41,"Velocity":31,"Duration":157761,"SoundDuration":157761,"Delta":249075538},{"NoteNumber":54,"Velocity":31,"Duration":105174,"SoundDuration":105174,"Delta":249128126},{"NoteNumber":51,"Velocity":31,"Duration":105174,"SoundDuration":105174,"Delta":249128126},{"NoteNumber":31,"Velocity":26,"Duration":3080787,"SoundDuration":3080787,"Delta":249233300},{"NoteNumber":38,"Velocity":31,"Duration":3080787,"SoundDuration":3080787,"Delta":249233300},{"NoteNumber":43,"Velocity":26,"Duration":2923025,"SoundDuration":2923025,"Delta":249391062},{"NoteNumber":50,"Velocity":31,"Duration":2923025,"SoundDuration":2923025,"Delta":249391062},{"NoteNumber":86,"Velocity":31,"Duration":487170,"SoundDuration":487170,"Delta":250365404},{"NoteNumber":79,"Velocity":28,"Duration":487170,"SoundDuration":487170,"Delta":250365404},{"NoteNumber":74,"Velocity":26,"Duration":487170,"SoundDuration":487170,"Delta":250365404},{"NoteNumber":67,"Velocity":26,"Duration":487170,"SoundDuration":487170,"Delta":250365404},{"NoteNumber":88,"Velocity":31,"Duration":487170,"SoundDuration":487170,"Delta":250852575},{"NoteNumber":82,"Velocity":26,"Duration":487170,"SoundDuration":487170,"Delta":250852575},{"NoteNumber":70,"Velocity":26,"Duration":487170,"SoundDuration":487170,"Delta":250852575},{"NoteNumber":76,"Velocity":26,"Duration":487170,"SoundDuration":487170,"Delta":250852575},{"NoteNumber":58,"Velocity":27,"Duration":544662,"SoundDuration":544662,"Delta":252314088},{"NoteNumber":55,"Velocity":22,"Duration":544662,"SoundDuration":544662,"Delta":252314088},{"NoteNumber":65,"Velocity":40,"Duration":1168622,"SoundDuration":1168622,"Delta":252314088},{"NoteNumber":53,"Velocity":37,"Duration":1168622,"SoundDuration":1168622,"Delta":252314088},{"NoteNumber":58,"Velocity":27,"Duration":1163722,"SoundDuration":1163722,"Delta":252858751},{"NoteNumber":55,"Velocity":22,"Duration":1163722,"SoundDuration":1163722,"Delta":252858751},{"NoteNumber":62,"Velocity":37,"Duration":2159050,"SoundDuration":2159050,"Delta":253482711},{"NoteNumber":50,"Velocity":32,"Duration":2159050,"SoundDuration":2159050,"Delta":253482711},{"NoteNumber":53,"Velocity":22,"Duration":1079525,"SoundDuration":1079525,"Delta":254022473},{"NoteNumber":55,"Velocity":27,"Duration":1079525,"SoundDuration":1079525,"Delta":254022473},{"NoteNumber":53,"Velocity":22,"Duration":539762,"SoundDuration":539762,"Delta":255101998},{"NoteNumber":55,"Velocity":27,"Duration":539762,"SoundDuration":539762,"Delta":255101998},{"NoteNumber":65,"Velocity":45,"Duration":971180,"SoundDuration":971180,"Delta":256585454},{"NoteNumber":53,"Velocity":40,"Duration":971180,"SoundDuration":971180,"Delta":256585454},{"NoteNumber":55,"Velocity":36,"Duration":471846,"SoundDuration":471846,"Delta":257084788},{"NoteNumber":58,"Velocity":36,"Duration":471846,"SoundDuration":471846,"Delta":257084788},{"NoteNumber":43,"Velocity":41,"Duration":1061654,"SoundDuration":1061654,"Delta":257438673},{"NoteNumber":31,"Velocity":34,"Duration":1061654,"SoundDuration":1061654,"Delta":257438673},{"NoteNumber":61,"Velocity":32,"Duration":471846,"SoundDuration":471846,"Delta":257556634},{"NoteNumber":65,"Velocity":38,"Duration":471846,"SoundDuration":471846,"Delta":257556634},{"NoteNumber":72,"Velocity":55,"Duration":943692,"SoundDuration":943692,"Delta":257556634},{"NoteNumber":60,"Velocity":45,"Duration":943692,"SoundDuration":943692,"Delta":257556634},{"NoteNumber":61,"Velocity":32,"Duration":947433,"SoundDuration":947433,"Delta":258028481},{"NoteNumber":65,"Velocity":38,"Duration":947433,"SoundDuration":947433,"Delta":258028481},{"NoteNumber":70,"Velocity":53,"Duration":951172,"SoundDuration":951172,"Delta":258500327},{"NoteNumber":58,"Velocity":43,"Duration":951172,"SoundDuration":951172,"Delta":258500327},{"NoteNumber":61,"Velocity":26,"Duration":970799,"SoundDuration":970799,"Delta":258975914},{"NoteNumber":65,"Velocity":31,"Duration":475586,"SoundDuration":475586,"Delta":258975914},{"NoteNumber":65,"Velocity":44,"Duration":990426,"SoundDuration":990426,"Delta":259451500},{"NoteNumber":53,"Velocity":39,"Duration":990426,"SoundDuration":990426,"Delta":259451500},{"NoteNumber":58,"Velocity":22,"Duration":495213,"SoundDuration":495213,"Delta":259946713},{"NoteNumber":61,"Velocity":27,"Duration":495213,"SoundDuration":495213,"Delta":259946713},{"NoteNumber":43,"Velocity":26,"Duration":3391106,"SoundDuration":3391106,"Delta":260441926},{"NoteNumber":37,"Velocity":22,"Duration":3391106,"SoundDuration":3391106,"Delta":260441926},{"NoteNumber":49,"Velocity":31,"Duration":3391106,"SoundDuration":3391106,"Delta":260441926},{"NoteNumber":31,"Velocity":22,"Duration":3391106,"SoundDuration":3391106,"Delta":260441926},{"NoteNumber":63,"Velocity":23,"Duration":565184,"SoundDuration":565184,"Delta":261572295},{"NoteNumber":53,"Velocity":23,"Duration":1130369,"SoundDuration":1130369,"Delta":261572295},{"NoteNumber":87,"Velocity":27,"Duration":565184,"SoundDuration":565184,"Delta":261572295},{"NoteNumber":82,"Velocity":25,"Duration":565184,"SoundDuration":565184,"Delta":261572295},{"NoteNumber":58,"Velocity":23,"Duration":1130369,"SoundDuration":1130369,"Delta":261572295},{"NoteNumber":61,"Velocity":23,"Duration":565184,"SoundDuration":565184,"Delta":262137480},{"NoteNumber":65,"Velocity":23,"Duration":565184,"SoundDuration":565184,"Delta":262137480},{"NoteNumber":89,"Velocity":27,"Duration":565184,"SoundDuration":565184,"Delta":262137480},{"NoteNumber":85,"Velocity":23,"Duration":565184,"SoundDuration":565184,"Delta":262137480},{"NoteNumber":25,"Velocity":39,"Duration":620864,"SoundDuration":620864,"Delta":264963402},{"NoteNumber":37,"Velocity":39,"Duration":620864,"SoundDuration":620864,"Delta":264963402},{"NoteNumber":67,"Velocity":45,"Duration":128337,"SoundDuration":128337,"Delta":265584267},{"NoteNumber":65,"Velocity":29,"Duration":128337,"SoundDuration":128337,"Delta":265584267},{"NoteNumber":61,"Velocity":29,"Duration":128337,"SoundDuration":128337,"Delta":265584267},{"NoteNumber":77,"Velocity":25,"Duration":127464,"SoundDuration":127464,"Delta":265712604},{"NoteNumber":73,"Velocity":21,"Duration":127464,"SoundDuration":127464,"Delta":265712604},{"NoteNumber":68,"Velocity":21,"Duration":127464,"SoundDuration":127464,"Delta":265712604},{"NoteNumber":69,"Velocity":35,"Duration":126711,"SoundDuration":126711,"Delta":265840069},{"NoteNumber":67,"Velocity":30,"Duration":126711,"SoundDuration":126711,"Delta":265840069},{"NoteNumber":70,"Velocity":23,"Duration":125926,"SoundDuration":125926,"Delta":265966780},{"NoteNumber":73,"Velocity":23,"Duration":125926,"SoundDuration":125926,"Delta":265966780},{"NoteNumber":77,"Velocity":26,"Duration":125926,"SoundDuration":125926,"Delta":265966780},{"NoteNumber":71,"Velocity":46,"Duration":125190,"SoundDuration":125190,"Delta":266092707},{"NoteNumber":69,"Velocity":30,"Duration":125190,"SoundDuration":125190,"Delta":266092707},{"NoteNumber":65,"Velocity":30,"Duration":125190,"SoundDuration":125190,"Delta":266092707},{"NoteNumber":81,"Velocity":26,"Duration":124425,"SoundDuration":124425,"Delta":266217898},{"NoteNumber":77,"Velocity":22,"Duration":124425,"SoundDuration":124425,"Delta":266217898},{"NoteNumber":72,"Velocity":22,"Duration":124425,"SoundDuration":124425,"Delta":266217898},{"NoteNumber":73,"Velocity":36,"Duration":123642,"SoundDuration":123642,"Delta":266342323},{"NoteNumber":71,"Velocity":30,"Duration":123642,"SoundDuration":123642,"Delta":266342323},{"NoteNumber":81,"Velocity":27,"Duration":122833,"SoundDuration":122833,"Delta":266465966},{"NoteNumber":77,"Velocity":23,"Duration":122833,"SoundDuration":122833,"Delta":266465966},{"NoteNumber":74,"Velocity":23,"Duration":122833,"SoundDuration":122833,"Delta":266465966},{"NoteNumber":69,"Velocity":31,"Duration":122070,"SoundDuration":122070,"Delta":266588800},{"NoteNumber":73,"Velocity":31,"Duration":122070,"SoundDuration":122070,"Delta":266588800},{"NoteNumber":75,"Velocity":47,"Duration":122070,"SoundDuration":122070,"Delta":266588800},{"NoteNumber":85,"Velocity":27,"Duration":121281,"SoundDuration":121281,"Delta":266710871},{"NoteNumber":81,"Velocity":23,"Duration":121281,"SoundDuration":121281,"Delta":266710871},{"NoteNumber":76,"Velocity":23,"Duration":121281,"SoundDuration":121281,"Delta":266710871},{"NoteNumber":77,"Velocity":37,"Duration":120598,"SoundDuration":120598,"Delta":266832152},{"NoteNumber":75,"Velocity":31,"Duration":120598,"SoundDuration":120598,"Delta":266832152},{"NoteNumber":85,"Velocity":27,"Duration":119888,"SoundDuration":119888,"Delta":266952750},{"NoteNumber":81,"Velocity":23,"Duration":119888,"SoundDuration":119888,"Delta":266952750},{"NoteNumber":78,"Velocity":23,"Duration":119888,"SoundDuration":119888,"Delta":266952750},{"NoteNumber":79,"Velocity":48,"Duration":119220,"SoundDuration":119220,"Delta":267072638},{"NoteNumber":77,"Velocity":37,"Duration":119220,"SoundDuration":119220,"Delta":267072638},{"NoteNumber":73,"Velocity":31,"Duration":119220,"SoundDuration":119220,"Delta":267072638},{"NoteNumber":89,"Velocity":27,"Duration":118467,"SoundDuration":118467,"Delta":267191859},{"NoteNumber":85,"Velocity":24,"Duration":118467,"SoundDuration":118467,"Delta":267191859},{"NoteNumber":80,"Velocity":24,"Duration":118467,"SoundDuration":118467,"Delta":267191859},{"NoteNumber":81,"Velocity":37,"Duration":117816,"SoundDuration":117816,"Delta":267310327},{"NoteNumber":79,"Velocity":32,"Duration":117816,"SoundDuration":117816,"Delta":267310327},{"NoteNumber":82,"Velocity":24,"Duration":117137,"SoundDuration":117137,"Delta":267428143},{"NoteNumber":85,"Velocity":24,"Duration":117137,"SoundDuration":117137,"Delta":267428143},{"NoteNumber":89,"Velocity":28,"Duration":117137,"SoundDuration":117137,"Delta":267428143},{"NoteNumber":83,"Velocity":49,"Duration":116444,"SoundDuration":116444,"Delta":267545281},{"NoteNumber":81,"Velocity":32,"Duration":116444,"SoundDuration":116444,"Delta":267545281},{"NoteNumber":77,"Velocity":32,"Duration":116444,"SoundDuration":116444,"Delta":267545281},{"NoteNumber":93,"Velocity":28,"Duration":115837,"SoundDuration":115837,"Delta":267661725},{"NoteNumber":89,"Velocity":24,"Duration":115837,"SoundDuration":115837,"Delta":267661725},{"NoteNumber":84,"Velocity":24,"Duration":115837,"SoundDuration":115837,"Delta":267661725},{"NoteNumber":85,"Velocity":38,"Duration":115159,"SoundDuration":115159,"Delta":267777562},{"NoteNumber":83,"Velocity":32,"Duration":115159,"SoundDuration":115159,"Delta":267777562},{"NoteNumber":93,"Velocity":28,"Duration":114424,"SoundDuration":114424,"Delta":267892722},{"NoteNumber":89,"Velocity":24,"Duration":114424,"SoundDuration":114424,"Delta":267892722},{"NoteNumber":86,"Velocity":24,"Duration":114424,"SoundDuration":114424,"Delta":267892722},{"NoteNumber":81,"Velocity":33,"Duration":113096,"SoundDuration":113096,"Delta":268007147},{"NoteNumber":85,"Velocity":33,"Duration":113096,"SoundDuration":113096,"Delta":268007147},{"NoteNumber":87,"Velocity":50,"Duration":113096,"SoundDuration":113096,"Delta":268007147},{"NoteNumber":97,"Velocity":28,"Duration":112619,"SoundDuration":112619,"Delta":268120243},{"NoteNumber":93,"Velocity":24,"Duration":112619,"SoundDuration":112619,"Delta":268120243},{"NoteNumber":88,"Velocity":24,"Duration":112619,"SoundDuration":112619,"Delta":268120243},{"NoteNumber":89,"Velocity":39,"Duration":112198,"SoundDuration":112198,"Delta":268232863},{"NoteNumber":87,"Velocity":33,"Duration":112198,"SoundDuration":112198,"Delta":268232863},{"NoteNumber":97,"Velocity":28,"Duration":111727,"SoundDuration":111727,"Delta":268345061},{"NoteNumber":93,"Velocity":24,"Duration":111727,"SoundDuration":111727,"Delta":268345061},{"NoteNumber":90,"Velocity":24,"Duration":111727,"SoundDuration":111727,"Delta":268345061},{"NoteNumber":91,"Velocity":54,"Duration":109825,"SoundDuration":109825,"Delta":268456789},{"NoteNumber":89,"Velocity":33,"Duration":109825,"SoundDuration":109825,"Delta":268456789},{"NoteNumber":85,"Velocity":33,"Duration":109825,"SoundDuration":109825,"Delta":268456789},{"NoteNumber":101,"Velocity":29,"Duration":107851,"SoundDuration":107851,"Delta":268566614},{"NoteNumber":97,"Velocity":29,"Duration":107851,"SoundDuration":107851,"Delta":268566614},{"NoteNumber":92,"Velocity":25,"Duration":107851,"SoundDuration":107851,"Delta":268566614},{"NoteNumber":93,"Velocity":39,"Duration":107851,"SoundDuration":107851,"Delta":268674466},{"NoteNumber":91,"Velocity":39,"Duration":107851,"SoundDuration":107851,"Delta":268674466},{"NoteNumber":94,"Velocity":25,"Duration":110635,"SoundDuration":110635,"Delta":268782317},{"NoteNumber":97,"Velocity":29,"Duration":110635,"SoundDuration":110635,"Delta":268782317},{"NoteNumber":101,"Velocity":29,"Duration":110635,"SoundDuration":110635,"Delta":268782317},{"NoteNumber":91,"Velocity":54,"Duration":109825,"SoundDuration":109825,"Delta":268892953},{"NoteNumber":89,"Velocity":33,"Duration":109825,"SoundDuration":109825,"Delta":268892953},{"NoteNumber":85,"Velocity":33,"Duration":109825,"SoundDuration":109825,"Delta":268892953},{"NoteNumber":101,"Velocity":29,"Duration":107465,"SoundDuration":107465,"Delta":269002779},{"NoteNumber":97,"Velocity":29,"Duration":107465,"SoundDuration":107465,"Delta":269002779},{"NoteNumber":92,"Velocity":25,"Duration":107465,"SoundDuration":107465,"Delta":269002779},{"NoteNumber":93,"Velocity":39,"Duration":107465,"SoundDuration":107465,"Delta":269110244},{"NoteNumber":91,"Velocity":33,"Duration":107465,"SoundDuration":107465,"Delta":269110244},{"NoteNumber":94,"Velocity":25,"Duration":111457,"SoundDuration":111457,"Delta":269217709},{"NoteNumber":97,"Velocity":29,"Duration":111457,"SoundDuration":111457,"Delta":269217709},{"NoteNumber":101,"Velocity":29,"Duration":111457,"SoundDuration":111457,"Delta":269217709},{"NoteNumber":91,"Velocity":54,"Duration":109027,"SoundDuration":109027,"Delta":269329167},{"NoteNumber":89,"Velocity":33,"Duration":109027,"SoundDuration":109027,"Delta":269329167},{"NoteNumber":85,"Velocity":33,"Duration":109027,"SoundDuration":109027,"Delta":269329167},{"NoteNumber":101,"Velocity":29,"Duration":104471,"SoundDuration":104471,"Delta":269438195},{"NoteNumber":97,"Velocity":29,"Duration":104471,"SoundDuration":104471,"Delta":269438195},{"NoteNumber":92,"Velocity":25,"Duration":104471,"SoundDuration":104471,"Delta":269438195},{"NoteNumber":93,"Velocity":39,"Duration":104471,"SoundDuration":104471,"Delta":269542666},{"NoteNumber":91,"Velocity":33,"Duration":104471,"SoundDuration":104471,"Delta":269542666},{"NoteNumber":94,"Velocity":25,"Duration":108632,"SoundDuration":108632,"Delta":269647137},{"NoteNumber":97,"Velocity":30,"Duration":108632,"SoundDuration":108632,"Delta":269647137},{"NoteNumber":101,"Velocity":30,"Duration":108632,"SoundDuration":108632,"Delta":269647137},{"NoteNumber":91,"Velocity":54,"Duration":105204,"SoundDuration":105204,"Delta":269755770},{"NoteNumber":89,"Velocity":33,"Duration":105204,"SoundDuration":105204,"Delta":269755770},{"NoteNumber":85,"Velocity":33,"Duration":105204,"SoundDuration":105204,"Delta":269755770},{"NoteNumber":101,"Velocity":30,"Duration":103391,"SoundDuration":103391,"Delta":269860974},{"NoteNumber":97,"Velocity":30,"Duration":103391,"SoundDuration":103391,"Delta":269860974},{"NoteNumber":92,"Velocity":25,"Duration":103391,"SoundDuration":103391,"Delta":269860974},{"NoteNumber":93,"Velocity":39,"Duration":103391,"SoundDuration":103391,"Delta":269964365},{"NoteNumber":91,"Velocity":33,"Duration":103391,"SoundDuration":103391,"Delta":269964365},{"NoteNumber":94,"Velocity":25,"Duration":107081,"SoundDuration":107081,"Delta":270067756},{"NoteNumber":97,"Velocity":29,"Duration":107081,"SoundDuration":107081,"Delta":270067756},{"NoteNumber":101,"Velocity":29,"Duration":107081,"SoundDuration":107081,"Delta":270067756},{"NoteNumber":91,"Velocity":54,"Duration":103748,"SoundDuration":103748,"Delta":270174838},{"NoteNumber":89,"Velocity":33,"Duration":103748,"SoundDuration":103748,"Delta":270174838},{"NoteNumber":85,"Velocity":33,"Duration":103748,"SoundDuration":103748,"Delta":270174838},{"NoteNumber":101,"Velocity":28,"Duration":102683,"SoundDuration":102683,"Delta":270278587},{"NoteNumber":97,"Velocity":28,"Duration":102683,"SoundDuration":102683,"Delta":270278587},{"NoteNumber":92,"Velocity":24,"Duration":102683,"SoundDuration":102683,"Delta":270278587},{"NoteNumber":93,"Velocity":39,"Duration":102683,"SoundDuration":102683,"Delta":270381270},{"NoteNumber":91,"Velocity":33,"Duration":102683,"SoundDuration":102683,"Delta":270381270},{"NoteNumber":94,"Velocity":24,"Duration":107851,"SoundDuration":107851,"Delta":270483954},{"NoteNumber":97,"Velocity":28,"Duration":107851,"SoundDuration":107851,"Delta":270483954},{"NoteNumber":101,"Velocity":28,"Duration":107851,"SoundDuration":107851,"Delta":270483954},{"NoteNumber":91,"Velocity":54,"Duration":105947,"SoundDuration":105947,"Delta":270591805},{"NoteNumber":89,"Velocity":33,"Duration":105947,"SoundDuration":105947,"Delta":270591805},{"NoteNumber":85,"Velocity":33,"Duration":105947,"SoundDuration":105947,"Delta":270591805},{"NoteNumber":101,"Velocity":29,"Duration":102683,"SoundDuration":102683,"Delta":270697753},{"NoteNumber":97,"Velocity":29,"Duration":102683,"SoundDuration":102683,"Delta":270697753},{"NoteNumber":92,"Velocity":25,"Duration":102683,"SoundDuration":102683,"Delta":270697753},{"NoteNumber":93,"Velocity":39,"Duration":102683,"SoundDuration":102683,"Delta":270800436},{"NoteNumber":91,"Velocity":33,"Duration":102683,"SoundDuration":102683,"Delta":270800436},{"NoteNumber":94,"Velocity":25,"Duration":107081,"SoundDuration":107081,"Delta":270903120},{"NoteNumber":97,"Velocity":29,"Duration":107081,"SoundDuration":107081,"Delta":270903120},{"NoteNumber":101,"Velocity":29,"Duration":107081,"SoundDuration":107081,"Delta":270903120},{"NoteNumber":91,"Velocity":54,"Duration":107851,"SoundDuration":107851,"Delta":271010201},{"NoteNumber":89,"Velocity":33,"Duration":107851,"SoundDuration":107851,"Delta":271010201},{"NoteNumber":85,"Velocity":33,"Duration":107851,"SoundDuration":107851,"Delta":271010201},{"NoteNumber":101,"Velocity":30,"Duration":105204,"SoundDuration":105204,"Delta":271118053},{"NoteNumber":97,"Velocity":30,"Duration":105204,"SoundDuration":105204,"Delta":271118053},{"NoteNumber":92,"Velocity":25,"Duration":105204,"SoundDuration":105204,"Delta":271118053},{"NoteNumber":93,"Velocity":39,"Duration":105203,"SoundDuration":105203,"Delta":271223257},{"NoteNumber":91,"Velocity":33,"Duration":105203,"SoundDuration":105203,"Delta":271223257},{"NoteNumber":94,"Velocity":25,"Duration":108632,"SoundDuration":108632,"Delta":271328461},{"NoteNumber":97,"Velocity":30,"Duration":108632,"SoundDuration":108632,"Delta":271328461},{"NoteNumber":101,"Velocity":30,"Duration":108632,"SoundDuration":108632,"Delta":271328461},{"NoteNumber":91,"Velocity":54,"Duration":109027,"SoundDuration":109027,"Delta":271437094},{"NoteNumber":89,"Velocity":33,"Duration":109027,"SoundDuration":109027,"Delta":271437094},{"NoteNumber":85,"Velocity":33,"Duration":109027,"SoundDuration":109027,"Delta":271437094},{"NoteNumber":101,"Velocity":29,"Duration":107081,"SoundDuration":107081,"Delta":271546121},{"NoteNumber":97,"Velocity":29,"Duration":107081,"SoundDuration":107081,"Delta":271546121},{"NoteNumber":92,"Velocity":25,"Duration":107081,"SoundDuration":107081,"Delta":271546121},{"NoteNumber":93,"Velocity":39,"Duration":107081,"SoundDuration":107081,"Delta":271653203},{"NoteNumber":91,"Velocity":33,"Duration":107081,"SoundDuration":107081,"Delta":271653203},{"NoteNumber":94,"Velocity":25,"Duration":140739,"SoundDuration":140739,"Delta":271760285},{"NoteNumber":97,"Velocity":30,"Duration":140739,"SoundDuration":140739,"Delta":271760285},{"NoteNumber":101,"Velocity":30,"Duration":140739,"SoundDuration":140739,"Delta":271760285},{"NoteNumber":104,"Velocity":67,"Duration":112292,"SoundDuration":112292,"Delta":271901024},{"NoteNumber":87,"Velocity":39,"Duration":82589,"SoundDuration":82589,"Delta":272350193},{"NoteNumber":61,"Velocity":39,"Duration":165180,"SoundDuration":165180,"Delta":272350193},{"NoteNumber":80,"Velocity":34,"Duration":82590,"SoundDuration":82590,"Delta":272432783},{"NoteNumber":75,"Velocity":34,"Duration":82589,"SoundDuration":82589,"Delta":272515373},{"NoteNumber":68,"Velocity":36,"Duration":165179,"SoundDuration":165179,"Delta":272515373},{"NoteNumber":85,"Velocity":39,"Duration":82589,"SoundDuration":82589,"Delta":272597963},{"NoteNumber":80,"Velocity":35,"Duration":117537,"SoundDuration":117537,"Delta":272680553},{"NoteNumber":76,"Velocity":36,"Duration":270023,"SoundDuration":270023,"Delta":272680553},{"NoteNumber":73,"Velocity":35,"Duration":152485,"SoundDuration":152485,"Delta":272798091},{"NoteNumber":80,"Velocity":39,"Duration":124398,"SoundDuration":124398,"Delta":272950576},{"NoteNumber":77,"Velocity":33,"Duration":124398,"SoundDuration":124398,"Delta":272950576},{"NoteNumber":92,"Velocity":49,"Duration":124398,"SoundDuration":124398,"Delta":272950576},{"NoteNumber":89,"Velocity":41,"Duration":124398,"SoundDuration":124398,"Delta":272950576}]}