{"title":"Abegg Variations, Op. 1 in F major","artist":"Schumann","durationMs":370117,"midiSha256":"ee19ff15878ef356642f00e41244e6b324b5299eaf5e6a6eab43463753a545be","midiObject":[{"NoteNumber":81,"Velocity":56,"Duration":517241,"SoundDuration":517241,"Delta":0},{"NoteNumber":69,"Velocity":45,"Duration":517241,"SoundDuration":517241,"Delta":0},{"NoteNumber":70,"Velocity":48,"Duration":436377,"SoundDuration":436377,"Delta":517241},{"NoteNumber":82,"Velocity":59,"Duration":436377,"SoundDuration":436377,"Delta":517241},{"NoteNumber":48,"Velocity":45,"Duration":233606,"SoundDuration":233606,"Delta":517241},{"NoteNumber":64,"Velocity":35,"Duration":180952,"SoundDuration":180952,"Delta":763142},{"NoteNumber":60,"Velocity":29,"Duration":180952,"SoundDuration":180952,"Delta":763142},{"NoteNumber":58,"Velocity":29,"Duration":180952,"SoundDuration":180952,"Delta":763142},{"NoteNumber":76,"Velocity":51,"Duration":389610,"SoundDuration":389610,"Delta":953618},{"NoteNumber":88,"Velocity":63,"Duration":389610,"SoundDuration":389610,"Delta":953618},{"NoteNumber":58,"Velocity":30,"Duration":185064,"SoundDuration":185064,"Delta":953618},{"NoteNumber":60,"Velocity":30,"Duration":185064,"SoundDuration":185064,"Delta":953618},{"NoteNumber":64,"Velocity":36,"Duration":185064,"SoundDuration":185064,"Delta":953618},{"NoteNumber":58,"Velocity":30,"Duration":185064,"SoundDuration":185064,"Delta":1148423},{"NoteNumber":60,"Velocity":30,"Duration":185064,"SoundDuration":185064,"Delta":1148423},{"NoteNumber":64,"Velocity":36,"Duration":185064,"SoundDuration":185064,"Delta":1148423},{"NoteNumber":79,"Velocity":54,"Duration":415348,"SoundDuration":415348,"Delta":1343228},{"NoteNumber":91,"Velocity":67,"Duration":415348,"SoundDuration":415348,"Delta":1343228},{"NoteNumber":58,"Velocity":32,"Duration":193877,"SoundDuration":193877,"Delta":1343228},{"NoteNumber":60,"Velocity":32,"Duration":193877,"SoundDuration":193877,"Delta":1343228},{"NoteNumber":64,"Velocity":38,"Duration":193877,"SoundDuration":193877,"Delta":1343228},{"NoteNumber":58,"Velocity":33,"Duration":200704,"SoundDuration":200704,"Delta":1547310},{"NoteNumber":60,"Velocity":33,"Duration":200704,"SoundDuration":200704,"Delta":1547310},{"NoteNumber":64,"Velocity":39,"Duration":200704,"SoundDuration":200704,"Delta":1547310},{"NoteNumber":91,"Velocity":69,"Duration":816678,"SoundDuration":816678,"Delta":1758577},{"NoteNumber":79,"Velocity":56,"Duration":816678,"SoundDuration":816678,"Delta":1758577},{"NoteNumber":48,"Velocity":50,"Duration":206941,"SoundDuration":206941,"Delta":1758577},{"NoteNumber":64,"Velocity":35,"Duration":185064,"SoundDuration":185064,"Delta":1976411},{"NoteNumber":60,"Velocity":29,"Duration":185064,"SoundDuration":185064,"Delta":1976411},{"NoteNumber":58,"Velocity":29,"Duration":185064,"SoundDuration":185064,"Delta":1976411},{"NoteNumber":64,"Velocity":36,"Duration":191918,"SoundDuration":191918,"Delta":2171216},{"NoteNumber":60,"Velocity":30,"Duration":191918,"SoundDuration":191918,"Delta":2171216},{"NoteNumber":58,"Velocity":30,"Duration":191918,"SoundDuration":191918,"Delta":2171216},{"NoteNumber":64,"Velocity":37,"Duration":191918,"SoundDuration":191918,"Delta":2373236},{"NoteNumber":60,"Velocity":31,"Duration":191918,"SoundDuration":191918,"Delta":2373236},{"NoteNumber":58,"Velocity":31,"Duration":191918,"SoundDuration":191918,"Delta":2373236},{"NoteNumber":68,"Velocity":51,"Duration":430245,"SoundDuration":430245,"Delta":2575256},{"NoteNumber":80,"Velocity":63,"Duration":430245,"SoundDuration":430245,"Delta":2575256},{"NoteNumber":64,"Velocity":38,"Duration":200704,"SoundDuration":200704,"Delta":2575256},{"NoteNumber":60,"Velocity":32,"Duration":200704,"SoundDuration":200704,"Delta":2575256},{"NoteNumber":58,"Velocity":32,"Duration":200704,"SoundDuration":200704,"Delta":2575256},{"NoteNumber":64,"Velocity":39,"Duration":208029,"SoundDuration":208029,"Delta":2786523},{"NoteNumber":60,"Velocity":33,"Duration":208029,"SoundDuration":208029,"Delta":2786523},{"NoteNumber":58,"Velocity":33,"Duration":208029,"SoundDuration":208029,"Delta":2786523},{"NoteNumber":81,"Velocity":69,"Duration":416039,"SoundDuration":416039,"Delta":3005501},{"NoteNumber":69,"Velocity":56,"Duration":416039,"SoundDuration":416039,"Delta":3005501},{"NoteNumber":53,"Velocity":50,"Duration":214285,"SoundDuration":214285,"Delta":3005501},{"NoteNumber":65,"Velocity":35,"Duration":180952,"SoundDuration":180952,"Delta":3231065},{"NoteNumber":60,"Velocity":29,"Duration":180952,"SoundDuration":180952,"Delta":3231065},{"NoteNumber":57,"Velocity":29,"Duration":180952,"SoundDuration":180952,"Delta":3231065},{"NoteNumber":72,"Velocity":51,"Duration":387096,"SoundDuration":387096,"Delta":3421541},{"NoteNumber":84,"Velocity":63,"Duration":387096,"SoundDuration":387096,"Delta":3421541},{"NoteNumber":57,"Velocity":30,"Duration":183871,"SoundDuration":183871,"Delta":3421541},{"NoteNumber":60,"Velocity":30,"Duration":183871,"SoundDuration":183871,"Delta":3421541},{"NoteNumber":65,"Velocity":36,"Duration":183871,"SoundDuration":183871,"Delta":3421541},{"NoteNumber":57,"Velocity":31,"Duration":183871,"SoundDuration":183871,"Delta":3615090},{"NoteNumber":60,"Velocity":31,"Duration":183871,"SoundDuration":183871,"Delta":3615090},{"NoteNumber":65,"Velocity":37,"Duration":183871,"SoundDuration":183871,"Delta":3615090},{"NoteNumber":89,"Velocity":68,"Duration":417309,"SoundDuration":417309,"Delta":3808638},{"NoteNumber":77,"Velocity":55,"Duration":417309,"SoundDuration":417309,"Delta":3808638},{"NoteNumber":57,"Velocity":32,"Duration":191275,"SoundDuration":191275,"Delta":3808638},{"NoteNumber":60,"Velocity":32,"Duration":191275,"SoundDuration":191275,"Delta":3808638},{"NoteNumber":65,"Velocity":38,"Duration":191275,"SoundDuration":191275,"Delta":3808638},{"NoteNumber":57,"Velocity":33,"Duration":205168,"SoundDuration":205168,"Delta":4009981},{"NoteNumber":60,"Velocity":33,"Duration":205168,"SoundDuration":205168,"Delta":4009981},{"NoteNumber":65,"Velocity":39,"Duration":205168,"SoundDuration":205168,"Delta":4009981},{"NoteNumber":77,"Velocity":55,"Duration":806895,"SoundDuration":806895,"Delta":4225948},{"NoteNumber":89,"Velocity":68,"Duration":806895,"SoundDuration":806895,"Delta":4225948},{"NoteNumber":45,"Velocity":50,"Duration":197573,"SoundDuration":197573,"Delta":4225948},{"NoteNumber":65,"Velocity":41,"Duration":184466,"SoundDuration":184466,"Delta":4433920},{"NoteNumber":60,"Velocity":34,"Duration":184466,"SoundDuration":184466,"Delta":4433920},{"NoteNumber":57,"Velocity":34,"Duration":184466,"SoundDuration":184466,"Delta":4433920},{"NoteNumber":65,"Velocity":41,"Duration":191919,"SoundDuration":191919,"Delta":4628095},{"NoteNumber":60,"Velocity":34,"Duration":191919,"SoundDuration":191919,"Delta":4628095},{"NoteNumber":57,"Velocity":34,"Duration":191919,"SoundDuration":191919,"Delta":4628095},{"NoteNumber":65,"Velocity":42,"Duration":192414,"SoundDuration":192414,"Delta":4830115},{"NoteNumber":60,"Velocity":35,"Duration":192414,"SoundDuration":192414,"Delta":4830115},{"NoteNumber":57,"Velocity":35,"Duration":192414,"SoundDuration":192414,"Delta":4830115},{"NoteNumber":78,"Velocity":56,"Duration":430245,"SoundDuration":430245,"Delta":5032843},{"NoteNumber":66,"Velocity":45,"Duration":430245,"SoundDuration":430245,"Delta":5032843},{"NoteNumber":57,"Velocity":35,"Duration":200704,"SoundDuration":200704,"Delta":5032843},{"NoteNumber":60,"Velocity":35,"Duration":200704,"SoundDuration":200704,"Delta":5032843},{"NoteNumber":63,"Velocity":42,"Duration":200704,"SoundDuration":200704,"Delta":5032843},{"NoteNumber":57,"Velocity":35,"Duration":208029,"SoundDuration":208029,"Delta":5244111},{"NoteNumber":60,"Velocity":35,"Duration":208029,"SoundDuration":208029,"Delta":5244111},{"NoteNumber":63,"Velocity":42,"Duration":208029,"SoundDuration":208029,"Delta":5244111},{"NoteNumber":67,"Velocity":48,"Duration":411730,"SoundDuration":411730,"Delta":5463089},{"NoteNumber":79,"Velocity":59,"Duration":411730,"SoundDuration":411730,"Delta":5463089},{"NoteNumber":46,"Velocity":45,"Duration":207272,"SoundDuration":207272,"Delta":5463089},{"NoteNumber":62,"Velocity":35,"Duration":183871,"SoundDuration":183871,"Delta":5681271},{"NoteNumber":58,"Velocity":29,"Duration":183871,"SoundDuration":183871,"Delta":5681271},{"NoteNumber":55,"Velocity":29,"Duration":183871,"SoundDuration":183871,"Delta":5681271},{"NoteNumber":70,"Velocity":51,"Duration":392157,"SoundDuration":392157,"Delta":5874819},{"NoteNumber":82,"Velocity":63,"Duration":392157,"SoundDuration":392157,"Delta":5874819},{"NoteNumber":55,"Velocity":30,"Duration":186274,"SoundDuration":186274,"Delta":5874819},{"NoteNumber":58,"Velocity":30,"Duration":186274,"SoundDuration":186274,"Delta":5874819},{"NoteNumber":62,"Velocity":36,"Duration":186274,"SoundDuration":186274,"Delta":5874819},{"NoteNumber":55,"Velocity":30,"Duration":186274,"SoundDuration":186274,"Delta":6070898},{"NoteNumber":58,"Velocity":30,"Duration":186274,"SoundDuration":186274,"Delta":6070898},{"NoteNumber":62,"Velocity":36,"Duration":186274,"SoundDuration":186274,"Delta":6070898},{"NoteNumber":74,"Velocity":54,"Duration":419374,"SoundDuration":419374,"Delta":6266976},{"NoteNumber":86,"Velocity":67,"Duration":419374,"SoundDuration":419374,"Delta":6266976},{"NoteNumber":55,"Velocity":32,"Duration":199203,"SoundDuration":199203,"Delta":6266976},{"NoteNumber":58,"Velocity":32,"Duration":199203,"SoundDuration":199203,"Delta":6266976},{"NoteNumber":62,"Velocity":38,"Duration":199203,"SoundDuration":199203,"Delta":6266976},{"NoteNumber":55,"Velocity":33,"Duration":199203,"SoundDuration":199203,"Delta":6476664},{"NoteNumber":58,"Velocity":33,"Duration":199203,"SoundDuration":199203,"Delta":6476664},{"NoteNumber":62,"Velocity":39,"Duration":199203,"SoundDuration":199203,"Delta":6476664},{"NoteNumber":86,"Velocity":69,"Duration":815323,"SoundDuration":815323,"Delta":6686351},{"NoteNumber":74,"Velocity":56,"Duration":815323,"SoundDuration":815323,"Delta":6686351},{"NoteNumber":48,"Velocity":50,"Duration":206941,"SoundDuration":206941,"Delta":6686351},{"NoteNumber":60,"Velocity":35,"Duration":185064,"SoundDuration":185064,"Delta":6904185},{"NoteNumber":58,"Velocity":29,"Duration":185064,"SoundDuration":185064,"Delta":6904185},{"NoteNumber":55,"Velocity":29,"Duration":185064,"SoundDuration":185064,"Delta":6904185},{"NoteNumber":60,"Velocity":36,"Duration":191275,"SoundDuration":191275,"Delta":7098990},{"NoteNumber":58,"Velocity":30,"Duration":191275,"SoundDuration":191275,"Delta":7098990},{"NoteNumber":55,"Velocity":30,"Duration":191275,"SoundDuration":191275,"Delta":7098990},{"NoteNumber":60,"Velocity":37,"Duration":191275,"SoundDuration":191275,"Delta":7300332},{"NoteNumber":58,"Velocity":31,"Duration":191275,"SoundDuration":191275,"Delta":7300332},{"NoteNumber":55,"Velocity":31,"Duration":191275,"SoundDuration":191275,"Delta":7300332},{"NoteNumber":64,"Velocity":51,"Duration":428665,"SoundDuration":428665,"Delta":7501675},{"NoteNumber":76,"Velocity":63,"Duration":428665,"SoundDuration":428665,"Delta":7501675},{"NoteNumber":60,"Velocity":38,"Duration":199203,"SoundDuration":199203,"Delta":7501675},{"NoteNumber":58,"Velocity":32,"Duration":199203,"SoundDuration":199203,"Delta":7501675},{"NoteNumber":55,"Velocity":32,"Duration":199203,"SoundDuration":199203,"Delta":7501675},{"NoteNumber":60,"Velocity":39,"Duration":208029,"SoundDuration":208029,"Delta":7711362},{"NoteNumber":58,"Velocity":33,"Duration":208029,"SoundDuration":208029,"Delta":7711362},{"NoteNumber":55,"Velocity":33,"Duration":208029,"SoundDuration":208029,"Delta":7711362},{"NoteNumber":77,"Velocity":69,"Duration":418893,"SoundDuration":418893,"Delta":7930340},{"NoteNumber":65,"Velocity":56,"Duration":418893,"SoundDuration":418893,"Delta":7930340},{"NoteNumber":53,"Velocity":50,"Duration":213483,"SoundDuration":213483,"Delta":7930340},{"NoteNumber":57,"Velocity":33,"Duration":184466,"SoundDuration":184466,"Delta":8155059},{"NoteNumber":53,"Velocity":28,"Duration":184466,"SoundDuration":184466,"Delta":8155059},{"NoteNumber":69,"Velocity":47,"Duration":394736,"SoundDuration":394736,"Delta":8349234},{"NoteNumber":81,"Velocity":58,"Duration":394736,"SoundDuration":394736,"Delta":8349234},{"NoteNumber":53,"Velocity":28,"Duration":187500,"SoundDuration":187500,"Delta":8349234},{"NoteNumber":57,"Velocity":33,"Duration":187500,"SoundDuration":187500,"Delta":8349234},{"NoteNumber":53,"Velocity":28,"Duration":187500,"SoundDuration":187500,"Delta":8546603},{"NoteNumber":57,"Velocity":33,"Duration":187500,"SoundDuration":187500,"Delta":8546603},{"NoteNumber":84,"Velocity":58,"Duration":430194,"SoundDuration":430194,"Delta":8743971},{"NoteNumber":72,"Velocity":47,"Duration":430194,"SoundDuration":430194,"Delta":8743971},{"NoteNumber":53,"Velocity":28,"Duration":197573,"SoundDuration":197573,"Delta":8743971},{"NoteNumber":57,"Velocity":33,"Duration":197573,"SoundDuration":197573,"Delta":8743971},{"NoteNumber":53,"Velocity":27,"Duration":211110,"SoundDuration":211110,"Delta":8951944},{"NoteNumber":57,"Velocity":32,"Duration":211110,"SoundDuration":211110,"Delta":8951944},{"NoteNumber":72,"Velocity":44,"Duration":826293,"SoundDuration":826293,"Delta":9174166},{"NoteNumber":84,"Velocity":54,"Duration":826293,"SoundDuration":826293,"Delta":9174166},{"NoteNumber":53,"Velocity":40,"Duration":197573,"SoundDuration":197573,"Delta":9174166},{"NoteNumber":65,"Velocity":32,"Duration":193220,"SoundDuration":193220,"Delta":9382138},{"NoteNumber":60,"Velocity":27,"Duration":193220,"SoundDuration":193220,"Delta":9382138},{"NoteNumber":57,"Velocity":27,"Duration":193220,"SoundDuration":193220,"Delta":9382138},{"NoteNumber":65,"Velocity":32,"Duration":196551,"SoundDuration":196551,"Delta":9585528},{"NoteNumber":60,"Velocity":27,"Duration":196551,"SoundDuration":196551,"Delta":9585528},{"NoteNumber":57,"Velocity":27,"Duration":196551,"SoundDuration":196551,"Delta":9585528},{"NoteNumber":65,"Velocity":33,"Duration":197461,"SoundDuration":197461,"Delta":9792425},{"NoteNumber":60,"Velocity":28,"Duration":197461,"SoundDuration":197461,"Delta":9792425},{"NoteNumber":57,"Velocity":28,"Duration":197461,"SoundDuration":197461,"Delta":9792425},{"NoteNumber":69,"Velocity":38,"Duration":499669,"SoundDuration":499669,"Delta":9947597},{"NoteNumber":81,"Velocity":45,"Duration":510638,"SoundDuration":510638,"Delta":10000459},{"NoteNumber":57,"Velocity":28,"Duration":242553,"SoundDuration":242553,"Delta":10000459},{"NoteNumber":60,"Velocity":28,"Duration":242553,"SoundDuration":242553,"Delta":10000459},{"NoteNumber":65,"Velocity":33,"Duration":242553,"SoundDuration":242553,"Delta":10000459},{"NoteNumber":57,"Velocity":28,"Duration":242553,"SoundDuration":242553,"Delta":10255778},{"NoteNumber":60,"Velocity":28,"Duration":242553,"SoundDuration":242553,"Delta":10255778},{"NoteNumber":65,"Velocity":33,"Duration":242553,"SoundDuration":242553,"Delta":10255778},{"NoteNumber":70,"Velocity":40,"Duration":461588,"SoundDuration":461588,"Delta":10447267},{"NoteNumber":82,"Velocity":48,"Duration":450022,"SoundDuration":450022,"Delta":10511097},{"NoteNumber":60,"Velocity":38,"Duration":228915,"SoundDuration":228915,"Delta":10511097},{"NoteNumber":48,"Velocity":29,"Duration":228915,"SoundDuration":228915,"Delta":10511097},{"NoteNumber":64,"Velocity":29,"Duration":198606,"SoundDuration":198606,"Delta":10752061},{"NoteNumber":58,"Velocity":24,"Duration":198606,"SoundDuration":198606,"Delta":10752061},{"NoteNumber":76,"Velocity":43,"Duration":393173,"SoundDuration":393173,"Delta":10908855},{"NoteNumber":88,"Velocity":51,"Duration":389609,"SoundDuration":389609,"Delta":10961120},{"NoteNumber":58,"Velocity":25,"Duration":185064,"SoundDuration":185064,"Delta":10961120},{"NoteNumber":64,"Velocity":30,"Duration":185064,"SoundDuration":185064,"Delta":10961120},{"NoteNumber":58,"Velocity":25,"Duration":185064,"SoundDuration":185064,"Delta":11155925},{"NoteNumber":64,"Velocity":30,"Duration":185064,"SoundDuration":185064,"Delta":11155925},{"NoteNumber":79,"Velocity":45,"Duration":417468,"SoundDuration":417468,"Delta":11302029},{"NoteNumber":91,"Velocity":54,"Duration":422723,"SoundDuration":422723,"Delta":11350730},{"NoteNumber":58,"Velocity":27,"Duration":196551,"SoundDuration":196551,"Delta":11350730},{"NoteNumber":64,"Velocity":32,"Duration":196551,"SoundDuration":196551,"Delta":11350730},{"NoteNumber":58,"Velocity":28,"Duration":205036,"SoundDuration":205036,"Delta":11557626},{"NoteNumber":64,"Velocity":33,"Duration":205036,"SoundDuration":205036,"Delta":11557626},{"NoteNumber":79,"Velocity":47,"Duration":883307,"SoundDuration":883307,"Delta":11719497},{"NoteNumber":91,"Velocity":56,"Duration":829350,"SoundDuration":829350,"Delta":11773454},{"NoteNumber":60,"Velocity":42,"Duration":211110,"SoundDuration":211110,"Delta":11773454},{"NoteNumber":48,"Velocity":32,"Duration":211110,"SoundDuration":211110,"Delta":11773454},{"NoteNumber":64,"Velocity":29,"Duration":189017,"SoundDuration":189017,"Delta":11995676},{"NoteNumber":58,"Velocity":24,"Duration":189017,"SoundDuration":189017,"Delta":11995676},{"NoteNumber":64,"Velocity":30,"Duration":193877,"SoundDuration":193877,"Delta":12194641},{"NoteNumber":58,"Velocity":25,"Duration":193877,"SoundDuration":193877,"Delta":12194641},{"NoteNumber":64,"Velocity":31,"Duration":193877,"SoundDuration":193877,"Delta":12398723},{"NoteNumber":58,"Velocity":26,"Duration":193877,"SoundDuration":193877,"Delta":12398723},{"NoteNumber":68,"Velocity":43,"Duration":432501,"SoundDuration":432501,"Delta":12602804},{"NoteNumber":80,"Velocity":51,"Duration":432501,"SoundDuration":432501,"Delta":12602804},{"NoteNumber":64,"Velocity":32,"Duration":202846,"SoundDuration":202846,"Delta":12602804},{"NoteNumber":58,"Velocity":27,"Duration":202846,"SoundDuration":202846,"Delta":12602804},{"NoteNumber":64,"Velocity":33,"Duration":208029,"SoundDuration":208029,"Delta":12816327},{"NoteNumber":58,"Velocity":28,"Duration":208029,"SoundDuration":208029,"Delta":12816327},{"NoteNumber":81,"Velocity":53,"Duration":416412,"SoundDuration":416412,"Delta":13035305},{"NoteNumber":69,"Velocity":44,"Duration":416412,"SoundDuration":416412,"Delta":13035305},{"NoteNumber":65,"Velocity":37,"Duration":213483,"SoundDuration":213483,"Delta":13035305},{"NoteNumber":53,"Velocity":30,"Duration":213483,"SoundDuration":213483,"Delta":13035305},{"NoteNumber":60,"Velocity":29,"Duration":182108,"SoundDuration":182108,"Delta":13260024},{"NoteNumber":57,"Velocity":24,"Duration":182108,"SoundDuration":182108,"Delta":13260024},{"NoteNumber":72,"Velocity":43,"Duration":398671,"SoundDuration":398671,"Delta":13451718},{"NoteNumber":84,"Velocity":51,"Duration":398671,"SoundDuration":398671,"Delta":13451718},{"NoteNumber":57,"Velocity":25,"Duration":189368,"SoundDuration":189368,"Delta":13451718},{"NoteNumber":60,"Velocity":30,"Duration":189368,"SoundDuration":189368,"Delta":13451718},{"NoteNumber":57,"Velocity":26,"Duration":189368,"SoundDuration":189368,"Delta":13651053},{"NoteNumber":60,"Velocity":31,"Duration":189368,"SoundDuration":189368,"Delta":13651053},{"NoteNumber":89,"Velocity":55,"Duration":431794,"SoundDuration":431794,"Delta":13850389},{"NoteNumber":77,"Velocity":46,"Duration":431794,"SoundDuration":431794,"Delta":13850389},{"NoteNumber":57,"Velocity":27,"Duration":201413,"SoundDuration":201413,"Delta":13850389},{"NoteNumber":60,"Velocity":32,"Duration":201413,"SoundDuration":201413,"Delta":13850389},{"NoteNumber":57,"Velocity":28,"Duration":208790,"SoundDuration":208790,"Delta":14062403},{"NoteNumber":60,"Velocity":33,"Duration":208790,"SoundDuration":208790,"Delta":14062403},{"NoteNumber":77,"Velocity":46,"Duration":812937,"SoundDuration":812937,"Delta":14282183},{"NoteNumber":89,"Velocity":55,"Duration":812937,"SoundDuration":812937,"Delta":14282183},{"NoteNumber":57,"Velocity":42,"Duration":197573,"SoundDuration":197573,"Delta":14282183},{"NoteNumber":45,"Velocity":35,"Duration":197573,"SoundDuration":197573,"Delta":14282183},{"NoteNumber":60,"Velocity":34,"Duration":189017,"SoundDuration":189017,"Delta":14490155},{"NoteNumber":53,"Velocity":28,"Duration":189017,"SoundDuration":189017,"Delta":14490155},{"NoteNumber":60,"Velocity":34,"Duration":192567,"SoundDuration":192567,"Delta":14689121},{"NoteNumber":53,"Velocity":28,"Duration":192567,"SoundDuration":192567,"Delta":14689121},{"NoteNumber":60,"Velocity":35,"Duration":192983,"SoundDuration":192983,"Delta":14891823},{"NoteNumber":53,"Velocity":29,"Duration":192983,"SoundDuration":192983,"Delta":14891823},{"NoteNumber":78,"Velocity":45,"Duration":440617,"SoundDuration":440617,"Delta":15095121},{"NoteNumber":66,"Velocity":38,"Duration":440617,"SoundDuration":440617,"Delta":15095121},{"NoteNumber":51,"Velocity":29,"Duration":204301,"SoundDuration":204301,"Delta":15095121},{"NoteNumber":60,"Velocity":35,"Duration":204301,"SoundDuration":204301,"Delta":15095121},{"NoteNumber":51,"Velocity":29,"Duration":214285,"SoundDuration":214285,"Delta":15310175},{"NoteNumber":60,"Velocity":35,"Duration":214285,"SoundDuration":214285,"Delta":15310175},{"NoteNumber":67,"Velocity":40,"Duration":412357,"SoundDuration":412357,"Delta":15535739},{"NoteNumber":79,"Velocity":48,"Duration":412357,"SoundDuration":412357,"Delta":15535739},{"NoteNumber":58,"Velocity":38,"Duration":207272,"SoundDuration":207272,"Delta":15535739},{"NoteNumber":46,"Velocity":32,"Duration":207272,"SoundDuration":207272,"Delta":15535739},{"NoteNumber":62,"Velocity":29,"Duration":184466,"SoundDuration":184466,"Delta":15753921},{"NoteNumber":55,"Velocity":24,"Duration":184466,"SoundDuration":184466,"Delta":15753921},{"NoteNumber":50,"Velocity":24,"Duration":184466,"SoundDuration":184466,"Delta":15753921},{"NoteNumber":70,"Velocity":43,"Duration":401337,"SoundDuration":401337,"Delta":15948096},{"NoteNumber":82,"Velocity":51,"Duration":401337,"SoundDuration":401337,"Delta":15948096},{"NoteNumber":50,"Velocity":25,"Duration":190635,"SoundDuration":190635,"Delta":15948096},{"NoteNumber":55,"Velocity":25,"Duration":190635,"SoundDuration":190635,"Delta":15948096},{"NoteNumber":62,"Velocity":30,"Duration":190635,"SoundDuration":190635,"Delta":15948096},{"NoteNumber":50,"Velocity":25,"Duration":190635,"SoundDuration":190635,"Delta":16148765},{"NoteNumber":55,"Velocity":25,"Duration":190635,"SoundDuration":190635,"Delta":16148765},{"NoteNumber":62,"Velocity":30,"Duration":190635,"SoundDuration":190635,"Delta":16148765},{"NoteNumber":74,"Velocity":45,"Duration":419374,"SoundDuration":419374,"Delta":16349434},{"NoteNumber":86,"Velocity":54,"Duration":419374,"SoundDuration":419374,"Delta":16349434},{"NoteNumber":50,"Velocity":27,"Duration":199203,"SoundDuration":199203,"Delta":16349434},{"NoteNumber":55,"Velocity":27,"Duration":199203,"SoundDuration":199203,"Delta":16349434},{"NoteNumber":62,"Velocity":32,"Duration":199203,"SoundDuration":199203,"Delta":16349434},{"NoteNumber":50,"Velocity":28,"Duration":199203,"SoundDuration":199203,"Delta":16559121},{"NoteNumber":55,"Velocity":28,"Duration":199203,"SoundDuration":199203,"Delta":16559121},{"NoteNumber":62,"Velocity":33,"Duration":199203,"SoundDuration":199203,"Delta":16559121},{"NoteNumber":86,"Velocity":56,"Duration":812008,"SoundDuration":812008,"Delta":16768809},{"NoteNumber":74,"Velocity":47,"Duration":812008,"SoundDuration":812008,"Delta":16768809},{"NoteNumber":60,"Velocity":42,"Duration":206941,"SoundDuration":206941,"Delta":16768809},{"NoteNumber":48,"Velocity":35,"Duration":206941,"SoundDuration":206941,"Delta":16768809},{"NoteNumber":64,"Velocity":29,"Duration":184466,"SoundDuration":184466,"Delta":16986642},{"NoteNumber":58,"Velocity":24,"Duration":184466,"SoundDuration":184466,"Delta":16986642},{"NoteNumber":55,"Velocity":24,"Duration":184466,"SoundDuration":184466,"Delta":16986642},{"NoteNumber":64,"Velocity":30,"Duration":190000,"SoundDuration":190000,"Delta":17180817},{"NoteNumber":58,"Velocity":25,"Duration":190000,"SoundDuration":190000,"Delta":17180817},{"NoteNumber":55,"Velocity":25,"Duration":190000,"SoundDuration":190000,"Delta":17180817},{"NoteNumber":64,"Velocity":31,"Duration":190000,"SoundDuration":190000,"Delta":17380817},{"NoteNumber":58,"Velocity":26,"Duration":190000,"SoundDuration":190000,"Delta":17380817},{"NoteNumber":55,"Velocity":26,"Duration":190000,"SoundDuration":190000,"Delta":17380817},{"NoteNumber":64,"Velocity":43,"Duration":425515,"SoundDuration":425515,"Delta":17580817},{"NoteNumber":76,"Velocity":51,"Duration":425515,"SoundDuration":425515,"Delta":17580817},{"NoteNumber":60,"Velocity":32,"Duration":199203,"SoundDuration":199203,"Delta":17580817},{"NoteNumber":58,"Velocity":27,"Duration":199203,"SoundDuration":199203,"Delta":17580817},{"NoteNumber":55,"Velocity":27,"Duration":199203,"SoundDuration":199203,"Delta":17580817},{"NoteNumber":60,"Velocity":33,"Duration":205036,"SoundDuration":205036,"Delta":17790505},{"NoteNumber":58,"Velocity":28,"Duration":205036,"SoundDuration":205036,"Delta":17790505},{"NoteNumber":55,"Velocity":28,"Duration":205036,"SoundDuration":205036,"Delta":17790505},{"NoteNumber":77,"Velocity":56,"Duration":416010,"SoundDuration":416010,"Delta":18006332},{"NoteNumber":65,"Velocity":47,"Duration":416010,"SoundDuration":416010,"Delta":18006332},{"NoteNumber":41,"Velocity":37,"Duration":206941,"SoundDuration":206941,"Delta":18006332},{"NoteNumber":53,"Velocity":42,"Duration":206941,"SoundDuration":206941,"Delta":18006332},{"NoteNumber":48,"Velocity":23,"Duration":188268,"SoundDuration":188268,"Delta":18224166},{"NoteNumber":60,"Velocity":28,"Duration":188268,"SoundDuration":188268,"Delta":18224166},{"NoteNumber":57,"Velocity":23,"Duration":188268,"SoundDuration":188268,"Delta":18224166},{"NoteNumber":69,"Velocity":39,"Duration":410958,"SoundDuration":410958,"Delta":18422343},{"NoteNumber":81,"Velocity":47,"Duration":410958,"SoundDuration":410958,"Delta":18422343},{"NoteNumber":48,"Velocity":23,"Duration":195205,"SoundDuration":195205,"Delta":18422343},{"NoteNumber":57,"Velocity":23,"Duration":195205,"SoundDuration":195205,"Delta":18422343},{"NoteNumber":60,"Velocity":28,"Duration":195205,"SoundDuration":195205,"Delta":18422343},{"NoteNumber":48,"Velocity":23,"Duration":195205,"SoundDuration":195205,"Delta":18627822},{"NoteNumber":57,"Velocity":23,"Duration":195205,"SoundDuration":195205,"Delta":18627822},{"NoteNumber":60,"Velocity":28,"Duration":195205,"SoundDuration":195205,"Delta":18627822},{"NoteNumber":84,"Velocity":47,"Duration":430194,"SoundDuration":430194,"Delta":18833302},{"NoteNumber":72,"Velocity":39,"Duration":430194,"SoundDuration":430194,"Delta":18833302},{"NoteNumber":48,"Velocity":23,"Duration":197573,"SoundDuration":197573,"Delta":18833302},{"NoteNumber":57,"Velocity":23,"Duration":197573,"SoundDuration":197573,"Delta":18833302},{"NoteNumber":60,"Velocity":28,"Duration":197573,"SoundDuration":197573,"Delta":18833302},{"NoteNumber":48,"Velocity":22,"Duration":211110,"SoundDuration":211110,"Delta":19041274},{"NoteNumber":57,"Velocity":22,"Duration":211110,"SoundDuration":211110,"Delta":19041274},{"NoteNumber":60,"Velocity":27,"Duration":211110,"SoundDuration":211110,"Delta":19041274},{"NoteNumber":72,"Velocity":37,"Duration":825051,"SoundDuration":825051,"Delta":19263496},{"NoteNumber":84,"Velocity":44,"Duration":825051,"SoundDuration":825051,"Delta":19263496},{"NoteNumber":41,"Velocity":26,"Duration":197573,"SoundDuration":197573,"Delta":19263496},{"NoteNumber":53,"Velocity":34,"Duration":197573,"SoundDuration":197573,"Delta":19263496},{"NoteNumber":65,"Velocity":27,"Duration":193220,"SoundDuration":193220,"Delta":19471469},{"NoteNumber":60,"Velocity":22,"Duration":193220,"SoundDuration":193220,"Delta":19471469},{"NoteNumber":57,"Velocity":22,"Duration":193220,"SoundDuration":193220,"Delta":19471469},{"NoteNumber":65,"Velocity":27,"Duration":196551,"SoundDuration":196551,"Delta":19674859},{"NoteNumber":60,"Velocity":22,"Duration":196551,"SoundDuration":196551,"Delta":19674859},{"NoteNumber":57,"Velocity":22,"Duration":196551,"SoundDuration":196551,"Delta":19674859},{"NoteNumber":65,"Velocity":28,"Duration":196478,"SoundDuration":196478,"Delta":19881755},{"NoteNumber":60,"Velocity":23,"Duration":196478,"SoundDuration":196478,"Delta":19881755},{"NoteNumber":57,"Velocity":23,"Duration":196478,"SoundDuration":196478,"Delta":19881755},{"NoteNumber":79,"Velocity":53,"Duration":431794,"SoundDuration":431794,"Delta":20088547},{"NoteNumber":91,"Velocity":66,"Duration":431794,"SoundDuration":431794,"Delta":20088547},{"NoteNumber":65,"Velocity":38,"Duration":201413,"SoundDuration":201413,"Delta":20088547},{"NoteNumber":59,"Velocity":32,"Duration":201413,"SoundDuration":201413,"Delta":20088547},{"NoteNumber":55,"Velocity":32,"Duration":201413,"SoundDuration":201413,"Delta":20088547},{"NoteNumber":65,"Velocity":39,"Duration":208791,"SoundDuration":208791,"Delta":20300561},{"NoteNumber":59,"Velocity":33,"Duration":208791,"SoundDuration":208791,"Delta":20300561},{"NoteNumber":55,"Velocity":33,"Duration":208791,"SoundDuration":208791,"Delta":20300561},{"NoteNumber":91,"Velocity":72,"Duration":418355,"SoundDuration":418355,"Delta":20520341},{"NoteNumber":79,"Velocity":58,"Duration":418355,"SoundDuration":418355,"Delta":20520341},{"NoteNumber":48,"Velocity":50,"Duration":215908,"SoundDuration":215908,"Delta":20520341},{"NoteNumber":64,"Velocity":38,"Duration":181528,"SoundDuration":181528,"Delta":20747614},{"NoteNumber":60,"Velocity":31,"Duration":181528,"SoundDuration":181528,"Delta":20747614},{"NoteNumber":55,"Velocity":31,"Duration":181528,"SoundDuration":181528,"Delta":20747614},{"NoteNumber":76,"Velocity":53,"Duration":393443,"SoundDuration":393443,"Delta":20938697},{"NoteNumber":88,"Velocity":66,"Duration":393443,"SoundDuration":393443,"Delta":20938697},{"NoteNumber":55,"Velocity":33,"Duration":186885,"SoundDuration":186885,"Delta":20938697},{"NoteNumber":60,"Velocity":33,"Duration":186885,"SoundDuration":186885,"Delta":20938697},{"NoteNumber":64,"Velocity":39,"Duration":186885,"SoundDuration":186885,"Delta":20938697},{"NoteNumber":55,"Velocity":34,"Duration":186885,"SoundDuration":186885,"Delta":21135418},{"NoteNumber":60,"Velocity":34,"Duration":186885,"SoundDuration":186885,"Delta":21135418},{"NoteNumber":64,"Velocity":40,"Duration":186885,"SoundDuration":186885,"Delta":21135418},{"NoteNumber":82,"Velocity":68,"Duration":423939,"SoundDuration":423939,"Delta":21332140},{"NoteNumber":70,"Velocity":55,"Duration":423939,"SoundDuration":423939,"Delta":21332140},{"NoteNumber":55,"Velocity":35,"Duration":197573,"SoundDuration":197573,"Delta":21332140},{"NoteNumber":60,"Velocity":35,"Duration":197573,"SoundDuration":197573,"Delta":21332140},{"NoteNumber":64,"Velocity":41,"Duration":197573,"SoundDuration":197573,"Delta":21332140},{"NoteNumber":55,"Velocity":36,"Duration":205168,"SoundDuration":205168,"Delta":21540112},{"NoteNumber":60,"Velocity":36,"Duration":205168,"SoundDuration":205168,"Delta":21540112},{"NoteNumber":64,"Velocity":42,"Duration":205168,"SoundDuration":205168,"Delta":21540112},{"NoteNumber":69,"Velocity":55,"Duration":803786,"SoundDuration":803786,"Delta":21756079},{"NoteNumber":81,"Velocity":69,"Duration":803786,"SoundDuration":803786,"Delta":21756079},{"NoteNumber":49,"Velocity":55,"Duration":197573,"SoundDuration":197573,"Delta":21756079},{"NoteNumber":67,"Velocity":45,"Duration":182692,"SoundDuration":182692,"Delta":21964052},{"NoteNumber":64,"Velocity":37,"Duration":182692,"SoundDuration":182692,"Delta":21964052},{"NoteNumber":57,"Velocity":37,"Duration":182692,"SoundDuration":182692,"Delta":21964052},{"NoteNumber":67,"Velocity":45,"Duration":191275,"SoundDuration":191275,"Delta":22156359},{"NoteNumber":64,"Velocity":37,"Duration":191275,"SoundDuration":191275,"Delta":22156359},{"NoteNumber":57,"Velocity":37,"Duration":191275,"SoundDuration":191275,"Delta":22156359},{"NoteNumber":67,"Velocity":46,"Duration":191850,"SoundDuration":191850,"Delta":22357702},{"NoteNumber":64,"Velocity":38,"Duration":191850,"SoundDuration":191850,"Delta":22357702},{"NoteNumber":57,"Velocity":38,"Duration":191850,"SoundDuration":191850,"Delta":22357702},{"NoteNumber":81,"Velocity":55,"Duration":430991,"SoundDuration":430991,"Delta":22559866},{"NoteNumber":93,"Velocity":69,"Duration":430991,"SoundDuration":430991,"Delta":22559866},{"NoteNumber":67,"Velocity":41,"Duration":201413,"SoundDuration":201413,"Delta":22559866},{"NoteNumber":64,"Velocity":35,"Duration":201413,"SoundDuration":201413,"Delta":22559866},{"NoteNumber":57,"Velocity":35,"Duration":201413,"SoundDuration":201413,"Delta":22559866},{"NoteNumber":67,"Velocity":42,"Duration":208029,"SoundDuration":208029,"Delta":22771880},{"NoteNumber":64,"Velocity":36,"Duration":208029,"SoundDuration":208029,"Delta":22771880},{"NoteNumber":57,"Velocity":36,"Duration":208029,"SoundDuration":208029,"Delta":22771880},{"NoteNumber":93,"Velocity":75,"Duration":398088,"SoundDuration":398088,"Delta":22990858},{"NoteNumber":81,"Velocity":60,"Duration":398088,"SoundDuration":398088,"Delta":22990858},{"NoteNumber":50,"Velocity":55,"Duration":197231,"SoundDuration":197231,"Delta":22990858},{"NoteNumber":65,"Velocity":41,"Duration":180952,"SoundDuration":180952,"Delta":23198470},{"NoteNumber":62,"Velocity":34,"Duration":180952,"SoundDuration":180952,"Delta":23198470},{"NoteNumber":57,"Velocity":34,"Duration":180952,"SoundDuration":180952,"Delta":23198470},{"NoteNumber":77,"Velocity":55,"Duration":394736,"SoundDuration":394736,"Delta":23388946},{"NoteNumber":89,"Velocity":69,"Duration":394736,"SoundDuration":394736,"Delta":23388946},{"NoteNumber":57,"Velocity":36,"Duration":187500,"SoundDuration":187500,"Delta":23388946},{"NoteNumber":62,"Velocity":36,"Duration":187500,"SoundDuration":187500,"Delta":23388946},{"NoteNumber":65,"Velocity":42,"Duration":187500,"SoundDuration":187500,"Delta":23388946},{"NoteNumber":57,"Velocity":37,"Duration":187500,"SoundDuration":187500,"Delta":23586315},{"NoteNumber":62,"Velocity":37,"Duration":187500,"SoundDuration":187500,"Delta":23586315},{"NoteNumber":65,"Velocity":44,"Duration":187500,"SoundDuration":187500,"Delta":23586315},{"NoteNumber":86,"Velocity":74,"Duration":423939,"SoundDuration":423939,"Delta":23783683},{"NoteNumber":74,"Velocity":59,"Duration":423939,"SoundDuration":423939,"Delta":23783683},{"NoteNumber":57,"Velocity":38,"Duration":197573,"SoundDuration":197573,"Delta":23783683},{"NoteNumber":62,"Velocity":38,"Duration":197573,"SoundDuration":197573,"Delta":23783683},{"NoteNumber":65,"Velocity":45,"Duration":197573,"SoundDuration":197573,"Delta":23783683},{"NoteNumber":57,"Velocity":39,"Duration":205168,"SoundDuration":205168,"Delta":23991656},{"NoteNumber":62,"Velocity":39,"Duration":205168,"SoundDuration":205168,"Delta":23991656},{"NoteNumber":65,"Velocity":46,"Duration":205168,"SoundDuration":205168,"Delta":23991656},{"NoteNumber":72,"Velocity":57,"Duration":802378,"SoundDuration":802378,"Delta":24207623},{"NoteNumber":84,"Velocity":72,"Duration":802378,"SoundDuration":802378,"Delta":24207623},{"NoteNumber":52,"Velocity":55,"Duration":193877,"SoundDuration":193877,"Delta":24207623},{"NoteNumber":67,"Velocity":49,"Duration":183871,"SoundDuration":183871,"Delta":24411704},{"NoteNumber":60,"Velocity":40,"Duration":183871,"SoundDuration":183871,"Delta":24411704},{"NoteNumber":58,"Velocity":40,"Duration":183871,"SoundDuration":183871,"Delta":24411704},{"NoteNumber":67,"Velocity":49,"Duration":191918,"SoundDuration":191918,"Delta":24605253},{"NoteNumber":60,"Velocity":40,"Duration":191918,"SoundDuration":191918,"Delta":24605253},{"NoteNumber":58,"Velocity":40,"Duration":191918,"SoundDuration":191918,"Delta":24605253},{"NoteNumber":67,"Velocity":51,"Duration":192414,"SoundDuration":192414,"Delta":24807273},{"NoteNumber":60,"Velocity":42,"Duration":192414,"SoundDuration":192414,"Delta":24807273},{"NoteNumber":58,"Velocity":42,"Duration":192414,"SoundDuration":192414,"Delta":24807273},{"NoteNumber":84,"Velocity":57,"Duration":435814,"SoundDuration":435814,"Delta":25010001},{"NoteNumber":96,"Velocity":72,"Duration":435814,"SoundDuration":435814,"Delta":25010001},{"NoteNumber":67,"Velocity":46,"Duration":211896,"SoundDuration":211896,"Delta":25010001},{"NoteNumber":60,"Velocity":39,"Duration":211896,"SoundDuration":211896,"Delta":25010001},{"NoteNumber":58,"Velocity":39,"Duration":211896,"SoundDuration":211896,"Delta":25010001},{"NoteNumber":67,"Velocity":49,"Duration":202127,"SoundDuration":202127,"Delta":25233050},{"NoteNumber":60,"Velocity":40,"Duration":202127,"SoundDuration":202127,"Delta":25233050},{"NoteNumber":58,"Velocity":40,"Duration":202127,"SoundDuration":202127,"Delta":25233050},{"NoteNumber":96,"Velocity":79,"Duration":411381,"SoundDuration":411381,"Delta":25445815},{"NoteNumber":84,"Velocity":64,"Duration":411381,"SoundDuration":411381,"Delta":25445815},{"NoteNumber":53,"Velocity":58,"Duration":206941,"SoundDuration":206941,"Delta":25445815},{"NoteNumber":65,"Velocity":44,"Duration":183871,"SoundDuration":183871,"Delta":25663649},{"NoteNumber":60,"Velocity":37,"Duration":183871,"SoundDuration":183871,"Delta":25663649},{"NoteNumber":57,"Velocity":37,"Duration":183871,"SoundDuration":183871,"Delta":25663649},{"NoteNumber":81,"Velocity":60,"Duration":399999,"SoundDuration":399999,"Delta":25857197},{"NoteNumber":93,"Velocity":75,"Duration":399999,"SoundDuration":399999,"Delta":25857197},{"NoteNumber":57,"Velocity":39,"Duration":190000,"SoundDuration":190000,"Delta":25857197},{"NoteNumber":60,"Velocity":39,"Duration":190000,"SoundDuration":190000,"Delta":25857197},{"NoteNumber":65,"Velocity":46,"Duration":190000,"SoundDuration":190000,"Delta":25857197},{"NoteNumber":57,"Velocity":40,"Duration":190000,"SoundDuration":190000,"Delta":26057197},{"NoteNumber":60,"Velocity":40,"Duration":190000,"SoundDuration":190000,"Delta":26057197},{"NoteNumber":65,"Velocity":49,"Duration":190000,"SoundDuration":190000,"Delta":26057197},{"NoteNumber":89,"Velocity":77,"Duration":423939,"SoundDuration":423939,"Delta":26257197},{"NoteNumber":77,"Velocity":63,"Duration":423939,"SoundDuration":423939,"Delta":26257197},{"NoteNumber":57,"Velocity":41,"Duration":197573,"SoundDuration":197573,"Delta":26257197},{"NoteNumber":60,"Velocity":41,"Duration":197573,"SoundDuration":197573,"Delta":26257197},{"NoteNumber":65,"Velocity":50,"Duration":197573,"SoundDuration":197573,"Delta":26257197},{"NoteNumber":57,"Velocity":44,"Duration":205168,"SoundDuration":205168,"Delta":26465170},{"NoteNumber":60,"Velocity":44,"Duration":205168,"SoundDuration":205168,"Delta":26465170},{"NoteNumber":65,"Velocity":52,"Duration":205168,"SoundDuration":205168,"Delta":26465170},{"NoteNumber":74,"Velocity":67,"Duration":819323,"SoundDuration":819323,"Delta":26681137},{"NoteNumber":86,"Velocity":83,"Duration":819323,"SoundDuration":819323,"Delta":26681137},{"NoteNumber":47,"Velocity":62,"Duration":197573,"SoundDuration":197573,"Delta":26681137},{"NoteNumber":65,"Velocity":51,"Duration":189017,"SoundDuration":189017,"Delta":26889109},{"NoteNumber":62,"Velocity":42,"Duration":189017,"SoundDuration":189017,"Delta":26889109},{"NoteNumber":55,"Velocity":42,"Duration":189017,"SoundDuration":189017,"Delta":26889109},{"NoteNumber":65,"Velocity":51,"Duration":195876,"SoundDuration":195876,"Delta":27088075},{"NoteNumber":62,"Velocity":42,"Duration":195876,"SoundDuration":195876,"Delta":27088075},{"NoteNumber":55,"Velocity":42,"Duration":195876,"SoundDuration":195876,"Delta":27088075},{"NoteNumber":65,"Velocity":52,"Duration":195886,"SoundDuration":195886,"Delta":27294260},{"NoteNumber":62,"Velocity":44,"Duration":195886,"SoundDuration":195886,"Delta":27294260},{"NoteNumber":55,"Velocity":44,"Duration":195886,"SoundDuration":195886,"Delta":27294260},{"NoteNumber":86,"Velocity":55,"Duration":467946,"SoundDuration":467946,"Delta":27500460},{"NoteNumber":98,"Velocity":68,"Duration":467946,"SoundDuration":467946,"Delta":27500460},{"NoteNumber":65,"Velocity":45,"Duration":232653,"SoundDuration":232653,"Delta":27500460},{"NoteNumber":62,"Velocity":38,"Duration":232653,"SoundDuration":232653,"Delta":27500460},{"NoteNumber":55,"Velocity":38,"Duration":232653,"SoundDuration":232653,"Delta":27500460},{"NoteNumber":65,"Velocity":39,"Duration":211896,"SoundDuration":211896,"Delta":27745358},{"NoteNumber":62,"Velocity":33,"Duration":211896,"SoundDuration":211896,"Delta":27745358},{"NoteNumber":55,"Velocity":33,"Duration":211896,"SoundDuration":211896,"Delta":27745358},{"NoteNumber":98,"Velocity":73,"Duration":430735,"SoundDuration":430735,"Delta":27968407},{"NoteNumber":86,"Velocity":59,"Duration":430735,"SoundDuration":430735,"Delta":27968407},{"NoteNumber":48,"Velocity":45,"Duration":220930,"SoundDuration":220930,"Delta":27968407},{"NoteNumber":62,"Velocity":35,"Duration":188268,"SoundDuration":188268,"Delta":28200965},{"NoteNumber":58,"Velocity":29,"Duration":188268,"SoundDuration":188268,"Delta":28200965},{"NoteNumber":82,"Velocity":52,"Duration":409555,"SoundDuration":409555,"Delta":28399142},{"NoteNumber":94,"Velocity":65,"Duration":409555,"SoundDuration":409555,"Delta":28399142},{"NoteNumber":58,"Velocity":29,"Duration":194539,"SoundDuration":194539,"Delta":28399142},{"NoteNumber":62,"Velocity":35,"Duration":194539,"SoundDuration":194539,"Delta":28399142},{"NoteNumber":58,"Velocity":30,"Duration":194539,"SoundDuration":194539,"Delta":28603920},{"NoteNumber":62,"Velocity":36,"Duration":194539,"SoundDuration":194539,"Delta":28603920},{"NoteNumber":91,"Velocity":69,"Duration":435148,"SoundDuration":435148,"Delta":28808698},{"NoteNumber":79,"Velocity":55,"Duration":435148,"SoundDuration":435148,"Delta":28808698},{"NoteNumber":58,"Velocity":30,"Duration":200704,"SoundDuration":200704,"Delta":28808698},{"NoteNumber":64,"Velocity":37,"Duration":200704,"SoundDuration":200704,"Delta":28808698},{"NoteNumber":58,"Velocity":31,"Duration":212686,"SoundDuration":212686,"Delta":29019965},{"NoteNumber":64,"Velocity":37,"Duration":212686,"SoundDuration":212686,"Delta":29019965},{"NoteNumber":77,"Velocity":52,"Duration":819323,"SoundDuration":819323,"Delta":29243846},{"NoteNumber":89,"Velocity":65,"Duration":819323,"SoundDuration":819323,"Delta":29243846},{"NoteNumber":41,"Velocity":47,"Duration":197573,"SoundDuration":197573,"Delta":29243846},{"NoteNumber":65,"Velocity":34,"Duration":189017,"SoundDuration":189017,"Delta":29451818},{"NoteNumber":60,"Velocity":28,"Duration":189017,"SoundDuration":189017,"Delta":29451818},{"NoteNumber":57,"Velocity":28,"Duration":189017,"SoundDuration":189017,"Delta":29451818},{"NoteNumber":65,"Velocity":34,"Duration":195876,"SoundDuration":195876,"Delta":29650784},{"NoteNumber":60,"Velocity":28,"Duration":195876,"SoundDuration":195876,"Delta":29650784},{"NoteNumber":57,"Velocity":28,"Duration":195876,"SoundDuration":195876,"Delta":29650784},{"NoteNumber":65,"Velocity":35,"Duration":195886,"SoundDuration":195886,"Delta":29856969},{"NoteNumber":60,"Velocity":29,"Duration":195886,"SoundDuration":195886,"Delta":29856969},{"NoteNumber":57,"Velocity":29,"Duration":195886,"SoundDuration":195886,"Delta":29856969},{"NoteNumber":79,"Velocity":44,"Duration":477066,"SoundDuration":477066,"Delta":30011608},{"NoteNumber":91,"Velocity":49,"Duration":491295,"SoundDuration":491295,"Delta":30063169},{"NoteNumber":65,"Velocity":27,"Duration":216730,"SoundDuration":216730,"Delta":30063169},{"NoteNumber":59,"Velocity":22,"Duration":216730,"SoundDuration":216730,"Delta":30063169},{"NoteNumber":55,"Velocity":22,"Duration":216730,"SoundDuration":216730,"Delta":30063169},{"NoteNumber":65,"Velocity":27,"Duration":250000,"SoundDuration":250000,"Delta":30291306},{"NoteNumber":59,"Velocity":23,"Duration":250000,"SoundDuration":250000,"Delta":30291306},{"NoteNumber":55,"Velocity":23,"Duration":250000,"SoundDuration":250000,"Delta":30291306},{"NoteNumber":79,"Velocity":43,"Duration":447302,"SoundDuration":447302,"Delta":30488674},{"NoteNumber":91,"Velocity":54,"Duration":433778,"SoundDuration":433778,"Delta":30554464},{"NoteNumber":48,"Velocity":31,"Duration":213483,"SoundDuration":213483,"Delta":30554464},{"NoteNumber":60,"Velocity":36,"Duration":213483,"SoundDuration":213483,"Delta":30554464},{"NoteNumber":64,"Velocity":25,"Duration":198606,"SoundDuration":198606,"Delta":30779183},{"NoteNumber":55,"Velocity":20,"Duration":198606,"SoundDuration":198606,"Delta":30779183},{"NoteNumber":76,"Velocity":39,"Duration":396527,"SoundDuration":396527,"Delta":30935977},{"NoteNumber":88,"Velocity":49,"Duration":393442,"SoundDuration":393442,"Delta":30988242},{"NoteNumber":55,"Velocity":21,"Duration":186885,"SoundDuration":186885,"Delta":30988242},{"NoteNumber":64,"Velocity":25,"Duration":186885,"SoundDuration":186885,"Delta":30988242},{"NoteNumber":55,"Velocity":21,"Duration":186885,"SoundDuration":186885,"Delta":31184963},{"NoteNumber":64,"Velocity":26,"Duration":186885,"SoundDuration":186885,"Delta":31184963},{"NoteNumber":70,"Velocity":43,"Duration":414545,"SoundDuration":414545,"Delta":31332504},{"NoteNumber":82,"Velocity":53,"Duration":419356,"SoundDuration":419356,"Delta":31381685},{"NoteNumber":55,"Velocity":22,"Duration":193220,"SoundDuration":193220,"Delta":31381685},{"NoteNumber":64,"Velocity":27,"Duration":193220,"SoundDuration":193220,"Delta":31381685},{"NoteNumber":55,"Velocity":23,"Duration":205168,"SoundDuration":205168,"Delta":31585075},{"NoteNumber":64,"Velocity":27,"Duration":205168,"SoundDuration":205168,"Delta":31585075},{"NoteNumber":69,"Velocity":43,"Duration":859657,"SoundDuration":859657,"Delta":31747050},{"NoteNumber":81,"Velocity":53,"Duration":805665,"SoundDuration":805665,"Delta":31801042},{"NoteNumber":61,"Velocity":36,"Duration":197573,"SoundDuration":197573,"Delta":31801042},{"NoteNumber":49,"Velocity":31,"Duration":197573,"SoundDuration":197573,"Delta":31801042},{"NoteNumber":67,"Velocity":29,"Duration":182108,"SoundDuration":182108,"Delta":32009014},{"NoteNumber":64,"Velocity":24,"Duration":182108,"SoundDuration":182108,"Delta":32009014},{"NoteNumber":57,"Velocity":24,"Duration":182108,"SoundDuration":182108,"Delta":32009014},{"NoteNumber":67,"Velocity":30,"Duration":192567,"SoundDuration":192567,"Delta":32200708},{"NoteNumber":64,"Velocity":25,"Duration":192567,"SoundDuration":192567,"Delta":32200708},{"NoteNumber":57,"Velocity":25,"Duration":192567,"SoundDuration":192567,"Delta":32200708},{"NoteNumber":67,"Velocity":32,"Duration":192983,"SoundDuration":192983,"Delta":32403410},{"NoteNumber":64,"Velocity":27,"Duration":192983,"SoundDuration":192983,"Delta":32403410},{"NoteNumber":57,"Velocity":27,"Duration":192983,"SoundDuration":192983,"Delta":32403410},{"NoteNumber":81,"Velocity":44,"Duration":434065,"SoundDuration":434065,"Delta":32606707},{"NoteNumber":93,"Velocity":55,"Duration":434065,"SoundDuration":434065,"Delta":32606707},{"NoteNumber":67,"Velocity":30,"Duration":203571,"SoundDuration":203571,"Delta":32606707},{"NoteNumber":64,"Velocity":25,"Duration":203571,"SoundDuration":203571,"Delta":32606707},{"NoteNumber":57,"Velocity":25,"Duration":203571,"SoundDuration":203571,"Delta":32606707},{"NoteNumber":67,"Velocity":31,"Duration":208790,"SoundDuration":208790,"Delta":32820993},{"NoteNumber":64,"Velocity":26,"Duration":208790,"SoundDuration":208790,"Delta":32820993},{"NoteNumber":57,"Velocity":26,"Duration":208790,"SoundDuration":208790,"Delta":32820993},{"NoteNumber":93,"Velocity":60,"Duration":417871,"SoundDuration":417871,"Delta":33040773},{"NoteNumber":81,"Velocity":48,"Duration":417871,"SoundDuration":417871,"Delta":33040773},{"NoteNumber":62,"Velocity":40,"Duration":214285,"SoundDuration":214285,"Delta":33040773},{"NoteNumber":50,"Velocity":33,"Duration":214285,"SoundDuration":214285,"Delta":33040773},{"NoteNumber":65,"Velocity":28,"Duration":182692,"SoundDuration":182692,"Delta":33266337},{"NoteNumber":57,"Velocity":23,"Duration":182692,"SoundDuration":182692,"Delta":33266337},{"NoteNumber":77,"Velocity":45,"Duration":392156,"SoundDuration":392156,"Delta":33458644},{"NoteNumber":89,"Velocity":56,"Duration":392156,"SoundDuration":392156,"Delta":33458644},{"NoteNumber":57,"Velocity":24,"Duration":186274,"SoundDuration":186274,"Delta":33458644},{"NoteNumber":65,"Velocity":28,"Duration":186274,"SoundDuration":186274,"Delta":33458644},{"NoteNumber":57,"Velocity":24,"Duration":186274,"SoundDuration":186274,"Delta":33654723},{"NoteNumber":65,"Velocity":30,"Duration":186274,"SoundDuration":186274,"Delta":33654723},{"NoteNumber":86,"Velocity":61,"Duration":434315,"SoundDuration":434315,"Delta":33850801},{"NoteNumber":74,"Velocity":50,"Duration":434315,"SoundDuration":434315,"Delta":33850801},{"NoteNumber":57,"Velocity":26,"Duration":200704,"SoundDuration":200704,"Delta":33850801},{"NoteNumber":65,"Velocity":31,"Duration":200704,"SoundDuration":200704,"Delta":33850801},{"NoteNumber":57,"Velocity":27,"Duration":211896,"SoundDuration":211896,"Delta":34062069},{"NoteNumber":65,"Velocity":32,"Duration":211896,"SoundDuration":211896,"Delta":34062069},{"NoteNumber":72,"Velocity":50,"Duration":802561,"SoundDuration":802561,"Delta":34285117},{"NoteNumber":84,"Velocity":62,"Duration":802561,"SoundDuration":802561,"Delta":34285117},{"NoteNumber":64,"Velocity":42,"Duration":197573,"SoundDuration":197573,"Delta":34285117},{"NoteNumber":52,"Velocity":38,"Duration":197573,"SoundDuration":197573,"Delta":34285117},{"NoteNumber":67,"Velocity":34,"Duration":181528,"SoundDuration":181528,"Delta":34493090},{"NoteNumber":60,"Velocity":28,"Duration":181528,"SoundDuration":181528,"Delta":34493090},{"NoteNumber":58,"Velocity":28,"Duration":181528,"SoundDuration":181528,"Delta":34493090},{"NoteNumber":67,"Velocity":34,"Duration":191275,"SoundDuration":191275,"Delta":34684173},{"NoteNumber":60,"Velocity":29,"Duration":191275,"SoundDuration":191275,"Delta":34684173},{"NoteNumber":58,"Velocity":29,"Duration":191275,"SoundDuration":191275,"Delta":34684173},{"NoteNumber":67,"Velocity":37,"Duration":191850,"SoundDuration":191850,"Delta":34885515},{"NoteNumber":60,"Velocity":30,"Duration":191850,"SoundDuration":191850,"Delta":34885515},{"NoteNumber":58,"Velocity":30,"Duration":191850,"SoundDuration":191850,"Delta":34885515},{"NoteNumber":84,"Velocity":50,"Duration":446151,"SoundDuration":446151,"Delta":35087679},{"NoteNumber":96,"Velocity":62,"Duration":446151,"SoundDuration":446151,"Delta":35087679},{"NoteNumber":67,"Velocity":34,"Duration":209558,"SoundDuration":209558,"Delta":35087679},{"NoteNumber":60,"Velocity":28,"Duration":209558,"SoundDuration":209558,"Delta":35087679},{"NoteNumber":58,"Velocity":28,"Duration":209558,"SoundDuration":209558,"Delta":35087679},{"NoteNumber":67,"Velocity":35,"Duration":214285,"SoundDuration":214285,"Delta":35308267},{"NoteNumber":60,"Velocity":29,"Duration":214285,"SoundDuration":214285,"Delta":35308267},{"NoteNumber":58,"Velocity":29,"Duration":214285,"SoundDuration":214285,"Delta":35308267},{"NoteNumber":96,"Velocity":69,"Duration":435330,"SoundDuration":435330,"Delta":35533831},{"NoteNumber":84,"Velocity":56,"Duration":435330,"SoundDuration":435330,"Delta":35533831},{"NoteNumber":65,"Velocity":46,"Duration":225296,"SoundDuration":225296,"Delta":35533831},{"NoteNumber":53,"Velocity":41,"Duration":225296,"SoundDuration":225296,"Delta":35533831},{"NoteNumber":69,"Velocity":37,"Duration":188268,"SoundDuration":188268,"Delta":35770985},{"NoteNumber":60,"Velocity":30,"Duration":188268,"SoundDuration":188268,"Delta":35770985},{"NoteNumber":81,"Velocity":52,"Duration":409556,"SoundDuration":409556,"Delta":35969162},{"NoteNumber":93,"Velocity":66,"Duration":409556,"SoundDuration":409556,"Delta":35969162},{"NoteNumber":60,"Velocity":33,"Duration":194539,"SoundDuration":194539,"Delta":35969162},{"NoteNumber":69,"Velocity":40,"Duration":194539,"SoundDuration":194539,"Delta":35969162},{"NoteNumber":60,"Velocity":34,"Duration":194539,"SoundDuration":194539,"Delta":36173940},{"NoteNumber":69,"Velocity":41,"Duration":194539,"SoundDuration":194539,"Delta":36173940},{"NoteNumber":89,"Velocity":67,"Duration":423939,"SoundDuration":423939,"Delta":36378718},{"NoteNumber":77,"Velocity":55,"Duration":423939,"SoundDuration":423939,"Delta":36378718},{"NoteNumber":60,"Velocity":36,"Duration":197573,"SoundDuration":197573,"Delta":36378718},{"NoteNumber":69,"Velocity":42,"Duration":197573,"SoundDuration":197573,"Delta":36378718},{"NoteNumber":60,"Velocity":37,"Duration":205168,"SoundDuration":205168,"Delta":36586691},{"NoteNumber":69,"Velocity":45,"Duration":205168,"SoundDuration":205168,"Delta":36586691},{"NoteNumber":74,"Velocity":60,"Duration":876281,"SoundDuration":876281,"Delta":36802658},{"NoteNumber":86,"Velocity":74,"Duration":876281,"SoundDuration":876281,"Delta":36802658},{"NoteNumber":59,"Velocity":53,"Duration":197573,"SoundDuration":197573,"Delta":36802658},{"NoteNumber":47,"Velocity":45,"Duration":197573,"SoundDuration":197573,"Delta":36802658},{"NoteNumber":65,"Velocity":41,"Duration":189017,"SoundDuration":189017,"Delta":37010630},{"NoteNumber":56,"Velocity":34,"Duration":189017,"SoundDuration":189017,"Delta":37010630},{"NoteNumber":65,"Velocity":41,"Duration":195876,"SoundDuration":195876,"Delta":37209596},{"NoteNumber":56,"Velocity":34,"Duration":195876,"SoundDuration":195876,"Delta":37209596},{"NoteNumber":65,"Velocity":42,"Duration":250000,"SoundDuration":250000,"Delta":37415781},{"NoteNumber":56,"Velocity":36,"Duration":250000,"SoundDuration":250000,"Delta":37415781},{"NoteNumber":86,"Velocity":48,"Duration":469782,"SoundDuration":469782,"Delta":37678939},{"NoteNumber":98,"Velocity":60,"Duration":469782,"SoundDuration":469782,"Delta":37678939},{"NoteNumber":65,"Velocity":32,"Duration":212686,"SoundDuration":212686,"Delta":37678939},{"NoteNumber":56,"Velocity":28,"Duration":212686,"SoundDuration":212686,"Delta":37678939},{"NoteNumber":65,"Velocity":33,"Duration":233606,"SoundDuration":233606,"Delta":37902820},{"NoteNumber":56,"Velocity":28,"Duration":233606,"SoundDuration":233606,"Delta":37902820},{"NoteNumber":98,"Velocity":64,"Duration":447985,"SoundDuration":447985,"Delta":38148721},{"NoteNumber":86,"Velocity":52,"Duration":447985,"SoundDuration":447985,"Delta":38148721},{"NoteNumber":60,"Velocity":43,"Duration":217557,"SoundDuration":217557,"Delta":38148721},{"NoteNumber":48,"Velocity":37,"Duration":217557,"SoundDuration":217557,"Delta":38148721},{"NoteNumber":62,"Velocity":28,"Duration":208029,"SoundDuration":208029,"Delta":38377729},{"NoteNumber":58,"Velocity":23,"Duration":208029,"SoundDuration":208029,"Delta":38377729},{"NoteNumber":82,"Velocity":43,"Duration":456274,"SoundDuration":456274,"Delta":38596707},{"NoteNumber":94,"Velocity":54,"Duration":456274,"SoundDuration":456274,"Delta":38596707},{"NoteNumber":58,"Velocity":22,"Duration":216730,"SoundDuration":216730,"Delta":38596707},{"NoteNumber":62,"Velocity":27,"Duration":216730,"SoundDuration":216730,"Delta":38596707},{"NoteNumber":58,"Velocity":23,"Duration":216730,"SoundDuration":216730,"Delta":38824844},{"NoteNumber":62,"Velocity":27,"Duration":216730,"SoundDuration":216730,"Delta":38824844},{"NoteNumber":91,"Velocity":54,"Duration":489043,"SoundDuration":489043,"Delta":39052981},{"NoteNumber":79,"Velocity":43,"Duration":489043,"SoundDuration":489043,"Delta":39052981},{"NoteNumber":58,"Velocity":22,"Duration":227091,"SoundDuration":227091,"Delta":39052981},{"NoteNumber":64,"Velocity":27,"Duration":227091,"SoundDuration":227091,"Delta":39052981},{"NoteNumber":58,"Velocity":22,"Duration":237499,"SoundDuration":237499,"Delta":39292025},{"NoteNumber":64,"Velocity":27,"Duration":237499,"SoundDuration":237499,"Delta":39292025},{"NoteNumber":77,"Velocity":40,"Duration":535713,"SoundDuration":535713,"Delta":39542025},{"NoteNumber":89,"Velocity":50,"Duration":535713,"SoundDuration":535713,"Delta":39542025},{"NoteNumber":57,"Velocity":28,"Duration":535713,"SoundDuration":535713,"Delta":39542025},{"NoteNumber":65,"Velocity":34,"Duration":535713,"SoundDuration":535713,"Delta":39542025},{"NoteNumber":41,"Velocity":17,"Duration":600000,"SoundDuration":600000,"Delta":40077739},{"NoteNumber":48,"Velocity":20,"Duration":562500,"SoundDuration":562500,"Delta":40115239},{"NoteNumber":57,"Velocity":28,"Duration":524999,"SoundDuration":524999,"Delta":40152739},{"NoteNumber":60,"Velocity":28,"Duration":450000,"SoundDuration":450000,"Delta":40190239},{"NoteNumber":65,"Velocity":34,"Duration":450000,"SoundDuration":450000,"Delta":40227739},{"NoteNumber":57,"Velocity":69,"Duration":242914,"SoundDuration":242914,"Delta":42215239},{"NoteNumber":51,"Velocity":58,"Duration":242914,"SoundDuration":242914,"Delta":42215239},{"NoteNumber":48,"Velocity":58,"Duration":242914,"SoundDuration":242914,"Delta":42215239},{"NoteNumber":30,"Velocity":49,"Duration":242914,"SoundDuration":242914,"Delta":42215239},{"NoteNumber":42,"Velocity":58,"Duration":242914,"SoundDuration":242914,"Delta":42215239},{"NoteNumber":48,"Velocity":64,"Duration":233463,"SoundDuration":233463,"Delta":42458154},{"NoteNumber":52,"Velocity":64,"Duration":233463,"SoundDuration":233463,"Delta":42458154},{"NoteNumber":58,"Velocity":75,"Duration":233463,"SoundDuration":233463,"Delta":42458154},{"NoteNumber":31,"Velocity":53,"Duration":233463,"SoundDuration":233463,"Delta":42458154},{"NoteNumber":43,"Velocity":64,"Duration":233463,"SoundDuration":233463,"Delta":42458154},{"NoteNumber":60,"Velocity":59,"Duration":213523,"SoundDuration":213523,"Delta":42691617},{"NoteNumber":69,"Velocity":71,"Duration":213523,"SoundDuration":213523,"Delta":42691617},{"NoteNumber":63,"Velocity":59,"Duration":213523,"SoundDuration":213523,"Delta":42691617},{"NoteNumber":42,"Velocity":50,"Duration":213523,"SoundDuration":213523,"Delta":42691617},{"NoteNumber":54,"Velocity":59,"Duration":213523,"SoundDuration":213523,"Delta":42691617},{"NoteNumber":64,"Velocity":64,"Duration":220587,"SoundDuration":220587,"Delta":42905140},{"NoteNumber":60,"Velocity":64,"Duration":220587,"SoundDuration":220587,"Delta":42905140},{"NoteNumber":70,"Velocity":76,"Duration":220587,"SoundDuration":220587,"Delta":42905140},{"NoteNumber":43,"Velocity":53,"Duration":220587,"SoundDuration":220587,"Delta":42905140},{"NoteNumber":55,"Velocity":64,"Duration":220587,"SoundDuration":220587,"Delta":42905140},{"NoteNumber":75,"Velocity":60,"Duration":213523,"SoundDuration":213523,"Delta":43125728},{"NoteNumber":72,"Velocity":60,"Duration":213523,"SoundDuration":213523,"Delta":43125728},{"NoteNumber":81,"Velocity":72,"Duration":213523,"SoundDuration":213523,"Delta":43125728},{"NoteNumber":54,"Velocity":51,"Duration":213523,"SoundDuration":213523,"Delta":43125728},{"NoteNumber":66,"Velocity":60,"Duration":213523,"SoundDuration":213523,"Delta":43125728},{"NoteNumber":76,"Velocity":65,"Duration":219780,"SoundDuration":219780,"Delta":43339251},{"NoteNumber":82,"Velocity":77,"Duration":219780,"SoundDuration":219780,"Delta":43339251},{"NoteNumber":72,"Velocity":65,"Duration":219780,"SoundDuration":219780,"Delta":43339251},{"NoteNumber":55,"Velocity":57,"Duration":219780,"SoundDuration":219780,"Delta":43339251},{"NoteNumber":67,"Velocity":67,"Duration":219780,"SoundDuration":219780,"Delta":43339251},{"NoteNumber":93,"Velocity":74,"Duration":211267,"SoundDuration":211267,"Delta":43559031},{"NoteNumber":84,"Velocity":63,"Duration":211267,"SoundDuration":211267,"Delta":43559031},{"NoteNumber":87,"Velocity":63,"Duration":211267,"SoundDuration":211267,"Delta":43559031},{"NoteNumber":66,"Velocity":52,"Duration":211267,"SoundDuration":211267,"Delta":43559031},{"NoteNumber":78,"Velocity":63,"Duration":211267,"SoundDuration":211267,"Delta":43559031},{"NoteNumber":84,"Velocity":66,"Duration":111524,"SoundDuration":111524,"Delta":43770298},{"NoteNumber":67,"Velocity":60,"Duration":223048,"SoundDuration":223048,"Delta":43770298},{"NoteNumber":79,"Velocity":72,"Duration":223048,"SoundDuration":223048,"Delta":43770298},{"NoteNumber":94,"Velocity":73,"Duration":111524,"SoundDuration":111524,"Delta":43881823},{"NoteNumber":91,"Velocity":64,"Duration":102739,"SoundDuration":102739,"Delta":43993347},{"NoteNumber":96,"Velocity":75,"Duration":205013,"SoundDuration":205013,"Delta":43993347},{"NoteNumber":82,"Velocity":65,"Duration":102739,"SoundDuration":102739,"Delta":43993347},{"NoteNumber":88,"Velocity":73,"Duration":102273,"SoundDuration":102273,"Delta":44096087},{"NoteNumber":79,"Velocity":58,"Duration":102273,"SoundDuration":102273,"Delta":44096087},{"NoteNumber":84,"Velocity":75,"Duration":102505,"SoundDuration":102505,"Delta":44198360},{"NoteNumber":76,"Velocity":59,"Duration":102505,"SoundDuration":102505,"Delta":44198360},{"NoteNumber":82,"Velocity":74,"Duration":103211,"SoundDuration":103211,"Delta":44300866},{"NoteNumber":72,"Velocity":57,"Duration":103211,"SoundDuration":103211,"Delta":44300866},{"NoteNumber":79,"Velocity":72,"Duration":103926,"SoundDuration":103926,"Delta":44404077},{"NoteNumber":70,"Velocity":56,"Duration":103926,"SoundDuration":103926,"Delta":44404077},{"NoteNumber":76,"Velocity":71,"Duration":104530,"SoundDuration":104530,"Delta":44508004},{"NoteNumber":67,"Velocity":54,"Duration":104530,"SoundDuration":104530,"Delta":44508004},{"NoteNumber":72,"Velocity":69,"Duration":211271,"SoundDuration":211271,"Delta":44612534},{"NoteNumber":64,"Velocity":52,"Duration":211271,"SoundDuration":211271,"Delta":44612534},{"NoteNumber":50,"Velocity":58,"Duration":235294,"SoundDuration":235294,"Delta":44823806},{"NoteNumber":53,"Velocity":58,"Duration":235294,"SoundDuration":235294,"Delta":44823806},{"NoteNumber":59,"Velocity":69,"Duration":235294,"SoundDuration":235294,"Delta":44823806},{"NoteNumber":32,"Velocity":49,"Duration":235294,"SoundDuration":235294,"Delta":44823806},{"NoteNumber":44,"Velocity":58,"Duration":235294,"SoundDuration":235294,"Delta":44823806},{"NoteNumber":48,"Velocity":64,"Duration":224719,"SoundDuration":224719,"Delta":45059100},{"NoteNumber":60,"Velocity":75,"Duration":224719,"SoundDuration":224719,"Delta":45059100},{"NoteNumber":53,"Velocity":64,"Duration":224719,"SoundDuration":224719,"Delta":45059100},{"NoteNumber":33,"Velocity":53,"Duration":224719,"SoundDuration":224719,"Delta":45059100},{"NoteNumber":45,"Velocity":64,"Duration":224719,"SoundDuration":224719,"Delta":45059100},{"NoteNumber":65,"Velocity":59,"Duration":215054,"SoundDuration":215054,"Delta":45283819},{"NoteNumber":62,"Velocity":59,"Duration":215054,"SoundDuration":215054,"Delta":45283819},{"NoteNumber":71,"Velocity":71,"Duration":215054,"SoundDuration":215054,"Delta":45283819},{"NoteNumber":44,"Velocity":50,"Duration":215054,"SoundDuration":215054,"Delta":45283819},{"NoteNumber":56,"Velocity":59,"Duration":215054,"SoundDuration":215054,"Delta":45283819},{"NoteNumber":65,"Velocity":64,"Duration":223880,"SoundDuration":223880,"Delta":45498873},{"NoteNumber":60,"Velocity":64,"Duration":223880,"SoundDuration":223880,"Delta":45498873},{"NoteNumber":72,"Velocity":76,"Duration":223880,"SoundDuration":223880,"Delta":45498873},{"NoteNumber":45,"Velocity":53,"Duration":223880,"SoundDuration":223880,"Delta":45498873},{"NoteNumber":57,"Velocity":64,"Duration":223880,"SoundDuration":223880,"Delta":45498873},{"NoteNumber":77,"Velocity":60,"Duration":216606,"SoundDuration":216606,"Delta":45722754},{"NoteNumber":83,"Velocity":72,"Duration":216606,"SoundDuration":216606,"Delta":45722754},{"NoteNumber":74,"Velocity":60,"Duration":216606,"SoundDuration":216606,"Delta":45722754},{"NoteNumber":56,"Velocity":51,"Duration":216606,"SoundDuration":216606,"Delta":45722754},{"NoteNumber":68,"Velocity":60,"Duration":216606,"SoundDuration":216606,"Delta":45722754},{"NoteNumber":84,"Velocity":77,"Duration":223048,"SoundDuration":223048,"Delta":45939360},{"NoteNumber":72,"Velocity":65,"Duration":223048,"SoundDuration":223048,"Delta":45939360},{"NoteNumber":77,"Velocity":65,"Duration":223048,"SoundDuration":223048,"Delta":45939360},{"NoteNumber":57,"Velocity":57,"Duration":223048,"SoundDuration":223048,"Delta":45939360},{"NoteNumber":69,"Velocity":67,"Duration":223048,"SoundDuration":223048,"Delta":45939360},{"NoteNumber":95,"Velocity":74,"Duration":215827,"SoundDuration":215827,"Delta":46162409},{"NoteNumber":86,"Velocity":63,"Duration":215827,"SoundDuration":215827,"Delta":46162409},{"NoteNumber":89,"Velocity":63,"Duration":215827,"SoundDuration":215827,"Delta":46162409},{"NoteNumber":68,"Velocity":52,"Duration":215827,"SoundDuration":215827,"Delta":46162409},{"NoteNumber":80,"Velocity":63,"Duration":215827,"SoundDuration":215827,"Delta":46162409},{"NoteNumber":84,"Velocity":66,"Duration":111940,"SoundDuration":111940,"Delta":46378236},{"NoteNumber":69,"Velocity":60,"Duration":223880,"SoundDuration":223880,"Delta":46378236},{"NoteNumber":81,"Velocity":72,"Duration":223880,"SoundDuration":223880,"Delta":46378236},{"NoteNumber":101,"Velocity":77,"Duration":111940,"SoundDuration":111940,"Delta":46490176},{"NoteNumber":96,"Velocity":75,"Duration":208817,"SoundDuration":208817,"Delta":46602117},{"NoteNumber":93,"Velocity":73,"Duration":104288,"SoundDuration":104288,"Delta":46706646},{"NoteNumber":89,"Velocity":76,"Duration":104167,"SoundDuration":104167,"Delta":46810935},{"NoteNumber":84,"Velocity":73,"Duration":105263,"SoundDuration":105263,"Delta":46915102},{"NoteNumber":81,"Velocity":71,"Duration":106383,"SoundDuration":106383,"Delta":47020366},{"NoteNumber":77,"Velocity":69,"Duration":107527,"SoundDuration":107527,"Delta":47126750},{"NoteNumber":78,"Velocity":67,"Duration":108303,"SoundDuration":108303,"Delta":47234278},{"NoteNumber":60,"Velocity":47,"Duration":433608,"SoundDuration":433608,"Delta":47234278},{"NoteNumber":63,"Velocity":47,"Duration":433608,"SoundDuration":433608,"Delta":47234278},{"NoteNumber":69,"Velocity":47,"Duration":433608,"SoundDuration":433608,"Delta":47234278},{"NoteNumber":81,"Velocity":63,"Duration":325305,"SoundDuration":325305,"Delta":47342581},{"NoteNumber":84,"Velocity":57,"Duration":108303,"SoundDuration":108303,"Delta":47450884},{"NoteNumber":87,"Velocity":54,"Duration":219672,"SoundDuration":219672,"Delta":47559188},{"NoteNumber":79,"Velocity":56,"Duration":546968,"SoundDuration":546968,"Delta":47667886},{"NoteNumber":46,"Velocity":47,"Duration":221133,"SoundDuration":221133,"Delta":47667886},{"NoteNumber":86,"Velocity":48,"Duration":110159,"SoundDuration":110159,"Delta":47778860},{"NoteNumber":85,"Velocity":48,"Duration":109356,"SoundDuration":109356,"Delta":47889020},{"NoteNumber":55,"Velocity":37,"Duration":647271,"SoundDuration":647271,"Delta":47889020},{"NoteNumber":86,"Velocity":48,"Duration":108564,"SoundDuration":108564,"Delta":47998376},{"NoteNumber":91,"Velocity":54,"Duration":197841,"SoundDuration":197841,"Delta":48106941},{"NoteNumber":62,"Velocity":37,"Duration":215827,"SoundDuration":215827,"Delta":48106941},{"NoteNumber":58,"Velocity":37,"Duration":429350,"SoundDuration":429350,"Delta":48106941},{"NoteNumber":80,"Velocity":47,"Duration":125707,"SoundDuration":125707,"Delta":48214855},{"NoteNumber":91,"Velocity":54,"Duration":195729,"SoundDuration":195729,"Delta":48322768},{"NoteNumber":81,"Velocity":47,"Duration":124555,"SoundDuration":124555,"Delta":48322768},{"NoteNumber":67,"Velocity":37,"Duration":213523,"SoundDuration":213523,"Delta":48322768},{"NoteNumber":82,"Velocity":47,"Duration":124305,"SoundDuration":124305,"Delta":48429530},{"NoteNumber":83,"Velocity":47,"Duration":122807,"SoundDuration":122807,"Delta":48536291},{"NoteNumber":91,"Velocity":54,"Duration":192982,"SoundDuration":192982,"Delta":48536291},{"NoteNumber":43,"Velocity":40,"Duration":105263,"SoundDuration":105263,"Delta":48536291},{"NoteNumber":84,"Velocity":48,"Duration":123184,"SoundDuration":123184,"Delta":48641555},{"NoteNumber":85,"Velocity":49,"Duration":125448,"SoundDuration":125448,"Delta":48746818},{"NoteNumber":91,"Velocity":56,"Duration":197526,"SoundDuration":197526,"Delta":48746818},{"NoteNumber":65,"Velocity":37,"Duration":215841,"SoundDuration":215841,"Delta":48746818},{"NoteNumber":59,"Velocity":37,"Duration":215841,"SoundDuration":215841,"Delta":48746818},{"NoteNumber":86,"Velocity":50,"Duration":126629,"SoundDuration":126629,"Delta":48854345},{"NoteNumber":89,"Velocity":49,"Duration":128204,"SoundDuration":128204,"Delta":48962660},{"NoteNumber":91,"Velocity":56,"Duration":201264,"SoundDuration":201264,"Delta":48962660},{"NoteNumber":48,"Velocity":47,"Duration":109890,"SoundDuration":109890,"Delta":48962660},{"NoteNumber":88,"Velocity":49,"Duration":127870,"SoundDuration":127870,"Delta":49072550},{"NoteNumber":91,"Velocity":56,"Duration":200265,"SoundDuration":200265,"Delta":49182172},{"NoteNumber":87,"Velocity":50,"Duration":127538,"SoundDuration":127538,"Delta":49182172},{"NoteNumber":60,"Velocity":50,"Duration":647106,"SoundDuration":647106,"Delta":49182172},{"NoteNumber":88,"Velocity":49,"Duration":127206,"SoundDuration":127206,"Delta":49291529},{"NoteNumber":84,"Velocity":50,"Duration":126811,"SoundDuration":126811,"Delta":49400620},{"NoteNumber":96,"Velocity":56,"Duration":199275,"SoundDuration":199275,"Delta":49400620},{"NoteNumber":67,"Velocity":45,"Duration":217391,"SoundDuration":217391,"Delta":49400620},{"NoteNumber":64,"Velocity":45,"Duration":217391,"SoundDuration":217391,"Delta":49400620},{"NoteNumber":85,"Velocity":51,"Duration":126301,"SoundDuration":126301,"Delta":49509315},{"NoteNumber":96,"Velocity":56,"Duration":193661,"SoundDuration":193661,"Delta":49618011},{"NoteNumber":86,"Velocity":50,"Duration":123239,"SoundDuration":123239,"Delta":49618011},{"NoteNumber":72,"Velocity":40,"Duration":211267,"SoundDuration":211267,"Delta":49618011},{"NoteNumber":87,"Velocity":51,"Duration":123055,"SoundDuration":123055,"Delta":49723645},{"NoteNumber":96,"Velocity":58,"Duration":191637,"SoundDuration":191637,"Delta":49829279},{"NoteNumber":88,"Velocity":51,"Duration":121951,"SoundDuration":121951,"Delta":49829279},{"NoteNumber":58,"Velocity":46,"Duration":104529,"SoundDuration":104529,"Delta":49829279},{"NoteNumber":89,"Velocity":53,"Duration":122260,"SoundDuration":122260,"Delta":49933808},{"NoteNumber":90,"Velocity":53,"Duration":124113,"SoundDuration":124113,"Delta":50038338},{"NoteNumber":96,"Velocity":60,"Duration":195035,"SoundDuration":195035,"Delta":50038338},{"NoteNumber":72,"Velocity":42,"Duration":212766,"SoundDuration":212766,"Delta":50038338},{"NoteNumber":67,"Velocity":42,"Duration":212766,"SoundDuration":212766,"Delta":50038338},{"NoteNumber":91,"Velocity":55,"Duration":124833,"SoundDuration":124833,"Delta":50144721},{"NoteNumber":94,"Velocity":54,"Duration":129151,"SoundDuration":129151,"Delta":50251104},{"NoteNumber":96,"Velocity":61,"Duration":202951,"SoundDuration":202951,"Delta":50251104},{"NoteNumber":57,"Velocity":45,"Duration":110700,"SoundDuration":110700,"Delta":50251104},{"NoteNumber":93,"Velocity":56,"Duration":129151,"SoundDuration":129151,"Delta":50361805},{"NoteNumber":92,"Velocity":56,"Duration":129151,"SoundDuration":129151,"Delta":50472506},{"NoteNumber":96,"Velocity":65,"Duration":202951,"SoundDuration":202951,"Delta":50472506},{"NoteNumber":60,"Velocity":49,"Duration":660702,"SoundDuration":660702,"Delta":50472506},{"NoteNumber":93,"Velocity":57,"Duration":129151,"SoundDuration":129151,"Delta":50583207},{"NoteNumber":101,"Velocity":65,"Duration":202139,"SoundDuration":202139,"Delta":50693908},{"NoteNumber":89,"Velocity":56,"Duration":128812,"SoundDuration":128812,"Delta":50693908},{"NoteNumber":69,"Velocity":47,"Duration":220454,"SoundDuration":220454,"Delta":50693908},{"NoteNumber":65,"Velocity":47,"Duration":220454,"SoundDuration":220454,"Delta":50693908},{"NoteNumber":90,"Velocity":56,"Duration":128339,"SoundDuration":128339,"Delta":50804337},{"NoteNumber":91,"Velocity":57,"Duration":127870,"SoundDuration":127870,"Delta":50914362},{"NoteNumber":101,"Velocity":67,"Duration":200664,"SoundDuration":200664,"Delta":50914362},{"NoteNumber":72,"Velocity":40,"Duration":218846,"SoundDuration":218846,"Delta":50914362},{"NoteNumber":92,"Velocity":57,"Duration":127339,"SoundDuration":127339,"Delta":51023985},{"NoteNumber":101,"Velocity":67,"Duration":199275,"SoundDuration":199275,"Delta":51133208},{"NoteNumber":93,"Velocity":57,"Duration":126811,"SoundDuration":126811,"Delta":51133208},{"NoteNumber":53,"Velocity":48,"Duration":108695,"SoundDuration":108695,"Delta":51133208},{"NoteNumber":94,"Velocity":58,"Duration":126811,"SoundDuration":126811,"Delta":51241904},{"NoteNumber":101,"Velocity":69,"Duration":199275,"SoundDuration":199275,"Delta":51350600},{"NoteNumber":95,"Velocity":59,"Duration":126811,"SoundDuration":126811,"Delta":51350600},{"NoteNumber":65,"Velocity":41,"Duration":217391,"SoundDuration":217391,"Delta":51350600},{"NoteNumber":57,"Velocity":41,"Duration":217391,"SoundDuration":217391,"Delta":51350600},{"NoteNumber":98,"Velocity":60,"Duration":128857,"SoundDuration":128857,"Delta":51459296},{"NoteNumber":100,"Velocity":69,"Duration":241935,"SoundDuration":241935,"Delta":51567991},{"NoteNumber":96,"Velocity":69,"Duration":241935,"SoundDuration":241935,"Delta":51567991},{"NoteNumber":48,"Velocity":48,"Duration":499468,"SoundDuration":499468,"Delta":51567991},{"NoteNumber":72,"Velocity":47,"Duration":129871,"SoundDuration":129871,"Delta":51809927},{"NoteNumber":52,"Velocity":36,"Duration":129871,"SoundDuration":129871,"Delta":51809927},{"NoteNumber":76,"Velocity":52,"Duration":127661,"SoundDuration":127661,"Delta":51939799},{"NoteNumber":55,"Velocity":39,"Duration":127661,"SoundDuration":127661,"Delta":51939799},{"NoteNumber":79,"Velocity":56,"Duration":122950,"SoundDuration":122950,"Delta":52067460},{"NoteNumber":64,"Velocity":45,"Duration":122950,"SoundDuration":122950,"Delta":52067460},{"NoteNumber":84,"Velocity":54,"Duration":122950,"SoundDuration":122950,"Delta":52190410},{"NoteNumber":88,"Velocity":52,"Duration":122950,"SoundDuration":122950,"Delta":52313361},{"NoteNumber":91,"Velocity":50,"Duration":122950,"SoundDuration":122950,"Delta":52436312},{"NoteNumber":90,"Velocity":52,"Duration":120482,"SoundDuration":120482,"Delta":52559263},{"NoteNumber":57,"Velocity":42,"Duration":481928,"SoundDuration":481928,"Delta":52559263},{"NoteNumber":54,"Velocity":35,"Duration":481928,"SoundDuration":481928,"Delta":52559263},{"NoteNumber":48,"Velocity":35,"Duration":481928,"SoundDuration":481928,"Delta":52559263},{"NoteNumber":99,"Velocity":55,"Duration":120481,"SoundDuration":120481,"Delta":52679745},{"NoteNumber":87,"Velocity":45,"Duration":120482,"SoundDuration":120482,"Delta":52800227},{"NoteNumber":96,"Velocity":52,"Duration":120482,"SoundDuration":120482,"Delta":52920709},{"NoteNumber":91,"Velocity":45,"Duration":115830,"SoundDuration":115830,"Delta":53041191},{"NoteNumber":48,"Velocity":32,"Duration":893587,"SoundDuration":893587,"Delta":53041191},{"NoteNumber":58,"Velocity":39,"Duration":457223,"SoundDuration":457223,"Delta":53041191},{"NoteNumber":55,"Velocity":32,"Duration":457223,"SoundDuration":457223,"Delta":53041191},{"NoteNumber":100,"Velocity":39,"Duration":115829,"SoundDuration":115829,"Delta":53157021},{"NoteNumber":88,"Velocity":40,"Duration":84586,"SoundDuration":84586,"Delta":53272851},{"NoteNumber":88,"Velocity":40,"Duration":84586,"SoundDuration":84586,"Delta":53385633},{"NoteNumber":96,"Velocity":48,"Duration":109090,"SoundDuration":109090,"Delta":53498415},{"NoteNumber":64,"Velocity":40,"Duration":436363,"SoundDuration":436363,"Delta":53498415},{"NoteNumber":60,"Velocity":33,"Duration":436363,"SoundDuration":436363,"Delta":53498415},{"NoteNumber":58,"Velocity":33,"Duration":436363,"SoundDuration":436363,"Delta":53498415},{"NoteNumber":84,"Velocity":41,"Duration":81818,"SoundDuration":81818,"Delta":53607506},{"NoteNumber":84,"Velocity":41,"Duration":109090,"SoundDuration":109090,"Delta":53716597},{"NoteNumber":91,"Velocity":42,"Duration":81818,"SoundDuration":81818,"Delta":53825688},{"NoteNumber":79,"Velocity":51,"Duration":83643,"SoundDuration":83643,"Delta":53934779},{"NoteNumber":67,"Velocity":43,"Duration":446097,"SoundDuration":446097,"Delta":53934779},{"NoteNumber":60,"Velocity":36,"Duration":446097,"SoundDuration":446097,"Delta":53934779},{"NoteNumber":58,"Velocity":36,"Duration":446097,"SoundDuration":446097,"Delta":53934779},{"NoteNumber":79,"Velocity":43,"Duration":111524,"SoundDuration":111524,"Delta":54046303},{"NoteNumber":88,"Velocity":45,"Duration":111524,"SoundDuration":111524,"Delta":54157827},{"NoteNumber":76,"Velocity":45,"Duration":83643,"SoundDuration":83643,"Delta":54269351},{"NoteNumber":76,"Velocity":54,"Duration":109489,"SoundDuration":109489,"Delta":54380876},{"NoteNumber":67,"Velocity":46,"Duration":626128,"SoundDuration":626128,"Delta":54380876},{"NoteNumber":60,"Velocity":39,"Duration":868063,"SoundDuration":868063,"Delta":54380876},{"NoteNumber":58,"Velocity":39,"Duration":868063,"SoundDuration":868063,"Delta":54380876},{"NoteNumber":84,"Velocity":48,"Duration":109488,"SoundDuration":109488,"Delta":54490365},{"NoteNumber":72,"Velocity":48,"Duration":82116,"SoundDuration":82116,"Delta":54599854},{"NoteNumber":72,"Velocity":48,"Duration":82116,"SoundDuration":82116,"Delta":54709343},{"NoteNumber":79,"Velocity":56,"Duration":107526,"SoundDuration":107526,"Delta":54818832},{"NoteNumber":67,"Velocity":48,"Duration":215054,"SoundDuration":215054,"Delta":54926359},{"NoteNumber":67,"Velocity":48,"Duration":215053,"SoundDuration":215053,"Delta":55033886},{"NoteNumber":79,"Velocity":48,"Duration":80645,"SoundDuration":80645,"Delta":55141413},{"NoteNumber":64,"Velocity":56,"Duration":83025,"SoundDuration":83025,"Delta":55248940},{"NoteNumber":56,"Velocity":44,"Duration":332102,"SoundDuration":332102,"Delta":55248940},{"NoteNumber":64,"Velocity":49,"Duration":110700,"SoundDuration":110700,"Delta":55359641},{"NoteNumber":72,"Velocity":49,"Duration":110700,"SoundDuration":110700,"Delta":55470342},{"NoteNumber":60,"Velocity":50,"Duration":110701,"SoundDuration":110701,"Delta":55581043},{"NoteNumber":41,"Velocity":34,"Duration":547065,"SoundDuration":547065,"Delta":55581043},{"NoteNumber":48,"Velocity":38,"Duration":491714,"SoundDuration":491714,"Delta":55636393},{"NoteNumber":65,"Velocity":64,"Duration":109090,"SoundDuration":109090,"Delta":55691744},{"NoteNumber":57,"Velocity":51,"Duration":436363,"SoundDuration":436363,"Delta":55691744},{"NoteNumber":72,"Velocity":51,"Duration":109090,"SoundDuration":109090,"Delta":55800835},{"NoteNumber":60,"Velocity":51,"Duration":109090,"SoundDuration":109090,"Delta":55909926},{"NoteNumber":69,"Velocity":52,"Duration":109090,"SoundDuration":109090,"Delta":56019017},{"NoteNumber":77,"Velocity":63,"Duration":105633,"SoundDuration":105633,"Delta":56128108},{"NoteNumber":60,"Velocity":52,"Duration":422535,"SoundDuration":422535,"Delta":56128108},{"NoteNumber":57,"Velocity":43,"Duration":422535,"SoundDuration":422535,"Delta":56128108},{"NoteNumber":65,"Velocity":53,"Duration":105633,"SoundDuration":105633,"Delta":56233741},{"NoteNumber":72,"Velocity":53,"Duration":105633,"SoundDuration":105633,"Delta":56339375},{"NoteNumber":81,"Velocity":54,"Duration":105633,"SoundDuration":105633,"Delta":56445009},{"NoteNumber":69,"Velocity":66,"Duration":107913,"SoundDuration":107913,"Delta":56550643},{"NoteNumber":65,"Velocity":55,"Duration":431654,"SoundDuration":431654,"Delta":56550643},{"NoteNumber":57,"Velocity":46,"Duration":431654,"SoundDuration":431654,"Delta":56550643},{"NoteNumber":77,"Velocity":55,"Duration":107913,"SoundDuration":107913,"Delta":56658556},{"NoteNumber":84,"Velocity":57,"Duration":107913,"SoundDuration":107913,"Delta":56766470},{"NoteNumber":72,"Velocity":57,"Duration":107913,"SoundDuration":107913,"Delta":56874384},{"NoteNumber":84,"Velocity":69,"Duration":107913,"SoundDuration":107913,"Delta":56982298},{"NoteNumber":65,"Velocity":59,"Duration":857440,"SoundDuration":857440,"Delta":56982298},{"NoteNumber":57,"Velocity":49,"Duration":857440,"SoundDuration":857440,"Delta":56982298},{"NoteNumber":89,"Velocity":59,"Duration":107913,"SoundDuration":107913,"Delta":57090211},{"NoteNumber":77,"Velocity":60,"Duration":107913,"SoundDuration":107913,"Delta":57198125},{"NoteNumber":84,"Velocity":64,"Duration":107913,"SoundDuration":107913,"Delta":57306039},{"NoteNumber":93,"Velocity":75,"Duration":106383,"SoundDuration":106383,"Delta":57413953},{"NoteNumber":81,"Velocity":67,"Duration":106383,"SoundDuration":106383,"Delta":57520336},{"NoteNumber":89,"Velocity":68,"Duration":106383,"SoundDuration":106383,"Delta":57626719},{"NoteNumber":96,"Velocity":68,"Duration":106636,"SoundDuration":106636,"Delta":57733102},{"NoteNumber":84,"Velocity":78,"Duration":107142,"SoundDuration":107142,"Delta":57839738},{"NoteNumber":93,"Velocity":72,"Duration":107142,"SoundDuration":107142,"Delta":57946881},{"NoteNumber":101,"Velocity":73,"Duration":107142,"SoundDuration":107142,"Delta":58054023},{"NoteNumber":89,"Velocity":74,"Duration":107142,"SoundDuration":107142,"Delta":58161166},{"NoteNumber":92,"Velocity":76,"Duration":107526,"SoundDuration":107526,"Delta":58268309},{"NoteNumber":47,"Velocity":63,"Duration":215054,"SoundDuration":215054,"Delta":58268309},{"NoteNumber":101,"Velocity":80,"Duration":107527,"SoundDuration":107527,"Delta":58375836},{"NoteNumber":100,"Velocity":79,"Duration":104894,"SoundDuration":104894,"Delta":58483363},{"NoteNumber":62,"Velocity":51,"Duration":1072014,"SoundDuration":1072014,"Delta":58483363},{"NoteNumber":99,"Velocity":76,"Duration":104895,"SoundDuration":104895,"Delta":58588258},{"NoteNumber":98,"Velocity":75,"Duration":105263,"SoundDuration":105263,"Delta":58693153},{"NoteNumber":101,"Velocity":70,"Duration":422663,"SoundDuration":422663,"Delta":58693153},{"NoteNumber":65,"Velocity":53,"Duration":862223,"SoundDuration":862223,"Delta":58693153},{"NoteNumber":97,"Velocity":72,"Duration":105510,"SoundDuration":105510,"Delta":58798416},{"NoteNumber":96,"Velocity":72,"Duration":105758,"SoundDuration":105758,"Delta":58903926},{"NoteNumber":68,"Velocity":56,"Duration":211890,"SoundDuration":211890,"Delta":58903926},{"NoteNumber":95,"Velocity":70,"Duration":106132,"SoundDuration":106132,"Delta":59009685},{"NoteNumber":92,"Velocity":62,"Duration":109890,"SoundDuration":109890,"Delta":59115817},{"NoteNumber":98,"Velocity":74,"Duration":219780,"SoundDuration":219780,"Delta":59115817},{"NoteNumber":71,"Velocity":58,"Duration":439560,"SoundDuration":439560,"Delta":59115817},{"NoteNumber":86,"Velocity":70,"Duration":109890,"SoundDuration":109890,"Delta":59225707},{"NoteNumber":91,"Velocity":57,"Duration":109890,"SoundDuration":109890,"Delta":59335597},{"NoteNumber":95,"Velocity":69,"Duration":219780,"SoundDuration":219780,"Delta":59335597},{"NoteNumber":67,"Velocity":56,"Duration":219780,"SoundDuration":219780,"Delta":59335597},{"NoteNumber":89,"Velocity":67,"Duration":109890,"SoundDuration":109890,"Delta":59445487},{"NoteNumber":96,"Velocity":74,"Duration":428122,"SoundDuration":428122,"Delta":59555377},{"NoteNumber":88,"Velocity":63,"Duration":108303,"SoundDuration":108303,"Delta":59555377},{"NoteNumber":48,"Velocity":63,"Duration":216606,"SoundDuration":216606,"Delta":59555377},{"NoteNumber":94,"Velocity":64,"Duration":108303,"SoundDuration":108303,"Delta":59663680},{"NoteNumber":93,"Velocity":63,"Duration":105633,"SoundDuration":105633,"Delta":59771983},{"NoteNumber":55,"Velocity":46,"Duration":1078383,"SoundDuration":1078383,"Delta":59771983},{"NoteNumber":92,"Velocity":61,"Duration":105882,"SoundDuration":105882,"Delta":59877617},{"NoteNumber":91,"Velocity":56,"Duration":106257,"SoundDuration":106257,"Delta":59983500},{"NoteNumber":96,"Velocity":67,"Duration":427307,"SoundDuration":427307,"Delta":59983500},{"NoteNumber":58,"Velocity":48,"Duration":866867,"SoundDuration":866867,"Delta":59983500},{"NoteNumber":90,"Velocity":54,"Duration":106635,"SoundDuration":106635,"Delta":60089757},{"NoteNumber":89,"Velocity":53,"Duration":107015,"SoundDuration":107015,"Delta":60196393},{"NoteNumber":61,"Velocity":50,"Duration":214414,"SoundDuration":214414,"Delta":60196393},{"NoteNumber":88,"Velocity":53,"Duration":107398,"SoundDuration":107398,"Delta":60303408},{"NoteNumber":85,"Velocity":48,"Duration":109890,"SoundDuration":109890,"Delta":60410807},{"NoteNumber":91,"Velocity":56,"Duration":219780,"SoundDuration":219780,"Delta":60410807},{"NoteNumber":64,"Velocity":52,"Duration":439560,"SoundDuration":439560,"Delta":60410807},{"NoteNumber":79,"Velocity":46,"Duration":109890,"SoundDuration":109890,"Delta":60520697},{"NoteNumber":88,"Velocity":51,"Duration":219780,"SoundDuration":219780,"Delta":60630587},{"NoteNumber":84,"Velocity":43,"Duration":109890,"SoundDuration":109890,"Delta":60630587},{"NoteNumber":60,"Velocity":49,"Duration":219780,"SoundDuration":219780,"Delta":60630587},{"NoteNumber":82,"Velocity":43,"Duration":109890,"SoundDuration":109890,"Delta":60740477},{"NoteNumber":84,"Velocity":43,"Duration":108695,"SoundDuration":108695,"Delta":60850367},{"NoteNumber":41,"Velocity":43,"Duration":217391,"SoundDuration":217391,"Delta":60850367},{"NoteNumber":89,"Velocity":38,"Duration":108695,"SoundDuration":108695,"Delta":60959063},{"NoteNumber":93,"Velocity":47,"Duration":217391,"SoundDuration":217391,"Delta":60959063},{"NoteNumber":81,"Velocity":43,"Duration":108695,"SoundDuration":108695,"Delta":61067759},{"NoteNumber":63,"Velocity":35,"Duration":217391,"SoundDuration":217391,"Delta":61067759},{"NoteNumber":72,"Velocity":43,"Duration":217391,"SoundDuration":217391,"Delta":61067759},{"NoteNumber":78,"Velocity":43,"Duration":108695,"SoundDuration":108695,"Delta":61176455},{"NoteNumber":77,"Velocity":43,"Duration":110294,"SoundDuration":110294,"Delta":61285150},{"NoteNumber":62,"Velocity":32,"Duration":220587,"SoundDuration":220587,"Delta":61285150},{"NoteNumber":70,"Velocity":38,"Duration":220587,"SoundDuration":220587,"Delta":61285150},{"NoteNumber":86,"Velocity":38,"Duration":110293,"SoundDuration":110293,"Delta":61395444},{"NoteNumber":89,"Velocity":47,"Duration":220587,"SoundDuration":220587,"Delta":61395444},{"NoteNumber":77,"Velocity":44,"Duration":110294,"SoundDuration":110294,"Delta":61505738},{"NoteNumber":61,"Velocity":37,"Duration":441175,"SoundDuration":441175,"Delta":61505738},{"NoteNumber":65,"Velocity":44,"Duration":441175,"SoundDuration":441175,"Delta":61505738},{"NoteNumber":58,"Velocity":37,"Duration":220587,"SoundDuration":220587,"Delta":61505738},{"NoteNumber":73,"Velocity":44,"Duration":110293,"SoundDuration":110293,"Delta":61616032},{"NoteNumber":72,"Velocity":44,"Duration":110294,"SoundDuration":110294,"Delta":61726326},{"NoteNumber":60,"Velocity":44,"Duration":661763,"SoundDuration":661763,"Delta":61726326},{"NoteNumber":57,"Velocity":37,"Duration":220587,"SoundDuration":220587,"Delta":61726326},{"NoteNumber":84,"Velocity":48,"Duration":220587,"SoundDuration":220587,"Delta":61836620},{"NoteNumber":81,"Velocity":40,"Duration":110293,"SoundDuration":110293,"Delta":61836620},{"NoteNumber":72,"Velocity":44,"Duration":110294,"SoundDuration":110294,"Delta":61946914},{"NoteNumber":64,"Velocity":38,"Duration":220587,"SoundDuration":220587,"Delta":61946914},{"NoteNumber":55,"Velocity":32,"Duration":220587,"SoundDuration":220587,"Delta":61946914},{"NoteNumber":70,"Velocity":44,"Duration":110293,"SoundDuration":110293,"Delta":62057208},{"NoteNumber":69,"Velocity":44,"Duration":110294,"SoundDuration":110294,"Delta":62167502},{"NoteNumber":53,"Velocity":38,"Duration":220587,"SoundDuration":220587,"Delta":62167502},{"NoteNumber":65,"Velocity":38,"Duration":220587,"SoundDuration":220587,"Delta":62167502},{"NoteNumber":77,"Velocity":40,"Duration":110293,"SoundDuration":110293,"Delta":62277796},{"NoteNumber":81,"Velocity":48,"Duration":223930,"SoundDuration":223930,"Delta":62277796},{"NoteNumber":69,"Velocity":44,"Duration":113636,"SoundDuration":113636,"Delta":62388090},{"NoteNumber":65,"Velocity":44,"Duration":113636,"SoundDuration":113636,"Delta":62501727},{"NoteNumber":41,"Velocity":27,"Duration":454545,"SoundDuration":454545,"Delta":62615363},{"NoteNumber":48,"Velocity":28,"Duration":426135,"SoundDuration":426135,"Delta":62643772},{"NoteNumber":53,"Velocity":29,"Duration":397726,"SoundDuration":397726,"Delta":62672181},{"NoteNumber":57,"Velocity":36,"Duration":369317,"SoundDuration":369317,"Delta":62700590},{"NoteNumber":60,"Velocity":40,"Duration":340908,"SoundDuration":340908,"Delta":62728999},{"NoteNumber":93,"Velocity":65,"Duration":111524,"SoundDuration":111524,"Delta":63297180},{"NoteNumber":96,"Velocity":77,"Duration":223048,"SoundDuration":223048,"Delta":63297180},{"NoteNumber":87,"Velocity":72,"Duration":223048,"SoundDuration":223048,"Delta":63297180},{"NoteNumber":84,"Velocity":59,"Duration":111524,"SoundDuration":111524,"Delta":63408705},{"NoteNumber":90,"Velocity":71,"Duration":111524,"SoundDuration":111524,"Delta":63408705},{"NoteNumber":91,"Velocity":75,"Duration":215053,"SoundDuration":215053,"Delta":63520229},{"NoteNumber":88,"Velocity":77,"Duration":215053,"SoundDuration":215053,"Delta":63520229},{"NoteNumber":84,"Velocity":68,"Duration":107526,"SoundDuration":107526,"Delta":63627756},{"NoteNumber":81,"Velocity":63,"Duration":111524,"SoundDuration":111524,"Delta":63735283},{"NoteNumber":84,"Velocity":74,"Duration":223048,"SoundDuration":223048,"Delta":63735283},{"NoteNumber":75,"Velocity":71,"Duration":223048,"SoundDuration":223048,"Delta":63735283},{"NoteNumber":72,"Velocity":54,"Duration":111524,"SoundDuration":111524,"Delta":63846807},{"NoteNumber":78,"Velocity":65,"Duration":111524,"SoundDuration":111524,"Delta":63846807},{"NoteNumber":79,"Velocity":71,"Duration":215053,"SoundDuration":215053,"Delta":63958331},{"NoteNumber":76,"Velocity":76,"Duration":215053,"SoundDuration":215053,"Delta":63958331},{"NoteNumber":72,"Velocity":63,"Duration":107526,"SoundDuration":107526,"Delta":64065858},{"NoteNumber":69,"Velocity":58,"Duration":111110,"SoundDuration":111110,"Delta":64173385},{"NoteNumber":72,"Velocity":69,"Duration":222222,"SoundDuration":222222,"Delta":64173385},{"NoteNumber":63,"Velocity":66,"Duration":222222,"SoundDuration":222222,"Delta":64173385},{"NoteNumber":60,"Velocity":51,"Duration":111111,"SoundDuration":111111,"Delta":64284496},{"NoteNumber":66,"Velocity":60,"Duration":111111,"SoundDuration":111111,"Delta":64284496},{"NoteNumber":67,"Velocity":64,"Duration":215053,"SoundDuration":215053,"Delta":64395607},{"NoteNumber":64,"Velocity":72,"Duration":215053,"SoundDuration":215053,"Delta":64395607},{"NoteNumber":65,"Velocity":63,"Duration":107526,"SoundDuration":107526,"Delta":64503134},{"NoteNumber":67,"Velocity":71,"Duration":229884,"SoundDuration":229884,"Delta":64610661},{"NoteNumber":64,"Velocity":59,"Duration":114942,"SoundDuration":114942,"Delta":64610661},{"NoteNumber":34,"Velocity":55,"Duration":229884,"SoundDuration":229884,"Delta":64610661},{"NoteNumber":46,"Velocity":67,"Duration":229884,"SoundDuration":229884,"Delta":64610661},{"NoteNumber":62,"Velocity":65,"Duration":114942,"SoundDuration":114942,"Delta":64725604},{"NoteNumber":69,"Velocity":69,"Duration":239999,"SoundDuration":239999,"Delta":64840546},{"NoteNumber":61,"Velocity":58,"Duration":120000,"SoundDuration":120000,"Delta":64840546},{"NoteNumber":33,"Velocity":64,"Duration":239999,"SoundDuration":239999,"Delta":64840546},{"NoteNumber":45,"Velocity":76,"Duration":239999,"SoundDuration":239999,"Delta":64840546},{"NoteNumber":58,"Velocity":58,"Duration":119999,"SoundDuration":119999,"Delta":64960546},{"NoteNumber":64,"Velocity":58,"Duration":1117794,"SoundDuration":1117794,"Delta":65080546},{"NoteNumber":57,"Velocity":54,"Duration":111110,"SoundDuration":111110,"Delta":65080546},{"NoteNumber":52,"Velocity":47,"Duration":111111,"SoundDuration":111111,"Delta":65191657},{"NoteNumber":67,"Velocity":63,"Duration":222222,"SoundDuration":222222,"Delta":65302768},{"NoteNumber":49,"Velocity":52,"Duration":111110,"SoundDuration":111110,"Delta":65302768},{"NoteNumber":46,"Velocity":51,"Duration":111111,"SoundDuration":111111,"Delta":65413879},{"NoteNumber":70,"Velocity":68,"Duration":222222,"SoundDuration":222222,"Delta":65524990},{"NoteNumber":45,"Velocity":49,"Duration":111110,"SoundDuration":111110,"Delta":65524990},{"NoteNumber":43,"Velocity":48,"Duration":111111,"SoundDuration":111111,"Delta":65636101},{"NoteNumber":69,"Velocity":57,"Duration":225564,"SoundDuration":225564,"Delta":65747212},{"NoteNumber":73,"Velocity":70,"Duration":451127,"SoundDuration":451127,"Delta":65747212},{"NoteNumber":40,"Velocity":47,"Duration":112781,"SoundDuration":112781,"Delta":65747212},{"NoteNumber":37,"Velocity":50,"Duration":112782,"SoundDuration":112782,"Delta":65859994},{"NoteNumber":67,"Velocity":69,"Duration":225563,"SoundDuration":225563,"Delta":65972776},{"NoteNumber":34,"Velocity":53,"Duration":112781,"SoundDuration":112781,"Delta":65972776},{"NoteNumber":33,"Velocity":55,"Duration":112781,"SoundDuration":112781,"Delta":66085558},{"NoteNumber":74,"Velocity":66,"Duration":238397,"SoundDuration":238397,"Delta":66198340},{"NoteNumber":65,"Velocity":63,"Duration":238397,"SoundDuration":238397,"Delta":66198340},{"NoteNumber":38,"Velocity":58,"Duration":117915,"SoundDuration":117915,"Delta":66198340},{"NoteNumber":41,"Velocity":58,"Duration":120481,"SoundDuration":120481,"Delta":66316256},{"NoteNumber":85,"Velocity":65,"Duration":111524,"SoundDuration":111524,"Delta":66436738},{"NoteNumber":93,"Velocity":77,"Duration":223048,"SoundDuration":223048,"Delta":66436738},{"NoteNumber":45,"Velocity":59,"Duration":111524,"SoundDuration":111524,"Delta":66436738},{"NoteNumber":79,"Velocity":59,"Duration":111524,"SoundDuration":111524,"Delta":66548262},{"NoteNumber":88,"Velocity":71,"Duration":111524,"SoundDuration":111524,"Delta":66548262},{"NoteNumber":49,"Velocity":60,"Duration":111524,"SoundDuration":111524,"Delta":66548262},{"NoteNumber":86,"Velocity":65,"Duration":107527,"SoundDuration":107527,"Delta":66659786},{"NoteNumber":89,"Velocity":75,"Duration":215053,"SoundDuration":215053,"Delta":66659786},{"NoteNumber":50,"Velocity":60,"Duration":107527,"SoundDuration":107527,"Delta":66659786},{"NoteNumber":77,"Velocity":68,"Duration":107526,"SoundDuration":107526,"Delta":66767313},{"NoteNumber":53,"Velocity":61,"Duration":107526,"SoundDuration":107526,"Delta":66767313},{"NoteNumber":72,"Velocity":63,"Duration":111524,"SoundDuration":111524,"Delta":66874840},{"NoteNumber":81,"Velocity":74,"Duration":223048,"SoundDuration":223048,"Delta":66874840},{"NoteNumber":57,"Velocity":62,"Duration":111524,"SoundDuration":111524,"Delta":66874840},{"NoteNumber":67,"Velocity":54,"Duration":111524,"SoundDuration":111524,"Delta":66986364},{"NoteNumber":76,"Velocity":65,"Duration":111524,"SoundDuration":111524,"Delta":66986364},{"NoteNumber":61,"Velocity":63,"Duration":111524,"SoundDuration":111524,"Delta":66986364},{"NoteNumber":74,"Velocity":65,"Duration":107527,"SoundDuration":107527,"Delta":67097889},{"NoteNumber":77,"Velocity":71,"Duration":215053,"SoundDuration":215053,"Delta":67097889},{"NoteNumber":62,"Velocity":63,"Duration":107527,"SoundDuration":107527,"Delta":67097889},{"NoteNumber":64,"Velocity":63,"Duration":107526,"SoundDuration":107526,"Delta":67205416},{"NoteNumber":65,"Velocity":58,"Duration":114942,"SoundDuration":114942,"Delta":67312943},{"NoteNumber":71,"Velocity":69,"Duration":229884,"SoundDuration":229884,"Delta":67312943},{"NoteNumber":37,"Velocity":55,"Duration":229884,"SoundDuration":229884,"Delta":67312943},{"NoteNumber":49,"Velocity":67,"Duration":229884,"SoundDuration":229884,"Delta":67312943},{"NoteNumber":67,"Velocity":60,"Duration":114942,"SoundDuration":114942,"Delta":67427885},{"NoteNumber":68,"Velocity":63,"Duration":110701,"SoundDuration":110701,"Delta":67542828},{"NoteNumber":72,"Velocity":68,"Duration":446120,"SoundDuration":446120,"Delta":67542828},{"NoteNumber":36,"Velocity":64,"Duration":221401,"SoundDuration":221401,"Delta":67542828},{"NoteNumber":48,"Velocity":76,"Duration":221401,"SoundDuration":221401,"Delta":67542828},{"NoteNumber":65,"Velocity":63,"Duration":110700,"SoundDuration":110700,"Delta":67653529},{"NoteNumber":64,"Velocity":58,"Duration":112359,"SoundDuration":112359,"Delta":67764230},{"NoteNumber":55,"Velocity":57,"Duration":1151606,"SoundDuration":1151606,"Delta":67764230},{"NoteNumber":67,"Velocity":63,"Duration":112359,"SoundDuration":112359,"Delta":67876589},{"NoteNumber":70,"Velocity":55,"Duration":114942,"SoundDuration":114942,"Delta":67988949},{"NoteNumber":58,"Velocity":61,"Duration":229884,"SoundDuration":229884,"Delta":67988949},{"NoteNumber":73,"Velocity":53,"Duration":114942,"SoundDuration":114942,"Delta":68103891},{"NoteNumber":76,"Velocity":52,"Duration":113207,"SoundDuration":113207,"Delta":68218834},{"NoteNumber":61,"Velocity":64,"Duration":226415,"SoundDuration":226415,"Delta":68218834},{"NoteNumber":79,"Velocity":52,"Duration":113207,"SoundDuration":113207,"Delta":68332041},{"NoteNumber":82,"Velocity":49,"Duration":117647,"SoundDuration":117647,"Delta":68445249},{"NoteNumber":60,"Velocity":57,"Duration":235293,"SoundDuration":235293,"Delta":68445249},{"NoteNumber":64,"Velocity":68,"Duration":702248,"SoundDuration":702248,"Delta":68445249},{"NoteNumber":84,"Velocity":51,"Duration":468771,"SoundDuration":468771,"Delta":68562896},{"NoteNumber":88,"Velocity":51,"Duration":351124,"SoundDuration":351124,"Delta":68680543},{"NoteNumber":58,"Velocity":63,"Duration":235294,"SoundDuration":235294,"Delta":68680543},{"NoteNumber":91,"Velocity":52,"Duration":233477,"SoundDuration":233477,"Delta":68798190},{"NoteNumber":96,"Velocity":54,"Duration":231660,"SoundDuration":231660,"Delta":68915837},{"NoteNumber":60,"Velocity":59,"Duration":231660,"SoundDuration":231660,"Delta":68915837},{"NoteNumber":57,"Velocity":59,"Duration":231660,"SoundDuration":231660,"Delta":68915837},{"NoteNumber":84,"Velocity":48,"Duration":231659,"SoundDuration":231659,"Delta":69031667},{"NoteNumber":96,"Velocity":53,"Duration":231659,"SoundDuration":231659,"Delta":69147497},{"NoteNumber":60,"Velocity":42,"Duration":476557,"SoundDuration":476557,"Delta":69147497},{"NoteNumber":65,"Velocity":50,"Duration":476557,"SoundDuration":476557,"Delta":69147497},{"NoteNumber":89,"Velocity":49,"Duration":115830,"SoundDuration":115830,"Delta":69263327},{"NoteNumber":83,"Velocity":56,"Duration":244898,"SoundDuration":244898,"Delta":69379157},{"NoteNumber":95,"Velocity":56,"Duration":122449,"SoundDuration":122449,"Delta":69379157},{"NoteNumber":55,"Velocity":54,"Duration":506291,"SoundDuration":506291,"Delta":69379157},{"NoteNumber":92,"Velocity":51,"Duration":122449,"SoundDuration":122449,"Delta":69501606},{"NoteNumber":86,"Velocity":52,"Duration":261393,"SoundDuration":261393,"Delta":69624055},{"NoteNumber":91,"Velocity":52,"Duration":122448,"SoundDuration":122448,"Delta":69624055},{"NoteNumber":65,"Velocity":49,"Duration":261393,"SoundDuration":261393,"Delta":69624055},{"NoteNumber":59,"Velocity":42,"Duration":261393,"SoundDuration":261393,"Delta":69624055},{"NoteNumber":89,"Velocity":54,"Duration":138944,"SoundDuration":138944,"Delta":69746504},{"NoteNumber":93,"Velocity":46,"Duration":38860,"SoundDuration":38860,"Delta":69846588},{"NoteNumber":91,"Velocity":54,"Duration":270398,"SoundDuration":270398,"Delta":69885448},{"NoteNumber":88,"Velocity":46,"Duration":196506,"SoundDuration":196506,"Delta":69885448},{"NoteNumber":60,"Velocity":45,"Duration":270398,"SoundDuration":270398,"Delta":69885448},{"NoteNumber":48,"Velocity":37,"Duration":552197,"SoundDuration":552197,"Delta":69885448},{"NoteNumber":85,"Velocity":52,"Duration":73891,"SoundDuration":73891,"Delta":70081955},{"NoteNumber":89,"Velocity":45,"Duration":36945,"SoundDuration":36945,"Delta":70118901},{"NoteNumber":88,"Velocity":56,"Duration":281799,"SoundDuration":281799,"Delta":70155846},{"NoteNumber":84,"Velocity":47,"Duration":206422,"SoundDuration":206422,"Delta":70155846},{"NoteNumber":58,"Velocity":37,"Duration":281799,"SoundDuration":281799,"Delta":70155846},{"NoteNumber":55,"Velocity":37,"Duration":281799,"SoundDuration":281799,"Delta":70155846},{"NoteNumber":64,"Velocity":44,"Duration":281799,"SoundDuration":281799,"Delta":70155846},{"NoteNumber":82,"Velocity":52,"Duration":75376,"SoundDuration":75376,"Delta":70362269},{"NoteNumber":86,"Velocity":45,"Duration":37688,"SoundDuration":37688,"Delta":70399957},{"NoteNumber":84,"Velocity":54,"Duration":292051,"SoundDuration":292051,"Delta":70437645},{"NoteNumber":81,"Velocity":46,"Duration":212264,"SoundDuration":212264,"Delta":70437645},{"NoteNumber":65,"Velocity":45,"Duration":292051,"SoundDuration":292051,"Delta":70437645},{"NoteNumber":53,"Velocity":37,"Duration":622442,"SoundDuration":622442,"Delta":70437645},{"NoteNumber":78,"Velocity":52,"Duration":79787,"SoundDuration":79787,"Delta":70649910},{"NoteNumber":82,"Velocity":49,"Duration":39893,"SoundDuration":39893,"Delta":70689803},{"NoteNumber":81,"Velocity":54,"Duration":330390,"SoundDuration":330390,"Delta":70729697},{"NoteNumber":77,"Velocity":47,"Duration":238365,"SoundDuration":238365,"Delta":70729697},{"NoteNumber":63,"Velocity":33,"Duration":330390,"SoundDuration":330390,"Delta":70729697},{"NoteNumber":60,"Velocity":33,"Duration":330390,"SoundDuration":330390,"Delta":70729697},{"NoteNumber":69,"Velocity":40,"Duration":330390,"SoundDuration":330390,"Delta":70729697},{"NoteNumber":75,"Velocity":52,"Duration":92024,"SoundDuration":92024,"Delta":70968063},{"NoteNumber":82,"Velocity":67,"Duration":371397,"SoundDuration":371397,"Delta":71060087},{"NoteNumber":74,"Velocity":67,"Duration":124481,"SoundDuration":124481,"Delta":71060087},{"NoteNumber":58,"Velocity":67,"Duration":982919,"SoundDuration":982919,"Delta":71060087},{"NoteNumber":79,"Velocity":61,"Duration":123796,"SoundDuration":123796,"Delta":71184569},{"NoteNumber":82,"Velocity":64,"Duration":245402,"SoundDuration":245402,"Delta":71308366},{"NoteNumber":67,"Velocity":51,"Duration":734641,"SoundDuration":734641,"Delta":71308366},{"NoteNumber":65,"Velocity":43,"Duration":734641,"SoundDuration":734641,"Delta":71308366},{"NoteNumber":62,"Velocity":43,"Duration":734641,"SoundDuration":734641,"Delta":71308366},{"NoteNumber":85,"Velocity":66,"Duration":122283,"SoundDuration":122283,"Delta":71431485},{"NoteNumber":86,"Velocity":68,"Duration":121786,"SoundDuration":121786,"Delta":71553768},{"NoteNumber":91,"Velocity":70,"Duration":121130,"SoundDuration":121130,"Delta":71675555},{"NoteNumber":94,"Velocity":72,"Duration":120321,"SoundDuration":120321,"Delta":71796686},{"NoteNumber":97,"Velocity":74,"Duration":125999,"SoundDuration":125999,"Delta":71917007},{"NoteNumber":98,"Velocity":76,"Duration":357142,"SoundDuration":357142,"Delta":72043007},{"NoteNumber":48,"Velocity":51,"Duration":238095,"SoundDuration":238095,"Delta":72043007},{"NoteNumber":60,"Velocity":60,"Duration":238095,"SoundDuration":238095,"Delta":72043007},{"NoteNumber":88,"Velocity":54,"Duration":368529,"SoundDuration":368529,"Delta":72162054},{"NoteNumber":90,"Velocity":68,"Duration":119047,"SoundDuration":119047,"Delta":72162054},{"NoteNumber":91,"Velocity":63,"Duration":119047,"SoundDuration":119047,"Delta":72281102},{"NoteNumber":64,"Velocity":68,"Duration":487577,"SoundDuration":487577,"Delta":72281102},{"NoteNumber":60,"Velocity":57,"Duration":487577,"SoundDuration":487577,"Delta":72281102},{"NoteNumber":58,"Velocity":57,"Duration":487577,"SoundDuration":487577,"Delta":72281102},{"NoteNumber":55,"Velocity":57,"Duration":487577,"SoundDuration":487577,"Delta":72281102},{"NoteNumber":96,"Velocity":60,"Duration":130434,"SoundDuration":130434,"Delta":72400149},{"NoteNumber":93,"Velocity":76,"Duration":357142,"SoundDuration":357142,"Delta":72530584},{"NoteNumber":84,"Velocity":52,"Duration":367405,"SoundDuration":367405,"Delta":72649631},{"NoteNumber":87,"Velocity":65,"Duration":119047,"SoundDuration":119047,"Delta":72649631},{"NoteNumber":88,"Velocity":60,"Duration":119047,"SoundDuration":119047,"Delta":72768679},{"NoteNumber":70,"Velocity":68,"Duration":486452,"SoundDuration":486452,"Delta":72768679},{"NoteNumber":67,"Velocity":57,"Duration":486452,"SoundDuration":486452,"Delta":72768679},{"NoteNumber":60,"Velocity":57,"Duration":486452,"SoundDuration":486452,"Delta":72768679},{"NoteNumber":91,"Velocity":59,"Duration":129310,"SoundDuration":129310,"Delta":72887726},{"NoteNumber":89,"Velocity":75,"Duration":357142,"SoundDuration":357142,"Delta":73017037},{"NoteNumber":82,"Velocity":52,"Duration":367965,"SoundDuration":367965,"Delta":73136084},{"NoteNumber":85,"Velocity":60,"Duration":119047,"SoundDuration":119047,"Delta":73136084},{"NoteNumber":84,"Velocity":56,"Duration":119047,"SoundDuration":119047,"Delta":73255132},{"NoteNumber":52,"Velocity":56,"Duration":248917,"SoundDuration":248917,"Delta":73255132},{"NoteNumber":58,"Velocity":67,"Duration":248917,"SoundDuration":248917,"Delta":73255132},{"NoteNumber":88,"Velocity":56,"Duration":129870,"SoundDuration":129870,"Delta":73374179},{"NoteNumber":89,"Velocity":73,"Duration":122449,"SoundDuration":122449,"Delta":73504049},{"NoteNumber":57,"Velocity":47,"Duration":244898,"SoundDuration":244898,"Delta":73504049},{"NoteNumber":60,"Velocity":56,"Duration":244898,"SoundDuration":244898,"Delta":73504049},{"NoteNumber":84,"Velocity":63,"Duration":122449,"SoundDuration":122449,"Delta":73626498},{"NoteNumber":81,"Velocity":66,"Duration":122448,"SoundDuration":122448,"Delta":73748947},{"NoteNumber":93,"Velocity":60,"Duration":139534,"SoundDuration":139534,"Delta":73871396},{"NoteNumber":41,"Velocity":47,"Duration":568925,"SoundDuration":568925,"Delta":74010931},{"NoteNumber":48,"Velocity":47,"Duration":534041,"SoundDuration":534041,"Delta":74045815},{"NoteNumber":53,"Velocity":56,"Duration":499157,"SoundDuration":499157,"Delta":74080699},{"NoteNumber":57,"Velocity":49,"Duration":464273,"SoundDuration":464273,"Delta":74115583},{"NoteNumber":60,"Velocity":49,"Duration":429389,"SoundDuration":429389,"Delta":74150466},{"NoteNumber":65,"Velocity":58,"Duration":394506,"SoundDuration":394506,"Delta":74185350},{"NoteNumber":93,"Velocity":65,"Duration":111524,"SoundDuration":111524,"Delta":74869711},{"NoteNumber":96,"Velocity":77,"Duration":223048,"SoundDuration":223048,"Delta":74869711},{"NoteNumber":87,"Velocity":72,"Duration":223048,"SoundDuration":223048,"Delta":74869711},{"NoteNumber":84,"Velocity":59,"Duration":111524,"SoundDuration":111524,"Delta":74981236},{"NoteNumber":90,"Velocity":71,"Duration":111524,"SoundDuration":111524,"Delta":74981236},{"NoteNumber":91,"Velocity":75,"Duration":215053,"SoundDuration":215053,"Delta":75092760},{"NoteNumber":88,"Velocity":77,"Duration":215053,"SoundDuration":215053,"Delta":75092760},{"NoteNumber":84,"Velocity":68,"Duration":107526,"SoundDuration":107526,"Delta":75200287},{"NoteNumber":81,"Velocity":63,"Duration":111524,"SoundDuration":111524,"Delta":75307814},{"NoteNumber":84,"Velocity":74,"Duration":223048,"SoundDuration":223048,"Delta":75307814},{"NoteNumber":75,"Velocity":71,"Duration":223048,"SoundDuration":223048,"Delta":75307814},{"NoteNumber":72,"Velocity":54,"Duration":111524,"SoundDuration":111524,"Delta":75419338},{"NoteNumber":78,"Velocity":65,"Duration":111524,"SoundDuration":111524,"Delta":75419338},{"NoteNumber":79,"Velocity":71,"Duration":212013,"SoundDuration":212013,"Delta":75530862},{"NoteNumber":76,"Velocity":76,"Duration":212013,"SoundDuration":212013,"Delta":75530862},{"NoteNumber":72,"Velocity":63,"Duration":106006,"SoundDuration":106006,"Delta":75636869},{"NoteNumber":69,"Velocity":58,"Duration":111110,"SoundDuration":111110,"Delta":75742876},{"NoteNumber":72,"Velocity":69,"Duration":222222,"SoundDuration":222222,"Delta":75742876},{"NoteNumber":63,"Velocity":66,"Duration":222222,"SoundDuration":222222,"Delta":75742876},{"NoteNumber":60,"Velocity":51,"Duration":111111,"SoundDuration":111111,"Delta":75853987},{"NoteNumber":66,"Velocity":60,"Duration":111111,"SoundDuration":111111,"Delta":75853987},{"NoteNumber":67,"Velocity":65,"Duration":212766,"SoundDuration":212766,"Delta":75965098},{"NoteNumber":64,"Velocity":72,"Duration":212766,"SoundDuration":212766,"Delta":75965098},{"NoteNumber":65,"Velocity":63,"Duration":106383,"SoundDuration":106383,"Delta":76071481},{"NoteNumber":67,"Velocity":71,"Duration":229007,"SoundDuration":229007,"Delta":76177864},{"NoteNumber":64,"Velocity":59,"Duration":114503,"SoundDuration":114503,"Delta":76177864},{"NoteNumber":34,"Velocity":55,"Duration":229007,"SoundDuration":229007,"Delta":76177864},{"NoteNumber":46,"Velocity":67,"Duration":229007,"SoundDuration":229007,"Delta":76177864},{"NoteNumber":62,"Velocity":65,"Duration":114503,"SoundDuration":114503,"Delta":76292368},{"NoteNumber":69,"Velocity":69,"Duration":238095,"SoundDuration":238095,"Delta":76406872},{"NoteNumber":61,"Velocity":58,"Duration":119047,"SoundDuration":119047,"Delta":76406872},{"NoteNumber":33,"Velocity":64,"Duration":238095,"SoundDuration":238095,"Delta":76406872},{"NoteNumber":45,"Velocity":76,"Duration":238095,"SoundDuration":238095,"Delta":76406872},{"NoteNumber":58,"Velocity":58,"Duration":119047,"SoundDuration":119047,"Delta":76525919},{"NoteNumber":64,"Velocity":58,"Duration":1122939,"SoundDuration":1122939,"Delta":76644967},{"NoteNumber":57,"Velocity":54,"Duration":111110,"SoundDuration":111110,"Delta":76644967},{"NoteNumber":52,"Velocity":47,"Duration":111111,"SoundDuration":111111,"Delta":76756078},{"NoteNumber":67,"Velocity":63,"Duration":222222,"SoundDuration":222222,"Delta":76867189},{"NoteNumber":49,"Velocity":52,"Duration":111110,"SoundDuration":111110,"Delta":76867189},{"NoteNumber":46,"Velocity":51,"Duration":111111,"SoundDuration":111111,"Delta":76978300},{"NoteNumber":70,"Velocity":68,"Duration":222222,"SoundDuration":222222,"Delta":77089411},{"NoteNumber":45,"Velocity":49,"Duration":111110,"SoundDuration":111110,"Delta":77089411},{"NoteNumber":43,"Velocity":48,"Duration":111111,"SoundDuration":111111,"Delta":77200522},{"NoteNumber":69,"Velocity":58,"Duration":228137,"SoundDuration":228137,"Delta":77311633},{"NoteNumber":73,"Velocity":70,"Duration":456273,"SoundDuration":456273,"Delta":77311633},{"NoteNumber":40,"Velocity":47,"Duration":114068,"SoundDuration":114068,"Delta":77311633},{"NoteNumber":37,"Velocity":49,"Duration":114068,"SoundDuration":114068,"Delta":77425701},{"NoteNumber":67,"Velocity":69,"Duration":228136,"SoundDuration":228136,"Delta":77539770},{"NoteNumber":34,"Velocity":51,"Duration":114068,"SoundDuration":114068,"Delta":77539770},{"NoteNumber":33,"Velocity":53,"Duration":114068,"SoundDuration":114068,"Delta":77653838},{"NoteNumber":74,"Velocity":66,"Duration":238826,"SoundDuration":238826,"Delta":77767907},{"NoteNumber":65,"Velocity":63,"Duration":238826,"SoundDuration":238826,"Delta":77767907},{"NoteNumber":38,"Velocity":55,"Duration":118344,"SoundDuration":118344,"Delta":77767907},{"NoteNumber":41,"Velocity":55,"Duration":120481,"SoundDuration":120481,"Delta":77886251},{"NoteNumber":85,"Velocity":65,"Duration":111524,"SoundDuration":111524,"Delta":78006733},{"NoteNumber":93,"Velocity":77,"Duration":223048,"SoundDuration":223048,"Delta":78006733},{"NoteNumber":45,"Velocity":56,"Duration":111524,"SoundDuration":111524,"Delta":78006733},{"NoteNumber":79,"Velocity":59,"Duration":111524,"SoundDuration":111524,"Delta":78118257},{"NoteNumber":88,"Velocity":71,"Duration":111524,"SoundDuration":111524,"Delta":78118257},{"NoteNumber":49,"Velocity":57,"Duration":111524,"SoundDuration":111524,"Delta":78118257},{"NoteNumber":86,"Velocity":65,"Duration":105633,"SoundDuration":105633,"Delta":78229782},{"NoteNumber":89,"Velocity":75,"Duration":211267,"SoundDuration":211267,"Delta":78229782},{"NoteNumber":50,"Velocity":57,"Duration":105633,"SoundDuration":105633,"Delta":78229782},{"NoteNumber":77,"Velocity":68,"Duration":105633,"SoundDuration":105633,"Delta":78335415},{"NoteNumber":53,"Velocity":58,"Duration":105633,"SoundDuration":105633,"Delta":78335415},{"NoteNumber":72,"Velocity":63,"Duration":111524,"SoundDuration":111524,"Delta":78441049},{"NoteNumber":81,"Velocity":74,"Duration":223048,"SoundDuration":223048,"Delta":78441049},{"NoteNumber":57,"Velocity":59,"Duration":111524,"SoundDuration":111524,"Delta":78441049},{"NoteNumber":67,"Velocity":54,"Duration":111524,"SoundDuration":111524,"Delta":78552573},{"NoteNumber":76,"Velocity":65,"Duration":111524,"SoundDuration":111524,"Delta":78552573},{"NoteNumber":61,"Velocity":60,"Duration":111524,"SoundDuration":111524,"Delta":78552573},{"NoteNumber":74,"Velocity":65,"Duration":106382,"SoundDuration":106382,"Delta":78664098},{"NoteNumber":77,"Velocity":71,"Duration":212766,"SoundDuration":212766,"Delta":78664098},{"NoteNumber":62,"Velocity":60,"Duration":106382,"SoundDuration":106382,"Delta":78664098},{"NoteNumber":64,"Velocity":63,"Duration":106383,"SoundDuration":106383,"Delta":78770481},{"NoteNumber":65,"Velocity":58,"Duration":117647,"SoundDuration":117647,"Delta":78876864},{"NoteNumber":71,"Velocity":69,"Duration":235293,"SoundDuration":235293,"Delta":78876864},{"NoteNumber":37,"Velocity":55,"Duration":235293,"SoundDuration":235293,"Delta":78876864},{"NoteNumber":49,"Velocity":67,"Duration":235293,"SoundDuration":235293,"Delta":78876864},{"NoteNumber":67,"Velocity":60,"Duration":117646,"SoundDuration":117646,"Delta":78994511},{"NoteNumber":68,"Velocity":63,"Duration":113636,"SoundDuration":113636,"Delta":79112158},{"NoteNumber":72,"Velocity":68,"Duration":451991,"SoundDuration":451991,"Delta":79112158},{"NoteNumber":36,"Velocity":64,"Duration":227272,"SoundDuration":227272,"Delta":79112158},{"NoteNumber":48,"Velocity":76,"Duration":227272,"SoundDuration":227272,"Delta":79112158},{"NoteNumber":65,"Velocity":63,"Duration":113636,"SoundDuration":113636,"Delta":79225794},{"NoteNumber":64,"Velocity":59,"Duration":112359,"SoundDuration":112359,"Delta":79339430},{"NoteNumber":55,"Velocity":58,"Duration":1161018,"SoundDuration":1161018,"Delta":79339430},{"NoteNumber":67,"Velocity":65,"Duration":112359,"SoundDuration":112359,"Delta":79451790},{"NoteNumber":70,"Velocity":56,"Duration":114942,"SoundDuration":114942,"Delta":79564149},{"NoteNumber":58,"Velocity":62,"Duration":229884,"SoundDuration":229884,"Delta":79564149},{"NoteNumber":73,"Velocity":54,"Duration":114942,"SoundDuration":114942,"Delta":79679092},{"NoteNumber":76,"Velocity":53,"Duration":113207,"SoundDuration":113207,"Delta":79794034},{"NoteNumber":61,"Velocity":65,"Duration":226415,"SoundDuration":226415,"Delta":79794034},{"NoteNumber":79,"Velocity":52,"Duration":113207,"SoundDuration":113207,"Delta":79907242},{"NoteNumber":82,"Velocity":50,"Duration":120000,"SoundDuration":120000,"Delta":80020449},{"NoteNumber":60,"Velocity":57,"Duration":239999,"SoundDuration":239999,"Delta":80020449},{"NoteNumber":64,"Velocity":69,"Duration":716220,"SoundDuration":716220,"Delta":80020449},{"NoteNumber":84,"Velocity":52,"Duration":478110,"SoundDuration":478110,"Delta":80140449},{"NoteNumber":88,"Velocity":52,"Duration":358110,"SoundDuration":358110,"Delta":80260449},{"NoteNumber":58,"Velocity":64,"Duration":240000,"SoundDuration":240000,"Delta":80260449},{"NoteNumber":91,"Velocity":53,"Duration":238110,"SoundDuration":238110,"Delta":80380449},{"NoteNumber":96,"Velocity":55,"Duration":236220,"SoundDuration":236220,"Delta":80500449},{"NoteNumber":60,"Velocity":60,"Duration":236220,"SoundDuration":236220,"Delta":80500449},{"NoteNumber":57,"Velocity":60,"Duration":236220,"SoundDuration":236220,"Delta":80500449},{"NoteNumber":84,"Velocity":49,"Duration":236220,"SoundDuration":236220,"Delta":80618559},{"NoteNumber":96,"Velocity":53,"Duration":236220,"SoundDuration":236220,"Delta":80736670},{"NoteNumber":60,"Velocity":42,"Duration":485550,"SoundDuration":485550,"Delta":80736670},{"NoteNumber":65,"Velocity":50,"Duration":485550,"SoundDuration":485550,"Delta":80736670},{"NoteNumber":89,"Velocity":49,"Duration":118110,"SoundDuration":118110,"Delta":80854780},{"NoteNumber":83,"Velocity":56,"Duration":249329,"SoundDuration":249329,"Delta":80972890},{"NoteNumber":95,"Velocity":56,"Duration":123628,"SoundDuration":123628,"Delta":80972890},{"NoteNumber":55,"Velocity":54,"Duration":521802,"SoundDuration":521802,"Delta":80972890},{"NoteNumber":92,"Velocity":51,"Duration":125701,"SoundDuration":125701,"Delta":81096519},{"NoteNumber":86,"Velocity":52,"Duration":272472,"SoundDuration":272472,"Delta":81222220},{"NoteNumber":91,"Velocity":52,"Duration":127843,"SoundDuration":127843,"Delta":81222220},{"NoteNumber":65,"Velocity":49,"Duration":272472,"SoundDuration":272472,"Delta":81222220},{"NoteNumber":59,"Velocity":42,"Duration":272472,"SoundDuration":272472,"Delta":81222220},{"NoteNumber":89,"Velocity":54,"Duration":144629,"SoundDuration":144629,"Delta":81350064},{"NoteNumber":93,"Velocity":46,"Duration":39893,"SoundDuration":39893,"Delta":81454799},{"NoteNumber":91,"Velocity":54,"Duration":281422,"SoundDuration":281422,"Delta":81494693},{"NoteNumber":88,"Velocity":46,"Duration":206422,"SoundDuration":206422,"Delta":81494693},{"NoteNumber":60,"Velocity":45,"Duration":281422,"SoundDuration":281422,"Delta":81494693},{"NoteNumber":48,"Velocity":37,"Duration":569022,"SoundDuration":569022,"Delta":81494693},{"NoteNumber":85,"Velocity":52,"Duration":75000,"SoundDuration":75000,"Delta":81701115},{"NoteNumber":89,"Velocity":45,"Duration":37500,"SoundDuration":37500,"Delta":81738615},{"NoteNumber":88,"Velocity":56,"Duration":287600,"SoundDuration":287600,"Delta":81776115},{"NoteNumber":84,"Velocity":47,"Duration":210280,"SoundDuration":210280,"Delta":81776115},{"NoteNumber":58,"Velocity":37,"Duration":287600,"SoundDuration":287600,"Delta":81776115},{"NoteNumber":55,"Velocity":37,"Duration":287600,"SoundDuration":287600,"Delta":81776115},{"NoteNumber":64,"Velocity":44,"Duration":287600,"SoundDuration":287600,"Delta":81776115},{"NoteNumber":82,"Velocity":52,"Duration":77319,"SoundDuration":77319,"Delta":81986396},{"NoteNumber":86,"Velocity":45,"Duration":38659,"SoundDuration":38659,"Delta":82025055},{"NoteNumber":84,"Velocity":54,"Duration":297811,"SoundDuration":297811,"Delta":82063715},{"NoteNumber":81,"Velocity":46,"Duration":218446,"SoundDuration":218446,"Delta":82063715},{"NoteNumber":65,"Velocity":45,"Duration":297811,"SoundDuration":297811,"Delta":82063715},{"NoteNumber":53,"Velocity":37,"Duration":619913,"SoundDuration":619913,"Delta":82063715},{"NoteNumber":78,"Velocity":52,"Duration":79365,"SoundDuration":79365,"Delta":82282162},{"NoteNumber":82,"Velocity":49,"Duration":39682,"SoundDuration":39682,"Delta":82321844},{"NoteNumber":81,"Velocity":54,"Duration":322101,"SoundDuration":322101,"Delta":82361527},{"NoteNumber":77,"Velocity":47,"Duration":233866,"SoundDuration":233866,"Delta":82361527},{"NoteNumber":63,"Velocity":33,"Duration":322101,"SoundDuration":322101,"Delta":82361527},{"NoteNumber":60,"Velocity":33,"Duration":322101,"SoundDuration":322101,"Delta":82361527},{"NoteNumber":69,"Velocity":40,"Duration":322101,"SoundDuration":322101,"Delta":82361527},{"NoteNumber":75,"Velocity":52,"Duration":88235,"SoundDuration":88235,"Delta":82595393},{"NoteNumber":82,"Velocity":60,"Duration":384466,"SoundDuration":384466,"Delta":82683628},{"NoteNumber":74,"Velocity":60,"Duration":129497,"SoundDuration":129497,"Delta":82683628},{"NoteNumber":58,"Velocity":60,"Duration":1004946,"SoundDuration":1004946,"Delta":82683628},{"NoteNumber":79,"Velocity":58,"Duration":128206,"SoundDuration":128206,"Delta":82813126},{"NoteNumber":82,"Velocity":61,"Duration":252286,"SoundDuration":252286,"Delta":82941333},{"NoteNumber":67,"Velocity":51,"Duration":747241,"SoundDuration":747241,"Delta":82941333},{"NoteNumber":65,"Velocity":43,"Duration":747241,"SoundDuration":747241,"Delta":82941333},{"NoteNumber":62,"Velocity":43,"Duration":747241,"SoundDuration":747241,"Delta":82941333},{"NoteNumber":85,"Velocity":64,"Duration":125524,"SoundDuration":125524,"Delta":83068095},{"NoteNumber":86,"Velocity":68,"Duration":124139,"SoundDuration":124139,"Delta":83193619},{"NoteNumber":91,"Velocity":70,"Duration":122952,"SoundDuration":122952,"Delta":83317758},{"NoteNumber":94,"Velocity":72,"Duration":121622,"SoundDuration":121622,"Delta":83440710},{"NoteNumber":97,"Velocity":74,"Duration":126241,"SoundDuration":126241,"Delta":83562333},{"NoteNumber":98,"Velocity":75,"Duration":357142,"SoundDuration":357142,"Delta":83688574},{"NoteNumber":48,"Velocity":51,"Duration":238095,"SoundDuration":238095,"Delta":83688574},{"NoteNumber":60,"Velocity":60,"Duration":238095,"SoundDuration":238095,"Delta":83688574},{"NoteNumber":88,"Velocity":54,"Duration":368529,"SoundDuration":368529,"Delta":83807622},{"NoteNumber":90,"Velocity":68,"Duration":119047,"SoundDuration":119047,"Delta":83807622},{"NoteNumber":91,"Velocity":62,"Duration":119047,"SoundDuration":119047,"Delta":83926669},{"NoteNumber":64,"Velocity":68,"Duration":487577,"SoundDuration":487577,"Delta":83926669},{"NoteNumber":60,"Velocity":57,"Duration":487577,"SoundDuration":487577,"Delta":83926669},{"NoteNumber":58,"Velocity":57,"Duration":487577,"SoundDuration":487577,"Delta":83926669},{"NoteNumber":55,"Velocity":57,"Duration":487577,"SoundDuration":487577,"Delta":83926669},{"NoteNumber":96,"Velocity":62,"Duration":130434,"SoundDuration":130434,"Delta":84045717},{"NoteNumber":93,"Velocity":76,"Duration":357142,"SoundDuration":357142,"Delta":84176152},{"NoteNumber":84,"Velocity":52,"Duration":367405,"SoundDuration":367405,"Delta":84295199},{"NoteNumber":87,"Velocity":65,"Duration":119047,"SoundDuration":119047,"Delta":84295199},{"NoteNumber":88,"Velocity":61,"Duration":119047,"SoundDuration":119047,"Delta":84414247},{"NoteNumber":70,"Velocity":68,"Duration":497320,"SoundDuration":497320,"Delta":84414247},{"NoteNumber":67,"Velocity":57,"Duration":497320,"SoundDuration":497320,"Delta":84414247},{"NoteNumber":60,"Velocity":57,"Duration":497320,"SoundDuration":497320,"Delta":84414247},{"NoteNumber":91,"Velocity":62,"Duration":129310,"SoundDuration":129310,"Delta":84533294},{"NoteNumber":89,"Velocity":75,"Duration":379397,"SoundDuration":379397,"Delta":84662604},{"NoteNumber":82,"Velocity":52,"Duration":400547,"SoundDuration":400547,"Delta":84787086},{"NoteNumber":85,"Velocity":60,"Duration":124481,"SoundDuration":124481,"Delta":84787086},{"NoteNumber":84,"Velocity":58,"Duration":130434,"SoundDuration":130434,"Delta":84911567},{"NoteNumber":52,"Velocity":56,"Duration":276065,"SoundDuration":276065,"Delta":84911567},{"NoteNumber":58,"Velocity":67,"Duration":276065,"SoundDuration":276065,"Delta":84911567},{"NoteNumber":88,"Velocity":59,"Duration":145630,"SoundDuration":145630,"Delta":85042002},{"NoteNumber":89,"Velocity":73,"Duration":132743,"SoundDuration":132743,"Delta":85187633},{"NoteNumber":57,"Velocity":47,"Duration":265486,"SoundDuration":265486,"Delta":85187633},{"NoteNumber":60,"Velocity":56,"Duration":265486,"SoundDuration":265486,"Delta":85187633},{"NoteNumber":84,"Velocity":63,"Duration":132743,"SoundDuration":132743,"Delta":85320376},{"NoteNumber":81,"Velocity":66,"Duration":140186,"SoundDuration":140186,"Delta":85453119},{"NoteNumber":93,"Velocity":60,"Duration":152284,"SoundDuration":152284,"Delta":85593306},{"NoteNumber":41,"Velocity":47,"Duration":609137,"SoundDuration":609137,"Delta":85745590},{"NoteNumber":48,"Velocity":47,"Duration":571065,"SoundDuration":571065,"Delta":85783661},{"NoteNumber":53,"Velocity":56,"Duration":532994,"SoundDuration":532994,"Delta":85821732},{"NoteNumber":57,"Velocity":49,"Duration":494923,"SoundDuration":494923,"Delta":85859804},{"NoteNumber":60,"Velocity":49,"Duration":456852,"SoundDuration":456852,"Delta":85897875},{"NoteNumber":65,"Velocity":58,"Duration":418781,"SoundDuration":418781,"Delta":85935946},{"NoteNumber":69,"Velocity":48,"Duration":576773,"SoundDuration":576773,"Delta":87713864},{"NoteNumber":60,"Velocity":32,"Duration":251908,"SoundDuration":251908,"Delta":87856044},{"NoteNumber":63,"Velocity":38,"Duration":251908,"SoundDuration":251908,"Delta":87856044},{"NoteNumber":54,"Velocity":44,"Duration":522539,"SoundDuration":522539,"Delta":87998224},{"NoteNumber":63,"Velocity":38,"Duration":135746,"SoundDuration":135746,"Delta":88133971},{"NoteNumber":60,"Velocity":32,"Duration":135746,"SoundDuration":135746,"Delta":88133971},{"NoteNumber":70,"Velocity":49,"Duration":492546,"SoundDuration":492546,"Delta":88269717},{"NoteNumber":64,"Velocity":41,"Duration":215949,"SoundDuration":215949,"Delta":88395240},{"NoteNumber":60,"Velocity":34,"Duration":215949,"SoundDuration":215949,"Delta":88395240},{"NoteNumber":55,"Velocity":46,"Duration":443640,"SoundDuration":443640,"Delta":88520763},{"NoteNumber":64,"Velocity":41,"Duration":111248,"SoundDuration":111248,"Delta":88632565},{"NoteNumber":60,"Velocity":34,"Duration":111248,"SoundDuration":111248,"Delta":88632565},{"NoteNumber":71,"Velocity":54,"Duration":456824,"SoundDuration":456824,"Delta":88743814},{"NoteNumber":62,"Velocity":36,"Duration":198471,"SoundDuration":198471,"Delta":88854379},{"NoteNumber":65,"Velocity":43,"Duration":198471,"SoundDuration":198471,"Delta":88854379},{"NoteNumber":56,"Velocity":49,"Duration":434013,"SoundDuration":434013,"Delta":88964404},{"NoteNumber":65,"Velocity":44,"Duration":108827,"SoundDuration":108827,"Delta":89073760},{"NoteNumber":62,"Velocity":37,"Duration":108827,"SoundDuration":108827,"Delta":89073760},{"NoteNumber":72,"Velocity":60,"Duration":447021,"SoundDuration":447021,"Delta":89182587},{"NoteNumber":60,"Velocity":38,"Duration":194208,"SoundDuration":194208,"Delta":89290761},{"NoteNumber":65,"Velocity":46,"Duration":194208,"SoundDuration":194208,"Delta":89290761},{"NoteNumber":57,"Velocity":51,"Duration":425538,"SoundDuration":425538,"Delta":89398417},{"NoteNumber":65,"Velocity":47,"Duration":106509,"SoundDuration":106509,"Delta":89505432},{"NoteNumber":60,"Velocity":39,"Duration":106509,"SoundDuration":106509,"Delta":89505432},{"NoteNumber":73,"Velocity":65,"Duration":438676,"SoundDuration":438676,"Delta":89611942},{"NoteNumber":67,"Velocity":48,"Duration":191695,"SoundDuration":191695,"Delta":89717949},{"NoteNumber":64,"Velocity":40,"Duration":191695,"SoundDuration":191695,"Delta":89717949},{"NoteNumber":58,"Velocity":53,"Duration":417214,"SoundDuration":417214,"Delta":89823956},{"NoteNumber":67,"Velocity":49,"Duration":103354,"SoundDuration":103354,"Delta":89929963},{"NoteNumber":64,"Velocity":41,"Duration":103354,"SoundDuration":103354,"Delta":89929963},{"NoteNumber":74,"Velocity":68,"Duration":434395,"SoundDuration":434395,"Delta":90033317},{"NoteNumber":65,"Velocity":43,"Duration":188420,"SoundDuration":188420,"Delta":90137123},{"NoteNumber":68,"Velocity":51,"Duration":188420,"SoundDuration":188420,"Delta":90137123},{"NoteNumber":59,"Velocity":55,"Duration":419464,"SoundDuration":419464,"Delta":90241170},{"NoteNumber":68,"Velocity":52,"Duration":104651,"SoundDuration":104651,"Delta":90345579},{"NoteNumber":65,"Velocity":43,"Duration":104651,"SoundDuration":104651,"Delta":90345579},{"NoteNumber":72,"Velocity":68,"Duration":445698,"SoundDuration":445698,"Delta":90450230},{"NoteNumber":64,"Velocity":44,"Duration":200484,"SoundDuration":200484,"Delta":90555248},{"NoteNumber":67,"Velocity":53,"Duration":200484,"SoundDuration":200484,"Delta":90555248},{"NoteNumber":60,"Velocity":58,"Duration":460012,"SoundDuration":460012,"Delta":90660634},{"NoteNumber":67,"Velocity":53,"Duration":117646,"SoundDuration":117646,"Delta":90778281},{"NoteNumber":64,"Velocity":45,"Duration":117646,"SoundDuration":117646,"Delta":90778281},{"NoteNumber":72,"Velocity":73,"Duration":433777,"SoundDuration":433777,"Delta":90895928},{"NoteNumber":65,"Velocity":46,"Duration":206436,"SoundDuration":206436,"Delta":91008288},{"NoteNumber":69,"Velocity":55,"Duration":206436,"SoundDuration":206436,"Delta":91008288},{"NoteNumber":53,"Velocity":61,"Duration":432939,"SoundDuration":432939,"Delta":91120647},{"NoteNumber":65,"Velocity":46,"Duration":104529,"SoundDuration":104529,"Delta":91225177},{"NoteNumber":69,"Velocity":55,"Duration":104529,"SoundDuration":104529,"Delta":91225177},{"NoteNumber":74,"Velocity":77,"Duration":452994,"SoundDuration":452994,"Delta":91329706},{"NoteNumber":69,"Velocity":55,"Duration":206677,"SoundDuration":206677,"Delta":91441647},{"NoteNumber":62,"Velocity":47,"Duration":206677,"SoundDuration":206677,"Delta":91441647},{"NoteNumber":54,"Velocity":63,"Duration":433575,"SoundDuration":433575,"Delta":91553587},{"NoteNumber":62,"Velocity":47,"Duration":105263,"SoundDuration":105263,"Delta":91658850},{"NoteNumber":69,"Velocity":55,"Duration":105263,"SoundDuration":105263,"Delta":91658850},{"NoteNumber":70,"Velocity":73,"Duration":457532,"SoundDuration":457532,"Delta":91764113},{"NoteNumber":67,"Velocity":53,"Duration":208646,"SoundDuration":208646,"Delta":91875638},{"NoteNumber":62,"Velocity":45,"Duration":208646,"SoundDuration":208646,"Delta":91875638},{"NoteNumber":55,"Velocity":60,"Duration":439708,"SoundDuration":439708,"Delta":91987162},{"NoteNumber":67,"Velocity":50,"Duration":107913,"SoundDuration":107913,"Delta":92095076},{"NoteNumber":62,"Velocity":42,"Duration":107913,"SoundDuration":107913,"Delta":92095076},{"NoteNumber":72,"Velocity":69,"Duration":449999,"SoundDuration":449999,"Delta":92202989},{"NoteNumber":60,"Velocity":44,"Duration":206016,"SoundDuration":206016,"Delta":92314930},{"NoteNumber":67,"Velocity":53,"Duration":206016,"SoundDuration":206016,"Delta":92314930},{"NoteNumber":52,"Velocity":58,"Duration":418249,"SoundDuration":418249,"Delta":92426870},{"NoteNumber":60,"Velocity":44,"Duration":104288,"SoundDuration":104288,"Delta":92531399},{"NoteNumber":67,"Velocity":53,"Duration":104288,"SoundDuration":104288,"Delta":92531399},{"NoteNumber":69,"Velocity":70,"Duration":441393,"SoundDuration":441393,"Delta":92635688},{"NoteNumber":65,"Velocity":49,"Duration":200971,"SoundDuration":200971,"Delta":92739855},{"NoteNumber":60,"Velocity":41,"Duration":200971,"SoundDuration":200971,"Delta":92739855},{"NoteNumber":53,"Velocity":54,"Duration":430518,"SoundDuration":430518,"Delta":92845119},{"NoteNumber":60,"Velocity":41,"Duration":107527,"SoundDuration":107527,"Delta":92951503},{"NoteNumber":65,"Velocity":49,"Duration":107527,"SoundDuration":107527,"Delta":92951503},{"NoteNumber":67,"Velocity":65,"Duration":452264,"SoundDuration":452264,"Delta":93059031},{"NoteNumber":61,"Velocity":49,"Duration":205776,"SoundDuration":205776,"Delta":93167334},{"NoteNumber":57,"Velocity":41,"Duration":205776,"SoundDuration":205776,"Delta":93167334},{"NoteNumber":52,"Velocity":51,"Duration":440882,"SoundDuration":440882,"Delta":93275637},{"NoteNumber":57,"Velocity":41,"Duration":108698,"SoundDuration":108698,"Delta":93383941},{"NoteNumber":61,"Velocity":49,"Duration":108698,"SoundDuration":108698,"Delta":93383941},{"NoteNumber":65,"Velocity":61,"Duration":449999,"SoundDuration":449999,"Delta":93492639},{"NoteNumber":57,"Velocity":40,"Duration":206016,"SoundDuration":206016,"Delta":93604579},{"NoteNumber":62,"Velocity":48,"Duration":206016,"SoundDuration":206016,"Delta":93604579},{"NoteNumber":50,"Velocity":49,"Duration":418249,"SoundDuration":418249,"Delta":93716520},{"NoteNumber":62,"Velocity":48,"Duration":104288,"SoundDuration":104288,"Delta":93821049},{"NoteNumber":57,"Velocity":40,"Duration":104288,"SoundDuration":104288,"Delta":93821049},{"NoteNumber":63,"Velocity":59,"Duration":441393,"SoundDuration":441393,"Delta":93925338},{"NoteNumber":57,"Velocity":46,"Duration":200971,"SoundDuration":200971,"Delta":94029505},{"NoteNumber":53,"Velocity":39,"Duration":200971,"SoundDuration":200971,"Delta":94029505},{"NoteNumber":48,"Velocity":49,"Duration":430518,"SoundDuration":430518,"Delta":94134769},{"NoteNumber":53,"Velocity":39,"Duration":107527,"SoundDuration":107527,"Delta":94241153},{"NoteNumber":57,"Velocity":46,"Duration":107527,"SoundDuration":107527,"Delta":94241153},{"NoteNumber":62,"Velocity":57,"Duration":452264,"SoundDuration":452264,"Delta":94348681},{"NoteNumber":53,"Velocity":38,"Duration":205776,"SoundDuration":205776,"Delta":94456984},{"NoteNumber":58,"Velocity":45,"Duration":205776,"SoundDuration":205776,"Delta":94456984},{"NoteNumber":46,"Velocity":48,"Duration":440882,"SoundDuration":440882,"Delta":94565287},{"NoteNumber":53,"Velocity":38,"Duration":108698,"SoundDuration":108698,"Delta":94673591},{"NoteNumber":58,"Velocity":45,"Duration":108698,"SoundDuration":108698,"Delta":94673591},{"NoteNumber":60,"Velocity":56,"Duration":458801,"SoundDuration":458801,"Delta":94782289},{"NoteNumber":50,"Velocity":36,"Duration":209766,"SoundDuration":209766,"Delta":94894229},{"NoteNumber":54,"Velocity":43,"Duration":209766,"SoundDuration":209766,"Delta":94894229},{"NoteNumber":45,"Velocity":47,"Duration":434527,"SoundDuration":434527,"Delta":95006170},{"NoteNumber":54,"Velocity":42,"Duration":108174,"SoundDuration":108174,"Delta":95114865},{"NoteNumber":50,"Velocity":35,"Duration":108174,"SoundDuration":108174,"Delta":95114865},{"NoteNumber":58,"Velocity":54,"Duration":457107,"SoundDuration":457107,"Delta":95223040},{"NoteNumber":55,"Velocity":42,"Duration":208218,"SoundDuration":208218,"Delta":95331474},{"NoteNumber":50,"Velocity":35,"Duration":208218,"SoundDuration":208218,"Delta":95331474},{"NoteNumber":43,"Velocity":46,"Duration":445308,"SoundDuration":445308,"Delta":95440697},{"NoteNumber":50,"Velocity":34,"Duration":110837,"SoundDuration":110837,"Delta":95550722},{"NoteNumber":55,"Velocity":41,"Duration":110837,"SoundDuration":110837,"Delta":95550722},{"NoteNumber":59,"Velocity":49,"Duration":495539,"SoundDuration":495539,"Delta":95661560},{"NoteNumber":50,"Velocity":32,"Duration":215444,"SoundDuration":215444,"Delta":95773223},{"NoteNumber":56,"Velocity":38,"Duration":215444,"SoundDuration":215444,"Delta":95773223},{"NoteNumber":41,"Velocity":45,"Duration":498366,"SoundDuration":498366,"Delta":95886006},{"NoteNumber":50,"Velocity":32,"Duration":136363,"SoundDuration":136363,"Delta":96000074},{"NoteNumber":56,"Velocity":38,"Duration":136363,"SoundDuration":136363,"Delta":96000074},{"NoteNumber":58,"Velocity":41,"Duration":482309,"SoundDuration":482309,"Delta":96136438},{"NoteNumber":60,"Velocity":49,"Duration":482309,"SoundDuration":482309,"Delta":96136438},{"NoteNumber":48,"Velocity":30,"Duration":229435,"SoundDuration":229435,"Delta":96260405},{"NoteNumber":55,"Velocity":36,"Duration":229435,"SoundDuration":229435,"Delta":96260405},{"NoteNumber":40,"Velocity":41,"Duration":472164,"SoundDuration":472164,"Delta":96384372},{"NoteNumber":55,"Velocity":36,"Duration":111328,"SoundDuration":111328,"Delta":96501559},{"NoteNumber":48,"Velocity":30,"Duration":111328,"SoundDuration":111328,"Delta":96501559},{"NoteNumber":58,"Velocity":40,"Duration":481208,"SoundDuration":481208,"Delta":96618747},{"NoteNumber":60,"Velocity":48,"Duration":481208,"SoundDuration":481208,"Delta":96618747},{"NoteNumber":54,"Velocity":37,"Duration":228346,"SoundDuration":228346,"Delta":96737013},{"NoteNumber":48,"Velocity":31,"Duration":228346,"SoundDuration":228346,"Delta":96737013},{"NoteNumber":39,"Velocity":40,"Duration":492047,"SoundDuration":492047,"Delta":96856536},{"NoteNumber":48,"Velocity":31,"Duration":122450,"SoundDuration":122450,"Delta":96977505},{"NoteNumber":54,"Velocity":37,"Duration":122450,"SoundDuration":122450,"Delta":96977505},{"NoteNumber":60,"Velocity":47,"Duration":503418,"SoundDuration":503418,"Delta":97099955},{"NoteNumber":58,"Velocity":39,"Duration":503418,"SoundDuration":503418,"Delta":97099955},{"NoteNumber":48,"Velocity":30,"Duration":238873,"SoundDuration":238873,"Delta":97223582},{"NoteNumber":55,"Velocity":35,"Duration":238873,"SoundDuration":238873,"Delta":97223582},{"NoteNumber":40,"Velocity":35,"Duration":513411,"SoundDuration":513411,"Delta":97348584},{"NoteNumber":55,"Velocity":35,"Duration":128206,"SoundDuration":128206,"Delta":97475167},{"NoteNumber":48,"Velocity":30,"Duration":128206,"SoundDuration":128206,"Delta":97475167},{"NoteNumber":60,"Velocity":43,"Duration":531348,"SoundDuration":531348,"Delta":97603374},{"NoteNumber":57,"Velocity":31,"Duration":252037,"SoundDuration":252037,"Delta":97732684},{"NoteNumber":53,"Velocity":26,"Duration":252037,"SoundDuration":252037,"Delta":97732684},{"NoteNumber":41,"Velocity":35,"Duration":585227,"SoundDuration":585227,"Delta":97861995},{"NoteNumber":57,"Velocity":30,"Duration":136363,"SoundDuration":136363,"Delta":97998358},{"NoteNumber":53,"Velocity":25,"Duration":136363,"SoundDuration":136363,"Delta":97998358},{"NoteNumber":65,"Velocity":43,"Duration":704656,"SoundDuration":704656,"Delta":98134722},{"NoteNumber":57,"Velocity":25,"Duration":332720,"SoundDuration":332720,"Delta":98290972},{"NoteNumber":60,"Velocity":30,"Duration":332720,"SoundDuration":332720,"Delta":98290972},{"NoteNumber":36,"Velocity":35,"Duration":392156,"SoundDuration":392156,"Delta":98447222},{"NoteNumber":60,"Velocity":30,"Duration":196078,"SoundDuration":196078,"Delta":98643301},{"NoteNumber":57,"Velocity":25,"Duration":196078,"SoundDuration":196078,"Delta":98643301},{"NoteNumber":69,"Velocity":45,"Duration":604647,"SoundDuration":604647,"Delta":98839379},{"NoteNumber":60,"Velocity":28,"Duration":278061,"SoundDuration":278061,"Delta":98992440},{"NoteNumber":63,"Velocity":34,"Duration":278061,"SoundDuration":278061,"Delta":98992440},{"NoteNumber":78,"Velocity":48,"Duration":526740,"SoundDuration":526740,"Delta":99145502},{"NoteNumber":60,"Velocity":32,"Duration":138888,"SoundDuration":138888,"Delta":99284391},{"NoteNumber":63,"Velocity":38,"Duration":138888,"SoundDuration":138888,"Delta":99284391},{"NoteNumber":70,"Velocity":49,"Duration":494471,"SoundDuration":494471,"Delta":99423280},{"NoteNumber":60,"Velocity":34,"Duration":227187,"SoundDuration":227187,"Delta":99547761},{"NoteNumber":64,"Velocity":41,"Duration":227187,"SoundDuration":227187,"Delta":99547761},{"NoteNumber":79,"Velocity":49,"Duration":448672,"SoundDuration":448672,"Delta":99672242},{"NoteNumber":60,"Velocity":34,"Duration":112782,"SoundDuration":112782,"Delta":99786312},{"NoteNumber":64,"Velocity":41,"Duration":112782,"SoundDuration":112782,"Delta":99786312},{"NoteNumber":71,"Velocity":54,"Duration":456619,"SoundDuration":456619,"Delta":99899095},{"NoteNumber":62,"Velocity":36,"Duration":208517,"SoundDuration":208517,"Delta":100010620},{"NoteNumber":65,"Velocity":43,"Duration":208517,"SoundDuration":208517,"Delta":100010620},{"NoteNumber":80,"Velocity":53,"Duration":429775,"SoundDuration":429775,"Delta":100120915},{"NoteNumber":62,"Velocity":37,"Duration":107786,"SoundDuration":107786,"Delta":100230007},{"NoteNumber":65,"Velocity":44,"Duration":107786,"SoundDuration":107786,"Delta":100230007},{"NoteNumber":72,"Velocity":60,"Duration":441585,"SoundDuration":441585,"Delta":100337793},{"NoteNumber":60,"Velocity":38,"Duration":201327,"SoundDuration":201327,"Delta":100444558},{"NoteNumber":65,"Velocity":46,"Duration":201327,"SoundDuration":201327,"Delta":100444558},{"NoteNumber":81,"Velocity":56,"Duration":420813,"SoundDuration":420813,"Delta":100550690},{"NoteNumber":60,"Velocity":39,"Duration":105386,"SoundDuration":105386,"Delta":100656448},{"NoteNumber":65,"Velocity":47,"Duration":105386,"SoundDuration":105386,"Delta":100656448},{"NoteNumber":73,"Velocity":65,"Duration":434296,"SoundDuration":434296,"Delta":100761835},{"NoteNumber":64,"Velocity":40,"Duration":198522,"SoundDuration":198522,"Delta":100866853},{"NoteNumber":67,"Velocity":48,"Duration":198522,"SoundDuration":198522,"Delta":100866853},{"NoteNumber":82,"Velocity":58,"Duration":414880,"SoundDuration":414880,"Delta":100971504},{"NoteNumber":64,"Velocity":41,"Duration":103098,"SoundDuration":103098,"Delta":101075792},{"NoteNumber":67,"Velocity":49,"Duration":103098,"SoundDuration":103098,"Delta":101075792},{"NoteNumber":74,"Velocity":68,"Duration":433915,"SoundDuration":433915,"Delta":101178890},{"NoteNumber":65,"Velocity":43,"Duration":197761,"SoundDuration":197761,"Delta":101282458},{"NoteNumber":68,"Velocity":51,"Duration":197761,"SoundDuration":197761,"Delta":101282458},{"NoteNumber":83,"Velocity":60,"Duration":419716,"SoundDuration":419716,"Delta":101386384},{"NoteNumber":65,"Velocity":43,"Duration":104651,"SoundDuration":104651,"Delta":101490672},{"NoteNumber":68,"Velocity":52,"Duration":104651,"SoundDuration":104651,"Delta":101490672},{"NoteNumber":72,"Velocity":68,"Duration":446071,"SoundDuration":446071,"Delta":101595323},{"NoteNumber":64,"Velocity":44,"Duration":211642,"SoundDuration":211642,"Delta":101700341},{"NoteNumber":67,"Velocity":53,"Duration":211642,"SoundDuration":211642,"Delta":101700341},{"NoteNumber":84,"Velocity":63,"Duration":460012,"SoundDuration":460012,"Delta":101806101},{"NoteNumber":64,"Velocity":45,"Duration":117646,"SoundDuration":117646,"Delta":101923748},{"NoteNumber":67,"Velocity":53,"Duration":117646,"SoundDuration":117646,"Delta":101923748},{"NoteNumber":72,"Velocity":73,"Duration":433777,"SoundDuration":433777,"Delta":102041395},{"NoteNumber":65,"Velocity":46,"Duration":206436,"SoundDuration":206436,"Delta":102153754},{"NoteNumber":69,"Velocity":55,"Duration":206436,"SoundDuration":206436,"Delta":102153754},{"NoteNumber":77,"Velocity":66,"Duration":421824,"SoundDuration":421824,"Delta":102266114},{"NoteNumber":65,"Velocity":46,"Duration":104529,"SoundDuration":104529,"Delta":102370643},{"NoteNumber":69,"Velocity":55,"Duration":104529,"SoundDuration":104529,"Delta":102370643},{"NoteNumber":74,"Velocity":77,"Duration":440349,"SoundDuration":440349,"Delta":102475173},{"NoteNumber":62,"Velocity":47,"Duration":200788,"SoundDuration":200788,"Delta":102581556},{"NoteNumber":69,"Velocity":55,"Duration":200788,"SoundDuration":200788,"Delta":102581556},{"NoteNumber":78,"Velocity":69,"Duration":423312,"SoundDuration":423312,"Delta":102687939},{"NoteNumber":62,"Velocity":47,"Duration":104894,"SoundDuration":104894,"Delta":102792834},{"NoteNumber":69,"Velocity":55,"Duration":104894,"SoundDuration":104894,"Delta":102792834},{"NoteNumber":70,"Velocity":73,"Duration":443447,"SoundDuration":443447,"Delta":102897729},{"NoteNumber":62,"Velocity":45,"Duration":201831,"SoundDuration":201831,"Delta":103004490},{"NoteNumber":67,"Velocity":53,"Duration":201831,"SoundDuration":201831,"Delta":103004490},{"NoteNumber":79,"Velocity":66,"Duration":435148,"SoundDuration":435148,"Delta":103111252},{"NoteNumber":62,"Velocity":42,"Duration":105633,"SoundDuration":105633,"Delta":103216886},{"NoteNumber":67,"Velocity":50,"Duration":105633,"SoundDuration":105633,"Delta":103216886},{"NoteNumber":72,"Velocity":69,"Duration":449999,"SoundDuration":449999,"Delta":103322519},{"NoteNumber":60,"Velocity":44,"Duration":206016,"SoundDuration":206016,"Delta":103434460},{"NoteNumber":67,"Velocity":53,"Duration":206016,"SoundDuration":206016,"Delta":103434460},{"NoteNumber":76,"Velocity":63,"Duration":418249,"SoundDuration":418249,"Delta":103546400},{"NoteNumber":60,"Velocity":44,"Duration":104288,"SoundDuration":104288,"Delta":103650929},{"NoteNumber":67,"Velocity":53,"Duration":104288,"SoundDuration":104288,"Delta":103650929},{"NoteNumber":69,"Velocity":70,"Duration":441393,"SoundDuration":441393,"Delta":103755218},{"NoteNumber":60,"Velocity":41,"Duration":200971,"SoundDuration":200971,"Delta":103859385},{"NoteNumber":65,"Velocity":49,"Duration":200971,"SoundDuration":200971,"Delta":103859385},{"NoteNumber":77,"Velocity":59,"Duration":430518,"SoundDuration":430518,"Delta":103964649},{"NoteNumber":60,"Velocity":41,"Duration":107527,"SoundDuration":107527,"Delta":104071033},{"NoteNumber":65,"Velocity":49,"Duration":107527,"SoundDuration":107527,"Delta":104071033},{"NoteNumber":67,"Velocity":65,"Duration":452264,"SoundDuration":452264,"Delta":104178561},{"NoteNumber":57,"Velocity":41,"Duration":205776,"SoundDuration":205776,"Delta":104286864},{"NoteNumber":61,"Velocity":49,"Duration":205776,"SoundDuration":205776,"Delta":104286864},{"NoteNumber":76,"Velocity":56,"Duration":440882,"SoundDuration":440882,"Delta":104395167},{"NoteNumber":57,"Velocity":41,"Duration":108698,"SoundDuration":108698,"Delta":104503471},{"NoteNumber":61,"Velocity":49,"Duration":108698,"SoundDuration":108698,"Delta":104503471},{"NoteNumber":65,"Velocity":61,"Duration":449999,"SoundDuration":449999,"Delta":104612169},{"NoteNumber":57,"Velocity":40,"Duration":206016,"SoundDuration":206016,"Delta":104724109},{"NoteNumber":62,"Velocity":48,"Duration":206016,"SoundDuration":206016,"Delta":104724109},{"NoteNumber":74,"Velocity":54,"Duration":418249,"SoundDuration":418249,"Delta":104836050},{"NoteNumber":57,"Velocity":40,"Duration":104288,"SoundDuration":104288,"Delta":104940579},{"NoteNumber":62,"Velocity":48,"Duration":104288,"SoundDuration":104288,"Delta":104940579},{"NoteNumber":63,"Velocity":59,"Duration":441393,"SoundDuration":441393,"Delta":105044868},{"NoteNumber":53,"Velocity":39,"Duration":200971,"SoundDuration":200971,"Delta":105149035},{"NoteNumber":57,"Velocity":46,"Duration":200971,"SoundDuration":200971,"Delta":105149035},{"NoteNumber":72,"Velocity":53,"Duration":430518,"SoundDuration":430518,"Delta":105254299},{"NoteNumber":53,"Velocity":39,"Duration":107527,"SoundDuration":107527,"Delta":105360683},{"NoteNumber":57,"Velocity":46,"Duration":107527,"SoundDuration":107527,"Delta":105360683},{"NoteNumber":62,"Velocity":57,"Duration":452264,"SoundDuration":452264,"Delta":105468211},{"NoteNumber":53,"Velocity":38,"Duration":205776,"SoundDuration":205776,"Delta":105576514},{"NoteNumber":58,"Velocity":45,"Duration":205776,"SoundDuration":205776,"Delta":105576514},{"NoteNumber":70,"Velocity":52,"Duration":440882,"SoundDuration":440882,"Delta":105684817},{"NoteNumber":53,"Velocity":38,"Duration":108698,"SoundDuration":108698,"Delta":105793120},{"NoteNumber":58,"Velocity":45,"Duration":108698,"SoundDuration":108698,"Delta":105793120},{"NoteNumber":60,"Velocity":56,"Duration":458801,"SoundDuration":458801,"Delta":105901819},{"NoteNumber":50,"Velocity":36,"Duration":209766,"SoundDuration":209766,"Delta":106013759},{"NoteNumber":54,"Velocity":43,"Duration":209766,"SoundDuration":209766,"Delta":106013759},{"NoteNumber":69,"Velocity":51,"Duration":434527,"SoundDuration":434527,"Delta":106125699},{"NoteNumber":50,"Velocity":35,"Duration":108174,"SoundDuration":108174,"Delta":106234395},{"NoteNumber":54,"Velocity":42,"Duration":108174,"SoundDuration":108174,"Delta":106234395},{"NoteNumber":58,"Velocity":54,"Duration":457107,"SoundDuration":457107,"Delta":106342570},{"NoteNumber":50,"Velocity":35,"Duration":208218,"SoundDuration":208218,"Delta":106451004},{"NoteNumber":55,"Velocity":42,"Duration":208218,"SoundDuration":208218,"Delta":106451004},{"NoteNumber":67,"Velocity":50,"Duration":445308,"SoundDuration":445308,"Delta":106560227},{"NoteNumber":50,"Velocity":34,"Duration":110837,"SoundDuration":110837,"Delta":106670252},{"NoteNumber":55,"Velocity":41,"Duration":110837,"SoundDuration":110837,"Delta":106670252},{"NoteNumber":59,"Velocity":49,"Duration":495539,"SoundDuration":495539,"Delta":106781090},{"NoteNumber":50,"Velocity":32,"Duration":215444,"SoundDuration":215444,"Delta":106892753},{"NoteNumber":56,"Velocity":38,"Duration":215444,"SoundDuration":215444,"Delta":106892753},{"NoteNumber":65,"Velocity":49,"Duration":498366,"SoundDuration":498366,"Delta":107005536},{"NoteNumber":50,"Velocity":32,"Duration":136363,"SoundDuration":136363,"Delta":107119604},{"NoteNumber":56,"Velocity":38,"Duration":136363,"SoundDuration":136363,"Delta":107119604},{"NoteNumber":60,"Velocity":49,"Duration":482309,"SoundDuration":482309,"Delta":107255968},{"NoteNumber":58,"Velocity":41,"Duration":482309,"SoundDuration":482309,"Delta":107255968},{"NoteNumber":48,"Velocity":30,"Duration":229435,"SoundDuration":229435,"Delta":107379935},{"NoteNumber":55,"Velocity":36,"Duration":229435,"SoundDuration":229435,"Delta":107379935},{"NoteNumber":64,"Velocity":45,"Duration":472009,"SoundDuration":472009,"Delta":107503902},{"NoteNumber":48,"Velocity":30,"Duration":117187,"SoundDuration":117187,"Delta":107621089},{"NoteNumber":55,"Velocity":36,"Duration":117187,"SoundDuration":117187,"Delta":107621089},{"NoteNumber":60,"Velocity":48,"Duration":481054,"SoundDuration":481054,"Delta":107738277},{"NoteNumber":58,"Velocity":40,"Duration":481054,"SoundDuration":481054,"Delta":107738277},{"NoteNumber":48,"Velocity":31,"Duration":228346,"SoundDuration":228346,"Delta":107856388},{"NoteNumber":54,"Velocity":37,"Duration":228346,"SoundDuration":228346,"Delta":107856388},{"NoteNumber":63,"Velocity":44,"Duration":492912,"SoundDuration":492912,"Delta":107975911},{"NoteNumber":48,"Velocity":31,"Duration":122450,"SoundDuration":122450,"Delta":108096881},{"NoteNumber":54,"Velocity":37,"Duration":122450,"SoundDuration":122450,"Delta":108096881},{"NoteNumber":60,"Velocity":47,"Duration":505369,"SoundDuration":505369,"Delta":108219331},{"NoteNumber":58,"Velocity":39,"Duration":505369,"SoundDuration":505369,"Delta":108219331},{"NoteNumber":48,"Velocity":30,"Duration":239878,"SoundDuration":239878,"Delta":108343299},{"NoteNumber":55,"Velocity":35,"Duration":239878,"SoundDuration":239878,"Delta":108343299},{"NoteNumber":64,"Velocity":38,"Duration":516746,"SoundDuration":516746,"Delta":108468824},{"NoteNumber":48,"Velocity":30,"Duration":128756,"SoundDuration":128756,"Delta":108595944},{"NoteNumber":55,"Velocity":35,"Duration":128756,"SoundDuration":128756,"Delta":108595944},{"NoteNumber":57,"Velocity":36,"Duration":534841,"SoundDuration":534841,"Delta":108724701},{"NoteNumber":60,"Velocity":43,"Duration":534841,"SoundDuration":534841,"Delta":108724701},{"NoteNumber":48,"Velocity":26,"Duration":253722,"SoundDuration":253722,"Delta":108855136},{"NoteNumber":53,"Velocity":31,"Duration":253722,"SoundDuration":253722,"Delta":108855136},{"NoteNumber":65,"Velocity":38,"Duration":578541,"SoundDuration":578541,"Delta":108985570},{"NoteNumber":48,"Velocity":25,"Duration":136986,"SoundDuration":136986,"Delta":109122557},{"NoteNumber":53,"Velocity":30,"Duration":136986,"SoundDuration":136986,"Delta":109122557},{"NoteNumber":57,"Velocity":36,"Duration":696725,"SoundDuration":696725,"Delta":109259543},{"NoteNumber":60,"Velocity":43,"Duration":696725,"SoundDuration":696725,"Delta":109259543},{"NoteNumber":48,"Velocity":25,"Duration":328754,"SoundDuration":328754,"Delta":109411827},{"NoteNumber":53,"Velocity":30,"Duration":328754,"SoundDuration":328754,"Delta":109411827},{"NoteNumber":72,"Velocity":38,"Duration":392156,"SoundDuration":392156,"Delta":109564111},{"NoteNumber":48,"Velocity":25,"Duration":196078,"SoundDuration":196078,"Delta":109760190},{"NoteNumber":53,"Velocity":30,"Duration":196078,"SoundDuration":196078,"Delta":109760190},{"NoteNumber":65,"Velocity":48,"Duration":609405,"SoundDuration":609405,"Delta":109956268},{"NoteNumber":57,"Velocity":30,"Duration":280440,"SoundDuration":280440,"Delta":110111709},{"NoteNumber":60,"Velocity":36,"Duration":280440,"SoundDuration":280440,"Delta":110111709},{"NoteNumber":29,"Velocity":35,"Duration":526740,"SoundDuration":526740,"Delta":110267149},{"NoteNumber":41,"Velocity":44,"Duration":526740,"SoundDuration":526740,"Delta":110267149},{"NoteNumber":57,"Velocity":32,"Duration":138888,"SoundDuration":138888,"Delta":110406038},{"NoteNumber":60,"Velocity":38,"Duration":138888,"SoundDuration":138888,"Delta":110406038},{"NoteNumber":64,"Velocity":49,"Duration":495034,"SoundDuration":495034,"Delta":110544927},{"NoteNumber":55,"Velocity":34,"Duration":227042,"SoundDuration":227042,"Delta":110669409},{"NoteNumber":58,"Velocity":41,"Duration":227042,"SoundDuration":227042,"Delta":110669409},{"NoteNumber":31,"Velocity":36,"Duration":451576,"SoundDuration":451576,"Delta":110793890},{"NoteNumber":43,"Velocity":46,"Duration":451576,"SoundDuration":451576,"Delta":110793890},{"NoteNumber":55,"Velocity":34,"Duration":113350,"SoundDuration":113350,"Delta":110907814},{"NoteNumber":58,"Velocity":41,"Duration":113350,"SoundDuration":113350,"Delta":110907814},{"NoteNumber":62,"Velocity":54,"Duration":464158,"SoundDuration":464158,"Delta":111021165},{"NoteNumber":53,"Velocity":36,"Duration":211843,"SoundDuration":211843,"Delta":111133665},{"NoteNumber":59,"Velocity":43,"Duration":211843,"SoundDuration":211843,"Delta":111133665},{"NoteNumber":32,"Velocity":39,"Duration":440123,"SoundDuration":440123,"Delta":111245467},{"NoteNumber":44,"Velocity":49,"Duration":440123,"SoundDuration":440123,"Delta":111245467},{"NoteNumber":53,"Velocity":37,"Duration":110429,"SoundDuration":110429,"Delta":111356579},{"NoteNumber":59,"Velocity":44,"Duration":110429,"SoundDuration":110429,"Delta":111356579},{"NoteNumber":61,"Velocity":60,"Duration":452399,"SoundDuration":452399,"Delta":111467008},{"NoteNumber":52,"Velocity":38,"Duration":206472,"SoundDuration":206472,"Delta":111576631},{"NoteNumber":57,"Velocity":46,"Duration":206472,"SoundDuration":206472,"Delta":111576631},{"NoteNumber":33,"Velocity":40,"Duration":429107,"SoundDuration":429107,"Delta":111685590},{"NoteNumber":45,"Velocity":51,"Duration":429107,"SoundDuration":429107,"Delta":111685590},{"NoteNumber":52,"Velocity":39,"Duration":107655,"SoundDuration":107655,"Delta":111793894},{"NoteNumber":57,"Velocity":47,"Duration":107655,"SoundDuration":107655,"Delta":111793894},{"NoteNumber":62,"Velocity":65,"Duration":439809,"SoundDuration":439809,"Delta":111901550},{"NoteNumber":53,"Velocity":40,"Duration":201664,"SoundDuration":201664,"Delta":112008439},{"NoteNumber":56,"Velocity":48,"Duration":201664,"SoundDuration":201664,"Delta":112008439},{"NoteNumber":35,"Velocity":42,"Duration":417214,"SoundDuration":417214,"Delta":112114697},{"NoteNumber":47,"Velocity":53,"Duration":417214,"SoundDuration":417214,"Delta":112114697},{"NoteNumber":53,"Velocity":41,"Duration":103354,"SoundDuration":103354,"Delta":112220704},{"NoteNumber":56,"Velocity":49,"Duration":103354,"SoundDuration":103354,"Delta":112220704},{"NoteNumber":63,"Velocity":68,"Duration":434395,"SoundDuration":434395,"Delta":112324059},{"NoteNumber":54,"Velocity":43,"Duration":198002,"SoundDuration":198002,"Delta":112427865},{"NoteNumber":57,"Velocity":51,"Duration":198002,"SoundDuration":198002,"Delta":112427865},{"NoteNumber":36,"Velocity":44,"Duration":419464,"SoundDuration":419464,"Delta":112531912},{"NoteNumber":48,"Velocity":55,"Duration":419464,"SoundDuration":419464,"Delta":112531912},{"NoteNumber":54,"Velocity":43,"Duration":104651,"SoundDuration":104651,"Delta":112636320},{"NoteNumber":57,"Velocity":52,"Duration":104651,"SoundDuration":104651,"Delta":112636320},{"NoteNumber":64,"Velocity":68,"Duration":464425,"SoundDuration":464425,"Delta":112740972},{"NoteNumber":55,"Velocity":44,"Duration":211269,"SoundDuration":211269,"Delta":112845989},{"NoteNumber":57,"Velocity":53,"Duration":211269,"SoundDuration":211269,"Delta":112845989},{"NoteNumber":37,"Velocity":46,"Duration":460012,"SoundDuration":460012,"Delta":112951376},{"NoteNumber":49,"Velocity":58,"Duration":460012,"SoundDuration":460012,"Delta":112951376},{"NoteNumber":55,"Velocity":45,"Duration":117646,"SoundDuration":117646,"Delta":113069023},{"NoteNumber":57,"Velocity":53,"Duration":117646,"SoundDuration":117646,"Delta":113069023},{"NoteNumber":65,"Velocity":73,"Duration":435245,"SoundDuration":435245,"Delta":113186670},{"NoteNumber":53,"Velocity":46,"Duration":207096,"SoundDuration":207096,"Delta":113299030},{"NoteNumber":57,"Velocity":55,"Duration":207096,"SoundDuration":207096,"Delta":113299030},{"NoteNumber":38,"Velocity":48,"Duration":427918,"SoundDuration":427918,"Delta":113411389},{"NoteNumber":50,"Velocity":61,"Duration":427918,"SoundDuration":427918,"Delta":113411389},{"NoteNumber":53,"Velocity":46,"Duration":105263,"SoundDuration":105263,"Delta":113516652},{"NoteNumber":57,"Velocity":55,"Duration":105263,"SoundDuration":105263,"Delta":113516652},{"NoteNumber":61,"Velocity":77,"Duration":445232,"SoundDuration":445232,"Delta":113621916},{"NoteNumber":55,"Velocity":47,"Duration":203101,"SoundDuration":203101,"Delta":113730611},{"NoteNumber":58,"Velocity":55,"Duration":203101,"SoundDuration":203101,"Delta":113730611},{"NoteNumber":64,"Velocity":69,"Duration":426396,"SoundDuration":426396,"Delta":113839307},{"NoteNumber":55,"Velocity":47,"Duration":104894,"SoundDuration":104894,"Delta":113944202},{"NoteNumber":58,"Velocity":55,"Duration":104894,"SoundDuration":104894,"Delta":113944202},{"NoteNumber":62,"Velocity":73,"Duration":445248,"SoundDuration":445248,"Delta":114049097},{"NoteNumber":53,"Velocity":45,"Duration":203040,"SoundDuration":203040,"Delta":114157400},{"NoteNumber":57,"Velocity":53,"Duration":203040,"SoundDuration":203040,"Delta":114157400},{"NoteNumber":65,"Velocity":66,"Duration":427918,"SoundDuration":427918,"Delta":114265704},{"NoteNumber":53,"Velocity":42,"Duration":105263,"SoundDuration":105263,"Delta":114370967},{"NoteNumber":57,"Velocity":50,"Duration":105263,"SoundDuration":105263,"Delta":114370967},{"NoteNumber":60,"Velocity":69,"Duration":443510,"SoundDuration":443510,"Delta":114476230},{"NoteNumber":50,"Velocity":44,"Duration":202772,"SoundDuration":202772,"Delta":114584926},{"NoteNumber":57,"Velocity":53,"Duration":202772,"SoundDuration":202772,"Delta":114584926},{"NoteNumber":66,"Velocity":63,"Duration":418249,"SoundDuration":418249,"Delta":114693622},{"NoteNumber":50,"Velocity":44,"Duration":104288,"SoundDuration":104288,"Delta":114798151},{"NoteNumber":57,"Velocity":53,"Duration":104288,"SoundDuration":104288,"Delta":114798151},{"NoteNumber":58,"Velocity":70,"Duration":423343,"SoundDuration":423343,"Delta":114902440},{"NoteNumber":50,"Velocity":41,"Duration":200971,"SoundDuration":200971,"Delta":115006607},{"NoteNumber":55,"Velocity":49,"Duration":200971,"SoundDuration":200971,"Delta":115006607},{"NoteNumber":67,"Velocity":59,"Duration":430518,"SoundDuration":430518,"Delta":115111871},{"NoteNumber":50,"Velocity":41,"Duration":107527,"SoundDuration":107527,"Delta":115218255},{"NoteNumber":55,"Velocity":49,"Duration":107527,"SoundDuration":107527,"Delta":115218255},{"NoteNumber":59,"Velocity":65,"Duration":452264,"SoundDuration":452264,"Delta":115325783},{"NoteNumber":50,"Velocity":41,"Duration":205776,"SoundDuration":205776,"Delta":115434086},{"NoteNumber":53,"Velocity":49,"Duration":205776,"SoundDuration":205776,"Delta":115434086},{"NoteNumber":68,"Velocity":56,"Duration":440882,"SoundDuration":440882,"Delta":115542389},{"NoteNumber":50,"Velocity":41,"Duration":108698,"SoundDuration":108698,"Delta":115650693},{"NoteNumber":53,"Velocity":49,"Duration":108698,"SoundDuration":108698,"Delta":115650693},{"NoteNumber":60,"Velocity":61,"Duration":449999,"SoundDuration":449999,"Delta":115759391},{"NoteNumber":48,"Velocity":40,"Duration":206016,"SoundDuration":206016,"Delta":115871331},{"NoteNumber":53,"Velocity":48,"Duration":206016,"SoundDuration":206016,"Delta":115871331},{"NoteNumber":69,"Velocity":54,"Duration":418249,"SoundDuration":418249,"Delta":115983272},{"NoteNumber":48,"Velocity":40,"Duration":104288,"SoundDuration":104288,"Delta":116087801},{"NoteNumber":53,"Velocity":48,"Duration":104288,"SoundDuration":104288,"Delta":116087801},{"NoteNumber":59,"Velocity":59,"Duration":441393,"SoundDuration":441393,"Delta":116192089},{"NoteNumber":50,"Velocity":39,"Duration":200971,"SoundDuration":200971,"Delta":116296257},{"NoteNumber":53,"Velocity":46,"Duration":200971,"SoundDuration":200971,"Delta":116296257},{"NoteNumber":68,"Velocity":53,"Duration":430518,"SoundDuration":430518,"Delta":116401521},{"NoteNumber":50,"Velocity":39,"Duration":107527,"SoundDuration":107527,"Delta":116507905},{"NoteNumber":53,"Velocity":46,"Duration":107527,"SoundDuration":107527,"Delta":116507905},{"NoteNumber":60,"Velocity":57,"Duration":452264,"SoundDuration":452264,"Delta":116615433},{"NoteNumber":48,"Velocity":38,"Duration":205776,"SoundDuration":205776,"Delta":116723736},{"NoteNumber":53,"Velocity":45,"Duration":205776,"SoundDuration":205776,"Delta":116723736},{"NoteNumber":69,"Velocity":52,"Duration":440882,"SoundDuration":440882,"Delta":116832039},{"NoteNumber":48,"Velocity":38,"Duration":108698,"SoundDuration":108698,"Delta":116940342},{"NoteNumber":53,"Velocity":45,"Duration":108698,"SoundDuration":108698,"Delta":116940342},{"NoteNumber":59,"Velocity":56,"Duration":458801,"SoundDuration":458801,"Delta":117049041},{"NoteNumber":50,"Velocity":36,"Duration":209766,"SoundDuration":209766,"Delta":117160981},{"NoteNumber":53,"Velocity":43,"Duration":209766,"SoundDuration":209766,"Delta":117160981},{"NoteNumber":67,"Velocity":51,"Duration":434527,"SoundDuration":434527,"Delta":117272921},{"NoteNumber":50,"Velocity":35,"Duration":108174,"SoundDuration":108174,"Delta":117381617},{"NoteNumber":53,"Velocity":42,"Duration":108174,"SoundDuration":108174,"Delta":117381617},{"NoteNumber":60,"Velocity":54,"Duration":457107,"SoundDuration":457107,"Delta":117489792},{"NoteNumber":50,"Velocity":35,"Duration":208218,"SoundDuration":208218,"Delta":117598226},{"NoteNumber":53,"Velocity":42,"Duration":208218,"SoundDuration":208218,"Delta":117598226},{"NoteNumber":68,"Velocity":50,"Duration":445308,"SoundDuration":445308,"Delta":117707449},{"NoteNumber":50,"Velocity":34,"Duration":110837,"SoundDuration":110837,"Delta":117817474},{"NoteNumber":53,"Velocity":41,"Duration":110837,"SoundDuration":110837,"Delta":117817474},{"NoteNumber":59,"Velocity":49,"Duration":474878,"SoundDuration":474878,"Delta":117928312},{"NoteNumber":50,"Velocity":32,"Duration":215444,"SoundDuration":215444,"Delta":118039975},{"NoteNumber":53,"Velocity":38,"Duration":215444,"SoundDuration":215444,"Delta":118039975},{"NoteNumber":67,"Velocity":49,"Duration":498366,"SoundDuration":498366,"Delta":118152758},{"NoteNumber":50,"Velocity":32,"Duration":136363,"SoundDuration":136363,"Delta":118266826},{"NoteNumber":53,"Velocity":38,"Duration":136363,"SoundDuration":136363,"Delta":118266826},{"NoteNumber":60,"Velocity":49,"Duration":482309,"SoundDuration":482309,"Delta":118403190},{"NoteNumber":58,"Velocity":41,"Duration":482309,"SoundDuration":482309,"Delta":118403190},{"NoteNumber":48,"Velocity":30,"Duration":229435,"SoundDuration":229435,"Delta":118527157},{"NoteNumber":55,"Velocity":36,"Duration":229435,"SoundDuration":229435,"Delta":118527157},{"NoteNumber":64,"Velocity":45,"Duration":472009,"SoundDuration":472009,"Delta":118651124},{"NoteNumber":48,"Velocity":30,"Duration":117187,"SoundDuration":117187,"Delta":118768311},{"NoteNumber":55,"Velocity":36,"Duration":117187,"SoundDuration":117187,"Delta":118768311},{"NoteNumber":60,"Velocity":48,"Duration":481054,"SoundDuration":481054,"Delta":118885499},{"NoteNumber":58,"Velocity":40,"Duration":481054,"SoundDuration":481054,"Delta":118885499},{"NoteNumber":48,"Velocity":31,"Duration":228346,"SoundDuration":228346,"Delta":119003610},{"NoteNumber":54,"Velocity":37,"Duration":228346,"SoundDuration":228346,"Delta":119003610},{"NoteNumber":63,"Velocity":44,"Duration":492912,"SoundDuration":492912,"Delta":119123133},{"NoteNumber":48,"Velocity":31,"Duration":122450,"SoundDuration":122450,"Delta":119244102},{"NoteNumber":54,"Velocity":37,"Duration":122450,"SoundDuration":122450,"Delta":119244102},{"NoteNumber":60,"Velocity":47,"Duration":505369,"SoundDuration":505369,"Delta":119366553},{"NoteNumber":58,"Velocity":39,"Duration":505369,"SoundDuration":505369,"Delta":119366553},{"NoteNumber":48,"Velocity":30,"Duration":239878,"SoundDuration":239878,"Delta":119490521},{"NoteNumber":55,"Velocity":35,"Duration":239878,"SoundDuration":239878,"Delta":119490521},{"NoteNumber":64,"Velocity":38,"Duration":515617,"SoundDuration":515617,"Delta":119616046},{"NoteNumber":48,"Velocity":30,"Duration":128756,"SoundDuration":128756,"Delta":119743166},{"NoteNumber":55,"Velocity":35,"Duration":128756,"SoundDuration":128756,"Delta":119743166},{"NoteNumber":57,"Velocity":36,"Duration":531233,"SoundDuration":531233,"Delta":119871923},{"NoteNumber":60,"Velocity":43,"Duration":531233,"SoundDuration":531233,"Delta":119871923},{"NoteNumber":48,"Velocity":26,"Duration":252042,"SoundDuration":252042,"Delta":120001793},{"NoteNumber":53,"Velocity":31,"Duration":252042,"SoundDuration":252042,"Delta":120001793},{"NoteNumber":65,"Velocity":38,"Duration":573000,"SoundDuration":573000,"Delta":120131663},{"NoteNumber":48,"Velocity":25,"Duration":135746,"SoundDuration":135746,"Delta":120267410},{"NoteNumber":53,"Velocity":30,"Duration":135746,"SoundDuration":135746,"Delta":120267410},{"NoteNumber":57,"Velocity":36,"Duration":693664,"SoundDuration":693664,"Delta":120403156},{"NoteNumber":60,"Velocity":43,"Duration":693664,"SoundDuration":693664,"Delta":120403156},{"NoteNumber":48,"Velocity":25,"Duration":327224,"SoundDuration":327224,"Delta":120553910},{"NoteNumber":53,"Velocity":30,"Duration":327224,"SoundDuration":327224,"Delta":120553910},{"NoteNumber":72,"Velocity":38,"Duration":392156,"SoundDuration":392156,"Delta":120704664},{"NoteNumber":48,"Velocity":25,"Duration":196078,"SoundDuration":196078,"Delta":120900742},{"NoteNumber":53,"Velocity":30,"Duration":196078,"SoundDuration":196078,"Delta":120900742},{"NoteNumber":65,"Velocity":48,"Duration":600625,"SoundDuration":600625,"Delta":121096821},{"NoteNumber":57,"Velocity":30,"Duration":275939,"SoundDuration":275939,"Delta":121248336},{"NoteNumber":60,"Velocity":36,"Duration":275939,"SoundDuration":275939,"Delta":121248336},{"NoteNumber":29,"Velocity":35,"Duration":529662,"SoundDuration":529662,"Delta":121399851},{"NoteNumber":41,"Velocity":44,"Duration":529662,"SoundDuration":529662,"Delta":121399851},{"NoteNumber":57,"Velocity":32,"Duration":138248,"SoundDuration":138248,"Delta":121538100},{"NoteNumber":60,"Velocity":38,"Duration":138248,"SoundDuration":138248,"Delta":121538100},{"NoteNumber":64,"Velocity":49,"Duration":504214,"SoundDuration":504214,"Delta":121676349},{"NoteNumber":55,"Velocity":34,"Duration":231535,"SoundDuration":231535,"Delta":121802931},{"NoteNumber":58,"Velocity":41,"Duration":231535,"SoundDuration":231535,"Delta":121802931},{"NoteNumber":31,"Velocity":36,"Duration":459533,"SoundDuration":459533,"Delta":121929513},{"NoteNumber":43,"Velocity":46,"Duration":459533,"SoundDuration":459533,"Delta":121929513},{"NoteNumber":55,"Velocity":34,"Duration":115385,"SoundDuration":115385,"Delta":122046094},{"NoteNumber":58,"Velocity":41,"Duration":115385,"SoundDuration":115385,"Delta":122046094},{"NoteNumber":62,"Velocity":54,"Duration":469281,"SoundDuration":469281,"Delta":122161480},{"NoteNumber":53,"Velocity":36,"Duration":214234,"SoundDuration":214234,"Delta":122275838},{"NoteNumber":59,"Velocity":43,"Duration":214234,"SoundDuration":214234,"Delta":122275838},{"NoteNumber":32,"Velocity":39,"Duration":442583,"SoundDuration":442583,"Delta":122389047},{"NoteNumber":44,"Velocity":49,"Duration":442583,"SoundDuration":442583,"Delta":122389047},{"NoteNumber":53,"Velocity":37,"Duration":111112,"SoundDuration":111112,"Delta":122501267},{"NoteNumber":59,"Velocity":44,"Duration":111112,"SoundDuration":111112,"Delta":122501267},{"NoteNumber":61,"Velocity":60,"Duration":452298,"SoundDuration":452298,"Delta":122612379},{"NoteNumber":52,"Velocity":38,"Duration":206473,"SoundDuration":206473,"Delta":122722538},{"NoteNumber":57,"Velocity":46,"Duration":206473,"SoundDuration":206473,"Delta":122722538},{"NoteNumber":33,"Velocity":40,"Duration":427832,"SoundDuration":427832,"Delta":122831630},{"NoteNumber":45,"Velocity":51,"Duration":427832,"SoundDuration":427832,"Delta":122831630},{"NoteNumber":52,"Velocity":39,"Duration":107143,"SoundDuration":107143,"Delta":122939803},{"NoteNumber":57,"Velocity":47,"Duration":107143,"SoundDuration":107143,"Delta":122939803},{"NoteNumber":62,"Velocity":65,"Duration":439177,"SoundDuration":439177,"Delta":123046947},{"NoteNumber":53,"Velocity":40,"Duration":201538,"SoundDuration":201538,"Delta":123153330},{"NoteNumber":56,"Velocity":48,"Duration":201538,"SoundDuration":201538,"Delta":123153330},{"NoteNumber":35,"Velocity":42,"Duration":417214,"SoundDuration":417214,"Delta":123259462},{"NoteNumber":47,"Velocity":53,"Duration":417214,"SoundDuration":417214,"Delta":123259462},{"NoteNumber":53,"Velocity":41,"Duration":103354,"SoundDuration":103354,"Delta":123365469},{"NoteNumber":56,"Velocity":49,"Duration":103354,"SoundDuration":103354,"Delta":123365469},{"NoteNumber":63,"Velocity":68,"Duration":434395,"SoundDuration":434395,"Delta":123468824},{"NoteNumber":54,"Velocity":43,"Duration":198002,"SoundDuration":198002,"Delta":123572630},{"NoteNumber":57,"Velocity":51,"Duration":198002,"SoundDuration":198002,"Delta":123572630},{"NoteNumber":36,"Velocity":44,"Duration":419464,"SoundDuration":419464,"Delta":123676677},{"NoteNumber":48,"Velocity":55,"Duration":419464,"SoundDuration":419464,"Delta":123676677},{"NoteNumber":54,"Velocity":43,"Duration":104651,"SoundDuration":104651,"Delta":123781085},{"NoteNumber":57,"Velocity":52,"Duration":104651,"SoundDuration":104651,"Delta":123781085},{"NoteNumber":64,"Velocity":68,"Duration":464425,"SoundDuration":464425,"Delta":123885737},{"NoteNumber":55,"Velocity":44,"Duration":211269,"SoundDuration":211269,"Delta":123990754},{"NoteNumber":57,"Velocity":53,"Duration":211269,"SoundDuration":211269,"Delta":123990754},{"NoteNumber":37,"Velocity":46,"Duration":460012,"SoundDuration":460012,"Delta":124096141},{"NoteNumber":49,"Velocity":58,"Duration":460012,"SoundDuration":460012,"Delta":124096141},{"NoteNumber":55,"Velocity":45,"Duration":117646,"SoundDuration":117646,"Delta":124213788},{"NoteNumber":57,"Velocity":53,"Duration":117646,"SoundDuration":117646,"Delta":124213788},{"NoteNumber":65,"Velocity":73,"Duration":439772,"SoundDuration":439772,"Delta":124331435},{"NoteNumber":53,"Velocity":46,"Duration":209133,"SoundDuration":209133,"Delta":124443795},{"NoteNumber":57,"Velocity":55,"Duration":209133,"SoundDuration":209133,"Delta":124443795},{"NoteNumber":38,"Velocity":48,"Duration":438934,"SoundDuration":438934,"Delta":124556154},{"NoteNumber":50,"Velocity":61,"Duration":438934,"SoundDuration":438934,"Delta":124556154},{"NoteNumber":53,"Velocity":46,"Duration":107526,"SoundDuration":107526,"Delta":124663681},{"NoteNumber":57,"Velocity":55,"Duration":107526,"SoundDuration":107526,"Delta":124663681},{"NoteNumber":61,"Velocity":77,"Duration":459074,"SoundDuration":459074,"Delta":124771208},{"NoteNumber":55,"Velocity":47,"Duration":209413,"SoundDuration":209413,"Delta":124883148},{"NoteNumber":58,"Velocity":55,"Duration":209413,"SoundDuration":209413,"Delta":124883148},{"NoteNumber":64,"Velocity":69,"Duration":439655,"SoundDuration":439655,"Delta":124995089},{"NoteNumber":55,"Velocity":47,"Duration":108303,"SoundDuration":108303,"Delta":125103392},{"NoteNumber":58,"Velocity":55,"Duration":108303,"SoundDuration":108303,"Delta":125103392},{"NoteNumber":62,"Velocity":73,"Duration":457532,"SoundDuration":457532,"Delta":125211695},{"NoteNumber":53,"Velocity":45,"Duration":208646,"SoundDuration":208646,"Delta":125323219},{"NoteNumber":57,"Velocity":53,"Duration":208646,"SoundDuration":208646,"Delta":125323219},{"NoteNumber":65,"Velocity":66,"Duration":439708,"SoundDuration":439708,"Delta":125434744},{"NoteNumber":53,"Velocity":42,"Duration":107913,"SoundDuration":107913,"Delta":125542657},{"NoteNumber":57,"Velocity":50,"Duration":107913,"SoundDuration":107913,"Delta":125542657},{"NoteNumber":60,"Velocity":69,"Duration":435787,"SoundDuration":435787,"Delta":125650571},{"NoteNumber":50,"Velocity":44,"Duration":207684,"SoundDuration":207684,"Delta":125762511},{"NoteNumber":57,"Velocity":53,"Duration":207684,"SoundDuration":207684,"Delta":125762511},{"NoteNumber":66,"Velocity":63,"Duration":422435,"SoundDuration":422435,"Delta":125874452},{"NoteNumber":50,"Velocity":44,"Duration":105524,"SoundDuration":105524,"Delta":125980835},{"NoteNumber":57,"Velocity":53,"Duration":105524,"SoundDuration":105524,"Delta":125980835},{"NoteNumber":58,"Velocity":70,"Duration":424061,"SoundDuration":424061,"Delta":126086359},{"NoteNumber":50,"Velocity":41,"Duration":201004,"SoundDuration":201004,"Delta":126191376},{"NoteNumber":55,"Velocity":49,"Duration":201004,"SoundDuration":201004,"Delta":126191376},{"NoteNumber":67,"Velocity":59,"Duration":430139,"SoundDuration":430139,"Delta":126296887},{"NoteNumber":50,"Velocity":41,"Duration":107400,"SoundDuration":107400,"Delta":126403019},{"NoteNumber":55,"Velocity":49,"Duration":107400,"SoundDuration":107400,"Delta":126403019},{"NoteNumber":59,"Velocity":65,"Duration":452264,"SoundDuration":452264,"Delta":126510420},{"NoteNumber":50,"Velocity":41,"Duration":205776,"SoundDuration":205776,"Delta":126618723},{"NoteNumber":53,"Velocity":49,"Duration":205776,"SoundDuration":205776,"Delta":126618723},{"NoteNumber":68,"Velocity":56,"Duration":440882,"SoundDuration":440882,"Delta":126727026},{"NoteNumber":50,"Velocity":41,"Duration":108698,"SoundDuration":108698,"Delta":126835330},{"NoteNumber":53,"Velocity":49,"Duration":108698,"SoundDuration":108698,"Delta":126835330},{"NoteNumber":60,"Velocity":61,"Duration":453455,"SoundDuration":453455,"Delta":126944028},{"NoteNumber":48,"Velocity":40,"Duration":207684,"SoundDuration":207684,"Delta":127055968},{"NoteNumber":53,"Velocity":48,"Duration":207684,"SoundDuration":207684,"Delta":127055968},{"NoteNumber":69,"Velocity":54,"Duration":424171,"SoundDuration":424171,"Delta":127167909},{"NoteNumber":48,"Velocity":40,"Duration":105524,"SoundDuration":105524,"Delta":127274292},{"NoteNumber":53,"Velocity":48,"Duration":105524,"SoundDuration":105524,"Delta":127274292},{"NoteNumber":59,"Velocity":59,"Duration":444223,"SoundDuration":444223,"Delta":127379816},{"NoteNumber":50,"Velocity":39,"Duration":202216,"SoundDuration":202216,"Delta":127485823},{"NoteNumber":53,"Velocity":46,"Duration":202216,"SoundDuration":202216,"Delta":127485823},{"NoteNumber":68,"Velocity":53,"Duration":430514,"SoundDuration":430514,"Delta":127592080},{"NoteNumber":50,"Velocity":39,"Duration":107272,"SoundDuration":107272,"Delta":127698716},{"NoteNumber":53,"Velocity":46,"Duration":107272,"SoundDuration":107272,"Delta":127698716},{"NoteNumber":60,"Velocity":57,"Duration":452264,"SoundDuration":452264,"Delta":127805988},{"NoteNumber":48,"Velocity":38,"Duration":205776,"SoundDuration":205776,"Delta":127914292},{"NoteNumber":53,"Velocity":45,"Duration":205776,"SoundDuration":205776,"Delta":127914292},{"NoteNumber":69,"Velocity":52,"Duration":440882,"SoundDuration":440882,"Delta":128022595},{"NoteNumber":48,"Velocity":38,"Duration":108698,"SoundDuration":108698,"Delta":128130898},{"NoteNumber":53,"Velocity":45,"Duration":108698,"SoundDuration":108698,"Delta":128130898},{"NoteNumber":59,"Velocity":56,"Duration":458801,"SoundDuration":458801,"Delta":128239597},{"NoteNumber":50,"Velocity":36,"Duration":209766,"SoundDuration":209766,"Delta":128351537},{"NoteNumber":53,"Velocity":43,"Duration":209766,"SoundDuration":209766,"Delta":128351537},{"NoteNumber":67,"Velocity":51,"Duration":434527,"SoundDuration":434527,"Delta":128463477},{"NoteNumber":50,"Velocity":35,"Duration":108174,"SoundDuration":108174,"Delta":128572173},{"NoteNumber":53,"Velocity":42,"Duration":108174,"SoundDuration":108174,"Delta":128572173},{"NoteNumber":60,"Velocity":54,"Duration":457107,"SoundDuration":457107,"Delta":128680347},{"NoteNumber":50,"Velocity":35,"Duration":208218,"SoundDuration":208218,"Delta":128788781},{"NoteNumber":53,"Velocity":42,"Duration":208218,"SoundDuration":208218,"Delta":128788781},{"NoteNumber":68,"Velocity":50,"Duration":445308,"SoundDuration":445308,"Delta":128898005},{"NoteNumber":50,"Velocity":34,"Duration":110837,"SoundDuration":110837,"Delta":129008030},{"NoteNumber":53,"Velocity":41,"Duration":110837,"SoundDuration":110837,"Delta":129008030},{"NoteNumber":59,"Velocity":49,"Duration":474878,"SoundDuration":474878,"Delta":129118867},{"NoteNumber":50,"Velocity":32,"Duration":215444,"SoundDuration":215444,"Delta":129230530},{"NoteNumber":53,"Velocity":38,"Duration":215444,"SoundDuration":215444,"Delta":129230530},{"NoteNumber":67,"Velocity":49,"Duration":498366,"SoundDuration":498366,"Delta":129343313},{"NoteNumber":50,"Velocity":32,"Duration":136363,"SoundDuration":136363,"Delta":129457382},{"NoteNumber":53,"Velocity":38,"Duration":136363,"SoundDuration":136363,"Delta":129457382},{"NoteNumber":60,"Velocity":49,"Duration":482462,"SoundDuration":482462,"Delta":129593745},{"NoteNumber":58,"Velocity":41,"Duration":482462,"SoundDuration":482462,"Delta":129593745},{"NoteNumber":48,"Velocity":29,"Duration":229435,"SoundDuration":229435,"Delta":129717712},{"NoteNumber":55,"Velocity":35,"Duration":229435,"SoundDuration":229435,"Delta":129717712},{"NoteNumber":64,"Velocity":44,"Duration":474073,"SoundDuration":474073,"Delta":129841679},{"NoteNumber":48,"Velocity":29,"Duration":117340,"SoundDuration":117340,"Delta":129958867},{"NoteNumber":55,"Velocity":34,"Duration":117340,"SoundDuration":117340,"Delta":129958867},{"NoteNumber":60,"Velocity":45,"Duration":487332,"SoundDuration":487332,"Delta":130076208},{"NoteNumber":58,"Velocity":37,"Duration":487332,"SoundDuration":487332,"Delta":130076208},{"NoteNumber":48,"Velocity":29,"Duration":231248,"SoundDuration":231248,"Delta":130194944},{"NoteNumber":54,"Velocity":34,"Duration":231248,"SoundDuration":231248,"Delta":130194944},{"NoteNumber":63,"Velocity":40,"Duration":504589,"SoundDuration":504589,"Delta":130315752},{"NoteNumber":48,"Velocity":28,"Duration":125001,"SoundDuration":125001,"Delta":130438539},{"NoteNumber":54,"Velocity":33,"Duration":125001,"SoundDuration":125001,"Delta":130438539},{"NoteNumber":60,"Velocity":42,"Duration":523103,"SoundDuration":523103,"Delta":130563540},{"NoteNumber":58,"Velocity":34,"Duration":523103,"SoundDuration":523103,"Delta":130563540},{"NoteNumber":48,"Velocity":26,"Duration":248194,"SoundDuration":248194,"Delta":130690842},{"NoteNumber":55,"Velocity":31,"Duration":248194,"SoundDuration":248194,"Delta":130690842},{"NoteNumber":64,"Velocity":33,"Duration":557563,"SoundDuration":557563,"Delta":130820342},{"NoteNumber":48,"Velocity":25,"Duration":134332,"SoundDuration":134332,"Delta":130952311},{"NoteNumber":55,"Velocity":31,"Duration":134332,"SoundDuration":134332,"Delta":130952311},{"NoteNumber":57,"Velocity":31,"Duration":634118,"SoundDuration":634118,"Delta":131086644},{"NoteNumber":60,"Velocity":36,"Duration":634118,"SoundDuration":634118,"Delta":131086644},{"NoteNumber":48,"Velocity":21,"Duration":299916,"SoundDuration":299916,"Delta":131232275},{"NoteNumber":53,"Velocity":26,"Duration":299916,"SoundDuration":299916,"Delta":131232275},{"NoteNumber":65,"Velocity":32,"Duration":768389,"SoundDuration":768389,"Delta":131377906},{"NoteNumber":48,"Velocity":21,"Duration":171428,"SoundDuration":171428,"Delta":131549334},{"NoteNumber":53,"Velocity":25,"Duration":171428,"SoundDuration":171428,"Delta":131549334},{"NoteNumber":57,"Velocity":25,"Duration":3050532,"SoundDuration":3050532,"Delta":131720763},{"NoteNumber":60,"Velocity":30,"Duration":3050532,"SoundDuration":3050532,"Delta":131720763},{"NoteNumber":48,"Velocity":18,"Duration":887766,"SoundDuration":887766,"Delta":131933529},{"NoteNumber":53,"Velocity":23,"Duration":887766,"SoundDuration":887766,"Delta":131933529},{"NoteNumber":72,"Velocity":32,"Duration":2625000,"SoundDuration":2625000,"Delta":132146295},{"NoteNumber":48,"Velocity":15,"Duration":1875000,"SoundDuration":1875000,"Delta":132896295},{"NoteNumber":53,"Velocity":21,"Duration":1875000,"SoundDuration":1875000,"Delta":132896295},{"NoteNumber":66,"Velocity":44,"Duration":110132,"SoundDuration":110132,"Delta":136771295},{"NoteNumber":67,"Velocity":45,"Duration":110132,"SoundDuration":110132,"Delta":136859400},{"NoteNumber":69,"Velocity":46,"Duration":109292,"SoundDuration":109292,"Delta":136947506},{"NoteNumber":70,"Velocity":46,"Duration":105932,"SoundDuration":105932,"Delta":137035612},{"NoteNumber":72,"Velocity":47,"Duration":105932,"SoundDuration":105932,"Delta":137120357},{"NoteNumber":74,"Velocity":48,"Duration":104745,"SoundDuration":104745,"Delta":137205103},{"NoteNumber":76,"Velocity":49,"Duration":99999,"SoundDuration":99999,"Delta":137289849},{"NoteNumber":36,"Velocity":50,"Duration":120000,"SoundDuration":120000,"Delta":137289849},{"NoteNumber":79,"Velocity":47,"Duration":79999,"SoundDuration":79999,"Delta":137369849},{"NoteNumber":72,"Velocity":47,"Duration":97276,"SoundDuration":97276,"Delta":137449849},{"NoteNumber":73,"Velocity":51,"Duration":97200,"SoundDuration":97200,"Delta":137527670},{"NoteNumber":64,"Velocity":41,"Duration":116580,"SoundDuration":116580,"Delta":137527670},{"NoteNumber":60,"Velocity":41,"Duration":116580,"SoundDuration":116580,"Delta":137527670},{"NoteNumber":82,"Velocity":47,"Duration":77519,"SoundDuration":77519,"Delta":137605491},{"NoteNumber":69,"Velocity":48,"Duration":97132,"SoundDuration":97132,"Delta":137683010},{"NoteNumber":70,"Velocity":51,"Duration":98814,"SoundDuration":98814,"Delta":137760380},{"NoteNumber":40,"Velocity":51,"Duration":118576,"SoundDuration":118576,"Delta":137760380},{"NoteNumber":79,"Velocity":45,"Duration":79051,"SoundDuration":79051,"Delta":137839431},{"NoteNumber":66,"Velocity":45,"Duration":98431,"SoundDuration":98431,"Delta":137918483},{"NoteNumber":67,"Velocity":51,"Duration":96899,"SoundDuration":96899,"Delta":137997534},{"NoteNumber":64,"Velocity":41,"Duration":116278,"SoundDuration":116278,"Delta":137997534},{"NoteNumber":60,"Velocity":41,"Duration":116278,"SoundDuration":116278,"Delta":137997534},{"NoteNumber":69,"Velocity":46,"Duration":96899,"SoundDuration":96899,"Delta":138075053},{"NoteNumber":70,"Velocity":46,"Duration":97282,"SoundDuration":97282,"Delta":138152573},{"NoteNumber":72,"Velocity":51,"Duration":98814,"SoundDuration":98814,"Delta":138230092},{"NoteNumber":43,"Velocity":53,"Duration":118576,"SoundDuration":118576,"Delta":138230092},{"NoteNumber":74,"Velocity":51,"Duration":98814,"SoundDuration":98814,"Delta":138309143},{"NoteNumber":76,"Velocity":53,"Duration":98356,"SoundDuration":98356,"Delta":138388195},{"NoteNumber":77,"Velocity":54,"Duration":96525,"SoundDuration":96525,"Delta":138467246},{"NoteNumber":64,"Velocity":44,"Duration":115829,"SoundDuration":115829,"Delta":138467246},{"NoteNumber":60,"Velocity":44,"Duration":115829,"SoundDuration":115829,"Delta":138467246},{"NoteNumber":79,"Velocity":55,"Duration":96524,"SoundDuration":96524,"Delta":138544466},{"NoteNumber":81,"Velocity":55,"Duration":96599,"SoundDuration":96599,"Delta":138621686},{"NoteNumber":84,"Velocity":56,"Duration":405634,"SoundDuration":405634,"Delta":138698906},{"NoteNumber":48,"Velocity":54,"Duration":116278,"SoundDuration":116278,"Delta":138698906},{"NoteNumber":76,"Velocity":53,"Duration":96899,"SoundDuration":96899,"Delta":138776425},{"NoteNumber":79,"Velocity":53,"Duration":96750,"SoundDuration":96750,"Delta":138853945},{"NoteNumber":82,"Velocity":54,"Duration":96153,"SoundDuration":96153,"Delta":138931464},{"NoteNumber":64,"Velocity":44,"Duration":115384,"SoundDuration":115384,"Delta":138931464},{"NoteNumber":60,"Velocity":44,"Duration":115384,"SoundDuration":115384,"Delta":138931464},{"NoteNumber":84,"Velocity":55,"Duration":153846,"SoundDuration":153846,"Delta":139008387},{"NoteNumber":86,"Velocity":56,"Duration":96228,"SoundDuration":96228,"Delta":139085310},{"NoteNumber":87,"Velocity":57,"Duration":96525,"SoundDuration":96525,"Delta":139162233},{"NoteNumber":52,"Velocity":56,"Duration":115829,"SoundDuration":115829,"Delta":139162233},{"NoteNumber":88,"Velocity":58,"Duration":96524,"SoundDuration":96524,"Delta":139239453},{"NoteNumber":89,"Velocity":59,"Duration":96599,"SoundDuration":96599,"Delta":139316673},{"NoteNumber":90,"Velocity":60,"Duration":96899,"SoundDuration":96899,"Delta":139393893},{"NoteNumber":64,"Velocity":45,"Duration":116278,"SoundDuration":116278,"Delta":139393893},{"NoteNumber":60,"Velocity":45,"Duration":116278,"SoundDuration":116278,"Delta":139393893},{"NoteNumber":91,"Velocity":61,"Duration":96899,"SoundDuration":96899,"Delta":139471412},{"NoteNumber":93,"Velocity":62,"Duration":96974,"SoundDuration":96974,"Delta":139548932},{"NoteNumber":94,"Velocity":63,"Duration":97276,"SoundDuration":97276,"Delta":139626451},{"NoteNumber":55,"Velocity":58,"Duration":116731,"SoundDuration":116731,"Delta":139626451},{"NoteNumber":95,"Velocity":64,"Duration":97276,"SoundDuration":97276,"Delta":139704272},{"NoteNumber":96,"Velocity":65,"Duration":97352,"SoundDuration":97352,"Delta":139782093},{"NoteNumber":97,"Velocity":66,"Duration":97656,"SoundDuration":97656,"Delta":139859914},{"NoteNumber":64,"Velocity":49,"Duration":117187,"SoundDuration":117187,"Delta":139859914},{"NoteNumber":60,"Velocity":49,"Duration":117187,"SoundDuration":117187,"Delta":139859914},{"NoteNumber":98,"Velocity":67,"Duration":97656,"SoundDuration":97656,"Delta":139938039},{"NoteNumber":100,"Velocity":68,"Duration":97885,"SoundDuration":97885,"Delta":140016164},{"NoteNumber":101,"Velocity":74,"Duration":98039,"SoundDuration":98039,"Delta":140094442},{"NoteNumber":41,"Velocity":58,"Duration":241250,"SoundDuration":241250,"Delta":140094442},{"NoteNumber":96,"Velocity":69,"Duration":99528,"SoundDuration":99528,"Delta":140172874},{"NoteNumber":93,"Velocity":68,"Duration":84388,"SoundDuration":84388,"Delta":140251305},{"NoteNumber":92,"Velocity":72,"Duration":235294,"SoundDuration":235294,"Delta":140335693},{"NoteNumber":62,"Velocity":62,"Duration":235294,"SoundDuration":235294,"Delta":140335693},{"NoteNumber":58,"Velocity":62,"Duration":235294,"SoundDuration":235294,"Delta":140335693},{"NoteNumber":53,"Velocity":62,"Duration":488804,"SoundDuration":488804,"Delta":140335693},{"NoteNumber":98,"Velocity":66,"Duration":98039,"SoundDuration":98039,"Delta":140414124},{"NoteNumber":95,"Velocity":66,"Duration":78431,"SoundDuration":78431,"Delta":140492556},{"NoteNumber":96,"Velocity":74,"Duration":101626,"SoundDuration":101626,"Delta":140570987},{"NoteNumber":60,"Velocity":56,"Duration":253510,"SoundDuration":253510,"Delta":140570987},{"NoteNumber":57,"Velocity":56,"Duration":253510,"SoundDuration":253510,"Delta":140570987},{"NoteNumber":93,"Velocity":66,"Duration":104028,"SoundDuration":104028,"Delta":140652288},{"NoteNumber":89,"Velocity":66,"Duration":90909,"SoundDuration":90909,"Delta":140733589},{"NoteNumber":86,"Velocity":71,"Duration":240000,"SoundDuration":240000,"Delta":140824498},{"NoteNumber":65,"Velocity":61,"Duration":240000,"SoundDuration":240000,"Delta":140824498},{"NoteNumber":59,"Velocity":61,"Duration":240000,"SoundDuration":240000,"Delta":140824498},{"NoteNumber":68,"Velocity":61,"Duration":240000,"SoundDuration":240000,"Delta":140824498},{"NoteNumber":92,"Velocity":66,"Duration":99999,"SoundDuration":99999,"Delta":140904498},{"NoteNumber":89,"Velocity":66,"Duration":80000,"SoundDuration":80000,"Delta":140984498},{"NoteNumber":93,"Velocity":70,"Duration":102040,"SoundDuration":102040,"Delta":141064498},{"NoteNumber":60,"Velocity":54,"Duration":252154,"SoundDuration":252154,"Delta":141064498},{"NoteNumber":69,"Velocity":54,"Duration":252154,"SoundDuration":252154,"Delta":141064498},{"NoteNumber":89,"Velocity":66,"Duration":103854,"SoundDuration":103854,"Delta":141146131},{"NoteNumber":84,"Velocity":66,"Duration":88888,"SoundDuration":88888,"Delta":141227763},{"NoteNumber":92,"Velocity":71,"Duration":98425,"SoundDuration":98425,"Delta":141316652},{"NoteNumber":65,"Velocity":62,"Duration":481714,"SoundDuration":481714,"Delta":141316652},{"NoteNumber":71,"Velocity":62,"Duration":236220,"SoundDuration":236220,"Delta":141316652},{"NoteNumber":74,"Velocity":62,"Duration":236220,"SoundDuration":236220,"Delta":141316652},{"NoteNumber":86,"Velocity":66,"Duration":98425,"SoundDuration":98425,"Delta":141395392},{"NoteNumber":83,"Velocity":66,"Duration":78740,"SoundDuration":78740,"Delta":141474132},{"NoteNumber":84,"Velocity":71,"Duration":80000,"SoundDuration":80000,"Delta":141552873},{"NoteNumber":69,"Velocity":55,"Duration":245494,"SoundDuration":245494,"Delta":141552873},{"NoteNumber":72,"Velocity":55,"Duration":245494,"SoundDuration":245494,"Delta":141552873},{"NoteNumber":81,"Velocity":60,"Duration":79999,"SoundDuration":79999,"Delta":141632873},{"NoteNumber":77,"Velocity":60,"Duration":85494,"SoundDuration":85494,"Delta":141712873},{"NoteNumber":76,"Velocity":54,"Duration":121196,"SoundDuration":121196,"Delta":141798367},{"NoteNumber":84,"Velocity":64,"Duration":80710,"SoundDuration":80710,"Delta":141798367},{"NoteNumber":81,"Velocity":46,"Duration":80971,"SoundDuration":80971,"Delta":141879078},{"NoteNumber":84,"Velocity":55,"Duration":80971,"SoundDuration":80971,"Delta":141879078},{"NoteNumber":72,"Velocity":55,"Duration":81251,"SoundDuration":81251,"Delta":141960049},{"NoteNumber":71,"Velocity":50,"Duration":122283,"SoundDuration":122283,"Delta":142041301},{"NoteNumber":81,"Velocity":59,"Duration":81466,"SoundDuration":81466,"Delta":142041301},{"NoteNumber":72,"Velocity":45,"Duration":81749,"SoundDuration":81749,"Delta":142122767},{"NoteNumber":77,"Velocity":53,"Duration":81749,"SoundDuration":81749,"Delta":142122767},{"NoteNumber":69,"Velocity":52,"Duration":81967,"SoundDuration":81967,"Delta":142204517},{"NoteNumber":68,"Velocity":50,"Duration":123524,"SoundDuration":123524,"Delta":142286484},{"NoteNumber":77,"Velocity":59,"Duration":82304,"SoundDuration":82304,"Delta":142286484},{"NoteNumber":72,"Velocity":50,"Duration":82542,"SoundDuration":82542,"Delta":142368789},{"NoteNumber":69,"Velocity":42,"Duration":82542,"SoundDuration":82542,"Delta":142368789},{"NoteNumber":65,"Velocity":50,"Duration":82816,"SoundDuration":82816,"Delta":142451331},{"NoteNumber":72,"Velocity":54,"Duration":83056,"SoundDuration":83056,"Delta":142534148},{"NoteNumber":64,"Velocity":45,"Duration":124723,"SoundDuration":124723,"Delta":142534148},{"NoteNumber":65,"Velocity":39,"Duration":83333,"SoundDuration":83333,"Delta":142617204},{"NoteNumber":69,"Velocity":47,"Duration":83333,"SoundDuration":83333,"Delta":142617204},{"NoteNumber":60,"Velocity":46,"Duration":83629,"SoundDuration":83629,"Delta":142700538},{"NoteNumber":59,"Velocity":42,"Duration":125945,"SoundDuration":125945,"Delta":142784167},{"NoteNumber":69,"Velocity":50,"Duration":83928,"SoundDuration":83928,"Delta":142784167},{"NoteNumber":60,"Velocity":37,"Duration":84157,"SoundDuration":84157,"Delta":142868095},{"NoteNumber":65,"Velocity":44,"Duration":84157,"SoundDuration":84157,"Delta":142868095},{"NoteNumber":57,"Velocity":45,"Duration":84459,"SoundDuration":84459,"Delta":142952253},{"NoteNumber":67,"Velocity":57,"Duration":84745,"SoundDuration":84745,"Delta":143036713},{"NoteNumber":47,"Velocity":54,"Duration":490135,"SoundDuration":490135,"Delta":143036713},{"NoteNumber":62,"Velocity":51,"Duration":104826,"SoundDuration":104826,"Delta":143121459},{"NoteNumber":63,"Velocity":51,"Duration":100401,"SoundDuration":100401,"Delta":143206204},{"NoteNumber":64,"Velocity":52,"Duration":100401,"SoundDuration":100401,"Delta":143286526},{"NoteNumber":59,"Velocity":41,"Duration":120482,"SoundDuration":120482,"Delta":143286526},{"NoteNumber":55,"Velocity":34,"Duration":120482,"SoundDuration":120482,"Delta":143286526},{"NoteNumber":65,"Velocity":52,"Duration":100001,"SoundDuration":100001,"Delta":143366847},{"NoteNumber":66,"Velocity":53,"Duration":99999,"SoundDuration":99999,"Delta":143446848},{"NoteNumber":67,"Velocity":53,"Duration":99761,"SoundDuration":99761,"Delta":143526848},{"NoteNumber":50,"Velocity":55,"Duration":474951,"SoundDuration":474951,"Delta":143526848},{"NoteNumber":68,"Velocity":54,"Duration":99364,"SoundDuration":99364,"Delta":143606689},{"NoteNumber":69,"Velocity":54,"Duration":99127,"SoundDuration":99127,"Delta":143686212},{"NoteNumber":70,"Velocity":55,"Duration":98736,"SoundDuration":98736,"Delta":143765577},{"NoteNumber":59,"Velocity":35,"Duration":118421,"SoundDuration":118421,"Delta":143765577},{"NoteNumber":62,"Velocity":42,"Duration":118421,"SoundDuration":118421,"Delta":143765577},{"NoteNumber":71,"Velocity":55,"Duration":98347,"SoundDuration":98347,"Delta":143844629},{"NoteNumber":72,"Velocity":56,"Duration":98039,"SoundDuration":98039,"Delta":143923369},{"NoteNumber":73,"Velocity":56,"Duration":97809,"SoundDuration":97809,"Delta":144001800},{"NoteNumber":55,"Velocity":56,"Duration":465583,"SoundDuration":465583,"Delta":144001800},{"NoteNumber":74,"Velocity":57,"Duration":97428,"SoundDuration":97428,"Delta":144080078},{"NoteNumber":75,"Velocity":57,"Duration":97050,"SoundDuration":97050,"Delta":144158051},{"NoteNumber":76,"Velocity":58,"Duration":96824,"SoundDuration":96824,"Delta":144235721},{"NoteNumber":62,"Velocity":44,"Duration":116129,"SoundDuration":116129,"Delta":144235721},{"NoteNumber":59,"Velocity":37,"Duration":116129,"SoundDuration":116129,"Delta":144235721},{"NoteNumber":77,"Velocity":58,"Duration":96450,"SoundDuration":96450,"Delta":144313241},{"NoteNumber":78,"Velocity":59,"Duration":96153,"SoundDuration":96153,"Delta":144390461},{"NoteNumber":79,"Velocity":59,"Duration":76922,"SoundDuration":76922,"Delta":144467384},{"NoteNumber":48,"Velocity":56,"Duration":461099,"SoundDuration":461099,"Delta":144467384},{"NoteNumber":72,"Velocity":61,"Duration":96153,"SoundDuration":96153,"Delta":144544307},{"NoteNumber":73,"Velocity":61,"Duration":96153,"SoundDuration":96153,"Delta":144621230},{"NoteNumber":74,"Velocity":62,"Duration":96153,"SoundDuration":96153,"Delta":144698153},{"NoteNumber":60,"Velocity":45,"Duration":230330,"SoundDuration":230330,"Delta":144698153},{"NoteNumber":58,"Velocity":38,"Duration":230330,"SoundDuration":230330,"Delta":144698153},{"NoteNumber":75,"Velocity":63,"Duration":96153,"SoundDuration":96153,"Delta":144775076},{"NoteNumber":76,"Velocity":63,"Duration":95495,"SoundDuration":95495,"Delta":144851999},{"NoteNumber":77,"Velocity":64,"Duration":95420,"SoundDuration":95420,"Delta":144928483},{"NoteNumber":52,"Velocity":58,"Duration":460223,"SoundDuration":460223,"Delta":144928483},{"NoteNumber":78,"Velocity":65,"Duration":95419,"SoundDuration":95419,"Delta":145004820},{"NoteNumber":79,"Velocity":65,"Duration":95639,"SoundDuration":95639,"Delta":145081156},{"NoteNumber":80,"Velocity":66,"Duration":96006,"SoundDuration":96006,"Delta":145157638},{"NoteNumber":60,"Velocity":47,"Duration":231068,"SoundDuration":231068,"Delta":145157638},{"NoteNumber":58,"Velocity":39,"Duration":231068,"SoundDuration":231068,"Delta":145157638},{"NoteNumber":81,"Velocity":67,"Duration":96227,"SoundDuration":96227,"Delta":145234414},{"NoteNumber":82,"Velocity":67,"Duration":96749,"SoundDuration":96749,"Delta":145311337},{"NoteNumber":83,"Velocity":67,"Duration":97201,"SoundDuration":97201,"Delta":145388706},{"NoteNumber":55,"Velocity":61,"Duration":473265,"SoundDuration":473265,"Delta":145388706},{"NoteNumber":84,"Velocity":68,"Duration":97885,"SoundDuration":97885,"Delta":145466377},{"NoteNumber":85,"Velocity":69,"Duration":98348,"SoundDuration":98348,"Delta":145544655},{"NoteNumber":86,"Velocity":71,"Duration":99049,"SoundDuration":99049,"Delta":145623240},{"NoteNumber":60,"Velocity":51,"Duration":238731,"SoundDuration":238731,"Delta":145623240},{"NoteNumber":58,"Velocity":43,"Duration":238731,"SoundDuration":238731,"Delta":145623240},{"NoteNumber":87,"Velocity":72,"Duration":99523,"SoundDuration":99523,"Delta":145702449},{"NoteNumber":88,"Velocity":73,"Duration":101276,"SoundDuration":101276,"Delta":145781972},{"NoteNumber":89,"Velocity":75,"Duration":85106,"SoundDuration":85106,"Delta":145861972},{"NoteNumber":53,"Velocity":43,"Duration":127659,"SoundDuration":127659,"Delta":145861972},{"NoteNumber":60,"Velocity":56,"Duration":127659,"SoundDuration":127659,"Delta":145861972},{"NoteNumber":57,"Velocity":43,"Duration":127659,"SoundDuration":127659,"Delta":145861972},{"NoteNumber":84,"Velocity":70,"Duration":85106,"SoundDuration":85106,"Delta":145947078},{"NoteNumber":81,"Velocity":70,"Duration":89285,"SoundDuration":89285,"Delta":146032184},{"NoteNumber":80,"Velocity":74,"Duration":89285,"SoundDuration":89285,"Delta":146121470},{"NoteNumber":53,"Velocity":43,"Duration":144534,"SoundDuration":144534,"Delta":146121470},{"NoteNumber":56,"Velocity":43,"Duration":144534,"SoundDuration":144534,"Delta":146121470},{"NoteNumber":61,"Velocity":56,"Duration":144534,"SoundDuration":144534,"Delta":146121470},{"NoteNumber":85,"Velocity":70,"Duration":110497,"SoundDuration":110497,"Delta":146210756},{"NoteNumber":89,"Velocity":70,"Duration":110497,"SoundDuration":110497,"Delta":146321253},{"NoteNumber":101,"Velocity":77,"Duration":80971,"SoundDuration":80971,"Delta":146431750},{"NoteNumber":56,"Velocity":46,"Duration":721002,"SoundDuration":721002,"Delta":146431750},{"NoteNumber":62,"Velocity":60,"Duration":957225,"SoundDuration":957225,"Delta":146431750},{"NoteNumber":59,"Velocity":46,"Duration":957225,"SoundDuration":957225,"Delta":146431750},{"NoteNumber":53,"Velocity":46,"Duration":957225,"SoundDuration":957225,"Delta":146431750},{"NoteNumber":95,"Velocity":72,"Duration":80808,"SoundDuration":80808,"Delta":146512722},{"NoteNumber":92,"Velocity":72,"Duration":80645,"SoundDuration":80645,"Delta":146593530},{"NoteNumber":89,"Velocity":71,"Duration":80321,"SoundDuration":80321,"Delta":146674175},{"NoteNumber":86,"Velocity":70,"Duration":80160,"SoundDuration":80160,"Delta":146754497},{"NoteNumber":83,"Velocity":69,"Duration":79840,"SoundDuration":79840,"Delta":146834657},{"NoteNumber":80,"Velocity":69,"Duration":79681,"SoundDuration":79681,"Delta":146914498},{"NoteNumber":77,"Velocity":68,"Duration":79364,"SoundDuration":79364,"Delta":146994179},{"NoteNumber":74,"Velocity":67,"Duration":79208,"SoundDuration":79208,"Delta":147073544},{"NoteNumber":71,"Velocity":66,"Duration":79051,"SoundDuration":79051,"Delta":147152753},{"NoteNumber":55,"Velocity":49,"Duration":704067,"SoundDuration":704067,"Delta":147152753},{"NoteNumber":68,"Velocity":66,"Duration":78740,"SoundDuration":78740,"Delta":147231804},{"NoteNumber":65,"Velocity":65,"Duration":78431,"SoundDuration":78431,"Delta":147310544},{"NoteNumber":72,"Velocity":66,"Duration":78431,"SoundDuration":78431,"Delta":147388975},{"NoteNumber":52,"Velocity":45,"Duration":467844,"SoundDuration":467844,"Delta":147388975},{"NoteNumber":60,"Velocity":53,"Duration":467844,"SoundDuration":467844,"Delta":147388975},{"NoteNumber":67,"Velocity":60,"Duration":97809,"SoundDuration":97809,"Delta":147467407},{"NoteNumber":68,"Velocity":60,"Duration":97580,"SoundDuration":97580,"Delta":147545685},{"NoteNumber":69,"Velocity":65,"Duration":97276,"SoundDuration":97276,"Delta":147623810},{"NoteNumber":70,"Velocity":60,"Duration":97049,"SoundDuration":97049,"Delta":147701631},{"NoteNumber":71,"Velocity":60,"Duration":96824,"SoundDuration":96824,"Delta":147779301},{"NoteNumber":72,"Velocity":62,"Duration":96749,"SoundDuration":96749,"Delta":147856820},{"NoteNumber":73,"Velocity":61,"Duration":97201,"SoundDuration":97201,"Delta":147934190},{"NoteNumber":74,"Velocity":60,"Duration":97963,"SoundDuration":97963,"Delta":148011860},{"NoteNumber":75,"Velocity":59,"Duration":98503,"SoundDuration":98503,"Delta":148090138},{"NoteNumber":76,"Velocity":58,"Duration":99128,"SoundDuration":99128,"Delta":148168879},{"NoteNumber":77,"Velocity":57,"Duration":81027,"SoundDuration":81027,"Delta":148248087},{"NoteNumber":78,"Velocity":55,"Duration":86214,"SoundDuration":86214,"Delta":148329114},{"NoteNumber":84,"Velocity":56,"Duration":461059,"SoundDuration":461059,"Delta":148329114},{"NoteNumber":57,"Velocity":53,"Duration":562842,"SoundDuration":562842,"Delta":148329114},{"NoteNumber":79,"Velocity":54,"Duration":88994,"SoundDuration":88994,"Delta":148415329},{"NoteNumber":81,"Velocity":53,"Duration":92067,"SoundDuration":92067,"Delta":148504323},{"NoteNumber":82,"Velocity":52,"Duration":95248,"SoundDuration":95248,"Delta":148596390},{"NoteNumber":75,"Velocity":38,"Duration":295566,"SoundDuration":295566,"Delta":148596390},{"NoteNumber":72,"Velocity":32,"Duration":295566,"SoundDuration":295566,"Delta":148596390},{"NoteNumber":66,"Velocity":32,"Duration":295566,"SoundDuration":295566,"Delta":148596390},{"NoteNumber":84,"Velocity":51,"Duration":200317,"SoundDuration":200317,"Delta":148691639},{"NoteNumber":86,"Velocity":50,"Duration":101783,"SoundDuration":101783,"Delta":148790173},{"NoteNumber":84,"Velocity":50,"Duration":250000,"SoundDuration":250000,"Delta":148891956},{"NoteNumber":88,"Velocity":50,"Duration":83333,"SoundDuration":83333,"Delta":148891956},{"NoteNumber":58,"Velocity":56,"Duration":500000,"SoundDuration":500000,"Delta":148891956},{"NoteNumber":91,"Velocity":52,"Duration":83333,"SoundDuration":83333,"Delta":148975290},{"NoteNumber":84,"Velocity":52,"Duration":83333,"SoundDuration":83333,"Delta":149058623},{"NoteNumber":85,"Velocity":48,"Duration":83333,"SoundDuration":83333,"Delta":149141956},{"NoteNumber":76,"Velocity":41,"Duration":250000,"SoundDuration":250000,"Delta":149141956},{"NoteNumber":72,"Velocity":34,"Duration":250000,"SoundDuration":250000,"Delta":149141956},{"NoteNumber":67,"Velocity":34,"Duration":250000,"SoundDuration":250000,"Delta":149141956},{"NoteNumber":94,"Velocity":41,"Duration":83333,"SoundDuration":83333,"Delta":149225290},{"NoteNumber":81,"Velocity":42,"Duration":83333,"SoundDuration":83333,"Delta":149308623},{"NoteNumber":82,"Velocity":47,"Duration":81300,"SoundDuration":81300,"Delta":149391956},{"NoteNumber":64,"Velocity":57,"Duration":487805,"SoundDuration":487805,"Delta":149391956},{"NoteNumber":91,"Velocity":42,"Duration":81300,"SoundDuration":81300,"Delta":149473257},{"NoteNumber":78,"Velocity":42,"Duration":81300,"SoundDuration":81300,"Delta":149554558},{"NoteNumber":79,"Velocity":47,"Duration":81300,"SoundDuration":81300,"Delta":149635859},{"NoteNumber":70,"Velocity":34,"Duration":243902,"SoundDuration":243902,"Delta":149635859},{"NoteNumber":72,"Velocity":34,"Duration":243902,"SoundDuration":243902,"Delta":149635859},{"NoteNumber":76,"Velocity":41,"Duration":243902,"SoundDuration":243902,"Delta":149635859},{"NoteNumber":81,"Velocity":42,"Duration":81300,"SoundDuration":81300,"Delta":149717160},{"NoteNumber":82,"Velocity":42,"Duration":81300,"SoundDuration":81300,"Delta":149798460},{"NoteNumber":84,"Velocity":47,"Duration":84388,"SoundDuration":84388,"Delta":149879761},{"NoteNumber":67,"Velocity":60,"Duration":506328,"SoundDuration":506328,"Delta":149879761},{"NoteNumber":86,"Velocity":42,"Duration":84388,"SoundDuration":84388,"Delta":149964149},{"NoteNumber":88,"Velocity":42,"Duration":84388,"SoundDuration":84388,"Delta":150048538},{"NoteNumber":89,"Velocity":45,"Duration":84388,"SoundDuration":84388,"Delta":150132926},{"NoteNumber":70,"Velocity":34,"Duration":506328,"SoundDuration":506328,"Delta":150132926},{"NoteNumber":72,"Velocity":34,"Duration":506328,"SoundDuration":506328,"Delta":150132926},{"NoteNumber":76,"Velocity":41,"Duration":506328,"SoundDuration":506328,"Delta":150132926},{"NoteNumber":91,"Velocity":42,"Duration":84388,"SoundDuration":84388,"Delta":150217314},{"NoteNumber":93,"Velocity":42,"Duration":84388,"SoundDuration":84388,"Delta":150301702},{"NoteNumber":96,"Velocity":51,"Duration":84388,"SoundDuration":84388,"Delta":150386090},{"NoteNumber":67,"Velocity":60,"Duration":998131,"SoundDuration":998131,"Delta":150386090},{"NoteNumber":94,"Velocity":42,"Duration":84388,"SoundDuration":84388,"Delta":150470478},{"NoteNumber":91,"Velocity":42,"Duration":84388,"SoundDuration":84388,"Delta":150554867},{"NoteNumber":88,"Velocity":48,"Duration":84388,"SoundDuration":84388,"Delta":150639255},{"NoteNumber":72,"Velocity":40,"Duration":240506,"SoundDuration":240506,"Delta":150639255},{"NoteNumber":76,"Velocity":48,"Duration":240506,"SoundDuration":240506,"Delta":150639255},{"NoteNumber":84,"Velocity":48,"Duration":84388,"SoundDuration":84388,"Delta":150723643},{"NoteNumber":86,"Velocity":49,"Duration":84388,"SoundDuration":84388,"Delta":150808031},{"NoteNumber":87,"Velocity":49,"Duration":81967,"SoundDuration":81967,"Delta":150892419},{"NoteNumber":72,"Velocity":40,"Duration":233606,"SoundDuration":233606,"Delta":150892419},{"NoteNumber":76,"Velocity":48,"Duration":233606,"SoundDuration":233606,"Delta":150892419},{"NoteNumber":88,"Velocity":50,"Duration":81967,"SoundDuration":81967,"Delta":150974386},{"NoteNumber":89,"Velocity":52,"Duration":81967,"SoundDuration":81967,"Delta":151056354},{"NoteNumber":90,"Velocity":54,"Duration":81967,"SoundDuration":81967,"Delta":151138321},{"NoteNumber":72,"Velocity":40,"Duration":233606,"SoundDuration":233606,"Delta":151138321},{"NoteNumber":76,"Velocity":48,"Duration":233606,"SoundDuration":233606,"Delta":151138321},{"NoteNumber":91,"Velocity":55,"Duration":81967,"SoundDuration":81967,"Delta":151220288},{"NoteNumber":93,"Velocity":57,"Duration":81967,"SoundDuration":81967,"Delta":151302255},{"NoteNumber":94,"Velocity":59,"Duration":85106,"SoundDuration":85106,"Delta":151384222},{"NoteNumber":70,"Velocity":57,"Duration":500216,"SoundDuration":500216,"Delta":151384222},{"NoteNumber":95,"Velocity":60,"Duration":85106,"SoundDuration":85106,"Delta":151469329},{"NoteNumber":96,"Velocity":62,"Duration":85106,"SoundDuration":85106,"Delta":151554435},{"NoteNumber":97,"Velocity":64,"Duration":81632,"SoundDuration":81632,"Delta":151639541},{"NoteNumber":72,"Velocity":40,"Duration":489796,"SoundDuration":489796,"Delta":151639541},{"NoteNumber":76,"Velocity":48,"Duration":244898,"SoundDuration":244898,"Delta":151639541},{"NoteNumber":98,"Velocity":65,"Duration":81632,"SoundDuration":81632,"Delta":151721174},{"NoteNumber":100,"Velocity":67,"Duration":81632,"SoundDuration":81632,"Delta":151802807},{"NoteNumber":101,"Velocity":69,"Duration":81632,"SoundDuration":81632,"Delta":151884439},{"NoteNumber":69,"Velocity":40,"Duration":244898,"SoundDuration":244898,"Delta":151884439},{"NoteNumber":77,"Velocity":48,"Duration":244898,"SoundDuration":244898,"Delta":151884439},{"NoteNumber":96,"Velocity":57,"Duration":81632,"SoundDuration":81632,"Delta":151966072},{"NoteNumber":93,"Velocity":58,"Duration":81632,"SoundDuration":81632,"Delta":152047705},{"NoteNumber":92,"Velocity":65,"Duration":81632,"SoundDuration":81632,"Delta":152129337},{"NoteNumber":68,"Velocity":40,"Duration":489795,"SoundDuration":489795,"Delta":152129337},{"NoteNumber":65,"Velocity":40,"Duration":489795,"SoundDuration":489795,"Delta":152129337},{"NoteNumber":71,"Velocity":48,"Duration":244897,"SoundDuration":244897,"Delta":152129337},{"NoteNumber":74,"Velocity":57,"Duration":244897,"SoundDuration":244897,"Delta":152129337},{"NoteNumber":95,"Velocity":55,"Duration":81632,"SoundDuration":81632,"Delta":152210970},{"NoteNumber":98,"Velocity":55,"Duration":81632,"SoundDuration":81632,"Delta":152292603},{"NoteNumber":96,"Velocity":61,"Duration":81632,"SoundDuration":81632,"Delta":152374235},{"NoteNumber":69,"Velocity":41,"Duration":244898,"SoundDuration":244898,"Delta":152374235},{"NoteNumber":72,"Velocity":49,"Duration":244898,"SoundDuration":244898,"Delta":152374235},{"NoteNumber":93,"Velocity":55,"Duration":81632,"SoundDuration":81632,"Delta":152455868},{"NoteNumber":89,"Velocity":55,"Duration":81632,"SoundDuration":81632,"Delta":152537501},{"NoteNumber":94,"Velocity":58,"Duration":234375,"SoundDuration":234375,"Delta":152619133},{"NoteNumber":88,"Velocity":51,"Duration":58593,"SoundDuration":58593,"Delta":152619133},{"NoteNumber":79,"Velocity":43,"Duration":58593,"SoundDuration":58593,"Delta":152619133},{"NoteNumber":100,"Velocity":53,"Duration":78125,"SoundDuration":78125,"Delta":152697258},{"NoteNumber":88,"Velocity":53,"Duration":78125,"SoundDuration":78125,"Delta":152775383},{"NoteNumber":93,"Velocity":57,"Duration":234375,"SoundDuration":234375,"Delta":152853508},{"NoteNumber":86,"Velocity":59,"Duration":58593,"SoundDuration":58593,"Delta":152853508},{"NoteNumber":77,"Velocity":50,"Duration":58593,"SoundDuration":58593,"Delta":152853508},{"NoteNumber":98,"Velocity":52,"Duration":78125,"SoundDuration":78125,"Delta":152931633},{"NoteNumber":86,"Velocity":52,"Duration":78125,"SoundDuration":78125,"Delta":153009758},{"NoteNumber":91,"Velocity":56,"Duration":239636,"SoundDuration":239636,"Delta":153087883},{"NoteNumber":84,"Velocity":58,"Duration":58593,"SoundDuration":58593,"Delta":153087883},{"NoteNumber":76,"Velocity":49,"Duration":58593,"SoundDuration":58593,"Delta":153087883},{"NoteNumber":96,"Velocity":51,"Duration":79878,"SoundDuration":79878,"Delta":153166008},{"NoteNumber":84,"Velocity":51,"Duration":81632,"SoundDuration":81632,"Delta":153245887},{"NoteNumber":89,"Velocity":54,"Duration":234375,"SoundDuration":234375,"Delta":153327520},{"NoteNumber":82,"Velocity":57,"Duration":58593,"SoundDuration":58593,"Delta":153327520},{"NoteNumber":74,"Velocity":48,"Duration":58593,"SoundDuration":58593,"Delta":153327520},{"NoteNumber":94,"Velocity":49,"Duration":78125,"SoundDuration":78125,"Delta":153405645},{"NoteNumber":82,"Velocity":49,"Duration":78125,"SoundDuration":78125,"Delta":153483770},{"NoteNumber":88,"Velocity":53,"Duration":234375,"SoundDuration":234375,"Delta":153561895},{"NoteNumber":81,"Velocity":55,"Duration":58593,"SoundDuration":58593,"Delta":153561895},{"NoteNumber":72,"Velocity":46,"Duration":58593,"SoundDuration":58593,"Delta":153561895},{"NoteNumber":93,"Velocity":49,"Duration":78125,"SoundDuration":78125,"Delta":153640020},{"NoteNumber":81,"Velocity":49,"Duration":78125,"SoundDuration":78125,"Delta":153718145},{"NoteNumber":86,"Velocity":52,"Duration":233995,"SoundDuration":233995,"Delta":153796270},{"NoteNumber":79,"Velocity":54,"Duration":58365,"SoundDuration":58365,"Delta":153796270},{"NoteNumber":70,"Velocity":45,"Duration":58365,"SoundDuration":58365,"Delta":153796270},{"NoteNumber":91,"Velocity":48,"Duration":77972,"SoundDuration":77972,"Delta":153874091},{"NoteNumber":79,"Velocity":48,"Duration":78201,"SoundDuration":78201,"Delta":153952064},{"NoteNumber":84,"Velocity":50,"Duration":236145,"SoundDuration":236145,"Delta":154030265},{"NoteNumber":77,"Velocity":53,"Duration":58823,"SoundDuration":58823,"Delta":154030265},{"NoteNumber":69,"Velocity":45,"Duration":58823,"SoundDuration":58823,"Delta":154030265},{"NoteNumber":89,"Velocity":46,"Duration":78740,"SoundDuration":78740,"Delta":154108697},{"NoteNumber":77,"Velocity":46,"Duration":78973,"SoundDuration":78973,"Delta":154187437},{"NoteNumber":83,"Velocity":49,"Duration":238333,"SoundDuration":238333,"Delta":154266410},{"NoteNumber":74,"Velocity":51,"Duration":59366,"SoundDuration":59366,"Delta":154266410},{"NoteNumber":68,"Velocity":43,"Duration":59366,"SoundDuration":59366,"Delta":154266410},{"NoteNumber":89,"Velocity":45,"Duration":79444,"SoundDuration":79444,"Delta":154345618},{"NoteNumber":77,"Velocity":45,"Duration":79681,"SoundDuration":79681,"Delta":154425063},{"NoteNumber":84,"Velocity":48,"Duration":240724,"SoundDuration":240724,"Delta":154504744},{"NoteNumber":69,"Velocity":42,"Duration":60000,"SoundDuration":60000,"Delta":154504744},{"NoteNumber":72,"Velocity":50,"Duration":60000,"SoundDuration":60000,"Delta":154504744},{"NoteNumber":89,"Velocity":44,"Duration":80240,"SoundDuration":80240,"Delta":154584744},{"NoteNumber":77,"Velocity":44,"Duration":80483,"SoundDuration":80483,"Delta":154664985},{"NoteNumber":86,"Velocity":52,"Duration":80645,"SoundDuration":80645,"Delta":154745468},{"NoteNumber":67,"Velocity":42,"Duration":241773,"SoundDuration":241773,"Delta":154745468},{"NoteNumber":71,"Velocity":50,"Duration":241773,"SoundDuration":241773,"Delta":154745468},{"NoteNumber":79,"Velocity":44,"Duration":100806,"SoundDuration":100806,"Delta":154826113},{"NoteNumber":80,"Velocity":45,"Duration":100563,"SoundDuration":100563,"Delta":154906758},{"NoteNumber":81,"Velocity":45,"Duration":100321,"SoundDuration":100321,"Delta":154987242},{"NoteNumber":62,"Velocity":43,"Duration":120321,"SoundDuration":120321,"Delta":154987242},{"NoteNumber":74,"Velocity":51,"Duration":120321,"SoundDuration":120321,"Delta":154987242},{"NoteNumber":82,"Velocity":46,"Duration":99999,"SoundDuration":99999,"Delta":155067563},{"NoteNumber":83,"Velocity":47,"Duration":99920,"SoundDuration":99920,"Delta":155147563},{"NoteNumber":84,"Velocity":48,"Duration":99601,"SoundDuration":99601,"Delta":155227563},{"NoteNumber":59,"Velocity":44,"Duration":119521,"SoundDuration":119521,"Delta":155227563},{"NoteNumber":71,"Velocity":52,"Duration":119521,"SoundDuration":119521,"Delta":155227563},{"NoteNumber":85,"Velocity":49,"Duration":99364,"SoundDuration":99364,"Delta":155307244},{"NoteNumber":86,"Velocity":50,"Duration":99206,"SoundDuration":99206,"Delta":155386768},{"NoteNumber":87,"Velocity":51,"Duration":98971,"SoundDuration":98971,"Delta":155466133},{"NoteNumber":55,"Velocity":45,"Duration":118733,"SoundDuration":118733,"Delta":155466133},{"NoteNumber":67,"Velocity":53,"Duration":118733,"SoundDuration":118733,"Delta":155466133},{"NoteNumber":88,"Velocity":51,"Duration":98736,"SoundDuration":98736,"Delta":155545341},{"NoteNumber":89,"Velocity":52,"Duration":98425,"SoundDuration":98425,"Delta":155624392},{"NoteNumber":90,"Velocity":54,"Duration":98348,"SoundDuration":98348,"Delta":155703132},{"NoteNumber":65,"Velocity":54,"Duration":117955,"SoundDuration":117955,"Delta":155703132},{"NoteNumber":53,"Velocity":45,"Duration":117955,"SoundDuration":117955,"Delta":155703132},{"NoteNumber":91,"Velocity":55,"Duration":98039,"SoundDuration":98039,"Delta":155781872},{"NoteNumber":92,"Velocity":56,"Duration":97809,"SoundDuration":97809,"Delta":155860304},{"NoteNumber":93,"Velocity":57,"Duration":97656,"SoundDuration":97656,"Delta":155938582},{"NoteNumber":62,"Velocity":57,"Duration":117187,"SoundDuration":117187,"Delta":155938582},{"NoteNumber":50,"Velocity":47,"Duration":117187,"SoundDuration":117187,"Delta":155938582},{"NoteNumber":94,"Velocity":58,"Duration":97428,"SoundDuration":97428,"Delta":156016707},{"NoteNumber":95,"Velocity":58,"Duration":97276,"SoundDuration":97276,"Delta":156094680},{"NoteNumber":96,"Velocity":59,"Duration":77821,"SoundDuration":77821,"Delta":156172501},{"NoteNumber":48,"Velocity":48,"Duration":116731,"SoundDuration":116731,"Delta":156172501},{"NoteNumber":60,"Velocity":58,"Duration":116731,"SoundDuration":116731,"Delta":156172501},{"NoteNumber":84,"Velocity":60,"Duration":97276,"SoundDuration":97276,"Delta":156250322},{"NoteNumber":85,"Velocity":61,"Duration":97352,"SoundDuration":97352,"Delta":156328143},{"NoteNumber":86,"Velocity":62,"Duration":97656,"SoundDuration":97656,"Delta":156405964},{"NoteNumber":43,"Velocity":50,"Duration":117187,"SoundDuration":117187,"Delta":156405964},{"NoteNumber":55,"Velocity":59,"Duration":117187,"SoundDuration":117187,"Delta":156405964},{"NoteNumber":87,"Velocity":63,"Duration":97656,"SoundDuration":97656,"Delta":156484089},{"NoteNumber":88,"Velocity":64,"Duration":97656,"SoundDuration":97656,"Delta":156562214},{"NoteNumber":89,"Velocity":64,"Duration":97732,"SoundDuration":97732,"Delta":156640339},{"NoteNumber":40,"Velocity":52,"Duration":117340,"SoundDuration":117340,"Delta":156640339},{"NoteNumber":52,"Velocity":62,"Duration":117340,"SoundDuration":117340,"Delta":156640339},{"NoteNumber":90,"Velocity":64,"Duration":98039,"SoundDuration":98039,"Delta":156718464},{"NoteNumber":91,"Velocity":65,"Duration":98039,"SoundDuration":98039,"Delta":156796895},{"NoteNumber":92,"Velocity":66,"Duration":98039,"SoundDuration":98039,"Delta":156875327},{"NoteNumber":36,"Velocity":54,"Duration":117647,"SoundDuration":117647,"Delta":156875327},{"NoteNumber":48,"Velocity":64,"Duration":117647,"SoundDuration":117647,"Delta":156875327},{"NoteNumber":93,"Velocity":67,"Duration":98270,"SoundDuration":98270,"Delta":156953758},{"NoteNumber":94,"Velocity":68,"Duration":98503,"SoundDuration":98503,"Delta":157032344},{"NoteNumber":95,"Velocity":69,"Duration":79208,"SoundDuration":79208,"Delta":157111084},{"NoteNumber":34,"Velocity":57,"Duration":119048,"SoundDuration":119048,"Delta":157111084},{"NoteNumber":46,"Velocity":67,"Duration":119048,"SoundDuration":119048,"Delta":157111084},{"NoteNumber":96,"Velocity":70,"Duration":79840,"SoundDuration":79840,"Delta":157190292},{"NoteNumber":97,"Velocity":71,"Duration":80483,"SoundDuration":80483,"Delta":157270133},{"NoteNumber":98,"Velocity":72,"Duration":80808,"SoundDuration":80808,"Delta":157350616},{"NoteNumber":31,"Velocity":59,"Duration":121458,"SoundDuration":121458,"Delta":157350616},{"NoteNumber":43,"Velocity":70,"Duration":121458,"SoundDuration":121458,"Delta":157350616},{"NoteNumber":99,"Velocity":72,"Duration":81466,"SoundDuration":81466,"Delta":157431424},{"NoteNumber":100,"Velocity":73,"Duration":82135,"SoundDuration":82135,"Delta":157512891},{"NoteNumber":101,"Velocity":79,"Duration":82644,"SoundDuration":82644,"Delta":157595027},{"NoteNumber":29,"Velocity":58,"Duration":247933,"SoundDuration":247933,"Delta":157595027},{"NoteNumber":41,"Velocity":74,"Duration":247933,"SoundDuration":247933,"Delta":157595027},{"NoteNumber":96,"Velocity":71,"Duration":82644,"SoundDuration":82644,"Delta":157677672},{"NoteNumber":93,"Velocity":71,"Duration":82644,"SoundDuration":82644,"Delta":157760316},{"NoteNumber":89,"Velocity":77,"Duration":78512,"SoundDuration":78512,"Delta":157842961},{"NoteNumber":48,"Velocity":55,"Duration":247934,"SoundDuration":247934,"Delta":157842961},{"NoteNumber":53,"Velocity":55,"Duration":247934,"SoundDuration":247934,"Delta":157842961},{"NoteNumber":57,"Velocity":65,"Duration":247934,"SoundDuration":247934,"Delta":157842961},{"NoteNumber":89,"Velocity":69,"Duration":82644,"SoundDuration":82644,"Delta":157925606},{"NoteNumber":84,"Velocity":69,"Duration":82644,"SoundDuration":82644,"Delta":158008250},{"NoteNumber":96,"Velocity":77,"Duration":82644,"SoundDuration":82644,"Delta":158090895},{"NoteNumber":33,"Velocity":58,"Duration":247933,"SoundDuration":247933,"Delta":158090895},{"NoteNumber":45,"Velocity":73,"Duration":247933,"SoundDuration":247933,"Delta":158090895},{"NoteNumber":93,"Velocity":71,"Duration":82644,"SoundDuration":82644,"Delta":158173540},{"NoteNumber":89,"Velocity":71,"Duration":82644,"SoundDuration":82644,"Delta":158256184},{"NoteNumber":84,"Velocity":76,"Duration":78512,"SoundDuration":78512,"Delta":158338829},{"NoteNumber":48,"Velocity":54,"Duration":247934,"SoundDuration":247934,"Delta":158338829},{"NoteNumber":53,"Velocity":54,"Duration":247934,"SoundDuration":247934,"Delta":158338829},{"NoteNumber":57,"Velocity":64,"Duration":247934,"SoundDuration":247934,"Delta":158338829},{"NoteNumber":84,"Velocity":69,"Duration":82644,"SoundDuration":82644,"Delta":158421474},{"NoteNumber":81,"Velocity":70,"Duration":82644,"SoundDuration":82644,"Delta":158504118},{"NoteNumber":93,"Velocity":74,"Duration":86580,"SoundDuration":86580,"Delta":158586763},{"NoteNumber":36,"Velocity":60,"Duration":259740,"SoundDuration":259740,"Delta":158586763},{"NoteNumber":48,"Velocity":75,"Duration":259740,"SoundDuration":259740,"Delta":158586763},{"NoteNumber":89,"Velocity":70,"Duration":86580,"SoundDuration":86580,"Delta":158673343},{"NoteNumber":84,"Velocity":70,"Duration":86580,"SoundDuration":86580,"Delta":158759923},{"NoteNumber":81,"Velocity":74,"Duration":82251,"SoundDuration":82251,"Delta":158846503},{"NoteNumber":48,"Velocity":54,"Duration":259740,"SoundDuration":259740,"Delta":158846503},{"NoteNumber":53,"Velocity":54,"Duration":259740,"SoundDuration":259740,"Delta":158846503},{"NoteNumber":57,"Velocity":64,"Duration":259740,"SoundDuration":259740,"Delta":158846503},{"NoteNumber":81,"Velocity":69,"Duration":86580,"SoundDuration":86580,"Delta":158933084},{"NoteNumber":77,"Velocity":70,"Duration":82251,"SoundDuration":82251,"Delta":159019664},{"NoteNumber":89,"Velocity":74,"Duration":265486,"SoundDuration":265486,"Delta":159106244},{"NoteNumber":41,"Velocity":60,"Duration":265486,"SoundDuration":265486,"Delta":159106244},{"NoteNumber":53,"Velocity":74,"Duration":265486,"SoundDuration":265486,"Delta":159106244},{"NoteNumber":57,"Velocity":72,"Duration":82644,"SoundDuration":82644,"Delta":159371730},{"NoteNumber":60,"Velocity":67,"Duration":82644,"SoundDuration":82644,"Delta":159454375},{"NoteNumber":65,"Velocity":68,"Duration":82644,"SoundDuration":82644,"Delta":159537020},{"NoteNumber":57,"Velocity":72,"Duration":82644,"SoundDuration":82644,"Delta":159619664},{"NoteNumber":60,"Velocity":68,"Duration":82644,"SoundDuration":82644,"Delta":159702309},{"NoteNumber":65,"Velocity":68,"Duration":82644,"SoundDuration":82644,"Delta":159784954},{"NoteNumber":69,"Velocity":75,"Duration":82644,"SoundDuration":82644,"Delta":159867598},{"NoteNumber":72,"Velocity":71,"Duration":82644,"SoundDuration":82644,"Delta":159950243},{"NoteNumber":77,"Velocity":70,"Duration":82644,"SoundDuration":82644,"Delta":160032888},{"NoteNumber":81,"Velocity":74,"Duration":88495,"SoundDuration":88495,"Delta":160115532},{"NoteNumber":84,"Velocity":72,"Duration":88495,"SoundDuration":88495,"Delta":160204028},{"NoteNumber":89,"Velocity":72,"Duration":99009,"SoundDuration":99009,"Delta":160292523},{"NoteNumber":93,"Velocity":54,"Duration":103305,"SoundDuration":103305,"Delta":160391533},{"NoteNumber":91,"Velocity":53,"Duration":103305,"SoundDuration":103305,"Delta":160474178},{"NoteNumber":89,"Velocity":52,"Duration":104012,"SoundDuration":104012,"Delta":160556823},{"NoteNumber":88,"Velocity":49,"Duration":106837,"SoundDuration":106837,"Delta":160639467},{"NoteNumber":48,"Velocity":50,"Duration":128205,"SoundDuration":128205,"Delta":160639467},{"NoteNumber":89,"Velocity":47,"Duration":106837,"SoundDuration":106837,"Delta":160724937},{"NoteNumber":91,"Velocity":47,"Duration":85470,"SoundDuration":85470,"Delta":160810408},{"NoteNumber":79,"Velocity":51,"Duration":103305,"SoundDuration":103305,"Delta":160895878},{"NoteNumber":64,"Velocity":41,"Duration":123966,"SoundDuration":123966,"Delta":160895878},{"NoteNumber":60,"Velocity":41,"Duration":123966,"SoundDuration":123966,"Delta":160895878},{"NoteNumber":82,"Velocity":47,"Duration":103305,"SoundDuration":103305,"Delta":160978522},{"NoteNumber":84,"Velocity":48,"Duration":103831,"SoundDuration":103831,"Delta":161061167},{"NoteNumber":85,"Velocity":55,"Duration":105932,"SoundDuration":105932,"Delta":161143812},{"NoteNumber":55,"Velocity":51,"Duration":127118,"SoundDuration":127118,"Delta":161143812},{"NoteNumber":88,"Velocity":45,"Duration":105932,"SoundDuration":105932,"Delta":161228558},{"NoteNumber":91,"Velocity":45,"Duration":84745,"SoundDuration":84745,"Delta":161313303},{"NoteNumber":79,"Velocity":51,"Duration":101214,"SoundDuration":101214,"Delta":161398049},{"NoteNumber":64,"Velocity":41,"Duration":121457,"SoundDuration":121457,"Delta":161398049},{"NoteNumber":60,"Velocity":41,"Duration":121457,"SoundDuration":121457,"Delta":161398049},{"NoteNumber":82,"Velocity":46,"Duration":101214,"SoundDuration":101214,"Delta":161479021},{"NoteNumber":84,"Velocity":46,"Duration":101052,"SoundDuration":101052,"Delta":161559993},{"NoteNumber":85,"Velocity":56,"Duration":100401,"SoundDuration":100401,"Delta":161640964},{"NoteNumber":52,"Velocity":53,"Duration":120482,"SoundDuration":120482,"Delta":161640964},{"NoteNumber":88,"Velocity":50,"Duration":100401,"SoundDuration":100401,"Delta":161721286},{"NoteNumber":91,"Velocity":50,"Duration":80321,"SoundDuration":80321,"Delta":161801607},{"NoteNumber":79,"Velocity":54,"Duration":98039,"SoundDuration":98039,"Delta":161881928},{"NoteNumber":64,"Velocity":44,"Duration":117647,"SoundDuration":117647,"Delta":161881928},{"NoteNumber":60,"Velocity":44,"Duration":117647,"SoundDuration":117647,"Delta":161881928},{"NoteNumber":82,"Velocity":50,"Duration":98039,"SoundDuration":98039,"Delta":161960360},{"NoteNumber":89,"Velocity":50,"Duration":98431,"SoundDuration":98431,"Delta":162038791},{"NoteNumber":88,"Velocity":49,"Duration":99999,"SoundDuration":99999,"Delta":162117222},{"NoteNumber":45,"Velocity":50,"Duration":120000,"SoundDuration":120000,"Delta":162117222},{"NoteNumber":87,"Velocity":47,"Duration":103148,"SoundDuration":103148,"Delta":162197222},{"NoteNumber":88,"Velocity":47,"Duration":112047,"SoundDuration":112047,"Delta":162277222},{"NoteNumber":100,"Velocity":48,"Duration":97200,"SoundDuration":97200,"Delta":162369815},{"NoteNumber":61,"Velocity":38,"Duration":116580,"SoundDuration":116580,"Delta":162369815},{"NoteNumber":57,"Velocity":38,"Duration":116580,"SoundDuration":116580,"Delta":162369815},{"NoteNumber":97,"Velocity":44,"Duration":96899,"SoundDuration":96899,"Delta":162447636},{"NoteNumber":91,"Velocity":44,"Duration":77221,"SoundDuration":77221,"Delta":162525155},{"NoteNumber":88,"Velocity":50,"Duration":96376,"SoundDuration":96376,"Delta":162602376},{"NoteNumber":52,"Velocity":46,"Duration":115681,"SoundDuration":115681,"Delta":162602376},{"NoteNumber":85,"Velocity":40,"Duration":96749,"SoundDuration":96749,"Delta":162679448},{"NoteNumber":88,"Velocity":40,"Duration":97125,"SoundDuration":97125,"Delta":162756818},{"NoteNumber":76,"Velocity":45,"Duration":97504,"SoundDuration":97504,"Delta":162834488},{"NoteNumber":61,"Velocity":36,"Duration":117035,"SoundDuration":117035,"Delta":162834488},{"NoteNumber":57,"Velocity":36,"Duration":117035,"SoundDuration":117035,"Delta":162834488},{"NoteNumber":73,"Velocity":40,"Duration":97885,"SoundDuration":97885,"Delta":162912461},{"NoteNumber":76,"Velocity":40,"Duration":78585,"SoundDuration":78585,"Delta":162990739},{"NoteNumber":64,"Velocity":48,"Duration":78973,"SoundDuration":78973,"Delta":163069325},{"NoteNumber":45,"Velocity":45,"Duration":118499,"SoundDuration":118499,"Delta":163069325},{"NoteNumber":61,"Velocity":42,"Duration":79051,"SoundDuration":79051,"Delta":163148298},{"NoteNumber":64,"Velocity":42,"Duration":84033,"SoundDuration":84033,"Delta":163227350},{"NoteNumber":57,"Velocity":44,"Duration":98425,"SoundDuration":98425,"Delta":163311383},{"NoteNumber":52,"Velocity":36,"Duration":118110,"SoundDuration":118110,"Delta":163311383},{"NoteNumber":49,"Velocity":36,"Duration":118110,"SoundDuration":118110,"Delta":163311383},{"NoteNumber":59,"Velocity":41,"Duration":98425,"SoundDuration":98425,"Delta":163390123},{"NoteNumber":61,"Velocity":40,"Duration":99487,"SoundDuration":99487,"Delta":163468864},{"NoteNumber":62,"Velocity":41,"Duration":103734,"SoundDuration":103734,"Delta":163547604},{"NoteNumber":38,"Velocity":42,"Duration":124481,"SoundDuration":124481,"Delta":163547604},{"NoteNumber":69,"Velocity":39,"Duration":103734,"SoundDuration":103734,"Delta":163630591},{"NoteNumber":66,"Velocity":39,"Duration":82987,"SoundDuration":82987,"Delta":163713579},{"NoteNumber":57,"Velocity":43,"Duration":101214,"SoundDuration":101214,"Delta":163796566},{"NoteNumber":54,"Velocity":34,"Duration":121457,"SoundDuration":121457,"Delta":163796566},{"NoteNumber":50,"Velocity":34,"Duration":121457,"SoundDuration":121457,"Delta":163796566},{"NoteNumber":60,"Velocity":39,"Duration":101214,"SoundDuration":101214,"Delta":163877538},{"NoteNumber":63,"Velocity":40,"Duration":101547,"SoundDuration":101547,"Delta":163958510},{"NoteNumber":62,"Velocity":46,"Duration":102880,"SoundDuration":102880,"Delta":164039481},{"NoteNumber":45,"Velocity":43,"Duration":123456,"SoundDuration":123456,"Delta":164039481},{"NoteNumber":69,"Velocity":38,"Duration":102880,"SoundDuration":102880,"Delta":164121786},{"NoteNumber":66,"Velocity":38,"Duration":82304,"SoundDuration":82304,"Delta":164204090},{"NoteNumber":57,"Velocity":43,"Duration":101214,"SoundDuration":101214,"Delta":164286395},{"NoteNumber":54,"Velocity":34,"Duration":121457,"SoundDuration":121457,"Delta":164286395},{"NoteNumber":50,"Velocity":34,"Duration":121457,"SoundDuration":121457,"Delta":164286395},{"NoteNumber":60,"Velocity":39,"Duration":101214,"SoundDuration":101214,"Delta":164367366},{"NoteNumber":63,"Velocity":39,"Duration":101052,"SoundDuration":101052,"Delta":164448338},{"NoteNumber":62,"Velocity":47,"Duration":100401,"SoundDuration":100401,"Delta":164529310},{"NoteNumber":38,"Velocity":45,"Duration":120482,"SoundDuration":120482,"Delta":164529310},{"NoteNumber":69,"Velocity":42,"Duration":100401,"SoundDuration":100401,"Delta":164609631},{"NoteNumber":66,"Velocity":42,"Duration":80321,"SoundDuration":80321,"Delta":164689952},{"NoteNumber":57,"Velocity":45,"Duration":98039,"SoundDuration":98039,"Delta":164770274},{"NoteNumber":54,"Velocity":37,"Duration":117647,"SoundDuration":117647,"Delta":164770274},{"NoteNumber":50,"Velocity":37,"Duration":117647,"SoundDuration":117647,"Delta":164770274},{"NoteNumber":60,"Velocity":42,"Duration":98039,"SoundDuration":98039,"Delta":164848705},{"NoteNumber":63,"Velocity":42,"Duration":98431,"SoundDuration":98431,"Delta":164927136},{"NoteNumber":62,"Velocity":46,"Duration":80000,"SoundDuration":80000,"Delta":165005568},{"NoteNumber":43,"Velocity":50,"Duration":120000,"SoundDuration":120000,"Delta":165005568},{"NoteNumber":65,"Velocity":47,"Duration":79999,"SoundDuration":79999,"Delta":165085568},{"NoteNumber":68,"Velocity":49,"Duration":92592,"SoundDuration":92592,"Delta":165165568},{"NoteNumber":71,"Velocity":50,"Duration":77821,"SoundDuration":77821,"Delta":165258160},{"NoteNumber":58,"Velocity":40,"Duration":232561,"SoundDuration":232561,"Delta":165258160},{"NoteNumber":55,"Velocity":40,"Duration":232561,"SoundDuration":232561,"Delta":165258160},{"NoteNumber":74,"Velocity":51,"Duration":77519,"SoundDuration":77519,"Delta":165335981},{"NoteNumber":77,"Velocity":53,"Duration":77221,"SoundDuration":77221,"Delta":165413501},{"NoteNumber":80,"Velocity":54,"Duration":77071,"SoundDuration":77071,"Delta":165490722},{"NoteNumber":50,"Velocity":52,"Duration":115681,"SoundDuration":115681,"Delta":165490722},{"NoteNumber":77,"Velocity":55,"Duration":77369,"SoundDuration":77369,"Delta":165567793},{"NoteNumber":80,"Velocity":57,"Duration":77670,"SoundDuration":77670,"Delta":165645163},{"NoteNumber":83,"Velocity":58,"Duration":77972,"SoundDuration":77972,"Delta":165722833},{"NoteNumber":58,"Velocity":45,"Duration":234836,"SoundDuration":234836,"Delta":165722833},{"NoteNumber":55,"Velocity":45,"Duration":234836,"SoundDuration":234836,"Delta":165722833},{"NoteNumber":86,"Velocity":59,"Duration":78278,"SoundDuration":78278,"Delta":165800806},{"NoteNumber":89,"Velocity":61,"Duration":78585,"SoundDuration":78585,"Delta":165879084},{"NoteNumber":92,"Velocity":62,"Duration":78973,"SoundDuration":78973,"Delta":165957670},{"NoteNumber":43,"Velocity":59,"Duration":118499,"SoundDuration":118499,"Delta":165957670},{"NoteNumber":85,"Velocity":63,"Duration":79051,"SoundDuration":79051,"Delta":166036644},{"NoteNumber":86,"Velocity":65,"Duration":80645,"SoundDuration":80645,"Delta":166115695},{"NoteNumber":89,"Velocity":66,"Duration":78740,"SoundDuration":78740,"Delta":166196340},{"NoteNumber":58,"Velocity":50,"Duration":273559,"SoundDuration":273559,"Delta":166196340},{"NoteNumber":55,"Velocity":50,"Duration":273559,"SoundDuration":273559,"Delta":166196340},{"NoteNumber":92,"Velocity":67,"Duration":78740,"SoundDuration":78740,"Delta":166275080},{"NoteNumber":95,"Velocity":72,"Duration":116078,"SoundDuration":116078,"Delta":166353820},{"NoteNumber":98,"Velocity":65,"Duration":47169,"SoundDuration":47169,"Delta":166422729},{"NoteNumber":101,"Velocity":74,"Duration":78740,"SoundDuration":78740,"Delta":166469899},{"NoteNumber":48,"Velocity":66,"Duration":482122,"SoundDuration":482122,"Delta":166469899},{"NoteNumber":100,"Velocity":72,"Duration":78740,"SoundDuration":78740,"Delta":166548639},{"NoteNumber":98,"Velocity":70,"Duration":78740,"SoundDuration":78740,"Delta":166627380},{"NoteNumber":96,"Velocity":68,"Duration":81967,"SoundDuration":81967,"Delta":166706120},{"NoteNumber":55,"Velocity":56,"Duration":245901,"SoundDuration":245901,"Delta":166706120},{"NoteNumber":94,"Velocity":64,"Duration":81967,"SoundDuration":81967,"Delta":166788087},{"NoteNumber":98,"Velocity":65,"Duration":81967,"SoundDuration":81967,"Delta":166870054},{"NoteNumber":91,"Velocity":66,"Duration":81967,"SoundDuration":81967,"Delta":166952021},{"NoteNumber":60,"Velocity":65,"Duration":491803,"SoundDuration":491803,"Delta":166952021},{"NoteNumber":64,"Velocity":65,"Duration":245901,"SoundDuration":245901,"Delta":166952021},{"NoteNumber":88,"Velocity":61,"Duration":81967,"SoundDuration":81967,"Delta":167033988},{"NoteNumber":96,"Velocity":61,"Duration":81967,"SoundDuration":81967,"Delta":167115956},{"NoteNumber":84,"Velocity":65,"Duration":81967,"SoundDuration":81967,"Delta":167197923},{"NoteNumber":55,"Velocity":51,"Duration":245901,"SoundDuration":245901,"Delta":167197923},{"NoteNumber":82,"Velocity":60,"Duration":81967,"SoundDuration":81967,"Delta":167279890},{"NoteNumber":86,"Velocity":60,"Duration":81967,"SoundDuration":81967,"Delta":167361857},{"NoteNumber":79,"Velocity":57,"Duration":81967,"SoundDuration":81967,"Delta":167443824},{"NoteNumber":64,"Velocity":54,"Duration":245901,"SoundDuration":245901,"Delta":167443824},{"NoteNumber":58,"Velocity":54,"Duration":502311,"SoundDuration":502311,"Delta":167443824},{"NoteNumber":76,"Velocity":51,"Duration":81967,"SoundDuration":81967,"Delta":167525791},{"NoteNumber":84,"Velocity":51,"Duration":81967,"SoundDuration":81967,"Delta":167607759},{"NoteNumber":72,"Velocity":55,"Duration":85470,"SoundDuration":85470,"Delta":167689726},{"NoteNumber":55,"Velocity":47,"Duration":256410,"SoundDuration":256410,"Delta":167689726},{"NoteNumber":74,"Velocity":49,"Duration":85470,"SoundDuration":85470,"Delta":167775196},{"NoteNumber":76,"Velocity":49,"Duration":85470,"SoundDuration":85470,"Delta":167860666},{"NoteNumber":77,"Velocity":52,"Duration":81967,"SoundDuration":81967,"Delta":167946136},{"NoteNumber":45,"Velocity":54,"Duration":122950,"SoundDuration":122950,"Delta":167946136},{"NoteNumber":81,"Velocity":48,"Duration":81967,"SoundDuration":81967,"Delta":168028103},{"NoteNumber":82,"Velocity":48,"Duration":79364,"SoundDuration":79364,"Delta":168110071},{"NoteNumber":84,"Velocity":52,"Duration":79364,"SoundDuration":79364,"Delta":168189436},{"NoteNumber":65,"Velocity":47,"Duration":238095,"SoundDuration":238095,"Delta":168189436},{"NoteNumber":60,"Velocity":47,"Duration":238095,"SoundDuration":238095,"Delta":168189436},{"NoteNumber":89,"Velocity":48,"Duration":79364,"SoundDuration":79364,"Delta":168268801},{"NoteNumber":93,"Velocity":48,"Duration":79365,"SoundDuration":79365,"Delta":168348166},{"NoteNumber":96,"Velocity":59,"Duration":81408,"SoundDuration":81408,"Delta":168427531},{"NoteNumber":57,"Velocity":54,"Duration":123163,"SoundDuration":123163,"Delta":168427531},{"NoteNumber":94,"Velocity":53,"Duration":83166,"SoundDuration":83166,"Delta":168508939},{"NoteNumber":93,"Velocity":53,"Duration":61274,"SoundDuration":61274,"Delta":168592105},{"NoteNumber":94,"Velocity":53,"Duration":36764,"SoundDuration":36764,"Delta":168653380},{"NoteNumber":93,"Velocity":58,"Duration":95238,"SoundDuration":95238,"Delta":168690145},{"NoteNumber":65,"Velocity":48,"Duration":290476,"SoundDuration":290476,"Delta":168690145},{"NoteNumber":60,"Velocity":48,"Duration":290476,"SoundDuration":290476,"Delta":168690145},{"NoteNumber":91,"Velocity":53,"Duration":95238,"SoundDuration":95238,"Delta":168785383},{"NoteNumber":89,"Velocity":53,"Duration":62500,"SoundDuration":62500,"Delta":168880621},{"NoteNumber":91,"Velocity":58,"Duration":37500,"SoundDuration":37500,"Delta":168943121},{"NoteNumber":89,"Velocity":60,"Duration":98522,"SoundDuration":98522,"Delta":168980621},{"NoteNumber":47,"Velocity":54,"Duration":147783,"SoundDuration":147783,"Delta":168980621},{"NoteNumber":88,"Velocity":53,"Duration":98522,"SoundDuration":98522,"Delta":169079143},{"NoteNumber":86,"Velocity":53,"Duration":65104,"SoundDuration":65104,"Delta":169177665},{"NoteNumber":88,"Velocity":58,"Duration":39062,"SoundDuration":39062,"Delta":169242769},{"NoteNumber":86,"Velocity":59,"Duration":103810,"SoundDuration":103810,"Delta":169281832},{"NoteNumber":65,"Velocity":47,"Duration":340611,"SoundDuration":340611,"Delta":169281832},{"NoteNumber":62,"Velocity":47,"Duration":340611,"SoundDuration":340611,"Delta":169281832},{"NoteNumber":55,"Velocity":47,"Duration":340611,"SoundDuration":340611,"Delta":169281832},{"NoteNumber":84,"Velocity":52,"Duration":112903,"SoundDuration":112903,"Delta":169385643},{"NoteNumber":83,"Velocity":52,"Duration":75997,"SoundDuration":75997,"Delta":169498547},{"NoteNumber":84,"Velocity":53,"Duration":47899,"SoundDuration":47899,"Delta":169574544},{"NoteNumber":93,"Velocity":57,"Duration":151515,"SoundDuration":151515,"Delta":169622443},{"NoteNumber":48,"Velocity":54,"Duration":151515,"SoundDuration":151515,"Delta":169622443},{"NoteNumber":89,"Velocity":56,"Duration":85470,"SoundDuration":85470,"Delta":169824464},{"NoteNumber":84,"Velocity":56,"Duration":85470,"SoundDuration":85470,"Delta":169909934},{"NoteNumber":65,"Velocity":47,"Duration":256410,"SoundDuration":256410,"Delta":169909934},{"NoteNumber":60,"Velocity":47,"Duration":256410,"SoundDuration":256410,"Delta":169909934},{"NoteNumber":57,"Velocity":47,"Duration":256410,"SoundDuration":256410,"Delta":169909934},{"NoteNumber":81,"Velocity":56,"Duration":85470,"SoundDuration":85470,"Delta":169995404},{"NoteNumber":77,"Velocity":55,"Duration":85470,"SoundDuration":85470,"Delta":170080874},{"NoteNumber":72,"Velocity":55,"Duration":82304,"SoundDuration":82304,"Delta":170166344},{"NoteNumber":84,"Velocity":54,"Duration":82304,"SoundDuration":82304,"Delta":170248649},{"NoteNumber":81,"Velocity":54,"Duration":82304,"SoundDuration":82304,"Delta":170330953},{"NoteNumber":77,"Velocity":53,"Duration":82304,"SoundDuration":82304,"Delta":170413258},{"NoteNumber":72,"Velocity":53,"Duration":82304,"SoundDuration":82304,"Delta":170495562},{"NoteNumber":69,"Velocity":53,"Duration":82304,"SoundDuration":82304,"Delta":170577867},{"NoteNumber":72,"Velocity":52,"Duration":82304,"SoundDuration":82304,"Delta":170660171},{"NoteNumber":36,"Velocity":54,"Duration":123456,"SoundDuration":123456,"Delta":170660171},{"NoteNumber":67,"Velocity":52,"Duration":82304,"SoundDuration":82304,"Delta":170742476},{"NoteNumber":64,"Velocity":51,"Duration":82304,"SoundDuration":82304,"Delta":170824780},{"NoteNumber":60,"Velocity":51,"Duration":82304,"SoundDuration":82304,"Delta":170907085},{"NoteNumber":52,"Velocity":47,"Duration":264952,"SoundDuration":264952,"Delta":170907085},{"NoteNumber":55,"Velocity":47,"Duration":264952,"SoundDuration":264952,"Delta":170907085},{"NoteNumber":58,"Velocity":50,"Duration":91324,"SoundDuration":91324,"Delta":170989389},{"NoteNumber":55,"Velocity":50,"Duration":91324,"SoundDuration":91324,"Delta":171080713},{"NoteNumber":53,"Velocity":50,"Duration":80168,"SoundDuration":80168,"Delta":171172038},{"NoteNumber":41,"Velocity":54,"Duration":1048423,"SoundDuration":1048423,"Delta":171172038},{"NoteNumber":53,"Velocity":51,"Duration":84388,"SoundDuration":84388,"Delta":171256426},{"NoteNumber":57,"Velocity":52,"Duration":84388,"SoundDuration":84388,"Delta":171340814},{"NoteNumber":65,"Velocity":53,"Duration":80168,"SoundDuration":80168,"Delta":171425202},{"NoteNumber":48,"Velocity":48,"Duration":127866,"SoundDuration":127866,"Delta":171425202},{"NoteNumber":65,"Velocity":55,"Duration":86956,"SoundDuration":86956,"Delta":171509590},{"NoteNumber":69,"Velocity":56,"Duration":93896,"SoundDuration":93896,"Delta":171596547},{"NoteNumber":77,"Velocity":57,"Duration":80851,"SoundDuration":80851,"Delta":171690443},{"NoteNumber":60,"Velocity":50,"Duration":127659,"SoundDuration":127659,"Delta":171690443},{"NoteNumber":77,"Velocity":58,"Duration":85106,"SoundDuration":85106,"Delta":171775550},{"NoteNumber":81,"Velocity":60,"Duration":85106,"SoundDuration":85106,"Delta":171860656},{"NoteNumber":89,"Velocity":61,"Duration":80851,"SoundDuration":80851,"Delta":171945762},{"NoteNumber":72,"Velocity":52,"Duration":130151,"SoundDuration":130151,"Delta":171945762},{"NoteNumber":89,"Velocity":62,"Duration":90090,"SoundDuration":90090,"Delta":172030869},{"NoteNumber":93,"Velocity":63,"Duration":99502,"SoundDuration":99502,"Delta":172120959},{"NoteNumber":101,"Velocity":71,"Duration":265486,"SoundDuration":265486,"Delta":172220461},{"NoteNumber":81,"Velocity":59,"Duration":88495,"SoundDuration":88495,"Delta":172220461},{"NoteNumber":84,"Velocity":62,"Duration":88495,"SoundDuration":88495,"Delta":172308957},{"NoteNumber":89,"Velocity":65,"Duration":88495,"SoundDuration":88495,"Delta":172397452},{"NoteNumber":93,"Velocity":54,"Duration":103305,"SoundDuration":103305,"Delta":172485948},{"NoteNumber":91,"Velocity":53,"Duration":103305,"SoundDuration":103305,"Delta":172568593},{"NoteNumber":89,"Velocity":52,"Duration":104012,"SoundDuration":104012,"Delta":172651237},{"NoteNumber":88,"Velocity":49,"Duration":106837,"SoundDuration":106837,"Delta":172733882},{"NoteNumber":48,"Velocity":50,"Duration":128205,"SoundDuration":128205,"Delta":172733882},{"NoteNumber":89,"Velocity":47,"Duration":106837,"SoundDuration":106837,"Delta":172819352},{"NoteNumber":91,"Velocity":47,"Duration":85470,"SoundDuration":85470,"Delta":172904822},{"NoteNumber":79,"Velocity":51,"Duration":101214,"SoundDuration":101214,"Delta":172990292},{"NoteNumber":64,"Velocity":41,"Duration":121457,"SoundDuration":121457,"Delta":172990292},{"NoteNumber":60,"Velocity":41,"Duration":121457,"SoundDuration":121457,"Delta":172990292},{"NoteNumber":82,"Velocity":47,"Duration":101214,"SoundDuration":101214,"Delta":173071264},{"NoteNumber":84,"Velocity":48,"Duration":101547,"SoundDuration":101547,"Delta":173152236},{"NoteNumber":85,"Velocity":55,"Duration":102880,"SoundDuration":102880,"Delta":173233207},{"NoteNumber":55,"Velocity":51,"Duration":123456,"SoundDuration":123456,"Delta":173233207},{"NoteNumber":88,"Velocity":45,"Duration":102880,"SoundDuration":102880,"Delta":173315512},{"NoteNumber":91,"Velocity":45,"Duration":82304,"SoundDuration":82304,"Delta":173397816},{"NoteNumber":79,"Velocity":51,"Duration":101214,"SoundDuration":101214,"Delta":173480121},{"NoteNumber":64,"Velocity":41,"Duration":121457,"SoundDuration":121457,"Delta":173480121},{"NoteNumber":60,"Velocity":41,"Duration":121457,"SoundDuration":121457,"Delta":173480121},{"NoteNumber":82,"Velocity":46,"Duration":101214,"SoundDuration":101214,"Delta":173561093},{"NoteNumber":84,"Velocity":46,"Duration":101052,"SoundDuration":101052,"Delta":173642064},{"NoteNumber":85,"Velocity":56,"Duration":100401,"SoundDuration":100401,"Delta":173723036},{"NoteNumber":52,"Velocity":53,"Duration":120482,"SoundDuration":120482,"Delta":173723036},{"NoteNumber":88,"Velocity":50,"Duration":100401,"SoundDuration":100401,"Delta":173803357},{"NoteNumber":91,"Velocity":50,"Duration":80321,"SoundDuration":80321,"Delta":173883679},{"NoteNumber":79,"Velocity":54,"Duration":98039,"SoundDuration":98039,"Delta":173964000},{"NoteNumber":64,"Velocity":44,"Duration":117647,"SoundDuration":117647,"Delta":173964000},{"NoteNumber":60,"Velocity":44,"Duration":117647,"SoundDuration":117647,"Delta":173964000},{"NoteNumber":82,"Velocity":50,"Duration":98039,"SoundDuration":98039,"Delta":174042431},{"NoteNumber":89,"Velocity":50,"Duration":98431,"SoundDuration":98431,"Delta":174120863},{"NoteNumber":88,"Velocity":49,"Duration":99999,"SoundDuration":99999,"Delta":174199294},{"NoteNumber":45,"Velocity":50,"Duration":120000,"SoundDuration":120000,"Delta":174199294},{"NoteNumber":87,"Velocity":47,"Duration":104752,"SoundDuration":104752,"Delta":174279294},{"NoteNumber":88,"Velocity":47,"Duration":119009,"SoundDuration":119009,"Delta":174359294},{"NoteNumber":100,"Velocity":48,"Duration":99681,"SoundDuration":99681,"Delta":174458304},{"NoteNumber":61,"Velocity":38,"Duration":119444,"SoundDuration":119444,"Delta":174458304},{"NoteNumber":57,"Velocity":38,"Duration":119444,"SoundDuration":119444,"Delta":174458304},{"NoteNumber":97,"Velocity":44,"Duration":98659,"SoundDuration":98659,"Delta":174538144},{"NoteNumber":91,"Velocity":44,"Duration":78202,"SoundDuration":78202,"Delta":174617196},{"NoteNumber":88,"Velocity":50,"Duration":97276,"SoundDuration":97276,"Delta":174695399},{"NoteNumber":52,"Velocity":46,"Duration":116807,"SoundDuration":116807,"Delta":174695399},{"NoteNumber":85,"Velocity":40,"Duration":97580,"SoundDuration":97580,"Delta":174773220},{"NoteNumber":88,"Velocity":40,"Duration":97962,"SoundDuration":97962,"Delta":174851269},{"NoteNumber":76,"Velocity":45,"Duration":98348,"SoundDuration":98348,"Delta":174929623},{"NoteNumber":61,"Velocity":36,"Duration":118110,"SoundDuration":118110,"Delta":174929623},{"NoteNumber":57,"Velocity":36,"Duration":118110,"SoundDuration":118110,"Delta":174929623},{"NoteNumber":73,"Velocity":40,"Duration":98736,"SoundDuration":98736,"Delta":175008286},{"NoteNumber":76,"Velocity":40,"Duration":79286,"SoundDuration":79286,"Delta":175087260},{"NoteNumber":64,"Velocity":48,"Duration":79208,"SoundDuration":79208,"Delta":175166546},{"NoteNumber":45,"Velocity":45,"Duration":118734,"SoundDuration":118734,"Delta":175166546},{"NoteNumber":61,"Velocity":42,"Duration":79051,"SoundDuration":79051,"Delta":175245755},{"NoteNumber":64,"Velocity":42,"Duration":84033,"SoundDuration":84033,"Delta":175324807},{"NoteNumber":57,"Velocity":44,"Duration":98425,"SoundDuration":98425,"Delta":175408840},{"NoteNumber":52,"Velocity":36,"Duration":118110,"SoundDuration":118110,"Delta":175408840},{"NoteNumber":49,"Velocity":36,"Duration":118110,"SoundDuration":118110,"Delta":175408840},{"NoteNumber":59,"Velocity":41,"Duration":98425,"SoundDuration":98425,"Delta":175487580},{"NoteNumber":61,"Velocity":40,"Duration":99487,"SoundDuration":99487,"Delta":175566321},{"NoteNumber":62,"Velocity":41,"Duration":103734,"SoundDuration":103734,"Delta":175645061},{"NoteNumber":38,"Velocity":42,"Duration":124481,"SoundDuration":124481,"Delta":175645061},{"NoteNumber":69,"Velocity":39,"Duration":103734,"SoundDuration":103734,"Delta":175728048},{"NoteNumber":66,"Velocity":39,"Duration":82987,"SoundDuration":82987,"Delta":175811036},{"NoteNumber":57,"Velocity":43,"Duration":101214,"SoundDuration":101214,"Delta":175894023},{"NoteNumber":54,"Velocity":34,"Duration":121457,"SoundDuration":121457,"Delta":175894023},{"NoteNumber":50,"Velocity":34,"Duration":121457,"SoundDuration":121457,"Delta":175894023},{"NoteNumber":60,"Velocity":39,"Duration":101214,"SoundDuration":101214,"Delta":175974995},{"NoteNumber":63,"Velocity":40,"Duration":101547,"SoundDuration":101547,"Delta":176055967},{"NoteNumber":62,"Velocity":46,"Duration":102880,"SoundDuration":102880,"Delta":176136938},{"NoteNumber":45,"Velocity":43,"Duration":123456,"SoundDuration":123456,"Delta":176136938},{"NoteNumber":69,"Velocity":38,"Duration":102880,"SoundDuration":102880,"Delta":176219243},{"NoteNumber":66,"Velocity":38,"Duration":82304,"SoundDuration":82304,"Delta":176301547},{"NoteNumber":57,"Velocity":43,"Duration":101214,"SoundDuration":101214,"Delta":176383852},{"NoteNumber":54,"Velocity":34,"Duration":121457,"SoundDuration":121457,"Delta":176383852},{"NoteNumber":50,"Velocity":34,"Duration":121457,"SoundDuration":121457,"Delta":176383852},{"NoteNumber":60,"Velocity":39,"Duration":101214,"SoundDuration":101214,"Delta":176464823},{"NoteNumber":63,"Velocity":39,"Duration":101052,"SoundDuration":101052,"Delta":176545795},{"NoteNumber":62,"Velocity":47,"Duration":100401,"SoundDuration":100401,"Delta":176626767},{"NoteNumber":38,"Velocity":45,"Duration":120482,"SoundDuration":120482,"Delta":176626767},{"NoteNumber":69,"Velocity":42,"Duration":100401,"SoundDuration":100401,"Delta":176707088},{"NoteNumber":66,"Velocity":42,"Duration":80321,"SoundDuration":80321,"Delta":176787409},{"NoteNumber":57,"Velocity":45,"Duration":98039,"SoundDuration":98039,"Delta":176867731},{"NoteNumber":54,"Velocity":37,"Duration":117647,"SoundDuration":117647,"Delta":176867731},{"NoteNumber":50,"Velocity":37,"Duration":117647,"SoundDuration":117647,"Delta":176867731},{"NoteNumber":60,"Velocity":42,"Duration":98039,"SoundDuration":98039,"Delta":176946162},{"NoteNumber":63,"Velocity":42,"Duration":99092,"SoundDuration":99092,"Delta":177024593},{"NoteNumber":62,"Velocity":46,"Duration":82644,"SoundDuration":82644,"Delta":177103025},{"NoteNumber":43,"Velocity":50,"Duration":123966,"SoundDuration":123966,"Delta":177103025},{"NoteNumber":65,"Velocity":47,"Duration":82644,"SoundDuration":82644,"Delta":177185669},{"NoteNumber":68,"Velocity":49,"Duration":92592,"SoundDuration":92592,"Delta":177268314},{"NoteNumber":71,"Velocity":50,"Duration":77821,"SoundDuration":77821,"Delta":177360907},{"NoteNumber":58,"Velocity":40,"Duration":232561,"SoundDuration":232561,"Delta":177360907},{"NoteNumber":55,"Velocity":40,"Duration":232561,"SoundDuration":232561,"Delta":177360907},{"NoteNumber":74,"Velocity":51,"Duration":77519,"SoundDuration":77519,"Delta":177438728},{"NoteNumber":77,"Velocity":53,"Duration":77221,"SoundDuration":77221,"Delta":177516247},{"NoteNumber":80,"Velocity":54,"Duration":77071,"SoundDuration":77071,"Delta":177593468},{"NoteNumber":50,"Velocity":52,"Duration":115681,"SoundDuration":115681,"Delta":177593468},{"NoteNumber":77,"Velocity":55,"Duration":77369,"SoundDuration":77369,"Delta":177670540},{"NoteNumber":80,"Velocity":57,"Duration":77670,"SoundDuration":77670,"Delta":177747909},{"NoteNumber":83,"Velocity":58,"Duration":77972,"SoundDuration":77972,"Delta":177825580},{"NoteNumber":58,"Velocity":45,"Duration":234836,"SoundDuration":234836,"Delta":177825580},{"NoteNumber":55,"Velocity":45,"Duration":234836,"SoundDuration":234836,"Delta":177825580},{"NoteNumber":86,"Velocity":59,"Duration":78278,"SoundDuration":78278,"Delta":177903553},{"NoteNumber":89,"Velocity":61,"Duration":78585,"SoundDuration":78585,"Delta":177981831},{"NoteNumber":92,"Velocity":62,"Duration":78973,"SoundDuration":78973,"Delta":178060416},{"NoteNumber":43,"Velocity":59,"Duration":118499,"SoundDuration":118499,"Delta":178060416},{"NoteNumber":85,"Velocity":63,"Duration":79051,"SoundDuration":79051,"Delta":178139390},{"NoteNumber":86,"Velocity":65,"Duration":80645,"SoundDuration":80645,"Delta":178218441},{"NoteNumber":89,"Velocity":66,"Duration":78740,"SoundDuration":78740,"Delta":178299087},{"NoteNumber":58,"Velocity":50,"Duration":273559,"SoundDuration":273559,"Delta":178299087},{"NoteNumber":55,"Velocity":50,"Duration":273559,"SoundDuration":273559,"Delta":178299087},{"NoteNumber":92,"Velocity":67,"Duration":78740,"SoundDuration":78740,"Delta":178377827},{"NoteNumber":95,"Velocity":72,"Duration":116078,"SoundDuration":116078,"Delta":178456567},{"NoteNumber":98,"Velocity":65,"Duration":47169,"SoundDuration":47169,"Delta":178525476},{"NoteNumber":101,"Velocity":74,"Duration":80000,"SoundDuration":80000,"Delta":178572646},{"NoteNumber":48,"Velocity":66,"Duration":485901,"SoundDuration":485901,"Delta":178572646},{"NoteNumber":100,"Velocity":72,"Duration":79999,"SoundDuration":79999,"Delta":178652646},{"NoteNumber":98,"Velocity":70,"Duration":80000,"SoundDuration":80000,"Delta":178732646},{"NoteNumber":96,"Velocity":68,"Duration":81967,"SoundDuration":81967,"Delta":178812646},{"NoteNumber":55,"Velocity":56,"Duration":245901,"SoundDuration":245901,"Delta":178812646},{"NoteNumber":94,"Velocity":64,"Duration":81967,"SoundDuration":81967,"Delta":178894613},{"NoteNumber":98,"Velocity":65,"Duration":81967,"SoundDuration":81967,"Delta":178976580},{"NoteNumber":91,"Velocity":66,"Duration":80645,"SoundDuration":80645,"Delta":179058547},{"NoteNumber":60,"Velocity":65,"Duration":487837,"SoundDuration":487837,"Delta":179058547},{"NoteNumber":64,"Velocity":65,"Duration":241935,"SoundDuration":241935,"Delta":179058547},{"NoteNumber":88,"Velocity":61,"Duration":80645,"SoundDuration":80645,"Delta":179139192},{"NoteNumber":96,"Velocity":61,"Duration":80645,"SoundDuration":80645,"Delta":179219837},{"NoteNumber":84,"Velocity":65,"Duration":81967,"SoundDuration":81967,"Delta":179300483},{"NoteNumber":55,"Velocity":51,"Duration":245901,"SoundDuration":245901,"Delta":179300483},{"NoteNumber":82,"Velocity":60,"Duration":81967,"SoundDuration":81967,"Delta":179382450},{"NoteNumber":86,"Velocity":60,"Duration":81967,"SoundDuration":81967,"Delta":179464417},{"NoteNumber":79,"Velocity":57,"Duration":81967,"SoundDuration":81967,"Delta":179546384},{"NoteNumber":64,"Velocity":54,"Duration":245901,"SoundDuration":245901,"Delta":179546384},{"NoteNumber":58,"Velocity":54,"Duration":491803,"SoundDuration":491803,"Delta":179546384},{"NoteNumber":76,"Velocity":51,"Duration":81967,"SoundDuration":81967,"Delta":179628351},{"NoteNumber":84,"Velocity":51,"Duration":81967,"SoundDuration":81967,"Delta":179710318},{"NoteNumber":72,"Velocity":55,"Duration":81967,"SoundDuration":81967,"Delta":179792286},{"NoteNumber":55,"Velocity":47,"Duration":245901,"SoundDuration":245901,"Delta":179792286},{"NoteNumber":74,"Velocity":49,"Duration":81967,"SoundDuration":81967,"Delta":179874253},{"NoteNumber":76,"Velocity":49,"Duration":81967,"SoundDuration":81967,"Delta":179956220},{"NoteNumber":77,"Velocity":52,"Duration":81967,"SoundDuration":81967,"Delta":180038187},{"NoteNumber":45,"Velocity":54,"Duration":122950,"SoundDuration":122950,"Delta":180038187},{"NoteNumber":81,"Velocity":48,"Duration":81967,"SoundDuration":81967,"Delta":180120154},{"NoteNumber":82,"Velocity":48,"Duration":79364,"SoundDuration":79364,"Delta":180202121},{"NoteNumber":84,"Velocity":52,"Duration":79364,"SoundDuration":79364,"Delta":180281486},{"NoteNumber":65,"Velocity":47,"Duration":238095,"SoundDuration":238095,"Delta":180281486},{"NoteNumber":60,"Velocity":47,"Duration":238095,"SoundDuration":238095,"Delta":180281486},{"NoteNumber":89,"Velocity":48,"Duration":79364,"SoundDuration":79364,"Delta":180360851},{"NoteNumber":93,"Velocity":48,"Duration":79365,"SoundDuration":79365,"Delta":180440216},{"NoteNumber":96,"Velocity":59,"Duration":81408,"SoundDuration":81408,"Delta":180519581},{"NoteNumber":57,"Velocity":54,"Duration":123163,"SoundDuration":123163,"Delta":180519581},{"NoteNumber":94,"Velocity":53,"Duration":83166,"SoundDuration":83166,"Delta":180600990},{"NoteNumber":93,"Velocity":53,"Duration":61274,"SoundDuration":61274,"Delta":180684156},{"NoteNumber":94,"Velocity":53,"Duration":36764,"SoundDuration":36764,"Delta":180745431},{"NoteNumber":93,"Velocity":58,"Duration":95238,"SoundDuration":95238,"Delta":180782195},{"NoteNumber":65,"Velocity":48,"Duration":290476,"SoundDuration":290476,"Delta":180782195},{"NoteNumber":60,"Velocity":48,"Duration":290476,"SoundDuration":290476,"Delta":180782195},{"NoteNumber":91,"Velocity":53,"Duration":95238,"SoundDuration":95238,"Delta":180877434},{"NoteNumber":89,"Velocity":53,"Duration":62500,"SoundDuration":62500,"Delta":180972672},{"NoteNumber":91,"Velocity":58,"Duration":37500,"SoundDuration":37500,"Delta":181035172},{"NoteNumber":89,"Velocity":60,"Duration":98522,"SoundDuration":98522,"Delta":181072672},{"NoteNumber":47,"Velocity":54,"Duration":147783,"SoundDuration":147783,"Delta":181072672},{"NoteNumber":88,"Velocity":53,"Duration":98522,"SoundDuration":98522,"Delta":181171194},{"NoteNumber":86,"Velocity":53,"Duration":67204,"SoundDuration":67204,"Delta":181269716},{"NoteNumber":88,"Velocity":58,"Duration":40178,"SoundDuration":40178,"Delta":181336920},{"NoteNumber":86,"Velocity":59,"Duration":109152,"SoundDuration":109152,"Delta":181377099},{"NoteNumber":65,"Velocity":47,"Duration":347006,"SoundDuration":347006,"Delta":181377099},{"NoteNumber":62,"Velocity":47,"Duration":347006,"SoundDuration":347006,"Delta":181377099},{"NoteNumber":55,"Velocity":47,"Duration":347006,"SoundDuration":347006,"Delta":181377099},{"NoteNumber":84,"Velocity":52,"Duration":113957,"SoundDuration":113957,"Delta":181486252},{"NoteNumber":83,"Velocity":52,"Duration":75997,"SoundDuration":75997,"Delta":181600209},{"NoteNumber":84,"Velocity":53,"Duration":47899,"SoundDuration":47899,"Delta":181676207},{"NoteNumber":93,"Velocity":57,"Duration":151515,"SoundDuration":151515,"Delta":181724106},{"NoteNumber":48,"Velocity":54,"Duration":151515,"SoundDuration":151515,"Delta":181724106},{"NoteNumber":89,"Velocity":56,"Duration":89285,"SoundDuration":89285,"Delta":181926126},{"NoteNumber":84,"Velocity":56,"Duration":89285,"SoundDuration":89285,"Delta":182015412},{"NoteNumber":65,"Velocity":47,"Duration":267857,"SoundDuration":267857,"Delta":182015412},{"NoteNumber":60,"Velocity":47,"Duration":267857,"SoundDuration":267857,"Delta":182015412},{"NoteNumber":57,"Velocity":47,"Duration":267857,"SoundDuration":267857,"Delta":182015412},{"NoteNumber":81,"Velocity":56,"Duration":89285,"SoundDuration":89285,"Delta":182104698},{"NoteNumber":77,"Velocity":55,"Duration":89285,"SoundDuration":89285,"Delta":182193983},{"NoteNumber":72,"Velocity":55,"Duration":82304,"SoundDuration":82304,"Delta":182283269},{"NoteNumber":84,"Velocity":54,"Duration":82304,"SoundDuration":82304,"Delta":182365573},{"NoteNumber":81,"Velocity":54,"Duration":84388,"SoundDuration":84388,"Delta":182447878},{"NoteNumber":77,"Velocity":53,"Duration":84388,"SoundDuration":84388,"Delta":182532266},{"NoteNumber":72,"Velocity":53,"Duration":84388,"SoundDuration":84388,"Delta":182616654},{"NoteNumber":69,"Velocity":53,"Duration":84388,"SoundDuration":84388,"Delta":182701042},{"NoteNumber":72,"Velocity":52,"Duration":82304,"SoundDuration":82304,"Delta":182785431},{"NoteNumber":36,"Velocity":54,"Duration":123456,"SoundDuration":123456,"Delta":182785431},{"NoteNumber":67,"Velocity":52,"Duration":82304,"SoundDuration":82304,"Delta":182867735},{"NoteNumber":64,"Velocity":51,"Duration":84388,"SoundDuration":84388,"Delta":182950040},{"NoteNumber":60,"Velocity":51,"Duration":84388,"SoundDuration":84388,"Delta":183034428},{"NoteNumber":52,"Velocity":47,"Duration":267036,"SoundDuration":267036,"Delta":183034428},{"NoteNumber":55,"Velocity":47,"Duration":267036,"SoundDuration":267036,"Delta":183034428},{"NoteNumber":58,"Velocity":50,"Duration":91324,"SoundDuration":91324,"Delta":183118816},{"NoteNumber":55,"Velocity":50,"Duration":91324,"SoundDuration":91324,"Delta":183210140},{"NoteNumber":53,"Velocity":50,"Duration":84388,"SoundDuration":84388,"Delta":183301464},{"NoteNumber":41,"Velocity":54,"Duration":253164,"SoundDuration":253164,"Delta":183301464},{"NoteNumber":57,"Velocity":51,"Duration":84388,"SoundDuration":84388,"Delta":183385852},{"NoteNumber":60,"Velocity":52,"Duration":84388,"SoundDuration":84388,"Delta":183470241},{"NoteNumber":65,"Velocity":52,"Duration":63291,"SoundDuration":63291,"Delta":183554629},{"NoteNumber":69,"Velocity":52,"Duration":64575,"SoundDuration":64575,"Delta":183617920},{"NoteNumber":72,"Velocity":53,"Duration":65217,"SoundDuration":65217,"Delta":183682495},{"NoteNumber":77,"Velocity":53,"Duration":62695,"SoundDuration":62695,"Delta":183747713},{"NoteNumber":53,"Velocity":41,"Duration":304620,"SoundDuration":304620,"Delta":183810408},{"NoteNumber":57,"Velocity":45,"Duration":271035,"SoundDuration":271035,"Delta":183843992},{"NoteNumber":60,"Velocity":49,"Duration":236545,"SoundDuration":236545,"Delta":183878483},{"NoteNumber":65,"Velocity":53,"Duration":201053,"SoundDuration":201053,"Delta":183913975},{"NoteNumber":77,"Velocity":53,"Duration":164548,"SoundDuration":164548,"Delta":183950480},{"NoteNumber":81,"Velocity":56,"Duration":126919,"SoundDuration":126919,"Delta":183988109},{"NoteNumber":84,"Velocity":60,"Duration":87655,"SoundDuration":87655,"Delta":184027373},{"NoteNumber":89,"Velocity":63,"Duration":44117,"SoundDuration":44117,"Delta":184070911},{"NoteNumber":86,"Velocity":50,"Duration":838536,"SoundDuration":838536,"Delta":186540137},{"NoteNumber":74,"Velocity":42,"Duration":838536,"SoundDuration":838536,"Delta":186540137},{"NoteNumber":87,"Velocity":53,"Duration":838536,"SoundDuration":838536,"Delta":187378673},{"NoteNumber":75,"Velocity":45,"Duration":838536,"SoundDuration":838536,"Delta":187378673},{"NoteNumber":44,"Velocity":36,"Duration":559023,"SoundDuration":559023,"Delta":187378673},{"NoteNumber":63,"Velocity":32,"Duration":277182,"SoundDuration":277182,"Delta":187937697},{"NoteNumber":60,"Velocity":27,"Duration":277182,"SoundDuration":277182,"Delta":187937697},{"NoteNumber":51,"Velocity":27,"Duration":277182,"SoundDuration":277182,"Delta":187937697},{"NoteNumber":92,"Velocity":58,"Duration":741229,"SoundDuration":741229,"Delta":188217209},{"NoteNumber":80,"Velocity":49,"Duration":741229,"SoundDuration":741229,"Delta":188217209},{"NoteNumber":63,"Velocity":38,"Duration":489005,"SoundDuration":489005,"Delta":188217209},{"NoteNumber":60,"Velocity":31,"Duration":489005,"SoundDuration":489005,"Delta":188217209},{"NoteNumber":56,"Velocity":31,"Duration":489005,"SoundDuration":489005,"Delta":188217209},{"NoteNumber":63,"Velocity":35,"Duration":245017,"SoundDuration":245017,"Delta":188711362},{"NoteNumber":60,"Velocity":29,"Duration":245017,"SoundDuration":245017,"Delta":188711362},{"NoteNumber":51,"Velocity":29,"Duration":245017,"SoundDuration":245017,"Delta":188711362},{"NoteNumber":96,"Velocity":63,"Duration":760819,"SoundDuration":760819,"Delta":188958438},{"NoteNumber":84,"Velocity":52,"Duration":760819,"SoundDuration":760819,"Delta":188958438},{"NoteNumber":56,"Velocity":33,"Duration":489005,"SoundDuration":489005,"Delta":188958438},{"NoteNumber":60,"Velocity":33,"Duration":489005,"SoundDuration":489005,"Delta":188958438},{"NoteNumber":63,"Velocity":40,"Duration":489005,"SoundDuration":489005,"Delta":188958438},{"NoteNumber":51,"Velocity":30,"Duration":264444,"SoundDuration":264444,"Delta":189452591},{"NoteNumber":60,"Velocity":30,"Duration":264444,"SoundDuration":264444,"Delta":189452591},{"NoteNumber":63,"Velocity":36,"Duration":264444,"SoundDuration":264444,"Delta":189452591},{"NoteNumber":89,"Velocity":60,"Duration":1500906,"SoundDuration":1500906,"Delta":189719258},{"NoteNumber":101,"Velocity":70,"Duration":1500906,"SoundDuration":1500906,"Delta":189719258},{"NoteNumber":41,"Velocity":50,"Duration":512600,"SoundDuration":512600,"Delta":189719258},{"NoteNumber":65,"Velocity":43,"Duration":245017,"SoundDuration":245017,"Delta":190231859},{"NoteNumber":63,"Velocity":36,"Duration":245017,"SoundDuration":245017,"Delta":190231859},{"NoteNumber":53,"Velocity":36,"Duration":245017,"SoundDuration":245017,"Delta":190231859},{"NoteNumber":65,"Velocity":43,"Duration":489005,"SoundDuration":489005,"Delta":190478935},{"NoteNumber":63,"Velocity":36,"Duration":489005,"SoundDuration":489005,"Delta":190478935},{"NoteNumber":57,"Velocity":36,"Duration":489005,"SoundDuration":489005,"Delta":190478935},{"NoteNumber":65,"Velocity":40,"Duration":245017,"SoundDuration":245017,"Delta":190973088},{"NoteNumber":63,"Velocity":33,"Duration":245017,"SoundDuration":245017,"Delta":190973088},{"NoteNumber":53,"Velocity":33,"Duration":245017,"SoundDuration":245017,"Delta":190973088},{"NoteNumber":99,"Velocity":60,"Duration":776917,"SoundDuration":776917,"Delta":191220165},{"NoteNumber":87,"Velocity":50,"Duration":776917,"SoundDuration":776917,"Delta":191220165},{"NoteNumber":65,"Velocity":39,"Duration":507261,"SoundDuration":507261,"Delta":191220165},{"NoteNumber":63,"Velocity":33,"Duration":507261,"SoundDuration":507261,"Delta":191220165},{"NoteNumber":57,"Velocity":33,"Duration":507261,"SoundDuration":507261,"Delta":191220165},{"NoteNumber":65,"Velocity":34,"Duration":262114,"SoundDuration":262114,"Delta":191732766},{"NoteNumber":63,"Velocity":29,"Duration":262114,"SoundDuration":262114,"Delta":191732766},{"NoteNumber":53,"Velocity":29,"Duration":262114,"SoundDuration":262114,"Delta":191732766},{"NoteNumber":97,"Velocity":55,"Duration":510638,"SoundDuration":510638,"Delta":191997083},{"NoteNumber":85,"Velocity":47,"Duration":510638,"SoundDuration":510638,"Delta":191997083},{"NoteNumber":46,"Velocity":34,"Duration":510638,"SoundDuration":510638,"Delta":191997083},{"NoteNumber":85,"Velocity":47,"Duration":120000,"SoundDuration":120000,"Delta":192507721},{"NoteNumber":65,"Velocity":31,"Duration":238475,"SoundDuration":238475,"Delta":192507721},{"NoteNumber":61,"Velocity":26,"Duration":238475,"SoundDuration":238475,"Delta":192507721},{"NoteNumber":53,"Velocity":26,"Duration":238475,"SoundDuration":238475,"Delta":192507721},{"NoteNumber":89,"Velocity":45,"Duration":240965,"SoundDuration":240965,"Delta":192627721},{"NoteNumber":84,"Velocity":33,"Duration":120483,"SoundDuration":120483,"Delta":192627721},{"NoteNumber":83,"Velocity":33,"Duration":120481,"SoundDuration":120481,"Delta":192748204},{"NoteNumber":58,"Velocity":26,"Duration":479662,"SoundDuration":479662,"Delta":192748204},{"NoteNumber":61,"Velocity":26,"Duration":479662,"SoundDuration":479662,"Delta":192748204},{"NoteNumber":65,"Velocity":31,"Duration":479662,"SoundDuration":479662,"Delta":192748204},{"NoteNumber":89,"Velocity":45,"Duration":242102,"SoundDuration":242102,"Delta":192868686},{"NoteNumber":82,"Velocity":32,"Duration":120644,"SoundDuration":120644,"Delta":192868686},{"NoteNumber":81,"Velocity":32,"Duration":121457,"SoundDuration":121457,"Delta":192989331},{"NoteNumber":89,"Velocity":44,"Duration":245743,"SoundDuration":245743,"Delta":193110788},{"NoteNumber":80,"Velocity":32,"Duration":122201,"SoundDuration":122201,"Delta":193110788},{"NoteNumber":79,"Velocity":32,"Duration":123541,"SoundDuration":123541,"Delta":193232990},{"NoteNumber":53,"Velocity":25,"Duration":245605,"SoundDuration":245605,"Delta":193232990},{"NoteNumber":61,"Velocity":25,"Duration":245605,"SoundDuration":245605,"Delta":193232990},{"NoteNumber":65,"Velocity":30,"Duration":245605,"SoundDuration":245605,"Delta":193232990},{"NoteNumber":82,"Velocity":44,"Duration":248879,"SoundDuration":248879,"Delta":193356531},{"NoteNumber":78,"Velocity":32,"Duration":124138,"SoundDuration":124138,"Delta":193356531},{"NoteNumber":77,"Velocity":31,"Duration":124740,"SoundDuration":124740,"Delta":193480670},{"NoteNumber":58,"Velocity":25,"Duration":497426,"SoundDuration":497426,"Delta":193480670},{"NoteNumber":61,"Velocity":25,"Duration":497426,"SoundDuration":497426,"Delta":193480670},{"NoteNumber":65,"Velocity":30,"Duration":497426,"SoundDuration":497426,"Delta":193480670},{"NoteNumber":82,"Velocity":43,"Duration":251311,"SoundDuration":251311,"Delta":193605410},{"NoteNumber":76,"Velocity":31,"Duration":125348,"SoundDuration":125348,"Delta":193605410},{"NoteNumber":75,"Velocity":30,"Duration":125962,"SoundDuration":125962,"Delta":193730759},{"NoteNumber":82,"Velocity":42,"Duration":254060,"SoundDuration":254060,"Delta":193856722},{"NoteNumber":74,"Velocity":30,"Duration":126671,"SoundDuration":126671,"Delta":193856722},{"NoteNumber":73,"Velocity":30,"Duration":127389,"SoundDuration":127389,"Delta":193983393},{"NoteNumber":53,"Velocity":26,"Duration":254292,"SoundDuration":254292,"Delta":193983393},{"NoteNumber":61,"Velocity":26,"Duration":254292,"SoundDuration":254292,"Delta":193983393},{"NoteNumber":65,"Velocity":31,"Duration":254292,"SoundDuration":254292,"Delta":193983393},{"NoteNumber":82,"Velocity":41,"Duration":258834,"SoundDuration":258834,"Delta":194110783},{"NoteNumber":72,"Velocity":29,"Duration":129065,"SoundDuration":129065,"Delta":194110783},{"NoteNumber":72,"Velocity":37,"Duration":64884,"SoundDuration":64884,"Delta":194239848},{"NoteNumber":51,"Velocity":35,"Duration":2335955,"SoundDuration":2335955,"Delta":194239848},{"NoteNumber":70,"Velocity":32,"Duration":64884,"SoundDuration":64884,"Delta":194304733},{"NoteNumber":72,"Velocity":37,"Duration":64884,"SoundDuration":64884,"Delta":194369617},{"NoteNumber":70,"Velocity":32,"Duration":64884,"SoundDuration":64884,"Delta":194434502},{"NoteNumber":72,"Velocity":37,"Duration":64884,"SoundDuration":64884,"Delta":194499386},{"NoteNumber":70,"Velocity":32,"Duration":64884,"SoundDuration":64884,"Delta":194564271},{"NoteNumber":72,"Velocity":37,"Duration":64884,"SoundDuration":64884,"Delta":194629155},{"NoteNumber":70,"Velocity":31,"Duration":64884,"SoundDuration":64884,"Delta":194694040},{"NoteNumber":72,"Velocity":37,"Duration":61578,"SoundDuration":61578,"Delta":194758924},{"NoteNumber":58,"Velocity":25,"Duration":246571,"SoundDuration":246571,"Delta":194758924},{"NoteNumber":67,"Velocity":30,"Duration":246571,"SoundDuration":246571,"Delta":194758924},{"NoteNumber":70,"Velocity":32,"Duration":61010,"SoundDuration":61010,"Delta":194820503},{"NoteNumber":72,"Velocity":37,"Duration":63240,"SoundDuration":63240,"Delta":194881513},{"NoteNumber":70,"Velocity":32,"Duration":62817,"SoundDuration":62817,"Delta":194944753},{"NoteNumber":72,"Velocity":37,"Duration":61360,"SoundDuration":61360,"Delta":195007571},{"NoteNumber":63,"Velocity":35,"Duration":492874,"SoundDuration":492874,"Delta":195007571},{"NoteNumber":60,"Velocity":29,"Duration":492874,"SoundDuration":492874,"Delta":195007571},{"NoteNumber":70,"Velocity":33,"Duration":63332,"SoundDuration":63332,"Delta":195068931},{"NoteNumber":72,"Velocity":37,"Duration":62870,"SoundDuration":62870,"Delta":195132263},{"NoteNumber":70,"Velocity":33,"Duration":61644,"SoundDuration":61644,"Delta":195195134},{"NoteNumber":72,"Velocity":37,"Duration":62903,"SoundDuration":62903,"Delta":195256779},{"NoteNumber":70,"Velocity":31,"Duration":62921,"SoundDuration":62921,"Delta":195319683},{"NoteNumber":72,"Velocity":37,"Duration":61848,"SoundDuration":61848,"Delta":195382604},{"NoteNumber":70,"Velocity":31,"Duration":61075,"SoundDuration":61075,"Delta":195444452},{"NoteNumber":72,"Velocity":37,"Duration":63403,"SoundDuration":63403,"Delta":195505527},{"NoteNumber":67,"Velocity":31,"Duration":248058,"SoundDuration":248058,"Delta":195505527},{"NoteNumber":58,"Velocity":26,"Duration":248058,"SoundDuration":248058,"Delta":195505527},{"NoteNumber":70,"Velocity":32,"Duration":63977,"SoundDuration":63977,"Delta":195568931},{"NoteNumber":72,"Velocity":37,"Duration":61815,"SoundDuration":61815,"Delta":195632909},{"NoteNumber":70,"Velocity":32,"Duration":60893,"SoundDuration":60893,"Delta":195694725},{"NoteNumber":72,"Velocity":37,"Duration":62932,"SoundDuration":62932,"Delta":195755618},{"NoteNumber":75,"Velocity":50,"Duration":820185,"SoundDuration":820185,"Delta":195755618},{"NoteNumber":67,"Velocity":35,"Duration":504153,"SoundDuration":504153,"Delta":195755618},{"NoteNumber":63,"Velocity":29,"Duration":504153,"SoundDuration":504153,"Delta":195755618},{"NoteNumber":70,"Velocity":31,"Duration":63559,"SoundDuration":63559,"Delta":195818551},{"NoteNumber":72,"Velocity":36,"Duration":61727,"SoundDuration":61727,"Delta":195882110},{"NoteNumber":70,"Velocity":27,"Duration":61802,"SoundDuration":61802,"Delta":195943838},{"NoteNumber":72,"Velocity":34,"Duration":64884,"SoundDuration":64884,"Delta":196005640},{"NoteNumber":70,"Velocity":28,"Duration":64884,"SoundDuration":64884,"Delta":196070525},{"NoteNumber":72,"Velocity":32,"Duration":64884,"SoundDuration":64884,"Delta":196135409},{"NoteNumber":70,"Velocity":27,"Duration":64884,"SoundDuration":64884,"Delta":196200294},{"NoteNumber":72,"Velocity":31,"Duration":66983,"SoundDuration":66983,"Delta":196265178},{"NoteNumber":67,"Velocity":31,"Duration":307505,"SoundDuration":307505,"Delta":196265178},{"NoteNumber":58,"Velocity":26,"Duration":307505,"SoundDuration":307505,"Delta":196265178},{"NoteNumber":70,"Velocity":26,"Duration":73121,"SoundDuration":73121,"Delta":196332162},{"NoteNumber":72,"Velocity":29,"Duration":80632,"SoundDuration":80632,"Delta":196405284},{"NoteNumber":70,"Velocity":23,"Duration":89887,"SoundDuration":89887,"Delta":196485916},{"NoteNumber":74,"Velocity":51,"Duration":767507,"SoundDuration":767507,"Delta":196575804},{"NoteNumber":71,"Velocity":29,"Duration":64884,"SoundDuration":64884,"Delta":196575804},{"NoteNumber":53,"Velocity":35,"Duration":2277806,"SoundDuration":2277806,"Delta":196575804},{"NoteNumber":70,"Velocity":26,"Duration":64884,"SoundDuration":64884,"Delta":196640688},{"NoteNumber":71,"Velocity":30,"Duration":64884,"SoundDuration":64884,"Delta":196705573},{"NoteNumber":70,"Velocity":27,"Duration":64884,"SoundDuration":64884,"Delta":196770457},{"NoteNumber":71,"Velocity":31,"Duration":64884,"SoundDuration":64884,"Delta":196835342},{"NoteNumber":70,"Velocity":27,"Duration":64884,"SoundDuration":64884,"Delta":196900226},{"NoteNumber":71,"Velocity":32,"Duration":64884,"SoundDuration":64884,"Delta":196965111},{"NoteNumber":70,"Velocity":27,"Duration":64884,"SoundDuration":64884,"Delta":197029995},{"NoteNumber":71,"Velocity":33,"Duration":62413,"SoundDuration":62413,"Delta":197094880},{"NoteNumber":68,"Velocity":30,"Duration":246330,"SoundDuration":246330,"Delta":197094880},{"NoteNumber":58,"Velocity":25,"Duration":246330,"SoundDuration":246330,"Delta":197094880},{"NoteNumber":70,"Velocity":28,"Duration":61932,"SoundDuration":61932,"Delta":197157293},{"NoteNumber":71,"Velocity":34,"Duration":61425,"SoundDuration":61425,"Delta":197219226},{"NoteNumber":70,"Velocity":29,"Duration":62659,"SoundDuration":62659,"Delta":197280651},{"NoteNumber":77,"Velocity":56,"Duration":746779,"SoundDuration":746779,"Delta":197343311},{"NoteNumber":71,"Velocity":35,"Duration":62416,"SoundDuration":62416,"Delta":197343311},{"NoteNumber":68,"Velocity":35,"Duration":491247,"SoundDuration":491247,"Delta":197343311},{"NoteNumber":62,"Velocity":29,"Duration":491247,"SoundDuration":491247,"Delta":197343311},{"NoteNumber":70,"Velocity":31,"Duration":61160,"SoundDuration":61160,"Delta":197405727},{"NoteNumber":71,"Velocity":36,"Duration":61697,"SoundDuration":61697,"Delta":197466887},{"NoteNumber":70,"Velocity":32,"Duration":63222,"SoundDuration":63222,"Delta":197528585},{"NoteNumber":71,"Velocity":36,"Duration":62907,"SoundDuration":62907,"Delta":197591807},{"NoteNumber":70,"Velocity":31,"Duration":61177,"SoundDuration":61177,"Delta":197654714},{"NoteNumber":71,"Velocity":37,"Duration":61179,"SoundDuration":61179,"Delta":197715892},{"NoteNumber":70,"Velocity":31,"Duration":62783,"SoundDuration":62783,"Delta":197777071},{"NoteNumber":71,"Velocity":37,"Duration":63469,"SoundDuration":63469,"Delta":197839855},{"NoteNumber":68,"Velocity":31,"Duration":248152,"SoundDuration":248152,"Delta":197839855},{"NoteNumber":58,"Velocity":26,"Duration":248152,"SoundDuration":248152,"Delta":197839855},{"NoteNumber":70,"Velocity":32,"Duration":62143,"SoundDuration":62143,"Delta":197903325},{"NoteNumber":71,"Velocity":37,"Duration":62122,"SoundDuration":62122,"Delta":197965468},{"NoteNumber":70,"Velocity":32,"Duration":62500,"SoundDuration":62500,"Delta":198027591},{"NoteNumber":71,"Velocity":37,"Duration":64344,"SoundDuration":64344,"Delta":198090091},{"NoteNumber":80,"Velocity":59,"Duration":763518,"SoundDuration":763518,"Delta":198090091},{"NoteNumber":62,"Velocity":29,"Duration":503567,"SoundDuration":503567,"Delta":198090091},{"NoteNumber":68,"Velocity":35,"Duration":503567,"SoundDuration":503567,"Delta":198090091},{"NoteNumber":70,"Velocity":32,"Duration":63115,"SoundDuration":63115,"Delta":198154435},{"NoteNumber":71,"Velocity":37,"Duration":62589,"SoundDuration":62589,"Delta":198217551},{"NoteNumber":70,"Velocity":33,"Duration":64236,"SoundDuration":64236,"Delta":198280141},{"NoteNumber":71,"Velocity":37,"Duration":64825,"SoundDuration":64825,"Delta":198344377},{"NoteNumber":70,"Velocity":32,"Duration":63345,"SoundDuration":63345,"Delta":198409202},{"NoteNumber":71,"Velocity":37,"Duration":62747,"SoundDuration":62747,"Delta":198472548},{"NoteNumber":70,"Velocity":32,"Duration":63704,"SoundDuration":63704,"Delta":198535296},{"NoteNumber":71,"Velocity":37,"Duration":64377,"SoundDuration":64377,"Delta":198599000},{"NoteNumber":58,"Velocity":26,"Duration":252481,"SoundDuration":252481,"Delta":198599000},{"NoteNumber":68,"Velocity":31,"Duration":252481,"SoundDuration":252481,"Delta":198599000},{"NoteNumber":70,"Velocity":32,"Duration":64104,"SoundDuration":64104,"Delta":198663378},{"NoteNumber":71,"Velocity":37,"Duration":62886,"SoundDuration":62886,"Delta":198727482},{"NoteNumber":70,"Velocity":31,"Duration":63241,"SoundDuration":63241,"Delta":198790368},{"NoteNumber":80,"Velocity":61,"Duration":1510397,"SoundDuration":1510397,"Delta":198853610},{"NoteNumber":71,"Velocity":37,"Duration":64434,"SoundDuration":64434,"Delta":198853610},{"NoteNumber":50,"Velocity":35,"Duration":757604,"SoundDuration":757604,"Delta":198853610},{"NoteNumber":70,"Velocity":31,"Duration":65179,"SoundDuration":65179,"Delta":198918044},{"NoteNumber":71,"Velocity":36,"Duration":63670,"SoundDuration":63670,"Delta":198983224},{"NoteNumber":70,"Velocity":31,"Duration":63559,"SoundDuration":63559,"Delta":199046894},{"NoteNumber":71,"Velocity":36,"Duration":62436,"SoundDuration":62436,"Delta":199110453},{"NoteNumber":70,"Velocity":30,"Duration":62106,"SoundDuration":62106,"Delta":199172890},{"NoteNumber":71,"Velocity":36,"Duration":63706,"SoundDuration":63706,"Delta":199234997},{"NoteNumber":70,"Velocity":29,"Duration":62710,"SoundDuration":62710,"Delta":199298703},{"NoteNumber":71,"Velocity":35,"Duration":61477,"SoundDuration":61477,"Delta":199361413},{"NoteNumber":58,"Velocity":26,"Duration":249800,"SoundDuration":249800,"Delta":199361413},{"NoteNumber":62,"Velocity":31,"Duration":249800,"SoundDuration":249800,"Delta":199361413},{"NoteNumber":70,"Velocity":29,"Duration":61917,"SoundDuration":61917,"Delta":199422890},{"NoteNumber":71,"Velocity":35,"Duration":63096,"SoundDuration":63096,"Delta":199484808},{"NoteNumber":70,"Velocity":29,"Duration":63309,"SoundDuration":63309,"Delta":199547905},{"NoteNumber":71,"Velocity":34,"Duration":61765,"SoundDuration":61765,"Delta":199611214},{"NoteNumber":53,"Velocity":35,"Duration":752793,"SoundDuration":752793,"Delta":199611214},{"NoteNumber":70,"Velocity":29,"Duration":62194,"SoundDuration":62194,"Delta":199672980},{"NoteNumber":71,"Velocity":33,"Duration":63866,"SoundDuration":63866,"Delta":199735174},{"NoteNumber":70,"Velocity":29,"Duration":62537,"SoundDuration":62537,"Delta":199799041},{"NoteNumber":71,"Velocity":33,"Duration":63419,"SoundDuration":63419,"Delta":199861578},{"NoteNumber":70,"Velocity":27,"Duration":63777,"SoundDuration":63777,"Delta":199924998},{"NoteNumber":71,"Velocity":32,"Duration":60649,"SoundDuration":60649,"Delta":199988775},{"NoteNumber":70,"Velocity":27,"Duration":61398,"SoundDuration":61398,"Delta":200049424},{"NoteNumber":71,"Velocity":32,"Duration":63119,"SoundDuration":63119,"Delta":200110823},{"NoteNumber":58,"Velocity":26,"Duration":253184,"SoundDuration":253184,"Delta":200110823},{"NoteNumber":62,"Velocity":31,"Duration":253184,"SoundDuration":253184,"Delta":200110823},{"NoteNumber":70,"Velocity":27,"Duration":63889,"SoundDuration":63889,"Delta":200173943},{"NoteNumber":71,"Velocity":31,"Duration":62884,"SoundDuration":62884,"Delta":200237832},{"NoteNumber":70,"Velocity":27,"Duration":63291,"SoundDuration":63291,"Delta":200300717},{"NoteNumber":74,"Velocity":50,"Duration":833087,"SoundDuration":833087,"Delta":200364008},{"NoteNumber":71,"Velocity":30,"Duration":64075,"SoundDuration":64075,"Delta":200364008},{"NoteNumber":56,"Velocity":35,"Duration":833087,"SoundDuration":833087,"Delta":200364008},{"NoteNumber":70,"Velocity":26,"Duration":64075,"SoundDuration":64075,"Delta":200428083},{"NoteNumber":71,"Velocity":30,"Duration":64075,"SoundDuration":64075,"Delta":200492158},{"NoteNumber":70,"Velocity":26,"Duration":64075,"SoundDuration":64075,"Delta":200556233},{"NoteNumber":71,"Velocity":22,"Duration":64884,"SoundDuration":64884,"Delta":200620308},{"NoteNumber":70,"Velocity":24,"Duration":64884,"SoundDuration":64884,"Delta":200685193},{"NoteNumber":71,"Velocity":27,"Duration":64884,"SoundDuration":64884,"Delta":200750077},{"NoteNumber":70,"Velocity":24,"Duration":64884,"SoundDuration":64884,"Delta":200814962},{"NoteNumber":71,"Velocity":27,"Duration":68470,"SoundDuration":68470,"Delta":200879846},{"NoteNumber":62,"Velocity":26,"Duration":317248,"SoundDuration":317248,"Delta":200879846},{"NoteNumber":65,"Velocity":31,"Duration":317248,"SoundDuration":317248,"Delta":200879846},{"NoteNumber":58,"Velocity":26,"Duration":317248,"SoundDuration":317248,"Delta":200879846},{"NoteNumber":70,"Velocity":24,"Duration":74773,"SoundDuration":74773,"Delta":200948317},{"NoteNumber":71,"Velocity":27,"Duration":82357,"SoundDuration":82357,"Delta":201023090},{"NoteNumber":70,"Velocity":23,"Duration":91647,"SoundDuration":91647,"Delta":201105447},{"NoteNumber":75,"Velocity":51,"Duration":766083,"SoundDuration":766083,"Delta":201197095},{"NoteNumber":72,"Velocity":29,"Duration":64884,"SoundDuration":64884,"Delta":201197095},{"NoteNumber":55,"Velocity":35,"Duration":2278467,"SoundDuration":2278467,"Delta":201197095},{"NoteNumber":70,"Velocity":26,"Duration":64884,"SoundDuration":64884,"Delta":201261979},{"NoteNumber":72,"Velocity":30,"Duration":64884,"SoundDuration":64884,"Delta":201326864},{"NoteNumber":70,"Velocity":26,"Duration":64884,"SoundDuration":64884,"Delta":201391748},{"NoteNumber":72,"Velocity":30,"Duration":64884,"SoundDuration":64884,"Delta":201456633},{"NoteNumber":70,"Velocity":27,"Duration":64884,"SoundDuration":64884,"Delta":201521517},{"NoteNumber":72,"Velocity":31,"Duration":64884,"SoundDuration":64884,"Delta":201586402},{"NoteNumber":70,"Velocity":26,"Duration":64179,"SoundDuration":64179,"Delta":201651286},{"NoteNumber":72,"Velocity":32,"Duration":61916,"SoundDuration":61916,"Delta":201715466},{"NoteNumber":67,"Velocity":30,"Duration":245654,"SoundDuration":245654,"Delta":201715466},{"NoteNumber":58,"Velocity":25,"Duration":245654,"SoundDuration":245654,"Delta":201715466},{"NoteNumber":70,"Velocity":27,"Duration":61009,"SoundDuration":61009,"Delta":201777382},{"NoteNumber":72,"Velocity":32,"Duration":62525,"SoundDuration":62525,"Delta":201838392},{"NoteNumber":70,"Velocity":28,"Duration":62261,"SoundDuration":62261,"Delta":201900917},{"NoteNumber":79,"Velocity":56,"Duration":747684,"SoundDuration":747684,"Delta":201963178},{"NoteNumber":72,"Velocity":33,"Duration":61259,"SoundDuration":61259,"Delta":201963178},{"NoteNumber":67,"Velocity":35,"Duration":493153,"SoundDuration":493153,"Delta":201963178},{"NoteNumber":63,"Velocity":29,"Duration":493153,"SoundDuration":493153,"Delta":201963178},{"NoteNumber":70,"Velocity":29,"Duration":62781,"SoundDuration":62781,"Delta":202024438},{"NoteNumber":72,"Velocity":34,"Duration":63703,"SoundDuration":63703,"Delta":202087219},{"NoteNumber":70,"Velocity":30,"Duration":62607,"SoundDuration":62607,"Delta":202150923},{"NoteNumber":72,"Velocity":35,"Duration":61093,"SoundDuration":61093,"Delta":202213530},{"NoteNumber":70,"Velocity":28,"Duration":61917,"SoundDuration":61917,"Delta":202274624},{"NoteNumber":72,"Velocity":35,"Duration":63202,"SoundDuration":63202,"Delta":202336542},{"NoteNumber":70,"Velocity":29,"Duration":61668,"SoundDuration":61668,"Delta":202399744},{"NoteNumber":72,"Velocity":36,"Duration":61583,"SoundDuration":61583,"Delta":202461413},{"NoteNumber":67,"Velocity":31,"Duration":247384,"SoundDuration":247384,"Delta":202461413},{"NoteNumber":58,"Velocity":26,"Duration":247384,"SoundDuration":247384,"Delta":202461413},{"NoteNumber":70,"Velocity":30,"Duration":63292,"SoundDuration":63292,"Delta":202522996},{"NoteNumber":72,"Velocity":36,"Duration":62591,"SoundDuration":62591,"Delta":202586289},{"NoteNumber":70,"Velocity":31,"Duration":61983,"SoundDuration":61983,"Delta":202648880},{"NoteNumber":72,"Velocity":36,"Duration":63793,"SoundDuration":63793,"Delta":202710863},{"NoteNumber":82,"Velocity":59,"Duration":764699,"SoundDuration":764699,"Delta":202710863},{"NoteNumber":63,"Velocity":29,"Duration":504536,"SoundDuration":504536,"Delta":202710863},{"NoteNumber":67,"Velocity":35,"Duration":504536,"SoundDuration":504536,"Delta":202710863},{"NoteNumber":70,"Velocity":32,"Duration":63309,"SoundDuration":63309,"Delta":202774657},{"NoteNumber":72,"Velocity":37,"Duration":62973,"SoundDuration":62973,"Delta":202837967},{"NoteNumber":70,"Velocity":32,"Duration":64287,"SoundDuration":64287,"Delta":202900940},{"NoteNumber":72,"Velocity":37,"Duration":63525,"SoundDuration":63525,"Delta":202965228},{"NoteNumber":70,"Velocity":32,"Duration":63044,"SoundDuration":63044,"Delta":203028754},{"NoteNumber":72,"Velocity":37,"Duration":64397,"SoundDuration":64397,"Delta":203091798},{"NoteNumber":70,"Velocity":32,"Duration":64545,"SoundDuration":64545,"Delta":203156196},{"NoteNumber":72,"Velocity":37,"Duration":62836,"SoundDuration":62836,"Delta":203220742},{"NoteNumber":58,"Velocity":26,"Duration":252675,"SoundDuration":252675,"Delta":203220742},{"NoteNumber":67,"Velocity":31,"Duration":252675,"SoundDuration":252675,"Delta":203220742},{"NoteNumber":70,"Velocity":32,"Duration":63154,"SoundDuration":63154,"Delta":203283578},{"NoteNumber":72,"Velocity":37,"Duration":64434,"SoundDuration":64434,"Delta":203346732},{"NoteNumber":70,"Velocity":31,"Duration":64396,"SoundDuration":64396,"Delta":203411167},{"NoteNumber":70,"Velocity":55,"Duration":663716,"SoundDuration":663716,"Delta":203475563},{"NoteNumber":82,"Velocity":61,"Duration":663716,"SoundDuration":663716,"Delta":203475563},{"NoteNumber":51,"Velocity":35,"Duration":796459,"SoundDuration":796459,"Delta":203475563},{"NoteNumber":63,"Velocity":27,"Duration":265486,"SoundDuration":265486,"Delta":204006536},{"NoteNumber":67,"Velocity":32,"Duration":265486,"SoundDuration":265486,"Delta":204006536},{"NoteNumber":69,"Velocity":43,"Duration":66371,"SoundDuration":66371,"Delta":204139279},{"NoteNumber":70,"Velocity":46,"Duration":66371,"SoundDuration":66371,"Delta":204205651},{"NoteNumber":71,"Velocity":48,"Duration":81818,"SoundDuration":81818,"Delta":204272022},{"NoteNumber":55,"Velocity":37,"Duration":809635,"SoundDuration":809635,"Delta":204272022},{"NoteNumber":72,"Velocity":49,"Duration":77169,"SoundDuration":77169,"Delta":204353840},{"NoteNumber":73,"Velocity":50,"Duration":76923,"SoundDuration":76923,"Delta":204431010},{"NoteNumber":74,"Velocity":50,"Duration":76637,"SoundDuration":76637,"Delta":204507933},{"NoteNumber":75,"Velocity":51,"Duration":76455,"SoundDuration":76455,"Delta":204584571},{"NoteNumber":76,"Velocity":52,"Duration":76233,"SoundDuration":76233,"Delta":204661027},{"NoteNumber":77,"Velocity":53,"Duration":75932,"SoundDuration":75932,"Delta":204737260},{"NoteNumber":78,"Velocity":53,"Duration":66865,"SoundDuration":66865,"Delta":204813193},{"NoteNumber":63,"Velocity":28,"Duration":268464,"SoundDuration":268464,"Delta":204813193},{"NoteNumber":67,"Velocity":34,"Duration":268464,"SoundDuration":268464,"Delta":204813193},{"NoteNumber":79,"Velocity":54,"Duration":66765,"SoundDuration":66765,"Delta":204880058},{"NoteNumber":80,"Velocity":55,"Duration":67164,"SoundDuration":67164,"Delta":204946824},{"NoteNumber":81,"Velocity":55,"Duration":67669,"SoundDuration":67669,"Delta":205013988},{"NoteNumber":82,"Velocity":56,"Duration":109071,"SoundDuration":109071,"Delta":205081658},{"NoteNumber":57,"Velocity":39,"Duration":1026949,"SoundDuration":1026949,"Delta":205081658},{"NoteNumber":83,"Velocity":57,"Duration":110135,"SoundDuration":110135,"Delta":205190729},{"NoteNumber":84,"Velocity":58,"Duration":111306,"SoundDuration":111306,"Delta":205300864},{"NoteNumber":85,"Velocity":59,"Duration":115033,"SoundDuration":115033,"Delta":205412170},{"NoteNumber":86,"Velocity":60,"Duration":119865,"SoundDuration":119865,"Delta":205527203},{"NoteNumber":87,"Velocity":61,"Duration":92307,"SoundDuration":92307,"Delta":205647069},{"NoteNumber":63,"Velocity":30,"Duration":461538,"SoundDuration":461538,"Delta":205647069},{"NoteNumber":66,"Velocity":30,"Duration":461538,"SoundDuration":461538,"Delta":205647069},{"NoteNumber":87,"Velocity":61,"Duration":92307,"SoundDuration":92307,"Delta":205739377},{"NoteNumber":87,"Velocity":62,"Duration":92307,"SoundDuration":92307,"Delta":205831684},{"NoteNumber":87,"Velocity":62,"Duration":92307,"SoundDuration":92307,"Delta":205923992},{"NoteNumber":87,"Velocity":62,"Duration":89202,"SoundDuration":89202,"Delta":206023992},{"NoteNumber":87,"Velocity":62,"Duration":68807,"SoundDuration":68807,"Delta":206108607},{"NoteNumber":58,"Velocity":31,"Duration":2277679,"SoundDuration":2277679,"Delta":206108607},{"NoteNumber":70,"Velocity":37,"Duration":2277679,"SoundDuration":2277679,"Delta":206108607},{"NoteNumber":91,"Velocity":57,"Duration":68807,"SoundDuration":68807,"Delta":206246222},{"NoteNumber":89,"Velocity":57,"Duration":68807,"SoundDuration":68807,"Delta":206383837},{"NoteNumber":87,"Velocity":57,"Duration":68807,"SoundDuration":68807,"Delta":206521452},{"NoteNumber":86,"Velocity":56,"Duration":68807,"SoundDuration":68807,"Delta":206659066},{"NoteNumber":63,"Velocity":29,"Duration":290464,"SoundDuration":290464,"Delta":206659066},{"NoteNumber":67,"Velocity":35,"Duration":290464,"SoundDuration":290464,"Delta":206659066},{"NoteNumber":84,"Velocity":57,"Duration":77720,"SoundDuration":77720,"Delta":206796681},{"NoteNumber":82,"Velocity":62,"Duration":137614,"SoundDuration":137614,"Delta":206952122},{"NoteNumber":63,"Velocity":29,"Duration":544725,"SoundDuration":544725,"Delta":206952122},{"NoteNumber":67,"Velocity":35,"Duration":544725,"SoundDuration":544725,"Delta":206952122},{"NoteNumber":81,"Velocity":54,"Duration":137614,"SoundDuration":137614,"Delta":207089736},{"NoteNumber":84,"Velocity":57,"Duration":137614,"SoundDuration":137614,"Delta":207227351},{"NoteNumber":82,"Velocity":56,"Duration":137614,"SoundDuration":137614,"Delta":207364966},{"NoteNumber":80,"Velocity":55,"Duration":137614,"SoundDuration":137614,"Delta":207502581},{"NoteNumber":63,"Velocity":29,"Duration":288124,"SoundDuration":288124,"Delta":207502581},{"NoteNumber":67,"Velocity":35,"Duration":288124,"SoundDuration":288124,"Delta":207502581},{"NoteNumber":79,"Velocity":54,"Duration":153061,"SoundDuration":153061,"Delta":207640195},{"NoteNumber":76,"Velocity":50,"Duration":72115,"SoundDuration":72115,"Delta":207793257},{"NoteNumber":63,"Velocity":33,"Duration":593029,"SoundDuration":593029,"Delta":207793257},{"NoteNumber":68,"Velocity":39,"Duration":593029,"SoundDuration":593029,"Delta":207793257},{"NoteNumber":77,"Velocity":50,"Duration":72115,"SoundDuration":72115,"Delta":207865372},{"NoteNumber":76,"Velocity":50,"Duration":72115,"SoundDuration":72115,"Delta":207937487},{"NoteNumber":77,"Velocity":50,"Duration":72115,"SoundDuration":72115,"Delta":208009603},{"NoteNumber":76,"Velocity":50,"Duration":76142,"SoundDuration":76142,"Delta":208081718},{"NoteNumber":77,"Velocity":50,"Duration":76142,"SoundDuration":76142,"Delta":208157860},{"NoteNumber":76,"Velocity":50,"Duration":76142,"SoundDuration":76142,"Delta":208234002},{"NoteNumber":77,"Velocity":52,"Duration":76142,"SoundDuration":76142,"Delta":208310144},{"NoteNumber":80,"Velocity":56,"Duration":250000,"SoundDuration":250000,"Delta":208386287},{"NoteNumber":62,"Velocity":29,"Duration":357913,"SoundDuration":357913,"Delta":208386287},{"NoteNumber":68,"Velocity":35,"Duration":357913,"SoundDuration":357913,"Delta":208386287},{"NoteNumber":79,"Velocity":52,"Duration":107913,"SoundDuration":107913,"Delta":208636287},{"NoteNumber":70,"Velocity":53,"Duration":1993293,"SoundDuration":1993293,"Delta":208744200},{"NoteNumber":63,"Velocity":32,"Duration":674715,"SoundDuration":674715,"Delta":208744200},{"NoteNumber":65,"Velocity":32,"Duration":674715,"SoundDuration":674715,"Delta":208744200},{"NoteNumber":68,"Velocity":38,"Duration":674715,"SoundDuration":674715,"Delta":208744200},{"NoteNumber":72,"Velocity":49,"Duration":163934,"SoundDuration":163934,"Delta":209426018},{"NoteNumber":63,"Velocity":29,"Duration":325136,"SoundDuration":325136,"Delta":209426018},{"NoteNumber":65,"Velocity":29,"Duration":325136,"SoundDuration":325136,"Delta":209426018},{"NoteNumber":68,"Velocity":35,"Duration":325136,"SoundDuration":325136,"Delta":209426018},{"NoteNumber":74,"Velocity":50,"Duration":163934,"SoundDuration":163934,"Delta":209589953},{"NoteNumber":75,"Velocity":53,"Duration":327869,"SoundDuration":327869,"Delta":209753887},{"NoteNumber":63,"Velocity":30,"Duration":648907,"SoundDuration":648907,"Delta":209753887},{"NoteNumber":67,"Velocity":36,"Duration":648907,"SoundDuration":648907,"Delta":209753887},{"NoteNumber":63,"Velocity":36,"Duration":163934,"SoundDuration":163934,"Delta":210409625},{"NoteNumber":67,"Velocity":36,"Duration":163934,"SoundDuration":163934,"Delta":210409625},{"NoteNumber":51,"Velocity":39,"Duration":81967,"SoundDuration":81967,"Delta":210573560},{"NoteNumber":69,"Velocity":44,"Duration":81967,"SoundDuration":81967,"Delta":210655527},{"NoteNumber":54,"Velocity":44,"Duration":81967,"SoundDuration":81967,"Delta":210655527},{"NoteNumber":73,"Velocity":55,"Duration":645161,"SoundDuration":645161,"Delta":210737494},{"NoteNumber":69,"Velocity":53,"Duration":1951483,"SoundDuration":1951483,"Delta":210737494},{"NoteNumber":66,"Velocity":50,"Duration":638440,"SoundDuration":638440,"Delta":210737494},{"NoteNumber":72,"Velocity":53,"Duration":1306322,"SoundDuration":1306322,"Delta":211382655},{"NoteNumber":63,"Velocity":36,"Duration":164835,"SoundDuration":164835,"Delta":211382655},{"NoteNumber":66,"Velocity":36,"Duration":164835,"SoundDuration":164835,"Delta":211382655},{"NoteNumber":49,"Velocity":35,"Duration":82417,"SoundDuration":82417,"Delta":211547491},{"NoteNumber":53,"Velocity":37,"Duration":82417,"SoundDuration":82417,"Delta":211629908},{"NoteNumber":77,"Velocity":56,"Duration":1953304,"SoundDuration":1953304,"Delta":211712326},{"NoteNumber":65,"Velocity":45,"Duration":638440,"SoundDuration":638440,"Delta":211712326},{"NoteNumber":61,"Velocity":36,"Duration":328729,"SoundDuration":328729,"Delta":212357487},{"NoteNumber":65,"Velocity":36,"Duration":328729,"SoundDuration":328729,"Delta":212357487},{"NoteNumber":70,"Velocity":53,"Duration":976652,"SoundDuration":976652,"Delta":212688978},{"NoteNumber":61,"Velocity":39,"Duration":638440,"SoundDuration":638440,"Delta":212688978},{"NoteNumber":65,"Velocity":39,"Duration":638440,"SoundDuration":638440,"Delta":212688978},{"NoteNumber":61,"Velocity":36,"Duration":328729,"SoundDuration":328729,"Delta":213334139},{"NoteNumber":65,"Velocity":36,"Duration":328729,"SoundDuration":328729,"Delta":213334139},{"NoteNumber":45,"Velocity":46,"Duration":82872,"SoundDuration":82872,"Delta":213665631},{"NoteNumber":60,"Velocity":39,"Duration":573803,"SoundDuration":573803,"Delta":213665631},{"NoteNumber":63,"Velocity":39,"Duration":571100,"SoundDuration":571100,"Delta":213665631},{"NoteNumber":65,"Velocity":39,"Duration":654593,"SoundDuration":654593,"Delta":213665631},{"NoteNumber":48,"Velocity":47,"Duration":82569,"SoundDuration":82569,"Delta":213748504},{"NoteNumber":51,"Velocity":47,"Duration":82267,"SoundDuration":82267,"Delta":213831073},{"NoteNumber":53,"Velocity":48,"Duration":81967,"SoundDuration":81967,"Delta":213913341},{"NoteNumber":54,"Velocity":49,"Duration":81670,"SoundDuration":81670,"Delta":213995308},{"NoteNumber":57,"Velocity":50,"Duration":81374,"SoundDuration":81374,"Delta":214076978},{"NoteNumber":60,"Velocity":50,"Duration":161871,"SoundDuration":161871,"Delta":214158353},{"NoteNumber":63,"Velocity":51,"Duration":76758,"SoundDuration":76758,"Delta":214239434},{"NoteNumber":65,"Velocity":52,"Duration":64115,"SoundDuration":64115,"Delta":214320225},{"NoteNumber":60,"Velocity":36,"Duration":321582,"SoundDuration":321582,"Delta":214320225},{"NoteNumber":63,"Velocity":36,"Duration":321582,"SoundDuration":321582,"Delta":214320225},{"NoteNumber":66,"Velocity":52,"Duration":63943,"SoundDuration":63943,"Delta":214384340},{"NoteNumber":69,"Velocity":53,"Duration":64199,"SoundDuration":64199,"Delta":214448284},{"NoteNumber":72,"Velocity":54,"Duration":64516,"SoundDuration":64516,"Delta":214512484},{"NoteNumber":78,"Velocity":54,"Duration":64806,"SoundDuration":64806,"Delta":214577000},{"NoteNumber":77,"Velocity":57,"Duration":652174,"SoundDuration":652174,"Delta":214641807},{"NoteNumber":61,"Velocity":39,"Duration":645380,"SoundDuration":645380,"Delta":214641807},{"NoteNumber":65,"Velocity":39,"Duration":645380,"SoundDuration":645380,"Delta":214641807},{"NoteNumber":76,"Velocity":52,"Duration":57142,"SoundDuration":57142,"Delta":215293981},{"NoteNumber":61,"Velocity":36,"Duration":339999,"SoundDuration":339999,"Delta":215293981},{"NoteNumber":65,"Velocity":36,"Duration":339999,"SoundDuration":339999,"Delta":215293981},{"NoteNumber":77,"Velocity":47,"Duration":57142,"SoundDuration":57142,"Delta":215351123},{"NoteNumber":76,"Velocity":51,"Duration":57142,"SoundDuration":57142,"Delta":215408266},{"NoteNumber":77,"Velocity":47,"Duration":57142,"SoundDuration":57142,"Delta":215465409},{"NoteNumber":76,"Velocity":51,"Duration":57142,"SoundDuration":57142,"Delta":215522552},{"NoteNumber":77,"Velocity":46,"Duration":57142,"SoundDuration":57142,"Delta":215579695},{"NoteNumber":82,"Velocity":53,"Duration":662982,"SoundDuration":662982,"Delta":215636838},{"NoteNumber":61,"Velocity":36,"Duration":656076,"SoundDuration":656076,"Delta":215636838},{"NoteNumber":65,"Velocity":36,"Duration":656076,"SoundDuration":656076,"Delta":215636838},{"NoteNumber":82,"Velocity":53,"Duration":165745,"SoundDuration":165745,"Delta":216299821},{"NoteNumber":61,"Velocity":39,"Duration":343456,"SoundDuration":343456,"Delta":216299821},{"NoteNumber":65,"Velocity":39,"Duration":343456,"SoundDuration":343456,"Delta":216299821},{"NoteNumber":83,"Velocity":56,"Duration":180723,"SoundDuration":180723,"Delta":216465566},{"NoteNumber":84,"Velocity":55,"Duration":85227,"SoundDuration":85227,"Delta":216646289},{"NoteNumber":61,"Velocity":40,"Duration":666674,"SoundDuration":666674,"Delta":216646289},{"NoteNumber":65,"Velocity":40,"Duration":666674,"SoundDuration":666674,"Delta":216646289},{"NoteNumber":67,"Velocity":40,"Duration":666674,"SoundDuration":666674,"Delta":216646289},{"NoteNumber":83,"Velocity":55,"Duration":85066,"SoundDuration":85066,"Delta":216731517},{"NoteNumber":84,"Velocity":56,"Duration":84745,"SoundDuration":84745,"Delta":216816583},{"NoteNumber":83,"Velocity":57,"Duration":84269,"SoundDuration":84269,"Delta":216901329},{"NoteNumber":84,"Velocity":58,"Duration":84112,"SoundDuration":84112,"Delta":216985599},{"NoteNumber":83,"Velocity":59,"Duration":83798,"SoundDuration":83798,"Delta":217069711},{"NoteNumber":84,"Velocity":60,"Duration":83333,"SoundDuration":83333,"Delta":217153510},{"NoteNumber":83,"Velocity":60,"Duration":83026,"SoundDuration":83026,"Delta":217236844},{"NoteNumber":84,"Velocity":62,"Duration":100441,"SoundDuration":100441,"Delta":217319870},{"NoteNumber":61,"Velocity":45,"Duration":383543,"SoundDuration":383543,"Delta":217319870},{"NoteNumber":65,"Velocity":45,"Duration":383543,"SoundDuration":383543,"Delta":217319870},{"NoteNumber":67,"Velocity":45,"Duration":383543,"SoundDuration":383543,"Delta":217319870},{"NoteNumber":83,"Velocity":63,"Duration":107151,"SoundDuration":107151,"Delta":217420311},{"NoteNumber":82,"Velocity":64,"Duration":82454,"SoundDuration":82454,"Delta":217527463},{"NoteNumber":83,"Velocity":66,"Duration":97560,"SoundDuration":97560,"Delta":217609918},{"NoteNumber":84,"Velocity":70,"Duration":1130897,"SoundDuration":1130897,"Delta":217707479},{"NoteNumber":60,"Velocity":49,"Duration":645380,"SoundDuration":645380,"Delta":217707479},{"NoteNumber":64,"Velocity":49,"Duration":645380,"SoundDuration":645380,"Delta":217707479},{"NoteNumber":67,"Velocity":49,"Duration":645380,"SoundDuration":645380,"Delta":217707479},{"NoteNumber":60,"Velocity":39,"Duration":316489,"SoundDuration":316489,"Delta":218359653},{"NoteNumber":64,"Velocity":39,"Duration":316489,"SoundDuration":316489,"Delta":218359653},{"NoteNumber":67,"Velocity":39,"Duration":316489,"SoundDuration":316489,"Delta":218359653},{"NoteNumber":60,"Velocity":42,"Duration":620863,"SoundDuration":620863,"Delta":218678802},{"NoteNumber":64,"Velocity":42,"Duration":620863,"SoundDuration":620863,"Delta":218678802},{"NoteNumber":67,"Velocity":42,"Duration":620863,"SoundDuration":620863,"Delta":218678802},{"NoteNumber":79,"Velocity":64,"Duration":159574,"SoundDuration":159574,"Delta":218838376},{"NoteNumber":76,"Velocity":62,"Duration":154507,"SoundDuration":154507,"Delta":218997951},{"NoteNumber":72,"Velocity":61,"Duration":153584,"SoundDuration":153584,"Delta":219152458},{"NoteNumber":67,"Velocity":60,"Duration":152543,"SoundDuration":152543,"Delta":219306043},{"NoteNumber":60,"Velocity":37,"Duration":301661,"SoundDuration":301661,"Delta":219306043},{"NoteNumber":64,"Velocity":37,"Duration":150005,"SoundDuration":150005,"Delta":219306043},{"NoteNumber":64,"Velocity":59,"Duration":151643,"SoundDuration":151643,"Delta":219458586},{"NoteNumber":68,"Velocity":58,"Duration":150502,"SoundDuration":150502,"Delta":219610229},{"NoteNumber":48,"Velocity":42,"Duration":300129,"SoundDuration":300129,"Delta":219610229},{"NoteNumber":53,"Velocity":42,"Duration":300129,"SoundDuration":300129,"Delta":219610229},{"NoteNumber":65,"Velocity":56,"Duration":149626,"SoundDuration":149626,"Delta":219760732},{"NoteNumber":61,"Velocity":56,"Duration":148637,"SoundDuration":148637,"Delta":219910359},{"NoteNumber":59,"Velocity":55,"Duration":148514,"SoundDuration":148514,"Delta":220058997},{"NoteNumber":56,"Velocity":54,"Duration":148514,"SoundDuration":148514,"Delta":220207511},{"NoteNumber":53,"Velocity":52,"Duration":148514,"SoundDuration":148514,"Delta":220356026},{"NoteNumber":47,"Velocity":41,"Duration":148514,"SoundDuration":148514,"Delta":220356026},{"NoteNumber":52,"Velocity":55,"Duration":148514,"SoundDuration":148514,"Delta":220504541},{"NoteNumber":48,"Velocity":46,"Duration":297029,"SoundDuration":297029,"Delta":220504541},{"NoteNumber":55,"Velocity":52,"Duration":148514,"SoundDuration":148514,"Delta":220653056},{"NoteNumber":60,"Velocity":52,"Duration":148514,"SoundDuration":148514,"Delta":220801570},{"NoteNumber":36,"Velocity":41,"Duration":148514,"SoundDuration":148514,"Delta":220801570},{"NoteNumber":64,"Velocity":52,"Duration":148514,"SoundDuration":148514,"Delta":220950085},{"NoteNumber":54,"Velocity":49,"Duration":142179,"SoundDuration":142179,"Delta":221098600},{"NoteNumber":44,"Velocity":41,"Duration":287811,"SoundDuration":287811,"Delta":221098600},{"NoteNumber":63,"Velocity":49,"Duration":145631,"SoundDuration":145631,"Delta":221240780},{"NoteNumber":53,"Velocity":55,"Duration":145630,"SoundDuration":145630,"Delta":221386411},{"NoteNumber":49,"Velocity":47,"Duration":291261,"SoundDuration":291261,"Delta":221386411},{"NoteNumber":56,"Velocity":52,"Duration":145631,"SoundDuration":145631,"Delta":221532042},{"NoteNumber":61,"Velocity":52,"Duration":142179,"SoundDuration":142179,"Delta":221677673},{"NoteNumber":37,"Velocity":41,"Duration":142179,"SoundDuration":142179,"Delta":221677673},{"NoteNumber":65,"Velocity":52,"Duration":142179,"SoundDuration":142179,"Delta":221819853},{"NoteNumber":56,"Velocity":49,"Duration":136986,"SoundDuration":136986,"Delta":221962033},{"NoteNumber":53,"Velocity":41,"Duration":277831,"SoundDuration":277831,"Delta":221962033},{"NoteNumber":68,"Velocity":49,"Duration":140845,"SoundDuration":140845,"Delta":222099019},{"NoteNumber":59,"Velocity":57,"Duration":140844,"SoundDuration":140844,"Delta":222239864},{"NoteNumber":55,"Velocity":47,"Duration":281689,"SoundDuration":281689,"Delta":222239864},{"NoteNumber":62,"Velocity":53,"Duration":140845,"SoundDuration":140845,"Delta":222380709},{"NoteNumber":65,"Velocity":53,"Duration":136986,"SoundDuration":136986,"Delta":222521554},{"NoteNumber":43,"Velocity":41,"Duration":136986,"SoundDuration":136986,"Delta":222521554},{"NoteNumber":71,"Velocity":53,"Duration":136986,"SoundDuration":136986,"Delta":222658540},{"NoteNumber":65,"Velocity":48,"Duration":131578,"SoundDuration":131578,"Delta":222795527},{"NoteNumber":59,"Velocity":41,"Duration":266714,"SoundDuration":266714,"Delta":222795527},{"NoteNumber":77,"Velocity":49,"Duration":135135,"SoundDuration":135135,"Delta":222927106},{"NoteNumber":64,"Velocity":58,"Duration":135135,"SoundDuration":135135,"Delta":223062241},{"NoteNumber":60,"Velocity":47,"Duration":270270,"SoundDuration":270270,"Delta":223062241},{"NoteNumber":67,"Velocity":53,"Duration":135135,"SoundDuration":135135,"Delta":223197376},{"NoteNumber":72,"Velocity":53,"Duration":131578,"SoundDuration":131578,"Delta":223332511},{"NoteNumber":48,"Velocity":42,"Duration":131578,"SoundDuration":131578,"Delta":223332511},{"NoteNumber":76,"Velocity":54,"Duration":131579,"SoundDuration":131579,"Delta":223464090},{"NoteNumber":66,"Velocity":52,"Duration":128205,"SoundDuration":128205,"Delta":223595669},{"NoteNumber":56,"Velocity":43,"Duration":259209,"SoundDuration":259209,"Delta":223595669},{"NoteNumber":75,"Velocity":52,"Duration":131004,"SoundDuration":131004,"Delta":223723875},{"NoteNumber":65,"Velocity":60,"Duration":131004,"SoundDuration":131004,"Delta":223854879},{"NoteNumber":61,"Velocity":50,"Duration":262008,"SoundDuration":262008,"Delta":223854879},{"NoteNumber":68,"Velocity":57,"Duration":131004,"SoundDuration":131004,"Delta":223985883},{"NoteNumber":73,"Velocity":57,"Duration":128205,"SoundDuration":128205,"Delta":224116887},{"NoteNumber":49,"Velocity":44,"Duration":128205,"SoundDuration":128205,"Delta":224116887},{"NoteNumber":77,"Velocity":58,"Duration":128205,"SoundDuration":128205,"Delta":224245093},{"NoteNumber":68,"Velocity":55,"Duration":123456,"SoundDuration":123456,"Delta":224373298},{"NoteNumber":65,"Velocity":46,"Duration":249507,"SoundDuration":249507,"Delta":224373298},{"NoteNumber":80,"Velocity":55,"Duration":126050,"SoundDuration":126050,"Delta":224496755},{"NoteNumber":71,"Velocity":67,"Duration":126050,"SoundDuration":126050,"Delta":224622805},{"NoteNumber":67,"Velocity":54,"Duration":252101,"SoundDuration":252101,"Delta":224622805},{"NoteNumber":74,"Velocity":60,"Duration":126050,"SoundDuration":126050,"Delta":224748856},{"NoteNumber":77,"Velocity":60,"Duration":121457,"SoundDuration":121457,"Delta":224874906},{"NoteNumber":55,"Velocity":48,"Duration":121457,"SoundDuration":121457,"Delta":224874906},{"NoteNumber":83,"Velocity":62,"Duration":121457,"SoundDuration":121457,"Delta":224996364},{"NoteNumber":77,"Velocity":58,"Duration":116731,"SoundDuration":116731,"Delta":225117821},{"NoteNumber":71,"Velocity":49,"Duration":235778,"SoundDuration":235778,"Delta":225117821},{"NoteNumber":89,"Velocity":58,"Duration":119047,"SoundDuration":119047,"Delta":225234553},{"NoteNumber":76,"Velocity":67,"Duration":119047,"SoundDuration":119047,"Delta":225353600},{"NoteNumber":72,"Velocity":56,"Duration":238095,"SoundDuration":238095,"Delta":225353600},{"NoteNumber":79,"Velocity":64,"Duration":119047,"SoundDuration":119047,"Delta":225472648},{"NoteNumber":84,"Velocity":65,"Duration":115829,"SoundDuration":115829,"Delta":225591695},{"NoteNumber":60,"Velocity":51,"Duration":115829,"SoundDuration":115829,"Delta":225591695},{"NoteNumber":88,"Velocity":66,"Duration":115830,"SoundDuration":115830,"Delta":225707525},{"NoteNumber":78,"Velocity":63,"Duration":112289,"SoundDuration":112289,"Delta":225823355},{"NoteNumber":68,"Velocity":52,"Duration":224021,"SoundDuration":224021,"Delta":225823355},{"NoteNumber":87,"Velocity":63,"Duration":111732,"SoundDuration":111732,"Delta":225935645},{"NoteNumber":77,"Velocity":71,"Duration":111248,"SoundDuration":111248,"Delta":226047377},{"NoteNumber":73,"Velocity":60,"Duration":221814,"SoundDuration":221814,"Delta":226047377},{"NoteNumber":80,"Velocity":68,"Duration":110565,"SoundDuration":110565,"Delta":226158626},{"NoteNumber":85,"Velocity":70,"Duration":110091,"SoundDuration":110091,"Delta":226269191},{"NoteNumber":61,"Velocity":55,"Duration":110091,"SoundDuration":110091,"Delta":226269191},{"NoteNumber":89,"Velocity":70,"Duration":109489,"SoundDuration":109489,"Delta":226379283},{"NoteNumber":80,"Velocity":66,"Duration":108762,"SoundDuration":108762,"Delta":226488773},{"NoteNumber":77,"Velocity":56,"Duration":216741,"SoundDuration":216741,"Delta":226488773},{"NoteNumber":92,"Velocity":66,"Duration":107979,"SoundDuration":107979,"Delta":226597535},{"NoteNumber":83,"Velocity":77,"Duration":107207,"SoundDuration":107207,"Delta":226705514},{"NoteNumber":79,"Velocity":64,"Duration":213528,"SoundDuration":213528,"Delta":226705514},{"NoteNumber":86,"Velocity":73,"Duration":106320,"SoundDuration":106320,"Delta":226812721},{"NoteNumber":89,"Velocity":74,"Duration":105572,"SoundDuration":105572,"Delta":226919042},{"NoteNumber":67,"Velocity":57,"Duration":105572,"SoundDuration":105572,"Delta":226919042},{"NoteNumber":95,"Velocity":74,"Duration":104834,"SoundDuration":104834,"Delta":227024614},{"NoteNumber":89,"Velocity":68,"Duration":104166,"SoundDuration":104166,"Delta":227129449},{"NoteNumber":83,"Velocity":58,"Duration":208333,"SoundDuration":208333,"Delta":227129449},{"NoteNumber":101,"Velocity":69,"Duration":104166,"SoundDuration":104166,"Delta":227233616},{"NoteNumber":88,"Velocity":71,"Duration":101474,"SoundDuration":101474,"Delta":227337782},{"NoteNumber":84,"Velocity":61,"Duration":101474,"SoundDuration":101474,"Delta":227337782},{"NoteNumber":100,"Velocity":72,"Duration":99351,"SoundDuration":99351,"Delta":227439257},{"NoteNumber":95,"Velocity":79,"Duration":99350,"SoundDuration":99350,"Delta":227538608},{"NoteNumber":100,"Velocity":73,"Duration":99351,"SoundDuration":99351,"Delta":227637959},{"NoteNumber":96,"Velocity":70,"Duration":99350,"SoundDuration":99350,"Delta":227737310},{"NoteNumber":91,"Velocity":70,"Duration":99351,"SoundDuration":99351,"Delta":227836661},{"NoteNumber":60,"Velocity":63,"Duration":474040,"SoundDuration":474040,"Delta":227861499},{"NoteNumber":67,"Velocity":66,"Duration":449203,"SoundDuration":449203,"Delta":227886337},{"NoteNumber":70,"Velocity":68,"Duration":424365,"SoundDuration":424365,"Delta":227911174},{"NoteNumber":88,"Velocity":73,"Duration":101474,"SoundDuration":101474,"Delta":227936012},{"NoteNumber":76,"Velocity":71,"Duration":399527,"SoundDuration":399527,"Delta":227936012},{"NoteNumber":96,"Velocity":73,"Duration":99351,"SoundDuration":99351,"Delta":228037487},{"NoteNumber":90,"Velocity":79,"Duration":99350,"SoundDuration":99350,"Delta":228136838},{"NoteNumber":96,"Velocity":73,"Duration":99351,"SoundDuration":99351,"Delta":228236189},{"NoteNumber":91,"Velocity":73,"Duration":99350,"SoundDuration":99350,"Delta":228335540},{"NoteNumber":88,"Velocity":71,"Duration":99351,"SoundDuration":99351,"Delta":228434891},{"NoteNumber":84,"Velocity":73,"Duration":101474,"SoundDuration":101474,"Delta":228534242},{"NoteNumber":91,"Velocity":73,"Duration":99351,"SoundDuration":99351,"Delta":228635717},{"NoteNumber":87,"Velocity":78,"Duration":99350,"SoundDuration":99350,"Delta":228735068},{"NoteNumber":91,"Velocity":73,"Duration":99351,"SoundDuration":99351,"Delta":228834419},{"NoteNumber":88,"Velocity":71,"Duration":99350,"SoundDuration":99350,"Delta":228933770},{"NoteNumber":84,"Velocity":72,"Duration":99351,"SoundDuration":99351,"Delta":229033121},{"NoteNumber":79,"Velocity":73,"Duration":101474,"SoundDuration":101474,"Delta":229132472},{"NoteNumber":88,"Velocity":73,"Duration":99351,"SoundDuration":99351,"Delta":229233946},{"NoteNumber":83,"Velocity":77,"Duration":99350,"SoundDuration":99350,"Delta":229333297},{"NoteNumber":88,"Velocity":73,"Duration":99351,"SoundDuration":99351,"Delta":229432648},{"NoteNumber":84,"Velocity":70,"Duration":99350,"SoundDuration":99350,"Delta":229531999},{"NoteNumber":79,"Velocity":70,"Duration":99351,"SoundDuration":99351,"Delta":229631350},{"NoteNumber":76,"Velocity":73,"Duration":101474,"SoundDuration":101474,"Delta":229730701},{"NoteNumber":84,"Velocity":73,"Duration":99351,"SoundDuration":99351,"Delta":229832176},{"NoteNumber":78,"Velocity":78,"Duration":99350,"SoundDuration":99350,"Delta":229931527},{"NoteNumber":84,"Velocity":73,"Duration":99351,"SoundDuration":99351,"Delta":230030878},{"NoteNumber":79,"Velocity":71,"Duration":99350,"SoundDuration":99350,"Delta":230130229},{"NoteNumber":76,"Velocity":71,"Duration":99351,"SoundDuration":99351,"Delta":230229580},{"NoteNumber":72,"Velocity":71,"Duration":101474,"SoundDuration":101474,"Delta":230328931},{"NoteNumber":79,"Velocity":70,"Duration":99351,"SoundDuration":99351,"Delta":230430406},{"NoteNumber":75,"Velocity":73,"Duration":99350,"SoundDuration":99350,"Delta":230529757},{"NoteNumber":79,"Velocity":68,"Duration":99351,"SoundDuration":99351,"Delta":230629108},{"NoteNumber":76,"Velocity":65,"Duration":99350,"SoundDuration":99350,"Delta":230728459},{"NoteNumber":72,"Velocity":65,"Duration":100690,"SoundDuration":100690,"Delta":230827810},{"NoteNumber":67,"Velocity":66,"Duration":105374,"SoundDuration":105374,"Delta":230928501},{"NoteNumber":76,"Velocity":61,"Duration":101526,"SoundDuration":101526,"Delta":231033875},{"NoteNumber":71,"Velocity":67,"Duration":103331,"SoundDuration":103331,"Delta":231135402},{"NoteNumber":76,"Velocity":59,"Duration":104591,"SoundDuration":104591,"Delta":231238733},{"NoteNumber":72,"Velocity":59,"Duration":105821,"SoundDuration":105821,"Delta":231343325},{"NoteNumber":70,"Velocity":57,"Duration":107080,"SoundDuration":107080,"Delta":231449146},{"NoteNumber":67,"Velocity":56,"Duration":108370,"SoundDuration":108370,"Delta":231556227},{"NoteNumber":64,"Velocity":55,"Duration":109690,"SoundDuration":109690,"Delta":231664597},{"NoteNumber":60,"Velocity":55,"Duration":111044,"SoundDuration":111044,"Delta":231774287},{"NoteNumber":58,"Velocity":54,"Duration":112431,"SoundDuration":112431,"Delta":231885332},{"NoteNumber":55,"Velocity":53,"Duration":113853,"SoundDuration":113853,"Delta":231997763},{"NoteNumber":52,"Velocity":52,"Duration":115164,"SoundDuration":115164,"Delta":232111617},{"NoteNumber":36,"Velocity":58,"Duration":120967,"SoundDuration":120967,"Delta":232226781},{"NoteNumber":46,"Velocity":54,"Duration":117647,"SoundDuration":117647,"Delta":232347748},{"NoteNumber":48,"Velocity":55,"Duration":117647,"SoundDuration":117647,"Delta":232465395},{"NoteNumber":52,"Velocity":55,"Duration":117646,"SoundDuration":117646,"Delta":232583042},{"NoteNumber":57,"Velocity":58,"Duration":120967,"SoundDuration":120967,"Delta":232700689},{"NoteNumber":58,"Velocity":55,"Duration":234375,"SoundDuration":234375,"Delta":232821657},{"NoteNumber":60,"Velocity":55,"Duration":117187,"SoundDuration":117187,"Delta":232938845},{"NoteNumber":64,"Velocity":55,"Duration":117187,"SoundDuration":117187,"Delta":233056032},{"NoteNumber":69,"Velocity":61,"Duration":120967,"SoundDuration":120967,"Delta":233173220},{"NoteNumber":70,"Velocity":56,"Duration":234375,"SoundDuration":234375,"Delta":233294187},{"NoteNumber":72,"Velocity":56,"Duration":117187,"SoundDuration":117187,"Delta":233411375},{"NoteNumber":76,"Velocity":56,"Duration":117187,"SoundDuration":117187,"Delta":233528562},{"NoteNumber":81,"Velocity":64,"Duration":117187,"SoundDuration":117187,"Delta":233645750},{"NoteNumber":82,"Velocity":55,"Duration":236709,"SoundDuration":236709,"Delta":233762937},{"NoteNumber":84,"Velocity":55,"Duration":119521,"SoundDuration":119521,"Delta":233880125},{"NoteNumber":88,"Velocity":56,"Duration":117187,"SoundDuration":117187,"Delta":233999647},{"NoteNumber":93,"Velocity":64,"Duration":93750,"SoundDuration":93750,"Delta":234116834},{"NoteNumber":91,"Velocity":58,"Duration":93750,"SoundDuration":93750,"Delta":234210584},{"NoteNumber":90,"Velocity":59,"Duration":96257,"SoundDuration":96257,"Delta":234304334},{"NoteNumber":91,"Velocity":59,"Duration":98765,"SoundDuration":98765,"Delta":234400592},{"NoteNumber":93,"Velocity":65,"Duration":99753,"SoundDuration":99753,"Delta":234499358},{"NoteNumber":91,"Velocity":44,"Duration":73396,"SoundDuration":73396,"Delta":234599111},{"NoteNumber":48,"Velocity":50,"Duration":269985,"SoundDuration":269985,"Delta":234599111},{"NoteNumber":93,"Velocity":38,"Duration":65982,"SoundDuration":65982,"Delta":234672507},{"NoteNumber":91,"Velocity":42,"Duration":65521,"SoundDuration":65521,"Delta":234738489},{"NoteNumber":93,"Velocity":37,"Duration":65085,"SoundDuration":65085,"Delta":234804011},{"NoteNumber":91,"Velocity":43,"Duration":64935,"SoundDuration":64935,"Delta":234869097},{"NoteNumber":93,"Velocity":37,"Duration":64748,"SoundDuration":64748,"Delta":234934032},{"NoteNumber":91,"Velocity":43,"Duration":64470,"SoundDuration":64470,"Delta":234998780},{"NoteNumber":93,"Velocity":38,"Duration":64285,"SoundDuration":64285,"Delta":235063250},{"NoteNumber":91,"Velocity":44,"Duration":64011,"SoundDuration":64011,"Delta":235127536},{"NoteNumber":58,"Velocity":45,"Duration":254330,"SoundDuration":254330,"Delta":235127536},{"NoteNumber":93,"Velocity":40,"Duration":63829,"SoundDuration":63829,"Delta":235191548},{"NoteNumber":91,"Velocity":44,"Duration":63559,"SoundDuration":63559,"Delta":235255378},{"NoteNumber":93,"Velocity":40,"Duration":62929,"SoundDuration":62929,"Delta":235318937},{"NoteNumber":91,"Velocity":45,"Duration":61281,"SoundDuration":61281,"Delta":235381866},{"NoteNumber":93,"Velocity":41,"Duration":61013,"SoundDuration":61013,"Delta":235443147},{"NoteNumber":91,"Velocity":46,"Duration":61082,"SoundDuration":61082,"Delta":235504161},{"NoteNumber":93,"Velocity":43,"Duration":60195,"SoundDuration":60195,"Delta":235565243},{"NoteNumber":91,"Velocity":48,"Duration":60878,"SoundDuration":60878,"Delta":235625438},{"NoteNumber":64,"Velocity":47,"Duration":241805,"SoundDuration":241805,"Delta":235625438},{"NoteNumber":93,"Velocity":43,"Duration":60371,"SoundDuration":60371,"Delta":235686317},{"NoteNumber":91,"Velocity":48,"Duration":60184,"SoundDuration":60184,"Delta":235746689},{"NoteNumber":93,"Velocity":44,"Duration":60370,"SoundDuration":60370,"Delta":235806873},{"NoteNumber":91,"Velocity":50,"Duration":61815,"SoundDuration":61815,"Delta":235867244},{"NoteNumber":93,"Velocity":44,"Duration":63166,"SoundDuration":63166,"Delta":235929059},{"NoteNumber":91,"Velocity":51,"Duration":63175,"SoundDuration":63175,"Delta":235992226},{"NoteNumber":93,"Velocity":44,"Duration":62034,"SoundDuration":62034,"Delta":236055401},{"NoteNumber":91,"Velocity":51,"Duration":61983,"SoundDuration":61983,"Delta":236117436},{"NoteNumber":70,"Velocity":51,"Duration":249363,"SoundDuration":249363,"Delta":236117436},{"NoteNumber":93,"Velocity":45,"Duration":62240,"SoundDuration":62240,"Delta":236179420},{"NoteNumber":91,"Velocity":50,"Duration":62482,"SoundDuration":62482,"Delta":236241660},{"NoteNumber":93,"Velocity":45,"Duration":62656,"SoundDuration":62656,"Delta":236304143},{"NoteNumber":91,"Velocity":50,"Duration":62884,"SoundDuration":62884,"Delta":236366800},{"NoteNumber":93,"Velocity":43,"Duration":63060,"SoundDuration":63060,"Delta":236429685},{"NoteNumber":91,"Velocity":49,"Duration":63291,"SoundDuration":63291,"Delta":236492745},{"NoteNumber":93,"Velocity":43,"Duration":63613,"SoundDuration":63613,"Delta":236556036},{"NoteNumber":91,"Velocity":48,"Duration":64305,"SoundDuration":64305,"Delta":236619650},{"NoteNumber":76,"Velocity":46,"Duration":264115,"SoundDuration":264115,"Delta":236619650},{"NoteNumber":93,"Velocity":43,"Duration":65427,"SoundDuration":65427,"Delta":236683955},{"NoteNumber":91,"Velocity":47,"Duration":66589,"SoundDuration":66589,"Delta":236749383},{"NoteNumber":93,"Velocity":38,"Duration":67793,"SoundDuration":67793,"Delta":236815972},{"NoteNumber":91,"Velocity":44,"Duration":68935,"SoundDuration":68935,"Delta":236883765},{"NoteNumber":93,"Velocity":36,"Duration":70226,"SoundDuration":70226,"Delta":236952701},{"NoteNumber":91,"Velocity":46,"Duration":71567,"SoundDuration":71567,"Delta":237022927},{"NoteNumber":93,"Velocity":37,"Duration":68577,"SoundDuration":68577,"Delta":237094494},{"NoteNumber":91,"Velocity":45,"Duration":76483,"SoundDuration":76483,"Delta":237163072},{"NoteNumber":82,"Velocity":43,"Duration":233130,"SoundDuration":233130,"Delta":237163072},{"NoteNumber":93,"Velocity":40,"Duration":77671,"SoundDuration":77671,"Delta":237239555},{"NoteNumber":91,"Velocity":38,"Duration":78976,"SoundDuration":78976,"Delta":237317227},{"NoteNumber":90,"Velocity":44,"Duration":121212,"SoundDuration":121212,"Delta":237396203},{"NoteNumber":91,"Velocity":46,"Duration":121212,"SoundDuration":121212,"Delta":237517415},{"NoteNumber":93,"Velocity":46,"Duration":172413,"SoundDuration":172413,"Delta":237638627},{"NoteNumber":91,"Velocity":52,"Duration":603604,"SoundDuration":603604,"Delta":237811041},{"NoteNumber":88,"Velocity":41,"Duration":603604,"SoundDuration":603604,"Delta":237811041},{"NoteNumber":63,"Velocity":37,"Duration":424322,"SoundDuration":424322,"Delta":239724168},{"NoteNumber":69,"Velocity":45,"Duration":424322,"SoundDuration":424322,"Delta":239724168},{"NoteNumber":48,"Velocity":30,"Duration":424322,"SoundDuration":424322,"Delta":239724168},{"NoteNumber":54,"Velocity":30,"Duration":424322,"SoundDuration":424322,"Delta":239724168},{"NoteNumber":60,"Velocity":36,"Duration":424322,"SoundDuration":424322,"Delta":239724168},{"NoteNumber":63,"Velocity":36,"Duration":208772,"SoundDuration":208772,"Delta":240152877},{"NoteNumber":69,"Velocity":44,"Duration":208772,"SoundDuration":208772,"Delta":240152877},{"NoteNumber":48,"Velocity":27,"Duration":208772,"SoundDuration":208772,"Delta":240152877},{"NoteNumber":54,"Velocity":27,"Duration":208772,"SoundDuration":208772,"Delta":240152877},{"NoteNumber":60,"Velocity":33,"Duration":208772,"SoundDuration":208772,"Delta":240152877},{"NoteNumber":64,"Velocity":41,"Duration":421968,"SoundDuration":421968,"Delta":240363403},{"NoteNumber":70,"Velocity":50,"Duration":421968,"SoundDuration":421968,"Delta":240363403},{"NoteNumber":48,"Velocity":31,"Duration":421968,"SoundDuration":421968,"Delta":240363403},{"NoteNumber":55,"Velocity":31,"Duration":421968,"SoundDuration":421968,"Delta":240363403},{"NoteNumber":60,"Velocity":37,"Duration":421968,"SoundDuration":421968,"Delta":240363403},{"NoteNumber":64,"Velocity":40,"Duration":208772,"SoundDuration":208772,"Delta":240789757},{"NoteNumber":70,"Velocity":48,"Duration":208772,"SoundDuration":208772,"Delta":240789757},{"NoteNumber":48,"Velocity":29,"Duration":208772,"SoundDuration":208772,"Delta":240789757},{"NoteNumber":55,"Velocity":29,"Duration":208772,"SoundDuration":208772,"Delta":240789757},{"NoteNumber":60,"Velocity":34,"Duration":208772,"SoundDuration":208772,"Delta":240789757},{"NoteNumber":65,"Velocity":44,"Duration":420439,"SoundDuration":420439,"Delta":241000284},{"NoteNumber":71,"Velocity":53,"Duration":420439,"SoundDuration":420439,"Delta":241000284},{"NoteNumber":48,"Velocity":36,"Duration":420439,"SoundDuration":420439,"Delta":241000284},{"NoteNumber":56,"Velocity":36,"Duration":420439,"SoundDuration":420439,"Delta":241000284},{"NoteNumber":62,"Velocity":43,"Duration":420439,"SoundDuration":420439,"Delta":241000284},{"NoteNumber":65,"Velocity":43,"Duration":208772,"SoundDuration":208772,"Delta":241425110},{"NoteNumber":71,"Velocity":51,"Duration":208772,"SoundDuration":208772,"Delta":241425110},{"NoteNumber":48,"Velocity":34,"Duration":208772,"SoundDuration":208772,"Delta":241425110},{"NoteNumber":56,"Velocity":34,"Duration":208772,"SoundDuration":208772,"Delta":241425110},{"NoteNumber":62,"Velocity":40,"Duration":208772,"SoundDuration":208772,"Delta":241425110},{"NoteNumber":65,"Velocity":47,"Duration":426466,"SoundDuration":426466,"Delta":241635636},{"NoteNumber":72,"Velocity":56,"Duration":426466,"SoundDuration":426466,"Delta":241635636},{"NoteNumber":48,"Velocity":39,"Duration":426466,"SoundDuration":426466,"Delta":241635636},{"NoteNumber":57,"Velocity":39,"Duration":426466,"SoundDuration":426466,"Delta":241635636},{"NoteNumber":60,"Velocity":47,"Duration":426466,"SoundDuration":426466,"Delta":241635636},{"NoteNumber":65,"Velocity":48,"Duration":244855,"SoundDuration":244855,"Delta":242066551},{"NoteNumber":48,"Velocity":38,"Duration":244855,"SoundDuration":244855,"Delta":242066551},{"NoteNumber":57,"Velocity":38,"Duration":244855,"SoundDuration":244855,"Delta":242066551},{"NoteNumber":60,"Velocity":45,"Duration":244855,"SoundDuration":244855,"Delta":242066551},{"NoteNumber":69,"Velocity":53,"Duration":424106,"SoundDuration":424106,"Delta":242313464},{"NoteNumber":74,"Velocity":63,"Duration":424106,"SoundDuration":424106,"Delta":242313464},{"NoteNumber":48,"Velocity":45,"Duration":424106,"SoundDuration":424106,"Delta":242313464},{"NoteNumber":54,"Velocity":45,"Duration":424106,"SoundDuration":424106,"Delta":242313464},{"NoteNumber":62,"Velocity":53,"Duration":424106,"SoundDuration":424106,"Delta":242313464},{"NoteNumber":69,"Velocity":51,"Duration":216363,"SoundDuration":216363,"Delta":242742035},{"NoteNumber":72,"Velocity":61,"Duration":216363,"SoundDuration":216363,"Delta":242742035},{"NoteNumber":48,"Velocity":40,"Duration":216363,"SoundDuration":216363,"Delta":242742035},{"NoteNumber":54,"Velocity":40,"Duration":216363,"SoundDuration":216363,"Delta":242742035},{"NoteNumber":62,"Velocity":48,"Duration":216363,"SoundDuration":216363,"Delta":242742035},{"NoteNumber":67,"Velocity":50,"Duration":431818,"SoundDuration":431818,"Delta":242960217},{"NoteNumber":70,"Velocity":60,"Duration":431818,"SoundDuration":431818,"Delta":242960217},{"NoteNumber":48,"Velocity":41,"Duration":431818,"SoundDuration":431818,"Delta":242960217},{"NoteNumber":55,"Velocity":41,"Duration":431818,"SoundDuration":431818,"Delta":242960217},{"NoteNumber":62,"Velocity":49,"Duration":431818,"SoundDuration":431818,"Delta":242960217},{"NoteNumber":68,"Velocity":42,"Duration":222846,"SoundDuration":222846,"Delta":243396581},{"NoteNumber":71,"Velocity":50,"Duration":222846,"SoundDuration":222846,"Delta":243396581},{"NoteNumber":48,"Velocity":30,"Duration":222846,"SoundDuration":222846,"Delta":243396581},{"NoteNumber":53,"Velocity":30,"Duration":222846,"SoundDuration":222846,"Delta":243396581},{"NoteNumber":62,"Velocity":36,"Duration":222846,"SoundDuration":222846,"Delta":243396581},{"NoteNumber":67,"Velocity":45,"Duration":439814,"SoundDuration":439814,"Delta":243621300},{"NoteNumber":72,"Velocity":54,"Duration":439814,"SoundDuration":439814,"Delta":243621300},{"NoteNumber":48,"Velocity":34,"Duration":439814,"SoundDuration":439814,"Delta":243621300},{"NoteNumber":52,"Velocity":34,"Duration":439814,"SoundDuration":439814,"Delta":243621300},{"NoteNumber":60,"Velocity":40,"Duration":439814,"SoundDuration":439814,"Delta":243621300},{"NoteNumber":64,"Velocity":40,"Duration":220370,"SoundDuration":220370,"Delta":244065744},{"NoteNumber":70,"Velocity":48,"Duration":220370,"SoundDuration":220370,"Delta":244065744},{"NoteNumber":48,"Velocity":31,"Duration":220370,"SoundDuration":220370,"Delta":244065744},{"NoteNumber":55,"Velocity":31,"Duration":220370,"SoundDuration":220370,"Delta":244065744},{"NoteNumber":60,"Velocity":37,"Duration":220370,"SoundDuration":220370,"Delta":244065744},{"NoteNumber":65,"Velocity":39,"Duration":444444,"SoundDuration":444444,"Delta":244287966},{"NoteNumber":69,"Velocity":46,"Duration":444444,"SoundDuration":444444,"Delta":244287966},{"NoteNumber":48,"Velocity":30,"Duration":444444,"SoundDuration":444444,"Delta":244287966},{"NoteNumber":53,"Velocity":30,"Duration":444444,"SoundDuration":444444,"Delta":244287966},{"NoteNumber":60,"Velocity":36,"Duration":444444,"SoundDuration":444444,"Delta":244287966},{"NoteNumber":48,"Velocity":33,"Duration":222222,"SoundDuration":222222,"Delta":244732410},{"NoteNumber":99,"Velocity":38,"Duration":104529,"SoundDuration":104529,"Delta":244954632},{"NoteNumber":48,"Velocity":32,"Duration":413762,"SoundDuration":413762,"Delta":244954632},{"NoteNumber":54,"Velocity":38,"Duration":413762,"SoundDuration":413762,"Delta":244954632},{"NoteNumber":57,"Velocity":38,"Duration":413762,"SoundDuration":413762,"Delta":244954632},{"NoteNumber":98,"Velocity":36,"Duration":104529,"SoundDuration":104529,"Delta":245059162},{"NoteNumber":101,"Velocity":40,"Duration":104529,"SoundDuration":104529,"Delta":245163691},{"NoteNumber":99,"Velocity":37,"Duration":104529,"SoundDuration":104529,"Delta":245268221},{"NoteNumber":98,"Velocity":37,"Duration":104529,"SoundDuration":104529,"Delta":245372750},{"NoteNumber":48,"Velocity":27,"Duration":207316,"SoundDuration":207316,"Delta":245372750},{"NoteNumber":54,"Velocity":32,"Duration":207316,"SoundDuration":207316,"Delta":245372750},{"NoteNumber":57,"Velocity":39,"Duration":207316,"SoundDuration":207316,"Delta":245372750},{"NoteNumber":96,"Velocity":37,"Duration":104529,"SoundDuration":104529,"Delta":245477280},{"NoteNumber":94,"Velocity":40,"Duration":107142,"SoundDuration":107142,"Delta":245581809},{"NoteNumber":48,"Velocity":36,"Duration":416871,"SoundDuration":416871,"Delta":245581809},{"NoteNumber":55,"Velocity":36,"Duration":416871,"SoundDuration":416871,"Delta":245581809},{"NoteNumber":58,"Velocity":44,"Duration":416871,"SoundDuration":416871,"Delta":245581809},{"NoteNumber":93,"Velocity":37,"Duration":107142,"SoundDuration":107142,"Delta":245688952},{"NoteNumber":96,"Velocity":41,"Duration":103448,"SoundDuration":103448,"Delta":245796095},{"NoteNumber":94,"Velocity":38,"Duration":103448,"SoundDuration":103448,"Delta":245899543},{"NoteNumber":93,"Velocity":39,"Duration":103448,"SoundDuration":103448,"Delta":246002991},{"NoteNumber":48,"Velocity":34,"Duration":205172,"SoundDuration":205172,"Delta":246002991},{"NoteNumber":55,"Velocity":34,"Duration":205172,"SoundDuration":205172,"Delta":246002991},{"NoteNumber":58,"Velocity":42,"Duration":205172,"SoundDuration":205172,"Delta":246002991},{"NoteNumber":91,"Velocity":39,"Duration":103448,"SoundDuration":103448,"Delta":246106440},{"NoteNumber":89,"Velocity":42,"Duration":107527,"SoundDuration":107527,"Delta":246209888},{"NoteNumber":48,"Velocity":38,"Duration":417640,"SoundDuration":417640,"Delta":246209888},{"NoteNumber":56,"Velocity":45,"Duration":417640,"SoundDuration":417640,"Delta":246209888},{"NoteNumber":59,"Velocity":45,"Duration":417640,"SoundDuration":417640,"Delta":246209888},{"NoteNumber":88,"Velocity":39,"Duration":107527,"SoundDuration":107527,"Delta":246317415},{"NoteNumber":91,"Velocity":44,"Duration":103448,"SoundDuration":103448,"Delta":246424942},{"NoteNumber":89,"Velocity":41,"Duration":103448,"SoundDuration":103448,"Delta":246528390},{"NoteNumber":88,"Velocity":41,"Duration":103448,"SoundDuration":103448,"Delta":246631838},{"NoteNumber":48,"Velocity":36,"Duration":205172,"SoundDuration":205172,"Delta":246631838},{"NoteNumber":56,"Velocity":43,"Duration":205172,"SoundDuration":205172,"Delta":246631838},{"NoteNumber":59,"Velocity":43,"Duration":205172,"SoundDuration":205172,"Delta":246631838},{"NoteNumber":86,"Velocity":41,"Duration":103448,"SoundDuration":103448,"Delta":246735287},{"NoteNumber":84,"Velocity":43,"Duration":107142,"SoundDuration":107142,"Delta":246838735},{"NoteNumber":48,"Velocity":37,"Duration":416871,"SoundDuration":416871,"Delta":246838735},{"NoteNumber":57,"Velocity":37,"Duration":617972,"SoundDuration":617972,"Delta":246838735},{"NoteNumber":60,"Velocity":46,"Duration":617972,"SoundDuration":617972,"Delta":246838735},{"NoteNumber":83,"Velocity":41,"Duration":107142,"SoundDuration":107142,"Delta":246945878},{"NoteNumber":86,"Velocity":47,"Duration":103448,"SoundDuration":103448,"Delta":247053020},{"NoteNumber":84,"Velocity":44,"Duration":103448,"SoundDuration":103448,"Delta":247156469},{"NoteNumber":82,"Velocity":44,"Duration":101351,"SoundDuration":101351,"Delta":247259917},{"NoteNumber":48,"Velocity":45,"Duration":201013,"SoundDuration":201013,"Delta":247259917},{"NoteNumber":81,"Velocity":44,"Duration":101351,"SoundDuration":101351,"Delta":247361268},{"NoteNumber":86,"Velocity":47,"Duration":114068,"SoundDuration":114068,"Delta":247462619},{"NoteNumber":48,"Velocity":45,"Duration":433556,"SoundDuration":433556,"Delta":247462619},{"NoteNumber":54,"Velocity":45,"Duration":433556,"SoundDuration":433556,"Delta":247462619},{"NoteNumber":62,"Velocity":55,"Duration":433556,"SoundDuration":433556,"Delta":247462619},{"NoteNumber":85,"Velocity":45,"Duration":114068,"SoundDuration":114068,"Delta":247576688},{"NoteNumber":87,"Velocity":51,"Duration":104894,"SoundDuration":104894,"Delta":247690756},{"NoteNumber":86,"Velocity":46,"Duration":104894,"SoundDuration":104894,"Delta":247795651},{"NoteNumber":84,"Velocity":46,"Duration":104894,"SoundDuration":104894,"Delta":247900546},{"NoteNumber":48,"Velocity":43,"Duration":208041,"SoundDuration":208041,"Delta":247900546},{"NoteNumber":57,"Velocity":43,"Duration":208041,"SoundDuration":208041,"Delta":247900546},{"NoteNumber":62,"Velocity":51,"Duration":208041,"SoundDuration":208041,"Delta":247900546},{"NoteNumber":81,"Velocity":47,"Duration":104894,"SoundDuration":104894,"Delta":248005441},{"NoteNumber":82,"Velocity":51,"Duration":107527,"SoundDuration":107527,"Delta":248110336},{"NoteNumber":48,"Velocity":46,"Duration":420473,"SoundDuration":420473,"Delta":248110336},{"NoteNumber":55,"Velocity":46,"Duration":420473,"SoundDuration":420473,"Delta":248110336},{"NoteNumber":62,"Velocity":55,"Duration":420473,"SoundDuration":420473,"Delta":248110336},{"NoteNumber":81,"Velocity":47,"Duration":107527,"SoundDuration":107527,"Delta":248217863},{"NoteNumber":84,"Velocity":52,"Duration":104894,"SoundDuration":104894,"Delta":248325390},{"NoteNumber":82,"Velocity":48,"Duration":104894,"SoundDuration":104894,"Delta":248430285},{"NoteNumber":79,"Velocity":48,"Duration":104894,"SoundDuration":104894,"Delta":248535180},{"NoteNumber":48,"Velocity":43,"Duration":208041,"SoundDuration":208041,"Delta":248535180},{"NoteNumber":53,"Velocity":43,"Duration":208041,"SoundDuration":208041,"Delta":248535180},{"NoteNumber":62,"Velocity":51,"Duration":208041,"SoundDuration":208041,"Delta":248535180},{"NoteNumber":74,"Velocity":48,"Duration":104894,"SoundDuration":104894,"Delta":248640075},{"NoteNumber":72,"Velocity":53,"Duration":107527,"SoundDuration":107527,"Delta":248744970},{"NoteNumber":48,"Velocity":47,"Duration":420473,"SoundDuration":420473,"Delta":248744970},{"NoteNumber":52,"Velocity":47,"Duration":420473,"SoundDuration":420473,"Delta":248744970},{"NoteNumber":60,"Velocity":57,"Duration":420473,"SoundDuration":420473,"Delta":248744970},{"NoteNumber":71,"Velocity":49,"Duration":107527,"SoundDuration":107527,"Delta":248852497},{"NoteNumber":74,"Velocity":54,"Duration":104894,"SoundDuration":104894,"Delta":248960024},{"NoteNumber":72,"Velocity":49,"Duration":104894,"SoundDuration":104894,"Delta":249064919},{"NoteNumber":70,"Velocity":49,"Duration":104894,"SoundDuration":104894,"Delta":249169814},{"NoteNumber":48,"Velocity":46,"Duration":208041,"SoundDuration":208041,"Delta":249169814},{"NoteNumber":55,"Velocity":46,"Duration":208041,"SoundDuration":208041,"Delta":249169814},{"NoteNumber":60,"Velocity":54,"Duration":208041,"SoundDuration":208041,"Delta":249169814},{"NoteNumber":67,"Velocity":49,"Duration":104894,"SoundDuration":104894,"Delta":249274709},{"NoteNumber":69,"Velocity":52,"Duration":107142,"SoundDuration":107142,"Delta":249379604},{"NoteNumber":48,"Velocity":49,"Duration":419704,"SoundDuration":419704,"Delta":249379604},{"NoteNumber":53,"Velocity":49,"Duration":419704,"SoundDuration":419704,"Delta":249379604},{"NoteNumber":60,"Velocity":57,"Duration":419704,"SoundDuration":419704,"Delta":249379604},{"NoteNumber":68,"Velocity":49,"Duration":107142,"SoundDuration":107142,"Delta":249486747},{"NoteNumber":69,"Velocity":56,"Duration":104894,"SoundDuration":104894,"Delta":249593890},{"NoteNumber":70,"Velocity":50,"Duration":104894,"SoundDuration":104894,"Delta":249698785},{"NoteNumber":65,"Velocity":51,"Duration":104894,"SoundDuration":104894,"Delta":249803680},{"NoteNumber":48,"Velocity":46,"Duration":208041,"SoundDuration":208041,"Delta":249803680},{"NoteNumber":69,"Velocity":51,"Duration":104894,"SoundDuration":104894,"Delta":249908575},{"NoteNumber":63,"Velocity":60,"Duration":415955,"SoundDuration":415955,"Delta":250013470},{"NoteNumber":48,"Velocity":46,"Duration":411645,"SoundDuration":411645,"Delta":250013470},{"NoteNumber":54,"Velocity":49,"Duration":411645,"SoundDuration":411645,"Delta":250013470},{"NoteNumber":57,"Velocity":55,"Duration":411645,"SoundDuration":411645,"Delta":250013470},{"NoteNumber":69,"Velocity":56,"Duration":104529,"SoundDuration":104529,"Delta":250117999},{"NoteNumber":68,"Velocity":56,"Duration":103448,"SoundDuration":103448,"Delta":250222529},{"NoteNumber":69,"Velocity":56,"Duration":103448,"SoundDuration":103448,"Delta":250325977},{"NoteNumber":70,"Velocity":53,"Duration":103448,"SoundDuration":103448,"Delta":250429425},{"NoteNumber":48,"Velocity":39,"Duration":205172,"SoundDuration":205172,"Delta":250429425},{"NoteNumber":54,"Velocity":46,"Duration":205172,"SoundDuration":205172,"Delta":250429425},{"NoteNumber":57,"Velocity":55,"Duration":205172,"SoundDuration":205172,"Delta":250429425},{"NoteNumber":69,"Velocity":53,"Duration":103448,"SoundDuration":103448,"Delta":250532874},{"NoteNumber":64,"Velocity":60,"Duration":415049,"SoundDuration":415049,"Delta":250636322},{"NoteNumber":48,"Velocity":52,"Duration":410738,"SoundDuration":410738,"Delta":250636322},{"NoteNumber":55,"Velocity":52,"Duration":410738,"SoundDuration":410738,"Delta":250636322},{"NoteNumber":58,"Velocity":62,"Duration":410738,"SoundDuration":410738,"Delta":250636322},{"NoteNumber":70,"Velocity":57,"Duration":101010,"SoundDuration":101010,"Delta":250743465},{"NoteNumber":69,"Velocity":57,"Duration":103448,"SoundDuration":103448,"Delta":250844475},{"NoteNumber":70,"Velocity":57,"Duration":103448,"SoundDuration":103448,"Delta":250947923},{"NoteNumber":72,"Velocity":55,"Duration":103448,"SoundDuration":103448,"Delta":251051371},{"NoteNumber":48,"Velocity":48,"Duration":205172,"SoundDuration":205172,"Delta":251051371},{"NoteNumber":55,"Velocity":48,"Duration":205172,"SoundDuration":205172,"Delta":251051371},{"NoteNumber":58,"Velocity":57,"Duration":205172,"SoundDuration":205172,"Delta":251051371},{"NoteNumber":70,"Velocity":55,"Duration":103448,"SoundDuration":103448,"Delta":251154819},{"NoteNumber":65,"Velocity":63,"Duration":416464,"SoundDuration":416464,"Delta":251258268},{"NoteNumber":48,"Velocity":51,"Duration":412153,"SoundDuration":412153,"Delta":251258268},{"NoteNumber":56,"Velocity":51,"Duration":412153,"SoundDuration":412153,"Delta":251258268},{"NoteNumber":59,"Velocity":61,"Duration":412153,"SoundDuration":412153,"Delta":251258268},{"NoteNumber":71,"Velocity":58,"Duration":102040,"SoundDuration":102040,"Delta":251365795},{"NoteNumber":70,"Velocity":58,"Duration":103448,"SoundDuration":103448,"Delta":251467835},{"NoteNumber":71,"Velocity":58,"Duration":103448,"SoundDuration":103448,"Delta":251571284},{"NoteNumber":72,"Velocity":56,"Duration":103448,"SoundDuration":103448,"Delta":251674732},{"NoteNumber":48,"Velocity":48,"Duration":205172,"SoundDuration":205172,"Delta":251674732},{"NoteNumber":56,"Velocity":57,"Duration":205172,"SoundDuration":205172,"Delta":251674732},{"NoteNumber":59,"Velocity":57,"Duration":205172,"SoundDuration":205172,"Delta":251674732},{"NoteNumber":71,"Velocity":56,"Duration":103448,"SoundDuration":103448,"Delta":251778180},{"NoteNumber":65,"Velocity":65,"Duration":416428,"SoundDuration":416428,"Delta":251881628},{"NoteNumber":48,"Velocity":50,"Duration":412117,"SoundDuration":412117,"Delta":251881628},{"NoteNumber":57,"Velocity":50,"Duration":617290,"SoundDuration":617290,"Delta":251881628},{"NoteNumber":60,"Velocity":60,"Duration":617290,"SoundDuration":617290,"Delta":251881628},{"NoteNumber":72,"Velocity":59,"Duration":102388,"SoundDuration":102388,"Delta":251988771},{"NoteNumber":71,"Velocity":59,"Duration":103448,"SoundDuration":103448,"Delta":252091160},{"NoteNumber":72,"Velocity":59,"Duration":103448,"SoundDuration":103448,"Delta":252194608},{"NoteNumber":74,"Velocity":56,"Duration":103448,"SoundDuration":103448,"Delta":252298057},{"NoteNumber":48,"Velocity":57,"Duration":205172,"SoundDuration":205172,"Delta":252298057},{"NoteNumber":72,"Velocity":56,"Duration":103448,"SoundDuration":103448,"Delta":252401505},{"NoteNumber":69,"Velocity":65,"Duration":417144,"SoundDuration":417144,"Delta":252504953},{"NoteNumber":48,"Velocity":56,"Duration":412818,"SoundDuration":412818,"Delta":252504953},{"NoteNumber":54,"Velocity":56,"Duration":412818,"SoundDuration":412818,"Delta":252504953},{"NoteNumber":62,"Velocity":65,"Duration":412818,"SoundDuration":412818,"Delta":252504953},{"NoteNumber":74,"Velocity":60,"Duration":102388,"SoundDuration":102388,"Delta":252612096},{"NoteNumber":73,"Velocity":60,"Duration":103806,"SoundDuration":103806,"Delta":252714485},{"NoteNumber":74,"Velocity":60,"Duration":103806,"SoundDuration":103806,"Delta":252818291},{"NoteNumber":76,"Velocity":58,"Duration":103806,"SoundDuration":103806,"Delta":252922097},{"NoteNumber":48,"Velocity":53,"Duration":205882,"SoundDuration":205882,"Delta":252922097},{"NoteNumber":57,"Velocity":53,"Duration":205882,"SoundDuration":205882,"Delta":252922097},{"NoteNumber":62,"Velocity":63,"Duration":205882,"SoundDuration":205882,"Delta":252922097},{"NoteNumber":74,"Velocity":58,"Duration":103806,"SoundDuration":103806,"Delta":253025904},{"NoteNumber":74,"Velocity":66,"Duration":412976,"SoundDuration":412976,"Delta":253129710},{"NoteNumber":46,"Velocity":67,"Duration":208198,"SoundDuration":208198,"Delta":253129710},{"NoteNumber":79,"Velocity":61,"Duration":100671,"SoundDuration":100671,"Delta":253237237},{"NoteNumber":78,"Velocity":61,"Duration":102388,"SoundDuration":102388,"Delta":253337908},{"NoteNumber":62,"Velocity":58,"Duration":204778,"SoundDuration":204778,"Delta":253337908},{"NoteNumber":79,"Velocity":61,"Duration":102389,"SoundDuration":102389,"Delta":253440297},{"NoteNumber":81,"Velocity":59,"Duration":103092,"SoundDuration":103092,"Delta":253542686},{"NoteNumber":67,"Velocity":59,"Duration":206185,"SoundDuration":206185,"Delta":253542686},{"NoteNumber":79,"Velocity":60,"Duration":103092,"SoundDuration":103092,"Delta":253645779},{"NoteNumber":79,"Velocity":69,"Duration":412618,"SoundDuration":412618,"Delta":253748872},{"NoteNumber":58,"Velocity":68,"Duration":618804,"SoundDuration":618804,"Delta":253748872},{"NoteNumber":84,"Velocity":63,"Duration":101010,"SoundDuration":101010,"Delta":253856399},{"NoteNumber":83,"Velocity":63,"Duration":102040,"SoundDuration":102040,"Delta":253957409},{"NoteNumber":60,"Velocity":58,"Duration":204081,"SoundDuration":204081,"Delta":253957409},{"NoteNumber":84,"Velocity":63,"Duration":102040,"SoundDuration":102040,"Delta":254059449},{"NoteNumber":86,"Velocity":61,"Duration":103092,"SoundDuration":103092,"Delta":254161490},{"NoteNumber":64,"Velocity":60,"Duration":206185,"SoundDuration":206185,"Delta":254161490},{"NoteNumber":84,"Velocity":61,"Duration":103092,"SoundDuration":103092,"Delta":254264583},{"NoteNumber":84,"Velocity":70,"Duration":413643,"SoundDuration":413643,"Delta":254367676},{"NoteNumber":57,"Velocity":69,"Duration":616345,"SoundDuration":616345,"Delta":254367676},{"NoteNumber":89,"Velocity":63,"Duration":103448,"SoundDuration":103448,"Delta":254474818},{"NoteNumber":88,"Velocity":63,"Duration":101700,"SoundDuration":101700,"Delta":254578267},{"NoteNumber":60,"Velocity":59,"Duration":203051,"SoundDuration":203051,"Delta":254578267},{"NoteNumber":89,"Velocity":59,"Duration":101351,"SoundDuration":101351,"Delta":254679967},{"NoteNumber":91,"Velocity":61,"Duration":101351,"SoundDuration":101351,"Delta":254781319},{"NoteNumber":65,"Velocity":61,"Duration":202702,"SoundDuration":202702,"Delta":254781319},{"NoteNumber":89,"Velocity":61,"Duration":101351,"SoundDuration":101351,"Delta":254882670},{"NoteNumber":86,"Velocity":65,"Duration":99999,"SoundDuration":99999,"Delta":254984021},{"NoteNumber":58,"Velocity":71,"Duration":613179,"SoundDuration":613179,"Delta":254984021},{"NoteNumber":85,"Velocity":60,"Duration":99999,"SoundDuration":99999,"Delta":255084021},{"NoteNumber":88,"Velocity":66,"Duration":101695,"SoundDuration":101695,"Delta":255184021},{"NoteNumber":62,"Velocity":62,"Duration":203390,"SoundDuration":203390,"Delta":255184021},{"NoteNumber":86,"Velocity":63,"Duration":101695,"SoundDuration":101695,"Delta":255285716},{"NoteNumber":79,"Velocity":72,"Duration":209789,"SoundDuration":209789,"Delta":255387411},{"NoteNumber":67,"Velocity":63,"Duration":209789,"SoundDuration":209789,"Delta":255387411},{"NoteNumber":88,"Velocity":75,"Duration":411474,"SoundDuration":411474,"Delta":255597201},{"NoteNumber":60,"Velocity":74,"Duration":614176,"SoundDuration":614176,"Delta":255597201},{"NoteNumber":93,"Velocity":68,"Duration":102389,"SoundDuration":102389,"Delta":255703584},{"NoteNumber":92,"Velocity":69,"Duration":101351,"SoundDuration":101351,"Delta":255805973},{"NoteNumber":64,"Velocity":65,"Duration":202702,"SoundDuration":202702,"Delta":255805973},{"NoteNumber":93,"Velocity":63,"Duration":101351,"SoundDuration":101351,"Delta":255907324},{"NoteNumber":94,"Velocity":64,"Duration":101351,"SoundDuration":101351,"Delta":256008676},{"NoteNumber":69,"Velocity":66,"Duration":202702,"SoundDuration":202702,"Delta":256008676},{"NoteNumber":93,"Velocity":64,"Duration":101351,"SoundDuration":101351,"Delta":256110027},{"NoteNumber":89,"Velocity":71,"Duration":100671,"SoundDuration":100671,"Delta":256211378},{"NoteNumber":62,"Velocity":77,"Duration":615910,"SoundDuration":615910,"Delta":256211378},{"NoteNumber":88,"Velocity":64,"Duration":100671,"SoundDuration":100671,"Delta":256312049},{"NoteNumber":91,"Velocity":72,"Duration":102389,"SoundDuration":102389,"Delta":256412721},{"NoteNumber":65,"Velocity":67,"Duration":204777,"SoundDuration":204777,"Delta":256412721},{"NoteNumber":89,"Velocity":66,"Duration":102388,"SoundDuration":102388,"Delta":256515110},{"NoteNumber":86,"Velocity":77,"Duration":209789,"SoundDuration":209789,"Delta":256617499},{"NoteNumber":70,"Velocity":68,"Duration":209789,"SoundDuration":209789,"Delta":256617499},{"NoteNumber":91,"Velocity":79,"Duration":408955,"SoundDuration":408955,"Delta":256827289},{"NoteNumber":64,"Velocity":78,"Duration":610975,"SoundDuration":610975,"Delta":256827289},{"NoteNumber":96,"Velocity":71,"Duration":102040,"SoundDuration":102040,"Delta":256932184},{"NoteNumber":95,"Velocity":73,"Duration":101009,"SoundDuration":101009,"Delta":257034224},{"NoteNumber":67,"Velocity":68,"Duration":202020,"SoundDuration":202020,"Delta":257034224},{"NoteNumber":96,"Velocity":67,"Duration":101010,"SoundDuration":101010,"Delta":257135234},{"NoteNumber":98,"Velocity":67,"Duration":101009,"SoundDuration":101009,"Delta":257236244},{"NoteNumber":72,"Velocity":69,"Duration":202020,"SoundDuration":202020,"Delta":257236244},{"NoteNumber":96,"Velocity":69,"Duration":101010,"SoundDuration":101010,"Delta":257337254},{"NoteNumber":93,"Velocity":74,"Duration":100334,"SoundDuration":100334,"Delta":257438264},{"NoteNumber":65,"Velocity":81,"Duration":613083,"SoundDuration":613083,"Delta":257438264},{"NoteNumber":92,"Velocity":68,"Duration":100334,"SoundDuration":100334,"Delta":257538599},{"NoteNumber":94,"Velocity":75,"Duration":102040,"SoundDuration":102040,"Delta":257638933},{"NoteNumber":69,"Velocity":68,"Duration":204081,"SoundDuration":204081,"Delta":257638933},{"NoteNumber":93,"Velocity":68,"Duration":102040,"SoundDuration":102040,"Delta":257740974},{"NoteNumber":89,"Velocity":77,"Duration":208333,"SoundDuration":208333,"Delta":257843015},{"NoteNumber":72,"Velocity":68,"Duration":208333,"SoundDuration":208333,"Delta":257843015},{"NoteNumber":93,"Velocity":83,"Duration":407204,"SoundDuration":407204,"Delta":258051348},{"NoteNumber":66,"Velocity":82,"Duration":608546,"SoundDuration":608546,"Delta":258051348},{"NoteNumber":98,"Velocity":76,"Duration":101695,"SoundDuration":101695,"Delta":258155515},{"NoteNumber":97,"Velocity":76,"Duration":100671,"SoundDuration":100671,"Delta":258257210},{"NoteNumber":69,"Velocity":71,"Duration":201342,"SoundDuration":201342,"Delta":258257210},{"NoteNumber":98,"Velocity":70,"Duration":100671,"SoundDuration":100671,"Delta":258357881},{"NoteNumber":99,"Velocity":70,"Duration":100671,"SoundDuration":100671,"Delta":258458553},{"NoteNumber":74,"Velocity":71,"Duration":201342,"SoundDuration":201342,"Delta":258458553},{"NoteNumber":98,"Velocity":70,"Duration":100671,"SoundDuration":100671,"Delta":258559224},{"NoteNumber":94,"Velocity":76,"Duration":99337,"SoundDuration":99337,"Delta":258659895},{"NoteNumber":67,"Velocity":82,"Duration":611124,"SoundDuration":611124,"Delta":258659895},{"NoteNumber":93,"Velocity":69,"Duration":99337,"SoundDuration":99337,"Delta":258759233},{"NoteNumber":96,"Velocity":76,"Duration":101695,"SoundDuration":101695,"Delta":258858571},{"NoteNumber":70,"Velocity":71,"Duration":203390,"SoundDuration":203390,"Delta":258858571},{"NoteNumber":94,"Velocity":69,"Duration":101695,"SoundDuration":101695,"Delta":258960266},{"NoteNumber":91,"Velocity":80,"Duration":209059,"SoundDuration":209059,"Delta":259061961},{"NoteNumber":74,"Velocity":71,"Duration":209059,"SoundDuration":209059,"Delta":259061961},{"NoteNumber":94,"Velocity":50,"Duration":104529,"SoundDuration":104529,"Delta":259271020},{"NoteNumber":61,"Velocity":48,"Duration":205880,"SoundDuration":205880,"Delta":259271020},{"NoteNumber":100,"Velocity":45,"Duration":101351,"SoundDuration":101351,"Delta":259375549},{"NoteNumber":91,"Velocity":45,"Duration":101351,"SoundDuration":101351,"Delta":259476900},{"NoteNumber":70,"Velocity":42,"Duration":408583,"SoundDuration":408583,"Delta":259476900},{"NoteNumber":94,"Velocity":42,"Duration":25337,"SoundDuration":25337,"Delta":259578252},{"NoteNumber":96,"Velocity":42,"Duration":25337,"SoundDuration":25337,"Delta":259603589},{"NoteNumber":94,"Velocity":45,"Duration":50675,"SoundDuration":50675,"Delta":259628927},{"NoteNumber":93,"Velocity":48,"Duration":101351,"SoundDuration":101351,"Delta":259679603},{"NoteNumber":76,"Velocity":43,"Duration":205880,"SoundDuration":205880,"Delta":259679603},{"NoteNumber":91,"Velocity":45,"Duration":104529,"SoundDuration":104529,"Delta":259780954},{"NoteNumber":90,"Velocity":50,"Duration":104166,"SoundDuration":104166,"Delta":259885484},{"NoteNumber":62,"Velocity":47,"Duration":205517,"SoundDuration":205517,"Delta":259885484},{"NoteNumber":96,"Velocity":45,"Duration":101351,"SoundDuration":101351,"Delta":259989650},{"NoteNumber":84,"Velocity":45,"Duration":101351,"SoundDuration":101351,"Delta":260091002},{"NoteNumber":69,"Velocity":43,"Duration":408220,"SoundDuration":408220,"Delta":260091002},{"NoteNumber":87,"Velocity":40,"Duration":25337,"SoundDuration":25337,"Delta":260192353},{"NoteNumber":89,"Velocity":40,"Duration":25337,"SoundDuration":25337,"Delta":260217691},{"NoteNumber":87,"Velocity":45,"Duration":50675,"SoundDuration":50675,"Delta":260243029},{"NoteNumber":86,"Velocity":45,"Duration":101351,"SoundDuration":101351,"Delta":260293704},{"NoteNumber":78,"Velocity":43,"Duration":205517,"SoundDuration":205517,"Delta":260293704},{"NoteNumber":84,"Velocity":45,"Duration":104166,"SoundDuration":104166,"Delta":260395055},{"NoteNumber":83,"Velocity":49,"Duration":105633,"SoundDuration":105633,"Delta":260499222},{"NoteNumber":55,"Velocity":47,"Duration":208845,"SoundDuration":208845,"Delta":260499222},{"NoteNumber":89,"Velocity":45,"Duration":103211,"SoundDuration":103211,"Delta":260604856},{"NoteNumber":77,"Velocity":45,"Duration":104348,"SoundDuration":104348,"Delta":260708068},{"NoteNumber":62,"Velocity":42,"Duration":425176,"SoundDuration":425176,"Delta":260708068},{"NoteNumber":80,"Velocity":39,"Duration":26315,"SoundDuration":26315,"Delta":260812417},{"NoteNumber":82,"Velocity":39,"Duration":26377,"SoundDuration":26377,"Delta":260838732},{"NoteNumber":80,"Velocity":42,"Duration":52941,"SoundDuration":52941,"Delta":260865110},{"NoteNumber":79,"Velocity":49,"Duration":106953,"SoundDuration":106953,"Delta":260918051},{"NoteNumber":71,"Velocity":43,"Duration":215192,"SoundDuration":215192,"Delta":260918051},{"NoteNumber":77,"Velocity":45,"Duration":108239,"SoundDuration":108239,"Delta":261025004},{"NoteNumber":76,"Velocity":51,"Duration":109624,"SoundDuration":109624,"Delta":261133244},{"NoteNumber":48,"Velocity":46,"Duration":220600,"SoundDuration":220600,"Delta":261133244},{"NoteNumber":82,"Velocity":45,"Duration":110975,"SoundDuration":110975,"Delta":261242868},{"NoteNumber":74,"Velocity":45,"Duration":111524,"SoundDuration":111524,"Delta":261353844},{"NoteNumber":55,"Velocity":45,"Duration":446097,"SoundDuration":446097,"Delta":261353844},{"NoteNumber":73,"Velocity":39,"Duration":27881,"SoundDuration":27881,"Delta":261465368},{"NoteNumber":75,"Velocity":39,"Duration":27881,"SoundDuration":27881,"Delta":261493249},{"NoteNumber":73,"Velocity":43,"Duration":55762,"SoundDuration":55762,"Delta":261521131},{"NoteNumber":72,"Velocity":45,"Duration":111524,"SoundDuration":111524,"Delta":261576893},{"NoteNumber":64,"Velocity":46,"Duration":223048,"SoundDuration":223048,"Delta":261576893},{"NoteNumber":70,"Velocity":45,"Duration":222636,"SoundDuration":222636,"Delta":261688417},{"NoteNumber":53,"Velocity":50,"Duration":1056021,"SoundDuration":1056021,"Delta":261799941},{"NoteNumber":69,"Velocity":41,"Duration":109824,"SoundDuration":109824,"Delta":261911053},{"NoteNumber":72,"Velocity":43,"Duration":108500,"SoundDuration":108500,"Delta":262020878},{"NoteNumber":57,"Velocity":43,"Duration":835084,"SoundDuration":835084,"Delta":262020878},{"NoteNumber":76,"Velocity":45,"Duration":107208,"SoundDuration":107208,"Delta":262129378},{"NoteNumber":77,"Velocity":47,"Duration":105946,"SoundDuration":105946,"Delta":262236587},{"NoteNumber":60,"Velocity":46,"Duration":210659,"SoundDuration":210659,"Delta":262236587},{"NoteNumber":81,"Velocity":49,"Duration":104713,"SoundDuration":104713,"Delta":262342533},{"NoteNumber":84,"Velocity":51,"Duration":103509,"SoundDuration":103509,"Delta":262447246},{"NoteNumber":69,"Velocity":50,"Duration":408716,"SoundDuration":408716,"Delta":262447246},{"NoteNumber":88,"Velocity":52,"Duration":102332,"SoundDuration":102332,"Delta":262550755},{"NoteNumber":89,"Velocity":54,"Duration":101637,"SoundDuration":101637,"Delta":262653087},{"NoteNumber":93,"Velocity":56,"Duration":101237,"SoundDuration":101237,"Delta":262754725},{"NoteNumber":96,"Velocity":58,"Duration":100840,"SoundDuration":100840,"Delta":262855962},{"NoteNumber":100,"Velocity":60,"Duration":100446,"SoundDuration":100446,"Delta":262956803},{"NoteNumber":101,"Velocity":60,"Duration":100334,"SoundDuration":100334,"Delta":263057250},{"NoteNumber":47,"Velocity":55,"Duration":200669,"SoundDuration":200669,"Delta":263057250},{"NoteNumber":100,"Velocity":60,"Duration":100334,"SoundDuration":100334,"Delta":263157584},{"NoteNumber":99,"Velocity":59,"Duration":100671,"SoundDuration":100671,"Delta":263257919},{"NoteNumber":56,"Velocity":50,"Duration":809112,"SoundDuration":809112,"Delta":263257919},{"NoteNumber":98,"Velocity":59,"Duration":100671,"SoundDuration":100671,"Delta":263358590},{"NoteNumber":97,"Velocity":58,"Duration":100953,"SoundDuration":100953,"Delta":263459261},{"NoteNumber":62,"Velocity":50,"Duration":607770,"SoundDuration":607770,"Delta":263459261},{"NoteNumber":96,"Velocity":58,"Duration":101009,"SoundDuration":101009,"Delta":263560215},{"NoteNumber":95,"Velocity":57,"Duration":101237,"SoundDuration":101237,"Delta":263661225},{"NoteNumber":65,"Velocity":53,"Duration":405806,"SoundDuration":405806,"Delta":263661225},{"NoteNumber":94,"Velocity":57,"Duration":101351,"SoundDuration":101351,"Delta":263762462},{"NoteNumber":93,"Velocity":56,"Duration":101523,"SoundDuration":101523,"Delta":263863814},{"NoteNumber":92,"Velocity":55,"Duration":101695,"SoundDuration":101695,"Delta":263965337},{"NoteNumber":91,"Velocity":55,"Duration":101867,"SoundDuration":101867,"Delta":264067032},{"NoteNumber":90,"Velocity":54,"Duration":106761,"SoundDuration":106761,"Delta":264168900},{"NoteNumber":89,"Velocity":52,"Duration":101351,"SoundDuration":101351,"Delta":264275661},{"NoteNumber":48,"Velocity":47,"Duration":202702,"SoundDuration":202702,"Delta":264275661},{"NoteNumber":93,"Velocity":51,"Duration":101351,"SoundDuration":101351,"Delta":264377012},{"NoteNumber":92,"Velocity":50,"Duration":100000,"SoundDuration":100000,"Delta":264478364},{"NoteNumber":57,"Velocity":42,"Duration":805404,"SoundDuration":805404,"Delta":264478364},{"NoteNumber":91,"Velocity":49,"Duration":99999,"SoundDuration":99999,"Delta":264578364},{"NoteNumber":90,"Velocity":48,"Duration":100000,"SoundDuration":100000,"Delta":264678364},{"NoteNumber":60,"Velocity":42,"Duration":605404,"SoundDuration":605404,"Delta":264678364},{"NoteNumber":89,"Velocity":47,"Duration":99999,"SoundDuration":99999,"Delta":264778364},{"NoteNumber":88,"Velocity":46,"Duration":101351,"SoundDuration":101351,"Delta":264878364},{"NoteNumber":65,"Velocity":45,"Duration":405404,"SoundDuration":405404,"Delta":264878364},{"NoteNumber":87,"Velocity":46,"Duration":101351,"SoundDuration":101351,"Delta":264979715},{"NoteNumber":86,"Velocity":45,"Duration":101351,"SoundDuration":101351,"Delta":265081066},{"NoteNumber":85,"Velocity":44,"Duration":101351,"SoundDuration":101351,"Delta":265182417},{"NoteNumber":84,"Velocity":43,"Duration":101351,"SoundDuration":101351,"Delta":265283769},{"NoteNumber":83,"Velocity":42,"Duration":104894,"SoundDuration":104894,"Delta":265385120},{"NoteNumber":82,"Velocity":46,"Duration":101009,"SoundDuration":101009,"Delta":265490015},{"NoteNumber":36,"Velocity":40,"Duration":151515,"SoundDuration":151515,"Delta":265490015},{"NoteNumber":88,"Velocity":40,"Duration":100953,"SoundDuration":100953,"Delta":265591025},{"NoteNumber":87,"Velocity":39,"Duration":100671,"SoundDuration":100671,"Delta":265691978},{"NoteNumber":55,"Velocity":36,"Duration":813767,"SoundDuration":813767,"Delta":265691978},{"NoteNumber":86,"Velocity":39,"Duration":101009,"SoundDuration":101009,"Delta":265792650},{"NoteNumber":85,"Velocity":39,"Duration":101294,"SoundDuration":101294,"Delta":265893660},{"NoteNumber":58,"Velocity":36,"Duration":612086,"SoundDuration":612086,"Delta":265893660},{"NoteNumber":84,"Velocity":38,"Duration":101580,"SoundDuration":101580,"Delta":265994954},{"NoteNumber":83,"Velocity":38,"Duration":101867,"SoundDuration":101867,"Delta":266096534},{"NoteNumber":64,"Velocity":40,"Duration":409211,"SoundDuration":409211,"Delta":266096534},{"NoteNumber":82,"Velocity":37,"Duration":102156,"SoundDuration":102156,"Delta":266198402},{"NoteNumber":81,"Velocity":37,"Duration":102447,"SoundDuration":102447,"Delta":266300559},{"NoteNumber":80,"Velocity":37,"Duration":102739,"SoundDuration":102739,"Delta":266403007},{"NoteNumber":79,"Velocity":36,"Duration":103641,"SoundDuration":103641,"Delta":266505746},{"NoteNumber":78,"Velocity":36,"Duration":106382,"SoundDuration":106382,"Delta":266609388},{"NoteNumber":77,"Velocity":45,"Duration":103806,"SoundDuration":103806,"Delta":266715771},{"NoteNumber":41,"Velocity":38,"Duration":155709,"SoundDuration":155709,"Delta":266715771},{"NoteNumber":53,"Velocity":32,"Duration":207612,"SoundDuration":207612,"Delta":266923383},{"NoteNumber":57,"Velocity":32,"Duration":207612,"SoundDuration":207612,"Delta":267130996},{"NoteNumber":65,"Velocity":37,"Duration":207612,"SoundDuration":207612,"Delta":267338608},{"NoteNumber":57,"Velocity":36,"Duration":207612,"SoundDuration":207612,"Delta":267546221},{"NoteNumber":69,"Velocity":47,"Duration":195580,"SoundDuration":195580,"Delta":267753833},{"NoteNumber":60,"Velocity":36,"Duration":195580,"SoundDuration":195580,"Delta":267753833},{"NoteNumber":81,"Velocity":44,"Duration":97790,"SoundDuration":97790,"Delta":267851623},{"NoteNumber":70,"Velocity":49,"Duration":195580,"SoundDuration":195580,"Delta":267949413},{"NoteNumber":53,"Velocity":46,"Duration":1161563,"SoundDuration":1161563,"Delta":267949413},{"NoteNumber":82,"Velocity":45,"Duration":97790,"SoundDuration":97790,"Delta":268047203},{"NoteNumber":71,"Velocity":51,"Duration":191693,"SoundDuration":191693,"Delta":268144993},{"NoteNumber":55,"Velocity":38,"Duration":191693,"SoundDuration":191693,"Delta":268144993},{"NoteNumber":83,"Velocity":48,"Duration":95846,"SoundDuration":95846,"Delta":268240840},{"NoteNumber":72,"Velocity":54,"Duration":191693,"SoundDuration":191693,"Delta":268336687},{"NoteNumber":60,"Velocity":40,"Duration":191693,"SoundDuration":191693,"Delta":268336687},{"NoteNumber":84,"Velocity":50,"Duration":95846,"SoundDuration":95846,"Delta":268432533},{"NoteNumber":74,"Velocity":56,"Duration":191693,"SoundDuration":191693,"Delta":268528380},{"NoteNumber":64,"Velocity":42,"Duration":191693,"SoundDuration":191693,"Delta":268528380},{"NoteNumber":86,"Velocity":51,"Duration":95846,"SoundDuration":95846,"Delta":268624227},{"NoteNumber":76,"Velocity":58,"Duration":191693,"SoundDuration":191693,"Delta":268720074},{"NoteNumber":55,"Velocity":44,"Duration":191693,"SoundDuration":191693,"Delta":268720074},{"NoteNumber":88,"Velocity":54,"Duration":95846,"SoundDuration":95846,"Delta":268815920},{"NoteNumber":77,"Velocity":60,"Duration":199209,"SoundDuration":199209,"Delta":268911767},{"NoteNumber":60,"Velocity":47,"Duration":199209,"SoundDuration":199209,"Delta":268911767},{"NoteNumber":89,"Velocity":56,"Duration":51681,"SoundDuration":51681,"Delta":269007614},{"NoteNumber":79,"Velocity":57,"Duration":51681,"SoundDuration":51681,"Delta":269059295},{"NoteNumber":91,"Velocity":63,"Duration":198255,"SoundDuration":198255,"Delta":269110977},{"NoteNumber":53,"Velocity":46,"Duration":1176323,"SoundDuration":1176323,"Delta":269110977},{"NoteNumber":58,"Velocity":42,"Duration":198255,"SoundDuration":198255,"Delta":269309232},{"NoteNumber":60,"Velocity":42,"Duration":198255,"SoundDuration":198255,"Delta":269507488},{"NoteNumber":69,"Velocity":54,"Duration":194931,"SoundDuration":194931,"Delta":269705743},{"NoteNumber":64,"Velocity":45,"Duration":194931,"SoundDuration":194931,"Delta":269705743},{"NoteNumber":81,"Velocity":49,"Duration":97465,"SoundDuration":97465,"Delta":269803209},{"NoteNumber":70,"Velocity":55,"Duration":194931,"SoundDuration":194931,"Delta":269900675},{"NoteNumber":58,"Velocity":46,"Duration":194931,"SoundDuration":194931,"Delta":269900675},{"NoteNumber":82,"Velocity":51,"Duration":97465,"SoundDuration":97465,"Delta":269998141},{"NoteNumber":71,"Velocity":57,"Duration":191693,"SoundDuration":191693,"Delta":270095607},{"NoteNumber":60,"Velocity":47,"Duration":191693,"SoundDuration":191693,"Delta":270095607},{"NoteNumber":83,"Velocity":52,"Duration":95846,"SoundDuration":95846,"Delta":270191454},{"NoteNumber":72,"Velocity":58,"Duration":191693,"SoundDuration":191693,"Delta":270287301},{"NoteNumber":53,"Velocity":53,"Duration":1158041,"SoundDuration":1158041,"Delta":270287301},{"NoteNumber":84,"Velocity":52,"Duration":95846,"SoundDuration":95846,"Delta":270383147},{"NoteNumber":74,"Velocity":60,"Duration":191693,"SoundDuration":191693,"Delta":270478994},{"NoteNumber":57,"Velocity":48,"Duration":191693,"SoundDuration":191693,"Delta":270478994},{"NoteNumber":86,"Velocity":53,"Duration":95846,"SoundDuration":95846,"Delta":270574841},{"NoteNumber":76,"Velocity":62,"Duration":191693,"SoundDuration":191693,"Delta":270670688},{"NoteNumber":60,"Velocity":48,"Duration":191693,"SoundDuration":191693,"Delta":270670688},{"NoteNumber":88,"Velocity":55,"Duration":95846,"SoundDuration":95846,"Delta":270766534},{"NoteNumber":77,"Velocity":63,"Duration":191693,"SoundDuration":191693,"Delta":270862381},{"NoteNumber":65,"Velocity":49,"Duration":191693,"SoundDuration":191693,"Delta":270862381},{"NoteNumber":89,"Velocity":55,"Duration":95846,"SoundDuration":95846,"Delta":270958228},{"NoteNumber":79,"Velocity":65,"Duration":191693,"SoundDuration":191693,"Delta":271054075},{"NoteNumber":57,"Velocity":50,"Duration":191693,"SoundDuration":191693,"Delta":271054075},{"NoteNumber":91,"Velocity":56,"Duration":95846,"SoundDuration":95846,"Delta":271149921},{"NoteNumber":80,"Velocity":66,"Duration":199573,"SoundDuration":199573,"Delta":271245768},{"NoteNumber":60,"Velocity":50,"Duration":199573,"SoundDuration":199573,"Delta":271245768},{"NoteNumber":92,"Velocity":54,"Duration":51863,"SoundDuration":51863,"Delta":271341615},{"NoteNumber":81,"Velocity":54,"Duration":51863,"SoundDuration":51863,"Delta":271393478},{"NoteNumber":93,"Velocity":68,"Duration":97137,"SoundDuration":97137,"Delta":271445342},{"NoteNumber":52,"Velocity":55,"Duration":194275,"SoundDuration":194275,"Delta":271445342},{"NoteNumber":57,"Velocity":51,"Duration":582826,"SoundDuration":582826,"Delta":271639618},{"NoteNumber":61,"Velocity":51,"Duration":194275,"SoundDuration":194275,"Delta":271833893},{"NoteNumber":81,"Velocity":66,"Duration":194275,"SoundDuration":194275,"Delta":272028169},{"NoteNumber":67,"Velocity":54,"Duration":194275,"SoundDuration":194275,"Delta":272028169},{"NoteNumber":93,"Velocity":63,"Duration":97137,"SoundDuration":97137,"Delta":272125306},{"NoteNumber":83,"Velocity":68,"Duration":194275,"SoundDuration":194275,"Delta":272222444},{"NoteNumber":57,"Velocity":50,"Duration":392963,"SoundDuration":392963,"Delta":272222444},{"NoteNumber":95,"Velocity":66,"Duration":97137,"SoundDuration":97137,"Delta":272319582},{"NoteNumber":85,"Velocity":71,"Duration":198688,"SoundDuration":198688,"Delta":272416720},{"NoteNumber":61,"Velocity":51,"Duration":198688,"SoundDuration":198688,"Delta":272416720},{"NoteNumber":97,"Velocity":69,"Duration":50775,"SoundDuration":50775,"Delta":272513857},{"NoteNumber":86,"Velocity":69,"Duration":390757,"SoundDuration":390757,"Delta":272564632},{"NoteNumber":98,"Velocity":74,"Duration":339982,"SoundDuration":339982,"Delta":272615408},{"NoteNumber":50,"Velocity":55,"Duration":194275,"SoundDuration":194275,"Delta":272615408},{"NoteNumber":57,"Velocity":65,"Duration":586535,"SoundDuration":586535,"Delta":272809683},{"NoteNumber":88,"Velocity":71,"Duration":196130,"SoundDuration":196130,"Delta":272955390},{"NoteNumber":100,"Velocity":76,"Duration":147561,"SoundDuration":147561,"Delta":273003959},{"NoteNumber":62,"Velocity":53,"Duration":197984,"SoundDuration":197984,"Delta":273003959},{"NoteNumber":89,"Velocity":71,"Duration":586535,"SoundDuration":586535,"Delta":273151520},{"NoteNumber":101,"Velocity":76,"Duration":536112,"SoundDuration":536112,"Delta":273201943},{"NoteNumber":65,"Velocity":58,"Duration":194275,"SoundDuration":194275,"Delta":273201943},{"NoteNumber":57,"Velocity":67,"Duration":392260,"SoundDuration":392260,"Delta":273396219},{"NoteNumber":62,"Velocity":53,"Duration":197984,"SoundDuration":197984,"Delta":273590494},{"NoteNumber":86,"Velocity":70,"Duration":390405,"SoundDuration":390405,"Delta":273738056},{"NoteNumber":98,"Velocity":77,"Duration":339982,"SoundDuration":339982,"Delta":273788479},{"NoteNumber":48,"Velocity":58,"Duration":194275,"SoundDuration":194275,"Delta":273788479},{"NoteNumber":57,"Velocity":66,"Duration":586237,"SoundDuration":586237,"Delta":273982755},{"NoteNumber":88,"Velocity":73,"Duration":196307,"SoundDuration":196307,"Delta":274128461},{"NoteNumber":100,"Velocity":78,"Duration":147738,"SoundDuration":147738,"Delta":274177030},{"NoteNumber":62,"Velocity":53,"Duration":198338,"SoundDuration":198338,"Delta":274177030},{"NoteNumber":89,"Velocity":71,"Duration":654987,"SoundDuration":654987,"Delta":274324768},{"NoteNumber":101,"Velocity":76,"Duration":588252,"SoundDuration":588252,"Delta":274375369},{"NoteNumber":65,"Velocity":58,"Duration":193623,"SoundDuration":193623,"Delta":274375369},{"NoteNumber":57,"Velocity":71,"Duration":394628,"SoundDuration":394628,"Delta":274568992},{"NoteNumber":62,"Velocity":61,"Duration":201005,"SoundDuration":201005,"Delta":274762616},{"NoteNumber":86,"Velocity":83,"Duration":96811,"SoundDuration":96811,"Delta":274963621},{"NoteNumber":46,"Velocity":76,"Duration":96811,"SoundDuration":96811,"Delta":274963621},{"NoteNumber":98,"Velocity":76,"Duration":94918,"SoundDuration":94918,"Delta":275060433},{"NoteNumber":89,"Velocity":76,"Duration":94918,"SoundDuration":94918,"Delta":275155351},{"NoteNumber":94,"Velocity":76,"Duration":94918,"SoundDuration":94918,"Delta":275250270},{"NoteNumber":92,"Velocity":76,"Duration":94918,"SoundDuration":94918,"Delta":275345189},{"NoteNumber":89,"Velocity":76,"Duration":94918,"SoundDuration":94918,"Delta":275440108},{"NoteNumber":86,"Velocity":84,"Duration":94918,"SoundDuration":94918,"Delta":275535026},{"NoteNumber":65,"Velocity":76,"Duration":664068,"SoundDuration":664068,"Delta":275535026},{"NoteNumber":58,"Velocity":64,"Duration":664068,"SoundDuration":664068,"Delta":275535026},{"NoteNumber":56,"Velocity":64,"Duration":664068,"SoundDuration":664068,"Delta":275535026},{"NoteNumber":53,"Velocity":64,"Duration":664068,"SoundDuration":664068,"Delta":275535026},{"NoteNumber":82,"Velocity":83,"Duration":94918,"SoundDuration":94918,"Delta":275629945},{"NoteNumber":80,"Velocity":81,"Duration":94918,"SoundDuration":94918,"Delta":275724864},{"NoteNumber":77,"Velocity":80,"Duration":94918,"SoundDuration":94918,"Delta":275819783},{"NoteNumber":74,"Velocity":79,"Duration":94918,"SoundDuration":94918,"Delta":275914701},{"NoteNumber":70,"Velocity":77,"Duration":94866,"SoundDuration":94866,"Delta":276009620},{"NoteNumber":68,"Velocity":76,"Duration":94607,"SoundDuration":94607,"Delta":276104487},{"NoteNumber":65,"Velocity":70,"Duration":94866,"SoundDuration":94866,"Delta":276199094},{"NoteNumber":62,"Velocity":69,"Duration":95123,"SoundDuration":95123,"Delta":276293961},{"NoteNumber":58,"Velocity":68,"Duration":95383,"SoundDuration":95383,"Delta":276389085},{"NoteNumber":56,"Velocity":67,"Duration":95645,"SoundDuration":95645,"Delta":276484469},{"NoteNumber":53,"Velocity":66,"Duration":95906,"SoundDuration":95906,"Delta":276580114},{"NoteNumber":68,"Velocity":75,"Duration":583551,"SoundDuration":583551,"Delta":276676020},{"NoteNumber":62,"Velocity":62,"Duration":583551,"SoundDuration":583551,"Delta":276676020},{"NoteNumber":64,"Velocity":62,"Duration":583551,"SoundDuration":583551,"Delta":276676020},{"NoteNumber":50,"Velocity":65,"Duration":96172,"SoundDuration":96172,"Delta":276676020},{"NoteNumber":46,"Velocity":64,"Duration":96494,"SoundDuration":96494,"Delta":276772192},{"NoteNumber":44,"Velocity":63,"Duration":96758,"SoundDuration":96758,"Delta":276868686},{"NoteNumber":41,"Velocity":62,"Duration":96811,"SoundDuration":96811,"Delta":276965445},{"NoteNumber":38,"Velocity":61,"Duration":96811,"SoundDuration":96811,"Delta":277062257},{"NoteNumber":34,"Velocity":60,"Duration":100502,"SoundDuration":100502,"Delta":277159068},{"NoteNumber":61,"Velocity":65,"Duration":111012,"SoundDuration":111012,"Delta":277259571},{"NoteNumber":69,"Velocity":65,"Duration":111012,"SoundDuration":111012,"Delta":277259571},{"NoteNumber":33,"Velocity":52,"Duration":111012,"SoundDuration":111012,"Delta":277259571},{"NoteNumber":62,"Velocity":66,"Duration":111012,"SoundDuration":111012,"Delta":277354724},{"NoteNumber":35,"Velocity":53,"Duration":111012,"SoundDuration":111012,"Delta":277354724},{"NoteNumber":64,"Velocity":66,"Duration":111012,"SoundDuration":111012,"Delta":277449878},{"NoteNumber":37,"Velocity":54,"Duration":111012,"SoundDuration":111012,"Delta":277449878},{"NoteNumber":66,"Velocity":67,"Duration":110959,"SoundDuration":110959,"Delta":277545031},{"NoteNumber":38,"Velocity":55,"Duration":110959,"SoundDuration":110959,"Delta":277545031},{"NoteNumber":68,"Velocity":68,"Duration":110640,"SoundDuration":110640,"Delta":277640185},{"NoteNumber":40,"Velocity":56,"Duration":110640,"SoundDuration":110640,"Delta":277640185},{"NoteNumber":69,"Velocity":69,"Duration":110640,"SoundDuration":110640,"Delta":277735020},{"NoteNumber":42,"Velocity":57,"Duration":110640,"SoundDuration":110640,"Delta":277735020},{"NoteNumber":71,"Velocity":70,"Duration":110640,"SoundDuration":110640,"Delta":277829854},{"NoteNumber":44,"Velocity":58,"Duration":110640,"SoundDuration":110640,"Delta":277829854},{"NoteNumber":73,"Velocity":71,"Duration":110587,"SoundDuration":110587,"Delta":277924689},{"NoteNumber":45,"Velocity":59,"Duration":110587,"SoundDuration":110587,"Delta":277924689},{"NoteNumber":74,"Velocity":72,"Duration":110271,"SoundDuration":110271,"Delta":278019524},{"NoteNumber":47,"Velocity":60,"Duration":110271,"SoundDuration":110271,"Delta":278019524},{"NoteNumber":76,"Velocity":73,"Duration":110271,"SoundDuration":110271,"Delta":278114042},{"NoteNumber":49,"Velocity":61,"Duration":110271,"SoundDuration":110271,"Delta":278114042},{"NoteNumber":78,"Velocity":74,"Duration":110271,"SoundDuration":110271,"Delta":278208560},{"NoteNumber":50,"Velocity":62,"Duration":110271,"SoundDuration":110271,"Delta":278208560},{"NoteNumber":80,"Velocity":74,"Duration":110166,"SoundDuration":110166,"Delta":278303078},{"NoteNumber":52,"Velocity":63,"Duration":110166,"SoundDuration":110166,"Delta":278303078},{"NoteNumber":81,"Velocity":75,"Duration":109903,"SoundDuration":109903,"Delta":278397543},{"NoteNumber":54,"Velocity":64,"Duration":109903,"SoundDuration":109903,"Delta":278397543},{"NoteNumber":83,"Velocity":76,"Duration":109903,"SoundDuration":109903,"Delta":278491747},{"NoteNumber":56,"Velocity":65,"Duration":109903,"SoundDuration":109903,"Delta":278491747},{"NoteNumber":85,"Velocity":77,"Duration":109643,"SoundDuration":109643,"Delta":278585950},{"NoteNumber":57,"Velocity":66,"Duration":109643,"SoundDuration":109643,"Delta":278585950},{"NoteNumber":86,"Velocity":78,"Duration":109539,"SoundDuration":109539,"Delta":278679945},{"NoteNumber":59,"Velocity":67,"Duration":109539,"SoundDuration":109539,"Delta":278679945},{"NoteNumber":88,"Velocity":79,"Duration":109384,"SoundDuration":109384,"Delta":278773836},{"NoteNumber":61,"Velocity":69,"Duration":109384,"SoundDuration":109384,"Delta":278773836},{"NoteNumber":90,"Velocity":80,"Duration":109177,"SoundDuration":109177,"Delta":278867623},{"NoteNumber":62,"Velocity":70,"Duration":109177,"SoundDuration":109177,"Delta":278867623},{"NoteNumber":92,"Velocity":81,"Duration":109177,"SoundDuration":109177,"Delta":278961203},{"NoteNumber":64,"Velocity":71,"Duration":109177,"SoundDuration":109177,"Delta":278961203},{"NoteNumber":93,"Velocity":81,"Duration":108868,"SoundDuration":108868,"Delta":279054784},{"NoteNumber":66,"Velocity":72,"Duration":108868,"SoundDuration":108868,"Delta":279054784},{"NoteNumber":95,"Velocity":82,"Duration":108817,"SoundDuration":108817,"Delta":279148107},{"NoteNumber":68,"Velocity":73,"Duration":108817,"SoundDuration":108817,"Delta":279148107},{"NoteNumber":97,"Velocity":83,"Duration":108613,"SoundDuration":108613,"Delta":279241379},{"NoteNumber":69,"Velocity":74,"Duration":108613,"SoundDuration":108613,"Delta":279241379},{"NoteNumber":98,"Velocity":84,"Duration":108459,"SoundDuration":108459,"Delta":279334498},{"NoteNumber":71,"Velocity":75,"Duration":108459,"SoundDuration":108459,"Delta":279334498},{"NoteNumber":99,"Velocity":85,"Duration":108358,"SoundDuration":108358,"Delta":279427464},{"NoteNumber":72,"Velocity":76,"Duration":108358,"SoundDuration":108358,"Delta":279427464},{"NoteNumber":100,"Velocity":91,"Duration":92661,"SoundDuration":92661,"Delta":279520378},{"NoteNumber":73,"Velocity":79,"Duration":92661,"SoundDuration":92661,"Delta":279520378},{"NoteNumber":97,"Velocity":82,"Duration":92661,"SoundDuration":92661,"Delta":279613040},{"NoteNumber":76,"Velocity":70,"Duration":92661,"SoundDuration":92661,"Delta":279613040},{"NoteNumber":93,"Velocity":82,"Duration":92661,"SoundDuration":92661,"Delta":279705701},{"NoteNumber":81,"Velocity":68,"Duration":92661,"SoundDuration":92661,"Delta":279705701},{"NoteNumber":88,"Velocity":85,"Duration":92661,"SoundDuration":92661,"Delta":279798362},{"NoteNumber":85,"Velocity":73,"Duration":92661,"SoundDuration":92661,"Delta":279798362},{"NoteNumber":86,"Velocity":81,"Duration":92661,"SoundDuration":92661,"Delta":279891023},{"NoteNumber":83,"Velocity":70,"Duration":92661,"SoundDuration":92661,"Delta":279891023},{"NoteNumber":92,"Velocity":82,"Duration":98457,"SoundDuration":98457,"Delta":279983685},{"NoteNumber":76,"Velocity":70,"Duration":98457,"SoundDuration":98457,"Delta":279983685},{"NoteNumber":93,"Velocity":90,"Duration":92661,"SoundDuration":92661,"Delta":280082142},{"NoteNumber":73,"Velocity":77,"Duration":92661,"SoundDuration":92661,"Delta":280082142},{"NoteNumber":88,"Velocity":85,"Duration":92661,"SoundDuration":92661,"Delta":280174803},{"NoteNumber":69,"Velocity":73,"Duration":92661,"SoundDuration":92661,"Delta":280174803},{"NoteNumber":85,"Velocity":81,"Duration":92661,"SoundDuration":92661,"Delta":280267465},{"NoteNumber":64,"Velocity":71,"Duration":92661,"SoundDuration":92661,"Delta":280267465},{"NoteNumber":81,"Velocity":81,"Duration":92661,"SoundDuration":92661,"Delta":280360126},{"NoteNumber":61,"Velocity":71,"Duration":92661,"SoundDuration":92661,"Delta":280360126},{"NoteNumber":80,"Velocity":77,"Duration":92661,"SoundDuration":92661,"Delta":280452787},{"NoteNumber":64,"Velocity":66,"Duration":92661,"SoundDuration":92661,"Delta":280452787},{"NoteNumber":86,"Velocity":77,"Duration":98457,"SoundDuration":98457,"Delta":280545448},{"NoteNumber":71,"Velocity":66,"Duration":98457,"SoundDuration":98457,"Delta":280545448},{"NoteNumber":88,"Velocity":83,"Duration":92661,"SoundDuration":92661,"Delta":280643906},{"NoteNumber":61,"Velocity":71,"Duration":92661,"SoundDuration":92661,"Delta":280643906},{"NoteNumber":85,"Velocity":76,"Duration":92661,"SoundDuration":92661,"Delta":280736567},{"NoteNumber":64,"Velocity":65,"Duration":92661,"SoundDuration":92661,"Delta":280736567},{"NoteNumber":81,"Velocity":76,"Duration":92661,"SoundDuration":92661,"Delta":280829228},{"NoteNumber":69,"Velocity":65,"Duration":92661,"SoundDuration":92661,"Delta":280829228},{"NoteNumber":76,"Velocity":76,"Duration":92661,"SoundDuration":92661,"Delta":280921890},{"NoteNumber":73,"Velocity":65,"Duration":92661,"SoundDuration":92661,"Delta":280921890},{"NoteNumber":74,"Velocity":72,"Duration":92661,"SoundDuration":92661,"Delta":281014551},{"NoteNumber":71,"Velocity":63,"Duration":92661,"SoundDuration":92661,"Delta":281014551},{"NoteNumber":80,"Velocity":73,"Duration":97777,"SoundDuration":97777,"Delta":281107212},{"NoteNumber":64,"Velocity":63,"Duration":97777,"SoundDuration":97777,"Delta":281107212},{"NoteNumber":81,"Velocity":82,"Duration":92661,"SoundDuration":92661,"Delta":281204989},{"NoteNumber":61,"Velocity":71,"Duration":92661,"SoundDuration":92661,"Delta":281204989},{"NoteNumber":76,"Velocity":76,"Duration":92661,"SoundDuration":92661,"Delta":281297651},{"NoteNumber":57,"Velocity":65,"Duration":92661,"SoundDuration":92661,"Delta":281297651},{"NoteNumber":73,"Velocity":76,"Duration":92661,"SoundDuration":92661,"Delta":281390312},{"NoteNumber":52,"Velocity":65,"Duration":92661,"SoundDuration":92661,"Delta":281390312},{"NoteNumber":69,"Velocity":76,"Duration":92661,"SoundDuration":92661,"Delta":281482973},{"NoteNumber":49,"Velocity":65,"Duration":92661,"SoundDuration":92661,"Delta":281482973},{"NoteNumber":68,"Velocity":72,"Duration":92661,"SoundDuration":92661,"Delta":281575634},{"NoteNumber":52,"Velocity":63,"Duration":92661,"SoundDuration":92661,"Delta":281575634},{"NoteNumber":74,"Velocity":72,"Duration":96444,"SoundDuration":96444,"Delta":281668296},{"NoteNumber":59,"Velocity":63,"Duration":96444,"SoundDuration":96444,"Delta":281668296},{"NoteNumber":76,"Velocity":70,"Duration":92661,"SoundDuration":92661,"Delta":281764740},{"NoteNumber":49,"Velocity":60,"Duration":92661,"SoundDuration":92661,"Delta":281764740},{"NoteNumber":73,"Velocity":63,"Duration":92661,"SoundDuration":92661,"Delta":281857401},{"NoteNumber":52,"Velocity":54,"Duration":92661,"SoundDuration":92661,"Delta":281857401},{"NoteNumber":69,"Velocity":63,"Duration":92661,"SoundDuration":92661,"Delta":281950063},{"NoteNumber":57,"Velocity":53,"Duration":92661,"SoundDuration":92661,"Delta":281950063},{"NoteNumber":64,"Velocity":62,"Duration":92661,"SoundDuration":92661,"Delta":282042724},{"NoteNumber":61,"Velocity":53,"Duration":92661,"SoundDuration":92661,"Delta":282042724},{"NoteNumber":62,"Velocity":57,"Duration":92661,"SoundDuration":92661,"Delta":282135385},{"NoteNumber":59,"Velocity":50,"Duration":92661,"SoundDuration":92661,"Delta":282135385},{"NoteNumber":68,"Velocity":57,"Duration":97440,"SoundDuration":97440,"Delta":282228046},{"NoteNumber":52,"Velocity":49,"Duration":97440,"SoundDuration":97440,"Delta":282228046},{"NoteNumber":69,"Velocity":63,"Duration":92661,"SoundDuration":92661,"Delta":282325487},{"NoteNumber":49,"Velocity":56,"Duration":92661,"SoundDuration":92661,"Delta":282325487},{"NoteNumber":64,"Velocity":57,"Duration":92661,"SoundDuration":92661,"Delta":282418148},{"NoteNumber":45,"Velocity":49,"Duration":92661,"SoundDuration":92661,"Delta":282418148},{"NoteNumber":61,"Velocity":55,"Duration":92661,"SoundDuration":92661,"Delta":282510809},{"NoteNumber":40,"Velocity":46,"Duration":92661,"SoundDuration":92661,"Delta":282510809},{"NoteNumber":57,"Velocity":53,"Duration":92661,"SoundDuration":92661,"Delta":282603471},{"NoteNumber":37,"Velocity":45,"Duration":92661,"SoundDuration":92661,"Delta":282603471},{"NoteNumber":56,"Velocity":48,"Duration":92661,"SoundDuration":92661,"Delta":282696132},{"NoteNumber":40,"Velocity":42,"Duration":92661,"SoundDuration":92661,"Delta":282696132},{"NoteNumber":62,"Velocity":46,"Duration":96953,"SoundDuration":96953,"Delta":282788793},{"NoteNumber":47,"Velocity":41,"Duration":96953,"SoundDuration":96953,"Delta":282788793},{"NoteNumber":64,"Velocity":48,"Duration":109852,"SoundDuration":109852,"Delta":282885747},{"NoteNumber":33,"Velocity":41,"Duration":109852,"SoundDuration":109852,"Delta":282885747},{"NoteNumber":61,"Velocity":51,"Duration":108921,"SoundDuration":108921,"Delta":282979951},{"NoteNumber":40,"Velocity":45,"Duration":108921,"SoundDuration":108921,"Delta":282979951},{"NoteNumber":57,"Velocity":54,"Duration":108005,"SoundDuration":108005,"Delta":283073377},{"NoteNumber":48,"Velocity":48,"Duration":108005,"SoundDuration":108005,"Delta":283073377},{"NoteNumber":52,"Velocity":51,"Duration":107654,"SoundDuration":107654,"Delta":283166039},{"NoteNumber":49,"Velocity":45,"Duration":107654,"SoundDuration":107654,"Delta":283166039},{"NoteNumber":56,"Velocity":48,"Duration":108358,"SoundDuration":108358,"Delta":283258251},{"NoteNumber":47,"Velocity":40,"Duration":108358,"SoundDuration":108358,"Delta":283258251},{"NoteNumber":62,"Velocity":48,"Duration":109285,"SoundDuration":109285,"Delta":283351064},{"NoteNumber":40,"Velocity":40,"Duration":109285,"SoundDuration":109285,"Delta":283351064},{"NoteNumber":64,"Velocity":48,"Duration":110535,"SoundDuration":110535,"Delta":283444490},{"NoteNumber":33,"Velocity":41,"Duration":110535,"SoundDuration":110535,"Delta":283444490},{"NoteNumber":61,"Velocity":51,"Duration":109436,"SoundDuration":109436,"Delta":283539326},{"NoteNumber":40,"Velocity":45,"Duration":109436,"SoundDuration":109436,"Delta":283539326},{"NoteNumber":57,"Velocity":54,"Duration":108359,"SoundDuration":108359,"Delta":283633217},{"NoteNumber":48,"Velocity":48,"Duration":108359,"SoundDuration":108359,"Delta":283633217},{"NoteNumber":52,"Velocity":51,"Duration":107653,"SoundDuration":107653,"Delta":283726183},{"NoteNumber":49,"Velocity":45,"Duration":107653,"SoundDuration":107653,"Delta":283726183},{"NoteNumber":56,"Velocity":48,"Duration":108359,"SoundDuration":108359,"Delta":283818444},{"NoteNumber":47,"Velocity":40,"Duration":108359,"SoundDuration":108359,"Delta":283818444},{"NoteNumber":62,"Velocity":47,"Duration":109436,"SoundDuration":109436,"Delta":283911258},{"NoteNumber":40,"Velocity":41,"Duration":109436,"SoundDuration":109436,"Delta":283911258},{"NoteNumber":64,"Velocity":36,"Duration":110061,"SoundDuration":110061,"Delta":284004994},{"NoteNumber":33,"Velocity":31,"Duration":110061,"SoundDuration":110061,"Delta":284004994},{"NoteNumber":61,"Velocity":38,"Duration":109436,"SoundDuration":109436,"Delta":284099355},{"NoteNumber":40,"Velocity":33,"Duration":109436,"SoundDuration":109436,"Delta":284099355},{"NoteNumber":57,"Velocity":40,"Duration":108715,"SoundDuration":108715,"Delta":284193194},{"NoteNumber":48,"Velocity":36,"Duration":108715,"SoundDuration":108715,"Delta":284193194},{"NoteNumber":52,"Velocity":38,"Duration":108105,"SoundDuration":108105,"Delta":284286416},{"NoteNumber":49,"Velocity":34,"Duration":108105,"SoundDuration":108105,"Delta":284286416},{"NoteNumber":56,"Velocity":35,"Duration":108921,"SoundDuration":108921,"Delta":284379027},{"NoteNumber":47,"Velocity":29,"Duration":108921,"SoundDuration":108921,"Delta":284379027},{"NoteNumber":62,"Velocity":35,"Duration":110009,"SoundDuration":110009,"Delta":284472299},{"NoteNumber":40,"Velocity":30,"Duration":110009,"SoundDuration":110009,"Delta":284472299},{"NoteNumber":64,"Velocity":36,"Duration":110167,"SoundDuration":110167,"Delta":284566503},{"NoteNumber":33,"Velocity":31,"Duration":110167,"SoundDuration":110167,"Delta":284566503},{"NoteNumber":61,"Velocity":38,"Duration":108972,"SoundDuration":108972,"Delta":284661022},{"NoteNumber":40,"Velocity":33,"Duration":108972,"SoundDuration":108972,"Delta":284661022},{"NoteNumber":57,"Velocity":40,"Duration":107805,"SoundDuration":107805,"Delta":284754501},{"NoteNumber":48,"Velocity":36,"Duration":107805,"SoundDuration":107805,"Delta":284754501},{"NoteNumber":52,"Velocity":38,"Duration":107556,"SoundDuration":107556,"Delta":284847012},{"NoteNumber":49,"Velocity":34,"Duration":107556,"SoundDuration":107556,"Delta":284847012},{"NoteNumber":56,"Velocity":35,"Duration":108870,"SoundDuration":108870,"Delta":284939125},{"NoteNumber":47,"Velocity":27,"Duration":108870,"SoundDuration":108870,"Delta":284939125},{"NoteNumber":62,"Velocity":35,"Duration":111136,"SoundDuration":111136,"Delta":285032347},{"NoteNumber":40,"Velocity":27,"Duration":111136,"SoundDuration":111136,"Delta":285032347},{"NoteNumber":57,"Velocity":36,"Duration":117056,"SoundDuration":117056,"Delta":285126761},{"NoteNumber":64,"Velocity":36,"Duration":117056,"SoundDuration":117056,"Delta":285126761},{"NoteNumber":33,"Velocity":31,"Duration":200669,"SoundDuration":200669,"Delta":285126761},{"NoteNumber":58,"Velocity":36,"Duration":117001,"SoundDuration":117001,"Delta":285227096},{"NoteNumber":59,"Velocity":36,"Duration":116224,"SoundDuration":116224,"Delta":285327430},{"NoteNumber":60,"Velocity":35,"Duration":116896,"SoundDuration":116896,"Delta":285427099},{"NoteNumber":61,"Velocity":35,"Duration":116229,"SoundDuration":116229,"Delta":285527160},{"NoteNumber":62,"Velocity":35,"Duration":116337,"SoundDuration":116337,"Delta":285626889},{"NoteNumber":63,"Velocity":35,"Duration":117395,"SoundDuration":117395,"Delta":285726448},{"NoteNumber":64,"Velocity":34,"Duration":116837,"SoundDuration":116837,"Delta":285827232},{"NoteNumber":65,"Velocity":34,"Duration":118991,"SoundDuration":118991,"Delta":285927178},{"NoteNumber":66,"Velocity":34,"Duration":117284,"SoundDuration":117284,"Delta":286029278},{"NoteNumber":67,"Velocity":33,"Duration":116114,"SoundDuration":116114,"Delta":286129951},{"NoteNumber":68,"Velocity":33,"Duration":116446,"SoundDuration":116446,"Delta":286229454},{"NoteNumber":69,"Velocity":33,"Duration":117449,"SoundDuration":117449,"Delta":286329122},{"NoteNumber":68,"Velocity":29,"Duration":117449,"SoundDuration":117449,"Delta":286429793},{"NoteNumber":69,"Velocity":33,"Duration":117675,"SoundDuration":117675,"Delta":286530464},{"NoteNumber":68,"Velocity":30,"Duration":117844,"SoundDuration":117844,"Delta":286631305},{"NoteNumber":69,"Velocity":33,"Duration":117901,"SoundDuration":117901,"Delta":286732315},{"NoteNumber":68,"Velocity":29,"Duration":118243,"SoundDuration":118243,"Delta":286833325},{"NoteNumber":69,"Velocity":33,"Duration":118243,"SoundDuration":118243,"Delta":286934676},{"NoteNumber":68,"Velocity":30,"Duration":118529,"SoundDuration":118529,"Delta":287036027},{"NoteNumber":69,"Velocity":33,"Duration":118644,"SoundDuration":118644,"Delta":287137608},{"NoteNumber":68,"Velocity":30,"Duration":118759,"SoundDuration":118759,"Delta":287239303},{"NoteNumber":69,"Velocity":33,"Duration":119047,"SoundDuration":119047,"Delta":287341055},{"NoteNumber":68,"Velocity":29,"Duration":119105,"SoundDuration":119105,"Delta":287443096},{"NoteNumber":69,"Velocity":33,"Duration":119981,"SoundDuration":119981,"Delta":287545137},{"NoteNumber":68,"Velocity":29,"Duration":121469,"SoundDuration":121469,"Delta":287647877},{"NoteNumber":69,"Velocity":33,"Duration":122931,"SoundDuration":122931,"Delta":287751865},{"NoteNumber":68,"Velocity":30,"Duration":124494,"SoundDuration":124494,"Delta":287857129},{"NoteNumber":69,"Velocity":33,"Duration":126030,"SoundDuration":126030,"Delta":287963702},{"NoteNumber":68,"Velocity":30,"Duration":54479,"SoundDuration":54479,"Delta":288071616},{"NoteNumber":70,"Velocity":39,"Duration":54811,"SoundDuration":54811,"Delta":288126096},{"NoteNumber":69,"Velocity":41,"Duration":110294,"SoundDuration":110294,"Delta":288180907},{"NoteNumber":48,"Velocity":34,"Duration":110294,"SoundDuration":110294,"Delta":288180907},{"NoteNumber":64,"Velocity":34,"Duration":110093,"SoundDuration":110093,"Delta":288291201},{"NoteNumber":60,"Velocity":29,"Duration":110093,"SoundDuration":110093,"Delta":288291201},{"NoteNumber":68,"Velocity":42,"Duration":108500,"SoundDuration":108500,"Delta":288401295},{"NoteNumber":54,"Velocity":34,"Duration":108500,"SoundDuration":108500,"Delta":288401295},{"NoteNumber":64,"Velocity":34,"Duration":107335,"SoundDuration":107335,"Delta":288509795},{"NoteNumber":60,"Velocity":30,"Duration":107335,"SoundDuration":107335,"Delta":288509795},{"NoteNumber":69,"Velocity":42,"Duration":106446,"SoundDuration":106446,"Delta":288617131},{"NoteNumber":54,"Velocity":34,"Duration":106446,"SoundDuration":106446,"Delta":288617131},{"NoteNumber":64,"Velocity":36,"Duration":61475,"SoundDuration":61475,"Delta":288723577},{"NoteNumber":60,"Velocity":30,"Duration":114478,"SoundDuration":114478,"Delta":288723577},{"NoteNumber":72,"Velocity":38,"Duration":53003,"SoundDuration":53003,"Delta":288785053},{"NoteNumber":70,"Velocity":44,"Duration":104529,"SoundDuration":104529,"Delta":288838056},{"NoteNumber":48,"Velocity":38,"Duration":104529,"SoundDuration":104529,"Delta":288838056},{"NoteNumber":64,"Velocity":38,"Duration":104529,"SoundDuration":104529,"Delta":288942586},{"NoteNumber":60,"Velocity":31,"Duration":104529,"SoundDuration":104529,"Delta":288942586},{"NoteNumber":69,"Velocity":47,"Duration":103448,"SoundDuration":103448,"Delta":289047115},{"NoteNumber":55,"Velocity":40,"Duration":103448,"SoundDuration":103448,"Delta":289047115},{"NoteNumber":64,"Velocity":38,"Duration":103448,"SoundDuration":103448,"Delta":289150563},{"NoteNumber":60,"Velocity":32,"Duration":103448,"SoundDuration":103448,"Delta":289150563},{"NoteNumber":70,"Velocity":48,"Duration":104529,"SoundDuration":104529,"Delta":289254012},{"NoteNumber":55,"Velocity":42,"Duration":104529,"SoundDuration":104529,"Delta":289254012},{"NoteNumber":64,"Velocity":40,"Duration":104529,"SoundDuration":104529,"Delta":289358541},{"NoteNumber":60,"Velocity":31,"Duration":104529,"SoundDuration":104529,"Delta":289358541},{"NoteNumber":71,"Velocity":50,"Duration":106382,"SoundDuration":106382,"Delta":289463071},{"NoteNumber":48,"Velocity":43,"Duration":106382,"SoundDuration":106382,"Delta":289463071},{"NoteNumber":65,"Velocity":41,"Duration":118110,"SoundDuration":118110,"Delta":289569454},{"NoteNumber":62,"Velocity":32,"Duration":118110,"SoundDuration":118110,"Delta":289569454},{"NoteNumber":77,"Velocity":51,"Duration":1266399,"SoundDuration":1266399,"Delta":289687564},{"NoteNumber":56,"Velocity":48,"Duration":104894,"SoundDuration":104894,"Delta":289687564},{"NoteNumber":65,"Velocity":41,"Duration":104894,"SoundDuration":104894,"Delta":289792459},{"NoteNumber":62,"Velocity":39,"Duration":104894,"SoundDuration":104894,"Delta":289792459},{"NoteNumber":71,"Velocity":47,"Duration":104894,"SoundDuration":104894,"Delta":289897354},{"NoteNumber":56,"Velocity":45,"Duration":104894,"SoundDuration":104894,"Delta":289897354},{"NoteNumber":65,"Velocity":39,"Duration":61728,"SoundDuration":61728,"Delta":290002249},{"NoteNumber":62,"Velocity":33,"Duration":114731,"SoundDuration":114731,"Delta":290002249},{"NoteNumber":74,"Velocity":41,"Duration":53003,"SoundDuration":53003,"Delta":290063977},{"NoteNumber":72,"Velocity":50,"Duration":104894,"SoundDuration":104894,"Delta":290116981},{"NoteNumber":48,"Velocity":44,"Duration":104894,"SoundDuration":104894,"Delta":290116981},{"NoteNumber":65,"Velocity":42,"Duration":104894,"SoundDuration":104894,"Delta":290221876},{"NoteNumber":60,"Velocity":34,"Duration":104894,"SoundDuration":104894,"Delta":290221876},{"NoteNumber":71,"Velocity":49,"Duration":103806,"SoundDuration":103806,"Delta":290326771},{"NoteNumber":57,"Velocity":46,"Duration":103806,"SoundDuration":103806,"Delta":290326771},{"NoteNumber":65,"Velocity":41,"Duration":103806,"SoundDuration":103806,"Delta":290430577},{"NoteNumber":60,"Velocity":35,"Duration":103806,"SoundDuration":103806,"Delta":290430577},{"NoteNumber":72,"Velocity":49,"Duration":104894,"SoundDuration":104894,"Delta":290534383},{"NoteNumber":55,"Velocity":47,"Duration":104894,"SoundDuration":104894,"Delta":290534383},{"NoteNumber":65,"Velocity":44,"Duration":104894,"SoundDuration":104894,"Delta":290639278},{"NoteNumber":60,"Velocity":36,"Duration":104894,"SoundDuration":104894,"Delta":290639278},{"NoteNumber":72,"Velocity":51,"Duration":104894,"SoundDuration":104894,"Delta":290744173},{"NoteNumber":48,"Velocity":48,"Duration":104894,"SoundDuration":104894,"Delta":290744173},{"NoteNumber":69,"Velocity":44,"Duration":104894,"SoundDuration":104894,"Delta":290849068},{"NoteNumber":62,"Velocity":37,"Duration":104894,"SoundDuration":104894,"Delta":290849068},{"NoteNumber":81,"Velocity":56,"Duration":659156,"SoundDuration":659156,"Delta":290953963},{"NoteNumber":75,"Velocity":47,"Duration":107527,"SoundDuration":107527,"Delta":290953963},{"NoteNumber":54,"Velocity":49,"Duration":107527,"SoundDuration":107527,"Delta":290953963},{"NoteNumber":65,"Velocity":47,"Duration":117646,"SoundDuration":117646,"Delta":291061490},{"NoteNumber":62,"Velocity":39,"Duration":117646,"SoundDuration":117646,"Delta":291061490},{"NoteNumber":74,"Velocity":52,"Duration":104894,"SoundDuration":104894,"Delta":291179137},{"NoteNumber":57,"Velocity":48,"Duration":104894,"SoundDuration":104894,"Delta":291179137},{"NoteNumber":65,"Velocity":45,"Duration":104894,"SoundDuration":104894,"Delta":291284032},{"NoteNumber":62,"Velocity":38,"Duration":104894,"SoundDuration":104894,"Delta":291284032},{"NoteNumber":74,"Velocity":53,"Duration":107913,"SoundDuration":107913,"Delta":291388927},{"NoteNumber":48,"Velocity":49,"Duration":107913,"SoundDuration":107913,"Delta":291388927},{"NoteNumber":67,"Velocity":45,"Duration":116279,"SoundDuration":116279,"Delta":291496841},{"NoteNumber":62,"Velocity":40,"Duration":116279,"SoundDuration":116279,"Delta":291496841},{"NoteNumber":79,"Velocity":58,"Duration":640743,"SoundDuration":640743,"Delta":291613120},{"NoteNumber":70,"Velocity":53,"Duration":104894,"SoundDuration":104894,"Delta":291613120},{"NoteNumber":55,"Velocity":47,"Duration":104894,"SoundDuration":104894,"Delta":291613120},{"NoteNumber":67,"Velocity":45,"Duration":104894,"SoundDuration":104894,"Delta":291718015},{"NoteNumber":62,"Velocity":40,"Duration":104894,"SoundDuration":104894,"Delta":291718015},{"NoteNumber":70,"Velocity":51,"Duration":104894,"SoundDuration":104894,"Delta":291822910},{"NoteNumber":53,"Velocity":51,"Duration":104894,"SoundDuration":104894,"Delta":291822910},{"NoteNumber":67,"Velocity":45,"Duration":104894,"SoundDuration":104894,"Delta":291927805},{"NoteNumber":62,"Velocity":38,"Duration":104894,"SoundDuration":104894,"Delta":291927805},{"NoteNumber":70,"Velocity":51,"Duration":107527,"SoundDuration":107527,"Delta":292032700},{"NoteNumber":48,"Velocity":49,"Duration":107527,"SoundDuration":107527,"Delta":292032700},{"NoteNumber":67,"Velocity":45,"Duration":113636,"SoundDuration":113636,"Delta":292140227},{"NoteNumber":60,"Velocity":38,"Duration":113636,"SoundDuration":113636,"Delta":292140227},{"NoteNumber":79,"Velocity":58,"Duration":641483,"SoundDuration":641483,"Delta":292253863},{"NoteNumber":73,"Velocity":42,"Duration":104894,"SoundDuration":104894,"Delta":292253863},{"NoteNumber":52,"Velocity":47,"Duration":104894,"SoundDuration":104894,"Delta":292253863},{"NoteNumber":67,"Velocity":45,"Duration":104894,"SoundDuration":104894,"Delta":292358758},{"NoteNumber":60,"Velocity":38,"Duration":104894,"SoundDuration":104894,"Delta":292358758},{"NoteNumber":72,"Velocity":51,"Duration":104894,"SoundDuration":104894,"Delta":292463653},{"NoteNumber":55,"Velocity":47,"Duration":104894,"SoundDuration":104894,"Delta":292463653},{"NoteNumber":67,"Velocity":45,"Duration":104894,"SoundDuration":104894,"Delta":292568548},{"NoteNumber":60,"Velocity":38,"Duration":104894,"SoundDuration":104894,"Delta":292568548},{"NoteNumber":72,"Velocity":51,"Duration":108695,"SoundDuration":108695,"Delta":292673443},{"NoteNumber":48,"Velocity":48,"Duration":108695,"SoundDuration":108695,"Delta":292673443},{"NoteNumber":65,"Velocity":45,"Duration":113207,"SoundDuration":113207,"Delta":292782139},{"NoteNumber":60,"Velocity":38,"Duration":113207,"SoundDuration":113207,"Delta":292782139},{"NoteNumber":77,"Velocity":58,"Duration":427729,"SoundDuration":427729,"Delta":292895346},{"NoteNumber":69,"Velocity":45,"Duration":105263,"SoundDuration":105263,"Delta":292895346},{"NoteNumber":53,"Velocity":47,"Duration":105263,"SoundDuration":105263,"Delta":292895346},{"NoteNumber":65,"Velocity":45,"Duration":105263,"SoundDuration":105263,"Delta":293000610},{"NoteNumber":60,"Velocity":37,"Duration":105263,"SoundDuration":105263,"Delta":293000610},{"NoteNumber":69,"Velocity":45,"Duration":105263,"SoundDuration":105263,"Delta":293105873},{"NoteNumber":48,"Velocity":46,"Duration":105263,"SoundDuration":105263,"Delta":293105873},{"NoteNumber":65,"Velocity":45,"Duration":111940,"SoundDuration":111940,"Delta":293211136},{"NoteNumber":60,"Velocity":37,"Duration":111940,"SoundDuration":111940,"Delta":293211136},{"NoteNumber":64,"Velocity":55,"Duration":418529,"SoundDuration":418529,"Delta":293323076},{"NoteNumber":52,"Velocity":46,"Duration":418529,"SoundDuration":418529,"Delta":293323076},{"NoteNumber":60,"Velocity":42,"Duration":102739,"SoundDuration":102739,"Delta":293428340},{"NoteNumber":57,"Velocity":36,"Duration":102739,"SoundDuration":102739,"Delta":293428340},{"NoteNumber":72,"Velocity":43,"Duration":105263,"SoundDuration":105263,"Delta":293531079},{"NoteNumber":45,"Velocity":37,"Duration":105263,"SoundDuration":105263,"Delta":293531079},{"NoteNumber":60,"Velocity":43,"Duration":105263,"SoundDuration":105263,"Delta":293636343},{"NoteNumber":57,"Velocity":37,"Duration":105263,"SoundDuration":105263,"Delta":293636343},{"NoteNumber":65,"Velocity":51,"Duration":215557,"SoundDuration":215557,"Delta":293741606},{"NoteNumber":53,"Velocity":43,"Duration":215557,"SoundDuration":215557,"Delta":293741606},{"NoteNumber":60,"Velocity":44,"Duration":110294,"SoundDuration":110294,"Delta":293846869},{"NoteNumber":57,"Velocity":38,"Duration":110294,"SoundDuration":110294,"Delta":293846869},{"NoteNumber":66,"Velocity":57,"Duration":419238,"SoundDuration":419238,"Delta":293957163},{"NoteNumber":54,"Velocity":48,"Duration":419238,"SoundDuration":419238,"Delta":293957163},{"NoteNumber":62,"Velocity":45,"Duration":105263,"SoundDuration":105263,"Delta":294062426},{"NoteNumber":58,"Velocity":38,"Duration":105263,"SoundDuration":105263,"Delta":294062426},{"NoteNumber":74,"Velocity":45,"Duration":103448,"SoundDuration":103448,"Delta":294167690},{"NoteNumber":46,"Velocity":39,"Duration":103448,"SoundDuration":103448,"Delta":294167690},{"NoteNumber":62,"Velocity":45,"Duration":105263,"SoundDuration":105263,"Delta":294271138},{"NoteNumber":58,"Velocity":39,"Duration":105263,"SoundDuration":105263,"Delta":294271138},{"NoteNumber":67,"Velocity":54,"Duration":215964,"SoundDuration":215964,"Delta":294376401},{"NoteNumber":55,"Velocity":45,"Duration":215964,"SoundDuration":215964,"Delta":294376401},{"NoteNumber":62,"Velocity":45,"Duration":110701,"SoundDuration":110701,"Delta":294481664},{"NoteNumber":58,"Velocity":38,"Duration":110701,"SoundDuration":110701,"Delta":294481664},{"NoteNumber":68,"Velocity":59,"Duration":416681,"SoundDuration":416681,"Delta":294592365},{"NoteNumber":56,"Velocity":50,"Duration":416681,"SoundDuration":416681,"Delta":294592365},{"NoteNumber":64,"Velocity":46,"Duration":104529,"SoundDuration":104529,"Delta":294695458},{"NoteNumber":60,"Velocity":37,"Duration":104529,"SoundDuration":104529,"Delta":294695458},{"NoteNumber":76,"Velocity":47,"Duration":104529,"SoundDuration":104529,"Delta":294799988},{"NoteNumber":48,"Velocity":38,"Duration":104529,"SoundDuration":104529,"Delta":294799988},{"NoteNumber":64,"Velocity":47,"Duration":104529,"SoundDuration":104529,"Delta":294904517},{"NoteNumber":60,"Velocity":38,"Duration":104529,"SoundDuration":104529,"Delta":294904517},{"NoteNumber":69,"Velocity":56,"Duration":214823,"SoundDuration":214823,"Delta":295009047},{"NoteNumber":57,"Velocity":47,"Duration":214823,"SoundDuration":214823,"Delta":295009047},{"NoteNumber":64,"Velocity":48,"Duration":110294,"SoundDuration":110294,"Delta":295113576},{"NoteNumber":60,"Velocity":40,"Duration":110294,"SoundDuration":110294,"Delta":295113576},{"NoteNumber":69,"Velocity":62,"Duration":415629,"SoundDuration":415629,"Delta":295223870},{"NoteNumber":57,"Velocity":52,"Duration":415629,"SoundDuration":415629,"Delta":295223870},{"NoteNumber":65,"Velocity":48,"Duration":102040,"SoundDuration":102040,"Delta":295328400},{"NoteNumber":62,"Velocity":41,"Duration":102040,"SoundDuration":102040,"Delta":295328400},{"NoteNumber":77,"Velocity":49,"Duration":104529,"SoundDuration":104529,"Delta":295430440},{"NoteNumber":50,"Velocity":41,"Duration":104529,"SoundDuration":104529,"Delta":295430440},{"NoteNumber":65,"Velocity":49,"Duration":104529,"SoundDuration":104529,"Delta":295534970},{"NoteNumber":62,"Velocity":41,"Duration":104529,"SoundDuration":104529,"Delta":295534970},{"NoteNumber":70,"Velocity":58,"Duration":212832,"SoundDuration":212832,"Delta":295639499},{"NoteNumber":58,"Velocity":49,"Duration":212832,"SoundDuration":212832,"Delta":295639499},{"NoteNumber":65,"Velocity":49,"Duration":108303,"SoundDuration":108303,"Delta":295744029},{"NoteNumber":62,"Velocity":42,"Duration":108303,"SoundDuration":108303,"Delta":295744029},{"NoteNumber":71,"Velocity":64,"Duration":415629,"SoundDuration":415629,"Delta":295852332},{"NoteNumber":59,"Velocity":54,"Duration":415629,"SoundDuration":415629,"Delta":295852332},{"NoteNumber":67,"Velocity":50,"Duration":102040,"SoundDuration":102040,"Delta":295956862},{"NoteNumber":64,"Velocity":43,"Duration":102040,"SoundDuration":102040,"Delta":295956862},{"NoteNumber":79,"Velocity":50,"Duration":421891,"SoundDuration":421891,"Delta":296058902},{"NoteNumber":52,"Velocity":44,"Duration":104529,"SoundDuration":104529,"Delta":296058902},{"NoteNumber":67,"Velocity":51,"Duration":104529,"SoundDuration":104529,"Delta":296163432},{"NoteNumber":64,"Velocity":44,"Duration":104529,"SoundDuration":104529,"Delta":296163432},{"NoteNumber":72,"Velocity":60,"Duration":212832,"SoundDuration":212832,"Delta":296267961},{"NoteNumber":60,"Velocity":51,"Duration":212832,"SoundDuration":212832,"Delta":296267961},{"NoteNumber":67,"Velocity":49,"Duration":108303,"SoundDuration":108303,"Delta":296372491},{"NoteNumber":64,"Velocity":42,"Duration":108303,"SoundDuration":108303,"Delta":296372491},{"NoteNumber":81,"Velocity":67,"Duration":414180,"SoundDuration":414180,"Delta":296480794},{"NoteNumber":53,"Velocity":55,"Duration":414180,"SoundDuration":414180,"Delta":296480794},{"NoteNumber":69,"Velocity":57,"Duration":104166,"SoundDuration":104166,"Delta":296584961},{"NoteNumber":65,"Velocity":45,"Duration":104166,"SoundDuration":104166,"Delta":296584961},{"NoteNumber":72,"Velocity":57,"Duration":102040,"SoundDuration":102040,"Delta":296689128},{"NoteNumber":60,"Velocity":45,"Duration":102040,"SoundDuration":102040,"Delta":296689128},{"NoteNumber":69,"Velocity":57,"Duration":103806,"SoundDuration":103806,"Delta":296791168},{"NoteNumber":65,"Velocity":46,"Duration":103806,"SoundDuration":103806,"Delta":296791168},{"NoteNumber":71,"Velocity":53,"Duration":212501,"SoundDuration":212501,"Delta":296894975},{"NoteNumber":62,"Velocity":40,"Duration":212501,"SoundDuration":212501,"Delta":296894975},{"NoteNumber":68,"Velocity":46,"Duration":108695,"SoundDuration":108695,"Delta":296998781},{"NoteNumber":65,"Velocity":37,"Duration":108695,"SoundDuration":108695,"Delta":296998781},{"NoteNumber":70,"Velocity":53,"Duration":208698,"SoundDuration":208698,"Delta":297107477},{"NoteNumber":61,"Velocity":43,"Duration":208698,"SoundDuration":208698,"Delta":297107477},{"NoteNumber":67,"Velocity":46,"Duration":104712,"SoundDuration":104712,"Delta":297211463},{"NoteNumber":64,"Velocity":31,"Duration":104712,"SoundDuration":104712,"Delta":297211463},{"NoteNumber":76,"Velocity":53,"Duration":211706,"SoundDuration":211706,"Delta":297316175},{"NoteNumber":60,"Velocity":43,"Duration":211706,"SoundDuration":211706,"Delta":297316175},{"NoteNumber":67,"Velocity":45,"Duration":106258,"SoundDuration":106258,"Delta":297421624},{"NoteNumber":64,"Velocity":32,"Duration":106258,"SoundDuration":106258,"Delta":297421624},{"NoteNumber":79,"Velocity":53,"Duration":213523,"SoundDuration":213523,"Delta":297527882},{"NoteNumber":58,"Velocity":42,"Duration":213523,"SoundDuration":213523,"Delta":297527882},{"NoteNumber":67,"Velocity":46,"Duration":106761,"SoundDuration":106761,"Delta":297634643},{"NoteNumber":64,"Velocity":31,"Duration":106761,"SoundDuration":106761,"Delta":297634643},{"NoteNumber":81,"Velocity":53,"Duration":427045,"SoundDuration":427045,"Delta":297741405},{"NoteNumber":53,"Velocity":43,"Duration":106761,"SoundDuration":106761,"Delta":297741405},{"NoteNumber":57,"Velocity":43,"Duration":427045,"SoundDuration":427045,"Delta":297741405},{"NoteNumber":69,"Velocity":45,"Duration":106761,"SoundDuration":106761,"Delta":297848166},{"NoteNumber":65,"Velocity":30,"Duration":106761,"SoundDuration":106761,"Delta":297848166},{"NoteNumber":72,"Velocity":48,"Duration":106761,"SoundDuration":106761,"Delta":297954928},{"NoteNumber":60,"Velocity":33,"Duration":106761,"SoundDuration":106761,"Delta":297954928},{"NoteNumber":69,"Velocity":44,"Duration":106761,"SoundDuration":106761,"Delta":298061689},{"NoteNumber":65,"Velocity":29,"Duration":106761,"SoundDuration":106761,"Delta":298061689},{"NoteNumber":71,"Velocity":46,"Duration":218666,"SoundDuration":218666,"Delta":298168451},{"NoteNumber":62,"Velocity":32,"Duration":218666,"SoundDuration":218666,"Delta":298168451},{"NoteNumber":68,"Velocity":36,"Duration":111524,"SoundDuration":111524,"Delta":298275594},{"NoteNumber":65,"Velocity":29,"Duration":111524,"SoundDuration":111524,"Delta":298275594},{"NoteNumber":70,"Velocity":42,"Duration":208698,"SoundDuration":208698,"Delta":298387118},{"NoteNumber":61,"Velocity":34,"Duration":208698,"SoundDuration":208698,"Delta":298387118},{"NoteNumber":67,"Velocity":37,"Duration":104712,"SoundDuration":104712,"Delta":298491104},{"NoteNumber":64,"Velocity":25,"Duration":104712,"SoundDuration":104712,"Delta":298491104},{"NoteNumber":76,"Velocity":42,"Duration":211706,"SoundDuration":211706,"Delta":298595817},{"NoteNumber":60,"Velocity":34,"Duration":211706,"SoundDuration":211706,"Delta":298595817},{"NoteNumber":67,"Velocity":36,"Duration":106258,"SoundDuration":106258,"Delta":298701265},{"NoteNumber":64,"Velocity":25,"Duration":106258,"SoundDuration":106258,"Delta":298701265},{"NoteNumber":79,"Velocity":43,"Duration":213523,"SoundDuration":213523,"Delta":298807523},{"NoteNumber":58,"Velocity":34,"Duration":213523,"SoundDuration":213523,"Delta":298807523},{"NoteNumber":67,"Velocity":37,"Duration":106761,"SoundDuration":106761,"Delta":298914285},{"NoteNumber":64,"Velocity":25,"Duration":106761,"SoundDuration":106761,"Delta":298914285},{"NoteNumber":81,"Velocity":43,"Duration":427045,"SoundDuration":427045,"Delta":299021046},{"NoteNumber":53,"Velocity":34,"Duration":106761,"SoundDuration":106761,"Delta":299021046},{"NoteNumber":57,"Velocity":34,"Duration":213522,"SoundDuration":213522,"Delta":299021046},{"NoteNumber":69,"Velocity":37,"Duration":106761,"SoundDuration":106761,"Delta":299127808},{"NoteNumber":65,"Velocity":26,"Duration":106761,"SoundDuration":106761,"Delta":299127808},{"NoteNumber":68,"Velocity":41,"Duration":106761,"SoundDuration":106761,"Delta":299234569},{"NoteNumber":64,"Velocity":26,"Duration":106761,"SoundDuration":106761,"Delta":299234569},{"NoteNumber":69,"Velocity":36,"Duration":106761,"SoundDuration":106761,"Delta":299341331},{"NoteNumber":65,"Velocity":26,"Duration":106761,"SoundDuration":106761,"Delta":299341331},{"NoteNumber":81,"Velocity":47,"Duration":213523,"SoundDuration":213523,"Delta":299448092},{"NoteNumber":53,"Velocity":39,"Duration":213523,"SoundDuration":213523,"Delta":299448092},{"NoteNumber":69,"Velocity":37,"Duration":106761,"SoundDuration":106761,"Delta":299554854},{"NoteNumber":65,"Velocity":27,"Duration":106761,"SoundDuration":106761,"Delta":299554854},{"NoteNumber":77,"Velocity":50,"Duration":209059,"SoundDuration":209059,"Delta":299661615},{"NoteNumber":57,"Velocity":45,"Duration":209059,"SoundDuration":209059,"Delta":299661615},{"NoteNumber":69,"Velocity":38,"Duration":104529,"SoundDuration":104529,"Delta":299766145},{"NoteNumber":65,"Velocity":27,"Duration":104529,"SoundDuration":104529,"Delta":299766145},{"NoteNumber":72,"Velocity":47,"Duration":212765,"SoundDuration":212765,"Delta":299870674},{"NoteNumber":60,"Velocity":38,"Duration":212765,"SoundDuration":212765,"Delta":299870674},{"NoteNumber":69,"Velocity":38,"Duration":106382,"SoundDuration":106382,"Delta":299977057},{"NoteNumber":65,"Velocity":27,"Duration":106382,"SoundDuration":106382,"Delta":299977057},{"NoteNumber":81,"Velocity":47,"Duration":212765,"SoundDuration":212765,"Delta":300083440},{"NoteNumber":48,"Velocity":39,"Duration":212765,"SoundDuration":212765,"Delta":300083440},{"NoteNumber":69,"Velocity":38,"Duration":106382,"SoundDuration":106382,"Delta":300189823},{"NoteNumber":65,"Velocity":27,"Duration":106382,"SoundDuration":106382,"Delta":300189823},{"NoteNumber":76,"Velocity":52,"Duration":209059,"SoundDuration":209059,"Delta":300296206},{"NoteNumber":57,"Velocity":46,"Duration":209059,"SoundDuration":209059,"Delta":300296206},{"NoteNumber":69,"Velocity":38,"Duration":104529,"SoundDuration":104529,"Delta":300400736},{"NoteNumber":64,"Velocity":28,"Duration":104529,"SoundDuration":104529,"Delta":300400736},{"NoteNumber":72,"Velocity":48,"Duration":212765,"SoundDuration":212765,"Delta":300505265},{"NoteNumber":60,"Velocity":40,"Duration":212765,"SoundDuration":212765,"Delta":300505265},{"NoteNumber":69,"Velocity":38,"Duration":106382,"SoundDuration":106382,"Delta":300611648},{"NoteNumber":64,"Velocity":28,"Duration":106382,"SoundDuration":106382,"Delta":300611648},{"NoteNumber":81,"Velocity":49,"Duration":212765,"SoundDuration":212765,"Delta":300718031},{"NoteNumber":51,"Velocity":42,"Duration":212765,"SoundDuration":212765,"Delta":300718031},{"NoteNumber":69,"Velocity":40,"Duration":106382,"SoundDuration":106382,"Delta":300824414},{"NoteNumber":63,"Velocity":29,"Duration":106382,"SoundDuration":106382,"Delta":300824414},{"NoteNumber":77,"Velocity":54,"Duration":208041,"SoundDuration":208041,"Delta":300930797},{"NoteNumber":57,"Velocity":49,"Duration":208041,"SoundDuration":208041,"Delta":300930797},{"NoteNumber":69,"Velocity":41,"Duration":103806,"SoundDuration":103806,"Delta":301035033},{"NoteNumber":63,"Velocity":29,"Duration":103806,"SoundDuration":103806,"Delta":301035033},{"NoteNumber":72,"Velocity":53,"Duration":212014,"SoundDuration":212014,"Delta":301138839},{"NoteNumber":60,"Velocity":44,"Duration":212014,"SoundDuration":212014,"Delta":301138839},{"NoteNumber":69,"Velocity":42,"Duration":106007,"SoundDuration":106007,"Delta":301244846},{"NoteNumber":63,"Velocity":31,"Duration":106007,"SoundDuration":106007,"Delta":301244846},{"NoteNumber":81,"Velocity":60,"Duration":209059,"SoundDuration":209059,"Delta":301350853},{"NoteNumber":50,"Velocity":55,"Duration":209059,"SoundDuration":209059,"Delta":301350853},{"NoteNumber":69,"Velocity":44,"Duration":104529,"SoundDuration":104529,"Delta":301455383},{"NoteNumber":62,"Velocity":31,"Duration":104529,"SoundDuration":104529,"Delta":301455383},{"NoteNumber":72,"Velocity":56,"Duration":215827,"SoundDuration":215827,"Delta":301559912},{"NoteNumber":54,"Velocity":48,"Duration":215827,"SoundDuration":215827,"Delta":301559912},{"NoteNumber":69,"Velocity":45,"Duration":107913,"SoundDuration":107913,"Delta":301667826},{"NoteNumber":62,"Velocity":31,"Duration":107913,"SoundDuration":107913,"Delta":301667826},{"NoteNumber":81,"Velocity":63,"Duration":207612,"SoundDuration":207612,"Delta":301775740},{"NoteNumber":49,"Velocity":55,"Duration":207612,"SoundDuration":207612,"Delta":301775740},{"NoteNumber":69,"Velocity":45,"Duration":103806,"SoundDuration":103806,"Delta":301879546},{"NoteNumber":61,"Velocity":33,"Duration":103806,"SoundDuration":103806,"Delta":301879546},{"NoteNumber":73,"Velocity":59,"Duration":212014,"SoundDuration":212014,"Delta":301983352},{"NoteNumber":54,"Velocity":48,"Duration":212014,"SoundDuration":212014,"Delta":301983352},{"NoteNumber":69,"Velocity":46,"Duration":106007,"SoundDuration":106007,"Delta":302089359},{"NoteNumber":61,"Velocity":34,"Duration":106007,"SoundDuration":106007,"Delta":302089359},{"NoteNumber":81,"Velocity":70,"Duration":204777,"SoundDuration":204777,"Delta":302195366},{"NoteNumber":48,"Velocity":59,"Duration":204777,"SoundDuration":204777,"Delta":302195366},{"NoteNumber":69,"Velocity":49,"Duration":102388,"SoundDuration":102388,"Delta":302297755},{"NoteNumber":60,"Velocity":35,"Duration":102388,"SoundDuration":102388,"Delta":302297755},{"NoteNumber":74,"Velocity":59,"Duration":209059,"SoundDuration":209059,"Delta":302400144},{"NoteNumber":54,"Velocity":51,"Duration":209059,"SoundDuration":209059,"Delta":302400144},{"NoteNumber":69,"Velocity":49,"Duration":104529,"SoundDuration":104529,"Delta":302504674},{"NoteNumber":60,"Velocity":35,"Duration":104529,"SoundDuration":104529,"Delta":302504674},{"NoteNumber":81,"Velocity":71,"Duration":203390,"SoundDuration":203390,"Delta":302609203},{"NoteNumber":47,"Velocity":64,"Duration":203390,"SoundDuration":203390,"Delta":302609203},{"NoteNumber":69,"Velocity":50,"Duration":101695,"SoundDuration":101695,"Delta":302710898},{"NoteNumber":59,"Velocity":37,"Duration":101695,"SoundDuration":101695,"Delta":302710898},{"NoteNumber":75,"Velocity":66,"Duration":207612,"SoundDuration":207612,"Delta":302812593},{"NoteNumber":54,"Velocity":53,"Duration":207612,"SoundDuration":207612,"Delta":302812593},{"NoteNumber":69,"Velocity":52,"Duration":103806,"SoundDuration":103806,"Delta":302916400},{"NoteNumber":59,"Velocity":37,"Duration":103806,"SoundDuration":103806,"Delta":302916400},{"NoteNumber":82,"Velocity":74,"Duration":200669,"SoundDuration":200669,"Delta":303020206},{"NoteNumber":46,"Velocity":69,"Duration":200669,"SoundDuration":200669,"Delta":303020206},{"NoteNumber":70,"Velocity":54,"Duration":100334,"SoundDuration":100334,"Delta":303120540},{"NoteNumber":58,"Velocity":39,"Duration":100334,"SoundDuration":100334,"Delta":303120540},{"NoteNumber":75,"Velocity":68,"Duration":204777,"SoundDuration":204777,"Delta":303220875},{"NoteNumber":54,"Velocity":55,"Duration":204777,"SoundDuration":204777,"Delta":303220875},{"NoteNumber":70,"Velocity":55,"Duration":102388,"SoundDuration":102388,"Delta":303323264},{"NoteNumber":58,"Velocity":39,"Duration":102388,"SoundDuration":102388,"Delta":303323264},{"NoteNumber":83,"Velocity":80,"Duration":198675,"SoundDuration":198675,"Delta":303425653},{"NoteNumber":45,"Velocity":70,"Duration":198675,"SoundDuration":198675,"Delta":303425653},{"NoteNumber":71,"Velocity":57,"Duration":99337,"SoundDuration":99337,"Delta":303524991},{"NoteNumber":57,"Velocity":40,"Duration":99337,"SoundDuration":99337,"Delta":303524991},{"NoteNumber":75,"Velocity":72,"Duration":211267,"SoundDuration":211267,"Delta":303624328},{"NoteNumber":54,"Velocity":57,"Duration":211267,"SoundDuration":211267,"Delta":303624328},{"NoteNumber":71,"Velocity":58,"Duration":105633,"SoundDuration":105633,"Delta":303729962},{"NoteNumber":57,"Velocity":42,"Duration":105633,"SoundDuration":105633,"Delta":303729962},{"NoteNumber":84,"Velocity":84,"Duration":214203,"SoundDuration":214203,"Delta":303835596},{"NoteNumber":44,"Velocity":72,"Duration":214203,"SoundDuration":214203,"Delta":303835596},{"NoteNumber":72,"Velocity":59,"Duration":111110,"SoundDuration":111110,"Delta":303938689},{"NoteNumber":56,"Velocity":43,"Duration":111110,"SoundDuration":111110,"Delta":303938689},{"NoteNumber":73,"Velocity":73,"Duration":222221,"SoundDuration":222221,"Delta":304049800},{"NoteNumber":85,"Velocity":86,"Duration":222221,"SoundDuration":222221,"Delta":304049800},{"NoteNumber":37,"Velocity":61,"Duration":222221,"SoundDuration":222221,"Delta":304049800},{"NoteNumber":49,"Velocity":73,"Duration":222221,"SoundDuration":222221,"Delta":304049800},{"NoteNumber":59,"Velocity":65,"Duration":106257,"SoundDuration":106257,"Delta":304272022},{"NoteNumber":61,"Velocity":69,"Duration":105572,"SoundDuration":105572,"Delta":304378279},{"NoteNumber":65,"Velocity":73,"Duration":104956,"SoundDuration":104956,"Delta":304483852},{"NoteNumber":68,"Velocity":77,"Duration":104227,"SoundDuration":104227,"Delta":304588808},{"NoteNumber":71,"Velocity":86,"Duration":103806,"SoundDuration":103806,"Delta":304693036},{"NoteNumber":83,"Velocity":81,"Duration":103806,"SoundDuration":103806,"Delta":304796842},{"NoteNumber":71,"Velocity":77,"Duration":109693,"SoundDuration":109693,"Delta":304900649},{"NoteNumber":73,"Velocity":78,"Duration":112153,"SoundDuration":112153,"Delta":305010342},{"NoteNumber":77,"Velocity":79,"Duration":112781,"SoundDuration":112781,"Delta":305122496},{"NoteNumber":53,"Velocity":58,"Duration":225564,"SoundDuration":225564,"Delta":305122496},{"NoteNumber":61,"Velocity":69,"Duration":225564,"SoundDuration":225564,"Delta":305122496},{"NoteNumber":80,"Velocity":81,"Duration":112782,"SoundDuration":112782,"Delta":305235278},{"NoteNumber":83,"Velocity":88,"Duration":115924,"SoundDuration":115924,"Delta":305348060},{"NoteNumber":56,"Velocity":61,"Duration":232657,"SoundDuration":232657,"Delta":305348060},{"NoteNumber":65,"Velocity":72,"Duration":232657,"SoundDuration":232657,"Delta":305348060},{"NoteNumber":95,"Velocity":85,"Duration":116732,"SoundDuration":116732,"Delta":305463984},{"NoteNumber":92,"Velocity":81,"Duration":117925,"SoundDuration":117925,"Delta":305580717},{"NoteNumber":61,"Velocity":56,"Duration":237037,"SoundDuration":237037,"Delta":305580717},{"NoteNumber":68,"Velocity":67,"Duration":237037,"SoundDuration":237037,"Delta":305580717},{"NoteNumber":89,"Velocity":80,"Duration":119111,"SoundDuration":119111,"Delta":305698643},{"NoteNumber":85,"Velocity":79,"Duration":120000,"SoundDuration":120000,"Delta":305817754},{"NoteNumber":65,"Velocity":56,"Duration":239305,"SoundDuration":239305,"Delta":305817754},{"NoteNumber":73,"Velocity":67,"Duration":239305,"SoundDuration":239305,"Delta":305817754},{"NoteNumber":83,"Velocity":78,"Duration":119304,"SoundDuration":119304,"Delta":305937754},{"NoteNumber":80,"Velocity":76,"Duration":114872,"SoundDuration":114872,"Delta":306057059},{"NoteNumber":65,"Velocity":61,"Duration":227727,"SoundDuration":227727,"Delta":306057059},{"NoteNumber":73,"Velocity":72,"Duration":227727,"SoundDuration":227727,"Delta":306057059},{"NoteNumber":77,"Velocity":75,"Duration":112855,"SoundDuration":112855,"Delta":306171932},{"NoteNumber":73,"Velocity":74,"Duration":110908,"SoundDuration":110908,"Delta":306284787},{"NoteNumber":71,"Velocity":73,"Duration":109093,"SoundDuration":109093,"Delta":306395695},{"NoteNumber":68,"Velocity":72,"Duration":107591,"SoundDuration":107591,"Delta":306504789},{"NoteNumber":65,"Velocity":71,"Duration":107527,"SoundDuration":107527,"Delta":306612380},{"NoteNumber":70,"Velocity":67,"Duration":118243,"SoundDuration":118243,"Delta":306719907},{"NoteNumber":42,"Velocity":61,"Duration":408220,"SoundDuration":408220,"Delta":306719907},{"NoteNumber":54,"Velocity":61,"Duration":202702,"SoundDuration":202702,"Delta":306719907},{"NoteNumber":64,"Velocity":61,"Duration":118243,"SoundDuration":118243,"Delta":306821258},{"NoteNumber":63,"Velocity":62,"Duration":118712,"SoundDuration":118712,"Delta":306922610},{"NoteNumber":47,"Velocity":55,"Duration":205517,"SoundDuration":205517,"Delta":306922610},{"NoteNumber":69,"Velocity":62,"Duration":121058,"SoundDuration":121058,"Delta":307023961},{"NoteNumber":68,"Velocity":64,"Duration":118243,"SoundDuration":118243,"Delta":307128128},{"NoteNumber":40,"Velocity":61,"Duration":407859,"SoundDuration":407859,"Delta":307128128},{"NoteNumber":52,"Velocity":61,"Duration":202702,"SoundDuration":202702,"Delta":307128128},{"NoteNumber":62,"Velocity":63,"Duration":118243,"SoundDuration":118243,"Delta":307229479},{"NoteNumber":61,"Velocity":70,"Duration":118652,"SoundDuration":118652,"Delta":307330830},{"NoteNumber":45,"Velocity":54,"Duration":205157,"SoundDuration":205157,"Delta":307330830},{"NoteNumber":67,"Velocity":63,"Duration":120641,"SoundDuration":120641,"Delta":307432181},{"NoteNumber":66,"Velocity":63,"Duration":117844,"SoundDuration":117844,"Delta":307535988},{"NoteNumber":38,"Velocity":61,"Duration":406836,"SoundDuration":406836,"Delta":307535988},{"NoteNumber":50,"Velocity":61,"Duration":202020,"SoundDuration":202020,"Delta":307535988},{"NoteNumber":60,"Velocity":63,"Duration":117845,"SoundDuration":117845,"Delta":307636998},{"NoteNumber":59,"Velocity":63,"Duration":118311,"SoundDuration":118311,"Delta":307738008},{"NoteNumber":43,"Velocity":54,"Duration":204816,"SoundDuration":204816,"Delta":307738008},{"NoteNumber":65,"Velocity":63,"Duration":120641,"SoundDuration":120641,"Delta":307839018},{"NoteNumber":64,"Velocity":66,"Duration":117844,"SoundDuration":117844,"Delta":307942824},{"NoteNumber":36,"Velocity":56,"Duration":202020,"SoundDuration":202020,"Delta":307942824},{"NoteNumber":48,"Velocity":56,"Duration":202020,"SoundDuration":202020,"Delta":307942824},{"NoteNumber":58,"Velocity":56,"Duration":117845,"SoundDuration":117845,"Delta":308043834},{"NoteNumber":55,"Velocity":58,"Duration":117844,"SoundDuration":117844,"Delta":308144844},{"NoteNumber":37,"Velocity":58,"Duration":202020,"SoundDuration":202020,"Delta":308144844},{"NoteNumber":49,"Velocity":58,"Duration":202020,"SoundDuration":202020,"Delta":308144844},{"NoteNumber":63,"Velocity":60,"Duration":117845,"SoundDuration":117845,"Delta":308245854},{"NoteNumber":62,"Velocity":62,"Duration":118251,"SoundDuration":118251,"Delta":308346864},{"NoteNumber":38,"Velocity":59,"Duration":204458,"SoundDuration":204458,"Delta":308346864},{"NoteNumber":50,"Velocity":59,"Duration":204458,"SoundDuration":204458,"Delta":308346864},{"NoteNumber":55,"Velocity":64,"Duration":120283,"SoundDuration":120283,"Delta":308447874},{"NoteNumber":58,"Velocity":70,"Duration":117844,"SoundDuration":117844,"Delta":308551322},{"NoteNumber":39,"Velocity":61,"Duration":202020,"SoundDuration":202020,"Delta":308551322},{"NoteNumber":51,"Velocity":61,"Duration":202020,"SoundDuration":202020,"Delta":308551322},{"NoteNumber":61,"Velocity":64,"Duration":117845,"SoundDuration":117845,"Delta":308652332},{"NoteNumber":60,"Velocity":66,"Duration":117844,"SoundDuration":117844,"Delta":308753342},{"NoteNumber":40,"Velocity":63,"Duration":202020,"SoundDuration":202020,"Delta":308753342},{"NoteNumber":52,"Velocity":63,"Duration":202020,"SoundDuration":202020,"Delta":308753342},{"NoteNumber":55,"Velocity":67,"Duration":117845,"SoundDuration":117845,"Delta":308854352},{"NoteNumber":57,"Velocity":69,"Duration":118492,"SoundDuration":118492,"Delta":308955362},{"NoteNumber":41,"Velocity":65,"Duration":205904,"SoundDuration":205904,"Delta":308955362},{"NoteNumber":51,"Velocity":65,"Duration":205904,"SoundDuration":205904,"Delta":308955362},{"NoteNumber":60,"Velocity":70,"Duration":104894,"SoundDuration":104894,"Delta":309056372},{"NoteNumber":62,"Velocity":70,"Duration":117844,"SoundDuration":117844,"Delta":309161267},{"NoteNumber":46,"Velocity":63,"Duration":202020,"SoundDuration":202020,"Delta":309161267},{"NoteNumber":50,"Velocity":63,"Duration":202020,"SoundDuration":202020,"Delta":309161267},{"NoteNumber":56,"Velocity":64,"Duration":117845,"SoundDuration":117845,"Delta":309262277},{"NoteNumber":55,"Velocity":64,"Duration":117844,"SoundDuration":117844,"Delta":309363287},{"NoteNumber":39,"Velocity":54,"Duration":101009,"SoundDuration":101009,"Delta":309363287},{"NoteNumber":61,"Velocity":64,"Duration":117845,"SoundDuration":117845,"Delta":309464297},{"NoteNumber":60,"Velocity":63,"Duration":118431,"SoundDuration":118431,"Delta":309565307},{"NoteNumber":44,"Velocity":54,"Duration":101009,"SoundDuration":101009,"Delta":309565307},{"NoteNumber":54,"Velocity":63,"Duration":121364,"SoundDuration":121364,"Delta":309666317},{"NoteNumber":53,"Velocity":70,"Duration":117844,"SoundDuration":117844,"Delta":309770847},{"NoteNumber":49,"Velocity":60,"Duration":101009,"SoundDuration":101009,"Delta":309770847},{"NoteNumber":59,"Velocity":60,"Duration":117845,"SoundDuration":117845,"Delta":309871857},{"NoteNumber":58,"Velocity":60,"Duration":117844,"SoundDuration":117844,"Delta":309972867},{"NoteNumber":54,"Velocity":52,"Duration":101009,"SoundDuration":101009,"Delta":309972867},{"NoteNumber":52,"Velocity":57,"Duration":117845,"SoundDuration":117845,"Delta":310073877},{"NoteNumber":51,"Velocity":55,"Duration":118492,"SoundDuration":118492,"Delta":310174887},{"NoteNumber":59,"Velocity":52,"Duration":101009,"SoundDuration":101009,"Delta":310174887},{"NoteNumber":57,"Velocity":53,"Duration":122377,"SoundDuration":122377,"Delta":310275897},{"NoteNumber":56,"Velocity":62,"Duration":118549,"SoundDuration":118549,"Delta":310380792},{"NoteNumber":64,"Velocity":58,"Duration":101714,"SoundDuration":101714,"Delta":310380792},{"NoteNumber":50,"Velocity":56,"Duration":118072,"SoundDuration":118072,"Delta":310482506},{"NoteNumber":47,"Velocity":54,"Duration":118414,"SoundDuration":118414,"Delta":310583687},{"NoteNumber":63,"Velocity":50,"Duration":101465,"SoundDuration":101465,"Delta":310583687},{"NoteNumber":56,"Velocity":53,"Duration":118759,"SoundDuration":118759,"Delta":310685152},{"NoteNumber":52,"Velocity":51,"Duration":120091,"SoundDuration":120091,"Delta":310786905},{"NoteNumber":62,"Velocity":50,"Duration":102040,"SoundDuration":102040,"Delta":310786905},{"NoteNumber":47,"Velocity":50,"Duration":125426,"SoundDuration":125426,"Delta":310888946},{"NoteNumber":56,"Velocity":57,"Duration":119863,"SoundDuration":119863,"Delta":310997249},{"NoteNumber":61,"Velocity":57,"Duration":102739,"SoundDuration":102739,"Delta":310997249},{"NoteNumber":53,"Velocity":55,"Duration":120283,"SoundDuration":120283,"Delta":311099989},{"NoteNumber":48,"Velocity":54,"Duration":122807,"SoundDuration":122807,"Delta":311202728},{"NoteNumber":60,"Velocity":49,"Duration":105263,"SoundDuration":105263,"Delta":311202728},{"NoteNumber":56,"Velocity":52,"Duration":122930,"SoundDuration":122930,"Delta":311307992},{"NoteNumber":53,"Velocity":51,"Duration":124306,"SoundDuration":124306,"Delta":311413317},{"NoteNumber":59,"Velocity":49,"Duration":106385,"SoundDuration":106385,"Delta":311413317},{"NoteNumber":51,"Velocity":49,"Duration":108110,"SoundDuration":108110,"Delta":311519702},{"NoteNumber":57,"Velocity":51,"Duration":128410,"SoundDuration":128410,"Delta":311627812},{"NoteNumber":60,"Velocity":49,"Duration":221003,"SoundDuration":221003,"Delta":311627812},{"NoteNumber":48,"Velocity":42,"Duration":127667,"SoundDuration":127667,"Delta":311737705},{"NoteNumber":51,"Velocity":42,"Duration":115894,"SoundDuration":115894,"Delta":311848816},{"NoteNumber":72,"Velocity":46,"Duration":215506,"SoundDuration":215506,"Delta":311848816},{"NoteNumber":54,"Velocity":42,"Duration":116169,"SoundDuration":116169,"Delta":311948154},{"NoteNumber":55,"Velocity":42,"Duration":116500,"SoundDuration":116500,"Delta":312047711},{"NoteNumber":71,"Velocity":47,"Duration":216667,"SoundDuration":216667,"Delta":312047711},{"NoteNumber":50,"Velocity":42,"Duration":116833,"SoundDuration":116833,"Delta":312147545},{"NoteNumber":49,"Velocity":51,"Duration":117169,"SoundDuration":117169,"Delta":312247657},{"NoteNumber":70,"Velocity":47,"Duration":217896,"SoundDuration":217896,"Delta":312247657},{"NoteNumber":52,"Velocity":41,"Duration":117506,"SoundDuration":117506,"Delta":312348047},{"NoteNumber":53,"Velocity":41,"Duration":117844,"SoundDuration":117844,"Delta":312448719},{"NoteNumber":69,"Velocity":47,"Duration":219196,"SoundDuration":219196,"Delta":312448719},{"NoteNumber":48,"Velocity":41,"Duration":118186,"SoundDuration":118186,"Delta":312549729},{"NoteNumber":53,"Velocity":41,"Duration":118529,"SoundDuration":118529,"Delta":312651023},{"NoteNumber":68,"Velocity":48,"Duration":220340,"SoundDuration":220340,"Delta":312651023},{"NoteNumber":60,"Velocity":41,"Duration":118759,"SoundDuration":118759,"Delta":312752603},{"NoteNumber":58,"Velocity":50,"Duration":118243,"SoundDuration":118243,"Delta":312854471},{"NoteNumber":67,"Velocity":49,"Duration":218747,"SoundDuration":218747,"Delta":312854471},{"NoteNumber":52,"Velocity":40,"Duration":117395,"SoundDuration":117395,"Delta":312955822},{"NoteNumber":56,"Velocity":41,"Duration":117619,"SoundDuration":117619,"Delta":313056440},{"NoteNumber":65,"Velocity":45,"Duration":218686,"SoundDuration":218686,"Delta":313056440},{"NoteNumber":59,"Velocity":41,"Duration":117901,"SoundDuration":117901,"Delta":313157224},{"NoteNumber":60,"Velocity":41,"Duration":118243,"SoundDuration":118243,"Delta":313258234},{"NoteNumber":64,"Velocity":45,"Duration":219880,"SoundDuration":219880,"Delta":313258234},{"NoteNumber":55,"Velocity":41,"Duration":118529,"SoundDuration":118529,"Delta":313359585},{"NoteNumber":58,"Velocity":52,"Duration":118817,"SoundDuration":118817,"Delta":313461166},{"NoteNumber":63,"Velocity":45,"Duration":220915,"SoundDuration":220915,"Delta":313461166},{"NoteNumber":61,"Velocity":42,"Duration":119105,"SoundDuration":119105,"Delta":313562976},{"NoteNumber":62,"Velocity":41,"Duration":119453,"SoundDuration":119453,"Delta":313665017},{"NoteNumber":62,"Velocity":45,"Duration":222135,"SoundDuration":222135,"Delta":313665017},{"NoteNumber":55,"Velocity":41,"Duration":119746,"SoundDuration":119746,"Delta":313767406},{"NoteNumber":58,"Velocity":41,"Duration":120039,"SoundDuration":120039,"Delta":313870028},{"NoteNumber":61,"Velocity":45,"Duration":223074,"SoundDuration":223074,"Delta":313870028},{"NoteNumber":65,"Velocity":41,"Duration":120216,"SoundDuration":120216,"Delta":313972886},{"NoteNumber":64,"Velocity":50,"Duration":119453,"SoundDuration":119453,"Delta":314076038},{"NoteNumber":60,"Velocity":51,"Duration":187713,"SoundDuration":187713,"Delta":314076038},{"NoteNumber":55,"Velocity":42,"Duration":119055,"SoundDuration":119055,"Delta":314178427},{"NoteNumber":63,"Velocity":42,"Duration":116666,"SoundDuration":116666,"Delta":314280816},{"NoteNumber":60,"Velocity":49,"Duration":216666,"SoundDuration":216666,"Delta":314280816},{"NoteNumber":66,"Velocity":42,"Duration":116666,"SoundDuration":116666,"Delta":314380816},{"NoteNumber":67,"Velocity":42,"Duration":116889,"SoundDuration":116889,"Delta":314480816},{"NoteNumber":59,"Velocity":50,"Duration":217224,"SoundDuration":217224,"Delta":314480816},{"NoteNumber":62,"Velocity":43,"Duration":117056,"SoundDuration":117056,"Delta":314580983},{"NoteNumber":61,"Velocity":52,"Duration":117169,"SoundDuration":117169,"Delta":314681318},{"NoteNumber":58,"Velocity":54,"Duration":217840,"SoundDuration":217840,"Delta":314681318},{"NoteNumber":64,"Velocity":42,"Duration":117449,"SoundDuration":117449,"Delta":314781708},{"NoteNumber":65,"Velocity":43,"Duration":117449,"SoundDuration":117449,"Delta":314882380},{"NoteNumber":57,"Velocity":52,"Duration":218403,"SoundDuration":218403,"Delta":314882380},{"NoteNumber":60,"Velocity":43,"Duration":117732,"SoundDuration":117732,"Delta":314983051},{"NoteNumber":65,"Velocity":43,"Duration":117844,"SoundDuration":117844,"Delta":315083948},{"NoteNumber":56,"Velocity":53,"Duration":218635,"SoundDuration":218635,"Delta":315083948},{"NoteNumber":72,"Velocity":43,"Duration":117625,"SoundDuration":117625,"Delta":315184958},{"NoteNumber":70,"Velocity":53,"Duration":115511,"SoundDuration":115511,"Delta":315286082},{"NoteNumber":55,"Velocity":57,"Duration":214521,"SoundDuration":214521,"Delta":315286082},{"NoteNumber":64,"Velocity":43,"Duration":115511,"SoundDuration":115511,"Delta":315385092},{"NoteNumber":68,"Velocity":44,"Duration":115839,"SoundDuration":115839,"Delta":315484102},{"NoteNumber":53,"Velocity":53,"Duration":215287,"SoundDuration":215287,"Delta":315484102},{"NoteNumber":71,"Velocity":44,"Duration":116004,"SoundDuration":116004,"Delta":315583385},{"NoteNumber":72,"Velocity":44,"Duration":116279,"SoundDuration":116279,"Delta":315682777},{"NoteNumber":52,"Velocity":54,"Duration":216168,"SoundDuration":216168,"Delta":315682777},{"NoteNumber":67,"Velocity":45,"Duration":116500,"SoundDuration":116500,"Delta":315782445},{"NoteNumber":70,"Velocity":57,"Duration":116722,"SoundDuration":116722,"Delta":315882279},{"NoteNumber":51,"Velocity":55,"Duration":217056,"SoundDuration":217056,"Delta":315882279},{"NoteNumber":73,"Velocity":49,"Duration":117056,"SoundDuration":117056,"Delta":315982279},{"NoteNumber":74,"Velocity":45,"Duration":117225,"SoundDuration":117225,"Delta":316082614},{"NoteNumber":50,"Velocity":58,"Duration":217896,"SoundDuration":217896,"Delta":316082614},{"NoteNumber":67,"Velocity":46,"Duration":117449,"SoundDuration":117449,"Delta":316183060},{"NoteNumber":70,"Velocity":46,"Duration":117732,"SoundDuration":117732,"Delta":316283732},{"NoteNumber":49,"Velocity":60,"Duration":218520,"SoundDuration":218520,"Delta":316283732},{"NoteNumber":77,"Velocity":46,"Duration":117623,"SoundDuration":117623,"Delta":316384629},{"NoteNumber":75,"Velocity":57,"Duration":115894,"SoundDuration":115894,"Delta":316485696},{"NoteNumber":48,"Velocity":62,"Duration":99337,"SoundDuration":99337,"Delta":316485696},{"NoteNumber":76,"Velocity":55,"Duration":99337,"SoundDuration":99337,"Delta":316585033},{"NoteNumber":67,"Velocity":56,"Duration":103092,"SoundDuration":103092,"Delta":316684371},{"NoteNumber":58,"Velocity":57,"Duration":401625,"SoundDuration":401625,"Delta":316684371},{"NoteNumber":60,"Velocity":68,"Duration":206185,"SoundDuration":206185,"Delta":316684371},{"NoteNumber":69,"Velocity":57,"Duration":103092,"SoundDuration":103092,"Delta":316787464},{"NoteNumber":70,"Velocity":58,"Duration":97719,"SoundDuration":97719,"Delta":316890557},{"NoteNumber":64,"Velocity":63,"Duration":195439,"SoundDuration":195439,"Delta":316890557},{"NoteNumber":72,"Velocity":59,"Duration":97719,"SoundDuration":97719,"Delta":316988276},{"NoteNumber":73,"Velocity":60,"Duration":97719,"SoundDuration":97719,"Delta":317085996},{"NoteNumber":46,"Velocity":60,"Duration":97719,"SoundDuration":97719,"Delta":317085996},{"NoteNumber":76,"Velocity":61,"Duration":97719,"SoundDuration":97719,"Delta":317183716},{"NoteNumber":79,"Velocity":62,"Duration":98849,"SoundDuration":98849,"Delta":317281436},{"NoteNumber":55,"Velocity":56,"Duration":412324,"SoundDuration":412324,"Delta":317281436},{"NoteNumber":58,"Velocity":67,"Duration":199693,"SoundDuration":199693,"Delta":317281436},{"NoteNumber":81,"Velocity":63,"Duration":100843,"SoundDuration":100843,"Delta":317380286},{"NoteNumber":82,"Velocity":64,"Duration":102741,"SoundDuration":102741,"Delta":317481129},{"NoteNumber":64,"Velocity":62,"Duration":212631,"SoundDuration":212631,"Delta":317481129},{"NoteNumber":84,"Velocity":65,"Duration":109890,"SoundDuration":109890,"Delta":317583870},{"NoteNumber":85,"Velocity":68,"Duration":114754,"SoundDuration":114754,"Delta":317693760},{"NoteNumber":45,"Velocity":60,"Duration":98360,"SoundDuration":98360,"Delta":317693760},{"NoteNumber":91,"Velocity":67,"Duration":98360,"SoundDuration":98360,"Delta":317792121},{"NoteNumber":88,"Velocity":66,"Duration":102739,"SoundDuration":102739,"Delta":317890482},{"NoteNumber":52,"Velocity":55,"Duration":402201,"SoundDuration":402201,"Delta":317890482},{"NoteNumber":55,"Velocity":65,"Duration":205479,"SoundDuration":205479,"Delta":317890482},{"NoteNumber":85,"Velocity":65,"Duration":102739,"SoundDuration":102739,"Delta":317993222},{"NoteNumber":82,"Velocity":64,"Duration":98360,"SoundDuration":98360,"Delta":318095961},{"NoteNumber":64,"Velocity":61,"Duration":196721,"SoundDuration":196721,"Delta":318095961},{"NoteNumber":79,"Velocity":63,"Duration":98360,"SoundDuration":98360,"Delta":318194322},{"NoteNumber":76,"Velocity":62,"Duration":113268,"SoundDuration":113268,"Delta":318292683},{"NoteNumber":45,"Velocity":56,"Duration":97087,"SoundDuration":97087,"Delta":318292683},{"NoteNumber":73,"Velocity":61,"Duration":97087,"SoundDuration":97087,"Delta":318389770},{"NoteNumber":70,"Velocity":60,"Duration":102739,"SoundDuration":102739,"Delta":318486858},{"NoteNumber":49,"Velocity":51,"Duration":402848,"SoundDuration":402848,"Delta":318486858},{"NoteNumber":52,"Velocity":61,"Duration":205479,"SoundDuration":205479,"Delta":318486858},{"NoteNumber":67,"Velocity":59,"Duration":102739,"SoundDuration":102739,"Delta":318589598},{"NoteNumber":64,"Velocity":58,"Duration":98684,"SoundDuration":98684,"Delta":318692337},{"NoteNumber":57,"Velocity":53,"Duration":197368,"SoundDuration":197368,"Delta":318692337},{"NoteNumber":61,"Velocity":57,"Duration":98684,"SoundDuration":98684,"Delta":318791022},{"NoteNumber":62,"Velocity":56,"Duration":115131,"SoundDuration":115131,"Delta":318889706},{"NoteNumber":50,"Velocity":58,"Duration":98684,"SoundDuration":98684,"Delta":318889706},{"NoteNumber":74,"Velocity":55,"Duration":98684,"SoundDuration":98684,"Delta":318988390},{"NoteNumber":62,"Velocity":57,"Duration":102389,"SoundDuration":102389,"Delta":319087074},{"NoteNumber":53,"Velocity":56,"Duration":402146,"SoundDuration":402146,"Delta":319087074},{"NoteNumber":57,"Velocity":66,"Duration":204777,"SoundDuration":204777,"Delta":319087074},{"NoteNumber":64,"Velocity":59,"Duration":102388,"SoundDuration":102388,"Delta":319189463},{"NoteNumber":65,"Velocity":60,"Duration":98684,"SoundDuration":98684,"Delta":319291852},{"NoteNumber":62,"Velocity":61,"Duration":197368,"SoundDuration":197368,"Delta":319291852},{"NoteNumber":67,"Velocity":62,"Duration":98684,"SoundDuration":98684,"Delta":319390537},{"NoteNumber":68,"Velocity":63,"Duration":113636,"SoundDuration":113636,"Delta":319489221},{"NoteNumber":48,"Velocity":58,"Duration":97402,"SoundDuration":97402,"Delta":319489221},{"NoteNumber":71,"Velocity":65,"Duration":97402,"SoundDuration":97402,"Delta":319586623},{"NoteNumber":74,"Velocity":66,"Duration":99836,"SoundDuration":99836,"Delta":319684026},{"NoteNumber":53,"Velocity":56,"Duration":416869,"SoundDuration":416869,"Delta":319684026},{"NoteNumber":56,"Velocity":67,"Duration":201707,"SoundDuration":201707,"Delta":319684026},{"NoteNumber":76,"Velocity":68,"Duration":101870,"SoundDuration":101870,"Delta":319783863},{"NoteNumber":77,"Velocity":69,"Duration":104051,"SoundDuration":104051,"Delta":319885734},{"NoteNumber":62,"Velocity":61,"Duration":215162,"SoundDuration":215162,"Delta":319885734},{"NoteNumber":79,"Velocity":71,"Duration":111110,"SoundDuration":111110,"Delta":319989785},{"NoteNumber":80,"Velocity":72,"Duration":114754,"SoundDuration":114754,"Delta":320100896},{"NoteNumber":47,"Velocity":56,"Duration":98360,"SoundDuration":98360,"Delta":320100896},{"NoteNumber":86,"Velocity":67,"Duration":98360,"SoundDuration":98360,"Delta":320199257},{"NoteNumber":83,"Velocity":68,"Duration":103092,"SoundDuration":103092,"Delta":320297617},{"NoteNumber":50,"Velocity":56,"Duration":404205,"SoundDuration":404205,"Delta":320297617},{"NoteNumber":53,"Velocity":66,"Duration":206185,"SoundDuration":206185,"Delta":320297617},{"NoteNumber":80,"Velocity":67,"Duration":103092,"SoundDuration":103092,"Delta":320400710},{"NoteNumber":77,"Velocity":66,"Duration":99010,"SoundDuration":99010,"Delta":320503803},{"NoteNumber":62,"Velocity":59,"Duration":198019,"SoundDuration":198019,"Delta":320503803},{"NoteNumber":74,"Velocity":66,"Duration":99009,"SoundDuration":99009,"Delta":320602813},{"NoteNumber":71,"Velocity":65,"Duration":115511,"SoundDuration":115511,"Delta":320701823},{"NoteNumber":40,"Velocity":56,"Duration":99010,"SoundDuration":99010,"Delta":320701823},{"NoteNumber":68,"Velocity":64,"Duration":99010,"SoundDuration":99010,"Delta":320800833},{"NoteNumber":65,"Velocity":63,"Duration":102739,"SoundDuration":102739,"Delta":320899843},{"NoteNumber":44,"Velocity":54,"Duration":402848,"SoundDuration":402848,"Delta":320899843},{"NoteNumber":47,"Velocity":64,"Duration":205479,"SoundDuration":205479,"Delta":320899843},{"NoteNumber":62,"Velocity":62,"Duration":102739,"SoundDuration":102739,"Delta":321002583},{"NoteNumber":59,"Velocity":61,"Duration":98684,"SoundDuration":98684,"Delta":321105322},{"NoteNumber":52,"Velocity":57,"Duration":197368,"SoundDuration":197368,"Delta":321105322},{"NoteNumber":56,"Velocity":60,"Duration":98684,"SoundDuration":98684,"Delta":321204007},{"NoteNumber":57,"Velocity":68,"Duration":98684,"SoundDuration":98684,"Delta":321302691},{"NoteNumber":45,"Velocity":68,"Duration":197368,"SoundDuration":197368,"Delta":321302691},{"NoteNumber":69,"Velocity":59,"Duration":98684,"SoundDuration":98684,"Delta":321401375},{"NoteNumber":61,"Velocity":59,"Duration":98684,"SoundDuration":98684,"Delta":321500059},{"NoteNumber":45,"Velocity":62,"Duration":197368,"SoundDuration":197368,"Delta":321500059},{"NoteNumber":52,"Velocity":73,"Duration":197368,"SoundDuration":197368,"Delta":321500059},{"NoteNumber":67,"Velocity":59,"Duration":98684,"SoundDuration":98684,"Delta":321598744},{"NoteNumber":65,"Velocity":59,"Duration":98684,"SoundDuration":98684,"Delta":321697428},{"NoteNumber":50,"Velocity":57,"Duration":203947,"SoundDuration":203947,"Delta":321697428},{"NoteNumber":53,"Velocity":68,"Duration":203947,"SoundDuration":203947,"Delta":321697428},{"NoteNumber":62,"Velocity":59,"Duration":105263,"SoundDuration":105263,"Delta":321796112},{"NoteNumber":64,"Velocity":67,"Duration":98684,"SoundDuration":98684,"Delta":321901375},{"NoteNumber":48,"Velocity":61,"Duration":197368,"SoundDuration":197368,"Delta":321901375},{"NoteNumber":55,"Velocity":72,"Duration":197368,"SoundDuration":197368,"Delta":321901375},{"NoteNumber":70,"Velocity":57,"Duration":98684,"SoundDuration":98684,"Delta":322000060},{"NoteNumber":69,"Velocity":57,"Duration":97402,"SoundDuration":97402,"Delta":322098744},{"NoteNumber":53,"Velocity":56,"Duration":201208,"SoundDuration":201208,"Delta":322098744},{"NoteNumber":57,"Velocity":67,"Duration":201208,"SoundDuration":201208,"Delta":322098744},{"NoteNumber":65,"Velocity":57,"Duration":103806,"SoundDuration":103806,"Delta":322196146},{"NoteNumber":68,"Velocity":57,"Duration":98684,"SoundDuration":98684,"Delta":322299953},{"NoteNumber":52,"Velocity":61,"Duration":197368,"SoundDuration":197368,"Delta":322299953},{"NoteNumber":59,"Velocity":72,"Duration":197368,"SoundDuration":197368,"Delta":322299953},{"NoteNumber":74,"Velocity":56,"Duration":98684,"SoundDuration":98684,"Delta":322398637},{"NoteNumber":72,"Velocity":66,"Duration":98684,"SoundDuration":98684,"Delta":322497321},{"NoteNumber":60,"Velocity":67,"Duration":202490,"SoundDuration":202490,"Delta":322497321},{"NoteNumber":57,"Velocity":56,"Duration":202490,"SoundDuration":202490,"Delta":322497321},{"NoteNumber":69,"Velocity":57,"Duration":103806,"SoundDuration":103806,"Delta":322596005},{"NoteNumber":71,"Velocity":57,"Duration":98684,"SoundDuration":98684,"Delta":322699812},{"NoteNumber":55,"Velocity":63,"Duration":197368,"SoundDuration":197368,"Delta":322699812},{"NoteNumber":62,"Velocity":75,"Duration":197368,"SoundDuration":197368,"Delta":322699812},{"NoteNumber":77,"Velocity":57,"Duration":98684,"SoundDuration":98684,"Delta":322798496},{"NoteNumber":76,"Velocity":56,"Duration":97719,"SoundDuration":97719,"Delta":322897180},{"NoteNumber":64,"Velocity":69,"Duration":200459,"SoundDuration":200459,"Delta":322897180},{"NoteNumber":60,"Velocity":58,"Duration":200459,"SoundDuration":200459,"Delta":322897180},{"NoteNumber":72,"Velocity":55,"Duration":102739,"SoundDuration":102739,"Delta":322994900},{"NoteNumber":73,"Velocity":65,"Duration":98684,"SoundDuration":98684,"Delta":323097640},{"NoteNumber":64,"Velocity":75,"Duration":197368,"SoundDuration":197368,"Delta":323097640},{"NoteNumber":57,"Velocity":63,"Duration":197368,"SoundDuration":197368,"Delta":323097640},{"NoteNumber":79,"Velocity":56,"Duration":98684,"SoundDuration":98684,"Delta":323196324},{"NoteNumber":77,"Velocity":56,"Duration":98684,"SoundDuration":98684,"Delta":323295008},{"NoteNumber":65,"Velocity":70,"Duration":201776,"SoundDuration":201776,"Delta":323295008},{"NoteNumber":62,"Velocity":59,"Duration":201776,"SoundDuration":201776,"Delta":323295008},{"NoteNumber":74,"Velocity":56,"Duration":103092,"SoundDuration":103092,"Delta":323393692},{"NoteNumber":76,"Velocity":56,"Duration":98684,"SoundDuration":98684,"Delta":323496785},{"NoteNumber":60,"Velocity":63,"Duration":197368,"SoundDuration":197368,"Delta":323496785},{"NoteNumber":67,"Velocity":75,"Duration":197368,"SoundDuration":197368,"Delta":323496785},{"NoteNumber":82,"Velocity":56,"Duration":98684,"SoundDuration":98684,"Delta":323595469},{"NoteNumber":81,"Velocity":69,"Duration":98684,"SoundDuration":98684,"Delta":323694154},{"NoteNumber":69,"Velocity":69,"Duration":205445,"SoundDuration":205445,"Delta":323694154},{"NoteNumber":65,"Velocity":58,"Duration":205445,"SoundDuration":205445,"Delta":323694154},{"NoteNumber":77,"Velocity":57,"Duration":106761,"SoundDuration":106761,"Delta":323792838},{"NoteNumber":73,"Velocity":57,"Duration":98684,"SoundDuration":98684,"Delta":323899599},{"NoteNumber":57,"Velocity":54,"Duration":98684,"SoundDuration":98684,"Delta":323899599},{"NoteNumber":81,"Velocity":58,"Duration":98684,"SoundDuration":98684,"Delta":323998284},{"NoteNumber":64,"Velocity":55,"Duration":98684,"SoundDuration":98684,"Delta":323998284},{"NoteNumber":77,"Velocity":58,"Duration":97719,"SoundDuration":97719,"Delta":324096968},{"NoteNumber":62,"Velocity":56,"Duration":97719,"SoundDuration":97719,"Delta":324096968},{"NoteNumber":74,"Velocity":60,"Duration":105263,"SoundDuration":105263,"Delta":324194688},{"NoteNumber":65,"Velocity":58,"Duration":105263,"SoundDuration":105263,"Delta":324194688},{"NoteNumber":76,"Velocity":71,"Duration":98684,"SoundDuration":98684,"Delta":324299951},{"NoteNumber":60,"Velocity":70,"Duration":98684,"SoundDuration":98684,"Delta":324299951},{"NoteNumber":84,"Velocity":60,"Duration":98684,"SoundDuration":98684,"Delta":324398635},{"NoteNumber":67,"Velocity":58,"Duration":98684,"SoundDuration":98684,"Delta":324398635},{"NoteNumber":81,"Velocity":61,"Duration":98684,"SoundDuration":98684,"Delta":324497319},{"NoteNumber":65,"Velocity":59,"Duration":98684,"SoundDuration":98684,"Delta":324497319},{"NoteNumber":77,"Velocity":60,"Duration":98684,"SoundDuration":98684,"Delta":324596004},{"NoteNumber":69,"Velocity":59,"Duration":98684,"SoundDuration":98684,"Delta":324596004},{"NoteNumber":80,"Velocity":61,"Duration":98684,"SoundDuration":98684,"Delta":324694688},{"NoteNumber":64,"Velocity":61,"Duration":98684,"SoundDuration":98684,"Delta":324694688},{"NoteNumber":88,"Velocity":61,"Duration":105633,"SoundDuration":105633,"Delta":324793372},{"NoteNumber":71,"Velocity":61,"Duration":105633,"SoundDuration":105633,"Delta":324793372},{"NoteNumber":84,"Velocity":76,"Duration":98684,"SoundDuration":98684,"Delta":324899006},{"NoteNumber":69,"Velocity":75,"Duration":98684,"SoundDuration":98684,"Delta":324899006},{"NoteNumber":81,"Velocity":66,"Duration":98684,"SoundDuration":98684,"Delta":324997690},{"NoteNumber":72,"Velocity":63,"Duration":98684,"SoundDuration":98684,"Delta":324997690},{"NoteNumber":83,"Velocity":67,"Duration":98684,"SoundDuration":98684,"Delta":325096374},{"NoteNumber":67,"Velocity":61,"Duration":98684,"SoundDuration":98684,"Delta":325096374},{"NoteNumber":91,"Velocity":67,"Duration":98684,"SoundDuration":98684,"Delta":325195059},{"NoteNumber":74,"Velocity":63,"Duration":98684,"SoundDuration":98684,"Delta":325195059},{"NoteNumber":88,"Velocity":68,"Duration":98684,"SoundDuration":98684,"Delta":325293743},{"NoteNumber":72,"Velocity":64,"Duration":98684,"SoundDuration":98684,"Delta":325293743},{"NoteNumber":84,"Velocity":68,"Duration":105263,"SoundDuration":105263,"Delta":325392427},{"NoteNumber":76,"Velocity":65,"Duration":105263,"SoundDuration":105263,"Delta":325392427},{"NoteNumber":85,"Velocity":82,"Duration":98684,"SoundDuration":98684,"Delta":325497690},{"NoteNumber":69,"Velocity":80,"Duration":98684,"SoundDuration":98684,"Delta":325497690},{"NoteNumber":93,"Velocity":67,"Duration":98684,"SoundDuration":98684,"Delta":325596375},{"NoteNumber":76,"Velocity":66,"Duration":98684,"SoundDuration":98684,"Delta":325596375},{"NoteNumber":89,"Velocity":68,"Duration":98684,"SoundDuration":98684,"Delta":325695059},{"NoteNumber":74,"Velocity":66,"Duration":98684,"SoundDuration":98684,"Delta":325695059},{"NoteNumber":86,"Velocity":69,"Duration":98684,"SoundDuration":98684,"Delta":325793743},{"NoteNumber":77,"Velocity":68,"Duration":98684,"SoundDuration":98684,"Delta":325793743},{"NoteNumber":88,"Velocity":69,"Duration":98684,"SoundDuration":98684,"Delta":325892427},{"NoteNumber":72,"Velocity":68,"Duration":98684,"SoundDuration":98684,"Delta":325892427},{"NoteNumber":96,"Velocity":70,"Duration":104529,"SoundDuration":104529,"Delta":325991112},{"NoteNumber":79,"Velocity":68,"Duration":104529,"SoundDuration":104529,"Delta":325991112},{"NoteNumber":93,"Velocity":82,"Duration":102389,"SoundDuration":102389,"Delta":326095641},{"NoteNumber":81,"Velocity":72,"Duration":102389,"SoundDuration":102389,"Delta":326095641},{"NoteNumber":77,"Velocity":66,"Duration":102389,"SoundDuration":102389,"Delta":326095641},{"NoteNumber":89,"Velocity":70,"Duration":102388,"SoundDuration":102388,"Delta":326198030},{"NoteNumber":95,"Velocity":70,"Duration":100671,"SoundDuration":100671,"Delta":326300419},{"NoteNumber":73,"Velocity":53,"Duration":201342,"SoundDuration":201342,"Delta":326300419},{"NoteNumber":80,"Velocity":63,"Duration":201342,"SoundDuration":201342,"Delta":326300419},{"NoteNumber":101,"Velocity":71,"Duration":100671,"SoundDuration":100671,"Delta":326401090},{"NoteNumber":96,"Velocity":78,"Duration":100671,"SoundDuration":100671,"Delta":326501762},{"NoteNumber":81,"Velocity":66,"Duration":201342,"SoundDuration":201342,"Delta":326501762},{"NoteNumber":72,"Velocity":56,"Duration":201342,"SoundDuration":201342,"Delta":326501762},{"NoteNumber":89,"Velocity":71,"Duration":100671,"SoundDuration":100671,"Delta":326602433},{"NoteNumber":95,"Velocity":80,"Duration":102040,"SoundDuration":102040,"Delta":326703104},{"NoteNumber":73,"Velocity":56,"Duration":204081,"SoundDuration":204081,"Delta":326703104},{"NoteNumber":80,"Velocity":66,"Duration":204081,"SoundDuration":204081,"Delta":326703104},{"NoteNumber":101,"Velocity":71,"Duration":102040,"SoundDuration":102040,"Delta":326805145},{"NoteNumber":96,"Velocity":80,"Duration":100671,"SoundDuration":100671,"Delta":326907186},{"NoteNumber":81,"Velocity":66,"Duration":201342,"SoundDuration":201342,"Delta":326907186},{"NoteNumber":72,"Velocity":56,"Duration":201342,"SoundDuration":201342,"Delta":326907186},{"NoteNumber":89,"Velocity":72,"Duration":100671,"SoundDuration":100671,"Delta":327007857},{"NoteNumber":95,"Velocity":79,"Duration":100671,"SoundDuration":100671,"Delta":327108528},{"NoteNumber":73,"Velocity":56,"Duration":201342,"SoundDuration":201342,"Delta":327108528},{"NoteNumber":80,"Velocity":66,"Duration":201342,"SoundDuration":201342,"Delta":327108528},{"NoteNumber":101,"Velocity":72,"Duration":100671,"SoundDuration":100671,"Delta":327209199},{"NoteNumber":96,"Velocity":78,"Duration":101695,"SoundDuration":101695,"Delta":327309871},{"NoteNumber":72,"Velocity":56,"Duration":203562,"SoundDuration":203562,"Delta":327309871},{"NoteNumber":81,"Velocity":66,"Duration":203562,"SoundDuration":203562,"Delta":327309871},{"NoteNumber":89,"Velocity":72,"Duration":101867,"SoundDuration":101867,"Delta":327411566},{"NoteNumber":95,"Velocity":78,"Duration":102040,"SoundDuration":102040,"Delta":327513434},{"NoteNumber":73,"Velocity":56,"Duration":204429,"SoundDuration":204429,"Delta":327513434},{"NoteNumber":80,"Velocity":66,"Duration":204429,"SoundDuration":204429,"Delta":327513434},{"NoteNumber":101,"Velocity":72,"Duration":102389,"SoundDuration":102389,"Delta":327615474},{"NoteNumber":96,"Velocity":77,"Duration":102622,"SoundDuration":102622,"Delta":327717863},{"NoteNumber":72,"Velocity":56,"Duration":205421,"SoundDuration":205421,"Delta":327717863},{"NoteNumber":81,"Velocity":66,"Duration":205421,"SoundDuration":205421,"Delta":327717863},{"NoteNumber":89,"Velocity":71,"Duration":102798,"SoundDuration":102798,"Delta":327820486},{"NoteNumber":95,"Velocity":78,"Duration":103092,"SoundDuration":103092,"Delta":327923285},{"NoteNumber":73,"Velocity":56,"Duration":206481,"SoundDuration":206481,"Delta":327923285},{"NoteNumber":80,"Velocity":66,"Duration":206481,"SoundDuration":206481,"Delta":327923285},{"NoteNumber":101,"Velocity":70,"Duration":103388,"SoundDuration":103388,"Delta":328026377},{"NoteNumber":96,"Velocity":79,"Duration":103567,"SoundDuration":103567,"Delta":328129766},{"NoteNumber":72,"Velocity":56,"Duration":207373,"SoundDuration":207373,"Delta":328129766},{"NoteNumber":81,"Velocity":66,"Duration":207373,"SoundDuration":207373,"Delta":328129766},{"NoteNumber":89,"Velocity":70,"Duration":103806,"SoundDuration":103806,"Delta":328233334},{"NoteNumber":95,"Velocity":78,"Duration":104166,"SoundDuration":104166,"Delta":328337140},{"NoteNumber":73,"Velocity":56,"Duration":219109,"SoundDuration":219109,"Delta":328337140},{"NoteNumber":80,"Velocity":66,"Duration":219109,"SoundDuration":219109,"Delta":328337140},{"NoteNumber":101,"Velocity":68,"Duration":114942,"SoundDuration":114942,"Delta":328441307},{"NoteNumber":96,"Velocity":78,"Duration":120000,"SoundDuration":120000,"Delta":328556250},{"NoteNumber":89,"Velocity":78,"Duration":120000,"SoundDuration":120000,"Delta":328556250},{"NoteNumber":72,"Velocity":55,"Duration":120000,"SoundDuration":120000,"Delta":328556250},{"NoteNumber":81,"Velocity":64,"Duration":120000,"SoundDuration":120000,"Delta":328556250},{"NoteNumber":63,"Velocity":56,"Duration":818182,"SoundDuration":818182,"Delta":329276250},{"NoteNumber":66,"Velocity":56,"Duration":818182,"SoundDuration":818182,"Delta":329276250},{"NoteNumber":72,"Velocity":66,"Duration":818182,"SoundDuration":818182,"Delta":329276250},{"NoteNumber":48,"Velocity":59,"Duration":818182,"SoundDuration":818182,"Delta":329276250},{"NoteNumber":57,"Velocity":70,"Duration":818182,"SoundDuration":818182,"Delta":329276250},{"NoteNumber":67,"Velocity":56,"Duration":1636365,"SoundDuration":1636365,"Delta":330094432},{"NoteNumber":64,"Velocity":56,"Duration":818182,"SoundDuration":818182,"Delta":330094432},{"NoteNumber":72,"Velocity":68,"Duration":3220295,"SoundDuration":3220295,"Delta":330094432},{"NoteNumber":48,"Velocity":59,"Duration":3220295,"SoundDuration":3220295,"Delta":330094432},{"NoteNumber":58,"Velocity":77,"Duration":3220295,"SoundDuration":3220295,"Delta":330094432},{"NoteNumber":64,"Velocity":61,"Duration":818182,"SoundDuration":818182,"Delta":330912615},{"NoteNumber":67,"Velocity":61,"Duration":878048,"SoundDuration":878048,"Delta":331730797},{"NoteNumber":67,"Velocity":60,"Duration":1411764,"SoundDuration":1411764,"Delta":332608846},{"NoteNumber":63,"Velocity":42,"Duration":433393,"SoundDuration":433393,"Delta":334726492},{"NoteNumber":69,"Velocity":50,"Duration":433393,"SoundDuration":433393,"Delta":334726492},{"NoteNumber":48,"Velocity":34,"Duration":433393,"SoundDuration":433393,"Delta":334726492},{"NoteNumber":54,"Velocity":34,"Duration":433393,"SoundDuration":433393,"Delta":334726492},{"NoteNumber":60,"Velocity":40,"Duration":433393,"SoundDuration":433393,"Delta":334726492},{"NoteNumber":63,"Velocity":40,"Duration":217153,"SoundDuration":217153,"Delta":335164448},{"NoteNumber":69,"Velocity":48,"Duration":217153,"SoundDuration":217153,"Delta":335164448},{"NoteNumber":48,"Velocity":30,"Duration":217153,"SoundDuration":217153,"Delta":335164448},{"NoteNumber":54,"Velocity":30,"Duration":217153,"SoundDuration":217153,"Delta":335164448},{"NoteNumber":60,"Velocity":36,"Duration":217153,"SoundDuration":217153,"Delta":335164448},{"NoteNumber":64,"Velocity":45,"Duration":429735,"SoundDuration":429735,"Delta":335383426},{"NoteNumber":70,"Velocity":54,"Duration":429735,"SoundDuration":429735,"Delta":335383426},{"NoteNumber":48,"Velocity":34,"Duration":429735,"SoundDuration":429735,"Delta":335383426},{"NoteNumber":55,"Velocity":34,"Duration":429735,"SoundDuration":429735,"Delta":335383426},{"NoteNumber":60,"Velocity":40,"Duration":429735,"SoundDuration":429735,"Delta":335383426},{"NoteNumber":64,"Velocity":43,"Duration":210992,"SoundDuration":210992,"Delta":335817594},{"NoteNumber":70,"Velocity":52,"Duration":210992,"SoundDuration":210992,"Delta":335817594},{"NoteNumber":48,"Velocity":31,"Duration":210992,"SoundDuration":210992,"Delta":335817594},{"NoteNumber":55,"Velocity":31,"Duration":210992,"SoundDuration":210992,"Delta":335817594},{"NoteNumber":60,"Velocity":37,"Duration":210992,"SoundDuration":210992,"Delta":335817594},{"NoteNumber":65,"Velocity":47,"Duration":428799,"SoundDuration":428799,"Delta":336030360},{"NoteNumber":71,"Velocity":56,"Duration":428799,"SoundDuration":428799,"Delta":336030360},{"NoteNumber":48,"Velocity":38,"Duration":428799,"SoundDuration":428799,"Delta":336030360},{"NoteNumber":56,"Velocity":38,"Duration":428799,"SoundDuration":428799,"Delta":336030360},{"NoteNumber":62,"Velocity":46,"Duration":428799,"SoundDuration":428799,"Delta":336030360},{"NoteNumber":65,"Velocity":45,"Duration":212499,"SoundDuration":212499,"Delta":336463624},{"NoteNumber":77,"Velocity":54,"Duration":212499,"SoundDuration":212499,"Delta":336463624},{"NoteNumber":48,"Velocity":36,"Duration":212499,"SoundDuration":212499,"Delta":336463624},{"NoteNumber":56,"Velocity":36,"Duration":212499,"SoundDuration":212499,"Delta":336463624},{"NoteNumber":62,"Velocity":42,"Duration":212499,"SoundDuration":212499,"Delta":336463624},{"NoteNumber":65,"Velocity":49,"Duration":434981,"SoundDuration":434981,"Delta":336677909},{"NoteNumber":72,"Velocity":58,"Duration":434981,"SoundDuration":434981,"Delta":336677909},{"NoteNumber":48,"Velocity":41,"Duration":434981,"SoundDuration":434981,"Delta":336677909},{"NoteNumber":57,"Velocity":41,"Duration":434981,"SoundDuration":434981,"Delta":336677909},{"NoteNumber":60,"Velocity":49,"Duration":434981,"SoundDuration":434981,"Delta":336677909},{"NoteNumber":65,"Velocity":49,"Duration":235177,"SoundDuration":235177,"Delta":337117469},{"NoteNumber":48,"Velocity":39,"Duration":235177,"SoundDuration":235177,"Delta":337117469},{"NoteNumber":57,"Velocity":39,"Duration":235177,"SoundDuration":235177,"Delta":337117469},{"NoteNumber":60,"Velocity":46,"Duration":235177,"SoundDuration":235177,"Delta":337117469},{"NoteNumber":69,"Velocity":53,"Duration":430254,"SoundDuration":430254,"Delta":337354623},{"NoteNumber":74,"Velocity":63,"Duration":430254,"SoundDuration":430254,"Delta":337354623},{"NoteNumber":48,"Velocity":45,"Duration":430254,"SoundDuration":430254,"Delta":337354623},{"NoteNumber":54,"Velocity":45,"Duration":430254,"SoundDuration":430254,"Delta":337354623},{"NoteNumber":62,"Velocity":53,"Duration":430254,"SoundDuration":430254,"Delta":337354623},{"NoteNumber":69,"Velocity":51,"Duration":220370,"SoundDuration":220370,"Delta":337789406},{"NoteNumber":74,"Velocity":61,"Duration":220370,"SoundDuration":220370,"Delta":337789406},{"NoteNumber":48,"Velocity":40,"Duration":220370,"SoundDuration":220370,"Delta":337789406},{"NoteNumber":54,"Velocity":40,"Duration":220370,"SoundDuration":220370,"Delta":337789406},{"NoteNumber":62,"Velocity":48,"Duration":220370,"SoundDuration":220370,"Delta":337789406},{"NoteNumber":70,"Velocity":50,"Duration":353226,"SoundDuration":353226,"Delta":338011628},{"NoteNumber":74,"Velocity":60,"Duration":353226,"SoundDuration":353226,"Delta":338011628},{"NoteNumber":48,"Velocity":41,"Duration":353226,"SoundDuration":353226,"Delta":338011628},{"NoteNumber":55,"Velocity":41,"Duration":353226,"SoundDuration":353226,"Delta":338011628},{"NoteNumber":62,"Velocity":49,"Duration":353226,"SoundDuration":353226,"Delta":338011628},{"NoteNumber":48,"Velocity":25,"Duration":240698,"SoundDuration":240698,"Delta":338364854},{"NoteNumber":55,"Velocity":32,"Duration":217352,"SoundDuration":217352,"Delta":338388201},{"NoteNumber":62,"Velocity":33,"Duration":194005,"SoundDuration":194005,"Delta":338411547},{"NoteNumber":70,"Velocity":44,"Duration":170659,"SoundDuration":170659,"Delta":338434893},{"NoteNumber":74,"Velocity":52,"Duration":147313,"SoundDuration":147313,"Delta":338458240},{"NoteNumber":82,"Velocity":58,"Duration":123966,"SoundDuration":123966,"Delta":338481586},{"NoteNumber":48,"Velocity":30,"Duration":476755,"SoundDuration":476755,"Delta":338605553},{"NoteNumber":54,"Velocity":30,"Duration":453226,"SoundDuration":453226,"Delta":338629082},{"NoteNumber":63,"Velocity":37,"Duration":429697,"SoundDuration":429697,"Delta":338652612},{"NoteNumber":69,"Velocity":40,"Duration":406167,"SoundDuration":406167,"Delta":338676141},{"NoteNumber":72,"Velocity":49,"Duration":382638,"SoundDuration":382638,"Delta":338699670},{"NoteNumber":81,"Velocity":56,"Duration":359108,"SoundDuration":359108,"Delta":338723200},{"NoteNumber":48,"Velocity":28,"Duration":245647,"SoundDuration":245647,"Delta":339082309},{"NoteNumber":55,"Velocity":28,"Duration":222833,"SoundDuration":222833,"Delta":339105123},{"NoteNumber":64,"Velocity":34,"Duration":200020,"SoundDuration":200020,"Delta":339127936},{"NoteNumber":70,"Velocity":39,"Duration":177206,"SoundDuration":177206,"Delta":339150750},{"NoteNumber":72,"Velocity":46,"Duration":154392,"SoundDuration":154392,"Delta":339173564},{"NoteNumber":79,"Velocity":52,"Duration":131578,"SoundDuration":131578,"Delta":339196377},{"NoteNumber":48,"Velocity":27,"Duration":598569,"SoundDuration":598569,"Delta":339327956},{"NoteNumber":57,"Velocity":27,"Duration":574473,"SoundDuration":574473,"Delta":339352053},{"NoteNumber":65,"Velocity":33,"Duration":550377,"SoundDuration":550377,"Delta":339376149},{"NoteNumber":69,"Velocity":34,"Duration":526280,"SoundDuration":526280,"Delta":339400246},{"NoteNumber":72,"Velocity":39,"Duration":502184,"SoundDuration":502184,"Delta":339424342},{"NoteNumber":77,"Velocity":50,"Duration":478088,"SoundDuration":478088,"Delta":339448438},{"NoteNumber":48,"Velocity":31,"Duration":179282,"SoundDuration":179282,"Delta":339926526},{"NoteNumber":48,"Velocity":34,"Duration":451917,"SoundDuration":451917,"Delta":340105809},{"NoteNumber":54,"Velocity":40,"Duration":422037,"SoundDuration":422037,"Delta":340135690},{"NoteNumber":99,"Velocity":40,"Duration":98039,"SoundDuration":98039,"Delta":340165570},{"NoteNumber":63,"Velocity":40,"Duration":392156,"SoundDuration":392156,"Delta":340165570},{"NoteNumber":98,"Velocity":39,"Duration":98039,"SoundDuration":98039,"Delta":340263610},{"NoteNumber":101,"Velocity":42,"Duration":98039,"SoundDuration":98039,"Delta":340361649},{"NoteNumber":99,"Velocity":39,"Duration":98039,"SoundDuration":98039,"Delta":340459688},{"NoteNumber":98,"Velocity":39,"Duration":98039,"SoundDuration":98039,"Delta":340557727},{"NoteNumber":48,"Velocity":40,"Duration":147058,"SoundDuration":147058,"Delta":340557727},{"NoteNumber":96,"Velocity":39,"Duration":98039,"SoundDuration":98039,"Delta":340655767},{"NoteNumber":48,"Velocity":38,"Duration":447214,"SoundDuration":447214,"Delta":340704786},{"NoteNumber":55,"Velocity":38,"Duration":422704,"SoundDuration":422704,"Delta":340729296},{"NoteNumber":94,"Velocity":41,"Duration":101695,"SoundDuration":101695,"Delta":340753806},{"NoteNumber":62,"Velocity":45,"Duration":398194,"SoundDuration":398194,"Delta":340753806},{"NoteNumber":93,"Velocity":39,"Duration":101695,"SoundDuration":101695,"Delta":340855501},{"NoteNumber":96,"Velocity":43,"Duration":97402,"SoundDuration":97402,"Delta":340957196},{"NoteNumber":94,"Velocity":39,"Duration":97402,"SoundDuration":97402,"Delta":341054598},{"NoteNumber":93,"Velocity":39,"Duration":97402,"SoundDuration":97402,"Delta":341152001},{"NoteNumber":48,"Velocity":42,"Duration":146103,"SoundDuration":146103,"Delta":341152001},{"NoteNumber":91,"Velocity":39,"Duration":97402,"SoundDuration":97402,"Delta":341249403},{"NoteNumber":48,"Velocity":37,"Duration":444848,"SoundDuration":444848,"Delta":341298105},{"NoteNumber":56,"Velocity":45,"Duration":420498,"SoundDuration":420498,"Delta":341322455},{"NoteNumber":89,"Velocity":42,"Duration":100671,"SoundDuration":100671,"Delta":341346806},{"NoteNumber":65,"Velocity":45,"Duration":396147,"SoundDuration":396147,"Delta":341346806},{"NoteNumber":88,"Velocity":39,"Duration":100671,"SoundDuration":100671,"Delta":341447477},{"NoteNumber":91,"Velocity":44,"Duration":97402,"SoundDuration":97402,"Delta":341548148},{"NoteNumber":89,"Velocity":40,"Duration":97402,"SoundDuration":97402,"Delta":341645551},{"NoteNumber":88,"Velocity":40,"Duration":97402,"SoundDuration":97402,"Delta":341742953},{"NoteNumber":48,"Velocity":42,"Duration":146103,"SoundDuration":146103,"Delta":341742953},{"NoteNumber":86,"Velocity":40,"Duration":97402,"SoundDuration":97402,"Delta":341840356},{"NoteNumber":48,"Velocity":37,"Duration":442487,"SoundDuration":442487,"Delta":341889057},{"NoteNumber":57,"Velocity":37,"Duration":418136,"SoundDuration":418136,"Delta":341913408},{"NoteNumber":84,"Velocity":42,"Duration":100000,"SoundDuration":100000,"Delta":341937758},{"NoteNumber":60,"Velocity":45,"Duration":393785,"SoundDuration":393785,"Delta":341937758},{"NoteNumber":83,"Velocity":40,"Duration":99999,"SoundDuration":99999,"Delta":342037758},{"NoteNumber":86,"Velocity":45,"Duration":96893,"SoundDuration":96893,"Delta":342137758},{"NoteNumber":84,"Velocity":41,"Duration":96892,"SoundDuration":96892,"Delta":342234651},{"NoteNumber":82,"Velocity":41,"Duration":96893,"SoundDuration":96893,"Delta":342331544},{"NoteNumber":48,"Velocity":42,"Duration":145339,"SoundDuration":145339,"Delta":342331544},{"NoteNumber":81,"Velocity":42,"Duration":96892,"SoundDuration":96892,"Delta":342428437},{"NoteNumber":48,"Velocity":42,"Duration":440173,"SoundDuration":440173,"Delta":342476884},{"NoteNumber":54,"Velocity":42,"Duration":415950,"SoundDuration":415950,"Delta":342501107},{"NoteNumber":86,"Velocity":44,"Duration":98970,"SoundDuration":98970,"Delta":342525330},{"NoteNumber":62,"Velocity":51,"Duration":391727,"SoundDuration":391727,"Delta":342525330},{"NoteNumber":85,"Velocity":42,"Duration":98970,"SoundDuration":98970,"Delta":342624301},{"NoteNumber":87,"Velocity":47,"Duration":96893,"SoundDuration":96893,"Delta":342723272},{"NoteNumber":86,"Velocity":43,"Duration":96892,"SoundDuration":96892,"Delta":342820165},{"NoteNumber":84,"Velocity":43,"Duration":96893,"SoundDuration":96893,"Delta":342917058},{"NoteNumber":48,"Velocity":47,"Duration":145339,"SoundDuration":145339,"Delta":342917058},{"NoteNumber":81,"Velocity":43,"Duration":96892,"SoundDuration":96892,"Delta":343013951},{"NoteNumber":48,"Velocity":42,"Duration":440881,"SoundDuration":440881,"Delta":343062397},{"NoteNumber":55,"Velocity":42,"Duration":416658,"SoundDuration":416658,"Delta":343086621},{"NoteNumber":82,"Velocity":47,"Duration":99324,"SoundDuration":99324,"Delta":343110844},{"NoteNumber":62,"Velocity":51,"Duration":392434,"SoundDuration":392434,"Delta":343110844},{"NoteNumber":81,"Velocity":43,"Duration":99324,"SoundDuration":99324,"Delta":343210168},{"NoteNumber":84,"Velocity":48,"Duration":96893,"SoundDuration":96893,"Delta":343309493},{"NoteNumber":82,"Velocity":44,"Duration":96892,"SoundDuration":96892,"Delta":343406386},{"NoteNumber":79,"Velocity":44,"Duration":96893,"SoundDuration":96893,"Delta":343503279},{"NoteNumber":48,"Velocity":47,"Duration":145339,"SoundDuration":145339,"Delta":343503279},{"NoteNumber":74,"Velocity":44,"Duration":96892,"SoundDuration":96892,"Delta":343600172},{"NoteNumber":48,"Velocity":43,"Duration":440881,"SoundDuration":440881,"Delta":343648618},{"NoteNumber":52,"Velocity":43,"Duration":416658,"SoundDuration":416658,"Delta":343672842},{"NoteNumber":72,"Velocity":48,"Duration":99324,"SoundDuration":99324,"Delta":343697065},{"NoteNumber":60,"Velocity":52,"Duration":392434,"SoundDuration":392434,"Delta":343697065},{"NoteNumber":71,"Velocity":45,"Duration":99324,"SoundDuration":99324,"Delta":343796389},{"NoteNumber":74,"Velocity":50,"Duration":96893,"SoundDuration":96893,"Delta":343895714},{"NoteNumber":72,"Velocity":45,"Duration":96892,"SoundDuration":96892,"Delta":343992607},{"NoteNumber":70,"Velocity":45,"Duration":96893,"SoundDuration":96893,"Delta":344089500},{"NoteNumber":48,"Velocity":50,"Duration":145339,"SoundDuration":145339,"Delta":344089500},{"NoteNumber":67,"Velocity":45,"Duration":96892,"SoundDuration":96892,"Delta":344186393},{"NoteNumber":48,"Velocity":45,"Duration":440173,"SoundDuration":440173,"Delta":344234839},{"NoteNumber":53,"Velocity":45,"Duration":415950,"SoundDuration":415950,"Delta":344259063},{"NoteNumber":69,"Velocity":48,"Duration":98970,"SoundDuration":98970,"Delta":344283286},{"NoteNumber":60,"Velocity":53,"Duration":391727,"SoundDuration":391727,"Delta":344283286},{"NoteNumber":68,"Velocity":45,"Duration":98970,"SoundDuration":98970,"Delta":344382257},{"NoteNumber":70,"Velocity":51,"Duration":96893,"SoundDuration":96893,"Delta":344481227},{"NoteNumber":69,"Velocity":45,"Duration":96892,"SoundDuration":96892,"Delta":344578120},{"NoteNumber":65,"Velocity":47,"Duration":96893,"SoundDuration":96893,"Delta":344675013},{"NoteNumber":48,"Velocity":51,"Duration":193785,"SoundDuration":193785,"Delta":344675013},{"NoteNumber":69,"Velocity":47,"Duration":96892,"SoundDuration":96892,"Delta":344771906},{"NoteNumber":63,"Velocity":55,"Duration":384219,"SoundDuration":384219,"Delta":344868799},{"NoteNumber":48,"Velocity":41,"Duration":380238,"SoundDuration":380238,"Delta":344868799},{"NoteNumber":54,"Velocity":44,"Duration":380238,"SoundDuration":380238,"Delta":344868799},{"NoteNumber":60,"Velocity":51,"Duration":380238,"SoundDuration":380238,"Delta":344868799},{"NoteNumber":69,"Velocity":51,"Duration":96556,"SoundDuration":96556,"Delta":344965356},{"NoteNumber":68,"Velocity":51,"Duration":95553,"SoundDuration":95553,"Delta":345061912},{"NoteNumber":69,"Velocity":51,"Duration":95553,"SoundDuration":95553,"Delta":345157465},{"NoteNumber":63,"Velocity":52,"Duration":191106,"SoundDuration":191106,"Delta":345253019},{"NoteNumber":70,"Velocity":48,"Duration":95553,"SoundDuration":95553,"Delta":345253019},{"NoteNumber":48,"Velocity":35,"Duration":189514,"SoundDuration":189514,"Delta":345253019},{"NoteNumber":54,"Velocity":41,"Duration":189514,"SoundDuration":189514,"Delta":345253019},{"NoteNumber":60,"Velocity":51,"Duration":189514,"SoundDuration":189514,"Delta":345253019},{"NoteNumber":69,"Velocity":48,"Duration":95553,"SoundDuration":95553,"Delta":345348572},{"NoteNumber":64,"Velocity":56,"Duration":389048,"SoundDuration":389048,"Delta":345444126},{"NoteNumber":48,"Velocity":47,"Duration":385067,"SoundDuration":385067,"Delta":345444126},{"NoteNumber":55,"Velocity":47,"Duration":385067,"SoundDuration":385067,"Delta":345444126},{"NoteNumber":60,"Velocity":58,"Duration":385067,"SoundDuration":385067,"Delta":345444126},{"NoteNumber":70,"Velocity":53,"Duration":98970,"SoundDuration":98970,"Delta":345543097},{"NoteNumber":69,"Velocity":53,"Duration":95553,"SoundDuration":95553,"Delta":345642067},{"NoteNumber":70,"Velocity":53,"Duration":95553,"SoundDuration":95553,"Delta":345737621},{"NoteNumber":64,"Velocity":53,"Duration":191106,"SoundDuration":191106,"Delta":345833174},{"NoteNumber":72,"Velocity":51,"Duration":95553,"SoundDuration":95553,"Delta":345833174},{"NoteNumber":48,"Velocity":44,"Duration":189514,"SoundDuration":189514,"Delta":345833174},{"NoteNumber":55,"Velocity":44,"Duration":189514,"SoundDuration":189514,"Delta":345833174},{"NoteNumber":60,"Velocity":53,"Duration":189514,"SoundDuration":189514,"Delta":345833174},{"NoteNumber":70,"Velocity":51,"Duration":95553,"SoundDuration":95553,"Delta":345928728},{"NoteNumber":65,"Velocity":58,"Duration":389755,"SoundDuration":389755,"Delta":346024281},{"NoteNumber":48,"Velocity":46,"Duration":385774,"SoundDuration":385774,"Delta":346024281},{"NoteNumber":56,"Velocity":46,"Duration":385774,"SoundDuration":385774,"Delta":346024281},{"NoteNumber":62,"Velocity":57,"Duration":385774,"SoundDuration":385774,"Delta":346024281},{"NoteNumber":71,"Velocity":54,"Duration":99324,"SoundDuration":99324,"Delta":346123606},{"NoteNumber":70,"Velocity":54,"Duration":95553,"SoundDuration":95553,"Delta":346222930},{"NoteNumber":71,"Velocity":54,"Duration":95553,"SoundDuration":95553,"Delta":346318484},{"NoteNumber":65,"Velocity":56,"Duration":191106,"SoundDuration":191106,"Delta":346414037},{"NoteNumber":72,"Velocity":53,"Duration":95553,"SoundDuration":95553,"Delta":346414037},{"NoteNumber":48,"Velocity":44,"Duration":189514,"SoundDuration":189514,"Delta":346414037},{"NoteNumber":56,"Velocity":54,"Duration":189514,"SoundDuration":189514,"Delta":346414037},{"NoteNumber":62,"Velocity":54,"Duration":189514,"SoundDuration":189514,"Delta":346414037},{"NoteNumber":71,"Velocity":53,"Duration":95553,"SoundDuration":95553,"Delta":346509591},{"NoteNumber":65,"Velocity":61,"Duration":389048,"SoundDuration":389048,"Delta":346605144},{"NoteNumber":48,"Velocity":46,"Duration":389048,"SoundDuration":389048,"Delta":346605144},{"NoteNumber":57,"Velocity":46,"Duration":580155,"SoundDuration":580155,"Delta":346605144},{"NoteNumber":60,"Velocity":56,"Duration":580155,"SoundDuration":580155,"Delta":346605144},{"NoteNumber":72,"Velocity":55,"Duration":98970,"SoundDuration":98970,"Delta":346704115},{"NoteNumber":71,"Velocity":55,"Duration":95553,"SoundDuration":95553,"Delta":346803086},{"NoteNumber":72,"Velocity":56,"Duration":95553,"SoundDuration":95553,"Delta":346898639},{"NoteNumber":74,"Velocity":53,"Duration":95553,"SoundDuration":95553,"Delta":346994193},{"NoteNumber":48,"Velocity":54,"Duration":191106,"SoundDuration":191106,"Delta":346994193},{"NoteNumber":72,"Velocity":53,"Duration":95553,"SoundDuration":95553,"Delta":347089746},{"NoteNumber":69,"Velocity":62,"Duration":389708,"SoundDuration":389708,"Delta":347185300},{"NoteNumber":48,"Velocity":53,"Duration":389708,"SoundDuration":389708,"Delta":347185300},{"NoteNumber":54,"Velocity":53,"Duration":389708,"SoundDuration":389708,"Delta":347185300},{"NoteNumber":62,"Velocity":62,"Duration":389708,"SoundDuration":389708,"Delta":347185300},{"NoteNumber":74,"Velocity":57,"Duration":98970,"SoundDuration":98970,"Delta":347284271},{"NoteNumber":73,"Velocity":57,"Duration":95883,"SoundDuration":95883,"Delta":347383241},{"NoteNumber":74,"Velocity":57,"Duration":95883,"SoundDuration":95883,"Delta":347479125},{"NoteNumber":69,"Velocity":59,"Duration":191766,"SoundDuration":191766,"Delta":347575008},{"NoteNumber":76,"Velocity":56,"Duration":95883,"SoundDuration":95883,"Delta":347575008},{"NoteNumber":48,"Velocity":51,"Duration":191766,"SoundDuration":191766,"Delta":347575008},{"NoteNumber":54,"Velocity":51,"Duration":191766,"SoundDuration":191766,"Delta":347575008},{"NoteNumber":62,"Velocity":60,"Duration":191766,"SoundDuration":191766,"Delta":347575008},{"NoteNumber":74,"Velocity":56,"Duration":95883,"SoundDuration":95883,"Delta":347670892},{"NoteNumber":74,"Velocity":63,"Duration":385330,"SoundDuration":385330,"Delta":347766775},{"NoteNumber":46,"Velocity":64,"Duration":194878,"SoundDuration":194878,"Delta":347766775},{"NoteNumber":79,"Velocity":58,"Duration":95553,"SoundDuration":95553,"Delta":347866100},{"NoteNumber":78,"Velocity":58,"Duration":95226,"SoundDuration":95226,"Delta":347961653},{"NoteNumber":62,"Velocity":56,"Duration":190451,"SoundDuration":190451,"Delta":347961653},{"NoteNumber":79,"Velocity":58,"Duration":95225,"SoundDuration":95225,"Delta":348056879},{"NoteNumber":74,"Velocity":60,"Duration":190451,"SoundDuration":190451,"Delta":348152105},{"NoteNumber":81,"Velocity":57,"Duration":95226,"SoundDuration":95226,"Delta":348152105},{"NoteNumber":67,"Velocity":57,"Duration":190451,"SoundDuration":190451,"Delta":348152105},{"NoteNumber":79,"Velocity":58,"Duration":95225,"SoundDuration":95225,"Delta":348247331},{"NoteNumber":79,"Velocity":67,"Duration":385330,"SoundDuration":385330,"Delta":348342557},{"NoteNumber":58,"Velocity":66,"Duration":575782,"SoundDuration":575782,"Delta":348342557},{"NoteNumber":84,"Velocity":61,"Duration":95553,"SoundDuration":95553,"Delta":348441882},{"NoteNumber":83,"Velocity":61,"Duration":95226,"SoundDuration":95226,"Delta":348537435},{"NoteNumber":60,"Velocity":56,"Duration":190451,"SoundDuration":190451,"Delta":348537435},{"NoteNumber":84,"Velocity":61,"Duration":95225,"SoundDuration":95225,"Delta":348632661},{"NoteNumber":79,"Velocity":67,"Duration":190451,"SoundDuration":190451,"Delta":348727887},{"NoteNumber":86,"Velocity":59,"Duration":95226,"SoundDuration":95226,"Delta":348727887},{"NoteNumber":64,"Velocity":58,"Duration":190451,"SoundDuration":190451,"Delta":348727887},{"NoteNumber":84,"Velocity":59,"Duration":95225,"SoundDuration":95225,"Delta":348823113},{"NoteNumber":84,"Velocity":69,"Duration":383672,"SoundDuration":383672,"Delta":348918339},{"NoteNumber":57,"Velocity":67,"Duration":573474,"SoundDuration":573474,"Delta":348918339},{"NoteNumber":89,"Velocity":61,"Duration":94900,"SoundDuration":94900,"Delta":349017310},{"NoteNumber":88,"Velocity":63,"Duration":94900,"SoundDuration":94900,"Delta":349112211},{"NoteNumber":60,"Velocity":59,"Duration":189801,"SoundDuration":189801,"Delta":349112211},{"NoteNumber":89,"Velocity":59,"Duration":94900,"SoundDuration":94900,"Delta":349207112},{"NoteNumber":84,"Velocity":66,"Duration":189801,"SoundDuration":189801,"Delta":349302012},{"NoteNumber":91,"Velocity":61,"Duration":94900,"SoundDuration":94900,"Delta":349302012},{"NoteNumber":65,"Velocity":61,"Duration":189801,"SoundDuration":189801,"Delta":349302012},{"NoteNumber":89,"Velocity":61,"Duration":94900,"SoundDuration":94900,"Delta":349396913},{"NoteNumber":86,"Velocity":65,"Duration":93167,"SoundDuration":93167,"Delta":349491814},{"NoteNumber":58,"Velocity":70,"Duration":570966,"SoundDuration":570966,"Delta":349491814},{"NoteNumber":85,"Velocity":60,"Duration":93167,"SoundDuration":93167,"Delta":349584982},{"NoteNumber":88,"Velocity":66,"Duration":95541,"SoundDuration":95541,"Delta":349678149},{"NoteNumber":62,"Velocity":62,"Duration":191082,"SoundDuration":191082,"Delta":349678149},{"NoteNumber":86,"Velocity":63,"Duration":95541,"SoundDuration":95541,"Delta":349773691},{"NoteNumber":79,"Velocity":72,"Duration":193548,"SoundDuration":193548,"Delta":349869232},{"NoteNumber":67,"Velocity":63,"Duration":193548,"SoundDuration":193548,"Delta":349869232},{"NoteNumber":88,"Velocity":75,"Duration":381996,"SoundDuration":381996,"Delta":350062781},{"NoteNumber":60,"Velocity":74,"Duration":571151,"SoundDuration":571151,"Delta":350062781},{"NoteNumber":93,"Velocity":68,"Duration":94577,"SoundDuration":94577,"Delta":350161045},{"NoteNumber":92,"Velocity":69,"Duration":94577,"SoundDuration":94577,"Delta":350255622},{"NoteNumber":64,"Velocity":65,"Duration":189154,"SoundDuration":189154,"Delta":350255622},{"NoteNumber":93,"Velocity":63,"Duration":94577,"SoundDuration":94577,"Delta":350350200},{"NoteNumber":88,"Velocity":72,"Duration":189155,"SoundDuration":189155,"Delta":350444777},{"NoteNumber":94,"Velocity":64,"Duration":94577,"SoundDuration":94577,"Delta":350444777},{"NoteNumber":69,"Velocity":66,"Duration":189155,"SoundDuration":189155,"Delta":350444777},{"NoteNumber":93,"Velocity":65,"Duration":94577,"SoundDuration":94577,"Delta":350539355},{"NoteNumber":89,"Velocity":72,"Duration":92879,"SoundDuration":92879,"Delta":350633932},{"NoteNumber":62,"Velocity":75,"Duration":569180,"SoundDuration":569180,"Delta":350633932},{"NoteNumber":88,"Velocity":65,"Duration":92879,"SoundDuration":92879,"Delta":350726812},{"NoteNumber":91,"Velocity":73,"Duration":94936,"SoundDuration":94936,"Delta":350819691},{"NoteNumber":65,"Velocity":68,"Duration":189873,"SoundDuration":189873,"Delta":350819691},{"NoteNumber":89,"Velocity":67,"Duration":94936,"SoundDuration":94936,"Delta":350914628},{"NoteNumber":86,"Velocity":75,"Duration":193548,"SoundDuration":193548,"Delta":351009564},{"NoteNumber":70,"Velocity":69,"Duration":193548,"SoundDuration":193548,"Delta":351009564},{"NoteNumber":91,"Velocity":85,"Duration":379544,"SoundDuration":379544,"Delta":351203113},{"NoteNumber":64,"Velocity":84,"Duration":568057,"SoundDuration":568057,"Delta":351203113},{"NoteNumber":96,"Velocity":76,"Duration":94256,"SoundDuration":94256,"Delta":351299887},{"NoteNumber":95,"Velocity":78,"Duration":94256,"SoundDuration":94256,"Delta":351394144},{"NoteNumber":67,"Velocity":73,"Duration":188513,"SoundDuration":188513,"Delta":351394144},{"NoteNumber":96,"Velocity":72,"Duration":94256,"SoundDuration":94256,"Delta":351488401},{"NoteNumber":91,"Velocity":81,"Duration":188513,"SoundDuration":188513,"Delta":351582657},{"NoteNumber":98,"Velocity":72,"Duration":94256,"SoundDuration":94256,"Delta":351582657},{"NoteNumber":72,"Velocity":74,"Duration":188513,"SoundDuration":188513,"Delta":351582657},{"NoteNumber":96,"Velocity":74,"Duration":94256,"SoundDuration":94256,"Delta":351676914},{"NoteNumber":93,"Velocity":79,"Duration":96221,"SoundDuration":96221,"Delta":351771171},{"NoteNumber":65,"Velocity":82,"Duration":631800,"SoundDuration":631800,"Delta":351771171},{"NoteNumber":92,"Velocity":73,"Duration":96221,"SoundDuration":96221,"Delta":351867393},{"NoteNumber":94,"Velocity":80,"Duration":96221,"SoundDuration":96221,"Delta":351963614},{"NoteNumber":69,"Velocity":73,"Duration":192443,"SoundDuration":192443,"Delta":351963614},{"NoteNumber":93,"Velocity":73,"Duration":96221,"SoundDuration":96221,"Delta":352059836},{"NoteNumber":89,"Velocity":82,"Duration":246913,"SoundDuration":246913,"Delta":352156058},{"NoteNumber":72,"Velocity":73,"Duration":246913,"SoundDuration":246913,"Delta":352156058},{"NoteNumber":91,"Velocity":48,"Duration":83333,"SoundDuration":83333,"Delta":352402971},{"NoteNumber":53,"Velocity":40,"Duration":589039,"SoundDuration":589039,"Delta":352402971},{"NoteNumber":90,"Velocity":42,"Duration":83333,"SoundDuration":83333,"Delta":352486305},{"NoteNumber":93,"Velocity":48,"Duration":86705,"SoundDuration":86705,"Delta":352569638},{"NoteNumber":59,"Velocity":30,"Duration":164739,"SoundDuration":164739,"Delta":352569638},{"NoteNumber":62,"Velocity":30,"Duration":164739,"SoundDuration":164739,"Delta":352569638},{"NoteNumber":67,"Velocity":36,"Duration":164739,"SoundDuration":164739,"Delta":352569638},{"NoteNumber":91,"Velocity":42,"Duration":86705,"SoundDuration":86705,"Delta":352656343},{"NoteNumber":86,"Velocity":43,"Duration":248962,"SoundDuration":248962,"Delta":352743048},{"NoteNumber":59,"Velocity":30,"Duration":236514,"SoundDuration":236514,"Delta":352743048},{"NoteNumber":62,"Velocity":30,"Duration":236514,"SoundDuration":236514,"Delta":352743048},{"NoteNumber":67,"Velocity":36,"Duration":236514,"SoundDuration":236514,"Delta":352743048},{"NoteNumber":91,"Velocity":48,"Duration":83333,"SoundDuration":83333,"Delta":352992011},{"NoteNumber":53,"Velocity":40,"Duration":586637,"SoundDuration":586637,"Delta":352992011},{"NoteNumber":90,"Velocity":42,"Duration":83333,"SoundDuration":83333,"Delta":353075344},{"NoteNumber":93,"Velocity":48,"Duration":84985,"SoundDuration":84985,"Delta":353158677},{"NoteNumber":58,"Velocity":30,"Duration":161472,"SoundDuration":161472,"Delta":353158677},{"NoteNumber":61,"Velocity":30,"Duration":161472,"SoundDuration":161472,"Delta":353158677},{"NoteNumber":67,"Velocity":36,"Duration":161472,"SoundDuration":161472,"Delta":353158677},{"NoteNumber":91,"Velocity":42,"Duration":84985,"SoundDuration":84985,"Delta":353243663},{"NoteNumber":85,"Velocity":43,"Duration":250000,"SoundDuration":250000,"Delta":353328649},{"NoteNumber":58,"Velocity":30,"Duration":237500,"SoundDuration":237500,"Delta":353328649},{"NoteNumber":61,"Velocity":30,"Duration":237500,"SoundDuration":237500,"Delta":353328649},{"NoteNumber":67,"Velocity":36,"Duration":237500,"SoundDuration":237500,"Delta":353328649},{"NoteNumber":91,"Velocity":48,"Duration":83333,"SoundDuration":83333,"Delta":353578649},{"NoteNumber":53,"Velocity":40,"Duration":587057,"SoundDuration":587057,"Delta":353578649},{"NoteNumber":90,"Velocity":42,"Duration":83333,"SoundDuration":83333,"Delta":353661982},{"NoteNumber":93,"Velocity":48,"Duration":85714,"SoundDuration":85714,"Delta":353745315},{"NoteNumber":58,"Velocity":30,"Duration":162857,"SoundDuration":162857,"Delta":353745315},{"NoteNumber":60,"Velocity":30,"Duration":162857,"SoundDuration":162857,"Delta":353745315},{"NoteNumber":64,"Velocity":36,"Duration":162857,"SoundDuration":162857,"Delta":353745315},{"NoteNumber":91,"Velocity":42,"Duration":85714,"SoundDuration":85714,"Delta":353831030},{"NoteNumber":84,"Velocity":43,"Duration":248962,"SoundDuration":248962,"Delta":353916744},{"NoteNumber":58,"Velocity":30,"Duration":236514,"SoundDuration":236514,"Delta":353916744},{"NoteNumber":60,"Velocity":30,"Duration":236514,"SoundDuration":236514,"Delta":353916744},{"NoteNumber":64,"Velocity":36,"Duration":236514,"SoundDuration":236514,"Delta":353916744},{"NoteNumber":89,"Velocity":48,"Duration":413709,"SoundDuration":413709,"Delta":354165706},{"NoteNumber":53,"Velocity":40,"Duration":673450,"SoundDuration":673450,"Delta":354165706},{"NoteNumber":57,"Velocity":30,"Duration":210331,"SoundDuration":210331,"Delta":354358014},{"NoteNumber":60,"Velocity":30,"Duration":210331,"SoundDuration":210331,"Delta":354358014},{"NoteNumber":65,"Velocity":36,"Duration":210331,"SoundDuration":210331,"Delta":354358014},{"NoteNumber":101,"Velocity":43,"Duration":259740,"SoundDuration":259740,"Delta":354579416},{"NoteNumber":57,"Velocity":30,"Duration":246753,"SoundDuration":246753,"Delta":354579416},{"NoteNumber":60,"Velocity":30,"Duration":246753,"SoundDuration":246753,"Delta":354579416},{"NoteNumber":65,"Velocity":36,"Duration":246753,"SoundDuration":246753,"Delta":354579416},{"NoteNumber":90,"Velocity":48,"Duration":83333,"SoundDuration":83333,"Delta":354839156},{"NoteNumber":53,"Velocity":40,"Duration":613608,"SoundDuration":613608,"Delta":354839156},{"NoteNumber":93,"Velocity":42,"Duration":83333,"SoundDuration":83333,"Delta":354922490},{"NoteNumber":91,"Velocity":48,"Duration":86455,"SoundDuration":86455,"Delta":355005823},{"NoteNumber":59,"Velocity":30,"Duration":186827,"SoundDuration":186827,"Delta":355005823},{"NoteNumber":62,"Velocity":30,"Duration":186827,"SoundDuration":186827,"Delta":355005823},{"NoteNumber":67,"Velocity":36,"Duration":186827,"SoundDuration":186827,"Delta":355005823},{"NoteNumber":86,"Velocity":42,"Duration":111524,"SoundDuration":111524,"Delta":355092278},{"NoteNumber":98,"Velocity":50,"Duration":124481,"SoundDuration":124481,"Delta":355203802},{"NoteNumber":59,"Velocity":30,"Duration":236514,"SoundDuration":236514,"Delta":355203802},{"NoteNumber":62,"Velocity":30,"Duration":236514,"SoundDuration":236514,"Delta":355203802},{"NoteNumber":67,"Velocity":36,"Duration":236514,"SoundDuration":236514,"Delta":355203802},{"NoteNumber":90,"Velocity":48,"Duration":83333,"SoundDuration":83333,"Delta":355452765},{"NoteNumber":53,"Velocity":40,"Duration":606820,"SoundDuration":606820,"Delta":355452765},{"NoteNumber":93,"Velocity":42,"Duration":83333,"SoundDuration":83333,"Delta":355536098},{"NoteNumber":91,"Velocity":48,"Duration":86705,"SoundDuration":86705,"Delta":355619431},{"NoteNumber":58,"Velocity":30,"Duration":179808,"SoundDuration":179808,"Delta":355619431},{"NoteNumber":61,"Velocity":30,"Duration":179808,"SoundDuration":179808,"Delta":355619431},{"NoteNumber":67,"Velocity":36,"Duration":179808,"SoundDuration":179808,"Delta":355619431},{"NoteNumber":85,"Velocity":42,"Duration":103448,"SoundDuration":103448,"Delta":355706137},{"NoteNumber":97,"Velocity":49,"Duration":125000,"SoundDuration":125000,"Delta":355809585},{"NoteNumber":58,"Velocity":30,"Duration":237500,"SoundDuration":237500,"Delta":355809585},{"NoteNumber":61,"Velocity":30,"Duration":237500,"SoundDuration":237500,"Delta":355809585},{"NoteNumber":67,"Velocity":36,"Duration":237500,"SoundDuration":237500,"Delta":355809585},{"NoteNumber":90,"Velocity":48,"Duration":83333,"SoundDuration":83333,"Delta":356059585},{"NoteNumber":53,"Velocity":40,"Duration":620893,"SoundDuration":620893,"Delta":356059585},{"NoteNumber":93,"Velocity":42,"Duration":83333,"SoundDuration":83333,"Delta":356142918},{"NoteNumber":91,"Velocity":48,"Duration":87976,"SoundDuration":87976,"Delta":356226251},{"NoteNumber":58,"Velocity":30,"Duration":180759,"SoundDuration":180759,"Delta":356226251},{"NoteNumber":60,"Velocity":30,"Duration":180759,"SoundDuration":180759,"Delta":356226251},{"NoteNumber":64,"Velocity":36,"Duration":180759,"SoundDuration":180759,"Delta":356226251},{"NoteNumber":84,"Velocity":42,"Duration":103092,"SoundDuration":103092,"Delta":356314228},{"NoteNumber":96,"Velocity":49,"Duration":131578,"SoundDuration":131578,"Delta":356417321},{"NoteNumber":58,"Velocity":30,"Duration":250000,"SoundDuration":250000,"Delta":356417321},{"NoteNumber":60,"Velocity":30,"Duration":250000,"SoundDuration":250000,"Delta":356417321},{"NoteNumber":64,"Velocity":36,"Duration":250000,"SoundDuration":250000,"Delta":356417321},{"NoteNumber":92,"Velocity":48,"Duration":96153,"SoundDuration":96153,"Delta":356680479},{"NoteNumber":53,"Velocity":40,"Duration":703499,"SoundDuration":703499,"Delta":356680479},{"NoteNumber":94,"Velocity":42,"Duration":96153,"SoundDuration":96153,"Delta":356776632},{"NoteNumber":93,"Velocity":48,"Duration":110294,"SoundDuration":110294,"Delta":356872786},{"NoteNumber":57,"Velocity":30,"Duration":235294,"SoundDuration":235294,"Delta":356872786},{"NoteNumber":60,"Velocity":30,"Duration":235294,"SoundDuration":235294,"Delta":356872786},{"NoteNumber":65,"Velocity":36,"Duration":235294,"SoundDuration":235294,"Delta":356872786},{"NoteNumber":89,"Velocity":42,"Duration":138889,"SoundDuration":138889,"Delta":356983080},{"NoteNumber":101,"Velocity":50,"Duration":262008,"SoundDuration":262008,"Delta":357121969},{"NoteNumber":57,"Velocity":30,"Duration":248908,"SoundDuration":248908,"Delta":357121969},{"NoteNumber":60,"Velocity":30,"Duration":248908,"SoundDuration":248908,"Delta":357121969},{"NoteNumber":65,"Velocity":36,"Duration":248908,"SoundDuration":248908,"Delta":357121969},{"NoteNumber":98,"Velocity":60,"Duration":81743,"SoundDuration":81743,"Delta":357383978},{"NoteNumber":53,"Velocity":45,"Duration":500743,"SoundDuration":500743,"Delta":357383978},{"NoteNumber":97,"Velocity":55,"Duration":81743,"SoundDuration":81743,"Delta":357465721},{"NoteNumber":100,"Velocity":55,"Duration":81743,"SoundDuration":81743,"Delta":357547465},{"NoteNumber":62,"Velocity":40,"Duration":163487,"SoundDuration":163487,"Delta":357547465},{"NoteNumber":59,"Velocity":40,"Duration":337255,"SoundDuration":337255,"Delta":357547465},{"NoteNumber":98,"Velocity":55,"Duration":81743,"SoundDuration":81743,"Delta":357629209},{"NoteNumber":95,"Velocity":57,"Duration":81743,"SoundDuration":81743,"Delta":357710953},{"NoteNumber":67,"Velocity":40,"Duration":173768,"SoundDuration":173768,"Delta":357710953},{"NoteNumber":91,"Velocity":53,"Duration":92024,"SoundDuration":92024,"Delta":357792696},{"NoteNumber":97,"Velocity":60,"Duration":81967,"SoundDuration":81967,"Delta":357884721},{"NoteNumber":53,"Velocity":47,"Duration":501860,"SoundDuration":501860,"Delta":357884721},{"NoteNumber":96,"Velocity":55,"Duration":81967,"SoundDuration":81967,"Delta":357966688},{"NoteNumber":99,"Velocity":55,"Duration":81967,"SoundDuration":81967,"Delta":358048655},{"NoteNumber":61,"Velocity":40,"Duration":163934,"SoundDuration":163934,"Delta":358048655},{"NoteNumber":58,"Velocity":40,"Duration":337926,"SoundDuration":337926,"Delta":358048655},{"NoteNumber":97,"Velocity":55,"Duration":81967,"SoundDuration":81967,"Delta":358130623},{"NoteNumber":94,"Velocity":57,"Duration":81967,"SoundDuration":81967,"Delta":358212590},{"NoteNumber":67,"Velocity":40,"Duration":173991,"SoundDuration":173991,"Delta":358212590},{"NoteNumber":91,"Velocity":54,"Duration":92024,"SoundDuration":92024,"Delta":358294557},{"NoteNumber":94,"Velocity":61,"Duration":81743,"SoundDuration":81743,"Delta":358386582},{"NoteNumber":53,"Velocity":46,"Duration":500743,"SoundDuration":500743,"Delta":358386582},{"NoteNumber":93,"Velocity":55,"Duration":81743,"SoundDuration":81743,"Delta":358468325},{"NoteNumber":96,"Velocity":55,"Duration":81743,"SoundDuration":81743,"Delta":358550069},{"NoteNumber":60,"Velocity":40,"Duration":163487,"SoundDuration":163487,"Delta":358550069},{"NoteNumber":58,"Velocity":40,"Duration":337255,"SoundDuration":337255,"Delta":358550069},{"NoteNumber":94,"Velocity":55,"Duration":81743,"SoundDuration":81743,"Delta":358631813},{"NoteNumber":91,"Velocity":58,"Duration":81743,"SoundDuration":81743,"Delta":358713557},{"NoteNumber":64,"Velocity":40,"Duration":173768,"SoundDuration":173768,"Delta":358713557},{"NoteNumber":88,"Velocity":55,"Duration":92024,"SoundDuration":92024,"Delta":358795300},{"NoteNumber":93,"Velocity":60,"Duration":81967,"SoundDuration":81967,"Delta":358887325},{"NoteNumber":53,"Velocity":47,"Duration":501299,"SoundDuration":501299,"Delta":358887325},{"NoteNumber":92,"Velocity":55,"Duration":81967,"SoundDuration":81967,"Delta":358969292},{"NoteNumber":94,"Velocity":55,"Duration":81967,"SoundDuration":81967,"Delta":359051259},{"NoteNumber":60,"Velocity":40,"Duration":163934,"SoundDuration":163934,"Delta":359051259},{"NoteNumber":57,"Velocity":40,"Duration":337365,"SoundDuration":337365,"Delta":359051259},{"NoteNumber":93,"Velocity":55,"Duration":81967,"SoundDuration":81967,"Delta":359133227},{"NoteNumber":89,"Velocity":56,"Duration":81967,"SoundDuration":81967,"Delta":359215194},{"NoteNumber":65,"Velocity":40,"Duration":173430,"SoundDuration":173430,"Delta":359215194},{"NoteNumber":84,"Velocity":55,"Duration":91463,"SoundDuration":91463,"Delta":359297161},{"NoteNumber":86,"Velocity":60,"Duration":81967,"SoundDuration":81967,"Delta":359388625},{"NoteNumber":53,"Velocity":45,"Duration":501860,"SoundDuration":501860,"Delta":359388625},{"NoteNumber":85,"Velocity":55,"Duration":81967,"SoundDuration":81967,"Delta":359470592},{"NoteNumber":88,"Velocity":54,"Duration":81967,"SoundDuration":81967,"Delta":359552559},{"NoteNumber":62,"Velocity":39,"Duration":163934,"SoundDuration":163934,"Delta":359552559},{"NoteNumber":59,"Velocity":39,"Duration":337926,"SoundDuration":337926,"Delta":359552559},{"NoteNumber":86,"Velocity":53,"Duration":81967,"SoundDuration":81967,"Delta":359634526},{"NoteNumber":83,"Velocity":55,"Duration":81967,"SoundDuration":81967,"Delta":359716494},{"NoteNumber":67,"Velocity":38,"Duration":173991,"SoundDuration":173991,"Delta":359716494},{"NoteNumber":79,"Velocity":50,"Duration":92024,"SoundDuration":92024,"Delta":359798461},{"NoteNumber":85,"Velocity":57,"Duration":82191,"SoundDuration":82191,"Delta":359890485},{"NoteNumber":53,"Velocity":44,"Duration":502983,"SoundDuration":502983,"Delta":359890485},{"NoteNumber":84,"Velocity":52,"Duration":82191,"SoundDuration":82191,"Delta":359972677},{"NoteNumber":87,"Velocity":51,"Duration":82191,"SoundDuration":82191,"Delta":360054869},{"NoteNumber":61,"Velocity":37,"Duration":164383,"SoundDuration":164383,"Delta":360054869},{"NoteNumber":58,"Velocity":37,"Duration":338599,"SoundDuration":338599,"Delta":360054869},{"NoteNumber":85,"Velocity":51,"Duration":82191,"SoundDuration":82191,"Delta":360137061},{"NoteNumber":82,"Velocity":52,"Duration":82191,"SoundDuration":82191,"Delta":360219252},{"NoteNumber":67,"Velocity":36,"Duration":174216,"SoundDuration":174216,"Delta":360219252},{"NoteNumber":79,"Velocity":49,"Duration":92024,"SoundDuration":92024,"Delta":360301444},{"NoteNumber":82,"Velocity":54,"Duration":81967,"SoundDuration":81967,"Delta":360393469},{"NoteNumber":53,"Velocity":41,"Duration":501860,"SoundDuration":501860,"Delta":360393469},{"NoteNumber":81,"Velocity":49,"Duration":81967,"SoundDuration":81967,"Delta":360475436},{"NoteNumber":84,"Velocity":48,"Duration":81967,"SoundDuration":81967,"Delta":360557403},{"NoteNumber":60,"Velocity":35,"Duration":163934,"SoundDuration":163934,"Delta":360557403},{"NoteNumber":58,"Velocity":35,"Duration":337926,"SoundDuration":337926,"Delta":360557403},{"NoteNumber":82,"Velocity":48,"Duration":81967,"SoundDuration":81967,"Delta":360639370},{"NoteNumber":79,"Velocity":50,"Duration":81967,"SoundDuration":81967,"Delta":360721338},{"NoteNumber":64,"Velocity":34,"Duration":173991,"SoundDuration":173991,"Delta":360721338},{"NoteNumber":76,"Velocity":47,"Duration":92024,"SoundDuration":92024,"Delta":360803305},{"NoteNumber":81,"Velocity":51,"Duration":82417,"SoundDuration":82417,"Delta":360895329},{"NoteNumber":53,"Velocity":39,"Duration":503550,"SoundDuration":503550,"Delta":360895329},{"NoteNumber":80,"Velocity":46,"Duration":82417,"SoundDuration":82417,"Delta":360977747},{"NoteNumber":82,"Velocity":46,"Duration":82417,"SoundDuration":82417,"Delta":361060164},{"NoteNumber":60,"Velocity":33,"Duration":164835,"SoundDuration":164835,"Delta":361060164},{"NoteNumber":57,"Velocity":33,"Duration":338715,"SoundDuration":338715,"Delta":361060164},{"NoteNumber":81,"Velocity":45,"Duration":82417,"SoundDuration":82417,"Delta":361142582},{"NoteNumber":77,"Velocity":45,"Duration":82417,"SoundDuration":82417,"Delta":361224999},{"NoteNumber":65,"Velocity":32,"Duration":173880,"SoundDuration":173880,"Delta":361224999},{"NoteNumber":72,"Velocity":44,"Duration":91463,"SoundDuration":91463,"Delta":361307417},{"NoteNumber":74,"Velocity":48,"Duration":82644,"SoundDuration":82644,"Delta":361398880},{"NoteNumber":41,"Velocity":36,"Duration":505248,"SoundDuration":505248,"Delta":361398880},{"NoteNumber":73,"Velocity":44,"Duration":82644,"SoundDuration":82644,"Delta":361481525},{"NoteNumber":76,"Velocity":44,"Duration":82644,"SoundDuration":82644,"Delta":361564170},{"NoteNumber":50,"Velocity":32,"Duration":165289,"SoundDuration":165289,"Delta":361564170},{"NoteNumber":47,"Velocity":32,"Duration":339958,"SoundDuration":339958,"Delta":361564170},{"NoteNumber":74,"Velocity":44,"Duration":82644,"SoundDuration":82644,"Delta":361646815},{"NoteNumber":71,"Velocity":45,"Duration":82644,"SoundDuration":82644,"Delta":361729459},{"NoteNumber":55,"Velocity":32,"Duration":174669,"SoundDuration":174669,"Delta":361729459},{"NoteNumber":67,"Velocity":42,"Duration":92024,"SoundDuration":92024,"Delta":361812104},{"NoteNumber":73,"Velocity":48,"Duration":82417,"SoundDuration":82417,"Delta":361904129},{"NoteNumber":41,"Velocity":37,"Duration":504111,"SoundDuration":504111,"Delta":361904129},{"NoteNumber":72,"Velocity":44,"Duration":82417,"SoundDuration":82417,"Delta":361986546},{"NoteNumber":75,"Velocity":44,"Duration":82417,"SoundDuration":82417,"Delta":362068964},{"NoteNumber":49,"Velocity":32,"Duration":164835,"SoundDuration":164835,"Delta":362068964},{"NoteNumber":46,"Velocity":32,"Duration":339276,"SoundDuration":339276,"Delta":362068964},{"NoteNumber":73,"Velocity":44,"Duration":82417,"SoundDuration":82417,"Delta":362151381},{"NoteNumber":70,"Velocity":45,"Duration":82417,"SoundDuration":82417,"Delta":362233799},{"NoteNumber":55,"Velocity":32,"Duration":174441,"SoundDuration":174441,"Delta":362233799},{"NoteNumber":67,"Velocity":43,"Duration":92024,"SoundDuration":92024,"Delta":362316216},{"NoteNumber":70,"Velocity":48,"Duration":82417,"SoundDuration":82417,"Delta":362408241},{"NoteNumber":41,"Velocity":36,"Duration":504111,"SoundDuration":504111,"Delta":362408241},{"NoteNumber":69,"Velocity":44,"Duration":82417,"SoundDuration":82417,"Delta":362490658},{"NoteNumber":72,"Velocity":44,"Duration":82417,"SoundDuration":82417,"Delta":362573076},{"NoteNumber":48,"Velocity":32,"Duration":164835,"SoundDuration":164835,"Delta":362573076},{"NoteNumber":46,"Velocity":32,"Duration":339276,"SoundDuration":339276,"Delta":362573076},{"NoteNumber":70,"Velocity":44,"Duration":82417,"SoundDuration":82417,"Delta":362655493},{"NoteNumber":67,"Velocity":46,"Duration":82417,"SoundDuration":82417,"Delta":362737911},{"NoteNumber":52,"Velocity":32,"Duration":174441,"SoundDuration":174441,"Delta":362737911},{"NoteNumber":64,"Velocity":44,"Duration":92024,"SoundDuration":92024,"Delta":362820328},{"NoteNumber":69,"Velocity":48,"Duration":82417,"SoundDuration":82417,"Delta":362912353},{"NoteNumber":41,"Velocity":37,"Duration":503550,"SoundDuration":503550,"Delta":362912353},{"NoteNumber":68,"Velocity":44,"Duration":82417,"SoundDuration":82417,"Delta":362994770},{"NoteNumber":70,"Velocity":44,"Duration":82417,"SoundDuration":82417,"Delta":363077188},{"NoteNumber":48,"Velocity":32,"Duration":164835,"SoundDuration":164835,"Delta":363077188},{"NoteNumber":45,"Velocity":32,"Duration":338715,"SoundDuration":338715,"Delta":363077188},{"NoteNumber":69,"Velocity":44,"Duration":82417,"SoundDuration":82417,"Delta":363159605},{"NoteNumber":65,"Velocity":44,"Duration":82417,"SoundDuration":82417,"Delta":363242023},{"NoteNumber":53,"Velocity":32,"Duration":173880,"SoundDuration":173880,"Delta":363242023},{"NoteNumber":60,"Velocity":44,"Duration":91463,"SoundDuration":91463,"Delta":363324440},{"NoteNumber":62,"Velocity":40,"Duration":97222,"SoundDuration":97222,"Delta":363415904},{"NoteNumber":29,"Velocity":30,"Duration":508690,"SoundDuration":508690,"Delta":363415904},{"NoteNumber":61,"Velocity":37,"Duration":97222,"SoundDuration":97222,"Delta":363499237},{"NoteNumber":64,"Velocity":37,"Duration":97222,"SoundDuration":97222,"Delta":363582570},{"NoteNumber":38,"Velocity":27,"Duration":166666,"SoundDuration":166666,"Delta":363582570},{"NoteNumber":62,"Velocity":36,"Duration":97222,"SoundDuration":97222,"Delta":363665903},{"NoteNumber":59,"Velocity":37,"Duration":98670,"SoundDuration":98670,"Delta":363749237},{"NoteNumber":43,"Velocity":26,"Duration":175357,"SoundDuration":175357,"Delta":363749237},{"NoteNumber":55,"Velocity":34,"Duration":105952,"SoundDuration":105952,"Delta":363832570},{"NoteNumber":61,"Velocity":39,"Duration":97493,"SoundDuration":97493,"Delta":363924594},{"NoteNumber":29,"Velocity":30,"Duration":509851,"SoundDuration":509851,"Delta":363924594},{"NoteNumber":60,"Velocity":36,"Duration":97493,"SoundDuration":97493,"Delta":364008160},{"NoteNumber":63,"Velocity":35,"Duration":97493,"SoundDuration":97493,"Delta":364091725},{"NoteNumber":37,"Velocity":26,"Duration":167131,"SoundDuration":167131,"Delta":364091725},{"NoteNumber":61,"Velocity":35,"Duration":97493,"SoundDuration":97493,"Delta":364175291},{"NoteNumber":58,"Velocity":36,"Duration":98902,"SoundDuration":98902,"Delta":364258856},{"NoteNumber":43,"Velocity":25,"Duration":175589,"SoundDuration":175589,"Delta":364258856},{"NoteNumber":55,"Velocity":34,"Duration":105990,"SoundDuration":105990,"Delta":364342422},{"NoteNumber":58,"Velocity":38,"Duration":97765,"SoundDuration":97765,"Delta":364434446},{"NoteNumber":29,"Velocity":28,"Duration":511019,"SoundDuration":511019,"Delta":364434446},{"NoteNumber":57,"Velocity":35,"Duration":97765,"SoundDuration":97765,"Delta":364518245},{"NoteNumber":60,"Velocity":35,"Duration":97765,"SoundDuration":97765,"Delta":364602044},{"NoteNumber":36,"Velocity":25,"Duration":167597,"SoundDuration":167597,"Delta":364602044},{"NoteNumber":58,"Velocity":34,"Duration":97765,"SoundDuration":97765,"Delta":364685843},{"NoteNumber":55,"Velocity":36,"Duration":99136,"SoundDuration":99136,"Delta":364769642},{"NoteNumber":40,"Velocity":25,"Duration":175823,"SoundDuration":175823,"Delta":364769642},{"NoteNumber":52,"Velocity":34,"Duration":105990,"SoundDuration":105990,"Delta":364853441},{"NoteNumber":55,"Velocity":37,"Duration":97765,"SoundDuration":97765,"Delta":364945466},{"NoteNumber":29,"Velocity":28,"Duration":510458,"SoundDuration":510458,"Delta":364945466},{"NoteNumber":54,"Velocity":34,"Duration":97765,"SoundDuration":97765,"Delta":365029265},{"NoteNumber":57,"Velocity":34,"Duration":97765,"SoundDuration":97765,"Delta":365113064},{"NoteNumber":36,"Velocity":30,"Duration":342860,"SoundDuration":342860,"Delta":365113064},{"NoteNumber":55,"Velocity":34,"Duration":97765,"SoundDuration":97765,"Delta":365196863},{"NoteNumber":52,"Velocity":33,"Duration":99042,"SoundDuration":99042,"Delta":365280662},{"NoteNumber":48,"Velocity":33,"Duration":91463,"SoundDuration":91463,"Delta":365364461},{"NoteNumber":53,"Velocity":36,"Duration":98591,"SoundDuration":98591,"Delta":365455924},{"NoteNumber":29,"Velocity":27,"Duration":514559,"SoundDuration":514559,"Delta":365455924},{"NoteNumber":52,"Velocity":33,"Duration":98591,"SoundDuration":98591,"Delta":365540431},{"NoteNumber":53,"Velocity":33,"Duration":98591,"SoundDuration":98591,"Delta":365624938},{"NoteNumber":36,"Velocity":29,"Duration":345545,"SoundDuration":345545,"Delta":365624938},{"NoteNumber":48,"Velocity":32,"Duration":98591,"SoundDuration":98591,"Delta":365709445},{"NoteNumber":45,"Velocity":34,"Duration":99844,"SoundDuration":99844,"Delta":365793952},{"NoteNumber":48,"Velocity":32,"Duration":106517,"SoundDuration":106517,"Delta":365878459},{"NoteNumber":52,"Velocity":35,"Duration":101449,"SoundDuration":101449,"Delta":365970484},{"NoteNumber":29,"Velocity":27,"Duration":529719,"SoundDuration":529719,"Delta":365970484},{"NoteNumber":51,"Velocity":32,"Duration":101449,"SoundDuration":101449,"Delta":366057440},{"NoteNumber":52,"Velocity":32,"Duration":101449,"SoundDuration":101449,"Delta":366144397},{"NoteNumber":37,"Velocity":29,"Duration":355806,"SoundDuration":355806,"Delta":366144397},{"NoteNumber":46,"Velocity":32,"Duration":101449,"SoundDuration":101449,"Delta":366231353},{"NoteNumber":43,"Velocity":31,"Duration":102779,"SoundDuration":102779,"Delta":366318310},{"NoteNumber":46,"Velocity":31,"Duration":109686,"SoundDuration":109686,"Delta":366405266},{"NoteNumber":53,"Velocity":34,"Duration":103244,"SoundDuration":103244,"Delta":366500203},{"NoteNumber":29,"Velocity":25,"Duration":538324,"SoundDuration":538324,"Delta":366500203},{"NoteNumber":52,"Velocity":31,"Duration":103244,"SoundDuration":103244,"Delta":366588699},{"NoteNumber":53,"Velocity":31,"Duration":103244,"SoundDuration":103244,"Delta":366677194},{"NoteNumber":36,"Velocity":27,"Duration":361333,"SoundDuration":361333,"Delta":366677194},{"NoteNumber":48,"Velocity":31,"Duration":103244,"SoundDuration":103244,"Delta":366765690},{"NoteNumber":45,"Velocity":33,"Duration":104469,"SoundDuration":104469,"Delta":366854185},{"NoteNumber":48,"Velocity":31,"Duration":110906,"SoundDuration":110906,"Delta":366942681},{"NoteNumber":52,"Velocity":34,"Duration":105421,"SoundDuration":105421,"Delta":367038527},{"NoteNumber":29,"Velocity":26,"Duration":550491,"SoundDuration":550491,"Delta":367038527},{"NoteNumber":51,"Velocity":31,"Duration":105421,"SoundDuration":105421,"Delta":367128889},{"NoteNumber":52,"Velocity":31,"Duration":105421,"SoundDuration":105421,"Delta":367219250},{"NoteNumber":37,"Velocity":28,"Duration":369768,"SoundDuration":369768,"Delta":367219250},{"NoteNumber":46,"Velocity":31,"Duration":105421,"SoundDuration":105421,"Delta":367309612},{"NoteNumber":43,"Velocity":31,"Duration":106808,"SoundDuration":106808,"Delta":367399973},{"NoteNumber":46,"Velocity":31,"Duration":114164,"SoundDuration":114164,"Delta":367490335},{"NoteNumber":53,"Velocity":34,"Duration":108359,"SoundDuration":108359,"Delta":367589019},{"NoteNumber":29,"Velocity":25,"Duration":567844,"SoundDuration":567844,"Delta":367589019},{"NoteNumber":52,"Velocity":31,"Duration":108359,"SoundDuration":108359,"Delta":367681898},{"NoteNumber":53,"Velocity":31,"Duration":108359,"SoundDuration":108359,"Delta":367774778},{"NoteNumber":36,"Velocity":29,"Duration":382085,"SoundDuration":382085,"Delta":367774778},{"NoteNumber":48,"Velocity":31,"Duration":108359,"SoundDuration":108359,"Delta":367867657},{"NoteNumber":45,"Velocity":33,"Duration":110120,"SoundDuration":110120,"Delta":367960536},{"NoteNumber":48,"Velocity":31,"Duration":119422,"SoundDuration":119422,"Delta":368053415},{"NoteNumber":52,"Velocity":34,"Duration":111821,"SoundDuration":111821,"Delta":368156864},{"NoteNumber":29,"Velocity":26,"Duration":790294,"SoundDuration":790294,"Delta":368156864},{"NoteNumber":51,"Velocity":31,"Duration":111821,"SoundDuration":111821,"Delta":368252710},{"NoteNumber":52,"Velocity":31,"Duration":111821,"SoundDuration":111821,"Delta":368348557},{"NoteNumber":37,"Velocity":28,"Duration":390988,"SoundDuration":390988,"Delta":368348557},{"NoteNumber":46,"Velocity":31,"Duration":111821,"SoundDuration":111821,"Delta":368444404},{"NoteNumber":43,"Velocity":31,"Duration":113088,"SoundDuration":113088,"Delta":368540251},{"NoteNumber":46,"Velocity":31,"Duration":103448,"SoundDuration":103448,"Delta":368636097},{"NoteNumber":53,"Velocity":31,"Duration":207612,"SoundDuration":207612,"Delta":368739546},{"NoteNumber":45,"Velocity":26,"Duration":207612,"SoundDuration":207612,"Delta":368739546},{"NoteNumber":36,"Velocity":24,"Duration":207612,"SoundDuration":207612,"Delta":368739546},{"NoteNumber":64,"Velocity":26,"Duration":106383,"SoundDuration":106383,"Delta":369372690},{"NoteNumber":72,"Velocity":31,"Duration":106383,"SoundDuration":106383,"Delta":369372690},{"NoteNumber":48,"Velocity":22,"Duration":106383,"SoundDuration":106383,"Delta":369372690},{"NoteNumber":58,"Velocity":26,"Duration":106383,"SoundDuration":106383,"Delta":369372690},{"NoteNumber":57,"Velocity":26,"Duration":106382,"SoundDuration":106382,"Delta":370010988},{"NoteNumber":65,"Velocity":31,"Duration":106382,"SoundDuration":106382,"Delta":370010988},{"NoteNumber":41,"Velocity":22,"Duration":106382,"SoundDuration":106382,"Delta":370010988},{"NoteNumber":48,"Velocity":26,"Duration":106382,"SoundDuration":106382,"Delta":370010988}],"license":{"name":"Creative Commons Attribution-ShareAlike 3.0 Germany","url":"http://creativecommons.org/licenses/by-sa/3.0/de/deed.en","text":"The MIDI files in this folder were downloaded from http://www.piano-midi.de and are licensed under the Creative Commons Attribution-ShareAlike 3.0 Germany license by Bernd Krueger.\n\nThe MIDI, audio(MP3, OGG) and video files of Bernd Krueger are licensed under the cc-by-sa Germany License . This means, that you can use and adapt the files, as long as you attribute to the copyright holder Name: Bernd Krueger Source: http://www.piano-midi.de The distribution or public playback of the files is only allowed under identical license conditions . The scores are open source.","attribution":"Bernd Krueger","attributionUrl":"http://www.piano-midi.de"}}