{"title":"Am Kamin","artist":"Schumann","durationMs":67269,"midiSha256":"32867acf61e478f66dc175573a5e47a4555ef161ffb0989283ca611c9cbb9cf6","midiObject":[{"NoteNumber":72,"Velocity":56,"Duration":377358,"SoundDuration":377358,"Delta":0},{"NoteNumber":77,"Velocity":60,"Duration":670391,"SoundDuration":670391,"Delta":377358},{"NoteNumber":53,"Velocity":41,"Duration":335195,"SoundDuration":335195,"Delta":377358},{"NoteNumber":65,"Velocity":31,"Duration":656050,"SoundDuration":656050,"Delta":712554},{"NoteNumber":72,"Velocity":31,"Duration":656050,"SoundDuration":656050,"Delta":712554},{"NoteNumber":60,"Velocity":23,"Duration":656050,"SoundDuration":656050,"Delta":712554},{"NoteNumber":69,"Velocity":23,"Duration":656050,"SoundDuration":656050,"Delta":712554},{"NoteNumber":76,"Velocity":56,"Duration":320855,"SoundDuration":320855,"Delta":1047749},{"NoteNumber":65,"Velocity":30,"Duration":315789,"SoundDuration":315789,"Delta":1368605},{"NoteNumber":75,"Velocity":51,"Duration":315789,"SoundDuration":315789,"Delta":1368605},{"NoteNumber":60,"Velocity":21,"Duration":315789,"SoundDuration":315789,"Delta":1368605},{"NoteNumber":69,"Velocity":21,"Duration":315789,"SoundDuration":315789,"Delta":1368605},{"NoteNumber":74,"Velocity":52,"Duration":326086,"SoundDuration":326086,"Delta":1684394},{"NoteNumber":58,"Velocity":41,"Duration":1287037,"SoundDuration":1287037,"Delta":1684394},{"NoteNumber":65,"Velocity":30,"Duration":645160,"SoundDuration":645160,"Delta":2010481},{"NoteNumber":76,"Velocity":52,"Duration":322580,"SoundDuration":322580,"Delta":2010481},{"NoteNumber":62,"Velocity":23,"Duration":322580,"SoundDuration":322580,"Delta":2010481},{"NoteNumber":70,"Velocity":23,"Duration":322580,"SoundDuration":322580,"Delta":2010481},{"NoteNumber":77,"Velocity":55,"Duration":322580,"SoundDuration":322580,"Delta":2333062},{"NoteNumber":55,"Velocity":33,"Duration":322580,"SoundDuration":322580,"Delta":2333062},{"NoteNumber":65,"Velocity":31,"Duration":315789,"SoundDuration":315789,"Delta":2655642},{"NoteNumber":79,"Velocity":50,"Duration":315789,"SoundDuration":315789,"Delta":2655642},{"NoteNumber":70,"Velocity":21,"Duration":315789,"SoundDuration":315789,"Delta":2655642},{"NoteNumber":62,"Velocity":21,"Duration":315789,"SoundDuration":315789,"Delta":2655642},{"NoteNumber":72,"Velocity":57,"Duration":983108,"SoundDuration":983108,"Delta":2971432},{"NoteNumber":48,"Velocity":41,"Duration":331491,"SoundDuration":331491,"Delta":2971432},{"NoteNumber":60,"Velocity":29,"Duration":651616,"SoundDuration":651616,"Delta":3302923},{"NoteNumber":67,"Velocity":46,"Duration":323891,"SoundDuration":323891,"Delta":3302923},{"NoteNumber":64,"Velocity":24,"Duration":651616,"SoundDuration":651616,"Delta":3302923},{"NoteNumber":58,"Velocity":27,"Duration":323891,"SoundDuration":323891,"Delta":3302923},{"NoteNumber":69,"Velocity":47,"Duration":327725,"SoundDuration":327725,"Delta":3626815},{"NoteNumber":57,"Velocity":30,"Duration":327725,"SoundDuration":327725,"Delta":3626815},{"NoteNumber":60,"Velocity":29,"Duration":331188,"SoundDuration":331188,"Delta":3954540},{"NoteNumber":70,"Velocity":44,"Duration":331188,"SoundDuration":331188,"Delta":3954540},{"NoteNumber":64,"Velocity":23,"Duration":331188,"SoundDuration":331188,"Delta":3954540},{"NoteNumber":55,"Velocity":23,"Duration":331188,"SoundDuration":331188,"Delta":3954540},{"NoteNumber":69,"Velocity":47,"Duration":705881,"SoundDuration":705881,"Delta":4285728},{"NoteNumber":53,"Velocity":38,"Duration":352941,"SoundDuration":352941,"Delta":4285728},{"NoteNumber":60,"Velocity":30,"Duration":705881,"SoundDuration":705881,"Delta":4638669},{"NoteNumber":65,"Velocity":21,"Duration":705881,"SoundDuration":705881,"Delta":4638669},{"NoteNumber":57,"Velocity":21,"Duration":705881,"SoundDuration":705881,"Delta":4638669},{"NoteNumber":72,"Velocity":56,"Duration":333333,"SoundDuration":333333,"Delta":5344551},{"NoteNumber":57,"Velocity":25,"Duration":333333,"SoundDuration":333333,"Delta":5344551},{"NoteNumber":65,"Velocity":25,"Duration":333333,"SoundDuration":333333,"Delta":5344551},{"NoteNumber":72,"Velocity":56,"Duration":329670,"SoundDuration":329670,"Delta":5677884},{"NoteNumber":53,"Velocity":41,"Duration":650526,"SoundDuration":650526,"Delta":5677884},{"NoteNumber":77,"Velocity":60,"Duration":320855,"SoundDuration":320855,"Delta":6007555},{"NoteNumber":65,"Velocity":31,"Duration":634347,"SoundDuration":634347,"Delta":6007555},{"NoteNumber":60,"Velocity":23,"Duration":638316,"SoundDuration":638316,"Delta":6007555},{"NoteNumber":69,"Velocity":23,"Duration":638316,"SoundDuration":638316,"Delta":6007555},{"NoteNumber":76,"Velocity":56,"Duration":317460,"SoundDuration":317460,"Delta":6328410},{"NoteNumber":57,"Velocity":37,"Duration":631596,"SoundDuration":631596,"Delta":6328410},{"NoteNumber":75,"Velocity":51,"Duration":314136,"SoundDuration":314136,"Delta":6645871},{"NoteNumber":60,"Velocity":21,"Duration":314136,"SoundDuration":314136,"Delta":6645871},{"NoteNumber":65,"Velocity":21,"Duration":314136,"SoundDuration":314136,"Delta":6645871},{"NoteNumber":74,"Velocity":52,"Duration":326087,"SoundDuration":326087,"Delta":6960007},{"NoteNumber":58,"Velocity":41,"Duration":1301071,"SoundDuration":1301071,"Delta":6960007},{"NoteNumber":65,"Velocity":30,"Duration":643460,"SoundDuration":643460,"Delta":7286094},{"NoteNumber":76,"Velocity":52,"Duration":322436,"SoundDuration":322436,"Delta":7286094},{"NoteNumber":62,"Velocity":23,"Duration":322436,"SoundDuration":322436,"Delta":7286094},{"NoteNumber":70,"Velocity":23,"Duration":322436,"SoundDuration":322436,"Delta":7286094},{"NoteNumber":77,"Velocity":55,"Duration":321023,"SoundDuration":321023,"Delta":7608531},{"NoteNumber":55,"Velocity":33,"Duration":321023,"SoundDuration":321023,"Delta":7608531},{"NoteNumber":65,"Velocity":31,"Duration":331523,"SoundDuration":331523,"Delta":7929555},{"NoteNumber":79,"Velocity":50,"Duration":331523,"SoundDuration":331523,"Delta":7929555},{"NoteNumber":70,"Velocity":21,"Duration":331523,"SoundDuration":331523,"Delta":7929555},{"NoteNumber":62,"Velocity":21,"Duration":331523,"SoundDuration":331523,"Delta":7929555},{"NoteNumber":72,"Velocity":57,"Duration":983108,"SoundDuration":983108,"Delta":8261078},{"NoteNumber":48,"Velocity":41,"Duration":331491,"SoundDuration":331491,"Delta":8261078},{"NoteNumber":60,"Velocity":29,"Duration":651616,"SoundDuration":651616,"Delta":8592570},{"NoteNumber":67,"Velocity":46,"Duration":323891,"SoundDuration":323891,"Delta":8592570},{"NoteNumber":64,"Velocity":24,"Duration":651616,"SoundDuration":651616,"Delta":8592570},{"NoteNumber":58,"Velocity":27,"Duration":323891,"SoundDuration":323891,"Delta":8592570},{"NoteNumber":69,"Velocity":47,"Duration":327725,"SoundDuration":327725,"Delta":8916462},{"NoteNumber":57,"Velocity":30,"Duration":327725,"SoundDuration":327725,"Delta":8916462},{"NoteNumber":60,"Velocity":29,"Duration":331187,"SoundDuration":331187,"Delta":9244187},{"NoteNumber":70,"Velocity":45,"Duration":331187,"SoundDuration":331187,"Delta":9244187},{"NoteNumber":64,"Velocity":23,"Duration":331187,"SoundDuration":331187,"Delta":9244187},{"NoteNumber":55,"Velocity":23,"Duration":331187,"SoundDuration":331187,"Delta":9244187},{"NoteNumber":69,"Velocity":47,"Duration":705882,"SoundDuration":705882,"Delta":9575375},{"NoteNumber":53,"Velocity":38,"Duration":352940,"SoundDuration":352940,"Delta":9575375},{"NoteNumber":65,"Velocity":32,"Duration":705882,"SoundDuration":705882,"Delta":9928316},{"NoteNumber":60,"Velocity":21,"Duration":705882,"SoundDuration":705882,"Delta":9928316},{"NoteNumber":57,"Velocity":21,"Duration":705882,"SoundDuration":705882,"Delta":9928316},{"NoteNumber":72,"Velocity":50,"Duration":324324,"SoundDuration":324324,"Delta":10634198},{"NoteNumber":57,"Velocity":25,"Duration":324324,"SoundDuration":324324,"Delta":10634198},{"NoteNumber":65,"Velocity":25,"Duration":324324,"SoundDuration":324324,"Delta":10634198},{"NoteNumber":72,"Velocity":56,"Duration":327868,"SoundDuration":327868,"Delta":10958522},{"NoteNumber":48,"Velocity":40,"Duration":1260561,"SoundDuration":1260561,"Delta":10958522},{"NoteNumber":60,"Velocity":40,"Duration":623414,"SoundDuration":623414,"Delta":11286391},{"NoteNumber":67,"Velocity":51,"Duration":314135,"SoundDuration":314135,"Delta":11286391},{"NoteNumber":64,"Velocity":34,"Duration":623414,"SoundDuration":623414,"Delta":11286391},{"NoteNumber":58,"Velocity":34,"Duration":623414,"SoundDuration":623414,"Delta":11286391},{"NoteNumber":69,"Velocity":54,"Duration":309278,"SoundDuration":309278,"Delta":11600527},{"NoteNumber":60,"Velocity":40,"Duration":309278,"SoundDuration":309278,"Delta":11909806},{"NoteNumber":70,"Velocity":57,"Duration":309278,"SoundDuration":309278,"Delta":11909806},{"NoteNumber":64,"Velocity":34,"Duration":309278,"SoundDuration":309278,"Delta":11909806},{"NoteNumber":58,"Velocity":34,"Duration":309278,"SoundDuration":309278,"Delta":11909806},{"NoteNumber":74,"Velocity":56,"Duration":936240,"SoundDuration":936240,"Delta":12219084},{"NoteNumber":48,"Velocity":40,"Duration":1243933,"SoundDuration":1243933,"Delta":12219084},{"NoteNumber":62,"Velocity":52,"Duration":615384,"SoundDuration":615384,"Delta":12539940},{"NoteNumber":64,"Velocity":48,"Duration":307692,"SoundDuration":307692,"Delta":12847632},{"NoteNumber":60,"Velocity":40,"Duration":307692,"SoundDuration":307692,"Delta":13155325},{"NoteNumber":66,"Velocity":48,"Duration":307692,"SoundDuration":307692,"Delta":13155325},{"NoteNumber":62,"Velocity":40,"Duration":307692,"SoundDuration":307692,"Delta":13155325},{"NoteNumber":58,"Velocity":41,"Duration":314135,"SoundDuration":314135,"Delta":13463017},{"NoteNumber":67,"Velocity":50,"Duration":314135,"SoundDuration":314135,"Delta":13463017},{"NoteNumber":48,"Velocity":37,"Duration":620258,"SoundDuration":620258,"Delta":13463017},{"NoteNumber":70,"Velocity":52,"Duration":306122,"SoundDuration":306122,"Delta":13777153},{"NoteNumber":55,"Velocity":32,"Duration":607630,"SoundDuration":607630,"Delta":13777153},{"NoteNumber":62,"Velocity":52,"Duration":603861,"SoundDuration":603861,"Delta":13777153},{"NoteNumber":74,"Velocity":54,"Duration":301507,"SoundDuration":301507,"Delta":14083276},{"NoteNumber":48,"Velocity":33,"Duration":632998,"SoundDuration":632998,"Delta":14083276},{"NoteNumber":60,"Velocity":32,"Duration":331491,"SoundDuration":331491,"Delta":14384783},{"NoteNumber":62,"Velocity":44,"Duration":331491,"SoundDuration":331491,"Delta":14384783},{"NoteNumber":54,"Velocity":32,"Duration":331491,"SoundDuration":331491,"Delta":14384783},{"NoteNumber":67,"Velocity":46,"Duration":662982,"SoundDuration":662982,"Delta":14716275},{"NoteNumber":48,"Velocity":40,"Duration":1305355,"SoundDuration":1305355,"Delta":14716275},{"NoteNumber":58,"Velocity":32,"Duration":662983,"SoundDuration":662983,"Delta":15047766},{"NoteNumber":62,"Velocity":28,"Duration":662983,"SoundDuration":662983,"Delta":15047766},{"NoteNumber":55,"Velocity":23,"Duration":662983,"SoundDuration":662983,"Delta":15047766},{"NoteNumber":70,"Velocity":53,"Duration":310880,"SoundDuration":310880,"Delta":15710749},{"NoteNumber":62,"Velocity":34,"Duration":310880,"SoundDuration":310880,"Delta":15710749},{"NoteNumber":55,"Velocity":34,"Duration":310880,"SoundDuration":310880,"Delta":15710749},{"NoteNumber":74,"Velocity":59,"Duration":310881,"SoundDuration":310881,"Delta":16021630},{"NoteNumber":48,"Velocity":42,"Duration":1219640,"SoundDuration":1219640,"Delta":16021630},{"NoteNumber":66,"Velocity":32,"Duration":908759,"SoundDuration":908759,"Delta":16332511},{"NoteNumber":69,"Velocity":55,"Duration":305475,"SoundDuration":305475,"Delta":16332511},{"NoteNumber":62,"Velocity":54,"Duration":608381,"SoundDuration":608381,"Delta":16332511},{"NoteNumber":70,"Velocity":59,"Duration":302906,"SoundDuration":302906,"Delta":16637986},{"NoteNumber":72,"Velocity":63,"Duration":300378,"SoundDuration":300378,"Delta":16940893},{"NoteNumber":60,"Velocity":44,"Duration":300378,"SoundDuration":300378,"Delta":16940893},{"NoteNumber":76,"Velocity":63,"Duration":918804,"SoundDuration":918804,"Delta":17241271},{"NoteNumber":48,"Velocity":45,"Duration":1220311,"SoundDuration":1220311,"Delta":17241271},{"NoteNumber":64,"Velocity":59,"Duration":603014,"SoundDuration":603014,"Delta":17557060},{"NoteNumber":59,"Velocity":48,"Duration":603014,"SoundDuration":603014,"Delta":17557060},{"NoteNumber":62,"Velocity":48,"Duration":599246,"SoundDuration":599246,"Delta":17557060},{"NoteNumber":66,"Velocity":52,"Duration":301507,"SoundDuration":301507,"Delta":17858568},{"NoteNumber":62,"Velocity":44,"Duration":301507,"SoundDuration":301507,"Delta":18160075},{"NoteNumber":68,"Velocity":52,"Duration":301507,"SoundDuration":301507,"Delta":18160075},{"NoteNumber":59,"Velocity":44,"Duration":301507,"SoundDuration":301507,"Delta":18160075},{"NoteNumber":60,"Velocity":45,"Duration":312500,"SoundDuration":312500,"Delta":18461583},{"NoteNumber":69,"Velocity":55,"Duration":312500,"SoundDuration":312500,"Delta":18461583},{"NoteNumber":48,"Velocity":40,"Duration":618622,"SoundDuration":618622,"Delta":18461583},{"NoteNumber":72,"Velocity":57,"Duration":306122,"SoundDuration":306122,"Delta":18774083},{"NoteNumber":57,"Velocity":47,"Duration":607630,"SoundDuration":607630,"Delta":18774083},{"NoteNumber":64,"Velocity":57,"Duration":607630,"SoundDuration":607630,"Delta":18774083},{"NoteNumber":76,"Velocity":59,"Duration":301507,"SoundDuration":301507,"Delta":19080205},{"NoteNumber":48,"Velocity":36,"Duration":632998,"SoundDuration":632998,"Delta":19080205},{"NoteNumber":62,"Velocity":41,"Duration":650640,"SoundDuration":650640,"Delta":19381713},{"NoteNumber":64,"Velocity":50,"Duration":650640,"SoundDuration":650640,"Delta":19381713},{"NoteNumber":56,"Velocity":41,"Duration":650640,"SoundDuration":650640,"Delta":19381713},{"NoteNumber":48,"Velocity":56,"Duration":654039,"SoundDuration":654039,"Delta":19713204},{"NoteNumber":60,"Velocity":57,"Duration":670557,"SoundDuration":670557,"Delta":20032353},{"NoteNumber":69,"Velocity":57,"Duration":674843,"SoundDuration":674843,"Delta":20032353},{"NoteNumber":57,"Velocity":50,"Duration":674843,"SoundDuration":674843,"Delta":20032353},{"NoteNumber":64,"Velocity":50,"Duration":674843,"SoundDuration":674843,"Delta":20032353},{"NoteNumber":48,"Velocity":50,"Duration":685286,"SoundDuration":685286,"Delta":20367244},{"NoteNumber":58,"Velocity":53,"Duration":345333,"SoundDuration":345333,"Delta":20707197},{"NoteNumber":67,"Velocity":53,"Duration":345333,"SoundDuration":345333,"Delta":20707197},{"NoteNumber":52,"Velocity":50,"Duration":345333,"SoundDuration":345333,"Delta":20707197},{"NoteNumber":60,"Velocity":50,"Duration":345333,"SoundDuration":345333,"Delta":20707197},{"NoteNumber":65,"Velocity":62,"Duration":736195,"SoundDuration":736195,"Delta":21052530},{"NoteNumber":41,"Velocity":56,"Duration":1446255,"SoundDuration":1446255,"Delta":21052530},{"NoteNumber":53,"Velocity":53,"Duration":723127,"SoundDuration":723127,"Delta":21420628},{"NoteNumber":60,"Velocity":53,"Duration":723127,"SoundDuration":723127,"Delta":21420628},{"NoteNumber":57,"Velocity":40,"Duration":723127,"SoundDuration":723127,"Delta":21420628},{"NoteNumber":48,"Velocity":40,"Duration":723127,"SoundDuration":723127,"Delta":21420628},{"NoteNumber":64,"Velocity":49,"Duration":355029,"SoundDuration":355029,"Delta":21788726},{"NoteNumber":53,"Velocity":35,"Duration":355029,"SoundDuration":355029,"Delta":22143756},{"NoteNumber":63,"Velocity":45,"Duration":355029,"SoundDuration":355029,"Delta":22143756},{"NoteNumber":48,"Velocity":34,"Duration":355029,"SoundDuration":355029,"Delta":22143756},{"NoteNumber":57,"Velocity":34,"Duration":355029,"SoundDuration":355029,"Delta":22143756},{"NoteNumber":74,"Velocity":48,"Duration":338982,"SoundDuration":338982,"Delta":22498785},{"NoteNumber":46,"Velocity":34,"Duration":691924,"SoundDuration":691924,"Delta":22498785},{"NoteNumber":65,"Velocity":27,"Duration":705881,"SoundDuration":705881,"Delta":22837768},{"NoteNumber":76,"Velocity":44,"Duration":352941,"SoundDuration":352941,"Delta":22837768},{"NoteNumber":50,"Velocity":22,"Duration":705881,"SoundDuration":705881,"Delta":22837768},{"NoteNumber":58,"Velocity":24,"Duration":705881,"SoundDuration":705881,"Delta":22837768},{"NoteNumber":77,"Velocity":44,"Duration":352940,"SoundDuration":352940,"Delta":23190709},{"NoteNumber":43,"Velocity":34,"Duration":705881,"SoundDuration":705881,"Delta":23190709},{"NoteNumber":65,"Velocity":27,"Duration":352941,"SoundDuration":352941,"Delta":23543650},{"NoteNumber":79,"Velocity":44,"Duration":352941,"SoundDuration":352941,"Delta":23543650},{"NoteNumber":62,"Velocity":20,"Duration":352941,"SoundDuration":352941,"Delta":23543650},{"NoteNumber":58,"Velocity":21,"Duration":352941,"SoundDuration":352941,"Delta":23543650},{"NoteNumber":72,"Velocity":46,"Duration":1028819,"SoundDuration":1028819,"Delta":23896591},{"NoteNumber":48,"Velocity":30,"Duration":340587,"SoundDuration":340587,"Delta":23896591},{"NoteNumber":60,"Velocity":26,"Duration":688231,"SoundDuration":688231,"Delta":24237179},{"NoteNumber":67,"Velocity":37,"Duration":341403,"SoundDuration":341403,"Delta":24237179},{"NoteNumber":58,"Velocity":32,"Duration":341403,"SoundDuration":341403,"Delta":24237179},{"NoteNumber":64,"Velocity":22,"Duration":688231,"SoundDuration":688231,"Delta":24237179},{"NoteNumber":69,"Velocity":37,"Duration":346828,"SoundDuration":346828,"Delta":24578583},{"NoteNumber":57,"Velocity":35,"Duration":346828,"SoundDuration":346828,"Delta":24578583},{"NoteNumber":60,"Velocity":26,"Duration":350877,"SoundDuration":350877,"Delta":24925411},{"NoteNumber":70,"Velocity":36,"Duration":350877,"SoundDuration":350877,"Delta":24925411},{"NoteNumber":55,"Velocity":28,"Duration":350877,"SoundDuration":350877,"Delta":24925411},{"NoteNumber":64,"Velocity":22,"Duration":350877,"SoundDuration":350877,"Delta":24925411},{"NoteNumber":69,"Velocity":37,"Duration":701754,"SoundDuration":701754,"Delta":25276288},{"NoteNumber":53,"Velocity":33,"Duration":701754,"SoundDuration":701754,"Delta":25276288},{"NoteNumber":65,"Velocity":24,"Duration":697368,"SoundDuration":697368,"Delta":25627165},{"NoteNumber":60,"Velocity":20,"Duration":701753,"SoundDuration":701753,"Delta":25627165},{"NoteNumber":57,"Velocity":20,"Duration":701753,"SoundDuration":701753,"Delta":25627165},{"NoteNumber":72,"Velocity":50,"Duration":350877,"SoundDuration":350877,"Delta":26328919},{"NoteNumber":65,"Velocity":27,"Duration":350877,"SoundDuration":350877,"Delta":26328919},{"NoteNumber":57,"Velocity":27,"Duration":350877,"SoundDuration":350877,"Delta":26328919},{"NoteNumber":72,"Velocity":50,"Duration":329670,"SoundDuration":329670,"Delta":26679796},{"NoteNumber":53,"Velocity":36,"Duration":650525,"SoundDuration":650525,"Delta":26679796},{"NoteNumber":77,"Velocity":54,"Duration":320855,"SoundDuration":320855,"Delta":27009467},{"NoteNumber":65,"Velocity":27,"Duration":634347,"SoundDuration":634347,"Delta":27009467},{"NoteNumber":69,"Velocity":25,"Duration":638315,"SoundDuration":638315,"Delta":27009467},{"NoteNumber":60,"Velocity":25,"Duration":638315,"SoundDuration":638315,"Delta":27009467},{"NoteNumber":76,"Velocity":50,"Duration":317460,"SoundDuration":317460,"Delta":27330322},{"NoteNumber":57,"Velocity":33,"Duration":631596,"SoundDuration":631596,"Delta":27330322},{"NoteNumber":63,"Velocity":27,"Duration":314136,"SoundDuration":314136,"Delta":27647783},{"NoteNumber":75,"Velocity":45,"Duration":314136,"SoundDuration":314136,"Delta":27647783},{"NoteNumber":65,"Velocity":22,"Duration":314136,"SoundDuration":314136,"Delta":27647783},{"NoteNumber":60,"Velocity":22,"Duration":314136,"SoundDuration":314136,"Delta":27647783},{"NoteNumber":74,"Velocity":46,"Duration":333333,"SoundDuration":333333,"Delta":27961919},{"NoteNumber":58,"Velocity":36,"Duration":684795,"SoundDuration":684795,"Delta":27961919},{"NoteNumber":65,"Velocity":27,"Duration":713416,"SoundDuration":713416,"Delta":28295252},{"NoteNumber":76,"Velocity":46,"Duration":351462,"SoundDuration":351462,"Delta":28295252},{"NoteNumber":70,"Velocity":25,"Duration":351462,"SoundDuration":351462,"Delta":28295252},{"NoteNumber":62,"Velocity":25,"Duration":351462,"SoundDuration":351462,"Delta":28295252},{"NoteNumber":77,"Velocity":49,"Duration":361954,"SoundDuration":361954,"Delta":28646714},{"NoteNumber":55,"Velocity":29,"Duration":751772,"SoundDuration":751772,"Delta":28646714},{"NoteNumber":59,"Velocity":22,"Duration":482797,"SoundDuration":482797,"Delta":28915690},{"NoteNumber":62,"Velocity":22,"Duration":467365,"SoundDuration":467365,"Delta":28931122},{"NoteNumber":71,"Velocity":22,"Duration":451932,"SoundDuration":451932,"Delta":28946554},{"NoteNumber":65,"Velocity":27,"Duration":436500,"SoundDuration":436500,"Delta":28961986},{"NoteNumber":67,"Velocity":25,"Duration":421068,"SoundDuration":421068,"Delta":28977418},{"NoteNumber":74,"Velocity":25,"Duration":405443,"SoundDuration":405443,"Delta":28993043},{"NoteNumber":79,"Velocity":43,"Duration":389818,"SoundDuration":389818,"Delta":29008668},{"NoteNumber":81,"Velocity":49,"Duration":781890,"SoundDuration":781890,"Delta":29398487},{"NoteNumber":60,"Velocity":34,"Duration":781890,"SoundDuration":781890,"Delta":29398487},{"NoteNumber":69,"Velocity":28,"Duration":762834,"SoundDuration":762834,"Delta":29812280},{"NoteNumber":72,"Velocity":25,"Duration":762834,"SoundDuration":762834,"Delta":29812280},{"NoteNumber":69,"Velocity":21,"Duration":762834,"SoundDuration":762834,"Delta":29812280},{"NoteNumber":65,"Velocity":21,"Duration":762834,"SoundDuration":762834,"Delta":29812280},{"NoteNumber":79,"Velocity":44,"Duration":829519,"SoundDuration":829519,"Delta":30180378},{"NoteNumber":60,"Velocity":31,"Duration":829519,"SoundDuration":829519,"Delta":30180378},{"NoteNumber":67,"Velocity":25,"Duration":434782,"SoundDuration":434782,"Delta":30575115},{"NoteNumber":72,"Velocity":25,"Duration":434782,"SoundDuration":434782,"Delta":30575115},{"NoteNumber":64,"Velocity":17,"Duration":434782,"SoundDuration":434782,"Delta":30575115},{"NoteNumber":70,"Velocity":17,"Duration":434782,"SoundDuration":434782,"Delta":30575115},{"NoteNumber":77,"Velocity":38,"Duration":869564,"SoundDuration":869564,"Delta":31009898},{"NoteNumber":53,"Velocity":29,"Duration":869564,"SoundDuration":869564,"Delta":31009898},{"NoteNumber":65,"Velocity":25,"Duration":869565,"SoundDuration":869565,"Delta":31444680},{"NoteNumber":72,"Velocity":25,"Duration":869565,"SoundDuration":869565,"Delta":31444680},{"NoteNumber":69,"Velocity":17,"Duration":869565,"SoundDuration":869565,"Delta":31444680},{"NoteNumber":60,"Velocity":17,"Duration":869565,"SoundDuration":869565,"Delta":31444680},{"NoteNumber":72,"Velocity":50,"Duration":324324,"SoundDuration":324324,"Delta":32314245},{"NoteNumber":69,"Velocity":25,"Duration":324324,"SoundDuration":324324,"Delta":32314245},{"NoteNumber":60,"Velocity":25,"Duration":324324,"SoundDuration":324324,"Delta":32314245},{"NoteNumber":72,"Velocity":56,"Duration":327868,"SoundDuration":327868,"Delta":32638570},{"NoteNumber":48,"Velocity":40,"Duration":1260562,"SoundDuration":1260562,"Delta":32638570},{"NoteNumber":60,"Velocity":40,"Duration":623414,"SoundDuration":623414,"Delta":32966439},{"NoteNumber":67,"Velocity":51,"Duration":314135,"SoundDuration":314135,"Delta":32966439},{"NoteNumber":64,"Velocity":40,"Duration":623414,"SoundDuration":623414,"Delta":32966439},{"NoteNumber":58,"Velocity":40,"Duration":623414,"SoundDuration":623414,"Delta":32966439},{"NoteNumber":69,"Velocity":54,"Duration":309278,"SoundDuration":309278,"Delta":33280575},{"NoteNumber":60,"Velocity":40,"Duration":309278,"SoundDuration":309278,"Delta":33589853},{"NoteNumber":70,"Velocity":57,"Duration":309278,"SoundDuration":309278,"Delta":33589853},{"NoteNumber":64,"Velocity":40,"Duration":309278,"SoundDuration":309278,"Delta":33589853},{"NoteNumber":58,"Velocity":40,"Duration":309278,"SoundDuration":309278,"Delta":33589853},{"NoteNumber":74,"Velocity":56,"Duration":936240,"SoundDuration":936240,"Delta":33899132},{"NoteNumber":48,"Velocity":40,"Duration":1243932,"SoundDuration":1243932,"Delta":33899132},{"NoteNumber":62,"Velocity":52,"Duration":615385,"SoundDuration":615385,"Delta":34219987},{"NoteNumber":64,"Velocity":48,"Duration":307692,"SoundDuration":307692,"Delta":34527680},{"NoteNumber":60,"Velocity":40,"Duration":307692,"SoundDuration":307692,"Delta":34835372},{"NoteNumber":66,"Velocity":48,"Duration":307692,"SoundDuration":307692,"Delta":34835372},{"NoteNumber":62,"Velocity":40,"Duration":307692,"SoundDuration":307692,"Delta":34835372},{"NoteNumber":58,"Velocity":41,"Duration":314135,"SoundDuration":314135,"Delta":35143065},{"NoteNumber":67,"Velocity":50,"Duration":314135,"SoundDuration":314135,"Delta":35143065},{"NoteNumber":48,"Velocity":37,"Duration":620258,"SoundDuration":620258,"Delta":35143065},{"NoteNumber":70,"Velocity":52,"Duration":306122,"SoundDuration":306122,"Delta":35457201},{"NoteNumber":55,"Velocity":32,"Duration":607630,"SoundDuration":607630,"Delta":35457201},{"NoteNumber":62,"Velocity":52,"Duration":603861,"SoundDuration":603861,"Delta":35457201},{"NoteNumber":74,"Velocity":54,"Duration":301507,"SoundDuration":301507,"Delta":35763323},{"NoteNumber":48,"Velocity":33,"Duration":632998,"SoundDuration":632998,"Delta":35763323},{"NoteNumber":60,"Velocity":32,"Duration":331491,"SoundDuration":331491,"Delta":36064831},{"NoteNumber":62,"Velocity":44,"Duration":331491,"SoundDuration":331491,"Delta":36064831},{"NoteNumber":54,"Velocity":32,"Duration":331491,"SoundDuration":331491,"Delta":36064831},{"NoteNumber":67,"Velocity":46,"Duration":662983,"SoundDuration":662983,"Delta":36396322},{"NoteNumber":48,"Velocity":40,"Duration":1305355,"SoundDuration":1305355,"Delta":36396322},{"NoteNumber":58,"Velocity":33,"Duration":662983,"SoundDuration":662983,"Delta":36727814},{"NoteNumber":62,"Velocity":30,"Duration":662983,"SoundDuration":662983,"Delta":36727814},{"NoteNumber":55,"Velocity":25,"Duration":662983,"SoundDuration":662983,"Delta":36727814},{"NoteNumber":70,"Velocity":53,"Duration":310881,"SoundDuration":310881,"Delta":37390797},{"NoteNumber":62,"Velocity":34,"Duration":310881,"SoundDuration":310881,"Delta":37390797},{"NoteNumber":55,"Velocity":34,"Duration":310881,"SoundDuration":310881,"Delta":37390797},{"NoteNumber":74,"Velocity":59,"Duration":310880,"SoundDuration":310880,"Delta":37701678},{"NoteNumber":48,"Velocity":42,"Duration":1219640,"SoundDuration":1219640,"Delta":37701678},{"NoteNumber":66,"Velocity":32,"Duration":908759,"SoundDuration":908759,"Delta":38012559},{"NoteNumber":69,"Velocity":55,"Duration":305474,"SoundDuration":305474,"Delta":38012559},{"NoteNumber":62,"Velocity":54,"Duration":608381,"SoundDuration":608381,"Delta":38012559},{"NoteNumber":70,"Velocity":59,"Duration":302906,"SoundDuration":302906,"Delta":38318034},{"NoteNumber":72,"Velocity":63,"Duration":300378,"SoundDuration":300378,"Delta":38620940},{"NoteNumber":60,"Velocity":44,"Duration":300378,"SoundDuration":300378,"Delta":38620940},{"NoteNumber":76,"Velocity":63,"Duration":918804,"SoundDuration":918804,"Delta":38921318},{"NoteNumber":48,"Velocity":45,"Duration":1220311,"SoundDuration":1220311,"Delta":38921318},{"NoteNumber":64,"Velocity":59,"Duration":603014,"SoundDuration":603014,"Delta":39237107},{"NoteNumber":59,"Velocity":48,"Duration":603014,"SoundDuration":603014,"Delta":39237107},{"NoteNumber":62,"Velocity":48,"Duration":599246,"SoundDuration":599246,"Delta":39237107},{"NoteNumber":66,"Velocity":52,"Duration":301507,"SoundDuration":301507,"Delta":39538615},{"NoteNumber":62,"Velocity":44,"Duration":301507,"SoundDuration":301507,"Delta":39840122},{"NoteNumber":68,"Velocity":52,"Duration":301507,"SoundDuration":301507,"Delta":39840122},{"NoteNumber":59,"Velocity":44,"Duration":301507,"SoundDuration":301507,"Delta":39840122},{"NoteNumber":60,"Velocity":45,"Duration":312500,"SoundDuration":312500,"Delta":40141630},{"NoteNumber":69,"Velocity":55,"Duration":312500,"SoundDuration":312500,"Delta":40141630},{"NoteNumber":48,"Velocity":40,"Duration":618622,"SoundDuration":618622,"Delta":40141630},{"NoteNumber":72,"Velocity":57,"Duration":306122,"SoundDuration":306122,"Delta":40454130},{"NoteNumber":57,"Velocity":47,"Duration":607630,"SoundDuration":607630,"Delta":40454130},{"NoteNumber":64,"Velocity":57,"Duration":607630,"SoundDuration":607630,"Delta":40454130},{"NoteNumber":76,"Velocity":59,"Duration":301507,"SoundDuration":301507,"Delta":40760252},{"NoteNumber":48,"Velocity":36,"Duration":632998,"SoundDuration":632998,"Delta":40760252},{"NoteNumber":62,"Velocity":41,"Duration":650640,"SoundDuration":650640,"Delta":41061760},{"NoteNumber":64,"Velocity":50,"Duration":650640,"SoundDuration":650640,"Delta":41061760},{"NoteNumber":56,"Velocity":41,"Duration":650640,"SoundDuration":650640,"Delta":41061760},{"NoteNumber":48,"Velocity":56,"Duration":660869,"SoundDuration":660869,"Delta":41393251},{"NoteNumber":60,"Velocity":57,"Duration":682382,"SoundDuration":682382,"Delta":41712400},{"NoteNumber":69,"Velocity":57,"Duration":686718,"SoundDuration":686718,"Delta":41712400},{"NoteNumber":57,"Velocity":50,"Duration":686718,"SoundDuration":686718,"Delta":41712400},{"NoteNumber":64,"Velocity":50,"Duration":686718,"SoundDuration":686718,"Delta":41712400},{"NoteNumber":48,"Velocity":50,"Duration":693332,"SoundDuration":693332,"Delta":42054121},{"NoteNumber":58,"Velocity":53,"Duration":348335,"SoundDuration":348335,"Delta":42399119},{"NoteNumber":67,"Velocity":53,"Duration":348335,"SoundDuration":348335,"Delta":42399119},{"NoteNumber":52,"Velocity":50,"Duration":348335,"SoundDuration":348335,"Delta":42399119},{"NoteNumber":60,"Velocity":50,"Duration":348335,"SoundDuration":348335,"Delta":42399119},{"NoteNumber":65,"Velocity":62,"Duration":736195,"SoundDuration":736195,"Delta":42747454},{"NoteNumber":41,"Velocity":56,"Duration":1446255,"SoundDuration":1446255,"Delta":42747454},{"NoteNumber":53,"Velocity":53,"Duration":723127,"SoundDuration":723127,"Delta":43115552},{"NoteNumber":60,"Velocity":53,"Duration":723127,"SoundDuration":723127,"Delta":43115552},{"NoteNumber":57,"Velocity":40,"Duration":723127,"SoundDuration":723127,"Delta":43115552},{"NoteNumber":48,"Velocity":40,"Duration":723127,"SoundDuration":723127,"Delta":43115552},{"NoteNumber":64,"Velocity":49,"Duration":355029,"SoundDuration":355029,"Delta":43483650},{"NoteNumber":53,"Velocity":35,"Duration":355029,"SoundDuration":355029,"Delta":43838679},{"NoteNumber":63,"Velocity":45,"Duration":355029,"SoundDuration":355029,"Delta":43838679},{"NoteNumber":48,"Velocity":34,"Duration":355029,"SoundDuration":355029,"Delta":43838679},{"NoteNumber":57,"Velocity":34,"Duration":355029,"SoundDuration":355029,"Delta":43838679},{"NoteNumber":74,"Velocity":48,"Duration":338982,"SoundDuration":338982,"Delta":44193709},{"NoteNumber":46,"Velocity":34,"Duration":691924,"SoundDuration":691924,"Delta":44193709},{"NoteNumber":65,"Velocity":27,"Duration":712222,"SoundDuration":712222,"Delta":44532692},{"NoteNumber":76,"Velocity":44,"Duration":352941,"SoundDuration":352941,"Delta":44532692},{"NoteNumber":50,"Velocity":22,"Duration":712222,"SoundDuration":712222,"Delta":44532692},{"NoteNumber":58,"Velocity":24,"Duration":712222,"SoundDuration":712222,"Delta":44532692},{"NoteNumber":77,"Velocity":44,"Duration":359281,"SoundDuration":359281,"Delta":44885633},{"NoteNumber":43,"Velocity":34,"Duration":718563,"SoundDuration":718563,"Delta":44885633},{"NoteNumber":65,"Velocity":27,"Duration":359281,"SoundDuration":359281,"Delta":45244914},{"NoteNumber":79,"Velocity":44,"Duration":359281,"SoundDuration":359281,"Delta":45244914},{"NoteNumber":62,"Velocity":17,"Duration":359281,"SoundDuration":359281,"Delta":45244914},{"NoteNumber":58,"Velocity":17,"Duration":359281,"SoundDuration":359281,"Delta":45244914},{"NoteNumber":72,"Velocity":46,"Duration":1034734,"SoundDuration":1034734,"Delta":45604196},{"NoteNumber":48,"Velocity":30,"Duration":342532,"SoundDuration":342532,"Delta":45604196},{"NoteNumber":60,"Velocity":26,"Duration":692202,"SoundDuration":692202,"Delta":45946728},{"NoteNumber":67,"Velocity":37,"Duration":343357,"SoundDuration":343357,"Delta":45946728},{"NoteNumber":58,"Velocity":32,"Duration":343357,"SoundDuration":343357,"Delta":45946728},{"NoteNumber":64,"Velocity":22,"Duration":692202,"SoundDuration":692202,"Delta":45946728},{"NoteNumber":69,"Velocity":37,"Duration":348844,"SoundDuration":348844,"Delta":46290085},{"NoteNumber":57,"Velocity":35,"Duration":348844,"SoundDuration":348844,"Delta":46290085},{"NoteNumber":60,"Velocity":26,"Duration":352941,"SoundDuration":352941,"Delta":46638930},{"NoteNumber":70,"Velocity":36,"Duration":352941,"SoundDuration":352941,"Delta":46638930},{"NoteNumber":55,"Velocity":28,"Duration":352941,"SoundDuration":352941,"Delta":46638930},{"NoteNumber":64,"Velocity":22,"Duration":352941,"SoundDuration":352941,"Delta":46638930},{"NoteNumber":69,"Velocity":37,"Duration":705881,"SoundDuration":705881,"Delta":46991871},{"NoteNumber":53,"Velocity":33,"Duration":705881,"SoundDuration":705881,"Delta":46991871},{"NoteNumber":65,"Velocity":24,"Duration":701470,"SoundDuration":701470,"Delta":47344812},{"NoteNumber":60,"Velocity":20,"Duration":705881,"SoundDuration":705881,"Delta":47344812},{"NoteNumber":57,"Velocity":20,"Duration":705881,"SoundDuration":705881,"Delta":47344812},{"NoteNumber":72,"Velocity":50,"Duration":352941,"SoundDuration":352941,"Delta":48050694},{"NoteNumber":65,"Velocity":22,"Duration":352941,"SoundDuration":352941,"Delta":48050694},{"NoteNumber":57,"Velocity":22,"Duration":352941,"SoundDuration":352941,"Delta":48050694},{"NoteNumber":72,"Velocity":50,"Duration":329670,"SoundDuration":329670,"Delta":48403635},{"NoteNumber":53,"Velocity":36,"Duration":650525,"SoundDuration":650525,"Delta":48403635},{"NoteNumber":77,"Velocity":54,"Duration":320855,"SoundDuration":320855,"Delta":48733306},{"NoteNumber":65,"Velocity":27,"Duration":634347,"SoundDuration":634347,"Delta":48733306},{"NoteNumber":69,"Velocity":21,"Duration":638316,"SoundDuration":638316,"Delta":48733306},{"NoteNumber":60,"Velocity":21,"Duration":638316,"SoundDuration":638316,"Delta":48733306},{"NoteNumber":76,"Velocity":50,"Duration":317460,"SoundDuration":317460,"Delta":49054161},{"NoteNumber":57,"Velocity":33,"Duration":631596,"SoundDuration":631596,"Delta":49054161},{"NoteNumber":63,"Velocity":27,"Duration":314135,"SoundDuration":314135,"Delta":49371622},{"NoteNumber":75,"Velocity":45,"Duration":314135,"SoundDuration":314135,"Delta":49371622},{"NoteNumber":65,"Velocity":18,"Duration":314135,"SoundDuration":314135,"Delta":49371622},{"NoteNumber":60,"Velocity":18,"Duration":314135,"SoundDuration":314135,"Delta":49371622},{"NoteNumber":74,"Velocity":46,"Duration":344827,"SoundDuration":344827,"Delta":49685758},{"NoteNumber":58,"Velocity":36,"Duration":704085,"SoundDuration":704085,"Delta":49685758},{"NoteNumber":65,"Velocity":27,"Duration":728207,"SoundDuration":728207,"Delta":50030585},{"NoteNumber":76,"Velocity":46,"Duration":359258,"SoundDuration":359258,"Delta":50030585},{"NoteNumber":70,"Velocity":25,"Duration":359258,"SoundDuration":359258,"Delta":50030585},{"NoteNumber":62,"Velocity":25,"Duration":359258,"SoundDuration":359258,"Delta":50030585},{"NoteNumber":77,"Velocity":49,"Duration":368948,"SoundDuration":368948,"Delta":50389844},{"NoteNumber":55,"Velocity":29,"Duration":760818,"SoundDuration":760818,"Delta":50389844},{"NoteNumber":59,"Velocity":22,"Duration":486014,"SoundDuration":486014,"Delta":50664647},{"NoteNumber":62,"Velocity":22,"Duration":470389,"SoundDuration":470389,"Delta":50680272},{"NoteNumber":71,"Velocity":22,"Duration":454764,"SoundDuration":454764,"Delta":50695897},{"NoteNumber":65,"Velocity":27,"Duration":439139,"SoundDuration":439139,"Delta":50711522},{"NoteNumber":67,"Velocity":25,"Duration":423514,"SoundDuration":423514,"Delta":50727147},{"NoteNumber":74,"Velocity":25,"Duration":407692,"SoundDuration":407692,"Delta":50742970},{"NoteNumber":79,"Velocity":43,"Duration":391869,"SoundDuration":391869,"Delta":50758792},{"NoteNumber":81,"Velocity":49,"Duration":781891,"SoundDuration":781891,"Delta":51150662},{"NoteNumber":60,"Velocity":34,"Duration":781891,"SoundDuration":781891,"Delta":51150662},{"NoteNumber":69,"Velocity":28,"Duration":762835,"SoundDuration":762835,"Delta":51564455},{"NoteNumber":72,"Velocity":25,"Duration":762835,"SoundDuration":762835,"Delta":51564455},{"NoteNumber":69,"Velocity":21,"Duration":762835,"SoundDuration":762835,"Delta":51564455},{"NoteNumber":65,"Velocity":21,"Duration":762835,"SoundDuration":762835,"Delta":51564455},{"NoteNumber":79,"Velocity":44,"Duration":829519,"SoundDuration":829519,"Delta":51932553},{"NoteNumber":60,"Velocity":31,"Duration":829519,"SoundDuration":829519,"Delta":51932553},{"NoteNumber":67,"Velocity":25,"Duration":434782,"SoundDuration":434782,"Delta":52327290},{"NoteNumber":72,"Velocity":25,"Duration":434782,"SoundDuration":434782,"Delta":52327290},{"NoteNumber":64,"Velocity":17,"Duration":434782,"SoundDuration":434782,"Delta":52327290},{"NoteNumber":70,"Velocity":17,"Duration":434782,"SoundDuration":434782,"Delta":52327290},{"NoteNumber":77,"Velocity":38,"Duration":869565,"SoundDuration":869565,"Delta":52762072},{"NoteNumber":53,"Velocity":29,"Duration":869565,"SoundDuration":869565,"Delta":52762072},{"NoteNumber":65,"Velocity":25,"Duration":869565,"SoundDuration":869565,"Delta":53196855},{"NoteNumber":72,"Velocity":25,"Duration":869565,"SoundDuration":869565,"Delta":53196855},{"NoteNumber":69,"Velocity":17,"Duration":869565,"SoundDuration":869565,"Delta":53196855},{"NoteNumber":60,"Velocity":17,"Duration":869565,"SoundDuration":869565,"Delta":53196855},{"NoteNumber":65,"Velocity":47,"Duration":273437,"SoundDuration":273437,"Delta":54066420},{"NoteNumber":72,"Velocity":47,"Duration":273437,"SoundDuration":273437,"Delta":54066420},{"NoteNumber":69,"Velocity":33,"Duration":273437,"SoundDuration":273437,"Delta":54066420},{"NoteNumber":60,"Velocity":33,"Duration":273437,"SoundDuration":273437,"Delta":54066420},{"NoteNumber":65,"Velocity":57,"Duration":304568,"SoundDuration":304568,"Delta":54378920},{"NoteNumber":74,"Velocity":57,"Duration":304568,"SoundDuration":304568,"Delta":54378920},{"NoteNumber":68,"Velocity":42,"Duration":304568,"SoundDuration":304568,"Delta":54378920},{"NoteNumber":59,"Velocity":42,"Duration":304568,"SoundDuration":304568,"Delta":54378920},{"NoteNumber":64,"Velocity":47,"Duration":273437,"SoundDuration":273437,"Delta":54683488},{"NoteNumber":72,"Velocity":47,"Duration":273437,"SoundDuration":273437,"Delta":54683488},{"NoteNumber":67,"Velocity":39,"Duration":273437,"SoundDuration":273437,"Delta":54683488},{"NoteNumber":60,"Velocity":39,"Duration":273437,"SoundDuration":273437,"Delta":54683488},{"NoteNumber":65,"Velocity":58,"Duration":306122,"SoundDuration":306122,"Delta":54995988},{"NoteNumber":74,"Velocity":58,"Duration":306122,"SoundDuration":306122,"Delta":54995988},{"NoteNumber":59,"Velocity":42,"Duration":306122,"SoundDuration":306122,"Delta":54995988},{"NoteNumber":68,"Velocity":42,"Duration":306122,"SoundDuration":306122,"Delta":54995988},{"NoteNumber":64,"Velocity":47,"Duration":273437,"SoundDuration":273437,"Delta":55302111},{"NoteNumber":72,"Velocity":47,"Duration":273437,"SoundDuration":273437,"Delta":55302111},{"NoteNumber":60,"Velocity":39,"Duration":273437,"SoundDuration":273437,"Delta":55302111},{"NoteNumber":67,"Velocity":39,"Duration":273437,"SoundDuration":273437,"Delta":55302111},{"NoteNumber":63,"Velocity":54,"Duration":265151,"SoundDuration":265151,"Delta":55614611},{"NoteNumber":72,"Velocity":54,"Duration":265151,"SoundDuration":265151,"Delta":55614611},{"NoteNumber":57,"Velocity":39,"Duration":303030,"SoundDuration":303030,"Delta":55614611},{"NoteNumber":62,"Velocity":47,"Duration":306122,"SoundDuration":306122,"Delta":55917641},{"NoteNumber":70,"Velocity":51,"Duration":607630,"SoundDuration":607630,"Delta":55917641},{"NoteNumber":65,"Velocity":37,"Duration":1543782,"SoundDuration":1543782,"Delta":55917641},{"NoteNumber":58,"Velocity":37,"Duration":306122,"SoundDuration":306122,"Delta":55917641},{"NoteNumber":61,"Velocity":47,"Duration":301507,"SoundDuration":301507,"Delta":56223764},{"NoteNumber":55,"Velocity":37,"Duration":301507,"SoundDuration":301507,"Delta":56223764},{"NoteNumber":60,"Velocity":46,"Duration":306122,"SoundDuration":306122,"Delta":56525271},{"NoteNumber":69,"Velocity":46,"Duration":306122,"SoundDuration":306122,"Delta":56525271},{"NoteNumber":57,"Velocity":36,"Duration":306122,"SoundDuration":306122,"Delta":56525271},{"NoteNumber":62,"Velocity":50,"Duration":630030,"SoundDuration":630030,"Delta":56831394},{"NoteNumber":67,"Velocity":50,"Duration":630030,"SoundDuration":630030,"Delta":56831394},{"NoteNumber":58,"Velocity":39,"Duration":310881,"SoundDuration":310881,"Delta":56831394},{"NoteNumber":55,"Velocity":34,"Duration":319149,"SoundDuration":319149,"Delta":57142275},{"NoteNumber":64,"Velocity":43,"Duration":655737,"SoundDuration":655737,"Delta":57461424},{"NoteNumber":69,"Velocity":43,"Duration":655737,"SoundDuration":655737,"Delta":57461424},{"NoteNumber":60,"Velocity":37,"Duration":327868,"SoundDuration":327868,"Delta":57461424},{"NoteNumber":58,"Velocity":31,"Duration":327868,"SoundDuration":327868,"Delta":57789293},{"NoteNumber":60,"Velocity":38,"Duration":990851,"SoundDuration":990851,"Delta":58117162},{"NoteNumber":65,"Velocity":38,"Duration":990851,"SoundDuration":990851,"Delta":58117162},{"NoteNumber":57,"Velocity":35,"Duration":990851,"SoundDuration":990851,"Delta":58117162},{"NoteNumber":53,"Velocity":35,"Duration":331491,"SoundDuration":331491,"Delta":58448653},{"NoteNumber":48,"Velocity":35,"Duration":601306,"SoundDuration":601306,"Delta":58780145},{"NoteNumber":53,"Velocity":39,"Duration":273437,"SoundDuration":273437,"Delta":59108014},{"NoteNumber":60,"Velocity":39,"Duration":273437,"SoundDuration":273437,"Delta":59108014},{"NoteNumber":48,"Velocity":33,"Duration":312500,"SoundDuration":312500,"Delta":59108014},{"NoteNumber":57,"Velocity":33,"Duration":273437,"SoundDuration":273437,"Delta":59108014},{"NoteNumber":53,"Velocity":50,"Duration":304568,"SoundDuration":304568,"Delta":59420514},{"NoteNumber":62,"Velocity":50,"Duration":304568,"SoundDuration":304568,"Delta":59420514},{"NoteNumber":56,"Velocity":35,"Duration":304568,"SoundDuration":304568,"Delta":59420514},{"NoteNumber":47,"Velocity":35,"Duration":304568,"SoundDuration":304568,"Delta":59420514},{"NoteNumber":52,"Velocity":39,"Duration":273437,"SoundDuration":273437,"Delta":59725082},{"NoteNumber":60,"Velocity":39,"Duration":273437,"SoundDuration":273437,"Delta":59725082},{"NoteNumber":55,"Velocity":32,"Duration":273437,"SoundDuration":273437,"Delta":59725082},{"NoteNumber":48,"Velocity":32,"Duration":273437,"SoundDuration":273437,"Delta":59725082},{"NoteNumber":53,"Velocity":51,"Duration":304568,"SoundDuration":304568,"Delta":60037582},{"NoteNumber":62,"Velocity":51,"Duration":304568,"SoundDuration":304568,"Delta":60037582},{"NoteNumber":47,"Velocity":36,"Duration":304568,"SoundDuration":304568,"Delta":60037582},{"NoteNumber":56,"Velocity":36,"Duration":304568,"SoundDuration":304568,"Delta":60037582},{"NoteNumber":52,"Velocity":39,"Duration":273437,"SoundDuration":273437,"Delta":60342151},{"NoteNumber":60,"Velocity":39,"Duration":273437,"SoundDuration":273437,"Delta":60342151},{"NoteNumber":48,"Velocity":34,"Duration":273437,"SoundDuration":273437,"Delta":60342151},{"NoteNumber":55,"Velocity":34,"Duration":273437,"SoundDuration":273437,"Delta":60342151},{"NoteNumber":51,"Velocity":48,"Duration":280748,"SoundDuration":280748,"Delta":60654651},{"NoteNumber":60,"Velocity":48,"Duration":280748,"SoundDuration":280748,"Delta":60654651},{"NoteNumber":45,"Velocity":38,"Duration":320855,"SoundDuration":320855,"Delta":60654651},{"NoteNumber":50,"Velocity":42,"Duration":329670,"SoundDuration":329670,"Delta":60975506},{"NoteNumber":58,"Velocity":46,"Duration":650525,"SoundDuration":650525,"Delta":60975506},{"NoteNumber":53,"Velocity":33,"Duration":1760382,"SoundDuration":1760382,"Delta":60975506},{"NoteNumber":46,"Velocity":33,"Duration":329670,"SoundDuration":329670,"Delta":60975506},{"NoteNumber":49,"Velocity":42,"Duration":320855,"SoundDuration":320855,"Delta":61305177},{"NoteNumber":43,"Velocity":41,"Duration":320855,"SoundDuration":320855,"Delta":61305177},{"NoteNumber":48,"Velocity":41,"Duration":357143,"SoundDuration":357143,"Delta":61626032},{"NoteNumber":57,"Velocity":41,"Duration":357143,"SoundDuration":357143,"Delta":61626032},{"NoteNumber":45,"Velocity":37,"Duration":357143,"SoundDuration":357143,"Delta":61626032},{"NoteNumber":50,"Velocity":39,"Duration":752713,"SoundDuration":752713,"Delta":61983175},{"NoteNumber":55,"Velocity":39,"Duration":752713,"SoundDuration":752713,"Delta":61983175},{"NoteNumber":46,"Velocity":46,"Duration":368098,"SoundDuration":368098,"Delta":61983175},{"NoteNumber":43,"Velocity":35,"Duration":384615,"SoundDuration":384615,"Delta":62351273},{"NoteNumber":52,"Velocity":38,"Duration":856533,"SoundDuration":856533,"Delta":62735889},{"NoteNumber":57,"Velocity":38,"Duration":856533,"SoundDuration":856533,"Delta":62735889},{"NoteNumber":48,"Velocity":41,"Duration":856533,"SoundDuration":856533,"Delta":62735889},{"NoteNumber":36,"Velocity":33,"Duration":451127,"SoundDuration":451127,"Delta":63141294},{"NoteNumber":48,"Velocity":34,"Duration":2545401,"SoundDuration":2545401,"Delta":63592422},{"NoteNumber":53,"Velocity":34,"Duration":2545401,"SoundDuration":2545401,"Delta":63592422},{"NoteNumber":45,"Velocity":37,"Duration":3677477,"SoundDuration":3677477,"Delta":63592422},{"NoteNumber":36,"Velocity":31,"Duration":882352,"SoundDuration":882352,"Delta":64123396},{"NoteNumber":29,"Velocity":26,"Duration":2264150,"SoundDuration":2264150,"Delta":65005749}]}