{"title":"Der Dichter spricht","artist":"Schumann","durationMs":77460,"midiSha256":"5a8db030183e24818acefd2f5787a6496377e6d12d0f3f2154c3100ef38e466d","midiObject":[{"NoteNumber":62,"Velocity":44,"Duration":1206593,"SoundDuration":1206593,"Delta":0},{"NoteNumber":66,"Velocity":44,"Duration":1207904,"SoundDuration":1207904,"Delta":0},{"NoteNumber":48,"Velocity":35,"Duration":1207904,"SoundDuration":1207904,"Delta":0},{"NoteNumber":57,"Velocity":35,"Duration":1207904,"SoundDuration":1207904,"Delta":0},{"NoteNumber":62,"Velocity":46,"Duration":1258390,"SoundDuration":1258390,"Delta":1206594},{"NoteNumber":67,"Velocity":46,"Duration":1258390,"SoundDuration":1258390,"Delta":1206594},{"NoteNumber":47,"Velocity":36,"Duration":1258390,"SoundDuration":1258390,"Delta":1206594},{"NoteNumber":55,"Velocity":36,"Duration":1258390,"SoundDuration":1258390,"Delta":1206594},{"NoteNumber":62,"Velocity":54,"Duration":1811777,"SoundDuration":1811777,"Delta":2464984},{"NoteNumber":72,"Velocity":54,"Duration":1811777,"SoundDuration":1811777,"Delta":2464984},{"NoteNumber":54,"Velocity":42,"Duration":1811777,"SoundDuration":1811777,"Delta":2464984},{"NoteNumber":45,"Velocity":42,"Duration":1811777,"SoundDuration":1811777,"Delta":2464984},{"NoteNumber":62,"Velocity":39,"Duration":617728,"SoundDuration":617728,"Delta":4276762},{"NoteNumber":71,"Velocity":39,"Duration":617728,"SoundDuration":617728,"Delta":4276762},{"NoteNumber":55,"Velocity":30,"Duration":617728,"SoundDuration":617728,"Delta":4276762},{"NoteNumber":47,"Velocity":30,"Duration":617728,"SoundDuration":617728,"Delta":4276762},{"NoteNumber":69,"Velocity":40,"Duration":776459,"SoundDuration":776459,"Delta":4894490},{"NoteNumber":64,"Velocity":40,"Duration":1260506,"SoundDuration":1260506,"Delta":4894490},{"NoteNumber":55,"Velocity":31,"Duration":1260506,"SoundDuration":1260506,"Delta":4894490},{"NoteNumber":48,"Velocity":31,"Duration":1260506,"SoundDuration":1260506,"Delta":4894490},{"NoteNumber":71,"Velocity":32,"Duration":119047,"SoundDuration":119047,"Delta":5670950},{"NoteNumber":69,"Velocity":32,"Duration":119049,"SoundDuration":119049,"Delta":5789997},{"NoteNumber":67,"Velocity":32,"Duration":121481,"SoundDuration":121481,"Delta":5909047},{"NoteNumber":69,"Velocity":32,"Duration":124468,"SoundDuration":124468,"Delta":6030528},{"NoteNumber":71,"Velocity":39,"Duration":927835,"SoundDuration":927835,"Delta":6154997},{"NoteNumber":64,"Velocity":39,"Duration":1243924,"SoundDuration":1243924,"Delta":6154997},{"NoteNumber":49,"Velocity":24,"Duration":1243924,"SoundDuration":1243924,"Delta":6154997},{"NoteNumber":55,"Velocity":24,"Duration":1243924,"SoundDuration":1243924,"Delta":6154997},{"NoteNumber":67,"Velocity":32,"Duration":316088,"SoundDuration":316088,"Delta":7082833},{"NoteNumber":62,"Velocity":38,"Duration":2528109,"SoundDuration":2528109,"Delta":7398922},{"NoteNumber":71,"Velocity":38,"Duration":1264355,"SoundDuration":1264355,"Delta":7398922},{"NoteNumber":55,"Velocity":27,"Duration":1264355,"SoundDuration":1264355,"Delta":7398922},{"NoteNumber":50,"Velocity":27,"Duration":2528109,"SoundDuration":2528109,"Delta":7398922},{"NoteNumber":69,"Velocity":33,"Duration":1263753,"SoundDuration":1263753,"Delta":8663278},{"NoteNumber":54,"Velocity":24,"Duration":1263753,"SoundDuration":1263753,"Delta":8663278},{"NoteNumber":68,"Velocity":44,"Duration":1235457,"SoundDuration":1235457,"Delta":9927032},{"NoteNumber":65,"Velocity":44,"Duration":1235457,"SoundDuration":1235457,"Delta":9927032},{"NoteNumber":59,"Velocity":35,"Duration":1235457,"SoundDuration":1235457,"Delta":9927032},{"NoteNumber":50,"Velocity":35,"Duration":1235457,"SoundDuration":1235457,"Delta":9927032},{"NoteNumber":64,"Velocity":50,"Duration":1307048,"SoundDuration":1307048,"Delta":11162490},{"NoteNumber":69,"Velocity":50,"Duration":1307048,"SoundDuration":1307048,"Delta":11162490},{"NoteNumber":57,"Velocity":38,"Duration":1307048,"SoundDuration":1307048,"Delta":11162490},{"NoteNumber":48,"Velocity":38,"Duration":1307048,"SoundDuration":1307048,"Delta":11162490},{"NoteNumber":65,"Velocity":57,"Duration":1394625,"SoundDuration":1394625,"Delta":12469538},{"NoteNumber":74,"Velocity":57,"Duration":1394625,"SoundDuration":1394625,"Delta":12469538},{"NoteNumber":56,"Velocity":42,"Duration":823978,"SoundDuration":823978,"Delta":12469538},{"NoteNumber":47,"Velocity":42,"Duration":1394625,"SoundDuration":1394625,"Delta":12469538},{"NoteNumber":57,"Velocity":40,"Duration":127840,"SoundDuration":127840,"Delta":13293516},{"NoteNumber":56,"Velocity":40,"Duration":133757,"SoundDuration":133757,"Delta":13421357},{"NoteNumber":55,"Velocity":40,"Duration":144872,"SoundDuration":144872,"Delta":13555114},{"NoteNumber":56,"Velocity":40,"Duration":164176,"SoundDuration":164176,"Delta":13699987},{"NoteNumber":64,"Velocity":43,"Duration":1420684,"SoundDuration":1420684,"Delta":13750527},{"NoteNumber":72,"Velocity":56,"Duration":1307048,"SoundDuration":1307048,"Delta":13864163},{"NoteNumber":48,"Velocity":44,"Duration":1307048,"SoundDuration":1307048,"Delta":13864163},{"NoteNumber":65,"Velocity":35,"Duration":1409112,"SoundDuration":1409112,"Delta":15777823},{"NoteNumber":62,"Velocity":35,"Duration":1409112,"SoundDuration":1409112,"Delta":15777823},{"NoteNumber":71,"Velocity":28,"Duration":1409112,"SoundDuration":1409112,"Delta":15777823},{"NoteNumber":50,"Velocity":31,"Duration":1409112,"SoundDuration":1409112,"Delta":15777823},{"NoteNumber":59,"Velocity":32,"Duration":176138,"SoundDuration":176138,"Delta":17327847},{"NoteNumber":64,"Velocity":32,"Duration":176138,"SoundDuration":176138,"Delta":17327847},{"NoteNumber":68,"Velocity":25,"Duration":176138,"SoundDuration":176138,"Delta":17327847},{"NoteNumber":52,"Velocity":29,"Duration":176138,"SoundDuration":176138,"Delta":17327847},{"NoteNumber":59,"Velocity":32,"Duration":1294498,"SoundDuration":1294498,"Delta":17503986},{"NoteNumber":64,"Velocity":32,"Duration":1941746,"SoundDuration":1941746,"Delta":17503986},{"NoteNumber":68,"Velocity":25,"Duration":1294498,"SoundDuration":1294498,"Delta":17503986},{"NoteNumber":52,"Velocity":29,"Duration":1294498,"SoundDuration":1294498,"Delta":17503986},{"NoteNumber":60,"Velocity":30,"Duration":647248,"SoundDuration":647248,"Delta":18798484},{"NoteNumber":69,"Velocity":24,"Duration":647248,"SoundDuration":647248,"Delta":18798484},{"NoteNumber":45,"Velocity":28,"Duration":647248,"SoundDuration":647248,"Delta":18798484},{"NoteNumber":66,"Velocity":36,"Duration":1238146,"SoundDuration":1238146,"Delta":20092982},{"NoteNumber":48,"Velocity":32,"Duration":1238146,"SoundDuration":1238146,"Delta":20092982},{"NoteNumber":62,"Velocity":29,"Duration":301963,"SoundDuration":301963,"Delta":20394945},{"NoteNumber":57,"Velocity":29,"Duration":302655,"SoundDuration":302655,"Delta":20696908},{"NoteNumber":50,"Velocity":29,"Duration":331565,"SoundDuration":331565,"Delta":20999563},{"NoteNumber":67,"Velocity":36,"Duration":1288841,"SoundDuration":1288841,"Delta":21331128},{"NoteNumber":47,"Velocity":33,"Duration":1288841,"SoundDuration":1288841,"Delta":21331128},{"NoteNumber":62,"Velocity":29,"Duration":304692,"SoundDuration":304692,"Delta":21635820},{"NoteNumber":55,"Velocity":29,"Duration":305764,"SoundDuration":305764,"Delta":21940513},{"NoteNumber":50,"Velocity":29,"Duration":373691,"SoundDuration":373691,"Delta":22246278},{"NoteNumber":72,"Velocity":32,"Duration":3157479,"SoundDuration":3157479,"Delta":22619970},{"NoteNumber":45,"Velocity":36,"Duration":3157479,"SoundDuration":3157479,"Delta":22619970},{"NoteNumber":63,"Velocity":26,"Duration":2810618,"SoundDuration":2810618,"Delta":22966831},{"NoteNumber":54,"Velocity":24,"Duration":2444988,"SoundDuration":2444988,"Delta":23332461},{"NoteNumber":48,"Velocity":20,"Duration":2037490,"SoundDuration":2037490,"Delta":23739959},{"NoteNumber":63,"Velocity":33,"Duration":1266379,"SoundDuration":1266379,"Delta":25777449},{"NoteNumber":45,"Velocity":31,"Duration":1266379,"SoundDuration":1266379,"Delta":25777449},{"NoteNumber":60,"Velocity":28,"Duration":301963,"SoundDuration":301963,"Delta":26079412},{"NoteNumber":54,"Velocity":28,"Duration":302655,"SoundDuration":302655,"Delta":26381375},{"NoteNumber":48,"Velocity":28,"Duration":359798,"SoundDuration":359798,"Delta":26684031},{"NoteNumber":64,"Velocity":33,"Duration":1315412,"SoundDuration":1315412,"Delta":27043829},{"NoteNumber":43,"Velocity":32,"Duration":1315412,"SoundDuration":1315412,"Delta":27043829},{"NoteNumber":59,"Velocity":28,"Duration":309566,"SoundDuration":309566,"Delta":27349664},{"NoteNumber":52,"Velocity":28,"Duration":313512,"SoundDuration":313512,"Delta":27659230},{"NoteNumber":47,"Velocity":28,"Duration":386498,"SoundDuration":386498,"Delta":27972743},{"NoteNumber":69,"Velocity":31,"Duration":2657627,"SoundDuration":2657627,"Delta":28359242},{"NoteNumber":42,"Velocity":32,"Duration":2657627,"SoundDuration":2657627,"Delta":28359242},{"NoteNumber":60,"Velocity":26,"Duration":2908139,"SoundDuration":2908139,"Delta":28726844},{"NoteNumber":51,"Velocity":22,"Duration":1892147,"SoundDuration":1892147,"Delta":29124722},{"NoteNumber":45,"Velocity":19,"Duration":1419110,"SoundDuration":1419110,"Delta":29597759},{"NoteNumber":69,"Velocity":32,"Duration":218833,"SoundDuration":218833,"Delta":31225032},{"NoteNumber":71,"Velocity":35,"Duration":216565,"SoundDuration":216565,"Delta":31431056},{"NoteNumber":72,"Velocity":33,"Duration":214841,"SoundDuration":214841,"Delta":31634984},{"NoteNumber":71,"Velocity":36,"Duration":214841,"SoundDuration":214841,"Delta":31837188},{"NoteNumber":69,"Velocity":37,"Duration":229934,"SoundDuration":229934,"Delta":32039392},{"NoteNumber":78,"Velocity":39,"Duration":957141,"SoundDuration":957141,"Delta":32269327},{"NoteNumber":76,"Velocity":32,"Duration":345105,"SoundDuration":345105,"Delta":33226468},{"NoteNumber":76,"Velocity":32,"Duration":727272,"SoundDuration":727272,"Delta":33571573},{"NoteNumber":75,"Velocity":28,"Duration":845547,"SoundDuration":845547,"Delta":34298846},{"NoteNumber":75,"Velocity":37,"Duration":132837,"SoundDuration":132837,"Delta":35144393},{"NoteNumber":75,"Velocity":39,"Duration":132837,"SoundDuration":132837,"Delta":35277230},{"NoteNumber":76,"Velocity":40,"Duration":132837,"SoundDuration":132837,"Delta":35410068},{"NoteNumber":75,"Velocity":40,"Duration":132837,"SoundDuration":132837,"Delta":35542905},{"NoteNumber":74,"Velocity":42,"Duration":132837,"SoundDuration":132837,"Delta":35675742},{"NoteNumber":75,"Velocity":44,"Duration":132837,"SoundDuration":132837,"Delta":35808580},{"NoteNumber":76,"Velocity":45,"Duration":2579592,"SoundDuration":2579592,"Delta":35941417},{"NoteNumber":58,"Velocity":45,"Duration":1923834,"SoundDuration":1923834,"Delta":35941417},{"NoteNumber":64,"Velocity":35,"Duration":222344,"SoundDuration":222344,"Delta":36152358},{"NoteNumber":66,"Velocity":37,"Duration":220487,"SoundDuration":220487,"Delta":36361694},{"NoteNumber":67,"Velocity":40,"Duration":218914,"SoundDuration":218914,"Delta":36569304},{"NoteNumber":66,"Velocity":39,"Duration":218914,"SoundDuration":218914,"Delta":36775341},{"NoteNumber":64,"Velocity":41,"Duration":235855,"SoundDuration":235855,"Delta":36981378},{"NoteNumber":73,"Velocity":44,"Duration":972026,"SoundDuration":972026,"Delta":37217234},{"NoteNumber":59,"Velocity":39,"Duration":655757,"SoundDuration":655757,"Delta":37865252},{"NoteNumber":71,"Velocity":42,"Duration":331748,"SoundDuration":331748,"Delta":38189261},{"NoteNumber":61,"Velocity":37,"Duration":1551367,"SoundDuration":1551367,"Delta":38355135},{"NoteNumber":64,"Velocity":37,"Duration":1468430,"SoundDuration":1468430,"Delta":38438072},{"NoteNumber":76,"Velocity":44,"Duration":287108,"SoundDuration":287108,"Delta":38521009},{"NoteNumber":71,"Velocity":44,"Duration":712711,"SoundDuration":712711,"Delta":38521009},{"NoteNumber":76,"Velocity":42,"Duration":228502,"SoundDuration":228502,"Delta":38808118},{"NoteNumber":78,"Velocity":45,"Duration":223306,"SoundDuration":223306,"Delta":39023369},{"NoteNumber":79,"Velocity":48,"Duration":220230,"SoundDuration":220230,"Delta":39233721},{"NoteNumber":70,"Velocity":39,"Duration":2308006,"SoundDuration":2308006,"Delta":39233721},{"NoteNumber":78,"Velocity":46,"Duration":223414,"SoundDuration":223414,"Delta":39440996},{"NoteNumber":76,"Velocity":45,"Duration":258231,"SoundDuration":258231,"Delta":39648272},{"NoteNumber":91,"Velocity":38,"Duration":240444,"SoundDuration":240444,"Delta":39906503},{"NoteNumber":88,"Velocity":37,"Duration":246545,"SoundDuration":246545,"Delta":40146947},{"NoteNumber":85,"Velocity":36,"Duration":253127,"SoundDuration":253127,"Delta":40393492},{"NoteNumber":82,"Velocity":32,"Duration":280228,"SoundDuration":280228,"Delta":40646619},{"NoteNumber":79,"Velocity":29,"Duration":297601,"SoundDuration":297601,"Delta":40926848},{"NoteNumber":76,"Velocity":26,"Duration":317277,"SoundDuration":317277,"Delta":41224449},{"NoteNumber":66,"Velocity":36,"Duration":1486562,"SoundDuration":1486562,"Delta":41543276},{"NoteNumber":62,"Velocity":36,"Duration":1486562,"SoundDuration":1486562,"Delta":41543276},{"NoteNumber":48,"Velocity":36,"Duration":1486562,"SoundDuration":1486562,"Delta":41543276},{"NoteNumber":57,"Velocity":36,"Duration":1486562,"SoundDuration":1486562,"Delta":41543276},{"NoteNumber":62,"Velocity":42,"Duration":1431468,"SoundDuration":1431468,"Delta":43028347},{"NoteNumber":67,"Velocity":42,"Duration":1431468,"SoundDuration":1431468,"Delta":43028347},{"NoteNumber":55,"Velocity":36,"Duration":1431468,"SoundDuration":1431468,"Delta":43028347},{"NoteNumber":47,"Velocity":36,"Duration":1431468,"SoundDuration":1431468,"Delta":43028347},{"NoteNumber":62,"Velocity":52,"Duration":1811777,"SoundDuration":1811777,"Delta":44459815},{"NoteNumber":72,"Velocity":52,"Duration":1811777,"SoundDuration":1811777,"Delta":44459815},{"NoteNumber":45,"Velocity":48,"Duration":1811777,"SoundDuration":1811777,"Delta":44459815},{"NoteNumber":54,"Velocity":48,"Duration":1811777,"SoundDuration":1811777,"Delta":44459815},{"NoteNumber":62,"Velocity":49,"Duration":617728,"SoundDuration":617728,"Delta":46271593},{"NoteNumber":71,"Velocity":49,"Duration":617728,"SoundDuration":617728,"Delta":46271593},{"NoteNumber":55,"Velocity":39,"Duration":617728,"SoundDuration":617728,"Delta":46271593},{"NoteNumber":47,"Velocity":39,"Duration":617728,"SoundDuration":617728,"Delta":46271593},{"NoteNumber":64,"Velocity":52,"Duration":1253758,"SoundDuration":1253758,"Delta":46889322},{"NoteNumber":69,"Velocity":52,"Duration":774797,"SoundDuration":774797,"Delta":46889322},{"NoteNumber":55,"Velocity":40,"Duration":1253758,"SoundDuration":1253758,"Delta":46889322},{"NoteNumber":48,"Velocity":40,"Duration":1253758,"SoundDuration":1253758,"Delta":46889322},{"NoteNumber":71,"Velocity":42,"Duration":117801,"SoundDuration":117801,"Delta":47664119},{"NoteNumber":69,"Velocity":42,"Duration":117775,"SoundDuration":117775,"Delta":47781920},{"NoteNumber":67,"Velocity":42,"Duration":120156,"SoundDuration":120156,"Delta":47899695},{"NoteNumber":69,"Velocity":42,"Duration":123228,"SoundDuration":123228,"Delta":48019852},{"NoteNumber":71,"Velocity":49,"Duration":927835,"SoundDuration":927835,"Delta":48143080},{"NoteNumber":64,"Velocity":49,"Duration":1243924,"SoundDuration":1243924,"Delta":48143080},{"NoteNumber":55,"Velocity":31,"Duration":1243924,"SoundDuration":1243924,"Delta":48143080},{"NoteNumber":49,"Velocity":31,"Duration":1243924,"SoundDuration":1243924,"Delta":48143080},{"NoteNumber":67,"Velocity":42,"Duration":316088,"SoundDuration":316088,"Delta":49070916},{"NoteNumber":71,"Velocity":32,"Duration":1264355,"SoundDuration":1264355,"Delta":49387005},{"NoteNumber":62,"Velocity":32,"Duration":2528109,"SoundDuration":2528109,"Delta":49387005},{"NoteNumber":55,"Velocity":23,"Duration":1264355,"SoundDuration":1264355,"Delta":49387005},{"NoteNumber":50,"Velocity":23,"Duration":2528109,"SoundDuration":2528109,"Delta":49387005},{"NoteNumber":69,"Velocity":29,"Duration":1263753,"SoundDuration":1263753,"Delta":50651361},{"NoteNumber":54,"Velocity":21,"Duration":1263753,"SoundDuration":1263753,"Delta":50651361},{"NoteNumber":65,"Velocity":39,"Duration":1235458,"SoundDuration":1235458,"Delta":51915115},{"NoteNumber":68,"Velocity":39,"Duration":1235458,"SoundDuration":1235458,"Delta":51915115},{"NoteNumber":59,"Velocity":31,"Duration":1235458,"SoundDuration":1235458,"Delta":51915115},{"NoteNumber":50,"Velocity":31,"Duration":1235458,"SoundDuration":1235458,"Delta":51915115},{"NoteNumber":69,"Velocity":44,"Duration":1307048,"SoundDuration":1307048,"Delta":53150573},{"NoteNumber":64,"Velocity":44,"Duration":1307048,"SoundDuration":1307048,"Delta":53150573},{"NoteNumber":48,"Velocity":35,"Duration":1307048,"SoundDuration":1307048,"Delta":53150573},{"NoteNumber":57,"Velocity":35,"Duration":1307048,"SoundDuration":1307048,"Delta":53150573},{"NoteNumber":65,"Velocity":55,"Duration":1407897,"SoundDuration":1407897,"Delta":54457621},{"NoteNumber":74,"Velocity":55,"Duration":1407897,"SoundDuration":1407897,"Delta":54457621},{"NoteNumber":56,"Velocity":40,"Duration":825937,"SoundDuration":825937,"Delta":54457621},{"NoteNumber":47,"Velocity":40,"Duration":1407897,"SoundDuration":1407897,"Delta":54457621},{"NoteNumber":57,"Velocity":39,"Duration":129310,"SoundDuration":129310,"Delta":55283558},{"NoteNumber":56,"Velocity":40,"Duration":131331,"SoundDuration":131331,"Delta":55412869},{"NoteNumber":55,"Velocity":42,"Duration":143870,"SoundDuration":143870,"Delta":55544201},{"NoteNumber":56,"Velocity":42,"Duration":177447,"SoundDuration":177447,"Delta":55688071},{"NoteNumber":64,"Velocity":43,"Duration":1433098,"SoundDuration":1433098,"Delta":55739468},{"NoteNumber":72,"Velocity":57,"Duration":1307048,"SoundDuration":1307048,"Delta":55865518},{"NoteNumber":48,"Velocity":45,"Duration":1307048,"SoundDuration":1307048,"Delta":55865518},{"NoteNumber":62,"Velocity":24,"Duration":1419782,"SoundDuration":1419782,"Delta":57783813},{"NoteNumber":65,"Velocity":24,"Duration":1419782,"SoundDuration":1419782,"Delta":57783813},{"NoteNumber":71,"Velocity":29,"Duration":1419782,"SoundDuration":1419782,"Delta":57783813},{"NoteNumber":50,"Velocity":22,"Duration":1419782,"SoundDuration":1419782,"Delta":57783813},{"NoteNumber":64,"Velocity":22,"Duration":177472,"SoundDuration":177472,"Delta":59345574},{"NoteNumber":59,"Velocity":22,"Duration":177472,"SoundDuration":177472,"Delta":59345574},{"NoteNumber":68,"Velocity":26,"Duration":177472,"SoundDuration":177472,"Delta":59345574},{"NoteNumber":52,"Velocity":20,"Duration":177472,"SoundDuration":177472,"Delta":59345574},{"NoteNumber":59,"Velocity":22,"Duration":1304347,"SoundDuration":1304347,"Delta":59523047},{"NoteNumber":64,"Velocity":22,"Duration":1956521,"SoundDuration":1956521,"Delta":59523047},{"NoteNumber":68,"Velocity":26,"Duration":1304347,"SoundDuration":1304347,"Delta":59523047},{"NoteNumber":52,"Velocity":20,"Duration":1304347,"SoundDuration":1304347,"Delta":59523047},{"NoteNumber":60,"Velocity":20,"Duration":652174,"SoundDuration":652174,"Delta":60827395},{"NoteNumber":69,"Velocity":24,"Duration":652174,"SoundDuration":652174,"Delta":60827395},{"NoteNumber":45,"Velocity":18,"Duration":652174,"SoundDuration":652174,"Delta":60827395},{"NoteNumber":69,"Velocity":24,"Duration":1435407,"SoundDuration":1435407,"Delta":62742990},{"NoteNumber":63,"Velocity":20,"Duration":1435407,"SoundDuration":1435407,"Delta":62742990},{"NoteNumber":60,"Velocity":20,"Duration":1435407,"SoundDuration":1435407,"Delta":62742990},{"NoteNumber":48,"Velocity":19,"Duration":1435407,"SoundDuration":1435407,"Delta":62742990},{"NoteNumber":66,"Velocity":22,"Duration":202839,"SoundDuration":202839,"Delta":64321938},{"NoteNumber":62,"Velocity":18,"Duration":202839,"SoundDuration":202839,"Delta":64321938},{"NoteNumber":57,"Velocity":18,"Duration":202839,"SoundDuration":202839,"Delta":64321938},{"NoteNumber":50,"Velocity":17,"Duration":202839,"SoundDuration":202839,"Delta":64321938},{"NoteNumber":66,"Velocity":22,"Duration":1356238,"SoundDuration":1356238,"Delta":64524778},{"NoteNumber":62,"Velocity":18,"Duration":2034357,"SoundDuration":2034357,"Delta":64524778},{"NoteNumber":57,"Velocity":18,"Duration":1356238,"SoundDuration":1356238,"Delta":64524778},{"NoteNumber":50,"Velocity":17,"Duration":1356238,"SoundDuration":1356238,"Delta":64524778},{"NoteNumber":55,"Velocity":16,"Duration":678118,"SoundDuration":678118,"Delta":65881016},{"NoteNumber":67,"Velocity":19,"Duration":678118,"SoundDuration":678118,"Delta":65881016},{"NoteNumber":47,"Velocity":16,"Duration":678118,"SoundDuration":678118,"Delta":65881016},{"NoteNumber":60,"Velocity":16,"Duration":2118893,"SoundDuration":2118893,"Delta":67915373},{"NoteNumber":55,"Velocity":16,"Duration":2118893,"SoundDuration":2118893,"Delta":67915373},{"NoteNumber":64,"Velocity":20,"Duration":2118893,"SoundDuration":2118893,"Delta":67915373},{"NoteNumber":48,"Velocity":16,"Duration":2118893,"SoundDuration":2118893,"Delta":67915373},{"NoteNumber":62,"Velocity":19,"Duration":2879999,"SoundDuration":2879999,"Delta":70740565},{"NoteNumber":57,"Velocity":15,"Duration":2879999,"SoundDuration":2879999,"Delta":70740565},{"NoteNumber":54,"Velocity":14,"Duration":2879999,"SoundDuration":2879999,"Delta":70740565},{"NoteNumber":38,"Velocity":14,"Duration":2879999,"SoundDuration":2879999,"Delta":70740565},{"NoteNumber":48,"Velocity":14,"Duration":2879999,"SoundDuration":2879999,"Delta":70740565},{"NoteNumber":55,"Velocity":14,"Duration":3840000,"SoundDuration":3840000,"Delta":73620565},{"NoteNumber":62,"Velocity":19,"Duration":3840000,"SoundDuration":3840000,"Delta":73620565},{"NoteNumber":47,"Velocity":12,"Duration":3840000,"SoundDuration":3840000,"Delta":73620565},{"NoteNumber":31,"Velocity":12,"Duration":3840000,"SoundDuration":3840000,"Delta":73620565}],"license":{"name":"Creative Commons Attribution-ShareAlike 3.0 Germany","url":"http://creativecommons.org/licenses/by-sa/3.0/de/deed.en","text":"The MIDI, audio (MP3, OGG) and video files of Bernd Krueger are licensed under the cc-by-sa Germany License. This means that you can use and adapt the files, as long as you attribute the copyright holder.\n\nName: Bernd Krueger\nSource: http://www.piano-midi.de\n\nThe distribution or public playback of the files is only allowed under identical license conditions.\n\nThe scores are open source.","attribution":"MIDI files by Bernd Krueger (piano-midi.de)","attributionUrl":"http://www.piano-midi.de"}}