{"title":"Fürchtenmachen","artist":"Schumann","durationMs":76405,"midiSha256":"34c9c4b6464a163b849101e284fcf5c7a140c9082e97f8becc2e5d6d541402c6","midiObject":[{"NoteNumber":71,"Velocity":49,"Duration":615385,"SoundDuration":615385,"Delta":0},{"NoteNumber":64,"Velocity":35,"Duration":307692,"SoundDuration":307692,"Delta":307692},{"NoteNumber":67,"Velocity":35,"Duration":307692,"SoundDuration":307692,"Delta":307692},{"NoteNumber":63,"Velocity":29,"Duration":299999,"SoundDuration":299999,"Delta":615385},{"NoteNumber":66,"Velocity":29,"Duration":299999,"SoundDuration":299999,"Delta":615385},{"NoteNumber":71,"Velocity":49,"Duration":450000,"SoundDuration":450000,"Delta":615385},{"NoteNumber":62,"Velocity":35,"Duration":300000,"SoundDuration":300000,"Delta":915384},{"NoteNumber":65,"Velocity":34,"Duration":300000,"SoundDuration":300000,"Delta":915384},{"NoteNumber":71,"Velocity":40,"Duration":149999,"SoundDuration":149999,"Delta":1065385},{"NoteNumber":61,"Velocity":33,"Duration":897384,"SoundDuration":897384,"Delta":1215385},{"NoteNumber":71,"Velocity":49,"Duration":299999,"SoundDuration":299999,"Delta":1215385},{"NoteNumber":64,"Velocity":33,"Duration":897384,"SoundDuration":897384,"Delta":1215385},{"NoteNumber":70,"Velocity":46,"Duration":306122,"SoundDuration":306122,"Delta":1515384},{"NoteNumber":76,"Velocity":48,"Duration":291262,"SoundDuration":291262,"Delta":1821507},{"NoteNumber":69,"Velocity":33,"Duration":595566,"SoundDuration":595566,"Delta":2112769},{"NoteNumber":60,"Velocity":33,"Duration":295566,"SoundDuration":295566,"Delta":2112769},{"NoteNumber":63,"Velocity":33,"Duration":295566,"SoundDuration":295566,"Delta":2112769},{"NoteNumber":75,"Velocity":47,"Duration":295566,"SoundDuration":295566,"Delta":2112769},{"NoteNumber":74,"Velocity":49,"Duration":299999,"SoundDuration":299999,"Delta":2408336},{"NoteNumber":59,"Velocity":41,"Duration":615789,"SoundDuration":615789,"Delta":2408336},{"NoteNumber":62,"Velocity":41,"Duration":615789,"SoundDuration":615789,"Delta":2408336},{"NoteNumber":67,"Velocity":42,"Duration":315789,"SoundDuration":315789,"Delta":2708335},{"NoteNumber":66,"Velocity":34,"Duration":301793,"SoundDuration":301793,"Delta":3024125},{"NoteNumber":72,"Velocity":47,"Duration":454700,"SoundDuration":454700,"Delta":3024125},{"NoteNumber":62,"Velocity":39,"Duration":454700,"SoundDuration":454700,"Delta":3024125},{"NoteNumber":57,"Velocity":39,"Duration":454700,"SoundDuration":454700,"Delta":3024125},{"NoteNumber":67,"Velocity":39,"Duration":307202,"SoundDuration":307202,"Delta":3325919},{"NoteNumber":71,"Velocity":45,"Duration":154295,"SoundDuration":154295,"Delta":3478826},{"NoteNumber":62,"Velocity":34,"Duration":154295,"SoundDuration":154295,"Delta":3478826},{"NoteNumber":55,"Velocity":34,"Duration":154295,"SoundDuration":154295,"Delta":3478826},{"NoteNumber":67,"Velocity":46,"Duration":621761,"SoundDuration":621761,"Delta":3633121},{"NoteNumber":71,"Velocity":46,"Duration":621761,"SoundDuration":621761,"Delta":3633121},{"NoteNumber":62,"Velocity":38,"Duration":621761,"SoundDuration":621761,"Delta":3633121},{"NoteNumber":55,"Velocity":38,"Duration":310881,"SoundDuration":310881,"Delta":3633121},{"NoteNumber":59,"Velocity":39,"Duration":310880,"SoundDuration":310880,"Delta":3944002},{"NoteNumber":69,"Velocity":45,"Duration":621762,"SoundDuration":621762,"Delta":4254883},{"NoteNumber":66,"Velocity":45,"Duration":621762,"SoundDuration":621762,"Delta":4254883},{"NoteNumber":62,"Velocity":40,"Duration":621762,"SoundDuration":621762,"Delta":4254883},{"NoteNumber":50,"Velocity":38,"Duration":1526141,"SoundDuration":1526141,"Delta":4565764},{"NoteNumber":62,"Velocity":61,"Duration":612244,"SoundDuration":612244,"Delta":4876645},{"NoteNumber":79,"Velocity":46,"Duration":306122,"SoundDuration":306122,"Delta":5182768},{"NoteNumber":71,"Velocity":46,"Duration":306122,"SoundDuration":306122,"Delta":5182768},{"NoteNumber":74,"Velocity":46,"Duration":306122,"SoundDuration":306122,"Delta":5182768},{"NoteNumber":78,"Velocity":48,"Duration":301507,"SoundDuration":301507,"Delta":5488890},{"NoteNumber":69,"Velocity":48,"Duration":301507,"SoundDuration":301507,"Delta":5488890},{"NoteNumber":74,"Velocity":48,"Duration":301507,"SoundDuration":301507,"Delta":5488890},{"NoteNumber":62,"Velocity":60,"Duration":452261,"SoundDuration":452261,"Delta":5488890},{"NoteNumber":76,"Velocity":50,"Duration":301507,"SoundDuration":301507,"Delta":5790398},{"NoteNumber":67,"Velocity":50,"Duration":301507,"SoundDuration":301507,"Delta":5790398},{"NoteNumber":73,"Velocity":50,"Duration":301507,"SoundDuration":301507,"Delta":5790398},{"NoteNumber":62,"Velocity":56,"Duration":150753,"SoundDuration":150753,"Delta":5941151},{"NoteNumber":74,"Velocity":56,"Duration":1490842,"SoundDuration":1490842,"Delta":6091905},{"NoteNumber":66,"Velocity":56,"Duration":1490842,"SoundDuration":1490842,"Delta":6091905},{"NoteNumber":69,"Velocity":56,"Duration":1490842,"SoundDuration":1490842,"Delta":6091905},{"NoteNumber":62,"Velocity":60,"Duration":299999,"SoundDuration":299999,"Delta":6091905},{"NoteNumber":60,"Velocity":56,"Duration":307692,"SoundDuration":307692,"Delta":6391905},{"NoteNumber":64,"Velocity":58,"Duration":287081,"SoundDuration":287081,"Delta":6699598},{"NoteNumber":62,"Velocity":55,"Duration":295566,"SoundDuration":295566,"Delta":6986679},{"NoteNumber":60,"Velocity":57,"Duration":300502,"SoundDuration":300502,"Delta":7282246},{"NoteNumber":67,"Velocity":45,"Duration":309278,"SoundDuration":309278,"Delta":7582748},{"NoteNumber":74,"Velocity":45,"Duration":309278,"SoundDuration":309278,"Delta":7582748},{"NoteNumber":59,"Velocity":51,"Duration":309278,"SoundDuration":309278,"Delta":7582748},{"NoteNumber":62,"Velocity":51,"Duration":309278,"SoundDuration":309278,"Delta":7582748},{"NoteNumber":66,"Velocity":42,"Duration":314135,"SoundDuration":314135,"Delta":7892027},{"NoteNumber":72,"Velocity":42,"Duration":471204,"SoundDuration":471204,"Delta":7892027},{"NoteNumber":57,"Velocity":55,"Duration":471204,"SoundDuration":471204,"Delta":7892027},{"NoteNumber":62,"Velocity":55,"Duration":471204,"SoundDuration":471204,"Delta":7892027},{"NoteNumber":67,"Velocity":41,"Duration":321903,"SoundDuration":321903,"Delta":8206163},{"NoteNumber":71,"Velocity":41,"Duration":164835,"SoundDuration":164835,"Delta":8363231},{"NoteNumber":55,"Velocity":45,"Duration":164835,"SoundDuration":164835,"Delta":8363231},{"NoteNumber":62,"Velocity":45,"Duration":164835,"SoundDuration":164835,"Delta":8363231},{"NoteNumber":67,"Velocity":44,"Duration":671732,"SoundDuration":671732,"Delta":8528066},{"NoteNumber":71,"Velocity":44,"Duration":671732,"SoundDuration":671732,"Delta":8528066},{"NoteNumber":55,"Velocity":50,"Duration":350877,"SoundDuration":350877,"Delta":8528066},{"NoteNumber":62,"Velocity":50,"Duration":671732,"SoundDuration":671732,"Delta":8528066},{"NoteNumber":59,"Velocity":35,"Duration":320855,"SoundDuration":320855,"Delta":8878943},{"NoteNumber":69,"Velocity":40,"Duration":704303,"SoundDuration":704303,"Delta":9199798},{"NoteNumber":66,"Velocity":40,"Duration":704303,"SoundDuration":704303,"Delta":9199798},{"NoteNumber":62,"Velocity":38,"Duration":704303,"SoundDuration":704303,"Delta":9199798},{"NoteNumber":50,"Velocity":33,"Duration":361446,"SoundDuration":361446,"Delta":9542655},{"NoteNumber":71,"Velocity":49,"Duration":615384,"SoundDuration":615384,"Delta":9904101},{"NoteNumber":64,"Velocity":35,"Duration":307692,"SoundDuration":307692,"Delta":10211794},{"NoteNumber":67,"Velocity":35,"Duration":307692,"SoundDuration":307692,"Delta":10211794},{"NoteNumber":63,"Velocity":29,"Duration":300000,"SoundDuration":300000,"Delta":10519486},{"NoteNumber":66,"Velocity":29,"Duration":300000,"SoundDuration":300000,"Delta":10519486},{"NoteNumber":71,"Velocity":49,"Duration":449999,"SoundDuration":449999,"Delta":10519486},{"NoteNumber":62,"Velocity":35,"Duration":299999,"SoundDuration":299999,"Delta":10819486},{"NoteNumber":65,"Velocity":34,"Duration":299999,"SoundDuration":299999,"Delta":10819486},{"NoteNumber":71,"Velocity":40,"Duration":150000,"SoundDuration":150000,"Delta":10969486},{"NoteNumber":61,"Velocity":33,"Duration":897384,"SoundDuration":897384,"Delta":11119486},{"NoteNumber":64,"Velocity":33,"Duration":897384,"SoundDuration":897384,"Delta":11119486},{"NoteNumber":71,"Velocity":49,"Duration":300000,"SoundDuration":300000,"Delta":11119486},{"NoteNumber":70,"Velocity":46,"Duration":306122,"SoundDuration":306122,"Delta":11419486},{"NoteNumber":76,"Velocity":48,"Duration":291261,"SoundDuration":291261,"Delta":11725609},{"NoteNumber":60,"Velocity":33,"Duration":295566,"SoundDuration":295566,"Delta":12016871},{"NoteNumber":63,"Velocity":33,"Duration":295566,"SoundDuration":295566,"Delta":12016871},{"NoteNumber":69,"Velocity":33,"Duration":595566,"SoundDuration":595566,"Delta":12016871},{"NoteNumber":75,"Velocity":47,"Duration":295566,"SoundDuration":295566,"Delta":12016871},{"NoteNumber":74,"Velocity":49,"Duration":300000,"SoundDuration":300000,"Delta":12312437},{"NoteNumber":62,"Velocity":41,"Duration":615789,"SoundDuration":615789,"Delta":12312437},{"NoteNumber":59,"Velocity":41,"Duration":615789,"SoundDuration":615789,"Delta":12312437},{"NoteNumber":67,"Velocity":42,"Duration":315789,"SoundDuration":315789,"Delta":12612437},{"NoteNumber":66,"Velocity":34,"Duration":301793,"SoundDuration":301793,"Delta":12928227},{"NoteNumber":72,"Velocity":47,"Duration":454700,"SoundDuration":454700,"Delta":12928227},{"NoteNumber":57,"Velocity":39,"Duration":454700,"SoundDuration":454700,"Delta":12928227},{"NoteNumber":62,"Velocity":39,"Duration":454700,"SoundDuration":454700,"Delta":12928227},{"NoteNumber":67,"Velocity":39,"Duration":307202,"SoundDuration":307202,"Delta":13230021},{"NoteNumber":71,"Velocity":45,"Duration":154295,"SoundDuration":154295,"Delta":13382927},{"NoteNumber":55,"Velocity":34,"Duration":154295,"SoundDuration":154295,"Delta":13382927},{"NoteNumber":62,"Velocity":34,"Duration":154295,"SoundDuration":154295,"Delta":13382927},{"NoteNumber":67,"Velocity":46,"Duration":621762,"SoundDuration":621762,"Delta":13537223},{"NoteNumber":71,"Velocity":46,"Duration":621762,"SoundDuration":621762,"Delta":13537223},{"NoteNumber":55,"Velocity":38,"Duration":310881,"SoundDuration":310881,"Delta":13537223},{"NoteNumber":62,"Velocity":38,"Duration":621762,"SoundDuration":621762,"Delta":13537223},{"NoteNumber":59,"Velocity":39,"Duration":310881,"SoundDuration":310881,"Delta":13848104},{"NoteNumber":66,"Velocity":45,"Duration":621762,"SoundDuration":621762,"Delta":14158985},{"NoteNumber":69,"Velocity":45,"Duration":621762,"SoundDuration":621762,"Delta":14158985},{"NoteNumber":62,"Velocity":40,"Duration":621762,"SoundDuration":621762,"Delta":14158985},{"NoteNumber":50,"Velocity":38,"Duration":1523032,"SoundDuration":1523032,"Delta":14469866},{"NoteNumber":62,"Velocity":61,"Duration":609137,"SoundDuration":609137,"Delta":14780747},{"NoteNumber":71,"Velocity":46,"Duration":304568,"SoundDuration":304568,"Delta":15085316},{"NoteNumber":74,"Velocity":46,"Duration":304568,"SoundDuration":304568,"Delta":15085316},{"NoteNumber":79,"Velocity":46,"Duration":304568,"SoundDuration":304568,"Delta":15085316},{"NoteNumber":69,"Velocity":48,"Duration":301507,"SoundDuration":301507,"Delta":15389884},{"NoteNumber":74,"Velocity":48,"Duration":301507,"SoundDuration":301507,"Delta":15389884},{"NoteNumber":78,"Velocity":48,"Duration":301507,"SoundDuration":301507,"Delta":15389884},{"NoteNumber":62,"Velocity":60,"Duration":452261,"SoundDuration":452261,"Delta":15389884},{"NoteNumber":67,"Velocity":50,"Duration":301507,"SoundDuration":301507,"Delta":15691392},{"NoteNumber":73,"Velocity":50,"Duration":301507,"SoundDuration":301507,"Delta":15691392},{"NoteNumber":76,"Velocity":50,"Duration":301507,"SoundDuration":301507,"Delta":15691392},{"NoteNumber":62,"Velocity":56,"Duration":150753,"SoundDuration":150753,"Delta":15842145},{"NoteNumber":66,"Velocity":56,"Duration":1492167,"SoundDuration":1492167,"Delta":15992899},{"NoteNumber":69,"Velocity":56,"Duration":1492167,"SoundDuration":1492167,"Delta":15992899},{"NoteNumber":74,"Velocity":56,"Duration":1492167,"SoundDuration":1492167,"Delta":15992899},{"NoteNumber":62,"Velocity":60,"Duration":300000,"SoundDuration":300000,"Delta":15992899},{"NoteNumber":60,"Velocity":56,"Duration":307692,"SoundDuration":307692,"Delta":16292899},{"NoteNumber":64,"Velocity":58,"Duration":289854,"SoundDuration":289854,"Delta":16600592},{"NoteNumber":62,"Velocity":55,"Duration":294117,"SoundDuration":294117,"Delta":16890447},{"NoteNumber":60,"Velocity":57,"Duration":300502,"SoundDuration":300502,"Delta":17184564},{"NoteNumber":67,"Velocity":45,"Duration":314136,"SoundDuration":314136,"Delta":17485067},{"NoteNumber":74,"Velocity":45,"Duration":314136,"SoundDuration":314136,"Delta":17485067},{"NoteNumber":59,"Velocity":51,"Duration":314136,"SoundDuration":314136,"Delta":17485067},{"NoteNumber":62,"Velocity":51,"Duration":314136,"SoundDuration":314136,"Delta":17485067},{"NoteNumber":72,"Velocity":42,"Duration":483870,"SoundDuration":483870,"Delta":17799203},{"NoteNumber":66,"Velocity":42,"Duration":322580,"SoundDuration":322580,"Delta":17799203},{"NoteNumber":57,"Velocity":55,"Duration":483870,"SoundDuration":483870,"Delta":17799203},{"NoteNumber":62,"Velocity":55,"Duration":483870,"SoundDuration":483870,"Delta":17799203},{"NoteNumber":67,"Velocity":41,"Duration":334700,"SoundDuration":334700,"Delta":18121783},{"NoteNumber":71,"Velocity":41,"Duration":173410,"SoundDuration":173410,"Delta":18283073},{"NoteNumber":55,"Velocity":45,"Duration":173410,"SoundDuration":173410,"Delta":18283073},{"NoteNumber":62,"Velocity":45,"Duration":173410,"SoundDuration":173410,"Delta":18283073},{"NoteNumber":67,"Velocity":44,"Duration":705470,"SoundDuration":705470,"Delta":18456484},{"NoteNumber":71,"Velocity":44,"Duration":705470,"SoundDuration":705470,"Delta":18456484},{"NoteNumber":55,"Velocity":50,"Duration":384615,"SoundDuration":384615,"Delta":18456484},{"NoteNumber":62,"Velocity":50,"Duration":705470,"SoundDuration":705470,"Delta":18456484},{"NoteNumber":59,"Velocity":35,"Duration":320855,"SoundDuration":320855,"Delta":18841099},{"NoteNumber":66,"Velocity":40,"Duration":745541,"SoundDuration":745541,"Delta":19161955},{"NoteNumber":69,"Velocity":40,"Duration":745541,"SoundDuration":745541,"Delta":19161955},{"NoteNumber":62,"Velocity":38,"Duration":745541,"SoundDuration":745541,"Delta":19161955},{"NoteNumber":50,"Velocity":33,"Duration":402684,"SoundDuration":402684,"Delta":19504812},{"NoteNumber":52,"Velocity":35,"Duration":257400,"SoundDuration":257400,"Delta":19907496},{"NoteNumber":59,"Velocity":26,"Duration":128700,"SoundDuration":128700,"Delta":20036197},{"NoteNumber":64,"Velocity":26,"Duration":128700,"SoundDuration":128700,"Delta":20036197},{"NoteNumber":67,"Velocity":26,"Duration":128700,"SoundDuration":128700,"Delta":20036197},{"NoteNumber":54,"Velocity":32,"Duration":125271,"SoundDuration":125271,"Delta":20164897},{"NoteNumber":59,"Velocity":28,"Duration":125271,"SoundDuration":125271,"Delta":20290168},{"NoteNumber":64,"Velocity":28,"Duration":125271,"SoundDuration":125271,"Delta":20290168},{"NoteNumber":67,"Velocity":28,"Duration":125271,"SoundDuration":125271,"Delta":20290168},{"NoteNumber":55,"Velocity":32,"Duration":125271,"SoundDuration":125271,"Delta":20290168},{"NoteNumber":57,"Velocity":35,"Duration":125271,"SoundDuration":125271,"Delta":20415440},{"NoteNumber":66,"Velocity":31,"Duration":125271,"SoundDuration":125271,"Delta":20540711},{"NoteNumber":64,"Velocity":31,"Duration":125271,"SoundDuration":125271,"Delta":20540711},{"NoteNumber":60,"Velocity":31,"Duration":125271,"SoundDuration":125271,"Delta":20540711},{"NoteNumber":45,"Velocity":32,"Duration":130502,"SoundDuration":130502,"Delta":20665983},{"NoteNumber":66,"Velocity":26,"Duration":130502,"SoundDuration":130502,"Delta":20796486},{"NoteNumber":64,"Velocity":26,"Duration":130502,"SoundDuration":130502,"Delta":20796486},{"NoteNumber":60,"Velocity":26,"Duration":130502,"SoundDuration":130502,"Delta":20796486},{"NoteNumber":47,"Velocity":35,"Duration":128117,"SoundDuration":128117,"Delta":20926988},{"NoteNumber":59,"Velocity":26,"Duration":128117,"SoundDuration":128117,"Delta":21055106},{"NoteNumber":63,"Velocity":26,"Duration":128117,"SoundDuration":128117,"Delta":21055106},{"NoteNumber":66,"Velocity":26,"Duration":128117,"SoundDuration":128117,"Delta":21055106},{"NoteNumber":35,"Velocity":32,"Duration":131095,"SoundDuration":131095,"Delta":21183223},{"NoteNumber":59,"Velocity":27,"Duration":131095,"SoundDuration":131095,"Delta":21314319},{"NoteNumber":63,"Velocity":27,"Duration":131095,"SoundDuration":131095,"Delta":21314319},{"NoteNumber":66,"Velocity":27,"Duration":131095,"SoundDuration":131095,"Delta":21314319},{"NoteNumber":40,"Velocity":41,"Duration":131095,"SoundDuration":131095,"Delta":21445415},{"NoteNumber":59,"Velocity":31,"Duration":131096,"SoundDuration":131096,"Delta":21576511},{"NoteNumber":64,"Velocity":31,"Duration":131096,"SoundDuration":131096,"Delta":21576511},{"NoteNumber":67,"Velocity":31,"Duration":131096,"SoundDuration":131096,"Delta":21576511},{"NoteNumber":43,"Velocity":49,"Duration":136165,"SoundDuration":136165,"Delta":21707607},{"NoteNumber":55,"Velocity":39,"Duration":136165,"SoundDuration":136165,"Delta":21843773},{"NoteNumber":59,"Velocity":39,"Duration":136165,"SoundDuration":136165,"Delta":21843773},{"NoteNumber":62,"Velocity":39,"Duration":136165,"SoundDuration":136165,"Delta":21843773},{"NoteNumber":48,"Velocity":46,"Duration":256235,"SoundDuration":256235,"Delta":21979938},{"NoteNumber":55,"Velocity":30,"Duration":128117,"SoundDuration":128117,"Delta":22108056},{"NoteNumber":60,"Velocity":30,"Duration":128117,"SoundDuration":128117,"Delta":22108056},{"NoteNumber":64,"Velocity":30,"Duration":128117,"SoundDuration":128117,"Delta":22108056},{"NoteNumber":50,"Velocity":41,"Duration":123082,"SoundDuration":123082,"Delta":22236173},{"NoteNumber":55,"Velocity":31,"Duration":123082,"SoundDuration":123082,"Delta":22359255},{"NoteNumber":60,"Velocity":31,"Duration":123082,"SoundDuration":123082,"Delta":22359255},{"NoteNumber":64,"Velocity":31,"Duration":123082,"SoundDuration":123082,"Delta":22359255},{"NoteNumber":52,"Velocity":41,"Duration":123082,"SoundDuration":123082,"Delta":22359255},{"NoteNumber":53,"Velocity":45,"Duration":123082,"SoundDuration":123082,"Delta":22482337},{"NoteNumber":57,"Velocity":32,"Duration":123082,"SoundDuration":123082,"Delta":22605419},{"NoteNumber":60,"Velocity":32,"Duration":123082,"SoundDuration":123082,"Delta":22605419},{"NoteNumber":62,"Velocity":32,"Duration":123082,"SoundDuration":123082,"Delta":22605419},{"NoteNumber":41,"Velocity":40,"Duration":130502,"SoundDuration":130502,"Delta":22728501},{"NoteNumber":57,"Velocity":28,"Duration":130502,"SoundDuration":130502,"Delta":22859004},{"NoteNumber":60,"Velocity":28,"Duration":130502,"SoundDuration":130502,"Delta":22859004},{"NoteNumber":62,"Velocity":28,"Duration":130502,"SoundDuration":130502,"Delta":22859004},{"NoteNumber":43,"Velocity":44,"Duration":128117,"SoundDuration":128117,"Delta":22989507},{"NoteNumber":55,"Velocity":31,"Duration":128117,"SoundDuration":128117,"Delta":23117624},{"NoteNumber":59,"Velocity":31,"Duration":128117,"SoundDuration":128117,"Delta":23117624},{"NoteNumber":62,"Velocity":31,"Duration":128117,"SoundDuration":128117,"Delta":23117624},{"NoteNumber":31,"Velocity":40,"Duration":129881,"SoundDuration":129881,"Delta":23245742},{"NoteNumber":55,"Velocity":32,"Duration":129881,"SoundDuration":129881,"Delta":23375623},{"NoteNumber":59,"Velocity":32,"Duration":129881,"SoundDuration":129881,"Delta":23375623},{"NoteNumber":62,"Velocity":32,"Duration":129881,"SoundDuration":129881,"Delta":23375623},{"NoteNumber":36,"Velocity":48,"Duration":272331,"SoundDuration":272331,"Delta":23505505},{"NoteNumber":55,"Velocity":41,"Duration":408496,"SoundDuration":408496,"Delta":23641670},{"NoteNumber":60,"Velocity":41,"Duration":408496,"SoundDuration":408496,"Delta":23641670},{"NoteNumber":64,"Velocity":41,"Duration":408496,"SoundDuration":408496,"Delta":23641670},{"NoteNumber":35,"Velocity":52,"Duration":272330,"SoundDuration":272330,"Delta":23777836},{"NoteNumber":52,"Velocity":44,"Duration":257400,"SoundDuration":257400,"Delta":24050167},{"NoteNumber":59,"Velocity":29,"Duration":128700,"SoundDuration":128700,"Delta":24178867},{"NoteNumber":64,"Velocity":29,"Duration":128700,"SoundDuration":128700,"Delta":24178867},{"NoteNumber":67,"Velocity":29,"Duration":128700,"SoundDuration":128700,"Delta":24178867},{"NoteNumber":54,"Velocity":41,"Duration":125271,"SoundDuration":125271,"Delta":24307567},{"NoteNumber":59,"Velocity":33,"Duration":125271,"SoundDuration":125271,"Delta":24432839},{"NoteNumber":64,"Velocity":33,"Duration":125271,"SoundDuration":125271,"Delta":24432839},{"NoteNumber":67,"Velocity":33,"Duration":125271,"SoundDuration":125271,"Delta":24432839},{"NoteNumber":55,"Velocity":46,"Duration":125271,"SoundDuration":125271,"Delta":24432839},{"NoteNumber":57,"Velocity":51,"Duration":125271,"SoundDuration":125271,"Delta":24558110},{"NoteNumber":66,"Velocity":36,"Duration":125271,"SoundDuration":125271,"Delta":24683382},{"NoteNumber":64,"Velocity":36,"Duration":125271,"SoundDuration":125271,"Delta":24683382},{"NoteNumber":60,"Velocity":36,"Duration":125271,"SoundDuration":125271,"Delta":24683382},{"NoteNumber":45,"Velocity":41,"Duration":130502,"SoundDuration":130502,"Delta":24808653},{"NoteNumber":66,"Velocity":28,"Duration":130502,"SoundDuration":130502,"Delta":24939156},{"NoteNumber":64,"Velocity":28,"Duration":130502,"SoundDuration":130502,"Delta":24939156},{"NoteNumber":60,"Velocity":28,"Duration":130502,"SoundDuration":130502,"Delta":24939156},{"NoteNumber":47,"Velocity":49,"Duration":128117,"SoundDuration":128117,"Delta":25069659},{"NoteNumber":59,"Velocity":28,"Duration":128117,"SoundDuration":128117,"Delta":25197776},{"NoteNumber":63,"Velocity":28,"Duration":128117,"SoundDuration":128117,"Delta":25197776},{"NoteNumber":66,"Velocity":28,"Duration":128117,"SoundDuration":128117,"Delta":25197776},{"NoteNumber":35,"Velocity":40,"Duration":131095,"SoundDuration":131095,"Delta":25325894},{"NoteNumber":59,"Velocity":29,"Duration":131095,"SoundDuration":131095,"Delta":25456990},{"NoteNumber":63,"Velocity":29,"Duration":131095,"SoundDuration":131095,"Delta":25456990},{"NoteNumber":66,"Velocity":29,"Duration":131095,"SoundDuration":131095,"Delta":25456990},{"NoteNumber":40,"Velocity":48,"Duration":131095,"SoundDuration":131095,"Delta":25588086},{"NoteNumber":59,"Velocity":34,"Duration":131096,"SoundDuration":131096,"Delta":25719182},{"NoteNumber":64,"Velocity":34,"Duration":131096,"SoundDuration":131096,"Delta":25719182},{"NoteNumber":67,"Velocity":34,"Duration":131096,"SoundDuration":131096,"Delta":25719182},{"NoteNumber":43,"Velocity":53,"Duration":136165,"SoundDuration":136165,"Delta":25850278},{"NoteNumber":55,"Velocity":42,"Duration":136165,"SoundDuration":136165,"Delta":25986443},{"NoteNumber":59,"Velocity":42,"Duration":136165,"SoundDuration":136165,"Delta":25986443},{"NoteNumber":62,"Velocity":42,"Duration":136165,"SoundDuration":136165,"Delta":25986443},{"NoteNumber":48,"Velocity":53,"Duration":256235,"SoundDuration":256235,"Delta":26122609},{"NoteNumber":55,"Velocity":32,"Duration":128117,"SoundDuration":128117,"Delta":26250726},{"NoteNumber":60,"Velocity":32,"Duration":128117,"SoundDuration":128117,"Delta":26250726},{"NoteNumber":64,"Velocity":32,"Duration":128117,"SoundDuration":128117,"Delta":26250726},{"NoteNumber":50,"Velocity":47,"Duration":123082,"SoundDuration":123082,"Delta":26378844},{"NoteNumber":55,"Velocity":34,"Duration":123082,"SoundDuration":123082,"Delta":26501926},{"NoteNumber":60,"Velocity":34,"Duration":123082,"SoundDuration":123082,"Delta":26501926},{"NoteNumber":64,"Velocity":34,"Duration":123082,"SoundDuration":123082,"Delta":26501926},{"NoteNumber":52,"Velocity":50,"Duration":123082,"SoundDuration":123082,"Delta":26501926},{"NoteNumber":53,"Velocity":52,"Duration":123082,"SoundDuration":123082,"Delta":26625008},{"NoteNumber":57,"Velocity":36,"Duration":123082,"SoundDuration":123082,"Delta":26748090},{"NoteNumber":60,"Velocity":36,"Duration":123082,"SoundDuration":123082,"Delta":26748090},{"NoteNumber":62,"Velocity":36,"Duration":123082,"SoundDuration":123082,"Delta":26748090},{"NoteNumber":41,"Velocity":52,"Duration":132967,"SoundDuration":132967,"Delta":26871172},{"NoteNumber":57,"Velocity":31,"Duration":132967,"SoundDuration":132967,"Delta":27004139},{"NoteNumber":60,"Velocity":31,"Duration":132967,"SoundDuration":132967,"Delta":27004139},{"NoteNumber":62,"Velocity":31,"Duration":132967,"SoundDuration":132967,"Delta":27004139},{"NoteNumber":43,"Velocity":55,"Duration":129287,"SoundDuration":129287,"Delta":27137106},{"NoteNumber":55,"Velocity":35,"Duration":129288,"SoundDuration":129288,"Delta":27266394},{"NoteNumber":59,"Velocity":35,"Duration":129288,"SoundDuration":129288,"Delta":27266394},{"NoteNumber":62,"Velocity":35,"Duration":129288,"SoundDuration":129288,"Delta":27266394},{"NoteNumber":31,"Velocity":50,"Duration":132333,"SoundDuration":132333,"Delta":27395682},{"NoteNumber":55,"Velocity":39,"Duration":132333,"SoundDuration":132333,"Delta":27528015},{"NoteNumber":59,"Velocity":39,"Duration":132333,"SoundDuration":132333,"Delta":27528015},{"NoteNumber":62,"Velocity":39,"Duration":132333,"SoundDuration":132333,"Delta":27528015},{"NoteNumber":36,"Velocity":53,"Duration":284711,"SoundDuration":284711,"Delta":27660349},{"NoteNumber":55,"Velocity":49,"Duration":489807,"SoundDuration":489807,"Delta":27802704},{"NoteNumber":60,"Velocity":49,"Duration":489807,"SoundDuration":489807,"Delta":27802704},{"NoteNumber":64,"Velocity":49,"Duration":489807,"SoundDuration":489807,"Delta":27802704},{"NoteNumber":35,"Velocity":62,"Duration":347452,"SoundDuration":347452,"Delta":27945060},{"NoteNumber":71,"Velocity":49,"Duration":615384,"SoundDuration":615384,"Delta":28342148},{"NoteNumber":64,"Velocity":35,"Duration":307692,"SoundDuration":307692,"Delta":28649840},{"NoteNumber":67,"Velocity":35,"Duration":307692,"SoundDuration":307692,"Delta":28649840},{"NoteNumber":63,"Velocity":29,"Duration":300000,"SoundDuration":300000,"Delta":28957533},{"NoteNumber":66,"Velocity":29,"Duration":300000,"SoundDuration":300000,"Delta":28957533},{"NoteNumber":71,"Velocity":49,"Duration":449999,"SoundDuration":449999,"Delta":28957533},{"NoteNumber":62,"Velocity":35,"Duration":300000,"SoundDuration":300000,"Delta":29257533},{"NoteNumber":65,"Velocity":34,"Duration":300000,"SoundDuration":300000,"Delta":29257533},{"NoteNumber":71,"Velocity":40,"Duration":150000,"SoundDuration":150000,"Delta":29407533},{"NoteNumber":61,"Velocity":33,"Duration":897384,"SoundDuration":897384,"Delta":29557533},{"NoteNumber":64,"Velocity":33,"Duration":897384,"SoundDuration":897384,"Delta":29557533},{"NoteNumber":71,"Velocity":49,"Duration":299999,"SoundDuration":299999,"Delta":29557533},{"NoteNumber":70,"Velocity":46,"Duration":597384,"SoundDuration":597384,"Delta":29857533},{"NoteNumber":76,"Velocity":48,"Duration":291261,"SoundDuration":291261,"Delta":30163655},{"NoteNumber":60,"Velocity":33,"Duration":297029,"SoundDuration":297029,"Delta":30454917},{"NoteNumber":63,"Velocity":33,"Duration":297029,"SoundDuration":297029,"Delta":30454917},{"NoteNumber":69,"Velocity":33,"Duration":597029,"SoundDuration":597029,"Delta":30454917},{"NoteNumber":75,"Velocity":47,"Duration":297029,"SoundDuration":297029,"Delta":30454917},{"NoteNumber":74,"Velocity":49,"Duration":300000,"SoundDuration":300000,"Delta":30751947},{"NoteNumber":62,"Velocity":41,"Duration":615789,"SoundDuration":615789,"Delta":30751947},{"NoteNumber":59,"Velocity":41,"Duration":615789,"SoundDuration":615789,"Delta":30751947},{"NoteNumber":67,"Velocity":42,"Duration":315789,"SoundDuration":315789,"Delta":31051947},{"NoteNumber":66,"Velocity":34,"Duration":301793,"SoundDuration":301793,"Delta":31367736},{"NoteNumber":72,"Velocity":47,"Duration":454700,"SoundDuration":454700,"Delta":31367736},{"NoteNumber":57,"Velocity":39,"Duration":454700,"SoundDuration":454700,"Delta":31367736},{"NoteNumber":62,"Velocity":39,"Duration":454700,"SoundDuration":454700,"Delta":31367736},{"NoteNumber":67,"Velocity":39,"Duration":307202,"SoundDuration":307202,"Delta":31669530},{"NoteNumber":71,"Velocity":45,"Duration":154295,"SoundDuration":154295,"Delta":31822437},{"NoteNumber":55,"Velocity":34,"Duration":154295,"SoundDuration":154295,"Delta":31822437},{"NoteNumber":62,"Velocity":34,"Duration":154295,"SoundDuration":154295,"Delta":31822437},{"NoteNumber":67,"Velocity":46,"Duration":621762,"SoundDuration":621762,"Delta":31976733},{"NoteNumber":71,"Velocity":46,"Duration":621762,"SoundDuration":621762,"Delta":31976733},{"NoteNumber":55,"Velocity":38,"Duration":310880,"SoundDuration":310880,"Delta":31976733},{"NoteNumber":62,"Velocity":38,"Duration":621762,"SoundDuration":621762,"Delta":31976733},{"NoteNumber":59,"Velocity":39,"Duration":310881,"SoundDuration":310881,"Delta":32287614},{"NoteNumber":66,"Velocity":45,"Duration":621761,"SoundDuration":621761,"Delta":32598495},{"NoteNumber":69,"Velocity":45,"Duration":621761,"SoundDuration":621761,"Delta":32598495},{"NoteNumber":62,"Velocity":40,"Duration":621761,"SoundDuration":621761,"Delta":32598495},{"NoteNumber":50,"Velocity":38,"Duration":1535657,"SoundDuration":1535657,"Delta":32909376},{"NoteNumber":62,"Velocity":61,"Duration":621762,"SoundDuration":621762,"Delta":33220257},{"NoteNumber":71,"Velocity":46,"Duration":310881,"SoundDuration":310881,"Delta":33531138},{"NoteNumber":74,"Velocity":46,"Duration":310881,"SoundDuration":310881,"Delta":33531138},{"NoteNumber":79,"Velocity":46,"Duration":310881,"SoundDuration":310881,"Delta":33531138},{"NoteNumber":69,"Velocity":48,"Duration":301507,"SoundDuration":301507,"Delta":33842019},{"NoteNumber":74,"Velocity":48,"Duration":301507,"SoundDuration":301507,"Delta":33842019},{"NoteNumber":78,"Velocity":48,"Duration":301507,"SoundDuration":301507,"Delta":33842019},{"NoteNumber":62,"Velocity":60,"Duration":452261,"SoundDuration":452261,"Delta":33842019},{"NoteNumber":67,"Velocity":50,"Duration":301507,"SoundDuration":301507,"Delta":34143526},{"NoteNumber":73,"Velocity":50,"Duration":301507,"SoundDuration":301507,"Delta":34143526},{"NoteNumber":76,"Velocity":50,"Duration":301507,"SoundDuration":301507,"Delta":34143526},{"NoteNumber":62,"Velocity":56,"Duration":150753,"SoundDuration":150753,"Delta":34294280},{"NoteNumber":66,"Velocity":56,"Duration":1489393,"SoundDuration":1489393,"Delta":34445034},{"NoteNumber":69,"Velocity":56,"Duration":1489393,"SoundDuration":1489393,"Delta":34445034},{"NoteNumber":74,"Velocity":56,"Duration":1489393,"SoundDuration":1489393,"Delta":34445034},{"NoteNumber":62,"Velocity":60,"Duration":299999,"SoundDuration":299999,"Delta":34445034},{"NoteNumber":60,"Velocity":56,"Duration":307692,"SoundDuration":307692,"Delta":34745034},{"NoteNumber":64,"Velocity":58,"Duration":287081,"SoundDuration":287081,"Delta":35052726},{"NoteNumber":62,"Velocity":55,"Duration":294117,"SoundDuration":294117,"Delta":35339808},{"NoteNumber":60,"Velocity":57,"Duration":300502,"SoundDuration":300502,"Delta":35633925},{"NoteNumber":67,"Velocity":45,"Duration":309278,"SoundDuration":309278,"Delta":35934428},{"NoteNumber":74,"Velocity":45,"Duration":309278,"SoundDuration":309278,"Delta":35934428},{"NoteNumber":59,"Velocity":51,"Duration":309278,"SoundDuration":309278,"Delta":35934428},{"NoteNumber":62,"Velocity":51,"Duration":309278,"SoundDuration":309278,"Delta":35934428},{"NoteNumber":72,"Velocity":42,"Duration":471204,"SoundDuration":471204,"Delta":36243706},{"NoteNumber":66,"Velocity":42,"Duration":314135,"SoundDuration":314135,"Delta":36243706},{"NoteNumber":57,"Velocity":55,"Duration":471204,"SoundDuration":471204,"Delta":36243706},{"NoteNumber":62,"Velocity":55,"Duration":471204,"SoundDuration":471204,"Delta":36243706},{"NoteNumber":67,"Velocity":41,"Duration":321903,"SoundDuration":321903,"Delta":36557842},{"NoteNumber":71,"Velocity":41,"Duration":164835,"SoundDuration":164835,"Delta":36714910},{"NoteNumber":55,"Velocity":45,"Duration":164835,"SoundDuration":164835,"Delta":36714910},{"NoteNumber":62,"Velocity":45,"Duration":164835,"SoundDuration":164835,"Delta":36714910},{"NoteNumber":67,"Velocity":44,"Duration":671732,"SoundDuration":671732,"Delta":36879745},{"NoteNumber":71,"Velocity":44,"Duration":671732,"SoundDuration":671732,"Delta":36879745},{"NoteNumber":55,"Velocity":50,"Duration":350876,"SoundDuration":350876,"Delta":36879745},{"NoteNumber":62,"Velocity":50,"Duration":671732,"SoundDuration":671732,"Delta":36879745},{"NoteNumber":59,"Velocity":35,"Duration":320855,"SoundDuration":320855,"Delta":37230622},{"NoteNumber":66,"Velocity":40,"Duration":704303,"SoundDuration":704303,"Delta":37551478},{"NoteNumber":69,"Velocity":40,"Duration":704303,"SoundDuration":704303,"Delta":37551478},{"NoteNumber":62,"Velocity":38,"Duration":704303,"SoundDuration":704303,"Delta":37551478},{"NoteNumber":50,"Velocity":33,"Duration":361446,"SoundDuration":361446,"Delta":37894335},{"NoteNumber":71,"Velocity":59,"Duration":138123,"SoundDuration":138123,"Delta":38255781},{"NoteNumber":67,"Velocity":59,"Duration":546731,"SoundDuration":546731,"Delta":38255781},{"NoteNumber":55,"Velocity":59,"Duration":839072,"SoundDuration":839072,"Delta":38255781},{"NoteNumber":62,"Velocity":59,"Duration":138123,"SoundDuration":138123,"Delta":38255781},{"NoteNumber":72,"Velocity":53,"Duration":136202,"SoundDuration":136202,"Delta":38393904},{"NoteNumber":64,"Velocity":53,"Duration":136202,"SoundDuration":136202,"Delta":38393904},{"NoteNumber":69,"Velocity":53,"Duration":136202,"SoundDuration":136202,"Delta":38530107},{"NoteNumber":60,"Velocity":53,"Duration":136202,"SoundDuration":136202,"Delta":38530107},{"NoteNumber":71,"Velocity":53,"Duration":136202,"SoundDuration":136202,"Delta":38666310},{"NoteNumber":62,"Velocity":53,"Duration":136202,"SoundDuration":136202,"Delta":38666310},{"NoteNumber":67,"Velocity":59,"Duration":73085,"SoundDuration":73085,"Delta":38802512},{"NoteNumber":59,"Velocity":59,"Duration":73085,"SoundDuration":73085,"Delta":38802512},{"NoteNumber":71,"Velocity":64,"Duration":71592,"SoundDuration":71592,"Delta":39094853},{"NoteNumber":68,"Velocity":64,"Duration":71592,"SoundDuration":71592,"Delta":39094853},{"NoteNumber":76,"Velocity":64,"Duration":71592,"SoundDuration":71592,"Delta":39094853},{"NoteNumber":52,"Velocity":64,"Duration":71592,"SoundDuration":71592,"Delta":39094853},{"NoteNumber":64,"Velocity":64,"Duration":71592,"SoundDuration":71592,"Delta":39094853},{"NoteNumber":45,"Velocity":59,"Duration":280610,"SoundDuration":280610,"Delta":39381222},{"NoteNumber":76,"Velocity":62,"Duration":70152,"SoundDuration":70152,"Delta":39661832},{"NoteNumber":69,"Velocity":62,"Duration":70152,"SoundDuration":70152,"Delta":39661832},{"NoteNumber":72,"Velocity":62,"Duration":70152,"SoundDuration":70152,"Delta":39661832},{"NoteNumber":64,"Velocity":62,"Duration":70152,"SoundDuration":70152,"Delta":39661832},{"NoteNumber":52,"Velocity":62,"Duration":70152,"SoundDuration":70152,"Delta":39661832},{"NoteNumber":50,"Velocity":59,"Duration":275078,"SoundDuration":275078,"Delta":39942442},{"NoteNumber":69,"Velocity":62,"Duration":103154,"SoundDuration":103154,"Delta":40217520},{"NoteNumber":74,"Velocity":62,"Duration":103154,"SoundDuration":103154,"Delta":40217520},{"NoteNumber":72,"Velocity":62,"Duration":103154,"SoundDuration":103154,"Delta":40217520},{"NoteNumber":62,"Velocity":62,"Duration":103154,"SoundDuration":103154,"Delta":40217520},{"NoteNumber":54,"Velocity":62,"Duration":103154,"SoundDuration":103154,"Delta":40217520},{"NoteNumber":50,"Velocity":62,"Duration":103154,"SoundDuration":103154,"Delta":40217520},{"NoteNumber":67,"Velocity":59,"Duration":544811,"SoundDuration":544811,"Delta":40492598},{"NoteNumber":71,"Velocity":59,"Duration":136202,"SoundDuration":136202,"Delta":40492598},{"NoteNumber":55,"Velocity":59,"Duration":690981,"SoundDuration":690981,"Delta":40492598},{"NoteNumber":62,"Velocity":59,"Duration":136202,"SoundDuration":136202,"Delta":40492598},{"NoteNumber":72,"Velocity":53,"Duration":136202,"SoundDuration":136202,"Delta":40628801},{"NoteNumber":64,"Velocity":52,"Duration":136202,"SoundDuration":136202,"Delta":40628801},{"NoteNumber":69,"Velocity":53,"Duration":136202,"SoundDuration":136202,"Delta":40765003},{"NoteNumber":60,"Velocity":52,"Duration":136202,"SoundDuration":136202,"Delta":40765003},{"NoteNumber":71,"Velocity":53,"Duration":136202,"SoundDuration":136202,"Delta":40901206},{"NoteNumber":62,"Velocity":52,"Duration":136202,"SoundDuration":136202,"Delta":40901206},{"NoteNumber":67,"Velocity":59,"Duration":146170,"SoundDuration":146170,"Delta":41037409},{"NoteNumber":59,"Velocity":59,"Duration":146170,"SoundDuration":146170,"Delta":41037409},{"NoteNumber":73,"Velocity":63,"Duration":215868,"SoundDuration":215868,"Delta":41329749},{"NoteNumber":78,"Velocity":63,"Duration":215868,"SoundDuration":215868,"Delta":41329749},{"NoteNumber":70,"Velocity":63,"Duration":215868,"SoundDuration":215868,"Delta":41329749},{"NoteNumber":66,"Velocity":66,"Duration":215868,"SoundDuration":215868,"Delta":41329749},{"NoteNumber":54,"Velocity":66,"Duration":215868,"SoundDuration":215868,"Delta":41329749},{"NoteNumber":47,"Velocity":59,"Duration":287825,"SoundDuration":287825,"Delta":41617574},{"NoteNumber":78,"Velocity":62,"Duration":232198,"SoundDuration":232198,"Delta":41905399},{"NoteNumber":71,"Velocity":62,"Duration":232198,"SoundDuration":232198,"Delta":41905399},{"NoteNumber":74,"Velocity":62,"Duration":232198,"SoundDuration":232198,"Delta":41905399},{"NoteNumber":66,"Velocity":62,"Duration":232198,"SoundDuration":232198,"Delta":41905399},{"NoteNumber":54,"Velocity":62,"Duration":232198,"SoundDuration":232198,"Delta":41905399},{"NoteNumber":74,"Velocity":63,"Duration":328839,"SoundDuration":328839,"Delta":42214997},{"NoteNumber":69,"Velocity":63,"Duration":328839,"SoundDuration":328839,"Delta":42214997},{"NoteNumber":78,"Velocity":63,"Duration":328839,"SoundDuration":328839,"Delta":42214997},{"NoteNumber":50,"Velocity":62,"Duration":328839,"SoundDuration":328839,"Delta":42214997},{"NoteNumber":62,"Velocity":62,"Duration":328839,"SoundDuration":328839,"Delta":42214997},{"NoteNumber":74,"Velocity":59,"Duration":271149,"SoundDuration":271149,"Delta":42543836},{"NoteNumber":71,"Velocity":59,"Duration":271149,"SoundDuration":271149,"Delta":42543836},{"NoteNumber":79,"Velocity":59,"Duration":271149,"SoundDuration":271149,"Delta":42543836},{"NoteNumber":62,"Velocity":59,"Duration":271149,"SoundDuration":271149,"Delta":42543836},{"NoteNumber":55,"Velocity":59,"Duration":271149,"SoundDuration":271149,"Delta":42543836},{"NoteNumber":79,"Velocity":70,"Duration":582523,"SoundDuration":582523,"Delta":42905369},{"NoteNumber":52,"Velocity":46,"Duration":291262,"SoundDuration":291262,"Delta":42905369},{"NoteNumber":67,"Velocity":37,"Duration":291261,"SoundDuration":291261,"Delta":43196631},{"NoteNumber":64,"Velocity":37,"Duration":291261,"SoundDuration":291261,"Delta":43196631},{"NoteNumber":59,"Velocity":37,"Duration":291261,"SoundDuration":291261,"Delta":43196631},{"NoteNumber":78,"Velocity":66,"Duration":582523,"SoundDuration":582523,"Delta":43487893},{"NoteNumber":45,"Velocity":46,"Duration":291262,"SoundDuration":291262,"Delta":43487893},{"NoteNumber":66,"Velocity":37,"Duration":291261,"SoundDuration":291261,"Delta":43779155},{"NoteNumber":60,"Velocity":37,"Duration":291261,"SoundDuration":291261,"Delta":43779155},{"NoteNumber":57,"Velocity":37,"Duration":291261,"SoundDuration":291261,"Delta":43779155},{"NoteNumber":75,"Velocity":59,"Duration":588234,"SoundDuration":588234,"Delta":44070417},{"NoteNumber":47,"Velocity":40,"Duration":294117,"SoundDuration":294117,"Delta":44070417},{"NoteNumber":63,"Velocity":31,"Duration":294117,"SoundDuration":294117,"Delta":44364534},{"NoteNumber":54,"Velocity":31,"Duration":294117,"SoundDuration":294117,"Delta":44364534},{"NoteNumber":57,"Velocity":31,"Duration":294117,"SoundDuration":294117,"Delta":44364534},{"NoteNumber":76,"Velocity":48,"Duration":618557,"SoundDuration":618557,"Delta":44658652},{"NoteNumber":48,"Velocity":36,"Duration":309278,"SoundDuration":309278,"Delta":44658652},{"NoteNumber":64,"Velocity":28,"Duration":309278,"SoundDuration":309278,"Delta":44967930},{"NoteNumber":55,"Velocity":28,"Duration":309278,"SoundDuration":309278,"Delta":44967930},{"NoteNumber":52,"Velocity":28,"Duration":309278,"SoundDuration":309278,"Delta":44967930},{"NoteNumber":74,"Velocity":50,"Duration":585366,"SoundDuration":585366,"Delta":45277209},{"NoteNumber":50,"Velocity":38,"Duration":292682,"SoundDuration":292682,"Delta":45277209},{"NoteNumber":54,"Velocity":27,"Duration":292683,"SoundDuration":292683,"Delta":45569892},{"NoteNumber":62,"Velocity":27,"Duration":292683,"SoundDuration":292683,"Delta":45569892},{"NoteNumber":72,"Velocity":45,"Duration":585366,"SoundDuration":585366,"Delta":45862575},{"NoteNumber":52,"Velocity":37,"Duration":292682,"SoundDuration":292682,"Delta":45862575},{"NoteNumber":60,"Velocity":27,"Duration":292683,"SoundDuration":292683,"Delta":46155258},{"NoteNumber":55,"Velocity":27,"Duration":292683,"SoundDuration":292683,"Delta":46155258},{"NoteNumber":70,"Velocity":42,"Duration":631579,"SoundDuration":631579,"Delta":46447941},{"NoteNumber":54,"Velocity":34,"Duration":315789,"SoundDuration":315789,"Delta":46447941},{"NoteNumber":64,"Velocity":26,"Duration":315789,"SoundDuration":315789,"Delta":46763730},{"NoteNumber":61,"Velocity":26,"Duration":315789,"SoundDuration":315789,"Delta":46763730},{"NoteNumber":71,"Velocity":38,"Duration":696995,"SoundDuration":696995,"Delta":47079520},{"NoteNumber":59,"Velocity":29,"Duration":1944430,"SoundDuration":1944430,"Delta":47079520},{"NoteNumber":66,"Velocity":27,"Duration":372670,"SoundDuration":372670,"Delta":47403844},{"NoteNumber":63,"Velocity":27,"Duration":372670,"SoundDuration":372670,"Delta":47403844},{"NoteNumber":71,"Velocity":49,"Duration":638297,"SoundDuration":638297,"Delta":47776515},{"NoteNumber":67,"Velocity":35,"Duration":319148,"SoundDuration":319148,"Delta":48095664},{"NoteNumber":64,"Velocity":35,"Duration":319148,"SoundDuration":319148,"Delta":48095664},{"NoteNumber":66,"Velocity":29,"Duration":304568,"SoundDuration":304568,"Delta":48414813},{"NoteNumber":71,"Velocity":49,"Duration":456852,"SoundDuration":456852,"Delta":48414813},{"NoteNumber":63,"Velocity":29,"Duration":304568,"SoundDuration":304568,"Delta":48414813},{"NoteNumber":65,"Velocity":34,"Duration":304568,"SoundDuration":304568,"Delta":48719382},{"NoteNumber":62,"Velocity":35,"Duration":304568,"SoundDuration":304568,"Delta":48719382},{"NoteNumber":71,"Velocity":40,"Duration":152284,"SoundDuration":152284,"Delta":48871666},{"NoteNumber":61,"Velocity":33,"Duration":901953,"SoundDuration":901953,"Delta":49023950},{"NoteNumber":71,"Velocity":49,"Duration":304568,"SoundDuration":304568,"Delta":49023950},{"NoteNumber":64,"Velocity":33,"Duration":901953,"SoundDuration":901953,"Delta":49023950},{"NoteNumber":70,"Velocity":46,"Duration":306122,"SoundDuration":306122,"Delta":49328519},{"NoteNumber":76,"Velocity":48,"Duration":291262,"SoundDuration":291262,"Delta":49634641},{"NoteNumber":63,"Velocity":33,"Duration":295566,"SoundDuration":295566,"Delta":49925903},{"NoteNumber":69,"Velocity":33,"Duration":595566,"SoundDuration":595566,"Delta":49925903},{"NoteNumber":75,"Velocity":47,"Duration":295566,"SoundDuration":295566,"Delta":49925903},{"NoteNumber":60,"Velocity":33,"Duration":295566,"SoundDuration":295566,"Delta":49925903},{"NoteNumber":74,"Velocity":49,"Duration":299999,"SoundDuration":299999,"Delta":50221470},{"NoteNumber":62,"Velocity":41,"Duration":615789,"SoundDuration":615789,"Delta":50221470},{"NoteNumber":59,"Velocity":41,"Duration":615789,"SoundDuration":615789,"Delta":50221470},{"NoteNumber":67,"Velocity":42,"Duration":315789,"SoundDuration":315789,"Delta":50521470},{"NoteNumber":72,"Velocity":47,"Duration":454700,"SoundDuration":454700,"Delta":50837259},{"NoteNumber":66,"Velocity":34,"Duration":301793,"SoundDuration":301793,"Delta":50837259},{"NoteNumber":57,"Velocity":39,"Duration":454700,"SoundDuration":454700,"Delta":50837259},{"NoteNumber":62,"Velocity":39,"Duration":454700,"SoundDuration":454700,"Delta":50837259},{"NoteNumber":67,"Velocity":39,"Duration":307202,"SoundDuration":307202,"Delta":51139053},{"NoteNumber":71,"Velocity":45,"Duration":154295,"SoundDuration":154295,"Delta":51291960},{"NoteNumber":55,"Velocity":34,"Duration":154295,"SoundDuration":154295,"Delta":51291960},{"NoteNumber":62,"Velocity":34,"Duration":154295,"SoundDuration":154295,"Delta":51291960},{"NoteNumber":67,"Velocity":46,"Duration":621761,"SoundDuration":621761,"Delta":51446256},{"NoteNumber":71,"Velocity":46,"Duration":621761,"SoundDuration":621761,"Delta":51446256},{"NoteNumber":55,"Velocity":38,"Duration":310881,"SoundDuration":310881,"Delta":51446256},{"NoteNumber":62,"Velocity":38,"Duration":621761,"SoundDuration":621761,"Delta":51446256},{"NoteNumber":59,"Velocity":39,"Duration":310880,"SoundDuration":310880,"Delta":51757137},{"NoteNumber":66,"Velocity":45,"Duration":621762,"SoundDuration":621762,"Delta":52068018},{"NoteNumber":69,"Velocity":45,"Duration":621762,"SoundDuration":621762,"Delta":52068018},{"NoteNumber":62,"Velocity":40,"Duration":621762,"SoundDuration":621762,"Delta":52068018},{"NoteNumber":50,"Velocity":38,"Duration":1526141,"SoundDuration":1526141,"Delta":52378899},{"NoteNumber":62,"Velocity":61,"Duration":612245,"SoundDuration":612245,"Delta":52689780},{"NoteNumber":79,"Velocity":46,"Duration":306122,"SoundDuration":306122,"Delta":52995902},{"NoteNumber":71,"Velocity":46,"Duration":306122,"SoundDuration":306122,"Delta":52995902},{"NoteNumber":74,"Velocity":46,"Duration":306122,"SoundDuration":306122,"Delta":52995902},{"NoteNumber":74,"Velocity":48,"Duration":301507,"SoundDuration":301507,"Delta":53302025},{"NoteNumber":78,"Velocity":48,"Duration":301507,"SoundDuration":301507,"Delta":53302025},{"NoteNumber":69,"Velocity":48,"Duration":301507,"SoundDuration":301507,"Delta":53302025},{"NoteNumber":62,"Velocity":60,"Duration":452261,"SoundDuration":452261,"Delta":53302025},{"NoteNumber":67,"Velocity":50,"Duration":301507,"SoundDuration":301507,"Delta":53603532},{"NoteNumber":73,"Velocity":50,"Duration":301507,"SoundDuration":301507,"Delta":53603532},{"NoteNumber":76,"Velocity":50,"Duration":301507,"SoundDuration":301507,"Delta":53603532},{"NoteNumber":62,"Velocity":56,"Duration":150753,"SoundDuration":150753,"Delta":53754286},{"NoteNumber":69,"Velocity":56,"Duration":1496444,"SoundDuration":1496444,"Delta":53905040},{"NoteNumber":74,"Velocity":56,"Duration":1496444,"SoundDuration":1496444,"Delta":53905040},{"NoteNumber":66,"Velocity":56,"Duration":1496444,"SoundDuration":1496444,"Delta":53905040},{"NoteNumber":62,"Velocity":60,"Duration":299999,"SoundDuration":299999,"Delta":53905040},{"NoteNumber":60,"Velocity":56,"Duration":307692,"SoundDuration":307692,"Delta":54205040},{"NoteNumber":64,"Velocity":58,"Duration":292682,"SoundDuration":292682,"Delta":54512732},{"NoteNumber":62,"Velocity":55,"Duration":295566,"SoundDuration":295566,"Delta":54805415},{"NoteNumber":60,"Velocity":57,"Duration":300502,"SoundDuration":300502,"Delta":55100982},{"NoteNumber":74,"Velocity":45,"Duration":309278,"SoundDuration":309278,"Delta":55401484},{"NoteNumber":67,"Velocity":45,"Duration":309278,"SoundDuration":309278,"Delta":55401484},{"NoteNumber":59,"Velocity":51,"Duration":309278,"SoundDuration":309278,"Delta":55401484},{"NoteNumber":62,"Velocity":51,"Duration":309278,"SoundDuration":309278,"Delta":55401484},{"NoteNumber":66,"Velocity":42,"Duration":314135,"SoundDuration":314135,"Delta":55710763},{"NoteNumber":72,"Velocity":42,"Duration":471204,"SoundDuration":471204,"Delta":55710763},{"NoteNumber":57,"Velocity":55,"Duration":471204,"SoundDuration":471204,"Delta":55710763},{"NoteNumber":62,"Velocity":55,"Duration":471204,"SoundDuration":471204,"Delta":55710763},{"NoteNumber":67,"Velocity":41,"Duration":321903,"SoundDuration":321903,"Delta":56024899},{"NoteNumber":71,"Velocity":41,"Duration":164835,"SoundDuration":164835,"Delta":56181967},{"NoteNumber":55,"Velocity":45,"Duration":164835,"SoundDuration":164835,"Delta":56181967},{"NoteNumber":62,"Velocity":45,"Duration":164835,"SoundDuration":164835,"Delta":56181967},{"NoteNumber":71,"Velocity":44,"Duration":671732,"SoundDuration":671732,"Delta":56346802},{"NoteNumber":67,"Velocity":44,"Duration":671732,"SoundDuration":671732,"Delta":56346802},{"NoteNumber":55,"Velocity":50,"Duration":350876,"SoundDuration":350876,"Delta":56346802},{"NoteNumber":62,"Velocity":50,"Duration":671732,"SoundDuration":671732,"Delta":56346802},{"NoteNumber":59,"Velocity":35,"Duration":320855,"SoundDuration":320855,"Delta":56697679},{"NoteNumber":69,"Velocity":40,"Duration":704303,"SoundDuration":704303,"Delta":57018534},{"NoteNumber":66,"Velocity":40,"Duration":704303,"SoundDuration":704303,"Delta":57018534},{"NoteNumber":62,"Velocity":38,"Duration":704303,"SoundDuration":704303,"Delta":57018534},{"NoteNumber":50,"Velocity":33,"Duration":361446,"SoundDuration":361446,"Delta":57361391},{"NoteNumber":52,"Velocity":35,"Duration":257975,"SoundDuration":257975,"Delta":57722837},{"NoteNumber":67,"Velocity":26,"Duration":128987,"SoundDuration":128987,"Delta":57851825},{"NoteNumber":64,"Velocity":26,"Duration":128987,"SoundDuration":128987,"Delta":57851825},{"NoteNumber":59,"Velocity":26,"Duration":128987,"SoundDuration":128987,"Delta":57851825},{"NoteNumber":54,"Velocity":32,"Duration":125554,"SoundDuration":125554,"Delta":57980813},{"NoteNumber":59,"Velocity":28,"Duration":125554,"SoundDuration":125554,"Delta":58106368},{"NoteNumber":67,"Velocity":28,"Duration":125554,"SoundDuration":125554,"Delta":58106368},{"NoteNumber":64,"Velocity":28,"Duration":125554,"SoundDuration":125554,"Delta":58106368},{"NoteNumber":55,"Velocity":32,"Duration":125554,"SoundDuration":125554,"Delta":58106368},{"NoteNumber":57,"Velocity":35,"Duration":125554,"SoundDuration":125554,"Delta":58231922},{"NoteNumber":60,"Velocity":31,"Duration":125554,"SoundDuration":125554,"Delta":58357477},{"NoteNumber":66,"Velocity":31,"Duration":125554,"SoundDuration":125554,"Delta":58357477},{"NoteNumber":64,"Velocity":31,"Duration":125554,"SoundDuration":125554,"Delta":58357477},{"NoteNumber":45,"Velocity":32,"Duration":130787,"SoundDuration":130787,"Delta":58483031},{"NoteNumber":66,"Velocity":26,"Duration":130787,"SoundDuration":130787,"Delta":58613819},{"NoteNumber":64,"Velocity":26,"Duration":130787,"SoundDuration":130787,"Delta":58613819},{"NoteNumber":60,"Velocity":26,"Duration":130787,"SoundDuration":130787,"Delta":58613819},{"NoteNumber":47,"Velocity":35,"Duration":128391,"SoundDuration":128391,"Delta":58744606},{"NoteNumber":66,"Velocity":26,"Duration":128391,"SoundDuration":128391,"Delta":58872998},{"NoteNumber":63,"Velocity":26,"Duration":128391,"SoundDuration":128391,"Delta":58872998},{"NoteNumber":59,"Velocity":26,"Duration":128391,"SoundDuration":128391,"Delta":58872998},{"NoteNumber":35,"Velocity":32,"Duration":131405,"SoundDuration":131405,"Delta":59001389},{"NoteNumber":66,"Velocity":27,"Duration":131405,"SoundDuration":131405,"Delta":59132795},{"NoteNumber":63,"Velocity":27,"Duration":131405,"SoundDuration":131405,"Delta":59132795},{"NoteNumber":59,"Velocity":27,"Duration":131405,"SoundDuration":131405,"Delta":59132795},{"NoteNumber":40,"Velocity":41,"Duration":131406,"SoundDuration":131406,"Delta":59264201},{"NoteNumber":59,"Velocity":31,"Duration":131405,"SoundDuration":131405,"Delta":59395607},{"NoteNumber":64,"Velocity":31,"Duration":131405,"SoundDuration":131405,"Delta":59395607},{"NoteNumber":67,"Velocity":31,"Duration":131405,"SoundDuration":131405,"Delta":59395607},{"NoteNumber":43,"Velocity":49,"Duration":136450,"SoundDuration":136450,"Delta":59527013},{"NoteNumber":62,"Velocity":39,"Duration":136450,"SoundDuration":136450,"Delta":59663464},{"NoteNumber":55,"Velocity":39,"Duration":136450,"SoundDuration":136450,"Delta":59663464},{"NoteNumber":59,"Velocity":39,"Duration":136450,"SoundDuration":136450,"Delta":59663464},{"NoteNumber":48,"Velocity":46,"Duration":256783,"SoundDuration":256783,"Delta":59799914},{"NoteNumber":55,"Velocity":30,"Duration":128391,"SoundDuration":128391,"Delta":59928306},{"NoteNumber":64,"Velocity":30,"Duration":128391,"SoundDuration":128391,"Delta":59928306},{"NoteNumber":60,"Velocity":30,"Duration":128391,"SoundDuration":128391,"Delta":59928306},{"NoteNumber":50,"Velocity":41,"Duration":123355,"SoundDuration":123355,"Delta":60056698},{"NoteNumber":55,"Velocity":31,"Duration":123355,"SoundDuration":123355,"Delta":60180053},{"NoteNumber":60,"Velocity":31,"Duration":123355,"SoundDuration":123355,"Delta":60180053},{"NoteNumber":64,"Velocity":31,"Duration":123355,"SoundDuration":123355,"Delta":60180053},{"NoteNumber":52,"Velocity":41,"Duration":123355,"SoundDuration":123355,"Delta":60180053},{"NoteNumber":53,"Velocity":45,"Duration":123355,"SoundDuration":123355,"Delta":60303408},{"NoteNumber":57,"Velocity":32,"Duration":123355,"SoundDuration":123355,"Delta":60426764},{"NoteNumber":60,"Velocity":32,"Duration":123355,"SoundDuration":123355,"Delta":60426764},{"NoteNumber":62,"Velocity":32,"Duration":123355,"SoundDuration":123355,"Delta":60426764},{"NoteNumber":41,"Velocity":40,"Duration":130787,"SoundDuration":130787,"Delta":60550119},{"NoteNumber":57,"Velocity":28,"Duration":130787,"SoundDuration":130787,"Delta":60680906},{"NoteNumber":62,"Velocity":28,"Duration":130787,"SoundDuration":130787,"Delta":60680906},{"NoteNumber":60,"Velocity":28,"Duration":130787,"SoundDuration":130787,"Delta":60680906},{"NoteNumber":43,"Velocity":44,"Duration":128391,"SoundDuration":128391,"Delta":60811693},{"NoteNumber":62,"Velocity":31,"Duration":128391,"SoundDuration":128391,"Delta":60940085},{"NoteNumber":55,"Velocity":31,"Duration":128391,"SoundDuration":128391,"Delta":60940085},{"NoteNumber":59,"Velocity":31,"Duration":128391,"SoundDuration":128391,"Delta":60940085},{"NoteNumber":31,"Velocity":40,"Duration":130174,"SoundDuration":130174,"Delta":61068477},{"NoteNumber":59,"Velocity":32,"Duration":130174,"SoundDuration":130174,"Delta":61198651},{"NoteNumber":55,"Velocity":32,"Duration":130174,"SoundDuration":130174,"Delta":61198651},{"NoteNumber":62,"Velocity":32,"Duration":130174,"SoundDuration":130174,"Delta":61198651},{"NoteNumber":36,"Velocity":48,"Duration":272900,"SoundDuration":272900,"Delta":61328826},{"NoteNumber":64,"Velocity":41,"Duration":409351,"SoundDuration":409351,"Delta":61465276},{"NoteNumber":55,"Velocity":41,"Duration":409351,"SoundDuration":409351,"Delta":61465276},{"NoteNumber":60,"Velocity":41,"Duration":409351,"SoundDuration":409351,"Delta":61465276},{"NoteNumber":35,"Velocity":52,"Duration":272901,"SoundDuration":272901,"Delta":61601727},{"NoteNumber":52,"Velocity":41,"Duration":257975,"SoundDuration":257975,"Delta":61874628},{"NoteNumber":59,"Velocity":31,"Duration":128987,"SoundDuration":128987,"Delta":62003616},{"NoteNumber":67,"Velocity":31,"Duration":128987,"SoundDuration":128987,"Delta":62003616},{"NoteNumber":64,"Velocity":31,"Duration":128987,"SoundDuration":128987,"Delta":62003616},{"NoteNumber":54,"Velocity":47,"Duration":125554,"SoundDuration":125554,"Delta":62132604},{"NoteNumber":64,"Velocity":33,"Duration":125554,"SoundDuration":125554,"Delta":62258158},{"NoteNumber":59,"Velocity":33,"Duration":125554,"SoundDuration":125554,"Delta":62258158},{"NoteNumber":67,"Velocity":33,"Duration":125554,"SoundDuration":125554,"Delta":62258158},{"NoteNumber":55,"Velocity":49,"Duration":125554,"SoundDuration":125554,"Delta":62258158},{"NoteNumber":57,"Velocity":53,"Duration":125554,"SoundDuration":125554,"Delta":62383713},{"NoteNumber":60,"Velocity":37,"Duration":125554,"SoundDuration":125554,"Delta":62509267},{"NoteNumber":66,"Velocity":37,"Duration":125554,"SoundDuration":125554,"Delta":62509267},{"NoteNumber":64,"Velocity":37,"Duration":125554,"SoundDuration":125554,"Delta":62509267},{"NoteNumber":45,"Velocity":41,"Duration":130787,"SoundDuration":130787,"Delta":62634822},{"NoteNumber":64,"Velocity":28,"Duration":130787,"SoundDuration":130787,"Delta":62765609},{"NoteNumber":66,"Velocity":28,"Duration":130787,"SoundDuration":130787,"Delta":62765609},{"NoteNumber":60,"Velocity":28,"Duration":130787,"SoundDuration":130787,"Delta":62765609},{"NoteNumber":47,"Velocity":47,"Duration":128391,"SoundDuration":128391,"Delta":62896396},{"NoteNumber":59,"Velocity":28,"Duration":128391,"SoundDuration":128391,"Delta":63024788},{"NoteNumber":63,"Velocity":28,"Duration":128391,"SoundDuration":128391,"Delta":63024788},{"NoteNumber":66,"Velocity":28,"Duration":128391,"SoundDuration":128391,"Delta":63024788},{"NoteNumber":35,"Velocity":40,"Duration":131405,"SoundDuration":131405,"Delta":63153180},{"NoteNumber":59,"Velocity":29,"Duration":131405,"SoundDuration":131405,"Delta":63284586},{"NoteNumber":66,"Velocity":29,"Duration":131405,"SoundDuration":131405,"Delta":63284586},{"NoteNumber":63,"Velocity":29,"Duration":131405,"SoundDuration":131405,"Delta":63284586},{"NoteNumber":40,"Velocity":46,"Duration":131406,"SoundDuration":131406,"Delta":63415992},{"NoteNumber":64,"Velocity":34,"Duration":131405,"SoundDuration":131405,"Delta":63547398},{"NoteNumber":59,"Velocity":34,"Duration":131405,"SoundDuration":131405,"Delta":63547398},{"NoteNumber":67,"Velocity":34,"Duration":131405,"SoundDuration":131405,"Delta":63547398},{"NoteNumber":43,"Velocity":53,"Duration":136450,"SoundDuration":136450,"Delta":63678804},{"NoteNumber":55,"Velocity":42,"Duration":136450,"SoundDuration":136450,"Delta":63815254},{"NoteNumber":62,"Velocity":42,"Duration":136450,"SoundDuration":136450,"Delta":63815254},{"NoteNumber":59,"Velocity":42,"Duration":136450,"SoundDuration":136450,"Delta":63815254},{"NoteNumber":48,"Velocity":59,"Duration":256783,"SoundDuration":256783,"Delta":63951705},{"NoteNumber":64,"Velocity":35,"Duration":128391,"SoundDuration":128391,"Delta":64080097},{"NoteNumber":55,"Velocity":35,"Duration":128391,"SoundDuration":128391,"Delta":64080097},{"NoteNumber":60,"Velocity":35,"Duration":128391,"SoundDuration":128391,"Delta":64080097},{"NoteNumber":50,"Velocity":51,"Duration":123355,"SoundDuration":123355,"Delta":64208488},{"NoteNumber":60,"Velocity":35,"Duration":123355,"SoundDuration":123355,"Delta":64331844},{"NoteNumber":55,"Velocity":35,"Duration":123355,"SoundDuration":123355,"Delta":64331844},{"NoteNumber":64,"Velocity":35,"Duration":123355,"SoundDuration":123355,"Delta":64331844},{"NoteNumber":52,"Velocity":55,"Duration":123355,"SoundDuration":123355,"Delta":64331844},{"NoteNumber":53,"Velocity":59,"Duration":123355,"SoundDuration":123355,"Delta":64455199},{"NoteNumber":57,"Velocity":37,"Duration":123355,"SoundDuration":123355,"Delta":64578554},{"NoteNumber":60,"Velocity":37,"Duration":123355,"SoundDuration":123355,"Delta":64578554},{"NoteNumber":62,"Velocity":37,"Duration":123355,"SoundDuration":123355,"Delta":64578554},{"NoteNumber":41,"Velocity":49,"Duration":133250,"SoundDuration":133250,"Delta":64701909},{"NoteNumber":57,"Velocity":31,"Duration":133250,"SoundDuration":133250,"Delta":64835160},{"NoteNumber":60,"Velocity":31,"Duration":133250,"SoundDuration":133250,"Delta":64835160},{"NoteNumber":62,"Velocity":31,"Duration":133250,"SoundDuration":133250,"Delta":64835160},{"NoteNumber":43,"Velocity":56,"Duration":129589,"SoundDuration":129589,"Delta":64968410},{"NoteNumber":62,"Velocity":35,"Duration":129589,"SoundDuration":129589,"Delta":65098000},{"NoteNumber":55,"Velocity":35,"Duration":129589,"SoundDuration":129589,"Delta":65098000},{"NoteNumber":59,"Velocity":35,"Duration":129589,"SoundDuration":129589,"Delta":65098000},{"NoteNumber":31,"Velocity":50,"Duration":132626,"SoundDuration":132626,"Delta":65227590},{"NoteNumber":59,"Velocity":39,"Duration":132626,"SoundDuration":132626,"Delta":65360216},{"NoteNumber":55,"Velocity":39,"Duration":132626,"SoundDuration":132626,"Delta":65360216},{"NoteNumber":62,"Velocity":39,"Duration":132626,"SoundDuration":132626,"Delta":65360216},{"NoteNumber":36,"Velocity":56,"Duration":285360,"SoundDuration":285360,"Delta":65492842},{"NoteNumber":60,"Velocity":49,"Duration":490870,"SoundDuration":490870,"Delta":65635522},{"NoteNumber":64,"Velocity":49,"Duration":490870,"SoundDuration":490870,"Delta":65635522},{"NoteNumber":55,"Velocity":49,"Duration":490870,"SoundDuration":490870,"Delta":65635522},{"NoteNumber":35,"Velocity":62,"Duration":348189,"SoundDuration":348189,"Delta":65778203},{"NoteNumber":71,"Velocity":49,"Duration":615385,"SoundDuration":615385,"Delta":66176134},{"NoteNumber":67,"Velocity":35,"Duration":307692,"SoundDuration":307692,"Delta":66483826},{"NoteNumber":64,"Velocity":35,"Duration":307692,"SoundDuration":307692,"Delta":66483826},{"NoteNumber":66,"Velocity":29,"Duration":299999,"SoundDuration":299999,"Delta":66791519},{"NoteNumber":71,"Velocity":49,"Duration":450000,"SoundDuration":450000,"Delta":66791519},{"NoteNumber":63,"Velocity":29,"Duration":299999,"SoundDuration":299999,"Delta":66791519},{"NoteNumber":65,"Velocity":34,"Duration":299999,"SoundDuration":299999,"Delta":67091519},{"NoteNumber":62,"Velocity":35,"Duration":299999,"SoundDuration":299999,"Delta":67091519},{"NoteNumber":71,"Velocity":40,"Duration":149999,"SoundDuration":149999,"Delta":67241519},{"NoteNumber":61,"Velocity":33,"Duration":897384,"SoundDuration":897384,"Delta":67391519},{"NoteNumber":71,"Velocity":49,"Duration":300000,"SoundDuration":300000,"Delta":67391519},{"NoteNumber":64,"Velocity":33,"Duration":897384,"SoundDuration":897384,"Delta":67391519},{"NoteNumber":70,"Velocity":46,"Duration":597384,"SoundDuration":597384,"Delta":67691519},{"NoteNumber":76,"Velocity":48,"Duration":291262,"SoundDuration":291262,"Delta":67997641},{"NoteNumber":63,"Velocity":33,"Duration":295566,"SoundDuration":295566,"Delta":68288903},{"NoteNumber":75,"Velocity":47,"Duration":295566,"SoundDuration":295566,"Delta":68288903},{"NoteNumber":60,"Velocity":33,"Duration":295566,"SoundDuration":295566,"Delta":68288903},{"NoteNumber":69,"Velocity":33,"Duration":595566,"SoundDuration":595566,"Delta":68288903},{"NoteNumber":74,"Velocity":49,"Duration":299999,"SoundDuration":299999,"Delta":68584470},{"NoteNumber":62,"Velocity":41,"Duration":615789,"SoundDuration":615789,"Delta":68584470},{"NoteNumber":59,"Velocity":41,"Duration":615789,"SoundDuration":615789,"Delta":68584470},{"NoteNumber":67,"Velocity":42,"Duration":315789,"SoundDuration":315789,"Delta":68884470},{"NoteNumber":72,"Velocity":47,"Duration":454700,"SoundDuration":454700,"Delta":69200259},{"NoteNumber":66,"Velocity":34,"Duration":301793,"SoundDuration":301793,"Delta":69200259},{"NoteNumber":57,"Velocity":39,"Duration":454700,"SoundDuration":454700,"Delta":69200259},{"NoteNumber":62,"Velocity":39,"Duration":454700,"SoundDuration":454700,"Delta":69200259},{"NoteNumber":67,"Velocity":39,"Duration":307202,"SoundDuration":307202,"Delta":69502053},{"NoteNumber":71,"Velocity":45,"Duration":154295,"SoundDuration":154295,"Delta":69654960},{"NoteNumber":55,"Velocity":34,"Duration":154295,"SoundDuration":154295,"Delta":69654960},{"NoteNumber":62,"Velocity":34,"Duration":154295,"SoundDuration":154295,"Delta":69654960},{"NoteNumber":67,"Velocity":46,"Duration":621762,"SoundDuration":621762,"Delta":69809256},{"NoteNumber":71,"Velocity":46,"Duration":621762,"SoundDuration":621762,"Delta":69809256},{"NoteNumber":55,"Velocity":38,"Duration":310880,"SoundDuration":310880,"Delta":69809256},{"NoteNumber":62,"Velocity":38,"Duration":621762,"SoundDuration":621762,"Delta":69809256},{"NoteNumber":59,"Velocity":39,"Duration":310881,"SoundDuration":310881,"Delta":70120137},{"NoteNumber":66,"Velocity":45,"Duration":621761,"SoundDuration":621761,"Delta":70431018},{"NoteNumber":69,"Velocity":45,"Duration":621761,"SoundDuration":621761,"Delta":70431018},{"NoteNumber":62,"Velocity":40,"Duration":621761,"SoundDuration":621761,"Delta":70431018},{"NoteNumber":50,"Velocity":38,"Duration":1523032,"SoundDuration":1523032,"Delta":70741899},{"NoteNumber":62,"Velocity":61,"Duration":609137,"SoundDuration":609137,"Delta":71052780},{"NoteNumber":79,"Velocity":46,"Duration":304568,"SoundDuration":304568,"Delta":71357348},{"NoteNumber":71,"Velocity":46,"Duration":304568,"SoundDuration":304568,"Delta":71357348},{"NoteNumber":74,"Velocity":46,"Duration":304568,"SoundDuration":304568,"Delta":71357348},{"NoteNumber":69,"Velocity":48,"Duration":301507,"SoundDuration":301507,"Delta":71661917},{"NoteNumber":74,"Velocity":48,"Duration":301507,"SoundDuration":301507,"Delta":71661917},{"NoteNumber":78,"Velocity":48,"Duration":301507,"SoundDuration":301507,"Delta":71661917},{"NoteNumber":62,"Velocity":60,"Duration":452261,"SoundDuration":452261,"Delta":71661917},{"NoteNumber":67,"Velocity":50,"Duration":301507,"SoundDuration":301507,"Delta":71963424},{"NoteNumber":73,"Velocity":50,"Duration":301507,"SoundDuration":301507,"Delta":71963424},{"NoteNumber":76,"Velocity":50,"Duration":301507,"SoundDuration":301507,"Delta":71963424},{"NoteNumber":62,"Velocity":56,"Duration":150753,"SoundDuration":150753,"Delta":72114178},{"NoteNumber":69,"Velocity":56,"Duration":1524449,"SoundDuration":1524449,"Delta":72264932},{"NoteNumber":74,"Velocity":56,"Duration":1524449,"SoundDuration":1524449,"Delta":72264932},{"NoteNumber":66,"Velocity":56,"Duration":1524449,"SoundDuration":1524449,"Delta":72264932},{"NoteNumber":62,"Velocity":60,"Duration":306122,"SoundDuration":306122,"Delta":72264932},{"NoteNumber":60,"Velocity":56,"Duration":315789,"SoundDuration":315789,"Delta":72571054},{"NoteNumber":64,"Velocity":58,"Duration":301507,"SoundDuration":301507,"Delta":72886844},{"NoteNumber":62,"Velocity":55,"Duration":298756,"SoundDuration":298756,"Delta":73188351},{"NoteNumber":60,"Velocity":57,"Duration":302274,"SoundDuration":302274,"Delta":73487107},{"NoteNumber":74,"Velocity":45,"Duration":324324,"SoundDuration":324324,"Delta":73789381},{"NoteNumber":67,"Velocity":45,"Duration":665233,"SoundDuration":665233,"Delta":73789381},{"NoteNumber":59,"Velocity":51,"Duration":324324,"SoundDuration":324324,"Delta":73789381},{"NoteNumber":62,"Velocity":51,"Duration":324324,"SoundDuration":324324,"Delta":73789381},{"NoteNumber":72,"Velocity":42,"Duration":340908,"SoundDuration":340908,"Delta":74113706},{"NoteNumber":57,"Velocity":55,"Duration":340908,"SoundDuration":340908,"Delta":74113706},{"NoteNumber":64,"Velocity":55,"Duration":340908,"SoundDuration":340908,"Delta":74113706},{"NoteNumber":60,"Velocity":37,"Duration":180723,"SoundDuration":180723,"Delta":74625069},{"NoteNumber":66,"Velocity":37,"Duration":180723,"SoundDuration":180723,"Delta":74625069},{"NoteNumber":50,"Velocity":40,"Duration":180723,"SoundDuration":180723,"Delta":74625069},{"NoteNumber":57,"Velocity":40,"Duration":180723,"SoundDuration":180723,"Delta":74625069},{"NoteNumber":60,"Velocity":41,"Duration":799999,"SoundDuration":799999,"Delta":74805792},{"NoteNumber":66,"Velocity":41,"Duration":799999,"SoundDuration":799999,"Delta":74805792},{"NoteNumber":50,"Velocity":45,"Duration":1599999,"SoundDuration":1599999,"Delta":74805792},{"NoteNumber":57,"Velocity":45,"Duration":799999,"SoundDuration":799999,"Delta":74805792},{"NoteNumber":67,"Velocity":36,"Duration":799999,"SoundDuration":799999,"Delta":75605792},{"NoteNumber":59,"Velocity":36,"Duration":799999,"SoundDuration":799999,"Delta":75605792},{"NoteNumber":43,"Velocity":36,"Duration":799999,"SoundDuration":799999,"Delta":75605792}]}