{"title":"Album für die Jugend, Op. 68: No. 10, Fröhlicher Landmann","artist":"Schumann","durationMs":48234,"midiSha256":"94f7f9596b0c07141eba3ff009c9fca997949e2972e613b0d2f2269da436cb4c","midiObject":[{"NoteNumber":48,"Velocity":50,"Duration":298507,"SoundDuration":298507,"Delta":0},{"NoteNumber":53,"Velocity":54,"Duration":886742,"SoundDuration":886742,"Delta":298507},{"NoteNumber":60,"Velocity":34,"Duration":279411,"SoundDuration":279411,"Delta":597015},{"NoteNumber":65,"Velocity":34,"Duration":279411,"SoundDuration":279411,"Delta":597015},{"NoteNumber":69,"Velocity":41,"Duration":279411,"SoundDuration":279411,"Delta":597015},{"NoteNumber":60,"Velocity":38,"Duration":294117,"SoundDuration":294117,"Delta":891133},{"NoteNumber":65,"Velocity":38,"Duration":294117,"SoundDuration":294117,"Delta":891133},{"NoteNumber":69,"Velocity":45,"Duration":294117,"SoundDuration":294117,"Delta":891133},{"NoteNumber":57,"Velocity":50,"Duration":309278,"SoundDuration":309278,"Delta":1185250},{"NoteNumber":60,"Velocity":55,"Duration":886742,"SoundDuration":886742,"Delta":1494529},{"NoteNumber":65,"Velocity":35,"Duration":279411,"SoundDuration":279411,"Delta":1793036},{"NoteNumber":69,"Velocity":35,"Duration":279411,"SoundDuration":279411,"Delta":1793036},{"NoteNumber":72,"Velocity":42,"Duration":279411,"SoundDuration":279411,"Delta":1793036},{"NoteNumber":65,"Velocity":38,"Duration":294117,"SoundDuration":294117,"Delta":2087154},{"NoteNumber":69,"Velocity":38,"Duration":294117,"SoundDuration":294117,"Delta":2087154},{"NoteNumber":72,"Velocity":45,"Duration":294117,"SoundDuration":294117,"Delta":2087154},{"NoteNumber":53,"Velocity":50,"Duration":309278,"SoundDuration":309278,"Delta":2381271},{"NoteNumber":58,"Velocity":55,"Duration":299253,"SoundDuration":299253,"Delta":2690550},{"NoteNumber":65,"Velocity":34,"Duration":283582,"SoundDuration":283582,"Delta":2989803},{"NoteNumber":70,"Velocity":34,"Duration":283582,"SoundDuration":283582,"Delta":2989803},{"NoteNumber":74,"Velocity":41,"Duration":283582,"SoundDuration":283582,"Delta":2989803},{"NoteNumber":62,"Velocity":50,"Duration":298507,"SoundDuration":298507,"Delta":2989803},{"NoteNumber":70,"Velocity":39,"Duration":298507,"SoundDuration":298507,"Delta":3288311},{"NoteNumber":74,"Velocity":47,"Duration":298507,"SoundDuration":298507,"Delta":3288311},{"NoteNumber":65,"Velocity":55,"Duration":298507,"SoundDuration":298507,"Delta":3288311},{"NoteNumber":62,"Velocity":50,"Duration":306122,"SoundDuration":306122,"Delta":3586818},{"NoteNumber":60,"Velocity":61,"Duration":891088,"SoundDuration":891088,"Delta":3892941},{"NoteNumber":65,"Velocity":34,"Duration":282178,"SoundDuration":282178,"Delta":4189970},{"NoteNumber":69,"Velocity":34,"Duration":282178,"SoundDuration":282178,"Delta":4189970},{"NoteNumber":72,"Velocity":40,"Duration":282178,"SoundDuration":282178,"Delta":4189970},{"NoteNumber":65,"Velocity":41,"Duration":297029,"SoundDuration":297029,"Delta":4487000},{"NoteNumber":69,"Velocity":41,"Duration":297029,"SoundDuration":297029,"Delta":4487000},{"NoteNumber":72,"Velocity":49,"Duration":297029,"SoundDuration":297029,"Delta":4487000},{"NoteNumber":57,"Velocity":52,"Duration":307692,"SoundDuration":307692,"Delta":4784029},{"NoteNumber":58,"Velocity":59,"Duration":292683,"SoundDuration":292683,"Delta":5091722},{"NoteNumber":72,"Velocity":43,"Duration":278048,"SoundDuration":278048,"Delta":5384405},{"NoteNumber":70,"Velocity":36,"Duration":278048,"SoundDuration":278048,"Delta":5384405},{"NoteNumber":64,"Velocity":36,"Duration":278048,"SoundDuration":278048,"Delta":5384405},{"NoteNumber":55,"Velocity":46,"Duration":292683,"SoundDuration":292683,"Delta":5384405},{"NoteNumber":64,"Velocity":38,"Duration":612643,"SoundDuration":612643,"Delta":5677088},{"NoteNumber":70,"Velocity":38,"Duration":612643,"SoundDuration":612643,"Delta":5677088},{"NoteNumber":72,"Velocity":45,"Duration":612643,"SoundDuration":612643,"Delta":5677088},{"NoteNumber":48,"Velocity":44,"Duration":298507,"SoundDuration":298507,"Delta":5677088},{"NoteNumber":58,"Velocity":50,"Duration":314136,"SoundDuration":314136,"Delta":5975595},{"NoteNumber":57,"Velocity":57,"Duration":297029,"SoundDuration":297029,"Delta":6289731},{"NoteNumber":60,"Velocity":34,"Duration":282178,"SoundDuration":282178,"Delta":6586761},{"NoteNumber":65,"Velocity":34,"Duration":282178,"SoundDuration":282178,"Delta":6586761},{"NoteNumber":69,"Velocity":41,"Duration":282178,"SoundDuration":282178,"Delta":6586761},{"NoteNumber":53,"Velocity":45,"Duration":297029,"SoundDuration":297029,"Delta":6586761},{"NoteNumber":60,"Velocity":38,"Duration":603152,"SoundDuration":603152,"Delta":6883790},{"NoteNumber":65,"Velocity":38,"Duration":603152,"SoundDuration":603152,"Delta":6883790},{"NoteNumber":69,"Velocity":45,"Duration":603152,"SoundDuration":603152,"Delta":6883790},{"NoteNumber":48,"Velocity":45,"Duration":297029,"SoundDuration":297029,"Delta":6883790},{"NoteNumber":57,"Velocity":45,"Duration":306122,"SoundDuration":306122,"Delta":7180820},{"NoteNumber":52,"Velocity":54,"Duration":597384,"SoundDuration":597384,"Delta":7486942},{"NoteNumber":60,"Velocity":38,"Duration":306122,"SoundDuration":306122,"Delta":7778204},{"NoteNumber":67,"Velocity":45,"Duration":306122,"SoundDuration":306122,"Delta":7778204},{"NoteNumber":50,"Velocity":55,"Duration":606447,"SoundDuration":606447,"Delta":8084327},{"NoteNumber":65,"Velocity":40,"Duration":310881,"SoundDuration":310881,"Delta":8379893},{"NoteNumber":67,"Velocity":40,"Duration":310881,"SoundDuration":310881,"Delta":8379893},{"NoteNumber":71,"Velocity":48,"Duration":310881,"SoundDuration":310881,"Delta":8379893},{"NoteNumber":48,"Velocity":57,"Duration":626978,"SoundDuration":626978,"Delta":8690774},{"NoteNumber":64,"Velocity":42,"Duration":304812,"SoundDuration":304812,"Delta":8996897},{"NoteNumber":67,"Velocity":42,"Duration":304812,"SoundDuration":304812,"Delta":8996897},{"NoteNumber":72,"Velocity":50,"Duration":304812,"SoundDuration":304812,"Delta":8996897},{"NoteNumber":64,"Velocity":46,"Duration":597015,"SoundDuration":597015,"Delta":9317752},{"NoteNumber":67,"Velocity":46,"Duration":597015,"SoundDuration":597015,"Delta":9317752},{"NoteNumber":72,"Velocity":55,"Duration":597015,"SoundDuration":597015,"Delta":9317752},{"NoteNumber":48,"Velocity":50,"Duration":298507,"SoundDuration":298507,"Delta":9616260},{"NoteNumber":53,"Velocity":54,"Duration":886742,"SoundDuration":886742,"Delta":9914767},{"NoteNumber":60,"Velocity":34,"Duration":279411,"SoundDuration":279411,"Delta":10213275},{"NoteNumber":65,"Velocity":34,"Duration":279411,"SoundDuration":279411,"Delta":10213275},{"NoteNumber":69,"Velocity":41,"Duration":279411,"SoundDuration":279411,"Delta":10213275},{"NoteNumber":60,"Velocity":38,"Duration":294117,"SoundDuration":294117,"Delta":10507392},{"NoteNumber":65,"Velocity":38,"Duration":294117,"SoundDuration":294117,"Delta":10507392},{"NoteNumber":69,"Velocity":45,"Duration":294117,"SoundDuration":294117,"Delta":10507392},{"NoteNumber":57,"Velocity":50,"Duration":309278,"SoundDuration":309278,"Delta":10801510},{"NoteNumber":60,"Velocity":55,"Duration":886742,"SoundDuration":886742,"Delta":11110788},{"NoteNumber":65,"Velocity":35,"Duration":279411,"SoundDuration":279411,"Delta":11409296},{"NoteNumber":69,"Velocity":35,"Duration":279411,"SoundDuration":279411,"Delta":11409296},{"NoteNumber":72,"Velocity":42,"Duration":279411,"SoundDuration":279411,"Delta":11409296},{"NoteNumber":65,"Velocity":38,"Duration":294117,"SoundDuration":294117,"Delta":11703413},{"NoteNumber":69,"Velocity":38,"Duration":294117,"SoundDuration":294117,"Delta":11703413},{"NoteNumber":72,"Velocity":45,"Duration":294117,"SoundDuration":294117,"Delta":11703413},{"NoteNumber":53,"Velocity":50,"Duration":309278,"SoundDuration":309278,"Delta":11997531},{"NoteNumber":58,"Velocity":55,"Duration":299253,"SoundDuration":299253,"Delta":12306809},{"NoteNumber":65,"Velocity":34,"Duration":283582,"SoundDuration":283582,"Delta":12606063},{"NoteNumber":70,"Velocity":34,"Duration":283582,"SoundDuration":283582,"Delta":12606063},{"NoteNumber":74,"Velocity":41,"Duration":283582,"SoundDuration":283582,"Delta":12606063},{"NoteNumber":62,"Velocity":50,"Duration":298507,"SoundDuration":298507,"Delta":12606063},{"NoteNumber":70,"Velocity":39,"Duration":298507,"SoundDuration":298507,"Delta":12904571},{"NoteNumber":74,"Velocity":47,"Duration":298507,"SoundDuration":298507,"Delta":12904571},{"NoteNumber":65,"Velocity":55,"Duration":298507,"SoundDuration":298507,"Delta":12904571},{"NoteNumber":62,"Velocity":50,"Duration":306122,"SoundDuration":306122,"Delta":13203078},{"NoteNumber":60,"Velocity":61,"Duration":891088,"SoundDuration":891088,"Delta":13509201},{"NoteNumber":65,"Velocity":34,"Duration":282178,"SoundDuration":282178,"Delta":13806230},{"NoteNumber":69,"Velocity":34,"Duration":282178,"SoundDuration":282178,"Delta":13806230},{"NoteNumber":72,"Velocity":40,"Duration":282178,"SoundDuration":282178,"Delta":13806230},{"NoteNumber":65,"Velocity":41,"Duration":297029,"SoundDuration":297029,"Delta":14103260},{"NoteNumber":69,"Velocity":41,"Duration":297029,"SoundDuration":297029,"Delta":14103260},{"NoteNumber":72,"Velocity":49,"Duration":297029,"SoundDuration":297029,"Delta":14103260},{"NoteNumber":57,"Velocity":52,"Duration":307692,"SoundDuration":307692,"Delta":14400289},{"NoteNumber":58,"Velocity":59,"Duration":298507,"SoundDuration":298507,"Delta":14707982},{"NoteNumber":72,"Velocity":43,"Duration":283582,"SoundDuration":283582,"Delta":15006489},{"NoteNumber":70,"Velocity":36,"Duration":283582,"SoundDuration":283582,"Delta":15006489},{"NoteNumber":64,"Velocity":36,"Duration":283582,"SoundDuration":283582,"Delta":15006489},{"NoteNumber":55,"Velocity":46,"Duration":298507,"SoundDuration":298507,"Delta":15006489},{"NoteNumber":64,"Velocity":38,"Duration":612643,"SoundDuration":612643,"Delta":15304997},{"NoteNumber":70,"Velocity":38,"Duration":612643,"SoundDuration":612643,"Delta":15304997},{"NoteNumber":72,"Velocity":45,"Duration":612643,"SoundDuration":612643,"Delta":15304997},{"NoteNumber":48,"Velocity":44,"Duration":298507,"SoundDuration":298507,"Delta":15304997},{"NoteNumber":58,"Velocity":50,"Duration":314136,"SoundDuration":314136,"Delta":15603504},{"NoteNumber":57,"Velocity":57,"Duration":297029,"SoundDuration":297029,"Delta":15917640},{"NoteNumber":60,"Velocity":34,"Duration":282178,"SoundDuration":282178,"Delta":16214670},{"NoteNumber":65,"Velocity":34,"Duration":282178,"SoundDuration":282178,"Delta":16214670},{"NoteNumber":69,"Velocity":41,"Duration":282178,"SoundDuration":282178,"Delta":16214670},{"NoteNumber":53,"Velocity":45,"Duration":297029,"SoundDuration":297029,"Delta":16214670},{"NoteNumber":60,"Velocity":38,"Duration":607910,"SoundDuration":607910,"Delta":16511699},{"NoteNumber":65,"Velocity":38,"Duration":607910,"SoundDuration":607910,"Delta":16511699},{"NoteNumber":69,"Velocity":45,"Duration":607910,"SoundDuration":607910,"Delta":16511699},{"NoteNumber":48,"Velocity":45,"Duration":297029,"SoundDuration":297029,"Delta":16511699},{"NoteNumber":57,"Velocity":45,"Duration":310880,"SoundDuration":310880,"Delta":16808729},{"NoteNumber":52,"Velocity":54,"Duration":597147,"SoundDuration":597147,"Delta":17119610},{"NoteNumber":60,"Velocity":45,"Duration":303030,"SoundDuration":303030,"Delta":17413727},{"NoteNumber":67,"Velocity":45,"Duration":303030,"SoundDuration":303030,"Delta":17413727},{"NoteNumber":50,"Velocity":55,"Duration":615967,"SoundDuration":615967,"Delta":17716758},{"NoteNumber":65,"Velocity":40,"Duration":317460,"SoundDuration":317460,"Delta":18015265},{"NoteNumber":67,"Velocity":40,"Duration":317460,"SoundDuration":317460,"Delta":18015265},{"NoteNumber":71,"Velocity":48,"Duration":317460,"SoundDuration":317460,"Delta":18015265},{"NoteNumber":48,"Velocity":57,"Duration":626978,"SoundDuration":626978,"Delta":18332726},{"NoteNumber":64,"Velocity":42,"Duration":304812,"SoundDuration":304812,"Delta":18638848},{"NoteNumber":67,"Velocity":42,"Duration":304812,"SoundDuration":304812,"Delta":18638848},{"NoteNumber":72,"Velocity":50,"Duration":304812,"SoundDuration":304812,"Delta":18638848},{"NoteNumber":64,"Velocity":46,"Duration":298507,"SoundDuration":298507,"Delta":18959704},{"NoteNumber":67,"Velocity":46,"Duration":298507,"SoundDuration":298507,"Delta":18959704},{"NoteNumber":72,"Velocity":55,"Duration":298507,"SoundDuration":298507,"Delta":18959704},{"NoteNumber":60,"Velocity":57,"Duration":298507,"SoundDuration":298507,"Delta":19258211},{"NoteNumber":48,"Velocity":50,"Duration":298507,"SoundDuration":298507,"Delta":19258211},{"NoteNumber":70,"Velocity":62,"Duration":886742,"SoundDuration":886742,"Delta":19556719},{"NoteNumber":55,"Velocity":54,"Duration":886742,"SoundDuration":886742,"Delta":19556719},{"NoteNumber":60,"Velocity":34,"Duration":279411,"SoundDuration":279411,"Delta":19855226},{"NoteNumber":64,"Velocity":41,"Duration":279411,"SoundDuration":279411,"Delta":19855226},{"NoteNumber":60,"Velocity":38,"Duration":294117,"SoundDuration":294117,"Delta":20149343},{"NoteNumber":64,"Velocity":45,"Duration":294117,"SoundDuration":294117,"Delta":20149343},{"NoteNumber":69,"Velocity":57,"Duration":309278,"SoundDuration":309278,"Delta":20443461},{"NoteNumber":53,"Velocity":50,"Duration":309278,"SoundDuration":309278,"Delta":20443461},{"NoteNumber":67,"Velocity":63,"Duration":886742,"SoundDuration":886742,"Delta":20752740},{"NoteNumber":52,"Velocity":55,"Duration":886742,"SoundDuration":886742,"Delta":20752740},{"NoteNumber":58,"Velocity":35,"Duration":279411,"SoundDuration":279411,"Delta":21051247},{"NoteNumber":60,"Velocity":42,"Duration":279411,"SoundDuration":279411,"Delta":21051247},{"NoteNumber":58,"Velocity":38,"Duration":279411,"SoundDuration":279411,"Delta":21345365},{"NoteNumber":60,"Velocity":45,"Duration":279411,"SoundDuration":279411,"Delta":21345365},{"NoteNumber":60,"Velocity":57,"Duration":309278,"SoundDuration":309278,"Delta":21639482},{"NoteNumber":48,"Velocity":50,"Duration":309278,"SoundDuration":309278,"Delta":21639482},{"NoteNumber":70,"Velocity":63,"Duration":291986,"SoundDuration":291986,"Delta":21948761},{"NoteNumber":55,"Velocity":55,"Duration":291986,"SoundDuration":291986,"Delta":21948761},{"NoteNumber":60,"Velocity":48,"Duration":289854,"SoundDuration":289854,"Delta":22240747},{"NoteNumber":69,"Velocity":57,"Duration":289854,"SoundDuration":289854,"Delta":22240747},{"NoteNumber":53,"Velocity":42,"Duration":289854,"SoundDuration":289854,"Delta":22240747},{"NoteNumber":60,"Velocity":53,"Duration":291261,"SoundDuration":291261,"Delta":22530602},{"NoteNumber":67,"Velocity":63,"Duration":291261,"SoundDuration":291261,"Delta":22530602},{"NoteNumber":52,"Velocity":46,"Duration":291261,"SoundDuration":291261,"Delta":22530602},{"NoteNumber":59,"Velocity":48,"Duration":306122,"SoundDuration":306122,"Delta":22821864},{"NoteNumber":65,"Velocity":57,"Duration":306122,"SoundDuration":306122,"Delta":22821864},{"NoteNumber":50,"Velocity":42,"Duration":306122,"SoundDuration":306122,"Delta":22821864},{"NoteNumber":67,"Velocity":70,"Duration":892566,"SoundDuration":892566,"Delta":23127986},{"NoteNumber":48,"Velocity":61,"Duration":892566,"SoundDuration":892566,"Delta":23127986},{"NoteNumber":60,"Velocity":40,"Duration":282178,"SoundDuration":282178,"Delta":23425016},{"NoteNumber":60,"Velocity":49,"Duration":283582,"SoundDuration":283582,"Delta":23722045},{"NoteNumber":60,"Velocity":57,"Duration":298507,"SoundDuration":298507,"Delta":24020553},{"NoteNumber":48,"Velocity":50,"Duration":298507,"SoundDuration":298507,"Delta":24020553},{"NoteNumber":65,"Velocity":62,"Duration":886742,"SoundDuration":886742,"Delta":24319060},{"NoteNumber":53,"Velocity":54,"Duration":886742,"SoundDuration":886742,"Delta":24319060},{"NoteNumber":57,"Velocity":34,"Duration":279411,"SoundDuration":279411,"Delta":24617568},{"NoteNumber":60,"Velocity":41,"Duration":279411,"SoundDuration":279411,"Delta":24617568},{"NoteNumber":57,"Velocity":38,"Duration":279411,"SoundDuration":279411,"Delta":24911685},{"NoteNumber":60,"Velocity":45,"Duration":279411,"SoundDuration":279411,"Delta":24911685},{"NoteNumber":69,"Velocity":57,"Duration":309278,"SoundDuration":309278,"Delta":25205803},{"NoteNumber":57,"Velocity":50,"Duration":309278,"SoundDuration":309278,"Delta":25205803},{"NoteNumber":72,"Velocity":63,"Duration":886742,"SoundDuration":886742,"Delta":25515081},{"NoteNumber":60,"Velocity":55,"Duration":886742,"SoundDuration":886742,"Delta":25515081},{"NoteNumber":65,"Velocity":35,"Duration":279411,"SoundDuration":279411,"Delta":25813589},{"NoteNumber":69,"Velocity":42,"Duration":279411,"SoundDuration":279411,"Delta":25813589},{"NoteNumber":65,"Velocity":38,"Duration":279411,"SoundDuration":279411,"Delta":26107706},{"NoteNumber":69,"Velocity":45,"Duration":279411,"SoundDuration":279411,"Delta":26107706},{"NoteNumber":65,"Velocity":57,"Duration":309278,"SoundDuration":309278,"Delta":26401824},{"NoteNumber":53,"Velocity":50,"Duration":309278,"SoundDuration":309278,"Delta":26401824},{"NoteNumber":70,"Velocity":63,"Duration":299253,"SoundDuration":299253,"Delta":26711102},{"NoteNumber":58,"Velocity":55,"Duration":299253,"SoundDuration":299253,"Delta":26711102},{"NoteNumber":74,"Velocity":57,"Duration":296312,"SoundDuration":296312,"Delta":27010356},{"NoteNumber":65,"Velocity":34,"Duration":296312,"SoundDuration":296312,"Delta":27010356},{"NoteNumber":70,"Velocity":34,"Duration":296312,"SoundDuration":296312,"Delta":27010356},{"NoteNumber":62,"Velocity":50,"Duration":296312,"SoundDuration":296312,"Delta":27010356},{"NoteNumber":77,"Velocity":55,"Duration":294117,"SoundDuration":294117,"Delta":27306669},{"NoteNumber":65,"Velocity":55,"Duration":294117,"SoundDuration":294117,"Delta":27306669},{"NoteNumber":74,"Velocity":57,"Duration":306122,"SoundDuration":306122,"Delta":27600786},{"NoteNumber":70,"Velocity":39,"Duration":306122,"SoundDuration":306122,"Delta":27600786},{"NoteNumber":65,"Velocity":39,"Duration":306122,"SoundDuration":306122,"Delta":27600786},{"NoteNumber":62,"Velocity":50,"Duration":306122,"SoundDuration":306122,"Delta":27600786},{"NoteNumber":72,"Velocity":70,"Duration":891088,"SoundDuration":891088,"Delta":27906909},{"NoteNumber":60,"Velocity":61,"Duration":891088,"SoundDuration":891088,"Delta":27906909},{"NoteNumber":65,"Velocity":34,"Duration":282178,"SoundDuration":282178,"Delta":28203938},{"NoteNumber":69,"Velocity":40,"Duration":282178,"SoundDuration":282178,"Delta":28203938},{"NoteNumber":65,"Velocity":41,"Duration":297029,"SoundDuration":297029,"Delta":28500968},{"NoteNumber":69,"Velocity":49,"Duration":297029,"SoundDuration":297029,"Delta":28500968},{"NoteNumber":57,"Velocity":52,"Duration":307692,"SoundDuration":307692,"Delta":28797997},{"NoteNumber":58,"Velocity":59,"Duration":296312,"SoundDuration":296312,"Delta":29105690},{"NoteNumber":72,"Velocity":43,"Duration":279411,"SoundDuration":279411,"Delta":29402002},{"NoteNumber":70,"Velocity":36,"Duration":279411,"SoundDuration":279411,"Delta":29402002},{"NoteNumber":64,"Velocity":36,"Duration":279411,"SoundDuration":279411,"Delta":29402002},{"NoteNumber":55,"Velocity":46,"Duration":294117,"SoundDuration":294117,"Delta":29402002},{"NoteNumber":64,"Velocity":38,"Duration":610434,"SoundDuration":610434,"Delta":29696120},{"NoteNumber":70,"Velocity":38,"Duration":610434,"SoundDuration":610434,"Delta":29696120},{"NoteNumber":72,"Velocity":45,"Duration":610434,"SoundDuration":610434,"Delta":29696120},{"NoteNumber":48,"Velocity":44,"Duration":296298,"SoundDuration":296298,"Delta":29696120},{"NoteNumber":58,"Velocity":50,"Duration":314136,"SoundDuration":314136,"Delta":29992418},{"NoteNumber":57,"Velocity":57,"Duration":297029,"SoundDuration":297029,"Delta":30306554},{"NoteNumber":60,"Velocity":34,"Duration":282178,"SoundDuration":282178,"Delta":30603583},{"NoteNumber":65,"Velocity":34,"Duration":282178,"SoundDuration":282178,"Delta":30603583},{"NoteNumber":69,"Velocity":41,"Duration":282178,"SoundDuration":282178,"Delta":30603583},{"NoteNumber":53,"Velocity":45,"Duration":297029,"SoundDuration":297029,"Delta":30603583},{"NoteNumber":60,"Velocity":38,"Duration":282178,"SoundDuration":282178,"Delta":30900613},{"NoteNumber":65,"Velocity":38,"Duration":282178,"SoundDuration":282178,"Delta":30900613},{"NoteNumber":69,"Velocity":45,"Duration":282178,"SoundDuration":282178,"Delta":30900613},{"NoteNumber":48,"Velocity":45,"Duration":297029,"SoundDuration":297029,"Delta":30900613},{"NoteNumber":60,"Velocity":38,"Duration":310881,"SoundDuration":310881,"Delta":31197642},{"NoteNumber":65,"Velocity":38,"Duration":310881,"SoundDuration":310881,"Delta":31197642},{"NoteNumber":69,"Velocity":45,"Duration":310881,"SoundDuration":310881,"Delta":31197642},{"NoteNumber":57,"Velocity":45,"Duration":310881,"SoundDuration":310881,"Delta":31197642},{"NoteNumber":46,"Velocity":54,"Duration":603395,"SoundDuration":603395,"Delta":31508523},{"NoteNumber":55,"Velocity":54,"Duration":603395,"SoundDuration":603395,"Delta":31508523},{"NoteNumber":62,"Velocity":38,"Duration":309278,"SoundDuration":309278,"Delta":31802641},{"NoteNumber":67,"Velocity":45,"Duration":309278,"SoundDuration":309278,"Delta":31802641},{"NoteNumber":48,"Velocity":55,"Duration":615968,"SoundDuration":615968,"Delta":32111919},{"NoteNumber":52,"Velocity":55,"Duration":615968,"SoundDuration":615968,"Delta":32111919},{"NoteNumber":58,"Velocity":40,"Duration":317460,"SoundDuration":317460,"Delta":32410427},{"NoteNumber":60,"Velocity":48,"Duration":317460,"SoundDuration":317460,"Delta":32410427},{"NoteNumber":53,"Velocity":57,"Duration":626978,"SoundDuration":626978,"Delta":32727887},{"NoteNumber":57,"Velocity":42,"Duration":304812,"SoundDuration":304812,"Delta":33034010},{"NoteNumber":60,"Velocity":42,"Duration":304812,"SoundDuration":304812,"Delta":33034010},{"NoteNumber":65,"Velocity":50,"Duration":304812,"SoundDuration":304812,"Delta":33034010},{"NoteNumber":57,"Velocity":46,"Duration":283582,"SoundDuration":283582,"Delta":33354865},{"NoteNumber":60,"Velocity":46,"Duration":283582,"SoundDuration":283582,"Delta":33354865},{"NoteNumber":65,"Velocity":55,"Duration":283582,"SoundDuration":283582,"Delta":33354865},{"NoteNumber":60,"Velocity":57,"Duration":298507,"SoundDuration":298507,"Delta":33653373},{"NoteNumber":48,"Velocity":50,"Duration":298507,"SoundDuration":298507,"Delta":33653373},{"NoteNumber":70,"Velocity":62,"Duration":886742,"SoundDuration":886742,"Delta":33951880},{"NoteNumber":55,"Velocity":54,"Duration":886742,"SoundDuration":886742,"Delta":33951880},{"NoteNumber":60,"Velocity":34,"Duration":279411,"SoundDuration":279411,"Delta":34250388},{"NoteNumber":64,"Velocity":41,"Duration":279411,"SoundDuration":279411,"Delta":34250388},{"NoteNumber":60,"Velocity":38,"Duration":294117,"SoundDuration":294117,"Delta":34544505},{"NoteNumber":64,"Velocity":45,"Duration":294117,"SoundDuration":294117,"Delta":34544505},{"NoteNumber":69,"Velocity":57,"Duration":309278,"SoundDuration":309278,"Delta":34838623},{"NoteNumber":53,"Velocity":50,"Duration":309278,"SoundDuration":309278,"Delta":34838623},{"NoteNumber":67,"Velocity":63,"Duration":886742,"SoundDuration":886742,"Delta":35147901},{"NoteNumber":52,"Velocity":55,"Duration":886742,"SoundDuration":886742,"Delta":35147901},{"NoteNumber":58,"Velocity":35,"Duration":279411,"SoundDuration":279411,"Delta":35446409},{"NoteNumber":60,"Velocity":42,"Duration":279411,"SoundDuration":279411,"Delta":35446409},{"NoteNumber":58,"Velocity":38,"Duration":279411,"SoundDuration":279411,"Delta":35740526},{"NoteNumber":60,"Velocity":45,"Duration":279411,"SoundDuration":279411,"Delta":35740526},{"NoteNumber":60,"Velocity":57,"Duration":309278,"SoundDuration":309278,"Delta":36034644},{"NoteNumber":48,"Velocity":50,"Duration":309278,"SoundDuration":309278,"Delta":36034644},{"NoteNumber":70,"Velocity":63,"Duration":289855,"SoundDuration":289855,"Delta":36343922},{"NoteNumber":55,"Velocity":55,"Duration":289855,"SoundDuration":289855,"Delta":36343922},{"NoteNumber":60,"Velocity":48,"Duration":289854,"SoundDuration":289854,"Delta":36633777},{"NoteNumber":69,"Velocity":57,"Duration":289854,"SoundDuration":289854,"Delta":36633777},{"NoteNumber":53,"Velocity":42,"Duration":289854,"SoundDuration":289854,"Delta":36633777},{"NoteNumber":60,"Velocity":53,"Duration":292682,"SoundDuration":292682,"Delta":36923632},{"NoteNumber":67,"Velocity":63,"Duration":292682,"SoundDuration":292682,"Delta":36923632},{"NoteNumber":52,"Velocity":46,"Duration":292682,"SoundDuration":292682,"Delta":36923632},{"NoteNumber":59,"Velocity":48,"Duration":306122,"SoundDuration":306122,"Delta":37216315},{"NoteNumber":65,"Velocity":57,"Duration":306122,"SoundDuration":306122,"Delta":37216315},{"NoteNumber":50,"Velocity":42,"Duration":306122,"SoundDuration":306122,"Delta":37216315},{"NoteNumber":67,"Velocity":70,"Duration":892566,"SoundDuration":892566,"Delta":37522437},{"NoteNumber":48,"Velocity":61,"Duration":892566,"SoundDuration":892566,"Delta":37522437},{"NoteNumber":60,"Velocity":40,"Duration":282178,"SoundDuration":282178,"Delta":37819467},{"NoteNumber":60,"Velocity":49,"Duration":283582,"SoundDuration":283582,"Delta":38116497},{"NoteNumber":60,"Velocity":57,"Duration":298507,"SoundDuration":298507,"Delta":38415004},{"NoteNumber":48,"Velocity":50,"Duration":298507,"SoundDuration":298507,"Delta":38415004},{"NoteNumber":65,"Velocity":62,"Duration":886742,"SoundDuration":886742,"Delta":38713512},{"NoteNumber":53,"Velocity":54,"Duration":886742,"SoundDuration":886742,"Delta":38713512},{"NoteNumber":57,"Velocity":34,"Duration":279411,"SoundDuration":279411,"Delta":39012019},{"NoteNumber":60,"Velocity":41,"Duration":279411,"SoundDuration":279411,"Delta":39012019},{"NoteNumber":57,"Velocity":38,"Duration":279411,"SoundDuration":279411,"Delta":39306136},{"NoteNumber":60,"Velocity":45,"Duration":279411,"SoundDuration":279411,"Delta":39306136},{"NoteNumber":69,"Velocity":57,"Duration":309278,"SoundDuration":309278,"Delta":39600254},{"NoteNumber":57,"Velocity":50,"Duration":309278,"SoundDuration":309278,"Delta":39600254},{"NoteNumber":72,"Velocity":63,"Duration":886742,"SoundDuration":886742,"Delta":39909532},{"NoteNumber":60,"Velocity":55,"Duration":886742,"SoundDuration":886742,"Delta":39909532},{"NoteNumber":65,"Velocity":35,"Duration":279411,"SoundDuration":279411,"Delta":40208040},{"NoteNumber":69,"Velocity":42,"Duration":279411,"SoundDuration":279411,"Delta":40208040},{"NoteNumber":65,"Velocity":38,"Duration":279411,"SoundDuration":279411,"Delta":40502157},{"NoteNumber":69,"Velocity":45,"Duration":279411,"SoundDuration":279411,"Delta":40502157},{"NoteNumber":65,"Velocity":57,"Duration":306122,"SoundDuration":306122,"Delta":40796275},{"NoteNumber":53,"Velocity":50,"Duration":306122,"SoundDuration":306122,"Delta":40796275},{"NoteNumber":70,"Velocity":63,"Duration":299253,"SoundDuration":299253,"Delta":41102397},{"NoteNumber":58,"Velocity":55,"Duration":299253,"SoundDuration":299253,"Delta":41102397},{"NoteNumber":74,"Velocity":57,"Duration":298507,"SoundDuration":298507,"Delta":41401651},{"NoteNumber":65,"Velocity":34,"Duration":298507,"SoundDuration":298507,"Delta":41401651},{"NoteNumber":70,"Velocity":34,"Duration":298507,"SoundDuration":298507,"Delta":41401651},{"NoteNumber":62,"Velocity":50,"Duration":298507,"SoundDuration":298507,"Delta":41401651},{"NoteNumber":77,"Velocity":55,"Duration":294117,"SoundDuration":294117,"Delta":41700159},{"NoteNumber":65,"Velocity":55,"Duration":294117,"SoundDuration":294117,"Delta":41700159},{"NoteNumber":74,"Velocity":57,"Duration":306122,"SoundDuration":306122,"Delta":41994276},{"NoteNumber":70,"Velocity":39,"Duration":306122,"SoundDuration":306122,"Delta":41994276},{"NoteNumber":65,"Velocity":39,"Duration":306122,"SoundDuration":306122,"Delta":41994276},{"NoteNumber":62,"Velocity":50,"Duration":306122,"SoundDuration":306122,"Delta":41994276},{"NoteNumber":72,"Velocity":70,"Duration":891088,"SoundDuration":891088,"Delta":42300399},{"NoteNumber":60,"Velocity":61,"Duration":891088,"SoundDuration":891088,"Delta":42300399},{"NoteNumber":65,"Velocity":34,"Duration":282178,"SoundDuration":282178,"Delta":42597428},{"NoteNumber":69,"Velocity":40,"Duration":282178,"SoundDuration":282178,"Delta":42597428},{"NoteNumber":65,"Velocity":41,"Duration":297029,"SoundDuration":297029,"Delta":42894458},{"NoteNumber":69,"Velocity":49,"Duration":297029,"SoundDuration":297029,"Delta":42894458},{"NoteNumber":57,"Velocity":52,"Duration":307692,"SoundDuration":307692,"Delta":43191487},{"NoteNumber":58,"Velocity":59,"Duration":294117,"SoundDuration":294117,"Delta":43499180},{"NoteNumber":72,"Velocity":43,"Duration":282178,"SoundDuration":282178,"Delta":43793297},{"NoteNumber":70,"Velocity":36,"Duration":282178,"SoundDuration":282178,"Delta":43793297},{"NoteNumber":64,"Velocity":36,"Duration":282178,"SoundDuration":282178,"Delta":43793297},{"NoteNumber":55,"Velocity":46,"Duration":297029,"SoundDuration":297029,"Delta":43793297},{"NoteNumber":64,"Velocity":38,"Duration":611165,"SoundDuration":611165,"Delta":44090327},{"NoteNumber":70,"Velocity":38,"Duration":611165,"SoundDuration":611165,"Delta":44090327},{"NoteNumber":72,"Velocity":45,"Duration":611165,"SoundDuration":611165,"Delta":44090327},{"NoteNumber":48,"Velocity":44,"Duration":297029,"SoundDuration":297029,"Delta":44090327},{"NoteNumber":58,"Velocity":50,"Duration":314135,"SoundDuration":314135,"Delta":44387356},{"NoteNumber":57,"Velocity":57,"Duration":297029,"SoundDuration":297029,"Delta":44701492},{"NoteNumber":60,"Velocity":34,"Duration":282178,"SoundDuration":282178,"Delta":44998522},{"NoteNumber":65,"Velocity":34,"Duration":282178,"SoundDuration":282178,"Delta":44998522},{"NoteNumber":69,"Velocity":41,"Duration":282178,"SoundDuration":282178,"Delta":44998522},{"NoteNumber":53,"Velocity":45,"Duration":297029,"SoundDuration":297029,"Delta":44998522},{"NoteNumber":60,"Velocity":38,"Duration":282178,"SoundDuration":282178,"Delta":45295551},{"NoteNumber":65,"Velocity":38,"Duration":282178,"SoundDuration":282178,"Delta":45295551},{"NoteNumber":69,"Velocity":45,"Duration":282178,"SoundDuration":282178,"Delta":45295551},{"NoteNumber":48,"Velocity":45,"Duration":297029,"SoundDuration":297029,"Delta":45295551},{"NoteNumber":60,"Velocity":38,"Duration":326087,"SoundDuration":326087,"Delta":45592581},{"NoteNumber":65,"Velocity":38,"Duration":326087,"SoundDuration":326087,"Delta":45592581},{"NoteNumber":69,"Velocity":45,"Duration":326087,"SoundDuration":326087,"Delta":45592581},{"NoteNumber":57,"Velocity":45,"Duration":326087,"SoundDuration":326087,"Delta":45592581},{"NoteNumber":46,"Velocity":54,"Duration":638948,"SoundDuration":638948,"Delta":45918668},{"NoteNumber":55,"Velocity":54,"Duration":638948,"SoundDuration":638948,"Delta":45918668},{"NoteNumber":62,"Velocity":38,"Duration":329670,"SoundDuration":329670,"Delta":46227946},{"NoteNumber":67,"Velocity":45,"Duration":329670,"SoundDuration":329670,"Delta":46227946},{"NoteNumber":48,"Velocity":55,"Duration":662288,"SoundDuration":662288,"Delta":46557617},{"NoteNumber":52,"Velocity":55,"Duration":662288,"SoundDuration":662288,"Delta":46557617},{"NoteNumber":58,"Velocity":40,"Duration":344827,"SoundDuration":344827,"Delta":46875077},{"NoteNumber":60,"Velocity":48,"Duration":344827,"SoundDuration":344827,"Delta":46875077},{"NoteNumber":53,"Velocity":57,"Duration":682611,"SoundDuration":682611,"Delta":47219905},{"NoteNumber":57,"Velocity":42,"Duration":335293,"SoundDuration":335293,"Delta":47549575},{"NoteNumber":60,"Velocity":42,"Duration":335293,"SoundDuration":335293,"Delta":47549575},{"NoteNumber":65,"Velocity":50,"Duration":335293,"SoundDuration":335293,"Delta":47549575},{"NoteNumber":57,"Velocity":46,"Duration":331491,"SoundDuration":331491,"Delta":47902516},{"NoteNumber":60,"Velocity":46,"Duration":331491,"SoundDuration":331491,"Delta":47902516},{"NoteNumber":65,"Velocity":55,"Duration":331491,"SoundDuration":331491,"Delta":47902516}],"license":{"name":"Creative Commons Attribution-ShareAlike 3.0 Germany","url":"http://creativecommons.org/licenses/by-sa/3.0/de/deed.en","text":"The MIDI files in this folder were downloaded from http://www.piano-midi.de and are licensed under the Creative Commons Attribution-ShareAlike 3.0 Germany license by Bernd Krueger.\n\nThe MIDI, audio(MP3, OGG) and video files of Bernd Krueger are licensed under the cc-by-sa Germany License . This means, that you can use and adapt the files, as long as you attribute to the copyright holder Name: Bernd Krueger Source: http://www.piano-midi.de The distribution or public playback of the files is only allowed under identical license conditions . The scores are open source.","attribution":"Bernd Krueger","attributionUrl":"http://www.piano-midi.de"}}