{"title":"Glückes genug","artist":"Schumann","durationMs":60440,"midiSha256":"3f97d6811db0b3fb2435b3659a8fd9f0265b13f85ac33e1c6835178ebad0edd5","midiObject":[{"NoteNumber":68,"Velocity":59,"Duration":375000,"SoundDuration":375000,"Delta":0},{"NoteNumber":67,"Velocity":35,"Duration":187500,"SoundDuration":187500,"Delta":187500},{"NoteNumber":64,"Velocity":35,"Duration":187500,"SoundDuration":187500,"Delta":187500},{"NoteNumber":69,"Velocity":62,"Duration":371158,"SoundDuration":371158,"Delta":375000},{"NoteNumber":45,"Velocity":51,"Duration":186917,"SoundDuration":186917,"Delta":375000},{"NoteNumber":33,"Velocity":51,"Duration":186917,"SoundDuration":186917,"Delta":375000},{"NoteNumber":64,"Velocity":35,"Duration":184240,"SoundDuration":184240,"Delta":561917},{"NoteNumber":67,"Velocity":35,"Duration":184240,"SoundDuration":184240,"Delta":561917},{"NoteNumber":73,"Velocity":64,"Duration":361287,"SoundDuration":361287,"Delta":746158},{"NoteNumber":69,"Velocity":37,"Duration":179464,"SoundDuration":179464,"Delta":927981},{"NoteNumber":67,"Velocity":37,"Duration":179464,"SoundDuration":179464,"Delta":927981},{"NoteNumber":78,"Velocity":68,"Duration":355029,"SoundDuration":355029,"Delta":1107445},{"NoteNumber":67,"Velocity":40,"Duration":177514,"SoundDuration":177514,"Delta":1284960},{"NoteNumber":69,"Velocity":40,"Duration":177514,"SoundDuration":177514,"Delta":1284960},{"NoteNumber":76,"Velocity":68,"Duration":355029,"SoundDuration":355029,"Delta":1462475},{"NoteNumber":49,"Velocity":51,"Duration":355029,"SoundDuration":355029,"Delta":1462475},{"NoteNumber":67,"Velocity":40,"Duration":177514,"SoundDuration":177514,"Delta":1639990},{"NoteNumber":69,"Velocity":40,"Duration":177514,"SoundDuration":177514,"Delta":1639990},{"NoteNumber":74,"Velocity":66,"Duration":369449,"SoundDuration":369449,"Delta":1817504},{"NoteNumber":45,"Velocity":54,"Duration":1425897,"SoundDuration":1425897,"Delta":1817504},{"NoteNumber":50,"Velocity":54,"Duration":369449,"SoundDuration":369449,"Delta":1817504},{"NoteNumber":62,"Velocity":38,"Duration":183303,"SoundDuration":183303,"Delta":2003651},{"NoteNumber":66,"Velocity":38,"Duration":183303,"SoundDuration":183303,"Delta":2003651},{"NoteNumber":69,"Velocity":63,"Duration":358774,"SoundDuration":358774,"Delta":2186954},{"NoteNumber":54,"Velocity":57,"Duration":358774,"SoundDuration":358774,"Delta":2186954},{"NoteNumber":62,"Velocity":36,"Duration":178047,"SoundDuration":178047,"Delta":2367681},{"NoteNumber":66,"Velocity":36,"Duration":178047,"SoundDuration":178047,"Delta":2367681},{"NoteNumber":59,"Velocity":61,"Duration":348836,"SoundDuration":348836,"Delta":2545728},{"NoteNumber":62,"Velocity":38,"Duration":174418,"SoundDuration":174418,"Delta":2720147},{"NoteNumber":66,"Velocity":38,"Duration":174418,"SoundDuration":174418,"Delta":2720147},{"NoteNumber":69,"Velocity":64,"Duration":87209,"SoundDuration":87209,"Delta":2894565},{"NoteNumber":57,"Velocity":59,"Duration":348837,"SoundDuration":348837,"Delta":2894565},{"NoteNumber":62,"Velocity":39,"Duration":174418,"SoundDuration":174418,"Delta":3068984},{"NoteNumber":66,"Velocity":39,"Duration":174418,"SoundDuration":174418,"Delta":3068984},{"NoteNumber":69,"Velocity":67,"Duration":174418,"SoundDuration":174418,"Delta":3243402},{"NoteNumber":45,"Velocity":51,"Duration":174418,"SoundDuration":174418,"Delta":3243402},{"NoteNumber":61,"Velocity":48,"Duration":87209,"SoundDuration":87209,"Delta":3417821},{"NoteNumber":64,"Velocity":48,"Duration":87209,"SoundDuration":87209,"Delta":3417821},{"NoteNumber":55,"Velocity":38,"Duration":87209,"SoundDuration":87209,"Delta":3417821},{"NoteNumber":57,"Velocity":38,"Duration":87209,"SoundDuration":87209,"Delta":3417821},{"NoteNumber":61,"Velocity":56,"Duration":348837,"SoundDuration":348837,"Delta":3592239},{"NoteNumber":64,"Velocity":56,"Duration":174418,"SoundDuration":174418,"Delta":3592239},{"NoteNumber":55,"Velocity":41,"Duration":174418,"SoundDuration":174418,"Delta":3592239},{"NoteNumber":57,"Velocity":41,"Duration":697674,"SoundDuration":697674,"Delta":3592239},{"NoteNumber":66,"Velocity":45,"Duration":174418,"SoundDuration":174418,"Delta":3766658},{"NoteNumber":54,"Velocity":38,"Duration":174418,"SoundDuration":174418,"Delta":3766658},{"NoteNumber":67,"Velocity":59,"Duration":348836,"SoundDuration":348836,"Delta":3941076},{"NoteNumber":52,"Velocity":51,"Duration":348836,"SoundDuration":348836,"Delta":3941076},{"NoteNumber":61,"Velocity":42,"Duration":174418,"SoundDuration":174418,"Delta":4115495},{"NoteNumber":64,"Velocity":42,"Duration":174418,"SoundDuration":174418,"Delta":4115495},{"NoteNumber":71,"Velocity":59,"Duration":348502,"SoundDuration":348502,"Delta":4289913},{"NoteNumber":33,"Velocity":44,"Duration":348502,"SoundDuration":348502,"Delta":4289913},{"NoteNumber":45,"Velocity":44,"Duration":1595859,"SoundDuration":1595859,"Delta":4289913},{"NoteNumber":59,"Velocity":43,"Duration":174084,"SoundDuration":174084,"Delta":4464332},{"NoteNumber":67,"Velocity":43,"Duration":174084,"SoundDuration":174084,"Delta":4464332},{"NoteNumber":69,"Velocity":57,"Duration":347502,"SoundDuration":347502,"Delta":4638416},{"NoteNumber":38,"Velocity":52,"Duration":347502,"SoundDuration":347502,"Delta":4638416},{"NoteNumber":57,"Velocity":39,"Duration":174590,"SoundDuration":174590,"Delta":4811328},{"NoteNumber":66,"Velocity":39,"Duration":174590,"SoundDuration":174590,"Delta":4811328},{"NoteNumber":66,"Velocity":55,"Duration":354343,"SoundDuration":354343,"Delta":4985919},{"NoteNumber":42,"Velocity":49,"Duration":354343,"SoundDuration":354343,"Delta":4985919},{"NoteNumber":57,"Velocity":36,"Duration":178043,"SoundDuration":178043,"Delta":5162219},{"NoteNumber":62,"Velocity":36,"Duration":178043,"SoundDuration":178043,"Delta":5162219},{"NoteNumber":64,"Velocity":53,"Duration":361461,"SoundDuration":361461,"Delta":5340262},{"NoteNumber":45,"Velocity":45,"Duration":729559,"SoundDuration":729559,"Delta":5340262},{"NoteNumber":57,"Velocity":34,"Duration":181637,"SoundDuration":181637,"Delta":5520086},{"NoteNumber":61,"Velocity":34,"Duration":181637,"SoundDuration":181637,"Delta":5520086},{"NoteNumber":68,"Velocity":59,"Duration":368097,"SoundDuration":368097,"Delta":5701724},{"NoteNumber":64,"Velocity":40,"Duration":184048,"SoundDuration":184048,"Delta":5885773},{"NoteNumber":67,"Velocity":40,"Duration":184048,"SoundDuration":184048,"Delta":5885773},{"NoteNumber":33,"Velocity":53,"Duration":184048,"SoundDuration":184048,"Delta":5885773},{"NoteNumber":69,"Velocity":69,"Duration":719935,"SoundDuration":719935,"Delta":6069822},{"NoteNumber":45,"Velocity":53,"Duration":1421689,"SoundDuration":1421689,"Delta":6069822},{"NoteNumber":64,"Velocity":38,"Duration":180907,"SoundDuration":180907,"Delta":6252751},{"NoteNumber":67,"Velocity":38,"Duration":180907,"SoundDuration":180907,"Delta":6252751},{"NoteNumber":49,"Velocity":58,"Duration":356098,"SoundDuration":356098,"Delta":6433658},{"NoteNumber":55,"Velocity":40,"Duration":176992,"SoundDuration":176992,"Delta":6612765},{"NoteNumber":57,"Velocity":40,"Duration":176992,"SoundDuration":176992,"Delta":6612765},{"NoteNumber":54,"Velocity":63,"Duration":350877,"SoundDuration":350877,"Delta":6789757},{"NoteNumber":55,"Velocity":38,"Duration":175438,"SoundDuration":175438,"Delta":6965196},{"NoteNumber":57,"Velocity":38,"Duration":175438,"SoundDuration":175438,"Delta":6965196},{"NoteNumber":61,"Velocity":45,"Duration":350876,"SoundDuration":350876,"Delta":7140634},{"NoteNumber":52,"Velocity":61,"Duration":350876,"SoundDuration":350876,"Delta":7140634},{"NoteNumber":55,"Velocity":38,"Duration":175438,"SoundDuration":175438,"Delta":7316073},{"NoteNumber":57,"Velocity":38,"Duration":175438,"SoundDuration":175438,"Delta":7316073},{"NoteNumber":62,"Velocity":62,"Duration":362195,"SoundDuration":362195,"Delta":7491511},{"NoteNumber":38,"Velocity":51,"Duration":1061806,"SoundDuration":1061806,"Delta":7491511},{"NoteNumber":50,"Velocity":51,"Duration":1061806,"SoundDuration":1061806,"Delta":7491511},{"NoteNumber":57,"Velocity":38,"Duration":179823,"SoundDuration":179823,"Delta":7673884},{"NoteNumber":54,"Velocity":38,"Duration":179823,"SoundDuration":179823,"Delta":7673884},{"NoteNumber":66,"Velocity":64,"Duration":352789,"SoundDuration":352789,"Delta":7853707},{"NoteNumber":57,"Velocity":39,"Duration":175270,"SoundDuration":175270,"Delta":8031226},{"NoteNumber":62,"Velocity":39,"Duration":175270,"SoundDuration":175270,"Delta":8031226},{"NoteNumber":71,"Velocity":68,"Duration":346821,"SoundDuration":346821,"Delta":8206496},{"NoteNumber":66,"Velocity":40,"Duration":173410,"SoundDuration":173410,"Delta":8379907},{"NoteNumber":62,"Velocity":40,"Duration":173410,"SoundDuration":173410,"Delta":8379907},{"NoteNumber":69,"Velocity":68,"Duration":346821,"SoundDuration":346821,"Delta":8553317},{"NoteNumber":36,"Velocity":47,"Duration":346821,"SoundDuration":346821,"Delta":8553317},{"NoteNumber":48,"Velocity":47,"Duration":346821,"SoundDuration":346821,"Delta":8553317},{"NoteNumber":66,"Velocity":40,"Duration":173410,"SoundDuration":173410,"Delta":8726728},{"NoteNumber":62,"Velocity":40,"Duration":173410,"SoundDuration":173410,"Delta":8726728},{"NoteNumber":67,"Velocity":68,"Duration":351405,"SoundDuration":351405,"Delta":8900138},{"NoteNumber":35,"Velocity":56,"Duration":1058602,"SoundDuration":1058602,"Delta":8900138},{"NoteNumber":47,"Velocity":56,"Duration":1058602,"SoundDuration":1058602,"Delta":8900138},{"NoteNumber":62,"Velocity":40,"Duration":176646,"SoundDuration":176646,"Delta":9074897},{"NoteNumber":55,"Velocity":40,"Duration":176646,"SoundDuration":176646,"Delta":9074897},{"NoteNumber":71,"Velocity":70,"Duration":360376,"SoundDuration":360376,"Delta":9251543},{"NoteNumber":62,"Velocity":42,"Duration":181270,"SoundDuration":181270,"Delta":9430650},{"NoteNumber":67,"Velocity":42,"Duration":181270,"SoundDuration":181270,"Delta":9430650},{"NoteNumber":76,"Velocity":74,"Duration":346821,"SoundDuration":346821,"Delta":9611920},{"NoteNumber":67,"Velocity":44,"Duration":173410,"SoundDuration":173410,"Delta":9785331},{"NoteNumber":64,"Velocity":44,"Duration":173410,"SoundDuration":173410,"Delta":9785331},{"NoteNumber":74,"Velocity":72,"Duration":346821,"SoundDuration":346821,"Delta":9958741},{"NoteNumber":34,"Velocity":43,"Duration":346821,"SoundDuration":346821,"Delta":9958741},{"NoteNumber":46,"Velocity":43,"Duration":346821,"SoundDuration":346821,"Delta":9958741},{"NoteNumber":67,"Velocity":41,"Duration":173410,"SoundDuration":173410,"Delta":10132152},{"NoteNumber":62,"Velocity":41,"Duration":173410,"SoundDuration":173410,"Delta":10132152},{"NoteNumber":73,"Velocity":68,"Duration":346173,"SoundDuration":346173,"Delta":10305562},{"NoteNumber":33,"Velocity":45,"Duration":346173,"SoundDuration":346173,"Delta":10305562},{"NoteNumber":45,"Velocity":45,"Duration":346173,"SoundDuration":346173,"Delta":10305562},{"NoteNumber":61,"Velocity":38,"Duration":174252,"SoundDuration":174252,"Delta":10477483},{"NoteNumber":67,"Velocity":38,"Duration":174252,"SoundDuration":174252,"Delta":10477483},{"NoteNumber":71,"Velocity":65,"Duration":355226,"SoundDuration":355226,"Delta":10651736},{"NoteNumber":35,"Velocity":43,"Duration":355226,"SoundDuration":355226,"Delta":10651736},{"NoteNumber":47,"Velocity":43,"Duration":355226,"SoundDuration":355226,"Delta":10651736},{"NoteNumber":62,"Velocity":38,"Duration":178751,"SoundDuration":178751,"Delta":10828210},{"NoteNumber":67,"Velocity":38,"Duration":178751,"SoundDuration":178751,"Delta":10828210},{"NoteNumber":69,"Velocity":60,"Duration":361446,"SoundDuration":361446,"Delta":11006962},{"NoteNumber":36,"Velocity":40,"Duration":361446,"SoundDuration":361446,"Delta":11006962},{"NoteNumber":48,"Velocity":40,"Duration":361446,"SoundDuration":361446,"Delta":11006962},{"NoteNumber":63,"Velocity":35,"Duration":180723,"SoundDuration":180723,"Delta":11187685},{"NoteNumber":67,"Velocity":35,"Duration":180723,"SoundDuration":180723,"Delta":11187685},{"NoteNumber":68,"Velocity":59,"Duration":361445,"SoundDuration":361445,"Delta":11368408},{"NoteNumber":37,"Velocity":51,"Duration":732791,"SoundDuration":732791,"Delta":11368408},{"NoteNumber":49,"Velocity":51,"Duration":732791,"SoundDuration":732791,"Delta":11368408},{"NoteNumber":64,"Velocity":35,"Duration":180723,"SoundDuration":180723,"Delta":11549131},{"NoteNumber":67,"Velocity":35,"Duration":180723,"SoundDuration":180723,"Delta":11549131},{"NoteNumber":69,"Velocity":62,"Duration":371345,"SoundDuration":371345,"Delta":11729854},{"NoteNumber":64,"Velocity":35,"Duration":184427,"SoundDuration":184427,"Delta":11916772},{"NoteNumber":67,"Velocity":35,"Duration":184427,"SoundDuration":184427,"Delta":11916772},{"NoteNumber":73,"Velocity":64,"Duration":376356,"SoundDuration":376356,"Delta":12101200},{"NoteNumber":33,"Velocity":51,"Duration":376356,"SoundDuration":376356,"Delta":12101200},{"NoteNumber":67,"Velocity":37,"Duration":192307,"SoundDuration":192307,"Delta":12285249},{"NoteNumber":69,"Velocity":37,"Duration":192307,"SoundDuration":192307,"Delta":12285249},{"NoteNumber":78,"Velocity":68,"Duration":361446,"SoundDuration":361446,"Delta":12477556},{"NoteNumber":67,"Velocity":40,"Duration":180723,"SoundDuration":180723,"Delta":12658279},{"NoteNumber":69,"Velocity":40,"Duration":180723,"SoundDuration":180723,"Delta":12658279},{"NoteNumber":76,"Velocity":68,"Duration":361445,"SoundDuration":361445,"Delta":12839002},{"NoteNumber":49,"Velocity":51,"Duration":361445,"SoundDuration":361445,"Delta":12839002},{"NoteNumber":67,"Velocity":40,"Duration":180723,"SoundDuration":180723,"Delta":13019725},{"NoteNumber":69,"Velocity":40,"Duration":180723,"SoundDuration":180723,"Delta":13019725},{"NoteNumber":74,"Velocity":66,"Duration":369449,"SoundDuration":369449,"Delta":13200448},{"NoteNumber":45,"Velocity":54,"Duration":1425897,"SoundDuration":1425897,"Delta":13200448},{"NoteNumber":50,"Velocity":54,"Duration":369449,"SoundDuration":369449,"Delta":13200448},{"NoteNumber":62,"Velocity":38,"Duration":183303,"SoundDuration":183303,"Delta":13386595},{"NoteNumber":66,"Velocity":38,"Duration":183303,"SoundDuration":183303,"Delta":13386595},{"NoteNumber":69,"Velocity":63,"Duration":358774,"SoundDuration":358774,"Delta":13569898},{"NoteNumber":54,"Velocity":57,"Duration":358774,"SoundDuration":358774,"Delta":13569898},{"NoteNumber":62,"Velocity":36,"Duration":178047,"SoundDuration":178047,"Delta":13750625},{"NoteNumber":66,"Velocity":36,"Duration":178047,"SoundDuration":178047,"Delta":13750625},{"NoteNumber":59,"Velocity":61,"Duration":348836,"SoundDuration":348836,"Delta":13928672},{"NoteNumber":62,"Velocity":38,"Duration":174418,"SoundDuration":174418,"Delta":14103091},{"NoteNumber":66,"Velocity":38,"Duration":174418,"SoundDuration":174418,"Delta":14103091},{"NoteNumber":69,"Velocity":64,"Duration":87209,"SoundDuration":87209,"Delta":14277509},{"NoteNumber":57,"Velocity":59,"Duration":348836,"SoundDuration":348836,"Delta":14277509},{"NoteNumber":62,"Velocity":39,"Duration":174418,"SoundDuration":174418,"Delta":14451928},{"NoteNumber":66,"Velocity":39,"Duration":174418,"SoundDuration":174418,"Delta":14451928},{"NoteNumber":69,"Velocity":67,"Duration":174418,"SoundDuration":174418,"Delta":14626346},{"NoteNumber":45,"Velocity":51,"Duration":174418,"SoundDuration":174418,"Delta":14626346},{"NoteNumber":61,"Velocity":48,"Duration":87209,"SoundDuration":87209,"Delta":14800765},{"NoteNumber":64,"Velocity":48,"Duration":87209,"SoundDuration":87209,"Delta":14800765},{"NoteNumber":55,"Velocity":38,"Duration":87209,"SoundDuration":87209,"Delta":14800765},{"NoteNumber":57,"Velocity":38,"Duration":87209,"SoundDuration":87209,"Delta":14800765},{"NoteNumber":61,"Velocity":56,"Duration":348836,"SoundDuration":348836,"Delta":14975183},{"NoteNumber":64,"Velocity":56,"Duration":174418,"SoundDuration":174418,"Delta":14975183},{"NoteNumber":55,"Velocity":41,"Duration":174418,"SoundDuration":174418,"Delta":14975183},{"NoteNumber":57,"Velocity":41,"Duration":697673,"SoundDuration":697673,"Delta":14975183},{"NoteNumber":66,"Velocity":45,"Duration":174418,"SoundDuration":174418,"Delta":15149602},{"NoteNumber":54,"Velocity":38,"Duration":174418,"SoundDuration":174418,"Delta":15149602},{"NoteNumber":67,"Velocity":59,"Duration":348836,"SoundDuration":348836,"Delta":15324020},{"NoteNumber":52,"Velocity":51,"Duration":348836,"SoundDuration":348836,"Delta":15324020},{"NoteNumber":61,"Velocity":42,"Duration":174418,"SoundDuration":174418,"Delta":15498439},{"NoteNumber":64,"Velocity":42,"Duration":174418,"SoundDuration":174418,"Delta":15498439},{"NoteNumber":71,"Velocity":59,"Duration":348502,"SoundDuration":348502,"Delta":15672857},{"NoteNumber":33,"Velocity":44,"Duration":348502,"SoundDuration":348502,"Delta":15672857},{"NoteNumber":45,"Velocity":44,"Duration":1603402,"SoundDuration":1603402,"Delta":15672857},{"NoteNumber":59,"Velocity":39,"Duration":174084,"SoundDuration":174084,"Delta":15847276},{"NoteNumber":67,"Velocity":39,"Duration":174084,"SoundDuration":174084,"Delta":15847276},{"NoteNumber":69,"Velocity":56,"Duration":355045,"SoundDuration":355045,"Delta":16021360},{"NoteNumber":38,"Velocity":51,"Duration":355045,"SoundDuration":355045,"Delta":16021360},{"NoteNumber":57,"Velocity":36,"Duration":174590,"SoundDuration":174590,"Delta":16201815},{"NoteNumber":66,"Velocity":36,"Duration":174590,"SoundDuration":174590,"Delta":16201815},{"NoteNumber":66,"Velocity":55,"Duration":354343,"SoundDuration":354343,"Delta":16376406},{"NoteNumber":42,"Velocity":47,"Duration":354343,"SoundDuration":354343,"Delta":16376406},{"NoteNumber":57,"Velocity":35,"Duration":178043,"SoundDuration":178043,"Delta":16552706},{"NoteNumber":62,"Velocity":35,"Duration":178043,"SoundDuration":178043,"Delta":16552706},{"NoteNumber":64,"Velocity":51,"Duration":361461,"SoundDuration":361461,"Delta":16730750},{"NoteNumber":45,"Velocity":45,"Duration":737817,"SoundDuration":737817,"Delta":16730750},{"NoteNumber":57,"Velocity":34,"Duration":181637,"SoundDuration":181637,"Delta":16910573},{"NoteNumber":61,"Velocity":34,"Duration":181637,"SoundDuration":181637,"Delta":16910573},{"NoteNumber":68,"Velocity":59,"Duration":376356,"SoundDuration":376356,"Delta":17092211},{"NoteNumber":64,"Velocity":40,"Duration":192307,"SoundDuration":192307,"Delta":17276260},{"NoteNumber":67,"Velocity":40,"Duration":192307,"SoundDuration":192307,"Delta":17276260},{"NoteNumber":33,"Velocity":53,"Duration":192307,"SoundDuration":192307,"Delta":17276260},{"NoteNumber":69,"Velocity":69,"Duration":721311,"SoundDuration":721311,"Delta":17468568},{"NoteNumber":45,"Velocity":53,"Duration":1423065,"SoundDuration":1423065,"Delta":17468568},{"NoteNumber":64,"Velocity":38,"Duration":180907,"SoundDuration":180907,"Delta":17652873},{"NoteNumber":67,"Velocity":38,"Duration":180907,"SoundDuration":180907,"Delta":17652873},{"NoteNumber":49,"Velocity":58,"Duration":356098,"SoundDuration":356098,"Delta":17833781},{"NoteNumber":55,"Velocity":40,"Duration":176992,"SoundDuration":176992,"Delta":18012887},{"NoteNumber":57,"Velocity":40,"Duration":176992,"SoundDuration":176992,"Delta":18012887},{"NoteNumber":54,"Velocity":63,"Duration":350877,"SoundDuration":350877,"Delta":18189880},{"NoteNumber":55,"Velocity":38,"Duration":175438,"SoundDuration":175438,"Delta":18365318},{"NoteNumber":57,"Velocity":38,"Duration":175438,"SoundDuration":175438,"Delta":18365318},{"NoteNumber":61,"Velocity":45,"Duration":350877,"SoundDuration":350877,"Delta":18540757},{"NoteNumber":52,"Velocity":61,"Duration":350877,"SoundDuration":350877,"Delta":18540757},{"NoteNumber":55,"Velocity":38,"Duration":175438,"SoundDuration":175438,"Delta":18716195},{"NoteNumber":57,"Velocity":38,"Duration":175438,"SoundDuration":175438,"Delta":18716195},{"NoteNumber":62,"Velocity":62,"Duration":362195,"SoundDuration":362195,"Delta":18891634},{"NoteNumber":38,"Velocity":51,"Duration":1061806,"SoundDuration":1061806,"Delta":18891634},{"NoteNumber":50,"Velocity":51,"Duration":1061806,"SoundDuration":1061806,"Delta":18891634},{"NoteNumber":57,"Velocity":38,"Duration":179823,"SoundDuration":179823,"Delta":19074006},{"NoteNumber":54,"Velocity":38,"Duration":179823,"SoundDuration":179823,"Delta":19074006},{"NoteNumber":66,"Velocity":64,"Duration":352789,"SoundDuration":352789,"Delta":19253829},{"NoteNumber":57,"Velocity":39,"Duration":175270,"SoundDuration":175270,"Delta":19431348},{"NoteNumber":62,"Velocity":39,"Duration":175270,"SoundDuration":175270,"Delta":19431348},{"NoteNumber":71,"Velocity":68,"Duration":346820,"SoundDuration":346820,"Delta":19606619},{"NoteNumber":66,"Velocity":40,"Duration":173410,"SoundDuration":173410,"Delta":19780029},{"NoteNumber":62,"Velocity":40,"Duration":173410,"SoundDuration":173410,"Delta":19780029},{"NoteNumber":69,"Velocity":68,"Duration":346821,"SoundDuration":346821,"Delta":19953440},{"NoteNumber":36,"Velocity":47,"Duration":346821,"SoundDuration":346821,"Delta":19953440},{"NoteNumber":48,"Velocity":47,"Duration":346821,"SoundDuration":346821,"Delta":19953440},{"NoteNumber":66,"Velocity":40,"Duration":173410,"SoundDuration":173410,"Delta":20126850},{"NoteNumber":62,"Velocity":40,"Duration":173410,"SoundDuration":173410,"Delta":20126850},{"NoteNumber":67,"Velocity":68,"Duration":351405,"SoundDuration":351405,"Delta":20300261},{"NoteNumber":35,"Velocity":56,"Duration":1058602,"SoundDuration":1058602,"Delta":20300261},{"NoteNumber":47,"Velocity":56,"Duration":1058602,"SoundDuration":1058602,"Delta":20300261},{"NoteNumber":62,"Velocity":40,"Duration":176646,"SoundDuration":176646,"Delta":20475019},{"NoteNumber":55,"Velocity":40,"Duration":176646,"SoundDuration":176646,"Delta":20475019},{"NoteNumber":71,"Velocity":70,"Duration":360376,"SoundDuration":360376,"Delta":20651666},{"NoteNumber":62,"Velocity":42,"Duration":181270,"SoundDuration":181270,"Delta":20830772},{"NoteNumber":67,"Velocity":42,"Duration":181270,"SoundDuration":181270,"Delta":20830772},{"NoteNumber":76,"Velocity":74,"Duration":346820,"SoundDuration":346820,"Delta":21012043},{"NoteNumber":67,"Velocity":44,"Duration":173410,"SoundDuration":173410,"Delta":21185453},{"NoteNumber":64,"Velocity":44,"Duration":173410,"SoundDuration":173410,"Delta":21185453},{"NoteNumber":74,"Velocity":72,"Duration":346821,"SoundDuration":346821,"Delta":21358864},{"NoteNumber":34,"Velocity":43,"Duration":346821,"SoundDuration":346821,"Delta":21358864},{"NoteNumber":46,"Velocity":43,"Duration":346821,"SoundDuration":346821,"Delta":21358864},{"NoteNumber":67,"Velocity":41,"Duration":173410,"SoundDuration":173410,"Delta":21532274},{"NoteNumber":62,"Velocity":41,"Duration":173410,"SoundDuration":173410,"Delta":21532274},{"NoteNumber":73,"Velocity":63,"Duration":367623,"SoundDuration":367623,"Delta":21705685},{"NoteNumber":33,"Velocity":42,"Duration":367623,"SoundDuration":367623,"Delta":21705685},{"NoteNumber":45,"Velocity":42,"Duration":367623,"SoundDuration":367623,"Delta":21705685},{"NoteNumber":61,"Velocity":38,"Duration":185570,"SoundDuration":185570,"Delta":21887737},{"NoteNumber":67,"Velocity":38,"Duration":185570,"SoundDuration":185570,"Delta":21887737},{"NoteNumber":71,"Velocity":58,"Duration":379774,"SoundDuration":379774,"Delta":22073308},{"NoteNumber":35,"Velocity":40,"Duration":379774,"SoundDuration":379774,"Delta":22073308},{"NoteNumber":47,"Velocity":40,"Duration":379774,"SoundDuration":379774,"Delta":22073308},{"NoteNumber":62,"Velocity":38,"Duration":191289,"SoundDuration":191289,"Delta":22261794},{"NoteNumber":67,"Velocity":38,"Duration":191289,"SoundDuration":191289,"Delta":22261794},{"NoteNumber":69,"Velocity":53,"Duration":387097,"SoundDuration":387097,"Delta":22453083},{"NoteNumber":37,"Velocity":38,"Duration":387097,"SoundDuration":387097,"Delta":22453083},{"NoteNumber":49,"Velocity":38,"Duration":387097,"SoundDuration":387097,"Delta":22453083},{"NoteNumber":63,"Velocity":35,"Duration":193548,"SoundDuration":193548,"Delta":22646632},{"NoteNumber":67,"Velocity":35,"Duration":193548,"SoundDuration":193548,"Delta":22646632},{"NoteNumber":69,"Velocity":50,"Duration":402684,"SoundDuration":402684,"Delta":22840180},{"NoteNumber":36,"Velocity":38,"Duration":1515644,"SoundDuration":1515644,"Delta":22840180},{"NoteNumber":48,"Velocity":38,"Duration":1515644,"SoundDuration":1515644,"Delta":22840180},{"NoteNumber":67,"Velocity":29,"Duration":201342,"SoundDuration":201342,"Delta":23041522},{"NoteNumber":64,"Velocity":29,"Duration":201342,"SoundDuration":201342,"Delta":23041522},{"NoteNumber":70,"Velocity":52,"Duration":378303,"SoundDuration":378303,"Delta":23242865},{"NoteNumber":67,"Velocity":29,"Duration":185990,"SoundDuration":185990,"Delta":23435178},{"NoteNumber":64,"Velocity":29,"Duration":185990,"SoundDuration":185990,"Delta":23435178},{"NoteNumber":76,"Velocity":54,"Duration":379627,"SoundDuration":379627,"Delta":23621168},{"NoteNumber":67,"Velocity":31,"Duration":195578,"SoundDuration":195578,"Delta":23805217},{"NoteNumber":70,"Velocity":31,"Duration":195578,"SoundDuration":195578,"Delta":23805217},{"NoteNumber":81,"Velocity":57,"Duration":355029,"SoundDuration":355029,"Delta":24000795},{"NoteNumber":67,"Velocity":34,"Duration":177514,"SoundDuration":177514,"Delta":24178310},{"NoteNumber":70,"Velocity":34,"Duration":177514,"SoundDuration":177514,"Delta":24178310},{"NoteNumber":79,"Velocity":57,"Duration":355029,"SoundDuration":355029,"Delta":24355825},{"NoteNumber":52,"Velocity":43,"Duration":355029,"SoundDuration":355029,"Delta":24355825},{"NoteNumber":70,"Velocity":34,"Duration":177514,"SoundDuration":177514,"Delta":24533340},{"NoteNumber":67,"Velocity":34,"Duration":177514,"SoundDuration":177514,"Delta":24533340},{"NoteNumber":77,"Velocity":56,"Duration":369634,"SoundDuration":369634,"Delta":24710854},{"NoteNumber":48,"Velocity":45,"Duration":1432085,"SoundDuration":1432085,"Delta":24710854},{"NoteNumber":53,"Velocity":45,"Duration":369634,"SoundDuration":369634,"Delta":24710854},{"NoteNumber":69,"Velocity":32,"Duration":183487,"SoundDuration":183487,"Delta":24897001},{"NoteNumber":65,"Velocity":32,"Duration":183487,"SoundDuration":183487,"Delta":24897001},{"NoteNumber":72,"Velocity":53,"Duration":364777,"SoundDuration":364777,"Delta":25080488},{"NoteNumber":57,"Velocity":48,"Duration":364777,"SoundDuration":364777,"Delta":25080488},{"NoteNumber":65,"Velocity":30,"Duration":181850,"SoundDuration":181850,"Delta":25263415},{"NoteNumber":69,"Velocity":30,"Duration":181850,"SoundDuration":181850,"Delta":25263415},{"NoteNumber":62,"Velocity":51,"Duration":348836,"SoundDuration":348836,"Delta":25445266},{"NoteNumber":69,"Velocity":32,"Duration":174418,"SoundDuration":174418,"Delta":25619684},{"NoteNumber":65,"Velocity":32,"Duration":174418,"SoundDuration":174418,"Delta":25619684},{"NoteNumber":72,"Velocity":54,"Duration":87209,"SoundDuration":87209,"Delta":25794103},{"NoteNumber":60,"Velocity":50,"Duration":348836,"SoundDuration":348836,"Delta":25794103},{"NoteNumber":65,"Velocity":33,"Duration":174418,"SoundDuration":174418,"Delta":25968521},{"NoteNumber":69,"Velocity":33,"Duration":174418,"SoundDuration":174418,"Delta":25968521},{"NoteNumber":72,"Velocity":56,"Duration":174418,"SoundDuration":174418,"Delta":26142940},{"NoteNumber":48,"Velocity":43,"Duration":174418,"SoundDuration":174418,"Delta":26142940},{"NoteNumber":67,"Velocity":40,"Duration":87209,"SoundDuration":87209,"Delta":26317358},{"NoteNumber":64,"Velocity":40,"Duration":87209,"SoundDuration":87209,"Delta":26317358},{"NoteNumber":58,"Velocity":32,"Duration":87209,"SoundDuration":87209,"Delta":26317358},{"NoteNumber":62,"Velocity":32,"Duration":87209,"SoundDuration":87209,"Delta":26317358},{"NoteNumber":67,"Velocity":47,"Duration":174418,"SoundDuration":174418,"Delta":26491777},{"NoteNumber":64,"Velocity":47,"Duration":348836,"SoundDuration":348836,"Delta":26491777},{"NoteNumber":62,"Velocity":34,"Duration":697674,"SoundDuration":697674,"Delta":26491777},{"NoteNumber":58,"Velocity":34,"Duration":174418,"SoundDuration":174418,"Delta":26491777},{"NoteNumber":69,"Velocity":38,"Duration":174418,"SoundDuration":174418,"Delta":26666195},{"NoteNumber":57,"Velocity":32,"Duration":174418,"SoundDuration":174418,"Delta":26666195},{"NoteNumber":70,"Velocity":50,"Duration":348837,"SoundDuration":348837,"Delta":26840614},{"NoteNumber":55,"Velocity":43,"Duration":348837,"SoundDuration":348837,"Delta":26840614},{"NoteNumber":67,"Velocity":35,"Duration":174418,"SoundDuration":174418,"Delta":27015032},{"NoteNumber":64,"Velocity":35,"Duration":174418,"SoundDuration":174418,"Delta":27015032},{"NoteNumber":74,"Velocity":52,"Duration":348502,"SoundDuration":348502,"Delta":27189451},{"NoteNumber":52,"Velocity":37,"Duration":348502,"SoundDuration":348502,"Delta":27189451},{"NoteNumber":36,"Velocity":37,"Duration":348502,"SoundDuration":348502,"Delta":27189451},{"NoteNumber":60,"Velocity":36,"Duration":174084,"SoundDuration":174084,"Delta":27363869},{"NoteNumber":70,"Velocity":36,"Duration":174084,"SoundDuration":174084,"Delta":27363869},{"NoteNumber":72,"Velocity":51,"Duration":347502,"SoundDuration":347502,"Delta":27537954},{"NoteNumber":53,"Velocity":45,"Duration":701846,"SoundDuration":701846,"Delta":27537954},{"NoteNumber":41,"Velocity":45,"Duration":347502,"SoundDuration":347502,"Delta":27537954},{"NoteNumber":60,"Velocity":34,"Duration":174590,"SoundDuration":174590,"Delta":27710866},{"NoteNumber":69,"Velocity":34,"Duration":174590,"SoundDuration":174590,"Delta":27710866},{"NoteNumber":69,"Velocity":49,"Duration":354343,"SoundDuration":354343,"Delta":27885456},{"NoteNumber":45,"Velocity":40,"Duration":354343,"SoundDuration":354343,"Delta":27885456},{"NoteNumber":65,"Velocity":33,"Duration":178043,"SoundDuration":178043,"Delta":28061757},{"NoteNumber":60,"Velocity":33,"Duration":178043,"SoundDuration":178043,"Delta":28061757},{"NoteNumber":67,"Velocity":47,"Duration":361461,"SoundDuration":361461,"Delta":28239800},{"NoteNumber":52,"Velocity":39,"Duration":729559,"SoundDuration":729559,"Delta":28239800},{"NoteNumber":48,"Velocity":39,"Duration":729559,"SoundDuration":729559,"Delta":28239800},{"NoteNumber":60,"Velocity":33,"Duration":181637,"SoundDuration":181637,"Delta":28419623},{"NoteNumber":69,"Velocity":56,"Duration":368097,"SoundDuration":368097,"Delta":28601261},{"NoteNumber":64,"Velocity":34,"Duration":184048,"SoundDuration":184048,"Delta":28785310},{"NoteNumber":67,"Velocity":34,"Duration":184048,"SoundDuration":184048,"Delta":28785310},{"NoteNumber":70,"Velocity":60,"Duration":378303,"SoundDuration":378303,"Delta":28969359},{"NoteNumber":36,"Velocity":48,"Duration":1106775,"SoundDuration":1106775,"Delta":28969359},{"NoteNumber":48,"Velocity":48,"Duration":1106775,"SoundDuration":1106775,"Delta":28969359},{"NoteNumber":67,"Velocity":37,"Duration":185990,"SoundDuration":185990,"Delta":29161672},{"NoteNumber":64,"Velocity":37,"Duration":185990,"SoundDuration":185990,"Delta":29161672},{"NoteNumber":76,"Velocity":63,"Duration":373442,"SoundDuration":373442,"Delta":29347663},{"NoteNumber":67,"Velocity":40,"Duration":189393,"SoundDuration":189393,"Delta":29531712},{"NoteNumber":70,"Velocity":40,"Duration":189393,"SoundDuration":189393,"Delta":29531712},{"NoteNumber":81,"Velocity":67,"Duration":355029,"SoundDuration":355029,"Delta":29721106},{"NoteNumber":67,"Velocity":42,"Duration":177514,"SoundDuration":177514,"Delta":29898621},{"NoteNumber":70,"Velocity":42,"Duration":177514,"SoundDuration":177514,"Delta":29898621},{"NoteNumber":79,"Velocity":63,"Duration":355029,"SoundDuration":355029,"Delta":30076135},{"NoteNumber":37,"Velocity":39,"Duration":355029,"SoundDuration":355029,"Delta":30076135},{"NoteNumber":49,"Velocity":39,"Duration":355029,"SoundDuration":355029,"Delta":30076135},{"NoteNumber":70,"Velocity":40,"Duration":177514,"SoundDuration":177514,"Delta":30253650},{"NoteNumber":67,"Velocity":40,"Duration":177514,"SoundDuration":177514,"Delta":30253650},{"NoteNumber":78,"Velocity":64,"Duration":365853,"SoundDuration":365853,"Delta":30431165},{"NoteNumber":38,"Velocity":39,"Duration":365853,"SoundDuration":365853,"Delta":30431165},{"NoteNumber":50,"Velocity":39,"Duration":365853,"SoundDuration":365853,"Delta":30431165},{"NoteNumber":66,"Velocity":39,"Duration":182926,"SoundDuration":182926,"Delta":30614092},{"NoteNumber":69,"Velocity":39,"Duration":182926,"SoundDuration":182926,"Delta":30614092},{"NoteNumber":73,"Velocity":59,"Duration":352940,"SoundDuration":352940,"Delta":30797018},{"NoteNumber":40,"Velocity":38,"Duration":352940,"SoundDuration":352940,"Delta":30797018},{"NoteNumber":52,"Velocity":38,"Duration":352940,"SoundDuration":352940,"Delta":30797018},{"NoteNumber":67,"Velocity":39,"Duration":176470,"SoundDuration":176470,"Delta":30973489},{"NoteNumber":69,"Velocity":39,"Duration":176470,"SoundDuration":176470,"Delta":30973489},{"NoteNumber":76,"Velocity":63,"Duration":352941,"SoundDuration":352941,"Delta":31149959},{"NoteNumber":41,"Velocity":36,"Duration":352941,"SoundDuration":352941,"Delta":31149959},{"NoteNumber":53,"Velocity":36,"Duration":352941,"SoundDuration":352941,"Delta":31149959},{"NoteNumber":64,"Velocity":42,"Duration":176470,"SoundDuration":176470,"Delta":31326430},{"NoteNumber":69,"Velocity":42,"Duration":176470,"SoundDuration":176470,"Delta":31326430},{"NoteNumber":74,"Velocity":62,"Duration":352941,"SoundDuration":352941,"Delta":31502900},{"NoteNumber":42,"Velocity":35,"Duration":352941,"SoundDuration":352941,"Delta":31502900},{"NoteNumber":54,"Velocity":35,"Duration":352941,"SoundDuration":352941,"Delta":31502900},{"NoteNumber":62,"Velocity":39,"Duration":176470,"SoundDuration":176470,"Delta":31679371},{"NoteNumber":69,"Velocity":39,"Duration":176470,"SoundDuration":176470,"Delta":31679371},{"NoteNumber":71,"Velocity":62,"Duration":399999,"SoundDuration":399999,"Delta":31855841},{"NoteNumber":43,"Velocity":34,"Duration":399999,"SoundDuration":399999,"Delta":31855841},{"NoteNumber":55,"Velocity":34,"Duration":399999,"SoundDuration":399999,"Delta":31855841},{"NoteNumber":62,"Velocity":39,"Duration":199999,"SoundDuration":199999,"Delta":32055841},{"NoteNumber":67,"Velocity":39,"Duration":199999,"SoundDuration":199999,"Delta":32055841},{"NoteNumber":66,"Velocity":49,"Duration":389393,"SoundDuration":389393,"Delta":32255841},{"NoteNumber":45,"Velocity":23,"Duration":389393,"SoundDuration":389393,"Delta":32255841},{"NoteNumber":57,"Velocity":23,"Duration":389393,"SoundDuration":389393,"Delta":32255841},{"NoteNumber":60,"Velocity":31,"Duration":198310,"SoundDuration":198310,"Delta":32446924},{"NoteNumber":62,"Velocity":31,"Duration":198310,"SoundDuration":198310,"Delta":32446924},{"NoteNumber":69,"Velocity":52,"Duration":430649,"SoundDuration":430649,"Delta":32645235},{"NoteNumber":46,"Velocity":28,"Duration":430649,"SoundDuration":430649,"Delta":32645235},{"NoteNumber":58,"Velocity":28,"Duration":430649,"SoundDuration":430649,"Delta":32645235},{"NoteNumber":57,"Velocity":32,"Duration":216869,"SoundDuration":216869,"Delta":32859014},{"NoteNumber":62,"Velocity":32,"Duration":216869,"SoundDuration":216869,"Delta":32859014},{"NoteNumber":67,"Velocity":48,"Duration":442289,"SoundDuration":442289,"Delta":33075884},{"NoteNumber":47,"Velocity":22,"Duration":442289,"SoundDuration":442289,"Delta":33075884},{"NoteNumber":59,"Velocity":22,"Duration":442289,"SoundDuration":442289,"Delta":33075884},{"NoteNumber":55,"Velocity":31,"Duration":222774,"SoundDuration":222774,"Delta":33295398},{"NoteNumber":62,"Velocity":31,"Duration":222774,"SoundDuration":222774,"Delta":33295398},{"NoteNumber":66,"Velocity":45,"Duration":467774,"SoundDuration":467774,"Delta":33518173},{"NoteNumber":45,"Velocity":24,"Duration":2628751,"SoundDuration":2628751,"Delta":33518173},{"NoteNumber":57,"Velocity":30,"Duration":238437,"SoundDuration":238437,"Delta":33747510},{"NoteNumber":62,"Velocity":30,"Duration":238437,"SoundDuration":238437,"Delta":33747510},{"NoteNumber":64,"Velocity":39,"Duration":505545,"SoundDuration":505545,"Delta":33985948},{"NoteNumber":33,"Velocity":20,"Duration":505545,"SoundDuration":505545,"Delta":33985948},{"NoteNumber":55,"Velocity":28,"Duration":257922,"SoundDuration":257922,"Delta":34233571},{"NoteNumber":61,"Velocity":28,"Duration":257922,"SoundDuration":257922,"Delta":34233571},{"NoteNumber":62,"Velocity":38,"Duration":1266829,"SoundDuration":1266829,"Delta":34491494},{"NoteNumber":38,"Velocity":22,"Duration":1266829,"SoundDuration":1266829,"Delta":34491494},{"NoteNumber":54,"Velocity":22,"Duration":969243,"SoundDuration":969243,"Delta":34886230},{"NoteNumber":57,"Velocity":22,"Duration":969243,"SoundDuration":969243,"Delta":34886230},{"NoteNumber":68,"Velocity":59,"Duration":388601,"SoundDuration":388601,"Delta":35758323},{"NoteNumber":67,"Velocity":35,"Duration":194300,"SoundDuration":194300,"Delta":35952624},{"NoteNumber":64,"Velocity":35,"Duration":194300,"SoundDuration":194300,"Delta":35952624},{"NoteNumber":69,"Velocity":62,"Duration":369271,"SoundDuration":369271,"Delta":36146924},{"NoteNumber":33,"Velocity":51,"Duration":186340,"SoundDuration":186340,"Delta":36146924},{"NoteNumber":45,"Velocity":51,"Duration":186340,"SoundDuration":186340,"Delta":36146924},{"NoteNumber":64,"Velocity":35,"Duration":182931,"SoundDuration":182931,"Delta":36333265},{"NoteNumber":67,"Velocity":35,"Duration":182931,"SoundDuration":182931,"Delta":36333265},{"NoteNumber":73,"Velocity":64,"Duration":356119,"SoundDuration":356119,"Delta":36516196},{"NoteNumber":67,"Velocity":37,"Duration":176474,"SoundDuration":176474,"Delta":36695841},{"NoteNumber":69,"Velocity":37,"Duration":176474,"SoundDuration":176474,"Delta":36695841},{"NoteNumber":78,"Velocity":70,"Duration":348837,"SoundDuration":348837,"Delta":36872316},{"NoteNumber":67,"Velocity":40,"Duration":174418,"SoundDuration":174418,"Delta":37046734},{"NoteNumber":69,"Velocity":40,"Duration":174418,"SoundDuration":174418,"Delta":37046734},{"NoteNumber":76,"Velocity":68,"Duration":348836,"SoundDuration":348836,"Delta":37221153},{"NoteNumber":49,"Velocity":51,"Duration":348836,"SoundDuration":348836,"Delta":37221153},{"NoteNumber":67,"Velocity":40,"Duration":174418,"SoundDuration":174418,"Delta":37395571},{"NoteNumber":69,"Velocity":40,"Duration":174418,"SoundDuration":174418,"Delta":37395571},{"NoteNumber":74,"Velocity":66,"Duration":362202,"SoundDuration":362202,"Delta":37569990},{"NoteNumber":45,"Velocity":54,"Duration":1403446,"SoundDuration":1403446,"Delta":37569990},{"NoteNumber":50,"Velocity":54,"Duration":362202,"SoundDuration":362202,"Delta":37569990},{"NoteNumber":62,"Velocity":38,"Duration":179645,"SoundDuration":179645,"Delta":37752547},{"NoteNumber":66,"Velocity":38,"Duration":179645,"SoundDuration":179645,"Delta":37752547},{"NoteNumber":69,"Velocity":63,"Duration":351589,"SoundDuration":351589,"Delta":37932192},{"NoteNumber":54,"Velocity":58,"Duration":351589,"SoundDuration":351589,"Delta":37932192},{"NoteNumber":62,"Velocity":36,"Duration":174422,"SoundDuration":174422,"Delta":38109359},{"NoteNumber":66,"Velocity":36,"Duration":174422,"SoundDuration":174422,"Delta":38109359},{"NoteNumber":59,"Velocity":62,"Duration":344827,"SoundDuration":344827,"Delta":38283781},{"NoteNumber":62,"Velocity":38,"Duration":172413,"SoundDuration":172413,"Delta":38456195},{"NoteNumber":66,"Velocity":38,"Duration":172413,"SoundDuration":172413,"Delta":38456195},{"NoteNumber":69,"Velocity":64,"Duration":86206,"SoundDuration":86206,"Delta":38628609},{"NoteNumber":57,"Velocity":59,"Duration":344827,"SoundDuration":344827,"Delta":38628609},{"NoteNumber":62,"Velocity":39,"Duration":172413,"SoundDuration":172413,"Delta":38801022},{"NoteNumber":66,"Velocity":39,"Duration":172413,"SoundDuration":172413,"Delta":38801022},{"NoteNumber":69,"Velocity":67,"Duration":172413,"SoundDuration":172413,"Delta":38973436},{"NoteNumber":45,"Velocity":51,"Duration":172413,"SoundDuration":172413,"Delta":38973436},{"NoteNumber":61,"Velocity":48,"Duration":86206,"SoundDuration":86206,"Delta":39145850},{"NoteNumber":64,"Velocity":48,"Duration":86206,"SoundDuration":86206,"Delta":39145850},{"NoteNumber":55,"Velocity":38,"Duration":86206,"SoundDuration":86206,"Delta":39145850},{"NoteNumber":57,"Velocity":38,"Duration":86206,"SoundDuration":86206,"Delta":39145850},{"NoteNumber":61,"Velocity":56,"Duration":344827,"SoundDuration":344827,"Delta":39318264},{"NoteNumber":64,"Velocity":56,"Duration":172413,"SoundDuration":172413,"Delta":39318264},{"NoteNumber":55,"Velocity":41,"Duration":172413,"SoundDuration":172413,"Delta":39318264},{"NoteNumber":57,"Velocity":41,"Duration":689654,"SoundDuration":689654,"Delta":39318264},{"NoteNumber":66,"Velocity":45,"Duration":172413,"SoundDuration":172413,"Delta":39490677},{"NoteNumber":54,"Velocity":38,"Duration":172413,"SoundDuration":172413,"Delta":39490677},{"NoteNumber":67,"Velocity":59,"Duration":344827,"SoundDuration":344827,"Delta":39663091},{"NoteNumber":52,"Velocity":51,"Duration":344827,"SoundDuration":344827,"Delta":39663091},{"NoteNumber":61,"Velocity":42,"Duration":172413,"SoundDuration":172413,"Delta":39835505},{"NoteNumber":64,"Velocity":42,"Duration":172413,"SoundDuration":172413,"Delta":39835505},{"NoteNumber":71,"Velocity":59,"Duration":344827,"SoundDuration":344827,"Delta":40007919},{"NoteNumber":33,"Velocity":44,"Duration":344827,"SoundDuration":344827,"Delta":40007919},{"NoteNumber":45,"Velocity":44,"Duration":1584346,"SoundDuration":1584346,"Delta":40007919},{"NoteNumber":59,"Velocity":43,"Duration":172413,"SoundDuration":172413,"Delta":40180332},{"NoteNumber":67,"Velocity":43,"Duration":172413,"SoundDuration":172413,"Delta":40180332},{"NoteNumber":69,"Velocity":57,"Duration":344835,"SoundDuration":344835,"Delta":40352746},{"NoteNumber":38,"Velocity":52,"Duration":344835,"SoundDuration":344835,"Delta":40352746},{"NoteNumber":57,"Velocity":39,"Duration":173078,"SoundDuration":173078,"Delta":40524503},{"NoteNumber":66,"Velocity":39,"Duration":173078,"SoundDuration":173078,"Delta":40524503},{"NoteNumber":66,"Velocity":55,"Duration":351917,"SoundDuration":351917,"Delta":40697581},{"NoteNumber":42,"Velocity":49,"Duration":351917,"SoundDuration":351917,"Delta":40697581},{"NoteNumber":57,"Velocity":36,"Duration":176818,"SoundDuration":176818,"Delta":40872680},{"NoteNumber":62,"Velocity":36,"Duration":176818,"SoundDuration":176818,"Delta":40872680},{"NoteNumber":64,"Velocity":53,"Duration":359840,"SoundDuration":359840,"Delta":41049498},{"NoteNumber":45,"Velocity":45,"Duration":725693,"SoundDuration":725693,"Delta":41049498},{"NoteNumber":57,"Velocity":34,"Duration":180912,"SoundDuration":180912,"Delta":41228426},{"NoteNumber":61,"Velocity":34,"Duration":180912,"SoundDuration":180912,"Delta":41228426},{"NoteNumber":68,"Velocity":59,"Duration":365853,"SoundDuration":365853,"Delta":41409338},{"NoteNumber":64,"Velocity":40,"Duration":182926,"SoundDuration":182926,"Delta":41592265},{"NoteNumber":67,"Velocity":40,"Duration":182926,"SoundDuration":182926,"Delta":41592265},{"NoteNumber":33,"Velocity":53,"Duration":182926,"SoundDuration":182926,"Delta":41592265},{"NoteNumber":69,"Velocity":69,"Duration":719748,"SoundDuration":719748,"Delta":41775192},{"NoteNumber":45,"Velocity":53,"Duration":1421502,"SoundDuration":1421502,"Delta":41775192},{"NoteNumber":64,"Velocity":38,"Duration":180907,"SoundDuration":180907,"Delta":41957934},{"NoteNumber":67,"Velocity":38,"Duration":180907,"SoundDuration":180907,"Delta":41957934},{"NoteNumber":49,"Velocity":59,"Duration":356098,"SoundDuration":356098,"Delta":42138842},{"NoteNumber":55,"Velocity":40,"Duration":176992,"SoundDuration":176992,"Delta":42317948},{"NoteNumber":57,"Velocity":40,"Duration":176992,"SoundDuration":176992,"Delta":42317948},{"NoteNumber":54,"Velocity":63,"Duration":350876,"SoundDuration":350876,"Delta":42494940},{"NoteNumber":55,"Velocity":38,"Duration":175438,"SoundDuration":175438,"Delta":42670379},{"NoteNumber":57,"Velocity":38,"Duration":175438,"SoundDuration":175438,"Delta":42670379},{"NoteNumber":61,"Velocity":45,"Duration":350877,"SoundDuration":350877,"Delta":42845817},{"NoteNumber":52,"Velocity":61,"Duration":350877,"SoundDuration":350877,"Delta":42845817},{"NoteNumber":55,"Velocity":38,"Duration":175438,"SoundDuration":175438,"Delta":43021256},{"NoteNumber":57,"Velocity":38,"Duration":175438,"SoundDuration":175438,"Delta":43021256},{"NoteNumber":62,"Velocity":62,"Duration":357859,"SoundDuration":357859,"Delta":43196694},{"NoteNumber":38,"Velocity":51,"Duration":1059646,"SoundDuration":1059646,"Delta":43196694},{"NoteNumber":50,"Velocity":51,"Duration":1059646,"SoundDuration":1059646,"Delta":43196694},{"NoteNumber":57,"Velocity":38,"Duration":178219,"SoundDuration":178219,"Delta":43376335},{"NoteNumber":54,"Velocity":38,"Duration":178219,"SoundDuration":178219,"Delta":43376335},{"NoteNumber":66,"Velocity":64,"Duration":352949,"SoundDuration":352949,"Delta":43554554},{"NoteNumber":57,"Velocity":39,"Duration":175782,"SoundDuration":175782,"Delta":43731721},{"NoteNumber":62,"Velocity":39,"Duration":175782,"SoundDuration":175782,"Delta":43731721},{"NoteNumber":71,"Velocity":68,"Duration":348837,"SoundDuration":348837,"Delta":43907504},{"NoteNumber":66,"Velocity":40,"Duration":174418,"SoundDuration":174418,"Delta":44081922},{"NoteNumber":62,"Velocity":40,"Duration":174418,"SoundDuration":174418,"Delta":44081922},{"NoteNumber":69,"Velocity":68,"Duration":348836,"SoundDuration":348836,"Delta":44256341},{"NoteNumber":36,"Velocity":47,"Duration":348836,"SoundDuration":348836,"Delta":44256341},{"NoteNumber":48,"Velocity":47,"Duration":348836,"SoundDuration":348836,"Delta":44256341},{"NoteNumber":66,"Velocity":40,"Duration":174418,"SoundDuration":174418,"Delta":44430759},{"NoteNumber":62,"Velocity":40,"Duration":174418,"SoundDuration":174418,"Delta":44430759},{"NoteNumber":67,"Velocity":68,"Duration":351405,"SoundDuration":351405,"Delta":44605178},{"NoteNumber":35,"Velocity":56,"Duration":1058602,"SoundDuration":1058602,"Delta":44605178},{"NoteNumber":47,"Velocity":56,"Duration":1058602,"SoundDuration":1058602,"Delta":44605178},{"NoteNumber":62,"Velocity":40,"Duration":176646,"SoundDuration":176646,"Delta":44779936},{"NoteNumber":55,"Velocity":40,"Duration":176646,"SoundDuration":176646,"Delta":44779936},{"NoteNumber":71,"Velocity":70,"Duration":360376,"SoundDuration":360376,"Delta":44956583},{"NoteNumber":62,"Velocity":42,"Duration":181270,"SoundDuration":181270,"Delta":45135689},{"NoteNumber":67,"Velocity":42,"Duration":181270,"SoundDuration":181270,"Delta":45135689},{"NoteNumber":76,"Velocity":74,"Duration":346820,"SoundDuration":346820,"Delta":45316959},{"NoteNumber":67,"Velocity":44,"Duration":173410,"SoundDuration":173410,"Delta":45490370},{"NoteNumber":64,"Velocity":44,"Duration":173410,"SoundDuration":173410,"Delta":45490370},{"NoteNumber":74,"Velocity":72,"Duration":346820,"SoundDuration":346820,"Delta":45663780},{"NoteNumber":34,"Velocity":43,"Duration":346820,"SoundDuration":346820,"Delta":45663780},{"NoteNumber":46,"Velocity":43,"Duration":346820,"SoundDuration":346820,"Delta":45663780},{"NoteNumber":67,"Velocity":41,"Duration":173410,"SoundDuration":173410,"Delta":45837191},{"NoteNumber":62,"Velocity":41,"Duration":173410,"SoundDuration":173410,"Delta":45837191},{"NoteNumber":73,"Velocity":63,"Duration":367623,"SoundDuration":367623,"Delta":46010601},{"NoteNumber":33,"Velocity":42,"Duration":367623,"SoundDuration":367623,"Delta":46010601},{"NoteNumber":45,"Velocity":42,"Duration":367623,"SoundDuration":367623,"Delta":46010601},{"NoteNumber":61,"Velocity":38,"Duration":185570,"SoundDuration":185570,"Delta":46192654},{"NoteNumber":67,"Velocity":38,"Duration":185570,"SoundDuration":185570,"Delta":46192654},{"NoteNumber":71,"Velocity":58,"Duration":379774,"SoundDuration":379774,"Delta":46378225},{"NoteNumber":35,"Velocity":40,"Duration":379774,"SoundDuration":379774,"Delta":46378225},{"NoteNumber":47,"Velocity":40,"Duration":379774,"SoundDuration":379774,"Delta":46378225},{"NoteNumber":62,"Velocity":38,"Duration":191289,"SoundDuration":191289,"Delta":46566710},{"NoteNumber":67,"Velocity":38,"Duration":191289,"SoundDuration":191289,"Delta":46566710},{"NoteNumber":69,"Velocity":53,"Duration":387096,"SoundDuration":387096,"Delta":46758000},{"NoteNumber":37,"Velocity":38,"Duration":387096,"SoundDuration":387096,"Delta":46758000},{"NoteNumber":49,"Velocity":38,"Duration":387096,"SoundDuration":387096,"Delta":46758000},{"NoteNumber":63,"Velocity":35,"Duration":193548,"SoundDuration":193548,"Delta":46951548},{"NoteNumber":67,"Velocity":35,"Duration":193548,"SoundDuration":193548,"Delta":46951548},{"NoteNumber":69,"Velocity":50,"Duration":399999,"SoundDuration":399999,"Delta":47145097},{"NoteNumber":36,"Velocity":38,"Duration":1505089,"SoundDuration":1505089,"Delta":47145097},{"NoteNumber":48,"Velocity":38,"Duration":1505089,"SoundDuration":1505089,"Delta":47145097},{"NoteNumber":67,"Velocity":29,"Duration":199999,"SoundDuration":199999,"Delta":47345097},{"NoteNumber":64,"Velocity":29,"Duration":199999,"SoundDuration":199999,"Delta":47345097},{"NoteNumber":70,"Velocity":52,"Duration":376816,"SoundDuration":376816,"Delta":47545097},{"NoteNumber":67,"Velocity":29,"Duration":184503,"SoundDuration":184503,"Delta":47737410},{"NoteNumber":64,"Velocity":29,"Duration":184503,"SoundDuration":184503,"Delta":47737410},{"NoteNumber":76,"Velocity":54,"Duration":377396,"SoundDuration":377396,"Delta":47921913},{"NoteNumber":67,"Velocity":31,"Duration":195578,"SoundDuration":195578,"Delta":48103732},{"NoteNumber":70,"Velocity":31,"Duration":195578,"SoundDuration":195578,"Delta":48103732},{"NoteNumber":81,"Velocity":57,"Duration":350876,"SoundDuration":350876,"Delta":48299310},{"NoteNumber":67,"Velocity":34,"Duration":175438,"SoundDuration":175438,"Delta":48474748},{"NoteNumber":70,"Velocity":34,"Duration":175438,"SoundDuration":175438,"Delta":48474748},{"NoteNumber":79,"Velocity":57,"Duration":350877,"SoundDuration":350877,"Delta":48650187},{"NoteNumber":52,"Velocity":43,"Duration":350877,"SoundDuration":350877,"Delta":48650187},{"NoteNumber":70,"Velocity":34,"Duration":175438,"SoundDuration":175438,"Delta":48825625},{"NoteNumber":67,"Velocity":34,"Duration":175438,"SoundDuration":175438,"Delta":48825625},{"NoteNumber":77,"Velocity":56,"Duration":369634,"SoundDuration":369634,"Delta":49001064},{"NoteNumber":48,"Velocity":45,"Duration":1428045,"SoundDuration":1428045,"Delta":49001064},{"NoteNumber":53,"Velocity":45,"Duration":369634,"SoundDuration":369634,"Delta":49001064},{"NoteNumber":69,"Velocity":32,"Duration":183487,"SoundDuration":183487,"Delta":49187210},{"NoteNumber":65,"Velocity":32,"Duration":183487,"SoundDuration":183487,"Delta":49187210},{"NoteNumber":72,"Velocity":53,"Duration":360737,"SoundDuration":360737,"Delta":49370698},{"NoteNumber":57,"Velocity":49,"Duration":360737,"SoundDuration":360737,"Delta":49370698},{"NoteNumber":65,"Velocity":30,"Duration":180014,"SoundDuration":180014,"Delta":49551421},{"NoteNumber":69,"Velocity":30,"Duration":180014,"SoundDuration":180014,"Delta":49551421},{"NoteNumber":62,"Velocity":53,"Duration":348837,"SoundDuration":348837,"Delta":49731435},{"NoteNumber":69,"Velocity":32,"Duration":174418,"SoundDuration":174418,"Delta":49905854},{"NoteNumber":65,"Velocity":32,"Duration":174418,"SoundDuration":174418,"Delta":49905854},{"NoteNumber":72,"Velocity":54,"Duration":87209,"SoundDuration":87209,"Delta":50080272},{"NoteNumber":60,"Velocity":50,"Duration":348836,"SoundDuration":348836,"Delta":50080272},{"NoteNumber":65,"Velocity":33,"Duration":174418,"SoundDuration":174418,"Delta":50254691},{"NoteNumber":69,"Velocity":33,"Duration":174418,"SoundDuration":174418,"Delta":50254691},{"NoteNumber":72,"Velocity":56,"Duration":172413,"SoundDuration":172413,"Delta":50429109},{"NoteNumber":48,"Velocity":43,"Duration":172413,"SoundDuration":172413,"Delta":50429109},{"NoteNumber":67,"Velocity":40,"Duration":86206,"SoundDuration":86206,"Delta":50601523},{"NoteNumber":64,"Velocity":40,"Duration":86206,"SoundDuration":86206,"Delta":50601523},{"NoteNumber":58,"Velocity":32,"Duration":86206,"SoundDuration":86206,"Delta":50601523},{"NoteNumber":62,"Velocity":32,"Duration":86206,"SoundDuration":86206,"Delta":50601523},{"NoteNumber":67,"Velocity":47,"Duration":172413,"SoundDuration":172413,"Delta":50773937},{"NoteNumber":64,"Velocity":47,"Duration":344827,"SoundDuration":344827,"Delta":50773937},{"NoteNumber":62,"Velocity":34,"Duration":689655,"SoundDuration":689655,"Delta":50773937},{"NoteNumber":58,"Velocity":34,"Duration":172413,"SoundDuration":172413,"Delta":50773937},{"NoteNumber":69,"Velocity":38,"Duration":172413,"SoundDuration":172413,"Delta":50946350},{"NoteNumber":57,"Velocity":32,"Duration":172413,"SoundDuration":172413,"Delta":50946350},{"NoteNumber":70,"Velocity":50,"Duration":344827,"SoundDuration":344827,"Delta":51118764},{"NoteNumber":55,"Velocity":43,"Duration":344827,"SoundDuration":344827,"Delta":51118764},{"NoteNumber":67,"Velocity":35,"Duration":172413,"SoundDuration":172413,"Delta":51291178},{"NoteNumber":64,"Velocity":35,"Duration":172413,"SoundDuration":172413,"Delta":51291178},{"NoteNumber":74,"Velocity":52,"Duration":344827,"SoundDuration":344827,"Delta":51463592},{"NoteNumber":52,"Velocity":37,"Duration":344827,"SoundDuration":344827,"Delta":51463592},{"NoteNumber":36,"Velocity":37,"Duration":344827,"SoundDuration":344827,"Delta":51463592},{"NoteNumber":60,"Velocity":36,"Duration":172413,"SoundDuration":172413,"Delta":51636005},{"NoteNumber":70,"Velocity":36,"Duration":172413,"SoundDuration":172413,"Delta":51636005},{"NoteNumber":72,"Velocity":51,"Duration":348856,"SoundDuration":348856,"Delta":51808419},{"NoteNumber":53,"Velocity":45,"Duration":706020,"SoundDuration":706020,"Delta":51808419},{"NoteNumber":41,"Velocity":45,"Duration":348856,"SoundDuration":348856,"Delta":51808419},{"NoteNumber":60,"Velocity":34,"Duration":175442,"SoundDuration":175442,"Delta":51981833},{"NoteNumber":69,"Velocity":34,"Duration":175442,"SoundDuration":175442,"Delta":51981833},{"NoteNumber":69,"Velocity":49,"Duration":357163,"SoundDuration":357163,"Delta":52157276},{"NoteNumber":45,"Velocity":40,"Duration":357163,"SoundDuration":357163,"Delta":52157276},{"NoteNumber":65,"Velocity":33,"Duration":179645,"SoundDuration":179645,"Delta":52334795},{"NoteNumber":60,"Velocity":33,"Duration":179645,"SoundDuration":179645,"Delta":52334795},{"NoteNumber":67,"Velocity":47,"Duration":365499,"SoundDuration":365499,"Delta":52514440},{"NoteNumber":52,"Velocity":39,"Duration":733597,"SoundDuration":733597,"Delta":52514440},{"NoteNumber":48,"Velocity":39,"Duration":733597,"SoundDuration":733597,"Delta":52514440},{"NoteNumber":60,"Velocity":33,"Duration":183677,"SoundDuration":183677,"Delta":52696263},{"NoteNumber":69,"Velocity":56,"Duration":368098,"SoundDuration":368098,"Delta":52879940},{"NoteNumber":64,"Velocity":34,"Duration":184049,"SoundDuration":184049,"Delta":53063989},{"NoteNumber":67,"Velocity":34,"Duration":184049,"SoundDuration":184049,"Delta":53063989},{"NoteNumber":70,"Velocity":62,"Duration":378303,"SoundDuration":378303,"Delta":53248038},{"NoteNumber":36,"Velocity":48,"Duration":1106776,"SoundDuration":1106776,"Delta":53248038},{"NoteNumber":48,"Velocity":48,"Duration":1106776,"SoundDuration":1106776,"Delta":53248038},{"NoteNumber":67,"Velocity":37,"Duration":185990,"SoundDuration":185990,"Delta":53440351},{"NoteNumber":64,"Velocity":37,"Duration":185990,"SoundDuration":185990,"Delta":53440351},{"NoteNumber":76,"Velocity":65,"Duration":373443,"SoundDuration":373443,"Delta":53626341},{"NoteNumber":67,"Velocity":40,"Duration":189394,"SoundDuration":189394,"Delta":53810390},{"NoteNumber":70,"Velocity":40,"Duration":189394,"SoundDuration":189394,"Delta":53810390},{"NoteNumber":81,"Velocity":69,"Duration":355029,"SoundDuration":355029,"Delta":53999784},{"NoteNumber":67,"Velocity":42,"Duration":177514,"SoundDuration":177514,"Delta":54177299},{"NoteNumber":70,"Velocity":42,"Duration":177514,"SoundDuration":177514,"Delta":54177299},{"NoteNumber":79,"Velocity":63,"Duration":355029,"SoundDuration":355029,"Delta":54354814},{"NoteNumber":37,"Velocity":39,"Duration":355029,"SoundDuration":355029,"Delta":54354814},{"NoteNumber":49,"Velocity":39,"Duration":355029,"SoundDuration":355029,"Delta":54354814},{"NoteNumber":70,"Velocity":40,"Duration":177514,"SoundDuration":177514,"Delta":54532329},{"NoteNumber":67,"Velocity":40,"Duration":177514,"SoundDuration":177514,"Delta":54532329},{"NoteNumber":78,"Velocity":64,"Duration":365853,"SoundDuration":365853,"Delta":54709843},{"NoteNumber":38,"Velocity":39,"Duration":365853,"SoundDuration":365853,"Delta":54709843},{"NoteNumber":50,"Velocity":39,"Duration":365853,"SoundDuration":365853,"Delta":54709843},{"NoteNumber":66,"Velocity":39,"Duration":182926,"SoundDuration":182926,"Delta":54892770},{"NoteNumber":69,"Velocity":39,"Duration":182926,"SoundDuration":182926,"Delta":54892770},{"NoteNumber":73,"Velocity":59,"Duration":352941,"SoundDuration":352941,"Delta":55075697},{"NoteNumber":40,"Velocity":38,"Duration":352941,"SoundDuration":352941,"Delta":55075697},{"NoteNumber":52,"Velocity":38,"Duration":352941,"SoundDuration":352941,"Delta":55075697},{"NoteNumber":67,"Velocity":39,"Duration":176470,"SoundDuration":176470,"Delta":55252167},{"NoteNumber":69,"Velocity":39,"Duration":176470,"SoundDuration":176470,"Delta":55252167},{"NoteNumber":76,"Velocity":63,"Duration":352941,"SoundDuration":352941,"Delta":55428638},{"NoteNumber":41,"Velocity":36,"Duration":352941,"SoundDuration":352941,"Delta":55428638},{"NoteNumber":53,"Velocity":36,"Duration":352941,"SoundDuration":352941,"Delta":55428638},{"NoteNumber":64,"Velocity":42,"Duration":176470,"SoundDuration":176470,"Delta":55605108},{"NoteNumber":69,"Velocity":42,"Duration":176470,"SoundDuration":176470,"Delta":55605108},{"NoteNumber":74,"Velocity":62,"Duration":352941,"SoundDuration":352941,"Delta":55781579},{"NoteNumber":42,"Velocity":35,"Duration":352941,"SoundDuration":352941,"Delta":55781579},{"NoteNumber":54,"Velocity":35,"Duration":352941,"SoundDuration":352941,"Delta":55781579},{"NoteNumber":62,"Velocity":39,"Duration":176470,"SoundDuration":176470,"Delta":55958049},{"NoteNumber":69,"Velocity":39,"Duration":176470,"SoundDuration":176470,"Delta":55958049},{"NoteNumber":71,"Velocity":62,"Duration":399999,"SoundDuration":399999,"Delta":56134520},{"NoteNumber":43,"Velocity":34,"Duration":399999,"SoundDuration":399999,"Delta":56134520},{"NoteNumber":55,"Velocity":34,"Duration":399999,"SoundDuration":399999,"Delta":56134520},{"NoteNumber":62,"Velocity":39,"Duration":199999,"SoundDuration":199999,"Delta":56334520},{"NoteNumber":67,"Velocity":39,"Duration":199999,"SoundDuration":199999,"Delta":56334520},{"NoteNumber":66,"Velocity":49,"Duration":382165,"SoundDuration":382165,"Delta":56534520},{"NoteNumber":45,"Velocity":23,"Duration":382165,"SoundDuration":382165,"Delta":56534520},{"NoteNumber":57,"Velocity":23,"Duration":382165,"SoundDuration":382165,"Delta":56534520},{"NoteNumber":60,"Velocity":31,"Duration":191082,"SoundDuration":191082,"Delta":56725603},{"NoteNumber":62,"Velocity":31,"Duration":191082,"SoundDuration":191082,"Delta":56725603},{"NoteNumber":69,"Velocity":52,"Duration":443391,"SoundDuration":443391,"Delta":56916685},{"NoteNumber":46,"Velocity":28,"Duration":443391,"SoundDuration":443391,"Delta":56916685},{"NoteNumber":58,"Velocity":28,"Duration":443391,"SoundDuration":443391,"Delta":56916685},{"NoteNumber":57,"Velocity":32,"Duration":223608,"SoundDuration":223608,"Delta":57136468},{"NoteNumber":62,"Velocity":32,"Duration":223608,"SoundDuration":223608,"Delta":57136468},{"NoteNumber":67,"Velocity":48,"Duration":458353,"SoundDuration":458353,"Delta":57360077},{"NoteNumber":47,"Velocity":22,"Duration":458353,"SoundDuration":458353,"Delta":57360077},{"NoteNumber":59,"Velocity":22,"Duration":458353,"SoundDuration":458353,"Delta":57360077},{"NoteNumber":55,"Velocity":31,"Duration":231071,"SoundDuration":231071,"Delta":57587358},{"NoteNumber":62,"Velocity":31,"Duration":231071,"SoundDuration":231071,"Delta":57587358},{"NoteNumber":66,"Velocity":45,"Duration":504367,"SoundDuration":504367,"Delta":57818430},{"NoteNumber":45,"Velocity":24,"Duration":2622056,"SoundDuration":2622056,"Delta":57818430},{"NoteNumber":57,"Velocity":30,"Duration":256422,"SoundDuration":256422,"Delta":58066376},{"NoteNumber":62,"Velocity":30,"Duration":256422,"SoundDuration":256422,"Delta":58066376},{"NoteNumber":64,"Velocity":39,"Duration":538741,"SoundDuration":538741,"Delta":58322798},{"NoteNumber":33,"Velocity":20,"Duration":538741,"SoundDuration":538741,"Delta":58322798},{"NoteNumber":55,"Velocity":28,"Duration":273240,"SoundDuration":273240,"Delta":58588299},{"NoteNumber":61,"Velocity":28,"Duration":273240,"SoundDuration":273240,"Delta":58588299},{"NoteNumber":62,"Velocity":38,"Duration":1578946,"SoundDuration":1578946,"Delta":58861540},{"NoteNumber":38,"Velocity":22,"Duration":1578946,"SoundDuration":1578946,"Delta":58861540},{"NoteNumber":54,"Velocity":22,"Duration":1184210,"SoundDuration":1184210,"Delta":59256276},{"NoteNumber":57,"Velocity":22,"Duration":1184210,"SoundDuration":1184210,"Delta":59256276}],"license":{"name":"Creative Commons Attribution-ShareAlike 3.0 Germany","url":"http://creativecommons.org/licenses/by-sa/3.0/de/deed.en","text":"The MIDI, audio (MP3, OGG) and video files of Bernd Krueger are licensed under the cc-by-sa Germany License. This means that you can use and adapt the files, as long as you attribute the copyright holder.\n\nName: Bernd Krueger\nSource: http://www.piano-midi.de\n\nThe distribution or public playback of the files is only allowed under identical license conditions.\n\nThe scores are open source.","attribution":"MIDI files by Bernd Krueger (piano-midi.de)","attributionUrl":"http://www.piano-midi.de"}}