{"title":"Hasche-Mann","artist":"Schumann","durationMs":31357,"midiSha256":"23a5b9a524a7c1556df71b4c905ab581d5a13863f0f639befd8591f0e498e869","midiObject":[{"NoteNumber":66,"Velocity":70,"Duration":130434,"SoundDuration":130434,"Delta":0},{"NoteNumber":71,"Velocity":90,"Duration":519027,"SoundDuration":519027,"Delta":0},{"NoteNumber":47,"Velocity":80,"Duration":65217,"SoundDuration":65217,"Delta":0},{"NoteNumber":62,"Velocity":61,"Duration":130434,"SoundDuration":130434,"Delta":129348},{"NoteNumber":59,"Velocity":54,"Duration":65217,"SoundDuration":65217,"Delta":259783},{"NoteNumber":54,"Velocity":54,"Duration":65217,"SoundDuration":65217,"Delta":390218},{"NoteNumber":73,"Velocity":57,"Duration":114723,"SoundDuration":114723,"Delta":518070},{"NoteNumber":47,"Velocity":57,"Duration":57471,"SoundDuration":57471,"Delta":518070},{"NoteNumber":74,"Velocity":57,"Duration":57034,"SoundDuration":57034,"Delta":632794},{"NoteNumber":76,"Velocity":57,"Duration":56675,"SoundDuration":56675,"Delta":746646},{"NoteNumber":62,"Velocity":50,"Duration":56675,"SoundDuration":56675,"Delta":746646},{"NoteNumber":54,"Velocity":50,"Duration":56675,"SoundDuration":56675,"Delta":746646},{"NoteNumber":78,"Velocity":57,"Duration":56250,"SoundDuration":56250,"Delta":859783},{"NoteNumber":81,"Velocity":80,"Duration":57034,"SoundDuration":57034,"Delta":972073},{"NoteNumber":52,"Velocity":62,"Duration":57034,"SoundDuration":57034,"Delta":972073},{"NoteNumber":79,"Velocity":57,"Duration":57034,"SoundDuration":57034,"Delta":1086142},{"NoteNumber":78,"Velocity":57,"Duration":57034,"SoundDuration":57034,"Delta":1200210},{"NoteNumber":64,"Velocity":52,"Duration":57034,"SoundDuration":57034,"Delta":1200210},{"NoteNumber":59,"Velocity":52,"Duration":57034,"SoundDuration":57034,"Delta":1200210},{"NoteNumber":76,"Velocity":57,"Duration":57034,"SoundDuration":57034,"Delta":1314279},{"NoteNumber":79,"Velocity":79,"Duration":58593,"SoundDuration":58593,"Delta":1428347},{"NoteNumber":47,"Velocity":59,"Duration":58593,"SoundDuration":58593,"Delta":1428347},{"NoteNumber":78,"Velocity":57,"Duration":58593,"SoundDuration":58593,"Delta":1545535},{"NoteNumber":76,"Velocity":57,"Duration":58593,"SoundDuration":58593,"Delta":1662722},{"NoteNumber":62,"Velocity":52,"Duration":58593,"SoundDuration":58593,"Delta":1662722},{"NoteNumber":59,"Velocity":52,"Duration":58593,"SoundDuration":58593,"Delta":1662722},{"NoteNumber":74,"Velocity":57,"Duration":60240,"SoundDuration":60240,"Delta":1779910},{"NoteNumber":71,"Velocity":70,"Duration":130434,"SoundDuration":130434,"Delta":1900392},{"NoteNumber":76,"Velocity":90,"Duration":520161,"SoundDuration":520161,"Delta":1900392},{"NoteNumber":52,"Velocity":78,"Duration":130434,"SoundDuration":130434,"Delta":1900392},{"NoteNumber":67,"Velocity":61,"Duration":130434,"SoundDuration":130434,"Delta":2030826},{"NoteNumber":64,"Velocity":51,"Duration":65217,"SoundDuration":65217,"Delta":2161261},{"NoteNumber":59,"Velocity":52,"Duration":65217,"SoundDuration":65217,"Delta":2291696},{"NoteNumber":78,"Velocity":57,"Duration":109555,"SoundDuration":109555,"Delta":2420553},{"NoteNumber":52,"Velocity":57,"Duration":54744,"SoundDuration":54744,"Delta":2420553},{"NoteNumber":79,"Velocity":57,"Duration":54945,"SoundDuration":54945,"Delta":2530109},{"NoteNumber":81,"Velocity":57,"Duration":55214,"SoundDuration":55214,"Delta":2640133},{"NoteNumber":64,"Velocity":52,"Duration":55214,"SoundDuration":55214,"Delta":2640133},{"NoteNumber":67,"Velocity":52,"Duration":55214,"SoundDuration":55214,"Delta":2640133},{"NoteNumber":83,"Velocity":57,"Duration":55487,"SoundDuration":55487,"Delta":2750699},{"NoteNumber":86,"Velocity":86,"Duration":59055,"SoundDuration":59055,"Delta":2861810},{"NoteNumber":54,"Velocity":59,"Duration":59055,"SoundDuration":59055,"Delta":2861810},{"NoteNumber":85,"Velocity":57,"Duration":59055,"SoundDuration":59055,"Delta":2979921},{"NoteNumber":83,"Velocity":57,"Duration":59055,"SoundDuration":59055,"Delta":3098031},{"NoteNumber":64,"Velocity":50,"Duration":59055,"SoundDuration":59055,"Delta":3098031},{"NoteNumber":70,"Velocity":50,"Duration":59055,"SoundDuration":59055,"Delta":3098031},{"NoteNumber":82,"Velocity":57,"Duration":64102,"SoundDuration":64102,"Delta":3216141},{"NoteNumber":78,"Velocity":66,"Duration":119693,"SoundDuration":119693,"Delta":3344346},{"NoteNumber":83,"Velocity":66,"Duration":119693,"SoundDuration":119693,"Delta":3344346},{"NoteNumber":59,"Velocity":59,"Duration":59289,"SoundDuration":59289,"Delta":3344346},{"NoteNumber":74,"Velocity":57,"Duration":124584,"SoundDuration":124584,"Delta":3464040},{"NoteNumber":71,"Velocity":57,"Duration":64287,"SoundDuration":64287,"Delta":3588624},{"NoteNumber":66,"Velocity":57,"Duration":73529,"SoundDuration":73529,"Delta":3718510},{"NoteNumber":66,"Velocity":70,"Duration":130434,"SoundDuration":130434,"Delta":3862979},{"NoteNumber":71,"Velocity":90,"Duration":521595,"SoundDuration":521595,"Delta":3862979},{"NoteNumber":47,"Velocity":80,"Duration":65217,"SoundDuration":65217,"Delta":3862979},{"NoteNumber":62,"Velocity":61,"Duration":130434,"SoundDuration":130434,"Delta":3992327},{"NoteNumber":59,"Velocity":54,"Duration":65217,"SoundDuration":65217,"Delta":4122762},{"NoteNumber":54,"Velocity":54,"Duration":65217,"SoundDuration":65217,"Delta":4253197},{"NoteNumber":73,"Velocity":60,"Duration":113207,"SoundDuration":113207,"Delta":4383631},{"NoteNumber":47,"Velocity":57,"Duration":56603,"SoundDuration":56603,"Delta":4383631},{"NoteNumber":74,"Velocity":58,"Duration":56603,"SoundDuration":56603,"Delta":4496839},{"NoteNumber":76,"Velocity":60,"Duration":56603,"SoundDuration":56603,"Delta":4610046},{"NoteNumber":62,"Velocity":51,"Duration":56603,"SoundDuration":56603,"Delta":4610046},{"NoteNumber":54,"Velocity":51,"Duration":56603,"SoundDuration":56603,"Delta":4610046},{"NoteNumber":78,"Velocity":61,"Duration":56603,"SoundDuration":56603,"Delta":4723254},{"NoteNumber":81,"Velocity":84,"Duration":57034,"SoundDuration":57034,"Delta":4835356},{"NoteNumber":52,"Velocity":61,"Duration":57034,"SoundDuration":57034,"Delta":4835356},{"NoteNumber":79,"Velocity":55,"Duration":57034,"SoundDuration":57034,"Delta":4949424},{"NoteNumber":78,"Velocity":56,"Duration":57034,"SoundDuration":57034,"Delta":5063493},{"NoteNumber":64,"Velocity":54,"Duration":57034,"SoundDuration":57034,"Delta":5063493},{"NoteNumber":59,"Velocity":54,"Duration":57034,"SoundDuration":57034,"Delta":5063493},{"NoteNumber":76,"Velocity":57,"Duration":57034,"SoundDuration":57034,"Delta":5177561},{"NoteNumber":79,"Velocity":78,"Duration":58593,"SoundDuration":58593,"Delta":5291630},{"NoteNumber":47,"Velocity":64,"Duration":58593,"SoundDuration":58593,"Delta":5291630},{"NoteNumber":78,"Velocity":56,"Duration":58593,"SoundDuration":58593,"Delta":5408817},{"NoteNumber":76,"Velocity":58,"Duration":58593,"SoundDuration":58593,"Delta":5526005},{"NoteNumber":62,"Velocity":54,"Duration":58593,"SoundDuration":58593,"Delta":5526005},{"NoteNumber":59,"Velocity":54,"Duration":58593,"SoundDuration":58593,"Delta":5526005},{"NoteNumber":74,"Velocity":61,"Duration":61728,"SoundDuration":61728,"Delta":5643192},{"NoteNumber":71,"Velocity":70,"Duration":130434,"SoundDuration":130434,"Delta":5766649},{"NoteNumber":76,"Velocity":89,"Duration":518587,"SoundDuration":518587,"Delta":5766649},{"NoteNumber":52,"Velocity":78,"Duration":130434,"SoundDuration":130434,"Delta":5766649},{"NoteNumber":67,"Velocity":61,"Duration":130434,"SoundDuration":130434,"Delta":5897084},{"NoteNumber":64,"Velocity":51,"Duration":65217,"SoundDuration":65217,"Delta":6027518},{"NoteNumber":59,"Velocity":52,"Duration":65217,"SoundDuration":65217,"Delta":6157953},{"NoteNumber":78,"Velocity":55,"Duration":111732,"SoundDuration":111732,"Delta":6285236},{"NoteNumber":52,"Velocity":57,"Duration":55762,"SoundDuration":55762,"Delta":6285236},{"NoteNumber":79,"Velocity":56,"Duration":56109,"SoundDuration":56109,"Delta":6396968},{"NoteNumber":81,"Velocity":57,"Duration":56390,"SoundDuration":56390,"Delta":6509328},{"NoteNumber":64,"Velocity":52,"Duration":56390,"SoundDuration":56390,"Delta":6509328},{"NoteNumber":67,"Velocity":52,"Duration":56390,"SoundDuration":56390,"Delta":6509328},{"NoteNumber":83,"Velocity":58,"Duration":56746,"SoundDuration":56746,"Delta":6622323},{"NoteNumber":86,"Velocity":86,"Duration":60728,"SoundDuration":60728,"Delta":6735960},{"NoteNumber":54,"Velocity":60,"Duration":60728,"SoundDuration":60728,"Delta":6735960},{"NoteNumber":85,"Velocity":62,"Duration":60728,"SoundDuration":60728,"Delta":6857417},{"NoteNumber":83,"Velocity":61,"Duration":60728,"SoundDuration":60728,"Delta":6978875},{"NoteNumber":64,"Velocity":50,"Duration":60728,"SoundDuration":60728,"Delta":6978875},{"NoteNumber":70,"Velocity":50,"Duration":60728,"SoundDuration":60728,"Delta":6978875},{"NoteNumber":82,"Velocity":60,"Duration":64935,"SoundDuration":64935,"Delta":7100332},{"NoteNumber":78,"Velocity":66,"Duration":123087,"SoundDuration":123087,"Delta":7230203},{"NoteNumber":83,"Velocity":66,"Duration":123087,"SoundDuration":123087,"Delta":7230203},{"NoteNumber":59,"Velocity":57,"Duration":60584,"SoundDuration":60584,"Delta":7230203},{"NoteNumber":74,"Velocity":60,"Duration":129146,"SoundDuration":129146,"Delta":7353291},{"NoteNumber":71,"Velocity":58,"Duration":66866,"SoundDuration":66866,"Delta":7482437},{"NoteNumber":66,"Velocity":58,"Duration":81967,"SoundDuration":81967,"Delta":7617801},{"NoteNumber":74,"Velocity":70,"Duration":129310,"SoundDuration":129310,"Delta":7775247},{"NoteNumber":79,"Velocity":91,"Duration":517241,"SoundDuration":517241,"Delta":7775247},{"NoteNumber":59,"Velocity":74,"Duration":129310,"SoundDuration":129310,"Delta":7775247},{"NoteNumber":71,"Velocity":70,"Duration":129310,"SoundDuration":129310,"Delta":7904557},{"NoteNumber":67,"Velocity":48,"Duration":64655,"SoundDuration":64655,"Delta":8033867},{"NoteNumber":62,"Velocity":48,"Duration":64655,"SoundDuration":64655,"Delta":8163177},{"NoteNumber":69,"Velocity":52,"Duration":115682,"SoundDuration":115682,"Delta":8292488},{"NoteNumber":59,"Velocity":54,"Duration":57767,"SoundDuration":57767,"Delta":8292488},{"NoteNumber":71,"Velocity":56,"Duration":57914,"SoundDuration":57914,"Delta":8408170},{"NoteNumber":73,"Velocity":60,"Duration":57914,"SoundDuration":57914,"Delta":8524000},{"NoteNumber":67,"Velocity":49,"Duration":57914,"SoundDuration":57914,"Delta":8524000},{"NoteNumber":62,"Velocity":49,"Duration":57914,"SoundDuration":57914,"Delta":8524000},{"NoteNumber":74,"Velocity":64,"Duration":57915,"SoundDuration":57915,"Delta":8639830},{"NoteNumber":78,"Velocity":77,"Duration":57914,"SoundDuration":57914,"Delta":8755660},{"NoteNumber":57,"Velocity":60,"Duration":57914,"SoundDuration":57914,"Delta":8755660},{"NoteNumber":76,"Velocity":66,"Duration":57915,"SoundDuration":57915,"Delta":8871490},{"NoteNumber":74,"Velocity":65,"Duration":57914,"SoundDuration":57914,"Delta":8987320},{"NoteNumber":67,"Velocity":51,"Duration":57914,"SoundDuration":57914,"Delta":8987320},{"NoteNumber":60,"Velocity":51,"Duration":57914,"SoundDuration":57914,"Delta":8987320},{"NoteNumber":72,"Velocity":63,"Duration":57914,"SoundDuration":57914,"Delta":9103150},{"NoteNumber":71,"Velocity":62,"Duration":57107,"SoundDuration":57107,"Delta":9218035},{"NoteNumber":50,"Velocity":59,"Duration":57107,"SoundDuration":57107,"Delta":9218035},{"NoteNumber":69,"Velocity":61,"Duration":58979,"SoundDuration":58979,"Delta":9333208},{"NoteNumber":67,"Velocity":59,"Duration":61059,"SoundDuration":61059,"Delta":9452188},{"NoteNumber":60,"Velocity":49,"Duration":61059,"SoundDuration":61059,"Delta":9452188},{"NoteNumber":66,"Velocity":58,"Duration":69767,"SoundDuration":69767,"Delta":9575318},{"NoteNumber":64,"Velocity":68,"Duration":125000,"SoundDuration":125000,"Delta":9711517},{"NoteNumber":67,"Velocity":88,"Duration":500000,"SoundDuration":500000,"Delta":9711517},{"NoteNumber":59,"Velocity":69,"Duration":125000,"SoundDuration":125000,"Delta":9836517},{"NoteNumber":55,"Velocity":47,"Duration":62500,"SoundDuration":62500,"Delta":9961517},{"NoteNumber":52,"Velocity":47,"Duration":62500,"SoundDuration":62500,"Delta":10086517},{"NoteNumber":66,"Velocity":60,"Duration":116656,"SoundDuration":116656,"Delta":10211517},{"NoteNumber":47,"Velocity":54,"Duration":116656,"SoundDuration":116656,"Delta":10211517},{"NoteNumber":67,"Velocity":58,"Duration":58365,"SoundDuration":58365,"Delta":10328174},{"NoteNumber":69,"Velocity":62,"Duration":58593,"SoundDuration":58593,"Delta":10444905},{"NoteNumber":59,"Velocity":47,"Duration":58593,"SoundDuration":58593,"Delta":10444905},{"NoteNumber":55,"Velocity":47,"Duration":58593,"SoundDuration":58593,"Delta":10444905},{"NoteNumber":71,"Velocity":65,"Duration":58593,"SoundDuration":58593,"Delta":10562093},{"NoteNumber":74,"Velocity":76,"Duration":58746,"SoundDuration":58746,"Delta":10679357},{"NoteNumber":45,"Velocity":59,"Duration":58746,"SoundDuration":58746,"Delta":10679357},{"NoteNumber":72,"Velocity":66,"Duration":58214,"SoundDuration":58214,"Delta":10796621},{"NoteNumber":71,"Velocity":65,"Duration":57692,"SoundDuration":57692,"Delta":10912826},{"NoteNumber":60,"Velocity":48,"Duration":57692,"SoundDuration":57692,"Delta":10912826},{"NoteNumber":54,"Velocity":48,"Duration":57692,"SoundDuration":57692,"Delta":10912826},{"NoteNumber":69,"Velocity":63,"Duration":57252,"SoundDuration":57252,"Delta":11027916},{"NoteNumber":67,"Velocity":61,"Duration":58594,"SoundDuration":58594,"Delta":11143084},{"NoteNumber":47,"Velocity":58,"Duration":58594,"SoundDuration":58594,"Delta":11143084},{"NoteNumber":66,"Velocity":60,"Duration":60000,"SoundDuration":60000,"Delta":11260968},{"NoteNumber":64,"Velocity":58,"Duration":61476,"SoundDuration":61476,"Delta":11381698},{"NoteNumber":54,"Velocity":47,"Duration":61476,"SoundDuration":61476,"Delta":11381698},{"NoteNumber":57,"Velocity":47,"Duration":61476,"SoundDuration":61476,"Delta":11381698},{"NoteNumber":63,"Velocity":56,"Duration":63025,"SoundDuration":63025,"Delta":11505415},{"NoteNumber":60,"Velocity":56,"Duration":126141,"SoundDuration":126141,"Delta":11632272},{"NoteNumber":64,"Velocity":56,"Duration":505888,"SoundDuration":505888,"Delta":11632272},{"NoteNumber":55,"Velocity":54,"Duration":126582,"SoundDuration":126582,"Delta":11758414},{"NoteNumber":52,"Velocity":51,"Duration":126582,"SoundDuration":126582,"Delta":11884996},{"NoteNumber":48,"Velocity":51,"Duration":126582,"SoundDuration":126582,"Delta":12011578},{"NoteNumber":62,"Velocity":51,"Duration":253164,"SoundDuration":253164,"Delta":12138161},{"NoteNumber":36,"Velocity":56,"Duration":759493,"SoundDuration":759493,"Delta":12138161},{"NoteNumber":43,"Velocity":56,"Duration":759493,"SoundDuration":759493,"Delta":12138161},{"NoteNumber":64,"Velocity":52,"Duration":126582,"SoundDuration":126582,"Delta":12264743},{"NoteNumber":59,"Velocity":53,"Duration":253164,"SoundDuration":253164,"Delta":12391325},{"NoteNumber":65,"Velocity":53,"Duration":126582,"SoundDuration":126582,"Delta":12391325},{"NoteNumber":67,"Velocity":55,"Duration":126582,"SoundDuration":126582,"Delta":12517907},{"NoteNumber":60,"Velocity":56,"Duration":126582,"SoundDuration":126582,"Delta":12644490},{"NoteNumber":64,"Velocity":56,"Duration":506329,"SoundDuration":506329,"Delta":12644490},{"NoteNumber":55,"Velocity":53,"Duration":126582,"SoundDuration":126582,"Delta":12771072},{"NoteNumber":52,"Velocity":50,"Duration":126582,"SoundDuration":126582,"Delta":12897654},{"NoteNumber":48,"Velocity":50,"Duration":126582,"SoundDuration":126582,"Delta":13024236},{"NoteNumber":65,"Velocity":54,"Duration":248192,"SoundDuration":248192,"Delta":13150819},{"NoteNumber":36,"Velocity":56,"Duration":737914,"SoundDuration":737914,"Delta":13150819},{"NoteNumber":43,"Velocity":56,"Duration":737914,"SoundDuration":737914,"Delta":13150819},{"NoteNumber":67,"Velocity":57,"Duration":123796,"SoundDuration":123796,"Delta":13275214},{"NoteNumber":62,"Velocity":60,"Duration":245820,"SoundDuration":245820,"Delta":13399011},{"NoteNumber":69,"Velocity":60,"Duration":123203,"SoundDuration":123203,"Delta":13399011},{"NoteNumber":71,"Velocity":63,"Duration":122616,"SoundDuration":122616,"Delta":13522215},{"NoteNumber":67,"Velocity":66,"Duration":121951,"SoundDuration":121951,"Delta":13644831},{"NoteNumber":72,"Velocity":66,"Duration":499186,"SoundDuration":499186,"Delta":13644831},{"NoteNumber":64,"Velocity":56,"Duration":121951,"SoundDuration":121951,"Delta":13766782},{"NoteNumber":60,"Velocity":53,"Duration":121951,"SoundDuration":121951,"Delta":13888734},{"NoteNumber":55,"Velocity":54,"Duration":133333,"SoundDuration":133333,"Delta":14010685},{"NoteNumber":70,"Velocity":77,"Duration":1419492,"SoundDuration":1419492,"Delta":14144018},{"NoteNumber":76,"Velocity":77,"Duration":1419492,"SoundDuration":1419492,"Delta":14144018},{"NoteNumber":42,"Velocity":66,"Duration":1419492,"SoundDuration":1419492,"Delta":14144018},{"NoteNumber":54,"Velocity":66,"Duration":1419492,"SoundDuration":1419492,"Delta":14144018},{"NoteNumber":64,"Velocity":56,"Duration":117187,"SoundDuration":117187,"Delta":14261206},{"NoteNumber":56,"Velocity":50,"Duration":116279,"SoundDuration":116279,"Delta":14378393},{"NoteNumber":57,"Velocity":52,"Duration":116129,"SoundDuration":116129,"Delta":14494672},{"NoteNumber":58,"Velocity":56,"Duration":115384,"SoundDuration":115384,"Delta":14610802},{"NoteNumber":59,"Velocity":58,"Duration":115237,"SoundDuration":115237,"Delta":14726187},{"NoteNumber":60,"Velocity":60,"Duration":114503,"SoundDuration":114503,"Delta":14841424},{"NoteNumber":61,"Velocity":64,"Duration":114359,"SoundDuration":114359,"Delta":14955928},{"NoteNumber":62,"Velocity":67,"Duration":114948,"SoundDuration":114948,"Delta":15070287},{"NoteNumber":63,"Velocity":67,"Duration":117963,"SoundDuration":117963,"Delta":15185236},{"NoteNumber":64,"Velocity":69,"Duration":121139,"SoundDuration":121139,"Delta":15303200},{"NoteNumber":65,"Velocity":71,"Duration":139172,"SoundDuration":139172,"Delta":15424339},{"NoteNumber":66,"Velocity":70,"Duration":130434,"SoundDuration":130434,"Delta":15564598},{"NoteNumber":71,"Velocity":93,"Duration":521609,"SoundDuration":521609,"Delta":15564598},{"NoteNumber":62,"Velocity":61,"Duration":130434,"SoundDuration":130434,"Delta":15693946},{"NoteNumber":59,"Velocity":54,"Duration":65217,"SoundDuration":65217,"Delta":15824381},{"NoteNumber":54,"Velocity":54,"Duration":65217,"SoundDuration":65217,"Delta":15954815},{"NoteNumber":73,"Velocity":57,"Duration":114796,"SoundDuration":114796,"Delta":16085250},{"NoteNumber":47,"Velocity":57,"Duration":57471,"SoundDuration":57471,"Delta":16085250},{"NoteNumber":74,"Velocity":57,"Duration":57106,"SoundDuration":57106,"Delta":16200046},{"NoteNumber":76,"Velocity":57,"Duration":56746,"SoundDuration":56746,"Delta":16314043},{"NoteNumber":62,"Velocity":50,"Duration":56746,"SoundDuration":56746,"Delta":16314043},{"NoteNumber":54,"Velocity":50,"Duration":56746,"SoundDuration":56746,"Delta":16314043},{"NoteNumber":78,"Velocity":57,"Duration":56320,"SoundDuration":56320,"Delta":16427323},{"NoteNumber":81,"Velocity":78,"Duration":57034,"SoundDuration":57034,"Delta":16539753},{"NoteNumber":52,"Velocity":63,"Duration":57034,"SoundDuration":57034,"Delta":16539753},{"NoteNumber":79,"Velocity":57,"Duration":57034,"SoundDuration":57034,"Delta":16653822},{"NoteNumber":78,"Velocity":57,"Duration":57034,"SoundDuration":57034,"Delta":16767890},{"NoteNumber":64,"Velocity":52,"Duration":57034,"SoundDuration":57034,"Delta":16767890},{"NoteNumber":59,"Velocity":52,"Duration":57034,"SoundDuration":57034,"Delta":16767890},{"NoteNumber":76,"Velocity":57,"Duration":57034,"SoundDuration":57034,"Delta":16881959},{"NoteNumber":79,"Velocity":76,"Duration":58593,"SoundDuration":58593,"Delta":16996027},{"NoteNumber":47,"Velocity":59,"Duration":58593,"SoundDuration":58593,"Delta":16996027},{"NoteNumber":78,"Velocity":57,"Duration":58593,"SoundDuration":58593,"Delta":17113215},{"NoteNumber":76,"Velocity":57,"Duration":58593,"SoundDuration":58593,"Delta":17230402},{"NoteNumber":62,"Velocity":52,"Duration":58593,"SoundDuration":58593,"Delta":17230402},{"NoteNumber":59,"Velocity":52,"Duration":58593,"SoundDuration":58593,"Delta":17230402},{"NoteNumber":74,"Velocity":57,"Duration":60241,"SoundDuration":60241,"Delta":17347590},{"NoteNumber":71,"Velocity":70,"Duration":130434,"SoundDuration":130434,"Delta":17468072},{"NoteNumber":76,"Velocity":93,"Duration":520161,"SoundDuration":520161,"Delta":17468072},{"NoteNumber":52,"Velocity":78,"Duration":130434,"SoundDuration":130434,"Delta":17468072},{"NoteNumber":67,"Velocity":61,"Duration":130434,"SoundDuration":130434,"Delta":17598507},{"NoteNumber":64,"Velocity":51,"Duration":65217,"SoundDuration":65217,"Delta":17728941},{"NoteNumber":59,"Velocity":52,"Duration":65217,"SoundDuration":65217,"Delta":17859376},{"NoteNumber":78,"Velocity":57,"Duration":113207,"SoundDuration":113207,"Delta":17988233},{"NoteNumber":52,"Velocity":57,"Duration":56603,"SoundDuration":56603,"Delta":17988233},{"NoteNumber":79,"Velocity":57,"Duration":56603,"SoundDuration":56603,"Delta":18101441},{"NoteNumber":81,"Velocity":57,"Duration":56603,"SoundDuration":56603,"Delta":18214648},{"NoteNumber":67,"Velocity":52,"Duration":56603,"SoundDuration":56603,"Delta":18214648},{"NoteNumber":64,"Velocity":52,"Duration":56603,"SoundDuration":56603,"Delta":18214648},{"NoteNumber":83,"Velocity":57,"Duration":61475,"SoundDuration":61475,"Delta":18327856},{"NoteNumber":86,"Velocity":78,"Duration":59055,"SoundDuration":59055,"Delta":18448902},{"NoteNumber":54,"Velocity":58,"Duration":59055,"SoundDuration":59055,"Delta":18448902},{"NoteNumber":85,"Velocity":57,"Duration":59055,"SoundDuration":59055,"Delta":18567012},{"NoteNumber":83,"Velocity":57,"Duration":59055,"SoundDuration":59055,"Delta":18685122},{"NoteNumber":70,"Velocity":50,"Duration":59055,"SoundDuration":59055,"Delta":18685122},{"NoteNumber":64,"Velocity":50,"Duration":59055,"SoundDuration":59055,"Delta":18685122},{"NoteNumber":82,"Velocity":57,"Duration":62500,"SoundDuration":62500,"Delta":18803233},{"NoteNumber":78,"Velocity":66,"Duration":119693,"SoundDuration":119693,"Delta":18928233},{"NoteNumber":83,"Velocity":66,"Duration":119693,"SoundDuration":119693,"Delta":18928233},{"NoteNumber":59,"Velocity":57,"Duration":59289,"SoundDuration":59289,"Delta":18928233},{"NoteNumber":74,"Velocity":57,"Duration":124584,"SoundDuration":124584,"Delta":19047926},{"NoteNumber":71,"Velocity":57,"Duration":64287,"SoundDuration":64287,"Delta":19172510},{"NoteNumber":66,"Velocity":57,"Duration":78125,"SoundDuration":78125,"Delta":19302396},{"NoteNumber":74,"Velocity":70,"Duration":129310,"SoundDuration":129310,"Delta":19453438},{"NoteNumber":79,"Velocity":91,"Duration":517240,"SoundDuration":517240,"Delta":19453438},{"NoteNumber":59,"Velocity":74,"Duration":129310,"SoundDuration":129310,"Delta":19453438},{"NoteNumber":71,"Velocity":70,"Duration":129310,"SoundDuration":129310,"Delta":19582748},{"NoteNumber":67,"Velocity":48,"Duration":64655,"SoundDuration":64655,"Delta":19712059},{"NoteNumber":62,"Velocity":48,"Duration":64655,"SoundDuration":64655,"Delta":19841369},{"NoteNumber":69,"Velocity":52,"Duration":115682,"SoundDuration":115682,"Delta":19970679},{"NoteNumber":59,"Velocity":54,"Duration":57767,"SoundDuration":57767,"Delta":19970679},{"NoteNumber":71,"Velocity":56,"Duration":57915,"SoundDuration":57915,"Delta":20086361},{"NoteNumber":73,"Velocity":60,"Duration":57915,"SoundDuration":57915,"Delta":20202191},{"NoteNumber":67,"Velocity":49,"Duration":57915,"SoundDuration":57915,"Delta":20202191},{"NoteNumber":62,"Velocity":49,"Duration":57915,"SoundDuration":57915,"Delta":20202191},{"NoteNumber":74,"Velocity":64,"Duration":57914,"SoundDuration":57914,"Delta":20318021},{"NoteNumber":78,"Velocity":77,"Duration":57915,"SoundDuration":57915,"Delta":20433851},{"NoteNumber":57,"Velocity":60,"Duration":57915,"SoundDuration":57915,"Delta":20433851},{"NoteNumber":76,"Velocity":66,"Duration":57915,"SoundDuration":57915,"Delta":20549681},{"NoteNumber":74,"Velocity":65,"Duration":57915,"SoundDuration":57915,"Delta":20665511},{"NoteNumber":67,"Velocity":51,"Duration":57915,"SoundDuration":57915,"Delta":20665511},{"NoteNumber":60,"Velocity":51,"Duration":57915,"SoundDuration":57915,"Delta":20665511},{"NoteNumber":72,"Velocity":63,"Duration":57914,"SoundDuration":57914,"Delta":20781341},{"NoteNumber":71,"Velocity":62,"Duration":57107,"SoundDuration":57107,"Delta":20896226},{"NoteNumber":50,"Velocity":58,"Duration":57107,"SoundDuration":57107,"Delta":20896226},{"NoteNumber":69,"Velocity":61,"Duration":58979,"SoundDuration":58979,"Delta":21011400},{"NoteNumber":67,"Velocity":59,"Duration":61059,"SoundDuration":61059,"Delta":21130380},{"NoteNumber":60,"Velocity":49,"Duration":61059,"SoundDuration":61059,"Delta":21130380},{"NoteNumber":66,"Velocity":58,"Duration":69767,"SoundDuration":69767,"Delta":21253509},{"NoteNumber":64,"Velocity":68,"Duration":125000,"SoundDuration":125000,"Delta":21389709},{"NoteNumber":67,"Velocity":88,"Duration":497244,"SoundDuration":497244,"Delta":21389709},{"NoteNumber":59,"Velocity":69,"Duration":125000,"SoundDuration":125000,"Delta":21514709},{"NoteNumber":55,"Velocity":47,"Duration":62500,"SoundDuration":62500,"Delta":21639709},{"NoteNumber":52,"Velocity":47,"Duration":62500,"SoundDuration":62500,"Delta":21764709},{"NoteNumber":66,"Velocity":60,"Duration":116429,"SoundDuration":116429,"Delta":21886953},{"NoteNumber":47,"Velocity":54,"Duration":58139,"SoundDuration":58139,"Delta":21886953},{"NoteNumber":67,"Velocity":58,"Duration":58441,"SoundDuration":58441,"Delta":22003383},{"NoteNumber":69,"Velocity":62,"Duration":58823,"SoundDuration":58823,"Delta":22120419},{"NoteNumber":59,"Velocity":47,"Duration":58823,"SoundDuration":58823,"Delta":22120419},{"NoteNumber":55,"Velocity":47,"Duration":58823,"SoundDuration":58823,"Delta":22120419},{"NoteNumber":71,"Velocity":65,"Duration":59132,"SoundDuration":59132,"Delta":22238220},{"NoteNumber":74,"Velocity":80,"Duration":59213,"SoundDuration":59213,"Delta":22356642},{"NoteNumber":45,"Velocity":59,"Duration":59213,"SoundDuration":59213,"Delta":22356642},{"NoteNumber":72,"Velocity":66,"Duration":58214,"SoundDuration":58214,"Delta":22474373},{"NoteNumber":71,"Velocity":65,"Duration":57692,"SoundDuration":57692,"Delta":22590578},{"NoteNumber":60,"Velocity":48,"Duration":57692,"SoundDuration":57692,"Delta":22590578},{"NoteNumber":54,"Velocity":48,"Duration":57692,"SoundDuration":57692,"Delta":22590578},{"NoteNumber":69,"Velocity":63,"Duration":57252,"SoundDuration":57252,"Delta":22705668},{"NoteNumber":67,"Velocity":61,"Duration":58594,"SoundDuration":58594,"Delta":22820836},{"NoteNumber":47,"Velocity":58,"Duration":58594,"SoundDuration":58594,"Delta":22820836},{"NoteNumber":66,"Velocity":60,"Duration":60000,"SoundDuration":60000,"Delta":22938720},{"NoteNumber":64,"Velocity":58,"Duration":61476,"SoundDuration":61476,"Delta":23059450},{"NoteNumber":54,"Velocity":47,"Duration":61476,"SoundDuration":61476,"Delta":23059450},{"NoteNumber":57,"Velocity":47,"Duration":61476,"SoundDuration":61476,"Delta":23059450},{"NoteNumber":63,"Velocity":56,"Duration":63025,"SoundDuration":63025,"Delta":23183167},{"NoteNumber":60,"Velocity":56,"Duration":126142,"SoundDuration":126142,"Delta":23310024},{"NoteNumber":64,"Velocity":56,"Duration":505888,"SoundDuration":505888,"Delta":23310024},{"NoteNumber":55,"Velocity":54,"Duration":126582,"SoundDuration":126582,"Delta":23436166},{"NoteNumber":52,"Velocity":51,"Duration":126582,"SoundDuration":126582,"Delta":23562748},{"NoteNumber":48,"Velocity":51,"Duration":126582,"SoundDuration":126582,"Delta":23689330},{"NoteNumber":62,"Velocity":51,"Duration":253164,"SoundDuration":253164,"Delta":23815912},{"NoteNumber":36,"Velocity":56,"Duration":759493,"SoundDuration":759493,"Delta":23815912},{"NoteNumber":43,"Velocity":56,"Duration":759493,"SoundDuration":759493,"Delta":23815912},{"NoteNumber":64,"Velocity":52,"Duration":126582,"SoundDuration":126582,"Delta":23942495},{"NoteNumber":59,"Velocity":53,"Duration":253164,"SoundDuration":253164,"Delta":24069077},{"NoteNumber":65,"Velocity":53,"Duration":126582,"SoundDuration":126582,"Delta":24069077},{"NoteNumber":67,"Velocity":55,"Duration":126582,"SoundDuration":126582,"Delta":24195659},{"NoteNumber":60,"Velocity":56,"Duration":126582,"SoundDuration":126582,"Delta":24322241},{"NoteNumber":64,"Velocity":56,"Duration":506328,"SoundDuration":506328,"Delta":24322241},{"NoteNumber":55,"Velocity":53,"Duration":126582,"SoundDuration":126582,"Delta":24448824},{"NoteNumber":52,"Velocity":50,"Duration":126582,"SoundDuration":126582,"Delta":24575406},{"NoteNumber":48,"Velocity":50,"Duration":126582,"SoundDuration":126582,"Delta":24701988},{"NoteNumber":65,"Velocity":54,"Duration":248192,"SoundDuration":248192,"Delta":24828570},{"NoteNumber":36,"Velocity":56,"Duration":737914,"SoundDuration":737914,"Delta":24828570},{"NoteNumber":43,"Velocity":56,"Duration":737914,"SoundDuration":737914,"Delta":24828570},{"NoteNumber":67,"Velocity":57,"Duration":123796,"SoundDuration":123796,"Delta":24952966},{"NoteNumber":62,"Velocity":60,"Duration":245819,"SoundDuration":245819,"Delta":25076763},{"NoteNumber":69,"Velocity":60,"Duration":123203,"SoundDuration":123203,"Delta":25076763},{"NoteNumber":71,"Velocity":63,"Duration":122616,"SoundDuration":122616,"Delta":25199967},{"NoteNumber":67,"Velocity":66,"Duration":121951,"SoundDuration":121951,"Delta":25322583},{"NoteNumber":72,"Velocity":66,"Duration":497126,"SoundDuration":497126,"Delta":25322583},{"NoteNumber":64,"Velocity":56,"Duration":121951,"SoundDuration":121951,"Delta":25444534},{"NoteNumber":60,"Velocity":53,"Duration":121951,"SoundDuration":121951,"Delta":25566485},{"NoteNumber":55,"Velocity":54,"Duration":131272,"SoundDuration":131272,"Delta":25688437},{"NoteNumber":70,"Velocity":77,"Duration":1419370,"SoundDuration":1419370,"Delta":25819709},{"NoteNumber":76,"Velocity":77,"Duration":1419370,"SoundDuration":1419370,"Delta":25819709},{"NoteNumber":42,"Velocity":66,"Duration":1419370,"SoundDuration":1419370,"Delta":25819709},{"NoteNumber":54,"Velocity":66,"Duration":1419370,"SoundDuration":1419370,"Delta":25819709},{"NoteNumber":64,"Velocity":56,"Duration":119365,"SoundDuration":119365,"Delta":25940354},{"NoteNumber":56,"Velocity":50,"Duration":117802,"SoundDuration":117802,"Delta":26059719},{"NoteNumber":57,"Velocity":52,"Duration":116581,"SoundDuration":116581,"Delta":26177522},{"NoteNumber":58,"Velocity":56,"Duration":115384,"SoundDuration":115384,"Delta":26294104},{"NoteNumber":59,"Velocity":58,"Duration":114650,"SoundDuration":114650,"Delta":26409488},{"NoteNumber":60,"Velocity":60,"Duration":113636,"SoundDuration":113636,"Delta":26524139},{"NoteNumber":61,"Velocity":64,"Duration":112641,"SoundDuration":112641,"Delta":26637775},{"NoteNumber":62,"Velocity":67,"Duration":112369,"SoundDuration":112369,"Delta":26750417},{"NoteNumber":63,"Velocity":68,"Duration":116290,"SoundDuration":116290,"Delta":26862786},{"NoteNumber":64,"Velocity":69,"Duration":120830,"SoundDuration":120830,"Delta":26979077},{"NoteNumber":65,"Velocity":71,"Duration":139172,"SoundDuration":139172,"Delta":27099907},{"NoteNumber":66,"Velocity":70,"Duration":130434,"SoundDuration":130434,"Delta":27240166},{"NoteNumber":71,"Velocity":96,"Duration":521613,"SoundDuration":521613,"Delta":27240166},{"NoteNumber":62,"Velocity":61,"Duration":130434,"SoundDuration":130434,"Delta":27369514},{"NoteNumber":59,"Velocity":54,"Duration":65217,"SoundDuration":65217,"Delta":27499949},{"NoteNumber":54,"Velocity":54,"Duration":65217,"SoundDuration":65217,"Delta":27630383},{"NoteNumber":73,"Velocity":57,"Duration":115163,"SoundDuration":115163,"Delta":27760818},{"NoteNumber":47,"Velocity":57,"Duration":57692,"SoundDuration":57692,"Delta":27760818},{"NoteNumber":74,"Velocity":57,"Duration":57251,"SoundDuration":57251,"Delta":27875982},{"NoteNumber":76,"Velocity":57,"Duration":56818,"SoundDuration":56818,"Delta":27990268},{"NoteNumber":62,"Velocity":50,"Duration":56818,"SoundDuration":56818,"Delta":27990268},{"NoteNumber":54,"Velocity":50,"Duration":56818,"SoundDuration":56818,"Delta":27990268},{"NoteNumber":78,"Velocity":57,"Duration":56391,"SoundDuration":56391,"Delta":28103690},{"NoteNumber":81,"Velocity":76,"Duration":57034,"SoundDuration":57034,"Delta":28216190},{"NoteNumber":52,"Velocity":61,"Duration":57034,"SoundDuration":57034,"Delta":28216190},{"NoteNumber":79,"Velocity":57,"Duration":57034,"SoundDuration":57034,"Delta":28330259},{"NoteNumber":78,"Velocity":57,"Duration":57034,"SoundDuration":57034,"Delta":28444327},{"NoteNumber":64,"Velocity":52,"Duration":57034,"SoundDuration":57034,"Delta":28444327},{"NoteNumber":59,"Velocity":52,"Duration":57034,"SoundDuration":57034,"Delta":28444327},{"NoteNumber":76,"Velocity":57,"Duration":57034,"SoundDuration":57034,"Delta":28558396},{"NoteNumber":79,"Velocity":73,"Duration":58593,"SoundDuration":58593,"Delta":28672464},{"NoteNumber":47,"Velocity":58,"Duration":58593,"SoundDuration":58593,"Delta":28672464},{"NoteNumber":78,"Velocity":57,"Duration":58593,"SoundDuration":58593,"Delta":28789652},{"NoteNumber":76,"Velocity":57,"Duration":58593,"SoundDuration":58593,"Delta":28906839},{"NoteNumber":62,"Velocity":52,"Duration":58593,"SoundDuration":58593,"Delta":28906839},{"NoteNumber":59,"Velocity":52,"Duration":58593,"SoundDuration":58593,"Delta":28906839},{"NoteNumber":74,"Velocity":57,"Duration":60241,"SoundDuration":60241,"Delta":29024027},{"NoteNumber":71,"Velocity":70,"Duration":130434,"SoundDuration":130434,"Delta":29144509},{"NoteNumber":76,"Velocity":93,"Duration":521739,"SoundDuration":521739,"Delta":29144509},{"NoteNumber":52,"Velocity":78,"Duration":130434,"SoundDuration":130434,"Delta":29144509},{"NoteNumber":67,"Velocity":61,"Duration":130434,"SoundDuration":130434,"Delta":29274944},{"NoteNumber":64,"Velocity":51,"Duration":65217,"SoundDuration":65217,"Delta":29405378},{"NoteNumber":59,"Velocity":52,"Duration":65217,"SoundDuration":65217,"Delta":29535813},{"NoteNumber":78,"Velocity":57,"Duration":128027,"SoundDuration":128027,"Delta":29666248},{"NoteNumber":52,"Velocity":57,"Duration":63649,"SoundDuration":63649,"Delta":29666248},{"NoteNumber":79,"Velocity":57,"Duration":65123,"SoundDuration":65123,"Delta":29794276},{"NoteNumber":81,"Velocity":57,"Duration":66667,"SoundDuration":66667,"Delta":29925189},{"NoteNumber":67,"Velocity":52,"Duration":66667,"SoundDuration":66667,"Delta":29925189},{"NoteNumber":64,"Velocity":52,"Duration":66667,"SoundDuration":66667,"Delta":29925189},{"NoteNumber":83,"Velocity":57,"Duration":68182,"SoundDuration":68182,"Delta":30059223},{"NoteNumber":86,"Velocity":67,"Duration":72815,"SoundDuration":72815,"Delta":30196531},{"NoteNumber":54,"Velocity":49,"Duration":72815,"SoundDuration":72815,"Delta":30196531},{"NoteNumber":85,"Velocity":53,"Duration":72815,"SoundDuration":72815,"Delta":30342162},{"NoteNumber":83,"Velocity":47,"Duration":74999,"SoundDuration":74999,"Delta":30487793},{"NoteNumber":70,"Velocity":36,"Duration":74999,"SoundDuration":74999,"Delta":30487793},{"NoteNumber":64,"Velocity":36,"Duration":74999,"SoundDuration":74999,"Delta":30487793},{"NoteNumber":82,"Velocity":47,"Duration":120000,"SoundDuration":120000,"Delta":30637793},{"NoteNumber":83,"Velocity":53,"Duration":480000,"SoundDuration":480000,"Delta":30877793},{"NoteNumber":71,"Velocity":40,"Duration":480000,"SoundDuration":480000,"Delta":30877793},{"NoteNumber":62,"Velocity":40,"Duration":480000,"SoundDuration":480000,"Delta":30877793},{"NoteNumber":59,"Velocity":40,"Duration":480000,"SoundDuration":480000,"Delta":30877793}],"license":{"name":"Creative Commons Attribution-ShareAlike 3.0 Germany","url":"http://creativecommons.org/licenses/by-sa/3.0/de/deed.en","text":"The MIDI, audio (MP3, OGG) and video files of Bernd Krueger are licensed under the cc-by-sa Germany License. This means that you can use and adapt the files, as long as you attribute the copyright holder.\n\nName: Bernd Krueger\nSource: http://www.piano-midi.de\n\nThe distribution or public playback of the files is only allowed under identical license conditions.\n\nThe scores are open source.","attribution":"MIDI files by Bernd Krueger (piano-midi.de)","attributionUrl":"http://www.piano-midi.de"}}