{"title":"Kinderszenen Opus 15","artist":"Schumann","durationMs":40039,"midiSha256":"7e0e3a0c98bdfddf2a941d443e8cadcac3c194a33cbf6c1822282a71ea2022c7","midiObject":[{"NoteNumber":67,"Velocity":45,"Duration":315789,"SoundDuration":315789,"Delta":0},{"NoteNumber":71,"Velocity":51,"Duration":628947,"SoundDuration":628947,"Delta":0},{"NoteNumber":57,"Velocity":46,"Duration":631140,"SoundDuration":631140,"Delta":0},{"NoteNumber":64,"Velocity":40,"Duration":315789,"SoundDuration":315789,"Delta":313158},{"NoteNumber":79,"Velocity":55,"Duration":516975,"SoundDuration":516975,"Delta":628948},{"NoteNumber":71,"Velocity":36,"Duration":261638,"SoundDuration":261638,"Delta":628948},{"NoteNumber":67,"Velocity":36,"Duration":255336,"SoundDuration":255336,"Delta":890586},{"NoteNumber":70,"Velocity":45,"Duration":243902,"SoundDuration":243902,"Delta":1145923},{"NoteNumber":78,"Velocity":51,"Duration":487805,"SoundDuration":487805,"Delta":1145923},{"NoteNumber":61,"Velocity":46,"Duration":487805,"SoundDuration":487805,"Delta":1145923},{"NoteNumber":67,"Velocity":42,"Duration":243902,"SoundDuration":243902,"Delta":1389825},{"NoteNumber":76,"Velocity":50,"Duration":487805,"SoundDuration":487805,"Delta":1633728},{"NoteNumber":69,"Velocity":34,"Duration":243902,"SoundDuration":243902,"Delta":1633728},{"NoteNumber":67,"Velocity":34,"Duration":243902,"SoundDuration":243902,"Delta":1877630},{"NoteNumber":69,"Velocity":45,"Duration":283018,"SoundDuration":283018,"Delta":2121533},{"NoteNumber":74,"Velocity":48,"Duration":566037,"SoundDuration":566037,"Delta":2121533},{"NoteNumber":62,"Velocity":44,"Duration":566037,"SoundDuration":566037,"Delta":2121533},{"NoteNumber":66,"Velocity":35,"Duration":283018,"SoundDuration":283018,"Delta":2404551},{"NoteNumber":68,"Velocity":37,"Duration":535745,"SoundDuration":535745,"Delta":2687570},{"NoteNumber":71,"Velocity":44,"Duration":535745,"SoundDuration":535745,"Delta":2687570},{"NoteNumber":65,"Velocity":29,"Duration":265486,"SoundDuration":265486,"Delta":2687570},{"NoteNumber":62,"Velocity":29,"Duration":270258,"SoundDuration":270258,"Delta":2953057},{"NoteNumber":69,"Velocity":35,"Duration":295088,"SoundDuration":295088,"Delta":3223315},{"NoteNumber":73,"Velocity":39,"Duration":1206385,"SoundDuration":1206385,"Delta":3223315},{"NoteNumber":57,"Velocity":32,"Duration":594098,"SoundDuration":594098,"Delta":3223315},{"NoteNumber":64,"Velocity":28,"Duration":299009,"SoundDuration":299009,"Delta":3518404},{"NoteNumber":61,"Velocity":25,"Duration":304060,"SoundDuration":304060,"Delta":3817414},{"NoteNumber":57,"Velocity":25,"Duration":308226,"SoundDuration":308226,"Delta":4121475},{"NoteNumber":67,"Velocity":46,"Duration":315789,"SoundDuration":315789,"Delta":4429701},{"NoteNumber":71,"Velocity":46,"Duration":631579,"SoundDuration":631579,"Delta":4429701},{"NoteNumber":45,"Velocity":38,"Duration":631579,"SoundDuration":631579,"Delta":4429701},{"NoteNumber":64,"Velocity":35,"Duration":315789,"SoundDuration":315789,"Delta":4745491},{"NoteNumber":79,"Velocity":54,"Duration":516975,"SoundDuration":516975,"Delta":5061280},{"NoteNumber":71,"Velocity":33,"Duration":261638,"SoundDuration":261638,"Delta":5061280},{"NoteNumber":67,"Velocity":35,"Duration":255336,"SoundDuration":255336,"Delta":5322919},{"NoteNumber":70,"Velocity":49,"Duration":243902,"SoundDuration":243902,"Delta":5578255},{"NoteNumber":78,"Velocity":49,"Duration":487804,"SoundDuration":487804,"Delta":5578255},{"NoteNumber":61,"Velocity":45,"Duration":487804,"SoundDuration":487804,"Delta":5578255},{"NoteNumber":67,"Velocity":41,"Duration":243902,"SoundDuration":243902,"Delta":5822158},{"NoteNumber":76,"Velocity":49,"Duration":487804,"SoundDuration":487804,"Delta":6066060},{"NoteNumber":69,"Velocity":33,"Duration":243902,"SoundDuration":243902,"Delta":6066060},{"NoteNumber":67,"Velocity":33,"Duration":243902,"SoundDuration":243902,"Delta":6309963},{"NoteNumber":69,"Velocity":48,"Duration":283018,"SoundDuration":283018,"Delta":6553865},{"NoteNumber":74,"Velocity":48,"Duration":566037,"SoundDuration":566037,"Delta":6553865},{"NoteNumber":62,"Velocity":42,"Duration":566037,"SoundDuration":566037,"Delta":6553865},{"NoteNumber":66,"Velocity":35,"Duration":283018,"SoundDuration":283018,"Delta":6836884},{"NoteNumber":68,"Velocity":37,"Duration":535745,"SoundDuration":535745,"Delta":7119903},{"NoteNumber":71,"Velocity":44,"Duration":535745,"SoundDuration":535745,"Delta":7119903},{"NoteNumber":65,"Velocity":29,"Duration":265486,"SoundDuration":265486,"Delta":7119903},{"NoteNumber":62,"Velocity":29,"Duration":270258,"SoundDuration":270258,"Delta":7385389},{"NoteNumber":69,"Velocity":35,"Duration":303050,"SoundDuration":303050,"Delta":7655648},{"NoteNumber":73,"Velocity":39,"Duration":1271539,"SoundDuration":1271539,"Delta":7655648},{"NoteNumber":57,"Velocity":32,"Duration":615573,"SoundDuration":615573,"Delta":7655648},{"NoteNumber":64,"Velocity":28,"Duration":312522,"SoundDuration":312522,"Delta":7958699},{"NoteNumber":61,"Velocity":25,"Duration":322605,"SoundDuration":322605,"Delta":8271221},{"NoteNumber":57,"Velocity":25,"Duration":333360,"SoundDuration":333360,"Delta":8593827},{"NoteNumber":72,"Velocity":49,"Duration":576923,"SoundDuration":576923,"Delta":8927188},{"NoteNumber":69,"Velocity":39,"Duration":288461,"SoundDuration":288461,"Delta":8927188},{"NoteNumber":50,"Velocity":35,"Duration":1098662,"SoundDuration":1098662,"Delta":8927188},{"NoteNumber":64,"Velocity":34,"Duration":288461,"SoundDuration":288461,"Delta":9215649},{"NoteNumber":66,"Velocity":30,"Duration":260869,"SoundDuration":260869,"Delta":9504111},{"NoteNumber":69,"Velocity":41,"Duration":521739,"SoundDuration":521739,"Delta":9504111},{"NoteNumber":63,"Velocity":29,"Duration":260869,"SoundDuration":260869,"Delta":9764980},{"NoteNumber":67,"Velocity":42,"Duration":285714,"SoundDuration":285714,"Delta":10025850},{"NoteNumber":71,"Velocity":42,"Duration":571428,"SoundDuration":571428,"Delta":10025850},{"NoteNumber":50,"Velocity":35,"Duration":1079902,"SoundDuration":1079902,"Delta":10025850},{"NoteNumber":62,"Velocity":35,"Duration":285714,"SoundDuration":285714,"Delta":10311564},{"NoteNumber":63,"Velocity":30,"Duration":254237,"SoundDuration":254237,"Delta":10597278},{"NoteNumber":66,"Velocity":40,"Duration":508474,"SoundDuration":508474,"Delta":10597278},{"NoteNumber":60,"Velocity":30,"Duration":254237,"SoundDuration":254237,"Delta":10851516},{"NoteNumber":62,"Velocity":36,"Duration":288461,"SoundDuration":288461,"Delta":11105753},{"NoteNumber":67,"Velocity":42,"Duration":576923,"SoundDuration":576923,"Delta":11105753},{"NoteNumber":50,"Velocity":35,"Duration":1094164,"SoundDuration":1094164,"Delta":11105753},{"NoteNumber":59,"Velocity":33,"Duration":288461,"SoundDuration":288461,"Delta":11394214},{"NoteNumber":61,"Velocity":30,"Duration":258620,"SoundDuration":258620,"Delta":11682676},{"NoteNumber":64,"Velocity":38,"Duration":517241,"SoundDuration":517241,"Delta":11682676},{"NoteNumber":58,"Velocity":29,"Duration":258620,"SoundDuration":258620,"Delta":11941297},{"NoteNumber":66,"Velocity":40,"Duration":1199364,"SoundDuration":1199364,"Delta":12199917},{"NoteNumber":62,"Velocity":35,"Duration":283917,"SoundDuration":283917,"Delta":12199917},{"NoteNumber":50,"Velocity":35,"Duration":860086,"SoundDuration":860086,"Delta":12199917},{"NoteNumber":57,"Velocity":30,"Duration":289404,"SoundDuration":289404,"Delta":12483835},{"NoteNumber":54,"Velocity":27,"Duration":294117,"SoundDuration":294117,"Delta":12773239},{"NoteNumber":50,"Velocity":27,"Duration":331925,"SoundDuration":331925,"Delta":13067356},{"NoteNumber":69,"Velocity":35,"Duration":303030,"SoundDuration":303030,"Delta":13399282},{"NoteNumber":72,"Velocity":44,"Duration":606060,"SoundDuration":606060,"Delta":13399282},{"NoteNumber":38,"Velocity":31,"Duration":1137033,"SoundDuration":1137033,"Delta":13399282},{"NoteNumber":64,"Velocity":30,"Duration":303030,"SoundDuration":303030,"Delta":13702312},{"NoteNumber":66,"Velocity":27,"Duration":265486,"SoundDuration":265486,"Delta":14005343},{"NoteNumber":69,"Velocity":36,"Duration":530973,"SoundDuration":530973,"Delta":14005343},{"NoteNumber":63,"Velocity":26,"Duration":265486,"SoundDuration":265486,"Delta":14270829},{"NoteNumber":67,"Velocity":37,"Duration":285714,"SoundDuration":285714,"Delta":14536316},{"NoteNumber":71,"Velocity":37,"Duration":571428,"SoundDuration":571428,"Delta":14536316},{"NoteNumber":50,"Velocity":31,"Duration":1093167,"SoundDuration":1093167,"Delta":14536316},{"NoteNumber":62,"Velocity":31,"Duration":285714,"SoundDuration":285714,"Delta":14822030},{"NoteNumber":63,"Velocity":27,"Duration":260869,"SoundDuration":260869,"Delta":15107745},{"NoteNumber":66,"Velocity":36,"Duration":521739,"SoundDuration":521739,"Delta":15107745},{"NoteNumber":60,"Velocity":27,"Duration":260869,"SoundDuration":260869,"Delta":15368614},{"NoteNumber":62,"Velocity":32,"Duration":303030,"SoundDuration":303030,"Delta":15629484},{"NoteNumber":67,"Velocity":37,"Duration":606060,"SoundDuration":606060,"Delta":15629484},{"NoteNumber":50,"Velocity":31,"Duration":1172098,"SoundDuration":1172098,"Delta":15629484},{"NoteNumber":59,"Velocity":29,"Duration":303030,"SoundDuration":303030,"Delta":15932514},{"NoteNumber":64,"Velocity":34,"Duration":566037,"SoundDuration":566037,"Delta":16235544},{"NoteNumber":61,"Velocity":27,"Duration":283018,"SoundDuration":283018,"Delta":16235544},{"NoteNumber":58,"Velocity":26,"Duration":283018,"SoundDuration":283018,"Delta":16518563},{"NoteNumber":62,"Velocity":31,"Duration":295684,"SoundDuration":295684,"Delta":16801582},{"NoteNumber":66,"Velocity":36,"Duration":1234198,"SoundDuration":1234198,"Delta":16801582},{"NoteNumber":50,"Velocity":31,"Duration":886993,"SoundDuration":886993,"Delta":16801582},{"NoteNumber":57,"Velocity":27,"Duration":305102,"SoundDuration":305102,"Delta":17097266},{"NoteNumber":54,"Velocity":24,"Duration":312522,"SoundDuration":312522,"Delta":17402369},{"NoteNumber":50,"Velocity":24,"Duration":320889,"SoundDuration":320889,"Delta":17714891},{"NoteNumber":62,"Velocity":39,"Duration":277777,"SoundDuration":277777,"Delta":18035781},{"NoteNumber":66,"Velocity":43,"Duration":555555,"SoundDuration":555555,"Delta":18035781},{"NoteNumber":47,"Velocity":36,"Duration":1091270,"SoundDuration":1091270,"Delta":18035781},{"NoteNumber":59,"Velocity":39,"Duration":277777,"SoundDuration":277777,"Delta":18313558},{"NoteNumber":68,"Velocity":46,"Duration":535714,"SoundDuration":535714,"Delta":18591336},{"NoteNumber":57,"Velocity":33,"Duration":267857,"SoundDuration":267857,"Delta":18591336},{"NoteNumber":56,"Velocity":33,"Duration":267857,"SoundDuration":267857,"Delta":18859193},{"NoteNumber":69,"Velocity":48,"Duration":550458,"SoundDuration":550458,"Delta":19127051},{"NoteNumber":54,"Velocity":35,"Duration":275229,"SoundDuration":275229,"Delta":19127051},{"NoteNumber":49,"Velocity":40,"Duration":550458,"SoundDuration":550458,"Delta":19127051},{"NoteNumber":52,"Velocity":35,"Duration":275229,"SoundDuration":275229,"Delta":19402280},{"NoteNumber":71,"Velocity":50,"Duration":530973,"SoundDuration":530973,"Delta":19677509},{"NoteNumber":50,"Velocity":35,"Duration":530973,"SoundDuration":530973,"Delta":19677509},{"NoteNumber":66,"Velocity":41,"Duration":265486,"SoundDuration":265486,"Delta":19942996},{"NoteNumber":73,"Velocity":53,"Duration":555555,"SoundDuration":555555,"Delta":20208483},{"NoteNumber":52,"Velocity":45,"Duration":1091270,"SoundDuration":1091270,"Delta":20208483},{"NoteNumber":64,"Velocity":41,"Duration":277777,"SoundDuration":277777,"Delta":20486260},{"NoteNumber":68,"Velocity":44,"Duration":535714,"SoundDuration":535714,"Delta":20764038},{"NoteNumber":71,"Velocity":47,"Duration":535714,"SoundDuration":535714,"Delta":20764038},{"NoteNumber":63,"Velocity":36,"Duration":267857,"SoundDuration":267857,"Delta":20764038},{"NoteNumber":62,"Velocity":36,"Duration":267857,"SoundDuration":267857,"Delta":21031895},{"NoteNumber":69,"Velocity":46,"Duration":271915,"SoundDuration":271915,"Delta":21299753},{"NoteNumber":57,"Velocity":39,"Duration":1157508,"SoundDuration":1157508,"Delta":21299753},{"NoteNumber":61,"Velocity":37,"Duration":277793,"SoundDuration":277793,"Delta":21571668},{"NoteNumber":52,"Velocity":33,"Duration":283925,"SoundDuration":283925,"Delta":21849462},{"NoteNumber":49,"Velocity":33,"Duration":323873,"SoundDuration":323873,"Delta":22133388},{"NoteNumber":62,"Velocity":35,"Duration":283018,"SoundDuration":283018,"Delta":22457261},{"NoteNumber":66,"Velocity":38,"Duration":566037,"SoundDuration":566037,"Delta":22457261},{"NoteNumber":47,"Velocity":32,"Duration":1101752,"SoundDuration":1101752,"Delta":22457261},{"NoteNumber":59,"Velocity":35,"Duration":283018,"SoundDuration":283018,"Delta":22740280},{"NoteNumber":68,"Velocity":41,"Duration":535714,"SoundDuration":535714,"Delta":23023298},{"NoteNumber":57,"Velocity":29,"Duration":267857,"SoundDuration":267857,"Delta":23023298},{"NoteNumber":56,"Velocity":29,"Duration":267857,"SoundDuration":267857,"Delta":23291156},{"NoteNumber":69,"Velocity":43,"Duration":550458,"SoundDuration":550458,"Delta":23559013},{"NoteNumber":54,"Velocity":31,"Duration":275229,"SoundDuration":275229,"Delta":23559013},{"NoteNumber":49,"Velocity":36,"Duration":550458,"SoundDuration":550458,"Delta":23559013},{"NoteNumber":52,"Velocity":31,"Duration":275229,"SoundDuration":275229,"Delta":23834242},{"NoteNumber":71,"Velocity":45,"Duration":589141,"SoundDuration":589141,"Delta":24109471},{"NoteNumber":50,"Velocity":31,"Duration":589141,"SoundDuration":589141,"Delta":24109471},{"NoteNumber":66,"Velocity":36,"Duration":306122,"SoundDuration":306122,"Delta":24392490},{"NoteNumber":73,"Velocity":47,"Duration":588235,"SoundDuration":588235,"Delta":24698613},{"NoteNumber":52,"Velocity":40,"Duration":1148983,"SoundDuration":1148983,"Delta":24698613},{"NoteNumber":64,"Velocity":36,"Duration":294117,"SoundDuration":294117,"Delta":24992730},{"NoteNumber":68,"Velocity":33,"Duration":560747,"SoundDuration":560747,"Delta":25286848},{"NoteNumber":71,"Velocity":38,"Duration":560747,"SoundDuration":560747,"Delta":25286848},{"NoteNumber":63,"Velocity":32,"Duration":280373,"SoundDuration":280373,"Delta":25286848},{"NoteNumber":62,"Velocity":32,"Duration":280373,"SoundDuration":280373,"Delta":25567222},{"NoteNumber":69,"Velocity":37,"Duration":1396796,"SoundDuration":1396796,"Delta":25847596},{"NoteNumber":57,"Velocity":35,"Duration":1396796,"SoundDuration":1396796,"Delta":25847596},{"NoteNumber":61,"Velocity":28,"Duration":335317,"SoundDuration":335317,"Delta":26162358},{"NoteNumber":52,"Velocity":24,"Duration":359431,"SoundDuration":359431,"Delta":26497676},{"NoteNumber":49,"Velocity":24,"Duration":387284,"SoundDuration":387284,"Delta":26857108},{"NoteNumber":67,"Velocity":45,"Duration":315789,"SoundDuration":315789,"Delta":27244393},{"NoteNumber":71,"Velocity":51,"Duration":631578,"SoundDuration":631578,"Delta":27244393},{"NoteNumber":45,"Velocity":46,"Duration":631578,"SoundDuration":631578,"Delta":27244393},{"NoteNumber":64,"Velocity":40,"Duration":315789,"SoundDuration":315789,"Delta":27560182},{"NoteNumber":79,"Velocity":55,"Duration":516975,"SoundDuration":516975,"Delta":27875972},{"NoteNumber":71,"Velocity":36,"Duration":261638,"SoundDuration":261638,"Delta":27875972},{"NoteNumber":67,"Velocity":36,"Duration":255336,"SoundDuration":255336,"Delta":28137611},{"NoteNumber":70,"Velocity":45,"Duration":247934,"SoundDuration":247934,"Delta":28392947},{"NoteNumber":78,"Velocity":51,"Duration":495868,"SoundDuration":495868,"Delta":28392947},{"NoteNumber":61,"Velocity":46,"Duration":495868,"SoundDuration":495868,"Delta":28392947},{"NoteNumber":67,"Velocity":42,"Duration":247934,"SoundDuration":247934,"Delta":28640881},{"NoteNumber":76,"Velocity":50,"Duration":495867,"SoundDuration":495867,"Delta":28888815},{"NoteNumber":69,"Velocity":34,"Duration":247933,"SoundDuration":247933,"Delta":28888815},{"NoteNumber":67,"Velocity":34,"Duration":247934,"SoundDuration":247934,"Delta":29136749},{"NoteNumber":69,"Velocity":45,"Duration":283018,"SoundDuration":283018,"Delta":29384683},{"NoteNumber":74,"Velocity":48,"Duration":566037,"SoundDuration":566037,"Delta":29384683},{"NoteNumber":62,"Velocity":44,"Duration":566037,"SoundDuration":566037,"Delta":29384683},{"NoteNumber":66,"Velocity":35,"Duration":283018,"SoundDuration":283018,"Delta":29667701},{"NoteNumber":68,"Velocity":37,"Duration":535745,"SoundDuration":535745,"Delta":29950720},{"NoteNumber":71,"Velocity":44,"Duration":535745,"SoundDuration":535745,"Delta":29950720},{"NoteNumber":65,"Velocity":29,"Duration":265486,"SoundDuration":265486,"Delta":29950720},{"NoteNumber":62,"Velocity":29,"Duration":270258,"SoundDuration":270258,"Delta":30216207},{"NoteNumber":69,"Velocity":35,"Duration":295088,"SoundDuration":295088,"Delta":30486466},{"NoteNumber":73,"Velocity":39,"Duration":1226798,"SoundDuration":1226798,"Delta":30486466},{"NoteNumber":57,"Velocity":32,"Duration":594098,"SoundDuration":594098,"Delta":30486466},{"NoteNumber":64,"Velocity":28,"Duration":299009,"SoundDuration":299009,"Delta":30781554},{"NoteNumber":61,"Velocity":25,"Duration":303030,"SoundDuration":303030,"Delta":31080564},{"NoteNumber":57,"Velocity":25,"Duration":329670,"SoundDuration":329670,"Delta":31383594},{"NoteNumber":67,"Velocity":38,"Duration":306122,"SoundDuration":306122,"Delta":31713264},{"NoteNumber":71,"Velocity":43,"Duration":626881,"SoundDuration":626881,"Delta":31713264},{"NoteNumber":45,"Velocity":39,"Duration":626881,"SoundDuration":626881,"Delta":31713264},{"NoteNumber":64,"Velocity":34,"Duration":320758,"SoundDuration":320758,"Delta":32019387},{"NoteNumber":79,"Velocity":46,"Duration":587292,"SoundDuration":587292,"Delta":32340146},{"NoteNumber":71,"Velocity":30,"Duration":294117,"SoundDuration":294117,"Delta":32340146},{"NoteNumber":67,"Velocity":30,"Duration":293175,"SoundDuration":293175,"Delta":32634263},{"NoteNumber":70,"Velocity":38,"Duration":290346,"SoundDuration":290346,"Delta":32927438},{"NoteNumber":78,"Velocity":43,"Duration":588386,"SoundDuration":588386,"Delta":32927438},{"NoteNumber":61,"Velocity":39,"Duration":588386,"SoundDuration":588386,"Delta":32927438},{"NoteNumber":67,"Velocity":35,"Duration":298039,"SoundDuration":298039,"Delta":33217785},{"NoteNumber":76,"Velocity":42,"Duration":625180,"SoundDuration":625180,"Delta":33515825},{"NoteNumber":69,"Velocity":28,"Duration":308248,"SoundDuration":308248,"Delta":33515825},{"NoteNumber":67,"Velocity":28,"Duration":316932,"SoundDuration":316932,"Delta":33824073},{"NoteNumber":69,"Velocity":38,"Duration":392857,"SoundDuration":392857,"Delta":34141006},{"NoteNumber":74,"Velocity":40,"Duration":690476,"SoundDuration":690476,"Delta":34141006},{"NoteNumber":62,"Velocity":37,"Duration":690476,"SoundDuration":690476,"Delta":34141006},{"NoteNumber":66,"Velocity":29,"Duration":357142,"SoundDuration":357142,"Delta":34474339},{"NoteNumber":68,"Velocity":31,"Duration":743820,"SoundDuration":743820,"Delta":34831482},{"NoteNumber":71,"Velocity":37,"Duration":743820,"SoundDuration":743820,"Delta":34831482},{"NoteNumber":65,"Velocity":25,"Duration":431643,"SoundDuration":431643,"Delta":34831482},{"NoteNumber":62,"Velocity":25,"Duration":377966,"SoundDuration":377966,"Delta":35197335},{"NoteNumber":69,"Velocity":29,"Duration":4464017,"SoundDuration":4464017,"Delta":35575302},{"NoteNumber":73,"Velocity":33,"Duration":4464017,"SoundDuration":4464017,"Delta":35575302},{"NoteNumber":57,"Velocity":27,"Duration":786373,"SoundDuration":786373,"Delta":35575302},{"NoteNumber":64,"Velocity":27,"Duration":4077715,"SoundDuration":4077715,"Delta":35961605},{"NoteNumber":61,"Velocity":23,"Duration":3677644,"SoundDuration":3677644,"Delta":36361676},{"NoteNumber":57,"Velocity":23,"Duration":3260869,"SoundDuration":3260869,"Delta":36778450},{"NoteNumber":79,"Velocity":33,"Duration":2608695,"SoundDuration":2608695,"Delta":37430624},{"NoteNumber":45,"Velocity":28,"Duration":2608695,"SoundDuration":2608695,"Delta":37430624}]}