{"title":"Knecht Ruprecht aus Album für die Jugend Opus 68","artist":"Schumann","durationMs":110112,"midiSha256":"1f2b83bc84caf79779914aa06347e7b79a7e55f59ce468b5c52140e5fa45540f","midiObject":[{"NoteNumber":45,"Velocity":77,"Duration":119047,"SoundDuration":119047,"Delta":0},{"NoteNumber":33,"Velocity":67,"Duration":119047,"SoundDuration":119047,"Delta":0},{"NoteNumber":47,"Velocity":69,"Duration":119047,"SoundDuration":119047,"Delta":119047},{"NoteNumber":35,"Velocity":60,"Duration":119047,"SoundDuration":119047,"Delta":119047},{"NoteNumber":45,"Velocity":74,"Duration":119047,"SoundDuration":119047,"Delta":238095},{"NoteNumber":33,"Velocity":65,"Duration":119047,"SoundDuration":119047,"Delta":238095},{"NoteNumber":47,"Velocity":69,"Duration":119047,"SoundDuration":119047,"Delta":357142},{"NoteNumber":35,"Velocity":60,"Duration":119047,"SoundDuration":119047,"Delta":357142},{"NoteNumber":48,"Velocity":78,"Duration":119047,"SoundDuration":119047,"Delta":476190},{"NoteNumber":36,"Velocity":68,"Duration":119047,"SoundDuration":119047,"Delta":476190},{"NoteNumber":47,"Velocity":69,"Duration":119047,"SoundDuration":119047,"Delta":595237},{"NoteNumber":35,"Velocity":60,"Duration":119047,"SoundDuration":119047,"Delta":595237},{"NoteNumber":48,"Velocity":77,"Duration":119047,"SoundDuration":119047,"Delta":714285},{"NoteNumber":36,"Velocity":67,"Duration":119047,"SoundDuration":119047,"Delta":714285},{"NoteNumber":47,"Velocity":69,"Duration":119047,"SoundDuration":119047,"Delta":833332},{"NoteNumber":35,"Velocity":60,"Duration":119047,"SoundDuration":119047,"Delta":833332},{"NoteNumber":45,"Velocity":80,"Duration":234375,"SoundDuration":234375,"Delta":952380},{"NoteNumber":33,"Velocity":70,"Duration":234375,"SoundDuration":234375,"Delta":952380},{"NoteNumber":47,"Velocity":69,"Duration":122449,"SoundDuration":122449,"Delta":1186755},{"NoteNumber":35,"Velocity":60,"Duration":122449,"SoundDuration":122449,"Delta":1186755},{"NoteNumber":48,"Velocity":79,"Duration":232558,"SoundDuration":232558,"Delta":1431653},{"NoteNumber":36,"Velocity":69,"Duration":232558,"SoundDuration":232558,"Delta":1431653},{"NoteNumber":52,"Velocity":69,"Duration":122449,"SoundDuration":122449,"Delta":1664211},{"NoteNumber":40,"Velocity":60,"Duration":122449,"SoundDuration":122449,"Delta":1664211},{"NoteNumber":57,"Velocity":79,"Duration":233463,"SoundDuration":233463,"Delta":1909109},{"NoteNumber":45,"Velocity":69,"Duration":233463,"SoundDuration":233463,"Delta":1909109},{"NoteNumber":59,"Velocity":69,"Duration":121951,"SoundDuration":121951,"Delta":2142572},{"NoteNumber":47,"Velocity":60,"Duration":121951,"SoundDuration":121951,"Delta":2142572},{"NoteNumber":60,"Velocity":79,"Duration":239043,"SoundDuration":239043,"Delta":2386474},{"NoteNumber":48,"Velocity":69,"Duration":239043,"SoundDuration":239043,"Delta":2386474},{"NoteNumber":64,"Velocity":69,"Duration":132158,"SoundDuration":132158,"Delta":2625518},{"NoteNumber":52,"Velocity":60,"Duration":132158,"SoundDuration":132158,"Delta":2625518},{"NoteNumber":64,"Velocity":62,"Duration":231707,"SoundDuration":231707,"Delta":2889835},{"NoteNumber":68,"Velocity":62,"Duration":231707,"SoundDuration":231707,"Delta":2889835},{"NoteNumber":71,"Velocity":74,"Duration":231707,"SoundDuration":231707,"Delta":2889835},{"NoteNumber":52,"Velocity":67,"Duration":231707,"SoundDuration":231707,"Delta":2889835},{"NoteNumber":64,"Velocity":59,"Duration":263889,"SoundDuration":263889,"Delta":3133738},{"NoteNumber":68,"Velocity":59,"Duration":263889,"SoundDuration":263889,"Delta":3133738},{"NoteNumber":71,"Velocity":70,"Duration":263889,"SoundDuration":263889,"Delta":3133738},{"NoteNumber":52,"Velocity":60,"Duration":263889,"SoundDuration":263889,"Delta":3133738},{"NoteNumber":64,"Velocity":68,"Duration":495868,"SoundDuration":495868,"Delta":3411516},{"NoteNumber":69,"Velocity":68,"Duration":495868,"SoundDuration":495868,"Delta":3411516},{"NoteNumber":72,"Velocity":80,"Duration":495868,"SoundDuration":495868,"Delta":3411516},{"NoteNumber":57,"Velocity":70,"Duration":495868,"SoundDuration":495868,"Delta":3411516},{"NoteNumber":45,"Velocity":77,"Duration":119047,"SoundDuration":119047,"Delta":3907384},{"NoteNumber":33,"Velocity":67,"Duration":119047,"SoundDuration":119047,"Delta":3907384},{"NoteNumber":47,"Velocity":69,"Duration":119047,"SoundDuration":119047,"Delta":4026431},{"NoteNumber":35,"Velocity":60,"Duration":119047,"SoundDuration":119047,"Delta":4026431},{"NoteNumber":45,"Velocity":74,"Duration":119047,"SoundDuration":119047,"Delta":4145479},{"NoteNumber":33,"Velocity":65,"Duration":119047,"SoundDuration":119047,"Delta":4145479},{"NoteNumber":47,"Velocity":69,"Duration":119047,"SoundDuration":119047,"Delta":4264526},{"NoteNumber":35,"Velocity":60,"Duration":119047,"SoundDuration":119047,"Delta":4264526},{"NoteNumber":48,"Velocity":78,"Duration":119047,"SoundDuration":119047,"Delta":4383574},{"NoteNumber":36,"Velocity":68,"Duration":119047,"SoundDuration":119047,"Delta":4383574},{"NoteNumber":47,"Velocity":69,"Duration":119047,"SoundDuration":119047,"Delta":4502621},{"NoteNumber":35,"Velocity":60,"Duration":119047,"SoundDuration":119047,"Delta":4502621},{"NoteNumber":48,"Velocity":77,"Duration":119047,"SoundDuration":119047,"Delta":4621669},{"NoteNumber":36,"Velocity":67,"Duration":119047,"SoundDuration":119047,"Delta":4621669},{"NoteNumber":47,"Velocity":69,"Duration":119047,"SoundDuration":119047,"Delta":4740716},{"NoteNumber":35,"Velocity":60,"Duration":119047,"SoundDuration":119047,"Delta":4740716},{"NoteNumber":45,"Velocity":80,"Duration":234375,"SoundDuration":234375,"Delta":4859764},{"NoteNumber":33,"Velocity":70,"Duration":234375,"SoundDuration":234375,"Delta":4859764},{"NoteNumber":47,"Velocity":69,"Duration":122448,"SoundDuration":122448,"Delta":5094139},{"NoteNumber":35,"Velocity":60,"Duration":122448,"SoundDuration":122448,"Delta":5094139},{"NoteNumber":48,"Velocity":79,"Duration":232558,"SoundDuration":232558,"Delta":5339037},{"NoteNumber":36,"Velocity":69,"Duration":232558,"SoundDuration":232558,"Delta":5339037},{"NoteNumber":52,"Velocity":69,"Duration":122089,"SoundDuration":122089,"Delta":5564812},{"NoteNumber":40,"Velocity":60,"Duration":122448,"SoundDuration":122448,"Delta":5571595},{"NoteNumber":57,"Velocity":79,"Duration":230768,"SoundDuration":230768,"Delta":5816493},{"NoteNumber":45,"Velocity":69,"Duration":230768,"SoundDuration":230768,"Delta":5816493},{"NoteNumber":59,"Velocity":69,"Duration":121951,"SoundDuration":121951,"Delta":6047262},{"NoteNumber":47,"Velocity":60,"Duration":121951,"SoundDuration":121951,"Delta":6047262},{"NoteNumber":60,"Velocity":79,"Duration":236220,"SoundDuration":236220,"Delta":6291164},{"NoteNumber":48,"Velocity":69,"Duration":236220,"SoundDuration":236220,"Delta":6291164},{"NoteNumber":64,"Velocity":69,"Duration":132158,"SoundDuration":132158,"Delta":6527385},{"NoteNumber":52,"Velocity":60,"Duration":132158,"SoundDuration":132158,"Delta":6527385},{"NoteNumber":64,"Velocity":62,"Duration":231707,"SoundDuration":231707,"Delta":6791702},{"NoteNumber":68,"Velocity":62,"Duration":231707,"SoundDuration":231707,"Delta":6791702},{"NoteNumber":71,"Velocity":74,"Duration":231707,"SoundDuration":231707,"Delta":6791702},{"NoteNumber":52,"Velocity":67,"Duration":231707,"SoundDuration":231707,"Delta":6791702},{"NoteNumber":64,"Velocity":59,"Duration":263889,"SoundDuration":263889,"Delta":7035604},{"NoteNumber":68,"Velocity":59,"Duration":263889,"SoundDuration":263889,"Delta":7035604},{"NoteNumber":71,"Velocity":70,"Duration":263889,"SoundDuration":263889,"Delta":7035604},{"NoteNumber":52,"Velocity":60,"Duration":263889,"SoundDuration":263889,"Delta":7035604},{"NoteNumber":69,"Velocity":82,"Duration":504202,"SoundDuration":504202,"Delta":7313382},{"NoteNumber":57,"Velocity":70,"Duration":504202,"SoundDuration":504202,"Delta":7313382},{"NoteNumber":58,"Velocity":77,"Duration":120214,"SoundDuration":120214,"Delta":7817584},{"NoteNumber":46,"Velocity":67,"Duration":120214,"SoundDuration":120214,"Delta":7817584},{"NoteNumber":57,"Velocity":69,"Duration":119047,"SoundDuration":119047,"Delta":7937799},{"NoteNumber":45,"Velocity":60,"Duration":119047,"SoundDuration":119047,"Delta":7937799},{"NoteNumber":58,"Velocity":74,"Duration":119047,"SoundDuration":119047,"Delta":8056846},{"NoteNumber":46,"Velocity":65,"Duration":119047,"SoundDuration":119047,"Delta":8056846},{"NoteNumber":57,"Velocity":69,"Duration":119047,"SoundDuration":119047,"Delta":8175894},{"NoteNumber":45,"Velocity":60,"Duration":119047,"SoundDuration":119047,"Delta":8175894},{"NoteNumber":55,"Velocity":78,"Duration":119047,"SoundDuration":119047,"Delta":8294941},{"NoteNumber":43,"Velocity":68,"Duration":119047,"SoundDuration":119047,"Delta":8294941},{"NoteNumber":57,"Velocity":69,"Duration":119047,"SoundDuration":119047,"Delta":8413989},{"NoteNumber":45,"Velocity":60,"Duration":119047,"SoundDuration":119047,"Delta":8413989},{"NoteNumber":55,"Velocity":77,"Duration":119047,"SoundDuration":119047,"Delta":8533036},{"NoteNumber":43,"Velocity":67,"Duration":119047,"SoundDuration":119047,"Delta":8533036},{"NoteNumber":57,"Velocity":69,"Duration":119047,"SoundDuration":119047,"Delta":8652084},{"NoteNumber":45,"Velocity":60,"Duration":119047,"SoundDuration":119047,"Delta":8652084},{"NoteNumber":58,"Velocity":80,"Duration":234685,"SoundDuration":234685,"Delta":8771131},{"NoteNumber":46,"Velocity":70,"Duration":234685,"SoundDuration":234685,"Delta":8771131},{"NoteNumber":55,"Velocity":69,"Duration":121572,"SoundDuration":121572,"Delta":9005816},{"NoteNumber":43,"Velocity":60,"Duration":121572,"SoundDuration":121572,"Delta":9005816},{"NoteNumber":55,"Velocity":79,"Duration":233586,"SoundDuration":233586,"Delta":9249837},{"NoteNumber":43,"Velocity":69,"Duration":233586,"SoundDuration":233586,"Delta":9249837},{"NoteNumber":52,"Velocity":69,"Duration":121420,"SoundDuration":121420,"Delta":9483424},{"NoteNumber":40,"Velocity":60,"Duration":121420,"SoundDuration":121420,"Delta":9483424},{"NoteNumber":67,"Velocity":67,"Duration":234415,"SoundDuration":234415,"Delta":9727293},{"NoteNumber":70,"Velocity":79,"Duration":234415,"SoundDuration":234415,"Delta":9727293},{"NoteNumber":37,"Velocity":69,"Duration":234415,"SoundDuration":234415,"Delta":9727293},{"NoteNumber":64,"Velocity":58,"Duration":121081,"SoundDuration":121081,"Delta":9961709},{"NoteNumber":67,"Velocity":69,"Duration":121081,"SoundDuration":121081,"Delta":9961709},{"NoteNumber":40,"Velocity":60,"Duration":121081,"SoundDuration":121081,"Delta":9961709},{"NoteNumber":64,"Velocity":67,"Duration":239448,"SoundDuration":239448,"Delta":10204742},{"NoteNumber":67,"Velocity":79,"Duration":239448,"SoundDuration":239448,"Delta":10204742},{"NoteNumber":40,"Velocity":69,"Duration":239448,"SoundDuration":239448,"Delta":10204742},{"NoteNumber":64,"Velocity":69,"Duration":130052,"SoundDuration":130052,"Delta":10444191},{"NoteNumber":61,"Velocity":58,"Duration":130052,"SoundDuration":130052,"Delta":10444191},{"NoteNumber":43,"Velocity":60,"Duration":130052,"SoundDuration":130052,"Delta":10444191},{"NoteNumber":64,"Velocity":74,"Duration":241525,"SoundDuration":241525,"Delta":10706401},{"NoteNumber":61,"Velocity":62,"Duration":241525,"SoundDuration":241525,"Delta":10706401},{"NoteNumber":57,"Velocity":62,"Duration":241525,"SoundDuration":241525,"Delta":10706401},{"NoteNumber":45,"Velocity":67,"Duration":241525,"SoundDuration":241525,"Delta":10706401},{"NoteNumber":64,"Velocity":70,"Duration":261927,"SoundDuration":261927,"Delta":10960639},{"NoteNumber":61,"Velocity":59,"Duration":261927,"SoundDuration":261927,"Delta":10960639},{"NoteNumber":57,"Velocity":59,"Duration":261927,"SoundDuration":261927,"Delta":10960639},{"NoteNumber":45,"Velocity":60,"Duration":261927,"SoundDuration":261927,"Delta":10960639},{"NoteNumber":65,"Velocity":80,"Duration":513370,"SoundDuration":513370,"Delta":11236455},{"NoteNumber":62,"Velocity":68,"Duration":513370,"SoundDuration":513370,"Delta":11236455},{"NoteNumber":57,"Velocity":68,"Duration":513370,"SoundDuration":513370,"Delta":11236455},{"NoteNumber":50,"Velocity":70,"Duration":513370,"SoundDuration":513370,"Delta":11236455},{"NoteNumber":60,"Velocity":77,"Duration":119286,"SoundDuration":119286,"Delta":11749826},{"NoteNumber":48,"Velocity":67,"Duration":119286,"SoundDuration":119286,"Delta":11749826},{"NoteNumber":59,"Velocity":69,"Duration":119047,"SoundDuration":119047,"Delta":11869113},{"NoteNumber":47,"Velocity":60,"Duration":119047,"SoundDuration":119047,"Delta":11869113},{"NoteNumber":60,"Velocity":74,"Duration":119047,"SoundDuration":119047,"Delta":11988160},{"NoteNumber":48,"Velocity":65,"Duration":119047,"SoundDuration":119047,"Delta":11988160},{"NoteNumber":59,"Velocity":69,"Duration":119047,"SoundDuration":119047,"Delta":12107208},{"NoteNumber":47,"Velocity":60,"Duration":119047,"SoundDuration":119047,"Delta":12107208},{"NoteNumber":57,"Velocity":78,"Duration":119047,"SoundDuration":119047,"Delta":12226255},{"NoteNumber":45,"Velocity":68,"Duration":119047,"SoundDuration":119047,"Delta":12226255},{"NoteNumber":59,"Velocity":69,"Duration":119047,"SoundDuration":119047,"Delta":12345303},{"NoteNumber":47,"Velocity":60,"Duration":119047,"SoundDuration":119047,"Delta":12345303},{"NoteNumber":57,"Velocity":77,"Duration":119047,"SoundDuration":119047,"Delta":12464350},{"NoteNumber":45,"Velocity":67,"Duration":119047,"SoundDuration":119047,"Delta":12464350},{"NoteNumber":59,"Velocity":69,"Duration":119047,"SoundDuration":119047,"Delta":12583398},{"NoteNumber":47,"Velocity":60,"Duration":119047,"SoundDuration":119047,"Delta":12583398},{"NoteNumber":60,"Velocity":80,"Duration":234685,"SoundDuration":234685,"Delta":12702445},{"NoteNumber":48,"Velocity":70,"Duration":234685,"SoundDuration":234685,"Delta":12702445},{"NoteNumber":57,"Velocity":69,"Duration":121572,"SoundDuration":121572,"Delta":12937130},{"NoteNumber":45,"Velocity":60,"Duration":121572,"SoundDuration":121572,"Delta":12937130},{"NoteNumber":57,"Velocity":79,"Duration":233586,"SoundDuration":233586,"Delta":13181151},{"NoteNumber":45,"Velocity":69,"Duration":233586,"SoundDuration":233586,"Delta":13181151},{"NoteNumber":54,"Velocity":69,"Duration":121420,"SoundDuration":121420,"Delta":13414738},{"NoteNumber":42,"Velocity":60,"Duration":121420,"SoundDuration":121420,"Delta":13414738},{"NoteNumber":69,"Velocity":67,"Duration":234415,"SoundDuration":234415,"Delta":13658607},{"NoteNumber":72,"Velocity":79,"Duration":234415,"SoundDuration":234415,"Delta":13658607},{"NoteNumber":39,"Velocity":69,"Duration":234415,"SoundDuration":234415,"Delta":13658607},{"NoteNumber":66,"Velocity":58,"Duration":121081,"SoundDuration":121081,"Delta":13893023},{"NoteNumber":69,"Velocity":69,"Duration":121081,"SoundDuration":121081,"Delta":13893023},{"NoteNumber":42,"Velocity":60,"Duration":121081,"SoundDuration":121081,"Delta":13893023},{"NoteNumber":66,"Velocity":67,"Duration":236220,"SoundDuration":236220,"Delta":14136056},{"NoteNumber":69,"Velocity":79,"Duration":236220,"SoundDuration":236220,"Delta":14136056},{"NoteNumber":42,"Velocity":69,"Duration":236220,"SoundDuration":236220,"Delta":14136056},{"NoteNumber":66,"Velocity":69,"Duration":132158,"SoundDuration":132158,"Delta":14372276},{"NoteNumber":63,"Velocity":58,"Duration":132158,"SoundDuration":132158,"Delta":14372276},{"NoteNumber":45,"Velocity":60,"Duration":132158,"SoundDuration":132158,"Delta":14372276},{"NoteNumber":66,"Velocity":74,"Duration":245603,"SoundDuration":245603,"Delta":14636593},{"NoteNumber":63,"Velocity":74,"Duration":245603,"SoundDuration":245603,"Delta":14636593},{"NoteNumber":47,"Velocity":67,"Duration":245603,"SoundDuration":245603,"Delta":14636593},{"NoteNumber":66,"Velocity":70,"Duration":281689,"SoundDuration":281689,"Delta":14882197},{"NoteNumber":63,"Velocity":70,"Duration":281689,"SoundDuration":281689,"Delta":14882197},{"NoteNumber":47,"Velocity":60,"Duration":281689,"SoundDuration":281689,"Delta":14882197},{"NoteNumber":68,"Velocity":80,"Duration":505232,"SoundDuration":505232,"Delta":15163887},{"NoteNumber":64,"Velocity":68,"Duration":505232,"SoundDuration":505232,"Delta":15163887},{"NoteNumber":59,"Velocity":68,"Duration":505232,"SoundDuration":505232,"Delta":15163887},{"NoteNumber":52,"Velocity":70,"Duration":505232,"SoundDuration":505232,"Delta":15163887},{"NoteNumber":57,"Velocity":84,"Duration":119999,"SoundDuration":119999,"Delta":15669119},{"NoteNumber":45,"Velocity":73,"Duration":119999,"SoundDuration":119999,"Delta":15669119},{"NoteNumber":59,"Velocity":75,"Duration":120000,"SoundDuration":120000,"Delta":15789119},{"NoteNumber":47,"Velocity":66,"Duration":120000,"SoundDuration":120000,"Delta":15789119},{"NoteNumber":57,"Velocity":81,"Duration":119999,"SoundDuration":119999,"Delta":15909119},{"NoteNumber":45,"Velocity":71,"Duration":119999,"SoundDuration":119999,"Delta":15909119},{"NoteNumber":59,"Velocity":75,"Duration":120000,"SoundDuration":120000,"Delta":16029119},{"NoteNumber":47,"Velocity":66,"Duration":120000,"SoundDuration":120000,"Delta":16029119},{"NoteNumber":60,"Velocity":85,"Duration":118576,"SoundDuration":118576,"Delta":16149119},{"NoteNumber":48,"Velocity":74,"Duration":118576,"SoundDuration":118576,"Delta":16149119},{"NoteNumber":59,"Velocity":75,"Duration":118577,"SoundDuration":118577,"Delta":16267696},{"NoteNumber":47,"Velocity":66,"Duration":118577,"SoundDuration":118577,"Delta":16267696},{"NoteNumber":60,"Velocity":84,"Duration":118576,"SoundDuration":118576,"Delta":16386273},{"NoteNumber":48,"Velocity":73,"Duration":118576,"SoundDuration":118576,"Delta":16386273},{"NoteNumber":59,"Velocity":75,"Duration":118577,"SoundDuration":118577,"Delta":16504850},{"NoteNumber":47,"Velocity":66,"Duration":118577,"SoundDuration":118577,"Delta":16504850},{"NoteNumber":57,"Velocity":88,"Duration":234375,"SoundDuration":234375,"Delta":16623427},{"NoteNumber":45,"Velocity":77,"Duration":234375,"SoundDuration":234375,"Delta":16623427},{"NoteNumber":59,"Velocity":75,"Duration":122448,"SoundDuration":122448,"Delta":16857802},{"NoteNumber":47,"Velocity":66,"Duration":122448,"SoundDuration":122448,"Delta":16857802},{"NoteNumber":60,"Velocity":86,"Duration":232558,"SoundDuration":232558,"Delta":17102700},{"NoteNumber":48,"Velocity":75,"Duration":232558,"SoundDuration":232558,"Delta":17102700},{"NoteNumber":64,"Velocity":75,"Duration":122448,"SoundDuration":122448,"Delta":17335258},{"NoteNumber":52,"Velocity":66,"Duration":122448,"SoundDuration":122448,"Delta":17335258},{"NoteNumber":69,"Velocity":86,"Duration":233463,"SoundDuration":233463,"Delta":17580156},{"NoteNumber":57,"Velocity":75,"Duration":233463,"SoundDuration":233463,"Delta":17580156},{"NoteNumber":71,"Velocity":75,"Duration":121951,"SoundDuration":121951,"Delta":17813619},{"NoteNumber":59,"Velocity":66,"Duration":121951,"SoundDuration":121951,"Delta":17813619},{"NoteNumber":72,"Velocity":86,"Duration":239043,"SoundDuration":239043,"Delta":18057522},{"NoteNumber":60,"Velocity":75,"Duration":239043,"SoundDuration":239043,"Delta":18057522},{"NoteNumber":76,"Velocity":75,"Duration":132158,"SoundDuration":132158,"Delta":18296566},{"NoteNumber":64,"Velocity":66,"Duration":132158,"SoundDuration":132158,"Delta":18296566},{"NoteNumber":64,"Velocity":73,"Duration":251101,"SoundDuration":251101,"Delta":18560883},{"NoteNumber":68,"Velocity":73,"Duration":251101,"SoundDuration":251101,"Delta":18560883},{"NoteNumber":71,"Velocity":86,"Duration":251101,"SoundDuration":251101,"Delta":18560883},{"NoteNumber":52,"Velocity":79,"Duration":251101,"SoundDuration":251101,"Delta":18560883},{"NoteNumber":64,"Velocity":68,"Duration":239495,"SoundDuration":239495,"Delta":18825200},{"NoteNumber":68,"Velocity":68,"Duration":239495,"SoundDuration":239495,"Delta":18825200},{"NoteNumber":71,"Velocity":81,"Duration":239495,"SoundDuration":239495,"Delta":18825200},{"NoteNumber":52,"Velocity":69,"Duration":239495,"SoundDuration":239495,"Delta":18825200},{"NoteNumber":64,"Velocity":68,"Duration":237500,"SoundDuration":237500,"Delta":19077301},{"NoteNumber":69,"Velocity":68,"Duration":237500,"SoundDuration":237500,"Delta":19077301},{"NoteNumber":72,"Velocity":81,"Duration":237500,"SoundDuration":237500,"Delta":19077301},{"NoteNumber":57,"Velocity":80,"Duration":237500,"SoundDuration":237500,"Delta":19077301},{"NoteNumber":64,"Velocity":72,"Duration":245689,"SoundDuration":245689,"Delta":19327301},{"NoteNumber":67,"Velocity":72,"Duration":245689,"SoundDuration":245689,"Delta":19327301},{"NoteNumber":69,"Velocity":72,"Duration":245689,"SoundDuration":245689,"Delta":19327301},{"NoteNumber":73,"Velocity":85,"Duration":245689,"SoundDuration":245689,"Delta":19327301},{"NoteNumber":45,"Velocity":72,"Duration":245689,"SoundDuration":245689,"Delta":19327301},{"NoteNumber":65,"Velocity":77,"Duration":496857,"SoundDuration":496857,"Delta":19585921},{"NoteNumber":69,"Velocity":77,"Duration":496857,"SoundDuration":496857,"Delta":19585921},{"NoteNumber":74,"Velocity":91,"Duration":496857,"SoundDuration":496857,"Delta":19585921},{"NoteNumber":50,"Velocity":86,"Duration":121951,"SoundDuration":121951,"Delta":19585921},{"NoteNumber":52,"Velocity":73,"Duration":121951,"SoundDuration":121951,"Delta":19707872},{"NoteNumber":50,"Velocity":78,"Duration":121951,"SoundDuration":121951,"Delta":19829824},{"NoteNumber":52,"Velocity":69,"Duration":131004,"SoundDuration":131004,"Delta":19951775},{"NoteNumber":65,"Velocity":81,"Duration":119047,"SoundDuration":119047,"Delta":20082779},{"NoteNumber":53,"Velocity":71,"Duration":119047,"SoundDuration":119047,"Delta":20082779},{"NoteNumber":64,"Velocity":72,"Duration":119047,"SoundDuration":119047,"Delta":20201827},{"NoteNumber":52,"Velocity":63,"Duration":119047,"SoundDuration":119047,"Delta":20201827},{"NoteNumber":65,"Velocity":80,"Duration":119047,"SoundDuration":119047,"Delta":20320874},{"NoteNumber":53,"Velocity":70,"Duration":119047,"SoundDuration":119047,"Delta":20320874},{"NoteNumber":64,"Velocity":72,"Duration":125523,"SoundDuration":125523,"Delta":20439922},{"NoteNumber":52,"Velocity":63,"Duration":125523,"SoundDuration":125523,"Delta":20439922},{"NoteNumber":62,"Velocity":84,"Duration":234375,"SoundDuration":234375,"Delta":20565445},{"NoteNumber":50,"Velocity":73,"Duration":234375,"SoundDuration":234375,"Delta":20565445},{"NoteNumber":64,"Velocity":72,"Duration":126582,"SoundDuration":126582,"Delta":20799820},{"NoteNumber":52,"Velocity":63,"Duration":126582,"SoundDuration":126582,"Delta":20799820},{"NoteNumber":65,"Velocity":82,"Duration":232558,"SoundDuration":232558,"Delta":21052984},{"NoteNumber":53,"Velocity":72,"Duration":232558,"SoundDuration":232558,"Delta":21052984},{"NoteNumber":69,"Velocity":72,"Duration":122448,"SoundDuration":122448,"Delta":21285542},{"NoteNumber":57,"Velocity":63,"Duration":122448,"SoundDuration":122448,"Delta":21285542},{"NoteNumber":74,"Velocity":82,"Duration":233463,"SoundDuration":233463,"Delta":21530440},{"NoteNumber":62,"Velocity":72,"Duration":233463,"SoundDuration":233463,"Delta":21530440},{"NoteNumber":76,"Velocity":72,"Duration":121951,"SoundDuration":121951,"Delta":21763903},{"NoteNumber":64,"Velocity":63,"Duration":121951,"SoundDuration":121951,"Delta":21763903},{"NoteNumber":77,"Velocity":82,"Duration":239043,"SoundDuration":239043,"Delta":22007806},{"NoteNumber":65,"Velocity":72,"Duration":239043,"SoundDuration":239043,"Delta":22007806},{"NoteNumber":81,"Velocity":72,"Duration":141509,"SoundDuration":141509,"Delta":22246850},{"NoteNumber":69,"Velocity":63,"Duration":141509,"SoundDuration":141509,"Delta":22246850},{"NoteNumber":71,"Velocity":71,"Duration":237500,"SoundDuration":237500,"Delta":22529869},{"NoteNumber":76,"Velocity":71,"Duration":237500,"SoundDuration":237500,"Delta":22529869},{"NoteNumber":80,"Velocity":85,"Duration":237500,"SoundDuration":237500,"Delta":22529869},{"NoteNumber":64,"Velocity":70,"Duration":237500,"SoundDuration":237500,"Delta":22529869},{"NoteNumber":71,"Velocity":67,"Duration":283582,"SoundDuration":283582,"Delta":22779869},{"NoteNumber":76,"Velocity":67,"Duration":283582,"SoundDuration":283582,"Delta":22779869},{"NoteNumber":80,"Velocity":80,"Duration":283582,"SoundDuration":283582,"Delta":22779869},{"NoteNumber":64,"Velocity":63,"Duration":283582,"SoundDuration":283582,"Delta":22779869},{"NoteNumber":72,"Velocity":77,"Duration":508475,"SoundDuration":508475,"Delta":23078376},{"NoteNumber":76,"Velocity":77,"Duration":508475,"SoundDuration":508475,"Delta":23078376},{"NoteNumber":81,"Velocity":92,"Duration":508475,"SoundDuration":508475,"Delta":23078376},{"NoteNumber":69,"Velocity":73,"Duration":508475,"SoundDuration":508475,"Delta":23078376},{"NoteNumber":58,"Velocity":77,"Duration":119286,"SoundDuration":119286,"Delta":23586851},{"NoteNumber":46,"Velocity":67,"Duration":119286,"SoundDuration":119286,"Delta":23586851},{"NoteNumber":57,"Velocity":69,"Duration":119047,"SoundDuration":119047,"Delta":23706138},{"NoteNumber":45,"Velocity":60,"Duration":119047,"SoundDuration":119047,"Delta":23706138},{"NoteNumber":58,"Velocity":74,"Duration":119047,"SoundDuration":119047,"Delta":23825185},{"NoteNumber":46,"Velocity":65,"Duration":119047,"SoundDuration":119047,"Delta":23825185},{"NoteNumber":57,"Velocity":69,"Duration":119047,"SoundDuration":119047,"Delta":23944233},{"NoteNumber":45,"Velocity":60,"Duration":119047,"SoundDuration":119047,"Delta":23944233},{"NoteNumber":55,"Velocity":78,"Duration":119047,"SoundDuration":119047,"Delta":24063280},{"NoteNumber":43,"Velocity":68,"Duration":119047,"SoundDuration":119047,"Delta":24063280},{"NoteNumber":57,"Velocity":69,"Duration":119047,"SoundDuration":119047,"Delta":24182328},{"NoteNumber":45,"Velocity":60,"Duration":119047,"SoundDuration":119047,"Delta":24182328},{"NoteNumber":55,"Velocity":77,"Duration":119047,"SoundDuration":119047,"Delta":24301375},{"NoteNumber":43,"Velocity":67,"Duration":119047,"SoundDuration":119047,"Delta":24301375},{"NoteNumber":57,"Velocity":69,"Duration":119047,"SoundDuration":119047,"Delta":24420423},{"NoteNumber":45,"Velocity":60,"Duration":119047,"SoundDuration":119047,"Delta":24420423},{"NoteNumber":58,"Velocity":80,"Duration":234684,"SoundDuration":234684,"Delta":24539470},{"NoteNumber":46,"Velocity":70,"Duration":234684,"SoundDuration":234684,"Delta":24539470},{"NoteNumber":55,"Velocity":69,"Duration":121572,"SoundDuration":121572,"Delta":24774155},{"NoteNumber":43,"Velocity":60,"Duration":121572,"SoundDuration":121572,"Delta":24774155},{"NoteNumber":55,"Velocity":79,"Duration":233586,"SoundDuration":233586,"Delta":25018176},{"NoteNumber":43,"Velocity":69,"Duration":233586,"SoundDuration":233586,"Delta":25018176},{"NoteNumber":52,"Velocity":69,"Duration":121420,"SoundDuration":121420,"Delta":25251763},{"NoteNumber":40,"Velocity":60,"Duration":121420,"SoundDuration":121420,"Delta":25251763},{"NoteNumber":67,"Velocity":67,"Duration":234415,"SoundDuration":234415,"Delta":25495632},{"NoteNumber":70,"Velocity":79,"Duration":234415,"SoundDuration":234415,"Delta":25495632},{"NoteNumber":37,"Velocity":69,"Duration":234415,"SoundDuration":234415,"Delta":25495632},{"NoteNumber":64,"Velocity":58,"Duration":121081,"SoundDuration":121081,"Delta":25730048},{"NoteNumber":67,"Velocity":69,"Duration":121081,"SoundDuration":121081,"Delta":25730048},{"NoteNumber":40,"Velocity":60,"Duration":121081,"SoundDuration":121081,"Delta":25730048},{"NoteNumber":64,"Velocity":67,"Duration":239448,"SoundDuration":239448,"Delta":25973081},{"NoteNumber":67,"Velocity":79,"Duration":239448,"SoundDuration":239448,"Delta":25973081},{"NoteNumber":40,"Velocity":69,"Duration":239448,"SoundDuration":239448,"Delta":25973081},{"NoteNumber":64,"Velocity":69,"Duration":130052,"SoundDuration":130052,"Delta":26212530},{"NoteNumber":61,"Velocity":58,"Duration":130052,"SoundDuration":130052,"Delta":26212530},{"NoteNumber":43,"Velocity":60,"Duration":130052,"SoundDuration":130052,"Delta":26212530},{"NoteNumber":64,"Velocity":74,"Duration":233408,"SoundDuration":233408,"Delta":26474741},{"NoteNumber":61,"Velocity":62,"Duration":233408,"SoundDuration":233408,"Delta":26474741},{"NoteNumber":57,"Velocity":62,"Duration":233408,"SoundDuration":233408,"Delta":26474741},{"NoteNumber":45,"Velocity":67,"Duration":233408,"SoundDuration":233408,"Delta":26474741},{"NoteNumber":64,"Velocity":70,"Duration":261066,"SoundDuration":261066,"Delta":26720344},{"NoteNumber":61,"Velocity":59,"Duration":261066,"SoundDuration":261066,"Delta":26720344},{"NoteNumber":57,"Velocity":59,"Duration":261066,"SoundDuration":261066,"Delta":26720344},{"NoteNumber":45,"Velocity":60,"Duration":261066,"SoundDuration":261066,"Delta":26720344},{"NoteNumber":65,"Velocity":80,"Duration":501701,"SoundDuration":501701,"Delta":26995299},{"NoteNumber":62,"Velocity":68,"Duration":501701,"SoundDuration":501701,"Delta":26995299},{"NoteNumber":57,"Velocity":68,"Duration":501701,"SoundDuration":501701,"Delta":26995299},{"NoteNumber":50,"Velocity":70,"Duration":501701,"SoundDuration":501701,"Delta":26995299},{"NoteNumber":60,"Velocity":77,"Duration":119286,"SoundDuration":119286,"Delta":27497001},{"NoteNumber":48,"Velocity":67,"Duration":119286,"SoundDuration":119286,"Delta":27497001},{"NoteNumber":59,"Velocity":69,"Duration":119047,"SoundDuration":119047,"Delta":27616287},{"NoteNumber":47,"Velocity":60,"Duration":119047,"SoundDuration":119047,"Delta":27616287},{"NoteNumber":60,"Velocity":74,"Duration":119047,"SoundDuration":119047,"Delta":27735335},{"NoteNumber":48,"Velocity":65,"Duration":119047,"SoundDuration":119047,"Delta":27735335},{"NoteNumber":59,"Velocity":69,"Duration":119047,"SoundDuration":119047,"Delta":27854382},{"NoteNumber":47,"Velocity":60,"Duration":119047,"SoundDuration":119047,"Delta":27854382},{"NoteNumber":57,"Velocity":78,"Duration":119047,"SoundDuration":119047,"Delta":27973430},{"NoteNumber":45,"Velocity":68,"Duration":119047,"SoundDuration":119047,"Delta":27973430},{"NoteNumber":59,"Velocity":69,"Duration":119047,"SoundDuration":119047,"Delta":28092477},{"NoteNumber":47,"Velocity":60,"Duration":119047,"SoundDuration":119047,"Delta":28092477},{"NoteNumber":57,"Velocity":77,"Duration":123456,"SoundDuration":123456,"Delta":28211525},{"NoteNumber":45,"Velocity":67,"Duration":123456,"SoundDuration":123456,"Delta":28211525},{"NoteNumber":59,"Velocity":69,"Duration":123456,"SoundDuration":123456,"Delta":28334982},{"NoteNumber":47,"Velocity":60,"Duration":123456,"SoundDuration":123456,"Delta":28334982},{"NoteNumber":60,"Velocity":80,"Duration":235419,"SoundDuration":235419,"Delta":28458438},{"NoteNumber":48,"Velocity":70,"Duration":235419,"SoundDuration":235419,"Delta":28458438},{"NoteNumber":57,"Velocity":69,"Duration":121572,"SoundDuration":121572,"Delta":28693858},{"NoteNumber":45,"Velocity":60,"Duration":121572,"SoundDuration":121572,"Delta":28693858},{"NoteNumber":57,"Velocity":79,"Duration":233586,"SoundDuration":233586,"Delta":28937879},{"NoteNumber":45,"Velocity":69,"Duration":233586,"SoundDuration":233586,"Delta":28937879},{"NoteNumber":54,"Velocity":69,"Duration":121420,"SoundDuration":121420,"Delta":29171466},{"NoteNumber":42,"Velocity":60,"Duration":121420,"SoundDuration":121420,"Delta":29171466},{"NoteNumber":69,"Velocity":67,"Duration":233848,"SoundDuration":233848,"Delta":29415335},{"NoteNumber":72,"Velocity":79,"Duration":233848,"SoundDuration":233848,"Delta":29415335},{"NoteNumber":39,"Velocity":69,"Duration":233848,"SoundDuration":233848,"Delta":29415335},{"NoteNumber":66,"Velocity":58,"Duration":121081,"SoundDuration":121081,"Delta":29649184},{"NoteNumber":69,"Velocity":69,"Duration":121081,"SoundDuration":121081,"Delta":29649184},{"NoteNumber":42,"Velocity":60,"Duration":121081,"SoundDuration":121081,"Delta":29649184},{"NoteNumber":66,"Velocity":67,"Duration":239448,"SoundDuration":239448,"Delta":29892217},{"NoteNumber":69,"Velocity":79,"Duration":239448,"SoundDuration":239448,"Delta":29892217},{"NoteNumber":42,"Velocity":69,"Duration":239448,"SoundDuration":239448,"Delta":29892217},{"NoteNumber":66,"Velocity":69,"Duration":130052,"SoundDuration":130052,"Delta":30131666},{"NoteNumber":63,"Velocity":58,"Duration":130052,"SoundDuration":130052,"Delta":30131666},{"NoteNumber":45,"Velocity":60,"Duration":130052,"SoundDuration":130052,"Delta":30131666},{"NoteNumber":66,"Velocity":74,"Duration":233408,"SoundDuration":233408,"Delta":30393877},{"NoteNumber":63,"Velocity":74,"Duration":233408,"SoundDuration":233408,"Delta":30393877},{"NoteNumber":47,"Velocity":67,"Duration":233408,"SoundDuration":233408,"Delta":30393877},{"NoteNumber":66,"Velocity":70,"Duration":267605,"SoundDuration":267605,"Delta":30639480},{"NoteNumber":63,"Velocity":70,"Duration":267605,"SoundDuration":267605,"Delta":30639480},{"NoteNumber":47,"Velocity":60,"Duration":267605,"SoundDuration":267605,"Delta":30639480},{"NoteNumber":68,"Velocity":80,"Duration":512809,"SoundDuration":512809,"Delta":30921170},{"NoteNumber":64,"Velocity":68,"Duration":512809,"SoundDuration":512809,"Delta":30921170},{"NoteNumber":59,"Velocity":68,"Duration":512809,"SoundDuration":512809,"Delta":30921170},{"NoteNumber":52,"Velocity":70,"Duration":512809,"SoundDuration":512809,"Delta":30921170},{"NoteNumber":57,"Velocity":84,"Duration":120381,"SoundDuration":120381,"Delta":31433980},{"NoteNumber":45,"Velocity":73,"Duration":120381,"SoundDuration":120381,"Delta":31433980},{"NoteNumber":59,"Velocity":75,"Duration":119804,"SoundDuration":119804,"Delta":31554361},{"NoteNumber":47,"Velocity":66,"Duration":119804,"SoundDuration":119804,"Delta":31554361},{"NoteNumber":57,"Velocity":81,"Duration":119233,"SoundDuration":119233,"Delta":31674166},{"NoteNumber":45,"Velocity":71,"Duration":119233,"SoundDuration":119233,"Delta":31674166},{"NoteNumber":59,"Velocity":75,"Duration":118663,"SoundDuration":118663,"Delta":31793399},{"NoteNumber":47,"Velocity":66,"Duration":118663,"SoundDuration":118663,"Delta":31793399},{"NoteNumber":60,"Velocity":85,"Duration":119047,"SoundDuration":119047,"Delta":31912063},{"NoteNumber":48,"Velocity":74,"Duration":119047,"SoundDuration":119047,"Delta":31912063},{"NoteNumber":59,"Velocity":75,"Duration":119047,"SoundDuration":119047,"Delta":32031110},{"NoteNumber":47,"Velocity":66,"Duration":119047,"SoundDuration":119047,"Delta":32031110},{"NoteNumber":60,"Velocity":84,"Duration":119047,"SoundDuration":119047,"Delta":32150158},{"NoteNumber":48,"Velocity":73,"Duration":119047,"SoundDuration":119047,"Delta":32150158},{"NoteNumber":59,"Velocity":75,"Duration":119047,"SoundDuration":119047,"Delta":32269205},{"NoteNumber":47,"Velocity":66,"Duration":119047,"SoundDuration":119047,"Delta":32269205},{"NoteNumber":57,"Velocity":88,"Duration":234375,"SoundDuration":234375,"Delta":32388253},{"NoteNumber":45,"Velocity":77,"Duration":234375,"SoundDuration":234375,"Delta":32388253},{"NoteNumber":59,"Velocity":75,"Duration":122449,"SoundDuration":122449,"Delta":32622628},{"NoteNumber":47,"Velocity":66,"Duration":122449,"SoundDuration":122449,"Delta":32622628},{"NoteNumber":60,"Velocity":86,"Duration":232557,"SoundDuration":232557,"Delta":32867526},{"NoteNumber":48,"Velocity":75,"Duration":232557,"SoundDuration":232557,"Delta":32867526},{"NoteNumber":64,"Velocity":75,"Duration":122449,"SoundDuration":122449,"Delta":33100084},{"NoteNumber":52,"Velocity":66,"Duration":122449,"SoundDuration":122449,"Delta":33100084},{"NoteNumber":69,"Velocity":86,"Duration":233463,"SoundDuration":233463,"Delta":33344982},{"NoteNumber":57,"Velocity":75,"Duration":233463,"SoundDuration":233463,"Delta":33344982},{"NoteNumber":71,"Velocity":75,"Duration":121951,"SoundDuration":121951,"Delta":33578445},{"NoteNumber":59,"Velocity":66,"Duration":121951,"SoundDuration":121951,"Delta":33578445},{"NoteNumber":72,"Velocity":86,"Duration":239043,"SoundDuration":239043,"Delta":33822347},{"NoteNumber":60,"Velocity":75,"Duration":239043,"SoundDuration":239043,"Delta":33822347},{"NoteNumber":76,"Velocity":75,"Duration":132158,"SoundDuration":132158,"Delta":34061391},{"NoteNumber":64,"Velocity":66,"Duration":132158,"SoundDuration":132158,"Delta":34061391},{"NoteNumber":64,"Velocity":73,"Duration":251101,"SoundDuration":251101,"Delta":34325708},{"NoteNumber":68,"Velocity":73,"Duration":251101,"SoundDuration":251101,"Delta":34325708},{"NoteNumber":71,"Velocity":86,"Duration":251101,"SoundDuration":251101,"Delta":34325708},{"NoteNumber":52,"Velocity":79,"Duration":251101,"SoundDuration":251101,"Delta":34325708},{"NoteNumber":64,"Velocity":68,"Duration":239495,"SoundDuration":239495,"Delta":34590025},{"NoteNumber":68,"Velocity":68,"Duration":239495,"SoundDuration":239495,"Delta":34590025},{"NoteNumber":71,"Velocity":81,"Duration":239495,"SoundDuration":239495,"Delta":34590025},{"NoteNumber":52,"Velocity":69,"Duration":239495,"SoundDuration":239495,"Delta":34590025},{"NoteNumber":64,"Velocity":68,"Duration":232653,"SoundDuration":232653,"Delta":34842126},{"NoteNumber":69,"Velocity":68,"Duration":232653,"SoundDuration":232653,"Delta":34842126},{"NoteNumber":72,"Velocity":81,"Duration":232653,"SoundDuration":232653,"Delta":34842126},{"NoteNumber":57,"Velocity":80,"Duration":232653,"SoundDuration":232653,"Delta":34842126},{"NoteNumber":64,"Velocity":72,"Duration":247826,"SoundDuration":247826,"Delta":35087024},{"NoteNumber":67,"Velocity":72,"Duration":247826,"SoundDuration":247826,"Delta":35087024},{"NoteNumber":69,"Velocity":72,"Duration":247826,"SoundDuration":247826,"Delta":35087024},{"NoteNumber":73,"Velocity":85,"Duration":247826,"SoundDuration":247826,"Delta":35087024},{"NoteNumber":45,"Velocity":72,"Duration":247826,"SoundDuration":247826,"Delta":35087024},{"NoteNumber":65,"Velocity":77,"Duration":496857,"SoundDuration":496857,"Delta":35347894},{"NoteNumber":69,"Velocity":77,"Duration":496857,"SoundDuration":496857,"Delta":35347894},{"NoteNumber":74,"Velocity":91,"Duration":496857,"SoundDuration":496857,"Delta":35347894},{"NoteNumber":50,"Velocity":86,"Duration":121951,"SoundDuration":121951,"Delta":35347894},{"NoteNumber":52,"Velocity":73,"Duration":121951,"SoundDuration":121951,"Delta":35469845},{"NoteNumber":50,"Velocity":78,"Duration":121951,"SoundDuration":121951,"Delta":35591796},{"NoteNumber":52,"Velocity":69,"Duration":131004,"SoundDuration":131004,"Delta":35713748},{"NoteNumber":65,"Velocity":81,"Duration":119047,"SoundDuration":119047,"Delta":35844752},{"NoteNumber":53,"Velocity":71,"Duration":119047,"SoundDuration":119047,"Delta":35844752},{"NoteNumber":64,"Velocity":72,"Duration":119047,"SoundDuration":119047,"Delta":35963799},{"NoteNumber":52,"Velocity":63,"Duration":119047,"SoundDuration":119047,"Delta":35963799},{"NoteNumber":65,"Velocity":80,"Duration":119047,"SoundDuration":119047,"Delta":36082847},{"NoteNumber":53,"Velocity":70,"Duration":119047,"SoundDuration":119047,"Delta":36082847},{"NoteNumber":64,"Velocity":72,"Duration":125523,"SoundDuration":125523,"Delta":36201894},{"NoteNumber":52,"Velocity":63,"Duration":125523,"SoundDuration":125523,"Delta":36201894},{"NoteNumber":62,"Velocity":84,"Duration":234375,"SoundDuration":234375,"Delta":36327417},{"NoteNumber":50,"Velocity":73,"Duration":234375,"SoundDuration":234375,"Delta":36327417},{"NoteNumber":64,"Velocity":72,"Duration":128205,"SoundDuration":128205,"Delta":36561792},{"NoteNumber":52,"Velocity":63,"Duration":128205,"SoundDuration":128205,"Delta":36561792},{"NoteNumber":65,"Velocity":82,"Duration":232557,"SoundDuration":232557,"Delta":36818203},{"NoteNumber":53,"Velocity":72,"Duration":232557,"SoundDuration":232557,"Delta":36818203},{"NoteNumber":69,"Velocity":72,"Duration":122449,"SoundDuration":122449,"Delta":37050761},{"NoteNumber":57,"Velocity":63,"Duration":122449,"SoundDuration":122449,"Delta":37050761},{"NoteNumber":74,"Velocity":82,"Duration":233463,"SoundDuration":233463,"Delta":37295659},{"NoteNumber":62,"Velocity":72,"Duration":233463,"SoundDuration":233463,"Delta":37295659},{"NoteNumber":76,"Velocity":72,"Duration":121951,"SoundDuration":121951,"Delta":37529122},{"NoteNumber":64,"Velocity":63,"Duration":121951,"SoundDuration":121951,"Delta":37529122},{"NoteNumber":77,"Velocity":82,"Duration":239043,"SoundDuration":239043,"Delta":37773024},{"NoteNumber":65,"Velocity":72,"Duration":239043,"SoundDuration":239043,"Delta":37773024},{"NoteNumber":81,"Velocity":72,"Duration":146341,"SoundDuration":146341,"Delta":38012068},{"NoteNumber":69,"Velocity":63,"Duration":146341,"SoundDuration":146341,"Delta":38012068},{"NoteNumber":71,"Velocity":71,"Duration":237499,"SoundDuration":237499,"Delta":38304751},{"NoteNumber":76,"Velocity":71,"Duration":237499,"SoundDuration":237499,"Delta":38304751},{"NoteNumber":80,"Velocity":85,"Duration":237499,"SoundDuration":237499,"Delta":38304751},{"NoteNumber":64,"Velocity":70,"Duration":237499,"SoundDuration":237499,"Delta":38304751},{"NoteNumber":71,"Velocity":67,"Duration":283582,"SoundDuration":283582,"Delta":38554751},{"NoteNumber":76,"Velocity":67,"Duration":283582,"SoundDuration":283582,"Delta":38554751},{"NoteNumber":80,"Velocity":80,"Duration":283582,"SoundDuration":283582,"Delta":38554751},{"NoteNumber":64,"Velocity":63,"Duration":283582,"SoundDuration":283582,"Delta":38554751},{"NoteNumber":72,"Velocity":77,"Duration":575208,"SoundDuration":575208,"Delta":38853259},{"NoteNumber":76,"Velocity":77,"Duration":575208,"SoundDuration":575208,"Delta":38853259},{"NoteNumber":81,"Velocity":92,"Duration":575208,"SoundDuration":575208,"Delta":38853259},{"NoteNumber":69,"Velocity":73,"Duration":575208,"SoundDuration":575208,"Delta":38853259},{"NoteNumber":69,"Velocity":37,"Duration":125049,"SoundDuration":125049,"Delta":39428467},{"NoteNumber":53,"Velocity":34,"Duration":125049,"SoundDuration":125049,"Delta":39428467},{"NoteNumber":65,"Velocity":29,"Duration":123466,"SoundDuration":123466,"Delta":39553516},{"NoteNumber":57,"Velocity":27,"Duration":123466,"SoundDuration":123466,"Delta":39553516},{"NoteNumber":69,"Velocity":40,"Duration":122076,"SoundDuration":122076,"Delta":39676983},{"NoteNumber":53,"Velocity":35,"Duration":122076,"SoundDuration":122076,"Delta":39676983},{"NoteNumber":65,"Velocity":33,"Duration":120616,"SoundDuration":120616,"Delta":39799060},{"NoteNumber":57,"Velocity":27,"Duration":120616,"SoundDuration":120616,"Delta":39799060},{"NoteNumber":69,"Velocity":41,"Duration":119553,"SoundDuration":119553,"Delta":39919677},{"NoteNumber":53,"Velocity":36,"Duration":119553,"SoundDuration":119553,"Delta":39919677},{"NoteNumber":65,"Velocity":35,"Duration":126582,"SoundDuration":126582,"Delta":40039230},{"NoteNumber":57,"Velocity":32,"Duration":126582,"SoundDuration":126582,"Delta":40039230},{"NoteNumber":67,"Velocity":44,"Duration":120482,"SoundDuration":120482,"Delta":40165813},{"NoteNumber":48,"Velocity":38,"Duration":120482,"SoundDuration":120482,"Delta":40165813},{"NoteNumber":64,"Velocity":39,"Duration":125523,"SoundDuration":125523,"Delta":40286295},{"NoteNumber":55,"Velocity":31,"Duration":125523,"SoundDuration":125523,"Delta":40286295},{"NoteNumber":69,"Velocity":47,"Duration":119999,"SoundDuration":119999,"Delta":40411818},{"NoteNumber":53,"Velocity":40,"Duration":119999,"SoundDuration":119999,"Delta":40411818},{"NoteNumber":65,"Velocity":42,"Duration":120000,"SoundDuration":120000,"Delta":40531818},{"NoteNumber":57,"Velocity":36,"Duration":120000,"SoundDuration":120000,"Delta":40531818},{"NoteNumber":70,"Velocity":45,"Duration":119999,"SoundDuration":119999,"Delta":40651818},{"NoteNumber":55,"Velocity":40,"Duration":119999,"SoundDuration":119999,"Delta":40651818},{"NoteNumber":67,"Velocity":48,"Duration":129870,"SoundDuration":129870,"Delta":40771818},{"NoteNumber":58,"Velocity":35,"Duration":129870,"SoundDuration":129870,"Delta":40771818},{"NoteNumber":72,"Velocity":51,"Duration":120482,"SoundDuration":120482,"Delta":40901688},{"NoteNumber":57,"Velocity":44,"Duration":120482,"SoundDuration":120482,"Delta":40901688},{"NoteNumber":69,"Velocity":48,"Duration":120481,"SoundDuration":120481,"Delta":41022170},{"NoteNumber":60,"Velocity":40,"Duration":120481,"SoundDuration":120481,"Delta":41022170},{"NoteNumber":67,"Velocity":46,"Duration":120482,"SoundDuration":120482,"Delta":41142652},{"NoteNumber":48,"Velocity":36,"Duration":120482,"SoundDuration":120482,"Delta":41142652},{"NoteNumber":64,"Velocity":44,"Duration":128243,"SoundDuration":128243,"Delta":41263134},{"NoteNumber":55,"Velocity":36,"Duration":128243,"SoundDuration":128243,"Delta":41263134},{"NoteNumber":69,"Velocity":37,"Duration":121807,"SoundDuration":121807,"Delta":41391377},{"NoteNumber":53,"Velocity":34,"Duration":121807,"SoundDuration":121807,"Delta":41391377},{"NoteNumber":65,"Velocity":30,"Duration":121216,"SoundDuration":121216,"Delta":41513184},{"NoteNumber":57,"Velocity":28,"Duration":121216,"SoundDuration":121216,"Delta":41513184},{"NoteNumber":69,"Velocity":40,"Duration":120631,"SoundDuration":120631,"Delta":41634401},{"NoteNumber":53,"Velocity":35,"Duration":120631,"SoundDuration":120631,"Delta":41634401},{"NoteNumber":65,"Velocity":35,"Duration":120008,"SoundDuration":120008,"Delta":41755033},{"NoteNumber":57,"Velocity":29,"Duration":120008,"SoundDuration":120008,"Delta":41755033},{"NoteNumber":69,"Velocity":41,"Duration":119521,"SoundDuration":119521,"Delta":41875041},{"NoteNumber":53,"Velocity":36,"Duration":119521,"SoundDuration":119521,"Delta":41875041},{"NoteNumber":65,"Velocity":37,"Duration":126582,"SoundDuration":126582,"Delta":41994563},{"NoteNumber":57,"Velocity":31,"Duration":126582,"SoundDuration":126582,"Delta":41994563},{"NoteNumber":67,"Velocity":44,"Duration":120482,"SoundDuration":120482,"Delta":42121145},{"NoteNumber":48,"Velocity":38,"Duration":120482,"SoundDuration":120482,"Delta":42121145},{"NoteNumber":64,"Velocity":39,"Duration":125523,"SoundDuration":125523,"Delta":42241627},{"NoteNumber":55,"Velocity":31,"Duration":125523,"SoundDuration":125523,"Delta":42241627},{"NoteNumber":69,"Velocity":47,"Duration":119999,"SoundDuration":119999,"Delta":42367150},{"NoteNumber":53,"Velocity":40,"Duration":119999,"SoundDuration":119999,"Delta":42367150},{"NoteNumber":65,"Velocity":42,"Duration":120000,"SoundDuration":120000,"Delta":42487150},{"NoteNumber":57,"Velocity":36,"Duration":120000,"SoundDuration":120000,"Delta":42487150},{"NoteNumber":70,"Velocity":45,"Duration":119999,"SoundDuration":119999,"Delta":42607150},{"NoteNumber":55,"Velocity":40,"Duration":119999,"SoundDuration":119999,"Delta":42607150},{"NoteNumber":67,"Velocity":48,"Duration":129870,"SoundDuration":129870,"Delta":42727150},{"NoteNumber":58,"Velocity":35,"Duration":129870,"SoundDuration":129870,"Delta":42727150},{"NoteNumber":72,"Velocity":51,"Duration":119791,"SoundDuration":119791,"Delta":42857021},{"NoteNumber":57,"Velocity":44,"Duration":119791,"SoundDuration":119791,"Delta":42857021},{"NoteNumber":69,"Velocity":52,"Duration":121704,"SoundDuration":121704,"Delta":42976812},{"NoteNumber":60,"Velocity":40,"Duration":121704,"SoundDuration":121704,"Delta":42976812},{"NoteNumber":74,"Velocity":57,"Duration":124458,"SoundDuration":124458,"Delta":43098517},{"NoteNumber":55,"Velocity":48,"Duration":124458,"SoundDuration":124458,"Delta":43098517},{"NoteNumber":71,"Velocity":51,"Duration":126546,"SoundDuration":126546,"Delta":43222975},{"NoteNumber":59,"Velocity":43,"Duration":126546,"SoundDuration":126546,"Delta":43222975},{"NoteNumber":76,"Velocity":58,"Duration":122522,"SoundDuration":122522,"Delta":43349522},{"NoteNumber":60,"Velocity":50,"Duration":122522,"SoundDuration":122522,"Delta":43349522},{"NoteNumber":72,"Velocity":47,"Duration":121169,"SoundDuration":121169,"Delta":43472045},{"NoteNumber":64,"Velocity":41,"Duration":121169,"SoundDuration":121169,"Delta":43472045},{"NoteNumber":76,"Velocity":55,"Duration":119662,"SoundDuration":119662,"Delta":43593214},{"NoteNumber":60,"Velocity":40,"Duration":119662,"SoundDuration":119662,"Delta":43593214},{"NoteNumber":72,"Velocity":47,"Duration":118608,"SoundDuration":118608,"Delta":43712877},{"NoteNumber":64,"Velocity":33,"Duration":118608,"SoundDuration":118608,"Delta":43712877},{"NoteNumber":76,"Velocity":52,"Duration":118577,"SoundDuration":118577,"Delta":43831485},{"NoteNumber":60,"Velocity":40,"Duration":118577,"SoundDuration":118577,"Delta":43831485},{"NoteNumber":72,"Velocity":40,"Duration":126582,"SoundDuration":126582,"Delta":43950062},{"NoteNumber":64,"Velocity":35,"Duration":126582,"SoundDuration":126582,"Delta":43950062},{"NoteNumber":74,"Velocity":46,"Duration":120482,"SoundDuration":120482,"Delta":44076644},{"NoteNumber":55,"Velocity":40,"Duration":120482,"SoundDuration":120482,"Delta":44076644},{"NoteNumber":71,"Velocity":40,"Duration":125523,"SoundDuration":125523,"Delta":44197126},{"NoteNumber":62,"Velocity":32,"Duration":125523,"SoundDuration":125523,"Delta":44197126},{"NoteNumber":76,"Velocity":47,"Duration":119999,"SoundDuration":119999,"Delta":44322649},{"NoteNumber":60,"Velocity":40,"Duration":119999,"SoundDuration":119999,"Delta":44322649},{"NoteNumber":72,"Velocity":42,"Duration":120000,"SoundDuration":120000,"Delta":44442649},{"NoteNumber":64,"Velocity":36,"Duration":120000,"SoundDuration":120000,"Delta":44442649},{"NoteNumber":77,"Velocity":45,"Duration":119999,"SoundDuration":119999,"Delta":44562649},{"NoteNumber":62,"Velocity":40,"Duration":119999,"SoundDuration":119999,"Delta":44562649},{"NoteNumber":74,"Velocity":48,"Duration":129870,"SoundDuration":129870,"Delta":44682649},{"NoteNumber":65,"Velocity":35,"Duration":129870,"SoundDuration":129870,"Delta":44682649},{"NoteNumber":79,"Velocity":51,"Duration":120482,"SoundDuration":120482,"Delta":44812519},{"NoteNumber":64,"Velocity":44,"Duration":120482,"SoundDuration":120482,"Delta":44812519},{"NoteNumber":76,"Velocity":48,"Duration":120481,"SoundDuration":120481,"Delta":44933001},{"NoteNumber":67,"Velocity":37,"Duration":120481,"SoundDuration":120481,"Delta":44933001},{"NoteNumber":74,"Velocity":46,"Duration":120482,"SoundDuration":120482,"Delta":45053483},{"NoteNumber":55,"Velocity":38,"Duration":120482,"SoundDuration":120482,"Delta":45053483},{"NoteNumber":71,"Velocity":44,"Duration":130434,"SoundDuration":130434,"Delta":45173965},{"NoteNumber":62,"Velocity":40,"Duration":130434,"SoundDuration":130434,"Delta":45173965},{"NoteNumber":76,"Velocity":51,"Duration":119999,"SoundDuration":119999,"Delta":45304400},{"NoteNumber":60,"Velocity":44,"Duration":119999,"SoundDuration":119999,"Delta":45304400},{"NoteNumber":72,"Velocity":43,"Duration":120000,"SoundDuration":120000,"Delta":45424400},{"NoteNumber":64,"Velocity":33,"Duration":120000,"SoundDuration":120000,"Delta":45424400},{"NoteNumber":76,"Velocity":49,"Duration":119999,"SoundDuration":119999,"Delta":45544400},{"NoteNumber":60,"Velocity":39,"Duration":119999,"SoundDuration":119999,"Delta":45544400},{"NoteNumber":72,"Velocity":40,"Duration":119999,"SoundDuration":119999,"Delta":45664400},{"NoteNumber":64,"Velocity":33,"Duration":119999,"SoundDuration":119999,"Delta":45664400},{"NoteNumber":76,"Velocity":49,"Duration":120000,"SoundDuration":120000,"Delta":45784400},{"NoteNumber":60,"Velocity":40,"Duration":120000,"SoundDuration":120000,"Delta":45784400},{"NoteNumber":72,"Velocity":40,"Duration":126582,"SoundDuration":126582,"Delta":45904400},{"NoteNumber":64,"Velocity":35,"Duration":126582,"SoundDuration":126582,"Delta":45904400},{"NoteNumber":74,"Velocity":46,"Duration":120482,"SoundDuration":120482,"Delta":46030982},{"NoteNumber":55,"Velocity":40,"Duration":120482,"SoundDuration":120482,"Delta":46030982},{"NoteNumber":71,"Velocity":40,"Duration":125523,"SoundDuration":125523,"Delta":46151464},{"NoteNumber":62,"Velocity":32,"Duration":125523,"SoundDuration":125523,"Delta":46151464},{"NoteNumber":76,"Velocity":47,"Duration":119999,"SoundDuration":119999,"Delta":46276987},{"NoteNumber":60,"Velocity":40,"Duration":119999,"SoundDuration":119999,"Delta":46276987},{"NoteNumber":72,"Velocity":42,"Duration":120000,"SoundDuration":120000,"Delta":46396987},{"NoteNumber":64,"Velocity":36,"Duration":120000,"SoundDuration":120000,"Delta":46396987},{"NoteNumber":74,"Velocity":45,"Duration":119999,"SoundDuration":119999,"Delta":46516987},{"NoteNumber":62,"Velocity":40,"Duration":119999,"SoundDuration":119999,"Delta":46516987},{"NoteNumber":71,"Velocity":41,"Duration":128748,"SoundDuration":128748,"Delta":46636987},{"NoteNumber":65,"Velocity":35,"Duration":128748,"SoundDuration":128748,"Delta":46636987},{"NoteNumber":72,"Velocity":48,"Duration":121944,"SoundDuration":121944,"Delta":46765736},{"NoteNumber":64,"Velocity":44,"Duration":245115,"SoundDuration":245115,"Delta":46765736},{"NoteNumber":67,"Velocity":40,"Duration":123170,"SoundDuration":123170,"Delta":46887680},{"NoteNumber":70,"Velocity":40,"Duration":124555,"SoundDuration":124555,"Delta":47010851},{"NoteNumber":67,"Velocity":36,"Duration":130434,"SoundDuration":130434,"Delta":47135407},{"NoteNumber":69,"Velocity":37,"Duration":123078,"SoundDuration":123078,"Delta":47265842},{"NoteNumber":53,"Velocity":34,"Duration":123078,"SoundDuration":123078,"Delta":47265842},{"NoteNumber":65,"Velocity":32,"Duration":122375,"SoundDuration":122375,"Delta":47388921},{"NoteNumber":57,"Velocity":29,"Duration":122375,"SoundDuration":122375,"Delta":47388921},{"NoteNumber":69,"Velocity":40,"Duration":121503,"SoundDuration":121503,"Delta":47511296},{"NoteNumber":53,"Velocity":35,"Duration":121503,"SoundDuration":121503,"Delta":47511296},{"NoteNumber":65,"Velocity":34,"Duration":120487,"SoundDuration":120487,"Delta":47632799},{"NoteNumber":57,"Velocity":29,"Duration":120487,"SoundDuration":120487,"Delta":47632799},{"NoteNumber":69,"Velocity":41,"Duration":119999,"SoundDuration":119999,"Delta":47753286},{"NoteNumber":53,"Velocity":36,"Duration":119999,"SoundDuration":119999,"Delta":47753286},{"NoteNumber":65,"Velocity":37,"Duration":126582,"SoundDuration":126582,"Delta":47873286},{"NoteNumber":57,"Velocity":32,"Duration":126582,"SoundDuration":126582,"Delta":47873286},{"NoteNumber":67,"Velocity":44,"Duration":120482,"SoundDuration":120482,"Delta":47999869},{"NoteNumber":48,"Velocity":38,"Duration":120482,"SoundDuration":120482,"Delta":47999869},{"NoteNumber":64,"Velocity":39,"Duration":125523,"SoundDuration":125523,"Delta":48120351},{"NoteNumber":55,"Velocity":31,"Duration":125523,"SoundDuration":125523,"Delta":48120351},{"NoteNumber":69,"Velocity":47,"Duration":119999,"SoundDuration":119999,"Delta":48245874},{"NoteNumber":53,"Velocity":40,"Duration":119999,"SoundDuration":119999,"Delta":48245874},{"NoteNumber":65,"Velocity":42,"Duration":120000,"SoundDuration":120000,"Delta":48365874},{"NoteNumber":57,"Velocity":36,"Duration":120000,"SoundDuration":120000,"Delta":48365874},{"NoteNumber":70,"Velocity":45,"Duration":119999,"SoundDuration":119999,"Delta":48485874},{"NoteNumber":55,"Velocity":40,"Duration":119999,"SoundDuration":119999,"Delta":48485874},{"NoteNumber":67,"Velocity":48,"Duration":129870,"SoundDuration":129870,"Delta":48605874},{"NoteNumber":58,"Velocity":35,"Duration":129870,"SoundDuration":129870,"Delta":48605874},{"NoteNumber":72,"Velocity":51,"Duration":120482,"SoundDuration":120482,"Delta":48735744},{"NoteNumber":57,"Velocity":44,"Duration":120482,"SoundDuration":120482,"Delta":48735744},{"NoteNumber":69,"Velocity":48,"Duration":120481,"SoundDuration":120481,"Delta":48856226},{"NoteNumber":60,"Velocity":40,"Duration":120481,"SoundDuration":120481,"Delta":48856226},{"NoteNumber":67,"Velocity":45,"Duration":120482,"SoundDuration":120482,"Delta":48976708},{"NoteNumber":48,"Velocity":38,"Duration":120482,"SoundDuration":120482,"Delta":48976708},{"NoteNumber":64,"Velocity":42,"Duration":129795,"SoundDuration":129795,"Delta":49097190},{"NoteNumber":55,"Velocity":36,"Duration":129795,"SoundDuration":129795,"Delta":49097190},{"NoteNumber":69,"Velocity":37,"Duration":123224,"SoundDuration":123224,"Delta":49226985},{"NoteNumber":53,"Velocity":34,"Duration":123224,"SoundDuration":123224,"Delta":49226985},{"NoteNumber":65,"Velocity":34,"Duration":122295,"SoundDuration":122295,"Delta":49350210},{"NoteNumber":57,"Velocity":29,"Duration":122295,"SoundDuration":122295,"Delta":49350210},{"NoteNumber":69,"Velocity":40,"Duration":121421,"SoundDuration":121421,"Delta":49472505},{"NoteNumber":53,"Velocity":35,"Duration":121421,"SoundDuration":121421,"Delta":49472505},{"NoteNumber":65,"Velocity":36,"Duration":120567,"SoundDuration":120567,"Delta":49593927},{"NoteNumber":57,"Velocity":29,"Duration":120567,"SoundDuration":120567,"Delta":49593927},{"NoteNumber":69,"Velocity":41,"Duration":119641,"SoundDuration":119641,"Delta":49714494},{"NoteNumber":53,"Velocity":36,"Duration":119641,"SoundDuration":119641,"Delta":49714494},{"NoteNumber":65,"Velocity":37,"Duration":126582,"SoundDuration":126582,"Delta":49834136},{"NoteNumber":57,"Velocity":32,"Duration":126582,"SoundDuration":126582,"Delta":49834136},{"NoteNumber":67,"Velocity":44,"Duration":120482,"SoundDuration":120482,"Delta":49960718},{"NoteNumber":48,"Velocity":38,"Duration":120482,"SoundDuration":120482,"Delta":49960718},{"NoteNumber":64,"Velocity":39,"Duration":125523,"SoundDuration":125523,"Delta":50081200},{"NoteNumber":55,"Velocity":31,"Duration":125523,"SoundDuration":125523,"Delta":50081200},{"NoteNumber":69,"Velocity":47,"Duration":119999,"SoundDuration":119999,"Delta":50206723},{"NoteNumber":53,"Velocity":40,"Duration":119999,"SoundDuration":119999,"Delta":50206723},{"NoteNumber":65,"Velocity":42,"Duration":120000,"SoundDuration":120000,"Delta":50326723},{"NoteNumber":57,"Velocity":36,"Duration":120000,"SoundDuration":120000,"Delta":50326723},{"NoteNumber":70,"Velocity":45,"Duration":119999,"SoundDuration":119999,"Delta":50446723},{"NoteNumber":55,"Velocity":40,"Duration":119999,"SoundDuration":119999,"Delta":50446723},{"NoteNumber":67,"Velocity":48,"Duration":129870,"SoundDuration":129870,"Delta":50566723},{"NoteNumber":58,"Velocity":35,"Duration":129870,"SoundDuration":129870,"Delta":50566723},{"NoteNumber":72,"Velocity":51,"Duration":119791,"SoundDuration":119791,"Delta":50696594},{"NoteNumber":57,"Velocity":44,"Duration":119791,"SoundDuration":119791,"Delta":50696594},{"NoteNumber":69,"Velocity":52,"Duration":121704,"SoundDuration":121704,"Delta":50816385},{"NoteNumber":60,"Velocity":40,"Duration":121704,"SoundDuration":121704,"Delta":50816385},{"NoteNumber":74,"Velocity":57,"Duration":124410,"SoundDuration":124410,"Delta":50938090},{"NoteNumber":55,"Velocity":48,"Duration":124410,"SoundDuration":124410,"Delta":50938090},{"NoteNumber":71,"Velocity":51,"Duration":129181,"SoundDuration":129181,"Delta":51062500},{"NoteNumber":59,"Velocity":43,"Duration":129181,"SoundDuration":129181,"Delta":51062500},{"NoteNumber":76,"Velocity":58,"Duration":123054,"SoundDuration":123054,"Delta":51191682},{"NoteNumber":60,"Velocity":50,"Duration":123054,"SoundDuration":123054,"Delta":51191682},{"NoteNumber":72,"Velocity":47,"Duration":121169,"SoundDuration":121169,"Delta":51314736},{"NoteNumber":64,"Velocity":41,"Duration":121169,"SoundDuration":121169,"Delta":51314736},{"NoteNumber":76,"Velocity":55,"Duration":119662,"SoundDuration":119662,"Delta":51435905},{"NoteNumber":60,"Velocity":40,"Duration":119662,"SoundDuration":119662,"Delta":51435905},{"NoteNumber":72,"Velocity":47,"Duration":118608,"SoundDuration":118608,"Delta":51555568},{"NoteNumber":64,"Velocity":33,"Duration":118608,"SoundDuration":118608,"Delta":51555568},{"NoteNumber":76,"Velocity":52,"Duration":118577,"SoundDuration":118577,"Delta":51674176},{"NoteNumber":60,"Velocity":40,"Duration":118577,"SoundDuration":118577,"Delta":51674176},{"NoteNumber":72,"Velocity":40,"Duration":126582,"SoundDuration":126582,"Delta":51792753},{"NoteNumber":64,"Velocity":35,"Duration":126582,"SoundDuration":126582,"Delta":51792753},{"NoteNumber":74,"Velocity":46,"Duration":120482,"SoundDuration":120482,"Delta":51919335},{"NoteNumber":55,"Velocity":40,"Duration":120482,"SoundDuration":120482,"Delta":51919335},{"NoteNumber":71,"Velocity":40,"Duration":125523,"SoundDuration":125523,"Delta":52039817},{"NoteNumber":62,"Velocity":32,"Duration":125523,"SoundDuration":125523,"Delta":52039817},{"NoteNumber":76,"Velocity":47,"Duration":119999,"SoundDuration":119999,"Delta":52165340},{"NoteNumber":60,"Velocity":40,"Duration":119999,"SoundDuration":119999,"Delta":52165340},{"NoteNumber":72,"Velocity":42,"Duration":120000,"SoundDuration":120000,"Delta":52285340},{"NoteNumber":64,"Velocity":36,"Duration":120000,"SoundDuration":120000,"Delta":52285340},{"NoteNumber":77,"Velocity":45,"Duration":119999,"SoundDuration":119999,"Delta":52405340},{"NoteNumber":62,"Velocity":40,"Duration":119999,"SoundDuration":119999,"Delta":52405340},{"NoteNumber":74,"Velocity":48,"Duration":129870,"SoundDuration":129870,"Delta":52525340},{"NoteNumber":65,"Velocity":35,"Duration":129870,"SoundDuration":129870,"Delta":52525340},{"NoteNumber":79,"Velocity":55,"Duration":120482,"SoundDuration":120482,"Delta":52655211},{"NoteNumber":64,"Velocity":44,"Duration":120482,"SoundDuration":120482,"Delta":52655211},{"NoteNumber":76,"Velocity":48,"Duration":120481,"SoundDuration":120481,"Delta":52775693},{"NoteNumber":67,"Velocity":37,"Duration":120481,"SoundDuration":120481,"Delta":52775693},{"NoteNumber":74,"Velocity":46,"Duration":120482,"SoundDuration":120482,"Delta":52896175},{"NoteNumber":55,"Velocity":38,"Duration":120482,"SoundDuration":120482,"Delta":52896175},{"NoteNumber":71,"Velocity":44,"Duration":130434,"SoundDuration":130434,"Delta":53016657},{"NoteNumber":62,"Velocity":40,"Duration":130434,"SoundDuration":130434,"Delta":53016657},{"NoteNumber":76,"Velocity":51,"Duration":119999,"SoundDuration":119999,"Delta":53147091},{"NoteNumber":60,"Velocity":44,"Duration":119999,"SoundDuration":119999,"Delta":53147091},{"NoteNumber":72,"Velocity":43,"Duration":120000,"SoundDuration":120000,"Delta":53267091},{"NoteNumber":64,"Velocity":33,"Duration":120000,"SoundDuration":120000,"Delta":53267091},{"NoteNumber":76,"Velocity":49,"Duration":119999,"SoundDuration":119999,"Delta":53387091},{"NoteNumber":60,"Velocity":39,"Duration":119999,"SoundDuration":119999,"Delta":53387091},{"NoteNumber":72,"Velocity":40,"Duration":119999,"SoundDuration":119999,"Delta":53507091},{"NoteNumber":64,"Velocity":33,"Duration":119999,"SoundDuration":119999,"Delta":53507091},{"NoteNumber":76,"Velocity":45,"Duration":120000,"SoundDuration":120000,"Delta":53627091},{"NoteNumber":60,"Velocity":40,"Duration":120000,"SoundDuration":120000,"Delta":53627091},{"NoteNumber":72,"Velocity":42,"Duration":126582,"SoundDuration":126582,"Delta":53747091},{"NoteNumber":64,"Velocity":35,"Duration":126582,"SoundDuration":126582,"Delta":53747091},{"NoteNumber":74,"Velocity":46,"Duration":120482,"SoundDuration":120482,"Delta":53873674},{"NoteNumber":55,"Velocity":40,"Duration":120482,"SoundDuration":120482,"Delta":53873674},{"NoteNumber":71,"Velocity":40,"Duration":125523,"SoundDuration":125523,"Delta":53994156},{"NoteNumber":62,"Velocity":32,"Duration":125523,"SoundDuration":125523,"Delta":53994156},{"NoteNumber":76,"Velocity":47,"Duration":119999,"SoundDuration":119999,"Delta":54119679},{"NoteNumber":60,"Velocity":40,"Duration":119999,"SoundDuration":119999,"Delta":54119679},{"NoteNumber":72,"Velocity":42,"Duration":120000,"SoundDuration":120000,"Delta":54239679},{"NoteNumber":64,"Velocity":36,"Duration":120000,"SoundDuration":120000,"Delta":54239679},{"NoteNumber":74,"Velocity":45,"Duration":119999,"SoundDuration":119999,"Delta":54359679},{"NoteNumber":62,"Velocity":40,"Duration":119999,"SoundDuration":119999,"Delta":54359679},{"NoteNumber":71,"Velocity":41,"Duration":128748,"SoundDuration":128748,"Delta":54479679},{"NoteNumber":65,"Velocity":35,"Duration":128748,"SoundDuration":128748,"Delta":54479679},{"NoteNumber":72,"Velocity":48,"Duration":121944,"SoundDuration":121944,"Delta":54608427},{"NoteNumber":64,"Velocity":44,"Duration":245115,"SoundDuration":245115,"Delta":54608427},{"NoteNumber":67,"Velocity":40,"Duration":123170,"SoundDuration":123170,"Delta":54730372},{"NoteNumber":70,"Velocity":40,"Duration":124555,"SoundDuration":124555,"Delta":54853542},{"NoteNumber":67,"Velocity":40,"Duration":130434,"SoundDuration":130434,"Delta":54978098},{"NoteNumber":70,"Velocity":47,"Duration":121457,"SoundDuration":121457,"Delta":55108533},{"NoteNumber":36,"Velocity":78,"Duration":724842,"SoundDuration":724842,"Delta":55108533},{"NoteNumber":67,"Velocity":40,"Duration":121457,"SoundDuration":121457,"Delta":55229991},{"NoteNumber":70,"Velocity":47,"Duration":120482,"SoundDuration":120482,"Delta":55351448},{"NoteNumber":67,"Velocity":40,"Duration":120481,"SoundDuration":120481,"Delta":55471930},{"NoteNumber":70,"Velocity":47,"Duration":120482,"SoundDuration":120482,"Delta":55592412},{"NoteNumber":67,"Velocity":41,"Duration":120482,"SoundDuration":120482,"Delta":55712894},{"NoteNumber":70,"Velocity":47,"Duration":120481,"SoundDuration":120481,"Delta":55833376},{"NoteNumber":37,"Velocity":58,"Duration":247064,"SoundDuration":247064,"Delta":55833376},{"NoteNumber":67,"Velocity":42,"Duration":126582,"SoundDuration":126582,"Delta":55953858},{"NoteNumber":70,"Velocity":47,"Duration":121457,"SoundDuration":121457,"Delta":56080440},{"NoteNumber":36,"Velocity":70,"Duration":242915,"SoundDuration":242915,"Delta":56080440},{"NoteNumber":67,"Velocity":41,"Duration":121457,"SoundDuration":121457,"Delta":56201898},{"NoteNumber":70,"Velocity":47,"Duration":121457,"SoundDuration":121457,"Delta":56323355},{"NoteNumber":44,"Velocity":61,"Duration":242914,"SoundDuration":242914,"Delta":56323355},{"NoteNumber":67,"Velocity":42,"Duration":121457,"SoundDuration":121457,"Delta":56444813},{"NoteNumber":70,"Velocity":47,"Duration":121457,"SoundDuration":121457,"Delta":56566270},{"NoteNumber":43,"Velocity":66,"Duration":496531,"SoundDuration":496531,"Delta":56566270},{"NoteNumber":67,"Velocity":41,"Duration":121457,"SoundDuration":121457,"Delta":56687728},{"NoteNumber":70,"Velocity":47,"Duration":121457,"SoundDuration":121457,"Delta":56809185},{"NoteNumber":67,"Velocity":42,"Duration":132158,"SoundDuration":132158,"Delta":56930643},{"NoteNumber":68,"Velocity":47,"Duration":120482,"SoundDuration":120482,"Delta":57062801},{"NoteNumber":36,"Velocity":80,"Duration":717154,"SoundDuration":717154,"Delta":57062801},{"NoteNumber":65,"Velocity":40,"Duration":120481,"SoundDuration":120481,"Delta":57183283},{"NoteNumber":68,"Velocity":47,"Duration":119047,"SoundDuration":119047,"Delta":57303765},{"NoteNumber":65,"Velocity":40,"Duration":119047,"SoundDuration":119047,"Delta":57422813},{"NoteNumber":68,"Velocity":49,"Duration":119047,"SoundDuration":119047,"Delta":57541860},{"NoteNumber":65,"Velocity":43,"Duration":119047,"SoundDuration":119047,"Delta":57660908},{"NoteNumber":68,"Velocity":52,"Duration":119047,"SoundDuration":119047,"Delta":57779955},{"NoteNumber":37,"Velocity":66,"Duration":244570,"SoundDuration":244570,"Delta":57779955},{"NoteNumber":65,"Velocity":48,"Duration":125523,"SoundDuration":125523,"Delta":57899003},{"NoteNumber":68,"Velocity":57,"Duration":119999,"SoundDuration":119999,"Delta":58024526},{"NoteNumber":36,"Velocity":78,"Duration":240000,"SoundDuration":240000,"Delta":58024526},{"NoteNumber":65,"Velocity":49,"Duration":120000,"SoundDuration":120000,"Delta":58144526},{"NoteNumber":68,"Velocity":54,"Duration":119999,"SoundDuration":119999,"Delta":58264526},{"NoteNumber":46,"Velocity":66,"Duration":239999,"SoundDuration":239999,"Delta":58264526},{"NoteNumber":65,"Velocity":42,"Duration":119999,"SoundDuration":119999,"Delta":58384526},{"NoteNumber":68,"Velocity":47,"Duration":120000,"SoundDuration":120000,"Delta":58504526},{"NoteNumber":44,"Velocity":76,"Duration":500187,"SoundDuration":500187,"Delta":58504526},{"NoteNumber":65,"Velocity":41,"Duration":119999,"SoundDuration":119999,"Delta":58624526},{"NoteNumber":68,"Velocity":47,"Duration":120000,"SoundDuration":120000,"Delta":58744526},{"NoteNumber":65,"Velocity":37,"Duration":140186,"SoundDuration":140186,"Delta":58864526},{"NoteNumber":65,"Velocity":45,"Duration":722232,"SoundDuration":722232,"Delta":59004713},{"NoteNumber":61,"Velocity":41,"Duration":119999,"SoundDuration":119999,"Delta":59004713},{"NoteNumber":49,"Velocity":46,"Duration":722232,"SoundDuration":722232,"Delta":59004713},{"NoteNumber":56,"Velocity":33,"Duration":120000,"SoundDuration":120000,"Delta":59124713},{"NoteNumber":61,"Velocity":41,"Duration":119999,"SoundDuration":119999,"Delta":59244713},{"NoteNumber":56,"Velocity":34,"Duration":119999,"SoundDuration":119999,"Delta":59364713},{"NoteNumber":61,"Velocity":41,"Duration":121080,"SoundDuration":121080,"Delta":59484713},{"NoteNumber":56,"Velocity":33,"Duration":121151,"SoundDuration":121151,"Delta":59605794},{"NoteNumber":63,"Velocity":42,"Duration":240945,"SoundDuration":240945,"Delta":59726945},{"NoteNumber":60,"Velocity":41,"Duration":120724,"SoundDuration":120724,"Delta":59726945},{"NoteNumber":44,"Velocity":43,"Duration":240945,"SoundDuration":240945,"Delta":59726945},{"NoteNumber":56,"Velocity":34,"Duration":120220,"SoundDuration":120220,"Delta":59847670},{"NoteNumber":61,"Velocity":41,"Duration":119796,"SoundDuration":119796,"Delta":59967891},{"NoteNumber":65,"Velocity":42,"Duration":239097,"SoundDuration":239097,"Delta":59967891},{"NoteNumber":49,"Velocity":46,"Duration":239097,"SoundDuration":239097,"Delta":59967891},{"NoteNumber":56,"Velocity":34,"Duration":119300,"SoundDuration":119300,"Delta":60087688},{"NoteNumber":66,"Velocity":42,"Duration":237284,"SoundDuration":237284,"Delta":60206988},{"NoteNumber":51,"Velocity":42,"Duration":237284,"SoundDuration":237284,"Delta":60206988},{"NoteNumber":56,"Velocity":34,"Duration":118398,"SoundDuration":118398,"Delta":60325875},{"NoteNumber":68,"Velocity":42,"Duration":236801,"SoundDuration":236801,"Delta":60444273},{"NoteNumber":53,"Velocity":46,"Duration":236801,"SoundDuration":236801,"Delta":60444273},{"NoteNumber":56,"Velocity":34,"Duration":118690,"SoundDuration":118690,"Delta":60562383},{"NoteNumber":60,"Velocity":41,"Duration":119375,"SoundDuration":119375,"Delta":60681074},{"NoteNumber":63,"Velocity":42,"Duration":239496,"SoundDuration":239496,"Delta":60681074},{"NoteNumber":44,"Velocity":43,"Duration":239496,"SoundDuration":239496,"Delta":60681074},{"NoteNumber":56,"Velocity":34,"Duration":120120,"SoundDuration":120120,"Delta":60800450},{"NoteNumber":65,"Velocity":42,"Duration":239043,"SoundDuration":239043,"Delta":60920571},{"NoteNumber":49,"Velocity":46,"Duration":239043,"SoundDuration":239043,"Delta":60920571},{"NoteNumber":61,"Velocity":34,"Duration":119522,"SoundDuration":119522,"Delta":61040093},{"NoteNumber":67,"Velocity":46,"Duration":238253,"SoundDuration":238253,"Delta":61159615},{"NoteNumber":49,"Velocity":47,"Duration":238253,"SoundDuration":238253,"Delta":61159615},{"NoteNumber":52,"Velocity":47,"Duration":238253,"SoundDuration":238253,"Delta":61159615},{"NoteNumber":64,"Velocity":38,"Duration":119047,"SoundDuration":119047,"Delta":61278821},{"NoteNumber":68,"Velocity":48,"Duration":237424,"SoundDuration":237424,"Delta":61397868},{"NoteNumber":49,"Velocity":53,"Duration":225566,"SoundDuration":225566,"Delta":61397868},{"NoteNumber":53,"Velocity":53,"Duration":225566,"SoundDuration":225566,"Delta":61397868},{"NoteNumber":65,"Velocity":40,"Duration":118576,"SoundDuration":118576,"Delta":61516716},{"NoteNumber":70,"Velocity":53,"Duration":243173,"SoundDuration":243173,"Delta":61635293},{"NoteNumber":49,"Velocity":59,"Duration":230621,"SoundDuration":230621,"Delta":61635293},{"NoteNumber":53,"Velocity":59,"Duration":230621,"SoundDuration":230621,"Delta":61635293},{"NoteNumber":65,"Velocity":46,"Duration":124596,"SoundDuration":124596,"Delta":61753870},{"NoteNumber":72,"Velocity":55,"Duration":119271,"SoundDuration":119271,"Delta":61878467},{"NoteNumber":48,"Velocity":65,"Duration":237848,"SoundDuration":237848,"Delta":61878467},{"NoteNumber":55,"Velocity":65,"Duration":237848,"SoundDuration":237848,"Delta":61878467},{"NoteNumber":64,"Velocity":44,"Duration":118576,"SoundDuration":118576,"Delta":61997738},{"NoteNumber":70,"Velocity":50,"Duration":118577,"SoundDuration":118577,"Delta":62116315},{"NoteNumber":67,"Velocity":42,"Duration":118367,"SoundDuration":118367,"Delta":62234892},{"NoteNumber":64,"Velocity":47,"Duration":117770,"SoundDuration":117770,"Delta":62353260},{"NoteNumber":60,"Velocity":47,"Duration":118328,"SoundDuration":118328,"Delta":62471030},{"NoteNumber":58,"Velocity":46,"Duration":120700,"SoundDuration":120700,"Delta":62589358},{"NoteNumber":55,"Velocity":45,"Duration":131301,"SoundDuration":131301,"Delta":62710059},{"NoteNumber":69,"Velocity":37,"Duration":124323,"SoundDuration":124323,"Delta":62841361},{"NoteNumber":53,"Velocity":34,"Duration":124323,"SoundDuration":124323,"Delta":62841361},{"NoteNumber":65,"Velocity":27,"Duration":123002,"SoundDuration":123002,"Delta":62965684},{"NoteNumber":57,"Velocity":29,"Duration":123002,"SoundDuration":123002,"Delta":62965684},{"NoteNumber":69,"Velocity":40,"Duration":121758,"SoundDuration":121758,"Delta":63088686},{"NoteNumber":53,"Velocity":35,"Duration":121758,"SoundDuration":121758,"Delta":63088686},{"NoteNumber":65,"Velocity":32,"Duration":120531,"SoundDuration":120531,"Delta":63210445},{"NoteNumber":57,"Velocity":29,"Duration":120531,"SoundDuration":120531,"Delta":63210445},{"NoteNumber":69,"Velocity":41,"Duration":119533,"SoundDuration":119533,"Delta":63330977},{"NoteNumber":53,"Velocity":36,"Duration":119533,"SoundDuration":119533,"Delta":63330977},{"NoteNumber":65,"Velocity":37,"Duration":126582,"SoundDuration":126582,"Delta":63450511},{"NoteNumber":57,"Velocity":32,"Duration":126582,"SoundDuration":126582,"Delta":63450511},{"NoteNumber":67,"Velocity":44,"Duration":120482,"SoundDuration":120482,"Delta":63577093},{"NoteNumber":48,"Velocity":38,"Duration":120482,"SoundDuration":120482,"Delta":63577093},{"NoteNumber":64,"Velocity":39,"Duration":125523,"SoundDuration":125523,"Delta":63697575},{"NoteNumber":55,"Velocity":31,"Duration":125523,"SoundDuration":125523,"Delta":63697575},{"NoteNumber":69,"Velocity":47,"Duration":119999,"SoundDuration":119999,"Delta":63823098},{"NoteNumber":53,"Velocity":40,"Duration":119999,"SoundDuration":119999,"Delta":63823098},{"NoteNumber":65,"Velocity":42,"Duration":120000,"SoundDuration":120000,"Delta":63943098},{"NoteNumber":57,"Velocity":36,"Duration":120000,"SoundDuration":120000,"Delta":63943098},{"NoteNumber":70,"Velocity":45,"Duration":120000,"SoundDuration":120000,"Delta":64063098},{"NoteNumber":55,"Velocity":40,"Duration":120000,"SoundDuration":120000,"Delta":64063098},{"NoteNumber":67,"Velocity":48,"Duration":129870,"SoundDuration":129870,"Delta":64183098},{"NoteNumber":58,"Velocity":35,"Duration":129870,"SoundDuration":129870,"Delta":64183098},{"NoteNumber":72,"Velocity":51,"Duration":120481,"SoundDuration":120481,"Delta":64312968},{"NoteNumber":57,"Velocity":44,"Duration":120481,"SoundDuration":120481,"Delta":64312968},{"NoteNumber":69,"Velocity":48,"Duration":120482,"SoundDuration":120482,"Delta":64433450},{"NoteNumber":60,"Velocity":40,"Duration":120482,"SoundDuration":120482,"Delta":64433450},{"NoteNumber":67,"Velocity":44,"Duration":120481,"SoundDuration":120481,"Delta":64553932},{"NoteNumber":48,"Velocity":39,"Duration":120481,"SoundDuration":120481,"Delta":64553932},{"NoteNumber":64,"Velocity":42,"Duration":130434,"SoundDuration":130434,"Delta":64674414},{"NoteNumber":55,"Velocity":39,"Duration":130434,"SoundDuration":130434,"Delta":64674414},{"NoteNumber":69,"Velocity":37,"Duration":120000,"SoundDuration":120000,"Delta":64804849},{"NoteNumber":53,"Velocity":34,"Duration":120000,"SoundDuration":120000,"Delta":64804849},{"NoteNumber":65,"Velocity":32,"Duration":119999,"SoundDuration":119999,"Delta":64924849},{"NoteNumber":57,"Velocity":29,"Duration":119999,"SoundDuration":119999,"Delta":64924849},{"NoteNumber":69,"Velocity":40,"Duration":120000,"SoundDuration":120000,"Delta":65044849},{"NoteNumber":53,"Velocity":35,"Duration":120000,"SoundDuration":120000,"Delta":65044849},{"NoteNumber":65,"Velocity":34,"Duration":120000,"SoundDuration":120000,"Delta":65164849},{"NoteNumber":57,"Velocity":29,"Duration":120000,"SoundDuration":120000,"Delta":65164849},{"NoteNumber":69,"Velocity":41,"Duration":119999,"SoundDuration":119999,"Delta":65284849},{"NoteNumber":53,"Velocity":36,"Duration":119999,"SoundDuration":119999,"Delta":65284849},{"NoteNumber":65,"Velocity":37,"Duration":126582,"SoundDuration":126582,"Delta":65404849},{"NoteNumber":57,"Velocity":32,"Duration":126582,"SoundDuration":126582,"Delta":65404849},{"NoteNumber":67,"Velocity":44,"Duration":120481,"SoundDuration":120481,"Delta":65531431},{"NoteNumber":48,"Velocity":38,"Duration":120481,"SoundDuration":120481,"Delta":65531431},{"NoteNumber":64,"Velocity":39,"Duration":125523,"SoundDuration":125523,"Delta":65651913},{"NoteNumber":55,"Velocity":31,"Duration":125523,"SoundDuration":125523,"Delta":65651913},{"NoteNumber":69,"Velocity":47,"Duration":120000,"SoundDuration":120000,"Delta":65777436},{"NoteNumber":53,"Velocity":40,"Duration":120000,"SoundDuration":120000,"Delta":65777436},{"NoteNumber":65,"Velocity":42,"Duration":119999,"SoundDuration":119999,"Delta":65897436},{"NoteNumber":57,"Velocity":36,"Duration":119999,"SoundDuration":119999,"Delta":65897436},{"NoteNumber":70,"Velocity":45,"Duration":120000,"SoundDuration":120000,"Delta":66017436},{"NoteNumber":55,"Velocity":40,"Duration":120000,"SoundDuration":120000,"Delta":66017436},{"NoteNumber":67,"Velocity":48,"Duration":129870,"SoundDuration":129870,"Delta":66137436},{"NoteNumber":58,"Velocity":35,"Duration":129870,"SoundDuration":129870,"Delta":66137436},{"NoteNumber":72,"Velocity":51,"Duration":120481,"SoundDuration":120481,"Delta":66267307},{"NoteNumber":57,"Velocity":44,"Duration":120481,"SoundDuration":120481,"Delta":66267307},{"NoteNumber":69,"Velocity":48,"Duration":120482,"SoundDuration":120482,"Delta":66387789},{"NoteNumber":60,"Velocity":40,"Duration":120482,"SoundDuration":120482,"Delta":66387789},{"NoteNumber":64,"Velocity":46,"Duration":120481,"SoundDuration":120481,"Delta":66508271},{"NoteNumber":53,"Velocity":39,"Duration":120481,"SoundDuration":120481,"Delta":66508271},{"NoteNumber":65,"Velocity":44,"Duration":130434,"SoundDuration":130434,"Delta":66628753},{"NoteNumber":57,"Velocity":39,"Duration":130434,"SoundDuration":130434,"Delta":66628753},{"NoteNumber":74,"Velocity":57,"Duration":722232,"SoundDuration":722232,"Delta":66759187},{"NoteNumber":70,"Velocity":41,"Duration":120000,"SoundDuration":120000,"Delta":66759187},{"NoteNumber":58,"Velocity":50,"Duration":722232,"SoundDuration":722232,"Delta":66759187},{"NoteNumber":65,"Velocity":33,"Duration":119999,"SoundDuration":119999,"Delta":66879187},{"NoteNumber":70,"Velocity":41,"Duration":120000,"SoundDuration":120000,"Delta":66999187},{"NoteNumber":65,"Velocity":34,"Duration":120000,"SoundDuration":120000,"Delta":67119187},{"NoteNumber":70,"Velocity":41,"Duration":121080,"SoundDuration":121080,"Delta":67239187},{"NoteNumber":65,"Velocity":33,"Duration":121151,"SoundDuration":121151,"Delta":67360268},{"NoteNumber":72,"Velocity":42,"Duration":240945,"SoundDuration":240945,"Delta":67481420},{"NoteNumber":69,"Velocity":41,"Duration":120724,"SoundDuration":120724,"Delta":67481420},{"NoteNumber":53,"Velocity":43,"Duration":240945,"SoundDuration":240945,"Delta":67481420},{"NoteNumber":65,"Velocity":34,"Duration":120220,"SoundDuration":120220,"Delta":67602145},{"NoteNumber":70,"Velocity":47,"Duration":119796,"SoundDuration":119796,"Delta":67722365},{"NoteNumber":74,"Velocity":47,"Duration":239097,"SoundDuration":239097,"Delta":67722365},{"NoteNumber":58,"Velocity":46,"Duration":239097,"SoundDuration":239097,"Delta":67722365},{"NoteNumber":65,"Velocity":40,"Duration":119300,"SoundDuration":119300,"Delta":67842162},{"NoteNumber":76,"Velocity":53,"Duration":237284,"SoundDuration":237284,"Delta":67961463},{"NoteNumber":60,"Velocity":47,"Duration":237284,"SoundDuration":237284,"Delta":67961463},{"NoteNumber":65,"Velocity":44,"Duration":118398,"SoundDuration":118398,"Delta":68080350},{"NoteNumber":77,"Velocity":56,"Duration":236801,"SoundDuration":236801,"Delta":68198748},{"NoteNumber":62,"Velocity":51,"Duration":236801,"SoundDuration":236801,"Delta":68198748},{"NoteNumber":65,"Velocity":46,"Duration":118690,"SoundDuration":118690,"Delta":68316858},{"NoteNumber":74,"Velocity":51,"Duration":239983,"SoundDuration":239983,"Delta":68435549},{"NoteNumber":58,"Velocity":47,"Duration":239983,"SoundDuration":239983,"Delta":68435549},{"NoteNumber":65,"Velocity":38,"Duration":120607,"SoundDuration":120607,"Delta":68554925},{"NoteNumber":72,"Velocity":49,"Duration":240315,"SoundDuration":240315,"Delta":68675532},{"NoteNumber":57,"Velocity":46,"Duration":240315,"SoundDuration":240315,"Delta":68675532},{"NoteNumber":65,"Velocity":34,"Duration":119602,"SoundDuration":119602,"Delta":68796245},{"NoteNumber":69,"Velocity":42,"Duration":237220,"SoundDuration":237220,"Delta":68915848},{"NoteNumber":60,"Velocity":41,"Duration":237220,"SoundDuration":237220,"Delta":68915848},{"NoteNumber":64,"Velocity":34,"Duration":118576,"SoundDuration":118576,"Delta":69034491},{"NoteNumber":65,"Velocity":49,"Duration":237154,"SoundDuration":237154,"Delta":69153068},{"NoteNumber":62,"Velocity":44,"Duration":237154,"SoundDuration":237154,"Delta":69153068},{"NoteNumber":62,"Velocity":42,"Duration":148514,"SoundDuration":148514,"Delta":69390222},{"NoteNumber":70,"Velocity":42,"Duration":148514,"SoundDuration":148514,"Delta":69390222},{"NoteNumber":55,"Velocity":38,"Duration":148514,"SoundDuration":148514,"Delta":69390222},{"NoteNumber":58,"Velocity":49,"Duration":519480,"SoundDuration":519480,"Delta":69687252},{"NoteNumber":64,"Velocity":53,"Duration":519480,"SoundDuration":519480,"Delta":69687252},{"NoteNumber":48,"Velocity":40,"Duration":519480,"SoundDuration":519480,"Delta":69687252},{"NoteNumber":57,"Velocity":41,"Duration":259740,"SoundDuration":259740,"Delta":70206733},{"NoteNumber":65,"Velocity":45,"Duration":259740,"SoundDuration":259740,"Delta":70206733},{"NoteNumber":53,"Velocity":37,"Duration":259740,"SoundDuration":259740,"Delta":70206733},{"NoteNumber":70,"Velocity":47,"Duration":121457,"SoundDuration":121457,"Delta":70726214},{"NoteNumber":36,"Velocity":78,"Duration":724842,"SoundDuration":724842,"Delta":70726214},{"NoteNumber":67,"Velocity":40,"Duration":121457,"SoundDuration":121457,"Delta":70847671},{"NoteNumber":70,"Velocity":47,"Duration":120481,"SoundDuration":120481,"Delta":70969129},{"NoteNumber":67,"Velocity":40,"Duration":120482,"SoundDuration":120482,"Delta":71089611},{"NoteNumber":70,"Velocity":47,"Duration":120481,"SoundDuration":120481,"Delta":71210093},{"NoteNumber":67,"Velocity":41,"Duration":120481,"SoundDuration":120481,"Delta":71330575},{"NoteNumber":70,"Velocity":47,"Duration":120482,"SoundDuration":120482,"Delta":71451057},{"NoteNumber":37,"Velocity":58,"Duration":247064,"SoundDuration":247064,"Delta":71451057},{"NoteNumber":67,"Velocity":42,"Duration":126582,"SoundDuration":126582,"Delta":71571539},{"NoteNumber":70,"Velocity":47,"Duration":121457,"SoundDuration":121457,"Delta":71698121},{"NoteNumber":36,"Velocity":70,"Duration":242914,"SoundDuration":242914,"Delta":71698121},{"NoteNumber":67,"Velocity":41,"Duration":121457,"SoundDuration":121457,"Delta":71819579},{"NoteNumber":70,"Velocity":47,"Duration":121457,"SoundDuration":121457,"Delta":71941036},{"NoteNumber":44,"Velocity":61,"Duration":242914,"SoundDuration":242914,"Delta":71941036},{"NoteNumber":67,"Velocity":42,"Duration":121457,"SoundDuration":121457,"Delta":72062494},{"NoteNumber":70,"Velocity":47,"Duration":121457,"SoundDuration":121457,"Delta":72183951},{"NoteNumber":43,"Velocity":66,"Duration":496531,"SoundDuration":496531,"Delta":72183951},{"NoteNumber":67,"Velocity":41,"Duration":121457,"SoundDuration":121457,"Delta":72305409},{"NoteNumber":70,"Velocity":47,"Duration":121457,"SoundDuration":121457,"Delta":72426866},{"NoteNumber":67,"Velocity":42,"Duration":132158,"SoundDuration":132158,"Delta":72548324},{"NoteNumber":68,"Velocity":47,"Duration":120481,"SoundDuration":120481,"Delta":72680482},{"NoteNumber":36,"Velocity":80,"Duration":717154,"SoundDuration":717154,"Delta":72680482},{"NoteNumber":65,"Velocity":40,"Duration":120482,"SoundDuration":120482,"Delta":72800964},{"NoteNumber":68,"Velocity":47,"Duration":119047,"SoundDuration":119047,"Delta":72921446},{"NoteNumber":65,"Velocity":40,"Duration":119047,"SoundDuration":119047,"Delta":73040494},{"NoteNumber":68,"Velocity":49,"Duration":119047,"SoundDuration":119047,"Delta":73159541},{"NoteNumber":65,"Velocity":43,"Duration":119047,"SoundDuration":119047,"Delta":73278589},{"NoteNumber":68,"Velocity":52,"Duration":119047,"SoundDuration":119047,"Delta":73397636},{"NoteNumber":37,"Velocity":66,"Duration":244570,"SoundDuration":244570,"Delta":73397636},{"NoteNumber":65,"Velocity":48,"Duration":125523,"SoundDuration":125523,"Delta":73516684},{"NoteNumber":68,"Velocity":57,"Duration":120000,"SoundDuration":120000,"Delta":73642207},{"NoteNumber":36,"Velocity":78,"Duration":239999,"SoundDuration":239999,"Delta":73642207},{"NoteNumber":65,"Velocity":49,"Duration":119999,"SoundDuration":119999,"Delta":73762207},{"NoteNumber":68,"Velocity":54,"Duration":120000,"SoundDuration":120000,"Delta":73882207},{"NoteNumber":46,"Velocity":66,"Duration":240000,"SoundDuration":240000,"Delta":73882207},{"NoteNumber":65,"Velocity":42,"Duration":120000,"SoundDuration":120000,"Delta":74002207},{"NoteNumber":68,"Velocity":47,"Duration":119999,"SoundDuration":119999,"Delta":74122207},{"NoteNumber":44,"Velocity":76,"Duration":488755,"SoundDuration":488755,"Delta":74122207},{"NoteNumber":65,"Velocity":41,"Duration":120000,"SoundDuration":120000,"Delta":74242207},{"NoteNumber":68,"Velocity":47,"Duration":120000,"SoundDuration":120000,"Delta":74362207},{"NoteNumber":65,"Velocity":37,"Duration":128755,"SoundDuration":128755,"Delta":74482207},{"NoteNumber":65,"Velocity":45,"Duration":722232,"SoundDuration":722232,"Delta":74610962},{"NoteNumber":61,"Velocity":41,"Duration":120000,"SoundDuration":120000,"Delta":74610962},{"NoteNumber":49,"Velocity":46,"Duration":722232,"SoundDuration":722232,"Delta":74610962},{"NoteNumber":56,"Velocity":33,"Duration":119999,"SoundDuration":119999,"Delta":74730962},{"NoteNumber":61,"Velocity":41,"Duration":120000,"SoundDuration":120000,"Delta":74850962},{"NoteNumber":56,"Velocity":34,"Duration":120000,"SoundDuration":120000,"Delta":74970962},{"NoteNumber":61,"Velocity":41,"Duration":121080,"SoundDuration":121080,"Delta":75090962},{"NoteNumber":56,"Velocity":33,"Duration":121151,"SoundDuration":121151,"Delta":75212043},{"NoteNumber":63,"Velocity":42,"Duration":240945,"SoundDuration":240945,"Delta":75333194},{"NoteNumber":60,"Velocity":41,"Duration":120724,"SoundDuration":120724,"Delta":75333194},{"NoteNumber":44,"Velocity":43,"Duration":240945,"SoundDuration":240945,"Delta":75333194},{"NoteNumber":56,"Velocity":34,"Duration":120220,"SoundDuration":120220,"Delta":75453919},{"NoteNumber":61,"Velocity":41,"Duration":119796,"SoundDuration":119796,"Delta":75574140},{"NoteNumber":65,"Velocity":42,"Duration":239097,"SoundDuration":239097,"Delta":75574140},{"NoteNumber":49,"Velocity":46,"Duration":239097,"SoundDuration":239097,"Delta":75574140},{"NoteNumber":56,"Velocity":34,"Duration":119300,"SoundDuration":119300,"Delta":75693937},{"NoteNumber":66,"Velocity":42,"Duration":237284,"SoundDuration":237284,"Delta":75813237},{"NoteNumber":51,"Velocity":42,"Duration":237284,"SoundDuration":237284,"Delta":75813237},{"NoteNumber":56,"Velocity":34,"Duration":118398,"SoundDuration":118398,"Delta":75932124},{"NoteNumber":68,"Velocity":42,"Duration":236801,"SoundDuration":236801,"Delta":76050522},{"NoteNumber":53,"Velocity":46,"Duration":236801,"SoundDuration":236801,"Delta":76050522},{"NoteNumber":56,"Velocity":34,"Duration":118690,"SoundDuration":118690,"Delta":76168633},{"NoteNumber":60,"Velocity":41,"Duration":119375,"SoundDuration":119375,"Delta":76287323},{"NoteNumber":63,"Velocity":42,"Duration":239496,"SoundDuration":239496,"Delta":76287323},{"NoteNumber":44,"Velocity":43,"Duration":239496,"SoundDuration":239496,"Delta":76287323},{"NoteNumber":56,"Velocity":34,"Duration":120120,"SoundDuration":120120,"Delta":76406699},{"NoteNumber":65,"Velocity":42,"Duration":239043,"SoundDuration":239043,"Delta":76526820},{"NoteNumber":49,"Velocity":46,"Duration":239043,"SoundDuration":239043,"Delta":76526820},{"NoteNumber":61,"Velocity":34,"Duration":119521,"SoundDuration":119521,"Delta":76646342},{"NoteNumber":67,"Velocity":46,"Duration":238253,"SoundDuration":238253,"Delta":76765864},{"NoteNumber":49,"Velocity":47,"Duration":238253,"SoundDuration":238253,"Delta":76765864},{"NoteNumber":52,"Velocity":47,"Duration":238253,"SoundDuration":238253,"Delta":76765864},{"NoteNumber":64,"Velocity":38,"Duration":119047,"SoundDuration":119047,"Delta":76885070},{"NoteNumber":68,"Velocity":48,"Duration":237424,"SoundDuration":237424,"Delta":77004117},{"NoteNumber":49,"Velocity":53,"Duration":225566,"SoundDuration":225566,"Delta":77004117},{"NoteNumber":53,"Velocity":53,"Duration":225566,"SoundDuration":225566,"Delta":77004117},{"NoteNumber":65,"Velocity":40,"Duration":118577,"SoundDuration":118577,"Delta":77122965},{"NoteNumber":70,"Velocity":53,"Duration":243173,"SoundDuration":243173,"Delta":77241542},{"NoteNumber":49,"Velocity":59,"Duration":230621,"SoundDuration":230621,"Delta":77241542},{"NoteNumber":53,"Velocity":59,"Duration":230621,"SoundDuration":230621,"Delta":77241542},{"NoteNumber":65,"Velocity":46,"Duration":124596,"SoundDuration":124596,"Delta":77360119},{"NoteNumber":72,"Velocity":55,"Duration":119271,"SoundDuration":119271,"Delta":77484716},{"NoteNumber":48,"Velocity":65,"Duration":237848,"SoundDuration":237848,"Delta":77484716},{"NoteNumber":55,"Velocity":65,"Duration":237848,"SoundDuration":237848,"Delta":77484716},{"NoteNumber":64,"Velocity":44,"Duration":118577,"SoundDuration":118577,"Delta":77603987},{"NoteNumber":70,"Velocity":50,"Duration":118577,"SoundDuration":118577,"Delta":77722564},{"NoteNumber":67,"Velocity":42,"Duration":118367,"SoundDuration":118367,"Delta":77841141},{"NoteNumber":64,"Velocity":47,"Duration":117770,"SoundDuration":117770,"Delta":77959509},{"NoteNumber":60,"Velocity":47,"Duration":118328,"SoundDuration":118328,"Delta":78077279},{"NoteNumber":58,"Velocity":46,"Duration":119630,"SoundDuration":119630,"Delta":78195608},{"NoteNumber":55,"Velocity":45,"Duration":122933,"SoundDuration":122933,"Delta":78315238},{"NoteNumber":69,"Velocity":37,"Duration":124323,"SoundDuration":124323,"Delta":78438172},{"NoteNumber":53,"Velocity":34,"Duration":124323,"SoundDuration":124323,"Delta":78438172},{"NoteNumber":65,"Velocity":27,"Duration":123002,"SoundDuration":123002,"Delta":78562495},{"NoteNumber":57,"Velocity":29,"Duration":123002,"SoundDuration":123002,"Delta":78562495},{"NoteNumber":69,"Velocity":40,"Duration":121758,"SoundDuration":121758,"Delta":78685497},{"NoteNumber":53,"Velocity":35,"Duration":121758,"SoundDuration":121758,"Delta":78685497},{"NoteNumber":65,"Velocity":32,"Duration":120531,"SoundDuration":120531,"Delta":78807256},{"NoteNumber":57,"Velocity":29,"Duration":120531,"SoundDuration":120531,"Delta":78807256},{"NoteNumber":69,"Velocity":41,"Duration":119533,"SoundDuration":119533,"Delta":78927788},{"NoteNumber":53,"Velocity":36,"Duration":119533,"SoundDuration":119533,"Delta":78927788},{"NoteNumber":65,"Velocity":37,"Duration":126582,"SoundDuration":126582,"Delta":79047322},{"NoteNumber":57,"Velocity":32,"Duration":126582,"SoundDuration":126582,"Delta":79047322},{"NoteNumber":67,"Velocity":44,"Duration":120481,"SoundDuration":120481,"Delta":79173904},{"NoteNumber":48,"Velocity":38,"Duration":120481,"SoundDuration":120481,"Delta":79173904},{"NoteNumber":64,"Velocity":39,"Duration":125523,"SoundDuration":125523,"Delta":79294386},{"NoteNumber":55,"Velocity":31,"Duration":125523,"SoundDuration":125523,"Delta":79294386},{"NoteNumber":69,"Velocity":47,"Duration":120000,"SoundDuration":120000,"Delta":79419909},{"NoteNumber":53,"Velocity":40,"Duration":120000,"SoundDuration":120000,"Delta":79419909},{"NoteNumber":65,"Velocity":42,"Duration":119999,"SoundDuration":119999,"Delta":79539909},{"NoteNumber":57,"Velocity":36,"Duration":119999,"SoundDuration":119999,"Delta":79539909},{"NoteNumber":70,"Velocity":45,"Duration":120000,"SoundDuration":120000,"Delta":79659909},{"NoteNumber":55,"Velocity":40,"Duration":120000,"SoundDuration":120000,"Delta":79659909},{"NoteNumber":67,"Velocity":48,"Duration":129870,"SoundDuration":129870,"Delta":79779909},{"NoteNumber":58,"Velocity":35,"Duration":129870,"SoundDuration":129870,"Delta":79779909},{"NoteNumber":72,"Velocity":51,"Duration":120481,"SoundDuration":120481,"Delta":79909779},{"NoteNumber":57,"Velocity":44,"Duration":120481,"SoundDuration":120481,"Delta":79909779},{"NoteNumber":69,"Velocity":48,"Duration":120482,"SoundDuration":120482,"Delta":80030261},{"NoteNumber":60,"Velocity":40,"Duration":120482,"SoundDuration":120482,"Delta":80030261},{"NoteNumber":67,"Velocity":44,"Duration":120481,"SoundDuration":120481,"Delta":80150743},{"NoteNumber":48,"Velocity":39,"Duration":120481,"SoundDuration":120481,"Delta":80150743},{"NoteNumber":64,"Velocity":42,"Duration":130434,"SoundDuration":130434,"Delta":80271225},{"NoteNumber":55,"Velocity":39,"Duration":130434,"SoundDuration":130434,"Delta":80271225},{"NoteNumber":69,"Velocity":37,"Duration":120000,"SoundDuration":120000,"Delta":80401660},{"NoteNumber":53,"Velocity":34,"Duration":120000,"SoundDuration":120000,"Delta":80401660},{"NoteNumber":65,"Velocity":32,"Duration":119999,"SoundDuration":119999,"Delta":80521660},{"NoteNumber":57,"Velocity":29,"Duration":119999,"SoundDuration":119999,"Delta":80521660},{"NoteNumber":69,"Velocity":40,"Duration":120000,"SoundDuration":120000,"Delta":80641660},{"NoteNumber":53,"Velocity":35,"Duration":120000,"SoundDuration":120000,"Delta":80641660},{"NoteNumber":65,"Velocity":34,"Duration":120000,"SoundDuration":120000,"Delta":80761660},{"NoteNumber":57,"Velocity":29,"Duration":120000,"SoundDuration":120000,"Delta":80761660},{"NoteNumber":69,"Velocity":41,"Duration":119999,"SoundDuration":119999,"Delta":80881660},{"NoteNumber":53,"Velocity":36,"Duration":119999,"SoundDuration":119999,"Delta":80881660},{"NoteNumber":65,"Velocity":37,"Duration":126582,"SoundDuration":126582,"Delta":81001660},{"NoteNumber":57,"Velocity":32,"Duration":126582,"SoundDuration":126582,"Delta":81001660},{"NoteNumber":67,"Velocity":44,"Duration":120481,"SoundDuration":120481,"Delta":81128242},{"NoteNumber":48,"Velocity":38,"Duration":120481,"SoundDuration":120481,"Delta":81128242},{"NoteNumber":64,"Velocity":39,"Duration":125523,"SoundDuration":125523,"Delta":81248724},{"NoteNumber":55,"Velocity":31,"Duration":125523,"SoundDuration":125523,"Delta":81248724},{"NoteNumber":69,"Velocity":47,"Duration":120000,"SoundDuration":120000,"Delta":81374247},{"NoteNumber":53,"Velocity":40,"Duration":120000,"SoundDuration":120000,"Delta":81374247},{"NoteNumber":65,"Velocity":42,"Duration":119999,"SoundDuration":119999,"Delta":81494247},{"NoteNumber":57,"Velocity":36,"Duration":119999,"SoundDuration":119999,"Delta":81494247},{"NoteNumber":70,"Velocity":45,"Duration":120000,"SoundDuration":120000,"Delta":81614247},{"NoteNumber":55,"Velocity":40,"Duration":120000,"SoundDuration":120000,"Delta":81614247},{"NoteNumber":67,"Velocity":48,"Duration":129870,"SoundDuration":129870,"Delta":81734247},{"NoteNumber":58,"Velocity":35,"Duration":129870,"SoundDuration":129870,"Delta":81734247},{"NoteNumber":72,"Velocity":51,"Duration":120481,"SoundDuration":120481,"Delta":81864117},{"NoteNumber":57,"Velocity":44,"Duration":120481,"SoundDuration":120481,"Delta":81864117},{"NoteNumber":69,"Velocity":48,"Duration":120482,"SoundDuration":120482,"Delta":81984599},{"NoteNumber":60,"Velocity":40,"Duration":120482,"SoundDuration":120482,"Delta":81984599},{"NoteNumber":64,"Velocity":46,"Duration":120481,"SoundDuration":120481,"Delta":82105081},{"NoteNumber":53,"Velocity":39,"Duration":120481,"SoundDuration":120481,"Delta":82105081},{"NoteNumber":65,"Velocity":44,"Duration":143540,"SoundDuration":143540,"Delta":82225563},{"NoteNumber":57,"Velocity":39,"Duration":143540,"SoundDuration":143540,"Delta":82225563},{"NoteNumber":74,"Velocity":57,"Duration":722232,"SoundDuration":722232,"Delta":82369104},{"NoteNumber":70,"Velocity":41,"Duration":120000,"SoundDuration":120000,"Delta":82369104},{"NoteNumber":58,"Velocity":50,"Duration":722232,"SoundDuration":722232,"Delta":82369104},{"NoteNumber":65,"Velocity":33,"Duration":119999,"SoundDuration":119999,"Delta":82489104},{"NoteNumber":70,"Velocity":41,"Duration":120000,"SoundDuration":120000,"Delta":82609104},{"NoteNumber":65,"Velocity":34,"Duration":120000,"SoundDuration":120000,"Delta":82729104},{"NoteNumber":70,"Velocity":41,"Duration":121080,"SoundDuration":121080,"Delta":82849104},{"NoteNumber":65,"Velocity":33,"Duration":121151,"SoundDuration":121151,"Delta":82970185},{"NoteNumber":72,"Velocity":42,"Duration":240945,"SoundDuration":240945,"Delta":83091337},{"NoteNumber":69,"Velocity":41,"Duration":120724,"SoundDuration":120724,"Delta":83091337},{"NoteNumber":53,"Velocity":43,"Duration":240945,"SoundDuration":240945,"Delta":83091337},{"NoteNumber":65,"Velocity":34,"Duration":120220,"SoundDuration":120220,"Delta":83212061},{"NoteNumber":70,"Velocity":47,"Duration":119796,"SoundDuration":119796,"Delta":83332282},{"NoteNumber":74,"Velocity":47,"Duration":239097,"SoundDuration":239097,"Delta":83332282},{"NoteNumber":58,"Velocity":46,"Duration":239097,"SoundDuration":239097,"Delta":83332282},{"NoteNumber":65,"Velocity":40,"Duration":119300,"SoundDuration":119300,"Delta":83452079},{"NoteNumber":76,"Velocity":53,"Duration":237284,"SoundDuration":237284,"Delta":83571380},{"NoteNumber":60,"Velocity":47,"Duration":237284,"SoundDuration":237284,"Delta":83571380},{"NoteNumber":65,"Velocity":44,"Duration":118398,"SoundDuration":118398,"Delta":83690266},{"NoteNumber":77,"Velocity":56,"Duration":236801,"SoundDuration":236801,"Delta":83808665},{"NoteNumber":62,"Velocity":51,"Duration":236801,"SoundDuration":236801,"Delta":83808665},{"NoteNumber":65,"Velocity":46,"Duration":118690,"SoundDuration":118690,"Delta":83926775},{"NoteNumber":74,"Velocity":51,"Duration":239983,"SoundDuration":239983,"Delta":84045466},{"NoteNumber":58,"Velocity":47,"Duration":239983,"SoundDuration":239983,"Delta":84045466},{"NoteNumber":65,"Velocity":38,"Duration":120607,"SoundDuration":120607,"Delta":84164842},{"NoteNumber":72,"Velocity":49,"Duration":240315,"SoundDuration":240315,"Delta":84285449},{"NoteNumber":57,"Velocity":46,"Duration":240315,"SoundDuration":240315,"Delta":84285449},{"NoteNumber":65,"Velocity":34,"Duration":119602,"SoundDuration":119602,"Delta":84406162},{"NoteNumber":69,"Velocity":42,"Duration":237220,"SoundDuration":237220,"Delta":84525765},{"NoteNumber":60,"Velocity":41,"Duration":237220,"SoundDuration":237220,"Delta":84525765},{"NoteNumber":64,"Velocity":34,"Duration":118576,"SoundDuration":118576,"Delta":84644408},{"NoteNumber":65,"Velocity":49,"Duration":237154,"SoundDuration":237154,"Delta":84762985},{"NoteNumber":62,"Velocity":44,"Duration":237154,"SoundDuration":237154,"Delta":84762985},{"NoteNumber":62,"Velocity":42,"Duration":148514,"SoundDuration":148514,"Delta":85000139},{"NoteNumber":70,"Velocity":42,"Duration":148514,"SoundDuration":148514,"Delta":85000139},{"NoteNumber":55,"Velocity":38,"Duration":148514,"SoundDuration":148514,"Delta":85000139},{"NoteNumber":58,"Velocity":49,"Duration":519480,"SoundDuration":519480,"Delta":85297169},{"NoteNumber":64,"Velocity":53,"Duration":519480,"SoundDuration":519480,"Delta":85297169},{"NoteNumber":48,"Velocity":40,"Duration":519480,"SoundDuration":519480,"Delta":85297169},{"NoteNumber":57,"Velocity":41,"Duration":310880,"SoundDuration":310880,"Delta":85816650},{"NoteNumber":65,"Velocity":45,"Duration":310880,"SoundDuration":310880,"Delta":85816650},{"NoteNumber":53,"Velocity":37,"Duration":310880,"SoundDuration":310880,"Delta":85816650},{"NoteNumber":45,"Velocity":77,"Duration":119047,"SoundDuration":119047,"Delta":86438412},{"NoteNumber":33,"Velocity":67,"Duration":119047,"SoundDuration":119047,"Delta":86438412},{"NoteNumber":47,"Velocity":69,"Duration":119047,"SoundDuration":119047,"Delta":86557459},{"NoteNumber":35,"Velocity":60,"Duration":119047,"SoundDuration":119047,"Delta":86557459},{"NoteNumber":45,"Velocity":74,"Duration":119047,"SoundDuration":119047,"Delta":86676507},{"NoteNumber":33,"Velocity":65,"Duration":119047,"SoundDuration":119047,"Delta":86676507},{"NoteNumber":47,"Velocity":69,"Duration":119047,"SoundDuration":119047,"Delta":86795554},{"NoteNumber":35,"Velocity":60,"Duration":119047,"SoundDuration":119047,"Delta":86795554},{"NoteNumber":48,"Velocity":78,"Duration":119047,"SoundDuration":119047,"Delta":86914602},{"NoteNumber":36,"Velocity":68,"Duration":119047,"SoundDuration":119047,"Delta":86914602},{"NoteNumber":47,"Velocity":69,"Duration":119047,"SoundDuration":119047,"Delta":87033649},{"NoteNumber":35,"Velocity":60,"Duration":119047,"SoundDuration":119047,"Delta":87033649},{"NoteNumber":48,"Velocity":77,"Duration":119047,"SoundDuration":119047,"Delta":87152697},{"NoteNumber":36,"Velocity":67,"Duration":119047,"SoundDuration":119047,"Delta":87152697},{"NoteNumber":47,"Velocity":69,"Duration":119047,"SoundDuration":119047,"Delta":87271744},{"NoteNumber":35,"Velocity":60,"Duration":119047,"SoundDuration":119047,"Delta":87271744},{"NoteNumber":45,"Velocity":80,"Duration":234375,"SoundDuration":234375,"Delta":87390792},{"NoteNumber":33,"Velocity":70,"Duration":234375,"SoundDuration":234375,"Delta":87390792},{"NoteNumber":47,"Velocity":69,"Duration":122449,"SoundDuration":122449,"Delta":87625167},{"NoteNumber":35,"Velocity":60,"Duration":122449,"SoundDuration":122449,"Delta":87625167},{"NoteNumber":48,"Velocity":79,"Duration":232557,"SoundDuration":232557,"Delta":87870065},{"NoteNumber":36,"Velocity":69,"Duration":232557,"SoundDuration":232557,"Delta":87870065},{"NoteNumber":52,"Velocity":69,"Duration":122449,"SoundDuration":122449,"Delta":88102623},{"NoteNumber":40,"Velocity":60,"Duration":122449,"SoundDuration":122449,"Delta":88102623},{"NoteNumber":57,"Velocity":79,"Duration":233463,"SoundDuration":233463,"Delta":88347521},{"NoteNumber":45,"Velocity":69,"Duration":233463,"SoundDuration":233463,"Delta":88347521},{"NoteNumber":59,"Velocity":69,"Duration":121951,"SoundDuration":121951,"Delta":88580984},{"NoteNumber":47,"Velocity":60,"Duration":121951,"SoundDuration":121951,"Delta":88580984},{"NoteNumber":60,"Velocity":79,"Duration":239044,"SoundDuration":239044,"Delta":88824886},{"NoteNumber":48,"Velocity":69,"Duration":239044,"SoundDuration":239044,"Delta":88824886},{"NoteNumber":64,"Velocity":69,"Duration":132158,"SoundDuration":132158,"Delta":89063930},{"NoteNumber":52,"Velocity":60,"Duration":132158,"SoundDuration":132158,"Delta":89063930},{"NoteNumber":64,"Velocity":62,"Duration":243902,"SoundDuration":243902,"Delta":89328247},{"NoteNumber":68,"Velocity":62,"Duration":243902,"SoundDuration":243902,"Delta":89328247},{"NoteNumber":71,"Velocity":74,"Duration":243902,"SoundDuration":243902,"Delta":89328247},{"NoteNumber":52,"Velocity":67,"Duration":243902,"SoundDuration":243902,"Delta":89328247},{"NoteNumber":64,"Velocity":59,"Duration":277777,"SoundDuration":277777,"Delta":89572150},{"NoteNumber":68,"Velocity":59,"Duration":277777,"SoundDuration":277777,"Delta":89572150},{"NoteNumber":71,"Velocity":70,"Duration":277777,"SoundDuration":277777,"Delta":89572150},{"NoteNumber":52,"Velocity":60,"Duration":277777,"SoundDuration":277777,"Delta":89572150},{"NoteNumber":64,"Velocity":68,"Duration":508475,"SoundDuration":508475,"Delta":89849928},{"NoteNumber":69,"Velocity":68,"Duration":508475,"SoundDuration":508475,"Delta":89849928},{"NoteNumber":72,"Velocity":80,"Duration":508475,"SoundDuration":508475,"Delta":89849928},{"NoteNumber":57,"Velocity":70,"Duration":508475,"SoundDuration":508475,"Delta":89849928},{"NoteNumber":45,"Velocity":77,"Duration":119047,"SoundDuration":119047,"Delta":90358403},{"NoteNumber":33,"Velocity":67,"Duration":119047,"SoundDuration":119047,"Delta":90358403},{"NoteNumber":47,"Velocity":69,"Duration":119047,"SoundDuration":119047,"Delta":90477450},{"NoteNumber":35,"Velocity":60,"Duration":119047,"SoundDuration":119047,"Delta":90477450},{"NoteNumber":45,"Velocity":74,"Duration":119047,"SoundDuration":119047,"Delta":90596498},{"NoteNumber":33,"Velocity":65,"Duration":119047,"SoundDuration":119047,"Delta":90596498},{"NoteNumber":47,"Velocity":69,"Duration":119047,"SoundDuration":119047,"Delta":90715545},{"NoteNumber":35,"Velocity":60,"Duration":119047,"SoundDuration":119047,"Delta":90715545},{"NoteNumber":48,"Velocity":78,"Duration":119047,"SoundDuration":119047,"Delta":90834593},{"NoteNumber":36,"Velocity":68,"Duration":119047,"SoundDuration":119047,"Delta":90834593},{"NoteNumber":47,"Velocity":69,"Duration":119047,"SoundDuration":119047,"Delta":90953640},{"NoteNumber":35,"Velocity":60,"Duration":119047,"SoundDuration":119047,"Delta":90953640},{"NoteNumber":48,"Velocity":77,"Duration":119047,"SoundDuration":119047,"Delta":91072688},{"NoteNumber":36,"Velocity":67,"Duration":119047,"SoundDuration":119047,"Delta":91072688},{"NoteNumber":47,"Velocity":69,"Duration":119047,"SoundDuration":119047,"Delta":91191735},{"NoteNumber":35,"Velocity":60,"Duration":119047,"SoundDuration":119047,"Delta":91191735},{"NoteNumber":45,"Velocity":80,"Duration":234375,"SoundDuration":234375,"Delta":91310783},{"NoteNumber":33,"Velocity":70,"Duration":234375,"SoundDuration":234375,"Delta":91310783},{"NoteNumber":47,"Velocity":69,"Duration":122449,"SoundDuration":122449,"Delta":91545158},{"NoteNumber":35,"Velocity":60,"Duration":122449,"SoundDuration":122449,"Delta":91545158},{"NoteNumber":48,"Velocity":79,"Duration":232557,"SoundDuration":232557,"Delta":91790056},{"NoteNumber":36,"Velocity":69,"Duration":232557,"SoundDuration":232557,"Delta":91790056},{"NoteNumber":52,"Velocity":69,"Duration":122449,"SoundDuration":122449,"Delta":92022614},{"NoteNumber":40,"Velocity":60,"Duration":122449,"SoundDuration":122449,"Delta":92022614},{"NoteNumber":57,"Velocity":79,"Duration":233463,"SoundDuration":233463,"Delta":92267512},{"NoteNumber":45,"Velocity":69,"Duration":233463,"SoundDuration":233463,"Delta":92267512},{"NoteNumber":59,"Velocity":69,"Duration":121951,"SoundDuration":121951,"Delta":92500975},{"NoteNumber":47,"Velocity":60,"Duration":121951,"SoundDuration":121951,"Delta":92500975},{"NoteNumber":60,"Velocity":79,"Duration":239044,"SoundDuration":239044,"Delta":92744877},{"NoteNumber":48,"Velocity":69,"Duration":239044,"SoundDuration":239044,"Delta":92744877},{"NoteNumber":64,"Velocity":69,"Duration":132158,"SoundDuration":132158,"Delta":92983921},{"NoteNumber":52,"Velocity":60,"Duration":132158,"SoundDuration":132158,"Delta":92983921},{"NoteNumber":64,"Velocity":62,"Duration":243902,"SoundDuration":243902,"Delta":93248238},{"NoteNumber":68,"Velocity":62,"Duration":243902,"SoundDuration":243902,"Delta":93248238},{"NoteNumber":71,"Velocity":74,"Duration":243902,"SoundDuration":243902,"Delta":93248238},{"NoteNumber":52,"Velocity":67,"Duration":243902,"SoundDuration":243902,"Delta":93248238},{"NoteNumber":64,"Velocity":59,"Duration":277777,"SoundDuration":277777,"Delta":93492141},{"NoteNumber":68,"Velocity":59,"Duration":277777,"SoundDuration":277777,"Delta":93492141},{"NoteNumber":71,"Velocity":70,"Duration":277777,"SoundDuration":277777,"Delta":93492141},{"NoteNumber":52,"Velocity":60,"Duration":277777,"SoundDuration":277777,"Delta":93492141},{"NoteNumber":69,"Velocity":82,"Duration":508475,"SoundDuration":508475,"Delta":93769919},{"NoteNumber":57,"Velocity":70,"Duration":508475,"SoundDuration":508475,"Delta":93769919},{"NoteNumber":58,"Velocity":77,"Duration":120392,"SoundDuration":120392,"Delta":94278394},{"NoteNumber":46,"Velocity":67,"Duration":120392,"SoundDuration":120392,"Delta":94278394},{"NoteNumber":57,"Velocity":69,"Duration":119047,"SoundDuration":119047,"Delta":94398786},{"NoteNumber":45,"Velocity":60,"Duration":119047,"SoundDuration":119047,"Delta":94398786},{"NoteNumber":58,"Velocity":74,"Duration":119047,"SoundDuration":119047,"Delta":94517834},{"NoteNumber":46,"Velocity":65,"Duration":119047,"SoundDuration":119047,"Delta":94517834},{"NoteNumber":57,"Velocity":69,"Duration":119047,"SoundDuration":119047,"Delta":94636881},{"NoteNumber":45,"Velocity":60,"Duration":119047,"SoundDuration":119047,"Delta":94636881},{"NoteNumber":55,"Velocity":78,"Duration":119047,"SoundDuration":119047,"Delta":94755929},{"NoteNumber":43,"Velocity":68,"Duration":119047,"SoundDuration":119047,"Delta":94755929},{"NoteNumber":57,"Velocity":69,"Duration":119047,"SoundDuration":119047,"Delta":94874976},{"NoteNumber":45,"Velocity":60,"Duration":119047,"SoundDuration":119047,"Delta":94874976},{"NoteNumber":55,"Velocity":77,"Duration":119047,"SoundDuration":119047,"Delta":94994024},{"NoteNumber":43,"Velocity":67,"Duration":119047,"SoundDuration":119047,"Delta":94994024},{"NoteNumber":57,"Velocity":69,"Duration":119047,"SoundDuration":119047,"Delta":95113071},{"NoteNumber":45,"Velocity":60,"Duration":119047,"SoundDuration":119047,"Delta":95113071},{"NoteNumber":58,"Velocity":80,"Duration":234684,"SoundDuration":234684,"Delta":95232119},{"NoteNumber":46,"Velocity":70,"Duration":234684,"SoundDuration":234684,"Delta":95232119},{"NoteNumber":55,"Velocity":69,"Duration":121572,"SoundDuration":121572,"Delta":95466804},{"NoteNumber":43,"Velocity":60,"Duration":121572,"SoundDuration":121572,"Delta":95466804},{"NoteNumber":55,"Velocity":79,"Duration":233586,"SoundDuration":233586,"Delta":95710825},{"NoteNumber":43,"Velocity":69,"Duration":233586,"SoundDuration":233586,"Delta":95710825},{"NoteNumber":52,"Velocity":69,"Duration":127659,"SoundDuration":127659,"Delta":95944411},{"NoteNumber":40,"Velocity":60,"Duration":127659,"SoundDuration":127659,"Delta":95944411},{"NoteNumber":67,"Velocity":67,"Duration":235284,"SoundDuration":235284,"Delta":96199730},{"NoteNumber":70,"Velocity":79,"Duration":235284,"SoundDuration":235284,"Delta":96199730},{"NoteNumber":37,"Velocity":69,"Duration":235284,"SoundDuration":235284,"Delta":96199730},{"NoteNumber":64,"Velocity":58,"Duration":121081,"SoundDuration":121081,"Delta":96435015},{"NoteNumber":67,"Velocity":69,"Duration":121081,"SoundDuration":121081,"Delta":96435015},{"NoteNumber":40,"Velocity":60,"Duration":121081,"SoundDuration":121081,"Delta":96435015},{"NoteNumber":64,"Velocity":67,"Duration":239448,"SoundDuration":239448,"Delta":96678047},{"NoteNumber":67,"Velocity":79,"Duration":239448,"SoundDuration":239448,"Delta":96678047},{"NoteNumber":40,"Velocity":69,"Duration":239448,"SoundDuration":239448,"Delta":96678047},{"NoteNumber":64,"Velocity":69,"Duration":130052,"SoundDuration":130052,"Delta":96917496},{"NoteNumber":61,"Velocity":58,"Duration":130052,"SoundDuration":130052,"Delta":96917496},{"NoteNumber":43,"Velocity":60,"Duration":130052,"SoundDuration":130052,"Delta":96917496},{"NoteNumber":64,"Velocity":74,"Duration":245603,"SoundDuration":245603,"Delta":97179707},{"NoteNumber":61,"Velocity":62,"Duration":245603,"SoundDuration":245603,"Delta":97179707},{"NoteNumber":57,"Velocity":62,"Duration":245603,"SoundDuration":245603,"Delta":97179707},{"NoteNumber":45,"Velocity":67,"Duration":245603,"SoundDuration":245603,"Delta":97179707},{"NoteNumber":64,"Velocity":70,"Duration":274955,"SoundDuration":274955,"Delta":97425311},{"NoteNumber":61,"Velocity":59,"Duration":274955,"SoundDuration":274955,"Delta":97425311},{"NoteNumber":57,"Velocity":59,"Duration":274955,"SoundDuration":274955,"Delta":97425311},{"NoteNumber":45,"Velocity":60,"Duration":274955,"SoundDuration":274955,"Delta":97425311},{"NoteNumber":65,"Velocity":80,"Duration":519480,"SoundDuration":519480,"Delta":97700266},{"NoteNumber":62,"Velocity":68,"Duration":519480,"SoundDuration":519480,"Delta":97700266},{"NoteNumber":57,"Velocity":68,"Duration":519480,"SoundDuration":519480,"Delta":97700266},{"NoteNumber":50,"Velocity":70,"Duration":519480,"SoundDuration":519480,"Delta":97700266},{"NoteNumber":60,"Velocity":77,"Duration":119286,"SoundDuration":119286,"Delta":98219747},{"NoteNumber":48,"Velocity":67,"Duration":119286,"SoundDuration":119286,"Delta":98219747},{"NoteNumber":59,"Velocity":69,"Duration":119047,"SoundDuration":119047,"Delta":98339033},{"NoteNumber":47,"Velocity":60,"Duration":119047,"SoundDuration":119047,"Delta":98339033},{"NoteNumber":60,"Velocity":74,"Duration":119047,"SoundDuration":119047,"Delta":98458081},{"NoteNumber":48,"Velocity":65,"Duration":119047,"SoundDuration":119047,"Delta":98458081},{"NoteNumber":59,"Velocity":69,"Duration":119047,"SoundDuration":119047,"Delta":98577128},{"NoteNumber":47,"Velocity":60,"Duration":119047,"SoundDuration":119047,"Delta":98577128},{"NoteNumber":57,"Velocity":78,"Duration":119047,"SoundDuration":119047,"Delta":98696176},{"NoteNumber":45,"Velocity":68,"Duration":119047,"SoundDuration":119047,"Delta":98696176},{"NoteNumber":59,"Velocity":69,"Duration":119047,"SoundDuration":119047,"Delta":98815223},{"NoteNumber":47,"Velocity":60,"Duration":119047,"SoundDuration":119047,"Delta":98815223},{"NoteNumber":57,"Velocity":77,"Duration":119047,"SoundDuration":119047,"Delta":98934271},{"NoteNumber":45,"Velocity":67,"Duration":119047,"SoundDuration":119047,"Delta":98934271},{"NoteNumber":59,"Velocity":69,"Duration":119047,"SoundDuration":119047,"Delta":99053318},{"NoteNumber":47,"Velocity":60,"Duration":119047,"SoundDuration":119047,"Delta":99053318},{"NoteNumber":60,"Velocity":80,"Duration":234684,"SoundDuration":234684,"Delta":99172366},{"NoteNumber":48,"Velocity":70,"Duration":234684,"SoundDuration":234684,"Delta":99172366},{"NoteNumber":57,"Velocity":69,"Duration":121572,"SoundDuration":121572,"Delta":99407051},{"NoteNumber":45,"Velocity":60,"Duration":121572,"SoundDuration":121572,"Delta":99407051},{"NoteNumber":57,"Velocity":79,"Duration":233586,"SoundDuration":233586,"Delta":99651072},{"NoteNumber":45,"Velocity":69,"Duration":233586,"SoundDuration":233586,"Delta":99651072},{"NoteNumber":54,"Velocity":69,"Duration":127118,"SoundDuration":127118,"Delta":99884658},{"NoteNumber":42,"Velocity":60,"Duration":127118,"SoundDuration":127118,"Delta":99884658},{"NoteNumber":69,"Velocity":67,"Duration":235194,"SoundDuration":235194,"Delta":100138896},{"NoteNumber":72,"Velocity":79,"Duration":235194,"SoundDuration":235194,"Delta":100138896},{"NoteNumber":39,"Velocity":69,"Duration":235194,"SoundDuration":235194,"Delta":100138896},{"NoteNumber":66,"Velocity":58,"Duration":121081,"SoundDuration":121081,"Delta":100374090},{"NoteNumber":69,"Velocity":69,"Duration":121081,"SoundDuration":121081,"Delta":100374090},{"NoteNumber":42,"Velocity":60,"Duration":121081,"SoundDuration":121081,"Delta":100374090},{"NoteNumber":66,"Velocity":67,"Duration":239448,"SoundDuration":239448,"Delta":100617123},{"NoteNumber":69,"Velocity":79,"Duration":239448,"SoundDuration":239448,"Delta":100617123},{"NoteNumber":42,"Velocity":69,"Duration":239448,"SoundDuration":239448,"Delta":100617123},{"NoteNumber":66,"Velocity":69,"Duration":130052,"SoundDuration":130052,"Delta":100856571},{"NoteNumber":63,"Velocity":58,"Duration":130052,"SoundDuration":130052,"Delta":100856571},{"NoteNumber":45,"Velocity":60,"Duration":130052,"SoundDuration":130052,"Delta":100856571},{"NoteNumber":66,"Velocity":74,"Duration":245603,"SoundDuration":245603,"Delta":101118782},{"NoteNumber":63,"Velocity":74,"Duration":245603,"SoundDuration":245603,"Delta":101118782},{"NoteNumber":47,"Velocity":67,"Duration":245603,"SoundDuration":245603,"Delta":101118782},{"NoteNumber":66,"Velocity":70,"Duration":281689,"SoundDuration":281689,"Delta":101364386},{"NoteNumber":63,"Velocity":70,"Duration":281689,"SoundDuration":281689,"Delta":101364386},{"NoteNumber":47,"Velocity":60,"Duration":281689,"SoundDuration":281689,"Delta":101364386},{"NoteNumber":68,"Velocity":80,"Duration":526315,"SoundDuration":526315,"Delta":101646076},{"NoteNumber":64,"Velocity":68,"Duration":526315,"SoundDuration":526315,"Delta":101646076},{"NoteNumber":59,"Velocity":68,"Duration":526315,"SoundDuration":526315,"Delta":101646076},{"NoteNumber":52,"Velocity":70,"Duration":526315,"SoundDuration":526315,"Delta":101646076},{"NoteNumber":57,"Velocity":84,"Duration":119047,"SoundDuration":119047,"Delta":102172392},{"NoteNumber":45,"Velocity":73,"Duration":119047,"SoundDuration":119047,"Delta":102172392},{"NoteNumber":59,"Velocity":75,"Duration":119047,"SoundDuration":119047,"Delta":102291440},{"NoteNumber":47,"Velocity":66,"Duration":119047,"SoundDuration":119047,"Delta":102291440},{"NoteNumber":57,"Velocity":81,"Duration":119047,"SoundDuration":119047,"Delta":102410487},{"NoteNumber":45,"Velocity":71,"Duration":119047,"SoundDuration":119047,"Delta":102410487},{"NoteNumber":59,"Velocity":75,"Duration":119047,"SoundDuration":119047,"Delta":102529535},{"NoteNumber":47,"Velocity":66,"Duration":119047,"SoundDuration":119047,"Delta":102529535},{"NoteNumber":60,"Velocity":85,"Duration":119047,"SoundDuration":119047,"Delta":102648582},{"NoteNumber":48,"Velocity":74,"Duration":119047,"SoundDuration":119047,"Delta":102648582},{"NoteNumber":59,"Velocity":75,"Duration":119047,"SoundDuration":119047,"Delta":102767630},{"NoteNumber":47,"Velocity":66,"Duration":119047,"SoundDuration":119047,"Delta":102767630},{"NoteNumber":60,"Velocity":84,"Duration":119047,"SoundDuration":119047,"Delta":102886677},{"NoteNumber":48,"Velocity":73,"Duration":119047,"SoundDuration":119047,"Delta":102886677},{"NoteNumber":59,"Velocity":75,"Duration":119047,"SoundDuration":119047,"Delta":103005725},{"NoteNumber":47,"Velocity":66,"Duration":119047,"SoundDuration":119047,"Delta":103005725},{"NoteNumber":57,"Velocity":88,"Duration":234375,"SoundDuration":234375,"Delta":103124772},{"NoteNumber":45,"Velocity":77,"Duration":234375,"SoundDuration":234375,"Delta":103124772},{"NoteNumber":59,"Velocity":75,"Duration":122449,"SoundDuration":122449,"Delta":103359147},{"NoteNumber":47,"Velocity":66,"Duration":122449,"SoundDuration":122449,"Delta":103359147},{"NoteNumber":60,"Velocity":86,"Duration":232557,"SoundDuration":232557,"Delta":103604045},{"NoteNumber":48,"Velocity":75,"Duration":232557,"SoundDuration":232557,"Delta":103604045},{"NoteNumber":64,"Velocity":75,"Duration":122449,"SoundDuration":122449,"Delta":103836603},{"NoteNumber":52,"Velocity":66,"Duration":122449,"SoundDuration":122449,"Delta":103836603},{"NoteNumber":69,"Velocity":86,"Duration":233463,"SoundDuration":233463,"Delta":104081501},{"NoteNumber":57,"Velocity":75,"Duration":233463,"SoundDuration":233463,"Delta":104081501},{"NoteNumber":71,"Velocity":75,"Duration":121951,"SoundDuration":121951,"Delta":104314964},{"NoteNumber":59,"Velocity":66,"Duration":121951,"SoundDuration":121951,"Delta":104314964},{"NoteNumber":72,"Velocity":86,"Duration":239044,"SoundDuration":239044,"Delta":104558867},{"NoteNumber":60,"Velocity":75,"Duration":239044,"SoundDuration":239044,"Delta":104558867},{"NoteNumber":76,"Velocity":75,"Duration":132158,"SoundDuration":132158,"Delta":104797911},{"NoteNumber":64,"Velocity":66,"Duration":132158,"SoundDuration":132158,"Delta":104797911},{"NoteNumber":64,"Velocity":73,"Duration":264316,"SoundDuration":264316,"Delta":105062228},{"NoteNumber":68,"Velocity":73,"Duration":264316,"SoundDuration":264316,"Delta":105062228},{"NoteNumber":71,"Velocity":86,"Duration":264316,"SoundDuration":264316,"Delta":105062228},{"NoteNumber":52,"Velocity":79,"Duration":264316,"SoundDuration":264316,"Delta":105062228},{"NoteNumber":64,"Velocity":68,"Duration":252100,"SoundDuration":252100,"Delta":105326545},{"NoteNumber":68,"Velocity":68,"Duration":252100,"SoundDuration":252100,"Delta":105326545},{"NoteNumber":71,"Velocity":81,"Duration":252100,"SoundDuration":252100,"Delta":105326545},{"NoteNumber":52,"Velocity":69,"Duration":252100,"SoundDuration":252100,"Delta":105326545},{"NoteNumber":64,"Velocity":68,"Duration":245901,"SoundDuration":245901,"Delta":105578646},{"NoteNumber":69,"Velocity":68,"Duration":245901,"SoundDuration":245901,"Delta":105578646},{"NoteNumber":72,"Velocity":81,"Duration":245901,"SoundDuration":245901,"Delta":105578646},{"NoteNumber":57,"Velocity":80,"Duration":245901,"SoundDuration":245901,"Delta":105578646},{"NoteNumber":64,"Velocity":72,"Duration":263158,"SoundDuration":263158,"Delta":105824547},{"NoteNumber":67,"Velocity":72,"Duration":263158,"SoundDuration":263158,"Delta":105824547},{"NoteNumber":69,"Velocity":72,"Duration":263158,"SoundDuration":263158,"Delta":105824547},{"NoteNumber":73,"Velocity":85,"Duration":263158,"SoundDuration":263158,"Delta":105824547},{"NoteNumber":45,"Velocity":72,"Duration":263158,"SoundDuration":263158,"Delta":105824547},{"NoteNumber":65,"Velocity":77,"Duration":496858,"SoundDuration":496858,"Delta":106087705},{"NoteNumber":69,"Velocity":77,"Duration":496858,"SoundDuration":496858,"Delta":106087705},{"NoteNumber":74,"Velocity":91,"Duration":496858,"SoundDuration":496858,"Delta":106087705},{"NoteNumber":50,"Velocity":86,"Duration":121951,"SoundDuration":121951,"Delta":106087705},{"NoteNumber":52,"Velocity":73,"Duration":121951,"SoundDuration":121951,"Delta":106209656},{"NoteNumber":50,"Velocity":78,"Duration":121951,"SoundDuration":121951,"Delta":106331608},{"NoteNumber":52,"Velocity":69,"Duration":131004,"SoundDuration":131004,"Delta":106453559},{"NoteNumber":65,"Velocity":81,"Duration":119047,"SoundDuration":119047,"Delta":106584563},{"NoteNumber":53,"Velocity":71,"Duration":119047,"SoundDuration":119047,"Delta":106584563},{"NoteNumber":64,"Velocity":72,"Duration":119047,"SoundDuration":119047,"Delta":106703611},{"NoteNumber":52,"Velocity":63,"Duration":119047,"SoundDuration":119047,"Delta":106703611},{"NoteNumber":65,"Velocity":80,"Duration":119047,"SoundDuration":119047,"Delta":106822658},{"NoteNumber":53,"Velocity":70,"Duration":119047,"SoundDuration":119047,"Delta":106822658},{"NoteNumber":64,"Velocity":72,"Duration":133928,"SoundDuration":133928,"Delta":106941706},{"NoteNumber":52,"Velocity":63,"Duration":133928,"SoundDuration":133928,"Delta":106941706},{"NoteNumber":62,"Velocity":84,"Duration":239044,"SoundDuration":239044,"Delta":107075634},{"NoteNumber":50,"Velocity":73,"Duration":239044,"SoundDuration":239044,"Delta":107075634},{"NoteNumber":64,"Velocity":72,"Duration":122449,"SoundDuration":122449,"Delta":107314678},{"NoteNumber":52,"Velocity":63,"Duration":122449,"SoundDuration":122449,"Delta":107314678},{"NoteNumber":65,"Velocity":82,"Duration":234375,"SoundDuration":234375,"Delta":107559576},{"NoteNumber":53,"Velocity":72,"Duration":234375,"SoundDuration":234375,"Delta":107559576},{"NoteNumber":69,"Velocity":72,"Duration":122449,"SoundDuration":122449,"Delta":107793951},{"NoteNumber":57,"Velocity":63,"Duration":122449,"SoundDuration":122449,"Delta":107793951},{"NoteNumber":74,"Velocity":82,"Duration":235293,"SoundDuration":235293,"Delta":108038849},{"NoteNumber":62,"Velocity":72,"Duration":235293,"SoundDuration":235293,"Delta":108038849},{"NoteNumber":76,"Velocity":72,"Duration":126582,"SoundDuration":126582,"Delta":108274143},{"NoteNumber":64,"Velocity":63,"Duration":126582,"SoundDuration":126582,"Delta":108274143},{"NoteNumber":77,"Velocity":82,"Duration":242914,"SoundDuration":242914,"Delta":108527308},{"NoteNumber":65,"Velocity":72,"Duration":242914,"SoundDuration":242914,"Delta":108527308},{"NoteNumber":81,"Velocity":72,"Duration":153846,"SoundDuration":153846,"Delta":108770223},{"NoteNumber":69,"Velocity":63,"Duration":153846,"SoundDuration":153846,"Delta":108770223},{"NoteNumber":71,"Velocity":71,"Duration":254237,"SoundDuration":254237,"Delta":109077915},{"NoteNumber":76,"Velocity":71,"Duration":254237,"SoundDuration":254237,"Delta":109077915},{"NoteNumber":80,"Velocity":85,"Duration":254237,"SoundDuration":254237,"Delta":109077915},{"NoteNumber":64,"Velocity":70,"Duration":254237,"SoundDuration":254237,"Delta":109077915},{"NoteNumber":71,"Velocity":67,"Duration":298507,"SoundDuration":298507,"Delta":109332153},{"NoteNumber":76,"Velocity":67,"Duration":298507,"SoundDuration":298507,"Delta":109332153},{"NoteNumber":80,"Velocity":80,"Duration":298507,"SoundDuration":298507,"Delta":109332153},{"NoteNumber":64,"Velocity":63,"Duration":298507,"SoundDuration":298507,"Delta":109332153},{"NoteNumber":72,"Velocity":77,"Duration":481927,"SoundDuration":481927,"Delta":109630660},{"NoteNumber":76,"Velocity":77,"Duration":481927,"SoundDuration":481927,"Delta":109630660},{"NoteNumber":81,"Velocity":92,"Duration":481927,"SoundDuration":481927,"Delta":109630660},{"NoteNumber":69,"Velocity":73,"Duration":481927,"SoundDuration":481927,"Delta":109630660}]}