{"title":"Kreisleriana, Op. 16 No. 6: Sehr langsam","artist":"Schumann","durationMs":239584,"midiSha256":"b7e62abaa32af7c62270f796545b35c04d0a45397863d4d937d35a88cfb76b83","midiObject":[{"NoteNumber":62,"Velocity":43,"Duration":714285,"SoundDuration":714285,"Delta":0},{"NoteNumber":41,"Velocity":34,"Duration":8484686,"SoundDuration":8484686,"Delta":535714},{"NoteNumber":65,"Velocity":37,"Duration":8306115,"SoundDuration":8306115,"Delta":714285},{"NoteNumber":60,"Velocity":50,"Duration":1428570,"SoundDuration":1428570,"Delta":714285},{"NoteNumber":51,"Velocity":37,"Duration":4057995,"SoundDuration":4057995,"Delta":714285},{"NoteNumber":57,"Velocity":37,"Duration":4057995,"SoundDuration":4057995,"Delta":714285},{"NoteNumber":62,"Velocity":44,"Duration":535714,"SoundDuration":535714,"Delta":2142856},{"NoteNumber":60,"Velocity":43,"Duration":89285,"SoundDuration":89285,"Delta":2678570},{"NoteNumber":62,"Velocity":43,"Duration":89285,"SoundDuration":89285,"Delta":2767856},{"NoteNumber":63,"Velocity":50,"Duration":923520,"SoundDuration":923520,"Delta":2857142},{"NoteNumber":62,"Velocity":37,"Duration":317460,"SoundDuration":317460,"Delta":3780662},{"NoteNumber":60,"Velocity":42,"Duration":674157,"SoundDuration":674157,"Delta":4098123},{"NoteNumber":58,"Velocity":45,"Duration":2105263,"SoundDuration":2105263,"Delta":4772280},{"NoteNumber":50,"Velocity":37,"Duration":4248120,"SoundDuration":4248120,"Delta":4772280},{"NoteNumber":53,"Velocity":33,"Duration":1428570,"SoundDuration":1428570,"Delta":6877544},{"NoteNumber":62,"Velocity":43,"Duration":714285,"SoundDuration":714285,"Delta":8306115},{"NoteNumber":41,"Velocity":28,"Duration":8345076,"SoundDuration":8345076,"Delta":8841829},{"NoteNumber":65,"Velocity":37,"Duration":8166505,"SoundDuration":8166505,"Delta":9020400},{"NoteNumber":60,"Velocity":50,"Duration":984648,"SoundDuration":984648,"Delta":9020400},{"NoteNumber":51,"Velocity":37,"Duration":3918384,"SoundDuration":3918384,"Delta":9020400},{"NoteNumber":57,"Velocity":37,"Duration":3918384,"SoundDuration":3918384,"Delta":9020400},{"NoteNumber":62,"Velocity":37,"Duration":313545,"SoundDuration":313545,"Delta":10005048},{"NoteNumber":60,"Velocity":44,"Duration":616921,"SoundDuration":616921,"Delta":10318594},{"NoteNumber":62,"Velocity":43,"Duration":88131,"SoundDuration":88131,"Delta":10935515},{"NoteNumber":63,"Velocity":50,"Duration":923520,"SoundDuration":923520,"Delta":11023647},{"NoteNumber":62,"Velocity":37,"Duration":317460,"SoundDuration":317460,"Delta":11947167},{"NoteNumber":60,"Velocity":42,"Duration":674157,"SoundDuration":674157,"Delta":12264628},{"NoteNumber":58,"Velocity":45,"Duration":7322150,"SoundDuration":7322150,"Delta":12938785},{"NoteNumber":50,"Velocity":37,"Duration":2819549,"SoundDuration":2819549,"Delta":12938785},{"NoteNumber":46,"Velocity":38,"Duration":6903570,"SoundDuration":6903570,"Delta":16472620},{"NoteNumber":39,"Velocity":35,"Duration":178571,"SoundDuration":178571,"Delta":17008334},{"NoteNumber":70,"Velocity":40,"Duration":3389820,"SoundDuration":3389820,"Delta":17186905},{"NoteNumber":55,"Velocity":45,"Duration":1428570,"SoundDuration":1428570,"Delta":17186905},{"NoteNumber":55,"Velocity":38,"Duration":714285,"SoundDuration":714285,"Delta":18615476},{"NoteNumber":58,"Velocity":42,"Duration":1928781,"SoundDuration":1928781,"Delta":19329762},{"NoteNumber":57,"Velocity":37,"Duration":315789,"SoundDuration":315789,"Delta":20260936},{"NoteNumber":58,"Velocity":30,"Duration":2799465,"SoundDuration":2799465,"Delta":20576725},{"NoteNumber":55,"Velocity":41,"Duration":681817,"SoundDuration":681817,"Delta":20576725},{"NoteNumber":38,"Velocity":33,"Duration":170454,"SoundDuration":170454,"Delta":21088089},{"NoteNumber":70,"Velocity":41,"Duration":4235295,"SoundDuration":4235295,"Delta":21258543},{"NoteNumber":53,"Velocity":42,"Duration":2117647,"SoundDuration":2117647,"Delta":21258543},{"NoteNumber":46,"Velocity":42,"Duration":705882,"SoundDuration":705882,"Delta":23355602},{"NoteNumber":58,"Velocity":34,"Duration":705882,"SoundDuration":705882,"Delta":24787956},{"NoteNumber":46,"Velocity":27,"Duration":705882,"SoundDuration":705882,"Delta":24787956},{"NoteNumber":36,"Velocity":31,"Duration":2182726,"SoundDuration":2182726,"Delta":25317367},{"NoteNumber":63,"Velocity":43,"Duration":984429,"SoundDuration":984429,"Delta":25493838},{"NoteNumber":51,"Velocity":34,"Duration":984429,"SoundDuration":984429,"Delta":25493838},{"NoteNumber":63,"Velocity":32,"Duration":332963,"SoundDuration":332963,"Delta":26478267},{"NoteNumber":51,"Velocity":25,"Duration":332963,"SoundDuration":332963,"Delta":26478267},{"NoteNumber":63,"Velocity":38,"Duration":602755,"SoundDuration":602755,"Delta":26811231},{"NoteNumber":51,"Velocity":30,"Duration":602755,"SoundDuration":602755,"Delta":26811231},{"NoteNumber":63,"Velocity":30,"Duration":172215,"SoundDuration":172215,"Delta":27327878},{"NoteNumber":51,"Velocity":24,"Duration":172215,"SoundDuration":172215,"Delta":27327878},{"NoteNumber":65,"Velocity":28,"Duration":86107,"SoundDuration":86107,"Delta":27413986},{"NoteNumber":53,"Velocity":22,"Duration":86107,"SoundDuration":86107,"Delta":27413986},{"NoteNumber":67,"Velocity":39,"Duration":926381,"SoundDuration":926381,"Delta":27500094},{"NoteNumber":55,"Velocity":31,"Duration":926381,"SoundDuration":926381,"Delta":27500094},{"NoteNumber":65,"Velocity":30,"Duration":314136,"SoundDuration":314136,"Delta":28426475},{"NoteNumber":53,"Velocity":24,"Duration":314136,"SoundDuration":314136,"Delta":28426475},{"NoteNumber":63,"Velocity":33,"Duration":722891,"SoundDuration":722891,"Delta":28740612},{"NoteNumber":51,"Velocity":26,"Duration":722891,"SoundDuration":722891,"Delta":28740612},{"NoteNumber":62,"Velocity":33,"Duration":3488372,"SoundDuration":3488372,"Delta":29463503},{"NoteNumber":38,"Velocity":23,"Duration":3488372,"SoundDuration":3488372,"Delta":29463503},{"NoteNumber":50,"Velocity":26,"Duration":3488372,"SoundDuration":3488372,"Delta":29463503},{"NoteNumber":33,"Velocity":27,"Duration":697674,"SoundDuration":697674,"Delta":32951876},{"NoteNumber":52,"Velocity":24,"Duration":4449179,"SoundDuration":4449179,"Delta":33649550},{"NoteNumber":57,"Velocity":24,"Duration":5903724,"SoundDuration":5903724,"Delta":33649550},{"NoteNumber":62,"Velocity":27,"Duration":2109634,"SoundDuration":2109634,"Delta":33649550},{"NoteNumber":33,"Velocity":31,"Duration":1395348,"SoundDuration":1395348,"Delta":33649550},{"NoteNumber":33,"Velocity":27,"Duration":714285,"SoundDuration":714285,"Delta":35044899},{"NoteNumber":61,"Velocity":27,"Duration":2339544,"SoundDuration":2339544,"Delta":35759185},{"NoteNumber":33,"Velocity":33,"Duration":1093261,"SoundDuration":1093261,"Delta":35759185},{"NoteNumber":33,"Velocity":27,"Duration":370370,"SoundDuration":370370,"Delta":36852446},{"NoteNumber":33,"Velocity":31,"Duration":875912,"SoundDuration":875912,"Delta":37222817},{"NoteNumber":54,"Velocity":24,"Duration":1454545,"SoundDuration":1454545,"Delta":38098729},{"NoteNumber":62,"Velocity":27,"Duration":1454545,"SoundDuration":1454545,"Delta":38098729},{"NoteNumber":26,"Velocity":31,"Duration":2181817,"SoundDuration":2181817,"Delta":38098729},{"NoteNumber":55,"Velocity":54,"Duration":1747573,"SoundDuration":1747573,"Delta":40280547},{"NoteNumber":53,"Velocity":54,"Duration":1747573,"SoundDuration":1747573,"Delta":40280547},{"NoteNumber":62,"Velocity":54,"Duration":1747573,"SoundDuration":1747573,"Delta":40280547},{"NoteNumber":59,"Velocity":54,"Duration":1747573,"SoundDuration":1747573,"Delta":40280547},{"NoteNumber":31,"Velocity":48,"Duration":1165049,"SoundDuration":1165049,"Delta":40280547},{"NoteNumber":43,"Velocity":48,"Duration":1165049,"SoundDuration":1165049,"Delta":40280547},{"NoteNumber":43,"Velocity":56,"Duration":582524,"SoundDuration":582524,"Delta":41445596},{"NoteNumber":51,"Velocity":59,"Duration":1153953,"SoundDuration":1153953,"Delta":42028120},{"NoteNumber":55,"Velocity":59,"Duration":1153953,"SoundDuration":1153953,"Delta":42028120},{"NoteNumber":60,"Velocity":59,"Duration":1153953,"SoundDuration":1153953,"Delta":42028120},{"NoteNumber":36,"Velocity":48,"Duration":1153953,"SoundDuration":1153953,"Delta":42028120},{"NoteNumber":48,"Velocity":48,"Duration":1264044,"SoundDuration":1264044,"Delta":42028120},{"NoteNumber":50,"Velocity":47,"Duration":110091,"SoundDuration":110091,"Delta":43292165},{"NoteNumber":51,"Velocity":49,"Duration":110091,"SoundDuration":110091,"Delta":43402256},{"NoteNumber":53,"Velocity":51,"Duration":110091,"SoundDuration":110091,"Delta":43512348},{"NoteNumber":55,"Velocity":53,"Duration":110091,"SoundDuration":110091,"Delta":43622440},{"NoteNumber":53,"Velocity":55,"Duration":1153473,"SoundDuration":1153473,"Delta":43732532},{"NoteNumber":59,"Velocity":55,"Duration":1153473,"SoundDuration":1153473,"Delta":43732532},{"NoteNumber":56,"Velocity":55,"Duration":1263565,"SoundDuration":1263565,"Delta":43732532},{"NoteNumber":55,"Velocity":50,"Duration":110091,"SoundDuration":110091,"Delta":44996097},{"NoteNumber":53,"Velocity":52,"Duration":110091,"SoundDuration":110091,"Delta":45106188},{"NoteNumber":51,"Velocity":55,"Duration":110091,"SoundDuration":110091,"Delta":45216280},{"NoteNumber":55,"Velocity":53,"Duration":110091,"SoundDuration":110091,"Delta":45326372},{"NoteNumber":50,"Velocity":57,"Duration":110091,"SoundDuration":110091,"Delta":45326372},{"NoteNumber":51,"Velocity":63,"Duration":1132530,"SoundDuration":1132530,"Delta":45436464},{"NoteNumber":60,"Velocity":63,"Duration":1242541,"SoundDuration":1242541,"Delta":45436464},{"NoteNumber":36,"Velocity":63,"Duration":1132530,"SoundDuration":1132530,"Delta":45436464},{"NoteNumber":48,"Velocity":63,"Duration":1132530,"SoundDuration":1132530,"Delta":45436464},{"NoteNumber":62,"Velocity":59,"Duration":110011,"SoundDuration":110011,"Delta":46679005},{"NoteNumber":63,"Velocity":61,"Duration":110011,"SoundDuration":110011,"Delta":46789016},{"NoteNumber":65,"Velocity":63,"Duration":110011,"SoundDuration":110011,"Delta":46899027},{"NoteNumber":67,"Velocity":64,"Duration":110011,"SoundDuration":110011,"Delta":47009038},{"NoteNumber":62,"Velocity":66,"Duration":1175548,"SoundDuration":1175548,"Delta":47119049},{"NoteNumber":68,"Velocity":66,"Duration":1286066,"SoundDuration":1286066,"Delta":47119049},{"NoteNumber":34,"Velocity":61,"Duration":1175548,"SoundDuration":1175548,"Delta":47119049},{"NoteNumber":46,"Velocity":61,"Duration":1175548,"SoundDuration":1175548,"Delta":47119049},{"NoteNumber":67,"Velocity":59,"Duration":110517,"SoundDuration":110517,"Delta":48405116},{"NoteNumber":65,"Velocity":60,"Duration":110517,"SoundDuration":110517,"Delta":48515633},{"NoteNumber":63,"Velocity":61,"Duration":110517,"SoundDuration":110517,"Delta":48626151},{"NoteNumber":62,"Velocity":67,"Duration":110517,"SoundDuration":110517,"Delta":48736668},{"NoteNumber":46,"Velocity":53,"Duration":110517,"SoundDuration":110517,"Delta":48736668},{"NoteNumber":58,"Velocity":59,"Duration":1153953,"SoundDuration":1153953,"Delta":48847186},{"NoteNumber":67,"Velocity":59,"Duration":1153953,"SoundDuration":1153953,"Delta":48847186},{"NoteNumber":39,"Velocity":48,"Duration":1153953,"SoundDuration":1153953,"Delta":48847186},{"NoteNumber":51,"Velocity":48,"Duration":1264044,"SoundDuration":1264044,"Delta":48847186},{"NoteNumber":54,"Velocity":47,"Duration":110091,"SoundDuration":110091,"Delta":50111231},{"NoteNumber":55,"Velocity":49,"Duration":110091,"SoundDuration":110091,"Delta":50221322},{"NoteNumber":57,"Velocity":51,"Duration":110091,"SoundDuration":110091,"Delta":50331414},{"NoteNumber":58,"Velocity":53,"Duration":110091,"SoundDuration":110091,"Delta":50441506},{"NoteNumber":60,"Velocity":55,"Duration":1153473,"SoundDuration":1153473,"Delta":50551598},{"NoteNumber":62,"Velocity":55,"Duration":1153473,"SoundDuration":1153473,"Delta":50551598},{"NoteNumber":66,"Velocity":55,"Duration":1153473,"SoundDuration":1153473,"Delta":50551598},{"NoteNumber":50,"Velocity":55,"Duration":1153473,"SoundDuration":1153473,"Delta":50551598},{"NoteNumber":60,"Velocity":55,"Duration":1263565,"SoundDuration":1263565,"Delta":50551598},{"NoteNumber":58,"Velocity":50,"Duration":110091,"SoundDuration":110091,"Delta":51815163},{"NoteNumber":57,"Velocity":52,"Duration":110091,"SoundDuration":110091,"Delta":51925254},{"NoteNumber":55,"Velocity":55,"Duration":110091,"SoundDuration":110091,"Delta":52035346},{"NoteNumber":62,"Velocity":53,"Duration":110091,"SoundDuration":110091,"Delta":52145438},{"NoteNumber":54,"Velocity":57,"Duration":110091,"SoundDuration":110091,"Delta":52145438},{"NoteNumber":58,"Velocity":63,"Duration":1132530,"SoundDuration":1132530,"Delta":52255530},{"NoteNumber":67,"Velocity":63,"Duration":1245631,"SoundDuration":1245631,"Delta":52255530},{"NoteNumber":43,"Velocity":63,"Duration":1698034,"SoundDuration":1698034,"Delta":52255530},{"NoteNumber":55,"Velocity":63,"Duration":1698034,"SoundDuration":1698034,"Delta":52255530},{"NoteNumber":69,"Velocity":59,"Duration":113100,"SoundDuration":113100,"Delta":53501161},{"NoteNumber":70,"Velocity":61,"Duration":113100,"SoundDuration":113100,"Delta":53614262},{"NoteNumber":72,"Velocity":63,"Duration":113100,"SoundDuration":113100,"Delta":53727362},{"NoteNumber":74,"Velocity":64,"Duration":113100,"SoundDuration":113100,"Delta":53840463},{"NoteNumber":70,"Velocity":66,"Duration":1174285,"SoundDuration":1174285,"Delta":53953564},{"NoteNumber":75,"Velocity":66,"Duration":1290589,"SoundDuration":1290589,"Delta":53953564},{"NoteNumber":42,"Velocity":61,"Duration":1784014,"SoundDuration":1784014,"Delta":53953564},{"NoteNumber":54,"Velocity":61,"Duration":1784014,"SoundDuration":1784014,"Delta":53953564},{"NoteNumber":74,"Velocity":58,"Duration":119143,"SoundDuration":119143,"Delta":55244154},{"NoteNumber":75,"Velocity":60,"Duration":121810,"SoundDuration":121810,"Delta":55363297},{"NoteNumber":77,"Velocity":62,"Duration":124716,"SoundDuration":124716,"Delta":55485108},{"NoteNumber":78,"Velocity":64,"Duration":127753,"SoundDuration":127753,"Delta":55609825},{"NoteNumber":69,"Velocity":56,"Duration":1177652,"SoundDuration":1177652,"Delta":55737578},{"NoteNumber":78,"Velocity":66,"Duration":1299877,"SoundDuration":1299877,"Delta":55737578},{"NoteNumber":41,"Velocity":61,"Duration":1177652,"SoundDuration":1177652,"Delta":55737578},{"NoteNumber":53,"Velocity":61,"Duration":1177652,"SoundDuration":1177652,"Delta":55737578},{"NoteNumber":69,"Velocity":59,"Duration":124604,"SoundDuration":124604,"Delta":57037456},{"NoteNumber":70,"Velocity":60,"Duration":126743,"SoundDuration":126743,"Delta":57162060},{"NoteNumber":72,"Velocity":61,"Duration":129304,"SoundDuration":129304,"Delta":57288804},{"NoteNumber":74,"Velocity":63,"Duration":131609,"SoundDuration":131609,"Delta":57418108},{"NoteNumber":72,"Velocity":66,"Duration":1392076,"SoundDuration":1392076,"Delta":57549718},{"NoteNumber":75,"Velocity":66,"Duration":1392076,"SoundDuration":1392076,"Delta":57549718},{"NoteNumber":42,"Velocity":56,"Duration":2272373,"SoundDuration":2272373,"Delta":57549718},{"NoteNumber":54,"Velocity":56,"Duration":5558369,"SoundDuration":5558369,"Delta":57549718},{"NoteNumber":70,"Velocity":45,"Duration":880296,"SoundDuration":880296,"Delta":58941794},{"NoteNumber":74,"Velocity":54,"Duration":202737,"SoundDuration":202737,"Delta":58941794},{"NoteNumber":75,"Velocity":50,"Duration":214872,"SoundDuration":214872,"Delta":59144531},{"NoteNumber":77,"Velocity":48,"Duration":228402,"SoundDuration":228402,"Delta":59359404},{"NoteNumber":78,"Velocity":46,"Duration":234283,"SoundDuration":234283,"Delta":59587807},{"NoteNumber":70,"Velocity":45,"Duration":2095691,"SoundDuration":2095691,"Delta":59822091},{"NoteNumber":78,"Velocity":45,"Duration":1507916,"SoundDuration":1507916,"Delta":59822091},{"NoteNumber":39,"Velocity":26,"Duration":3873770,"SoundDuration":3873770,"Delta":59822091},{"NoteNumber":75,"Velocity":38,"Duration":587774,"SoundDuration":587774,"Delta":61330008},{"NoteNumber":70,"Velocity":41,"Duration":1778079,"SoundDuration":1778079,"Delta":61917782},{"NoteNumber":66,"Velocity":31,"Duration":587774,"SoundDuration":587774,"Delta":63108087},{"NoteNumber":54,"Velocity":22,"Duration":587774,"SoundDuration":587774,"Delta":63108087},{"NoteNumber":56,"Velocity":35,"Duration":1132530,"SoundDuration":1132530,"Delta":63695862},{"NoteNumber":64,"Velocity":35,"Duration":1242541,"SoundDuration":1242541,"Delta":63695862},{"NoteNumber":37,"Velocity":30,"Duration":1682585,"SoundDuration":1682585,"Delta":63695862},{"NoteNumber":55,"Velocity":35,"Duration":110011,"SoundDuration":110011,"Delta":64938403},{"NoteNumber":56,"Velocity":37,"Duration":110011,"SoundDuration":110011,"Delta":65048414},{"NoteNumber":58,"Velocity":39,"Duration":110011,"SoundDuration":110011,"Delta":65158425},{"NoteNumber":59,"Velocity":41,"Duration":110011,"SoundDuration":110011,"Delta":65268436},{"NoteNumber":58,"Velocity":35,"Duration":1130813,"SoundDuration":1130813,"Delta":65378447},{"NoteNumber":64,"Velocity":35,"Duration":1247517,"SoundDuration":1247517,"Delta":65378447},{"NoteNumber":42,"Velocity":30,"Duration":5265449,"SoundDuration":5265449,"Delta":65378447},{"NoteNumber":63,"Velocity":35,"Duration":119488,"SoundDuration":119488,"Delta":66625965},{"NoteNumber":64,"Velocity":37,"Duration":123287,"SoundDuration":123287,"Delta":66745453},{"NoteNumber":66,"Velocity":39,"Duration":126411,"SoundDuration":126411,"Delta":66868740},{"NoteNumber":68,"Velocity":41,"Duration":130114,"SoundDuration":130114,"Delta":66995151},{"NoteNumber":70,"Velocity":45,"Duration":3518630,"SoundDuration":3518630,"Delta":67125266},{"NoteNumber":66,"Velocity":45,"Duration":1187254,"SoundDuration":1187254,"Delta":67125266},{"NoteNumber":30,"Velocity":26,"Duration":3518630,"SoundDuration":3518630,"Delta":67125266},{"NoteNumber":63,"Velocity":31,"Duration":593588,"SoundDuration":593588,"Delta":68312520},{"NoteNumber":58,"Velocity":34,"Duration":1158524,"SoundDuration":1158524,"Delta":68906109},{"NoteNumber":54,"Velocity":26,"Duration":579262,"SoundDuration":579262,"Delta":70064634},{"NoteNumber":56,"Velocity":35,"Duration":1132530,"SoundDuration":1132530,"Delta":70643897},{"NoteNumber":63,"Velocity":35,"Duration":1242541,"SoundDuration":1242541,"Delta":70643897},{"NoteNumber":29,"Velocity":30,"Duration":1682585,"SoundDuration":1682585,"Delta":70643897},{"NoteNumber":41,"Velocity":30,"Duration":1682585,"SoundDuration":1682585,"Delta":70643897},{"NoteNumber":55,"Velocity":35,"Duration":110011,"SoundDuration":110011,"Delta":71886438},{"NoteNumber":56,"Velocity":37,"Duration":110011,"SoundDuration":110011,"Delta":71996449},{"NoteNumber":58,"Velocity":39,"Duration":110011,"SoundDuration":110011,"Delta":72106460},{"NoteNumber":59,"Velocity":41,"Duration":110011,"SoundDuration":110011,"Delta":72216471},{"NoteNumber":58,"Velocity":26,"Duration":1132530,"SoundDuration":1132530,"Delta":72326482},{"NoteNumber":62,"Velocity":41,"Duration":1242541,"SoundDuration":1242541,"Delta":72326482},{"NoteNumber":34,"Velocity":30,"Duration":3463428,"SoundDuration":3463428,"Delta":72326482},{"NoteNumber":46,"Velocity":30,"Duration":3463428,"SoundDuration":3463428,"Delta":72326482},{"NoteNumber":61,"Velocity":35,"Duration":110011,"SoundDuration":110011,"Delta":73569024},{"NoteNumber":62,"Velocity":37,"Duration":110011,"SoundDuration":110011,"Delta":73679035},{"NoteNumber":63,"Velocity":39,"Duration":110011,"SoundDuration":110011,"Delta":73789046},{"NoteNumber":65,"Velocity":41,"Duration":110011,"SoundDuration":110011,"Delta":73899057},{"NoteNumber":66,"Velocity":45,"Duration":3518630,"SoundDuration":3518630,"Delta":74009068},{"NoteNumber":63,"Velocity":45,"Duration":2939368,"SoundDuration":2939368,"Delta":74009068},{"NoteNumber":35,"Velocity":26,"Duration":1737787,"SoundDuration":1737787,"Delta":75789911},{"NoteNumber":47,"Velocity":34,"Duration":1737787,"SoundDuration":1737787,"Delta":75789911},{"NoteNumber":58,"Velocity":26,"Duration":579262,"SoundDuration":579262,"Delta":76948436},{"NoteNumber":57,"Velocity":26,"Duration":8306115,"SoundDuration":8306115,"Delta":77527699},{"NoteNumber":63,"Velocity":26,"Duration":8306115,"SoundDuration":8306115,"Delta":77527699},{"NoteNumber":65,"Velocity":33,"Duration":8306115,"SoundDuration":8306115,"Delta":77527699},{"NoteNumber":41,"Velocity":37,"Duration":6877544,"SoundDuration":6877544,"Delta":77527699},{"NoteNumber":36,"Velocity":50,"Duration":1428571,"SoundDuration":1428571,"Delta":77527699},{"NoteNumber":48,"Velocity":37,"Duration":8304704,"SoundDuration":8304704,"Delta":77548532},{"NoteNumber":38,"Velocity":44,"Duration":535714,"SoundDuration":535714,"Delta":78956270},{"NoteNumber":36,"Velocity":43,"Duration":89285,"SoundDuration":89285,"Delta":79491984},{"NoteNumber":38,"Velocity":43,"Duration":89285,"SoundDuration":89285,"Delta":79581269},{"NoteNumber":39,"Velocity":50,"Duration":923520,"SoundDuration":923520,"Delta":79670555},{"NoteNumber":38,"Velocity":37,"Duration":317460,"SoundDuration":317460,"Delta":80594076},{"NoteNumber":36,"Velocity":42,"Duration":589887,"SoundDuration":589887,"Delta":80911536},{"NoteNumber":34,"Velocity":45,"Duration":2189533,"SoundDuration":2189533,"Delta":81501424},{"NoteNumber":53,"Velocity":26,"Duration":4248120,"SoundDuration":4248120,"Delta":81585694},{"NoteNumber":58,"Velocity":26,"Duration":4248120,"SoundDuration":4248120,"Delta":81585694},{"NoteNumber":65,"Velocity":33,"Duration":4248120,"SoundDuration":4248120,"Delta":81585694},{"NoteNumber":41,"Velocity":45,"Duration":4248120,"SoundDuration":4248120,"Delta":81585694},{"NoteNumber":50,"Velocity":37,"Duration":2105263,"SoundDuration":2105263,"Delta":81585694},{"NoteNumber":29,"Velocity":33,"Duration":714285,"SoundDuration":714285,"Delta":83690957},{"NoteNumber":38,"Velocity":43,"Duration":714285,"SoundDuration":714285,"Delta":85119528},{"NoteNumber":57,"Velocity":26,"Duration":3971049,"SoundDuration":3971049,"Delta":85833814},{"NoteNumber":63,"Velocity":26,"Duration":3971049,"SoundDuration":3971049,"Delta":85833814},{"NoteNumber":65,"Velocity":33,"Duration":3971049,"SoundDuration":3971049,"Delta":85833814},{"NoteNumber":48,"Velocity":37,"Duration":8219169,"SoundDuration":8219169,"Delta":85833814},{"NoteNumber":41,"Velocity":37,"Duration":7504884,"SoundDuration":7504884,"Delta":85833814},{"NoteNumber":36,"Velocity":50,"Duration":1008392,"SoundDuration":1008392,"Delta":85833814},{"NoteNumber":38,"Velocity":44,"Duration":342465,"SoundDuration":342465,"Delta":86842206},{"NoteNumber":36,"Velocity":44,"Duration":528789,"SoundDuration":528789,"Delta":87184672},{"NoteNumber":36,"Velocity":43,"Duration":88131,"SoundDuration":88131,"Delta":87713461},{"NoteNumber":38,"Velocity":43,"Duration":88131,"SoundDuration":88131,"Delta":87801593},{"NoteNumber":39,"Velocity":50,"Duration":923520,"SoundDuration":923520,"Delta":87889725},{"NoteNumber":38,"Velocity":37,"Duration":317460,"SoundDuration":317460,"Delta":88813245},{"NoteNumber":36,"Velocity":42,"Duration":505618,"SoundDuration":505618,"Delta":89130706},{"NoteNumber":34,"Velocity":45,"Duration":168539,"SoundDuration":168539,"Delta":89636324},{"NoteNumber":58,"Velocity":26,"Duration":7248259,"SoundDuration":7248259,"Delta":89804863},{"NoteNumber":53,"Velocity":26,"Duration":4248120,"SoundDuration":4248120,"Delta":89804863},{"NoteNumber":65,"Velocity":33,"Duration":4248120,"SoundDuration":4248120,"Delta":89804863},{"NoteNumber":50,"Velocity":45,"Duration":3533834,"SoundDuration":3533834,"Delta":89804863},{"NoteNumber":41,"Velocity":45,"Duration":4248120,"SoundDuration":4248120,"Delta":89804863},{"NoteNumber":46,"Velocity":38,"Duration":6654050,"SoundDuration":6654050,"Delta":93338698},{"NoteNumber":39,"Velocity":35,"Duration":178571,"SoundDuration":178571,"Delta":93874412},{"NoteNumber":70,"Velocity":40,"Duration":3315928,"SoundDuration":3315928,"Delta":94052983},{"NoteNumber":55,"Velocity":45,"Duration":1379310,"SoundDuration":1379310,"Delta":94052983},{"NoteNumber":55,"Velocity":38,"Duration":689655,"SoundDuration":689655,"Delta":95432293},{"NoteNumber":58,"Velocity":42,"Duration":1928781,"SoundDuration":1928781,"Delta":96121948},{"NoteNumber":57,"Velocity":37,"Duration":315789,"SoundDuration":315789,"Delta":97053122},{"NoteNumber":58,"Velocity":30,"Duration":2623836,"SoundDuration":2623836,"Delta":97368912},{"NoteNumber":55,"Velocity":41,"Duration":681818,"SoundDuration":681818,"Delta":97368912},{"NoteNumber":38,"Velocity":35,"Duration":170454,"SoundDuration":170454,"Delta":97880275},{"NoteNumber":70,"Velocity":48,"Duration":934112,"SoundDuration":934112,"Delta":98050730},{"NoteNumber":53,"Velocity":34,"Duration":1964977,"SoundDuration":1964977,"Delta":98050730},{"NoteNumber":70,"Velocity":50,"Duration":326087,"SoundDuration":326087,"Delta":98984843},{"NoteNumber":70,"Velocity":56,"Duration":596590,"SoundDuration":596590,"Delta":99310930},{"NoteNumber":70,"Velocity":52,"Duration":170454,"SoundDuration":170454,"Delta":99822293},{"NoteNumber":72,"Velocity":54,"Duration":85227,"SoundDuration":85227,"Delta":99907520},{"NoteNumber":62,"Velocity":49,"Duration":926381,"SoundDuration":926381,"Delta":99992748},{"NoteNumber":74,"Velocity":56,"Duration":926381,"SoundDuration":926381,"Delta":99992748},{"NoteNumber":46,"Velocity":31,"Duration":612245,"SoundDuration":612245,"Delta":99992748},{"NoteNumber":60,"Velocity":37,"Duration":314136,"SoundDuration":314136,"Delta":100919129},{"NoteNumber":72,"Velocity":44,"Duration":314136,"SoundDuration":314136,"Delta":100919129},{"NoteNumber":58,"Velocity":33,"Duration":722891,"SoundDuration":722891,"Delta":101233265},{"NoteNumber":70,"Velocity":39,"Duration":722891,"SoundDuration":722891,"Delta":101233265},{"NoteNumber":38,"Velocity":22,"Duration":542168,"SoundDuration":542168,"Delta":101233265},{"NoteNumber":46,"Velocity":22,"Duration":542168,"SoundDuration":542168,"Delta":101233265},{"NoteNumber":54,"Velocity":26,"Duration":542168,"SoundDuration":542168,"Delta":101233265},{"NoteNumber":39,"Velocity":34,"Duration":90361,"SoundDuration":90361,"Delta":101775434},{"NoteNumber":46,"Velocity":36,"Duration":2159326,"SoundDuration":2159326,"Delta":101865795},{"NoteNumber":70,"Velocity":40,"Duration":3315928,"SoundDuration":3315928,"Delta":101956157},{"NoteNumber":55,"Velocity":45,"Duration":1379310,"SoundDuration":1379310,"Delta":101956157},{"NoteNumber":55,"Velocity":38,"Duration":517241,"SoundDuration":517241,"Delta":103335467},{"NoteNumber":40,"Velocity":32,"Duration":2101195,"SoundDuration":2101195,"Delta":103852708},{"NoteNumber":49,"Velocity":36,"Duration":2014988,"SoundDuration":2014988,"Delta":103938915},{"NoteNumber":58,"Velocity":42,"Duration":931173,"SoundDuration":931173,"Delta":104025122},{"NoteNumber":57,"Velocity":37,"Duration":315789,"SoundDuration":315789,"Delta":104956296},{"NoteNumber":58,"Velocity":30,"Duration":2644082,"SoundDuration":2644082,"Delta":105272085},{"NoteNumber":55,"Velocity":41,"Duration":681818,"SoundDuration":681818,"Delta":105272085},{"NoteNumber":70,"Velocity":49,"Duration":954359,"SoundDuration":954359,"Delta":105953903},{"NoteNumber":41,"Velocity":30,"Duration":1962264,"SoundDuration":1962264,"Delta":105953903},{"NoteNumber":50,"Velocity":34,"Duration":3202781,"SoundDuration":3202781,"Delta":105953903},{"NoteNumber":53,"Velocity":34,"Duration":3202781,"SoundDuration":3202781,"Delta":105953903},{"NoteNumber":70,"Velocity":50,"Duration":326087,"SoundDuration":326087,"Delta":106908263},{"NoteNumber":70,"Velocity":56,"Duration":596590,"SoundDuration":596590,"Delta":107234350},{"NoteNumber":70,"Velocity":52,"Duration":170454,"SoundDuration":170454,"Delta":107745713},{"NoteNumber":72,"Velocity":54,"Duration":85227,"SoundDuration":85227,"Delta":107830940},{"NoteNumber":62,"Velocity":48,"Duration":926381,"SoundDuration":926381,"Delta":107916168},{"NoteNumber":74,"Velocity":56,"Duration":926381,"SoundDuration":926381,"Delta":107916168},{"NoteNumber":44,"Velocity":50,"Duration":1963408,"SoundDuration":1963408,"Delta":107916168},{"NoteNumber":60,"Velocity":43,"Duration":314136,"SoundDuration":314136,"Delta":108842549},{"NoteNumber":72,"Velocity":51,"Duration":314136,"SoundDuration":314136,"Delta":108842549},{"NoteNumber":58,"Velocity":42,"Duration":722891,"SoundDuration":722891,"Delta":109156685},{"NoteNumber":70,"Velocity":50,"Duration":722891,"SoundDuration":722891,"Delta":109156685},{"NoteNumber":46,"Velocity":26,"Duration":722891,"SoundDuration":722891,"Delta":109156685},{"NoteNumber":75,"Velocity":65,"Duration":936016,"SoundDuration":936016,"Delta":109879577},{"NoteNumber":63,"Velocity":55,"Duration":936016,"SoundDuration":936016,"Delta":109879577},{"NoteNumber":43,"Velocity":36,"Duration":3876226,"SoundDuration":3876226,"Delta":109879577},{"NoteNumber":46,"Velocity":36,"Duration":3876226,"SoundDuration":3876226,"Delta":109879577},{"NoteNumber":51,"Velocity":47,"Duration":936016,"SoundDuration":936016,"Delta":109879577},{"NoteNumber":77,"Velocity":48,"Duration":317460,"SoundDuration":317460,"Delta":110815593},{"NoteNumber":65,"Velocity":40,"Duration":317460,"SoundDuration":317460,"Delta":110815593},{"NoteNumber":53,"Velocity":42,"Duration":317460,"SoundDuration":317460,"Delta":110815593},{"NoteNumber":75,"Velocity":58,"Duration":412087,"SoundDuration":412087,"Delta":111133054},{"NoteNumber":63,"Velocity":49,"Duration":412087,"SoundDuration":412087,"Delta":111133054},{"NoteNumber":51,"Velocity":50,"Duration":412087,"SoundDuration":412087,"Delta":111133054},{"NoteNumber":65,"Velocity":48,"Duration":82417,"SoundDuration":82417,"Delta":111545141},{"NoteNumber":77,"Velocity":57,"Duration":82417,"SoundDuration":82417,"Delta":111545141},{"NoteNumber":53,"Velocity":45,"Duration":82417,"SoundDuration":82417,"Delta":111545141},{"NoteNumber":75,"Velocity":61,"Duration":164835,"SoundDuration":164835,"Delta":111627559},{"NoteNumber":63,"Velocity":51,"Duration":82417,"SoundDuration":82417,"Delta":111627559},{"NoteNumber":51,"Velocity":47,"Duration":82417,"SoundDuration":82417,"Delta":111627559},{"NoteNumber":77,"Velocity":64,"Duration":82417,"SoundDuration":82417,"Delta":111709976},{"NoteNumber":65,"Velocity":54,"Duration":82417,"SoundDuration":82417,"Delta":111709976},{"NoteNumber":53,"Velocity":49,"Duration":82417,"SoundDuration":82417,"Delta":111709976},{"NoteNumber":79,"Velocity":68,"Duration":926381,"SoundDuration":926381,"Delta":111792394},{"NoteNumber":67,"Velocity":57,"Duration":926381,"SoundDuration":926381,"Delta":111792394},{"NoteNumber":55,"Velocity":52,"Duration":926381,"SoundDuration":926381,"Delta":111792394},{"NoteNumber":77,"Velocity":56,"Duration":314136,"SoundDuration":314136,"Delta":112718775},{"NoteNumber":65,"Velocity":47,"Duration":314136,"SoundDuration":314136,"Delta":112718775},{"NoteNumber":53,"Velocity":50,"Duration":314136,"SoundDuration":314136,"Delta":112718775},{"NoteNumber":75,"Velocity":65,"Duration":722891,"SoundDuration":722891,"Delta":113032912},{"NoteNumber":63,"Velocity":55,"Duration":722891,"SoundDuration":722891,"Delta":113032912},{"NoteNumber":51,"Velocity":45,"Duration":722891,"SoundDuration":722891,"Delta":113032912},{"NoteNumber":60,"Velocity":59,"Duration":2168674,"SoundDuration":2168674,"Delta":113755803},{"NoteNumber":62,"Velocity":59,"Duration":2168674,"SoundDuration":2168674,"Delta":113755803},{"NoteNumber":74,"Velocity":70,"Duration":2168674,"SoundDuration":2168674,"Delta":113755803},{"NoteNumber":45,"Velocity":47,"Duration":2168674,"SoundDuration":2168674,"Delta":113755803},{"NoteNumber":50,"Velocity":47,"Duration":2168674,"SoundDuration":2168674,"Delta":113755803},{"NoteNumber":54,"Velocity":56,"Duration":2168674,"SoundDuration":2168674,"Delta":113755803},{"NoteNumber":65,"Velocity":35,"Duration":2117647,"SoundDuration":2117647,"Delta":115924478},{"NoteNumber":74,"Velocity":45,"Duration":2117647,"SoundDuration":2117647,"Delta":115924478},{"NoteNumber":67,"Velocity":50,"Duration":1411765,"SoundDuration":1411765,"Delta":115924478},{"NoteNumber":46,"Velocity":34,"Duration":2117647,"SoundDuration":2117647,"Delta":115924478},{"NoteNumber":55,"Velocity":39,"Duration":1411765,"SoundDuration":1411765,"Delta":115924478},{"NoteNumber":67,"Velocity":42,"Duration":705882,"SoundDuration":705882,"Delta":117336243},{"NoteNumber":55,"Velocity":34,"Duration":705882,"SoundDuration":705882,"Delta":117336243},{"NoteNumber":63,"Velocity":41,"Duration":3866917,"SoundDuration":3866917,"Delta":118042125},{"NoteNumber":72,"Velocity":43,"Duration":1903508,"SoundDuration":1903508,"Delta":118042125},{"NoteNumber":68,"Velocity":53,"Duration":926915,"SoundDuration":926915,"Delta":118042125},{"NoteNumber":60,"Velocity":36,"Duration":1903508,"SoundDuration":1903508,"Delta":118042125},{"NoteNumber":48,"Velocity":38,"Duration":3866917,"SoundDuration":3866917,"Delta":118042125},{"NoteNumber":56,"Velocity":42,"Duration":926915,"SoundDuration":926915,"Delta":118042125},{"NoteNumber":68,"Velocity":39,"Duration":320855,"SoundDuration":320855,"Delta":118969041},{"NoteNumber":56,"Velocity":30,"Duration":320855,"SoundDuration":320855,"Delta":118969041},{"NoteNumber":68,"Velocity":47,"Duration":573770,"SoundDuration":573770,"Delta":119289897},{"NoteNumber":56,"Velocity":37,"Duration":573770,"SoundDuration":573770,"Delta":119289897},{"NoteNumber":68,"Velocity":37,"Duration":163934,"SoundDuration":163934,"Delta":119781700},{"NoteNumber":56,"Velocity":29,"Duration":163934,"SoundDuration":163934,"Delta":119781700},{"NoteNumber":70,"Velocity":35,"Duration":81967,"SoundDuration":81967,"Delta":119863667},{"NoteNumber":58,"Velocity":27,"Duration":81967,"SoundDuration":81967,"Delta":119863667},{"NoteNumber":72,"Velocity":48,"Duration":926381,"SoundDuration":926381,"Delta":119945634},{"NoteNumber":60,"Velocity":38,"Duration":926381,"SoundDuration":926381,"Delta":119945634},{"NoteNumber":70,"Velocity":35,"Duration":314136,"SoundDuration":314136,"Delta":120872015},{"NoteNumber":58,"Velocity":28,"Duration":314136,"SoundDuration":314136,"Delta":120872015},{"NoteNumber":68,"Velocity":37,"Duration":722891,"SoundDuration":722891,"Delta":121186152},{"NoteNumber":56,"Velocity":29,"Duration":722891,"SoundDuration":722891,"Delta":121186152},{"NoteNumber":67,"Velocity":37,"Duration":1994808,"SoundDuration":1994808,"Delta":121909043},{"NoteNumber":65,"Velocity":37,"Duration":1994808,"SoundDuration":1994808,"Delta":121909043},{"NoteNumber":50,"Velocity":35,"Duration":963383,"SoundDuration":963383,"Delta":121909043},{"NoteNumber":55,"Velocity":35,"Duration":1994808,"SoundDuration":1994808,"Delta":121909043},{"NoteNumber":59,"Velocity":35,"Duration":1994808,"SoundDuration":1994808,"Delta":121909043},{"NoteNumber":51,"Velocity":35,"Duration":329670,"SoundDuration":329670,"Delta":122872427},{"NoteNumber":53,"Velocity":35,"Duration":526315,"SoundDuration":526315,"Delta":123202097},{"NoteNumber":48,"Velocity":35,"Duration":2247845,"SoundDuration":2247845,"Delta":123728413},{"NoteNumber":53,"Velocity":35,"Duration":1089917,"SoundDuration":1089917,"Delta":123816132},{"NoteNumber":58,"Velocity":37,"Duration":2072406,"SoundDuration":2072406,"Delta":123903852},{"NoteNumber":67,"Velocity":37,"Duration":2072406,"SoundDuration":2072406,"Delta":123903852},{"NoteNumber":60,"Velocity":35,"Duration":2072406,"SoundDuration":2072406,"Delta":123903852},{"NoteNumber":52,"Velocity":35,"Duration":342857,"SoundDuration":342857,"Delta":124906049},{"NoteNumber":62,"Velocity":41,"Duration":727351,"SoundDuration":727351,"Delta":125248907},{"NoteNumber":41,"Velocity":34,"Duration":8427548,"SoundDuration":8427548,"Delta":125797687},{"NoteNumber":65,"Velocity":37,"Duration":2142856,"SoundDuration":2142856,"Delta":125976259},{"NoteNumber":60,"Velocity":50,"Duration":1428571,"SoundDuration":1428571,"Delta":125976259},{"NoteNumber":51,"Velocity":37,"Duration":4057995,"SoundDuration":4057995,"Delta":125976259},{"NoteNumber":57,"Velocity":37,"Duration":4057995,"SoundDuration":4057995,"Delta":125976259},{"NoteNumber":62,"Velocity":44,"Duration":535714,"SoundDuration":535714,"Delta":127404830},{"NoteNumber":60,"Velocity":43,"Duration":89285,"SoundDuration":89285,"Delta":127940544},{"NoteNumber":62,"Velocity":43,"Duration":89285,"SoundDuration":89285,"Delta":128029829},{"NoteNumber":63,"Velocity":50,"Duration":923520,"SoundDuration":923520,"Delta":128119115},{"NoteNumber":62,"Velocity":37,"Duration":317460,"SoundDuration":317460,"Delta":129042636},{"NoteNumber":65,"Velocity":44,"Duration":4865139,"SoundDuration":4865139,"Delta":129360096},{"NoteNumber":60,"Velocity":42,"Duration":674157,"SoundDuration":674157,"Delta":129360096},{"NoteNumber":58,"Velocity":45,"Duration":2066590,"SoundDuration":2066590,"Delta":130034254},{"NoteNumber":50,"Velocity":37,"Duration":4190981,"SoundDuration":4190981,"Delta":130034254},{"NoteNumber":53,"Velocity":33,"Duration":1410106,"SoundDuration":1410106,"Delta":132100844},{"NoteNumber":62,"Velocity":43,"Duration":714285,"SoundDuration":714285,"Delta":133510950},{"NoteNumber":41,"Velocity":28,"Duration":3962174,"SoundDuration":3962174,"Delta":134046664},{"NoteNumber":65,"Velocity":37,"Duration":3128581,"SoundDuration":3128581,"Delta":134225236},{"NoteNumber":60,"Velocity":50,"Duration":922326,"SoundDuration":922326,"Delta":134225236},{"NoteNumber":51,"Velocity":37,"Duration":3128581,"SoundDuration":3128581,"Delta":134225236},{"NoteNumber":57,"Velocity":37,"Duration":3128581,"SoundDuration":3128581,"Delta":134225236},{"NoteNumber":62,"Velocity":35,"Duration":313807,"SoundDuration":313807,"Delta":135147563},{"NoteNumber":60,"Velocity":44,"Duration":488599,"SoundDuration":488599,"Delta":135461370},{"NoteNumber":62,"Velocity":43,"Duration":81433,"SoundDuration":81433,"Delta":136031403},{"NoteNumber":63,"Velocity":50,"Duration":923520,"SoundDuration":923520,"Delta":136112836},{"NoteNumber":62,"Velocity":37,"Duration":317460,"SoundDuration":317460,"Delta":137036357},{"NoteNumber":65,"Velocity":44,"Duration":1899857,"SoundDuration":1899857,"Delta":137353817},{"NoteNumber":60,"Velocity":42,"Duration":1583001,"SoundDuration":1583001,"Delta":137353817},{"NoteNumber":51,"Velocity":37,"Duration":1583001,"SoundDuration":1583001,"Delta":137353817},{"NoteNumber":41,"Velocity":52,"Duration":1850284,"SoundDuration":1850284,"Delta":138008839},{"NoteNumber":58,"Velocity":37,"Duration":316856,"SoundDuration":316856,"Delta":138936818},{"NoteNumber":50,"Velocity":31,"Duration":316856,"SoundDuration":316856,"Delta":138936818},{"NoteNumber":65,"Velocity":42,"Duration":605448,"SoundDuration":605448,"Delta":139253675},{"NoteNumber":62,"Velocity":37,"Duration":605448,"SoundDuration":605448,"Delta":139253675},{"NoteNumber":53,"Velocity":38,"Duration":605448,"SoundDuration":605448,"Delta":139253675},{"NoteNumber":65,"Velocity":50,"Duration":897928,"SoundDuration":897928,"Delta":139859124},{"NoteNumber":41,"Velocity":42,"Duration":1798777,"SoundDuration":1798777,"Delta":139859124},{"NoteNumber":60,"Velocity":31,"Duration":307377,"SoundDuration":307377,"Delta":140757052},{"NoteNumber":67,"Velocity":49,"Duration":307377,"SoundDuration":307377,"Delta":140757052},{"NoteNumber":51,"Velocity":32,"Duration":307377,"SoundDuration":307377,"Delta":140757052},{"NoteNumber":63,"Velocity":37,"Duration":593471,"SoundDuration":593471,"Delta":141064429},{"NoteNumber":69,"Velocity":52,"Duration":593471,"SoundDuration":593471,"Delta":141064429},{"NoteNumber":53,"Velocity":37,"Duration":593471,"SoundDuration":593471,"Delta":141064429},{"NoteNumber":70,"Velocity":58,"Duration":1196713,"SoundDuration":1196713,"Delta":141657901},{"NoteNumber":41,"Velocity":50,"Duration":1793135,"SoundDuration":1793135,"Delta":141657901},{"NoteNumber":58,"Velocity":37,"Duration":307377,"SoundDuration":307377,"Delta":142547238},{"NoteNumber":50,"Velocity":32,"Duration":307377,"SoundDuration":307377,"Delta":142547238},{"NoteNumber":62,"Velocity":37,"Duration":596421,"SoundDuration":596421,"Delta":142854615},{"NoteNumber":65,"Velocity":44,"Duration":596421,"SoundDuration":596421,"Delta":142854615},{"NoteNumber":53,"Velocity":36,"Duration":596421,"SoundDuration":596421,"Delta":142854615},{"NoteNumber":56,"Velocity":55,"Duration":888110,"SoundDuration":888110,"Delta":143451036},{"NoteNumber":41,"Velocity":42,"Duration":1197069,"SoundDuration":1197069,"Delta":143451036},{"NoteNumber":55,"Velocity":42,"Duration":914408,"SoundDuration":914408,"Delta":144339146},{"NoteNumber":53,"Velocity":31,"Duration":308959,"SoundDuration":308959,"Delta":144339146},{"NoteNumber":67,"Velocity":49,"Duration":1790048,"SoundDuration":1790048,"Delta":144648106},{"NoteNumber":62,"Velocity":46,"Duration":605448,"SoundDuration":605448,"Delta":144648106},{"NoteNumber":59,"Velocity":37,"Duration":605448,"SoundDuration":605448,"Delta":144648106},{"NoteNumber":41,"Velocity":52,"Duration":1781020,"SoundDuration":1781020,"Delta":145253555},{"NoteNumber":60,"Velocity":43,"Duration":302724,"SoundDuration":302724,"Delta":146135430},{"NoteNumber":51,"Velocity":31,"Duration":302724,"SoundDuration":302724,"Delta":146135430},{"NoteNumber":67,"Velocity":49,"Duration":596421,"SoundDuration":596421,"Delta":146438155},{"NoteNumber":63,"Velocity":42,"Duration":596421,"SoundDuration":596421,"Delta":146438155},{"NoteNumber":55,"Velocity":38,"Duration":596421,"SoundDuration":596421,"Delta":146438155},{"NoteNumber":67,"Velocity":55,"Duration":877361,"SoundDuration":877361,"Delta":147034576},{"NoteNumber":41,"Velocity":42,"Duration":1787193,"SoundDuration":1787193,"Delta":147034576},{"NoteNumber":62,"Velocity":31,"Duration":298210,"SoundDuration":298210,"Delta":147911937},{"NoteNumber":69,"Velocity":52,"Duration":298210,"SoundDuration":298210,"Delta":147911937},{"NoteNumber":53,"Velocity":34,"Duration":298210,"SoundDuration":298210,"Delta":147911937},{"NoteNumber":65,"Velocity":37,"Duration":611621,"SoundDuration":611621,"Delta":148210148},{"NoteNumber":71,"Velocity":55,"Duration":611621,"SoundDuration":611621,"Delta":148210148},{"NoteNumber":55,"Velocity":40,"Duration":611621,"SoundDuration":611621,"Delta":148210148},{"NoteNumber":72,"Velocity":58,"Duration":1184888,"SoundDuration":1184888,"Delta":148821769},{"NoteNumber":41,"Velocity":53,"Duration":1778360,"SoundDuration":1778360,"Delta":148821769},{"NoteNumber":60,"Velocity":37,"Duration":304259,"SoundDuration":304259,"Delta":149702398},{"NoteNumber":51,"Velocity":40,"Duration":304259,"SoundDuration":304259,"Delta":149702398},{"NoteNumber":63,"Velocity":37,"Duration":593471,"SoundDuration":593471,"Delta":150006658},{"NoteNumber":67,"Velocity":44,"Duration":593471,"SoundDuration":593471,"Delta":150006658},{"NoteNumber":55,"Velocity":45,"Duration":593471,"SoundDuration":593471,"Delta":150006658},{"NoteNumber":58,"Velocity":50,"Duration":886527,"SoundDuration":886527,"Delta":150600130},{"NoteNumber":41,"Velocity":51,"Duration":1193904,"SoundDuration":1193904,"Delta":150600130},{"NoteNumber":57,"Velocity":37,"Duration":903798,"SoundDuration":903798,"Delta":151486657},{"NoteNumber":52,"Velocity":39,"Duration":307377,"SoundDuration":307377,"Delta":151486657},{"NoteNumber":69,"Velocity":44,"Duration":596421,"SoundDuration":596421,"Delta":151794034},{"NoteNumber":64,"Velocity":44,"Duration":596421,"SoundDuration":596421,"Delta":151794034},{"NoteNumber":61,"Velocity":42,"Duration":596421,"SoundDuration":596421,"Delta":151794034},{"NoteNumber":69,"Velocity":57,"Duration":1197486,"SoundDuration":1197486,"Delta":152390456},{"NoteNumber":41,"Velocity":49,"Duration":1793908,"SoundDuration":1793908,"Delta":152390456},{"NoteNumber":62,"Velocity":37,"Duration":310558,"SoundDuration":310558,"Delta":153277384},{"NoteNumber":53,"Velocity":39,"Duration":310558,"SoundDuration":310558,"Delta":153277384},{"NoteNumber":65,"Velocity":37,"Duration":596421,"SoundDuration":596421,"Delta":153587943},{"NoteNumber":69,"Velocity":48,"Duration":596421,"SoundDuration":596421,"Delta":153587943},{"NoteNumber":57,"Velocity":43,"Duration":596421,"SoundDuration":596421,"Delta":153587943},{"NoteNumber":69,"Velocity":55,"Duration":888110,"SoundDuration":888110,"Delta":154184364},{"NoteNumber":41,"Velocity":48,"Duration":1197069,"SoundDuration":1197069,"Delta":154184364},{"NoteNumber":71,"Velocity":53,"Duration":308959,"SoundDuration":308959,"Delta":155072474},{"NoteNumber":61,"Velocity":37,"Duration":308959,"SoundDuration":308959,"Delta":155072474},{"NoteNumber":55,"Velocity":31,"Duration":308959,"SoundDuration":308959,"Delta":155072474},{"NoteNumber":73,"Velocity":52,"Duration":593471,"SoundDuration":593471,"Delta":155381434},{"NoteNumber":64,"Velocity":44,"Duration":593471,"SoundDuration":593471,"Delta":155381434},{"NoteNumber":57,"Velocity":44,"Duration":593471,"SoundDuration":593471,"Delta":155381434},{"NoteNumber":74,"Velocity":63,"Duration":2653851,"SoundDuration":2653851,"Delta":155974906},{"NoteNumber":41,"Velocity":51,"Duration":1775978,"SoundDuration":1775978,"Delta":155974906},{"NoteNumber":62,"Velocity":37,"Duration":305810,"SoundDuration":305810,"Delta":156851602},{"NoteNumber":53,"Velocity":38,"Duration":305810,"SoundDuration":305810,"Delta":156851602},{"NoteNumber":65,"Velocity":44,"Duration":593471,"SoundDuration":593471,"Delta":157157412},{"NoteNumber":57,"Velocity":45,"Duration":593471,"SoundDuration":593471,"Delta":157157412},{"NoteNumber":63,"Velocity":54,"Duration":877873,"SoundDuration":877873,"Delta":157750884},{"NoteNumber":41,"Velocity":56,"Duration":1182133,"SoundDuration":1182133,"Delta":157750884},{"NoteNumber":72,"Velocity":54,"Duration":1807926,"SoundDuration":1807926,"Delta":158628758},{"NoteNumber":57,"Velocity":39,"Duration":304259,"SoundDuration":304259,"Delta":158628758},{"NoteNumber":53,"Velocity":43,"Duration":587659,"SoundDuration":587659,"Delta":158933018},{"NoteNumber":62,"Velocity":54,"Duration":916008,"SoundDuration":916008,"Delta":159520677},{"NoteNumber":46,"Velocity":51,"Duration":1226566,"SoundDuration":1226566,"Delta":159520677},{"NoteNumber":70,"Velocity":52,"Duration":1859885,"SoundDuration":1859885,"Delta":160436685},{"NoteNumber":58,"Velocity":36,"Duration":310558,"SoundDuration":310558,"Delta":160436685},{"NoteNumber":53,"Velocity":41,"Duration":633110,"SoundDuration":633110,"Delta":160747244},{"NoteNumber":60,"Velocity":58,"Duration":916216,"SoundDuration":916216,"Delta":161380354},{"NoteNumber":38,"Velocity":52,"Duration":1230024,"SoundDuration":1230024,"Delta":161380354},{"NoteNumber":69,"Velocity":52,"Duration":955730,"SoundDuration":955730,"Delta":162296571},{"NoteNumber":54,"Velocity":36,"Duration":313807,"SoundDuration":313807,"Delta":162296571},{"NoteNumber":50,"Velocity":41,"Duration":641923,"SoundDuration":641923,"Delta":162610378},{"NoteNumber":67,"Velocity":60,"Duration":920906,"SoundDuration":920906,"Delta":163252301},{"NoteNumber":39,"Velocity":49,"Duration":1236363,"SoundDuration":1236363,"Delta":163252301},{"NoteNumber":69,"Velocity":51,"Duration":315457,"SoundDuration":315457,"Delta":164173208},{"NoteNumber":55,"Velocity":37,"Duration":315457,"SoundDuration":315457,"Delta":164173208},{"NoteNumber":70,"Velocity":60,"Duration":477969,"SoundDuration":477969,"Delta":164488665},{"NoteNumber":46,"Velocity":43,"Duration":645380,"SoundDuration":645380,"Delta":164488665},{"NoteNumber":70,"Velocity":60,"Duration":167410,"SoundDuration":167410,"Delta":164966635},{"NoteNumber":74,"Velocity":68,"Duration":929032,"SoundDuration":929032,"Delta":165134046},{"NoteNumber":41,"Velocity":50,"Duration":1249545,"SoundDuration":1249545,"Delta":165134046},{"NoteNumber":72,"Velocity":63,"Duration":320512,"SoundDuration":320512,"Delta":166063078},{"NoteNumber":57,"Velocity":39,"Duration":320512,"SoundDuration":320512,"Delta":166063078},{"NoteNumber":65,"Velocity":69,"Duration":1577663,"SoundDuration":1577663,"Delta":166383591},{"NoteNumber":53,"Velocity":44,"Duration":1268703,"SoundDuration":1268703,"Delta":166383591},{"NoteNumber":77,"Velocity":64,"Duration":587659,"SoundDuration":587659,"Delta":167064635},{"NoteNumber":41,"Velocity":42,"Duration":587659,"SoundDuration":587659,"Delta":167064635},{"NoteNumber":57,"Velocity":30,"Duration":308959,"SoundDuration":308959,"Delta":167961254},{"NoteNumber":63,"Velocity":37,"Duration":308959,"SoundDuration":308959,"Delta":167961254},{"NoteNumber":60,"Velocity":31,"Duration":607170,"SoundDuration":607170,"Delta":167961254},{"NoteNumber":53,"Velocity":25,"Duration":607170,"SoundDuration":607170,"Delta":167961254},{"NoteNumber":65,"Velocity":42,"Duration":298210,"SoundDuration":298210,"Delta":168270214},{"NoteNumber":48,"Velocity":38,"Duration":298210,"SoundDuration":298210,"Delta":168270214},{"NoteNumber":65,"Velocity":50,"Duration":894134,"SoundDuration":894134,"Delta":168866635},{"NoteNumber":41,"Velocity":42,"Duration":581959,"SoundDuration":581959,"Delta":168866635},{"NoteNumber":60,"Velocity":31,"Duration":156087,"SoundDuration":156087,"Delta":169760769},{"NoteNumber":67,"Velocity":49,"Duration":156087,"SoundDuration":156087,"Delta":169760769},{"NoteNumber":63,"Velocity":31,"Duration":616434,"SoundDuration":616434,"Delta":169760769},{"NoteNumber":53,"Velocity":21,"Duration":616434,"SoundDuration":616434,"Delta":169760769},{"NoteNumber":69,"Velocity":52,"Duration":304259,"SoundDuration":304259,"Delta":170072944},{"NoteNumber":48,"Velocity":37,"Duration":304259,"SoundDuration":304259,"Delta":170072944},{"NoteNumber":69,"Velocity":54,"Duration":581959,"SoundDuration":581959,"Delta":170681464},{"NoteNumber":41,"Velocity":42,"Duration":581959,"SoundDuration":581959,"Delta":170681464},{"NoteNumber":58,"Velocity":37,"Duration":302724,"SoundDuration":302724,"Delta":171566148},{"NoteNumber":65,"Velocity":37,"Duration":302724,"SoundDuration":302724,"Delta":171566148},{"NoteNumber":62,"Velocity":31,"Duration":600935,"SoundDuration":600935,"Delta":171566148},{"NoteNumber":53,"Velocity":25,"Duration":600935,"SoundDuration":600935,"Delta":171566148},{"NoteNumber":70,"Velocity":42,"Duration":1482948,"SoundDuration":1482948,"Delta":171868872},{"NoteNumber":50,"Velocity":38,"Duration":298210,"SoundDuration":298210,"Delta":171868872},{"NoteNumber":41,"Velocity":42,"Duration":579150,"SoundDuration":579150,"Delta":172465294},{"NoteNumber":56,"Velocity":31,"Duration":153688,"SoundDuration":153688,"Delta":173351821},{"NoteNumber":65,"Velocity":49,"Duration":153688,"SoundDuration":153688,"Delta":173351821},{"NoteNumber":60,"Velocity":31,"Duration":608581,"SoundDuration":608581,"Delta":173351821},{"NoteNumber":53,"Velocity":27,"Duration":608581,"SoundDuration":608581,"Delta":173351821},{"NoteNumber":68,"Velocity":52,"Duration":301204,"SoundDuration":301204,"Delta":173659198},{"NoteNumber":48,"Velocity":37,"Duration":301204,"SoundDuration":301204,"Delta":173659198},{"NoteNumber":67,"Velocity":60,"Duration":581959,"SoundDuration":581959,"Delta":174261608},{"NoteNumber":41,"Velocity":46,"Duration":581959,"SoundDuration":581959,"Delta":174261608},{"NoteNumber":55,"Velocity":39,"Duration":302724,"SoundDuration":302724,"Delta":175146292},{"NoteNumber":65,"Velocity":47,"Duration":302724,"SoundDuration":302724,"Delta":175146292},{"NoteNumber":59,"Velocity":36,"Duration":599460,"SoundDuration":599460,"Delta":175146292},{"NoteNumber":50,"Velocity":28,"Duration":599460,"SoundDuration":599460,"Delta":175146292},{"NoteNumber":67,"Velocity":54,"Duration":296736,"SoundDuration":296736,"Delta":175449016},{"NoteNumber":47,"Velocity":45,"Duration":296736,"SoundDuration":296736,"Delta":175449016},{"NoteNumber":67,"Velocity":61,"Duration":885328,"SoundDuration":885328,"Delta":176042488},{"NoteNumber":41,"Velocity":47,"Duration":576368,"SoundDuration":576368,"Delta":176042488},{"NoteNumber":59,"Velocity":29,"Duration":154479,"SoundDuration":154479,"Delta":176927817},{"NoteNumber":69,"Velocity":56,"Duration":154479,"SoundDuration":154479,"Delta":176927817},{"NoteNumber":62,"Velocity":40,"Duration":613219,"SoundDuration":613219,"Delta":176927817},{"NoteNumber":53,"Velocity":30,"Duration":613219,"SoundDuration":613219,"Delta":176927817},{"NoteNumber":71,"Velocity":59,"Duration":304259,"SoundDuration":304259,"Delta":177236777},{"NoteNumber":50,"Velocity":45,"Duration":304259,"SoundDuration":304259,"Delta":177236777},{"NoteNumber":71,"Velocity":65,"Duration":890919,"SoundDuration":890919,"Delta":177845296},{"NoteNumber":41,"Velocity":53,"Duration":581959,"SoundDuration":581959,"Delta":177845296},{"NoteNumber":60,"Velocity":43,"Duration":308959,"SoundDuration":308959,"Delta":178736215},{"NoteNumber":67,"Velocity":51,"Duration":308959,"SoundDuration":308959,"Delta":178736215},{"NoteNumber":63,"Velocity":40,"Duration":605695,"SoundDuration":605695,"Delta":178736215},{"NoteNumber":55,"Velocity":30,"Duration":605695,"SoundDuration":605695,"Delta":178736215},{"NoteNumber":72,"Velocity":58,"Duration":1484797,"SoundDuration":1484797,"Delta":179045175},{"NoteNumber":51,"Velocity":48,"Duration":296736,"SoundDuration":296736,"Delta":179045175},{"NoteNumber":41,"Velocity":58,"Duration":579150,"SoundDuration":579150,"Delta":179638647},{"NoteNumber":58,"Velocity":48,"Duration":156087,"SoundDuration":156087,"Delta":180529972},{"NoteNumber":67,"Velocity":57,"Duration":156087,"SoundDuration":156087,"Delta":180529972},{"NoteNumber":62,"Velocity":37,"Duration":616434,"SoundDuration":616434,"Delta":180529972},{"NoteNumber":53,"Velocity":29,"Duration":616434,"SoundDuration":616434,"Delta":180529972},{"NoteNumber":70,"Velocity":63,"Duration":1492265,"SoundDuration":1492265,"Delta":180842147},{"NoteNumber":50,"Velocity":45,"Duration":304259,"SoundDuration":304259,"Delta":180842147},{"NoteNumber":41,"Velocity":61,"Duration":576368,"SoundDuration":576368,"Delta":181450667},{"NoteNumber":57,"Velocity":39,"Duration":307377,"SoundDuration":307377,"Delta":182334413},{"NoteNumber":67,"Velocity":46,"Duration":307377,"SoundDuration":307377,"Delta":182334413},{"NoteNumber":61,"Velocity":38,"Duration":607077,"SoundDuration":607077,"Delta":182334413},{"NoteNumber":52,"Velocity":27,"Duration":607077,"SoundDuration":607077,"Delta":182334413},{"NoteNumber":69,"Velocity":59,"Duration":299700,"SoundDuration":299700,"Delta":182641790},{"NoteNumber":49,"Velocity":47,"Duration":299700,"SoundDuration":299700,"Delta":182641790},{"NoteNumber":69,"Velocity":66,"Duration":889336,"SoundDuration":889336,"Delta":183241190},{"NoteNumber":41,"Velocity":52,"Duration":581959,"SoundDuration":581959,"Delta":183241190},{"NoteNumber":61,"Velocity":55,"Duration":153688,"SoundDuration":153688,"Delta":184130527},{"NoteNumber":71,"Velocity":65,"Duration":153688,"SoundDuration":153688,"Delta":184130527},{"NoteNumber":64,"Velocity":39,"Duration":610101,"SoundDuration":610101,"Delta":184130527},{"NoteNumber":55,"Velocity":30,"Duration":610101,"SoundDuration":610101,"Delta":184130527},{"NoteNumber":73,"Velocity":71,"Duration":302724,"SoundDuration":302724,"Delta":184437904},{"NoteNumber":52,"Velocity":47,"Duration":302724,"SoundDuration":302724,"Delta":184437904},{"NoteNumber":74,"Velocity":80,"Duration":2692805,"SoundDuration":2692805,"Delta":185043353},{"NoteNumber":41,"Velocity":67,"Duration":1796187,"SoundDuration":1796187,"Delta":185043353},{"NoteNumber":62,"Velocity":54,"Duration":308959,"SoundDuration":308959,"Delta":185937108},{"NoteNumber":65,"Velocity":51,"Duration":754063,"SoundDuration":754063,"Delta":185937108},{"NoteNumber":57,"Velocity":43,"Duration":754063,"SoundDuration":754063,"Delta":185937108},{"NoteNumber":69,"Velocity":61,"Duration":593471,"SoundDuration":593471,"Delta":186246068},{"NoteNumber":53,"Velocity":57,"Duration":445103,"SoundDuration":445103,"Delta":186246068},{"NoteNumber":41,"Velocity":51,"Duration":148368,"SoundDuration":148368,"Delta":186691172},{"NoteNumber":63,"Velocity":59,"Duration":896618,"SoundDuration":896618,"Delta":186839540},{"NoteNumber":51,"Velocity":64,"Duration":1799050,"SoundDuration":1799050,"Delta":186839540},{"NoteNumber":72,"Velocity":68,"Duration":1821688,"SoundDuration":1821688,"Delta":187736158},{"NoteNumber":60,"Velocity":44,"Duration":308959,"SoundDuration":308959,"Delta":187736158},{"NoteNumber":57,"Velocity":56,"Duration":445103,"SoundDuration":445103,"Delta":188045118},{"NoteNumber":46,"Velocity":56,"Duration":148368,"SoundDuration":148368,"Delta":188490222},{"NoteNumber":62,"Velocity":70,"Duration":919256,"SoundDuration":919256,"Delta":188638590},{"NoteNumber":50,"Velocity":63,"Duration":1866174,"SoundDuration":1866174,"Delta":188638590},{"NoteNumber":70,"Velocity":66,"Duration":1866174,"SoundDuration":1866174,"Delta":189557847},{"NoteNumber":58,"Velocity":51,"Duration":313807,"SoundDuration":313807,"Delta":189557847},{"NoteNumber":53,"Velocity":61,"Duration":470243,"SoundDuration":470243,"Delta":189871654},{"NoteNumber":38,"Velocity":55,"Duration":162866,"SoundDuration":162866,"Delta":190341898},{"NoteNumber":60,"Velocity":70,"Duration":919256,"SoundDuration":919256,"Delta":190504764},{"NoteNumber":48,"Velocity":66,"Duration":1874987,"SoundDuration":1874987,"Delta":190504764},{"NoteNumber":69,"Velocity":65,"Duration":955730,"SoundDuration":955730,"Delta":191424021},{"NoteNumber":57,"Velocity":50,"Duration":313807,"SoundDuration":313807,"Delta":191424021},{"NoteNumber":54,"Velocity":55,"Duration":308959,"SoundDuration":308959,"Delta":191737828},{"NoteNumber":39,"Velocity":51,"Duration":2076421,"SoundDuration":2076421,"Delta":192213269},{"NoteNumber":46,"Velocity":56,"Duration":1904001,"SoundDuration":1904001,"Delta":192296510},{"NoteNumber":58,"Velocity":70,"Duration":924055,"SoundDuration":924055,"Delta":192379751},{"NoteNumber":67,"Velocity":76,"Duration":924055,"SoundDuration":924055,"Delta":192379751},{"NoteNumber":55,"Velocity":66,"Duration":924055,"SoundDuration":924055,"Delta":192379751},{"NoteNumber":69,"Velocity":64,"Duration":318606,"SoundDuration":318606,"Delta":193303807},{"NoteNumber":57,"Velocity":48,"Duration":318606,"SoundDuration":318606,"Delta":193303807},{"NoteNumber":70,"Velocity":69,"Duration":488918,"SoundDuration":488918,"Delta":193622414},{"NoteNumber":58,"Velocity":57,"Duration":488918,"SoundDuration":488918,"Delta":193622414},{"NoteNumber":41,"Velocity":43,"Duration":59453,"SoundDuration":59453,"Delta":194111332},{"NoteNumber":51,"Velocity":47,"Duration":59453,"SoundDuration":59453,"Delta":194170785},{"NoteNumber":57,"Velocity":51,"Duration":59453,"SoundDuration":59453,"Delta":194230238},{"NoteNumber":65,"Velocity":70,"Duration":640707,"SoundDuration":640707,"Delta":194256992},{"NoteNumber":74,"Velocity":83,"Duration":975814,"SoundDuration":975814,"Delta":194289691},{"NoteNumber":62,"Velocity":64,"Duration":975814,"SoundDuration":975814,"Delta":194289691},{"NoteNumber":72,"Velocity":70,"Duration":338600,"SoundDuration":338600,"Delta":195265505},{"NoteNumber":60,"Velocity":50,"Duration":338600,"SoundDuration":338600,"Delta":195265505},{"NoteNumber":65,"Velocity":69,"Duration":763830,"SoundDuration":763830,"Delta":195604105},{"NoteNumber":62,"Velocity":56,"Duration":763830,"SoundDuration":763830,"Delta":195604105},{"NoteNumber":60,"Velocity":52,"Duration":80515,"SoundDuration":80515,"Delta":196126390},{"NoteNumber":41,"Velocity":34,"Duration":8545113,"SoundDuration":8545113,"Delta":196126390},{"NoteNumber":63,"Velocity":54,"Duration":80515,"SoundDuration":80515,"Delta":196206905},{"NoteNumber":65,"Velocity":58,"Duration":8384083,"SoundDuration":8384083,"Delta":196287420},{"NoteNumber":77,"Velocity":69,"Duration":713436,"SoundDuration":713436,"Delta":196367935},{"NoteNumber":60,"Velocity":50,"Duration":1426873,"SoundDuration":1426873,"Delta":196367935},{"NoteNumber":51,"Velocity":37,"Duration":4055448,"SoundDuration":4055448,"Delta":196367935},{"NoteNumber":57,"Velocity":37,"Duration":4055448,"SoundDuration":4055448,"Delta":196367935},{"NoteNumber":62,"Velocity":44,"Duration":535077,"SoundDuration":535077,"Delta":197794808},{"NoteNumber":60,"Velocity":43,"Duration":89179,"SoundDuration":89179,"Delta":198329886},{"NoteNumber":62,"Velocity":43,"Duration":89179,"SoundDuration":89179,"Delta":198419065},{"NoteNumber":63,"Velocity":50,"Duration":923520,"SoundDuration":923520,"Delta":198508245},{"NoteNumber":62,"Velocity":37,"Duration":317460,"SoundDuration":317460,"Delta":199431766},{"NoteNumber":60,"Velocity":42,"Duration":674157,"SoundDuration":674157,"Delta":199749226},{"NoteNumber":58,"Velocity":45,"Duration":2105263,"SoundDuration":2105263,"Delta":200423383},{"NoteNumber":50,"Velocity":37,"Duration":4248120,"SoundDuration":4248120,"Delta":200423383},{"NoteNumber":53,"Velocity":33,"Duration":1428571,"SoundDuration":1428571,"Delta":202528647},{"NoteNumber":62,"Velocity":43,"Duration":714285,"SoundDuration":714285,"Delta":203957218},{"NoteNumber":41,"Velocity":28,"Duration":8479652,"SoundDuration":8479652,"Delta":204492932},{"NoteNumber":65,"Velocity":37,"Duration":8301081,"SoundDuration":8301081,"Delta":204671503},{"NoteNumber":60,"Velocity":50,"Duration":1006683,"SoundDuration":1006683,"Delta":204671503},{"NoteNumber":51,"Velocity":37,"Duration":3983957,"SoundDuration":3983957,"Delta":204671503},{"NoteNumber":57,"Velocity":37,"Duration":3983957,"SoundDuration":3983957,"Delta":204671503},{"NoteNumber":62,"Velocity":44,"Duration":344431,"SoundDuration":344431,"Delta":205678187},{"NoteNumber":60,"Velocity":44,"Duration":627990,"SoundDuration":627990,"Delta":206022618},{"NoteNumber":62,"Velocity":43,"Duration":89712,"SoundDuration":89712,"Delta":206650609},{"NoteNumber":63,"Velocity":50,"Duration":923520,"SoundDuration":923520,"Delta":206740322},{"NoteNumber":62,"Velocity":37,"Duration":317460,"SoundDuration":317460,"Delta":207663843},{"NoteNumber":60,"Velocity":42,"Duration":674157,"SoundDuration":674157,"Delta":207981303},{"NoteNumber":58,"Velocity":45,"Duration":7451146,"SoundDuration":7451146,"Delta":208655460},{"NoteNumber":50,"Velocity":37,"Duration":3533834,"SoundDuration":3533834,"Delta":208655460},{"NoteNumber":46,"Velocity":38,"Duration":7270292,"SoundDuration":7270292,"Delta":212189295},{"NoteNumber":39,"Velocity":35,"Duration":195822,"SoundDuration":195822,"Delta":212776762},{"NoteNumber":70,"Velocity":40,"Duration":3466985,"SoundDuration":3466985,"Delta":212972585},{"NoteNumber":55,"Velocity":45,"Duration":1435406,"SoundDuration":1435406,"Delta":212972585},{"NoteNumber":55,"Velocity":38,"Duration":717703,"SoundDuration":717703,"Delta":214407992},{"NoteNumber":58,"Velocity":42,"Duration":2058291,"SoundDuration":2058291,"Delta":215125695},{"NoteNumber":57,"Velocity":37,"Duration":332963,"SoundDuration":332963,"Delta":216106607},{"NoteNumber":58,"Velocity":30,"Duration":3020017,"SoundDuration":3020017,"Delta":216439570},{"NoteNumber":55,"Velocity":41,"Duration":744416,"SoundDuration":744416,"Delta":216439570},{"NoteNumber":38,"Velocity":33,"Duration":186104,"SoundDuration":186104,"Delta":216997883},{"NoteNumber":70,"Velocity":41,"Duration":4596957,"SoundDuration":4596957,"Delta":217183987},{"NoteNumber":53,"Velocity":42,"Duration":2275600,"SoundDuration":2275600,"Delta":217183987},{"NoteNumber":46,"Velocity":33,"Duration":1517066,"SoundDuration":1517066,"Delta":219437463},{"NoteNumber":58,"Velocity":34,"Duration":3085552,"SoundDuration":3085552,"Delta":220976654},{"NoteNumber":46,"Velocity":27,"Duration":804289,"SoundDuration":804289,"Delta":220976654},{"NoteNumber":63,"Velocity":43,"Duration":1109261,"SoundDuration":1109261,"Delta":221780944},{"NoteNumber":35,"Velocity":31,"Duration":2281262,"SoundDuration":2281262,"Delta":221780944},{"NoteNumber":51,"Velocity":34,"Duration":1109261,"SoundDuration":1109261,"Delta":221780944},{"NoteNumber":63,"Velocity":32,"Duration":378979,"SoundDuration":378979,"Delta":222890206},{"NoteNumber":51,"Velocity":25,"Duration":378979,"SoundDuration":378979,"Delta":222890206},{"NoteNumber":63,"Velocity":38,"Duration":693893,"SoundDuration":693893,"Delta":223269185},{"NoteNumber":51,"Velocity":30,"Duration":693893,"SoundDuration":693893,"Delta":223269185},{"NoteNumber":63,"Velocity":30,"Duration":198255,"SoundDuration":198255,"Delta":223863951},{"NoteNumber":51,"Velocity":24,"Duration":198255,"SoundDuration":198255,"Delta":223863951},{"NoteNumber":65,"Velocity":28,"Duration":99127,"SoundDuration":99127,"Delta":223963079},{"NoteNumber":53,"Velocity":22,"Duration":99127,"SoundDuration":99127,"Delta":223963079},{"NoteNumber":57,"Velocity":33,"Duration":2642513,"SoundDuration":2642513,"Delta":224062206},{"NoteNumber":66,"Velocity":39,"Duration":1201528,"SoundDuration":1201528,"Delta":224062206},{"NoteNumber":54,"Velocity":31,"Duration":1201528,"SoundDuration":1201528,"Delta":224062206},{"NoteNumber":65,"Velocity":30,"Duration":431903,"SoundDuration":431903,"Delta":225263735},{"NoteNumber":53,"Velocity":24,"Duration":431903,"SoundDuration":431903,"Delta":225263735},{"NoteNumber":63,"Velocity":33,"Duration":1009081,"SoundDuration":1009081,"Delta":225695638},{"NoteNumber":51,"Velocity":26,"Duration":1009081,"SoundDuration":1009081,"Delta":225695638},{"NoteNumber":62,"Velocity":33,"Duration":12880182,"SoundDuration":12880182,"Delta":226704720},{"NoteNumber":58,"Velocity":33,"Duration":12880182,"SoundDuration":12880182,"Delta":226704720},{"NoteNumber":34,"Velocity":23,"Duration":580720,"SoundDuration":580720,"Delta":226704720},{"NoteNumber":65,"Velocity":33,"Duration":5882351,"SoundDuration":5882351,"Delta":227285440},{"NoteNumber":50,"Velocity":26,"Duration":12299462,"SoundDuration":12299462,"Delta":227285440}],"license":{"name":"Creative Commons Attribution-ShareAlike 3.0 Germany","url":"http://creativecommons.org/licenses/by-sa/3.0/de/deed.en","text":"The MIDI files in this folder were downloaded from http://www.piano-midi.de and are licensed under the Creative Commons Attribution-ShareAlike 3.0 Germany license by Bernd Krueger.\n\nThe MIDI, audio(MP3, OGG) and video files of Bernd Krueger are licensed under the cc-by-sa Germany License . This means, that you can use and adapt the files, as long as you attribute to the copyright holder Name: Bernd Krueger Source: http://www.piano-midi.de The distribution or public playback of the files is only allowed under identical license conditions . The scores are open source.","attribution":"Bernd Krueger","attributionUrl":"http://www.piano-midi.de"}}