{"title":"Kreisleriana Teil 5","artist":"Schumann","durationMs":195116,"midiSha256":"68e8a855d166d37313bccf3d190ccb0a1774fd66ae3128f59d0ab7aeb40d0292","midiObject":[{"NoteNumber":31,"Velocity":44,"Duration":72632,"SoundDuration":72632,"Delta":0},{"NoteNumber":55,"Velocity":40,"Duration":93335,"SoundDuration":93335,"Delta":387372},{"NoteNumber":57,"Velocity":32,"Duration":93335,"SoundDuration":93335,"Delta":480707},{"NoteNumber":55,"Velocity":34,"Duration":93335,"SoundDuration":93335,"Delta":574043},{"NoteNumber":50,"Velocity":34,"Duration":101805,"SoundDuration":101805,"Delta":667379},{"NoteNumber":62,"Velocity":40,"Duration":108084,"SoundDuration":108084,"Delta":769184},{"NoteNumber":50,"Velocity":40,"Duration":72412,"SoundDuration":72412,"Delta":1081904},{"NoteNumber":55,"Velocity":40,"Duration":72412,"SoundDuration":72412,"Delta":1081904},{"NoteNumber":34,"Velocity":35,"Duration":72412,"SoundDuration":72412,"Delta":1081904},{"NoteNumber":54,"Velocity":46,"Duration":72412,"SoundDuration":72412,"Delta":1178454},{"NoteNumber":48,"Velocity":46,"Duration":72412,"SoundDuration":72412,"Delta":1178454},{"NoteNumber":33,"Velocity":40,"Duration":72412,"SoundDuration":72412,"Delta":1178454},{"NoteNumber":60,"Velocity":43,"Duration":93335,"SoundDuration":93335,"Delta":1564654},{"NoteNumber":62,"Velocity":37,"Duration":93335,"SoundDuration":93335,"Delta":1657989},{"NoteNumber":60,"Velocity":37,"Duration":93335,"SoundDuration":93335,"Delta":1751325},{"NoteNumber":57,"Velocity":37,"Duration":102929,"SoundDuration":102929,"Delta":1844661},{"NoteNumber":69,"Velocity":49,"Duration":106443,"SoundDuration":106443,"Delta":1947591},{"NoteNumber":50,"Velocity":44,"Duration":72161,"SoundDuration":72161,"Delta":2256693},{"NoteNumber":60,"Velocity":44,"Duration":72161,"SoundDuration":72161,"Delta":2256693},{"NoteNumber":30,"Velocity":33,"Duration":72161,"SoundDuration":72161,"Delta":2256693},{"NoteNumber":58,"Velocity":48,"Duration":72161,"SoundDuration":72161,"Delta":2352908},{"NoteNumber":50,"Velocity":48,"Duration":72161,"SoundDuration":72161,"Delta":2352908},{"NoteNumber":31,"Velocity":40,"Duration":72161,"SoundDuration":72161,"Delta":2352908},{"NoteNumber":55,"Velocity":40,"Duration":93644,"SoundDuration":93644,"Delta":2737770},{"NoteNumber":57,"Velocity":34,"Duration":93644,"SoundDuration":93644,"Delta":2831415},{"NoteNumber":55,"Velocity":34,"Duration":93644,"SoundDuration":93644,"Delta":2925060},{"NoteNumber":50,"Velocity":34,"Duration":102549,"SoundDuration":102549,"Delta":3018705},{"NoteNumber":67,"Velocity":50,"Duration":73940,"SoundDuration":73940,"Delta":3121255},{"NoteNumber":55,"Velocity":44,"Duration":72161,"SoundDuration":72161,"Delta":3414644},{"NoteNumber":65,"Velocity":44,"Duration":72161,"SoundDuration":72161,"Delta":3414644},{"NoteNumber":34,"Velocity":32,"Duration":72161,"SoundDuration":72161,"Delta":3414644},{"NoteNumber":63,"Velocity":47,"Duration":71428,"SoundDuration":71428,"Delta":3510860},{"NoteNumber":55,"Velocity":47,"Duration":71428,"SoundDuration":71428,"Delta":3510860},{"NoteNumber":36,"Velocity":37,"Duration":71428,"SoundDuration":71428,"Delta":3510860},{"NoteNumber":55,"Velocity":40,"Duration":74198,"SoundDuration":74198,"Delta":3796574},{"NoteNumber":62,"Velocity":40,"Duration":74198,"SoundDuration":74198,"Delta":3796574},{"NoteNumber":38,"Velocity":33,"Duration":74198,"SoundDuration":74198,"Delta":3796574},{"NoteNumber":60,"Velocity":44,"Duration":71184,"SoundDuration":71184,"Delta":3895505},{"NoteNumber":55,"Velocity":44,"Duration":71184,"SoundDuration":71184,"Delta":3895505},{"NoteNumber":39,"Velocity":38,"Duration":71184,"SoundDuration":71184,"Delta":3895505},{"NoteNumber":58,"Velocity":50,"Duration":73940,"SoundDuration":73940,"Delta":4180243},{"NoteNumber":57,"Velocity":46,"Duration":71917,"SoundDuration":71917,"Delta":4278830},{"NoteNumber":61,"Velocity":46,"Duration":71917,"SoundDuration":71917,"Delta":4278830},{"NoteNumber":51,"Velocity":40,"Duration":71917,"SoundDuration":71917,"Delta":4278830},{"NoteNumber":55,"Velocity":40,"Duration":81374,"SoundDuration":81374,"Delta":4566499},{"NoteNumber":54,"Velocity":50,"Duration":72161,"SoundDuration":72161,"Delta":4674998},{"NoteNumber":62,"Velocity":50,"Duration":72161,"SoundDuration":72161,"Delta":4674998},{"NoteNumber":38,"Velocity":45,"Duration":72161,"SoundDuration":72161,"Delta":4674998},{"NoteNumber":50,"Velocity":45,"Duration":72161,"SoundDuration":72161,"Delta":4674998},{"NoteNumber":74,"Velocity":72,"Duration":673508,"SoundDuration":673508,"Delta":5059860},{"NoteNumber":62,"Velocity":61,"Duration":763965,"SoundDuration":763965,"Delta":5444722},{"NoteNumber":30,"Velocity":40,"Duration":384862,"SoundDuration":384862,"Delta":5444722},{"NoteNumber":72,"Velocity":58,"Duration":96215,"SoundDuration":96215,"Delta":5733368},{"NoteNumber":70,"Velocity":65,"Duration":70471,"SoundDuration":70471,"Delta":5829584},{"NoteNumber":31,"Velocity":44,"Duration":187922,"SoundDuration":187922,"Delta":5829584},{"NoteNumber":69,"Velocity":55,"Duration":72914,"SoundDuration":72914,"Delta":6111468},{"NoteNumber":67,"Velocity":64,"Duration":70233,"SoundDuration":70233,"Delta":6208688},{"NoteNumber":70,"Velocity":64,"Duration":378488,"SoundDuration":378488,"Delta":6208688},{"NoteNumber":55,"Velocity":60,"Duration":660373,"SoundDuration":660373,"Delta":6208688},{"NoteNumber":65,"Velocity":56,"Duration":73166,"SoundDuration":73166,"Delta":6489622},{"NoteNumber":63,"Velocity":64,"Duration":70471,"SoundDuration":70471,"Delta":6587177},{"NoteNumber":62,"Velocity":56,"Duration":73166,"SoundDuration":73166,"Delta":6869061},{"NoteNumber":53,"Velocity":51,"Duration":97554,"SoundDuration":97554,"Delta":6869061},{"NoteNumber":60,"Velocity":64,"Duration":70233,"SoundDuration":70233,"Delta":6966616},{"NoteNumber":51,"Velocity":58,"Duration":70233,"SoundDuration":70233,"Delta":6966616},{"NoteNumber":50,"Velocity":51,"Duration":72914,"SoundDuration":72914,"Delta":7247550},{"NoteNumber":77,"Velocity":68,"Duration":673508,"SoundDuration":673508,"Delta":7344770},{"NoteNumber":48,"Velocity":57,"Duration":72161,"SoundDuration":72161,"Delta":7344770},{"NoteNumber":46,"Velocity":50,"Duration":72161,"SoundDuration":72161,"Delta":7633416},{"NoteNumber":65,"Velocity":61,"Duration":763965,"SoundDuration":763965,"Delta":7729632},{"NoteNumber":33,"Velocity":40,"Duration":384862,"SoundDuration":384862,"Delta":7729632},{"NoteNumber":75,"Velocity":58,"Duration":96215,"SoundDuration":96215,"Delta":8018278},{"NoteNumber":74,"Velocity":65,"Duration":70471,"SoundDuration":70471,"Delta":8114494},{"NoteNumber":34,"Velocity":44,"Duration":187922,"SoundDuration":187922,"Delta":8114494},{"NoteNumber":72,"Velocity":55,"Duration":72914,"SoundDuration":72914,"Delta":8396378},{"NoteNumber":70,"Velocity":64,"Duration":70233,"SoundDuration":70233,"Delta":8493598},{"NoteNumber":74,"Velocity":64,"Duration":378489,"SoundDuration":378489,"Delta":8493598},{"NoteNumber":58,"Velocity":60,"Duration":660373,"SoundDuration":660373,"Delta":8493598},{"NoteNumber":69,"Velocity":56,"Duration":73166,"SoundDuration":73166,"Delta":8774532},{"NoteNumber":67,"Velocity":64,"Duration":70471,"SoundDuration":70471,"Delta":8872087},{"NoteNumber":65,"Velocity":56,"Duration":73166,"SoundDuration":73166,"Delta":9153971},{"NoteNumber":57,"Velocity":51,"Duration":97554,"SoundDuration":97554,"Delta":9153971},{"NoteNumber":64,"Velocity":64,"Duration":70233,"SoundDuration":70233,"Delta":9251526},{"NoteNumber":55,"Velocity":58,"Duration":70233,"SoundDuration":70233,"Delta":9251526},{"NoteNumber":53,"Velocity":51,"Duration":72914,"SoundDuration":72914,"Delta":9532460},{"NoteNumber":81,"Velocity":70,"Duration":673508,"SoundDuration":673508,"Delta":9629680},{"NoteNumber":52,"Velocity":57,"Duration":72161,"SoundDuration":72161,"Delta":9629680},{"NoteNumber":50,"Velocity":50,"Duration":72161,"SoundDuration":72161,"Delta":9918326},{"NoteNumber":69,"Velocity":61,"Duration":763965,"SoundDuration":763965,"Delta":10014542},{"NoteNumber":37,"Velocity":40,"Duration":384862,"SoundDuration":384862,"Delta":10014542},{"NoteNumber":79,"Velocity":58,"Duration":96215,"SoundDuration":96215,"Delta":10303188},{"NoteNumber":78,"Velocity":65,"Duration":70471,"SoundDuration":70471,"Delta":10399404},{"NoteNumber":38,"Velocity":44,"Duration":187922,"SoundDuration":187922,"Delta":10399404},{"NoteNumber":75,"Velocity":55,"Duration":72914,"SoundDuration":72914,"Delta":10681288},{"NoteNumber":74,"Velocity":64,"Duration":70233,"SoundDuration":70233,"Delta":10778508},{"NoteNumber":78,"Velocity":64,"Duration":378489,"SoundDuration":378489,"Delta":10778508},{"NoteNumber":62,"Velocity":58,"Duration":660373,"SoundDuration":660373,"Delta":10778508},{"NoteNumber":72,"Velocity":56,"Duration":73166,"SoundDuration":73166,"Delta":11059442},{"NoteNumber":79,"Velocity":64,"Duration":70471,"SoundDuration":70471,"Delta":11156997},{"NoteNumber":70,"Velocity":64,"Duration":70471,"SoundDuration":70471,"Delta":11156997},{"NoteNumber":69,"Velocity":56,"Duration":73166,"SoundDuration":73166,"Delta":11438881},{"NoteNumber":60,"Velocity":51,"Duration":73166,"SoundDuration":73166,"Delta":11438881},{"NoteNumber":67,"Velocity":64,"Duration":70233,"SoundDuration":70233,"Delta":11536436},{"NoteNumber":58,"Velocity":58,"Duration":70233,"SoundDuration":70233,"Delta":11536436},{"NoteNumber":57,"Velocity":51,"Duration":72914,"SoundDuration":72914,"Delta":11817370},{"NoteNumber":70,"Velocity":71,"Duration":384862,"SoundDuration":384862,"Delta":11914590},{"NoteNumber":55,"Velocity":57,"Duration":72161,"SoundDuration":72161,"Delta":11914590},{"NoteNumber":53,"Velocity":50,"Duration":72161,"SoundDuration":72161,"Delta":12203236},{"NoteNumber":69,"Velocity":52,"Duration":288646,"SoundDuration":288646,"Delta":12299452},{"NoteNumber":73,"Velocity":62,"Duration":384862,"SoundDuration":384862,"Delta":12299452},{"NoteNumber":52,"Velocity":57,"Duration":72161,"SoundDuration":72161,"Delta":12299452},{"NoteNumber":67,"Velocity":58,"Duration":96215,"SoundDuration":96215,"Delta":12588098},{"NoteNumber":51,"Velocity":50,"Duration":72161,"SoundDuration":72161,"Delta":12588098},{"NoteNumber":66,"Velocity":56,"Duration":70471,"SoundDuration":70471,"Delta":12684314},{"NoteNumber":74,"Velocity":61,"Duration":70471,"SoundDuration":70471,"Delta":12684314},{"NoteNumber":50,"Velocity":58,"Duration":70471,"SoundDuration":70471,"Delta":12684314},{"NoteNumber":63,"Velocity":51,"Duration":72914,"SoundDuration":72914,"Delta":12966198},{"NoteNumber":66,"Velocity":59,"Duration":378489,"SoundDuration":378489,"Delta":13063418},{"NoteNumber":62,"Velocity":59,"Duration":70233,"SoundDuration":70233,"Delta":13063418},{"NoteNumber":50,"Velocity":60,"Duration":660373,"SoundDuration":660373,"Delta":13063418},{"NoteNumber":60,"Velocity":50,"Duration":97554,"SoundDuration":97554,"Delta":13344352},{"NoteNumber":67,"Velocity":57,"Duration":70471,"SoundDuration":70471,"Delta":13441907},{"NoteNumber":58,"Velocity":57,"Duration":70471,"SoundDuration":70471,"Delta":13441907},{"NoteNumber":57,"Velocity":49,"Duration":73166,"SoundDuration":73166,"Delta":13723791},{"NoteNumber":48,"Velocity":45,"Duration":97554,"SoundDuration":97554,"Delta":13723791},{"NoteNumber":55,"Velocity":57,"Duration":70233,"SoundDuration":70233,"Delta":13821346},{"NoteNumber":46,"Velocity":51,"Duration":70233,"SoundDuration":70233,"Delta":13821346},{"NoteNumber":45,"Velocity":44,"Duration":72914,"SoundDuration":72914,"Delta":14102280},{"NoteNumber":58,"Velocity":61,"Duration":379103,"SoundDuration":379103,"Delta":14199500},{"NoteNumber":43,"Velocity":52,"Duration":70471,"SoundDuration":70471,"Delta":14199500},{"NoteNumber":41,"Velocity":42,"Duration":72914,"SoundDuration":72914,"Delta":14481384},{"NoteNumber":61,"Velocity":55,"Duration":388878,"SoundDuration":388878,"Delta":14578604},{"NoteNumber":57,"Velocity":55,"Duration":72914,"SoundDuration":72914,"Delta":14578604},{"NoteNumber":40,"Velocity":48,"Duration":72914,"SoundDuration":72914,"Delta":14578604},{"NoteNumber":55,"Velocity":47,"Duration":72914,"SoundDuration":72914,"Delta":14870262},{"NoteNumber":39,"Velocity":35,"Duration":72914,"SoundDuration":72914,"Delta":14870262},{"NoteNumber":54,"Velocity":54,"Duration":194438,"SoundDuration":194438,"Delta":14967482},{"NoteNumber":62,"Velocity":54,"Duration":194438,"SoundDuration":194438,"Delta":14967482},{"NoteNumber":38,"Velocity":41,"Duration":72914,"SoundDuration":72914,"Delta":14967482},{"NoteNumber":36,"Velocity":29,"Duration":72914,"SoundDuration":72914,"Delta":15259140},{"NoteNumber":55,"Velocity":40,"Duration":93335,"SoundDuration":93335,"Delta":15356360},{"NoteNumber":34,"Velocity":35,"Duration":70001,"SoundDuration":70001,"Delta":15356360},{"NoteNumber":57,"Velocity":32,"Duration":93335,"SoundDuration":93335,"Delta":15449695},{"NoteNumber":55,"Velocity":34,"Duration":93335,"SoundDuration":93335,"Delta":15543031},{"NoteNumber":50,"Velocity":34,"Duration":101805,"SoundDuration":101805,"Delta":15636367},{"NoteNumber":33,"Velocity":28,"Duration":76353,"SoundDuration":76353,"Delta":15636367},{"NoteNumber":62,"Velocity":40,"Duration":81063,"SoundDuration":81063,"Delta":15738172},{"NoteNumber":31,"Velocity":35,"Duration":81063,"SoundDuration":81063,"Delta":15738172},{"NoteNumber":55,"Velocity":40,"Duration":72412,"SoundDuration":72412,"Delta":16050892},{"NoteNumber":50,"Velocity":40,"Duration":72412,"SoundDuration":72412,"Delta":16050892},{"NoteNumber":34,"Velocity":35,"Duration":72412,"SoundDuration":72412,"Delta":16050892},{"NoteNumber":48,"Velocity":46,"Duration":72412,"SoundDuration":72412,"Delta":16147442},{"NoteNumber":54,"Velocity":46,"Duration":72412,"SoundDuration":72412,"Delta":16147442},{"NoteNumber":33,"Velocity":40,"Duration":72412,"SoundDuration":72412,"Delta":16147442},{"NoteNumber":60,"Velocity":43,"Duration":93335,"SoundDuration":93335,"Delta":16533642},{"NoteNumber":62,"Velocity":37,"Duration":93335,"SoundDuration":93335,"Delta":16626978},{"NoteNumber":60,"Velocity":37,"Duration":93335,"SoundDuration":93335,"Delta":16720313},{"NoteNumber":57,"Velocity":37,"Duration":102930,"SoundDuration":102930,"Delta":16813649},{"NoteNumber":69,"Velocity":49,"Duration":79832,"SoundDuration":79832,"Delta":16916579},{"NoteNumber":60,"Velocity":44,"Duration":72161,"SoundDuration":72161,"Delta":17225681},{"NoteNumber":50,"Velocity":44,"Duration":72161,"SoundDuration":72161,"Delta":17225681},{"NoteNumber":30,"Velocity":33,"Duration":72161,"SoundDuration":72161,"Delta":17225681},{"NoteNumber":50,"Velocity":48,"Duration":72161,"SoundDuration":72161,"Delta":17321897},{"NoteNumber":58,"Velocity":48,"Duration":72161,"SoundDuration":72161,"Delta":17321897},{"NoteNumber":31,"Velocity":40,"Duration":72161,"SoundDuration":72161,"Delta":17321897},{"NoteNumber":55,"Velocity":40,"Duration":93644,"SoundDuration":93644,"Delta":17706759},{"NoteNumber":57,"Velocity":34,"Duration":93644,"SoundDuration":93644,"Delta":17800403},{"NoteNumber":55,"Velocity":34,"Duration":93644,"SoundDuration":93644,"Delta":17894048},{"NoteNumber":50,"Velocity":34,"Duration":102550,"SoundDuration":102550,"Delta":17987693},{"NoteNumber":67,"Velocity":50,"Duration":73940,"SoundDuration":73940,"Delta":18090243},{"NoteNumber":65,"Velocity":44,"Duration":72161,"SoundDuration":72161,"Delta":18383632},{"NoteNumber":55,"Velocity":44,"Duration":72161,"SoundDuration":72161,"Delta":18383632},{"NoteNumber":34,"Velocity":32,"Duration":72161,"SoundDuration":72161,"Delta":18383632},{"NoteNumber":63,"Velocity":47,"Duration":71428,"SoundDuration":71428,"Delta":18479848},{"NoteNumber":55,"Velocity":47,"Duration":71428,"SoundDuration":71428,"Delta":18479848},{"NoteNumber":36,"Velocity":37,"Duration":71428,"SoundDuration":71428,"Delta":18479848},{"NoteNumber":55,"Velocity":40,"Duration":74198,"SoundDuration":74198,"Delta":18765562},{"NoteNumber":62,"Velocity":40,"Duration":74198,"SoundDuration":74198,"Delta":18765562},{"NoteNumber":38,"Velocity":33,"Duration":74198,"SoundDuration":74198,"Delta":18765562},{"NoteNumber":55,"Velocity":44,"Duration":71184,"SoundDuration":71184,"Delta":18864493},{"NoteNumber":60,"Velocity":44,"Duration":71184,"SoundDuration":71184,"Delta":18864493},{"NoteNumber":39,"Velocity":38,"Duration":71184,"SoundDuration":71184,"Delta":18864493},{"NoteNumber":58,"Velocity":50,"Duration":73940,"SoundDuration":73940,"Delta":19149232},{"NoteNumber":57,"Velocity":46,"Duration":71917,"SoundDuration":71917,"Delta":19247819},{"NoteNumber":61,"Velocity":46,"Duration":71917,"SoundDuration":71917,"Delta":19247819},{"NoteNumber":51,"Velocity":40,"Duration":71917,"SoundDuration":71917,"Delta":19247819},{"NoteNumber":55,"Velocity":40,"Duration":81374,"SoundDuration":81374,"Delta":19535487},{"NoteNumber":54,"Velocity":50,"Duration":96215,"SoundDuration":96215,"Delta":19643986},{"NoteNumber":62,"Velocity":50,"Duration":96215,"SoundDuration":96215,"Delta":19643986},{"NoteNumber":38,"Velocity":45,"Duration":96215,"SoundDuration":96215,"Delta":19643986},{"NoteNumber":50,"Velocity":45,"Duration":96215,"SoundDuration":96215,"Delta":19643986},{"NoteNumber":74,"Velocity":72,"Duration":673508,"SoundDuration":673508,"Delta":20028848},{"NoteNumber":62,"Velocity":61,"Duration":763965,"SoundDuration":763965,"Delta":20413710},{"NoteNumber":30,"Velocity":40,"Duration":384861,"SoundDuration":384861,"Delta":20413710},{"NoteNumber":72,"Velocity":58,"Duration":96215,"SoundDuration":96215,"Delta":20702356},{"NoteNumber":70,"Velocity":65,"Duration":70471,"SoundDuration":70471,"Delta":20798572},{"NoteNumber":31,"Velocity":44,"Duration":187923,"SoundDuration":187923,"Delta":20798572},{"NoteNumber":69,"Velocity":55,"Duration":72914,"SoundDuration":72914,"Delta":21080456},{"NoteNumber":67,"Velocity":64,"Duration":70233,"SoundDuration":70233,"Delta":21177676},{"NoteNumber":70,"Velocity":64,"Duration":378489,"SoundDuration":378489,"Delta":21177676},{"NoteNumber":55,"Velocity":60,"Duration":660373,"SoundDuration":660373,"Delta":21177676},{"NoteNumber":65,"Velocity":56,"Duration":73166,"SoundDuration":73166,"Delta":21458610},{"NoteNumber":63,"Velocity":64,"Duration":70471,"SoundDuration":70471,"Delta":21556165},{"NoteNumber":62,"Velocity":56,"Duration":73166,"SoundDuration":73166,"Delta":21838050},{"NoteNumber":53,"Velocity":51,"Duration":97554,"SoundDuration":97554,"Delta":21838050},{"NoteNumber":60,"Velocity":64,"Duration":70233,"SoundDuration":70233,"Delta":21935604},{"NoteNumber":51,"Velocity":58,"Duration":70233,"SoundDuration":70233,"Delta":21935604},{"NoteNumber":50,"Velocity":51,"Duration":72914,"SoundDuration":72914,"Delta":22216539},{"NoteNumber":77,"Velocity":68,"Duration":673508,"SoundDuration":673508,"Delta":22313758},{"NoteNumber":48,"Velocity":57,"Duration":72161,"SoundDuration":72161,"Delta":22313758},{"NoteNumber":46,"Velocity":50,"Duration":72161,"SoundDuration":72161,"Delta":22602405},{"NoteNumber":65,"Velocity":61,"Duration":763966,"SoundDuration":763966,"Delta":22698620},{"NoteNumber":33,"Velocity":40,"Duration":384862,"SoundDuration":384862,"Delta":22698620},{"NoteNumber":75,"Velocity":58,"Duration":96215,"SoundDuration":96215,"Delta":22987267},{"NoteNumber":74,"Velocity":65,"Duration":70471,"SoundDuration":70471,"Delta":23083482},{"NoteNumber":34,"Velocity":44,"Duration":187923,"SoundDuration":187923,"Delta":23083482},{"NoteNumber":72,"Velocity":55,"Duration":72914,"SoundDuration":72914,"Delta":23365367},{"NoteNumber":70,"Velocity":64,"Duration":70233,"SoundDuration":70233,"Delta":23462586},{"NoteNumber":74,"Velocity":64,"Duration":378489,"SoundDuration":378489,"Delta":23462586},{"NoteNumber":58,"Velocity":60,"Duration":660373,"SoundDuration":660373,"Delta":23462586},{"NoteNumber":69,"Velocity":56,"Duration":73166,"SoundDuration":73166,"Delta":23743520},{"NoteNumber":67,"Velocity":64,"Duration":70471,"SoundDuration":70471,"Delta":23841075},{"NoteNumber":65,"Velocity":56,"Duration":73166,"SoundDuration":73166,"Delta":24122960},{"NoteNumber":57,"Velocity":51,"Duration":97554,"SoundDuration":97554,"Delta":24122960},{"NoteNumber":64,"Velocity":64,"Duration":70233,"SoundDuration":70233,"Delta":24220514},{"NoteNumber":55,"Velocity":58,"Duration":70233,"SoundDuration":70233,"Delta":24220514},{"NoteNumber":53,"Velocity":51,"Duration":72914,"SoundDuration":72914,"Delta":24501449},{"NoteNumber":81,"Velocity":70,"Duration":673508,"SoundDuration":673508,"Delta":24598668},{"NoteNumber":52,"Velocity":57,"Duration":72161,"SoundDuration":72161,"Delta":24598668},{"NoteNumber":50,"Velocity":50,"Duration":72161,"SoundDuration":72161,"Delta":24887315},{"NoteNumber":69,"Velocity":61,"Duration":763966,"SoundDuration":763966,"Delta":24983530},{"NoteNumber":37,"Velocity":40,"Duration":384862,"SoundDuration":384862,"Delta":24983530},{"NoteNumber":79,"Velocity":58,"Duration":96215,"SoundDuration":96215,"Delta":25272177},{"NoteNumber":78,"Velocity":65,"Duration":70471,"SoundDuration":70471,"Delta":25368392},{"NoteNumber":38,"Velocity":44,"Duration":187923,"SoundDuration":187923,"Delta":25368392},{"NoteNumber":75,"Velocity":55,"Duration":72914,"SoundDuration":72914,"Delta":25650277},{"NoteNumber":74,"Velocity":64,"Duration":70233,"SoundDuration":70233,"Delta":25747496},{"NoteNumber":78,"Velocity":64,"Duration":378489,"SoundDuration":378489,"Delta":25747496},{"NoteNumber":62,"Velocity":58,"Duration":660373,"SoundDuration":660373,"Delta":25747496},{"NoteNumber":72,"Velocity":56,"Duration":73166,"SoundDuration":73166,"Delta":26028430},{"NoteNumber":79,"Velocity":64,"Duration":70471,"SoundDuration":70471,"Delta":26125985},{"NoteNumber":70,"Velocity":64,"Duration":70471,"SoundDuration":70471,"Delta":26125985},{"NoteNumber":69,"Velocity":56,"Duration":73166,"SoundDuration":73166,"Delta":26407870},{"NoteNumber":60,"Velocity":51,"Duration":97554,"SoundDuration":97554,"Delta":26407870},{"NoteNumber":67,"Velocity":64,"Duration":70233,"SoundDuration":70233,"Delta":26505424},{"NoteNumber":58,"Velocity":58,"Duration":70233,"SoundDuration":70233,"Delta":26505424},{"NoteNumber":57,"Velocity":51,"Duration":72914,"SoundDuration":72914,"Delta":26786359},{"NoteNumber":70,"Velocity":71,"Duration":384861,"SoundDuration":384861,"Delta":26883578},{"NoteNumber":55,"Velocity":57,"Duration":72161,"SoundDuration":72161,"Delta":26883578},{"NoteNumber":53,"Velocity":50,"Duration":72161,"SoundDuration":72161,"Delta":27172225},{"NoteNumber":69,"Velocity":52,"Duration":288646,"SoundDuration":288646,"Delta":27268440},{"NoteNumber":73,"Velocity":62,"Duration":384862,"SoundDuration":384862,"Delta":27268440},{"NoteNumber":52,"Velocity":57,"Duration":72161,"SoundDuration":72161,"Delta":27268440},{"NoteNumber":67,"Velocity":58,"Duration":96215,"SoundDuration":96215,"Delta":27557087},{"NoteNumber":51,"Velocity":50,"Duration":72161,"SoundDuration":72161,"Delta":27557087},{"NoteNumber":74,"Velocity":61,"Duration":70471,"SoundDuration":70471,"Delta":27653302},{"NoteNumber":66,"Velocity":56,"Duration":70471,"SoundDuration":70471,"Delta":27653302},{"NoteNumber":50,"Velocity":58,"Duration":70471,"SoundDuration":70471,"Delta":27653302},{"NoteNumber":63,"Velocity":51,"Duration":72914,"SoundDuration":72914,"Delta":27935187},{"NoteNumber":62,"Velocity":59,"Duration":70233,"SoundDuration":70233,"Delta":28032406},{"NoteNumber":66,"Velocity":59,"Duration":378489,"SoundDuration":378489,"Delta":28032406},{"NoteNumber":50,"Velocity":60,"Duration":660373,"SoundDuration":660373,"Delta":28032406},{"NoteNumber":60,"Velocity":50,"Duration":73166,"SoundDuration":73166,"Delta":28313340},{"NoteNumber":67,"Velocity":57,"Duration":70471,"SoundDuration":70471,"Delta":28410895},{"NoteNumber":58,"Velocity":57,"Duration":70471,"SoundDuration":70471,"Delta":28410895},{"NoteNumber":57,"Velocity":49,"Duration":73166,"SoundDuration":73166,"Delta":28692780},{"NoteNumber":48,"Velocity":45,"Duration":97554,"SoundDuration":97554,"Delta":28692780},{"NoteNumber":55,"Velocity":57,"Duration":70233,"SoundDuration":70233,"Delta":28790334},{"NoteNumber":46,"Velocity":51,"Duration":70233,"SoundDuration":70233,"Delta":28790334},{"NoteNumber":45,"Velocity":44,"Duration":72914,"SoundDuration":72914,"Delta":29071269},{"NoteNumber":58,"Velocity":61,"Duration":379104,"SoundDuration":379104,"Delta":29168488},{"NoteNumber":43,"Velocity":52,"Duration":70471,"SoundDuration":70471,"Delta":29168488},{"NoteNumber":41,"Velocity":45,"Duration":72914,"SoundDuration":72914,"Delta":29450373},{"NoteNumber":57,"Velocity":55,"Duration":72914,"SoundDuration":72914,"Delta":29547592},{"NoteNumber":61,"Velocity":55,"Duration":388877,"SoundDuration":388877,"Delta":29547592},{"NoteNumber":40,"Velocity":50,"Duration":72914,"SoundDuration":72914,"Delta":29547592},{"NoteNumber":55,"Velocity":47,"Duration":72914,"SoundDuration":72914,"Delta":29839251},{"NoteNumber":39,"Velocity":50,"Duration":72914,"SoundDuration":72914,"Delta":29839251},{"NoteNumber":62,"Velocity":54,"Duration":203375,"SoundDuration":203375,"Delta":29936470},{"NoteNumber":54,"Velocity":54,"Duration":203375,"SoundDuration":203375,"Delta":29936470},{"NoteNumber":38,"Velocity":50,"Duration":203375,"SoundDuration":203375,"Delta":29936470},{"NoteNumber":70,"Velocity":58,"Duration":698036,"SoundDuration":698036,"Delta":30343222},{"NoteNumber":58,"Velocity":40,"Duration":816393,"SoundDuration":816393,"Delta":30734076},{"NoteNumber":38,"Velocity":40,"Duration":410988,"SoundDuration":410988,"Delta":30734076},{"NoteNumber":46,"Velocity":40,"Duration":816393,"SoundDuration":816393,"Delta":30734076},{"NoteNumber":66,"Velocity":50,"Duration":103806,"SoundDuration":103806,"Delta":31041258},{"NoteNumber":67,"Velocity":56,"Duration":304053,"SoundDuration":304053,"Delta":31145065},{"NoteNumber":39,"Velocity":40,"Duration":405405,"SoundDuration":405405,"Delta":31145065},{"NoteNumber":69,"Velocity":51,"Duration":101351,"SoundDuration":101351,"Delta":31449118},{"NoteNumber":70,"Velocity":57,"Duration":694946,"SoundDuration":694946,"Delta":31550470},{"NoteNumber":58,"Velocity":40,"Duration":818460,"SoundDuration":818460,"Delta":31937542},{"NoteNumber":38,"Velocity":40,"Duration":411680,"SoundDuration":411680,"Delta":31937542},{"NoteNumber":46,"Velocity":40,"Duration":818460,"SoundDuration":818460,"Delta":31937542},{"NoteNumber":66,"Velocity":54,"Duration":103806,"SoundDuration":103806,"Delta":32245416},{"NoteNumber":67,"Velocity":61,"Duration":305084,"SoundDuration":305084,"Delta":32349222},{"NoteNumber":39,"Velocity":40,"Duration":406779,"SoundDuration":406779,"Delta":32349222},{"NoteNumber":69,"Velocity":52,"Duration":101694,"SoundDuration":101694,"Delta":32654307},{"NoteNumber":70,"Velocity":57,"Duration":196065,"SoundDuration":196065,"Delta":32756002},{"NoteNumber":58,"Velocity":47,"Duration":208333,"SoundDuration":208333,"Delta":32952068},{"NoteNumber":36,"Velocity":33,"Duration":862949,"SoundDuration":862949,"Delta":33108318},{"NoteNumber":74,"Velocity":64,"Duration":204763,"SoundDuration":204763,"Delta":33160401},{"NoteNumber":51,"Velocity":40,"Duration":1197963,"SoundDuration":1197963,"Delta":33160401},{"NoteNumber":72,"Velocity":57,"Duration":204764,"SoundDuration":204764,"Delta":33365165},{"NoteNumber":74,"Velocity":66,"Duration":200668,"SoundDuration":200668,"Delta":33569929},{"NoteNumber":72,"Velocity":63,"Duration":200669,"SoundDuration":200669,"Delta":33770598},{"NoteNumber":70,"Velocity":59,"Duration":129032,"SoundDuration":129032,"Delta":33971267},{"NoteNumber":48,"Velocity":40,"Duration":387096,"SoundDuration":387096,"Delta":33971267},{"NoteNumber":67,"Velocity":51,"Duration":129032,"SoundDuration":129032,"Delta":34100299},{"NoteNumber":63,"Velocity":51,"Duration":129032,"SoundDuration":129032,"Delta":34229332},{"NoteNumber":62,"Velocity":57,"Duration":322402,"SoundDuration":322402,"Delta":34358364},{"NoteNumber":57,"Velocity":36,"Duration":436470,"SoundDuration":436470,"Delta":34358364},{"NoteNumber":53,"Velocity":36,"Duration":322402,"SoundDuration":322402,"Delta":34358364},{"NoteNumber":41,"Velocity":36,"Duration":436470,"SoundDuration":436470,"Delta":34358364},{"NoteNumber":60,"Velocity":47,"Duration":114068,"SoundDuration":114068,"Delta":34680766},{"NoteNumber":51,"Velocity":32,"Duration":114068,"SoundDuration":114068,"Delta":34680766},{"NoteNumber":58,"Velocity":54,"Duration":218977,"SoundDuration":218977,"Delta":34794835},{"NoteNumber":46,"Velocity":37,"Duration":218977,"SoundDuration":218977,"Delta":34794835},{"NoteNumber":50,"Velocity":37,"Duration":218977,"SoundDuration":218977,"Delta":34794835},{"NoteNumber":77,"Velocity":58,"Duration":690929,"SoundDuration":690929,"Delta":35232791},{"NoteNumber":41,"Velocity":28,"Duration":459632,"SoundDuration":459632,"Delta":35568254},{"NoteNumber":49,"Velocity":32,"Duration":435671,"SoundDuration":435671,"Delta":35592216},{"NoteNumber":65,"Velocity":40,"Duration":817114,"SoundDuration":817114,"Delta":35616178},{"NoteNumber":57,"Velocity":36,"Duration":411709,"SoundDuration":411709,"Delta":35616178},{"NoteNumber":73,"Velocity":50,"Duration":104166,"SoundDuration":104166,"Delta":35923720},{"NoteNumber":74,"Velocity":56,"Duration":304053,"SoundDuration":304053,"Delta":36027887},{"NoteNumber":58,"Velocity":40,"Duration":405405,"SoundDuration":405405,"Delta":36027887},{"NoteNumber":50,"Velocity":40,"Duration":405405,"SoundDuration":405405,"Delta":36027887},{"NoteNumber":75,"Velocity":51,"Duration":101351,"SoundDuration":101351,"Delta":36331941},{"NoteNumber":77,"Velocity":57,"Duration":695669,"SoundDuration":695669,"Delta":36433292},{"NoteNumber":41,"Velocity":29,"Duration":461511,"SoundDuration":461511,"Delta":36771980},{"NoteNumber":49,"Velocity":32,"Duration":437319,"SoundDuration":437319,"Delta":36796172},{"NoteNumber":65,"Velocity":40,"Duration":819907,"SoundDuration":819907,"Delta":36820364},{"NoteNumber":57,"Velocity":36,"Duration":413127,"SoundDuration":413127,"Delta":36820364},{"NoteNumber":73,"Velocity":54,"Duration":104529,"SoundDuration":104529,"Delta":37128962},{"NoteNumber":74,"Velocity":61,"Duration":305084,"SoundDuration":305084,"Delta":37233491},{"NoteNumber":58,"Velocity":40,"Duration":406779,"SoundDuration":406779,"Delta":37233491},{"NoteNumber":50,"Velocity":40,"Duration":406779,"SoundDuration":406779,"Delta":37233491},{"NoteNumber":75,"Velocity":52,"Duration":101694,"SoundDuration":101694,"Delta":37538576},{"NoteNumber":77,"Velocity":57,"Duration":196065,"SoundDuration":196065,"Delta":37640271},{"NoteNumber":65,"Velocity":47,"Duration":196065,"SoundDuration":196065,"Delta":37836337},{"NoteNumber":46,"Velocity":33,"Duration":451773,"SoundDuration":451773,"Delta":37983386},{"NoteNumber":53,"Velocity":33,"Duration":827265,"SoundDuration":827265,"Delta":38007894},{"NoteNumber":81,"Velocity":64,"Duration":198675,"SoundDuration":198675,"Delta":38032402},{"NoteNumber":62,"Velocity":40,"Duration":402757,"SoundDuration":402757,"Delta":38032402},{"NoteNumber":79,"Velocity":57,"Duration":204081,"SoundDuration":204081,"Delta":38231078},{"NoteNumber":81,"Velocity":66,"Duration":200000,"SoundDuration":200000,"Delta":38435159},{"NoteNumber":62,"Velocity":40,"Duration":787096,"SoundDuration":787096,"Delta":38435159},{"NoteNumber":79,"Velocity":63,"Duration":199999,"SoundDuration":199999,"Delta":38635159},{"NoteNumber":77,"Velocity":59,"Duration":129032,"SoundDuration":129032,"Delta":38835159},{"NoteNumber":55,"Velocity":40,"Duration":387096,"SoundDuration":387096,"Delta":38835159},{"NoteNumber":74,"Velocity":51,"Duration":129032,"SoundDuration":129032,"Delta":38964191},{"NoteNumber":70,"Velocity":51,"Duration":129032,"SoundDuration":129032,"Delta":39093224},{"NoteNumber":64,"Velocity":36,"Duration":436056,"SoundDuration":436056,"Delta":39222256},{"NoteNumber":69,"Velocity":57,"Duration":321114,"SoundDuration":321114,"Delta":39222256},{"NoteNumber":60,"Velocity":36,"Duration":321114,"SoundDuration":321114,"Delta":39222256},{"NoteNumber":48,"Velocity":36,"Duration":436056,"SoundDuration":436056,"Delta":39222256},{"NoteNumber":67,"Velocity":47,"Duration":114942,"SoundDuration":114942,"Delta":39543370},{"NoteNumber":58,"Velocity":32,"Duration":114942,"SoundDuration":114942,"Delta":39543370},{"NoteNumber":65,"Velocity":54,"Duration":218977,"SoundDuration":218977,"Delta":39658313},{"NoteNumber":53,"Velocity":37,"Duration":218977,"SoundDuration":218977,"Delta":39658313},{"NoteNumber":57,"Velocity":37,"Duration":218977,"SoundDuration":218977,"Delta":39658313},{"NoteNumber":82,"Velocity":58,"Duration":693995,"SoundDuration":693995,"Delta":40096269},{"NoteNumber":50,"Velocity":32,"Duration":377950,"SoundDuration":377950,"Delta":40438266},{"NoteNumber":58,"Velocity":36,"Duration":353521,"SoundDuration":353521,"Delta":40462694},{"NoteNumber":70,"Velocity":40,"Duration":813727,"SoundDuration":813727,"Delta":40487123},{"NoteNumber":65,"Velocity":40,"Duration":415422,"SoundDuration":415422,"Delta":40487123},{"NoteNumber":77,"Velocity":50,"Duration":103806,"SoundDuration":103806,"Delta":40790264},{"NoteNumber":51,"Velocity":27,"Duration":484634,"SoundDuration":484634,"Delta":40816216},{"NoteNumber":54,"Velocity":33,"Duration":458683,"SoundDuration":458683,"Delta":40842167},{"NoteNumber":58,"Velocity":40,"Duration":432731,"SoundDuration":432731,"Delta":40868119},{"NoteNumber":78,"Velocity":60,"Duration":305084,"SoundDuration":305084,"Delta":40894071},{"NoteNumber":66,"Velocity":40,"Duration":406779,"SoundDuration":406779,"Delta":40894071},{"NoteNumber":80,"Velocity":57,"Duration":101694,"SoundDuration":101694,"Delta":41199156},{"NoteNumber":82,"Velocity":62,"Duration":692270,"SoundDuration":692270,"Delta":41300851},{"NoteNumber":50,"Velocity":33,"Duration":301317,"SoundDuration":301317,"Delta":41639539},{"NoteNumber":58,"Velocity":36,"Duration":355522,"SoundDuration":355522,"Delta":41663731},{"NoteNumber":70,"Velocity":40,"Duration":816507,"SoundDuration":816507,"Delta":41687923},{"NoteNumber":65,"Velocity":40,"Duration":331330,"SoundDuration":331330,"Delta":41687923},{"NoteNumber":77,"Velocity":57,"Duration":104529,"SoundDuration":104529,"Delta":41993121},{"NoteNumber":51,"Velocity":27,"Duration":485177,"SoundDuration":485177,"Delta":42019253},{"NoteNumber":54,"Velocity":31,"Duration":459044,"SoundDuration":459044,"Delta":42045386},{"NoteNumber":58,"Velocity":35,"Duration":432912,"SoundDuration":432912,"Delta":42071518},{"NoteNumber":78,"Velocity":63,"Duration":305084,"SoundDuration":305084,"Delta":42097651},{"NoteNumber":66,"Velocity":40,"Duration":406779,"SoundDuration":406779,"Delta":42097651},{"NoteNumber":80,"Velocity":55,"Duration":101694,"SoundDuration":101694,"Delta":42402736},{"NoteNumber":82,"Velocity":60,"Duration":196065,"SoundDuration":196065,"Delta":42504431},{"NoteNumber":73,"Velocity":50,"Duration":196065,"SoundDuration":196065,"Delta":42700496},{"NoteNumber":54,"Velocity":33,"Duration":450354,"SoundDuration":450354,"Delta":42847545},{"NoteNumber":61,"Velocity":33,"Duration":824517,"SoundDuration":824517,"Delta":42872053},{"NoteNumber":89,"Velocity":65,"Duration":200668,"SoundDuration":200668,"Delta":42896562},{"NoteNumber":70,"Velocity":40,"Duration":401338,"SoundDuration":401338,"Delta":42896562},{"NoteNumber":87,"Velocity":60,"Duration":200669,"SoundDuration":200669,"Delta":43097231},{"NoteNumber":89,"Velocity":66,"Duration":199335,"SoundDuration":199335,"Delta":43297900},{"NoteNumber":70,"Velocity":40,"Duration":785767,"SoundDuration":785767,"Delta":43297900},{"NoteNumber":87,"Velocity":63,"Duration":199335,"SoundDuration":199335,"Delta":43497235},{"NoteNumber":85,"Velocity":62,"Duration":129032,"SoundDuration":129032,"Delta":43696571},{"NoteNumber":63,"Velocity":40,"Duration":387096,"SoundDuration":387096,"Delta":43696571},{"NoteNumber":82,"Velocity":57,"Duration":129032,"SoundDuration":129032,"Delta":43825603},{"NoteNumber":78,"Velocity":51,"Duration":129032,"SoundDuration":129032,"Delta":43954635},{"NoteNumber":72,"Velocity":36,"Duration":437831,"SoundDuration":437831,"Delta":44083668},{"NoteNumber":77,"Velocity":57,"Duration":322001,"SoundDuration":322001,"Delta":44083668},{"NoteNumber":66,"Velocity":36,"Duration":437831,"SoundDuration":437831,"Delta":44083668},{"NoteNumber":56,"Velocity":36,"Duration":437831,"SoundDuration":437831,"Delta":44083668},{"NoteNumber":75,"Velocity":47,"Duration":115829,"SoundDuration":115829,"Delta":44405669},{"NoteNumber":73,"Velocity":54,"Duration":218181,"SoundDuration":218181,"Delta":44521499},{"NoteNumber":61,"Velocity":37,"Duration":218181,"SoundDuration":218181,"Delta":44521499},{"NoteNumber":65,"Velocity":37,"Duration":218181,"SoundDuration":218181,"Delta":44521499},{"NoteNumber":80,"Velocity":58,"Duration":692269,"SoundDuration":692269,"Delta":44957863},{"NoteNumber":44,"Velocity":28,"Duration":448311,"SoundDuration":448311,"Delta":45299860},{"NoteNumber":51,"Velocity":32,"Duration":423882,"SoundDuration":423882,"Delta":45324289},{"NoteNumber":68,"Velocity":40,"Duration":806234,"SoundDuration":806234,"Delta":45348717},{"NoteNumber":60,"Velocity":36,"Duration":399454,"SoundDuration":399454,"Delta":45348717},{"NoteNumber":75,"Velocity":50,"Duration":98039,"SoundDuration":98039,"Delta":45650132},{"NoteNumber":77,"Velocity":56,"Duration":305084,"SoundDuration":305084,"Delta":45748172},{"NoteNumber":61,"Velocity":40,"Duration":406779,"SoundDuration":406779,"Delta":45748172},{"NoteNumber":53,"Velocity":40,"Duration":406779,"SoundDuration":406779,"Delta":45748172},{"NoteNumber":78,"Velocity":51,"Duration":101694,"SoundDuration":101694,"Delta":46053257},{"NoteNumber":80,"Velocity":57,"Duration":694452,"SoundDuration":694452,"Delta":46154952},{"NoteNumber":44,"Velocity":29,"Duration":456679,"SoundDuration":456679,"Delta":46494758},{"NoteNumber":51,"Velocity":32,"Duration":432407,"SoundDuration":432407,"Delta":46519030},{"NoteNumber":68,"Velocity":40,"Duration":820585,"SoundDuration":820585,"Delta":46543302},{"NoteNumber":60,"Velocity":36,"Duration":408135,"SoundDuration":408135,"Delta":46543302},{"NoteNumber":75,"Velocity":54,"Duration":102033,"SoundDuration":102033,"Delta":46849404},{"NoteNumber":77,"Velocity":61,"Duration":307919,"SoundDuration":307919,"Delta":46951438},{"NoteNumber":61,"Velocity":40,"Duration":412449,"SoundDuration":412449,"Delta":46951438},{"NoteNumber":53,"Velocity":40,"Duration":412449,"SoundDuration":412449,"Delta":46951438},{"NoteNumber":78,"Velocity":52,"Duration":104529,"SoundDuration":104529,"Delta":47259357},{"NoteNumber":80,"Velocity":57,"Duration":196065,"SoundDuration":196065,"Delta":47363887},{"NoteNumber":70,"Velocity":47,"Duration":196065,"SoundDuration":196065,"Delta":47559952},{"NoteNumber":49,"Velocity":33,"Duration":451701,"SoundDuration":451701,"Delta":47707001},{"NoteNumber":56,"Velocity":33,"Duration":824544,"SoundDuration":824544,"Delta":47731509},{"NoteNumber":84,"Velocity":64,"Duration":201342,"SoundDuration":201342,"Delta":47756018},{"NoteNumber":65,"Velocity":40,"Duration":402684,"SoundDuration":402684,"Delta":47756018},{"NoteNumber":82,"Velocity":57,"Duration":201342,"SoundDuration":201342,"Delta":47957360},{"NoteNumber":84,"Velocity":66,"Duration":198675,"SoundDuration":198675,"Delta":48158703},{"NoteNumber":65,"Velocity":40,"Duration":786960,"SoundDuration":786960,"Delta":48158703},{"NoteNumber":82,"Velocity":63,"Duration":198675,"SoundDuration":198675,"Delta":48357378},{"NoteNumber":80,"Velocity":59,"Duration":129869,"SoundDuration":129869,"Delta":48556054},{"NoteNumber":58,"Velocity":40,"Duration":389609,"SoundDuration":389609,"Delta":48556054},{"NoteNumber":77,"Velocity":51,"Duration":129870,"SoundDuration":129870,"Delta":48685924},{"NoteNumber":73,"Velocity":51,"Duration":129869,"SoundDuration":129869,"Delta":48815794},{"NoteNumber":72,"Velocity":57,"Duration":309257,"SoundDuration":309257,"Delta":48945664},{"NoteNumber":67,"Velocity":36,"Duration":418738,"SoundDuration":418738,"Delta":48945664},{"NoteNumber":61,"Velocity":36,"Duration":418738,"SoundDuration":418738,"Delta":48945664},{"NoteNumber":51,"Velocity":36,"Duration":418738,"SoundDuration":418738,"Delta":48945664},{"NoteNumber":70,"Velocity":47,"Duration":109481,"SoundDuration":109481,"Delta":49254921},{"NoteNumber":68,"Velocity":54,"Duration":218961,"SoundDuration":218961,"Delta":49364402},{"NoteNumber":56,"Velocity":37,"Duration":218961,"SoundDuration":218961,"Delta":49364402},{"NoteNumber":60,"Velocity":37,"Duration":218961,"SoundDuration":218961,"Delta":49364402},{"NoteNumber":54,"Velocity":49,"Duration":685075,"SoundDuration":685075,"Delta":49802326},{"NoteNumber":68,"Velocity":40,"Duration":799191,"SoundDuration":799191,"Delta":50182337},{"NoteNumber":63,"Velocity":34,"Duration":799191,"SoundDuration":799191,"Delta":50182337},{"NoteNumber":60,"Velocity":34,"Duration":799191,"SoundDuration":799191,"Delta":50182337},{"NoteNumber":44,"Velocity":32,"Duration":799191,"SoundDuration":799191,"Delta":50182337},{"NoteNumber":50,"Velocity":42,"Duration":101687,"SoundDuration":101687,"Delta":50487401},{"NoteNumber":51,"Velocity":47,"Duration":294329,"SoundDuration":294329,"Delta":50589089},{"NoteNumber":53,"Velocity":43,"Duration":98109,"SoundDuration":98109,"Delta":50883418},{"NoteNumber":69,"Velocity":52,"Duration":688720,"SoundDuration":688720,"Delta":50981528},{"NoteNumber":54,"Velocity":49,"Duration":790407,"SoundDuration":790407,"Delta":50981528},{"NoteNumber":44,"Velocity":32,"Duration":801788,"SoundDuration":801788,"Delta":51365184},{"NoteNumber":62,"Velocity":45,"Duration":101687,"SoundDuration":101687,"Delta":51670248},{"NoteNumber":63,"Velocity":50,"Duration":296604,"SoundDuration":296604,"Delta":51771936},{"NoteNumber":65,"Velocity":45,"Duration":98431,"SoundDuration":98431,"Delta":52068540},{"NoteNumber":60,"Velocity":50,"Duration":1184134,"SoundDuration":1184134,"Delta":52166972},{"NoteNumber":66,"Velocity":51,"Duration":1184134,"SoundDuration":1184134,"Delta":52166972},{"NoteNumber":51,"Velocity":46,"Duration":688720,"SoundDuration":688720,"Delta":52166972},{"NoteNumber":44,"Velocity":32,"Duration":800478,"SoundDuration":800478,"Delta":52550628},{"NoteNumber":47,"Velocity":43,"Duration":101687,"SoundDuration":101687,"Delta":52855692},{"NoteNumber":48,"Velocity":47,"Duration":295295,"SoundDuration":295295,"Delta":52957380},{"NoteNumber":49,"Velocity":42,"Duration":98431,"SoundDuration":98431,"Delta":53252675},{"NoteNumber":66,"Velocity":52,"Duration":688720,"SoundDuration":688720,"Delta":53351107},{"NoteNumber":51,"Velocity":47,"Duration":1566886,"SoundDuration":1566886,"Delta":53351107},{"NoteNumber":44,"Velocity":32,"Duration":1183230,"SoundDuration":1183230,"Delta":53734763},{"NoteNumber":59,"Velocity":45,"Duration":101687,"SoundDuration":101687,"Delta":54039827},{"NoteNumber":60,"Velocity":50,"Duration":295629,"SoundDuration":295629,"Delta":54141515},{"NoteNumber":61,"Velocity":45,"Duration":98109,"SoundDuration":98109,"Delta":54437145},{"NoteNumber":63,"Velocity":51,"Duration":789491,"SoundDuration":789491,"Delta":54535254},{"NoteNumber":45,"Velocity":32,"Duration":1181625,"SoundDuration":1181625,"Delta":54917994},{"NoteNumber":53,"Velocity":45,"Duration":101688,"SoundDuration":101688,"Delta":55223058},{"NoteNumber":63,"Velocity":51,"Duration":392439,"SoundDuration":392439,"Delta":55324746},{"NoteNumber":54,"Velocity":50,"Duration":294329,"SoundDuration":294329,"Delta":55324746},{"NoteNumber":56,"Velocity":45,"Duration":98109,"SoundDuration":98109,"Delta":55619075},{"NoteNumber":57,"Velocity":51,"Duration":1182913,"SoundDuration":1182913,"Delta":55717185},{"NoteNumber":47,"Velocity":32,"Duration":1184135,"SoundDuration":1184135,"Delta":56099619},{"NoteNumber":50,"Velocity":45,"Duration":101688,"SoundDuration":101688,"Delta":56404683},{"NoteNumber":51,"Velocity":50,"Duration":295295,"SoundDuration":295295,"Delta":56506371},{"NoteNumber":52,"Velocity":45,"Duration":98431,"SoundDuration":98431,"Delta":56801666},{"NoteNumber":54,"Velocity":51,"Duration":1226129,"SoundDuration":1226129,"Delta":56900098},{"NoteNumber":48,"Velocity":32,"Duration":1063061,"SoundDuration":1063061,"Delta":57283754},{"NoteNumber":49,"Velocity":45,"Duration":105263,"SoundDuration":105263,"Delta":57592393},{"NoteNumber":50,"Velocity":50,"Duration":321428,"SoundDuration":321428,"Delta":57697656},{"NoteNumber":52,"Velocity":51,"Duration":107142,"SoundDuration":107142,"Delta":58019085},{"NoteNumber":54,"Velocity":55,"Duration":811746,"SoundDuration":811746,"Delta":58126227},{"NoteNumber":50,"Velocity":45,"Duration":240963,"SoundDuration":240963,"Delta":58346815},{"NoteNumber":52,"Velocity":51,"Duration":233463,"SoundDuration":233463,"Delta":58587779},{"NoteNumber":54,"Velocity":54,"Duration":676267,"SoundDuration":676267,"Delta":58821242},{"NoteNumber":55,"Velocity":40,"Duration":93335,"SoundDuration":93335,"Delta":59497509},{"NoteNumber":31,"Velocity":44,"Duration":694531,"SoundDuration":694531,"Delta":59497509},{"NoteNumber":57,"Velocity":32,"Duration":93335,"SoundDuration":93335,"Delta":59590845},{"NoteNumber":55,"Velocity":34,"Duration":93335,"SoundDuration":93335,"Delta":59684181},{"NoteNumber":50,"Velocity":34,"Duration":101805,"SoundDuration":101805,"Delta":59777517},{"NoteNumber":62,"Velocity":40,"Duration":81063,"SoundDuration":81063,"Delta":59879322},{"NoteNumber":50,"Velocity":40,"Duration":72412,"SoundDuration":72412,"Delta":60192041},{"NoteNumber":55,"Velocity":40,"Duration":72412,"SoundDuration":72412,"Delta":60192041},{"NoteNumber":34,"Velocity":35,"Duration":72412,"SoundDuration":72412,"Delta":60192041},{"NoteNumber":48,"Velocity":46,"Duration":72412,"SoundDuration":72412,"Delta":60288591},{"NoteNumber":54,"Velocity":46,"Duration":72412,"SoundDuration":72412,"Delta":60288591},{"NoteNumber":33,"Velocity":40,"Duration":72412,"SoundDuration":72412,"Delta":60288591},{"NoteNumber":60,"Velocity":43,"Duration":93335,"SoundDuration":93335,"Delta":60674791},{"NoteNumber":62,"Velocity":37,"Duration":93335,"SoundDuration":93335,"Delta":60768127},{"NoteNumber":60,"Velocity":37,"Duration":93335,"SoundDuration":93335,"Delta":60861463},{"NoteNumber":57,"Velocity":37,"Duration":102930,"SoundDuration":102930,"Delta":60954799},{"NoteNumber":69,"Velocity":49,"Duration":79832,"SoundDuration":79832,"Delta":61057729},{"NoteNumber":60,"Velocity":44,"Duration":72161,"SoundDuration":72161,"Delta":61366831},{"NoteNumber":50,"Velocity":44,"Duration":72161,"SoundDuration":72161,"Delta":61366831},{"NoteNumber":30,"Velocity":33,"Duration":72161,"SoundDuration":72161,"Delta":61366831},{"NoteNumber":58,"Velocity":48,"Duration":72161,"SoundDuration":72161,"Delta":61463046},{"NoteNumber":50,"Velocity":48,"Duration":72161,"SoundDuration":72161,"Delta":61463046},{"NoteNumber":31,"Velocity":40,"Duration":72161,"SoundDuration":72161,"Delta":61463046},{"NoteNumber":55,"Velocity":40,"Duration":93644,"SoundDuration":93644,"Delta":61847908},{"NoteNumber":57,"Velocity":34,"Duration":93644,"SoundDuration":93644,"Delta":61941553},{"NoteNumber":55,"Velocity":34,"Duration":93644,"SoundDuration":93644,"Delta":62035198},{"NoteNumber":50,"Velocity":34,"Duration":102550,"SoundDuration":102550,"Delta":62128842},{"NoteNumber":67,"Velocity":50,"Duration":73940,"SoundDuration":73940,"Delta":62231392},{"NoteNumber":65,"Velocity":44,"Duration":72161,"SoundDuration":72161,"Delta":62524782},{"NoteNumber":55,"Velocity":44,"Duration":72161,"SoundDuration":72161,"Delta":62524782},{"NoteNumber":34,"Velocity":32,"Duration":72161,"SoundDuration":72161,"Delta":62524782},{"NoteNumber":63,"Velocity":47,"Duration":71428,"SoundDuration":71428,"Delta":62620997},{"NoteNumber":55,"Velocity":47,"Duration":71428,"SoundDuration":71428,"Delta":62620997},{"NoteNumber":36,"Velocity":37,"Duration":71428,"SoundDuration":71428,"Delta":62620997},{"NoteNumber":62,"Velocity":40,"Duration":74198,"SoundDuration":74198,"Delta":62906711},{"NoteNumber":55,"Velocity":40,"Duration":74198,"SoundDuration":74198,"Delta":62906711},{"NoteNumber":38,"Velocity":33,"Duration":74198,"SoundDuration":74198,"Delta":62906711},{"NoteNumber":60,"Velocity":44,"Duration":71184,"SoundDuration":71184,"Delta":63005643},{"NoteNumber":55,"Velocity":44,"Duration":71184,"SoundDuration":71184,"Delta":63005643},{"NoteNumber":39,"Velocity":38,"Duration":71184,"SoundDuration":71184,"Delta":63005643},{"NoteNumber":58,"Velocity":50,"Duration":73940,"SoundDuration":73940,"Delta":63290381},{"NoteNumber":61,"Velocity":46,"Duration":71917,"SoundDuration":71917,"Delta":63388968},{"NoteNumber":57,"Velocity":46,"Duration":71917,"SoundDuration":71917,"Delta":63388968},{"NoteNumber":51,"Velocity":40,"Duration":71917,"SoundDuration":71917,"Delta":63388968},{"NoteNumber":55,"Velocity":40,"Duration":81374,"SoundDuration":81374,"Delta":63676637},{"NoteNumber":62,"Velocity":50,"Duration":72161,"SoundDuration":72161,"Delta":63785136},{"NoteNumber":54,"Velocity":50,"Duration":72161,"SoundDuration":72161,"Delta":63785136},{"NoteNumber":38,"Velocity":45,"Duration":72161,"SoundDuration":72161,"Delta":63785136},{"NoteNumber":50,"Velocity":45,"Duration":72161,"SoundDuration":72161,"Delta":63785136},{"NoteNumber":74,"Velocity":72,"Duration":673508,"SoundDuration":673508,"Delta":64169998},{"NoteNumber":62,"Velocity":61,"Duration":763965,"SoundDuration":763965,"Delta":64554860},{"NoteNumber":30,"Velocity":40,"Duration":384861,"SoundDuration":384861,"Delta":64554860},{"NoteNumber":72,"Velocity":58,"Duration":96215,"SoundDuration":96215,"Delta":64843506},{"NoteNumber":70,"Velocity":65,"Duration":70471,"SoundDuration":70471,"Delta":64939722},{"NoteNumber":31,"Velocity":44,"Duration":187922,"SoundDuration":187922,"Delta":64939722},{"NoteNumber":69,"Velocity":55,"Duration":72914,"SoundDuration":72914,"Delta":65221606},{"NoteNumber":70,"Velocity":64,"Duration":378489,"SoundDuration":378489,"Delta":65318826},{"NoteNumber":67,"Velocity":64,"Duration":70233,"SoundDuration":70233,"Delta":65318826},{"NoteNumber":55,"Velocity":60,"Duration":660373,"SoundDuration":660373,"Delta":65318826},{"NoteNumber":65,"Velocity":56,"Duration":73166,"SoundDuration":73166,"Delta":65599760},{"NoteNumber":63,"Velocity":64,"Duration":70471,"SoundDuration":70471,"Delta":65697315},{"NoteNumber":62,"Velocity":56,"Duration":73166,"SoundDuration":73166,"Delta":65979199},{"NoteNumber":53,"Velocity":51,"Duration":97554,"SoundDuration":97554,"Delta":65979199},{"NoteNumber":60,"Velocity":64,"Duration":70233,"SoundDuration":70233,"Delta":66076754},{"NoteNumber":51,"Velocity":58,"Duration":70233,"SoundDuration":70233,"Delta":66076754},{"NoteNumber":50,"Velocity":51,"Duration":72914,"SoundDuration":72914,"Delta":66357688},{"NoteNumber":77,"Velocity":68,"Duration":673508,"SoundDuration":673508,"Delta":66454908},{"NoteNumber":48,"Velocity":57,"Duration":72161,"SoundDuration":72161,"Delta":66454908},{"NoteNumber":46,"Velocity":50,"Duration":72161,"SoundDuration":72161,"Delta":66743554},{"NoteNumber":65,"Velocity":61,"Duration":763965,"SoundDuration":763965,"Delta":66839770},{"NoteNumber":33,"Velocity":40,"Duration":384861,"SoundDuration":384861,"Delta":66839770},{"NoteNumber":75,"Velocity":58,"Duration":96215,"SoundDuration":96215,"Delta":67128416},{"NoteNumber":74,"Velocity":65,"Duration":70471,"SoundDuration":70471,"Delta":67224632},{"NoteNumber":34,"Velocity":44,"Duration":187922,"SoundDuration":187922,"Delta":67224632},{"NoteNumber":72,"Velocity":55,"Duration":72914,"SoundDuration":72914,"Delta":67506516},{"NoteNumber":70,"Velocity":64,"Duration":70233,"SoundDuration":70233,"Delta":67603736},{"NoteNumber":74,"Velocity":64,"Duration":378489,"SoundDuration":378489,"Delta":67603736},{"NoteNumber":58,"Velocity":60,"Duration":660373,"SoundDuration":660373,"Delta":67603736},{"NoteNumber":69,"Velocity":56,"Duration":73166,"SoundDuration":73166,"Delta":67884670},{"NoteNumber":67,"Velocity":64,"Duration":70471,"SoundDuration":70471,"Delta":67982225},{"NoteNumber":65,"Velocity":56,"Duration":73166,"SoundDuration":73166,"Delta":68264109},{"NoteNumber":57,"Velocity":51,"Duration":97554,"SoundDuration":97554,"Delta":68264109},{"NoteNumber":64,"Velocity":64,"Duration":70233,"SoundDuration":70233,"Delta":68361664},{"NoteNumber":55,"Velocity":58,"Duration":70233,"SoundDuration":70233,"Delta":68361664},{"NoteNumber":53,"Velocity":51,"Duration":72914,"SoundDuration":72914,"Delta":68642598},{"NoteNumber":81,"Velocity":70,"Duration":673508,"SoundDuration":673508,"Delta":68739818},{"NoteNumber":52,"Velocity":57,"Duration":72161,"SoundDuration":72161,"Delta":68739818},{"NoteNumber":50,"Velocity":50,"Duration":72161,"SoundDuration":72161,"Delta":69028464},{"NoteNumber":69,"Velocity":61,"Duration":763965,"SoundDuration":763965,"Delta":69124680},{"NoteNumber":37,"Velocity":40,"Duration":384861,"SoundDuration":384861,"Delta":69124680},{"NoteNumber":79,"Velocity":58,"Duration":96215,"SoundDuration":96215,"Delta":69413326},{"NoteNumber":78,"Velocity":65,"Duration":70471,"SoundDuration":70471,"Delta":69509542},{"NoteNumber":38,"Velocity":44,"Duration":187922,"SoundDuration":187922,"Delta":69509542},{"NoteNumber":75,"Velocity":55,"Duration":72914,"SoundDuration":72914,"Delta":69791426},{"NoteNumber":74,"Velocity":64,"Duration":70233,"SoundDuration":70233,"Delta":69888646},{"NoteNumber":78,"Velocity":64,"Duration":378489,"SoundDuration":378489,"Delta":69888646},{"NoteNumber":62,"Velocity":58,"Duration":660373,"SoundDuration":660373,"Delta":69888646},{"NoteNumber":72,"Velocity":56,"Duration":73166,"SoundDuration":73166,"Delta":70169580},{"NoteNumber":79,"Velocity":64,"Duration":93961,"SoundDuration":93961,"Delta":70267135},{"NoteNumber":70,"Velocity":64,"Duration":70471,"SoundDuration":70471,"Delta":70267135},{"NoteNumber":69,"Velocity":56,"Duration":73166,"SoundDuration":73166,"Delta":70549019},{"NoteNumber":60,"Velocity":51,"Duration":97554,"SoundDuration":97554,"Delta":70549019},{"NoteNumber":67,"Velocity":64,"Duration":70233,"SoundDuration":70233,"Delta":70646574},{"NoteNumber":58,"Velocity":58,"Duration":70233,"SoundDuration":70233,"Delta":70646574},{"NoteNumber":57,"Velocity":51,"Duration":72914,"SoundDuration":72914,"Delta":70927508},{"NoteNumber":70,"Velocity":71,"Duration":384861,"SoundDuration":384861,"Delta":71024728},{"NoteNumber":55,"Velocity":57,"Duration":72161,"SoundDuration":72161,"Delta":71024728},{"NoteNumber":53,"Velocity":50,"Duration":72161,"SoundDuration":72161,"Delta":71313374},{"NoteNumber":69,"Velocity":52,"Duration":288646,"SoundDuration":288646,"Delta":71409590},{"NoteNumber":73,"Velocity":62,"Duration":384861,"SoundDuration":384861,"Delta":71409590},{"NoteNumber":52,"Velocity":57,"Duration":72161,"SoundDuration":72161,"Delta":71409590},{"NoteNumber":67,"Velocity":58,"Duration":96215,"SoundDuration":96215,"Delta":71698236},{"NoteNumber":51,"Velocity":50,"Duration":72161,"SoundDuration":72161,"Delta":71698236},{"NoteNumber":66,"Velocity":56,"Duration":187922,"SoundDuration":187922,"Delta":71794452},{"NoteNumber":74,"Velocity":61,"Duration":187922,"SoundDuration":187922,"Delta":71794452},{"NoteNumber":50,"Velocity":58,"Duration":187922,"SoundDuration":187922,"Delta":71794452},{"NoteNumber":68,"Velocity":51,"Duration":72914,"SoundDuration":72914,"Delta":72076336},{"NoteNumber":67,"Velocity":59,"Duration":190476,"SoundDuration":190476,"Delta":72173556},{"NoteNumber":71,"Velocity":59,"Duration":387754,"SoundDuration":387754,"Delta":72173556},{"NoteNumber":55,"Velocity":60,"Duration":681680,"SoundDuration":681680,"Delta":72173556},{"NoteNumber":65,"Velocity":49,"Duration":76530,"SoundDuration":76530,"Delta":72459270},{"NoteNumber":63,"Velocity":55,"Duration":195950,"SoundDuration":195950,"Delta":72561310},{"NoteNumber":72,"Velocity":55,"Duration":195950,"SoundDuration":195950,"Delta":72561310},{"NoteNumber":62,"Velocity":47,"Duration":107066,"SoundDuration":107066,"Delta":72855236},{"NoteNumber":53,"Velocity":43,"Duration":107066,"SoundDuration":107066,"Delta":72855236},{"NoteNumber":60,"Velocity":54,"Duration":433122,"SoundDuration":433122,"Delta":72962303},{"NoteNumber":51,"Velocity":48,"Duration":210378,"SoundDuration":210378,"Delta":72962303},{"NoteNumber":50,"Velocity":40,"Duration":117554,"SoundDuration":117554,"Delta":73277870},{"NoteNumber":63,"Velocity":56,"Duration":455429,"SoundDuration":455429,"Delta":73395425},{"NoteNumber":50,"Velocity":38,"Duration":2430506,"SoundDuration":2430506,"Delta":73395425},{"NoteNumber":48,"Velocity":48,"Duration":218818,"SoundDuration":218818,"Delta":73395425},{"NoteNumber":46,"Velocity":38,"Duration":86805,"SoundDuration":86805,"Delta":73735114},{"NoteNumber":66,"Velocity":49,"Duration":629786,"SoundDuration":629786,"Delta":73850855},{"NoteNumber":62,"Velocity":49,"Duration":384287,"SoundDuration":384287,"Delta":73850855},{"NoteNumber":45,"Velocity":43,"Duration":384287,"SoundDuration":384287,"Delta":73850855},{"NoteNumber":60,"Velocity":41,"Duration":245499,"SoundDuration":245499,"Delta":74235142},{"NoteNumber":44,"Velocity":30,"Duration":245499,"SoundDuration":245499,"Delta":74235142},{"NoteNumber":58,"Velocity":39,"Duration":1345291,"SoundDuration":1345291,"Delta":74480641},{"NoteNumber":67,"Velocity":47,"Duration":1345291,"SoundDuration":1345291,"Delta":74480641},{"NoteNumber":43,"Velocity":32,"Duration":1345291,"SoundDuration":1345291,"Delta":74480641},{"NoteNumber":63,"Velocity":38,"Duration":381922,"SoundDuration":381922,"Delta":75825932},{"NoteNumber":60,"Velocity":38,"Duration":381922,"SoundDuration":381922,"Delta":75825932},{"NoteNumber":67,"Velocity":45,"Duration":381922,"SoundDuration":381922,"Delta":75825932},{"NoteNumber":48,"Velocity":31,"Duration":381922,"SoundDuration":381922,"Delta":75825932},{"NoteNumber":55,"Velocity":37,"Duration":381922,"SoundDuration":381922,"Delta":75825932},{"NoteNumber":69,"Velocity":48,"Duration":381922,"SoundDuration":381922,"Delta":76207854},{"NoteNumber":66,"Velocity":40,"Duration":381922,"SoundDuration":381922,"Delta":76207854},{"NoteNumber":60,"Velocity":40,"Duration":381922,"SoundDuration":381922,"Delta":76207854},{"NoteNumber":63,"Velocity":40,"Duration":381922,"SoundDuration":381922,"Delta":76207854},{"NoteNumber":48,"Velocity":38,"Duration":334181,"SoundDuration":334181,"Delta":76207854},{"NoteNumber":57,"Velocity":45,"Duration":334181,"SoundDuration":334181,"Delta":76207854},{"NoteNumber":43,"Velocity":42,"Duration":47740,"SoundDuration":47740,"Delta":76542036},{"NoteNumber":70,"Velocity":57,"Duration":180071,"SoundDuration":180071,"Delta":76589776},{"NoteNumber":62,"Velocity":48,"Duration":180071,"SoundDuration":180071,"Delta":76589776},{"NoteNumber":58,"Velocity":47,"Duration":180071,"SoundDuration":180071,"Delta":76589776},{"NoteNumber":72,"Velocity":47,"Duration":152284,"SoundDuration":152284,"Delta":76769848},{"NoteNumber":60,"Velocity":36,"Duration":152284,"SoundDuration":152284,"Delta":76769848},{"NoteNumber":69,"Velocity":51,"Duration":155844,"SoundDuration":155844,"Delta":76922133},{"NoteNumber":57,"Velocity":42,"Duration":155844,"SoundDuration":155844,"Delta":76922133},{"NoteNumber":70,"Velocity":47,"Duration":169491,"SoundDuration":169491,"Delta":77077977},{"NoteNumber":58,"Velocity":38,"Duration":169491,"SoundDuration":169491,"Delta":77077977},{"NoteNumber":67,"Velocity":58,"Duration":148075,"SoundDuration":148075,"Delta":77247468},{"NoteNumber":55,"Velocity":52,"Duration":148075,"SoundDuration":148075,"Delta":77247468},{"NoteNumber":74,"Velocity":54,"Duration":183486,"SoundDuration":183486,"Delta":77395543},{"NoteNumber":62,"Velocity":46,"Duration":183486,"SoundDuration":183486,"Delta":77395543},{"NoteNumber":74,"Velocity":62,"Duration":352836,"SoundDuration":352836,"Delta":77579029},{"NoteNumber":62,"Velocity":54,"Duration":352836,"SoundDuration":352836,"Delta":77579029},{"NoteNumber":63,"Velocity":40,"Duration":331400,"SoundDuration":331400,"Delta":77931866},{"NoteNumber":67,"Velocity":47,"Duration":331400,"SoundDuration":331400,"Delta":77931866},{"NoteNumber":60,"Velocity":40,"Duration":331400,"SoundDuration":331400,"Delta":77931866},{"NoteNumber":48,"Velocity":32,"Duration":331400,"SoundDuration":331400,"Delta":77931866},{"NoteNumber":55,"Velocity":38,"Duration":331400,"SoundDuration":331400,"Delta":77931866},{"NoteNumber":69,"Velocity":50,"Duration":331400,"SoundDuration":331400,"Delta":78263266},{"NoteNumber":63,"Velocity":42,"Duration":331400,"SoundDuration":331400,"Delta":78263266},{"NoteNumber":60,"Velocity":42,"Duration":331400,"SoundDuration":331400,"Delta":78263266},{"NoteNumber":66,"Velocity":42,"Duration":331400,"SoundDuration":331400,"Delta":78263266},{"NoteNumber":48,"Velocity":39,"Duration":289974,"SoundDuration":289974,"Delta":78263266},{"NoteNumber":57,"Velocity":47,"Duration":289974,"SoundDuration":289974,"Delta":78263266},{"NoteNumber":43,"Velocity":44,"Duration":41425,"SoundDuration":41425,"Delta":78553241},{"NoteNumber":62,"Velocity":50,"Duration":173862,"SoundDuration":173862,"Delta":78594666},{"NoteNumber":70,"Velocity":59,"Duration":173862,"SoundDuration":173862,"Delta":78594666},{"NoteNumber":58,"Velocity":49,"Duration":173862,"SoundDuration":173862,"Delta":78594666},{"NoteNumber":72,"Velocity":49,"Duration":151515,"SoundDuration":151515,"Delta":78768529},{"NoteNumber":60,"Velocity":37,"Duration":151515,"SoundDuration":151515,"Delta":78768529},{"NoteNumber":69,"Velocity":53,"Duration":151515,"SoundDuration":151515,"Delta":78920044},{"NoteNumber":57,"Velocity":44,"Duration":151515,"SoundDuration":151515,"Delta":78920044},{"NoteNumber":70,"Velocity":49,"Duration":163487,"SoundDuration":163487,"Delta":79071559},{"NoteNumber":58,"Velocity":39,"Duration":163487,"SoundDuration":163487,"Delta":79071559},{"NoteNumber":67,"Velocity":63,"Duration":144195,"SoundDuration":144195,"Delta":79235046},{"NoteNumber":55,"Velocity":55,"Duration":144195,"SoundDuration":144195,"Delta":79235046},{"NoteNumber":75,"Velocity":56,"Duration":188087,"SoundDuration":188087,"Delta":79379242},{"NoteNumber":63,"Velocity":47,"Duration":188087,"SoundDuration":188087,"Delta":79379242},{"NoteNumber":75,"Velocity":63,"Duration":353877,"SoundDuration":353877,"Delta":79567330},{"NoteNumber":63,"Velocity":56,"Duration":353877,"SoundDuration":353877,"Delta":79567330},{"NoteNumber":63,"Velocity":47,"Duration":164319,"SoundDuration":164319,"Delta":79921208},{"NoteNumber":67,"Velocity":56,"Duration":164319,"SoundDuration":164319,"Delta":79921208},{"NoteNumber":60,"Velocity":47,"Duration":164319,"SoundDuration":164319,"Delta":79921208},{"NoteNumber":48,"Velocity":34,"Duration":164319,"SoundDuration":164319,"Delta":79921208},{"NoteNumber":55,"Velocity":40,"Duration":164319,"SoundDuration":164319,"Delta":79921208},{"NoteNumber":60,"Velocity":49,"Duration":331400,"SoundDuration":331400,"Delta":80252608},{"NoteNumber":63,"Velocity":49,"Duration":331400,"SoundDuration":331400,"Delta":80252608},{"NoteNumber":69,"Velocity":59,"Duration":505262,"SoundDuration":505262,"Delta":80252608},{"NoteNumber":41,"Velocity":41,"Duration":331400,"SoundDuration":331400,"Delta":80252608},{"NoteNumber":53,"Velocity":49,"Duration":505262,"SoundDuration":505262,"Delta":80252608},{"NoteNumber":62,"Velocity":52,"Duration":173862,"SoundDuration":173862,"Delta":80584008},{"NoteNumber":46,"Velocity":51,"Duration":173862,"SoundDuration":173862,"Delta":80584008},{"NoteNumber":70,"Velocity":51,"Duration":153413,"SoundDuration":153413,"Delta":80757871},{"NoteNumber":58,"Velocity":39,"Duration":153413,"SoundDuration":153413,"Delta":80757871},{"NoteNumber":67,"Velocity":56,"Duration":153413,"SoundDuration":153413,"Delta":80911284},{"NoteNumber":55,"Velocity":46,"Duration":153413,"SoundDuration":153413,"Delta":80911284},{"NoteNumber":69,"Velocity":51,"Duration":163934,"SoundDuration":163934,"Delta":81064698},{"NoteNumber":57,"Velocity":41,"Duration":163934,"SoundDuration":163934,"Delta":81064698},{"NoteNumber":65,"Velocity":63,"Duration":148846,"SoundDuration":148846,"Delta":81228632},{"NoteNumber":53,"Velocity":55,"Duration":148846,"SoundDuration":148846,"Delta":81228632},{"NoteNumber":74,"Velocity":56,"Duration":180723,"SoundDuration":180723,"Delta":81377479},{"NoteNumber":62,"Velocity":48,"Duration":180723,"SoundDuration":180723,"Delta":81377479},{"NoteNumber":74,"Velocity":67,"Duration":353877,"SoundDuration":353877,"Delta":81558202},{"NoteNumber":62,"Velocity":58,"Duration":353877,"SoundDuration":353877,"Delta":81558202},{"NoteNumber":58,"Velocity":47,"Duration":164319,"SoundDuration":164319,"Delta":81912080},{"NoteNumber":62,"Velocity":47,"Duration":164319,"SoundDuration":164319,"Delta":81912080},{"NoteNumber":65,"Velocity":56,"Duration":164319,"SoundDuration":164319,"Delta":81912080},{"NoteNumber":46,"Velocity":34,"Duration":164319,"SoundDuration":164319,"Delta":81912080},{"NoteNumber":53,"Velocity":40,"Duration":164319,"SoundDuration":164319,"Delta":81912080},{"NoteNumber":62,"Velocity":49,"Duration":331400,"SoundDuration":331400,"Delta":82243480},{"NoteNumber":67,"Velocity":59,"Duration":505262,"SoundDuration":505262,"Delta":82243480},{"NoteNumber":58,"Velocity":49,"Duration":331400,"SoundDuration":331400,"Delta":82243480},{"NoteNumber":39,"Velocity":41,"Duration":331400,"SoundDuration":331400,"Delta":82243480},{"NoteNumber":51,"Velocity":49,"Duration":505262,"SoundDuration":505262,"Delta":82243480},{"NoteNumber":60,"Velocity":52,"Duration":173862,"SoundDuration":173862,"Delta":82574880},{"NoteNumber":45,"Velocity":51,"Duration":173862,"SoundDuration":173862,"Delta":82574880},{"NoteNumber":69,"Velocity":51,"Duration":149216,"SoundDuration":149216,"Delta":82748742},{"NoteNumber":57,"Velocity":39,"Duration":149216,"SoundDuration":149216,"Delta":82748742},{"NoteNumber":65,"Velocity":56,"Duration":149216,"SoundDuration":149216,"Delta":82897959},{"NoteNumber":53,"Velocity":46,"Duration":149216,"SoundDuration":149216,"Delta":82897959},{"NoteNumber":67,"Velocity":51,"Duration":161290,"SoundDuration":161290,"Delta":83047175},{"NoteNumber":55,"Velocity":41,"Duration":161290,"SoundDuration":161290,"Delta":83047175},{"NoteNumber":63,"Velocity":63,"Duration":152245,"SoundDuration":152245,"Delta":83208466},{"NoteNumber":51,"Velocity":55,"Duration":152245,"SoundDuration":152245,"Delta":83208466},{"NoteNumber":72,"Velocity":56,"Duration":180723,"SoundDuration":180723,"Delta":83360711},{"NoteNumber":60,"Velocity":48,"Duration":180723,"SoundDuration":180723,"Delta":83360711},{"NoteNumber":72,"Velocity":67,"Duration":353877,"SoundDuration":353877,"Delta":83541434},{"NoteNumber":60,"Velocity":58,"Duration":353877,"SoundDuration":353877,"Delta":83541434},{"NoteNumber":60,"Velocity":47,"Duration":164319,"SoundDuration":164319,"Delta":83895312},{"NoteNumber":55,"Velocity":47,"Duration":164319,"SoundDuration":164319,"Delta":83895312},{"NoteNumber":63,"Velocity":56,"Duration":164319,"SoundDuration":164319,"Delta":83895312},{"NoteNumber":36,"Velocity":34,"Duration":164319,"SoundDuration":164319,"Delta":83895312},{"NoteNumber":48,"Velocity":40,"Duration":164319,"SoundDuration":164319,"Delta":83895312},{"NoteNumber":57,"Velocity":49,"Duration":331400,"SoundDuration":331400,"Delta":84226712},{"NoteNumber":54,"Velocity":49,"Duration":331400,"SoundDuration":331400,"Delta":84226712},{"NoteNumber":62,"Velocity":58,"Duration":505262,"SoundDuration":505262,"Delta":84226712},{"NoteNumber":38,"Velocity":41,"Duration":331400,"SoundDuration":331400,"Delta":84226712},{"NoteNumber":50,"Velocity":49,"Duration":505262,"SoundDuration":505262,"Delta":84226712},{"NoteNumber":55,"Velocity":52,"Duration":173862,"SoundDuration":173862,"Delta":84558112},{"NoteNumber":43,"Velocity":51,"Duration":173862,"SoundDuration":173862,"Delta":84558112},{"NoteNumber":63,"Velocity":50,"Duration":151860,"SoundDuration":151860,"Delta":84731975},{"NoteNumber":51,"Velocity":38,"Duration":151860,"SoundDuration":151860,"Delta":84731975},{"NoteNumber":60,"Velocity":55,"Duration":151860,"SoundDuration":151860,"Delta":84883835},{"NoteNumber":48,"Velocity":45,"Duration":151860,"SoundDuration":151860,"Delta":84883835},{"NoteNumber":62,"Velocity":50,"Duration":162601,"SoundDuration":162601,"Delta":85035696},{"NoteNumber":50,"Velocity":40,"Duration":162601,"SoundDuration":162601,"Delta":85035696},{"NoteNumber":58,"Velocity":64,"Duration":154998,"SoundDuration":154998,"Delta":85198297},{"NoteNumber":46,"Velocity":56,"Duration":154998,"SoundDuration":154998,"Delta":85198297},{"NoteNumber":67,"Velocity":56,"Duration":189873,"SoundDuration":189873,"Delta":85353296},{"NoteNumber":55,"Velocity":49,"Duration":189873,"SoundDuration":189873,"Delta":85353296},{"NoteNumber":67,"Velocity":64,"Duration":353877,"SoundDuration":353877,"Delta":85543169},{"NoteNumber":55,"Velocity":59,"Duration":353877,"SoundDuration":353877,"Delta":85543169},{"NoteNumber":60,"Velocity":51,"Duration":248549,"SoundDuration":248549,"Delta":85897047},{"NoteNumber":55,"Velocity":51,"Duration":248549,"SoundDuration":248549,"Delta":85897047},{"NoteNumber":63,"Velocity":61,"Duration":248549,"SoundDuration":248549,"Delta":85897047},{"NoteNumber":36,"Velocity":37,"Duration":248549,"SoundDuration":248549,"Delta":85897047},{"NoteNumber":48,"Velocity":44,"Duration":248549,"SoundDuration":248549,"Delta":85897047},{"NoteNumber":54,"Velocity":54,"Duration":331400,"SoundDuration":331400,"Delta":86228447},{"NoteNumber":62,"Velocity":64,"Duration":505262,"SoundDuration":505262,"Delta":86228447},{"NoteNumber":57,"Velocity":54,"Duration":331400,"SoundDuration":331400,"Delta":86228447},{"NoteNumber":38,"Velocity":45,"Duration":331400,"SoundDuration":331400,"Delta":86228447},{"NoteNumber":50,"Velocity":54,"Duration":505262,"SoundDuration":505262,"Delta":86228447},{"NoteNumber":55,"Velocity":57,"Duration":173862,"SoundDuration":173862,"Delta":86559847},{"NoteNumber":43,"Velocity":56,"Duration":173862,"SoundDuration":173862,"Delta":86559847},{"NoteNumber":62,"Velocity":56,"Duration":155400,"SoundDuration":155400,"Delta":86733710},{"NoteNumber":50,"Velocity":49,"Duration":155400,"SoundDuration":155400,"Delta":86733710},{"NoteNumber":64,"Velocity":59,"Duration":155400,"SoundDuration":155400,"Delta":86889110},{"NoteNumber":52,"Velocity":55,"Duration":155400,"SoundDuration":155400,"Delta":86889110},{"NoteNumber":66,"Velocity":63,"Duration":159150,"SoundDuration":159150,"Delta":87044510},{"NoteNumber":54,"Velocity":59,"Duration":159150,"SoundDuration":159150,"Delta":87044510},{"NoteNumber":67,"Velocity":66,"Duration":151095,"SoundDuration":151095,"Delta":87203661},{"NoteNumber":55,"Velocity":62,"Duration":151095,"SoundDuration":151095,"Delta":87203661},{"NoteNumber":69,"Velocity":69,"Duration":171379,"SoundDuration":171379,"Delta":87354756},{"NoteNumber":57,"Velocity":66,"Duration":171379,"SoundDuration":171379,"Delta":87354756},{"NoteNumber":70,"Velocity":75,"Duration":353877,"SoundDuration":353877,"Delta":87526136},{"NoteNumber":58,"Velocity":69,"Duration":353877,"SoundDuration":353877,"Delta":87526136},{"NoteNumber":70,"Velocity":67,"Duration":331400,"SoundDuration":331400,"Delta":87880014},{"NoteNumber":67,"Velocity":67,"Duration":331400,"SoundDuration":331400,"Delta":87880014},{"NoteNumber":74,"Velocity":80,"Duration":331400,"SoundDuration":331400,"Delta":87880014},{"NoteNumber":55,"Velocity":48,"Duration":331400,"SoundDuration":331400,"Delta":87880014},{"NoteNumber":58,"Velocity":48,"Duration":331400,"SoundDuration":331400,"Delta":87880014},{"NoteNumber":62,"Velocity":57,"Duration":331400,"SoundDuration":331400,"Delta":87880014},{"NoteNumber":70,"Velocity":70,"Duration":331400,"SoundDuration":331400,"Delta":88211414},{"NoteNumber":67,"Velocity":70,"Duration":331400,"SoundDuration":331400,"Delta":88211414},{"NoteNumber":76,"Velocity":83,"Duration":331400,"SoundDuration":331400,"Delta":88211414},{"NoteNumber":73,"Velocity":70,"Duration":331400,"SoundDuration":331400,"Delta":88211414},{"NoteNumber":55,"Velocity":59,"Duration":289974,"SoundDuration":289974,"Delta":88211414},{"NoteNumber":58,"Velocity":59,"Duration":289974,"SoundDuration":289974,"Delta":88211414},{"NoteNumber":61,"Velocity":59,"Duration":289974,"SoundDuration":289974,"Delta":88211414},{"NoteNumber":64,"Velocity":70,"Duration":289974,"SoundDuration":289974,"Delta":88211414},{"NoteNumber":50,"Velocity":60,"Duration":215287,"SoundDuration":215287,"Delta":88501389},{"NoteNumber":57,"Velocity":60,"Duration":194575,"SoundDuration":194575,"Delta":88522101},{"NoteNumber":77,"Velocity":74,"Duration":173862,"SoundDuration":173862,"Delta":88542814},{"NoteNumber":69,"Velocity":62,"Duration":173862,"SoundDuration":173862,"Delta":88542814},{"NoteNumber":74,"Velocity":62,"Duration":173862,"SoundDuration":173862,"Delta":88542814},{"NoteNumber":65,"Velocity":73,"Duration":173862,"SoundDuration":173862,"Delta":88542814},{"NoteNumber":79,"Velocity":73,"Duration":151860,"SoundDuration":151860,"Delta":88716676},{"NoteNumber":67,"Velocity":56,"Duration":151860,"SoundDuration":151860,"Delta":88716676},{"NoteNumber":76,"Velocity":80,"Duration":151860,"SoundDuration":151860,"Delta":88868537},{"NoteNumber":64,"Velocity":66,"Duration":151860,"SoundDuration":151860,"Delta":88868537},{"NoteNumber":77,"Velocity":73,"Duration":165745,"SoundDuration":165745,"Delta":89020397},{"NoteNumber":65,"Velocity":59,"Duration":165745,"SoundDuration":165745,"Delta":89020397},{"NoteNumber":74,"Velocity":88,"Duration":153806,"SoundDuration":153806,"Delta":89186143},{"NoteNumber":62,"Velocity":78,"Duration":153806,"SoundDuration":153806,"Delta":89186143},{"NoteNumber":82,"Velocity":80,"Duration":181818,"SoundDuration":181818,"Delta":89339950},{"NoteNumber":70,"Velocity":68,"Duration":181818,"SoundDuration":181818,"Delta":89339950},{"NoteNumber":82,"Velocity":88,"Duration":353877,"SoundDuration":353877,"Delta":89521768},{"NoteNumber":70,"Velocity":80,"Duration":353877,"SoundDuration":353877,"Delta":89521768},{"NoteNumber":70,"Velocity":67,"Duration":331400,"SoundDuration":331400,"Delta":89875646},{"NoteNumber":67,"Velocity":67,"Duration":331400,"SoundDuration":331400,"Delta":89875646},{"NoteNumber":74,"Velocity":80,"Duration":331400,"SoundDuration":331400,"Delta":89875646},{"NoteNumber":55,"Velocity":48,"Duration":331400,"SoundDuration":331400,"Delta":89875646},{"NoteNumber":58,"Velocity":48,"Duration":331400,"SoundDuration":331400,"Delta":89875646},{"NoteNumber":62,"Velocity":57,"Duration":331400,"SoundDuration":331400,"Delta":89875646},{"NoteNumber":70,"Velocity":70,"Duration":331400,"SoundDuration":331400,"Delta":90207046},{"NoteNumber":67,"Velocity":70,"Duration":331400,"SoundDuration":331400,"Delta":90207046},{"NoteNumber":76,"Velocity":83,"Duration":331400,"SoundDuration":331400,"Delta":90207046},{"NoteNumber":73,"Velocity":70,"Duration":331400,"SoundDuration":331400,"Delta":90207046},{"NoteNumber":55,"Velocity":59,"Duration":289974,"SoundDuration":289974,"Delta":90207046},{"NoteNumber":58,"Velocity":59,"Duration":289974,"SoundDuration":289974,"Delta":90207046},{"NoteNumber":61,"Velocity":59,"Duration":289974,"SoundDuration":289974,"Delta":90207046},{"NoteNumber":64,"Velocity":70,"Duration":289974,"SoundDuration":289974,"Delta":90207046},{"NoteNumber":50,"Velocity":60,"Duration":215287,"SoundDuration":215287,"Delta":90497021},{"NoteNumber":57,"Velocity":60,"Duration":194575,"SoundDuration":194575,"Delta":90517733},{"NoteNumber":77,"Velocity":74,"Duration":173862,"SoundDuration":173862,"Delta":90538446},{"NoteNumber":69,"Velocity":62,"Duration":173862,"SoundDuration":173862,"Delta":90538446},{"NoteNumber":74,"Velocity":62,"Duration":173862,"SoundDuration":173862,"Delta":90538446},{"NoteNumber":65,"Velocity":73,"Duration":173862,"SoundDuration":173862,"Delta":90538446},{"NoteNumber":79,"Velocity":73,"Duration":153022,"SoundDuration":153022,"Delta":90712308},{"NoteNumber":67,"Velocity":56,"Duration":153022,"SoundDuration":153022,"Delta":90712308},{"NoteNumber":76,"Velocity":80,"Duration":153021,"SoundDuration":153021,"Delta":90865330},{"NoteNumber":64,"Velocity":66,"Duration":153021,"SoundDuration":153021,"Delta":90865330},{"NoteNumber":77,"Velocity":73,"Duration":166205,"SoundDuration":166205,"Delta":91018352},{"NoteNumber":65,"Velocity":59,"Duration":166205,"SoundDuration":166205,"Delta":91018352},{"NoteNumber":74,"Velocity":87,"Duration":154599,"SoundDuration":154599,"Delta":91184557},{"NoteNumber":62,"Velocity":77,"Duration":154599,"SoundDuration":154599,"Delta":91184557},{"NoteNumber":82,"Velocity":80,"Duration":180723,"SoundDuration":180723,"Delta":91339157},{"NoteNumber":70,"Velocity":68,"Duration":180723,"SoundDuration":180723,"Delta":91339157},{"NoteNumber":82,"Velocity":89,"Duration":353877,"SoundDuration":353877,"Delta":91519880},{"NoteNumber":70,"Velocity":80,"Duration":353877,"SoundDuration":353877,"Delta":91519880},{"NoteNumber":74,"Velocity":62,"Duration":248549,"SoundDuration":248549,"Delta":91873758},{"NoteNumber":65,"Velocity":51,"Duration":248549,"SoundDuration":248549,"Delta":91873758},{"NoteNumber":70,"Velocity":51,"Duration":248549,"SoundDuration":248549,"Delta":91873758},{"NoteNumber":50,"Velocity":37,"Duration":248549,"SoundDuration":248549,"Delta":91873758},{"NoteNumber":58,"Velocity":37,"Duration":248549,"SoundDuration":248549,"Delta":91873758},{"NoteNumber":62,"Velocity":44,"Duration":248549,"SoundDuration":248549,"Delta":91873758},{"NoteNumber":70,"Velocity":54,"Duration":248549,"SoundDuration":248549,"Delta":92205158},{"NoteNumber":66,"Velocity":54,"Duration":248549,"SoundDuration":248549,"Delta":92205158},{"NoteNumber":74,"Velocity":64,"Duration":248549,"SoundDuration":248549,"Delta":92205158},{"NoteNumber":50,"Velocity":45,"Duration":248549,"SoundDuration":248549,"Delta":92205158},{"NoteNumber":58,"Velocity":45,"Duration":248549,"SoundDuration":248549,"Delta":92205158},{"NoteNumber":62,"Velocity":54,"Duration":248549,"SoundDuration":248549,"Delta":92205158},{"NoteNumber":67,"Velocity":52,"Duration":173862,"SoundDuration":173862,"Delta":92536558},{"NoteNumber":72,"Velocity":62,"Duration":173862,"SoundDuration":173862,"Delta":92536558},{"NoteNumber":70,"Velocity":52,"Duration":173862,"SoundDuration":173862,"Delta":92536558},{"NoteNumber":51,"Velocity":49,"Duration":173862,"SoundDuration":173862,"Delta":92536558},{"NoteNumber":58,"Velocity":49,"Duration":173862,"SoundDuration":173862,"Delta":92536558},{"NoteNumber":60,"Velocity":58,"Duration":173862,"SoundDuration":173862,"Delta":92536558},{"NoteNumber":79,"Velocity":65,"Duration":305391,"SoundDuration":305391,"Delta":92710420},{"NoteNumber":67,"Velocity":62,"Duration":305391,"SoundDuration":305391,"Delta":92710420},{"NoteNumber":75,"Velocity":56,"Duration":149588,"SoundDuration":149588,"Delta":93015812},{"NoteNumber":63,"Velocity":45,"Duration":149588,"SoundDuration":149588,"Delta":93015812},{"NoteNumber":72,"Velocity":66,"Duration":144195,"SoundDuration":144195,"Delta":93165401},{"NoteNumber":60,"Velocity":55,"Duration":144195,"SoundDuration":144195,"Delta":93165401},{"NoteNumber":70,"Velocity":54,"Duration":171379,"SoundDuration":171379,"Delta":93309597},{"NoteNumber":58,"Velocity":45,"Duration":171379,"SoundDuration":171379,"Delta":93309597},{"NoteNumber":69,"Velocity":61,"Duration":176939,"SoundDuration":176939,"Delta":93480976},{"NoteNumber":53,"Velocity":42,"Duration":176939,"SoundDuration":176939,"Delta":93480976},{"NoteNumber":57,"Velocity":50,"Duration":176939,"SoundDuration":176939,"Delta":93480976},{"NoteNumber":75,"Velocity":68,"Duration":334639,"SoundDuration":334639,"Delta":93657915},{"NoteNumber":63,"Velocity":47,"Duration":334639,"SoundDuration":334639,"Delta":93657915},{"NoteNumber":72,"Velocity":47,"Duration":179640,"SoundDuration":179640,"Delta":93992554},{"NoteNumber":60,"Velocity":41,"Duration":179640,"SoundDuration":179640,"Delta":93992554},{"NoteNumber":69,"Velocity":57,"Duration":172910,"SoundDuration":172910,"Delta":94172195},{"NoteNumber":57,"Velocity":45,"Duration":172910,"SoundDuration":172910,"Delta":94172195},{"NoteNumber":67,"Velocity":45,"Duration":206185,"SoundDuration":206185,"Delta":94345105},{"NoteNumber":55,"Velocity":41,"Duration":206185,"SoundDuration":206185,"Delta":94345105},{"NoteNumber":69,"Velocity":52,"Duration":94637,"SoundDuration":94637,"Delta":94551291},{"NoteNumber":54,"Velocity":35,"Duration":94637,"SoundDuration":94637,"Delta":94551291},{"NoteNumber":57,"Velocity":40,"Duration":94637,"SoundDuration":94637,"Delta":94551291},{"NoteNumber":74,"Velocity":43,"Duration":230322,"SoundDuration":230322,"Delta":94645928},{"NoteNumber":62,"Velocity":39,"Duration":230322,"SoundDuration":230322,"Delta":94645928},{"NoteNumber":67,"Velocity":45,"Duration":355029,"SoundDuration":355029,"Delta":95011936},{"NoteNumber":60,"Velocity":38,"Duration":355029,"SoundDuration":355029,"Delta":95011936},{"NoteNumber":63,"Velocity":38,"Duration":355029,"SoundDuration":355029,"Delta":95011936},{"NoteNumber":48,"Velocity":31,"Duration":355029,"SoundDuration":355029,"Delta":95011936},{"NoteNumber":55,"Velocity":37,"Duration":355029,"SoundDuration":355029,"Delta":95011936},{"NoteNumber":63,"Velocity":40,"Duration":355029,"SoundDuration":355029,"Delta":95366966},{"NoteNumber":66,"Velocity":40,"Duration":355029,"SoundDuration":355029,"Delta":95366966},{"NoteNumber":60,"Velocity":40,"Duration":355029,"SoundDuration":355029,"Delta":95366966},{"NoteNumber":69,"Velocity":48,"Duration":355029,"SoundDuration":355029,"Delta":95366966},{"NoteNumber":48,"Velocity":38,"Duration":310651,"SoundDuration":310651,"Delta":95366966},{"NoteNumber":57,"Velocity":45,"Duration":310651,"SoundDuration":310651,"Delta":95366966},{"NoteNumber":43,"Velocity":42,"Duration":44378,"SoundDuration":44378,"Delta":95677617},{"NoteNumber":62,"Velocity":48,"Duration":173862,"SoundDuration":173862,"Delta":95721996},{"NoteNumber":70,"Velocity":57,"Duration":173862,"SoundDuration":173862,"Delta":95721996},{"NoteNumber":58,"Velocity":47,"Duration":173862,"SoundDuration":173862,"Delta":95721996},{"NoteNumber":72,"Velocity":47,"Duration":154639,"SoundDuration":154639,"Delta":95895858},{"NoteNumber":60,"Velocity":36,"Duration":154639,"SoundDuration":154639,"Delta":95895858},{"NoteNumber":69,"Velocity":51,"Duration":154241,"SoundDuration":154241,"Delta":96050497},{"NoteNumber":57,"Velocity":42,"Duration":154241,"SoundDuration":154241,"Delta":96050497},{"NoteNumber":70,"Velocity":47,"Duration":165289,"SoundDuration":165289,"Delta":96204739},{"NoteNumber":58,"Velocity":38,"Duration":165289,"SoundDuration":165289,"Delta":96204739},{"NoteNumber":67,"Velocity":61,"Duration":144195,"SoundDuration":144195,"Delta":96370028},{"NoteNumber":55,"Velocity":53,"Duration":144195,"SoundDuration":144195,"Delta":96370028},{"NoteNumber":74,"Velocity":54,"Duration":184049,"SoundDuration":184049,"Delta":96514224},{"NoteNumber":62,"Velocity":50,"Duration":184049,"SoundDuration":184049,"Delta":96514224},{"NoteNumber":74,"Velocity":66,"Duration":352836,"SoundDuration":352836,"Delta":96698273},{"NoteNumber":62,"Velocity":55,"Duration":352836,"SoundDuration":352836,"Delta":96698273},{"NoteNumber":60,"Velocity":40,"Duration":164319,"SoundDuration":164319,"Delta":97051110},{"NoteNumber":63,"Velocity":40,"Duration":164319,"SoundDuration":164319,"Delta":97051110},{"NoteNumber":67,"Velocity":47,"Duration":164319,"SoundDuration":164319,"Delta":97051110},{"NoteNumber":48,"Velocity":32,"Duration":164319,"SoundDuration":164319,"Delta":97051110},{"NoteNumber":55,"Velocity":38,"Duration":164319,"SoundDuration":164319,"Delta":97051110},{"NoteNumber":63,"Velocity":42,"Duration":331400,"SoundDuration":331400,"Delta":97382510},{"NoteNumber":66,"Velocity":42,"Duration":331400,"SoundDuration":331400,"Delta":97382510},{"NoteNumber":60,"Velocity":42,"Duration":331400,"SoundDuration":331400,"Delta":97382510},{"NoteNumber":69,"Velocity":50,"Duration":331400,"SoundDuration":331400,"Delta":97382510},{"NoteNumber":48,"Velocity":39,"Duration":289974,"SoundDuration":289974,"Delta":97382510},{"NoteNumber":57,"Velocity":47,"Duration":289974,"SoundDuration":289974,"Delta":97382510},{"NoteNumber":43,"Velocity":44,"Duration":41425,"SoundDuration":41425,"Delta":97672485},{"NoteNumber":70,"Velocity":59,"Duration":173862,"SoundDuration":173862,"Delta":97713910},{"NoteNumber":62,"Velocity":50,"Duration":173862,"SoundDuration":173862,"Delta":97713910},{"NoteNumber":58,"Velocity":49,"Duration":173862,"SoundDuration":173862,"Delta":97713910},{"NoteNumber":72,"Velocity":49,"Duration":151515,"SoundDuration":151515,"Delta":97887773},{"NoteNumber":60,"Velocity":37,"Duration":151515,"SoundDuration":151515,"Delta":97887773},{"NoteNumber":69,"Velocity":53,"Duration":151515,"SoundDuration":151515,"Delta":98039288},{"NoteNumber":57,"Velocity":44,"Duration":151515,"SoundDuration":151515,"Delta":98039288},{"NoteNumber":70,"Velocity":49,"Duration":163487,"SoundDuration":163487,"Delta":98190803},{"NoteNumber":58,"Velocity":39,"Duration":163487,"SoundDuration":163487,"Delta":98190803},{"NoteNumber":67,"Velocity":65,"Duration":144195,"SoundDuration":144195,"Delta":98354290},{"NoteNumber":55,"Velocity":56,"Duration":144195,"SoundDuration":144195,"Delta":98354290},{"NoteNumber":75,"Velocity":58,"Duration":196078,"SoundDuration":196078,"Delta":98498486},{"NoteNumber":63,"Velocity":48,"Duration":196078,"SoundDuration":196078,"Delta":98498486},{"NoteNumber":75,"Velocity":68,"Duration":353877,"SoundDuration":353877,"Delta":98694565},{"NoteNumber":63,"Velocity":62,"Duration":353877,"SoundDuration":353877,"Delta":98694565},{"NoteNumber":63,"Velocity":47,"Duration":164319,"SoundDuration":164319,"Delta":99048443},{"NoteNumber":60,"Velocity":47,"Duration":164319,"SoundDuration":164319,"Delta":99048443},{"NoteNumber":67,"Velocity":56,"Duration":164319,"SoundDuration":164319,"Delta":99048443},{"NoteNumber":48,"Velocity":34,"Duration":164319,"SoundDuration":164319,"Delta":99048443},{"NoteNumber":55,"Velocity":40,"Duration":164319,"SoundDuration":164319,"Delta":99048443},{"NoteNumber":60,"Velocity":49,"Duration":331400,"SoundDuration":331400,"Delta":99379843},{"NoteNumber":69,"Velocity":59,"Duration":505262,"SoundDuration":505262,"Delta":99379843},{"NoteNumber":63,"Velocity":49,"Duration":331400,"SoundDuration":331400,"Delta":99379843},{"NoteNumber":41,"Velocity":41,"Duration":331400,"SoundDuration":331400,"Delta":99379843},{"NoteNumber":53,"Velocity":49,"Duration":505262,"SoundDuration":505262,"Delta":99379843},{"NoteNumber":62,"Velocity":52,"Duration":173862,"SoundDuration":173862,"Delta":99711243},{"NoteNumber":46,"Velocity":51,"Duration":173862,"SoundDuration":173862,"Delta":99711243},{"NoteNumber":70,"Velocity":51,"Duration":153413,"SoundDuration":153413,"Delta":99885105},{"NoteNumber":58,"Velocity":39,"Duration":153413,"SoundDuration":153413,"Delta":99885105},{"NoteNumber":67,"Velocity":56,"Duration":153413,"SoundDuration":153413,"Delta":100038519},{"NoteNumber":55,"Velocity":46,"Duration":153413,"SoundDuration":153413,"Delta":100038519},{"NoteNumber":69,"Velocity":51,"Duration":158311,"SoundDuration":158311,"Delta":100191932},{"NoteNumber":57,"Velocity":41,"Duration":158311,"SoundDuration":158311,"Delta":100191932},{"NoteNumber":65,"Velocity":63,"Duration":148846,"SoundDuration":148846,"Delta":100350244},{"NoteNumber":53,"Velocity":55,"Duration":148846,"SoundDuration":148846,"Delta":100350244},{"NoteNumber":74,"Velocity":56,"Duration":181818,"SoundDuration":181818,"Delta":100499090},{"NoteNumber":62,"Velocity":48,"Duration":181818,"SoundDuration":181818,"Delta":100499090},{"NoteNumber":74,"Velocity":67,"Duration":353877,"SoundDuration":353877,"Delta":100680908},{"NoteNumber":62,"Velocity":58,"Duration":353877,"SoundDuration":353877,"Delta":100680908},{"NoteNumber":65,"Velocity":56,"Duration":164319,"SoundDuration":164319,"Delta":101034786},{"NoteNumber":58,"Velocity":47,"Duration":164319,"SoundDuration":164319,"Delta":101034786},{"NoteNumber":62,"Velocity":47,"Duration":164319,"SoundDuration":164319,"Delta":101034786},{"NoteNumber":46,"Velocity":34,"Duration":164319,"SoundDuration":164319,"Delta":101034786},{"NoteNumber":53,"Velocity":40,"Duration":164319,"SoundDuration":164319,"Delta":101034786},{"NoteNumber":62,"Velocity":49,"Duration":331400,"SoundDuration":331400,"Delta":101366186},{"NoteNumber":58,"Velocity":49,"Duration":331400,"SoundDuration":331400,"Delta":101366186},{"NoteNumber":67,"Velocity":59,"Duration":505262,"SoundDuration":505262,"Delta":101366186},{"NoteNumber":39,"Velocity":41,"Duration":331400,"SoundDuration":331400,"Delta":101366186},{"NoteNumber":51,"Velocity":49,"Duration":505262,"SoundDuration":505262,"Delta":101366186},{"NoteNumber":60,"Velocity":52,"Duration":173862,"SoundDuration":173862,"Delta":101697586},{"NoteNumber":45,"Velocity":51,"Duration":173862,"SoundDuration":173862,"Delta":101697586},{"NoteNumber":69,"Velocity":51,"Duration":149216,"SoundDuration":149216,"Delta":101871449},{"NoteNumber":57,"Velocity":39,"Duration":149216,"SoundDuration":149216,"Delta":101871449},{"NoteNumber":65,"Velocity":56,"Duration":149216,"SoundDuration":149216,"Delta":102020665},{"NoteNumber":53,"Velocity":46,"Duration":149216,"SoundDuration":149216,"Delta":102020665},{"NoteNumber":67,"Velocity":51,"Duration":157480,"SoundDuration":157480,"Delta":102169882},{"NoteNumber":55,"Velocity":41,"Duration":157480,"SoundDuration":157480,"Delta":102169882},{"NoteNumber":63,"Velocity":66,"Duration":152245,"SoundDuration":152245,"Delta":102327362},{"NoteNumber":51,"Velocity":55,"Duration":152245,"SoundDuration":152245,"Delta":102327362},{"NoteNumber":72,"Velocity":62,"Duration":181269,"SoundDuration":181269,"Delta":102479608},{"NoteNumber":60,"Velocity":48,"Duration":181269,"SoundDuration":181269,"Delta":102479608},{"NoteNumber":72,"Velocity":67,"Duration":353877,"SoundDuration":353877,"Delta":102660877},{"NoteNumber":60,"Velocity":58,"Duration":353877,"SoundDuration":353877,"Delta":102660877},{"NoteNumber":60,"Velocity":47,"Duration":164319,"SoundDuration":164319,"Delta":103014755},{"NoteNumber":55,"Velocity":47,"Duration":164319,"SoundDuration":164319,"Delta":103014755},{"NoteNumber":63,"Velocity":56,"Duration":164319,"SoundDuration":164319,"Delta":103014755},{"NoteNumber":36,"Velocity":34,"Duration":164319,"SoundDuration":164319,"Delta":103014755},{"NoteNumber":48,"Velocity":40,"Duration":164319,"SoundDuration":164319,"Delta":103014755},{"NoteNumber":54,"Velocity":49,"Duration":331400,"SoundDuration":331400,"Delta":103346155},{"NoteNumber":62,"Velocity":58,"Duration":505262,"SoundDuration":505262,"Delta":103346155},{"NoteNumber":57,"Velocity":49,"Duration":331400,"SoundDuration":331400,"Delta":103346155},{"NoteNumber":38,"Velocity":41,"Duration":331400,"SoundDuration":331400,"Delta":103346155},{"NoteNumber":50,"Velocity":49,"Duration":505262,"SoundDuration":505262,"Delta":103346155},{"NoteNumber":55,"Velocity":52,"Duration":173862,"SoundDuration":173862,"Delta":103677555},{"NoteNumber":43,"Velocity":51,"Duration":173862,"SoundDuration":173862,"Delta":103677555},{"NoteNumber":63,"Velocity":50,"Duration":151860,"SoundDuration":151860,"Delta":103851417},{"NoteNumber":51,"Velocity":38,"Duration":151860,"SoundDuration":151860,"Delta":103851417},{"NoteNumber":60,"Velocity":55,"Duration":151860,"SoundDuration":151860,"Delta":104003278},{"NoteNumber":48,"Velocity":45,"Duration":151860,"SoundDuration":151860,"Delta":104003278},{"NoteNumber":62,"Velocity":50,"Duration":164383,"SoundDuration":164383,"Delta":104155138},{"NoteNumber":50,"Velocity":40,"Duration":164383,"SoundDuration":164383,"Delta":104155138},{"NoteNumber":58,"Velocity":67,"Duration":154998,"SoundDuration":154998,"Delta":104319522},{"NoteNumber":46,"Velocity":57,"Duration":154998,"SoundDuration":154998,"Delta":104319522},{"NoteNumber":67,"Velocity":61,"Duration":183486,"SoundDuration":183486,"Delta":104474520},{"NoteNumber":55,"Velocity":52,"Duration":183486,"SoundDuration":183486,"Delta":104474520},{"NoteNumber":67,"Velocity":69,"Duration":353877,"SoundDuration":353877,"Delta":104658006},{"NoteNumber":55,"Velocity":61,"Duration":353877,"SoundDuration":353877,"Delta":104658006},{"NoteNumber":55,"Velocity":51,"Duration":164319,"SoundDuration":164319,"Delta":105011884},{"NoteNumber":60,"Velocity":51,"Duration":164319,"SoundDuration":164319,"Delta":105011884},{"NoteNumber":63,"Velocity":61,"Duration":164319,"SoundDuration":164319,"Delta":105011884},{"NoteNumber":36,"Velocity":37,"Duration":164319,"SoundDuration":164319,"Delta":105011884},{"NoteNumber":48,"Velocity":44,"Duration":164319,"SoundDuration":164319,"Delta":105011884},{"NoteNumber":57,"Velocity":48,"Duration":331400,"SoundDuration":331400,"Delta":105343284},{"NoteNumber":54,"Velocity":48,"Duration":331400,"SoundDuration":331400,"Delta":105343284},{"NoteNumber":62,"Velocity":57,"Duration":685277,"SoundDuration":685277,"Delta":105343284},{"NoteNumber":38,"Velocity":40,"Duration":331400,"SoundDuration":331400,"Delta":105343284},{"NoteNumber":50,"Velocity":48,"Duration":685277,"SoundDuration":685277,"Delta":105343284},{"NoteNumber":55,"Velocity":50,"Duration":353877,"SoundDuration":353877,"Delta":105674684},{"NoteNumber":43,"Velocity":42,"Duration":353877,"SoundDuration":353877,"Delta":105674684},{"NoteNumber":53,"Velocity":60,"Duration":177514,"SoundDuration":177514,"Delta":106028562},{"NoteNumber":58,"Velocity":60,"Duration":177514,"SoundDuration":177514,"Delta":106028562},{"NoteNumber":62,"Velocity":71,"Duration":177514,"SoundDuration":177514,"Delta":106028562},{"NoteNumber":34,"Velocity":47,"Duration":177514,"SoundDuration":177514,"Delta":106028562},{"NoteNumber":46,"Velocity":56,"Duration":177514,"SoundDuration":177514,"Delta":106028562},{"NoteNumber":53,"Velocity":63,"Duration":177514,"SoundDuration":177514,"Delta":106383592},{"NoteNumber":60,"Velocity":63,"Duration":177514,"SoundDuration":177514,"Delta":106383592},{"NoteNumber":65,"Velocity":75,"Duration":177514,"SoundDuration":177514,"Delta":106383592},{"NoteNumber":33,"Velocity":49,"Duration":177514,"SoundDuration":177514,"Delta":106383592},{"NoteNumber":45,"Velocity":58,"Duration":177514,"SoundDuration":177514,"Delta":106383592},{"NoteNumber":65,"Velocity":67,"Duration":86931,"SoundDuration":86931,"Delta":106738622},{"NoteNumber":62,"Velocity":67,"Duration":86931,"SoundDuration":86931,"Delta":106738622},{"NoteNumber":70,"Velocity":79,"Duration":86931,"SoundDuration":86931,"Delta":106738622},{"NoteNumber":32,"Velocity":56,"Duration":86931,"SoundDuration":86931,"Delta":106738622},{"NoteNumber":44,"Velocity":67,"Duration":86931,"SoundDuration":86931,"Delta":106738622},{"NoteNumber":70,"Velocity":64,"Duration":150716,"SoundDuration":150716,"Delta":106912485},{"NoteNumber":58,"Velocity":56,"Duration":150716,"SoundDuration":150716,"Delta":106912485},{"NoteNumber":65,"Velocity":72,"Duration":150716,"SoundDuration":150716,"Delta":107063201},{"NoteNumber":53,"Velocity":62,"Duration":150716,"SoundDuration":150716,"Delta":107063201},{"NoteNumber":67,"Velocity":67,"Duration":164834,"SoundDuration":164834,"Delta":107213917},{"NoteNumber":55,"Velocity":52,"Duration":164834,"SoundDuration":164834,"Delta":107213917},{"NoteNumber":58,"Velocity":76,"Duration":227199,"SoundDuration":227199,"Delta":107378752},{"NoteNumber":46,"Velocity":62,"Duration":227199,"SoundDuration":227199,"Delta":107378752},{"NoteNumber":70,"Velocity":66,"Duration":99634,"SoundDuration":99634,"Delta":107605951},{"NoteNumber":58,"Velocity":55,"Duration":99634,"SoundDuration":99634,"Delta":107605951},{"NoteNumber":70,"Velocity":78,"Duration":352836,"SoundDuration":352836,"Delta":107705586},{"NoteNumber":58,"Velocity":63,"Duration":352836,"SoundDuration":352836,"Delta":107705586},{"NoteNumber":62,"Velocity":69,"Duration":177514,"SoundDuration":177514,"Delta":108058423},{"NoteNumber":65,"Velocity":69,"Duration":177514,"SoundDuration":177514,"Delta":108058423},{"NoteNumber":70,"Velocity":81,"Duration":177514,"SoundDuration":177514,"Delta":108058423},{"NoteNumber":32,"Velocity":47,"Duration":177514,"SoundDuration":177514,"Delta":108058423},{"NoteNumber":44,"Velocity":56,"Duration":177514,"SoundDuration":177514,"Delta":108058423},{"NoteNumber":65,"Velocity":72,"Duration":177514,"SoundDuration":177514,"Delta":108413453},{"NoteNumber":70,"Velocity":72,"Duration":177514,"SoundDuration":177514,"Delta":108413453},{"NoteNumber":74,"Velocity":86,"Duration":177514,"SoundDuration":177514,"Delta":108413453},{"NoteNumber":31,"Velocity":49,"Duration":177514,"SoundDuration":177514,"Delta":108413453},{"NoteNumber":43,"Velocity":58,"Duration":177514,"SoundDuration":177514,"Delta":108413453},{"NoteNumber":74,"Velocity":77,"Duration":86931,"SoundDuration":86931,"Delta":108768483},{"NoteNumber":68,"Velocity":77,"Duration":86931,"SoundDuration":86931,"Delta":108768483},{"NoteNumber":77,"Velocity":90,"Duration":86931,"SoundDuration":86931,"Delta":108768483},{"NoteNumber":29,"Velocity":56,"Duration":86931,"SoundDuration":86931,"Delta":108768483},{"NoteNumber":41,"Velocity":67,"Duration":86931,"SoundDuration":86931,"Delta":108768483},{"NoteNumber":77,"Velocity":73,"Duration":150716,"SoundDuration":150716,"Delta":108942345},{"NoteNumber":65,"Velocity":64,"Duration":150716,"SoundDuration":150716,"Delta":108942345},{"NoteNumber":72,"Velocity":82,"Duration":150716,"SoundDuration":150716,"Delta":109093061},{"NoteNumber":60,"Velocity":71,"Duration":150716,"SoundDuration":150716,"Delta":109093061},{"NoteNumber":74,"Velocity":77,"Duration":164834,"SoundDuration":164834,"Delta":109243777},{"NoteNumber":62,"Velocity":59,"Duration":164834,"SoundDuration":164834,"Delta":109243777},{"NoteNumber":68,"Velocity":87,"Duration":227199,"SoundDuration":227199,"Delta":109408612},{"NoteNumber":56,"Velocity":71,"Duration":227199,"SoundDuration":227199,"Delta":109408612},{"NoteNumber":80,"Velocity":75,"Duration":100976,"SoundDuration":100976,"Delta":109635811},{"NoteNumber":68,"Velocity":63,"Duration":100976,"SoundDuration":100976,"Delta":109635811},{"NoteNumber":80,"Velocity":89,"Duration":352836,"SoundDuration":352836,"Delta":109736787},{"NoteNumber":68,"Velocity":72,"Duration":352836,"SoundDuration":352836,"Delta":109736787},{"NoteNumber":68,"Velocity":82,"Duration":180126,"SoundDuration":180126,"Delta":110089624},{"NoteNumber":72,"Velocity":82,"Duration":180126,"SoundDuration":180126,"Delta":110089624},{"NoteNumber":80,"Velocity":97,"Duration":180126,"SoundDuration":180126,"Delta":110089624},{"NoteNumber":29,"Velocity":51,"Duration":180126,"SoundDuration":180126,"Delta":110089624},{"NoteNumber":41,"Velocity":61,"Duration":180126,"SoundDuration":180126,"Delta":110089624},{"NoteNumber":72,"Velocity":89,"Duration":194112,"SoundDuration":194112,"Delta":110449876},{"NoteNumber":77,"Velocity":89,"Duration":194112,"SoundDuration":194112,"Delta":110449876},{"NoteNumber":84,"Velocity":106,"Duration":194112,"SoundDuration":194112,"Delta":110449876},{"NoteNumber":27,"Velocity":57,"Duration":194112,"SoundDuration":194112,"Delta":110449876},{"NoteNumber":39,"Velocity":67,"Duration":194112,"SoundDuration":194112,"Delta":110449876},{"NoteNumber":82,"Velocity":98,"Duration":86931,"SoundDuration":86931,"Delta":110838100},{"NoteNumber":77,"Velocity":98,"Duration":86931,"SoundDuration":86931,"Delta":110838100},{"NoteNumber":89,"Velocity":115,"Duration":86931,"SoundDuration":86931,"Delta":110838100},{"NoteNumber":26,"Velocity":69,"Duration":86931,"SoundDuration":86931,"Delta":110838100},{"NoteNumber":38,"Velocity":83,"Duration":86931,"SoundDuration":86931,"Delta":110838100},{"NoteNumber":89,"Velocity":70,"Duration":172134,"SoundDuration":172134,"Delta":111011963},{"NoteNumber":82,"Velocity":77,"Duration":170405,"SoundDuration":170405,"Delta":111184097},{"NoteNumber":84,"Velocity":69,"Duration":179051,"SoundDuration":179051,"Delta":111354503},{"NoteNumber":77,"Velocity":76,"Duration":130396,"SoundDuration":130396,"Delta":111533554},{"NoteNumber":77,"Velocity":66,"Duration":171870,"SoundDuration":171870,"Delta":111707417},{"NoteNumber":70,"Velocity":79,"Duration":171870,"SoundDuration":171870,"Delta":111879287},{"NoteNumber":72,"Velocity":64,"Duration":176939,"SoundDuration":176939,"Delta":112051158},{"NoteNumber":65,"Velocity":74,"Duration":130396,"SoundDuration":130396,"Delta":112228097},{"NoteNumber":65,"Velocity":65,"Duration":170891,"SoundDuration":170891,"Delta":112401959},{"NoteNumber":58,"Velocity":75,"Duration":170891,"SoundDuration":170891,"Delta":112572851},{"NoteNumber":60,"Velocity":68,"Duration":175387,"SoundDuration":175387,"Delta":112743742},{"NoteNumber":53,"Velocity":74,"Duration":690532,"SoundDuration":690532,"Delta":112919130},{"NoteNumber":38,"Velocity":60,"Duration":1367505,"SoundDuration":1367505,"Delta":112919130},{"NoteNumber":65,"Velocity":54,"Duration":173360,"SoundDuration":173360,"Delta":113092490},{"NoteNumber":58,"Velocity":60,"Duration":169443,"SoundDuration":169443,"Delta":113265851},{"NoteNumber":60,"Velocity":54,"Duration":174368,"SoundDuration":174368,"Delta":113435294},{"NoteNumber":54,"Velocity":74,"Duration":676973,"SoundDuration":676973,"Delta":113609662},{"NoteNumber":46,"Velocity":66,"Duration":2017330,"SoundDuration":2017330,"Delta":113609662},{"NoteNumber":66,"Velocity":54,"Duration":167084,"SoundDuration":167084,"Delta":113779106},{"NoteNumber":58,"Velocity":60,"Duration":167084,"SoundDuration":167084,"Delta":113946190},{"NoteNumber":60,"Velocity":55,"Duration":173360,"SoundDuration":173360,"Delta":114113275},{"NoteNumber":55,"Velocity":74,"Duration":675567,"SoundDuration":675567,"Delta":114286635},{"NoteNumber":39,"Velocity":60,"Duration":335586,"SoundDuration":335586,"Delta":114286635},{"NoteNumber":67,"Velocity":54,"Duration":166620,"SoundDuration":166620,"Delta":114455602},{"NoteNumber":60,"Velocity":60,"Duration":166620,"SoundDuration":166620,"Delta":114622222},{"NoteNumber":40,"Velocity":60,"Duration":339981,"SoundDuration":339981,"Delta":114622222},{"NoteNumber":61,"Velocity":55,"Duration":173360,"SoundDuration":173360,"Delta":114788843},{"NoteNumber":56,"Velocity":74,"Duration":664788,"SoundDuration":664788,"Delta":114962203},{"NoteNumber":41,"Velocity":60,"Duration":664788,"SoundDuration":664788,"Delta":114962203},{"NoteNumber":68,"Velocity":55,"Duration":164338,"SoundDuration":164338,"Delta":115128824},{"NoteNumber":62,"Velocity":60,"Duration":164338,"SoundDuration":164338,"Delta":115293162},{"NoteNumber":63,"Velocity":55,"Duration":169491,"SoundDuration":169491,"Delta":115457501},{"NoteNumber":57,"Velocity":74,"Duration":649292,"SoundDuration":649292,"Delta":115626992},{"NoteNumber":46,"Velocity":69,"Duration":971011,"SoundDuration":971011,"Delta":115626992},{"NoteNumber":42,"Velocity":60,"Duration":649292,"SoundDuration":649292,"Delta":115626992},{"NoteNumber":69,"Velocity":54,"Duration":159999,"SoundDuration":159999,"Delta":115789154},{"NoteNumber":62,"Velocity":60,"Duration":159999,"SoundDuration":159999,"Delta":115949154},{"NoteNumber":63,"Velocity":54,"Duration":167130,"SoundDuration":167130,"Delta":116109154},{"NoteNumber":58,"Velocity":74,"Duration":321718,"SoundDuration":321718,"Delta":116276285},{"NoteNumber":43,"Velocity":60,"Duration":646511,"SoundDuration":646511,"Delta":116276285},{"NoteNumber":70,"Velocity":54,"Duration":160427,"SoundDuration":160427,"Delta":116437576},{"NoteNumber":59,"Velocity":70,"Duration":324792,"SoundDuration":324792,"Delta":116598004},{"NoteNumber":51,"Velocity":66,"Duration":978489,"SoundDuration":978489,"Delta":116598004},{"NoteNumber":71,"Velocity":55,"Duration":163934,"SoundDuration":163934,"Delta":116758862},{"NoteNumber":60,"Velocity":76,"Duration":653696,"SoundDuration":653696,"Delta":116922796},{"NoteNumber":45,"Velocity":61,"Duration":1308954,"SoundDuration":1308954,"Delta":116922796},{"NoteNumber":72,"Velocity":55,"Duration":163922,"SoundDuration":163922,"Delta":117085398},{"NoteNumber":65,"Velocity":63,"Duration":159574,"SoundDuration":159574,"Delta":117249320},{"NoteNumber":66,"Velocity":56,"Duration":167597,"SoundDuration":167597,"Delta":117408895},{"NoteNumber":62,"Velocity":79,"Duration":655257,"SoundDuration":655257,"Delta":117576493},{"NoteNumber":53,"Velocity":64,"Duration":655257,"SoundDuration":655257,"Delta":117576493},{"NoteNumber":74,"Velocity":58,"Duration":160857,"SoundDuration":160857,"Delta":117737351},{"NoteNumber":65,"Velocity":65,"Duration":162601,"SoundDuration":162601,"Delta":117898209},{"NoteNumber":66,"Velocity":58,"Duration":170940,"SoundDuration":170940,"Delta":118060810},{"NoteNumber":63,"Velocity":82,"Duration":697514,"SoundDuration":697514,"Delta":118231750},{"NoteNumber":54,"Velocity":66,"Duration":697514,"SoundDuration":697514,"Delta":118231750},{"NoteNumber":45,"Velocity":66,"Duration":697514,"SoundDuration":697514,"Delta":118231750},{"NoteNumber":75,"Velocity":59,"Duration":166666,"SoundDuration":166666,"Delta":118398417},{"NoteNumber":71,"Velocity":67,"Duration":174368,"SoundDuration":174368,"Delta":118565083},{"NoteNumber":72,"Velocity":60,"Duration":189813,"SoundDuration":189813,"Delta":118739451},{"NoteNumber":67,"Velocity":79,"Duration":679722,"SoundDuration":679722,"Delta":118929265},{"NoteNumber":55,"Velocity":69,"Duration":679722,"SoundDuration":679722,"Delta":118929265},{"NoteNumber":46,"Velocity":69,"Duration":679722,"SoundDuration":679722,"Delta":118929265},{"NoteNumber":79,"Velocity":62,"Duration":165745,"SoundDuration":165745,"Delta":119103633},{"NoteNumber":74,"Velocity":69,"Duration":165745,"SoundDuration":165745,"Delta":119269379},{"NoteNumber":75,"Velocity":60,"Duration":173862,"SoundDuration":173862,"Delta":119435125},{"NoteNumber":65,"Velocity":74,"Duration":673884,"SoundDuration":673884,"Delta":119608987},{"NoteNumber":56,"Velocity":60,"Duration":673884,"SoundDuration":673884,"Delta":119608987},{"NoteNumber":47,"Velocity":60,"Duration":673884,"SoundDuration":673884,"Delta":119608987},{"NoteNumber":77,"Velocity":62,"Duration":165289,"SoundDuration":165289,"Delta":119778431},{"NoteNumber":73,"Velocity":66,"Duration":165289,"SoundDuration":165289,"Delta":119943720},{"NoteNumber":74,"Velocity":60,"Duration":173862,"SoundDuration":173862,"Delta":120109010},{"NoteNumber":63,"Velocity":71,"Duration":672286,"SoundDuration":672286,"Delta":120282872},{"NoteNumber":55,"Velocity":58,"Duration":330579,"SoundDuration":330579,"Delta":120282872},{"NoteNumber":48,"Velocity":58,"Duration":672286,"SoundDuration":672286,"Delta":120282872},{"NoteNumber":75,"Velocity":57,"Duration":165289,"SoundDuration":165289,"Delta":120448162},{"NoteNumber":74,"Velocity":57,"Duration":41322,"SoundDuration":41322,"Delta":120613451},{"NoteNumber":57,"Velocity":57,"Duration":1008387,"SoundDuration":1008387,"Delta":120613451},{"NoteNumber":75,"Velocity":56,"Duration":41322,"SoundDuration":41322,"Delta":120654773},{"NoteNumber":74,"Velocity":61,"Duration":82644,"SoundDuration":82644,"Delta":120696096},{"NoteNumber":72,"Velocity":56,"Duration":176418,"SoundDuration":176418,"Delta":120778741},{"NoteNumber":65,"Velocity":66,"Duration":666679,"SoundDuration":666679,"Delta":120955159},{"NoteNumber":50,"Velocity":54,"Duration":1332529,"SoundDuration":1332529,"Delta":120955159},{"NoteNumber":77,"Velocity":57,"Duration":163934,"SoundDuration":163934,"Delta":121119094},{"NoteNumber":70,"Velocity":61,"Duration":163934,"SoundDuration":163934,"Delta":121283028},{"NoteNumber":72,"Velocity":56,"Duration":174875,"SoundDuration":174875,"Delta":121446963},{"NoteNumber":66,"Velocity":68,"Duration":665850,"SoundDuration":665850,"Delta":121621839},{"NoteNumber":58,"Velocity":55,"Duration":2004475,"SoundDuration":2004475,"Delta":121621839},{"NoteNumber":78,"Velocity":56,"Duration":163487,"SoundDuration":163487,"Delta":121785326},{"NoteNumber":70,"Velocity":63,"Duration":163487,"SoundDuration":163487,"Delta":121948814},{"NoteNumber":72,"Velocity":56,"Duration":175387,"SoundDuration":175387,"Delta":122112301},{"NoteNumber":67,"Velocity":71,"Duration":669035,"SoundDuration":669035,"Delta":122287689},{"NoteNumber":51,"Velocity":57,"Duration":326975,"SoundDuration":326975,"Delta":122287689},{"NoteNumber":79,"Velocity":59,"Duration":163487,"SoundDuration":163487,"Delta":122451176},{"NoteNumber":72,"Velocity":68,"Duration":166158,"SoundDuration":166158,"Delta":122614664},{"NoteNumber":52,"Velocity":58,"Duration":342060,"SoundDuration":342060,"Delta":122614664},{"NoteNumber":73,"Velocity":58,"Duration":175901,"SoundDuration":175901,"Delta":122780823},{"NoteNumber":68,"Velocity":74,"Duration":669589,"SoundDuration":669589,"Delta":122956724},{"NoteNumber":53,"Velocity":60,"Duration":669589,"SoundDuration":669589,"Delta":122956724},{"NoteNumber":80,"Velocity":54,"Duration":162601,"SoundDuration":162601,"Delta":123125216},{"NoteNumber":74,"Velocity":68,"Duration":164634,"SoundDuration":164634,"Delta":123287818},{"NoteNumber":75,"Velocity":63,"Duration":173862,"SoundDuration":173862,"Delta":123452452},{"NoteNumber":69,"Velocity":76,"Duration":657341,"SoundDuration":657341,"Delta":123626314},{"NoteNumber":58,"Velocity":61,"Duration":980790,"SoundDuration":980790,"Delta":123626314},{"NoteNumber":54,"Velocity":61,"Duration":657341,"SoundDuration":657341,"Delta":123626314},{"NoteNumber":81,"Velocity":57,"Duration":161290,"SoundDuration":161290,"Delta":123792060},{"NoteNumber":74,"Velocity":70,"Duration":161290,"SoundDuration":161290,"Delta":123953351},{"NoteNumber":75,"Velocity":68,"Duration":169014,"SoundDuration":169014,"Delta":124114641},{"NoteNumber":70,"Velocity":78,"Duration":323449,"SoundDuration":323449,"Delta":124283655},{"NoteNumber":55,"Velocity":63,"Duration":663163,"SoundDuration":663163,"Delta":124283655},{"NoteNumber":82,"Velocity":64,"Duration":161724,"SoundDuration":161724,"Delta":124445380},{"NoteNumber":71,"Velocity":79,"Duration":339713,"SoundDuration":339713,"Delta":124607105},{"NoteNumber":63,"Velocity":64,"Duration":994727,"SoundDuration":994727,"Delta":124607105},{"NoteNumber":83,"Velocity":63,"Duration":177988,"SoundDuration":177988,"Delta":124768830},{"NoteNumber":72,"Velocity":84,"Duration":655013,"SoundDuration":655013,"Delta":124946819},{"NoteNumber":56,"Velocity":66,"Duration":1325199,"SoundDuration":1325199,"Delta":124946819},{"NoteNumber":84,"Velocity":60,"Duration":161290,"SoundDuration":161290,"Delta":125111654},{"NoteNumber":77,"Velocity":66,"Duration":161290,"SoundDuration":161290,"Delta":125272944},{"NoteNumber":78,"Velocity":60,"Duration":167597,"SoundDuration":167597,"Delta":125434235},{"NoteNumber":74,"Velocity":85,"Duration":670186,"SoundDuration":670186,"Delta":125601833},{"NoteNumber":65,"Velocity":67,"Duration":670186,"SoundDuration":670186,"Delta":125601833},{"NoteNumber":86,"Velocity":61,"Duration":162161,"SoundDuration":162161,"Delta":125771276},{"NoteNumber":77,"Velocity":66,"Duration":162162,"SoundDuration":162162,"Delta":125933438},{"NoteNumber":78,"Velocity":53,"Duration":176418,"SoundDuration":176418,"Delta":126095600},{"NoteNumber":75,"Velocity":83,"Duration":705233,"SoundDuration":705233,"Delta":126272019},{"NoteNumber":57,"Velocity":42,"Duration":705233,"SoundDuration":705233,"Delta":126272019},{"NoteNumber":66,"Velocity":50,"Duration":705233,"SoundDuration":705233,"Delta":126272019},{"NoteNumber":87,"Velocity":59,"Duration":164834,"SoundDuration":164834,"Delta":126436854},{"NoteNumber":83,"Velocity":69,"Duration":172860,"SoundDuration":172860,"Delta":126601689},{"NoteNumber":84,"Velocity":63,"Duration":202702,"SoundDuration":202702,"Delta":126774549},{"NoteNumber":79,"Velocity":85,"Duration":669470,"SoundDuration":669470,"Delta":126977252},{"NoteNumber":58,"Velocity":39,"Duration":669470,"SoundDuration":669470,"Delta":126977252},{"NoteNumber":67,"Velocity":47,"Duration":669470,"SoundDuration":669470,"Delta":126977252},{"NoteNumber":91,"Velocity":70,"Duration":164789,"SoundDuration":164789,"Delta":127145272},{"NoteNumber":86,"Velocity":75,"Duration":164790,"SoundDuration":164790,"Delta":127310062},{"NoteNumber":87,"Velocity":67,"Duration":171870,"SoundDuration":171870,"Delta":127474852},{"NoteNumber":77,"Velocity":78,"Duration":663796,"SoundDuration":663796,"Delta":127646723},{"NoteNumber":59,"Velocity":29,"Duration":663796,"SoundDuration":663796,"Delta":127646723},{"NoteNumber":62,"Velocity":29,"Duration":663796,"SoundDuration":663796,"Delta":127646723},{"NoteNumber":65,"Velocity":37,"Duration":663796,"SoundDuration":663796,"Delta":127646723},{"NoteNumber":68,"Velocity":44,"Duration":663796,"SoundDuration":663796,"Delta":127646723},{"NoteNumber":89,"Velocity":52,"Duration":161725,"SoundDuration":161725,"Delta":127815689},{"NoteNumber":85,"Velocity":64,"Duration":161725,"SoundDuration":161725,"Delta":127977414},{"NoteNumber":86,"Velocity":59,"Duration":171379,"SoundDuration":171379,"Delta":128139139},{"NoteNumber":75,"Velocity":68,"Duration":670817,"SoundDuration":670817,"Delta":128310519},{"NoteNumber":60,"Velocity":27,"Duration":670817,"SoundDuration":670817,"Delta":128310519},{"NoteNumber":63,"Velocity":27,"Duration":670817,"SoundDuration":670817,"Delta":128310519},{"NoteNumber":66,"Velocity":34,"Duration":670817,"SoundDuration":670817,"Delta":128310519},{"NoteNumber":69,"Velocity":41,"Duration":670817,"SoundDuration":670817,"Delta":128310519},{"NoteNumber":87,"Velocity":54,"Duration":163487,"SoundDuration":163487,"Delta":128479485},{"NoteNumber":83,"Velocity":63,"Duration":163487,"SoundDuration":163487,"Delta":128642973},{"NoteNumber":84,"Velocity":53,"Duration":174876,"SoundDuration":174876,"Delta":128806460},{"NoteNumber":74,"Velocity":59,"Duration":672646,"SoundDuration":672646,"Delta":128981336},{"NoteNumber":62,"Velocity":25,"Duration":672646,"SoundDuration":672646,"Delta":128981336},{"NoteNumber":65,"Velocity":32,"Duration":672646,"SoundDuration":672646,"Delta":128981336},{"NoteNumber":70,"Velocity":38,"Duration":672646,"SoundDuration":672646,"Delta":128981336},{"NoteNumber":86,"Velocity":48,"Duration":164383,"SoundDuration":164383,"Delta":129149828},{"NoteNumber":82,"Velocity":54,"Duration":164383,"SoundDuration":164383,"Delta":129314212},{"NoteNumber":84,"Velocity":47,"Duration":175387,"SoundDuration":175387,"Delta":129478595},{"NoteNumber":72,"Velocity":59,"Duration":668355,"SoundDuration":668355,"Delta":129653983},{"NoteNumber":64,"Velocity":25,"Duration":668355,"SoundDuration":668355,"Delta":129653983},{"NoteNumber":67,"Velocity":32,"Duration":668355,"SoundDuration":668355,"Delta":129653983},{"NoteNumber":70,"Velocity":38,"Duration":668355,"SoundDuration":668355,"Delta":129653983},{"NoteNumber":84,"Velocity":47,"Duration":163487,"SoundDuration":163487,"Delta":129822003},{"NoteNumber":80,"Velocity":54,"Duration":163487,"SoundDuration":163487,"Delta":129985490},{"NoteNumber":82,"Velocity":47,"Duration":173360,"SoundDuration":173360,"Delta":130148978},{"NoteNumber":70,"Velocity":59,"Duration":676648,"SoundDuration":676648,"Delta":130322338},{"NoteNumber":65,"Velocity":32,"Duration":676648,"SoundDuration":676648,"Delta":130322338},{"NoteNumber":68,"Velocity":38,"Duration":676648,"SoundDuration":676648,"Delta":130322338},{"NoteNumber":82,"Velocity":47,"Duration":166620,"SoundDuration":166620,"Delta":130490358},{"NoteNumber":79,"Velocity":54,"Duration":166620,"SoundDuration":166620,"Delta":130656979},{"NoteNumber":80,"Velocity":46,"Duration":175387,"SoundDuration":175387,"Delta":130823599},{"NoteNumber":70,"Velocity":59,"Duration":668115,"SoundDuration":668115,"Delta":130998987},{"NoteNumber":62,"Velocity":25,"Duration":668115,"SoundDuration":668115,"Delta":130998987},{"NoteNumber":65,"Velocity":32,"Duration":668115,"SoundDuration":668115,"Delta":130998987},{"NoteNumber":68,"Velocity":38,"Duration":668115,"SoundDuration":668115,"Delta":130998987},{"NoteNumber":82,"Velocity":46,"Duration":164790,"SoundDuration":164790,"Delta":131165157},{"NoteNumber":79,"Velocity":53,"Duration":164790,"SoundDuration":164790,"Delta":131329947},{"NoteNumber":80,"Velocity":46,"Duration":172364,"SoundDuration":172364,"Delta":131494737},{"NoteNumber":71,"Velocity":59,"Duration":670219,"SoundDuration":670219,"Delta":131667102},{"NoteNumber":63,"Velocity":25,"Duration":670219,"SoundDuration":670219,"Delta":131667102},{"NoteNumber":65,"Velocity":32,"Duration":670219,"SoundDuration":670219,"Delta":131667102},{"NoteNumber":68,"Velocity":38,"Duration":670219,"SoundDuration":670219,"Delta":131667102},{"NoteNumber":82,"Velocity":47,"Duration":168019,"SoundDuration":168019,"Delta":131835122},{"NoteNumber":79,"Velocity":53,"Duration":168020,"SoundDuration":168020,"Delta":132003142},{"NoteNumber":80,"Velocity":47,"Duration":166158,"SoundDuration":166158,"Delta":132171162},{"NoteNumber":70,"Velocity":59,"Duration":332318,"SoundDuration":332318,"Delta":132337321},{"NoteNumber":62,"Velocity":25,"Duration":678218,"SoundDuration":678218,"Delta":132337321},{"NoteNumber":65,"Velocity":32,"Duration":678218,"SoundDuration":678218,"Delta":132337321},{"NoteNumber":68,"Velocity":38,"Duration":678218,"SoundDuration":678218,"Delta":132337321},{"NoteNumber":82,"Velocity":44,"Duration":166159,"SoundDuration":166159,"Delta":132503480},{"NoteNumber":79,"Velocity":52,"Duration":172037,"SoundDuration":172037,"Delta":132669639},{"NoteNumber":71,"Velocity":52,"Duration":345900,"SoundDuration":345900,"Delta":132669639},{"NoteNumber":80,"Velocity":46,"Duration":173862,"SoundDuration":173862,"Delta":132841676},{"NoteNumber":72,"Velocity":59,"Duration":683777,"SoundDuration":683777,"Delta":133015539},{"NoteNumber":60,"Velocity":25,"Duration":683777,"SoundDuration":683777,"Delta":133015539},{"NoteNumber":65,"Velocity":32,"Duration":683777,"SoundDuration":683777,"Delta":133015539},{"NoteNumber":68,"Velocity":38,"Duration":683777,"SoundDuration":683777,"Delta":133015539},{"NoteNumber":82,"Velocity":46,"Duration":169971,"SoundDuration":169971,"Delta":133185510},{"NoteNumber":80,"Velocity":53,"Duration":169971,"SoundDuration":169971,"Delta":133355482},{"NoteNumber":82,"Velocity":46,"Duration":173862,"SoundDuration":173862,"Delta":133525453},{"NoteNumber":73,"Velocity":59,"Duration":688258,"SoundDuration":688258,"Delta":133699316},{"NoteNumber":59,"Velocity":25,"Duration":688258,"SoundDuration":688258,"Delta":133699316},{"NoteNumber":65,"Velocity":32,"Duration":688258,"SoundDuration":688258,"Delta":133699316},{"NoteNumber":68,"Velocity":38,"Duration":688258,"SoundDuration":688258,"Delta":133699316},{"NoteNumber":82,"Velocity":48,"Duration":170940,"SoundDuration":170940,"Delta":133870256},{"NoteNumber":79,"Velocity":54,"Duration":170940,"SoundDuration":170940,"Delta":134041196},{"NoteNumber":80,"Velocity":48,"Duration":175438,"SoundDuration":175438,"Delta":134212136},{"NoteNumber":72,"Velocity":59,"Duration":340917,"SoundDuration":340917,"Delta":134387574},{"NoteNumber":60,"Velocity":25,"Duration":705118,"SoundDuration":705118,"Delta":134387574},{"NoteNumber":65,"Velocity":32,"Duration":705118,"SoundDuration":705118,"Delta":134387574},{"NoteNumber":68,"Velocity":38,"Duration":705118,"SoundDuration":705118,"Delta":134387574},{"NoteNumber":82,"Velocity":48,"Duration":169971,"SoundDuration":169971,"Delta":134558520},{"NoteNumber":79,"Velocity":48,"Duration":174926,"SoundDuration":174926,"Delta":134728492},{"NoteNumber":73,"Velocity":59,"Duration":364201,"SoundDuration":364201,"Delta":134728492},{"NoteNumber":80,"Velocity":48,"Duration":189274,"SoundDuration":189274,"Delta":134903419},{"NoteNumber":74,"Velocity":59,"Duration":1091175,"SoundDuration":1091175,"Delta":135092693},{"NoteNumber":59,"Velocity":25,"Duration":1303190,"SoundDuration":1303190,"Delta":135092693},{"NoteNumber":65,"Velocity":32,"Duration":1303190,"SoundDuration":1303190,"Delta":135092693},{"NoteNumber":68,"Velocity":38,"Duration":1303190,"SoundDuration":1303190,"Delta":135092693},{"NoteNumber":82,"Velocity":48,"Duration":367728,"SoundDuration":367728,"Delta":135272334},{"NoteNumber":80,"Velocity":45,"Duration":181268,"SoundDuration":181268,"Delta":135640062},{"NoteNumber":77,"Velocity":50,"Duration":181269,"SoundDuration":181269,"Delta":135821331},{"NoteNumber":74,"Velocity":48,"Duration":181268,"SoundDuration":181268,"Delta":136002600},{"NoteNumber":71,"Velocity":50,"Duration":212014,"SoundDuration":212014,"Delta":136183869},{"NoteNumber":79,"Velocity":46,"Duration":409632,"SoundDuration":409632,"Delta":136395883},{"NoteNumber":70,"Velocity":36,"Duration":409632,"SoundDuration":409632,"Delta":136395883},{"NoteNumber":77,"Velocity":32,"Duration":218182,"SoundDuration":218182,"Delta":136805516},{"NoteNumber":68,"Velocity":27,"Duration":218182,"SoundDuration":218182,"Delta":136805516},{"NoteNumber":74,"Velocity":40,"Duration":235294,"SoundDuration":235294,"Delta":137023698},{"NoteNumber":65,"Velocity":37,"Duration":235294,"SoundDuration":235294,"Delta":137023698},{"NoteNumber":70,"Velocity":33,"Duration":270270,"SoundDuration":270270,"Delta":137258992},{"NoteNumber":62,"Velocity":30,"Duration":270270,"SoundDuration":270270,"Delta":137258992},{"NoteNumber":68,"Velocity":28,"Duration":625000,"SoundDuration":625000,"Delta":137529262},{"NoteNumber":59,"Velocity":27,"Duration":625000,"SoundDuration":625000,"Delta":137529262},{"NoteNumber":63,"Velocity":32,"Duration":362427,"SoundDuration":362427,"Delta":138154262},{"NoteNumber":60,"Velocity":24,"Duration":362427,"SoundDuration":362427,"Delta":138154262},{"NoteNumber":67,"Velocity":38,"Duration":362427,"SoundDuration":362427,"Delta":138154262},{"NoteNumber":48,"Velocity":21,"Duration":362427,"SoundDuration":362427,"Delta":138154262},{"NoteNumber":55,"Velocity":31,"Duration":362427,"SoundDuration":362427,"Delta":138154262},{"NoteNumber":69,"Velocity":40,"Duration":362427,"SoundDuration":362427,"Delta":138516690},{"NoteNumber":66,"Velocity":34,"Duration":362427,"SoundDuration":362427,"Delta":138516690},{"NoteNumber":60,"Velocity":25,"Duration":362427,"SoundDuration":362427,"Delta":138516690},{"NoteNumber":63,"Velocity":28,"Duration":362427,"SoundDuration":362427,"Delta":138516690},{"NoteNumber":48,"Velocity":32,"Duration":317124,"SoundDuration":317124,"Delta":138516690},{"NoteNumber":57,"Velocity":38,"Duration":317124,"SoundDuration":317124,"Delta":138516690},{"NoteNumber":43,"Velocity":35,"Duration":45303,"SoundDuration":45303,"Delta":138833815},{"NoteNumber":70,"Velocity":48,"Duration":173862,"SoundDuration":173862,"Delta":138879118},{"NoteNumber":62,"Velocity":40,"Duration":173862,"SoundDuration":173862,"Delta":138879118},{"NoteNumber":58,"Velocity":39,"Duration":173862,"SoundDuration":173862,"Delta":138879118},{"NoteNumber":72,"Velocity":42,"Duration":154639,"SoundDuration":154639,"Delta":139052981},{"NoteNumber":60,"Velocity":33,"Duration":154639,"SoundDuration":154639,"Delta":139052981},{"NoteNumber":69,"Velocity":47,"Duration":154639,"SoundDuration":154639,"Delta":139207620},{"NoteNumber":57,"Velocity":38,"Duration":154639,"SoundDuration":154639,"Delta":139207620},{"NoteNumber":70,"Velocity":42,"Duration":168539,"SoundDuration":168539,"Delta":139362259},{"NoteNumber":58,"Velocity":35,"Duration":168539,"SoundDuration":168539,"Delta":139362259},{"NoteNumber":67,"Velocity":56,"Duration":144195,"SoundDuration":144195,"Delta":139530798},{"NoteNumber":55,"Velocity":47,"Duration":144195,"SoundDuration":144195,"Delta":139530798},{"NoteNumber":74,"Velocity":47,"Duration":185758,"SoundDuration":185758,"Delta":139674994},{"NoteNumber":62,"Velocity":40,"Duration":185758,"SoundDuration":185758,"Delta":139674994},{"NoteNumber":74,"Velocity":56,"Duration":352836,"SoundDuration":352836,"Delta":139860753},{"NoteNumber":62,"Velocity":49,"Duration":352836,"SoundDuration":352836,"Delta":139860753},{"NoteNumber":63,"Velocity":34,"Duration":331400,"SoundDuration":331400,"Delta":140213590},{"NoteNumber":67,"Velocity":40,"Duration":331400,"SoundDuration":331400,"Delta":140213590},{"NoteNumber":60,"Velocity":34,"Duration":331400,"SoundDuration":331400,"Delta":140213590},{"NoteNumber":48,"Velocity":27,"Duration":331400,"SoundDuration":331400,"Delta":140213590},{"NoteNumber":55,"Velocity":32,"Duration":331400,"SoundDuration":331400,"Delta":140213590},{"NoteNumber":69,"Velocity":42,"Duration":331400,"SoundDuration":331400,"Delta":140544990},{"NoteNumber":63,"Velocity":35,"Duration":331400,"SoundDuration":331400,"Delta":140544990},{"NoteNumber":60,"Velocity":35,"Duration":331400,"SoundDuration":331400,"Delta":140544990},{"NoteNumber":66,"Velocity":35,"Duration":331400,"SoundDuration":331400,"Delta":140544990},{"NoteNumber":48,"Velocity":33,"Duration":289974,"SoundDuration":289974,"Delta":140544990},{"NoteNumber":57,"Velocity":39,"Duration":289974,"SoundDuration":289974,"Delta":140544990},{"NoteNumber":43,"Velocity":37,"Duration":41425,"SoundDuration":41425,"Delta":140834965},{"NoteNumber":62,"Velocity":42,"Duration":173862,"SoundDuration":173862,"Delta":140876390},{"NoteNumber":70,"Velocity":50,"Duration":173862,"SoundDuration":173862,"Delta":140876390},{"NoteNumber":58,"Velocity":41,"Duration":173862,"SoundDuration":173862,"Delta":140876390},{"NoteNumber":72,"Velocity":45,"Duration":151514,"SoundDuration":151514,"Delta":141050252},{"NoteNumber":60,"Velocity":34,"Duration":151514,"SoundDuration":151514,"Delta":141050252},{"NoteNumber":69,"Velocity":49,"Duration":151515,"SoundDuration":151515,"Delta":141201767},{"NoteNumber":57,"Velocity":40,"Duration":151515,"SoundDuration":151515,"Delta":141201767},{"NoteNumber":70,"Velocity":45,"Duration":159999,"SoundDuration":159999,"Delta":141353282},{"NoteNumber":58,"Velocity":36,"Duration":159999,"SoundDuration":159999,"Delta":141353282},{"NoteNumber":67,"Velocity":58,"Duration":144195,"SoundDuration":144195,"Delta":141513282},{"NoteNumber":55,"Velocity":51,"Duration":144195,"SoundDuration":144195,"Delta":141513282},{"NoteNumber":75,"Velocity":52,"Duration":191082,"SoundDuration":191082,"Delta":141657478},{"NoteNumber":63,"Velocity":45,"Duration":191082,"SoundDuration":191082,"Delta":141657478},{"NoteNumber":75,"Velocity":63,"Duration":353878,"SoundDuration":353878,"Delta":141848561},{"NoteNumber":63,"Velocity":52,"Duration":353878,"SoundDuration":353878,"Delta":141848561},{"NoteNumber":63,"Velocity":39,"Duration":164319,"SoundDuration":164319,"Delta":142202439},{"NoteNumber":67,"Velocity":47,"Duration":164319,"SoundDuration":164319,"Delta":142202439},{"NoteNumber":60,"Velocity":39,"Duration":164319,"SoundDuration":164319,"Delta":142202439},{"NoteNumber":48,"Velocity":28,"Duration":164319,"SoundDuration":164319,"Delta":142202439},{"NoteNumber":55,"Velocity":34,"Duration":164319,"SoundDuration":164319,"Delta":142202439},{"NoteNumber":60,"Velocity":41,"Duration":331400,"SoundDuration":331400,"Delta":142533839},{"NoteNumber":63,"Velocity":41,"Duration":331400,"SoundDuration":331400,"Delta":142533839},{"NoteNumber":69,"Velocity":50,"Duration":505262,"SoundDuration":505262,"Delta":142533839},{"NoteNumber":41,"Velocity":34,"Duration":331400,"SoundDuration":331400,"Delta":142533839},{"NoteNumber":53,"Velocity":41,"Duration":505262,"SoundDuration":505262,"Delta":142533839},{"NoteNumber":62,"Velocity":44,"Duration":173862,"SoundDuration":173862,"Delta":142865239},{"NoteNumber":46,"Velocity":43,"Duration":173862,"SoundDuration":173862,"Delta":142865239},{"NoteNumber":70,"Velocity":47,"Duration":153413,"SoundDuration":153413,"Delta":143039102},{"NoteNumber":58,"Velocity":36,"Duration":153413,"SoundDuration":153413,"Delta":143039102},{"NoteNumber":67,"Velocity":51,"Duration":153413,"SoundDuration":153413,"Delta":143192515},{"NoteNumber":55,"Velocity":42,"Duration":153413,"SoundDuration":153413,"Delta":143192515},{"NoteNumber":69,"Velocity":47,"Duration":153413,"SoundDuration":153413,"Delta":143345929},{"NoteNumber":57,"Velocity":37,"Duration":153413,"SoundDuration":153413,"Delta":143345929},{"NoteNumber":65,"Velocity":58,"Duration":148846,"SoundDuration":148846,"Delta":143499342},{"NoteNumber":53,"Velocity":50,"Duration":148846,"SoundDuration":148846,"Delta":143499342},{"NoteNumber":74,"Velocity":51,"Duration":180723,"SoundDuration":180723,"Delta":143648189},{"NoteNumber":62,"Velocity":44,"Duration":180723,"SoundDuration":180723,"Delta":143648189},{"NoteNumber":74,"Velocity":61,"Duration":353878,"SoundDuration":353878,"Delta":143828912},{"NoteNumber":62,"Velocity":53,"Duration":353878,"SoundDuration":353878,"Delta":143828912},{"NoteNumber":58,"Velocity":39,"Duration":164319,"SoundDuration":164319,"Delta":144182790},{"NoteNumber":62,"Velocity":39,"Duration":164319,"SoundDuration":164319,"Delta":144182790},{"NoteNumber":65,"Velocity":47,"Duration":164319,"SoundDuration":164319,"Delta":144182790},{"NoteNumber":46,"Velocity":28,"Duration":164319,"SoundDuration":164319,"Delta":144182790},{"NoteNumber":53,"Velocity":34,"Duration":164319,"SoundDuration":164319,"Delta":144182790},{"NoteNumber":62,"Velocity":41,"Duration":331400,"SoundDuration":331400,"Delta":144514190},{"NoteNumber":67,"Velocity":50,"Duration":505262,"SoundDuration":505262,"Delta":144514190},{"NoteNumber":58,"Velocity":41,"Duration":331400,"SoundDuration":331400,"Delta":144514190},{"NoteNumber":39,"Velocity":34,"Duration":331400,"SoundDuration":331400,"Delta":144514190},{"NoteNumber":51,"Velocity":41,"Duration":505262,"SoundDuration":505262,"Delta":144514190},{"NoteNumber":60,"Velocity":44,"Duration":173862,"SoundDuration":173862,"Delta":144845590},{"NoteNumber":45,"Velocity":43,"Duration":173862,"SoundDuration":173862,"Delta":144845590},{"NoteNumber":69,"Velocity":43,"Duration":149216,"SoundDuration":149216,"Delta":145019452},{"NoteNumber":57,"Velocity":33,"Duration":149216,"SoundDuration":149216,"Delta":145019452},{"NoteNumber":65,"Velocity":51,"Duration":149216,"SoundDuration":149216,"Delta":145168669},{"NoteNumber":53,"Velocity":42,"Duration":149216,"SoundDuration":149216,"Delta":145168669},{"NoteNumber":67,"Velocity":47,"Duration":149216,"SoundDuration":149216,"Delta":145317885},{"NoteNumber":55,"Velocity":37,"Duration":149216,"SoundDuration":149216,"Delta":145317885},{"NoteNumber":63,"Velocity":58,"Duration":152245,"SoundDuration":152245,"Delta":145467102},{"NoteNumber":51,"Velocity":50,"Duration":152245,"SoundDuration":152245,"Delta":145467102},{"NoteNumber":72,"Velocity":51,"Duration":171379,"SoundDuration":171379,"Delta":145619347},{"NoteNumber":60,"Velocity":44,"Duration":171379,"SoundDuration":171379,"Delta":145619347},{"NoteNumber":72,"Velocity":61,"Duration":353878,"SoundDuration":353878,"Delta":145790727},{"NoteNumber":60,"Velocity":53,"Duration":353878,"SoundDuration":353878,"Delta":145790727},{"NoteNumber":60,"Velocity":39,"Duration":164319,"SoundDuration":164319,"Delta":146144605},{"NoteNumber":55,"Velocity":39,"Duration":164319,"SoundDuration":164319,"Delta":146144605},{"NoteNumber":63,"Velocity":47,"Duration":164319,"SoundDuration":164319,"Delta":146144605},{"NoteNumber":36,"Velocity":28,"Duration":164319,"SoundDuration":164319,"Delta":146144605},{"NoteNumber":48,"Velocity":34,"Duration":164319,"SoundDuration":164319,"Delta":146144605},{"NoteNumber":57,"Velocity":41,"Duration":331400,"SoundDuration":331400,"Delta":146476005},{"NoteNumber":54,"Velocity":41,"Duration":331400,"SoundDuration":331400,"Delta":146476005},{"NoteNumber":62,"Velocity":49,"Duration":505262,"SoundDuration":505262,"Delta":146476005},{"NoteNumber":38,"Velocity":34,"Duration":331400,"SoundDuration":331400,"Delta":146476005},{"NoteNumber":50,"Velocity":41,"Duration":505262,"SoundDuration":505262,"Delta":146476005},{"NoteNumber":55,"Velocity":44,"Duration":173862,"SoundDuration":173862,"Delta":146807405},{"NoteNumber":43,"Velocity":43,"Duration":173862,"SoundDuration":173862,"Delta":146807405},{"NoteNumber":63,"Velocity":46,"Duration":151860,"SoundDuration":151860,"Delta":146981267},{"NoteNumber":51,"Velocity":35,"Duration":151860,"SoundDuration":151860,"Delta":146981267},{"NoteNumber":60,"Velocity":50,"Duration":151860,"SoundDuration":151860,"Delta":147133128},{"NoteNumber":48,"Velocity":41,"Duration":151860,"SoundDuration":151860,"Delta":147133128},{"NoteNumber":62,"Velocity":46,"Duration":151860,"SoundDuration":151860,"Delta":147284988},{"NoteNumber":50,"Velocity":37,"Duration":151860,"SoundDuration":151860,"Delta":147284988},{"NoteNumber":58,"Velocity":57,"Duration":154998,"SoundDuration":154998,"Delta":147436849},{"NoteNumber":46,"Velocity":49,"Duration":154998,"SoundDuration":154998,"Delta":147436849},{"NoteNumber":67,"Velocity":49,"Duration":171379,"SoundDuration":171379,"Delta":147591847},{"NoteNumber":55,"Velocity":42,"Duration":171379,"SoundDuration":171379,"Delta":147591847},{"NoteNumber":67,"Velocity":59,"Duration":353878,"SoundDuration":353878,"Delta":147763227},{"NoteNumber":55,"Velocity":51,"Duration":353878,"SoundDuration":353878,"Delta":147763227},{"NoteNumber":60,"Velocity":43,"Duration":178678,"SoundDuration":178678,"Delta":148117105},{"NoteNumber":55,"Velocity":43,"Duration":178678,"SoundDuration":178678,"Delta":148117105},{"NoteNumber":63,"Velocity":51,"Duration":178678,"SoundDuration":178678,"Delta":148117105},{"NoteNumber":36,"Velocity":31,"Duration":178678,"SoundDuration":178678,"Delta":148117105},{"NoteNumber":48,"Velocity":37,"Duration":178678,"SoundDuration":178678,"Delta":148117105},{"NoteNumber":54,"Velocity":45,"Duration":379747,"SoundDuration":379747,"Delta":148477465},{"NoteNumber":62,"Velocity":54,"Duration":773189,"SoundDuration":773189,"Delta":148477465},{"NoteNumber":57,"Velocity":45,"Duration":379747,"SoundDuration":379747,"Delta":148477465},{"NoteNumber":38,"Velocity":38,"Duration":379747,"SoundDuration":379747,"Delta":148477465},{"NoteNumber":50,"Velocity":45,"Duration":773189,"SoundDuration":773189,"Delta":148477465},{"NoteNumber":55,"Velocity":48,"Duration":393442,"SoundDuration":393442,"Delta":148857212},{"NoteNumber":43,"Velocity":47,"Duration":393442,"SoundDuration":393442,"Delta":148857212},{"NoteNumber":70,"Velocity":58,"Duration":695917,"SoundDuration":695917,"Delta":149250655},{"NoteNumber":58,"Velocity":40,"Duration":813504,"SoundDuration":813504,"Delta":149641509},{"NoteNumber":38,"Velocity":40,"Duration":406752,"SoundDuration":406752,"Delta":149641509},{"NoteNumber":46,"Velocity":40,"Duration":813504,"SoundDuration":813504,"Delta":149641509},{"NoteNumber":66,"Velocity":50,"Duration":101688,"SoundDuration":101688,"Delta":149946573},{"NoteNumber":67,"Velocity":56,"Duration":305063,"SoundDuration":305063,"Delta":150048261},{"NoteNumber":39,"Velocity":40,"Duration":406752,"SoundDuration":406752,"Delta":150048261},{"NoteNumber":69,"Velocity":51,"Duration":101688,"SoundDuration":101688,"Delta":150353325},{"NoteNumber":70,"Velocity":57,"Duration":693173,"SoundDuration":693173,"Delta":150455013},{"NoteNumber":58,"Velocity":40,"Duration":816271,"SoundDuration":816271,"Delta":150842085},{"NoteNumber":38,"Velocity":40,"Duration":408136,"SoundDuration":408136,"Delta":150842085},{"NoteNumber":46,"Velocity":40,"Duration":816271,"SoundDuration":816271,"Delta":150842085},{"NoteNumber":66,"Velocity":54,"Duration":102034,"SoundDuration":102034,"Delta":151148187},{"NoteNumber":67,"Velocity":61,"Duration":306101,"SoundDuration":306101,"Delta":151250221},{"NoteNumber":39,"Velocity":40,"Duration":408135,"SoundDuration":408135,"Delta":151250221},{"NoteNumber":69,"Velocity":52,"Duration":102034,"SoundDuration":102034,"Delta":151556323},{"NoteNumber":70,"Velocity":57,"Duration":196065,"SoundDuration":196065,"Delta":151658357},{"NoteNumber":58,"Velocity":47,"Duration":196065,"SoundDuration":196065,"Delta":151854422},{"NoteNumber":36,"Velocity":33,"Duration":859882,"SoundDuration":859882,"Delta":152001471},{"NoteNumber":74,"Velocity":64,"Duration":204764,"SoundDuration":204764,"Delta":152050488},{"NoteNumber":51,"Velocity":40,"Duration":1195481,"SoundDuration":1195481,"Delta":152050488},{"NoteNumber":72,"Velocity":57,"Duration":204763,"SoundDuration":204763,"Delta":152255252},{"NoteNumber":74,"Velocity":66,"Duration":200669,"SoundDuration":200669,"Delta":152460016},{"NoteNumber":72,"Velocity":63,"Duration":200669,"SoundDuration":200669,"Delta":152660685},{"NoteNumber":70,"Velocity":59,"Duration":128205,"SoundDuration":128205,"Delta":152861354},{"NoteNumber":48,"Velocity":40,"Duration":384614,"SoundDuration":384614,"Delta":152861354},{"NoteNumber":67,"Velocity":51,"Duration":128204,"SoundDuration":128204,"Delta":152989559},{"NoteNumber":63,"Velocity":51,"Duration":128205,"SoundDuration":128205,"Delta":153117764},{"NoteNumber":62,"Velocity":57,"Duration":309257,"SoundDuration":309257,"Delta":153245969},{"NoteNumber":57,"Velocity":36,"Duration":418738,"SoundDuration":418738,"Delta":153245969},{"NoteNumber":53,"Velocity":36,"Duration":309257,"SoundDuration":309257,"Delta":153245969},{"NoteNumber":41,"Velocity":36,"Duration":418738,"SoundDuration":418738,"Delta":153245969},{"NoteNumber":60,"Velocity":47,"Duration":109480,"SoundDuration":109480,"Delta":153555226},{"NoteNumber":51,"Velocity":32,"Duration":109480,"SoundDuration":109480,"Delta":153555226},{"NoteNumber":58,"Velocity":54,"Duration":218962,"SoundDuration":218962,"Delta":153664707},{"NoteNumber":46,"Velocity":37,"Duration":218962,"SoundDuration":218962,"Delta":153664707},{"NoteNumber":50,"Velocity":37,"Duration":218962,"SoundDuration":218962,"Delta":153664707},{"NoteNumber":77,"Velocity":58,"Duration":695748,"SoundDuration":695748,"Delta":154102631},{"NoteNumber":41,"Velocity":28,"Duration":458646,"SoundDuration":458646,"Delta":154444628},{"NoteNumber":49,"Velocity":32,"Duration":434218,"SoundDuration":434218,"Delta":154469056},{"NoteNumber":65,"Velocity":40,"Duration":816569,"SoundDuration":816569,"Delta":154493485},{"NoteNumber":57,"Velocity":36,"Duration":409789,"SoundDuration":409789,"Delta":154493485},{"NoteNumber":73,"Velocity":50,"Duration":104894,"SoundDuration":104894,"Delta":154798380},{"NoteNumber":74,"Velocity":56,"Duration":305084,"SoundDuration":305084,"Delta":154903275},{"NoteNumber":58,"Velocity":40,"Duration":406779,"SoundDuration":406779,"Delta":154903275},{"NoteNumber":50,"Velocity":40,"Duration":406779,"SoundDuration":406779,"Delta":154903275},{"NoteNumber":75,"Velocity":51,"Duration":101695,"SoundDuration":101695,"Delta":155208360},{"NoteNumber":77,"Velocity":57,"Duration":690936,"SoundDuration":690936,"Delta":155310055},{"NoteNumber":41,"Velocity":29,"Duration":456778,"SoundDuration":456778,"Delta":155648743},{"NoteNumber":49,"Velocity":32,"Duration":432586,"SoundDuration":432586,"Delta":155672935},{"NoteNumber":65,"Velocity":40,"Duration":815174,"SoundDuration":815174,"Delta":155697127},{"NoteNumber":57,"Velocity":36,"Duration":408394,"SoundDuration":408394,"Delta":155697127},{"NoteNumber":73,"Velocity":54,"Duration":104529,"SoundDuration":104529,"Delta":156000992},{"NoteNumber":74,"Velocity":61,"Duration":305084,"SoundDuration":305084,"Delta":156105521},{"NoteNumber":58,"Velocity":40,"Duration":406779,"SoundDuration":406779,"Delta":156105521},{"NoteNumber":50,"Velocity":40,"Duration":406779,"SoundDuration":406779,"Delta":156105521},{"NoteNumber":75,"Velocity":52,"Duration":101695,"SoundDuration":101695,"Delta":156410606},{"NoteNumber":77,"Velocity":57,"Duration":196065,"SoundDuration":196065,"Delta":156512301},{"NoteNumber":65,"Velocity":47,"Duration":196065,"SoundDuration":196065,"Delta":156708367},{"NoteNumber":46,"Velocity":33,"Duration":458544,"SoundDuration":458544,"Delta":156855416},{"NoteNumber":53,"Velocity":33,"Duration":834036,"SoundDuration":834036,"Delta":156879924},{"NoteNumber":81,"Velocity":64,"Duration":204764,"SoundDuration":204764,"Delta":156904432},{"NoteNumber":62,"Velocity":40,"Duration":409527,"SoundDuration":409527,"Delta":156904432},{"NoteNumber":79,"Velocity":57,"Duration":204763,"SoundDuration":204763,"Delta":157109196},{"NoteNumber":81,"Velocity":66,"Duration":199999,"SoundDuration":199999,"Delta":157313960},{"NoteNumber":62,"Velocity":40,"Duration":785852,"SoundDuration":785852,"Delta":157313960},{"NoteNumber":79,"Velocity":63,"Duration":200000,"SoundDuration":200000,"Delta":157513960},{"NoteNumber":77,"Velocity":59,"Duration":128617,"SoundDuration":128617,"Delta":157713960},{"NoteNumber":55,"Velocity":40,"Duration":385851,"SoundDuration":385851,"Delta":157713960},{"NoteNumber":74,"Velocity":51,"Duration":128617,"SoundDuration":128617,"Delta":157842578},{"NoteNumber":70,"Velocity":51,"Duration":128617,"SoundDuration":128617,"Delta":157971195},{"NoteNumber":64,"Velocity":36,"Duration":418738,"SoundDuration":418738,"Delta":158099812},{"NoteNumber":69,"Velocity":57,"Duration":309257,"SoundDuration":309257,"Delta":158099812},{"NoteNumber":60,"Velocity":36,"Duration":309257,"SoundDuration":309257,"Delta":158099812},{"NoteNumber":48,"Velocity":36,"Duration":418738,"SoundDuration":418738,"Delta":158099812},{"NoteNumber":67,"Velocity":47,"Duration":109480,"SoundDuration":109480,"Delta":158409070},{"NoteNumber":58,"Velocity":32,"Duration":109480,"SoundDuration":109480,"Delta":158409070},{"NoteNumber":65,"Velocity":54,"Duration":218962,"SoundDuration":218962,"Delta":158518551},{"NoteNumber":53,"Velocity":37,"Duration":218962,"SoundDuration":218962,"Delta":158518551},{"NoteNumber":57,"Velocity":37,"Duration":218962,"SoundDuration":218962,"Delta":158518551},{"NoteNumber":82,"Velocity":58,"Duration":695917,"SoundDuration":695917,"Delta":158956475},{"NoteNumber":50,"Velocity":32,"Duration":379342,"SoundDuration":379342,"Delta":159298472},{"NoteNumber":58,"Velocity":36,"Duration":354914,"SoundDuration":354914,"Delta":159322900},{"NoteNumber":70,"Velocity":40,"Duration":813504,"SoundDuration":813504,"Delta":159347329},{"NoteNumber":65,"Velocity":40,"Duration":415226,"SoundDuration":415226,"Delta":159347329},{"NoteNumber":77,"Velocity":53,"Duration":101688,"SoundDuration":101688,"Delta":159652393},{"NoteNumber":51,"Velocity":27,"Duration":483018,"SoundDuration":483018,"Delta":159677815},{"NoteNumber":54,"Velocity":33,"Duration":457596,"SoundDuration":457596,"Delta":159703237},{"NoteNumber":58,"Velocity":40,"Duration":432174,"SoundDuration":432174,"Delta":159728659},{"NoteNumber":78,"Velocity":57,"Duration":305063,"SoundDuration":305063,"Delta":159754081},{"NoteNumber":66,"Velocity":40,"Duration":406752,"SoundDuration":406752,"Delta":159754081},{"NoteNumber":80,"Velocity":55,"Duration":101688,"SoundDuration":101688,"Delta":160059145},{"NoteNumber":82,"Velocity":58,"Duration":693173,"SoundDuration":693173,"Delta":160160833},{"NoteNumber":50,"Velocity":33,"Duration":303469,"SoundDuration":303469,"Delta":160499521},{"NoteNumber":58,"Velocity":36,"Duration":355802,"SoundDuration":355802,"Delta":160523713},{"NoteNumber":70,"Velocity":40,"Duration":816271,"SoundDuration":816271,"Delta":160547905},{"NoteNumber":65,"Velocity":40,"Duration":331610,"SoundDuration":331610,"Delta":160547905},{"NoteNumber":77,"Velocity":54,"Duration":102034,"SoundDuration":102034,"Delta":160854007},{"NoteNumber":51,"Velocity":27,"Duration":484661,"SoundDuration":484661,"Delta":160879515},{"NoteNumber":54,"Velocity":31,"Duration":459152,"SoundDuration":459152,"Delta":160905024},{"NoteNumber":58,"Velocity":35,"Duration":433644,"SoundDuration":433644,"Delta":160930532},{"NoteNumber":78,"Velocity":61,"Duration":306101,"SoundDuration":306101,"Delta":160956041},{"NoteNumber":66,"Velocity":40,"Duration":408135,"SoundDuration":408135,"Delta":160956041},{"NoteNumber":80,"Velocity":56,"Duration":102034,"SoundDuration":102034,"Delta":161262143},{"NoteNumber":82,"Velocity":61,"Duration":196065,"SoundDuration":196065,"Delta":161364177},{"NoteNumber":73,"Velocity":47,"Duration":196065,"SoundDuration":196065,"Delta":161560242},{"NoteNumber":54,"Velocity":33,"Duration":451701,"SoundDuration":451701,"Delta":161707291},{"NoteNumber":61,"Velocity":33,"Duration":821930,"SoundDuration":821930,"Delta":161731799},{"NoteNumber":89,"Velocity":64,"Duration":201342,"SoundDuration":201342,"Delta":161756308},{"NoteNumber":70,"Velocity":40,"Duration":402684,"SoundDuration":402684,"Delta":161756308},{"NoteNumber":87,"Velocity":57,"Duration":201342,"SoundDuration":201342,"Delta":161957650},{"NoteNumber":89,"Velocity":66,"Duration":197368,"SoundDuration":197368,"Delta":162158993},{"NoteNumber":70,"Velocity":40,"Duration":780588,"SoundDuration":780588,"Delta":162158993},{"NoteNumber":87,"Velocity":63,"Duration":197368,"SoundDuration":197368,"Delta":162356361},{"NoteNumber":85,"Velocity":59,"Duration":128617,"SoundDuration":128617,"Delta":162553730},{"NoteNumber":63,"Velocity":40,"Duration":385851,"SoundDuration":385851,"Delta":162553730},{"NoteNumber":82,"Velocity":51,"Duration":128617,"SoundDuration":128617,"Delta":162682347},{"NoteNumber":78,"Velocity":51,"Duration":128617,"SoundDuration":128617,"Delta":162810964},{"NoteNumber":72,"Velocity":36,"Duration":427248,"SoundDuration":427248,"Delta":162939582},{"NoteNumber":77,"Velocity":57,"Duration":311418,"SoundDuration":311418,"Delta":162939582},{"NoteNumber":66,"Velocity":36,"Duration":427248,"SoundDuration":427248,"Delta":162939582},{"NoteNumber":56,"Velocity":36,"Duration":427248,"SoundDuration":427248,"Delta":162939582},{"NoteNumber":75,"Velocity":47,"Duration":115829,"SoundDuration":115829,"Delta":163251000},{"NoteNumber":73,"Velocity":54,"Duration":218182,"SoundDuration":218182,"Delta":163366830},{"NoteNumber":61,"Velocity":37,"Duration":218182,"SoundDuration":218182,"Delta":163366830},{"NoteNumber":65,"Velocity":37,"Duration":218182,"SoundDuration":218182,"Delta":163366830},{"NoteNumber":80,"Velocity":58,"Duration":693593,"SoundDuration":693593,"Delta":163803194},{"NoteNumber":44,"Velocity":32,"Duration":454336,"SoundDuration":454336,"Delta":164145192},{"NoteNumber":51,"Velocity":36,"Duration":429907,"SoundDuration":429907,"Delta":164169620},{"NoteNumber":68,"Velocity":40,"Duration":810884,"SoundDuration":810884,"Delta":164194048},{"NoteNumber":60,"Velocity":40,"Duration":405479,"SoundDuration":405479,"Delta":164194048},{"NoteNumber":75,"Velocity":50,"Duration":102739,"SoundDuration":102739,"Delta":164496788},{"NoteNumber":77,"Velocity":56,"Duration":304053,"SoundDuration":304053,"Delta":164599528},{"NoteNumber":61,"Velocity":40,"Duration":405405,"SoundDuration":405405,"Delta":164599528},{"NoteNumber":53,"Velocity":40,"Duration":405405,"SoundDuration":405405,"Delta":164599528},{"NoteNumber":78,"Velocity":51,"Duration":101351,"SoundDuration":101351,"Delta":164903582},{"NoteNumber":80,"Velocity":57,"Duration":693173,"SoundDuration":693173,"Delta":165004933},{"NoteNumber":44,"Velocity":33,"Duration":456520,"SoundDuration":456520,"Delta":165343621},{"NoteNumber":51,"Velocity":36,"Duration":432328,"SoundDuration":432328,"Delta":165367813},{"NoteNumber":68,"Velocity":40,"Duration":816271,"SoundDuration":816271,"Delta":165392005},{"NoteNumber":60,"Velocity":40,"Duration":408136,"SoundDuration":408136,"Delta":165392005},{"NoteNumber":75,"Velocity":54,"Duration":102034,"SoundDuration":102034,"Delta":165698107},{"NoteNumber":77,"Velocity":61,"Duration":306101,"SoundDuration":306101,"Delta":165800141},{"NoteNumber":61,"Velocity":40,"Duration":408135,"SoundDuration":408135,"Delta":165800141},{"NoteNumber":53,"Velocity":40,"Duration":408135,"SoundDuration":408135,"Delta":165800141},{"NoteNumber":78,"Velocity":52,"Duration":102034,"SoundDuration":102034,"Delta":166106243},{"NoteNumber":80,"Velocity":57,"Duration":196065,"SoundDuration":196065,"Delta":166208277},{"NoteNumber":70,"Velocity":47,"Duration":196065,"SoundDuration":196065,"Delta":166404342},{"NoteNumber":49,"Velocity":33,"Duration":453056,"SoundDuration":453056,"Delta":166551391},{"NoteNumber":56,"Velocity":33,"Duration":828548,"SoundDuration":828548,"Delta":166575900},{"NoteNumber":84,"Velocity":64,"Duration":202020,"SoundDuration":202020,"Delta":166600408},{"NoteNumber":65,"Velocity":40,"Duration":404040,"SoundDuration":404040,"Delta":166600408},{"NoteNumber":82,"Velocity":57,"Duration":202020,"SoundDuration":202020,"Delta":166802428},{"NoteNumber":84,"Velocity":66,"Duration":199999,"SoundDuration":199999,"Delta":167004448},{"NoteNumber":65,"Velocity":40,"Duration":790879,"SoundDuration":790879,"Delta":167004448},{"NoteNumber":82,"Velocity":63,"Duration":200000,"SoundDuration":200000,"Delta":167204448},{"NoteNumber":80,"Velocity":59,"Duration":130292,"SoundDuration":130292,"Delta":167404448},{"NoteNumber":58,"Velocity":40,"Duration":390879,"SoundDuration":390879,"Delta":167404448},{"NoteNumber":77,"Velocity":51,"Duration":130292,"SoundDuration":130292,"Delta":167534741},{"NoteNumber":73,"Velocity":51,"Duration":130293,"SoundDuration":130293,"Delta":167665034},{"NoteNumber":72,"Velocity":57,"Duration":311418,"SoundDuration":311418,"Delta":167795327},{"NoteNumber":67,"Velocity":36,"Duration":424200,"SoundDuration":424200,"Delta":167795327},{"NoteNumber":61,"Velocity":36,"Duration":424200,"SoundDuration":424200,"Delta":167795327},{"NoteNumber":51,"Velocity":36,"Duration":424200,"SoundDuration":424200,"Delta":167795327},{"NoteNumber":70,"Velocity":47,"Duration":112782,"SoundDuration":112782,"Delta":168106746},{"NoteNumber":68,"Velocity":54,"Duration":218182,"SoundDuration":218182,"Delta":168219528},{"NoteNumber":56,"Velocity":37,"Duration":218182,"SoundDuration":218182,"Delta":168219528},{"NoteNumber":60,"Velocity":37,"Duration":218182,"SoundDuration":218182,"Delta":168219528},{"NoteNumber":54,"Velocity":46,"Duration":685074,"SoundDuration":685074,"Delta":168655892},{"NoteNumber":68,"Velocity":40,"Duration":799191,"SoundDuration":799191,"Delta":169035903},{"NoteNumber":63,"Velocity":34,"Duration":799191,"SoundDuration":799191,"Delta":169035903},{"NoteNumber":60,"Velocity":34,"Duration":799191,"SoundDuration":799191,"Delta":169035903},{"NoteNumber":44,"Velocity":32,"Duration":799191,"SoundDuration":799191,"Delta":169035903},{"NoteNumber":50,"Velocity":43,"Duration":101688,"SoundDuration":101688,"Delta":169340967},{"NoteNumber":51,"Velocity":49,"Duration":294329,"SoundDuration":294329,"Delta":169442655},{"NoteNumber":53,"Velocity":42,"Duration":98109,"SoundDuration":98109,"Delta":169736984},{"NoteNumber":69,"Velocity":52,"Duration":688719,"SoundDuration":688719,"Delta":169835094},{"NoteNumber":54,"Velocity":49,"Duration":790408,"SoundDuration":790408,"Delta":169835094},{"NoteNumber":44,"Velocity":32,"Duration":801788,"SoundDuration":801788,"Delta":170218750},{"NoteNumber":62,"Velocity":45,"Duration":101688,"SoundDuration":101688,"Delta":170523814},{"NoteNumber":63,"Velocity":50,"Duration":296604,"SoundDuration":296604,"Delta":170625502},{"NoteNumber":65,"Velocity":45,"Duration":98431,"SoundDuration":98431,"Delta":170922106},{"NoteNumber":60,"Velocity":50,"Duration":1184135,"SoundDuration":1184135,"Delta":171020538},{"NoteNumber":66,"Velocity":51,"Duration":1184135,"SoundDuration":1184135,"Delta":171020538},{"NoteNumber":51,"Velocity":46,"Duration":688719,"SoundDuration":688719,"Delta":171020538},{"NoteNumber":44,"Velocity":32,"Duration":800479,"SoundDuration":800479,"Delta":171404194},{"NoteNumber":47,"Velocity":42,"Duration":101688,"SoundDuration":101688,"Delta":171709258},{"NoteNumber":48,"Velocity":49,"Duration":295295,"SoundDuration":295295,"Delta":171810946},{"NoteNumber":49,"Velocity":44,"Duration":98431,"SoundDuration":98431,"Delta":172106241},{"NoteNumber":66,"Velocity":52,"Duration":688719,"SoundDuration":688719,"Delta":172204673},{"NoteNumber":51,"Velocity":48,"Duration":790408,"SoundDuration":790408,"Delta":172204673},{"NoteNumber":44,"Velocity":32,"Duration":1183231,"SoundDuration":1183231,"Delta":172588329},{"NoteNumber":59,"Velocity":45,"Duration":101688,"SoundDuration":101688,"Delta":172893393},{"NoteNumber":60,"Velocity":50,"Duration":295629,"SoundDuration":295629,"Delta":172995081},{"NoteNumber":61,"Velocity":45,"Duration":98109,"SoundDuration":98109,"Delta":173290710},{"NoteNumber":63,"Velocity":51,"Duration":789491,"SoundDuration":789491,"Delta":173388820},{"NoteNumber":45,"Velocity":32,"Duration":1181624,"SoundDuration":1181624,"Delta":173771560},{"NoteNumber":53,"Velocity":45,"Duration":101687,"SoundDuration":101687,"Delta":174076624},{"NoteNumber":63,"Velocity":51,"Duration":392438,"SoundDuration":392438,"Delta":174178312},{"NoteNumber":54,"Velocity":50,"Duration":294329,"SoundDuration":294329,"Delta":174178312},{"NoteNumber":56,"Velocity":45,"Duration":98109,"SoundDuration":98109,"Delta":174472641},{"NoteNumber":57,"Velocity":51,"Duration":1182912,"SoundDuration":1182912,"Delta":174570751},{"NoteNumber":47,"Velocity":32,"Duration":1184134,"SoundDuration":1184134,"Delta":174953185},{"NoteNumber":50,"Velocity":45,"Duration":101687,"SoundDuration":101687,"Delta":175258249},{"NoteNumber":51,"Velocity":50,"Duration":295295,"SoundDuration":295295,"Delta":175359937},{"NoteNumber":52,"Velocity":45,"Duration":98431,"SoundDuration":98431,"Delta":175655232},{"NoteNumber":54,"Velocity":51,"Duration":1204200,"SoundDuration":1204200,"Delta":175753664},{"NoteNumber":48,"Velocity":32,"Duration":1040324,"SoundDuration":1040324,"Delta":176137320},{"NoteNumber":49,"Velocity":45,"Duration":101687,"SoundDuration":101687,"Delta":176442384},{"NoteNumber":50,"Velocity":50,"Duration":310344,"SoundDuration":310344,"Delta":176544072},{"NoteNumber":52,"Velocity":51,"Duration":103448,"SoundDuration":103448,"Delta":176854416},{"NoteNumber":54,"Velocity":55,"Duration":459779,"SoundDuration":459779,"Delta":176957865},{"NoteNumber":50,"Velocity":43,"Duration":240000,"SoundDuration":240000,"Delta":177177645},{"NoteNumber":52,"Velocity":49,"Duration":232558,"SoundDuration":232558,"Delta":177417645},{"NoteNumber":54,"Velocity":53,"Duration":687102,"SoundDuration":687102,"Delta":177650203},{"NoteNumber":55,"Velocity":40,"Duration":93335,"SoundDuration":93335,"Delta":178337306},{"NoteNumber":31,"Velocity":44,"Duration":694532,"SoundDuration":694532,"Delta":178337306},{"NoteNumber":57,"Velocity":32,"Duration":93335,"SoundDuration":93335,"Delta":178430641},{"NoteNumber":55,"Velocity":34,"Duration":93335,"SoundDuration":93335,"Delta":178523977},{"NoteNumber":50,"Velocity":34,"Duration":101805,"SoundDuration":101805,"Delta":178617313},{"NoteNumber":62,"Velocity":40,"Duration":81063,"SoundDuration":81063,"Delta":178719118},{"NoteNumber":50,"Velocity":40,"Duration":72412,"SoundDuration":72412,"Delta":179031838},{"NoteNumber":55,"Velocity":40,"Duration":72412,"SoundDuration":72412,"Delta":179031838},{"NoteNumber":34,"Velocity":35,"Duration":72412,"SoundDuration":72412,"Delta":179031838},{"NoteNumber":48,"Velocity":46,"Duration":72412,"SoundDuration":72412,"Delta":179128388},{"NoteNumber":54,"Velocity":46,"Duration":72412,"SoundDuration":72412,"Delta":179128388},{"NoteNumber":33,"Velocity":40,"Duration":72412,"SoundDuration":72412,"Delta":179128388},{"NoteNumber":60,"Velocity":43,"Duration":93335,"SoundDuration":93335,"Delta":179514588},{"NoteNumber":62,"Velocity":37,"Duration":93335,"SoundDuration":93335,"Delta":179607923},{"NoteNumber":60,"Velocity":37,"Duration":93335,"SoundDuration":93335,"Delta":179701259},{"NoteNumber":57,"Velocity":37,"Duration":102929,"SoundDuration":102929,"Delta":179794595},{"NoteNumber":69,"Velocity":49,"Duration":79832,"SoundDuration":79832,"Delta":179897525},{"NoteNumber":60,"Velocity":44,"Duration":72161,"SoundDuration":72161,"Delta":180206627},{"NoteNumber":50,"Velocity":44,"Duration":72161,"SoundDuration":72161,"Delta":180206627},{"NoteNumber":30,"Velocity":33,"Duration":72161,"SoundDuration":72161,"Delta":180206627},{"NoteNumber":58,"Velocity":48,"Duration":72161,"SoundDuration":72161,"Delta":180302842},{"NoteNumber":50,"Velocity":48,"Duration":72161,"SoundDuration":72161,"Delta":180302842},{"NoteNumber":31,"Velocity":40,"Duration":72161,"SoundDuration":72161,"Delta":180302842},{"NoteNumber":55,"Velocity":40,"Duration":93644,"SoundDuration":93644,"Delta":180687704},{"NoteNumber":57,"Velocity":34,"Duration":93644,"SoundDuration":93644,"Delta":180781349},{"NoteNumber":55,"Velocity":34,"Duration":93644,"SoundDuration":93644,"Delta":180874994},{"NoteNumber":50,"Velocity":34,"Duration":102550,"SoundDuration":102550,"Delta":180968639},{"NoteNumber":67,"Velocity":50,"Duration":73940,"SoundDuration":73940,"Delta":181071189},{"NoteNumber":65,"Velocity":44,"Duration":72161,"SoundDuration":72161,"Delta":181364578},{"NoteNumber":55,"Velocity":44,"Duration":72161,"SoundDuration":72161,"Delta":181364578},{"NoteNumber":34,"Velocity":32,"Duration":72161,"SoundDuration":72161,"Delta":181364578},{"NoteNumber":63,"Velocity":47,"Duration":71428,"SoundDuration":71428,"Delta":181460794},{"NoteNumber":55,"Velocity":47,"Duration":71428,"SoundDuration":71428,"Delta":181460794},{"NoteNumber":36,"Velocity":37,"Duration":71428,"SoundDuration":71428,"Delta":181460794},{"NoteNumber":62,"Velocity":40,"Duration":74198,"SoundDuration":74198,"Delta":181746508},{"NoteNumber":55,"Velocity":40,"Duration":74198,"SoundDuration":74198,"Delta":181746508},{"NoteNumber":38,"Velocity":33,"Duration":74198,"SoundDuration":74198,"Delta":181746508},{"NoteNumber":60,"Velocity":44,"Duration":71184,"SoundDuration":71184,"Delta":181845439},{"NoteNumber":55,"Velocity":44,"Duration":71184,"SoundDuration":71184,"Delta":181845439},{"NoteNumber":39,"Velocity":38,"Duration":71184,"SoundDuration":71184,"Delta":181845439},{"NoteNumber":58,"Velocity":50,"Duration":73940,"SoundDuration":73940,"Delta":182130177},{"NoteNumber":61,"Velocity":46,"Duration":71917,"SoundDuration":71917,"Delta":182228764},{"NoteNumber":57,"Velocity":46,"Duration":71917,"SoundDuration":71917,"Delta":182228764},{"NoteNumber":51,"Velocity":40,"Duration":71917,"SoundDuration":71917,"Delta":182228764},{"NoteNumber":55,"Velocity":40,"Duration":81374,"SoundDuration":81374,"Delta":182516433},{"NoteNumber":62,"Velocity":50,"Duration":72161,"SoundDuration":72161,"Delta":182624932},{"NoteNumber":54,"Velocity":50,"Duration":72161,"SoundDuration":72161,"Delta":182624932},{"NoteNumber":38,"Velocity":45,"Duration":72161,"SoundDuration":72161,"Delta":182624932},{"NoteNumber":50,"Velocity":45,"Duration":72161,"SoundDuration":72161,"Delta":182624932},{"NoteNumber":74,"Velocity":72,"Duration":673508,"SoundDuration":673508,"Delta":183009794},{"NoteNumber":62,"Velocity":61,"Duration":763965,"SoundDuration":763965,"Delta":183394656},{"NoteNumber":30,"Velocity":40,"Duration":384861,"SoundDuration":384861,"Delta":183394656},{"NoteNumber":72,"Velocity":58,"Duration":96215,"SoundDuration":96215,"Delta":183683302},{"NoteNumber":70,"Velocity":65,"Duration":70471,"SoundDuration":70471,"Delta":183779518},{"NoteNumber":31,"Velocity":44,"Duration":187923,"SoundDuration":187923,"Delta":183779518},{"NoteNumber":69,"Velocity":55,"Duration":72914,"SoundDuration":72914,"Delta":184061402},{"NoteNumber":70,"Velocity":64,"Duration":378489,"SoundDuration":378489,"Delta":184158622},{"NoteNumber":67,"Velocity":64,"Duration":70233,"SoundDuration":70233,"Delta":184158622},{"NoteNumber":55,"Velocity":60,"Duration":660373,"SoundDuration":660373,"Delta":184158622},{"NoteNumber":65,"Velocity":56,"Duration":73166,"SoundDuration":73166,"Delta":184439556},{"NoteNumber":63,"Velocity":64,"Duration":70471,"SoundDuration":70471,"Delta":184537111},{"NoteNumber":62,"Velocity":56,"Duration":73166,"SoundDuration":73166,"Delta":184818995},{"NoteNumber":53,"Velocity":51,"Duration":97554,"SoundDuration":97554,"Delta":184818995},{"NoteNumber":60,"Velocity":64,"Duration":70233,"SoundDuration":70233,"Delta":184916550},{"NoteNumber":51,"Velocity":58,"Duration":70233,"SoundDuration":70233,"Delta":184916550},{"NoteNumber":50,"Velocity":51,"Duration":72914,"SoundDuration":72914,"Delta":185197484},{"NoteNumber":77,"Velocity":68,"Duration":673508,"SoundDuration":673508,"Delta":185294704},{"NoteNumber":48,"Velocity":57,"Duration":72161,"SoundDuration":72161,"Delta":185294704},{"NoteNumber":46,"Velocity":50,"Duration":72161,"SoundDuration":72161,"Delta":185583350},{"NoteNumber":65,"Velocity":61,"Duration":763965,"SoundDuration":763965,"Delta":185679566},{"NoteNumber":33,"Velocity":40,"Duration":384861,"SoundDuration":384861,"Delta":185679566},{"NoteNumber":75,"Velocity":58,"Duration":96215,"SoundDuration":96215,"Delta":185968212},{"NoteNumber":74,"Velocity":65,"Duration":70471,"SoundDuration":70471,"Delta":186064428},{"NoteNumber":34,"Velocity":44,"Duration":187923,"SoundDuration":187923,"Delta":186064428},{"NoteNumber":72,"Velocity":55,"Duration":72914,"SoundDuration":72914,"Delta":186346312},{"NoteNumber":70,"Velocity":64,"Duration":70233,"SoundDuration":70233,"Delta":186443532},{"NoteNumber":74,"Velocity":64,"Duration":378489,"SoundDuration":378489,"Delta":186443532},{"NoteNumber":58,"Velocity":60,"Duration":660373,"SoundDuration":660373,"Delta":186443532},{"NoteNumber":69,"Velocity":56,"Duration":73166,"SoundDuration":73166,"Delta":186724466},{"NoteNumber":67,"Velocity":64,"Duration":70471,"SoundDuration":70471,"Delta":186822021},{"NoteNumber":65,"Velocity":56,"Duration":73166,"SoundDuration":73166,"Delta":187103905},{"NoteNumber":57,"Velocity":51,"Duration":97554,"SoundDuration":97554,"Delta":187103905},{"NoteNumber":64,"Velocity":64,"Duration":70233,"SoundDuration":70233,"Delta":187201460},{"NoteNumber":55,"Velocity":58,"Duration":70233,"SoundDuration":70233,"Delta":187201460},{"NoteNumber":53,"Velocity":51,"Duration":72914,"SoundDuration":72914,"Delta":187482394},{"NoteNumber":81,"Velocity":70,"Duration":673508,"SoundDuration":673508,"Delta":187579614},{"NoteNumber":52,"Velocity":57,"Duration":72161,"SoundDuration":72161,"Delta":187579614},{"NoteNumber":50,"Velocity":50,"Duration":72161,"SoundDuration":72161,"Delta":187868260},{"NoteNumber":69,"Velocity":61,"Duration":763965,"SoundDuration":763965,"Delta":187964476},{"NoteNumber":37,"Velocity":40,"Duration":384861,"SoundDuration":384861,"Delta":187964476},{"NoteNumber":79,"Velocity":58,"Duration":96215,"SoundDuration":96215,"Delta":188253122},{"NoteNumber":78,"Velocity":65,"Duration":70471,"SoundDuration":70471,"Delta":188349338},{"NoteNumber":38,"Velocity":44,"Duration":187923,"SoundDuration":187923,"Delta":188349338},{"NoteNumber":75,"Velocity":55,"Duration":72914,"SoundDuration":72914,"Delta":188631222},{"NoteNumber":74,"Velocity":64,"Duration":70233,"SoundDuration":70233,"Delta":188728442},{"NoteNumber":78,"Velocity":64,"Duration":378489,"SoundDuration":378489,"Delta":188728442},{"NoteNumber":62,"Velocity":58,"Duration":660373,"SoundDuration":660373,"Delta":188728442},{"NoteNumber":72,"Velocity":56,"Duration":73166,"SoundDuration":73166,"Delta":189009376},{"NoteNumber":79,"Velocity":64,"Duration":93961,"SoundDuration":93961,"Delta":189106931},{"NoteNumber":70,"Velocity":64,"Duration":70471,"SoundDuration":70471,"Delta":189106931},{"NoteNumber":69,"Velocity":56,"Duration":73166,"SoundDuration":73166,"Delta":189388815},{"NoteNumber":60,"Velocity":51,"Duration":97554,"SoundDuration":97554,"Delta":189388815},{"NoteNumber":67,"Velocity":64,"Duration":70233,"SoundDuration":70233,"Delta":189486370},{"NoteNumber":58,"Velocity":58,"Duration":70233,"SoundDuration":70233,"Delta":189486370},{"NoteNumber":57,"Velocity":51,"Duration":72914,"SoundDuration":72914,"Delta":189767304},{"NoteNumber":70,"Velocity":71,"Duration":384861,"SoundDuration":384861,"Delta":189864524},{"NoteNumber":55,"Velocity":57,"Duration":72161,"SoundDuration":72161,"Delta":189864524},{"NoteNumber":53,"Velocity":50,"Duration":72161,"SoundDuration":72161,"Delta":190153170},{"NoteNumber":69,"Velocity":52,"Duration":288646,"SoundDuration":288646,"Delta":190249386},{"NoteNumber":73,"Velocity":62,"Duration":384861,"SoundDuration":384861,"Delta":190249386},{"NoteNumber":52,"Velocity":57,"Duration":72161,"SoundDuration":72161,"Delta":190249386},{"NoteNumber":67,"Velocity":58,"Duration":96215,"SoundDuration":96215,"Delta":190538032},{"NoteNumber":51,"Velocity":50,"Duration":72161,"SoundDuration":72161,"Delta":190538032},{"NoteNumber":66,"Velocity":56,"Duration":187923,"SoundDuration":187923,"Delta":190634248},{"NoteNumber":74,"Velocity":61,"Duration":187923,"SoundDuration":187923,"Delta":190634248},{"NoteNumber":50,"Velocity":58,"Duration":187923,"SoundDuration":187923,"Delta":190634248},{"NoteNumber":63,"Velocity":51,"Duration":72914,"SoundDuration":72914,"Delta":190916132},{"NoteNumber":62,"Velocity":59,"Duration":190475,"SoundDuration":190475,"Delta":191013352},{"NoteNumber":66,"Velocity":59,"Duration":387754,"SoundDuration":387754,"Delta":191013352},{"NoteNumber":50,"Velocity":60,"Duration":679017,"SoundDuration":679017,"Delta":191013352},{"NoteNumber":60,"Velocity":49,"Duration":76530,"SoundDuration":76530,"Delta":191299066},{"NoteNumber":58,"Velocity":55,"Duration":194175,"SoundDuration":194175,"Delta":191401107},{"NoteNumber":67,"Velocity":55,"Duration":194175,"SoundDuration":194175,"Delta":191401107},{"NoteNumber":57,"Velocity":47,"Duration":77586,"SoundDuration":77586,"Delta":191692369},{"NoteNumber":48,"Velocity":43,"Duration":103448,"SoundDuration":103448,"Delta":191692369},{"NoteNumber":55,"Velocity":54,"Duration":431174,"SoundDuration":431174,"Delta":191795817},{"NoteNumber":46,"Velocity":53,"Duration":315789,"SoundDuration":315789,"Delta":191795817},{"NoteNumber":45,"Velocity":49,"Duration":115384,"SoundDuration":115384,"Delta":192111607},{"NoteNumber":58,"Velocity":56,"Duration":452453,"SoundDuration":452453,"Delta":192226992},{"NoteNumber":43,"Velocity":48,"Duration":218977,"SoundDuration":218977,"Delta":192226992},{"NoteNumber":41,"Velocity":42,"Duration":233475,"SoundDuration":233475,"Delta":192445970},{"NoteNumber":61,"Velocity":47,"Duration":618687,"SoundDuration":618687,"Delta":192679445},{"NoteNumber":57,"Velocity":47,"Duration":277778,"SoundDuration":277778,"Delta":192679445},{"NoteNumber":40,"Velocity":41,"Duration":277778,"SoundDuration":277778,"Delta":192679445},{"NoteNumber":55,"Velocity":38,"Duration":340909,"SoundDuration":340909,"Delta":192957223},{"NoteNumber":39,"Velocity":32,"Duration":340909,"SoundDuration":340909,"Delta":192957223},{"NoteNumber":38,"Velocity":47,"Duration":1818182,"SoundDuration":1818182,"Delta":193298132},{"NoteNumber":54,"Velocity":35,"Duration":1590909,"SoundDuration":1590909,"Delta":193525405},{"NoteNumber":62,"Velocity":42,"Duration":1590909,"SoundDuration":1590909,"Delta":193525405},{"NoteNumber":45,"Velocity":29,"Duration":1590909,"SoundDuration":1590909,"Delta":193525405}],"license":{"name":"Creative Commons Attribution-ShareAlike 3.0 Germany","url":"http://creativecommons.org/licenses/by-sa/3.0/de/deed.en","text":"The MIDI, audio (MP3, OGG) and video files of Bernd Krueger are licensed under the cc-by-sa Germany License. This means that you can use and adapt the files, as long as you attribute the copyright holder.\n\nName: Bernd Krueger\nSource: http://www.piano-midi.de\n\nThe distribution or public playback of the files is only allowed under identical license conditions.\n\nThe scores are open source.","attribution":"MIDI files by Bernd Krueger (piano-midi.de)","attributionUrl":"http://www.piano-midi.de"}}