{"title":"Kreisleriana, Op. 16 No. 2","artist":"Schumann","durationMs":436134,"midiSha256":"9802aa8ffb7f778819ad00f0a4c817589476e6c2b2f4d9dc215997428e3fa139","midiObject":[{"NoteNumber":58,"Velocity":25,"Duration":373878,"SoundDuration":373878,"Delta":0},{"NoteNumber":70,"Velocity":43,"Duration":373878,"SoundDuration":373878,"Delta":0},{"NoteNumber":50,"Velocity":33,"Duration":373878,"SoundDuration":373878,"Delta":0},{"NoteNumber":72,"Velocity":43,"Duration":373878,"SoundDuration":373878,"Delta":373878},{"NoteNumber":60,"Velocity":25,"Duration":373878,"SoundDuration":373878,"Delta":373878},{"NoteNumber":53,"Velocity":33,"Duration":373878,"SoundDuration":373878,"Delta":373878},{"NoteNumber":62,"Velocity":26,"Duration":361228,"SoundDuration":361228,"Delta":747757},{"NoteNumber":74,"Velocity":44,"Duration":361228,"SoundDuration":361228,"Delta":747757},{"NoteNumber":58,"Velocity":34,"Duration":361228,"SoundDuration":361228,"Delta":747757},{"NoteNumber":46,"Velocity":28,"Duration":1467206,"SoundDuration":1467206,"Delta":747757},{"NoteNumber":65,"Velocity":28,"Duration":379410,"SoundDuration":379410,"Delta":1108985},{"NoteNumber":77,"Velocity":53,"Duration":379410,"SoundDuration":379410,"Delta":1108985},{"NoteNumber":62,"Velocity":36,"Duration":379410,"SoundDuration":379410,"Delta":1108985},{"NoteNumber":79,"Velocity":60,"Duration":363284,"SoundDuration":363284,"Delta":1488395},{"NoteNumber":67,"Velocity":30,"Duration":363284,"SoundDuration":363284,"Delta":1488395},{"NoteNumber":63,"Velocity":39,"Duration":363284,"SoundDuration":363284,"Delta":1488395},{"NoteNumber":77,"Velocity":42,"Duration":363283,"SoundDuration":363283,"Delta":1851679},{"NoteNumber":65,"Velocity":24,"Duration":363283,"SoundDuration":363283,"Delta":1851679},{"NoteNumber":62,"Velocity":44,"Duration":360256,"SoundDuration":360256,"Delta":1851679},{"NoteNumber":74,"Velocity":44,"Duration":371747,"SoundDuration":371747,"Delta":2214963},{"NoteNumber":62,"Velocity":26,"Duration":371747,"SoundDuration":371747,"Delta":2214963},{"NoteNumber":58,"Velocity":42,"Duration":368649,"SoundDuration":368649,"Delta":2214963},{"NoteNumber":70,"Velocity":39,"Duration":415110,"SoundDuration":415110,"Delta":2586710},{"NoteNumber":58,"Velocity":23,"Duration":415110,"SoundDuration":415110,"Delta":2586710},{"NoteNumber":53,"Velocity":36,"Duration":415110,"SoundDuration":415110,"Delta":2586710},{"NoteNumber":41,"Velocity":43,"Duration":2366993,"SoundDuration":2366993,"Delta":2794265},{"NoteNumber":60,"Velocity":27,"Duration":2159437,"SoundDuration":2159437,"Delta":3001820},{"NoteNumber":65,"Velocity":38,"Duration":2159437,"SoundDuration":2159437,"Delta":3001820},{"NoteNumber":57,"Velocity":27,"Duration":2159437,"SoundDuration":2159437,"Delta":3001820},{"NoteNumber":51,"Velocity":23,"Duration":2159437,"SoundDuration":2159437,"Delta":3001820},{"NoteNumber":53,"Velocity":34,"Duration":2159437,"SoundDuration":2159437,"Delta":3001820},{"NoteNumber":58,"Velocity":30,"Duration":373878,"SoundDuration":373878,"Delta":5161258},{"NoteNumber":70,"Velocity":43,"Duration":373878,"SoundDuration":373878,"Delta":5161258},{"NoteNumber":50,"Velocity":39,"Duration":373878,"SoundDuration":373878,"Delta":5161258},{"NoteNumber":72,"Velocity":43,"Duration":373878,"SoundDuration":373878,"Delta":5535137},{"NoteNumber":60,"Velocity":30,"Duration":373878,"SoundDuration":373878,"Delta":5535137},{"NoteNumber":53,"Velocity":39,"Duration":373878,"SoundDuration":373878,"Delta":5535137},{"NoteNumber":74,"Velocity":44,"Duration":361227,"SoundDuration":361227,"Delta":5909015},{"NoteNumber":62,"Velocity":31,"Duration":361227,"SoundDuration":361227,"Delta":5909015},{"NoteNumber":58,"Velocity":41,"Duration":361227,"SoundDuration":361227,"Delta":5909015},{"NoteNumber":46,"Velocity":34,"Duration":1475894,"SoundDuration":1475894,"Delta":5909015},{"NoteNumber":65,"Velocity":34,"Duration":388098,"SoundDuration":388098,"Delta":6270243},{"NoteNumber":77,"Velocity":53,"Duration":388098,"SoundDuration":388098,"Delta":6270243},{"NoteNumber":62,"Velocity":43,"Duration":388098,"SoundDuration":388098,"Delta":6270243},{"NoteNumber":67,"Velocity":36,"Duration":363284,"SoundDuration":363284,"Delta":6658342},{"NoteNumber":79,"Velocity":58,"Duration":363284,"SoundDuration":363284,"Delta":6658342},{"NoteNumber":63,"Velocity":46,"Duration":363284,"SoundDuration":363284,"Delta":6658342},{"NoteNumber":77,"Velocity":42,"Duration":363284,"SoundDuration":363284,"Delta":7021626},{"NoteNumber":65,"Velocity":29,"Duration":363284,"SoundDuration":363284,"Delta":7021626},{"NoteNumber":62,"Velocity":44,"Duration":360256,"SoundDuration":360256,"Delta":7021626},{"NoteNumber":62,"Velocity":31,"Duration":371746,"SoundDuration":371746,"Delta":7384910},{"NoteNumber":74,"Velocity":44,"Duration":371746,"SoundDuration":371746,"Delta":7384910},{"NoteNumber":58,"Velocity":42,"Duration":368649,"SoundDuration":368649,"Delta":7384910},{"NoteNumber":58,"Velocity":28,"Duration":415110,"SoundDuration":415110,"Delta":7756657},{"NoteNumber":70,"Velocity":39,"Duration":415110,"SoundDuration":415110,"Delta":7756657},{"NoteNumber":53,"Velocity":36,"Duration":415110,"SoundDuration":415110,"Delta":7756657},{"NoteNumber":41,"Velocity":43,"Duration":2347737,"SoundDuration":2347737,"Delta":7964211},{"NoteNumber":60,"Velocity":27,"Duration":2140181,"SoundDuration":2140181,"Delta":8171767},{"NoteNumber":57,"Velocity":27,"Duration":2140181,"SoundDuration":2140181,"Delta":8171767},{"NoteNumber":65,"Velocity":38,"Duration":2140181,"SoundDuration":2140181,"Delta":8171767},{"NoteNumber":53,"Velocity":34,"Duration":2140181,"SoundDuration":2140181,"Delta":8171767},{"NoteNumber":51,"Velocity":28,"Duration":2140181,"SoundDuration":2140181,"Delta":8171767},{"NoteNumber":58,"Velocity":30,"Duration":373878,"SoundDuration":373878,"Delta":10311948},{"NoteNumber":70,"Velocity":43,"Duration":373878,"SoundDuration":373878,"Delta":10311948},{"NoteNumber":50,"Velocity":39,"Duration":373878,"SoundDuration":373878,"Delta":10311948},{"NoteNumber":72,"Velocity":43,"Duration":373878,"SoundDuration":373878,"Delta":10685827},{"NoteNumber":60,"Velocity":30,"Duration":373878,"SoundDuration":373878,"Delta":10685827},{"NoteNumber":53,"Velocity":39,"Duration":373878,"SoundDuration":373878,"Delta":10685827},{"NoteNumber":62,"Velocity":40,"Duration":361228,"SoundDuration":361228,"Delta":11059705},{"NoteNumber":74,"Velocity":44,"Duration":2020561,"SoundDuration":2020561,"Delta":11059705},{"NoteNumber":46,"Velocity":34,"Duration":1457390,"SoundDuration":1457390,"Delta":11059705},{"NoteNumber":58,"Velocity":41,"Duration":361228,"SoundDuration":361228,"Delta":11059705},{"NoteNumber":65,"Velocity":48,"Duration":369594,"SoundDuration":369594,"Delta":11420934},{"NoteNumber":62,"Velocity":43,"Duration":369594,"SoundDuration":369594,"Delta":11420934},{"NoteNumber":67,"Velocity":55,"Duration":363284,"SoundDuration":363284,"Delta":11790528},{"NoteNumber":63,"Velocity":48,"Duration":363284,"SoundDuration":363284,"Delta":11790528},{"NoteNumber":65,"Velocity":47,"Duration":363284,"SoundDuration":363284,"Delta":12153812},{"NoteNumber":62,"Velocity":47,"Duration":360256,"SoundDuration":360256,"Delta":12153812},{"NoteNumber":62,"Velocity":50,"Duration":371746,"SoundDuration":371746,"Delta":12517096},{"NoteNumber":58,"Velocity":46,"Duration":368649,"SoundDuration":368649,"Delta":12517096},{"NoteNumber":58,"Velocity":40,"Duration":382848,"SoundDuration":382848,"Delta":12888843},{"NoteNumber":53,"Velocity":40,"Duration":382848,"SoundDuration":382848,"Delta":12888843},{"NoteNumber":70,"Velocity":53,"Duration":191424,"SoundDuration":191424,"Delta":13080267},{"NoteNumber":77,"Velocity":58,"Duration":1253698,"SoundDuration":1253698,"Delta":13271691},{"NoteNumber":65,"Velocity":35,"Duration":361228,"SoundDuration":361228,"Delta":13271691},{"NoteNumber":48,"Velocity":39,"Duration":1435340,"SoundDuration":1435340,"Delta":13271691},{"NoteNumber":57,"Velocity":39,"Duration":361228,"SoundDuration":361228,"Delta":13271691},{"NoteNumber":69,"Velocity":41,"Duration":347543,"SoundDuration":347543,"Delta":13632920},{"NoteNumber":60,"Velocity":34,"Duration":347543,"SoundDuration":347543,"Delta":13632920},{"NoteNumber":70,"Velocity":42,"Duration":363284,"SoundDuration":363284,"Delta":13980463},{"NoteNumber":62,"Velocity":40,"Duration":363284,"SoundDuration":363284,"Delta":13980463},{"NoteNumber":69,"Velocity":34,"Duration":363284,"SoundDuration":363284,"Delta":14343747},{"NoteNumber":60,"Velocity":33,"Duration":363284,"SoundDuration":363284,"Delta":14343747},{"NoteNumber":76,"Velocity":57,"Duration":181642,"SoundDuration":181642,"Delta":14525389},{"NoteNumber":65,"Velocity":32,"Duration":371746,"SoundDuration":371746,"Delta":14707031},{"NoteNumber":74,"Velocity":62,"Duration":566653,"SoundDuration":566653,"Delta":14707031},{"NoteNumber":57,"Velocity":37,"Duration":371746,"SoundDuration":371746,"Delta":14707031},{"NoteNumber":60,"Velocity":28,"Duration":389813,"SoundDuration":389813,"Delta":15078778},{"NoteNumber":53,"Velocity":31,"Duration":389813,"SoundDuration":389813,"Delta":15078778},{"NoteNumber":72,"Velocity":55,"Duration":194906,"SoundDuration":194906,"Delta":15273685},{"NoteNumber":36,"Velocity":32,"Duration":194906,"SoundDuration":194906,"Delta":15273685},{"NoteNumber":58,"Velocity":34,"Duration":361228,"SoundDuration":361228,"Delta":15468591},{"NoteNumber":72,"Velocity":59,"Duration":1094106,"SoundDuration":1094106,"Delta":15468591},{"NoteNumber":51,"Velocity":27,"Duration":361228,"SoundDuration":361228,"Delta":15468591},{"NoteNumber":60,"Velocity":37,"Duration":369594,"SoundDuration":369594,"Delta":15829820},{"NoteNumber":52,"Velocity":31,"Duration":369594,"SoundDuration":369594,"Delta":15829820},{"NoteNumber":69,"Velocity":39,"Duration":363284,"SoundDuration":363284,"Delta":16199414},{"NoteNumber":60,"Velocity":36,"Duration":363284,"SoundDuration":363284,"Delta":16199414},{"NoteNumber":67,"Velocity":29,"Duration":380566,"SoundDuration":380566,"Delta":16562698},{"NoteNumber":70,"Velocity":41,"Duration":380566,"SoundDuration":380566,"Delta":16562698},{"NoteNumber":58,"Velocity":33,"Duration":380566,"SoundDuration":380566,"Delta":16562698},{"NoteNumber":69,"Velocity":46,"Duration":394684,"SoundDuration":394684,"Delta":16943264},{"NoteNumber":64,"Velocity":37,"Duration":263123,"SoundDuration":263123,"Delta":16943264},{"NoteNumber":55,"Velocity":28,"Duration":263123,"SoundDuration":263123,"Delta":16943264},{"NoteNumber":60,"Velocity":28,"Duration":293374,"SoundDuration":293374,"Delta":17206387},{"NoteNumber":52,"Velocity":25,"Duration":293374,"SoundDuration":293374,"Delta":17206387},{"NoteNumber":67,"Velocity":41,"Duration":485437,"SoundDuration":485437,"Delta":17337949},{"NoteNumber":58,"Velocity":28,"Duration":323624,"SoundDuration":323624,"Delta":17499761},{"NoteNumber":49,"Velocity":25,"Duration":323624,"SoundDuration":323624,"Delta":17499761},{"NoteNumber":56,"Velocity":29,"Duration":294036,"SoundDuration":294036,"Delta":17823386},{"NoteNumber":65,"Velocity":42,"Duration":2717012,"SoundDuration":2717012,"Delta":17823386},{"NoteNumber":41,"Velocity":36,"Duration":2717012,"SoundDuration":2717012,"Delta":17823386},{"NoteNumber":47,"Velocity":25,"Duration":294036,"SoundDuration":294036,"Delta":17823386},{"NoteNumber":57,"Velocity":27,"Duration":294036,"SoundDuration":294036,"Delta":18100126},{"NoteNumber":48,"Velocity":22,"Duration":294036,"SoundDuration":294036,"Delta":18100126},{"NoteNumber":58,"Velocity":27,"Duration":276740,"SoundDuration":276740,"Delta":18376866},{"NoteNumber":50,"Velocity":22,"Duration":276740,"SoundDuration":276740,"Delta":18376866},{"NoteNumber":57,"Velocity":29,"Duration":1415093,"SoundDuration":1415093,"Delta":18653606},{"NoteNumber":48,"Velocity":27,"Duration":1415093,"SoundDuration":1415093,"Delta":18653606},{"NoteNumber":58,"Velocity":30,"Duration":373878,"SoundDuration":373878,"Delta":20540398},{"NoteNumber":70,"Velocity":43,"Duration":373878,"SoundDuration":373878,"Delta":20540398},{"NoteNumber":50,"Velocity":39,"Duration":373878,"SoundDuration":373878,"Delta":20540398},{"NoteNumber":60,"Velocity":30,"Duration":373878,"SoundDuration":373878,"Delta":20914277},{"NoteNumber":72,"Velocity":43,"Duration":373878,"SoundDuration":373878,"Delta":20914277},{"NoteNumber":53,"Velocity":39,"Duration":373878,"SoundDuration":373878,"Delta":20914277},{"NoteNumber":74,"Velocity":44,"Duration":361228,"SoundDuration":361228,"Delta":21288155},{"NoteNumber":62,"Velocity":31,"Duration":361228,"SoundDuration":361228,"Delta":21288155},{"NoteNumber":46,"Velocity":34,"Duration":1467206,"SoundDuration":1467206,"Delta":21288155},{"NoteNumber":58,"Velocity":41,"Duration":361228,"SoundDuration":361228,"Delta":21288155},{"NoteNumber":77,"Velocity":52,"Duration":379410,"SoundDuration":379410,"Delta":21649383},{"NoteNumber":65,"Velocity":34,"Duration":379410,"SoundDuration":379410,"Delta":21649383},{"NoteNumber":62,"Velocity":43,"Duration":379410,"SoundDuration":379410,"Delta":21649383},{"NoteNumber":67,"Velocity":36,"Duration":363284,"SoundDuration":363284,"Delta":22028794},{"NoteNumber":79,"Velocity":58,"Duration":363284,"SoundDuration":363284,"Delta":22028794},{"NoteNumber":63,"Velocity":46,"Duration":363284,"SoundDuration":363284,"Delta":22028794},{"NoteNumber":77,"Velocity":42,"Duration":363284,"SoundDuration":363284,"Delta":22392078},{"NoteNumber":65,"Velocity":29,"Duration":363284,"SoundDuration":363284,"Delta":22392078},{"NoteNumber":62,"Velocity":44,"Duration":360256,"SoundDuration":360256,"Delta":22392078},{"NoteNumber":74,"Velocity":44,"Duration":371746,"SoundDuration":371746,"Delta":22755362},{"NoteNumber":62,"Velocity":31,"Duration":371746,"SoundDuration":371746,"Delta":22755362},{"NoteNumber":58,"Velocity":42,"Duration":368649,"SoundDuration":368649,"Delta":22755362},{"NoteNumber":70,"Velocity":39,"Duration":415109,"SoundDuration":415109,"Delta":23127109},{"NoteNumber":58,"Velocity":28,"Duration":415109,"SoundDuration":415109,"Delta":23127109},{"NoteNumber":53,"Velocity":36,"Duration":415109,"SoundDuration":415109,"Delta":23127109},{"NoteNumber":41,"Velocity":43,"Duration":2347736,"SoundDuration":2347736,"Delta":23334664},{"NoteNumber":65,"Velocity":38,"Duration":2140181,"SoundDuration":2140181,"Delta":23542219},{"NoteNumber":57,"Velocity":27,"Duration":2140181,"SoundDuration":2140181,"Delta":23542219},{"NoteNumber":60,"Velocity":27,"Duration":2140181,"SoundDuration":2140181,"Delta":23542219},{"NoteNumber":53,"Velocity":34,"Duration":2140181,"SoundDuration":2140181,"Delta":23542219},{"NoteNumber":51,"Velocity":23,"Duration":2140181,"SoundDuration":2140181,"Delta":23542219},{"NoteNumber":70,"Velocity":43,"Duration":373878,"SoundDuration":373878,"Delta":25682401},{"NoteNumber":58,"Velocity":30,"Duration":373878,"SoundDuration":373878,"Delta":25682401},{"NoteNumber":50,"Velocity":39,"Duration":373878,"SoundDuration":373878,"Delta":25682401},{"NoteNumber":60,"Velocity":30,"Duration":373878,"SoundDuration":373878,"Delta":26056279},{"NoteNumber":72,"Velocity":43,"Duration":373878,"SoundDuration":373878,"Delta":26056279},{"NoteNumber":53,"Velocity":39,"Duration":373878,"SoundDuration":373878,"Delta":26056279},{"NoteNumber":74,"Velocity":44,"Duration":361228,"SoundDuration":361228,"Delta":26430158},{"NoteNumber":62,"Velocity":31,"Duration":361228,"SoundDuration":361228,"Delta":26430158},{"NoteNumber":58,"Velocity":41,"Duration":361228,"SoundDuration":361228,"Delta":26430158},{"NoteNumber":46,"Velocity":34,"Duration":1459543,"SoundDuration":1459543,"Delta":26430158},{"NoteNumber":65,"Velocity":34,"Duration":371746,"SoundDuration":371746,"Delta":26791386},{"NoteNumber":77,"Velocity":52,"Duration":371746,"SoundDuration":371746,"Delta":26791386},{"NoteNumber":62,"Velocity":43,"Duration":371746,"SoundDuration":371746,"Delta":26791386},{"NoteNumber":79,"Velocity":58,"Duration":363284,"SoundDuration":363284,"Delta":27163133},{"NoteNumber":67,"Velocity":36,"Duration":363284,"SoundDuration":363284,"Delta":27163133},{"NoteNumber":63,"Velocity":46,"Duration":363284,"SoundDuration":363284,"Delta":27163133},{"NoteNumber":65,"Velocity":29,"Duration":363284,"SoundDuration":363284,"Delta":27526417},{"NoteNumber":77,"Velocity":42,"Duration":363284,"SoundDuration":363284,"Delta":27526417},{"NoteNumber":62,"Velocity":44,"Duration":360256,"SoundDuration":360256,"Delta":27526417},{"NoteNumber":62,"Velocity":31,"Duration":371746,"SoundDuration":371746,"Delta":27889701},{"NoteNumber":74,"Velocity":44,"Duration":371746,"SoundDuration":371746,"Delta":27889701},{"NoteNumber":58,"Velocity":42,"Duration":368649,"SoundDuration":368649,"Delta":27889701},{"NoteNumber":70,"Velocity":39,"Duration":415109,"SoundDuration":415109,"Delta":28261448},{"NoteNumber":58,"Velocity":28,"Duration":415109,"SoundDuration":415109,"Delta":28261448},{"NoteNumber":53,"Velocity":36,"Duration":415109,"SoundDuration":415109,"Delta":28261448},{"NoteNumber":41,"Velocity":43,"Duration":2347736,"SoundDuration":2347736,"Delta":28469002},{"NoteNumber":65,"Velocity":38,"Duration":2140181,"SoundDuration":2140181,"Delta":28676557},{"NoteNumber":60,"Velocity":27,"Duration":2140181,"SoundDuration":2140181,"Delta":28676557},{"NoteNumber":57,"Velocity":27,"Duration":2140181,"SoundDuration":2140181,"Delta":28676557},{"NoteNumber":51,"Velocity":28,"Duration":2140181,"SoundDuration":2140181,"Delta":28676557},{"NoteNumber":53,"Velocity":34,"Duration":2140181,"SoundDuration":2140181,"Delta":28676557},{"NoteNumber":70,"Velocity":43,"Duration":373878,"SoundDuration":373878,"Delta":30816739},{"NoteNumber":58,"Velocity":30,"Duration":373878,"SoundDuration":373878,"Delta":30816739},{"NoteNumber":50,"Velocity":39,"Duration":373878,"SoundDuration":373878,"Delta":30816739},{"NoteNumber":60,"Velocity":30,"Duration":373878,"SoundDuration":373878,"Delta":31190618},{"NoteNumber":72,"Velocity":43,"Duration":373878,"SoundDuration":373878,"Delta":31190618},{"NoteNumber":53,"Velocity":39,"Duration":373878,"SoundDuration":373878,"Delta":31190618},{"NoteNumber":74,"Velocity":44,"Duration":2020561,"SoundDuration":2020561,"Delta":31564496},{"NoteNumber":62,"Velocity":31,"Duration":361227,"SoundDuration":361227,"Delta":31564496},{"NoteNumber":58,"Velocity":34,"Duration":361227,"SoundDuration":361227,"Delta":31564496},{"NoteNumber":46,"Velocity":34,"Duration":1457390,"SoundDuration":1457390,"Delta":31564496},{"NoteNumber":65,"Velocity":40,"Duration":369594,"SoundDuration":369594,"Delta":31925724},{"NoteNumber":62,"Velocity":36,"Duration":369594,"SoundDuration":369594,"Delta":31925724},{"NoteNumber":67,"Velocity":46,"Duration":363284,"SoundDuration":363284,"Delta":32295319},{"NoteNumber":63,"Velocity":40,"Duration":363284,"SoundDuration":363284,"Delta":32295319},{"NoteNumber":65,"Velocity":39,"Duration":363284,"SoundDuration":363284,"Delta":32658603},{"NoteNumber":62,"Velocity":39,"Duration":360256,"SoundDuration":360256,"Delta":32658603},{"NoteNumber":62,"Velocity":42,"Duration":371746,"SoundDuration":371746,"Delta":33021887},{"NoteNumber":58,"Velocity":39,"Duration":368649,"SoundDuration":368649,"Delta":33021887},{"NoteNumber":58,"Velocity":34,"Duration":382848,"SoundDuration":382848,"Delta":33393634},{"NoteNumber":53,"Velocity":34,"Duration":382848,"SoundDuration":382848,"Delta":33393634},{"NoteNumber":70,"Velocity":53,"Duration":191424,"SoundDuration":191424,"Delta":33585058},{"NoteNumber":77,"Velocity":58,"Duration":1253697,"SoundDuration":1253697,"Delta":33776482},{"NoteNumber":65,"Velocity":35,"Duration":361227,"SoundDuration":361227,"Delta":33776482},{"NoteNumber":57,"Velocity":39,"Duration":361227,"SoundDuration":361227,"Delta":33776482},{"NoteNumber":48,"Velocity":39,"Duration":1435339,"SoundDuration":1435339,"Delta":33776482},{"NoteNumber":69,"Velocity":41,"Duration":347543,"SoundDuration":347543,"Delta":34137710},{"NoteNumber":60,"Velocity":34,"Duration":347543,"SoundDuration":347543,"Delta":34137710},{"NoteNumber":70,"Velocity":42,"Duration":363284,"SoundDuration":363284,"Delta":34485254},{"NoteNumber":62,"Velocity":40,"Duration":363284,"SoundDuration":363284,"Delta":34485254},{"NoteNumber":69,"Velocity":34,"Duration":363284,"SoundDuration":363284,"Delta":34848538},{"NoteNumber":60,"Velocity":33,"Duration":363284,"SoundDuration":363284,"Delta":34848538},{"NoteNumber":76,"Velocity":57,"Duration":181642,"SoundDuration":181642,"Delta":35030180},{"NoteNumber":74,"Velocity":62,"Duration":566653,"SoundDuration":566653,"Delta":35211822},{"NoteNumber":65,"Velocity":32,"Duration":371746,"SoundDuration":371746,"Delta":35211822},{"NoteNumber":57,"Velocity":37,"Duration":371746,"SoundDuration":371746,"Delta":35211822},{"NoteNumber":60,"Velocity":28,"Duration":389812,"SoundDuration":389812,"Delta":35583569},{"NoteNumber":53,"Velocity":31,"Duration":389812,"SoundDuration":389812,"Delta":35583569},{"NoteNumber":72,"Velocity":55,"Duration":194906,"SoundDuration":194906,"Delta":35778476},{"NoteNumber":36,"Velocity":32,"Duration":194906,"SoundDuration":194906,"Delta":35778476},{"NoteNumber":72,"Velocity":59,"Duration":1126600,"SoundDuration":1126600,"Delta":35973382},{"NoteNumber":58,"Velocity":34,"Duration":361227,"SoundDuration":361227,"Delta":35973382},{"NoteNumber":51,"Velocity":27,"Duration":361227,"SoundDuration":361227,"Delta":35973382},{"NoteNumber":60,"Velocity":37,"Duration":369594,"SoundDuration":369594,"Delta":36334610},{"NoteNumber":52,"Velocity":31,"Duration":369594,"SoundDuration":369594,"Delta":36334610},{"NoteNumber":69,"Velocity":39,"Duration":395778,"SoundDuration":395778,"Delta":36704205},{"NoteNumber":60,"Velocity":36,"Duration":395778,"SoundDuration":395778,"Delta":36704205},{"NoteNumber":67,"Velocity":29,"Duration":380566,"SoundDuration":380566,"Delta":37099983},{"NoteNumber":70,"Velocity":41,"Duration":380566,"SoundDuration":380566,"Delta":37099983},{"NoteNumber":58,"Velocity":33,"Duration":380566,"SoundDuration":380566,"Delta":37099983},{"NoteNumber":64,"Velocity":37,"Duration":263123,"SoundDuration":263123,"Delta":37480549},{"NoteNumber":69,"Velocity":46,"Duration":394685,"SoundDuration":394685,"Delta":37480549},{"NoteNumber":55,"Velocity":28,"Duration":263123,"SoundDuration":263123,"Delta":37480549},{"NoteNumber":60,"Velocity":28,"Duration":285978,"SoundDuration":285978,"Delta":37743673},{"NoteNumber":52,"Velocity":25,"Duration":285978,"SoundDuration":285978,"Delta":37743673},{"NoteNumber":67,"Velocity":41,"Duration":463248,"SoundDuration":463248,"Delta":37875234},{"NoteNumber":58,"Velocity":28,"Duration":308832,"SoundDuration":308832,"Delta":38029651},{"NoteNumber":49,"Velocity":25,"Duration":308832,"SoundDuration":308832,"Delta":38029651},{"NoteNumber":56,"Velocity":29,"Duration":294036,"SoundDuration":294036,"Delta":38338483},{"NoteNumber":65,"Velocity":42,"Duration":2659487,"SoundDuration":2659487,"Delta":38338483},{"NoteNumber":41,"Velocity":36,"Duration":2659487,"SoundDuration":2659487,"Delta":38338483},{"NoteNumber":47,"Velocity":25,"Duration":294036,"SoundDuration":294036,"Delta":38338483},{"NoteNumber":57,"Velocity":27,"Duration":294036,"SoundDuration":294036,"Delta":38615223},{"NoteNumber":48,"Velocity":22,"Duration":294036,"SoundDuration":294036,"Delta":38615223},{"NoteNumber":58,"Velocity":27,"Duration":276739,"SoundDuration":276739,"Delta":38891963},{"NoteNumber":50,"Velocity":22,"Duration":276739,"SoundDuration":276739,"Delta":38891963},{"NoteNumber":57,"Velocity":29,"Duration":1371951,"SoundDuration":1371951,"Delta":39168703},{"NoteNumber":48,"Velocity":27,"Duration":1371951,"SoundDuration":1371951,"Delta":39168703},{"NoteNumber":46,"Velocity":39,"Duration":367466,"SoundDuration":367466,"Delta":40997971},{"NoteNumber":48,"Velocity":44,"Duration":367467,"SoundDuration":367467,"Delta":41365438},{"NoteNumber":34,"Velocity":47,"Duration":91866,"SoundDuration":91866,"Delta":41641039},{"NoteNumber":56,"Velocity":49,"Duration":367466,"SoundDuration":367466,"Delta":41732905},{"NoteNumber":70,"Velocity":49,"Duration":2182636,"SoundDuration":2182636,"Delta":41732905},{"NoteNumber":50,"Velocity":52,"Duration":1443447,"SoundDuration":1443447,"Delta":41732905},{"NoteNumber":58,"Velocity":41,"Duration":353273,"SoundDuration":353273,"Delta":42100372},{"NoteNumber":67,"Velocity":45,"Duration":355240,"SoundDuration":355240,"Delta":42453646},{"NoteNumber":65,"Velocity":37,"Duration":367466,"SoundDuration":367466,"Delta":42808886},{"NoteNumber":60,"Velocity":43,"Duration":369594,"SoundDuration":369594,"Delta":43176353},{"NoteNumber":46,"Velocity":39,"Duration":246396,"SoundDuration":246396,"Delta":43176353},{"NoteNumber":48,"Velocity":44,"Duration":246396,"SoundDuration":246396,"Delta":43422749},{"NoteNumber":58,"Velocity":37,"Duration":369594,"SoundDuration":369594,"Delta":43545947},{"NoteNumber":50,"Velocity":48,"Duration":246396,"SoundDuration":246396,"Delta":43669146},{"NoteNumber":36,"Velocity":41,"Duration":92398,"SoundDuration":92398,"Delta":43823143},{"NoteNumber":70,"Velocity":49,"Duration":2210628,"SoundDuration":2210628,"Delta":43915542},{"NoteNumber":56,"Velocity":49,"Duration":369594,"SoundDuration":369594,"Delta":43915542},{"NoteNumber":51,"Velocity":54,"Duration":1457665,"SoundDuration":1457665,"Delta":43915542},{"NoteNumber":58,"Velocity":41,"Duration":359238,"SoundDuration":359238,"Delta":44285136},{"NoteNumber":65,"Velocity":49,"Duration":359238,"SoundDuration":359238,"Delta":44644375},{"NoteNumber":63,"Velocity":38,"Duration":369594,"SoundDuration":369594,"Delta":45003613},{"NoteNumber":60,"Velocity":46,"Duration":369594,"SoundDuration":369594,"Delta":45373208},{"NoteNumber":46,"Velocity":44,"Duration":184797,"SoundDuration":184797,"Delta":45373208},{"NoteNumber":48,"Velocity":47,"Duration":184797,"SoundDuration":184797,"Delta":45558005},{"NoteNumber":58,"Velocity":38,"Duration":383367,"SoundDuration":383367,"Delta":45742802},{"NoteNumber":50,"Velocity":50,"Duration":184797,"SoundDuration":184797,"Delta":45742802},{"NoteNumber":51,"Velocity":53,"Duration":198570,"SoundDuration":198570,"Delta":45927600},{"NoteNumber":37,"Velocity":44,"Duration":99285,"SoundDuration":99285,"Delta":46026885},{"NoteNumber":56,"Velocity":54,"Duration":365363,"SoundDuration":365363,"Delta":46126170},{"NoteNumber":70,"Velocity":54,"Duration":730727,"SoundDuration":730727,"Delta":46126170},{"NoteNumber":52,"Velocity":63,"Duration":730727,"SoundDuration":730727,"Delta":46126170},{"NoteNumber":64,"Velocity":47,"Duration":365363,"SoundDuration":365363,"Delta":46491533},{"NoteNumber":38,"Velocity":40,"Duration":91340,"SoundDuration":91340,"Delta":46765556},{"NoteNumber":70,"Velocity":57,"Duration":730727,"SoundDuration":730727,"Delta":46856897},{"NoteNumber":56,"Velocity":57,"Duration":365363,"SoundDuration":365363,"Delta":46856897},{"NoteNumber":53,"Velocity":56,"Duration":730727,"SoundDuration":730727,"Delta":46856897},{"NoteNumber":65,"Velocity":52,"Duration":365363,"SoundDuration":365363,"Delta":47222260},{"NoteNumber":56,"Velocity":59,"Duration":374636,"SoundDuration":374636,"Delta":47587624},{"NoteNumber":70,"Velocity":59,"Duration":2285480,"SoundDuration":2285480,"Delta":47587624},{"NoteNumber":38,"Velocity":40,"Duration":742127,"SoundDuration":742127,"Delta":47587624},{"NoteNumber":46,"Velocity":58,"Duration":94621,"SoundDuration":94621,"Delta":47587624},{"NoteNumber":48,"Velocity":47,"Duration":94224,"SoundDuration":94224,"Delta":47682246},{"NoteNumber":46,"Velocity":57,"Duration":93283,"SoundDuration":93283,"Delta":47776470},{"NoteNumber":48,"Velocity":51,"Duration":92506,"SoundDuration":92506,"Delta":47869753},{"NoteNumber":66,"Velocity":54,"Duration":367491,"SoundDuration":367491,"Delta":47962260},{"NoteNumber":46,"Velocity":52,"Duration":122016,"SoundDuration":122016,"Delta":47962260},{"NoteNumber":45,"Velocity":58,"Duration":121451,"SoundDuration":121451,"Delta":48084277},{"NoteNumber":46,"Velocity":51,"Duration":1667377,"SoundDuration":1667377,"Delta":48205728},{"NoteNumber":56,"Velocity":65,"Duration":415109,"SoundDuration":415109,"Delta":48329752},{"NoteNumber":39,"Velocity":55,"Duration":1543352,"SoundDuration":1543352,"Delta":48329752},{"NoteNumber":68,"Velocity":49,"Duration":376080,"SoundDuration":376080,"Delta":48744862},{"NoteNumber":55,"Velocity":54,"Duration":376080,"SoundDuration":376080,"Delta":49120943},{"NoteNumber":67,"Velocity":47,"Duration":376080,"SoundDuration":376080,"Delta":49497024},{"NoteNumber":75,"Velocity":54,"Duration":365363,"SoundDuration":365363,"Delta":49873105},{"NoteNumber":63,"Velocity":38,"Duration":365363,"SoundDuration":365363,"Delta":49873105},{"NoteNumber":55,"Velocity":50,"Duration":741444,"SoundDuration":741444,"Delta":49873105},{"NoteNumber":65,"Velocity":41,"Duration":376080,"SoundDuration":376080,"Delta":50238468},{"NoteNumber":77,"Velocity":58,"Duration":376080,"SoundDuration":376080,"Delta":50238468},{"NoteNumber":58,"Velocity":44,"Duration":376080,"SoundDuration":376080,"Delta":50238468},{"NoteNumber":67,"Velocity":64,"Duration":376080,"SoundDuration":376080,"Delta":50614549},{"NoteNumber":79,"Velocity":64,"Duration":1490072,"SoundDuration":1490072,"Delta":50614549},{"NoteNumber":63,"Velocity":50,"Duration":376080,"SoundDuration":376080,"Delta":50614549},{"NoteNumber":51,"Velocity":42,"Duration":1490072,"SoundDuration":1490072,"Delta":50614549},{"NoteNumber":75,"Velocity":50,"Duration":369594,"SoundDuration":369594,"Delta":50990630},{"NoteNumber":67,"Velocity":38,"Duration":369594,"SoundDuration":369594,"Delta":50990630},{"NoteNumber":77,"Velocity":54,"Duration":359238,"SoundDuration":359238,"Delta":51360225},{"NoteNumber":68,"Velocity":43,"Duration":359238,"SoundDuration":359238,"Delta":51360225},{"NoteNumber":75,"Velocity":50,"Duration":288868,"SoundDuration":288868,"Delta":51719463},{"NoteNumber":67,"Velocity":37,"Duration":385158,"SoundDuration":385158,"Delta":51719463},{"NoteNumber":72,"Velocity":52,"Duration":465884,"SoundDuration":465884,"Delta":52008332},{"NoteNumber":77,"Velocity":52,"Duration":369594,"SoundDuration":369594,"Delta":52104622},{"NoteNumber":55,"Velocity":35,"Duration":752442,"SoundDuration":752442,"Delta":52104622},{"NoteNumber":63,"Velocity":42,"Duration":369594,"SoundDuration":369594,"Delta":52104622},{"NoteNumber":67,"Velocity":45,"Duration":382848,"SoundDuration":382848,"Delta":52474216},{"NoteNumber":75,"Velocity":45,"Duration":382848,"SoundDuration":382848,"Delta":52474216},{"NoteNumber":60,"Velocity":39,"Duration":382848,"SoundDuration":382848,"Delta":52474216},{"NoteNumber":74,"Velocity":56,"Duration":1484893,"SoundDuration":1484893,"Delta":52857065},{"NoteNumber":62,"Velocity":56,"Duration":373878,"SoundDuration":373878,"Delta":52857065},{"NoteNumber":58,"Velocity":44,"Duration":373878,"SoundDuration":373878,"Delta":52857065},{"NoteNumber":43,"Velocity":37,"Duration":1484893,"SoundDuration":1484893,"Delta":52857065},{"NoteNumber":70,"Velocity":39,"Duration":367466,"SoundDuration":367466,"Delta":53230943},{"NoteNumber":62,"Velocity":32,"Duration":367466,"SoundDuration":367466,"Delta":53230943},{"NoteNumber":72,"Velocity":44,"Duration":367467,"SoundDuration":367467,"Delta":53598410},{"NoteNumber":63,"Velocity":35,"Duration":367467,"SoundDuration":367467,"Delta":53598410},{"NoteNumber":70,"Velocity":40,"Duration":282060,"SoundDuration":282060,"Delta":53965877},{"NoteNumber":62,"Velocity":30,"Duration":376080,"SoundDuration":376080,"Delta":53965877},{"NoteNumber":67,"Velocity":52,"Duration":463614,"SoundDuration":463614,"Delta":54247938},{"NoteNumber":70,"Velocity":52,"Duration":766734,"SoundDuration":766734,"Delta":54341958},{"NoteNumber":58,"Velocity":41,"Duration":369594,"SoundDuration":369594,"Delta":54341958},{"NoteNumber":55,"Velocity":41,"Duration":369594,"SoundDuration":369594,"Delta":54341958},{"NoteNumber":62,"Velocity":46,"Duration":397140,"SoundDuration":397140,"Delta":54711553},{"NoteNumber":55,"Velocity":36,"Duration":397140,"SoundDuration":397140,"Delta":54711553},{"NoteNumber":67,"Velocity":50,"Duration":380566,"SoundDuration":380566,"Delta":55108693},{"NoteNumber":79,"Velocity":59,"Duration":1121911,"SoundDuration":1121911,"Delta":55108693},{"NoteNumber":63,"Velocity":42,"Duration":380566,"SoundDuration":380566,"Delta":55108693},{"NoteNumber":48,"Velocity":35,"Duration":1504759,"SoundDuration":1504759,"Delta":55108693},{"NoteNumber":75,"Velocity":42,"Duration":373878,"SoundDuration":373878,"Delta":55489259},{"NoteNumber":67,"Velocity":32,"Duration":373878,"SoundDuration":373878,"Delta":55489259},{"NoteNumber":77,"Velocity":45,"Duration":367466,"SoundDuration":367466,"Delta":55863138},{"NoteNumber":68,"Velocity":34,"Duration":367466,"SoundDuration":367466,"Delta":55863138},{"NoteNumber":75,"Velocity":48,"Duration":382848,"SoundDuration":382848,"Delta":56230605},{"NoteNumber":79,"Velocity":48,"Duration":382848,"SoundDuration":382848,"Delta":56230605},{"NoteNumber":67,"Velocity":38,"Duration":382848,"SoundDuration":382848,"Delta":56230605},{"NoteNumber":77,"Velocity":54,"Duration":564326,"SoundDuration":564326,"Delta":56613453},{"NoteNumber":72,"Velocity":45,"Duration":371746,"SoundDuration":371746,"Delta":56613453},{"NoteNumber":63,"Velocity":40,"Duration":371746,"SoundDuration":371746,"Delta":56613453},{"NoteNumber":55,"Velocity":40,"Duration":756905,"SoundDuration":756905,"Delta":56613453},{"NoteNumber":67,"Velocity":40,"Duration":385158,"SoundDuration":385158,"Delta":56985200},{"NoteNumber":60,"Velocity":36,"Duration":385158,"SoundDuration":385158,"Delta":56985200},{"NoteNumber":75,"Velocity":52,"Duration":192579,"SoundDuration":192579,"Delta":57177780},{"NoteNumber":74,"Velocity":54,"Duration":1497884,"SoundDuration":1497884,"Delta":57370359},{"NoteNumber":62,"Velocity":54,"Duration":376080,"SoundDuration":376080,"Delta":57370359},{"NoteNumber":43,"Velocity":41,"Duration":1497884,"SoundDuration":1497884,"Delta":57370359},{"NoteNumber":58,"Velocity":41,"Duration":376080,"SoundDuration":376080,"Delta":57370359},{"NoteNumber":70,"Velocity":45,"Duration":371746,"SoundDuration":371746,"Delta":57746440},{"NoteNumber":62,"Velocity":34,"Duration":371746,"SoundDuration":371746,"Delta":57746440},{"NoteNumber":72,"Velocity":49,"Duration":371746,"SoundDuration":371746,"Delta":58118187},{"NoteNumber":63,"Velocity":41,"Duration":371746,"SoundDuration":371746,"Delta":58118187},{"NoteNumber":70,"Velocity":46,"Duration":378309,"SoundDuration":378309,"Delta":58489934},{"NoteNumber":62,"Velocity":37,"Duration":378309,"SoundDuration":378309,"Delta":58489934},{"NoteNumber":62,"Velocity":33,"Duration":372670,"SoundDuration":372670,"Delta":58868244},{"NoteNumber":67,"Velocity":47,"Duration":372670,"SoundDuration":372670,"Delta":58868244},{"NoteNumber":55,"Velocity":37,"Duration":745342,"SoundDuration":745342,"Delta":58868244},{"NoteNumber":58,"Velocity":44,"Duration":372670,"SoundDuration":372670,"Delta":58868244},{"NoteNumber":69,"Velocity":42,"Duration":372671,"SoundDuration":372671,"Delta":59240915},{"NoteNumber":60,"Velocity":30,"Duration":372671,"SoundDuration":372671,"Delta":59240915},{"NoteNumber":57,"Velocity":44,"Duration":372671,"SoundDuration":372671,"Delta":59240915},{"NoteNumber":58,"Velocity":36,"Duration":371746,"SoundDuration":371746,"Delta":59613586},{"NoteNumber":70,"Velocity":55,"Duration":371746,"SoundDuration":371746,"Delta":59613586},{"NoteNumber":48,"Velocity":29,"Duration":1472163,"SoundDuration":1472163,"Delta":59613586},{"NoteNumber":55,"Velocity":35,"Duration":371746,"SoundDuration":371746,"Delta":59613586},{"NoteNumber":69,"Velocity":34,"Duration":361227,"SoundDuration":361227,"Delta":59985333},{"NoteNumber":72,"Velocity":51,"Duration":361227,"SoundDuration":361227,"Delta":59985333},{"NoteNumber":53,"Velocity":36,"Duration":361227,"SoundDuration":361227,"Delta":59985333},{"NoteNumber":74,"Velocity":52,"Duration":369594,"SoundDuration":369594,"Delta":60346561},{"NoteNumber":67,"Velocity":36,"Duration":369594,"SoundDuration":369594,"Delta":60346561},{"NoteNumber":52,"Velocity":38,"Duration":369594,"SoundDuration":369594,"Delta":60346561},{"NoteNumber":76,"Velocity":53,"Duration":369594,"SoundDuration":369594,"Delta":60716155},{"NoteNumber":65,"Velocity":38,"Duration":369594,"SoundDuration":369594,"Delta":60716155},{"NoteNumber":50,"Velocity":41,"Duration":369594,"SoundDuration":369594,"Delta":60716155},{"NoteNumber":64,"Velocity":39,"Duration":376084,"SoundDuration":376084,"Delta":61085750},{"NoteNumber":77,"Velocity":56,"Duration":376084,"SoundDuration":376084,"Delta":61085750},{"NoteNumber":48,"Velocity":43,"Duration":376084,"SoundDuration":376084,"Delta":61085750},{"NoteNumber":36,"Velocity":36,"Duration":2253494,"SoundDuration":2253494,"Delta":61085750},{"NoteNumber":74,"Velocity":41,"Duration":381700,"SoundDuration":381700,"Delta":61461834},{"NoteNumber":79,"Velocity":58,"Duration":381700,"SoundDuration":381700,"Delta":61461834},{"NoteNumber":46,"Velocity":44,"Duration":381700,"SoundDuration":381700,"Delta":61461834},{"NoteNumber":72,"Velocity":43,"Duration":367466,"SoundDuration":367466,"Delta":61843535},{"NoteNumber":81,"Velocity":60,"Duration":367466,"SoundDuration":367466,"Delta":61843535},{"NoteNumber":45,"Velocity":47,"Duration":367466,"SoundDuration":367466,"Delta":61843535},{"NoteNumber":79,"Velocity":58,"Duration":376080,"SoundDuration":376080,"Delta":62211002},{"NoteNumber":76,"Velocity":41,"Duration":376080,"SoundDuration":376080,"Delta":62211002},{"NoteNumber":46,"Velocity":45,"Duration":376080,"SoundDuration":376080,"Delta":62211002},{"NoteNumber":77,"Velocity":56,"Duration":376081,"SoundDuration":376081,"Delta":62587083},{"NoteNumber":69,"Velocity":39,"Duration":376081,"SoundDuration":376081,"Delta":62587083},{"NoteNumber":48,"Velocity":42,"Duration":376081,"SoundDuration":376081,"Delta":62587083},{"NoteNumber":76,"Velocity":54,"Duration":376080,"SoundDuration":376080,"Delta":62963164},{"NoteNumber":72,"Velocity":37,"Duration":376080,"SoundDuration":376080,"Delta":62963164},{"NoteNumber":50,"Velocity":41,"Duration":376080,"SoundDuration":376080,"Delta":62963164},{"NoteNumber":74,"Velocity":51,"Duration":376080,"SoundDuration":376080,"Delta":63339245},{"NoteNumber":67,"Velocity":35,"Duration":376080,"SoundDuration":376080,"Delta":63339245},{"NoteNumber":36,"Velocity":32,"Duration":761239,"SoundDuration":761239,"Delta":63339245},{"NoteNumber":52,"Velocity":38,"Duration":376080,"SoundDuration":376080,"Delta":63339245},{"NoteNumber":69,"Velocity":35,"Duration":385158,"SoundDuration":385158,"Delta":63715326},{"NoteNumber":72,"Velocity":49,"Duration":385158,"SoundDuration":385158,"Delta":63715326},{"NoteNumber":53,"Velocity":37,"Duration":385158,"SoundDuration":385158,"Delta":63715326},{"NoteNumber":64,"Velocity":33,"Duration":376080,"SoundDuration":376080,"Delta":64100484},{"NoteNumber":70,"Velocity":47,"Duration":376080,"SoundDuration":376080,"Delta":64100484},{"NoteNumber":48,"Velocity":29,"Duration":1504323,"SoundDuration":1504323,"Delta":64100484},{"NoteNumber":55,"Velocity":35,"Duration":376080,"SoundDuration":376080,"Delta":64100484},{"NoteNumber":65,"Velocity":28,"Duration":376080,"SoundDuration":376080,"Delta":64476565},{"NoteNumber":69,"Velocity":40,"Duration":376080,"SoundDuration":376080,"Delta":64476565},{"NoteNumber":57,"Velocity":35,"Duration":376080,"SoundDuration":376080,"Delta":64476565},{"NoteNumber":67,"Velocity":46,"Duration":376080,"SoundDuration":376080,"Delta":64852646},{"NoteNumber":61,"Velocity":33,"Duration":376080,"SoundDuration":376080,"Delta":64852646},{"NoteNumber":58,"Velocity":36,"Duration":376080,"SoundDuration":376080,"Delta":64852646},{"NoteNumber":62,"Velocity":28,"Duration":376080,"SoundDuration":376080,"Delta":65228727},{"NoteNumber":65,"Velocity":40,"Duration":376080,"SoundDuration":376080,"Delta":65228727},{"NoteNumber":59,"Velocity":33,"Duration":376080,"SoundDuration":376080,"Delta":65228727},{"NoteNumber":69,"Velocity":45,"Duration":382848,"SoundDuration":382848,"Delta":65604808},{"NoteNumber":63,"Velocity":32,"Duration":382848,"SoundDuration":382848,"Delta":65604808},{"NoteNumber":48,"Velocity":33,"Duration":2895932,"SoundDuration":2895932,"Delta":65604808},{"NoteNumber":60,"Velocity":39,"Duration":382848,"SoundDuration":382848,"Delta":65604808},{"NoteNumber":64,"Velocity":28,"Duration":382848,"SoundDuration":382848,"Delta":65987657},{"NoteNumber":67,"Velocity":40,"Duration":382848,"SoundDuration":382848,"Delta":65987657},{"NoteNumber":58,"Velocity":34,"Duration":382848,"SoundDuration":382848,"Delta":65987657},{"NoteNumber":60,"Velocity":29,"Duration":399626,"SoundDuration":399626,"Delta":66370505},{"NoteNumber":65,"Velocity":41,"Duration":399626,"SoundDuration":399626,"Delta":66370505},{"NoteNumber":57,"Velocity":35,"Duration":399626,"SoundDuration":399626,"Delta":66370505},{"NoteNumber":66,"Velocity":33,"Duration":431903,"SoundDuration":431903,"Delta":66770132},{"NoteNumber":63,"Velocity":23,"Duration":431903,"SoundDuration":431903,"Delta":66770132},{"NoteNumber":56,"Velocity":28,"Duration":431903,"SoundDuration":431903,"Delta":66770132},{"NoteNumber":67,"Velocity":33,"Duration":253378,"SoundDuration":253378,"Delta":67202036},{"NoteNumber":60,"Velocity":23,"Duration":253378,"SoundDuration":253378,"Delta":67202036},{"NoteNumber":55,"Velocity":28,"Duration":253378,"SoundDuration":253378,"Delta":67202036},{"NoteNumber":63,"Velocity":19,"Duration":253378,"SoundDuration":253378,"Delta":67455414},{"NoteNumber":68,"Velocity":28,"Duration":253378,"SoundDuration":253378,"Delta":67455414},{"NoteNumber":54,"Velocity":25,"Duration":253378,"SoundDuration":253378,"Delta":67455414},{"NoteNumber":62,"Velocity":23,"Duration":269299,"SoundDuration":269299,"Delta":67708793},{"NoteNumber":69,"Velocity":33,"Duration":269299,"SoundDuration":269299,"Delta":67708793},{"NoteNumber":53,"Velocity":28,"Duration":269299,"SoundDuration":269299,"Delta":67708793},{"NoteNumber":60,"Velocity":19,"Duration":391986,"SoundDuration":391986,"Delta":67978093},{"NoteNumber":65,"Velocity":28,"Duration":391986,"SoundDuration":391986,"Delta":67978093},{"NoteNumber":51,"Velocity":24,"Duration":391986,"SoundDuration":391986,"Delta":67978093},{"NoteNumber":70,"Velocity":38,"Duration":381194,"SoundDuration":381194,"Delta":68500741},{"NoteNumber":58,"Velocity":27,"Duration":381194,"SoundDuration":381194,"Delta":68500741},{"NoteNumber":50,"Velocity":35,"Duration":762388,"SoundDuration":762388,"Delta":68500741},{"NoteNumber":60,"Velocity":27,"Duration":381194,"SoundDuration":381194,"Delta":68881935},{"NoteNumber":72,"Velocity":38,"Duration":381194,"SoundDuration":381194,"Delta":68881935},{"NoteNumber":53,"Velocity":35,"Duration":381194,"SoundDuration":381194,"Delta":68881935},{"NoteNumber":74,"Velocity":39,"Duration":361227,"SoundDuration":361227,"Delta":69263130},{"NoteNumber":62,"Velocity":28,"Duration":361227,"SoundDuration":361227,"Delta":69263130},{"NoteNumber":46,"Velocity":30,"Duration":1473399,"SoundDuration":1473399,"Delta":69263130},{"NoteNumber":58,"Velocity":36,"Duration":361227,"SoundDuration":361227,"Delta":69263130},{"NoteNumber":65,"Velocity":30,"Duration":385604,"SoundDuration":385604,"Delta":69624358},{"NoteNumber":77,"Velocity":47,"Duration":385604,"SoundDuration":385604,"Delta":69624358},{"NoteNumber":62,"Velocity":38,"Duration":385604,"SoundDuration":385604,"Delta":69624358},{"NoteNumber":79,"Velocity":56,"Duration":363283,"SoundDuration":363283,"Delta":70009962},{"NoteNumber":67,"Velocity":32,"Duration":363283,"SoundDuration":363283,"Delta":70009962},{"NoteNumber":63,"Velocity":41,"Duration":363283,"SoundDuration":363283,"Delta":70009962},{"NoteNumber":77,"Velocity":37,"Duration":363284,"SoundDuration":363284,"Delta":70373246},{"NoteNumber":65,"Velocity":26,"Duration":363284,"SoundDuration":363284,"Delta":70373246},{"NoteNumber":62,"Velocity":39,"Duration":360256,"SoundDuration":360256,"Delta":70373246},{"NoteNumber":62,"Velocity":28,"Duration":371746,"SoundDuration":371746,"Delta":70736530},{"NoteNumber":74,"Velocity":39,"Duration":371746,"SoundDuration":371746,"Delta":70736530},{"NoteNumber":58,"Velocity":37,"Duration":368649,"SoundDuration":368649,"Delta":70736530},{"NoteNumber":70,"Velocity":35,"Duration":415109,"SoundDuration":415109,"Delta":71108277},{"NoteNumber":58,"Velocity":24,"Duration":415109,"SoundDuration":415109,"Delta":71108277},{"NoteNumber":53,"Velocity":32,"Duration":415109,"SoundDuration":415109,"Delta":71108277},{"NoteNumber":41,"Velocity":38,"Duration":2328821,"SoundDuration":2328821,"Delta":71315832},{"NoteNumber":57,"Velocity":23,"Duration":2121266,"SoundDuration":2121266,"Delta":71523387},{"NoteNumber":60,"Velocity":23,"Duration":2121266,"SoundDuration":2121266,"Delta":71523387},{"NoteNumber":65,"Velocity":34,"Duration":2121266,"SoundDuration":2121266,"Delta":71523387},{"NoteNumber":51,"Velocity":25,"Duration":2121266,"SoundDuration":2121266,"Delta":71523387},{"NoteNumber":53,"Velocity":30,"Duration":2121266,"SoundDuration":2121266,"Delta":71523387},{"NoteNumber":70,"Velocity":43,"Duration":373878,"SoundDuration":373878,"Delta":73644653},{"NoteNumber":58,"Velocity":30,"Duration":373878,"SoundDuration":373878,"Delta":73644653},{"NoteNumber":50,"Velocity":39,"Duration":373878,"SoundDuration":373878,"Delta":73644653},{"NoteNumber":60,"Velocity":30,"Duration":373878,"SoundDuration":373878,"Delta":74018531},{"NoteNumber":72,"Velocity":43,"Duration":373878,"SoundDuration":373878,"Delta":74018531},{"NoteNumber":53,"Velocity":39,"Duration":373878,"SoundDuration":373878,"Delta":74018531},{"NoteNumber":74,"Velocity":44,"Duration":361227,"SoundDuration":361227,"Delta":74392410},{"NoteNumber":62,"Velocity":31,"Duration":361227,"SoundDuration":361227,"Delta":74392410},{"NoteNumber":58,"Velocity":41,"Duration":361227,"SoundDuration":361227,"Delta":74392410},{"NoteNumber":46,"Velocity":74,"Duration":1459542,"SoundDuration":1459542,"Delta":74392410},{"NoteNumber":77,"Velocity":52,"Duration":371746,"SoundDuration":371746,"Delta":74753638},{"NoteNumber":65,"Velocity":34,"Duration":371746,"SoundDuration":371746,"Delta":74753638},{"NoteNumber":62,"Velocity":43,"Duration":371746,"SoundDuration":371746,"Delta":74753638},{"NoteNumber":67,"Velocity":36,"Duration":363283,"SoundDuration":363283,"Delta":75125385},{"NoteNumber":79,"Velocity":57,"Duration":363283,"SoundDuration":363283,"Delta":75125385},{"NoteNumber":63,"Velocity":46,"Duration":363283,"SoundDuration":363283,"Delta":75125385},{"NoteNumber":77,"Velocity":42,"Duration":363284,"SoundDuration":363284,"Delta":75488669},{"NoteNumber":65,"Velocity":29,"Duration":363284,"SoundDuration":363284,"Delta":75488669},{"NoteNumber":62,"Velocity":44,"Duration":360256,"SoundDuration":360256,"Delta":75488669},{"NoteNumber":62,"Velocity":31,"Duration":371746,"SoundDuration":371746,"Delta":75851953},{"NoteNumber":74,"Velocity":44,"Duration":371746,"SoundDuration":371746,"Delta":75851953},{"NoteNumber":46,"Velocity":70,"Duration":371746,"SoundDuration":371746,"Delta":75851953},{"NoteNumber":58,"Velocity":42,"Duration":368649,"SoundDuration":368649,"Delta":75851953},{"NoteNumber":70,"Velocity":39,"Duration":402090,"SoundDuration":402090,"Delta":76223700},{"NoteNumber":58,"Velocity":28,"Duration":402090,"SoundDuration":402090,"Delta":76223700},{"NoteNumber":53,"Velocity":36,"Duration":402090,"SoundDuration":402090,"Delta":76223700},{"NoteNumber":50,"Velocity":66,"Duration":402090,"SoundDuration":402090,"Delta":76223700},{"NoteNumber":41,"Velocity":43,"Duration":564681,"SoundDuration":564681,"Delta":76424745},{"NoteNumber":57,"Velocity":27,"Duration":1472475,"SoundDuration":1472475,"Delta":76625791},{"NoteNumber":65,"Velocity":60,"Duration":1472475,"SoundDuration":1472475,"Delta":76625791},{"NoteNumber":60,"Velocity":34,"Duration":1472475,"SoundDuration":1472475,"Delta":76625791},{"NoteNumber":51,"Velocity":28,"Duration":1472475,"SoundDuration":1472475,"Delta":76625791},{"NoteNumber":53,"Velocity":41,"Duration":1472475,"SoundDuration":1472475,"Delta":76625791},{"NoteNumber":43,"Velocity":53,"Duration":368098,"SoundDuration":368098,"Delta":76989427},{"NoteNumber":46,"Velocity":59,"Duration":370370,"SoundDuration":370370,"Delta":77357525},{"NoteNumber":45,"Velocity":54,"Duration":370370,"SoundDuration":370370,"Delta":77727896},{"NoteNumber":58,"Velocity":23,"Duration":373878,"SoundDuration":373878,"Delta":78098266},{"NoteNumber":70,"Velocity":47,"Duration":373878,"SoundDuration":373878,"Delta":78098266},{"NoteNumber":50,"Velocity":44,"Duration":373878,"SoundDuration":373878,"Delta":78098266},{"NoteNumber":44,"Velocity":37,"Duration":373878,"SoundDuration":373878,"Delta":78098266},{"NoteNumber":60,"Velocity":23,"Duration":373878,"SoundDuration":373878,"Delta":78472145},{"NoteNumber":72,"Velocity":49,"Duration":373878,"SoundDuration":373878,"Delta":78472145},{"NoteNumber":51,"Velocity":47,"Duration":373878,"SoundDuration":373878,"Delta":78472145},{"NoteNumber":43,"Velocity":39,"Duration":373878,"SoundDuration":373878,"Delta":78472145},{"NoteNumber":62,"Velocity":25,"Duration":361227,"SoundDuration":361227,"Delta":78846023},{"NoteNumber":74,"Velocity":52,"Duration":361227,"SoundDuration":361227,"Delta":78846023},{"NoteNumber":53,"Velocity":49,"Duration":361227,"SoundDuration":361227,"Delta":78846023},{"NoteNumber":41,"Velocity":41,"Duration":638423,"SoundDuration":638423,"Delta":78846023},{"NoteNumber":75,"Velocity":54,"Duration":369594,"SoundDuration":369594,"Delta":79207251},{"NoteNumber":63,"Velocity":27,"Duration":369594,"SoundDuration":369594,"Delta":79207251},{"NoteNumber":55,"Velocity":52,"Duration":369594,"SoundDuration":369594,"Delta":79207251},{"NoteNumber":39,"Velocity":46,"Duration":728145,"SoundDuration":728145,"Delta":79484447},{"NoteNumber":65,"Velocity":29,"Duration":363283,"SoundDuration":363283,"Delta":79576846},{"NoteNumber":77,"Velocity":58,"Duration":363283,"SoundDuration":363283,"Delta":79576846},{"NoteNumber":56,"Velocity":55,"Duration":363283,"SoundDuration":363283,"Delta":79576846},{"NoteNumber":78,"Velocity":62,"Duration":363284,"SoundDuration":363284,"Delta":79940130},{"NoteNumber":66,"Velocity":30,"Duration":363284,"SoundDuration":363284,"Delta":79940130},{"NoteNumber":58,"Velocity":55,"Duration":363284,"SoundDuration":363284,"Delta":79940130},{"NoteNumber":38,"Velocity":47,"Duration":825851,"SoundDuration":825851,"Delta":80212593},{"NoteNumber":79,"Velocity":69,"Duration":371746,"SoundDuration":371746,"Delta":80303414},{"NoteNumber":67,"Velocity":33,"Duration":371746,"SoundDuration":371746,"Delta":80303414},{"NoteNumber":59,"Velocity":57,"Duration":371746,"SoundDuration":371746,"Delta":80303414},{"NoteNumber":77,"Velocity":57,"Duration":363283,"SoundDuration":363283,"Delta":80675161},{"NoteNumber":65,"Velocity":29,"Duration":363283,"SoundDuration":363283,"Delta":80675161},{"NoteNumber":55,"Velocity":58,"Duration":363283,"SoundDuration":363283,"Delta":80675161},{"NoteNumber":64,"Velocity":28,"Duration":367467,"SoundDuration":367467,"Delta":81038445},{"NoteNumber":76,"Velocity":55,"Duration":367467,"SoundDuration":367467,"Delta":81038445},{"NoteNumber":36,"Velocity":28,"Duration":367467,"SoundDuration":367467,"Delta":81038445},{"NoteNumber":60,"Velocity":55,"Duration":367467,"SoundDuration":367467,"Delta":81038445},{"NoteNumber":62,"Velocity":26,"Duration":373878,"SoundDuration":373878,"Delta":81405912},{"NoteNumber":74,"Velocity":53,"Duration":373878,"SoundDuration":373878,"Delta":81405912},{"NoteNumber":43,"Velocity":27,"Duration":373878,"SoundDuration":373878,"Delta":81405912},{"NoteNumber":55,"Velocity":54,"Duration":373878,"SoundDuration":373878,"Delta":81405912},{"NoteNumber":60,"Velocity":23,"Duration":365853,"SoundDuration":365853,"Delta":81779790},{"NoteNumber":72,"Velocity":50,"Duration":365853,"SoundDuration":365853,"Delta":81779790},{"NoteNumber":48,"Velocity":25,"Duration":365853,"SoundDuration":365853,"Delta":81779790},{"NoteNumber":52,"Velocity":52,"Duration":365853,"SoundDuration":365853,"Delta":81779790},{"NoteNumber":62,"Velocity":23,"Duration":372670,"SoundDuration":372670,"Delta":82145644},{"NoteNumber":74,"Velocity":47,"Duration":372670,"SoundDuration":372670,"Delta":82145644},{"NoteNumber":53,"Velocity":50,"Duration":372670,"SoundDuration":372670,"Delta":82145644},{"NoteNumber":47,"Velocity":24,"Duration":372670,"SoundDuration":372670,"Delta":82145644},{"NoteNumber":60,"Velocity":22,"Duration":376080,"SoundDuration":376080,"Delta":82518315},{"NoteNumber":72,"Velocity":45,"Duration":376080,"SoundDuration":376080,"Delta":82518315},{"NoteNumber":52,"Velocity":49,"Duration":376080,"SoundDuration":376080,"Delta":82518315},{"NoteNumber":46,"Velocity":23,"Duration":376080,"SoundDuration":376080,"Delta":82518315},{"NoteNumber":62,"Velocity":20,"Duration":376080,"SoundDuration":376080,"Delta":82894396},{"NoteNumber":74,"Velocity":42,"Duration":376080,"SoundDuration":376080,"Delta":82894396},{"NoteNumber":53,"Velocity":47,"Duration":376080,"SoundDuration":376080,"Delta":82894396},{"NoteNumber":45,"Velocity":23,"Duration":376080,"SoundDuration":376080,"Delta":82894396},{"NoteNumber":64,"Velocity":30,"Duration":361227,"SoundDuration":361227,"Delta":83270477},{"NoteNumber":76,"Velocity":51,"Duration":361227,"SoundDuration":361227,"Delta":83270477},{"NoteNumber":43,"Velocity":40,"Duration":638423,"SoundDuration":638423,"Delta":83270477},{"NoteNumber":55,"Velocity":48,"Duration":361227,"SoundDuration":361227,"Delta":83270477},{"NoteNumber":65,"Velocity":31,"Duration":369594,"SoundDuration":369594,"Delta":83631705},{"NoteNumber":77,"Velocity":53,"Duration":369594,"SoundDuration":369594,"Delta":83631705},{"NoteNumber":57,"Velocity":51,"Duration":369594,"SoundDuration":369594,"Delta":83631705},{"NoteNumber":41,"Velocity":45,"Duration":728145,"SoundDuration":728145,"Delta":83908900},{"NoteNumber":78,"Velocity":57,"Duration":363283,"SoundDuration":363283,"Delta":84001299},{"NoteNumber":66,"Velocity":34,"Duration":363283,"SoundDuration":363283,"Delta":84001299},{"NoteNumber":58,"Velocity":54,"Duration":363283,"SoundDuration":363283,"Delta":84001299},{"NoteNumber":79,"Velocity":62,"Duration":363284,"SoundDuration":363284,"Delta":84364583},{"NoteNumber":67,"Velocity":35,"Duration":363284,"SoundDuration":363284,"Delta":84364583},{"NoteNumber":59,"Velocity":54,"Duration":363284,"SoundDuration":363284,"Delta":84364583},{"NoteNumber":40,"Velocity":47,"Duration":825851,"SoundDuration":825851,"Delta":84637046},{"NoteNumber":81,"Velocity":66,"Duration":371746,"SoundDuration":371746,"Delta":84727867},{"NoteNumber":69,"Velocity":37,"Duration":371746,"SoundDuration":371746,"Delta":84727867},{"NoteNumber":60,"Velocity":54,"Duration":371746,"SoundDuration":371746,"Delta":84727867},{"NoteNumber":79,"Velocity":57,"Duration":363283,"SoundDuration":363283,"Delta":85099614},{"NoteNumber":67,"Velocity":34,"Duration":363283,"SoundDuration":363283,"Delta":85099614},{"NoteNumber":58,"Velocity":58,"Duration":363283,"SoundDuration":363283,"Delta":85099614},{"NoteNumber":65,"Velocity":34,"Duration":376411,"SoundDuration":376411,"Delta":85462898},{"NoteNumber":77,"Velocity":57,"Duration":376411,"SoundDuration":376411,"Delta":85462898},{"NoteNumber":57,"Velocity":57,"Duration":376411,"SoundDuration":376411,"Delta":85462898},{"NoteNumber":41,"Velocity":34,"Duration":376411,"SoundDuration":376411,"Delta":85462898},{"NoteNumber":75,"Velocity":54,"Duration":393700,"SoundDuration":393700,"Delta":85839310},{"NoteNumber":63,"Velocity":31,"Duration":393700,"SoundDuration":393700,"Delta":85839310},{"NoteNumber":55,"Velocity":55,"Duration":393700,"SoundDuration":393700,"Delta":85839310},{"NoteNumber":43,"Velocity":32,"Duration":393700,"SoundDuration":393700,"Delta":85839310},{"NoteNumber":74,"Velocity":51,"Duration":421348,"SoundDuration":421348,"Delta":86233011},{"NoteNumber":62,"Velocity":28,"Duration":421348,"SoundDuration":421348,"Delta":86233011},{"NoteNumber":44,"Velocity":30,"Duration":421348,"SoundDuration":421348,"Delta":86233011},{"NoteNumber":53,"Velocity":53,"Duration":421348,"SoundDuration":421348,"Delta":86233011},{"NoteNumber":72,"Velocity":47,"Duration":474683,"SoundDuration":474683,"Delta":86654359},{"NoteNumber":60,"Velocity":28,"Duration":474683,"SoundDuration":474683,"Delta":86654359},{"NoteNumber":45,"Velocity":29,"Duration":474683,"SoundDuration":474683,"Delta":86654359},{"NoteNumber":51,"Velocity":50,"Duration":474683,"SoundDuration":474683,"Delta":86654359},{"NoteNumber":70,"Velocity":47,"Duration":404640,"SoundDuration":404640,"Delta":87129043},{"NoteNumber":58,"Velocity":28,"Duration":404640,"SoundDuration":404640,"Delta":87129043},{"NoteNumber":46,"Velocity":28,"Duration":809280,"SoundDuration":809280,"Delta":87129043},{"NoteNumber":50,"Velocity":37,"Duration":404640,"SoundDuration":404640,"Delta":87129043},{"NoteNumber":60,"Velocity":24,"Duration":404640,"SoundDuration":404640,"Delta":87533683},{"NoteNumber":72,"Velocity":42,"Duration":404640,"SoundDuration":404640,"Delta":87533683},{"NoteNumber":53,"Velocity":40,"Duration":404640,"SoundDuration":404640,"Delta":87533683},{"NoteNumber":62,"Velocity":39,"Duration":369594,"SoundDuration":369594,"Delta":87938323},{"NoteNumber":74,"Velocity":47,"Duration":1507189,"SoundDuration":1507189,"Delta":87938323},{"NoteNumber":58,"Velocity":43,"Duration":369594,"SoundDuration":369594,"Delta":87938323},{"NoteNumber":34,"Velocity":46,"Duration":739188,"SoundDuration":739188,"Delta":87938323},{"NoteNumber":72,"Velocity":50,"Duration":369594,"SoundDuration":369594,"Delta":88307917},{"NoteNumber":57,"Velocity":39,"Duration":369594,"SoundDuration":369594,"Delta":88307917},{"NoteNumber":70,"Velocity":49,"Duration":369594,"SoundDuration":369594,"Delta":88677512},{"NoteNumber":55,"Velocity":39,"Duration":369594,"SoundDuration":369594,"Delta":88677512},{"NoteNumber":69,"Velocity":44,"Duration":398406,"SoundDuration":398406,"Delta":89047106},{"NoteNumber":53,"Velocity":39,"Duration":398406,"SoundDuration":398406,"Delta":89047106},{"NoteNumber":67,"Velocity":41,"Duration":369594,"SoundDuration":369594,"Delta":89445513},{"NoteNumber":75,"Velocity":52,"Duration":369594,"SoundDuration":369594,"Delta":89445513},{"NoteNumber":51,"Velocity":39,"Duration":369594,"SoundDuration":369594,"Delta":89445513},{"NoteNumber":46,"Velocity":42,"Duration":747904,"SoundDuration":747904,"Delta":89445513},{"NoteNumber":65,"Velocity":44,"Duration":378309,"SoundDuration":378309,"Delta":89815107},{"NoteNumber":77,"Velocity":55,"Duration":378309,"SoundDuration":378309,"Delta":89815107},{"NoteNumber":50,"Velocity":44,"Duration":378309,"SoundDuration":378309,"Delta":89815107},{"NoteNumber":63,"Velocity":47,"Duration":369594,"SoundDuration":369594,"Delta":90193417},{"NoteNumber":79,"Velocity":61,"Duration":1108783,"SoundDuration":1108783,"Delta":90193417},{"NoteNumber":48,"Velocity":48,"Duration":369594,"SoundDuration":369594,"Delta":90193417},{"NoteNumber":34,"Velocity":52,"Duration":739188,"SoundDuration":739188,"Delta":90193417},{"NoteNumber":65,"Velocity":43,"Duration":369594,"SoundDuration":369594,"Delta":90563012},{"NoteNumber":50,"Velocity":39,"Duration":369594,"SoundDuration":369594,"Delta":90563012},{"NoteNumber":67,"Velocity":47,"Duration":369594,"SoundDuration":369594,"Delta":90932606},{"NoteNumber":51,"Velocity":39,"Duration":369594,"SoundDuration":369594,"Delta":90932606},{"NoteNumber":77,"Velocity":53,"Duration":378309,"SoundDuration":378309,"Delta":91302201},{"NoteNumber":69,"Velocity":38,"Duration":378309,"SoundDuration":378309,"Delta":91302201},{"NoteNumber":53,"Velocity":36,"Duration":378309,"SoundDuration":378309,"Delta":91302201},{"NoteNumber":75,"Velocity":51,"Duration":378309,"SoundDuration":378309,"Delta":91680511},{"NoteNumber":70,"Velocity":36,"Duration":378309,"SoundDuration":378309,"Delta":91680511},{"NoteNumber":46,"Velocity":42,"Duration":756619,"SoundDuration":756619,"Delta":91680511},{"NoteNumber":55,"Velocity":39,"Duration":378309,"SoundDuration":378309,"Delta":91680511},{"NoteNumber":71,"Velocity":35,"Duration":378309,"SoundDuration":378309,"Delta":92058821},{"NoteNumber":74,"Velocity":50,"Duration":378309,"SoundDuration":378309,"Delta":92058821},{"NoteNumber":56,"Velocity":44,"Duration":378309,"SoundDuration":378309,"Delta":92058821},{"NoteNumber":72,"Velocity":52,"Duration":643067,"SoundDuration":643067,"Delta":92437131},{"NoteNumber":34,"Velocity":42,"Duration":734933,"SoundDuration":734933,"Delta":92437131},{"NoteNumber":57,"Velocity":39,"Duration":367467,"SoundDuration":367467,"Delta":92437131},{"NoteNumber":70,"Velocity":47,"Duration":183733,"SoundDuration":183733,"Delta":92804598},{"NoteNumber":55,"Velocity":39,"Duration":367466,"SoundDuration":367466,"Delta":92804598},{"NoteNumber":72,"Velocity":43,"Duration":183733,"SoundDuration":183733,"Delta":92988331},{"NoteNumber":74,"Velocity":43,"Duration":91866,"SoundDuration":91866,"Delta":93080198},{"NoteNumber":72,"Velocity":49,"Duration":385158,"SoundDuration":385158,"Delta":93172065},{"NoteNumber":69,"Velocity":33,"Duration":385158,"SoundDuration":385158,"Delta":93172065},{"NoteNumber":53,"Velocity":41,"Duration":385158,"SoundDuration":385158,"Delta":93172065},{"NoteNumber":74,"Velocity":47,"Duration":367467,"SoundDuration":367467,"Delta":93557223},{"NoteNumber":67,"Velocity":31,"Duration":367467,"SoundDuration":367467,"Delta":93557223},{"NoteNumber":51,"Velocity":39,"Duration":367467,"SoundDuration":367467,"Delta":93557223},{"NoteNumber":65,"Velocity":35,"Duration":369594,"SoundDuration":369594,"Delta":93924690},{"NoteNumber":75,"Velocity":54,"Duration":739188,"SoundDuration":739188,"Delta":93924690},{"NoteNumber":46,"Velocity":48,"Duration":739188,"SoundDuration":739188,"Delta":93924690},{"NoteNumber":50,"Velocity":44,"Duration":369594,"SoundDuration":369594,"Delta":93924690},{"NoteNumber":63,"Velocity":39,"Duration":369594,"SoundDuration":369594,"Delta":94294285},{"NoteNumber":48,"Velocity":38,"Duration":369594,"SoundDuration":369594,"Delta":94294285},{"NoteNumber":62,"Velocity":45,"Duration":369594,"SoundDuration":369594,"Delta":94663879},{"NoteNumber":77,"Velocity":59,"Duration":1108783,"SoundDuration":1108783,"Delta":94663879},{"NoteNumber":46,"Velocity":46,"Duration":369594,"SoundDuration":369594,"Delta":94663879},{"NoteNumber":34,"Velocity":50,"Duration":739188,"SoundDuration":739188,"Delta":94663879},{"NoteNumber":63,"Velocity":47,"Duration":369594,"SoundDuration":369594,"Delta":95033474},{"NoteNumber":48,"Velocity":35,"Duration":369594,"SoundDuration":369594,"Delta":95033474},{"NoteNumber":65,"Velocity":47,"Duration":369594,"SoundDuration":369594,"Delta":95403068},{"NoteNumber":50,"Velocity":39,"Duration":369594,"SoundDuration":369594,"Delta":95403068},{"NoteNumber":67,"Velocity":33,"Duration":380566,"SoundDuration":380566,"Delta":95772663},{"NoteNumber":75,"Velocity":46,"Duration":380566,"SoundDuration":380566,"Delta":95772663},{"NoteNumber":51,"Velocity":35,"Duration":380566,"SoundDuration":380566,"Delta":95772663},{"NoteNumber":74,"Velocity":47,"Duration":380566,"SoundDuration":380566,"Delta":96153229},{"NoteNumber":68,"Velocity":31,"Duration":380566,"SoundDuration":380566,"Delta":96153229},{"NoteNumber":46,"Velocity":42,"Duration":761132,"SoundDuration":761132,"Delta":96153229},{"NoteNumber":52,"Velocity":39,"Duration":380566,"SoundDuration":380566,"Delta":96153229},{"NoteNumber":72,"Velocity":44,"Duration":380566,"SoundDuration":380566,"Delta":96533795},{"NoteNumber":69,"Velocity":31,"Duration":380566,"SoundDuration":380566,"Delta":96533795},{"NoteNumber":53,"Velocity":35,"Duration":380566,"SoundDuration":380566,"Delta":96533795},{"NoteNumber":70,"Velocity":47,"Duration":658141,"SoundDuration":658141,"Delta":96914361},{"NoteNumber":34,"Velocity":42,"Duration":752161,"SoundDuration":752161,"Delta":96914361},{"NoteNumber":55,"Velocity":39,"Duration":376080,"SoundDuration":376080,"Delta":96914361},{"NoteNumber":69,"Velocity":39,"Duration":188040,"SoundDuration":188040,"Delta":97290442},{"NoteNumber":53,"Velocity":34,"Duration":376080,"SoundDuration":376080,"Delta":97290442},{"NoteNumber":70,"Velocity":38,"Duration":188040,"SoundDuration":188040,"Delta":97478482},{"NoteNumber":72,"Velocity":37,"Duration":94020,"SoundDuration":94020,"Delta":97572502},{"NoteNumber":70,"Velocity":45,"Duration":385158,"SoundDuration":385158,"Delta":97666523},{"NoteNumber":67,"Velocity":27,"Duration":385158,"SoundDuration":385158,"Delta":97666523},{"NoteNumber":51,"Velocity":39,"Duration":385158,"SoundDuration":385158,"Delta":97666523},{"NoteNumber":72,"Velocity":46,"Duration":367467,"SoundDuration":367467,"Delta":98051681},{"NoteNumber":65,"Velocity":28,"Duration":367467,"SoundDuration":367467,"Delta":98051681},{"NoteNumber":50,"Velocity":34,"Duration":367467,"SoundDuration":367467,"Delta":98051681},{"NoteNumber":46,"Velocity":33,"Duration":467947,"SoundDuration":467947,"Delta":98327281},{"NoteNumber":63,"Velocity":35,"Duration":376080,"SoundDuration":376080,"Delta":98419148},{"NoteNumber":74,"Velocity":50,"Duration":752161,"SoundDuration":752161,"Delta":98419148},{"NoteNumber":48,"Velocity":39,"Duration":376080,"SoundDuration":376080,"Delta":98419148},{"NoteNumber":62,"Velocity":31,"Duration":376080,"SoundDuration":376080,"Delta":98795229},{"NoteNumber":46,"Velocity":45,"Duration":376080,"SoundDuration":376080,"Delta":98795229},{"NoteNumber":75,"Velocity":51,"Duration":375374,"SoundDuration":375374,"Delta":99171310},{"NoteNumber":60,"Velocity":30,"Duration":375374,"SoundDuration":375374,"Delta":99171310},{"NoteNumber":45,"Velocity":39,"Duration":375374,"SoundDuration":375374,"Delta":99171310},{"NoteNumber":34,"Velocity":42,"Duration":375374,"SoundDuration":375374,"Delta":99171310},{"NoteNumber":62,"Velocity":29,"Duration":377873,"SoundDuration":377873,"Delta":99546684},{"NoteNumber":74,"Velocity":50,"Duration":377873,"SoundDuration":377873,"Delta":99546684},{"NoteNumber":46,"Velocity":38,"Duration":3678331,"SoundDuration":3678331,"Delta":99546684},{"NoteNumber":63,"Velocity":28,"Duration":384405,"SoundDuration":384405,"Delta":99924558},{"NoteNumber":72,"Velocity":48,"Duration":384405,"SoundDuration":384405,"Delta":99924558},{"NoteNumber":48,"Velocity":36,"Duration":384405,"SoundDuration":384405,"Delta":99924558},{"NoteNumber":64,"Velocity":28,"Duration":391171,"SoundDuration":391171,"Delta":100308964},{"NoteNumber":70,"Velocity":47,"Duration":391171,"SoundDuration":391171,"Delta":100308964},{"NoteNumber":49,"Velocity":35,"Duration":391171,"SoundDuration":391171,"Delta":100308964},{"NoteNumber":65,"Velocity":28,"Duration":398230,"SoundDuration":398230,"Delta":100700135},{"NoteNumber":69,"Velocity":46,"Duration":398230,"SoundDuration":398230,"Delta":100700135},{"NoteNumber":50,"Velocity":38,"Duration":398230,"SoundDuration":398230,"Delta":100700135},{"NoteNumber":63,"Velocity":26,"Duration":405768,"SoundDuration":405768,"Delta":101098366},{"NoteNumber":67,"Velocity":44,"Duration":405768,"SoundDuration":405768,"Delta":101098366},{"NoteNumber":51,"Velocity":34,"Duration":405768,"SoundDuration":405768,"Delta":101098366},{"NoteNumber":62,"Velocity":23,"Duration":419806,"SoundDuration":419806,"Delta":101504135},{"NoteNumber":65,"Velocity":41,"Duration":419806,"SoundDuration":419806,"Delta":101504135},{"NoteNumber":53,"Velocity":35,"Duration":419806,"SoundDuration":419806,"Delta":101504135},{"NoteNumber":60,"Velocity":23,"Duration":426313,"SoundDuration":426313,"Delta":101923942},{"NoteNumber":63,"Velocity":40,"Duration":426313,"SoundDuration":426313,"Delta":101923942},{"NoteNumber":55,"Velocity":33,"Duration":426313,"SoundDuration":426313,"Delta":101923942},{"NoteNumber":57,"Velocity":40,"Duration":107265,"SoundDuration":107265,"Delta":102242990},{"NoteNumber":58,"Velocity":23,"Duration":432969,"SoundDuration":432969,"Delta":102350255},{"NoteNumber":62,"Velocity":39,"Duration":432969,"SoundDuration":432969,"Delta":102350255},{"NoteNumber":57,"Velocity":22,"Duration":441790,"SoundDuration":441790,"Delta":102783225},{"NoteNumber":60,"Velocity":38,"Duration":441790,"SoundDuration":441790,"Delta":102783225},{"NoteNumber":55,"Velocity":21,"Duration":263722,"SoundDuration":263722,"Delta":103232626},{"NoteNumber":58,"Velocity":36,"Duration":264823,"SoundDuration":264823,"Delta":103238334},{"NoteNumber":57,"Velocity":31,"Duration":276866,"SoundDuration":276866,"Delta":103487322},{"NoteNumber":53,"Velocity":18,"Duration":276866,"SoundDuration":276866,"Delta":103487322},{"NoteNumber":62,"Velocity":36,"Duration":276866,"SoundDuration":276866,"Delta":103487322},{"NoteNumber":51,"Velocity":19,"Duration":290006,"SoundDuration":290006,"Delta":103764189},{"NoteNumber":55,"Velocity":33,"Duration":290006,"SoundDuration":290006,"Delta":103764189},{"NoteNumber":63,"Velocity":31,"Duration":290006,"SoundDuration":290006,"Delta":103764189},{"NoteNumber":50,"Velocity":19,"Duration":306877,"SoundDuration":306877,"Delta":104054195},{"NoteNumber":53,"Velocity":34,"Duration":306877,"SoundDuration":306877,"Delta":104054195},{"NoteNumber":65,"Velocity":34,"Duration":306877,"SoundDuration":306877,"Delta":104054195},{"NoteNumber":48,"Velocity":27,"Duration":4121822,"SoundDuration":4121822,"Delta":104361072},{"NoteNumber":51,"Velocity":38,"Duration":4121822,"SoundDuration":4121822,"Delta":104361072},{"NoteNumber":58,"Velocity":27,"Duration":2747882,"SoundDuration":2747882,"Delta":104361072},{"NoteNumber":66,"Velocity":38,"Duration":2747882,"SoundDuration":2747882,"Delta":104361072},{"NoteNumber":65,"Velocity":34,"Duration":1373940,"SoundDuration":1373940,"Delta":107108954},{"NoteNumber":57,"Velocity":28,"Duration":1373940,"SoundDuration":1373940,"Delta":107108954},{"NoteNumber":34,"Velocity":33,"Duration":2919624,"SoundDuration":2919624,"Delta":108311153},{"NoteNumber":65,"Velocity":38,"Duration":2747882,"SoundDuration":2747882,"Delta":108482895},{"NoteNumber":53,"Velocity":27,"Duration":2747882,"SoundDuration":2747882,"Delta":108482895},{"NoteNumber":58,"Velocity":27,"Duration":2747882,"SoundDuration":2747882,"Delta":108482895},{"NoteNumber":50,"Velocity":40,"Duration":2747882,"SoundDuration":2747882,"Delta":108482895},{"NoteNumber":72,"Velocity":49,"Duration":318471,"SoundDuration":318471,"Delta":111917748},{"NoteNumber":69,"Velocity":49,"Duration":318471,"SoundDuration":318471,"Delta":111917748},{"NoteNumber":77,"Velocity":69,"Duration":318471,"SoundDuration":318471,"Delta":111917748},{"NoteNumber":65,"Velocity":58,"Duration":159235,"SoundDuration":159235,"Delta":112076984},{"NoteNumber":74,"Velocity":75,"Duration":155118,"SoundDuration":155118,"Delta":112236219},{"NoteNumber":70,"Velocity":65,"Duration":77559,"SoundDuration":77559,"Delta":112236219},{"NoteNumber":62,"Velocity":49,"Duration":77559,"SoundDuration":77559,"Delta":112391338},{"NoteNumber":74,"Velocity":69,"Duration":310237,"SoundDuration":310237,"Delta":112546457},{"NoteNumber":70,"Velocity":49,"Duration":609639,"SoundDuration":609639,"Delta":112546457},{"NoteNumber":67,"Velocity":60,"Duration":77559,"SoundDuration":77559,"Delta":112546457},{"NoteNumber":65,"Velocity":49,"Duration":77559,"SoundDuration":77559,"Delta":112701576},{"NoteNumber":72,"Velocity":78,"Duration":149700,"SoundDuration":149700,"Delta":112856695},{"NoteNumber":64,"Velocity":65,"Duration":74850,"SoundDuration":74850,"Delta":112856695},{"NoteNumber":60,"Velocity":55,"Duration":74850,"SoundDuration":74850,"Delta":113006396},{"NoteNumber":72,"Velocity":69,"Duration":313479,"SoundDuration":313479,"Delta":113156096},{"NoteNumber":69,"Velocity":49,"Duration":617430,"SoundDuration":617430,"Delta":113156096},{"NoteNumber":65,"Velocity":74,"Duration":78369,"SoundDuration":78369,"Delta":113156096},{"NoteNumber":57,"Velocity":65,"Duration":78369,"SoundDuration":78369,"Delta":113312836},{"NoteNumber":70,"Velocity":77,"Duration":303951,"SoundDuration":303951,"Delta":113469576},{"NoteNumber":65,"Velocity":44,"Duration":303951,"SoundDuration":303951,"Delta":113469576},{"NoteNumber":62,"Velocity":78,"Duration":75987,"SoundDuration":75987,"Delta":113469576},{"NoteNumber":55,"Velocity":56,"Duration":75987,"SoundDuration":75987,"Delta":113621552},{"NoteNumber":64,"Velocity":49,"Duration":303951,"SoundDuration":303951,"Delta":113773527},{"NoteNumber":67,"Velocity":69,"Duration":303951,"SoundDuration":303951,"Delta":113773527},{"NoteNumber":60,"Velocity":75,"Duration":75987,"SoundDuration":75987,"Delta":113773527},{"NoteNumber":58,"Velocity":53,"Duration":75987,"SoundDuration":75987,"Delta":113925503},{"NoteNumber":72,"Velocity":72,"Duration":323624,"SoundDuration":323624,"Delta":114077479},{"NoteNumber":63,"Velocity":69,"Duration":80906,"SoundDuration":80906,"Delta":114077479},{"NoteNumber":57,"Velocity":72,"Duration":323624,"SoundDuration":323624,"Delta":114077479},{"NoteNumber":63,"Velocity":63,"Duration":80906,"SoundDuration":80906,"Delta":114239291},{"NoteNumber":70,"Velocity":49,"Duration":623852,"SoundDuration":623852,"Delta":114401103},{"NoteNumber":75,"Velocity":69,"Duration":316789,"SoundDuration":316789,"Delta":114401103},{"NoteNumber":55,"Velocity":83,"Duration":623852,"SoundDuration":623852,"Delta":114401103},{"NoteNumber":62,"Velocity":62,"Duration":79197,"SoundDuration":79197,"Delta":114559498},{"NoteNumber":74,"Velocity":75,"Duration":153531,"SoundDuration":153531,"Delta":114717893},{"NoteNumber":57,"Velocity":60,"Duration":76765,"SoundDuration":76765,"Delta":114871425},{"NoteNumber":62,"Velocity":54,"Duration":76765,"SoundDuration":76765,"Delta":115024956},{"NoteNumber":69,"Velocity":69,"Duration":307062,"SoundDuration":307062,"Delta":115024956},{"NoteNumber":54,"Velocity":73,"Duration":307062,"SoundDuration":307062,"Delta":115024956},{"NoteNumber":60,"Velocity":60,"Duration":76765,"SoundDuration":76765,"Delta":115178487},{"NoteNumber":58,"Velocity":54,"Duration":156739,"SoundDuration":156739,"Delta":115332018},{"NoteNumber":70,"Velocity":75,"Duration":156739,"SoundDuration":156739,"Delta":115332018},{"NoteNumber":55,"Velocity":83,"Duration":156739,"SoundDuration":156739,"Delta":115332018},{"NoteNumber":48,"Velocity":69,"Duration":78369,"SoundDuration":78369,"Delta":115488758},{"NoteNumber":65,"Velocity":49,"Duration":633739,"SoundDuration":633739,"Delta":115645498},{"NoteNumber":60,"Velocity":42,"Duration":321888,"SoundDuration":321888,"Delta":115645498},{"NoteNumber":69,"Velocity":69,"Duration":321888,"SoundDuration":321888,"Delta":115645498},{"NoteNumber":53,"Velocity":77,"Duration":80472,"SoundDuration":80472,"Delta":115645498},{"NoteNumber":45,"Velocity":64,"Duration":80472,"SoundDuration":80472,"Delta":115806442},{"NoteNumber":67,"Velocity":74,"Duration":311850,"SoundDuration":311850,"Delta":115967386},{"NoteNumber":62,"Velocity":49,"Duration":311850,"SoundDuration":311850,"Delta":115967386},{"NoteNumber":46,"Velocity":71,"Duration":77962,"SoundDuration":77962,"Delta":115967386},{"NoteNumber":43,"Velocity":60,"Duration":77962,"SoundDuration":77962,"Delta":116123312},{"NoteNumber":60,"Velocity":49,"Duration":335307,"SoundDuration":335307,"Delta":116279237},{"NoteNumber":64,"Velocity":69,"Duration":335307,"SoundDuration":335307,"Delta":116279237},{"NoteNumber":48,"Velocity":69,"Duration":83826,"SoundDuration":83826,"Delta":116279237},{"NoteNumber":46,"Velocity":56,"Duration":83826,"SoundDuration":83826,"Delta":116446891},{"NoteNumber":65,"Velocity":69,"Duration":186404,"SoundDuration":186404,"Delta":116614545},{"NoteNumber":45,"Velocity":69,"Duration":186404,"SoundDuration":186404,"Delta":116614545},{"NoteNumber":69,"Velocity":58,"Duration":93202,"SoundDuration":93202,"Delta":116800950},{"NoteNumber":77,"Velocity":75,"Duration":355155,"SoundDuration":355155,"Delta":116987354},{"NoteNumber":72,"Velocity":58,"Duration":88788,"SoundDuration":88788,"Delta":116987354},{"NoteNumber":41,"Velocity":89,"Duration":660654,"SoundDuration":660654,"Delta":116987354},{"NoteNumber":29,"Velocity":78,"Duration":660654,"SoundDuration":660654,"Delta":116987354},{"NoteNumber":65,"Velocity":58,"Duration":88788,"SoundDuration":88788,"Delta":117164932},{"NoteNumber":70,"Velocity":65,"Duration":76374,"SoundDuration":76374,"Delta":117342510},{"NoteNumber":74,"Velocity":79,"Duration":152749,"SoundDuration":152749,"Delta":117342510},{"NoteNumber":62,"Velocity":57,"Duration":76374,"SoundDuration":76374,"Delta":117495259},{"NoteNumber":74,"Velocity":72,"Duration":303951,"SoundDuration":303951,"Delta":117648009},{"NoteNumber":70,"Velocity":49,"Duration":612593,"SoundDuration":612593,"Delta":117648009},{"NoteNumber":67,"Velocity":60,"Duration":75987,"SoundDuration":75987,"Delta":117648009},{"NoteNumber":65,"Velocity":58,"Duration":75987,"SoundDuration":75987,"Delta":117799985},{"NoteNumber":72,"Velocity":79,"Duration":154320,"SoundDuration":154320,"Delta":117951960},{"NoteNumber":64,"Velocity":65,"Duration":77160,"SoundDuration":77160,"Delta":117951960},{"NoteNumber":60,"Velocity":55,"Duration":77160,"SoundDuration":77160,"Delta":118106281},{"NoteNumber":72,"Velocity":69,"Duration":325379,"SoundDuration":325379,"Delta":118260602},{"NoteNumber":69,"Velocity":49,"Duration":630878,"SoundDuration":630878,"Delta":118260602},{"NoteNumber":65,"Velocity":74,"Duration":81344,"SoundDuration":81344,"Delta":118260602},{"NoteNumber":57,"Velocity":58,"Duration":81344,"SoundDuration":81344,"Delta":118423292},{"NoteNumber":65,"Velocity":39,"Duration":305498,"SoundDuration":305498,"Delta":118585982},{"NoteNumber":70,"Velocity":74,"Duration":305498,"SoundDuration":305498,"Delta":118585982},{"NoteNumber":62,"Velocity":73,"Duration":76374,"SoundDuration":76374,"Delta":118585982},{"NoteNumber":55,"Velocity":56,"Duration":76374,"SoundDuration":76374,"Delta":118738731},{"NoteNumber":64,"Velocity":49,"Duration":305498,"SoundDuration":305498,"Delta":118891481},{"NoteNumber":67,"Velocity":69,"Duration":305498,"SoundDuration":305498,"Delta":118891481},{"NoteNumber":60,"Velocity":75,"Duration":76374,"SoundDuration":76374,"Delta":118891481},{"NoteNumber":58,"Velocity":52,"Duration":76374,"SoundDuration":76374,"Delta":119044230},{"NoteNumber":72,"Velocity":72,"Duration":323624,"SoundDuration":323624,"Delta":119196980},{"NoteNumber":63,"Velocity":69,"Duration":80906,"SoundDuration":80906,"Delta":119196980},{"NoteNumber":57,"Velocity":72,"Duration":323624,"SoundDuration":323624,"Delta":119196980},{"NoteNumber":63,"Velocity":63,"Duration":80906,"SoundDuration":80906,"Delta":119358792},{"NoteNumber":70,"Velocity":47,"Duration":623852,"SoundDuration":623852,"Delta":119520604},{"NoteNumber":75,"Velocity":66,"Duration":316789,"SoundDuration":316789,"Delta":119520604},{"NoteNumber":55,"Velocity":80,"Duration":623852,"SoundDuration":623852,"Delta":119520604},{"NoteNumber":62,"Velocity":59,"Duration":79197,"SoundDuration":79197,"Delta":119678999},{"NoteNumber":74,"Velocity":71,"Duration":153531,"SoundDuration":153531,"Delta":119837394},{"NoteNumber":57,"Velocity":57,"Duration":76765,"SoundDuration":76765,"Delta":119990926},{"NoteNumber":62,"Velocity":50,"Duration":76765,"SoundDuration":76765,"Delta":120144457},{"NoteNumber":69,"Velocity":64,"Duration":307062,"SoundDuration":307062,"Delta":120144457},{"NoteNumber":54,"Velocity":64,"Duration":307062,"SoundDuration":307062,"Delta":120144457},{"NoteNumber":60,"Velocity":56,"Duration":76765,"SoundDuration":76765,"Delta":120297988},{"NoteNumber":70,"Velocity":70,"Duration":156739,"SoundDuration":156739,"Delta":120451519},{"NoteNumber":58,"Velocity":50,"Duration":156739,"SoundDuration":156739,"Delta":120451519},{"NoteNumber":55,"Velocity":78,"Duration":156739,"SoundDuration":156739,"Delta":120451519},{"NoteNumber":48,"Velocity":63,"Duration":78369,"SoundDuration":78369,"Delta":120608259},{"NoteNumber":65,"Velocity":45,"Duration":658823,"SoundDuration":658823,"Delta":120764999},{"NoteNumber":60,"Velocity":38,"Duration":325379,"SoundDuration":325379,"Delta":120764999},{"NoteNumber":69,"Velocity":63,"Duration":325379,"SoundDuration":325379,"Delta":120764999},{"NoteNumber":53,"Velocity":70,"Duration":81344,"SoundDuration":81344,"Delta":120764999},{"NoteNumber":45,"Velocity":58,"Duration":81344,"SoundDuration":81344,"Delta":120927689},{"NoteNumber":67,"Velocity":67,"Duration":333444,"SoundDuration":333444,"Delta":121090378},{"NoteNumber":62,"Velocity":44,"Duration":333444,"SoundDuration":333444,"Delta":121090378},{"NoteNumber":46,"Velocity":64,"Duration":83361,"SoundDuration":83361,"Delta":121090378},{"NoteNumber":43,"Velocity":58,"Duration":83361,"SoundDuration":83361,"Delta":121257101},{"NoteNumber":60,"Velocity":44,"Duration":508646,"SoundDuration":508646,"Delta":121423823},{"NoteNumber":64,"Velocity":61,"Duration":339098,"SoundDuration":339098,"Delta":121423823},{"NoteNumber":48,"Velocity":61,"Duration":84774,"SoundDuration":84774,"Delta":121423823},{"NoteNumber":46,"Velocity":56,"Duration":84774,"SoundDuration":84774,"Delta":121593372},{"NoteNumber":65,"Velocity":60,"Duration":169548,"SoundDuration":169548,"Delta":121762921},{"NoteNumber":45,"Velocity":60,"Duration":169548,"SoundDuration":169548,"Delta":121762921},{"NoteNumber":57,"Velocity":44,"Duration":84774,"SoundDuration":84774,"Delta":121932470},{"NoteNumber":60,"Velocity":53,"Duration":84774,"SoundDuration":84774,"Delta":122102019},{"NoteNumber":65,"Velocity":53,"Duration":339098,"SoundDuration":339098,"Delta":122102019},{"NoteNumber":41,"Velocity":47,"Duration":655888,"SoundDuration":655888,"Delta":122102019},{"NoteNumber":29,"Velocity":39,"Duration":655888,"SoundDuration":655888,"Delta":122102019},{"NoteNumber":53,"Velocity":47,"Duration":84774,"SoundDuration":84774,"Delta":122271568},{"NoteNumber":57,"Velocity":43,"Duration":79197,"SoundDuration":79197,"Delta":122441117},{"NoteNumber":60,"Velocity":51,"Duration":316789,"SoundDuration":316789,"Delta":122441117},{"NoteNumber":48,"Velocity":46,"Duration":79197,"SoundDuration":79197,"Delta":122599512},{"NoteNumber":62,"Velocity":51,"Duration":316789,"SoundDuration":316789,"Delta":122757907},{"NoteNumber":58,"Velocity":43,"Duration":79197,"SoundDuration":79197,"Delta":122757907},{"NoteNumber":56,"Velocity":45,"Duration":79197,"SoundDuration":79197,"Delta":122916302},{"NoteNumber":58,"Velocity":43,"Duration":79197,"SoundDuration":79197,"Delta":123074697},{"NoteNumber":63,"Velocity":51,"Duration":316790,"SoundDuration":316790,"Delta":123074697},{"NoteNumber":54,"Velocity":43,"Duration":79197,"SoundDuration":79197,"Delta":123233092},{"NoteNumber":58,"Velocity":51,"Duration":82236,"SoundDuration":82236,"Delta":123391487},{"NoteNumber":63,"Velocity":61,"Duration":328947,"SoundDuration":328947,"Delta":123391487},{"NoteNumber":42,"Velocity":56,"Duration":640798,"SoundDuration":640798,"Delta":123391487},{"NoteNumber":30,"Velocity":39,"Duration":952648,"SoundDuration":952648,"Delta":123391487},{"NoteNumber":51,"Velocity":48,"Duration":82236,"SoundDuration":82236,"Delta":123555961},{"NoteNumber":54,"Velocity":47,"Duration":77962,"SoundDuration":77962,"Delta":123720434},{"NoteNumber":58,"Velocity":56,"Duration":311850,"SoundDuration":311850,"Delta":123720434},{"NoteNumber":46,"Velocity":49,"Duration":77962,"SoundDuration":77962,"Delta":123876360},{"NoteNumber":53,"Velocity":46,"Duration":77962,"SoundDuration":77962,"Delta":124032285},{"NoteNumber":60,"Velocity":57,"Duration":311850,"SoundDuration":311850,"Delta":124032285},{"NoteNumber":44,"Velocity":46,"Duration":311850,"SoundDuration":311850,"Delta":124032285},{"NoteNumber":51,"Velocity":48,"Duration":77962,"SoundDuration":77962,"Delta":124188210},{"NoteNumber":61,"Velocity":56,"Duration":311850,"SoundDuration":311850,"Delta":124344135},{"NoteNumber":49,"Velocity":45,"Duration":77962,"SoundDuration":77962,"Delta":124344135},{"NoteNumber":29,"Velocity":36,"Duration":311850,"SoundDuration":311850,"Delta":124344135},{"NoteNumber":41,"Velocity":51,"Duration":311850,"SoundDuration":311850,"Delta":124344135},{"NoteNumber":56,"Velocity":48,"Duration":77962,"SoundDuration":77962,"Delta":124500061},{"NoteNumber":58,"Velocity":54,"Duration":82690,"SoundDuration":82690,"Delta":124655986},{"NoteNumber":63,"Velocity":64,"Duration":330760,"SoundDuration":330760,"Delta":124655986},{"NoteNumber":42,"Velocity":56,"Duration":639402,"SoundDuration":639402,"Delta":124655986},{"NoteNumber":30,"Velocity":39,"Duration":948044,"SoundDuration":948044,"Delta":124655986},{"NoteNumber":51,"Velocity":51,"Duration":82690,"SoundDuration":82690,"Delta":124821366},{"NoteNumber":54,"Velocity":48,"Duration":77160,"SoundDuration":77160,"Delta":124986746},{"NoteNumber":58,"Velocity":57,"Duration":308642,"SoundDuration":308642,"Delta":124986746},{"NoteNumber":46,"Velocity":51,"Duration":77160,"SoundDuration":77160,"Delta":125141067},{"NoteNumber":60,"Velocity":55,"Duration":308641,"SoundDuration":308641,"Delta":125295388},{"NoteNumber":53,"Velocity":46,"Duration":77160,"SoundDuration":77160,"Delta":125295388},{"NoteNumber":44,"Velocity":49,"Duration":308641,"SoundDuration":308641,"Delta":125295388},{"NoteNumber":51,"Velocity":51,"Duration":77160,"SoundDuration":77160,"Delta":125449709},{"NoteNumber":49,"Velocity":41,"Duration":77160,"SoundDuration":77160,"Delta":125604030},{"NoteNumber":61,"Velocity":57,"Duration":77160,"SoundDuration":77160,"Delta":125604030},{"NoteNumber":29,"Velocity":39,"Duration":308642,"SoundDuration":308642,"Delta":125604030},{"NoteNumber":41,"Velocity":56,"Duration":308642,"SoundDuration":308642,"Delta":125604030},{"NoteNumber":49,"Velocity":51,"Duration":154321,"SoundDuration":154321,"Delta":125758351},{"NoteNumber":58,"Velocity":57,"Duration":158730,"SoundDuration":158730,"Delta":125912672},{"NoteNumber":30,"Velocity":36,"Duration":317460,"SoundDuration":317460,"Delta":125912672},{"NoteNumber":42,"Velocity":51,"Duration":317460,"SoundDuration":317460,"Delta":125912672},{"NoteNumber":51,"Velocity":51,"Duration":158730,"SoundDuration":158730,"Delta":126071403},{"NoteNumber":63,"Velocity":59,"Duration":153061,"SoundDuration":153061,"Delta":126230133},{"NoteNumber":31,"Velocity":43,"Duration":306122,"SoundDuration":306122,"Delta":126230133},{"NoteNumber":43,"Velocity":60,"Duration":306122,"SoundDuration":306122,"Delta":126230133},{"NoteNumber":48,"Velocity":52,"Duration":153061,"SoundDuration":153061,"Delta":126383194},{"NoteNumber":60,"Velocity":61,"Duration":157894,"SoundDuration":157894,"Delta":126536255},{"NoteNumber":32,"Velocity":36,"Duration":315789,"SoundDuration":315789,"Delta":126536255},{"NoteNumber":44,"Velocity":52,"Duration":315789,"SoundDuration":315789,"Delta":126536255},{"NoteNumber":53,"Velocity":57,"Duration":157894,"SoundDuration":157894,"Delta":126694150},{"NoteNumber":65,"Velocity":64,"Duration":151515,"SoundDuration":151515,"Delta":126852045},{"NoteNumber":45,"Velocity":61,"Duration":303030,"SoundDuration":303030,"Delta":126852045},{"NoteNumber":33,"Velocity":43,"Duration":303030,"SoundDuration":303030,"Delta":126852045},{"NoteNumber":50,"Velocity":57,"Duration":151515,"SoundDuration":151515,"Delta":127003560},{"NoteNumber":62,"Velocity":68,"Duration":156250,"SoundDuration":156250,"Delta":127155075},{"NoteNumber":46,"Velocity":54,"Duration":312500,"SoundDuration":312500,"Delta":127155075},{"NoteNumber":34,"Velocity":54,"Duration":312500,"SoundDuration":312500,"Delta":127155075},{"NoteNumber":55,"Velocity":63,"Duration":156250,"SoundDuration":156250,"Delta":127311325},{"NoteNumber":67,"Velocity":71,"Duration":150753,"SoundDuration":150753,"Delta":127467575},{"NoteNumber":35,"Velocity":46,"Duration":302268,"SoundDuration":302268,"Delta":127467575},{"NoteNumber":47,"Velocity":66,"Duration":302268,"SoundDuration":302268,"Delta":127467575},{"NoteNumber":60,"Velocity":64,"Duration":151515,"SoundDuration":151515,"Delta":127618329},{"NoteNumber":72,"Velocity":76,"Duration":165380,"SoundDuration":165380,"Delta":127769844},{"NoteNumber":48,"Velocity":63,"Duration":330760,"SoundDuration":330760,"Delta":127769844},{"NoteNumber":36,"Velocity":44,"Duration":330760,"SoundDuration":330760,"Delta":127769844},{"NoteNumber":65,"Velocity":71,"Duration":165380,"SoundDuration":165380,"Delta":127935225},{"NoteNumber":77,"Velocity":80,"Duration":165380,"SoundDuration":165380,"Delta":128100605},{"NoteNumber":41,"Velocity":76,"Duration":830709,"SoundDuration":830709,"Delta":128100605},{"NoteNumber":29,"Velocity":49,"Duration":830709,"SoundDuration":830709,"Delta":128100605},{"NoteNumber":69,"Velocity":58,"Duration":93202,"SoundDuration":93202,"Delta":128265985},{"NoteNumber":77,"Velocity":75,"Duration":329670,"SoundDuration":329670,"Delta":128452390},{"NoteNumber":72,"Velocity":58,"Duration":82417,"SoundDuration":82417,"Delta":128452390},{"NoteNumber":65,"Velocity":58,"Duration":82417,"SoundDuration":82417,"Delta":128617225},{"NoteNumber":70,"Velocity":65,"Duration":74626,"SoundDuration":74626,"Delta":128782060},{"NoteNumber":74,"Velocity":79,"Duration":149253,"SoundDuration":149253,"Delta":128782060},{"NoteNumber":62,"Velocity":52,"Duration":74626,"SoundDuration":74626,"Delta":128931314},{"NoteNumber":74,"Velocity":72,"Duration":307062,"SoundDuration":307062,"Delta":129080568},{"NoteNumber":70,"Velocity":49,"Duration":605570,"SoundDuration":605570,"Delta":129080568},{"NoteNumber":67,"Velocity":60,"Duration":76765,"SoundDuration":76765,"Delta":129080568},{"NoteNumber":65,"Velocity":51,"Duration":76765,"SoundDuration":76765,"Delta":129234099},{"NoteNumber":72,"Velocity":79,"Duration":149253,"SoundDuration":149253,"Delta":129387630},{"NoteNumber":64,"Velocity":65,"Duration":74626,"SoundDuration":74626,"Delta":129387630},{"NoteNumber":60,"Velocity":51,"Duration":74626,"SoundDuration":74626,"Delta":129536884},{"NoteNumber":69,"Velocity":49,"Duration":624919,"SoundDuration":624919,"Delta":129686138},{"NoteNumber":72,"Velocity":69,"Duration":321888,"SoundDuration":321888,"Delta":129686138},{"NoteNumber":65,"Velocity":74,"Duration":80472,"SoundDuration":80472,"Delta":129686138},{"NoteNumber":57,"Velocity":65,"Duration":80472,"SoundDuration":80472,"Delta":129847082},{"NoteNumber":70,"Velocity":73,"Duration":303030,"SoundDuration":303030,"Delta":130008026},{"NoteNumber":65,"Velocity":42,"Duration":303030,"SoundDuration":303030,"Delta":130008026},{"NoteNumber":62,"Velocity":74,"Duration":75757,"SoundDuration":75757,"Delta":130008026},{"NoteNumber":55,"Velocity":59,"Duration":75757,"SoundDuration":75757,"Delta":130159542},{"NoteNumber":67,"Velocity":69,"Duration":303030,"SoundDuration":303030,"Delta":130311057},{"NoteNumber":64,"Velocity":49,"Duration":303030,"SoundDuration":303030,"Delta":130311057},{"NoteNumber":60,"Velocity":75,"Duration":75757,"SoundDuration":75757,"Delta":130311057},{"NoteNumber":58,"Velocity":55,"Duration":75757,"SoundDuration":75757,"Delta":130462572},{"NoteNumber":72,"Velocity":72,"Duration":323624,"SoundDuration":323624,"Delta":130614087},{"NoteNumber":63,"Velocity":69,"Duration":80906,"SoundDuration":80906,"Delta":130614087},{"NoteNumber":57,"Velocity":72,"Duration":323624,"SoundDuration":323624,"Delta":130614087},{"NoteNumber":63,"Velocity":63,"Duration":80906,"SoundDuration":80906,"Delta":130775900},{"NoteNumber":70,"Velocity":46,"Duration":630530,"SoundDuration":630530,"Delta":130937712},{"NoteNumber":75,"Velocity":65,"Duration":321888,"SoundDuration":321888,"Delta":130937712},{"NoteNumber":55,"Velocity":78,"Duration":630530,"SoundDuration":630530,"Delta":130937712},{"NoteNumber":62,"Velocity":58,"Duration":80472,"SoundDuration":80472,"Delta":131098656},{"NoteNumber":74,"Velocity":70,"Duration":154321,"SoundDuration":154321,"Delta":131259600},{"NoteNumber":57,"Velocity":55,"Duration":77160,"SoundDuration":77160,"Delta":131413921},{"NoteNumber":62,"Velocity":52,"Duration":77160,"SoundDuration":77160,"Delta":131568242},{"NoteNumber":69,"Velocity":64,"Duration":308642,"SoundDuration":308642,"Delta":131568242},{"NoteNumber":54,"Velocity":67,"Duration":308642,"SoundDuration":308642,"Delta":131568242},{"NoteNumber":60,"Velocity":55,"Duration":77160,"SoundDuration":77160,"Delta":131722563},{"NoteNumber":58,"Velocity":49,"Duration":157563,"SoundDuration":157563,"Delta":131876884},{"NoteNumber":70,"Velocity":68,"Duration":157563,"SoundDuration":157563,"Delta":131876884},{"NoteNumber":55,"Velocity":75,"Duration":157563,"SoundDuration":157563,"Delta":131876884},{"NoteNumber":48,"Velocity":62,"Duration":78781,"SoundDuration":78781,"Delta":132034447},{"NoteNumber":60,"Velocity":36,"Duration":327154,"SoundDuration":327154,"Delta":132192010},{"NoteNumber":65,"Velocity":38,"Duration":654308,"SoundDuration":654308,"Delta":132192010},{"NoteNumber":69,"Velocity":62,"Duration":327154,"SoundDuration":327154,"Delta":132192010},{"NoteNumber":53,"Velocity":69,"Duration":81788,"SoundDuration":81788,"Delta":132192010},{"NoteNumber":45,"Velocity":56,"Duration":81788,"SoundDuration":81788,"Delta":132355587},{"NoteNumber":62,"Velocity":51,"Duration":327154,"SoundDuration":327154,"Delta":132519164},{"NoteNumber":67,"Velocity":65,"Duration":327154,"SoundDuration":327154,"Delta":132519164},{"NoteNumber":46,"Velocity":63,"Duration":81788,"SoundDuration":81788,"Delta":132519164},{"NoteNumber":43,"Velocity":57,"Duration":81788,"SoundDuration":81788,"Delta":132682741},{"NoteNumber":64,"Velocity":60,"Duration":328947,"SoundDuration":328947,"Delta":132846318},{"NoteNumber":60,"Velocity":42,"Duration":493421,"SoundDuration":493421,"Delta":132846318},{"NoteNumber":48,"Velocity":60,"Duration":82236,"SoundDuration":82236,"Delta":132846318},{"NoteNumber":46,"Velocity":54,"Duration":82236,"SoundDuration":82236,"Delta":133010792},{"NoteNumber":65,"Velocity":59,"Duration":164473,"SoundDuration":164473,"Delta":133175266},{"NoteNumber":45,"Velocity":59,"Duration":164473,"SoundDuration":164473,"Delta":133175266},{"NoteNumber":57,"Velocity":47,"Duration":82236,"SoundDuration":82236,"Delta":133339740},{"NoteNumber":65,"Velocity":53,"Duration":328947,"SoundDuration":328947,"Delta":133504213},{"NoteNumber":60,"Velocity":53,"Duration":82236,"SoundDuration":82236,"Delta":133504213},{"NoteNumber":29,"Velocity":39,"Duration":952648,"SoundDuration":952648,"Delta":133504213},{"NoteNumber":41,"Velocity":47,"Duration":952648,"SoundDuration":952648,"Delta":133504213},{"NoteNumber":53,"Velocity":47,"Duration":82236,"SoundDuration":82236,"Delta":133668687},{"NoteNumber":60,"Velocity":51,"Duration":311850,"SoundDuration":311850,"Delta":133833161},{"NoteNumber":57,"Velocity":43,"Duration":77962,"SoundDuration":77962,"Delta":133833161},{"NoteNumber":48,"Velocity":46,"Duration":77962,"SoundDuration":77962,"Delta":133989086},{"NoteNumber":62,"Velocity":51,"Duration":311850,"SoundDuration":311850,"Delta":134145011},{"NoteNumber":58,"Velocity":43,"Duration":77962,"SoundDuration":77962,"Delta":134145011},{"NoteNumber":56,"Velocity":45,"Duration":77962,"SoundDuration":77962,"Delta":134300937},{"NoteNumber":63,"Velocity":51,"Duration":311850,"SoundDuration":311850,"Delta":134456862},{"NoteNumber":58,"Velocity":43,"Duration":77962,"SoundDuration":77962,"Delta":134456862},{"NoteNumber":54,"Velocity":46,"Duration":77962,"SoundDuration":77962,"Delta":134612787},{"NoteNumber":58,"Velocity":51,"Duration":82236,"SoundDuration":82236,"Delta":134768712},{"NoteNumber":63,"Velocity":61,"Duration":328947,"SoundDuration":328947,"Delta":134768712},{"NoteNumber":30,"Velocity":39,"Duration":952648,"SoundDuration":952648,"Delta":134768712},{"NoteNumber":42,"Velocity":56,"Duration":640797,"SoundDuration":640797,"Delta":134768712},{"NoteNumber":51,"Velocity":48,"Duration":82236,"SoundDuration":82236,"Delta":134933186},{"NoteNumber":58,"Velocity":56,"Duration":311850,"SoundDuration":311850,"Delta":135097660},{"NoteNumber":54,"Velocity":47,"Duration":77962,"SoundDuration":77962,"Delta":135097660},{"NoteNumber":46,"Velocity":49,"Duration":77962,"SoundDuration":77962,"Delta":135253585},{"NoteNumber":60,"Velocity":57,"Duration":311850,"SoundDuration":311850,"Delta":135409510},{"NoteNumber":53,"Velocity":48,"Duration":77962,"SoundDuration":77962,"Delta":135409510},{"NoteNumber":44,"Velocity":46,"Duration":311850,"SoundDuration":311850,"Delta":135409510},{"NoteNumber":51,"Velocity":48,"Duration":77962,"SoundDuration":77962,"Delta":135565436},{"NoteNumber":49,"Velocity":47,"Duration":77962,"SoundDuration":77962,"Delta":135721361},{"NoteNumber":61,"Velocity":56,"Duration":311850,"SoundDuration":311850,"Delta":135721361},{"NoteNumber":41,"Velocity":51,"Duration":311850,"SoundDuration":311850,"Delta":135721361},{"NoteNumber":29,"Velocity":36,"Duration":311850,"SoundDuration":311850,"Delta":135721361},{"NoteNumber":56,"Velocity":48,"Duration":77962,"SoundDuration":77962,"Delta":135877286},{"NoteNumber":63,"Velocity":64,"Duration":330760,"SoundDuration":330760,"Delta":136033211},{"NoteNumber":58,"Velocity":54,"Duration":82690,"SoundDuration":82690,"Delta":136033211},{"NoteNumber":42,"Velocity":56,"Duration":642610,"SoundDuration":642610,"Delta":136033211},{"NoteNumber":30,"Velocity":39,"Duration":954461,"SoundDuration":954461,"Delta":136033211},{"NoteNumber":51,"Velocity":51,"Duration":82690,"SoundDuration":82690,"Delta":136198592},{"NoteNumber":58,"Velocity":57,"Duration":311850,"SoundDuration":311850,"Delta":136363972},{"NoteNumber":54,"Velocity":48,"Duration":77962,"SoundDuration":77962,"Delta":136363972},{"NoteNumber":46,"Velocity":51,"Duration":77962,"SoundDuration":77962,"Delta":136519897},{"NoteNumber":53,"Velocity":46,"Duration":77962,"SoundDuration":77962,"Delta":136675822},{"NoteNumber":60,"Velocity":55,"Duration":311850,"SoundDuration":311850,"Delta":136675822},{"NoteNumber":44,"Velocity":49,"Duration":311850,"SoundDuration":311850,"Delta":136675822},{"NoteNumber":51,"Velocity":51,"Duration":77962,"SoundDuration":77962,"Delta":136831748},{"NoteNumber":49,"Velocity":48,"Duration":77962,"SoundDuration":77962,"Delta":136987673},{"NoteNumber":61,"Velocity":57,"Duration":77962,"SoundDuration":77962,"Delta":136987673},{"NoteNumber":41,"Velocity":56,"Duration":311850,"SoundDuration":311850,"Delta":136987673},{"NoteNumber":29,"Velocity":39,"Duration":311850,"SoundDuration":311850,"Delta":136987673},{"NoteNumber":49,"Velocity":51,"Duration":155925,"SoundDuration":155925,"Delta":137143598},{"NoteNumber":58,"Velocity":57,"Duration":161812,"SoundDuration":161812,"Delta":137299523},{"NoteNumber":30,"Velocity":49,"Duration":323624,"SoundDuration":323624,"Delta":137299523},{"NoteNumber":42,"Velocity":49,"Duration":323624,"SoundDuration":323624,"Delta":137299523},{"NoteNumber":51,"Velocity":51,"Duration":161812,"SoundDuration":161812,"Delta":137461336},{"NoteNumber":63,"Velocity":59,"Duration":153061,"SoundDuration":153061,"Delta":137623148},{"NoteNumber":43,"Velocity":60,"Duration":306122,"SoundDuration":306122,"Delta":137623148},{"NoteNumber":31,"Velocity":43,"Duration":306122,"SoundDuration":306122,"Delta":137623148},{"NoteNumber":48,"Velocity":53,"Duration":153061,"SoundDuration":153061,"Delta":137776209},{"NoteNumber":60,"Velocity":61,"Duration":155440,"SoundDuration":155440,"Delta":137929270},{"NoteNumber":44,"Velocity":46,"Duration":310880,"SoundDuration":310880,"Delta":137929270},{"NoteNumber":32,"Velocity":46,"Duration":310880,"SoundDuration":310880,"Delta":137929270},{"NoteNumber":53,"Velocity":57,"Duration":155440,"SoundDuration":155440,"Delta":138084711},{"NoteNumber":65,"Velocity":64,"Duration":151515,"SoundDuration":151515,"Delta":138240151},{"NoteNumber":33,"Velocity":43,"Duration":303030,"SoundDuration":303030,"Delta":138240151},{"NoteNumber":45,"Velocity":61,"Duration":303030,"SoundDuration":303030,"Delta":138240151},{"NoteNumber":50,"Velocity":57,"Duration":151515,"SoundDuration":151515,"Delta":138391667},{"NoteNumber":62,"Velocity":67,"Duration":156250,"SoundDuration":156250,"Delta":138543182},{"NoteNumber":46,"Velocity":56,"Duration":312500,"SoundDuration":312500,"Delta":138543182},{"NoteNumber":34,"Velocity":40,"Duration":312500,"SoundDuration":312500,"Delta":138543182},{"NoteNumber":55,"Velocity":63,"Duration":156250,"SoundDuration":156250,"Delta":138699432},{"NoteNumber":67,"Velocity":70,"Duration":150000,"SoundDuration":150000,"Delta":138855682},{"NoteNumber":35,"Velocity":46,"Duration":302284,"SoundDuration":302284,"Delta":138855682},{"NoteNumber":47,"Velocity":65,"Duration":302284,"SoundDuration":302284,"Delta":138855682},{"NoteNumber":60,"Velocity":63,"Duration":152284,"SoundDuration":152284,"Delta":139005682},{"NoteNumber":72,"Velocity":75,"Duration":165380,"SoundDuration":165380,"Delta":139157966},{"NoteNumber":48,"Velocity":62,"Duration":330760,"SoundDuration":330760,"Delta":139157966},{"NoteNumber":36,"Velocity":43,"Duration":330760,"SoundDuration":330760,"Delta":139157966},{"NoteNumber":65,"Velocity":70,"Duration":165380,"SoundDuration":165380,"Delta":139323346},{"NoteNumber":77,"Velocity":78,"Duration":165380,"SoundDuration":165380,"Delta":139488727},{"NoteNumber":29,"Velocity":47,"Duration":848193,"SoundDuration":848193,"Delta":139488727},{"NoteNumber":41,"Velocity":74,"Duration":848193,"SoundDuration":848193,"Delta":139488727},{"NoteNumber":69,"Velocity":51,"Duration":93202,"SoundDuration":93202,"Delta":139654107},{"NoteNumber":72,"Velocity":58,"Duration":84080,"SoundDuration":84080,"Delta":139840512},{"NoteNumber":77,"Velocity":75,"Duration":336322,"SoundDuration":336322,"Delta":139840512},{"NoteNumber":65,"Velocity":58,"Duration":84080,"SoundDuration":84080,"Delta":140008673},{"NoteNumber":70,"Velocity":65,"Duration":80042,"SoundDuration":80042,"Delta":140176835},{"NoteNumber":74,"Velocity":79,"Duration":160085,"SoundDuration":160085,"Delta":140176835},{"NoteNumber":62,"Velocity":57,"Duration":80042,"SoundDuration":80042,"Delta":140336920},{"NoteNumber":70,"Velocity":49,"Duration":613358,"SoundDuration":613358,"Delta":140497006},{"NoteNumber":74,"Velocity":72,"Duration":311850,"SoundDuration":311850,"Delta":140497006},{"NoteNumber":67,"Velocity":60,"Duration":77962,"SoundDuration":77962,"Delta":140497006},{"NoteNumber":65,"Velocity":51,"Duration":77962,"SoundDuration":77962,"Delta":140652931},{"NoteNumber":72,"Velocity":79,"Duration":150753,"SoundDuration":150753,"Delta":140808856},{"NoteNumber":64,"Velocity":65,"Duration":75376,"SoundDuration":75376,"Delta":140808856},{"NoteNumber":60,"Velocity":52,"Duration":75376,"SoundDuration":75376,"Delta":140959610},{"NoteNumber":69,"Velocity":49,"Duration":634505,"SoundDuration":634505,"Delta":141110364},{"NoteNumber":72,"Velocity":69,"Duration":323624,"SoundDuration":323624,"Delta":141110364},{"NoteNumber":65,"Velocity":74,"Duration":80906,"SoundDuration":80906,"Delta":141110364},{"NoteNumber":57,"Velocity":60,"Duration":80906,"SoundDuration":80906,"Delta":141272176},{"NoteNumber":65,"Velocity":44,"Duration":310880,"SoundDuration":310880,"Delta":141433988},{"NoteNumber":70,"Velocity":71,"Duration":310880,"SoundDuration":310880,"Delta":141433988},{"NoteNumber":62,"Velocity":71,"Duration":77720,"SoundDuration":77720,"Delta":141433988},{"NoteNumber":55,"Velocity":66,"Duration":77720,"SoundDuration":77720,"Delta":141589429},{"NoteNumber":67,"Velocity":69,"Duration":310880,"SoundDuration":310880,"Delta":141744869},{"NoteNumber":64,"Velocity":49,"Duration":310880,"SoundDuration":310880,"Delta":141744869},{"NoteNumber":60,"Velocity":75,"Duration":77720,"SoundDuration":77720,"Delta":141744869},{"NoteNumber":58,"Velocity":60,"Duration":77720,"SoundDuration":77720,"Delta":141900310},{"NoteNumber":72,"Velocity":72,"Duration":323624,"SoundDuration":323624,"Delta":142055750},{"NoteNumber":63,"Velocity":69,"Duration":80906,"SoundDuration":80906,"Delta":142055750},{"NoteNumber":57,"Velocity":72,"Duration":323624,"SoundDuration":323624,"Delta":142055750},{"NoteNumber":63,"Velocity":63,"Duration":80906,"SoundDuration":80906,"Delta":142217562},{"NoteNumber":75,"Velocity":65,"Duration":316789,"SoundDuration":316789,"Delta":142379375},{"NoteNumber":70,"Velocity":55,"Duration":623852,"SoundDuration":623852,"Delta":142379375},{"NoteNumber":55,"Velocity":78,"Duration":623852,"SoundDuration":623852,"Delta":142379375},{"NoteNumber":62,"Velocity":58,"Duration":79197,"SoundDuration":79197,"Delta":142537770},{"NoteNumber":74,"Velocity":70,"Duration":153531,"SoundDuration":153531,"Delta":142696165},{"NoteNumber":57,"Velocity":56,"Duration":76765,"SoundDuration":76765,"Delta":142849696},{"NoteNumber":62,"Velocity":53,"Duration":76765,"SoundDuration":76765,"Delta":143003227},{"NoteNumber":69,"Velocity":64,"Duration":307062,"SoundDuration":307062,"Delta":143003227},{"NoteNumber":54,"Velocity":67,"Duration":307062,"SoundDuration":307062,"Delta":143003227},{"NoteNumber":60,"Velocity":55,"Duration":76765,"SoundDuration":76765,"Delta":143156758},{"NoteNumber":58,"Velocity":58,"Duration":161342,"SoundDuration":161342,"Delta":143310290},{"NoteNumber":70,"Velocity":69,"Duration":161342,"SoundDuration":161342,"Delta":143310290},{"NoteNumber":55,"Velocity":76,"Duration":161342,"SoundDuration":161342,"Delta":143310290},{"NoteNumber":48,"Velocity":62,"Duration":80671,"SoundDuration":80671,"Delta":143471632},{"NoteNumber":69,"Velocity":62,"Duration":337192,"SoundDuration":337192,"Delta":143632974},{"NoteNumber":60,"Velocity":44,"Duration":337192,"SoundDuration":337192,"Delta":143632974},{"NoteNumber":65,"Velocity":44,"Duration":689428,"SoundDuration":689428,"Delta":143632974},{"NoteNumber":53,"Velocity":69,"Duration":84298,"SoundDuration":84298,"Delta":143632974},{"NoteNumber":45,"Velocity":57,"Duration":84298,"SoundDuration":84298,"Delta":143801570},{"NoteNumber":62,"Velocity":43,"Duration":352236,"SoundDuration":352236,"Delta":143970167},{"NoteNumber":67,"Velocity":65,"Duration":352236,"SoundDuration":352236,"Delta":143970167},{"NoteNumber":46,"Velocity":63,"Duration":88059,"SoundDuration":88059,"Delta":143970167},{"NoteNumber":43,"Velocity":49,"Duration":88059,"SoundDuration":88059,"Delta":144146285},{"NoteNumber":64,"Velocity":60,"Duration":412824,"SoundDuration":412824,"Delta":144322403},{"NoteNumber":60,"Velocity":43,"Duration":1503980,"SoundDuration":1503980,"Delta":144322403},{"NoteNumber":48,"Velocity":54,"Duration":103206,"SoundDuration":103206,"Delta":144322403},{"NoteNumber":46,"Velocity":33,"Duration":103206,"SoundDuration":103206,"Delta":144528816},{"NoteNumber":65,"Velocity":60,"Duration":1091155,"SoundDuration":1091155,"Delta":144735228},{"NoteNumber":53,"Velocity":42,"Duration":438981,"SoundDuration":438981,"Delta":144735228},{"NoteNumber":45,"Velocity":42,"Duration":1091155,"SoundDuration":1091155,"Delta":144735228},{"NoteNumber":51,"Velocity":46,"Duration":652174,"SoundDuration":652174,"Delta":145174210},{"NoteNumber":70,"Velocity":43,"Duration":373878,"SoundDuration":373878,"Delta":145826384},{"NoteNumber":58,"Velocity":30,"Duration":373878,"SoundDuration":373878,"Delta":145826384},{"NoteNumber":46,"Velocity":39,"Duration":2228737,"SoundDuration":2228737,"Delta":145826384},{"NoteNumber":50,"Velocity":39,"Duration":373878,"SoundDuration":373878,"Delta":145826384},{"NoteNumber":72,"Velocity":43,"Duration":373878,"SoundDuration":373878,"Delta":146200262},{"NoteNumber":60,"Velocity":30,"Duration":373878,"SoundDuration":373878,"Delta":146200262},{"NoteNumber":53,"Velocity":39,"Duration":373878,"SoundDuration":373878,"Delta":146200262},{"NoteNumber":74,"Velocity":44,"Duration":361228,"SoundDuration":361228,"Delta":146574141},{"NoteNumber":62,"Velocity":31,"Duration":361228,"SoundDuration":361228,"Delta":146574141},{"NoteNumber":58,"Velocity":41,"Duration":361228,"SoundDuration":361228,"Delta":146574141},{"NoteNumber":77,"Velocity":54,"Duration":393184,"SoundDuration":393184,"Delta":146935369},{"NoteNumber":65,"Velocity":34,"Duration":393184,"SoundDuration":393184,"Delta":146935369},{"NoteNumber":62,"Velocity":43,"Duration":393184,"SoundDuration":393184,"Delta":146935369},{"NoteNumber":67,"Velocity":36,"Duration":363283,"SoundDuration":363283,"Delta":147328554},{"NoteNumber":79,"Velocity":58,"Duration":363283,"SoundDuration":363283,"Delta":147328554},{"NoteNumber":63,"Velocity":46,"Duration":363283,"SoundDuration":363283,"Delta":147328554},{"NoteNumber":65,"Velocity":29,"Duration":363283,"SoundDuration":363283,"Delta":147691838},{"NoteNumber":77,"Velocity":42,"Duration":363283,"SoundDuration":363283,"Delta":147691838},{"NoteNumber":62,"Velocity":44,"Duration":360256,"SoundDuration":360256,"Delta":147691838},{"NoteNumber":62,"Velocity":31,"Duration":371746,"SoundDuration":371746,"Delta":148055122},{"NoteNumber":74,"Velocity":44,"Duration":371746,"SoundDuration":371746,"Delta":148055122},{"NoteNumber":58,"Velocity":42,"Duration":368649,"SoundDuration":368649,"Delta":148055122},{"NoteNumber":70,"Velocity":39,"Duration":415109,"SoundDuration":415109,"Delta":148426869},{"NoteNumber":58,"Velocity":28,"Duration":415109,"SoundDuration":415109,"Delta":148426869},{"NoteNumber":53,"Velocity":36,"Duration":415109,"SoundDuration":415109,"Delta":148426869},{"NoteNumber":41,"Velocity":43,"Duration":2037660,"SoundDuration":2037660,"Delta":148634424},{"NoteNumber":65,"Velocity":38,"Duration":1830106,"SoundDuration":1830106,"Delta":148841979},{"NoteNumber":57,"Velocity":27,"Duration":1830106,"SoundDuration":1830106,"Delta":148841979},{"NoteNumber":60,"Velocity":27,"Duration":1830106,"SoundDuration":1830106,"Delta":148841979},{"NoteNumber":53,"Velocity":34,"Duration":1830106,"SoundDuration":1830106,"Delta":148841979},{"NoteNumber":51,"Velocity":28,"Duration":1830106,"SoundDuration":1830106,"Delta":148841979},{"NoteNumber":70,"Velocity":43,"Duration":373878,"SoundDuration":373878,"Delta":150672085},{"NoteNumber":58,"Velocity":30,"Duration":373878,"SoundDuration":373878,"Delta":150672085},{"NoteNumber":50,"Velocity":39,"Duration":373878,"SoundDuration":373878,"Delta":150672085},{"NoteNumber":60,"Velocity":30,"Duration":373878,"SoundDuration":373878,"Delta":151045963},{"NoteNumber":72,"Velocity":43,"Duration":373878,"SoundDuration":373878,"Delta":151045963},{"NoteNumber":53,"Velocity":39,"Duration":373878,"SoundDuration":373878,"Delta":151045963},{"NoteNumber":74,"Velocity":44,"Duration":361228,"SoundDuration":361228,"Delta":151419842},{"NoteNumber":62,"Velocity":31,"Duration":361228,"SoundDuration":361228,"Delta":151419842},{"NoteNumber":46,"Velocity":34,"Duration":1457846,"SoundDuration":1457846,"Delta":151419842},{"NoteNumber":58,"Velocity":41,"Duration":361228,"SoundDuration":361228,"Delta":151419842},{"NoteNumber":65,"Velocity":34,"Duration":370050,"SoundDuration":370050,"Delta":151781070},{"NoteNumber":77,"Velocity":51,"Duration":370050,"SoundDuration":370050,"Delta":151781070},{"NoteNumber":62,"Velocity":43,"Duration":370050,"SoundDuration":370050,"Delta":151781070},{"NoteNumber":79,"Velocity":57,"Duration":363283,"SoundDuration":363283,"Delta":152151120},{"NoteNumber":67,"Velocity":36,"Duration":363283,"SoundDuration":363283,"Delta":152151120},{"NoteNumber":63,"Velocity":46,"Duration":363283,"SoundDuration":363283,"Delta":152151120},{"NoteNumber":65,"Velocity":29,"Duration":363283,"SoundDuration":363283,"Delta":152514404},{"NoteNumber":77,"Velocity":42,"Duration":363283,"SoundDuration":363283,"Delta":152514404},{"NoteNumber":62,"Velocity":44,"Duration":360256,"SoundDuration":360256,"Delta":152514404},{"NoteNumber":74,"Velocity":44,"Duration":371746,"SoundDuration":371746,"Delta":152877688},{"NoteNumber":62,"Velocity":31,"Duration":371746,"SoundDuration":371746,"Delta":152877688},{"NoteNumber":58,"Velocity":42,"Duration":368649,"SoundDuration":368649,"Delta":152877688},{"NoteNumber":58,"Velocity":28,"Duration":415109,"SoundDuration":415109,"Delta":153249435},{"NoteNumber":70,"Velocity":39,"Duration":415109,"SoundDuration":415109,"Delta":153249435},{"NoteNumber":53,"Velocity":36,"Duration":415109,"SoundDuration":415109,"Delta":153249435},{"NoteNumber":41,"Velocity":43,"Duration":2051722,"SoundDuration":2051722,"Delta":153456990},{"NoteNumber":57,"Velocity":27,"Duration":1844167,"SoundDuration":1844167,"Delta":153664545},{"NoteNumber":65,"Velocity":38,"Duration":1844167,"SoundDuration":1844167,"Delta":153664545},{"NoteNumber":60,"Velocity":27,"Duration":1844167,"SoundDuration":1844167,"Delta":153664545},{"NoteNumber":53,"Velocity":34,"Duration":1844167,"SoundDuration":1844167,"Delta":153664545},{"NoteNumber":51,"Velocity":28,"Duration":1844167,"SoundDuration":1844167,"Delta":153664545},{"NoteNumber":70,"Velocity":43,"Duration":373878,"SoundDuration":373878,"Delta":155508713},{"NoteNumber":58,"Velocity":30,"Duration":373878,"SoundDuration":373878,"Delta":155508713},{"NoteNumber":50,"Velocity":39,"Duration":373878,"SoundDuration":373878,"Delta":155508713},{"NoteNumber":60,"Velocity":30,"Duration":373878,"SoundDuration":373878,"Delta":155882592},{"NoteNumber":72,"Velocity":43,"Duration":373878,"SoundDuration":373878,"Delta":155882592},{"NoteNumber":53,"Velocity":39,"Duration":373878,"SoundDuration":373878,"Delta":155882592},{"NoteNumber":74,"Velocity":44,"Duration":2020561,"SoundDuration":2020561,"Delta":156256470},{"NoteNumber":62,"Velocity":37,"Duration":361228,"SoundDuration":361228,"Delta":156256470},{"NoteNumber":58,"Velocity":41,"Duration":361228,"SoundDuration":361228,"Delta":156256470},{"NoteNumber":46,"Velocity":34,"Duration":1457390,"SoundDuration":1457390,"Delta":156256470},{"NoteNumber":65,"Velocity":44,"Duration":369594,"SoundDuration":369594,"Delta":156617698},{"NoteNumber":62,"Velocity":36,"Duration":369594,"SoundDuration":369594,"Delta":156617698},{"NoteNumber":67,"Velocity":51,"Duration":363283,"SoundDuration":363283,"Delta":156987293},{"NoteNumber":63,"Velocity":40,"Duration":363283,"SoundDuration":363283,"Delta":156987293},{"NoteNumber":65,"Velocity":43,"Duration":363283,"SoundDuration":363283,"Delta":157350577},{"NoteNumber":62,"Velocity":39,"Duration":360256,"SoundDuration":360256,"Delta":157350577},{"NoteNumber":62,"Velocity":46,"Duration":371746,"SoundDuration":371746,"Delta":157713861},{"NoteNumber":58,"Velocity":39,"Duration":368649,"SoundDuration":368649,"Delta":157713861},{"NoteNumber":58,"Velocity":40,"Duration":382848,"SoundDuration":382848,"Delta":158085608},{"NoteNumber":53,"Velocity":40,"Duration":382848,"SoundDuration":382848,"Delta":158085608},{"NoteNumber":70,"Velocity":53,"Duration":191424,"SoundDuration":191424,"Delta":158277032},{"NoteNumber":65,"Velocity":42,"Duration":361228,"SoundDuration":361228,"Delta":158468456},{"NoteNumber":77,"Velocity":58,"Duration":1253698,"SoundDuration":1253698,"Delta":158468456},{"NoteNumber":57,"Velocity":47,"Duration":361228,"SoundDuration":361228,"Delta":158468456},{"NoteNumber":48,"Velocity":39,"Duration":1435339,"SoundDuration":1435339,"Delta":158468456},{"NoteNumber":69,"Velocity":45,"Duration":347543,"SoundDuration":347543,"Delta":158829684},{"NoteNumber":60,"Velocity":34,"Duration":347543,"SoundDuration":347543,"Delta":158829684},{"NoteNumber":70,"Velocity":47,"Duration":363283,"SoundDuration":363283,"Delta":159177228},{"NoteNumber":62,"Velocity":40,"Duration":363283,"SoundDuration":363283,"Delta":159177228},{"NoteNumber":69,"Velocity":37,"Duration":363283,"SoundDuration":363283,"Delta":159540512},{"NoteNumber":60,"Velocity":33,"Duration":363283,"SoundDuration":363283,"Delta":159540512},{"NoteNumber":76,"Velocity":57,"Duration":181641,"SoundDuration":181641,"Delta":159722154},{"NoteNumber":74,"Velocity":62,"Duration":566653,"SoundDuration":566653,"Delta":159903796},{"NoteNumber":65,"Velocity":38,"Duration":371746,"SoundDuration":371746,"Delta":159903796},{"NoteNumber":57,"Velocity":37,"Duration":371746,"SoundDuration":371746,"Delta":159903796},{"NoteNumber":60,"Velocity":33,"Duration":389813,"SoundDuration":389813,"Delta":160275543},{"NoteNumber":53,"Velocity":31,"Duration":389813,"SoundDuration":389813,"Delta":160275543},{"NoteNumber":72,"Velocity":55,"Duration":194906,"SoundDuration":194906,"Delta":160470450},{"NoteNumber":36,"Velocity":32,"Duration":194906,"SoundDuration":194906,"Delta":160470450},{"NoteNumber":58,"Velocity":40,"Duration":361228,"SoundDuration":361228,"Delta":160665356},{"NoteNumber":72,"Velocity":59,"Duration":1094106,"SoundDuration":1094106,"Delta":160665356},{"NoteNumber":51,"Velocity":32,"Duration":361228,"SoundDuration":361228,"Delta":160665356},{"NoteNumber":60,"Velocity":37,"Duration":369594,"SoundDuration":369594,"Delta":161026584},{"NoteNumber":52,"Velocity":31,"Duration":369594,"SoundDuration":369594,"Delta":161026584},{"NoteNumber":69,"Velocity":39,"Duration":363283,"SoundDuration":363283,"Delta":161396179},{"NoteNumber":60,"Velocity":36,"Duration":363283,"SoundDuration":363283,"Delta":161396179},{"NoteNumber":67,"Velocity":29,"Duration":380565,"SoundDuration":380565,"Delta":161759463},{"NoteNumber":70,"Velocity":41,"Duration":380565,"SoundDuration":380565,"Delta":161759463},{"NoteNumber":58,"Velocity":33,"Duration":380565,"SoundDuration":380565,"Delta":161759463},{"NoteNumber":69,"Velocity":46,"Duration":403768,"SoundDuration":403768,"Delta":162140029},{"NoteNumber":64,"Velocity":31,"Duration":269179,"SoundDuration":269179,"Delta":162140029},{"NoteNumber":55,"Velocity":28,"Duration":269179,"SoundDuration":269179,"Delta":162140029},{"NoteNumber":60,"Velocity":28,"Duration":297721,"SoundDuration":297721,"Delta":162409208},{"NoteNumber":52,"Velocity":25,"Duration":297721,"SoundDuration":297721,"Delta":162409208},{"NoteNumber":67,"Velocity":41,"Duration":489396,"SoundDuration":489396,"Delta":162543797},{"NoteNumber":58,"Velocity":28,"Duration":326264,"SoundDuration":326264,"Delta":162706929},{"NoteNumber":49,"Velocity":25,"Duration":326264,"SoundDuration":326264,"Delta":162706929},{"NoteNumber":65,"Velocity":42,"Duration":2407093,"SoundDuration":2407093,"Delta":163033194},{"NoteNumber":56,"Velocity":29,"Duration":294036,"SoundDuration":294036,"Delta":163033194},{"NoteNumber":41,"Velocity":36,"Duration":2407093,"SoundDuration":2407093,"Delta":163033194},{"NoteNumber":47,"Velocity":25,"Duration":294036,"SoundDuration":294036,"Delta":163033194},{"NoteNumber":57,"Velocity":27,"Duration":294036,"SoundDuration":294036,"Delta":163309934},{"NoteNumber":48,"Velocity":22,"Duration":294036,"SoundDuration":294036,"Delta":163309934},{"NoteNumber":58,"Velocity":27,"Duration":276739,"SoundDuration":276739,"Delta":163586674},{"NoteNumber":50,"Velocity":22,"Duration":276739,"SoundDuration":276739,"Delta":163586674},{"NoteNumber":57,"Velocity":29,"Duration":1182654,"SoundDuration":1182654,"Delta":163863414},{"NoteNumber":48,"Velocity":27,"Duration":1182654,"SoundDuration":1182654,"Delta":163863414},{"NoteNumber":46,"Velocity":39,"Duration":367467,"SoundDuration":367467,"Delta":165440287},{"NoteNumber":48,"Velocity":44,"Duration":367467,"SoundDuration":367467,"Delta":165807754},{"NoteNumber":34,"Velocity":47,"Duration":91866,"SoundDuration":91866,"Delta":166083354},{"NoteNumber":56,"Velocity":49,"Duration":367466,"SoundDuration":367466,"Delta":166175221},{"NoteNumber":70,"Velocity":49,"Duration":2182636,"SoundDuration":2182636,"Delta":166175221},{"NoteNumber":50,"Velocity":52,"Duration":1443447,"SoundDuration":1443447,"Delta":166175221},{"NoteNumber":58,"Velocity":41,"Duration":353273,"SoundDuration":353273,"Delta":166542688},{"NoteNumber":67,"Velocity":45,"Duration":355240,"SoundDuration":355240,"Delta":166895961},{"NoteNumber":65,"Velocity":37,"Duration":367467,"SoundDuration":367467,"Delta":167251201},{"NoteNumber":60,"Velocity":43,"Duration":369594,"SoundDuration":369594,"Delta":167618668},{"NoteNumber":46,"Velocity":39,"Duration":246396,"SoundDuration":246396,"Delta":167618668},{"NoteNumber":48,"Velocity":44,"Duration":246396,"SoundDuration":246396,"Delta":167865064},{"NoteNumber":58,"Velocity":37,"Duration":369594,"SoundDuration":369594,"Delta":167988263},{"NoteNumber":50,"Velocity":48,"Duration":246396,"SoundDuration":246396,"Delta":168111461},{"NoteNumber":36,"Velocity":41,"Duration":92398,"SoundDuration":92398,"Delta":168265459},{"NoteNumber":56,"Velocity":49,"Duration":369594,"SoundDuration":369594,"Delta":168357857},{"NoteNumber":70,"Velocity":49,"Duration":2210627,"SoundDuration":2210627,"Delta":168357857},{"NoteNumber":51,"Velocity":54,"Duration":1457665,"SoundDuration":1457665,"Delta":168357857},{"NoteNumber":58,"Velocity":41,"Duration":359238,"SoundDuration":359238,"Delta":168727452},{"NoteNumber":65,"Velocity":49,"Duration":359238,"SoundDuration":359238,"Delta":169086690},{"NoteNumber":63,"Velocity":38,"Duration":369594,"SoundDuration":369594,"Delta":169445929},{"NoteNumber":60,"Velocity":46,"Duration":369594,"SoundDuration":369594,"Delta":169815523},{"NoteNumber":46,"Velocity":44,"Duration":184797,"SoundDuration":184797,"Delta":169815523},{"NoteNumber":48,"Velocity":47,"Duration":184797,"SoundDuration":184797,"Delta":170000320},{"NoteNumber":58,"Velocity":38,"Duration":383367,"SoundDuration":383367,"Delta":170185118},{"NoteNumber":50,"Velocity":50,"Duration":184797,"SoundDuration":184797,"Delta":170185118},{"NoteNumber":51,"Velocity":53,"Duration":198570,"SoundDuration":198570,"Delta":170369915},{"NoteNumber":37,"Velocity":44,"Duration":99285,"SoundDuration":99285,"Delta":170469200},{"NoteNumber":70,"Velocity":54,"Duration":730727,"SoundDuration":730727,"Delta":170568485},{"NoteNumber":56,"Velocity":54,"Duration":365363,"SoundDuration":365363,"Delta":170568485},{"NoteNumber":52,"Velocity":63,"Duration":730727,"SoundDuration":730727,"Delta":170568485},{"NoteNumber":64,"Velocity":47,"Duration":365363,"SoundDuration":365363,"Delta":170933849},{"NoteNumber":38,"Velocity":39,"Duration":91340,"SoundDuration":91340,"Delta":171207871},{"NoteNumber":56,"Velocity":57,"Duration":365363,"SoundDuration":365363,"Delta":171299212},{"NoteNumber":70,"Velocity":57,"Duration":730727,"SoundDuration":730727,"Delta":171299212},{"NoteNumber":53,"Velocity":56,"Duration":730727,"SoundDuration":730727,"Delta":171299212},{"NoteNumber":65,"Velocity":52,"Duration":365363,"SoundDuration":365363,"Delta":171664576},{"NoteNumber":56,"Velocity":59,"Duration":374636,"SoundDuration":374636,"Delta":172029939},{"NoteNumber":70,"Velocity":59,"Duration":2307806,"SoundDuration":2307806,"Delta":172029939},{"NoteNumber":46,"Velocity":58,"Duration":94621,"SoundDuration":94621,"Delta":172029939},{"NoteNumber":38,"Velocity":42,"Duration":742127,"SoundDuration":742127,"Delta":172029939},{"NoteNumber":48,"Velocity":47,"Duration":94224,"SoundDuration":94224,"Delta":172124561},{"NoteNumber":46,"Velocity":57,"Duration":93283,"SoundDuration":93283,"Delta":172218785},{"NoteNumber":48,"Velocity":51,"Duration":92506,"SoundDuration":92506,"Delta":172312069},{"NoteNumber":66,"Velocity":54,"Duration":367491,"SoundDuration":367491,"Delta":172404575},{"NoteNumber":46,"Velocity":52,"Duration":122016,"SoundDuration":122016,"Delta":172404575},{"NoteNumber":45,"Velocity":58,"Duration":121451,"SoundDuration":121451,"Delta":172526592},{"NoteNumber":46,"Velocity":51,"Duration":1689702,"SoundDuration":1689702,"Delta":172648043},{"NoteNumber":56,"Velocity":65,"Duration":415109,"SoundDuration":415109,"Delta":172772067},{"NoteNumber":39,"Velocity":55,"Duration":1565678,"SoundDuration":1565678,"Delta":172772067},{"NoteNumber":68,"Velocity":50,"Duration":376080,"SoundDuration":376080,"Delta":173187177},{"NoteNumber":55,"Velocity":54,"Duration":376080,"SoundDuration":376080,"Delta":173563258},{"NoteNumber":67,"Velocity":47,"Duration":398406,"SoundDuration":398406,"Delta":173939339},{"NoteNumber":63,"Velocity":38,"Duration":365363,"SoundDuration":365363,"Delta":174337745},{"NoteNumber":75,"Velocity":54,"Duration":365363,"SoundDuration":365363,"Delta":174337745},{"NoteNumber":55,"Velocity":50,"Duration":741444,"SoundDuration":741444,"Delta":174337745},{"NoteNumber":77,"Velocity":58,"Duration":376080,"SoundDuration":376080,"Delta":174703109},{"NoteNumber":65,"Velocity":41,"Duration":376080,"SoundDuration":376080,"Delta":174703109},{"NoteNumber":58,"Velocity":44,"Duration":376080,"SoundDuration":376080,"Delta":174703109},{"NoteNumber":79,"Velocity":64,"Duration":1483850,"SoundDuration":1483850,"Delta":175079190},{"NoteNumber":67,"Velocity":64,"Duration":369858,"SoundDuration":369858,"Delta":175079190},{"NoteNumber":63,"Velocity":50,"Duration":369858,"SoundDuration":369858,"Delta":175079190},{"NoteNumber":51,"Velocity":42,"Duration":1483850,"SoundDuration":1483850,"Delta":175079190},{"NoteNumber":75,"Velocity":45,"Duration":369594,"SoundDuration":369594,"Delta":175449049},{"NoteNumber":67,"Velocity":34,"Duration":369594,"SoundDuration":369594,"Delta":175449049},{"NoteNumber":77,"Velocity":48,"Duration":359238,"SoundDuration":359238,"Delta":175818643},{"NoteNumber":68,"Velocity":38,"Duration":359238,"SoundDuration":359238,"Delta":175818643},{"NoteNumber":75,"Velocity":45,"Duration":288868,"SoundDuration":288868,"Delta":176177882},{"NoteNumber":67,"Velocity":33,"Duration":385158,"SoundDuration":385158,"Delta":176177882},{"NoteNumber":72,"Velocity":52,"Duration":465884,"SoundDuration":465884,"Delta":176466751},{"NoteNumber":77,"Velocity":52,"Duration":369594,"SoundDuration":369594,"Delta":176563040},{"NoteNumber":55,"Velocity":35,"Duration":752442,"SoundDuration":752442,"Delta":176563040},{"NoteNumber":63,"Velocity":42,"Duration":369594,"SoundDuration":369594,"Delta":176563040},{"NoteNumber":75,"Velocity":45,"Duration":382848,"SoundDuration":382848,"Delta":176932635},{"NoteNumber":67,"Velocity":45,"Duration":382848,"SoundDuration":382848,"Delta":176932635},{"NoteNumber":60,"Velocity":39,"Duration":382848,"SoundDuration":382848,"Delta":176932635},{"NoteNumber":74,"Velocity":56,"Duration":1484893,"SoundDuration":1484893,"Delta":177315483},{"NoteNumber":62,"Velocity":56,"Duration":373878,"SoundDuration":373878,"Delta":177315483},{"NoteNumber":58,"Velocity":44,"Duration":373878,"SoundDuration":373878,"Delta":177315483},{"NoteNumber":43,"Velocity":37,"Duration":1484893,"SoundDuration":1484893,"Delta":177315483},{"NoteNumber":70,"Velocity":42,"Duration":367467,"SoundDuration":367467,"Delta":177689362},{"NoteNumber":62,"Velocity":34,"Duration":367467,"SoundDuration":367467,"Delta":177689362},{"NoteNumber":72,"Velocity":46,"Duration":367467,"SoundDuration":367467,"Delta":178056829},{"NoteNumber":63,"Velocity":37,"Duration":367467,"SoundDuration":367467,"Delta":178056829},{"NoteNumber":70,"Velocity":43,"Duration":282060,"SoundDuration":282060,"Delta":178424296},{"NoteNumber":62,"Velocity":32,"Duration":376080,"SoundDuration":376080,"Delta":178424296},{"NoteNumber":67,"Velocity":52,"Duration":463614,"SoundDuration":463614,"Delta":178706356},{"NoteNumber":70,"Velocity":52,"Duration":766735,"SoundDuration":766735,"Delta":178800377},{"NoteNumber":58,"Velocity":41,"Duration":369594,"SoundDuration":369594,"Delta":178800377},{"NoteNumber":55,"Velocity":41,"Duration":369594,"SoundDuration":369594,"Delta":178800377},{"NoteNumber":62,"Velocity":46,"Duration":397140,"SoundDuration":397140,"Delta":179169971},{"NoteNumber":55,"Velocity":36,"Duration":397140,"SoundDuration":397140,"Delta":179169971},{"NoteNumber":79,"Velocity":59,"Duration":1121911,"SoundDuration":1121911,"Delta":179567112},{"NoteNumber":67,"Velocity":50,"Duration":380565,"SoundDuration":380565,"Delta":179567112},{"NoteNumber":63,"Velocity":42,"Duration":380565,"SoundDuration":380565,"Delta":179567112},{"NoteNumber":48,"Velocity":35,"Duration":1504759,"SoundDuration":1504759,"Delta":179567112},{"NoteNumber":75,"Velocity":45,"Duration":373878,"SoundDuration":373878,"Delta":179947678},{"NoteNumber":67,"Velocity":34,"Duration":373878,"SoundDuration":373878,"Delta":179947678},{"NoteNumber":77,"Velocity":48,"Duration":367467,"SoundDuration":367467,"Delta":180321556},{"NoteNumber":68,"Velocity":36,"Duration":367467,"SoundDuration":367467,"Delta":180321556},{"NoteNumber":79,"Velocity":48,"Duration":382848,"SoundDuration":382848,"Delta":180689023},{"NoteNumber":75,"Velocity":43,"Duration":382848,"SoundDuration":382848,"Delta":180689023},{"NoteNumber":67,"Velocity":34,"Duration":382848,"SoundDuration":382848,"Delta":180689023},{"NoteNumber":77,"Velocity":54,"Duration":564326,"SoundDuration":564326,"Delta":181071872},{"NoteNumber":72,"Velocity":45,"Duration":371746,"SoundDuration":371746,"Delta":181071872},{"NoteNumber":55,"Velocity":40,"Duration":756905,"SoundDuration":756905,"Delta":181071872},{"NoteNumber":63,"Velocity":40,"Duration":371746,"SoundDuration":371746,"Delta":181071872},{"NoteNumber":67,"Velocity":48,"Duration":385158,"SoundDuration":385158,"Delta":181443619},{"NoteNumber":60,"Velocity":36,"Duration":385158,"SoundDuration":385158,"Delta":181443619},{"NoteNumber":75,"Velocity":52,"Duration":192579,"SoundDuration":192579,"Delta":181636198},{"NoteNumber":62,"Velocity":54,"Duration":376080,"SoundDuration":376080,"Delta":181828777},{"NoteNumber":74,"Velocity":54,"Duration":1497884,"SoundDuration":1497884,"Delta":181828777},{"NoteNumber":58,"Velocity":41,"Duration":376080,"SoundDuration":376080,"Delta":181828777},{"NoteNumber":43,"Velocity":41,"Duration":1497884,"SoundDuration":1497884,"Delta":181828777},{"NoteNumber":70,"Velocity":45,"Duration":371746,"SoundDuration":371746,"Delta":182204858},{"NoteNumber":62,"Velocity":34,"Duration":371746,"SoundDuration":371746,"Delta":182204858},{"NoteNumber":72,"Velocity":49,"Duration":371746,"SoundDuration":371746,"Delta":182576605},{"NoteNumber":63,"Velocity":41,"Duration":371746,"SoundDuration":371746,"Delta":182576605},{"NoteNumber":70,"Velocity":46,"Duration":378309,"SoundDuration":378309,"Delta":182948352},{"NoteNumber":62,"Velocity":37,"Duration":378309,"SoundDuration":378309,"Delta":182948352},{"NoteNumber":62,"Velocity":33,"Duration":385158,"SoundDuration":385158,"Delta":183326662},{"NoteNumber":67,"Velocity":47,"Duration":385158,"SoundDuration":385158,"Delta":183326662},{"NoteNumber":55,"Velocity":37,"Duration":770317,"SoundDuration":770317,"Delta":183326662},{"NoteNumber":58,"Velocity":44,"Duration":385158,"SoundDuration":385158,"Delta":183326662},{"NoteNumber":60,"Velocity":30,"Duration":385158,"SoundDuration":385158,"Delta":183711821},{"NoteNumber":69,"Velocity":42,"Duration":385158,"SoundDuration":385158,"Delta":183711821},{"NoteNumber":57,"Velocity":44,"Duration":385158,"SoundDuration":385158,"Delta":183711821},{"NoteNumber":58,"Velocity":31,"Duration":361446,"SoundDuration":361446,"Delta":184096979},{"NoteNumber":70,"Velocity":50,"Duration":361446,"SoundDuration":361446,"Delta":184096979},{"NoteNumber":48,"Velocity":29,"Duration":1461863,"SoundDuration":1461863,"Delta":184096979},{"NoteNumber":55,"Velocity":35,"Duration":361446,"SoundDuration":361446,"Delta":184096979},{"NoteNumber":69,"Velocity":34,"Duration":361228,"SoundDuration":361228,"Delta":184458425},{"NoteNumber":72,"Velocity":48,"Duration":361228,"SoundDuration":361228,"Delta":184458425},{"NoteNumber":53,"Velocity":36,"Duration":361228,"SoundDuration":361228,"Delta":184458425},{"NoteNumber":67,"Velocity":36,"Duration":369594,"SoundDuration":369594,"Delta":184819653},{"NoteNumber":74,"Velocity":51,"Duration":369594,"SoundDuration":369594,"Delta":184819653},{"NoteNumber":52,"Velocity":38,"Duration":369594,"SoundDuration":369594,"Delta":184819653},{"NoteNumber":76,"Velocity":53,"Duration":369594,"SoundDuration":369594,"Delta":185189248},{"NoteNumber":65,"Velocity":38,"Duration":369594,"SoundDuration":369594,"Delta":185189248},{"NoteNumber":50,"Velocity":41,"Duration":369594,"SoundDuration":369594,"Delta":185189248},{"NoteNumber":77,"Velocity":56,"Duration":376084,"SoundDuration":376084,"Delta":185558842},{"NoteNumber":64,"Velocity":39,"Duration":376084,"SoundDuration":376084,"Delta":185558842},{"NoteNumber":36,"Velocity":37,"Duration":2236447,"SoundDuration":2236447,"Delta":185558842},{"NoteNumber":48,"Velocity":44,"Duration":376084,"SoundDuration":376084,"Delta":185558842},{"NoteNumber":79,"Velocity":59,"Duration":381700,"SoundDuration":381700,"Delta":185934926},{"NoteNumber":74,"Velocity":42,"Duration":381700,"SoundDuration":381700,"Delta":185934926},{"NoteNumber":46,"Velocity":45,"Duration":381700,"SoundDuration":381700,"Delta":185934926},{"NoteNumber":81,"Velocity":60,"Duration":367467,"SoundDuration":367467,"Delta":186316627},{"NoteNumber":72,"Velocity":43,"Duration":367467,"SoundDuration":367467,"Delta":186316627},{"NoteNumber":45,"Velocity":47,"Duration":367467,"SoundDuration":367467,"Delta":186316627},{"NoteNumber":76,"Velocity":41,"Duration":365853,"SoundDuration":365853,"Delta":186684094},{"NoteNumber":79,"Velocity":58,"Duration":365853,"SoundDuration":365853,"Delta":186684094},{"NoteNumber":46,"Velocity":45,"Duration":365853,"SoundDuration":365853,"Delta":186684094},{"NoteNumber":69,"Velocity":39,"Duration":372670,"SoundDuration":372670,"Delta":187049948},{"NoteNumber":77,"Velocity":56,"Duration":372670,"SoundDuration":372670,"Delta":187049948},{"NoteNumber":48,"Velocity":42,"Duration":372670,"SoundDuration":372670,"Delta":187049948},{"NoteNumber":72,"Velocity":37,"Duration":372670,"SoundDuration":372670,"Delta":187422619},{"NoteNumber":76,"Velocity":54,"Duration":372670,"SoundDuration":372670,"Delta":187422619},{"NoteNumber":50,"Velocity":41,"Duration":372670,"SoundDuration":372670,"Delta":187422619},{"NoteNumber":74,"Velocity":51,"Duration":372670,"SoundDuration":372670,"Delta":187795290},{"NoteNumber":67,"Velocity":35,"Duration":372670,"SoundDuration":372670,"Delta":187795290},{"NoteNumber":36,"Velocity":32,"Duration":757829,"SoundDuration":757829,"Delta":187795290},{"NoteNumber":52,"Velocity":38,"Duration":372670,"SoundDuration":372670,"Delta":187795290},{"NoteNumber":72,"Velocity":49,"Duration":385158,"SoundDuration":385158,"Delta":188167961},{"NoteNumber":69,"Velocity":35,"Duration":385158,"SoundDuration":385158,"Delta":188167961},{"NoteNumber":53,"Velocity":37,"Duration":385158,"SoundDuration":385158,"Delta":188167961},{"NoteNumber":70,"Velocity":47,"Duration":376080,"SoundDuration":376080,"Delta":188553119},{"NoteNumber":64,"Velocity":33,"Duration":376080,"SoundDuration":376080,"Delta":188553119},{"NoteNumber":48,"Velocity":29,"Duration":1504323,"SoundDuration":1504323,"Delta":188553119},{"NoteNumber":55,"Velocity":35,"Duration":376080,"SoundDuration":376080,"Delta":188553119},{"NoteNumber":69,"Velocity":40,"Duration":376080,"SoundDuration":376080,"Delta":188929200},{"NoteNumber":65,"Velocity":28,"Duration":376080,"SoundDuration":376080,"Delta":188929200},{"NoteNumber":57,"Velocity":35,"Duration":376080,"SoundDuration":376080,"Delta":188929200},{"NoteNumber":61,"Velocity":33,"Duration":376080,"SoundDuration":376080,"Delta":189305281},{"NoteNumber":67,"Velocity":46,"Duration":376080,"SoundDuration":376080,"Delta":189305281},{"NoteNumber":58,"Velocity":36,"Duration":376080,"SoundDuration":376080,"Delta":189305281},{"NoteNumber":62,"Velocity":28,"Duration":376080,"SoundDuration":376080,"Delta":189681362},{"NoteNumber":65,"Velocity":40,"Duration":376080,"SoundDuration":376080,"Delta":189681362},{"NoteNumber":59,"Velocity":33,"Duration":376080,"SoundDuration":376080,"Delta":189681362},{"NoteNumber":69,"Velocity":45,"Duration":382848,"SoundDuration":382848,"Delta":190057443},{"NoteNumber":63,"Velocity":32,"Duration":382848,"SoundDuration":382848,"Delta":190057443},{"NoteNumber":60,"Velocity":39,"Duration":382848,"SoundDuration":382848,"Delta":190057443},{"NoteNumber":48,"Velocity":33,"Duration":2813600,"SoundDuration":2813600,"Delta":190057443},{"NoteNumber":67,"Velocity":40,"Duration":382848,"SoundDuration":382848,"Delta":190440292},{"NoteNumber":64,"Velocity":28,"Duration":382848,"SoundDuration":382848,"Delta":190440292},{"NoteNumber":58,"Velocity":34,"Duration":382848,"SoundDuration":382848,"Delta":190440292},{"NoteNumber":60,"Velocity":31,"Duration":407055,"SoundDuration":407055,"Delta":190823140},{"NoteNumber":65,"Velocity":43,"Duration":407055,"SoundDuration":407055,"Delta":190823140},{"NoteNumber":57,"Velocity":35,"Duration":407055,"SoundDuration":407055,"Delta":190823140},{"NoteNumber":63,"Velocity":23,"Duration":446428,"SoundDuration":446428,"Delta":191230196},{"NoteNumber":66,"Velocity":34,"Duration":446428,"SoundDuration":446428,"Delta":191230196},{"NoteNumber":56,"Velocity":28,"Duration":446428,"SoundDuration":446428,"Delta":191230196},{"NoteNumber":67,"Velocity":33,"Duration":249169,"SoundDuration":249169,"Delta":191676624},{"NoteNumber":60,"Velocity":23,"Duration":249169,"SoundDuration":249169,"Delta":191676624},{"NoteNumber":55,"Velocity":28,"Duration":249169,"SoundDuration":249169,"Delta":191676624},{"NoteNumber":63,"Velocity":19,"Duration":249169,"SoundDuration":249169,"Delta":191925794},{"NoteNumber":68,"Velocity":28,"Duration":249169,"SoundDuration":249169,"Delta":191925794},{"NoteNumber":54,"Velocity":25,"Duration":249169,"SoundDuration":249169,"Delta":191925794},{"NoteNumber":62,"Velocity":23,"Duration":264550,"SoundDuration":264550,"Delta":192174963},{"NoteNumber":69,"Velocity":33,"Duration":264550,"SoundDuration":264550,"Delta":192174963},{"NoteNumber":53,"Velocity":28,"Duration":264550,"SoundDuration":264550,"Delta":192174963},{"NoteNumber":60,"Velocity":19,"Duration":323647,"SoundDuration":323647,"Delta":192439513},{"NoteNumber":65,"Velocity":28,"Duration":323647,"SoundDuration":323647,"Delta":192439513},{"NoteNumber":51,"Velocity":24,"Duration":323647,"SoundDuration":323647,"Delta":192439513},{"NoteNumber":58,"Velocity":27,"Duration":373878,"SoundDuration":373878,"Delta":192871044},{"NoteNumber":70,"Velocity":38,"Duration":373878,"SoundDuration":373878,"Delta":192871044},{"NoteNumber":50,"Velocity":35,"Duration":747757,"SoundDuration":747757,"Delta":192871044},{"NoteNumber":72,"Velocity":38,"Duration":373878,"SoundDuration":373878,"Delta":193244922},{"NoteNumber":60,"Velocity":27,"Duration":373878,"SoundDuration":373878,"Delta":193244922},{"NoteNumber":53,"Velocity":35,"Duration":373878,"SoundDuration":373878,"Delta":193244922},{"NoteNumber":62,"Velocity":28,"Duration":361228,"SoundDuration":361228,"Delta":193618801},{"NoteNumber":74,"Velocity":39,"Duration":361228,"SoundDuration":361228,"Delta":193618801},{"NoteNumber":58,"Velocity":36,"Duration":361228,"SoundDuration":361228,"Delta":193618801},{"NoteNumber":46,"Velocity":30,"Duration":1457846,"SoundDuration":1457846,"Delta":193618801},{"NoteNumber":77,"Velocity":48,"Duration":370050,"SoundDuration":370050,"Delta":193980029},{"NoteNumber":65,"Velocity":30,"Duration":370050,"SoundDuration":370050,"Delta":193980029},{"NoteNumber":62,"Velocity":38,"Duration":370050,"SoundDuration":370050,"Delta":193980029},{"NoteNumber":79,"Velocity":54,"Duration":363283,"SoundDuration":363283,"Delta":194350079},{"NoteNumber":67,"Velocity":32,"Duration":363283,"SoundDuration":363283,"Delta":194350079},{"NoteNumber":63,"Velocity":41,"Duration":363283,"SoundDuration":363283,"Delta":194350079},{"NoteNumber":77,"Velocity":37,"Duration":363283,"SoundDuration":363283,"Delta":194713363},{"NoteNumber":65,"Velocity":26,"Duration":363283,"SoundDuration":363283,"Delta":194713363},{"NoteNumber":62,"Velocity":39,"Duration":360256,"SoundDuration":360256,"Delta":194713363},{"NoteNumber":62,"Velocity":28,"Duration":371746,"SoundDuration":371746,"Delta":195076647},{"NoteNumber":74,"Velocity":39,"Duration":371746,"SoundDuration":371746,"Delta":195076647},{"NoteNumber":58,"Velocity":37,"Duration":368649,"SoundDuration":368649,"Delta":195076647},{"NoteNumber":70,"Velocity":35,"Duration":415109,"SoundDuration":415109,"Delta":195448394},{"NoteNumber":58,"Velocity":24,"Duration":415109,"SoundDuration":415109,"Delta":195448394},{"NoteNumber":53,"Velocity":32,"Duration":415109,"SoundDuration":415109,"Delta":195448394},{"NoteNumber":41,"Velocity":38,"Duration":2291972,"SoundDuration":2291972,"Delta":195655949},{"NoteNumber":57,"Velocity":23,"Duration":2084417,"SoundDuration":2084417,"Delta":195863504},{"NoteNumber":60,"Velocity":23,"Duration":2084417,"SoundDuration":2084417,"Delta":195863504},{"NoteNumber":65,"Velocity":34,"Duration":2084417,"SoundDuration":2084417,"Delta":195863504},{"NoteNumber":51,"Velocity":25,"Duration":2084417,"SoundDuration":2084417,"Delta":195863504},{"NoteNumber":53,"Velocity":30,"Duration":2084417,"SoundDuration":2084417,"Delta":195863504},{"NoteNumber":58,"Velocity":30,"Duration":373878,"SoundDuration":373878,"Delta":197947922},{"NoteNumber":70,"Velocity":43,"Duration":373878,"SoundDuration":373878,"Delta":197947922},{"NoteNumber":50,"Velocity":39,"Duration":373878,"SoundDuration":373878,"Delta":197947922},{"NoteNumber":60,"Velocity":30,"Duration":373878,"SoundDuration":373878,"Delta":198321801},{"NoteNumber":72,"Velocity":43,"Duration":373878,"SoundDuration":373878,"Delta":198321801},{"NoteNumber":53,"Velocity":39,"Duration":373878,"SoundDuration":373878,"Delta":198321801},{"NoteNumber":74,"Velocity":44,"Duration":361228,"SoundDuration":361228,"Delta":198695679},{"NoteNumber":62,"Velocity":31,"Duration":361228,"SoundDuration":361228,"Delta":198695679},{"NoteNumber":58,"Velocity":41,"Duration":361228,"SoundDuration":361228,"Delta":198695679},{"NoteNumber":46,"Velocity":74,"Duration":1455578,"SoundDuration":1455578,"Delta":198695679},{"NoteNumber":65,"Velocity":34,"Duration":367782,"SoundDuration":367782,"Delta":199056907},{"NoteNumber":77,"Velocity":54,"Duration":367782,"SoundDuration":367782,"Delta":199056907},{"NoteNumber":62,"Velocity":43,"Duration":367782,"SoundDuration":367782,"Delta":199056907},{"NoteNumber":67,"Velocity":36,"Duration":363283,"SoundDuration":363283,"Delta":199424690},{"NoteNumber":79,"Velocity":57,"Duration":363283,"SoundDuration":363283,"Delta":199424690},{"NoteNumber":63,"Velocity":46,"Duration":363283,"SoundDuration":363283,"Delta":199424690},{"NoteNumber":77,"Velocity":42,"Duration":363283,"SoundDuration":363283,"Delta":199787974},{"NoteNumber":65,"Velocity":29,"Duration":363283,"SoundDuration":363283,"Delta":199787974},{"NoteNumber":62,"Velocity":44,"Duration":360256,"SoundDuration":360256,"Delta":199787974},{"NoteNumber":74,"Velocity":44,"Duration":371746,"SoundDuration":371746,"Delta":200151258},{"NoteNumber":62,"Velocity":31,"Duration":371746,"SoundDuration":371746,"Delta":200151258},{"NoteNumber":46,"Velocity":70,"Duration":371746,"SoundDuration":371746,"Delta":200151258},{"NoteNumber":58,"Velocity":42,"Duration":368649,"SoundDuration":368649,"Delta":200151258},{"NoteNumber":58,"Velocity":28,"Duration":402091,"SoundDuration":402091,"Delta":200523005},{"NoteNumber":70,"Velocity":39,"Duration":402091,"SoundDuration":402091,"Delta":200523005},{"NoteNumber":50,"Velocity":66,"Duration":402091,"SoundDuration":402091,"Delta":200523005},{"NoteNumber":53,"Velocity":36,"Duration":402091,"SoundDuration":402091,"Delta":200523005},{"NoteNumber":41,"Velocity":43,"Duration":572792,"SoundDuration":572792,"Delta":200724050},{"NoteNumber":60,"Velocity":27,"Duration":1486987,"SoundDuration":1486987,"Delta":200925096},{"NoteNumber":57,"Velocity":27,"Duration":1486987,"SoundDuration":1486987,"Delta":200925096},{"NoteNumber":65,"Velocity":50,"Duration":1486987,"SoundDuration":1486987,"Delta":200925096},{"NoteNumber":53,"Velocity":45,"Duration":1486987,"SoundDuration":1486987,"Delta":200925096},{"NoteNumber":51,"Velocity":28,"Duration":1486987,"SoundDuration":1486987,"Delta":200925096},{"NoteNumber":43,"Velocity":53,"Duration":371746,"SoundDuration":371746,"Delta":201296843},{"NoteNumber":46,"Velocity":59,"Duration":371746,"SoundDuration":371746,"Delta":201668590},{"NoteNumber":45,"Velocity":54,"Duration":371746,"SoundDuration":371746,"Delta":202040337},{"NoteNumber":70,"Velocity":47,"Duration":373878,"SoundDuration":373878,"Delta":202412084},{"NoteNumber":58,"Velocity":33,"Duration":373878,"SoundDuration":373878,"Delta":202412084},{"NoteNumber":44,"Velocity":31,"Duration":373878,"SoundDuration":373878,"Delta":202412084},{"NoteNumber":50,"Velocity":44,"Duration":373878,"SoundDuration":373878,"Delta":202412084},{"NoteNumber":72,"Velocity":49,"Duration":373878,"SoundDuration":373878,"Delta":202785962},{"NoteNumber":60,"Velocity":34,"Duration":373878,"SoundDuration":373878,"Delta":202785962},{"NoteNumber":51,"Velocity":47,"Duration":373878,"SoundDuration":373878,"Delta":202785962},{"NoteNumber":43,"Velocity":33,"Duration":373878,"SoundDuration":373878,"Delta":202785962},{"NoteNumber":74,"Velocity":51,"Duration":361228,"SoundDuration":361228,"Delta":203159841},{"NoteNumber":62,"Velocity":36,"Duration":361228,"SoundDuration":361228,"Delta":203159841},{"NoteNumber":41,"Velocity":34,"Duration":638423,"SoundDuration":638423,"Delta":203159841},{"NoteNumber":53,"Velocity":48,"Duration":361228,"SoundDuration":361228,"Delta":203159841},{"NoteNumber":63,"Velocity":37,"Duration":369594,"SoundDuration":369594,"Delta":203521069},{"NoteNumber":75,"Velocity":53,"Duration":369594,"SoundDuration":369594,"Delta":203521069},{"NoteNumber":55,"Velocity":51,"Duration":369594,"SoundDuration":369594,"Delta":203521069},{"NoteNumber":39,"Velocity":45,"Duration":728145,"SoundDuration":728145,"Delta":203798265},{"NoteNumber":77,"Velocity":57,"Duration":363283,"SoundDuration":363283,"Delta":203890663},{"NoteNumber":65,"Velocity":40,"Duration":363283,"SoundDuration":363283,"Delta":203890663},{"NoteNumber":56,"Velocity":54,"Duration":363283,"SoundDuration":363283,"Delta":203890663},{"NoteNumber":78,"Velocity":62,"Duration":363283,"SoundDuration":363283,"Delta":204253947},{"NoteNumber":66,"Velocity":42,"Duration":363283,"SoundDuration":363283,"Delta":204253947},{"NoteNumber":58,"Velocity":55,"Duration":363283,"SoundDuration":363283,"Delta":204253947},{"NoteNumber":38,"Velocity":44,"Duration":825851,"SoundDuration":825851,"Delta":204526410},{"NoteNumber":79,"Velocity":68,"Duration":371746,"SoundDuration":371746,"Delta":204617231},{"NoteNumber":67,"Velocity":47,"Duration":371746,"SoundDuration":371746,"Delta":204617231},{"NoteNumber":59,"Velocity":57,"Duration":371746,"SoundDuration":371746,"Delta":204617231},{"NoteNumber":77,"Velocity":57,"Duration":363283,"SoundDuration":363283,"Delta":204988978},{"NoteNumber":65,"Velocity":40,"Duration":363283,"SoundDuration":363283,"Delta":204988978},{"NoteNumber":55,"Velocity":58,"Duration":363283,"SoundDuration":363283,"Delta":204988978},{"NoteNumber":64,"Velocity":39,"Duration":367467,"SoundDuration":367467,"Delta":205352262},{"NoteNumber":76,"Velocity":55,"Duration":367467,"SoundDuration":367467,"Delta":205352262},{"NoteNumber":36,"Velocity":39,"Duration":367467,"SoundDuration":367467,"Delta":205352262},{"NoteNumber":60,"Velocity":55,"Duration":367467,"SoundDuration":367467,"Delta":205352262},{"NoteNumber":74,"Velocity":53,"Duration":373878,"SoundDuration":373878,"Delta":205719729},{"NoteNumber":62,"Velocity":37,"Duration":373878,"SoundDuration":373878,"Delta":205719729},{"NoteNumber":55,"Velocity":54,"Duration":373878,"SoundDuration":373878,"Delta":205719729},{"NoteNumber":43,"Velocity":38,"Duration":373878,"SoundDuration":373878,"Delta":205719729},{"NoteNumber":60,"Velocity":34,"Duration":368098,"SoundDuration":368098,"Delta":206093608},{"NoteNumber":72,"Velocity":50,"Duration":368098,"SoundDuration":368098,"Delta":206093608},{"NoteNumber":52,"Velocity":52,"Duration":368098,"SoundDuration":368098,"Delta":206093608},{"NoteNumber":48,"Velocity":36,"Duration":368098,"SoundDuration":368098,"Delta":206093608},{"NoteNumber":74,"Velocity":47,"Duration":368098,"SoundDuration":368098,"Delta":206461706},{"NoteNumber":62,"Velocity":33,"Duration":368098,"SoundDuration":368098,"Delta":206461706},{"NoteNumber":53,"Velocity":50,"Duration":368098,"SoundDuration":368098,"Delta":206461706},{"NoteNumber":47,"Velocity":35,"Duration":368098,"SoundDuration":368098,"Delta":206461706},{"NoteNumber":72,"Velocity":45,"Duration":376080,"SoundDuration":376080,"Delta":206829804},{"NoteNumber":60,"Velocity":32,"Duration":376080,"SoundDuration":376080,"Delta":206829804},{"NoteNumber":46,"Velocity":34,"Duration":376080,"SoundDuration":376080,"Delta":206829804},{"NoteNumber":52,"Velocity":49,"Duration":376080,"SoundDuration":376080,"Delta":206829804},{"NoteNumber":62,"Velocity":29,"Duration":376080,"SoundDuration":376080,"Delta":207205885},{"NoteNumber":74,"Velocity":42,"Duration":376080,"SoundDuration":376080,"Delta":207205885},{"NoteNumber":53,"Velocity":47,"Duration":376080,"SoundDuration":376080,"Delta":207205885},{"NoteNumber":45,"Velocity":33,"Duration":376080,"SoundDuration":376080,"Delta":207205885},{"NoteNumber":76,"Velocity":51,"Duration":361228,"SoundDuration":361228,"Delta":207581966},{"NoteNumber":64,"Velocity":36,"Duration":361228,"SoundDuration":361228,"Delta":207581966},{"NoteNumber":43,"Velocity":34,"Duration":638423,"SoundDuration":638423,"Delta":207581966},{"NoteNumber":55,"Velocity":48,"Duration":361228,"SoundDuration":361228,"Delta":207581966},{"NoteNumber":65,"Velocity":37,"Duration":369594,"SoundDuration":369594,"Delta":207943194},{"NoteNumber":77,"Velocity":52,"Duration":369594,"SoundDuration":369594,"Delta":207943194},{"NoteNumber":57,"Velocity":50,"Duration":369594,"SoundDuration":369594,"Delta":207943194},{"NoteNumber":41,"Velocity":44,"Duration":728145,"SoundDuration":728145,"Delta":208220390},{"NoteNumber":66,"Velocity":39,"Duration":363283,"SoundDuration":363283,"Delta":208312788},{"NoteNumber":78,"Velocity":58,"Duration":363283,"SoundDuration":363283,"Delta":208312788},{"NoteNumber":58,"Velocity":53,"Duration":363283,"SoundDuration":363283,"Delta":208312788},{"NoteNumber":67,"Velocity":40,"Duration":363283,"SoundDuration":363283,"Delta":208676072},{"NoteNumber":79,"Velocity":60,"Duration":363283,"SoundDuration":363283,"Delta":208676072},{"NoteNumber":59,"Velocity":52,"Duration":363283,"SoundDuration":363283,"Delta":208676072},{"NoteNumber":40,"Velocity":45,"Duration":825851,"SoundDuration":825851,"Delta":208948535},{"NoteNumber":81,"Velocity":64,"Duration":371746,"SoundDuration":371746,"Delta":209039356},{"NoteNumber":69,"Velocity":43,"Duration":371746,"SoundDuration":371746,"Delta":209039356},{"NoteNumber":60,"Velocity":52,"Duration":371746,"SoundDuration":371746,"Delta":209039356},{"NoteNumber":79,"Velocity":55,"Duration":363283,"SoundDuration":363283,"Delta":209411103},{"NoteNumber":67,"Velocity":39,"Duration":363283,"SoundDuration":363283,"Delta":209411103},{"NoteNumber":58,"Velocity":56,"Duration":363283,"SoundDuration":363283,"Delta":209411103},{"NoteNumber":77,"Velocity":55,"Duration":374065,"SoundDuration":374065,"Delta":209774387},{"NoteNumber":65,"Velocity":39,"Duration":374065,"SoundDuration":374065,"Delta":209774387},{"NoteNumber":41,"Velocity":39,"Duration":374065,"SoundDuration":374065,"Delta":209774387},{"NoteNumber":57,"Velocity":55,"Duration":374065,"SoundDuration":374065,"Delta":209774387},{"NoteNumber":63,"Velocity":37,"Duration":391134,"SoundDuration":391134,"Delta":210148452},{"NoteNumber":75,"Velocity":53,"Duration":391134,"SoundDuration":391134,"Delta":210148452},{"NoteNumber":43,"Velocity":38,"Duration":391134,"SoundDuration":391134,"Delta":210148452},{"NoteNumber":55,"Velocity":54,"Duration":391134,"SoundDuration":391134,"Delta":210148452},{"NoteNumber":62,"Velocity":34,"Duration":424328,"SoundDuration":424328,"Delta":210539587},{"NoteNumber":74,"Velocity":50,"Duration":424328,"SoundDuration":424328,"Delta":210539587},{"NoteNumber":44,"Velocity":36,"Duration":424328,"SoundDuration":424328,"Delta":210539587},{"NoteNumber":53,"Velocity":52,"Duration":424328,"SoundDuration":424328,"Delta":210539587},{"NoteNumber":60,"Velocity":33,"Duration":490195,"SoundDuration":490195,"Delta":210963915},{"NoteNumber":72,"Velocity":47,"Duration":490195,"SoundDuration":490195,"Delta":210963915},{"NoteNumber":51,"Velocity":50,"Duration":490195,"SoundDuration":490195,"Delta":210963915},{"NoteNumber":45,"Velocity":35,"Duration":490195,"SoundDuration":490195,"Delta":210963915},{"NoteNumber":70,"Velocity":47,"Duration":404640,"SoundDuration":404640,"Delta":211454111},{"NoteNumber":58,"Velocity":33,"Duration":404640,"SoundDuration":404640,"Delta":211454111},{"NoteNumber":50,"Velocity":37,"Duration":404640,"SoundDuration":404640,"Delta":211454111},{"NoteNumber":46,"Velocity":34,"Duration":809280,"SoundDuration":809280,"Delta":211454111},{"NoteNumber":60,"Velocity":29,"Duration":404640,"SoundDuration":404640,"Delta":211858751},{"NoteNumber":72,"Velocity":42,"Duration":404640,"SoundDuration":404640,"Delta":211858751},{"NoteNumber":53,"Velocity":40,"Duration":404640,"SoundDuration":404640,"Delta":211858751},{"NoteNumber":62,"Velocity":39,"Duration":369594,"SoundDuration":369594,"Delta":212263391},{"NoteNumber":74,"Velocity":47,"Duration":1507189,"SoundDuration":1507189,"Delta":212263391},{"NoteNumber":34,"Velocity":46,"Duration":739189,"SoundDuration":739189,"Delta":212263391},{"NoteNumber":58,"Velocity":43,"Duration":369594,"SoundDuration":369594,"Delta":212263391},{"NoteNumber":72,"Velocity":52,"Duration":369594,"SoundDuration":369594,"Delta":212632985},{"NoteNumber":57,"Velocity":39,"Duration":369594,"SoundDuration":369594,"Delta":212632985},{"NoteNumber":70,"Velocity":49,"Duration":369594,"SoundDuration":369594,"Delta":213002580},{"NoteNumber":55,"Velocity":39,"Duration":369594,"SoundDuration":369594,"Delta":213002580},{"NoteNumber":69,"Velocity":44,"Duration":398406,"SoundDuration":398406,"Delta":213372174},{"NoteNumber":53,"Velocity":39,"Duration":398406,"SoundDuration":398406,"Delta":213372174},{"NoteNumber":75,"Velocity":49,"Duration":369594,"SoundDuration":369594,"Delta":213770581},{"NoteNumber":67,"Velocity":34,"Duration":369594,"SoundDuration":369594,"Delta":213770581},{"NoteNumber":51,"Velocity":39,"Duration":369594,"SoundDuration":369594,"Delta":213770581},{"NoteNumber":46,"Velocity":42,"Duration":747904,"SoundDuration":747904,"Delta":213770581},{"NoteNumber":77,"Velocity":52,"Duration":378309,"SoundDuration":378309,"Delta":214140175},{"NoteNumber":65,"Velocity":37,"Duration":378309,"SoundDuration":378309,"Delta":214140175},{"NoteNumber":50,"Velocity":44,"Duration":378309,"SoundDuration":378309,"Delta":214140175},{"NoteNumber":63,"Velocity":47,"Duration":369594,"SoundDuration":369594,"Delta":214518485},{"NoteNumber":79,"Velocity":56,"Duration":1108783,"SoundDuration":1108783,"Delta":214518485},{"NoteNumber":34,"Velocity":52,"Duration":739189,"SoundDuration":739189,"Delta":214518485},{"NoteNumber":48,"Velocity":48,"Duration":369594,"SoundDuration":369594,"Delta":214518485},{"NoteNumber":65,"Velocity":43,"Duration":369594,"SoundDuration":369594,"Delta":214888080},{"NoteNumber":50,"Velocity":39,"Duration":369594,"SoundDuration":369594,"Delta":214888080},{"NoteNumber":67,"Velocity":47,"Duration":369594,"SoundDuration":369594,"Delta":215257674},{"NoteNumber":51,"Velocity":39,"Duration":369594,"SoundDuration":369594,"Delta":215257674},{"NoteNumber":77,"Velocity":53,"Duration":378309,"SoundDuration":378309,"Delta":215627269},{"NoteNumber":69,"Velocity":38,"Duration":378309,"SoundDuration":378309,"Delta":215627269},{"NoteNumber":53,"Velocity":36,"Duration":378309,"SoundDuration":378309,"Delta":215627269},{"NoteNumber":70,"Velocity":36,"Duration":370370,"SoundDuration":370370,"Delta":216005579},{"NoteNumber":75,"Velocity":51,"Duration":370370,"SoundDuration":370370,"Delta":216005579},{"NoteNumber":46,"Velocity":42,"Duration":743041,"SoundDuration":743041,"Delta":216005579},{"NoteNumber":55,"Velocity":39,"Duration":370370,"SoundDuration":370370,"Delta":216005579},{"NoteNumber":74,"Velocity":50,"Duration":372670,"SoundDuration":372670,"Delta":216375949},{"NoteNumber":71,"Velocity":35,"Duration":372670,"SoundDuration":372670,"Delta":216375949},{"NoteNumber":56,"Velocity":44,"Duration":372670,"SoundDuration":372670,"Delta":216375949},{"NoteNumber":72,"Velocity":52,"Duration":734934,"SoundDuration":734934,"Delta":216748620},{"NoteNumber":57,"Velocity":39,"Duration":367467,"SoundDuration":367467,"Delta":216748620},{"NoteNumber":34,"Velocity":42,"Duration":734934,"SoundDuration":734934,"Delta":216748620},{"NoteNumber":70,"Velocity":49,"Duration":367467,"SoundDuration":367467,"Delta":217116087},{"NoteNumber":55,"Velocity":39,"Duration":367467,"SoundDuration":367467,"Delta":217116087},{"NoteNumber":72,"Velocity":49,"Duration":385158,"SoundDuration":385158,"Delta":217483554},{"NoteNumber":69,"Velocity":33,"Duration":385158,"SoundDuration":385158,"Delta":217483554},{"NoteNumber":53,"Velocity":41,"Duration":385158,"SoundDuration":385158,"Delta":217483554},{"NoteNumber":74,"Velocity":48,"Duration":367467,"SoundDuration":367467,"Delta":217868713},{"NoteNumber":67,"Velocity":31,"Duration":367467,"SoundDuration":367467,"Delta":217868713},{"NoteNumber":51,"Velocity":39,"Duration":367467,"SoundDuration":367467,"Delta":217868713},{"NoteNumber":75,"Velocity":50,"Duration":739189,"SoundDuration":739189,"Delta":218236180},{"NoteNumber":65,"Velocity":42,"Duration":369594,"SoundDuration":369594,"Delta":218236180},{"NoteNumber":46,"Velocity":48,"Duration":739189,"SoundDuration":739189,"Delta":218236180},{"NoteNumber":50,"Velocity":44,"Duration":369594,"SoundDuration":369594,"Delta":218236180},{"NoteNumber":63,"Velocity":47,"Duration":369594,"SoundDuration":369594,"Delta":218605774},{"NoteNumber":48,"Velocity":38,"Duration":369594,"SoundDuration":369594,"Delta":218605774},{"NoteNumber":77,"Velocity":54,"Duration":1108783,"SoundDuration":1108783,"Delta":218975369},{"NoteNumber":62,"Velocity":45,"Duration":369594,"SoundDuration":369594,"Delta":218975369},{"NoteNumber":46,"Velocity":46,"Duration":369594,"SoundDuration":369594,"Delta":218975369},{"NoteNumber":34,"Velocity":50,"Duration":739189,"SoundDuration":739189,"Delta":218975369},{"NoteNumber":63,"Velocity":47,"Duration":369594,"SoundDuration":369594,"Delta":219344963},{"NoteNumber":48,"Velocity":35,"Duration":369594,"SoundDuration":369594,"Delta":219344963},{"NoteNumber":65,"Velocity":47,"Duration":369594,"SoundDuration":369594,"Delta":219714558},{"NoteNumber":50,"Velocity":39,"Duration":369594,"SoundDuration":369594,"Delta":219714558},{"NoteNumber":67,"Velocity":33,"Duration":380565,"SoundDuration":380565,"Delta":220084152},{"NoteNumber":75,"Velocity":46,"Duration":380565,"SoundDuration":380565,"Delta":220084152},{"NoteNumber":51,"Velocity":35,"Duration":380565,"SoundDuration":380565,"Delta":220084152},{"NoteNumber":68,"Velocity":33,"Duration":380566,"SoundDuration":380566,"Delta":220464718},{"NoteNumber":74,"Velocity":47,"Duration":380566,"SoundDuration":380566,"Delta":220464718},{"NoteNumber":46,"Velocity":42,"Duration":761132,"SoundDuration":761132,"Delta":220464718},{"NoteNumber":52,"Velocity":39,"Duration":380566,"SoundDuration":380566,"Delta":220464718},{"NoteNumber":69,"Velocity":31,"Duration":380565,"SoundDuration":380565,"Delta":220845284},{"NoteNumber":72,"Velocity":44,"Duration":380565,"SoundDuration":380565,"Delta":220845284},{"NoteNumber":53,"Velocity":35,"Duration":380565,"SoundDuration":380565,"Delta":220845284},{"NoteNumber":70,"Velocity":47,"Duration":658141,"SoundDuration":658141,"Delta":221225850},{"NoteNumber":55,"Velocity":39,"Duration":376080,"SoundDuration":376080,"Delta":221225850},{"NoteNumber":34,"Velocity":42,"Duration":752161,"SoundDuration":752161,"Delta":221225850},{"NoteNumber":69,"Velocity":39,"Duration":188040,"SoundDuration":188040,"Delta":221601931},{"NoteNumber":53,"Velocity":34,"Duration":376080,"SoundDuration":376080,"Delta":221601931},{"NoteNumber":70,"Velocity":38,"Duration":188040,"SoundDuration":188040,"Delta":221789972},{"NoteNumber":72,"Velocity":37,"Duration":94020,"SoundDuration":94020,"Delta":221883992},{"NoteNumber":67,"Velocity":27,"Duration":385158,"SoundDuration":385158,"Delta":221978012},{"NoteNumber":70,"Velocity":48,"Duration":385158,"SoundDuration":385158,"Delta":221978012},{"NoteNumber":51,"Velocity":39,"Duration":385158,"SoundDuration":385158,"Delta":221978012},{"NoteNumber":65,"Velocity":28,"Duration":367467,"SoundDuration":367467,"Delta":222363171},{"NoteNumber":72,"Velocity":49,"Duration":367467,"SoundDuration":367467,"Delta":222363171},{"NoteNumber":50,"Velocity":34,"Duration":367467,"SoundDuration":367467,"Delta":222363171},{"NoteNumber":46,"Velocity":33,"Duration":467947,"SoundDuration":467947,"Delta":222638771},{"NoteNumber":63,"Velocity":50,"Duration":376080,"SoundDuration":376080,"Delta":222730638},{"NoteNumber":74,"Velocity":51,"Duration":752161,"SoundDuration":752161,"Delta":222730638},{"NoteNumber":48,"Velocity":39,"Duration":376080,"SoundDuration":376080,"Delta":222730638},{"NoteNumber":62,"Velocity":44,"Duration":376080,"SoundDuration":376080,"Delta":223106719},{"NoteNumber":46,"Velocity":45,"Duration":376080,"SoundDuration":376080,"Delta":223106719},{"NoteNumber":60,"Velocity":30,"Duration":375374,"SoundDuration":375374,"Delta":223482800},{"NoteNumber":75,"Velocity":51,"Duration":375374,"SoundDuration":375374,"Delta":223482800},{"NoteNumber":45,"Velocity":39,"Duration":375374,"SoundDuration":375374,"Delta":223482800},{"NoteNumber":34,"Velocity":42,"Duration":375374,"SoundDuration":375374,"Delta":223482800},{"NoteNumber":74,"Velocity":50,"Duration":377873,"SoundDuration":377873,"Delta":223858174},{"NoteNumber":62,"Velocity":29,"Duration":377873,"SoundDuration":377873,"Delta":223858174},{"NoteNumber":46,"Velocity":38,"Duration":3678331,"SoundDuration":3678331,"Delta":223858174},{"NoteNumber":63,"Velocity":28,"Duration":384405,"SoundDuration":384405,"Delta":224236048},{"NoteNumber":72,"Velocity":48,"Duration":384405,"SoundDuration":384405,"Delta":224236048},{"NoteNumber":48,"Velocity":36,"Duration":384405,"SoundDuration":384405,"Delta":224236048},{"NoteNumber":70,"Velocity":47,"Duration":391171,"SoundDuration":391171,"Delta":224620454},{"NoteNumber":64,"Velocity":28,"Duration":391171,"SoundDuration":391171,"Delta":224620454},{"NoteNumber":49,"Velocity":35,"Duration":391171,"SoundDuration":391171,"Delta":224620454},{"NoteNumber":69,"Velocity":46,"Duration":398230,"SoundDuration":398230,"Delta":225011625},{"NoteNumber":65,"Velocity":28,"Duration":398230,"SoundDuration":398230,"Delta":225011625},{"NoteNumber":50,"Velocity":38,"Duration":398230,"SoundDuration":398230,"Delta":225011625},{"NoteNumber":67,"Velocity":44,"Duration":405768,"SoundDuration":405768,"Delta":225409856},{"NoteNumber":63,"Velocity":26,"Duration":405768,"SoundDuration":405768,"Delta":225409856},{"NoteNumber":51,"Velocity":34,"Duration":405768,"SoundDuration":405768,"Delta":225409856},{"NoteNumber":62,"Velocity":23,"Duration":419806,"SoundDuration":419806,"Delta":225815625},{"NoteNumber":65,"Velocity":41,"Duration":419806,"SoundDuration":419806,"Delta":225815625},{"NoteNumber":53,"Velocity":35,"Duration":419806,"SoundDuration":419806,"Delta":225815625},{"NoteNumber":63,"Velocity":40,"Duration":426313,"SoundDuration":426313,"Delta":226235431},{"NoteNumber":60,"Velocity":23,"Duration":426313,"SoundDuration":426313,"Delta":226235431},{"NoteNumber":55,"Velocity":33,"Duration":426313,"SoundDuration":426313,"Delta":226235431},{"NoteNumber":57,"Velocity":40,"Duration":107265,"SoundDuration":107265,"Delta":226554480},{"NoteNumber":58,"Velocity":23,"Duration":432969,"SoundDuration":432969,"Delta":226661745},{"NoteNumber":62,"Velocity":39,"Duration":432969,"SoundDuration":432969,"Delta":226661745},{"NoteNumber":60,"Velocity":38,"Duration":441790,"SoundDuration":441790,"Delta":227094715},{"NoteNumber":57,"Velocity":22,"Duration":441790,"SoundDuration":441790,"Delta":227094715},{"NoteNumber":55,"Velocity":21,"Duration":262306,"SoundDuration":262306,"Delta":227536506},{"NoteNumber":58,"Velocity":36,"Duration":262306,"SoundDuration":262306,"Delta":227536506},{"NoteNumber":53,"Velocity":18,"Duration":276866,"SoundDuration":276866,"Delta":227798812},{"NoteNumber":57,"Velocity":31,"Duration":276866,"SoundDuration":276866,"Delta":227798812},{"NoteNumber":62,"Velocity":36,"Duration":276866,"SoundDuration":276866,"Delta":227798812},{"NoteNumber":55,"Velocity":33,"Duration":290006,"SoundDuration":290006,"Delta":228075679},{"NoteNumber":51,"Velocity":19,"Duration":290006,"SoundDuration":290006,"Delta":228075679},{"NoteNumber":63,"Velocity":31,"Duration":290006,"SoundDuration":290006,"Delta":228075679},{"NoteNumber":50,"Velocity":19,"Duration":306877,"SoundDuration":306877,"Delta":228365685},{"NoteNumber":53,"Velocity":34,"Duration":306877,"SoundDuration":306877,"Delta":228365685},{"NoteNumber":65,"Velocity":34,"Duration":306877,"SoundDuration":306877,"Delta":228365685},{"NoteNumber":51,"Velocity":38,"Duration":4121823,"SoundDuration":4121823,"Delta":228672562},{"NoteNumber":48,"Velocity":22,"Duration":4121823,"SoundDuration":4121823,"Delta":228672562},{"NoteNumber":66,"Velocity":38,"Duration":2747882,"SoundDuration":2747882,"Delta":228672562},{"NoteNumber":58,"Velocity":22,"Duration":2747882,"SoundDuration":2747882,"Delta":228672562},{"NoteNumber":57,"Velocity":28,"Duration":1373941,"SoundDuration":1373941,"Delta":231420444},{"NoteNumber":65,"Velocity":34,"Duration":1373941,"SoundDuration":1373941,"Delta":231420444},{"NoteNumber":34,"Velocity":33,"Duration":2232654,"SoundDuration":2232654,"Delta":232622643},{"NoteNumber":53,"Velocity":27,"Duration":2060911,"SoundDuration":2060911,"Delta":232794385},{"NoteNumber":58,"Velocity":27,"Duration":2060911,"SoundDuration":2060911,"Delta":232794385},{"NoteNumber":65,"Velocity":38,"Duration":2060911,"SoundDuration":2060911,"Delta":232794385},{"NoteNumber":50,"Velocity":40,"Duration":2060911,"SoundDuration":2060911,"Delta":232794385},{"NoteNumber":63,"Velocity":48,"Duration":398229,"SoundDuration":398229,"Delta":235542267},{"NoteNumber":31,"Velocity":30,"Duration":1036121,"SoundDuration":1036121,"Delta":235542267},{"NoteNumber":43,"Velocity":36,"Duration":1036121,"SoundDuration":1036121,"Delta":235542267},{"NoteNumber":51,"Velocity":41,"Duration":132743,"SoundDuration":132743,"Delta":235675011},{"NoteNumber":58,"Velocity":48,"Duration":132743,"SoundDuration":132743,"Delta":235807754},{"NoteNumber":62,"Velocity":37,"Duration":132743,"SoundDuration":132743,"Delta":235940497},{"NoteNumber":60,"Velocity":49,"Duration":383739,"SoundDuration":383739,"Delta":236073240},{"NoteNumber":51,"Velocity":40,"Duration":128663,"SoundDuration":128663,"Delta":236205984},{"NoteNumber":57,"Velocity":40,"Duration":122333,"SoundDuration":122333,"Delta":236334647},{"NoteNumber":60,"Velocity":40,"Duration":121409,"SoundDuration":121409,"Delta":236456980},{"NoteNumber":63,"Velocity":47,"Duration":477772,"SoundDuration":477772,"Delta":236578389},{"NoteNumber":33,"Velocity":27,"Duration":358819,"SoundDuration":358819,"Delta":236578389},{"NoteNumber":45,"Velocity":33,"Duration":358819,"SoundDuration":358819,"Delta":236578389},{"NoteNumber":69,"Velocity":40,"Duration":119602,"SoundDuration":119602,"Delta":236698888},{"NoteNumber":72,"Velocity":46,"Duration":118718,"SoundDuration":118718,"Delta":236818490},{"NoteNumber":75,"Velocity":51,"Duration":118952,"SoundDuration":118952,"Delta":236937209},{"NoteNumber":31,"Velocity":26,"Duration":118952,"SoundDuration":118952,"Delta":236937209},{"NoteNumber":43,"Velocity":31,"Duration":118952,"SoundDuration":118952,"Delta":236937209},{"NoteNumber":74,"Velocity":60,"Duration":398229,"SoundDuration":398229,"Delta":237056162},{"NoteNumber":30,"Velocity":30,"Duration":530972,"SoundDuration":530972,"Delta":237056162},{"NoteNumber":42,"Velocity":36,"Duration":530972,"SoundDuration":530972,"Delta":237056162},{"NoteNumber":62,"Velocity":46,"Duration":132743,"SoundDuration":132743,"Delta":237188905},{"NoteNumber":69,"Velocity":54,"Duration":132743,"SoundDuration":132743,"Delta":237321648},{"NoteNumber":72,"Velocity":52,"Duration":132743,"SoundDuration":132743,"Delta":237454392},{"NoteNumber":70,"Velocity":58,"Duration":508695,"SoundDuration":508695,"Delta":237587135},{"NoteNumber":33,"Velocity":30,"Duration":508695,"SoundDuration":508695,"Delta":237587135},{"NoteNumber":45,"Velocity":36,"Duration":508695,"SoundDuration":508695,"Delta":237587135},{"NoteNumber":62,"Velocity":51,"Duration":131274,"SoundDuration":131274,"Delta":237719878},{"NoteNumber":67,"Velocity":52,"Duration":122775,"SoundDuration":122775,"Delta":237851152},{"NoteNumber":70,"Velocity":52,"Duration":121902,"SoundDuration":121902,"Delta":237973928},{"NoteNumber":74,"Velocity":62,"Duration":537277,"SoundDuration":537277,"Delta":238095830},{"NoteNumber":43,"Velocity":29,"Duration":537277,"SoundDuration":537277,"Delta":238095830},{"NoteNumber":31,"Velocity":24,"Duration":537277,"SoundDuration":537277,"Delta":238095830},{"NoteNumber":79,"Velocity":49,"Duration":120305,"SoundDuration":120305,"Delta":238216920},{"NoteNumber":82,"Velocity":59,"Duration":119411,"SoundDuration":119411,"Delta":238337226},{"NoteNumber":86,"Velocity":63,"Duration":176470,"SoundDuration":176470,"Delta":238456638},{"NoteNumber":60,"Velocity":52,"Duration":398229,"SoundDuration":398229,"Delta":238633108},{"NoteNumber":39,"Velocity":36,"Duration":1042855,"SoundDuration":1042855,"Delta":238633108},{"NoteNumber":27,"Velocity":30,"Duration":1042855,"SoundDuration":1042855,"Delta":238633108},{"NoteNumber":48,"Velocity":40,"Duration":132743,"SoundDuration":132743,"Delta":238765851},{"NoteNumber":55,"Velocity":40,"Duration":132743,"SoundDuration":132743,"Delta":238898595},{"NoteNumber":58,"Velocity":44,"Duration":132743,"SoundDuration":132743,"Delta":239031338},{"NoteNumber":57,"Velocity":51,"Duration":389208,"SoundDuration":389208,"Delta":239164081},{"NoteNumber":48,"Velocity":36,"Duration":132743,"SoundDuration":132743,"Delta":239296824},{"NoteNumber":53,"Velocity":36,"Duration":123721,"SoundDuration":123721,"Delta":239429568},{"NoteNumber":57,"Velocity":36,"Duration":122674,"SoundDuration":122674,"Delta":239553289},{"NoteNumber":60,"Velocity":47,"Duration":483754,"SoundDuration":483754,"Delta":239675964},{"NoteNumber":29,"Velocity":27,"Duration":363461,"SoundDuration":363461,"Delta":239675964},{"NoteNumber":41,"Velocity":33,"Duration":363461,"SoundDuration":363461,"Delta":239675964},{"NoteNumber":65,"Velocity":40,"Duration":121122,"SoundDuration":121122,"Delta":239797933},{"NoteNumber":69,"Velocity":46,"Duration":120369,"SoundDuration":120369,"Delta":239919055},{"NoteNumber":72,"Velocity":51,"Duration":120292,"SoundDuration":120292,"Delta":240039425},{"NoteNumber":27,"Velocity":26,"Duration":120292,"SoundDuration":120292,"Delta":240039425},{"NoteNumber":39,"Velocity":31,"Duration":120292,"SoundDuration":120292,"Delta":240039425},{"NoteNumber":70,"Velocity":60,"Duration":398229,"SoundDuration":398229,"Delta":240159718},{"NoteNumber":26,"Velocity":30,"Duration":530972,"SoundDuration":530972,"Delta":240159718},{"NoteNumber":38,"Velocity":36,"Duration":530972,"SoundDuration":530972,"Delta":240159718},{"NoteNumber":58,"Velocity":44,"Duration":132743,"SoundDuration":132743,"Delta":240292461},{"NoteNumber":65,"Velocity":48,"Duration":132743,"SoundDuration":132743,"Delta":240425205},{"NoteNumber":69,"Velocity":52,"Duration":132743,"SoundDuration":132743,"Delta":240557948},{"NoteNumber":67,"Velocity":58,"Duration":510859,"SoundDuration":510859,"Delta":240690691},{"NoteNumber":29,"Velocity":30,"Duration":510859,"SoundDuration":510859,"Delta":240690691},{"NoteNumber":41,"Velocity":36,"Duration":510859,"SoundDuration":510859,"Delta":240690691},{"NoteNumber":58,"Velocity":48,"Duration":131426,"SoundDuration":131426,"Delta":240823434},{"NoteNumber":63,"Velocity":48,"Duration":123788,"SoundDuration":123788,"Delta":240954861},{"NoteNumber":67,"Velocity":48,"Duration":122901,"SoundDuration":122901,"Delta":241078650},{"NoteNumber":70,"Velocity":62,"Duration":540194,"SoundDuration":540194,"Delta":241201551},{"NoteNumber":39,"Velocity":29,"Duration":540194,"SoundDuration":540194,"Delta":241201551},{"NoteNumber":27,"Velocity":24,"Duration":540194,"SoundDuration":540194,"Delta":241201551},{"NoteNumber":75,"Velocity":49,"Duration":121278,"SoundDuration":121278,"Delta":241323627},{"NoteNumber":79,"Velocity":59,"Duration":120369,"SoundDuration":120369,"Delta":241444905},{"NoteNumber":82,"Velocity":63,"Duration":176470,"SoundDuration":176470,"Delta":241565275},{"NoteNumber":57,"Velocity":54,"Duration":389610,"SoundDuration":389610,"Delta":241741745},{"NoteNumber":24,"Velocity":33,"Duration":1024804,"SoundDuration":1024804,"Delta":241741745},{"NoteNumber":36,"Velocity":39,"Duration":1024804,"SoundDuration":1024804,"Delta":241741745},{"NoteNumber":45,"Velocity":39,"Duration":129870,"SoundDuration":129870,"Delta":241871615},{"NoteNumber":51,"Velocity":39,"Duration":129870,"SoundDuration":129870,"Delta":242001486},{"NoteNumber":55,"Velocity":44,"Duration":129870,"SoundDuration":129870,"Delta":242131356},{"NoteNumber":54,"Velocity":55,"Duration":383015,"SoundDuration":383015,"Delta":242261226},{"NoteNumber":45,"Velocity":39,"Duration":129870,"SoundDuration":129870,"Delta":242391096},{"NoteNumber":50,"Velocity":39,"Duration":123275,"SoundDuration":123275,"Delta":242520967},{"NoteNumber":54,"Velocity":39,"Duration":122307,"SoundDuration":122307,"Delta":242644242},{"NoteNumber":57,"Velocity":51,"Duration":501664,"SoundDuration":501664,"Delta":242766550},{"NoteNumber":38,"Velocity":36,"Duration":362515,"SoundDuration":362515,"Delta":242766550},{"NoteNumber":26,"Velocity":29,"Duration":362515,"SoundDuration":362515,"Delta":242766550},{"NoteNumber":62,"Velocity":44,"Duration":120789,"SoundDuration":120789,"Delta":242888131},{"NoteNumber":66,"Velocity":50,"Duration":120144,"SoundDuration":120144,"Delta":243008920},{"NoteNumber":57,"Velocity":56,"Duration":139148,"SoundDuration":139148,"Delta":243129065},{"NoteNumber":42,"Velocity":34,"Duration":139148,"SoundDuration":139148,"Delta":243129065},{"NoteNumber":30,"Velocity":28,"Duration":139148,"SoundDuration":139148,"Delta":243129065},{"NoteNumber":69,"Velocity":59,"Duration":387930,"SoundDuration":387930,"Delta":243268214},{"NoteNumber":45,"Velocity":50,"Duration":1021883,"SoundDuration":1021883,"Delta":243268214},{"NoteNumber":33,"Velocity":42,"Duration":1021883,"SoundDuration":1021883,"Delta":243268214},{"NoteNumber":57,"Velocity":50,"Duration":129310,"SoundDuration":129310,"Delta":243397524},{"NoteNumber":64,"Velocity":50,"Duration":129310,"SoundDuration":129310,"Delta":243526834},{"NoteNumber":67,"Velocity":52,"Duration":129310,"SoundDuration":129310,"Delta":243656144},{"NoteNumber":66,"Velocity":59,"Duration":381607,"SoundDuration":381607,"Delta":243785455},{"NoteNumber":57,"Velocity":50,"Duration":128508,"SoundDuration":128508,"Delta":243914765},{"NoteNumber":62,"Velocity":50,"Duration":123788,"SoundDuration":123788,"Delta":244043274},{"NoteNumber":66,"Velocity":50,"Duration":123035,"SoundDuration":123035,"Delta":244167062},{"NoteNumber":69,"Velocity":67,"Duration":502864,"SoundDuration":502864,"Delta":244290097},{"NoteNumber":50,"Velocity":47,"Duration":364245,"SoundDuration":364245,"Delta":244290097},{"NoteNumber":38,"Velocity":39,"Duration":364245,"SoundDuration":364245,"Delta":244290097},{"NoteNumber":74,"Velocity":57,"Duration":121408,"SoundDuration":121408,"Delta":244412306},{"NoteNumber":78,"Velocity":66,"Duration":120628,"SoundDuration":120628,"Delta":244533714},{"NoteNumber":69,"Velocity":73,"Duration":138619,"SoundDuration":138619,"Delta":244654342},{"NoteNumber":42,"Velocity":36,"Duration":138619,"SoundDuration":138619,"Delta":244654342},{"NoteNumber":54,"Velocity":42,"Duration":138619,"SoundDuration":138619,"Delta":244654342},{"NoteNumber":81,"Velocity":67,"Duration":382978,"SoundDuration":382978,"Delta":244792962},{"NoteNumber":45,"Velocity":38,"Duration":382978,"SoundDuration":382978,"Delta":244792962},{"NoteNumber":57,"Velocity":46,"Duration":382978,"SoundDuration":382978,"Delta":244792962},{"NoteNumber":69,"Velocity":61,"Duration":127659,"SoundDuration":127659,"Delta":244920621},{"NoteNumber":76,"Velocity":63,"Duration":127659,"SoundDuration":127659,"Delta":245048281},{"NoteNumber":79,"Velocity":67,"Duration":127659,"SoundDuration":127659,"Delta":245175940},{"NoteNumber":61,"Velocity":55,"Duration":127659,"SoundDuration":127659,"Delta":245175940},{"NoteNumber":49,"Velocity":46,"Duration":127659,"SoundDuration":127659,"Delta":245175940},{"NoteNumber":78,"Velocity":74,"Duration":381356,"SoundDuration":381356,"Delta":245303600},{"NoteNumber":50,"Velocity":49,"Duration":255318,"SoundDuration":255318,"Delta":245303600},{"NoteNumber":62,"Velocity":58,"Duration":255318,"SoundDuration":255318,"Delta":245303600},{"NoteNumber":69,"Velocity":62,"Duration":127659,"SoundDuration":127659,"Delta":245431259},{"NoteNumber":74,"Velocity":67,"Duration":126037,"SoundDuration":126037,"Delta":245558919},{"NoteNumber":78,"Velocity":71,"Duration":125400,"SoundDuration":125400,"Delta":245684956},{"NoteNumber":81,"Velocity":75,"Duration":495289,"SoundDuration":495289,"Delta":245810357},{"NoteNumber":62,"Velocity":52,"Duration":372455,"SoundDuration":372455,"Delta":245810357},{"NoteNumber":50,"Velocity":44,"Duration":372455,"SoundDuration":372455,"Delta":245810357},{"NoteNumber":86,"Velocity":68,"Duration":124155,"SoundDuration":124155,"Delta":245935132},{"NoteNumber":90,"Velocity":71,"Duration":123524,"SoundDuration":123524,"Delta":246059288},{"NoteNumber":81,"Velocity":73,"Duration":122833,"SoundDuration":122833,"Delta":246182813},{"NoteNumber":54,"Velocity":49,"Duration":122833,"SoundDuration":122833,"Delta":246182813},{"NoteNumber":66,"Velocity":59,"Duration":122833,"SoundDuration":122833,"Delta":246182813},{"NoteNumber":93,"Velocity":78,"Duration":389668,"SoundDuration":389668,"Delta":246305646},{"NoteNumber":57,"Velocity":51,"Duration":389668,"SoundDuration":389668,"Delta":246305646},{"NoteNumber":69,"Velocity":61,"Duration":389668,"SoundDuration":389668,"Delta":246305646},{"NoteNumber":81,"Velocity":72,"Duration":128755,"SoundDuration":128755,"Delta":246434402},{"NoteNumber":88,"Velocity":70,"Duration":132158,"SoundDuration":132158,"Delta":246563157},{"NoteNumber":91,"Velocity":74,"Duration":132158,"SoundDuration":132158,"Delta":246695315},{"NoteNumber":61,"Velocity":57,"Duration":132158,"SoundDuration":132158,"Delta":246695315},{"NoteNumber":73,"Velocity":68,"Duration":132158,"SoundDuration":132158,"Delta":246695315},{"NoteNumber":90,"Velocity":81,"Duration":264317,"SoundDuration":264317,"Delta":246827474},{"NoteNumber":62,"Velocity":59,"Duration":264317,"SoundDuration":264317,"Delta":246827474},{"NoteNumber":74,"Velocity":70,"Duration":264317,"SoundDuration":264317,"Delta":246827474},{"NoteNumber":86,"Velocity":77,"Duration":483870,"SoundDuration":483870,"Delta":247343229},{"NoteNumber":78,"Velocity":77,"Duration":483870,"SoundDuration":483870,"Delta":247343229},{"NoteNumber":81,"Velocity":77,"Duration":483870,"SoundDuration":483870,"Delta":247343229},{"NoteNumber":74,"Velocity":71,"Duration":483870,"SoundDuration":483870,"Delta":247343229},{"NoteNumber":69,"Velocity":60,"Duration":483870,"SoundDuration":483870,"Delta":247343229},{"NoteNumber":62,"Velocity":60,"Duration":483870,"SoundDuration":483870,"Delta":247343229},{"NoteNumber":63,"Velocity":48,"Duration":398229,"SoundDuration":398229,"Delta":247988390},{"NoteNumber":43,"Velocity":36,"Duration":1037668,"SoundDuration":1037668,"Delta":247988390},{"NoteNumber":31,"Velocity":25,"Duration":1037668,"SoundDuration":1037668,"Delta":247988390},{"NoteNumber":51,"Velocity":41,"Duration":132743,"SoundDuration":132743,"Delta":248121134},{"NoteNumber":58,"Velocity":48,"Duration":132743,"SoundDuration":132743,"Delta":248253877},{"NoteNumber":62,"Velocity":37,"Duration":132743,"SoundDuration":132743,"Delta":248386620},{"NoteNumber":60,"Velocity":49,"Duration":385646,"SoundDuration":385646,"Delta":248519363},{"NoteNumber":51,"Velocity":40,"Duration":131124,"SoundDuration":131124,"Delta":248652107},{"NoteNumber":57,"Velocity":40,"Duration":121778,"SoundDuration":121778,"Delta":248783231},{"NoteNumber":60,"Velocity":40,"Duration":121049,"SoundDuration":121049,"Delta":248905009},{"NoteNumber":63,"Velocity":47,"Duration":477919,"SoundDuration":477919,"Delta":249026059},{"NoteNumber":45,"Velocity":33,"Duration":358734,"SoundDuration":358734,"Delta":249026059},{"NoteNumber":33,"Velocity":22,"Duration":358734,"SoundDuration":358734,"Delta":249026059},{"NoteNumber":69,"Velocity":40,"Duration":119602,"SoundDuration":119602,"Delta":249146308},{"NoteNumber":72,"Velocity":46,"Duration":118882,"SoundDuration":118882,"Delta":249265910},{"NoteNumber":75,"Velocity":51,"Duration":119185,"SoundDuration":119185,"Delta":249384793},{"NoteNumber":43,"Velocity":31,"Duration":119185,"SoundDuration":119185,"Delta":249384793},{"NoteNumber":31,"Velocity":22,"Duration":119185,"SoundDuration":119185,"Delta":249384793},{"NoteNumber":74,"Velocity":60,"Duration":398229,"SoundDuration":398229,"Delta":249503978},{"NoteNumber":30,"Velocity":25,"Duration":530972,"SoundDuration":530972,"Delta":249503978},{"NoteNumber":42,"Velocity":36,"Duration":530972,"SoundDuration":530972,"Delta":249503978},{"NoteNumber":62,"Velocity":46,"Duration":132743,"SoundDuration":132743,"Delta":249636721},{"NoteNumber":69,"Velocity":54,"Duration":132743,"SoundDuration":132743,"Delta":249769464},{"NoteNumber":72,"Velocity":52,"Duration":132743,"SoundDuration":132743,"Delta":249902208},{"NoteNumber":70,"Velocity":58,"Duration":509231,"SoundDuration":509231,"Delta":250034951},{"NoteNumber":33,"Velocity":25,"Duration":509231,"SoundDuration":509231,"Delta":250034951},{"NoteNumber":45,"Velocity":36,"Duration":509231,"SoundDuration":509231,"Delta":250034951},{"NoteNumber":62,"Velocity":51,"Duration":131350,"SoundDuration":131350,"Delta":250167694},{"NoteNumber":67,"Velocity":52,"Duration":123102,"SoundDuration":123102,"Delta":250299044},{"NoteNumber":70,"Velocity":52,"Duration":122035,"SoundDuration":122035,"Delta":250422147},{"NoteNumber":74,"Velocity":62,"Duration":536308,"SoundDuration":536308,"Delta":250544183},{"NoteNumber":31,"Velocity":20,"Duration":536308,"SoundDuration":536308,"Delta":250544183},{"NoteNumber":43,"Velocity":29,"Duration":536308,"SoundDuration":536308,"Delta":250544183},{"NoteNumber":79,"Velocity":49,"Duration":119953,"SoundDuration":119953,"Delta":250665168},{"NoteNumber":82,"Velocity":59,"Duration":118899,"SoundDuration":118899,"Delta":250785121},{"NoteNumber":86,"Velocity":63,"Duration":176470,"SoundDuration":176470,"Delta":250904020},{"NoteNumber":60,"Velocity":52,"Duration":398229,"SoundDuration":398229,"Delta":251080491},{"NoteNumber":27,"Velocity":25,"Duration":1042042,"SoundDuration":1042042,"Delta":251080491},{"NoteNumber":39,"Velocity":36,"Duration":1042042,"SoundDuration":1042042,"Delta":251080491},{"NoteNumber":48,"Velocity":40,"Duration":132743,"SoundDuration":132743,"Delta":251213234},{"NoteNumber":55,"Velocity":40,"Duration":132743,"SoundDuration":132743,"Delta":251345977},{"NoteNumber":58,"Velocity":44,"Duration":132743,"SoundDuration":132743,"Delta":251478721},{"NoteNumber":57,"Velocity":51,"Duration":388761,"SoundDuration":388761,"Delta":251611464},{"NoteNumber":48,"Velocity":36,"Duration":132743,"SoundDuration":132743,"Delta":251744207},{"NoteNumber":53,"Velocity":36,"Duration":123275,"SoundDuration":123275,"Delta":251876950},{"NoteNumber":57,"Velocity":36,"Duration":122307,"SoundDuration":122307,"Delta":252000225},{"NoteNumber":60,"Velocity":47,"Duration":482674,"SoundDuration":482674,"Delta":252122533},{"NoteNumber":41,"Velocity":33,"Duration":362945,"SoundDuration":362945,"Delta":252122533},{"NoteNumber":29,"Velocity":22,"Duration":362945,"SoundDuration":362945,"Delta":252122533},{"NoteNumber":65,"Velocity":40,"Duration":120919,"SoundDuration":120919,"Delta":252244246},{"NoteNumber":69,"Velocity":46,"Duration":120313,"SoundDuration":120313,"Delta":252365165},{"NoteNumber":72,"Velocity":51,"Duration":119729,"SoundDuration":119729,"Delta":252485479},{"NoteNumber":27,"Velocity":22,"Duration":119729,"SoundDuration":119729,"Delta":252485479},{"NoteNumber":39,"Velocity":31,"Duration":119729,"SoundDuration":119729,"Delta":252485479},{"NoteNumber":70,"Velocity":60,"Duration":398229,"SoundDuration":398229,"Delta":252605208},{"NoteNumber":26,"Velocity":25,"Duration":530972,"SoundDuration":530972,"Delta":252605208},{"NoteNumber":38,"Velocity":36,"Duration":530972,"SoundDuration":530972,"Delta":252605208},{"NoteNumber":58,"Velocity":44,"Duration":132743,"SoundDuration":132743,"Delta":252737951},{"NoteNumber":65,"Velocity":48,"Duration":132743,"SoundDuration":132743,"Delta":252870694},{"NoteNumber":69,"Velocity":52,"Duration":132743,"SoundDuration":132743,"Delta":253003438},{"NoteNumber":67,"Velocity":58,"Duration":508968,"SoundDuration":508968,"Delta":253136181},{"NoteNumber":29,"Velocity":25,"Duration":508968,"SoundDuration":508968,"Delta":253136181},{"NoteNumber":41,"Velocity":36,"Duration":508968,"SoundDuration":508968,"Delta":253136181},{"NoteNumber":58,"Velocity":48,"Duration":131274,"SoundDuration":131274,"Delta":253268924},{"NoteNumber":63,"Velocity":48,"Duration":122775,"SoundDuration":122775,"Delta":253400198},{"NoteNumber":67,"Velocity":48,"Duration":122175,"SoundDuration":122175,"Delta":253522974},{"NoteNumber":70,"Velocity":62,"Duration":539284,"SoundDuration":539284,"Delta":253645149},{"NoteNumber":27,"Velocity":20,"Duration":539284,"SoundDuration":539284,"Delta":253645149},{"NoteNumber":39,"Velocity":29,"Duration":539284,"SoundDuration":539284,"Delta":253645149},{"NoteNumber":75,"Velocity":49,"Duration":120919,"SoundDuration":120919,"Delta":253766730},{"NoteNumber":79,"Velocity":59,"Duration":120313,"SoundDuration":120313,"Delta":253887649},{"NoteNumber":82,"Velocity":63,"Duration":176470,"SoundDuration":176470,"Delta":254007962},{"NoteNumber":57,"Velocity":54,"Duration":389610,"SoundDuration":389610,"Delta":254184433},{"NoteNumber":36,"Velocity":39,"Duration":1025302,"SoundDuration":1025302,"Delta":254184433},{"NoteNumber":24,"Velocity":28,"Duration":1025302,"SoundDuration":1025302,"Delta":254184433},{"NoteNumber":45,"Velocity":39,"Duration":129870,"SoundDuration":129870,"Delta":254314303},{"NoteNumber":51,"Velocity":39,"Duration":129870,"SoundDuration":129870,"Delta":254444173},{"NoteNumber":55,"Velocity":44,"Duration":129870,"SoundDuration":129870,"Delta":254574044},{"NoteNumber":54,"Velocity":55,"Duration":382643,"SoundDuration":382643,"Delta":254703914},{"NoteNumber":45,"Velocity":39,"Duration":128984,"SoundDuration":128984,"Delta":254833784},{"NoteNumber":50,"Velocity":39,"Duration":123788,"SoundDuration":123788,"Delta":254962769},{"NoteNumber":54,"Velocity":39,"Duration":123178,"SoundDuration":123178,"Delta":255086557},{"NoteNumber":57,"Velocity":51,"Duration":486792,"SoundDuration":486792,"Delta":255209736},{"NoteNumber":38,"Velocity":36,"Duration":365762,"SoundDuration":365762,"Delta":255209736},{"NoteNumber":26,"Velocity":24,"Duration":365762,"SoundDuration":365762,"Delta":255209736},{"NoteNumber":62,"Velocity":44,"Duration":121902,"SoundDuration":121902,"Delta":255332310},{"NoteNumber":66,"Velocity":50,"Duration":121286,"SoundDuration":121286,"Delta":255454212},{"NoteNumber":57,"Velocity":56,"Duration":121030,"SoundDuration":121030,"Delta":255575498},{"NoteNumber":42,"Velocity":34,"Duration":121030,"SoundDuration":121030,"Delta":255575498},{"NoteNumber":30,"Velocity":23,"Duration":121030,"SoundDuration":121030,"Delta":255575498},{"NoteNumber":69,"Velocity":59,"Duration":387930,"SoundDuration":387930,"Delta":255696528},{"NoteNumber":33,"Velocity":35,"Duration":1023757,"SoundDuration":1023757,"Delta":255696528},{"NoteNumber":45,"Velocity":50,"Duration":1023757,"SoundDuration":1023757,"Delta":255696528},{"NoteNumber":57,"Velocity":50,"Duration":129310,"SoundDuration":129310,"Delta":255825839},{"NoteNumber":64,"Velocity":50,"Duration":129310,"SoundDuration":129310,"Delta":255955149},{"NoteNumber":67,"Velocity":52,"Duration":129310,"SoundDuration":129310,"Delta":256084459},{"NoteNumber":66,"Velocity":59,"Duration":383109,"SoundDuration":383109,"Delta":256213769},{"NoteNumber":57,"Velocity":50,"Duration":129310,"SoundDuration":129310,"Delta":256343080},{"NoteNumber":62,"Velocity":50,"Duration":124488,"SoundDuration":124488,"Delta":256472390},{"NoteNumber":66,"Velocity":50,"Duration":123406,"SoundDuration":123406,"Delta":256596879},{"NoteNumber":69,"Velocity":67,"Duration":484257,"SoundDuration":484257,"Delta":256720286},{"NoteNumber":38,"Velocity":33,"Duration":364114,"SoundDuration":364114,"Delta":256720286},{"NoteNumber":50,"Velocity":47,"Duration":364114,"SoundDuration":364114,"Delta":256720286},{"NoteNumber":74,"Velocity":57,"Duration":121278,"SoundDuration":121278,"Delta":256842752},{"NoteNumber":78,"Velocity":66,"Duration":120369,"SoundDuration":120369,"Delta":256964030},{"NoteNumber":69,"Velocity":73,"Duration":120142,"SoundDuration":120142,"Delta":257084400},{"NoteNumber":54,"Velocity":42,"Duration":120142,"SoundDuration":120142,"Delta":257084400},{"NoteNumber":42,"Velocity":30,"Duration":120142,"SoundDuration":120142,"Delta":257084400},{"NoteNumber":81,"Velocity":67,"Duration":382978,"SoundDuration":382978,"Delta":257204543},{"NoteNumber":57,"Velocity":46,"Duration":382978,"SoundDuration":382978,"Delta":257204543},{"NoteNumber":45,"Velocity":32,"Duration":382978,"SoundDuration":382978,"Delta":257204543},{"NoteNumber":69,"Velocity":61,"Duration":127659,"SoundDuration":127659,"Delta":257332202},{"NoteNumber":76,"Velocity":63,"Duration":127659,"SoundDuration":127659,"Delta":257459862},{"NoteNumber":79,"Velocity":67,"Duration":127659,"SoundDuration":127659,"Delta":257587521},{"NoteNumber":49,"Velocity":39,"Duration":127659,"SoundDuration":127659,"Delta":257587521},{"NoteNumber":61,"Velocity":55,"Duration":127659,"SoundDuration":127659,"Delta":257587521},{"NoteNumber":78,"Velocity":74,"Duration":381356,"SoundDuration":381356,"Delta":257715181},{"NoteNumber":62,"Velocity":58,"Duration":255319,"SoundDuration":255319,"Delta":257715181},{"NoteNumber":50,"Velocity":41,"Duration":255319,"SoundDuration":255319,"Delta":257715181},{"NoteNumber":69,"Velocity":62,"Duration":127659,"SoundDuration":127659,"Delta":257842840},{"NoteNumber":74,"Velocity":67,"Duration":126037,"SoundDuration":126037,"Delta":257970500},{"NoteNumber":78,"Velocity":71,"Duration":125400,"SoundDuration":125400,"Delta":258096537},{"NoteNumber":81,"Velocity":75,"Duration":495289,"SoundDuration":495289,"Delta":258221938},{"NoteNumber":50,"Velocity":37,"Duration":372455,"SoundDuration":372455,"Delta":258221938},{"NoteNumber":62,"Velocity":52,"Duration":372455,"SoundDuration":372455,"Delta":258221938},{"NoteNumber":86,"Velocity":68,"Duration":124155,"SoundDuration":124155,"Delta":258346713},{"NoteNumber":90,"Velocity":71,"Duration":123524,"SoundDuration":123524,"Delta":258470869},{"NoteNumber":81,"Velocity":73,"Duration":122833,"SoundDuration":122833,"Delta":258594394},{"NoteNumber":54,"Velocity":41,"Duration":122833,"SoundDuration":122833,"Delta":258594394},{"NoteNumber":66,"Velocity":59,"Duration":122833,"SoundDuration":122833,"Delta":258594394},{"NoteNumber":93,"Velocity":78,"Duration":389669,"SoundDuration":389669,"Delta":258717227},{"NoteNumber":57,"Velocity":43,"Duration":389669,"SoundDuration":389669,"Delta":258717227},{"NoteNumber":69,"Velocity":61,"Duration":389669,"SoundDuration":389669,"Delta":258717227},{"NoteNumber":81,"Velocity":72,"Duration":128755,"SoundDuration":128755,"Delta":258845983},{"NoteNumber":88,"Velocity":70,"Duration":132158,"SoundDuration":132158,"Delta":258974738},{"NoteNumber":91,"Velocity":74,"Duration":132158,"SoundDuration":132158,"Delta":259106896},{"NoteNumber":73,"Velocity":68,"Duration":132158,"SoundDuration":132158,"Delta":259106896},{"NoteNumber":61,"Velocity":48,"Duration":132158,"SoundDuration":132158,"Delta":259106896},{"NoteNumber":90,"Velocity":81,"Duration":264317,"SoundDuration":264317,"Delta":259239055},{"NoteNumber":62,"Velocity":50,"Duration":264317,"SoundDuration":264317,"Delta":259239055},{"NoteNumber":74,"Velocity":70,"Duration":264317,"SoundDuration":264317,"Delta":259239055},{"NoteNumber":81,"Velocity":65,"Duration":481283,"SoundDuration":481283,"Delta":259754810},{"NoteNumber":78,"Velocity":65,"Duration":481283,"SoundDuration":481283,"Delta":259754810},{"NoteNumber":86,"Velocity":77,"Duration":481283,"SoundDuration":481283,"Delta":259754810},{"NoteNumber":74,"Velocity":71,"Duration":481283,"SoundDuration":481283,"Delta":259754810},{"NoteNumber":69,"Velocity":60,"Duration":481283,"SoundDuration":481283,"Delta":259754810},{"NoteNumber":62,"Velocity":51,"Duration":481283,"SoundDuration":481283,"Delta":259754810},{"NoteNumber":62,"Velocity":48,"Duration":398229,"SoundDuration":398229,"Delta":260396521},{"NoteNumber":46,"Velocity":36,"Duration":924119,"SoundDuration":924119,"Delta":260396521},{"NoteNumber":34,"Velocity":25,"Duration":924119,"SoundDuration":924119,"Delta":260396521},{"NoteNumber":50,"Velocity":41,"Duration":132743,"SoundDuration":132743,"Delta":260529264},{"NoteNumber":56,"Velocity":48,"Duration":132743,"SoundDuration":132743,"Delta":260662008},{"NoteNumber":60,"Velocity":37,"Duration":132743,"SoundDuration":132743,"Delta":260794751},{"NoteNumber":58,"Velocity":49,"Duration":393146,"SoundDuration":393146,"Delta":260927494},{"NoteNumber":51,"Velocity":41,"Duration":132743,"SoundDuration":132743,"Delta":261060237},{"NoteNumber":56,"Velocity":49,"Duration":127659,"SoundDuration":127659,"Delta":261192981},{"NoteNumber":58,"Velocity":53,"Duration":124864,"SoundDuration":124864,"Delta":261320640},{"NoteNumber":36,"Velocity":22,"Duration":124864,"SoundDuration":124864,"Delta":261320640},{"NoteNumber":48,"Velocity":31,"Duration":124864,"SoundDuration":124864,"Delta":261320640},{"NoteNumber":67,"Velocity":63,"Duration":359687,"SoundDuration":359687,"Delta":261445504},{"NoteNumber":49,"Velocity":42,"Duration":477894,"SoundDuration":477894,"Delta":261445504},{"NoteNumber":37,"Velocity":27,"Duration":477894,"SoundDuration":477894,"Delta":261445504},{"NoteNumber":52,"Velocity":40,"Duration":119858,"SoundDuration":119858,"Delta":261567000},{"NoteNumber":58,"Velocity":46,"Duration":118333,"SoundDuration":118333,"Delta":261686859},{"NoteNumber":67,"Velocity":51,"Duration":118206,"SoundDuration":118206,"Delta":261805192},{"NoteNumber":65,"Velocity":57,"Duration":398229,"SoundDuration":398229,"Delta":261923399},{"NoteNumber":50,"Velocity":36,"Duration":915507,"SoundDuration":915507,"Delta":261923399},{"NoteNumber":38,"Velocity":25,"Duration":915507,"SoundDuration":915507,"Delta":261923399},{"NoteNumber":53,"Velocity":41,"Duration":132743,"SoundDuration":132743,"Delta":262056142},{"NoteNumber":58,"Velocity":52,"Duration":132743,"SoundDuration":132743,"Delta":262188885},{"NoteNumber":63,"Velocity":37,"Duration":132743,"SoundDuration":132743,"Delta":262321629},{"NoteNumber":62,"Velocity":53,"Duration":384534,"SoundDuration":384534,"Delta":262454372},{"NoteNumber":55,"Velocity":41,"Duration":132743,"SoundDuration":132743,"Delta":262587115},{"NoteNumber":58,"Velocity":53,"Duration":119047,"SoundDuration":119047,"Delta":262719858},{"NoteNumber":62,"Velocity":57,"Duration":119951,"SoundDuration":119951,"Delta":262838906},{"NoteNumber":39,"Velocity":22,"Duration":119951,"SoundDuration":119951,"Delta":262838906},{"NoteNumber":51,"Velocity":31,"Duration":119951,"SoundDuration":119951,"Delta":262838906},{"NoteNumber":68,"Velocity":67,"Duration":360553,"SoundDuration":360553,"Delta":262958857},{"NoteNumber":40,"Velocity":27,"Duration":479154,"SoundDuration":479154,"Delta":262958857},{"NoteNumber":52,"Velocity":43,"Duration":479154,"SoundDuration":479154,"Delta":262958857},{"NoteNumber":56,"Velocity":41,"Duration":120204,"SoundDuration":120204,"Delta":263079850},{"NoteNumber":62,"Velocity":47,"Duration":119356,"SoundDuration":119356,"Delta":263200055},{"NoteNumber":68,"Velocity":53,"Duration":118601,"SoundDuration":118601,"Delta":263319411},{"NoteNumber":67,"Velocity":56,"Duration":398229,"SoundDuration":398229,"Delta":263438012},{"NoteNumber":53,"Velocity":37,"Duration":926894,"SoundDuration":926894,"Delta":263438012},{"NoteNumber":41,"Velocity":26,"Duration":926894,"SoundDuration":926894,"Delta":263438012},{"NoteNumber":56,"Velocity":42,"Duration":132743,"SoundDuration":132743,"Delta":263570755},{"NoteNumber":62,"Velocity":53,"Duration":132743,"SoundDuration":132743,"Delta":263703499},{"NoteNumber":65,"Velocity":38,"Duration":132743,"SoundDuration":132743,"Delta":263836242},{"NoteNumber":64,"Velocity":50,"Duration":395921,"SoundDuration":395921,"Delta":263968985},{"NoteNumber":58,"Velocity":51,"Duration":132743,"SoundDuration":132743,"Delta":264101728},{"NoteNumber":61,"Velocity":55,"Duration":130434,"SoundDuration":130434,"Delta":264234472},{"NoteNumber":64,"Velocity":64,"Duration":128896,"SoundDuration":128896,"Delta":264364906},{"NoteNumber":42,"Velocity":22,"Duration":128896,"SoundDuration":128896,"Delta":264364906},{"NoteNumber":54,"Velocity":32,"Duration":128896,"SoundDuration":128896,"Delta":264364906},{"NoteNumber":70,"Velocity":71,"Duration":363935,"SoundDuration":363935,"Delta":264493803},{"NoteNumber":43,"Velocity":28,"Duration":482362,"SoundDuration":482362,"Delta":264493803},{"NoteNumber":55,"Velocity":46,"Duration":482362,"SoundDuration":482362,"Delta":264493803},{"NoteNumber":61,"Velocity":44,"Duration":121299,"SoundDuration":121299,"Delta":264616592},{"NoteNumber":64,"Velocity":50,"Duration":119846,"SoundDuration":119846,"Delta":264737892},{"NoteNumber":70,"Velocity":56,"Duration":118426,"SoundDuration":118426,"Delta":264857738},{"NoteNumber":68,"Velocity":67,"Duration":398229,"SoundDuration":398229,"Delta":264976165},{"NoteNumber":56,"Velocity":39,"Duration":925214,"SoundDuration":925214,"Delta":264976165},{"NoteNumber":44,"Velocity":27,"Duration":925214,"SoundDuration":925214,"Delta":264976165},{"NoteNumber":61,"Velocity":45,"Duration":132743,"SoundDuration":132743,"Delta":265108908},{"NoteNumber":64,"Velocity":56,"Duration":132743,"SoundDuration":132743,"Delta":265241652},{"NoteNumber":67,"Velocity":40,"Duration":132743,"SoundDuration":132743,"Delta":265374395},{"NoteNumber":66,"Velocity":58,"Duration":394241,"SoundDuration":394241,"Delta":265507138},{"NoteNumber":60,"Velocity":49,"Duration":132743,"SoundDuration":132743,"Delta":265639881},{"NoteNumber":63,"Velocity":56,"Duration":128755,"SoundDuration":128755,"Delta":265772625},{"NoteNumber":66,"Velocity":62,"Duration":127879,"SoundDuration":127879,"Delta":265901380},{"NoteNumber":57,"Velocity":34,"Duration":127879,"SoundDuration":127879,"Delta":265901380},{"NoteNumber":45,"Velocity":23,"Duration":127879,"SoundDuration":127879,"Delta":265901380},{"NoteNumber":72,"Velocity":71,"Duration":362860,"SoundDuration":362860,"Delta":266029259},{"NoteNumber":58,"Velocity":49,"Duration":482026,"SoundDuration":482026,"Delta":266029259},{"NoteNumber":46,"Velocity":30,"Duration":482026,"SoundDuration":482026,"Delta":266029259},{"NoteNumber":63,"Velocity":47,"Duration":120992,"SoundDuration":120992,"Delta":266151101},{"NoteNumber":66,"Velocity":54,"Duration":120024,"SoundDuration":120024,"Delta":266272094},{"NoteNumber":72,"Velocity":59,"Duration":119166,"SoundDuration":119166,"Delta":266392119},{"NoteNumber":70,"Velocity":62,"Duration":398229,"SoundDuration":398229,"Delta":266511286},{"NoteNumber":60,"Velocity":41,"Duration":916941,"SoundDuration":916941,"Delta":266511286},{"NoteNumber":48,"Velocity":28,"Duration":916941,"SoundDuration":916941,"Delta":266511286},{"NoteNumber":63,"Velocity":48,"Duration":132743,"SoundDuration":132743,"Delta":266644029},{"NoteNumber":66,"Velocity":60,"Duration":132743,"SoundDuration":132743,"Delta":266776772},{"NoteNumber":69,"Velocity":42,"Duration":132743,"SoundDuration":132743,"Delta":266909516},{"NoteNumber":68,"Velocity":65,"Duration":385968,"SoundDuration":385968,"Delta":267042259},{"NoteNumber":62,"Velocity":53,"Duration":132743,"SoundDuration":132743,"Delta":267175002},{"NoteNumber":65,"Velocity":61,"Duration":120481,"SoundDuration":120481,"Delta":267307745},{"NoteNumber":69,"Velocity":66,"Duration":121177,"SoundDuration":121177,"Delta":267428227},{"NoteNumber":47,"Velocity":25,"Duration":121177,"SoundDuration":121177,"Delta":267428227},{"NoteNumber":59,"Velocity":35,"Duration":121177,"SoundDuration":121177,"Delta":267428227},{"NoteNumber":74,"Velocity":76,"Duration":363407,"SoundDuration":363407,"Delta":267549405},{"NoteNumber":48,"Velocity":34,"Duration":482114,"SoundDuration":482114,"Delta":267549405},{"NoteNumber":60,"Velocity":54,"Duration":482114,"SoundDuration":482114,"Delta":267549405},{"NoteNumber":65,"Velocity":52,"Duration":121103,"SoundDuration":121103,"Delta":267671780},{"NoteNumber":69,"Velocity":60,"Duration":119929,"SoundDuration":119929,"Delta":267792883},{"NoteNumber":74,"Velocity":66,"Duration":118707,"SoundDuration":118707,"Delta":267912813},{"NoteNumber":72,"Velocity":73,"Duration":398229,"SoundDuration":398229,"Delta":268031520},{"NoteNumber":62,"Velocity":45,"Duration":916459,"SoundDuration":916459,"Delta":268031520},{"NoteNumber":50,"Velocity":32,"Duration":916459,"SoundDuration":916459,"Delta":268031520},{"NoteNumber":65,"Velocity":53,"Duration":132743,"SoundDuration":132743,"Delta":268164263},{"NoteNumber":69,"Velocity":67,"Duration":132743,"SoundDuration":132743,"Delta":268297006},{"NoteNumber":71,"Velocity":55,"Duration":132743,"SoundDuration":132743,"Delta":268429750},{"NoteNumber":70,"Velocity":69,"Duration":385486,"SoundDuration":385486,"Delta":268562493},{"NoteNumber":64,"Velocity":58,"Duration":132743,"SoundDuration":132743,"Delta":268695236},{"NoteNumber":67,"Velocity":66,"Duration":120000,"SoundDuration":120000,"Delta":268827979},{"NoteNumber":70,"Velocity":69,"Duration":120000,"SoundDuration":120000,"Delta":268947979},{"NoteNumber":49,"Velocity":28,"Duration":120000,"SoundDuration":120000,"Delta":268947979},{"NoteNumber":61,"Velocity":39,"Duration":120000,"SoundDuration":120000,"Delta":268947979},{"NoteNumber":76,"Velocity":79,"Duration":362511,"SoundDuration":362511,"Delta":269067979},{"NoteNumber":62,"Velocity":61,"Duration":482392,"SoundDuration":482392,"Delta":269067979},{"NoteNumber":50,"Velocity":37,"Duration":482392,"SoundDuration":482392,"Delta":269067979},{"NoteNumber":67,"Velocity":58,"Duration":121384,"SoundDuration":121384,"Delta":269188972},{"NoteNumber":70,"Velocity":67,"Duration":120133,"SoundDuration":120133,"Delta":269310357},{"NoteNumber":76,"Velocity":73,"Duration":119881,"SoundDuration":119881,"Delta":269430491},{"NoteNumber":74,"Velocity":69,"Duration":398229,"SoundDuration":398229,"Delta":269550372},{"NoteNumber":52,"Velocity":35,"Duration":922496,"SoundDuration":922496,"Delta":269550372},{"NoteNumber":64,"Velocity":50,"Duration":922496,"SoundDuration":922496,"Delta":269550372},{"NoteNumber":67,"Velocity":59,"Duration":132743,"SoundDuration":132743,"Delta":269683115},{"NoteNumber":70,"Velocity":70,"Duration":132743,"SoundDuration":132743,"Delta":269815858},{"NoteNumber":73,"Velocity":51,"Duration":132743,"SoundDuration":132743,"Delta":269948602},{"NoteNumber":74,"Velocity":73,"Duration":391523,"SoundDuration":391523,"Delta":270081345},{"NoteNumber":65,"Velocity":62,"Duration":132743,"SoundDuration":132743,"Delta":270214088},{"NoteNumber":69,"Velocity":68,"Duration":126037,"SoundDuration":126037,"Delta":270346831},{"NoteNumber":74,"Velocity":73,"Duration":125400,"SoundDuration":125400,"Delta":270472869},{"NoteNumber":53,"Velocity":44,"Duration":125400,"SoundDuration":125400,"Delta":270472869},{"NoteNumber":70,"Velocity":82,"Duration":372455,"SoundDuration":372455,"Delta":270598270},{"NoteNumber":55,"Velocity":62,"Duration":495289,"SoundDuration":495289,"Delta":270598270},{"NoteNumber":62,"Velocity":59,"Duration":124155,"SoundDuration":124155,"Delta":270723045},{"NoteNumber":67,"Velocity":68,"Duration":123524,"SoundDuration":123524,"Delta":270847201},{"NoteNumber":70,"Velocity":75,"Duration":122833,"SoundDuration":122833,"Delta":270970725},{"NoteNumber":69,"Velocity":82,"Duration":367346,"SoundDuration":367346,"Delta":271093559},{"NoteNumber":57,"Velocity":65,"Duration":367346,"SoundDuration":367346,"Delta":271093559},{"NoteNumber":61,"Velocity":53,"Duration":122449,"SoundDuration":122449,"Delta":271216008},{"NoteNumber":64,"Velocity":59,"Duration":122449,"SoundDuration":122449,"Delta":271338457},{"NoteNumber":69,"Velocity":75,"Duration":132743,"SoundDuration":132743,"Delta":271460906},{"NoteNumber":55,"Velocity":60,"Duration":132743,"SoundDuration":132743,"Delta":271460906},{"NoteNumber":74,"Velocity":82,"Duration":367346,"SoundDuration":367346,"Delta":271593649},{"NoteNumber":53,"Velocity":65,"Duration":367346,"SoundDuration":367346,"Delta":271593649},{"NoteNumber":62,"Velocity":53,"Duration":122448,"SoundDuration":122448,"Delta":271716098},{"NoteNumber":69,"Velocity":59,"Duration":122449,"SoundDuration":122449,"Delta":271838547},{"NoteNumber":72,"Velocity":75,"Duration":122449,"SoundDuration":122449,"Delta":271960996},{"NoteNumber":54,"Velocity":60,"Duration":122449,"SoundDuration":122449,"Delta":271960996},{"NoteNumber":70,"Velocity":82,"Duration":367346,"SoundDuration":367346,"Delta":272083445},{"NoteNumber":57,"Velocity":65,"Duration":367346,"SoundDuration":367346,"Delta":272083445},{"NoteNumber":61,"Velocity":55,"Duration":122449,"SoundDuration":122449,"Delta":272205894},{"NoteNumber":64,"Velocity":59,"Duration":122449,"SoundDuration":122449,"Delta":272328343},{"NoteNumber":69,"Velocity":75,"Duration":133928,"SoundDuration":133928,"Delta":272450792},{"NoteNumber":55,"Velocity":60,"Duration":133928,"SoundDuration":133928,"Delta":272450792},{"NoteNumber":74,"Velocity":82,"Duration":365853,"SoundDuration":365853,"Delta":272584721},{"NoteNumber":53,"Velocity":65,"Duration":365853,"SoundDuration":365853,"Delta":272584721},{"NoteNumber":62,"Velocity":54,"Duration":121951,"SoundDuration":121951,"Delta":272706672},{"NoteNumber":69,"Velocity":59,"Duration":121951,"SoundDuration":121951,"Delta":272828623},{"NoteNumber":72,"Velocity":75,"Duration":121951,"SoundDuration":121951,"Delta":272950575},{"NoteNumber":54,"Velocity":60,"Duration":121951,"SoundDuration":121951,"Delta":272950575},{"NoteNumber":70,"Velocity":82,"Duration":365853,"SoundDuration":365853,"Delta":273072526},{"NoteNumber":57,"Velocity":65,"Duration":365853,"SoundDuration":365853,"Delta":273072526},{"NoteNumber":61,"Velocity":55,"Duration":121951,"SoundDuration":121951,"Delta":273194477},{"NoteNumber":64,"Velocity":59,"Duration":121951,"SoundDuration":121951,"Delta":273316428},{"NoteNumber":69,"Velocity":75,"Duration":132743,"SoundDuration":132743,"Delta":273438380},{"NoteNumber":55,"Velocity":60,"Duration":132743,"SoundDuration":132743,"Delta":273438380},{"NoteNumber":74,"Velocity":82,"Duration":364372,"SoundDuration":364372,"Delta":273571123},{"NoteNumber":53,"Velocity":65,"Duration":364372,"SoundDuration":364372,"Delta":273571123},{"NoteNumber":62,"Velocity":54,"Duration":121457,"SoundDuration":121457,"Delta":273692580},{"NoteNumber":69,"Velocity":59,"Duration":121457,"SoundDuration":121457,"Delta":273814038},{"NoteNumber":72,"Velocity":75,"Duration":121457,"SoundDuration":121457,"Delta":273935495},{"NoteNumber":54,"Velocity":60,"Duration":121457,"SoundDuration":121457,"Delta":273935495},{"NoteNumber":70,"Velocity":82,"Duration":364372,"SoundDuration":364372,"Delta":274056953},{"NoteNumber":55,"Velocity":65,"Duration":364372,"SoundDuration":364372,"Delta":274056953},{"NoteNumber":62,"Velocity":53,"Duration":121457,"SoundDuration":121457,"Delta":274178410},{"NoteNumber":64,"Velocity":59,"Duration":121457,"SoundDuration":121457,"Delta":274299868},{"NoteNumber":67,"Velocity":75,"Duration":121457,"SoundDuration":121457,"Delta":274421325},{"NoteNumber":58,"Velocity":60,"Duration":121457,"SoundDuration":121457,"Delta":274421325},{"NoteNumber":69,"Velocity":82,"Duration":364372,"SoundDuration":364372,"Delta":274542783},{"NoteNumber":57,"Velocity":65,"Duration":364372,"SoundDuration":364372,"Delta":274542783},{"NoteNumber":61,"Velocity":54,"Duration":121457,"SoundDuration":121457,"Delta":274664240},{"NoteNumber":64,"Velocity":59,"Duration":121457,"SoundDuration":121457,"Delta":274785698},{"NoteNumber":69,"Velocity":75,"Duration":169491,"SoundDuration":169491,"Delta":274907155},{"NoteNumber":45,"Velocity":60,"Duration":169491,"SoundDuration":169491,"Delta":274907155},{"NoteNumber":62,"Velocity":82,"Duration":382978,"SoundDuration":382978,"Delta":275076647},{"NoteNumber":50,"Velocity":65,"Duration":382978,"SoundDuration":382978,"Delta":275076647},{"NoteNumber":54,"Velocity":54,"Duration":127659,"SoundDuration":127659,"Delta":275204306},{"NoteNumber":57,"Velocity":59,"Duration":127659,"SoundDuration":127659,"Delta":275331966},{"NoteNumber":60,"Velocity":75,"Duration":127659,"SoundDuration":127659,"Delta":275459625},{"NoteNumber":48,"Velocity":60,"Duration":127659,"SoundDuration":127659,"Delta":275459625},{"NoteNumber":58,"Velocity":82,"Duration":399758,"SoundDuration":399758,"Delta":275587285},{"NoteNumber":46,"Velocity":65,"Duration":399758,"SoundDuration":399758,"Delta":275587285},{"NoteNumber":50,"Velocity":54,"Duration":130434,"SoundDuration":130434,"Delta":275717720},{"NoteNumber":54,"Velocity":59,"Duration":138889,"SoundDuration":138889,"Delta":275848154},{"NoteNumber":57,"Velocity":80,"Duration":184049,"SoundDuration":184049,"Delta":275987043},{"NoteNumber":45,"Velocity":60,"Duration":184049,"SoundDuration":184049,"Delta":275987043},{"NoteNumber":63,"Velocity":65,"Duration":398229,"SoundDuration":398229,"Delta":276171092},{"NoteNumber":43,"Velocity":45,"Duration":1041521,"SoundDuration":1041521,"Delta":276171092},{"NoteNumber":31,"Velocity":31,"Duration":1041521,"SoundDuration":1041521,"Delta":276171092},{"NoteNumber":51,"Velocity":61,"Duration":132743,"SoundDuration":132743,"Delta":276303836},{"NoteNumber":58,"Velocity":70,"Duration":132743,"SoundDuration":132743,"Delta":276436579},{"NoteNumber":62,"Velocity":53,"Duration":132743,"SoundDuration":132743,"Delta":276569322},{"NoteNumber":60,"Velocity":75,"Duration":388380,"SoundDuration":388380,"Delta":276702065},{"NoteNumber":51,"Velocity":47,"Duration":132433,"SoundDuration":132433,"Delta":276834809},{"NoteNumber":57,"Velocity":50,"Duration":123203,"SoundDuration":123203,"Delta":276967242},{"NoteNumber":60,"Velocity":50,"Duration":122167,"SoundDuration":122167,"Delta":277090446},{"NoteNumber":63,"Velocity":58,"Duration":479382,"SoundDuration":479382,"Delta":277212614},{"NoteNumber":33,"Velocity":28,"Duration":360212,"SoundDuration":360212,"Delta":277212614},{"NoteNumber":45,"Velocity":41,"Duration":360212,"SoundDuration":360212,"Delta":277212614},{"NoteNumber":69,"Velocity":50,"Duration":120065,"SoundDuration":120065,"Delta":277333713},{"NoteNumber":72,"Velocity":57,"Duration":119048,"SoundDuration":119048,"Delta":277453778},{"NoteNumber":75,"Velocity":63,"Duration":119169,"SoundDuration":119169,"Delta":277572826},{"NoteNumber":43,"Velocity":38,"Duration":119169,"SoundDuration":119169,"Delta":277572826},{"NoteNumber":31,"Velocity":27,"Duration":119169,"SoundDuration":119169,"Delta":277572826},{"NoteNumber":74,"Velocity":75,"Duration":398229,"SoundDuration":398229,"Delta":277691996},{"NoteNumber":30,"Velocity":31,"Duration":530973,"SoundDuration":530973,"Delta":277691996},{"NoteNumber":42,"Velocity":45,"Duration":530973,"SoundDuration":530973,"Delta":277691996},{"NoteNumber":62,"Velocity":57,"Duration":132743,"SoundDuration":132743,"Delta":277824740},{"NoteNumber":69,"Velocity":64,"Duration":132743,"SoundDuration":132743,"Delta":277957483},{"NoteNumber":72,"Velocity":52,"Duration":132743,"SoundDuration":132743,"Delta":278090226},{"NoteNumber":70,"Velocity":72,"Duration":510227,"SoundDuration":510227,"Delta":278222969},{"NoteNumber":33,"Velocity":31,"Duration":510227,"SoundDuration":510227,"Delta":278222969},{"NoteNumber":45,"Velocity":45,"Duration":510227,"SoundDuration":510227,"Delta":278222969},{"NoteNumber":62,"Velocity":57,"Duration":132416,"SoundDuration":132416,"Delta":278355713},{"NoteNumber":67,"Velocity":65,"Duration":122833,"SoundDuration":122833,"Delta":278488130},{"NoteNumber":70,"Velocity":59,"Duration":122233,"SoundDuration":122233,"Delta":278610963},{"NoteNumber":74,"Velocity":77,"Duration":539511,"SoundDuration":539511,"Delta":278733197},{"NoteNumber":31,"Velocity":25,"Duration":539511,"SoundDuration":539511,"Delta":278733197},{"NoteNumber":43,"Velocity":36,"Duration":539511,"SoundDuration":539511,"Delta":278733197},{"NoteNumber":79,"Velocity":61,"Duration":121033,"SoundDuration":121033,"Delta":278854835},{"NoteNumber":82,"Velocity":73,"Duration":120369,"SoundDuration":120369,"Delta":278975868},{"NoteNumber":86,"Velocity":78,"Duration":176470,"SoundDuration":176470,"Delta":279096238},{"NoteNumber":60,"Velocity":70,"Duration":398229,"SoundDuration":398229,"Delta":279272708},{"NoteNumber":39,"Velocity":45,"Duration":1044171,"SoundDuration":1044171,"Delta":279272708},{"NoteNumber":27,"Velocity":31,"Duration":1044171,"SoundDuration":1044171,"Delta":279272708},{"NoteNumber":48,"Velocity":50,"Duration":132743,"SoundDuration":132743,"Delta":279405452},{"NoteNumber":55,"Velocity":50,"Duration":132743,"SoundDuration":132743,"Delta":279538195},{"NoteNumber":58,"Velocity":61,"Duration":132743,"SoundDuration":132743,"Delta":279670938},{"NoteNumber":57,"Velocity":71,"Duration":389944,"SoundDuration":389944,"Delta":279803681},{"NoteNumber":48,"Velocity":45,"Duration":132743,"SoundDuration":132743,"Delta":279936425},{"NoteNumber":53,"Velocity":45,"Duration":124457,"SoundDuration":124457,"Delta":280069168},{"NoteNumber":57,"Velocity":39,"Duration":123254,"SoundDuration":123254,"Delta":280193625},{"NoteNumber":60,"Velocity":58,"Duration":483778,"SoundDuration":483778,"Delta":280316880},{"NoteNumber":29,"Velocity":28,"Duration":364192,"SoundDuration":364192,"Delta":280316880},{"NoteNumber":41,"Velocity":41,"Duration":364192,"SoundDuration":364192,"Delta":280316880},{"NoteNumber":65,"Velocity":50,"Duration":121392,"SoundDuration":121392,"Delta":280439197},{"NoteNumber":69,"Velocity":57,"Duration":120482,"SoundDuration":120482,"Delta":280560589},{"NoteNumber":72,"Velocity":63,"Duration":119586,"SoundDuration":119586,"Delta":280681072},{"NoteNumber":27,"Velocity":27,"Duration":119586,"SoundDuration":119586,"Delta":280681072},{"NoteNumber":39,"Velocity":38,"Duration":119586,"SoundDuration":119586,"Delta":280681072},{"NoteNumber":70,"Velocity":75,"Duration":398229,"SoundDuration":398229,"Delta":280800659},{"NoteNumber":38,"Velocity":45,"Duration":530973,"SoundDuration":530973,"Delta":280800659},{"NoteNumber":26,"Velocity":31,"Duration":530973,"SoundDuration":530973,"Delta":280800659},{"NoteNumber":58,"Velocity":55,"Duration":132743,"SoundDuration":132743,"Delta":280933402},{"NoteNumber":65,"Velocity":60,"Duration":132743,"SoundDuration":132743,"Delta":281066145},{"NoteNumber":69,"Velocity":65,"Duration":132743,"SoundDuration":132743,"Delta":281198888},{"NoteNumber":67,"Velocity":72,"Duration":508827,"SoundDuration":508827,"Delta":281331632},{"NoteNumber":29,"Velocity":31,"Duration":508827,"SoundDuration":508827,"Delta":281331632},{"NoteNumber":41,"Velocity":45,"Duration":508827,"SoundDuration":508827,"Delta":281331632},{"NoteNumber":58,"Velocity":54,"Duration":130110,"SoundDuration":130110,"Delta":281464375},{"NoteNumber":63,"Velocity":60,"Duration":123457,"SoundDuration":123457,"Delta":281594485},{"NoteNumber":67,"Velocity":55,"Duration":122516,"SoundDuration":122516,"Delta":281717943},{"NoteNumber":70,"Velocity":77,"Duration":538497,"SoundDuration":538497,"Delta":281840460},{"NoteNumber":27,"Velocity":25,"Duration":538497,"SoundDuration":538497,"Delta":281840460},{"NoteNumber":39,"Velocity":36,"Duration":538497,"SoundDuration":538497,"Delta":281840460},{"NoteNumber":75,"Velocity":61,"Duration":120676,"SoundDuration":120676,"Delta":281962049},{"NoteNumber":79,"Velocity":73,"Duration":119760,"SoundDuration":119760,"Delta":282082726},{"NoteNumber":82,"Velocity":78,"Duration":176470,"SoundDuration":176470,"Delta":282202487},{"NoteNumber":57,"Velocity":67,"Duration":389610,"SoundDuration":389610,"Delta":282378957},{"NoteNumber":24,"Velocity":34,"Duration":1025079,"SoundDuration":1025079,"Delta":282378957},{"NoteNumber":36,"Velocity":48,"Duration":1025079,"SoundDuration":1025079,"Delta":282378957},{"NoteNumber":45,"Velocity":45,"Duration":129870,"SoundDuration":129870,"Delta":282508827},{"NoteNumber":51,"Velocity":48,"Duration":129870,"SoundDuration":129870,"Delta":282638698},{"NoteNumber":55,"Velocity":55,"Duration":129870,"SoundDuration":129870,"Delta":282768568},{"NoteNumber":54,"Velocity":68,"Duration":382865,"SoundDuration":382865,"Delta":282898438},{"NoteNumber":45,"Velocity":45,"Duration":129656,"SoundDuration":129656,"Delta":283028308},{"NoteNumber":50,"Velocity":48,"Duration":123338,"SoundDuration":123338,"Delta":283157965},{"NoteNumber":54,"Velocity":42,"Duration":122733,"SoundDuration":122733,"Delta":283281303},{"NoteNumber":57,"Velocity":63,"Duration":502762,"SoundDuration":502762,"Delta":283404037},{"NoteNumber":38,"Velocity":45,"Duration":363614,"SoundDuration":363614,"Delta":283404037},{"NoteNumber":26,"Velocity":30,"Duration":363614,"SoundDuration":363614,"Delta":283404037},{"NoteNumber":62,"Velocity":55,"Duration":121179,"SoundDuration":121179,"Delta":283525988},{"NoteNumber":66,"Velocity":62,"Duration":120482,"SoundDuration":120482,"Delta":283647168},{"NoteNumber":69,"Velocity":70,"Duration":139148,"SoundDuration":139148,"Delta":283767651},{"NoteNumber":40,"Velocity":42,"Duration":139148,"SoundDuration":139148,"Delta":283767651},{"NoteNumber":28,"Velocity":29,"Duration":139148,"SoundDuration":139148,"Delta":283767651},{"NoteNumber":74,"Velocity":73,"Duration":387930,"SoundDuration":387930,"Delta":283906800},{"NoteNumber":30,"Velocity":44,"Duration":517241,"SoundDuration":517241,"Delta":283906800},{"NoteNumber":42,"Velocity":62,"Duration":517241,"SoundDuration":517241,"Delta":283906800},{"NoteNumber":62,"Velocity":62,"Duration":129310,"SoundDuration":129310,"Delta":284036110},{"NoteNumber":69,"Velocity":62,"Duration":129310,"SoundDuration":129310,"Delta":284165420},{"NoteNumber":72,"Velocity":65,"Duration":129310,"SoundDuration":129310,"Delta":284294730},{"NoteNumber":70,"Velocity":73,"Duration":381629,"SoundDuration":381629,"Delta":284424041},{"NoteNumber":33,"Velocity":42,"Duration":503879,"SoundDuration":503879,"Delta":284424041},{"NoteNumber":45,"Velocity":59,"Duration":503879,"SoundDuration":503879,"Delta":284424041},{"NoteNumber":62,"Velocity":56,"Duration":129115,"SoundDuration":129115,"Delta":284553351},{"NoteNumber":67,"Velocity":62,"Duration":123203,"SoundDuration":123203,"Delta":284682466},{"NoteNumber":70,"Velocity":55,"Duration":122250,"SoundDuration":122250,"Delta":284805670},{"NoteNumber":74,"Velocity":77,"Duration":499761,"SoundDuration":499761,"Delta":284927920},{"NoteNumber":43,"Velocity":58,"Duration":361141,"SoundDuration":361141,"Delta":284927920},{"NoteNumber":31,"Velocity":40,"Duration":361141,"SoundDuration":361141,"Delta":284927920},{"NoteNumber":79,"Velocity":71,"Duration":120418,"SoundDuration":120418,"Delta":285049247},{"NoteNumber":82,"Velocity":75,"Duration":119396,"SoundDuration":119396,"Delta":285169665},{"NoteNumber":86,"Velocity":79,"Duration":138619,"SoundDuration":138619,"Delta":285289062},{"NoteNumber":33,"Velocity":38,"Duration":138619,"SoundDuration":138619,"Delta":285289062},{"NoteNumber":45,"Velocity":52,"Duration":138619,"SoundDuration":138619,"Delta":285289062},{"NoteNumber":67,"Velocity":77,"Duration":382978,"SoundDuration":382978,"Delta":285427681},{"NoteNumber":34,"Velocity":39,"Duration":510637,"SoundDuration":510637,"Delta":285427681},{"NoteNumber":46,"Velocity":57,"Duration":510637,"SoundDuration":510637,"Delta":285427681},{"NoteNumber":55,"Velocity":66,"Duration":127659,"SoundDuration":127659,"Delta":285555341},{"NoteNumber":62,"Velocity":69,"Duration":127659,"SoundDuration":127659,"Delta":285683000},{"NoteNumber":65,"Velocity":75,"Duration":127659,"SoundDuration":127659,"Delta":285810660},{"NoteNumber":63,"Velocity":79,"Duration":381373,"SoundDuration":381373,"Delta":285938319},{"NoteNumber":50,"Velocity":65,"Duration":508082,"SoundDuration":508082,"Delta":285938319},{"NoteNumber":38,"Velocity":46,"Duration":508082,"SoundDuration":508082,"Delta":285938319},{"NoteNumber":55,"Velocity":71,"Duration":127659,"SoundDuration":127659,"Delta":286065979},{"NoteNumber":60,"Velocity":76,"Duration":126054,"SoundDuration":126054,"Delta":286193638},{"NoteNumber":63,"Velocity":78,"Duration":126708,"SoundDuration":126708,"Delta":286319693},{"NoteNumber":67,"Velocity":82,"Duration":585649,"SoundDuration":585649,"Delta":286446401},{"NoteNumber":48,"Velocity":48,"Duration":401600,"SoundDuration":401600,"Delta":286446401},{"NoteNumber":36,"Velocity":34,"Duration":401600,"SoundDuration":401600,"Delta":286446401},{"NoteNumber":72,"Velocity":68,"Duration":128885,"SoundDuration":128885,"Delta":286574189},{"NoteNumber":75,"Velocity":71,"Duration":144927,"SoundDuration":144927,"Delta":286703075},{"NoteNumber":79,"Velocity":73,"Duration":138036,"SoundDuration":138036,"Delta":286848002},{"NoteNumber":45,"Velocity":55,"Duration":138036,"SoundDuration":138036,"Delta":286848002},{"NoteNumber":33,"Velocity":39,"Duration":138036,"SoundDuration":138036,"Delta":286848002},{"NoteNumber":78,"Velocity":81,"Duration":555556,"SoundDuration":555556,"Delta":287032051},{"NoteNumber":69,"Velocity":68,"Duration":555556,"SoundDuration":555556,"Delta":287032051},{"NoteNumber":72,"Velocity":68,"Duration":555556,"SoundDuration":555556,"Delta":287032051},{"NoteNumber":50,"Velocity":58,"Duration":555556,"SoundDuration":555556,"Delta":287032051},{"NoteNumber":38,"Velocity":41,"Duration":555556,"SoundDuration":555556,"Delta":287032051},{"NoteNumber":79,"Velocity":84,"Duration":972222,"SoundDuration":972222,"Delta":287587607},{"NoteNumber":70,"Velocity":60,"Duration":972222,"SoundDuration":972222,"Delta":287587607},{"NoteNumber":74,"Velocity":71,"Duration":972222,"SoundDuration":972222,"Delta":287587607},{"NoteNumber":43,"Velocity":66,"Duration":972222,"SoundDuration":972222,"Delta":287587607},{"NoteNumber":31,"Velocity":47,"Duration":972222,"SoundDuration":972222,"Delta":287587607},{"NoteNumber":62,"Velocity":48,"Duration":398229,"SoundDuration":398229,"Delta":288698719},{"NoteNumber":46,"Velocity":36,"Duration":924119,"SoundDuration":924119,"Delta":288698719},{"NoteNumber":34,"Velocity":25,"Duration":924119,"SoundDuration":924119,"Delta":288698719},{"NoteNumber":50,"Velocity":41,"Duration":132743,"SoundDuration":132743,"Delta":288831462},{"NoteNumber":56,"Velocity":48,"Duration":132743,"SoundDuration":132743,"Delta":288964206},{"NoteNumber":60,"Velocity":37,"Duration":132743,"SoundDuration":132743,"Delta":289096949},{"NoteNumber":58,"Velocity":49,"Duration":393146,"SoundDuration":393146,"Delta":289229692},{"NoteNumber":51,"Velocity":41,"Duration":132743,"SoundDuration":132743,"Delta":289362435},{"NoteNumber":56,"Velocity":49,"Duration":127659,"SoundDuration":127659,"Delta":289495179},{"NoteNumber":58,"Velocity":53,"Duration":124864,"SoundDuration":124864,"Delta":289622838},{"NoteNumber":48,"Velocity":31,"Duration":124864,"SoundDuration":124864,"Delta":289622838},{"NoteNumber":36,"Velocity":22,"Duration":124864,"SoundDuration":124864,"Delta":289622838},{"NoteNumber":67,"Velocity":63,"Duration":359687,"SoundDuration":359687,"Delta":289747702},{"NoteNumber":49,"Velocity":42,"Duration":477894,"SoundDuration":477894,"Delta":289747702},{"NoteNumber":37,"Velocity":27,"Duration":477894,"SoundDuration":477894,"Delta":289747702},{"NoteNumber":52,"Velocity":40,"Duration":119858,"SoundDuration":119858,"Delta":289869199},{"NoteNumber":58,"Velocity":46,"Duration":118333,"SoundDuration":118333,"Delta":289989057},{"NoteNumber":67,"Velocity":51,"Duration":118206,"SoundDuration":118206,"Delta":290107390},{"NoteNumber":65,"Velocity":57,"Duration":398229,"SoundDuration":398229,"Delta":290225597},{"NoteNumber":38,"Velocity":25,"Duration":915507,"SoundDuration":915507,"Delta":290225597},{"NoteNumber":50,"Velocity":36,"Duration":915507,"SoundDuration":915507,"Delta":290225597},{"NoteNumber":53,"Velocity":41,"Duration":132743,"SoundDuration":132743,"Delta":290358340},{"NoteNumber":58,"Velocity":52,"Duration":132743,"SoundDuration":132743,"Delta":290491083},{"NoteNumber":63,"Velocity":37,"Duration":132743,"SoundDuration":132743,"Delta":290623827},{"NoteNumber":62,"Velocity":53,"Duration":384534,"SoundDuration":384534,"Delta":290756570},{"NoteNumber":55,"Velocity":41,"Duration":132743,"SoundDuration":132743,"Delta":290889313},{"NoteNumber":58,"Velocity":53,"Duration":119047,"SoundDuration":119047,"Delta":291022056},{"NoteNumber":62,"Velocity":52,"Duration":119951,"SoundDuration":119951,"Delta":291141104},{"NoteNumber":51,"Velocity":31,"Duration":119951,"SoundDuration":119951,"Delta":291141104},{"NoteNumber":39,"Velocity":22,"Duration":119951,"SoundDuration":119951,"Delta":291141104},{"NoteNumber":68,"Velocity":67,"Duration":360553,"SoundDuration":360553,"Delta":291261055},{"NoteNumber":52,"Velocity":43,"Duration":479154,"SoundDuration":479154,"Delta":291261055},{"NoteNumber":40,"Velocity":27,"Duration":479154,"SoundDuration":479154,"Delta":291261055},{"NoteNumber":56,"Velocity":41,"Duration":120204,"SoundDuration":120204,"Delta":291382048},{"NoteNumber":62,"Velocity":47,"Duration":119356,"SoundDuration":119356,"Delta":291502253},{"NoteNumber":68,"Velocity":53,"Duration":118601,"SoundDuration":118601,"Delta":291621609},{"NoteNumber":67,"Velocity":56,"Duration":398229,"SoundDuration":398229,"Delta":291740210},{"NoteNumber":41,"Velocity":26,"Duration":926894,"SoundDuration":926894,"Delta":291740210},{"NoteNumber":53,"Velocity":37,"Duration":926894,"SoundDuration":926894,"Delta":291740210},{"NoteNumber":56,"Velocity":42,"Duration":132743,"SoundDuration":132743,"Delta":291872953},{"NoteNumber":62,"Velocity":53,"Duration":132743,"SoundDuration":132743,"Delta":292005697},{"NoteNumber":65,"Velocity":38,"Duration":132743,"SoundDuration":132743,"Delta":292138440},{"NoteNumber":64,"Velocity":50,"Duration":395921,"SoundDuration":395921,"Delta":292271183},{"NoteNumber":58,"Velocity":46,"Duration":132743,"SoundDuration":132743,"Delta":292403926},{"NoteNumber":61,"Velocity":55,"Duration":130434,"SoundDuration":130434,"Delta":292536670},{"NoteNumber":64,"Velocity":64,"Duration":128896,"SoundDuration":128896,"Delta":292667104},{"NoteNumber":54,"Velocity":32,"Duration":128896,"SoundDuration":128896,"Delta":292667104},{"NoteNumber":42,"Velocity":22,"Duration":128896,"SoundDuration":128896,"Delta":292667104},{"NoteNumber":70,"Velocity":71,"Duration":363935,"SoundDuration":363935,"Delta":292796001},{"NoteNumber":43,"Velocity":28,"Duration":482362,"SoundDuration":482362,"Delta":292796001},{"NoteNumber":55,"Velocity":46,"Duration":482362,"SoundDuration":482362,"Delta":292796001},{"NoteNumber":61,"Velocity":44,"Duration":121299,"SoundDuration":121299,"Delta":292918790},{"NoteNumber":64,"Velocity":50,"Duration":119846,"SoundDuration":119846,"Delta":293040090},{"NoteNumber":70,"Velocity":56,"Duration":118426,"SoundDuration":118426,"Delta":293159936},{"NoteNumber":68,"Velocity":67,"Duration":398229,"SoundDuration":398229,"Delta":293278363},{"NoteNumber":44,"Velocity":27,"Duration":925214,"SoundDuration":925214,"Delta":293278363},{"NoteNumber":56,"Velocity":39,"Duration":925214,"SoundDuration":925214,"Delta":293278363},{"NoteNumber":61,"Velocity":45,"Duration":132743,"SoundDuration":132743,"Delta":293411106},{"NoteNumber":64,"Velocity":47,"Duration":132743,"SoundDuration":132743,"Delta":293543850},{"NoteNumber":67,"Velocity":40,"Duration":132743,"SoundDuration":132743,"Delta":293676593},{"NoteNumber":66,"Velocity":58,"Duration":394241,"SoundDuration":394241,"Delta":293809336},{"NoteNumber":60,"Velocity":49,"Duration":132743,"SoundDuration":132743,"Delta":293942079},{"NoteNumber":63,"Velocity":56,"Duration":128755,"SoundDuration":128755,"Delta":294074823},{"NoteNumber":66,"Velocity":62,"Duration":127879,"SoundDuration":127879,"Delta":294203578},{"NoteNumber":57,"Velocity":34,"Duration":127879,"SoundDuration":127879,"Delta":294203578},{"NoteNumber":45,"Velocity":23,"Duration":127879,"SoundDuration":127879,"Delta":294203578},{"NoteNumber":72,"Velocity":71,"Duration":362860,"SoundDuration":362860,"Delta":294331457},{"NoteNumber":58,"Velocity":49,"Duration":482026,"SoundDuration":482026,"Delta":294331457},{"NoteNumber":46,"Velocity":30,"Duration":482026,"SoundDuration":482026,"Delta":294331457},{"NoteNumber":63,"Velocity":47,"Duration":120992,"SoundDuration":120992,"Delta":294453299},{"NoteNumber":66,"Velocity":54,"Duration":120024,"SoundDuration":120024,"Delta":294574292},{"NoteNumber":72,"Velocity":59,"Duration":119166,"SoundDuration":119166,"Delta":294694317},{"NoteNumber":70,"Velocity":62,"Duration":398229,"SoundDuration":398229,"Delta":294813484},{"NoteNumber":60,"Velocity":41,"Duration":916941,"SoundDuration":916941,"Delta":294813484},{"NoteNumber":48,"Velocity":28,"Duration":916941,"SoundDuration":916941,"Delta":294813484},{"NoteNumber":63,"Velocity":48,"Duration":132743,"SoundDuration":132743,"Delta":294946227},{"NoteNumber":66,"Velocity":56,"Duration":132743,"SoundDuration":132743,"Delta":295078970},{"NoteNumber":69,"Velocity":42,"Duration":132743,"SoundDuration":132743,"Delta":295211714},{"NoteNumber":68,"Velocity":65,"Duration":385968,"SoundDuration":385968,"Delta":295344457},{"NoteNumber":62,"Velocity":50,"Duration":132743,"SoundDuration":132743,"Delta":295477200},{"NoteNumber":65,"Velocity":61,"Duration":120481,"SoundDuration":120481,"Delta":295609943},{"NoteNumber":69,"Velocity":60,"Duration":121177,"SoundDuration":121177,"Delta":295730425},{"NoteNumber":59,"Velocity":35,"Duration":121177,"SoundDuration":121177,"Delta":295730425},{"NoteNumber":47,"Velocity":25,"Duration":121177,"SoundDuration":121177,"Delta":295730425},{"NoteNumber":74,"Velocity":76,"Duration":363407,"SoundDuration":363407,"Delta":295851603},{"NoteNumber":48,"Velocity":34,"Duration":482114,"SoundDuration":482114,"Delta":295851603},{"NoteNumber":60,"Velocity":54,"Duration":482114,"SoundDuration":482114,"Delta":295851603},{"NoteNumber":65,"Velocity":52,"Duration":121103,"SoundDuration":121103,"Delta":295973978},{"NoteNumber":69,"Velocity":60,"Duration":119929,"SoundDuration":119929,"Delta":296095081},{"NoteNumber":74,"Velocity":66,"Duration":118707,"SoundDuration":118707,"Delta":296215011},{"NoteNumber":72,"Velocity":73,"Duration":398229,"SoundDuration":398229,"Delta":296333718},{"NoteNumber":62,"Velocity":45,"Duration":916459,"SoundDuration":916459,"Delta":296333718},{"NoteNumber":50,"Velocity":32,"Duration":916459,"SoundDuration":916459,"Delta":296333718},{"NoteNumber":65,"Velocity":53,"Duration":132743,"SoundDuration":132743,"Delta":296466461},{"NoteNumber":69,"Velocity":57,"Duration":132743,"SoundDuration":132743,"Delta":296599204},{"NoteNumber":71,"Velocity":46,"Duration":132743,"SoundDuration":132743,"Delta":296731948},{"NoteNumber":70,"Velocity":69,"Duration":385486,"SoundDuration":385486,"Delta":296864691},{"NoteNumber":64,"Velocity":58,"Duration":132743,"SoundDuration":132743,"Delta":296997434},{"NoteNumber":67,"Velocity":66,"Duration":120000,"SoundDuration":120000,"Delta":297130177},{"NoteNumber":70,"Velocity":69,"Duration":120000,"SoundDuration":120000,"Delta":297250177},{"NoteNumber":61,"Velocity":39,"Duration":120000,"SoundDuration":120000,"Delta":297250177},{"NoteNumber":49,"Velocity":28,"Duration":120000,"SoundDuration":120000,"Delta":297250177},{"NoteNumber":76,"Velocity":79,"Duration":362511,"SoundDuration":362511,"Delta":297370177},{"NoteNumber":50,"Velocity":37,"Duration":482392,"SoundDuration":482392,"Delta":297370177},{"NoteNumber":62,"Velocity":61,"Duration":482392,"SoundDuration":482392,"Delta":297370177},{"NoteNumber":67,"Velocity":58,"Duration":121384,"SoundDuration":121384,"Delta":297491170},{"NoteNumber":70,"Velocity":67,"Duration":120133,"SoundDuration":120133,"Delta":297612555},{"NoteNumber":76,"Velocity":73,"Duration":119881,"SoundDuration":119881,"Delta":297732689},{"NoteNumber":74,"Velocity":69,"Duration":398229,"SoundDuration":398229,"Delta":297852570},{"NoteNumber":52,"Velocity":35,"Duration":922496,"SoundDuration":922496,"Delta":297852570},{"NoteNumber":64,"Velocity":50,"Duration":922496,"SoundDuration":922496,"Delta":297852570},{"NoteNumber":67,"Velocity":59,"Duration":132743,"SoundDuration":132743,"Delta":297985313},{"NoteNumber":70,"Velocity":70,"Duration":132743,"SoundDuration":132743,"Delta":298118056},{"NoteNumber":73,"Velocity":51,"Duration":132743,"SoundDuration":132743,"Delta":298250800},{"NoteNumber":74,"Velocity":73,"Duration":391523,"SoundDuration":391523,"Delta":298383543},{"NoteNumber":65,"Velocity":62,"Duration":132743,"SoundDuration":132743,"Delta":298516286},{"NoteNumber":69,"Velocity":68,"Duration":126037,"SoundDuration":126037,"Delta":298649029},{"NoteNumber":74,"Velocity":73,"Duration":125400,"SoundDuration":125400,"Delta":298775067},{"NoteNumber":53,"Velocity":44,"Duration":125400,"SoundDuration":125400,"Delta":298775067},{"NoteNumber":70,"Velocity":82,"Duration":372455,"SoundDuration":372455,"Delta":298900468},{"NoteNumber":55,"Velocity":62,"Duration":495289,"SoundDuration":495289,"Delta":298900468},{"NoteNumber":62,"Velocity":59,"Duration":124155,"SoundDuration":124155,"Delta":299025243},{"NoteNumber":67,"Velocity":68,"Duration":123524,"SoundDuration":123524,"Delta":299149399},{"NoteNumber":70,"Velocity":75,"Duration":122833,"SoundDuration":122833,"Delta":299272923},{"NoteNumber":69,"Velocity":82,"Duration":367346,"SoundDuration":367346,"Delta":299395757},{"NoteNumber":57,"Velocity":65,"Duration":367346,"SoundDuration":367346,"Delta":299395757},{"NoteNumber":61,"Velocity":55,"Duration":122449,"SoundDuration":122449,"Delta":299518206},{"NoteNumber":64,"Velocity":59,"Duration":122449,"SoundDuration":122449,"Delta":299640655},{"NoteNumber":69,"Velocity":75,"Duration":132743,"SoundDuration":132743,"Delta":299763104},{"NoteNumber":55,"Velocity":60,"Duration":132743,"SoundDuration":132743,"Delta":299763104},{"NoteNumber":74,"Velocity":82,"Duration":367346,"SoundDuration":367346,"Delta":299895847},{"NoteNumber":53,"Velocity":65,"Duration":367346,"SoundDuration":367346,"Delta":299895847},{"NoteNumber":62,"Velocity":53,"Duration":122448,"SoundDuration":122448,"Delta":300018296},{"NoteNumber":69,"Velocity":59,"Duration":122449,"SoundDuration":122449,"Delta":300140745},{"NoteNumber":72,"Velocity":75,"Duration":122449,"SoundDuration":122449,"Delta":300263194},{"NoteNumber":54,"Velocity":60,"Duration":122449,"SoundDuration":122449,"Delta":300263194},{"NoteNumber":70,"Velocity":82,"Duration":367346,"SoundDuration":367346,"Delta":300385643},{"NoteNumber":57,"Velocity":65,"Duration":367346,"SoundDuration":367346,"Delta":300385643},{"NoteNumber":61,"Velocity":55,"Duration":122449,"SoundDuration":122449,"Delta":300508092},{"NoteNumber":64,"Velocity":59,"Duration":122449,"SoundDuration":122449,"Delta":300630541},{"NoteNumber":69,"Velocity":75,"Duration":133928,"SoundDuration":133928,"Delta":300752990},{"NoteNumber":55,"Velocity":60,"Duration":133928,"SoundDuration":133928,"Delta":300752990},{"NoteNumber":74,"Velocity":82,"Duration":365853,"SoundDuration":365853,"Delta":300886919},{"NoteNumber":53,"Velocity":65,"Duration":365853,"SoundDuration":365853,"Delta":300886919},{"NoteNumber":62,"Velocity":53,"Duration":121951,"SoundDuration":121951,"Delta":301008870},{"NoteNumber":69,"Velocity":59,"Duration":121951,"SoundDuration":121951,"Delta":301130821},{"NoteNumber":72,"Velocity":75,"Duration":121951,"SoundDuration":121951,"Delta":301252773},{"NoteNumber":54,"Velocity":60,"Duration":121951,"SoundDuration":121951,"Delta":301252773},{"NoteNumber":70,"Velocity":82,"Duration":365853,"SoundDuration":365853,"Delta":301374724},{"NoteNumber":57,"Velocity":65,"Duration":365853,"SoundDuration":365853,"Delta":301374724},{"NoteNumber":61,"Velocity":54,"Duration":121951,"SoundDuration":121951,"Delta":301496675},{"NoteNumber":64,"Velocity":59,"Duration":121951,"SoundDuration":121951,"Delta":301618626},{"NoteNumber":69,"Velocity":75,"Duration":132743,"SoundDuration":132743,"Delta":301740578},{"NoteNumber":55,"Velocity":60,"Duration":132743,"SoundDuration":132743,"Delta":301740578},{"NoteNumber":74,"Velocity":82,"Duration":364372,"SoundDuration":364372,"Delta":301873321},{"NoteNumber":53,"Velocity":65,"Duration":364372,"SoundDuration":364372,"Delta":301873321},{"NoteNumber":62,"Velocity":53,"Duration":121457,"SoundDuration":121457,"Delta":301994778},{"NoteNumber":69,"Velocity":59,"Duration":121457,"SoundDuration":121457,"Delta":302116236},{"NoteNumber":72,"Velocity":75,"Duration":121457,"SoundDuration":121457,"Delta":302237693},{"NoteNumber":54,"Velocity":60,"Duration":121457,"SoundDuration":121457,"Delta":302237693},{"NoteNumber":70,"Velocity":82,"Duration":364372,"SoundDuration":364372,"Delta":302359151},{"NoteNumber":55,"Velocity":65,"Duration":364372,"SoundDuration":364372,"Delta":302359151},{"NoteNumber":62,"Velocity":54,"Duration":121457,"SoundDuration":121457,"Delta":302480608},{"NoteNumber":64,"Velocity":59,"Duration":121457,"SoundDuration":121457,"Delta":302602066},{"NoteNumber":67,"Velocity":75,"Duration":121457,"SoundDuration":121457,"Delta":302723523},{"NoteNumber":58,"Velocity":60,"Duration":121457,"SoundDuration":121457,"Delta":302723523},{"NoteNumber":69,"Velocity":82,"Duration":364372,"SoundDuration":364372,"Delta":302844981},{"NoteNumber":57,"Velocity":65,"Duration":364372,"SoundDuration":364372,"Delta":302844981},{"NoteNumber":61,"Velocity":54,"Duration":121457,"SoundDuration":121457,"Delta":302966438},{"NoteNumber":64,"Velocity":59,"Duration":121457,"SoundDuration":121457,"Delta":303087896},{"NoteNumber":69,"Velocity":75,"Duration":169491,"SoundDuration":169491,"Delta":303209353},{"NoteNumber":45,"Velocity":60,"Duration":169491,"SoundDuration":169491,"Delta":303209353},{"NoteNumber":62,"Velocity":82,"Duration":382978,"SoundDuration":382978,"Delta":303378845},{"NoteNumber":50,"Velocity":65,"Duration":382978,"SoundDuration":382978,"Delta":303378845},{"NoteNumber":54,"Velocity":56,"Duration":127659,"SoundDuration":127659,"Delta":303506504},{"NoteNumber":57,"Velocity":59,"Duration":127659,"SoundDuration":127659,"Delta":303634164},{"NoteNumber":60,"Velocity":75,"Duration":127659,"SoundDuration":127659,"Delta":303761823},{"NoteNumber":48,"Velocity":60,"Duration":127659,"SoundDuration":127659,"Delta":303761823},{"NoteNumber":58,"Velocity":82,"Duration":399758,"SoundDuration":399758,"Delta":303889483},{"NoteNumber":46,"Velocity":65,"Duration":399758,"SoundDuration":399758,"Delta":303889483},{"NoteNumber":50,"Velocity":54,"Duration":130434,"SoundDuration":130434,"Delta":304019918},{"NoteNumber":54,"Velocity":59,"Duration":138889,"SoundDuration":138889,"Delta":304150352},{"NoteNumber":57,"Velocity":80,"Duration":184049,"SoundDuration":184049,"Delta":304289241},{"NoteNumber":45,"Velocity":60,"Duration":184049,"SoundDuration":184049,"Delta":304289241},{"NoteNumber":63,"Velocity":65,"Duration":398229,"SoundDuration":398229,"Delta":304473290},{"NoteNumber":31,"Velocity":31,"Duration":1038577,"SoundDuration":1038577,"Delta":304473290},{"NoteNumber":43,"Velocity":45,"Duration":1038577,"SoundDuration":1038577,"Delta":304473290},{"NoteNumber":51,"Velocity":61,"Duration":132743,"SoundDuration":132743,"Delta":304606034},{"NoteNumber":58,"Velocity":70,"Duration":132743,"SoundDuration":132743,"Delta":304738777},{"NoteNumber":62,"Velocity":53,"Duration":132743,"SoundDuration":132743,"Delta":304871520},{"NoteNumber":60,"Velocity":75,"Duration":386831,"SoundDuration":386831,"Delta":305004263},{"NoteNumber":51,"Velocity":47,"Duration":132383,"SoundDuration":132383,"Delta":305137007},{"NoteNumber":57,"Velocity":50,"Duration":121704,"SoundDuration":121704,"Delta":305269390},{"NoteNumber":60,"Velocity":42,"Duration":120773,"SoundDuration":120773,"Delta":305391095},{"NoteNumber":63,"Velocity":58,"Duration":475431,"SoundDuration":475431,"Delta":305511868},{"NoteNumber":45,"Velocity":41,"Duration":356969,"SoundDuration":356969,"Delta":305511868},{"NoteNumber":33,"Velocity":28,"Duration":356969,"SoundDuration":356969,"Delta":305511868},{"NoteNumber":69,"Velocity":50,"Duration":118985,"SoundDuration":118985,"Delta":305631741},{"NoteNumber":72,"Velocity":57,"Duration":118111,"SoundDuration":118111,"Delta":305750727},{"NoteNumber":75,"Velocity":63,"Duration":118461,"SoundDuration":118461,"Delta":305868838},{"NoteNumber":31,"Velocity":27,"Duration":118461,"SoundDuration":118461,"Delta":305868838},{"NoteNumber":43,"Velocity":38,"Duration":118461,"SoundDuration":118461,"Delta":305868838},{"NoteNumber":74,"Velocity":75,"Duration":398229,"SoundDuration":398229,"Delta":305987299},{"NoteNumber":42,"Velocity":45,"Duration":530973,"SoundDuration":530973,"Delta":305987299},{"NoteNumber":30,"Velocity":31,"Duration":530973,"SoundDuration":530973,"Delta":305987299},{"NoteNumber":62,"Velocity":57,"Duration":132743,"SoundDuration":132743,"Delta":306120043},{"NoteNumber":69,"Velocity":65,"Duration":132743,"SoundDuration":132743,"Delta":306252786},{"NoteNumber":72,"Velocity":57,"Duration":132743,"SoundDuration":132743,"Delta":306385529},{"NoteNumber":70,"Velocity":72,"Duration":510150,"SoundDuration":510150,"Delta":306518272},{"NoteNumber":33,"Velocity":31,"Duration":510150,"SoundDuration":510150,"Delta":306518272},{"NoteNumber":45,"Velocity":45,"Duration":510150,"SoundDuration":510150,"Delta":306518272},{"NoteNumber":62,"Velocity":57,"Duration":132433,"SoundDuration":132433,"Delta":306651016},{"NoteNumber":67,"Velocity":65,"Duration":123086,"SoundDuration":123086,"Delta":306783449},{"NoteNumber":70,"Velocity":65,"Duration":121886,"SoundDuration":121886,"Delta":306906536},{"NoteNumber":74,"Velocity":77,"Duration":534810,"SoundDuration":534810,"Delta":307028423},{"NoteNumber":43,"Velocity":36,"Duration":534810,"SoundDuration":534810,"Delta":307028423},{"NoteNumber":31,"Velocity":25,"Duration":534810,"SoundDuration":534810,"Delta":307028423},{"NoteNumber":79,"Velocity":61,"Duration":119443,"SoundDuration":119443,"Delta":307149084},{"NoteNumber":82,"Velocity":73,"Duration":118235,"SoundDuration":118235,"Delta":307268527},{"NoteNumber":86,"Velocity":78,"Duration":176470,"SoundDuration":176470,"Delta":307386763},{"NoteNumber":60,"Velocity":70,"Duration":398229,"SoundDuration":398229,"Delta":307563233},{"NoteNumber":27,"Velocity":31,"Duration":1039973,"SoundDuration":1039973,"Delta":307563233},{"NoteNumber":39,"Velocity":45,"Duration":1039973,"SoundDuration":1039973,"Delta":307563233},{"NoteNumber":48,"Velocity":50,"Duration":132743,"SoundDuration":132743,"Delta":307695976},{"NoteNumber":55,"Velocity":43,"Duration":132743,"SoundDuration":132743,"Delta":307828720},{"NoteNumber":58,"Velocity":61,"Duration":132743,"SoundDuration":132743,"Delta":307961463},{"NoteNumber":57,"Velocity":71,"Duration":387476,"SoundDuration":387476,"Delta":308094206},{"NoteNumber":48,"Velocity":40,"Duration":132400,"SoundDuration":132400,"Delta":308226949},{"NoteNumber":53,"Velocity":45,"Duration":122332,"SoundDuration":122332,"Delta":308359350},{"NoteNumber":57,"Velocity":45,"Duration":121524,"SoundDuration":121524,"Delta":308481682},{"NoteNumber":60,"Velocity":58,"Duration":477690,"SoundDuration":477690,"Delta":308603206},{"NoteNumber":41,"Velocity":41,"Duration":359516,"SoundDuration":359516,"Delta":308603206},{"NoteNumber":29,"Velocity":28,"Duration":359516,"SoundDuration":359516,"Delta":308603206},{"NoteNumber":65,"Velocity":50,"Duration":119856,"SoundDuration":119856,"Delta":308723818},{"NoteNumber":69,"Velocity":57,"Duration":119048,"SoundDuration":119048,"Delta":308843675},{"NoteNumber":72,"Velocity":63,"Duration":118173,"SoundDuration":118173,"Delta":308962723},{"NoteNumber":39,"Velocity":38,"Duration":118173,"SoundDuration":118173,"Delta":308962723},{"NoteNumber":27,"Velocity":27,"Duration":118173,"SoundDuration":118173,"Delta":308962723},{"NoteNumber":70,"Velocity":75,"Duration":398229,"SoundDuration":398229,"Delta":309080896},{"NoteNumber":38,"Velocity":45,"Duration":530973,"SoundDuration":530973,"Delta":309080896},{"NoteNumber":26,"Velocity":31,"Duration":530973,"SoundDuration":530973,"Delta":309080896},{"NoteNumber":58,"Velocity":55,"Duration":132743,"SoundDuration":132743,"Delta":309213640},{"NoteNumber":65,"Velocity":60,"Duration":132743,"SoundDuration":132743,"Delta":309346383},{"NoteNumber":69,"Velocity":65,"Duration":132743,"SoundDuration":132743,"Delta":309479126},{"NoteNumber":67,"Velocity":72,"Duration":504986,"SoundDuration":504986,"Delta":309611869},{"NoteNumber":41,"Velocity":45,"Duration":504986,"SoundDuration":504986,"Delta":309611869},{"NoteNumber":29,"Velocity":31,"Duration":504986,"SoundDuration":504986,"Delta":309611869},{"NoteNumber":58,"Velocity":55,"Duration":129505,"SoundDuration":129505,"Delta":309744613},{"NoteNumber":63,"Velocity":60,"Duration":121704,"SoundDuration":121704,"Delta":309874118},{"NoteNumber":67,"Velocity":53,"Duration":121033,"SoundDuration":121033,"Delta":309995823},{"NoteNumber":70,"Velocity":77,"Duration":535173,"SoundDuration":535173,"Delta":310116856},{"NoteNumber":27,"Velocity":25,"Duration":535173,"SoundDuration":535173,"Delta":310116856},{"NoteNumber":39,"Velocity":36,"Duration":535173,"SoundDuration":535173,"Delta":310116856},{"NoteNumber":75,"Velocity":61,"Duration":119585,"SoundDuration":119585,"Delta":310237162},{"NoteNumber":79,"Velocity":73,"Duration":118812,"SoundDuration":118812,"Delta":310356748},{"NoteNumber":82,"Velocity":78,"Duration":176470,"SoundDuration":176470,"Delta":310475560},{"NoteNumber":57,"Velocity":67,"Duration":389610,"SoundDuration":389610,"Delta":310652030},{"NoteNumber":24,"Velocity":34,"Duration":1024057,"SoundDuration":1024057,"Delta":310652030},{"NoteNumber":36,"Velocity":48,"Duration":1024057,"SoundDuration":1024057,"Delta":310652030},{"NoteNumber":45,"Velocity":48,"Duration":129870,"SoundDuration":129870,"Delta":310781901},{"NoteNumber":51,"Velocity":48,"Duration":129870,"SoundDuration":129870,"Delta":310911771},{"NoteNumber":55,"Velocity":55,"Duration":129870,"SoundDuration":129870,"Delta":311041641},{"NoteNumber":54,"Velocity":68,"Duration":382343,"SoundDuration":382343,"Delta":311171511},{"NoteNumber":45,"Velocity":44,"Duration":129639,"SoundDuration":129639,"Delta":311301382},{"NoteNumber":50,"Velocity":48,"Duration":122833,"SoundDuration":122833,"Delta":311431021},{"NoteNumber":54,"Velocity":44,"Duration":122233,"SoundDuration":122233,"Delta":311553855},{"NoteNumber":57,"Velocity":63,"Duration":482873,"SoundDuration":482873,"Delta":311676088},{"NoteNumber":38,"Velocity":45,"Duration":362652,"SoundDuration":362652,"Delta":311676088},{"NoteNumber":26,"Velocity":30,"Duration":362652,"SoundDuration":362652,"Delta":311676088},{"NoteNumber":62,"Velocity":55,"Duration":120822,"SoundDuration":120822,"Delta":311797678},{"NoteNumber":66,"Velocity":62,"Duration":120241,"SoundDuration":120241,"Delta":311918500},{"NoteNumber":69,"Velocity":70,"Duration":120220,"SoundDuration":120220,"Delta":312038741},{"NoteNumber":40,"Velocity":42,"Duration":120220,"SoundDuration":120220,"Delta":312038741},{"NoteNumber":28,"Velocity":29,"Duration":120220,"SoundDuration":120220,"Delta":312038741},{"NoteNumber":74,"Velocity":73,"Duration":387930,"SoundDuration":387930,"Delta":312158962},{"NoteNumber":30,"Velocity":44,"Duration":517241,"SoundDuration":517241,"Delta":312158962},{"NoteNumber":42,"Velocity":62,"Duration":517241,"SoundDuration":517241,"Delta":312158962},{"NoteNumber":62,"Velocity":57,"Duration":129310,"SoundDuration":129310,"Delta":312288272},{"NoteNumber":69,"Velocity":62,"Duration":129310,"SoundDuration":129310,"Delta":312417582},{"NoteNumber":72,"Velocity":65,"Duration":129310,"SoundDuration":129310,"Delta":312546892},{"NoteNumber":70,"Velocity":73,"Duration":381914,"SoundDuration":381914,"Delta":312676203},{"NoteNumber":45,"Velocity":59,"Duration":503799,"SoundDuration":503799,"Delta":312676203},{"NoteNumber":33,"Velocity":42,"Duration":503799,"SoundDuration":503799,"Delta":312676203},{"NoteNumber":62,"Velocity":58,"Duration":129310,"SoundDuration":129310,"Delta":312805513},{"NoteNumber":67,"Velocity":62,"Duration":123293,"SoundDuration":123293,"Delta":312934823},{"NoteNumber":70,"Velocity":56,"Duration":121885,"SoundDuration":121885,"Delta":313058117},{"NoteNumber":74,"Velocity":77,"Duration":482303,"SoundDuration":482303,"Delta":313180002},{"NoteNumber":31,"Velocity":40,"Duration":362082,"SoundDuration":362082,"Delta":313180002},{"NoteNumber":43,"Velocity":58,"Duration":362082,"SoundDuration":362082,"Delta":313180002},{"NoteNumber":79,"Velocity":71,"Duration":120692,"SoundDuration":120692,"Delta":313301280},{"NoteNumber":82,"Velocity":75,"Duration":120112,"SoundDuration":120112,"Delta":313421973},{"NoteNumber":86,"Velocity":79,"Duration":120220,"SoundDuration":120220,"Delta":313542085},{"NoteNumber":45,"Velocity":52,"Duration":120220,"SoundDuration":120220,"Delta":313542085},{"NoteNumber":33,"Velocity":38,"Duration":120220,"SoundDuration":120220,"Delta":313542085},{"NoteNumber":67,"Velocity":77,"Duration":382978,"SoundDuration":382978,"Delta":313662306},{"NoteNumber":46,"Velocity":57,"Duration":510637,"SoundDuration":510637,"Delta":313662306},{"NoteNumber":34,"Velocity":39,"Duration":510637,"SoundDuration":510637,"Delta":313662306},{"NoteNumber":55,"Velocity":66,"Duration":127659,"SoundDuration":127659,"Delta":313789966},{"NoteNumber":62,"Velocity":69,"Duration":127659,"SoundDuration":127659,"Delta":313917625},{"NoteNumber":65,"Velocity":75,"Duration":127659,"SoundDuration":127659,"Delta":314045285},{"NoteNumber":63,"Velocity":79,"Duration":381373,"SoundDuration":381373,"Delta":314172944},{"NoteNumber":38,"Velocity":46,"Duration":508082,"SoundDuration":508082,"Delta":314172944},{"NoteNumber":50,"Velocity":65,"Duration":508082,"SoundDuration":508082,"Delta":314172944},{"NoteNumber":55,"Velocity":71,"Duration":127659,"SoundDuration":127659,"Delta":314300604},{"NoteNumber":60,"Velocity":76,"Duration":126054,"SoundDuration":126054,"Delta":314428263},{"NoteNumber":63,"Velocity":78,"Duration":126708,"SoundDuration":126708,"Delta":314554318},{"NoteNumber":67,"Velocity":82,"Duration":585649,"SoundDuration":585649,"Delta":314681026},{"NoteNumber":36,"Velocity":34,"Duration":401600,"SoundDuration":401600,"Delta":314681026},{"NoteNumber":48,"Velocity":48,"Duration":401600,"SoundDuration":401600,"Delta":314681026},{"NoteNumber":72,"Velocity":68,"Duration":128885,"SoundDuration":128885,"Delta":314808814},{"NoteNumber":75,"Velocity":71,"Duration":144927,"SoundDuration":144927,"Delta":314937700},{"NoteNumber":79,"Velocity":73,"Duration":138036,"SoundDuration":138036,"Delta":315082627},{"NoteNumber":45,"Velocity":55,"Duration":138036,"SoundDuration":138036,"Delta":315082627},{"NoteNumber":33,"Velocity":39,"Duration":138036,"SoundDuration":138036,"Delta":315082627},{"NoteNumber":78,"Velocity":81,"Duration":555556,"SoundDuration":555556,"Delta":315266676},{"NoteNumber":69,"Velocity":68,"Duration":555556,"SoundDuration":555556,"Delta":315266676},{"NoteNumber":72,"Velocity":68,"Duration":555556,"SoundDuration":555556,"Delta":315266676},{"NoteNumber":50,"Velocity":58,"Duration":555556,"SoundDuration":555556,"Delta":315266676},{"NoteNumber":38,"Velocity":41,"Duration":555556,"SoundDuration":555556,"Delta":315266676},{"NoteNumber":74,"Velocity":71,"Duration":1137080,"SoundDuration":1137080,"Delta":315822232},{"NoteNumber":70,"Velocity":60,"Duration":1137080,"SoundDuration":1137080,"Delta":315822232},{"NoteNumber":79,"Velocity":84,"Duration":1137080,"SoundDuration":1137080,"Delta":315822232},{"NoteNumber":31,"Velocity":47,"Duration":1137080,"SoundDuration":1137080,"Delta":315822232},{"NoteNumber":43,"Velocity":66,"Duration":1137080,"SoundDuration":1137080,"Delta":315822232},{"NoteNumber":67,"Velocity":50,"Duration":1534004,"SoundDuration":1534004,"Delta":317191871},{"NoteNumber":58,"Velocity":42,"Duration":1534004,"SoundDuration":1534004,"Delta":317191871},{"NoteNumber":61,"Velocity":47,"Duration":376600,"SoundDuration":376600,"Delta":317191871},{"NoteNumber":55,"Velocity":34,"Duration":1534004,"SoundDuration":1534004,"Delta":317191871},{"NoteNumber":51,"Velocity":40,"Duration":376600,"SoundDuration":376600,"Delta":317191871},{"NoteNumber":62,"Velocity":47,"Duration":376600,"SoundDuration":376600,"Delta":317568472},{"NoteNumber":50,"Velocity":31,"Duration":376600,"SoundDuration":376600,"Delta":317568472},{"NoteNumber":63,"Velocity":50,"Duration":376600,"SoundDuration":376600,"Delta":317945072},{"NoteNumber":49,"Velocity":38,"Duration":780803,"SoundDuration":780803,"Delta":317945072},{"NoteNumber":64,"Velocity":45,"Duration":404203,"SoundDuration":404203,"Delta":318321673},{"NoteNumber":65,"Velocity":51,"Duration":376600,"SoundDuration":376600,"Delta":318725876},{"NoteNumber":61,"Velocity":39,"Duration":765251,"SoundDuration":765251,"Delta":318725876},{"NoteNumber":57,"Velocity":47,"Duration":376600,"SoundDuration":376600,"Delta":318725876},{"NoteNumber":45,"Velocity":39,"Duration":765251,"SoundDuration":765251,"Delta":318725876},{"NoteNumber":55,"Velocity":44,"Duration":388651,"SoundDuration":388651,"Delta":319102477},{"NoteNumber":64,"Velocity":48,"Duration":388651,"SoundDuration":388651,"Delta":319102477},{"NoteNumber":53,"Velocity":48,"Duration":376600,"SoundDuration":376600,"Delta":319491128},{"NoteNumber":62,"Velocity":52,"Duration":376600,"SoundDuration":376600,"Delta":319491128},{"NoteNumber":46,"Velocity":43,"Duration":376600,"SoundDuration":376600,"Delta":319491128},{"NoteNumber":52,"Velocity":43,"Duration":753200,"SoundDuration":753200,"Delta":319867729},{"NoteNumber":64,"Velocity":47,"Duration":376600,"SoundDuration":376600,"Delta":319867729},{"NoteNumber":43,"Velocity":38,"Duration":376600,"SoundDuration":376600,"Delta":319867729},{"NoteNumber":61,"Velocity":53,"Duration":376600,"SoundDuration":376600,"Delta":320244329},{"NoteNumber":45,"Velocity":44,"Duration":376600,"SoundDuration":376600,"Delta":320244329},{"NoteNumber":62,"Velocity":44,"Duration":376600,"SoundDuration":376600,"Delta":320620930},{"NoteNumber":50,"Velocity":40,"Duration":1129801,"SoundDuration":1129801,"Delta":320620930},{"NoteNumber":41,"Velocity":36,"Duration":376600,"SoundDuration":376600,"Delta":320620930},{"NoteNumber":58,"Velocity":50,"Duration":2292670,"SoundDuration":2292670,"Delta":320997530},{"NoteNumber":43,"Velocity":42,"Duration":376600,"SoundDuration":376600,"Delta":320997530},{"NoteNumber":41,"Velocity":36,"Duration":376600,"SoundDuration":376600,"Delta":321374131},{"NoteNumber":49,"Velocity":45,"Duration":376600,"SoundDuration":376600,"Delta":321750731},{"NoteNumber":40,"Velocity":37,"Duration":376600,"SoundDuration":376600,"Delta":321750731},{"NoteNumber":50,"Velocity":41,"Duration":376600,"SoundDuration":376600,"Delta":322127332},{"NoteNumber":38,"Velocity":32,"Duration":376600,"SoundDuration":376600,"Delta":322127332},{"NoteNumber":51,"Velocity":48,"Duration":376600,"SoundDuration":376600,"Delta":322503932},{"NoteNumber":36,"Velocity":44,"Duration":786268,"SoundDuration":786268,"Delta":322503932},{"NoteNumber":52,"Velocity":39,"Duration":409668,"SoundDuration":409668,"Delta":322880533},{"NoteNumber":57,"Velocity":50,"Duration":1210098,"SoundDuration":1210098,"Delta":323290201},{"NoteNumber":37,"Velocity":40,"Duration":786369,"SoundDuration":786369,"Delta":323290201},{"NoteNumber":55,"Velocity":44,"Duration":393184,"SoundDuration":393184,"Delta":323683386},{"NoteNumber":50,"Velocity":39,"Duration":1237671,"SoundDuration":1237671,"Delta":324076571},{"NoteNumber":53,"Velocity":51,"Duration":423728,"SoundDuration":423728,"Delta":324076571},{"NoteNumber":38,"Velocity":38,"Duration":423728,"SoundDuration":423728,"Delta":324076571},{"NoteNumber":55,"Velocity":37,"Duration":813942,"SoundDuration":813942,"Delta":324500300},{"NoteNumber":31,"Velocity":32,"Duration":393185,"SoundDuration":393185,"Delta":324500300},{"NoteNumber":52,"Velocity":36,"Duration":420757,"SoundDuration":420757,"Delta":324893485},{"NoteNumber":33,"Velocity":40,"Duration":841515,"SoundDuration":841515,"Delta":324893485},{"NoteNumber":53,"Velocity":47,"Duration":420757,"SoundDuration":420757,"Delta":325314242},{"NoteNumber":49,"Velocity":36,"Duration":420757,"SoundDuration":420757,"Delta":325314242},{"NoteNumber":50,"Velocity":39,"Duration":940439,"SoundDuration":940439,"Delta":325735000},{"NoteNumber":26,"Velocity":31,"Duration":940439,"SoundDuration":940439,"Delta":325735000},{"NoteNumber":38,"Velocity":37,"Duration":940439,"SoundDuration":940439,"Delta":325735000},{"NoteNumber":61,"Velocity":44,"Duration":376600,"SoundDuration":376600,"Delta":326675439},{"NoteNumber":58,"Velocity":42,"Duration":1534004,"SoundDuration":1534004,"Delta":326675439},{"NoteNumber":67,"Velocity":50,"Duration":1534004,"SoundDuration":1534004,"Delta":326675439},{"NoteNumber":75,"Velocity":50,"Duration":376600,"SoundDuration":376600,"Delta":326675439},{"NoteNumber":62,"Velocity":43,"Duration":376600,"SoundDuration":376600,"Delta":327052039},{"NoteNumber":74,"Velocity":38,"Duration":376600,"SoundDuration":376600,"Delta":327052039},{"NoteNumber":63,"Velocity":46,"Duration":376600,"SoundDuration":376600,"Delta":327428640},{"NoteNumber":73,"Velocity":47,"Duration":780803,"SoundDuration":780803,"Delta":327428640},{"NoteNumber":64,"Velocity":41,"Duration":404203,"SoundDuration":404203,"Delta":327805240},{"NoteNumber":65,"Velocity":47,"Duration":376600,"SoundDuration":376600,"Delta":328209444},{"NoteNumber":61,"Velocity":39,"Duration":765251,"SoundDuration":765251,"Delta":328209444},{"NoteNumber":57,"Velocity":47,"Duration":376600,"SoundDuration":376600,"Delta":328209444},{"NoteNumber":69,"Velocity":48,"Duration":765251,"SoundDuration":765251,"Delta":328209444},{"NoteNumber":55,"Velocity":44,"Duration":388651,"SoundDuration":388651,"Delta":328586044},{"NoteNumber":64,"Velocity":44,"Duration":388651,"SoundDuration":388651,"Delta":328586044},{"NoteNumber":53,"Velocity":48,"Duration":365853,"SoundDuration":365853,"Delta":328974696},{"NoteNumber":62,"Velocity":48,"Duration":365853,"SoundDuration":365853,"Delta":328974696},{"NoteNumber":70,"Velocity":53,"Duration":365853,"SoundDuration":365853,"Delta":328974696},{"NoteNumber":64,"Velocity":43,"Duration":375000,"SoundDuration":375000,"Delta":329340549},{"NoteNumber":55,"Velocity":36,"Duration":375000,"SoundDuration":375000,"Delta":329340549},{"NoteNumber":67,"Velocity":47,"Duration":375000,"SoundDuration":375000,"Delta":329340549},{"NoteNumber":61,"Velocity":49,"Duration":365853,"SoundDuration":365853,"Delta":329715549},{"NoteNumber":52,"Velocity":43,"Duration":365853,"SoundDuration":365853,"Delta":329715549},{"NoteNumber":69,"Velocity":55,"Duration":365853,"SoundDuration":365853,"Delta":329715549},{"NoteNumber":53,"Velocity":43,"Duration":379747,"SoundDuration":379747,"Delta":330081403},{"NoteNumber":62,"Velocity":40,"Duration":379747,"SoundDuration":379747,"Delta":330081403},{"NoteNumber":65,"Velocity":45,"Duration":379747,"SoundDuration":379747,"Delta":330081403},{"NoteNumber":50,"Velocity":40,"Duration":753669,"SoundDuration":753669,"Delta":330461150},{"NoteNumber":58,"Velocity":50,"Duration":2293202,"SoundDuration":2293202,"Delta":330461150},{"NoteNumber":67,"Velocity":52,"Duration":373922,"SoundDuration":373922,"Delta":330461150},{"NoteNumber":65,"Velocity":45,"Duration":379747,"SoundDuration":379747,"Delta":330835072},{"NoteNumber":49,"Velocity":49,"Duration":370370,"SoundDuration":370370,"Delta":331214819},{"NoteNumber":64,"Velocity":46,"Duration":370370,"SoundDuration":370370,"Delta":331214819},{"NoteNumber":50,"Velocity":45,"Duration":379747,"SoundDuration":379747,"Delta":331585190},{"NoteNumber":62,"Velocity":40,"Duration":379747,"SoundDuration":379747,"Delta":331585190},{"NoteNumber":51,"Velocity":52,"Duration":379747,"SoundDuration":379747,"Delta":331964937},{"NoteNumber":60,"Velocity":44,"Duration":789415,"SoundDuration":789415,"Delta":331964937},{"NoteNumber":52,"Velocity":42,"Duration":409668,"SoundDuration":409668,"Delta":332344684},{"NoteNumber":57,"Velocity":50,"Duration":791557,"SoundDuration":791557,"Delta":332754352},{"NoteNumber":61,"Velocity":40,"Duration":791557,"SoundDuration":791557,"Delta":332754352},{"NoteNumber":55,"Velocity":44,"Duration":395778,"SoundDuration":395778,"Delta":333150130},{"NoteNumber":50,"Velocity":39,"Duration":1240294,"SoundDuration":1240294,"Delta":333545909},{"NoteNumber":53,"Velocity":51,"Duration":429799,"SoundDuration":429799,"Delta":333545909},{"NoteNumber":62,"Velocity":38,"Duration":429799,"SoundDuration":429799,"Delta":333545909},{"NoteNumber":55,"Velocity":37,"Duration":398406,"SoundDuration":398406,"Delta":333975708},{"NoteNumber":58,"Velocity":32,"Duration":398406,"SoundDuration":398406,"Delta":333975708},{"NoteNumber":52,"Velocity":51,"Duration":412087,"SoundDuration":412087,"Delta":334374115},{"NoteNumber":55,"Velocity":40,"Duration":412087,"SoundDuration":412087,"Delta":334374115},{"NoteNumber":49,"Velocity":30,"Duration":412088,"SoundDuration":412088,"Delta":334786203},{"NoteNumber":53,"Velocity":34,"Duration":412088,"SoundDuration":412088,"Delta":334786203},{"NoteNumber":57,"Velocity":28,"Duration":412088,"SoundDuration":412088,"Delta":334786203},{"NoteNumber":50,"Velocity":42,"Duration":872093,"SoundDuration":872093,"Delta":335198291},{"NoteNumber":48,"Velocity":37,"Duration":436046,"SoundDuration":436046,"Delta":335634337},{"NoteNumber":53,"Velocity":36,"Duration":1571992,"SoundDuration":1571992,"Delta":336070384},{"NoteNumber":62,"Velocity":43,"Duration":2376885,"SoundDuration":2376885,"Delta":336070384},{"NoteNumber":44,"Velocity":26,"Duration":398883,"SoundDuration":398883,"Delta":336070384},{"NoteNumber":46,"Velocity":37,"Duration":398883,"SoundDuration":398883,"Delta":336070384},{"NoteNumber":43,"Velocity":23,"Duration":398883,"SoundDuration":398883,"Delta":336469267},{"NoteNumber":47,"Velocity":33,"Duration":398883,"SoundDuration":398883,"Delta":336469267},{"NoteNumber":44,"Velocity":28,"Duration":384615,"SoundDuration":384615,"Delta":336868150},{"NoteNumber":46,"Velocity":39,"Duration":384615,"SoundDuration":384615,"Delta":336868150},{"NoteNumber":47,"Velocity":36,"Duration":389610,"SoundDuration":389610,"Delta":337252765},{"NoteNumber":43,"Velocity":30,"Duration":1194503,"SoundDuration":1194503,"Delta":337252765},{"NoteNumber":57,"Velocity":45,"Duration":389610,"SoundDuration":389610,"Delta":337642376},{"NoteNumber":48,"Velocity":37,"Duration":1194503,"SoundDuration":1194503,"Delta":337642376},{"NoteNumber":55,"Velocity":43,"Duration":1993300,"SoundDuration":1993300,"Delta":338031986},{"NoteNumber":47,"Velocity":33,"Duration":415282,"SoundDuration":415282,"Delta":338031986},{"NoteNumber":64,"Velocity":51,"Duration":2378871,"SoundDuration":2378871,"Delta":338447269},{"NoteNumber":46,"Velocity":37,"Duration":389610,"SoundDuration":389610,"Delta":338447269},{"NoteNumber":49,"Velocity":34,"Duration":397351,"SoundDuration":397351,"Delta":338836879},{"NoteNumber":45,"Velocity":23,"Duration":397351,"SoundDuration":397351,"Delta":338836879},{"NoteNumber":46,"Velocity":33,"Duration":392173,"SoundDuration":392173,"Delta":339234230},{"NoteNumber":48,"Velocity":37,"Duration":392173,"SoundDuration":392173,"Delta":339234230},{"NoteNumber":45,"Velocity":30,"Duration":1199736,"SoundDuration":1199736,"Delta":339626404},{"NoteNumber":49,"Velocity":33,"Duration":398883,"SoundDuration":398883,"Delta":339626404},{"NoteNumber":58,"Velocity":48,"Duration":391185,"SoundDuration":391185,"Delta":340025287},{"NoteNumber":50,"Velocity":37,"Duration":391185,"SoundDuration":391185,"Delta":340025287},{"NoteNumber":57,"Velocity":44,"Duration":1986203,"SoundDuration":1986203,"Delta":340416473},{"NoteNumber":49,"Velocity":35,"Duration":409668,"SoundDuration":409668,"Delta":340416473},{"NoteNumber":66,"Velocity":49,"Duration":1576535,"SoundDuration":1576535,"Delta":340826141},{"NoteNumber":50,"Velocity":26,"Duration":387096,"SoundDuration":387096,"Delta":340826141},{"NoteNumber":60,"Velocity":37,"Duration":387096,"SoundDuration":387096,"Delta":340826141},{"NoteNumber":59,"Velocity":35,"Duration":394737,"SoundDuration":394737,"Delta":341213238},{"NoteNumber":51,"Velocity":24,"Duration":394737,"SoundDuration":394737,"Delta":341213238},{"NoteNumber":50,"Velocity":28,"Duration":397351,"SoundDuration":397351,"Delta":341607975},{"NoteNumber":60,"Velocity":39,"Duration":397351,"SoundDuration":397351,"Delta":341607975},{"NoteNumber":59,"Velocity":37,"Duration":397350,"SoundDuration":397350,"Delta":342005326},{"NoteNumber":51,"Velocity":26,"Duration":1192739,"SoundDuration":1192739,"Delta":342005326},{"NoteNumber":60,"Velocity":35,"Duration":391185,"SoundDuration":391185,"Delta":342402677},{"NoteNumber":72,"Velocity":50,"Duration":391185,"SoundDuration":391185,"Delta":342402677},{"NoteNumber":57,"Velocity":41,"Duration":391185,"SoundDuration":391185,"Delta":342402677},{"NoteNumber":71,"Velocity":45,"Duration":404203,"SoundDuration":404203,"Delta":342793862},{"NoteNumber":59,"Velocity":32,"Duration":1992860,"SoundDuration":1992860,"Delta":342793862},{"NoteNumber":56,"Velocity":39,"Duration":1193813,"SoundDuration":1193813,"Delta":342793862},{"NoteNumber":68,"Velocity":51,"Duration":1588657,"SoundDuration":1588657,"Delta":343198066},{"NoteNumber":52,"Velocity":27,"Duration":389610,"SoundDuration":389610,"Delta":343198066},{"NoteNumber":62,"Velocity":42,"Duration":389610,"SoundDuration":389610,"Delta":343198066},{"NoteNumber":61,"Velocity":37,"Duration":399999,"SoundDuration":399999,"Delta":343587676},{"NoteNumber":53,"Velocity":27,"Duration":399999,"SoundDuration":399999,"Delta":343587676},{"NoteNumber":62,"Velocity":41,"Duration":392156,"SoundDuration":392156,"Delta":343987676},{"NoteNumber":51,"Velocity":28,"Duration":392156,"SoundDuration":392156,"Delta":343987676},{"NoteNumber":61,"Velocity":38,"Duration":406889,"SoundDuration":406889,"Delta":344379833},{"NoteNumber":53,"Velocity":27,"Duration":1194291,"SoundDuration":1194291,"Delta":344379833},{"NoteNumber":74,"Velocity":56,"Duration":393701,"SoundDuration":393701,"Delta":344786723},{"NoteNumber":62,"Velocity":39,"Duration":393701,"SoundDuration":393701,"Delta":344786723},{"NoteNumber":59,"Velocity":40,"Duration":393701,"SoundDuration":393701,"Delta":344786723},{"NoteNumber":73,"Velocity":54,"Duration":393700,"SoundDuration":393700,"Delta":345180424},{"NoteNumber":61,"Velocity":38,"Duration":393700,"SoundDuration":393700,"Delta":345180424},{"NoteNumber":58,"Velocity":37,"Duration":393700,"SoundDuration":393700,"Delta":345180424},{"NoteNumber":73,"Velocity":56,"Duration":1181103,"SoundDuration":1181103,"Delta":345574125},{"NoteNumber":66,"Velocity":47,"Duration":393701,"SoundDuration":393701,"Delta":345574125},{"NoteNumber":54,"Velocity":26,"Duration":1596385,"SoundDuration":1596385,"Delta":345574125},{"NoteNumber":58,"Velocity":37,"Duration":393701,"SoundDuration":393701,"Delta":345574125},{"NoteNumber":68,"Velocity":50,"Duration":393700,"SoundDuration":393700,"Delta":345967826},{"NoteNumber":61,"Velocity":37,"Duration":393700,"SoundDuration":393700,"Delta":345967826},{"NoteNumber":70,"Velocity":43,"Duration":393701,"SoundDuration":393701,"Delta":346361527},{"NoteNumber":66,"Velocity":39,"Duration":393701,"SoundDuration":393701,"Delta":346361527},{"NoteNumber":73,"Velocity":52,"Duration":415282,"SoundDuration":415282,"Delta":346755228},{"NoteNumber":70,"Velocity":38,"Duration":415282,"SoundDuration":415282,"Delta":346755228},{"NoteNumber":78,"Velocity":61,"Duration":1201969,"SoundDuration":1201969,"Delta":347170511},{"NoteNumber":75,"Velocity":51,"Duration":398883,"SoundDuration":398883,"Delta":347170511},{"NoteNumber":71,"Velocity":43,"Duration":398883,"SoundDuration":398883,"Delta":347170511},{"NoteNumber":73,"Velocity":56,"Duration":398883,"SoundDuration":398883,"Delta":347569394},{"NoteNumber":70,"Velocity":41,"Duration":398883,"SoundDuration":398883,"Delta":347569394},{"NoteNumber":70,"Velocity":51,"Duration":404203,"SoundDuration":404203,"Delta":347968277},{"NoteNumber":66,"Velocity":43,"Duration":404203,"SoundDuration":404203,"Delta":347968277},{"NoteNumber":66,"Velocity":48,"Duration":433087,"SoundDuration":433087,"Delta":348372480},{"NoteNumber":73,"Velocity":48,"Duration":433087,"SoundDuration":433087,"Delta":348372480},{"NoteNumber":61,"Velocity":37,"Duration":433087,"SoundDuration":433087,"Delta":348372480},{"NoteNumber":73,"Velocity":55,"Duration":1730122,"SoundDuration":1730122,"Delta":348805568},{"NoteNumber":65,"Velocity":46,"Duration":1730122,"SoundDuration":1730122,"Delta":348805568},{"NoteNumber":59,"Velocity":39,"Duration":421052,"SoundDuration":421052,"Delta":348805568},{"NoteNumber":49,"Velocity":28,"Duration":1730122,"SoundDuration":1730122,"Delta":348805568},{"NoteNumber":61,"Velocity":38,"Duration":449101,"SoundDuration":449101,"Delta":349226621},{"NoteNumber":66,"Velocity":44,"Duration":429983,"SoundDuration":429983,"Delta":349675723},{"NoteNumber":65,"Velocity":39,"Duration":429983,"SoundDuration":429983,"Delta":350105707},{"NoteNumber":66,"Velocity":56,"Duration":404203,"SoundDuration":404203,"Delta":350535691},{"NoteNumber":73,"Velocity":56,"Duration":1202108,"SoundDuration":1202108,"Delta":350535691},{"NoteNumber":58,"Velocity":37,"Duration":404203,"SoundDuration":404203,"Delta":350535691},{"NoteNumber":54,"Velocity":26,"Duration":1635196,"SoundDuration":1635196,"Delta":350535691},{"NoteNumber":68,"Velocity":50,"Duration":404203,"SoundDuration":404203,"Delta":350939894},{"NoteNumber":61,"Velocity":37,"Duration":404203,"SoundDuration":404203,"Delta":350939894},{"NoteNumber":70,"Velocity":43,"Duration":393701,"SoundDuration":393701,"Delta":351344098},{"NoteNumber":66,"Velocity":39,"Duration":393701,"SoundDuration":393701,"Delta":351344098},{"NoteNumber":73,"Velocity":52,"Duration":433087,"SoundDuration":433087,"Delta":351737799},{"NoteNumber":70,"Velocity":38,"Duration":433087,"SoundDuration":433087,"Delta":351737799},{"NoteNumber":75,"Velocity":51,"Duration":398883,"SoundDuration":398883,"Delta":352170887},{"NoteNumber":78,"Velocity":61,"Duration":1635057,"SoundDuration":1635057,"Delta":352170887},{"NoteNumber":71,"Velocity":43,"Duration":398883,"SoundDuration":398883,"Delta":352170887},{"NoteNumber":73,"Velocity":56,"Duration":398883,"SoundDuration":398883,"Delta":352569770},{"NoteNumber":70,"Velocity":41,"Duration":398883,"SoundDuration":398883,"Delta":352569770},{"NoteNumber":70,"Velocity":51,"Duration":404203,"SoundDuration":404203,"Delta":352968653},{"NoteNumber":66,"Velocity":43,"Duration":404203,"SoundDuration":404203,"Delta":352968653},{"NoteNumber":66,"Velocity":48,"Duration":433087,"SoundDuration":433087,"Delta":353372856},{"NoteNumber":61,"Velocity":37,"Duration":433087,"SoundDuration":433087,"Delta":353372856},{"NoteNumber":73,"Velocity":55,"Duration":101053,"SoundDuration":101053,"Delta":353697672},{"NoteNumber":73,"Velocity":55,"Duration":1676341,"SoundDuration":1676341,"Delta":353805944},{"NoteNumber":64,"Velocity":46,"Duration":1676341,"SoundDuration":1676341,"Delta":353805944},{"NoteNumber":58,"Velocity":39,"Duration":405405,"SoundDuration":405405,"Delta":353805944},{"NoteNumber":54,"Velocity":38,"Duration":413792,"SoundDuration":413792,"Delta":354211350},{"NoteNumber":49,"Velocity":44,"Duration":428571,"SoundDuration":428571,"Delta":354625143},{"NoteNumber":46,"Velocity":39,"Duration":428571,"SoundDuration":428571,"Delta":355053714},{"NoteNumber":58,"Velocity":30,"Duration":398406,"SoundDuration":398406,"Delta":355482286},{"NoteNumber":70,"Velocity":43,"Duration":398406,"SoundDuration":398406,"Delta":355482286},{"NoteNumber":41,"Velocity":34,"Duration":3070415,"SoundDuration":3070415,"Delta":355482286},{"NoteNumber":50,"Velocity":39,"Duration":398406,"SoundDuration":398406,"Delta":355482286},{"NoteNumber":60,"Velocity":30,"Duration":398406,"SoundDuration":398406,"Delta":355880692},{"NoteNumber":72,"Velocity":43,"Duration":398406,"SoundDuration":398406,"Delta":355880692},{"NoteNumber":53,"Velocity":39,"Duration":398406,"SoundDuration":398406,"Delta":355880692},{"NoteNumber":62,"Velocity":31,"Duration":364520,"SoundDuration":364520,"Delta":356279099},{"NoteNumber":74,"Velocity":44,"Duration":364520,"SoundDuration":364520,"Delta":356279099},{"NoteNumber":58,"Velocity":41,"Duration":364520,"SoundDuration":364520,"Delta":356279099},{"NoteNumber":65,"Velocity":34,"Duration":393185,"SoundDuration":393185,"Delta":356643619},{"NoteNumber":77,"Velocity":52,"Duration":393185,"SoundDuration":393185,"Delta":356643619},{"NoteNumber":62,"Velocity":43,"Duration":393185,"SoundDuration":393185,"Delta":356643619},{"NoteNumber":79,"Velocity":57,"Duration":364520,"SoundDuration":364520,"Delta":357036804},{"NoteNumber":67,"Velocity":36,"Duration":364520,"SoundDuration":364520,"Delta":357036804},{"NoteNumber":63,"Velocity":46,"Duration":364520,"SoundDuration":364520,"Delta":357036804},{"NoteNumber":65,"Velocity":29,"Duration":364519,"SoundDuration":364519,"Delta":357401324},{"NoteNumber":77,"Velocity":42,"Duration":364519,"SoundDuration":364519,"Delta":357401324},{"NoteNumber":62,"Velocity":44,"Duration":361482,"SoundDuration":361482,"Delta":357401324},{"NoteNumber":62,"Velocity":31,"Duration":579302,"SoundDuration":579302,"Delta":357765844},{"NoteNumber":74,"Velocity":44,"Duration":579302,"SoundDuration":579302,"Delta":357765844},{"NoteNumber":58,"Velocity":42,"Duration":368649,"SoundDuration":368649,"Delta":357765844},{"NoteNumber":53,"Velocity":36,"Duration":415110,"SoundDuration":415110,"Delta":358137591},{"NoteNumber":70,"Velocity":39,"Duration":207555,"SoundDuration":207555,"Delta":358345146},{"NoteNumber":58,"Velocity":28,"Duration":207555,"SoundDuration":207555,"Delta":358345146},{"NoteNumber":70,"Velocity":45,"Duration":1547249,"SoundDuration":1547249,"Delta":358552701},{"NoteNumber":58,"Velocity":32,"Duration":1547249,"SoundDuration":1547249,"Delta":358552701},{"NoteNumber":50,"Velocity":40,"Duration":402628,"SoundDuration":402628,"Delta":358552701},{"NoteNumber":42,"Velocity":34,"Duration":1547249,"SoundDuration":1547249,"Delta":358552701},{"NoteNumber":51,"Velocity":31,"Duration":419355,"SoundDuration":419355,"Delta":358923071},{"NoteNumber":50,"Velocity":36,"Duration":420654,"SoundDuration":420654,"Delta":359310168},{"NoteNumber":49,"Velocity":33,"Duration":402684,"SoundDuration":402684,"Delta":359697265},{"NoteNumber":58,"Velocity":30,"Duration":378309,"SoundDuration":378309,"Delta":360099950},{"NoteNumber":70,"Velocity":43,"Duration":378309,"SoundDuration":378309,"Delta":360099950},{"NoteNumber":50,"Velocity":39,"Duration":378309,"SoundDuration":378309,"Delta":360099950},{"NoteNumber":60,"Velocity":30,"Duration":378309,"SoundDuration":378309,"Delta":360478260},{"NoteNumber":72,"Velocity":43,"Duration":378309,"SoundDuration":378309,"Delta":360478260},{"NoteNumber":53,"Velocity":39,"Duration":378309,"SoundDuration":378309,"Delta":360478260},{"NoteNumber":74,"Velocity":44,"Duration":362319,"SoundDuration":362319,"Delta":360856570},{"NoteNumber":62,"Velocity":31,"Duration":362319,"SoundDuration":362319,"Delta":360856570},{"NoteNumber":58,"Velocity":41,"Duration":362319,"SoundDuration":362319,"Delta":360856570},{"NoteNumber":41,"Velocity":34,"Duration":731913,"SoundDuration":731913,"Delta":360856570},{"NoteNumber":65,"Velocity":34,"Duration":369594,"SoundDuration":369594,"Delta":361218889},{"NoteNumber":77,"Velocity":51,"Duration":369594,"SoundDuration":369594,"Delta":361218889},{"NoteNumber":62,"Velocity":43,"Duration":369594,"SoundDuration":369594,"Delta":361218889},{"NoteNumber":79,"Velocity":56,"Duration":363284,"SoundDuration":363284,"Delta":361588483},{"NoteNumber":67,"Velocity":36,"Duration":363284,"SoundDuration":363284,"Delta":361588483},{"NoteNumber":63,"Velocity":46,"Duration":363284,"SoundDuration":363284,"Delta":361588483},{"NoteNumber":77,"Velocity":42,"Duration":363283,"SoundDuration":363283,"Delta":361951767},{"NoteNumber":65,"Velocity":29,"Duration":363283,"SoundDuration":363283,"Delta":361951767},{"NoteNumber":62,"Velocity":44,"Duration":360256,"SoundDuration":360256,"Delta":361951767},{"NoteNumber":74,"Velocity":44,"Duration":579302,"SoundDuration":579302,"Delta":362315051},{"NoteNumber":62,"Velocity":31,"Duration":579302,"SoundDuration":579302,"Delta":362315051},{"NoteNumber":58,"Velocity":42,"Duration":368649,"SoundDuration":368649,"Delta":362315051},{"NoteNumber":53,"Velocity":36,"Duration":415110,"SoundDuration":415110,"Delta":362686798},{"NoteNumber":70,"Velocity":39,"Duration":207555,"SoundDuration":207555,"Delta":362894353},{"NoteNumber":58,"Velocity":28,"Duration":207555,"SoundDuration":207555,"Delta":362894353},{"NoteNumber":58,"Velocity":32,"Duration":1536386,"SoundDuration":1536386,"Delta":363101908},{"NoteNumber":70,"Velocity":45,"Duration":1536386,"SoundDuration":1536386,"Delta":363101908},{"NoteNumber":50,"Velocity":40,"Duration":406847,"SoundDuration":406847,"Delta":363101908},{"NoteNumber":42,"Velocity":34,"Duration":2284143,"SoundDuration":2284143,"Delta":363101908},{"NoteNumber":51,"Velocity":32,"Duration":414633,"SoundDuration":414633,"Delta":363476908},{"NoteNumber":50,"Velocity":37,"Duration":422078,"SoundDuration":422078,"Delta":363859074},{"NoteNumber":49,"Velocity":31,"Duration":389610,"SoundDuration":389610,"Delta":364248684},{"NoteNumber":70,"Velocity":43,"Duration":373878,"SoundDuration":373878,"Delta":364638295},{"NoteNumber":58,"Velocity":30,"Duration":373878,"SoundDuration":373878,"Delta":364638295},{"NoteNumber":50,"Velocity":39,"Duration":373878,"SoundDuration":373878,"Delta":364638295},{"NoteNumber":60,"Velocity":30,"Duration":373878,"SoundDuration":373878,"Delta":365012173},{"NoteNumber":72,"Velocity":43,"Duration":373878,"SoundDuration":373878,"Delta":365012173},{"NoteNumber":53,"Velocity":39,"Duration":373878,"SoundDuration":373878,"Delta":365012173},{"NoteNumber":70,"Velocity":44,"Duration":361227,"SoundDuration":361227,"Delta":365386052},{"NoteNumber":58,"Velocity":31,"Duration":361227,"SoundDuration":361227,"Delta":365386052},{"NoteNumber":43,"Velocity":34,"Duration":730822,"SoundDuration":730822,"Delta":365386052},{"NoteNumber":50,"Velocity":41,"Duration":361227,"SoundDuration":361227,"Delta":365386052},{"NoteNumber":74,"Velocity":52,"Duration":369594,"SoundDuration":369594,"Delta":365747280},{"NoteNumber":62,"Velocity":34,"Duration":369594,"SoundDuration":369594,"Delta":365747280},{"NoteNumber":58,"Velocity":43,"Duration":369594,"SoundDuration":369594,"Delta":365747280},{"NoteNumber":75,"Velocity":56,"Duration":363284,"SoundDuration":363284,"Delta":366116874},{"NoteNumber":63,"Velocity":36,"Duration":363284,"SoundDuration":363284,"Delta":366116874},{"NoteNumber":60,"Velocity":46,"Duration":363284,"SoundDuration":363284,"Delta":366116874},{"NoteNumber":62,"Velocity":29,"Duration":363283,"SoundDuration":363283,"Delta":366480158},{"NoteNumber":74,"Velocity":42,"Duration":363283,"SoundDuration":363283,"Delta":366480158},{"NoteNumber":58,"Velocity":44,"Duration":360256,"SoundDuration":360256,"Delta":366480158},{"NoteNumber":58,"Velocity":31,"Duration":579302,"SoundDuration":579302,"Delta":366843442},{"NoteNumber":70,"Velocity":44,"Duration":579302,"SoundDuration":579302,"Delta":366843442},{"NoteNumber":55,"Velocity":42,"Duration":368649,"SoundDuration":368649,"Delta":366843442},{"NoteNumber":50,"Velocity":36,"Duration":445650,"SoundDuration":445650,"Delta":367215189},{"NoteNumber":67,"Velocity":39,"Duration":238095,"SoundDuration":238095,"Delta":367422744},{"NoteNumber":55,"Velocity":28,"Duration":238095,"SoundDuration":238095,"Delta":367422744},{"NoteNumber":65,"Velocity":45,"Duration":872093,"SoundDuration":872093,"Delta":367660839},{"NoteNumber":53,"Velocity":32,"Duration":872093,"SoundDuration":872093,"Delta":367660839},{"NoteNumber":42,"Velocity":34,"Duration":2842876,"SoundDuration":2842876,"Delta":367660839},{"NoteNumber":46,"Velocity":40,"Duration":218023,"SoundDuration":218023,"Delta":367660839},{"NoteNumber":48,"Velocity":34,"Duration":218023,"SoundDuration":218023,"Delta":367878863},{"NoteNumber":46,"Velocity":40,"Duration":218023,"SoundDuration":218023,"Delta":368096886},{"NoteNumber":45,"Velocity":34,"Duration":218023,"SoundDuration":218023,"Delta":368314909},{"NoteNumber":46,"Velocity":34,"Duration":145388,"SoundDuration":145388,"Delta":368532932},{"NoteNumber":50,"Velocity":37,"Duration":147361,"SoundDuration":147361,"Delta":368678321},{"NoteNumber":55,"Velocity":40,"Duration":150013,"SoundDuration":150013,"Delta":368825683},{"NoteNumber":47,"Velocity":43,"Duration":1528019,"SoundDuration":1528019,"Delta":368975696},{"NoteNumber":50,"Velocity":47,"Duration":1373684,"SoundDuration":1373684,"Delta":369130031},{"NoteNumber":55,"Velocity":49,"Duration":693887,"SoundDuration":693887,"Delta":369313960},{"NoteNumber":67,"Velocity":53,"Duration":594877,"SoundDuration":594877,"Delta":369412970},{"NoteNumber":79,"Velocity":59,"Duration":495867,"SoundDuration":495867,"Delta":369511980},{"NoteNumber":62,"Velocity":44,"Duration":991736,"SoundDuration":991736,"Delta":369511980},{"NoteNumber":65,"Velocity":38,"Duration":495868,"SoundDuration":495868,"Delta":370007848},{"NoteNumber":77,"Velocity":45,"Duration":495868,"SoundDuration":495868,"Delta":370007848},{"NoteNumber":53,"Velocity":40,"Duration":495868,"SoundDuration":495868,"Delta":370007848},{"NoteNumber":63,"Velocity":40,"Duration":521739,"SoundDuration":521739,"Delta":370503716},{"NoteNumber":75,"Velocity":48,"Duration":260869,"SoundDuration":260869,"Delta":370503716},{"NoteNumber":51,"Velocity":34,"Duration":521739,"SoundDuration":521739,"Delta":370503716},{"NoteNumber":48,"Velocity":34,"Duration":521739,"SoundDuration":521739,"Delta":370503716},{"NoteNumber":60,"Velocity":42,"Duration":521739,"SoundDuration":521739,"Delta":370503716},{"NoteNumber":77,"Velocity":41,"Duration":130434,"SoundDuration":130434,"Delta":370764585},{"NoteNumber":75,"Velocity":41,"Duration":130434,"SoundDuration":130434,"Delta":370895020},{"NoteNumber":66,"Velocity":37,"Duration":521738,"SoundDuration":521738,"Delta":371025455},{"NoteNumber":74,"Velocity":51,"Duration":260869,"SoundDuration":260869,"Delta":371025455},{"NoteNumber":58,"Velocity":43,"Duration":521738,"SoundDuration":521738,"Delta":371025455},{"NoteNumber":51,"Velocity":36,"Duration":521738,"SoundDuration":521738,"Delta":371025455},{"NoteNumber":72,"Velocity":47,"Duration":260869,"SoundDuration":260869,"Delta":371286324},{"NoteNumber":70,"Velocity":51,"Duration":1094891,"SoundDuration":1094891,"Delta":371547194},{"NoteNumber":65,"Velocity":36,"Duration":1094891,"SoundDuration":1094891,"Delta":371547194},{"NoteNumber":77,"Velocity":51,"Duration":2189781,"SoundDuration":2189781,"Delta":371547194},{"NoteNumber":53,"Velocity":39,"Duration":1094891,"SoundDuration":1094891,"Delta":371547194},{"NoteNumber":62,"Velocity":47,"Duration":1094891,"SoundDuration":1094891,"Delta":371547194},{"NoteNumber":69,"Velocity":47,"Duration":1094890,"SoundDuration":1094890,"Delta":372642085},{"NoteNumber":63,"Velocity":39,"Duration":1094890,"SoundDuration":1094890,"Delta":372642085},{"NoteNumber":60,"Velocity":44,"Duration":1632525,"SoundDuration":1632525,"Delta":372642085},{"NoteNumber":41,"Velocity":37,"Duration":1094890,"SoundDuration":1094890,"Delta":372642085},{"NoteNumber":70,"Velocity":43,"Duration":136861,"SoundDuration":136861,"Delta":373600114},{"NoteNumber":70,"Velocity":50,"Duration":1075268,"SoundDuration":1075268,"Delta":373736976},{"NoteNumber":62,"Velocity":42,"Duration":1075268,"SoundDuration":1075268,"Delta":373736976},{"NoteNumber":46,"Velocity":42,"Duration":1075268,"SoundDuration":1075268,"Delta":373736976},{"NoteNumber":58,"Velocity":39,"Duration":537634,"SoundDuration":537634,"Delta":374274610},{"NoteNumber":53,"Velocity":44,"Duration":537634,"SoundDuration":537634,"Delta":374812245},{"NoteNumber":50,"Velocity":40,"Duration":537634,"SoundDuration":537634,"Delta":375349879},{"NoteNumber":67,"Velocity":43,"Duration":368097,"SoundDuration":368097,"Delta":375887514},{"NoteNumber":62,"Velocity":30,"Duration":368097,"SoundDuration":368097,"Delta":375887514},{"NoteNumber":58,"Velocity":40,"Duration":368097,"SoundDuration":368097,"Delta":375887514},{"NoteNumber":46,"Velocity":34,"Duration":368097,"SoundDuration":368097,"Delta":375887514},{"NoteNumber":60,"Velocity":28,"Duration":368098,"SoundDuration":368098,"Delta":376255612},{"NoteNumber":69,"Velocity":39,"Duration":368098,"SoundDuration":368098,"Delta":376255612},{"NoteNumber":57,"Velocity":40,"Duration":368098,"SoundDuration":368098,"Delta":376255612},{"NoteNumber":58,"Velocity":29,"Duration":363636,"SoundDuration":363636,"Delta":376623710},{"NoteNumber":70,"Velocity":42,"Duration":363636,"SoundDuration":363636,"Delta":376623710},{"NoteNumber":55,"Velocity":32,"Duration":363636,"SoundDuration":363636,"Delta":376623710},{"NoteNumber":48,"Velocity":27,"Duration":1446020,"SoundDuration":1446020,"Delta":376623710},{"NoteNumber":69,"Velocity":31,"Duration":355029,"SoundDuration":355029,"Delta":376987346},{"NoteNumber":72,"Velocity":44,"Duration":355029,"SoundDuration":355029,"Delta":376987346},{"NoteNumber":53,"Velocity":33,"Duration":355029,"SoundDuration":355029,"Delta":376987346},{"NoteNumber":74,"Velocity":46,"Duration":361446,"SoundDuration":361446,"Delta":377342376},{"NoteNumber":67,"Velocity":33,"Duration":361446,"SoundDuration":361446,"Delta":377342376},{"NoteNumber":52,"Velocity":35,"Duration":361446,"SoundDuration":361446,"Delta":377342376},{"NoteNumber":65,"Velocity":34,"Duration":365908,"SoundDuration":365908,"Delta":377703822},{"NoteNumber":76,"Velocity":48,"Duration":365908,"SoundDuration":365908,"Delta":377703822},{"NoteNumber":50,"Velocity":37,"Duration":365908,"SoundDuration":365908,"Delta":377703822},{"NoteNumber":77,"Velocity":51,"Duration":376097,"SoundDuration":376097,"Delta":378069730},{"NoteNumber":64,"Velocity":35,"Duration":376097,"SoundDuration":376097,"Delta":378069730},{"NoteNumber":48,"Velocity":39,"Duration":376097,"SoundDuration":376097,"Delta":378069730},{"NoteNumber":36,"Velocity":33,"Duration":2212501,"SoundDuration":2212501,"Delta":378069730},{"NoteNumber":79,"Velocity":54,"Duration":381700,"SoundDuration":381700,"Delta":378445827},{"NoteNumber":74,"Velocity":37,"Duration":381700,"SoundDuration":381700,"Delta":378445827},{"NoteNumber":46,"Velocity":40,"Duration":381700,"SoundDuration":381700,"Delta":378445827},{"NoteNumber":81,"Velocity":60,"Duration":357143,"SoundDuration":357143,"Delta":378827528},{"NoteNumber":72,"Velocity":45,"Duration":357143,"SoundDuration":357143,"Delta":378827528},{"NoteNumber":45,"Velocity":41,"Duration":357143,"SoundDuration":357143,"Delta":378827528},{"NoteNumber":76,"Velocity":37,"Duration":365853,"SoundDuration":365853,"Delta":379184671},{"NoteNumber":79,"Velocity":52,"Duration":365853,"SoundDuration":365853,"Delta":379184671},{"NoteNumber":46,"Velocity":40,"Duration":365853,"SoundDuration":365853,"Delta":379184671},{"NoteNumber":77,"Velocity":51,"Duration":365853,"SoundDuration":365853,"Delta":379550525},{"NoteNumber":69,"Velocity":36,"Duration":365853,"SoundDuration":365853,"Delta":379550525},{"NoteNumber":48,"Velocity":39,"Duration":365853,"SoundDuration":365853,"Delta":379550525},{"NoteNumber":76,"Velocity":50,"Duration":365853,"SoundDuration":365853,"Delta":379916378},{"NoteNumber":72,"Velocity":35,"Duration":365853,"SoundDuration":365853,"Delta":379916378},{"NoteNumber":50,"Velocity":38,"Duration":365853,"SoundDuration":365853,"Delta":379916378},{"NoteNumber":67,"Velocity":34,"Duration":365853,"SoundDuration":365853,"Delta":380282232},{"NoteNumber":74,"Velocity":49,"Duration":365853,"SoundDuration":365853,"Delta":380282232},{"NoteNumber":52,"Velocity":37,"Duration":365853,"SoundDuration":365853,"Delta":380282232},{"NoteNumber":36,"Velocity":31,"Duration":751012,"SoundDuration":751012,"Delta":380282232},{"NoteNumber":69,"Velocity":29,"Duration":385158,"SoundDuration":385158,"Delta":380648085},{"NoteNumber":72,"Velocity":48,"Duration":385158,"SoundDuration":385158,"Delta":380648085},{"NoteNumber":53,"Velocity":36,"Duration":385158,"SoundDuration":385158,"Delta":380648085},{"NoteNumber":64,"Velocity":33,"Duration":372089,"SoundDuration":372089,"Delta":381033244},{"NoteNumber":70,"Velocity":47,"Duration":372089,"SoundDuration":372089,"Delta":381033244},{"NoteNumber":55,"Velocity":35,"Duration":372089,"SoundDuration":372089,"Delta":381033244},{"NoteNumber":48,"Velocity":29,"Duration":1476383,"SoundDuration":1476383,"Delta":381033244},{"NoteNumber":65,"Velocity":28,"Duration":368097,"SoundDuration":368097,"Delta":381405333},{"NoteNumber":69,"Velocity":40,"Duration":368097,"SoundDuration":368097,"Delta":381405333},{"NoteNumber":57,"Velocity":35,"Duration":368097,"SoundDuration":368097,"Delta":381405333},{"NoteNumber":61,"Velocity":40,"Duration":368098,"SoundDuration":368098,"Delta":381773431},{"NoteNumber":67,"Velocity":48,"Duration":368098,"SoundDuration":368098,"Delta":381773431},{"NoteNumber":58,"Velocity":37,"Duration":368098,"SoundDuration":368098,"Delta":381773431},{"NoteNumber":65,"Velocity":42,"Duration":368097,"SoundDuration":368097,"Delta":382141529},{"NoteNumber":62,"Velocity":30,"Duration":368097,"SoundDuration":368097,"Delta":382141529},{"NoteNumber":59,"Velocity":35,"Duration":368097,"SoundDuration":368097,"Delta":382141529},{"NoteNumber":63,"Velocity":34,"Duration":382848,"SoundDuration":382848,"Delta":382509627},{"NoteNumber":69,"Velocity":49,"Duration":382848,"SoundDuration":382848,"Delta":382509627},{"NoteNumber":60,"Velocity":42,"Duration":382848,"SoundDuration":382848,"Delta":382509627},{"NoteNumber":48,"Velocity":36,"Duration":765696,"SoundDuration":765696,"Delta":382509627},{"NoteNumber":67,"Velocity":44,"Duration":382848,"SoundDuration":382848,"Delta":382892476},{"NoteNumber":64,"Velocity":32,"Duration":382848,"SoundDuration":382848,"Delta":382892476},{"NoteNumber":58,"Velocity":38,"Duration":382848,"SoundDuration":382848,"Delta":382892476},{"NoteNumber":65,"Velocity":44,"Duration":367466,"SoundDuration":367466,"Delta":383275324},{"NoteNumber":77,"Velocity":60,"Duration":367466,"SoundDuration":367466,"Delta":383275324},{"NoteNumber":41,"Velocity":39,"Duration":367466,"SoundDuration":367466,"Delta":383275324},{"NoteNumber":57,"Velocity":55,"Duration":367466,"SoundDuration":367466,"Delta":383275324},{"NoteNumber":75,"Velocity":55,"Duration":382848,"SoundDuration":382848,"Delta":383642791},{"NoteNumber":63,"Velocity":39,"Duration":382848,"SoundDuration":382848,"Delta":383642791},{"NoteNumber":43,"Velocity":38,"Duration":382848,"SoundDuration":382848,"Delta":383642791},{"NoteNumber":55,"Velocity":54,"Duration":382848,"SoundDuration":382848,"Delta":383642791},{"NoteNumber":62,"Velocity":34,"Duration":415110,"SoundDuration":415110,"Delta":384025640},{"NoteNumber":74,"Velocity":50,"Duration":415110,"SoundDuration":415110,"Delta":384025640},{"NoteNumber":53,"Velocity":52,"Duration":415110,"SoundDuration":415110,"Delta":384025640},{"NoteNumber":44,"Velocity":36,"Duration":415110,"SoundDuration":415110,"Delta":384025640},{"NoteNumber":72,"Velocity":47,"Duration":456620,"SoundDuration":456620,"Delta":384440750},{"NoteNumber":60,"Velocity":33,"Duration":456620,"SoundDuration":456620,"Delta":384440750},{"NoteNumber":51,"Velocity":50,"Duration":456620,"SoundDuration":456620,"Delta":384440750},{"NoteNumber":45,"Velocity":35,"Duration":456620,"SoundDuration":456620,"Delta":384440750},{"NoteNumber":58,"Velocity":33,"Duration":404639,"SoundDuration":404639,"Delta":384897371},{"NoteNumber":70,"Velocity":47,"Duration":404639,"SoundDuration":404639,"Delta":384897371},{"NoteNumber":50,"Velocity":37,"Duration":404639,"SoundDuration":404639,"Delta":384897371},{"NoteNumber":46,"Velocity":40,"Duration":809280,"SoundDuration":809280,"Delta":384897371},{"NoteNumber":60,"Velocity":29,"Duration":404640,"SoundDuration":404640,"Delta":385302011},{"NoteNumber":72,"Velocity":42,"Duration":404640,"SoundDuration":404640,"Delta":385302011},{"NoteNumber":53,"Velocity":40,"Duration":404640,"SoundDuration":404640,"Delta":385302011},{"NoteNumber":74,"Velocity":47,"Duration":1493942,"SoundDuration":1493942,"Delta":385706651},{"NoteNumber":62,"Velocity":39,"Duration":369594,"SoundDuration":369594,"Delta":385706651},{"NoteNumber":34,"Velocity":46,"Duration":739189,"SoundDuration":739189,"Delta":385706651},{"NoteNumber":58,"Velocity":43,"Duration":369594,"SoundDuration":369594,"Delta":385706651},{"NoteNumber":72,"Velocity":52,"Duration":369594,"SoundDuration":369594,"Delta":386076245},{"NoteNumber":57,"Velocity":39,"Duration":369594,"SoundDuration":369594,"Delta":386076245},{"NoteNumber":70,"Velocity":49,"Duration":369594,"SoundDuration":369594,"Delta":386445840},{"NoteNumber":55,"Velocity":39,"Duration":369594,"SoundDuration":369594,"Delta":386445840},{"NoteNumber":69,"Velocity":44,"Duration":385158,"SoundDuration":385158,"Delta":386815434},{"NoteNumber":53,"Velocity":39,"Duration":385158,"SoundDuration":385158,"Delta":386815434},{"NoteNumber":67,"Velocity":34,"Duration":369594,"SoundDuration":369594,"Delta":387200593},{"NoteNumber":75,"Velocity":49,"Duration":369594,"SoundDuration":369594,"Delta":387200593},{"NoteNumber":51,"Velocity":39,"Duration":369594,"SoundDuration":369594,"Delta":387200593},{"NoteNumber":46,"Velocity":42,"Duration":747904,"SoundDuration":747904,"Delta":387200593},{"NoteNumber":77,"Velocity":52,"Duration":378309,"SoundDuration":378309,"Delta":387570187},{"NoteNumber":65,"Velocity":37,"Duration":378309,"SoundDuration":378309,"Delta":387570187},{"NoteNumber":50,"Velocity":44,"Duration":378309,"SoundDuration":378309,"Delta":387570187},{"NoteNumber":63,"Velocity":47,"Duration":369594,"SoundDuration":369594,"Delta":387948497},{"NoteNumber":79,"Velocity":56,"Duration":1108783,"SoundDuration":1108783,"Delta":387948497},{"NoteNumber":48,"Velocity":48,"Duration":369594,"SoundDuration":369594,"Delta":387948497},{"NoteNumber":34,"Velocity":52,"Duration":739189,"SoundDuration":739189,"Delta":387948497},{"NoteNumber":65,"Velocity":43,"Duration":369594,"SoundDuration":369594,"Delta":388318092},{"NoteNumber":50,"Velocity":39,"Duration":369594,"SoundDuration":369594,"Delta":388318092},{"NoteNumber":67,"Velocity":47,"Duration":369594,"SoundDuration":369594,"Delta":388687686},{"NoteNumber":51,"Velocity":39,"Duration":369594,"SoundDuration":369594,"Delta":388687686},{"NoteNumber":77,"Velocity":53,"Duration":378309,"SoundDuration":378309,"Delta":389057281},{"NoteNumber":69,"Velocity":38,"Duration":378309,"SoundDuration":378309,"Delta":389057281},{"NoteNumber":53,"Velocity":36,"Duration":378309,"SoundDuration":378309,"Delta":389057281},{"NoteNumber":75,"Velocity":51,"Duration":378309,"SoundDuration":378309,"Delta":389435591},{"NoteNumber":70,"Velocity":36,"Duration":378309,"SoundDuration":378309,"Delta":389435591},{"NoteNumber":55,"Velocity":39,"Duration":378309,"SoundDuration":378309,"Delta":389435591},{"NoteNumber":46,"Velocity":42,"Duration":756619,"SoundDuration":756619,"Delta":389435591},{"NoteNumber":71,"Velocity":35,"Duration":378309,"SoundDuration":378309,"Delta":389813901},{"NoteNumber":74,"Velocity":50,"Duration":378309,"SoundDuration":378309,"Delta":389813901},{"NoteNumber":56,"Velocity":44,"Duration":378309,"SoundDuration":378309,"Delta":389813901},{"NoteNumber":72,"Velocity":52,"Duration":734934,"SoundDuration":734934,"Delta":390192211},{"NoteNumber":57,"Velocity":39,"Duration":367466,"SoundDuration":367466,"Delta":390192211},{"NoteNumber":34,"Velocity":42,"Duration":734934,"SoundDuration":734934,"Delta":390192211},{"NoteNumber":70,"Velocity":47,"Duration":367467,"SoundDuration":367467,"Delta":390559678},{"NoteNumber":55,"Velocity":39,"Duration":367467,"SoundDuration":367467,"Delta":390559678},{"NoteNumber":72,"Velocity":47,"Duration":385158,"SoundDuration":385158,"Delta":390927145},{"NoteNumber":69,"Velocity":33,"Duration":385158,"SoundDuration":385158,"Delta":390927145},{"NoteNumber":53,"Velocity":41,"Duration":385158,"SoundDuration":385158,"Delta":390927145},{"NoteNumber":74,"Velocity":44,"Duration":367466,"SoundDuration":367466,"Delta":391312303},{"NoteNumber":67,"Velocity":31,"Duration":367466,"SoundDuration":367466,"Delta":391312303},{"NoteNumber":51,"Velocity":39,"Duration":367466,"SoundDuration":367466,"Delta":391312303},{"NoteNumber":65,"Velocity":42,"Duration":369594,"SoundDuration":369594,"Delta":391679770},{"NoteNumber":75,"Velocity":50,"Duration":739189,"SoundDuration":739189,"Delta":391679770},{"NoteNumber":46,"Velocity":38,"Duration":739189,"SoundDuration":739189,"Delta":391679770},{"NoteNumber":50,"Velocity":44,"Duration":369594,"SoundDuration":369594,"Delta":391679770},{"NoteNumber":63,"Velocity":47,"Duration":369594,"SoundDuration":369594,"Delta":392049365},{"NoteNumber":48,"Velocity":38,"Duration":369594,"SoundDuration":369594,"Delta":392049365},{"NoteNumber":62,"Velocity":45,"Duration":369594,"SoundDuration":369594,"Delta":392418959},{"NoteNumber":77,"Velocity":54,"Duration":1108783,"SoundDuration":1108783,"Delta":392418959},{"NoteNumber":46,"Velocity":46,"Duration":369594,"SoundDuration":369594,"Delta":392418959},{"NoteNumber":34,"Velocity":50,"Duration":739189,"SoundDuration":739189,"Delta":392418959},{"NoteNumber":65,"Velocity":47,"Duration":369594,"SoundDuration":369594,"Delta":392788554},{"NoteNumber":50,"Velocity":35,"Duration":369594,"SoundDuration":369594,"Delta":392788554},{"NoteNumber":70,"Velocity":47,"Duration":369594,"SoundDuration":369594,"Delta":393158148},{"NoteNumber":53,"Velocity":39,"Duration":369594,"SoundDuration":369594,"Delta":393158148},{"NoteNumber":74,"Velocity":46,"Duration":380565,"SoundDuration":380565,"Delta":393527743},{"NoteNumber":58,"Velocity":35,"Duration":380565,"SoundDuration":380565,"Delta":393527743},{"NoteNumber":70,"Velocity":39,"Duration":404639,"SoundDuration":404639,"Delta":393908309},{"NoteNumber":82,"Velocity":54,"Duration":404639,"SoundDuration":404639,"Delta":393908309},{"NoteNumber":58,"Velocity":40,"Duration":809280,"SoundDuration":809280,"Delta":393908309},{"NoteNumber":62,"Velocity":37,"Duration":404639,"SoundDuration":404639,"Delta":393908309},{"NoteNumber":72,"Velocity":35,"Duration":404640,"SoundDuration":404640,"Delta":394312949},{"NoteNumber":84,"Velocity":48,"Duration":404640,"SoundDuration":404640,"Delta":394312949},{"NoteNumber":65,"Velocity":40,"Duration":404640,"SoundDuration":404640,"Delta":394312949},{"NoteNumber":86,"Velocity":54,"Duration":1493942,"SoundDuration":1493942,"Delta":394717589},{"NoteNumber":74,"Velocity":39,"Duration":369594,"SoundDuration":369594,"Delta":394717589},{"NoteNumber":70,"Velocity":43,"Duration":369594,"SoundDuration":369594,"Delta":394717589},{"NoteNumber":58,"Velocity":46,"Duration":1493942,"SoundDuration":1493942,"Delta":394717589},{"NoteNumber":84,"Velocity":52,"Duration":369594,"SoundDuration":369594,"Delta":395087183},{"NoteNumber":69,"Velocity":39,"Duration":369594,"SoundDuration":369594,"Delta":395087183},{"NoteNumber":82,"Velocity":49,"Duration":369594,"SoundDuration":369594,"Delta":395456778},{"NoteNumber":67,"Velocity":39,"Duration":369594,"SoundDuration":369594,"Delta":395456778},{"NoteNumber":81,"Velocity":44,"Duration":385158,"SoundDuration":385158,"Delta":395826372},{"NoteNumber":65,"Velocity":39,"Duration":385158,"SoundDuration":385158,"Delta":395826372},{"NoteNumber":87,"Velocity":56,"Duration":369594,"SoundDuration":369594,"Delta":396211531},{"NoteNumber":79,"Velocity":41,"Duration":369594,"SoundDuration":369594,"Delta":396211531},{"NoteNumber":63,"Velocity":39,"Duration":369594,"SoundDuration":369594,"Delta":396211531},{"NoteNumber":58,"Velocity":42,"Duration":747904,"SoundDuration":747904,"Delta":396211531},{"NoteNumber":77,"Velocity":44,"Duration":378309,"SoundDuration":378309,"Delta":396581125},{"NoteNumber":89,"Velocity":59,"Duration":378309,"SoundDuration":378309,"Delta":396581125},{"NoteNumber":62,"Velocity":44,"Duration":378309,"SoundDuration":378309,"Delta":396581125},{"NoteNumber":91,"Velocity":64,"Duration":1108783,"SoundDuration":1108783,"Delta":396959435},{"NoteNumber":75,"Velocity":47,"Duration":369594,"SoundDuration":369594,"Delta":396959435},{"NoteNumber":46,"Velocity":52,"Duration":739189,"SoundDuration":739189,"Delta":396959435},{"NoteNumber":60,"Velocity":48,"Duration":369594,"SoundDuration":369594,"Delta":396959435},{"NoteNumber":77,"Velocity":43,"Duration":369594,"SoundDuration":369594,"Delta":397329030},{"NoteNumber":62,"Velocity":39,"Duration":369594,"SoundDuration":369594,"Delta":397329030},{"NoteNumber":79,"Velocity":47,"Duration":369594,"SoundDuration":369594,"Delta":397698624},{"NoteNumber":63,"Velocity":39,"Duration":369594,"SoundDuration":369594,"Delta":397698624},{"NoteNumber":81,"Velocity":45,"Duration":378309,"SoundDuration":378309,"Delta":398068219},{"NoteNumber":89,"Velocity":60,"Duration":378309,"SoundDuration":378309,"Delta":398068219},{"NoteNumber":65,"Velocity":36,"Duration":378309,"SoundDuration":378309,"Delta":398068219},{"NoteNumber":87,"Velocity":58,"Duration":378309,"SoundDuration":378309,"Delta":398446529},{"NoteNumber":82,"Velocity":43,"Duration":378309,"SoundDuration":378309,"Delta":398446529},{"NoteNumber":58,"Velocity":42,"Duration":756619,"SoundDuration":756619,"Delta":398446529},{"NoteNumber":67,"Velocity":39,"Duration":378309,"SoundDuration":378309,"Delta":398446529},{"NoteNumber":83,"Velocity":42,"Duration":378309,"SoundDuration":378309,"Delta":398824839},{"NoteNumber":86,"Velocity":57,"Duration":378309,"SoundDuration":378309,"Delta":398824839},{"NoteNumber":68,"Velocity":44,"Duration":378309,"SoundDuration":378309,"Delta":398824839},{"NoteNumber":84,"Velocity":59,"Duration":734934,"SoundDuration":734934,"Delta":399203149},{"NoteNumber":46,"Velocity":42,"Duration":734934,"SoundDuration":734934,"Delta":399203149},{"NoteNumber":69,"Velocity":39,"Duration":367466,"SoundDuration":367466,"Delta":399203149},{"NoteNumber":82,"Velocity":54,"Duration":367467,"SoundDuration":367467,"Delta":399570616},{"NoteNumber":67,"Velocity":39,"Duration":367467,"SoundDuration":367467,"Delta":399570616},{"NoteNumber":84,"Velocity":54,"Duration":385158,"SoundDuration":385158,"Delta":399938083},{"NoteNumber":81,"Velocity":39,"Duration":385158,"SoundDuration":385158,"Delta":399938083},{"NoteNumber":65,"Velocity":41,"Duration":385158,"SoundDuration":385158,"Delta":399938083},{"NoteNumber":79,"Velocity":37,"Duration":367466,"SoundDuration":367466,"Delta":400323241},{"NoteNumber":86,"Velocity":50,"Duration":367466,"SoundDuration":367466,"Delta":400323241},{"NoteNumber":63,"Velocity":39,"Duration":367466,"SoundDuration":367466,"Delta":400323241},{"NoteNumber":77,"Velocity":42,"Duration":369594,"SoundDuration":369594,"Delta":400690708},{"NoteNumber":87,"Velocity":57,"Duration":739189,"SoundDuration":739189,"Delta":400690708},{"NoteNumber":58,"Velocity":41,"Duration":739189,"SoundDuration":739189,"Delta":400690708},{"NoteNumber":62,"Velocity":44,"Duration":369594,"SoundDuration":369594,"Delta":400690708},{"NoteNumber":75,"Velocity":47,"Duration":369594,"SoundDuration":369594,"Delta":401060303},{"NoteNumber":60,"Velocity":38,"Duration":369594,"SoundDuration":369594,"Delta":401060303},{"NoteNumber":89,"Velocity":62,"Duration":1108783,"SoundDuration":1108783,"Delta":401429897},{"NoteNumber":74,"Velocity":45,"Duration":369594,"SoundDuration":369594,"Delta":401429897},{"NoteNumber":46,"Velocity":50,"Duration":739189,"SoundDuration":739189,"Delta":401429897},{"NoteNumber":58,"Velocity":46,"Duration":369594,"SoundDuration":369594,"Delta":401429897},{"NoteNumber":75,"Velocity":47,"Duration":369594,"SoundDuration":369594,"Delta":401799492},{"NoteNumber":60,"Velocity":35,"Duration":369594,"SoundDuration":369594,"Delta":401799492},{"NoteNumber":77,"Velocity":47,"Duration":369594,"SoundDuration":369594,"Delta":402169086},{"NoteNumber":62,"Velocity":39,"Duration":369594,"SoundDuration":369594,"Delta":402169086},{"NoteNumber":87,"Velocity":52,"Duration":380565,"SoundDuration":380565,"Delta":402538681},{"NoteNumber":79,"Velocity":39,"Duration":380565,"SoundDuration":380565,"Delta":402538681},{"NoteNumber":63,"Velocity":35,"Duration":380565,"SoundDuration":380565,"Delta":402538681},{"NoteNumber":80,"Velocity":39,"Duration":380565,"SoundDuration":380565,"Delta":402919247},{"NoteNumber":86,"Velocity":54,"Duration":380565,"SoundDuration":380565,"Delta":402919247},{"NoteNumber":64,"Velocity":39,"Duration":380565,"SoundDuration":380565,"Delta":402919247},{"NoteNumber":58,"Velocity":42,"Duration":761132,"SoundDuration":761132,"Delta":402919247},{"NoteNumber":81,"Velocity":37,"Duration":380566,"SoundDuration":380566,"Delta":403299813},{"NoteNumber":84,"Velocity":50,"Duration":380566,"SoundDuration":380566,"Delta":403299813},{"NoteNumber":65,"Velocity":35,"Duration":380566,"SoundDuration":380566,"Delta":403299813},{"NoteNumber":82,"Velocity":54,"Duration":658141,"SoundDuration":658141,"Delta":403680379},{"NoteNumber":67,"Velocity":39,"Duration":376080,"SoundDuration":376080,"Delta":403680379},{"NoteNumber":46,"Velocity":42,"Duration":752161,"SoundDuration":752161,"Delta":403680379},{"NoteNumber":81,"Velocity":44,"Duration":188040,"SoundDuration":188040,"Delta":404056460},{"NoteNumber":65,"Velocity":34,"Duration":376080,"SoundDuration":376080,"Delta":404056460},{"NoteNumber":82,"Velocity":38,"Duration":188040,"SoundDuration":188040,"Delta":404244500},{"NoteNumber":84,"Velocity":37,"Duration":94020,"SoundDuration":94020,"Delta":404338520},{"NoteNumber":82,"Velocity":54,"Duration":385158,"SoundDuration":385158,"Delta":404432541},{"NoteNumber":79,"Velocity":38,"Duration":385158,"SoundDuration":385158,"Delta":404432541},{"NoteNumber":63,"Velocity":39,"Duration":385158,"SoundDuration":385158,"Delta":404432541},{"NoteNumber":84,"Velocity":52,"Duration":367466,"SoundDuration":367466,"Delta":404817699},{"NoteNumber":77,"Velocity":39,"Duration":367466,"SoundDuration":367466,"Delta":404817699},{"NoteNumber":62,"Velocity":34,"Duration":367466,"SoundDuration":367466,"Delta":404817699},{"NoteNumber":58,"Velocity":33,"Duration":467947,"SoundDuration":467947,"Delta":405093299},{"NoteNumber":75,"Velocity":50,"Duration":376080,"SoundDuration":376080,"Delta":405185166},{"NoteNumber":86,"Velocity":57,"Duration":752161,"SoundDuration":752161,"Delta":405185166},{"NoteNumber":60,"Velocity":39,"Duration":376080,"SoundDuration":376080,"Delta":405185166},{"NoteNumber":74,"Velocity":44,"Duration":376080,"SoundDuration":376080,"Delta":405561247},{"NoteNumber":58,"Velocity":45,"Duration":376080,"SoundDuration":376080,"Delta":405561247},{"NoteNumber":72,"Velocity":43,"Duration":375374,"SoundDuration":375374,"Delta":405937328},{"NoteNumber":87,"Velocity":58,"Duration":375374,"SoundDuration":375374,"Delta":405937328},{"NoteNumber":46,"Velocity":42,"Duration":753248,"SoundDuration":753248,"Delta":405937328},{"NoteNumber":57,"Velocity":39,"Duration":375374,"SoundDuration":375374,"Delta":405937328},{"NoteNumber":74,"Velocity":42,"Duration":377873,"SoundDuration":377873,"Delta":406312702},{"NoteNumber":86,"Velocity":57,"Duration":377873,"SoundDuration":377873,"Delta":406312702},{"NoteNumber":58,"Velocity":38,"Duration":377873,"SoundDuration":377873,"Delta":406312702},{"NoteNumber":75,"Velocity":40,"Duration":384405,"SoundDuration":384405,"Delta":406690576},{"NoteNumber":84,"Velocity":55,"Duration":384405,"SoundDuration":384405,"Delta":406690576},{"NoteNumber":60,"Velocity":36,"Duration":384405,"SoundDuration":384405,"Delta":406690576},{"NoteNumber":82,"Velocity":54,"Duration":391171,"SoundDuration":391171,"Delta":407074982},{"NoteNumber":76,"Velocity":33,"Duration":391171,"SoundDuration":391171,"Delta":407074982},{"NoteNumber":61,"Velocity":35,"Duration":391171,"SoundDuration":391171,"Delta":407074982},{"NoteNumber":77,"Velocity":33,"Duration":398230,"SoundDuration":398230,"Delta":407466153},{"NoteNumber":81,"Velocity":52,"Duration":398230,"SoundDuration":398230,"Delta":407466153},{"NoteNumber":58,"Velocity":35,"Duration":2524880,"SoundDuration":2524880,"Delta":407466153},{"NoteNumber":62,"Velocity":38,"Duration":398230,"SoundDuration":398230,"Delta":407466153},{"NoteNumber":75,"Velocity":31,"Duration":405768,"SoundDuration":405768,"Delta":407864384},{"NoteNumber":79,"Velocity":50,"Duration":405768,"SoundDuration":405768,"Delta":407864384},{"NoteNumber":63,"Velocity":34,"Duration":405768,"SoundDuration":405768,"Delta":407864384},{"NoteNumber":77,"Velocity":46,"Duration":419806,"SoundDuration":419806,"Delta":408270153},{"NoteNumber":74,"Velocity":34,"Duration":419806,"SoundDuration":419806,"Delta":408270153},{"NoteNumber":65,"Velocity":35,"Duration":419806,"SoundDuration":419806,"Delta":408270153},{"NoteNumber":75,"Velocity":43,"Duration":426313,"SoundDuration":426313,"Delta":408689960},{"NoteNumber":67,"Velocity":33,"Duration":426313,"SoundDuration":426313,"Delta":408689960},{"NoteNumber":72,"Velocity":34,"Duration":426313,"SoundDuration":426313,"Delta":408689960},{"NoteNumber":69,"Velocity":40,"Duration":107265,"SoundDuration":107265,"Delta":409009008},{"NoteNumber":70,"Velocity":33,"Duration":432969,"SoundDuration":432969,"Delta":409116273},{"NoteNumber":74,"Velocity":39,"Duration":432969,"SoundDuration":432969,"Delta":409116273},{"NoteNumber":69,"Velocity":32,"Duration":441790,"SoundDuration":441790,"Delta":409549243},{"NoteNumber":72,"Velocity":38,"Duration":441790,"SoundDuration":441790,"Delta":409549243},{"NoteNumber":67,"Velocity":21,"Duration":262306,"SoundDuration":262306,"Delta":409991034},{"NoteNumber":70,"Velocity":36,"Duration":262306,"SoundDuration":262306,"Delta":409991034},{"NoteNumber":65,"Velocity":18,"Duration":276866,"SoundDuration":276866,"Delta":410253340},{"NoteNumber":69,"Velocity":31,"Duration":276866,"SoundDuration":276866,"Delta":410253340},{"NoteNumber":74,"Velocity":35,"Duration":276866,"SoundDuration":276866,"Delta":410253340},{"NoteNumber":67,"Velocity":37,"Duration":290006,"SoundDuration":290006,"Delta":410530207},{"NoteNumber":63,"Velocity":26,"Duration":290006,"SoundDuration":290006,"Delta":410530207},{"NoteNumber":75,"Velocity":39,"Duration":290006,"SoundDuration":290006,"Delta":410530207},{"NoteNumber":65,"Velocity":41,"Duration":306877,"SoundDuration":306877,"Delta":410820213},{"NoteNumber":62,"Velocity":28,"Duration":306877,"SoundDuration":306877,"Delta":410820213},{"NoteNumber":77,"Velocity":42,"Duration":306877,"SoundDuration":306877,"Delta":410820213},{"NoteNumber":63,"Velocity":45,"Duration":3045418,"SoundDuration":3045418,"Delta":411127090},{"NoteNumber":60,"Velocity":32,"Duration":3045418,"SoundDuration":3045418,"Delta":411127090},{"NoteNumber":78,"Velocity":46,"Duration":1983472,"SoundDuration":1983472,"Delta":411127090},{"NoteNumber":70,"Velocity":39,"Duration":1983472,"SoundDuration":1983472,"Delta":411127090},{"NoteNumber":69,"Velocity":28,"Duration":1061946,"SoundDuration":1061946,"Delta":413110562},{"NoteNumber":77,"Velocity":34,"Duration":1061946,"SoundDuration":1061946,"Delta":413110562},{"NoteNumber":46,"Velocity":33,"Duration":3318584,"SoundDuration":3318584,"Delta":414039766},{"NoteNumber":77,"Velocity":38,"Duration":3185841,"SoundDuration":3185841,"Delta":414172509},{"NoteNumber":65,"Velocity":28,"Duration":3185841,"SoundDuration":3185841,"Delta":414172509},{"NoteNumber":70,"Velocity":32,"Duration":3185841,"SoundDuration":3185841,"Delta":414172509},{"NoteNumber":62,"Velocity":40,"Duration":3185841,"SoundDuration":3185841,"Delta":414172509},{"NoteNumber":51,"Velocity":38,"Duration":3185840,"SoundDuration":3185840,"Delta":417358350},{"NoteNumber":48,"Velocity":32,"Duration":3185840,"SoundDuration":3185840,"Delta":417358350},{"NoteNumber":58,"Velocity":32,"Duration":6446710,"SoundDuration":6446710,"Delta":417358350},{"NoteNumber":66,"Velocity":38,"Duration":6446710,"SoundDuration":6446710,"Delta":417358350},{"NoteNumber":52,"Velocity":28,"Duration":3260870,"SoundDuration":3260870,"Delta":420544191},{"NoteNumber":49,"Velocity":24,"Duration":3260870,"SoundDuration":3260870,"Delta":420544191},{"NoteNumber":36,"Velocity":34,"Duration":3077853,"SoundDuration":3077853,"Delta":424131148},{"NoteNumber":58,"Velocity":32,"Duration":3013546,"SoundDuration":3013546,"Delta":424457235},{"NoteNumber":67,"Velocity":38,"Duration":963081,"SoundDuration":963081,"Delta":424457235},{"NoteNumber":52,"Velocity":34,"Duration":2751766,"SoundDuration":2751766,"Delta":424457235},{"NoteNumber":69,"Velocity":34,"Duration":1003344,"SoundDuration":1003344,"Delta":425420317},{"NoteNumber":70,"Velocity":37,"Duration":1047120,"SoundDuration":1047120,"Delta":426423661},{"NoteNumber":41,"Velocity":35,"Duration":8925067,"SoundDuration":8925067,"Delta":427209001},{"NoteNumber":74,"Velocity":41,"Duration":1075268,"SoundDuration":1075268,"Delta":427470781},{"NoteNumber":65,"Velocity":37,"Duration":8663287,"SoundDuration":8663287,"Delta":427470781},{"NoteNumber":57,"Velocity":35,"Duration":3365275,"SoundDuration":3365275,"Delta":427470781},{"NoteNumber":51,"Velocity":35,"Duration":3365275,"SoundDuration":3365275,"Delta":427470781},{"NoteNumber":72,"Velocity":41,"Duration":1627754,"SoundDuration":1627754,"Delta":428546050},{"NoteNumber":70,"Velocity":31,"Duration":662251,"SoundDuration":662251,"Delta":430173805},{"NoteNumber":34,"Velocity":27,"Duration":5629137,"SoundDuration":5629137,"Delta":430504931},{"NoteNumber":58,"Velocity":31,"Duration":5298011,"SoundDuration":5298011,"Delta":430836057},{"NoteNumber":70,"Velocity":31,"Duration":5298011,"SoundDuration":5298011,"Delta":430836057},{"NoteNumber":50,"Velocity":27,"Duration":5298011,"SoundDuration":5298011,"Delta":430836057}],"license":{"name":"Creative Commons Attribution-ShareAlike 3.0 Germany","url":"http://creativecommons.org/licenses/by-sa/3.0/de/deed.en","text":"The MIDI files in this folder were downloaded from http://www.piano-midi.de and are licensed under the Creative Commons Attribution-ShareAlike 3.0 Germany license by Bernd Krueger.\n\nThe MIDI, audio(MP3, OGG) and video files of Bernd Krueger are licensed under the cc-by-sa Germany License . This means, that you can use and adapt the files, as long as you attribute to the copyright holder Name: Bernd Krueger Source: http://www.piano-midi.de The distribution or public playback of the files is only allowed under identical license conditions . The scores are open source.","attribution":"Bernd Krueger","attributionUrl":"http://www.piano-midi.de"}}