{"title":"Kreisleriana Teil 8","artist":"Schumann","durationMs":231653,"midiSha256":"7e15167bf40fdde453bf050dec5847fc927bb79f298d153163edd21cfa788e35","midiObject":[{"NoteNumber":62,"Velocity":27,"Duration":78423,"SoundDuration":78423,"Delta":0},{"NoteNumber":60,"Velocity":40,"Duration":116931,"SoundDuration":116931,"Delta":78423},{"NoteNumber":66,"Velocity":40,"Duration":116931,"SoundDuration":116931,"Delta":78423},{"NoteNumber":58,"Velocity":45,"Duration":111682,"SoundDuration":111682,"Delta":312287},{"NoteNumber":67,"Velocity":45,"Duration":111682,"SoundDuration":111682,"Delta":312287},{"NoteNumber":31,"Velocity":41,"Duration":2363173,"SoundDuration":2363173,"Delta":312287},{"NoteNumber":43,"Velocity":41,"Duration":3242370,"SoundDuration":3242370,"Delta":312287},{"NoteNumber":66,"Velocity":27,"Duration":78814,"SoundDuration":78814,"Delta":647333},{"NoteNumber":62,"Velocity":42,"Duration":114538,"SoundDuration":114538,"Delta":726148},{"NoteNumber":69,"Velocity":42,"Duration":114538,"SoundDuration":114538,"Delta":726148},{"NoteNumber":67,"Velocity":45,"Duration":110889,"SoundDuration":110889,"Delta":955225},{"NoteNumber":70,"Velocity":45,"Duration":110889,"SoundDuration":110889,"Delta":955225},{"NoteNumber":69,"Velocity":26,"Duration":79013,"SoundDuration":79013,"Delta":1293237},{"NoteNumber":67,"Velocity":45,"Duration":116233,"SoundDuration":116233,"Delta":1372251},{"NoteNumber":72,"Velocity":45,"Duration":116233,"SoundDuration":116233,"Delta":1372251},{"NoteNumber":70,"Velocity":45,"Duration":105656,"SoundDuration":105656,"Delta":1604719},{"NoteNumber":74,"Velocity":45,"Duration":105656,"SoundDuration":105656,"Delta":1604719},{"NoteNumber":75,"Velocity":26,"Duration":73735,"SoundDuration":73735,"Delta":1944149},{"NoteNumber":72,"Velocity":35,"Duration":232467,"SoundDuration":232467,"Delta":2017885},{"NoteNumber":79,"Velocity":42,"Duration":232467,"SoundDuration":232467,"Delta":2017885},{"NoteNumber":70,"Velocity":35,"Duration":229920,"SoundDuration":229920,"Delta":2250352},{"NoteNumber":74,"Velocity":42,"Duration":229920,"SoundDuration":229920,"Delta":2250352},{"NoteNumber":67,"Velocity":28,"Duration":80226,"SoundDuration":80226,"Delta":2595233},{"NoteNumber":62,"Velocity":45,"Duration":115803,"SoundDuration":115803,"Delta":2675460},{"NoteNumber":70,"Velocity":45,"Duration":115803,"SoundDuration":115803,"Delta":2675460},{"NoteNumber":31,"Velocity":33,"Duration":231606,"SoundDuration":231606,"Delta":2675460},{"NoteNumber":69,"Velocity":47,"Duration":111284,"SoundDuration":111284,"Delta":2907066},{"NoteNumber":36,"Velocity":42,"Duration":415122,"SoundDuration":415122,"Delta":2907066},{"NoteNumber":69,"Velocity":36,"Duration":81269,"SoundDuration":81269,"Delta":3240919},{"NoteNumber":63,"Velocity":45,"Duration":116234,"SoundDuration":116234,"Delta":3322189},{"NoteNumber":72,"Velocity":45,"Duration":116234,"SoundDuration":116234,"Delta":3322189},{"NoteNumber":33,"Velocity":36,"Duration":232467,"SoundDuration":232467,"Delta":3322189},{"NoteNumber":70,"Velocity":46,"Duration":112485,"SoundDuration":112485,"Delta":3554657},{"NoteNumber":38,"Velocity":43,"Duration":4619357,"SoundDuration":4619357,"Delta":3554657},{"NoteNumber":66,"Velocity":29,"Duration":82992,"SoundDuration":82992,"Delta":3892115},{"NoteNumber":60,"Velocity":36,"Duration":119789,"SoundDuration":119789,"Delta":3975107},{"NoteNumber":69,"Velocity":36,"Duration":119789,"SoundDuration":119789,"Delta":3975107},{"NoteNumber":26,"Velocity":35,"Duration":239578,"SoundDuration":239578,"Delta":3975107},{"NoteNumber":58,"Velocity":42,"Duration":116234,"SoundDuration":116234,"Delta":4214686},{"NoteNumber":67,"Velocity":42,"Duration":116234,"SoundDuration":116234,"Delta":4214686},{"NoteNumber":31,"Velocity":43,"Duration":2409774,"SoundDuration":2409774,"Delta":4214686},{"NoteNumber":60,"Velocity":22,"Duration":85246,"SoundDuration":85246,"Delta":4563388},{"NoteNumber":57,"Velocity":36,"Duration":120714,"SoundDuration":120714,"Delta":4648635},{"NoteNumber":63,"Velocity":36,"Duration":120714,"SoundDuration":120714,"Delta":4648635},{"NoteNumber":58,"Velocity":36,"Duration":120714,"SoundDuration":120714,"Delta":4890064},{"NoteNumber":62,"Velocity":36,"Duration":120714,"SoundDuration":120714,"Delta":4890064},{"NoteNumber":62,"Velocity":27,"Duration":78423,"SoundDuration":78423,"Delta":5252208},{"NoteNumber":60,"Velocity":40,"Duration":116931,"SoundDuration":116931,"Delta":5330632},{"NoteNumber":66,"Velocity":40,"Duration":116931,"SoundDuration":116931,"Delta":5330632},{"NoteNumber":58,"Velocity":45,"Duration":111682,"SoundDuration":111682,"Delta":5564495},{"NoteNumber":67,"Velocity":45,"Duration":111682,"SoundDuration":111682,"Delta":5564495},{"NoteNumber":66,"Velocity":27,"Duration":78814,"SoundDuration":78814,"Delta":5899541},{"NoteNumber":62,"Velocity":42,"Duration":114538,"SoundDuration":114538,"Delta":5978356},{"NoteNumber":69,"Velocity":42,"Duration":114538,"SoundDuration":114538,"Delta":5978356},{"NoteNumber":67,"Velocity":45,"Duration":110889,"SoundDuration":110889,"Delta":6207434},{"NoteNumber":70,"Velocity":45,"Duration":110889,"SoundDuration":110889,"Delta":6207434},{"NoteNumber":69,"Velocity":26,"Duration":79013,"SoundDuration":79013,"Delta":6545446},{"NoteNumber":67,"Velocity":45,"Duration":116234,"SoundDuration":116234,"Delta":6624460},{"NoteNumber":72,"Velocity":45,"Duration":116234,"SoundDuration":116234,"Delta":6624460},{"NoteNumber":31,"Velocity":33,"Duration":1317948,"SoundDuration":1317948,"Delta":6624460},{"NoteNumber":70,"Velocity":45,"Duration":105656,"SoundDuration":105656,"Delta":6856928},{"NoteNumber":74,"Velocity":45,"Duration":105656,"SoundDuration":105656,"Delta":6856928},{"NoteNumber":75,"Velocity":26,"Duration":73735,"SoundDuration":73735,"Delta":7211097},{"NoteNumber":72,"Velocity":35,"Duration":232468,"SoundDuration":232468,"Delta":7284833},{"NoteNumber":79,"Velocity":42,"Duration":232468,"SoundDuration":232468,"Delta":7284833},{"NoteNumber":70,"Velocity":35,"Duration":229920,"SoundDuration":229920,"Delta":7517301},{"NoteNumber":74,"Velocity":42,"Duration":229920,"SoundDuration":229920,"Delta":7517301},{"NoteNumber":67,"Velocity":28,"Duration":80226,"SoundDuration":80226,"Delta":7862182},{"NoteNumber":62,"Velocity":45,"Duration":115803,"SoundDuration":115803,"Delta":7942408},{"NoteNumber":70,"Velocity":45,"Duration":115803,"SoundDuration":115803,"Delta":7942408},{"NoteNumber":31,"Velocity":33,"Duration":231606,"SoundDuration":231606,"Delta":7942408},{"NoteNumber":69,"Velocity":47,"Duration":111284,"SoundDuration":111284,"Delta":8174015},{"NoteNumber":36,"Velocity":42,"Duration":415122,"SoundDuration":415122,"Delta":8174015},{"NoteNumber":69,"Velocity":36,"Duration":81269,"SoundDuration":81269,"Delta":8507868},{"NoteNumber":63,"Velocity":45,"Duration":116234,"SoundDuration":116234,"Delta":8589138},{"NoteNumber":72,"Velocity":45,"Duration":116234,"SoundDuration":116234,"Delta":8589138},{"NoteNumber":33,"Velocity":36,"Duration":232468,"SoundDuration":232468,"Delta":8589138},{"NoteNumber":70,"Velocity":46,"Duration":112486,"SoundDuration":112486,"Delta":8821606},{"NoteNumber":38,"Velocity":43,"Duration":1576836,"SoundDuration":1576836,"Delta":8821606},{"NoteNumber":66,"Velocity":29,"Duration":82992,"SoundDuration":82992,"Delta":9159064},{"NoteNumber":60,"Velocity":36,"Duration":119789,"SoundDuration":119789,"Delta":9242056},{"NoteNumber":69,"Velocity":36,"Duration":119789,"SoundDuration":119789,"Delta":9242056},{"NoteNumber":26,"Velocity":35,"Duration":239578,"SoundDuration":239578,"Delta":9242056},{"NoteNumber":58,"Velocity":42,"Duration":116234,"SoundDuration":116234,"Delta":9481634},{"NoteNumber":67,"Velocity":42,"Duration":116234,"SoundDuration":116234,"Delta":9481634},{"NoteNumber":31,"Velocity":43,"Duration":916807,"SoundDuration":916807,"Delta":9481634},{"NoteNumber":58,"Velocity":35,"Duration":85246,"SoundDuration":85246,"Delta":9830336},{"NoteNumber":62,"Velocity":41,"Duration":241429,"SoundDuration":241429,"Delta":9915583},{"NoteNumber":55,"Velocity":39,"Duration":120714,"SoundDuration":120714,"Delta":10157013},{"NoteNumber":58,"Velocity":27,"Duration":78423,"SoundDuration":78423,"Delta":10519157},{"NoteNumber":55,"Velocity":40,"Duration":116931,"SoundDuration":116931,"Delta":10597580},{"NoteNumber":62,"Velocity":40,"Duration":116931,"SoundDuration":116931,"Delta":10597580},{"NoteNumber":54,"Velocity":45,"Duration":111682,"SoundDuration":111682,"Delta":10831444},{"NoteNumber":62,"Velocity":45,"Duration":111682,"SoundDuration":111682,"Delta":10831444},{"NoteNumber":38,"Velocity":41,"Duration":2363173,"SoundDuration":2363173,"Delta":10831444},{"NoteNumber":50,"Velocity":41,"Duration":2363173,"SoundDuration":2363173,"Delta":10831444},{"NoteNumber":58,"Velocity":27,"Duration":78814,"SoundDuration":78814,"Delta":11166490},{"NoteNumber":55,"Velocity":42,"Duration":114538,"SoundDuration":114538,"Delta":11245304},{"NoteNumber":64,"Velocity":42,"Duration":114538,"SoundDuration":114538,"Delta":11245304},{"NoteNumber":57,"Velocity":45,"Duration":110889,"SoundDuration":110889,"Delta":11474382},{"NoteNumber":66,"Velocity":45,"Duration":110889,"SoundDuration":110889,"Delta":11474382},{"NoteNumber":62,"Velocity":26,"Duration":79014,"SoundDuration":79014,"Delta":11812394},{"NoteNumber":58,"Velocity":45,"Duration":116234,"SoundDuration":116234,"Delta":11891408},{"NoteNumber":67,"Velocity":45,"Duration":116234,"SoundDuration":116234,"Delta":11891408},{"NoteNumber":60,"Velocity":45,"Duration":105655,"SoundDuration":105655,"Delta":12123876},{"NoteNumber":69,"Velocity":45,"Duration":105655,"SoundDuration":105655,"Delta":12123876},{"NoteNumber":65,"Velocity":26,"Duration":73735,"SoundDuration":73735,"Delta":12463306},{"NoteNumber":62,"Velocity":46,"Duration":116234,"SoundDuration":116234,"Delta":12537041},{"NoteNumber":71,"Velocity":46,"Duration":116234,"SoundDuration":116234,"Delta":12537041},{"NoteNumber":63,"Velocity":50,"Duration":114960,"SoundDuration":114960,"Delta":12769509},{"NoteNumber":72,"Velocity":50,"Duration":114960,"SoundDuration":114960,"Delta":12769509},{"NoteNumber":68,"Velocity":28,"Duration":80226,"SoundDuration":80226,"Delta":13114390},{"NoteNumber":65,"Velocity":45,"Duration":115803,"SoundDuration":115803,"Delta":13194617},{"NoteNumber":74,"Velocity":45,"Duration":115803,"SoundDuration":115803,"Delta":13194617},{"NoteNumber":31,"Velocity":33,"Duration":3296532,"SoundDuration":3296532,"Delta":13194617},{"NoteNumber":43,"Velocity":33,"Duration":3296532,"SoundDuration":3296532,"Delta":13194617},{"NoteNumber":63,"Velocity":45,"Duration":111284,"SoundDuration":111284,"Delta":13426223},{"NoteNumber":72,"Velocity":47,"Duration":111284,"SoundDuration":111284,"Delta":13426223},{"NoteNumber":67,"Velocity":36,"Duration":81269,"SoundDuration":81269,"Delta":13760076},{"NoteNumber":62,"Velocity":45,"Duration":116234,"SoundDuration":116234,"Delta":13841346},{"NoteNumber":71,"Velocity":45,"Duration":116234,"SoundDuration":116234,"Delta":13841346},{"NoteNumber":63,"Velocity":45,"Duration":112443,"SoundDuration":112443,"Delta":14073814},{"NoteNumber":72,"Velocity":46,"Duration":112443,"SoundDuration":112443,"Delta":14073814},{"NoteNumber":68,"Velocity":29,"Duration":82992,"SoundDuration":82992,"Delta":14411145},{"NoteNumber":65,"Velocity":36,"Duration":119789,"SoundDuration":119789,"Delta":14494138},{"NoteNumber":74,"Velocity":36,"Duration":119789,"SoundDuration":119789,"Delta":14494138},{"NoteNumber":63,"Velocity":42,"Duration":114155,"SoundDuration":114155,"Delta":14733716},{"NoteNumber":72,"Velocity":42,"Duration":114155,"SoundDuration":114155,"Delta":14733716},{"NoteNumber":67,"Velocity":22,"Duration":85246,"SoundDuration":85246,"Delta":15076182},{"NoteNumber":62,"Velocity":36,"Duration":120714,"SoundDuration":120714,"Delta":15161429},{"NoteNumber":71,"Velocity":36,"Duration":120714,"SoundDuration":120714,"Delta":15161429},{"NoteNumber":63,"Velocity":36,"Duration":120714,"SoundDuration":120714,"Delta":15402858},{"NoteNumber":72,"Velocity":36,"Duration":120714,"SoundDuration":120714,"Delta":15402858},{"NoteNumber":62,"Velocity":27,"Duration":78423,"SoundDuration":78423,"Delta":15765002},{"NoteNumber":58,"Velocity":40,"Duration":116931,"SoundDuration":116931,"Delta":15843426},{"NoteNumber":65,"Velocity":40,"Duration":116931,"SoundDuration":116931,"Delta":15843426},{"NoteNumber":57,"Velocity":45,"Duration":111681,"SoundDuration":111681,"Delta":16077289},{"NoteNumber":65,"Velocity":45,"Duration":111681,"SoundDuration":111681,"Delta":16077289},{"NoteNumber":63,"Velocity":27,"Duration":78814,"SoundDuration":78814,"Delta":16412335},{"NoteNumber":58,"Velocity":42,"Duration":114538,"SoundDuration":114538,"Delta":16491150},{"NoteNumber":67,"Velocity":42,"Duration":114538,"SoundDuration":114538,"Delta":16491150},{"NoteNumber":38,"Velocity":41,"Duration":1291736,"SoundDuration":1291736,"Delta":16491150},{"NoteNumber":50,"Velocity":47,"Duration":1291736,"SoundDuration":1291736,"Delta":16491150},{"NoteNumber":60,"Velocity":45,"Duration":110889,"SoundDuration":110889,"Delta":16720227},{"NoteNumber":69,"Velocity":45,"Duration":110889,"SoundDuration":110889,"Delta":16720227},{"NoteNumber":65,"Velocity":26,"Duration":79014,"SoundDuration":79014,"Delta":17058240},{"NoteNumber":62,"Velocity":45,"Duration":116233,"SoundDuration":116233,"Delta":17137254},{"NoteNumber":70,"Velocity":45,"Duration":116233,"SoundDuration":116233,"Delta":17137254},{"NoteNumber":63,"Velocity":45,"Duration":105655,"SoundDuration":105655,"Delta":17369722},{"NoteNumber":72,"Velocity":45,"Duration":105655,"SoundDuration":105655,"Delta":17369722},{"NoteNumber":68,"Velocity":26,"Duration":73735,"SoundDuration":73735,"Delta":17709151},{"NoteNumber":65,"Velocity":50,"Duration":116233,"SoundDuration":116233,"Delta":17782887},{"NoteNumber":74,"Velocity":50,"Duration":116233,"SoundDuration":116233,"Delta":17782887},{"NoteNumber":34,"Velocity":33,"Duration":1558296,"SoundDuration":1558296,"Delta":17782887},{"NoteNumber":46,"Velocity":38,"Duration":1558296,"SoundDuration":1558296,"Delta":17782887},{"NoteNumber":67,"Velocity":50,"Duration":114960,"SoundDuration":114960,"Delta":18015355},{"NoteNumber":75,"Velocity":50,"Duration":114960,"SoundDuration":114960,"Delta":18015355},{"NoteNumber":71,"Velocity":28,"Duration":80226,"SoundDuration":80226,"Delta":18360236},{"NoteNumber":68,"Velocity":50,"Duration":115803,"SoundDuration":115803,"Delta":18440462},{"NoteNumber":77,"Velocity":50,"Duration":115803,"SoundDuration":115803,"Delta":18440462},{"NoteNumber":72,"Velocity":54,"Duration":113722,"SoundDuration":113722,"Delta":18672069},{"NoteNumber":67,"Velocity":54,"Duration":113722,"SoundDuration":113722,"Delta":18672069},{"NoteNumber":75,"Velocity":54,"Duration":113722,"SoundDuration":113722,"Delta":18672069},{"NoteNumber":68,"Velocity":42,"Duration":83845,"SoundDuration":83845,"Delta":19013236},{"NoteNumber":65,"Velocity":51,"Duration":122050,"SoundDuration":122050,"Delta":19097082},{"NoteNumber":74,"Velocity":51,"Duration":122050,"SoundDuration":122050,"Delta":19097082},{"NoteNumber":69,"Velocity":45,"Duration":117278,"SoundDuration":117278,"Delta":19341183},{"NoteNumber":63,"Velocity":45,"Duration":117278,"SoundDuration":117278,"Delta":19341183},{"NoteNumber":72,"Velocity":46,"Duration":117278,"SoundDuration":117278,"Delta":19341183},{"NoteNumber":36,"Velocity":27,"Duration":437846,"SoundDuration":437846,"Delta":19341183},{"NoteNumber":48,"Velocity":27,"Duration":437846,"SoundDuration":437846,"Delta":19341183},{"NoteNumber":67,"Velocity":29,"Duration":86009,"SoundDuration":86009,"Delta":19693020},{"NoteNumber":64,"Velocity":36,"Duration":127226,"SoundDuration":127226,"Delta":19779029},{"NoteNumber":70,"Velocity":36,"Duration":127226,"SoundDuration":127226,"Delta":19779029},{"NoteNumber":37,"Velocity":25,"Duration":254453,"SoundDuration":254453,"Delta":19779029},{"NoteNumber":49,"Velocity":25,"Duration":254453,"SoundDuration":254453,"Delta":19779029},{"NoteNumber":66,"Velocity":42,"Duration":125104,"SoundDuration":125104,"Delta":20033482},{"NoteNumber":69,"Velocity":42,"Duration":125104,"SoundDuration":125104,"Delta":20033482},{"NoteNumber":38,"Velocity":27,"Duration":1208185,"SoundDuration":1208185,"Delta":20033482},{"NoteNumber":50,"Velocity":33,"Duration":1208185,"SoundDuration":1208185,"Delta":20033482},{"NoteNumber":64,"Velocity":22,"Duration":90144,"SoundDuration":90144,"Delta":20408795},{"NoteNumber":61,"Velocity":36,"Duration":132860,"SoundDuration":132860,"Delta":20498939},{"NoteNumber":67,"Velocity":36,"Duration":132860,"SoundDuration":132860,"Delta":20498939},{"NoteNumber":62,"Velocity":36,"Duration":132860,"SoundDuration":132860,"Delta":20764661},{"NoteNumber":66,"Velocity":36,"Duration":132860,"SoundDuration":132860,"Delta":20764661},{"NoteNumber":62,"Velocity":27,"Duration":78423,"SoundDuration":78423,"Delta":21163244},{"NoteNumber":60,"Velocity":40,"Duration":116931,"SoundDuration":116931,"Delta":21241668},{"NoteNumber":66,"Velocity":40,"Duration":116931,"SoundDuration":116931,"Delta":21241668},{"NoteNumber":38,"Velocity":27,"Duration":116931,"SoundDuration":116931,"Delta":21241668},{"NoteNumber":50,"Velocity":27,"Duration":116931,"SoundDuration":116931,"Delta":21241668},{"NoteNumber":58,"Velocity":45,"Duration":111681,"SoundDuration":111681,"Delta":21475531},{"NoteNumber":67,"Velocity":45,"Duration":111681,"SoundDuration":111681,"Delta":21475531},{"NoteNumber":31,"Velocity":32,"Duration":111681,"SoundDuration":111681,"Delta":21475531},{"NoteNumber":43,"Velocity":41,"Duration":111681,"SoundDuration":111681,"Delta":21475531},{"NoteNumber":66,"Velocity":27,"Duration":78814,"SoundDuration":78814,"Delta":21810577},{"NoteNumber":62,"Velocity":42,"Duration":114538,"SoundDuration":114538,"Delta":21889392},{"NoteNumber":69,"Velocity":42,"Duration":114538,"SoundDuration":114538,"Delta":21889392},{"NoteNumber":31,"Velocity":27,"Duration":114538,"SoundDuration":114538,"Delta":21889392},{"NoteNumber":43,"Velocity":35,"Duration":114538,"SoundDuration":114538,"Delta":21889392},{"NoteNumber":67,"Velocity":45,"Duration":110889,"SoundDuration":110889,"Delta":22118469},{"NoteNumber":70,"Velocity":45,"Duration":110889,"SoundDuration":110889,"Delta":22118469},{"NoteNumber":31,"Velocity":32,"Duration":110889,"SoundDuration":110889,"Delta":22118469},{"NoteNumber":43,"Velocity":41,"Duration":110889,"SoundDuration":110889,"Delta":22118469},{"NoteNumber":69,"Velocity":26,"Duration":79014,"SoundDuration":79014,"Delta":22456482},{"NoteNumber":67,"Velocity":45,"Duration":116233,"SoundDuration":116233,"Delta":22535496},{"NoteNumber":72,"Velocity":45,"Duration":116233,"SoundDuration":116233,"Delta":22535496},{"NoteNumber":31,"Velocity":32,"Duration":1323605,"SoundDuration":1323605,"Delta":22535496},{"NoteNumber":43,"Velocity":41,"Duration":2202803,"SoundDuration":2202803,"Delta":22535496},{"NoteNumber":70,"Velocity":45,"Duration":105655,"SoundDuration":105655,"Delta":22767964},{"NoteNumber":74,"Velocity":45,"Duration":105655,"SoundDuration":105655,"Delta":22767964},{"NoteNumber":75,"Velocity":26,"Duration":73735,"SoundDuration":73735,"Delta":23127790},{"NoteNumber":72,"Velocity":35,"Duration":232468,"SoundDuration":232468,"Delta":23201526},{"NoteNumber":79,"Velocity":42,"Duration":232468,"SoundDuration":232468,"Delta":23201526},{"NoteNumber":70,"Velocity":35,"Duration":229920,"SoundDuration":229920,"Delta":23433994},{"NoteNumber":74,"Velocity":42,"Duration":229920,"SoundDuration":229920,"Delta":23433994},{"NoteNumber":67,"Velocity":28,"Duration":80226,"SoundDuration":80226,"Delta":23778875},{"NoteNumber":62,"Velocity":45,"Duration":115803,"SoundDuration":115803,"Delta":23859102},{"NoteNumber":70,"Velocity":45,"Duration":115803,"SoundDuration":115803,"Delta":23859102},{"NoteNumber":31,"Velocity":33,"Duration":231606,"SoundDuration":231606,"Delta":23859102},{"NoteNumber":69,"Velocity":47,"Duration":111284,"SoundDuration":111284,"Delta":24090708},{"NoteNumber":36,"Velocity":42,"Duration":415122,"SoundDuration":415122,"Delta":24090708},{"NoteNumber":69,"Velocity":36,"Duration":81269,"SoundDuration":81269,"Delta":24424561},{"NoteNumber":63,"Velocity":45,"Duration":116233,"SoundDuration":116233,"Delta":24505831},{"NoteNumber":72,"Velocity":45,"Duration":116233,"SoundDuration":116233,"Delta":24505831},{"NoteNumber":33,"Velocity":36,"Duration":232468,"SoundDuration":232468,"Delta":24505831},{"NoteNumber":70,"Velocity":46,"Duration":112486,"SoundDuration":112486,"Delta":24738299},{"NoteNumber":38,"Velocity":43,"Duration":4604617,"SoundDuration":4604617,"Delta":24738299},{"NoteNumber":66,"Velocity":29,"Duration":82992,"SoundDuration":82992,"Delta":25075757},{"NoteNumber":60,"Velocity":36,"Duration":119789,"SoundDuration":119789,"Delta":25158749},{"NoteNumber":69,"Velocity":36,"Duration":119789,"SoundDuration":119789,"Delta":25158749},{"NoteNumber":26,"Velocity":35,"Duration":239578,"SoundDuration":239578,"Delta":25158749},{"NoteNumber":58,"Velocity":42,"Duration":116233,"SoundDuration":116233,"Delta":25398328},{"NoteNumber":67,"Velocity":42,"Duration":116233,"SoundDuration":116233,"Delta":25398328},{"NoteNumber":31,"Velocity":43,"Duration":1763669,"SoundDuration":1763669,"Delta":25398328},{"NoteNumber":60,"Velocity":22,"Duration":85246,"SoundDuration":85246,"Delta":25747030},{"NoteNumber":57,"Velocity":36,"Duration":120714,"SoundDuration":120714,"Delta":25832276},{"NoteNumber":63,"Velocity":36,"Duration":120714,"SoundDuration":120714,"Delta":25832276},{"NoteNumber":58,"Velocity":36,"Duration":120714,"SoundDuration":120714,"Delta":26073706},{"NoteNumber":62,"Velocity":36,"Duration":120714,"SoundDuration":120714,"Delta":26073706},{"NoteNumber":62,"Velocity":27,"Duration":78423,"SoundDuration":78423,"Delta":26435850},{"NoteNumber":60,"Velocity":40,"Duration":116931,"SoundDuration":116931,"Delta":26514273},{"NoteNumber":66,"Velocity":40,"Duration":116931,"SoundDuration":116931,"Delta":26514273},{"NoteNumber":58,"Velocity":45,"Duration":111681,"SoundDuration":111681,"Delta":26748137},{"NoteNumber":67,"Velocity":45,"Duration":111681,"SoundDuration":111681,"Delta":26748137},{"NoteNumber":66,"Velocity":27,"Duration":78814,"SoundDuration":78814,"Delta":27083183},{"NoteNumber":62,"Velocity":42,"Duration":114538,"SoundDuration":114538,"Delta":27161998},{"NoteNumber":69,"Velocity":42,"Duration":114538,"SoundDuration":114538,"Delta":27161998},{"NoteNumber":31,"Velocity":33,"Duration":646103,"SoundDuration":646103,"Delta":27161998},{"NoteNumber":67,"Velocity":45,"Duration":110889,"SoundDuration":110889,"Delta":27391075},{"NoteNumber":70,"Velocity":45,"Duration":110889,"SoundDuration":110889,"Delta":27391075},{"NoteNumber":69,"Velocity":26,"Duration":79014,"SoundDuration":79014,"Delta":27729087},{"NoteNumber":67,"Velocity":45,"Duration":116233,"SoundDuration":116233,"Delta":27808101},{"NoteNumber":72,"Velocity":45,"Duration":116233,"SoundDuration":116233,"Delta":27808101},{"NoteNumber":31,"Velocity":33,"Duration":1303208,"SoundDuration":1303208,"Delta":27808101},{"NoteNumber":70,"Velocity":45,"Duration":105655,"SoundDuration":105655,"Delta":28040569},{"NoteNumber":74,"Velocity":45,"Duration":105655,"SoundDuration":105655,"Delta":28040569},{"NoteNumber":75,"Velocity":26,"Duration":73735,"SoundDuration":73735,"Delta":28379999},{"NoteNumber":72,"Velocity":50,"Duration":232468,"SoundDuration":232468,"Delta":28453734},{"NoteNumber":79,"Velocity":50,"Duration":232468,"SoundDuration":232468,"Delta":28453734},{"NoteNumber":70,"Velocity":50,"Duration":229920,"SoundDuration":229920,"Delta":28686202},{"NoteNumber":74,"Velocity":50,"Duration":229920,"SoundDuration":229920,"Delta":28686202},{"NoteNumber":67,"Velocity":28,"Duration":80226,"SoundDuration":80226,"Delta":29031083},{"NoteNumber":62,"Velocity":45,"Duration":115803,"SoundDuration":115803,"Delta":29111310},{"NoteNumber":70,"Velocity":45,"Duration":115803,"SoundDuration":115803,"Delta":29111310},{"NoteNumber":31,"Velocity":33,"Duration":231606,"SoundDuration":231606,"Delta":29111310},{"NoteNumber":69,"Velocity":47,"Duration":111284,"SoundDuration":111284,"Delta":29342917},{"NoteNumber":36,"Velocity":42,"Duration":415122,"SoundDuration":415122,"Delta":29342917},{"NoteNumber":69,"Velocity":36,"Duration":81269,"SoundDuration":81269,"Delta":29676769},{"NoteNumber":63,"Velocity":45,"Duration":116233,"SoundDuration":116233,"Delta":29758039},{"NoteNumber":72,"Velocity":45,"Duration":116233,"SoundDuration":116233,"Delta":29758039},{"NoteNumber":33,"Velocity":36,"Duration":232468,"SoundDuration":232468,"Delta":29758039},{"NoteNumber":70,"Velocity":46,"Duration":112486,"SoundDuration":112486,"Delta":29990507},{"NoteNumber":38,"Velocity":43,"Duration":1592867,"SoundDuration":1592867,"Delta":29990507},{"NoteNumber":66,"Velocity":29,"Duration":82992,"SoundDuration":82992,"Delta":30327965},{"NoteNumber":60,"Velocity":36,"Duration":119789,"SoundDuration":119789,"Delta":30410958},{"NoteNumber":69,"Velocity":36,"Duration":119789,"SoundDuration":119789,"Delta":30410958},{"NoteNumber":26,"Velocity":35,"Duration":239578,"SoundDuration":239578,"Delta":30410958},{"NoteNumber":58,"Velocity":42,"Duration":116233,"SoundDuration":116233,"Delta":30650536},{"NoteNumber":67,"Velocity":42,"Duration":116233,"SoundDuration":116233,"Delta":30650536},{"NoteNumber":31,"Velocity":43,"Duration":932838,"SoundDuration":932838,"Delta":30650536},{"NoteNumber":58,"Velocity":35,"Duration":85246,"SoundDuration":85246,"Delta":30999238},{"NoteNumber":62,"Velocity":41,"Duration":257731,"SoundDuration":257731,"Delta":31084485},{"NoteNumber":55,"Velocity":39,"Duration":120578,"SoundDuration":120578,"Delta":31342217},{"NoteNumber":58,"Velocity":27,"Duration":78423,"SoundDuration":78423,"Delta":31703953},{"NoteNumber":55,"Velocity":40,"Duration":116931,"SoundDuration":116931,"Delta":31782376},{"NoteNumber":62,"Velocity":40,"Duration":116931,"SoundDuration":116931,"Delta":31782376},{"NoteNumber":54,"Velocity":45,"Duration":111682,"SoundDuration":111682,"Delta":32016240},{"NoteNumber":62,"Velocity":45,"Duration":111682,"SoundDuration":111682,"Delta":32016240},{"NoteNumber":38,"Velocity":41,"Duration":2363173,"SoundDuration":2363173,"Delta":32016240},{"NoteNumber":50,"Velocity":41,"Duration":2363173,"SoundDuration":2363173,"Delta":32016240},{"NoteNumber":58,"Velocity":27,"Duration":78814,"SoundDuration":78814,"Delta":32351286},{"NoteNumber":55,"Velocity":42,"Duration":114538,"SoundDuration":114538,"Delta":32430101},{"NoteNumber":64,"Velocity":42,"Duration":114538,"SoundDuration":114538,"Delta":32430101},{"NoteNumber":57,"Velocity":45,"Duration":110889,"SoundDuration":110889,"Delta":32659178},{"NoteNumber":66,"Velocity":45,"Duration":110889,"SoundDuration":110889,"Delta":32659178},{"NoteNumber":62,"Velocity":26,"Duration":79014,"SoundDuration":79014,"Delta":32997191},{"NoteNumber":58,"Velocity":45,"Duration":116233,"SoundDuration":116233,"Delta":33076205},{"NoteNumber":67,"Velocity":45,"Duration":116233,"SoundDuration":116233,"Delta":33076205},{"NoteNumber":60,"Velocity":45,"Duration":105656,"SoundDuration":105656,"Delta":33308673},{"NoteNumber":69,"Velocity":45,"Duration":105656,"SoundDuration":105656,"Delta":33308673},{"NoteNumber":65,"Velocity":26,"Duration":73735,"SoundDuration":73735,"Delta":33648102},{"NoteNumber":62,"Velocity":46,"Duration":116233,"SoundDuration":116233,"Delta":33721838},{"NoteNumber":71,"Velocity":46,"Duration":116233,"SoundDuration":116233,"Delta":33721838},{"NoteNumber":63,"Velocity":50,"Duration":114960,"SoundDuration":114960,"Delta":33954305},{"NoteNumber":72,"Velocity":50,"Duration":114960,"SoundDuration":114960,"Delta":33954305},{"NoteNumber":68,"Velocity":28,"Duration":80226,"SoundDuration":80226,"Delta":34299186},{"NoteNumber":65,"Velocity":45,"Duration":115803,"SoundDuration":115803,"Delta":34379413},{"NoteNumber":74,"Velocity":45,"Duration":115803,"SoundDuration":115803,"Delta":34379413},{"NoteNumber":31,"Velocity":33,"Duration":3302895,"SoundDuration":3302895,"Delta":34379413},{"NoteNumber":43,"Velocity":33,"Duration":3302895,"SoundDuration":3302895,"Delta":34379413},{"NoteNumber":63,"Velocity":45,"Duration":111284,"SoundDuration":111284,"Delta":34611019},{"NoteNumber":72,"Velocity":47,"Duration":111284,"SoundDuration":111284,"Delta":34611019},{"NoteNumber":67,"Velocity":36,"Duration":81270,"SoundDuration":81270,"Delta":34944872},{"NoteNumber":62,"Velocity":45,"Duration":116233,"SoundDuration":116233,"Delta":35026142},{"NoteNumber":71,"Velocity":45,"Duration":116233,"SoundDuration":116233,"Delta":35026142},{"NoteNumber":63,"Velocity":45,"Duration":112485,"SoundDuration":112485,"Delta":35258610},{"NoteNumber":72,"Velocity":46,"Duration":112485,"SoundDuration":112485,"Delta":35258610},{"NoteNumber":68,"Velocity":29,"Duration":82992,"SoundDuration":82992,"Delta":35596068},{"NoteNumber":65,"Velocity":36,"Duration":119789,"SoundDuration":119789,"Delta":35679060},{"NoteNumber":74,"Velocity":36,"Duration":119789,"SoundDuration":119789,"Delta":35679060},{"NoteNumber":63,"Velocity":42,"Duration":116233,"SoundDuration":116233,"Delta":35918639},{"NoteNumber":72,"Velocity":42,"Duration":116233,"SoundDuration":116233,"Delta":35918639},{"NoteNumber":67,"Velocity":22,"Duration":85246,"SoundDuration":85246,"Delta":36267341},{"NoteNumber":62,"Velocity":36,"Duration":120714,"SoundDuration":120714,"Delta":36352588},{"NoteNumber":71,"Velocity":36,"Duration":120714,"SoundDuration":120714,"Delta":36352588},{"NoteNumber":63,"Velocity":36,"Duration":120714,"SoundDuration":120714,"Delta":36594017},{"NoteNumber":72,"Velocity":36,"Duration":120714,"SoundDuration":120714,"Delta":36594017},{"NoteNumber":62,"Velocity":27,"Duration":78423,"SoundDuration":78423,"Delta":36956162},{"NoteNumber":58,"Velocity":40,"Duration":116931,"SoundDuration":116931,"Delta":37034585},{"NoteNumber":65,"Velocity":40,"Duration":116931,"SoundDuration":116931,"Delta":37034585},{"NoteNumber":57,"Velocity":45,"Duration":111682,"SoundDuration":111682,"Delta":37268448},{"NoteNumber":65,"Velocity":45,"Duration":111682,"SoundDuration":111682,"Delta":37268448},{"NoteNumber":63,"Velocity":27,"Duration":78814,"SoundDuration":78814,"Delta":37603494},{"NoteNumber":58,"Velocity":42,"Duration":114538,"SoundDuration":114538,"Delta":37682309},{"NoteNumber":67,"Velocity":42,"Duration":114538,"SoundDuration":114538,"Delta":37682309},{"NoteNumber":38,"Velocity":41,"Duration":1291736,"SoundDuration":1291736,"Delta":37682309},{"NoteNumber":50,"Velocity":49,"Duration":1291736,"SoundDuration":1291736,"Delta":37682309},{"NoteNumber":60,"Velocity":45,"Duration":110889,"SoundDuration":110889,"Delta":37911387},{"NoteNumber":69,"Velocity":45,"Duration":110889,"SoundDuration":110889,"Delta":37911387},{"NoteNumber":65,"Velocity":26,"Duration":79014,"SoundDuration":79014,"Delta":38249399},{"NoteNumber":62,"Velocity":45,"Duration":116233,"SoundDuration":116233,"Delta":38328413},{"NoteNumber":70,"Velocity":45,"Duration":116233,"SoundDuration":116233,"Delta":38328413},{"NoteNumber":63,"Velocity":45,"Duration":105656,"SoundDuration":105656,"Delta":38560881},{"NoteNumber":72,"Velocity":45,"Duration":105656,"SoundDuration":105656,"Delta":38560881},{"NoteNumber":68,"Velocity":26,"Duration":73735,"SoundDuration":73735,"Delta":38900310},{"NoteNumber":65,"Velocity":50,"Duration":116233,"SoundDuration":116233,"Delta":38974046},{"NoteNumber":74,"Velocity":50,"Duration":116233,"SoundDuration":116233,"Delta":38974046},{"NoteNumber":34,"Velocity":33,"Duration":1556732,"SoundDuration":1556732,"Delta":38974046},{"NoteNumber":46,"Velocity":42,"Duration":1556732,"SoundDuration":1556732,"Delta":38974046},{"NoteNumber":67,"Velocity":50,"Duration":114960,"SoundDuration":114960,"Delta":39206514},{"NoteNumber":75,"Velocity":50,"Duration":114960,"SoundDuration":114960,"Delta":39206514},{"NoteNumber":71,"Velocity":28,"Duration":80226,"SoundDuration":80226,"Delta":39551395},{"NoteNumber":68,"Velocity":50,"Duration":115803,"SoundDuration":115803,"Delta":39631621},{"NoteNumber":77,"Velocity":50,"Duration":115803,"SoundDuration":115803,"Delta":39631621},{"NoteNumber":72,"Velocity":54,"Duration":112023,"SoundDuration":112023,"Delta":39863228},{"NoteNumber":67,"Velocity":54,"Duration":112023,"SoundDuration":112023,"Delta":39863228},{"NoteNumber":75,"Velocity":54,"Duration":112023,"SoundDuration":112023,"Delta":39863228},{"NoteNumber":68,"Velocity":42,"Duration":81270,"SoundDuration":81270,"Delta":40199300},{"NoteNumber":65,"Velocity":51,"Duration":125104,"SoundDuration":125104,"Delta":40280570},{"NoteNumber":74,"Velocity":51,"Duration":125104,"SoundDuration":125104,"Delta":40280570},{"NoteNumber":69,"Velocity":45,"Duration":118670,"SoundDuration":118670,"Delta":40530778},{"NoteNumber":63,"Velocity":45,"Duration":118670,"SoundDuration":118670,"Delta":40530778},{"NoteNumber":72,"Velocity":46,"Duration":118670,"SoundDuration":118670,"Delta":40530778},{"NoteNumber":36,"Velocity":27,"Duration":444300,"SoundDuration":444300,"Delta":40530778},{"NoteNumber":48,"Velocity":27,"Duration":444300,"SoundDuration":444300,"Delta":40530778},{"NoteNumber":67,"Velocity":29,"Duration":88287,"SoundDuration":88287,"Delta":40886791},{"NoteNumber":64,"Velocity":36,"Duration":129421,"SoundDuration":129421,"Delta":40975079},{"NoteNumber":70,"Velocity":36,"Duration":129421,"SoundDuration":129421,"Delta":40975079},{"NoteNumber":37,"Velocity":25,"Duration":258844,"SoundDuration":258844,"Delta":40975079},{"NoteNumber":49,"Velocity":25,"Duration":258844,"SoundDuration":258844,"Delta":40975079},{"NoteNumber":66,"Velocity":42,"Duration":122050,"SoundDuration":122050,"Delta":41233923},{"NoteNumber":69,"Velocity":42,"Duration":122050,"SoundDuration":122050,"Delta":41233923},{"NoteNumber":38,"Velocity":27,"Duration":1196640,"SoundDuration":1196640,"Delta":41233923},{"NoteNumber":50,"Velocity":33,"Duration":1196640,"SoundDuration":1196640,"Delta":41233923},{"NoteNumber":64,"Velocity":22,"Duration":90689,"SoundDuration":90689,"Delta":41600074},{"NoteNumber":61,"Velocity":36,"Duration":132275,"SoundDuration":132275,"Delta":41690763},{"NoteNumber":67,"Velocity":36,"Duration":132275,"SoundDuration":132275,"Delta":41690763},{"NoteNumber":62,"Velocity":36,"Duration":132275,"SoundDuration":132275,"Delta":41955314},{"NoteNumber":66,"Velocity":36,"Duration":132275,"SoundDuration":132275,"Delta":41955314},{"NoteNumber":62,"Velocity":27,"Duration":78423,"SoundDuration":78423,"Delta":42352140},{"NoteNumber":60,"Velocity":40,"Duration":116931,"SoundDuration":116931,"Delta":42430563},{"NoteNumber":66,"Velocity":40,"Duration":116931,"SoundDuration":116931,"Delta":42430563},{"NoteNumber":38,"Velocity":27,"Duration":116931,"SoundDuration":116931,"Delta":42430563},{"NoteNumber":50,"Velocity":27,"Duration":116931,"SoundDuration":116931,"Delta":42430563},{"NoteNumber":58,"Velocity":45,"Duration":111682,"SoundDuration":111682,"Delta":42664426},{"NoteNumber":67,"Velocity":45,"Duration":111682,"SoundDuration":111682,"Delta":42664426},{"NoteNumber":31,"Velocity":32,"Duration":111682,"SoundDuration":111682,"Delta":42664426},{"NoteNumber":43,"Velocity":41,"Duration":111682,"SoundDuration":111682,"Delta":42664426},{"NoteNumber":66,"Velocity":27,"Duration":59111,"SoundDuration":59111,"Delta":42999472},{"NoteNumber":62,"Velocity":42,"Duration":85904,"SoundDuration":85904,"Delta":43078287},{"NoteNumber":69,"Velocity":42,"Duration":85904,"SoundDuration":85904,"Delta":43078287},{"NoteNumber":31,"Velocity":27,"Duration":85904,"SoundDuration":85904,"Delta":43078287},{"NoteNumber":43,"Velocity":35,"Duration":85904,"SoundDuration":85904,"Delta":43078287},{"NoteNumber":67,"Velocity":45,"Duration":83166,"SoundDuration":83166,"Delta":43307365},{"NoteNumber":70,"Velocity":45,"Duration":83166,"SoundDuration":83166,"Delta":43307365},{"NoteNumber":31,"Velocity":32,"Duration":83166,"SoundDuration":83166,"Delta":43307365},{"NoteNumber":43,"Velocity":41,"Duration":83166,"SoundDuration":83166,"Delta":43307365},{"NoteNumber":69,"Velocity":26,"Duration":79014,"SoundDuration":79014,"Delta":43645377},{"NoteNumber":67,"Velocity":45,"Duration":116233,"SoundDuration":116233,"Delta":43724391},{"NoteNumber":72,"Velocity":45,"Duration":116233,"SoundDuration":116233,"Delta":43724391},{"NoteNumber":31,"Velocity":32,"Duration":1330531,"SoundDuration":1330531,"Delta":43724391},{"NoteNumber":43,"Velocity":41,"Duration":2209728,"SoundDuration":2209728,"Delta":43724391},{"NoteNumber":70,"Velocity":45,"Duration":105656,"SoundDuration":105656,"Delta":43956859},{"NoteNumber":74,"Velocity":45,"Duration":105656,"SoundDuration":105656,"Delta":43956859},{"NoteNumber":75,"Velocity":26,"Duration":73735,"SoundDuration":73735,"Delta":44323612},{"NoteNumber":72,"Velocity":35,"Duration":232467,"SoundDuration":232467,"Delta":44397347},{"NoteNumber":79,"Velocity":42,"Duration":232467,"SoundDuration":232467,"Delta":44397347},{"NoteNumber":70,"Velocity":35,"Duration":229920,"SoundDuration":229920,"Delta":44629815},{"NoteNumber":74,"Velocity":42,"Duration":229920,"SoundDuration":229920,"Delta":44629815},{"NoteNumber":67,"Velocity":28,"Duration":80226,"SoundDuration":80226,"Delta":44974696},{"NoteNumber":62,"Velocity":45,"Duration":115803,"SoundDuration":115803,"Delta":45054923},{"NoteNumber":70,"Velocity":45,"Duration":115803,"SoundDuration":115803,"Delta":45054923},{"NoteNumber":31,"Velocity":33,"Duration":231606,"SoundDuration":231606,"Delta":45054923},{"NoteNumber":69,"Velocity":47,"Duration":111284,"SoundDuration":111284,"Delta":45286529},{"NoteNumber":36,"Velocity":42,"Duration":415122,"SoundDuration":415122,"Delta":45286529},{"NoteNumber":69,"Velocity":36,"Duration":81270,"SoundDuration":81270,"Delta":45620382},{"NoteNumber":63,"Velocity":45,"Duration":116233,"SoundDuration":116233,"Delta":45701652},{"NoteNumber":72,"Velocity":45,"Duration":116233,"SoundDuration":116233,"Delta":45701652},{"NoteNumber":33,"Velocity":36,"Duration":232467,"SoundDuration":232467,"Delta":45701652},{"NoteNumber":70,"Velocity":46,"Duration":112485,"SoundDuration":112485,"Delta":45934120},{"NoteNumber":38,"Velocity":43,"Duration":4622841,"SoundDuration":4622841,"Delta":45934120},{"NoteNumber":66,"Velocity":29,"Duration":82992,"SoundDuration":82992,"Delta":46271578},{"NoteNumber":60,"Velocity":36,"Duration":119789,"SoundDuration":119789,"Delta":46354570},{"NoteNumber":69,"Velocity":36,"Duration":119789,"SoundDuration":119789,"Delta":46354570},{"NoteNumber":26,"Velocity":35,"Duration":239578,"SoundDuration":239578,"Delta":46354570},{"NoteNumber":58,"Velocity":42,"Duration":116233,"SoundDuration":116233,"Delta":46594149},{"NoteNumber":67,"Velocity":42,"Duration":116233,"SoundDuration":116233,"Delta":46594149},{"NoteNumber":31,"Velocity":43,"Duration":1763670,"SoundDuration":1763670,"Delta":46594149},{"NoteNumber":60,"Velocity":22,"Duration":85246,"SoundDuration":85246,"Delta":46942851},{"NoteNumber":57,"Velocity":36,"Duration":120714,"SoundDuration":120714,"Delta":47028097},{"NoteNumber":63,"Velocity":36,"Duration":120714,"SoundDuration":120714,"Delta":47028097},{"NoteNumber":58,"Velocity":36,"Duration":120714,"SoundDuration":120714,"Delta":47269527},{"NoteNumber":62,"Velocity":36,"Duration":120714,"SoundDuration":120714,"Delta":47269527},{"NoteNumber":62,"Velocity":27,"Duration":78423,"SoundDuration":78423,"Delta":47631671},{"NoteNumber":60,"Velocity":40,"Duration":116931,"SoundDuration":116931,"Delta":47710094},{"NoteNumber":66,"Velocity":40,"Duration":116931,"SoundDuration":116931,"Delta":47710094},{"NoteNumber":58,"Velocity":45,"Duration":111682,"SoundDuration":111682,"Delta":47943958},{"NoteNumber":67,"Velocity":45,"Duration":111682,"SoundDuration":111682,"Delta":47943958},{"NoteNumber":66,"Velocity":27,"Duration":78814,"SoundDuration":78814,"Delta":48279004},{"NoteNumber":62,"Velocity":42,"Duration":114538,"SoundDuration":114538,"Delta":48357819},{"NoteNumber":69,"Velocity":42,"Duration":114538,"SoundDuration":114538,"Delta":48357819},{"NoteNumber":31,"Velocity":42,"Duration":646104,"SoundDuration":646104,"Delta":48357819},{"NoteNumber":67,"Velocity":45,"Duration":110889,"SoundDuration":110889,"Delta":48586896},{"NoteNumber":70,"Velocity":45,"Duration":110889,"SoundDuration":110889,"Delta":48586896},{"NoteNumber":69,"Velocity":26,"Duration":79014,"SoundDuration":79014,"Delta":48924909},{"NoteNumber":67,"Velocity":45,"Duration":116233,"SoundDuration":116233,"Delta":49003923},{"NoteNumber":72,"Velocity":45,"Duration":116233,"SoundDuration":116233,"Delta":49003923},{"NoteNumber":31,"Velocity":42,"Duration":1321432,"SoundDuration":1321432,"Delta":49003923},{"NoteNumber":70,"Velocity":45,"Duration":105656,"SoundDuration":105656,"Delta":49236391},{"NoteNumber":74,"Velocity":45,"Duration":105656,"SoundDuration":105656,"Delta":49236391},{"NoteNumber":75,"Velocity":26,"Duration":73735,"SoundDuration":73735,"Delta":49594044},{"NoteNumber":72,"Velocity":35,"Duration":232467,"SoundDuration":232467,"Delta":49667780},{"NoteNumber":79,"Velocity":42,"Duration":232467,"SoundDuration":232467,"Delta":49667780},{"NoteNumber":70,"Velocity":35,"Duration":229920,"SoundDuration":229920,"Delta":49900248},{"NoteNumber":74,"Velocity":42,"Duration":229920,"SoundDuration":229920,"Delta":49900248},{"NoteNumber":67,"Velocity":28,"Duration":80226,"SoundDuration":80226,"Delta":50245128},{"NoteNumber":62,"Velocity":45,"Duration":115803,"SoundDuration":115803,"Delta":50325355},{"NoteNumber":70,"Velocity":45,"Duration":115803,"SoundDuration":115803,"Delta":50325355},{"NoteNumber":31,"Velocity":33,"Duration":231606,"SoundDuration":231606,"Delta":50325355},{"NoteNumber":69,"Velocity":47,"Duration":111284,"SoundDuration":111284,"Delta":50556962},{"NoteNumber":36,"Velocity":42,"Duration":415122,"SoundDuration":415122,"Delta":50556962},{"NoteNumber":69,"Velocity":36,"Duration":81270,"SoundDuration":81270,"Delta":50890814},{"NoteNumber":63,"Velocity":45,"Duration":116233,"SoundDuration":116233,"Delta":50972084},{"NoteNumber":72,"Velocity":45,"Duration":116233,"SoundDuration":116233,"Delta":50972084},{"NoteNumber":33,"Velocity":36,"Duration":232467,"SoundDuration":232467,"Delta":50972084},{"NoteNumber":70,"Velocity":46,"Duration":112485,"SoundDuration":112485,"Delta":51204552},{"NoteNumber":38,"Velocity":43,"Duration":1576836,"SoundDuration":1576836,"Delta":51204552},{"NoteNumber":66,"Velocity":29,"Duration":82992,"SoundDuration":82992,"Delta":51542010},{"NoteNumber":60,"Velocity":36,"Duration":119789,"SoundDuration":119789,"Delta":51625003},{"NoteNumber":69,"Velocity":36,"Duration":119789,"SoundDuration":119789,"Delta":51625003},{"NoteNumber":26,"Velocity":35,"Duration":239578,"SoundDuration":239578,"Delta":51625003},{"NoteNumber":58,"Velocity":42,"Duration":116233,"SoundDuration":116233,"Delta":51864581},{"NoteNumber":67,"Velocity":42,"Duration":116233,"SoundDuration":116233,"Delta":51864581},{"NoteNumber":31,"Velocity":43,"Duration":916807,"SoundDuration":916807,"Delta":51864581},{"NoteNumber":58,"Velocity":35,"Duration":85246,"SoundDuration":85246,"Delta":52213283},{"NoteNumber":62,"Velocity":41,"Duration":241429,"SoundDuration":241429,"Delta":52298530},{"NoteNumber":55,"Velocity":39,"Duration":120714,"SoundDuration":120714,"Delta":52539959},{"NoteNumber":53,"Velocity":31,"Duration":78423,"SoundDuration":78423,"Delta":52902104},{"NoteNumber":58,"Velocity":46,"Duration":233863,"SoundDuration":233863,"Delta":52980527},{"NoteNumber":34,"Velocity":43,"Duration":708009,"SoundDuration":708009,"Delta":53155925},{"NoteNumber":50,"Velocity":51,"Duration":236518,"SoundDuration":236518,"Delta":53214390},{"NoteNumber":46,"Velocity":51,"Duration":649544,"SoundDuration":649544,"Delta":53214390},{"NoteNumber":65,"Velocity":33,"Duration":118259,"SoundDuration":118259,"Delta":53569168},{"NoteNumber":70,"Velocity":46,"Duration":264319,"SoundDuration":264319,"Delta":53657863},{"NoteNumber":36,"Velocity":49,"Duration":349487,"SoundDuration":349487,"Delta":53863935},{"NoteNumber":62,"Velocity":43,"Duration":232991,"SoundDuration":232991,"Delta":53922182},{"NoteNumber":48,"Velocity":58,"Duration":291239,"SoundDuration":291239,"Delta":53922182},{"NoteNumber":38,"Velocity":51,"Duration":349487,"SoundDuration":349487,"Delta":54213422},{"NoteNumber":55,"Velocity":29,"Duration":116495,"SoundDuration":116495,"Delta":54271670},{"NoteNumber":50,"Velocity":62,"Duration":291239,"SoundDuration":291239,"Delta":54271670},{"NoteNumber":58,"Velocity":42,"Duration":262115,"SoundDuration":262115,"Delta":54359042},{"NoteNumber":39,"Velocity":54,"Duration":713485,"SoundDuration":713485,"Delta":54562909},{"NoteNumber":48,"Velocity":51,"Duration":241993,"SoundDuration":241993,"Delta":54621157},{"NoteNumber":51,"Velocity":64,"Duration":655237,"SoundDuration":655237,"Delta":54621157},{"NoteNumber":67,"Velocity":31,"Duration":118259,"SoundDuration":118259,"Delta":54981410},{"NoteNumber":70,"Velocity":58,"Duration":264755,"SoundDuration":264755,"Delta":55070105},{"NoteNumber":46,"Velocity":48,"Duration":1047193,"SoundDuration":1047193,"Delta":55276395},{"NoteNumber":60,"Velocity":54,"Duration":233863,"SoundDuration":233863,"Delta":55334860},{"NoteNumber":58,"Velocity":57,"Duration":696398,"SoundDuration":696398,"Delta":55334860},{"NoteNumber":55,"Velocity":29,"Duration":115633,"SoundDuration":115633,"Delta":55684358},{"NoteNumber":58,"Velocity":55,"Duration":260175,"SoundDuration":260175,"Delta":55771083},{"NoteNumber":48,"Velocity":51,"Duration":233863,"SoundDuration":233863,"Delta":56031259},{"NoteNumber":43,"Velocity":49,"Duration":350795,"SoundDuration":350795,"Delta":56323588},{"NoteNumber":67,"Velocity":31,"Duration":116931,"SoundDuration":116931,"Delta":56382054},{"NoteNumber":55,"Velocity":58,"Duration":292329,"SoundDuration":292329,"Delta":56382054},{"NoteNumber":70,"Velocity":52,"Duration":263096,"SoundDuration":263096,"Delta":56469753},{"NoteNumber":39,"Velocity":51,"Duration":351893,"SoundDuration":351893,"Delta":56674384},{"NoteNumber":60,"Velocity":51,"Duration":234741,"SoundDuration":234741,"Delta":56732849},{"NoteNumber":51,"Velocity":62,"Duration":293427,"SoundDuration":293427,"Delta":56732849},{"NoteNumber":36,"Velocity":47,"Duration":352113,"SoundDuration":352113,"Delta":57026277},{"NoteNumber":53,"Velocity":36,"Duration":117370,"SoundDuration":117370,"Delta":57084962},{"NoteNumber":48,"Velocity":56,"Duration":293427,"SoundDuration":293427,"Delta":57084962},{"NoteNumber":57,"Velocity":49,"Duration":264084,"SoundDuration":264084,"Delta":57172991},{"NoteNumber":41,"Velocity":42,"Duration":735887,"SoundDuration":735887,"Delta":57378390},{"NoteNumber":48,"Velocity":51,"Duration":252101,"SoundDuration":252101,"Delta":57437075},{"NoteNumber":53,"Velocity":51,"Duration":677202,"SoundDuration":677202,"Delta":57437075},{"NoteNumber":65,"Velocity":31,"Duration":121457,"SoundDuration":121457,"Delta":57810634},{"NoteNumber":69,"Velocity":48,"Duration":273279,"SoundDuration":273279,"Delta":57901727},{"NoteNumber":29,"Velocity":33,"Duration":763175,"SoundDuration":763175,"Delta":58114278},{"NoteNumber":60,"Velocity":41,"Duration":242914,"SoundDuration":242914,"Delta":58175006},{"NoteNumber":41,"Velocity":52,"Duration":702446,"SoundDuration":702446,"Delta":58175006},{"NoteNumber":53,"Velocity":29,"Duration":121457,"SoundDuration":121457,"Delta":58539379},{"NoteNumber":58,"Velocity":42,"Duration":319186,"SoundDuration":319186,"Delta":58630472},{"NoteNumber":34,"Velocity":43,"Duration":723140,"SoundDuration":723140,"Delta":58877453},{"NoteNumber":50,"Velocity":51,"Duration":239215,"SoundDuration":239215,"Delta":58949659},{"NoteNumber":46,"Velocity":51,"Duration":650934,"SoundDuration":650934,"Delta":58949659},{"NoteNumber":65,"Velocity":33,"Duration":116931,"SoundDuration":116931,"Delta":59308482},{"NoteNumber":70,"Velocity":57,"Duration":262660,"SoundDuration":262660,"Delta":59396181},{"NoteNumber":36,"Velocity":49,"Duration":348843,"SoundDuration":348843,"Delta":59600594},{"NoteNumber":62,"Velocity":43,"Duration":232991,"SoundDuration":232991,"Delta":59658841},{"NoteNumber":48,"Velocity":58,"Duration":290595,"SoundDuration":290595,"Delta":59658841},{"NoteNumber":38,"Velocity":51,"Duration":345621,"SoundDuration":345621,"Delta":59949437},{"NoteNumber":55,"Velocity":29,"Duration":115207,"SoundDuration":115207,"Delta":60007040},{"NoteNumber":50,"Velocity":62,"Duration":288018,"SoundDuration":288018,"Delta":60007040},{"NoteNumber":58,"Velocity":50,"Duration":259216,"SoundDuration":259216,"Delta":60093446},{"NoteNumber":39,"Velocity":54,"Duration":713527,"SoundDuration":713527,"Delta":60295058},{"NoteNumber":48,"Velocity":51,"Duration":245781,"SoundDuration":245781,"Delta":60352662},{"NoteNumber":51,"Velocity":64,"Duration":655923,"SoundDuration":655923,"Delta":60352662},{"NoteNumber":67,"Velocity":31,"Duration":116931,"SoundDuration":116931,"Delta":60716256},{"NoteNumber":70,"Velocity":58,"Duration":263096,"SoundDuration":263096,"Delta":60803955},{"NoteNumber":46,"Velocity":48,"Duration":1053483,"SoundDuration":1053483,"Delta":61008586},{"NoteNumber":60,"Velocity":54,"Duration":233863,"SoundDuration":233863,"Delta":61067052},{"NoteNumber":58,"Velocity":57,"Duration":701590,"SoundDuration":701590,"Delta":61067052},{"NoteNumber":55,"Velocity":29,"Duration":116931,"SoundDuration":116931,"Delta":61417847},{"NoteNumber":58,"Velocity":55,"Duration":263096,"SoundDuration":263096,"Delta":61505546},{"NoteNumber":48,"Velocity":51,"Duration":234741,"SoundDuration":234741,"Delta":61768642},{"NoteNumber":43,"Velocity":49,"Duration":352334,"SoundDuration":352334,"Delta":62062070},{"NoteNumber":67,"Velocity":31,"Duration":117370,"SoundDuration":117370,"Delta":62120755},{"NoteNumber":55,"Velocity":58,"Duration":293648,"SoundDuration":293648,"Delta":62120755},{"NoteNumber":70,"Velocity":57,"Duration":264527,"SoundDuration":264527,"Delta":62208783},{"NoteNumber":39,"Velocity":51,"Duration":354109,"SoundDuration":354109,"Delta":62414404},{"NoteNumber":60,"Velocity":51,"Duration":235627,"SoundDuration":235627,"Delta":62473311},{"NoteNumber":51,"Velocity":62,"Duration":295202,"SoundDuration":295202,"Delta":62473311},{"NoteNumber":36,"Velocity":47,"Duration":387641,"SoundDuration":387641,"Delta":62768514},{"NoteNumber":53,"Velocity":36,"Duration":119151,"SoundDuration":119151,"Delta":62828089},{"NoteNumber":48,"Velocity":56,"Duration":328065,"SoundDuration":328065,"Delta":62828089},{"NoteNumber":57,"Velocity":49,"Duration":308339,"SoundDuration":308339,"Delta":62917453},{"NoteNumber":41,"Velocity":42,"Duration":737800,"SoundDuration":737800,"Delta":63156155},{"NoteNumber":48,"Velocity":51,"Duration":252716,"SoundDuration":252716,"Delta":63225793},{"NoteNumber":53,"Velocity":51,"Duration":668163,"SoundDuration":668163,"Delta":63225793},{"NoteNumber":65,"Velocity":31,"Duration":118698,"SoundDuration":118698,"Delta":63597208},{"NoteNumber":69,"Velocity":48,"Duration":267072,"SoundDuration":267072,"Delta":63686232},{"NoteNumber":29,"Velocity":33,"Duration":712873,"SoundDuration":712873,"Delta":63893956},{"NoteNumber":60,"Velocity":41,"Duration":233863,"SoundDuration":233863,"Delta":63953305},{"NoteNumber":41,"Velocity":52,"Duration":653523,"SoundDuration":653523,"Delta":63953305},{"NoteNumber":58,"Velocity":29,"Duration":116931,"SoundDuration":116931,"Delta":64304100},{"NoteNumber":62,"Velocity":42,"Duration":276961,"SoundDuration":276961,"Delta":64391799},{"NoteNumber":38,"Velocity":43,"Duration":707472,"SoundDuration":707472,"Delta":64606829},{"NoteNumber":53,"Velocity":51,"Duration":234741,"SoundDuration":234741,"Delta":64668761},{"NoteNumber":50,"Velocity":51,"Duration":645540,"SoundDuration":645540,"Delta":64668761},{"NoteNumber":70,"Velocity":33,"Duration":117370,"SoundDuration":117370,"Delta":65020874},{"NoteNumber":74,"Velocity":57,"Duration":264084,"SoundDuration":264084,"Delta":65108902},{"NoteNumber":39,"Velocity":49,"Duration":352113,"SoundDuration":352113,"Delta":65314302},{"NoteNumber":65,"Velocity":43,"Duration":234741,"SoundDuration":234741,"Delta":65372987},{"NoteNumber":51,"Velocity":58,"Duration":293427,"SoundDuration":293427,"Delta":65372987},{"NoteNumber":41,"Velocity":51,"Duration":354333,"SoundDuration":354333,"Delta":65666415},{"NoteNumber":59,"Velocity":29,"Duration":118259,"SoundDuration":118259,"Delta":65725100},{"NoteNumber":53,"Velocity":62,"Duration":295648,"SoundDuration":295648,"Delta":65725100},{"NoteNumber":62,"Velocity":50,"Duration":266083,"SoundDuration":266083,"Delta":65813795},{"NoteNumber":43,"Velocity":54,"Duration":715853,"SoundDuration":715853,"Delta":66020748},{"NoteNumber":53,"Velocity":51,"Duration":239215,"SoundDuration":239215,"Delta":66079878},{"NoteNumber":55,"Velocity":64,"Duration":656724,"SoundDuration":656724,"Delta":66079878},{"NoteNumber":71,"Velocity":31,"Duration":119607,"SoundDuration":119607,"Delta":66438701},{"NoteNumber":74,"Velocity":58,"Duration":266880,"SoundDuration":266880,"Delta":66528407},{"NoteNumber":50,"Velocity":48,"Duration":1056339,"SoundDuration":1056339,"Delta":66736602},{"NoteNumber":65,"Velocity":54,"Duration":234741,"SoundDuration":234741,"Delta":66795288},{"NoteNumber":62,"Velocity":57,"Duration":704225,"SoundDuration":704225,"Delta":66795288},{"NoteNumber":59,"Velocity":29,"Duration":117371,"SoundDuration":117371,"Delta":67147401},{"NoteNumber":62,"Velocity":55,"Duration":264084,"SoundDuration":264084,"Delta":67235429},{"NoteNumber":55,"Velocity":51,"Duration":234741,"SoundDuration":234741,"Delta":67499514},{"NoteNumber":47,"Velocity":49,"Duration":349924,"SoundDuration":349924,"Delta":67792941},{"NoteNumber":71,"Velocity":31,"Duration":116495,"SoundDuration":116495,"Delta":67851627},{"NoteNumber":59,"Velocity":58,"Duration":291239,"SoundDuration":291239,"Delta":67851627},{"NoteNumber":74,"Velocity":57,"Duration":262115,"SoundDuration":262115,"Delta":67938999},{"NoteNumber":43,"Velocity":51,"Duration":349487,"SoundDuration":349487,"Delta":68142866},{"NoteNumber":67,"Velocity":51,"Duration":232991,"SoundDuration":232991,"Delta":68201114},{"NoteNumber":55,"Velocity":62,"Duration":291239,"SoundDuration":291239,"Delta":68201114},{"NoteNumber":41,"Velocity":47,"Duration":360740,"SoundDuration":360740,"Delta":68492353},{"NoteNumber":60,"Velocity":36,"Duration":120997,"SoundDuration":120997,"Delta":68550601},{"NoteNumber":53,"Velocity":56,"Duration":302492,"SoundDuration":302492,"Delta":68550601},{"NoteNumber":63,"Velocity":49,"Duration":272243,"SoundDuration":272243,"Delta":68641349},{"NoteNumber":39,"Velocity":42,"Duration":738426,"SoundDuration":738426,"Delta":68853094},{"NoteNumber":55,"Velocity":51,"Duration":265580,"SoundDuration":265580,"Delta":68913592},{"NoteNumber":51,"Velocity":51,"Duration":677927,"SoundDuration":677927,"Delta":68913592},{"NoteNumber":72,"Velocity":31,"Duration":117813,"SoundDuration":117813,"Delta":69296986},{"NoteNumber":75,"Velocity":48,"Duration":265080,"SoundDuration":265080,"Delta":69385346},{"NoteNumber":36,"Velocity":33,"Duration":694892,"SoundDuration":694892,"Delta":69591520},{"NoteNumber":67,"Velocity":41,"Duration":231267,"SoundDuration":231267,"Delta":69650427},{"NoteNumber":48,"Velocity":52,"Duration":635985,"SoundDuration":635985,"Delta":69650427},{"NoteNumber":60,"Velocity":29,"Duration":115633,"SoundDuration":115633,"Delta":69997328},{"NoteNumber":63,"Velocity":42,"Duration":260175,"SoundDuration":260175,"Delta":70084053},{"NoteNumber":39,"Velocity":43,"Duration":700723,"SoundDuration":700723,"Delta":70286412},{"NoteNumber":55,"Velocity":51,"Duration":233863,"SoundDuration":233863,"Delta":70344229},{"NoteNumber":51,"Velocity":51,"Duration":642906,"SoundDuration":642906,"Delta":70344229},{"NoteNumber":72,"Velocity":33,"Duration":116931,"SoundDuration":116931,"Delta":70695024},{"NoteNumber":75,"Velocity":57,"Duration":262660,"SoundDuration":262660,"Delta":70782723},{"NoteNumber":41,"Velocity":49,"Duration":349487,"SoundDuration":349487,"Delta":70987136},{"NoteNumber":67,"Velocity":43,"Duration":232991,"SoundDuration":232991,"Delta":71045384},{"NoteNumber":53,"Velocity":58,"Duration":291239,"SoundDuration":291239,"Delta":71045384},{"NoteNumber":43,"Velocity":51,"Duration":358415,"SoundDuration":358415,"Delta":71336623},{"NoteNumber":61,"Velocity":29,"Duration":120067,"SoundDuration":120067,"Delta":71394871},{"NoteNumber":55,"Velocity":62,"Duration":300168,"SoundDuration":300168,"Delta":71394871},{"NoteNumber":64,"Velocity":50,"Duration":270151,"SoundDuration":270151,"Delta":71484921},{"NoteNumber":45,"Velocity":54,"Duration":718414,"SoundDuration":718414,"Delta":71695039},{"NoteNumber":55,"Velocity":51,"Duration":242934,"SoundDuration":242934,"Delta":71755073},{"NoteNumber":57,"Velocity":64,"Duration":658381,"SoundDuration":658381,"Delta":71755073},{"NoteNumber":73,"Velocity":31,"Duration":118698,"SoundDuration":118698,"Delta":72116706},{"NoteNumber":76,"Velocity":58,"Duration":267072,"SoundDuration":267072,"Delta":72205730},{"NoteNumber":52,"Velocity":48,"Duration":1064553,"SoundDuration":1064553,"Delta":72413454},{"NoteNumber":67,"Velocity":54,"Duration":236518,"SoundDuration":236518,"Delta":72472803},{"NoteNumber":64,"Velocity":57,"Duration":709555,"SoundDuration":709555,"Delta":72472803},{"NoteNumber":61,"Velocity":29,"Duration":118259,"SoundDuration":118259,"Delta":72827581},{"NoteNumber":64,"Velocity":55,"Duration":266083,"SoundDuration":266083,"Delta":72916275},{"NoteNumber":57,"Velocity":51,"Duration":236518,"SoundDuration":236518,"Delta":73182359},{"NoteNumber":49,"Velocity":49,"Duration":360455,"SoundDuration":360455,"Delta":73478007},{"NoteNumber":73,"Velocity":31,"Duration":120530,"SoundDuration":120530,"Delta":73537136},{"NoteNumber":61,"Velocity":58,"Duration":301325,"SoundDuration":301325,"Delta":73537136},{"NoteNumber":76,"Velocity":57,"Duration":271193,"SoundDuration":271193,"Delta":73627534},{"NoteNumber":45,"Velocity":51,"Duration":361590,"SoundDuration":361590,"Delta":73838462},{"NoteNumber":69,"Velocity":51,"Duration":241060,"SoundDuration":241060,"Delta":73898727},{"NoteNumber":57,"Velocity":62,"Duration":301325,"SoundDuration":301325,"Delta":73898727},{"NoteNumber":43,"Velocity":47,"Duration":367491,"SoundDuration":367491,"Delta":74200053},{"NoteNumber":57,"Velocity":36,"Duration":122890,"SoundDuration":122890,"Delta":74260318},{"NoteNumber":55,"Velocity":56,"Duration":307226,"SoundDuration":307226,"Delta":74260318},{"NoteNumber":62,"Velocity":49,"Duration":276503,"SoundDuration":276503,"Delta":74352486},{"NoteNumber":42,"Velocity":42,"Duration":737342,"SoundDuration":737342,"Delta":74567544},{"NoteNumber":50,"Velocity":51,"Duration":245780,"SoundDuration":245780,"Delta":74628989},{"NoteNumber":54,"Velocity":51,"Duration":675897,"SoundDuration":675897,"Delta":74628989},{"NoteNumber":69,"Velocity":31,"Duration":122890,"SoundDuration":122890,"Delta":74997661},{"NoteNumber":74,"Velocity":48,"Duration":276503,"SoundDuration":276503,"Delta":75089829},{"NoteNumber":38,"Velocity":33,"Duration":770629,"SoundDuration":770629,"Delta":75304887},{"NoteNumber":62,"Velocity":41,"Duration":245780,"SoundDuration":245780,"Delta":75366332},{"NoteNumber":50,"Velocity":52,"Duration":709184,"SoundDuration":709184,"Delta":75366332},{"NoteNumber":53,"Velocity":29,"Duration":122890,"SoundDuration":122890,"Delta":75735004},{"NoteNumber":58,"Velocity":42,"Duration":320886,"SoundDuration":320886,"Delta":75827172},{"NoteNumber":34,"Velocity":43,"Duration":747027,"SoundDuration":747027,"Delta":76075517},{"NoteNumber":50,"Velocity":51,"Duration":245780,"SoundDuration":245780,"Delta":76148058},{"NoteNumber":46,"Velocity":51,"Duration":674486,"SoundDuration":674486,"Delta":76148058},{"NoteNumber":65,"Velocity":33,"Duration":122890,"SoundDuration":122890,"Delta":76516729},{"NoteNumber":70,"Velocity":57,"Duration":273680,"SoundDuration":273680,"Delta":76608897},{"NoteNumber":36,"Velocity":49,"Duration":360201,"SoundDuration":360201,"Delta":76822544},{"NoteNumber":62,"Velocity":43,"Duration":240134,"SoundDuration":240134,"Delta":76882578},{"NoteNumber":48,"Velocity":58,"Duration":300168,"SoundDuration":300168,"Delta":76882578},{"NoteNumber":38,"Velocity":51,"Duration":369694,"SoundDuration":369694,"Delta":77182746},{"NoteNumber":54,"Velocity":29,"Duration":123864,"SoundDuration":123864,"Delta":77242779},{"NoteNumber":50,"Velocity":62,"Duration":309661,"SoundDuration":309661,"Delta":77242779},{"NoteNumber":58,"Velocity":50,"Duration":278695,"SoundDuration":278695,"Delta":77335678},{"NoteNumber":39,"Velocity":54,"Duration":727415,"SoundDuration":727415,"Delta":77552441},{"NoteNumber":48,"Velocity":51,"Duration":241994,"SoundDuration":241994,"Delta":77614373},{"NoteNumber":51,"Velocity":64,"Duration":665483,"SoundDuration":665483,"Delta":77614373},{"NoteNumber":66,"Velocity":31,"Duration":120997,"SoundDuration":120997,"Delta":77977364},{"NoteNumber":70,"Velocity":58,"Duration":272243,"SoundDuration":272243,"Delta":78068112},{"NoteNumber":46,"Velocity":48,"Duration":1087302,"SoundDuration":1087302,"Delta":78279856},{"NoteNumber":60,"Velocity":54,"Duration":241993,"SoundDuration":241993,"Delta":78340355},{"NoteNumber":58,"Velocity":62,"Duration":725982,"SoundDuration":725982,"Delta":78340355},{"NoteNumber":54,"Velocity":29,"Duration":120997,"SoundDuration":120997,"Delta":78703346},{"NoteNumber":58,"Velocity":55,"Duration":272243,"SoundDuration":272243,"Delta":78794094},{"NoteNumber":48,"Velocity":62,"Duration":241060,"SoundDuration":241060,"Delta":79066337},{"NoteNumber":66,"Velocity":33,"Duration":119522,"SoundDuration":119522,"Delta":79426920},{"NoteNumber":70,"Velocity":57,"Duration":268924,"SoundDuration":268924,"Delta":79516561},{"NoteNumber":48,"Velocity":49,"Duration":359288,"SoundDuration":359288,"Delta":79725725},{"NoteNumber":60,"Velocity":63,"Duration":299527,"SoundDuration":299527,"Delta":79785485},{"NoteNumber":53,"Velocity":29,"Duration":120967,"SoundDuration":120967,"Delta":80145497},{"NoteNumber":58,"Velocity":57,"Duration":294698,"SoundDuration":294698,"Delta":80236223},{"NoteNumber":46,"Velocity":62,"Duration":241994,"SoundDuration":241994,"Delta":80530922},{"NoteNumber":50,"Velocity":54,"Duration":1391465,"SoundDuration":1391465,"Delta":80530922},{"NoteNumber":62,"Velocity":64,"Duration":1391465,"SoundDuration":1391465,"Delta":80530922},{"NoteNumber":65,"Velocity":31,"Duration":120997,"SoundDuration":120997,"Delta":80893913},{"NoteNumber":70,"Velocity":62,"Duration":272243,"SoundDuration":272243,"Delta":80984661},{"NoteNumber":58,"Velocity":56,"Duration":241993,"SoundDuration":241993,"Delta":81256904},{"NoteNumber":58,"Velocity":39,"Duration":120997,"SoundDuration":120997,"Delta":81619895},{"NoteNumber":62,"Velocity":55,"Duration":272243,"SoundDuration":272243,"Delta":81710643},{"NoteNumber":38,"Velocity":43,"Duration":725287,"SoundDuration":725287,"Delta":81922387},{"NoteNumber":53,"Velocity":51,"Duration":241993,"SoundDuration":241993,"Delta":81982886},{"NoteNumber":50,"Velocity":51,"Duration":664788,"SoundDuration":664788,"Delta":81982886},{"NoteNumber":70,"Velocity":33,"Duration":120997,"SoundDuration":120997,"Delta":82345877},{"NoteNumber":74,"Velocity":57,"Duration":270853,"SoundDuration":270853,"Delta":82436625},{"NoteNumber":39,"Velocity":49,"Duration":358823,"SoundDuration":358823,"Delta":82647675},{"NoteNumber":65,"Velocity":43,"Duration":239215,"SoundDuration":239215,"Delta":82707479},{"NoteNumber":51,"Velocity":58,"Duration":299019,"SoundDuration":299019,"Delta":82707479},{"NoteNumber":41,"Velocity":51,"Duration":363472,"SoundDuration":363472,"Delta":83006498},{"NoteNumber":58,"Velocity":29,"Duration":121467,"SoundDuration":121467,"Delta":83066302},{"NoteNumber":53,"Velocity":62,"Duration":303668,"SoundDuration":303668,"Delta":83066302},{"NoteNumber":62,"Velocity":50,"Duration":273301,"SoundDuration":273301,"Delta":83157402},{"NoteNumber":43,"Velocity":54,"Duration":721577,"SoundDuration":721577,"Delta":83369970},{"NoteNumber":52,"Velocity":51,"Duration":242934,"SoundDuration":242934,"Delta":83430704},{"NoteNumber":55,"Velocity":64,"Duration":660844,"SoundDuration":660844,"Delta":83430704},{"NoteNumber":70,"Velocity":31,"Duration":118577,"SoundDuration":118577,"Delta":83795105},{"NoteNumber":74,"Velocity":58,"Duration":266798,"SoundDuration":266798,"Delta":83884038},{"NoteNumber":50,"Velocity":48,"Duration":1421176,"SoundDuration":1421176,"Delta":84091548},{"NoteNumber":64,"Velocity":54,"Duration":237153,"SoundDuration":237153,"Delta":84150837},{"NoteNumber":62,"Velocity":62,"Duration":711461,"SoundDuration":711461,"Delta":84150837},{"NoteNumber":58,"Velocity":29,"Duration":118577,"SoundDuration":118577,"Delta":84506567},{"NoteNumber":62,"Velocity":55,"Duration":266798,"SoundDuration":266798,"Delta":84595500},{"NoteNumber":52,"Velocity":62,"Duration":236518,"SoundDuration":236518,"Delta":84862298},{"NoteNumber":70,"Velocity":33,"Duration":118259,"SoundDuration":118259,"Delta":85217076},{"NoteNumber":74,"Velocity":57,"Duration":266083,"SoundDuration":266083,"Delta":85305771},{"NoteNumber":52,"Velocity":49,"Duration":781129,"SoundDuration":781129,"Delta":85512724},{"NoteNumber":64,"Velocity":63,"Duration":730857,"SoundDuration":730857,"Delta":85571854},{"NoteNumber":57,"Velocity":29,"Duration":118259,"SoundDuration":118259,"Delta":85926632},{"NoteNumber":62,"Velocity":57,"Duration":278527,"SoundDuration":278527,"Delta":86015326},{"NoteNumber":50,"Velocity":62,"Duration":236220,"SoundDuration":236220,"Delta":86293854},{"NoteNumber":54,"Velocity":54,"Duration":1062992,"SoundDuration":1062992,"Delta":86293854},{"NoteNumber":66,"Velocity":64,"Duration":1062992,"SoundDuration":1062992,"Delta":86293854},{"NoteNumber":69,"Velocity":31,"Duration":118110,"SoundDuration":118110,"Delta":86648184},{"NoteNumber":74,"Velocity":62,"Duration":265748,"SoundDuration":265748,"Delta":86736767},{"NoteNumber":62,"Velocity":56,"Duration":236220,"SoundDuration":236220,"Delta":87002515},{"NoteNumber":67,"Velocity":39,"Duration":118110,"SoundDuration":118110,"Delta":87356846},{"NoteNumber":55,"Velocity":54,"Duration":1646763,"SoundDuration":1646763,"Delta":87356846},{"NoteNumber":65,"Velocity":46,"Duration":118110,"SoundDuration":118110,"Delta":87474956},{"NoteNumber":71,"Velocity":46,"Duration":118110,"SoundDuration":118110,"Delta":87474956},{"NoteNumber":63,"Velocity":51,"Duration":111682,"SoundDuration":111682,"Delta":87711176},{"NoteNumber":72,"Velocity":51,"Duration":111682,"SoundDuration":111682,"Delta":87711176},{"NoteNumber":48,"Velocity":47,"Duration":2391305,"SoundDuration":2391305,"Delta":87711176},{"NoteNumber":60,"Velocity":47,"Duration":3270503,"SoundDuration":3270503,"Delta":87711176},{"NoteNumber":71,"Velocity":31,"Duration":78814,"SoundDuration":78814,"Delta":88046223},{"NoteNumber":67,"Velocity":48,"Duration":114538,"SoundDuration":114538,"Delta":88125037},{"NoteNumber":74,"Velocity":48,"Duration":114538,"SoundDuration":114538,"Delta":88125037},{"NoteNumber":72,"Velocity":51,"Duration":110889,"SoundDuration":110889,"Delta":88354115},{"NoteNumber":75,"Velocity":51,"Duration":110889,"SoundDuration":110889,"Delta":88354115},{"NoteNumber":74,"Velocity":29,"Duration":79014,"SoundDuration":79014,"Delta":88692127},{"NoteNumber":72,"Velocity":51,"Duration":116234,"SoundDuration":116234,"Delta":88771141},{"NoteNumber":77,"Velocity":51,"Duration":116234,"SoundDuration":116234,"Delta":88771141},{"NoteNumber":75,"Velocity":51,"Duration":105655,"SoundDuration":105655,"Delta":89003609},{"NoteNumber":79,"Velocity":51,"Duration":105655,"SoundDuration":105655,"Delta":89003609},{"NoteNumber":80,"Velocity":29,"Duration":73735,"SoundDuration":73735,"Delta":89371171},{"NoteNumber":77,"Velocity":40,"Duration":232467,"SoundDuration":232467,"Delta":89444907},{"NoteNumber":84,"Velocity":48,"Duration":232467,"SoundDuration":232467,"Delta":89444907},{"NoteNumber":75,"Velocity":40,"Duration":229920,"SoundDuration":229920,"Delta":89677375},{"NoteNumber":79,"Velocity":48,"Duration":229920,"SoundDuration":229920,"Delta":89677375},{"NoteNumber":72,"Velocity":32,"Duration":80226,"SoundDuration":80226,"Delta":90022256},{"NoteNumber":67,"Velocity":51,"Duration":115803,"SoundDuration":115803,"Delta":90102482},{"NoteNumber":75,"Velocity":51,"Duration":115803,"SoundDuration":115803,"Delta":90102482},{"NoteNumber":48,"Velocity":37,"Duration":231606,"SoundDuration":231606,"Delta":90102482},{"NoteNumber":74,"Velocity":54,"Duration":111284,"SoundDuration":111284,"Delta":90334089},{"NoteNumber":53,"Velocity":48,"Duration":415122,"SoundDuration":415122,"Delta":90334089},{"NoteNumber":74,"Velocity":41,"Duration":81270,"SoundDuration":81270,"Delta":90667942},{"NoteNumber":68,"Velocity":51,"Duration":116234,"SoundDuration":116234,"Delta":90749212},{"NoteNumber":77,"Velocity":51,"Duration":116234,"SoundDuration":116234,"Delta":90749212},{"NoteNumber":50,"Velocity":41,"Duration":232467,"SoundDuration":232467,"Delta":90749212},{"NoteNumber":75,"Velocity":52,"Duration":112486,"SoundDuration":112486,"Delta":90981680},{"NoteNumber":55,"Velocity":49,"Duration":2009837,"SoundDuration":2009837,"Delta":90981680},{"NoteNumber":71,"Velocity":33,"Duration":82992,"SoundDuration":82992,"Delta":91319138},{"NoteNumber":65,"Velocity":41,"Duration":119789,"SoundDuration":119789,"Delta":91402130},{"NoteNumber":74,"Velocity":41,"Duration":119789,"SoundDuration":119789,"Delta":91402130},{"NoteNumber":43,"Velocity":40,"Duration":3952561,"SoundDuration":3952561,"Delta":91402130},{"NoteNumber":63,"Velocity":48,"Duration":116234,"SoundDuration":116234,"Delta":91641708},{"NoteNumber":72,"Velocity":48,"Duration":116234,"SoundDuration":116234,"Delta":91641708},{"NoteNumber":48,"Velocity":49,"Duration":1115945,"SoundDuration":1115945,"Delta":91641708},{"NoteNumber":65,"Velocity":25,"Duration":85246,"SoundDuration":85246,"Delta":91990410},{"NoteNumber":62,"Velocity":41,"Duration":120714,"SoundDuration":120714,"Delta":92075657},{"NoteNumber":68,"Velocity":41,"Duration":120714,"SoundDuration":120714,"Delta":92075657},{"NoteNumber":63,"Velocity":41,"Duration":120714,"SoundDuration":120714,"Delta":92317087},{"NoteNumber":67,"Velocity":41,"Duration":120714,"SoundDuration":120714,"Delta":92317087},{"NoteNumber":67,"Velocity":31,"Duration":78423,"SoundDuration":78423,"Delta":92679231},{"NoteNumber":60,"Velocity":46,"Duration":116931,"SoundDuration":116931,"Delta":92757654},{"NoteNumber":66,"Velocity":46,"Duration":116931,"SoundDuration":116931,"Delta":92757654},{"NoteNumber":50,"Velocity":50,"Duration":2828643,"SoundDuration":2828643,"Delta":92757654},{"NoteNumber":58,"Velocity":51,"Duration":111682,"SoundDuration":111682,"Delta":92991518},{"NoteNumber":67,"Velocity":51,"Duration":111682,"SoundDuration":111682,"Delta":92991518},{"NoteNumber":55,"Velocity":49,"Duration":3242370,"SoundDuration":3242370,"Delta":92991518},{"NoteNumber":66,"Velocity":31,"Duration":78814,"SoundDuration":78814,"Delta":93326564},{"NoteNumber":62,"Velocity":48,"Duration":114538,"SoundDuration":114538,"Delta":93405378},{"NoteNumber":69,"Velocity":48,"Duration":114538,"SoundDuration":114538,"Delta":93405378},{"NoteNumber":67,"Velocity":51,"Duration":110889,"SoundDuration":110889,"Delta":93634456},{"NoteNumber":70,"Velocity":51,"Duration":110889,"SoundDuration":110889,"Delta":93634456},{"NoteNumber":69,"Velocity":29,"Duration":79014,"SoundDuration":79014,"Delta":93972468},{"NoteNumber":67,"Velocity":51,"Duration":116234,"SoundDuration":116234,"Delta":94051482},{"NoteNumber":72,"Velocity":51,"Duration":116234,"SoundDuration":116234,"Delta":94051482},{"NoteNumber":70,"Velocity":51,"Duration":105655,"SoundDuration":105655,"Delta":94283950},{"NoteNumber":74,"Velocity":51,"Duration":105655,"SoundDuration":105655,"Delta":94283950},{"NoteNumber":75,"Velocity":29,"Duration":73735,"SoundDuration":73735,"Delta":94623380},{"NoteNumber":72,"Velocity":48,"Duration":232467,"SoundDuration":232467,"Delta":94697115},{"NoteNumber":79,"Velocity":57,"Duration":232467,"SoundDuration":232467,"Delta":94697115},{"NoteNumber":70,"Velocity":48,"Duration":229920,"SoundDuration":229920,"Delta":94929583},{"NoteNumber":74,"Velocity":57,"Duration":229920,"SoundDuration":229920,"Delta":94929583},{"NoteNumber":67,"Velocity":32,"Duration":80226,"SoundDuration":80226,"Delta":95274464},{"NoteNumber":62,"Velocity":51,"Duration":115803,"SoundDuration":115803,"Delta":95354691},{"NoteNumber":70,"Velocity":51,"Duration":115803,"SoundDuration":115803,"Delta":95354691},{"NoteNumber":43,"Velocity":37,"Duration":231606,"SoundDuration":231606,"Delta":95354691},{"NoteNumber":69,"Velocity":54,"Duration":111284,"SoundDuration":111284,"Delta":95586297},{"NoteNumber":48,"Velocity":48,"Duration":415122,"SoundDuration":415122,"Delta":95586297},{"NoteNumber":69,"Velocity":41,"Duration":81270,"SoundDuration":81270,"Delta":95920150},{"NoteNumber":63,"Velocity":51,"Duration":116234,"SoundDuration":116234,"Delta":96001420},{"NoteNumber":72,"Velocity":51,"Duration":116234,"SoundDuration":116234,"Delta":96001420},{"NoteNumber":45,"Velocity":41,"Duration":232467,"SoundDuration":232467,"Delta":96001420},{"NoteNumber":70,"Velocity":52,"Duration":112486,"SoundDuration":112486,"Delta":96233888},{"NoteNumber":50,"Velocity":49,"Duration":3069802,"SoundDuration":3069802,"Delta":96233888},{"NoteNumber":66,"Velocity":33,"Duration":82992,"SoundDuration":82992,"Delta":96571346},{"NoteNumber":60,"Velocity":41,"Duration":119789,"SoundDuration":119789,"Delta":96654338},{"NoteNumber":69,"Velocity":41,"Duration":119789,"SoundDuration":119789,"Delta":96654338},{"NoteNumber":38,"Velocity":40,"Duration":2649352,"SoundDuration":2649352,"Delta":96654338},{"NoteNumber":58,"Velocity":48,"Duration":116234,"SoundDuration":116234,"Delta":96893917},{"NoteNumber":67,"Velocity":48,"Duration":116234,"SoundDuration":116234,"Delta":96893917},{"NoteNumber":58,"Velocity":40,"Duration":85246,"SoundDuration":85246,"Delta":97242619},{"NoteNumber":62,"Velocity":47,"Duration":241429,"SoundDuration":241429,"Delta":97327866},{"NoteNumber":55,"Velocity":44,"Duration":120714,"SoundDuration":120714,"Delta":97569295},{"NoteNumber":58,"Velocity":31,"Duration":78423,"SoundDuration":78423,"Delta":97931439},{"NoteNumber":55,"Velocity":46,"Duration":116931,"SoundDuration":116931,"Delta":98009863},{"NoteNumber":62,"Velocity":46,"Duration":116931,"SoundDuration":116931,"Delta":98009863},{"NoteNumber":54,"Velocity":51,"Duration":111682,"SoundDuration":111682,"Delta":98243726},{"NoteNumber":62,"Velocity":51,"Duration":111682,"SoundDuration":111682,"Delta":98243726},{"NoteNumber":58,"Velocity":31,"Duration":78814,"SoundDuration":78814,"Delta":98578772},{"NoteNumber":55,"Velocity":48,"Duration":114538,"SoundDuration":114538,"Delta":98657587},{"NoteNumber":64,"Velocity":48,"Duration":114538,"SoundDuration":114538,"Delta":98657587},{"NoteNumber":57,"Velocity":51,"Duration":110889,"SoundDuration":110889,"Delta":98886664},{"NoteNumber":66,"Velocity":51,"Duration":110889,"SoundDuration":110889,"Delta":98886664},{"NoteNumber":62,"Velocity":29,"Duration":79014,"SoundDuration":79014,"Delta":99224677},{"NoteNumber":58,"Velocity":51,"Duration":116234,"SoundDuration":116234,"Delta":99303691},{"NoteNumber":67,"Velocity":51,"Duration":116234,"SoundDuration":116234,"Delta":99303691},{"NoteNumber":31,"Velocity":37,"Duration":3927379,"SoundDuration":3927379,"Delta":99303691},{"NoteNumber":43,"Velocity":37,"Duration":3927379,"SoundDuration":3927379,"Delta":99303691},{"NoteNumber":60,"Velocity":51,"Duration":105655,"SoundDuration":105655,"Delta":99536159},{"NoteNumber":69,"Velocity":51,"Duration":105655,"SoundDuration":105655,"Delta":99536159},{"NoteNumber":65,"Velocity":29,"Duration":73735,"SoundDuration":73735,"Delta":99875588},{"NoteNumber":62,"Velocity":52,"Duration":116234,"SoundDuration":116234,"Delta":99949324},{"NoteNumber":71,"Velocity":52,"Duration":116234,"SoundDuration":116234,"Delta":99949324},{"NoteNumber":63,"Velocity":57,"Duration":114960,"SoundDuration":114960,"Delta":100181792},{"NoteNumber":72,"Velocity":57,"Duration":114960,"SoundDuration":114960,"Delta":100181792},{"NoteNumber":68,"Velocity":32,"Duration":80226,"SoundDuration":80226,"Delta":100526673},{"NoteNumber":65,"Velocity":51,"Duration":115803,"SoundDuration":115803,"Delta":100606899},{"NoteNumber":74,"Velocity":51,"Duration":115803,"SoundDuration":115803,"Delta":100606899},{"NoteNumber":63,"Velocity":51,"Duration":111284,"SoundDuration":111284,"Delta":100838506},{"NoteNumber":72,"Velocity":54,"Duration":111284,"SoundDuration":111284,"Delta":100838506},{"NoteNumber":67,"Velocity":41,"Duration":81270,"SoundDuration":81270,"Delta":101172359},{"NoteNumber":62,"Velocity":51,"Duration":116234,"SoundDuration":116234,"Delta":101253629},{"NoteNumber":71,"Velocity":51,"Duration":116234,"SoundDuration":116234,"Delta":101253629},{"NoteNumber":63,"Velocity":51,"Duration":112486,"SoundDuration":112486,"Delta":101486097},{"NoteNumber":72,"Velocity":52,"Duration":112486,"SoundDuration":112486,"Delta":101486097},{"NoteNumber":68,"Velocity":33,"Duration":82992,"SoundDuration":82992,"Delta":101823555},{"NoteNumber":65,"Velocity":41,"Duration":117647,"SoundDuration":117647,"Delta":101906547},{"NoteNumber":74,"Velocity":41,"Duration":117647,"SoundDuration":117647,"Delta":101906547},{"NoteNumber":63,"Velocity":48,"Duration":113207,"SoundDuration":113207,"Delta":102141841},{"NoteNumber":72,"Velocity":48,"Duration":113207,"SoundDuration":113207,"Delta":102141841},{"NoteNumber":67,"Velocity":25,"Duration":85246,"SoundDuration":85246,"Delta":102481463},{"NoteNumber":62,"Velocity":41,"Duration":117187,"SoundDuration":117187,"Delta":102566710},{"NoteNumber":71,"Velocity":41,"Duration":117187,"SoundDuration":117187,"Delta":102566710},{"NoteNumber":63,"Velocity":41,"Duration":117187,"SoundDuration":117187,"Delta":102801085},{"NoteNumber":72,"Velocity":41,"Duration":117187,"SoundDuration":117187,"Delta":102801085},{"NoteNumber":62,"Velocity":31,"Duration":78423,"SoundDuration":78423,"Delta":103152648},{"NoteNumber":58,"Velocity":46,"Duration":116931,"SoundDuration":116931,"Delta":103231071},{"NoteNumber":65,"Velocity":46,"Duration":116931,"SoundDuration":116931,"Delta":103231071},{"NoteNumber":41,"Velocity":47,"Duration":1293828,"SoundDuration":1293828,"Delta":103231071},{"NoteNumber":53,"Velocity":54,"Duration":1293828,"SoundDuration":1293828,"Delta":103231071},{"NoteNumber":57,"Velocity":51,"Duration":111682,"SoundDuration":111682,"Delta":103464934},{"NoteNumber":65,"Velocity":51,"Duration":111682,"SoundDuration":111682,"Delta":103464934},{"NoteNumber":63,"Velocity":31,"Duration":78814,"SoundDuration":78814,"Delta":103799980},{"NoteNumber":58,"Velocity":48,"Duration":114538,"SoundDuration":114538,"Delta":103878795},{"NoteNumber":67,"Velocity":48,"Duration":114538,"SoundDuration":114538,"Delta":103878795},{"NoteNumber":60,"Velocity":51,"Duration":110889,"SoundDuration":110889,"Delta":104107873},{"NoteNumber":69,"Velocity":51,"Duration":110889,"SoundDuration":110889,"Delta":104107873},{"NoteNumber":65,"Velocity":29,"Duration":79014,"SoundDuration":79014,"Delta":104445885},{"NoteNumber":62,"Velocity":51,"Duration":116234,"SoundDuration":116234,"Delta":104524899},{"NoteNumber":70,"Velocity":51,"Duration":116234,"SoundDuration":116234,"Delta":104524899},{"NoteNumber":34,"Velocity":37,"Duration":2204102,"SoundDuration":2204102,"Delta":104524899},{"NoteNumber":46,"Velocity":50,"Duration":2204102,"SoundDuration":2204102,"Delta":104524899},{"NoteNumber":63,"Velocity":51,"Duration":105655,"SoundDuration":105655,"Delta":104757367},{"NoteNumber":72,"Velocity":51,"Duration":105655,"SoundDuration":105655,"Delta":104757367},{"NoteNumber":68,"Velocity":29,"Duration":73735,"SoundDuration":73735,"Delta":105096797},{"NoteNumber":65,"Velocity":57,"Duration":116234,"SoundDuration":116234,"Delta":105170532},{"NoteNumber":74,"Velocity":57,"Duration":116234,"SoundDuration":116234,"Delta":105170532},{"NoteNumber":67,"Velocity":57,"Duration":114960,"SoundDuration":114960,"Delta":105403000},{"NoteNumber":75,"Velocity":57,"Duration":114960,"SoundDuration":114960,"Delta":105403000},{"NoteNumber":71,"Velocity":32,"Duration":80226,"SoundDuration":80226,"Delta":105747881},{"NoteNumber":68,"Velocity":57,"Duration":115803,"SoundDuration":115803,"Delta":105828108},{"NoteNumber":77,"Velocity":57,"Duration":115803,"SoundDuration":115803,"Delta":105828108},{"NoteNumber":72,"Velocity":62,"Duration":113292,"SoundDuration":113292,"Delta":106059714},{"NoteNumber":67,"Velocity":62,"Duration":113292,"SoundDuration":113292,"Delta":106059714},{"NoteNumber":75,"Velocity":62,"Duration":113292,"SoundDuration":113292,"Delta":106059714},{"NoteNumber":68,"Velocity":47,"Duration":81270,"SoundDuration":81270,"Delta":106399593},{"NoteNumber":65,"Velocity":57,"Duration":124069,"SoundDuration":124069,"Delta":106480863},{"NoteNumber":74,"Velocity":57,"Duration":124069,"SoundDuration":124069,"Delta":106480863},{"NoteNumber":69,"Velocity":49,"Duration":116822,"SoundDuration":116822,"Delta":106729002},{"NoteNumber":63,"Velocity":49,"Duration":116822,"SoundDuration":116822,"Delta":106729002},{"NoteNumber":72,"Velocity":51,"Duration":116822,"SoundDuration":116822,"Delta":106729002},{"NoteNumber":36,"Velocity":29,"Duration":433459,"SoundDuration":433459,"Delta":106729002},{"NoteNumber":48,"Velocity":29,"Duration":433459,"SoundDuration":433459,"Delta":106729002},{"NoteNumber":67,"Velocity":31,"Duration":82992,"SoundDuration":82992,"Delta":107079470},{"NoteNumber":64,"Velocity":38,"Duration":128314,"SoundDuration":128314,"Delta":107162462},{"NoteNumber":70,"Velocity":38,"Duration":128314,"SoundDuration":128314,"Delta":107162462},{"NoteNumber":37,"Velocity":27,"Duration":256629,"SoundDuration":256629,"Delta":107162462},{"NoteNumber":49,"Velocity":27,"Duration":256629,"SoundDuration":256629,"Delta":107162462},{"NoteNumber":66,"Velocity":44,"Duration":123558,"SoundDuration":123558,"Delta":107419091},{"NoteNumber":69,"Velocity":44,"Duration":123558,"SoundDuration":123558,"Delta":107419091},{"NoteNumber":38,"Velocity":28,"Duration":2503753,"SoundDuration":2503753,"Delta":107419091},{"NoteNumber":50,"Velocity":34,"Duration":2503753,"SoundDuration":2503753,"Delta":107419091},{"NoteNumber":64,"Velocity":22,"Duration":85246,"SoundDuration":85246,"Delta":107789767},{"NoteNumber":61,"Velocity":37,"Duration":131118,"SoundDuration":131118,"Delta":107875014},{"NoteNumber":67,"Velocity":37,"Duration":131118,"SoundDuration":131118,"Delta":107875014},{"NoteNumber":62,"Velocity":36,"Duration":131118,"SoundDuration":131118,"Delta":108137252},{"NoteNumber":66,"Velocity":36,"Duration":131118,"SoundDuration":131118,"Delta":108137252},{"NoteNumber":62,"Velocity":27,"Duration":78423,"SoundDuration":78423,"Delta":108530609},{"NoteNumber":60,"Velocity":40,"Duration":119617,"SoundDuration":119617,"Delta":108609032},{"NoteNumber":66,"Velocity":40,"Duration":119617,"SoundDuration":119617,"Delta":108609032},{"NoteNumber":58,"Velocity":45,"Duration":115030,"SoundDuration":115030,"Delta":108848266},{"NoteNumber":67,"Velocity":45,"Duration":115030,"SoundDuration":115030,"Delta":108848266},{"NoteNumber":66,"Velocity":27,"Duration":78814,"SoundDuration":78814,"Delta":109193359},{"NoteNumber":62,"Velocity":42,"Duration":116822,"SoundDuration":116822,"Delta":109272173},{"NoteNumber":69,"Velocity":42,"Duration":116822,"SoundDuration":116822,"Delta":109272173},{"NoteNumber":67,"Velocity":45,"Duration":110889,"SoundDuration":110889,"Delta":109505818},{"NoteNumber":70,"Velocity":45,"Duration":110889,"SoundDuration":110889,"Delta":109505818},{"NoteNumber":69,"Velocity":26,"Duration":79014,"SoundDuration":79014,"Delta":109843831},{"NoteNumber":67,"Velocity":45,"Duration":116234,"SoundDuration":116234,"Delta":109922845},{"NoteNumber":72,"Velocity":45,"Duration":116234,"SoundDuration":116234,"Delta":109922845},{"NoteNumber":31,"Velocity":32,"Duration":1303208,"SoundDuration":1303208,"Delta":109922845},{"NoteNumber":43,"Velocity":41,"Duration":2182405,"SoundDuration":2182405,"Delta":109922845},{"NoteNumber":70,"Velocity":45,"Duration":105655,"SoundDuration":105655,"Delta":110155313},{"NoteNumber":74,"Velocity":45,"Duration":105655,"SoundDuration":105655,"Delta":110155313},{"NoteNumber":75,"Velocity":26,"Duration":73735,"SoundDuration":73735,"Delta":110494742},{"NoteNumber":72,"Velocity":35,"Duration":232467,"SoundDuration":232467,"Delta":110568478},{"NoteNumber":79,"Velocity":42,"Duration":232467,"SoundDuration":232467,"Delta":110568478},{"NoteNumber":70,"Velocity":35,"Duration":229920,"SoundDuration":229920,"Delta":110800946},{"NoteNumber":74,"Velocity":42,"Duration":229920,"SoundDuration":229920,"Delta":110800946},{"NoteNumber":67,"Velocity":28,"Duration":80226,"SoundDuration":80226,"Delta":111145827},{"NoteNumber":62,"Velocity":45,"Duration":115803,"SoundDuration":115803,"Delta":111226053},{"NoteNumber":70,"Velocity":45,"Duration":115803,"SoundDuration":115803,"Delta":111226053},{"NoteNumber":31,"Velocity":33,"Duration":231606,"SoundDuration":231606,"Delta":111226053},{"NoteNumber":69,"Velocity":47,"Duration":111284,"SoundDuration":111284,"Delta":111457660},{"NoteNumber":36,"Velocity":42,"Duration":415122,"SoundDuration":415122,"Delta":111457660},{"NoteNumber":69,"Velocity":36,"Duration":81270,"SoundDuration":81270,"Delta":111791513},{"NoteNumber":63,"Velocity":45,"Duration":116234,"SoundDuration":116234,"Delta":111872783},{"NoteNumber":72,"Velocity":45,"Duration":116234,"SoundDuration":116234,"Delta":111872783},{"NoteNumber":33,"Velocity":36,"Duration":232467,"SoundDuration":232467,"Delta":111872783},{"NoteNumber":70,"Velocity":46,"Duration":112486,"SoundDuration":112486,"Delta":112105251},{"NoteNumber":38,"Velocity":43,"Duration":4632750,"SoundDuration":4632750,"Delta":112105251},{"NoteNumber":66,"Velocity":29,"Duration":82992,"SoundDuration":82992,"Delta":112442709},{"NoteNumber":60,"Velocity":36,"Duration":119789,"SoundDuration":119789,"Delta":112525701},{"NoteNumber":69,"Velocity":36,"Duration":119789,"SoundDuration":119789,"Delta":112525701},{"NoteNumber":26,"Velocity":35,"Duration":2232326,"SoundDuration":2232326,"Delta":112525701},{"NoteNumber":58,"Velocity":42,"Duration":116234,"SoundDuration":116234,"Delta":112765279},{"NoteNumber":67,"Velocity":42,"Duration":116234,"SoundDuration":116234,"Delta":112765279},{"NoteNumber":60,"Velocity":22,"Duration":85246,"SoundDuration":85246,"Delta":113113981},{"NoteNumber":57,"Velocity":36,"Duration":120714,"SoundDuration":120714,"Delta":113199228},{"NoteNumber":63,"Velocity":36,"Duration":120714,"SoundDuration":120714,"Delta":113199228},{"NoteNumber":58,"Velocity":36,"Duration":120714,"SoundDuration":120714,"Delta":113440658},{"NoteNumber":62,"Velocity":36,"Duration":120714,"SoundDuration":120714,"Delta":113440658},{"NoteNumber":62,"Velocity":27,"Duration":78423,"SoundDuration":78423,"Delta":113802802},{"NoteNumber":60,"Velocity":40,"Duration":116931,"SoundDuration":116931,"Delta":113881225},{"NoteNumber":66,"Velocity":40,"Duration":116931,"SoundDuration":116931,"Delta":113881225},{"NoteNumber":58,"Velocity":45,"Duration":111682,"SoundDuration":111682,"Delta":114115089},{"NoteNumber":67,"Velocity":45,"Duration":111682,"SoundDuration":111682,"Delta":114115089},{"NoteNumber":66,"Velocity":27,"Duration":78814,"SoundDuration":78814,"Delta":114450135},{"NoteNumber":62,"Velocity":42,"Duration":114538,"SoundDuration":114538,"Delta":114528949},{"NoteNumber":69,"Velocity":42,"Duration":114538,"SoundDuration":114538,"Delta":114528949},{"NoteNumber":67,"Velocity":45,"Duration":110889,"SoundDuration":110889,"Delta":114758027},{"NoteNumber":70,"Velocity":45,"Duration":110889,"SoundDuration":110889,"Delta":114758027},{"NoteNumber":31,"Velocity":48,"Duration":1748367,"SoundDuration":1748367,"Delta":114758027},{"NoteNumber":69,"Velocity":26,"Duration":79014,"SoundDuration":79014,"Delta":115096039},{"NoteNumber":67,"Velocity":45,"Duration":116234,"SoundDuration":116234,"Delta":115175053},{"NoteNumber":72,"Velocity":45,"Duration":116234,"SoundDuration":116234,"Delta":115175053},{"NoteNumber":70,"Velocity":45,"Duration":105655,"SoundDuration":105655,"Delta":115407521},{"NoteNumber":74,"Velocity":45,"Duration":105655,"SoundDuration":105655,"Delta":115407521},{"NoteNumber":75,"Velocity":26,"Duration":73735,"SoundDuration":73735,"Delta":115775083},{"NoteNumber":72,"Velocity":35,"Duration":232467,"SoundDuration":232467,"Delta":115848819},{"NoteNumber":79,"Velocity":42,"Duration":232467,"SoundDuration":232467,"Delta":115848819},{"NoteNumber":70,"Velocity":35,"Duration":229920,"SoundDuration":229920,"Delta":116081287},{"NoteNumber":74,"Velocity":42,"Duration":229920,"SoundDuration":229920,"Delta":116081287},{"NoteNumber":67,"Velocity":28,"Duration":80226,"SoundDuration":80226,"Delta":116426168},{"NoteNumber":62,"Velocity":45,"Duration":115803,"SoundDuration":115803,"Delta":116506394},{"NoteNumber":70,"Velocity":45,"Duration":115803,"SoundDuration":115803,"Delta":116506394},{"NoteNumber":31,"Velocity":33,"Duration":231606,"SoundDuration":231606,"Delta":116506394},{"NoteNumber":69,"Velocity":47,"Duration":113054,"SoundDuration":113054,"Delta":116738001},{"NoteNumber":36,"Velocity":42,"Duration":420432,"SoundDuration":420432,"Delta":116738001},{"NoteNumber":69,"Velocity":36,"Duration":81270,"SoundDuration":81270,"Delta":117077163},{"NoteNumber":63,"Velocity":45,"Duration":123284,"SoundDuration":123284,"Delta":117158433},{"NoteNumber":72,"Velocity":45,"Duration":123284,"SoundDuration":123284,"Delta":117158433},{"NoteNumber":33,"Velocity":36,"Duration":246568,"SoundDuration":246568,"Delta":117158433},{"NoteNumber":70,"Velocity":46,"Duration":118166,"SoundDuration":118166,"Delta":117405001},{"NoteNumber":38,"Velocity":43,"Duration":1824461,"SoundDuration":1824461,"Delta":117405001},{"NoteNumber":66,"Velocity":29,"Duration":95480,"SoundDuration":95480,"Delta":117759499},{"NoteNumber":60,"Velocity":36,"Duration":129388,"SoundDuration":129388,"Delta":117854980},{"NoteNumber":69,"Velocity":36,"Duration":129388,"SoundDuration":129388,"Delta":117854980},{"NoteNumber":26,"Velocity":35,"Duration":258776,"SoundDuration":258776,"Delta":117854980},{"NoteNumber":58,"Velocity":42,"Duration":140977,"SoundDuration":140977,"Delta":118113757},{"NoteNumber":67,"Velocity":42,"Duration":140977,"SoundDuration":140977,"Delta":118113757},{"NoteNumber":31,"Velocity":43,"Duration":1115705,"SoundDuration":1115705,"Delta":118113757},{"NoteNumber":58,"Velocity":35,"Duration":97263,"SoundDuration":97263,"Delta":118536689},{"NoteNumber":62,"Velocity":41,"Duration":288572,"SoundDuration":288572,"Delta":118633953},{"NoteNumber":55,"Velocity":39,"Duration":153468,"SoundDuration":153468,"Delta":118922526},{"NoteNumber":45,"Velocity":81,"Duration":119971,"SoundDuration":119971,"Delta":119349434},{"NoteNumber":45,"Velocity":76,"Duration":257289,"SoundDuration":257289,"Delta":119469405},{"NoteNumber":45,"Velocity":78,"Duration":1035876,"SoundDuration":1035876,"Delta":119726695},{"NoteNumber":26,"Velocity":70,"Duration":474467,"SoundDuration":474467,"Delta":119726695},{"NoteNumber":53,"Velocity":70,"Duration":111856,"SoundDuration":111856,"Delta":120089306},{"NoteNumber":50,"Velocity":59,"Duration":111856,"SoundDuration":111856,"Delta":120089306},{"NoteNumber":58,"Velocity":55,"Duration":111856,"SoundDuration":111856,"Delta":120089306},{"NoteNumber":50,"Velocity":61,"Duration":223713,"SoundDuration":223713,"Delta":120201163},{"NoteNumber":53,"Velocity":72,"Duration":223713,"SoundDuration":223713,"Delta":120201163},{"NoteNumber":58,"Velocity":61,"Duration":223713,"SoundDuration":223713,"Delta":120201163},{"NoteNumber":50,"Velocity":65,"Duration":337695,"SoundDuration":337695,"Delta":120424876},{"NoteNumber":53,"Velocity":77,"Duration":337695,"SoundDuration":337695,"Delta":120424876},{"NoteNumber":58,"Velocity":66,"Duration":337695,"SoundDuration":337695,"Delta":120424876},{"NoteNumber":57,"Velocity":74,"Duration":113981,"SoundDuration":113981,"Delta":120762571},{"NoteNumber":57,"Velocity":71,"Duration":240770,"SoundDuration":240770,"Delta":120876553},{"NoteNumber":57,"Velocity":76,"Duration":934821,"SoundDuration":934821,"Delta":121117324},{"NoteNumber":69,"Velocity":64,"Duration":112275,"SoundDuration":112275,"Delta":121490767},{"NoteNumber":65,"Velocity":54,"Duration":112275,"SoundDuration":112275,"Delta":121490767},{"NoteNumber":45,"Velocity":51,"Duration":112275,"SoundDuration":112275,"Delta":121490767},{"NoteNumber":50,"Velocity":61,"Duration":112275,"SoundDuration":112275,"Delta":121490767},{"NoteNumber":65,"Velocity":54,"Duration":224551,"SoundDuration":224551,"Delta":121603043},{"NoteNumber":69,"Velocity":64,"Duration":224551,"SoundDuration":224551,"Delta":121603043},{"NoteNumber":45,"Velocity":49,"Duration":224551,"SoundDuration":224551,"Delta":121603043},{"NoteNumber":50,"Velocity":58,"Duration":224551,"SoundDuration":224551,"Delta":121603043},{"NoteNumber":65,"Velocity":59,"Duration":224551,"SoundDuration":224551,"Delta":121827594},{"NoteNumber":69,"Velocity":70,"Duration":224551,"SoundDuration":224551,"Delta":121827594},{"NoteNumber":45,"Velocity":53,"Duration":224551,"SoundDuration":224551,"Delta":121827594},{"NoteNumber":50,"Velocity":63,"Duration":224551,"SoundDuration":224551,"Delta":121827594},{"NoteNumber":45,"Velocity":76,"Duration":114854,"SoundDuration":114854,"Delta":122164420},{"NoteNumber":45,"Velocity":76,"Duration":249791,"SoundDuration":249791,"Delta":122279275},{"NoteNumber":45,"Velocity":78,"Duration":1028944,"SoundDuration":1028944,"Delta":122529067},{"NoteNumber":37,"Velocity":70,"Duration":465458,"SoundDuration":465458,"Delta":122529067},{"NoteNumber":25,"Velocity":70,"Duration":465458,"SoundDuration":465458,"Delta":122529067},{"NoteNumber":55,"Velocity":70,"Duration":112697,"SoundDuration":112697,"Delta":122881828},{"NoteNumber":52,"Velocity":59,"Duration":112697,"SoundDuration":112697,"Delta":122881828},{"NoteNumber":58,"Velocity":55,"Duration":112697,"SoundDuration":112697,"Delta":122881828},{"NoteNumber":52,"Velocity":61,"Duration":225394,"SoundDuration":225394,"Delta":122994525},{"NoteNumber":55,"Velocity":72,"Duration":225394,"SoundDuration":225394,"Delta":122994525},{"NoteNumber":58,"Velocity":61,"Duration":225394,"SoundDuration":225394,"Delta":122994525},{"NoteNumber":52,"Velocity":65,"Duration":338091,"SoundDuration":338091,"Delta":123219920},{"NoteNumber":55,"Velocity":77,"Duration":338091,"SoundDuration":338091,"Delta":123219920},{"NoteNumber":58,"Velocity":66,"Duration":338091,"SoundDuration":338091,"Delta":123219920},{"NoteNumber":57,"Velocity":76,"Duration":116640,"SoundDuration":116640,"Delta":123558011},{"NoteNumber":57,"Velocity":76,"Duration":246710,"SoundDuration":246710,"Delta":123674652},{"NoteNumber":57,"Velocity":79,"Duration":954524,"SoundDuration":954524,"Delta":123921363},{"NoteNumber":69,"Velocity":64,"Duration":113981,"SoundDuration":113981,"Delta":124305978},{"NoteNumber":67,"Velocity":54,"Duration":113981,"SoundDuration":113981,"Delta":124305978},{"NoteNumber":45,"Velocity":51,"Duration":113981,"SoundDuration":113981,"Delta":124305978},{"NoteNumber":52,"Velocity":61,"Duration":113981,"SoundDuration":113981,"Delta":124305978},{"NoteNumber":67,"Velocity":54,"Duration":227963,"SoundDuration":227963,"Delta":124419960},{"NoteNumber":69,"Velocity":64,"Duration":227963,"SoundDuration":227963,"Delta":124419960},{"NoteNumber":45,"Velocity":49,"Duration":227963,"SoundDuration":227963,"Delta":124419960},{"NoteNumber":52,"Velocity":58,"Duration":227963,"SoundDuration":227963,"Delta":124419960},{"NoteNumber":67,"Velocity":59,"Duration":227963,"SoundDuration":227963,"Delta":124647924},{"NoteNumber":69,"Velocity":70,"Duration":227963,"SoundDuration":227963,"Delta":124647924},{"NoteNumber":45,"Velocity":53,"Duration":227963,"SoundDuration":227963,"Delta":124647924},{"NoteNumber":52,"Velocity":63,"Duration":227963,"SoundDuration":227963,"Delta":124647924},{"NoteNumber":45,"Velocity":75,"Duration":114854,"SoundDuration":114854,"Delta":124989869},{"NoteNumber":45,"Velocity":76,"Duration":245699,"SoundDuration":245699,"Delta":125104723},{"NoteNumber":45,"Velocity":78,"Duration":936301,"SoundDuration":936301,"Delta":125350423},{"NoteNumber":38,"Velocity":70,"Duration":482100,"SoundDuration":482100,"Delta":125350423},{"NoteNumber":26,"Velocity":70,"Duration":482100,"SoundDuration":482100,"Delta":125350423},{"NoteNumber":53,"Velocity":70,"Duration":113550,"SoundDuration":113550,"Delta":125718973},{"NoteNumber":50,"Velocity":59,"Duration":113550,"SoundDuration":113550,"Delta":125718973},{"NoteNumber":64,"Velocity":55,"Duration":113550,"SoundDuration":113550,"Delta":125718973},{"NoteNumber":50,"Velocity":61,"Duration":227100,"SoundDuration":227100,"Delta":125832524},{"NoteNumber":53,"Velocity":72,"Duration":227100,"SoundDuration":227100,"Delta":125832524},{"NoteNumber":64,"Velocity":61,"Duration":227100,"SoundDuration":227100,"Delta":125832524},{"NoteNumber":50,"Velocity":65,"Duration":227100,"SoundDuration":227100,"Delta":126059624},{"NoteNumber":53,"Velocity":77,"Duration":227100,"SoundDuration":227100,"Delta":126059624},{"NoteNumber":64,"Velocity":66,"Duration":227100,"SoundDuration":227100,"Delta":126059624},{"NoteNumber":57,"Velocity":74,"Duration":118483,"SoundDuration":118483,"Delta":126400275},{"NoteNumber":62,"Velocity":61,"Duration":118483,"SoundDuration":118483,"Delta":126400275},{"NoteNumber":57,"Velocity":75,"Duration":248756,"SoundDuration":248756,"Delta":126518758},{"NoteNumber":62,"Velocity":58,"Duration":248756,"SoundDuration":248756,"Delta":126518758},{"NoteNumber":57,"Velocity":79,"Duration":943042,"SoundDuration":943042,"Delta":126767514},{"NoteNumber":62,"Velocity":62,"Duration":943042,"SoundDuration":943042,"Delta":126767514},{"NoteNumber":69,"Velocity":64,"Duration":113981,"SoundDuration":113981,"Delta":127140648},{"NoteNumber":65,"Velocity":54,"Duration":113981,"SoundDuration":113981,"Delta":127140648},{"NoteNumber":50,"Velocity":51,"Duration":113981,"SoundDuration":113981,"Delta":127140648},{"NoteNumber":53,"Velocity":61,"Duration":113981,"SoundDuration":113981,"Delta":127140648},{"NoteNumber":65,"Velocity":54,"Duration":227963,"SoundDuration":227963,"Delta":127254630},{"NoteNumber":69,"Velocity":64,"Duration":227963,"SoundDuration":227963,"Delta":127254630},{"NoteNumber":50,"Velocity":49,"Duration":227963,"SoundDuration":227963,"Delta":127254630},{"NoteNumber":53,"Velocity":58,"Duration":227963,"SoundDuration":227963,"Delta":127254630},{"NoteNumber":65,"Velocity":59,"Duration":227963,"SoundDuration":227963,"Delta":127482594},{"NoteNumber":69,"Velocity":70,"Duration":227963,"SoundDuration":227963,"Delta":127482594},{"NoteNumber":50,"Velocity":53,"Duration":227963,"SoundDuration":227963,"Delta":127482594},{"NoteNumber":53,"Velocity":63,"Duration":227963,"SoundDuration":227963,"Delta":127482594},{"NoteNumber":53,"Velocity":72,"Duration":118017,"SoundDuration":118017,"Delta":127824539},{"NoteNumber":53,"Velocity":72,"Duration":252950,"SoundDuration":252950,"Delta":127942556},{"NoteNumber":53,"Velocity":78,"Duration":938710,"SoundDuration":938710,"Delta":128195507},{"NoteNumber":43,"Velocity":70,"Duration":491283,"SoundDuration":491283,"Delta":128195507},{"NoteNumber":31,"Velocity":70,"Duration":491283,"SoundDuration":491283,"Delta":128195507},{"NoteNumber":62,"Velocity":70,"Duration":111856,"SoundDuration":111856,"Delta":128574934},{"NoteNumber":59,"Velocity":59,"Duration":111856,"SoundDuration":111856,"Delta":128574934},{"NoteNumber":67,"Velocity":55,"Duration":111856,"SoundDuration":111856,"Delta":128574934},{"NoteNumber":59,"Velocity":61,"Duration":223713,"SoundDuration":223713,"Delta":128686790},{"NoteNumber":62,"Velocity":72,"Duration":223713,"SoundDuration":223713,"Delta":128686790},{"NoteNumber":67,"Velocity":61,"Duration":223713,"SoundDuration":223713,"Delta":128686790},{"NoteNumber":59,"Velocity":65,"Duration":223713,"SoundDuration":223713,"Delta":128910504},{"NoteNumber":62,"Velocity":77,"Duration":223713,"SoundDuration":223713,"Delta":128910504},{"NoteNumber":67,"Velocity":66,"Duration":223713,"SoundDuration":223713,"Delta":128910504},{"NoteNumber":60,"Velocity":65,"Duration":57648,"SoundDuration":57648,"Delta":129246074},{"NoteNumber":67,"Velocity":77,"Duration":57648,"SoundDuration":57648,"Delta":129246074},{"NoteNumber":48,"Velocity":56,"Duration":57648,"SoundDuration":57648,"Delta":129246074},{"NoteNumber":52,"Velocity":67,"Duration":57648,"SoundDuration":57648,"Delta":129246074},{"NoteNumber":60,"Velocity":66,"Duration":125944,"SoundDuration":125944,"Delta":129361370},{"NoteNumber":67,"Velocity":78,"Duration":125944,"SoundDuration":125944,"Delta":129361370},{"NoteNumber":48,"Velocity":53,"Duration":125944,"SoundDuration":125944,"Delta":129361370},{"NoteNumber":52,"Velocity":63,"Duration":125944,"SoundDuration":125944,"Delta":129361370},{"NoteNumber":67,"Velocity":77,"Duration":244697,"SoundDuration":244697,"Delta":129613259},{"NoteNumber":60,"Velocity":65,"Duration":244697,"SoundDuration":244697,"Delta":129613259},{"NoteNumber":48,"Velocity":57,"Duration":244697,"SoundDuration":244697,"Delta":129613259},{"NoteNumber":52,"Velocity":68,"Duration":244697,"SoundDuration":244697,"Delta":129613259},{"NoteNumber":72,"Velocity":77,"Duration":129757,"SoundDuration":129757,"Delta":129987715},{"NoteNumber":60,"Velocity":64,"Duration":129757,"SoundDuration":129757,"Delta":129987715},{"NoteNumber":36,"Velocity":61,"Duration":129757,"SoundDuration":129757,"Delta":129987715},{"NoteNumber":48,"Velocity":73,"Duration":129757,"SoundDuration":129757,"Delta":129987715},{"NoteNumber":60,"Velocity":64,"Duration":259515,"SoundDuration":259515,"Delta":130117473},{"NoteNumber":72,"Velocity":77,"Duration":259515,"SoundDuration":259515,"Delta":130117473},{"NoteNumber":36,"Velocity":58,"Duration":259515,"SoundDuration":259515,"Delta":130117473},{"NoteNumber":48,"Velocity":69,"Duration":259515,"SoundDuration":259515,"Delta":130117473},{"NoteNumber":60,"Velocity":70,"Duration":259515,"SoundDuration":259515,"Delta":130376988},{"NoteNumber":72,"Velocity":84,"Duration":259515,"SoundDuration":259515,"Delta":130376988},{"NoteNumber":36,"Velocity":63,"Duration":259515,"SoundDuration":259515,"Delta":130376988},{"NoteNumber":48,"Velocity":75,"Duration":259515,"SoundDuration":259515,"Delta":130376988},{"NoteNumber":48,"Velocity":73,"Duration":121359,"SoundDuration":121359,"Delta":130766261},{"NoteNumber":48,"Velocity":68,"Duration":271247,"SoundDuration":271247,"Delta":130887621},{"NoteNumber":48,"Velocity":82,"Duration":698180,"SoundDuration":698180,"Delta":131158868},{"NoteNumber":29,"Velocity":62,"Duration":474467,"SoundDuration":474467,"Delta":131158868},{"NoteNumber":41,"Velocity":73,"Duration":474467,"SoundDuration":474467,"Delta":131158868},{"NoteNumber":57,"Velocity":70,"Duration":335570,"SoundDuration":335570,"Delta":131521479},{"NoteNumber":53,"Velocity":59,"Duration":335570,"SoundDuration":335570,"Delta":131521479},{"NoteNumber":60,"Velocity":83,"Duration":698180,"SoundDuration":698180,"Delta":131633336},{"NoteNumber":50,"Velocity":82,"Duration":698180,"SoundDuration":698180,"Delta":131857049},{"NoteNumber":57,"Velocity":70,"Duration":335570,"SoundDuration":335570,"Delta":132219660},{"NoteNumber":53,"Velocity":59,"Duration":335570,"SoundDuration":335570,"Delta":132219660},{"NoteNumber":62,"Velocity":82,"Duration":223713,"SoundDuration":223713,"Delta":132331517},{"NoteNumber":48,"Velocity":78,"Duration":698180,"SoundDuration":698180,"Delta":132555230},{"NoteNumber":30,"Velocity":62,"Duration":1396361,"SoundDuration":1396361,"Delta":132555230},{"NoteNumber":42,"Velocity":73,"Duration":1396361,"SoundDuration":1396361,"Delta":132555230},{"NoteNumber":60,"Velocity":70,"Duration":335570,"SoundDuration":335570,"Delta":132917841},{"NoteNumber":57,"Velocity":59,"Duration":335570,"SoundDuration":335570,"Delta":132917841},{"NoteNumber":51,"Velocity":77,"Duration":223713,"SoundDuration":223713,"Delta":133029697},{"NoteNumber":63,"Velocity":79,"Duration":698180,"SoundDuration":698180,"Delta":133253411},{"NoteNumber":60,"Velocity":77,"Duration":111856,"SoundDuration":111856,"Delta":133616022},{"NoteNumber":72,"Velocity":71,"Duration":223713,"SoundDuration":223713,"Delta":133727878},{"NoteNumber":48,"Velocity":82,"Duration":698180,"SoundDuration":698180,"Delta":133951592},{"NoteNumber":31,"Velocity":62,"Duration":474467,"SoundDuration":474467,"Delta":133951592},{"NoteNumber":43,"Velocity":73,"Duration":473941,"SoundDuration":473941,"Delta":133958643},{"NoteNumber":55,"Velocity":70,"Duration":335570,"SoundDuration":335570,"Delta":134314203},{"NoteNumber":52,"Velocity":59,"Duration":335570,"SoundDuration":335570,"Delta":134314203},{"NoteNumber":60,"Velocity":83,"Duration":687407,"SoundDuration":687407,"Delta":134426059},{"NoteNumber":50,"Velocity":82,"Duration":687407,"SoundDuration":687407,"Delta":134649773},{"NoteNumber":55,"Velocity":70,"Duration":335570,"SoundDuration":335570,"Delta":135001610},{"NoteNumber":52,"Velocity":59,"Duration":335570,"SoundDuration":335570,"Delta":135001610},{"NoteNumber":62,"Velocity":82,"Duration":223713,"SoundDuration":223713,"Delta":135113467},{"NoteNumber":48,"Velocity":78,"Duration":698180,"SoundDuration":698180,"Delta":135337180},{"NoteNumber":34,"Velocity":62,"Duration":1396361,"SoundDuration":1396361,"Delta":135337180},{"NoteNumber":46,"Velocity":73,"Duration":1396361,"SoundDuration":1396361,"Delta":135337180},{"NoteNumber":60,"Velocity":70,"Duration":335570,"SoundDuration":335570,"Delta":135699791},{"NoteNumber":55,"Velocity":59,"Duration":335570,"SoundDuration":335570,"Delta":135699791},{"NoteNumber":52,"Velocity":77,"Duration":223713,"SoundDuration":223713,"Delta":135811648},{"NoteNumber":64,"Velocity":79,"Duration":698180,"SoundDuration":698180,"Delta":136035361},{"NoteNumber":60,"Velocity":77,"Duration":111856,"SoundDuration":111856,"Delta":136397972},{"NoteNumber":72,"Velocity":71,"Duration":223713,"SoundDuration":223713,"Delta":136509829},{"NoteNumber":48,"Velocity":82,"Duration":698180,"SoundDuration":698180,"Delta":136733542},{"NoteNumber":45,"Velocity":73,"Duration":474467,"SoundDuration":474467,"Delta":136733542},{"NoteNumber":33,"Velocity":62,"Duration":474467,"SoundDuration":474467,"Delta":136733542},{"NoteNumber":57,"Velocity":70,"Duration":335570,"SoundDuration":335570,"Delta":137096153},{"NoteNumber":53,"Velocity":59,"Duration":335570,"SoundDuration":335570,"Delta":137096153},{"NoteNumber":60,"Velocity":83,"Duration":698180,"SoundDuration":698180,"Delta":137208010},{"NoteNumber":50,"Velocity":82,"Duration":698180,"SoundDuration":698180,"Delta":137431723},{"NoteNumber":53,"Velocity":59,"Duration":335570,"SoundDuration":335570,"Delta":137794334},{"NoteNumber":57,"Velocity":70,"Duration":335570,"SoundDuration":335570,"Delta":137794334},{"NoteNumber":62,"Velocity":82,"Duration":223713,"SoundDuration":223713,"Delta":137906191},{"NoteNumber":51,"Velocity":78,"Duration":698180,"SoundDuration":698180,"Delta":138129904},{"NoteNumber":32,"Velocity":62,"Duration":1396361,"SoundDuration":1396361,"Delta":138129904},{"NoteNumber":44,"Velocity":73,"Duration":1396361,"SoundDuration":1396361,"Delta":138129904},{"NoteNumber":60,"Velocity":70,"Duration":335570,"SoundDuration":335570,"Delta":138492515},{"NoteNumber":54,"Velocity":59,"Duration":335570,"SoundDuration":335570,"Delta":138492515},{"NoteNumber":51,"Velocity":77,"Duration":223713,"SoundDuration":223713,"Delta":138604372},{"NoteNumber":63,"Velocity":79,"Duration":698180,"SoundDuration":698180,"Delta":138828085},{"NoteNumber":60,"Velocity":77,"Duration":111856,"SoundDuration":111856,"Delta":139190696},{"NoteNumber":72,"Velocity":71,"Duration":223713,"SoundDuration":223713,"Delta":139302553},{"NoteNumber":53,"Velocity":78,"Duration":698180,"SoundDuration":698180,"Delta":139526266},{"NoteNumber":31,"Velocity":62,"Duration":1402997,"SoundDuration":1402997,"Delta":139526266},{"NoteNumber":43,"Velocity":73,"Duration":1402997,"SoundDuration":1402997,"Delta":139526266},{"NoteNumber":62,"Velocity":70,"Duration":111856,"SoundDuration":111856,"Delta":139888877},{"NoteNumber":59,"Velocity":59,"Duration":111856,"SoundDuration":111856,"Delta":139888877},{"NoteNumber":55,"Velocity":77,"Duration":223713,"SoundDuration":223713,"Delta":140000734},{"NoteNumber":67,"Velocity":79,"Duration":704816,"SoundDuration":704816,"Delta":140224447},{"NoteNumber":65,"Velocity":77,"Duration":114068,"SoundDuration":114068,"Delta":140587058},{"NoteNumber":79,"Velocity":69,"Duration":228137,"SoundDuration":228137,"Delta":140701126},{"NoteNumber":74,"Velocity":61,"Duration":228137,"SoundDuration":228137,"Delta":140701126},{"NoteNumber":52,"Velocity":78,"Duration":726763,"SoundDuration":726763,"Delta":140929263},{"NoteNumber":36,"Velocity":62,"Duration":493300,"SoundDuration":493300,"Delta":140929263},{"NoteNumber":48,"Velocity":73,"Duration":493300,"SoundDuration":493300,"Delta":140929263},{"NoteNumber":60,"Velocity":70,"Duration":116731,"SoundDuration":116731,"Delta":141305832},{"NoteNumber":55,"Velocity":59,"Duration":116731,"SoundDuration":116731,"Delta":141305832},{"NoteNumber":64,"Velocity":77,"Duration":233463,"SoundDuration":233463,"Delta":141422564},{"NoteNumber":72,"Velocity":83,"Duration":241740,"SoundDuration":241740,"Delta":141656027},{"NoteNumber":48,"Velocity":73,"Duration":121359,"SoundDuration":121359,"Delta":142018638},{"NoteNumber":48,"Velocity":68,"Duration":271247,"SoundDuration":271247,"Delta":142139997},{"NoteNumber":48,"Velocity":82,"Duration":692280,"SoundDuration":692280,"Delta":142411244},{"NoteNumber":29,"Velocity":62,"Duration":472500,"SoundDuration":472500,"Delta":142411244},{"NoteNumber":41,"Velocity":73,"Duration":472500,"SoundDuration":472500,"Delta":142411244},{"NoteNumber":57,"Velocity":70,"Duration":329669,"SoundDuration":329669,"Delta":142773855},{"NoteNumber":53,"Velocity":59,"Duration":329669,"SoundDuration":329669,"Delta":142773855},{"NoteNumber":60,"Velocity":83,"Duration":694247,"SoundDuration":694247,"Delta":142883745},{"NoteNumber":50,"Velocity":82,"Duration":708773,"SoundDuration":708773,"Delta":143103525},{"NoteNumber":57,"Velocity":70,"Duration":346162,"SoundDuration":346162,"Delta":143466136},{"NoteNumber":53,"Velocity":59,"Duration":346162,"SoundDuration":346162,"Delta":143466136},{"NoteNumber":62,"Velocity":82,"Duration":234305,"SoundDuration":234305,"Delta":143577993},{"NoteNumber":48,"Velocity":78,"Duration":698180,"SoundDuration":698180,"Delta":143812298},{"NoteNumber":30,"Velocity":62,"Duration":1409505,"SoundDuration":1409505,"Delta":143812298},{"NoteNumber":42,"Velocity":73,"Duration":1409505,"SoundDuration":1409505,"Delta":143812298},{"NoteNumber":60,"Velocity":70,"Duration":335570,"SoundDuration":335570,"Delta":144174909},{"NoteNumber":57,"Velocity":59,"Duration":335570,"SoundDuration":335570,"Delta":144174909},{"NoteNumber":51,"Velocity":77,"Duration":223713,"SoundDuration":223713,"Delta":144286766},{"NoteNumber":63,"Velocity":79,"Duration":711324,"SoundDuration":711324,"Delta":144510479},{"NoteNumber":60,"Velocity":77,"Duration":111856,"SoundDuration":111856,"Delta":144873090},{"NoteNumber":72,"Velocity":71,"Duration":236856,"SoundDuration":236856,"Delta":144984947},{"NoteNumber":48,"Velocity":82,"Duration":698180,"SoundDuration":698180,"Delta":145221804},{"NoteNumber":31,"Velocity":62,"Duration":474467,"SoundDuration":474467,"Delta":145221804},{"NoteNumber":43,"Velocity":73,"Duration":473941,"SoundDuration":473941,"Delta":145228855},{"NoteNumber":55,"Velocity":70,"Duration":335570,"SoundDuration":335570,"Delta":145584414},{"NoteNumber":52,"Velocity":59,"Duration":335570,"SoundDuration":335570,"Delta":145584414},{"NoteNumber":60,"Velocity":83,"Duration":698180,"SoundDuration":698180,"Delta":145696271},{"NoteNumber":50,"Velocity":82,"Duration":720853,"SoundDuration":720853,"Delta":145919985},{"NoteNumber":55,"Velocity":70,"Duration":358242,"SoundDuration":358242,"Delta":146282595},{"NoteNumber":52,"Velocity":59,"Duration":358242,"SoundDuration":358242,"Delta":146282595},{"NoteNumber":62,"Velocity":82,"Duration":246386,"SoundDuration":246386,"Delta":146394452},{"NoteNumber":48,"Velocity":78,"Duration":698180,"SoundDuration":698180,"Delta":146640838},{"NoteNumber":34,"Velocity":62,"Duration":1396361,"SoundDuration":1396361,"Delta":146640838},{"NoteNumber":46,"Velocity":73,"Duration":1396361,"SoundDuration":1396361,"Delta":146640838},{"NoteNumber":60,"Velocity":70,"Duration":335570,"SoundDuration":335570,"Delta":147003449},{"NoteNumber":55,"Velocity":59,"Duration":335570,"SoundDuration":335570,"Delta":147003449},{"NoteNumber":52,"Velocity":77,"Duration":223713,"SoundDuration":223713,"Delta":147115306},{"NoteNumber":64,"Velocity":79,"Duration":698180,"SoundDuration":698180,"Delta":147339019},{"NoteNumber":60,"Velocity":77,"Duration":111856,"SoundDuration":111856,"Delta":147701630},{"NoteNumber":72,"Velocity":71,"Duration":223713,"SoundDuration":223713,"Delta":147813487},{"NoteNumber":48,"Velocity":82,"Duration":698180,"SoundDuration":698180,"Delta":148037200},{"NoteNumber":45,"Velocity":73,"Duration":474467,"SoundDuration":474467,"Delta":148037200},{"NoteNumber":33,"Velocity":62,"Duration":474467,"SoundDuration":474467,"Delta":148037200},{"NoteNumber":57,"Velocity":70,"Duration":335570,"SoundDuration":335570,"Delta":148399811},{"NoteNumber":53,"Velocity":59,"Duration":335570,"SoundDuration":335570,"Delta":148399811},{"NoteNumber":60,"Velocity":83,"Duration":698180,"SoundDuration":698180,"Delta":148511668},{"NoteNumber":50,"Velocity":82,"Duration":698180,"SoundDuration":698180,"Delta":148735381},{"NoteNumber":53,"Velocity":59,"Duration":335570,"SoundDuration":335570,"Delta":149097992},{"NoteNumber":57,"Velocity":70,"Duration":335570,"SoundDuration":335570,"Delta":149097992},{"NoteNumber":62,"Velocity":82,"Duration":223713,"SoundDuration":223713,"Delta":149209849},{"NoteNumber":51,"Velocity":78,"Duration":698180,"SoundDuration":698180,"Delta":149433562},{"NoteNumber":32,"Velocity":62,"Duration":1436789,"SoundDuration":1436789,"Delta":149433562},{"NoteNumber":44,"Velocity":73,"Duration":1436789,"SoundDuration":1436789,"Delta":149433562},{"NoteNumber":60,"Velocity":70,"Duration":335570,"SoundDuration":335570,"Delta":149796173},{"NoteNumber":54,"Velocity":59,"Duration":335570,"SoundDuration":335570,"Delta":149796173},{"NoteNumber":51,"Velocity":77,"Duration":223713,"SoundDuration":223713,"Delta":149908030},{"NoteNumber":63,"Velocity":79,"Duration":738608,"SoundDuration":738608,"Delta":150131743},{"NoteNumber":60,"Velocity":77,"Duration":111856,"SoundDuration":111856,"Delta":150494354},{"NoteNumber":72,"Velocity":71,"Duration":264141,"SoundDuration":264141,"Delta":150606211},{"NoteNumber":31,"Velocity":62,"Duration":1396361,"SoundDuration":1396361,"Delta":150870352},{"NoteNumber":43,"Velocity":73,"Duration":1396361,"SoundDuration":1396361,"Delta":150870352},{"NoteNumber":53,"Velocity":78,"Duration":698180,"SoundDuration":698180,"Delta":150876395},{"NoteNumber":62,"Velocity":70,"Duration":111856,"SoundDuration":111856,"Delta":151232962},{"NoteNumber":59,"Velocity":59,"Duration":111856,"SoundDuration":111856,"Delta":151232962},{"NoteNumber":55,"Velocity":77,"Duration":223713,"SoundDuration":223713,"Delta":151344819},{"NoteNumber":67,"Velocity":79,"Duration":698180,"SoundDuration":698180,"Delta":151568533},{"NoteNumber":65,"Velocity":77,"Duration":111856,"SoundDuration":111856,"Delta":151931143},{"NoteNumber":79,"Velocity":69,"Duration":223713,"SoundDuration":223713,"Delta":152043000},{"NoteNumber":74,"Velocity":61,"Duration":223713,"SoundDuration":223713,"Delta":152043000},{"NoteNumber":52,"Velocity":78,"Duration":698180,"SoundDuration":698180,"Delta":152266714},{"NoteNumber":36,"Velocity":62,"Duration":474467,"SoundDuration":474467,"Delta":152266714},{"NoteNumber":48,"Velocity":73,"Duration":474467,"SoundDuration":474467,"Delta":152266714},{"NoteNumber":60,"Velocity":70,"Duration":111856,"SoundDuration":111856,"Delta":152629324},{"NoteNumber":55,"Velocity":59,"Duration":111856,"SoundDuration":111856,"Delta":152629324},{"NoteNumber":64,"Velocity":77,"Duration":223713,"SoundDuration":223713,"Delta":152741181},{"NoteNumber":72,"Velocity":83,"Duration":241740,"SoundDuration":241740,"Delta":152964895},{"NoteNumber":48,"Velocity":81,"Duration":114854,"SoundDuration":114854,"Delta":153327505},{"NoteNumber":48,"Velocity":76,"Duration":257290,"SoundDuration":257290,"Delta":153442360},{"NoteNumber":48,"Velocity":78,"Duration":1035876,"SoundDuration":1035876,"Delta":153699650},{"NoteNumber":36,"Velocity":70,"Duration":241740,"SoundDuration":241740,"Delta":153699650},{"NoteNumber":24,"Velocity":63,"Duration":241740,"SoundDuration":241740,"Delta":153699650},{"NoteNumber":57,"Velocity":70,"Duration":111856,"SoundDuration":111856,"Delta":154062261},{"NoteNumber":54,"Velocity":59,"Duration":111856,"SoundDuration":111856,"Delta":154062261},{"NoteNumber":63,"Velocity":55,"Duration":111856,"SoundDuration":111856,"Delta":154062261},{"NoteNumber":54,"Velocity":61,"Duration":223713,"SoundDuration":223713,"Delta":154174117},{"NoteNumber":57,"Velocity":72,"Duration":223713,"SoundDuration":223713,"Delta":154174117},{"NoteNumber":63,"Velocity":61,"Duration":223713,"SoundDuration":223713,"Delta":154174117},{"NoteNumber":54,"Velocity":65,"Duration":337695,"SoundDuration":337695,"Delta":154397831},{"NoteNumber":57,"Velocity":77,"Duration":337695,"SoundDuration":337695,"Delta":154397831},{"NoteNumber":63,"Velocity":66,"Duration":337695,"SoundDuration":337695,"Delta":154397831},{"NoteNumber":60,"Velocity":74,"Duration":113981,"SoundDuration":113981,"Delta":154735526},{"NoteNumber":62,"Velocity":59,"Duration":113981,"SoundDuration":113981,"Delta":154735526},{"NoteNumber":60,"Velocity":71,"Duration":240770,"SoundDuration":240770,"Delta":154849508},{"NoteNumber":62,"Velocity":56,"Duration":240770,"SoundDuration":240770,"Delta":154849508},{"NoteNumber":60,"Velocity":76,"Duration":933278,"SoundDuration":933278,"Delta":155090278},{"NoteNumber":62,"Velocity":67,"Duration":933278,"SoundDuration":933278,"Delta":155090278},{"NoteNumber":69,"Velocity":64,"Duration":112275,"SoundDuration":112275,"Delta":155462179},{"NoteNumber":66,"Velocity":54,"Duration":112275,"SoundDuration":112275,"Delta":155462179},{"NoteNumber":50,"Velocity":51,"Duration":112275,"SoundDuration":112275,"Delta":155462179},{"NoteNumber":54,"Velocity":61,"Duration":112275,"SoundDuration":112275,"Delta":155462179},{"NoteNumber":66,"Velocity":54,"Duration":224550,"SoundDuration":224550,"Delta":155574455},{"NoteNumber":69,"Velocity":64,"Duration":224550,"SoundDuration":224550,"Delta":155574455},{"NoteNumber":50,"Velocity":49,"Duration":224550,"SoundDuration":224550,"Delta":155574455},{"NoteNumber":54,"Velocity":58,"Duration":224550,"SoundDuration":224550,"Delta":155574455},{"NoteNumber":66,"Velocity":59,"Duration":224550,"SoundDuration":224550,"Delta":155799006},{"NoteNumber":69,"Velocity":70,"Duration":224550,"SoundDuration":224550,"Delta":155799006},{"NoteNumber":50,"Velocity":53,"Duration":224550,"SoundDuration":224550,"Delta":155799006},{"NoteNumber":54,"Velocity":63,"Duration":224550,"SoundDuration":224550,"Delta":155799006},{"NoteNumber":50,"Velocity":76,"Duration":114854,"SoundDuration":114854,"Delta":156135832},{"NoteNumber":50,"Velocity":76,"Duration":249792,"SoundDuration":249792,"Delta":156250687},{"NoteNumber":50,"Velocity":78,"Duration":1028944,"SoundDuration":1028944,"Delta":156500479},{"NoteNumber":43,"Velocity":70,"Duration":237906,"SoundDuration":237906,"Delta":156500479},{"NoteNumber":31,"Velocity":70,"Duration":237906,"SoundDuration":237906,"Delta":156500479},{"NoteNumber":58,"Velocity":70,"Duration":112697,"SoundDuration":112697,"Delta":156853240},{"NoteNumber":55,"Velocity":59,"Duration":112697,"SoundDuration":112697,"Delta":156853240},{"NoteNumber":63,"Velocity":55,"Duration":112697,"SoundDuration":112697,"Delta":156853240},{"NoteNumber":55,"Velocity":61,"Duration":225394,"SoundDuration":225394,"Delta":156965937},{"NoteNumber":58,"Velocity":72,"Duration":225394,"SoundDuration":225394,"Delta":156965937},{"NoteNumber":63,"Velocity":61,"Duration":225394,"SoundDuration":225394,"Delta":156965937},{"NoteNumber":55,"Velocity":65,"Duration":338091,"SoundDuration":338091,"Delta":157191332},{"NoteNumber":58,"Velocity":77,"Duration":338091,"SoundDuration":338091,"Delta":157191332},{"NoteNumber":63,"Velocity":66,"Duration":338091,"SoundDuration":338091,"Delta":157191332},{"NoteNumber":62,"Velocity":76,"Duration":116640,"SoundDuration":116640,"Delta":157529423},{"NoteNumber":62,"Velocity":76,"Duration":246710,"SoundDuration":246710,"Delta":157646064},{"NoteNumber":62,"Velocity":79,"Duration":931064,"SoundDuration":931064,"Delta":157892775},{"NoteNumber":70,"Velocity":64,"Duration":113981,"SoundDuration":113981,"Delta":158253930},{"NoteNumber":67,"Velocity":54,"Duration":113981,"SoundDuration":113981,"Delta":158253930},{"NoteNumber":50,"Velocity":51,"Duration":113981,"SoundDuration":113981,"Delta":158253930},{"NoteNumber":55,"Velocity":61,"Duration":113981,"SoundDuration":113981,"Delta":158253930},{"NoteNumber":67,"Velocity":54,"Duration":227963,"SoundDuration":227963,"Delta":158367912},{"NoteNumber":70,"Velocity":64,"Duration":227963,"SoundDuration":227963,"Delta":158367912},{"NoteNumber":50,"Velocity":49,"Duration":227963,"SoundDuration":227963,"Delta":158367912},{"NoteNumber":55,"Velocity":58,"Duration":227963,"SoundDuration":227963,"Delta":158367912},{"NoteNumber":67,"Velocity":59,"Duration":227963,"SoundDuration":227963,"Delta":158595876},{"NoteNumber":70,"Velocity":70,"Duration":227963,"SoundDuration":227963,"Delta":158595876},{"NoteNumber":50,"Velocity":53,"Duration":227963,"SoundDuration":227963,"Delta":158595876},{"NoteNumber":55,"Velocity":63,"Duration":227963,"SoundDuration":227963,"Delta":158595876},{"NoteNumber":52,"Velocity":75,"Duration":114854,"SoundDuration":114854,"Delta":158937821},{"NoteNumber":52,"Velocity":76,"Duration":245699,"SoundDuration":245699,"Delta":159052675},{"NoteNumber":52,"Velocity":78,"Duration":936301,"SoundDuration":936301,"Delta":159298375},{"NoteNumber":50,"Velocity":70,"Duration":245699,"SoundDuration":245699,"Delta":159298375},{"NoteNumber":38,"Velocity":70,"Duration":245699,"SoundDuration":245699,"Delta":159298375},{"NoteNumber":62,"Velocity":70,"Duration":113550,"SoundDuration":113550,"Delta":159666925},{"NoteNumber":59,"Velocity":59,"Duration":113550,"SoundDuration":113550,"Delta":159666925},{"NoteNumber":65,"Velocity":55,"Duration":113550,"SoundDuration":113550,"Delta":159666925},{"NoteNumber":59,"Velocity":61,"Duration":227100,"SoundDuration":227100,"Delta":159780476},{"NoteNumber":62,"Velocity":72,"Duration":227100,"SoundDuration":227100,"Delta":159780476},{"NoteNumber":65,"Velocity":61,"Duration":227100,"SoundDuration":227100,"Delta":159780476},{"NoteNumber":59,"Velocity":65,"Duration":227100,"SoundDuration":227100,"Delta":160007576},{"NoteNumber":62,"Velocity":77,"Duration":227100,"SoundDuration":227100,"Delta":160007576},{"NoteNumber":65,"Velocity":66,"Duration":340650,"SoundDuration":340650,"Delta":160007576},{"NoteNumber":62,"Velocity":74,"Duration":118483,"SoundDuration":118483,"Delta":160348227},{"NoteNumber":64,"Velocity":61,"Duration":118483,"SoundDuration":118483,"Delta":160348227},{"NoteNumber":62,"Velocity":75,"Duration":248755,"SoundDuration":248755,"Delta":160466710},{"NoteNumber":64,"Velocity":58,"Duration":248755,"SoundDuration":248755,"Delta":160466710},{"NoteNumber":62,"Velocity":79,"Duration":943042,"SoundDuration":943042,"Delta":160715466},{"NoteNumber":64,"Velocity":62,"Duration":943042,"SoundDuration":943042,"Delta":160715466},{"NoteNumber":71,"Velocity":64,"Duration":113981,"SoundDuration":113981,"Delta":161088600},{"NoteNumber":68,"Velocity":54,"Duration":113981,"SoundDuration":113981,"Delta":161088600},{"NoteNumber":52,"Velocity":51,"Duration":113981,"SoundDuration":113981,"Delta":161088600},{"NoteNumber":56,"Velocity":61,"Duration":113981,"SoundDuration":113981,"Delta":161088600},{"NoteNumber":68,"Velocity":54,"Duration":227963,"SoundDuration":227963,"Delta":161202582},{"NoteNumber":71,"Velocity":64,"Duration":227963,"SoundDuration":227963,"Delta":161202582},{"NoteNumber":52,"Velocity":49,"Duration":227963,"SoundDuration":227963,"Delta":161202582},{"NoteNumber":56,"Velocity":58,"Duration":227963,"SoundDuration":227963,"Delta":161202582},{"NoteNumber":68,"Velocity":59,"Duration":227963,"SoundDuration":227963,"Delta":161430546},{"NoteNumber":71,"Velocity":70,"Duration":227963,"SoundDuration":227963,"Delta":161430546},{"NoteNumber":52,"Velocity":53,"Duration":227963,"SoundDuration":227963,"Delta":161430546},{"NoteNumber":56,"Velocity":63,"Duration":227963,"SoundDuration":227963,"Delta":161430546},{"NoteNumber":52,"Velocity":72,"Duration":118017,"SoundDuration":118017,"Delta":161772491},{"NoteNumber":52,"Velocity":72,"Duration":252950,"SoundDuration":252950,"Delta":161890508},{"NoteNumber":52,"Velocity":78,"Duration":938710,"SoundDuration":938710,"Delta":162143459},{"NoteNumber":48,"Velocity":70,"Duration":252950,"SoundDuration":252950,"Delta":162143459},{"NoteNumber":36,"Velocity":70,"Duration":252950,"SoundDuration":252950,"Delta":162143459},{"NoteNumber":60,"Velocity":70,"Duration":111856,"SoundDuration":111856,"Delta":162522886},{"NoteNumber":57,"Velocity":59,"Duration":111856,"SoundDuration":111856,"Delta":162522886},{"NoteNumber":65,"Velocity":55,"Duration":111856,"SoundDuration":111856,"Delta":162522886},{"NoteNumber":57,"Velocity":61,"Duration":223713,"SoundDuration":223713,"Delta":162634742},{"NoteNumber":60,"Velocity":72,"Duration":223713,"SoundDuration":223713,"Delta":162634742},{"NoteNumber":65,"Velocity":61,"Duration":223713,"SoundDuration":223713,"Delta":162634742},{"NoteNumber":57,"Velocity":65,"Duration":223713,"SoundDuration":223713,"Delta":162858456},{"NoteNumber":60,"Velocity":77,"Duration":223713,"SoundDuration":223713,"Delta":162858456},{"NoteNumber":65,"Velocity":66,"Duration":335570,"SoundDuration":335570,"Delta":162858456},{"NoteNumber":60,"Velocity":77,"Duration":115296,"SoundDuration":115296,"Delta":163194026},{"NoteNumber":64,"Velocity":67,"Duration":115296,"SoundDuration":115296,"Delta":163194026},{"NoteNumber":60,"Velocity":78,"Duration":251889,"SoundDuration":251889,"Delta":163309322},{"NoteNumber":64,"Velocity":63,"Duration":251889,"SoundDuration":251889,"Delta":163309322},{"NoteNumber":60,"Velocity":77,"Duration":941319,"SoundDuration":941319,"Delta":163561211},{"NoteNumber":64,"Velocity":62,"Duration":941319,"SoundDuration":941319,"Delta":163561211},{"NoteNumber":72,"Velocity":69,"Duration":114854,"SoundDuration":114854,"Delta":163928258},{"NoteNumber":69,"Velocity":57,"Duration":114854,"SoundDuration":114854,"Delta":163928258},{"NoteNumber":52,"Velocity":54,"Duration":114854,"SoundDuration":114854,"Delta":163928258},{"NoteNumber":57,"Velocity":65,"Duration":114854,"SoundDuration":114854,"Delta":163934958},{"NoteNumber":69,"Velocity":57,"Duration":229708,"SoundDuration":229708,"Delta":164043113},{"NoteNumber":72,"Velocity":69,"Duration":229708,"SoundDuration":229708,"Delta":164043113},{"NoteNumber":52,"Velocity":52,"Duration":229708,"SoundDuration":229708,"Delta":164043113},{"NoteNumber":57,"Velocity":62,"Duration":229708,"SoundDuration":229708,"Delta":164043113},{"NoteNumber":69,"Velocity":63,"Duration":229709,"SoundDuration":229709,"Delta":164272822},{"NoteNumber":72,"Velocity":75,"Duration":229709,"SoundDuration":229709,"Delta":164272822},{"NoteNumber":57,"Velocity":67,"Duration":229709,"SoundDuration":229709,"Delta":164272822},{"NoteNumber":52,"Velocity":56,"Duration":229786,"SoundDuration":229786,"Delta":164279522},{"NoteNumber":57,"Velocity":63,"Duration":114854,"SoundDuration":114854,"Delta":164618720},{"NoteNumber":57,"Velocity":64,"Duration":245699,"SoundDuration":245699,"Delta":164733574},{"NoteNumber":57,"Velocity":66,"Duration":709200,"SoundDuration":709200,"Delta":164979274},{"NoteNumber":50,"Velocity":70,"Duration":245699,"SoundDuration":245699,"Delta":164979274},{"NoteNumber":38,"Velocity":70,"Duration":245699,"SoundDuration":245699,"Delta":164979274},{"NoteNumber":65,"Velocity":54,"Duration":56775,"SoundDuration":56775,"Delta":165347824},{"NoteNumber":62,"Velocity":45,"Duration":56775,"SoundDuration":56775,"Delta":165347824},{"NoteNumber":71,"Velocity":66,"Duration":56775,"SoundDuration":56775,"Delta":165347824},{"NoteNumber":62,"Velocity":45,"Duration":113550,"SoundDuration":113550,"Delta":165461374},{"NoteNumber":65,"Velocity":54,"Duration":113550,"SoundDuration":113550,"Delta":165461374},{"NoteNumber":71,"Velocity":67,"Duration":113550,"SoundDuration":113550,"Delta":165461374},{"NoteNumber":62,"Velocity":52,"Duration":119521,"SoundDuration":119521,"Delta":165688475},{"NoteNumber":65,"Velocity":62,"Duration":119521,"SoundDuration":119521,"Delta":165688475},{"NoteNumber":71,"Velocity":76,"Duration":179282,"SoundDuration":179282,"Delta":165688475},{"NoteNumber":57,"Velocity":55,"Duration":59241,"SoundDuration":59241,"Delta":166047041},{"NoteNumber":77,"Velocity":70,"Duration":59241,"SoundDuration":59241,"Delta":166047041},{"NoteNumber":57,"Velocity":55,"Duration":121555,"SoundDuration":121555,"Delta":166165524},{"NoteNumber":77,"Velocity":70,"Duration":121555,"SoundDuration":121555,"Delta":166165524},{"NoteNumber":57,"Velocity":63,"Duration":706613,"SoundDuration":706613,"Delta":166408636},{"NoteNumber":77,"Velocity":78,"Duration":706613,"SoundDuration":706613,"Delta":166408636},{"NoteNumber":65,"Velocity":54,"Duration":56990,"SoundDuration":56990,"Delta":166773304},{"NoteNumber":62,"Velocity":38,"Duration":56990,"SoundDuration":56990,"Delta":166773304},{"NoteNumber":71,"Velocity":70,"Duration":56990,"SoundDuration":56990,"Delta":166773304},{"NoteNumber":62,"Velocity":38,"Duration":113981,"SoundDuration":113981,"Delta":166887286},{"NoteNumber":65,"Velocity":54,"Duration":113981,"SoundDuration":113981,"Delta":166887286},{"NoteNumber":71,"Velocity":74,"Duration":113981,"SoundDuration":113981,"Delta":166887286},{"NoteNumber":62,"Velocity":42,"Duration":113981,"SoundDuration":113981,"Delta":167115250},{"NoteNumber":65,"Velocity":59,"Duration":113981,"SoundDuration":113981,"Delta":167115250},{"NoteNumber":71,"Velocity":75,"Duration":113981,"SoundDuration":113981,"Delta":167115250},{"NoteNumber":65,"Velocity":63,"Duration":57427,"SoundDuration":57427,"Delta":167457195},{"NoteNumber":65,"Velocity":64,"Duration":122849,"SoundDuration":122849,"Delta":167572049},{"NoteNumber":65,"Velocity":66,"Duration":709200,"SoundDuration":709200,"Delta":167817749},{"NoteNumber":47,"Velocity":70,"Duration":245699,"SoundDuration":245699,"Delta":167817749},{"NoteNumber":35,"Velocity":70,"Duration":245699,"SoundDuration":245699,"Delta":167817749},{"NoteNumber":74,"Velocity":54,"Duration":56775,"SoundDuration":56775,"Delta":168186299},{"NoteNumber":71,"Velocity":45,"Duration":56775,"SoundDuration":56775,"Delta":168186299},{"NoteNumber":59,"Velocity":66,"Duration":56775,"SoundDuration":56775,"Delta":168186299},{"NoteNumber":71,"Velocity":45,"Duration":113550,"SoundDuration":113550,"Delta":168299850},{"NoteNumber":74,"Velocity":54,"Duration":113550,"SoundDuration":113550,"Delta":168299850},{"NoteNumber":59,"Velocity":67,"Duration":113550,"SoundDuration":113550,"Delta":168299850},{"NoteNumber":71,"Velocity":52,"Duration":113550,"SoundDuration":113550,"Delta":168526950},{"NoteNumber":74,"Velocity":62,"Duration":113550,"SoundDuration":113550,"Delta":168526950},{"NoteNumber":59,"Velocity":76,"Duration":170325,"SoundDuration":170325,"Delta":168526950},{"NoteNumber":65,"Velocity":55,"Duration":59241,"SoundDuration":59241,"Delta":168867601},{"NoteNumber":69,"Velocity":70,"Duration":59241,"SoundDuration":59241,"Delta":168867601},{"NoteNumber":65,"Velocity":55,"Duration":124378,"SoundDuration":124378,"Delta":168986084},{"NoteNumber":69,"Velocity":70,"Duration":124378,"SoundDuration":124378,"Delta":168986084},{"NoteNumber":65,"Velocity":63,"Duration":709592,"SoundDuration":709592,"Delta":169233011},{"NoteNumber":69,"Velocity":78,"Duration":709592,"SoundDuration":709592,"Delta":169233011},{"NoteNumber":74,"Velocity":54,"Duration":56990,"SoundDuration":56990,"Delta":169600658},{"NoteNumber":71,"Velocity":38,"Duration":56990,"SoundDuration":56990,"Delta":169600658},{"NoteNumber":59,"Velocity":70,"Duration":56990,"SoundDuration":56990,"Delta":169600658},{"NoteNumber":71,"Velocity":38,"Duration":113981,"SoundDuration":113981,"Delta":169714640},{"NoteNumber":74,"Velocity":54,"Duration":113981,"SoundDuration":113981,"Delta":169714640},{"NoteNumber":59,"Velocity":74,"Duration":113981,"SoundDuration":113981,"Delta":169714640},{"NoteNumber":71,"Velocity":42,"Duration":113981,"SoundDuration":113981,"Delta":169942604},{"NoteNumber":74,"Velocity":59,"Duration":113981,"SoundDuration":113981,"Delta":169942604},{"NoteNumber":59,"Velocity":75,"Duration":113981,"SoundDuration":113981,"Delta":169942604},{"NoteNumber":56,"Velocity":63,"Duration":57427,"SoundDuration":57427,"Delta":170284549},{"NoteNumber":56,"Velocity":64,"Duration":122849,"SoundDuration":122849,"Delta":170399403},{"NoteNumber":56,"Velocity":66,"Duration":709200,"SoundDuration":709200,"Delta":170645103},{"NoteNumber":52,"Velocity":70,"Duration":245699,"SoundDuration":245699,"Delta":170645103},{"NoteNumber":40,"Velocity":70,"Duration":245699,"SoundDuration":245699,"Delta":170645103},{"NoteNumber":64,"Velocity":54,"Duration":56775,"SoundDuration":56775,"Delta":171013653},{"NoteNumber":62,"Velocity":45,"Duration":56775,"SoundDuration":56775,"Delta":171013653},{"NoteNumber":71,"Velocity":66,"Duration":56775,"SoundDuration":56775,"Delta":171013653},{"NoteNumber":62,"Velocity":45,"Duration":113550,"SoundDuration":113550,"Delta":171127204},{"NoteNumber":64,"Velocity":54,"Duration":113550,"SoundDuration":113550,"Delta":171127204},{"NoteNumber":71,"Velocity":67,"Duration":113550,"SoundDuration":113550,"Delta":171127204},{"NoteNumber":62,"Velocity":52,"Duration":113550,"SoundDuration":113550,"Delta":171354304},{"NoteNumber":64,"Velocity":62,"Duration":113550,"SoundDuration":113550,"Delta":171354304},{"NoteNumber":71,"Velocity":76,"Duration":170325,"SoundDuration":170325,"Delta":171354304},{"NoteNumber":56,"Velocity":55,"Duration":59241,"SoundDuration":59241,"Delta":171694955},{"NoteNumber":76,"Velocity":70,"Duration":59241,"SoundDuration":59241,"Delta":171694955},{"NoteNumber":56,"Velocity":55,"Duration":124378,"SoundDuration":124378,"Delta":171813438},{"NoteNumber":76,"Velocity":70,"Duration":124378,"SoundDuration":124378,"Delta":171813438},{"NoteNumber":56,"Velocity":63,"Duration":715079,"SoundDuration":715079,"Delta":172062194},{"NoteNumber":76,"Velocity":78,"Duration":715079,"SoundDuration":715079,"Delta":172062194},{"NoteNumber":64,"Velocity":54,"Duration":56990,"SoundDuration":56990,"Delta":172435328},{"NoteNumber":62,"Velocity":38,"Duration":56990,"SoundDuration":56990,"Delta":172435328},{"NoteNumber":71,"Velocity":70,"Duration":56990,"SoundDuration":56990,"Delta":172435328},{"NoteNumber":62,"Velocity":38,"Duration":113981,"SoundDuration":113981,"Delta":172549310},{"NoteNumber":64,"Velocity":54,"Duration":113981,"SoundDuration":113981,"Delta":172549310},{"NoteNumber":71,"Velocity":74,"Duration":113981,"SoundDuration":113981,"Delta":172549310},{"NoteNumber":62,"Velocity":42,"Duration":113981,"SoundDuration":113981,"Delta":172777274},{"NoteNumber":64,"Velocity":59,"Duration":113981,"SoundDuration":113981,"Delta":172777274},{"NoteNumber":71,"Velocity":75,"Duration":113981,"SoundDuration":113981,"Delta":172777274},{"NoteNumber":62,"Velocity":63,"Duration":57427,"SoundDuration":57427,"Delta":173119219},{"NoteNumber":62,"Velocity":64,"Duration":122849,"SoundDuration":122849,"Delta":173234073},{"NoteNumber":62,"Velocity":66,"Duration":709200,"SoundDuration":709200,"Delta":173479773},{"NoteNumber":40,"Velocity":70,"Duration":245699,"SoundDuration":245699,"Delta":173479773},{"NoteNumber":28,"Velocity":70,"Duration":245699,"SoundDuration":245699,"Delta":173479773},{"NoteNumber":71,"Velocity":54,"Duration":56775,"SoundDuration":56775,"Delta":173848323},{"NoteNumber":68,"Velocity":45,"Duration":56775,"SoundDuration":56775,"Delta":173848323},{"NoteNumber":52,"Velocity":66,"Duration":56775,"SoundDuration":56775,"Delta":173848323},{"NoteNumber":68,"Velocity":45,"Duration":113550,"SoundDuration":113550,"Delta":173961874},{"NoteNumber":71,"Velocity":54,"Duration":113550,"SoundDuration":113550,"Delta":173961874},{"NoteNumber":52,"Velocity":67,"Duration":113550,"SoundDuration":113550,"Delta":173961874},{"NoteNumber":68,"Velocity":52,"Duration":113550,"SoundDuration":113550,"Delta":174188974},{"NoteNumber":71,"Velocity":62,"Duration":113550,"SoundDuration":113550,"Delta":174188974},{"NoteNumber":52,"Velocity":76,"Duration":170325,"SoundDuration":170325,"Delta":174188974},{"NoteNumber":62,"Velocity":52,"Duration":59241,"SoundDuration":59241,"Delta":174529625},{"NoteNumber":64,"Velocity":66,"Duration":59241,"SoundDuration":59241,"Delta":174529625},{"NoteNumber":62,"Velocity":51,"Duration":124378,"SoundDuration":124378,"Delta":174648108},{"NoteNumber":64,"Velocity":65,"Duration":124378,"SoundDuration":124378,"Delta":174648108},{"NoteNumber":62,"Velocity":55,"Duration":715079,"SoundDuration":715079,"Delta":174896864},{"NoteNumber":64,"Velocity":68,"Duration":715079,"SoundDuration":715079,"Delta":174896864},{"NoteNumber":71,"Velocity":43,"Duration":56990,"SoundDuration":56990,"Delta":175269998},{"NoteNumber":68,"Velocity":30,"Duration":56990,"SoundDuration":56990,"Delta":175269998},{"NoteNumber":52,"Velocity":56,"Duration":56990,"SoundDuration":56990,"Delta":175269998},{"NoteNumber":68,"Velocity":29,"Duration":113981,"SoundDuration":113981,"Delta":175383980},{"NoteNumber":71,"Velocity":42,"Duration":113981,"SoundDuration":113981,"Delta":175383980},{"NoteNumber":52,"Velocity":57,"Duration":113981,"SoundDuration":113981,"Delta":175383980},{"NoteNumber":68,"Velocity":30,"Duration":113981,"SoundDuration":113981,"Delta":175611944},{"NoteNumber":71,"Velocity":43,"Duration":113981,"SoundDuration":113981,"Delta":175611944},{"NoteNumber":52,"Velocity":54,"Duration":113981,"SoundDuration":113981,"Delta":175611944},{"NoteNumber":52,"Velocity":64,"Duration":114854,"SoundDuration":114854,"Delta":175953889},{"NoteNumber":52,"Velocity":60,"Duration":257290,"SoundDuration":257290,"Delta":176068743},{"NoteNumber":52,"Velocity":62,"Duration":1035876,"SoundDuration":1035876,"Delta":176326033},{"NoteNumber":45,"Velocity":56,"Duration":241740,"SoundDuration":241740,"Delta":176326033},{"NoteNumber":33,"Velocity":56,"Duration":241740,"SoundDuration":241740,"Delta":176326033},{"NoteNumber":60,"Velocity":56,"Duration":111856,"SoundDuration":111856,"Delta":176688644},{"NoteNumber":57,"Velocity":47,"Duration":111856,"SoundDuration":111856,"Delta":176688644},{"NoteNumber":65,"Velocity":44,"Duration":111856,"SoundDuration":111856,"Delta":176688644},{"NoteNumber":57,"Velocity":48,"Duration":223713,"SoundDuration":223713,"Delta":176800501},{"NoteNumber":60,"Velocity":57,"Duration":223713,"SoundDuration":223713,"Delta":176800501},{"NoteNumber":65,"Velocity":48,"Duration":223713,"SoundDuration":223713,"Delta":176800501},{"NoteNumber":57,"Velocity":52,"Duration":337695,"SoundDuration":337695,"Delta":177024214},{"NoteNumber":60,"Velocity":61,"Duration":337695,"SoundDuration":337695,"Delta":177024214},{"NoteNumber":65,"Velocity":52,"Duration":337695,"SoundDuration":337695,"Delta":177024214},{"NoteNumber":60,"Velocity":49,"Duration":113981,"SoundDuration":113981,"Delta":177361910},{"NoteNumber":64,"Velocity":59,"Duration":113981,"SoundDuration":113981,"Delta":177361910},{"NoteNumber":60,"Velocity":48,"Duration":254237,"SoundDuration":254237,"Delta":177475891},{"NoteNumber":64,"Velocity":56,"Duration":254237,"SoundDuration":254237,"Delta":177475891},{"NoteNumber":60,"Velocity":51,"Duration":923436,"SoundDuration":923436,"Delta":177730129},{"NoteNumber":64,"Velocity":60,"Duration":923436,"SoundDuration":923436,"Delta":177730129},{"NoteNumber":72,"Velocity":51,"Duration":112275,"SoundDuration":112275,"Delta":178084181},{"NoteNumber":69,"Velocity":43,"Duration":112275,"SoundDuration":112275,"Delta":178084181},{"NoteNumber":52,"Velocity":40,"Duration":112275,"SoundDuration":112275,"Delta":178084181},{"NoteNumber":57,"Velocity":48,"Duration":112275,"SoundDuration":112275,"Delta":178084181},{"NoteNumber":69,"Velocity":43,"Duration":224550,"SoundDuration":224550,"Delta":178196456},{"NoteNumber":72,"Velocity":51,"Duration":224550,"SoundDuration":224550,"Delta":178196456},{"NoteNumber":52,"Velocity":39,"Duration":224550,"SoundDuration":224550,"Delta":178196456},{"NoteNumber":57,"Velocity":46,"Duration":224550,"SoundDuration":224550,"Delta":178196456},{"NoteNumber":69,"Velocity":47,"Duration":232558,"SoundDuration":232558,"Delta":178421007},{"NoteNumber":72,"Velocity":56,"Duration":232558,"SoundDuration":232558,"Delta":178421007},{"NoteNumber":52,"Velocity":42,"Duration":232558,"SoundDuration":232558,"Delta":178421007},{"NoteNumber":57,"Velocity":50,"Duration":232558,"SoundDuration":232558,"Delta":178421007},{"NoteNumber":52,"Velocity":72,"Duration":114854,"SoundDuration":114854,"Delta":178769844},{"NoteNumber":52,"Velocity":72,"Duration":249792,"SoundDuration":249792,"Delta":178884699},{"NoteNumber":52,"Velocity":74,"Duration":1028944,"SoundDuration":1028944,"Delta":179134491},{"NoteNumber":44,"Velocity":66,"Duration":465458,"SoundDuration":465458,"Delta":179134491},{"NoteNumber":32,"Velocity":66,"Duration":465458,"SoundDuration":465458,"Delta":179134491},{"NoteNumber":62,"Velocity":66,"Duration":112697,"SoundDuration":112697,"Delta":179487252},{"NoteNumber":59,"Velocity":56,"Duration":112697,"SoundDuration":112697,"Delta":179487252},{"NoteNumber":65,"Velocity":52,"Duration":112697,"SoundDuration":112697,"Delta":179487252},{"NoteNumber":59,"Velocity":57,"Duration":225394,"SoundDuration":225394,"Delta":179599949},{"NoteNumber":62,"Velocity":68,"Duration":225394,"SoundDuration":225394,"Delta":179599949},{"NoteNumber":65,"Velocity":57,"Duration":225394,"SoundDuration":225394,"Delta":179599949},{"NoteNumber":59,"Velocity":61,"Duration":338091,"SoundDuration":338091,"Delta":179825343},{"NoteNumber":62,"Velocity":73,"Duration":338091,"SoundDuration":338091,"Delta":179825343},{"NoteNumber":65,"Velocity":62,"Duration":338091,"SoundDuration":338091,"Delta":179825343},{"NoteNumber":62,"Velocity":60,"Duration":116640,"SoundDuration":116640,"Delta":180163435},{"NoteNumber":64,"Velocity":72,"Duration":116640,"SoundDuration":116640,"Delta":180163435},{"NoteNumber":62,"Velocity":60,"Duration":246710,"SoundDuration":246710,"Delta":180280076},{"NoteNumber":64,"Velocity":72,"Duration":246710,"SoundDuration":246710,"Delta":180280076},{"NoteNumber":62,"Velocity":63,"Duration":931064,"SoundDuration":931064,"Delta":180526786},{"NoteNumber":64,"Velocity":75,"Duration":703101,"SoundDuration":703101,"Delta":180526786},{"NoteNumber":74,"Velocity":60,"Duration":113981,"SoundDuration":113981,"Delta":180887942},{"NoteNumber":71,"Velocity":51,"Duration":113981,"SoundDuration":113981,"Delta":180887942},{"NoteNumber":52,"Velocity":48,"Duration":113981,"SoundDuration":113981,"Delta":180887942},{"NoteNumber":56,"Velocity":57,"Duration":113981,"SoundDuration":113981,"Delta":180887942},{"NoteNumber":71,"Velocity":51,"Duration":227963,"SoundDuration":227963,"Delta":181001924},{"NoteNumber":74,"Velocity":60,"Duration":227963,"SoundDuration":227963,"Delta":181001924},{"NoteNumber":52,"Velocity":46,"Duration":227963,"SoundDuration":227963,"Delta":181001924},{"NoteNumber":56,"Velocity":55,"Duration":227963,"SoundDuration":227963,"Delta":181001924},{"NoteNumber":71,"Velocity":56,"Duration":227963,"SoundDuration":227963,"Delta":181229887},{"NoteNumber":74,"Velocity":66,"Duration":227963,"SoundDuration":227963,"Delta":181229887},{"NoteNumber":52,"Velocity":50,"Duration":227963,"SoundDuration":227963,"Delta":181229887},{"NoteNumber":56,"Velocity":59,"Duration":227963,"SoundDuration":227963,"Delta":181229887},{"NoteNumber":52,"Velocity":75,"Duration":114854,"SoundDuration":114854,"Delta":181571833},{"NoteNumber":52,"Velocity":76,"Duration":294117,"SoundDuration":294117,"Delta":181686687},{"NoteNumber":52,"Velocity":78,"Duration":933605,"SoundDuration":933605,"Delta":181980805},{"NoteNumber":45,"Velocity":70,"Duration":479404,"SoundDuration":479404,"Delta":181980805},{"NoteNumber":33,"Velocity":70,"Duration":479404,"SoundDuration":479404,"Delta":181980805},{"NoteNumber":60,"Velocity":70,"Duration":113550,"SoundDuration":113550,"Delta":182346658},{"NoteNumber":57,"Velocity":59,"Duration":113550,"SoundDuration":113550,"Delta":182346658},{"NoteNumber":71,"Velocity":55,"Duration":113550,"SoundDuration":113550,"Delta":182346658},{"NoteNumber":57,"Velocity":61,"Duration":227100,"SoundDuration":227100,"Delta":182460209},{"NoteNumber":60,"Velocity":72,"Duration":227100,"SoundDuration":227100,"Delta":182460209},{"NoteNumber":71,"Velocity":61,"Duration":227100,"SoundDuration":227100,"Delta":182460209},{"NoteNumber":57,"Velocity":65,"Duration":227100,"SoundDuration":227100,"Delta":182687309},{"NoteNumber":60,"Velocity":77,"Duration":227100,"SoundDuration":227100,"Delta":182687309},{"NoteNumber":71,"Velocity":66,"Duration":340650,"SoundDuration":340650,"Delta":182687309},{"NoteNumber":64,"Velocity":74,"Duration":118483,"SoundDuration":118483,"Delta":183027960},{"NoteNumber":69,"Velocity":61,"Duration":118483,"SoundDuration":118483,"Delta":183027960},{"NoteNumber":64,"Velocity":75,"Duration":248755,"SoundDuration":248755,"Delta":183146443},{"NoteNumber":69,"Velocity":58,"Duration":248755,"SoundDuration":248755,"Delta":183146443},{"NoteNumber":64,"Velocity":79,"Duration":943042,"SoundDuration":943042,"Delta":183395199},{"NoteNumber":69,"Velocity":62,"Duration":943042,"SoundDuration":943042,"Delta":183395199},{"NoteNumber":76,"Velocity":64,"Duration":113981,"SoundDuration":113981,"Delta":183768333},{"NoteNumber":72,"Velocity":54,"Duration":113981,"SoundDuration":113981,"Delta":183768333},{"NoteNumber":57,"Velocity":51,"Duration":113981,"SoundDuration":113981,"Delta":183768333},{"NoteNumber":60,"Velocity":61,"Duration":113981,"SoundDuration":113981,"Delta":183768333},{"NoteNumber":72,"Velocity":54,"Duration":227963,"SoundDuration":227963,"Delta":183882315},{"NoteNumber":76,"Velocity":64,"Duration":227963,"SoundDuration":227963,"Delta":183882315},{"NoteNumber":57,"Velocity":49,"Duration":227963,"SoundDuration":227963,"Delta":183882315},{"NoteNumber":60,"Velocity":58,"Duration":227963,"SoundDuration":227963,"Delta":183882315},{"NoteNumber":72,"Velocity":59,"Duration":227963,"SoundDuration":227963,"Delta":184110279},{"NoteNumber":76,"Velocity":70,"Duration":227963,"SoundDuration":227963,"Delta":184110279},{"NoteNumber":57,"Velocity":53,"Duration":227963,"SoundDuration":227963,"Delta":184110279},{"NoteNumber":60,"Velocity":63,"Duration":227963,"SoundDuration":227963,"Delta":184110279},{"NoteNumber":60,"Velocity":72,"Duration":118017,"SoundDuration":118017,"Delta":184452224},{"NoteNumber":60,"Velocity":72,"Duration":285714,"SoundDuration":285714,"Delta":184570241},{"NoteNumber":60,"Velocity":78,"Duration":937435,"SoundDuration":937435,"Delta":184855956},{"NoteNumber":50,"Velocity":70,"Duration":490008,"SoundDuration":490008,"Delta":184855956},{"NoteNumber":38,"Velocity":70,"Duration":490008,"SoundDuration":490008,"Delta":184855956},{"NoteNumber":69,"Velocity":70,"Duration":111856,"SoundDuration":111856,"Delta":185234107},{"NoteNumber":66,"Velocity":59,"Duration":111856,"SoundDuration":111856,"Delta":185234107},{"NoteNumber":74,"Velocity":55,"Duration":111856,"SoundDuration":111856,"Delta":185234107},{"NoteNumber":66,"Velocity":61,"Duration":223713,"SoundDuration":223713,"Delta":185345964},{"NoteNumber":69,"Velocity":72,"Duration":223713,"SoundDuration":223713,"Delta":185345964},{"NoteNumber":74,"Velocity":61,"Duration":223713,"SoundDuration":223713,"Delta":185345964},{"NoteNumber":66,"Velocity":65,"Duration":223713,"SoundDuration":223713,"Delta":185569677},{"NoteNumber":69,"Velocity":77,"Duration":223713,"SoundDuration":223713,"Delta":185569677},{"NoteNumber":74,"Velocity":66,"Duration":223713,"SoundDuration":223713,"Delta":185569677},{"NoteNumber":67,"Velocity":65,"Duration":57648,"SoundDuration":57648,"Delta":185905248},{"NoteNumber":74,"Velocity":77,"Duration":57648,"SoundDuration":57648,"Delta":185905248},{"NoteNumber":55,"Velocity":56,"Duration":57648,"SoundDuration":57648,"Delta":185905248},{"NoteNumber":59,"Velocity":67,"Duration":57648,"SoundDuration":57648,"Delta":185905248},{"NoteNumber":67,"Velocity":66,"Duration":128755,"SoundDuration":128755,"Delta":186020544},{"NoteNumber":74,"Velocity":78,"Duration":128755,"SoundDuration":128755,"Delta":186020544},{"NoteNumber":55,"Velocity":53,"Duration":128755,"SoundDuration":128755,"Delta":186020544},{"NoteNumber":59,"Velocity":63,"Duration":128755,"SoundDuration":128755,"Delta":186020544},{"NoteNumber":74,"Velocity":77,"Duration":244697,"SoundDuration":244697,"Delta":186278054},{"NoteNumber":67,"Velocity":65,"Duration":244697,"SoundDuration":244697,"Delta":186278054},{"NoteNumber":55,"Velocity":57,"Duration":244697,"SoundDuration":244697,"Delta":186278054},{"NoteNumber":59,"Velocity":68,"Duration":244697,"SoundDuration":244697,"Delta":186278054},{"NoteNumber":79,"Velocity":77,"Duration":129757,"SoundDuration":129757,"Delta":186652510},{"NoteNumber":67,"Velocity":64,"Duration":129757,"SoundDuration":129757,"Delta":186652510},{"NoteNumber":43,"Velocity":61,"Duration":129757,"SoundDuration":129757,"Delta":186652510},{"NoteNumber":55,"Velocity":73,"Duration":129757,"SoundDuration":129757,"Delta":186652510},{"NoteNumber":67,"Velocity":64,"Duration":259515,"SoundDuration":259515,"Delta":186782268},{"NoteNumber":79,"Velocity":77,"Duration":259515,"SoundDuration":259515,"Delta":186782268},{"NoteNumber":43,"Velocity":58,"Duration":259515,"SoundDuration":259515,"Delta":186782268},{"NoteNumber":55,"Velocity":69,"Duration":259515,"SoundDuration":259515,"Delta":186782268},{"NoteNumber":67,"Velocity":70,"Duration":147783,"SoundDuration":147783,"Delta":187041783},{"NoteNumber":79,"Velocity":84,"Duration":147783,"SoundDuration":147783,"Delta":187041783},{"NoteNumber":43,"Velocity":63,"Duration":3833345,"SoundDuration":3833345,"Delta":187041783},{"NoteNumber":55,"Velocity":75,"Duration":3833345,"SoundDuration":3833345,"Delta":187041783},{"NoteNumber":67,"Velocity":45,"Duration":116278,"SoundDuration":116278,"Delta":187485133},{"NoteNumber":65,"Velocity":45,"Duration":116731,"SoundDuration":116731,"Delta":187601412},{"NoteNumber":71,"Velocity":45,"Duration":116731,"SoundDuration":116731,"Delta":187601412},{"NoteNumber":63,"Velocity":50,"Duration":111682,"SoundDuration":111682,"Delta":187834875},{"NoteNumber":72,"Velocity":50,"Duration":111682,"SoundDuration":111682,"Delta":187834875},{"NoteNumber":71,"Velocity":31,"Duration":78814,"SoundDuration":78814,"Delta":188169921},{"NoteNumber":67,"Velocity":47,"Duration":114538,"SoundDuration":114538,"Delta":188248736},{"NoteNumber":74,"Velocity":47,"Duration":114538,"SoundDuration":114538,"Delta":188248736},{"NoteNumber":72,"Velocity":50,"Duration":110889,"SoundDuration":110889,"Delta":188477813},{"NoteNumber":75,"Velocity":50,"Duration":110889,"SoundDuration":110889,"Delta":188477813},{"NoteNumber":74,"Velocity":29,"Duration":79014,"SoundDuration":79014,"Delta":188815826},{"NoteNumber":72,"Velocity":50,"Duration":116233,"SoundDuration":116233,"Delta":188894840},{"NoteNumber":77,"Velocity":50,"Duration":116233,"SoundDuration":116233,"Delta":188894840},{"NoteNumber":75,"Velocity":50,"Duration":105656,"SoundDuration":105656,"Delta":189127308},{"NoteNumber":79,"Velocity":50,"Duration":105656,"SoundDuration":105656,"Delta":189127308},{"NoteNumber":80,"Velocity":29,"Duration":73735,"SoundDuration":73735,"Delta":189494870},{"NoteNumber":77,"Velocity":39,"Duration":232468,"SoundDuration":232468,"Delta":189568605},{"NoteNumber":84,"Velocity":47,"Duration":232468,"SoundDuration":232468,"Delta":189568605},{"NoteNumber":75,"Velocity":39,"Duration":229920,"SoundDuration":229920,"Delta":189801073},{"NoteNumber":79,"Velocity":47,"Duration":229920,"SoundDuration":229920,"Delta":189801073},{"NoteNumber":72,"Velocity":32,"Duration":80226,"SoundDuration":80226,"Delta":190145954},{"NoteNumber":67,"Velocity":50,"Duration":115803,"SoundDuration":115803,"Delta":190226181},{"NoteNumber":75,"Velocity":50,"Duration":115803,"SoundDuration":115803,"Delta":190226181},{"NoteNumber":74,"Velocity":53,"Duration":112023,"SoundDuration":112023,"Delta":190457787},{"NoteNumber":74,"Velocity":40,"Duration":81269,"SoundDuration":81269,"Delta":190793859},{"NoteNumber":68,"Velocity":50,"Duration":116233,"SoundDuration":116233,"Delta":190875129},{"NoteNumber":77,"Velocity":50,"Duration":116233,"SoundDuration":116233,"Delta":190875129},{"NoteNumber":41,"Velocity":41,"Duration":652918,"SoundDuration":652918,"Delta":190875129},{"NoteNumber":53,"Velocity":45,"Duration":652918,"SoundDuration":652918,"Delta":190875129},{"NoteNumber":75,"Velocity":52,"Duration":112485,"SoundDuration":112485,"Delta":191107597},{"NoteNumber":71,"Velocity":33,"Duration":82992,"SoundDuration":82992,"Delta":191445055},{"NoteNumber":65,"Velocity":41,"Duration":119789,"SoundDuration":119789,"Delta":191528047},{"NoteNumber":74,"Velocity":41,"Duration":119789,"SoundDuration":119789,"Delta":191528047},{"NoteNumber":55,"Velocity":51,"Duration":1355524,"SoundDuration":1355524,"Delta":191528047},{"NoteNumber":43,"Velocity":39,"Duration":3952561,"SoundDuration":3952561,"Delta":191528047},{"NoteNumber":63,"Velocity":47,"Duration":116233,"SoundDuration":116233,"Delta":191767626},{"NoteNumber":72,"Velocity":47,"Duration":116233,"SoundDuration":116233,"Delta":191767626},{"NoteNumber":65,"Velocity":25,"Duration":85246,"SoundDuration":85246,"Delta":192116328},{"NoteNumber":62,"Velocity":41,"Duration":120714,"SoundDuration":120714,"Delta":192201575},{"NoteNumber":68,"Velocity":41,"Duration":120714,"SoundDuration":120714,"Delta":192201575},{"NoteNumber":63,"Velocity":40,"Duration":120714,"SoundDuration":120714,"Delta":192443004},{"NoteNumber":67,"Velocity":40,"Duration":120714,"SoundDuration":120714,"Delta":192443004},{"NoteNumber":62,"Velocity":30,"Duration":78423,"SoundDuration":78423,"Delta":192805148},{"NoteNumber":60,"Velocity":45,"Duration":116931,"SoundDuration":116931,"Delta":192883572},{"NoteNumber":66,"Velocity":45,"Duration":116931,"SoundDuration":116931,"Delta":192883572},{"NoteNumber":50,"Velocity":48,"Duration":1526296,"SoundDuration":1526296,"Delta":192883572},{"NoteNumber":58,"Velocity":50,"Duration":111682,"SoundDuration":111682,"Delta":193117435},{"NoteNumber":67,"Velocity":50,"Duration":111682,"SoundDuration":111682,"Delta":193117435},{"NoteNumber":55,"Velocity":46,"Duration":3242370,"SoundDuration":3242370,"Delta":193117435},{"NoteNumber":66,"Velocity":31,"Duration":78814,"SoundDuration":78814,"Delta":193452481},{"NoteNumber":62,"Velocity":47,"Duration":114538,"SoundDuration":114538,"Delta":193531296},{"NoteNumber":69,"Velocity":47,"Duration":114538,"SoundDuration":114538,"Delta":193531296},{"NoteNumber":67,"Velocity":50,"Duration":110889,"SoundDuration":110889,"Delta":193760373},{"NoteNumber":70,"Velocity":50,"Duration":110889,"SoundDuration":110889,"Delta":193760373},{"NoteNumber":69,"Velocity":29,"Duration":79014,"SoundDuration":79014,"Delta":194098386},{"NoteNumber":67,"Velocity":50,"Duration":116233,"SoundDuration":116233,"Delta":194177400},{"NoteNumber":72,"Velocity":50,"Duration":116233,"SoundDuration":116233,"Delta":194177400},{"NoteNumber":70,"Velocity":50,"Duration":105656,"SoundDuration":105656,"Delta":194409868},{"NoteNumber":74,"Velocity":50,"Duration":105656,"SoundDuration":105656,"Delta":194409868},{"NoteNumber":75,"Velocity":29,"Duration":73735,"SoundDuration":73735,"Delta":194749297},{"NoteNumber":72,"Velocity":39,"Duration":232468,"SoundDuration":232468,"Delta":194823033},{"NoteNumber":79,"Velocity":47,"Duration":232468,"SoundDuration":232468,"Delta":194823033},{"NoteNumber":70,"Velocity":39,"Duration":229920,"SoundDuration":229920,"Delta":195055501},{"NoteNumber":74,"Velocity":47,"Duration":229920,"SoundDuration":229920,"Delta":195055501},{"NoteNumber":67,"Velocity":32,"Duration":80226,"SoundDuration":80226,"Delta":195400382},{"NoteNumber":62,"Velocity":50,"Duration":115803,"SoundDuration":115803,"Delta":195480608},{"NoteNumber":70,"Velocity":50,"Duration":115803,"SoundDuration":115803,"Delta":195480608},{"NoteNumber":43,"Velocity":37,"Duration":231606,"SoundDuration":231606,"Delta":195480608},{"NoteNumber":69,"Velocity":53,"Duration":111284,"SoundDuration":111284,"Delta":195712215},{"NoteNumber":48,"Velocity":47,"Duration":415122,"SoundDuration":415122,"Delta":195712215},{"NoteNumber":69,"Velocity":40,"Duration":81269,"SoundDuration":81269,"Delta":196046068},{"NoteNumber":63,"Velocity":50,"Duration":116233,"SoundDuration":116233,"Delta":196127338},{"NoteNumber":72,"Velocity":50,"Duration":116233,"SoundDuration":116233,"Delta":196127338},{"NoteNumber":45,"Velocity":41,"Duration":232468,"SoundDuration":232468,"Delta":196127338},{"NoteNumber":70,"Velocity":52,"Duration":112485,"SoundDuration":112485,"Delta":196359806},{"NoteNumber":50,"Velocity":48,"Duration":2423698,"SoundDuration":2423698,"Delta":196359806},{"NoteNumber":66,"Velocity":33,"Duration":82992,"SoundDuration":82992,"Delta":196697264},{"NoteNumber":60,"Velocity":41,"Duration":119789,"SoundDuration":119789,"Delta":196780256},{"NoteNumber":69,"Velocity":41,"Duration":119789,"SoundDuration":119789,"Delta":196780256},{"NoteNumber":38,"Velocity":39,"Duration":2003248,"SoundDuration":2003248,"Delta":196780256},{"NoteNumber":58,"Velocity":47,"Duration":116233,"SoundDuration":116233,"Delta":197019834},{"NoteNumber":67,"Velocity":47,"Duration":116233,"SoundDuration":116233,"Delta":197019834},{"NoteNumber":60,"Velocity":25,"Duration":85246,"SoundDuration":85246,"Delta":197368536},{"NoteNumber":57,"Velocity":41,"Duration":120714,"SoundDuration":120714,"Delta":197453783},{"NoteNumber":63,"Velocity":41,"Duration":120714,"SoundDuration":120714,"Delta":197453783},{"NoteNumber":58,"Velocity":40,"Duration":120714,"SoundDuration":120714,"Delta":197695213},{"NoteNumber":62,"Velocity":40,"Duration":120714,"SoundDuration":120714,"Delta":197695213},{"NoteNumber":62,"Velocity":30,"Duration":78423,"SoundDuration":78423,"Delta":198057357},{"NoteNumber":60,"Velocity":45,"Duration":116931,"SoundDuration":116931,"Delta":198135780},{"NoteNumber":66,"Velocity":45,"Duration":116931,"SoundDuration":116931,"Delta":198135780},{"NoteNumber":58,"Velocity":50,"Duration":111682,"SoundDuration":111682,"Delta":198369644},{"NoteNumber":67,"Velocity":50,"Duration":111682,"SoundDuration":111682,"Delta":198369644},{"NoteNumber":66,"Velocity":31,"Duration":78814,"SoundDuration":78814,"Delta":198704690},{"NoteNumber":62,"Velocity":47,"Duration":114538,"SoundDuration":114538,"Delta":198783504},{"NoteNumber":69,"Velocity":47,"Duration":114538,"SoundDuration":114538,"Delta":198783504},{"NoteNumber":43,"Velocity":37,"Duration":1964052,"SoundDuration":1964052,"Delta":198783504},{"NoteNumber":31,"Velocity":37,"Duration":1964052,"SoundDuration":1964052,"Delta":198783504},{"NoteNumber":67,"Velocity":50,"Duration":110889,"SoundDuration":110889,"Delta":199012582},{"NoteNumber":70,"Velocity":50,"Duration":110889,"SoundDuration":110889,"Delta":199012582},{"NoteNumber":69,"Velocity":29,"Duration":79014,"SoundDuration":79014,"Delta":199350594},{"NoteNumber":67,"Velocity":50,"Duration":116233,"SoundDuration":116233,"Delta":199429608},{"NoteNumber":72,"Velocity":50,"Duration":116233,"SoundDuration":116233,"Delta":199429608},{"NoteNumber":70,"Velocity":50,"Duration":105656,"SoundDuration":105656,"Delta":199662076},{"NoteNumber":74,"Velocity":50,"Duration":105656,"SoundDuration":105656,"Delta":199662076},{"NoteNumber":75,"Velocity":29,"Duration":73735,"SoundDuration":73735,"Delta":200016246},{"NoteNumber":72,"Velocity":47,"Duration":232468,"SoundDuration":232468,"Delta":200089981},{"NoteNumber":79,"Velocity":56,"Duration":232468,"SoundDuration":232468,"Delta":200089981},{"NoteNumber":70,"Velocity":47,"Duration":229920,"SoundDuration":229920,"Delta":200322449},{"NoteNumber":74,"Velocity":56,"Duration":229920,"SoundDuration":229920,"Delta":200322449},{"NoteNumber":67,"Velocity":32,"Duration":80226,"SoundDuration":80226,"Delta":200667330},{"NoteNumber":62,"Velocity":50,"Duration":115803,"SoundDuration":115803,"Delta":200747557},{"NoteNumber":70,"Velocity":50,"Duration":115803,"SoundDuration":115803,"Delta":200747557},{"NoteNumber":31,"Velocity":37,"Duration":231606,"SoundDuration":231606,"Delta":200747557},{"NoteNumber":69,"Velocity":53,"Duration":111284,"SoundDuration":111284,"Delta":200979163},{"NoteNumber":36,"Velocity":47,"Duration":415122,"SoundDuration":415122,"Delta":200979163},{"NoteNumber":69,"Velocity":40,"Duration":81269,"SoundDuration":81269,"Delta":201313016},{"NoteNumber":63,"Velocity":50,"Duration":116233,"SoundDuration":116233,"Delta":201394286},{"NoteNumber":72,"Velocity":50,"Duration":116233,"SoundDuration":116233,"Delta":201394286},{"NoteNumber":33,"Velocity":41,"Duration":232468,"SoundDuration":232468,"Delta":201394286},{"NoteNumber":70,"Velocity":52,"Duration":112485,"SoundDuration":112485,"Delta":201626754},{"NoteNumber":38,"Velocity":48,"Duration":1093977,"SoundDuration":1093977,"Delta":201626754},{"NoteNumber":66,"Velocity":33,"Duration":82992,"SoundDuration":82992,"Delta":201964212},{"NoteNumber":60,"Velocity":41,"Duration":119789,"SoundDuration":119789,"Delta":202047204},{"NoteNumber":69,"Velocity":41,"Duration":119789,"SoundDuration":119789,"Delta":202047204},{"NoteNumber":26,"Velocity":39,"Duration":673527,"SoundDuration":673527,"Delta":202047204},{"NoteNumber":58,"Velocity":47,"Duration":116233,"SoundDuration":116233,"Delta":202286783},{"NoteNumber":67,"Velocity":47,"Duration":116233,"SoundDuration":116233,"Delta":202286783},{"NoteNumber":58,"Velocity":39,"Duration":85246,"SoundDuration":85246,"Delta":202635485},{"NoteNumber":62,"Velocity":46,"Duration":241429,"SoundDuration":241429,"Delta":202720731},{"NoteNumber":55,"Velocity":44,"Duration":120714,"SoundDuration":120714,"Delta":202962161},{"NoteNumber":58,"Velocity":30,"Duration":78423,"SoundDuration":78423,"Delta":203324305},{"NoteNumber":55,"Velocity":45,"Duration":116931,"SoundDuration":116931,"Delta":203402728},{"NoteNumber":62,"Velocity":45,"Duration":116931,"SoundDuration":116931,"Delta":203402728},{"NoteNumber":54,"Velocity":50,"Duration":111682,"SoundDuration":111682,"Delta":203636592},{"NoteNumber":62,"Velocity":50,"Duration":111682,"SoundDuration":111682,"Delta":203636592},{"NoteNumber":38,"Velocity":46,"Duration":1705597,"SoundDuration":1705597,"Delta":203636592},{"NoteNumber":50,"Velocity":46,"Duration":1705597,"SoundDuration":1705597,"Delta":203636592},{"NoteNumber":58,"Velocity":31,"Duration":78814,"SoundDuration":78814,"Delta":203971638},{"NoteNumber":55,"Velocity":47,"Duration":114538,"SoundDuration":114538,"Delta":204050453},{"NoteNumber":64,"Velocity":47,"Duration":114538,"SoundDuration":114538,"Delta":204050453},{"NoteNumber":57,"Velocity":50,"Duration":110889,"SoundDuration":110889,"Delta":204279530},{"NoteNumber":66,"Velocity":50,"Duration":110889,"SoundDuration":110889,"Delta":204279530},{"NoteNumber":62,"Velocity":29,"Duration":79014,"SoundDuration":79014,"Delta":204617543},{"NoteNumber":58,"Velocity":50,"Duration":116233,"SoundDuration":116233,"Delta":204696557},{"NoteNumber":67,"Velocity":50,"Duration":116233,"SoundDuration":116233,"Delta":204696557},{"NoteNumber":60,"Velocity":50,"Duration":105656,"SoundDuration":105656,"Delta":204929025},{"NoteNumber":69,"Velocity":50,"Duration":105656,"SoundDuration":105656,"Delta":204929025},{"NoteNumber":65,"Velocity":29,"Duration":73735,"SoundDuration":73735,"Delta":205268454},{"NoteNumber":62,"Velocity":52,"Duration":116233,"SoundDuration":116233,"Delta":205342190},{"NoteNumber":71,"Velocity":52,"Duration":116233,"SoundDuration":116233,"Delta":205342190},{"NoteNumber":31,"Velocity":43,"Duration":3312747,"SoundDuration":3312747,"Delta":205342190},{"NoteNumber":43,"Velocity":48,"Duration":3312747,"SoundDuration":3312747,"Delta":205342190},{"NoteNumber":63,"Velocity":56,"Duration":114960,"SoundDuration":114960,"Delta":205574658},{"NoteNumber":72,"Velocity":56,"Duration":114960,"SoundDuration":114960,"Delta":205574658},{"NoteNumber":68,"Velocity":32,"Duration":80226,"SoundDuration":80226,"Delta":205919538},{"NoteNumber":65,"Velocity":50,"Duration":115803,"SoundDuration":115803,"Delta":205999765},{"NoteNumber":74,"Velocity":50,"Duration":115803,"SoundDuration":115803,"Delta":205999765},{"NoteNumber":63,"Velocity":50,"Duration":111284,"SoundDuration":111284,"Delta":206231372},{"NoteNumber":72,"Velocity":53,"Duration":111284,"SoundDuration":111284,"Delta":206231372},{"NoteNumber":67,"Velocity":40,"Duration":81269,"SoundDuration":81269,"Delta":206565224},{"NoteNumber":62,"Velocity":50,"Duration":116233,"SoundDuration":116233,"Delta":206646494},{"NoteNumber":71,"Velocity":50,"Duration":116233,"SoundDuration":116233,"Delta":206646494},{"NoteNumber":63,"Velocity":50,"Duration":112485,"SoundDuration":112485,"Delta":206878962},{"NoteNumber":72,"Velocity":52,"Duration":112485,"SoundDuration":112485,"Delta":206878962},{"NoteNumber":68,"Velocity":33,"Duration":82992,"SoundDuration":82992,"Delta":207216420},{"NoteNumber":65,"Velocity":41,"Duration":119789,"SoundDuration":119789,"Delta":207299413},{"NoteNumber":74,"Velocity":41,"Duration":119789,"SoundDuration":119789,"Delta":207299413},{"NoteNumber":63,"Velocity":47,"Duration":116233,"SoundDuration":116233,"Delta":207538991},{"NoteNumber":72,"Velocity":47,"Duration":116233,"SoundDuration":116233,"Delta":207538991},{"NoteNumber":67,"Velocity":25,"Duration":85246,"SoundDuration":85246,"Delta":207887693},{"NoteNumber":62,"Velocity":41,"Duration":120714,"SoundDuration":120714,"Delta":207972940},{"NoteNumber":71,"Velocity":41,"Duration":120714,"SoundDuration":120714,"Delta":207972940},{"NoteNumber":63,"Velocity":40,"Duration":120714,"SoundDuration":120714,"Delta":208214369},{"NoteNumber":72,"Velocity":40,"Duration":120714,"SoundDuration":120714,"Delta":208214369},{"NoteNumber":62,"Velocity":30,"Duration":78423,"SoundDuration":78423,"Delta":208576514},{"NoteNumber":58,"Velocity":45,"Duration":116931,"SoundDuration":116931,"Delta":208654937},{"NoteNumber":65,"Velocity":45,"Duration":116931,"SoundDuration":116931,"Delta":208654937},{"NoteNumber":41,"Velocity":46,"Duration":1293828,"SoundDuration":1293828,"Delta":208654937},{"NoteNumber":53,"Velocity":54,"Duration":1293828,"SoundDuration":1293828,"Delta":208654937},{"NoteNumber":57,"Velocity":50,"Duration":111682,"SoundDuration":111682,"Delta":208888800},{"NoteNumber":65,"Velocity":50,"Duration":111682,"SoundDuration":111682,"Delta":208888800},{"NoteNumber":63,"Velocity":31,"Duration":78814,"SoundDuration":78814,"Delta":209223846},{"NoteNumber":58,"Velocity":47,"Duration":114538,"SoundDuration":114538,"Delta":209302661},{"NoteNumber":67,"Velocity":47,"Duration":114538,"SoundDuration":114538,"Delta":209302661},{"NoteNumber":60,"Velocity":50,"Duration":110889,"SoundDuration":110889,"Delta":209531739},{"NoteNumber":69,"Velocity":50,"Duration":110889,"SoundDuration":110889,"Delta":209531739},{"NoteNumber":65,"Velocity":29,"Duration":79014,"SoundDuration":79014,"Delta":209869751},{"NoteNumber":62,"Velocity":50,"Duration":116233,"SoundDuration":116233,"Delta":209948765},{"NoteNumber":70,"Velocity":50,"Duration":116233,"SoundDuration":116233,"Delta":209948765},{"NoteNumber":34,"Velocity":37,"Duration":2198786,"SoundDuration":2198786,"Delta":209948765},{"NoteNumber":46,"Velocity":45,"Duration":2198786,"SoundDuration":2198786,"Delta":209948765},{"NoteNumber":63,"Velocity":50,"Duration":105656,"SoundDuration":105656,"Delta":210181233},{"NoteNumber":72,"Velocity":50,"Duration":105656,"SoundDuration":105656,"Delta":210181233},{"NoteNumber":68,"Velocity":29,"Duration":73735,"SoundDuration":73735,"Delta":210520663},{"NoteNumber":65,"Velocity":56,"Duration":116233,"SoundDuration":116233,"Delta":210594398},{"NoteNumber":74,"Velocity":56,"Duration":116233,"SoundDuration":116233,"Delta":210594398},{"NoteNumber":67,"Velocity":56,"Duration":114960,"SoundDuration":114960,"Delta":210826866},{"NoteNumber":75,"Velocity":56,"Duration":114960,"SoundDuration":114960,"Delta":210826866},{"NoteNumber":71,"Velocity":32,"Duration":80226,"SoundDuration":80226,"Delta":211171747},{"NoteNumber":68,"Velocity":56,"Duration":115803,"SoundDuration":115803,"Delta":211251974},{"NoteNumber":77,"Velocity":56,"Duration":115803,"SoundDuration":115803,"Delta":211251974},{"NoteNumber":72,"Velocity":61,"Duration":112866,"SoundDuration":112866,"Delta":211483580},{"NoteNumber":67,"Velocity":61,"Duration":112866,"SoundDuration":112866,"Delta":211483580},{"NoteNumber":75,"Velocity":61,"Duration":112866,"SoundDuration":112866,"Delta":211483580},{"NoteNumber":68,"Velocity":47,"Duration":81269,"SoundDuration":81269,"Delta":211822180},{"NoteNumber":65,"Velocity":57,"Duration":122050,"SoundDuration":122050,"Delta":211903450},{"NoteNumber":74,"Velocity":57,"Duration":122050,"SoundDuration":122050,"Delta":211903450},{"NoteNumber":69,"Velocity":50,"Duration":116822,"SoundDuration":116822,"Delta":212147551},{"NoteNumber":63,"Velocity":50,"Duration":116822,"SoundDuration":116822,"Delta":212147551},{"NoteNumber":72,"Velocity":52,"Duration":116822,"SoundDuration":116822,"Delta":212147551},{"NoteNumber":36,"Velocity":31,"Duration":433459,"SoundDuration":433459,"Delta":212147551},{"NoteNumber":48,"Velocity":31,"Duration":433459,"SoundDuration":433459,"Delta":212147551},{"NoteNumber":67,"Velocity":33,"Duration":82992,"SoundDuration":82992,"Delta":212498019},{"NoteNumber":64,"Velocity":41,"Duration":129982,"SoundDuration":129982,"Delta":212581011},{"NoteNumber":70,"Velocity":41,"Duration":129982,"SoundDuration":129982,"Delta":212581011},{"NoteNumber":37,"Velocity":28,"Duration":259965,"SoundDuration":259965,"Delta":212581011},{"NoteNumber":49,"Velocity":28,"Duration":259965,"SoundDuration":259965,"Delta":212581011},{"NoteNumber":66,"Velocity":46,"Duration":124584,"SoundDuration":124584,"Delta":212840977},{"NoteNumber":69,"Velocity":46,"Duration":124584,"SoundDuration":124584,"Delta":212840977},{"NoteNumber":38,"Velocity":30,"Duration":1898311,"SoundDuration":1898311,"Delta":212840977},{"NoteNumber":50,"Velocity":36,"Duration":1898311,"SoundDuration":1898311,"Delta":212840977},{"NoteNumber":64,"Velocity":24,"Duration":85246,"SoundDuration":85246,"Delta":213214731},{"NoteNumber":61,"Velocity":39,"Duration":138376,"SoundDuration":138376,"Delta":213299978},{"NoteNumber":67,"Velocity":39,"Duration":138376,"SoundDuration":138376,"Delta":213299978},{"NoteNumber":62,"Velocity":37,"Duration":138376,"SoundDuration":138376,"Delta":213576731},{"NoteNumber":66,"Velocity":37,"Duration":138376,"SoundDuration":138376,"Delta":213576731},{"NoteNumber":62,"Velocity":27,"Duration":78423,"SoundDuration":78423,"Delta":213991860},{"NoteNumber":60,"Velocity":40,"Duration":122548,"SoundDuration":122548,"Delta":214070283},{"NoteNumber":66,"Velocity":40,"Duration":122548,"SoundDuration":122548,"Delta":214070283},{"NoteNumber":58,"Velocity":45,"Duration":115030,"SoundDuration":115030,"Delta":214315381},{"NoteNumber":67,"Velocity":45,"Duration":115030,"SoundDuration":115030,"Delta":214315381},{"NoteNumber":66,"Velocity":27,"Duration":78814,"SoundDuration":78814,"Delta":214660474},{"NoteNumber":62,"Velocity":42,"Duration":121555,"SoundDuration":121555,"Delta":214739288},{"NoteNumber":69,"Velocity":42,"Duration":121555,"SoundDuration":121555,"Delta":214739288},{"NoteNumber":31,"Velocity":39,"Duration":2076721,"SoundDuration":2076721,"Delta":214739288},{"NoteNumber":43,"Velocity":51,"Duration":2965607,"SoundDuration":2965607,"Delta":214739288},{"NoteNumber":67,"Velocity":45,"Duration":118203,"SoundDuration":118203,"Delta":214982400},{"NoteNumber":70,"Velocity":45,"Duration":118203,"SoundDuration":118203,"Delta":214982400},{"NoteNumber":69,"Velocity":26,"Duration":79014,"SoundDuration":79014,"Delta":215335041},{"NoteNumber":67,"Velocity":45,"Duration":120578,"SoundDuration":120578,"Delta":215414055},{"NoteNumber":72,"Velocity":45,"Duration":120578,"SoundDuration":120578,"Delta":215414055},{"NoteNumber":70,"Velocity":45,"Duration":132860,"SoundDuration":132860,"Delta":215655212},{"NoteNumber":74,"Velocity":45,"Duration":132860,"SoundDuration":132860,"Delta":215655212},{"NoteNumber":75,"Velocity":26,"Duration":73735,"SoundDuration":73735,"Delta":216069449},{"NoteNumber":72,"Velocity":33,"Duration":242131,"SoundDuration":242131,"Delta":216143185},{"NoteNumber":79,"Velocity":40,"Duration":242131,"SoundDuration":242131,"Delta":216143185},{"NoteNumber":70,"Velocity":33,"Duration":233644,"SoundDuration":233644,"Delta":216385316},{"NoteNumber":74,"Velocity":40,"Duration":233644,"SoundDuration":233644,"Delta":216385316},{"NoteNumber":67,"Velocity":28,"Duration":80226,"SoundDuration":80226,"Delta":216735783},{"NoteNumber":62,"Velocity":45,"Duration":119142,"SoundDuration":119142,"Delta":216816010},{"NoteNumber":70,"Velocity":45,"Duration":119142,"SoundDuration":119142,"Delta":216816010},{"NoteNumber":31,"Velocity":33,"Duration":238284,"SoundDuration":238284,"Delta":216816010},{"NoteNumber":69,"Velocity":47,"Duration":111284,"SoundDuration":111284,"Delta":217054294},{"NoteNumber":36,"Velocity":42,"Duration":415122,"SoundDuration":415122,"Delta":217054294},{"NoteNumber":69,"Velocity":36,"Duration":81269,"SoundDuration":81269,"Delta":217388147},{"NoteNumber":63,"Velocity":45,"Duration":117739,"SoundDuration":117739,"Delta":217469417},{"NoteNumber":72,"Velocity":45,"Duration":117739,"SoundDuration":117739,"Delta":217469417},{"NoteNumber":33,"Velocity":36,"Duration":235478,"SoundDuration":235478,"Delta":217469417},{"NoteNumber":70,"Velocity":46,"Duration":113722,"SoundDuration":113722,"Delta":217704896},{"NoteNumber":38,"Velocity":43,"Duration":4680255,"SoundDuration":4680255,"Delta":217704896},{"NoteNumber":66,"Velocity":29,"Duration":82992,"SoundDuration":82992,"Delta":218046064},{"NoteNumber":60,"Velocity":36,"Duration":119789,"SoundDuration":119789,"Delta":218129056},{"NoteNumber":69,"Velocity":36,"Duration":119789,"SoundDuration":119789,"Delta":218129056},{"NoteNumber":26,"Velocity":35,"Duration":2266592,"SoundDuration":2266592,"Delta":218129056},{"NoteNumber":58,"Velocity":42,"Duration":117278,"SoundDuration":117278,"Delta":218368634},{"NoteNumber":67,"Velocity":42,"Duration":117278,"SoundDuration":117278,"Delta":218368634},{"NoteNumber":60,"Velocity":22,"Duration":85246,"SoundDuration":85246,"Delta":218720471},{"NoteNumber":57,"Velocity":36,"Duration":123558,"SoundDuration":123558,"Delta":218805718},{"NoteNumber":63,"Velocity":36,"Duration":123558,"SoundDuration":123558,"Delta":218805718},{"NoteNumber":58,"Velocity":36,"Duration":123558,"SoundDuration":123558,"Delta":219052835},{"NoteNumber":62,"Velocity":36,"Duration":123558,"SoundDuration":123558,"Delta":219052835},{"NoteNumber":62,"Velocity":27,"Duration":78423,"SoundDuration":78423,"Delta":219423511},{"NoteNumber":60,"Velocity":40,"Duration":116931,"SoundDuration":116931,"Delta":219501934},{"NoteNumber":66,"Velocity":40,"Duration":116931,"SoundDuration":116931,"Delta":219501934},{"NoteNumber":58,"Velocity":45,"Duration":113292,"SoundDuration":113292,"Delta":219735797},{"NoteNumber":67,"Velocity":45,"Duration":113292,"SoundDuration":113292,"Delta":219735797},{"NoteNumber":66,"Velocity":27,"Duration":78814,"SoundDuration":78814,"Delta":220075676},{"NoteNumber":62,"Velocity":42,"Duration":120578,"SoundDuration":120578,"Delta":220154491},{"NoteNumber":69,"Velocity":42,"Duration":120578,"SoundDuration":120578,"Delta":220154491},{"NoteNumber":67,"Velocity":45,"Duration":113722,"SoundDuration":113722,"Delta":220395649},{"NoteNumber":70,"Velocity":45,"Duration":113722,"SoundDuration":113722,"Delta":220395649},{"NoteNumber":31,"Velocity":45,"Duration":1746390,"SoundDuration":1746390,"Delta":220395649},{"NoteNumber":69,"Velocity":26,"Duration":79014,"SoundDuration":79014,"Delta":220739328},{"NoteNumber":67,"Velocity":45,"Duration":119617,"SoundDuration":119617,"Delta":220818342},{"NoteNumber":72,"Velocity":45,"Duration":119617,"SoundDuration":119617,"Delta":220818342},{"NoteNumber":70,"Velocity":45,"Duration":105656,"SoundDuration":105656,"Delta":221057576},{"NoteNumber":74,"Velocity":45,"Duration":105656,"SoundDuration":105656,"Delta":221057576},{"NoteNumber":75,"Velocity":25,"Duration":73735,"SoundDuration":73735,"Delta":221397006},{"NoteNumber":72,"Velocity":31,"Duration":239234,"SoundDuration":239234,"Delta":221470741},{"NoteNumber":79,"Velocity":39,"Duration":239234,"SoundDuration":239234,"Delta":221470741},{"NoteNumber":70,"Velocity":30,"Duration":234557,"SoundDuration":234557,"Delta":221709976},{"NoteNumber":74,"Velocity":38,"Duration":234557,"SoundDuration":234557,"Delta":221709976},{"NoteNumber":67,"Velocity":27,"Duration":80226,"SoundDuration":80226,"Delta":222061813},{"NoteNumber":62,"Velocity":43,"Duration":121555,"SoundDuration":121555,"Delta":222142039},{"NoteNumber":70,"Velocity":43,"Duration":121555,"SoundDuration":121555,"Delta":222142039},{"NoteNumber":31,"Velocity":31,"Duration":243111,"SoundDuration":243111,"Delta":222142039},{"NoteNumber":69,"Velocity":45,"Duration":116369,"SoundDuration":116369,"Delta":222385151},{"NoteNumber":36,"Velocity":39,"Duration":674478,"SoundDuration":674478,"Delta":222385151},{"NoteNumber":69,"Velocity":33,"Duration":81269,"SoundDuration":81269,"Delta":222734259},{"NoteNumber":63,"Velocity":42,"Duration":122050,"SoundDuration":122050,"Delta":222815529},{"NoteNumber":72,"Velocity":42,"Duration":122050,"SoundDuration":122050,"Delta":222815529},{"NoteNumber":33,"Velocity":34,"Duration":244101,"SoundDuration":244101,"Delta":222815529},{"NoteNumber":62,"Velocity":40,"Duration":115473,"SoundDuration":115473,"Delta":223059630},{"NoteNumber":70,"Velocity":43,"Duration":115473,"SoundDuration":115473,"Delta":223059630},{"NoteNumber":38,"Velocity":39,"Duration":684949,"SoundDuration":684949,"Delta":223059630},{"NoteNumber":66,"Velocity":27,"Duration":82992,"SoundDuration":82992,"Delta":223406051},{"NoteNumber":60,"Velocity":33,"Duration":127768,"SoundDuration":127768,"Delta":223489043},{"NoteNumber":69,"Velocity":33,"Duration":127768,"SoundDuration":127768,"Delta":223489043},{"NoteNumber":26,"Velocity":31,"Duration":255536,"SoundDuration":255536,"Delta":223489043},{"NoteNumber":58,"Velocity":34,"Duration":120095,"SoundDuration":120095,"Delta":223744579},{"NoteNumber":67,"Velocity":40,"Duration":120095,"SoundDuration":120095,"Delta":223744579},{"NoteNumber":31,"Velocity":39,"Duration":441557,"SoundDuration":441557,"Delta":223744579},{"NoteNumber":60,"Velocity":27,"Duration":81269,"SoundDuration":81269,"Delta":224104867},{"NoteNumber":57,"Velocity":33,"Duration":132275,"SoundDuration":132275,"Delta":224186137},{"NoteNumber":63,"Velocity":39,"Duration":132275,"SoundDuration":132275,"Delta":224186137},{"NoteNumber":58,"Velocity":32,"Duration":122050,"SoundDuration":122050,"Delta":224450688},{"NoteNumber":62,"Velocity":38,"Duration":122050,"SoundDuration":122050,"Delta":224450688},{"NoteNumber":57,"Velocity":27,"Duration":82992,"SoundDuration":82992,"Delta":224816839},{"NoteNumber":54,"Velocity":27,"Duration":134649,"SoundDuration":134649,"Delta":224899832},{"NoteNumber":60,"Velocity":33,"Duration":134649,"SoundDuration":134649,"Delta":224899832},{"NoteNumber":55,"Velocity":34,"Duration":122050,"SoundDuration":122050,"Delta":225169132},{"NoteNumber":58,"Velocity":40,"Duration":122050,"SoundDuration":122050,"Delta":225169132},{"NoteNumber":54,"Velocity":27,"Duration":86956,"SoundDuration":86956,"Delta":225535283},{"NoteNumber":50,"Velocity":33,"Duration":137741,"SoundDuration":137741,"Delta":225622240},{"NoteNumber":57,"Velocity":39,"Duration":137741,"SoundDuration":137741,"Delta":225622240},{"NoteNumber":51,"Velocity":32,"Duration":124069,"SoundDuration":124069,"Delta":225897722},{"NoteNumber":55,"Velocity":38,"Duration":124069,"SoundDuration":124069,"Delta":225897722},{"NoteNumber":48,"Velocity":27,"Duration":90634,"SoundDuration":90634,"Delta":226269930},{"NoteNumber":45,"Velocity":27,"Duration":140318,"SoundDuration":140318,"Delta":226360565},{"NoteNumber":51,"Velocity":33,"Duration":140318,"SoundDuration":140318,"Delta":226360565},{"NoteNumber":46,"Velocity":34,"Duration":126689,"SoundDuration":126689,"Delta":226641201},{"NoteNumber":50,"Velocity":40,"Duration":126689,"SoundDuration":126689,"Delta":226641201},{"NoteNumber":45,"Velocity":27,"Duration":92879,"SoundDuration":92879,"Delta":227021268},{"NoteNumber":42,"Velocity":32,"Duration":139664,"SoundDuration":139664,"Delta":227114148},{"NoteNumber":48,"Velocity":38,"Duration":139664,"SoundDuration":139664,"Delta":227114148},{"NoteNumber":43,"Velocity":31,"Duration":125104,"SoundDuration":125104,"Delta":227384361},{"NoteNumber":46,"Velocity":37,"Duration":125104,"SoundDuration":125104,"Delta":227384361},{"NoteNumber":42,"Velocity":26,"Duration":93167,"SoundDuration":93167,"Delta":227759673},{"NoteNumber":38,"Velocity":26,"Duration":145067,"SoundDuration":145067,"Delta":227852841},{"NoteNumber":45,"Velocity":31,"Duration":145067,"SoundDuration":145067,"Delta":227852841},{"NoteNumber":39,"Velocity":32,"Duration":129982,"SoundDuration":129982,"Delta":228142977},{"NoteNumber":43,"Velocity":37,"Duration":129982,"SoundDuration":129982,"Delta":228142977},{"NoteNumber":36,"Velocity":26,"Duration":93457,"SoundDuration":93457,"Delta":228532925},{"NoteNumber":33,"Velocity":30,"Duration":149402,"SoundDuration":149402,"Delta":228626383},{"NoteNumber":39,"Velocity":36,"Duration":149402,"SoundDuration":149402,"Delta":228626383},{"NoteNumber":34,"Velocity":29,"Duration":139664,"SoundDuration":139664,"Delta":228925188},{"NoteNumber":38,"Velocity":35,"Duration":139664,"SoundDuration":139664,"Delta":228925188},{"NoteNumber":33,"Velocity":24,"Duration":96153,"SoundDuration":96153,"Delta":229344182},{"NoteNumber":30,"Velocity":25,"Duration":140318,"SoundDuration":140318,"Delta":229440336},{"NoteNumber":36,"Velocity":29,"Duration":140318,"SoundDuration":140318,"Delta":229440336},{"NoteNumber":31,"Velocity":29,"Duration":148662,"SoundDuration":148662,"Delta":229720972},{"NoteNumber":34,"Velocity":29,"Duration":148662,"SoundDuration":148662,"Delta":229720972},{"NoteNumber":26,"Velocity":25,"Duration":148662,"SoundDuration":148662,"Delta":230612944},{"NoteNumber":31,"Velocity":26,"Duration":148662,"SoundDuration":148662,"Delta":231504916}]}