{"title":"Kuriose Geschichte","artist":"Schumann","durationMs":55838,"midiSha256":"85d8255d4d0bf9f14eb77dcd6d28528c75f143f86652d4e64d1613510ecb9fcf","midiObject":[{"NoteNumber":66,"Velocity":62,"Duration":334646,"SoundDuration":334646,"Delta":0},{"NoteNumber":50,"Velocity":51,"Duration":441249,"SoundDuration":441249,"Delta":0},{"NoteNumber":57,"Velocity":51,"Duration":441249,"SoundDuration":441249,"Delta":0},{"NoteNumber":71,"Velocity":50,"Duration":53301,"SoundDuration":53301,"Delta":334647},{"NoteNumber":69,"Velocity":55,"Duration":53301,"SoundDuration":53301,"Delta":387059},{"NoteNumber":61,"Velocity":62,"Duration":54226,"SoundDuration":54226,"Delta":441249},{"NoteNumber":67,"Velocity":62,"Duration":54226,"SoundDuration":54226,"Delta":441249},{"NoteNumber":57,"Velocity":56,"Duration":54226,"SoundDuration":54226,"Delta":441249},{"NoteNumber":52,"Velocity":56,"Duration":54226,"SoundDuration":54226,"Delta":441249},{"NoteNumber":61,"Velocity":57,"Duration":52816,"SoundDuration":52816,"Delta":766605},{"NoteNumber":66,"Velocity":57,"Duration":52816,"SoundDuration":52816,"Delta":766605},{"NoteNumber":51,"Velocity":47,"Duration":52816,"SoundDuration":52816,"Delta":766605},{"NoteNumber":57,"Velocity":47,"Duration":52816,"SoundDuration":52816,"Delta":766605},{"NoteNumber":67,"Velocity":60,"Duration":211267,"SoundDuration":211267,"Delta":872238},{"NoteNumber":61,"Velocity":60,"Duration":211267,"SoundDuration":211267,"Delta":872238},{"NoteNumber":52,"Velocity":51,"Duration":211267,"SoundDuration":211267,"Delta":872238},{"NoteNumber":57,"Velocity":51,"Duration":211267,"SoundDuration":211267,"Delta":872238},{"NoteNumber":61,"Velocity":62,"Duration":441469,"SoundDuration":441469,"Delta":1319226},{"NoteNumber":71,"Velocity":62,"Duration":441469,"SoundDuration":441469,"Delta":1319226},{"NoteNumber":57,"Velocity":55,"Duration":441469,"SoundDuration":441469,"Delta":1319226},{"NoteNumber":55,"Velocity":55,"Duration":441469,"SoundDuration":441469,"Delta":1319226},{"NoteNumber":69,"Velocity":64,"Duration":864415,"SoundDuration":864415,"Delta":1760695},{"NoteNumber":62,"Velocity":64,"Duration":864415,"SoundDuration":864415,"Delta":1760695},{"NoteNumber":54,"Velocity":55,"Duration":54414,"SoundDuration":54414,"Delta":1760695},{"NoteNumber":57,"Velocity":55,"Duration":54414,"SoundDuration":54414,"Delta":1760695},{"NoteNumber":57,"Velocity":49,"Duration":52816,"SoundDuration":52816,"Delta":2086692},{"NoteNumber":53,"Velocity":49,"Duration":52816,"SoundDuration":52816,"Delta":2086692},{"NoteNumber":57,"Velocity":52,"Duration":211267,"SoundDuration":211267,"Delta":2192326},{"NoteNumber":54,"Velocity":52,"Duration":211267,"SoundDuration":211267,"Delta":2192326},{"NoteNumber":74,"Velocity":64,"Duration":441469,"SoundDuration":441469,"Delta":2625110},{"NoteNumber":69,"Velocity":64,"Duration":441469,"SoundDuration":441469,"Delta":2625110},{"NoteNumber":57,"Velocity":55,"Duration":441469,"SoundDuration":441469,"Delta":2625110},{"NoteNumber":54,"Velocity":55,"Duration":441469,"SoundDuration":441469,"Delta":2625110},{"NoteNumber":73,"Velocity":64,"Duration":54225,"SoundDuration":54225,"Delta":3066579},{"NoteNumber":67,"Velocity":64,"Duration":54225,"SoundDuration":54225,"Delta":3066579},{"NoteNumber":52,"Velocity":55,"Duration":54225,"SoundDuration":54225,"Delta":3066579},{"NoteNumber":57,"Velocity":55,"Duration":54225,"SoundDuration":54225,"Delta":3066579},{"NoteNumber":66,"Velocity":56,"Duration":52631,"SoundDuration":52631,"Delta":3391935},{"NoteNumber":71,"Velocity":56,"Duration":52631,"SoundDuration":52631,"Delta":3391935},{"NoteNumber":57,"Velocity":52,"Duration":52631,"SoundDuration":52631,"Delta":3391935},{"NoteNumber":50,"Velocity":52,"Duration":52631,"SoundDuration":52631,"Delta":3391935},{"NoteNumber":69,"Velocity":60,"Duration":210526,"SoundDuration":210526,"Delta":3497198},{"NoteNumber":64,"Velocity":60,"Duration":210526,"SoundDuration":210526,"Delta":3497198},{"NoteNumber":57,"Velocity":56,"Duration":210526,"SoundDuration":210526,"Delta":3497198},{"NoteNumber":49,"Velocity":56,"Duration":210526,"SoundDuration":210526,"Delta":3497198},{"NoteNumber":79,"Velocity":67,"Duration":446195,"SoundDuration":446195,"Delta":3948921},{"NoteNumber":67,"Velocity":67,"Duration":446195,"SoundDuration":446195,"Delta":3948921},{"NoteNumber":69,"Velocity":67,"Duration":446195,"SoundDuration":446195,"Delta":3948921},{"NoteNumber":45,"Velocity":61,"Duration":446195,"SoundDuration":446195,"Delta":3948921},{"NoteNumber":57,"Velocity":61,"Duration":446195,"SoundDuration":446195,"Delta":3948921},{"NoteNumber":66,"Velocity":67,"Duration":54414,"SoundDuration":54414,"Delta":4395117},{"NoteNumber":74,"Velocity":67,"Duration":54414,"SoundDuration":54414,"Delta":4395117},{"NoteNumber":78,"Velocity":67,"Duration":54414,"SoundDuration":54414,"Delta":4395117},{"NoteNumber":57,"Velocity":58,"Duration":54414,"SoundDuration":54414,"Delta":4395117},{"NoteNumber":50,"Velocity":58,"Duration":54414,"SoundDuration":54414,"Delta":4395117},{"NoteNumber":67,"Velocity":59,"Duration":52816,"SoundDuration":52816,"Delta":4721606},{"NoteNumber":76,"Velocity":59,"Duration":52816,"SoundDuration":52816,"Delta":4721606},{"NoteNumber":73,"Velocity":59,"Duration":52816,"SoundDuration":52816,"Delta":4721606},{"NoteNumber":52,"Velocity":56,"Duration":52816,"SoundDuration":52816,"Delta":4721606},{"NoteNumber":57,"Velocity":56,"Duration":52816,"SoundDuration":52816,"Delta":4721606},{"NoteNumber":69,"Velocity":56,"Duration":211267,"SoundDuration":211267,"Delta":4827240},{"NoteNumber":74,"Velocity":56,"Duration":211267,"SoundDuration":211267,"Delta":4827240},{"NoteNumber":57,"Velocity":53,"Duration":211267,"SoundDuration":211267,"Delta":4827240},{"NoteNumber":54,"Velocity":53,"Duration":211267,"SoundDuration":211267,"Delta":4827240},{"NoteNumber":66,"Velocity":58,"Duration":331101,"SoundDuration":331101,"Delta":5260024},{"NoteNumber":50,"Velocity":50,"Duration":436269,"SoundDuration":436269,"Delta":5260024},{"NoteNumber":57,"Velocity":50,"Duration":436269,"SoundDuration":436269,"Delta":5260024},{"NoteNumber":71,"Velocity":50,"Duration":52583,"SoundDuration":52583,"Delta":5591126},{"NoteNumber":69,"Velocity":55,"Duration":52583,"SoundDuration":52583,"Delta":5642833},{"NoteNumber":67,"Velocity":61,"Duration":80225,"SoundDuration":80225,"Delta":5696293},{"NoteNumber":61,"Velocity":61,"Duration":80225,"SoundDuration":80225,"Delta":5696293},{"NoteNumber":52,"Velocity":56,"Duration":80225,"SoundDuration":80225,"Delta":5696293},{"NoteNumber":57,"Velocity":56,"Duration":80225,"SoundDuration":80225,"Delta":5696293},{"NoteNumber":66,"Velocity":57,"Duration":52264,"SoundDuration":52264,"Delta":6017195},{"NoteNumber":61,"Velocity":57,"Duration":52264,"SoundDuration":52264,"Delta":6017195},{"NoteNumber":57,"Velocity":53,"Duration":52264,"SoundDuration":52264,"Delta":6017195},{"NoteNumber":51,"Velocity":53,"Duration":52264,"SoundDuration":52264,"Delta":6017195},{"NoteNumber":67,"Velocity":61,"Duration":209058,"SoundDuration":209058,"Delta":6121724},{"NoteNumber":61,"Velocity":61,"Duration":209058,"SoundDuration":209058,"Delta":6121724},{"NoteNumber":57,"Velocity":56,"Duration":209058,"SoundDuration":209058,"Delta":6121724},{"NoteNumber":52,"Velocity":56,"Duration":209058,"SoundDuration":209058,"Delta":6121724},{"NoteNumber":61,"Velocity":64,"Duration":443032,"SoundDuration":443032,"Delta":6567395},{"NoteNumber":71,"Velocity":64,"Duration":443032,"SoundDuration":443032,"Delta":6567395},{"NoteNumber":55,"Velocity":58,"Duration":443032,"SoundDuration":443032,"Delta":6567395},{"NoteNumber":57,"Velocity":58,"Duration":443032,"SoundDuration":443032,"Delta":6567395},{"NoteNumber":62,"Velocity":64,"Duration":873675,"SoundDuration":873675,"Delta":7010428},{"NoteNumber":69,"Velocity":64,"Duration":873675,"SoundDuration":873675,"Delta":7010428},{"NoteNumber":57,"Velocity":58,"Duration":81622,"SoundDuration":81622,"Delta":7010428},{"NoteNumber":54,"Velocity":58,"Duration":81622,"SoundDuration":81622,"Delta":7010428},{"NoteNumber":53,"Velocity":54,"Duration":53003,"SoundDuration":53003,"Delta":7336425},{"NoteNumber":57,"Velocity":54,"Duration":53003,"SoundDuration":53003,"Delta":7336425},{"NoteNumber":57,"Velocity":58,"Duration":212013,"SoundDuration":212013,"Delta":7442432},{"NoteNumber":54,"Velocity":58,"Duration":212013,"SoundDuration":212013,"Delta":7442432},{"NoteNumber":74,"Velocity":60,"Duration":325355,"SoundDuration":325355,"Delta":7884103},{"NoteNumber":69,"Velocity":60,"Duration":436904,"SoundDuration":436904,"Delta":7884103},{"NoteNumber":57,"Velocity":52,"Duration":216903,"SoundDuration":216903,"Delta":7884103},{"NoteNumber":54,"Velocity":52,"Duration":436904,"SoundDuration":436904,"Delta":7884103},{"NoteNumber":59,"Velocity":49,"Duration":220000,"SoundDuration":220000,"Delta":8101007},{"NoteNumber":73,"Velocity":56,"Duration":111549,"SoundDuration":111549,"Delta":8209459},{"NoteNumber":73,"Velocity":60,"Duration":245407,"SoundDuration":245407,"Delta":8321008},{"NoteNumber":69,"Velocity":60,"Duration":881515,"SoundDuration":881515,"Delta":8321008},{"NoteNumber":52,"Velocity":48,"Duration":446196,"SoundDuration":446196,"Delta":8321008},{"NoteNumber":61,"Velocity":48,"Duration":245407,"SoundDuration":245407,"Delta":8321008},{"NoteNumber":74,"Velocity":54,"Duration":244863,"SoundDuration":244863,"Delta":8544106},{"NoteNumber":62,"Velocity":50,"Duration":244863,"SoundDuration":244863,"Delta":8544106},{"NoteNumber":76,"Velocity":57,"Duration":239425,"SoundDuration":239425,"Delta":8767204},{"NoteNumber":64,"Velocity":51,"Duration":239425,"SoundDuration":239425,"Delta":8767204},{"NoteNumber":78,"Velocity":60,"Duration":217659,"SoundDuration":217659,"Delta":8984863},{"NoteNumber":66,"Velocity":53,"Duration":217659,"SoundDuration":217659,"Delta":8984863},{"NoteNumber":78,"Velocity":62,"Duration":374812,"SoundDuration":374812,"Delta":9202523},{"NoteNumber":74,"Velocity":45,"Duration":1024009,"SoundDuration":1024009,"Delta":9202523},{"NoteNumber":66,"Velocity":55,"Duration":374812,"SoundDuration":374812,"Delta":9202523},{"NoteNumber":64,"Velocity":45,"Duration":1024009,"SoundDuration":1024009,"Delta":9202523},{"NoteNumber":80,"Velocity":55,"Duration":149447,"SoundDuration":149447,"Delta":9577335},{"NoteNumber":68,"Velocity":48,"Duration":149447,"SoundDuration":149447,"Delta":9577335},{"NoteNumber":80,"Velocity":51,"Duration":499750,"SoundDuration":499750,"Delta":9726782},{"NoteNumber":68,"Velocity":45,"Duration":499750,"SoundDuration":499750,"Delta":9726782},{"NoteNumber":81,"Velocity":46,"Duration":398723,"SoundDuration":398723,"Delta":10226532},{"NoteNumber":73,"Velocity":40,"Duration":398723,"SoundDuration":398723,"Delta":10226532},{"NoteNumber":57,"Velocity":37,"Duration":398723,"SoundDuration":398723,"Delta":10226532},{"NoteNumber":69,"Velocity":37,"Duration":398723,"SoundDuration":398723,"Delta":10226532},{"NoteNumber":66,"Velocity":59,"Duration":334647,"SoundDuration":334647,"Delta":10758164},{"NoteNumber":50,"Velocity":50,"Duration":441290,"SoundDuration":441290,"Delta":10758164},{"NoteNumber":57,"Velocity":50,"Duration":441290,"SoundDuration":441290,"Delta":10758164},{"NoteNumber":71,"Velocity":50,"Duration":53342,"SoundDuration":53342,"Delta":11092811},{"NoteNumber":69,"Velocity":55,"Duration":53301,"SoundDuration":53301,"Delta":11146154},{"NoteNumber":61,"Velocity":63,"Duration":54210,"SoundDuration":54210,"Delta":11199455},{"NoteNumber":67,"Velocity":63,"Duration":54210,"SoundDuration":54210,"Delta":11199455},{"NoteNumber":52,"Velocity":58,"Duration":54210,"SoundDuration":54210,"Delta":11199455},{"NoteNumber":57,"Velocity":58,"Duration":54210,"SoundDuration":54210,"Delta":11199455},{"NoteNumber":61,"Velocity":56,"Duration":52264,"SoundDuration":52264,"Delta":11524795},{"NoteNumber":66,"Velocity":56,"Duration":52264,"SoundDuration":52264,"Delta":11524795},{"NoteNumber":51,"Velocity":54,"Duration":52264,"SoundDuration":52264,"Delta":11524795},{"NoteNumber":57,"Velocity":54,"Duration":52264,"SoundDuration":52264,"Delta":11524795},{"NoteNumber":61,"Velocity":60,"Duration":209058,"SoundDuration":209058,"Delta":11629325},{"NoteNumber":67,"Velocity":60,"Duration":209058,"SoundDuration":209058,"Delta":11629325},{"NoteNumber":52,"Velocity":57,"Duration":209058,"SoundDuration":209058,"Delta":11629325},{"NoteNumber":57,"Velocity":57,"Duration":209058,"SoundDuration":209058,"Delta":11629325},{"NoteNumber":61,"Velocity":63,"Duration":441531,"SoundDuration":441531,"Delta":12073992},{"NoteNumber":71,"Velocity":63,"Duration":441531,"SoundDuration":441531,"Delta":12073992},{"NoteNumber":55,"Velocity":57,"Duration":441531,"SoundDuration":441531,"Delta":12073992},{"NoteNumber":57,"Velocity":57,"Duration":441531,"SoundDuration":441531,"Delta":12073992},{"NoteNumber":62,"Velocity":63,"Duration":863762,"SoundDuration":863762,"Delta":12515524},{"NoteNumber":69,"Velocity":63,"Duration":863762,"SoundDuration":863762,"Delta":12515524},{"NoteNumber":54,"Velocity":57,"Duration":54427,"SoundDuration":54427,"Delta":12515524},{"NoteNumber":57,"Velocity":57,"Duration":54427,"SoundDuration":54427,"Delta":12515524},{"NoteNumber":53,"Velocity":53,"Duration":52631,"SoundDuration":52631,"Delta":12842026},{"NoteNumber":57,"Velocity":53,"Duration":52631,"SoundDuration":52631,"Delta":12842026},{"NoteNumber":54,"Velocity":57,"Duration":210526,"SoundDuration":210526,"Delta":12947289},{"NoteNumber":57,"Velocity":57,"Duration":210526,"SoundDuration":210526,"Delta":12947289},{"NoteNumber":69,"Velocity":64,"Duration":441472,"SoundDuration":441472,"Delta":13379286},{"NoteNumber":74,"Velocity":64,"Duration":441472,"SoundDuration":441472,"Delta":13379286},{"NoteNumber":54,"Velocity":56,"Duration":441472,"SoundDuration":441472,"Delta":13379286},{"NoteNumber":57,"Velocity":56,"Duration":441472,"SoundDuration":441472,"Delta":13379286},{"NoteNumber":67,"Velocity":64,"Duration":54241,"SoundDuration":54241,"Delta":13820759},{"NoteNumber":73,"Velocity":64,"Duration":54241,"SoundDuration":54241,"Delta":13820759},{"NoteNumber":52,"Velocity":56,"Duration":54241,"SoundDuration":54241,"Delta":13820759},{"NoteNumber":57,"Velocity":56,"Duration":54241,"SoundDuration":54241,"Delta":13820759},{"NoteNumber":66,"Velocity":57,"Duration":52631,"SoundDuration":52631,"Delta":14146131},{"NoteNumber":71,"Velocity":57,"Duration":52631,"SoundDuration":52631,"Delta":14146131},{"NoteNumber":50,"Velocity":53,"Duration":52631,"SoundDuration":52631,"Delta":14146131},{"NoteNumber":57,"Velocity":53,"Duration":52631,"SoundDuration":52631,"Delta":14146131},{"NoteNumber":64,"Velocity":60,"Duration":210526,"SoundDuration":210526,"Delta":14251394},{"NoteNumber":69,"Velocity":60,"Duration":210526,"SoundDuration":210526,"Delta":14251394},{"NoteNumber":49,"Velocity":57,"Duration":210526,"SoundDuration":210526,"Delta":14251394},{"NoteNumber":57,"Velocity":57,"Duration":210526,"SoundDuration":210526,"Delta":14251394},{"NoteNumber":67,"Velocity":68,"Duration":446295,"SoundDuration":446295,"Delta":14708834},{"NoteNumber":69,"Velocity":68,"Duration":446295,"SoundDuration":446295,"Delta":14708834},{"NoteNumber":79,"Velocity":68,"Duration":446295,"SoundDuration":446295,"Delta":14708834},{"NoteNumber":45,"Velocity":60,"Duration":446295,"SoundDuration":446295,"Delta":14708834},{"NoteNumber":57,"Velocity":60,"Duration":446295,"SoundDuration":446295,"Delta":14708834},{"NoteNumber":66,"Velocity":68,"Duration":54437,"SoundDuration":54437,"Delta":15155129},{"NoteNumber":74,"Velocity":68,"Duration":54437,"SoundDuration":54437,"Delta":15155129},{"NoteNumber":78,"Velocity":68,"Duration":54437,"SoundDuration":54437,"Delta":15155129},{"NoteNumber":50,"Velocity":57,"Duration":54437,"SoundDuration":54437,"Delta":15155129},{"NoteNumber":57,"Velocity":57,"Duration":54437,"SoundDuration":54437,"Delta":15155129},{"NoteNumber":67,"Velocity":60,"Duration":52232,"SoundDuration":52232,"Delta":15481641},{"NoteNumber":73,"Velocity":60,"Duration":52232,"SoundDuration":52232,"Delta":15481641},{"NoteNumber":76,"Velocity":60,"Duration":52232,"SoundDuration":52232,"Delta":15481641},{"NoteNumber":52,"Velocity":55,"Duration":52232,"SoundDuration":52232,"Delta":15481641},{"NoteNumber":57,"Velocity":55,"Duration":52232,"SoundDuration":52232,"Delta":15481641},{"NoteNumber":69,"Velocity":57,"Duration":208913,"SoundDuration":208913,"Delta":15586101},{"NoteNumber":74,"Velocity":57,"Duration":208913,"SoundDuration":208913,"Delta":15586101},{"NoteNumber":54,"Velocity":55,"Duration":208913,"SoundDuration":208913,"Delta":15586101},{"NoteNumber":57,"Velocity":55,"Duration":208913,"SoundDuration":208913,"Delta":15586101},{"NoteNumber":66,"Velocity":59,"Duration":331105,"SoundDuration":331105,"Delta":16016479},{"NoteNumber":50,"Velocity":52,"Duration":436315,"SoundDuration":436315,"Delta":16016479},{"NoteNumber":57,"Velocity":52,"Duration":436315,"SoundDuration":436315,"Delta":16016479},{"NoteNumber":71,"Velocity":50,"Duration":52626,"SoundDuration":52626,"Delta":16347584},{"NoteNumber":69,"Velocity":55,"Duration":52583,"SoundDuration":52583,"Delta":16399334},{"NoteNumber":61,"Velocity":65,"Duration":80210,"SoundDuration":80210,"Delta":16452794},{"NoteNumber":67,"Velocity":65,"Duration":80210,"SoundDuration":80210,"Delta":16452794},{"NoteNumber":52,"Velocity":56,"Duration":80210,"SoundDuration":80210,"Delta":16452794},{"NoteNumber":57,"Velocity":56,"Duration":80210,"SoundDuration":80210,"Delta":16452794},{"NoteNumber":61,"Velocity":57,"Duration":52083,"SoundDuration":52083,"Delta":16773681},{"NoteNumber":66,"Velocity":57,"Duration":52083,"SoundDuration":52083,"Delta":16773681},{"NoteNumber":51,"Velocity":53,"Duration":52083,"SoundDuration":52083,"Delta":16773681},{"NoteNumber":57,"Velocity":53,"Duration":52083,"SoundDuration":52083,"Delta":16773681},{"NoteNumber":61,"Velocity":60,"Duration":208333,"SoundDuration":208333,"Delta":16877848},{"NoteNumber":67,"Velocity":60,"Duration":208333,"SoundDuration":208333,"Delta":16877848},{"NoteNumber":52,"Velocity":55,"Duration":208333,"SoundDuration":208333,"Delta":16877848},{"NoteNumber":57,"Velocity":55,"Duration":208333,"SoundDuration":208333,"Delta":16877848},{"NoteNumber":61,"Velocity":63,"Duration":443107,"SoundDuration":443107,"Delta":17325530},{"NoteNumber":71,"Velocity":63,"Duration":443107,"SoundDuration":443107,"Delta":17325530},{"NoteNumber":55,"Velocity":56,"Duration":443107,"SoundDuration":443107,"Delta":17325530},{"NoteNumber":57,"Velocity":56,"Duration":443107,"SoundDuration":443107,"Delta":17325530},{"NoteNumber":62,"Velocity":63,"Duration":871871,"SoundDuration":871871,"Delta":17768638},{"NoteNumber":69,"Velocity":63,"Duration":871871,"SoundDuration":871871,"Delta":17768638},{"NoteNumber":54,"Velocity":56,"Duration":81638,"SoundDuration":81638,"Delta":17768638},{"NoteNumber":57,"Velocity":56,"Duration":81638,"SoundDuration":81638,"Delta":17768638},{"NoteNumber":53,"Velocity":54,"Duration":52631,"SoundDuration":52631,"Delta":18095143},{"NoteNumber":57,"Velocity":54,"Duration":52631,"SoundDuration":52631,"Delta":18095143},{"NoteNumber":54,"Velocity":58,"Duration":210526,"SoundDuration":210526,"Delta":18200406},{"NoteNumber":57,"Velocity":58,"Duration":210526,"SoundDuration":210526,"Delta":18200406},{"NoteNumber":74,"Velocity":60,"Duration":325409,"SoundDuration":325409,"Delta":18640510},{"NoteNumber":69,"Velocity":60,"Duration":436932,"SoundDuration":436932,"Delta":18640510},{"NoteNumber":57,"Velocity":52,"Duration":216957,"SoundDuration":216957,"Delta":18640510},{"NoteNumber":54,"Velocity":52,"Duration":436932,"SoundDuration":436932,"Delta":18640510},{"NoteNumber":59,"Velocity":49,"Duration":219975,"SoundDuration":219975,"Delta":18857467},{"NoteNumber":73,"Velocity":56,"Duration":111523,"SoundDuration":111523,"Delta":18965919},{"NoteNumber":73,"Velocity":60,"Duration":245407,"SoundDuration":245407,"Delta":19077442},{"NoteNumber":69,"Velocity":60,"Duration":881537,"SoundDuration":881537,"Delta":19077442},{"NoteNumber":61,"Velocity":48,"Duration":245407,"SoundDuration":245407,"Delta":19077442},{"NoteNumber":52,"Velocity":48,"Duration":446196,"SoundDuration":446196,"Delta":19077442},{"NoteNumber":74,"Velocity":54,"Duration":244886,"SoundDuration":244886,"Delta":19300540},{"NoteNumber":62,"Velocity":50,"Duration":244886,"SoundDuration":244886,"Delta":19300540},{"NoteNumber":76,"Velocity":57,"Duration":239448,"SoundDuration":239448,"Delta":19523638},{"NoteNumber":64,"Velocity":51,"Duration":239448,"SoundDuration":239448,"Delta":19523638},{"NoteNumber":78,"Velocity":60,"Duration":217659,"SoundDuration":217659,"Delta":19741320},{"NoteNumber":66,"Velocity":53,"Duration":217659,"SoundDuration":217659,"Delta":19741320},{"NoteNumber":74,"Velocity":45,"Duration":1065412,"SoundDuration":1065412,"Delta":19958980},{"NoteNumber":78,"Velocity":62,"Duration":403877,"SoundDuration":403877,"Delta":19958980},{"NoteNumber":64,"Velocity":45,"Duration":1065412,"SoundDuration":1065412,"Delta":19958980},{"NoteNumber":66,"Velocity":55,"Duration":403877,"SoundDuration":403877,"Delta":19958980},{"NoteNumber":80,"Velocity":55,"Duration":149323,"SoundDuration":149323,"Delta":20362857},{"NoteNumber":68,"Velocity":48,"Duration":149323,"SoundDuration":149323,"Delta":20362857},{"NoteNumber":80,"Velocity":51,"Duration":512211,"SoundDuration":512211,"Delta":20512180},{"NoteNumber":68,"Velocity":45,"Duration":512211,"SoundDuration":512211,"Delta":20512180},{"NoteNumber":73,"Velocity":40,"Duration":384024,"SoundDuration":384024,"Delta":21024392},{"NoteNumber":81,"Velocity":46,"Duration":384024,"SoundDuration":384024,"Delta":21024392},{"NoteNumber":69,"Velocity":37,"Duration":384024,"SoundDuration":384024,"Delta":21024392},{"NoteNumber":57,"Velocity":37,"Duration":384024,"SoundDuration":384024,"Delta":21024392},{"NoteNumber":72,"Velocity":41,"Duration":472470,"SoundDuration":472470,"Delta":21536425},{"NoteNumber":76,"Velocity":41,"Duration":261532,"SoundDuration":261532,"Delta":21536425},{"NoteNumber":57,"Velocity":41,"Duration":472470,"SoundDuration":472470,"Delta":21536425},{"NoteNumber":64,"Velocity":41,"Duration":261532,"SoundDuration":261532,"Delta":21536425},{"NoteNumber":78,"Velocity":41,"Duration":258279,"SoundDuration":258279,"Delta":21774520},{"NoteNumber":66,"Velocity":41,"Duration":258279,"SoundDuration":258279,"Delta":21774520},{"NoteNumber":71,"Velocity":40,"Duration":937678,"SoundDuration":937678,"Delta":22008895},{"NoteNumber":79,"Velocity":45,"Duration":262481,"SoundDuration":262481,"Delta":22008895},{"NoteNumber":59,"Velocity":40,"Duration":937678,"SoundDuration":937678,"Delta":22008895},{"NoteNumber":67,"Velocity":44,"Duration":262481,"SoundDuration":262481,"Delta":22008895},{"NoteNumber":81,"Velocity":41,"Duration":257812,"SoundDuration":257812,"Delta":22247939},{"NoteNumber":69,"Velocity":41,"Duration":257812,"SoundDuration":257812,"Delta":22247939},{"NoteNumber":79,"Velocity":41,"Duration":257363,"SoundDuration":257363,"Delta":22482314},{"NoteNumber":67,"Velocity":41,"Duration":257363,"SoundDuration":257363,"Delta":22482314},{"NoteNumber":78,"Velocity":41,"Duration":253050,"SoundDuration":253050,"Delta":22716689},{"NoteNumber":66,"Velocity":39,"Duration":253050,"SoundDuration":253050,"Delta":22716689},{"NoteNumber":75,"Velocity":40,"Duration":472624,"SoundDuration":472624,"Delta":22946574},{"NoteNumber":79,"Velocity":43,"Duration":255756,"SoundDuration":255756,"Delta":22946574},{"NoteNumber":59,"Velocity":40,"Duration":472624,"SoundDuration":472624,"Delta":22946574},{"NoteNumber":67,"Velocity":41,"Duration":255756,"SoundDuration":255756,"Delta":22946574},{"NoteNumber":78,"Velocity":45,"Duration":264040,"SoundDuration":264040,"Delta":23178234},{"NoteNumber":66,"Velocity":44,"Duration":264040,"SoundDuration":264040,"Delta":23178234},{"NoteNumber":72,"Velocity":47,"Duration":923075,"SoundDuration":923075,"Delta":23419198},{"NoteNumber":76,"Velocity":47,"Duration":923075,"SoundDuration":923075,"Delta":23419198},{"NoteNumber":60,"Velocity":46,"Duration":253845,"SoundDuration":253845,"Delta":23419198},{"NoteNumber":64,"Velocity":46,"Duration":923075,"SoundDuration":923075,"Delta":23419198},{"NoteNumber":59,"Velocity":43,"Duration":253845,"SoundDuration":253845,"Delta":23649967},{"NoteNumber":57,"Velocity":42,"Duration":253845,"SoundDuration":253845,"Delta":23880736},{"NoteNumber":55,"Velocity":41,"Duration":230768,"SoundDuration":230768,"Delta":24111505},{"NoteNumber":69,"Velocity":44,"Duration":472440,"SoundDuration":472440,"Delta":24342274},{"NoteNumber":74,"Velocity":44,"Duration":259842,"SoundDuration":259842,"Delta":24342274},{"NoteNumber":55,"Velocity":44,"Duration":259842,"SoundDuration":259842,"Delta":24342274},{"NoteNumber":62,"Velocity":44,"Duration":944881,"SoundDuration":944881,"Delta":24342274},{"NoteNumber":72,"Velocity":43,"Duration":259842,"SoundDuration":259842,"Delta":24578494},{"NoteNumber":54,"Velocity":43,"Duration":259842,"SoundDuration":259842,"Delta":24578494},{"NoteNumber":67,"Velocity":41,"Duration":472440,"SoundDuration":472440,"Delta":24814715},{"NoteNumber":71,"Velocity":41,"Duration":472440,"SoundDuration":472440,"Delta":24814715},{"NoteNumber":55,"Velocity":43,"Duration":259842,"SoundDuration":259842,"Delta":24814715},{"NoteNumber":54,"Velocity":42,"Duration":260710,"SoundDuration":260710,"Delta":25050935},{"NoteNumber":67,"Velocity":44,"Duration":269387,"SoundDuration":269387,"Delta":25287156},{"NoteNumber":72,"Velocity":44,"Duration":489795,"SoundDuration":489795,"Delta":25287156},{"NoteNumber":52,"Velocity":41,"Duration":269387,"SoundDuration":269387,"Delta":25287156},{"NoteNumber":60,"Velocity":41,"Duration":489795,"SoundDuration":489795,"Delta":25287156},{"NoteNumber":69,"Velocity":43,"Duration":269387,"SoundDuration":269387,"Delta":25532054},{"NoteNumber":54,"Velocity":40,"Duration":269387,"SoundDuration":269387,"Delta":25532054},{"NoteNumber":62,"Velocity":42,"Duration":270214,"SoundDuration":270214,"Delta":25776952},{"NoteNumber":69,"Velocity":42,"Duration":244898,"SoundDuration":244898,"Delta":25776952},{"NoteNumber":71,"Velocity":42,"Duration":498062,"SoundDuration":498062,"Delta":25776952},{"NoteNumber":55,"Velocity":41,"Duration":270214,"SoundDuration":270214,"Delta":25776952},{"NoteNumber":59,"Velocity":41,"Duration":498062,"SoundDuration":498062,"Delta":25776952},{"NoteNumber":67,"Velocity":41,"Duration":253164,"SoundDuration":253164,"Delta":26021850},{"NoteNumber":50,"Velocity":41,"Duration":253164,"SoundDuration":253164,"Delta":26021850},{"NoteNumber":62,"Velocity":37,"Duration":247423,"SoundDuration":247423,"Delta":26275014},{"NoteNumber":67,"Velocity":37,"Duration":272320,"SoundDuration":272320,"Delta":26275014},{"NoteNumber":69,"Velocity":37,"Duration":1002269,"SoundDuration":1002269,"Delta":26275014},{"NoteNumber":55,"Velocity":36,"Duration":247423,"SoundDuration":247423,"Delta":26275014},{"NoteNumber":50,"Velocity":36,"Duration":1002269,"SoundDuration":1002269,"Delta":26275014},{"NoteNumber":57,"Velocity":36,"Duration":1091508,"SoundDuration":1091508,"Delta":26275014},{"NoteNumber":66,"Velocity":35,"Duration":274585,"SoundDuration":274585,"Delta":26522438},{"NoteNumber":54,"Velocity":35,"Duration":274585,"SoundDuration":274585,"Delta":26522438},{"NoteNumber":64,"Velocity":34,"Duration":276889,"SoundDuration":276889,"Delta":26771919},{"NoteNumber":52,"Velocity":34,"Duration":276889,"SoundDuration":276889,"Delta":26771919},{"NoteNumber":62,"Velocity":32,"Duration":253791,"SoundDuration":253791,"Delta":27023493},{"NoteNumber":50,"Velocity":32,"Duration":253791,"SoundDuration":253791,"Delta":27023493},{"NoteNumber":62,"Velocity":42,"Duration":223098,"SoundDuration":223098,"Delta":27277284},{"NoteNumber":66,"Velocity":42,"Duration":334647,"SoundDuration":334647,"Delta":27277284},{"NoteNumber":50,"Velocity":40,"Duration":223098,"SoundDuration":223098,"Delta":27277284},{"NoteNumber":57,"Velocity":40,"Duration":441249,"SoundDuration":441249,"Delta":27277284},{"NoteNumber":60,"Velocity":45,"Duration":164850,"SoundDuration":164850,"Delta":27500382},{"NoteNumber":51,"Velocity":43,"Duration":218151,"SoundDuration":218151,"Delta":27500382},{"NoteNumber":71,"Velocity":40,"Duration":53301,"SoundDuration":53301,"Delta":27611931},{"NoteNumber":69,"Velocity":44,"Duration":53301,"SoundDuration":53301,"Delta":27664344},{"NoteNumber":61,"Velocity":49,"Duration":54225,"SoundDuration":54225,"Delta":27718533},{"NoteNumber":67,"Velocity":49,"Duration":54225,"SoundDuration":54225,"Delta":27718533},{"NoteNumber":52,"Velocity":44,"Duration":54225,"SoundDuration":54225,"Delta":27718533},{"NoteNumber":57,"Velocity":44,"Duration":54225,"SoundDuration":54225,"Delta":27718533},{"NoteNumber":61,"Velocity":44,"Duration":52631,"SoundDuration":52631,"Delta":28043889},{"NoteNumber":66,"Velocity":44,"Duration":52631,"SoundDuration":52631,"Delta":28043889},{"NoteNumber":51,"Velocity":38,"Duration":52631,"SoundDuration":52631,"Delta":28043889},{"NoteNumber":57,"Velocity":38,"Duration":52631,"SoundDuration":52631,"Delta":28043889},{"NoteNumber":61,"Velocity":47,"Duration":210526,"SoundDuration":210526,"Delta":28149153},{"NoteNumber":67,"Velocity":47,"Duration":210526,"SoundDuration":210526,"Delta":28149153},{"NoteNumber":52,"Velocity":40,"Duration":210526,"SoundDuration":210526,"Delta":28149153},{"NoteNumber":57,"Velocity":40,"Duration":210526,"SoundDuration":210526,"Delta":28149153},{"NoteNumber":61,"Velocity":49,"Duration":441469,"SoundDuration":441469,"Delta":28595399},{"NoteNumber":71,"Velocity":49,"Duration":441469,"SoundDuration":441469,"Delta":28595399},{"NoteNumber":55,"Velocity":44,"Duration":441469,"SoundDuration":441469,"Delta":28595399},{"NoteNumber":57,"Velocity":44,"Duration":441469,"SoundDuration":441469,"Delta":28595399},{"NoteNumber":62,"Velocity":51,"Duration":863303,"SoundDuration":863303,"Delta":29036868},{"NoteNumber":69,"Velocity":51,"Duration":863303,"SoundDuration":863303,"Delta":29036868},{"NoteNumber":54,"Velocity":44,"Duration":54414,"SoundDuration":54414,"Delta":29036868},{"NoteNumber":57,"Velocity":44,"Duration":54414,"SoundDuration":54414,"Delta":29036868},{"NoteNumber":53,"Velocity":39,"Duration":52631,"SoundDuration":52631,"Delta":29362865},{"NoteNumber":57,"Velocity":39,"Duration":52631,"SoundDuration":52631,"Delta":29362865},{"NoteNumber":54,"Velocity":43,"Duration":210526,"SoundDuration":210526,"Delta":29468128},{"NoteNumber":57,"Velocity":43,"Duration":210526,"SoundDuration":210526,"Delta":29468128},{"NoteNumber":69,"Velocity":51,"Duration":441469,"SoundDuration":441469,"Delta":29900171},{"NoteNumber":74,"Velocity":51,"Duration":441469,"SoundDuration":441469,"Delta":29900171},{"NoteNumber":54,"Velocity":44,"Duration":441469,"SoundDuration":441469,"Delta":29900171},{"NoteNumber":57,"Velocity":44,"Duration":441469,"SoundDuration":441469,"Delta":29900171},{"NoteNumber":67,"Velocity":51,"Duration":54225,"SoundDuration":54225,"Delta":30341640},{"NoteNumber":73,"Velocity":51,"Duration":54225,"SoundDuration":54225,"Delta":30341640},{"NoteNumber":52,"Velocity":44,"Duration":54225,"SoundDuration":54225,"Delta":30341640},{"NoteNumber":57,"Velocity":44,"Duration":54225,"SoundDuration":54225,"Delta":30341640},{"NoteNumber":66,"Velocity":45,"Duration":52631,"SoundDuration":52631,"Delta":30666996},{"NoteNumber":71,"Velocity":45,"Duration":52631,"SoundDuration":52631,"Delta":30666996},{"NoteNumber":50,"Velocity":40,"Duration":52631,"SoundDuration":52631,"Delta":30666996},{"NoteNumber":57,"Velocity":40,"Duration":52631,"SoundDuration":52631,"Delta":30666996},{"NoteNumber":64,"Velocity":49,"Duration":210526,"SoundDuration":210526,"Delta":30772260},{"NoteNumber":69,"Velocity":49,"Duration":210526,"SoundDuration":210526,"Delta":30772260},{"NoteNumber":49,"Velocity":44,"Duration":210526,"SoundDuration":210526,"Delta":30772260},{"NoteNumber":57,"Velocity":44,"Duration":210526,"SoundDuration":210526,"Delta":30772260},{"NoteNumber":67,"Velocity":53,"Duration":446196,"SoundDuration":446196,"Delta":31223983},{"NoteNumber":69,"Velocity":53,"Duration":446196,"SoundDuration":446196,"Delta":31223983},{"NoteNumber":79,"Velocity":53,"Duration":446196,"SoundDuration":446196,"Delta":31223983},{"NoteNumber":45,"Velocity":48,"Duration":223098,"SoundDuration":223098,"Delta":31223983},{"NoteNumber":57,"Velocity":48,"Duration":446196,"SoundDuration":446196,"Delta":31223983},{"NoteNumber":49,"Velocity":48,"Duration":223098,"SoundDuration":223098,"Delta":31447081},{"NoteNumber":66,"Velocity":53,"Duration":54414,"SoundDuration":54414,"Delta":31670179},{"NoteNumber":74,"Velocity":53,"Duration":54414,"SoundDuration":54414,"Delta":31670179},{"NoteNumber":78,"Velocity":53,"Duration":54414,"SoundDuration":54414,"Delta":31670179},{"NoteNumber":50,"Velocity":46,"Duration":54414,"SoundDuration":54414,"Delta":31670179},{"NoteNumber":57,"Velocity":46,"Duration":54414,"SoundDuration":54414,"Delta":31670179},{"NoteNumber":67,"Velocity":48,"Duration":52631,"SoundDuration":52631,"Delta":31996668},{"NoteNumber":73,"Velocity":48,"Duration":52631,"SoundDuration":52631,"Delta":31996668},{"NoteNumber":76,"Velocity":48,"Duration":52631,"SoundDuration":52631,"Delta":31996668},{"NoteNumber":52,"Velocity":41,"Duration":52631,"SoundDuration":52631,"Delta":31996668},{"NoteNumber":57,"Velocity":41,"Duration":52631,"SoundDuration":52631,"Delta":31996668},{"NoteNumber":69,"Velocity":45,"Duration":210526,"SoundDuration":210526,"Delta":32101931},{"NoteNumber":74,"Velocity":45,"Duration":210526,"SoundDuration":210526,"Delta":32101931},{"NoteNumber":54,"Velocity":41,"Duration":210526,"SoundDuration":210526,"Delta":32101931},{"NoteNumber":57,"Velocity":41,"Duration":210526,"SoundDuration":210526,"Delta":32101931},{"NoteNumber":66,"Velocity":56,"Duration":331101,"SoundDuration":331101,"Delta":32533974},{"NoteNumber":50,"Velocity":55,"Duration":436269,"SoundDuration":436269,"Delta":32533974},{"NoteNumber":57,"Velocity":55,"Duration":436269,"SoundDuration":436269,"Delta":32533974},{"NoteNumber":71,"Velocity":50,"Duration":52583,"SoundDuration":52583,"Delta":32865076},{"NoteNumber":69,"Velocity":55,"Duration":52583,"SoundDuration":52583,"Delta":32916783},{"NoteNumber":61,"Velocity":61,"Duration":80225,"SoundDuration":80225,"Delta":32970243},{"NoteNumber":67,"Velocity":61,"Duration":80225,"SoundDuration":80225,"Delta":32970243},{"NoteNumber":52,"Velocity":56,"Duration":80225,"SoundDuration":80225,"Delta":32970243},{"NoteNumber":57,"Velocity":56,"Duration":80225,"SoundDuration":80225,"Delta":32970243},{"NoteNumber":61,"Velocity":56,"Duration":52083,"SoundDuration":52083,"Delta":33291145},{"NoteNumber":66,"Velocity":56,"Duration":52083,"SoundDuration":52083,"Delta":33291145},{"NoteNumber":51,"Velocity":47,"Duration":52083,"SoundDuration":52083,"Delta":33291145},{"NoteNumber":57,"Velocity":47,"Duration":52083,"SoundDuration":52083,"Delta":33291145},{"NoteNumber":61,"Velocity":59,"Duration":208333,"SoundDuration":208333,"Delta":33395312},{"NoteNumber":67,"Velocity":59,"Duration":208333,"SoundDuration":208333,"Delta":33395312},{"NoteNumber":52,"Velocity":50,"Duration":208333,"SoundDuration":208333,"Delta":33395312},{"NoteNumber":57,"Velocity":50,"Duration":208333,"SoundDuration":208333,"Delta":33395312},{"NoteNumber":71,"Velocity":60,"Duration":325355,"SoundDuration":325355,"Delta":33840257},{"NoteNumber":61,"Velocity":60,"Duration":442087,"SoundDuration":442087,"Delta":33840257},{"NoteNumber":57,"Velocity":52,"Duration":442087,"SoundDuration":442087,"Delta":33840257},{"NoteNumber":55,"Velocity":52,"Duration":442087,"SoundDuration":442087,"Delta":33840257},{"NoteNumber":69,"Velocity":56,"Duration":116731,"SoundDuration":116731,"Delta":34165613},{"NoteNumber":69,"Velocity":60,"Duration":266979,"SoundDuration":266979,"Delta":34282344},{"NoteNumber":62,"Velocity":60,"Duration":474671,"SoundDuration":474671,"Delta":34282344},{"NoteNumber":57,"Velocity":45,"Duration":266979,"SoundDuration":266979,"Delta":34282344},{"NoteNumber":54,"Velocity":45,"Duration":922738,"SoundDuration":922738,"Delta":34282344},{"NoteNumber":71,"Velocity":52,"Duration":252587,"SoundDuration":252587,"Delta":34526247},{"NoteNumber":59,"Velocity":45,"Duration":252587,"SoundDuration":252587,"Delta":34526247},{"NoteNumber":73,"Velocity":54,"Duration":241170,"SoundDuration":241170,"Delta":34757016},{"NoteNumber":61,"Velocity":46,"Duration":241170,"SoundDuration":241170,"Delta":34757016},{"NoteNumber":74,"Velocity":55,"Duration":229885,"SoundDuration":229885,"Delta":34975198},{"NoteNumber":62,"Velocity":47,"Duration":229885,"SoundDuration":229885,"Delta":34975198},{"NoteNumber":71,"Velocity":57,"Duration":500077,"SoundDuration":500077,"Delta":35205083},{"NoteNumber":74,"Velocity":57,"Duration":272229,"SoundDuration":272229,"Delta":35205083},{"NoteNumber":55,"Velocity":48,"Duration":500077,"SoundDuration":500077,"Delta":35205083},{"NoteNumber":62,"Velocity":48,"Duration":272229,"SoundDuration":272229,"Delta":35205083},{"NoteNumber":76,"Velocity":59,"Duration":277164,"SoundDuration":277164,"Delta":35451996},{"NoteNumber":64,"Velocity":49,"Duration":277164,"SoundDuration":277164,"Delta":35451996},{"NoteNumber":69,"Velocity":61,"Duration":479999,"SoundDuration":479999,"Delta":35705161},{"NoteNumber":78,"Velocity":61,"Duration":985530,"SoundDuration":985530,"Delta":35705161},{"NoteNumber":57,"Velocity":50,"Duration":1568452,"SoundDuration":1568452,"Delta":35705161},{"NoteNumber":66,"Velocity":50,"Duration":264000,"SoundDuration":264000,"Delta":35705161},{"NoteNumber":67,"Velocity":47,"Duration":263999,"SoundDuration":263999,"Delta":35945161},{"NoteNumber":69,"Velocity":52,"Duration":268688,"SoundDuration":268688,"Delta":36185161},{"NoteNumber":71,"Velocity":51,"Duration":263157,"SoundDuration":263157,"Delta":36427534},{"NoteNumber":71,"Velocity":48,"Duration":305998,"SoundDuration":305998,"Delta":36690692},{"NoteNumber":76,"Velocity":48,"Duration":1238660,"SoundDuration":1238660,"Delta":36690692},{"NoteNumber":67,"Velocity":41,"Duration":1238660,"SoundDuration":1238660,"Delta":36690692},{"NoteNumber":73,"Velocity":48,"Duration":340479,"SoundDuration":340479,"Delta":36965921},{"NoteNumber":73,"Velocity":46,"Duration":655737,"SoundDuration":655737,"Delta":37273614},{"NoteNumber":62,"Velocity":43,"Duration":1311475,"SoundDuration":1311475,"Delta":37273614},{"NoteNumber":74,"Velocity":38,"Duration":491803,"SoundDuration":491803,"Delta":37929352},{"NoteNumber":66,"Velocity":35,"Duration":491803,"SoundDuration":491803,"Delta":37929352},{"NoteNumber":72,"Velocity":41,"Duration":475294,"SoundDuration":475294,"Delta":38585090},{"NoteNumber":76,"Velocity":41,"Duration":263529,"SoundDuration":263529,"Delta":38585090},{"NoteNumber":57,"Velocity":41,"Duration":475294,"SoundDuration":475294,"Delta":38585090},{"NoteNumber":64,"Velocity":41,"Duration":263529,"SoundDuration":263529,"Delta":38585090},{"NoteNumber":78,"Velocity":41,"Duration":259198,"SoundDuration":259198,"Delta":38825090},{"NoteNumber":66,"Velocity":41,"Duration":259198,"SoundDuration":259198,"Delta":38825090},{"NoteNumber":71,"Velocity":40,"Duration":936767,"SoundDuration":936767,"Delta":39060384},{"NoteNumber":79,"Velocity":45,"Duration":262481,"SoundDuration":262481,"Delta":39060384},{"NoteNumber":59,"Velocity":40,"Duration":936767,"SoundDuration":936767,"Delta":39060384},{"NoteNumber":67,"Velocity":44,"Duration":262481,"SoundDuration":262481,"Delta":39060384},{"NoteNumber":81,"Velocity":41,"Duration":257721,"SoundDuration":257721,"Delta":39299428},{"NoteNumber":69,"Velocity":41,"Duration":257721,"SoundDuration":257721,"Delta":39299428},{"NoteNumber":79,"Velocity":41,"Duration":256451,"SoundDuration":256451,"Delta":39533803},{"NoteNumber":67,"Velocity":41,"Duration":256451,"SoundDuration":256451,"Delta":39533803},{"NoteNumber":78,"Velocity":41,"Duration":253414,"SoundDuration":253414,"Delta":39767266},{"NoteNumber":66,"Velocity":39,"Duration":253414,"SoundDuration":253414,"Delta":39767266},{"NoteNumber":75,"Velocity":40,"Duration":476258,"SoundDuration":476258,"Delta":39997151},{"NoteNumber":79,"Velocity":43,"Duration":259390,"SoundDuration":259390,"Delta":39997151},{"NoteNumber":59,"Velocity":40,"Duration":476258,"SoundDuration":476258,"Delta":39997151},{"NoteNumber":67,"Velocity":41,"Duration":259390,"SoundDuration":259390,"Delta":39997151},{"NoteNumber":78,"Velocity":45,"Duration":264040,"SoundDuration":264040,"Delta":40232445},{"NoteNumber":66,"Velocity":44,"Duration":264040,"SoundDuration":264040,"Delta":40232445},{"NoteNumber":72,"Velocity":47,"Duration":923076,"SoundDuration":923076,"Delta":40473409},{"NoteNumber":76,"Velocity":47,"Duration":923076,"SoundDuration":923076,"Delta":40473409},{"NoteNumber":60,"Velocity":46,"Duration":253845,"SoundDuration":253845,"Delta":40473409},{"NoteNumber":64,"Velocity":46,"Duration":923076,"SoundDuration":923076,"Delta":40473409},{"NoteNumber":59,"Velocity":43,"Duration":253845,"SoundDuration":253845,"Delta":40704178},{"NoteNumber":57,"Velocity":42,"Duration":253845,"SoundDuration":253845,"Delta":40934947},{"NoteNumber":55,"Velocity":41,"Duration":230769,"SoundDuration":230769,"Delta":41165716},{"NoteNumber":69,"Velocity":44,"Duration":472441,"SoundDuration":472441,"Delta":41396485},{"NoteNumber":74,"Velocity":44,"Duration":259842,"SoundDuration":259842,"Delta":41396485},{"NoteNumber":55,"Velocity":44,"Duration":259842,"SoundDuration":259842,"Delta":41396485},{"NoteNumber":62,"Velocity":44,"Duration":944881,"SoundDuration":944881,"Delta":41396485},{"NoteNumber":72,"Velocity":43,"Duration":259842,"SoundDuration":259842,"Delta":41632705},{"NoteNumber":54,"Velocity":43,"Duration":259842,"SoundDuration":259842,"Delta":41632705},{"NoteNumber":67,"Velocity":41,"Duration":472440,"SoundDuration":472440,"Delta":41868926},{"NoteNumber":71,"Velocity":41,"Duration":472440,"SoundDuration":472440,"Delta":41868926},{"NoteNumber":55,"Velocity":43,"Duration":259842,"SoundDuration":259842,"Delta":41868926},{"NoteNumber":54,"Velocity":42,"Duration":260710,"SoundDuration":260710,"Delta":42105146},{"NoteNumber":67,"Velocity":44,"Duration":269387,"SoundDuration":269387,"Delta":42341367},{"NoteNumber":72,"Velocity":44,"Duration":489795,"SoundDuration":489795,"Delta":42341367},{"NoteNumber":52,"Velocity":41,"Duration":269387,"SoundDuration":269387,"Delta":42341367},{"NoteNumber":60,"Velocity":41,"Duration":489795,"SoundDuration":489795,"Delta":42341367},{"NoteNumber":69,"Velocity":43,"Duration":244897,"SoundDuration":244897,"Delta":42586265},{"NoteNumber":54,"Velocity":40,"Duration":269387,"SoundDuration":269387,"Delta":42586265},{"NoteNumber":62,"Velocity":42,"Duration":244897,"SoundDuration":244897,"Delta":42831163},{"NoteNumber":69,"Velocity":42,"Duration":244897,"SoundDuration":244897,"Delta":42831163},{"NoteNumber":71,"Velocity":42,"Duration":498062,"SoundDuration":498062,"Delta":42831163},{"NoteNumber":55,"Velocity":41,"Duration":270214,"SoundDuration":270214,"Delta":42831163},{"NoteNumber":59,"Velocity":41,"Duration":498062,"SoundDuration":498062,"Delta":42831163},{"NoteNumber":67,"Velocity":41,"Duration":253164,"SoundDuration":253164,"Delta":43076061},{"NoteNumber":50,"Velocity":41,"Duration":253164,"SoundDuration":253164,"Delta":43076061},{"NoteNumber":62,"Velocity":37,"Duration":247423,"SoundDuration":247423,"Delta":43329225},{"NoteNumber":67,"Velocity":37,"Duration":272320,"SoundDuration":272320,"Delta":43329225},{"NoteNumber":69,"Velocity":37,"Duration":1002269,"SoundDuration":1002269,"Delta":43329225},{"NoteNumber":55,"Velocity":36,"Duration":247423,"SoundDuration":247423,"Delta":43329225},{"NoteNumber":50,"Velocity":36,"Duration":1002269,"SoundDuration":1002269,"Delta":43329225},{"NoteNumber":57,"Velocity":36,"Duration":1091508,"SoundDuration":1091508,"Delta":43329225},{"NoteNumber":66,"Velocity":35,"Duration":274585,"SoundDuration":274585,"Delta":43576649},{"NoteNumber":54,"Velocity":35,"Duration":274585,"SoundDuration":274585,"Delta":43576649},{"NoteNumber":64,"Velocity":34,"Duration":276889,"SoundDuration":276889,"Delta":43826130},{"NoteNumber":52,"Velocity":34,"Duration":276889,"SoundDuration":276889,"Delta":43826130},{"NoteNumber":62,"Velocity":32,"Duration":253791,"SoundDuration":253791,"Delta":44077704},{"NoteNumber":50,"Velocity":32,"Duration":253791,"SoundDuration":253791,"Delta":44077704},{"NoteNumber":62,"Velocity":42,"Duration":223098,"SoundDuration":223098,"Delta":44331495},{"NoteNumber":66,"Velocity":42,"Duration":334646,"SoundDuration":334646,"Delta":44331495},{"NoteNumber":50,"Velocity":40,"Duration":223098,"SoundDuration":223098,"Delta":44331495},{"NoteNumber":57,"Velocity":40,"Duration":441249,"SoundDuration":441249,"Delta":44331495},{"NoteNumber":60,"Velocity":45,"Duration":164850,"SoundDuration":164850,"Delta":44554593},{"NoteNumber":51,"Velocity":43,"Duration":218151,"SoundDuration":218151,"Delta":44554593},{"NoteNumber":71,"Velocity":40,"Duration":53301,"SoundDuration":53301,"Delta":44666142},{"NoteNumber":69,"Velocity":44,"Duration":53301,"SoundDuration":53301,"Delta":44718555},{"NoteNumber":61,"Velocity":49,"Duration":54225,"SoundDuration":54225,"Delta":44772744},{"NoteNumber":67,"Velocity":49,"Duration":54225,"SoundDuration":54225,"Delta":44772744},{"NoteNumber":52,"Velocity":44,"Duration":54225,"SoundDuration":54225,"Delta":44772744},{"NoteNumber":57,"Velocity":44,"Duration":54225,"SoundDuration":54225,"Delta":44772744},{"NoteNumber":61,"Velocity":47,"Duration":52447,"SoundDuration":52447,"Delta":45098100},{"NoteNumber":66,"Velocity":47,"Duration":52447,"SoundDuration":52447,"Delta":45098100},{"NoteNumber":51,"Velocity":39,"Duration":52447,"SoundDuration":52447,"Delta":45098100},{"NoteNumber":57,"Velocity":39,"Duration":52447,"SoundDuration":52447,"Delta":45098100},{"NoteNumber":61,"Velocity":50,"Duration":209789,"SoundDuration":209789,"Delta":45202995},{"NoteNumber":67,"Velocity":50,"Duration":209789,"SoundDuration":209789,"Delta":45202995},{"NoteNumber":52,"Velocity":43,"Duration":209789,"SoundDuration":209789,"Delta":45202995},{"NoteNumber":57,"Velocity":43,"Duration":209789,"SoundDuration":209789,"Delta":45202995},{"NoteNumber":61,"Velocity":49,"Duration":441468,"SoundDuration":441468,"Delta":45648504},{"NoteNumber":71,"Velocity":49,"Duration":441468,"SoundDuration":441468,"Delta":45648504},{"NoteNumber":55,"Velocity":44,"Duration":441468,"SoundDuration":441468,"Delta":45648504},{"NoteNumber":57,"Velocity":44,"Duration":441468,"SoundDuration":441468,"Delta":45648504},{"NoteNumber":62,"Velocity":51,"Duration":862199,"SoundDuration":862199,"Delta":46089973},{"NoteNumber":69,"Velocity":51,"Duration":862199,"SoundDuration":862199,"Delta":46089973},{"NoteNumber":54,"Velocity":44,"Duration":54414,"SoundDuration":54414,"Delta":46089973},{"NoteNumber":57,"Velocity":44,"Duration":54414,"SoundDuration":54414,"Delta":46089973},{"NoteNumber":53,"Velocity":38,"Duration":52447,"SoundDuration":52447,"Delta":46415971},{"NoteNumber":57,"Velocity":38,"Duration":52447,"SoundDuration":52447,"Delta":46415971},{"NoteNumber":54,"Velocity":43,"Duration":209789,"SoundDuration":209789,"Delta":46520866},{"NoteNumber":57,"Velocity":43,"Duration":209789,"SoundDuration":209789,"Delta":46520866},{"NoteNumber":69,"Velocity":51,"Duration":441468,"SoundDuration":441468,"Delta":46952173},{"NoteNumber":74,"Velocity":51,"Duration":441468,"SoundDuration":441468,"Delta":46952173},{"NoteNumber":54,"Velocity":44,"Duration":441468,"SoundDuration":441468,"Delta":46952173},{"NoteNumber":57,"Velocity":44,"Duration":441468,"SoundDuration":441468,"Delta":46952173},{"NoteNumber":67,"Velocity":51,"Duration":54225,"SoundDuration":54225,"Delta":47393642},{"NoteNumber":73,"Velocity":51,"Duration":54225,"SoundDuration":54225,"Delta":47393642},{"NoteNumber":52,"Velocity":44,"Duration":54225,"SoundDuration":54225,"Delta":47393642},{"NoteNumber":57,"Velocity":44,"Duration":54225,"SoundDuration":54225,"Delta":47393642},{"NoteNumber":66,"Velocity":47,"Duration":52583,"SoundDuration":52583,"Delta":47718998},{"NoteNumber":71,"Velocity":47,"Duration":52583,"SoundDuration":52583,"Delta":47718998},{"NoteNumber":50,"Velocity":41,"Duration":52583,"SoundDuration":52583,"Delta":47718998},{"NoteNumber":57,"Velocity":41,"Duration":52583,"SoundDuration":52583,"Delta":47718998},{"NoteNumber":64,"Velocity":50,"Duration":210334,"SoundDuration":210334,"Delta":47824165},{"NoteNumber":69,"Velocity":50,"Duration":210334,"SoundDuration":210334,"Delta":47824165},{"NoteNumber":49,"Velocity":44,"Duration":210334,"SoundDuration":210334,"Delta":47824165},{"NoteNumber":57,"Velocity":44,"Duration":210334,"SoundDuration":210334,"Delta":47824165},{"NoteNumber":67,"Velocity":53,"Duration":446196,"SoundDuration":446196,"Delta":48275696},{"NoteNumber":69,"Velocity":53,"Duration":446196,"SoundDuration":446196,"Delta":48275696},{"NoteNumber":79,"Velocity":53,"Duration":446196,"SoundDuration":446196,"Delta":48275696},{"NoteNumber":45,"Velocity":48,"Duration":223098,"SoundDuration":223098,"Delta":48275696},{"NoteNumber":57,"Velocity":48,"Duration":446196,"SoundDuration":446196,"Delta":48275696},{"NoteNumber":49,"Velocity":48,"Duration":223098,"SoundDuration":223098,"Delta":48498794},{"NoteNumber":66,"Velocity":53,"Duration":54414,"SoundDuration":54414,"Delta":48721892},{"NoteNumber":74,"Velocity":53,"Duration":54414,"SoundDuration":54414,"Delta":48721892},{"NoteNumber":78,"Velocity":53,"Duration":54414,"SoundDuration":54414,"Delta":48721892},{"NoteNumber":50,"Velocity":46,"Duration":54414,"SoundDuration":54414,"Delta":48721892},{"NoteNumber":57,"Velocity":46,"Duration":54414,"SoundDuration":54414,"Delta":48721892},{"NoteNumber":67,"Velocity":49,"Duration":53003,"SoundDuration":53003,"Delta":49048381},{"NoteNumber":73,"Velocity":49,"Duration":53003,"SoundDuration":53003,"Delta":49048381},{"NoteNumber":76,"Velocity":49,"Duration":53003,"SoundDuration":53003,"Delta":49048381},{"NoteNumber":52,"Velocity":42,"Duration":53003,"SoundDuration":53003,"Delta":49048381},{"NoteNumber":57,"Velocity":42,"Duration":53003,"SoundDuration":53003,"Delta":49048381},{"NoteNumber":69,"Velocity":48,"Duration":212014,"SoundDuration":212014,"Delta":49154388},{"NoteNumber":74,"Velocity":48,"Duration":212014,"SoundDuration":212014,"Delta":49154388},{"NoteNumber":54,"Velocity":42,"Duration":212014,"SoundDuration":212014,"Delta":49154388},{"NoteNumber":57,"Velocity":42,"Duration":212014,"SoundDuration":212014,"Delta":49154388},{"NoteNumber":66,"Velocity":56,"Duration":331101,"SoundDuration":331101,"Delta":49587919},{"NoteNumber":50,"Velocity":55,"Duration":436269,"SoundDuration":436269,"Delta":49587919},{"NoteNumber":57,"Velocity":55,"Duration":436269,"SoundDuration":436269,"Delta":49587919},{"NoteNumber":71,"Velocity":50,"Duration":52583,"SoundDuration":52583,"Delta":49919020},{"NoteNumber":69,"Velocity":55,"Duration":52583,"SoundDuration":52583,"Delta":49970728},{"NoteNumber":61,"Velocity":61,"Duration":80225,"SoundDuration":80225,"Delta":50024188},{"NoteNumber":67,"Velocity":61,"Duration":80225,"SoundDuration":80225,"Delta":50024188},{"NoteNumber":52,"Velocity":56,"Duration":80225,"SoundDuration":80225,"Delta":50024188},{"NoteNumber":57,"Velocity":56,"Duration":80225,"SoundDuration":80225,"Delta":50024188},{"NoteNumber":61,"Velocity":53,"Duration":51903,"SoundDuration":51903,"Delta":50345089},{"NoteNumber":66,"Velocity":53,"Duration":51903,"SoundDuration":51903,"Delta":50345089},{"NoteNumber":51,"Velocity":47,"Duration":51903,"SoundDuration":51903,"Delta":50345089},{"NoteNumber":57,"Velocity":47,"Duration":51903,"SoundDuration":51903,"Delta":50345089},{"NoteNumber":61,"Velocity":57,"Duration":207612,"SoundDuration":207612,"Delta":50448896},{"NoteNumber":67,"Velocity":57,"Duration":207612,"SoundDuration":207612,"Delta":50448896},{"NoteNumber":52,"Velocity":52,"Duration":207612,"SoundDuration":207612,"Delta":50448896},{"NoteNumber":57,"Velocity":52,"Duration":207612,"SoundDuration":207612,"Delta":50448896},{"NoteNumber":71,"Velocity":60,"Duration":325355,"SoundDuration":325355,"Delta":50893120},{"NoteNumber":61,"Velocity":60,"Duration":442087,"SoundDuration":442087,"Delta":50893120},{"NoteNumber":57,"Velocity":52,"Duration":442087,"SoundDuration":442087,"Delta":50893120},{"NoteNumber":55,"Velocity":52,"Duration":442087,"SoundDuration":442087,"Delta":50893120},{"NoteNumber":69,"Velocity":56,"Duration":116731,"SoundDuration":116731,"Delta":51218476},{"NoteNumber":69,"Velocity":60,"Duration":266979,"SoundDuration":266979,"Delta":51335207},{"NoteNumber":62,"Velocity":60,"Duration":474671,"SoundDuration":474671,"Delta":51335207},{"NoteNumber":57,"Velocity":45,"Duration":266979,"SoundDuration":266979,"Delta":51335207},{"NoteNumber":54,"Velocity":45,"Duration":922738,"SoundDuration":922738,"Delta":51335207},{"NoteNumber":71,"Velocity":52,"Duration":252587,"SoundDuration":252587,"Delta":51579110},{"NoteNumber":59,"Velocity":45,"Duration":252587,"SoundDuration":252587,"Delta":51579110},{"NoteNumber":73,"Velocity":54,"Duration":241170,"SoundDuration":241170,"Delta":51809879},{"NoteNumber":61,"Velocity":46,"Duration":241170,"SoundDuration":241170,"Delta":51809879},{"NoteNumber":74,"Velocity":55,"Duration":229885,"SoundDuration":229885,"Delta":52028061},{"NoteNumber":62,"Velocity":47,"Duration":229885,"SoundDuration":229885,"Delta":52028061},{"NoteNumber":71,"Velocity":57,"Duration":515059,"SoundDuration":515059,"Delta":52257946},{"NoteNumber":74,"Velocity":57,"Duration":281293,"SoundDuration":281293,"Delta":52257946},{"NoteNumber":55,"Velocity":48,"Duration":515059,"SoundDuration":515059,"Delta":52257946},{"NoteNumber":62,"Velocity":48,"Duration":281293,"SoundDuration":281293,"Delta":52257946},{"NoteNumber":76,"Velocity":59,"Duration":284845,"SoundDuration":284845,"Delta":52513265},{"NoteNumber":64,"Velocity":49,"Duration":284845,"SoundDuration":284845,"Delta":52513265},{"NoteNumber":69,"Velocity":61,"Duration":503235,"SoundDuration":503235,"Delta":52773005},{"NoteNumber":78,"Velocity":61,"Duration":1035648,"SoundDuration":1035648,"Delta":52773005},{"NoteNumber":57,"Velocity":50,"Duration":1686598,"SoundDuration":1686598,"Delta":52773005},{"NoteNumber":66,"Velocity":50,"Duration":276256,"SoundDuration":276256,"Delta":52773005},{"NoteNumber":67,"Velocity":47,"Duration":277506,"SoundDuration":277506,"Delta":53024051},{"NoteNumber":69,"Velocity":52,"Duration":281250,"SoundDuration":281250,"Delta":53276241},{"NoteNumber":71,"Velocity":51,"Duration":279069,"SoundDuration":279069,"Delta":53529584},{"NoteNumber":71,"Velocity":48,"Duration":340605,"SoundDuration":340605,"Delta":53808654},{"NoteNumber":76,"Velocity":48,"Duration":1340605,"SoundDuration":1340605,"Delta":53808654},{"NoteNumber":67,"Velocity":41,"Duration":1340605,"SoundDuration":1340605,"Delta":53808654},{"NoteNumber":73,"Velocity":48,"Duration":379310,"SoundDuration":379310,"Delta":54114777},{"NoteNumber":73,"Velocity":46,"Duration":689655,"SoundDuration":689655,"Delta":54459604},{"NoteNumber":62,"Velocity":43,"Duration":1379309,"SoundDuration":1379309,"Delta":54459604},{"NoteNumber":74,"Velocity":38,"Duration":689654,"SoundDuration":689654,"Delta":55149259},{"NoteNumber":66,"Velocity":35,"Duration":689654,"SoundDuration":689654,"Delta":55149259}],"license":{"name":"Creative Commons Attribution-ShareAlike 3.0 Germany","url":"http://creativecommons.org/licenses/by-sa/3.0/de/deed.en","text":"The MIDI, audio (MP3, OGG) and video files of Bernd Krueger are licensed under the cc-by-sa Germany License. This means that you can use and adapt the files, as long as you attribute the copyright holder.\n\nName: Bernd Krueger\nSource: http://www.piano-midi.de\n\nThe distribution or public playback of the files is only allowed under identical license conditions.\n\nThe scores are open source.","attribution":"MIDI files by Bernd Krueger (piano-midi.de)","attributionUrl":"http://www.piano-midi.de"}}