{"title":"Kreisleriana, Op. 16 No. 3","artist":"Schumann","durationMs":252817,"midiSha256":"2beb3419f38462faa58a6b10c4c307191a753ff3265cea7de3e14addbec0ed56","midiObject":[{"NoteNumber":50,"Velocity":46,"Duration":63025,"SoundDuration":63025,"Delta":0},{"NoteNumber":55,"Velocity":50,"Duration":75471,"SoundDuration":75471,"Delta":252101},{"NoteNumber":43,"Velocity":50,"Duration":1479630,"SoundDuration":1479630,"Delta":252101},{"NoteNumber":31,"Velocity":42,"Duration":1479630,"SoundDuration":1479630,"Delta":252101},{"NoteNumber":50,"Velocity":36,"Duration":75471,"SoundDuration":75471,"Delta":327573},{"NoteNumber":57,"Velocity":36,"Duration":75301,"SoundDuration":75301,"Delta":403045},{"NoteNumber":58,"Velocity":50,"Duration":66666,"SoundDuration":66666,"Delta":478346},{"NoteNumber":57,"Velocity":50,"Duration":75757,"SoundDuration":75757,"Delta":745013},{"NoteNumber":50,"Velocity":36,"Duration":75757,"SoundDuration":75757,"Delta":820770},{"NoteNumber":58,"Velocity":36,"Duration":75757,"SoundDuration":75757,"Delta":896528},{"NoteNumber":60,"Velocity":50,"Duration":66964,"SoundDuration":66964,"Delta":972285},{"NoteNumber":58,"Velocity":50,"Duration":75757,"SoundDuration":75757,"Delta":1240142},{"NoteNumber":50,"Velocity":35,"Duration":75757,"SoundDuration":75757,"Delta":1315900},{"NoteNumber":60,"Velocity":35,"Duration":75757,"SoundDuration":75757,"Delta":1391657},{"NoteNumber":62,"Velocity":50,"Duration":66079,"SoundDuration":66079,"Delta":1467415},{"NoteNumber":55,"Velocity":50,"Duration":75757,"SoundDuration":75757,"Delta":1731732},{"NoteNumber":50,"Velocity":36,"Duration":75757,"SoundDuration":75757,"Delta":1807489},{"NoteNumber":57,"Velocity":36,"Duration":75757,"SoundDuration":75757,"Delta":1883247},{"NoteNumber":58,"Velocity":50,"Duration":66079,"SoundDuration":66079,"Delta":1959004},{"NoteNumber":34,"Velocity":37,"Duration":66079,"SoundDuration":66079,"Delta":1959004},{"NoteNumber":46,"Velocity":44,"Duration":66079,"SoundDuration":66079,"Delta":1959004},{"NoteNumber":57,"Velocity":50,"Duration":75757,"SoundDuration":75757,"Delta":2223321},{"NoteNumber":48,"Velocity":50,"Duration":113636,"SoundDuration":113636,"Delta":2223321},{"NoteNumber":36,"Velocity":42,"Duration":113636,"SoundDuration":113636,"Delta":2223321},{"NoteNumber":51,"Velocity":38,"Duration":75757,"SoundDuration":75757,"Delta":2299079},{"NoteNumber":58,"Velocity":38,"Duration":75757,"SoundDuration":75757,"Delta":2374836},{"NoteNumber":60,"Velocity":50,"Duration":65789,"SoundDuration":65789,"Delta":2450594},{"NoteNumber":54,"Velocity":50,"Duration":76045,"SoundDuration":76045,"Delta":2713752},{"NoteNumber":38,"Velocity":40,"Duration":114068,"SoundDuration":114068,"Delta":2713752},{"NoteNumber":50,"Velocity":48,"Duration":114068,"SoundDuration":114068,"Delta":2713752},{"NoteNumber":48,"Velocity":40,"Duration":76045,"SoundDuration":76045,"Delta":2789797},{"NoteNumber":55,"Velocity":40,"Duration":76045,"SoundDuration":76045,"Delta":2865843},{"NoteNumber":57,"Velocity":50,"Duration":65217,"SoundDuration":65217,"Delta":2941889},{"NoteNumber":55,"Velocity":50,"Duration":76045,"SoundDuration":76045,"Delta":3202758},{"NoteNumber":43,"Velocity":50,"Duration":228137,"SoundDuration":228137,"Delta":3202758},{"NoteNumber":31,"Velocity":42,"Duration":228137,"SoundDuration":228137,"Delta":3202758},{"NoteNumber":50,"Velocity":40,"Duration":76045,"SoundDuration":76045,"Delta":3278804},{"NoteNumber":57,"Velocity":41,"Duration":76045,"SoundDuration":76045,"Delta":3354849},{"NoteNumber":58,"Velocity":50,"Duration":64935,"SoundDuration":64935,"Delta":3430895},{"NoteNumber":57,"Velocity":50,"Duration":119047,"SoundDuration":119047,"Delta":3690636},{"NoteNumber":54,"Velocity":44,"Duration":59523,"SoundDuration":59523,"Delta":3869207},{"NoteNumber":50,"Velocity":58,"Duration":63025,"SoundDuration":63025,"Delta":3928731},{"NoteNumber":38,"Velocity":47,"Duration":63025,"SoundDuration":63025,"Delta":3928731},{"NoteNumber":55,"Velocity":50,"Duration":75471,"SoundDuration":75471,"Delta":4180832},{"NoteNumber":43,"Velocity":50,"Duration":1479800,"SoundDuration":1479800,"Delta":4180832},{"NoteNumber":31,"Velocity":42,"Duration":1479800,"SoundDuration":1479800,"Delta":4180832},{"NoteNumber":50,"Velocity":38,"Duration":75471,"SoundDuration":75471,"Delta":4256303},{"NoteNumber":57,"Velocity":38,"Duration":75471,"SoundDuration":75471,"Delta":4331775},{"NoteNumber":58,"Velocity":50,"Duration":66666,"SoundDuration":66666,"Delta":4407247},{"NoteNumber":57,"Velocity":50,"Duration":75757,"SoundDuration":75757,"Delta":4673913},{"NoteNumber":50,"Velocity":38,"Duration":75757,"SoundDuration":75757,"Delta":4749671},{"NoteNumber":58,"Velocity":38,"Duration":75757,"SoundDuration":75757,"Delta":4825428},{"NoteNumber":60,"Velocity":50,"Duration":66964,"SoundDuration":66964,"Delta":4901186},{"NoteNumber":58,"Velocity":50,"Duration":75757,"SoundDuration":75757,"Delta":5169043},{"NoteNumber":50,"Velocity":37,"Duration":75757,"SoundDuration":75757,"Delta":5244800},{"NoteNumber":60,"Velocity":37,"Duration":75757,"SoundDuration":75757,"Delta":5320558},{"NoteNumber":62,"Velocity":50,"Duration":66079,"SoundDuration":66079,"Delta":5396315},{"NoteNumber":55,"Velocity":50,"Duration":75757,"SoundDuration":75757,"Delta":5660632},{"NoteNumber":50,"Velocity":40,"Duration":75757,"SoundDuration":75757,"Delta":5736390},{"NoteNumber":57,"Velocity":40,"Duration":75757,"SoundDuration":75757,"Delta":5812147},{"NoteNumber":58,"Velocity":50,"Duration":66079,"SoundDuration":66079,"Delta":5887905},{"NoteNumber":46,"Velocity":44,"Duration":66079,"SoundDuration":66079,"Delta":5887905},{"NoteNumber":34,"Velocity":37,"Duration":66079,"SoundDuration":66079,"Delta":5887905},{"NoteNumber":57,"Velocity":50,"Duration":75757,"SoundDuration":75757,"Delta":6152222},{"NoteNumber":48,"Velocity":50,"Duration":113636,"SoundDuration":113636,"Delta":6152222},{"NoteNumber":36,"Velocity":42,"Duration":113636,"SoundDuration":113636,"Delta":6152222},{"NoteNumber":51,"Velocity":40,"Duration":75757,"SoundDuration":75757,"Delta":6227979},{"NoteNumber":58,"Velocity":40,"Duration":75757,"SoundDuration":75757,"Delta":6303737},{"NoteNumber":60,"Velocity":50,"Duration":65789,"SoundDuration":65789,"Delta":6379494},{"NoteNumber":59,"Velocity":50,"Duration":76045,"SoundDuration":76045,"Delta":6642652},{"NoteNumber":38,"Velocity":40,"Duration":114068,"SoundDuration":114068,"Delta":6642652},{"NoteNumber":50,"Velocity":48,"Duration":114068,"SoundDuration":114068,"Delta":6642652},{"NoteNumber":50,"Velocity":39,"Duration":76045,"SoundDuration":76045,"Delta":6718698},{"NoteNumber":60,"Velocity":40,"Duration":76045,"SoundDuration":76045,"Delta":6794743},{"NoteNumber":62,"Velocity":50,"Duration":65217,"SoundDuration":65217,"Delta":6870789},{"NoteNumber":60,"Velocity":50,"Duration":76045,"SoundDuration":76045,"Delta":7131659},{"NoteNumber":39,"Velocity":42,"Duration":228137,"SoundDuration":228137,"Delta":7131659},{"NoteNumber":51,"Velocity":50,"Duration":228137,"SoundDuration":228137,"Delta":7131659},{"NoteNumber":55,"Velocity":41,"Duration":76045,"SoundDuration":76045,"Delta":7207704},{"NoteNumber":62,"Velocity":41,"Duration":76045,"SoundDuration":76045,"Delta":7283750},{"NoteNumber":63,"Velocity":50,"Duration":60240,"SoundDuration":60240,"Delta":7359796},{"NoteNumber":59,"Velocity":54,"Duration":71942,"SoundDuration":71942,"Delta":7600760},{"NoteNumber":53,"Velocity":45,"Duration":71942,"SoundDuration":71942,"Delta":7672702},{"NoteNumber":60,"Velocity":45,"Duration":71942,"SoundDuration":71942,"Delta":7744645},{"NoteNumber":62,"Velocity":56,"Duration":63829,"SoundDuration":63829,"Delta":7816587},{"NoteNumber":38,"Velocity":35,"Duration":127659,"SoundDuration":127659,"Delta":7816587},{"NoteNumber":50,"Velocity":42,"Duration":127659,"SoundDuration":127659,"Delta":7816587},{"NoteNumber":60,"Velocity":59,"Duration":75757,"SoundDuration":75757,"Delta":8071906},{"NoteNumber":39,"Velocity":46,"Duration":113636,"SoundDuration":113636,"Delta":8071906},{"NoteNumber":51,"Velocity":55,"Duration":113636,"SoundDuration":113636,"Delta":8071906},{"NoteNumber":55,"Velocity":48,"Duration":75757,"SoundDuration":75757,"Delta":8147664},{"NoteNumber":62,"Velocity":48,"Duration":75757,"SoundDuration":75757,"Delta":8223421},{"NoteNumber":63,"Velocity":59,"Duration":65789,"SoundDuration":65789,"Delta":8299179},{"NoteNumber":63,"Velocity":63,"Duration":76045,"SoundDuration":76045,"Delta":8562337},{"NoteNumber":36,"Velocity":48,"Duration":114068,"SoundDuration":114068,"Delta":8562337},{"NoteNumber":48,"Velocity":57,"Duration":114068,"SoundDuration":114068,"Delta":8562337},{"NoteNumber":55,"Velocity":51,"Duration":76045,"SoundDuration":76045,"Delta":8638382},{"NoteNumber":65,"Velocity":51,"Duration":76045,"SoundDuration":76045,"Delta":8714428},{"NoteNumber":67,"Velocity":61,"Duration":65217,"SoundDuration":65217,"Delta":8790474},{"NoteNumber":66,"Velocity":70,"Duration":75757,"SoundDuration":75757,"Delta":9051343},{"NoteNumber":38,"Velocity":50,"Duration":227272,"SoundDuration":227272,"Delta":9051343},{"NoteNumber":50,"Velocity":59,"Duration":227272,"SoundDuration":227272,"Delta":9051343},{"NoteNumber":54,"Velocity":53,"Duration":75757,"SoundDuration":75757,"Delta":9127101},{"NoteNumber":67,"Velocity":54,"Duration":75757,"SoundDuration":75757,"Delta":9202858},{"NoteNumber":69,"Velocity":66,"Duration":65789,"SoundDuration":65789,"Delta":9278616},{"NoteNumber":62,"Velocity":67,"Duration":65789,"SoundDuration":65789,"Delta":9541774},{"NoteNumber":62,"Velocity":64,"Duration":63025,"SoundDuration":63025,"Delta":9804932},{"NoteNumber":50,"Velocity":61,"Duration":63025,"SoundDuration":63025,"Delta":9804932},{"NoteNumber":67,"Velocity":64,"Duration":79491,"SoundDuration":79491,"Delta":10057033},{"NoteNumber":43,"Velocity":64,"Duration":1039709,"SoundDuration":1039709,"Delta":10057033},{"NoteNumber":46,"Velocity":64,"Duration":520694,"SoundDuration":520694,"Delta":10057033},{"NoteNumber":55,"Velocity":76,"Duration":520694,"SoundDuration":520694,"Delta":10057033},{"NoteNumber":62,"Velocity":48,"Duration":79491,"SoundDuration":79491,"Delta":10136524},{"NoteNumber":69,"Velocity":48,"Duration":79491,"SoundDuration":79491,"Delta":10216015},{"NoteNumber":70,"Velocity":64,"Duration":70555,"SoundDuration":70555,"Delta":10295507},{"NoteNumber":69,"Velocity":64,"Duration":79808,"SoundDuration":79808,"Delta":10577727},{"NoteNumber":50,"Velocity":68,"Duration":519015,"SoundDuration":519015,"Delta":10577727},{"NoteNumber":57,"Velocity":80,"Duration":519015,"SoundDuration":519015,"Delta":10577727},{"NoteNumber":62,"Velocity":50,"Duration":79808,"SoundDuration":79808,"Delta":10657535},{"NoteNumber":70,"Velocity":50,"Duration":79808,"SoundDuration":79808,"Delta":10737344},{"NoteNumber":72,"Velocity":64,"Duration":69897,"SoundDuration":69897,"Delta":10817152},{"NoteNumber":70,"Velocity":64,"Duration":79491,"SoundDuration":79491,"Delta":11096742},{"NoteNumber":58,"Velocity":84,"Duration":511698,"SoundDuration":511698,"Delta":11096742},{"NoteNumber":55,"Velocity":71,"Duration":511698,"SoundDuration":511698,"Delta":11096742},{"NoteNumber":62,"Velocity":49,"Duration":79491,"SoundDuration":79491,"Delta":11176233},{"NoteNumber":72,"Velocity":49,"Duration":79491,"SoundDuration":79491,"Delta":11255725},{"NoteNumber":74,"Velocity":64,"Duration":68305,"SoundDuration":68305,"Delta":11335216},{"NoteNumber":67,"Velocity":64,"Duration":78554,"SoundDuration":78554,"Delta":11608440},{"NoteNumber":62,"Velocity":50,"Duration":78554,"SoundDuration":78554,"Delta":11686995},{"NoteNumber":69,"Velocity":52,"Duration":78554,"SoundDuration":78554,"Delta":11765549},{"NoteNumber":70,"Velocity":64,"Duration":68305,"SoundDuration":68305,"Delta":11844104},{"NoteNumber":55,"Velocity":72,"Duration":68305,"SoundDuration":68305,"Delta":11844104},{"NoteNumber":46,"Velocity":61,"Duration":68305,"SoundDuration":68305,"Delta":11844104},{"NoteNumber":69,"Velocity":64,"Duration":79176,"SoundDuration":79176,"Delta":12117328},{"NoteNumber":57,"Velocity":79,"Duration":509515,"SoundDuration":509515,"Delta":12117328},{"NoteNumber":55,"Velocity":67,"Duration":509515,"SoundDuration":509515,"Delta":12117328},{"NoteNumber":48,"Velocity":67,"Duration":509515,"SoundDuration":509515,"Delta":12117328},{"NoteNumber":63,"Velocity":52,"Duration":79176,"SoundDuration":79176,"Delta":12196505},{"NoteNumber":70,"Velocity":52,"Duration":79176,"SoundDuration":79176,"Delta":12275681},{"NoteNumber":72,"Velocity":64,"Duration":67996,"SoundDuration":67996,"Delta":12354858},{"NoteNumber":66,"Velocity":64,"Duration":79808,"SoundDuration":79808,"Delta":12626843},{"NoteNumber":62,"Velocity":77,"Duration":511410,"SoundDuration":511410,"Delta":12626843},{"NoteNumber":54,"Velocity":66,"Duration":511410,"SoundDuration":511410,"Delta":12626843},{"NoteNumber":50,"Velocity":61,"Duration":511410,"SoundDuration":511410,"Delta":12626843},{"NoteNumber":60,"Velocity":51,"Duration":79808,"SoundDuration":79808,"Delta":12706652},{"NoteNumber":67,"Velocity":51,"Duration":79808,"SoundDuration":79808,"Delta":12786460},{"NoteNumber":69,"Velocity":64,"Duration":67996,"SoundDuration":67996,"Delta":12866269},{"NoteNumber":67,"Velocity":64,"Duration":78554,"SoundDuration":78554,"Delta":13138254},{"NoteNumber":55,"Velocity":81,"Duration":478578,"SoundDuration":478578,"Delta":13138254},{"NoteNumber":43,"Velocity":68,"Duration":478578,"SoundDuration":478578,"Delta":13138254},{"NoteNumber":46,"Velocity":68,"Duration":478578,"SoundDuration":478578,"Delta":13138254},{"NoteNumber":62,"Velocity":54,"Duration":78554,"SoundDuration":78554,"Delta":13216809},{"NoteNumber":69,"Velocity":54,"Duration":78554,"SoundDuration":78554,"Delta":13295363},{"NoteNumber":70,"Velocity":64,"Duration":60728,"SoundDuration":60728,"Delta":13373918},{"NoteNumber":69,"Velocity":64,"Duration":117831,"SoundDuration":117831,"Delta":13616833},{"NoteNumber":66,"Velocity":52,"Duration":58915,"SoundDuration":58915,"Delta":13793581},{"NoteNumber":62,"Velocity":71,"Duration":63025,"SoundDuration":63025,"Delta":13852497},{"NoteNumber":50,"Velocity":81,"Duration":63025,"SoundDuration":63025,"Delta":13852497},{"NoteNumber":67,"Velocity":64,"Duration":79491,"SoundDuration":79491,"Delta":14104598},{"NoteNumber":43,"Velocity":68,"Duration":1019906,"SoundDuration":1019906,"Delta":14104598},{"NoteNumber":46,"Velocity":68,"Duration":508015,"SoundDuration":508015,"Delta":14104598},{"NoteNumber":55,"Velocity":80,"Duration":508015,"SoundDuration":508015,"Delta":14104598},{"NoteNumber":62,"Velocity":49,"Duration":79491,"SoundDuration":79491,"Delta":14184089},{"NoteNumber":69,"Velocity":50,"Duration":79491,"SoundDuration":79491,"Delta":14263581},{"NoteNumber":70,"Velocity":64,"Duration":67385,"SoundDuration":67385,"Delta":14343072},{"NoteNumber":69,"Velocity":64,"Duration":80128,"SoundDuration":80128,"Delta":14612614},{"NoteNumber":50,"Velocity":68,"Duration":511890,"SoundDuration":511890,"Delta":14612614},{"NoteNumber":57,"Velocity":81,"Duration":511890,"SoundDuration":511890,"Delta":14612614},{"NoteNumber":62,"Velocity":51,"Duration":79968,"SoundDuration":79968,"Delta":14692742},{"NoteNumber":70,"Velocity":52,"Duration":79808,"SoundDuration":79808,"Delta":14772711},{"NoteNumber":72,"Velocity":64,"Duration":67996,"SoundDuration":67996,"Delta":14852519},{"NoteNumber":70,"Velocity":64,"Duration":80128,"SoundDuration":80128,"Delta":15124505},{"NoteNumber":58,"Velocity":85,"Duration":501027,"SoundDuration":501027,"Delta":15124505},{"NoteNumber":55,"Velocity":72,"Duration":501027,"SoundDuration":501027,"Delta":15124505},{"NoteNumber":62,"Velocity":55,"Duration":80128,"SoundDuration":80128,"Delta":15204633},{"NoteNumber":72,"Velocity":55,"Duration":80128,"SoundDuration":80128,"Delta":15284761},{"NoteNumber":74,"Velocity":64,"Duration":65160,"SoundDuration":65160,"Delta":15364889},{"NoteNumber":75,"Velocity":71,"Duration":73942,"SoundDuration":73942,"Delta":15625532},{"NoteNumber":67,"Velocity":56,"Duration":73942,"SoundDuration":73942,"Delta":15699475},{"NoteNumber":77,"Velocity":56,"Duration":73942,"SoundDuration":73942,"Delta":15773417},{"NoteNumber":79,"Velocity":64,"Duration":66079,"SoundDuration":66079,"Delta":15847360},{"NoteNumber":51,"Velocity":53,"Duration":66079,"SoundDuration":66079,"Delta":15847360},{"NoteNumber":39,"Velocity":45,"Duration":66079,"SoundDuration":66079,"Delta":15847360},{"NoteNumber":69,"Velocity":59,"Duration":77821,"SoundDuration":77821,"Delta":16111677},{"NoteNumber":41,"Velocity":62,"Duration":116731,"SoundDuration":116731,"Delta":16111677},{"NoteNumber":53,"Velocity":74,"Duration":116731,"SoundDuration":116731,"Delta":16111677},{"NoteNumber":60,"Velocity":47,"Duration":77821,"SoundDuration":77821,"Delta":16189498},{"NoteNumber":70,"Velocity":47,"Duration":77821,"SoundDuration":77821,"Delta":16267319},{"NoteNumber":72,"Velocity":59,"Duration":65445,"SoundDuration":65445,"Delta":16345140},{"NoteNumber":74,"Velocity":71,"Duration":74738,"SoundDuration":74738,"Delta":16606920},{"NoteNumber":34,"Velocity":55,"Duration":112107,"SoundDuration":112107,"Delta":16606920},{"NoteNumber":46,"Velocity":65,"Duration":112107,"SoundDuration":112107,"Delta":16606920},{"NoteNumber":65,"Velocity":52,"Duration":74738,"SoundDuration":74738,"Delta":16681658},{"NoteNumber":75,"Velocity":55,"Duration":74738,"SoundDuration":74738,"Delta":16756397},{"NoteNumber":77,"Velocity":65,"Duration":65217,"SoundDuration":65217,"Delta":16831135},{"NoteNumber":67,"Velocity":59,"Duration":77821,"SoundDuration":77821,"Delta":17092005},{"NoteNumber":51,"Velocity":75,"Duration":233463,"SoundDuration":233463,"Delta":17092005},{"NoteNumber":39,"Velocity":63,"Duration":233463,"SoundDuration":233463,"Delta":17092005},{"NoteNumber":58,"Velocity":44,"Duration":77821,"SoundDuration":77821,"Delta":17169826},{"NoteNumber":69,"Velocity":44,"Duration":77821,"SoundDuration":77821,"Delta":17247647},{"NoteNumber":70,"Velocity":59,"Duration":63505,"SoundDuration":63505,"Delta":17325468},{"NoteNumber":72,"Velocity":68,"Duration":74217,"SoundDuration":74217,"Delta":17579490},{"NoteNumber":63,"Velocity":51,"Duration":74217,"SoundDuration":74217,"Delta":17653707},{"NoteNumber":74,"Velocity":51,"Duration":74216,"SoundDuration":74216,"Delta":17727924},{"NoteNumber":75,"Velocity":66,"Duration":63829,"SoundDuration":63829,"Delta":17802141},{"NoteNumber":45,"Velocity":81,"Duration":255319,"SoundDuration":255319,"Delta":17802141},{"NoteNumber":33,"Velocity":68,"Duration":255319,"SoundDuration":255319,"Delta":17802141},{"NoteNumber":66,"Velocity":59,"Duration":76923,"SoundDuration":76923,"Delta":18057460},{"NoteNumber":50,"Velocity":74,"Duration":493926,"SoundDuration":493926,"Delta":18057460},{"NoteNumber":38,"Velocity":62,"Duration":493926,"SoundDuration":493926,"Delta":18057460},{"NoteNumber":57,"Velocity":45,"Duration":76923,"SoundDuration":76923,"Delta":18134383},{"NoteNumber":67,"Velocity":45,"Duration":76922,"SoundDuration":76922,"Delta":18211306},{"NoteNumber":69,"Velocity":58,"Duration":65789,"SoundDuration":65789,"Delta":18288229},{"NoteNumber":72,"Velocity":66,"Duration":76045,"SoundDuration":76045,"Delta":18551387},{"NoteNumber":63,"Velocity":50,"Duration":76045,"SoundDuration":76045,"Delta":18627432},{"NoteNumber":74,"Velocity":51,"Duration":76045,"SoundDuration":76045,"Delta":18703478},{"NoteNumber":75,"Velocity":65,"Duration":65217,"SoundDuration":65217,"Delta":18779524},{"NoteNumber":32,"Velocity":65,"Duration":260869,"SoundDuration":260869,"Delta":18779524},{"NoteNumber":44,"Velocity":77,"Duration":260869,"SoundDuration":260869,"Delta":18779524},{"NoteNumber":66,"Velocity":62,"Duration":76335,"SoundDuration":76335,"Delta":19040393},{"NoteNumber":50,"Velocity":68,"Duration":492165,"SoundDuration":492165,"Delta":19040393},{"NoteNumber":38,"Velocity":57,"Duration":492165,"SoundDuration":492165,"Delta":19040393},{"NoteNumber":57,"Velocity":47,"Duration":76335,"SoundDuration":76335,"Delta":19116729},{"NoteNumber":67,"Velocity":51,"Duration":76335,"SoundDuration":76335,"Delta":19193065},{"NoteNumber":69,"Velocity":60,"Duration":65789,"SoundDuration":65789,"Delta":19269401},{"NoteNumber":72,"Velocity":66,"Duration":76045,"SoundDuration":76045,"Delta":19532559},{"NoteNumber":63,"Velocity":53,"Duration":76045,"SoundDuration":76045,"Delta":19608604},{"NoteNumber":74,"Velocity":50,"Duration":76045,"SoundDuration":76045,"Delta":19684650},{"NoteNumber":75,"Velocity":65,"Duration":65217,"SoundDuration":65217,"Delta":19760696},{"NoteNumber":33,"Velocity":65,"Duration":260869,"SoundDuration":260869,"Delta":19760696},{"NoteNumber":45,"Velocity":77,"Duration":260869,"SoundDuration":260869,"Delta":19760696},{"NoteNumber":66,"Velocity":66,"Duration":76628,"SoundDuration":76628,"Delta":20021565},{"NoteNumber":50,"Velocity":68,"Duration":999722,"SoundDuration":999722,"Delta":20021565},{"NoteNumber":38,"Velocity":57,"Duration":1502421,"SoundDuration":1502421,"Delta":20021565},{"NoteNumber":57,"Velocity":51,"Duration":76628,"SoundDuration":76628,"Delta":20098193},{"NoteNumber":67,"Velocity":51,"Duration":76628,"SoundDuration":76628,"Delta":20174822},{"NoteNumber":69,"Velocity":64,"Duration":65789,"SoundDuration":65789,"Delta":20251450},{"NoteNumber":60,"Velocity":59,"Duration":78591,"SoundDuration":78591,"Delta":20514608},{"NoteNumber":57,"Velocity":47,"Duration":78591,"SoundDuration":78591,"Delta":20593200},{"NoteNumber":62,"Velocity":45,"Duration":78591,"SoundDuration":78591,"Delta":20671791},{"NoteNumber":63,"Velocity":56,"Duration":67726,"SoundDuration":67726,"Delta":20750383},{"NoteNumber":54,"Velocity":54,"Duration":79846,"SoundDuration":79846,"Delta":21021288},{"NoteNumber":50,"Velocity":38,"Duration":79846,"SoundDuration":79846,"Delta":21101135},{"NoteNumber":55,"Velocity":38,"Duration":79846,"SoundDuration":79846,"Delta":21180981},{"NoteNumber":57,"Velocity":52,"Duration":65789,"SoundDuration":65789,"Delta":21260828},{"NoteNumber":50,"Velocity":50,"Duration":65789,"SoundDuration":65789,"Delta":21523986},{"NoteNumber":50,"Velocity":52,"Duration":63025,"SoundDuration":63025,"Delta":21787144},{"NoteNumber":38,"Velocity":52,"Duration":63025,"SoundDuration":63025,"Delta":21787144},{"NoteNumber":55,"Velocity":50,"Duration":77676,"SoundDuration":77676,"Delta":22039245},{"NoteNumber":31,"Velocity":42,"Duration":1496127,"SoundDuration":1496127,"Delta":22039245},{"NoteNumber":43,"Velocity":50,"Duration":1496127,"SoundDuration":1496127,"Delta":22039245},{"NoteNumber":50,"Velocity":37,"Duration":77676,"SoundDuration":77676,"Delta":22116921},{"NoteNumber":57,"Velocity":37,"Duration":77676,"SoundDuration":77676,"Delta":22194597},{"NoteNumber":58,"Velocity":50,"Duration":66666,"SoundDuration":66666,"Delta":22272273},{"NoteNumber":57,"Velocity":50,"Duration":77676,"SoundDuration":77676,"Delta":22538940},{"NoteNumber":50,"Velocity":38,"Duration":77676,"SoundDuration":77676,"Delta":22616616},{"NoteNumber":58,"Velocity":38,"Duration":77676,"SoundDuration":77676,"Delta":22694292},{"NoteNumber":60,"Velocity":50,"Duration":66964,"SoundDuration":66964,"Delta":22771968},{"NoteNumber":58,"Velocity":50,"Duration":77077,"SoundDuration":77077,"Delta":23039825},{"NoteNumber":50,"Velocity":37,"Duration":77077,"SoundDuration":77077,"Delta":23116902},{"NoteNumber":60,"Velocity":39,"Duration":77077,"SoundDuration":77077,"Delta":23193979},{"NoteNumber":62,"Velocity":51,"Duration":66079,"SoundDuration":66079,"Delta":23271056},{"NoteNumber":55,"Velocity":52,"Duration":75757,"SoundDuration":75757,"Delta":23535373},{"NoteNumber":50,"Velocity":40,"Duration":75757,"SoundDuration":75757,"Delta":23611131},{"NoteNumber":57,"Velocity":40,"Duration":75757,"SoundDuration":75757,"Delta":23686888},{"NoteNumber":58,"Velocity":53,"Duration":66079,"SoundDuration":66079,"Delta":23762646},{"NoteNumber":46,"Velocity":47,"Duration":66079,"SoundDuration":66079,"Delta":23762646},{"NoteNumber":34,"Velocity":39,"Duration":66079,"SoundDuration":66079,"Delta":23762646},{"NoteNumber":57,"Velocity":55,"Duration":75757,"SoundDuration":75757,"Delta":24026963},{"NoteNumber":36,"Velocity":46,"Duration":490430,"SoundDuration":490430,"Delta":24026963},{"NoteNumber":48,"Velocity":55,"Duration":490430,"SoundDuration":490430,"Delta":24026963},{"NoteNumber":51,"Velocity":42,"Duration":75757,"SoundDuration":75757,"Delta":24102720},{"NoteNumber":58,"Velocity":42,"Duration":75757,"SoundDuration":75757,"Delta":24178478},{"NoteNumber":60,"Velocity":56,"Duration":65789,"SoundDuration":65789,"Delta":24254235},{"NoteNumber":59,"Velocity":57,"Duration":76045,"SoundDuration":76045,"Delta":24517393},{"NoteNumber":38,"Velocity":46,"Duration":489006,"SoundDuration":489006,"Delta":24517393},{"NoteNumber":50,"Velocity":55,"Duration":489006,"SoundDuration":489006,"Delta":24517393},{"NoteNumber":53,"Velocity":44,"Duration":76045,"SoundDuration":76045,"Delta":24593439},{"NoteNumber":60,"Velocity":49,"Duration":76045,"SoundDuration":76045,"Delta":24669484},{"NoteNumber":62,"Velocity":58,"Duration":65217,"SoundDuration":65217,"Delta":24745530},{"NoteNumber":60,"Velocity":60,"Duration":75757,"SoundDuration":75757,"Delta":25006400},{"NoteNumber":51,"Velocity":60,"Duration":151514,"SoundDuration":151514,"Delta":25006400},{"NoteNumber":39,"Velocity":50,"Duration":468236,"SoundDuration":468236,"Delta":25006400},{"NoteNumber":51,"Velocity":48,"Duration":392479,"SoundDuration":392479,"Delta":25082157},{"NoteNumber":62,"Velocity":49,"Duration":75757,"SoundDuration":75757,"Delta":25157915},{"NoteNumber":63,"Velocity":61,"Duration":60241,"SoundDuration":60241,"Delta":25233672},{"NoteNumber":59,"Velocity":62,"Duration":76045,"SoundDuration":76045,"Delta":25474636},{"NoteNumber":53,"Velocity":53,"Duration":76045,"SoundDuration":76045,"Delta":25550682},{"NoteNumber":60,"Velocity":54,"Duration":76045,"SoundDuration":76045,"Delta":25626727},{"NoteNumber":62,"Velocity":63,"Duration":65217,"SoundDuration":65217,"Delta":25702773},{"NoteNumber":38,"Velocity":50,"Duration":130434,"SoundDuration":130434,"Delta":25702773},{"NoteNumber":50,"Velocity":60,"Duration":130434,"SoundDuration":130434,"Delta":25702773},{"NoteNumber":60,"Velocity":65,"Duration":75757,"SoundDuration":75757,"Delta":25963643},{"NoteNumber":48,"Velocity":65,"Duration":462566,"SoundDuration":462566,"Delta":25963643},{"NoteNumber":36,"Velocity":54,"Duration":462566,"SoundDuration":462566,"Delta":25963643},{"NoteNumber":55,"Velocity":55,"Duration":75757,"SoundDuration":75757,"Delta":26039400},{"NoteNumber":62,"Velocity":56,"Duration":75757,"SoundDuration":75757,"Delta":26115158},{"NoteNumber":63,"Velocity":66,"Duration":117647,"SoundDuration":117647,"Delta":26190915},{"NoteNumber":60,"Velocity":63,"Duration":117646,"SoundDuration":117646,"Delta":26308562},{"NoteNumber":62,"Velocity":67,"Duration":76045,"SoundDuration":76045,"Delta":26426209},{"NoteNumber":38,"Velocity":54,"Duration":504634,"SoundDuration":504634,"Delta":26426209},{"NoteNumber":50,"Velocity":64,"Duration":504634,"SoundDuration":504634,"Delta":26426209},{"NoteNumber":55,"Velocity":58,"Duration":76045,"SoundDuration":76045,"Delta":26502255},{"NoteNumber":63,"Velocity":58,"Duration":76045,"SoundDuration":76045,"Delta":26578300},{"NoteNumber":65,"Velocity":68,"Duration":69124,"SoundDuration":69124,"Delta":26654346},{"NoteNumber":64,"Velocity":70,"Duration":79364,"SoundDuration":79364,"Delta":26930844},{"NoteNumber":37,"Velocity":58,"Duration":771633,"SoundDuration":771633,"Delta":26930844},{"NoteNumber":49,"Velocity":70,"Duration":771633,"SoundDuration":771633,"Delta":26930844},{"NoteNumber":55,"Velocity":60,"Duration":79364,"SoundDuration":79364,"Delta":27010209},{"NoteNumber":66,"Velocity":60,"Duration":79365,"SoundDuration":79365,"Delta":27089574},{"NoteNumber":67,"Velocity":70,"Duration":140187,"SoundDuration":140187,"Delta":27168939},{"NoteNumber":67,"Velocity":75,"Duration":84388,"SoundDuration":84388,"Delta":27449313},{"NoteNumber":58,"Velocity":65,"Duration":84388,"SoundDuration":84388,"Delta":27533701},{"NoteNumber":69,"Velocity":64,"Duration":84388,"SoundDuration":84388,"Delta":27618089},{"NoteNumber":70,"Velocity":75,"Duration":159574,"SoundDuration":159574,"Delta":27702477},{"NoteNumber":37,"Velocity":56,"Duration":79787,"SoundDuration":79787,"Delta":27702477},{"NoteNumber":49,"Velocity":67,"Duration":79787,"SoundDuration":79787,"Delta":27702477},{"NoteNumber":62,"Velocity":73,"Duration":552994,"SoundDuration":552994,"Delta":28021626},{"NoteNumber":74,"Velocity":86,"Duration":552994,"SoundDuration":552994,"Delta":28021626},{"NoteNumber":50,"Velocity":85,"Duration":552994,"SoundDuration":552994,"Delta":28021626},{"NoteNumber":38,"Velocity":72,"Duration":552994,"SoundDuration":552994,"Delta":28021626},{"NoteNumber":62,"Velocity":66,"Duration":552994,"SoundDuration":552994,"Delta":28574621},{"NoteNumber":66,"Velocity":78,"Duration":552994,"SoundDuration":552994,"Delta":28574621},{"NoteNumber":57,"Velocity":66,"Duration":552994,"SoundDuration":552994,"Delta":28574621},{"NoteNumber":38,"Velocity":64,"Duration":552994,"SoundDuration":552994,"Delta":28574621},{"NoteNumber":50,"Velocity":77,"Duration":552994,"SoundDuration":552994,"Delta":28574621},{"NoteNumber":64,"Velocity":70,"Duration":78125,"SoundDuration":78125,"Delta":29127616},{"NoteNumber":49,"Velocity":70,"Duration":761115,"SoundDuration":761115,"Delta":29127616},{"NoteNumber":37,"Velocity":58,"Duration":761115,"SoundDuration":761115,"Delta":29127616},{"NoteNumber":55,"Velocity":60,"Duration":78125,"SoundDuration":78125,"Delta":29205741},{"NoteNumber":66,"Velocity":60,"Duration":78125,"SoundDuration":78125,"Delta":29283866},{"NoteNumber":67,"Velocity":70,"Duration":138888,"SoundDuration":138888,"Delta":29361991},{"NoteNumber":67,"Velocity":74,"Duration":82987,"SoundDuration":82987,"Delta":29639769},{"NoteNumber":58,"Velocity":67,"Duration":82987,"SoundDuration":82987,"Delta":29722757},{"NoteNumber":69,"Velocity":70,"Duration":82987,"SoundDuration":82987,"Delta":29805744},{"NoteNumber":70,"Velocity":82,"Duration":186799,"SoundDuration":186799,"Delta":29888732},{"NoteNumber":49,"Velocity":67,"Duration":93399,"SoundDuration":93399,"Delta":29888732},{"NoteNumber":37,"Velocity":56,"Duration":93399,"SoundDuration":93399,"Delta":29888732},{"NoteNumber":74,"Velocity":80,"Duration":604230,"SoundDuration":604230,"Delta":30262331},{"NoteNumber":70,"Velocity":80,"Duration":604230,"SoundDuration":604230,"Delta":30262331},{"NoteNumber":79,"Velocity":94,"Duration":604230,"SoundDuration":604230,"Delta":30262331},{"NoteNumber":38,"Velocity":79,"Duration":604230,"SoundDuration":604230,"Delta":30262331},{"NoteNumber":50,"Velocity":93,"Duration":604230,"SoundDuration":604230,"Delta":30262331},{"NoteNumber":66,"Velocity":72,"Duration":764330,"SoundDuration":764330,"Delta":30866561},{"NoteNumber":74,"Velocity":85,"Duration":764330,"SoundDuration":764330,"Delta":30866561},{"NoteNumber":69,"Velocity":72,"Duration":764330,"SoundDuration":764330,"Delta":30866561},{"NoteNumber":38,"Velocity":70,"Duration":764330,"SoundDuration":764330,"Delta":30866561},{"NoteNumber":50,"Velocity":84,"Duration":764330,"SoundDuration":764330,"Delta":30866561},{"NoteNumber":62,"Velocity":72,"Duration":764330,"SoundDuration":764330,"Delta":31630892},{"NoteNumber":67,"Velocity":85,"Duration":764330,"SoundDuration":764330,"Delta":31630892},{"NoteNumber":58,"Velocity":72,"Duration":764330,"SoundDuration":764330,"Delta":31630892},{"NoteNumber":43,"Velocity":84,"Duration":764330,"SoundDuration":764330,"Delta":31630892},{"NoteNumber":31,"Velocity":70,"Duration":764330,"SoundDuration":764330,"Delta":31630892},{"NoteNumber":53,"Velocity":43,"Duration":371332,"SoundDuration":371332,"Delta":33154776},{"NoteNumber":34,"Velocity":50,"Duration":2184560,"SoundDuration":2184560,"Delta":33159554},{"NoteNumber":46,"Velocity":50,"Duration":2184560,"SoundDuration":2184560,"Delta":33159554},{"NoteNumber":50,"Velocity":30,"Duration":185597,"SoundDuration":185597,"Delta":33345151},{"NoteNumber":55,"Velocity":43,"Duration":371195,"SoundDuration":371195,"Delta":33524562},{"NoteNumber":57,"Velocity":43,"Duration":371195,"SoundDuration":371195,"Delta":33909677},{"NoteNumber":50,"Velocity":36,"Duration":185597,"SoundDuration":185597,"Delta":34087541},{"NoteNumber":58,"Velocity":43,"Duration":367639,"SoundDuration":367639,"Delta":34274685},{"NoteNumber":60,"Velocity":43,"Duration":353958,"SoundDuration":353958,"Delta":34646772},{"NoteNumber":50,"Velocity":31,"Duration":176387,"SoundDuration":176387,"Delta":34818483},{"NoteNumber":62,"Velocity":46,"Duration":349261,"SoundDuration":349261,"Delta":34993405},{"NoteNumber":48,"Velocity":50,"Duration":749510,"SoundDuration":749510,"Delta":35344114},{"NoteNumber":32,"Velocity":50,"Duration":749510,"SoundDuration":749510,"Delta":35344114},{"NoteNumber":63,"Velocity":49,"Duration":343851,"SoundDuration":343851,"Delta":35347010},{"NoteNumber":50,"Velocity":31,"Duration":170666,"SoundDuration":170666,"Delta":35516920},{"NoteNumber":65,"Velocity":56,"Duration":405329,"SoundDuration":405329,"Delta":35684803},{"NoteNumber":47,"Velocity":50,"Duration":2162698,"SoundDuration":2162698,"Delta":36093624},{"NoteNumber":31,"Velocity":50,"Duration":2162698,"SoundDuration":2162698,"Delta":36093624},{"NoteNumber":67,"Velocity":69,"Duration":1403496,"SoundDuration":1403496,"Delta":36126476},{"NoteNumber":50,"Velocity":35,"Duration":181598,"SoundDuration":181598,"Delta":36290733},{"NoteNumber":65,"Velocity":59,"Duration":363196,"SoundDuration":363196,"Delta":36472331},{"NoteNumber":63,"Velocity":56,"Duration":354610,"SoundDuration":354610,"Delta":36835527},{"NoteNumber":50,"Velocity":32,"Duration":177305,"SoundDuration":177305,"Delta":37012832},{"NoteNumber":62,"Velocity":50,"Duration":354610,"SoundDuration":354610,"Delta":37190137},{"NoteNumber":67,"Velocity":59,"Duration":711575,"SoundDuration":711575,"Delta":37544747},{"NoteNumber":60,"Velocity":43,"Duration":355787,"SoundDuration":355787,"Delta":37544747},{"NoteNumber":50,"Velocity":30,"Duration":177893,"SoundDuration":177893,"Delta":37722641},{"NoteNumber":59,"Velocity":41,"Duration":355787,"SoundDuration":355787,"Delta":37900535},{"NoteNumber":57,"Velocity":43,"Duration":351617,"SoundDuration":351617,"Delta":38256322},{"NoteNumber":69,"Velocity":55,"Duration":351742,"SoundDuration":351742,"Delta":38259253},{"NoteNumber":50,"Velocity":30,"Duration":175808,"SoundDuration":175808,"Delta":38432131},{"NoteNumber":71,"Velocity":59,"Duration":394833,"SoundDuration":394833,"Delta":38606475},{"NoteNumber":55,"Velocity":40,"Duration":395133,"SoundDuration":395133,"Delta":38607940},{"NoteNumber":63,"Velocity":60,"Duration":1882966,"SoundDuration":1882966,"Delta":38897171},{"NoteNumber":48,"Velocity":45,"Duration":360057,"SoundDuration":360057,"Delta":39003074},{"NoteNumber":75,"Velocity":69,"Duration":1747059,"SoundDuration":1747059,"Delta":39033078},{"NoteNumber":36,"Velocity":31,"Duration":180028,"SoundDuration":180028,"Delta":39183102},{"NoteNumber":50,"Velocity":42,"Duration":360057,"SoundDuration":360057,"Delta":39363131},{"NoteNumber":51,"Velocity":47,"Duration":353690,"SoundDuration":353690,"Delta":39723189},{"NoteNumber":48,"Velocity":32,"Duration":176845,"SoundDuration":176845,"Delta":39900034},{"NoteNumber":53,"Velocity":42,"Duration":353690,"SoundDuration":353690,"Delta":40076879},{"NoteNumber":55,"Velocity":48,"Duration":349569,"SoundDuration":349569,"Delta":40430569},{"NoteNumber":48,"Velocity":32,"Duration":174784,"SoundDuration":174784,"Delta":40605353},{"NoteNumber":74,"Velocity":51,"Duration":494461,"SoundDuration":494461,"Delta":40780138},{"NoteNumber":57,"Velocity":39,"Duration":349568,"SoundDuration":349568,"Delta":40780138},{"NoteNumber":59,"Velocity":42,"Duration":241270,"SoundDuration":241270,"Delta":41129707},{"NoteNumber":72,"Velocity":55,"Duration":144859,"SoundDuration":144859,"Delta":41274599},{"NoteNumber":60,"Velocity":47,"Duration":248671,"SoundDuration":248671,"Delta":41370977},{"NoteNumber":70,"Velocity":53,"Duration":149073,"SoundDuration":149073,"Delta":41419459},{"NoteNumber":69,"Velocity":51,"Duration":160835,"SoundDuration":160835,"Delta":41568533},{"NoteNumber":62,"Velocity":52,"Duration":310654,"SoundDuration":310654,"Delta":41619648},{"NoteNumber":67,"Velocity":50,"Duration":200934,"SoundDuration":200934,"Delta":41729368},{"NoteNumber":57,"Velocity":57,"Duration":1432454,"SoundDuration":1432454,"Delta":41930303},{"NoteNumber":41,"Velocity":57,"Duration":2943095,"SoundDuration":2943095,"Delta":41930303},{"NoteNumber":63,"Velocity":59,"Duration":366658,"SoundDuration":366658,"Delta":41940997},{"NoteNumber":65,"Velocity":59,"Duration":2262459,"SoundDuration":2262459,"Delta":41945580},{"NoteNumber":53,"Velocity":32,"Duration":183329,"SoundDuration":183329,"Delta":42113632},{"NoteNumber":62,"Velocity":53,"Duration":366516,"SoundDuration":366516,"Delta":42300017},{"NoteNumber":60,"Velocity":49,"Duration":349568,"SoundDuration":349568,"Delta":42666533},{"NoteNumber":53,"Velocity":32,"Duration":174784,"SoundDuration":174784,"Delta":42838404},{"NoteNumber":58,"Velocity":48,"Duration":349569,"SoundDuration":349569,"Delta":43002993},{"NoteNumber":57,"Velocity":47,"Duration":349569,"SoundDuration":349569,"Delta":43362758},{"NoteNumber":53,"Velocity":32,"Duration":174784,"SoundDuration":174784,"Delta":43537542},{"NoteNumber":55,"Velocity":43,"Duration":350006,"SoundDuration":350006,"Delta":43712327},{"NoteNumber":53,"Velocity":46,"Duration":182693,"SoundDuration":182693,"Delta":44062333},{"NoteNumber":67,"Velocity":42,"Duration":149333,"SoundDuration":149333,"Delta":44208040},{"NoteNumber":51,"Velocity":45,"Duration":188637,"SoundDuration":188637,"Delta":44245026},{"NoteNumber":69,"Velocity":46,"Duration":155310,"SoundDuration":155310,"Delta":44357373},{"NoteNumber":50,"Velocity":44,"Duration":204033,"SoundDuration":204033,"Delta":44433664},{"NoteNumber":70,"Velocity":50,"Duration":168111,"SoundDuration":168111,"Delta":44512683},{"NoteNumber":48,"Velocity":42,"Duration":235701,"SoundDuration":235701,"Delta":44637697},{"NoteNumber":72,"Velocity":54,"Duration":192603,"SoundDuration":192603,"Delta":44680795},{"NoteNumber":34,"Velocity":34,"Duration":743708,"SoundDuration":743708,"Delta":44873398},{"NoteNumber":46,"Velocity":41,"Duration":743708,"SoundDuration":743708,"Delta":44873398},{"NoteNumber":74,"Velocity":63,"Duration":322316,"SoundDuration":322316,"Delta":44902700},{"NoteNumber":62,"Velocity":32,"Duration":175808,"SoundDuration":175808,"Delta":45049207},{"NoteNumber":72,"Velocity":56,"Duration":392090,"SoundDuration":392090,"Delta":45225016},{"NoteNumber":70,"Velocity":63,"Duration":373505,"SoundDuration":373505,"Delta":45617107},{"NoteNumber":79,"Velocity":65,"Duration":1091892,"SoundDuration":1091892,"Delta":45624888},{"NoteNumber":58,"Velocity":32,"Duration":186752,"SoundDuration":186752,"Delta":45803860},{"NoteNumber":69,"Velocity":54,"Duration":349569,"SoundDuration":349569,"Delta":45990613},{"NoteNumber":67,"Velocity":48,"Duration":368912,"SoundDuration":368912,"Delta":46340182},{"NoteNumber":58,"Velocity":37,"Duration":1385457,"SoundDuration":1385457,"Delta":46524638},{"NoteNumber":65,"Velocity":44,"Duration":368912,"SoundDuration":368912,"Delta":46709095},{"NoteNumber":77,"Velocity":52,"Duration":368912,"SoundDuration":368912,"Delta":46709095},{"NoteNumber":64,"Velocity":47,"Duration":391559,"SoundDuration":391559,"Delta":47078008},{"NoteNumber":76,"Velocity":56,"Duration":208855,"SoundDuration":208855,"Delta":47078008},{"NoteNumber":77,"Velocity":44,"Duration":91352,"SoundDuration":91352,"Delta":47286863},{"NoteNumber":76,"Velocity":35,"Duration":91352,"SoundDuration":91352,"Delta":47378215},{"NoteNumber":62,"Velocity":45,"Duration":220264,"SoundDuration":220264,"Delta":47469567},{"NoteNumber":74,"Velocity":53,"Duration":220264,"SoundDuration":220264,"Delta":47473238},{"NoteNumber":72,"Velocity":48,"Duration":214757,"SoundDuration":214757,"Delta":47691667},{"NoteNumber":60,"Velocity":40,"Duration":219548,"SoundDuration":219548,"Delta":47693503},{"NoteNumber":72,"Velocity":53,"Duration":354610,"SoundDuration":354610,"Delta":47910096},{"NoteNumber":45,"Velocity":41,"Duration":755856,"SoundDuration":755856,"Delta":47910096},{"NoteNumber":60,"Velocity":32,"Duration":177305,"SoundDuration":177305,"Delta":48087401},{"NoteNumber":70,"Velocity":53,"Duration":401246,"SoundDuration":401246,"Delta":48264706},{"NoteNumber":69,"Velocity":49,"Duration":364431,"SoundDuration":364431,"Delta":48665952},{"NoteNumber":77,"Velocity":58,"Duration":1105469,"SoundDuration":1105469,"Delta":48673544},{"NoteNumber":57,"Velocity":32,"Duration":182215,"SoundDuration":182215,"Delta":48848167},{"NoteNumber":67,"Velocity":54,"Duration":364431,"SoundDuration":364431,"Delta":49030383},{"NoteNumber":65,"Velocity":48,"Duration":375845,"SoundDuration":375845,"Delta":49394815},{"NoteNumber":57,"Velocity":37,"Duration":1537969,"SoundDuration":1537969,"Delta":49582737},{"NoteNumber":76,"Velocity":52,"Duration":400962,"SoundDuration":400962,"Delta":49770660},{"NoteNumber":64,"Velocity":44,"Duration":400962,"SoundDuration":400962,"Delta":49770660},{"NoteNumber":62,"Velocity":47,"Duration":451868,"SoundDuration":451868,"Delta":50171623},{"NoteNumber":74,"Velocity":56,"Duration":233209,"SoundDuration":233209,"Delta":50171623},{"NoteNumber":56,"Velocity":41,"Duration":949084,"SoundDuration":949084,"Delta":50171623},{"NoteNumber":47,"Velocity":41,"Duration":949084,"SoundDuration":949084,"Delta":50171623},{"NoteNumber":76,"Velocity":43,"Duration":54664,"SoundDuration":54664,"Delta":50404832},{"NoteNumber":74,"Velocity":44,"Duration":54664,"SoundDuration":54664,"Delta":50459496},{"NoteNumber":73,"Velocity":45,"Duration":54664,"SoundDuration":54664,"Delta":50514161},{"NoteNumber":74,"Velocity":46,"Duration":54664,"SoundDuration":54664,"Delta":50568826},{"NoteNumber":76,"Velocity":54,"Duration":231972,"SoundDuration":231972,"Delta":50619846},{"NoteNumber":64,"Velocity":45,"Duration":232745,"SoundDuration":232745,"Delta":50627361},{"NoteNumber":65,"Velocity":46,"Duration":264638,"SoundDuration":264638,"Delta":50857897},{"NoteNumber":77,"Velocity":55,"Duration":256183,"SoundDuration":256183,"Delta":50860106},{"NoteNumber":77,"Velocity":61,"Duration":439109,"SoundDuration":439109,"Delta":51120707},{"NoteNumber":60,"Velocity":41,"Duration":1677424,"SoundDuration":1677424,"Delta":51120707},{"NoteNumber":57,"Velocity":41,"Duration":1677424,"SoundDuration":1677424,"Delta":51120707},{"NoteNumber":48,"Velocity":41,"Duration":1677424,"SoundDuration":1677424,"Delta":51120707},{"NoteNumber":65,"Velocity":37,"Duration":219554,"SoundDuration":219554,"Delta":51340262},{"NoteNumber":76,"Velocity":53,"Duration":420639,"SoundDuration":420639,"Delta":51559817},{"NoteNumber":74,"Velocity":58,"Duration":602836,"SoundDuration":602836,"Delta":51980456},{"NoteNumber":65,"Velocity":30,"Duration":193999,"SoundDuration":193999,"Delta":52174455},{"NoteNumber":72,"Velocity":52,"Duration":214838,"SoundDuration":214838,"Delta":52583292},{"NoteNumber":72,"Velocity":58,"Duration":411974,"SoundDuration":411974,"Delta":52798131},{"NoteNumber":58,"Velocity":41,"Duration":1662544,"SoundDuration":1662544,"Delta":52798131},{"NoteNumber":64,"Velocity":41,"Duration":1662544,"SoundDuration":1662544,"Delta":52798131},{"NoteNumber":48,"Velocity":41,"Duration":1662544,"SoundDuration":1662544,"Delta":52798131},{"NoteNumber":60,"Velocity":37,"Duration":205987,"SoundDuration":205987,"Delta":53004118},{"NoteNumber":70,"Velocity":53,"Duration":411974,"SoundDuration":411974,"Delta":53210105},{"NoteNumber":69,"Velocity":58,"Duration":625284,"SoundDuration":625284,"Delta":53622080},{"NoteNumber":60,"Velocity":31,"Duration":205987,"SoundDuration":205987,"Delta":53828067},{"NoteNumber":67,"Velocity":52,"Duration":213310,"SoundDuration":213310,"Delta":54247365},{"NoteNumber":67,"Velocity":43,"Duration":1647957,"SoundDuration":1647957,"Delta":54460675},{"NoteNumber":53,"Velocity":43,"Duration":411974,"SoundDuration":411974,"Delta":54462392},{"NoteNumber":60,"Velocity":43,"Duration":2516896,"SoundDuration":2516896,"Delta":54465825},{"NoteNumber":58,"Velocity":37,"Duration":823948,"SoundDuration":823948,"Delta":54666662},{"NoteNumber":52,"Velocity":43,"Duration":411974,"SoundDuration":411974,"Delta":54872650},{"NoteNumber":50,"Velocity":43,"Duration":411974,"SoundDuration":411974,"Delta":55281191},{"NoteNumber":58,"Velocity":37,"Duration":618021,"SoundDuration":618021,"Delta":55490611},{"NoteNumber":48,"Velocity":43,"Duration":412033,"SoundDuration":412033,"Delta":55696599},{"NoteNumber":65,"Velocity":43,"Duration":423482,"SoundDuration":423482,"Delta":56108633},{"NoteNumber":53,"Velocity":43,"Duration":1822153,"SoundDuration":1822153,"Delta":56120732},{"NoteNumber":57,"Velocity":31,"Duration":659223,"SoundDuration":659223,"Delta":56317800},{"NoteNumber":63,"Velocity":43,"Duration":444908,"SoundDuration":444908,"Delta":56532115},{"NoteNumber":62,"Velocity":47,"Duration":468841,"SoundDuration":468841,"Delta":56977024},{"NoteNumber":41,"Velocity":43,"Duration":964314,"SoundDuration":964314,"Delta":56977024},{"NoteNumber":51,"Velocity":31,"Duration":733003,"SoundDuration":733003,"Delta":57208335},{"NoteNumber":61,"Velocity":40,"Duration":866667,"SoundDuration":866667,"Delta":57445866},{"NoteNumber":53,"Velocity":43,"Duration":374087,"SoundDuration":374087,"Delta":57930713},{"NoteNumber":46,"Velocity":50,"Duration":2166985,"SoundDuration":2166985,"Delta":57941339},{"NoteNumber":34,"Velocity":50,"Duration":2166985,"SoundDuration":2166985,"Delta":57941339},{"NoteNumber":50,"Velocity":30,"Duration":185597,"SoundDuration":185597,"Delta":58126936},{"NoteNumber":55,"Velocity":43,"Duration":371195,"SoundDuration":371195,"Delta":58301707},{"NoteNumber":62,"Velocity":43,"Duration":371195,"SoundDuration":371195,"Delta":58312534},{"NoteNumber":57,"Velocity":43,"Duration":359884,"SoundDuration":359884,"Delta":58691226},{"NoteNumber":50,"Velocity":36,"Duration":179942,"SoundDuration":179942,"Delta":58863671},{"NoteNumber":58,"Velocity":43,"Duration":359884,"SoundDuration":359884,"Delta":59051111},{"NoteNumber":60,"Velocity":43,"Duration":355615,"SoundDuration":355615,"Delta":59401999},{"NoteNumber":50,"Velocity":31,"Duration":176387,"SoundDuration":176387,"Delta":59582693},{"NoteNumber":62,"Velocity":46,"Duration":349312,"SoundDuration":349312,"Delta":59753220},{"NoteNumber":48,"Velocity":50,"Duration":754819,"SoundDuration":754819,"Delta":60108324},{"NoteNumber":32,"Velocity":50,"Duration":754819,"SoundDuration":754819,"Delta":60108324},{"NoteNumber":63,"Velocity":49,"Duration":344800,"SoundDuration":344800,"Delta":60118461},{"NoteNumber":50,"Velocity":31,"Duration":170666,"SoundDuration":170666,"Delta":60281130},{"NoteNumber":65,"Velocity":56,"Duration":410817,"SoundDuration":410817,"Delta":60459985},{"NoteNumber":31,"Velocity":50,"Duration":2136533,"SoundDuration":2136533,"Delta":60863144},{"NoteNumber":47,"Velocity":50,"Duration":2136533,"SoundDuration":2136533,"Delta":60863144},{"NoteNumber":67,"Velocity":67,"Duration":1385184,"SoundDuration":1385184,"Delta":60901440},{"NoteNumber":50,"Velocity":35,"Duration":177304,"SoundDuration":177304,"Delta":61046967},{"NoteNumber":65,"Velocity":59,"Duration":354610,"SoundDuration":354610,"Delta":61224272},{"NoteNumber":63,"Velocity":56,"Duration":354610,"SoundDuration":354610,"Delta":61578882},{"NoteNumber":50,"Velocity":32,"Duration":177304,"SoundDuration":177304,"Delta":61756187},{"NoteNumber":62,"Velocity":50,"Duration":354610,"SoundDuration":354610,"Delta":61933492},{"NoteNumber":67,"Velocity":59,"Duration":711575,"SoundDuration":711575,"Delta":62288102},{"NoteNumber":60,"Velocity":43,"Duration":355787,"SoundDuration":355787,"Delta":62288102},{"NoteNumber":50,"Velocity":30,"Duration":177893,"SoundDuration":177893,"Delta":62465996},{"NoteNumber":59,"Velocity":41,"Duration":355787,"SoundDuration":355787,"Delta":62643890},{"NoteNumber":57,"Velocity":43,"Duration":351617,"SoundDuration":351617,"Delta":62999677},{"NoteNumber":69,"Velocity":55,"Duration":351930,"SoundDuration":351930,"Delta":63007003},{"NoteNumber":50,"Velocity":30,"Duration":175808,"SoundDuration":175808,"Delta":63175486},{"NoteNumber":55,"Velocity":40,"Duration":395133,"SoundDuration":395133,"Delta":63351295},{"NoteNumber":71,"Velocity":59,"Duration":395051,"SoundDuration":395051,"Delta":63355878},{"NoteNumber":63,"Velocity":60,"Duration":1882966,"SoundDuration":1882966,"Delta":63640526},{"NoteNumber":48,"Velocity":45,"Duration":360057,"SoundDuration":360057,"Delta":63746429},{"NoteNumber":75,"Velocity":69,"Duration":1769562,"SoundDuration":1769562,"Delta":63753930},{"NoteNumber":36,"Velocity":31,"Duration":180028,"SoundDuration":180028,"Delta":63926457},{"NoteNumber":50,"Velocity":42,"Duration":360057,"SoundDuration":360057,"Delta":64106486},{"NoteNumber":51,"Velocity":47,"Duration":353690,"SoundDuration":353690,"Delta":64466544},{"NoteNumber":48,"Velocity":32,"Duration":176845,"SoundDuration":176845,"Delta":64643389},{"NoteNumber":53,"Velocity":42,"Duration":353690,"SoundDuration":353690,"Delta":64820234},{"NoteNumber":55,"Velocity":48,"Duration":349569,"SoundDuration":349569,"Delta":65173924},{"NoteNumber":48,"Velocity":32,"Duration":174784,"SoundDuration":174784,"Delta":65348708},{"NoteNumber":74,"Velocity":51,"Duration":494461,"SoundDuration":494461,"Delta":65523493},{"NoteNumber":57,"Velocity":39,"Duration":349569,"SoundDuration":349569,"Delta":65523493},{"NoteNumber":59,"Velocity":42,"Duration":241270,"SoundDuration":241270,"Delta":65873062},{"NoteNumber":72,"Velocity":55,"Duration":144859,"SoundDuration":144859,"Delta":66017954},{"NoteNumber":60,"Velocity":47,"Duration":248671,"SoundDuration":248671,"Delta":66114332},{"NoteNumber":70,"Velocity":53,"Duration":149073,"SoundDuration":149073,"Delta":66162814},{"NoteNumber":69,"Velocity":51,"Duration":164832,"SoundDuration":164832,"Delta":66311888},{"NoteNumber":62,"Velocity":52,"Duration":303394,"SoundDuration":303394,"Delta":66363003},{"NoteNumber":67,"Velocity":50,"Duration":189677,"SoundDuration":189677,"Delta":66476720},{"NoteNumber":63,"Velocity":59,"Duration":366926,"SoundDuration":366926,"Delta":66655436},{"NoteNumber":41,"Velocity":57,"Duration":2943095,"SoundDuration":2943095,"Delta":66666398},{"NoteNumber":57,"Velocity":57,"Duration":1428085,"SoundDuration":1428085,"Delta":66666398},{"NoteNumber":65,"Velocity":59,"Duration":2262459,"SoundDuration":2262459,"Delta":66681675},{"NoteNumber":53,"Velocity":32,"Duration":183329,"SoundDuration":183329,"Delta":66849727},{"NoteNumber":62,"Velocity":53,"Duration":366658,"SoundDuration":366658,"Delta":67028473},{"NoteNumber":60,"Velocity":49,"Duration":349569,"SoundDuration":349569,"Delta":67406997},{"NoteNumber":53,"Velocity":32,"Duration":174784,"SoundDuration":174784,"Delta":67574499},{"NoteNumber":58,"Velocity":48,"Duration":349569,"SoundDuration":349569,"Delta":67740544},{"NoteNumber":57,"Velocity":47,"Duration":349568,"SoundDuration":349568,"Delta":68098853},{"NoteNumber":53,"Velocity":32,"Duration":174784,"SoundDuration":174784,"Delta":68273637},{"NoteNumber":55,"Velocity":43,"Duration":349918,"SoundDuration":349918,"Delta":68445509},{"NoteNumber":53,"Velocity":46,"Duration":182693,"SoundDuration":182693,"Delta":68798428},{"NoteNumber":67,"Velocity":42,"Duration":149333,"SoundDuration":149333,"Delta":68944135},{"NoteNumber":51,"Velocity":45,"Duration":188637,"SoundDuration":188637,"Delta":68981121},{"NoteNumber":69,"Velocity":46,"Duration":155310,"SoundDuration":155310,"Delta":69093468},{"NoteNumber":50,"Velocity":44,"Duration":204033,"SoundDuration":204033,"Delta":69169759},{"NoteNumber":70,"Velocity":50,"Duration":168111,"SoundDuration":168111,"Delta":69248778},{"NoteNumber":48,"Velocity":42,"Duration":235701,"SoundDuration":235701,"Delta":69373792},{"NoteNumber":72,"Velocity":54,"Duration":192603,"SoundDuration":192603,"Delta":69416890},{"NoteNumber":46,"Velocity":41,"Duration":727098,"SoundDuration":727098,"Delta":69609493},{"NoteNumber":34,"Velocity":34,"Duration":727098,"SoundDuration":727098,"Delta":69609493},{"NoteNumber":74,"Velocity":63,"Duration":322316,"SoundDuration":322316,"Delta":69638795},{"NoteNumber":62,"Velocity":32,"Duration":175808,"SoundDuration":175808,"Delta":69785302},{"NoteNumber":72,"Velocity":56,"Duration":375481,"SoundDuration":375481,"Delta":69961111},{"NoteNumber":70,"Velocity":63,"Duration":373506,"SoundDuration":373506,"Delta":70336592},{"NoteNumber":79,"Velocity":63,"Duration":1085743,"SoundDuration":1085743,"Delta":70344374},{"NoteNumber":58,"Velocity":32,"Duration":186753,"SoundDuration":186753,"Delta":70523345},{"NoteNumber":69,"Velocity":54,"Duration":349569,"SoundDuration":349569,"Delta":70710098},{"NoteNumber":67,"Velocity":48,"Duration":368913,"SoundDuration":368913,"Delta":71059667},{"NoteNumber":58,"Velocity":37,"Duration":1339222,"SoundDuration":1339222,"Delta":71244124},{"NoteNumber":65,"Velocity":44,"Duration":368912,"SoundDuration":368912,"Delta":71428580},{"NoteNumber":77,"Velocity":52,"Duration":369726,"SoundDuration":369726,"Delta":71434729},{"NoteNumber":64,"Velocity":47,"Duration":377205,"SoundDuration":377205,"Delta":71797493},{"NoteNumber":76,"Velocity":56,"Duration":208855,"SoundDuration":208855,"Delta":71797493},{"NoteNumber":77,"Velocity":39,"Duration":84175,"SoundDuration":84175,"Delta":72006349},{"NoteNumber":76,"Velocity":36,"Duration":84175,"SoundDuration":84175,"Delta":72090524},{"NoteNumber":74,"Velocity":53,"Duration":198123,"SoundDuration":198123,"Delta":72169088},{"NoteNumber":62,"Velocity":45,"Duration":199236,"SoundDuration":199236,"Delta":72176359},{"NoteNumber":60,"Velocity":40,"Duration":209199,"SoundDuration":209199,"Delta":72375595},{"NoteNumber":72,"Velocity":48,"Duration":195530,"SoundDuration":195530,"Delta":72386070},{"NoteNumber":72,"Velocity":53,"Duration":347543,"SoundDuration":347543,"Delta":72583347},{"NoteNumber":45,"Velocity":41,"Duration":739745,"SoundDuration":739745,"Delta":72583347},{"NoteNumber":60,"Velocity":32,"Duration":173771,"SoundDuration":173771,"Delta":72757119},{"NoteNumber":70,"Velocity":53,"Duration":392201,"SoundDuration":392201,"Delta":72930891},{"NoteNumber":69,"Velocity":49,"Duration":364431,"SoundDuration":364431,"Delta":73323092},{"NoteNumber":77,"Velocity":58,"Duration":1098634,"SoundDuration":1098634,"Delta":73329166},{"NoteNumber":57,"Velocity":32,"Duration":182215,"SoundDuration":182215,"Delta":73505308},{"NoteNumber":67,"Velocity":54,"Duration":364431,"SoundDuration":364431,"Delta":73687523},{"NoteNumber":65,"Velocity":48,"Duration":375845,"SoundDuration":375845,"Delta":74051955},{"NoteNumber":57,"Velocity":37,"Duration":1529136,"SoundDuration":1529136,"Delta":74239878},{"NoteNumber":64,"Velocity":44,"Duration":400962,"SoundDuration":400962,"Delta":74427800},{"NoteNumber":76,"Velocity":52,"Duration":400962,"SoundDuration":400962,"Delta":74427800},{"NoteNumber":74,"Velocity":56,"Duration":251677,"SoundDuration":251677,"Delta":74828763},{"NoteNumber":62,"Velocity":47,"Duration":461174,"SoundDuration":461174,"Delta":74828763},{"NoteNumber":47,"Velocity":41,"Duration":940250,"SoundDuration":940250,"Delta":74828763},{"NoteNumber":56,"Velocity":41,"Duration":940250,"SoundDuration":940250,"Delta":74828763},{"NoteNumber":76,"Velocity":43,"Duration":52374,"SoundDuration":52374,"Delta":75080441},{"NoteNumber":74,"Velocity":44,"Duration":52374,"SoundDuration":52374,"Delta":75132815},{"NoteNumber":73,"Velocity":45,"Duration":52374,"SoundDuration":52374,"Delta":75185189},{"NoteNumber":74,"Velocity":46,"Duration":52374,"SoundDuration":52374,"Delta":75237564},{"NoteNumber":76,"Velocity":54,"Duration":218277,"SoundDuration":218277,"Delta":75281209},{"NoteNumber":64,"Velocity":45,"Duration":219006,"SoundDuration":219006,"Delta":75291760},{"NoteNumber":77,"Velocity":55,"Duration":260068,"SoundDuration":260068,"Delta":75506775},{"NoteNumber":65,"Velocity":46,"Duration":259054,"SoundDuration":259054,"Delta":75517278},{"NoteNumber":77,"Velocity":61,"Duration":439109,"SoundDuration":439109,"Delta":75769014},{"NoteNumber":57,"Velocity":41,"Duration":1677424,"SoundDuration":1677424,"Delta":75769014},{"NoteNumber":48,"Velocity":41,"Duration":1677424,"SoundDuration":1677424,"Delta":75769014},{"NoteNumber":60,"Velocity":41,"Duration":1677424,"SoundDuration":1677424,"Delta":75769014},{"NoteNumber":65,"Velocity":37,"Duration":219554,"SoundDuration":219554,"Delta":75988569},{"NoteNumber":76,"Velocity":53,"Duration":420639,"SoundDuration":420639,"Delta":76208124},{"NoteNumber":74,"Velocity":58,"Duration":602836,"SoundDuration":602836,"Delta":76628763},{"NoteNumber":65,"Velocity":30,"Duration":193998,"SoundDuration":193998,"Delta":76822762},{"NoteNumber":72,"Velocity":52,"Duration":214838,"SoundDuration":214838,"Delta":77231599},{"NoteNumber":72,"Velocity":58,"Duration":411974,"SoundDuration":411974,"Delta":77446438},{"NoteNumber":64,"Velocity":41,"Duration":1662544,"SoundDuration":1662544,"Delta":77446438},{"NoteNumber":58,"Velocity":41,"Duration":1662544,"SoundDuration":1662544,"Delta":77446438},{"NoteNumber":48,"Velocity":41,"Duration":1662544,"SoundDuration":1662544,"Delta":77446438},{"NoteNumber":60,"Velocity":37,"Duration":205987,"SoundDuration":205987,"Delta":77652425},{"NoteNumber":70,"Velocity":53,"Duration":411974,"SoundDuration":411974,"Delta":77858412},{"NoteNumber":69,"Velocity":58,"Duration":625285,"SoundDuration":625285,"Delta":78270387},{"NoteNumber":60,"Velocity":31,"Duration":205987,"SoundDuration":205987,"Delta":78476374},{"NoteNumber":67,"Velocity":52,"Duration":213310,"SoundDuration":213310,"Delta":78895672},{"NoteNumber":53,"Velocity":43,"Duration":412035,"SoundDuration":412035,"Delta":79107205},{"NoteNumber":67,"Velocity":43,"Duration":1733725,"SoundDuration":1733725,"Delta":79108982},{"NoteNumber":60,"Velocity":43,"Duration":2727761,"SoundDuration":2727761,"Delta":79108982},{"NoteNumber":58,"Velocity":37,"Duration":834224,"SoundDuration":834224,"Delta":79314969},{"NoteNumber":52,"Velocity":43,"Duration":412573,"SoundDuration":412573,"Delta":79532973},{"NoteNumber":50,"Velocity":43,"Duration":432183,"SoundDuration":432183,"Delta":79926065},{"NoteNumber":58,"Velocity":37,"Duration":693513,"SoundDuration":693513,"Delta":80149194},{"NoteNumber":48,"Velocity":43,"Duration":477250,"SoundDuration":477250,"Delta":80365457},{"NoteNumber":65,"Velocity":43,"Duration":994035,"SoundDuration":994035,"Delta":80842708},{"NoteNumber":53,"Velocity":43,"Duration":994035,"SoundDuration":994035,"Delta":80853063},{"NoteNumber":57,"Velocity":31,"Duration":745526,"SoundDuration":745526,"Delta":81091217},{"NoteNumber":41,"Velocity":50,"Duration":2973497,"SoundDuration":2973497,"Delta":82706526},{"NoteNumber":65,"Velocity":43,"Duration":356784,"SoundDuration":356784,"Delta":82821456},{"NoteNumber":57,"Velocity":50,"Duration":2847942,"SoundDuration":2847942,"Delta":82832081},{"NoteNumber":63,"Velocity":30,"Duration":176761,"SoundDuration":176761,"Delta":83008843},{"NoteNumber":67,"Velocity":43,"Duration":353523,"SoundDuration":353523,"Delta":83179713},{"NoteNumber":69,"Velocity":43,"Duration":353523,"SoundDuration":353523,"Delta":83528817},{"NoteNumber":63,"Velocity":36,"Duration":176761,"SoundDuration":176761,"Delta":83715890},{"NoteNumber":70,"Velocity":43,"Duration":352868,"SoundDuration":352868,"Delta":83898544},{"NoteNumber":72,"Velocity":43,"Duration":354010,"SoundDuration":354010,"Delta":84246965},{"NoteNumber":63,"Velocity":31,"Duration":176387,"SoundDuration":176387,"Delta":84423123},{"NoteNumber":74,"Velocity":46,"Duration":349261,"SoundDuration":349261,"Delta":84598045},{"NoteNumber":75,"Velocity":49,"Duration":343639,"SoundDuration":343639,"Delta":84950202},{"NoteNumber":63,"Velocity":31,"Duration":170666,"SoundDuration":170666,"Delta":85121560},{"NoteNumber":77,"Velocity":56,"Duration":387125,"SoundDuration":387125,"Delta":85288051},{"NoteNumber":39,"Velocity":50,"Duration":2952899,"SoundDuration":2952899,"Delta":85583074},{"NoteNumber":58,"Velocity":50,"Duration":1397624,"SoundDuration":1397624,"Delta":85680024},{"NoteNumber":78,"Velocity":62,"Duration":349405,"SoundDuration":349405,"Delta":85694582},{"NoteNumber":63,"Velocity":35,"Duration":174703,"SoundDuration":174703,"Delta":85854727},{"NoteNumber":77,"Velocity":59,"Duration":349406,"SoundDuration":349406,"Delta":86033797},{"NoteNumber":75,"Velocity":56,"Duration":349406,"SoundDuration":349406,"Delta":86371556},{"NoteNumber":63,"Velocity":32,"Duration":174703,"SoundDuration":174703,"Delta":86553539},{"NoteNumber":73,"Velocity":50,"Duration":349406,"SoundDuration":349406,"Delta":86725330},{"NoteNumber":48,"Velocity":50,"Duration":3225754,"SoundDuration":3225754,"Delta":87077648},{"NoteNumber":72,"Velocity":43,"Duration":355787,"SoundDuration":355787,"Delta":87079130},{"NoteNumber":63,"Velocity":30,"Duration":177893,"SoundDuration":177893,"Delta":87255541},{"NoteNumber":70,"Velocity":41,"Duration":355717,"SoundDuration":355717,"Delta":87439365},{"NoteNumber":69,"Velocity":43,"Duration":351805,"SoundDuration":351805,"Delta":87793618},{"NoteNumber":63,"Velocity":30,"Duration":175808,"SoundDuration":175808,"Delta":87965031},{"NoteNumber":70,"Velocity":40,"Duration":394695,"SoundDuration":394695,"Delta":88153062},{"NoteNumber":65,"Velocity":36,"Duration":353523,"SoundDuration":353523,"Delta":88535974},{"NoteNumber":41,"Velocity":42,"Duration":1767428,"SoundDuration":1767428,"Delta":88535974},{"NoteNumber":69,"Velocity":36,"Duration":353523,"SoundDuration":353523,"Delta":88546285},{"NoteNumber":63,"Velocity":25,"Duration":176761,"SoundDuration":176761,"Delta":88712736},{"NoteNumber":67,"Velocity":36,"Duration":353523,"SoundDuration":353523,"Delta":88892443},{"NoteNumber":69,"Velocity":36,"Duration":353523,"SoundDuration":353523,"Delta":89232710},{"NoteNumber":63,"Velocity":30,"Duration":176761,"SoundDuration":176761,"Delta":89419783},{"NoteNumber":70,"Velocity":36,"Duration":352830,"SoundDuration":352830,"Delta":89596544},{"NoteNumber":72,"Velocity":36,"Duration":354079,"SoundDuration":354079,"Delta":89944928},{"NoteNumber":63,"Velocity":26,"Duration":176387,"SoundDuration":176387,"Delta":90127015},{"NoteNumber":73,"Velocity":39,"Duration":349362,"SoundDuration":349362,"Delta":90293147},{"NoteNumber":75,"Velocity":41,"Duration":343639,"SoundDuration":343639,"Delta":90654095},{"NoteNumber":63,"Velocity":26,"Duration":170666,"SoundDuration":170666,"Delta":90825452},{"NoteNumber":77,"Velocity":47,"Duration":386900,"SoundDuration":386900,"Delta":90990552},{"NoteNumber":39,"Velocity":42,"Duration":1494573,"SoundDuration":1494573,"Delta":91286967},{"NoteNumber":58,"Velocity":42,"Duration":1397624,"SoundDuration":1397624,"Delta":91383916},{"NoteNumber":78,"Velocity":52,"Duration":349405,"SoundDuration":349405,"Delta":91398475},{"NoteNumber":63,"Velocity":29,"Duration":174703,"SoundDuration":174703,"Delta":91558619},{"NoteNumber":77,"Velocity":50,"Duration":349406,"SoundDuration":349406,"Delta":91733322},{"NoteNumber":75,"Velocity":47,"Duration":524108,"SoundDuration":524108,"Delta":92082728},{"NoteNumber":63,"Velocity":27,"Duration":174703,"SoundDuration":174703,"Delta":92257431},{"NoteNumber":73,"Velocity":42,"Duration":174703,"SoundDuration":174703,"Delta":92606837},{"NoteNumber":42,"Velocity":42,"Duration":1458326,"SoundDuration":1458326,"Delta":92781540},{"NoteNumber":73,"Velocity":36,"Duration":351340,"SoundDuration":351340,"Delta":92796365},{"NoteNumber":63,"Velocity":25,"Duration":177893,"SoundDuration":177893,"Delta":92959434},{"NoteNumber":72,"Velocity":34,"Duration":355787,"SoundDuration":355787,"Delta":93137328},{"NoteNumber":70,"Velocity":36,"Duration":87904,"SoundDuration":87904,"Delta":93493115},{"NoteNumber":72,"Velocity":36,"Duration":87904,"SoundDuration":87904,"Delta":93581019},{"NoteNumber":70,"Velocity":41,"Duration":359138,"SoundDuration":359138,"Delta":93668924},{"NoteNumber":60,"Velocity":41,"Duration":175808,"SoundDuration":175808,"Delta":93668924},{"NoteNumber":44,"Velocity":34,"Duration":395133,"SoundDuration":395133,"Delta":93844733},{"NoteNumber":68,"Velocity":34,"Duration":211804,"SoundDuration":211804,"Delta":94028062},{"NoteNumber":49,"Velocity":34,"Duration":360975,"SoundDuration":360975,"Delta":94239866},{"NoteNumber":41,"Velocity":34,"Duration":718650,"SoundDuration":718650,"Delta":94239866},{"NoteNumber":73,"Velocity":36,"Duration":2102649,"SoundDuration":2102649,"Delta":94254668},{"NoteNumber":61,"Velocity":36,"Duration":715366,"SoundDuration":715366,"Delta":94420610},{"NoteNumber":51,"Velocity":29,"Duration":357692,"SoundDuration":357692,"Delta":94599343},{"NoteNumber":53,"Velocity":34,"Duration":3563157,"SoundDuration":3563157,"Delta":94949626},{"NoteNumber":61,"Velocity":36,"Duration":700266,"SoundDuration":700266,"Delta":95135977},{"NoteNumber":54,"Velocity":34,"Duration":350208,"SoundDuration":350208,"Delta":95308000},{"NoteNumber":56,"Velocity":36,"Duration":347382,"SoundDuration":347382,"Delta":95658209},{"NoteNumber":61,"Velocity":36,"Duration":694766,"SoundDuration":694766,"Delta":95836243},{"NoteNumber":58,"Velocity":37,"Duration":347382,"SoundDuration":347382,"Delta":96009934},{"NoteNumber":60,"Velocity":42,"Duration":347383,"SoundDuration":347383,"Delta":96364555},{"NoteNumber":61,"Velocity":36,"Duration":173691,"SoundDuration":173691,"Delta":96531009},{"NoteNumber":61,"Velocity":44,"Duration":586785,"SoundDuration":586785,"Delta":96704700},{"NoteNumber":62,"Velocity":45,"Duration":351452,"SoundDuration":351452,"Delta":97130403},{"NoteNumber":61,"Velocity":36,"Duration":702905,"SoundDuration":702905,"Delta":97291486},{"NoteNumber":59,"Velocity":42,"Duration":351452,"SoundDuration":351452,"Delta":97467212},{"NoteNumber":56,"Velocity":38,"Duration":351452,"SoundDuration":351452,"Delta":97818665},{"NoteNumber":61,"Velocity":36,"Duration":703664,"SoundDuration":703664,"Delta":97994391},{"NoteNumber":53,"Velocity":37,"Duration":351452,"SoundDuration":351452,"Delta":98170117},{"NoteNumber":49,"Velocity":36,"Duration":4088327,"SoundDuration":4088327,"Delta":98521570},{"NoteNumber":61,"Velocity":36,"Duration":715441,"SoundDuration":715441,"Delta":98698055},{"NoteNumber":47,"Velocity":35,"Duration":357816,"SoundDuration":357816,"Delta":98875376},{"NoteNumber":44,"Velocity":34,"Duration":361698,"SoundDuration":361698,"Delta":99233192},{"NoteNumber":61,"Velocity":36,"Duration":363892,"SoundDuration":363892,"Delta":99413497},{"NoteNumber":41,"Velocity":33,"Duration":366113,"SoundDuration":366113,"Delta":99594891},{"NoteNumber":61,"Velocity":36,"Duration":544590,"SoundDuration":544590,"Delta":99777389},{"NoteNumber":42,"Velocity":36,"Duration":2648892,"SoundDuration":2648892,"Delta":99961005},{"NoteNumber":58,"Velocity":30,"Duration":180232,"SoundDuration":180232,"Delta":100141748},{"NoteNumber":63,"Velocity":29,"Duration":357674,"SoundDuration":357674,"Delta":100321980},{"NoteNumber":65,"Velocity":37,"Duration":353876,"SoundDuration":353876,"Delta":100679655},{"NoteNumber":58,"Velocity":30,"Duration":176416,"SoundDuration":176416,"Delta":100857115},{"NoteNumber":66,"Velocity":39,"Duration":350157,"SoundDuration":350157,"Delta":101033532},{"NoteNumber":68,"Velocity":41,"Duration":347383,"SoundDuration":347383,"Delta":101383690},{"NoteNumber":58,"Velocity":36,"Duration":173691,"SoundDuration":173691,"Delta":101557381},{"NoteNumber":70,"Velocity":43,"Duration":347382,"SoundDuration":347382,"Delta":101731073},{"NoteNumber":71,"Velocity":46,"Duration":347383,"SoundDuration":347383,"Delta":102078456},{"NoteNumber":58,"Velocity":30,"Duration":173691,"SoundDuration":173691,"Delta":102252147},{"NoteNumber":73,"Velocity":48,"Duration":411059,"SoundDuration":411059,"Delta":102425839},{"NoteNumber":49,"Velocity":37,"Duration":227000,"SoundDuration":227000,"Delta":102609897},{"NoteNumber":42,"Velocity":37,"Duration":3210035,"SoundDuration":3210035,"Delta":102609897},{"NoteNumber":50,"Velocity":45,"Duration":2540959,"SoundDuration":2540959,"Delta":102836898},{"NoteNumber":74,"Velocity":54,"Duration":342833,"SoundDuration":342833,"Delta":102851804},{"NoteNumber":59,"Velocity":35,"Duration":178869,"SoundDuration":178869,"Delta":103015767},{"NoteNumber":71,"Velocity":47,"Duration":357739,"SoundDuration":357739,"Delta":103194637},{"NoteNumber":68,"Velocity":45,"Duration":357738,"SoundDuration":357738,"Delta":103552376},{"NoteNumber":62,"Velocity":49,"Duration":710426,"SoundDuration":710426,"Delta":103552376},{"NoteNumber":59,"Velocity":30,"Duration":178869,"SoundDuration":178869,"Delta":103731245},{"NoteNumber":65,"Velocity":41,"Duration":357106,"SoundDuration":357106,"Delta":103910115},{"NoteNumber":62,"Velocity":46,"Duration":720350,"SoundDuration":720350,"Delta":104267221},{"NoteNumber":56,"Velocity":37,"Duration":179085,"SoundDuration":179085,"Delta":104444507},{"NoteNumber":59,"Velocity":41,"Duration":363979,"SoundDuration":363979,"Delta":104623593},{"NoteNumber":56,"Velocity":40,"Duration":191207,"SoundDuration":191207,"Delta":104987572},{"NoteNumber":53,"Velocity":38,"Duration":199077,"SoundDuration":199077,"Delta":105178780},{"NoteNumber":50,"Velocity":36,"Duration":207186,"SoundDuration":207186,"Delta":105377858},{"NoteNumber":47,"Velocity":34,"Duration":234888,"SoundDuration":234888,"Delta":105585044},{"NoteNumber":61,"Velocity":36,"Duration":360975,"SoundDuration":360975,"Delta":105819933},{"NoteNumber":49,"Velocity":36,"Duration":2648892,"SoundDuration":2648892,"Delta":105819933},{"NoteNumber":42,"Velocity":36,"Duration":2875893,"SoundDuration":2875893,"Delta":105819933},{"NoteNumber":58,"Velocity":30,"Duration":180232,"SoundDuration":180232,"Delta":106000677},{"NoteNumber":63,"Velocity":29,"Duration":357674,"SoundDuration":357674,"Delta":106180909},{"NoteNumber":65,"Velocity":37,"Duration":353876,"SoundDuration":353876,"Delta":106538583},{"NoteNumber":58,"Velocity":30,"Duration":176416,"SoundDuration":176416,"Delta":106716043},{"NoteNumber":66,"Velocity":39,"Duration":350157,"SoundDuration":350157,"Delta":106892460},{"NoteNumber":68,"Velocity":41,"Duration":347383,"SoundDuration":347383,"Delta":107242618},{"NoteNumber":58,"Velocity":36,"Duration":173691,"SoundDuration":173691,"Delta":107416309},{"NoteNumber":70,"Velocity":43,"Duration":347382,"SoundDuration":347382,"Delta":107590001},{"NoteNumber":71,"Velocity":44,"Duration":347383,"SoundDuration":347383,"Delta":107937384},{"NoteNumber":58,"Velocity":30,"Duration":173691,"SoundDuration":173691,"Delta":108111075},{"NoteNumber":72,"Velocity":47,"Duration":411059,"SoundDuration":411059,"Delta":108284767},{"NoteNumber":49,"Velocity":37,"Duration":227000,"SoundDuration":227000,"Delta":108468826},{"NoteNumber":52,"Velocity":45,"Duration":2266111,"SoundDuration":2266111,"Delta":108695826},{"NoteNumber":36,"Velocity":45,"Duration":2266111,"SoundDuration":2266111,"Delta":108695826},{"NoteNumber":73,"Velocity":54,"Duration":356665,"SoundDuration":356665,"Delta":108703415},{"NoteNumber":58,"Velocity":35,"Duration":182127,"SoundDuration":182127,"Delta":108877953},{"NoteNumber":70,"Velocity":41,"Duration":365268,"SoundDuration":365268,"Delta":109060080},{"NoteNumber":67,"Velocity":45,"Duration":371011,"SoundDuration":371011,"Delta":109425349},{"NoteNumber":61,"Velocity":41,"Duration":737385,"SoundDuration":737385,"Delta":109425349},{"NoteNumber":58,"Velocity":30,"Duration":185505,"SoundDuration":185505,"Delta":109610854},{"NoteNumber":64,"Velocity":41,"Duration":371011,"SoundDuration":371011,"Delta":109796360},{"NoteNumber":61,"Velocity":43,"Duration":394217,"SoundDuration":394217,"Delta":110167372},{"NoteNumber":55,"Velocity":33,"Duration":197108,"SoundDuration":197108,"Delta":110364481},{"NoteNumber":58,"Velocity":41,"Duration":400347,"SoundDuration":400347,"Delta":110561590},{"NoteNumber":57,"Velocity":46,"Duration":915923,"SoundDuration":915923,"Delta":110961937},{"NoteNumber":41,"Velocity":34,"Duration":1009556,"SoundDuration":1009556,"Delta":110961937},{"NoteNumber":53,"Velocity":32,"Duration":612671,"SoundDuration":612671,"Delta":111265189},{"NoteNumber":51,"Velocity":27,"Duration":286048,"SoundDuration":286048,"Delta":111591812},{"NoteNumber":58,"Velocity":36,"Duration":93632,"SoundDuration":93632,"Delta":111877861},{"NoteNumber":58,"Velocity":36,"Duration":372208,"SoundDuration":372208,"Delta":111971494},{"NoteNumber":53,"Velocity":34,"Duration":372208,"SoundDuration":372208,"Delta":111971494},{"NoteNumber":34,"Velocity":40,"Duration":2188454,"SoundDuration":2188454,"Delta":111971494},{"NoteNumber":46,"Velocity":40,"Duration":2188454,"SoundDuration":2188454,"Delta":111971494},{"NoteNumber":50,"Velocity":24,"Duration":186104,"SoundDuration":186104,"Delta":112157598},{"NoteNumber":55,"Velocity":35,"Duration":372208,"SoundDuration":372208,"Delta":112343702},{"NoteNumber":57,"Velocity":36,"Duration":372208,"SoundDuration":372208,"Delta":112715911},{"NoteNumber":50,"Velocity":30,"Duration":186104,"SoundDuration":186104,"Delta":112902015},{"NoteNumber":58,"Velocity":37,"Duration":368557,"SoundDuration":368557,"Delta":113088119},{"NoteNumber":60,"Velocity":38,"Duration":354027,"SoundDuration":354027,"Delta":113456676},{"NoteNumber":50,"Velocity":28,"Duration":176387,"SoundDuration":176387,"Delta":113634317},{"NoteNumber":62,"Velocity":42,"Duration":349244,"SoundDuration":349244,"Delta":113810704},{"NoteNumber":63,"Velocity":46,"Duration":343471,"SoundDuration":343471,"Delta":114159948},{"NoteNumber":48,"Velocity":47,"Duration":728403,"SoundDuration":728403,"Delta":114159948},{"NoteNumber":32,"Velocity":47,"Duration":728403,"SoundDuration":728403,"Delta":114159948},{"NoteNumber":50,"Velocity":29,"Duration":170666,"SoundDuration":170666,"Delta":114332754},{"NoteNumber":65,"Velocity":54,"Duration":384931,"SoundDuration":384931,"Delta":114503420},{"NoteNumber":31,"Velocity":50,"Duration":2134725,"SoundDuration":2134725,"Delta":114888352},{"NoteNumber":47,"Velocity":50,"Duration":2134725,"SoundDuration":2134725,"Delta":114888352},{"NoteNumber":67,"Velocity":65,"Duration":1394983,"SoundDuration":1394983,"Delta":114916518},{"NoteNumber":50,"Velocity":35,"Duration":177893,"SoundDuration":177893,"Delta":115066246},{"NoteNumber":65,"Velocity":59,"Duration":355787,"SoundDuration":355787,"Delta":115244139},{"NoteNumber":63,"Velocity":56,"Duration":355787,"SoundDuration":355787,"Delta":115599927},{"NoteNumber":50,"Velocity":32,"Duration":177893,"SoundDuration":177893,"Delta":115777821},{"NoteNumber":62,"Velocity":50,"Duration":355787,"SoundDuration":355787,"Delta":115955714},{"NoteNumber":67,"Velocity":59,"Duration":711574,"SoundDuration":711574,"Delta":116311502},{"NoteNumber":60,"Velocity":43,"Duration":355787,"SoundDuration":355787,"Delta":116311502},{"NoteNumber":50,"Velocity":30,"Duration":177893,"SoundDuration":177893,"Delta":116489396},{"NoteNumber":59,"Velocity":41,"Duration":355787,"SoundDuration":355787,"Delta":116667289},{"NoteNumber":69,"Velocity":55,"Duration":351686,"SoundDuration":351686,"Delta":117017147},{"NoteNumber":57,"Velocity":43,"Duration":351617,"SoundDuration":351617,"Delta":117023077},{"NoteNumber":50,"Velocity":30,"Duration":175808,"SoundDuration":175808,"Delta":117198886},{"NoteNumber":71,"Velocity":59,"Duration":394233,"SoundDuration":394233,"Delta":117370299},{"NoteNumber":55,"Velocity":40,"Duration":395133,"SoundDuration":395133,"Delta":117374694},{"NoteNumber":63,"Velocity":60,"Duration":1882966,"SoundDuration":1882966,"Delta":117663926},{"NoteNumber":48,"Velocity":45,"Duration":360057,"SoundDuration":360057,"Delta":117769828},{"NoteNumber":75,"Velocity":69,"Duration":1776801,"SoundDuration":1776801,"Delta":117778830},{"NoteNumber":36,"Velocity":31,"Duration":180028,"SoundDuration":180028,"Delta":117949857},{"NoteNumber":50,"Velocity":42,"Duration":360057,"SoundDuration":360057,"Delta":118129886},{"NoteNumber":51,"Velocity":47,"Duration":353690,"SoundDuration":353690,"Delta":118489943},{"NoteNumber":48,"Velocity":32,"Duration":176845,"SoundDuration":176845,"Delta":118666788},{"NoteNumber":53,"Velocity":42,"Duration":353690,"SoundDuration":353690,"Delta":118843633},{"NoteNumber":55,"Velocity":48,"Duration":349569,"SoundDuration":349569,"Delta":119197323},{"NoteNumber":48,"Velocity":32,"Duration":174784,"SoundDuration":174784,"Delta":119372108},{"NoteNumber":74,"Velocity":51,"Duration":494461,"SoundDuration":494461,"Delta":119546892},{"NoteNumber":57,"Velocity":39,"Duration":349569,"SoundDuration":349569,"Delta":119546892},{"NoteNumber":59,"Velocity":42,"Duration":241270,"SoundDuration":241270,"Delta":119896461},{"NoteNumber":72,"Velocity":55,"Duration":144859,"SoundDuration":144859,"Delta":120041354},{"NoteNumber":60,"Velocity":47,"Duration":248671,"SoundDuration":248671,"Delta":120137731},{"NoteNumber":70,"Velocity":53,"Duration":149073,"SoundDuration":149073,"Delta":120186213},{"NoteNumber":69,"Velocity":51,"Duration":159548,"SoundDuration":159548,"Delta":120335287},{"NoteNumber":62,"Velocity":52,"Duration":287360,"SoundDuration":287360,"Delta":120386403},{"NoteNumber":67,"Velocity":50,"Duration":178927,"SoundDuration":178927,"Delta":120494836},{"NoteNumber":63,"Velocity":59,"Duration":366658,"SoundDuration":366658,"Delta":120673763},{"NoteNumber":57,"Velocity":57,"Duration":1432455,"SoundDuration":1432455,"Delta":120673763},{"NoteNumber":41,"Velocity":57,"Duration":2943095,"SoundDuration":2943095,"Delta":120673763},{"NoteNumber":65,"Velocity":59,"Duration":2262459,"SoundDuration":2262459,"Delta":120689041},{"NoteNumber":53,"Velocity":32,"Duration":183329,"SoundDuration":183329,"Delta":120857093},{"NoteNumber":62,"Velocity":53,"Duration":366658,"SoundDuration":366658,"Delta":121040422},{"NoteNumber":60,"Velocity":49,"Duration":349569,"SoundDuration":349569,"Delta":121407080},{"NoteNumber":53,"Velocity":32,"Duration":174784,"SoundDuration":174784,"Delta":121581865},{"NoteNumber":58,"Velocity":48,"Duration":349569,"SoundDuration":349569,"Delta":121756649},{"NoteNumber":57,"Velocity":47,"Duration":349568,"SoundDuration":349568,"Delta":122106218},{"NoteNumber":53,"Velocity":32,"Duration":174784,"SoundDuration":174784,"Delta":122281003},{"NoteNumber":55,"Velocity":43,"Duration":350006,"SoundDuration":350006,"Delta":122455787},{"NoteNumber":53,"Velocity":46,"Duration":182693,"SoundDuration":182693,"Delta":122805793},{"NoteNumber":67,"Velocity":42,"Duration":149333,"SoundDuration":149333,"Delta":122951500},{"NoteNumber":51,"Velocity":45,"Duration":188637,"SoundDuration":188637,"Delta":122988487},{"NoteNumber":69,"Velocity":46,"Duration":155310,"SoundDuration":155310,"Delta":123100834},{"NoteNumber":50,"Velocity":44,"Duration":204033,"SoundDuration":204033,"Delta":123177124},{"NoteNumber":70,"Velocity":50,"Duration":168111,"SoundDuration":168111,"Delta":123256144},{"NoteNumber":48,"Velocity":42,"Duration":235701,"SoundDuration":235701,"Delta":123381158},{"NoteNumber":72,"Velocity":54,"Duration":192603,"SoundDuration":192603,"Delta":123424256},{"NoteNumber":74,"Velocity":63,"Duration":351617,"SoundDuration":351617,"Delta":123616859},{"NoteNumber":46,"Velocity":41,"Duration":727098,"SoundDuration":727098,"Delta":123616859},{"NoteNumber":34,"Velocity":34,"Duration":727098,"SoundDuration":727098,"Delta":123616859},{"NoteNumber":62,"Velocity":44,"Duration":175808,"SoundDuration":175808,"Delta":123792668},{"NoteNumber":72,"Velocity":56,"Duration":375481,"SoundDuration":375481,"Delta":123968477},{"NoteNumber":70,"Velocity":63,"Duration":373506,"SoundDuration":373506,"Delta":124343958},{"NoteNumber":79,"Velocity":63,"Duration":1076425,"SoundDuration":1076425,"Delta":124359521},{"NoteNumber":58,"Velocity":42,"Duration":186753,"SoundDuration":186753,"Delta":124530711},{"NoteNumber":69,"Velocity":54,"Duration":349569,"SoundDuration":349569,"Delta":124717464},{"NoteNumber":67,"Velocity":48,"Duration":368913,"SoundDuration":368913,"Delta":125067033},{"NoteNumber":58,"Velocity":37,"Duration":1342105,"SoundDuration":1342105,"Delta":125251490},{"NoteNumber":65,"Velocity":44,"Duration":368912,"SoundDuration":368912,"Delta":125435946},{"NoteNumber":77,"Velocity":52,"Duration":361227,"SoundDuration":361227,"Delta":125443632},{"NoteNumber":76,"Velocity":56,"Duration":208855,"SoundDuration":208855,"Delta":125804859},{"NoteNumber":64,"Velocity":47,"Duration":380088,"SoundDuration":380088,"Delta":125804859},{"NoteNumber":77,"Velocity":44,"Duration":85616,"SoundDuration":85616,"Delta":126013715},{"NoteNumber":76,"Velocity":37,"Duration":85616,"SoundDuration":85616,"Delta":126099331},{"NoteNumber":62,"Velocity":45,"Duration":199322,"SoundDuration":199322,"Delta":126188267},{"NoteNumber":74,"Velocity":53,"Duration":199667,"SoundDuration":199667,"Delta":126194905},{"NoteNumber":72,"Velocity":48,"Duration":209066,"SoundDuration":209066,"Delta":126375800},{"NoteNumber":60,"Velocity":40,"Duration":208008,"SoundDuration":208008,"Delta":126392827},{"NoteNumber":72,"Velocity":53,"Duration":347543,"SoundDuration":347543,"Delta":126593595},{"NoteNumber":45,"Velocity":41,"Duration":725409,"SoundDuration":725409,"Delta":126593595},{"NoteNumber":60,"Velocity":32,"Duration":173771,"SoundDuration":173771,"Delta":126767367},{"NoteNumber":70,"Velocity":53,"Duration":377865,"SoundDuration":377865,"Delta":126941139},{"NoteNumber":69,"Velocity":49,"Duration":364431,"SoundDuration":364431,"Delta":127319005},{"NoteNumber":77,"Velocity":58,"Duration":1094079,"SoundDuration":1094079,"Delta":127329634},{"NoteNumber":57,"Velocity":32,"Duration":182215,"SoundDuration":182215,"Delta":127501221},{"NoteNumber":67,"Velocity":54,"Duration":364431,"SoundDuration":364431,"Delta":127683436},{"NoteNumber":65,"Velocity":48,"Duration":375845,"SoundDuration":375845,"Delta":128047868},{"NoteNumber":57,"Velocity":37,"Duration":1488067,"SoundDuration":1488067,"Delta":128235791},{"NoteNumber":64,"Velocity":44,"Duration":400962,"SoundDuration":400962,"Delta":128423713},{"NoteNumber":76,"Velocity":52,"Duration":400962,"SoundDuration":400962,"Delta":128423713},{"NoteNumber":62,"Velocity":47,"Duration":441253,"SoundDuration":441253,"Delta":128824676},{"NoteNumber":74,"Velocity":56,"Duration":233208,"SoundDuration":233208,"Delta":128824676},{"NoteNumber":47,"Velocity":41,"Duration":899182,"SoundDuration":899182,"Delta":128824676},{"NoteNumber":56,"Velocity":41,"Duration":899182,"SoundDuration":899182,"Delta":128824676},{"NoteNumber":76,"Velocity":43,"Duration":52011,"SoundDuration":52011,"Delta":129057885},{"NoteNumber":74,"Velocity":44,"Duration":52011,"SoundDuration":52011,"Delta":129109896},{"NoteNumber":73,"Velocity":45,"Duration":52011,"SoundDuration":52011,"Delta":129161907},{"NoteNumber":74,"Velocity":46,"Duration":52011,"SoundDuration":52011,"Delta":129213918},{"NoteNumber":64,"Velocity":45,"Duration":213222,"SoundDuration":213222,"Delta":129262462},{"NoteNumber":76,"Velocity":54,"Duration":213832,"SoundDuration":213832,"Delta":129269485},{"NoteNumber":65,"Velocity":46,"Duration":243313,"SoundDuration":243313,"Delta":129470352},{"NoteNumber":77,"Velocity":55,"Duration":244618,"SoundDuration":244618,"Delta":129479240},{"NoteNumber":77,"Velocity":61,"Duration":439109,"SoundDuration":439109,"Delta":129723858},{"NoteNumber":48,"Velocity":41,"Duration":1677424,"SoundDuration":1677424,"Delta":129723858},{"NoteNumber":60,"Velocity":41,"Duration":1677424,"SoundDuration":1677424,"Delta":129723858},{"NoteNumber":57,"Velocity":41,"Duration":1677424,"SoundDuration":1677424,"Delta":129723858},{"NoteNumber":65,"Velocity":37,"Duration":219554,"SoundDuration":219554,"Delta":129943413},{"NoteNumber":76,"Velocity":53,"Duration":420639,"SoundDuration":420639,"Delta":130162968},{"NoteNumber":74,"Velocity":58,"Duration":602836,"SoundDuration":602836,"Delta":130583608},{"NoteNumber":65,"Velocity":30,"Duration":193999,"SoundDuration":193999,"Delta":130777607},{"NoteNumber":72,"Velocity":52,"Duration":214838,"SoundDuration":214838,"Delta":131186444},{"NoteNumber":72,"Velocity":58,"Duration":411974,"SoundDuration":411974,"Delta":131401282},{"NoteNumber":64,"Velocity":41,"Duration":1662544,"SoundDuration":1662544,"Delta":131401282},{"NoteNumber":58,"Velocity":41,"Duration":1662544,"SoundDuration":1662544,"Delta":131401282},{"NoteNumber":48,"Velocity":41,"Duration":1662544,"SoundDuration":1662544,"Delta":131401282},{"NoteNumber":60,"Velocity":37,"Duration":205987,"SoundDuration":205987,"Delta":131607270},{"NoteNumber":70,"Velocity":53,"Duration":411974,"SoundDuration":411974,"Delta":131813257},{"NoteNumber":69,"Velocity":58,"Duration":625285,"SoundDuration":625285,"Delta":132225231},{"NoteNumber":60,"Velocity":31,"Duration":205987,"SoundDuration":205987,"Delta":132431219},{"NoteNumber":67,"Velocity":52,"Duration":213310,"SoundDuration":213310,"Delta":132850516},{"NoteNumber":67,"Velocity":43,"Duration":1733725,"SoundDuration":1733725,"Delta":133063827},{"NoteNumber":60,"Velocity":43,"Duration":2727761,"SoundDuration":2727761,"Delta":133063827},{"NoteNumber":53,"Velocity":43,"Duration":411974,"SoundDuration":411974,"Delta":133063827},{"NoteNumber":58,"Velocity":37,"Duration":834224,"SoundDuration":834224,"Delta":133269814},{"NoteNumber":52,"Velocity":43,"Duration":411974,"SoundDuration":411974,"Delta":133475801},{"NoteNumber":50,"Velocity":43,"Duration":432525,"SoundDuration":432525,"Delta":133887776},{"NoteNumber":58,"Velocity":37,"Duration":942023,"SoundDuration":942023,"Delta":134104039},{"NoteNumber":48,"Velocity":43,"Duration":477250,"SoundDuration":477250,"Delta":134320302},{"NoteNumber":65,"Velocity":43,"Duration":994035,"SoundDuration":994035,"Delta":134797553},{"NoteNumber":53,"Velocity":43,"Duration":994035,"SoundDuration":994035,"Delta":134797553},{"NoteNumber":57,"Velocity":31,"Duration":745526,"SoundDuration":745526,"Delta":135046062},{"NoteNumber":57,"Velocity":50,"Duration":2857847,"SoundDuration":2857847,"Delta":136785625},{"NoteNumber":41,"Velocity":50,"Duration":2857847,"SoundDuration":2857847,"Delta":136785625},{"NoteNumber":65,"Velocity":43,"Duration":353523,"SoundDuration":353523,"Delta":136795936},{"NoteNumber":63,"Velocity":30,"Duration":176761,"SoundDuration":176761,"Delta":136962387},{"NoteNumber":67,"Velocity":43,"Duration":353523,"SoundDuration":353523,"Delta":137128837},{"NoteNumber":69,"Velocity":43,"Duration":353523,"SoundDuration":353523,"Delta":137489726},{"NoteNumber":63,"Velocity":36,"Duration":176761,"SoundDuration":176761,"Delta":137669434},{"NoteNumber":70,"Velocity":43,"Duration":352887,"SoundDuration":352887,"Delta":137855034},{"NoteNumber":72,"Velocity":43,"Duration":354079,"SoundDuration":354079,"Delta":138194579},{"NoteNumber":63,"Velocity":31,"Duration":176387,"SoundDuration":176387,"Delta":138376666},{"NoteNumber":74,"Velocity":46,"Duration":349312,"SoundDuration":349312,"Delta":138547193},{"NoteNumber":75,"Velocity":49,"Duration":344813,"SoundDuration":344813,"Delta":138913882},{"NoteNumber":63,"Velocity":31,"Duration":170666,"SoundDuration":170666,"Delta":139075103},{"NoteNumber":77,"Velocity":56,"Duration":396583,"SoundDuration":396583,"Delta":139257080},{"NoteNumber":39,"Velocity":50,"Duration":2957852,"SoundDuration":2957852,"Delta":139541570},{"NoteNumber":58,"Velocity":50,"Duration":1397624,"SoundDuration":1397624,"Delta":139643473},{"NoteNumber":78,"Velocity":62,"Duration":336303,"SoundDuration":336303,"Delta":139656575},{"NoteNumber":63,"Velocity":35,"Duration":174702,"SoundDuration":174702,"Delta":139818176},{"NoteNumber":77,"Velocity":59,"Duration":349406,"SoundDuration":349406,"Delta":139992879},{"NoteNumber":75,"Velocity":56,"Duration":349406,"SoundDuration":349406,"Delta":140349564},{"NoteNumber":63,"Velocity":32,"Duration":174702,"SoundDuration":174702,"Delta":140516988},{"NoteNumber":73,"Velocity":50,"Duration":349406,"SoundDuration":349406,"Delta":140684411},{"NoteNumber":48,"Velocity":50,"Duration":3225754,"SoundDuration":3225754,"Delta":141041097},{"NoteNumber":72,"Velocity":43,"Duration":355787,"SoundDuration":355787,"Delta":141042579},{"NoteNumber":63,"Velocity":30,"Duration":177893,"SoundDuration":177893,"Delta":141218990},{"NoteNumber":70,"Velocity":41,"Duration":355683,"SoundDuration":355683,"Delta":141405779},{"NoteNumber":69,"Velocity":43,"Duration":351930,"SoundDuration":351930,"Delta":141759997},{"NoteNumber":63,"Velocity":30,"Duration":175808,"SoundDuration":175808,"Delta":141928480},{"NoteNumber":70,"Velocity":40,"Duration":394833,"SoundDuration":394833,"Delta":142102824},{"NoteNumber":69,"Velocity":36,"Duration":355275,"SoundDuration":355275,"Delta":142488833},{"NoteNumber":65,"Velocity":36,"Duration":353523,"SoundDuration":353523,"Delta":142499423},{"NoteNumber":41,"Velocity":42,"Duration":1767428,"SoundDuration":1767428,"Delta":142499423},{"NoteNumber":63,"Velocity":25,"Duration":176761,"SoundDuration":176761,"Delta":142676185},{"NoteNumber":67,"Velocity":36,"Duration":353523,"SoundDuration":353523,"Delta":142863257},{"NoteNumber":69,"Velocity":36,"Duration":353523,"SoundDuration":353523,"Delta":143206470},{"NoteNumber":63,"Velocity":30,"Duration":176761,"SoundDuration":176761,"Delta":143383232},{"NoteNumber":70,"Velocity":36,"Duration":352811,"SoundDuration":352811,"Delta":143557047},{"NoteNumber":72,"Velocity":36,"Duration":353905,"SoundDuration":353905,"Delta":143923201},{"NoteNumber":63,"Velocity":26,"Duration":176387,"SoundDuration":176387,"Delta":144090464},{"NoteNumber":73,"Velocity":39,"Duration":349362,"SoundDuration":349362,"Delta":144256596},{"NoteNumber":75,"Velocity":41,"Duration":344478,"SoundDuration":344478,"Delta":144624784},{"NoteNumber":63,"Velocity":26,"Duration":170666,"SoundDuration":170666,"Delta":144788901},{"NoteNumber":77,"Velocity":47,"Duration":386676,"SoundDuration":386676,"Delta":144952609},{"NoteNumber":39,"Velocity":42,"Duration":1494573,"SoundDuration":1494573,"Delta":145250416},{"NoteNumber":58,"Velocity":42,"Duration":1397624,"SoundDuration":1397624,"Delta":145347365},{"NoteNumber":78,"Velocity":52,"Duration":349406,"SoundDuration":349406,"Delta":145361924},{"NoteNumber":63,"Velocity":29,"Duration":174702,"SoundDuration":174702,"Delta":145522068},{"NoteNumber":77,"Velocity":50,"Duration":349406,"SoundDuration":349406,"Delta":145696771},{"NoteNumber":75,"Velocity":47,"Duration":524109,"SoundDuration":524109,"Delta":146046177},{"NoteNumber":63,"Velocity":27,"Duration":174702,"SoundDuration":174702,"Delta":146220880},{"NoteNumber":73,"Velocity":42,"Duration":174702,"SoundDuration":174702,"Delta":146570286},{"NoteNumber":73,"Velocity":36,"Duration":355787,"SoundDuration":355787,"Delta":146744989},{"NoteNumber":42,"Velocity":42,"Duration":1458326,"SoundDuration":1458326,"Delta":146744989},{"NoteNumber":63,"Velocity":25,"Duration":177893,"SoundDuration":177893,"Delta":146922883},{"NoteNumber":72,"Velocity":34,"Duration":355787,"SoundDuration":355787,"Delta":147100777},{"NoteNumber":70,"Velocity":36,"Duration":87904,"SoundDuration":87904,"Delta":147456564},{"NoteNumber":72,"Velocity":36,"Duration":87904,"SoundDuration":87904,"Delta":147544468},{"NoteNumber":70,"Velocity":36,"Duration":359138,"SoundDuration":359138,"Delta":147632373},{"NoteNumber":60,"Velocity":25,"Duration":175808,"SoundDuration":175808,"Delta":147632373},{"NoteNumber":44,"Velocity":34,"Duration":395133,"SoundDuration":395133,"Delta":147808182},{"NoteNumber":68,"Velocity":34,"Duration":211804,"SoundDuration":211804,"Delta":147991511},{"NoteNumber":49,"Velocity":34,"Duration":361241,"SoundDuration":361241,"Delta":148201550},{"NoteNumber":73,"Velocity":36,"Duration":2117451,"SoundDuration":2117451,"Delta":148203315},{"NoteNumber":41,"Velocity":34,"Duration":718650,"SoundDuration":718650,"Delta":148203315},{"NoteNumber":61,"Velocity":36,"Duration":715366,"SoundDuration":715366,"Delta":148384059},{"NoteNumber":51,"Velocity":29,"Duration":357638,"SoundDuration":357638,"Delta":148567290},{"NoteNumber":53,"Velocity":34,"Duration":3557126,"SoundDuration":3557126,"Delta":148927893},{"NoteNumber":61,"Velocity":36,"Duration":700266,"SoundDuration":700266,"Delta":149099426},{"NoteNumber":54,"Velocity":34,"Duration":350157,"SoundDuration":350157,"Delta":149275842},{"NoteNumber":56,"Velocity":36,"Duration":347383,"SoundDuration":347383,"Delta":149633237},{"NoteNumber":61,"Velocity":36,"Duration":694765,"SoundDuration":694765,"Delta":149799692},{"NoteNumber":58,"Velocity":36,"Duration":347382,"SoundDuration":347382,"Delta":149982068},{"NoteNumber":60,"Velocity":40,"Duration":347383,"SoundDuration":347383,"Delta":150319319},{"NoteNumber":61,"Velocity":36,"Duration":173691,"SoundDuration":173691,"Delta":150494458},{"NoteNumber":61,"Velocity":43,"Duration":586785,"SoundDuration":586785,"Delta":150668149},{"NoteNumber":62,"Velocity":46,"Duration":336808,"SoundDuration":336808,"Delta":151093852},{"NoteNumber":61,"Velocity":36,"Duration":702905,"SoundDuration":702905,"Delta":151254935},{"NoteNumber":59,"Velocity":44,"Duration":351452,"SoundDuration":351452,"Delta":151430661},{"NoteNumber":56,"Velocity":38,"Duration":351452,"SoundDuration":351452,"Delta":151782114},{"NoteNumber":61,"Velocity":36,"Duration":703664,"SoundDuration":703664,"Delta":151957840},{"NoteNumber":53,"Velocity":37,"Duration":357310,"SoundDuration":357310,"Delta":152133566},{"NoteNumber":49,"Velocity":36,"Duration":4088327,"SoundDuration":4088327,"Delta":152485019},{"NoteNumber":61,"Velocity":36,"Duration":715441,"SoundDuration":715441,"Delta":152661504},{"NoteNumber":47,"Velocity":35,"Duration":357816,"SoundDuration":357816,"Delta":152838825},{"NoteNumber":44,"Velocity":34,"Duration":361698,"SoundDuration":361698,"Delta":153196641},{"NoteNumber":61,"Velocity":36,"Duration":363892,"SoundDuration":363892,"Delta":153376946},{"NoteNumber":41,"Velocity":33,"Duration":366113,"SoundDuration":366113,"Delta":153558340},{"NoteNumber":61,"Velocity":36,"Duration":544590,"SoundDuration":544590,"Delta":153740838},{"NoteNumber":42,"Velocity":36,"Duration":2648892,"SoundDuration":2648892,"Delta":153924454},{"NoteNumber":58,"Velocity":30,"Duration":180232,"SoundDuration":180232,"Delta":154105197},{"NoteNumber":63,"Velocity":29,"Duration":357674,"SoundDuration":357674,"Delta":154285429},{"NoteNumber":65,"Velocity":37,"Duration":353876,"SoundDuration":353876,"Delta":154643104},{"NoteNumber":58,"Velocity":30,"Duration":176416,"SoundDuration":176416,"Delta":154820564},{"NoteNumber":66,"Velocity":39,"Duration":350157,"SoundDuration":350157,"Delta":154996981},{"NoteNumber":68,"Velocity":41,"Duration":347382,"SoundDuration":347382,"Delta":155347139},{"NoteNumber":58,"Velocity":36,"Duration":173691,"SoundDuration":173691,"Delta":155520830},{"NoteNumber":70,"Velocity":43,"Duration":347383,"SoundDuration":347383,"Delta":155694522},{"NoteNumber":71,"Velocity":44,"Duration":347383,"SoundDuration":347383,"Delta":156041905},{"NoteNumber":58,"Velocity":30,"Duration":173691,"SoundDuration":173691,"Delta":156215596},{"NoteNumber":73,"Velocity":47,"Duration":411059,"SoundDuration":411059,"Delta":156389288},{"NoteNumber":49,"Velocity":37,"Duration":227000,"SoundDuration":227000,"Delta":156573346},{"NoteNumber":42,"Velocity":37,"Duration":3210035,"SoundDuration":3210035,"Delta":156573346},{"NoteNumber":50,"Velocity":45,"Duration":2540959,"SoundDuration":2540959,"Delta":156800347},{"NoteNumber":74,"Velocity":54,"Duration":357738,"SoundDuration":357738,"Delta":156815253},{"NoteNumber":59,"Velocity":35,"Duration":178869,"SoundDuration":178869,"Delta":156979216},{"NoteNumber":71,"Velocity":41,"Duration":357738,"SoundDuration":357738,"Delta":157158086},{"NoteNumber":68,"Velocity":45,"Duration":357739,"SoundDuration":357739,"Delta":157515825},{"NoteNumber":62,"Velocity":49,"Duration":711899,"SoundDuration":711899,"Delta":157515825},{"NoteNumber":59,"Velocity":30,"Duration":178869,"SoundDuration":178869,"Delta":157694694},{"NoteNumber":65,"Velocity":41,"Duration":357106,"SoundDuration":357106,"Delta":157873564},{"NoteNumber":62,"Velocity":46,"Duration":720350,"SoundDuration":720350,"Delta":158230670},{"NoteNumber":56,"Velocity":37,"Duration":179085,"SoundDuration":179085,"Delta":158407956},{"NoteNumber":59,"Velocity":41,"Duration":363979,"SoundDuration":363979,"Delta":158587041},{"NoteNumber":56,"Velocity":40,"Duration":191207,"SoundDuration":191207,"Delta":158951021},{"NoteNumber":53,"Velocity":38,"Duration":199077,"SoundDuration":199077,"Delta":159142229},{"NoteNumber":50,"Velocity":36,"Duration":207186,"SoundDuration":207186,"Delta":159341307},{"NoteNumber":47,"Velocity":34,"Duration":234888,"SoundDuration":234888,"Delta":159548493},{"NoteNumber":61,"Velocity":36,"Duration":360975,"SoundDuration":360975,"Delta":159783382},{"NoteNumber":49,"Velocity":36,"Duration":2648892,"SoundDuration":2648892,"Delta":159783382},{"NoteNumber":42,"Velocity":36,"Duration":2875893,"SoundDuration":2875893,"Delta":159783382},{"NoteNumber":58,"Velocity":30,"Duration":180232,"SoundDuration":180232,"Delta":159964125},{"NoteNumber":63,"Velocity":29,"Duration":357674,"SoundDuration":357674,"Delta":160144358},{"NoteNumber":65,"Velocity":37,"Duration":353876,"SoundDuration":353876,"Delta":160502032},{"NoteNumber":58,"Velocity":30,"Duration":176416,"SoundDuration":176416,"Delta":160679492},{"NoteNumber":66,"Velocity":39,"Duration":350157,"SoundDuration":350157,"Delta":160855909},{"NoteNumber":68,"Velocity":41,"Duration":347382,"SoundDuration":347382,"Delta":161206067},{"NoteNumber":58,"Velocity":36,"Duration":173691,"SoundDuration":173691,"Delta":161379758},{"NoteNumber":70,"Velocity":43,"Duration":347383,"SoundDuration":347383,"Delta":161553450},{"NoteNumber":71,"Velocity":44,"Duration":347383,"SoundDuration":347383,"Delta":161900833},{"NoteNumber":58,"Velocity":30,"Duration":173691,"SoundDuration":173691,"Delta":162074524},{"NoteNumber":72,"Velocity":43,"Duration":411059,"SoundDuration":411059,"Delta":162248216},{"NoteNumber":49,"Velocity":37,"Duration":227000,"SoundDuration":227000,"Delta":162432275},{"NoteNumber":36,"Velocity":45,"Duration":2254051,"SoundDuration":2254051,"Delta":162659275},{"NoteNumber":52,"Velocity":45,"Duration":2254051,"SoundDuration":2254051,"Delta":162659275},{"NoteNumber":73,"Velocity":50,"Duration":364254,"SoundDuration":364254,"Delta":162672934},{"NoteNumber":58,"Velocity":35,"Duration":182127,"SoundDuration":182127,"Delta":162841402},{"NoteNumber":70,"Velocity":41,"Duration":365268,"SoundDuration":365268,"Delta":163023529},{"NoteNumber":67,"Velocity":45,"Duration":371011,"SoundDuration":371011,"Delta":163388797},{"NoteNumber":61,"Velocity":41,"Duration":737385,"SoundDuration":737385,"Delta":163388797},{"NoteNumber":58,"Velocity":30,"Duration":185505,"SoundDuration":185505,"Delta":163574303},{"NoteNumber":64,"Velocity":41,"Duration":371011,"SoundDuration":371011,"Delta":163759809},{"NoteNumber":61,"Velocity":43,"Duration":387797,"SoundDuration":387797,"Delta":164130820},{"NoteNumber":55,"Velocity":33,"Duration":193898,"SoundDuration":193898,"Delta":164324719},{"NoteNumber":58,"Velocity":41,"Duration":394708,"SoundDuration":394708,"Delta":164518618},{"NoteNumber":57,"Velocity":46,"Duration":809217,"SoundDuration":809217,"Delta":164913326},{"NoteNumber":41,"Velocity":34,"Duration":921627,"SoundDuration":921627,"Delta":164913326},{"NoteNumber":53,"Velocity":32,"Duration":510843,"SoundDuration":510843,"Delta":165211700},{"NoteNumber":51,"Velocity":27,"Duration":194082,"SoundDuration":194082,"Delta":165528461},{"NoteNumber":58,"Velocity":36,"Duration":112410,"SoundDuration":112410,"Delta":165722544},{"NoteNumber":53,"Velocity":34,"Duration":371195,"SoundDuration":371195,"Delta":165834954},{"NoteNumber":58,"Velocity":36,"Duration":371195,"SoundDuration":371195,"Delta":165834954},{"NoteNumber":34,"Velocity":40,"Duration":2184560,"SoundDuration":2184560,"Delta":165834954},{"NoteNumber":46,"Velocity":40,"Duration":2184560,"SoundDuration":2184560,"Delta":165834954},{"NoteNumber":50,"Velocity":24,"Duration":185597,"SoundDuration":185597,"Delta":166020551},{"NoteNumber":55,"Velocity":35,"Duration":371195,"SoundDuration":371195,"Delta":166206149},{"NoteNumber":57,"Velocity":36,"Duration":371195,"SoundDuration":371195,"Delta":166568064},{"NoteNumber":50,"Velocity":30,"Duration":185597,"SoundDuration":185597,"Delta":166762941},{"NoteNumber":58,"Velocity":37,"Duration":367768,"SoundDuration":367768,"Delta":166946992},{"NoteNumber":60,"Velocity":38,"Duration":353975,"SoundDuration":353975,"Delta":167320690},{"NoteNumber":50,"Velocity":28,"Duration":176387,"SoundDuration":176387,"Delta":167493883},{"NoteNumber":62,"Velocity":42,"Duration":349210,"SoundDuration":349210,"Delta":167673201},{"NoteNumber":63,"Velocity":46,"Duration":343866,"SoundDuration":343866,"Delta":168009378},{"NoteNumber":48,"Velocity":47,"Duration":734319,"SoundDuration":734319,"Delta":168019515},{"NoteNumber":32,"Velocity":47,"Duration":734319,"SoundDuration":734319,"Delta":168019515},{"NoteNumber":50,"Velocity":29,"Duration":170666,"SoundDuration":170666,"Delta":168192320},{"NoteNumber":65,"Velocity":54,"Duration":390070,"SoundDuration":390070,"Delta":168371176},{"NoteNumber":47,"Velocity":50,"Duration":2134725,"SoundDuration":2134725,"Delta":168753834},{"NoteNumber":31,"Velocity":50,"Duration":2134725,"SoundDuration":2134725,"Delta":168753834},{"NoteNumber":67,"Velocity":62,"Duration":1408325,"SoundDuration":1408325,"Delta":168768659},{"NoteNumber":50,"Velocity":35,"Duration":177893,"SoundDuration":177893,"Delta":168931728},{"NoteNumber":65,"Velocity":59,"Duration":355787,"SoundDuration":355787,"Delta":169109622},{"NoteNumber":63,"Velocity":56,"Duration":355787,"SoundDuration":355787,"Delta":169465409},{"NoteNumber":50,"Velocity":32,"Duration":177893,"SoundDuration":177893,"Delta":169643303},{"NoteNumber":62,"Velocity":50,"Duration":355787,"SoundDuration":355787,"Delta":169821197},{"NoteNumber":67,"Velocity":59,"Duration":711575,"SoundDuration":711575,"Delta":170176984},{"NoteNumber":60,"Velocity":43,"Duration":355787,"SoundDuration":355787,"Delta":170176984},{"NoteNumber":50,"Velocity":30,"Duration":177893,"SoundDuration":177893,"Delta":170354878},{"NoteNumber":59,"Velocity":41,"Duration":355787,"SoundDuration":355787,"Delta":170532772},{"NoteNumber":69,"Velocity":55,"Duration":351617,"SoundDuration":351617,"Delta":170888559},{"NoteNumber":57,"Velocity":43,"Duration":351617,"SoundDuration":351617,"Delta":170888559},{"NoteNumber":50,"Velocity":30,"Duration":175808,"SoundDuration":175808,"Delta":171064368},{"NoteNumber":71,"Velocity":59,"Duration":395133,"SoundDuration":395133,"Delta":171240177},{"NoteNumber":55,"Velocity":40,"Duration":395133,"SoundDuration":395133,"Delta":171240177},{"NoteNumber":63,"Velocity":60,"Duration":1882966,"SoundDuration":1882966,"Delta":171529408},{"NoteNumber":48,"Velocity":45,"Duration":360851,"SoundDuration":360851,"Delta":171630015},{"NoteNumber":75,"Velocity":69,"Duration":1777063,"SoundDuration":1777063,"Delta":171635310},{"NoteNumber":36,"Velocity":31,"Duration":180028,"SoundDuration":180028,"Delta":171815339},{"NoteNumber":50,"Velocity":42,"Duration":360057,"SoundDuration":360057,"Delta":171984866},{"NoteNumber":51,"Velocity":47,"Duration":353690,"SoundDuration":353690,"Delta":172364268},{"NoteNumber":48,"Velocity":32,"Duration":176845,"SoundDuration":176845,"Delta":172532270},{"NoteNumber":53,"Velocity":42,"Duration":353672,"SoundDuration":353672,"Delta":172710589},{"NoteNumber":55,"Velocity":48,"Duration":349569,"SoundDuration":349569,"Delta":173068632},{"NoteNumber":48,"Velocity":32,"Duration":174784,"SoundDuration":174784,"Delta":173237590},{"NoteNumber":74,"Velocity":51,"Duration":494461,"SoundDuration":494461,"Delta":173412374},{"NoteNumber":57,"Velocity":39,"Duration":349885,"SoundDuration":349885,"Delta":173421114},{"NoteNumber":59,"Velocity":42,"Duration":241270,"SoundDuration":241270,"Delta":173761943},{"NoteNumber":72,"Velocity":55,"Duration":144859,"SoundDuration":144859,"Delta":173906836},{"NoteNumber":60,"Velocity":47,"Duration":248671,"SoundDuration":248671,"Delta":174003214},{"NoteNumber":70,"Velocity":53,"Duration":149073,"SoundDuration":149073,"Delta":174051696},{"NoteNumber":69,"Velocity":51,"Duration":159548,"SoundDuration":159548,"Delta":174200769},{"NoteNumber":62,"Velocity":52,"Duration":287360,"SoundDuration":287360,"Delta":174251885},{"NoteNumber":67,"Velocity":50,"Duration":178927,"SoundDuration":178927,"Delta":174360318},{"NoteNumber":65,"Velocity":59,"Duration":2277736,"SoundDuration":2277736,"Delta":174539246},{"NoteNumber":63,"Velocity":59,"Duration":366658,"SoundDuration":366658,"Delta":174539246},{"NoteNumber":57,"Velocity":57,"Duration":1432455,"SoundDuration":1432455,"Delta":174539246},{"NoteNumber":41,"Velocity":57,"Duration":2943095,"SoundDuration":2943095,"Delta":174539246},{"NoteNumber":53,"Velocity":32,"Duration":183329,"SoundDuration":183329,"Delta":174722575},{"NoteNumber":62,"Velocity":53,"Duration":366658,"SoundDuration":366658,"Delta":174905904},{"NoteNumber":60,"Velocity":49,"Duration":349569,"SoundDuration":349569,"Delta":175272563},{"NoteNumber":53,"Velocity":32,"Duration":174784,"SoundDuration":174784,"Delta":175447347},{"NoteNumber":58,"Velocity":48,"Duration":349569,"SoundDuration":349569,"Delta":175622132},{"NoteNumber":57,"Velocity":47,"Duration":349569,"SoundDuration":349569,"Delta":175971701},{"NoteNumber":53,"Velocity":32,"Duration":174784,"SoundDuration":174784,"Delta":176146485},{"NoteNumber":55,"Velocity":43,"Duration":350006,"SoundDuration":350006,"Delta":176321270},{"NoteNumber":53,"Velocity":46,"Duration":182693,"SoundDuration":182693,"Delta":176671276},{"NoteNumber":67,"Velocity":42,"Duration":149333,"SoundDuration":149333,"Delta":176816983},{"NoteNumber":51,"Velocity":45,"Duration":188637,"SoundDuration":188637,"Delta":176853969},{"NoteNumber":69,"Velocity":46,"Duration":155310,"SoundDuration":155310,"Delta":176966316},{"NoteNumber":50,"Velocity":44,"Duration":204033,"SoundDuration":204033,"Delta":177042607},{"NoteNumber":70,"Velocity":50,"Duration":168111,"SoundDuration":168111,"Delta":177121626},{"NoteNumber":48,"Velocity":42,"Duration":235701,"SoundDuration":235701,"Delta":177246640},{"NoteNumber":72,"Velocity":54,"Duration":192603,"SoundDuration":192603,"Delta":177289738},{"NoteNumber":74,"Velocity":59,"Duration":351617,"SoundDuration":351617,"Delta":177482341},{"NoteNumber":34,"Velocity":34,"Duration":727099,"SoundDuration":727099,"Delta":177482341},{"NoteNumber":46,"Velocity":41,"Duration":727099,"SoundDuration":727099,"Delta":177482341},{"NoteNumber":62,"Velocity":32,"Duration":175808,"SoundDuration":175808,"Delta":177658150},{"NoteNumber":72,"Velocity":55,"Duration":375481,"SoundDuration":375481,"Delta":177833959},{"NoteNumber":70,"Velocity":65,"Duration":373505,"SoundDuration":373505,"Delta":178209440},{"NoteNumber":66,"Velocity":40,"Duration":898883,"SoundDuration":898883,"Delta":178209440},{"NoteNumber":62,"Velocity":37,"Duration":186752,"SoundDuration":186752,"Delta":178396193},{"NoteNumber":69,"Velocity":54,"Duration":349569,"SoundDuration":349569,"Delta":178582946},{"NoteNumber":79,"Velocity":69,"Duration":336966,"SoundDuration":336966,"Delta":178947166},{"NoteNumber":67,"Velocity":30,"Duration":551290,"SoundDuration":551290,"Delta":179108324},{"NoteNumber":77,"Velocity":56,"Duration":375481,"SoundDuration":375481,"Delta":179284133},{"NoteNumber":75,"Velocity":64,"Duration":373505,"SoundDuration":373505,"Delta":179659614},{"NoteNumber":69,"Velocity":32,"Duration":373505,"SoundDuration":373505,"Delta":179659614},{"NoteNumber":65,"Velocity":32,"Duration":186752,"SoundDuration":186752,"Delta":179846367},{"NoteNumber":74,"Velocity":54,"Duration":349569,"SoundDuration":349569,"Delta":180033120},{"NoteNumber":70,"Velocity":30,"Duration":349569,"SoundDuration":349569,"Delta":180033120},{"NoteNumber":72,"Velocity":59,"Duration":351617,"SoundDuration":351617,"Delta":180382689},{"NoteNumber":46,"Velocity":41,"Duration":727099,"SoundDuration":727099,"Delta":180382689},{"NoteNumber":60,"Velocity":32,"Duration":175808,"SoundDuration":175808,"Delta":180558498},{"NoteNumber":70,"Velocity":51,"Duration":375481,"SoundDuration":375481,"Delta":180734307},{"NoteNumber":68,"Velocity":57,"Duration":373505,"SoundDuration":373505,"Delta":181109788},{"NoteNumber":63,"Velocity":40,"Duration":898883,"SoundDuration":898883,"Delta":181109788},{"NoteNumber":60,"Velocity":32,"Duration":186752,"SoundDuration":186752,"Delta":181296541},{"NoteNumber":67,"Velocity":52,"Duration":349569,"SoundDuration":349569,"Delta":181483294},{"NoteNumber":77,"Velocity":65,"Duration":336966,"SoundDuration":336966,"Delta":181847514},{"NoteNumber":65,"Velocity":30,"Duration":551290,"SoundDuration":551290,"Delta":182008672},{"NoteNumber":75,"Velocity":56,"Duration":375481,"SoundDuration":375481,"Delta":182184481},{"NoteNumber":74,"Velocity":64,"Duration":373505,"SoundDuration":373505,"Delta":182559962},{"NoteNumber":67,"Velocity":32,"Duration":373505,"SoundDuration":373505,"Delta":182559962},{"NoteNumber":63,"Velocity":32,"Duration":186752,"SoundDuration":186752,"Delta":182746715},{"NoteNumber":72,"Velocity":54,"Duration":349569,"SoundDuration":349569,"Delta":182933468},{"NoteNumber":68,"Velocity":30,"Duration":349569,"SoundDuration":349569,"Delta":182933468},{"NoteNumber":70,"Velocity":59,"Duration":351617,"SoundDuration":351617,"Delta":183283037},{"NoteNumber":46,"Velocity":41,"Duration":1461095,"SoundDuration":1461095,"Delta":183283037},{"NoteNumber":62,"Velocity":32,"Duration":175808,"SoundDuration":175808,"Delta":183458846},{"NoteNumber":68,"Velocity":51,"Duration":375481,"SoundDuration":375481,"Delta":183634655},{"NoteNumber":67,"Velocity":57,"Duration":373505,"SoundDuration":373505,"Delta":184010136},{"NoteNumber":56,"Velocity":32,"Duration":186752,"SoundDuration":186752,"Delta":184196889},{"NoteNumber":66,"Velocity":52,"Duration":360490,"SoundDuration":360490,"Delta":184383642},{"NoteNumber":34,"Velocity":41,"Duration":360490,"SoundDuration":360490,"Delta":184383642},{"NoteNumber":67,"Velocity":59,"Duration":367107,"SoundDuration":367107,"Delta":184744133},{"NoteNumber":39,"Velocity":41,"Duration":752415,"SoundDuration":752415,"Delta":184744133},{"NoteNumber":55,"Velocity":32,"Duration":183553,"SoundDuration":183553,"Delta":184927686},{"NoteNumber":63,"Velocity":51,"Duration":385308,"SoundDuration":385308,"Delta":185111240},{"NoteNumber":62,"Velocity":53,"Duration":381097,"SoundDuration":381097,"Delta":185496548},{"NoteNumber":33,"Velocity":29,"Duration":802327,"SoundDuration":802327,"Delta":185496548},{"NoteNumber":45,"Velocity":35,"Duration":2006852,"SoundDuration":2006852,"Delta":185496548},{"NoteNumber":55,"Velocity":32,"Duration":190548,"SoundDuration":190548,"Delta":185687097},{"NoteNumber":61,"Velocity":48,"Duration":421230,"SoundDuration":421230,"Delta":185877645},{"NoteNumber":62,"Velocity":53,"Duration":262811,"SoundDuration":262811,"Delta":186298875},{"NoteNumber":38,"Velocity":36,"Duration":1691537,"SoundDuration":1691537,"Delta":186298875},{"NoteNumber":57,"Velocity":41,"Duration":262811,"SoundDuration":262811,"Delta":186561687},{"NoteNumber":55,"Velocity":41,"Duration":262811,"SoundDuration":262811,"Delta":186824499},{"NoteNumber":54,"Velocity":48,"Duration":416088,"SoundDuration":416088,"Delta":187087311},{"NoteNumber":55,"Velocity":34,"Duration":487012,"SoundDuration":487012,"Delta":187503400},{"NoteNumber":52,"Velocity":28,"Duration":487012,"SoundDuration":487012,"Delta":187503400},{"NoteNumber":46,"Velocity":31,"Duration":487012,"SoundDuration":487012,"Delta":187503400},{"NoteNumber":38,"Velocity":35,"Duration":936970,"SoundDuration":936970,"Delta":187868660},{"NoteNumber":54,"Velocity":40,"Duration":815216,"SoundDuration":815216,"Delta":187990413},{"NoteNumber":57,"Velocity":48,"Duration":815216,"SoundDuration":815216,"Delta":187990413},{"NoteNumber":62,"Velocity":48,"Duration":815216,"SoundDuration":815216,"Delta":187990413},{"NoteNumber":45,"Velocity":41,"Duration":815216,"SoundDuration":815216,"Delta":187990413},{"NoteNumber":50,"Velocity":46,"Duration":63025,"SoundDuration":63025,"Delta":189105630},{"NoteNumber":38,"Velocity":42,"Duration":63025,"SoundDuration":63025,"Delta":189105630},{"NoteNumber":55,"Velocity":50,"Duration":75471,"SoundDuration":75471,"Delta":189357731},{"NoteNumber":43,"Velocity":50,"Duration":1479800,"SoundDuration":1479800,"Delta":189357731},{"NoteNumber":31,"Velocity":42,"Duration":1479800,"SoundDuration":1479800,"Delta":189357731},{"NoteNumber":50,"Velocity":35,"Duration":75471,"SoundDuration":75471,"Delta":189433203},{"NoteNumber":57,"Velocity":35,"Duration":75471,"SoundDuration":75471,"Delta":189508675},{"NoteNumber":58,"Velocity":50,"Duration":66666,"SoundDuration":66666,"Delta":189584146},{"NoteNumber":57,"Velocity":50,"Duration":75757,"SoundDuration":75757,"Delta":189850813},{"NoteNumber":50,"Velocity":38,"Duration":75757,"SoundDuration":75757,"Delta":189926570},{"NoteNumber":58,"Velocity":39,"Duration":75757,"SoundDuration":75757,"Delta":190002328},{"NoteNumber":60,"Velocity":50,"Duration":66964,"SoundDuration":66964,"Delta":190078085},{"NoteNumber":58,"Velocity":50,"Duration":75757,"SoundDuration":75757,"Delta":190345942},{"NoteNumber":50,"Velocity":36,"Duration":75757,"SoundDuration":75757,"Delta":190421700},{"NoteNumber":60,"Velocity":36,"Duration":75757,"SoundDuration":75757,"Delta":190497457},{"NoteNumber":62,"Velocity":50,"Duration":66079,"SoundDuration":66079,"Delta":190573215},{"NoteNumber":55,"Velocity":50,"Duration":75757,"SoundDuration":75757,"Delta":190837532},{"NoteNumber":50,"Velocity":37,"Duration":75757,"SoundDuration":75757,"Delta":190913289},{"NoteNumber":57,"Velocity":37,"Duration":75757,"SoundDuration":75757,"Delta":190989047},{"NoteNumber":58,"Velocity":50,"Duration":66079,"SoundDuration":66079,"Delta":191064804},{"NoteNumber":34,"Velocity":37,"Duration":66079,"SoundDuration":66079,"Delta":191064804},{"NoteNumber":46,"Velocity":44,"Duration":66079,"SoundDuration":66079,"Delta":191064804},{"NoteNumber":57,"Velocity":50,"Duration":75757,"SoundDuration":75757,"Delta":191329121},{"NoteNumber":36,"Velocity":42,"Duration":113636,"SoundDuration":113636,"Delta":191329121},{"NoteNumber":48,"Velocity":50,"Duration":113636,"SoundDuration":113636,"Delta":191329121},{"NoteNumber":51,"Velocity":38,"Duration":75757,"SoundDuration":75757,"Delta":191404879},{"NoteNumber":58,"Velocity":38,"Duration":75757,"SoundDuration":75757,"Delta":191480636},{"NoteNumber":60,"Velocity":50,"Duration":65789,"SoundDuration":65789,"Delta":191556394},{"NoteNumber":54,"Velocity":50,"Duration":76045,"SoundDuration":76045,"Delta":191819552},{"NoteNumber":38,"Velocity":40,"Duration":114068,"SoundDuration":114068,"Delta":191819552},{"NoteNumber":50,"Velocity":48,"Duration":114068,"SoundDuration":114068,"Delta":191819552},{"NoteNumber":48,"Velocity":37,"Duration":76045,"SoundDuration":76045,"Delta":191895598},{"NoteNumber":55,"Velocity":37,"Duration":76045,"SoundDuration":76045,"Delta":191971643},{"NoteNumber":57,"Velocity":50,"Duration":65217,"SoundDuration":65217,"Delta":192047689},{"NoteNumber":55,"Velocity":50,"Duration":76045,"SoundDuration":76045,"Delta":192308558},{"NoteNumber":31,"Velocity":42,"Duration":228137,"SoundDuration":228137,"Delta":192308558},{"NoteNumber":43,"Velocity":50,"Duration":228137,"SoundDuration":228137,"Delta":192308558},{"NoteNumber":50,"Velocity":39,"Duration":76045,"SoundDuration":76045,"Delta":192384604},{"NoteNumber":57,"Velocity":39,"Duration":76045,"SoundDuration":76045,"Delta":192460650},{"NoteNumber":58,"Velocity":50,"Duration":64935,"SoundDuration":64935,"Delta":192536695},{"NoteNumber":57,"Velocity":50,"Duration":119047,"SoundDuration":119047,"Delta":192796436},{"NoteNumber":54,"Velocity":44,"Duration":59523,"SoundDuration":59523,"Delta":192975007},{"NoteNumber":50,"Velocity":58,"Duration":63025,"SoundDuration":63025,"Delta":193034531},{"NoteNumber":38,"Velocity":49,"Duration":63025,"SoundDuration":63025,"Delta":193034531},{"NoteNumber":55,"Velocity":50,"Duration":75471,"SoundDuration":75471,"Delta":193286632},{"NoteNumber":31,"Velocity":42,"Duration":1479800,"SoundDuration":1479800,"Delta":193286632},{"NoteNumber":43,"Velocity":50,"Duration":1479800,"SoundDuration":1479800,"Delta":193286632},{"NoteNumber":50,"Velocity":37,"Duration":75471,"SoundDuration":75471,"Delta":193362104},{"NoteNumber":57,"Velocity":37,"Duration":75471,"SoundDuration":75471,"Delta":193437575},{"NoteNumber":58,"Velocity":50,"Duration":66666,"SoundDuration":66666,"Delta":193513047},{"NoteNumber":57,"Velocity":50,"Duration":75757,"SoundDuration":75757,"Delta":193779713},{"NoteNumber":50,"Velocity":39,"Duration":75757,"SoundDuration":75757,"Delta":193855471},{"NoteNumber":58,"Velocity":39,"Duration":75757,"SoundDuration":75757,"Delta":193931228},{"NoteNumber":60,"Velocity":50,"Duration":66964,"SoundDuration":66964,"Delta":194006986},{"NoteNumber":58,"Velocity":50,"Duration":75757,"SoundDuration":75757,"Delta":194274843},{"NoteNumber":50,"Velocity":37,"Duration":75757,"SoundDuration":75757,"Delta":194350600},{"NoteNumber":60,"Velocity":37,"Duration":75757,"SoundDuration":75757,"Delta":194426358},{"NoteNumber":62,"Velocity":50,"Duration":66079,"SoundDuration":66079,"Delta":194502115},{"NoteNumber":55,"Velocity":50,"Duration":75757,"SoundDuration":75757,"Delta":194766432},{"NoteNumber":50,"Velocity":39,"Duration":75757,"SoundDuration":75757,"Delta":194842190},{"NoteNumber":57,"Velocity":39,"Duration":75757,"SoundDuration":75757,"Delta":194917947},{"NoteNumber":58,"Velocity":50,"Duration":66079,"SoundDuration":66079,"Delta":194993705},{"NoteNumber":34,"Velocity":37,"Duration":66079,"SoundDuration":66079,"Delta":194993705},{"NoteNumber":46,"Velocity":44,"Duration":66079,"SoundDuration":66079,"Delta":194993705},{"NoteNumber":57,"Velocity":50,"Duration":75757,"SoundDuration":75757,"Delta":195258022},{"NoteNumber":36,"Velocity":42,"Duration":113636,"SoundDuration":113636,"Delta":195258022},{"NoteNumber":48,"Velocity":50,"Duration":113636,"SoundDuration":113636,"Delta":195258022},{"NoteNumber":51,"Velocity":39,"Duration":75757,"SoundDuration":75757,"Delta":195333779},{"NoteNumber":58,"Velocity":39,"Duration":75757,"SoundDuration":75757,"Delta":195409537},{"NoteNumber":60,"Velocity":50,"Duration":65789,"SoundDuration":65789,"Delta":195485294},{"NoteNumber":59,"Velocity":50,"Duration":76045,"SoundDuration":76045,"Delta":195748452},{"NoteNumber":38,"Velocity":40,"Duration":114068,"SoundDuration":114068,"Delta":195748452},{"NoteNumber":50,"Velocity":48,"Duration":114068,"SoundDuration":114068,"Delta":195748452},{"NoteNumber":50,"Velocity":38,"Duration":76045,"SoundDuration":76045,"Delta":195824498},{"NoteNumber":60,"Velocity":38,"Duration":76045,"SoundDuration":76045,"Delta":195900544},{"NoteNumber":62,"Velocity":50,"Duration":65217,"SoundDuration":65217,"Delta":195976589},{"NoteNumber":60,"Velocity":50,"Duration":76045,"SoundDuration":76045,"Delta":196237459},{"NoteNumber":51,"Velocity":50,"Duration":228137,"SoundDuration":228137,"Delta":196237459},{"NoteNumber":39,"Velocity":42,"Duration":228137,"SoundDuration":228137,"Delta":196237459},{"NoteNumber":55,"Velocity":42,"Duration":76045,"SoundDuration":76045,"Delta":196313505},{"NoteNumber":62,"Velocity":44,"Duration":76045,"SoundDuration":76045,"Delta":196389550},{"NoteNumber":63,"Velocity":50,"Duration":60240,"SoundDuration":60240,"Delta":196465596},{"NoteNumber":59,"Velocity":54,"Duration":71942,"SoundDuration":71942,"Delta":196706560},{"NoteNumber":53,"Velocity":50,"Duration":71942,"SoundDuration":71942,"Delta":196778502},{"NoteNumber":60,"Velocity":50,"Duration":71942,"SoundDuration":71942,"Delta":196850445},{"NoteNumber":62,"Velocity":56,"Duration":63829,"SoundDuration":63829,"Delta":196922387},{"NoteNumber":38,"Velocity":35,"Duration":127659,"SoundDuration":127659,"Delta":196922387},{"NoteNumber":50,"Velocity":42,"Duration":127659,"SoundDuration":127659,"Delta":196922387},{"NoteNumber":60,"Velocity":59,"Duration":75757,"SoundDuration":75757,"Delta":197177706},{"NoteNumber":51,"Velocity":55,"Duration":113636,"SoundDuration":113636,"Delta":197177706},{"NoteNumber":39,"Velocity":46,"Duration":113636,"SoundDuration":113636,"Delta":197177706},{"NoteNumber":55,"Velocity":51,"Duration":75757,"SoundDuration":75757,"Delta":197253464},{"NoteNumber":62,"Velocity":51,"Duration":75757,"SoundDuration":75757,"Delta":197329221},{"NoteNumber":63,"Velocity":59,"Duration":65789,"SoundDuration":65789,"Delta":197404979},{"NoteNumber":63,"Velocity":63,"Duration":76045,"SoundDuration":76045,"Delta":197668137},{"NoteNumber":48,"Velocity":57,"Duration":114068,"SoundDuration":114068,"Delta":197668137},{"NoteNumber":36,"Velocity":48,"Duration":114068,"SoundDuration":114068,"Delta":197668137},{"NoteNumber":55,"Velocity":53,"Duration":76045,"SoundDuration":76045,"Delta":197744183},{"NoteNumber":65,"Velocity":54,"Duration":76045,"SoundDuration":76045,"Delta":197820228},{"NoteNumber":67,"Velocity":61,"Duration":65217,"SoundDuration":65217,"Delta":197896274},{"NoteNumber":66,"Velocity":70,"Duration":75757,"SoundDuration":75757,"Delta":198157143},{"NoteNumber":38,"Velocity":50,"Duration":227272,"SoundDuration":227272,"Delta":198157143},{"NoteNumber":50,"Velocity":59,"Duration":227272,"SoundDuration":227272,"Delta":198157143},{"NoteNumber":54,"Velocity":57,"Duration":75757,"SoundDuration":75757,"Delta":198232901},{"NoteNumber":67,"Velocity":57,"Duration":75757,"SoundDuration":75757,"Delta":198308658},{"NoteNumber":69,"Velocity":71,"Duration":65789,"SoundDuration":65789,"Delta":198384416},{"NoteNumber":62,"Velocity":67,"Duration":65789,"SoundDuration":65789,"Delta":198647574},{"NoteNumber":62,"Velocity":73,"Duration":63025,"SoundDuration":63025,"Delta":198910732},{"NoteNumber":50,"Velocity":70,"Duration":63025,"SoundDuration":63025,"Delta":198910732},{"NoteNumber":67,"Velocity":64,"Duration":79176,"SoundDuration":79176,"Delta":199162833},{"NoteNumber":46,"Velocity":64,"Duration":510753,"SoundDuration":510753,"Delta":199162833},{"NoteNumber":55,"Velocity":76,"Duration":510753,"SoundDuration":510753,"Delta":199162833},{"NoteNumber":43,"Velocity":64,"Duration":1025914,"SoundDuration":1025914,"Delta":199162833},{"NoteNumber":62,"Velocity":49,"Duration":79176,"SoundDuration":79176,"Delta":199242009},{"NoteNumber":69,"Velocity":49,"Duration":79176,"SoundDuration":79176,"Delta":199321186},{"NoteNumber":70,"Velocity":64,"Duration":68306,"SoundDuration":68306,"Delta":199400362},{"NoteNumber":69,"Velocity":64,"Duration":79808,"SoundDuration":79808,"Delta":199673586},{"NoteNumber":57,"Velocity":80,"Duration":515161,"SoundDuration":515161,"Delta":199673586},{"NoteNumber":50,"Velocity":68,"Duration":515161,"SoundDuration":515161,"Delta":199673586},{"NoteNumber":62,"Velocity":50,"Duration":79808,"SoundDuration":79808,"Delta":199753395},{"NoteNumber":70,"Velocity":50,"Duration":79808,"SoundDuration":79808,"Delta":199833203},{"NoteNumber":72,"Velocity":64,"Duration":68933,"SoundDuration":68933,"Delta":199913012},{"NoteNumber":70,"Velocity":64,"Duration":80128,"SoundDuration":80128,"Delta":200188747},{"NoteNumber":55,"Velocity":71,"Duration":513608,"SoundDuration":513608,"Delta":200188747},{"NoteNumber":58,"Velocity":84,"Duration":513608,"SoundDuration":513608,"Delta":200188747},{"NoteNumber":62,"Velocity":49,"Duration":80128,"SoundDuration":80128,"Delta":200268876},{"NoteNumber":72,"Velocity":49,"Duration":80128,"SoundDuration":80128,"Delta":200349004},{"NoteNumber":74,"Velocity":64,"Duration":68306,"SoundDuration":68306,"Delta":200429132},{"NoteNumber":67,"Velocity":64,"Duration":78554,"SoundDuration":78554,"Delta":200702356},{"NoteNumber":62,"Velocity":51,"Duration":78554,"SoundDuration":78554,"Delta":200780911},{"NoteNumber":69,"Velocity":51,"Duration":78554,"SoundDuration":78554,"Delta":200859465},{"NoteNumber":70,"Velocity":64,"Duration":67385,"SoundDuration":67385,"Delta":200938020},{"NoteNumber":55,"Velocity":72,"Duration":67385,"SoundDuration":67385,"Delta":200938020},{"NoteNumber":46,"Velocity":61,"Duration":67385,"SoundDuration":67385,"Delta":200938020},{"NoteNumber":69,"Velocity":64,"Duration":78864,"SoundDuration":78864,"Delta":201207562},{"NoteNumber":48,"Velocity":67,"Duration":503734,"SoundDuration":503734,"Delta":201207562},{"NoteNumber":57,"Velocity":79,"Duration":503734,"SoundDuration":503734,"Delta":201207562},{"NoteNumber":55,"Velocity":67,"Duration":503734,"SoundDuration":503734,"Delta":201207562},{"NoteNumber":63,"Velocity":50,"Duration":78864,"SoundDuration":78864,"Delta":201286426},{"NoteNumber":70,"Velocity":50,"Duration":78864,"SoundDuration":78864,"Delta":201365291},{"NoteNumber":72,"Velocity":64,"Duration":66785,"SoundDuration":66785,"Delta":201444155},{"NoteNumber":66,"Velocity":64,"Duration":79176,"SoundDuration":79176,"Delta":201711296},{"NoteNumber":62,"Velocity":77,"Duration":498399,"SoundDuration":498399,"Delta":201711296},{"NoteNumber":54,"Velocity":66,"Duration":498399,"SoundDuration":498399,"Delta":201711296},{"NoteNumber":50,"Velocity":61,"Duration":498399,"SoundDuration":498399,"Delta":201711296},{"NoteNumber":60,"Velocity":50,"Duration":79176,"SoundDuration":79176,"Delta":201790473},{"NoteNumber":67,"Velocity":50,"Duration":79176,"SoundDuration":79176,"Delta":201869649},{"NoteNumber":69,"Velocity":64,"Duration":65217,"SoundDuration":65217,"Delta":201948826},{"NoteNumber":67,"Velocity":64,"Duration":76922,"SoundDuration":76922,"Delta":202209695},{"NoteNumber":55,"Velocity":81,"Duration":473684,"SoundDuration":473684,"Delta":202209695},{"NoteNumber":46,"Velocity":68,"Duration":473684,"SoundDuration":473684,"Delta":202209695},{"NoteNumber":50,"Velocity":68,"Duration":473684,"SoundDuration":473684,"Delta":202209695},{"NoteNumber":62,"Velocity":51,"Duration":76922,"SoundDuration":76922,"Delta":202286618},{"NoteNumber":69,"Velocity":51,"Duration":76923,"SoundDuration":76923,"Delta":202363541},{"NoteNumber":70,"Velocity":64,"Duration":60728,"SoundDuration":60728,"Delta":202440464},{"NoteNumber":69,"Velocity":64,"Duration":114942,"SoundDuration":114942,"Delta":202683379},{"NoteNumber":66,"Velocity":52,"Duration":57471,"SoundDuration":57471,"Delta":202855793},{"NoteNumber":62,"Velocity":62,"Duration":63025,"SoundDuration":63025,"Delta":202913264},{"NoteNumber":50,"Velocity":71,"Duration":63025,"SoundDuration":63025,"Delta":202913264},{"NoteNumber":67,"Velocity":64,"Duration":77519,"SoundDuration":77519,"Delta":203165365},{"NoteNumber":43,"Velocity":68,"Duration":999639,"SoundDuration":999639,"Delta":203165365},{"NoteNumber":46,"Velocity":68,"Duration":499224,"SoundDuration":499224,"Delta":203165365},{"NoteNumber":55,"Velocity":80,"Duration":499224,"SoundDuration":499224,"Delta":203165365},{"NoteNumber":62,"Velocity":49,"Duration":77519,"SoundDuration":77519,"Delta":203242885},{"NoteNumber":69,"Velocity":49,"Duration":77519,"SoundDuration":77519,"Delta":203320404},{"NoteNumber":70,"Velocity":64,"Duration":66666,"SoundDuration":66666,"Delta":203397923},{"NoteNumber":69,"Velocity":64,"Duration":77519,"SoundDuration":77519,"Delta":203664590},{"NoteNumber":57,"Velocity":81,"Duration":500415,"SoundDuration":500415,"Delta":203664590},{"NoteNumber":50,"Velocity":68,"Duration":500415,"SoundDuration":500415,"Delta":203664590},{"NoteNumber":62,"Velocity":52,"Duration":77519,"SoundDuration":77519,"Delta":203742109},{"NoteNumber":70,"Velocity":52,"Duration":77519,"SoundDuration":77519,"Delta":203819629},{"NoteNumber":72,"Velocity":64,"Duration":66964,"SoundDuration":66964,"Delta":203897148},{"NoteNumber":70,"Velocity":64,"Duration":77519,"SoundDuration":77519,"Delta":204165005},{"NoteNumber":55,"Velocity":72,"Duration":521742,"SoundDuration":521742,"Delta":204165005},{"NoteNumber":58,"Velocity":85,"Duration":521742,"SoundDuration":521742,"Delta":204165005},{"NoteNumber":62,"Velocity":49,"Duration":77519,"SoundDuration":77519,"Delta":204242524},{"NoteNumber":72,"Velocity":49,"Duration":77519,"SoundDuration":77519,"Delta":204320044},{"NoteNumber":74,"Velocity":64,"Duration":72296,"SoundDuration":72296,"Delta":204397563},{"NoteNumber":75,"Velocity":71,"Duration":71561,"SoundDuration":71561,"Delta":204686747},{"NoteNumber":67,"Velocity":51,"Duration":71561,"SoundDuration":71561,"Delta":204758309},{"NoteNumber":77,"Velocity":51,"Duration":71561,"SoundDuration":71561,"Delta":204829870},{"NoteNumber":79,"Velocity":64,"Duration":66079,"SoundDuration":66079,"Delta":204901432},{"NoteNumber":51,"Velocity":53,"Duration":66079,"SoundDuration":66079,"Delta":204901432},{"NoteNumber":39,"Velocity":45,"Duration":66079,"SoundDuration":66079,"Delta":204901432},{"NoteNumber":69,"Velocity":59,"Duration":77821,"SoundDuration":77821,"Delta":205165749},{"NoteNumber":53,"Velocity":74,"Duration":116731,"SoundDuration":116731,"Delta":205165749},{"NoteNumber":41,"Velocity":62,"Duration":116731,"SoundDuration":116731,"Delta":205165749},{"NoteNumber":60,"Velocity":46,"Duration":77821,"SoundDuration":77821,"Delta":205243570},{"NoteNumber":70,"Velocity":51,"Duration":77821,"SoundDuration":77821,"Delta":205321391},{"NoteNumber":72,"Velocity":59,"Duration":70928,"SoundDuration":70928,"Delta":205399212},{"NoteNumber":74,"Velocity":71,"Duration":72077,"SoundDuration":72077,"Delta":205669963},{"NoteNumber":34,"Velocity":55,"Duration":108115,"SoundDuration":108115,"Delta":205669963},{"NoteNumber":46,"Velocity":65,"Duration":108115,"SoundDuration":108115,"Delta":205669963},{"NoteNumber":65,"Velocity":53,"Duration":72077,"SoundDuration":72077,"Delta":205742041},{"NoteNumber":75,"Velocity":53,"Duration":72077,"SoundDuration":72077,"Delta":205814118},{"NoteNumber":77,"Velocity":65,"Duration":65217,"SoundDuration":65217,"Delta":205886195},{"NoteNumber":67,"Velocity":59,"Duration":77821,"SoundDuration":77821,"Delta":206147065},{"NoteNumber":51,"Velocity":75,"Duration":233463,"SoundDuration":233463,"Delta":206147065},{"NoteNumber":39,"Velocity":63,"Duration":233463,"SoundDuration":233463,"Delta":206147065},{"NoteNumber":58,"Velocity":47,"Duration":77821,"SoundDuration":77821,"Delta":206224886},{"NoteNumber":69,"Velocity":47,"Duration":77821,"SoundDuration":77821,"Delta":206302707},{"NoteNumber":70,"Velocity":59,"Duration":61074,"SoundDuration":61074,"Delta":206380528},{"NoteNumber":72,"Velocity":68,"Duration":73670,"SoundDuration":73670,"Delta":206624827},{"NoteNumber":63,"Velocity":54,"Duration":73670,"SoundDuration":73670,"Delta":206698498},{"NoteNumber":74,"Velocity":54,"Duration":73670,"SoundDuration":73670,"Delta":206772168},{"NoteNumber":75,"Velocity":66,"Duration":63829,"SoundDuration":63829,"Delta":206845838},{"NoteNumber":33,"Velocity":68,"Duration":255318,"SoundDuration":255318,"Delta":206845838},{"NoteNumber":45,"Velocity":81,"Duration":255318,"SoundDuration":255318,"Delta":206845838},{"NoteNumber":66,"Velocity":59,"Duration":76922,"SoundDuration":76922,"Delta":207101157},{"NoteNumber":50,"Velocity":74,"Duration":493927,"SoundDuration":493927,"Delta":207101157},{"NoteNumber":38,"Velocity":62,"Duration":493927,"SoundDuration":493927,"Delta":207101157},{"NoteNumber":57,"Velocity":46,"Duration":76922,"SoundDuration":76922,"Delta":207178080},{"NoteNumber":67,"Velocity":46,"Duration":76923,"SoundDuration":76923,"Delta":207255003},{"NoteNumber":69,"Velocity":58,"Duration":65789,"SoundDuration":65789,"Delta":207331926},{"NoteNumber":72,"Velocity":66,"Duration":76045,"SoundDuration":76045,"Delta":207595084},{"NoteNumber":63,"Velocity":51,"Duration":76045,"SoundDuration":76045,"Delta":207671130},{"NoteNumber":74,"Velocity":51,"Duration":76045,"SoundDuration":76045,"Delta":207747176},{"NoteNumber":75,"Velocity":65,"Duration":65217,"SoundDuration":65217,"Delta":207823221},{"NoteNumber":44,"Velocity":77,"Duration":260869,"SoundDuration":260869,"Delta":207823221},{"NoteNumber":32,"Velocity":65,"Duration":260869,"SoundDuration":260869,"Delta":207823221},{"NoteNumber":66,"Velocity":62,"Duration":76335,"SoundDuration":76335,"Delta":208084091},{"NoteNumber":50,"Velocity":68,"Duration":492165,"SoundDuration":492165,"Delta":208084091},{"NoteNumber":38,"Velocity":57,"Duration":492165,"SoundDuration":492165,"Delta":208084091},{"NoteNumber":57,"Velocity":51,"Duration":76335,"SoundDuration":76335,"Delta":208160427},{"NoteNumber":67,"Velocity":46,"Duration":76335,"SoundDuration":76335,"Delta":208236762},{"NoteNumber":69,"Velocity":60,"Duration":65789,"SoundDuration":65789,"Delta":208313098},{"NoteNumber":72,"Velocity":66,"Duration":76045,"SoundDuration":76045,"Delta":208576256},{"NoteNumber":63,"Velocity":50,"Duration":76045,"SoundDuration":76045,"Delta":208652302},{"NoteNumber":74,"Velocity":50,"Duration":76045,"SoundDuration":76045,"Delta":208728348},{"NoteNumber":75,"Velocity":65,"Duration":65217,"SoundDuration":65217,"Delta":208804393},{"NoteNumber":33,"Velocity":65,"Duration":260869,"SoundDuration":260869,"Delta":208804393},{"NoteNumber":45,"Velocity":77,"Duration":260869,"SoundDuration":260869,"Delta":208804393},{"NoteNumber":66,"Velocity":66,"Duration":77978,"SoundDuration":77978,"Delta":209065263},{"NoteNumber":38,"Velocity":57,"Duration":1501260,"SoundDuration":1501260,"Delta":209065263},{"NoteNumber":50,"Velocity":68,"Duration":998561,"SoundDuration":998561,"Delta":209065263},{"NoteNumber":57,"Velocity":53,"Duration":77978,"SoundDuration":77978,"Delta":209143242},{"NoteNumber":67,"Velocity":53,"Duration":77978,"SoundDuration":77978,"Delta":209221220},{"NoteNumber":69,"Velocity":64,"Duration":64800,"SoundDuration":64800,"Delta":209299199},{"NoteNumber":60,"Velocity":59,"Duration":80166,"SoundDuration":80166,"Delta":209558401},{"NoteNumber":57,"Velocity":47,"Duration":80166,"SoundDuration":80166,"Delta":209638567},{"NoteNumber":62,"Velocity":47,"Duration":80166,"SoundDuration":80166,"Delta":209718734},{"NoteNumber":63,"Velocity":56,"Duration":66230,"SoundDuration":66230,"Delta":209798901},{"NoteNumber":54,"Velocity":51,"Duration":79846,"SoundDuration":79846,"Delta":210063825},{"NoteNumber":50,"Velocity":43,"Duration":79846,"SoundDuration":79846,"Delta":210143671},{"NoteNumber":55,"Velocity":43,"Duration":79846,"SoundDuration":79846,"Delta":210223518},{"NoteNumber":57,"Velocity":52,"Duration":65789,"SoundDuration":65789,"Delta":210303365},{"NoteNumber":50,"Velocity":50,"Duration":65789,"SoundDuration":65789,"Delta":210566523},{"NoteNumber":50,"Velocity":52,"Duration":63025,"SoundDuration":63025,"Delta":210829681},{"NoteNumber":38,"Velocity":52,"Duration":63025,"SoundDuration":63025,"Delta":210829681},{"NoteNumber":55,"Velocity":50,"Duration":75471,"SoundDuration":75471,"Delta":211081782},{"NoteNumber":31,"Velocity":42,"Duration":1479800,"SoundDuration":1479800,"Delta":211081782},{"NoteNumber":43,"Velocity":50,"Duration":1479800,"SoundDuration":1479800,"Delta":211081782},{"NoteNumber":50,"Velocity":38,"Duration":75471,"SoundDuration":75471,"Delta":211157253},{"NoteNumber":57,"Velocity":39,"Duration":75471,"SoundDuration":75471,"Delta":211232725},{"NoteNumber":58,"Velocity":50,"Duration":66666,"SoundDuration":66666,"Delta":211308197},{"NoteNumber":57,"Velocity":50,"Duration":75757,"SoundDuration":75757,"Delta":211574863},{"NoteNumber":50,"Velocity":39,"Duration":75757,"SoundDuration":75757,"Delta":211650621},{"NoteNumber":58,"Velocity":39,"Duration":75757,"SoundDuration":75757,"Delta":211726378},{"NoteNumber":60,"Velocity":50,"Duration":66964,"SoundDuration":66964,"Delta":211802136},{"NoteNumber":58,"Velocity":50,"Duration":75757,"SoundDuration":75757,"Delta":212069993},{"NoteNumber":50,"Velocity":38,"Duration":75757,"SoundDuration":75757,"Delta":212145750},{"NoteNumber":60,"Velocity":38,"Duration":75757,"SoundDuration":75757,"Delta":212221508},{"NoteNumber":62,"Velocity":51,"Duration":66079,"SoundDuration":66079,"Delta":212297265},{"NoteNumber":55,"Velocity":52,"Duration":75757,"SoundDuration":75757,"Delta":212561582},{"NoteNumber":50,"Velocity":42,"Duration":75757,"SoundDuration":75757,"Delta":212637340},{"NoteNumber":57,"Velocity":42,"Duration":75757,"SoundDuration":75757,"Delta":212713097},{"NoteNumber":58,"Velocity":53,"Duration":66079,"SoundDuration":66079,"Delta":212788855},{"NoteNumber":46,"Velocity":47,"Duration":66079,"SoundDuration":66079,"Delta":212788855},{"NoteNumber":34,"Velocity":39,"Duration":66079,"SoundDuration":66079,"Delta":212788855},{"NoteNumber":57,"Velocity":55,"Duration":75757,"SoundDuration":75757,"Delta":213053172},{"NoteNumber":48,"Velocity":55,"Duration":490430,"SoundDuration":490430,"Delta":213053172},{"NoteNumber":36,"Velocity":46,"Duration":490430,"SoundDuration":490430,"Delta":213053172},{"NoteNumber":51,"Velocity":39,"Duration":75757,"SoundDuration":75757,"Delta":213128929},{"NoteNumber":58,"Velocity":43,"Duration":75757,"SoundDuration":75757,"Delta":213204687},{"NoteNumber":60,"Velocity":56,"Duration":65789,"SoundDuration":65789,"Delta":213280444},{"NoteNumber":59,"Velocity":57,"Duration":76045,"SoundDuration":76045,"Delta":213543602},{"NoteNumber":50,"Velocity":55,"Duration":489006,"SoundDuration":489006,"Delta":213543602},{"NoteNumber":38,"Velocity":46,"Duration":489006,"SoundDuration":489006,"Delta":213543602},{"NoteNumber":53,"Velocity":43,"Duration":76045,"SoundDuration":76045,"Delta":213619648},{"NoteNumber":60,"Velocity":46,"Duration":76045,"SoundDuration":76045,"Delta":213695694},{"NoteNumber":62,"Velocity":58,"Duration":65217,"SoundDuration":65217,"Delta":213771739},{"NoteNumber":60,"Velocity":60,"Duration":75757,"SoundDuration":75757,"Delta":214032609},{"NoteNumber":39,"Velocity":50,"Duration":468236,"SoundDuration":468236,"Delta":214032609},{"NoteNumber":51,"Velocity":60,"Duration":151514,"SoundDuration":151514,"Delta":214032609},{"NoteNumber":51,"Velocity":48,"Duration":392478,"SoundDuration":392478,"Delta":214108366},{"NoteNumber":62,"Velocity":49,"Duration":75757,"SoundDuration":75757,"Delta":214184124},{"NoteNumber":63,"Velocity":61,"Duration":60240,"SoundDuration":60240,"Delta":214259881},{"NoteNumber":59,"Velocity":62,"Duration":76045,"SoundDuration":76045,"Delta":214500845},{"NoteNumber":53,"Velocity":51,"Duration":76045,"SoundDuration":76045,"Delta":214576891},{"NoteNumber":60,"Velocity":52,"Duration":76045,"SoundDuration":76045,"Delta":214652937},{"NoteNumber":62,"Velocity":63,"Duration":65217,"SoundDuration":65217,"Delta":214728982},{"NoteNumber":38,"Velocity":50,"Duration":130434,"SoundDuration":130434,"Delta":214728982},{"NoteNumber":50,"Velocity":60,"Duration":130434,"SoundDuration":130434,"Delta":214728982},{"NoteNumber":60,"Velocity":65,"Duration":75757,"SoundDuration":75757,"Delta":214989852},{"NoteNumber":48,"Velocity":65,"Duration":462566,"SoundDuration":462566,"Delta":214989852},{"NoteNumber":36,"Velocity":54,"Duration":462566,"SoundDuration":462566,"Delta":214989852},{"NoteNumber":55,"Velocity":55,"Duration":75757,"SoundDuration":75757,"Delta":215065609},{"NoteNumber":62,"Velocity":56,"Duration":75757,"SoundDuration":75757,"Delta":215141367},{"NoteNumber":63,"Velocity":66,"Duration":117647,"SoundDuration":117647,"Delta":215217124},{"NoteNumber":60,"Velocity":63,"Duration":117647,"SoundDuration":117647,"Delta":215334771},{"NoteNumber":62,"Velocity":68,"Duration":76045,"SoundDuration":76045,"Delta":215452418},{"NoteNumber":50,"Velocity":65,"Duration":504634,"SoundDuration":504634,"Delta":215452418},{"NoteNumber":38,"Velocity":55,"Duration":504634,"SoundDuration":504634,"Delta":215452418},{"NoteNumber":55,"Velocity":59,"Duration":76045,"SoundDuration":76045,"Delta":215528464},{"NoteNumber":63,"Velocity":59,"Duration":76045,"SoundDuration":76045,"Delta":215604510},{"NoteNumber":65,"Velocity":70,"Duration":69124,"SoundDuration":69124,"Delta":215680555},{"NoteNumber":64,"Velocity":73,"Duration":79364,"SoundDuration":79364,"Delta":215957053},{"NoteNumber":49,"Velocity":73,"Duration":771633,"SoundDuration":771633,"Delta":215957053},{"NoteNumber":37,"Velocity":60,"Duration":771633,"SoundDuration":771633,"Delta":215957053},{"NoteNumber":55,"Velocity":63,"Duration":79364,"SoundDuration":79364,"Delta":216036418},{"NoteNumber":66,"Velocity":63,"Duration":79364,"SoundDuration":79364,"Delta":216115783},{"NoteNumber":67,"Velocity":74,"Duration":140186,"SoundDuration":140186,"Delta":216195148},{"NoteNumber":67,"Velocity":80,"Duration":84388,"SoundDuration":84388,"Delta":216475522},{"NoteNumber":58,"Velocity":70,"Duration":84388,"SoundDuration":84388,"Delta":216559910},{"NoteNumber":69,"Velocity":69,"Duration":84388,"SoundDuration":84388,"Delta":216644298},{"NoteNumber":70,"Velocity":81,"Duration":79787,"SoundDuration":79787,"Delta":216728686},{"NoteNumber":37,"Velocity":60,"Duration":79787,"SoundDuration":79787,"Delta":216728686},{"NoteNumber":49,"Velocity":72,"Duration":79787,"SoundDuration":79787,"Delta":216728686},{"NoteNumber":62,"Velocity":73,"Duration":559179,"SoundDuration":559179,"Delta":217047835},{"NoteNumber":74,"Velocity":88,"Duration":559179,"SoundDuration":559179,"Delta":217047835},{"NoteNumber":38,"Velocity":72,"Duration":559179,"SoundDuration":559179,"Delta":217047835},{"NoteNumber":50,"Velocity":85,"Duration":559179,"SoundDuration":559179,"Delta":217047835},{"NoteNumber":57,"Velocity":66,"Duration":559179,"SoundDuration":559179,"Delta":217607015},{"NoteNumber":62,"Velocity":66,"Duration":559179,"SoundDuration":559179,"Delta":217607015},{"NoteNumber":66,"Velocity":78,"Duration":559179,"SoundDuration":559179,"Delta":217607015},{"NoteNumber":38,"Velocity":64,"Duration":559179,"SoundDuration":559179,"Delta":217607015},{"NoteNumber":50,"Velocity":77,"Duration":559179,"SoundDuration":559179,"Delta":217607015},{"NoteNumber":64,"Velocity":70,"Duration":79176,"SoundDuration":79176,"Delta":218166195},{"NoteNumber":37,"Velocity":58,"Duration":764270,"SoundDuration":764270,"Delta":218166195},{"NoteNumber":49,"Velocity":70,"Duration":764270,"SoundDuration":764270,"Delta":218166195},{"NoteNumber":55,"Velocity":60,"Duration":79176,"SoundDuration":79176,"Delta":218245372},{"NoteNumber":66,"Velocity":60,"Duration":79176,"SoundDuration":79176,"Delta":218324548},{"NoteNumber":67,"Velocity":71,"Duration":138889,"SoundDuration":138889,"Delta":218403725},{"NoteNumber":67,"Velocity":77,"Duration":82987,"SoundDuration":82987,"Delta":218681503},{"NoteNumber":58,"Velocity":70,"Duration":82987,"SoundDuration":82987,"Delta":218764490},{"NoteNumber":69,"Velocity":74,"Duration":82987,"SoundDuration":82987,"Delta":218847478},{"NoteNumber":70,"Velocity":87,"Duration":91687,"SoundDuration":91687,"Delta":218930465},{"NoteNumber":37,"Velocity":59,"Duration":91687,"SoundDuration":91687,"Delta":218930465},{"NoteNumber":49,"Velocity":71,"Duration":91687,"SoundDuration":91687,"Delta":218930465},{"NoteNumber":74,"Velocity":80,"Duration":598205,"SoundDuration":598205,"Delta":219297213},{"NoteNumber":70,"Velocity":80,"Duration":598205,"SoundDuration":598205,"Delta":219297213},{"NoteNumber":79,"Velocity":94,"Duration":598205,"SoundDuration":598205,"Delta":219297213},{"NoteNumber":38,"Velocity":79,"Duration":598205,"SoundDuration":598205,"Delta":219297213},{"NoteNumber":50,"Velocity":93,"Duration":598205,"SoundDuration":598205,"Delta":219297213},{"NoteNumber":66,"Velocity":72,"Duration":382165,"SoundDuration":382165,"Delta":219895418},{"NoteNumber":69,"Velocity":72,"Duration":382165,"SoundDuration":382165,"Delta":219895418},{"NoteNumber":74,"Velocity":85,"Duration":382165,"SoundDuration":382165,"Delta":219895418},{"NoteNumber":50,"Velocity":84,"Duration":764330,"SoundDuration":764330,"Delta":219895418},{"NoteNumber":38,"Velocity":70,"Duration":764330,"SoundDuration":764330,"Delta":219895418},{"NoteNumber":65,"Velocity":79,"Duration":382165,"SoundDuration":382165,"Delta":220277584},{"NoteNumber":80,"Velocity":85,"Duration":67521,"SoundDuration":67521,"Delta":220659749},{"NoteNumber":43,"Velocity":84,"Duration":420589,"SoundDuration":420589,"Delta":220659749},{"NoteNumber":31,"Velocity":70,"Duration":420589,"SoundDuration":420589,"Delta":220659749},{"NoteNumber":68,"Velocity":55,"Duration":67521,"SoundDuration":67521,"Delta":220727271},{"NoteNumber":80,"Velocity":64,"Duration":67521,"SoundDuration":67521,"Delta":220794793},{"NoteNumber":77,"Velocity":77,"Duration":109011,"SoundDuration":109011,"Delta":220862315},{"NoteNumber":56,"Velocity":72,"Duration":109011,"SoundDuration":109011,"Delta":220862315},{"NoteNumber":77,"Velocity":85,"Duration":67750,"SoundDuration":67750,"Delta":221080339},{"NoteNumber":69,"Velocity":70,"Duration":67750,"SoundDuration":67750,"Delta":221080339},{"NoteNumber":65,"Velocity":54,"Duration":67750,"SoundDuration":67750,"Delta":221148089},{"NoteNumber":56,"Velocity":51,"Duration":67750,"SoundDuration":67750,"Delta":221148089},{"NoteNumber":75,"Velocity":63,"Duration":67750,"SoundDuration":67750,"Delta":221215840},{"NoteNumber":58,"Velocity":56,"Duration":67750,"SoundDuration":67750,"Delta":221215840},{"NoteNumber":74,"Velocity":77,"Duration":109011,"SoundDuration":109011,"Delta":221283591},{"NoteNumber":59,"Velocity":66,"Duration":109011,"SoundDuration":109011,"Delta":221283591},{"NoteNumber":74,"Velocity":85,"Duration":67521,"SoundDuration":67521,"Delta":221501614},{"NoteNumber":65,"Velocity":70,"Duration":67521,"SoundDuration":67521,"Delta":221501614},{"NoteNumber":62,"Velocity":58,"Duration":67521,"SoundDuration":67521,"Delta":221569136},{"NoteNumber":53,"Velocity":51,"Duration":67521,"SoundDuration":67521,"Delta":221569136},{"NoteNumber":72,"Velocity":65,"Duration":67521,"SoundDuration":67521,"Delta":221636658},{"NoteNumber":55,"Velocity":56,"Duration":67521,"SoundDuration":67521,"Delta":221636658},{"NoteNumber":71,"Velocity":77,"Duration":109011,"SoundDuration":109011,"Delta":221704180},{"NoteNumber":56,"Velocity":66,"Duration":109011,"SoundDuration":109011,"Delta":221704180},{"NoteNumber":71,"Velocity":85,"Duration":67521,"SoundDuration":67521,"Delta":221922204},{"NoteNumber":62,"Velocity":70,"Duration":67521,"SoundDuration":67521,"Delta":221922204},{"NoteNumber":59,"Velocity":60,"Duration":67521,"SoundDuration":67521,"Delta":221989726},{"NoteNumber":50,"Velocity":50,"Duration":67521,"SoundDuration":67521,"Delta":221989726},{"NoteNumber":68,"Velocity":65,"Duration":67521,"SoundDuration":67521,"Delta":222057248},{"NoteNumber":51,"Velocity":56,"Duration":67521,"SoundDuration":67521,"Delta":222057248},{"NoteNumber":67,"Velocity":77,"Duration":109011,"SoundDuration":109011,"Delta":222124770},{"NoteNumber":53,"Velocity":66,"Duration":109011,"SoundDuration":109011,"Delta":222124770},{"NoteNumber":67,"Velocity":85,"Duration":69156,"SoundDuration":69156,"Delta":222342793},{"NoteNumber":63,"Velocity":66,"Duration":103734,"SoundDuration":103734,"Delta":222342793},{"NoteNumber":51,"Velocity":66,"Duration":103734,"SoundDuration":103734,"Delta":222342793},{"NoteNumber":60,"Velocity":60,"Duration":69156,"SoundDuration":69156,"Delta":222411950},{"NoteNumber":71,"Velocity":67,"Duration":69156,"SoundDuration":69156,"Delta":222481106},{"NoteNumber":72,"Velocity":77,"Duration":112697,"SoundDuration":112697,"Delta":222550262},{"NoteNumber":72,"Velocity":86,"Duration":69637,"SoundDuration":69637,"Delta":222775657},{"NoteNumber":31,"Velocity":75,"Duration":645657,"SoundDuration":645657,"Delta":222775657},{"NoteNumber":43,"Velocity":75,"Duration":645657,"SoundDuration":645657,"Delta":222775657},{"NoteNumber":63,"Velocity":62,"Duration":69637,"SoundDuration":69637,"Delta":222845295},{"NoteNumber":74,"Velocity":68,"Duration":69637,"SoundDuration":69637,"Delta":222914932},{"NoteNumber":75,"Velocity":79,"Duration":113550,"SoundDuration":113550,"Delta":222984570},{"NoteNumber":75,"Velocity":94,"Duration":69881,"SoundDuration":69881,"Delta":223211671},{"NoteNumber":67,"Velocity":72,"Duration":69881,"SoundDuration":69881,"Delta":223281552},{"NoteNumber":77,"Velocity":77,"Duration":69881,"SoundDuration":69881,"Delta":223351433},{"NoteNumber":79,"Velocity":92,"Duration":115296,"SoundDuration":115296,"Delta":223421314},{"NoteNumber":36,"Velocity":67,"Duration":230592,"SoundDuration":230592,"Delta":223421314},{"NoteNumber":48,"Velocity":67,"Duration":230592,"SoundDuration":230592,"Delta":223421314},{"NoteNumber":79,"Velocity":90,"Duration":71377,"SoundDuration":71377,"Delta":223651906},{"NoteNumber":51,"Velocity":73,"Duration":214133,"SoundDuration":214133,"Delta":223651906},{"NoteNumber":39,"Velocity":73,"Duration":214133,"SoundDuration":214133,"Delta":223651906},{"NoteNumber":72,"Velocity":81,"Duration":71377,"SoundDuration":71377,"Delta":223723284},{"NoteNumber":83,"Velocity":83,"Duration":71377,"SoundDuration":71377,"Delta":223794662},{"NoteNumber":84,"Velocity":97,"Duration":132042,"SoundDuration":132042,"Delta":223866039},{"NoteNumber":43,"Velocity":70,"Duration":132042,"SoundDuration":132042,"Delta":223866039},{"NoteNumber":55,"Velocity":70,"Duration":132042,"SoundDuration":132042,"Delta":223866039},{"NoteNumber":87,"Velocity":97,"Duration":67750,"SoundDuration":67750,"Delta":224130124},{"NoteNumber":45,"Velocity":80,"Duration":424490,"SoundDuration":424490,"Delta":224130124},{"NoteNumber":43,"Velocity":80,"Duration":424490,"SoundDuration":424490,"Delta":224130124},{"NoteNumber":57,"Velocity":96,"Duration":424490,"SoundDuration":424490,"Delta":224130124},{"NoteNumber":75,"Velocity":70,"Duration":67750,"SoundDuration":67750,"Delta":224197874},{"NoteNumber":86,"Velocity":77,"Duration":67750,"SoundDuration":67750,"Delta":224265625},{"NoteNumber":84,"Velocity":87,"Duration":110619,"SoundDuration":110619,"Delta":224333376},{"NoteNumber":66,"Velocity":82,"Duration":110619,"SoundDuration":110619,"Delta":224333376},{"NoteNumber":84,"Velocity":95,"Duration":67521,"SoundDuration":67521,"Delta":224554615},{"NoteNumber":78,"Velocity":78,"Duration":67521,"SoundDuration":67521,"Delta":224554615},{"NoteNumber":72,"Velocity":68,"Duration":67521,"SoundDuration":67521,"Delta":224622137},{"NoteNumber":66,"Velocity":56,"Duration":67521,"SoundDuration":67521,"Delta":224622137},{"NoteNumber":82,"Velocity":74,"Duration":67521,"SoundDuration":67521,"Delta":224689659},{"NoteNumber":67,"Velocity":61,"Duration":67521,"SoundDuration":67521,"Delta":224689659},{"NoteNumber":81,"Velocity":84,"Duration":110619,"SoundDuration":110619,"Delta":224757181},{"NoteNumber":69,"Velocity":72,"Duration":110619,"SoundDuration":110619,"Delta":224757181},{"NoteNumber":81,"Velocity":91,"Duration":67521,"SoundDuration":67521,"Delta":224978420},{"NoteNumber":75,"Velocity":75,"Duration":67521,"SoundDuration":67521,"Delta":224978420},{"NoteNumber":67,"Velocity":64,"Duration":67521,"SoundDuration":67521,"Delta":225045942},{"NoteNumber":63,"Velocity":54,"Duration":67521,"SoundDuration":67521,"Delta":225045942},{"NoteNumber":79,"Velocity":71,"Duration":67521,"SoundDuration":67521,"Delta":225113464},{"NoteNumber":65,"Velocity":59,"Duration":67521,"SoundDuration":67521,"Delta":225113464},{"NoteNumber":78,"Velocity":81,"Duration":110619,"SoundDuration":110619,"Delta":225180986},{"NoteNumber":66,"Velocity":69,"Duration":110619,"SoundDuration":110619,"Delta":225180986},{"NoteNumber":78,"Velocity":88,"Duration":67294,"SoundDuration":67294,"Delta":225402225},{"NoteNumber":69,"Velocity":72,"Duration":67294,"SoundDuration":67294,"Delta":225402225},{"NoteNumber":66,"Velocity":62,"Duration":67294,"SoundDuration":67294,"Delta":225469520},{"NoteNumber":60,"Velocity":53,"Duration":67294,"SoundDuration":67294,"Delta":225469520},{"NoteNumber":75,"Velocity":68,"Duration":67294,"SoundDuration":67294,"Delta":225536814},{"NoteNumber":61,"Velocity":57,"Duration":67294,"SoundDuration":67294,"Delta":225536814},{"NoteNumber":74,"Velocity":78,"Duration":121852,"SoundDuration":121852,"Delta":225604109},{"NoteNumber":62,"Velocity":67,"Duration":121852,"SoundDuration":121852,"Delta":225604109},{"NoteNumber":82,"Velocity":93,"Duration":67750,"SoundDuration":67750,"Delta":225847814},{"NoteNumber":55,"Velocity":92,"Duration":203251,"SoundDuration":203251,"Delta":225847814},{"NoteNumber":43,"Velocity":77,"Duration":203251,"SoundDuration":203251,"Delta":225847814},{"NoteNumber":70,"Velocity":67,"Duration":67750,"SoundDuration":67750,"Delta":225915564},{"NoteNumber":81,"Velocity":74,"Duration":67750,"SoundDuration":67750,"Delta":225983315},{"NoteNumber":79,"Velocity":83,"Duration":111856,"SoundDuration":111856,"Delta":226051066},{"NoteNumber":63,"Velocity":78,"Duration":111856,"SoundDuration":111856,"Delta":226051066},{"NoteNumber":79,"Velocity":91,"Duration":67981,"SoundDuration":67981,"Delta":226274779},{"NoteNumber":75,"Velocity":75,"Duration":67981,"SoundDuration":67981,"Delta":226274779},{"NoteNumber":67,"Velocity":63,"Duration":67981,"SoundDuration":67981,"Delta":226342760},{"NoteNumber":63,"Velocity":55,"Duration":67981,"SoundDuration":67981,"Delta":226342760},{"NoteNumber":77,"Velocity":71,"Duration":67981,"SoundDuration":67981,"Delta":226410741},{"NoteNumber":65,"Velocity":59,"Duration":67981,"SoundDuration":67981,"Delta":226410741},{"NoteNumber":75,"Velocity":82,"Duration":111856,"SoundDuration":111856,"Delta":226478722},{"NoteNumber":67,"Velocity":70,"Duration":111856,"SoundDuration":111856,"Delta":226478722},{"NoteNumber":82,"Velocity":89,"Duration":68446,"SoundDuration":68446,"Delta":226702436},{"NoteNumber":55,"Velocity":88,"Duration":205339,"SoundDuration":205339,"Delta":226702436},{"NoteNumber":70,"Velocity":63,"Duration":68446,"SoundDuration":68446,"Delta":226770882},{"NoteNumber":81,"Velocity":68,"Duration":68446,"SoundDuration":68446,"Delta":226839328},{"NoteNumber":79,"Velocity":80,"Duration":111856,"SoundDuration":111856,"Delta":226907775},{"NoteNumber":63,"Velocity":68,"Duration":111856,"SoundDuration":111856,"Delta":226907775},{"NoteNumber":79,"Velocity":87,"Duration":67521,"SoundDuration":67521,"Delta":227131488},{"NoteNumber":75,"Velocity":72,"Duration":67521,"SoundDuration":67521,"Delta":227131488},{"NoteNumber":67,"Velocity":60,"Duration":67521,"SoundDuration":67521,"Delta":227199010},{"NoteNumber":63,"Velocity":51,"Duration":67521,"SoundDuration":67521,"Delta":227199010},{"NoteNumber":77,"Velocity":67,"Duration":67521,"SoundDuration":67521,"Delta":227266532},{"NoteNumber":65,"Velocity":57,"Duration":67521,"SoundDuration":67521,"Delta":227266532},{"NoteNumber":75,"Velocity":78,"Duration":108225,"SoundDuration":108225,"Delta":227334054},{"NoteNumber":67,"Velocity":67,"Duration":108225,"SoundDuration":108225,"Delta":227334054},{"NoteNumber":82,"Velocity":85,"Duration":66845,"SoundDuration":66845,"Delta":227550504},{"NoteNumber":55,"Velocity":84,"Duration":200535,"SoundDuration":200535,"Delta":227550504},{"NoteNumber":70,"Velocity":60,"Duration":66845,"SoundDuration":66845,"Delta":227617349},{"NoteNumber":81,"Velocity":67,"Duration":66845,"SoundDuration":66845,"Delta":227684194},{"NoteNumber":79,"Velocity":77,"Duration":109809,"SoundDuration":109809,"Delta":227751039},{"NoteNumber":63,"Velocity":66,"Duration":109809,"SoundDuration":109809,"Delta":227751039},{"NoteNumber":79,"Velocity":85,"Duration":67069,"SoundDuration":67069,"Delta":227970659},{"NoteNumber":75,"Velocity":70,"Duration":67069,"SoundDuration":67069,"Delta":227970659},{"NoteNumber":67,"Velocity":58,"Duration":67069,"SoundDuration":67069,"Delta":228037728},{"NoteNumber":63,"Velocity":50,"Duration":67069,"SoundDuration":67069,"Delta":228037728},{"NoteNumber":77,"Velocity":64,"Duration":67069,"SoundDuration":67069,"Delta":228104797},{"NoteNumber":65,"Velocity":55,"Duration":67069,"SoundDuration":67069,"Delta":228104797},{"NoteNumber":75,"Velocity":76,"Duration":109011,"SoundDuration":109011,"Delta":228171866},{"NoteNumber":67,"Velocity":65,"Duration":109011,"SoundDuration":109011,"Delta":228171866},{"NoteNumber":75,"Velocity":84,"Duration":67069,"SoundDuration":67069,"Delta":228389889},{"NoteNumber":72,"Velocity":69,"Duration":67069,"SoundDuration":67069,"Delta":228389889},{"NoteNumber":63,"Velocity":59,"Duration":67069,"SoundDuration":67069,"Delta":228456958},{"NoteNumber":60,"Velocity":49,"Duration":67069,"SoundDuration":67069,"Delta":228456958},{"NoteNumber":74,"Velocity":65,"Duration":67069,"SoundDuration":67069,"Delta":228524027},{"NoteNumber":62,"Velocity":54,"Duration":67069,"SoundDuration":67069,"Delta":228524027},{"NoteNumber":72,"Velocity":75,"Duration":109011,"SoundDuration":109011,"Delta":228591096},{"NoteNumber":63,"Velocity":64,"Duration":109011,"SoundDuration":109011,"Delta":228591096},{"NoteNumber":72,"Velocity":83,"Duration":67069,"SoundDuration":67069,"Delta":228809120},{"NoteNumber":66,"Velocity":64,"Duration":201207,"SoundDuration":201207,"Delta":228809120},{"NoteNumber":60,"Velocity":55,"Duration":67069,"SoundDuration":67069,"Delta":228876189},{"NoteNumber":70,"Velocity":62,"Duration":67069,"SoundDuration":67069,"Delta":228943258},{"NoteNumber":69,"Velocity":74,"Duration":108225,"SoundDuration":108225,"Delta":229010327},{"NoteNumber":50,"Velocity":64,"Duration":108225,"SoundDuration":108225,"Delta":229010327},{"NoteNumber":70,"Velocity":82,"Duration":67340,"SoundDuration":67340,"Delta":229226777},{"NoteNumber":43,"Velocity":64,"Duration":202020,"SoundDuration":202020,"Delta":229226777},{"NoteNumber":58,"Velocity":57,"Duration":67340,"SoundDuration":67340,"Delta":229294117},{"NoteNumber":69,"Velocity":62,"Duration":67340,"SoundDuration":67340,"Delta":229361457},{"NoteNumber":67,"Velocity":73,"Duration":108225,"SoundDuration":108225,"Delta":229428797},{"NoteNumber":51,"Velocity":63,"Duration":108225,"SoundDuration":108225,"Delta":229428797},{"NoteNumber":67,"Velocity":81,"Duration":67567,"SoundDuration":67567,"Delta":229645247},{"NoteNumber":63,"Velocity":67,"Duration":67567,"SoundDuration":67567,"Delta":229645247},{"NoteNumber":55,"Velocity":57,"Duration":67567,"SoundDuration":67567,"Delta":229712814},{"NoteNumber":51,"Velocity":49,"Duration":67567,"SoundDuration":67567,"Delta":229712814},{"NoteNumber":65,"Velocity":63,"Duration":67567,"SoundDuration":67567,"Delta":229780382},{"NoteNumber":53,"Velocity":53,"Duration":67567,"SoundDuration":67567,"Delta":229780382},{"NoteNumber":63,"Velocity":73,"Duration":108303,"SoundDuration":108303,"Delta":229847949},{"NoteNumber":55,"Velocity":62,"Duration":108303,"SoundDuration":108303,"Delta":229847949},{"NoteNumber":70,"Velocity":80,"Duration":67796,"SoundDuration":67796,"Delta":230064556},{"NoteNumber":43,"Velocity":62,"Duration":203390,"SoundDuration":203390,"Delta":230064556},{"NoteNumber":58,"Velocity":56,"Duration":67796,"SoundDuration":67796,"Delta":230132352},{"NoteNumber":69,"Velocity":62,"Duration":67796,"SoundDuration":67796,"Delta":230200149},{"NoteNumber":67,"Velocity":72,"Duration":107835,"SoundDuration":107835,"Delta":230267946},{"NoteNumber":51,"Velocity":62,"Duration":107835,"SoundDuration":107835,"Delta":230267946},{"NoteNumber":67,"Velocity":79,"Duration":67796,"SoundDuration":67796,"Delta":230483618},{"NoteNumber":63,"Velocity":65,"Duration":67796,"SoundDuration":67796,"Delta":230483618},{"NoteNumber":55,"Velocity":54,"Duration":67796,"SoundDuration":67796,"Delta":230551414},{"NoteNumber":51,"Velocity":47,"Duration":67796,"SoundDuration":67796,"Delta":230551414},{"NoteNumber":65,"Velocity":60,"Duration":67796,"SoundDuration":67796,"Delta":230619211},{"NoteNumber":53,"Velocity":52,"Duration":67796,"SoundDuration":67796,"Delta":230619211},{"NoteNumber":63,"Velocity":71,"Duration":107835,"SoundDuration":107835,"Delta":230687008},{"NoteNumber":55,"Velocity":61,"Duration":107835,"SoundDuration":107835,"Delta":230687008},{"NoteNumber":70,"Velocity":79,"Duration":66622,"SoundDuration":66622,"Delta":230902680},{"NoteNumber":43,"Velocity":61,"Duration":199867,"SoundDuration":199867,"Delta":230902680},{"NoteNumber":58,"Velocity":56,"Duration":66622,"SoundDuration":66622,"Delta":230969302},{"NoteNumber":69,"Velocity":61,"Duration":66622,"SoundDuration":66622,"Delta":231035924},{"NoteNumber":67,"Velocity":71,"Duration":107835,"SoundDuration":107835,"Delta":231102547},{"NoteNumber":51,"Velocity":61,"Duration":107835,"SoundDuration":107835,"Delta":231102547},{"NoteNumber":67,"Velocity":78,"Duration":66622,"SoundDuration":66622,"Delta":231318219},{"NoteNumber":63,"Velocity":64,"Duration":66622,"SoundDuration":66622,"Delta":231318219},{"NoteNumber":55,"Velocity":52,"Duration":66622,"SoundDuration":66622,"Delta":231384841},{"NoteNumber":51,"Velocity":49,"Duration":66622,"SoundDuration":66622,"Delta":231384841},{"NoteNumber":65,"Velocity":59,"Duration":66622,"SoundDuration":66622,"Delta":231451463},{"NoteNumber":53,"Velocity":51,"Duration":66622,"SoundDuration":66622,"Delta":231451463},{"NoteNumber":63,"Velocity":70,"Duration":107449,"SoundDuration":107449,"Delta":231518086},{"NoteNumber":55,"Velocity":60,"Duration":107449,"SoundDuration":107449,"Delta":231518086},{"NoteNumber":63,"Velocity":77,"Duration":66845,"SoundDuration":66845,"Delta":231732985},{"NoteNumber":60,"Velocity":63,"Duration":66845,"SoundDuration":66845,"Delta":231732985},{"NoteNumber":51,"Velocity":53,"Duration":66845,"SoundDuration":66845,"Delta":231799830},{"NoteNumber":48,"Velocity":50,"Duration":66845,"SoundDuration":66845,"Delta":231799830},{"NoteNumber":62,"Velocity":58,"Duration":66845,"SoundDuration":66845,"Delta":231866675},{"NoteNumber":50,"Velocity":50,"Duration":66845,"SoundDuration":66845,"Delta":231866675},{"NoteNumber":60,"Velocity":70,"Duration":107835,"SoundDuration":107835,"Delta":231933520},{"NoteNumber":51,"Velocity":60,"Duration":107835,"SoundDuration":107835,"Delta":231933520},{"NoteNumber":60,"Velocity":76,"Duration":66845,"SoundDuration":66845,"Delta":232149192},{"NoteNumber":54,"Velocity":59,"Duration":200535,"SoundDuration":200535,"Delta":232149192},{"NoteNumber":48,"Velocity":58,"Duration":66845,"SoundDuration":66845,"Delta":232216037},{"NoteNumber":58,"Velocity":60,"Duration":66845,"SoundDuration":66845,"Delta":232282882},{"NoteNumber":57,"Velocity":69,"Duration":108617,"SoundDuration":108617,"Delta":232349727},{"NoteNumber":38,"Velocity":59,"Duration":108617,"SoundDuration":108617,"Delta":232349727},{"NoteNumber":58,"Velocity":75,"Duration":66401,"SoundDuration":66401,"Delta":232566961},{"NoteNumber":31,"Velocity":58,"Duration":199203,"SoundDuration":199203,"Delta":232566961},{"NoteNumber":46,"Velocity":54,"Duration":66400,"SoundDuration":66400,"Delta":232633362},{"NoteNumber":57,"Velocity":58,"Duration":66401,"SoundDuration":66401,"Delta":232699763},{"NoteNumber":55,"Velocity":68,"Duration":104894,"SoundDuration":104894,"Delta":232766164},{"NoteNumber":38,"Velocity":58,"Duration":104894,"SoundDuration":104894,"Delta":232766164},{"NoteNumber":60,"Velocity":74,"Duration":66181,"SoundDuration":66181,"Delta":232975954},{"NoteNumber":54,"Velocity":58,"Duration":198543,"SoundDuration":198543,"Delta":232975954},{"NoteNumber":48,"Velocity":58,"Duration":66181,"SoundDuration":66181,"Delta":233042136},{"NoteNumber":58,"Velocity":62,"Duration":66181,"SoundDuration":66181,"Delta":233108317},{"NoteNumber":57,"Velocity":67,"Duration":103092,"SoundDuration":103092,"Delta":233174498},{"NoteNumber":38,"Velocity":58,"Duration":103092,"SoundDuration":103092,"Delta":233174498},{"NoteNumber":58,"Velocity":73,"Duration":65530,"SoundDuration":65530,"Delta":233380684},{"NoteNumber":31,"Velocity":57,"Duration":196592,"SoundDuration":196592,"Delta":233380684},{"NoteNumber":46,"Velocity":52,"Duration":65530,"SoundDuration":65530,"Delta":233446215},{"NoteNumber":57,"Velocity":57,"Duration":65530,"SoundDuration":65530,"Delta":233511745},{"NoteNumber":55,"Velocity":66,"Duration":102388,"SoundDuration":102388,"Delta":233577276},{"NoteNumber":38,"Velocity":57,"Duration":102388,"SoundDuration":102388,"Delta":233577276},{"NoteNumber":60,"Velocity":73,"Duration":64893,"SoundDuration":64893,"Delta":233782054},{"NoteNumber":54,"Velocity":56,"Duration":194679,"SoundDuration":194679,"Delta":233782054},{"NoteNumber":48,"Velocity":54,"Duration":64892,"SoundDuration":64892,"Delta":233846947},{"NoteNumber":58,"Velocity":59,"Duration":64893,"SoundDuration":64893,"Delta":233911840},{"NoteNumber":57,"Velocity":66,"Duration":102739,"SoundDuration":102739,"Delta":233976733},{"NoteNumber":38,"Velocity":56,"Duration":102739,"SoundDuration":102739,"Delta":233976733},{"NoteNumber":62,"Velocity":76,"Duration":64308,"SoundDuration":64308,"Delta":234182213},{"NoteNumber":31,"Velocity":59,"Duration":1178449,"SoundDuration":1178449,"Delta":234182213},{"NoteNumber":43,"Velocity":59,"Duration":1178449,"SoundDuration":1178449,"Delta":234182213},{"NoteNumber":46,"Velocity":57,"Duration":64308,"SoundDuration":64308,"Delta":234246521},{"NoteNumber":60,"Velocity":62,"Duration":64308,"SoundDuration":64308,"Delta":234310830},{"NoteNumber":58,"Velocity":70,"Duration":100671,"SoundDuration":100671,"Delta":234375139},{"NoteNumber":67,"Velocity":79,"Duration":63897,"SoundDuration":63897,"Delta":234576481},{"NoteNumber":55,"Velocity":58,"Duration":63897,"SoundDuration":63897,"Delta":234640379},{"NoteNumber":63,"Velocity":64,"Duration":63897,"SoundDuration":63897,"Delta":234704277},{"NoteNumber":62,"Velocity":72,"Duration":100671,"SoundDuration":100671,"Delta":234768175},{"NoteNumber":70,"Velocity":81,"Duration":63491,"SoundDuration":63491,"Delta":234969517},{"NoteNumber":58,"Velocity":62,"Duration":63491,"SoundDuration":63491,"Delta":235033009},{"NoteNumber":69,"Velocity":68,"Duration":63491,"SoundDuration":63491,"Delta":235096501},{"NoteNumber":67,"Velocity":74,"Duration":100334,"SoundDuration":100334,"Delta":235159993},{"NoteNumber":74,"Velocity":84,"Duration":63091,"SoundDuration":63091,"Delta":235360662},{"NoteNumber":62,"Velocity":64,"Duration":63091,"SoundDuration":63091,"Delta":235423754},{"NoteNumber":70,"Velocity":71,"Duration":63091,"SoundDuration":63091,"Delta":235486845},{"NoteNumber":69,"Velocity":77,"Duration":99999,"SoundDuration":99999,"Delta":235549937},{"NoteNumber":38,"Velocity":66,"Duration":99999,"SoundDuration":99999,"Delta":235549937},{"NoteNumber":50,"Velocity":66,"Duration":99999,"SoundDuration":99999,"Delta":235549937},{"NoteNumber":79,"Velocity":86,"Duration":62893,"SoundDuration":62893,"Delta":235749937},{"NoteNumber":31,"Velocity":67,"Duration":1162137,"SoundDuration":1162137,"Delta":235749937},{"NoteNumber":43,"Velocity":67,"Duration":1162137,"SoundDuration":1162137,"Delta":235749937},{"NoteNumber":67,"Velocity":68,"Duration":62893,"SoundDuration":62893,"Delta":235812830},{"NoteNumber":75,"Velocity":73,"Duration":62893,"SoundDuration":62893,"Delta":235875723},{"NoteNumber":74,"Velocity":80,"Duration":99667,"SoundDuration":99667,"Delta":235938616},{"NoteNumber":82,"Velocity":89,"Duration":62893,"SoundDuration":62893,"Delta":236137951},{"NoteNumber":70,"Velocity":68,"Duration":62893,"SoundDuration":62893,"Delta":236200844},{"NoteNumber":81,"Velocity":75,"Duration":62893,"SoundDuration":62893,"Delta":236263737},{"NoteNumber":79,"Velocity":82,"Duration":99009,"SoundDuration":99009,"Delta":236326630},{"NoteNumber":86,"Velocity":94,"Duration":62695,"SoundDuration":62695,"Delta":236524650},{"NoteNumber":74,"Velocity":76,"Duration":62696,"SoundDuration":62696,"Delta":236587346},{"NoteNumber":84,"Velocity":77,"Duration":62695,"SoundDuration":62695,"Delta":236650042},{"NoteNumber":82,"Velocity":84,"Duration":99667,"SoundDuration":99667,"Delta":236712738},{"NoteNumber":91,"Velocity":97,"Duration":62500,"SoundDuration":62500,"Delta":236912074},{"NoteNumber":79,"Velocity":78,"Duration":62500,"SoundDuration":62500,"Delta":236974574},{"NoteNumber":87,"Velocity":79,"Duration":62500,"SoundDuration":62500,"Delta":237037074},{"NoteNumber":86,"Velocity":87,"Duration":111856,"SoundDuration":111856,"Delta":237099574},{"NoteNumber":38,"Velocity":74,"Duration":111856,"SoundDuration":111856,"Delta":237099574},{"NoteNumber":50,"Velocity":74,"Duration":111856,"SoundDuration":111856,"Delta":237099574},{"NoteNumber":94,"Velocity":109,"Duration":413433,"SoundDuration":413433,"Delta":237323287},{"NoteNumber":82,"Velocity":88,"Duration":413433,"SoundDuration":413433,"Delta":237323287},{"NoteNumber":31,"Velocity":68,"Duration":208189,"SoundDuration":208189,"Delta":237323287},{"NoteNumber":43,"Velocity":76,"Duration":208189,"SoundDuration":208189,"Delta":237323287},{"NoteNumber":79,"Velocity":81,"Duration":326087,"SoundDuration":326087,"Delta":237736721},{"NoteNumber":91,"Velocity":88,"Duration":326087,"SoundDuration":326087,"Delta":237736721},{"NoteNumber":82,"Velocity":83,"Duration":326087,"SoundDuration":326087,"Delta":237899764},{"NoteNumber":74,"Velocity":81,"Duration":326087,"SoundDuration":326087,"Delta":238062808},{"NoteNumber":86,"Velocity":88,"Duration":326087,"SoundDuration":326087,"Delta":238062808},{"NoteNumber":79,"Velocity":83,"Duration":326087,"SoundDuration":326087,"Delta":238225851},{"NoteNumber":70,"Velocity":81,"Duration":326087,"SoundDuration":326087,"Delta":238388895},{"NoteNumber":82,"Velocity":88,"Duration":326087,"SoundDuration":326087,"Delta":238388895},{"NoteNumber":74,"Velocity":83,"Duration":326087,"SoundDuration":326087,"Delta":238551938},{"NoteNumber":67,"Velocity":81,"Duration":327427,"SoundDuration":327427,"Delta":238714982},{"NoteNumber":79,"Velocity":88,"Duration":327427,"SoundDuration":327427,"Delta":238714982},{"NoteNumber":70,"Velocity":82,"Duration":330129,"SoundDuration":330129,"Delta":238878025},{"NoteNumber":62,"Velocity":81,"Duration":331491,"SoundDuration":331491,"Delta":239042409},{"NoteNumber":74,"Velocity":88,"Duration":331491,"SoundDuration":331491,"Delta":239042409},{"NoteNumber":67,"Velocity":80,"Duration":329233,"SoundDuration":329233,"Delta":239208155},{"NoteNumber":58,"Velocity":81,"Duration":329233,"SoundDuration":329233,"Delta":239373901},{"NoteNumber":70,"Velocity":88,"Duration":329233,"SoundDuration":329233,"Delta":239373901},{"NoteNumber":62,"Velocity":80,"Duration":331491,"SoundDuration":331491,"Delta":239537388},{"NoteNumber":55,"Velocity":81,"Duration":745771,"SoundDuration":745771,"Delta":239703134},{"NoteNumber":67,"Velocity":88,"Duration":383452,"SoundDuration":383452,"Delta":239703134},{"NoteNumber":58,"Velocity":80,"Duration":217706,"SoundDuration":217706,"Delta":239868880},{"NoteNumber":60,"Velocity":66,"Duration":703803,"SoundDuration":703803,"Delta":240086587},{"NoteNumber":63,"Velocity":85,"Duration":703803,"SoundDuration":703803,"Delta":240086587},{"NoteNumber":68,"Velocity":96,"Duration":703803,"SoundDuration":703803,"Delta":240086587},{"NoteNumber":48,"Velocity":78,"Duration":1379574,"SoundDuration":1379574,"Delta":240086587},{"NoteNumber":56,"Velocity":92,"Duration":341484,"SoundDuration":341484,"Delta":240448906},{"NoteNumber":54,"Velocity":71,"Duration":338599,"SoundDuration":338599,"Delta":240620728},{"NoteNumber":57,"Velocity":78,"Duration":338698,"SoundDuration":338698,"Delta":240790391},{"NoteNumber":69,"Velocity":85,"Duration":1342708,"SoundDuration":1342708,"Delta":240790391},{"NoteNumber":51,"Velocity":71,"Duration":338582,"SoundDuration":338582,"Delta":240959327},{"NoteNumber":60,"Velocity":78,"Duration":1691107,"SoundDuration":1691107,"Delta":241129090},{"NoteNumber":48,"Velocity":73,"Duration":1522287,"SoundDuration":1522287,"Delta":241297910},{"NoteNumber":63,"Velocity":78,"Duration":1354035,"SoundDuration":1354035,"Delta":241466162},{"NoteNumber":45,"Velocity":73,"Duration":333462,"SoundDuration":333462,"Delta":241633802},{"NoteNumber":66,"Velocity":78,"Duration":1019364,"SoundDuration":1019364,"Delta":241800833},{"NoteNumber":42,"Velocity":75,"Duration":331115,"SoundDuration":331115,"Delta":241967265},{"NoteNumber":69,"Velocity":78,"Duration":687098,"SoundDuration":687098,"Delta":242133099},{"NoteNumber":39,"Velocity":76,"Duration":331461,"SoundDuration":331461,"Delta":242298381},{"NoteNumber":72,"Velocity":78,"Duration":357166,"SoundDuration":357166,"Delta":242463031},{"NoteNumber":36,"Velocity":79,"Duration":190355,"SoundDuration":190355,"Delta":242629842},{"NoteNumber":62,"Velocity":78,"Duration":349649,"SoundDuration":349649,"Delta":242820197},{"NoteNumber":67,"Velocity":82,"Duration":349649,"SoundDuration":349649,"Delta":242820197},{"NoteNumber":70,"Velocity":88,"Duration":349649,"SoundDuration":349649,"Delta":242820197},{"NoteNumber":31,"Velocity":78,"Duration":349649,"SoundDuration":349649,"Delta":242820197},{"NoteNumber":43,"Velocity":85,"Duration":349649,"SoundDuration":349649,"Delta":242820197},{"NoteNumber":67,"Velocity":85,"Duration":327451,"SoundDuration":327451,"Delta":243169847},{"NoteNumber":79,"Velocity":92,"Duration":327451,"SoundDuration":327451,"Delta":243169847},{"NoteNumber":70,"Velocity":80,"Duration":327014,"SoundDuration":327014,"Delta":243332009},{"NoteNumber":62,"Velocity":85,"Duration":327014,"SoundDuration":327014,"Delta":243497299},{"NoteNumber":74,"Velocity":92,"Duration":327014,"SoundDuration":327014,"Delta":243497299},{"NoteNumber":67,"Velocity":80,"Duration":327014,"SoundDuration":327014,"Delta":243659024},{"NoteNumber":58,"Velocity":85,"Duration":327929,"SoundDuration":327929,"Delta":243824313},{"NoteNumber":70,"Velocity":92,"Duration":327929,"SoundDuration":327929,"Delta":243824313},{"NoteNumber":62,"Velocity":80,"Duration":329603,"SoundDuration":329603,"Delta":243986038},{"NoteNumber":55,"Velocity":85,"Duration":326796,"SoundDuration":326796,"Delta":244152243},{"NoteNumber":67,"Velocity":92,"Duration":326796,"SoundDuration":326796,"Delta":244152243},{"NoteNumber":58,"Velocity":80,"Duration":326796,"SoundDuration":326796,"Delta":244315642},{"NoteNumber":50,"Velocity":85,"Duration":326796,"SoundDuration":326796,"Delta":244479040},{"NoteNumber":62,"Velocity":92,"Duration":326796,"SoundDuration":326796,"Delta":244479040},{"NoteNumber":55,"Velocity":80,"Duration":340808,"SoundDuration":340808,"Delta":244642439},{"NoteNumber":46,"Velocity":85,"Duration":354819,"SoundDuration":354819,"Delta":244805837},{"NoteNumber":58,"Velocity":92,"Duration":354819,"SoundDuration":354819,"Delta":244805837},{"NoteNumber":50,"Velocity":80,"Duration":370211,"SoundDuration":370211,"Delta":244983247},{"NoteNumber":43,"Velocity":85,"Duration":781762,"SoundDuration":781762,"Delta":245160657},{"NoteNumber":55,"Velocity":92,"Duration":411620,"SoundDuration":411620,"Delta":245160657},{"NoteNumber":46,"Velocity":80,"Duration":218818,"SoundDuration":218818,"Delta":245353459},{"NoteNumber":48,"Velocity":68,"Duration":719505,"SoundDuration":719505,"Delta":245572278},{"NoteNumber":51,"Velocity":83,"Duration":719505,"SoundDuration":719505,"Delta":245572278},{"NoteNumber":56,"Velocity":95,"Duration":719505,"SoundDuration":719505,"Delta":245572278},{"NoteNumber":36,"Velocity":100,"Duration":1419252,"SoundDuration":1419252,"Delta":245572278},{"NoteNumber":44,"Velocity":92,"Duration":349363,"SoundDuration":349363,"Delta":245942420},{"NoteNumber":42,"Velocity":78,"Duration":349363,"SoundDuration":349363,"Delta":246115830},{"NoteNumber":45,"Velocity":78,"Duration":349363,"SoundDuration":349363,"Delta":246291783},{"NoteNumber":57,"Velocity":85,"Duration":1403701,"SoundDuration":1403701,"Delta":246291783},{"NoteNumber":39,"Velocity":78,"Duration":349865,"SoundDuration":349865,"Delta":246465194},{"NoteNumber":48,"Velocity":78,"Duration":1802546,"SoundDuration":1802546,"Delta":246641147},{"NoteNumber":36,"Velocity":78,"Duration":176470,"SoundDuration":176470,"Delta":246815060},{"NoteNumber":51,"Velocity":78,"Duration":1452163,"SoundDuration":1452163,"Delta":246991530},{"NoteNumber":36,"Velocity":78,"Duration":1452163,"SoundDuration":1452163,"Delta":246991530},{"NoteNumber":33,"Velocity":78,"Duration":350903,"SoundDuration":350903,"Delta":247164941},{"NoteNumber":54,"Velocity":78,"Duration":353553,"SoundDuration":353553,"Delta":247341932},{"NoteNumber":30,"Velocity":78,"Duration":355079,"SoundDuration":355079,"Delta":247515845},{"NoteNumber":57,"Velocity":78,"Duration":748208,"SoundDuration":748208,"Delta":247695485},{"NoteNumber":27,"Velocity":78,"Duration":356631,"SoundDuration":356631,"Delta":247870924},{"NoteNumber":60,"Velocity":78,"Duration":393129,"SoundDuration":393129,"Delta":248050564},{"NoteNumber":24,"Velocity":78,"Duration":216138,"SoundDuration":216138,"Delta":248227555},{"NoteNumber":50,"Velocity":75,"Duration":378309,"SoundDuration":378309,"Delta":248443694},{"NoteNumber":55,"Velocity":79,"Duration":378309,"SoundDuration":378309,"Delta":248443694},{"NoteNumber":58,"Velocity":88,"Duration":378309,"SoundDuration":378309,"Delta":248443694},{"NoteNumber":31,"Velocity":81,"Duration":378309,"SoundDuration":378309,"Delta":248443694},{"NoteNumber":46,"Velocity":78,"Duration":372633,"SoundDuration":372633,"Delta":248822004},{"NoteNumber":62,"Velocity":78,"Duration":380277,"SoundDuration":380277,"Delta":249006053},{"NoteNumber":50,"Velocity":79,"Duration":391020,"SoundDuration":391020,"Delta":249194637},{"NoteNumber":58,"Velocity":81,"Duration":393502,"SoundDuration":393502,"Delta":249386330},{"NoteNumber":55,"Velocity":81,"Duration":192556,"SoundDuration":192556,"Delta":249585658},{"NoteNumber":55,"Velocity":82,"Duration":405931,"SoundDuration":405931,"Delta":249779833},{"NoteNumber":58,"Velocity":85,"Duration":411571,"SoundDuration":411571,"Delta":249985095},{"NoteNumber":50,"Velocity":85,"Duration":419816,"SoundDuration":419816,"Delta":250185764},{"NoteNumber":62,"Velocity":87,"Duration":427079,"SoundDuration":427079,"Delta":250396667},{"NoteNumber":46,"Velocity":88,"Duration":435557,"SoundDuration":435557,"Delta":250605580},{"NoteNumber":67,"Velocity":88,"Duration":445189,"SoundDuration":445189,"Delta":250823747},{"NoteNumber":43,"Velocity":94,"Duration":459721,"SoundDuration":459721,"Delta":251041138},{"NoteNumber":70,"Velocity":91,"Duration":1549017,"SoundDuration":1549017,"Delta":251268936},{"NoteNumber":31,"Velocity":103,"Duration":1317094,"SoundDuration":1317094,"Delta":251500860},{"NoteNumber":79,"Velocity":101,"Duration":1014370,"SoundDuration":1014370,"Delta":251803584}],"license":{"name":"Creative Commons Attribution-ShareAlike 3.0 Germany","url":"http://creativecommons.org/licenses/by-sa/3.0/de/deed.en","text":"The MIDI files in this folder were downloaded from http://www.piano-midi.de and are licensed under the Creative Commons Attribution-ShareAlike 3.0 Germany license by Bernd Krueger.\n\nThe MIDI, audio(MP3, OGG) and video files of Bernd Krueger are licensed under the cc-by-sa Germany License . This means, that you can use and adapt the files, as long as you attribute to the copyright holder Name: Bernd Krueger Source: http://www.piano-midi.de The distribution or public playback of the files is only allowed under identical license conditions . The scores are open source.","attribution":"Bernd Krueger","attributionUrl":"http://www.piano-midi.de"}}