{"title":"Kinderszenen, Op. 15: No. 10 \"Fast zu ernst\"","artist":"Schumann","durationMs":70753,"midiSha256":"b94884032b9c896056563396a9b5551dd26ac027fa2862a950b9f12470bd0728","midiObject":[{"NoteNumber":63,"Velocity":47,"Duration":582524,"SoundDuration":582524,"Delta":0},{"NoteNumber":44,"Velocity":29,"Duration":291262,"SoundDuration":291262,"Delta":291262},{"NoteNumber":68,"Velocity":53,"Duration":555134,"SoundDuration":555134,"Delta":582524},{"NoteNumber":63,"Velocity":35,"Duration":277777,"SoundDuration":277777,"Delta":582524},{"NoteNumber":59,"Velocity":26,"Duration":540514,"SoundDuration":540514,"Delta":860302},{"NoteNumber":56,"Velocity":23,"Duration":277356,"SoundDuration":277356,"Delta":860302},{"NoteNumber":71,"Velocity":45,"Duration":526316,"SoundDuration":526316,"Delta":1137659},{"NoteNumber":51,"Velocity":29,"Duration":263157,"SoundDuration":263157,"Delta":1137659},{"NoteNumber":44,"Velocity":33,"Duration":263158,"SoundDuration":263158,"Delta":1400817},{"NoteNumber":70,"Velocity":50,"Duration":550458,"SoundDuration":550458,"Delta":1663975},{"NoteNumber":63,"Velocity":27,"Duration":275229,"SoundDuration":275229,"Delta":1663975},{"NoteNumber":61,"Velocity":27,"Duration":538387,"SoundDuration":538387,"Delta":1939204},{"NoteNumber":55,"Velocity":26,"Duration":275229,"SoundDuration":275229,"Delta":1939204},{"NoteNumber":67,"Velocity":46,"Duration":526315,"SoundDuration":526315,"Delta":2214433},{"NoteNumber":51,"Velocity":30,"Duration":263157,"SoundDuration":263157,"Delta":2214433},{"NoteNumber":44,"Velocity":30,"Duration":263157,"SoundDuration":263157,"Delta":2477591},{"NoteNumber":68,"Velocity":50,"Duration":555555,"SoundDuration":555555,"Delta":2740749},{"NoteNumber":63,"Velocity":36,"Duration":277777,"SoundDuration":277777,"Delta":2740749},{"NoteNumber":59,"Velocity":28,"Duration":543264,"SoundDuration":543264,"Delta":3018527},{"NoteNumber":56,"Velocity":26,"Duration":277777,"SoundDuration":277777,"Delta":3018527},{"NoteNumber":70,"Velocity":51,"Duration":530973,"SoundDuration":530973,"Delta":3296305},{"NoteNumber":51,"Velocity":28,"Duration":265486,"SoundDuration":265486,"Delta":3296305},{"NoteNumber":43,"Velocity":30,"Duration":265486,"SoundDuration":265486,"Delta":3561791},{"NoteNumber":71,"Velocity":53,"Duration":560747,"SoundDuration":560747,"Delta":3827278},{"NoteNumber":64,"Velocity":35,"Duration":280373,"SoundDuration":280373,"Delta":3827278},{"NoteNumber":59,"Velocity":30,"Duration":550644,"SoundDuration":550644,"Delta":4107652},{"NoteNumber":61,"Velocity":26,"Duration":280373,"SoundDuration":280373,"Delta":4107652},{"NoteNumber":73,"Velocity":51,"Duration":540540,"SoundDuration":540540,"Delta":4388026},{"NoteNumber":52,"Velocity":33,"Duration":270270,"SoundDuration":270270,"Delta":4388026},{"NoteNumber":42,"Velocity":35,"Duration":270270,"SoundDuration":270270,"Delta":4658296},{"NoteNumber":75,"Velocity":44,"Duration":571428,"SoundDuration":571428,"Delta":4928566},{"NoteNumber":66,"Velocity":38,"Duration":285714,"SoundDuration":285714,"Delta":4928566},{"NoteNumber":63,"Velocity":28,"Duration":566087,"SoundDuration":566087,"Delta":5214280},{"NoteNumber":59,"Velocity":24,"Duration":285714,"SoundDuration":285714,"Delta":5214280},{"NoteNumber":76,"Velocity":38,"Duration":560747,"SoundDuration":560747,"Delta":5499995},{"NoteNumber":54,"Velocity":29,"Duration":280373,"SoundDuration":280373,"Delta":5499995},{"NoteNumber":42,"Velocity":33,"Duration":280373,"SoundDuration":280373,"Delta":5780368},{"NoteNumber":73,"Velocity":41,"Duration":624999,"SoundDuration":624999,"Delta":6060742},{"NoteNumber":66,"Velocity":27,"Duration":312499,"SoundDuration":312499,"Delta":6060742},{"NoteNumber":64,"Velocity":26,"Duration":645833,"SoundDuration":645833,"Delta":6373242},{"NoteNumber":58,"Velocity":27,"Duration":312500,"SoundDuration":312500,"Delta":6373242},{"NoteNumber":75,"Velocity":37,"Duration":666666,"SoundDuration":666666,"Delta":6685742},{"NoteNumber":54,"Velocity":27,"Duration":333333,"SoundDuration":333333,"Delta":6685742},{"NoteNumber":47,"Velocity":28,"Duration":333333,"SoundDuration":333333,"Delta":7019075},{"NoteNumber":71,"Velocity":36,"Duration":765504,"SoundDuration":765504,"Delta":7352409},{"NoteNumber":66,"Velocity":30,"Duration":1924924,"SoundDuration":1924924,"Delta":7352409},{"NoteNumber":63,"Velocity":29,"Duration":1576087,"SoundDuration":1576087,"Delta":7701246},{"NoteNumber":59,"Velocity":28,"Duration":1576087,"SoundDuration":1576087,"Delta":7701246},{"NoteNumber":54,"Velocity":26,"Duration":1159420,"SoundDuration":1159420,"Delta":8117913},{"NoteNumber":66,"Velocity":47,"Duration":555555,"SoundDuration":555555,"Delta":9603420},{"NoteNumber":47,"Velocity":29,"Duration":277777,"SoundDuration":277777,"Delta":9881198},{"NoteNumber":71,"Velocity":53,"Duration":526315,"SoundDuration":526315,"Delta":10158976},{"NoteNumber":66,"Velocity":34,"Duration":263158,"SoundDuration":263158,"Delta":10158976},{"NoteNumber":63,"Velocity":26,"Duration":519568,"SoundDuration":519568,"Delta":10422134},{"NoteNumber":59,"Velocity":23,"Duration":263157,"SoundDuration":263157,"Delta":10422134},{"NoteNumber":75,"Velocity":45,"Duration":512820,"SoundDuration":512820,"Delta":10685292},{"NoteNumber":54,"Velocity":29,"Duration":256410,"SoundDuration":256410,"Delta":10685292},{"NoteNumber":47,"Velocity":33,"Duration":256410,"SoundDuration":256410,"Delta":10941702},{"NoteNumber":73,"Velocity":50,"Duration":530973,"SoundDuration":530973,"Delta":11198112},{"NoteNumber":67,"Velocity":27,"Duration":794131,"SoundDuration":794131,"Delta":11198112},{"NoteNumber":64,"Velocity":27,"Duration":528644,"SoundDuration":528644,"Delta":11463599},{"NoteNumber":61,"Velocity":26,"Duration":265486,"SoundDuration":265486,"Delta":11463599},{"NoteNumber":70,"Velocity":46,"Duration":526315,"SoundDuration":526315,"Delta":11729086},{"NoteNumber":54,"Velocity":30,"Duration":263158,"SoundDuration":263158,"Delta":11729086},{"NoteNumber":47,"Velocity":30,"Duration":263157,"SoundDuration":263157,"Delta":11992244},{"NoteNumber":71,"Velocity":50,"Duration":540540,"SoundDuration":540540,"Delta":12255402},{"NoteNumber":66,"Velocity":34,"Duration":270270,"SoundDuration":270270,"Delta":12255402},{"NoteNumber":63,"Velocity":28,"Duration":535757,"SoundDuration":535757,"Delta":12525672},{"NoteNumber":59,"Velocity":26,"Duration":270270,"SoundDuration":270270,"Delta":12525672},{"NoteNumber":73,"Velocity":51,"Duration":530973,"SoundDuration":530973,"Delta":12795942},{"NoteNumber":54,"Velocity":28,"Duration":265486,"SoundDuration":265486,"Delta":12795942},{"NoteNumber":44,"Velocity":30,"Duration":265486,"SoundDuration":265486,"Delta":13061429},{"NoteNumber":75,"Velocity":53,"Duration":560747,"SoundDuration":560747,"Delta":13326916},{"NoteNumber":65,"Velocity":35,"Duration":280373,"SoundDuration":280373,"Delta":13326916},{"NoteNumber":63,"Velocity":30,"Duration":545860,"SoundDuration":545860,"Delta":13607289},{"NoteNumber":59,"Velocity":26,"Duration":280373,"SoundDuration":280373,"Delta":13607289},{"NoteNumber":77,"Velocity":57,"Duration":530973,"SoundDuration":530973,"Delta":13887663},{"NoteNumber":53,"Velocity":33,"Duration":265486,"SoundDuration":265486,"Delta":13887663},{"NoteNumber":46,"Velocity":35,"Duration":265486,"SoundDuration":265486,"Delta":14153150},{"NoteNumber":78,"Velocity":61,"Duration":571428,"SoundDuration":571428,"Delta":14418637},{"NoteNumber":70,"Velocity":38,"Duration":285714,"SoundDuration":285714,"Delta":14418637},{"NoteNumber":66,"Velocity":35,"Duration":566087,"SoundDuration":566087,"Delta":14704351},{"NoteNumber":63,"Velocity":24,"Duration":285714,"SoundDuration":285714,"Delta":14704351},{"NoteNumber":80,"Velocity":52,"Duration":560747,"SoundDuration":560747,"Delta":14990065},{"NoteNumber":58,"Velocity":29,"Duration":280373,"SoundDuration":280373,"Delta":14990065},{"NoteNumber":46,"Velocity":33,"Duration":280373,"SoundDuration":280373,"Delta":15270439},{"NoteNumber":77,"Velocity":55,"Duration":625000,"SoundDuration":625000,"Delta":15550813},{"NoteNumber":71,"Velocity":27,"Duration":977941,"SoundDuration":977941,"Delta":15550813},{"NoteNumber":68,"Velocity":26,"Duration":665441,"SoundDuration":665441,"Delta":15863313},{"NoteNumber":62,"Velocity":27,"Duration":312500,"SoundDuration":312500,"Delta":15863313},{"NoteNumber":78,"Velocity":44,"Duration":705882,"SoundDuration":705882,"Delta":16175813},{"NoteNumber":58,"Velocity":27,"Duration":352941,"SoundDuration":352941,"Delta":16175813},{"NoteNumber":51,"Velocity":28,"Duration":352941,"SoundDuration":352941,"Delta":16528754},{"NoteNumber":75,"Velocity":34,"Duration":1972943,"SoundDuration":1972943,"Delta":16881695},{"NoteNumber":70,"Velocity":27,"Duration":1972943,"SoundDuration":1972943,"Delta":16881695},{"NoteNumber":66,"Velocity":26,"Duration":1583333,"SoundDuration":1583333,"Delta":17271306},{"NoteNumber":63,"Velocity":26,"Duration":1583333,"SoundDuration":1583333,"Delta":17271306},{"NoteNumber":58,"Velocity":26,"Duration":1166666,"SoundDuration":1166666,"Delta":17687972},{"NoteNumber":75,"Velocity":48,"Duration":555555,"SoundDuration":555555,"Delta":19187972},{"NoteNumber":51,"Velocity":28,"Duration":277777,"SoundDuration":277777,"Delta":19465750},{"NoteNumber":76,"Velocity":51,"Duration":526316,"SoundDuration":526316,"Delta":19743528},{"NoteNumber":70,"Velocity":31,"Duration":263158,"SoundDuration":263158,"Delta":19743528},{"NoteNumber":67,"Velocity":27,"Duration":524027,"SoundDuration":524027,"Delta":20006686},{"NoteNumber":64,"Velocity":24,"Duration":263158,"SoundDuration":263158,"Delta":20006686},{"NoteNumber":73,"Velocity":45,"Duration":521739,"SoundDuration":521739,"Delta":20269844},{"NoteNumber":61,"Velocity":30,"Duration":260869,"SoundDuration":260869,"Delta":20269844},{"NoteNumber":51,"Velocity":27,"Duration":260869,"SoundDuration":260869,"Delta":20530713},{"NoteNumber":75,"Velocity":48,"Duration":540540,"SoundDuration":540540,"Delta":20791583},{"NoteNumber":71,"Velocity":30,"Duration":270270,"SoundDuration":270270,"Delta":20791583},{"NoteNumber":68,"Velocity":28,"Duration":540540,"SoundDuration":540540,"Delta":21061853},{"NoteNumber":63,"Velocity":25,"Duration":270270,"SoundDuration":270270,"Delta":21061853},{"NoteNumber":71,"Velocity":45,"Duration":540540,"SoundDuration":540540,"Delta":21332123},{"NoteNumber":59,"Velocity":28,"Duration":270270,"SoundDuration":270270,"Delta":21332123},{"NoteNumber":51,"Velocity":28,"Duration":270270,"SoundDuration":270270,"Delta":21602394},{"NoteNumber":71,"Velocity":44,"Duration":571428,"SoundDuration":571428,"Delta":21872664},{"NoteNumber":65,"Velocity":29,"Duration":285714,"SoundDuration":285714,"Delta":21872664},{"NoteNumber":62,"Velocity":27,"Duration":585714,"SoundDuration":585714,"Delta":22158378},{"NoteNumber":59,"Velocity":24,"Duration":285714,"SoundDuration":285714,"Delta":22158378},{"NoteNumber":68,"Velocity":39,"Duration":600000,"SoundDuration":600000,"Delta":22444092},{"NoteNumber":56,"Velocity":28,"Duration":300000,"SoundDuration":300000,"Delta":22444092},{"NoteNumber":39,"Velocity":33,"Duration":300000,"SoundDuration":300000,"Delta":22744092},{"NoteNumber":67,"Velocity":35,"Duration":691116,"SoundDuration":691116,"Delta":23044092},{"NoteNumber":67,"Velocity":28,"Duration":1775453,"SoundDuration":1775453,"Delta":23044092},{"NoteNumber":63,"Velocity":26,"Duration":1445782,"SoundDuration":1445782,"Delta":23373763},{"NoteNumber":58,"Velocity":23,"Duration":1445782,"SoundDuration":1445782,"Delta":23373763},{"NoteNumber":70,"Velocity":25,"Duration":1084337,"SoundDuration":1084337,"Delta":23735208},{"NoteNumber":63,"Velocity":45,"Duration":558962,"SoundDuration":558962,"Delta":25180991},{"NoteNumber":44,"Velocity":27,"Duration":283018,"SoundDuration":283018,"Delta":25464010},{"NoteNumber":68,"Velocity":51,"Duration":535714,"SoundDuration":535714,"Delta":25747029},{"NoteNumber":63,"Velocity":27,"Duration":267857,"SoundDuration":267857,"Delta":25747029},{"NoteNumber":59,"Velocity":28,"Duration":528726,"SoundDuration":528726,"Delta":26014886},{"NoteNumber":56,"Velocity":22,"Duration":267857,"SoundDuration":267857,"Delta":26014886},{"NoteNumber":70,"Velocity":53,"Duration":521739,"SoundDuration":521739,"Delta":26282743},{"NoteNumber":51,"Velocity":27,"Duration":260869,"SoundDuration":260869,"Delta":26282743},{"NoteNumber":40,"Velocity":34,"Duration":260869,"SoundDuration":260869,"Delta":26543613},{"NoteNumber":71,"Velocity":55,"Duration":521739,"SoundDuration":521739,"Delta":26804482},{"NoteNumber":64,"Velocity":29,"Duration":782608,"SoundDuration":782608,"Delta":26804482},{"NoteNumber":61,"Velocity":28,"Duration":521739,"SoundDuration":521739,"Delta":27065352},{"NoteNumber":56,"Velocity":22,"Duration":260869,"SoundDuration":260869,"Delta":27065352},{"NoteNumber":59,"Velocity":22,"Duration":521739,"SoundDuration":521739,"Delta":27065352},{"NoteNumber":73,"Velocity":52,"Duration":521739,"SoundDuration":521739,"Delta":27326221},{"NoteNumber":55,"Velocity":27,"Duration":260869,"SoundDuration":260869,"Delta":27326221},{"NoteNumber":42,"Velocity":30,"Duration":260869,"SoundDuration":260869,"Delta":27587091},{"NoteNumber":75,"Velocity":55,"Duration":526316,"SoundDuration":526316,"Delta":27847960},{"NoteNumber":64,"Velocity":31,"Duration":776316,"SoundDuration":776316,"Delta":27847960},{"NoteNumber":61,"Velocity":33,"Duration":513158,"SoundDuration":513158,"Delta":28111118},{"NoteNumber":54,"Velocity":22,"Duration":263158,"SoundDuration":263158,"Delta":28111118},{"NoteNumber":58,"Velocity":22,"Duration":513158,"SoundDuration":513158,"Delta":28111118},{"NoteNumber":73,"Velocity":53,"Duration":500000,"SoundDuration":500000,"Delta":28374276},{"NoteNumber":52,"Velocity":27,"Duration":250000,"SoundDuration":250000,"Delta":28374276},{"NoteNumber":35,"Velocity":42,"Duration":250000,"SoundDuration":250000,"Delta":28624276},{"NoteNumber":71,"Velocity":50,"Duration":277777,"SoundDuration":277777,"Delta":28874276},{"NoteNumber":63,"Velocity":27,"Duration":277777,"SoundDuration":277777,"Delta":28874276},{"NoteNumber":59,"Velocity":27,"Duration":543264,"SoundDuration":543264,"Delta":29152054},{"NoteNumber":54,"Velocity":25,"Duration":277777,"SoundDuration":277777,"Delta":29152054},{"NoteNumber":71,"Velocity":46,"Duration":530973,"SoundDuration":530973,"Delta":29429832},{"NoteNumber":51,"Velocity":27,"Duration":265486,"SoundDuration":265486,"Delta":29429832},{"NoteNumber":39,"Velocity":44,"Duration":265486,"SoundDuration":265486,"Delta":29695319},{"NoteNumber":71,"Velocity":49,"Duration":597384,"SoundDuration":597384,"Delta":29960805},{"NoteNumber":63,"Velocity":27,"Duration":306122,"SoundDuration":306122,"Delta":29960805},{"NoteNumber":61,"Velocity":42,"Duration":445901,"SoundDuration":445901,"Delta":30266928},{"NoteNumber":55,"Velocity":27,"Duration":291262,"SoundDuration":291262,"Delta":30266928},{"NoteNumber":70,"Velocity":46,"Duration":618556,"SoundDuration":618556,"Delta":30558190},{"NoteNumber":51,"Velocity":27,"Duration":309278,"SoundDuration":309278,"Delta":30558190},{"NoteNumber":63,"Velocity":37,"Duration":463917,"SoundDuration":463917,"Delta":30712829},{"NoteNumber":44,"Velocity":33,"Duration":309278,"SoundDuration":309278,"Delta":30867468},{"NoteNumber":68,"Velocity":46,"Duration":576923,"SoundDuration":576923,"Delta":31176747},{"NoteNumber":63,"Velocity":33,"Duration":288461,"SoundDuration":288461,"Delta":31176747},{"NoteNumber":59,"Velocity":26,"Duration":558731,"SoundDuration":558731,"Delta":31465208},{"NoteNumber":56,"Velocity":23,"Duration":288461,"SoundDuration":288461,"Delta":31465208},{"NoteNumber":71,"Velocity":44,"Duration":540540,"SoundDuration":540540,"Delta":31753670},{"NoteNumber":51,"Velocity":29,"Duration":270270,"SoundDuration":270270,"Delta":31753670},{"NoteNumber":44,"Velocity":33,"Duration":270270,"SoundDuration":270270,"Delta":32023940},{"NoteNumber":70,"Velocity":46,"Duration":555555,"SoundDuration":555555,"Delta":32294210},{"NoteNumber":63,"Velocity":27,"Duration":277777,"SoundDuration":277777,"Delta":32294210},{"NoteNumber":61,"Velocity":27,"Duration":538647,"SoundDuration":538647,"Delta":32571988},{"NoteNumber":55,"Velocity":26,"Duration":277777,"SoundDuration":277777,"Delta":32571988},{"NoteNumber":67,"Velocity":46,"Duration":521738,"SoundDuration":521738,"Delta":32849766},{"NoteNumber":51,"Velocity":30,"Duration":260869,"SoundDuration":260869,"Delta":32849766},{"NoteNumber":44,"Velocity":30,"Duration":260869,"SoundDuration":260869,"Delta":33110635},{"NoteNumber":68,"Velocity":50,"Duration":545454,"SoundDuration":545454,"Delta":33371505},{"NoteNumber":63,"Velocity":36,"Duration":272727,"SoundDuration":272727,"Delta":33371505},{"NoteNumber":59,"Velocity":28,"Duration":529137,"SoundDuration":529137,"Delta":33644232},{"NoteNumber":56,"Velocity":26,"Duration":272727,"SoundDuration":272727,"Delta":33644232},{"NoteNumber":70,"Velocity":51,"Duration":512820,"SoundDuration":512820,"Delta":33916959},{"NoteNumber":51,"Velocity":28,"Duration":256410,"SoundDuration":256410,"Delta":33916959},{"NoteNumber":43,"Velocity":30,"Duration":256410,"SoundDuration":256410,"Delta":34173369},{"NoteNumber":71,"Velocity":53,"Duration":560747,"SoundDuration":560747,"Delta":34429780},{"NoteNumber":64,"Velocity":35,"Duration":280373,"SoundDuration":280373,"Delta":34429780},{"NoteNumber":59,"Velocity":30,"Duration":550643,"SoundDuration":550643,"Delta":34710153},{"NoteNumber":61,"Velocity":26,"Duration":280373,"SoundDuration":280373,"Delta":34710153},{"NoteNumber":73,"Velocity":51,"Duration":540540,"SoundDuration":540540,"Delta":34990527},{"NoteNumber":52,"Velocity":33,"Duration":270270,"SoundDuration":270270,"Delta":34990527},{"NoteNumber":42,"Velocity":40,"Duration":270270,"SoundDuration":270270,"Delta":35260797},{"NoteNumber":75,"Velocity":44,"Duration":588235,"SoundDuration":588235,"Delta":35531068},{"NoteNumber":66,"Velocity":38,"Duration":294117,"SoundDuration":294117,"Delta":35531068},{"NoteNumber":63,"Velocity":28,"Duration":574491,"SoundDuration":574491,"Delta":35825185},{"NoteNumber":59,"Velocity":24,"Duration":294117,"SoundDuration":294117,"Delta":35825185},{"NoteNumber":76,"Velocity":38,"Duration":560747,"SoundDuration":560747,"Delta":36119303},{"NoteNumber":54,"Velocity":29,"Duration":280373,"SoundDuration":280373,"Delta":36119303},{"NoteNumber":42,"Velocity":36,"Duration":280373,"SoundDuration":280373,"Delta":36399677},{"NoteNumber":73,"Velocity":41,"Duration":645161,"SoundDuration":645161,"Delta":36680051},{"NoteNumber":66,"Velocity":27,"Duration":322580,"SoundDuration":322580,"Delta":36680051},{"NoteNumber":64,"Velocity":26,"Duration":663489,"SoundDuration":663489,"Delta":37002631},{"NoteNumber":58,"Velocity":27,"Duration":322580,"SoundDuration":322580,"Delta":37002631},{"NoteNumber":75,"Velocity":37,"Duration":681817,"SoundDuration":681817,"Delta":37325212},{"NoteNumber":54,"Velocity":27,"Duration":340909,"SoundDuration":340909,"Delta":37325212},{"NoteNumber":47,"Velocity":28,"Duration":340908,"SoundDuration":340908,"Delta":37666121},{"NoteNumber":71,"Velocity":36,"Duration":2154316,"SoundDuration":2154316,"Delta":38007030},{"NoteNumber":66,"Velocity":30,"Duration":2154316,"SoundDuration":2154316,"Delta":38007030},{"NoteNumber":63,"Velocity":29,"Duration":1764705,"SoundDuration":1764705,"Delta":38396641},{"NoteNumber":59,"Velocity":28,"Duration":1764705,"SoundDuration":1764705,"Delta":38396641},{"NoteNumber":54,"Velocity":26,"Duration":1323529,"SoundDuration":1323529,"Delta":38837817},{"NoteNumber":66,"Velocity":51,"Duration":555555,"SoundDuration":555555,"Delta":40602523},{"NoteNumber":47,"Velocity":29,"Duration":277777,"SoundDuration":277777,"Delta":40880301},{"NoteNumber":71,"Velocity":53,"Duration":526316,"SoundDuration":526316,"Delta":41158079},{"NoteNumber":66,"Velocity":34,"Duration":263157,"SoundDuration":263157,"Delta":41158079},{"NoteNumber":63,"Velocity":26,"Duration":519568,"SoundDuration":519568,"Delta":41421237},{"NoteNumber":59,"Velocity":23,"Duration":263158,"SoundDuration":263158,"Delta":41421237},{"NoteNumber":75,"Velocity":45,"Duration":512820,"SoundDuration":512820,"Delta":41684395},{"NoteNumber":54,"Velocity":29,"Duration":256410,"SoundDuration":256410,"Delta":41684395},{"NoteNumber":47,"Velocity":33,"Duration":256410,"SoundDuration":256410,"Delta":41940805},{"NoteNumber":73,"Velocity":50,"Duration":530973,"SoundDuration":530973,"Delta":42197215},{"NoteNumber":67,"Velocity":27,"Duration":794131,"SoundDuration":794131,"Delta":42197215},{"NoteNumber":64,"Velocity":27,"Duration":528644,"SoundDuration":528644,"Delta":42462702},{"NoteNumber":61,"Velocity":26,"Duration":265486,"SoundDuration":265486,"Delta":42462702},{"NoteNumber":70,"Velocity":46,"Duration":526316,"SoundDuration":526316,"Delta":42728189},{"NoteNumber":54,"Velocity":30,"Duration":263157,"SoundDuration":263157,"Delta":42728189},{"NoteNumber":47,"Velocity":30,"Duration":263158,"SoundDuration":263158,"Delta":42991347},{"NoteNumber":71,"Velocity":50,"Duration":540540,"SoundDuration":540540,"Delta":43254505},{"NoteNumber":66,"Velocity":34,"Duration":270270,"SoundDuration":270270,"Delta":43254505},{"NoteNumber":63,"Velocity":28,"Duration":535756,"SoundDuration":535756,"Delta":43524775},{"NoteNumber":59,"Velocity":26,"Duration":270270,"SoundDuration":270270,"Delta":43524775},{"NoteNumber":73,"Velocity":51,"Duration":530973,"SoundDuration":530973,"Delta":43795045},{"NoteNumber":54,"Velocity":28,"Duration":265486,"SoundDuration":265486,"Delta":43795045},{"NoteNumber":44,"Velocity":30,"Duration":265486,"SoundDuration":265486,"Delta":44060532},{"NoteNumber":75,"Velocity":53,"Duration":560747,"SoundDuration":560747,"Delta":44326019},{"NoteNumber":65,"Velocity":35,"Duration":280373,"SoundDuration":280373,"Delta":44326019},{"NoteNumber":63,"Velocity":30,"Duration":545860,"SoundDuration":545860,"Delta":44606392},{"NoteNumber":59,"Velocity":26,"Duration":280373,"SoundDuration":280373,"Delta":44606392},{"NoteNumber":77,"Velocity":57,"Duration":530973,"SoundDuration":530973,"Delta":44886766},{"NoteNumber":53,"Velocity":33,"Duration":265486,"SoundDuration":265486,"Delta":44886766},{"NoteNumber":46,"Velocity":35,"Duration":265486,"SoundDuration":265486,"Delta":45152253},{"NoteNumber":78,"Velocity":61,"Duration":571428,"SoundDuration":571428,"Delta":45417740},{"NoteNumber":70,"Velocity":38,"Duration":285714,"SoundDuration":285714,"Delta":45417740},{"NoteNumber":66,"Velocity":35,"Duration":566088,"SoundDuration":566088,"Delta":45703454},{"NoteNumber":63,"Velocity":24,"Duration":285714,"SoundDuration":285714,"Delta":45703454},{"NoteNumber":80,"Velocity":52,"Duration":560747,"SoundDuration":560747,"Delta":45989168},{"NoteNumber":58,"Velocity":29,"Duration":280373,"SoundDuration":280373,"Delta":45989168},{"NoteNumber":46,"Velocity":33,"Duration":280373,"SoundDuration":280373,"Delta":46269542},{"NoteNumber":77,"Velocity":55,"Duration":625000,"SoundDuration":625000,"Delta":46549916},{"NoteNumber":71,"Velocity":27,"Duration":977941,"SoundDuration":977941,"Delta":46549916},{"NoteNumber":68,"Velocity":26,"Duration":665441,"SoundDuration":665441,"Delta":46862416},{"NoteNumber":62,"Velocity":27,"Duration":312500,"SoundDuration":312500,"Delta":46862416},{"NoteNumber":78,"Velocity":44,"Duration":705882,"SoundDuration":705882,"Delta":47174916},{"NoteNumber":58,"Velocity":27,"Duration":352941,"SoundDuration":352941,"Delta":47174916},{"NoteNumber":51,"Velocity":28,"Duration":352941,"SoundDuration":352941,"Delta":47527857},{"NoteNumber":75,"Velocity":34,"Duration":1972944,"SoundDuration":1972944,"Delta":47880798},{"NoteNumber":70,"Velocity":27,"Duration":1972944,"SoundDuration":1972944,"Delta":47880798},{"NoteNumber":66,"Velocity":26,"Duration":1583333,"SoundDuration":1583333,"Delta":48270409},{"NoteNumber":63,"Velocity":26,"Duration":1583333,"SoundDuration":1583333,"Delta":48270409},{"NoteNumber":58,"Velocity":26,"Duration":1166666,"SoundDuration":1166666,"Delta":48687075},{"NoteNumber":75,"Velocity":48,"Duration":555555,"SoundDuration":555555,"Delta":50187075},{"NoteNumber":51,"Velocity":28,"Duration":277777,"SoundDuration":277777,"Delta":50464853},{"NoteNumber":76,"Velocity":51,"Duration":526316,"SoundDuration":526316,"Delta":50742631},{"NoteNumber":70,"Velocity":31,"Duration":263157,"SoundDuration":263157,"Delta":50742631},{"NoteNumber":67,"Velocity":27,"Duration":524027,"SoundDuration":524027,"Delta":51005789},{"NoteNumber":64,"Velocity":24,"Duration":263158,"SoundDuration":263158,"Delta":51005789},{"NoteNumber":73,"Velocity":45,"Duration":521738,"SoundDuration":521738,"Delta":51268947},{"NoteNumber":61,"Velocity":30,"Duration":260869,"SoundDuration":260869,"Delta":51268947},{"NoteNumber":51,"Velocity":27,"Duration":260869,"SoundDuration":260869,"Delta":51529816},{"NoteNumber":75,"Velocity":48,"Duration":540540,"SoundDuration":540540,"Delta":51790686},{"NoteNumber":71,"Velocity":30,"Duration":270270,"SoundDuration":270270,"Delta":51790686},{"NoteNumber":68,"Velocity":28,"Duration":540540,"SoundDuration":540540,"Delta":52060956},{"NoteNumber":63,"Velocity":25,"Duration":270270,"SoundDuration":270270,"Delta":52060956},{"NoteNumber":71,"Velocity":45,"Duration":540540,"SoundDuration":540540,"Delta":52331226},{"NoteNumber":59,"Velocity":28,"Duration":270270,"SoundDuration":270270,"Delta":52331226},{"NoteNumber":51,"Velocity":28,"Duration":270270,"SoundDuration":270270,"Delta":52601497},{"NoteNumber":71,"Velocity":44,"Duration":571428,"SoundDuration":571428,"Delta":52871767},{"NoteNumber":65,"Velocity":29,"Duration":285714,"SoundDuration":285714,"Delta":52871767},{"NoteNumber":62,"Velocity":27,"Duration":585714,"SoundDuration":585714,"Delta":53157481},{"NoteNumber":59,"Velocity":24,"Duration":285714,"SoundDuration":285714,"Delta":53157481},{"NoteNumber":68,"Velocity":39,"Duration":600000,"SoundDuration":600000,"Delta":53443195},{"NoteNumber":56,"Velocity":28,"Duration":299999,"SoundDuration":299999,"Delta":53443195},{"NoteNumber":39,"Velocity":33,"Duration":300000,"SoundDuration":300000,"Delta":53743195},{"NoteNumber":67,"Velocity":38,"Duration":691116,"SoundDuration":691116,"Delta":54043195},{"NoteNumber":67,"Velocity":28,"Duration":1775453,"SoundDuration":1775453,"Delta":54043195},{"NoteNumber":63,"Velocity":26,"Duration":1445782,"SoundDuration":1445782,"Delta":54372866},{"NoteNumber":58,"Velocity":23,"Duration":1445782,"SoundDuration":1445782,"Delta":54372866},{"NoteNumber":70,"Velocity":25,"Duration":1084337,"SoundDuration":1084337,"Delta":54734311},{"NoteNumber":63,"Velocity":45,"Duration":558962,"SoundDuration":558962,"Delta":56180094},{"NoteNumber":44,"Velocity":27,"Duration":283018,"SoundDuration":283018,"Delta":56463113},{"NoteNumber":68,"Velocity":51,"Duration":535714,"SoundDuration":535714,"Delta":56746132},{"NoteNumber":63,"Velocity":27,"Duration":267857,"SoundDuration":267857,"Delta":56746132},{"NoteNumber":59,"Velocity":28,"Duration":528726,"SoundDuration":528726,"Delta":57013989},{"NoteNumber":56,"Velocity":22,"Duration":267857,"SoundDuration":267857,"Delta":57013989},{"NoteNumber":70,"Velocity":53,"Duration":521738,"SoundDuration":521738,"Delta":57281846},{"NoteNumber":51,"Velocity":27,"Duration":260869,"SoundDuration":260869,"Delta":57281846},{"NoteNumber":40,"Velocity":34,"Duration":260869,"SoundDuration":260869,"Delta":57542716},{"NoteNumber":71,"Velocity":55,"Duration":521739,"SoundDuration":521739,"Delta":57803585},{"NoteNumber":64,"Velocity":29,"Duration":782608,"SoundDuration":782608,"Delta":57803585},{"NoteNumber":61,"Velocity":28,"Duration":521738,"SoundDuration":521738,"Delta":58064455},{"NoteNumber":59,"Velocity":22,"Duration":521738,"SoundDuration":521738,"Delta":58064455},{"NoteNumber":56,"Velocity":22,"Duration":260869,"SoundDuration":260869,"Delta":58064455},{"NoteNumber":73,"Velocity":52,"Duration":521738,"SoundDuration":521738,"Delta":58325324},{"NoteNumber":55,"Velocity":27,"Duration":260869,"SoundDuration":260869,"Delta":58325324},{"NoteNumber":42,"Velocity":30,"Duration":260869,"SoundDuration":260869,"Delta":58586194},{"NoteNumber":75,"Velocity":55,"Duration":526316,"SoundDuration":526316,"Delta":58847063},{"NoteNumber":64,"Velocity":31,"Duration":776316,"SoundDuration":776316,"Delta":58847063},{"NoteNumber":61,"Velocity":33,"Duration":513158,"SoundDuration":513158,"Delta":59110221},{"NoteNumber":58,"Velocity":22,"Duration":513158,"SoundDuration":513158,"Delta":59110221},{"NoteNumber":54,"Velocity":22,"Duration":263158,"SoundDuration":263158,"Delta":59110221},{"NoteNumber":73,"Velocity":53,"Duration":500000,"SoundDuration":500000,"Delta":59373379},{"NoteNumber":52,"Velocity":27,"Duration":250000,"SoundDuration":250000,"Delta":59373379},{"NoteNumber":35,"Velocity":44,"Duration":250000,"SoundDuration":250000,"Delta":59623379},{"NoteNumber":71,"Velocity":50,"Duration":277777,"SoundDuration":277777,"Delta":59873379},{"NoteNumber":63,"Velocity":27,"Duration":277777,"SoundDuration":277777,"Delta":59873379},{"NoteNumber":59,"Velocity":27,"Duration":543264,"SoundDuration":543264,"Delta":60151157},{"NoteNumber":54,"Velocity":25,"Duration":277777,"SoundDuration":277777,"Delta":60151157},{"NoteNumber":71,"Velocity":46,"Duration":530973,"SoundDuration":530973,"Delta":60428935},{"NoteNumber":51,"Velocity":27,"Duration":265486,"SoundDuration":265486,"Delta":60428935},{"NoteNumber":39,"Velocity":44,"Duration":265486,"SoundDuration":265486,"Delta":60694422},{"NoteNumber":71,"Velocity":49,"Duration":597384,"SoundDuration":597384,"Delta":60959908},{"NoteNumber":63,"Velocity":27,"Duration":306122,"SoundDuration":306122,"Delta":60959908},{"NoteNumber":61,"Velocity":42,"Duration":454305,"SoundDuration":454305,"Delta":61266031},{"NoteNumber":55,"Velocity":27,"Duration":291262,"SoundDuration":291262,"Delta":61266031},{"NoteNumber":70,"Velocity":46,"Duration":638988,"SoundDuration":638988,"Delta":61557293},{"NoteNumber":51,"Velocity":27,"Duration":329710,"SoundDuration":329710,"Delta":61557293},{"NoteNumber":63,"Velocity":41,"Duration":475944,"SoundDuration":475944,"Delta":61720337},{"NoteNumber":44,"Velocity":33,"Duration":309278,"SoundDuration":309278,"Delta":61887003},{"NoteNumber":68,"Velocity":46,"Duration":576922,"SoundDuration":576922,"Delta":62196281},{"NoteNumber":63,"Velocity":33,"Duration":288461,"SoundDuration":288461,"Delta":62196281},{"NoteNumber":59,"Velocity":29,"Duration":556318,"SoundDuration":556318,"Delta":62484743},{"NoteNumber":56,"Velocity":23,"Duration":288461,"SoundDuration":288461,"Delta":62484743},{"NoteNumber":70,"Velocity":50,"Duration":535714,"SoundDuration":535714,"Delta":62773204},{"NoteNumber":51,"Velocity":29,"Duration":267857,"SoundDuration":267857,"Delta":62773204},{"NoteNumber":44,"Velocity":33,"Duration":267857,"SoundDuration":267857,"Delta":63041062},{"NoteNumber":71,"Velocity":52,"Duration":560747,"SoundDuration":560747,"Delta":63308919},{"NoteNumber":63,"Velocity":35,"Duration":280373,"SoundDuration":280373,"Delta":63308919},{"NoteNumber":59,"Velocity":34,"Duration":568835,"SoundDuration":568835,"Delta":63589293},{"NoteNumber":56,"Velocity":28,"Duration":280373,"SoundDuration":280373,"Delta":63589293},{"NoteNumber":75,"Velocity":56,"Duration":576922,"SoundDuration":576922,"Delta":63869666},{"NoteNumber":51,"Velocity":31,"Duration":288461,"SoundDuration":288461,"Delta":63869666},{"NoteNumber":44,"Velocity":33,"Duration":288461,"SoundDuration":288461,"Delta":64158128},{"NoteNumber":80,"Velocity":61,"Duration":606060,"SoundDuration":606060,"Delta":64446589},{"NoteNumber":63,"Velocity":40,"Duration":303030,"SoundDuration":303030,"Delta":64446589},{"NoteNumber":56,"Velocity":33,"Duration":303030,"SoundDuration":303030,"Delta":64749620},{"NoteNumber":58,"Velocity":47,"Duration":674157,"SoundDuration":674157,"Delta":65052650},{"NoteNumber":51,"Velocity":31,"Duration":337078,"SoundDuration":337078,"Delta":65052650},{"NoteNumber":44,"Velocity":30,"Duration":337078,"SoundDuration":337078,"Delta":65389729},{"NoteNumber":59,"Velocity":38,"Duration":740740,"SoundDuration":740740,"Delta":65726807},{"NoteNumber":63,"Velocity":33,"Duration":370370,"SoundDuration":370370,"Delta":65726807},{"NoteNumber":56,"Velocity":30,"Duration":370370,"SoundDuration":370370,"Delta":66097178},{"NoteNumber":63,"Velocity":36,"Duration":4285713,"SoundDuration":4285713,"Delta":66467548},{"NoteNumber":51,"Velocity":29,"Duration":857142,"SoundDuration":857142,"Delta":66467548},{"NoteNumber":68,"Velocity":29,"Duration":3428571,"SoundDuration":3428571,"Delta":67324691},{"NoteNumber":32,"Velocity":30,"Duration":3428571,"SoundDuration":3428571,"Delta":67324691}],"license":{"name":"Creative Commons Attribution-ShareAlike 3.0 Germany","url":"http://creativecommons.org/licenses/by-sa/3.0/de/deed.en","text":"The MIDI files in this folder were downloaded from http://www.piano-midi.de and are licensed under the Creative Commons Attribution-ShareAlike 3.0 Germany license by Bernd Krueger.\n\nThe MIDI, audio(MP3, OGG) and video files of Bernd Krueger are licensed under the cc-by-sa Germany License . This means, that you can use and adapt the files, as long as you attribute to the copyright holder Name: Bernd Krueger Source: http://www.piano-midi.de The distribution or public playback of the files is only allowed under identical license conditions . The scores are open source.","attribution":"Bernd Krueger","attributionUrl":"http://www.piano-midi.de"}}