{"title":"Kinderszenen, Op. 15: No. 9 'Ritter vom Steckenpferd'","artist":"Schumann","durationMs":37853,"midiSha256":"65fd18c23efe81c8a6c811c5d3a37c9f85a792340ea84ea2305a0bed60eb4e1f","midiObject":[{"NoteNumber":64,"Velocity":68,"Duration":532467,"SoundDuration":532467,"Delta":0},{"NoteNumber":67,"Velocity":68,"Duration":532467,"SoundDuration":532467,"Delta":0},{"NoteNumber":79,"Velocity":57,"Duration":276163,"SoundDuration":276163,"Delta":122439},{"NoteNumber":72,"Velocity":57,"Duration":276163,"SoundDuration":276163,"Delta":122439},{"NoteNumber":55,"Velocity":61,"Duration":783526,"SoundDuration":783526,"Delta":261974},{"NoteNumber":79,"Velocity":57,"Duration":129348,"SoundDuration":129348,"Delta":401508},{"NoteNumber":72,"Velocity":57,"Duration":129348,"SoundDuration":129348,"Delta":401508},{"NoteNumber":72,"Velocity":70,"Duration":248951,"SoundDuration":248951,"Delta":531943},{"NoteNumber":81,"Velocity":70,"Duration":248951,"SoundDuration":248951,"Delta":531943},{"NoteNumber":63,"Velocity":51,"Duration":248951,"SoundDuration":248951,"Delta":531943},{"NoteNumber":66,"Velocity":51,"Duration":248951,"SoundDuration":248951,"Delta":531943},{"NoteNumber":64,"Velocity":70,"Duration":531954,"SoundDuration":531954,"Delta":783516},{"NoteNumber":67,"Velocity":70,"Duration":531954,"SoundDuration":531954,"Delta":783516},{"NoteNumber":79,"Velocity":57,"Duration":276163,"SoundDuration":276163,"Delta":905965},{"NoteNumber":72,"Velocity":57,"Duration":276163,"SoundDuration":276163,"Delta":905965},{"NoteNumber":55,"Velocity":59,"Duration":784557,"SoundDuration":784557,"Delta":1045500},{"NoteNumber":79,"Velocity":57,"Duration":129348,"SoundDuration":129348,"Delta":1185035},{"NoteNumber":72,"Velocity":57,"Duration":129348,"SoundDuration":129348,"Delta":1185035},{"NoteNumber":76,"Velocity":68,"Duration":249474,"SoundDuration":249474,"Delta":1315470},{"NoteNumber":72,"Velocity":68,"Duration":249474,"SoundDuration":249474,"Delta":1315470},{"NoteNumber":67,"Velocity":51,"Duration":249474,"SoundDuration":249474,"Delta":1315470},{"NoteNumber":60,"Velocity":51,"Duration":249474,"SoundDuration":249474,"Delta":1315470},{"NoteNumber":67,"Velocity":69,"Duration":535354,"SoundDuration":535354,"Delta":1567571},{"NoteNumber":62,"Velocity":69,"Duration":535354,"SoundDuration":535354,"Delta":1567571},{"NoteNumber":77,"Velocity":54,"Duration":276163,"SoundDuration":276163,"Delta":1690522},{"NoteNumber":72,"Velocity":54,"Duration":276163,"SoundDuration":276163,"Delta":1690522},{"NoteNumber":55,"Velocity":58,"Duration":792441,"SoundDuration":792441,"Delta":1830057},{"NoteNumber":72,"Velocity":54,"Duration":132222,"SoundDuration":132222,"Delta":1969591},{"NoteNumber":77,"Velocity":54,"Duration":132222,"SoundDuration":132222,"Delta":1969591},{"NoteNumber":74,"Velocity":65,"Duration":252123,"SoundDuration":252123,"Delta":2102925},{"NoteNumber":79,"Velocity":65,"Duration":252123,"SoundDuration":252123,"Delta":2102925},{"NoteNumber":59,"Velocity":47,"Duration":252123,"SoundDuration":252123,"Delta":2102925},{"NoteNumber":67,"Velocity":47,"Duration":252123,"SoundDuration":252123,"Delta":2102925},{"NoteNumber":60,"Velocity":69,"Duration":538259,"SoundDuration":538259,"Delta":2357702},{"NoteNumber":67,"Velocity":69,"Duration":536585,"SoundDuration":536585,"Delta":2357702},{"NoteNumber":76,"Velocity":51,"Duration":276163,"SoundDuration":276163,"Delta":2482963},{"NoteNumber":72,"Velocity":51,"Duration":276163,"SoundDuration":276163,"Delta":2482963},{"NoteNumber":55,"Velocity":57,"Duration":793512,"SoundDuration":793512,"Delta":2622498},{"NoteNumber":72,"Velocity":51,"Duration":132812,"SoundDuration":132812,"Delta":2762033},{"NoteNumber":76,"Velocity":51,"Duration":132812,"SoundDuration":132812,"Delta":2762033},{"NoteNumber":67,"Velocity":60,"Duration":255376,"SoundDuration":255376,"Delta":2895962},{"NoteNumber":72,"Velocity":60,"Duration":255376,"SoundDuration":255376,"Delta":2895962},{"NoteNumber":60,"Velocity":46,"Duration":255376,"SoundDuration":255376,"Delta":2895962},{"NoteNumber":64,"Velocity":46,"Duration":255376,"SoundDuration":255376,"Delta":2895962},{"NoteNumber":64,"Velocity":66,"Duration":532536,"SoundDuration":532536,"Delta":3154537},{"NoteNumber":67,"Velocity":45,"Duration":276163,"SoundDuration":276163,"Delta":3276476},{"NoteNumber":72,"Velocity":45,"Duration":276163,"SoundDuration":276163,"Delta":3276476},{"NoteNumber":55,"Velocity":46,"Duration":784832,"SoundDuration":784832,"Delta":3416010},{"NoteNumber":67,"Velocity":45,"Duration":129912,"SoundDuration":129912,"Delta":3555545},{"NoteNumber":72,"Velocity":45,"Duration":129912,"SoundDuration":129912,"Delta":3555545},{"NoteNumber":72,"Velocity":55,"Duration":248430,"SoundDuration":248430,"Delta":3686550},{"NoteNumber":69,"Velocity":55,"Duration":248430,"SoundDuration":248430,"Delta":3686550},{"NoteNumber":65,"Velocity":39,"Duration":248430,"SoundDuration":248430,"Delta":3686550},{"NoteNumber":64,"Velocity":66,"Duration":531866,"SoundDuration":531866,"Delta":3937596},{"NoteNumber":72,"Velocity":45,"Duration":276163,"SoundDuration":276163,"Delta":4061308},{"NoteNumber":67,"Velocity":45,"Duration":276163,"SoundDuration":276163,"Delta":4061308},{"NoteNumber":55,"Velocity":44,"Duration":789286,"SoundDuration":789286,"Delta":4200843},{"NoteNumber":72,"Velocity":46,"Duration":129629,"SoundDuration":129629,"Delta":4340378},{"NoteNumber":67,"Velocity":46,"Duration":129629,"SoundDuration":129629,"Delta":4340378},{"NoteNumber":72,"Velocity":54,"Duration":251588,"SoundDuration":251588,"Delta":4471097},{"NoteNumber":64,"Velocity":54,"Duration":251588,"SoundDuration":251588,"Delta":4471097},{"NoteNumber":60,"Velocity":39,"Duration":251588,"SoundDuration":251588,"Delta":4471097},{"NoteNumber":62,"Velocity":59,"Duration":538859,"SoundDuration":538859,"Delta":4725334},{"NoteNumber":65,"Velocity":43,"Duration":276163,"SoundDuration":276163,"Delta":4850595},{"NoteNumber":67,"Velocity":43,"Duration":276163,"SoundDuration":276163,"Delta":4850595},{"NoteNumber":55,"Velocity":44,"Duration":800166,"SoundDuration":800166,"Delta":4990130},{"NoteNumber":67,"Velocity":43,"Duration":133407,"SoundDuration":133407,"Delta":5129665},{"NoteNumber":65,"Velocity":43,"Duration":133407,"SoundDuration":133407,"Delta":5129665},{"NoteNumber":67,"Velocity":58,"Duration":256479,"SoundDuration":256479,"Delta":5264193},{"NoteNumber":64,"Velocity":38,"Duration":256479,"SoundDuration":256479,"Delta":5264193},{"NoteNumber":60,"Velocity":57,"Duration":542513,"SoundDuration":542513,"Delta":5523372},{"NoteNumber":67,"Velocity":34,"Duration":276163,"SoundDuration":276163,"Delta":5650761},{"NoteNumber":64,"Velocity":34,"Duration":276163,"SoundDuration":276163,"Delta":5650761},{"NoteNumber":55,"Velocity":44,"Duration":530366,"SoundDuration":530366,"Delta":5790296},{"NoteNumber":67,"Velocity":34,"Duration":134920,"SoundDuration":134920,"Delta":5929831},{"NoteNumber":64,"Velocity":34,"Duration":134920,"SoundDuration":134920,"Delta":5929831},{"NoteNumber":64,"Velocity":45,"Duration":252123,"SoundDuration":252123,"Delta":6065885},{"NoteNumber":67,"Velocity":45,"Duration":252123,"SoundDuration":252123,"Delta":6065885},{"NoteNumber":60,"Velocity":35,"Duration":252123,"SoundDuration":252123,"Delta":6065885},{"NoteNumber":67,"Velocity":73,"Duration":532467,"SoundDuration":532467,"Delta":6321175},{"NoteNumber":64,"Velocity":73,"Duration":532467,"SoundDuration":532467,"Delta":6321175},{"NoteNumber":79,"Velocity":57,"Duration":276163,"SoundDuration":276163,"Delta":6443613},{"NoteNumber":72,"Velocity":57,"Duration":276163,"SoundDuration":276163,"Delta":6443613},{"NoteNumber":55,"Velocity":61,"Duration":783526,"SoundDuration":783526,"Delta":6583148},{"NoteNumber":72,"Velocity":57,"Duration":129348,"SoundDuration":129348,"Delta":6722683},{"NoteNumber":79,"Velocity":57,"Duration":129348,"SoundDuration":129348,"Delta":6722683},{"NoteNumber":72,"Velocity":70,"Duration":248951,"SoundDuration":248951,"Delta":6853118},{"NoteNumber":81,"Velocity":70,"Duration":248951,"SoundDuration":248951,"Delta":6853118},{"NoteNumber":63,"Velocity":51,"Duration":248951,"SoundDuration":248951,"Delta":6853118},{"NoteNumber":66,"Velocity":51,"Duration":248951,"SoundDuration":248951,"Delta":6853118},{"NoteNumber":64,"Velocity":73,"Duration":531953,"SoundDuration":531953,"Delta":7104690},{"NoteNumber":67,"Velocity":73,"Duration":531953,"SoundDuration":531953,"Delta":7104690},{"NoteNumber":79,"Velocity":57,"Duration":276163,"SoundDuration":276163,"Delta":7227139},{"NoteNumber":72,"Velocity":57,"Duration":276163,"SoundDuration":276163,"Delta":7227139},{"NoteNumber":55,"Velocity":59,"Duration":784556,"SoundDuration":784556,"Delta":7366674},{"NoteNumber":72,"Velocity":57,"Duration":129348,"SoundDuration":129348,"Delta":7506209},{"NoteNumber":79,"Velocity":57,"Duration":129348,"SoundDuration":129348,"Delta":7506209},{"NoteNumber":72,"Velocity":68,"Duration":249474,"SoundDuration":249474,"Delta":7636644},{"NoteNumber":76,"Velocity":68,"Duration":249474,"SoundDuration":249474,"Delta":7636644},{"NoteNumber":60,"Velocity":51,"Duration":249474,"SoundDuration":249474,"Delta":7636644},{"NoteNumber":67,"Velocity":51,"Duration":249474,"SoundDuration":249474,"Delta":7636644},{"NoteNumber":62,"Velocity":70,"Duration":535354,"SoundDuration":535354,"Delta":7888745},{"NoteNumber":67,"Velocity":70,"Duration":535354,"SoundDuration":535354,"Delta":7888745},{"NoteNumber":72,"Velocity":54,"Duration":276163,"SoundDuration":276163,"Delta":8011696},{"NoteNumber":77,"Velocity":54,"Duration":276163,"SoundDuration":276163,"Delta":8011696},{"NoteNumber":55,"Velocity":58,"Duration":792441,"SoundDuration":792441,"Delta":8151231},{"NoteNumber":72,"Velocity":54,"Duration":132222,"SoundDuration":132222,"Delta":8290766},{"NoteNumber":77,"Velocity":54,"Duration":132222,"SoundDuration":132222,"Delta":8290766},{"NoteNumber":74,"Velocity":67,"Duration":252123,"SoundDuration":252123,"Delta":8424100},{"NoteNumber":79,"Velocity":67,"Duration":252123,"SoundDuration":252123,"Delta":8424100},{"NoteNumber":59,"Velocity":47,"Duration":252123,"SoundDuration":252123,"Delta":8424100},{"NoteNumber":67,"Velocity":47,"Duration":252123,"SoundDuration":252123,"Delta":8424100},{"NoteNumber":60,"Velocity":71,"Duration":538259,"SoundDuration":538259,"Delta":8678877},{"NoteNumber":67,"Velocity":71,"Duration":536027,"SoundDuration":536027,"Delta":8678877},{"NoteNumber":72,"Velocity":51,"Duration":276163,"SoundDuration":276163,"Delta":8804138},{"NoteNumber":76,"Velocity":51,"Duration":276163,"SoundDuration":276163,"Delta":8804138},{"NoteNumber":55,"Velocity":57,"Duration":793512,"SoundDuration":793512,"Delta":8943673},{"NoteNumber":72,"Velocity":51,"Duration":132812,"SoundDuration":132812,"Delta":9083208},{"NoteNumber":76,"Velocity":51,"Duration":132812,"SoundDuration":132812,"Delta":9083208},{"NoteNumber":67,"Velocity":63,"Duration":255376,"SoundDuration":255376,"Delta":9217137},{"NoteNumber":72,"Velocity":63,"Duration":255376,"SoundDuration":255376,"Delta":9217137},{"NoteNumber":60,"Velocity":46,"Duration":255376,"SoundDuration":255376,"Delta":9217137},{"NoteNumber":64,"Velocity":46,"Duration":255376,"SoundDuration":255376,"Delta":9217137},{"NoteNumber":64,"Velocity":66,"Duration":532536,"SoundDuration":532536,"Delta":9475712},{"NoteNumber":72,"Velocity":45,"Duration":276163,"SoundDuration":276163,"Delta":9597651},{"NoteNumber":67,"Velocity":45,"Duration":276163,"SoundDuration":276163,"Delta":9597651},{"NoteNumber":55,"Velocity":46,"Duration":784832,"SoundDuration":784832,"Delta":9737186},{"NoteNumber":67,"Velocity":45,"Duration":129912,"SoundDuration":129912,"Delta":9876721},{"NoteNumber":72,"Velocity":45,"Duration":129912,"SoundDuration":129912,"Delta":9876721},{"NoteNumber":72,"Velocity":56,"Duration":248430,"SoundDuration":248430,"Delta":10007725},{"NoteNumber":69,"Velocity":56,"Duration":248430,"SoundDuration":248430,"Delta":10007725},{"NoteNumber":65,"Velocity":39,"Duration":248430,"SoundDuration":248430,"Delta":10007725},{"NoteNumber":64,"Velocity":66,"Duration":531866,"SoundDuration":531866,"Delta":10258771},{"NoteNumber":67,"Velocity":45,"Duration":276163,"SoundDuration":276163,"Delta":10382483},{"NoteNumber":72,"Velocity":45,"Duration":276163,"SoundDuration":276163,"Delta":10382483},{"NoteNumber":55,"Velocity":44,"Duration":789286,"SoundDuration":789286,"Delta":10522018},{"NoteNumber":72,"Velocity":46,"Duration":129629,"SoundDuration":129629,"Delta":10661553},{"NoteNumber":67,"Velocity":46,"Duration":129629,"SoundDuration":129629,"Delta":10661553},{"NoteNumber":72,"Velocity":55,"Duration":251588,"SoundDuration":251588,"Delta":10792272},{"NoteNumber":64,"Velocity":55,"Duration":251588,"SoundDuration":251588,"Delta":10792272},{"NoteNumber":60,"Velocity":39,"Duration":251588,"SoundDuration":251588,"Delta":10792272},{"NoteNumber":62,"Velocity":59,"Duration":538860,"SoundDuration":538860,"Delta":11046509},{"NoteNumber":67,"Velocity":43,"Duration":276163,"SoundDuration":276163,"Delta":11171770},{"NoteNumber":65,"Velocity":43,"Duration":276163,"SoundDuration":276163,"Delta":11171770},{"NoteNumber":55,"Velocity":44,"Duration":800166,"SoundDuration":800166,"Delta":11311305},{"NoteNumber":67,"Velocity":43,"Duration":133407,"SoundDuration":133407,"Delta":11450840},{"NoteNumber":65,"Velocity":43,"Duration":133407,"SoundDuration":133407,"Delta":11450840},{"NoteNumber":67,"Velocity":54,"Duration":256479,"SoundDuration":256479,"Delta":11585369},{"NoteNumber":64,"Velocity":38,"Duration":256479,"SoundDuration":256479,"Delta":11585369},{"NoteNumber":60,"Velocity":57,"Duration":542513,"SoundDuration":542513,"Delta":11844548},{"NoteNumber":67,"Velocity":34,"Duration":276163,"SoundDuration":276163,"Delta":11971936},{"NoteNumber":64,"Velocity":34,"Duration":276163,"SoundDuration":276163,"Delta":11971936},{"NoteNumber":55,"Velocity":44,"Duration":544647,"SoundDuration":544647,"Delta":12111471},{"NoteNumber":67,"Velocity":34,"Duration":134920,"SoundDuration":134920,"Delta":12251006},{"NoteNumber":64,"Velocity":34,"Duration":134920,"SoundDuration":134920,"Delta":12251006},{"NoteNumber":67,"Velocity":46,"Duration":266255,"SoundDuration":266255,"Delta":12387061},{"NoteNumber":64,"Velocity":46,"Duration":266255,"SoundDuration":266255,"Delta":12387061},{"NoteNumber":60,"Velocity":35,"Duration":266255,"SoundDuration":266255,"Delta":12387061},{"NoteNumber":58,"Velocity":60,"Duration":532456,"SoundDuration":532456,"Delta":12656119},{"NoteNumber":67,"Velocity":46,"Duration":276163,"SoundDuration":276163,"Delta":12779070},{"NoteNumber":64,"Velocity":46,"Duration":276163,"SoundDuration":276163,"Delta":12779070},{"NoteNumber":72,"Velocity":46,"Duration":276163,"SoundDuration":276163,"Delta":12779070},{"NoteNumber":60,"Velocity":58,"Duration":784028,"SoundDuration":784028,"Delta":12918605},{"NoteNumber":72,"Velocity":46,"Duration":129348,"SoundDuration":129348,"Delta":13058140},{"NoteNumber":64,"Velocity":46,"Duration":129348,"SoundDuration":129348,"Delta":13058140},{"NoteNumber":67,"Velocity":46,"Duration":129348,"SoundDuration":129348,"Delta":13058140},{"NoteNumber":69,"Velocity":55,"Duration":248951,"SoundDuration":248951,"Delta":13188575},{"NoteNumber":72,"Velocity":55,"Duration":248951,"SoundDuration":248951,"Delta":13188575},{"NoteNumber":64,"Velocity":55,"Duration":248951,"SoundDuration":248951,"Delta":13188575},{"NoteNumber":57,"Velocity":56,"Duration":251571,"SoundDuration":251571,"Delta":13188575},{"NoteNumber":55,"Velocity":64,"Duration":532456,"SoundDuration":532456,"Delta":13440147},{"NoteNumber":70,"Velocity":47,"Duration":276163,"SoundDuration":276163,"Delta":13563098},{"NoteNumber":64,"Velocity":47,"Duration":276163,"SoundDuration":276163,"Delta":13563098},{"NoteNumber":72,"Velocity":47,"Duration":276163,"SoundDuration":276163,"Delta":13563098},{"NoteNumber":60,"Velocity":60,"Duration":784028,"SoundDuration":784028,"Delta":13702633},{"NoteNumber":72,"Velocity":47,"Duration":129348,"SoundDuration":129348,"Delta":13842168},{"NoteNumber":64,"Velocity":47,"Duration":129348,"SoundDuration":129348,"Delta":13842168},{"NoteNumber":70,"Velocity":47,"Duration":129348,"SoundDuration":129348,"Delta":13842168},{"NoteNumber":70,"Velocity":57,"Duration":248951,"SoundDuration":248951,"Delta":13972603},{"NoteNumber":72,"Velocity":57,"Duration":248951,"SoundDuration":248951,"Delta":13972603},{"NoteNumber":65,"Velocity":57,"Duration":248951,"SoundDuration":248951,"Delta":13972603},{"NoteNumber":53,"Velocity":58,"Duration":251571,"SoundDuration":251571,"Delta":13972603},{"NoteNumber":52,"Velocity":70,"Duration":534179,"SoundDuration":534179,"Delta":14224175},{"NoteNumber":70,"Velocity":54,"Duration":276163,"SoundDuration":276163,"Delta":14347126},{"NoteNumber":67,"Velocity":54,"Duration":276163,"SoundDuration":276163,"Delta":14347126},{"NoteNumber":72,"Velocity":54,"Duration":276163,"SoundDuration":276163,"Delta":14347126},{"NoteNumber":60,"Velocity":68,"Duration":271693,"SoundDuration":271693,"Delta":14486661},{"NoteNumber":72,"Velocity":54,"Duration":131057,"SoundDuration":131057,"Delta":14626196},{"NoteNumber":67,"Velocity":54,"Duration":131057,"SoundDuration":131057,"Delta":14626196},{"NoteNumber":70,"Velocity":54,"Duration":131057,"SoundDuration":131057,"Delta":14626196},{"NoteNumber":70,"Velocity":67,"Duration":251057,"SoundDuration":251057,"Delta":14758354},{"NoteNumber":73,"Velocity":67,"Duration":251057,"SoundDuration":251057,"Delta":14758354},{"NoteNumber":67,"Velocity":67,"Duration":251057,"SoundDuration":251057,"Delta":14758354},{"NoteNumber":61,"Velocity":68,"Duration":516186,"SoundDuration":516186,"Delta":14758354},{"NoteNumber":51,"Velocity":68,"Duration":253700,"SoundDuration":253700,"Delta":14758354},{"NoteNumber":50,"Velocity":78,"Duration":533889,"SoundDuration":533889,"Delta":15012054},{"NoteNumber":70,"Velocity":57,"Duration":276163,"SoundDuration":276163,"Delta":15135005},{"NoteNumber":67,"Velocity":57,"Duration":276163,"SoundDuration":276163,"Delta":15135005},{"NoteNumber":74,"Velocity":57,"Duration":276163,"SoundDuration":276163,"Delta":15135005},{"NoteNumber":62,"Velocity":73,"Duration":271403,"SoundDuration":271403,"Delta":15274540},{"NoteNumber":74,"Velocity":57,"Duration":130769,"SoundDuration":130769,"Delta":15414075},{"NoteNumber":67,"Velocity":57,"Duration":130769,"SoundDuration":130769,"Delta":15414075},{"NoteNumber":70,"Velocity":57,"Duration":130769,"SoundDuration":130769,"Delta":15414075},{"NoteNumber":70,"Velocity":73,"Duration":251588,"SoundDuration":251588,"Delta":15545943},{"NoteNumber":76,"Velocity":73,"Duration":251588,"SoundDuration":251588,"Delta":15545943},{"NoteNumber":67,"Velocity":73,"Duration":251588,"SoundDuration":251588,"Delta":15545943},{"NoteNumber":64,"Velocity":73,"Duration":254236,"SoundDuration":254236,"Delta":15545943},{"NoteNumber":49,"Velocity":73,"Duration":254236,"SoundDuration":254236,"Delta":15545943},{"NoteNumber":50,"Velocity":86,"Duration":532455,"SoundDuration":532455,"Delta":15800180},{"NoteNumber":77,"Velocity":59,"Duration":276163,"SoundDuration":276163,"Delta":15923131},{"NoteNumber":69,"Velocity":59,"Duration":276163,"SoundDuration":276163,"Delta":15923131},{"NoteNumber":74,"Velocity":59,"Duration":276163,"SoundDuration":276163,"Delta":15923131},{"NoteNumber":62,"Velocity":81,"Duration":269970,"SoundDuration":269970,"Delta":16062666},{"NoteNumber":74,"Velocity":59,"Duration":129348,"SoundDuration":129348,"Delta":16202201},{"NoteNumber":69,"Velocity":59,"Duration":129348,"SoundDuration":129348,"Delta":16202201},{"NoteNumber":77,"Velocity":59,"Duration":129348,"SoundDuration":129348,"Delta":16202201},{"NoteNumber":70,"Velocity":82,"Duration":248951,"SoundDuration":248951,"Delta":16332636},{"NoteNumber":76,"Velocity":82,"Duration":248951,"SoundDuration":248951,"Delta":16332636},{"NoteNumber":67,"Velocity":82,"Duration":248951,"SoundDuration":248951,"Delta":16332636},{"NoteNumber":55,"Velocity":77,"Duration":251571,"SoundDuration":251571,"Delta":16332636},{"NoteNumber":43,"Velocity":77,"Duration":251571,"SoundDuration":251571,"Delta":16332636},{"NoteNumber":45,"Velocity":95,"Duration":533599,"SoundDuration":533599,"Delta":16584208},{"NoteNumber":69,"Velocity":63,"Duration":276163,"SoundDuration":276163,"Delta":16707159},{"NoteNumber":65,"Velocity":63,"Duration":276163,"SoundDuration":276163,"Delta":16707159},{"NoteNumber":74,"Velocity":63,"Duration":276163,"SoundDuration":276163,"Delta":16707159},{"NoteNumber":57,"Velocity":92,"Duration":271114,"SoundDuration":271114,"Delta":16846694},{"NoteNumber":69,"Velocity":63,"Duration":130482,"SoundDuration":130482,"Delta":16986229},{"NoteNumber":65,"Velocity":63,"Duration":130482,"SoundDuration":130482,"Delta":16986229},{"NoteNumber":74,"Velocity":63,"Duration":130482,"SoundDuration":130482,"Delta":16986229},{"NoteNumber":69,"Velocity":83,"Duration":251588,"SoundDuration":251588,"Delta":17117808},{"NoteNumber":73,"Velocity":83,"Duration":251588,"SoundDuration":251588,"Delta":17117808},{"NoteNumber":64,"Velocity":83,"Duration":251588,"SoundDuration":251588,"Delta":17117808},{"NoteNumber":45,"Velocity":90,"Duration":254236,"SoundDuration":254236,"Delta":17117808},{"NoteNumber":33,"Velocity":90,"Duration":254236,"SoundDuration":254236,"Delta":17117808},{"NoteNumber":38,"Velocity":102,"Duration":532455,"SoundDuration":532455,"Delta":17372045},{"NoteNumber":69,"Velocity":68,"Duration":276163,"SoundDuration":276163,"Delta":17494996},{"NoteNumber":65,"Velocity":68,"Duration":276163,"SoundDuration":276163,"Delta":17494996},{"NoteNumber":74,"Velocity":68,"Duration":276163,"SoundDuration":276163,"Delta":17494996},{"NoteNumber":50,"Velocity":95,"Duration":269970,"SoundDuration":269970,"Delta":17634531},{"NoteNumber":69,"Velocity":69,"Duration":129348,"SoundDuration":129348,"Delta":17774066},{"NoteNumber":65,"Velocity":69,"Duration":129348,"SoundDuration":129348,"Delta":17774066},{"NoteNumber":74,"Velocity":69,"Duration":129348,"SoundDuration":129348,"Delta":17774066},{"NoteNumber":66,"Velocity":87,"Duration":248951,"SoundDuration":248951,"Delta":17904501},{"NoteNumber":72,"Velocity":87,"Duration":248951,"SoundDuration":248951,"Delta":17904501},{"NoteNumber":63,"Velocity":87,"Duration":248951,"SoundDuration":248951,"Delta":17904501},{"NoteNumber":44,"Velocity":92,"Duration":251571,"SoundDuration":251571,"Delta":17904501},{"NoteNumber":32,"Velocity":92,"Duration":251571,"SoundDuration":251571,"Delta":17904501},{"NoteNumber":31,"Velocity":105,"Duration":262485,"SoundDuration":262485,"Delta":18156073},{"NoteNumber":43,"Velocity":105,"Duration":262485,"SoundDuration":262485,"Delta":18156073},{"NoteNumber":65,"Velocity":75,"Duration":276163,"SoundDuration":276163,"Delta":18279024},{"NoteNumber":62,"Velocity":75,"Duration":276163,"SoundDuration":276163,"Delta":18279024},{"NoteNumber":72,"Velocity":75,"Duration":276163,"SoundDuration":276163,"Delta":18279024},{"NoteNumber":55,"Velocity":100,"Duration":271985,"SoundDuration":271985,"Delta":18418559},{"NoteNumber":65,"Velocity":75,"Duration":131346,"SoundDuration":131346,"Delta":18558094},{"NoteNumber":62,"Velocity":75,"Duration":131346,"SoundDuration":131346,"Delta":18558094},{"NoteNumber":72,"Velocity":75,"Duration":131346,"SoundDuration":131346,"Delta":18558094},{"NoteNumber":65,"Velocity":89,"Duration":253198,"SoundDuration":253198,"Delta":18690545},{"NoteNumber":71,"Velocity":89,"Duration":253198,"SoundDuration":253198,"Delta":18690545},{"NoteNumber":62,"Velocity":89,"Duration":253198,"SoundDuration":253198,"Delta":18690545},{"NoteNumber":43,"Velocity":95,"Duration":255863,"SoundDuration":255863,"Delta":18690545},{"NoteNumber":31,"Velocity":95,"Duration":255863,"SoundDuration":255863,"Delta":18690545},{"NoteNumber":36,"Velocity":108,"Duration":261983,"SoundDuration":261983,"Delta":18946409},{"NoteNumber":72,"Velocity":73,"Duration":276163,"SoundDuration":276163,"Delta":19068858},{"NoteNumber":67,"Velocity":73,"Duration":276163,"SoundDuration":276163,"Delta":19068858},{"NoteNumber":52,"Velocity":90,"Duration":270539,"SoundDuration":270539,"Delta":19208393},{"NoteNumber":67,"Velocity":73,"Duration":129912,"SoundDuration":129912,"Delta":19347928},{"NoteNumber":72,"Velocity":73,"Duration":129912,"SoundDuration":129912,"Delta":19347928},{"NoteNumber":72,"Velocity":91,"Duration":248430,"SoundDuration":248430,"Delta":19478932},{"NoteNumber":69,"Velocity":91,"Duration":248430,"SoundDuration":248430,"Delta":19478932},{"NoteNumber":53,"Velocity":86,"Duration":251045,"SoundDuration":251045,"Delta":19478932},{"NoteNumber":52,"Velocity":108,"Duration":529178,"SoundDuration":529178,"Delta":19729978},{"NoteNumber":67,"Velocity":76,"Duration":276163,"SoundDuration":276163,"Delta":19852427},{"NoteNumber":72,"Velocity":76,"Duration":276163,"SoundDuration":276163,"Delta":19852427},{"NoteNumber":36,"Velocity":90,"Duration":518240,"SoundDuration":518240,"Delta":19991962},{"NoteNumber":72,"Velocity":76,"Duration":126595,"SoundDuration":126595,"Delta":20131497},{"NoteNumber":67,"Velocity":76,"Duration":126595,"SoundDuration":126595,"Delta":20131497},{"NoteNumber":67,"Velocity":91,"Duration":248430,"SoundDuration":248430,"Delta":20259157},{"NoteNumber":72,"Velocity":91,"Duration":248430,"SoundDuration":248430,"Delta":20259157},{"NoteNumber":64,"Velocity":91,"Duration":248430,"SoundDuration":248430,"Delta":20259157},{"NoteNumber":48,"Velocity":87,"Duration":251045,"SoundDuration":251045,"Delta":20259157},{"NoteNumber":50,"Velocity":110,"Duration":529157,"SoundDuration":529157,"Delta":20510203},{"NoteNumber":72,"Velocity":81,"Duration":276163,"SoundDuration":276163,"Delta":20632902},{"NoteNumber":67,"Velocity":81,"Duration":276163,"SoundDuration":276163,"Delta":20632902},{"NoteNumber":65,"Velocity":81,"Duration":276163,"SoundDuration":276163,"Delta":20632902},{"NoteNumber":36,"Velocity":92,"Duration":516923,"SoundDuration":516923,"Delta":20772437},{"NoteNumber":72,"Velocity":81,"Duration":126326,"SoundDuration":126326,"Delta":20911972},{"NoteNumber":67,"Velocity":81,"Duration":126326,"SoundDuration":126326,"Delta":20911972},{"NoteNumber":65,"Velocity":81,"Duration":126326,"SoundDuration":126326,"Delta":20911972},{"NoteNumber":72,"Velocity":96,"Duration":247395,"SoundDuration":247395,"Delta":21039361},{"NoteNumber":67,"Velocity":96,"Duration":247395,"SoundDuration":247395,"Delta":21039361},{"NoteNumber":52,"Velocity":87,"Duration":250000,"SoundDuration":250000,"Delta":21039361},{"NoteNumber":48,"Velocity":109,"Duration":537573,"SoundDuration":537573,"Delta":21289361},{"NoteNumber":72,"Velocity":84,"Duration":276163,"SoundDuration":276163,"Delta":21411810},{"NoteNumber":67,"Velocity":84,"Duration":276163,"SoundDuration":276163,"Delta":21411810},{"NoteNumber":64,"Velocity":84,"Duration":276163,"SoundDuration":276163,"Delta":21411810},{"NoteNumber":36,"Velocity":93,"Duration":530366,"SoundDuration":530366,"Delta":21551345},{"NoteNumber":72,"Velocity":84,"Duration":134920,"SoundDuration":134920,"Delta":21690880},{"NoteNumber":67,"Velocity":84,"Duration":134920,"SoundDuration":134920,"Delta":21690880},{"NoteNumber":64,"Velocity":84,"Duration":134920,"SoundDuration":134920,"Delta":21690880},{"NoteNumber":72,"Velocity":99,"Duration":252123,"SoundDuration":252123,"Delta":21826934},{"NoteNumber":67,"Velocity":99,"Duration":252123,"SoundDuration":252123,"Delta":21826934},{"NoteNumber":60,"Velocity":99,"Duration":252123,"SoundDuration":252123,"Delta":21826934},{"NoteNumber":43,"Velocity":91,"Duration":254777,"SoundDuration":254777,"Delta":21826934},{"NoteNumber":52,"Velocity":108,"Duration":528907,"SoundDuration":528907,"Delta":22081711},{"NoteNumber":43,"Velocity":91,"Duration":528907,"SoundDuration":528907,"Delta":22081711},{"NoteNumber":64,"Velocity":76,"Duration":276163,"SoundDuration":276163,"Delta":22204160},{"NoteNumber":72,"Velocity":76,"Duration":276163,"SoundDuration":276163,"Delta":22204160},{"NoteNumber":67,"Velocity":76,"Duration":276163,"SoundDuration":276163,"Delta":22204160},{"NoteNumber":36,"Velocity":86,"Duration":517969,"SoundDuration":517969,"Delta":22343695},{"NoteNumber":64,"Velocity":76,"Duration":126326,"SoundDuration":126326,"Delta":22483230},{"NoteNumber":67,"Velocity":76,"Duration":126326,"SoundDuration":126326,"Delta":22483230},{"NoteNumber":72,"Velocity":76,"Duration":126326,"SoundDuration":126326,"Delta":22483230},{"NoteNumber":65,"Velocity":92,"Duration":248430,"SoundDuration":248430,"Delta":22610619},{"NoteNumber":72,"Velocity":92,"Duration":248430,"SoundDuration":248430,"Delta":22610619},{"NoteNumber":67,"Velocity":92,"Duration":248430,"SoundDuration":248430,"Delta":22610619},{"NoteNumber":45,"Velocity":79,"Duration":251045,"SoundDuration":251045,"Delta":22610619},{"NoteNumber":53,"Velocity":94,"Duration":251045,"SoundDuration":251045,"Delta":22610619},{"NoteNumber":43,"Velocity":91,"Duration":527305,"SoundDuration":527305,"Delta":22861665},{"NoteNumber":52,"Velocity":108,"Duration":527305,"SoundDuration":527305,"Delta":22861665},{"NoteNumber":64,"Velocity":76,"Duration":276163,"SoundDuration":276163,"Delta":22984114},{"NoteNumber":67,"Velocity":76,"Duration":276163,"SoundDuration":276163,"Delta":22984114},{"NoteNumber":72,"Velocity":76,"Duration":276163,"SoundDuration":276163,"Delta":22984114},{"NoteNumber":36,"Velocity":86,"Duration":513255,"SoundDuration":513255,"Delta":23123649},{"NoteNumber":64,"Velocity":76,"Duration":124737,"SoundDuration":124737,"Delta":23263184},{"NoteNumber":72,"Velocity":76,"Duration":124737,"SoundDuration":124737,"Delta":23263184},{"NoteNumber":67,"Velocity":76,"Duration":124737,"SoundDuration":124737,"Delta":23263184},{"NoteNumber":67,"Velocity":91,"Duration":245351,"SoundDuration":245351,"Delta":23388970},{"NoteNumber":72,"Velocity":91,"Duration":245351,"SoundDuration":245351,"Delta":23388970},{"NoteNumber":60,"Velocity":91,"Duration":245351,"SoundDuration":245351,"Delta":23388970},{"NoteNumber":40,"Velocity":78,"Duration":247934,"SoundDuration":247934,"Delta":23388970},{"NoteNumber":48,"Velocity":93,"Duration":247934,"SoundDuration":247934,"Delta":23388970},{"NoteNumber":41,"Velocity":90,"Duration":539646,"SoundDuration":539646,"Delta":23636904},{"NoteNumber":50,"Velocity":106,"Duration":539646,"SoundDuration":539646,"Delta":23636904},{"NoteNumber":72,"Velocity":75,"Duration":280070,"SoundDuration":280070,"Delta":23759603},{"NoteNumber":62,"Velocity":75,"Duration":280070,"SoundDuration":280070,"Delta":23759603},{"NoteNumber":67,"Velocity":75,"Duration":280070,"SoundDuration":280070,"Delta":23759603},{"NoteNumber":36,"Velocity":87,"Duration":534058,"SoundDuration":534058,"Delta":23901113},{"NoteNumber":72,"Velocity":75,"Duration":132812,"SoundDuration":132812,"Delta":24042622},{"NoteNumber":62,"Velocity":75,"Duration":132812,"SoundDuration":132812,"Delta":24042622},{"NoteNumber":67,"Velocity":75,"Duration":132812,"SoundDuration":132812,"Delta":24042622},{"NoteNumber":72,"Velocity":91,"Duration":255927,"SoundDuration":255927,"Delta":24176551},{"NoteNumber":64,"Velocity":91,"Duration":255927,"SoundDuration":255927,"Delta":24176551},{"NoteNumber":67,"Velocity":91,"Duration":255927,"SoundDuration":255927,"Delta":24176551},{"NoteNumber":43,"Velocity":79,"Duration":258621,"SoundDuration":258621,"Delta":24176551},{"NoteNumber":52,"Velocity":94,"Duration":258621,"SoundDuration":258621,"Delta":24176551},{"NoteNumber":40,"Velocity":89,"Duration":543539,"SoundDuration":543539,"Delta":24435172},{"NoteNumber":48,"Velocity":105,"Duration":543539,"SoundDuration":543539,"Delta":24435172},{"NoteNumber":72,"Velocity":74,"Duration":282066,"SoundDuration":282066,"Delta":24557621},{"NoteNumber":67,"Velocity":74,"Duration":282066,"SoundDuration":282066,"Delta":24557621},{"NoteNumber":60,"Velocity":74,"Duration":282066,"SoundDuration":282066,"Delta":24557621},{"NoteNumber":36,"Velocity":88,"Duration":553128,"SoundDuration":553128,"Delta":24700139},{"NoteNumber":72,"Velocity":74,"Duration":134920,"SoundDuration":134920,"Delta":24842657},{"NoteNumber":60,"Velocity":74,"Duration":134920,"SoundDuration":134920,"Delta":24842657},{"NoteNumber":72,"Velocity":92,"Duration":199556,"SoundDuration":199556,"Delta":24978711},{"NoteNumber":60,"Velocity":92,"Duration":199556,"SoundDuration":199556,"Delta":24978711},{"NoteNumber":48,"Velocity":95,"Duration":199556,"SoundDuration":199556,"Delta":24978711},{"NoteNumber":58,"Velocity":60,"Duration":532455,"SoundDuration":532455,"Delta":25253267},{"NoteNumber":67,"Velocity":46,"Duration":276163,"SoundDuration":276163,"Delta":25376218},{"NoteNumber":64,"Velocity":46,"Duration":276163,"SoundDuration":276163,"Delta":25376218},{"NoteNumber":72,"Velocity":46,"Duration":276163,"SoundDuration":276163,"Delta":25376218},{"NoteNumber":60,"Velocity":58,"Duration":784027,"SoundDuration":784027,"Delta":25515753},{"NoteNumber":72,"Velocity":46,"Duration":129348,"SoundDuration":129348,"Delta":25655288},{"NoteNumber":64,"Velocity":46,"Duration":129348,"SoundDuration":129348,"Delta":25655288},{"NoteNumber":67,"Velocity":46,"Duration":129348,"SoundDuration":129348,"Delta":25655288},{"NoteNumber":69,"Velocity":56,"Duration":248951,"SoundDuration":248951,"Delta":25785723},{"NoteNumber":72,"Velocity":56,"Duration":248951,"SoundDuration":248951,"Delta":25785723},{"NoteNumber":64,"Velocity":56,"Duration":248951,"SoundDuration":248951,"Delta":25785723},{"NoteNumber":57,"Velocity":56,"Duration":251571,"SoundDuration":251571,"Delta":25785723},{"NoteNumber":55,"Velocity":64,"Duration":532455,"SoundDuration":532455,"Delta":26037295},{"NoteNumber":70,"Velocity":47,"Duration":276163,"SoundDuration":276163,"Delta":26160246},{"NoteNumber":64,"Velocity":47,"Duration":276163,"SoundDuration":276163,"Delta":26160246},{"NoteNumber":72,"Velocity":47,"Duration":276163,"SoundDuration":276163,"Delta":26160246},{"NoteNumber":60,"Velocity":60,"Duration":784027,"SoundDuration":784027,"Delta":26299781},{"NoteNumber":72,"Velocity":47,"Duration":129348,"SoundDuration":129348,"Delta":26439316},{"NoteNumber":64,"Velocity":47,"Duration":129348,"SoundDuration":129348,"Delta":26439316},{"NoteNumber":70,"Velocity":47,"Duration":129348,"SoundDuration":129348,"Delta":26439316},{"NoteNumber":70,"Velocity":58,"Duration":248951,"SoundDuration":248951,"Delta":26569751},{"NoteNumber":72,"Velocity":58,"Duration":248951,"SoundDuration":248951,"Delta":26569751},{"NoteNumber":65,"Velocity":58,"Duration":248951,"SoundDuration":248951,"Delta":26569751},{"NoteNumber":53,"Velocity":58,"Duration":251571,"SoundDuration":251571,"Delta":26569751},{"NoteNumber":52,"Velocity":70,"Duration":534179,"SoundDuration":534179,"Delta":26821323},{"NoteNumber":70,"Velocity":54,"Duration":276163,"SoundDuration":276163,"Delta":26944274},{"NoteNumber":67,"Velocity":54,"Duration":276163,"SoundDuration":276163,"Delta":26944274},{"NoteNumber":72,"Velocity":54,"Duration":276163,"SoundDuration":276163,"Delta":26944274},{"NoteNumber":60,"Velocity":68,"Duration":271693,"SoundDuration":271693,"Delta":27083809},{"NoteNumber":72,"Velocity":54,"Duration":131057,"SoundDuration":131057,"Delta":27223344},{"NoteNumber":67,"Velocity":54,"Duration":131057,"SoundDuration":131057,"Delta":27223344},{"NoteNumber":70,"Velocity":54,"Duration":131057,"SoundDuration":131057,"Delta":27223344},{"NoteNumber":70,"Velocity":67,"Duration":251057,"SoundDuration":251057,"Delta":27355503},{"NoteNumber":73,"Velocity":67,"Duration":251057,"SoundDuration":251057,"Delta":27355503},{"NoteNumber":67,"Velocity":67,"Duration":251057,"SoundDuration":251057,"Delta":27355503},{"NoteNumber":61,"Velocity":68,"Duration":516185,"SoundDuration":516185,"Delta":27355503},{"NoteNumber":51,"Velocity":68,"Duration":253699,"SoundDuration":253699,"Delta":27355503},{"NoteNumber":50,"Velocity":78,"Duration":533889,"SoundDuration":533889,"Delta":27609203},{"NoteNumber":70,"Velocity":57,"Duration":276163,"SoundDuration":276163,"Delta":27732154},{"NoteNumber":67,"Velocity":57,"Duration":276163,"SoundDuration":276163,"Delta":27732154},{"NoteNumber":74,"Velocity":57,"Duration":276163,"SoundDuration":276163,"Delta":27732154},{"NoteNumber":62,"Velocity":73,"Duration":271403,"SoundDuration":271403,"Delta":27871689},{"NoteNumber":74,"Velocity":57,"Duration":130769,"SoundDuration":130769,"Delta":28011224},{"NoteNumber":67,"Velocity":57,"Duration":130769,"SoundDuration":130769,"Delta":28011224},{"NoteNumber":70,"Velocity":57,"Duration":130769,"SoundDuration":130769,"Delta":28011224},{"NoteNumber":70,"Velocity":73,"Duration":251588,"SoundDuration":251588,"Delta":28143092},{"NoteNumber":76,"Velocity":73,"Duration":251588,"SoundDuration":251588,"Delta":28143092},{"NoteNumber":67,"Velocity":73,"Duration":251588,"SoundDuration":251588,"Delta":28143092},{"NoteNumber":64,"Velocity":73,"Duration":254236,"SoundDuration":254236,"Delta":28143092},{"NoteNumber":49,"Velocity":73,"Duration":254236,"SoundDuration":254236,"Delta":28143092},{"NoteNumber":50,"Velocity":86,"Duration":532455,"SoundDuration":532455,"Delta":28397329},{"NoteNumber":77,"Velocity":59,"Duration":276163,"SoundDuration":276163,"Delta":28520280},{"NoteNumber":69,"Velocity":59,"Duration":276163,"SoundDuration":276163,"Delta":28520280},{"NoteNumber":74,"Velocity":59,"Duration":276163,"SoundDuration":276163,"Delta":28520280},{"NoteNumber":62,"Velocity":81,"Duration":269970,"SoundDuration":269970,"Delta":28659815},{"NoteNumber":74,"Velocity":59,"Duration":129348,"SoundDuration":129348,"Delta":28799350},{"NoteNumber":69,"Velocity":59,"Duration":129348,"SoundDuration":129348,"Delta":28799350},{"NoteNumber":77,"Velocity":59,"Duration":129348,"SoundDuration":129348,"Delta":28799350},{"NoteNumber":70,"Velocity":82,"Duration":248951,"SoundDuration":248951,"Delta":28929785},{"NoteNumber":76,"Velocity":82,"Duration":248951,"SoundDuration":248951,"Delta":28929785},{"NoteNumber":67,"Velocity":82,"Duration":248951,"SoundDuration":248951,"Delta":28929785},{"NoteNumber":55,"Velocity":77,"Duration":251571,"SoundDuration":251571,"Delta":28929785},{"NoteNumber":43,"Velocity":77,"Duration":251571,"SoundDuration":251571,"Delta":28929785},{"NoteNumber":45,"Velocity":95,"Duration":533599,"SoundDuration":533599,"Delta":29181357},{"NoteNumber":69,"Velocity":63,"Duration":276163,"SoundDuration":276163,"Delta":29304308},{"NoteNumber":65,"Velocity":63,"Duration":276163,"SoundDuration":276163,"Delta":29304308},{"NoteNumber":74,"Velocity":63,"Duration":276163,"SoundDuration":276163,"Delta":29304308},{"NoteNumber":57,"Velocity":92,"Duration":271114,"SoundDuration":271114,"Delta":29443843},{"NoteNumber":69,"Velocity":63,"Duration":130482,"SoundDuration":130482,"Delta":29583378},{"NoteNumber":65,"Velocity":63,"Duration":130482,"SoundDuration":130482,"Delta":29583378},{"NoteNumber":74,"Velocity":63,"Duration":130482,"SoundDuration":130482,"Delta":29583378},{"NoteNumber":69,"Velocity":83,"Duration":251588,"SoundDuration":251588,"Delta":29714957},{"NoteNumber":73,"Velocity":83,"Duration":251588,"SoundDuration":251588,"Delta":29714957},{"NoteNumber":64,"Velocity":83,"Duration":251588,"SoundDuration":251588,"Delta":29714957},{"NoteNumber":45,"Velocity":90,"Duration":254236,"SoundDuration":254236,"Delta":29714957},{"NoteNumber":33,"Velocity":90,"Duration":254236,"SoundDuration":254236,"Delta":29714957},{"NoteNumber":38,"Velocity":102,"Duration":532455,"SoundDuration":532455,"Delta":29969194},{"NoteNumber":69,"Velocity":68,"Duration":276163,"SoundDuration":276163,"Delta":30092145},{"NoteNumber":65,"Velocity":68,"Duration":276163,"SoundDuration":276163,"Delta":30092145},{"NoteNumber":74,"Velocity":68,"Duration":276163,"SoundDuration":276163,"Delta":30092145},{"NoteNumber":50,"Velocity":95,"Duration":269970,"SoundDuration":269970,"Delta":30231680},{"NoteNumber":69,"Velocity":69,"Duration":129348,"SoundDuration":129348,"Delta":30371215},{"NoteNumber":65,"Velocity":69,"Duration":129348,"SoundDuration":129348,"Delta":30371215},{"NoteNumber":74,"Velocity":69,"Duration":129348,"SoundDuration":129348,"Delta":30371215},{"NoteNumber":66,"Velocity":87,"Duration":248951,"SoundDuration":248951,"Delta":30501650},{"NoteNumber":72,"Velocity":87,"Duration":248951,"SoundDuration":248951,"Delta":30501650},{"NoteNumber":63,"Velocity":87,"Duration":248951,"SoundDuration":248951,"Delta":30501650},{"NoteNumber":44,"Velocity":92,"Duration":251571,"SoundDuration":251571,"Delta":30501650},{"NoteNumber":32,"Velocity":92,"Duration":251571,"SoundDuration":251571,"Delta":30501650},{"NoteNumber":31,"Velocity":105,"Duration":262485,"SoundDuration":262485,"Delta":30753222},{"NoteNumber":43,"Velocity":105,"Duration":262485,"SoundDuration":262485,"Delta":30753222},{"NoteNumber":65,"Velocity":75,"Duration":276163,"SoundDuration":276163,"Delta":30876173},{"NoteNumber":62,"Velocity":75,"Duration":276163,"SoundDuration":276163,"Delta":30876173},{"NoteNumber":72,"Velocity":75,"Duration":276163,"SoundDuration":276163,"Delta":30876173},{"NoteNumber":55,"Velocity":100,"Duration":271985,"SoundDuration":271985,"Delta":31015708},{"NoteNumber":65,"Velocity":75,"Duration":131346,"SoundDuration":131346,"Delta":31155243},{"NoteNumber":62,"Velocity":75,"Duration":131346,"SoundDuration":131346,"Delta":31155243},{"NoteNumber":72,"Velocity":75,"Duration":131346,"SoundDuration":131346,"Delta":31155243},{"NoteNumber":65,"Velocity":89,"Duration":253198,"SoundDuration":253198,"Delta":31287693},{"NoteNumber":71,"Velocity":89,"Duration":253198,"SoundDuration":253198,"Delta":31287693},{"NoteNumber":62,"Velocity":89,"Duration":253198,"SoundDuration":253198,"Delta":31287693},{"NoteNumber":43,"Velocity":95,"Duration":255863,"SoundDuration":255863,"Delta":31287693},{"NoteNumber":31,"Velocity":95,"Duration":255863,"SoundDuration":255863,"Delta":31287693},{"NoteNumber":36,"Velocity":112,"Duration":261983,"SoundDuration":261983,"Delta":31543557},{"NoteNumber":72,"Velocity":73,"Duration":276163,"SoundDuration":276163,"Delta":31666006},{"NoteNumber":67,"Velocity":73,"Duration":276163,"SoundDuration":276163,"Delta":31666006},{"NoteNumber":52,"Velocity":91,"Duration":270539,"SoundDuration":270539,"Delta":31805541},{"NoteNumber":67,"Velocity":73,"Duration":129912,"SoundDuration":129912,"Delta":31945076},{"NoteNumber":72,"Velocity":73,"Duration":129912,"SoundDuration":129912,"Delta":31945076},{"NoteNumber":72,"Velocity":91,"Duration":248430,"SoundDuration":248430,"Delta":32076081},{"NoteNumber":69,"Velocity":91,"Duration":248430,"SoundDuration":248430,"Delta":32076081},{"NoteNumber":53,"Velocity":86,"Duration":251046,"SoundDuration":251046,"Delta":32076081},{"NoteNumber":52,"Velocity":110,"Duration":529178,"SoundDuration":529178,"Delta":32327127},{"NoteNumber":67,"Velocity":76,"Duration":276163,"SoundDuration":276163,"Delta":32449576},{"NoteNumber":72,"Velocity":76,"Duration":276163,"SoundDuration":276163,"Delta":32449576},{"NoteNumber":36,"Velocity":91,"Duration":518240,"SoundDuration":518240,"Delta":32589111},{"NoteNumber":72,"Velocity":76,"Duration":126595,"SoundDuration":126595,"Delta":32728646},{"NoteNumber":67,"Velocity":76,"Duration":126595,"SoundDuration":126595,"Delta":32728646},{"NoteNumber":67,"Velocity":91,"Duration":248430,"SoundDuration":248430,"Delta":32856305},{"NoteNumber":72,"Velocity":91,"Duration":248430,"SoundDuration":248430,"Delta":32856305},{"NoteNumber":64,"Velocity":91,"Duration":248430,"SoundDuration":248430,"Delta":32856305},{"NoteNumber":48,"Velocity":86,"Duration":251046,"SoundDuration":251046,"Delta":32856305},{"NoteNumber":50,"Velocity":108,"Duration":529158,"SoundDuration":529158,"Delta":33107351},{"NoteNumber":72,"Velocity":81,"Duration":276163,"SoundDuration":276163,"Delta":33230051},{"NoteNumber":67,"Velocity":81,"Duration":276163,"SoundDuration":276163,"Delta":33230051},{"NoteNumber":65,"Velocity":81,"Duration":276163,"SoundDuration":276163,"Delta":33230051},{"NoteNumber":36,"Velocity":91,"Duration":516923,"SoundDuration":516923,"Delta":33369586},{"NoteNumber":72,"Velocity":81,"Duration":126326,"SoundDuration":126326,"Delta":33509121},{"NoteNumber":67,"Velocity":81,"Duration":126326,"SoundDuration":126326,"Delta":33509121},{"NoteNumber":65,"Velocity":81,"Duration":126326,"SoundDuration":126326,"Delta":33509121},{"NoteNumber":72,"Velocity":98,"Duration":247395,"SoundDuration":247395,"Delta":33636509},{"NoteNumber":67,"Velocity":98,"Duration":247395,"SoundDuration":247395,"Delta":33636509},{"NoteNumber":52,"Velocity":88,"Duration":250000,"SoundDuration":250000,"Delta":33636509},{"NoteNumber":48,"Velocity":109,"Duration":537573,"SoundDuration":537573,"Delta":33886509},{"NoteNumber":72,"Velocity":84,"Duration":276163,"SoundDuration":276163,"Delta":34008958},{"NoteNumber":67,"Velocity":84,"Duration":276163,"SoundDuration":276163,"Delta":34008958},{"NoteNumber":64,"Velocity":84,"Duration":276163,"SoundDuration":276163,"Delta":34008958},{"NoteNumber":36,"Velocity":92,"Duration":530366,"SoundDuration":530366,"Delta":34148493},{"NoteNumber":72,"Velocity":84,"Duration":134920,"SoundDuration":134920,"Delta":34288028},{"NoteNumber":67,"Velocity":84,"Duration":134920,"SoundDuration":134920,"Delta":34288028},{"NoteNumber":64,"Velocity":84,"Duration":134920,"SoundDuration":134920,"Delta":34288028},{"NoteNumber":72,"Velocity":98,"Duration":252123,"SoundDuration":252123,"Delta":34424083},{"NoteNumber":67,"Velocity":98,"Duration":252123,"SoundDuration":252123,"Delta":34424083},{"NoteNumber":60,"Velocity":98,"Duration":252123,"SoundDuration":252123,"Delta":34424083},{"NoteNumber":43,"Velocity":88,"Duration":254776,"SoundDuration":254776,"Delta":34424083},{"NoteNumber":52,"Velocity":107,"Duration":530551,"SoundDuration":530551,"Delta":34678860},{"NoteNumber":43,"Velocity":107,"Duration":530551,"SoundDuration":530551,"Delta":34678860},{"NoteNumber":64,"Velocity":79,"Duration":276163,"SoundDuration":276163,"Delta":34801309},{"NoteNumber":72,"Velocity":79,"Duration":276163,"SoundDuration":276163,"Delta":34801309},{"NoteNumber":67,"Velocity":79,"Duration":276163,"SoundDuration":276163,"Delta":34801309},{"NoteNumber":36,"Velocity":90,"Duration":522804,"SoundDuration":522804,"Delta":34940844},{"NoteNumber":64,"Velocity":79,"Duration":127957,"SoundDuration":127957,"Delta":35080379},{"NoteNumber":67,"Velocity":79,"Duration":127957,"SoundDuration":127957,"Delta":35080379},{"NoteNumber":72,"Velocity":79,"Duration":127957,"SoundDuration":127957,"Delta":35080379},{"NoteNumber":65,"Velocity":95,"Duration":251588,"SoundDuration":251588,"Delta":35209411},{"NoteNumber":72,"Velocity":95,"Duration":251588,"SoundDuration":251588,"Delta":35209411},{"NoteNumber":67,"Velocity":95,"Duration":251588,"SoundDuration":251588,"Delta":35209411},{"NoteNumber":45,"Velocity":87,"Duration":254237,"SoundDuration":254237,"Delta":35209411},{"NoteNumber":53,"Velocity":87,"Duration":254237,"SoundDuration":254237,"Delta":35209411},{"NoteNumber":43,"Velocity":108,"Duration":529998,"SoundDuration":529998,"Delta":35463648},{"NoteNumber":52,"Velocity":108,"Duration":529998,"SoundDuration":529998,"Delta":35463648},{"NoteNumber":64,"Velocity":79,"Duration":276163,"SoundDuration":276163,"Delta":35586097},{"NoteNumber":67,"Velocity":79,"Duration":276163,"SoundDuration":276163,"Delta":35586097},{"NoteNumber":72,"Velocity":79,"Duration":276163,"SoundDuration":276163,"Delta":35586097},{"NoteNumber":36,"Velocity":90,"Duration":520646,"SoundDuration":520646,"Delta":35725632},{"NoteNumber":64,"Velocity":79,"Duration":127408,"SoundDuration":127408,"Delta":35865167},{"NoteNumber":72,"Velocity":79,"Duration":127408,"SoundDuration":127408,"Delta":35865167},{"NoteNumber":67,"Velocity":79,"Duration":127408,"SoundDuration":127408,"Delta":35865167},{"NoteNumber":67,"Velocity":95,"Duration":250000,"SoundDuration":250000,"Delta":35993647},{"NoteNumber":72,"Velocity":95,"Duration":250000,"SoundDuration":250000,"Delta":35993647},{"NoteNumber":60,"Velocity":95,"Duration":250000,"SoundDuration":250000,"Delta":35993647},{"NoteNumber":40,"Velocity":88,"Duration":252631,"SoundDuration":252631,"Delta":35993647},{"NoteNumber":48,"Velocity":88,"Duration":252631,"SoundDuration":252631,"Delta":35993647},{"NoteNumber":41,"Velocity":108,"Duration":541465,"SoundDuration":541465,"Delta":36246279},{"NoteNumber":50,"Velocity":108,"Duration":541465,"SoundDuration":541465,"Delta":36246279},{"NoteNumber":72,"Velocity":77,"Duration":280070,"SoundDuration":280070,"Delta":36368978},{"NoteNumber":62,"Velocity":77,"Duration":280070,"SoundDuration":280070,"Delta":36368978},{"NoteNumber":67,"Velocity":77,"Duration":280070,"SoundDuration":280070,"Delta":36368978},{"NoteNumber":36,"Velocity":91,"Duration":540414,"SoundDuration":540414,"Delta":36510488},{"NoteNumber":72,"Velocity":77,"Duration":134615,"SoundDuration":134615,"Delta":36651997},{"NoteNumber":62,"Velocity":77,"Duration":134615,"SoundDuration":134615,"Delta":36651997},{"NoteNumber":67,"Velocity":77,"Duration":134615,"SoundDuration":134615,"Delta":36651997},{"NoteNumber":72,"Velocity":95,"Duration":260416,"SoundDuration":260416,"Delta":36787744},{"NoteNumber":64,"Velocity":95,"Duration":260416,"SoundDuration":260416,"Delta":36787744},{"NoteNumber":67,"Velocity":95,"Duration":260416,"SoundDuration":260416,"Delta":36787744},{"NoteNumber":43,"Velocity":89,"Duration":263157,"SoundDuration":263157,"Delta":36787744},{"NoteNumber":52,"Velocity":89,"Duration":263157,"SoundDuration":263157,"Delta":36787744},{"NoteNumber":40,"Velocity":109,"Duration":543539,"SoundDuration":543539,"Delta":37050902},{"NoteNumber":48,"Velocity":109,"Duration":543539,"SoundDuration":543539,"Delta":37050902},{"NoteNumber":72,"Velocity":76,"Duration":282066,"SoundDuration":282066,"Delta":37173351},{"NoteNumber":67,"Velocity":76,"Duration":282066,"SoundDuration":282066,"Delta":37173351},{"NoteNumber":60,"Velocity":76,"Duration":282066,"SoundDuration":282066,"Delta":37173351},{"NoteNumber":36,"Velocity":92,"Duration":537193,"SoundDuration":537193,"Delta":37315869},{"NoteNumber":72,"Velocity":76,"Duration":134920,"SoundDuration":134920,"Delta":37458387},{"NoteNumber":60,"Velocity":76,"Duration":134920,"SoundDuration":134920,"Delta":37458387},{"NoteNumber":72,"Velocity":95,"Duration":258620,"SoundDuration":258620,"Delta":37594441},{"NoteNumber":60,"Velocity":95,"Duration":258620,"SoundDuration":258620,"Delta":37594441},{"NoteNumber":48,"Velocity":104,"Duration":258620,"SoundDuration":258620,"Delta":37594441}],"license":{"name":"Creative Commons Attribution-ShareAlike 3.0 Germany","url":"http://creativecommons.org/licenses/by-sa/3.0/de/deed.en","text":"The MIDI files in this folder were downloaded from http://www.piano-midi.de and are licensed under the Creative Commons Attribution-ShareAlike 3.0 Germany license by Bernd Krueger.\n\nThe MIDI, audio(MP3, OGG) and video files of Bernd Krueger are licensed under the cc-by-sa Germany License . This means, that you can use and adapt the files, as long as you attribute to the copyright holder Name: Bernd Krueger Source: http://www.piano-midi.de The distribution or public playback of the files is only allowed under identical license conditions . The scores are open source.","attribution":"Bernd Krueger","attributionUrl":"http://www.piano-midi.de"}}