{"title":"Träumerei","artist":"Schumann","durationMs":126499,"midiSha256":"67924aa799fe500d9020de32c9a9d0c5b148090fadf1f2d4f5c02cac0629bfda","midiObject":[{"NoteNumber":60,"Velocity":51,"Duration":750000,"SoundDuration":750000,"Delta":0},{"NoteNumber":65,"Velocity":58,"Duration":3355669,"SoundDuration":3355669,"Delta":750001},{"NoteNumber":41,"Velocity":46,"Duration":5680489,"SoundDuration":5680489,"Delta":750001},{"NoteNumber":53,"Velocity":26,"Duration":3080160,"SoundDuration":3080160,"Delta":2250001},{"NoteNumber":60,"Velocity":26,"Duration":3080160,"SoundDuration":3080160,"Delta":2250001},{"NoteNumber":48,"Velocity":22,"Duration":4180489,"SoundDuration":4180489,"Delta":2250001},{"NoteNumber":57,"Velocity":22,"Duration":4180489,"SoundDuration":4180489,"Delta":2250001},{"NoteNumber":64,"Velocity":45,"Duration":408163,"SoundDuration":408163,"Delta":4105670},{"NoteNumber":65,"Velocity":48,"Duration":408163,"SoundDuration":408163,"Delta":4513834},{"NoteNumber":69,"Velocity":49,"Duration":408163,"SoundDuration":408163,"Delta":4921997},{"NoteNumber":72,"Velocity":52,"Duration":468750,"SoundDuration":468750,"Delta":5330161},{"NoteNumber":77,"Velocity":52,"Duration":605263,"SoundDuration":605263,"Delta":5798911},{"NoteNumber":46,"Velocity":31,"Duration":184210,"SoundDuration":184210,"Delta":6114700},{"NoteNumber":53,"Velocity":35,"Duration":2935582,"SoundDuration":2935582,"Delta":6272595},{"NoteNumber":65,"Velocity":38,"Duration":3787231,"SoundDuration":3787231,"Delta":6430490},{"NoteNumber":77,"Velocity":50,"Duration":1766008,"SoundDuration":1766008,"Delta":6448872},{"NoteNumber":62,"Velocity":39,"Duration":1766008,"SoundDuration":1766008,"Delta":6448872},{"NoteNumber":60,"Velocity":36,"Duration":472440,"SoundDuration":472440,"Delta":8195196},{"NoteNumber":76,"Velocity":39,"Duration":473859,"SoundDuration":473859,"Delta":8205038},{"NoteNumber":58,"Velocity":34,"Duration":540540,"SoundDuration":540540,"Delta":8667637},{"NoteNumber":74,"Velocity":38,"Duration":540148,"SoundDuration":540148,"Delta":8678898},{"NoteNumber":72,"Velocity":42,"Duration":521739,"SoundDuration":521739,"Delta":9208177},{"NoteNumber":48,"Velocity":33,"Duration":1009544,"SoundDuration":1009544,"Delta":9208177},{"NoteNumber":57,"Velocity":33,"Duration":1009544,"SoundDuration":1009544,"Delta":9208177},{"NoteNumber":77,"Velocity":38,"Duration":487804,"SoundDuration":487804,"Delta":9729916},{"NoteNumber":64,"Velocity":42,"Duration":1743729,"SoundDuration":1743729,"Delta":10217721},{"NoteNumber":67,"Velocity":42,"Duration":428571,"SoundDuration":428571,"Delta":10217721},{"NoteNumber":58,"Velocity":38,"Duration":428571,"SoundDuration":428571,"Delta":10217721},{"NoteNumber":48,"Velocity":38,"Duration":1743729,"SoundDuration":1743729,"Delta":10217721},{"NoteNumber":69,"Velocity":42,"Duration":428571,"SoundDuration":428571,"Delta":10646293},{"NoteNumber":57,"Velocity":38,"Duration":428571,"SoundDuration":428571,"Delta":10646293},{"NoteNumber":70,"Velocity":48,"Duration":428571,"SoundDuration":428571,"Delta":11074864},{"NoteNumber":55,"Velocity":42,"Duration":886586,"SoundDuration":886586,"Delta":11074864},{"NoteNumber":74,"Velocity":40,"Duration":458015,"SoundDuration":458015,"Delta":11503436},{"NoteNumber":60,"Velocity":46,"Duration":2020373,"SoundDuration":2020373,"Delta":11961451},{"NoteNumber":65,"Velocity":46,"Duration":483871,"SoundDuration":483871,"Delta":11961451},{"NoteNumber":45,"Velocity":36,"Duration":483871,"SoundDuration":483871,"Delta":11961451},{"NoteNumber":53,"Velocity":36,"Duration":483871,"SoundDuration":483871,"Delta":11961451},{"NoteNumber":64,"Velocity":46,"Duration":483870,"SoundDuration":483870,"Delta":12445322},{"NoteNumber":67,"Velocity":46,"Duration":483870,"SoundDuration":483870,"Delta":12445322},{"NoteNumber":48,"Velocity":39,"Duration":483870,"SoundDuration":483870,"Delta":12445322},{"NoteNumber":55,"Velocity":39,"Duration":483870,"SoundDuration":483870,"Delta":12445322},{"NoteNumber":65,"Velocity":49,"Duration":526315,"SoundDuration":526315,"Delta":12929193},{"NoteNumber":69,"Velocity":49,"Duration":526315,"SoundDuration":526315,"Delta":12929193},{"NoteNumber":53,"Velocity":42,"Duration":1052631,"SoundDuration":1052631,"Delta":12929193},{"NoteNumber":57,"Velocity":42,"Duration":1052631,"SoundDuration":1052631,"Delta":12929193},{"NoteNumber":72,"Velocity":38,"Duration":526315,"SoundDuration":526315,"Delta":13455509},{"NoteNumber":60,"Velocity":45,"Duration":1667995,"SoundDuration":1667995,"Delta":13981825},{"NoteNumber":64,"Velocity":45,"Duration":1667995,"SoundDuration":1667995,"Delta":13981825},{"NoteNumber":67,"Velocity":45,"Duration":1667995,"SoundDuration":1667995,"Delta":13981825},{"NoteNumber":48,"Velocity":39,"Duration":487805,"SoundDuration":487805,"Delta":13981825},{"NoteNumber":55,"Velocity":39,"Duration":1667995,"SoundDuration":1667995,"Delta":13981825},{"NoteNumber":50,"Velocity":50,"Duration":410958,"SoundDuration":410958,"Delta":14469630},{"NoteNumber":48,"Velocity":47,"Duration":384615,"SoundDuration":384615,"Delta":14880589},{"NoteNumber":46,"Velocity":47,"Duration":384615,"SoundDuration":384615,"Delta":15265204},{"NoteNumber":43,"Velocity":48,"Duration":444444,"SoundDuration":444444,"Delta":15649820},{"NoteNumber":60,"Velocity":51,"Duration":899210,"SoundDuration":899210,"Delta":15686857},{"NoteNumber":45,"Velocity":48,"Duration":491803,"SoundDuration":491803,"Delta":16094265},{"NoteNumber":65,"Velocity":58,"Duration":2528042,"SoundDuration":2528042,"Delta":16586068},{"NoteNumber":41,"Velocity":46,"Duration":4905850,"SoundDuration":4905850,"Delta":16586068},{"NoteNumber":53,"Velocity":26,"Duration":2699900,"SoundDuration":2699900,"Delta":17638700},{"NoteNumber":60,"Velocity":26,"Duration":2699900,"SoundDuration":2699900,"Delta":17638700},{"NoteNumber":48,"Velocity":22,"Duration":3853218,"SoundDuration":3853218,"Delta":17638700},{"NoteNumber":57,"Velocity":22,"Duration":3853218,"SoundDuration":3853218,"Delta":17638700},{"NoteNumber":64,"Velocity":45,"Duration":408163,"SoundDuration":408163,"Delta":19114110},{"NoteNumber":65,"Velocity":48,"Duration":408163,"SoundDuration":408163,"Delta":19522274},{"NoteNumber":69,"Velocity":49,"Duration":408163,"SoundDuration":408163,"Delta":19930438},{"NoteNumber":72,"Velocity":52,"Duration":521739,"SoundDuration":521739,"Delta":20338601},{"NoteNumber":81,"Velocity":51,"Duration":605263,"SoundDuration":605263,"Delta":20860340},{"NoteNumber":49,"Velocity":28,"Duration":184210,"SoundDuration":184210,"Delta":21176129},{"NoteNumber":57,"Velocity":30,"Duration":3993133,"SoundDuration":3993133,"Delta":21334024},{"NoteNumber":69,"Velocity":33,"Duration":3835238,"SoundDuration":3835238,"Delta":21491919},{"NoteNumber":81,"Velocity":49,"Duration":1323529,"SoundDuration":1323529,"Delta":21491919},{"NoteNumber":67,"Velocity":33,"Duration":2539746,"SoundDuration":2539746,"Delta":21491919},{"NoteNumber":64,"Velocity":35,"Duration":2539746,"SoundDuration":2539746,"Delta":21491919},{"NoteNumber":79,"Velocity":46,"Duration":405405,"SoundDuration":405405,"Delta":22815448},{"NoteNumber":77,"Velocity":46,"Duration":405405,"SoundDuration":405405,"Delta":23220854},{"NoteNumber":76,"Velocity":46,"Duration":405405,"SoundDuration":405405,"Delta":23626259},{"NoteNumber":77,"Velocity":55,"Duration":437955,"SoundDuration":437955,"Delta":24031665},{"NoteNumber":50,"Velocity":33,"Duration":1295492,"SoundDuration":1295492,"Delta":24031665},{"NoteNumber":62,"Velocity":33,"Duration":1295492,"SoundDuration":1295492,"Delta":24031665},{"NoteNumber":81,"Velocity":45,"Duration":437955,"SoundDuration":437955,"Delta":24469621},{"NoteNumber":74,"Velocity":49,"Duration":419580,"SoundDuration":419580,"Delta":24907577},{"NoteNumber":68,"Velocity":44,"Duration":419580,"SoundDuration":419580,"Delta":25327157},{"NoteNumber":77,"Velocity":44,"Duration":419580,"SoundDuration":419580,"Delta":25327157},{"NoteNumber":60,"Velocity":29,"Duration":1702470,"SoundDuration":1702470,"Delta":25327157},{"NoteNumber":53,"Velocity":29,"Duration":419580,"SoundDuration":419580,"Delta":25327157},{"NoteNumber":67,"Velocity":48,"Duration":419580,"SoundDuration":419580,"Delta":25746738},{"NoteNumber":76,"Velocity":48,"Duration":1282889,"SoundDuration":1282889,"Delta":25746738},{"NoteNumber":55,"Velocity":33,"Duration":1282889,"SoundDuration":1282889,"Delta":25746738},{"NoteNumber":72,"Velocity":38,"Duration":431654,"SoundDuration":431654,"Delta":26166318},{"NoteNumber":64,"Velocity":38,"Duration":431654,"SoundDuration":431654,"Delta":26597973},{"NoteNumber":66,"Velocity":38,"Duration":454545,"SoundDuration":454545,"Delta":27029627},{"NoteNumber":75,"Velocity":38,"Duration":454545,"SoundDuration":454545,"Delta":27029627},{"NoteNumber":57,"Velocity":33,"Duration":454545,"SoundDuration":454545,"Delta":27029627},{"NoteNumber":60,"Velocity":33,"Duration":454545,"SoundDuration":454545,"Delta":27029627},{"NoteNumber":65,"Velocity":44,"Duration":1839324,"SoundDuration":1839324,"Delta":27484173},{"NoteNumber":74,"Velocity":44,"Duration":909091,"SoundDuration":909091,"Delta":27484173},{"NoteNumber":59,"Velocity":36,"Duration":454545,"SoundDuration":454545,"Delta":27484173},{"NoteNumber":55,"Velocity":36,"Duration":1839324,"SoundDuration":1839324,"Delta":27484173},{"NoteNumber":67,"Velocity":33,"Duration":454545,"SoundDuration":454545,"Delta":27938718},{"NoteNumber":76,"Velocity":42,"Duration":697674,"SoundDuration":697674,"Delta":28393264},{"NoteNumber":57,"Velocity":33,"Duration":465116,"SoundDuration":465116,"Delta":28393264},{"NoteNumber":59,"Velocity":33,"Duration":465116,"SoundDuration":465116,"Delta":28858380},{"NoteNumber":72,"Velocity":35,"Duration":232558,"SoundDuration":232558,"Delta":29090939},{"NoteNumber":64,"Velocity":38,"Duration":952921,"SoundDuration":952921,"Delta":29323497},{"NoteNumber":72,"Velocity":38,"Duration":2072305,"SoundDuration":2072305,"Delta":29323497},{"NoteNumber":48,"Velocity":37,"Duration":465116,"SoundDuration":465116,"Delta":29323497},{"NoteNumber":60,"Velocity":37,"Duration":465116,"SoundDuration":465116,"Delta":29323497},{"NoteNumber":50,"Velocity":46,"Duration":487805,"SoundDuration":487805,"Delta":29788613},{"NoteNumber":46,"Velocity":41,"Duration":487805,"SoundDuration":487805,"Delta":30276418},{"NoteNumber":43,"Velocity":40,"Duration":631579,"SoundDuration":631579,"Delta":30764224},{"NoteNumber":60,"Velocity":51,"Duration":605263,"SoundDuration":605263,"Delta":30790539},{"NoteNumber":65,"Velocity":58,"Duration":2504245,"SoundDuration":2504245,"Delta":31395803},{"NoteNumber":41,"Velocity":46,"Duration":4829064,"SoundDuration":4829064,"Delta":31395803},{"NoteNumber":53,"Velocity":26,"Duration":2676103,"SoundDuration":2676103,"Delta":32448435},{"NoteNumber":60,"Velocity":26,"Duration":2676103,"SoundDuration":2676103,"Delta":32448435},{"NoteNumber":48,"Velocity":22,"Duration":3776432,"SoundDuration":3776432,"Delta":32448435},{"NoteNumber":57,"Velocity":22,"Duration":3776432,"SoundDuration":3776432,"Delta":32448435},{"NoteNumber":64,"Velocity":45,"Duration":408163,"SoundDuration":408163,"Delta":33900048},{"NoteNumber":65,"Velocity":48,"Duration":408163,"SoundDuration":408163,"Delta":34308211},{"NoteNumber":69,"Velocity":49,"Duration":408163,"SoundDuration":408163,"Delta":34716375},{"NoteNumber":72,"Velocity":52,"Duration":468750,"SoundDuration":468750,"Delta":35124538},{"NoteNumber":77,"Velocity":52,"Duration":605263,"SoundDuration":605263,"Delta":35593288},{"NoteNumber":46,"Velocity":31,"Duration":184210,"SoundDuration":184210,"Delta":35909078},{"NoteNumber":53,"Velocity":35,"Duration":2935582,"SoundDuration":2935582,"Delta":36066972},{"NoteNumber":65,"Velocity":38,"Duration":3787231,"SoundDuration":3787231,"Delta":36224867},{"NoteNumber":77,"Velocity":50,"Duration":1766008,"SoundDuration":1766008,"Delta":36243249},{"NoteNumber":62,"Velocity":39,"Duration":1766008,"SoundDuration":1766008,"Delta":36243249},{"NoteNumber":60,"Velocity":34,"Duration":472441,"SoundDuration":472441,"Delta":37989573},{"NoteNumber":76,"Velocity":37,"Duration":473859,"SoundDuration":473859,"Delta":37999416},{"NoteNumber":58,"Velocity":31,"Duration":540540,"SoundDuration":540540,"Delta":38462014},{"NoteNumber":74,"Velocity":36,"Duration":529279,"SoundDuration":529279,"Delta":38473275},{"NoteNumber":72,"Velocity":42,"Duration":521738,"SoundDuration":521738,"Delta":39002555},{"NoteNumber":48,"Velocity":33,"Duration":1009543,"SoundDuration":1009543,"Delta":39002555},{"NoteNumber":57,"Velocity":33,"Duration":1009543,"SoundDuration":1009543,"Delta":39002555},{"NoteNumber":77,"Velocity":38,"Duration":487805,"SoundDuration":487805,"Delta":39524294},{"NoteNumber":64,"Velocity":42,"Duration":1743729,"SoundDuration":1743729,"Delta":40012099},{"NoteNumber":67,"Velocity":40,"Duration":428571,"SoundDuration":428571,"Delta":40012099},{"NoteNumber":58,"Velocity":37,"Duration":428571,"SoundDuration":428571,"Delta":40012099},{"NoteNumber":48,"Velocity":38,"Duration":1743729,"SoundDuration":1743729,"Delta":40012099},{"NoteNumber":69,"Velocity":40,"Duration":428571,"SoundDuration":428571,"Delta":40440670},{"NoteNumber":57,"Velocity":37,"Duration":428571,"SoundDuration":428571,"Delta":40440670},{"NoteNumber":70,"Velocity":46,"Duration":428571,"SoundDuration":428571,"Delta":40869242},{"NoteNumber":55,"Velocity":40,"Duration":886586,"SoundDuration":886586,"Delta":40869242},{"NoteNumber":74,"Velocity":38,"Duration":458015,"SoundDuration":458015,"Delta":41297813},{"NoteNumber":60,"Velocity":46,"Duration":2020374,"SoundDuration":2020374,"Delta":41755829},{"NoteNumber":65,"Velocity":46,"Duration":483871,"SoundDuration":483871,"Delta":41755829},{"NoteNumber":45,"Velocity":36,"Duration":483871,"SoundDuration":483871,"Delta":41755829},{"NoteNumber":53,"Velocity":36,"Duration":483871,"SoundDuration":483871,"Delta":41755829},{"NoteNumber":64,"Velocity":46,"Duration":483871,"SoundDuration":483871,"Delta":42239700},{"NoteNumber":67,"Velocity":46,"Duration":483871,"SoundDuration":483871,"Delta":42239700},{"NoteNumber":48,"Velocity":39,"Duration":483871,"SoundDuration":483871,"Delta":42239700},{"NoteNumber":55,"Velocity":39,"Duration":483871,"SoundDuration":483871,"Delta":42239700},{"NoteNumber":65,"Velocity":49,"Duration":526316,"SoundDuration":526316,"Delta":42723571},{"NoteNumber":69,"Velocity":49,"Duration":526316,"SoundDuration":526316,"Delta":42723571},{"NoteNumber":53,"Velocity":42,"Duration":1052632,"SoundDuration":1052632,"Delta":42723571},{"NoteNumber":57,"Velocity":42,"Duration":1052632,"SoundDuration":1052632,"Delta":42723571},{"NoteNumber":72,"Velocity":38,"Duration":526316,"SoundDuration":526316,"Delta":43249887},{"NoteNumber":60,"Velocity":45,"Duration":1667994,"SoundDuration":1667994,"Delta":43776203},{"NoteNumber":64,"Velocity":45,"Duration":1667994,"SoundDuration":1667994,"Delta":43776203},{"NoteNumber":67,"Velocity":45,"Duration":1667994,"SoundDuration":1667994,"Delta":43776203},{"NoteNumber":48,"Velocity":39,"Duration":487805,"SoundDuration":487805,"Delta":43776203},{"NoteNumber":55,"Velocity":39,"Duration":1667994,"SoundDuration":1667994,"Delta":43776203},{"NoteNumber":50,"Velocity":50,"Duration":410958,"SoundDuration":410958,"Delta":44264008},{"NoteNumber":48,"Velocity":47,"Duration":384615,"SoundDuration":384615,"Delta":44674967},{"NoteNumber":46,"Velocity":47,"Duration":384615,"SoundDuration":384615,"Delta":45059582},{"NoteNumber":43,"Velocity":48,"Duration":444444,"SoundDuration":444444,"Delta":45444198},{"NoteNumber":60,"Velocity":51,"Duration":899210,"SoundDuration":899210,"Delta":45481235},{"NoteNumber":45,"Velocity":48,"Duration":491803,"SoundDuration":491803,"Delta":45888642},{"NoteNumber":65,"Velocity":58,"Duration":2528042,"SoundDuration":2528042,"Delta":46380446},{"NoteNumber":41,"Velocity":46,"Duration":4941658,"SoundDuration":4941658,"Delta":46380446},{"NoteNumber":53,"Velocity":26,"Duration":2716907,"SoundDuration":2716907,"Delta":47433078},{"NoteNumber":60,"Velocity":26,"Duration":2716907,"SoundDuration":2716907,"Delta":47433078},{"NoteNumber":48,"Velocity":22,"Duration":3889026,"SoundDuration":3889026,"Delta":47433078},{"NoteNumber":57,"Velocity":22,"Duration":3889026,"SoundDuration":3889026,"Delta":47433078},{"NoteNumber":64,"Velocity":45,"Duration":408163,"SoundDuration":408163,"Delta":48908488},{"NoteNumber":65,"Velocity":48,"Duration":416666,"SoundDuration":416666,"Delta":49316652},{"NoteNumber":69,"Velocity":49,"Duration":416666,"SoundDuration":416666,"Delta":49733318},{"NoteNumber":72,"Velocity":52,"Duration":540540,"SoundDuration":540540,"Delta":50149985},{"NoteNumber":81,"Velocity":51,"Duration":605263,"SoundDuration":605263,"Delta":50690525},{"NoteNumber":49,"Velocity":28,"Duration":184210,"SoundDuration":184210,"Delta":51006315},{"NoteNumber":57,"Velocity":30,"Duration":3993133,"SoundDuration":3993133,"Delta":51164209},{"NoteNumber":69,"Velocity":33,"Duration":3835238,"SoundDuration":3835238,"Delta":51322104},{"NoteNumber":81,"Velocity":49,"Duration":1323529,"SoundDuration":1323529,"Delta":51322104},{"NoteNumber":67,"Velocity":33,"Duration":2539746,"SoundDuration":2539746,"Delta":51322104},{"NoteNumber":64,"Velocity":35,"Duration":2539746,"SoundDuration":2539746,"Delta":51322104},{"NoteNumber":79,"Velocity":46,"Duration":405405,"SoundDuration":405405,"Delta":52645634},{"NoteNumber":77,"Velocity":46,"Duration":405405,"SoundDuration":405405,"Delta":53051039},{"NoteNumber":76,"Velocity":46,"Duration":405405,"SoundDuration":405405,"Delta":53456445},{"NoteNumber":77,"Velocity":55,"Duration":437955,"SoundDuration":437955,"Delta":53861850},{"NoteNumber":50,"Velocity":33,"Duration":1295492,"SoundDuration":1295492,"Delta":53861850},{"NoteNumber":62,"Velocity":33,"Duration":1295492,"SoundDuration":1295492,"Delta":53861850},{"NoteNumber":81,"Velocity":45,"Duration":437955,"SoundDuration":437955,"Delta":54299806},{"NoteNumber":74,"Velocity":49,"Duration":419580,"SoundDuration":419580,"Delta":54737762},{"NoteNumber":68,"Velocity":44,"Duration":419580,"SoundDuration":419580,"Delta":55157343},{"NoteNumber":77,"Velocity":44,"Duration":419580,"SoundDuration":419580,"Delta":55157343},{"NoteNumber":60,"Velocity":29,"Duration":1702469,"SoundDuration":1702469,"Delta":55157343},{"NoteNumber":53,"Velocity":29,"Duration":419580,"SoundDuration":419580,"Delta":55157343},{"NoteNumber":67,"Velocity":48,"Duration":419580,"SoundDuration":419580,"Delta":55576923},{"NoteNumber":76,"Velocity":48,"Duration":1282889,"SoundDuration":1282889,"Delta":55576923},{"NoteNumber":55,"Velocity":33,"Duration":1282889,"SoundDuration":1282889,"Delta":55576923},{"NoteNumber":72,"Velocity":38,"Duration":431654,"SoundDuration":431654,"Delta":55996504},{"NoteNumber":64,"Velocity":38,"Duration":431654,"SoundDuration":431654,"Delta":56428158},{"NoteNumber":66,"Velocity":38,"Duration":454545,"SoundDuration":454545,"Delta":56859813},{"NoteNumber":75,"Velocity":38,"Duration":454545,"SoundDuration":454545,"Delta":56859813},{"NoteNumber":57,"Velocity":33,"Duration":454545,"SoundDuration":454545,"Delta":56859813},{"NoteNumber":60,"Velocity":33,"Duration":454545,"SoundDuration":454545,"Delta":56859813},{"NoteNumber":65,"Velocity":44,"Duration":1839323,"SoundDuration":1839323,"Delta":57314358},{"NoteNumber":74,"Velocity":44,"Duration":909090,"SoundDuration":909090,"Delta":57314358},{"NoteNumber":59,"Velocity":36,"Duration":454545,"SoundDuration":454545,"Delta":57314358},{"NoteNumber":55,"Velocity":36,"Duration":1839323,"SoundDuration":1839323,"Delta":57314358},{"NoteNumber":67,"Velocity":33,"Duration":454545,"SoundDuration":454545,"Delta":57768904},{"NoteNumber":76,"Velocity":42,"Duration":697674,"SoundDuration":697674,"Delta":58223449},{"NoteNumber":57,"Velocity":33,"Duration":465116,"SoundDuration":465116,"Delta":58223449},{"NoteNumber":59,"Velocity":33,"Duration":465116,"SoundDuration":465116,"Delta":58688566},{"NoteNumber":72,"Velocity":35,"Duration":232558,"SoundDuration":232558,"Delta":58921124},{"NoteNumber":64,"Velocity":38,"Duration":952921,"SoundDuration":952921,"Delta":59153682},{"NoteNumber":72,"Velocity":38,"Duration":2072305,"SoundDuration":2072305,"Delta":59153682},{"NoteNumber":48,"Velocity":37,"Duration":465116,"SoundDuration":465116,"Delta":59153682},{"NoteNumber":60,"Velocity":37,"Duration":465116,"SoundDuration":465116,"Delta":59153682},{"NoteNumber":50,"Velocity":46,"Duration":487805,"SoundDuration":487805,"Delta":59618799},{"NoteNumber":46,"Velocity":42,"Duration":487805,"SoundDuration":487805,"Delta":60106604},{"NoteNumber":43,"Velocity":40,"Duration":631579,"SoundDuration":631579,"Delta":60594409},{"NoteNumber":60,"Velocity":56,"Duration":605263,"SoundDuration":605263,"Delta":60620724},{"NoteNumber":65,"Velocity":63,"Duration":2629256,"SoundDuration":2629256,"Delta":61225988},{"NoteNumber":41,"Velocity":50,"Duration":3853746,"SoundDuration":3853746,"Delta":61225988},{"NoteNumber":53,"Velocity":28,"Duration":2699900,"SoundDuration":2699900,"Delta":62379834},{"NoteNumber":60,"Velocity":28,"Duration":2699900,"SoundDuration":2699900,"Delta":62379834},{"NoteNumber":48,"Velocity":24,"Duration":2699900,"SoundDuration":2699900,"Delta":62379834},{"NoteNumber":57,"Velocity":24,"Duration":2699900,"SoundDuration":2699900,"Delta":62379834},{"NoteNumber":64,"Velocity":49,"Duration":408163,"SoundDuration":408163,"Delta":63855244},{"NoteNumber":65,"Velocity":52,"Duration":408163,"SoundDuration":408163,"Delta":64263408},{"NoteNumber":69,"Velocity":53,"Duration":408163,"SoundDuration":408163,"Delta":64671571},{"NoteNumber":72,"Velocity":52,"Duration":461538,"SoundDuration":461538,"Delta":65079735},{"NoteNumber":70,"Velocity":41,"Duration":499999,"SoundDuration":499999,"Delta":65541273},{"NoteNumber":75,"Velocity":51,"Duration":499999,"SoundDuration":499999,"Delta":65541273},{"NoteNumber":48,"Velocity":36,"Duration":521738,"SoundDuration":521738,"Delta":65541273},{"NoteNumber":55,"Velocity":39,"Duration":521738,"SoundDuration":521738,"Delta":65541273},{"NoteNumber":69,"Velocity":41,"Duration":1632029,"SoundDuration":1632029,"Delta":66063012},{"NoteNumber":75,"Velocity":56,"Duration":1632029,"SoundDuration":1632029,"Delta":66063012},{"NoteNumber":54,"Velocity":41,"Duration":413792,"SoundDuration":413792,"Delta":66063012},{"NoteNumber":50,"Velocity":41,"Duration":2042988,"SoundDuration":2042988,"Delta":66063012},{"NoteNumber":57,"Velocity":41,"Duration":412867,"SoundDuration":412867,"Delta":66476805},{"NoteNumber":62,"Velocity":44,"Duration":2841569,"SoundDuration":2841569,"Delta":66889672},{"NoteNumber":66,"Velocity":48,"Duration":402684,"SoundDuration":402684,"Delta":67292357},{"NoteNumber":69,"Velocity":38,"Duration":821917,"SoundDuration":821917,"Delta":67695041},{"NoteNumber":74,"Velocity":50,"Duration":410959,"SoundDuration":410959,"Delta":67695041},{"NoteNumber":72,"Velocity":51,"Duration":410958,"SoundDuration":410958,"Delta":68106000},{"NoteNumber":54,"Velocity":41,"Duration":410958,"SoundDuration":410958,"Delta":68106000},{"NoteNumber":70,"Velocity":55,"Duration":397351,"SoundDuration":397351,"Delta":68516959},{"NoteNumber":55,"Velocity":46,"Duration":1214282,"SoundDuration":1214282,"Delta":68516959},{"NoteNumber":74,"Velocity":49,"Duration":397351,"SoundDuration":397351,"Delta":68914310},{"NoteNumber":67,"Velocity":53,"Duration":419580,"SoundDuration":419580,"Delta":69311661},{"NoteNumber":63,"Velocity":48,"Duration":419580,"SoundDuration":419580,"Delta":69731242},{"NoteNumber":69,"Velocity":48,"Duration":419580,"SoundDuration":419580,"Delta":69731242},{"NoteNumber":54,"Velocity":39,"Duration":419580,"SoundDuration":419580,"Delta":69731242},{"NoteNumber":48,"Velocity":39,"Duration":419580,"SoundDuration":419580,"Delta":69731242},{"NoteNumber":62,"Velocity":52,"Duration":419580,"SoundDuration":419580,"Delta":70150822},{"NoteNumber":70,"Velocity":52,"Duration":1230391,"SoundDuration":1230391,"Delta":70150822},{"NoteNumber":50,"Velocity":44,"Duration":1230391,"SoundDuration":1230391,"Delta":70150822},{"NoteNumber":55,"Velocity":44,"Duration":1230391,"SoundDuration":1230391,"Delta":70150822},{"NoteNumber":67,"Velocity":41,"Duration":405405,"SoundDuration":405405,"Delta":70570403},{"NoteNumber":58,"Velocity":41,"Duration":405405,"SoundDuration":405405,"Delta":70975808},{"NoteNumber":60,"Velocity":41,"Duration":425532,"SoundDuration":425532,"Delta":71381214},{"NoteNumber":69,"Velocity":41,"Duration":425532,"SoundDuration":425532,"Delta":71381214},{"NoteNumber":51,"Velocity":40,"Duration":425532,"SoundDuration":425532,"Delta":71381214},{"NoteNumber":67,"Velocity":48,"Duration":1304277,"SoundDuration":1304277,"Delta":71806746},{"NoteNumber":58,"Velocity":45,"Duration":419580,"SoundDuration":419580,"Delta":71806746},{"NoteNumber":50,"Velocity":45,"Duration":1304277,"SoundDuration":1304277,"Delta":71806746},{"NoteNumber":62,"Velocity":40,"Duration":419580,"SoundDuration":419580,"Delta":72226326},{"NoteNumber":55,"Velocity":40,"Duration":465116,"SoundDuration":465116,"Delta":72645907},{"NoteNumber":60,"Velocity":41,"Duration":495868,"SoundDuration":495868,"Delta":73111023},{"NoteNumber":62,"Velocity":41,"Duration":489669,"SoundDuration":489669,"Delta":73111023},{"NoteNumber":50,"Velocity":37,"Duration":940312,"SoundDuration":940312,"Delta":73111023},{"NoteNumber":57,"Velocity":37,"Duration":940312,"SoundDuration":940312,"Delta":73111023},{"NoteNumber":58,"Velocity":41,"Duration":932249,"SoundDuration":932249,"Delta":73606891},{"NoteNumber":62,"Velocity":41,"Duration":932249,"SoundDuration":932249,"Delta":73606891},{"NoteNumber":55,"Velocity":42,"Duration":487804,"SoundDuration":487804,"Delta":74051336},{"NoteNumber":43,"Velocity":44,"Duration":487805,"SoundDuration":487805,"Delta":74539141},{"NoteNumber":45,"Velocity":38,"Duration":631579,"SoundDuration":631579,"Delta":75026946},{"NoteNumber":65,"Velocity":42,"Duration":605263,"SoundDuration":605263,"Delta":75053262},{"NoteNumber":70,"Velocity":51,"Duration":2576327,"SoundDuration":2576327,"Delta":75658525},{"NoteNumber":34,"Velocity":42,"Duration":1100916,"SoundDuration":1100916,"Delta":75658525},{"NoteNumber":58,"Velocity":28,"Duration":2699900,"SoundDuration":2699900,"Delta":76759442},{"NoteNumber":65,"Velocity":28,"Duration":2699900,"SoundDuration":2699900,"Delta":76759442},{"NoteNumber":53,"Velocity":24,"Duration":2699900,"SoundDuration":2699900,"Delta":76759442},{"NoteNumber":62,"Velocity":24,"Duration":2699900,"SoundDuration":2699900,"Delta":76759442},{"NoteNumber":69,"Velocity":40,"Duration":408163,"SoundDuration":408163,"Delta":78234852},{"NoteNumber":70,"Velocity":44,"Duration":408163,"SoundDuration":408163,"Delta":78643016},{"NoteNumber":74,"Velocity":45,"Duration":408163,"SoundDuration":408163,"Delta":79051179},{"NoteNumber":77,"Velocity":44,"Duration":1029325,"SoundDuration":1029325,"Delta":79459343},{"NoteNumber":82,"Velocity":46,"Duration":522727,"SoundDuration":522727,"Delta":79943214},{"NoteNumber":55,"Velocity":28,"Duration":545454,"SoundDuration":545454,"Delta":79943214},{"NoteNumber":62,"Velocity":28,"Duration":545454,"SoundDuration":545454,"Delta":79943214},{"NoteNumber":76,"Velocity":36,"Duration":1643835,"SoundDuration":1643835,"Delta":80488668},{"NoteNumber":82,"Velocity":46,"Duration":1643835,"SoundDuration":1643835,"Delta":80488668},{"NoteNumber":61,"Velocity":27,"Duration":410959,"SoundDuration":410959,"Delta":80488668},{"NoteNumber":57,"Velocity":25,"Duration":2072407,"SoundDuration":2072407,"Delta":80488668},{"NoteNumber":64,"Velocity":29,"Duration":410958,"SoundDuration":410958,"Delta":80899627},{"NoteNumber":69,"Velocity":30,"Duration":2936564,"SoundDuration":2936564,"Delta":81310586},{"NoteNumber":73,"Velocity":36,"Duration":410958,"SoundDuration":410958,"Delta":81721545},{"NoteNumber":76,"Velocity":36,"Duration":857142,"SoundDuration":857142,"Delta":82132504},{"NoteNumber":81,"Velocity":40,"Duration":428571,"SoundDuration":428571,"Delta":82141433},{"NoteNumber":61,"Velocity":33,"Duration":428571,"SoundDuration":428571,"Delta":82561076},{"NoteNumber":79,"Velocity":37,"Duration":419642,"SoundDuration":419642,"Delta":82570004},{"NoteNumber":77,"Velocity":45,"Duration":408163,"SoundDuration":408163,"Delta":82989647},{"NoteNumber":62,"Velocity":41,"Duration":1257503,"SoundDuration":1257503,"Delta":82989647},{"NoteNumber":81,"Velocity":42,"Duration":408163,"SoundDuration":408163,"Delta":83397811},{"NoteNumber":74,"Velocity":45,"Duration":441176,"SoundDuration":441176,"Delta":83805974},{"NoteNumber":70,"Velocity":40,"Duration":441176,"SoundDuration":441176,"Delta":84247151},{"NoteNumber":76,"Velocity":40,"Duration":441176,"SoundDuration":441176,"Delta":84247151},{"NoteNumber":61,"Velocity":31,"Duration":441176,"SoundDuration":441176,"Delta":84247151},{"NoteNumber":55,"Velocity":31,"Duration":441176,"SoundDuration":441176,"Delta":84247151},{"NoteNumber":69,"Velocity":36,"Duration":431654,"SoundDuration":431654,"Delta":84688327},{"NoteNumber":77,"Velocity":44,"Duration":1253572,"SoundDuration":1253572,"Delta":84688327},{"NoteNumber":57,"Velocity":37,"Duration":1253572,"SoundDuration":1253572,"Delta":84688327},{"NoteNumber":62,"Velocity":37,"Duration":1253572,"SoundDuration":1253572,"Delta":84688327},{"NoteNumber":74,"Velocity":37,"Duration":410959,"SoundDuration":410959,"Delta":85119982},{"NoteNumber":65,"Velocity":37,"Duration":410958,"SoundDuration":410958,"Delta":85530941},{"NoteNumber":67,"Velocity":37,"Duration":425532,"SoundDuration":425532,"Delta":85941900},{"NoteNumber":76,"Velocity":37,"Duration":425532,"SoundDuration":425532,"Delta":85941900},{"NoteNumber":58,"Velocity":29,"Duration":425532,"SoundDuration":425532,"Delta":85941900},{"NoteNumber":65,"Velocity":40,"Duration":419580,"SoundDuration":419580,"Delta":86367432},{"NoteNumber":74,"Velocity":42,"Duration":1319161,"SoundDuration":1319161,"Delta":86367432},{"NoteNumber":57,"Velocity":34,"Duration":1845477,"SoundDuration":1845477,"Delta":86367432},{"NoteNumber":69,"Velocity":38,"Duration":419580,"SoundDuration":419580,"Delta":86787012},{"NoteNumber":62,"Velocity":37,"Duration":480000,"SoundDuration":480000,"Delta":87206593},{"NoteNumber":67,"Velocity":36,"Duration":526315,"SoundDuration":526315,"Delta":87686593},{"NoteNumber":69,"Velocity":36,"Duration":991432,"SoundDuration":991432,"Delta":87686593},{"NoteNumber":61,"Velocity":31,"Duration":526315,"SoundDuration":526315,"Delta":87686593},{"NoteNumber":64,"Velocity":31,"Duration":526315,"SoundDuration":526315,"Delta":87686593},{"NoteNumber":65,"Velocity":35,"Duration":973590,"SoundDuration":973590,"Delta":88212909},{"NoteNumber":62,"Velocity":36,"Duration":973590,"SoundDuration":973590,"Delta":88212909},{"NoteNumber":57,"Velocity":30,"Duration":465116,"SoundDuration":465116,"Delta":88212909},{"NoteNumber":58,"Velocity":30,"Duration":1074511,"SoundDuration":1074511,"Delta":88678025},{"NoteNumber":64,"Velocity":29,"Duration":1101751,"SoundDuration":1101751,"Delta":89186500},{"NoteNumber":67,"Velocity":30,"Duration":1101751,"SoundDuration":1101751,"Delta":89186500},{"NoteNumber":60,"Velocity":30,"Duration":566037,"SoundDuration":566037,"Delta":89186500},{"NoteNumber":48,"Velocity":32,"Duration":925324,"SoundDuration":925324,"Delta":89752537},{"NoteNumber":60,"Velocity":34,"Duration":389610,"SoundDuration":389610,"Delta":90288252},{"NoteNumber":65,"Velocity":46,"Duration":2504244,"SoundDuration":2504244,"Delta":90677862},{"NoteNumber":41,"Velocity":37,"Duration":4846072,"SoundDuration":4846072,"Delta":90677862},{"NoteNumber":53,"Velocity":23,"Duration":2693111,"SoundDuration":2693111,"Delta":91730494},{"NoteNumber":60,"Velocity":23,"Duration":2693111,"SoundDuration":2693111,"Delta":91730494},{"NoteNumber":48,"Velocity":19,"Duration":3793440,"SoundDuration":3793440,"Delta":91730494},{"NoteNumber":57,"Velocity":19,"Duration":3793440,"SoundDuration":3793440,"Delta":91730494},{"NoteNumber":64,"Velocity":40,"Duration":419580,"SoundDuration":419580,"Delta":93182107},{"NoteNumber":65,"Velocity":43,"Duration":410959,"SoundDuration":410959,"Delta":93601688},{"NoteNumber":69,"Velocity":44,"Duration":410958,"SoundDuration":410958,"Delta":94012647},{"NoteNumber":72,"Velocity":46,"Duration":468750,"SoundDuration":468750,"Delta":94423606},{"NoteNumber":77,"Velocity":46,"Duration":605263,"SoundDuration":605263,"Delta":94892356},{"NoteNumber":46,"Velocity":27,"Duration":184210,"SoundDuration":184210,"Delta":95208145},{"NoteNumber":53,"Velocity":31,"Duration":2922600,"SoundDuration":2922600,"Delta":95366040},{"NoteNumber":65,"Velocity":34,"Duration":3774249,"SoundDuration":3774249,"Delta":95523935},{"NoteNumber":77,"Velocity":45,"Duration":1764180,"SoundDuration":1764180,"Delta":95542317},{"NoteNumber":62,"Velocity":35,"Duration":1764180,"SoundDuration":1764180,"Delta":95542317},{"NoteNumber":60,"Velocity":29,"Duration":428571,"SoundDuration":428571,"Delta":97288641},{"NoteNumber":76,"Velocity":31,"Duration":432738,"SoundDuration":432738,"Delta":97301141},{"NoteNumber":58,"Velocity":27,"Duration":571428,"SoundDuration":571428,"Delta":97717212},{"NoteNumber":74,"Velocity":29,"Duration":559523,"SoundDuration":559523,"Delta":97729117},{"NoteNumber":72,"Velocity":37,"Duration":521738,"SoundDuration":521738,"Delta":98288641},{"NoteNumber":48,"Velocity":29,"Duration":1009543,"SoundDuration":1009543,"Delta":98288641},{"NoteNumber":57,"Velocity":29,"Duration":1009543,"SoundDuration":1009543,"Delta":98288641},{"NoteNumber":77,"Velocity":34,"Duration":487804,"SoundDuration":487804,"Delta":98810380},{"NoteNumber":64,"Velocity":37,"Duration":1743729,"SoundDuration":1743729,"Delta":99298185},{"NoteNumber":67,"Velocity":36,"Duration":428571,"SoundDuration":428571,"Delta":99298185},{"NoteNumber":58,"Velocity":33,"Duration":428571,"SoundDuration":428571,"Delta":99298185},{"NoteNumber":48,"Velocity":34,"Duration":1743729,"SoundDuration":1743729,"Delta":99298185},{"NoteNumber":69,"Velocity":36,"Duration":428571,"SoundDuration":428571,"Delta":99726756},{"NoteNumber":57,"Velocity":33,"Duration":428571,"SoundDuration":428571,"Delta":99726756},{"NoteNumber":70,"Velocity":41,"Duration":428571,"SoundDuration":428571,"Delta":100155328},{"NoteNumber":55,"Velocity":36,"Duration":886587,"SoundDuration":886587,"Delta":100155328},{"NoteNumber":74,"Velocity":34,"Duration":458015,"SoundDuration":458015,"Delta":100583899},{"NoteNumber":60,"Velocity":41,"Duration":2020374,"SoundDuration":2020374,"Delta":101041915},{"NoteNumber":65,"Velocity":41,"Duration":483870,"SoundDuration":483870,"Delta":101041915},{"NoteNumber":45,"Velocity":32,"Duration":483870,"SoundDuration":483870,"Delta":101041915},{"NoteNumber":53,"Velocity":32,"Duration":483870,"SoundDuration":483870,"Delta":101041915},{"NoteNumber":64,"Velocity":41,"Duration":483871,"SoundDuration":483871,"Delta":101525786},{"NoteNumber":67,"Velocity":41,"Duration":483871,"SoundDuration":483871,"Delta":101525786},{"NoteNumber":48,"Velocity":35,"Duration":483871,"SoundDuration":483871,"Delta":101525786},{"NoteNumber":55,"Velocity":35,"Duration":483871,"SoundDuration":483871,"Delta":101525786},{"NoteNumber":65,"Velocity":44,"Duration":526315,"SoundDuration":526315,"Delta":102009657},{"NoteNumber":69,"Velocity":44,"Duration":526315,"SoundDuration":526315,"Delta":102009657},{"NoteNumber":53,"Velocity":37,"Duration":1052632,"SoundDuration":1052632,"Delta":102009657},{"NoteNumber":57,"Velocity":37,"Duration":1052632,"SoundDuration":1052632,"Delta":102009657},{"NoteNumber":72,"Velocity":34,"Duration":526316,"SoundDuration":526316,"Delta":102535973},{"NoteNumber":60,"Velocity":40,"Duration":1667995,"SoundDuration":1667995,"Delta":103062289},{"NoteNumber":64,"Velocity":40,"Duration":1667995,"SoundDuration":1667995,"Delta":103062289},{"NoteNumber":67,"Velocity":40,"Duration":1667995,"SoundDuration":1667995,"Delta":103062289},{"NoteNumber":48,"Velocity":35,"Duration":487804,"SoundDuration":487804,"Delta":103062289},{"NoteNumber":55,"Velocity":35,"Duration":1667995,"SoundDuration":1667995,"Delta":103062289},{"NoteNumber":50,"Velocity":45,"Duration":410959,"SoundDuration":410959,"Delta":103550094},{"NoteNumber":48,"Velocity":42,"Duration":384615,"SoundDuration":384615,"Delta":103961053},{"NoteNumber":46,"Velocity":42,"Duration":384615,"SoundDuration":384615,"Delta":104345668},{"NoteNumber":43,"Velocity":43,"Duration":444444,"SoundDuration":444444,"Delta":104730284},{"NoteNumber":60,"Velocity":45,"Duration":899210,"SoundDuration":899210,"Delta":104767321},{"NoteNumber":45,"Velocity":43,"Duration":491803,"SoundDuration":491803,"Delta":105174728},{"NoteNumber":65,"Velocity":52,"Duration":2607485,"SoundDuration":2607485,"Delta":105666532},{"NoteNumber":41,"Velocity":41,"Duration":5266195,"SoundDuration":5266195,"Delta":105666532},{"NoteNumber":53,"Velocity":23,"Duration":2803198,"SoundDuration":2803198,"Delta":106798607},{"NoteNumber":60,"Velocity":23,"Duration":2803198,"SoundDuration":2803198,"Delta":106798607},{"NoteNumber":48,"Velocity":19,"Duration":4134120,"SoundDuration":4134120,"Delta":106798607},{"NoteNumber":57,"Velocity":19,"Duration":4134120,"SoundDuration":4134120,"Delta":106798607},{"NoteNumber":64,"Velocity":40,"Duration":425532,"SoundDuration":425532,"Delta":108274017},{"NoteNumber":65,"Velocity":43,"Duration":451127,"SoundDuration":451127,"Delta":108699549},{"NoteNumber":69,"Velocity":44,"Duration":451127,"SoundDuration":451127,"Delta":109150677},{"NoteNumber":72,"Velocity":46,"Duration":571428,"SoundDuration":571428,"Delta":109601805},{"NoteNumber":81,"Velocity":45,"Duration":727847,"SoundDuration":727847,"Delta":110173234},{"NoteNumber":74,"Velocity":29,"Duration":3213418,"SoundDuration":3213418,"Delta":110932727},{"NoteNumber":65,"Velocity":29,"Duration":3213418,"SoundDuration":3213418,"Delta":110932727},{"NoteNumber":81,"Velocity":32,"Duration":1894737,"SoundDuration":1894737,"Delta":110932727},{"NoteNumber":67,"Velocity":29,"Duration":3213418,"SoundDuration":3213418,"Delta":110932727},{"NoteNumber":43,"Velocity":26,"Duration":3213418,"SoundDuration":3213418,"Delta":110932727},{"NoteNumber":47,"Velocity":26,"Duration":3213418,"SoundDuration":3213418,"Delta":110932727},{"NoteNumber":59,"Velocity":26,"Duration":3213418,"SoundDuration":3213418,"Delta":110932727},{"NoteNumber":79,"Velocity":36,"Duration":428571,"SoundDuration":428571,"Delta":112827464},{"NoteNumber":77,"Velocity":36,"Duration":428571,"SoundDuration":428571,"Delta":113256036},{"NoteNumber":74,"Velocity":36,"Duration":461538,"SoundDuration":461538,"Delta":113684607},{"NoteNumber":72,"Velocity":39,"Duration":451127,"SoundDuration":451127,"Delta":114146146},{"NoteNumber":57,"Velocity":29,"Duration":902255,"SoundDuration":902255,"Delta":114146146},{"NoteNumber":48,"Velocity":29,"Duration":902255,"SoundDuration":902255,"Delta":114146146},{"NoteNumber":60,"Velocity":29,"Duration":902255,"SoundDuration":902255,"Delta":114146146},{"NoteNumber":77,"Velocity":35,"Duration":451127,"SoundDuration":451127,"Delta":114597274},{"NoteNumber":64,"Velocity":29,"Duration":1897975,"SoundDuration":1897975,"Delta":115048402},{"NoteNumber":67,"Velocity":36,"Duration":465116,"SoundDuration":465116,"Delta":115048402},{"NoteNumber":58,"Velocity":29,"Duration":465116,"SoundDuration":465116,"Delta":115048402},{"NoteNumber":60,"Velocity":29,"Duration":1897975,"SoundDuration":1897975,"Delta":115048402},{"NoteNumber":48,"Velocity":29,"Duration":1897975,"SoundDuration":1897975,"Delta":115048402},{"NoteNumber":69,"Velocity":36,"Duration":465116,"SoundDuration":465116,"Delta":115513518},{"NoteNumber":57,"Velocity":29,"Duration":465116,"SoundDuration":465116,"Delta":115513518},{"NoteNumber":70,"Velocity":43,"Duration":483870,"SoundDuration":483870,"Delta":115978635},{"NoteNumber":55,"Velocity":29,"Duration":967742,"SoundDuration":967742,"Delta":115978635},{"NoteNumber":74,"Velocity":34,"Duration":483871,"SoundDuration":483871,"Delta":116462506},{"NoteNumber":62,"Velocity":32,"Duration":2232224,"SoundDuration":2232224,"Delta":116946377},{"NoteNumber":67,"Velocity":32,"Duration":491803,"SoundDuration":491803,"Delta":116946377},{"NoteNumber":46,"Velocity":27,"Duration":491803,"SoundDuration":491803,"Delta":116946377},{"NoteNumber":55,"Velocity":27,"Duration":491803,"SoundDuration":491803,"Delta":116946377},{"NoteNumber":69,"Velocity":32,"Duration":540540,"SoundDuration":540540,"Delta":117438180},{"NoteNumber":66,"Velocity":32,"Duration":540540,"SoundDuration":540540,"Delta":117438180},{"NoteNumber":50,"Velocity":27,"Duration":540540,"SoundDuration":540540,"Delta":117438180},{"NoteNumber":57,"Velocity":27,"Duration":540540,"SoundDuration":540540,"Delta":117438180},{"NoteNumber":70,"Velocity":36,"Duration":540540,"SoundDuration":540540,"Delta":117978721},{"NoteNumber":58,"Velocity":32,"Duration":1199880,"SoundDuration":1199880,"Delta":117978721},{"NoteNumber":55,"Velocity":32,"Duration":1199880,"SoundDuration":1199880,"Delta":117978721},{"NoteNumber":74,"Velocity":33,"Duration":659340,"SoundDuration":659340,"Delta":118519261},{"NoteNumber":58,"Velocity":29,"Duration":2214095,"SoundDuration":2214095,"Delta":119178602},{"NoteNumber":62,"Velocity":29,"Duration":937500,"SoundDuration":937500,"Delta":119178602},{"NoteNumber":48,"Velocity":26,"Duration":7320477,"SoundDuration":7320477,"Delta":119178602},{"NoteNumber":55,"Velocity":26,"Duration":2214095,"SoundDuration":2214095,"Delta":119178602},{"NoteNumber":60,"Velocity":29,"Duration":6382977,"SoundDuration":6382977,"Delta":120116102},{"NoteNumber":64,"Velocity":29,"Duration":1276595,"SoundDuration":1276595,"Delta":120116102},{"NoteNumber":36,"Velocity":26,"Duration":1276595,"SoundDuration":1276595,"Delta":120116102},{"NoteNumber":57,"Velocity":29,"Duration":5106381,"SoundDuration":5106381,"Delta":121392697},{"NoteNumber":65,"Velocity":29,"Duration":5106381,"SoundDuration":5106381,"Delta":121392697},{"NoteNumber":41,"Velocity":26,"Duration":5106381,"SoundDuration":5106381,"Delta":121392697}],"license":{"name":"Creative Commons Attribution-ShareAlike 3.0 Germany","url":"http://creativecommons.org/licenses/by-sa/3.0/de/deed.en","text":"The MIDI, audio (MP3, OGG) and video files of Bernd Krueger are licensed under the cc-by-sa Germany License. This means that you can use and adapt the files, as long as you attribute the copyright holder.\n\nName: Bernd Krueger\nSource: http://www.piano-midi.de\n\nThe distribution or public playback of the files is only allowed under identical license conditions.\n\nThe scores are open source.","attribution":"MIDI files by Bernd Krueger (piano-midi.de)","attributionUrl":"http://www.piano-midi.de"}}