{"title":"Kinderszenen, Op. 15: No. 1 'Von fremden Ländern und Menschen'","artist":"Schumann","durationMs":79035,"midiSha256":"99cbd6091caaeee55d657dff1d093f4248959015e04eb84b7dc561b60b0b55a2","midiObject":[{"NoteNumber":71,"Velocity":55,"Duration":885469,"SoundDuration":885469,"Delta":0},{"NoteNumber":55,"Velocity":35,"Duration":438596,"SoundDuration":438596,"Delta":0},{"NoteNumber":59,"Velocity":35,"Duration":310672,"SoundDuration":310672,"Delta":0},{"NoteNumber":62,"Velocity":37,"Duration":310003,"SoundDuration":310003,"Delta":290570},{"NoteNumber":67,"Velocity":32,"Duration":281690,"SoundDuration":281690,"Delta":582968},{"NoteNumber":79,"Velocity":60,"Duration":893905,"SoundDuration":893905,"Delta":864658},{"NoteNumber":58,"Velocity":35,"Duration":321506,"SoundDuration":321506,"Delta":864658},{"NoteNumber":49,"Velocity":35,"Duration":453085,"SoundDuration":453085,"Delta":864658},{"NoteNumber":64,"Velocity":38,"Duration":318904,"SoundDuration":318904,"Delta":1167367},{"NoteNumber":67,"Velocity":32,"Duration":290444,"SoundDuration":290444,"Delta":1468119},{"NoteNumber":78,"Velocity":57,"Duration":670599,"SoundDuration":670599,"Delta":1758564},{"NoteNumber":57,"Velocity":35,"Duration":316237,"SoundDuration":316237,"Delta":1758564},{"NoteNumber":50,"Velocity":35,"Duration":440351,"SoundDuration":440351,"Delta":1758564},{"NoteNumber":62,"Velocity":37,"Duration":301418,"SoundDuration":301418,"Delta":2057071},{"NoteNumber":66,"Velocity":28,"Duration":280712,"SoundDuration":280712,"Delta":2340759},{"NoteNumber":76,"Velocity":37,"Duration":228172,"SoundDuration":228172,"Delta":2411681},{"NoteNumber":74,"Velocity":37,"Duration":869925,"SoundDuration":869925,"Delta":2621471},{"NoteNumber":60,"Velocity":27,"Duration":312500,"SoundDuration":312500,"Delta":2621471},{"NoteNumber":54,"Velocity":27,"Duration":441176,"SoundDuration":441176,"Delta":2621471},{"NoteNumber":62,"Velocity":27,"Duration":311723,"SoundDuration":311723,"Delta":2915589},{"NoteNumber":69,"Velocity":27,"Duration":281690,"SoundDuration":281690,"Delta":3209706},{"NoteNumber":71,"Velocity":55,"Duration":890158,"SoundDuration":890158,"Delta":3493235},{"NoteNumber":59,"Velocity":35,"Duration":312500,"SoundDuration":312500,"Delta":3493235},{"NoteNumber":55,"Velocity":35,"Duration":441176,"SoundDuration":441176,"Delta":3493235},{"NoteNumber":62,"Velocity":37,"Duration":311848,"SoundDuration":311848,"Delta":3785514},{"NoteNumber":67,"Velocity":32,"Duration":283687,"SoundDuration":283687,"Delta":4079632},{"NoteNumber":79,"Velocity":60,"Duration":869655,"SoundDuration":869655,"Delta":4363320},{"NoteNumber":49,"Velocity":35,"Duration":437955,"SoundDuration":437955,"Delta":4363320},{"NoteNumber":58,"Velocity":35,"Duration":310218,"SoundDuration":310218,"Delta":4363320},{"NoteNumber":64,"Velocity":38,"Duration":309827,"SoundDuration":309827,"Delta":4655290},{"NoteNumber":67,"Velocity":32,"Duration":285714,"SoundDuration":285714,"Delta":4947261},{"NoteNumber":78,"Velocity":57,"Duration":665969,"SoundDuration":665969,"Delta":5232975},{"NoteNumber":57,"Velocity":35,"Duration":311848,"SoundDuration":311848,"Delta":5232975},{"NoteNumber":50,"Velocity":35,"Duration":435961,"SoundDuration":435961,"Delta":5232975},{"NoteNumber":62,"Velocity":37,"Duration":301418,"SoundDuration":301418,"Delta":5527093},{"NoteNumber":66,"Velocity":29,"Duration":277818,"SoundDuration":277818,"Delta":5810781},{"NoteNumber":76,"Velocity":37,"Duration":225415,"SoundDuration":225415,"Delta":5881703},{"NoteNumber":74,"Velocity":37,"Duration":895623,"SoundDuration":895623,"Delta":6088600},{"NoteNumber":60,"Velocity":27,"Duration":314814,"SoundDuration":314814,"Delta":6088600},{"NoteNumber":54,"Velocity":27,"Duration":444444,"SoundDuration":444444,"Delta":6088600},{"NoteNumber":62,"Velocity":28,"Duration":315235,"SoundDuration":315235,"Delta":6384896},{"NoteNumber":69,"Velocity":28,"Duration":303030,"SoundDuration":303030,"Delta":6681192},{"NoteNumber":71,"Velocity":58,"Duration":903940,"SoundDuration":903940,"Delta":6986050},{"NoteNumber":55,"Velocity":35,"Duration":438596,"SoundDuration":438596,"Delta":6986050},{"NoteNumber":59,"Velocity":35,"Duration":310672,"SoundDuration":310672,"Delta":6986050},{"NoteNumber":62,"Velocity":37,"Duration":311194,"SoundDuration":311194,"Delta":7276620},{"NoteNumber":67,"Velocity":37,"Duration":300752,"SoundDuration":300752,"Delta":7569018},{"NoteNumber":79,"Velocity":60,"Duration":884663,"SoundDuration":884663,"Delta":7869770},{"NoteNumber":47,"Velocity":38,"Duration":441176,"SoundDuration":441176,"Delta":7869770},{"NoteNumber":55,"Velocity":38,"Duration":1176634,"SoundDuration":1176634,"Delta":7869770},{"NoteNumber":62,"Velocity":41,"Duration":312644,"SoundDuration":312644,"Delta":8163888},{"NoteNumber":67,"Velocity":41,"Duration":296428,"SoundDuration":296428,"Delta":8458005},{"NoteNumber":76,"Velocity":57,"Duration":664828,"SoundDuration":664828,"Delta":8754433},{"NoteNumber":48,"Velocity":38,"Duration":433814,"SoundDuration":433814,"Delta":8754433},{"NoteNumber":64,"Velocity":40,"Duration":301418,"SoundDuration":301418,"Delta":9046404},{"NoteNumber":67,"Velocity":40,"Duration":289899,"SoundDuration":289899,"Delta":9330092},{"NoteNumber":74,"Velocity":52,"Duration":237634,"SoundDuration":237634,"Delta":9401014},{"NoteNumber":72,"Velocity":49,"Duration":884784,"SoundDuration":884784,"Delta":9619992},{"NoteNumber":52,"Velocity":38,"Duration":447760,"SoundDuration":447760,"Delta":9619992},{"NoteNumber":55,"Velocity":38,"Duration":317164,"SoundDuration":317164,"Delta":9619992},{"NoteNumber":60,"Velocity":40,"Duration":316492,"SoundDuration":316492,"Delta":9918499},{"NoteNumber":67,"Velocity":40,"Duration":287769,"SoundDuration":287769,"Delta":10217007},{"NoteNumber":69,"Velocity":51,"Duration":928819,"SoundDuration":928819,"Delta":10504776},{"NoteNumber":50,"Velocity":28,"Duration":445775,"SoundDuration":445775,"Delta":10504776},{"NoteNumber":55,"Velocity":28,"Duration":313340,"SoundDuration":313340,"Delta":10504776},{"NoteNumber":60,"Velocity":32,"Duration":302709,"SoundDuration":302709,"Delta":10799197},{"NoteNumber":67,"Velocity":29,"Duration":312500,"SoundDuration":312500,"Delta":11101906},{"NoteNumber":74,"Velocity":48,"Duration":934832,"SoundDuration":934832,"Delta":11414406},{"NoteNumber":54,"Velocity":26,"Duration":326220,"SoundDuration":326220,"Delta":11414406},{"NoteNumber":50,"Velocity":26,"Duration":460546,"SoundDuration":460546,"Delta":11414406},{"NoteNumber":60,"Velocity":31,"Duration":307030,"SoundDuration":307030,"Delta":11721437},{"NoteNumber":69,"Velocity":26,"Duration":320770,"SoundDuration":320770,"Delta":12028468},{"NoteNumber":71,"Velocity":45,"Duration":1872285,"SoundDuration":1872285,"Delta":12349238},{"NoteNumber":43,"Velocity":24,"Duration":457247,"SoundDuration":457247,"Delta":12349238},{"NoteNumber":50,"Velocity":24,"Duration":323883,"SoundDuration":323883,"Delta":12349238},{"NoteNumber":59,"Velocity":28,"Duration":323883,"SoundDuration":323883,"Delta":12654070},{"NoteNumber":67,"Velocity":25,"Duration":304831,"SoundDuration":304831,"Delta":12958902},{"NoteNumber":55,"Velocity":26,"Duration":472440,"SoundDuration":472440,"Delta":13263733},{"NoteNumber":59,"Velocity":26,"Duration":335452,"SoundDuration":335452,"Delta":13578694},{"NoteNumber":67,"Velocity":21,"Duration":327868,"SoundDuration":327868,"Delta":13893655},{"NoteNumber":71,"Velocity":55,"Duration":890158,"SoundDuration":890158,"Delta":14223362},{"NoteNumber":59,"Velocity":35,"Duration":312500,"SoundDuration":312500,"Delta":14223362},{"NoteNumber":55,"Velocity":35,"Duration":441176,"SoundDuration":441176,"Delta":14223362},{"NoteNumber":62,"Velocity":37,"Duration":311848,"SoundDuration":311848,"Delta":14515641},{"NoteNumber":67,"Velocity":32,"Duration":283687,"SoundDuration":283687,"Delta":14809759},{"NoteNumber":79,"Velocity":60,"Duration":874385,"SoundDuration":874385,"Delta":15093447},{"NoteNumber":49,"Velocity":35,"Duration":437955,"SoundDuration":437955,"Delta":15093447},{"NoteNumber":58,"Velocity":35,"Duration":291970,"SoundDuration":291970,"Delta":15093447},{"NoteNumber":64,"Velocity":38,"Duration":310123,"SoundDuration":310123,"Delta":15385418},{"NoteNumber":67,"Velocity":32,"Duration":290444,"SoundDuration":290444,"Delta":15677388},{"NoteNumber":78,"Velocity":57,"Duration":683079,"SoundDuration":683079,"Delta":15967833},{"NoteNumber":50,"Velocity":35,"Duration":447957,"SoundDuration":447957,"Delta":15967833},{"NoteNumber":57,"Velocity":35,"Duration":321146,"SoundDuration":321146,"Delta":15967833},{"NoteNumber":62,"Velocity":37,"Duration":307970,"SoundDuration":307970,"Delta":16270863},{"NoteNumber":66,"Velocity":27,"Duration":285229,"SoundDuration":285229,"Delta":16560718},{"NoteNumber":76,"Velocity":38,"Duration":231148,"SoundDuration":231148,"Delta":16633182},{"NoteNumber":74,"Velocity":38,"Duration":869925,"SoundDuration":869925,"Delta":16845948},{"NoteNumber":54,"Velocity":27,"Duration":441176,"SoundDuration":441176,"Delta":16845948},{"NoteNumber":60,"Velocity":27,"Duration":312500,"SoundDuration":312500,"Delta":16845948},{"NoteNumber":62,"Velocity":27,"Duration":311723,"SoundDuration":311723,"Delta":17140065},{"NoteNumber":69,"Velocity":27,"Duration":281689,"SoundDuration":281689,"Delta":17434183},{"NoteNumber":71,"Velocity":55,"Duration":888160,"SoundDuration":888160,"Delta":17717711},{"NoteNumber":59,"Velocity":35,"Duration":312500,"SoundDuration":312500,"Delta":17717711},{"NoteNumber":55,"Velocity":35,"Duration":441176,"SoundDuration":441176,"Delta":17717711},{"NoteNumber":62,"Velocity":37,"Duration":311723,"SoundDuration":311723,"Delta":18009991},{"NoteNumber":67,"Velocity":32,"Duration":281689,"SoundDuration":281689,"Delta":18304108},{"NoteNumber":79,"Velocity":60,"Duration":873796,"SoundDuration":873796,"Delta":18585798},{"NoteNumber":49,"Velocity":35,"Duration":437955,"SoundDuration":437955,"Delta":18585798},{"NoteNumber":58,"Velocity":35,"Duration":310218,"SoundDuration":310218,"Delta":18585798},{"NoteNumber":64,"Velocity":38,"Duration":310086,"SoundDuration":310086,"Delta":18877769},{"NoteNumber":67,"Velocity":32,"Duration":289854,"SoundDuration":289854,"Delta":19169740},{"NoteNumber":78,"Velocity":57,"Duration":671788,"SoundDuration":671788,"Delta":19459595},{"NoteNumber":50,"Velocity":35,"Duration":438355,"SoundDuration":438355,"Delta":19459595},{"NoteNumber":57,"Velocity":35,"Duration":312456,"SoundDuration":312456,"Delta":19459595},{"NoteNumber":62,"Velocity":37,"Duration":305755,"SoundDuration":305755,"Delta":19754065},{"NoteNumber":66,"Velocity":28,"Duration":283209,"SoundDuration":283209,"Delta":20041835},{"NoteNumber":76,"Velocity":37,"Duration":229924,"SoundDuration":229924,"Delta":20113777},{"NoteNumber":74,"Velocity":37,"Duration":900044,"SoundDuration":900044,"Delta":20325045},{"NoteNumber":54,"Velocity":27,"Duration":447760,"SoundDuration":447760,"Delta":20325045},{"NoteNumber":60,"Velocity":27,"Duration":317164,"SoundDuration":317164,"Delta":20325045},{"NoteNumber":62,"Velocity":28,"Duration":317446,"SoundDuration":317446,"Delta":20623552},{"NoteNumber":69,"Velocity":27,"Duration":303030,"SoundDuration":303030,"Delta":20922059},{"NoteNumber":71,"Velocity":58,"Duration":904099,"SoundDuration":904099,"Delta":21226917},{"NoteNumber":59,"Velocity":35,"Duration":310672,"SoundDuration":310672,"Delta":21226917},{"NoteNumber":55,"Velocity":35,"Duration":438596,"SoundDuration":438596,"Delta":21226917},{"NoteNumber":62,"Velocity":37,"Duration":311194,"SoundDuration":311194,"Delta":21517487},{"NoteNumber":67,"Velocity":37,"Duration":300751,"SoundDuration":300751,"Delta":21809885},{"NoteNumber":79,"Velocity":60,"Duration":889284,"SoundDuration":889284,"Delta":22110637},{"NoteNumber":47,"Velocity":38,"Duration":444641,"SoundDuration":444641,"Delta":22110637},{"NoteNumber":55,"Velocity":38,"Duration":1181254,"SoundDuration":1181254,"Delta":22110637},{"NoteNumber":62,"Velocity":41,"Duration":314954,"SoundDuration":314954,"Delta":22407065},{"NoteNumber":67,"Velocity":41,"Duration":296427,"SoundDuration":296427,"Delta":22703493},{"NoteNumber":76,"Velocity":57,"Duration":667495,"SoundDuration":667495,"Delta":22999921},{"NoteNumber":48,"Velocity":38,"Duration":434827,"SoundDuration":434827,"Delta":22999921},{"NoteNumber":64,"Velocity":40,"Duration":303571,"SoundDuration":303571,"Delta":23291892},{"NoteNumber":67,"Velocity":40,"Duration":292016,"SoundDuration":292016,"Delta":23577606},{"NoteNumber":74,"Velocity":49,"Duration":239244,"SoundDuration":239244,"Delta":23649035},{"NoteNumber":72,"Velocity":49,"Duration":884784,"SoundDuration":884784,"Delta":23869623},{"NoteNumber":52,"Velocity":38,"Duration":447760,"SoundDuration":447760,"Delta":23869623},{"NoteNumber":55,"Velocity":38,"Duration":317164,"SoundDuration":317164,"Delta":23869623},{"NoteNumber":60,"Velocity":40,"Duration":316492,"SoundDuration":316492,"Delta":24168130},{"NoteNumber":67,"Velocity":40,"Duration":287769,"SoundDuration":287769,"Delta":24466638},{"NoteNumber":69,"Velocity":51,"Duration":929471,"SoundDuration":929471,"Delta":24754407},{"NoteNumber":50,"Velocity":28,"Duration":445775,"SoundDuration":445775,"Delta":24754407},{"NoteNumber":55,"Velocity":28,"Duration":313340,"SoundDuration":313340,"Delta":24754407},{"NoteNumber":60,"Velocity":32,"Duration":322240,"SoundDuration":322240,"Delta":25048828},{"NoteNumber":67,"Velocity":29,"Duration":312500,"SoundDuration":312500,"Delta":25351537},{"NoteNumber":74,"Velocity":48,"Duration":955690,"SoundDuration":955690,"Delta":25664037},{"NoteNumber":50,"Velocity":26,"Duration":476190,"SoundDuration":476190,"Delta":25664037},{"NoteNumber":54,"Velocity":26,"Duration":337301,"SoundDuration":337301,"Delta":25664037},{"NoteNumber":60,"Velocity":31,"Duration":337508,"SoundDuration":337508,"Delta":25981498},{"NoteNumber":69,"Velocity":26,"Duration":320769,"SoundDuration":320769,"Delta":26298958},{"NoteNumber":71,"Velocity":45,"Duration":1859376,"SoundDuration":1859376,"Delta":26619728},{"NoteNumber":43,"Velocity":24,"Duration":457247,"SoundDuration":457247,"Delta":26619728},{"NoteNumber":50,"Velocity":24,"Duration":323883,"SoundDuration":323883,"Delta":26619728},{"NoteNumber":59,"Velocity":28,"Duration":323883,"SoundDuration":323883,"Delta":26924560},{"NoteNumber":67,"Velocity":25,"Duration":304831,"SoundDuration":304831,"Delta":27229391},{"NoteNumber":55,"Velocity":26,"Duration":472440,"SoundDuration":472440,"Delta":27534223},{"NoteNumber":59,"Velocity":26,"Duration":334645,"SoundDuration":334645,"Delta":27849184},{"NoteNumber":67,"Velocity":21,"Duration":311023,"SoundDuration":311023,"Delta":28164144},{"NoteNumber":67,"Velocity":53,"Duration":875000,"SoundDuration":875000,"Delta":28479105},{"NoteNumber":71,"Velocity":53,"Duration":875000,"SoundDuration":875000,"Delta":28479105},{"NoteNumber":52,"Velocity":36,"Duration":857143,"SoundDuration":857143,"Delta":28479105},{"NoteNumber":59,"Velocity":36,"Duration":303571,"SoundDuration":303571,"Delta":28764819},{"NoteNumber":64,"Velocity":36,"Duration":285714,"SoundDuration":285714,"Delta":29050534},{"NoteNumber":69,"Velocity":51,"Duration":865546,"SoundDuration":865546,"Delta":29336248},{"NoteNumber":72,"Velocity":51,"Duration":865546,"SoundDuration":865546,"Delta":29336248},{"NoteNumber":45,"Velocity":36,"Duration":865546,"SoundDuration":865546,"Delta":29336248},{"NoteNumber":57,"Velocity":36,"Duration":304096,"SoundDuration":304096,"Delta":29621962},{"NoteNumber":64,"Velocity":36,"Duration":294117,"SoundDuration":294117,"Delta":29907677},{"NoteNumber":66,"Velocity":53,"Duration":875000,"SoundDuration":875000,"Delta":30201794},{"NoteNumber":69,"Velocity":53,"Duration":875000,"SoundDuration":875000,"Delta":30201794},{"NoteNumber":50,"Velocity":36,"Duration":642857,"SoundDuration":642857,"Delta":30201794},{"NoteNumber":57,"Velocity":39,"Duration":303571,"SoundDuration":303571,"Delta":30487509},{"NoteNumber":62,"Velocity":40,"Duration":285714,"SoundDuration":285714,"Delta":30773223},{"NoteNumber":48,"Velocity":46,"Duration":214285,"SoundDuration":214285,"Delta":30844652},{"NoteNumber":67,"Velocity":52,"Duration":857143,"SoundDuration":857143,"Delta":31058937},{"NoteNumber":71,"Velocity":52,"Duration":857143,"SoundDuration":857143,"Delta":31058937},{"NoteNumber":47,"Velocity":35,"Duration":857143,"SoundDuration":857143,"Delta":31058937},{"NoteNumber":55,"Velocity":35,"Duration":303571,"SoundDuration":303571,"Delta":31344652},{"NoteNumber":62,"Velocity":35,"Duration":285714,"SoundDuration":285714,"Delta":31630366},{"NoteNumber":64,"Velocity":48,"Duration":875912,"SoundDuration":875912,"Delta":31916080},{"NoteNumber":67,"Velocity":48,"Duration":894160,"SoundDuration":894160,"Delta":31916080},{"NoteNumber":48,"Velocity":27,"Duration":875912,"SoundDuration":875912,"Delta":31916080},{"NoteNumber":55,"Velocity":27,"Duration":310218,"SoundDuration":310218,"Delta":32208051},{"NoteNumber":60,"Velocity":27,"Duration":291970,"SoundDuration":291970,"Delta":32500022},{"NoteNumber":64,"Velocity":45,"Duration":875911,"SoundDuration":875911,"Delta":32791992},{"NoteNumber":69,"Velocity":45,"Duration":875911,"SoundDuration":875911,"Delta":32791992},{"NoteNumber":42,"Velocity":27,"Duration":875911,"SoundDuration":875911,"Delta":32791992},{"NoteNumber":54,"Velocity":27,"Duration":310218,"SoundDuration":310218,"Delta":33083963},{"NoteNumber":60,"Velocity":27,"Duration":291970,"SoundDuration":291970,"Delta":33375934},{"NoteNumber":63,"Velocity":44,"Duration":916030,"SoundDuration":916030,"Delta":33667904},{"NoteNumber":66,"Velocity":44,"Duration":916030,"SoundDuration":916030,"Delta":33667904},{"NoteNumber":47,"Velocity":27,"Duration":687023,"SoundDuration":687023,"Delta":33667904},{"NoteNumber":54,"Velocity":34,"Duration":324427,"SoundDuration":324427,"Delta":33973248},{"NoteNumber":59,"Velocity":34,"Duration":305343,"SoundDuration":305343,"Delta":34278592},{"NoteNumber":45,"Velocity":39,"Duration":229007,"SoundDuration":229007,"Delta":34354928},{"NoteNumber":62,"Velocity":40,"Duration":882353,"SoundDuration":882353,"Delta":34583935},{"NoteNumber":67,"Velocity":40,"Duration":882353,"SoundDuration":882353,"Delta":34583935},{"NoteNumber":43,"Velocity":27,"Duration":882353,"SoundDuration":882353,"Delta":34583935},{"NoteNumber":55,"Velocity":27,"Duration":312500,"SoundDuration":312500,"Delta":34878053},{"NoteNumber":59,"Velocity":27,"Duration":294117,"SoundDuration":294117,"Delta":35172171},{"NoteNumber":64,"Velocity":49,"Duration":900735,"SoundDuration":900735,"Delta":35466288},{"NoteNumber":48,"Velocity":31,"Duration":882352,"SoundDuration":882352,"Delta":35466288},{"NoteNumber":55,"Velocity":31,"Duration":312500,"SoundDuration":312500,"Delta":35760406},{"NoteNumber":60,"Velocity":31,"Duration":294117,"SoundDuration":294117,"Delta":36054524},{"NoteNumber":66,"Velocity":48,"Duration":882353,"SoundDuration":882353,"Delta":36348641},{"NoteNumber":48,"Velocity":31,"Duration":882353,"SoundDuration":882353,"Delta":36348641},{"NoteNumber":50,"Velocity":31,"Duration":312500,"SoundDuration":312500,"Delta":36348641},{"NoteNumber":57,"Velocity":31,"Duration":312500,"SoundDuration":312500,"Delta":36642759},{"NoteNumber":62,"Velocity":31,"Duration":294117,"SoundDuration":294117,"Delta":36936877},{"NoteNumber":67,"Velocity":52,"Duration":680848,"SoundDuration":680848,"Delta":37230994},{"NoteNumber":47,"Velocity":31,"Duration":661764,"SoundDuration":661764,"Delta":37230994},{"NoteNumber":50,"Velocity":31,"Duration":2105067,"SoundDuration":2105067,"Delta":37230994},{"NoteNumber":55,"Velocity":33,"Duration":294117,"SoundDuration":294117,"Delta":37525112},{"NoteNumber":62,"Velocity":34,"Duration":302537,"SoundDuration":302537,"Delta":37819230},{"NoteNumber":69,"Velocity":50,"Duration":262341,"SoundDuration":262341,"Delta":37892759},{"NoteNumber":45,"Velocity":40,"Duration":229007,"SoundDuration":229007,"Delta":37892759},{"NoteNumber":71,"Velocity":53,"Duration":983202,"SoundDuration":983202,"Delta":38121767},{"NoteNumber":43,"Velocity":31,"Duration":1214295,"SoundDuration":1214295,"Delta":38121767},{"NoteNumber":57,"Velocity":25,"Duration":680961,"SoundDuration":680961,"Delta":38655100},{"NoteNumber":62,"Velocity":25,"Duration":336134,"SoundDuration":336134,"Delta":38999928},{"NoteNumber":72,"Velocity":38,"Duration":252100,"SoundDuration":252100,"Delta":39083961},{"NoteNumber":74,"Velocity":44,"Duration":897087,"SoundDuration":897087,"Delta":39336062},{"NoteNumber":59,"Velocity":35,"Duration":317164,"SoundDuration":317164,"Delta":39337928},{"NoteNumber":55,"Velocity":35,"Duration":447760,"SoundDuration":447760,"Delta":39337928},{"NoteNumber":62,"Velocity":37,"Duration":316112,"SoundDuration":316112,"Delta":39634569},{"NoteNumber":67,"Velocity":32,"Duration":281690,"SoundDuration":281690,"Delta":39933077},{"NoteNumber":79,"Velocity":48,"Duration":869925,"SoundDuration":869925,"Delta":40214767},{"NoteNumber":49,"Velocity":35,"Duration":441176,"SoundDuration":441176,"Delta":40214767},{"NoteNumber":58,"Velocity":35,"Duration":312500,"SoundDuration":312500,"Delta":40214767},{"NoteNumber":64,"Velocity":38,"Duration":311723,"SoundDuration":311723,"Delta":40508884},{"NoteNumber":67,"Velocity":32,"Duration":281690,"SoundDuration":281690,"Delta":40803002},{"NoteNumber":78,"Velocity":48,"Duration":666596,"SoundDuration":666596,"Delta":41084692},{"NoteNumber":50,"Velocity":35,"Duration":434827,"SoundDuration":434827,"Delta":41084692},{"NoteNumber":57,"Velocity":35,"Duration":309827,"SoundDuration":309827,"Delta":41084692},{"NoteNumber":62,"Velocity":37,"Duration":303571,"SoundDuration":303571,"Delta":41376663},{"NoteNumber":66,"Velocity":29,"Duration":281218,"SoundDuration":281218,"Delta":41662377},{"NoteNumber":76,"Velocity":38,"Duration":228575,"SoundDuration":228575,"Delta":41733806},{"NoteNumber":74,"Velocity":38,"Duration":882832,"SoundDuration":882832,"Delta":41943596},{"NoteNumber":54,"Velocity":27,"Duration":450856,"SoundDuration":450856,"Delta":41943596},{"NoteNumber":60,"Velocity":27,"Duration":319356,"SoundDuration":319356,"Delta":41943596},{"NoteNumber":62,"Velocity":28,"Duration":318176,"SoundDuration":318176,"Delta":42244167},{"NoteNumber":69,"Velocity":25,"Duration":281690,"SoundDuration":281690,"Delta":42544738},{"NoteNumber":71,"Velocity":50,"Duration":890012,"SoundDuration":890012,"Delta":42828266},{"NoteNumber":59,"Velocity":35,"Duration":312500,"SoundDuration":312500,"Delta":42828266},{"NoteNumber":55,"Velocity":35,"Duration":441176,"SoundDuration":441176,"Delta":42828266},{"NoteNumber":62,"Velocity":37,"Duration":311848,"SoundDuration":311848,"Delta":43120546},{"NoteNumber":67,"Velocity":32,"Duration":283688,"SoundDuration":283688,"Delta":43414663},{"NoteNumber":79,"Velocity":56,"Duration":863398,"SoundDuration":863398,"Delta":43698351},{"NoteNumber":49,"Velocity":35,"Duration":434782,"SoundDuration":434782,"Delta":43698351},{"NoteNumber":58,"Velocity":35,"Duration":307970,"SoundDuration":307970,"Delta":43698351},{"NoteNumber":64,"Velocity":38,"Duration":307585,"SoundDuration":307585,"Delta":43988206},{"NoteNumber":67,"Velocity":32,"Duration":283688,"SoundDuration":283688,"Delta":44278061},{"NoteNumber":78,"Velocity":53,"Duration":664346,"SoundDuration":664346,"Delta":44561749},{"NoteNumber":50,"Velocity":35,"Duration":434962,"SoundDuration":434962,"Delta":44561749},{"NoteNumber":57,"Velocity":35,"Duration":311723,"SoundDuration":311723,"Delta":44561749},{"NoteNumber":62,"Velocity":37,"Duration":299295,"SoundDuration":299295,"Delta":44855867},{"NoteNumber":66,"Velocity":27,"Duration":287813,"SoundDuration":287813,"Delta":45137557},{"NoteNumber":76,"Velocity":38,"Duration":236047,"SoundDuration":236047,"Delta":45207979},{"NoteNumber":74,"Velocity":38,"Duration":900044,"SoundDuration":900044,"Delta":45425371},{"NoteNumber":54,"Velocity":26,"Duration":447760,"SoundDuration":447760,"Delta":45425371},{"NoteNumber":60,"Velocity":26,"Duration":317164,"SoundDuration":317164,"Delta":45425371},{"NoteNumber":62,"Velocity":28,"Duration":317446,"SoundDuration":317446,"Delta":45723878},{"NoteNumber":69,"Velocity":27,"Duration":303030,"SoundDuration":303030,"Delta":46022385},{"NoteNumber":71,"Velocity":58,"Duration":904099,"SoundDuration":904099,"Delta":46327243},{"NoteNumber":59,"Velocity":35,"Duration":310672,"SoundDuration":310672,"Delta":46327243},{"NoteNumber":55,"Velocity":35,"Duration":438596,"SoundDuration":438596,"Delta":46327243},{"NoteNumber":62,"Velocity":37,"Duration":311194,"SoundDuration":311194,"Delta":46617813},{"NoteNumber":67,"Velocity":37,"Duration":300752,"SoundDuration":300752,"Delta":46910211},{"NoteNumber":79,"Velocity":60,"Duration":889283,"SoundDuration":889283,"Delta":47210963},{"NoteNumber":47,"Velocity":38,"Duration":444642,"SoundDuration":444642,"Delta":47210963},{"NoteNumber":55,"Velocity":38,"Duration":1181254,"SoundDuration":1181254,"Delta":47210963},{"NoteNumber":62,"Velocity":41,"Duration":314954,"SoundDuration":314954,"Delta":47507391},{"NoteNumber":67,"Velocity":41,"Duration":296427,"SoundDuration":296427,"Delta":47803819},{"NoteNumber":76,"Velocity":57,"Duration":667361,"SoundDuration":667361,"Delta":48100247},{"NoteNumber":48,"Velocity":38,"Duration":434827,"SoundDuration":434827,"Delta":48100247},{"NoteNumber":64,"Velocity":40,"Duration":303571,"SoundDuration":303571,"Delta":48392218},{"NoteNumber":67,"Velocity":40,"Duration":290406,"SoundDuration":290406,"Delta":48677932},{"NoteNumber":74,"Velocity":52,"Duration":237634,"SoundDuration":237634,"Delta":48749361},{"NoteNumber":72,"Velocity":49,"Duration":884784,"SoundDuration":884784,"Delta":48968339},{"NoteNumber":52,"Velocity":38,"Duration":447760,"SoundDuration":447760,"Delta":48968339},{"NoteNumber":55,"Velocity":38,"Duration":317164,"SoundDuration":317164,"Delta":48968339},{"NoteNumber":60,"Velocity":40,"Duration":316492,"SoundDuration":316492,"Delta":49266846},{"NoteNumber":67,"Velocity":40,"Duration":287769,"SoundDuration":287769,"Delta":49565353},{"NoteNumber":69,"Velocity":51,"Duration":928819,"SoundDuration":928819,"Delta":49853123},{"NoteNumber":50,"Velocity":28,"Duration":445775,"SoundDuration":445775,"Delta":49853123},{"NoteNumber":55,"Velocity":28,"Duration":313340,"SoundDuration":313340,"Delta":49853123},{"NoteNumber":60,"Velocity":32,"Duration":322240,"SoundDuration":322240,"Delta":50147544},{"NoteNumber":67,"Velocity":29,"Duration":312500,"SoundDuration":312500,"Delta":50450253},{"NoteNumber":74,"Velocity":48,"Duration":934832,"SoundDuration":934832,"Delta":50762753},{"NoteNumber":50,"Velocity":26,"Duration":460546,"SoundDuration":460546,"Delta":50762753},{"NoteNumber":54,"Velocity":26,"Duration":326220,"SoundDuration":326220,"Delta":50762753},{"NoteNumber":60,"Velocity":31,"Duration":327079,"SoundDuration":327079,"Delta":51069784},{"NoteNumber":69,"Velocity":26,"Duration":320770,"SoundDuration":320770,"Delta":51376815},{"NoteNumber":71,"Velocity":45,"Duration":1911388,"SoundDuration":1911388,"Delta":51697585},{"NoteNumber":43,"Velocity":24,"Duration":1911388,"SoundDuration":1911388,"Delta":51697585},{"NoteNumber":50,"Velocity":24,"Duration":1911388,"SoundDuration":1911388,"Delta":51697585},{"NoteNumber":59,"Velocity":28,"Duration":924624,"SoundDuration":924624,"Delta":52002417},{"NoteNumber":67,"Velocity":25,"Duration":304831,"SoundDuration":304831,"Delta":52307248},{"NoteNumber":59,"Velocity":26,"Duration":314960,"SoundDuration":314960,"Delta":52927041},{"NoteNumber":67,"Velocity":21,"Duration":362385,"SoundDuration":362385,"Delta":53242001},{"NoteNumber":67,"Velocity":53,"Duration":875000,"SoundDuration":875000,"Delta":53608974},{"NoteNumber":71,"Velocity":53,"Duration":875000,"SoundDuration":875000,"Delta":53608974},{"NoteNumber":52,"Velocity":36,"Duration":857143,"SoundDuration":857143,"Delta":53608974},{"NoteNumber":59,"Velocity":36,"Duration":303571,"SoundDuration":303571,"Delta":53894688},{"NoteNumber":64,"Velocity":36,"Duration":285714,"SoundDuration":285714,"Delta":54180402},{"NoteNumber":69,"Velocity":51,"Duration":865546,"SoundDuration":865546,"Delta":54466117},{"NoteNumber":72,"Velocity":51,"Duration":865546,"SoundDuration":865546,"Delta":54466117},{"NoteNumber":45,"Velocity":36,"Duration":865546,"SoundDuration":865546,"Delta":54466117},{"NoteNumber":57,"Velocity":36,"Duration":304096,"SoundDuration":304096,"Delta":54751831},{"NoteNumber":64,"Velocity":36,"Duration":294117,"SoundDuration":294117,"Delta":55037545},{"NoteNumber":66,"Velocity":53,"Duration":875000,"SoundDuration":875000,"Delta":55331663},{"NoteNumber":69,"Velocity":53,"Duration":875000,"SoundDuration":875000,"Delta":55331663},{"NoteNumber":50,"Velocity":36,"Duration":642857,"SoundDuration":642857,"Delta":55331663},{"NoteNumber":57,"Velocity":41,"Duration":303571,"SoundDuration":303571,"Delta":55617377},{"NoteNumber":62,"Velocity":40,"Duration":285714,"SoundDuration":285714,"Delta":55903092},{"NoteNumber":48,"Velocity":48,"Duration":214285,"SoundDuration":214285,"Delta":55974520},{"NoteNumber":67,"Velocity":52,"Duration":857143,"SoundDuration":857143,"Delta":56188806},{"NoteNumber":71,"Velocity":52,"Duration":857143,"SoundDuration":857143,"Delta":56188806},{"NoteNumber":47,"Velocity":35,"Duration":857143,"SoundDuration":857143,"Delta":56188806},{"NoteNumber":55,"Velocity":35,"Duration":303571,"SoundDuration":303571,"Delta":56474520},{"NoteNumber":62,"Velocity":35,"Duration":285714,"SoundDuration":285714,"Delta":56760235},{"NoteNumber":64,"Velocity":48,"Duration":875911,"SoundDuration":875911,"Delta":57045949},{"NoteNumber":67,"Velocity":48,"Duration":894160,"SoundDuration":894160,"Delta":57045949},{"NoteNumber":48,"Velocity":27,"Duration":875911,"SoundDuration":875911,"Delta":57045949},{"NoteNumber":55,"Velocity":27,"Duration":310218,"SoundDuration":310218,"Delta":57337920},{"NoteNumber":60,"Velocity":27,"Duration":291970,"SoundDuration":291970,"Delta":57629890},{"NoteNumber":64,"Velocity":45,"Duration":875911,"SoundDuration":875911,"Delta":57921861},{"NoteNumber":69,"Velocity":45,"Duration":875911,"SoundDuration":875911,"Delta":57921861},{"NoteNumber":42,"Velocity":27,"Duration":875911,"SoundDuration":875911,"Delta":57921861},{"NoteNumber":54,"Velocity":27,"Duration":310218,"SoundDuration":310218,"Delta":58213832},{"NoteNumber":60,"Velocity":27,"Duration":291970,"SoundDuration":291970,"Delta":58505802},{"NoteNumber":63,"Velocity":44,"Duration":916030,"SoundDuration":916030,"Delta":58797773},{"NoteNumber":66,"Velocity":44,"Duration":916030,"SoundDuration":916030,"Delta":58797773},{"NoteNumber":47,"Velocity":27,"Duration":687023,"SoundDuration":687023,"Delta":58797773},{"NoteNumber":54,"Velocity":33,"Duration":324427,"SoundDuration":324427,"Delta":59103117},{"NoteNumber":59,"Velocity":34,"Duration":305343,"SoundDuration":305343,"Delta":59408460},{"NoteNumber":45,"Velocity":39,"Duration":229007,"SoundDuration":229007,"Delta":59484796},{"NoteNumber":62,"Velocity":40,"Duration":882353,"SoundDuration":882353,"Delta":59713804},{"NoteNumber":67,"Velocity":40,"Duration":882353,"SoundDuration":882353,"Delta":59713804},{"NoteNumber":43,"Velocity":27,"Duration":882353,"SoundDuration":882353,"Delta":59713804},{"NoteNumber":55,"Velocity":27,"Duration":312500,"SoundDuration":312500,"Delta":60007922},{"NoteNumber":59,"Velocity":27,"Duration":294117,"SoundDuration":294117,"Delta":60302039},{"NoteNumber":64,"Velocity":49,"Duration":900735,"SoundDuration":900735,"Delta":60596157},{"NoteNumber":48,"Velocity":31,"Duration":882352,"SoundDuration":882352,"Delta":60596157},{"NoteNumber":55,"Velocity":31,"Duration":312500,"SoundDuration":312500,"Delta":60890275},{"NoteNumber":60,"Velocity":31,"Duration":294117,"SoundDuration":294117,"Delta":61184392},{"NoteNumber":66,"Velocity":48,"Duration":882353,"SoundDuration":882353,"Delta":61478510},{"NoteNumber":48,"Velocity":31,"Duration":882353,"SoundDuration":882353,"Delta":61478510},{"NoteNumber":50,"Velocity":31,"Duration":312500,"SoundDuration":312500,"Delta":61478510},{"NoteNumber":57,"Velocity":31,"Duration":312500,"SoundDuration":312500,"Delta":61772628},{"NoteNumber":62,"Velocity":31,"Duration":294117,"SoundDuration":294117,"Delta":62066745},{"NoteNumber":67,"Velocity":52,"Duration":680848,"SoundDuration":680848,"Delta":62360863},{"NoteNumber":47,"Velocity":31,"Duration":661764,"SoundDuration":661764,"Delta":62360863},{"NoteNumber":50,"Velocity":31,"Duration":2105067,"SoundDuration":2105067,"Delta":62360863},{"NoteNumber":55,"Velocity":34,"Duration":294117,"SoundDuration":294117,"Delta":62654981},{"NoteNumber":62,"Velocity":34,"Duration":302537,"SoundDuration":302537,"Delta":62949098},{"NoteNumber":69,"Velocity":50,"Duration":229007,"SoundDuration":229007,"Delta":63022628},{"NoteNumber":45,"Velocity":39,"Duration":229007,"SoundDuration":229007,"Delta":63022628},{"NoteNumber":71,"Velocity":53,"Duration":983202,"SoundDuration":983202,"Delta":63251635},{"NoteNumber":43,"Velocity":31,"Duration":1214295,"SoundDuration":1214295,"Delta":63251635},{"NoteNumber":57,"Velocity":25,"Duration":680962,"SoundDuration":680962,"Delta":63784969},{"NoteNumber":62,"Velocity":25,"Duration":336134,"SoundDuration":336134,"Delta":64129796},{"NoteNumber":72,"Velocity":38,"Duration":252100,"SoundDuration":252100,"Delta":64213830},{"NoteNumber":74,"Velocity":44,"Duration":896952,"SoundDuration":896952,"Delta":64465931},{"NoteNumber":59,"Velocity":35,"Duration":317164,"SoundDuration":317164,"Delta":64467796},{"NoteNumber":55,"Velocity":35,"Duration":447760,"SoundDuration":447760,"Delta":64467796},{"NoteNumber":62,"Velocity":37,"Duration":316112,"SoundDuration":316112,"Delta":64764438},{"NoteNumber":67,"Velocity":32,"Duration":281689,"SoundDuration":281689,"Delta":65062945},{"NoteNumber":79,"Velocity":48,"Duration":865631,"SoundDuration":865631,"Delta":65344635},{"NoteNumber":49,"Velocity":35,"Duration":437955,"SoundDuration":437955,"Delta":65344635},{"NoteNumber":58,"Velocity":35,"Duration":310218,"SoundDuration":310218,"Delta":65344635},{"NoteNumber":64,"Velocity":38,"Duration":309576,"SoundDuration":309576,"Delta":65636606},{"NoteNumber":67,"Velocity":32,"Duration":281689,"SoundDuration":281689,"Delta":65928577},{"NoteNumber":78,"Velocity":48,"Duration":670478,"SoundDuration":670478,"Delta":66210267},{"NoteNumber":50,"Velocity":35,"Duration":440351,"SoundDuration":440351,"Delta":66210267},{"NoteNumber":57,"Velocity":35,"Duration":316237,"SoundDuration":316237,"Delta":66210267},{"NoteNumber":62,"Velocity":37,"Duration":301418,"SoundDuration":301418,"Delta":66508774},{"NoteNumber":66,"Velocity":27,"Duration":279255,"SoundDuration":279255,"Delta":66792462},{"NoteNumber":76,"Velocity":37,"Duration":227118,"SoundDuration":227118,"Delta":66863384},{"NoteNumber":74,"Velocity":37,"Duration":882832,"SoundDuration":882832,"Delta":67071717},{"NoteNumber":54,"Velocity":26,"Duration":450856,"SoundDuration":450856,"Delta":67071717},{"NoteNumber":60,"Velocity":26,"Duration":319356,"SoundDuration":319356,"Delta":67071717},{"NoteNumber":62,"Velocity":28,"Duration":318176,"SoundDuration":318176,"Delta":67372288},{"NoteNumber":69,"Velocity":27,"Duration":281689,"SoundDuration":281689,"Delta":67672859},{"NoteNumber":71,"Velocity":50,"Duration":890012,"SoundDuration":890012,"Delta":67956388},{"NoteNumber":59,"Velocity":35,"Duration":312500,"SoundDuration":312500,"Delta":67956388},{"NoteNumber":55,"Velocity":35,"Duration":441176,"SoundDuration":441176,"Delta":67956388},{"NoteNumber":62,"Velocity":37,"Duration":311848,"SoundDuration":311848,"Delta":68248667},{"NoteNumber":67,"Velocity":32,"Duration":283687,"SoundDuration":283687,"Delta":68542785},{"NoteNumber":79,"Velocity":56,"Duration":863398,"SoundDuration":863398,"Delta":68826473},{"NoteNumber":49,"Velocity":35,"Duration":434782,"SoundDuration":434782,"Delta":68826473},{"NoteNumber":58,"Velocity":35,"Duration":307970,"SoundDuration":307970,"Delta":68826473},{"NoteNumber":64,"Velocity":38,"Duration":307585,"SoundDuration":307585,"Delta":69116328},{"NoteNumber":67,"Velocity":32,"Duration":283687,"SoundDuration":283687,"Delta":69406183},{"NoteNumber":78,"Velocity":53,"Duration":661947,"SoundDuration":661947,"Delta":69689871},{"NoteNumber":50,"Velocity":35,"Duration":431699,"SoundDuration":431699,"Delta":69689871},{"NoteNumber":57,"Velocity":35,"Duration":307585,"SoundDuration":307585,"Delta":69689871},{"NoteNumber":62,"Velocity":37,"Duration":301418,"SoundDuration":301418,"Delta":69979726},{"NoteNumber":66,"Velocity":28,"Duration":280712,"SoundDuration":280712,"Delta":70263414},{"NoteNumber":76,"Velocity":38,"Duration":228446,"SoundDuration":228446,"Delta":70334336},{"NoteNumber":74,"Velocity":38,"Duration":900044,"SoundDuration":900044,"Delta":70544126},{"NoteNumber":54,"Velocity":27,"Duration":447760,"SoundDuration":447760,"Delta":70544126},{"NoteNumber":60,"Velocity":27,"Duration":317164,"SoundDuration":317164,"Delta":70544126},{"NoteNumber":62,"Velocity":28,"Duration":317446,"SoundDuration":317446,"Delta":70842633},{"NoteNumber":69,"Velocity":26,"Duration":303030,"SoundDuration":303030,"Delta":71141141},{"NoteNumber":71,"Velocity":58,"Duration":904099,"SoundDuration":904099,"Delta":71445998},{"NoteNumber":59,"Velocity":35,"Duration":310672,"SoundDuration":310672,"Delta":71445998},{"NoteNumber":55,"Velocity":35,"Duration":438596,"SoundDuration":438596,"Delta":71445998},{"NoteNumber":62,"Velocity":37,"Duration":311194,"SoundDuration":311194,"Delta":71736569},{"NoteNumber":67,"Velocity":37,"Duration":300752,"SoundDuration":300752,"Delta":72028966},{"NoteNumber":79,"Velocity":60,"Duration":889283,"SoundDuration":889283,"Delta":72329718},{"NoteNumber":47,"Velocity":38,"Duration":444642,"SoundDuration":444642,"Delta":72329718},{"NoteNumber":55,"Velocity":38,"Duration":1189854,"SoundDuration":1189854,"Delta":72329718},{"NoteNumber":62,"Velocity":41,"Duration":314954,"SoundDuration":314954,"Delta":72626146},{"NoteNumber":67,"Velocity":41,"Duration":296427,"SoundDuration":296427,"Delta":72922574},{"NoteNumber":76,"Velocity":57,"Duration":677888,"SoundDuration":677888,"Delta":73219002},{"NoteNumber":48,"Velocity":38,"Duration":444455,"SoundDuration":444455,"Delta":73219002},{"NoteNumber":64,"Velocity":40,"Duration":305755,"SoundDuration":305755,"Delta":73519573},{"NoteNumber":67,"Velocity":40,"Duration":283209,"SoundDuration":283209,"Delta":73807343},{"NoteNumber":74,"Velocity":52,"Duration":229924,"SoundDuration":229924,"Delta":73879285},{"NoteNumber":72,"Velocity":49,"Duration":884784,"SoundDuration":884784,"Delta":74090553},{"NoteNumber":52,"Velocity":38,"Duration":447760,"SoundDuration":447760,"Delta":74090553},{"NoteNumber":55,"Velocity":38,"Duration":317164,"SoundDuration":317164,"Delta":74090553},{"NoteNumber":60,"Velocity":40,"Duration":316492,"SoundDuration":316492,"Delta":74389060},{"NoteNumber":67,"Velocity":40,"Duration":287769,"SoundDuration":287769,"Delta":74687568},{"NoteNumber":69,"Velocity":51,"Duration":929161,"SoundDuration":929161,"Delta":74975337},{"NoteNumber":50,"Velocity":28,"Duration":445775,"SoundDuration":445775,"Delta":74975337},{"NoteNumber":55,"Velocity":28,"Duration":313339,"SoundDuration":313339,"Delta":74975337},{"NoteNumber":60,"Velocity":32,"Duration":322240,"SoundDuration":322240,"Delta":75269758},{"NoteNumber":67,"Velocity":29,"Duration":312500,"SoundDuration":312500,"Delta":75572467},{"NoteNumber":74,"Velocity":48,"Duration":945769,"SoundDuration":945769,"Delta":75884967},{"NoteNumber":50,"Velocity":26,"Duration":468750,"SoundDuration":468750,"Delta":75884967},{"NoteNumber":54,"Velocity":26,"Duration":332031,"SoundDuration":332031,"Delta":75884967},{"NoteNumber":60,"Velocity":31,"Duration":332548,"SoundDuration":332548,"Delta":76197467},{"NoteNumber":69,"Velocity":26,"Duration":320769,"SoundDuration":320769,"Delta":76509967},{"NoteNumber":71,"Velocity":45,"Duration":2204854,"SoundDuration":2204854,"Delta":76830737},{"NoteNumber":43,"Velocity":24,"Duration":2204854,"SoundDuration":2204854,"Delta":76830737},{"NoteNumber":50,"Velocity":24,"Duration":2204854,"SoundDuration":2204854,"Delta":76830737},{"NoteNumber":59,"Velocity":28,"Duration":1057532,"SoundDuration":1057532,"Delta":77153318},{"NoteNumber":67,"Velocity":25,"Duration":322580,"SoundDuration":322580,"Delta":77475899},{"NoteNumber":59,"Velocity":24,"Duration":438144,"SoundDuration":438144,"Delta":78210850},{"NoteNumber":67,"Velocity":19,"Duration":412370,"SoundDuration":412370,"Delta":78623221}],"license":{"name":"Creative Commons Attribution-ShareAlike 3.0 Germany","url":"http://creativecommons.org/licenses/by-sa/3.0/de/deed.en","text":"The MIDI files in this folder were downloaded from http://www.piano-midi.de and are licensed under the Creative Commons Attribution-ShareAlike 3.0 Germany license by Bernd Krueger.\n\nThe MIDI, audio(MP3, OGG) and video files of Bernd Krueger are licensed under the cc-by-sa Germany License . This means, that you can use and adapt the files, as long as you attribute to the copyright holder Name: Bernd Krueger Source: http://www.piano-midi.de The distribution or public playback of the files is only allowed under identical license conditions . The scores are open source.","attribution":"Bernd Krueger","attributionUrl":"http://www.piano-midi.de"}}