{"title":"Wichtige Begebenheit","artist":"Schumann","durationMs":46568,"midiSha256":"aab4201a7fc4f87ed1ebc1507ed3af61ebc3a871343acfa1fb0aec198dc70dc5","midiObject":[{"NoteNumber":73,"Velocity":90,"Duration":485711,"SoundDuration":485711,"Delta":0},{"NoteNumber":81,"Velocity":100,"Duration":485711,"SoundDuration":485711,"Delta":0},{"NoteNumber":76,"Velocity":90,"Duration":485711,"SoundDuration":485711,"Delta":0},{"NoteNumber":57,"Velocity":77,"Duration":121427,"SoundDuration":121427,"Delta":0},{"NoteNumber":45,"Velocity":69,"Duration":121427,"SoundDuration":121427,"Delta":0},{"NoteNumber":61,"Velocity":77,"Duration":121428,"SoundDuration":121428,"Delta":242856},{"NoteNumber":49,"Velocity":69,"Duration":121428,"SoundDuration":121428,"Delta":242856},{"NoteNumber":71,"Velocity":90,"Duration":364284,"SoundDuration":364284,"Delta":485712},{"NoteNumber":80,"Velocity":100,"Duration":364284,"SoundDuration":364284,"Delta":485712},{"NoteNumber":76,"Velocity":90,"Duration":364284,"SoundDuration":364284,"Delta":485712},{"NoteNumber":64,"Velocity":81,"Duration":364284,"SoundDuration":364284,"Delta":485712},{"NoteNumber":52,"Velocity":72,"Duration":364284,"SoundDuration":364284,"Delta":485712},{"NoteNumber":69,"Velocity":81,"Duration":121428,"SoundDuration":121428,"Delta":849996},{"NoteNumber":75,"Velocity":81,"Duration":121428,"SoundDuration":121428,"Delta":849996},{"NoteNumber":78,"Velocity":90,"Duration":121428,"SoundDuration":121428,"Delta":849996},{"NoteNumber":60,"Velocity":68,"Duration":121428,"SoundDuration":121428,"Delta":849996},{"NoteNumber":48,"Velocity":61,"Duration":121428,"SoundDuration":121428,"Delta":849996},{"NoteNumber":76,"Velocity":94,"Duration":465473,"SoundDuration":465473,"Delta":971424},{"NoteNumber":73,"Velocity":84,"Duration":465473,"SoundDuration":465473,"Delta":971424},{"NoteNumber":68,"Velocity":84,"Duration":465473,"SoundDuration":465473,"Delta":971424},{"NoteNumber":49,"Velocity":65,"Duration":465473,"SoundDuration":465473,"Delta":971424},{"NoteNumber":61,"Velocity":73,"Duration":465473,"SoundDuration":465473,"Delta":971424},{"NoteNumber":69,"Velocity":79,"Duration":465473,"SoundDuration":465473,"Delta":1457136},{"NoteNumber":73,"Velocity":79,"Duration":465473,"SoundDuration":465473,"Delta":1457136},{"NoteNumber":78,"Velocity":88,"Duration":465473,"SoundDuration":465473,"Delta":1457136},{"NoteNumber":45,"Velocity":63,"Duration":465473,"SoundDuration":465473,"Delta":1457136},{"NoteNumber":57,"Velocity":71,"Duration":465473,"SoundDuration":465473,"Delta":1457136},{"NoteNumber":75,"Velocity":89,"Duration":459632,"SoundDuration":459632,"Delta":1942848},{"NoteNumber":66,"Velocity":80,"Duration":459632,"SoundDuration":459632,"Delta":1942848},{"NoteNumber":71,"Velocity":80,"Duration":459632,"SoundDuration":459632,"Delta":1942848},{"NoteNumber":59,"Velocity":70,"Duration":459632,"SoundDuration":459632,"Delta":1942848},{"NoteNumber":47,"Velocity":63,"Duration":459632,"SoundDuration":459632,"Delta":1942848},{"NoteNumber":68,"Velocity":81,"Duration":355844,"SoundDuration":355844,"Delta":2422464},{"NoteNumber":71,"Velocity":81,"Duration":355844,"SoundDuration":355844,"Delta":2422464},{"NoteNumber":76,"Velocity":91,"Duration":355844,"SoundDuration":355844,"Delta":2422464},{"NoteNumber":52,"Velocity":68,"Duration":355844,"SoundDuration":355844,"Delta":2422464},{"NoteNumber":40,"Velocity":61,"Duration":355844,"SoundDuration":355844,"Delta":2422464},{"NoteNumber":74,"Velocity":91,"Duration":482901,"SoundDuration":482901,"Delta":2894344},{"NoteNumber":71,"Velocity":81,"Duration":482901,"SoundDuration":482901,"Delta":2894344},{"NoteNumber":66,"Velocity":91,"Duration":117942,"SoundDuration":117942,"Delta":2894344},{"NoteNumber":54,"Velocity":69,"Duration":117942,"SoundDuration":117942,"Delta":2894344},{"NoteNumber":42,"Velocity":62,"Duration":117942,"SoundDuration":117942,"Delta":2894344},{"NoteNumber":64,"Velocity":91,"Duration":123507,"SoundDuration":123507,"Delta":3130230},{"NoteNumber":56,"Velocity":69,"Duration":123507,"SoundDuration":123507,"Delta":3130230},{"NoteNumber":44,"Velocity":62,"Duration":123507,"SoundDuration":123507,"Delta":3130230},{"NoteNumber":64,"Velocity":82,"Duration":358223,"SoundDuration":358223,"Delta":3377245},{"NoteNumber":73,"Velocity":92,"Duration":358223,"SoundDuration":358223,"Delta":3377245},{"NoteNumber":69,"Velocity":82,"Duration":358223,"SoundDuration":358223,"Delta":3377245},{"NoteNumber":57,"Velocity":73,"Duration":358223,"SoundDuration":358223,"Delta":3377245},{"NoteNumber":45,"Velocity":65,"Duration":358223,"SoundDuration":358223,"Delta":3377245},{"NoteNumber":62,"Velocity":78,"Duration":119407,"SoundDuration":119407,"Delta":3735468},{"NoteNumber":68,"Velocity":78,"Duration":119407,"SoundDuration":119407,"Delta":3735468},{"NoteNumber":71,"Velocity":87,"Duration":119407,"SoundDuration":119407,"Delta":3735468},{"NoteNumber":53,"Velocity":65,"Duration":119407,"SoundDuration":119407,"Delta":3735468},{"NoteNumber":41,"Velocity":58,"Duration":119407,"SoundDuration":119407,"Delta":3735468},{"NoteNumber":69,"Velocity":87,"Duration":457729,"SoundDuration":457729,"Delta":3854876},{"NoteNumber":66,"Velocity":78,"Duration":457729,"SoundDuration":457729,"Delta":3854876},{"NoteNumber":61,"Velocity":78,"Duration":457729,"SoundDuration":457729,"Delta":3854876},{"NoteNumber":42,"Velocity":58,"Duration":457729,"SoundDuration":457729,"Delta":3854876},{"NoteNumber":54,"Velocity":65,"Duration":457729,"SoundDuration":457729,"Delta":3854876},{"NoteNumber":62,"Velocity":81,"Duration":465474,"SoundDuration":465474,"Delta":4332507},{"NoteNumber":66,"Velocity":81,"Duration":465474,"SoundDuration":465474,"Delta":4332507},{"NoteNumber":71,"Velocity":90,"Duration":465474,"SoundDuration":465474,"Delta":4332507},{"NoteNumber":38,"Velocity":61,"Duration":465474,"SoundDuration":465474,"Delta":4332507},{"NoteNumber":50,"Velocity":68,"Duration":465474,"SoundDuration":465474,"Delta":4332507},{"NoteNumber":68,"Velocity":87,"Duration":461587,"SoundDuration":461587,"Delta":4818219},{"NoteNumber":59,"Velocity":78,"Duration":461587,"SoundDuration":461587,"Delta":4818219},{"NoteNumber":64,"Velocity":78,"Duration":461587,"SoundDuration":461587,"Delta":4818219},{"NoteNumber":52,"Velocity":64,"Duration":461587,"SoundDuration":461587,"Delta":4818219},{"NoteNumber":40,"Velocity":57,"Duration":461587,"SoundDuration":461587,"Delta":4818219},{"NoteNumber":61,"Velocity":78,"Duration":361242,"SoundDuration":361242,"Delta":5299876},{"NoteNumber":64,"Velocity":78,"Duration":361242,"SoundDuration":361242,"Delta":5299876},{"NoteNumber":69,"Velocity":87,"Duration":361242,"SoundDuration":361242,"Delta":5299876},{"NoteNumber":45,"Velocity":64,"Duration":361242,"SoundDuration":361242,"Delta":5299876},{"NoteNumber":33,"Velocity":57,"Duration":361242,"SoundDuration":361242,"Delta":5299876},{"NoteNumber":64,"Velocity":76,"Duration":477630,"SoundDuration":477630,"Delta":5781533},{"NoteNumber":61,"Velocity":76,"Duration":477630,"SoundDuration":477630,"Delta":5781533},{"NoteNumber":69,"Velocity":85,"Duration":477630,"SoundDuration":477630,"Delta":5781533},{"NoteNumber":45,"Velocity":65,"Duration":119407,"SoundDuration":119407,"Delta":5781533},{"NoteNumber":33,"Velocity":58,"Duration":119407,"SoundDuration":119407,"Delta":5781533},{"NoteNumber":37,"Velocity":58,"Duration":119407,"SoundDuration":119407,"Delta":6020349},{"NoteNumber":49,"Velocity":65,"Duration":119407,"SoundDuration":119407,"Delta":6020349},{"NoteNumber":59,"Velocity":76,"Duration":358223,"SoundDuration":358223,"Delta":6259164},{"NoteNumber":64,"Velocity":85,"Duration":358223,"SoundDuration":358223,"Delta":6259164},{"NoteNumber":68,"Velocity":85,"Duration":358223,"SoundDuration":358223,"Delta":6259164},{"NoteNumber":40,"Velocity":61,"Duration":358223,"SoundDuration":358223,"Delta":6259164},{"NoteNumber":52,"Velocity":68,"Duration":358223,"SoundDuration":358223,"Delta":6259164},{"NoteNumber":63,"Velocity":76,"Duration":119407,"SoundDuration":119407,"Delta":6617387},{"NoteNumber":57,"Velocity":68,"Duration":119407,"SoundDuration":119407,"Delta":6617387},{"NoteNumber":66,"Velocity":76,"Duration":119407,"SoundDuration":119407,"Delta":6617387},{"NoteNumber":36,"Velocity":51,"Duration":119407,"SoundDuration":119407,"Delta":6617387},{"NoteNumber":48,"Velocity":57,"Duration":119407,"SoundDuration":119407,"Delta":6617387},{"NoteNumber":56,"Velocity":71,"Duration":465473,"SoundDuration":465473,"Delta":6736795},{"NoteNumber":64,"Velocity":79,"Duration":465473,"SoundDuration":465473,"Delta":6736795},{"NoteNumber":61,"Velocity":71,"Duration":465473,"SoundDuration":465473,"Delta":6736795},{"NoteNumber":37,"Velocity":55,"Duration":465473,"SoundDuration":465473,"Delta":6736795},{"NoteNumber":49,"Velocity":62,"Duration":465473,"SoundDuration":465473,"Delta":6736795},{"NoteNumber":61,"Velocity":66,"Duration":465474,"SoundDuration":465474,"Delta":7222507},{"NoteNumber":57,"Velocity":66,"Duration":465474,"SoundDuration":465474,"Delta":7222507},{"NoteNumber":66,"Velocity":74,"Duration":465474,"SoundDuration":465474,"Delta":7222507},{"NoteNumber":33,"Velocity":54,"Duration":465474,"SoundDuration":465474,"Delta":7222507},{"NoteNumber":45,"Velocity":60,"Duration":465474,"SoundDuration":465474,"Delta":7222507},{"NoteNumber":54,"Velocity":67,"Duration":459631,"SoundDuration":459631,"Delta":7708219},{"NoteNumber":63,"Velocity":75,"Duration":459631,"SoundDuration":459631,"Delta":7708219},{"NoteNumber":59,"Velocity":67,"Duration":459631,"SoundDuration":459631,"Delta":7708219},{"NoteNumber":35,"Velocity":53,"Duration":459631,"SoundDuration":459631,"Delta":7708219},{"NoteNumber":47,"Velocity":59,"Duration":459631,"SoundDuration":459631,"Delta":7708219},{"NoteNumber":56,"Velocity":69,"Duration":355844,"SoundDuration":355844,"Delta":8187835},{"NoteNumber":59,"Velocity":69,"Duration":355844,"SoundDuration":355844,"Delta":8187835},{"NoteNumber":64,"Velocity":77,"Duration":355844,"SoundDuration":355844,"Delta":8187835},{"NoteNumber":28,"Velocity":51,"Duration":355844,"SoundDuration":355844,"Delta":8187835},{"NoteNumber":40,"Velocity":57,"Duration":355844,"SoundDuration":355844,"Delta":8187835},{"NoteNumber":62,"Velocity":74,"Duration":482901,"SoundDuration":482901,"Delta":8659716},{"NoteNumber":59,"Velocity":66,"Duration":482901,"SoundDuration":482901,"Delta":8659716},{"NoteNumber":54,"Velocity":74,"Duration":117943,"SoundDuration":117943,"Delta":8659716},{"NoteNumber":42,"Velocity":54,"Duration":117943,"SoundDuration":117943,"Delta":8659716},{"NoteNumber":30,"Velocity":48,"Duration":117943,"SoundDuration":117943,"Delta":8659716},{"NoteNumber":52,"Velocity":74,"Duration":123507,"SoundDuration":123507,"Delta":8895602},{"NoteNumber":32,"Velocity":48,"Duration":123507,"SoundDuration":123507,"Delta":8895602},{"NoteNumber":44,"Velocity":54,"Duration":123507,"SoundDuration":123507,"Delta":8895602},{"NoteNumber":52,"Velocity":68,"Duration":358223,"SoundDuration":358223,"Delta":9142617},{"NoteNumber":57,"Velocity":76,"Duration":358223,"SoundDuration":358223,"Delta":9142617},{"NoteNumber":61,"Velocity":76,"Duration":358223,"SoundDuration":358223,"Delta":9142617},{"NoteNumber":33,"Velocity":57,"Duration":358223,"SoundDuration":358223,"Delta":9142617},{"NoteNumber":45,"Velocity":57,"Duration":358223,"SoundDuration":358223,"Delta":9142617},{"NoteNumber":56,"Velocity":60,"Duration":119407,"SoundDuration":119407,"Delta":9500840},{"NoteNumber":50,"Velocity":60,"Duration":119407,"SoundDuration":119407,"Delta":9500840},{"NoteNumber":59,"Velocity":67,"Duration":119407,"SoundDuration":119407,"Delta":9500840},{"NoteNumber":29,"Velocity":43,"Duration":119407,"SoundDuration":119407,"Delta":9500840},{"NoteNumber":41,"Velocity":48,"Duration":119407,"SoundDuration":119407,"Delta":9500840},{"NoteNumber":49,"Velocity":60,"Duration":457729,"SoundDuration":457729,"Delta":9620248},{"NoteNumber":57,"Velocity":67,"Duration":457729,"SoundDuration":457729,"Delta":9620248},{"NoteNumber":54,"Velocity":60,"Duration":457729,"SoundDuration":457729,"Delta":9620248},{"NoteNumber":30,"Velocity":43,"Duration":457729,"SoundDuration":457729,"Delta":9620248},{"NoteNumber":42,"Velocity":48,"Duration":457729,"SoundDuration":457729,"Delta":9620248},{"NoteNumber":54,"Velocity":63,"Duration":457729,"SoundDuration":457729,"Delta":10097879},{"NoteNumber":50,"Velocity":63,"Duration":457729,"SoundDuration":457729,"Delta":10097879},{"NoteNumber":59,"Velocity":71,"Duration":457729,"SoundDuration":457729,"Delta":10097879},{"NoteNumber":26,"Velocity":44,"Duration":457729,"SoundDuration":457729,"Delta":10097879},{"NoteNumber":38,"Velocity":49,"Duration":457729,"SoundDuration":457729,"Delta":10097879},{"NoteNumber":47,"Velocity":60,"Duration":465474,"SoundDuration":465474,"Delta":10575510},{"NoteNumber":56,"Velocity":67,"Duration":465474,"SoundDuration":465474,"Delta":10575510},{"NoteNumber":52,"Velocity":60,"Duration":465474,"SoundDuration":465474,"Delta":10575510},{"NoteNumber":28,"Velocity":41,"Duration":465474,"SoundDuration":465474,"Delta":10575510},{"NoteNumber":40,"Velocity":46,"Duration":465474,"SoundDuration":465474,"Delta":10575510},{"NoteNumber":49,"Velocity":56,"Duration":364284,"SoundDuration":364284,"Delta":11061222},{"NoteNumber":52,"Velocity":56,"Duration":364284,"SoundDuration":364284,"Delta":11061222},{"NoteNumber":57,"Velocity":63,"Duration":364284,"SoundDuration":364284,"Delta":11061222},{"NoteNumber":33,"Velocity":36,"Duration":364284,"SoundDuration":364284,"Delta":11061222},{"NoteNumber":40,"Velocity":41,"Duration":364284,"SoundDuration":364284,"Delta":11061222},{"NoteNumber":57,"Velocity":66,"Duration":455788,"SoundDuration":455788,"Delta":11546934},{"NoteNumber":61,"Velocity":66,"Duration":455788,"SoundDuration":455788,"Delta":11546934},{"NoteNumber":64,"Velocity":66,"Duration":455788,"SoundDuration":455788,"Delta":11546934},{"NoteNumber":69,"Velocity":74,"Duration":455788,"SoundDuration":455788,"Delta":11546934},{"NoteNumber":33,"Velocity":67,"Duration":113947,"SoundDuration":113947,"Delta":11546934},{"NoteNumber":45,"Velocity":75,"Duration":113947,"SoundDuration":113947,"Delta":11546934},{"NoteNumber":49,"Velocity":75,"Duration":113947,"SoundDuration":113947,"Delta":11774828},{"NoteNumber":57,"Velocity":72,"Duration":947474,"SoundDuration":947474,"Delta":12002723},{"NoteNumber":62,"Velocity":72,"Duration":947474,"SoundDuration":947474,"Delta":12002723},{"NoteNumber":66,"Velocity":72,"Duration":947474,"SoundDuration":947474,"Delta":12002723},{"NoteNumber":69,"Velocity":80,"Duration":947474,"SoundDuration":947474,"Delta":12002723},{"NoteNumber":38,"Velocity":81,"Duration":113947,"SoundDuration":113947,"Delta":12002723},{"NoteNumber":50,"Velocity":91,"Duration":113947,"SoundDuration":113947,"Delta":12002723},{"NoteNumber":33,"Velocity":72,"Duration":117536,"SoundDuration":117536,"Delta":12230617},{"NoteNumber":45,"Velocity":81,"Duration":117536,"SoundDuration":117536,"Delta":12230617},{"NoteNumber":31,"Velocity":72,"Duration":119894,"SoundDuration":119894,"Delta":12465690},{"NoteNumber":43,"Velocity":81,"Duration":119894,"SoundDuration":119894,"Delta":12465690},{"NoteNumber":30,"Velocity":72,"Duration":122358,"SoundDuration":122358,"Delta":12705479},{"NoteNumber":42,"Velocity":81,"Duration":122358,"SoundDuration":122358,"Delta":12705479},{"NoteNumber":57,"Velocity":64,"Duration":466454,"SoundDuration":466454,"Delta":12950197},{"NoteNumber":62,"Velocity":64,"Duration":466454,"SoundDuration":466454,"Delta":12950197},{"NoteNumber":66,"Velocity":64,"Duration":466454,"SoundDuration":466454,"Delta":12950197},{"NoteNumber":69,"Velocity":72,"Duration":466454,"SoundDuration":466454,"Delta":12950197},{"NoteNumber":30,"Velocity":78,"Duration":466454,"SoundDuration":466454,"Delta":12950197},{"NoteNumber":42,"Velocity":87,"Duration":466454,"SoundDuration":466454,"Delta":12950197},{"NoteNumber":71,"Velocity":79,"Duration":939771,"SoundDuration":939771,"Delta":13416651},{"NoteNumber":62,"Velocity":71,"Duration":939771,"SoundDuration":939771,"Delta":13416651},{"NoteNumber":64,"Velocity":71,"Duration":939771,"SoundDuration":939771,"Delta":13416651},{"NoteNumber":67,"Velocity":71,"Duration":939771,"SoundDuration":939771,"Delta":13416651},{"NoteNumber":38,"Velocity":81,"Duration":113947,"SoundDuration":113947,"Delta":13416651},{"NoteNumber":50,"Velocity":90,"Duration":113947,"SoundDuration":113947,"Delta":13416651},{"NoteNumber":35,"Velocity":70,"Duration":116613,"SoundDuration":116613,"Delta":13644546},{"NoteNumber":47,"Velocity":78,"Duration":116613,"SoundDuration":116613,"Delta":13644546},{"NoteNumber":33,"Velocity":69,"Duration":118464,"SoundDuration":118464,"Delta":13877773},{"NoteNumber":45,"Velocity":77,"Duration":118464,"SoundDuration":118464,"Delta":13877773},{"NoteNumber":31,"Velocity":69,"Duration":120860,"SoundDuration":120860,"Delta":14114702},{"NoteNumber":43,"Velocity":77,"Duration":120860,"SoundDuration":120860,"Delta":14114702},{"NoteNumber":62,"Velocity":64,"Duration":468273,"SoundDuration":468273,"Delta":14356423},{"NoteNumber":64,"Velocity":64,"Duration":468273,"SoundDuration":468273,"Delta":14356423},{"NoteNumber":67,"Velocity":64,"Duration":468273,"SoundDuration":468273,"Delta":14356423},{"NoteNumber":71,"Velocity":72,"Duration":468273,"SoundDuration":468273,"Delta":14356423},{"NoteNumber":31,"Velocity":77,"Duration":468273,"SoundDuration":468273,"Delta":14356423},{"NoteNumber":43,"Velocity":86,"Duration":468273,"SoundDuration":468273,"Delta":14356423},{"NoteNumber":55,"Velocity":55,"Duration":228763,"SoundDuration":228763,"Delta":14824697},{"NoteNumber":57,"Velocity":55,"Duration":228763,"SoundDuration":228763,"Delta":14824697},{"NoteNumber":61,"Velocity":55,"Duration":228763,"SoundDuration":228763,"Delta":14824697},{"NoteNumber":64,"Velocity":62,"Duration":228763,"SoundDuration":228763,"Delta":14824697},{"NoteNumber":33,"Velocity":78,"Duration":114381,"SoundDuration":114381,"Delta":14824697},{"NoteNumber":45,"Velocity":87,"Duration":114381,"SoundDuration":114381,"Delta":14824697},{"NoteNumber":28,"Velocity":69,"Duration":114381,"SoundDuration":114381,"Delta":15053460},{"NoteNumber":40,"Velocity":77,"Duration":114381,"SoundDuration":114381,"Delta":15053460},{"NoteNumber":55,"Velocity":55,"Duration":236929,"SoundDuration":236929,"Delta":15282223},{"NoteNumber":57,"Velocity":55,"Duration":236929,"SoundDuration":236929,"Delta":15282223},{"NoteNumber":61,"Velocity":55,"Duration":236929,"SoundDuration":236929,"Delta":15282223},{"NoteNumber":64,"Velocity":62,"Duration":236929,"SoundDuration":236929,"Delta":15282223},{"NoteNumber":26,"Velocity":69,"Duration":118464,"SoundDuration":118464,"Delta":15282223},{"NoteNumber":38,"Velocity":77,"Duration":118464,"SoundDuration":118464,"Delta":15282223},{"NoteNumber":25,"Velocity":69,"Duration":118464,"SoundDuration":118464,"Delta":15519152},{"NoteNumber":37,"Velocity":77,"Duration":118464,"SoundDuration":118464,"Delta":15519152},{"NoteNumber":55,"Velocity":55,"Duration":232323,"SoundDuration":232323,"Delta":15756082},{"NoteNumber":57,"Velocity":55,"Duration":232323,"SoundDuration":232323,"Delta":15756082},{"NoteNumber":61,"Velocity":55,"Duration":232323,"SoundDuration":232323,"Delta":15756082},{"NoteNumber":64,"Velocity":62,"Duration":232323,"SoundDuration":232323,"Delta":15756082},{"NoteNumber":25,"Velocity":75,"Duration":464648,"SoundDuration":464648,"Delta":15756082},{"NoteNumber":37,"Velocity":84,"Duration":464648,"SoundDuration":464648,"Delta":15756082},{"NoteNumber":60,"Velocity":64,"Duration":1407099,"SoundDuration":1407099,"Delta":16220730},{"NoteNumber":62,"Velocity":64,"Duration":1407099,"SoundDuration":1407099,"Delta":16220730},{"NoteNumber":69,"Velocity":72,"Duration":1407099,"SoundDuration":1407099,"Delta":16220730},{"NoteNumber":38,"Velocity":81,"Duration":113947,"SoundDuration":113947,"Delta":16220730},{"NoteNumber":50,"Velocity":90,"Duration":113947,"SoundDuration":113947,"Delta":16220730},{"NoteNumber":33,"Velocity":71,"Duration":115714,"SoundDuration":115714,"Delta":16448625},{"NoteNumber":45,"Velocity":79,"Duration":115714,"SoundDuration":115714,"Delta":16448625},{"NoteNumber":31,"Velocity":71,"Duration":117536,"SoundDuration":117536,"Delta":16680053},{"NoteNumber":43,"Velocity":79,"Duration":117536,"SoundDuration":117536,"Delta":16680053},{"NoteNumber":30,"Velocity":71,"Duration":117536,"SoundDuration":117536,"Delta":16915126},{"NoteNumber":42,"Velocity":79,"Duration":117536,"SoundDuration":117536,"Delta":16915126},{"NoteNumber":30,"Velocity":76,"Duration":477630,"SoundDuration":477630,"Delta":17150199},{"NoteNumber":42,"Velocity":85,"Duration":477630,"SoundDuration":477630,"Delta":17150199},{"NoteNumber":55,"Velocity":53,"Duration":228146,"SoundDuration":228146,"Delta":17627830},{"NoteNumber":60,"Velocity":53,"Duration":228146,"SoundDuration":228146,"Delta":17627830},{"NoteNumber":62,"Velocity":59,"Duration":228146,"SoundDuration":228146,"Delta":17627830},{"NoteNumber":31,"Velocity":64,"Duration":113842,"SoundDuration":113842,"Delta":17627830},{"NoteNumber":43,"Velocity":72,"Duration":113842,"SoundDuration":113842,"Delta":17627830},{"NoteNumber":33,"Velocity":66,"Duration":114303,"SoundDuration":114303,"Delta":17855976},{"NoteNumber":45,"Velocity":74,"Duration":114303,"SoundDuration":114303,"Delta":17855976},{"NoteNumber":55,"Velocity":55,"Duration":228606,"SoundDuration":228606,"Delta":18084582},{"NoteNumber":60,"Velocity":55,"Duration":228606,"SoundDuration":228606,"Delta":18084582},{"NoteNumber":62,"Velocity":62,"Duration":228606,"SoundDuration":228606,"Delta":18084582},{"NoteNumber":35,"Velocity":69,"Duration":114303,"SoundDuration":114303,"Delta":18084582},{"NoteNumber":47,"Velocity":77,"Duration":114303,"SoundDuration":114303,"Delta":18084582},{"NoteNumber":36,"Velocity":71,"Duration":114303,"SoundDuration":114303,"Delta":18313189},{"NoteNumber":48,"Velocity":79,"Duration":114303,"SoundDuration":114303,"Delta":18313189},{"NoteNumber":55,"Velocity":58,"Duration":228606,"SoundDuration":228606,"Delta":18541795},{"NoteNumber":60,"Velocity":58,"Duration":228606,"SoundDuration":228606,"Delta":18541795},{"NoteNumber":62,"Velocity":65,"Duration":228606,"SoundDuration":228606,"Delta":18541795},{"NoteNumber":38,"Velocity":72,"Duration":114303,"SoundDuration":114303,"Delta":18541795},{"NoteNumber":50,"Velocity":81,"Duration":114303,"SoundDuration":114303,"Delta":18541795},{"NoteNumber":40,"Velocity":74,"Duration":114303,"SoundDuration":114303,"Delta":18770402},{"NoteNumber":52,"Velocity":83,"Duration":114303,"SoundDuration":114303,"Delta":18770402},{"NoteNumber":55,"Velocity":63,"Duration":457213,"SoundDuration":457213,"Delta":18999008},{"NoteNumber":59,"Velocity":63,"Duration":457213,"SoundDuration":457213,"Delta":18999008},{"NoteNumber":62,"Velocity":71,"Duration":457213,"SoundDuration":457213,"Delta":18999008},{"NoteNumber":38,"Velocity":77,"Duration":457213,"SoundDuration":457213,"Delta":18999008},{"NoteNumber":50,"Velocity":86,"Duration":457213,"SoundDuration":457213,"Delta":18999008},{"NoteNumber":55,"Velocity":72,"Duration":234064,"SoundDuration":234064,"Delta":19456221},{"NoteNumber":62,"Velocity":72,"Duration":234064,"SoundDuration":234064,"Delta":19456221},{"NoteNumber":67,"Velocity":80,"Duration":234064,"SoundDuration":234064,"Delta":19456221},{"NoteNumber":35,"Velocity":74,"Duration":234064,"SoundDuration":234064,"Delta":19456221},{"NoteNumber":47,"Velocity":83,"Duration":234064,"SoundDuration":234064,"Delta":19456221},{"NoteNumber":57,"Velocity":66,"Duration":234064,"SoundDuration":234064,"Delta":19924349},{"NoteNumber":62,"Velocity":66,"Duration":234064,"SoundDuration":234064,"Delta":19924349},{"NoteNumber":66,"Velocity":74,"Duration":234064,"SoundDuration":234064,"Delta":19924349},{"NoteNumber":33,"Velocity":65,"Duration":234064,"SoundDuration":234064,"Delta":19924349},{"NoteNumber":45,"Velocity":73,"Duration":234064,"SoundDuration":234064,"Delta":19924349},{"NoteNumber":59,"Velocity":65,"Duration":236873,"SoundDuration":236873,"Delta":20392477},{"NoteNumber":62,"Velocity":65,"Duration":236873,"SoundDuration":236873,"Delta":20392477},{"NoteNumber":64,"Velocity":73,"Duration":236873,"SoundDuration":236873,"Delta":20392477},{"NoteNumber":31,"Velocity":66,"Duration":236873,"SoundDuration":236873,"Delta":20392477},{"NoteNumber":43,"Velocity":74,"Duration":236873,"SoundDuration":236873,"Delta":20392477},{"NoteNumber":59,"Velocity":68,"Duration":113860,"SoundDuration":113860,"Delta":20747787},{"NoteNumber":62,"Velocity":68,"Duration":113860,"SoundDuration":113860,"Delta":20747787},{"NoteNumber":66,"Velocity":76,"Duration":113860,"SoundDuration":113860,"Delta":20747787},{"NoteNumber":30,"Velocity":68,"Duration":113860,"SoundDuration":113860,"Delta":20747787},{"NoteNumber":42,"Velocity":76,"Duration":113860,"SoundDuration":113860,"Delta":20747787},{"NoteNumber":59,"Velocity":80,"Duration":231321,"SoundDuration":231321,"Delta":20861648},{"NoteNumber":62,"Velocity":80,"Duration":231321,"SoundDuration":231321,"Delta":20861648},{"NoteNumber":67,"Velocity":89,"Duration":231321,"SoundDuration":231321,"Delta":20861648},{"NoteNumber":28,"Velocity":79,"Duration":231321,"SoundDuration":231321,"Delta":20861648},{"NoteNumber":40,"Velocity":88,"Duration":231321,"SoundDuration":231321,"Delta":20861648},{"NoteNumber":55,"Velocity":61,"Duration":512820,"SoundDuration":512820,"Delta":21324290},{"NoteNumber":57,"Velocity":61,"Duration":512820,"SoundDuration":512820,"Delta":21324290},{"NoteNumber":61,"Velocity":61,"Duration":512820,"SoundDuration":512820,"Delta":21324290},{"NoteNumber":64,"Velocity":68,"Duration":512820,"SoundDuration":512820,"Delta":21324290},{"NoteNumber":33,"Velocity":63,"Duration":512820,"SoundDuration":512820,"Delta":21324290},{"NoteNumber":45,"Velocity":70,"Duration":512820,"SoundDuration":512820,"Delta":21324290},{"NoteNumber":54,"Velocity":70,"Duration":470587,"SoundDuration":470587,"Delta":21837111},{"NoteNumber":57,"Velocity":70,"Duration":470587,"SoundDuration":470587,"Delta":21837111},{"NoteNumber":62,"Velocity":78,"Duration":470587,"SoundDuration":470587,"Delta":21837111},{"NoteNumber":38,"Velocity":70,"Duration":470587,"SoundDuration":470587,"Delta":21837111},{"NoteNumber":50,"Velocity":78,"Duration":470587,"SoundDuration":470587,"Delta":21837111},{"NoteNumber":57,"Velocity":66,"Duration":455788,"SoundDuration":455788,"Delta":22778287},{"NoteNumber":61,"Velocity":66,"Duration":455788,"SoundDuration":455788,"Delta":22778287},{"NoteNumber":64,"Velocity":66,"Duration":455788,"SoundDuration":455788,"Delta":22778287},{"NoteNumber":69,"Velocity":74,"Duration":455788,"SoundDuration":455788,"Delta":22778287},{"NoteNumber":33,"Velocity":67,"Duration":113947,"SoundDuration":113947,"Delta":22778287},{"NoteNumber":45,"Velocity":75,"Duration":113947,"SoundDuration":113947,"Delta":22778287},{"NoteNumber":49,"Velocity":75,"Duration":113947,"SoundDuration":113947,"Delta":23006182},{"NoteNumber":57,"Velocity":72,"Duration":947474,"SoundDuration":947474,"Delta":23234076},{"NoteNumber":62,"Velocity":72,"Duration":947474,"SoundDuration":947474,"Delta":23234076},{"NoteNumber":66,"Velocity":72,"Duration":947474,"SoundDuration":947474,"Delta":23234076},{"NoteNumber":69,"Velocity":80,"Duration":947474,"SoundDuration":947474,"Delta":23234076},{"NoteNumber":38,"Velocity":81,"Duration":113947,"SoundDuration":113947,"Delta":23234076},{"NoteNumber":50,"Velocity":91,"Duration":113947,"SoundDuration":113947,"Delta":23234076},{"NoteNumber":33,"Velocity":72,"Duration":117536,"SoundDuration":117536,"Delta":23461971},{"NoteNumber":45,"Velocity":81,"Duration":117536,"SoundDuration":117536,"Delta":23461971},{"NoteNumber":31,"Velocity":72,"Duration":119894,"SoundDuration":119894,"Delta":23697044},{"NoteNumber":43,"Velocity":81,"Duration":119894,"SoundDuration":119894,"Delta":23697044},{"NoteNumber":30,"Velocity":72,"Duration":122358,"SoundDuration":122358,"Delta":23936833},{"NoteNumber":42,"Velocity":81,"Duration":122358,"SoundDuration":122358,"Delta":23936833},{"NoteNumber":57,"Velocity":64,"Duration":466453,"SoundDuration":466453,"Delta":24181551},{"NoteNumber":62,"Velocity":64,"Duration":466453,"SoundDuration":466453,"Delta":24181551},{"NoteNumber":66,"Velocity":64,"Duration":466453,"SoundDuration":466453,"Delta":24181551},{"NoteNumber":69,"Velocity":72,"Duration":466453,"SoundDuration":466453,"Delta":24181551},{"NoteNumber":30,"Velocity":78,"Duration":466453,"SoundDuration":466453,"Delta":24181551},{"NoteNumber":42,"Velocity":87,"Duration":466453,"SoundDuration":466453,"Delta":24181551},{"NoteNumber":71,"Velocity":79,"Duration":939771,"SoundDuration":939771,"Delta":24648005},{"NoteNumber":62,"Velocity":71,"Duration":939771,"SoundDuration":939771,"Delta":24648005},{"NoteNumber":64,"Velocity":71,"Duration":939771,"SoundDuration":939771,"Delta":24648005},{"NoteNumber":67,"Velocity":71,"Duration":939771,"SoundDuration":939771,"Delta":24648005},{"NoteNumber":38,"Velocity":81,"Duration":113947,"SoundDuration":113947,"Delta":24648005},{"NoteNumber":50,"Velocity":90,"Duration":113947,"SoundDuration":113947,"Delta":24648005},{"NoteNumber":35,"Velocity":70,"Duration":116613,"SoundDuration":116613,"Delta":24875899},{"NoteNumber":47,"Velocity":78,"Duration":116613,"SoundDuration":116613,"Delta":24875899},{"NoteNumber":33,"Velocity":69,"Duration":118464,"SoundDuration":118464,"Delta":25109126},{"NoteNumber":45,"Velocity":77,"Duration":118464,"SoundDuration":118464,"Delta":25109126},{"NoteNumber":31,"Velocity":69,"Duration":120860,"SoundDuration":120860,"Delta":25346056},{"NoteNumber":43,"Velocity":77,"Duration":120860,"SoundDuration":120860,"Delta":25346056},{"NoteNumber":62,"Velocity":64,"Duration":468274,"SoundDuration":468274,"Delta":25587777},{"NoteNumber":64,"Velocity":64,"Duration":468274,"SoundDuration":468274,"Delta":25587777},{"NoteNumber":67,"Velocity":64,"Duration":468274,"SoundDuration":468274,"Delta":25587777},{"NoteNumber":71,"Velocity":72,"Duration":468274,"SoundDuration":468274,"Delta":25587777},{"NoteNumber":31,"Velocity":77,"Duration":468274,"SoundDuration":468274,"Delta":25587777},{"NoteNumber":43,"Velocity":86,"Duration":468274,"SoundDuration":468274,"Delta":25587777},{"NoteNumber":55,"Velocity":54,"Duration":228763,"SoundDuration":228763,"Delta":26056051},{"NoteNumber":57,"Velocity":54,"Duration":228763,"SoundDuration":228763,"Delta":26056051},{"NoteNumber":61,"Velocity":54,"Duration":228763,"SoundDuration":228763,"Delta":26056051},{"NoteNumber":64,"Velocity":61,"Duration":228763,"SoundDuration":228763,"Delta":26056051},{"NoteNumber":33,"Velocity":78,"Duration":114381,"SoundDuration":114381,"Delta":26056051},{"NoteNumber":45,"Velocity":87,"Duration":114381,"SoundDuration":114381,"Delta":26056051},{"NoteNumber":28,"Velocity":69,"Duration":114381,"SoundDuration":114381,"Delta":26284814},{"NoteNumber":40,"Velocity":77,"Duration":114381,"SoundDuration":114381,"Delta":26284814},{"NoteNumber":55,"Velocity":54,"Duration":236929,"SoundDuration":236929,"Delta":26513577},{"NoteNumber":57,"Velocity":54,"Duration":236929,"SoundDuration":236929,"Delta":26513577},{"NoteNumber":61,"Velocity":54,"Duration":236929,"SoundDuration":236929,"Delta":26513577},{"NoteNumber":64,"Velocity":61,"Duration":236929,"SoundDuration":236929,"Delta":26513577},{"NoteNumber":26,"Velocity":69,"Duration":118464,"SoundDuration":118464,"Delta":26513577},{"NoteNumber":38,"Velocity":77,"Duration":118464,"SoundDuration":118464,"Delta":26513577},{"NoteNumber":25,"Velocity":69,"Duration":118464,"SoundDuration":118464,"Delta":26750506},{"NoteNumber":37,"Velocity":77,"Duration":118464,"SoundDuration":118464,"Delta":26750506},{"NoteNumber":55,"Velocity":54,"Duration":232323,"SoundDuration":232323,"Delta":26987436},{"NoteNumber":57,"Velocity":54,"Duration":232323,"SoundDuration":232323,"Delta":26987436},{"NoteNumber":61,"Velocity":54,"Duration":232323,"SoundDuration":232323,"Delta":26987436},{"NoteNumber":64,"Velocity":61,"Duration":232323,"SoundDuration":232323,"Delta":26987436},{"NoteNumber":25,"Velocity":75,"Duration":464648,"SoundDuration":464648,"Delta":26987436},{"NoteNumber":37,"Velocity":84,"Duration":464648,"SoundDuration":464648,"Delta":26987436},{"NoteNumber":60,"Velocity":64,"Duration":1407099,"SoundDuration":1407099,"Delta":27452084},{"NoteNumber":62,"Velocity":64,"Duration":1407099,"SoundDuration":1407099,"Delta":27452084},{"NoteNumber":69,"Velocity":72,"Duration":1407099,"SoundDuration":1407099,"Delta":27452084},{"NoteNumber":38,"Velocity":81,"Duration":113947,"SoundDuration":113947,"Delta":27452084},{"NoteNumber":50,"Velocity":90,"Duration":113947,"SoundDuration":113947,"Delta":27452084},{"NoteNumber":33,"Velocity":71,"Duration":115714,"SoundDuration":115714,"Delta":27679978},{"NoteNumber":45,"Velocity":79,"Duration":115714,"SoundDuration":115714,"Delta":27679978},{"NoteNumber":31,"Velocity":71,"Duration":117536,"SoundDuration":117536,"Delta":27911406},{"NoteNumber":43,"Velocity":79,"Duration":117536,"SoundDuration":117536,"Delta":27911406},{"NoteNumber":30,"Velocity":71,"Duration":117536,"SoundDuration":117536,"Delta":28146479},{"NoteNumber":42,"Velocity":79,"Duration":117536,"SoundDuration":117536,"Delta":28146479},{"NoteNumber":30,"Velocity":76,"Duration":477630,"SoundDuration":477630,"Delta":28381552},{"NoteNumber":42,"Velocity":85,"Duration":477630,"SoundDuration":477630,"Delta":28381552},{"NoteNumber":55,"Velocity":53,"Duration":228146,"SoundDuration":228146,"Delta":28859183},{"NoteNumber":60,"Velocity":53,"Duration":228146,"SoundDuration":228146,"Delta":28859183},{"NoteNumber":62,"Velocity":59,"Duration":228146,"SoundDuration":228146,"Delta":28859183},{"NoteNumber":31,"Velocity":64,"Duration":113842,"SoundDuration":113842,"Delta":28859183},{"NoteNumber":43,"Velocity":72,"Duration":113842,"SoundDuration":113842,"Delta":28859183},{"NoteNumber":33,"Velocity":66,"Duration":114303,"SoundDuration":114303,"Delta":29087329},{"NoteNumber":45,"Velocity":74,"Duration":114303,"SoundDuration":114303,"Delta":29087329},{"NoteNumber":55,"Velocity":55,"Duration":228606,"SoundDuration":228606,"Delta":29315936},{"NoteNumber":60,"Velocity":55,"Duration":228606,"SoundDuration":228606,"Delta":29315936},{"NoteNumber":62,"Velocity":62,"Duration":228606,"SoundDuration":228606,"Delta":29315936},{"NoteNumber":35,"Velocity":69,"Duration":114303,"SoundDuration":114303,"Delta":29315936},{"NoteNumber":47,"Velocity":77,"Duration":114303,"SoundDuration":114303,"Delta":29315936},{"NoteNumber":36,"Velocity":71,"Duration":114303,"SoundDuration":114303,"Delta":29544542},{"NoteNumber":48,"Velocity":79,"Duration":114303,"SoundDuration":114303,"Delta":29544542},{"NoteNumber":55,"Velocity":58,"Duration":228606,"SoundDuration":228606,"Delta":29773149},{"NoteNumber":60,"Velocity":58,"Duration":228606,"SoundDuration":228606,"Delta":29773149},{"NoteNumber":62,"Velocity":65,"Duration":228606,"SoundDuration":228606,"Delta":29773149},{"NoteNumber":38,"Velocity":72,"Duration":114303,"SoundDuration":114303,"Delta":29773149},{"NoteNumber":50,"Velocity":81,"Duration":114303,"SoundDuration":114303,"Delta":29773149},{"NoteNumber":40,"Velocity":74,"Duration":114303,"SoundDuration":114303,"Delta":30001755},{"NoteNumber":52,"Velocity":83,"Duration":114303,"SoundDuration":114303,"Delta":30001755},{"NoteNumber":55,"Velocity":63,"Duration":457213,"SoundDuration":457213,"Delta":30230362},{"NoteNumber":59,"Velocity":63,"Duration":457213,"SoundDuration":457213,"Delta":30230362},{"NoteNumber":62,"Velocity":71,"Duration":457213,"SoundDuration":457213,"Delta":30230362},{"NoteNumber":38,"Velocity":77,"Duration":457213,"SoundDuration":457213,"Delta":30230362},{"NoteNumber":50,"Velocity":86,"Duration":457213,"SoundDuration":457213,"Delta":30230362},{"NoteNumber":55,"Velocity":72,"Duration":234064,"SoundDuration":234064,"Delta":30687575},{"NoteNumber":62,"Velocity":72,"Duration":234064,"SoundDuration":234064,"Delta":30687575},{"NoteNumber":67,"Velocity":80,"Duration":234064,"SoundDuration":234064,"Delta":30687575},{"NoteNumber":35,"Velocity":74,"Duration":234064,"SoundDuration":234064,"Delta":30687575},{"NoteNumber":47,"Velocity":83,"Duration":234064,"SoundDuration":234064,"Delta":30687575},{"NoteNumber":57,"Velocity":66,"Duration":234064,"SoundDuration":234064,"Delta":31155703},{"NoteNumber":62,"Velocity":66,"Duration":234064,"SoundDuration":234064,"Delta":31155703},{"NoteNumber":66,"Velocity":74,"Duration":234064,"SoundDuration":234064,"Delta":31155703},{"NoteNumber":33,"Velocity":65,"Duration":234064,"SoundDuration":234064,"Delta":31155703},{"NoteNumber":45,"Velocity":73,"Duration":234064,"SoundDuration":234064,"Delta":31155703},{"NoteNumber":59,"Velocity":65,"Duration":236873,"SoundDuration":236873,"Delta":31623831},{"NoteNumber":62,"Velocity":65,"Duration":236873,"SoundDuration":236873,"Delta":31623831},{"NoteNumber":64,"Velocity":73,"Duration":236873,"SoundDuration":236873,"Delta":31623831},{"NoteNumber":31,"Velocity":66,"Duration":236873,"SoundDuration":236873,"Delta":31623831},{"NoteNumber":43,"Velocity":74,"Duration":236873,"SoundDuration":236873,"Delta":31623831},{"NoteNumber":59,"Velocity":68,"Duration":113860,"SoundDuration":113860,"Delta":31979141},{"NoteNumber":62,"Velocity":68,"Duration":113860,"SoundDuration":113860,"Delta":31979141},{"NoteNumber":66,"Velocity":76,"Duration":113860,"SoundDuration":113860,"Delta":31979141},{"NoteNumber":30,"Velocity":68,"Duration":113860,"SoundDuration":113860,"Delta":31979141},{"NoteNumber":42,"Velocity":76,"Duration":113860,"SoundDuration":113860,"Delta":31979141},{"NoteNumber":59,"Velocity":80,"Duration":231321,"SoundDuration":231321,"Delta":32093002},{"NoteNumber":62,"Velocity":80,"Duration":231321,"SoundDuration":231321,"Delta":32093002},{"NoteNumber":67,"Velocity":89,"Duration":231321,"SoundDuration":231321,"Delta":32093002},{"NoteNumber":28,"Velocity":79,"Duration":231321,"SoundDuration":231321,"Delta":32093002},{"NoteNumber":40,"Velocity":88,"Duration":231321,"SoundDuration":231321,"Delta":32093002},{"NoteNumber":55,"Velocity":61,"Duration":512821,"SoundDuration":512821,"Delta":32555644},{"NoteNumber":57,"Velocity":61,"Duration":512821,"SoundDuration":512821,"Delta":32555644},{"NoteNumber":61,"Velocity":61,"Duration":512821,"SoundDuration":512821,"Delta":32555644},{"NoteNumber":64,"Velocity":68,"Duration":512821,"SoundDuration":512821,"Delta":32555644},{"NoteNumber":33,"Velocity":63,"Duration":512821,"SoundDuration":512821,"Delta":32555644},{"NoteNumber":45,"Velocity":70,"Duration":512821,"SoundDuration":512821,"Delta":32555644},{"NoteNumber":54,"Velocity":70,"Duration":512820,"SoundDuration":512820,"Delta":33068465},{"NoteNumber":57,"Velocity":70,"Duration":512820,"SoundDuration":512820,"Delta":33068465},{"NoteNumber":62,"Velocity":78,"Duration":512820,"SoundDuration":512820,"Delta":33068465},{"NoteNumber":38,"Velocity":70,"Duration":512820,"SoundDuration":512820,"Delta":33068465},{"NoteNumber":50,"Velocity":78,"Duration":512820,"SoundDuration":512820,"Delta":33068465},{"NoteNumber":81,"Velocity":90,"Duration":486696,"SoundDuration":486696,"Delta":34094107},{"NoteNumber":73,"Velocity":81,"Duration":486696,"SoundDuration":486696,"Delta":34094107},{"NoteNumber":76,"Velocity":81,"Duration":486696,"SoundDuration":486696,"Delta":34094107},{"NoteNumber":45,"Velocity":62,"Duration":121674,"SoundDuration":121674,"Delta":34094107},{"NoteNumber":57,"Velocity":69,"Duration":121674,"SoundDuration":121674,"Delta":34094107},{"NoteNumber":49,"Velocity":62,"Duration":121674,"SoundDuration":121674,"Delta":34337455},{"NoteNumber":61,"Velocity":69,"Duration":121674,"SoundDuration":121674,"Delta":34337455},{"NoteNumber":71,"Velocity":81,"Duration":365022,"SoundDuration":365022,"Delta":34580804},{"NoteNumber":76,"Velocity":81,"Duration":365022,"SoundDuration":365022,"Delta":34580804},{"NoteNumber":80,"Velocity":90,"Duration":365022,"SoundDuration":365022,"Delta":34580804},{"NoteNumber":52,"Velocity":64,"Duration":365022,"SoundDuration":365022,"Delta":34580804},{"NoteNumber":64,"Velocity":72,"Duration":365022,"SoundDuration":365022,"Delta":34580804},{"NoteNumber":69,"Velocity":72,"Duration":121674,"SoundDuration":121674,"Delta":34945826},{"NoteNumber":75,"Velocity":72,"Duration":121674,"SoundDuration":121674,"Delta":34945826},{"NoteNumber":78,"Velocity":81,"Duration":121674,"SoundDuration":121674,"Delta":34945826},{"NoteNumber":48,"Velocity":54,"Duration":121674,"SoundDuration":121674,"Delta":34945826},{"NoteNumber":60,"Velocity":61,"Duration":121674,"SoundDuration":121674,"Delta":34945826},{"NoteNumber":68,"Velocity":75,"Duration":466417,"SoundDuration":466417,"Delta":35067501},{"NoteNumber":73,"Velocity":75,"Duration":466417,"SoundDuration":466417,"Delta":35067501},{"NoteNumber":76,"Velocity":84,"Duration":466417,"SoundDuration":466417,"Delta":35067501},{"NoteNumber":49,"Velocity":58,"Duration":466417,"SoundDuration":466417,"Delta":35067501},{"NoteNumber":61,"Velocity":65,"Duration":466417,"SoundDuration":466417,"Delta":35067501},{"NoteNumber":69,"Velocity":71,"Duration":466417,"SoundDuration":466417,"Delta":35554198},{"NoteNumber":73,"Velocity":71,"Duration":466417,"SoundDuration":466417,"Delta":35554198},{"NoteNumber":78,"Velocity":79,"Duration":466417,"SoundDuration":466417,"Delta":35554198},{"NoteNumber":45,"Velocity":56,"Duration":466417,"SoundDuration":466417,"Delta":35554198},{"NoteNumber":57,"Velocity":63,"Duration":466417,"SoundDuration":466417,"Delta":35554198},{"NoteNumber":66,"Velocity":72,"Duration":460589,"SoundDuration":460589,"Delta":36040895},{"NoteNumber":71,"Velocity":72,"Duration":460589,"SoundDuration":460589,"Delta":36040895},{"NoteNumber":75,"Velocity":80,"Duration":460589,"SoundDuration":460589,"Delta":36040895},{"NoteNumber":47,"Velocity":56,"Duration":460589,"SoundDuration":460589,"Delta":36040895},{"NoteNumber":59,"Velocity":63,"Duration":460589,"SoundDuration":460589,"Delta":36040895},{"NoteNumber":68,"Velocity":72,"Duration":356586,"SoundDuration":356586,"Delta":36521510},{"NoteNumber":71,"Velocity":72,"Duration":356586,"SoundDuration":356586,"Delta":36521510},{"NoteNumber":76,"Velocity":81,"Duration":356586,"SoundDuration":356586,"Delta":36521510},{"NoteNumber":40,"Velocity":54,"Duration":356586,"SoundDuration":356586,"Delta":36521510},{"NoteNumber":52,"Velocity":61,"Duration":356586,"SoundDuration":356586,"Delta":36521510},{"NoteNumber":66,"Velocity":81,"Duration":118184,"SoundDuration":118184,"Delta":36994375},{"NoteNumber":71,"Velocity":72,"Duration":483894,"SoundDuration":483894,"Delta":36994375},{"NoteNumber":74,"Velocity":81,"Duration":483894,"SoundDuration":483894,"Delta":36994375},{"NoteNumber":42,"Velocity":55,"Duration":118184,"SoundDuration":118184,"Delta":36994375},{"NoteNumber":54,"Velocity":62,"Duration":118184,"SoundDuration":118184,"Delta":36994375},{"NoteNumber":64,"Velocity":81,"Duration":123762,"SoundDuration":123762,"Delta":37230745},{"NoteNumber":44,"Velocity":55,"Duration":123762,"SoundDuration":123762,"Delta":37230745},{"NoteNumber":56,"Velocity":62,"Duration":123762,"SoundDuration":123762,"Delta":37230745},{"NoteNumber":64,"Velocity":73,"Duration":358937,"SoundDuration":358937,"Delta":37478270},{"NoteNumber":69,"Velocity":73,"Duration":358937,"SoundDuration":358937,"Delta":37478270},{"NoteNumber":73,"Velocity":82,"Duration":358937,"SoundDuration":358937,"Delta":37478270},{"NoteNumber":45,"Velocity":58,"Duration":358937,"SoundDuration":358937,"Delta":37478270},{"NoteNumber":57,"Velocity":65,"Duration":358937,"SoundDuration":358937,"Delta":37478270},{"NoteNumber":62,"Velocity":70,"Duration":119645,"SoundDuration":119645,"Delta":37837207},{"NoteNumber":68,"Velocity":70,"Duration":119645,"SoundDuration":119645,"Delta":37837207},{"NoteNumber":71,"Velocity":78,"Duration":119645,"SoundDuration":119645,"Delta":37837207},{"NoteNumber":41,"Velocity":52,"Duration":119645,"SoundDuration":119645,"Delta":37837207},{"NoteNumber":53,"Velocity":58,"Duration":119645,"SoundDuration":119645,"Delta":37837207},{"NoteNumber":61,"Velocity":70,"Duration":458642,"SoundDuration":458642,"Delta":37956853},{"NoteNumber":66,"Velocity":70,"Duration":458642,"SoundDuration":458642,"Delta":37956853},{"NoteNumber":69,"Velocity":78,"Duration":458642,"SoundDuration":458642,"Delta":37956853},{"NoteNumber":42,"Velocity":52,"Duration":458642,"SoundDuration":458642,"Delta":37956853},{"NoteNumber":54,"Velocity":58,"Duration":458642,"SoundDuration":458642,"Delta":37956853},{"NoteNumber":62,"Velocity":72,"Duration":466417,"SoundDuration":466417,"Delta":38435436},{"NoteNumber":66,"Velocity":72,"Duration":466417,"SoundDuration":466417,"Delta":38435436},{"NoteNumber":71,"Velocity":81,"Duration":466417,"SoundDuration":466417,"Delta":38435436},{"NoteNumber":38,"Velocity":54,"Duration":466417,"SoundDuration":466417,"Delta":38435436},{"NoteNumber":50,"Velocity":61,"Duration":466417,"SoundDuration":466417,"Delta":38435436},{"NoteNumber":59,"Velocity":70,"Duration":462515,"SoundDuration":462515,"Delta":38922133},{"NoteNumber":64,"Velocity":70,"Duration":462515,"SoundDuration":462515,"Delta":38922133},{"NoteNumber":68,"Velocity":78,"Duration":462515,"SoundDuration":462515,"Delta":38922133},{"NoteNumber":40,"Velocity":51,"Duration":462515,"SoundDuration":462515,"Delta":38922133},{"NoteNumber":52,"Velocity":57,"Duration":462515,"SoundDuration":462515,"Delta":38922133},{"NoteNumber":61,"Velocity":70,"Duration":361968,"SoundDuration":361968,"Delta":39404758},{"NoteNumber":64,"Velocity":70,"Duration":361968,"SoundDuration":361968,"Delta":39404758},{"NoteNumber":69,"Velocity":78,"Duration":361968,"SoundDuration":361968,"Delta":39404758},{"NoteNumber":33,"Velocity":51,"Duration":361968,"SoundDuration":361968,"Delta":39404758},{"NoteNumber":45,"Velocity":57,"Duration":361968,"SoundDuration":361968,"Delta":39404758},{"NoteNumber":69,"Velocity":76,"Duration":478583,"SoundDuration":478583,"Delta":39887383},{"NoteNumber":61,"Velocity":68,"Duration":478583,"SoundDuration":478583,"Delta":39887383},{"NoteNumber":64,"Velocity":68,"Duration":478583,"SoundDuration":478583,"Delta":39887383},{"NoteNumber":33,"Velocity":52,"Duration":119645,"SoundDuration":119645,"Delta":39887383},{"NoteNumber":45,"Velocity":58,"Duration":119645,"SoundDuration":119645,"Delta":39887383},{"NoteNumber":37,"Velocity":52,"Duration":119645,"SoundDuration":119645,"Delta":40126674},{"NoteNumber":49,"Velocity":58,"Duration":119645,"SoundDuration":119645,"Delta":40126674},{"NoteNumber":59,"Velocity":68,"Duration":358937,"SoundDuration":358937,"Delta":40365966},{"NoteNumber":64,"Velocity":68,"Duration":358937,"SoundDuration":358937,"Delta":40365966},{"NoteNumber":68,"Velocity":76,"Duration":358937,"SoundDuration":358937,"Delta":40365966},{"NoteNumber":40,"Velocity":54,"Duration":358937,"SoundDuration":358937,"Delta":40365966},{"NoteNumber":52,"Velocity":61,"Duration":358937,"SoundDuration":358937,"Delta":40365966},{"NoteNumber":57,"Velocity":61,"Duration":119645,"SoundDuration":119645,"Delta":40724903},{"NoteNumber":63,"Velocity":61,"Duration":119645,"SoundDuration":119645,"Delta":40724903},{"NoteNumber":66,"Velocity":68,"Duration":119645,"SoundDuration":119645,"Delta":40724903},{"NoteNumber":36,"Velocity":45,"Duration":119645,"SoundDuration":119645,"Delta":40724903},{"NoteNumber":48,"Velocity":51,"Duration":119645,"SoundDuration":119645,"Delta":40724903},{"NoteNumber":56,"Velocity":63,"Duration":466417,"SoundDuration":466417,"Delta":40844549},{"NoteNumber":61,"Velocity":63,"Duration":466417,"SoundDuration":466417,"Delta":40844549},{"NoteNumber":64,"Velocity":71,"Duration":466417,"SoundDuration":466417,"Delta":40844549},{"NoteNumber":37,"Velocity":49,"Duration":466417,"SoundDuration":466417,"Delta":40844549},{"NoteNumber":49,"Velocity":55,"Duration":466417,"SoundDuration":466417,"Delta":40844549},{"NoteNumber":57,"Velocity":59,"Duration":466417,"SoundDuration":466417,"Delta":41331246},{"NoteNumber":61,"Velocity":59,"Duration":466417,"SoundDuration":466417,"Delta":41331246},{"NoteNumber":66,"Velocity":66,"Duration":466417,"SoundDuration":466417,"Delta":41331246},{"NoteNumber":33,"Velocity":48,"Duration":466417,"SoundDuration":466417,"Delta":41331246},{"NoteNumber":45,"Velocity":54,"Duration":466417,"SoundDuration":466417,"Delta":41331246},{"NoteNumber":54,"Velocity":60,"Duration":468394,"SoundDuration":468394,"Delta":41817943},{"NoteNumber":59,"Velocity":60,"Duration":468394,"SoundDuration":468394,"Delta":41817943},{"NoteNumber":63,"Velocity":67,"Duration":468394,"SoundDuration":468394,"Delta":41817943},{"NoteNumber":35,"Velocity":47,"Duration":468394,"SoundDuration":468394,"Delta":41817943},{"NoteNumber":47,"Velocity":53,"Duration":468394,"SoundDuration":468394,"Delta":41817943},{"NoteNumber":56,"Velocity":62,"Duration":357271,"SoundDuration":357271,"Delta":42306702},{"NoteNumber":59,"Velocity":62,"Duration":357271,"SoundDuration":357271,"Delta":42306702},{"NoteNumber":64,"Velocity":69,"Duration":357271,"SoundDuration":357271,"Delta":42306702},{"NoteNumber":28,"Velocity":45,"Duration":357271,"SoundDuration":357271,"Delta":42306702},{"NoteNumber":40,"Velocity":51,"Duration":357271,"SoundDuration":357271,"Delta":42306702},{"NoteNumber":54,"Velocity":59,"Duration":119236,"SoundDuration":119236,"Delta":42780842},{"NoteNumber":59,"Velocity":53,"Duration":493792,"SoundDuration":493792,"Delta":42780842},{"NoteNumber":62,"Velocity":59,"Duration":493792,"SoundDuration":493792,"Delta":42780842},{"NoteNumber":30,"Velocity":38,"Duration":119236,"SoundDuration":119236,"Delta":42780842},{"NoteNumber":42,"Velocity":43,"Duration":119236,"SoundDuration":119236,"Delta":42780842},{"NoteNumber":52,"Velocity":59,"Duration":127659,"SoundDuration":127659,"Delta":43019316},{"NoteNumber":32,"Velocity":38,"Duration":127659,"SoundDuration":127659,"Delta":43019316},{"NoteNumber":44,"Velocity":43,"Duration":127659,"SoundDuration":127659,"Delta":43019316},{"NoteNumber":52,"Velocity":54,"Duration":371901,"SoundDuration":371901,"Delta":43274635},{"NoteNumber":57,"Velocity":54,"Duration":371901,"SoundDuration":371901,"Delta":43274635},{"NoteNumber":61,"Velocity":61,"Duration":371901,"SoundDuration":371901,"Delta":43274635},{"NoteNumber":33,"Velocity":40,"Duration":371901,"SoundDuration":371901,"Delta":43274635},{"NoteNumber":45,"Velocity":45,"Duration":371901,"SoundDuration":371901,"Delta":43274635},{"NoteNumber":50,"Velocity":45,"Duration":123967,"SoundDuration":123967,"Delta":43646536},{"NoteNumber":56,"Velocity":45,"Duration":123967,"SoundDuration":123967,"Delta":43646536},{"NoteNumber":59,"Velocity":50,"Duration":123967,"SoundDuration":123967,"Delta":43646536},{"NoteNumber":29,"Velocity":30,"Duration":123967,"SoundDuration":123967,"Delta":43646536},{"NoteNumber":41,"Velocity":34,"Duration":123967,"SoundDuration":123967,"Delta":43646536},{"NoteNumber":49,"Velocity":48,"Duration":542453,"SoundDuration":542453,"Delta":43770503},{"NoteNumber":54,"Velocity":48,"Duration":542453,"SoundDuration":542453,"Delta":43770503},{"NoteNumber":57,"Velocity":54,"Duration":542453,"SoundDuration":542453,"Delta":43770503},{"NoteNumber":30,"Velocity":35,"Duration":542453,"SoundDuration":542453,"Delta":43770503},{"NoteNumber":42,"Velocity":39,"Duration":542453,"SoundDuration":542453,"Delta":43770503},{"NoteNumber":50,"Velocity":49,"Duration":602094,"SoundDuration":602094,"Delta":44336541},{"NoteNumber":54,"Velocity":49,"Duration":602094,"SoundDuration":602094,"Delta":44336541},{"NoteNumber":59,"Velocity":55,"Duration":602094,"SoundDuration":602094,"Delta":44336541},{"NoteNumber":26,"Velocity":33,"Duration":602094,"SoundDuration":602094,"Delta":44336541},{"NoteNumber":38,"Velocity":37,"Duration":602094,"SoundDuration":602094,"Delta":44336541},{"NoteNumber":47,"Velocity":42,"Duration":782313,"SoundDuration":782313,"Delta":44964813},{"NoteNumber":52,"Velocity":42,"Duration":782313,"SoundDuration":782313,"Delta":44964813},{"NoteNumber":56,"Velocity":47,"Duration":782313,"SoundDuration":782313,"Delta":44964813},{"NoteNumber":28,"Velocity":29,"Duration":782313,"SoundDuration":782313,"Delta":44964813},{"NoteNumber":40,"Velocity":33,"Duration":782313,"SoundDuration":782313,"Delta":44964813},{"NoteNumber":49,"Velocity":38,"Duration":786910,"SoundDuration":786910,"Delta":45781140},{"NoteNumber":52,"Velocity":38,"Duration":786910,"SoundDuration":786910,"Delta":45781140},{"NoteNumber":57,"Velocity":43,"Duration":786910,"SoundDuration":786910,"Delta":45781140},{"NoteNumber":33,"Velocity":27,"Duration":786910,"SoundDuration":786910,"Delta":45781140},{"NoteNumber":40,"Velocity":30,"Duration":786910,"SoundDuration":786910,"Delta":45781140}]}