{
  "title": "Hallelujah",
  "artist": "Leonard Cohen",
  "durationMs": 113898.66806041666,
  "midiSha256": "aa55a253bbc537163b4448461262fab8f5d4ca70263fec3d902b4fff684c6b99",
  "midiObject": [
    {
      "NoteNumber": 48,
      "Velocity": 80,
      "Duration": 315277,
      "SoundDuration": 315277,
      "Delta": 0
    },
    {
      "NoteNumber": 55,
      "Velocity": 80,
      "Duration": 315277,
      "SoundDuration": 315277,
      "Delta": 333333
    },
    {
      "NoteNumber": 60,
      "Velocity": 80,
      "Duration": 315277,
      "SoundDuration": 315277,
      "Delta": 666667
    },
    {
      "NoteNumber": 64,
      "Velocity": 80,
      "Duration": 315277,
      "SoundDuration": 315277,
      "Delta": 1000000
    },
    {
      "NoteNumber": 60,
      "Velocity": 80,
      "Duration": 315277,
      "SoundDuration": 315277,
      "Delta": 1333334
    },
    {
      "NoteNumber": 47,
      "Velocity": 80,
      "Duration": 315277,
      "SoundDuration": 315277,
      "Delta": 1666667
    },
    {
      "NoteNumber": 45,
      "Velocity": 80,
      "Duration": 315277,
      "SoundDuration": 315277,
      "Delta": 2000001
    },
    {
      "NoteNumber": 52,
      "Velocity": 80,
      "Duration": 315277,
      "SoundDuration": 315277,
      "Delta": 2333334
    },
    {
      "NoteNumber": 57,
      "Velocity": 80,
      "Duration": 315277,
      "SoundDuration": 315277,
      "Delta": 2666668
    },
    {
      "NoteNumber": 60,
      "Velocity": 80,
      "Duration": 315277,
      "SoundDuration": 315277,
      "Delta": 3000001
    },
    {
      "NoteNumber": 57,
      "Velocity": 80,
      "Duration": 315277,
      "SoundDuration": 315277,
      "Delta": 3333335
    },
    {
      "NoteNumber": 45,
      "Velocity": 80,
      "Duration": 315277,
      "SoundDuration": 315277,
      "Delta": 3666668
    },
    {
      "NoteNumber": 48,
      "Velocity": 80,
      "Duration": 315277,
      "SoundDuration": 315277,
      "Delta": 4000002
    },
    {
      "NoteNumber": 55,
      "Velocity": 80,
      "Duration": 315277,
      "SoundDuration": 315277,
      "Delta": 4333335
    },
    {
      "NoteNumber": 60,
      "Velocity": 80,
      "Duration": 315277,
      "SoundDuration": 315277,
      "Delta": 4666669
    },
    {
      "NoteNumber": 64,
      "Velocity": 80,
      "Duration": 315277,
      "SoundDuration": 315277,
      "Delta": 5000002
    },
    {
      "NoteNumber": 60,
      "Velocity": 80,
      "Duration": 315277,
      "SoundDuration": 315277,
      "Delta": 5333336
    },
    {
      "NoteNumber": 47,
      "Velocity": 80,
      "Duration": 315277,
      "SoundDuration": 315277,
      "Delta": 5666669
    },
    {
      "NoteNumber": 45,
      "Velocity": 80,
      "Duration": 315277,
      "SoundDuration": 315277,
      "Delta": 6000003
    },
    {
      "NoteNumber": 52,
      "Velocity": 80,
      "Duration": 315277,
      "SoundDuration": 315277,
      "Delta": 6333336
    },
    {
      "NoteNumber": 57,
      "Velocity": 80,
      "Duration": 315277,
      "SoundDuration": 315277,
      "Delta": 6666670
    },
    {
      "NoteNumber": 60,
      "Velocity": 80,
      "Duration": 315277,
      "SoundDuration": 315277,
      "Delta": 7000003
    },
    {
      "NoteNumber": 57,
      "Velocity": 80,
      "Duration": 315277,
      "SoundDuration": 315277,
      "Delta": 7333337
    },
    {
      "NoteNumber": 64,
      "Velocity": 100,
      "Duration": 315277,
      "SoundDuration": 315277,
      "Delta": 7666670
    },
    {
      "NoteNumber": 45,
      "Velocity": 80,
      "Duration": 315277,
      "SoundDuration": 315277,
      "Delta": 7666670
    },
    {
      "NoteNumber": 48,
      "Velocity": 80,
      "Duration": 315277,
      "SoundDuration": 315277,
      "Delta": 8000004
    },
    {
      "NoteNumber": 67,
      "Velocity": 100,
      "Duration": 616667,
      "SoundDuration": 616667,
      "Delta": 8000004
    },
    {
      "NoteNumber": 55,
      "Velocity": 80,
      "Duration": 315277,
      "SoundDuration": 315277,
      "Delta": 8333337
    },
    {
      "NoteNumber": 60,
      "Velocity": 80,
      "Duration": 315277,
      "SoundDuration": 315277,
      "Delta": 8666671
    },
    {
      "NoteNumber": 67,
      "Velocity": 100,
      "Duration": 283333,
      "SoundDuration": 283333,
      "Delta": 8666671
    },
    {
      "NoteNumber": 64,
      "Velocity": 80,
      "Duration": 315277,
      "SoundDuration": 315277,
      "Delta": 9000004
    },
    {
      "NoteNumber": 67,
      "Velocity": 100,
      "Duration": 616667,
      "SoundDuration": 616667,
      "Delta": 9000004
    },
    {
      "NoteNumber": 60,
      "Velocity": 80,
      "Duration": 315277,
      "SoundDuration": 315277,
      "Delta": 9333338
    },
    {
      "NoteNumber": 47,
      "Velocity": 80,
      "Duration": 315277,
      "SoundDuration": 315277,
      "Delta": 9666671
    },
    {
      "NoteNumber": 67,
      "Velocity": 100,
      "Duration": 315277,
      "SoundDuration": 315277,
      "Delta": 9666671
    },
    {
      "NoteNumber": 45,
      "Velocity": 80,
      "Duration": 315277,
      "SoundDuration": 315277,
      "Delta": 10000005
    },
    {
      "NoteNumber": 69,
      "Velocity": 100,
      "Duration": 283333,
      "SoundDuration": 283333,
      "Delta": 10000005
    },
    {
      "NoteNumber": 52,
      "Velocity": 80,
      "Duration": 315277,
      "SoundDuration": 315277,
      "Delta": 10333338
    },
    {
      "NoteNumber": 69,
      "Velocity": 100,
      "Duration": 283334,
      "SoundDuration": 283334,
      "Delta": 10333338
    },
    {
      "NoteNumber": 57,
      "Velocity": 80,
      "Duration": 315277,
      "SoundDuration": 315277,
      "Delta": 10666672
    },
    {
      "NoteNumber": 69,
      "Velocity": 100,
      "Duration": 948611,
      "SoundDuration": 948611,
      "Delta": 10666672
    },
    {
      "NoteNumber": 60,
      "Velocity": 80,
      "Duration": 315277,
      "SoundDuration": 315277,
      "Delta": 11000005
    },
    {
      "NoteNumber": 57,
      "Velocity": 80,
      "Duration": 315277,
      "SoundDuration": 315277,
      "Delta": 11333339
    },
    {
      "NoteNumber": 64,
      "Velocity": 100,
      "Duration": 315277,
      "SoundDuration": 315277,
      "Delta": 11666672
    },
    {
      "NoteNumber": 45,
      "Velocity": 80,
      "Duration": 315277,
      "SoundDuration": 315277,
      "Delta": 11666672
    },
    {
      "NoteNumber": 48,
      "Velocity": 80,
      "Duration": 315277,
      "SoundDuration": 315277,
      "Delta": 12000006
    },
    {
      "NoteNumber": 67,
      "Velocity": 100,
      "Duration": 616667,
      "SoundDuration": 616667,
      "Delta": 12000006
    },
    {
      "NoteNumber": 55,
      "Velocity": 80,
      "Duration": 315277,
      "SoundDuration": 315277,
      "Delta": 12333339
    },
    {
      "NoteNumber": 60,
      "Velocity": 80,
      "Duration": 315277,
      "SoundDuration": 315277,
      "Delta": 12666673
    },
    {
      "NoteNumber": 67,
      "Velocity": 100,
      "Duration": 283333,
      "SoundDuration": 283333,
      "Delta": 12666673
    },
    {
      "NoteNumber": 64,
      "Velocity": 80,
      "Duration": 315277,
      "SoundDuration": 315277,
      "Delta": 13000006
    },
    {
      "NoteNumber": 67,
      "Velocity": 100,
      "Duration": 616667,
      "SoundDuration": 616667,
      "Delta": 13000006
    },
    {
      "NoteNumber": 60,
      "Velocity": 80,
      "Duration": 315277,
      "SoundDuration": 315277,
      "Delta": 13333340
    },
    {
      "NoteNumber": 47,
      "Velocity": 80,
      "Duration": 315277,
      "SoundDuration": 315277,
      "Delta": 13666673
    },
    {
      "NoteNumber": 67,
      "Velocity": 100,
      "Duration": 315277,
      "SoundDuration": 315277,
      "Delta": 13666673
    },
    {
      "NoteNumber": 45,
      "Velocity": 80,
      "Duration": 315277,
      "SoundDuration": 315277,
      "Delta": 14000007
    },
    {
      "NoteNumber": 69,
      "Velocity": 100,
      "Duration": 283333,
      "SoundDuration": 283333,
      "Delta": 14000007
    },
    {
      "NoteNumber": 52,
      "Velocity": 80,
      "Duration": 315277,
      "SoundDuration": 315277,
      "Delta": 14333340
    },
    {
      "NoteNumber": 69,
      "Velocity": 100,
      "Duration": 283334,
      "SoundDuration": 283334,
      "Delta": 14333340
    },
    {
      "NoteNumber": 57,
      "Velocity": 80,
      "Duration": 315277,
      "SoundDuration": 315277,
      "Delta": 14666674
    },
    {
      "NoteNumber": 69,
      "Velocity": 100,
      "Duration": 948611,
      "SoundDuration": 948611,
      "Delta": 14666674
    },
    {
      "NoteNumber": 60,
      "Velocity": 80,
      "Duration": 315277,
      "SoundDuration": 315277,
      "Delta": 15000007
    },
    {
      "NoteNumber": 57,
      "Velocity": 80,
      "Duration": 315277,
      "SoundDuration": 315277,
      "Delta": 15333341
    },
    {
      "NoteNumber": 45,
      "Velocity": 80,
      "Duration": 315277,
      "SoundDuration": 315277,
      "Delta": 15666674
    },
    {
      "NoteNumber": 67,
      "Velocity": 100,
      "Duration": 315277,
      "SoundDuration": 315277,
      "Delta": 15666674
    },
    {
      "NoteNumber": 69,
      "Velocity": 100,
      "Duration": 616667,
      "SoundDuration": 616667,
      "Delta": 16000008
    },
    {
      "NoteNumber": 41,
      "Velocity": 80,
      "Duration": 315277,
      "SoundDuration": 315277,
      "Delta": 16000008
    },
    {
      "NoteNumber": 48,
      "Velocity": 80,
      "Duration": 315277,
      "SoundDuration": 315277,
      "Delta": 16333341
    },
    {
      "NoteNumber": 69,
      "Velocity": 100,
      "Duration": 616667,
      "SoundDuration": 616667,
      "Delta": 16666675
    },
    {
      "NoteNumber": 53,
      "Velocity": 80,
      "Duration": 315277,
      "SoundDuration": 315277,
      "Delta": 16666675
    },
    {
      "NoteNumber": 57,
      "Velocity": 80,
      "Duration": 315277,
      "SoundDuration": 315277,
      "Delta": 17000008
    },
    {
      "NoteNumber": 69,
      "Velocity": 100,
      "Duration": 283333,
      "SoundDuration": 283333,
      "Delta": 17333342
    },
    {
      "NoteNumber": 53,
      "Velocity": 80,
      "Duration": 315277,
      "SoundDuration": 315277,
      "Delta": 17333342
    },
    {
      "NoteNumber": 69,
      "Velocity": 100,
      "Duration": 283334,
      "SoundDuration": 283334,
      "Delta": 17666675
    },
    {
      "NoteNumber": 41,
      "Velocity": 80,
      "Duration": 315277,
      "SoundDuration": 315277,
      "Delta": 17666675
    },
    {
      "NoteNumber": 69,
      "Velocity": 100,
      "Duration": 631944,
      "SoundDuration": 631944,
      "Delta": 18000009
    },
    {
      "NoteNumber": 43,
      "Velocity": 80,
      "Duration": 315277,
      "SoundDuration": 315277,
      "Delta": 18000009
    },
    {
      "NoteNumber": 50,
      "Velocity": 80,
      "Duration": 315277,
      "SoundDuration": 315277,
      "Delta": 18333342
    },
    {
      "NoteNumber": 55,
      "Velocity": 80,
      "Duration": 315277,
      "SoundDuration": 315277,
      "Delta": 18666676
    },
    {
      "NoteNumber": 67,
      "Velocity": 100,
      "Duration": 283333,
      "SoundDuration": 283333,
      "Delta": 18666676
    },
    {
      "NoteNumber": 67,
      "Velocity": 100,
      "Duration": 631944,
      "SoundDuration": 631944,
      "Delta": 19000009
    },
    {
      "NoteNumber": 59,
      "Velocity": 80,
      "Duration": 315277,
      "SoundDuration": 315277,
      "Delta": 19000009
    },
    {
      "NoteNumber": 55,
      "Velocity": 80,
      "Duration": 315277,
      "SoundDuration": 315277,
      "Delta": 19333343
    },
    {
      "NoteNumber": 43,
      "Velocity": 80,
      "Duration": 315277,
      "SoundDuration": 315277,
      "Delta": 19666676
    },
    {
      "NoteNumber": 65,
      "Velocity": 100,
      "Duration": 315277,
      "SoundDuration": 315277,
      "Delta": 19666676
    },
    {
      "NoteNumber": 48,
      "Velocity": 80,
      "Duration": 315277,
      "SoundDuration": 315277,
      "Delta": 20000010
    },
    {
      "NoteNumber": 67,
      "Velocity": 100,
      "Duration": 948611,
      "SoundDuration": 948611,
      "Delta": 20000010
    },
    {
      "NoteNumber": 55,
      "Velocity": 80,
      "Duration": 315277,
      "SoundDuration": 315277,
      "Delta": 20333343
    },
    {
      "NoteNumber": 60,
      "Velocity": 80,
      "Duration": 315277,
      "SoundDuration": 315277,
      "Delta": 20666677
    },
    {
      "NoteNumber": 64,
      "Velocity": 80,
      "Duration": 315277,
      "SoundDuration": 315277,
      "Delta": 21000010
    },
    {
      "NoteNumber": 67,
      "Velocity": 100,
      "Duration": 948611,
      "SoundDuration": 948611,
      "Delta": 21000010
    },
    {
      "NoteNumber": 60,
      "Velocity": 80,
      "Duration": 315277,
      "SoundDuration": 315277,
      "Delta": 21333344
    },
    {
      "NoteNumber": 48,
      "Velocity": 80,
      "Duration": 315277,
      "SoundDuration": 315277,
      "Delta": 21666677
    },
    {
      "NoteNumber": 43,
      "Velocity": 80,
      "Duration": 315277,
      "SoundDuration": 315277,
      "Delta": 22000011
    },
    {
      "NoteNumber": 50,
      "Velocity": 80,
      "Duration": 315277,
      "SoundDuration": 315277,
      "Delta": 22333344
    },
    {
      "NoteNumber": 55,
      "Velocity": 80,
      "Duration": 315277,
      "SoundDuration": 315277,
      "Delta": 22666678
    },
    {
      "NoteNumber": 59,
      "Velocity": 80,
      "Duration": 315277,
      "SoundDuration": 315277,
      "Delta": 23000011
    },
    {
      "NoteNumber": 55,
      "Velocity": 80,
      "Duration": 315277,
      "SoundDuration": 315277,
      "Delta": 23333345
    },
    {
      "NoteNumber": 64,
      "Velocity": 100,
      "Duration": 283334,
      "SoundDuration": 283334,
      "Delta": 23666678
    },
    {
      "NoteNumber": 50,
      "Velocity": 80,
      "Duration": 315277,
      "SoundDuration": 315277,
      "Delta": 23666678
    },
    {
      "NoteNumber": 48,
      "Velocity": 80,
      "Duration": 315277,
      "SoundDuration": 315277,
      "Delta": 24000012
    },
    {
      "NoteNumber": 64,
      "Velocity": 100,
      "Duration": 616667,
      "SoundDuration": 616667,
      "Delta": 24000012
    },
    {
      "NoteNumber": 67,
      "Velocity": 100,
      "Duration": 616667,
      "SoundDuration": 616667,
      "Delta": 24000012
    },
    {
      "NoteNumber": 55,
      "Velocity": 80,
      "Duration": 315277,
      "SoundDuration": 315277,
      "Delta": 24333345
    },
    {
      "NoteNumber": 60,
      "Velocity": 80,
      "Duration": 616667,
      "SoundDuration": 616667,
      "Delta": 24666679
    },
    {
      "NoteNumber": 64,
      "Velocity": 80,
      "Duration": 283333,
      "SoundDuration": 283333,
      "Delta": 24666679
    },
    {
      "NoteNumber": 67,
      "Velocity": 100,
      "Duration": 283333,
      "SoundDuration": 283333,
      "Delta": 24666679
    },
    {
      "NoteNumber": 64,
      "Velocity": 100,
      "Duration": 616667,
      "SoundDuration": 616667,
      "Delta": 25000012
    },
    {
      "NoteNumber": 67,
      "Velocity": 100,
      "Duration": 616667,
      "SoundDuration": 616667,
      "Delta": 25000012
    },
    {
      "NoteNumber": 60,
      "Velocity": 80,
      "Duration": 315277,
      "SoundDuration": 315277,
      "Delta": 25333346
    },
    {
      "NoteNumber": 48,
      "Velocity": 80,
      "Duration": 315277,
      "SoundDuration": 315277,
      "Delta": 25666679
    },
    {
      "NoteNumber": 64,
      "Velocity": 100,
      "Duration": 315277,
      "SoundDuration": 315277,
      "Delta": 25666679
    },
    {
      "NoteNumber": 67,
      "Velocity": 100,
      "Duration": 315277,
      "SoundDuration": 315277,
      "Delta": 25666679
    },
    {
      "NoteNumber": 41,
      "Velocity": 80,
      "Duration": 315277,
      "SoundDuration": 315277,
      "Delta": 26000013
    },
    {
      "NoteNumber": 65,
      "Velocity": 80,
      "Duration": 616667,
      "SoundDuration": 616667,
      "Delta": 26000013
    },
    {
      "NoteNumber": 69,
      "Velocity": 100,
      "Duration": 576389,
      "SoundDuration": 576389,
      "Delta": 26087513
    },
    {
      "NoteNumber": 48,
      "Velocity": 80,
      "Duration": 315277,
      "SoundDuration": 315277,
      "Delta": 26333346
    },
    {
      "NoteNumber": 53,
      "Velocity": 80,
      "Duration": 315277,
      "SoundDuration": 315277,
      "Delta": 26666680
    },
    {
      "NoteNumber": 65,
      "Velocity": 80,
      "Duration": 331944,
      "SoundDuration": 331944,
      "Delta": 26666680
    },
    {
      "NoteNumber": 69,
      "Velocity": 100,
      "Duration": 243055,
      "SoundDuration": 243055,
      "Delta": 26754180
    },
    {
      "NoteNumber": 67,
      "Velocity": 100,
      "Duration": 616667,
      "SoundDuration": 616667,
      "Delta": 27000013
    },
    {
      "NoteNumber": 43,
      "Velocity": 80,
      "Duration": 315277,
      "SoundDuration": 315277,
      "Delta": 27000013
    },
    {
      "NoteNumber": 71,
      "Velocity": 100,
      "Duration": 631944,
      "SoundDuration": 631944,
      "Delta": 27000013
    },
    {
      "NoteNumber": 50,
      "Velocity": 80,
      "Duration": 315277,
      "SoundDuration": 315277,
      "Delta": 27333347
    },
    {
      "NoteNumber": 55,
      "Velocity": 80,
      "Duration": 315277,
      "SoundDuration": 315277,
      "Delta": 27666680
    },
    {
      "NoteNumber": 67,
      "Velocity": 100,
      "Duration": 315277,
      "SoundDuration": 315277,
      "Delta": 27666680
    },
    {
      "NoteNumber": 64,
      "Velocity": 100,
      "Duration": 616667,
      "SoundDuration": 616667,
      "Delta": 28000014
    },
    {
      "NoteNumber": 45,
      "Velocity": 80,
      "Duration": 315277,
      "SoundDuration": 315277,
      "Delta": 28000014
    },
    {
      "NoteNumber": 72,
      "Velocity": 100,
      "Duration": 616667,
      "SoundDuration": 616667,
      "Delta": 28000014
    },
    {
      "NoteNumber": 52,
      "Velocity": 80,
      "Duration": 315277,
      "SoundDuration": 315277,
      "Delta": 28333347
    },
    {
      "NoteNumber": 64,
      "Velocity": 100,
      "Duration": 283333,
      "SoundDuration": 283333,
      "Delta": 28666681
    },
    {
      "NoteNumber": 57,
      "Velocity": 80,
      "Duration": 315277,
      "SoundDuration": 315277,
      "Delta": 28666681
    },
    {
      "NoteNumber": 72,
      "Velocity": 100,
      "Duration": 283333,
      "SoundDuration": 283333,
      "Delta": 28666681
    },
    {
      "NoteNumber": 60,
      "Velocity": 80,
      "Duration": 315277,
      "SoundDuration": 315277,
      "Delta": 29000014
    },
    {
      "NoteNumber": 64,
      "Velocity": 100,
      "Duration": 616667,
      "SoundDuration": 616667,
      "Delta": 29000014
    },
    {
      "NoteNumber": 72,
      "Velocity": 100,
      "Duration": 616667,
      "SoundDuration": 616667,
      "Delta": 29000014
    },
    {
      "NoteNumber": 57,
      "Velocity": 80,
      "Duration": 315277,
      "SoundDuration": 315277,
      "Delta": 29333348
    },
    {
      "NoteNumber": 64,
      "Velocity": 100,
      "Duration": 283334,
      "SoundDuration": 283334,
      "Delta": 29666681
    },
    {
      "NoteNumber": 45,
      "Velocity": 80,
      "Duration": 315277,
      "SoundDuration": 315277,
      "Delta": 29666681
    },
    {
      "NoteNumber": 72,
      "Velocity": 100,
      "Duration": 283334,
      "SoundDuration": 283334,
      "Delta": 29666681
    },
    {
      "NoteNumber": 64,
      "Velocity": 100,
      "Duration": 616667,
      "SoundDuration": 616667,
      "Delta": 30000015
    },
    {
      "NoteNumber": 41,
      "Velocity": 80,
      "Duration": 315277,
      "SoundDuration": 315277,
      "Delta": 30000015
    },
    {
      "NoteNumber": 72,
      "Velocity": 100,
      "Duration": 616667,
      "SoundDuration": 616667,
      "Delta": 30000015
    },
    {
      "NoteNumber": 48,
      "Velocity": 80,
      "Duration": 315277,
      "SoundDuration": 315277,
      "Delta": 30333348
    },
    {
      "NoteNumber": 64,
      "Velocity": 100,
      "Duration": 315277,
      "SoundDuration": 315277,
      "Delta": 30666682
    },
    {
      "NoteNumber": 53,
      "Velocity": 80,
      "Duration": 315277,
      "SoundDuration": 315277,
      "Delta": 30666682
    },
    {
      "NoteNumber": 72,
      "Velocity": 100,
      "Duration": 315277,
      "SoundDuration": 315277,
      "Delta": 30666682
    },
    {
      "NoteNumber": 57,
      "Velocity": 80,
      "Duration": 315277,
      "SoundDuration": 315277,
      "Delta": 31000015
    },
    {
      "NoteNumber": 74,
      "Velocity": 100,
      "Duration": 631944,
      "SoundDuration": 631944,
      "Delta": 31000015
    },
    {
      "NoteNumber": 53,
      "Velocity": 80,
      "Duration": 315277,
      "SoundDuration": 315277,
      "Delta": 31333349
    },
    {
      "NoteNumber": 41,
      "Velocity": 80,
      "Duration": 315277,
      "SoundDuration": 315277,
      "Delta": 31666682
    },
    {
      "NoteNumber": 72,
      "Velocity": 100,
      "Duration": 315277,
      "SoundDuration": 315277,
      "Delta": 31666682
    },
    {
      "NoteNumber": 69,
      "Velocity": 100,
      "Duration": 631944,
      "SoundDuration": 631944,
      "Delta": 32000016
    },
    {
      "NoteNumber": 43,
      "Velocity": 80,
      "Duration": 315277,
      "SoundDuration": 315277,
      "Delta": 32000016
    },
    {
      "NoteNumber": 74,
      "Velocity": 100,
      "Duration": 616667,
      "SoundDuration": 616667,
      "Delta": 32000016
    },
    {
      "NoteNumber": 50,
      "Velocity": 80,
      "Duration": 315277,
      "SoundDuration": 315277,
      "Delta": 32333349
    },
    {
      "NoteNumber": 55,
      "Velocity": 80,
      "Duration": 315277,
      "SoundDuration": 315277,
      "Delta": 32666683
    },
    {
      "NoteNumber": 74,
      "Velocity": 100,
      "Duration": 948611,
      "SoundDuration": 948611,
      "Delta": 32666683
    },
    {
      "NoteNumber": 59,
      "Velocity": 80,
      "Duration": 315277,
      "SoundDuration": 315277,
      "Delta": 33000016
    },
    {
      "NoteNumber": 55,
      "Velocity": 80,
      "Duration": 315277,
      "SoundDuration": 315277,
      "Delta": 33333350
    },
    {
      "NoteNumber": 43,
      "Velocity": 80,
      "Duration": 315277,
      "SoundDuration": 315277,
      "Delta": 33666683
    },
    {
      "NoteNumber": 74,
      "Velocity": 100,
      "Duration": 283334,
      "SoundDuration": 283334,
      "Delta": 33666683
    },
    {
      "NoteNumber": 52,
      "Velocity": 80,
      "Duration": 315277,
      "SoundDuration": 315277,
      "Delta": 34000017
    },
    {
      "NoteNumber": 74,
      "Velocity": 100,
      "Duration": 62500,
      "SoundDuration": 62500,
      "Delta": 34000017
    },
    {
      "NoteNumber": 76,
      "Velocity": 100,
      "Duration": 886111,
      "SoundDuration": 886111,
      "Delta": 34063905
    },
    {
      "NoteNumber": 59,
      "Velocity": 80,
      "Duration": 315277,
      "SoundDuration": 315277,
      "Delta": 34333350
    },
    {
      "NoteNumber": 64,
      "Velocity": 80,
      "Duration": 315277,
      "SoundDuration": 315277,
      "Delta": 34666684
    },
    {
      "NoteNumber": 71,
      "Velocity": 100,
      "Duration": 631944,
      "SoundDuration": 631944,
      "Delta": 35000017
    },
    {
      "NoteNumber": 76,
      "Velocity": 100,
      "Duration": 631944,
      "SoundDuration": 631944,
      "Delta": 35000017
    },
    {
      "NoteNumber": 68,
      "Velocity": 80,
      "Duration": 948611,
      "SoundDuration": 948611,
      "Delta": 35000017
    },
    {
      "NoteNumber": 74,
      "Velocity": 100,
      "Duration": 283334,
      "SoundDuration": 283334,
      "Delta": 35666684
    },
    {
      "NoteNumber": 45,
      "Velocity": 80,
      "Duration": 315277,
      "SoundDuration": 315277,
      "Delta": 36000018
    },
    {
      "NoteNumber": 74,
      "Velocity": 100,
      "Duration": 948611,
      "SoundDuration": 948611,
      "Delta": 36000018
    },
    {
      "NoteNumber": 52,
      "Velocity": 80,
      "Duration": 315277,
      "SoundDuration": 315277,
      "Delta": 36333351
    },
    {
      "NoteNumber": 57,
      "Velocity": 80,
      "Duration": 315277,
      "SoundDuration": 315277,
      "Delta": 36666685
    },
    {
      "NoteNumber": 60,
      "Velocity": 80,
      "Duration": 315277,
      "SoundDuration": 315277,
      "Delta": 37000018
    },
    {
      "NoteNumber": 69,
      "Velocity": 100,
      "Duration": 1898612,
      "SoundDuration": 1898612,
      "Delta": 37000018
    },
    {
      "NoteNumber": 72,
      "Velocity": 100,
      "Duration": 1898612,
      "SoundDuration": 1898612,
      "Delta": 37000018
    },
    {
      "NoteNumber": 57,
      "Velocity": 80,
      "Duration": 315277,
      "SoundDuration": 315277,
      "Delta": 37333352
    },
    {
      "NoteNumber": 52,
      "Velocity": 80,
      "Duration": 315277,
      "SoundDuration": 315277,
      "Delta": 37666685
    },
    {
      "NoteNumber": 45,
      "Velocity": 80,
      "Duration": 315277,
      "SoundDuration": 315277,
      "Delta": 38000019
    },
    {
      "NoteNumber": 52,
      "Velocity": 80,
      "Duration": 315277,
      "SoundDuration": 315277,
      "Delta": 38333352
    },
    {
      "NoteNumber": 57,
      "Velocity": 80,
      "Duration": 315277,
      "SoundDuration": 315277,
      "Delta": 38666686
    },
    {
      "NoteNumber": 60,
      "Velocity": 80,
      "Duration": 315277,
      "SoundDuration": 315277,
      "Delta": 39000019
    },
    {
      "NoteNumber": 64,
      "Velocity": 100,
      "Duration": 631944,
      "SoundDuration": 631944,
      "Delta": 39000019
    },
    {
      "NoteNumber": 57,
      "Velocity": 80,
      "Duration": 315277,
      "SoundDuration": 315277,
      "Delta": 39333353
    },
    {
      "NoteNumber": 45,
      "Velocity": 80,
      "Duration": 315277,
      "SoundDuration": 315277,
      "Delta": 39666686
    },
    {
      "NoteNumber": 67,
      "Velocity": 100,
      "Duration": 315277,
      "SoundDuration": 315277,
      "Delta": 39666686
    },
    {
      "NoteNumber": 69,
      "Velocity": 100,
      "Duration": 948611,
      "SoundDuration": 948611,
      "Delta": 40000020
    },
    {
      "NoteNumber": 41,
      "Velocity": 80,
      "Duration": 315277,
      "SoundDuration": 315277,
      "Delta": 40000020
    },
    {
      "NoteNumber": 48,
      "Velocity": 80,
      "Duration": 315277,
      "SoundDuration": 315277,
      "Delta": 40333353
    },
    {
      "NoteNumber": 53,
      "Velocity": 80,
      "Duration": 315277,
      "SoundDuration": 315277,
      "Delta": 40666687
    },
    {
      "NoteNumber": 57,
      "Velocity": 80,
      "Duration": 315277,
      "SoundDuration": 315277,
      "Delta": 41000020
    },
    {
      "NoteNumber": 69,
      "Velocity": 100,
      "Duration": 1898612,
      "SoundDuration": 1898612,
      "Delta": 41000020
    },
    {
      "NoteNumber": 53,
      "Velocity": 80,
      "Duration": 315277,
      "SoundDuration": 315277,
      "Delta": 41333354
    },
    {
      "NoteNumber": 48,
      "Velocity": 80,
      "Duration": 315277,
      "SoundDuration": 315277,
      "Delta": 41666687
    },
    {
      "NoteNumber": 41,
      "Velocity": 80,
      "Duration": 315277,
      "SoundDuration": 315277,
      "Delta": 42000021
    },
    {
      "NoteNumber": 48,
      "Velocity": 80,
      "Duration": 315277,
      "SoundDuration": 315277,
      "Delta": 42333354
    },
    {
      "NoteNumber": 53,
      "Velocity": 80,
      "Duration": 315277,
      "SoundDuration": 315277,
      "Delta": 42666688
    },
    {
      "NoteNumber": 57,
      "Velocity": 80,
      "Duration": 315277,
      "SoundDuration": 315277,
      "Delta": 43000021
    },
    {
      "NoteNumber": 69,
      "Velocity": 100,
      "Duration": 631944,
      "SoundDuration": 631944,
      "Delta": 43000021
    },
    {
      "NoteNumber": 53,
      "Velocity": 80,
      "Duration": 315277,
      "SoundDuration": 315277,
      "Delta": 43333355
    },
    {
      "NoteNumber": 67,
      "Velocity": 100,
      "Duration": 315277,
      "SoundDuration": 315277,
      "Delta": 43666688
    },
    {
      "NoteNumber": 41,
      "Velocity": 80,
      "Duration": 315277,
      "SoundDuration": 315277,
      "Delta": 43666688
    },
    {
      "NoteNumber": 64,
      "Velocity": 100,
      "Duration": 948611,
      "SoundDuration": 948611,
      "Delta": 44000022
    },
    {
      "NoteNumber": 45,
      "Velocity": 80,
      "Duration": 315277,
      "SoundDuration": 315277,
      "Delta": 44000022
    },
    {
      "NoteNumber": 52,
      "Velocity": 80,
      "Duration": 315277,
      "SoundDuration": 315277,
      "Delta": 44333355
    },
    {
      "NoteNumber": 57,
      "Velocity": 80,
      "Duration": 315277,
      "SoundDuration": 315277,
      "Delta": 44666689
    },
    {
      "NoteNumber": 60,
      "Velocity": 80,
      "Duration": 315277,
      "SoundDuration": 315277,
      "Delta": 45000022
    },
    {
      "NoteNumber": 64,
      "Velocity": 100,
      "Duration": 1898612,
      "SoundDuration": 1898612,
      "Delta": 45000022
    },
    {
      "NoteNumber": 57,
      "Velocity": 80,
      "Duration": 315277,
      "SoundDuration": 315277,
      "Delta": 45333356
    },
    {
      "NoteNumber": 52,
      "Velocity": 80,
      "Duration": 315277,
      "SoundDuration": 315277,
      "Delta": 45666689
    },
    {
      "NoteNumber": 45,
      "Velocity": 80,
      "Duration": 315277,
      "SoundDuration": 315277,
      "Delta": 46000023
    },
    {
      "NoteNumber": 52,
      "Velocity": 80,
      "Duration": 315277,
      "SoundDuration": 315277,
      "Delta": 46333356
    },
    {
      "NoteNumber": 57,
      "Velocity": 80,
      "Duration": 315277,
      "SoundDuration": 315277,
      "Delta": 46666690
    },
    {
      "NoteNumber": 60,
      "Velocity": 80,
      "Duration": 315277,
      "SoundDuration": 315277,
      "Delta": 47000023
    },
    {
      "NoteNumber": 64,
      "Velocity": 100,
      "Duration": 631944,
      "SoundDuration": 631944,
      "Delta": 47000023
    },
    {
      "NoteNumber": 57,
      "Velocity": 80,
      "Duration": 315277,
      "SoundDuration": 315277,
      "Delta": 47333357
    },
    {
      "NoteNumber": 45,
      "Velocity": 80,
      "Duration": 315277,
      "SoundDuration": 315277,
      "Delta": 47666690
    },
    {
      "NoteNumber": 67,
      "Velocity": 100,
      "Duration": 315277,
      "SoundDuration": 315277,
      "Delta": 47666690
    },
    {
      "NoteNumber": 69,
      "Velocity": 100,
      "Duration": 948611,
      "SoundDuration": 948611,
      "Delta": 48000024
    },
    {
      "NoteNumber": 41,
      "Velocity": 80,
      "Duration": 315277,
      "SoundDuration": 315277,
      "Delta": 48000024
    },
    {
      "NoteNumber": 48,
      "Velocity": 80,
      "Duration": 315277,
      "SoundDuration": 315277,
      "Delta": 48333357
    },
    {
      "NoteNumber": 53,
      "Velocity": 80,
      "Duration": 315277,
      "SoundDuration": 315277,
      "Delta": 48666691
    },
    {
      "NoteNumber": 57,
      "Velocity": 80,
      "Duration": 315277,
      "SoundDuration": 315277,
      "Delta": 49000024
    },
    {
      "NoteNumber": 69,
      "Velocity": 100,
      "Duration": 1898612,
      "SoundDuration": 1898612,
      "Delta": 49000024
    },
    {
      "NoteNumber": 53,
      "Velocity": 80,
      "Duration": 315277,
      "SoundDuration": 315277,
      "Delta": 49333358
    },
    {
      "NoteNumber": 48,
      "Velocity": 80,
      "Duration": 315277,
      "SoundDuration": 315277,
      "Delta": 49666691
    },
    {
      "NoteNumber": 41,
      "Velocity": 80,
      "Duration": 315277,
      "SoundDuration": 315277,
      "Delta": 50000025
    },
    {
      "NoteNumber": 48,
      "Velocity": 80,
      "Duration": 315277,
      "SoundDuration": 315277,
      "Delta": 50333358
    },
    {
      "NoteNumber": 53,
      "Velocity": 80,
      "Duration": 315277,
      "SoundDuration": 315277,
      "Delta": 50666692
    },
    {
      "NoteNumber": 57,
      "Velocity": 80,
      "Duration": 315277,
      "SoundDuration": 315277,
      "Delta": 51000025
    },
    {
      "NoteNumber": 69,
      "Velocity": 100,
      "Duration": 631944,
      "SoundDuration": 631944,
      "Delta": 51000025
    },
    {
      "NoteNumber": 53,
      "Velocity": 80,
      "Duration": 315277,
      "SoundDuration": 315277,
      "Delta": 51333359
    },
    {
      "NoteNumber": 67,
      "Velocity": 100,
      "Duration": 315277,
      "SoundDuration": 315277,
      "Delta": 51666692
    },
    {
      "NoteNumber": 41,
      "Velocity": 80,
      "Duration": 315277,
      "SoundDuration": 315277,
      "Delta": 51666692
    },
    {
      "NoteNumber": 64,
      "Velocity": 100,
      "Duration": 631944,
      "SoundDuration": 631944,
      "Delta": 52000026
    },
    {
      "NoteNumber": 36,
      "Velocity": 80,
      "Duration": 315277,
      "SoundDuration": 315277,
      "Delta": 52000026
    },
    {
      "NoteNumber": 43,
      "Velocity": 80,
      "Duration": 315277,
      "SoundDuration": 315277,
      "Delta": 52333359
    },
    {
      "NoteNumber": 48,
      "Velocity": 80,
      "Duration": 315277,
      "SoundDuration": 315277,
      "Delta": 52666693
    },
    {
      "NoteNumber": 65,
      "Velocity": 100,
      "Duration": 631944,
      "SoundDuration": 631944,
      "Delta": 52666693
    },
    {
      "NoteNumber": 52,
      "Velocity": 80,
      "Duration": 315277,
      "SoundDuration": 315277,
      "Delta": 53000026
    },
    {
      "NoteNumber": 48,
      "Velocity": 80,
      "Duration": 315277,
      "SoundDuration": 315277,
      "Delta": 53333360
    },
    {
      "NoteNumber": 64,
      "Velocity": 100,
      "Duration": 315277,
      "SoundDuration": 315277,
      "Delta": 53333360
    },
    {
      "NoteNumber": 43,
      "Velocity": 80,
      "Duration": 283334,
      "SoundDuration": 283334,
      "Delta": 53666693
    },
    {
      "NoteNumber": 62,
      "Velocity": 100,
      "Duration": 1581945,
      "SoundDuration": 1581945,
      "Delta": 53666693
    },
    {
      "NoteNumber": 43,
      "Velocity": 80,
      "Duration": 315277,
      "SoundDuration": 315277,
      "Delta": 54000027
    },
    {
      "NoteNumber": 50,
      "Velocity": 80,
      "Duration": 315277,
      "SoundDuration": 315277,
      "Delta": 54333360
    },
    {
      "NoteNumber": 55,
      "Velocity": 80,
      "Duration": 315277,
      "SoundDuration": 315277,
      "Delta": 54666694
    },
    {
      "NoteNumber": 59,
      "Velocity": 80,
      "Duration": 315277,
      "SoundDuration": 315277,
      "Delta": 55000027
    },
    {
      "NoteNumber": 55,
      "Velocity": 80,
      "Duration": 315277,
      "SoundDuration": 315277,
      "Delta": 55333361
    },
    {
      "NoteNumber": 60,
      "Velocity": 100,
      "Duration": 315277,
      "SoundDuration": 315277,
      "Delta": 55333361
    },
    {
      "NoteNumber": 43,
      "Velocity": 80,
      "Duration": 315277,
      "SoundDuration": 315277,
      "Delta": 55666694
    },
    {
      "NoteNumber": 59,
      "Velocity": 100,
      "Duration": 315277,
      "SoundDuration": 315277,
      "Delta": 55666694
    },
    {
      "NoteNumber": 45,
      "Velocity": 80,
      "Duration": 1898612,
      "SoundDuration": 1898612,
      "Delta": 56000028
    },
    {
      "NoteNumber": 57,
      "Velocity": 80,
      "Duration": 1898612,
      "SoundDuration": 1898612,
      "Delta": 56000028
    },
    {
      "NoteNumber": 48,
      "Velocity": 80,
      "Duration": 315277,
      "SoundDuration": 315277,
      "Delta": 58000029
    },
    {
      "NoteNumber": 55,
      "Velocity": 80,
      "Duration": 315277,
      "SoundDuration": 315277,
      "Delta": 58333362
    },
    {
      "NoteNumber": 60,
      "Velocity": 80,
      "Duration": 315277,
      "SoundDuration": 315277,
      "Delta": 58666696
    },
    {
      "NoteNumber": 64,
      "Velocity": 80,
      "Duration": 315277,
      "SoundDuration": 315277,
      "Delta": 59000029
    },
    {
      "NoteNumber": 60,
      "Velocity": 80,
      "Duration": 315277,
      "SoundDuration": 315277,
      "Delta": 59333363
    },
    {
      "NoteNumber": 47,
      "Velocity": 80,
      "Duration": 315277,
      "SoundDuration": 315277,
      "Delta": 59666696
    },
    {
      "NoteNumber": 45,
      "Velocity": 80,
      "Duration": 315277,
      "SoundDuration": 315277,
      "Delta": 60000030
    },
    {
      "NoteNumber": 52,
      "Velocity": 80,
      "Duration": 315277,
      "SoundDuration": 315277,
      "Delta": 60333363
    },
    {
      "NoteNumber": 57,
      "Velocity": 80,
      "Duration": 315277,
      "SoundDuration": 315277,
      "Delta": 60666697
    },
    {
      "NoteNumber": 60,
      "Velocity": 80,
      "Duration": 315277,
      "SoundDuration": 315277,
      "Delta": 61000030
    },
    {
      "NoteNumber": 57,
      "Velocity": 80,
      "Duration": 315277,
      "SoundDuration": 315277,
      "Delta": 61333364
    },
    {
      "NoteNumber": 64,
      "Velocity": 100,
      "Duration": 315277,
      "SoundDuration": 315277,
      "Delta": 61666697
    },
    {
      "NoteNumber": 45,
      "Velocity": 80,
      "Duration": 315277,
      "SoundDuration": 315277,
      "Delta": 61666697
    },
    {
      "NoteNumber": 48,
      "Velocity": 80,
      "Duration": 315277,
      "SoundDuration": 315277,
      "Delta": 62000031
    },
    {
      "NoteNumber": 67,
      "Velocity": 100,
      "Duration": 616667,
      "SoundDuration": 616667,
      "Delta": 62000031
    },
    {
      "NoteNumber": 55,
      "Velocity": 80,
      "Duration": 315277,
      "SoundDuration": 315277,
      "Delta": 62333364
    },
    {
      "NoteNumber": 60,
      "Velocity": 80,
      "Duration": 315277,
      "SoundDuration": 315277,
      "Delta": 62666698
    },
    {
      "NoteNumber": 67,
      "Velocity": 100,
      "Duration": 283333,
      "SoundDuration": 283333,
      "Delta": 62666698
    },
    {
      "NoteNumber": 64,
      "Velocity": 80,
      "Duration": 315277,
      "SoundDuration": 315277,
      "Delta": 63000031
    },
    {
      "NoteNumber": 67,
      "Velocity": 100,
      "Duration": 616667,
      "SoundDuration": 616667,
      "Delta": 63000031
    },
    {
      "NoteNumber": 60,
      "Velocity": 80,
      "Duration": 315277,
      "SoundDuration": 315277,
      "Delta": 63333365
    },
    {
      "NoteNumber": 47,
      "Velocity": 80,
      "Duration": 315277,
      "SoundDuration": 315277,
      "Delta": 63666698
    },
    {
      "NoteNumber": 67,
      "Velocity": 100,
      "Duration": 315277,
      "SoundDuration": 315277,
      "Delta": 63666698
    },
    {
      "NoteNumber": 45,
      "Velocity": 80,
      "Duration": 315277,
      "SoundDuration": 315277,
      "Delta": 64000032
    },
    {
      "NoteNumber": 69,
      "Velocity": 100,
      "Duration": 283333,
      "SoundDuration": 283333,
      "Delta": 64000032
    },
    {
      "NoteNumber": 52,
      "Velocity": 80,
      "Duration": 315277,
      "SoundDuration": 315277,
      "Delta": 64333365
    },
    {
      "NoteNumber": 69,
      "Velocity": 100,
      "Duration": 283333,
      "SoundDuration": 283333,
      "Delta": 64333365
    },
    {
      "NoteNumber": 57,
      "Velocity": 80,
      "Duration": 315277,
      "SoundDuration": 315277,
      "Delta": 64666698
    },
    {
      "NoteNumber": 69,
      "Velocity": 100,
      "Duration": 948611,
      "SoundDuration": 948611,
      "Delta": 64666698
    },
    {
      "NoteNumber": 60,
      "Velocity": 80,
      "Duration": 315277,
      "SoundDuration": 315277,
      "Delta": 65000032
    },
    {
      "NoteNumber": 57,
      "Velocity": 80,
      "Duration": 315277,
      "SoundDuration": 315277,
      "Delta": 65333366
    },
    {
      "NoteNumber": 64,
      "Velocity": 100,
      "Duration": 315277,
      "SoundDuration": 315277,
      "Delta": 65666699
    },
    {
      "NoteNumber": 45,
      "Velocity": 80,
      "Duration": 315277,
      "SoundDuration": 315277,
      "Delta": 65666699
    },
    {
      "NoteNumber": 48,
      "Velocity": 80,
      "Duration": 315277,
      "SoundDuration": 315277,
      "Delta": 66000033
    },
    {
      "NoteNumber": 67,
      "Velocity": 100,
      "Duration": 616667,
      "SoundDuration": 616667,
      "Delta": 66000033
    },
    {
      "NoteNumber": 55,
      "Velocity": 80,
      "Duration": 315277,
      "SoundDuration": 315277,
      "Delta": 66333366
    },
    {
      "NoteNumber": 60,
      "Velocity": 80,
      "Duration": 315277,
      "SoundDuration": 315277,
      "Delta": 66666700
    },
    {
      "NoteNumber": 67,
      "Velocity": 100,
      "Duration": 283333,
      "SoundDuration": 283333,
      "Delta": 66666700
    },
    {
      "NoteNumber": 64,
      "Velocity": 80,
      "Duration": 315277,
      "SoundDuration": 315277,
      "Delta": 67000033
    },
    {
      "NoteNumber": 67,
      "Velocity": 100,
      "Duration": 616667,
      "SoundDuration": 616667,
      "Delta": 67000033
    },
    {
      "NoteNumber": 60,
      "Velocity": 80,
      "Duration": 315277,
      "SoundDuration": 315277,
      "Delta": 67333367
    },
    {
      "NoteNumber": 47,
      "Velocity": 80,
      "Duration": 315277,
      "SoundDuration": 315277,
      "Delta": 67666700
    },
    {
      "NoteNumber": 67,
      "Velocity": 100,
      "Duration": 315277,
      "SoundDuration": 315277,
      "Delta": 67666700
    },
    {
      "NoteNumber": 45,
      "Velocity": 80,
      "Duration": 315277,
      "SoundDuration": 315277,
      "Delta": 68000034
    },
    {
      "NoteNumber": 69,
      "Velocity": 100,
      "Duration": 283333,
      "SoundDuration": 283333,
      "Delta": 68000034
    },
    {
      "NoteNumber": 52,
      "Velocity": 80,
      "Duration": 315277,
      "SoundDuration": 315277,
      "Delta": 68333367
    },
    {
      "NoteNumber": 69,
      "Velocity": 100,
      "Duration": 283334,
      "SoundDuration": 283334,
      "Delta": 68333367
    },
    {
      "NoteNumber": 57,
      "Velocity": 80,
      "Duration": 315277,
      "SoundDuration": 315277,
      "Delta": 68666701
    },
    {
      "NoteNumber": 69,
      "Velocity": 100,
      "Duration": 948611,
      "SoundDuration": 948611,
      "Delta": 68666701
    },
    {
      "NoteNumber": 60,
      "Velocity": 80,
      "Duration": 315277,
      "SoundDuration": 315277,
      "Delta": 69000034
    },
    {
      "NoteNumber": 57,
      "Velocity": 80,
      "Duration": 315277,
      "SoundDuration": 315277,
      "Delta": 69333368
    },
    {
      "NoteNumber": 45,
      "Velocity": 80,
      "Duration": 315277,
      "SoundDuration": 315277,
      "Delta": 69666701
    },
    {
      "NoteNumber": 67,
      "Velocity": 100,
      "Duration": 315277,
      "SoundDuration": 315277,
      "Delta": 69666701
    },
    {
      "NoteNumber": 69,
      "Velocity": 100,
      "Duration": 616667,
      "SoundDuration": 616667,
      "Delta": 70000035
    },
    {
      "NoteNumber": 41,
      "Velocity": 80,
      "Duration": 315277,
      "SoundDuration": 315277,
      "Delta": 70000035
    },
    {
      "NoteNumber": 48,
      "Velocity": 80,
      "Duration": 315277,
      "SoundDuration": 315277,
      "Delta": 70333368
    },
    {
      "NoteNumber": 69,
      "Velocity": 100,
      "Duration": 616667,
      "SoundDuration": 616667,
      "Delta": 70666702
    },
    {
      "NoteNumber": 53,
      "Velocity": 80,
      "Duration": 315277,
      "SoundDuration": 315277,
      "Delta": 70666702
    },
    {
      "NoteNumber": 57,
      "Velocity": 80,
      "Duration": 315277,
      "SoundDuration": 315277,
      "Delta": 71000035
    },
    {
      "NoteNumber": 69,
      "Velocity": 100,
      "Duration": 283333,
      "SoundDuration": 283333,
      "Delta": 71333369
    },
    {
      "NoteNumber": 53,
      "Velocity": 80,
      "Duration": 315277,
      "SoundDuration": 315277,
      "Delta": 71333369
    },
    {
      "NoteNumber": 69,
      "Velocity": 100,
      "Duration": 283334,
      "SoundDuration": 283334,
      "Delta": 71666702
    },
    {
      "NoteNumber": 41,
      "Velocity": 80,
      "Duration": 315277,
      "SoundDuration": 315277,
      "Delta": 71666702
    },
    {
      "NoteNumber": 69,
      "Velocity": 100,
      "Duration": 631944,
      "SoundDuration": 631944,
      "Delta": 72000036
    },
    {
      "NoteNumber": 43,
      "Velocity": 80,
      "Duration": 315277,
      "SoundDuration": 315277,
      "Delta": 72000036
    },
    {
      "NoteNumber": 50,
      "Velocity": 80,
      "Duration": 315277,
      "SoundDuration": 315277,
      "Delta": 72333369
    },
    {
      "NoteNumber": 55,
      "Velocity": 80,
      "Duration": 315277,
      "SoundDuration": 315277,
      "Delta": 72666703
    },
    {
      "NoteNumber": 67,
      "Velocity": 100,
      "Duration": 283333,
      "SoundDuration": 283333,
      "Delta": 72666703
    },
    {
      "NoteNumber": 67,
      "Velocity": 100,
      "Duration": 631944,
      "SoundDuration": 631944,
      "Delta": 73000036
    },
    {
      "NoteNumber": 59,
      "Velocity": 80,
      "Duration": 315277,
      "SoundDuration": 315277,
      "Delta": 73000036
    },
    {
      "NoteNumber": 55,
      "Velocity": 80,
      "Duration": 315277,
      "SoundDuration": 315277,
      "Delta": 73333370
    },
    {
      "NoteNumber": 43,
      "Velocity": 80,
      "Duration": 315277,
      "SoundDuration": 315277,
      "Delta": 73666703
    },
    {
      "NoteNumber": 65,
      "Velocity": 100,
      "Duration": 315277,
      "SoundDuration": 315277,
      "Delta": 73666703
    },
    {
      "NoteNumber": 48,
      "Velocity": 80,
      "Duration": 315277,
      "SoundDuration": 315277,
      "Delta": 74000037
    },
    {
      "NoteNumber": 67,
      "Velocity": 100,
      "Duration": 948611,
      "SoundDuration": 948611,
      "Delta": 74000037
    },
    {
      "NoteNumber": 55,
      "Velocity": 80,
      "Duration": 315277,
      "SoundDuration": 315277,
      "Delta": 74333370
    },
    {
      "NoteNumber": 60,
      "Velocity": 80,
      "Duration": 315277,
      "SoundDuration": 315277,
      "Delta": 74666704
    },
    {
      "NoteNumber": 64,
      "Velocity": 80,
      "Duration": 315277,
      "SoundDuration": 315277,
      "Delta": 75000037
    },
    {
      "NoteNumber": 67,
      "Velocity": 100,
      "Duration": 948611,
      "SoundDuration": 948611,
      "Delta": 75000037
    },
    {
      "NoteNumber": 60,
      "Velocity": 80,
      "Duration": 315277,
      "SoundDuration": 315277,
      "Delta": 75333371
    },
    {
      "NoteNumber": 48,
      "Velocity": 80,
      "Duration": 315277,
      "SoundDuration": 315277,
      "Delta": 75666704
    },
    {
      "NoteNumber": 43,
      "Velocity": 80,
      "Duration": 315277,
      "SoundDuration": 315277,
      "Delta": 76000038
    },
    {
      "NoteNumber": 50,
      "Velocity": 80,
      "Duration": 315277,
      "SoundDuration": 315277,
      "Delta": 76333371
    },
    {
      "NoteNumber": 55,
      "Velocity": 80,
      "Duration": 315277,
      "SoundDuration": 315277,
      "Delta": 76666705
    },
    {
      "NoteNumber": 59,
      "Velocity": 80,
      "Duration": 315277,
      "SoundDuration": 315277,
      "Delta": 77000038
    },
    {
      "NoteNumber": 55,
      "Velocity": 80,
      "Duration": 315277,
      "SoundDuration": 315277,
      "Delta": 77333372
    },
    {
      "NoteNumber": 64,
      "Velocity": 100,
      "Duration": 283334,
      "SoundDuration": 283334,
      "Delta": 77666705
    },
    {
      "NoteNumber": 50,
      "Velocity": 80,
      "Duration": 315277,
      "SoundDuration": 315277,
      "Delta": 77666705
    },
    {
      "NoteNumber": 48,
      "Velocity": 80,
      "Duration": 315277,
      "SoundDuration": 315277,
      "Delta": 78000039
    },
    {
      "NoteNumber": 64,
      "Velocity": 100,
      "Duration": 616667,
      "SoundDuration": 616667,
      "Delta": 78000039
    },
    {
      "NoteNumber": 67,
      "Velocity": 100,
      "Duration": 616667,
      "SoundDuration": 616667,
      "Delta": 78000039
    },
    {
      "NoteNumber": 55,
      "Velocity": 80,
      "Duration": 315277,
      "SoundDuration": 315277,
      "Delta": 78333372
    },
    {
      "NoteNumber": 60,
      "Velocity": 80,
      "Duration": 616667,
      "SoundDuration": 616667,
      "Delta": 78666706
    },
    {
      "NoteNumber": 64,
      "Velocity": 80,
      "Duration": 283333,
      "SoundDuration": 283333,
      "Delta": 78666706
    },
    {
      "NoteNumber": 67,
      "Velocity": 100,
      "Duration": 283333,
      "SoundDuration": 283333,
      "Delta": 78666706
    },
    {
      "NoteNumber": 64,
      "Velocity": 100,
      "Duration": 616667,
      "SoundDuration": 616667,
      "Delta": 79000039
    },
    {
      "NoteNumber": 67,
      "Velocity": 100,
      "Duration": 616667,
      "SoundDuration": 616667,
      "Delta": 79000039
    },
    {
      "NoteNumber": 60,
      "Velocity": 80,
      "Duration": 315277,
      "SoundDuration": 315277,
      "Delta": 79333373
    },
    {
      "NoteNumber": 48,
      "Velocity": 80,
      "Duration": 315277,
      "SoundDuration": 315277,
      "Delta": 79666706
    },
    {
      "NoteNumber": 64,
      "Velocity": 100,
      "Duration": 315277,
      "SoundDuration": 315277,
      "Delta": 79666706
    },
    {
      "NoteNumber": 67,
      "Velocity": 100,
      "Duration": 315277,
      "SoundDuration": 315277,
      "Delta": 79666706
    },
    {
      "NoteNumber": 41,
      "Velocity": 80,
      "Duration": 315277,
      "SoundDuration": 315277,
      "Delta": 80000040
    },
    {
      "NoteNumber": 65,
      "Velocity": 80,
      "Duration": 616667,
      "SoundDuration": 616667,
      "Delta": 80000040
    },
    {
      "NoteNumber": 69,
      "Velocity": 100,
      "Duration": 576389,
      "SoundDuration": 576389,
      "Delta": 80087540
    },
    {
      "NoteNumber": 48,
      "Velocity": 80,
      "Duration": 315277,
      "SoundDuration": 315277,
      "Delta": 80333373
    },
    {
      "NoteNumber": 53,
      "Velocity": 80,
      "Duration": 315277,
      "SoundDuration": 315277,
      "Delta": 80666707
    },
    {
      "NoteNumber": 65,
      "Velocity": 80,
      "Duration": 331944,
      "SoundDuration": 331944,
      "Delta": 80666707
    },
    {
      "NoteNumber": 69,
      "Velocity": 100,
      "Duration": 243055,
      "SoundDuration": 243055,
      "Delta": 80754207
    },
    {
      "NoteNumber": 67,
      "Velocity": 100,
      "Duration": 616667,
      "SoundDuration": 616667,
      "Delta": 81000040
    },
    {
      "NoteNumber": 43,
      "Velocity": 80,
      "Duration": 315277,
      "SoundDuration": 315277,
      "Delta": 81000040
    },
    {
      "NoteNumber": 71,
      "Velocity": 100,
      "Duration": 631944,
      "SoundDuration": 631944,
      "Delta": 81000040
    },
    {
      "NoteNumber": 50,
      "Velocity": 80,
      "Duration": 315277,
      "SoundDuration": 315277,
      "Delta": 81333374
    },
    {
      "NoteNumber": 55,
      "Velocity": 80,
      "Duration": 315277,
      "SoundDuration": 315277,
      "Delta": 81666707
    },
    {
      "NoteNumber": 67,
      "Velocity": 100,
      "Duration": 315277,
      "SoundDuration": 315277,
      "Delta": 81666707
    },
    {
      "NoteNumber": 64,
      "Velocity": 100,
      "Duration": 616667,
      "SoundDuration": 616667,
      "Delta": 82000041
    },
    {
      "NoteNumber": 45,
      "Velocity": 80,
      "Duration": 315277,
      "SoundDuration": 315277,
      "Delta": 82000041
    },
    {
      "NoteNumber": 72,
      "Velocity": 100,
      "Duration": 616667,
      "SoundDuration": 616667,
      "Delta": 82000041
    },
    {
      "NoteNumber": 52,
      "Velocity": 80,
      "Duration": 315277,
      "SoundDuration": 315277,
      "Delta": 82333374
    },
    {
      "NoteNumber": 64,
      "Velocity": 100,
      "Duration": 283333,
      "SoundDuration": 283333,
      "Delta": 82666708
    },
    {
      "NoteNumber": 57,
      "Velocity": 80,
      "Duration": 315277,
      "SoundDuration": 315277,
      "Delta": 82666708
    },
    {
      "NoteNumber": 72,
      "Velocity": 100,
      "Duration": 283333,
      "SoundDuration": 283333,
      "Delta": 82666708
    },
    {
      "NoteNumber": 60,
      "Velocity": 80,
      "Duration": 315277,
      "SoundDuration": 315277,
      "Delta": 83000041
    },
    {
      "NoteNumber": 64,
      "Velocity": 100,
      "Duration": 616667,
      "SoundDuration": 616667,
      "Delta": 83000041
    },
    {
      "NoteNumber": 72,
      "Velocity": 100,
      "Duration": 616667,
      "SoundDuration": 616667,
      "Delta": 83000041
    },
    {
      "NoteNumber": 57,
      "Velocity": 80,
      "Duration": 315277,
      "SoundDuration": 315277,
      "Delta": 83333375
    },
    {
      "NoteNumber": 64,
      "Velocity": 100,
      "Duration": 283334,
      "SoundDuration": 283334,
      "Delta": 83666708
    },
    {
      "NoteNumber": 45,
      "Velocity": 80,
      "Duration": 315277,
      "SoundDuration": 315277,
      "Delta": 83666708
    },
    {
      "NoteNumber": 72,
      "Velocity": 100,
      "Duration": 283334,
      "SoundDuration": 283334,
      "Delta": 83666708
    },
    {
      "NoteNumber": 64,
      "Velocity": 100,
      "Duration": 616667,
      "SoundDuration": 616667,
      "Delta": 84000042
    },
    {
      "NoteNumber": 41,
      "Velocity": 80,
      "Duration": 315277,
      "SoundDuration": 315277,
      "Delta": 84000042
    },
    {
      "NoteNumber": 72,
      "Velocity": 100,
      "Duration": 616667,
      "SoundDuration": 616667,
      "Delta": 84000042
    },
    {
      "NoteNumber": 48,
      "Velocity": 80,
      "Duration": 315277,
      "SoundDuration": 315277,
      "Delta": 84333375
    },
    {
      "NoteNumber": 64,
      "Velocity": 100,
      "Duration": 315277,
      "SoundDuration": 315277,
      "Delta": 84666709
    },
    {
      "NoteNumber": 53,
      "Velocity": 80,
      "Duration": 315277,
      "SoundDuration": 315277,
      "Delta": 84666709
    },
    {
      "NoteNumber": 72,
      "Velocity": 100,
      "Duration": 315277,
      "SoundDuration": 315277,
      "Delta": 84666709
    },
    {
      "NoteNumber": 57,
      "Velocity": 80,
      "Duration": 315277,
      "SoundDuration": 315277,
      "Delta": 85000042
    },
    {
      "NoteNumber": 74,
      "Velocity": 100,
      "Duration": 631944,
      "SoundDuration": 631944,
      "Delta": 85000042
    },
    {
      "NoteNumber": 53,
      "Velocity": 80,
      "Duration": 315277,
      "SoundDuration": 315277,
      "Delta": 85333376
    },
    {
      "NoteNumber": 41,
      "Velocity": 80,
      "Duration": 315277,
      "SoundDuration": 315277,
      "Delta": 85666709
    },
    {
      "NoteNumber": 72,
      "Velocity": 100,
      "Duration": 315277,
      "SoundDuration": 315277,
      "Delta": 85666709
    },
    {
      "NoteNumber": 69,
      "Velocity": 100,
      "Duration": 631944,
      "SoundDuration": 631944,
      "Delta": 86000043
    },
    {
      "NoteNumber": 43,
      "Velocity": 80,
      "Duration": 315277,
      "SoundDuration": 315277,
      "Delta": 86000043
    },
    {
      "NoteNumber": 74,
      "Velocity": 100,
      "Duration": 616667,
      "SoundDuration": 616667,
      "Delta": 86000043
    },
    {
      "NoteNumber": 50,
      "Velocity": 80,
      "Duration": 315277,
      "SoundDuration": 315277,
      "Delta": 86333376
    },
    {
      "NoteNumber": 55,
      "Velocity": 80,
      "Duration": 315277,
      "SoundDuration": 315277,
      "Delta": 86666710
    },
    {
      "NoteNumber": 74,
      "Velocity": 100,
      "Duration": 948611,
      "SoundDuration": 948611,
      "Delta": 86666710
    },
    {
      "NoteNumber": 59,
      "Velocity": 80,
      "Duration": 315277,
      "SoundDuration": 315277,
      "Delta": 87000043
    },
    {
      "NoteNumber": 55,
      "Velocity": 80,
      "Duration": 315277,
      "SoundDuration": 315277,
      "Delta": 87333377
    },
    {
      "NoteNumber": 43,
      "Velocity": 80,
      "Duration": 315277,
      "SoundDuration": 315277,
      "Delta": 87666710
    },
    {
      "NoteNumber": 74,
      "Velocity": 100,
      "Duration": 283334,
      "SoundDuration": 283334,
      "Delta": 87666710
    },
    {
      "NoteNumber": 52,
      "Velocity": 80,
      "Duration": 315277,
      "SoundDuration": 315277,
      "Delta": 88000044
    },
    {
      "NoteNumber": 74,
      "Velocity": 100,
      "Duration": 62500,
      "SoundDuration": 62500,
      "Delta": 88000044
    },
    {
      "NoteNumber": 76,
      "Velocity": 100,
      "Duration": 886111,
      "SoundDuration": 886111,
      "Delta": 88063932
    },
    {
      "NoteNumber": 59,
      "Velocity": 80,
      "Duration": 315277,
      "SoundDuration": 315277,
      "Delta": 88333377
    },
    {
      "NoteNumber": 64,
      "Velocity": 80,
      "Duration": 315277,
      "SoundDuration": 315277,
      "Delta": 88666711
    },
    {
      "NoteNumber": 71,
      "Velocity": 100,
      "Duration": 631944,
      "SoundDuration": 631944,
      "Delta": 89000044
    },
    {
      "NoteNumber": 76,
      "Velocity": 100,
      "Duration": 631944,
      "SoundDuration": 631944,
      "Delta": 89000044
    },
    {
      "NoteNumber": 68,
      "Velocity": 80,
      "Duration": 948611,
      "SoundDuration": 948611,
      "Delta": 89000044
    },
    {
      "NoteNumber": 74,
      "Velocity": 100,
      "Duration": 283334,
      "SoundDuration": 283334,
      "Delta": 89666711
    },
    {
      "NoteNumber": 45,
      "Velocity": 80,
      "Duration": 315277,
      "SoundDuration": 315277,
      "Delta": 90000045
    },
    {
      "NoteNumber": 74,
      "Velocity": 100,
      "Duration": 948611,
      "SoundDuration": 948611,
      "Delta": 90000045
    },
    {
      "NoteNumber": 52,
      "Velocity": 80,
      "Duration": 315277,
      "SoundDuration": 315277,
      "Delta": 90333378
    },
    {
      "NoteNumber": 57,
      "Velocity": 80,
      "Duration": 315277,
      "SoundDuration": 315277,
      "Delta": 90666712
    },
    {
      "NoteNumber": 60,
      "Velocity": 80,
      "Duration": 315277,
      "SoundDuration": 315277,
      "Delta": 91000045
    },
    {
      "NoteNumber": 69,
      "Velocity": 100,
      "Duration": 1898612,
      "SoundDuration": 1898612,
      "Delta": 91000045
    },
    {
      "NoteNumber": 72,
      "Velocity": 100,
      "Duration": 1898612,
      "SoundDuration": 1898612,
      "Delta": 91000045
    },
    {
      "NoteNumber": 57,
      "Velocity": 80,
      "Duration": 315277,
      "SoundDuration": 315277,
      "Delta": 91333379
    },
    {
      "NoteNumber": 52,
      "Velocity": 80,
      "Duration": 315277,
      "SoundDuration": 315277,
      "Delta": 91666712
    },
    {
      "NoteNumber": 45,
      "Velocity": 80,
      "Duration": 315277,
      "SoundDuration": 315277,
      "Delta": 92000046
    },
    {
      "NoteNumber": 52,
      "Velocity": 80,
      "Duration": 315277,
      "SoundDuration": 315277,
      "Delta": 92333379
    },
    {
      "NoteNumber": 57,
      "Velocity": 80,
      "Duration": 315277,
      "SoundDuration": 315277,
      "Delta": 92666713
    },
    {
      "NoteNumber": 60,
      "Velocity": 80,
      "Duration": 315277,
      "SoundDuration": 315277,
      "Delta": 93000046
    },
    {
      "NoteNumber": 64,
      "Velocity": 100,
      "Duration": 631944,
      "SoundDuration": 631944,
      "Delta": 93000046
    },
    {
      "NoteNumber": 57,
      "Velocity": 80,
      "Duration": 315277,
      "SoundDuration": 315277,
      "Delta": 93333380
    },
    {
      "NoteNumber": 45,
      "Velocity": 80,
      "Duration": 315277,
      "SoundDuration": 315277,
      "Delta": 93666713
    },
    {
      "NoteNumber": 67,
      "Velocity": 100,
      "Duration": 315277,
      "SoundDuration": 315277,
      "Delta": 93666713
    },
    {
      "NoteNumber": 69,
      "Velocity": 100,
      "Duration": 948611,
      "SoundDuration": 948611,
      "Delta": 94000047
    },
    {
      "NoteNumber": 41,
      "Velocity": 80,
      "Duration": 315277,
      "SoundDuration": 315277,
      "Delta": 94000047
    },
    {
      "NoteNumber": 48,
      "Velocity": 80,
      "Duration": 315277,
      "SoundDuration": 315277,
      "Delta": 94333380
    },
    {
      "NoteNumber": 53,
      "Velocity": 80,
      "Duration": 315277,
      "SoundDuration": 315277,
      "Delta": 94666714
    },
    {
      "NoteNumber": 57,
      "Velocity": 80,
      "Duration": 315277,
      "SoundDuration": 315277,
      "Delta": 95000047
    },
    {
      "NoteNumber": 69,
      "Velocity": 100,
      "Duration": 1898612,
      "SoundDuration": 1898612,
      "Delta": 95000047
    },
    {
      "NoteNumber": 53,
      "Velocity": 80,
      "Duration": 315277,
      "SoundDuration": 315277,
      "Delta": 95333381
    },
    {
      "NoteNumber": 48,
      "Velocity": 80,
      "Duration": 315277,
      "SoundDuration": 315277,
      "Delta": 95666714
    },
    {
      "NoteNumber": 41,
      "Velocity": 80,
      "Duration": 315277,
      "SoundDuration": 315277,
      "Delta": 96000048
    },
    {
      "NoteNumber": 48,
      "Velocity": 80,
      "Duration": 315277,
      "SoundDuration": 315277,
      "Delta": 96333381
    },
    {
      "NoteNumber": 53,
      "Velocity": 80,
      "Duration": 315277,
      "SoundDuration": 315277,
      "Delta": 96666715
    },
    {
      "NoteNumber": 57,
      "Velocity": 80,
      "Duration": 315277,
      "SoundDuration": 315277,
      "Delta": 97000048
    },
    {
      "NoteNumber": 69,
      "Velocity": 100,
      "Duration": 631944,
      "SoundDuration": 631944,
      "Delta": 97000048
    },
    {
      "NoteNumber": 53,
      "Velocity": 80,
      "Duration": 315277,
      "SoundDuration": 315277,
      "Delta": 97333382
    },
    {
      "NoteNumber": 67,
      "Velocity": 100,
      "Duration": 315277,
      "SoundDuration": 315277,
      "Delta": 97666715
    },
    {
      "NoteNumber": 41,
      "Velocity": 80,
      "Duration": 315277,
      "SoundDuration": 315277,
      "Delta": 97666715
    },
    {
      "NoteNumber": 64,
      "Velocity": 100,
      "Duration": 948611,
      "SoundDuration": 948611,
      "Delta": 98000049
    },
    {
      "NoteNumber": 45,
      "Velocity": 80,
      "Duration": 315277,
      "SoundDuration": 315277,
      "Delta": 98000049
    },
    {
      "NoteNumber": 52,
      "Velocity": 80,
      "Duration": 315277,
      "SoundDuration": 315277,
      "Delta": 98333382
    },
    {
      "NoteNumber": 57,
      "Velocity": 80,
      "Duration": 315277,
      "SoundDuration": 315277,
      "Delta": 98666716
    },
    {
      "NoteNumber": 60,
      "Velocity": 80,
      "Duration": 315277,
      "SoundDuration": 315277,
      "Delta": 99000049
    },
    {
      "NoteNumber": 64,
      "Velocity": 100,
      "Duration": 1898612,
      "SoundDuration": 1898612,
      "Delta": 99000049
    },
    {
      "NoteNumber": 57,
      "Velocity": 80,
      "Duration": 315277,
      "SoundDuration": 315277,
      "Delta": 99333383
    },
    {
      "NoteNumber": 52,
      "Velocity": 80,
      "Duration": 315277,
      "SoundDuration": 315277,
      "Delta": 99666716
    },
    {
      "NoteNumber": 45,
      "Velocity": 80,
      "Duration": 315277,
      "SoundDuration": 315277,
      "Delta": 100000050
    },
    {
      "NoteNumber": 52,
      "Velocity": 80,
      "Duration": 315277,
      "SoundDuration": 315277,
      "Delta": 100333383
    },
    {
      "NoteNumber": 57,
      "Velocity": 80,
      "Duration": 315277,
      "SoundDuration": 315277,
      "Delta": 100666717
    },
    {
      "NoteNumber": 60,
      "Velocity": 80,
      "Duration": 315277,
      "SoundDuration": 315277,
      "Delta": 101000050
    },
    {
      "NoteNumber": 64,
      "Velocity": 100,
      "Duration": 631944,
      "SoundDuration": 631944,
      "Delta": 101000050
    },
    {
      "NoteNumber": 57,
      "Velocity": 80,
      "Duration": 315277,
      "SoundDuration": 315277,
      "Delta": 101333384
    },
    {
      "NoteNumber": 45,
      "Velocity": 80,
      "Duration": 315277,
      "SoundDuration": 315277,
      "Delta": 101666717
    },
    {
      "NoteNumber": 67,
      "Velocity": 100,
      "Duration": 315277,
      "SoundDuration": 315277,
      "Delta": 101666717
    },
    {
      "NoteNumber": 69,
      "Velocity": 100,
      "Duration": 948611,
      "SoundDuration": 948611,
      "Delta": 102000051
    },
    {
      "NoteNumber": 41,
      "Velocity": 80,
      "Duration": 315277,
      "SoundDuration": 315277,
      "Delta": 102000051
    },
    {
      "NoteNumber": 48,
      "Velocity": 80,
      "Duration": 315277,
      "SoundDuration": 315277,
      "Delta": 102333384
    },
    {
      "NoteNumber": 53,
      "Velocity": 80,
      "Duration": 315277,
      "SoundDuration": 315277,
      "Delta": 102666718
    },
    {
      "NoteNumber": 57,
      "Velocity": 80,
      "Duration": 315277,
      "SoundDuration": 315277,
      "Delta": 103000051
    },
    {
      "NoteNumber": 69,
      "Velocity": 100,
      "Duration": 1898612,
      "SoundDuration": 1898612,
      "Delta": 103000051
    },
    {
      "NoteNumber": 53,
      "Velocity": 80,
      "Duration": 315277,
      "SoundDuration": 315277,
      "Delta": 103333385
    },
    {
      "NoteNumber": 48,
      "Velocity": 80,
      "Duration": 315277,
      "SoundDuration": 315277,
      "Delta": 103666718
    },
    {
      "NoteNumber": 41,
      "Velocity": 80,
      "Duration": 315277,
      "SoundDuration": 315277,
      "Delta": 104000052
    },
    {
      "NoteNumber": 48,
      "Velocity": 80,
      "Duration": 315277,
      "SoundDuration": 315277,
      "Delta": 104333385
    },
    {
      "NoteNumber": 53,
      "Velocity": 80,
      "Duration": 315277,
      "SoundDuration": 315277,
      "Delta": 104666719
    },
    {
      "NoteNumber": 57,
      "Velocity": 80,
      "Duration": 315277,
      "SoundDuration": 315277,
      "Delta": 105000052
    },
    {
      "NoteNumber": 69,
      "Velocity": 100,
      "Duration": 631944,
      "SoundDuration": 631944,
      "Delta": 105000052
    },
    {
      "NoteNumber": 53,
      "Velocity": 80,
      "Duration": 315277,
      "SoundDuration": 315277,
      "Delta": 105333386
    },
    {
      "NoteNumber": 67,
      "Velocity": 100,
      "Duration": 315277,
      "SoundDuration": 315277,
      "Delta": 105666719
    },
    {
      "NoteNumber": 41,
      "Velocity": 80,
      "Duration": 315277,
      "SoundDuration": 315277,
      "Delta": 105666719
    },
    {
      "NoteNumber": 64,
      "Velocity": 100,
      "Duration": 631944,
      "SoundDuration": 631944,
      "Delta": 106000053
    },
    {
      "NoteNumber": 36,
      "Velocity": 80,
      "Duration": 315277,
      "SoundDuration": 315277,
      "Delta": 106000053
    },
    {
      "NoteNumber": 43,
      "Velocity": 80,
      "Duration": 315277,
      "SoundDuration": 315277,
      "Delta": 106333386
    },
    {
      "NoteNumber": 48,
      "Velocity": 80,
      "Duration": 315277,
      "SoundDuration": 315277,
      "Delta": 106666720
    },
    {
      "NoteNumber": 65,
      "Velocity": 100,
      "Duration": 631944,
      "SoundDuration": 631944,
      "Delta": 106666720
    },
    {
      "NoteNumber": 52,
      "Velocity": 80,
      "Duration": 315277,
      "SoundDuration": 315277,
      "Delta": 107000053
    },
    {
      "NoteNumber": 48,
      "Velocity": 80,
      "Duration": 315277,
      "SoundDuration": 315277,
      "Delta": 107333387
    },
    {
      "NoteNumber": 64,
      "Velocity": 100,
      "Duration": 315277,
      "SoundDuration": 315277,
      "Delta": 107333387
    },
    {
      "NoteNumber": 43,
      "Velocity": 80,
      "Duration": 283334,
      "SoundDuration": 283334,
      "Delta": 107666720
    },
    {
      "NoteNumber": 62,
      "Velocity": 100,
      "Duration": 1581945,
      "SoundDuration": 1581945,
      "Delta": 107666720
    },
    {
      "NoteNumber": 43,
      "Velocity": 80,
      "Duration": 315277,
      "SoundDuration": 315277,
      "Delta": 108000054
    },
    {
      "NoteNumber": 50,
      "Velocity": 80,
      "Duration": 315277,
      "SoundDuration": 315277,
      "Delta": 108333387
    },
    {
      "NoteNumber": 55,
      "Velocity": 80,
      "Duration": 315277,
      "SoundDuration": 315277,
      "Delta": 108666721
    },
    {
      "NoteNumber": 59,
      "Velocity": 80,
      "Duration": 315277,
      "SoundDuration": 315277,
      "Delta": 109000054
    },
    {
      "NoteNumber": 55,
      "Velocity": 80,
      "Duration": 315277,
      "SoundDuration": 315277,
      "Delta": 109333388
    },
    {
      "NoteNumber": 60,
      "Velocity": 100,
      "Duration": 315277,
      "SoundDuration": 315277,
      "Delta": 109333388
    },
    {
      "NoteNumber": 43,
      "Velocity": 80,
      "Duration": 315277,
      "SoundDuration": 315277,
      "Delta": 109666721
    },
    {
      "NoteNumber": 59,
      "Velocity": 100,
      "Duration": 315277,
      "SoundDuration": 315277,
      "Delta": 109666721
    },
    {
      "NoteNumber": 69,
      "Velocity": 80,
      "Duration": 631944,
      "SoundDuration": 631944,
      "Delta": 110000055
    },
    {
      "NoteNumber": 76,
      "Velocity": 100,
      "Duration": 315277,
      "SoundDuration": 315277,
      "Delta": 110000055
    },
    {
      "NoteNumber": 81,
      "Velocity": 100,
      "Duration": 315277,
      "SoundDuration": 315277,
      "Delta": 110333388
    },
    {
      "NoteNumber": 83,
      "Velocity": 100,
      "Duration": 315277,
      "SoundDuration": 315277,
      "Delta": 110666722
    },
    {
      "NoteNumber": 84,
      "Velocity": 100,
      "Duration": 315277,
      "SoundDuration": 315277,
      "Delta": 111000055
    },
    {
      "NoteNumber": 88,
      "Velocity": 100,
      "Duration": 308333,
      "SoundDuration": 308333,
      "Delta": 111333389
    },
    {
      "NoteNumber": 81,
      "Velocity": 100,
      "Duration": 2231945,
      "SoundDuration": 2231945,
      "Delta": 111666722
    },
    {
      "NoteNumber": 84,
      "Velocity": 100,
      "Duration": 2218056,
      "SoundDuration": 2218056,
      "Delta": 111679222
    },
    {
      "NoteNumber": 88,
      "Velocity": 100,
      "Duration": 2205556,
      "SoundDuration": 2205556,
      "Delta": 111691722
    },
    {
      "NoteNumber": 93,
      "Velocity": 100,
      "Duration": 2193056,
      "SoundDuration": 2193056,
      "Delta": 111704222
    }
  ]
}