{
  "title": "What Was I Made For 3",
  "artist": "Billie Eilish",
  "durationMs": 215381.47487083334,
  "midiSha256": "bb1a0216e78b72c2de15270396f7d8ebc0deeb30797ebbfa769e907ccab4eab7",
  "midiObject": [
    {
      "NoteNumber": 55,
      "Velocity": 64,
      "Duration": 767628,
      "SoundDuration": 767628,
      "Delta": 0
    },
    {
      "NoteNumber": 60,
      "Velocity": 64,
      "Duration": 719231,
      "SoundDuration": 719231,
      "Delta": 0
    },
    {
      "NoteNumber": 64,
      "Velocity": 64,
      "Duration": 719231,
      "SoundDuration": 719231,
      "Delta": 0
    },
    {
      "NoteNumber": 36,
      "Velocity": 64,
      "Duration": 1536859,
      "SoundDuration": 1536859,
      "Delta": 0
    },
    {
      "NoteNumber": 60,
      "Velocity": 64,
      "Duration": 383012,
      "SoundDuration": 383012,
      "Delta": 769231
    },
    {
      "NoteNumber": 64,
      "Velocity": 64,
      "Duration": 383012,
      "SoundDuration": 383012,
      "Delta": 769231
    },
    {
      "NoteNumber": 55,
      "Velocity": 64,
      "Duration": 383012,
      "SoundDuration": 383012,
      "Delta": 1153846
    },
    {
      "NoteNumber": 64,
      "Velocity": 64,
      "Duration": 719231,
      "SoundDuration": 719231,
      "Delta": 1538462
    },
    {
      "NoteNumber": 59,
      "Velocity": 64,
      "Duration": 719231,
      "SoundDuration": 719231,
      "Delta": 1538462
    },
    {
      "NoteNumber": 40,
      "Velocity": 64,
      "Duration": 1536859,
      "SoundDuration": 1536859,
      "Delta": 1538462
    },
    {
      "NoteNumber": 64,
      "Velocity": 64,
      "Duration": 383012,
      "SoundDuration": 383012,
      "Delta": 2307693
    },
    {
      "NoteNumber": 59,
      "Velocity": 64,
      "Duration": 383012,
      "SoundDuration": 383012,
      "Delta": 2307693
    },
    {
      "NoteNumber": 55,
      "Velocity": 64,
      "Duration": 383012,
      "SoundDuration": 383012,
      "Delta": 2692308
    },
    {
      "NoteNumber": 60,
      "Velocity": 64,
      "Duration": 767628,
      "SoundDuration": 767628,
      "Delta": 3076924
    },
    {
      "NoteNumber": 64,
      "Velocity": 64,
      "Duration": 767628,
      "SoundDuration": 767628,
      "Delta": 3076924
    },
    {
      "NoteNumber": 41,
      "Velocity": 64,
      "Duration": 3075321,
      "SoundDuration": 3075321,
      "Delta": 3076924
    },
    {
      "NoteNumber": 71,
      "Velocity": 64,
      "Duration": 383012,
      "SoundDuration": 383012,
      "Delta": 3846155
    },
    {
      "NoteNumber": 72,
      "Velocity": 64,
      "Duration": 767628,
      "SoundDuration": 767628,
      "Delta": 4230770
    },
    {
      "NoteNumber": 67,
      "Velocity": 64,
      "Duration": 383012,
      "SoundDuration": 383012,
      "Delta": 5000001
    },
    {
      "NoteNumber": 64,
      "Velocity": 64,
      "Duration": 190705,
      "SoundDuration": 190705,
      "Delta": 5384617
    },
    {
      "NoteNumber": 62,
      "Velocity": 64,
      "Duration": 190705,
      "SoundDuration": 190705,
      "Delta": 5576924
    },
    {
      "NoteNumber": 64,
      "Velocity": 64,
      "Duration": 334616,
      "SoundDuration": 334616,
      "Delta": 5769232
    },
    {
      "NoteNumber": 55,
      "Velocity": 64,
      "Duration": 767628,
      "SoundDuration": 767628,
      "Delta": 6153848
    },
    {
      "NoteNumber": 60,
      "Velocity": 64,
      "Duration": 719231,
      "SoundDuration": 719231,
      "Delta": 6153848
    },
    {
      "NoteNumber": 64,
      "Velocity": 64,
      "Duration": 719231,
      "SoundDuration": 719231,
      "Delta": 6153848
    },
    {
      "NoteNumber": 36,
      "Velocity": 64,
      "Duration": 1536859,
      "SoundDuration": 1536859,
      "Delta": 6153848
    },
    {
      "NoteNumber": 60,
      "Velocity": 64,
      "Duration": 383012,
      "SoundDuration": 383012,
      "Delta": 6923079
    },
    {
      "NoteNumber": 64,
      "Velocity": 64,
      "Duration": 383012,
      "SoundDuration": 383012,
      "Delta": 6923079
    },
    {
      "NoteNumber": 55,
      "Velocity": 64,
      "Duration": 383012,
      "SoundDuration": 383012,
      "Delta": 7307694
    },
    {
      "NoteNumber": 64,
      "Velocity": 64,
      "Duration": 719231,
      "SoundDuration": 719231,
      "Delta": 7692310
    },
    {
      "NoteNumber": 59,
      "Velocity": 64,
      "Duration": 719231,
      "SoundDuration": 719231,
      "Delta": 7692310
    },
    {
      "NoteNumber": 40,
      "Velocity": 64,
      "Duration": 1536859,
      "SoundDuration": 1536859,
      "Delta": 7692310
    },
    {
      "NoteNumber": 64,
      "Velocity": 64,
      "Duration": 383012,
      "SoundDuration": 383012,
      "Delta": 8461541
    },
    {
      "NoteNumber": 59,
      "Velocity": 64,
      "Duration": 383012,
      "SoundDuration": 383012,
      "Delta": 8461541
    },
    {
      "NoteNumber": 55,
      "Velocity": 64,
      "Duration": 383012,
      "SoundDuration": 383012,
      "Delta": 8846156
    },
    {
      "NoteNumber": 60,
      "Velocity": 64,
      "Duration": 1536859,
      "SoundDuration": 1536859,
      "Delta": 9230772
    },
    {
      "NoteNumber": 41,
      "Velocity": 64,
      "Duration": 3075321,
      "SoundDuration": 3075321,
      "Delta": 9230772
    },
    {
      "NoteNumber": 65,
      "Velocity": 64,
      "Duration": 1536859,
      "SoundDuration": 1536859,
      "Delta": 9230772
    },
    {
      "NoteNumber": 71,
      "Velocity": 64,
      "Duration": 383012,
      "SoundDuration": 383012,
      "Delta": 10769234
    },
    {
      "NoteNumber": 72,
      "Velocity": 64,
      "Duration": 767628,
      "SoundDuration": 767628,
      "Delta": 11153849
    },
    {
      "NoteNumber": 64,
      "Velocity": 64,
      "Duration": 190705,
      "SoundDuration": 190705,
      "Delta": 11923080
    },
    {
      "NoteNumber": 67,
      "Velocity": 64,
      "Duration": 959936,
      "SoundDuration": 959936,
      "Delta": 12115388
    },
    {
      "NoteNumber": 48,
      "Velocity": 64,
      "Duration": 767628,
      "SoundDuration": 767628,
      "Delta": 12307696
    },
    {
      "NoteNumber": 60,
      "Velocity": 64,
      "Duration": 383012,
      "SoundDuration": 383012,
      "Delta": 13076927
    },
    {
      "NoteNumber": 64,
      "Velocity": 64,
      "Duration": 719231,
      "SoundDuration": 719231,
      "Delta": 13076927
    },
    {
      "NoteNumber": 55,
      "Velocity": 64,
      "Duration": 383012,
      "SoundDuration": 383012,
      "Delta": 13461542
    },
    {
      "NoteNumber": 64,
      "Velocity": 64,
      "Duration": 383012,
      "SoundDuration": 383012,
      "Delta": 13846158
    },
    {
      "NoteNumber": 71,
      "Velocity": 64,
      "Duration": 383012,
      "SoundDuration": 383012,
      "Delta": 13846158
    },
    {
      "NoteNumber": 52,
      "Velocity": 64,
      "Duration": 767628,
      "SoundDuration": 767628,
      "Delta": 13846158
    },
    {
      "NoteNumber": 72,
      "Velocity": 64,
      "Duration": 383012,
      "SoundDuration": 383012,
      "Delta": 14230773
    },
    {
      "NoteNumber": 64,
      "Velocity": 64,
      "Duration": 383012,
      "SoundDuration": 383012,
      "Delta": 14615389
    },
    {
      "NoteNumber": 59,
      "Velocity": 64,
      "Duration": 383012,
      "SoundDuration": 383012,
      "Delta": 14615389
    },
    {
      "NoteNumber": 55,
      "Velocity": 64,
      "Duration": 383012,
      "SoundDuration": 383012,
      "Delta": 15000004
    },
    {
      "NoteNumber": 67,
      "Velocity": 64,
      "Duration": 767628,
      "SoundDuration": 767628,
      "Delta": 15000004
    },
    {
      "NoteNumber": 53,
      "Velocity": 64,
      "Duration": 3075321,
      "SoundDuration": 3075321,
      "Delta": 15384620
    },
    {
      "NoteNumber": 65,
      "Velocity": 64,
      "Duration": 1152243,
      "SoundDuration": 1152243,
      "Delta": 15769235
    },
    {
      "NoteNumber": 71,
      "Velocity": 64,
      "Duration": 383012,
      "SoundDuration": 383012,
      "Delta": 16923082
    },
    {
      "NoteNumber": 62,
      "Velocity": 64,
      "Duration": 1536859,
      "SoundDuration": 1536859,
      "Delta": 16923082
    },
    {
      "NoteNumber": 72,
      "Velocity": 64,
      "Duration": 767628,
      "SoundDuration": 767628,
      "Delta": 17307697
    },
    {
      "NoteNumber": 64,
      "Velocity": 64,
      "Duration": 190705,
      "SoundDuration": 190705,
      "Delta": 18076928
    },
    {
      "NoteNumber": 67,
      "Velocity": 64,
      "Duration": 959936,
      "SoundDuration": 959936,
      "Delta": 18269236
    },
    {
      "NoteNumber": 48,
      "Velocity": 64,
      "Duration": 767628,
      "SoundDuration": 767628,
      "Delta": 18461544
    },
    {
      "NoteNumber": 60,
      "Velocity": 64,
      "Duration": 383012,
      "SoundDuration": 383012,
      "Delta": 19230775
    },
    {
      "NoteNumber": 64,
      "Velocity": 64,
      "Duration": 719231,
      "SoundDuration": 719231,
      "Delta": 19230775
    },
    {
      "NoteNumber": 55,
      "Velocity": 64,
      "Duration": 383012,
      "SoundDuration": 383012,
      "Delta": 19615390
    },
    {
      "NoteNumber": 64,
      "Velocity": 64,
      "Duration": 190705,
      "SoundDuration": 190705,
      "Delta": 20000006
    },
    {
      "NoteNumber": 71,
      "Velocity": 64,
      "Duration": 190705,
      "SoundDuration": 190705,
      "Delta": 20000006
    },
    {
      "NoteNumber": 52,
      "Velocity": 64,
      "Duration": 767628,
      "SoundDuration": 767628,
      "Delta": 20000006
    },
    {
      "NoteNumber": 72,
      "Velocity": 64,
      "Duration": 575320,
      "SoundDuration": 575320,
      "Delta": 20192313
    },
    {
      "NoteNumber": 64,
      "Velocity": 64,
      "Duration": 383012,
      "SoundDuration": 383012,
      "Delta": 20769237
    },
    {
      "NoteNumber": 59,
      "Velocity": 64,
      "Duration": 383012,
      "SoundDuration": 383012,
      "Delta": 20769237
    },
    {
      "NoteNumber": 55,
      "Velocity": 64,
      "Duration": 383012,
      "SoundDuration": 383012,
      "Delta": 21153852
    },
    {
      "NoteNumber": 67,
      "Velocity": 64,
      "Duration": 767628,
      "SoundDuration": 767628,
      "Delta": 21153852
    },
    {
      "NoteNumber": 53,
      "Velocity": 64,
      "Duration": 3075321,
      "SoundDuration": 3075321,
      "Delta": 21538468
    },
    {
      "NoteNumber": 65,
      "Velocity": 64,
      "Duration": 1152243,
      "SoundDuration": 1152243,
      "Delta": 21923083
    },
    {
      "NoteNumber": 60,
      "Velocity": 64,
      "Duration": 2306090,
      "SoundDuration": 2306090,
      "Delta": 22307699
    },
    {
      "NoteNumber": 62,
      "Velocity": 64,
      "Duration": 190705,
      "SoundDuration": 190705,
      "Delta": 23076930
    },
    {
      "NoteNumber": 64,
      "Velocity": 64,
      "Duration": 575320,
      "SoundDuration": 575320,
      "Delta": 23269237
    },
    {
      "NoteNumber": 65,
      "Velocity": 64,
      "Duration": 334615,
      "SoundDuration": 334615,
      "Delta": 23846161
    },
    {
      "NoteNumber": 65,
      "Velocity": 64,
      "Duration": 767628,
      "SoundDuration": 767628,
      "Delta": 24230776
    },
    {
      "NoteNumber": 48,
      "Velocity": 64,
      "Duration": 767628,
      "SoundDuration": 767628,
      "Delta": 24615392
    },
    {
      "NoteNumber": 64,
      "Velocity": 64,
      "Duration": 1103847,
      "SoundDuration": 1103847,
      "Delta": 25000007
    },
    {
      "NoteNumber": 60,
      "Velocity": 64,
      "Duration": 383012,
      "SoundDuration": 383012,
      "Delta": 25384623
    },
    {
      "NoteNumber": 55,
      "Velocity": 64,
      "Duration": 383012,
      "SoundDuration": 383012,
      "Delta": 25769238
    },
    {
      "NoteNumber": 64,
      "Velocity": 64,
      "Duration": 719231,
      "SoundDuration": 719231,
      "Delta": 26153854
    },
    {
      "NoteNumber": 59,
      "Velocity": 64,
      "Duration": 719231,
      "SoundDuration": 719231,
      "Delta": 26153854
    },
    {
      "NoteNumber": 52,
      "Velocity": 64,
      "Duration": 1152243,
      "SoundDuration": 1152243,
      "Delta": 26153854
    },
    {
      "NoteNumber": 64,
      "Velocity": 64,
      "Duration": 719231,
      "SoundDuration": 719231,
      "Delta": 26923085
    },
    {
      "NoteNumber": 59,
      "Velocity": 64,
      "Duration": 767628,
      "SoundDuration": 767628,
      "Delta": 26923085
    },
    {
      "NoteNumber": 55,
      "Velocity": 64,
      "Duration": 383012,
      "SoundDuration": 383012,
      "Delta": 27307700
    },
    {
      "NoteNumber": 60,
      "Velocity": 64,
      "Duration": 1536859,
      "SoundDuration": 1536859,
      "Delta": 27692316
    },
    {
      "NoteNumber": 64,
      "Velocity": 64,
      "Duration": 1536859,
      "SoundDuration": 1536859,
      "Delta": 27692316
    },
    {
      "NoteNumber": 53,
      "Velocity": 64,
      "Duration": 3075321,
      "SoundDuration": 3075321,
      "Delta": 27692316
    },
    {
      "NoteNumber": 62,
      "Velocity": 64,
      "Duration": 383012,
      "SoundDuration": 383012,
      "Delta": 29230778
    },
    {
      "NoteNumber": 64,
      "Velocity": 64,
      "Duration": 190705,
      "SoundDuration": 190705,
      "Delta": 29615393
    },
    {
      "NoteNumber": 65,
      "Velocity": 64,
      "Duration": 526923,
      "SoundDuration": 526923,
      "Delta": 29807701
    },
    {
      "NoteNumber": 65,
      "Velocity": 64,
      "Duration": 767628,
      "SoundDuration": 767628,
      "Delta": 30384624
    },
    {
      "NoteNumber": 48,
      "Velocity": 64,
      "Duration": 767628,
      "SoundDuration": 767628,
      "Delta": 30769240
    },
    {
      "NoteNumber": 64,
      "Velocity": 64,
      "Duration": 1103847,
      "SoundDuration": 1103847,
      "Delta": 31153855
    },
    {
      "NoteNumber": 60,
      "Velocity": 64,
      "Duration": 383012,
      "SoundDuration": 383012,
      "Delta": 31538471
    },
    {
      "NoteNumber": 55,
      "Velocity": 64,
      "Duration": 383012,
      "SoundDuration": 383012,
      "Delta": 31923086
    },
    {
      "NoteNumber": 64,
      "Velocity": 64,
      "Duration": 719230,
      "SoundDuration": 719230,
      "Delta": 32307702
    },
    {
      "NoteNumber": 59,
      "Velocity": 64,
      "Duration": 719230,
      "SoundDuration": 719230,
      "Delta": 32307702
    },
    {
      "NoteNumber": 52,
      "Velocity": 64,
      "Duration": 1152243,
      "SoundDuration": 1152243,
      "Delta": 32307702
    },
    {
      "NoteNumber": 64,
      "Velocity": 64,
      "Duration": 719232,
      "SoundDuration": 719232,
      "Delta": 33076932
    },
    {
      "NoteNumber": 59,
      "Velocity": 64,
      "Duration": 767628,
      "SoundDuration": 767628,
      "Delta": 33076932
    },
    {
      "NoteNumber": 55,
      "Velocity": 64,
      "Duration": 383012,
      "SoundDuration": 383012,
      "Delta": 33461548
    },
    {
      "NoteNumber": 60,
      "Velocity": 64,
      "Duration": 1536859,
      "SoundDuration": 1536859,
      "Delta": 33846164
    },
    {
      "NoteNumber": 64,
      "Velocity": 64,
      "Duration": 1536859,
      "SoundDuration": 1536859,
      "Delta": 33846164
    },
    {
      "NoteNumber": 53,
      "Velocity": 64,
      "Duration": 3075321,
      "SoundDuration": 3075321,
      "Delta": 33846164
    },
    {
      "NoteNumber": 71,
      "Velocity": 80,
      "Duration": 383012,
      "SoundDuration": 383012,
      "Delta": 35384626
    },
    {
      "NoteNumber": 72,
      "Velocity": 80,
      "Duration": 383012,
      "SoundDuration": 383012,
      "Delta": 35769241
    },
    {
      "NoteNumber": 64,
      "Velocity": 80,
      "Duration": 383012,
      "SoundDuration": 383012,
      "Delta": 36153857
    },
    {
      "NoteNumber": 67,
      "Velocity": 80,
      "Duration": 1103847,
      "SoundDuration": 1103847,
      "Delta": 36538472
    },
    {
      "NoteNumber": 60,
      "Velocity": 80,
      "Duration": 719231,
      "SoundDuration": 719231,
      "Delta": 36923088
    },
    {
      "NoteNumber": 64,
      "Velocity": 80,
      "Duration": 719231,
      "SoundDuration": 719231,
      "Delta": 36923088
    },
    {
      "NoteNumber": 36,
      "Velocity": 80,
      "Duration": 767628,
      "SoundDuration": 767628,
      "Delta": 36923088
    },
    {
      "NoteNumber": 60,
      "Velocity": 80,
      "Duration": 383012,
      "SoundDuration": 383012,
      "Delta": 37692319
    },
    {
      "NoteNumber": 64,
      "Velocity": 80,
      "Duration": 719231,
      "SoundDuration": 719231,
      "Delta": 37692319
    },
    {
      "NoteNumber": 67,
      "Velocity": 80,
      "Duration": 719231,
      "SoundDuration": 719231,
      "Delta": 37692319
    },
    {
      "NoteNumber": 55,
      "Velocity": 80,
      "Duration": 383012,
      "SoundDuration": 383012,
      "Delta": 38076934
    },
    {
      "NoteNumber": 64,
      "Velocity": 80,
      "Duration": 383012,
      "SoundDuration": 383012,
      "Delta": 38461550
    },
    {
      "NoteNumber": 40,
      "Velocity": 80,
      "Duration": 767628,
      "SoundDuration": 767628,
      "Delta": 38461550
    },
    {
      "NoteNumber": 71,
      "Velocity": 80,
      "Duration": 383012,
      "SoundDuration": 383012,
      "Delta": 38461550
    },
    {
      "NoteNumber": 67,
      "Velocity": 80,
      "Duration": 383012,
      "SoundDuration": 383012,
      "Delta": 38461550
    },
    {
      "NoteNumber": 72,
      "Velocity": 80,
      "Duration": 383012,
      "SoundDuration": 383012,
      "Delta": 38846165
    },
    {
      "NoteNumber": 64,
      "Velocity": 80,
      "Duration": 383012,
      "SoundDuration": 383012,
      "Delta": 39230781
    },
    {
      "NoteNumber": 59,
      "Velocity": 80,
      "Duration": 383012,
      "SoundDuration": 383012,
      "Delta": 39230781
    },
    {
      "NoteNumber": 55,
      "Velocity": 80,
      "Duration": 383012,
      "SoundDuration": 383012,
      "Delta": 39615396
    },
    {
      "NoteNumber": 67,
      "Velocity": 80,
      "Duration": 767628,
      "SoundDuration": 767628,
      "Delta": 39615396
    },
    {
      "NoteNumber": 60,
      "Velocity": 80,
      "Duration": 1536859,
      "SoundDuration": 1536859,
      "Delta": 40000012
    },
    {
      "NoteNumber": 64,
      "Velocity": 80,
      "Duration": 1536859,
      "SoundDuration": 1536859,
      "Delta": 40000012
    },
    {
      "NoteNumber": 41,
      "Velocity": 80,
      "Duration": 3075321,
      "SoundDuration": 3075321,
      "Delta": 40000012
    },
    {
      "NoteNumber": 53,
      "Velocity": 80,
      "Duration": 3075321,
      "SoundDuration": 3075321,
      "Delta": 40000012
    },
    {
      "NoteNumber": 65,
      "Velocity": 80,
      "Duration": 1103847,
      "SoundDuration": 1103847,
      "Delta": 40384627
    },
    {
      "NoteNumber": 71,
      "Velocity": 80,
      "Duration": 383012,
      "SoundDuration": 383012,
      "Delta": 41538474
    },
    {
      "NoteNumber": 65,
      "Velocity": 80,
      "Duration": 383012,
      "SoundDuration": 383012,
      "Delta": 41538474
    },
    {
      "NoteNumber": 72,
      "Velocity": 80,
      "Duration": 383012,
      "SoundDuration": 383012,
      "Delta": 41923089
    },
    {
      "NoteNumber": 64,
      "Velocity": 80,
      "Duration": 383012,
      "SoundDuration": 383012,
      "Delta": 42307705
    },
    {
      "NoteNumber": 67,
      "Velocity": 80,
      "Duration": 1103847,
      "SoundDuration": 1103847,
      "Delta": 42692320
    },
    {
      "NoteNumber": 60,
      "Velocity": 80,
      "Duration": 719231,
      "SoundDuration": 719231,
      "Delta": 43076936
    },
    {
      "NoteNumber": 64,
      "Velocity": 80,
      "Duration": 719231,
      "SoundDuration": 719231,
      "Delta": 43076936
    },
    {
      "NoteNumber": 36,
      "Velocity": 80,
      "Duration": 767628,
      "SoundDuration": 767628,
      "Delta": 43076936
    },
    {
      "NoteNumber": 60,
      "Velocity": 80,
      "Duration": 383012,
      "SoundDuration": 383012,
      "Delta": 43846167
    },
    {
      "NoteNumber": 64,
      "Velocity": 80,
      "Duration": 719231,
      "SoundDuration": 719231,
      "Delta": 43846167
    },
    {
      "NoteNumber": 67,
      "Velocity": 80,
      "Duration": 719231,
      "SoundDuration": 719231,
      "Delta": 43846167
    },
    {
      "NoteNumber": 55,
      "Velocity": 80,
      "Duration": 383012,
      "SoundDuration": 383012,
      "Delta": 44230782
    },
    {
      "NoteNumber": 64,
      "Velocity": 80,
      "Duration": 383012,
      "SoundDuration": 383012,
      "Delta": 44615398
    },
    {
      "NoteNumber": 40,
      "Velocity": 80,
      "Duration": 767628,
      "SoundDuration": 767628,
      "Delta": 44615398
    },
    {
      "NoteNumber": 71,
      "Velocity": 80,
      "Duration": 383012,
      "SoundDuration": 383012,
      "Delta": 44615398
    },
    {
      "NoteNumber": 67,
      "Velocity": 80,
      "Duration": 383012,
      "SoundDuration": 383012,
      "Delta": 44615398
    },
    {
      "NoteNumber": 72,
      "Velocity": 80,
      "Duration": 383012,
      "SoundDuration": 383012,
      "Delta": 45000013
    },
    {
      "NoteNumber": 59,
      "Velocity": 80,
      "Duration": 383012,
      "SoundDuration": 383012,
      "Delta": 45384629
    },
    {
      "NoteNumber": 67,
      "Velocity": 80,
      "Duration": 334615,
      "SoundDuration": 334615,
      "Delta": 45384629
    },
    {
      "NoteNumber": 55,
      "Velocity": 80,
      "Duration": 383012,
      "SoundDuration": 383012,
      "Delta": 45769244
    },
    {
      "NoteNumber": 67,
      "Velocity": 80,
      "Duration": 767628,
      "SoundDuration": 767628,
      "Delta": 45769244
    },
    {
      "NoteNumber": 60,
      "Velocity": 80,
      "Duration": 1536859,
      "SoundDuration": 1536859,
      "Delta": 46153860
    },
    {
      "NoteNumber": 64,
      "Velocity": 80,
      "Duration": 1103846,
      "SoundDuration": 1103846,
      "Delta": 46153860
    },
    {
      "NoteNumber": 41,
      "Velocity": 80,
      "Duration": 3075321,
      "SoundDuration": 3075321,
      "Delta": 46153860
    },
    {
      "NoteNumber": 53,
      "Velocity": 80,
      "Duration": 3075321,
      "SoundDuration": 3075321,
      "Delta": 46153860
    },
    {
      "NoteNumber": 65,
      "Velocity": 80,
      "Duration": 767628,
      "SoundDuration": 767628,
      "Delta": 46538475
    },
    {
      "NoteNumber": 64,
      "Velocity": 80,
      "Duration": 383012,
      "SoundDuration": 383012,
      "Delta": 47307706
    },
    {
      "NoteNumber": 62,
      "Velocity": 80,
      "Duration": 383012,
      "SoundDuration": 383012,
      "Delta": 47692322
    },
    {
      "NoteNumber": 64,
      "Velocity": 80,
      "Duration": 190705,
      "SoundDuration": 190705,
      "Delta": 48076937
    },
    {
      "NoteNumber": 65,
      "Velocity": 80,
      "Duration": 526923,
      "SoundDuration": 526923,
      "Delta": 48269245
    },
    {
      "NoteNumber": 65,
      "Velocity": 80,
      "Duration": 767628,
      "SoundDuration": 767628,
      "Delta": 48846168
    },
    {
      "NoteNumber": 36,
      "Velocity": 80,
      "Duration": 767628,
      "SoundDuration": 767628,
      "Delta": 49230784
    },
    {
      "NoteNumber": 64,
      "Velocity": 80,
      "Duration": 1103847,
      "SoundDuration": 1103847,
      "Delta": 49615399
    },
    {
      "NoteNumber": 60,
      "Velocity": 80,
      "Duration": 383012,
      "SoundDuration": 383012,
      "Delta": 50000015
    },
    {
      "NoteNumber": 55,
      "Velocity": 80,
      "Duration": 383012,
      "SoundDuration": 383012,
      "Delta": 50384630
    },
    {
      "NoteNumber": 64,
      "Velocity": 80,
      "Duration": 719231,
      "SoundDuration": 719231,
      "Delta": 50769246
    },
    {
      "NoteNumber": 59,
      "Velocity": 80,
      "Duration": 719231,
      "SoundDuration": 719231,
      "Delta": 50769246
    },
    {
      "NoteNumber": 40,
      "Velocity": 80,
      "Duration": 1536859,
      "SoundDuration": 1536859,
      "Delta": 50769246
    },
    {
      "NoteNumber": 64,
      "Velocity": 80,
      "Duration": 383012,
      "SoundDuration": 383012,
      "Delta": 51538477
    },
    {
      "NoteNumber": 59,
      "Velocity": 80,
      "Duration": 383012,
      "SoundDuration": 383012,
      "Delta": 51538477
    },
    {
      "NoteNumber": 55,
      "Velocity": 80,
      "Duration": 383012,
      "SoundDuration": 383012,
      "Delta": 51923092
    },
    {
      "NoteNumber": 60,
      "Velocity": 80,
      "Duration": 1536859,
      "SoundDuration": 1536859,
      "Delta": 52307708
    },
    {
      "NoteNumber": 64,
      "Velocity": 80,
      "Duration": 1536859,
      "SoundDuration": 1536859,
      "Delta": 52307708
    },
    {
      "NoteNumber": 41,
      "Velocity": 80,
      "Duration": 3075321,
      "SoundDuration": 3075321,
      "Delta": 52307708
    },
    {
      "NoteNumber": 53,
      "Velocity": 80,
      "Duration": 3075321,
      "SoundDuration": 3075321,
      "Delta": 52307708
    },
    {
      "NoteNumber": 62,
      "Velocity": 80,
      "Duration": 383012,
      "SoundDuration": 383012,
      "Delta": 53846170
    },
    {
      "NoteNumber": 64,
      "Velocity": 80,
      "Duration": 190705,
      "SoundDuration": 190705,
      "Delta": 54230785
    },
    {
      "NoteNumber": 67,
      "Velocity": 80,
      "Duration": 575320,
      "SoundDuration": 575320,
      "Delta": 54423093
    },
    {
      "NoteNumber": 65,
      "Velocity": 80,
      "Duration": 767628,
      "SoundDuration": 767628,
      "Delta": 55000016
    },
    {
      "NoteNumber": 36,
      "Velocity": 80,
      "Duration": 767628,
      "SoundDuration": 767628,
      "Delta": 55384632
    },
    {
      "NoteNumber": 64,
      "Velocity": 80,
      "Duration": 1103847,
      "SoundDuration": 1103847,
      "Delta": 55769247
    },
    {
      "NoteNumber": 60,
      "Velocity": 80,
      "Duration": 383012,
      "SoundDuration": 383012,
      "Delta": 56153863
    },
    {
      "NoteNumber": 55,
      "Velocity": 80,
      "Duration": 383012,
      "SoundDuration": 383012,
      "Delta": 56538478
    },
    {
      "NoteNumber": 64,
      "Velocity": 80,
      "Duration": 719231,
      "SoundDuration": 719231,
      "Delta": 56923094
    },
    {
      "NoteNumber": 59,
      "Velocity": 80,
      "Duration": 719231,
      "SoundDuration": 719231,
      "Delta": 56923094
    },
    {
      "NoteNumber": 40,
      "Velocity": 80,
      "Duration": 1536859,
      "SoundDuration": 1536859,
      "Delta": 56923094
    },
    {
      "NoteNumber": 64,
      "Velocity": 80,
      "Duration": 383012,
      "SoundDuration": 383012,
      "Delta": 57692325
    },
    {
      "NoteNumber": 59,
      "Velocity": 80,
      "Duration": 383012,
      "SoundDuration": 383012,
      "Delta": 57692325
    },
    {
      "NoteNumber": 55,
      "Velocity": 80,
      "Duration": 383012,
      "SoundDuration": 383012,
      "Delta": 58076940
    },
    {
      "NoteNumber": 60,
      "Velocity": 80,
      "Duration": 719231,
      "SoundDuration": 719231,
      "Delta": 58461556
    },
    {
      "NoteNumber": 64,
      "Velocity": 80,
      "Duration": 719231,
      "SoundDuration": 719231,
      "Delta": 58461556
    },
    {
      "NoteNumber": 41,
      "Velocity": 80,
      "Duration": 1152243,
      "SoundDuration": 1152243,
      "Delta": 58461556
    },
    {
      "NoteNumber": 60,
      "Velocity": 80,
      "Duration": 383012,
      "SoundDuration": 383012,
      "Delta": 59230787
    },
    {
      "NoteNumber": 64,
      "Velocity": 80,
      "Duration": 383012,
      "SoundDuration": 383012,
      "Delta": 59230787
    },
    {
      "NoteNumber": 40,
      "Velocity": 80,
      "Duration": 190705,
      "SoundDuration": 190705,
      "Delta": 59615402
    },
    {
      "NoteNumber": 57,
      "Velocity": 80,
      "Duration": 383012,
      "SoundDuration": 383012,
      "Delta": 59615402
    },
    {
      "NoteNumber": 41,
      "Velocity": 80,
      "Duration": 190705,
      "SoundDuration": 190705,
      "Delta": 59807710
    },
    {
      "NoteNumber": 60,
      "Velocity": 80,
      "Duration": 719231,
      "SoundDuration": 719231,
      "Delta": 60000018
    },
    {
      "NoteNumber": 64,
      "Velocity": 80,
      "Duration": 719231,
      "SoundDuration": 719231,
      "Delta": 60000018
    },
    {
      "NoteNumber": 40,
      "Velocity": 80,
      "Duration": 1103846,
      "SoundDuration": 1103846,
      "Delta": 60000018
    },
    {
      "NoteNumber": 60,
      "Velocity": 80,
      "Duration": 383012,
      "SoundDuration": 383012,
      "Delta": 60769249
    },
    {
      "NoteNumber": 64,
      "Velocity": 80,
      "Duration": 383012,
      "SoundDuration": 383012,
      "Delta": 60769249
    },
    {
      "NoteNumber": 40,
      "Velocity": 80,
      "Duration": 142308,
      "SoundDuration": 142308,
      "Delta": 61153864
    },
    {
      "NoteNumber": 67,
      "Velocity": 80,
      "Duration": 767628,
      "SoundDuration": 767628,
      "Delta": 61153864
    },
    {
      "NoteNumber": 40,
      "Velocity": 80,
      "Duration": 190705,
      "SoundDuration": 190705,
      "Delta": 61346172
    },
    {
      "NoteNumber": 60,
      "Velocity": 80,
      "Duration": 719231,
      "SoundDuration": 719231,
      "Delta": 61538480
    },
    {
      "NoteNumber": 65,
      "Velocity": 80,
      "Duration": 719231,
      "SoundDuration": 719231,
      "Delta": 61538480
    },
    {
      "NoteNumber": 38,
      "Velocity": 80,
      "Duration": 2690705,
      "SoundDuration": 2690705,
      "Delta": 61538480
    },
    {
      "NoteNumber": 50,
      "Velocity": 80,
      "Duration": 2642308,
      "SoundDuration": 2642308,
      "Delta": 61538480
    },
    {
      "NoteNumber": 69,
      "Velocity": 81,
      "Duration": 190705,
      "SoundDuration": 190705,
      "Delta": 61923095
    },
    {
      "NoteNumber": 67,
      "Velocity": 81,
      "Duration": 190705,
      "SoundDuration": 190705,
      "Delta": 62115403
    },
    {
      "NoteNumber": 60,
      "Velocity": 82,
      "Duration": 719231,
      "SoundDuration": 719231,
      "Delta": 62307711
    },
    {
      "NoteNumber": 65,
      "Velocity": 82,
      "Duration": 719231,
      "SoundDuration": 719231,
      "Delta": 62307711
    },
    {
      "NoteNumber": 69,
      "Velocity": 82,
      "Duration": 2306090,
      "SoundDuration": 2306090,
      "Delta": 62307711
    },
    {
      "NoteNumber": 60,
      "Velocity": 84,
      "Duration": 719231,
      "SoundDuration": 719231,
      "Delta": 63076942
    },
    {
      "NoteNumber": 65,
      "Velocity": 84,
      "Duration": 719231,
      "SoundDuration": 719231,
      "Delta": 63076942
    },
    {
      "NoteNumber": 60,
      "Velocity": 86,
      "Duration": 767628,
      "SoundDuration": 767628,
      "Delta": 63846173
    },
    {
      "NoteNumber": 65,
      "Velocity": 86,
      "Duration": 719231,
      "SoundDuration": 719231,
      "Delta": 63846173
    },
    {
      "NoteNumber": 50,
      "Velocity": 87,
      "Duration": 383012,
      "SoundDuration": 383012,
      "Delta": 64230788
    },
    {
      "NoteNumber": 55,
      "Velocity": 88,
      "Duration": 3075321,
      "SoundDuration": 3075321,
      "Delta": 64615404
    },
    {
      "NoteNumber": 59,
      "Velocity": 88,
      "Duration": 3075321,
      "SoundDuration": 3075321,
      "Delta": 64615404
    },
    {
      "NoteNumber": 71,
      "Velocity": 88,
      "Duration": 1152243,
      "SoundDuration": 1152243,
      "Delta": 64615404
    },
    {
      "NoteNumber": 65,
      "Velocity": 88,
      "Duration": 3075321,
      "SoundDuration": 3075321,
      "Delta": 64615404
    },
    {
      "NoteNumber": 43,
      "Velocity": 88,
      "Duration": 3075321,
      "SoundDuration": 3075321,
      "Delta": 64615404
    },
    {
      "NoteNumber": 67,
      "Velocity": 91,
      "Duration": 1152243,
      "SoundDuration": 1152243,
      "Delta": 65769250
    },
    {
      "NoteNumber": 71,
      "Velocity": 94,
      "Duration": 767628,
      "SoundDuration": 767628,
      "Delta": 66923097
    },
    {
      "NoteNumber": 64,
      "Velocity": 96,
      "Duration": 719231,
      "SoundDuration": 719231,
      "Delta": 67692328
    },
    {
      "NoteNumber": 36,
      "Velocity": 96,
      "Duration": 1536859,
      "SoundDuration": 1536859,
      "Delta": 67692328
    },
    {
      "NoteNumber": 72,
      "Velocity": 96,
      "Duration": 767628,
      "SoundDuration": 767628,
      "Delta": 67692328
    },
    {
      "NoteNumber": 67,
      "Velocity": 96,
      "Duration": 719231,
      "SoundDuration": 719231,
      "Delta": 67692328
    },
    {
      "NoteNumber": 48,
      "Velocity": 96,
      "Duration": 1536859,
      "SoundDuration": 1536859,
      "Delta": 67692328
    },
    {
      "NoteNumber": 64,
      "Velocity": 96,
      "Duration": 719231,
      "SoundDuration": 719231,
      "Delta": 68461559
    },
    {
      "NoteNumber": 71,
      "Velocity": 96,
      "Duration": 767628,
      "SoundDuration": 767628,
      "Delta": 68461559
    },
    {
      "NoteNumber": 67,
      "Velocity": 96,
      "Duration": 719231,
      "SoundDuration": 719231,
      "Delta": 68461559
    },
    {
      "NoteNumber": 64,
      "Velocity": 96,
      "Duration": 719231,
      "SoundDuration": 719231,
      "Delta": 69230790
    },
    {
      "NoteNumber": 40,
      "Velocity": 96,
      "Duration": 1536859,
      "SoundDuration": 1536859,
      "Delta": 69230790
    },
    {
      "NoteNumber": 67,
      "Velocity": 96,
      "Duration": 719231,
      "SoundDuration": 719231,
      "Delta": 69230790
    },
    {
      "NoteNumber": 52,
      "Velocity": 96,
      "Duration": 1536859,
      "SoundDuration": 1536859,
      "Delta": 69230790
    },
    {
      "NoteNumber": 76,
      "Velocity": 96,
      "Duration": 767628,
      "SoundDuration": 767628,
      "Delta": 69230790
    },
    {
      "NoteNumber": 64,
      "Velocity": 96,
      "Duration": 383012,
      "SoundDuration": 383012,
      "Delta": 70000021
    },
    {
      "NoteNumber": 71,
      "Velocity": 96,
      "Duration": 383012,
      "SoundDuration": 383012,
      "Delta": 70000021
    },
    {
      "NoteNumber": 67,
      "Velocity": 96,
      "Duration": 383012,
      "SoundDuration": 383012,
      "Delta": 70000021
    },
    {
      "NoteNumber": 65,
      "Velocity": 96,
      "Duration": 1921474,
      "SoundDuration": 1921474,
      "Delta": 70384636
    },
    {
      "NoteNumber": 69,
      "Velocity": 96,
      "Duration": 1921474,
      "SoundDuration": 1921474,
      "Delta": 70384636
    },
    {
      "NoteNumber": 41,
      "Velocity": 96,
      "Duration": 3075321,
      "SoundDuration": 3075321,
      "Delta": 70769252
    },
    {
      "NoteNumber": 53,
      "Velocity": 96,
      "Duration": 3075321,
      "SoundDuration": 3075321,
      "Delta": 70769252
    },
    {
      "NoteNumber": 67,
      "Velocity": 80,
      "Duration": 190705,
      "SoundDuration": 190705,
      "Delta": 72884637
    },
    {
      "NoteNumber": 69,
      "Velocity": 80,
      "Duration": 767628,
      "SoundDuration": 767628,
      "Delta": 73076945
    },
    {
      "NoteNumber": 60,
      "Velocity": 80,
      "Duration": 719231,
      "SoundDuration": 719231,
      "Delta": 73846176
    },
    {
      "NoteNumber": 64,
      "Velocity": 80,
      "Duration": 719231,
      "SoundDuration": 719231,
      "Delta": 73846176
    },
    {
      "NoteNumber": 36,
      "Velocity": 80,
      "Duration": 1536859,
      "SoundDuration": 1536859,
      "Delta": 73846176
    },
    {
      "NoteNumber": 67,
      "Velocity": 80,
      "Duration": 383012,
      "SoundDuration": 383012,
      "Delta": 73846176
    },
    {
      "NoteNumber": 48,
      "Velocity": 80,
      "Duration": 1536859,
      "SoundDuration": 1536859,
      "Delta": 73846176
    },
    {
      "NoteNumber": 65,
      "Velocity": 80,
      "Duration": 383012,
      "SoundDuration": 383012,
      "Delta": 74230791
    },
    {
      "NoteNumber": 60,
      "Velocity": 80,
      "Duration": 767628,
      "SoundDuration": 767628,
      "Delta": 74615407
    },
    {
      "NoteNumber": 64,
      "Velocity": 80,
      "Duration": 2306090,
      "SoundDuration": 2306090,
      "Delta": 74615407
    },
    {
      "NoteNumber": 59,
      "Velocity": 80,
      "Duration": 719231,
      "SoundDuration": 719231,
      "Delta": 75384638
    },
    {
      "NoteNumber": 40,
      "Velocity": 80,
      "Duration": 1536859,
      "SoundDuration": 1536859,
      "Delta": 75384638
    },
    {
      "NoteNumber": 52,
      "Velocity": 80,
      "Duration": 1536859,
      "SoundDuration": 1536859,
      "Delta": 75384638
    },
    {
      "NoteNumber": 59,
      "Velocity": 80,
      "Duration": 767628,
      "SoundDuration": 767628,
      "Delta": 76153869
    },
    {
      "NoteNumber": 41,
      "Velocity": 80,
      "Duration": 3075321,
      "SoundDuration": 3075321,
      "Delta": 76923100
    },
    {
      "NoteNumber": 53,
      "Velocity": 80,
      "Duration": 3075321,
      "SoundDuration": 3075321,
      "Delta": 76923100
    },
    {
      "NoteNumber": 57,
      "Velocity": 80,
      "Duration": 767628,
      "SoundDuration": 767628,
      "Delta": 76923100
    },
    {
      "NoteNumber": 69,
      "Velocity": 80,
      "Duration": 719231,
      "SoundDuration": 719231,
      "Delta": 76923100
    },
    {
      "NoteNumber": 65,
      "Velocity": 80,
      "Duration": 767628,
      "SoundDuration": 767628,
      "Delta": 77692331
    },
    {
      "NoteNumber": 69,
      "Velocity": 80,
      "Duration": 719231,
      "SoundDuration": 719231,
      "Delta": 77692331
    },
    {
      "NoteNumber": 69,
      "Velocity": 80,
      "Duration": 767628,
      "SoundDuration": 767628,
      "Delta": 78461562
    },
    {
      "NoteNumber": 71,
      "Velocity": 96,
      "Duration": 767628,
      "SoundDuration": 767628,
      "Delta": 79230793
    },
    {
      "NoteNumber": 62,
      "Velocity": 96,
      "Duration": 767628,
      "SoundDuration": 767628,
      "Delta": 79230793
    },
    {
      "NoteNumber": 64,
      "Velocity": 96,
      "Duration": 767628,
      "SoundDuration": 767628,
      "Delta": 80000024
    },
    {
      "NoteNumber": 36,
      "Velocity": 96,
      "Duration": 1536859,
      "SoundDuration": 1536859,
      "Delta": 80000024
    },
    {
      "NoteNumber": 72,
      "Velocity": 96,
      "Duration": 767628,
      "SoundDuration": 767628,
      "Delta": 80000024
    },
    {
      "NoteNumber": 67,
      "Velocity": 96,
      "Duration": 719231,
      "SoundDuration": 719231,
      "Delta": 80000024
    },
    {
      "NoteNumber": 48,
      "Velocity": 96,
      "Duration": 1536859,
      "SoundDuration": 1536859,
      "Delta": 80000024
    },
    {
      "NoteNumber": 71,
      "Velocity": 96,
      "Duration": 383012,
      "SoundDuration": 383012,
      "Delta": 80769255
    },
    {
      "NoteNumber": 67,
      "Velocity": 96,
      "Duration": 383012,
      "SoundDuration": 383012,
      "Delta": 80769255
    },
    {
      "NoteNumber": 64,
      "Velocity": 96,
      "Duration": 383012,
      "SoundDuration": 383012,
      "Delta": 81153870
    },
    {
      "NoteNumber": 40,
      "Velocity": 96,
      "Duration": 1536859,
      "SoundDuration": 1536859,
      "Delta": 81538486
    },
    {
      "NoteNumber": 67,
      "Velocity": 96,
      "Duration": 383012,
      "SoundDuration": 383012,
      "Delta": 81538486
    },
    {
      "NoteNumber": 52,
      "Velocity": 96,
      "Duration": 1536859,
      "SoundDuration": 1536859,
      "Delta": 81538486
    },
    {
      "NoteNumber": 76,
      "Velocity": 96,
      "Duration": 383012,
      "SoundDuration": 383012,
      "Delta": 81923101
    },
    {
      "NoteNumber": 74,
      "Velocity": 96,
      "Duration": 383012,
      "SoundDuration": 383012,
      "Delta": 82307717
    },
    {
      "NoteNumber": 72,
      "Velocity": 96,
      "Duration": 575320,
      "SoundDuration": 575320,
      "Delta": 82692332
    },
    {
      "NoteNumber": 41,
      "Velocity": 96,
      "Duration": 3075321,
      "SoundDuration": 3075321,
      "Delta": 83076948
    },
    {
      "NoteNumber": 53,
      "Velocity": 96,
      "Duration": 3075321,
      "SoundDuration": 3075321,
      "Delta": 83076948
    },
    {
      "NoteNumber": 71,
      "Velocity": 96,
      "Duration": 190705,
      "SoundDuration": 190705,
      "Delta": 83269255
    },
    {
      "NoteNumber": 69,
      "Velocity": 96,
      "Duration": 1152243,
      "SoundDuration": 1152243,
      "Delta": 83461563
    },
    {
      "NoteNumber": 64,
      "Velocity": 64,
      "Duration": 383012,
      "SoundDuration": 383012,
      "Delta": 85384641
    },
    {
      "NoteNumber": 67,
      "Velocity": 64,
      "Duration": 767628,
      "SoundDuration": 767628,
      "Delta": 85769256
    },
    {
      "NoteNumber": 55,
      "Velocity": 64,
      "Duration": 719231,
      "SoundDuration": 719231,
      "Delta": 86153872
    },
    {
      "NoteNumber": 60,
      "Velocity": 64,
      "Duration": 719231,
      "SoundDuration": 719231,
      "Delta": 86153872
    },
    {
      "NoteNumber": 36,
      "Velocity": 64,
      "Duration": 1536859,
      "SoundDuration": 1536859,
      "Delta": 86153872
    },
    {
      "NoteNumber": 48,
      "Velocity": 64,
      "Duration": 1536859,
      "SoundDuration": 1536859,
      "Delta": 86153872
    },
    {
      "NoteNumber": 64,
      "Velocity": 64,
      "Duration": 1152243,
      "SoundDuration": 1152243,
      "Delta": 86538487
    },
    {
      "NoteNumber": 55,
      "Velocity": 64,
      "Duration": 334615,
      "SoundDuration": 334615,
      "Delta": 86923103
    },
    {
      "NoteNumber": 60,
      "Velocity": 64,
      "Duration": 383012,
      "SoundDuration": 383012,
      "Delta": 86923103
    },
    {
      "NoteNumber": 55,
      "Velocity": 64,
      "Duration": 334616,
      "SoundDuration": 334616,
      "Delta": 87307718
    },
    {
      "NoteNumber": 55,
      "Velocity": 64,
      "Duration": 719231,
      "SoundDuration": 719231,
      "Delta": 87692334
    },
    {
      "NoteNumber": 59,
      "Velocity": 64,
      "Duration": 719231,
      "SoundDuration": 719231,
      "Delta": 87692334
    },
    {
      "NoteNumber": 40,
      "Velocity": 64,
      "Duration": 1536859,
      "SoundDuration": 1536859,
      "Delta": 87692334
    },
    {
      "NoteNumber": 52,
      "Velocity": 64,
      "Duration": 1536859,
      "SoundDuration": 1536859,
      "Delta": 87692334
    },
    {
      "NoteNumber": 65,
      "Velocity": 64,
      "Duration": 767628,
      "SoundDuration": 767628,
      "Delta": 88076949
    },
    {
      "NoteNumber": 55,
      "Velocity": 64,
      "Duration": 767628,
      "SoundDuration": 767628,
      "Delta": 88461565
    },
    {
      "NoteNumber": 59,
      "Velocity": 64,
      "Duration": 767628,
      "SoundDuration": 767628,
      "Delta": 88461565
    },
    {
      "NoteNumber": 64,
      "Velocity": 64,
      "Duration": 2690705,
      "SoundDuration": 2690705,
      "Delta": 88846180
    },
    {
      "NoteNumber": 60,
      "Velocity": 64,
      "Duration": 2306090,
      "SoundDuration": 2306090,
      "Delta": 89230796
    },
    {
      "NoteNumber": 41,
      "Velocity": 64,
      "Duration": 3075321,
      "SoundDuration": 3075321,
      "Delta": 89230796
    },
    {
      "NoteNumber": 53,
      "Velocity": 64,
      "Duration": 3075321,
      "SoundDuration": 3075321,
      "Delta": 89230796
    },
    {
      "NoteNumber": 57,
      "Velocity": 64,
      "Duration": 2306090,
      "SoundDuration": 2306090,
      "Delta": 89230796
    },
    {
      "NoteNumber": 67,
      "Velocity": 64,
      "Duration": 767628,
      "SoundDuration": 767628,
      "Delta": 91923104
    },
    {
      "NoteNumber": 60,
      "Velocity": 64,
      "Duration": 1103846,
      "SoundDuration": 1103846,
      "Delta": 92307720
    },
    {
      "NoteNumber": 57,
      "Velocity": 64,
      "Duration": 719231,
      "SoundDuration": 719231,
      "Delta": 92307720
    },
    {
      "NoteNumber": 45,
      "Velocity": 64,
      "Duration": 767628,
      "SoundDuration": 767628,
      "Delta": 92307720
    },
    {
      "NoteNumber": 64,
      "Velocity": 64,
      "Duration": 767628,
      "SoundDuration": 767628,
      "Delta": 92692335
    },
    {
      "NoteNumber": 57,
      "Velocity": 64,
      "Duration": 767628,
      "SoundDuration": 767628,
      "Delta": 93076951
    },
    {
      "NoteNumber": 60,
      "Velocity": 64,
      "Duration": 767628,
      "SoundDuration": 767628,
      "Delta": 93461566
    },
    {
      "NoteNumber": 55,
      "Velocity": 64,
      "Duration": 1536859,
      "SoundDuration": 1536859,
      "Delta": 93846182
    },
    {
      "NoteNumber": 40,
      "Velocity": 64,
      "Duration": 1536859,
      "SoundDuration": 1536859,
      "Delta": 93846182
    },
    {
      "NoteNumber": 59,
      "Velocity": 64,
      "Duration": 767628,
      "SoundDuration": 767628,
      "Delta": 94230797
    },
    {
      "NoteNumber": 57,
      "Velocity": 64,
      "Duration": 1921474,
      "SoundDuration": 1921474,
      "Delta": 95000028
    },
    {
      "NoteNumber": 41,
      "Velocity": 64,
      "Duration": 3075321,
      "SoundDuration": 3075321,
      "Delta": 95384644
    },
    {
      "NoteNumber": 71,
      "Velocity": 64,
      "Duration": 383012,
      "SoundDuration": 383012,
      "Delta": 96923106
    },
    {
      "NoteNumber": 72,
      "Velocity": 64,
      "Duration": 383012,
      "SoundDuration": 383012,
      "Delta": 97307721
    },
    {
      "NoteNumber": 64,
      "Velocity": 64,
      "Duration": 383012,
      "SoundDuration": 383012,
      "Delta": 97692337
    },
    {
      "NoteNumber": 67,
      "Velocity": 64,
      "Duration": 3459936,
      "SoundDuration": 3459936,
      "Delta": 98076952
    },
    {
      "NoteNumber": 60,
      "Velocity": 64,
      "Duration": 719231,
      "SoundDuration": 719231,
      "Delta": 98461568
    },
    {
      "NoteNumber": 64,
      "Velocity": 64,
      "Duration": 719231,
      "SoundDuration": 719231,
      "Delta": 98461568
    },
    {
      "NoteNumber": 36,
      "Velocity": 64,
      "Duration": 1536859,
      "SoundDuration": 1536859,
      "Delta": 98461568
    },
    {
      "NoteNumber": 60,
      "Velocity": 64,
      "Duration": 383012,
      "SoundDuration": 383012,
      "Delta": 99230799
    },
    {
      "NoteNumber": 64,
      "Velocity": 64,
      "Duration": 383012,
      "SoundDuration": 383012,
      "Delta": 99230799
    },
    {
      "NoteNumber": 55,
      "Velocity": 64,
      "Duration": 383012,
      "SoundDuration": 383012,
      "Delta": 99615414
    },
    {
      "NoteNumber": 64,
      "Velocity": 64,
      "Duration": 719231,
      "SoundDuration": 719231,
      "Delta": 100000030
    },
    {
      "NoteNumber": 59,
      "Velocity": 64,
      "Duration": 719231,
      "SoundDuration": 719231,
      "Delta": 100000030
    },
    {
      "NoteNumber": 40,
      "Velocity": 64,
      "Duration": 1536859,
      "SoundDuration": 1536859,
      "Delta": 100000030
    },
    {
      "NoteNumber": 64,
      "Velocity": 64,
      "Duration": 383012,
      "SoundDuration": 383012,
      "Delta": 100769261
    },
    {
      "NoteNumber": 59,
      "Velocity": 64,
      "Duration": 383012,
      "SoundDuration": 383012,
      "Delta": 100769261
    },
    {
      "NoteNumber": 55,
      "Velocity": 64,
      "Duration": 383012,
      "SoundDuration": 383012,
      "Delta": 101153876
    },
    {
      "NoteNumber": 60,
      "Velocity": 64,
      "Duration": 1536859,
      "SoundDuration": 1536859,
      "Delta": 101538492
    },
    {
      "NoteNumber": 64,
      "Velocity": 64,
      "Duration": 1536859,
      "SoundDuration": 1536859,
      "Delta": 101538492
    },
    {
      "NoteNumber": 41,
      "Velocity": 64,
      "Duration": 3075321,
      "SoundDuration": 3075321,
      "Delta": 101538492
    },
    {
      "NoteNumber": 62,
      "Velocity": 64,
      "Duration": 383012,
      "SoundDuration": 383012,
      "Delta": 103076954
    },
    {
      "NoteNumber": 64,
      "Velocity": 64,
      "Duration": 383012,
      "SoundDuration": 383012,
      "Delta": 103461569
    },
    {
      "NoteNumber": 65,
      "Velocity": 64,
      "Duration": 383012,
      "SoundDuration": 383012,
      "Delta": 103846185
    },
    {
      "NoteNumber": 67,
      "Velocity": 64,
      "Duration": 3459936,
      "SoundDuration": 3459936,
      "Delta": 104230800
    },
    {
      "NoteNumber": 60,
      "Velocity": 64,
      "Duration": 719231,
      "SoundDuration": 719231,
      "Delta": 104615416
    },
    {
      "NoteNumber": 64,
      "Velocity": 64,
      "Duration": 719231,
      "SoundDuration": 719231,
      "Delta": 104615416
    },
    {
      "NoteNumber": 36,
      "Velocity": 64,
      "Duration": 1536859,
      "SoundDuration": 1536859,
      "Delta": 104615416
    },
    {
      "NoteNumber": 60,
      "Velocity": 64,
      "Duration": 383012,
      "SoundDuration": 383012,
      "Delta": 105384647
    },
    {
      "NoteNumber": 64,
      "Velocity": 64,
      "Duration": 383012,
      "SoundDuration": 383012,
      "Delta": 105384647
    },
    {
      "NoteNumber": 55,
      "Velocity": 64,
      "Duration": 383012,
      "SoundDuration": 383012,
      "Delta": 105769262
    },
    {
      "NoteNumber": 64,
      "Velocity": 64,
      "Duration": 719231,
      "SoundDuration": 719231,
      "Delta": 106153878
    },
    {
      "NoteNumber": 59,
      "Velocity": 64,
      "Duration": 719231,
      "SoundDuration": 719231,
      "Delta": 106153878
    },
    {
      "NoteNumber": 40,
      "Velocity": 64,
      "Duration": 1536859,
      "SoundDuration": 1536859,
      "Delta": 106153878
    },
    {
      "NoteNumber": 64,
      "Velocity": 64,
      "Duration": 383012,
      "SoundDuration": 383012,
      "Delta": 106923109
    },
    {
      "NoteNumber": 59,
      "Velocity": 64,
      "Duration": 383012,
      "SoundDuration": 383012,
      "Delta": 106923109
    },
    {
      "NoteNumber": 55,
      "Velocity": 64,
      "Duration": 383012,
      "SoundDuration": 383012,
      "Delta": 107307724
    },
    {
      "NoteNumber": 60,
      "Velocity": 64,
      "Duration": 1536859,
      "SoundDuration": 1536859,
      "Delta": 107692340
    },
    {
      "NoteNumber": 64,
      "Velocity": 64,
      "Duration": 1536859,
      "SoundDuration": 1536859,
      "Delta": 107692340
    },
    {
      "NoteNumber": 41,
      "Velocity": 64,
      "Duration": 3075321,
      "SoundDuration": 3075321,
      "Delta": 107692340
    },
    {
      "NoteNumber": 71,
      "Velocity": 80,
      "Duration": 383012,
      "SoundDuration": 383012,
      "Delta": 109230802
    },
    {
      "NoteNumber": 72,
      "Velocity": 80,
      "Duration": 383012,
      "SoundDuration": 383012,
      "Delta": 109615417
    },
    {
      "NoteNumber": 64,
      "Velocity": 80,
      "Duration": 383012,
      "SoundDuration": 383012,
      "Delta": 110000033
    },
    {
      "NoteNumber": 67,
      "Velocity": 80,
      "Duration": 1103847,
      "SoundDuration": 1103847,
      "Delta": 110384648
    },
    {
      "NoteNumber": 60,
      "Velocity": 80,
      "Duration": 719231,
      "SoundDuration": 719231,
      "Delta": 110769264
    },
    {
      "NoteNumber": 64,
      "Velocity": 80,
      "Duration": 719231,
      "SoundDuration": 719231,
      "Delta": 110769264
    },
    {
      "NoteNumber": 36,
      "Velocity": 80,
      "Duration": 767628,
      "SoundDuration": 767628,
      "Delta": 110769264
    },
    {
      "NoteNumber": 60,
      "Velocity": 80,
      "Duration": 383012,
      "SoundDuration": 383012,
      "Delta": 111538495
    },
    {
      "NoteNumber": 64,
      "Velocity": 80,
      "Duration": 719231,
      "SoundDuration": 719231,
      "Delta": 111538495
    },
    {
      "NoteNumber": 67,
      "Velocity": 80,
      "Duration": 719231,
      "SoundDuration": 719231,
      "Delta": 111538495
    },
    {
      "NoteNumber": 55,
      "Velocity": 80,
      "Duration": 383012,
      "SoundDuration": 383012,
      "Delta": 111923110
    },
    {
      "NoteNumber": 64,
      "Velocity": 80,
      "Duration": 383012,
      "SoundDuration": 383012,
      "Delta": 112307726
    },
    {
      "NoteNumber": 40,
      "Velocity": 80,
      "Duration": 767628,
      "SoundDuration": 767628,
      "Delta": 112307726
    },
    {
      "NoteNumber": 71,
      "Velocity": 80,
      "Duration": 383012,
      "SoundDuration": 383012,
      "Delta": 112307726
    },
    {
      "NoteNumber": 67,
      "Velocity": 80,
      "Duration": 383012,
      "SoundDuration": 383012,
      "Delta": 112307726
    },
    {
      "NoteNumber": 72,
      "Velocity": 80,
      "Duration": 383012,
      "SoundDuration": 383012,
      "Delta": 112692341
    },
    {
      "NoteNumber": 59,
      "Velocity": 80,
      "Duration": 383012,
      "SoundDuration": 383012,
      "Delta": 113076957
    },
    {
      "NoteNumber": 67,
      "Velocity": 80,
      "Duration": 334615,
      "SoundDuration": 334615,
      "Delta": 113076957
    },
    {
      "NoteNumber": 55,
      "Velocity": 80,
      "Duration": 383012,
      "SoundDuration": 383012,
      "Delta": 113461572
    },
    {
      "NoteNumber": 67,
      "Velocity": 80,
      "Duration": 767628,
      "SoundDuration": 767628,
      "Delta": 113461572
    },
    {
      "NoteNumber": 60,
      "Velocity": 80,
      "Duration": 1536859,
      "SoundDuration": 1536859,
      "Delta": 113846188
    },
    {
      "NoteNumber": 64,
      "Velocity": 80,
      "Duration": 1536859,
      "SoundDuration": 1536859,
      "Delta": 113846188
    },
    {
      "NoteNumber": 41,
      "Velocity": 80,
      "Duration": 3075321,
      "SoundDuration": 3075321,
      "Delta": 113846188
    },
    {
      "NoteNumber": 53,
      "Velocity": 80,
      "Duration": 3075321,
      "SoundDuration": 3075321,
      "Delta": 113846188
    },
    {
      "NoteNumber": 65,
      "Velocity": 80,
      "Duration": 1152243,
      "SoundDuration": 1152243,
      "Delta": 114230803
    },
    {
      "NoteNumber": 71,
      "Velocity": 80,
      "Duration": 383012,
      "SoundDuration": 383012,
      "Delta": 115384650
    },
    {
      "NoteNumber": 72,
      "Velocity": 80,
      "Duration": 575320,
      "SoundDuration": 575320,
      "Delta": 115769265
    },
    {
      "NoteNumber": 64,
      "Velocity": 80,
      "Duration": 190705,
      "SoundDuration": 190705,
      "Delta": 116346188
    },
    {
      "NoteNumber": 67,
      "Velocity": 80,
      "Duration": 1103847,
      "SoundDuration": 1103847,
      "Delta": 116538496
    },
    {
      "NoteNumber": 60,
      "Velocity": 80,
      "Duration": 719231,
      "SoundDuration": 719231,
      "Delta": 116923112
    },
    {
      "NoteNumber": 64,
      "Velocity": 80,
      "Duration": 719231,
      "SoundDuration": 719231,
      "Delta": 116923112
    },
    {
      "NoteNumber": 36,
      "Velocity": 80,
      "Duration": 767628,
      "SoundDuration": 767628,
      "Delta": 116923112
    },
    {
      "NoteNumber": 60,
      "Velocity": 80,
      "Duration": 383012,
      "SoundDuration": 383012,
      "Delta": 117692343
    },
    {
      "NoteNumber": 64,
      "Velocity": 80,
      "Duration": 719231,
      "SoundDuration": 719231,
      "Delta": 117692343
    },
    {
      "NoteNumber": 67,
      "Velocity": 80,
      "Duration": 719231,
      "SoundDuration": 719231,
      "Delta": 117692343
    },
    {
      "NoteNumber": 55,
      "Velocity": 80,
      "Duration": 383012,
      "SoundDuration": 383012,
      "Delta": 118076958
    },
    {
      "NoteNumber": 64,
      "Velocity": 80,
      "Duration": 383012,
      "SoundDuration": 383012,
      "Delta": 118461574
    },
    {
      "NoteNumber": 40,
      "Velocity": 80,
      "Duration": 1536859,
      "SoundDuration": 1536859,
      "Delta": 118461574
    },
    {
      "NoteNumber": 71,
      "Velocity": 80,
      "Duration": 383012,
      "SoundDuration": 383012,
      "Delta": 118461574
    },
    {
      "NoteNumber": 67,
      "Velocity": 80,
      "Duration": 383012,
      "SoundDuration": 383012,
      "Delta": 118461574
    },
    {
      "NoteNumber": 72,
      "Velocity": 80,
      "Duration": 383012,
      "SoundDuration": 383012,
      "Delta": 118846189
    },
    {
      "NoteNumber": 59,
      "Velocity": 80,
      "Duration": 383012,
      "SoundDuration": 383012,
      "Delta": 119230805
    },
    {
      "NoteNumber": 67,
      "Velocity": 80,
      "Duration": 334615,
      "SoundDuration": 334615,
      "Delta": 119230805
    },
    {
      "NoteNumber": 67,
      "Velocity": 80,
      "Duration": 767628,
      "SoundDuration": 767628,
      "Delta": 119615420
    },
    {
      "NoteNumber": 60,
      "Velocity": 80,
      "Duration": 1536859,
      "SoundDuration": 1536859,
      "Delta": 120000036
    },
    {
      "NoteNumber": 64,
      "Velocity": 80,
      "Duration": 1536859,
      "SoundDuration": 1536859,
      "Delta": 120000036
    },
    {
      "NoteNumber": 41,
      "Velocity": 80,
      "Duration": 3075321,
      "SoundDuration": 3075321,
      "Delta": 120000036
    },
    {
      "NoteNumber": 53,
      "Velocity": 80,
      "Duration": 3075321,
      "SoundDuration": 3075321,
      "Delta": 120000036
    },
    {
      "NoteNumber": 65,
      "Velocity": 80,
      "Duration": 767628,
      "SoundDuration": 767628,
      "Delta": 120384651
    },
    {
      "NoteNumber": 62,
      "Velocity": 80,
      "Duration": 334616,
      "SoundDuration": 334616,
      "Delta": 121153882
    },
    {
      "NoteNumber": 62,
      "Velocity": 80,
      "Duration": 383012,
      "SoundDuration": 383012,
      "Delta": 121538498
    },
    {
      "NoteNumber": 64,
      "Velocity": 80,
      "Duration": 190705,
      "SoundDuration": 190705,
      "Delta": 121923113
    },
    {
      "NoteNumber": 65,
      "Velocity": 80,
      "Duration": 526923,
      "SoundDuration": 526923,
      "Delta": 122115421
    },
    {
      "NoteNumber": 65,
      "Velocity": 80,
      "Duration": 767628,
      "SoundDuration": 767628,
      "Delta": 122692344
    },
    {
      "NoteNumber": 55,
      "Velocity": 80,
      "Duration": 767628,
      "SoundDuration": 767628,
      "Delta": 123076960
    },
    {
      "NoteNumber": 60,
      "Velocity": 80,
      "Duration": 719231,
      "SoundDuration": 719231,
      "Delta": 123076960
    },
    {
      "NoteNumber": 36,
      "Velocity": 80,
      "Duration": 1536859,
      "SoundDuration": 1536859,
      "Delta": 123076960
    },
    {
      "NoteNumber": 48,
      "Velocity": 80,
      "Duration": 719231,
      "SoundDuration": 719231,
      "Delta": 123076960
    },
    {
      "NoteNumber": 64,
      "Velocity": 80,
      "Duration": 334616,
      "SoundDuration": 334616,
      "Delta": 123461575
    },
    {
      "NoteNumber": 60,
      "Velocity": 80,
      "Duration": 383012,
      "SoundDuration": 383012,
      "Delta": 123846191
    },
    {
      "NoteNumber": 64,
      "Velocity": 80,
      "Duration": 383012,
      "SoundDuration": 383012,
      "Delta": 123846191
    },
    {
      "NoteNumber": 48,
      "Velocity": 80,
      "Duration": 767628,
      "SoundDuration": 767628,
      "Delta": 123846191
    },
    {
      "NoteNumber": 67,
      "Velocity": 80,
      "Duration": 383012,
      "SoundDuration": 383012,
      "Delta": 124230806
    },
    {
      "NoteNumber": 55,
      "Velocity": 80,
      "Duration": 719231,
      "SoundDuration": 719231,
      "Delta": 124615422
    },
    {
      "NoteNumber": 59,
      "Velocity": 80,
      "Duration": 767628,
      "SoundDuration": 767628,
      "Delta": 124615422
    },
    {
      "NoteNumber": 40,
      "Velocity": 80,
      "Duration": 1536859,
      "SoundDuration": 1536859,
      "Delta": 124615422
    },
    {
      "NoteNumber": 62,
      "Velocity": 80,
      "Duration": 767628,
      "SoundDuration": 767628,
      "Delta": 124615422
    },
    {
      "NoteNumber": 52,
      "Velocity": 80,
      "Duration": 1536859,
      "SoundDuration": 1536859,
      "Delta": 124615422
    },
    {
      "NoteNumber": 55,
      "Velocity": 80,
      "Duration": 383012,
      "SoundDuration": 383012,
      "Delta": 125384653
    },
    {
      "NoteNumber": 64,
      "Velocity": 80,
      "Duration": 1921474,
      "SoundDuration": 1921474,
      "Delta": 125769268
    },
    {
      "NoteNumber": 60,
      "Velocity": 80,
      "Duration": 1536859,
      "SoundDuration": 1536859,
      "Delta": 126153884
    },
    {
      "NoteNumber": 41,
      "Velocity": 80,
      "Duration": 3075321,
      "SoundDuration": 3075321,
      "Delta": 126153884
    },
    {
      "NoteNumber": 53,
      "Velocity": 80,
      "Duration": 3075321,
      "SoundDuration": 3075321,
      "Delta": 126153884
    },
    {
      "NoteNumber": 57,
      "Velocity": 80,
      "Duration": 1536859,
      "SoundDuration": 1536859,
      "Delta": 126153884
    },
    {
      "NoteNumber": 62,
      "Velocity": 80,
      "Duration": 383012,
      "SoundDuration": 383012,
      "Delta": 127692346
    },
    {
      "NoteNumber": 64,
      "Velocity": 80,
      "Duration": 190705,
      "SoundDuration": 190705,
      "Delta": 128076961
    },
    {
      "NoteNumber": 67,
      "Velocity": 80,
      "Duration": 575320,
      "SoundDuration": 575320,
      "Delta": 128269269
    },
    {
      "NoteNumber": 65,
      "Velocity": 80,
      "Duration": 767628,
      "SoundDuration": 767628,
      "Delta": 128846192
    },
    {
      "NoteNumber": 57,
      "Velocity": 80,
      "Duration": 719230,
      "SoundDuration": 719230,
      "Delta": 129230808
    },
    {
      "NoteNumber": 45,
      "Velocity": 80,
      "Duration": 1536859,
      "SoundDuration": 1536859,
      "Delta": 129230808
    },
    {
      "NoteNumber": 64,
      "Velocity": 80,
      "Duration": 767628,
      "SoundDuration": 767628,
      "Delta": 129615423
    },
    {
      "NoteNumber": 57,
      "Velocity": 80,
      "Duration": 767628,
      "SoundDuration": 767628,
      "Delta": 130000038
    },
    {
      "NoteNumber": 67,
      "Velocity": 80,
      "Duration": 383012,
      "SoundDuration": 383012,
      "Delta": 130384654
    },
    {
      "NoteNumber": 59,
      "Velocity": 80,
      "Duration": 719231,
      "SoundDuration": 719231,
      "Delta": 130769270
    },
    {
      "NoteNumber": 40,
      "Velocity": 80,
      "Duration": 334615,
      "SoundDuration": 334615,
      "Delta": 130769270
    },
    {
      "NoteNumber": 62,
      "Velocity": 80,
      "Duration": 719231,
      "SoundDuration": 719231,
      "Delta": 130769270
    },
    {
      "NoteNumber": 52,
      "Velocity": 80,
      "Duration": 1536859,
      "SoundDuration": 1536859,
      "Delta": 130769270
    },
    {
      "NoteNumber": 40,
      "Velocity": 80,
      "Duration": 1152243,
      "SoundDuration": 1152243,
      "Delta": 131153885
    },
    {
      "NoteNumber": 59,
      "Velocity": 80,
      "Duration": 383012,
      "SoundDuration": 383012,
      "Delta": 131538501
    },
    {
      "NoteNumber": 62,
      "Velocity": 80,
      "Duration": 383012,
      "SoundDuration": 383012,
      "Delta": 131538501
    },
    {
      "NoteNumber": 64,
      "Velocity": 80,
      "Duration": 383012,
      "SoundDuration": 383012,
      "Delta": 131923116
    },
    {
      "NoteNumber": 60,
      "Velocity": 80,
      "Duration": 719232,
      "SoundDuration": 719232,
      "Delta": 132307731
    },
    {
      "NoteNumber": 41,
      "Velocity": 80,
      "Duration": 334616,
      "SoundDuration": 334616,
      "Delta": 132307731
    },
    {
      "NoteNumber": 53,
      "Velocity": 80,
      "Duration": 1536859,
      "SoundDuration": 1536859,
      "Delta": 132307731
    },
    {
      "NoteNumber": 57,
      "Velocity": 80,
      "Duration": 719232,
      "SoundDuration": 719232,
      "Delta": 132307731
    },
    {
      "NoteNumber": 41,
      "Velocity": 80,
      "Duration": 719231,
      "SoundDuration": 719231,
      "Delta": 132692347
    },
    {
      "NoteNumber": 60,
      "Velocity": 80,
      "Duration": 767628,
      "SoundDuration": 767628,
      "Delta": 133076963
    },
    {
      "NoteNumber": 57,
      "Velocity": 80,
      "Duration": 767628,
      "SoundDuration": 767628,
      "Delta": 133076963
    },
    {
      "NoteNumber": 41,
      "Velocity": 80,
      "Duration": 383012,
      "SoundDuration": 383012,
      "Delta": 133461578
    },
    {
      "NoteNumber": 59,
      "Velocity": 80,
      "Duration": 719231,
      "SoundDuration": 719231,
      "Delta": 133846194
    },
    {
      "NoteNumber": 40,
      "Velocity": 80,
      "Duration": 334615,
      "SoundDuration": 334615,
      "Delta": 133846194
    },
    {
      "NoteNumber": 62,
      "Velocity": 80,
      "Duration": 719231,
      "SoundDuration": 719231,
      "Delta": 133846194
    },
    {
      "NoteNumber": 52,
      "Velocity": 80,
      "Duration": 1536859,
      "SoundDuration": 1536859,
      "Delta": 133846194
    },
    {
      "NoteNumber": 40,
      "Velocity": 80,
      "Duration": 719231,
      "SoundDuration": 719231,
      "Delta": 134230809
    },
    {
      "NoteNumber": 59,
      "Velocity": 80,
      "Duration": 383012,
      "SoundDuration": 383012,
      "Delta": 134615425
    },
    {
      "NoteNumber": 62,
      "Velocity": 80,
      "Duration": 383012,
      "SoundDuration": 383012,
      "Delta": 134615425
    },
    {
      "NoteNumber": 40,
      "Velocity": 80,
      "Duration": 383012,
      "SoundDuration": 383012,
      "Delta": 135000040
    },
    {
      "NoteNumber": 67,
      "Velocity": 80,
      "Duration": 767628,
      "SoundDuration": 767628,
      "Delta": 135000040
    },
    {
      "NoteNumber": 60,
      "Velocity": 80,
      "Duration": 767628,
      "SoundDuration": 767628,
      "Delta": 135384656
    },
    {
      "NoteNumber": 57,
      "Velocity": 80,
      "Duration": 767628,
      "SoundDuration": 767628,
      "Delta": 135384656
    },
    {
      "NoteNumber": 38,
      "Velocity": 80,
      "Duration": 383012,
      "SoundDuration": 383012,
      "Delta": 135384656
    },
    {
      "NoteNumber": 50,
      "Velocity": 80,
      "Duration": 334615,
      "SoundDuration": 334615,
      "Delta": 135384656
    },
    {
      "NoteNumber": 50,
      "Velocity": 81,
      "Duration": 767628,
      "SoundDuration": 767628,
      "Delta": 135769271
    },
    {
      "NoteNumber": 69,
      "Velocity": 81,
      "Duration": 190705,
      "SoundDuration": 190705,
      "Delta": 135769271
    },
    {
      "NoteNumber": 67,
      "Velocity": 81,
      "Duration": 190705,
      "SoundDuration": 190705,
      "Delta": 135961579
    },
    {
      "NoteNumber": 64,
      "Velocity": 82,
      "Duration": 767628,
      "SoundDuration": 767628,
      "Delta": 136153887
    },
    {
      "NoteNumber": 69,
      "Velocity": 82,
      "Duration": 1536859,
      "SoundDuration": 1536859,
      "Delta": 136153887
    },
    {
      "NoteNumber": 38,
      "Velocity": 83,
      "Duration": 719231,
      "SoundDuration": 719231,
      "Delta": 136538502
    },
    {
      "NoteNumber": 60,
      "Velocity": 84,
      "Duration": 719231,
      "SoundDuration": 719231,
      "Delta": 136923118
    },
    {
      "NoteNumber": 65,
      "Velocity": 84,
      "Duration": 767628,
      "SoundDuration": 767628,
      "Delta": 136923118
    },
    {
      "NoteNumber": 57,
      "Velocity": 84,
      "Duration": 767628,
      "SoundDuration": 767628,
      "Delta": 136923118
    },
    {
      "NoteNumber": 38,
      "Velocity": 85,
      "Duration": 767628,
      "SoundDuration": 767628,
      "Delta": 137307733
    },
    {
      "NoteNumber": 60,
      "Velocity": 86,
      "Duration": 767628,
      "SoundDuration": 767628,
      "Delta": 137692349
    },
    {
      "NoteNumber": 64,
      "Velocity": 86,
      "Duration": 767628,
      "SoundDuration": 767628,
      "Delta": 137692349
    },
    {
      "NoteNumber": 40,
      "Velocity": 87,
      "Duration": 383012,
      "SoundDuration": 383012,
      "Delta": 138076964
    },
    {
      "NoteNumber": 72,
      "Velocity": 87,
      "Duration": 383012,
      "SoundDuration": 383012,
      "Delta": 138076964
    },
    {
      "NoteNumber": 71,
      "Velocity": 88,
      "Duration": 479166,
      "SoundDuration": 479166,
      "Delta": 138461580
    },
    {
      "NoteNumber": 65,
      "Velocity": 88,
      "Duration": 479166,
      "SoundDuration": 479166,
      "Delta": 138461580
    },
    {
      "NoteNumber": 43,
      "Velocity": 88,
      "Duration": 3075321,
      "SoundDuration": 3075321,
      "Delta": 138461580
    },
    {
      "NoteNumber": 72,
      "Velocity": 89,
      "Duration": 94551,
      "SoundDuration": 94551,
      "Delta": 138942349
    },
    {
      "NoteNumber": 71,
      "Velocity": 89,
      "Duration": 94551,
      "SoundDuration": 94551,
      "Delta": 139038503
    },
    {
      "NoteNumber": 69,
      "Velocity": 89,
      "Duration": 94551,
      "SoundDuration": 94551,
      "Delta": 139134657
    },
    {
      "NoteNumber": 67,
      "Velocity": 90,
      "Duration": 479166,
      "SoundDuration": 479166,
      "Delta": 139230811
    },
    {
      "NoteNumber": 64,
      "Velocity": 91,
      "Duration": 94551,
      "SoundDuration": 94551,
      "Delta": 139711580
    },
    {
      "NoteNumber": 62,
      "Velocity": 91,
      "Duration": 94551,
      "SoundDuration": 94551,
      "Delta": 139807734
    },
    {
      "NoteNumber": 60,
      "Velocity": 91,
      "Duration": 94551,
      "SoundDuration": 94551,
      "Delta": 139903888
    },
    {
      "NoteNumber": 62,
      "Velocity": 92,
      "Duration": 767628,
      "SoundDuration": 767628,
      "Delta": 140000042
    },
    {
      "NoteNumber": 71,
      "Velocity": 95,
      "Duration": 383012,
      "SoundDuration": 383012,
      "Delta": 141153888
    },
    {
      "NoteNumber": 64,
      "Velocity": 96,
      "Duration": 767628,
      "SoundDuration": 767628,
      "Delta": 141538504
    },
    {
      "NoteNumber": 36,
      "Velocity": 96,
      "Duration": 1536859,
      "SoundDuration": 1536859,
      "Delta": 141538504
    },
    {
      "NoteNumber": 72,
      "Velocity": 96,
      "Duration": 767628,
      "SoundDuration": 767628,
      "Delta": 141538504
    },
    {
      "NoteNumber": 67,
      "Velocity": 96,
      "Duration": 719231,
      "SoundDuration": 719231,
      "Delta": 141538504
    },
    {
      "NoteNumber": 48,
      "Velocity": 96,
      "Duration": 1536859,
      "SoundDuration": 1536859,
      "Delta": 141538504
    },
    {
      "NoteNumber": 71,
      "Velocity": 96,
      "Duration": 383012,
      "SoundDuration": 383012,
      "Delta": 142307735
    },
    {
      "NoteNumber": 67,
      "Velocity": 96,
      "Duration": 383012,
      "SoundDuration": 383012,
      "Delta": 142307735
    },
    {
      "NoteNumber": 64,
      "Velocity": 96,
      "Duration": 334616,
      "SoundDuration": 334616,
      "Delta": 142692350
    },
    {
      "NoteNumber": 64,
      "Velocity": 96,
      "Duration": 383012,
      "SoundDuration": 383012,
      "Delta": 143076966
    },
    {
      "NoteNumber": 40,
      "Velocity": 96,
      "Duration": 1536859,
      "SoundDuration": 1536859,
      "Delta": 143076966
    },
    {
      "NoteNumber": 67,
      "Velocity": 96,
      "Duration": 383012,
      "SoundDuration": 383012,
      "Delta": 143076966
    },
    {
      "NoteNumber": 52,
      "Velocity": 96,
      "Duration": 1536859,
      "SoundDuration": 1536859,
      "Delta": 143076966
    },
    {
      "NoteNumber": 76,
      "Velocity": 96,
      "Duration": 383012,
      "SoundDuration": 383012,
      "Delta": 143461581
    },
    {
      "NoteNumber": 64,
      "Velocity": 96,
      "Duration": 383012,
      "SoundDuration": 383012,
      "Delta": 143846197
    },
    {
      "NoteNumber": 71,
      "Velocity": 96,
      "Duration": 383012,
      "SoundDuration": 383012,
      "Delta": 143846197
    },
    {
      "NoteNumber": 67,
      "Velocity": 96,
      "Duration": 383012,
      "SoundDuration": 383012,
      "Delta": 143846197
    },
    {
      "NoteNumber": 65,
      "Velocity": 96,
      "Duration": 1103847,
      "SoundDuration": 1103847,
      "Delta": 144230812
    },
    {
      "NoteNumber": 69,
      "Velocity": 96,
      "Duration": 1103847,
      "SoundDuration": 1103847,
      "Delta": 144230812
    },
    {
      "NoteNumber": 60,
      "Velocity": 96,
      "Duration": 719231,
      "SoundDuration": 719231,
      "Delta": 144615428
    },
    {
      "NoteNumber": 41,
      "Velocity": 96,
      "Duration": 3075321,
      "SoundDuration": 3075321,
      "Delta": 144615428
    },
    {
      "NoteNumber": 53,
      "Velocity": 96,
      "Duration": 3075321,
      "SoundDuration": 3075321,
      "Delta": 144615428
    },
    {
      "NoteNumber": 60,
      "Velocity": 96,
      "Duration": 719231,
      "SoundDuration": 719231,
      "Delta": 145384659
    },
    {
      "NoteNumber": 65,
      "Velocity": 96,
      "Duration": 719231,
      "SoundDuration": 719231,
      "Delta": 145384659
    },
    {
      "NoteNumber": 69,
      "Velocity": 96,
      "Duration": 719231,
      "SoundDuration": 719231,
      "Delta": 145384659
    },
    {
      "NoteNumber": 60,
      "Velocity": 96,
      "Duration": 575320,
      "SoundDuration": 575320,
      "Delta": 146153890
    },
    {
      "NoteNumber": 65,
      "Velocity": 96,
      "Duration": 575320,
      "SoundDuration": 575320,
      "Delta": 146153890
    },
    {
      "NoteNumber": 69,
      "Velocity": 96,
      "Duration": 575320,
      "SoundDuration": 575320,
      "Delta": 146153890
    },
    {
      "NoteNumber": 67,
      "Velocity": 80,
      "Duration": 190705,
      "SoundDuration": 190705,
      "Delta": 146730813
    },
    {
      "NoteNumber": 69,
      "Velocity": 80,
      "Duration": 767628,
      "SoundDuration": 767628,
      "Delta": 146923121
    },
    {
      "NoteNumber": 60,
      "Velocity": 80,
      "Duration": 383012,
      "SoundDuration": 383012,
      "Delta": 147692352
    },
    {
      "NoteNumber": 64,
      "Velocity": 80,
      "Duration": 383012,
      "SoundDuration": 383012,
      "Delta": 147692352
    },
    {
      "NoteNumber": 36,
      "Velocity": 80,
      "Duration": 1536859,
      "SoundDuration": 1536859,
      "Delta": 147692352
    },
    {
      "NoteNumber": 67,
      "Velocity": 80,
      "Duration": 383012,
      "SoundDuration": 383012,
      "Delta": 147692352
    },
    {
      "NoteNumber": 48,
      "Velocity": 80,
      "Duration": 1536859,
      "SoundDuration": 1536859,
      "Delta": 147692352
    },
    {
      "NoteNumber": 69,
      "Velocity": 80,
      "Duration": 383012,
      "SoundDuration": 383012,
      "Delta": 148076967
    },
    {
      "NoteNumber": 60,
      "Velocity": 80,
      "Duration": 334615,
      "SoundDuration": 334615,
      "Delta": 148461583
    },
    {
      "NoteNumber": 64,
      "Velocity": 80,
      "Duration": 383012,
      "SoundDuration": 383012,
      "Delta": 148461583
    },
    {
      "NoteNumber": 67,
      "Velocity": 80,
      "Duration": 383012,
      "SoundDuration": 383012,
      "Delta": 148461583
    },
    {
      "NoteNumber": 60,
      "Velocity": 80,
      "Duration": 383012,
      "SoundDuration": 383012,
      "Delta": 148846198
    },
    {
      "NoteNumber": 59,
      "Velocity": 80,
      "Duration": 767628,
      "SoundDuration": 767628,
      "Delta": 149230814
    },
    {
      "NoteNumber": 40,
      "Velocity": 80,
      "Duration": 1536859,
      "SoundDuration": 1536859,
      "Delta": 149230814
    },
    {
      "NoteNumber": 71,
      "Velocity": 80,
      "Duration": 719231,
      "SoundDuration": 719231,
      "Delta": 149230814
    },
    {
      "NoteNumber": 67,
      "Velocity": 80,
      "Duration": 719231,
      "SoundDuration": 719231,
      "Delta": 149230814
    },
    {
      "NoteNumber": 52,
      "Velocity": 80,
      "Duration": 1536859,
      "SoundDuration": 1536859,
      "Delta": 149230814
    },
    {
      "NoteNumber": 71,
      "Velocity": 80,
      "Duration": 383012,
      "SoundDuration": 383012,
      "Delta": 150000045
    },
    {
      "NoteNumber": 67,
      "Velocity": 80,
      "Duration": 383012,
      "SoundDuration": 383012,
      "Delta": 150000045
    },
    {
      "NoteNumber": 64,
      "Velocity": 80,
      "Duration": 383012,
      "SoundDuration": 383012,
      "Delta": 150384660
    },
    {
      "NoteNumber": 41,
      "Velocity": 80,
      "Duration": 3075321,
      "SoundDuration": 3075321,
      "Delta": 150769276
    },
    {
      "NoteNumber": 53,
      "Velocity": 80,
      "Duration": 3075321,
      "SoundDuration": 3075321,
      "Delta": 150769276
    },
    {
      "NoteNumber": 57,
      "Velocity": 80,
      "Duration": 767628,
      "SoundDuration": 767628,
      "Delta": 150769276
    },
    {
      "NoteNumber": 69,
      "Velocity": 80,
      "Duration": 719231,
      "SoundDuration": 719231,
      "Delta": 150769276
    },
    {
      "NoteNumber": 69,
      "Velocity": 80,
      "Duration": 719231,
      "SoundDuration": 719231,
      "Delta": 151538507
    },
    {
      "NoteNumber": 69,
      "Velocity": 80,
      "Duration": 767628,
      "SoundDuration": 767628,
      "Delta": 152307738
    },
    {
      "NoteNumber": 71,
      "Velocity": 80,
      "Duration": 767628,
      "SoundDuration": 767628,
      "Delta": 153076969
    },
    {
      "NoteNumber": 64,
      "Velocity": 80,
      "Duration": 767628,
      "SoundDuration": 767628,
      "Delta": 153846200
    },
    {
      "NoteNumber": 36,
      "Velocity": 80,
      "Duration": 1536859,
      "SoundDuration": 1536859,
      "Delta": 153846200
    },
    {
      "NoteNumber": 48,
      "Velocity": 80,
      "Duration": 1536859,
      "SoundDuration": 1536859,
      "Delta": 153846200
    },
    {
      "NoteNumber": 67,
      "Velocity": 80,
      "Duration": 700320,
      "SoundDuration": 700320,
      "Delta": 153911905
    },
    {
      "NoteNumber": 72,
      "Velocity": 80,
      "Duration": 634615,
      "SoundDuration": 634615,
      "Delta": 153977610
    },
    {
      "NoteNumber": 71,
      "Velocity": 80,
      "Duration": 383012,
      "SoundDuration": 383012,
      "Delta": 154615431
    },
    {
      "NoteNumber": 64,
      "Velocity": 80,
      "Duration": 383012,
      "SoundDuration": 383012,
      "Delta": 155000046
    },
    {
      "NoteNumber": 40,
      "Velocity": 80,
      "Duration": 1536859,
      "SoundDuration": 1536859,
      "Delta": 155384662
    },
    {
      "NoteNumber": 71,
      "Velocity": 80,
      "Duration": 383012,
      "SoundDuration": 383012,
      "Delta": 155384662
    },
    {
      "NoteNumber": 67,
      "Velocity": 80,
      "Duration": 383012,
      "SoundDuration": 383012,
      "Delta": 155384662
    },
    {
      "NoteNumber": 52,
      "Velocity": 80,
      "Duration": 1536859,
      "SoundDuration": 1536859,
      "Delta": 155384662
    },
    {
      "NoteNumber": 76,
      "Velocity": 80,
      "Duration": 383012,
      "SoundDuration": 383012,
      "Delta": 155769277
    },
    {
      "NoteNumber": 71,
      "Velocity": 80,
      "Duration": 383012,
      "SoundDuration": 383012,
      "Delta": 156153893
    },
    {
      "NoteNumber": 72,
      "Velocity": 80,
      "Duration": 575320,
      "SoundDuration": 575320,
      "Delta": 156538508
    },
    {
      "NoteNumber": 41,
      "Velocity": 80,
      "Duration": 3075321,
      "SoundDuration": 3075321,
      "Delta": 156923124
    },
    {
      "NoteNumber": 53,
      "Velocity": 80,
      "Duration": 3075321,
      "SoundDuration": 3075321,
      "Delta": 156923124
    },
    {
      "NoteNumber": 71,
      "Velocity": 80,
      "Duration": 190705,
      "SoundDuration": 190705,
      "Delta": 157115431
    },
    {
      "NoteNumber": 69,
      "Velocity": 80,
      "Duration": 1152243,
      "SoundDuration": 1152243,
      "Delta": 157307739
    },
    {
      "NoteNumber": 64,
      "Velocity": 64,
      "Duration": 383012,
      "SoundDuration": 383012,
      "Delta": 159230817
    },
    {
      "NoteNumber": 67,
      "Velocity": 64,
      "Duration": 767628,
      "SoundDuration": 767628,
      "Delta": 159615432
    },
    {
      "NoteNumber": 55,
      "Velocity": 64,
      "Duration": 719231,
      "SoundDuration": 719231,
      "Delta": 160000048
    },
    {
      "NoteNumber": 60,
      "Velocity": 64,
      "Duration": 719231,
      "SoundDuration": 719231,
      "Delta": 160000048
    },
    {
      "NoteNumber": 36,
      "Velocity": 64,
      "Duration": 1536859,
      "SoundDuration": 1536859,
      "Delta": 160000048
    },
    {
      "NoteNumber": 64,
      "Velocity": 64,
      "Duration": 1152243,
      "SoundDuration": 1152243,
      "Delta": 160384663
    },
    {
      "NoteNumber": 55,
      "Velocity": 64,
      "Duration": 334615,
      "SoundDuration": 334615,
      "Delta": 160769279
    },
    {
      "NoteNumber": 60,
      "Velocity": 64,
      "Duration": 383012,
      "SoundDuration": 383012,
      "Delta": 160769279
    },
    {
      "NoteNumber": 55,
      "Velocity": 64,
      "Duration": 383012,
      "SoundDuration": 383012,
      "Delta": 161153894
    },
    {
      "NoteNumber": 59,
      "Velocity": 64,
      "Duration": 719231,
      "SoundDuration": 719231,
      "Delta": 161538510
    },
    {
      "NoteNumber": 40,
      "Velocity": 64,
      "Duration": 1536859,
      "SoundDuration": 1536859,
      "Delta": 161538510
    },
    {
      "NoteNumber": 69,
      "Velocity": 64,
      "Duration": 767628,
      "SoundDuration": 767628,
      "Delta": 161923125
    },
    {
      "NoteNumber": 59,
      "Velocity": 64,
      "Duration": 767628,
      "SoundDuration": 767628,
      "Delta": 162307741
    },
    {
      "NoteNumber": 64,
      "Velocity": 64,
      "Duration": 383012,
      "SoundDuration": 383012,
      "Delta": 162692356
    },
    {
      "NoteNumber": 41,
      "Velocity": 64,
      "Duration": 3075321,
      "SoundDuration": 3075321,
      "Delta": 163076972
    },
    {
      "NoteNumber": 62,
      "Velocity": 64,
      "Duration": 2306090,
      "SoundDuration": 2306090,
      "Delta": 163076972
    },
    {
      "NoteNumber": 57,
      "Velocity": 64,
      "Duration": 2306090,
      "SoundDuration": 2306090,
      "Delta": 163076972
    },
    {
      "NoteNumber": 67,
      "Velocity": 64,
      "Duration": 767628,
      "SoundDuration": 767628,
      "Delta": 165769280
    },
    {
      "NoteNumber": 60,
      "Velocity": 64,
      "Duration": 1103846,
      "SoundDuration": 1103846,
      "Delta": 166153896
    },
    {
      "NoteNumber": 36,
      "Velocity": 64,
      "Duration": 1536859,
      "SoundDuration": 1536859,
      "Delta": 166153896
    },
    {
      "NoteNumber": 64,
      "Velocity": 64,
      "Duration": 767628,
      "SoundDuration": 767628,
      "Delta": 166538511
    },
    {
      "NoteNumber": 60,
      "Velocity": 64,
      "Duration": 767628,
      "SoundDuration": 767628,
      "Delta": 167307742
    },
    {
      "NoteNumber": 55,
      "Velocity": 64,
      "Duration": 1536859,
      "SoundDuration": 1536859,
      "Delta": 167692358
    },
    {
      "NoteNumber": 40,
      "Velocity": 64,
      "Duration": 1536859,
      "SoundDuration": 1536859,
      "Delta": 167692358
    },
    {
      "NoteNumber": 59,
      "Velocity": 64,
      "Duration": 767628,
      "SoundDuration": 767628,
      "Delta": 168076973
    },
    {
      "NoteNumber": 57,
      "Velocity": 64,
      "Duration": 3459936,
      "SoundDuration": 3459936,
      "Delta": 168846204
    },
    {
      "NoteNumber": 41,
      "Velocity": 64,
      "Duration": 3075321,
      "SoundDuration": 3075321,
      "Delta": 169230820
    },
    {
      "NoteNumber": 52,
      "Velocity": 64,
      "Duration": 3075321,
      "SoundDuration": 3075321,
      "Delta": 172307744
    },
    {
      "NoteNumber": 76,
      "Velocity": 64,
      "Duration": 334615,
      "SoundDuration": 334615,
      "Delta": 172307744
    },
    {
      "NoteNumber": 88,
      "Velocity": 64,
      "Duration": 315705,
      "SoundDuration": 315705,
      "Delta": 172373449
    },
    {
      "NoteNumber": 76,
      "Velocity": 64,
      "Duration": 1152243,
      "SoundDuration": 1152243,
      "Delta": 172692359
    },
    {
      "NoteNumber": 91,
      "Velocity": 64,
      "Duration": 1152243,
      "SoundDuration": 1152243,
      "Delta": 172692359
    },
    {
      "NoteNumber": 71,
      "Velocity": 64,
      "Duration": 767628,
      "SoundDuration": 767628,
      "Delta": 173846206
    },
    {
      "NoteNumber": 79,
      "Velocity": 64,
      "Duration": 767628,
      "SoundDuration": 767628,
      "Delta": 173846206
    },
    {
      "NoteNumber": 72,
      "Velocity": 64,
      "Duration": 383012,
      "SoundDuration": 383012,
      "Delta": 174615437
    },
    {
      "NoteNumber": 84,
      "Velocity": 64,
      "Duration": 383012,
      "SoundDuration": 383012,
      "Delta": 174615437
    },
    {
      "NoteNumber": 69,
      "Velocity": 64,
      "Duration": 1921474,
      "SoundDuration": 1921474,
      "Delta": 175000052
    },
    {
      "NoteNumber": 81,
      "Velocity": 64,
      "Duration": 1921474,
      "SoundDuration": 1921474,
      "Delta": 175000052
    },
    {
      "NoteNumber": 53,
      "Velocity": 64,
      "Duration": 3075321,
      "SoundDuration": 3075321,
      "Delta": 175384668
    },
    {
      "NoteNumber": 83,
      "Velocity": 64,
      "Duration": 383012,
      "SoundDuration": 383012,
      "Delta": 176923130
    },
    {
      "NoteNumber": 84,
      "Velocity": 64,
      "Duration": 767628,
      "SoundDuration": 767628,
      "Delta": 177307745
    },
    {
      "NoteNumber": 76,
      "Velocity": 64,
      "Duration": 190705,
      "SoundDuration": 190705,
      "Delta": 178076976
    },
    {
      "NoteNumber": 79,
      "Velocity": 64,
      "Duration": 1729167,
      "SoundDuration": 1729167,
      "Delta": 178269284
    },
    {
      "NoteNumber": 72,
      "Velocity": 64,
      "Duration": 1536859,
      "SoundDuration": 1536859,
      "Delta": 178461592
    },
    {
      "NoteNumber": 67,
      "Velocity": 64,
      "Duration": 1536859,
      "SoundDuration": 1536859,
      "Delta": 178461592
    },
    {
      "NoteNumber": 64,
      "Velocity": 64,
      "Duration": 1536859,
      "SoundDuration": 1536859,
      "Delta": 180000054
    },
    {
      "NoteNumber": 71,
      "Velocity": 64,
      "Duration": 1536859,
      "SoundDuration": 1536859,
      "Delta": 180000054
    },
    {
      "NoteNumber": 83,
      "Velocity": 64,
      "Duration": 383012,
      "SoundDuration": 383012,
      "Delta": 180000054
    },
    {
      "NoteNumber": 84,
      "Velocity": 64,
      "Duration": 190705,
      "SoundDuration": 190705,
      "Delta": 180384669
    },
    {
      "NoteNumber": 76,
      "Velocity": 64,
      "Duration": 575320,
      "SoundDuration": 575320,
      "Delta": 180576977
    },
    {
      "NoteNumber": 79,
      "Velocity": 64,
      "Duration": 767628,
      "SoundDuration": 767628,
      "Delta": 181153900
    },
    {
      "NoteNumber": 72,
      "Velocity": 64,
      "Duration": 3026924,
      "SoundDuration": 3026924,
      "Delta": 181538516
    },
    {
      "NoteNumber": 65,
      "Velocity": 64,
      "Duration": 3075321,
      "SoundDuration": 3075321,
      "Delta": 181538516
    },
    {
      "NoteNumber": 77,
      "Velocity": 64,
      "Duration": 1152243,
      "SoundDuration": 1152243,
      "Delta": 181923131
    },
    {
      "NoteNumber": 83,
      "Velocity": 64,
      "Duration": 575320,
      "SoundDuration": 575320,
      "Delta": 183076978
    },
    {
      "NoteNumber": 84,
      "Velocity": 64,
      "Duration": 190705,
      "SoundDuration": 190705,
      "Delta": 183653901
    },
    {
      "NoteNumber": 76,
      "Velocity": 64,
      "Duration": 383012,
      "SoundDuration": 383012,
      "Delta": 183846209
    },
    {
      "NoteNumber": 79,
      "Velocity": 64,
      "Duration": 1536859,
      "SoundDuration": 1536859,
      "Delta": 184230824
    },
    {
      "NoteNumber": 72,
      "Velocity": 64,
      "Duration": 1536859,
      "SoundDuration": 1536859,
      "Delta": 184615440
    },
    {
      "NoteNumber": 67,
      "Velocity": 64,
      "Duration": 1536859,
      "SoundDuration": 1536859,
      "Delta": 184615440
    },
    {
      "NoteNumber": 76,
      "Velocity": 64,
      "Duration": 383012,
      "SoundDuration": 383012,
      "Delta": 185769286
    },
    {
      "NoteNumber": 64,
      "Velocity": 64,
      "Duration": 1536859,
      "SoundDuration": 1536859,
      "Delta": 186153902
    },
    {
      "NoteNumber": 71,
      "Velocity": 64,
      "Duration": 1536859,
      "SoundDuration": 1536859,
      "Delta": 186153902
    },
    {
      "NoteNumber": 83,
      "Velocity": 64,
      "Duration": 383012,
      "SoundDuration": 383012,
      "Delta": 186153902
    },
    {
      "NoteNumber": 84,
      "Velocity": 64,
      "Duration": 383012,
      "SoundDuration": 383012,
      "Delta": 186538517
    },
    {
      "NoteNumber": 76,
      "Velocity": 64,
      "Duration": 383012,
      "SoundDuration": 383012,
      "Delta": 186923133
    },
    {
      "NoteNumber": 79,
      "Velocity": 64,
      "Duration": 767628,
      "SoundDuration": 767628,
      "Delta": 187307748
    },
    {
      "NoteNumber": 72,
      "Velocity": 64,
      "Duration": 3075321,
      "SoundDuration": 3075321,
      "Delta": 187692364
    },
    {
      "NoteNumber": 65,
      "Velocity": 64,
      "Duration": 3075321,
      "SoundDuration": 3075321,
      "Delta": 187692364
    },
    {
      "NoteNumber": 77,
      "Velocity": 64,
      "Duration": 1152243,
      "SoundDuration": 1152243,
      "Delta": 188076979
    },
    {
      "NoteNumber": 74,
      "Velocity": 64,
      "Duration": 383012,
      "SoundDuration": 383012,
      "Delta": 189230826
    },
    {
      "NoteNumber": 76,
      "Velocity": 64,
      "Duration": 190705,
      "SoundDuration": 190705,
      "Delta": 189615441
    },
    {
      "NoteNumber": 77,
      "Velocity": 64,
      "Duration": 526923,
      "SoundDuration": 526923,
      "Delta": 189807749
    },
    {
      "NoteNumber": 77,
      "Velocity": 64,
      "Duration": 767628,
      "SoundDuration": 767628,
      "Delta": 190384672
    },
    {
      "NoteNumber": 60,
      "Velocity": 64,
      "Duration": 1536859,
      "SoundDuration": 1536859,
      "Delta": 190769288
    },
    {
      "NoteNumber": 64,
      "Velocity": 64,
      "Duration": 1488462,
      "SoundDuration": 1488462,
      "Delta": 190769288
    },
    {
      "NoteNumber": 57,
      "Velocity": 64,
      "Duration": 1536859,
      "SoundDuration": 1536859,
      "Delta": 190769288
    },
    {
      "NoteNumber": 76,
      "Velocity": 64,
      "Duration": 2690705,
      "SoundDuration": 2690705,
      "Delta": 191153903
    },
    {
      "NoteNumber": 64,
      "Velocity": 64,
      "Duration": 1536859,
      "SoundDuration": 1536859,
      "Delta": 192307750
    },
    {
      "NoteNumber": 71,
      "Velocity": 64,
      "Duration": 1536859,
      "SoundDuration": 1536859,
      "Delta": 192307750
    },
    {
      "NoteNumber": 67,
      "Velocity": 64,
      "Duration": 1536859,
      "SoundDuration": 1536859,
      "Delta": 192307750
    },
    {
      "NoteNumber": 72,
      "Velocity": 64,
      "Duration": 3075321,
      "SoundDuration": 3075321,
      "Delta": 193846212
    },
    {
      "NoteNumber": 65,
      "Velocity": 64,
      "Duration": 3075321,
      "SoundDuration": 3075321,
      "Delta": 193846212
    },
    {
      "NoteNumber": 69,
      "Velocity": 64,
      "Duration": 3075321,
      "SoundDuration": 3075321,
      "Delta": 193846212
    },
    {
      "NoteNumber": 74,
      "Velocity": 64,
      "Duration": 383012,
      "SoundDuration": 383012,
      "Delta": 195384674
    },
    {
      "NoteNumber": 76,
      "Velocity": 64,
      "Duration": 190705,
      "SoundDuration": 190705,
      "Delta": 195769289
    },
    {
      "NoteNumber": 79,
      "Velocity": 64,
      "Duration": 575320,
      "SoundDuration": 575320,
      "Delta": 195961597
    },
    {
      "NoteNumber": 77,
      "Velocity": 64,
      "Duration": 767628,
      "SoundDuration": 767628,
      "Delta": 196538520
    },
    {
      "NoteNumber": 45,
      "Velocity": 64,
      "Duration": 767628,
      "SoundDuration": 767628,
      "Delta": 196923136
    },
    {
      "NoteNumber": 76,
      "Velocity": 64,
      "Duration": 767628,
      "SoundDuration": 767628,
      "Delta": 197307751
    },
    {
      "NoteNumber": 57,
      "Velocity": 64,
      "Duration": 767628,
      "SoundDuration": 767628,
      "Delta": 197692367
    },
    {
      "NoteNumber": 64,
      "Velocity": 64,
      "Duration": 334616,
      "SoundDuration": 334616,
      "Delta": 198076982
    },
    {
      "NoteNumber": 64,
      "Velocity": 64,
      "Duration": 719231,
      "SoundDuration": 719231,
      "Delta": 198461598
    },
    {
      "NoteNumber": 59,
      "Velocity": 64,
      "Duration": 719231,
      "SoundDuration": 719231,
      "Delta": 198461598
    },
    {
      "NoteNumber": 52,
      "Velocity": 64,
      "Duration": 1152243,
      "SoundDuration": 1152243,
      "Delta": 198461598
    },
    {
      "NoteNumber": 64,
      "Velocity": 64,
      "Duration": 719231,
      "SoundDuration": 719231,
      "Delta": 199230829
    },
    {
      "NoteNumber": 59,
      "Velocity": 64,
      "Duration": 767628,
      "SoundDuration": 767628,
      "Delta": 199230829
    },
    {
      "NoteNumber": 57,
      "Velocity": 64,
      "Duration": 383012,
      "SoundDuration": 383012,
      "Delta": 199615444
    },
    {
      "NoteNumber": 60,
      "Velocity": 64,
      "Duration": 719231,
      "SoundDuration": 719231,
      "Delta": 200000060
    },
    {
      "NoteNumber": 64,
      "Velocity": 64,
      "Duration": 719231,
      "SoundDuration": 719231,
      "Delta": 200000060
    },
    {
      "NoteNumber": 41,
      "Velocity": 64,
      "Duration": 1536859,
      "SoundDuration": 1536859,
      "Delta": 200000060
    },
    {
      "NoteNumber": 60,
      "Velocity": 64,
      "Duration": 383012,
      "SoundDuration": 383012,
      "Delta": 200769291
    },
    {
      "NoteNumber": 64,
      "Velocity": 64,
      "Duration": 383012,
      "SoundDuration": 383012,
      "Delta": 200769291
    },
    {
      "NoteNumber": 57,
      "Velocity": 64,
      "Duration": 383012,
      "SoundDuration": 383012,
      "Delta": 201153906
    },
    {
      "NoteNumber": 60,
      "Velocity": 64,
      "Duration": 719231,
      "SoundDuration": 719231,
      "Delta": 201538522
    },
    {
      "NoteNumber": 64,
      "Velocity": 64,
      "Duration": 719231,
      "SoundDuration": 719231,
      "Delta": 201538522
    },
    {
      "NoteNumber": 40,
      "Velocity": 64,
      "Duration": 1536859,
      "SoundDuration": 1536859,
      "Delta": 201538522
    },
    {
      "NoteNumber": 60,
      "Velocity": 64,
      "Duration": 383012,
      "SoundDuration": 383012,
      "Delta": 202307753
    },
    {
      "NoteNumber": 64,
      "Velocity": 64,
      "Duration": 383012,
      "SoundDuration": 383012,
      "Delta": 202307753
    },
    {
      "NoteNumber": 57,
      "Velocity": 64,
      "Duration": 383012,
      "SoundDuration": 383012,
      "Delta": 202692368
    },
    {
      "NoteNumber": 60,
      "Velocity": 64,
      "Duration": 1536859,
      "SoundDuration": 1536859,
      "Delta": 203076984
    },
    {
      "NoteNumber": 65,
      "Velocity": 64,
      "Duration": 1536859,
      "SoundDuration": 1536859,
      "Delta": 203076984
    },
    {
      "NoteNumber": 38,
      "Velocity": 64,
      "Duration": 3075321,
      "SoundDuration": 3075321,
      "Delta": 203076984
    },
    {
      "NoteNumber": 72,
      "Velocity": 64,
      "Duration": 383012,
      "SoundDuration": 383012,
      "Delta": 204615446
    },
    {
      "NoteNumber": 74,
      "Velocity": 64,
      "Duration": 190705,
      "SoundDuration": 190705,
      "Delta": 205000061
    },
    {
      "NoteNumber": 76,
      "Velocity": 64,
      "Duration": 526923,
      "SoundDuration": 526923,
      "Delta": 205192369
    },
    {
      "NoteNumber": 76,
      "Velocity": 64,
      "Duration": 767628,
      "SoundDuration": 767628,
      "Delta": 205769292
    },
    {
      "NoteNumber": 55,
      "Velocity": 64,
      "Duration": 9227566,
      "SoundDuration": 9227566,
      "Delta": 206153908
    },
    {
      "NoteNumber": 59,
      "Velocity": 64,
      "Duration": 9193913,
      "SoundDuration": 9193913,
      "Delta": 206184356
    },
    {
      "NoteNumber": 65,
      "Velocity": 64,
      "Duration": 9160259,
      "SoundDuration": 9160259,
      "Delta": 206218010
    },
    {
      "NoteNumber": 74,
      "Velocity": 64,
      "Duration": 2690705,
      "SoundDuration": 2690705,
      "Delta": 206538523
    },
    {
      "NoteNumber": 91,
      "Velocity": 64,
      "Duration": 6150642,
      "SoundDuration": 6150642,
      "Delta": 209230832
    }
  ]
}