{"title":"Präludium und Fuge in D-Dur, BWV 850","artist":"Bach","durationMs":172971,"midiSha256":"cfaf4db14b0f5f57f056211407aac26df8511e93afd00a6f581fda6cdfec9812","midiObject":[{"NoteNumber":50,"Velocity":47,"Duration":159997,"SoundDuration":159997,"Delta":0},{"NoteNumber":74,"Velocity":57,"Duration":121527,"SoundDuration":121527,"Delta":107913},{"NoteNumber":76,"Velocity":57,"Duration":121527,"SoundDuration":121527,"Delta":212080},{"NoteNumber":78,"Velocity":57,"Duration":121527,"SoundDuration":121527,"Delta":316247},{"NoteNumber":69,"Velocity":60,"Duration":104166,"SoundDuration":104166,"Delta":420414},{"NoteNumber":62,"Velocity":40,"Duration":156250,"SoundDuration":156250,"Delta":420414},{"NoteNumber":78,"Velocity":57,"Duration":121527,"SoundDuration":121527,"Delta":524580},{"NoteNumber":76,"Velocity":57,"Duration":121527,"SoundDuration":121527,"Delta":628747},{"NoteNumber":74,"Velocity":57,"Duration":121527,"SoundDuration":121527,"Delta":732914},{"NoteNumber":81,"Velocity":62,"Duration":104166,"SoundDuration":104166,"Delta":837081},{"NoteNumber":54,"Velocity":45,"Duration":156250,"SoundDuration":156250,"Delta":837081},{"NoteNumber":74,"Velocity":58,"Duration":121527,"SoundDuration":121527,"Delta":941247},{"NoteNumber":76,"Velocity":58,"Duration":121527,"SoundDuration":121527,"Delta":1045414},{"NoteNumber":78,"Velocity":58,"Duration":121527,"SoundDuration":121527,"Delta":1149581},{"NoteNumber":69,"Velocity":61,"Duration":104166,"SoundDuration":104166,"Delta":1253748},{"NoteNumber":62,"Velocity":40,"Duration":156250,"SoundDuration":156250,"Delta":1253748},{"NoteNumber":78,"Velocity":57,"Duration":121527,"SoundDuration":121527,"Delta":1357914},{"NoteNumber":76,"Velocity":57,"Duration":121527,"SoundDuration":121527,"Delta":1462081},{"NoteNumber":74,"Velocity":57,"Duration":121527,"SoundDuration":121527,"Delta":1566248},{"NoteNumber":79,"Velocity":60,"Duration":104166,"SoundDuration":104166,"Delta":1670415},{"NoteNumber":52,"Velocity":46,"Duration":156250,"SoundDuration":156250,"Delta":1670415},{"NoteNumber":76,"Velocity":58,"Duration":121527,"SoundDuration":121527,"Delta":1774581},{"NoteNumber":78,"Velocity":58,"Duration":121527,"SoundDuration":121527,"Delta":1878748},{"NoteNumber":79,"Velocity":58,"Duration":121527,"SoundDuration":121527,"Delta":1982915},{"NoteNumber":71,"Velocity":60,"Duration":104166,"SoundDuration":104166,"Delta":2087082},{"NoteNumber":62,"Velocity":42,"Duration":156310,"SoundDuration":156310,"Delta":2087082},{"NoteNumber":74,"Velocity":58,"Duration":121830,"SoundDuration":121830,"Delta":2191248},{"NoteNumber":73,"Velocity":58,"Duration":122133,"SoundDuration":122133,"Delta":2295657},{"NoteNumber":71,"Velocity":58,"Duration":122686,"SoundDuration":122686,"Delta":2400308},{"NoteNumber":73,"Velocity":61,"Duration":106383,"SoundDuration":106383,"Delta":2505265},{"NoteNumber":57,"Velocity":45,"Duration":158466,"SoundDuration":158466,"Delta":2505265},{"NoteNumber":76,"Velocity":58,"Duration":121527,"SoundDuration":121527,"Delta":2611648},{"NoteNumber":78,"Velocity":58,"Duration":121527,"SoundDuration":121527,"Delta":2715814},{"NoteNumber":79,"Velocity":58,"Duration":121527,"SoundDuration":121527,"Delta":2819981},{"NoteNumber":69,"Velocity":60,"Duration":104166,"SoundDuration":104166,"Delta":2924148},{"NoteNumber":61,"Velocity":41,"Duration":155536,"SoundDuration":155536,"Delta":2924148},{"NoteNumber":79,"Velocity":58,"Duration":119863,"SoundDuration":119863,"Delta":3028315},{"NoteNumber":78,"Velocity":58,"Duration":120470,"SoundDuration":120470,"Delta":3131054},{"NoteNumber":76,"Velocity":58,"Duration":123744,"SoundDuration":123744,"Delta":3233794},{"NoteNumber":78,"Velocity":62,"Duration":104166,"SoundDuration":104166,"Delta":3340177},{"NoteNumber":50,"Velocity":45,"Duration":156250,"SoundDuration":156250,"Delta":3340177},{"NoteNumber":74,"Velocity":57,"Duration":121527,"SoundDuration":121527,"Delta":3444344},{"NoteNumber":76,"Velocity":56,"Duration":121527,"SoundDuration":121527,"Delta":3548511},{"NoteNumber":78,"Velocity":56,"Duration":121527,"SoundDuration":121527,"Delta":3652677},{"NoteNumber":69,"Velocity":61,"Duration":104166,"SoundDuration":104166,"Delta":3756844},{"NoteNumber":62,"Velocity":40,"Duration":156431,"SoundDuration":156431,"Delta":3756844},{"NoteNumber":73,"Velocity":56,"Duration":121769,"SoundDuration":121769,"Delta":3861011},{"NoteNumber":71,"Velocity":56,"Duration":121167,"SoundDuration":121167,"Delta":3965419},{"NoteNumber":69,"Velocity":56,"Duration":120511,"SoundDuration":120511,"Delta":4069346},{"NoteNumber":71,"Velocity":62,"Duration":102857,"SoundDuration":102857,"Delta":4172676},{"NoteNumber":50,"Velocity":44,"Duration":154051,"SoundDuration":154051,"Delta":4172676},{"NoteNumber":74,"Velocity":56,"Duration":119453,"SoundDuration":119453,"Delta":4275533},{"NoteNumber":76,"Velocity":56,"Duration":119453,"SoundDuration":119453,"Delta":4377922},{"NoteNumber":78,"Velocity":56,"Duration":119810,"SoundDuration":119810,"Delta":4480311},{"NoteNumber":71,"Velocity":61,"Duration":104529,"SoundDuration":104529,"Delta":4582700},{"NoteNumber":62,"Velocity":42,"Duration":155724,"SoundDuration":155724,"Delta":4582700},{"NoteNumber":81,"Velocity":56,"Duration":119453,"SoundDuration":119453,"Delta":4687229},{"NoteNumber":80,"Velocity":56,"Duration":119453,"SoundDuration":119453,"Delta":4789618},{"NoteNumber":78,"Velocity":56,"Duration":120056,"SoundDuration":120056,"Delta":4892007},{"NoteNumber":80,"Velocity":61,"Duration":106006,"SoundDuration":106006,"Delta":4994396},{"NoteNumber":50,"Velocity":45,"Duration":157437,"SoundDuration":157437,"Delta":4994396},{"NoteNumber":76,"Velocity":56,"Duration":119690,"SoundDuration":119690,"Delta":5100403},{"NoteNumber":78,"Velocity":56,"Duration":119453,"SoundDuration":119453,"Delta":5203029},{"NoteNumber":80,"Velocity":56,"Duration":119629,"SoundDuration":119629,"Delta":5305418},{"NoteNumber":71,"Velocity":60,"Duration":102739,"SoundDuration":102739,"Delta":5407924},{"NoteNumber":56,"Velocity":42,"Duration":154109,"SoundDuration":154109,"Delta":5407924},{"NoteNumber":74,"Velocity":56,"Duration":119921,"SoundDuration":119921,"Delta":5510663},{"NoteNumber":73,"Velocity":56,"Duration":120274,"SoundDuration":120274,"Delta":5613403},{"NoteNumber":71,"Velocity":56,"Duration":120274,"SoundDuration":120274,"Delta":5716496},{"NoteNumber":69,"Velocity":60,"Duration":103329,"SoundDuration":103329,"Delta":5819589},{"NoteNumber":49,"Velocity":45,"Duration":156333,"SoundDuration":156333,"Delta":5819589},{"NoteNumber":73,"Velocity":56,"Duration":123674,"SoundDuration":123674,"Delta":5922918},{"NoteNumber":74,"Velocity":56,"Duration":123674,"SoundDuration":123674,"Delta":6028925},{"NoteNumber":76,"Velocity":56,"Duration":123674,"SoundDuration":123674,"Delta":6134932},{"NoteNumber":66,"Velocity":60,"Duration":106006,"SoundDuration":106006,"Delta":6240939},{"NoteNumber":57,"Velocity":42,"Duration":157731,"SoundDuration":157731,"Delta":6240939},{"NoteNumber":76,"Velocity":56,"Duration":120689,"SoundDuration":120689,"Delta":6346946},{"NoteNumber":74,"Velocity":56,"Duration":121178,"SoundDuration":121178,"Delta":6450395},{"NoteNumber":73,"Velocity":56,"Duration":123744,"SoundDuration":123744,"Delta":6553843},{"NoteNumber":74,"Velocity":60,"Duration":104166,"SoundDuration":104166,"Delta":6660226},{"NoteNumber":47,"Velocity":46,"Duration":156250,"SoundDuration":156250,"Delta":6660226},{"NoteNumber":71,"Velocity":56,"Duration":121527,"SoundDuration":121527,"Delta":6764393},{"NoteNumber":73,"Velocity":56,"Duration":121527,"SoundDuration":121527,"Delta":6868559},{"NoteNumber":74,"Velocity":56,"Duration":121527,"SoundDuration":121527,"Delta":6972726},{"NoteNumber":66,"Velocity":60,"Duration":104166,"SoundDuration":104166,"Delta":7076893},{"NoteNumber":57,"Velocity":39,"Duration":156310,"SoundDuration":156310,"Delta":7076893},{"NoteNumber":69,"Velocity":55,"Duration":121830,"SoundDuration":121830,"Delta":7181060},{"NoteNumber":68,"Velocity":55,"Duration":122133,"SoundDuration":122133,"Delta":7285468},{"NoteNumber":66,"Velocity":54,"Duration":122438,"SoundDuration":122438,"Delta":7390120},{"NoteNumber":68,"Velocity":59,"Duration":105263,"SoundDuration":105263,"Delta":7495015},{"NoteNumber":52,"Velocity":44,"Duration":157894,"SoundDuration":157894,"Delta":7495015},{"NoteNumber":71,"Velocity":54,"Duration":122807,"SoundDuration":122807,"Delta":7600278},{"NoteNumber":73,"Velocity":54,"Duration":122807,"SoundDuration":122807,"Delta":7705541},{"NoteNumber":74,"Velocity":54,"Duration":122807,"SoundDuration":122807,"Delta":7810804},{"NoteNumber":64,"Velocity":59,"Duration":105263,"SoundDuration":105263,"Delta":7916068},{"NoteNumber":56,"Velocity":38,"Duration":156987,"SoundDuration":156987,"Delta":7916068},{"NoteNumber":74,"Velocity":53,"Duration":120689,"SoundDuration":120689,"Delta":8021331},{"NoteNumber":73,"Velocity":53,"Duration":120689,"SoundDuration":120689,"Delta":8124779},{"NoteNumber":71,"Velocity":53,"Duration":121305,"SoundDuration":121305,"Delta":8228227},{"NoteNumber":73,"Velocity":57,"Duration":107142,"SoundDuration":107142,"Delta":8331676},{"NoteNumber":45,"Velocity":42,"Duration":159045,"SoundDuration":159045,"Delta":8331676},{"NoteNumber":69,"Velocity":54,"Duration":121107,"SoundDuration":121107,"Delta":8438818},{"NoteNumber":71,"Velocity":54,"Duration":121107,"SoundDuration":121107,"Delta":8542625},{"NoteNumber":73,"Velocity":54,"Duration":121107,"SoundDuration":121107,"Delta":8646431},{"NoteNumber":64,"Velocity":56,"Duration":103806,"SoundDuration":103806,"Delta":8750237},{"NoteNumber":57,"Velocity":39,"Duration":156253,"SoundDuration":156253,"Delta":8750237},{"NoteNumber":67,"Velocity":53,"Duration":122377,"SoundDuration":122377,"Delta":8854043},{"NoteNumber":66,"Velocity":53,"Duration":122377,"SoundDuration":122377,"Delta":8958938},{"NoteNumber":64,"Velocity":53,"Duration":122077,"SoundDuration":122077,"Delta":9063833},{"NoteNumber":66,"Velocity":55,"Duration":103092,"SoundDuration":103092,"Delta":9168728},{"NoteNumber":45,"Velocity":41,"Duration":154639,"SoundDuration":154639,"Delta":9168728},{"NoteNumber":69,"Velocity":53,"Duration":120274,"SoundDuration":120274,"Delta":9271821},{"NoteNumber":71,"Velocity":52,"Duration":120274,"SoundDuration":120274,"Delta":9374914},{"NoteNumber":73,"Velocity":52,"Duration":120274,"SoundDuration":120274,"Delta":9478007},{"NoteNumber":66,"Velocity":55,"Duration":103092,"SoundDuration":103092,"Delta":9581099},{"NoteNumber":57,"Velocity":36,"Duration":155909,"SoundDuration":155909,"Delta":9581099},{"NoteNumber":76,"Velocity":51,"Duration":123239,"SoundDuration":123239,"Delta":9684192},{"NoteNumber":75,"Velocity":51,"Duration":123239,"SoundDuration":123239,"Delta":9789826},{"NoteNumber":73,"Velocity":51,"Duration":123239,"SoundDuration":123239,"Delta":9895460},{"NoteNumber":75,"Velocity":54,"Duration":105633,"SoundDuration":105633,"Delta":10001093},{"NoteNumber":45,"Velocity":39,"Duration":157536,"SoundDuration":157536,"Delta":10001093},{"NoteNumber":71,"Velocity":51,"Duration":121107,"SoundDuration":121107,"Delta":10106727},{"NoteNumber":73,"Velocity":51,"Duration":121107,"SoundDuration":121107,"Delta":10210533},{"NoteNumber":75,"Velocity":51,"Duration":121107,"SoundDuration":121107,"Delta":10314340},{"NoteNumber":66,"Velocity":54,"Duration":103806,"SoundDuration":103806,"Delta":10418146},{"NoteNumber":51,"Velocity":36,"Duration":155709,"SoundDuration":155709,"Delta":10418146},{"NoteNumber":69,"Velocity":52,"Duration":121107,"SoundDuration":121107,"Delta":10521952},{"NoteNumber":67,"Velocity":52,"Duration":121107,"SoundDuration":121107,"Delta":10625758},{"NoteNumber":66,"Velocity":52,"Duration":121047,"SoundDuration":121047,"Delta":10729565},{"NoteNumber":64,"Velocity":55,"Duration":103388,"SoundDuration":103388,"Delta":10833371},{"NoteNumber":43,"Velocity":41,"Duration":154935,"SoundDuration":154935,"Delta":10833371},{"NoteNumber":67,"Velocity":53,"Duration":120098,"SoundDuration":120098,"Delta":10936760},{"NoteNumber":69,"Velocity":53,"Duration":119629,"SoundDuration":119629,"Delta":11039735},{"NoteNumber":71,"Velocity":53,"Duration":119106,"SoundDuration":119106,"Delta":11142299},{"NoteNumber":61,"Velocity":57,"Duration":101694,"SoundDuration":101694,"Delta":11244456},{"NoteNumber":52,"Velocity":38,"Duration":152889,"SoundDuration":152889,"Delta":11244456},{"NoteNumber":74,"Velocity":54,"Duration":119453,"SoundDuration":119453,"Delta":11346151},{"NoteNumber":73,"Velocity":54,"Duration":119453,"SoundDuration":119453,"Delta":11448540},{"NoteNumber":71,"Velocity":54,"Duration":119453,"SoundDuration":119453,"Delta":11550929},{"NoteNumber":70,"Velocity":57,"Duration":102389,"SoundDuration":102389,"Delta":11653318},{"NoteNumber":42,"Velocity":44,"Duration":154472,"SoundDuration":154472,"Delta":11653318},{"NoteNumber":64,"Velocity":55,"Duration":121527,"SoundDuration":121527,"Delta":11755707},{"NoteNumber":66,"Velocity":55,"Duration":121527,"SoundDuration":121527,"Delta":11859874},{"NoteNumber":67,"Velocity":55,"Duration":121527,"SoundDuration":121527,"Delta":11964041},{"NoteNumber":61,"Velocity":59,"Duration":104166,"SoundDuration":104166,"Delta":12068207},{"NoteNumber":54,"Velocity":39,"Duration":156069,"SoundDuration":156069,"Delta":12068207},{"NoteNumber":67,"Velocity":55,"Duration":121107,"SoundDuration":121107,"Delta":12172374},{"NoteNumber":66,"Velocity":56,"Duration":120749,"SoundDuration":120749,"Delta":12276180},{"NoteNumber":64,"Velocity":56,"Duration":120393,"SoundDuration":120393,"Delta":12379688},{"NoteNumber":62,"Velocity":61,"Duration":102857,"SoundDuration":102857,"Delta":12482899},{"NoteNumber":42,"Velocity":46,"Duration":154051,"SoundDuration":154051,"Delta":12482899},{"NoteNumber":71,"Velocity":57,"Duration":119453,"SoundDuration":119453,"Delta":12585757},{"NoteNumber":73,"Velocity":57,"Duration":119453,"SoundDuration":119453,"Delta":12688146},{"NoteNumber":74,"Velocity":57,"Duration":119453,"SoundDuration":119453,"Delta":12790535},{"NoteNumber":66,"Velocity":62,"Duration":102389,"SoundDuration":102389,"Delta":12892924},{"NoteNumber":54,"Velocity":41,"Duration":153583,"SoundDuration":153583,"Delta":12892924},{"NoteNumber":69,"Velocity":58,"Duration":119453,"SoundDuration":119453,"Delta":12995313},{"NoteNumber":68,"Velocity":58,"Duration":119453,"SoundDuration":119453,"Delta":13097702},{"NoteNumber":66,"Velocity":58,"Duration":119453,"SoundDuration":119453,"Delta":13200091},{"NoteNumber":65,"Velocity":63,"Duration":102389,"SoundDuration":102389,"Delta":13302480},{"NoteNumber":42,"Velocity":46,"Duration":154472,"SoundDuration":154472,"Delta":13302480},{"NoteNumber":68,"Velocity":58,"Duration":121527,"SoundDuration":121527,"Delta":13404869},{"NoteNumber":69,"Velocity":59,"Duration":121527,"SoundDuration":121527,"Delta":13509036},{"NoteNumber":71,"Velocity":59,"Duration":121527,"SoundDuration":121527,"Delta":13613202},{"NoteNumber":65,"Velocity":63,"Duration":104166,"SoundDuration":104166,"Delta":13717369},{"NoteNumber":54,"Velocity":42,"Duration":156250,"SoundDuration":156250,"Delta":13717369},{"NoteNumber":74,"Velocity":59,"Duration":121527,"SoundDuration":121527,"Delta":13821536},{"NoteNumber":73,"Velocity":59,"Duration":121527,"SoundDuration":121527,"Delta":13925703},{"NoteNumber":71,"Velocity":60,"Duration":121527,"SoundDuration":121527,"Delta":14029869},{"NoteNumber":80,"Velocity":63,"Duration":104166,"SoundDuration":104166,"Delta":14134036},{"NoteNumber":42,"Velocity":47,"Duration":155187,"SoundDuration":155187,"Delta":14134036},{"NoteNumber":77,"Velocity":60,"Duration":119047,"SoundDuration":119047,"Delta":14238203},{"NoteNumber":78,"Velocity":60,"Duration":119047,"SoundDuration":119047,"Delta":14340244},{"NoteNumber":80,"Velocity":60,"Duration":119708,"SoundDuration":119708,"Delta":14442284},{"NoteNumber":73,"Velocity":65,"Duration":106006,"SoundDuration":106006,"Delta":14544325},{"NoteNumber":54,"Velocity":42,"Duration":158638,"SoundDuration":158638,"Delta":14544325},{"NoteNumber":83,"Velocity":61,"Duration":122807,"SoundDuration":122807,"Delta":14650332},{"NoteNumber":81,"Velocity":62,"Duration":122807,"SoundDuration":122807,"Delta":14755595},{"NoteNumber":80,"Velocity":62,"Duration":122807,"SoundDuration":122807,"Delta":14860859},{"NoteNumber":81,"Velocity":67,"Duration":105263,"SoundDuration":105263,"Delta":14966122},{"NoteNumber":42,"Velocity":49,"Duration":156283,"SoundDuration":156283,"Delta":14966122},{"NoteNumber":78,"Velocity":62,"Duration":119047,"SoundDuration":119047,"Delta":15071385},{"NoteNumber":80,"Velocity":62,"Duration":119047,"SoundDuration":119047,"Delta":15173426},{"NoteNumber":81,"Velocity":62,"Duration":119047,"SoundDuration":119047,"Delta":15275467},{"NoteNumber":73,"Velocity":67,"Duration":102040,"SoundDuration":102040,"Delta":15377507},{"NoteNumber":54,"Velocity":44,"Duration":153061,"SoundDuration":153061,"Delta":15377507},{"NoteNumber":76,"Velocity":62,"Duration":118989,"SoundDuration":118989,"Delta":15479548},{"NoteNumber":75,"Velocity":62,"Duration":118644,"SoundDuration":118644,"Delta":15581589},{"NoteNumber":73,"Velocity":62,"Duration":118586,"SoundDuration":118586,"Delta":15683284},{"NoteNumber":75,"Velocity":67,"Duration":101351,"SoundDuration":101351,"Delta":15784979},{"NoteNumber":47,"Velocity":49,"Duration":152026,"SoundDuration":152026,"Delta":15784979},{"NoteNumber":78,"Velocity":62,"Duration":118186,"SoundDuration":118186,"Delta":15886330},{"NoteNumber":79,"Velocity":62,"Duration":117844,"SoundDuration":117844,"Delta":15987681},{"NoteNumber":81,"Velocity":62,"Duration":118621,"SoundDuration":118621,"Delta":16088691},{"NoteNumber":71,"Velocity":67,"Duration":106007,"SoundDuration":106007,"Delta":16189645},{"NoteNumber":51,"Velocity":45,"Duration":157027,"SoundDuration":157027,"Delta":16189645},{"NoteNumber":81,"Velocity":62,"Duration":119221,"SoundDuration":119221,"Delta":16295652},{"NoteNumber":79,"Velocity":62,"Duration":119981,"SoundDuration":119981,"Delta":16397809},{"NoteNumber":78,"Velocity":62,"Duration":120809,"SoundDuration":120809,"Delta":16500608},{"NoteNumber":79,"Velocity":67,"Duration":104106,"SoundDuration":104106,"Delta":16604116},{"NoteNumber":40,"Velocity":48,"Duration":156009,"SoundDuration":156009,"Delta":16604116},{"NoteNumber":76,"Velocity":62,"Duration":121107,"SoundDuration":121107,"Delta":16708223},{"NoteNumber":78,"Velocity":62,"Duration":121107,"SoundDuration":121107,"Delta":16812029},{"NoteNumber":79,"Velocity":62,"Duration":121107,"SoundDuration":121107,"Delta":16915835},{"NoteNumber":71,"Velocity":66,"Duration":103806,"SoundDuration":103806,"Delta":17019641},{"NoteNumber":52,"Velocity":45,"Duration":155769,"SoundDuration":155769,"Delta":17019641},{"NoteNumber":74,"Velocity":62,"Duration":121407,"SoundDuration":121407,"Delta":17123448},{"NoteNumber":72,"Velocity":62,"Duration":121709,"SoundDuration":121709,"Delta":17227494},{"NoteNumber":71,"Velocity":62,"Duration":122072,"SoundDuration":122072,"Delta":17331782},{"NoteNumber":72,"Velocity":66,"Duration":104894,"SoundDuration":104894,"Delta":17436372},{"NoteNumber":40,"Velocity":48,"Duration":156441,"SoundDuration":156441,"Delta":17436372},{"NoteNumber":75,"Velocity":62,"Duration":120274,"SoundDuration":120274,"Delta":17541267},{"NoteNumber":76,"Velocity":62,"Duration":120274,"SoundDuration":120274,"Delta":17644360},{"NoteNumber":78,"Velocity":62,"Duration":120274,"SoundDuration":120274,"Delta":17747453},{"NoteNumber":69,"Velocity":66,"Duration":103092,"SoundDuration":103092,"Delta":17850546},{"NoteNumber":51,"Velocity":48,"Duration":155357,"SoundDuration":155357,"Delta":17850546},{"NoteNumber":72,"Velocity":62,"Duration":121951,"SoundDuration":121951,"Delta":17953638},{"NoteNumber":71,"Velocity":62,"Duration":121951,"SoundDuration":121951,"Delta":18058168},{"NoteNumber":69,"Velocity":62,"Duration":122135,"SoundDuration":122135,"Delta":18162697},{"NoteNumber":67,"Velocity":66,"Duration":105633,"SoundDuration":105633,"Delta":18267227},{"NoteNumber":40,"Velocity":48,"Duration":158450,"SoundDuration":158450,"Delta":18267227},{"NoteNumber":76,"Velocity":62,"Duration":123239,"SoundDuration":123239,"Delta":18372861},{"NoteNumber":78,"Velocity":62,"Duration":123239,"SoundDuration":123239,"Delta":18478494},{"NoteNumber":79,"Velocity":61,"Duration":123239,"SoundDuration":123239,"Delta":18584128},{"NoteNumber":71,"Velocity":66,"Duration":105633,"SoundDuration":105633,"Delta":18689762},{"NoteNumber":52,"Velocity":45,"Duration":157536,"SoundDuration":157536,"Delta":18689762},{"NoteNumber":74,"Velocity":62,"Duration":121107,"SoundDuration":121107,"Delta":18795396},{"NoteNumber":73,"Velocity":62,"Duration":121107,"SoundDuration":121107,"Delta":18899202},{"NoteNumber":71,"Velocity":62,"Duration":121107,"SoundDuration":121107,"Delta":19003008},{"NoteNumber":73,"Velocity":66,"Duration":103806,"SoundDuration":103806,"Delta":19106814},{"NoteNumber":45,"Velocity":48,"Duration":156070,"SoundDuration":156070,"Delta":19106814},{"NoteNumber":76,"Velocity":62,"Duration":121951,"SoundDuration":121951,"Delta":19210621},{"NoteNumber":78,"Velocity":62,"Duration":121951,"SoundDuration":121951,"Delta":19315150},{"NoteNumber":79,"Velocity":62,"Duration":121951,"SoundDuration":121951,"Delta":19419680},{"NoteNumber":69,"Velocity":64,"Duration":104529,"SoundDuration":104529,"Delta":19524209},{"NoteNumber":49,"Velocity":45,"Duration":155899,"SoundDuration":155899,"Delta":19524209},{"NoteNumber":79,"Velocity":62,"Duration":119863,"SoundDuration":119863,"Delta":19628739},{"NoteNumber":78,"Velocity":62,"Duration":119863,"SoundDuration":119863,"Delta":19731478},{"NoteNumber":76,"Velocity":62,"Duration":119804,"SoundDuration":119804,"Delta":19834218},{"NoteNumber":78,"Velocity":67,"Duration":102388,"SoundDuration":102388,"Delta":19936958},{"NoteNumber":38,"Velocity":48,"Duration":153641,"SoundDuration":153641,"Delta":19936958},{"NoteNumber":74,"Velocity":62,"Duration":119746,"SoundDuration":119746,"Delta":20039347},{"NoteNumber":76,"Velocity":62,"Duration":120039,"SoundDuration":120039,"Delta":20141970},{"NoteNumber":78,"Velocity":62,"Duration":120393,"SoundDuration":120393,"Delta":20244827},{"NoteNumber":69,"Velocity":65,"Duration":103448,"SoundDuration":103448,"Delta":20347979},{"NoteNumber":50,"Velocity":44,"Duration":155351,"SoundDuration":155351,"Delta":20347979},{"NoteNumber":72,"Velocity":61,"Duration":121107,"SoundDuration":121107,"Delta":20451427},{"NoteNumber":71,"Velocity":60,"Duration":121107,"SoundDuration":121107,"Delta":20555234},{"NoteNumber":69,"Velocity":60,"Duration":121107,"SoundDuration":121107,"Delta":20659040},{"NoteNumber":71,"Velocity":65,"Duration":103806,"SoundDuration":103806,"Delta":20762846},{"NoteNumber":38,"Velocity":47,"Duration":155176,"SoundDuration":155176,"Delta":20762846},{"NoteNumber":67,"Velocity":59,"Duration":119863,"SoundDuration":119863,"Delta":20866652},{"NoteNumber":69,"Velocity":59,"Duration":119863,"SoundDuration":119863,"Delta":20969392},{"NoteNumber":71,"Velocity":59,"Duration":120222,"SoundDuration":120222,"Delta":21072132},{"NoteNumber":61,"Velocity":64,"Duration":104894,"SoundDuration":104894,"Delta":21174872},{"NoteNumber":50,"Velocity":40,"Duration":156441,"SoundDuration":156441,"Delta":21174872},{"NoteNumber":71,"Velocity":58,"Duration":120274,"SoundDuration":120274,"Delta":21279767},{"NoteNumber":69,"Velocity":58,"Duration":120274,"SoundDuration":120274,"Delta":21382859},{"NoteNumber":67,"Velocity":58,"Duration":120274,"SoundDuration":120274,"Delta":21485952},{"NoteNumber":66,"Velocity":63,"Duration":103092,"SoundDuration":103092,"Delta":21589045},{"NoteNumber":38,"Velocity":45,"Duration":155176,"SoundDuration":155176,"Delta":21589045},{"NoteNumber":62,"Velocity":57,"Duration":121527,"SoundDuration":121527,"Delta":21692138},{"NoteNumber":64,"Velocity":57,"Duration":121527,"SoundDuration":121527,"Delta":21796304},{"NoteNumber":66,"Velocity":57,"Duration":121527,"SoundDuration":121527,"Delta":21900471},{"NoteNumber":57,"Velocity":62,"Duration":104166,"SoundDuration":104166,"Delta":22004638},{"NoteNumber":50,"Velocity":41,"Duration":155361,"SoundDuration":155361,"Delta":22004638},{"NoteNumber":60,"Velocity":57,"Duration":119453,"SoundDuration":119453,"Delta":22108805},{"NoteNumber":59,"Velocity":56,"Duration":119453,"SoundDuration":119453,"Delta":22211194},{"NoteNumber":57,"Velocity":56,"Duration":119453,"SoundDuration":119453,"Delta":22313583},{"NoteNumber":59,"Velocity":61,"Duration":102388,"SoundDuration":102388,"Delta":22415972},{"NoteNumber":38,"Velocity":44,"Duration":153583,"SoundDuration":153583,"Delta":22415972},{"NoteNumber":62,"Velocity":56,"Duration":119453,"SoundDuration":119453,"Delta":22518361},{"NoteNumber":64,"Velocity":56,"Duration":119453,"SoundDuration":119453,"Delta":22620750},{"NoteNumber":66,"Velocity":55,"Duration":119453,"SoundDuration":119453,"Delta":22723139},{"NoteNumber":59,"Velocity":60,"Duration":102389,"SoundDuration":102389,"Delta":22825528},{"NoteNumber":50,"Velocity":38,"Duration":154836,"SoundDuration":154836,"Delta":22825528},{"NoteNumber":69,"Velocity":54,"Duration":122377,"SoundDuration":122377,"Delta":22927917},{"NoteNumber":68,"Velocity":54,"Duration":122377,"SoundDuration":122377,"Delta":23032812},{"NoteNumber":66,"Velocity":54,"Duration":122377,"SoundDuration":122377,"Delta":23137707},{"NoteNumber":68,"Velocity":58,"Duration":104894,"SoundDuration":104894,"Delta":23242602},{"NoteNumber":38,"Velocity":42,"Duration":156978,"SoundDuration":156978,"Delta":23242602},{"NoteNumber":64,"Velocity":54,"Duration":121527,"SoundDuration":121527,"Delta":23347497},{"NoteNumber":66,"Velocity":53,"Duration":121527,"SoundDuration":121527,"Delta":23451663},{"NoteNumber":68,"Velocity":53,"Duration":121407,"SoundDuration":121407,"Delta":23555830},{"NoteNumber":59,"Velocity":57,"Duration":103806,"SoundDuration":103806,"Delta":23659937},{"NoteNumber":56,"Velocity":38,"Duration":155709,"SoundDuration":155709,"Delta":23659937},{"NoteNumber":62,"Velocity":53,"Duration":121107,"SoundDuration":121107,"Delta":23763743},{"NoteNumber":60,"Velocity":53,"Duration":120808,"SoundDuration":120808,"Delta":23867549},{"NoteNumber":59,"Velocity":52,"Duration":120689,"SoundDuration":120689,"Delta":23971117},{"NoteNumber":57,"Velocity":56,"Duration":103388,"SoundDuration":103388,"Delta":24074565},{"NoteNumber":48,"Velocity":41,"Duration":154935,"SoundDuration":154935,"Delta":24074565},{"NoteNumber":60,"Velocity":52,"Duration":120274,"SoundDuration":120274,"Delta":24177954},{"NoteNumber":62,"Velocity":52,"Duration":120274,"SoundDuration":120274,"Delta":24281047},{"NoteNumber":64,"Velocity":52,"Duration":120274,"SoundDuration":120274,"Delta":24384140},{"NoteNumber":57,"Velocity":55,"Duration":103092,"SoundDuration":103092,"Delta":24487232},{"NoteNumber":54,"Velocity":37,"Duration":155540,"SoundDuration":155540,"Delta":24487232},{"NoteNumber":67,"Velocity":51,"Duration":122377,"SoundDuration":122377,"Delta":24590325},{"NoteNumber":66,"Velocity":50,"Duration":122377,"SoundDuration":122377,"Delta":24695220},{"NoteNumber":64,"Velocity":50,"Duration":122377,"SoundDuration":122377,"Delta":24800115},{"NoteNumber":63,"Velocity":54,"Duration":104894,"SoundDuration":104894,"Delta":24905010},{"NoteNumber":47,"Velocity":40,"Duration":156441,"SoundDuration":156441,"Delta":24905010},{"NoteNumber":57,"Velocity":50,"Duration":120274,"SoundDuration":120274,"Delta":25009905},{"NoteNumber":59,"Velocity":50,"Duration":120274,"SoundDuration":120274,"Delta":25112998},{"NoteNumber":60,"Velocity":50,"Duration":120274,"SoundDuration":120274,"Delta":25216091},{"NoteNumber":57,"Velocity":54,"Duration":103092,"SoundDuration":103092,"Delta":25319183},{"NoteNumber":51,"Velocity":37,"Duration":154639,"SoundDuration":154639,"Delta":25319183},{"NoteNumber":60,"Velocity":50,"Duration":120274,"SoundDuration":120274,"Delta":25422276},{"NoteNumber":59,"Velocity":50,"Duration":120274,"SoundDuration":120274,"Delta":25525369},{"NoteNumber":57,"Velocity":50,"Duration":120274,"SoundDuration":120274,"Delta":25628462},{"NoteNumber":55,"Velocity":54,"Duration":103092,"SoundDuration":103092,"Delta":25731554},{"NoteNumber":52,"Velocity":41,"Duration":155724,"SoundDuration":155724,"Delta":25731554},{"NoteNumber":64,"Velocity":50,"Duration":122807,"SoundDuration":122807,"Delta":25834647},{"NoteNumber":66,"Velocity":50,"Duration":122807,"SoundDuration":122807,"Delta":25939910},{"NoteNumber":67,"Velocity":50,"Duration":122807,"SoundDuration":122807,"Delta":26045174},{"NoteNumber":59,"Velocity":54,"Duration":105263,"SoundDuration":105263,"Delta":26150437},{"NoteNumber":55,"Velocity":36,"Duration":156809,"SoundDuration":156809,"Delta":26150437},{"NoteNumber":62,"Velocity":50,"Duration":120334,"SoundDuration":120334,"Delta":26255700},{"NoteNumber":61,"Velocity":50,"Duration":120749,"SoundDuration":120749,"Delta":26358793},{"NoteNumber":59,"Velocity":50,"Duration":121167,"SoundDuration":121167,"Delta":26462241},{"NoteNumber":58,"Velocity":54,"Duration":104227,"SoundDuration":104227,"Delta":26566047},{"NoteNumber":47,"Velocity":41,"Duration":155597,"SoundDuration":155597,"Delta":26566047},{"NoteNumber":61,"Velocity":50,"Duration":119863,"SoundDuration":119863,"Delta":26670275},{"NoteNumber":62,"Velocity":50,"Duration":119863,"SoundDuration":119863,"Delta":26773014},{"NoteNumber":64,"Velocity":50,"Duration":119863,"SoundDuration":119863,"Delta":26875754},{"NoteNumber":58,"Velocity":54,"Duration":102739,"SoundDuration":102739,"Delta":26978494},{"NoteNumber":52,"Velocity":37,"Duration":154109,"SoundDuration":154109,"Delta":26978494},{"NoteNumber":67,"Velocity":50,"Duration":119863,"SoundDuration":119863,"Delta":27081234},{"NoteNumber":66,"Velocity":50,"Duration":119863,"SoundDuration":119863,"Delta":27183973},{"NoteNumber":64,"Velocity":51,"Duration":119863,"SoundDuration":119863,"Delta":27286713},{"NoteNumber":73,"Velocity":55,"Duration":102739,"SoundDuration":102739,"Delta":27389453},{"NoteNumber":55,"Velocity":42,"Duration":154109,"SoundDuration":154109,"Delta":27389453},{"NoteNumber":70,"Velocity":51,"Duration":119863,"SoundDuration":119863,"Delta":27492193},{"NoteNumber":71,"Velocity":52,"Duration":119863,"SoundDuration":119863,"Delta":27594932},{"NoteNumber":73,"Velocity":52,"Duration":119863,"SoundDuration":119863,"Delta":27697672},{"NoteNumber":66,"Velocity":55,"Duration":102739,"SoundDuration":102739,"Delta":27800412},{"NoteNumber":58,"Velocity":37,"Duration":155187,"SoundDuration":155187,"Delta":27800412},{"NoteNumber":76,"Velocity":52,"Duration":122377,"SoundDuration":122377,"Delta":27903152},{"NoteNumber":74,"Velocity":52,"Duration":122377,"SoundDuration":122377,"Delta":28008047},{"NoteNumber":73,"Velocity":52,"Duration":122377,"SoundDuration":122377,"Delta":28112942},{"NoteNumber":74,"Velocity":57,"Duration":104894,"SoundDuration":104894,"Delta":28217837},{"NoteNumber":47,"Velocity":43,"Duration":156441,"SoundDuration":156441,"Delta":28217837},{"NoteNumber":71,"Velocity":53,"Duration":120274,"SoundDuration":120274,"Delta":28322732},{"NoteNumber":73,"Velocity":53,"Duration":120274,"SoundDuration":120274,"Delta":28425824},{"NoteNumber":74,"Velocity":53,"Duration":120274,"SoundDuration":120274,"Delta":28528917},{"NoteNumber":66,"Velocity":58,"Duration":103092,"SoundDuration":103092,"Delta":28632010},{"NoteNumber":59,"Velocity":38,"Duration":154639,"SoundDuration":154639,"Delta":28632010},{"NoteNumber":69,"Velocity":53,"Duration":120274,"SoundDuration":120274,"Delta":28735103},{"NoteNumber":68,"Velocity":53,"Duration":120274,"SoundDuration":120274,"Delta":28838195},{"NoteNumber":66,"Velocity":54,"Duration":120274,"SoundDuration":120274,"Delta":28941288},{"NoteNumber":68,"Velocity":59,"Duration":103092,"SoundDuration":103092,"Delta":29044381},{"NoteNumber":52,"Velocity":44,"Duration":154580,"SoundDuration":154580,"Delta":29044381},{"NoteNumber":71,"Velocity":54,"Duration":119922,"SoundDuration":119922,"Delta":29147474},{"NoteNumber":72,"Velocity":54,"Duration":119279,"SoundDuration":119279,"Delta":29250331},{"NoteNumber":74,"Velocity":54,"Duration":119111,"SoundDuration":119111,"Delta":29352604},{"NoteNumber":64,"Velocity":59,"Duration":103806,"SoundDuration":103806,"Delta":29454414},{"NoteNumber":56,"Velocity":39,"Duration":156071,"SoundDuration":156071,"Delta":29454414},{"NoteNumber":74,"Velocity":55,"Duration":121951,"SoundDuration":121951,"Delta":29558220},{"NoteNumber":72,"Velocity":55,"Duration":121951,"SoundDuration":121951,"Delta":29662750},{"NoteNumber":71,"Velocity":55,"Duration":121951,"SoundDuration":121951,"Delta":29767279},{"NoteNumber":72,"Velocity":61,"Duration":104529,"SoundDuration":104529,"Delta":29871809},{"NoteNumber":45,"Velocity":46,"Duration":156075,"SoundDuration":156075,"Delta":29871809},{"NoteNumber":69,"Velocity":55,"Duration":120274,"SoundDuration":120274,"Delta":29976338},{"NoteNumber":71,"Velocity":54,"Duration":120274,"SoundDuration":120274,"Delta":30079431},{"NoteNumber":72,"Velocity":53,"Duration":120274,"SoundDuration":120274,"Delta":30182524},{"NoteNumber":64,"Velocity":59,"Duration":103033,"SoundDuration":103033,"Delta":30285617},{"NoteNumber":57,"Velocity":40,"Duration":154403,"SoundDuration":154403,"Delta":30285617},{"NoteNumber":67,"Velocity":52,"Duration":119746,"SoundDuration":119746,"Delta":30388651},{"NoteNumber":66,"Velocity":52,"Duration":119337,"SoundDuration":119337,"Delta":30491332},{"NoteNumber":64,"Velocity":51,"Duration":118932,"SoundDuration":118932,"Delta":30593663},{"NoteNumber":66,"Velocity":56,"Duration":101867,"SoundDuration":101867,"Delta":30695646},{"NoteNumber":50,"Velocity":43,"Duration":153062,"SoundDuration":153062,"Delta":30695646},{"NoteNumber":69,"Velocity":50,"Duration":119629,"SoundDuration":119629,"Delta":30797514},{"NoteNumber":71,"Velocity":50,"Duration":120334,"SoundDuration":120334,"Delta":30900020},{"NoteNumber":72,"Velocity":49,"Duration":121108,"SoundDuration":121108,"Delta":31003113},{"NoteNumber":62,"Velocity":54,"Duration":104166,"SoundDuration":104166,"Delta":31106860},{"NoteNumber":54,"Velocity":36,"Duration":156250,"SoundDuration":156250,"Delta":31106860},{"NoteNumber":72,"Velocity":48,"Duration":121527,"SoundDuration":121527,"Delta":31211027},{"NoteNumber":71,"Velocity":47,"Duration":121527,"SoundDuration":121527,"Delta":31315193},{"NoteNumber":69,"Velocity":47,"Duration":121527,"SoundDuration":121527,"Delta":31419360},{"NoteNumber":71,"Velocity":51,"Duration":104166,"SoundDuration":104166,"Delta":31523527},{"NoteNumber":43,"Velocity":39,"Duration":155536,"SoundDuration":155536,"Delta":31523527},{"NoteNumber":67,"Velocity":46,"Duration":119863,"SoundDuration":119863,"Delta":31627694},{"NoteNumber":69,"Velocity":46,"Duration":119863,"SoundDuration":119863,"Delta":31730433},{"NoteNumber":71,"Velocity":46,"Duration":120283,"SoundDuration":120283,"Delta":31833173},{"NoteNumber":62,"Velocity":51,"Duration":105263,"SoundDuration":105263,"Delta":31935913},{"NoteNumber":55,"Velocity":34,"Duration":158454,"SoundDuration":158454,"Delta":31935913},{"NoteNumber":71,"Velocity":46,"Duration":124113,"SoundDuration":124113,"Delta":32041176},{"NoteNumber":69,"Velocity":46,"Duration":124113,"SoundDuration":124113,"Delta":32147559},{"NoteNumber":67,"Velocity":46,"Duration":122442,"SoundDuration":122442,"Delta":32253942},{"NoteNumber":74,"Velocity":51,"Duration":104894,"SoundDuration":104894,"Delta":32358902},{"NoteNumber":47,"Velocity":39,"Duration":156619,"SoundDuration":156619,"Delta":32358902},{"NoteNumber":67,"Velocity":46,"Duration":120689,"SoundDuration":120689,"Delta":32463797},{"NoteNumber":69,"Velocity":46,"Duration":120808,"SoundDuration":120808,"Delta":32567246},{"NoteNumber":71,"Velocity":46,"Duration":121227,"SoundDuration":121227,"Delta":32670754},{"NoteNumber":62,"Velocity":51,"Duration":104227,"SoundDuration":104227,"Delta":32774620},{"NoteNumber":55,"Velocity":35,"Duration":157044,"SoundDuration":157044,"Delta":32774620},{"NoteNumber":71,"Velocity":46,"Duration":123239,"SoundDuration":123239,"Delta":32878847},{"NoteNumber":69,"Velocity":46,"Duration":123239,"SoundDuration":123239,"Delta":32984481},{"NoteNumber":67,"Velocity":46,"Duration":123239,"SoundDuration":123239,"Delta":33090115},{"NoteNumber":72,"Velocity":51,"Duration":105386,"SoundDuration":105386,"Delta":33195748},{"NoteNumber":45,"Velocity":39,"Duration":157470,"SoundDuration":157470,"Delta":33195748},{"NoteNumber":69,"Velocity":48,"Duration":121527,"SoundDuration":121527,"Delta":33301135},{"NoteNumber":71,"Velocity":48,"Duration":121527,"SoundDuration":121527,"Delta":33405302},{"NoteNumber":72,"Velocity":48,"Duration":121527,"SoundDuration":121527,"Delta":33509469},{"NoteNumber":64,"Velocity":51,"Duration":104166,"SoundDuration":104166,"Delta":33613635},{"NoteNumber":55,"Velocity":34,"Duration":156250,"SoundDuration":156250,"Delta":33613635},{"NoteNumber":67,"Velocity":48,"Duration":121527,"SoundDuration":121527,"Delta":33717802},{"NoteNumber":66,"Velocity":48,"Duration":121527,"SoundDuration":121527,"Delta":33821969},{"NoteNumber":64,"Velocity":48,"Duration":121527,"SoundDuration":121527,"Delta":33926136},{"NoteNumber":66,"Velocity":51,"Duration":104166,"SoundDuration":104166,"Delta":34030302},{"NoteNumber":50,"Velocity":39,"Duration":155713,"SoundDuration":155713,"Delta":34030302},{"NoteNumber":69,"Velocity":48,"Duration":120274,"SoundDuration":120274,"Delta":34134469},{"NoteNumber":71,"Velocity":48,"Duration":120274,"SoundDuration":120274,"Delta":34237562},{"NoteNumber":72,"Velocity":48,"Duration":120274,"SoundDuration":120274,"Delta":34340655},{"NoteNumber":62,"Velocity":51,"Duration":103092,"SoundDuration":103092,"Delta":34443747},{"NoteNumber":54,"Velocity":34,"Duration":155540,"SoundDuration":155540,"Delta":34443747},{"NoteNumber":72,"Velocity":48,"Duration":122377,"SoundDuration":122377,"Delta":34546840},{"NoteNumber":71,"Velocity":48,"Duration":122377,"SoundDuration":122377,"Delta":34651735},{"NoteNumber":69,"Velocity":48,"Duration":122377,"SoundDuration":122377,"Delta":34756630},{"NoteNumber":71,"Velocity":51,"Duration":104895,"SoundDuration":104895,"Delta":34861525},{"NoteNumber":43,"Velocity":39,"Duration":156798,"SoundDuration":156798,"Delta":34861525},{"NoteNumber":67,"Velocity":48,"Duration":121107,"SoundDuration":121107,"Delta":34966420},{"NoteNumber":69,"Velocity":48,"Duration":121107,"SoundDuration":121107,"Delta":35070226},{"NoteNumber":71,"Velocity":48,"Duration":121107,"SoundDuration":121107,"Delta":35174033},{"NoteNumber":62,"Velocity":51,"Duration":103806,"SoundDuration":103806,"Delta":35277839},{"NoteNumber":55,"Velocity":34,"Duration":155709,"SoundDuration":155709,"Delta":35277839},{"NoteNumber":66,"Velocity":48,"Duration":121107,"SoundDuration":121107,"Delta":35381645},{"NoteNumber":64,"Velocity":48,"Duration":121107,"SoundDuration":121107,"Delta":35485451},{"NoteNumber":62,"Velocity":48,"Duration":121047,"SoundDuration":121047,"Delta":35589258},{"NoteNumber":64,"Velocity":51,"Duration":103448,"SoundDuration":103448,"Delta":35693064},{"NoteNumber":43,"Velocity":39,"Duration":155172,"SoundDuration":155172,"Delta":35693064},{"NoteNumber":67,"Velocity":48,"Duration":120452,"SoundDuration":120452,"Delta":35796512},{"NoteNumber":69,"Velocity":48,"Duration":120157,"SoundDuration":120157,"Delta":35899783},{"NoteNumber":71,"Velocity":48,"Duration":119863,"SoundDuration":119863,"Delta":36002817},{"NoteNumber":64,"Velocity":51,"Duration":102447,"SoundDuration":102447,"Delta":36105556},{"NoteNumber":55,"Velocity":34,"Duration":153641,"SoundDuration":153641,"Delta":36105556},{"NoteNumber":74,"Velocity":48,"Duration":119453,"SoundDuration":119453,"Delta":36208004},{"NoteNumber":73,"Velocity":48,"Duration":119453,"SoundDuration":119453,"Delta":36310393},{"NoteNumber":71,"Velocity":48,"Duration":119453,"SoundDuration":119453,"Delta":36412782},{"NoteNumber":73,"Velocity":51,"Duration":102389,"SoundDuration":102389,"Delta":36515171},{"NoteNumber":43,"Velocity":39,"Duration":153583,"SoundDuration":153583,"Delta":36515171},{"NoteNumber":69,"Velocity":48,"Duration":119453,"SoundDuration":119453,"Delta":36617560},{"NoteNumber":71,"Velocity":48,"Duration":119453,"SoundDuration":119453,"Delta":36719949},{"NoteNumber":73,"Velocity":48,"Duration":119453,"SoundDuration":119453,"Delta":36822338},{"NoteNumber":64,"Velocity":51,"Duration":102388,"SoundDuration":102388,"Delta":36924727},{"NoteNumber":49,"Velocity":34,"Duration":153583,"SoundDuration":153583,"Delta":36924727},{"NoteNumber":67,"Velocity":49,"Duration":119453,"SoundDuration":119453,"Delta":37027116},{"NoteNumber":66,"Velocity":49,"Duration":119453,"SoundDuration":119453,"Delta":37129505},{"NoteNumber":64,"Velocity":49,"Duration":119395,"SoundDuration":119395,"Delta":37231894},{"NoteNumber":62,"Velocity":52,"Duration":102040,"SoundDuration":102040,"Delta":37334283},{"NoteNumber":42,"Velocity":39,"Duration":153119,"SoundDuration":153119,"Delta":37334283},{"NoteNumber":66,"Velocity":49,"Duration":119337,"SoundDuration":119337,"Delta":37436324},{"NoteNumber":67,"Velocity":49,"Duration":119629,"SoundDuration":119629,"Delta":37538596},{"NoteNumber":69,"Velocity":49,"Duration":119921,"SoundDuration":119921,"Delta":37641102},{"NoteNumber":59,"Velocity":53,"Duration":103092,"SoundDuration":103092,"Delta":37743842},{"NoteNumber":50,"Velocity":34,"Duration":155540,"SoundDuration":155540,"Delta":37743842},{"NoteNumber":69,"Velocity":49,"Duration":122377,"SoundDuration":122377,"Delta":37846935},{"NoteNumber":67,"Velocity":49,"Duration":122377,"SoundDuration":122377,"Delta":37951830},{"NoteNumber":66,"Velocity":49,"Duration":122377,"SoundDuration":122377,"Delta":38056725},{"NoteNumber":67,"Velocity":53,"Duration":104895,"SoundDuration":104895,"Delta":38161620},{"NoteNumber":40,"Velocity":40,"Duration":157342,"SoundDuration":157342,"Delta":38161620},{"NoteNumber":64,"Velocity":49,"Duration":122377,"SoundDuration":122377,"Delta":38266515},{"NoteNumber":66,"Velocity":49,"Duration":122377,"SoundDuration":122377,"Delta":38371410},{"NoteNumber":67,"Velocity":49,"Duration":122377,"SoundDuration":122377,"Delta":38476305},{"NoteNumber":59,"Velocity":54,"Duration":104894,"SoundDuration":104894,"Delta":38581200},{"NoteNumber":50,"Velocity":35,"Duration":156798,"SoundDuration":156798,"Delta":38581200},{"NoteNumber":62,"Velocity":49,"Duration":121107,"SoundDuration":121107,"Delta":38686095},{"NoteNumber":61,"Velocity":50,"Duration":121107,"SoundDuration":121107,"Delta":38789901},{"NoteNumber":59,"Velocity":50,"Duration":121107,"SoundDuration":121107,"Delta":38893707},{"NoteNumber":61,"Velocity":54,"Duration":103806,"SoundDuration":103806,"Delta":38997514},{"NoteNumber":45,"Velocity":42,"Duration":155709,"SoundDuration":155709,"Delta":38997514},{"NoteNumber":64,"Velocity":50,"Duration":121107,"SoundDuration":121107,"Delta":39101320},{"NoteNumber":66,"Velocity":50,"Duration":121107,"SoundDuration":121107,"Delta":39205126},{"NoteNumber":67,"Velocity":50,"Duration":121107,"SoundDuration":121107,"Delta":39308932},{"NoteNumber":57,"Velocity":55,"Duration":103806,"SoundDuration":103806,"Delta":39412739},{"NoteNumber":49,"Velocity":36,"Duration":156253,"SoundDuration":156253,"Delta":39412739},{"NoteNumber":67,"Velocity":50,"Duration":122377,"SoundDuration":122377,"Delta":39516545},{"NoteNumber":66,"Velocity":51,"Duration":122377,"SoundDuration":122377,"Delta":39621440},{"NoteNumber":64,"Velocity":51,"Duration":122377,"SoundDuration":122377,"Delta":39726335},{"NoteNumber":66,"Velocity":55,"Duration":104895,"SoundDuration":104895,"Delta":39831230},{"NoteNumber":38,"Velocity":43,"Duration":156798,"SoundDuration":156798,"Delta":39831230},{"NoteNumber":62,"Velocity":51,"Duration":121107,"SoundDuration":121107,"Delta":39936125},{"NoteNumber":64,"Velocity":51,"Duration":121107,"SoundDuration":121107,"Delta":40039931},{"NoteNumber":66,"Velocity":52,"Duration":121047,"SoundDuration":121047,"Delta":40143737},{"NoteNumber":57,"Velocity":56,"Duration":103448,"SoundDuration":103448,"Delta":40247544},{"NoteNumber":50,"Velocity":38,"Duration":155172,"SoundDuration":155172,"Delta":40247544},{"NoteNumber":66,"Velocity":52,"Duration":120452,"SoundDuration":120452,"Delta":40350992},{"NoteNumber":64,"Velocity":52,"Duration":120216,"SoundDuration":120216,"Delta":40454262},{"NoteNumber":62,"Velocity":52,"Duration":119863,"SoundDuration":119863,"Delta":40557355},{"NoteNumber":69,"Velocity":57,"Duration":102505,"SoundDuration":102505,"Delta":40660095},{"NoteNumber":42,"Velocity":44,"Duration":153700,"SoundDuration":153700,"Delta":40660095},{"NoteNumber":66,"Velocity":52,"Duration":119453,"SoundDuration":119453,"Delta":40762601},{"NoteNumber":67,"Velocity":52,"Duration":119453,"SoundDuration":119453,"Delta":40864990},{"NoteNumber":69,"Velocity":53,"Duration":119453,"SoundDuration":119453,"Delta":40967379},{"NoteNumber":62,"Velocity":57,"Duration":102389,"SoundDuration":102389,"Delta":41069768},{"NoteNumber":57,"Velocity":39,"Duration":154836,"SoundDuration":154836,"Delta":41069768},{"NoteNumber":72,"Velocity":53,"Duration":122377,"SoundDuration":122377,"Delta":41172157},{"NoteNumber":71,"Velocity":53,"Duration":122377,"SoundDuration":122377,"Delta":41277052},{"NoteNumber":69,"Velocity":53,"Duration":122377,"SoundDuration":122377,"Delta":41381947},{"NoteNumber":71,"Velocity":58,"Duration":104895,"SoundDuration":104895,"Delta":41486842},{"NoteNumber":43,"Velocity":45,"Duration":156619,"SoundDuration":156619,"Delta":41486842},{"NoteNumber":67,"Velocity":53,"Duration":120689,"SoundDuration":120689,"Delta":41591737},{"NoteNumber":69,"Velocity":53,"Duration":120689,"SoundDuration":120689,"Delta":41695185},{"NoteNumber":71,"Velocity":53,"Duration":120689,"SoundDuration":120689,"Delta":41798633},{"NoteNumber":62,"Velocity":58,"Duration":103448,"SoundDuration":103448,"Delta":41902082},{"NoteNumber":55,"Velocity":40,"Duration":154818,"SoundDuration":154818,"Delta":41902082},{"NoteNumber":71,"Velocity":54,"Duration":119863,"SoundDuration":119863,"Delta":42005530},{"NoteNumber":69,"Velocity":54,"Duration":119863,"SoundDuration":119863,"Delta":42108270},{"NoteNumber":67,"Velocity":54,"Duration":119863,"SoundDuration":119863,"Delta":42211009},{"NoteNumber":74,"Velocity":59,"Duration":102739,"SoundDuration":102739,"Delta":42313749},{"NoteNumber":47,"Velocity":46,"Duration":154109,"SoundDuration":154109,"Delta":42313749},{"NoteNumber":71,"Velocity":54,"Duration":119863,"SoundDuration":119863,"Delta":42416489},{"NoteNumber":73,"Velocity":54,"Duration":119863,"SoundDuration":119863,"Delta":42519229},{"NoteNumber":74,"Velocity":54,"Duration":119746,"SoundDuration":119746,"Delta":42621968},{"NoteNumber":68,"Velocity":60,"Duration":102040,"SoundDuration":102040,"Delta":42724708},{"NoteNumber":62,"Velocity":41,"Duration":154305,"SoundDuration":154305,"Delta":42724708},{"NoteNumber":77,"Velocity":55,"Duration":121951,"SoundDuration":121951,"Delta":42826749},{"NoteNumber":76,"Velocity":55,"Duration":121951,"SoundDuration":121951,"Delta":42931278},{"NoteNumber":74,"Velocity":55,"Duration":121951,"SoundDuration":121951,"Delta":43035808},{"NoteNumber":73,"Velocity":60,"Duration":104529,"SoundDuration":104529,"Delta":43140337},{"NoteNumber":45,"Velocity":47,"Duration":4999276,"SoundDuration":4999276,"Delta":43140337},{"NoteNumber":69,"Velocity":56,"Duration":121951,"SoundDuration":121951,"Delta":43244867},{"NoteNumber":71,"Velocity":56,"Duration":121951,"SoundDuration":121951,"Delta":43349396},{"NoteNumber":73,"Velocity":56,"Duration":121951,"SoundDuration":121951,"Delta":43453926},{"NoteNumber":64,"Velocity":60,"Duration":104529,"SoundDuration":104529,"Delta":43558455},{"NoteNumber":55,"Velocity":41,"Duration":156253,"SoundDuration":156253,"Delta":43558455},{"NoteNumber":67,"Velocity":56,"Duration":120689,"SoundDuration":120689,"Delta":43662985},{"NoteNumber":66,"Velocity":56,"Duration":120689,"SoundDuration":120689,"Delta":43766433},{"NoteNumber":64,"Velocity":56,"Duration":120689,"SoundDuration":120689,"Delta":43869881},{"NoteNumber":69,"Velocity":60,"Duration":103448,"SoundDuration":103448,"Delta":43973330},{"NoteNumber":54,"Velocity":47,"Duration":156079,"SoundDuration":156079,"Delta":43973330},{"NoteNumber":74,"Velocity":56,"Duration":122807,"SoundDuration":122807,"Delta":44076778},{"NoteNumber":76,"Velocity":56,"Duration":122807,"SoundDuration":122807,"Delta":44182041},{"NoteNumber":78,"Velocity":56,"Duration":122807,"SoundDuration":122807,"Delta":44287304},{"NoteNumber":71,"Velocity":61,"Duration":105263,"SoundDuration":105263,"Delta":44392568},{"NoteNumber":50,"Velocity":41,"Duration":156809,"SoundDuration":156809,"Delta":44392568},{"NoteNumber":81,"Velocity":56,"Duration":120274,"SoundDuration":120274,"Delta":44497831},{"NoteNumber":79,"Velocity":56,"Duration":120274,"SoundDuration":120274,"Delta":44600924},{"NoteNumber":78,"Velocity":56,"Duration":120274,"SoundDuration":120274,"Delta":44704016},{"NoteNumber":79,"Velocity":61,"Duration":103092,"SoundDuration":103092,"Delta":44807109},{"NoteNumber":52,"Velocity":47,"Duration":155909,"SoundDuration":155909,"Delta":44807109},{"NoteNumber":73,"Velocity":56,"Duration":123239,"SoundDuration":123239,"Delta":44910202},{"NoteNumber":74,"Velocity":56,"Duration":123239,"SoundDuration":123239,"Delta":45015836},{"NoteNumber":76,"Velocity":56,"Duration":123239,"SoundDuration":123239,"Delta":45121469},{"NoteNumber":69,"Velocity":61,"Duration":105633,"SoundDuration":105633,"Delta":45227103},{"NoteNumber":49,"Velocity":41,"Duration":157003,"SoundDuration":157003,"Delta":45227103},{"NoteNumber":79,"Velocity":56,"Duration":119863,"SoundDuration":119863,"Delta":45332737},{"NoteNumber":78,"Velocity":56,"Duration":119863,"SoundDuration":119863,"Delta":45435477},{"NoteNumber":76,"Velocity":56,"Duration":119863,"SoundDuration":119863,"Delta":45538216},{"NoteNumber":78,"Velocity":61,"Duration":102739,"SoundDuration":102739,"Delta":45640956},{"NoteNumber":50,"Velocity":47,"Duration":155004,"SoundDuration":155004,"Delta":45640956},{"NoteNumber":71,"Velocity":56,"Duration":121951,"SoundDuration":121951,"Delta":45743696},{"NoteNumber":73,"Velocity":56,"Duration":121951,"SoundDuration":121951,"Delta":45848225},{"NoteNumber":74,"Velocity":56,"Duration":121951,"SoundDuration":121951,"Delta":45952755},{"NoteNumber":68,"Velocity":61,"Duration":104529,"SoundDuration":104529,"Delta":46057284},{"NoteNumber":47,"Velocity":41,"Duration":156612,"SoundDuration":156612,"Delta":46057284},{"NoteNumber":78,"Velocity":56,"Duration":121527,"SoundDuration":121527,"Delta":46161814},{"NoteNumber":76,"Velocity":56,"Duration":121527,"SoundDuration":121527,"Delta":46265981},{"NoteNumber":74,"Velocity":56,"Duration":121527,"SoundDuration":121527,"Delta":46370147},{"NoteNumber":73,"Velocity":60,"Duration":104166,"SoundDuration":104166,"Delta":46474314},{"NoteNumber":67,"Velocity":56,"Duration":121527,"SoundDuration":121527,"Delta":46578481},{"NoteNumber":52,"Velocity":51,"Duration":121527,"SoundDuration":121527,"Delta":46578481},{"NoteNumber":69,"Velocity":56,"Duration":121527,"SoundDuration":121527,"Delta":46682648},{"NoteNumber":54,"Velocity":50,"Duration":121527,"SoundDuration":121527,"Delta":46682648},{"NoteNumber":70,"Velocity":56,"Duration":121527,"SoundDuration":121527,"Delta":46786814},{"NoteNumber":55,"Velocity":50,"Duration":121527,"SoundDuration":121527,"Delta":46786814},{"NoteNumber":64,"Velocity":60,"Duration":104166,"SoundDuration":104166,"Delta":46890981},{"NoteNumber":49,"Velocity":54,"Duration":104166,"SoundDuration":104166,"Delta":46890981},{"NoteNumber":67,"Velocity":56,"Duration":121527,"SoundDuration":121527,"Delta":46995148},{"NoteNumber":52,"Velocity":50,"Duration":121527,"SoundDuration":121527,"Delta":46995148},{"NoteNumber":65,"Velocity":56,"Duration":121527,"SoundDuration":121527,"Delta":47099315},{"NoteNumber":50,"Velocity":50,"Duration":121527,"SoundDuration":121527,"Delta":47099315},{"NoteNumber":64,"Velocity":56,"Duration":121527,"SoundDuration":121527,"Delta":47203481},{"NoteNumber":49,"Velocity":50,"Duration":121527,"SoundDuration":121527,"Delta":47203481},{"NoteNumber":65,"Velocity":60,"Duration":104166,"SoundDuration":104166,"Delta":47307648},{"NoteNumber":50,"Velocity":54,"Duration":104166,"SoundDuration":104166,"Delta":47307648},{"NoteNumber":74,"Velocity":56,"Duration":122377,"SoundDuration":122377,"Delta":47411815},{"NoteNumber":53,"Velocity":51,"Duration":122377,"SoundDuration":122377,"Delta":47411815},{"NoteNumber":76,"Velocity":62,"Duration":122377,"SoundDuration":122377,"Delta":47516710},{"NoteNumber":55,"Velocity":53,"Duration":122377,"SoundDuration":122377,"Delta":47516710},{"NoteNumber":77,"Velocity":58,"Duration":122377,"SoundDuration":122377,"Delta":47621605},{"NoteNumber":57,"Velocity":53,"Duration":122377,"SoundDuration":122377,"Delta":47621605},{"NoteNumber":73,"Velocity":60,"Duration":104895,"SoundDuration":104895,"Delta":47726500},{"NoteNumber":52,"Velocity":54,"Duration":104895,"SoundDuration":104895,"Delta":47726500},{"NoteNumber":76,"Velocity":56,"Duration":119863,"SoundDuration":119863,"Delta":47831395},{"NoteNumber":55,"Velocity":50,"Duration":119863,"SoundDuration":119863,"Delta":47831395},{"NoteNumber":74,"Velocity":56,"Duration":119863,"SoundDuration":119863,"Delta":47934135},{"NoteNumber":53,"Velocity":50,"Duration":119863,"SoundDuration":119863,"Delta":47934135},{"NoteNumber":73,"Velocity":56,"Duration":120222,"SoundDuration":120222,"Delta":48036874},{"NoteNumber":52,"Velocity":50,"Duration":120222,"SoundDuration":120222,"Delta":48036874},{"NoteNumber":74,"Velocity":60,"Duration":104894,"SoundDuration":104894,"Delta":48139614},{"NoteNumber":53,"Velocity":55,"Duration":104894,"SoundDuration":104894,"Delta":48139614},{"NoteNumber":82,"Velocity":66,"Duration":119863,"SoundDuration":119863,"Delta":48244509},{"NoteNumber":50,"Velocity":50,"Duration":119863,"SoundDuration":119863,"Delta":48244509},{"NoteNumber":81,"Velocity":65,"Duration":119863,"SoundDuration":119863,"Delta":48347249},{"NoteNumber":52,"Velocity":50,"Duration":119863,"SoundDuration":119863,"Delta":48347249},{"NoteNumber":79,"Velocity":64,"Duration":120989,"SoundDuration":120989,"Delta":48449930},{"NoteNumber":53,"Velocity":50,"Duration":120989,"SoundDuration":120989,"Delta":48449930},{"NoteNumber":77,"Velocity":62,"Duration":104713,"SoundDuration":104713,"Delta":48553559},{"NoteNumber":45,"Velocity":51,"Duration":104713,"SoundDuration":104713,"Delta":48553559},{"NoteNumber":76,"Velocity":61,"Duration":123551,"SoundDuration":123551,"Delta":48658272},{"NoteNumber":48,"Velocity":52,"Duration":123551,"SoundDuration":123551,"Delta":48658272},{"NoteNumber":74,"Velocity":60,"Duration":124874,"SoundDuration":124874,"Delta":48764093},{"NoteNumber":46,"Velocity":54,"Duration":124874,"SoundDuration":124874,"Delta":48764093},{"NoteNumber":73,"Velocity":58,"Duration":125531,"SoundDuration":125531,"Delta":48871046},{"NoteNumber":45,"Velocity":56,"Duration":125531,"SoundDuration":125531,"Delta":48871046},{"NoteNumber":74,"Velocity":60,"Duration":104529,"SoundDuration":104529,"Delta":48979156},{"NoteNumber":44,"Velocity":58,"Duration":2480189,"SoundDuration":2480189,"Delta":48979156},{"NoteNumber":77,"Velocity":62,"Duration":120689,"SoundDuration":120689,"Delta":49083685},{"NoteNumber":76,"Velocity":61,"Duration":120689,"SoundDuration":120689,"Delta":49187133},{"NoteNumber":74,"Velocity":60,"Duration":120689,"SoundDuration":120689,"Delta":49290582},{"NoteNumber":83,"Velocity":65,"Duration":103448,"SoundDuration":103448,"Delta":49394030},{"NoteNumber":80,"Velocity":61,"Duration":119863,"SoundDuration":119863,"Delta":49497478},{"NoteNumber":81,"Velocity":63,"Duration":119863,"SoundDuration":119863,"Delta":49600218},{"NoteNumber":83,"Velocity":66,"Duration":119863,"SoundDuration":119863,"Delta":49702958},{"NoteNumber":77,"Velocity":68,"Duration":102739,"SoundDuration":102739,"Delta":49805697},{"NoteNumber":74,"Velocity":61,"Duration":119863,"SoundDuration":119863,"Delta":49908437},{"NoteNumber":76,"Velocity":61,"Duration":119863,"SoundDuration":119863,"Delta":50011177},{"NoteNumber":77,"Velocity":61,"Duration":119863,"SoundDuration":119863,"Delta":50113917},{"NoteNumber":71,"Velocity":65,"Duration":102739,"SoundDuration":102739,"Delta":50216656},{"NoteNumber":68,"Velocity":59,"Duration":119863,"SoundDuration":119863,"Delta":50319396},{"NoteNumber":69,"Velocity":59,"Duration":119863,"SoundDuration":119863,"Delta":50422136},{"NoteNumber":71,"Velocity":59,"Duration":119804,"SoundDuration":119804,"Delta":50524876},{"NoteNumber":64,"Velocity":61,"Duration":102447,"SoundDuration":102447,"Delta":50627615},{"NoteNumber":66,"Velocity":55,"Duration":120039,"SoundDuration":120039,"Delta":50730063},{"NoteNumber":68,"Velocity":57,"Duration":120511,"SoundDuration":120511,"Delta":50832920},{"NoteNumber":69,"Velocity":59,"Duration":121048,"SoundDuration":121048,"Delta":50936191},{"NoteNumber":71,"Velocity":60,"Duration":121648,"SoundDuration":121648,"Delta":51039878},{"NoteNumber":73,"Velocity":62,"Duration":122133,"SoundDuration":122133,"Delta":51144105},{"NoteNumber":74,"Velocity":64,"Duration":122622,"SoundDuration":122622,"Delta":51248756},{"NoteNumber":76,"Velocity":65,"Duration":123692,"SoundDuration":123692,"Delta":51353835},{"NoteNumber":77,"Velocity":71,"Duration":663636,"SoundDuration":663636,"Delta":51459345},{"NoteNumber":45,"Velocity":60,"Duration":1894207,"SoundDuration":1894207,"Delta":51459345},{"NoteNumber":73,"Velocity":57,"Duration":109090,"SoundDuration":109090,"Delta":51568436},{"NoteNumber":74,"Velocity":57,"Duration":109090,"SoundDuration":109090,"Delta":51677527},{"NoteNumber":57,"Velocity":50,"Duration":218181,"SoundDuration":218181,"Delta":51677527},{"NoteNumber":69,"Velocity":57,"Duration":109090,"SoundDuration":109090,"Delta":51786618},{"NoteNumber":70,"Velocity":57,"Duration":113636,"SoundDuration":113636,"Delta":51895709},{"NoteNumber":55,"Velocity":50,"Duration":227272,"SoundDuration":227272,"Delta":51895709},{"NoteNumber":67,"Velocity":57,"Duration":113636,"SoundDuration":113636,"Delta":52009346},{"NoteNumber":76,"Velocity":71,"Duration":462704,"SoundDuration":462704,"Delta":52122982},{"NoteNumber":49,"Velocity":50,"Duration":229230,"SoundDuration":229230,"Delta":52122982},{"NoteNumber":67,"Velocity":57,"Duration":115016,"SoundDuration":115016,"Delta":52237196},{"NoteNumber":69,"Velocity":57,"Duration":116055,"SoundDuration":116055,"Delta":52352212},{"NoteNumber":53,"Velocity":55,"Duration":233474,"SoundDuration":233474,"Delta":52352212},{"NoteNumber":65,"Velocity":57,"Duration":117418,"SoundDuration":117418,"Delta":52468268},{"NoteNumber":74,"Velocity":71,"Duration":486007,"SoundDuration":486007,"Delta":52585686},{"NoteNumber":50,"Velocity":50,"Duration":239055,"SoundDuration":239055,"Delta":52585686},{"NoteNumber":65,"Velocity":56,"Duration":120242,"SoundDuration":120242,"Delta":52704500},{"NoteNumber":67,"Velocity":57,"Duration":122205,"SoundDuration":122205,"Delta":52824742},{"NoteNumber":52,"Velocity":53,"Duration":246951,"SoundDuration":246951,"Delta":52824742},{"NoteNumber":64,"Velocity":57,"Duration":124746,"SoundDuration":124746,"Delta":52946948},{"NoteNumber":73,"Velocity":69,"Duration":281859,"SoundDuration":281859,"Delta":53071694},{"NoteNumber":55,"Velocity":50,"Duration":281859,"SoundDuration":281859,"Delta":53071694},{"NoteNumber":64,"Velocity":56,"Duration":139002,"SoundDuration":139002,"Delta":53214551},{"NoteNumber":45,"Velocity":44,"Duration":833333,"SoundDuration":833333,"Delta":53353553},{"NoteNumber":50,"Velocity":45,"Duration":781249,"SoundDuration":781249,"Delta":53405637},{"NoteNumber":53,"Velocity":48,"Duration":729166,"SoundDuration":729166,"Delta":53457720},{"NoteNumber":56,"Velocity":49,"Duration":677083,"SoundDuration":677083,"Delta":53509803},{"NoteNumber":59,"Velocity":52,"Duration":624999,"SoundDuration":624999,"Delta":53561887},{"NoteNumber":62,"Velocity":52,"Duration":572916,"SoundDuration":572916,"Delta":53613970},{"NoteNumber":65,"Velocity":57,"Duration":520833,"SoundDuration":520833,"Delta":53666053},{"NoteNumber":68,"Velocity":60,"Duration":468749,"SoundDuration":468749,"Delta":53718137},{"NoteNumber":71,"Velocity":64,"Duration":416666,"SoundDuration":416666,"Delta":53770220},{"NoteNumber":74,"Velocity":68,"Duration":446550,"SoundDuration":446550,"Delta":53822303},{"NoteNumber":73,"Velocity":53,"Duration":81967,"SoundDuration":81967,"Delta":54268854},{"NoteNumber":71,"Velocity":53,"Duration":81967,"SoundDuration":81967,"Delta":54350821},{"NoteNumber":69,"Velocity":52,"Duration":81670,"SoundDuration":81670,"Delta":54432788},{"NoteNumber":68,"Velocity":52,"Duration":81521,"SoundDuration":81521,"Delta":54514458},{"NoteNumber":66,"Velocity":51,"Duration":81081,"SoundDuration":81081,"Delta":54595980},{"NoteNumber":64,"Velocity":51,"Duration":80790,"SoundDuration":80790,"Delta":54677061},{"NoteNumber":66,"Velocity":50,"Duration":80501,"SoundDuration":80501,"Delta":54757852},{"NoteNumber":68,"Velocity":47,"Duration":79929,"SoundDuration":79929,"Delta":54838353},{"NoteNumber":69,"Velocity":48,"Duration":79225,"SoundDuration":79225,"Delta":54918283},{"NoteNumber":71,"Velocity":49,"Duration":78671,"SoundDuration":78671,"Delta":54997508},{"NoteNumber":73,"Velocity":50,"Duration":77990,"SoundDuration":77990,"Delta":55076180},{"NoteNumber":74,"Velocity":51,"Duration":77453,"SoundDuration":77453,"Delta":55154170},{"NoteNumber":76,"Velocity":51,"Duration":76792,"SoundDuration":76792,"Delta":55231623},{"NoteNumber":77,"Velocity":52,"Duration":76271,"SoundDuration":76271,"Delta":55308416},{"NoteNumber":76,"Velocity":53,"Duration":75630,"SoundDuration":75630,"Delta":55384687},{"NoteNumber":74,"Velocity":54,"Duration":75000,"SoundDuration":75000,"Delta":55460318},{"NoteNumber":73,"Velocity":53,"Duration":74999,"SoundDuration":74999,"Delta":55535318},{"NoteNumber":71,"Velocity":52,"Duration":75000,"SoundDuration":75000,"Delta":55610318},{"NoteNumber":69,"Velocity":52,"Duration":74999,"SoundDuration":74999,"Delta":55685318},{"NoteNumber":68,"Velocity":51,"Duration":75000,"SoundDuration":75000,"Delta":55760318},{"NoteNumber":66,"Velocity":51,"Duration":75000,"SoundDuration":75000,"Delta":55835318},{"NoteNumber":64,"Velocity":50,"Duration":74999,"SoundDuration":74999,"Delta":55910318},{"NoteNumber":62,"Velocity":49,"Duration":75000,"SoundDuration":75000,"Delta":55985318},{"NoteNumber":61,"Velocity":58,"Duration":416666,"SoundDuration":416666,"Delta":56060318},{"NoteNumber":64,"Velocity":58,"Duration":364583,"SoundDuration":364583,"Delta":56112401},{"NoteNumber":67,"Velocity":58,"Duration":312499,"SoundDuration":312499,"Delta":56164485},{"NoteNumber":70,"Velocity":58,"Duration":260416,"SoundDuration":260416,"Delta":56216568},{"NoteNumber":73,"Velocity":58,"Duration":208333,"SoundDuration":208333,"Delta":56268651},{"NoteNumber":76,"Velocity":58,"Duration":156249,"SoundDuration":156249,"Delta":56320735},{"NoteNumber":79,"Velocity":58,"Duration":104166,"SoundDuration":104166,"Delta":56372818},{"NoteNumber":82,"Velocity":58,"Duration":52083,"SoundDuration":52083,"Delta":56424901},{"NoteNumber":62,"Velocity":62,"Duration":416666,"SoundDuration":416666,"Delta":56893651},{"NoteNumber":65,"Velocity":62,"Duration":364583,"SoundDuration":364583,"Delta":56945734},{"NoteNumber":68,"Velocity":62,"Duration":312499,"SoundDuration":312499,"Delta":56997818},{"NoteNumber":71,"Velocity":62,"Duration":260416,"SoundDuration":260416,"Delta":57049901},{"NoteNumber":74,"Velocity":63,"Duration":208333,"SoundDuration":208333,"Delta":57101984},{"NoteNumber":77,"Velocity":63,"Duration":156249,"SoundDuration":156249,"Delta":57154068},{"NoteNumber":80,"Velocity":63,"Duration":104166,"SoundDuration":104166,"Delta":57206151},{"NoteNumber":83,"Velocity":63,"Duration":52083,"SoundDuration":52083,"Delta":57258234},{"NoteNumber":69,"Velocity":58,"Duration":1571044,"SoundDuration":1571044,"Delta":57726984},{"NoteNumber":64,"Velocity":58,"Duration":1571044,"SoundDuration":1571044,"Delta":57726984},{"NoteNumber":74,"Velocity":69,"Duration":754716,"SoundDuration":754716,"Delta":57726984},{"NoteNumber":45,"Velocity":57,"Duration":1571044,"SoundDuration":1571044,"Delta":57726984},{"NoteNumber":52,"Velocity":68,"Duration":754716,"SoundDuration":754716,"Delta":57726984},{"NoteNumber":57,"Velocity":68,"Duration":1571044,"SoundDuration":1571044,"Delta":57726984},{"NoteNumber":73,"Velocity":65,"Duration":816327,"SoundDuration":816327,"Delta":58481701},{"NoteNumber":55,"Velocity":63,"Duration":816327,"SoundDuration":816327,"Delta":58481701},{"NoteNumber":74,"Velocity":71,"Duration":2448980,"SoundDuration":2448980,"Delta":59298028},{"NoteNumber":69,"Velocity":60,"Duration":2448980,"SoundDuration":2448980,"Delta":59298028},{"NoteNumber":66,"Velocity":60,"Duration":2448980,"SoundDuration":2448980,"Delta":59298028},{"NoteNumber":50,"Velocity":57,"Duration":2448980,"SoundDuration":2448980,"Delta":59298028},{"NoteNumber":57,"Velocity":68,"Duration":2448980,"SoundDuration":2448980,"Delta":59298028},{"NoteNumber":54,"Velocity":57,"Duration":2448980,"SoundDuration":2448980,"Delta":59298028},{"NoteNumber":50,"Velocity":66,"Duration":125000,"SoundDuration":125000,"Delta":64747009},{"NoteNumber":52,"Velocity":66,"Duration":125000,"SoundDuration":125000,"Delta":64872009},{"NoteNumber":54,"Velocity":66,"Duration":125000,"SoundDuration":125000,"Delta":64997009},{"NoteNumber":55,"Velocity":66,"Duration":125000,"SoundDuration":125000,"Delta":65122009},{"NoteNumber":54,"Velocity":66,"Duration":125000,"SoundDuration":125000,"Delta":65247009},{"NoteNumber":52,"Velocity":66,"Duration":125000,"SoundDuration":125000,"Delta":65372009},{"NoteNumber":54,"Velocity":66,"Duration":125000,"SoundDuration":125000,"Delta":65497009},{"NoteNumber":50,"Velocity":66,"Duration":125000,"SoundDuration":125000,"Delta":65622009},{"NoteNumber":59,"Velocity":71,"Duration":750000,"SoundDuration":750000,"Delta":65747009},{"NoteNumber":59,"Velocity":67,"Duration":250000,"SoundDuration":250000,"Delta":66497009},{"NoteNumber":57,"Velocity":72,"Duration":750000,"SoundDuration":750000,"Delta":66747009},{"NoteNumber":55,"Velocity":66,"Duration":250000,"SoundDuration":250000,"Delta":67497009},{"NoteNumber":54,"Velocity":67,"Duration":750000,"SoundDuration":750000,"Delta":67747009},{"NoteNumber":55,"Velocity":61,"Duration":250000,"SoundDuration":250000,"Delta":68497009},{"NoteNumber":57,"Velocity":66,"Duration":125000,"SoundDuration":125000,"Delta":68747009},{"NoteNumber":54,"Velocity":60,"Duration":750000,"SoundDuration":750000,"Delta":68747009},{"NoteNumber":59,"Velocity":66,"Duration":125000,"SoundDuration":125000,"Delta":68872009},{"NoteNumber":61,"Velocity":66,"Duration":125000,"SoundDuration":125000,"Delta":68997009},{"NoteNumber":62,"Velocity":66,"Duration":125000,"SoundDuration":125000,"Delta":69122009},{"NoteNumber":61,"Velocity":66,"Duration":125000,"SoundDuration":125000,"Delta":69247009},{"NoteNumber":59,"Velocity":66,"Duration":125000,"SoundDuration":125000,"Delta":69372009},{"NoteNumber":61,"Velocity":66,"Duration":125000,"SoundDuration":125000,"Delta":69497009},{"NoteNumber":52,"Velocity":57,"Duration":250000,"SoundDuration":250000,"Delta":69497009},{"NoteNumber":57,"Velocity":66,"Duration":125000,"SoundDuration":125000,"Delta":69622009},{"NoteNumber":66,"Velocity":71,"Duration":750000,"SoundDuration":750000,"Delta":69747009},{"NoteNumber":50,"Velocity":60,"Duration":1000000,"SoundDuration":1000000,"Delta":69747009},{"NoteNumber":66,"Velocity":66,"Duration":250000,"SoundDuration":250000,"Delta":70497009},{"NoteNumber":64,"Velocity":71,"Duration":750000,"SoundDuration":750000,"Delta":70747009},{"NoteNumber":52,"Velocity":56,"Duration":1000000,"SoundDuration":1000000,"Delta":70747009},{"NoteNumber":62,"Velocity":66,"Duration":250000,"SoundDuration":250000,"Delta":71497009},{"NoteNumber":61,"Velocity":73,"Duration":1000000,"SoundDuration":1000000,"Delta":71747009},{"NoteNumber":45,"Velocity":62,"Duration":750000,"SoundDuration":750000,"Delta":71747009},{"NoteNumber":52,"Velocity":56,"Duration":83333,"SoundDuration":83333,"Delta":72497009},{"NoteNumber":54,"Velocity":56,"Duration":83333,"SoundDuration":83333,"Delta":72580342},{"NoteNumber":55,"Velocity":56,"Duration":83333,"SoundDuration":83333,"Delta":72663676},{"NoteNumber":66,"Velocity":72,"Duration":750000,"SoundDuration":750000,"Delta":72747009},{"NoteNumber":57,"Velocity":63,"Duration":2000000,"SoundDuration":2000000,"Delta":72747009},{"NoteNumber":66,"Velocity":68,"Duration":250000,"SoundDuration":250000,"Delta":73497009},{"NoteNumber":59,"Velocity":73,"Duration":750000,"SoundDuration":750000,"Delta":73747009},{"NoteNumber":59,"Velocity":67,"Duration":83333,"SoundDuration":83333,"Delta":74497009},{"NoteNumber":61,"Velocity":67,"Duration":83333,"SoundDuration":83333,"Delta":74580342},{"NoteNumber":62,"Velocity":67,"Duration":83333,"SoundDuration":83333,"Delta":74663676},{"NoteNumber":64,"Velocity":71,"Duration":250000,"SoundDuration":250000,"Delta":74747009},{"NoteNumber":55,"Velocity":56,"Duration":1750000,"SoundDuration":1750000,"Delta":74747009},{"NoteNumber":62,"Velocity":67,"Duration":250000,"SoundDuration":250000,"Delta":74997009},{"NoteNumber":64,"Velocity":72,"Duration":250000,"SoundDuration":250000,"Delta":75247009},{"NoteNumber":61,"Velocity":67,"Duration":250000,"SoundDuration":250000,"Delta":75497009},{"NoteNumber":57,"Velocity":73,"Duration":1000000,"SoundDuration":1000000,"Delta":75747009},{"NoteNumber":54,"Velocity":54,"Duration":125000,"SoundDuration":125000,"Delta":76497009},{"NoteNumber":52,"Velocity":54,"Duration":125000,"SoundDuration":125000,"Delta":76622009},{"NoteNumber":62,"Velocity":68,"Duration":125000,"SoundDuration":125000,"Delta":76747009},{"NoteNumber":62,"Velocity":67,"Duration":2000000,"SoundDuration":2000000,"Delta":76747009},{"NoteNumber":54,"Velocity":59,"Duration":750000,"SoundDuration":750000,"Delta":76747009},{"NoteNumber":64,"Velocity":68,"Duration":125000,"SoundDuration":125000,"Delta":76872009},{"NoteNumber":66,"Velocity":68,"Duration":125000,"SoundDuration":125000,"Delta":76997009},{"NoteNumber":67,"Velocity":68,"Duration":125000,"SoundDuration":125000,"Delta":77122009},{"NoteNumber":66,"Velocity":68,"Duration":125000,"SoundDuration":125000,"Delta":77247009},{"NoteNumber":64,"Velocity":68,"Duration":125000,"SoundDuration":125000,"Delta":77372009},{"NoteNumber":66,"Velocity":68,"Duration":125000,"SoundDuration":125000,"Delta":77497009},{"NoteNumber":54,"Velocity":56,"Duration":250000,"SoundDuration":250000,"Delta":77497009},{"NoteNumber":62,"Velocity":68,"Duration":125000,"SoundDuration":125000,"Delta":77622009},{"NoteNumber":71,"Velocity":73,"Duration":750000,"SoundDuration":750000,"Delta":77747009},{"NoteNumber":55,"Velocity":60,"Duration":750000,"SoundDuration":750000,"Delta":77747009},{"NoteNumber":71,"Velocity":68,"Duration":250000,"SoundDuration":250000,"Delta":78497009},{"NoteNumber":52,"Velocity":56,"Duration":250000,"SoundDuration":250000,"Delta":78497009},{"NoteNumber":69,"Velocity":72,"Duration":750000,"SoundDuration":750000,"Delta":78747009},{"NoteNumber":61,"Velocity":58,"Duration":1000000,"SoundDuration":1000000,"Delta":78747009},{"NoteNumber":57,"Velocity":60,"Duration":750000,"SoundDuration":750000,"Delta":78747009},{"NoteNumber":67,"Velocity":69,"Duration":250000,"SoundDuration":250000,"Delta":79497009},{"NoteNumber":45,"Velocity":56,"Duration":250000,"SoundDuration":250000,"Delta":79497009},{"NoteNumber":66,"Velocity":73,"Duration":750000,"SoundDuration":750000,"Delta":79747009},{"NoteNumber":62,"Velocity":63,"Duration":1000000,"SoundDuration":1000000,"Delta":79747009},{"NoteNumber":50,"Velocity":60,"Duration":750000,"SoundDuration":750000,"Delta":79747009},{"NoteNumber":68,"Velocity":68,"Duration":250000,"SoundDuration":250000,"Delta":80497009},{"NoteNumber":52,"Velocity":56,"Duration":250000,"SoundDuration":250000,"Delta":80497009},{"NoteNumber":69,"Velocity":71,"Duration":125000,"SoundDuration":125000,"Delta":80747009},{"NoteNumber":69,"Velocity":73,"Duration":2000000,"SoundDuration":2000000,"Delta":80747009},{"NoteNumber":61,"Velocity":63,"Duration":1000000,"SoundDuration":1000000,"Delta":80747009},{"NoteNumber":54,"Velocity":60,"Duration":750000,"SoundDuration":750000,"Delta":80747009},{"NoteNumber":71,"Velocity":71,"Duration":125000,"SoundDuration":125000,"Delta":80872009},{"NoteNumber":73,"Velocity":71,"Duration":125000,"SoundDuration":125000,"Delta":80997009},{"NoteNumber":74,"Velocity":71,"Duration":125000,"SoundDuration":125000,"Delta":81122009},{"NoteNumber":73,"Velocity":71,"Duration":125000,"SoundDuration":125000,"Delta":81247009},{"NoteNumber":71,"Velocity":71,"Duration":125000,"SoundDuration":125000,"Delta":81372009},{"NoteNumber":73,"Velocity":71,"Duration":125000,"SoundDuration":125000,"Delta":81497009},{"NoteNumber":52,"Velocity":56,"Duration":250000,"SoundDuration":250000,"Delta":81497009},{"NoteNumber":69,"Velocity":71,"Duration":125000,"SoundDuration":125000,"Delta":81622009},{"NoteNumber":78,"Velocity":75,"Duration":750000,"SoundDuration":750000,"Delta":81747009},{"NoteNumber":59,"Velocity":63,"Duration":2000000,"SoundDuration":2000000,"Delta":81747009},{"NoteNumber":54,"Velocity":60,"Duration":750000,"SoundDuration":750000,"Delta":81747009},{"NoteNumber":78,"Velocity":71,"Duration":250000,"SoundDuration":250000,"Delta":82497009},{"NoteNumber":50,"Velocity":56,"Duration":250000,"SoundDuration":250000,"Delta":82497009},{"NoteNumber":76,"Velocity":76,"Duration":750000,"SoundDuration":750000,"Delta":82747009},{"NoteNumber":68,"Velocity":67,"Duration":1000000,"SoundDuration":1000000,"Delta":82747009},{"NoteNumber":52,"Velocity":62,"Duration":1000000,"SoundDuration":1000000,"Delta":82747009},{"NoteNumber":74,"Velocity":71,"Duration":250000,"SoundDuration":250000,"Delta":83497009},{"NoteNumber":73,"Velocity":75,"Duration":750000,"SoundDuration":750000,"Delta":83747009},{"NoteNumber":69,"Velocity":72,"Duration":1000000,"SoundDuration":1000000,"Delta":83747009},{"NoteNumber":57,"Velocity":63,"Duration":1000000,"SoundDuration":1000000,"Delta":83747009},{"NoteNumber":45,"Velocity":63,"Duration":1000000,"SoundDuration":1000000,"Delta":83747009},{"NoteNumber":76,"Velocity":69,"Duration":83333,"SoundDuration":83333,"Delta":84497009},{"NoteNumber":78,"Velocity":69,"Duration":83333,"SoundDuration":83333,"Delta":84580342},{"NoteNumber":79,"Velocity":69,"Duration":83333,"SoundDuration":83333,"Delta":84663676},{"NoteNumber":81,"Velocity":76,"Duration":750000,"SoundDuration":750000,"Delta":84747009},{"NoteNumber":73,"Velocity":65,"Duration":1000000,"SoundDuration":1000000,"Delta":84747009},{"NoteNumber":66,"Velocity":71,"Duration":125000,"SoundDuration":125000,"Delta":84747009},{"NoteNumber":67,"Velocity":71,"Duration":125000,"SoundDuration":125000,"Delta":84872009},{"NoteNumber":69,"Velocity":71,"Duration":125000,"SoundDuration":125000,"Delta":84997009},{"NoteNumber":71,"Velocity":71,"Duration":125000,"SoundDuration":125000,"Delta":85122009},{"NoteNumber":69,"Velocity":71,"Duration":125000,"SoundDuration":125000,"Delta":85247009},{"NoteNumber":67,"Velocity":71,"Duration":125000,"SoundDuration":125000,"Delta":85372009},{"NoteNumber":81,"Velocity":72,"Duration":250000,"SoundDuration":250000,"Delta":85497009},{"NoteNumber":69,"Velocity":71,"Duration":125000,"SoundDuration":125000,"Delta":85497009},{"NoteNumber":66,"Velocity":71,"Duration":125000,"SoundDuration":125000,"Delta":85622009},{"NoteNumber":81,"Velocity":76,"Duration":750000,"SoundDuration":750000,"Delta":85747009},{"NoteNumber":74,"Velocity":65,"Duration":1000000,"SoundDuration":1000000,"Delta":85747009},{"NoteNumber":71,"Velocity":78,"Duration":1000000,"SoundDuration":1000000,"Delta":85747009},{"NoteNumber":74,"Velocity":70,"Duration":83333,"SoundDuration":83333,"Delta":86497009},{"NoteNumber":76,"Velocity":70,"Duration":83333,"SoundDuration":83333,"Delta":86580342},{"NoteNumber":78,"Velocity":70,"Duration":83333,"SoundDuration":83333,"Delta":86663676},{"NoteNumber":79,"Velocity":74,"Duration":750000,"SoundDuration":750000,"Delta":86747009},{"NoteNumber":74,"Velocity":65,"Duration":1000000,"SoundDuration":1000000,"Delta":86747009},{"NoteNumber":64,"Velocity":71,"Duration":125000,"SoundDuration":125000,"Delta":86747009},{"NoteNumber":66,"Velocity":71,"Duration":125000,"SoundDuration":125000,"Delta":86872009},{"NoteNumber":67,"Velocity":71,"Duration":125000,"SoundDuration":125000,"Delta":86997009},{"NoteNumber":69,"Velocity":71,"Duration":125000,"SoundDuration":125000,"Delta":87122009},{"NoteNumber":67,"Velocity":71,"Duration":125000,"SoundDuration":125000,"Delta":87247009},{"NoteNumber":66,"Velocity":71,"Duration":125000,"SoundDuration":125000,"Delta":87372009},{"NoteNumber":79,"Velocity":70,"Duration":250000,"SoundDuration":250000,"Delta":87497009},{"NoteNumber":67,"Velocity":71,"Duration":125000,"SoundDuration":125000,"Delta":87497009},{"NoteNumber":64,"Velocity":71,"Duration":125000,"SoundDuration":125000,"Delta":87622009},{"NoteNumber":79,"Velocity":73,"Duration":1000000,"SoundDuration":1000000,"Delta":87747009},{"NoteNumber":73,"Velocity":66,"Duration":750000,"SoundDuration":750000,"Delta":87747009},{"NoteNumber":69,"Velocity":77,"Duration":1000000,"SoundDuration":1000000,"Delta":87747009},{"NoteNumber":76,"Velocity":72,"Duration":83333,"SoundDuration":83333,"Delta":88497009},{"NoteNumber":74,"Velocity":72,"Duration":83333,"SoundDuration":83333,"Delta":88580342},{"NoteNumber":73,"Velocity":72,"Duration":83333,"SoundDuration":83333,"Delta":88663676},{"NoteNumber":78,"Velocity":74,"Duration":750000,"SoundDuration":750000,"Delta":88747009},{"NoteNumber":74,"Velocity":77,"Duration":750000,"SoundDuration":750000,"Delta":88747009},{"NoteNumber":69,"Velocity":60,"Duration":750000,"SoundDuration":750000,"Delta":88747009},{"NoteNumber":38,"Velocity":66,"Duration":125000,"SoundDuration":125000,"Delta":88747009},{"NoteNumber":40,"Velocity":66,"Duration":125000,"SoundDuration":125000,"Delta":88872009},{"NoteNumber":42,"Velocity":66,"Duration":125000,"SoundDuration":125000,"Delta":88997009},{"NoteNumber":43,"Velocity":66,"Duration":125000,"SoundDuration":125000,"Delta":89122009},{"NoteNumber":42,"Velocity":66,"Duration":125000,"SoundDuration":125000,"Delta":89247009},{"NoteNumber":40,"Velocity":66,"Duration":125000,"SoundDuration":125000,"Delta":89372009},{"NoteNumber":76,"Velocity":69,"Duration":250000,"SoundDuration":250000,"Delta":89497009},{"NoteNumber":73,"Velocity":69,"Duration":250000,"SoundDuration":250000,"Delta":89497009},{"NoteNumber":67,"Velocity":57,"Duration":250000,"SoundDuration":250000,"Delta":89497009},{"NoteNumber":42,"Velocity":66,"Duration":125000,"SoundDuration":125000,"Delta":89497009},{"NoteNumber":38,"Velocity":66,"Duration":125000,"SoundDuration":125000,"Delta":89622009},{"NoteNumber":74,"Velocity":74,"Duration":750000,"SoundDuration":750000,"Delta":89747009},{"NoteNumber":71,"Velocity":74,"Duration":1000000,"SoundDuration":1000000,"Delta":89747009},{"NoteNumber":66,"Velocity":60,"Duration":750000,"SoundDuration":750000,"Delta":89747009},{"NoteNumber":47,"Velocity":72,"Duration":750000,"SoundDuration":750000,"Delta":89747009},{"NoteNumber":76,"Velocity":71,"Duration":250000,"SoundDuration":250000,"Delta":90497009},{"NoteNumber":67,"Velocity":57,"Duration":250000,"SoundDuration":250000,"Delta":90497009},{"NoteNumber":47,"Velocity":66,"Duration":250000,"SoundDuration":250000,"Delta":90497009},{"NoteNumber":73,"Velocity":75,"Duration":750000,"SoundDuration":750000,"Delta":90747009},{"NoteNumber":69,"Velocity":65,"Duration":1000000,"SoundDuration":1000000,"Delta":90747009},{"NoteNumber":64,"Velocity":60,"Duration":1000000,"SoundDuration":1000000,"Delta":90747009},{"NoteNumber":45,"Velocity":71,"Duration":750000,"SoundDuration":750000,"Delta":90747009},{"NoteNumber":73,"Velocity":73,"Duration":250000,"SoundDuration":250000,"Delta":91497009},{"NoteNumber":43,"Velocity":66,"Duration":250000,"SoundDuration":250000,"Delta":91497009},{"NoteNumber":73,"Velocity":73,"Duration":1000000,"SoundDuration":1000000,"Delta":91747009},{"NoteNumber":69,"Velocity":65,"Duration":1000000,"SoundDuration":1000000,"Delta":91747009},{"NoteNumber":62,"Velocity":64,"Duration":1000000,"SoundDuration":1000000,"Delta":91747009},{"NoteNumber":42,"Velocity":72,"Duration":750000,"SoundDuration":750000,"Delta":91747009},{"NoteNumber":50,"Velocity":66,"Duration":83333,"SoundDuration":83333,"Delta":92497009},{"NoteNumber":52,"Velocity":66,"Duration":83333,"SoundDuration":83333,"Delta":92580342},{"NoteNumber":54,"Velocity":66,"Duration":83333,"SoundDuration":83333,"Delta":92663676},{"NoteNumber":71,"Velocity":73,"Duration":125000,"SoundDuration":125000,"Delta":92747009},{"NoteNumber":71,"Velocity":65,"Duration":2000000,"SoundDuration":2000000,"Delta":92747009},{"NoteNumber":62,"Velocity":60,"Duration":1000000,"SoundDuration":1000000,"Delta":92747009},{"NoteNumber":55,"Velocity":72,"Duration":750000,"SoundDuration":750000,"Delta":92747009},{"NoteNumber":73,"Velocity":73,"Duration":125000,"SoundDuration":125000,"Delta":92872009},{"NoteNumber":74,"Velocity":73,"Duration":125000,"SoundDuration":125000,"Delta":92997009},{"NoteNumber":76,"Velocity":73,"Duration":125000,"SoundDuration":125000,"Delta":93122009},{"NoteNumber":74,"Velocity":73,"Duration":125000,"SoundDuration":125000,"Delta":93247009},{"NoteNumber":73,"Velocity":73,"Duration":125000,"SoundDuration":125000,"Delta":93372009},{"NoteNumber":74,"Velocity":73,"Duration":125000,"SoundDuration":125000,"Delta":93497009},{"NoteNumber":54,"Velocity":66,"Duration":250000,"SoundDuration":250000,"Delta":93497009},{"NoteNumber":71,"Velocity":70,"Duration":125000,"SoundDuration":125000,"Delta":93622009},{"NoteNumber":79,"Velocity":78,"Duration":750000,"SoundDuration":750000,"Delta":93747009},{"NoteNumber":61,"Velocity":60,"Duration":2000000,"SoundDuration":2000000,"Delta":93747009},{"NoteNumber":55,"Velocity":72,"Duration":750000,"SoundDuration":750000,"Delta":93747009},{"NoteNumber":79,"Velocity":73,"Duration":250000,"SoundDuration":250000,"Delta":94497009},{"NoteNumber":52,"Velocity":66,"Duration":250000,"SoundDuration":250000,"Delta":94497009},{"NoteNumber":78,"Velocity":76,"Duration":750000,"SoundDuration":750000,"Delta":94747009},{"NoteNumber":70,"Velocity":61,"Duration":1000000,"SoundDuration":1000000,"Delta":94747009},{"NoteNumber":54,"Velocity":71,"Duration":1000000,"SoundDuration":1000000,"Delta":94747009},{"NoteNumber":76,"Velocity":73,"Duration":250000,"SoundDuration":250000,"Delta":95497009},{"NoteNumber":74,"Velocity":76,"Duration":1000000,"SoundDuration":1000000,"Delta":95747009},{"NoteNumber":71,"Velocity":65,"Duration":1000000,"SoundDuration":1000000,"Delta":95747009},{"NoteNumber":59,"Velocity":60,"Duration":1000000,"SoundDuration":1000000,"Delta":95747009},{"NoteNumber":47,"Velocity":66,"Duration":125000,"SoundDuration":125000,"Delta":95747009},{"NoteNumber":49,"Velocity":66,"Duration":125000,"SoundDuration":125000,"Delta":95872009},{"NoteNumber":50,"Velocity":66,"Duration":125000,"SoundDuration":125000,"Delta":95997009},{"NoteNumber":52,"Velocity":66,"Duration":125000,"SoundDuration":125000,"Delta":96122009},{"NoteNumber":50,"Velocity":66,"Duration":125000,"SoundDuration":125000,"Delta":96247009},{"NoteNumber":49,"Velocity":66,"Duration":125000,"SoundDuration":125000,"Delta":96372009},{"NoteNumber":50,"Velocity":66,"Duration":125000,"SoundDuration":125000,"Delta":96497009},{"NoteNumber":47,"Velocity":66,"Duration":125000,"SoundDuration":125000,"Delta":96622009},{"NoteNumber":83,"Velocity":72,"Duration":250000,"SoundDuration":250000,"Delta":96747009},{"NoteNumber":56,"Velocity":73,"Duration":500000,"SoundDuration":500000,"Delta":96747009},{"NoteNumber":81,"Velocity":70,"Duration":250000,"SoundDuration":250000,"Delta":96997009},{"NoteNumber":83,"Velocity":72,"Duration":250000,"SoundDuration":250000,"Delta":97247009},{"NoteNumber":80,"Velocity":69,"Duration":250000,"SoundDuration":250000,"Delta":97497009},{"NoteNumber":80,"Velocity":71,"Duration":250000,"SoundDuration":250000,"Delta":97747009},{"NoteNumber":74,"Velocity":55,"Duration":750000,"SoundDuration":750000,"Delta":97747009},{"NoteNumber":71,"Velocity":54,"Duration":750000,"SoundDuration":750000,"Delta":97747009},{"NoteNumber":78,"Velocity":69,"Duration":250000,"SoundDuration":250000,"Delta":97997009},{"NoteNumber":80,"Velocity":72,"Duration":250000,"SoundDuration":250000,"Delta":98247009},{"NoteNumber":76,"Velocity":67,"Duration":250000,"SoundDuration":250000,"Delta":98497009},{"NoteNumber":71,"Velocity":52,"Duration":250000,"SoundDuration":250000,"Delta":98497009},{"NoteNumber":68,"Velocity":50,"Duration":250000,"SoundDuration":250000,"Delta":98497009},{"NoteNumber":76,"Velocity":69,"Duration":250000,"SoundDuration":250000,"Delta":98747009},{"NoteNumber":71,"Velocity":55,"Duration":750000,"SoundDuration":750000,"Delta":98747009},{"NoteNumber":68,"Velocity":54,"Duration":750000,"SoundDuration":750000,"Delta":98747009},{"NoteNumber":74,"Velocity":67,"Duration":250000,"SoundDuration":250000,"Delta":98997009},{"NoteNumber":76,"Velocity":68,"Duration":250000,"SoundDuration":250000,"Delta":99247009},{"NoteNumber":73,"Velocity":64,"Duration":250000,"SoundDuration":250000,"Delta":99497009},{"NoteNumber":69,"Velocity":52,"Duration":250000,"SoundDuration":250000,"Delta":99497009},{"NoteNumber":64,"Velocity":50,"Duration":250000,"SoundDuration":250000,"Delta":99497009},{"NoteNumber":73,"Velocity":64,"Duration":1000000,"SoundDuration":1000000,"Delta":99747009},{"NoteNumber":69,"Velocity":55,"Duration":1000000,"SoundDuration":1000000,"Delta":99747009},{"NoteNumber":64,"Velocity":54,"Duration":1000000,"SoundDuration":1000000,"Delta":99747009},{"NoteNumber":45,"Velocity":66,"Duration":125000,"SoundDuration":125000,"Delta":99747009},{"NoteNumber":47,"Velocity":66,"Duration":125000,"SoundDuration":125000,"Delta":99872009},{"NoteNumber":49,"Velocity":66,"Duration":125000,"SoundDuration":125000,"Delta":99997009},{"NoteNumber":50,"Velocity":66,"Duration":125000,"SoundDuration":125000,"Delta":100122009},{"NoteNumber":49,"Velocity":66,"Duration":125000,"SoundDuration":125000,"Delta":100247009},{"NoteNumber":47,"Velocity":66,"Duration":125000,"SoundDuration":125000,"Delta":100372009},{"NoteNumber":49,"Velocity":66,"Duration":125000,"SoundDuration":125000,"Delta":100497009},{"NoteNumber":45,"Velocity":66,"Duration":125000,"SoundDuration":125000,"Delta":100622009},{"NoteNumber":81,"Velocity":72,"Duration":250000,"SoundDuration":250000,"Delta":100747009},{"NoteNumber":54,"Velocity":73,"Duration":500000,"SoundDuration":500000,"Delta":100747009},{"NoteNumber":79,"Velocity":70,"Duration":250000,"SoundDuration":250000,"Delta":100997009},{"NoteNumber":81,"Velocity":72,"Duration":250000,"SoundDuration":250000,"Delta":101247009},{"NoteNumber":78,"Velocity":69,"Duration":250000,"SoundDuration":250000,"Delta":101497009},{"NoteNumber":78,"Velocity":71,"Duration":250000,"SoundDuration":250000,"Delta":101747009},{"NoteNumber":72,"Velocity":55,"Duration":750000,"SoundDuration":750000,"Delta":101747009},{"NoteNumber":69,"Velocity":54,"Duration":750000,"SoundDuration":750000,"Delta":101747009},{"NoteNumber":76,"Velocity":69,"Duration":250000,"SoundDuration":250000,"Delta":101997009},{"NoteNumber":78,"Velocity":72,"Duration":250000,"SoundDuration":250000,"Delta":102247009},{"NoteNumber":74,"Velocity":67,"Duration":250000,"SoundDuration":250000,"Delta":102497009},{"NoteNumber":69,"Velocity":52,"Duration":250000,"SoundDuration":250000,"Delta":102497009},{"NoteNumber":66,"Velocity":50,"Duration":250000,"SoundDuration":250000,"Delta":102497009},{"NoteNumber":74,"Velocity":69,"Duration":250000,"SoundDuration":250000,"Delta":102747009},{"NoteNumber":69,"Velocity":55,"Duration":750000,"SoundDuration":750000,"Delta":102747009},{"NoteNumber":66,"Velocity":54,"Duration":750000,"SoundDuration":750000,"Delta":102747009},{"NoteNumber":72,"Velocity":67,"Duration":250000,"SoundDuration":250000,"Delta":102997009},{"NoteNumber":74,"Velocity":68,"Duration":250000,"SoundDuration":250000,"Delta":103247009},{"NoteNumber":71,"Velocity":64,"Duration":250000,"SoundDuration":250000,"Delta":103497009},{"NoteNumber":67,"Velocity":52,"Duration":250000,"SoundDuration":250000,"Delta":103497009},{"NoteNumber":62,"Velocity":50,"Duration":250000,"SoundDuration":250000,"Delta":103497009},{"NoteNumber":71,"Velocity":64,"Duration":1000000,"SoundDuration":1000000,"Delta":103747009},{"NoteNumber":67,"Velocity":55,"Duration":995833,"SoundDuration":995833,"Delta":103747009},{"NoteNumber":62,"Velocity":54,"Duration":1000000,"SoundDuration":1000000,"Delta":103747009},{"NoteNumber":43,"Velocity":63,"Duration":125000,"SoundDuration":125000,"Delta":103747009},{"NoteNumber":45,"Velocity":63,"Duration":125000,"SoundDuration":125000,"Delta":103872009},{"NoteNumber":47,"Velocity":63,"Duration":125000,"SoundDuration":125000,"Delta":103997009},{"NoteNumber":48,"Velocity":63,"Duration":125000,"SoundDuration":125000,"Delta":104122009},{"NoteNumber":47,"Velocity":63,"Duration":125000,"SoundDuration":125000,"Delta":104247009},{"NoteNumber":45,"Velocity":63,"Duration":125000,"SoundDuration":125000,"Delta":104372009},{"NoteNumber":47,"Velocity":63,"Duration":125000,"SoundDuration":125000,"Delta":104497009},{"NoteNumber":43,"Velocity":63,"Duration":125000,"SoundDuration":125000,"Delta":104622009},{"NoteNumber":67,"Velocity":72,"Duration":125000,"SoundDuration":125000,"Delta":104747009},{"NoteNumber":52,"Velocity":68,"Duration":750000,"SoundDuration":750000,"Delta":104747009},{"NoteNumber":69,"Velocity":72,"Duration":125000,"SoundDuration":125000,"Delta":104872009},{"NoteNumber":71,"Velocity":72,"Duration":125000,"SoundDuration":125000,"Delta":104997009},{"NoteNumber":72,"Velocity":72,"Duration":125000,"SoundDuration":125000,"Delta":105122009},{"NoteNumber":71,"Velocity":72,"Duration":125000,"SoundDuration":125000,"Delta":105247009},{"NoteNumber":69,"Velocity":72,"Duration":125000,"SoundDuration":125000,"Delta":105372009},{"NoteNumber":71,"Velocity":72,"Duration":125000,"SoundDuration":125000,"Delta":105497009},{"NoteNumber":50,"Velocity":60,"Duration":250000,"SoundDuration":250000,"Delta":105497009},{"NoteNumber":67,"Velocity":72,"Duration":125000,"SoundDuration":125000,"Delta":105622009},{"NoteNumber":76,"Velocity":76,"Duration":750000,"SoundDuration":750000,"Delta":105747009},{"NoteNumber":48,"Velocity":66,"Duration":1000000,"SoundDuration":1000000,"Delta":105747009},{"NoteNumber":76,"Velocity":71,"Duration":250000,"SoundDuration":250000,"Delta":106497009},{"NoteNumber":74,"Velocity":75,"Duration":750000,"SoundDuration":750000,"Delta":106747009},{"NoteNumber":50,"Velocity":60,"Duration":1000000,"SoundDuration":1000000,"Delta":106747009},{"NoteNumber":72,"Velocity":71,"Duration":250000,"SoundDuration":250000,"Delta":107497009},{"NoteNumber":71,"Velocity":75,"Duration":750000,"SoundDuration":750000,"Delta":107747009},{"NoteNumber":55,"Velocity":66,"Duration":750000,"SoundDuration":750000,"Delta":107747009},{"NoteNumber":73,"Velocity":71,"Duration":250000,"SoundDuration":250000,"Delta":108497009},{"NoteNumber":57,"Velocity":49,"Duration":250000,"SoundDuration":250000,"Delta":108497009},{"NoteNumber":74,"Velocity":74,"Duration":2000000,"SoundDuration":2000000,"Delta":108747009},{"NoteNumber":62,"Velocity":67,"Duration":125000,"SoundDuration":125000,"Delta":108747009},{"NoteNumber":59,"Velocity":54,"Duration":750000,"SoundDuration":750000,"Delta":108747009},{"NoteNumber":64,"Velocity":67,"Duration":125000,"SoundDuration":125000,"Delta":108872009},{"NoteNumber":66,"Velocity":67,"Duration":125000,"SoundDuration":125000,"Delta":108997009},{"NoteNumber":67,"Velocity":67,"Duration":125000,"SoundDuration":125000,"Delta":109122009},{"NoteNumber":66,"Velocity":67,"Duration":125000,"SoundDuration":125000,"Delta":109247009},{"NoteNumber":64,"Velocity":67,"Duration":125000,"SoundDuration":125000,"Delta":109372009},{"NoteNumber":66,"Velocity":67,"Duration":125000,"SoundDuration":125000,"Delta":109497009},{"NoteNumber":57,"Velocity":49,"Duration":250000,"SoundDuration":250000,"Delta":109497009},{"NoteNumber":62,"Velocity":67,"Duration":125000,"SoundDuration":125000,"Delta":109622009},{"NoteNumber":71,"Velocity":73,"Duration":750000,"SoundDuration":750000,"Delta":109747009},{"NoteNumber":55,"Velocity":54,"Duration":750000,"SoundDuration":750000,"Delta":109747009},{"NoteNumber":71,"Velocity":67,"Duration":250000,"SoundDuration":250000,"Delta":110497009},{"NoteNumber":52,"Velocity":48,"Duration":250000,"SoundDuration":250000,"Delta":110497009},{"NoteNumber":73,"Velocity":71,"Duration":1000000,"SoundDuration":1000000,"Delta":110747009},{"NoteNumber":69,"Velocity":73,"Duration":750000,"SoundDuration":750000,"Delta":110747009},{"NoteNumber":57,"Velocity":54,"Duration":750000,"SoundDuration":750000,"Delta":110747009},{"NoteNumber":67,"Velocity":67,"Duration":250000,"SoundDuration":250000,"Delta":111497009},{"NoteNumber":45,"Velocity":51,"Duration":250000,"SoundDuration":250000,"Delta":111497009},{"NoteNumber":74,"Velocity":72,"Duration":1000000,"SoundDuration":1000000,"Delta":111747009},{"NoteNumber":66,"Velocity":72,"Duration":750000,"SoundDuration":750000,"Delta":111747009},{"NoteNumber":47,"Velocity":61,"Duration":125000,"SoundDuration":125000,"Delta":111747009},{"NoteNumber":49,"Velocity":61,"Duration":125000,"SoundDuration":125000,"Delta":111872009},{"NoteNumber":50,"Velocity":61,"Duration":125000,"SoundDuration":125000,"Delta":111997009},{"NoteNumber":52,"Velocity":59,"Duration":125000,"SoundDuration":125000,"Delta":112122009},{"NoteNumber":50,"Velocity":61,"Duration":125000,"SoundDuration":125000,"Delta":112247009},{"NoteNumber":49,"Velocity":61,"Duration":125000,"SoundDuration":125000,"Delta":112372009},{"NoteNumber":69,"Velocity":55,"Duration":250000,"SoundDuration":250000,"Delta":112497009},{"NoteNumber":50,"Velocity":61,"Duration":125000,"SoundDuration":125000,"Delta":112497009},{"NoteNumber":47,"Velocity":61,"Duration":125000,"SoundDuration":125000,"Delta":112622009},{"NoteNumber":74,"Velocity":71,"Duration":125000,"SoundDuration":125000,"Delta":112747009},{"NoteNumber":74,"Velocity":61,"Duration":2000000,"SoundDuration":2000000,"Delta":112747009},{"NoteNumber":59,"Velocity":65,"Duration":750000,"SoundDuration":750000,"Delta":112747009},{"NoteNumber":76,"Velocity":71,"Duration":125000,"SoundDuration":125000,"Delta":112872009},{"NoteNumber":78,"Velocity":71,"Duration":125000,"SoundDuration":125000,"Delta":112997009},{"NoteNumber":79,"Velocity":71,"Duration":125000,"SoundDuration":125000,"Delta":113122009},{"NoteNumber":78,"Velocity":71,"Duration":125000,"SoundDuration":125000,"Delta":113247009},{"NoteNumber":76,"Velocity":71,"Duration":125000,"SoundDuration":125000,"Delta":113372009},{"NoteNumber":78,"Velocity":71,"Duration":125000,"SoundDuration":125000,"Delta":113497009},{"NoteNumber":57,"Velocity":50,"Duration":250000,"SoundDuration":250000,"Delta":113497009},{"NoteNumber":74,"Velocity":71,"Duration":125000,"SoundDuration":125000,"Delta":113622009},{"NoteNumber":83,"Velocity":76,"Duration":750000,"SoundDuration":750000,"Delta":113747009},{"NoteNumber":55,"Velocity":53,"Duration":750000,"SoundDuration":750000,"Delta":113747009},{"NoteNumber":83,"Velocity":71,"Duration":250000,"SoundDuration":250000,"Delta":114497009},{"NoteNumber":52,"Velocity":48,"Duration":250000,"SoundDuration":250000,"Delta":114497009},{"NoteNumber":81,"Velocity":76,"Duration":750000,"SoundDuration":750000,"Delta":114747009},{"NoteNumber":72,"Velocity":61,"Duration":2000000,"SoundDuration":2000000,"Delta":114747009},{"NoteNumber":57,"Velocity":53,"Duration":750000,"SoundDuration":750000,"Delta":114747009},{"NoteNumber":79,"Velocity":71,"Duration":250000,"SoundDuration":250000,"Delta":115497009},{"NoteNumber":45,"Velocity":48,"Duration":250000,"SoundDuration":250000,"Delta":115497009},{"NoteNumber":78,"Velocity":76,"Duration":750000,"SoundDuration":750000,"Delta":115747009},{"NoteNumber":50,"Velocity":56,"Duration":1000000,"SoundDuration":1000000,"Delta":115747009},{"NoteNumber":74,"Velocity":71,"Duration":83333,"SoundDuration":83333,"Delta":116497009},{"NoteNumber":76,"Velocity":71,"Duration":83333,"SoundDuration":83333,"Delta":116580342},{"NoteNumber":78,"Velocity":71,"Duration":83333,"SoundDuration":83333,"Delta":116663676},{"NoteNumber":79,"Velocity":76,"Duration":750000,"SoundDuration":750000,"Delta":116747009},{"NoteNumber":71,"Velocity":61,"Duration":1000000,"SoundDuration":1000000,"Delta":116747009},{"NoteNumber":55,"Velocity":65,"Duration":125000,"SoundDuration":125000,"Delta":116747009},{"NoteNumber":52,"Velocity":52,"Duration":1000000,"SoundDuration":1000000,"Delta":116747009},{"NoteNumber":57,"Velocity":65,"Duration":125000,"SoundDuration":125000,"Delta":116872009},{"NoteNumber":59,"Velocity":65,"Duration":125000,"SoundDuration":125000,"Delta":116997009},{"NoteNumber":60,"Velocity":65,"Duration":125000,"SoundDuration":125000,"Delta":117122009},{"NoteNumber":59,"Velocity":65,"Duration":125000,"SoundDuration":125000,"Delta":117247009},{"NoteNumber":57,"Velocity":65,"Duration":125000,"SoundDuration":125000,"Delta":117372009},{"NoteNumber":79,"Velocity":73,"Duration":250000,"SoundDuration":250000,"Delta":117497009},{"NoteNumber":59,"Velocity":65,"Duration":125000,"SoundDuration":125000,"Delta":117497009},{"NoteNumber":55,"Velocity":65,"Duration":125000,"SoundDuration":125000,"Delta":117622009},{"NoteNumber":79,"Velocity":75,"Duration":750000,"SoundDuration":750000,"Delta":117747009},{"NoteNumber":69,"Velocity":61,"Duration":2000000,"SoundDuration":2000000,"Delta":117747009},{"NoteNumber":64,"Velocity":70,"Duration":750000,"SoundDuration":750000,"Delta":117747009},{"NoteNumber":60,"Velocity":52,"Duration":750000,"SoundDuration":750000,"Delta":117747009},{"NoteNumber":81,"Velocity":73,"Duration":250000,"SoundDuration":250000,"Delta":118497009},{"NoteNumber":64,"Velocity":66,"Duration":250000,"SoundDuration":250000,"Delta":118497009},{"NoteNumber":57,"Velocity":52,"Duration":250000,"SoundDuration":250000,"Delta":118497009},{"NoteNumber":78,"Velocity":76,"Duration":750000,"SoundDuration":750000,"Delta":118747009},{"NoteNumber":62,"Velocity":70,"Duration":750000,"SoundDuration":750000,"Delta":118747009},{"NoteNumber":78,"Velocity":72,"Duration":250000,"SoundDuration":250000,"Delta":119497009},{"NoteNumber":60,"Velocity":66,"Duration":250000,"SoundDuration":250000,"Delta":119497009},{"NoteNumber":50,"Velocity":52,"Duration":250000,"SoundDuration":250000,"Delta":119497009},{"NoteNumber":78,"Velocity":72,"Duration":750000,"SoundDuration":750000,"Delta":119747009},{"NoteNumber":67,"Velocity":61,"Duration":1000000,"SoundDuration":1000000,"Delta":119747009},{"NoteNumber":59,"Velocity":71,"Duration":1000000,"SoundDuration":1000000,"Delta":119747009},{"NoteNumber":55,"Velocity":57,"Duration":1000000,"SoundDuration":1000000,"Delta":119747009},{"NoteNumber":76,"Velocity":67,"Duration":125000,"SoundDuration":125000,"Delta":120497009},{"NoteNumber":75,"Velocity":67,"Duration":125000,"SoundDuration":125000,"Delta":120622009},{"NoteNumber":76,"Velocity":73,"Duration":1750000,"SoundDuration":1750000,"Delta":120747009},{"NoteNumber":71,"Velocity":61,"Duration":1000000,"SoundDuration":1000000,"Delta":120747009},{"NoteNumber":67,"Velocity":58,"Duration":1000000,"SoundDuration":1000000,"Delta":120747009},{"NoteNumber":40,"Velocity":66,"Duration":125000,"SoundDuration":125000,"Delta":120747009},{"NoteNumber":42,"Velocity":66,"Duration":125000,"SoundDuration":125000,"Delta":120872009},{"NoteNumber":43,"Velocity":66,"Duration":125000,"SoundDuration":125000,"Delta":120997009},{"NoteNumber":45,"Velocity":66,"Duration":125000,"SoundDuration":125000,"Delta":121122009},{"NoteNumber":43,"Velocity":66,"Duration":125000,"SoundDuration":125000,"Delta":121247009},{"NoteNumber":42,"Velocity":66,"Duration":125000,"SoundDuration":125000,"Delta":121372009},{"NoteNumber":43,"Velocity":66,"Duration":125000,"SoundDuration":125000,"Delta":121497009},{"NoteNumber":40,"Velocity":66,"Duration":125000,"SoundDuration":125000,"Delta":121622009},{"NoteNumber":69,"Velocity":61,"Duration":3000000,"SoundDuration":3000000,"Delta":121747009},{"NoteNumber":66,"Velocity":58,"Duration":3000000,"SoundDuration":3000000,"Delta":121747009},{"NoteNumber":48,"Velocity":72,"Duration":750000,"SoundDuration":750000,"Delta":121747009},{"NoteNumber":75,"Velocity":67,"Duration":250000,"SoundDuration":250000,"Delta":122497009},{"NoteNumber":48,"Velocity":57,"Duration":250000,"SoundDuration":250000,"Delta":122497009},{"NoteNumber":76,"Velocity":72,"Duration":750000,"SoundDuration":750000,"Delta":122747009},{"NoteNumber":47,"Velocity":61,"Duration":750000,"SoundDuration":750000,"Delta":122747009},{"NoteNumber":78,"Velocity":66,"Duration":250000,"SoundDuration":250000,"Delta":123497009},{"NoteNumber":45,"Velocity":56,"Duration":250000,"SoundDuration":250000,"Delta":123497009},{"NoteNumber":71,"Velocity":71,"Duration":750000,"SoundDuration":750000,"Delta":123747009},{"NoteNumber":43,"Velocity":61,"Duration":750000,"SoundDuration":750000,"Delta":123747009},{"NoteNumber":72,"Velocity":64,"Duration":125000,"SoundDuration":125000,"Delta":124497009},{"NoteNumber":42,"Velocity":56,"Duration":250000,"SoundDuration":250000,"Delta":124497009},{"NoteNumber":69,"Velocity":64,"Duration":125000,"SoundDuration":125000,"Delta":124622009},{"NoteNumber":71,"Velocity":67,"Duration":750000,"SoundDuration":750000,"Delta":124747009},{"NoteNumber":67,"Velocity":60,"Duration":750000,"SoundDuration":750000,"Delta":124747009},{"NoteNumber":64,"Velocity":61,"Duration":750000,"SoundDuration":750000,"Delta":124747009},{"NoteNumber":43,"Velocity":60,"Duration":750000,"SoundDuration":750000,"Delta":124747009},{"NoteNumber":72,"Velocity":62,"Duration":250000,"SoundDuration":250000,"Delta":125497009},{"NoteNumber":64,"Velocity":55,"Duration":247916,"SoundDuration":247916,"Delta":125497009},{"NoteNumber":54,"Velocity":57,"Duration":250000,"SoundDuration":250000,"Delta":125497009},{"NoteNumber":45,"Velocity":55,"Duration":250000,"SoundDuration":250000,"Delta":125497009},{"NoteNumber":67,"Velocity":68,"Duration":1025640,"SoundDuration":1025640,"Delta":125747009},{"NoteNumber":64,"Velocity":60,"Duration":1025640,"SoundDuration":1025640,"Delta":125747009},{"NoteNumber":55,"Velocity":60,"Duration":769230,"SoundDuration":769230,"Delta":125747009},{"NoteNumber":47,"Velocity":60,"Duration":2097069,"SoundDuration":2097069,"Delta":125747009},{"NoteNumber":57,"Velocity":57,"Duration":256410,"SoundDuration":256410,"Delta":126516240},{"NoteNumber":66,"Velocity":64,"Duration":1071428,"SoundDuration":1071428,"Delta":126772650},{"NoteNumber":63,"Velocity":55,"Duration":1071428,"SoundDuration":1071428,"Delta":126772650},{"NoteNumber":59,"Velocity":60,"Duration":803571,"SoundDuration":803571,"Delta":126772650},{"NoteNumber":57,"Velocity":57,"Duration":267857,"SoundDuration":267857,"Delta":127576222},{"NoteNumber":64,"Velocity":63,"Duration":125000,"SoundDuration":125000,"Delta":127844079},{"NoteNumber":64,"Velocity":61,"Duration":999999,"SoundDuration":999999,"Delta":127844079},{"NoteNumber":55,"Velocity":60,"Duration":999999,"SoundDuration":999999,"Delta":127844079},{"NoteNumber":52,"Velocity":61,"Duration":999999,"SoundDuration":999999,"Delta":127844079},{"NoteNumber":66,"Velocity":63,"Duration":124999,"SoundDuration":124999,"Delta":127969079},{"NoteNumber":67,"Velocity":63,"Duration":125000,"SoundDuration":125000,"Delta":128094079},{"NoteNumber":69,"Velocity":63,"Duration":125000,"SoundDuration":125000,"Delta":128219079},{"NoteNumber":67,"Velocity":63,"Duration":125000,"SoundDuration":125000,"Delta":128344079},{"NoteNumber":66,"Velocity":63,"Duration":125000,"SoundDuration":125000,"Delta":128469079},{"NoteNumber":67,"Velocity":63,"Duration":125000,"SoundDuration":125000,"Delta":128594079},{"NoteNumber":64,"Velocity":63,"Duration":125000,"SoundDuration":125000,"Delta":128719079},{"NoteNumber":79,"Velocity":69,"Duration":500000,"SoundDuration":500000,"Delta":128844079},{"NoteNumber":59,"Velocity":55,"Duration":250000,"SoundDuration":250000,"Delta":128844079},{"NoteNumber":57,"Velocity":51,"Duration":250000,"SoundDuration":250000,"Delta":129094079},{"NoteNumber":59,"Velocity":55,"Duration":250000,"SoundDuration":250000,"Delta":129344079},{"NoteNumber":55,"Velocity":51,"Duration":250000,"SoundDuration":250000,"Delta":129594079},{"NoteNumber":64,"Velocity":57,"Duration":750000,"SoundDuration":750000,"Delta":129844079},{"NoteNumber":59,"Velocity":57,"Duration":750000,"SoundDuration":750000,"Delta":129844079},{"NoteNumber":55,"Velocity":55,"Duration":250000,"SoundDuration":250000,"Delta":129844079},{"NoteNumber":54,"Velocity":51,"Duration":250000,"SoundDuration":250000,"Delta":130094079},{"NoteNumber":55,"Velocity":55,"Duration":250000,"SoundDuration":250000,"Delta":130344079},{"NoteNumber":61,"Velocity":53,"Duration":241869,"SoundDuration":241869,"Delta":130594079},{"NoteNumber":55,"Velocity":53,"Duration":241869,"SoundDuration":241869,"Delta":130594079},{"NoteNumber":52,"Velocity":50,"Duration":243902,"SoundDuration":243902,"Delta":130594079},{"NoteNumber":61,"Velocity":57,"Duration":731707,"SoundDuration":731707,"Delta":130837982},{"NoteNumber":55,"Velocity":57,"Duration":731707,"SoundDuration":731707,"Delta":130837982},{"NoteNumber":52,"Velocity":55,"Duration":243902,"SoundDuration":243902,"Delta":130837982},{"NoteNumber":50,"Velocity":50,"Duration":243902,"SoundDuration":243902,"Delta":131081884},{"NoteNumber":52,"Velocity":55,"Duration":243902,"SoundDuration":243902,"Delta":131325787},{"NoteNumber":57,"Velocity":53,"Duration":265486,"SoundDuration":265486,"Delta":131569689},{"NoteNumber":52,"Velocity":53,"Duration":265486,"SoundDuration":265486,"Delta":131569689},{"NoteNumber":49,"Velocity":50,"Duration":265486,"SoundDuration":265486,"Delta":131569689},{"NoteNumber":69,"Velocity":63,"Duration":125000,"SoundDuration":125000,"Delta":131835176},{"NoteNumber":57,"Velocity":57,"Duration":1000000,"SoundDuration":1000000,"Delta":131835176},{"NoteNumber":52,"Velocity":57,"Duration":1000000,"SoundDuration":1000000,"Delta":131835176},{"NoteNumber":49,"Velocity":55,"Duration":1000000,"SoundDuration":1000000,"Delta":131835176},{"NoteNumber":71,"Velocity":63,"Duration":125000,"SoundDuration":125000,"Delta":131960176},{"NoteNumber":73,"Velocity":63,"Duration":125000,"SoundDuration":125000,"Delta":132085176},{"NoteNumber":74,"Velocity":63,"Duration":125000,"SoundDuration":125000,"Delta":132210176},{"NoteNumber":73,"Velocity":63,"Duration":125000,"SoundDuration":125000,"Delta":132335176},{"NoteNumber":71,"Velocity":63,"Duration":125000,"SoundDuration":125000,"Delta":132460176},{"NoteNumber":73,"Velocity":63,"Duration":125000,"SoundDuration":125000,"Delta":132585176},{"NoteNumber":69,"Velocity":63,"Duration":125000,"SoundDuration":125000,"Delta":132710176},{"NoteNumber":78,"Velocity":68,"Duration":500000,"SoundDuration":500000,"Delta":132835176},{"NoteNumber":57,"Velocity":55,"Duration":250000,"SoundDuration":250000,"Delta":132835176},{"NoteNumber":55,"Velocity":50,"Duration":250000,"SoundDuration":250000,"Delta":133085176},{"NoteNumber":57,"Velocity":55,"Duration":250000,"SoundDuration":250000,"Delta":133335176},{"NoteNumber":54,"Velocity":50,"Duration":250000,"SoundDuration":250000,"Delta":133585176},{"NoteNumber":62,"Velocity":57,"Duration":750000,"SoundDuration":750000,"Delta":133835176},{"NoteNumber":57,"Velocity":57,"Duration":750000,"SoundDuration":750000,"Delta":133835176},{"NoteNumber":54,"Velocity":55,"Duration":250000,"SoundDuration":250000,"Delta":133835176},{"NoteNumber":52,"Velocity":50,"Duration":250000,"SoundDuration":250000,"Delta":134085176},{"NoteNumber":54,"Velocity":55,"Duration":250000,"SoundDuration":250000,"Delta":134335176},{"NoteNumber":59,"Velocity":53,"Duration":247916,"SoundDuration":247916,"Delta":134585176},{"NoteNumber":54,"Velocity":54,"Duration":247916,"SoundDuration":247916,"Delta":134585176},{"NoteNumber":50,"Velocity":50,"Duration":250000,"SoundDuration":250000,"Delta":134585176},{"NoteNumber":59,"Velocity":57,"Duration":738754,"SoundDuration":738754,"Delta":134835176},{"NoteNumber":54,"Velocity":57,"Duration":738754,"SoundDuration":738754,"Delta":134835176},{"NoteNumber":50,"Velocity":55,"Duration":248278,"SoundDuration":248278,"Delta":134835176},{"NoteNumber":49,"Velocity":50,"Duration":246240,"SoundDuration":246240,"Delta":135083454},{"NoteNumber":50,"Velocity":55,"Duration":244235,"SoundDuration":244235,"Delta":135329695},{"NoteNumber":55,"Velocity":52,"Duration":256410,"SoundDuration":256410,"Delta":135573930},{"NoteNumber":50,"Velocity":54,"Duration":256410,"SoundDuration":256410,"Delta":135573930},{"NoteNumber":47,"Velocity":51,"Duration":256410,"SoundDuration":256410,"Delta":135573930},{"NoteNumber":67,"Velocity":64,"Duration":125000,"SoundDuration":125000,"Delta":135830341},{"NoteNumber":55,"Velocity":57,"Duration":1000000,"SoundDuration":1000000,"Delta":135830341},{"NoteNumber":50,"Velocity":57,"Duration":1000000,"SoundDuration":1000000,"Delta":135830341},{"NoteNumber":47,"Velocity":55,"Duration":1000000,"SoundDuration":1000000,"Delta":135830341},{"NoteNumber":69,"Velocity":64,"Duration":125000,"SoundDuration":125000,"Delta":135955341},{"NoteNumber":71,"Velocity":64,"Duration":125000,"SoundDuration":125000,"Delta":136080341},{"NoteNumber":72,"Velocity":64,"Duration":125000,"SoundDuration":125000,"Delta":136205341},{"NoteNumber":71,"Velocity":64,"Duration":125000,"SoundDuration":125000,"Delta":136330341},{"NoteNumber":69,"Velocity":64,"Duration":125000,"SoundDuration":125000,"Delta":136455341},{"NoteNumber":71,"Velocity":64,"Duration":125000,"SoundDuration":125000,"Delta":136580341},{"NoteNumber":67,"Velocity":64,"Duration":125000,"SoundDuration":125000,"Delta":136705341},{"NoteNumber":76,"Velocity":69,"Duration":500000,"SoundDuration":500000,"Delta":136830341},{"NoteNumber":55,"Velocity":55,"Duration":250000,"SoundDuration":250000,"Delta":136830341},{"NoteNumber":54,"Velocity":51,"Duration":250000,"SoundDuration":250000,"Delta":137080341},{"NoteNumber":55,"Velocity":55,"Duration":250000,"SoundDuration":250000,"Delta":137330341},{"NoteNumber":52,"Velocity":51,"Duration":245901,"SoundDuration":245901,"Delta":137580341},{"NoteNumber":61,"Velocity":57,"Duration":737705,"SoundDuration":737705,"Delta":137826242},{"NoteNumber":55,"Velocity":57,"Duration":737705,"SoundDuration":737705,"Delta":137826242},{"NoteNumber":52,"Velocity":55,"Duration":245901,"SoundDuration":245901,"Delta":137826242},{"NoteNumber":50,"Velocity":51,"Duration":245901,"SoundDuration":245901,"Delta":138072144},{"NoteNumber":52,"Velocity":55,"Duration":245901,"SoundDuration":245901,"Delta":138318046},{"NoteNumber":57,"Velocity":55,"Duration":243852,"SoundDuration":243852,"Delta":138563948},{"NoteNumber":52,"Velocity":54,"Duration":243852,"SoundDuration":243852,"Delta":138563948},{"NoteNumber":49,"Velocity":51,"Duration":245901,"SoundDuration":245901,"Delta":138563948},{"NoteNumber":57,"Velocity":57,"Duration":737705,"SoundDuration":737705,"Delta":138809849},{"NoteNumber":52,"Velocity":57,"Duration":737705,"SoundDuration":737705,"Delta":138809849},{"NoteNumber":49,"Velocity":55,"Duration":245901,"SoundDuration":245901,"Delta":138809849},{"NoteNumber":47,"Velocity":51,"Duration":245901,"SoundDuration":245901,"Delta":139055751},{"NoteNumber":49,"Velocity":55,"Duration":245901,"SoundDuration":245901,"Delta":139301653},{"NoteNumber":54,"Velocity":54,"Duration":258695,"SoundDuration":258695,"Delta":139547555},{"NoteNumber":49,"Velocity":54,"Duration":258695,"SoundDuration":258695,"Delta":139547555},{"NoteNumber":45,"Velocity":51,"Duration":260869,"SoundDuration":260869,"Delta":139547555},{"NoteNumber":66,"Velocity":64,"Duration":125000,"SoundDuration":125000,"Delta":139808424},{"NoteNumber":54,"Velocity":51,"Duration":1000000,"SoundDuration":1000000,"Delta":139808424},{"NoteNumber":49,"Velocity":51,"Duration":1000000,"SoundDuration":1000000,"Delta":139808424},{"NoteNumber":45,"Velocity":49,"Duration":1000000,"SoundDuration":1000000,"Delta":139808424},{"NoteNumber":67,"Velocity":64,"Duration":125000,"SoundDuration":125000,"Delta":139933424},{"NoteNumber":69,"Velocity":64,"Duration":125000,"SoundDuration":125000,"Delta":140058424},{"NoteNumber":71,"Velocity":64,"Duration":125000,"SoundDuration":125000,"Delta":140183424},{"NoteNumber":69,"Velocity":64,"Duration":125000,"SoundDuration":125000,"Delta":140308424},{"NoteNumber":67,"Velocity":64,"Duration":125000,"SoundDuration":125000,"Delta":140433424},{"NoteNumber":69,"Velocity":64,"Duration":125000,"SoundDuration":125000,"Delta":140558424},{"NoteNumber":66,"Velocity":64,"Duration":125000,"SoundDuration":125000,"Delta":140683424},{"NoteNumber":74,"Velocity":69,"Duration":750000,"SoundDuration":750000,"Delta":140808424},{"NoteNumber":59,"Velocity":62,"Duration":125000,"SoundDuration":125000,"Delta":140808424},{"NoteNumber":61,"Velocity":62,"Duration":125000,"SoundDuration":125000,"Delta":140933424},{"NoteNumber":62,"Velocity":62,"Duration":125000,"SoundDuration":125000,"Delta":141058424},{"NoteNumber":64,"Velocity":62,"Duration":125000,"SoundDuration":125000,"Delta":141183424},{"NoteNumber":62,"Velocity":62,"Duration":125000,"SoundDuration":125000,"Delta":141308424},{"NoteNumber":61,"Velocity":62,"Duration":125000,"SoundDuration":125000,"Delta":141433424},{"NoteNumber":74,"Velocity":64,"Duration":250000,"SoundDuration":250000,"Delta":141558424},{"NoteNumber":62,"Velocity":62,"Duration":125000,"SoundDuration":125000,"Delta":141558424},{"NoteNumber":59,"Velocity":62,"Duration":125000,"SoundDuration":125000,"Delta":141683424},{"NoteNumber":74,"Velocity":68,"Duration":750000,"SoundDuration":750000,"Delta":141808424},{"NoteNumber":67,"Velocity":67,"Duration":2000000,"SoundDuration":2000000,"Delta":141808424},{"NoteNumber":52,"Velocity":59,"Duration":125000,"SoundDuration":125000,"Delta":141808424},{"NoteNumber":54,"Velocity":59,"Duration":125000,"SoundDuration":125000,"Delta":141933424},{"NoteNumber":55,"Velocity":59,"Duration":125000,"SoundDuration":125000,"Delta":142058424},{"NoteNumber":57,"Velocity":59,"Duration":125000,"SoundDuration":125000,"Delta":142183424},{"NoteNumber":55,"Velocity":59,"Duration":125000,"SoundDuration":125000,"Delta":142308424},{"NoteNumber":54,"Velocity":59,"Duration":125000,"SoundDuration":125000,"Delta":142433424},{"NoteNumber":76,"Velocity":64,"Duration":250000,"SoundDuration":250000,"Delta":142558424},{"NoteNumber":55,"Velocity":59,"Duration":125000,"SoundDuration":125000,"Delta":142558424},{"NoteNumber":52,"Velocity":59,"Duration":125000,"SoundDuration":125000,"Delta":142683424},{"NoteNumber":73,"Velocity":68,"Duration":83333,"SoundDuration":83333,"Delta":142808424},{"NoteNumber":57,"Velocity":63,"Duration":1000000,"SoundDuration":1000000,"Delta":142808424},{"NoteNumber":74,"Velocity":60,"Duration":83333,"SoundDuration":83333,"Delta":142891757},{"NoteNumber":59,"Velocity":60,"Duration":125000,"SoundDuration":125000,"Delta":142933424},{"NoteNumber":73,"Velocity":68,"Duration":583333,"SoundDuration":583333,"Delta":142975091},{"NoteNumber":61,"Velocity":60,"Duration":125000,"SoundDuration":125000,"Delta":143058424},{"NoteNumber":62,"Velocity":60,"Duration":125000,"SoundDuration":125000,"Delta":143183424},{"NoteNumber":61,"Velocity":60,"Duration":125000,"SoundDuration":125000,"Delta":143308424},{"NoteNumber":59,"Velocity":60,"Duration":125000,"SoundDuration":125000,"Delta":143433424},{"NoteNumber":74,"Velocity":64,"Duration":125000,"SoundDuration":125000,"Delta":143558424},{"NoteNumber":61,"Velocity":60,"Duration":125000,"SoundDuration":125000,"Delta":143558424},{"NoteNumber":76,"Velocity":64,"Duration":125000,"SoundDuration":125000,"Delta":143683424},{"NoteNumber":57,"Velocity":60,"Duration":125000,"SoundDuration":125000,"Delta":143683424},{"NoteNumber":78,"Velocity":69,"Duration":1000000,"SoundDuration":1000000,"Delta":143808424},{"NoteNumber":66,"Velocity":65,"Duration":1000000,"SoundDuration":1000000,"Delta":143808424},{"NoteNumber":62,"Velocity":65,"Duration":1000000,"SoundDuration":1000000,"Delta":143808424},{"NoteNumber":50,"Velocity":62,"Duration":125000,"SoundDuration":125000,"Delta":143808424},{"NoteNumber":52,"Velocity":62,"Duration":125000,"SoundDuration":125000,"Delta":143933424},{"NoteNumber":54,"Velocity":62,"Duration":125000,"SoundDuration":125000,"Delta":144058424},{"NoteNumber":55,"Velocity":62,"Duration":125000,"SoundDuration":125000,"Delta":144183424},{"NoteNumber":54,"Velocity":62,"Duration":125000,"SoundDuration":125000,"Delta":144308424},{"NoteNumber":52,"Velocity":62,"Duration":125000,"SoundDuration":125000,"Delta":144433424},{"NoteNumber":54,"Velocity":62,"Duration":125000,"SoundDuration":125000,"Delta":144558424},{"NoteNumber":50,"Velocity":62,"Duration":125000,"SoundDuration":125000,"Delta":144683424},{"NoteNumber":83,"Velocity":72,"Duration":250000,"SoundDuration":250000,"Delta":144808424},{"NoteNumber":55,"Velocity":65,"Duration":500000,"SoundDuration":500000,"Delta":144808424},{"NoteNumber":81,"Velocity":70,"Duration":250000,"SoundDuration":250000,"Delta":145058424},{"NoteNumber":83,"Velocity":72,"Duration":250000,"SoundDuration":250000,"Delta":145308424},{"NoteNumber":79,"Velocity":69,"Duration":247933,"SoundDuration":247933,"Delta":145558424},{"NoteNumber":79,"Velocity":71,"Duration":247934,"SoundDuration":247934,"Delta":145806358},{"NoteNumber":74,"Velocity":55,"Duration":743802,"SoundDuration":743802,"Delta":145806358},{"NoteNumber":71,"Velocity":54,"Duration":743802,"SoundDuration":743802,"Delta":145806358},{"NoteNumber":78,"Velocity":69,"Duration":247933,"SoundDuration":247933,"Delta":146054292},{"NoteNumber":79,"Velocity":72,"Duration":247934,"SoundDuration":247934,"Delta":146302226},{"NoteNumber":76,"Velocity":67,"Duration":245901,"SoundDuration":245901,"Delta":146550160},{"NoteNumber":71,"Velocity":52,"Duration":243852,"SoundDuration":243852,"Delta":146550160},{"NoteNumber":67,"Velocity":50,"Duration":243852,"SoundDuration":243852,"Delta":146550160},{"NoteNumber":76,"Velocity":69,"Duration":245901,"SoundDuration":245901,"Delta":146796062},{"NoteNumber":71,"Velocity":55,"Duration":735705,"SoundDuration":735705,"Delta":146796062},{"NoteNumber":67,"Velocity":54,"Duration":735705,"SoundDuration":735705,"Delta":146796062},{"NoteNumber":74,"Velocity":67,"Duration":243902,"SoundDuration":243902,"Delta":147041964},{"NoteNumber":76,"Velocity":68,"Duration":245901,"SoundDuration":245901,"Delta":147285866},{"NoteNumber":73,"Velocity":64,"Duration":247933,"SoundDuration":247933,"Delta":147531768},{"NoteNumber":69,"Velocity":52,"Duration":245867,"SoundDuration":245867,"Delta":147531768},{"NoteNumber":64,"Velocity":50,"Duration":247933,"SoundDuration":247933,"Delta":147531768},{"NoteNumber":73,"Velocity":68,"Duration":1000000,"SoundDuration":1000000,"Delta":147779702},{"NoteNumber":64,"Velocity":55,"Duration":1000000,"SoundDuration":1000000,"Delta":147779702},{"NoteNumber":69,"Velocity":55,"Duration":1000000,"SoundDuration":1000000,"Delta":147779702},{"NoteNumber":55,"Velocity":54,"Duration":1000000,"SoundDuration":1000000,"Delta":147779702},{"NoteNumber":43,"Velocity":54,"Duration":1000000,"SoundDuration":1000000,"Delta":147779702},{"NoteNumber":74,"Velocity":64,"Duration":750000,"SoundDuration":750000,"Delta":148779702},{"NoteNumber":69,"Velocity":49,"Duration":750000,"SoundDuration":750000,"Delta":148779702},{"NoteNumber":66,"Velocity":48,"Duration":750000,"SoundDuration":750000,"Delta":148779702},{"NoteNumber":54,"Velocity":62,"Duration":125000,"SoundDuration":125000,"Delta":148779702},{"NoteNumber":55,"Velocity":62,"Duration":125000,"SoundDuration":125000,"Delta":148904702},{"NoteNumber":57,"Velocity":62,"Duration":125000,"SoundDuration":125000,"Delta":149029702},{"NoteNumber":55,"Velocity":62,"Duration":125000,"SoundDuration":125000,"Delta":149154702},{"NoteNumber":54,"Velocity":62,"Duration":125000,"SoundDuration":125000,"Delta":149279702},{"NoteNumber":52,"Velocity":62,"Duration":125000,"SoundDuration":125000,"Delta":149404702},{"NoteNumber":74,"Velocity":61,"Duration":250000,"SoundDuration":250000,"Delta":149529702},{"NoteNumber":69,"Velocity":46,"Duration":250000,"SoundDuration":250000,"Delta":149529702},{"NoteNumber":66,"Velocity":45,"Duration":250000,"SoundDuration":250000,"Delta":149529702},{"NoteNumber":50,"Velocity":62,"Duration":125000,"SoundDuration":125000,"Delta":149529702},{"NoteNumber":49,"Velocity":62,"Duration":125000,"SoundDuration":125000,"Delta":149654702},{"NoteNumber":74,"Velocity":66,"Duration":750000,"SoundDuration":750000,"Delta":149779702},{"NoteNumber":71,"Velocity":49,"Duration":750000,"SoundDuration":750000,"Delta":149779702},{"NoteNumber":66,"Velocity":48,"Duration":750000,"SoundDuration":750000,"Delta":149779702},{"NoteNumber":47,"Velocity":62,"Duration":125000,"SoundDuration":125000,"Delta":149779702},{"NoteNumber":49,"Velocity":62,"Duration":125000,"SoundDuration":125000,"Delta":149904702},{"NoteNumber":50,"Velocity":62,"Duration":125000,"SoundDuration":125000,"Delta":150029702},{"NoteNumber":49,"Velocity":62,"Duration":125000,"SoundDuration":125000,"Delta":150154702},{"NoteNumber":47,"Velocity":62,"Duration":125000,"SoundDuration":125000,"Delta":150279702},{"NoteNumber":45,"Velocity":62,"Duration":125000,"SoundDuration":125000,"Delta":150404702},{"NoteNumber":76,"Velocity":61,"Duration":250000,"SoundDuration":250000,"Delta":150529702},{"NoteNumber":71,"Velocity":46,"Duration":250000,"SoundDuration":250000,"Delta":150529702},{"NoteNumber":67,"Velocity":45,"Duration":250000,"SoundDuration":250000,"Delta":150529702},{"NoteNumber":47,"Velocity":62,"Duration":125000,"SoundDuration":125000,"Delta":150529702},{"NoteNumber":43,"Velocity":62,"Duration":125000,"SoundDuration":125000,"Delta":150654702},{"NoteNumber":73,"Velocity":66,"Duration":87719,"SoundDuration":87719,"Delta":150779702},{"NoteNumber":69,"Velocity":49,"Duration":1086503,"SoundDuration":1086503,"Delta":150779702},{"NoteNumber":64,"Velocity":48,"Duration":1086503,"SoundDuration":1086503,"Delta":150779702},{"NoteNumber":45,"Velocity":66,"Duration":789474,"SoundDuration":789474,"Delta":150779702},{"NoteNumber":74,"Velocity":66,"Duration":87719,"SoundDuration":87719,"Delta":150867421},{"NoteNumber":73,"Velocity":66,"Duration":87719,"SoundDuration":87719,"Delta":150955141},{"NoteNumber":74,"Velocity":66,"Duration":87719,"SoundDuration":87719,"Delta":151042860},{"NoteNumber":73,"Velocity":66,"Duration":87719,"SoundDuration":87719,"Delta":151130579},{"NoteNumber":74,"Velocity":66,"Duration":87719,"SoundDuration":87719,"Delta":151218299},{"NoteNumber":73,"Velocity":66,"Duration":263158,"SoundDuration":263158,"Delta":151306018},{"NoteNumber":74,"Velocity":61,"Duration":297029,"SoundDuration":297029,"Delta":151569176},{"NoteNumber":45,"Velocity":62,"Duration":297029,"SoundDuration":297029,"Delta":151569176},{"NoteNumber":74,"Velocity":64,"Duration":1000000,"SoundDuration":1000000,"Delta":151866206},{"NoteNumber":69,"Velocity":49,"Duration":1000000,"SoundDuration":1000000,"Delta":151866206},{"NoteNumber":66,"Velocity":48,"Duration":1000000,"SoundDuration":1000000,"Delta":151866206},{"NoteNumber":38,"Velocity":66,"Duration":750000,"SoundDuration":750000,"Delta":151866206},{"NoteNumber":50,"Velocity":62,"Duration":83333,"SoundDuration":83333,"Delta":152616206},{"NoteNumber":52,"Velocity":62,"Duration":83333,"SoundDuration":83333,"Delta":152699539},{"NoteNumber":54,"Velocity":62,"Duration":83333,"SoundDuration":83333,"Delta":152782872},{"NoteNumber":71,"Velocity":64,"Duration":125000,"SoundDuration":125000,"Delta":152866206},{"NoteNumber":55,"Velocity":66,"Duration":1000000,"SoundDuration":1000000,"Delta":152866206},{"NoteNumber":73,"Velocity":64,"Duration":125000,"SoundDuration":125000,"Delta":152991206},{"NoteNumber":74,"Velocity":64,"Duration":125000,"SoundDuration":125000,"Delta":153116206},{"NoteNumber":76,"Velocity":64,"Duration":125000,"SoundDuration":125000,"Delta":153241206},{"NoteNumber":74,"Velocity":64,"Duration":125000,"SoundDuration":125000,"Delta":153366206},{"NoteNumber":73,"Velocity":64,"Duration":125000,"SoundDuration":125000,"Delta":153491206},{"NoteNumber":74,"Velocity":64,"Duration":125000,"SoundDuration":125000,"Delta":153616206},{"NoteNumber":71,"Velocity":64,"Duration":125000,"SoundDuration":125000,"Delta":153741206},{"NoteNumber":76,"Velocity":64,"Duration":1000000,"SoundDuration":1000000,"Delta":153866206},{"NoteNumber":71,"Velocity":49,"Duration":1000000,"SoundDuration":1000000,"Delta":153866206},{"NoteNumber":64,"Velocity":48,"Duration":1000000,"SoundDuration":1000000,"Delta":153866206},{"NoteNumber":49,"Velocity":60,"Duration":125000,"SoundDuration":125000,"Delta":153866206},{"NoteNumber":50,"Velocity":61,"Duration":125000,"SoundDuration":125000,"Delta":153991206},{"NoteNumber":52,"Velocity":61,"Duration":125000,"SoundDuration":125000,"Delta":154116206},{"NoteNumber":54,"Velocity":59,"Duration":125000,"SoundDuration":125000,"Delta":154241206},{"NoteNumber":52,"Velocity":61,"Duration":125000,"SoundDuration":125000,"Delta":154366206},{"NoteNumber":50,"Velocity":61,"Duration":125000,"SoundDuration":125000,"Delta":154491206},{"NoteNumber":52,"Velocity":61,"Duration":125000,"SoundDuration":125000,"Delta":154616206},{"NoteNumber":49,"Velocity":61,"Duration":125000,"SoundDuration":125000,"Delta":154741206},{"NoteNumber":69,"Velocity":64,"Duration":125000,"SoundDuration":125000,"Delta":154866206},{"NoteNumber":54,"Velocity":64,"Duration":1000000,"SoundDuration":1000000,"Delta":154866206},{"NoteNumber":71,"Velocity":64,"Duration":125000,"SoundDuration":125000,"Delta":154991206},{"NoteNumber":73,"Velocity":64,"Duration":125000,"SoundDuration":125000,"Delta":155116206},{"NoteNumber":74,"Velocity":64,"Duration":125000,"SoundDuration":125000,"Delta":155241206},{"NoteNumber":73,"Velocity":64,"Duration":125000,"SoundDuration":125000,"Delta":155366206},{"NoteNumber":71,"Velocity":64,"Duration":125000,"SoundDuration":125000,"Delta":155491206},{"NoteNumber":73,"Velocity":64,"Duration":125000,"SoundDuration":125000,"Delta":155616206},{"NoteNumber":69,"Velocity":64,"Duration":125000,"SoundDuration":125000,"Delta":155741206},{"NoteNumber":74,"Velocity":72,"Duration":1000000,"SoundDuration":1000000,"Delta":155866206},{"NoteNumber":69,"Velocity":49,"Duration":1000000,"SoundDuration":1000000,"Delta":155866206},{"NoteNumber":62,"Velocity":48,"Duration":1000000,"SoundDuration":1000000,"Delta":155866206},{"NoteNumber":47,"Velocity":67,"Duration":125000,"SoundDuration":125000,"Delta":155866206},{"NoteNumber":49,"Velocity":67,"Duration":125000,"SoundDuration":125000,"Delta":155991206},{"NoteNumber":50,"Velocity":67,"Duration":125000,"SoundDuration":125000,"Delta":156116206},{"NoteNumber":52,"Velocity":67,"Duration":125000,"SoundDuration":125000,"Delta":156241206},{"NoteNumber":50,"Velocity":67,"Duration":125000,"SoundDuration":125000,"Delta":156366206},{"NoteNumber":49,"Velocity":67,"Duration":125000,"SoundDuration":125000,"Delta":156491206},{"NoteNumber":50,"Velocity":67,"Duration":125000,"SoundDuration":125000,"Delta":156616206},{"NoteNumber":47,"Velocity":67,"Duration":125000,"SoundDuration":125000,"Delta":156741206},{"NoteNumber":67,"Velocity":64,"Duration":125000,"SoundDuration":125000,"Delta":156866206},{"NoteNumber":52,"Velocity":60,"Duration":125000,"SoundDuration":125000,"Delta":156866206},{"NoteNumber":69,"Velocity":64,"Duration":125000,"SoundDuration":125000,"Delta":156991206},{"NoteNumber":54,"Velocity":60,"Duration":125000,"SoundDuration":125000,"Delta":156991206},{"NoteNumber":71,"Velocity":64,"Duration":125000,"SoundDuration":125000,"Delta":157116206},{"NoteNumber":55,"Velocity":60,"Duration":125000,"SoundDuration":125000,"Delta":157116206},{"NoteNumber":72,"Velocity":65,"Duration":125000,"SoundDuration":125000,"Delta":157241206},{"NoteNumber":57,"Velocity":60,"Duration":125000,"SoundDuration":125000,"Delta":157241206},{"NoteNumber":71,"Velocity":65,"Duration":125000,"SoundDuration":125000,"Delta":157366206},{"NoteNumber":55,"Velocity":60,"Duration":125000,"SoundDuration":125000,"Delta":157366206},{"NoteNumber":69,"Velocity":66,"Duration":125000,"SoundDuration":125000,"Delta":157491206},{"NoteNumber":54,"Velocity":61,"Duration":125000,"SoundDuration":125000,"Delta":157491206},{"NoteNumber":71,"Velocity":66,"Duration":125000,"SoundDuration":125000,"Delta":157616206},{"NoteNumber":55,"Velocity":61,"Duration":125000,"SoundDuration":125000,"Delta":157616206},{"NoteNumber":67,"Velocity":66,"Duration":125000,"SoundDuration":125000,"Delta":157741206},{"NoteNumber":52,"Velocity":61,"Duration":125000,"SoundDuration":125000,"Delta":157741206},{"NoteNumber":73,"Velocity":66,"Duration":125000,"SoundDuration":125000,"Delta":157866206},{"NoteNumber":57,"Velocity":62,"Duration":125000,"SoundDuration":125000,"Delta":157866206},{"NoteNumber":74,"Velocity":66,"Duration":125000,"SoundDuration":125000,"Delta":157991206},{"NoteNumber":59,"Velocity":62,"Duration":125000,"SoundDuration":125000,"Delta":157991206},{"NoteNumber":76,"Velocity":67,"Duration":125000,"SoundDuration":125000,"Delta":158116206},{"NoteNumber":61,"Velocity":62,"Duration":125000,"SoundDuration":125000,"Delta":158116206},{"NoteNumber":78,"Velocity":67,"Duration":125000,"SoundDuration":125000,"Delta":158241206},{"NoteNumber":62,"Velocity":62,"Duration":125000,"SoundDuration":125000,"Delta":158241206},{"NoteNumber":76,"Velocity":68,"Duration":124655,"SoundDuration":124655,"Delta":158366206},{"NoteNumber":61,"Velocity":63,"Duration":124655,"SoundDuration":124655,"Delta":158366206},{"NoteNumber":74,"Velocity":68,"Duration":123966,"SoundDuration":123966,"Delta":158490861},{"NoteNumber":59,"Velocity":63,"Duration":123966,"SoundDuration":123966,"Delta":158490861},{"NoteNumber":76,"Velocity":68,"Duration":123966,"SoundDuration":123966,"Delta":158614828},{"NoteNumber":61,"Velocity":63,"Duration":123966,"SoundDuration":123966,"Delta":158614828},{"NoteNumber":73,"Velocity":69,"Duration":123966,"SoundDuration":123966,"Delta":158738795},{"NoteNumber":57,"Velocity":64,"Duration":123966,"SoundDuration":123966,"Delta":158738795},{"NoteNumber":78,"Velocity":69,"Duration":123967,"SoundDuration":123967,"Delta":158862762},{"NoteNumber":62,"Velocity":64,"Duration":123967,"SoundDuration":123967,"Delta":158862762},{"NoteNumber":79,"Velocity":69,"Duration":123289,"SoundDuration":123289,"Delta":158986729},{"NoteNumber":64,"Velocity":64,"Duration":123289,"SoundDuration":123289,"Delta":158986729},{"NoteNumber":81,"Velocity":69,"Duration":122950,"SoundDuration":122950,"Delta":159110019},{"NoteNumber":66,"Velocity":64,"Duration":122950,"SoundDuration":122950,"Delta":159110019},{"NoteNumber":83,"Velocity":69,"Duration":122950,"SoundDuration":122950,"Delta":159232970},{"NoteNumber":67,"Velocity":64,"Duration":122950,"SoundDuration":122950,"Delta":159232970},{"NoteNumber":81,"Velocity":70,"Duration":122950,"SoundDuration":122950,"Delta":159355921},{"NoteNumber":66,"Velocity":65,"Duration":122950,"SoundDuration":122950,"Delta":159355921},{"NoteNumber":79,"Velocity":70,"Duration":122617,"SoundDuration":122617,"Delta":159478871},{"NoteNumber":64,"Velocity":65,"Duration":122617,"SoundDuration":122617,"Delta":159478871},{"NoteNumber":81,"Velocity":71,"Duration":129310,"SoundDuration":129310,"Delta":159601489},{"NoteNumber":66,"Velocity":66,"Duration":129310,"SoundDuration":129310,"Delta":159601489},{"NoteNumber":78,"Velocity":71,"Duration":129310,"SoundDuration":129310,"Delta":159730800},{"NoteNumber":62,"Velocity":66,"Duration":129310,"SoundDuration":129310,"Delta":159730800},{"NoteNumber":83,"Velocity":77,"Duration":750000,"SoundDuration":750000,"Delta":159860110},{"NoteNumber":67,"Velocity":72,"Duration":750000,"SoundDuration":750000,"Delta":159860110},{"NoteNumber":73,"Velocity":72,"Duration":250000,"SoundDuration":250000,"Delta":160610110},{"NoteNumber":69,"Velocity":70,"Duration":250000,"SoundDuration":250000,"Delta":160610110},{"NoteNumber":64,"Velocity":69,"Duration":250000,"SoundDuration":250000,"Delta":160610110},{"NoteNumber":55,"Velocity":69,"Duration":250000,"SoundDuration":250000,"Delta":160610110},{"NoteNumber":74,"Velocity":77,"Duration":750000,"SoundDuration":750000,"Delta":160860110},{"NoteNumber":69,"Velocity":72,"Duration":750000,"SoundDuration":750000,"Delta":160860110},{"NoteNumber":66,"Velocity":72,"Duration":750000,"SoundDuration":750000,"Delta":160860110},{"NoteNumber":54,"Velocity":72,"Duration":750000,"SoundDuration":750000,"Delta":160860110},{"NoteNumber":76,"Velocity":72,"Duration":250000,"SoundDuration":250000,"Delta":161610110},{"NoteNumber":73,"Velocity":70,"Duration":250000,"SoundDuration":250000,"Delta":161610110},{"NoteNumber":67,"Velocity":69,"Duration":250000,"SoundDuration":250000,"Delta":161610110},{"NoteNumber":52,"Velocity":69,"Duration":250000,"SoundDuration":250000,"Delta":161610110},{"NoteNumber":78,"Velocity":78,"Duration":750000,"SoundDuration":750000,"Delta":161860110},{"NoteNumber":74,"Velocity":72,"Duration":750000,"SoundDuration":750000,"Delta":161860110},{"NoteNumber":69,"Velocity":72,"Duration":750000,"SoundDuration":750000,"Delta":161860110},{"NoteNumber":50,"Velocity":72,"Duration":750000,"SoundDuration":750000,"Delta":161860110},{"NoteNumber":66,"Velocity":72,"Duration":256410,"SoundDuration":256410,"Delta":162610110},{"NoteNumber":62,"Velocity":70,"Duration":254273,"SoundDuration":254273,"Delta":162610110},{"NoteNumber":57,"Velocity":68,"Duration":256410,"SoundDuration":256410,"Delta":162610110},{"NoteNumber":48,"Velocity":69,"Duration":256410,"SoundDuration":256410,"Delta":162610110},{"NoteNumber":67,"Velocity":77,"Duration":769230,"SoundDuration":769230,"Delta":162866520},{"NoteNumber":62,"Velocity":72,"Duration":769230,"SoundDuration":769230,"Delta":162866520},{"NoteNumber":59,"Velocity":72,"Duration":769230,"SoundDuration":769230,"Delta":162866520},{"NoteNumber":47,"Velocity":72,"Duration":769230,"SoundDuration":769230,"Delta":162866520},{"NoteNumber":69,"Velocity":72,"Duration":256410,"SoundDuration":256410,"Delta":163635751},{"NoteNumber":66,"Velocity":69,"Duration":256410,"SoundDuration":256410,"Delta":163635751},{"NoteNumber":60,"Velocity":68,"Duration":256410,"SoundDuration":256410,"Delta":163635751},{"NoteNumber":45,"Velocity":68,"Duration":256410,"SoundDuration":256410,"Delta":163635751},{"NoteNumber":71,"Velocity":76,"Duration":769230,"SoundDuration":769230,"Delta":163892161},{"NoteNumber":67,"Velocity":72,"Duration":769230,"SoundDuration":769230,"Delta":163892161},{"NoteNumber":62,"Velocity":72,"Duration":769230,"SoundDuration":769230,"Delta":163892161},{"NoteNumber":43,"Velocity":72,"Duration":769230,"SoundDuration":769230,"Delta":163892161},{"NoteNumber":71,"Velocity":72,"Duration":256410,"SoundDuration":256410,"Delta":164661392},{"NoteNumber":62,"Velocity":69,"Duration":256410,"SoundDuration":256410,"Delta":164661392},{"NoteNumber":67,"Velocity":68,"Duration":256410,"SoundDuration":256410,"Delta":164661392},{"NoteNumber":42,"Velocity":68,"Duration":256410,"SoundDuration":256410,"Delta":164661392},{"NoteNumber":73,"Velocity":76,"Duration":769230,"SoundDuration":769230,"Delta":164917802},{"NoteNumber":64,"Velocity":72,"Duration":769230,"SoundDuration":769230,"Delta":164917802},{"NoteNumber":67,"Velocity":72,"Duration":769230,"SoundDuration":769230,"Delta":164917802},{"NoteNumber":40,"Velocity":72,"Duration":769230,"SoundDuration":769230,"Delta":164917802},{"NoteNumber":74,"Velocity":72,"Duration":270270,"SoundDuration":270270,"Delta":165687033},{"NoteNumber":66,"Velocity":69,"Duration":265765,"SoundDuration":265765,"Delta":165687033},{"NoteNumber":69,"Velocity":68,"Duration":270270,"SoundDuration":270270,"Delta":165687033},{"NoteNumber":38,"Velocity":68,"Duration":270270,"SoundDuration":270270,"Delta":165687033},{"NoteNumber":66,"Velocity":77,"Duration":1132074,"SoundDuration":1132074,"Delta":165957303},{"NoteNumber":62,"Velocity":72,"Duration":1132074,"SoundDuration":1132074,"Delta":165957303},{"NoteNumber":57,"Velocity":72,"Duration":1132074,"SoundDuration":1132074,"Delta":165957303},{"NoteNumber":45,"Velocity":72,"Duration":2308545,"SoundDuration":2308545,"Delta":165957303},{"NoteNumber":64,"Velocity":76,"Duration":1176470,"SoundDuration":1176470,"Delta":167089378},{"NoteNumber":61,"Velocity":72,"Duration":1176470,"SoundDuration":1176470,"Delta":167089378},{"NoteNumber":55,"Velocity":72,"Duration":1176470,"SoundDuration":1176470,"Delta":167089378},{"NoteNumber":62,"Velocity":76,"Duration":4705883,"SoundDuration":4705883,"Delta":168265849},{"NoteNumber":57,"Velocity":72,"Duration":4705883,"SoundDuration":4705883,"Delta":168265849},{"NoteNumber":54,"Velocity":70,"Duration":4705883,"SoundDuration":4705883,"Delta":168265849},{"NoteNumber":38,"Velocity":66,"Duration":4705883,"SoundDuration":4705883,"Delta":168265849}],"license":{"name":"Creative Commons Attribution-ShareAlike 3.0 Germany","url":"http://creativecommons.org/licenses/by-sa/3.0/de/deed.en","text":"The MIDI, audio (MP3, OGG) and video files of Bernd Krueger are licensed under the cc-by-sa Germany License. This means that you can use and adapt the files, as long as you attribute the copyright holder.\n\nName: Bernd Krueger\nSource: http://www.piano-midi.de\n\nThe distribution or public playback of the files is only allowed under identical license conditions.\n\nThe scores are open source.","attribution":"MIDI files by Bernd Krueger (piano-midi.de)"}}