{"title":", : Prelude and Fugue No. 2 in C minor, BWV 847","artist":"Bach","durationMs":189751,"midiSha256":"bfdbc4f1ab454bc8db4bde4964424ae4c6def60e0a1e77d365433bd3672ea0c7","midiObject":[{"NoteNumber":72,"Velocity":96,"Duration":136170,"SoundDuration":136170,"Delta":0},{"NoteNumber":48,"Velocity":88,"Duration":136170,"SoundDuration":136170,"Delta":0},{"NoteNumber":63,"Velocity":80,"Duration":131579,"SoundDuration":131579,"Delta":115494},{"NoteNumber":55,"Velocity":73,"Duration":131579,"SoundDuration":131579,"Delta":117374},{"NoteNumber":62,"Velocity":77,"Duration":132623,"SoundDuration":132623,"Delta":227336},{"NoteNumber":53,"Velocity":72,"Duration":132727,"SoundDuration":132727,"Delta":229216},{"NoteNumber":63,"Velocity":77,"Duration":138655,"SoundDuration":138655,"Delta":340118},{"NoteNumber":55,"Velocity":72,"Duration":138631,"SoundDuration":138631,"Delta":342102},{"NoteNumber":51,"Velocity":80,"Duration":136477,"SoundDuration":136477,"Delta":460146},{"NoteNumber":60,"Velocity":80,"Duration":136403,"SoundDuration":136403,"Delta":462107},{"NoteNumber":55,"Velocity":72,"Duration":132075,"SoundDuration":132075,"Delta":576813},{"NoteNumber":63,"Velocity":76,"Duration":132075,"SoundDuration":132075,"Delta":578699},{"NoteNumber":62,"Velocity":76,"Duration":133146,"SoundDuration":133146,"Delta":691907},{"NoteNumber":53,"Velocity":73,"Duration":133194,"SoundDuration":133194,"Delta":692850},{"NoteNumber":63,"Velocity":76,"Duration":118998,"SoundDuration":118998,"Delta":802284},{"NoteNumber":55,"Velocity":73,"Duration":118998,"SoundDuration":118998,"Delta":802284},{"NoteNumber":72,"Velocity":96,"Duration":139956,"SoundDuration":139956,"Delta":925311},{"NoteNumber":48,"Velocity":88,"Duration":139956,"SoundDuration":139956,"Delta":925311},{"NoteNumber":55,"Velocity":74,"Duration":131161,"SoundDuration":131161,"Delta":1042720},{"NoteNumber":63,"Velocity":80,"Duration":131086,"SoundDuration":131086,"Delta":1045605},{"NoteNumber":53,"Velocity":74,"Duration":131778,"SoundDuration":131778,"Delta":1155156},{"NoteNumber":62,"Velocity":78,"Duration":131851,"SoundDuration":131851,"Delta":1157028},{"NoteNumber":63,"Velocity":78,"Duration":136295,"SoundDuration":136295,"Delta":1267515},{"NoteNumber":55,"Velocity":72,"Duration":136346,"SoundDuration":136346,"Delta":1269424},{"NoteNumber":60,"Velocity":80,"Duration":135779,"SoundDuration":135779,"Delta":1383237},{"NoteNumber":51,"Velocity":80,"Duration":135389,"SoundDuration":135389,"Delta":1388124},{"NoteNumber":63,"Velocity":78,"Duration":126061,"SoundDuration":126061,"Delta":1500869},{"NoteNumber":55,"Velocity":73,"Duration":126061,"SoundDuration":126061,"Delta":1500869},{"NoteNumber":53,"Velocity":73,"Duration":128005,"SoundDuration":128005,"Delta":1608945},{"NoteNumber":62,"Velocity":77,"Duration":128238,"SoundDuration":128238,"Delta":1610744},{"NoteNumber":63,"Velocity":77,"Duration":121717,"SoundDuration":121717,"Delta":1716859},{"NoteNumber":55,"Velocity":73,"Duration":121927,"SoundDuration":121927,"Delta":1719674},{"NoteNumber":68,"Velocity":96,"Duration":138061,"SoundDuration":138061,"Delta":1838576},{"NoteNumber":48,"Velocity":88,"Duration":137915,"SoundDuration":137915,"Delta":1840609},{"NoteNumber":56,"Velocity":73,"Duration":132172,"SoundDuration":132172,"Delta":1957672},{"NoteNumber":65,"Velocity":80,"Duration":132075,"SoundDuration":132075,"Delta":1962486},{"NoteNumber":55,"Velocity":73,"Duration":132633,"SoundDuration":132633,"Delta":2071920},{"NoteNumber":64,"Velocity":76,"Duration":132662,"SoundDuration":132662,"Delta":2072864},{"NoteNumber":65,"Velocity":76,"Duration":136334,"SoundDuration":136334,"Delta":2184184},{"NoteNumber":56,"Velocity":73,"Duration":136451,"SoundDuration":136451,"Delta":2188990},{"NoteNumber":60,"Velocity":80,"Duration":136973,"SoundDuration":136973,"Delta":2300857},{"NoteNumber":53,"Velocity":80,"Duration":136940,"SoundDuration":136940,"Delta":2301830},{"NoteNumber":65,"Velocity":76,"Duration":131667,"SoundDuration":131667,"Delta":2418944},{"NoteNumber":56,"Velocity":73,"Duration":131667,"SoundDuration":131667,"Delta":2418944},{"NoteNumber":55,"Velocity":73,"Duration":132518,"SoundDuration":132518,"Delta":2531815},{"NoteNumber":64,"Velocity":76,"Duration":132623,"SoundDuration":132623,"Delta":2533695},{"NoteNumber":65,"Velocity":76,"Duration":119039,"SoundDuration":119039,"Delta":2647469},{"NoteNumber":56,"Velocity":73,"Duration":119024,"SoundDuration":119024,"Delta":2649453},{"NoteNumber":48,"Velocity":88,"Duration":137204,"SoundDuration":137204,"Delta":2763540},{"NoteNumber":68,"Velocity":96,"Duration":137087,"SoundDuration":137087,"Delta":2766509},{"NoteNumber":56,"Velocity":74,"Duration":133147,"SoundDuration":133147,"Delta":2881666},{"NoteNumber":65,"Velocity":80,"Duration":133079,"SoundDuration":133079,"Delta":2884585},{"NoteNumber":55,"Velocity":72,"Duration":134041,"SoundDuration":134041,"Delta":2995802},{"NoteNumber":64,"Velocity":77,"Duration":134202,"SoundDuration":134202,"Delta":2998654},{"NoteNumber":65,"Velocity":77,"Duration":139690,"SoundDuration":139690,"Delta":3109871},{"NoteNumber":56,"Velocity":72,"Duration":139712,"SoundDuration":139712,"Delta":3111772},{"NoteNumber":60,"Velocity":80,"Duration":134159,"SoundDuration":134159,"Delta":3233215},{"NoteNumber":53,"Velocity":80,"Duration":134116,"SoundDuration":134116,"Delta":3235138},{"NoteNumber":65,"Velocity":76,"Duration":131578,"SoundDuration":131578,"Delta":3347638},{"NoteNumber":56,"Velocity":74,"Duration":131578,"SoundDuration":131578,"Delta":3347638},{"NoteNumber":64,"Velocity":76,"Duration":132943,"SoundDuration":132943,"Delta":3460420},{"NoteNumber":55,"Velocity":74,"Duration":132943,"SoundDuration":132943,"Delta":3460420},{"NoteNumber":65,"Velocity":76,"Duration":120831,"SoundDuration":120831,"Delta":3571323},{"NoteNumber":56,"Velocity":74,"Duration":120896,"SoundDuration":120896,"Delta":3576226},{"NoteNumber":71,"Velocity":96,"Duration":136715,"SoundDuration":136715,"Delta":3695154},{"NoteNumber":48,"Velocity":88,"Duration":136612,"SoundDuration":136612,"Delta":3697123},{"NoteNumber":56,"Velocity":74,"Duration":130596,"SoundDuration":130596,"Delta":3813213},{"NoteNumber":65,"Velocity":80,"Duration":130596,"SoundDuration":130596,"Delta":3814146},{"NoteNumber":63,"Velocity":76,"Duration":131728,"SoundDuration":131728,"Delta":3926086},{"NoteNumber":55,"Velocity":74,"Duration":131779,"SoundDuration":131779,"Delta":3927019},{"NoteNumber":65,"Velocity":75,"Duration":137318,"SoundDuration":137318,"Delta":4037145},{"NoteNumber":56,"Velocity":74,"Duration":137295,"SoundDuration":137295,"Delta":4038129},{"NoteNumber":62,"Velocity":80,"Duration":134159,"SoundDuration":134159,"Delta":4153287},{"NoteNumber":53,"Velocity":80,"Duration":134111,"SoundDuration":134111,"Delta":4154271},{"NoteNumber":56,"Velocity":74,"Duration":131111,"SoundDuration":131111,"Delta":4268694},{"NoteNumber":65,"Velocity":76,"Duration":131086,"SoundDuration":131086,"Delta":4272464},{"NoteNumber":55,"Velocity":74,"Duration":131810,"SoundDuration":131810,"Delta":4380142},{"NoteNumber":63,"Velocity":76,"Duration":131971,"SoundDuration":131971,"Delta":4383888},{"NoteNumber":56,"Velocity":73,"Duration":117199,"SoundDuration":117199,"Delta":4495351},{"NoteNumber":65,"Velocity":76,"Duration":117222,"SoundDuration":117222,"Delta":4497304},{"NoteNumber":71,"Velocity":96,"Duration":137148,"SoundDuration":137148,"Delta":4614526},{"NoteNumber":48,"Velocity":88,"Duration":137148,"SoundDuration":137148,"Delta":4614526},{"NoteNumber":56,"Velocity":75,"Duration":131086,"SoundDuration":131086,"Delta":4730139},{"NoteNumber":65,"Velocity":80,"Duration":131086,"SoundDuration":131086,"Delta":4731075},{"NoteNumber":63,"Velocity":76,"Duration":132089,"SoundDuration":132089,"Delta":4840626},{"NoteNumber":55,"Velocity":75,"Duration":132145,"SoundDuration":132145,"Delta":4841562},{"NoteNumber":65,"Velocity":80,"Duration":138502,"SoundDuration":138502,"Delta":4954858},{"NoteNumber":56,"Velocity":75,"Duration":138483,"SoundDuration":138483,"Delta":4955850},{"NoteNumber":62,"Velocity":80,"Duration":135580,"SoundDuration":135580,"Delta":5072913},{"NoteNumber":53,"Velocity":80,"Duration":135580,"SoundDuration":135580,"Delta":5072913},{"NoteNumber":56,"Velocity":74,"Duration":131579,"SoundDuration":131579,"Delta":5192517},{"NoteNumber":65,"Velocity":77,"Duration":131579,"SoundDuration":131579,"Delta":5193457},{"NoteNumber":63,"Velocity":77,"Duration":132875,"SoundDuration":132875,"Delta":5302479},{"NoteNumber":55,"Velocity":74,"Duration":133147,"SoundDuration":133147,"Delta":5306239},{"NoteNumber":56,"Velocity":74,"Duration":120967,"SoundDuration":120967,"Delta":5416201},{"NoteNumber":65,"Velocity":77,"Duration":121043,"SoundDuration":121043,"Delta":5418217},{"NoteNumber":72,"Velocity":96,"Duration":143602,"SoundDuration":143602,"Delta":5540307},{"NoteNumber":48,"Velocity":88,"Duration":143602,"SoundDuration":143602,"Delta":5540307},{"NoteNumber":51,"Velocity":75,"Duration":129398,"SoundDuration":129398,"Delta":5660600},{"NoteNumber":67,"Velocity":80,"Duration":129151,"SoundDuration":129151,"Delta":5665459},{"NoteNumber":65,"Velocity":75,"Duration":130394,"SoundDuration":130394,"Delta":5776160},{"NoteNumber":50,"Velocity":75,"Duration":130394,"SoundDuration":130394,"Delta":5776160},{"NoteNumber":67,"Velocity":75,"Duration":137127,"SoundDuration":137127,"Delta":5885070},{"NoteNumber":51,"Velocity":75,"Duration":137127,"SoundDuration":137127,"Delta":5885070},{"NoteNumber":63,"Velocity":80,"Duration":137379,"SoundDuration":137379,"Delta":6001281},{"NoteNumber":55,"Velocity":80,"Duration":137172,"SoundDuration":137172,"Delta":6003273},{"NoteNumber":67,"Velocity":76,"Duration":124982,"SoundDuration":124982,"Delta":6119807},{"NoteNumber":51,"Velocity":75,"Duration":124866,"SoundDuration":124866,"Delta":6121696},{"NoteNumber":50,"Velocity":75,"Duration":125746,"SoundDuration":125746,"Delta":6226160},{"NoteNumber":65,"Velocity":76,"Duration":125830,"SoundDuration":125830,"Delta":6227053},{"NoteNumber":51,"Velocity":75,"Duration":117097,"SoundDuration":117097,"Delta":6333442},{"NoteNumber":67,"Velocity":76,"Duration":117257,"SoundDuration":117257,"Delta":6337259},{"NoteNumber":72,"Velocity":96,"Duration":138619,"SoundDuration":138619,"Delta":6449563},{"NoteNumber":48,"Velocity":88,"Duration":138518,"SoundDuration":138518,"Delta":6451517},{"NoteNumber":51,"Velocity":75,"Duration":129777,"SoundDuration":129777,"Delta":6569517},{"NoteNumber":67,"Velocity":80,"Duration":129629,"SoundDuration":129629,"Delta":6571517},{"NoteNumber":65,"Velocity":75,"Duration":131255,"SoundDuration":131255,"Delta":6680776},{"NoteNumber":50,"Velocity":75,"Duration":131436,"SoundDuration":131436,"Delta":6682628},{"NoteNumber":51,"Velocity":75,"Duration":141731,"SoundDuration":141731,"Delta":6791887},{"NoteNumber":67,"Velocity":75,"Duration":141831,"SoundDuration":141831,"Delta":6795771},{"NoteNumber":63,"Velocity":80,"Duration":138345,"SoundDuration":138345,"Delta":6913657},{"NoteNumber":55,"Velocity":80,"Duration":138115,"SoundDuration":138115,"Delta":6916686},{"NoteNumber":67,"Velocity":76,"Duration":130061,"SoundDuration":130061,"Delta":7033220},{"NoteNumber":51,"Velocity":75,"Duration":129751,"SoundDuration":129751,"Delta":7038010},{"NoteNumber":50,"Velocity":75,"Duration":128380,"SoundDuration":128380,"Delta":7145286},{"NoteNumber":65,"Velocity":76,"Duration":129100,"SoundDuration":129100,"Delta":7149840},{"NoteNumber":67,"Velocity":76,"Duration":126423,"SoundDuration":126423,"Delta":7253783},{"NoteNumber":51,"Velocity":75,"Duration":126618,"SoundDuration":126618,"Delta":7256789},{"NoteNumber":75,"Velocity":96,"Duration":147734,"SoundDuration":147734,"Delta":7380206},{"NoteNumber":48,"Velocity":88,"Duration":147493,"SoundDuration":147493,"Delta":7382334},{"NoteNumber":68,"Velocity":80,"Duration":132075,"SoundDuration":132075,"Delta":7510960},{"NoteNumber":60,"Velocity":75,"Duration":132075,"SoundDuration":132075,"Delta":7511903},{"NoteNumber":67,"Velocity":76,"Duration":133587,"SoundDuration":133587,"Delta":7625111},{"NoteNumber":58,"Velocity":75,"Duration":133587,"SoundDuration":133587,"Delta":7625111},{"NoteNumber":60,"Velocity":75,"Duration":141196,"SoundDuration":141196,"Delta":7737444},{"NoteNumber":68,"Velocity":76,"Duration":141148,"SoundDuration":141148,"Delta":7739468},{"NoteNumber":63,"Velocity":80,"Duration":137199,"SoundDuration":137199,"Delta":7859865},{"NoteNumber":56,"Velocity":80,"Duration":137199,"SoundDuration":137199,"Delta":7859865},{"NoteNumber":60,"Velocity":75,"Duration":131189,"SoundDuration":131189,"Delta":7974490},{"NoteNumber":68,"Velocity":75,"Duration":131086,"SoundDuration":131086,"Delta":7976466},{"NoteNumber":67,"Velocity":75,"Duration":132604,"SoundDuration":132604,"Delta":8087889},{"NoteNumber":58,"Velocity":75,"Duration":132844,"SoundDuration":132844,"Delta":8090698},{"NoteNumber":68,"Velocity":76,"Duration":121426,"SoundDuration":121426,"Delta":8203218},{"NoteNumber":60,"Velocity":74,"Duration":121426,"SoundDuration":121426,"Delta":8203218},{"NoteNumber":75,"Velocity":96,"Duration":138389,"SoundDuration":138389,"Delta":8322652},{"NoteNumber":48,"Velocity":88,"Duration":138284,"SoundDuration":138284,"Delta":8324644},{"NoteNumber":60,"Velocity":76,"Duration":132180,"SoundDuration":132180,"Delta":8440182},{"NoteNumber":68,"Velocity":80,"Duration":132075,"SoundDuration":132075,"Delta":8442174},{"NoteNumber":67,"Velocity":75,"Duration":133015,"SoundDuration":133015,"Delta":8558212},{"NoteNumber":58,"Velocity":76,"Duration":133015,"SoundDuration":133015,"Delta":8558212},{"NoteNumber":60,"Velocity":76,"Duration":137876,"SoundDuration":137876,"Delta":8669574},{"NoteNumber":68,"Velocity":75,"Duration":137880,"SoundDuration":137880,"Delta":8670558},{"NoteNumber":63,"Velocity":80,"Duration":137274,"SoundDuration":137274,"Delta":8784731},{"NoteNumber":56,"Velocity":80,"Duration":137046,"SoundDuration":137046,"Delta":8788676},{"NoteNumber":60,"Velocity":75,"Duration":130229,"SoundDuration":130229,"Delta":8903300},{"NoteNumber":68,"Velocity":75,"Duration":130111,"SoundDuration":130111,"Delta":8906206},{"NoteNumber":67,"Velocity":76,"Duration":131767,"SoundDuration":131767,"Delta":9016801},{"NoteNumber":58,"Velocity":75,"Duration":131849,"SoundDuration":131849,"Delta":9017730},{"NoteNumber":68,"Velocity":76,"Duration":121457,"SoundDuration":121457,"Delta":9130349},{"NoteNumber":60,"Velocity":75,"Duration":121457,"SoundDuration":121457,"Delta":9131361},{"NoteNumber":48,"Velocity":88,"Duration":145710,"SoundDuration":145710,"Delta":9247758},{"NoteNumber":74,"Velocity":96,"Duration":145441,"SoundDuration":145441,"Delta":9250795},{"NoteNumber":57,"Velocity":76,"Duration":129297,"SoundDuration":129297,"Delta":9375795},{"NoteNumber":66,"Velocity":80,"Duration":129151,"SoundDuration":129151,"Delta":9377786},{"NoteNumber":55,"Velocity":76,"Duration":130691,"SoundDuration":130691,"Delta":9485719},{"NoteNumber":64,"Velocity":76,"Duration":130862,"SoundDuration":130862,"Delta":9487564},{"NoteNumber":66,"Velocity":76,"Duration":140812,"SoundDuration":140812,"Delta":9596420},{"NoteNumber":57,"Velocity":76,"Duration":140943,"SoundDuration":140943,"Delta":9601289},{"NoteNumber":62,"Velocity":80,"Duration":138218,"SoundDuration":138218,"Delta":9718225},{"NoteNumber":54,"Velocity":80,"Duration":138021,"SoundDuration":138021,"Delta":9720233},{"NoteNumber":57,"Velocity":75,"Duration":126660,"SoundDuration":126660,"Delta":9838233},{"NoteNumber":66,"Velocity":76,"Duration":126552,"SoundDuration":126552,"Delta":9839233},{"NoteNumber":64,"Velocity":76,"Duration":126841,"SoundDuration":126841,"Delta":9949714},{"NoteNumber":55,"Velocity":75,"Duration":126925,"SoundDuration":126925,"Delta":9950607},{"NoteNumber":57,"Velocity":75,"Duration":117187,"SoundDuration":117187,"Delta":10055071},{"NoteNumber":66,"Velocity":76,"Duration":117210,"SoundDuration":117210,"Delta":10056048},{"NoteNumber":48,"Velocity":88,"Duration":134745,"SoundDuration":134745,"Delta":10174259},{"NoteNumber":74,"Velocity":96,"Duration":134664,"SoundDuration":134664,"Delta":10175259},{"NoteNumber":57,"Velocity":75,"Duration":128722,"SoundDuration":128722,"Delta":10287819},{"NoteNumber":66,"Velocity":80,"Duration":128676,"SoundDuration":128676,"Delta":10290622},{"NoteNumber":55,"Velocity":75,"Duration":129574,"SoundDuration":129574,"Delta":10397240},{"NoteNumber":64,"Velocity":75,"Duration":129673,"SoundDuration":129673,"Delta":10399078},{"NoteNumber":66,"Velocity":75,"Duration":135608,"SoundDuration":135608,"Delta":10508453},{"NoteNumber":57,"Velocity":75,"Duration":135608,"SoundDuration":135608,"Delta":10508453},{"NoteNumber":62,"Velocity":80,"Duration":134400,"SoundDuration":134400,"Delta":10626620},{"NoteNumber":54,"Velocity":80,"Duration":134400,"SoundDuration":134400,"Delta":10626620},{"NoteNumber":66,"Velocity":76,"Duration":127272,"SoundDuration":127272,"Delta":10741930},{"NoteNumber":57,"Velocity":74,"Duration":127272,"SoundDuration":127272,"Delta":10744657},{"NoteNumber":64,"Velocity":77,"Duration":128909,"SoundDuration":128909,"Delta":10849203},{"NoteNumber":55,"Velocity":74,"Duration":128909,"SoundDuration":128909,"Delta":10849203},{"NoteNumber":66,"Velocity":77,"Duration":120092,"SoundDuration":120092,"Delta":10962112},{"NoteNumber":57,"Velocity":74,"Duration":120138,"SoundDuration":120138,"Delta":10963112},{"NoteNumber":46,"Velocity":88,"Duration":143837,"SoundDuration":143837,"Delta":11080112},{"NoteNumber":74,"Velocity":96,"Duration":143707,"SoundDuration":143707,"Delta":11081158},{"NoteNumber":67,"Velocity":80,"Duration":128465,"SoundDuration":128465,"Delta":11203543},{"NoteNumber":58,"Velocity":75,"Duration":128465,"SoundDuration":128465,"Delta":11203543},{"NoteNumber":57,"Velocity":75,"Duration":130146,"SoundDuration":130146,"Delta":11317356},{"NoteNumber":66,"Velocity":75,"Duration":130235,"SoundDuration":130235,"Delta":11318272},{"NoteNumber":67,"Velocity":75,"Duration":139688,"SoundDuration":139688,"Delta":11423583},{"NoteNumber":58,"Velocity":75,"Duration":139737,"SoundDuration":139737,"Delta":11424499},{"NoteNumber":62,"Velocity":80,"Duration":134073,"SoundDuration":134073,"Delta":11548793},{"NoteNumber":55,"Velocity":80,"Duration":134073,"SoundDuration":134073,"Delta":11548793},{"NoteNumber":67,"Velocity":75,"Duration":128676,"SoundDuration":128676,"Delta":11663565},{"NoteNumber":58,"Velocity":74,"Duration":128676,"SoundDuration":128676,"Delta":11663565},{"NoteNumber":66,"Velocity":75,"Duration":129913,"SoundDuration":129913,"Delta":11771102},{"NoteNumber":57,"Velocity":74,"Duration":130174,"SoundDuration":130174,"Delta":11774778},{"NoteNumber":58,"Velocity":74,"Duration":118045,"SoundDuration":118045,"Delta":11881396},{"NoteNumber":67,"Velocity":75,"Duration":118110,"SoundDuration":118110,"Delta":11882315},{"NoteNumber":74,"Velocity":96,"Duration":135700,"SoundDuration":135700,"Delta":11998457},{"NoteNumber":46,"Velocity":88,"Duration":135569,"SoundDuration":135569,"Delta":12000425},{"NoteNumber":58,"Velocity":74,"Duration":128791,"SoundDuration":128791,"Delta":12115660},{"NoteNumber":67,"Velocity":80,"Duration":128676,"SoundDuration":128676,"Delta":12120370},{"NoteNumber":66,"Velocity":76,"Duration":129773,"SoundDuration":129773,"Delta":12229745},{"NoteNumber":57,"Velocity":74,"Duration":129773,"SoundDuration":129773,"Delta":12229745},{"NoteNumber":67,"Velocity":77,"Duration":135559,"SoundDuration":135559,"Delta":12336362},{"NoteNumber":58,"Velocity":74,"Duration":135559,"SoundDuration":135559,"Delta":12336362},{"NoteNumber":55,"Velocity":80,"Duration":134136,"SoundDuration":134136,"Delta":12454480},{"NoteNumber":62,"Velocity":80,"Duration":133907,"SoundDuration":133907,"Delta":12457387},{"NoteNumber":58,"Velocity":74,"Duration":125076,"SoundDuration":125076,"Delta":12569790},{"NoteNumber":67,"Velocity":75,"Duration":124999,"SoundDuration":124999,"Delta":12572544},{"NoteNumber":66,"Velocity":75,"Duration":127419,"SoundDuration":127419,"Delta":12678794},{"NoteNumber":57,"Velocity":74,"Duration":127649,"SoundDuration":127649,"Delta":12680580},{"NoteNumber":58,"Velocity":74,"Duration":120737,"SoundDuration":120737,"Delta":12783258},{"NoteNumber":67,"Velocity":74,"Duration":120852,"SoundDuration":120852,"Delta":12784151},{"NoteNumber":72,"Velocity":96,"Duration":137972,"SoundDuration":137972,"Delta":12905004},{"NoteNumber":46,"Velocity":88,"Duration":137972,"SoundDuration":137972,"Delta":12905004},{"NoteNumber":55,"Velocity":75,"Duration":125107,"SoundDuration":125107,"Delta":13025012},{"NoteNumber":64,"Velocity":80,"Duration":124999,"SoundDuration":124999,"Delta":13027798},{"NoteNumber":53,"Velocity":75,"Duration":126446,"SoundDuration":126446,"Delta":13132262},{"NoteNumber":62,"Velocity":76,"Duration":126522,"SoundDuration":126522,"Delta":13133155},{"NoteNumber":64,"Velocity":76,"Duration":135711,"SoundDuration":135711,"Delta":13238512},{"NoteNumber":55,"Velocity":75,"Duration":135711,"SoundDuration":135711,"Delta":13238512},{"NoteNumber":60,"Velocity":80,"Duration":136111,"SoundDuration":136111,"Delta":13357557},{"NoteNumber":52,"Velocity":80,"Duration":136111,"SoundDuration":136111,"Delta":13357557},{"NoteNumber":64,"Velocity":76,"Duration":129629,"SoundDuration":129629,"Delta":13476075},{"NoteNumber":55,"Velocity":74,"Duration":129629,"SoundDuration":129629,"Delta":13477001},{"NoteNumber":62,"Velocity":76,"Duration":130642,"SoundDuration":130642,"Delta":13585334},{"NoteNumber":53,"Velocity":74,"Duration":130794,"SoundDuration":130794,"Delta":13588112},{"NoteNumber":64,"Velocity":75,"Duration":117136,"SoundDuration":117136,"Delta":13695519},{"NoteNumber":55,"Velocity":74,"Duration":117136,"SoundDuration":117136,"Delta":13695519},{"NoteNumber":72,"Velocity":96,"Duration":133583,"SoundDuration":133583,"Delta":13814594},{"NoteNumber":46,"Velocity":88,"Duration":133534,"SoundDuration":133534,"Delta":13815556},{"NoteNumber":55,"Velocity":73,"Duration":127737,"SoundDuration":127737,"Delta":13929930},{"NoteNumber":64,"Velocity":80,"Duration":127737,"SoundDuration":127737,"Delta":13930842},{"NoteNumber":53,"Velocity":73,"Duration":128925,"SoundDuration":128925,"Delta":14039419},{"NoteNumber":62,"Velocity":76,"Duration":128982,"SoundDuration":128982,"Delta":14040331},{"NoteNumber":64,"Velocity":76,"Duration":135576,"SoundDuration":135576,"Delta":14149933},{"NoteNumber":55,"Velocity":73,"Duration":135572,"SoundDuration":135572,"Delta":14150902},{"NoteNumber":60,"Velocity":80,"Duration":134145,"SoundDuration":134145,"Delta":14264274},{"NoteNumber":52,"Velocity":80,"Duration":134145,"SoundDuration":134145,"Delta":14264274},{"NoteNumber":64,"Velocity":75,"Duration":128303,"SoundDuration":128303,"Delta":14378174},{"NoteNumber":55,"Velocity":73,"Duration":128204,"SoundDuration":128204,"Delta":14382852},{"NoteNumber":62,"Velocity":75,"Duration":129970,"SoundDuration":129970,"Delta":14489994},{"NoteNumber":53,"Velocity":73,"Duration":130058,"SoundDuration":130058,"Delta":14490910},{"NoteNumber":55,"Velocity":73,"Duration":120305,"SoundDuration":120305,"Delta":14598053},{"NoteNumber":64,"Velocity":75,"Duration":120702,"SoundDuration":120702,"Delta":14602896},{"NoteNumber":72,"Velocity":96,"Duration":147923,"SoundDuration":147923,"Delta":14718358},{"NoteNumber":44,"Velocity":88,"Duration":147605,"SoundDuration":147605,"Delta":14721444},{"NoteNumber":65,"Velocity":80,"Duration":129151,"SoundDuration":129151,"Delta":14850599},{"NoteNumber":56,"Velocity":73,"Duration":129151,"SoundDuration":129151,"Delta":14850599},{"NoteNumber":55,"Velocity":73,"Duration":130080,"SoundDuration":130080,"Delta":14960378},{"NoteNumber":64,"Velocity":76,"Duration":130127,"SoundDuration":130127,"Delta":14961300},{"NoteNumber":65,"Velocity":76,"Duration":135658,"SoundDuration":135658,"Delta":15071079},{"NoteNumber":56,"Velocity":73,"Duration":135658,"SoundDuration":135658,"Delta":15073986},{"NoteNumber":60,"Velocity":80,"Duration":134761,"SoundDuration":134761,"Delta":15185420},{"NoteNumber":53,"Velocity":80,"Duration":134611,"SoundDuration":134611,"Delta":15188327},{"NoteNumber":56,"Velocity":73,"Duration":128676,"SoundDuration":128676,"Delta":15304556},{"NoteNumber":65,"Velocity":74,"Duration":128676,"SoundDuration":128676,"Delta":15306394},{"NoteNumber":55,"Velocity":73,"Duration":130459,"SoundDuration":130459,"Delta":15414850},{"NoteNumber":64,"Velocity":74,"Duration":130629,"SoundDuration":130629,"Delta":15416688},{"NoteNumber":56,"Velocity":74,"Duration":120397,"SoundDuration":120397,"Delta":15523306},{"NoteNumber":65,"Velocity":74,"Duration":120482,"SoundDuration":120482,"Delta":15525229},{"NoteNumber":72,"Velocity":96,"Duration":139000,"SoundDuration":139000,"Delta":15644707},{"NoteNumber":44,"Velocity":88,"Duration":139000,"SoundDuration":139000,"Delta":15644707},{"NoteNumber":65,"Velocity":80,"Duration":129629,"SoundDuration":129629,"Delta":15765189},{"NoteNumber":56,"Velocity":75,"Duration":129629,"SoundDuration":129629,"Delta":15765189},{"NoteNumber":55,"Velocity":76,"Duration":130540,"SoundDuration":130540,"Delta":15874448},{"NoteNumber":64,"Velocity":75,"Duration":130642,"SoundDuration":130642,"Delta":15876300},{"NoteNumber":56,"Velocity":74,"Duration":136718,"SoundDuration":136718,"Delta":15989364},{"NoteNumber":65,"Velocity":75,"Duration":136718,"SoundDuration":136718,"Delta":15990340},{"NoteNumber":60,"Velocity":80,"Duration":135312,"SoundDuration":135312,"Delta":16103622},{"NoteNumber":53,"Velocity":80,"Duration":135312,"SoundDuration":135312,"Delta":16103622},{"NoteNumber":56,"Velocity":74,"Duration":126501,"SoundDuration":126501,"Delta":16219833},{"NoteNumber":65,"Velocity":75,"Duration":126353,"SoundDuration":126353,"Delta":16221786},{"NoteNumber":64,"Velocity":75,"Duration":128753,"SoundDuration":128753,"Delta":16329186},{"NoteNumber":55,"Velocity":74,"Duration":128879,"SoundDuration":128879,"Delta":16330089},{"NoteNumber":56,"Velocity":74,"Duration":123505,"SoundDuration":123505,"Delta":16439421},{"NoteNumber":65,"Velocity":75,"Duration":123603,"SoundDuration":123603,"Delta":16441479},{"NoteNumber":44,"Velocity":88,"Duration":147911,"SoundDuration":147911,"Delta":16559791},{"NoteNumber":70,"Velocity":96,"Duration":147802,"SoundDuration":147802,"Delta":16560820},{"NoteNumber":50,"Velocity":75,"Duration":128834,"SoundDuration":128834,"Delta":16690082},{"NoteNumber":65,"Velocity":80,"Duration":128676,"SoundDuration":128676,"Delta":16692997},{"NoteNumber":48,"Velocity":75,"Duration":129574,"SoundDuration":129574,"Delta":16799615},{"NoteNumber":63,"Velocity":76,"Duration":129723,"SoundDuration":129723,"Delta":16802372},{"NoteNumber":65,"Velocity":76,"Duration":135467,"SoundDuration":135467,"Delta":16910828},{"NoteNumber":50,"Velocity":75,"Duration":135502,"SoundDuration":135502,"Delta":16912716},{"NoteNumber":53,"Velocity":79,"Duration":134111,"SoundDuration":134111,"Delta":17028026},{"NoteNumber":62,"Velocity":79,"Duration":134060,"SoundDuration":134060,"Delta":17029949},{"NoteNumber":50,"Velocity":74,"Duration":131086,"SoundDuration":131086,"Delta":17144347},{"NoteNumber":65,"Velocity":75,"Duration":131086,"SoundDuration":131086,"Delta":17146220},{"NoteNumber":63,"Velocity":74,"Duration":131814,"SoundDuration":131814,"Delta":17255770},{"NoteNumber":48,"Velocity":74,"Duration":131887,"SoundDuration":131887,"Delta":17257643},{"NoteNumber":50,"Velocity":74,"Duration":116731,"SoundDuration":116731,"Delta":17368130},{"NoteNumber":65,"Velocity":74,"Duration":116731,"SoundDuration":116731,"Delta":17369102},{"NoteNumber":44,"Velocity":86,"Duration":135462,"SoundDuration":135462,"Delta":17486807},{"NoteNumber":70,"Velocity":94,"Duration":135429,"SoundDuration":135429,"Delta":17487779},{"NoteNumber":65,"Velocity":78,"Duration":131644,"SoundDuration":131644,"Delta":17599647},{"NoteNumber":50,"Velocity":73,"Duration":131578,"SoundDuration":131578,"Delta":17601593},{"NoteNumber":63,"Velocity":74,"Duration":132163,"SoundDuration":132163,"Delta":17717194},{"NoteNumber":48,"Velocity":72,"Duration":132163,"SoundDuration":132163,"Delta":17717194},{"NoteNumber":65,"Velocity":74,"Duration":135057,"SoundDuration":135057,"Delta":17828122},{"NoteNumber":50,"Velocity":77,"Duration":135057,"SoundDuration":135057,"Delta":17828122},{"NoteNumber":62,"Velocity":77,"Duration":134106,"SoundDuration":134106,"Delta":17941056},{"NoteNumber":53,"Velocity":77,"Duration":134073,"SoundDuration":134073,"Delta":17942021},{"NoteNumber":65,"Velocity":76,"Duration":130596,"SoundDuration":130596,"Delta":18059304},{"NoteNumber":50,"Velocity":72,"Duration":130596,"SoundDuration":130596,"Delta":18061170},{"NoteNumber":63,"Velocity":73,"Duration":131283,"SoundDuration":131283,"Delta":18169379},{"NoteNumber":48,"Velocity":72,"Duration":131428,"SoundDuration":131428,"Delta":18173110},{"NoteNumber":50,"Velocity":72,"Duration":116278,"SoundDuration":116278,"Delta":18282252},{"NoteNumber":65,"Velocity":72,"Duration":116536,"SoundDuration":116536,"Delta":18285159},{"NoteNumber":70,"Velocity":91,"Duration":145044,"SoundDuration":145044,"Delta":18399586},{"NoteNumber":43,"Velocity":83,"Duration":144793,"SoundDuration":144793,"Delta":18401695},{"NoteNumber":51,"Velocity":72,"Duration":130237,"SoundDuration":130237,"Delta":18524058},{"NoteNumber":67,"Velocity":76,"Duration":130111,"SoundDuration":130111,"Delta":18526042},{"NoteNumber":65,"Velocity":72,"Duration":131008,"SoundDuration":131008,"Delta":18635708},{"NoteNumber":50,"Velocity":72,"Duration":131197,"SoundDuration":131197,"Delta":18639425},{"NoteNumber":51,"Velocity":72,"Duration":136799,"SoundDuration":136799,"Delta":18749138},{"NoteNumber":67,"Velocity":72,"Duration":136806,"SoundDuration":136806,"Delta":18751091},{"NoteNumber":63,"Velocity":75,"Duration":136328,"SoundDuration":136328,"Delta":18863396},{"NoteNumber":55,"Velocity":75,"Duration":136234,"SoundDuration":136234,"Delta":18865349},{"NoteNumber":67,"Velocity":72,"Duration":130213,"SoundDuration":130213,"Delta":18981035},{"NoteNumber":51,"Velocity":70,"Duration":130111,"SoundDuration":130111,"Delta":18983925},{"NoteNumber":65,"Velocity":72,"Duration":131149,"SoundDuration":131149,"Delta":19096379},{"NoteNumber":50,"Velocity":70,"Duration":131149,"SoundDuration":131149,"Delta":19096379},{"NoteNumber":51,"Velocity":70,"Duration":117093,"SoundDuration":117093,"Delta":19204186},{"NoteNumber":67,"Velocity":71,"Duration":117140,"SoundDuration":117140,"Delta":19205115},{"NoteNumber":43,"Velocity":81,"Duration":136718,"SoundDuration":136718,"Delta":19322255},{"NoteNumber":70,"Velocity":89,"Duration":136608,"SoundDuration":136608,"Delta":19326162},{"NoteNumber":67,"Velocity":74,"Duration":132349,"SoundDuration":132349,"Delta":19439443},{"NoteNumber":51,"Velocity":69,"Duration":132349,"SoundDuration":132349,"Delta":19439443},{"NoteNumber":65,"Velocity":69,"Duration":132313,"SoundDuration":132313,"Delta":19553936},{"NoteNumber":50,"Velocity":69,"Duration":132313,"SoundDuration":132313,"Delta":19553936},{"NoteNumber":67,"Velocity":69,"Duration":136374,"SoundDuration":136374,"Delta":19664838},{"NoteNumber":51,"Velocity":69,"Duration":136373,"SoundDuration":136373,"Delta":19669647},{"NoteNumber":63,"Velocity":73,"Duration":134138,"SoundDuration":134138,"Delta":19785828},{"NoteNumber":55,"Velocity":73,"Duration":134138,"SoundDuration":134138,"Delta":19785828},{"NoteNumber":51,"Velocity":67,"Duration":131578,"SoundDuration":131578,"Delta":19901169},{"NoteNumber":67,"Velocity":68,"Duration":131578,"SoundDuration":131578,"Delta":19902109},{"NoteNumber":65,"Velocity":68,"Duration":132990,"SoundDuration":132990,"Delta":20013951},{"NoteNumber":50,"Velocity":66,"Duration":133054,"SoundDuration":133054,"Delta":20014891},{"NoteNumber":51,"Velocity":66,"Duration":120481,"SoundDuration":120481,"Delta":20124854},{"NoteNumber":67,"Velocity":68,"Duration":120555,"SoundDuration":120555,"Delta":20125858},{"NoteNumber":48,"Velocity":79,"Duration":147897,"SoundDuration":147897,"Delta":20245336},{"NoteNumber":68,"Velocity":86,"Duration":147601,"SoundDuration":147601,"Delta":20247491},{"NoteNumber":67,"Velocity":72,"Duration":130259,"SoundDuration":130259,"Delta":20373568},{"NoteNumber":51,"Velocity":69,"Duration":130111,"SoundDuration":130111,"Delta":20377434},{"NoteNumber":65,"Velocity":68,"Duration":131030,"SoundDuration":131030,"Delta":20484311},{"NoteNumber":50,"Velocity":69,"Duration":131081,"SoundDuration":131081,"Delta":20485241},{"NoteNumber":67,"Velocity":68,"Duration":137152,"SoundDuration":137152,"Delta":20595836},{"NoteNumber":51,"Velocity":65,"Duration":137254,"SoundDuration":137254,"Delta":20597694},{"NoteNumber":63,"Velocity":71,"Duration":136525,"SoundDuration":136525,"Delta":20713381},{"NoteNumber":56,"Velocity":71,"Duration":136403,"SoundDuration":136403,"Delta":20716322},{"NoteNumber":51,"Velocity":65,"Duration":131578,"SoundDuration":131578,"Delta":20832988},{"NoteNumber":67,"Velocity":67,"Duration":131578,"SoundDuration":131578,"Delta":20834868},{"NoteNumber":50,"Velocity":63,"Duration":132470,"SoundDuration":132470,"Delta":20947650},{"NoteNumber":65,"Velocity":67,"Duration":132511,"SoundDuration":132511,"Delta":20948590},{"NoteNumber":67,"Velocity":66,"Duration":117606,"SoundDuration":117606,"Delta":21057613},{"NoteNumber":51,"Velocity":63,"Duration":117654,"SoundDuration":117654,"Delta":21060513},{"NoteNumber":68,"Velocity":84,"Duration":137181,"SoundDuration":137181,"Delta":21174239},{"NoteNumber":48,"Velocity":77,"Duration":137054,"SoundDuration":137054,"Delta":21178168},{"NoteNumber":67,"Velocity":70,"Duration":133079,"SoundDuration":133079,"Delta":21295260},{"NoteNumber":51,"Velocity":64,"Duration":133079,"SoundDuration":133079,"Delta":21296211},{"NoteNumber":65,"Velocity":65,"Duration":133547,"SoundDuration":133547,"Delta":21406477},{"NoteNumber":50,"Velocity":64,"Duration":133547,"SoundDuration":133547,"Delta":21406477},{"NoteNumber":67,"Velocity":65,"Duration":136396,"SoundDuration":136396,"Delta":21520546},{"NoteNumber":51,"Velocity":64,"Duration":136407,"SoundDuration":136407,"Delta":21521496},{"NoteNumber":56,"Velocity":69,"Duration":133447,"SoundDuration":133447,"Delta":21638658},{"NoteNumber":63,"Velocity":69,"Duration":133370,"SoundDuration":133370,"Delta":21639634},{"NoteNumber":67,"Velocity":63,"Duration":125899,"SoundDuration":125899,"Delta":21756817},{"NoteNumber":51,"Velocity":61,"Duration":125899,"SoundDuration":125899,"Delta":21756817},{"NoteNumber":65,"Velocity":63,"Duration":128748,"SoundDuration":128748,"Delta":21864731},{"NoteNumber":50,"Velocity":61,"Duration":128878,"SoundDuration":128878,"Delta":21865630},{"NoteNumber":51,"Velocity":61,"Duration":123288,"SoundDuration":123288,"Delta":21970846},{"NoteNumber":67,"Velocity":63,"Duration":123323,"SoundDuration":123323,"Delta":21971875},{"NoteNumber":68,"Velocity":81,"Duration":146063,"SoundDuration":146063,"Delta":22092094},{"NoteNumber":50,"Velocity":74,"Duration":145686,"SoundDuration":145686,"Delta":22095199},{"NoteNumber":53,"Velocity":59,"Duration":127582,"SoundDuration":127582,"Delta":22219667},{"NoteNumber":62,"Velocity":68,"Duration":127272,"SoundDuration":127272,"Delta":22221794},{"NoteNumber":60,"Velocity":64,"Duration":128482,"SoundDuration":128482,"Delta":22329976},{"NoteNumber":51,"Velocity":60,"Duration":128737,"SoundDuration":128737,"Delta":22333613},{"NoteNumber":53,"Velocity":59,"Duration":136051,"SoundDuration":136051,"Delta":22439067},{"NoteNumber":62,"Velocity":64,"Duration":136103,"SoundDuration":136103,"Delta":22441922},{"NoteNumber":58,"Velocity":67,"Duration":134651,"SoundDuration":134651,"Delta":22555735},{"NoteNumber":56,"Velocity":66,"Duration":134540,"SoundDuration":134540,"Delta":22557677},{"NoteNumber":62,"Velocity":61,"Duration":128205,"SoundDuration":128205,"Delta":22672987},{"NoteNumber":53,"Velocity":59,"Duration":128204,"SoundDuration":128204,"Delta":22673903},{"NoteNumber":60,"Velocity":61,"Duration":129216,"SoundDuration":129216,"Delta":22781961},{"NoteNumber":51,"Velocity":59,"Duration":129269,"SoundDuration":129269,"Delta":22782877},{"NoteNumber":62,"Velocity":61,"Duration":116290,"SoundDuration":116290,"Delta":22893736},{"NoteNumber":53,"Velocity":59,"Duration":116301,"SoundDuration":116301,"Delta":22894705},{"NoteNumber":50,"Velocity":73,"Duration":136438,"SoundDuration":136438,"Delta":23007108},{"NoteNumber":68,"Velocity":79,"Duration":136329,"SoundDuration":136329,"Delta":23010026},{"NoteNumber":53,"Velocity":56,"Duration":131174,"SoundDuration":131174,"Delta":23124732},{"NoteNumber":62,"Velocity":60,"Duration":131086,"SoundDuration":131086,"Delta":23127629},{"NoteNumber":60,"Velocity":57,"Duration":131741,"SoundDuration":131741,"Delta":23237180},{"NoteNumber":51,"Velocity":55,"Duration":131741,"SoundDuration":131741,"Delta":23237180},{"NoteNumber":53,"Velocity":55,"Duration":136182,"SoundDuration":136182,"Delta":23349539},{"NoteNumber":62,"Velocity":57,"Duration":136266,"SoundDuration":136266,"Delta":23352385},{"NoteNumber":56,"Velocity":61,"Duration":135637,"SoundDuration":135637,"Delta":23468143},{"NoteNumber":58,"Velocity":60,"Duration":135475,"SoundDuration":135475,"Delta":23471073},{"NoteNumber":53,"Velocity":56,"Duration":129205,"SoundDuration":129205,"Delta":23584354},{"NoteNumber":62,"Velocity":54,"Duration":129151,"SoundDuration":129151,"Delta":23587176},{"NoteNumber":51,"Velocity":56,"Duration":131489,"SoundDuration":131489,"Delta":23697877},{"NoteNumber":60,"Velocity":54,"Duration":131596,"SoundDuration":131596,"Delta":23698799},{"NoteNumber":53,"Velocity":56,"Duration":123244,"SoundDuration":123244,"Delta":23804888},{"NoteNumber":62,"Velocity":55,"Duration":123350,"SoundDuration":123350,"Delta":23805810},{"NoteNumber":67,"Velocity":76,"Duration":147205,"SoundDuration":147205,"Delta":23930190},{"NoteNumber":51,"Velocity":70,"Duration":147205,"SoundDuration":147205,"Delta":23930190},{"NoteNumber":55,"Velocity":53,"Duration":129452,"SoundDuration":129452,"Delta":24056799},{"NoteNumber":58,"Velocity":58,"Duration":129301,"SoundDuration":129301,"Delta":24057872},{"NoteNumber":53,"Velocity":53,"Duration":131033,"SoundDuration":131033,"Delta":24171491},{"NoteNumber":56,"Velocity":54,"Duration":131118,"SoundDuration":131118,"Delta":24172413},{"NoteNumber":58,"Velocity":54,"Duration":140575,"SoundDuration":140575,"Delta":24280347},{"NoteNumber":55,"Velocity":53,"Duration":140520,"SoundDuration":140520,"Delta":24282363},{"NoteNumber":56,"Velocity":57,"Duration":136118,"SoundDuration":136118,"Delta":24400307},{"NoteNumber":63,"Velocity":64,"Duration":135845,"SoundDuration":135845,"Delta":24404256},{"NoteNumber":58,"Velocity":54,"Duration":128798,"SoundDuration":128798,"Delta":24517001},{"NoteNumber":55,"Velocity":53,"Duration":128676,"SoundDuration":128676,"Delta":24520800},{"NoteNumber":56,"Velocity":54,"Duration":130208,"SoundDuration":130208,"Delta":24630175},{"NoteNumber":53,"Velocity":53,"Duration":130208,"SoundDuration":130208,"Delta":24630175},{"NoteNumber":58,"Velocity":54,"Duration":118901,"SoundDuration":118901,"Delta":24737711},{"NoteNumber":55,"Velocity":53,"Duration":119043,"SoundDuration":119043,"Delta":24740542},{"NoteNumber":67,"Velocity":76,"Duration":136758,"SoundDuration":136758,"Delta":24858597},{"NoteNumber":51,"Velocity":70,"Duration":136679,"SoundDuration":136679,"Delta":24859585},{"NoteNumber":55,"Velocity":53,"Duration":127430,"SoundDuration":127430,"Delta":24975198},{"NoteNumber":58,"Velocity":57,"Duration":127272,"SoundDuration":127272,"Delta":24979901},{"NoteNumber":56,"Velocity":53,"Duration":128556,"SoundDuration":128556,"Delta":25084447},{"NoteNumber":53,"Velocity":53,"Duration":128770,"SoundDuration":128770,"Delta":25087174},{"NoteNumber":55,"Velocity":53,"Duration":137322,"SoundDuration":137322,"Delta":25193538},{"NoteNumber":58,"Velocity":53,"Duration":137523,"SoundDuration":137523,"Delta":25198297},{"NoteNumber":63,"Velocity":57,"Duration":137300,"SoundDuration":137300,"Delta":25312023},{"NoteNumber":56,"Velocity":56,"Duration":136980,"SoundDuration":136980,"Delta":25315979},{"NoteNumber":58,"Velocity":53,"Duration":127355,"SoundDuration":127355,"Delta":25431059},{"NoteNumber":55,"Velocity":52,"Duration":127272,"SoundDuration":127272,"Delta":25432051},{"NoteNumber":56,"Velocity":53,"Duration":129450,"SoundDuration":129450,"Delta":25542960},{"NoteNumber":53,"Velocity":52,"Duration":129549,"SoundDuration":129549,"Delta":25543869},{"NoteNumber":58,"Velocity":53,"Duration":120967,"SoundDuration":120967,"Delta":25650233},{"NoteNumber":55,"Velocity":52,"Duration":121116,"SoundDuration":121116,"Delta":25652249},{"NoteNumber":65,"Velocity":76,"Duration":147782,"SoundDuration":147782,"Delta":25770192},{"NoteNumber":51,"Velocity":70,"Duration":147471,"SoundDuration":147471,"Delta":25772283},{"NoteNumber":60,"Velocity":58,"Duration":124555,"SoundDuration":124555,"Delta":25901960},{"NoteNumber":57,"Velocity":52,"Duration":124555,"SoundDuration":124555,"Delta":25902850},{"NoteNumber":58,"Velocity":53,"Duration":126299,"SoundDuration":126299,"Delta":26008722},{"NoteNumber":55,"Velocity":52,"Duration":126382,"SoundDuration":126382,"Delta":26009612},{"NoteNumber":60,"Velocity":53,"Duration":136036,"SoundDuration":136036,"Delta":26114594},{"NoteNumber":57,"Velocity":52,"Duration":114785,"SoundDuration":114785,"Delta":26114594},{"NoteNumber":57,"Velocity":58,"Duration":134626,"SoundDuration":134626,"Delta":26231325},{"NoteNumber":53,"Velocity":55,"Duration":134626,"SoundDuration":134626,"Delta":26231325},{"NoteNumber":57,"Velocity":52,"Duration":131629,"SoundDuration":131629,"Delta":26345225},{"NoteNumber":60,"Velocity":53,"Duration":131578,"SoundDuration":131578,"Delta":26348095},{"NoteNumber":58,"Velocity":53,"Duration":132349,"SoundDuration":132349,"Delta":26460877},{"NoteNumber":55,"Velocity":52,"Duration":132386,"SoundDuration":132386,"Delta":26461817},{"NoteNumber":57,"Velocity":52,"Duration":117150,"SoundDuration":117150,"Delta":26571779},{"NoteNumber":60,"Velocity":53,"Duration":117187,"SoundDuration":117187,"Delta":26575649},{"NoteNumber":51,"Velocity":70,"Duration":135869,"SoundDuration":135869,"Delta":26687954},{"NoteNumber":65,"Velocity":76,"Duration":135680,"SoundDuration":135680,"Delta":26691860},{"NoteNumber":57,"Velocity":51,"Duration":130158,"SoundDuration":130158,"Delta":26806118},{"NoteNumber":60,"Velocity":59,"Duration":130111,"SoundDuration":130111,"Delta":26808024},{"NoteNumber":58,"Velocity":54,"Duration":130901,"SoundDuration":130901,"Delta":26920477},{"NoteNumber":55,"Velocity":51,"Duration":130901,"SoundDuration":130901,"Delta":26920477},{"NoteNumber":57,"Velocity":51,"Duration":113863,"SoundDuration":113863,"Delta":27029213},{"NoteNumber":60,"Velocity":54,"Duration":135134,"SoundDuration":135134,"Delta":27031108},{"NoteNumber":53,"Velocity":56,"Duration":134519,"SoundDuration":134519,"Delta":27145007},{"NoteNumber":57,"Velocity":59,"Duration":134486,"SoundDuration":134486,"Delta":27145973},{"NoteNumber":60,"Velocity":54,"Duration":130629,"SoundDuration":130629,"Delta":27260837},{"NoteNumber":57,"Velocity":51,"Duration":130596,"SoundDuration":130596,"Delta":27261803},{"NoteNumber":55,"Velocity":51,"Duration":132555,"SoundDuration":132555,"Delta":27371877},{"NoteNumber":58,"Velocity":54,"Duration":132991,"SoundDuration":132991,"Delta":27375609},{"NoteNumber":57,"Velocity":51,"Duration":125000,"SoundDuration":125000,"Delta":27485683},{"NoteNumber":60,"Velocity":53,"Duration":125079,"SoundDuration":125079,"Delta":27486725},{"NoteNumber":50,"Velocity":70,"Duration":152638,"SoundDuration":152638,"Delta":27611804},{"NoteNumber":65,"Velocity":76,"Duration":152228,"SoundDuration":152228,"Delta":27614046},{"NoteNumber":62,"Velocity":60,"Duration":128410,"SoundDuration":128410,"Delta":27744091},{"NoteNumber":53,"Velocity":52,"Duration":128204,"SoundDuration":128204,"Delta":27746128},{"NoteNumber":60,"Velocity":55,"Duration":129288,"SoundDuration":129288,"Delta":27854187},{"NoteNumber":51,"Velocity":52,"Duration":129459,"SoundDuration":129459,"Delta":27856934},{"NoteNumber":53,"Velocity":52,"Duration":136111,"SoundDuration":136111,"Delta":27964992},{"NoteNumber":62,"Velocity":55,"Duration":136107,"SoundDuration":136107,"Delta":27965965},{"NoteNumber":56,"Velocity":58,"Duration":135005,"SoundDuration":135005,"Delta":28081724},{"NoteNumber":59,"Velocity":60,"Duration":134940,"SoundDuration":134940,"Delta":28083662},{"NoteNumber":62,"Velocity":55,"Duration":131086,"SoundDuration":131086,"Delta":28198939},{"NoteNumber":53,"Velocity":52,"Duration":131086,"SoundDuration":131086,"Delta":28200812},{"NoteNumber":60,"Velocity":55,"Duration":132935,"SoundDuration":132935,"Delta":28310362},{"NoteNumber":51,"Velocity":52,"Duration":133213,"SoundDuration":133213,"Delta":28313171},{"NoteNumber":62,"Velocity":55,"Duration":123456,"SoundDuration":123456,"Delta":28422722},{"NoteNumber":53,"Velocity":52,"Duration":123456,"SoundDuration":123456,"Delta":28423751},{"NoteNumber":65,"Velocity":76,"Duration":142181,"SoundDuration":142181,"Delta":28544121},{"NoteNumber":50,"Velocity":70,"Duration":141666,"SoundDuration":141666,"Delta":28549265},{"NoteNumber":53,"Velocity":54,"Duration":129835,"SoundDuration":129835,"Delta":28667578},{"NoteNumber":62,"Velocity":60,"Duration":129629,"SoundDuration":129629,"Delta":28671487},{"NoteNumber":60,"Velocity":56,"Duration":130533,"SoundDuration":130533,"Delta":28781672},{"NoteNumber":51,"Velocity":54,"Duration":130533,"SoundDuration":130533,"Delta":28781672},{"NoteNumber":62,"Velocity":56,"Duration":135580,"SoundDuration":135580,"Delta":28892826},{"NoteNumber":53,"Velocity":54,"Duration":135572,"SoundDuration":135572,"Delta":28894764},{"NoteNumber":56,"Velocity":60,"Duration":133815,"SoundDuration":133815,"Delta":29008136},{"NoteNumber":59,"Velocity":60,"Duration":133683,"SoundDuration":133683,"Delta":29010067},{"NoteNumber":53,"Velocity":53,"Duration":125965,"SoundDuration":125965,"Delta":29123001},{"NoteNumber":62,"Velocity":55,"Duration":125899,"SoundDuration":125899,"Delta":29125765},{"NoteNumber":60,"Velocity":55,"Duration":128307,"SoundDuration":128307,"Delta":29230082},{"NoteNumber":51,"Velocity":54,"Duration":128441,"SoundDuration":128441,"Delta":29230981},{"NoteNumber":53,"Velocity":54,"Duration":123699,"SoundDuration":123699,"Delta":29337995},{"NoteNumber":62,"Velocity":55,"Duration":124020,"SoundDuration":124020,"Delta":29340827},{"NoteNumber":48,"Velocity":70,"Duration":148720,"SoundDuration":148720,"Delta":29464848},{"NoteNumber":65,"Velocity":76,"Duration":148391,"SoundDuration":148391,"Delta":29467022},{"NoteNumber":53,"Velocity":52,"Duration":129151,"SoundDuration":129151,"Delta":29594196},{"NoteNumber":62,"Velocity":61,"Duration":129151,"SoundDuration":129151,"Delta":29596963},{"NoteNumber":52,"Velocity":52,"Duration":129987,"SoundDuration":129987,"Delta":29703052},{"NoteNumber":60,"Velocity":52,"Duration":130127,"SoundDuration":130127,"Delta":29705819},{"NoteNumber":53,"Velocity":52,"Duration":135565,"SoundDuration":135565,"Delta":29813753},{"NoteNumber":62,"Velocity":54,"Duration":135658,"SoundDuration":135658,"Delta":29817536},{"NoteNumber":59,"Velocity":61,"Duration":134945,"SoundDuration":134945,"Delta":29929939},{"NoteNumber":56,"Velocity":60,"Duration":134866,"SoundDuration":134866,"Delta":29931877},{"NoteNumber":62,"Velocity":55,"Duration":130111,"SoundDuration":130111,"Delta":30050014},{"NoteNumber":53,"Velocity":53,"Duration":130111,"SoundDuration":130111,"Delta":30050944},{"NoteNumber":60,"Velocity":55,"Duration":131463,"SoundDuration":131463,"Delta":30162468},{"NoteNumber":52,"Velocity":53,"Duration":131463,"SoundDuration":131463,"Delta":30162468},{"NoteNumber":62,"Velocity":55,"Duration":118518,"SoundDuration":118518,"Delta":30270275},{"NoteNumber":53,"Velocity":53,"Duration":118576,"SoundDuration":118576,"Delta":30271204},{"NoteNumber":65,"Velocity":76,"Duration":135947,"SoundDuration":135947,"Delta":30390758},{"NoteNumber":48,"Velocity":70,"Duration":135911,"SoundDuration":135911,"Delta":30391734},{"NoteNumber":62,"Velocity":61,"Duration":131615,"SoundDuration":131615,"Delta":30505992},{"NoteNumber":53,"Velocity":53,"Duration":131578,"SoundDuration":131578,"Delta":30507909},{"NoteNumber":60,"Velocity":55,"Duration":132422,"SoundDuration":132422,"Delta":30618811},{"NoteNumber":52,"Velocity":53,"Duration":132555,"SoundDuration":132555,"Delta":30621630},{"NoteNumber":62,"Velocity":55,"Duration":137637,"SoundDuration":137637,"Delta":30730653},{"NoteNumber":53,"Velocity":53,"Duration":137706,"SoundDuration":137706,"Delta":30735485},{"NoteNumber":56,"Velocity":60,"Duration":136403,"SoundDuration":136403,"Delta":30851623},{"NoteNumber":59,"Velocity":61,"Duration":136322,"SoundDuration":136322,"Delta":30853584},{"NoteNumber":53,"Velocity":53,"Duration":131578,"SoundDuration":131578,"Delta":30969230},{"NoteNumber":62,"Velocity":54,"Duration":131578,"SoundDuration":131578,"Delta":30971110},{"NoteNumber":52,"Velocity":53,"Duration":133029,"SoundDuration":133029,"Delta":31079192},{"NoteNumber":60,"Velocity":54,"Duration":133351,"SoundDuration":133351,"Delta":31082952},{"NoteNumber":62,"Velocity":54,"Duration":122287,"SoundDuration":122287,"Delta":31191974},{"NoteNumber":53,"Velocity":53,"Duration":122572,"SoundDuration":122572,"Delta":31195895},{"NoteNumber":63,"Velocity":76,"Duration":148289,"SoundDuration":148289,"Delta":31315283},{"NoteNumber":48,"Velocity":70,"Duration":148185,"SoundDuration":148185,"Delta":31316303},{"NoteNumber":60,"Velocity":61,"Duration":128538,"SoundDuration":128538,"Delta":31444009},{"NoteNumber":51,"Velocity":54,"Duration":128204,"SoundDuration":128204,"Delta":31447089},{"NoteNumber":59,"Velocity":61,"Duration":129029,"SoundDuration":129029,"Delta":31554232},{"NoteNumber":50,"Velocity":54,"Duration":129166,"SoundDuration":129166,"Delta":31556979},{"NoteNumber":60,"Velocity":55,"Duration":135092,"SoundDuration":135092,"Delta":31666915},{"NoteNumber":51,"Velocity":54,"Duration":135092,"SoundDuration":135092,"Delta":31666915},{"NoteNumber":55,"Velocity":61,"Duration":136362,"SoundDuration":136362,"Delta":31783306},{"NoteNumber":53,"Velocity":60,"Duration":136362,"SoundDuration":136362,"Delta":31783306},{"NoteNumber":60,"Velocity":55,"Duration":128676,"SoundDuration":128676,"Delta":31900367},{"NoteNumber":51,"Velocity":54,"Duration":128676,"SoundDuration":128676,"Delta":31901286},{"NoteNumber":59,"Velocity":55,"Duration":130619,"SoundDuration":130619,"Delta":32009742},{"NoteNumber":50,"Velocity":54,"Duration":130619,"SoundDuration":130619,"Delta":32009742},{"NoteNumber":51,"Velocity":54,"Duration":121756,"SoundDuration":121756,"Delta":32118198},{"NoteNumber":60,"Velocity":55,"Duration":121951,"SoundDuration":121951,"Delta":32120036},{"NoteNumber":63,"Velocity":76,"Duration":140801,"SoundDuration":140801,"Delta":32240971},{"NoteNumber":46,"Velocity":70,"Duration":140801,"SoundDuration":140801,"Delta":32240971},{"NoteNumber":60,"Velocity":61,"Duration":127737,"SoundDuration":127737,"Delta":32364436},{"NoteNumber":51,"Velocity":54,"Duration":127737,"SoundDuration":127737,"Delta":32364436},{"NoteNumber":50,"Velocity":54,"Duration":128741,"SoundDuration":128741,"Delta":32473013},{"NoteNumber":59,"Velocity":55,"Duration":128846,"SoundDuration":128846,"Delta":32474838},{"NoteNumber":60,"Velocity":55,"Duration":135029,"SoundDuration":135029,"Delta":32581589},{"NoteNumber":51,"Velocity":54,"Duration":135135,"SoundDuration":135135,"Delta":32585345},{"NoteNumber":55,"Velocity":61,"Duration":134519,"SoundDuration":134519,"Delta":32698279},{"NoteNumber":53,"Velocity":61,"Duration":134486,"SoundDuration":134486,"Delta":32699244},{"NoteNumber":60,"Velocity":55,"Duration":130596,"SoundDuration":130596,"Delta":32816940},{"NoteNumber":51,"Velocity":53,"Duration":130596,"SoundDuration":130596,"Delta":32817873},{"NoteNumber":50,"Velocity":53,"Duration":132098,"SoundDuration":132098,"Delta":32925149},{"NoteNumber":59,"Velocity":55,"Duration":132182,"SoundDuration":132182,"Delta":32926082},{"NoteNumber":60,"Velocity":56,"Duration":122046,"SoundDuration":122046,"Delta":33040987},{"NoteNumber":51,"Velocity":53,"Duration":122046,"SoundDuration":122046,"Delta":33040987},{"NoteNumber":44,"Velocity":70,"Duration":145212,"SoundDuration":145212,"Delta":33161970},{"NoteNumber":53,"Velocity":76,"Duration":144858,"SoundDuration":144858,"Delta":33164097},{"NoteNumber":63,"Velocity":64,"Duration":124113,"SoundDuration":124113,"Delta":33291225},{"NoteNumber":48,"Velocity":54,"Duration":124113,"SoundDuration":124113,"Delta":33291225},{"NoteNumber":47,"Velocity":53,"Duration":127329,"SoundDuration":127329,"Delta":33394062},{"NoteNumber":62,"Velocity":57,"Duration":127577,"SoundDuration":127577,"Delta":33396722},{"NoteNumber":63,"Velocity":57,"Duration":136022,"SoundDuration":136022,"Delta":33502012},{"NoteNumber":48,"Velocity":53,"Duration":136060,"SoundDuration":136060,"Delta":33503950},{"NoteNumber":65,"Velocity":64,"Duration":136830,"SoundDuration":136830,"Delta":33622224},{"NoteNumber":50,"Velocity":64,"Duration":136830,"SoundDuration":136830,"Delta":33622224},{"NoteNumber":63,"Velocity":58,"Duration":129282,"SoundDuration":129282,"Delta":33735861},{"NoteNumber":48,"Velocity":54,"Duration":129151,"SoundDuration":129151,"Delta":33739682},{"NoteNumber":62,"Velocity":58,"Duration":130262,"SoundDuration":130262,"Delta":33846693},{"NoteNumber":47,"Velocity":54,"Duration":130571,"SoundDuration":130571,"Delta":33851305},{"NoteNumber":48,"Velocity":54,"Duration":118048,"SoundDuration":118048,"Delta":33958316},{"NoteNumber":63,"Velocity":58,"Duration":118110,"SoundDuration":118110,"Delta":33961207},{"NoteNumber":53,"Velocity":76,"Duration":136642,"SoundDuration":136642,"Delta":34078333},{"NoteNumber":44,"Velocity":70,"Duration":136532,"SoundDuration":136532,"Delta":34080302},{"NoteNumber":63,"Velocity":64,"Duration":130111,"SoundDuration":130111,"Delta":34196389},{"NoteNumber":48,"Velocity":55,"Duration":130111,"SoundDuration":130111,"Delta":34197318},{"NoteNumber":62,"Velocity":57,"Duration":131197,"SoundDuration":131197,"Delta":34309772},{"NoteNumber":47,"Velocity":55,"Duration":131197,"SoundDuration":131197,"Delta":34309772},{"NoteNumber":63,"Velocity":59,"Duration":136624,"SoundDuration":136624,"Delta":34416649},{"NoteNumber":48,"Velocity":55,"Duration":136718,"SoundDuration":136718,"Delta":34421437},{"NoteNumber":65,"Velocity":64,"Duration":135713,"SoundDuration":135713,"Delta":34538625},{"NoteNumber":50,"Velocity":64,"Duration":135713,"SoundDuration":135713,"Delta":34538625},{"NoteNumber":63,"Velocity":57,"Duration":130596,"SoundDuration":130596,"Delta":34653816},{"NoteNumber":48,"Velocity":56,"Duration":130596,"SoundDuration":130596,"Delta":34653816},{"NoteNumber":62,"Velocity":57,"Duration":132340,"SoundDuration":132340,"Delta":34763890},{"NoteNumber":47,"Velocity":56,"Duration":132340,"SoundDuration":132340,"Delta":34763890},{"NoteNumber":63,"Velocity":57,"Duration":122767,"SoundDuration":122767,"Delta":34874898},{"NoteNumber":48,"Velocity":56,"Duration":123017,"SoundDuration":123017,"Delta":34877788},{"NoteNumber":45,"Velocity":70,"Duration":149176,"SoundDuration":149176,"Delta":34998689},{"NoteNumber":54,"Velocity":76,"Duration":148865,"SoundDuration":148865,"Delta":35000806},{"NoteNumber":60,"Velocity":64,"Duration":126542,"SoundDuration":126542,"Delta":35129627},{"NoteNumber":51,"Velocity":56,"Duration":126542,"SoundDuration":126542,"Delta":35129627},{"NoteNumber":59,"Velocity":57,"Duration":128593,"SoundDuration":128593,"Delta":35238119},{"NoteNumber":50,"Velocity":56,"Duration":128947,"SoundDuration":128947,"Delta":35240827},{"NoteNumber":51,"Velocity":56,"Duration":142233,"SoundDuration":142233,"Delta":35349366},{"NoteNumber":60,"Velocity":58,"Duration":142205,"SoundDuration":142205,"Delta":35350386},{"NoteNumber":48,"Velocity":64,"Duration":137467,"SoundDuration":137467,"Delta":35468753},{"NoteNumber":63,"Velocity":64,"Duration":137286,"SoundDuration":137286,"Delta":35470766},{"NoteNumber":60,"Velocity":58,"Duration":128205,"SoundDuration":128205,"Delta":35589737},{"NoteNumber":51,"Velocity":56,"Duration":128205,"SoundDuration":128205,"Delta":35590653},{"NoteNumber":59,"Velocity":58,"Duration":130088,"SoundDuration":130088,"Delta":35696880},{"NoteNumber":50,"Velocity":56,"Duration":130298,"SoundDuration":130298,"Delta":35698711},{"NoteNumber":51,"Velocity":56,"Duration":122239,"SoundDuration":122239,"Delta":35806770},{"NoteNumber":60,"Velocity":58,"Duration":122449,"SoundDuration":122449,"Delta":35808601},{"NoteNumber":54,"Velocity":76,"Duration":140266,"SoundDuration":140266,"Delta":35931050},{"NoteNumber":45,"Velocity":70,"Duration":140065,"SoundDuration":140065,"Delta":35933083},{"NoteNumber":60,"Velocity":64,"Duration":128205,"SoundDuration":128205,"Delta":36053002},{"NoteNumber":51,"Velocity":57,"Duration":128205,"SoundDuration":128205,"Delta":36055749},{"NoteNumber":50,"Velocity":58,"Duration":129231,"SoundDuration":129231,"Delta":36161060},{"NoteNumber":59,"Velocity":58,"Duration":129459,"SoundDuration":129459,"Delta":36164723},{"NoteNumber":51,"Velocity":58,"Duration":136129,"SoundDuration":136129,"Delta":36271866},{"NoteNumber":60,"Velocity":58,"Duration":136186,"SoundDuration":136186,"Delta":36273754},{"NoteNumber":63,"Velocity":64,"Duration":134847,"SoundDuration":134847,"Delta":36389513},{"NoteNumber":48,"Velocity":64,"Duration":134780,"SoundDuration":134780,"Delta":36390486},{"NoteNumber":51,"Velocity":56,"Duration":126811,"SoundDuration":126811,"Delta":36506245},{"NoteNumber":60,"Velocity":58,"Duration":126811,"SoundDuration":126811,"Delta":36508056},{"NoteNumber":59,"Velocity":58,"Duration":129394,"SoundDuration":129394,"Delta":36615846},{"NoteNumber":50,"Velocity":56,"Duration":129517,"SoundDuration":129517,"Delta":36616752},{"NoteNumber":51,"Velocity":56,"Duration":123333,"SoundDuration":123333,"Delta":36722730},{"NoteNumber":60,"Velocity":58,"Duration":123496,"SoundDuration":123496,"Delta":36724665},{"NoteNumber":63,"Velocity":76,"Duration":146655,"SoundDuration":146655,"Delta":36847093},{"NoteNumber":43,"Velocity":70,"Duration":146363,"SoundDuration":146363,"Delta":36849230},{"NoteNumber":60,"Velocity":64,"Duration":129442,"SoundDuration":129442,"Delta":36973161},{"NoteNumber":51,"Velocity":56,"Duration":129151,"SoundDuration":129151,"Delta":36978066},{"NoteNumber":50,"Velocity":56,"Duration":130124,"SoundDuration":130124,"Delta":37084154},{"NoteNumber":59,"Velocity":58,"Duration":130340,"SoundDuration":130340,"Delta":37087844},{"NoteNumber":60,"Velocity":58,"Duration":136749,"SoundDuration":136749,"Delta":37194855},{"NoteNumber":51,"Velocity":56,"Duration":136880,"SoundDuration":136880,"Delta":37197677},{"NoteNumber":55,"Velocity":63,"Duration":136498,"SoundDuration":136498,"Delta":37314872},{"NoteNumber":53,"Velocity":64,"Duration":136436,"SoundDuration":136436,"Delta":37315856},{"NoteNumber":51,"Velocity":56,"Duration":129212,"SoundDuration":129212,"Delta":37431014},{"NoteNumber":60,"Velocity":57,"Duration":129151,"SoundDuration":129151,"Delta":37434765},{"NoteNumber":50,"Velocity":56,"Duration":130262,"SoundDuration":130262,"Delta":37540854},{"NoteNumber":59,"Velocity":57,"Duration":130386,"SoundDuration":130386,"Delta":37542699},{"NoteNumber":51,"Velocity":56,"Duration":118048,"SoundDuration":118048,"Delta":37652477},{"NoteNumber":60,"Velocity":57,"Duration":118118,"SoundDuration":118118,"Delta":37655368},{"NoteNumber":63,"Velocity":76,"Duration":137164,"SoundDuration":137164,"Delta":37771510},{"NoteNumber":43,"Velocity":70,"Duration":137046,"SoundDuration":137046,"Delta":37773486},{"NoteNumber":60,"Velocity":58,"Duration":130111,"SoundDuration":130111,"Delta":37890087},{"NoteNumber":51,"Velocity":57,"Duration":130111,"SoundDuration":130111,"Delta":37892875},{"NoteNumber":50,"Velocity":57,"Duration":131102,"SoundDuration":131102,"Delta":38002541},{"NoteNumber":59,"Velocity":58,"Duration":131149,"SoundDuration":131149,"Delta":38003470},{"NoteNumber":51,"Velocity":57,"Duration":137107,"SoundDuration":137107,"Delta":38113136},{"NoteNumber":60,"Velocity":58,"Duration":137127,"SoundDuration":137127,"Delta":38114112},{"NoteNumber":55,"Velocity":63,"Duration":138109,"SoundDuration":138109,"Delta":38230323},{"NoteNumber":53,"Velocity":64,"Duration":137976,"SoundDuration":137976,"Delta":38232315},{"NoteNumber":51,"Velocity":57,"Duration":130178,"SoundDuration":130178,"Delta":38348849},{"NoteNumber":60,"Velocity":57,"Duration":130111,"SoundDuration":130111,"Delta":38352633},{"NoteNumber":59,"Velocity":58,"Duration":132023,"SoundDuration":132023,"Delta":38462299},{"NoteNumber":50,"Velocity":57,"Duration":132023,"SoundDuration":132023,"Delta":38462299},{"NoteNumber":60,"Velocity":58,"Duration":122357,"SoundDuration":122357,"Delta":38571964},{"NoteNumber":51,"Velocity":57,"Duration":122357,"SoundDuration":122357,"Delta":38571964},{"NoteNumber":43,"Velocity":70,"Duration":147303,"SoundDuration":147303,"Delta":38694322},{"NoteNumber":66,"Velocity":76,"Duration":147205,"SoundDuration":147205,"Delta":38695343},{"NoteNumber":60,"Velocity":64,"Duration":129452,"SoundDuration":129452,"Delta":38821952},{"NoteNumber":51,"Velocity":56,"Duration":129151,"SoundDuration":129151,"Delta":38826865},{"NoteNumber":50,"Velocity":56,"Duration":130178,"SoundDuration":130178,"Delta":38933876},{"NoteNumber":59,"Velocity":57,"Duration":130340,"SoundDuration":130340,"Delta":38936644},{"NoteNumber":51,"Velocity":56,"Duration":136610,"SoundDuration":136610,"Delta":39043655},{"NoteNumber":60,"Velocity":58,"Duration":136718,"SoundDuration":136718,"Delta":39048429},{"NoteNumber":57,"Velocity":63,"Duration":135873,"SoundDuration":135873,"Delta":39163664},{"NoteNumber":48,"Velocity":64,"Duration":135833,"SoundDuration":135833,"Delta":39164640},{"NoteNumber":60,"Velocity":57,"Duration":131166,"SoundDuration":131166,"Delta":39277922},{"NoteNumber":51,"Velocity":56,"Duration":131166,"SoundDuration":131166,"Delta":39277922},{"NoteNumber":50,"Velocity":56,"Duration":132524,"SoundDuration":132524,"Delta":39390362},{"NoteNumber":59,"Velocity":57,"Duration":132604,"SoundDuration":132604,"Delta":39391298},{"NoteNumber":60,"Velocity":57,"Duration":121791,"SoundDuration":121791,"Delta":39502721},{"NoteNumber":51,"Velocity":56,"Duration":121791,"SoundDuration":121791,"Delta":39502721},{"NoteNumber":43,"Velocity":71,"Duration":135238,"SoundDuration":135238,"Delta":39626545},{"NoteNumber":66,"Velocity":76,"Duration":135164,"SoundDuration":135164,"Delta":39627522},{"NoteNumber":60,"Velocity":64,"Duration":126501,"SoundDuration":126501,"Delta":39741779},{"NoteNumber":51,"Velocity":56,"Duration":126353,"SoundDuration":126353,"Delta":39744635},{"NoteNumber":50,"Velocity":56,"Duration":127758,"SoundDuration":127758,"Delta":39852036},{"NoteNumber":59,"Velocity":57,"Duration":127969,"SoundDuration":127969,"Delta":39854743},{"NoteNumber":51,"Velocity":56,"Duration":136186,"SoundDuration":136186,"Delta":39960339},{"NoteNumber":60,"Velocity":57,"Duration":136186,"SoundDuration":136186,"Delta":39963257},{"NoteNumber":48,"Velocity":65,"Duration":135318,"SoundDuration":135318,"Delta":40077071},{"NoteNumber":57,"Velocity":64,"Duration":135275,"SoundDuration":135275,"Delta":40078043},{"NoteNumber":51,"Velocity":56,"Duration":130198,"SoundDuration":130198,"Delta":40191857},{"NoteNumber":60,"Velocity":58,"Duration":130111,"SoundDuration":130111,"Delta":40195661},{"NoteNumber":50,"Velocity":57,"Duration":131936,"SoundDuration":131936,"Delta":40306256},{"NoteNumber":59,"Velocity":58,"Duration":132110,"SoundDuration":132110,"Delta":40308114},{"NoteNumber":60,"Velocity":58,"Duration":121777,"SoundDuration":121777,"Delta":40414992},{"NoteNumber":51,"Velocity":57,"Duration":122046,"SoundDuration":122046,"Delta":40418883},{"NoteNumber":67,"Velocity":79,"Duration":145879,"SoundDuration":145879,"Delta":40536769},{"NoteNumber":43,"Velocity":73,"Duration":145645,"SoundDuration":145645,"Delta":40538802},{"NoteNumber":51,"Velocity":58,"Duration":125899,"SoundDuration":125899,"Delta":40667361},{"NoteNumber":60,"Velocity":65,"Duration":125899,"SoundDuration":125899,"Delta":40668260},{"NoteNumber":59,"Velocity":57,"Duration":127442,"SoundDuration":127442,"Delta":40775274},{"NoteNumber":50,"Velocity":58,"Duration":127589,"SoundDuration":127589,"Delta":40777073},{"NoteNumber":60,"Velocity":58,"Duration":136113,"SoundDuration":136113,"Delta":40881390},{"NoteNumber":51,"Velocity":58,"Duration":136186,"SoundDuration":136186,"Delta":40883262},{"NoteNumber":62,"Velocity":66,"Duration":134981,"SoundDuration":134981,"Delta":40997075},{"NoteNumber":53,"Velocity":66,"Duration":134780,"SoundDuration":134780,"Delta":40999993},{"NoteNumber":51,"Velocity":58,"Duration":126945,"SoundDuration":126945,"Delta":41113806},{"NoteNumber":60,"Velocity":58,"Duration":126878,"SoundDuration":126878,"Delta":41114779},{"NoteNumber":50,"Velocity":58,"Duration":129187,"SoundDuration":129187,"Delta":41224448},{"NoteNumber":59,"Velocity":58,"Duration":129306,"SoundDuration":129306,"Delta":41225353},{"NoteNumber":51,"Velocity":58,"Duration":122752,"SoundDuration":122752,"Delta":41332237},{"NoteNumber":60,"Velocity":58,"Duration":122867,"SoundDuration":122867,"Delta":41333143},{"NoteNumber":67,"Velocity":79,"Duration":139260,"SoundDuration":139260,"Delta":41454990},{"NoteNumber":43,"Velocity":73,"Duration":139149,"SoundDuration":139149,"Delta":41456010},{"NoteNumber":60,"Velocity":67,"Duration":127272,"SoundDuration":127272,"Delta":41576978},{"NoteNumber":51,"Velocity":58,"Duration":127272,"SoundDuration":127272,"Delta":41579705},{"NoteNumber":50,"Velocity":58,"Duration":129252,"SoundDuration":129252,"Delta":41686069},{"NoteNumber":59,"Velocity":58,"Duration":129351,"SoundDuration":129351,"Delta":41686978},{"NoteNumber":51,"Velocity":58,"Duration":140227,"SoundDuration":140227,"Delta":41793342},{"NoteNumber":60,"Velocity":58,"Duration":140269,"SoundDuration":140269,"Delta":41797176},{"NoteNumber":53,"Velocity":67,"Duration":134826,"SoundDuration":134826,"Delta":41917097},{"NoteNumber":62,"Velocity":67,"Duration":134787,"SoundDuration":134787,"Delta":41918066},{"NoteNumber":60,"Velocity":59,"Duration":130111,"SoundDuration":130111,"Delta":42033336},{"NoteNumber":51,"Velocity":58,"Duration":130111,"SoundDuration":130111,"Delta":42034266},{"NoteNumber":59,"Velocity":59,"Duration":131849,"SoundDuration":131849,"Delta":42144861},{"NoteNumber":50,"Velocity":58,"Duration":131932,"SoundDuration":131932,"Delta":42145790},{"NoteNumber":60,"Velocity":59,"Duration":121409,"SoundDuration":121409,"Delta":42257480},{"NoteNumber":51,"Velocity":58,"Duration":121385,"SoundDuration":121385,"Delta":42258492},{"NoteNumber":68,"Velocity":80,"Duration":136296,"SoundDuration":136296,"Delta":42379877},{"NoteNumber":43,"Velocity":75,"Duration":136296,"SoundDuration":136296,"Delta":42379877},{"NoteNumber":60,"Velocity":67,"Duration":126077,"SoundDuration":126077,"Delta":42493514},{"NoteNumber":51,"Velocity":59,"Duration":125988,"SoundDuration":125988,"Delta":42494502},{"NoteNumber":59,"Velocity":61,"Duration":127363,"SoundDuration":127363,"Delta":42604303},{"NoteNumber":50,"Velocity":59,"Duration":127502,"SoundDuration":127502,"Delta":42606102},{"NoteNumber":60,"Velocity":61,"Duration":136199,"SoundDuration":136199,"Delta":42711317},{"NoteNumber":51,"Velocity":59,"Duration":136226,"SoundDuration":136226,"Delta":42712286},{"NoteNumber":62,"Velocity":68,"Duration":138148,"SoundDuration":138148,"Delta":42826627},{"NoteNumber":53,"Velocity":68,"Duration":137976,"SoundDuration":137976,"Delta":42829588},{"NoteNumber":60,"Velocity":60,"Duration":130244,"SoundDuration":130244,"Delta":42945126},{"NoteNumber":51,"Velocity":58,"Duration":130111,"SoundDuration":130111,"Delta":42948977},{"NoteNumber":50,"Velocity":58,"Duration":131066,"SoundDuration":131066,"Delta":43060501},{"NoteNumber":59,"Velocity":60,"Duration":131109,"SoundDuration":131109,"Delta":43061431},{"NoteNumber":60,"Velocity":60,"Duration":116644,"SoundDuration":116644,"Delta":43168308},{"NoteNumber":51,"Velocity":59,"Duration":116754,"SoundDuration":116754,"Delta":43173085},{"NoteNumber":68,"Velocity":83,"Duration":136029,"SoundDuration":136029,"Delta":43286898},{"NoteNumber":43,"Velocity":75,"Duration":135845,"SoundDuration":135845,"Delta":43289840},{"NoteNumber":60,"Velocity":69,"Duration":128676,"SoundDuration":128676,"Delta":43405465},{"NoteNumber":51,"Velocity":60,"Duration":128676,"SoundDuration":128676,"Delta":43407303},{"NoteNumber":59,"Velocity":62,"Duration":129913,"SoundDuration":129913,"Delta":43513920},{"NoteNumber":50,"Velocity":60,"Duration":130044,"SoundDuration":130044,"Delta":43515759},{"NoteNumber":51,"Velocity":60,"Duration":137873,"SoundDuration":137873,"Delta":43625133},{"NoteNumber":60,"Velocity":62,"Duration":137876,"SoundDuration":137876,"Delta":43626118},{"NoteNumber":53,"Velocity":69,"Duration":137212,"SoundDuration":137212,"Delta":43741275},{"NoteNumber":62,"Velocity":69,"Duration":137153,"SoundDuration":137153,"Delta":43742259},{"NoteNumber":60,"Velocity":61,"Duration":129691,"SoundDuration":129691,"Delta":43860833},{"NoteNumber":51,"Velocity":61,"Duration":129629,"SoundDuration":129629,"Delta":43861821},{"NoteNumber":59,"Velocity":61,"Duration":131255,"SoundDuration":131255,"Delta":43971080},{"NoteNumber":50,"Velocity":61,"Duration":131616,"SoundDuration":131616,"Delta":43974784},{"NoteNumber":51,"Velocity":61,"Duration":121951,"SoundDuration":121951,"Delta":44084043},{"NoteNumber":60,"Velocity":61,"Duration":122111,"SoundDuration":122111,"Delta":44086075},{"NoteNumber":43,"Velocity":65,"Duration":152240,"SoundDuration":152240,"Delta":44205994},{"NoteNumber":47,"Velocity":68,"Duration":143272,"SoundDuration":143272,"Delta":44337573},{"NoteNumber":50,"Velocity":71,"Duration":134987,"SoundDuration":134987,"Delta":44461540},{"NoteNumber":53,"Velocity":74,"Duration":134099,"SoundDuration":134099,"Delta":44577370},{"NoteNumber":56,"Velocity":74,"Duration":134099,"SoundDuration":134099,"Delta":44692312},{"NoteNumber":53,"Velocity":70,"Duration":134099,"SoundDuration":134099,"Delta":44807255},{"NoteNumber":52,"Velocity":70,"Duration":134099,"SoundDuration":134099,"Delta":44922197},{"NoteNumber":53,"Velocity":70,"Duration":134099,"SoundDuration":134099,"Delta":45037140},{"NoteNumber":59,"Velocity":74,"Duration":134099,"SoundDuration":134099,"Delta":45152082},{"NoteNumber":53,"Velocity":70,"Duration":134473,"SoundDuration":134473,"Delta":45267025},{"NoteNumber":62,"Velocity":74,"Duration":136718,"SoundDuration":136718,"Delta":45381967},{"NoteNumber":59,"Velocity":70,"Duration":136718,"SoundDuration":136718,"Delta":45499155},{"NoteNumber":56,"Velocity":72,"Duration":136718,"SoundDuration":136718,"Delta":45616342},{"NoteNumber":53,"Velocity":71,"Duration":136718,"SoundDuration":136718,"Delta":45733530},{"NoteNumber":52,"Velocity":70,"Duration":136718,"SoundDuration":136718,"Delta":45850717},{"NoteNumber":53,"Velocity":69,"Duration":117187,"SoundDuration":117187,"Delta":45967905},{"NoteNumber":43,"Velocity":64,"Duration":144642,"SoundDuration":144642,"Delta":46085092},{"NoteNumber":48,"Velocity":66,"Duration":140575,"SoundDuration":140575,"Delta":46209574},{"NoteNumber":51,"Velocity":68,"Duration":136804,"SoundDuration":136804,"Delta":46330541},{"NoteNumber":55,"Velocity":72,"Duration":134099,"SoundDuration":134099,"Delta":46448188},{"NoteNumber":60,"Velocity":75,"Duration":134099,"SoundDuration":134099,"Delta":46563131},{"NoteNumber":55,"Velocity":70,"Duration":134099,"SoundDuration":134099,"Delta":46678073},{"NoteNumber":54,"Velocity":70,"Duration":134099,"SoundDuration":134099,"Delta":46793016},{"NoteNumber":55,"Velocity":70,"Duration":134099,"SoundDuration":134099,"Delta":46907958},{"NoteNumber":63,"Velocity":74,"Duration":134099,"SoundDuration":134099,"Delta":47022901},{"NoteNumber":60,"Velocity":70,"Duration":134397,"SoundDuration":134397,"Delta":47137843},{"NoteNumber":67,"Velocity":74,"Duration":136186,"SoundDuration":136186,"Delta":47252786},{"NoteNumber":63,"Velocity":70,"Duration":136186,"SoundDuration":136186,"Delta":47369517},{"NoteNumber":60,"Velocity":74,"Duration":136186,"SoundDuration":136186,"Delta":47486249},{"NoteNumber":56,"Velocity":70,"Duration":136186,"SoundDuration":136186,"Delta":47602980},{"NoteNumber":55,"Velocity":72,"Duration":136186,"SoundDuration":136186,"Delta":47719712},{"NoteNumber":56,"Velocity":70,"Duration":116731,"SoundDuration":116731,"Delta":47836443},{"NoteNumber":43,"Velocity":67,"Duration":138897,"SoundDuration":138897,"Delta":47953175},{"NoteNumber":45,"Velocity":70,"Duration":135593,"SoundDuration":135593,"Delta":48072465},{"NoteNumber":54,"Velocity":70,"Duration":133587,"SoundDuration":133587,"Delta":48188975},{"NoteNumber":60,"Velocity":71,"Duration":133587,"SoundDuration":133587,"Delta":48303478},{"NoteNumber":63,"Velocity":75,"Duration":133587,"SoundDuration":133587,"Delta":48417982},{"NoteNumber":60,"Velocity":70,"Duration":133587,"SoundDuration":133587,"Delta":48532486},{"NoteNumber":59,"Velocity":70,"Duration":133587,"SoundDuration":133587,"Delta":48646990},{"NoteNumber":60,"Velocity":70,"Duration":133587,"SoundDuration":133587,"Delta":48761493},{"NoteNumber":66,"Velocity":74,"Duration":133587,"SoundDuration":133587,"Delta":48875997},{"NoteNumber":60,"Velocity":70,"Duration":133587,"SoundDuration":133587,"Delta":48990501},{"NoteNumber":69,"Velocity":74,"Duration":133587,"SoundDuration":133587,"Delta":49105005},{"NoteNumber":66,"Velocity":70,"Duration":133587,"SoundDuration":133587,"Delta":49219508},{"NoteNumber":63,"Velocity":73,"Duration":133587,"SoundDuration":133587,"Delta":49334012},{"NoteNumber":60,"Velocity":70,"Duration":133587,"SoundDuration":133587,"Delta":49448516},{"NoteNumber":59,"Velocity":70,"Duration":133587,"SoundDuration":133587,"Delta":49563020},{"NoteNumber":60,"Velocity":70,"Duration":114503,"SoundDuration":114503,"Delta":49677523},{"NoteNumber":43,"Velocity":67,"Duration":1629825,"SoundDuration":1629825,"Delta":49792027},{"NoteNumber":74,"Velocity":67,"Duration":113636,"SoundDuration":113636,"Delta":49889430},{"NoteNumber":72,"Velocity":65,"Duration":113636,"SoundDuration":113636,"Delta":49986832},{"NoteNumber":74,"Velocity":65,"Duration":113225,"SoundDuration":113225,"Delta":50084235},{"NoteNumber":75,"Velocity":72,"Duration":110759,"SoundDuration":110759,"Delta":50181637},{"NoteNumber":72,"Velocity":67,"Duration":110759,"SoundDuration":110759,"Delta":50276574},{"NoteNumber":71,"Velocity":63,"Duration":110759,"SoundDuration":110759,"Delta":50371511},{"NoteNumber":72,"Velocity":63,"Duration":110759,"SoundDuration":110759,"Delta":50466447},{"NoteNumber":69,"Velocity":73,"Duration":110759,"SoundDuration":110759,"Delta":50561384},{"NoteNumber":72,"Velocity":67,"Duration":110759,"SoundDuration":110759,"Delta":50656321},{"NoteNumber":71,"Velocity":64,"Duration":110759,"SoundDuration":110759,"Delta":50751258},{"NoteNumber":72,"Velocity":64,"Duration":110513,"SoundDuration":110513,"Delta":50846194},{"NoteNumber":74,"Velocity":67,"Duration":109034,"SoundDuration":109034,"Delta":50941131},{"NoteNumber":71,"Velocity":64,"Duration":109034,"SoundDuration":109034,"Delta":51034589},{"NoteNumber":69,"Velocity":64,"Duration":110014,"SoundDuration":110014,"Delta":51128047},{"NoteNumber":71,"Velocity":64,"Duration":99337,"SoundDuration":99337,"Delta":51221505},{"NoteNumber":67,"Velocity":75,"Duration":116832,"SoundDuration":116832,"Delta":51320843},{"NoteNumber":71,"Velocity":67,"Duration":110759,"SoundDuration":110759,"Delta":51421853},{"NoteNumber":62,"Velocity":60,"Duration":110759,"SoundDuration":110759,"Delta":51421853},{"NoteNumber":69,"Velocity":64,"Duration":110759,"SoundDuration":110759,"Delta":51516790},{"NoteNumber":60,"Velocity":60,"Duration":110759,"SoundDuration":110759,"Delta":51516790},{"NoteNumber":71,"Velocity":64,"Duration":110464,"SoundDuration":110464,"Delta":51611726},{"NoteNumber":62,"Velocity":61,"Duration":110464,"SoundDuration":110464,"Delta":51611726},{"NoteNumber":72,"Velocity":70,"Duration":108695,"SoundDuration":108695,"Delta":51706663},{"NoteNumber":63,"Velocity":70,"Duration":108695,"SoundDuration":108695,"Delta":51706663},{"NoteNumber":69,"Velocity":64,"Duration":108695,"SoundDuration":108695,"Delta":51799831},{"NoteNumber":60,"Velocity":67,"Duration":108695,"SoundDuration":108695,"Delta":51799831},{"NoteNumber":67,"Velocity":64,"Duration":108695,"SoundDuration":108695,"Delta":51892999},{"NoteNumber":59,"Velocity":60,"Duration":108695,"SoundDuration":108695,"Delta":51892999},{"NoteNumber":69,"Velocity":65,"Duration":95913,"SoundDuration":95913,"Delta":51986166},{"NoteNumber":60,"Velocity":60,"Duration":95913,"SoundDuration":95913,"Delta":51986166},{"NoteNumber":66,"Velocity":75,"Duration":110759,"SoundDuration":110759,"Delta":52082080},{"NoteNumber":57,"Velocity":75,"Duration":110759,"SoundDuration":110759,"Delta":52082080},{"NoteNumber":69,"Velocity":67,"Duration":110759,"SoundDuration":110759,"Delta":52177017},{"NoteNumber":60,"Velocity":61,"Duration":110759,"SoundDuration":110759,"Delta":52177017},{"NoteNumber":67,"Velocity":64,"Duration":110759,"SoundDuration":110759,"Delta":52271954},{"NoteNumber":59,"Velocity":61,"Duration":110759,"SoundDuration":110759,"Delta":52271954},{"NoteNumber":69,"Velocity":64,"Duration":110513,"SoundDuration":110513,"Delta":52366890},{"NoteNumber":60,"Velocity":61,"Duration":110513,"SoundDuration":110513,"Delta":52366890},{"NoteNumber":71,"Velocity":70,"Duration":109034,"SoundDuration":109034,"Delta":52461827},{"NoteNumber":62,"Velocity":70,"Duration":109034,"SoundDuration":109034,"Delta":52461827},{"NoteNumber":67,"Velocity":65,"Duration":109034,"SoundDuration":109034,"Delta":52555285},{"NoteNumber":59,"Velocity":61,"Duration":109034,"SoundDuration":109034,"Delta":52555285},{"NoteNumber":66,"Velocity":65,"Duration":110124,"SoundDuration":110124,"Delta":52648743},{"NoteNumber":57,"Velocity":61,"Duration":110124,"SoundDuration":110124,"Delta":52648743},{"NoteNumber":67,"Velocity":65,"Duration":100000,"SoundDuration":100000,"Delta":52742201},{"NoteNumber":59,"Velocity":61,"Duration":100000,"SoundDuration":100000,"Delta":52742201},{"NoteNumber":62,"Velocity":75,"Duration":119579,"SoundDuration":119579,"Delta":52842201},{"NoteNumber":55,"Velocity":74,"Duration":119579,"SoundDuration":119579,"Delta":52842201},{"NoteNumber":79,"Velocity":70,"Duration":110410,"SoundDuration":110410,"Delta":52946007},{"NoteNumber":59,"Velocity":61,"Duration":110410,"SoundDuration":110410,"Delta":52946007},{"NoteNumber":77,"Velocity":67,"Duration":110410,"SoundDuration":110410,"Delta":53040645},{"NoteNumber":57,"Velocity":61,"Duration":110410,"SoundDuration":110410,"Delta":53040645},{"NoteNumber":79,"Velocity":67,"Duration":110213,"SoundDuration":110213,"Delta":53135282},{"NoteNumber":59,"Velocity":61,"Duration":110213,"SoundDuration":110213,"Delta":53135282},{"NoteNumber":80,"Velocity":73,"Duration":109034,"SoundDuration":109034,"Delta":53229919},{"NoteNumber":60,"Velocity":71,"Duration":109034,"SoundDuration":109034,"Delta":53229919},{"NoteNumber":77,"Velocity":68,"Duration":109034,"SoundDuration":109034,"Delta":53323377},{"NoteNumber":56,"Velocity":61,"Duration":109034,"SoundDuration":109034,"Delta":53323377},{"NoteNumber":75,"Velocity":68,"Duration":109587,"SoundDuration":109587,"Delta":53416835},{"NoteNumber":55,"Velocity":61,"Duration":109587,"SoundDuration":109587,"Delta":53416835},{"NoteNumber":77,"Velocity":68,"Duration":96774,"SoundDuration":96774,"Delta":53510293},{"NoteNumber":56,"Velocity":61,"Duration":96774,"SoundDuration":96774,"Delta":53510293},{"NoteNumber":74,"Velocity":77,"Duration":110410,"SoundDuration":110410,"Delta":53607067},{"NoteNumber":53,"Velocity":74,"Duration":110410,"SoundDuration":110410,"Delta":53607067},{"NoteNumber":77,"Velocity":70,"Duration":110410,"SoundDuration":110410,"Delta":53701705},{"NoteNumber":57,"Velocity":63,"Duration":110410,"SoundDuration":110410,"Delta":53701705},{"NoteNumber":75,"Velocity":66,"Duration":110410,"SoundDuration":110410,"Delta":53796342},{"NoteNumber":55,"Velocity":63,"Duration":110410,"SoundDuration":110410,"Delta":53796342},{"NoteNumber":77,"Velocity":66,"Duration":110262,"SoundDuration":110262,"Delta":53890979},{"NoteNumber":57,"Velocity":63,"Duration":110262,"SoundDuration":110262,"Delta":53890979},{"NoteNumber":79,"Velocity":73,"Duration":109375,"SoundDuration":109375,"Delta":53985616},{"NoteNumber":59,"Velocity":71,"Duration":109375,"SoundDuration":109375,"Delta":53985616},{"NoteNumber":75,"Velocity":67,"Duration":109375,"SoundDuration":109375,"Delta":54079366},{"NoteNumber":55,"Velocity":62,"Duration":109375,"SoundDuration":109375,"Delta":54079366},{"NoteNumber":74,"Velocity":67,"Duration":110306,"SoundDuration":110306,"Delta":54173116},{"NoteNumber":53,"Velocity":62,"Duration":110306,"SoundDuration":110306,"Delta":54173116},{"NoteNumber":75,"Velocity":68,"Duration":99337,"SoundDuration":99337,"Delta":54266866},{"NoteNumber":55,"Velocity":62,"Duration":99337,"SoundDuration":99337,"Delta":54266866},{"NoteNumber":72,"Velocity":75,"Duration":115723,"SoundDuration":115723,"Delta":54366204},{"NoteNumber":51,"Velocity":76,"Duration":115723,"SoundDuration":115723,"Delta":54366204},{"NoteNumber":75,"Velocity":67,"Duration":110062,"SoundDuration":110062,"Delta":54466204},{"NoteNumber":67,"Velocity":63,"Duration":110062,"SoundDuration":110062,"Delta":54466204},{"NoteNumber":74,"Velocity":65,"Duration":110062,"SoundDuration":110062,"Delta":54560544},{"NoteNumber":65,"Velocity":63,"Duration":110062,"SoundDuration":110062,"Delta":54560544},{"NoteNumber":75,"Velocity":67,"Duration":109915,"SoundDuration":109915,"Delta":54654883},{"NoteNumber":67,"Velocity":63,"Duration":109915,"SoundDuration":109915,"Delta":54654883},{"NoteNumber":77,"Velocity":71,"Duration":109034,"SoundDuration":109034,"Delta":54749223},{"NoteNumber":68,"Velocity":71,"Duration":109034,"SoundDuration":109034,"Delta":54749223},{"NoteNumber":74,"Velocity":65,"Duration":109034,"SoundDuration":109034,"Delta":54842681},{"NoteNumber":65,"Velocity":63,"Duration":109034,"SoundDuration":109034,"Delta":54842681},{"NoteNumber":72,"Velocity":65,"Duration":109587,"SoundDuration":109587,"Delta":54936139},{"NoteNumber":63,"Velocity":63,"Duration":109587,"SoundDuration":109587,"Delta":54936139},{"NoteNumber":74,"Velocity":65,"Duration":96774,"SoundDuration":96774,"Delta":55029597},{"NoteNumber":65,"Velocity":63,"Duration":96774,"SoundDuration":96774,"Delta":55029597},{"NoteNumber":71,"Velocity":75,"Duration":110410,"SoundDuration":110410,"Delta":55126371},{"NoteNumber":62,"Velocity":76,"Duration":110410,"SoundDuration":110410,"Delta":55126371},{"NoteNumber":74,"Velocity":67,"Duration":110410,"SoundDuration":110410,"Delta":55221008},{"NoteNumber":65,"Velocity":64,"Duration":110410,"SoundDuration":110410,"Delta":55221008},{"NoteNumber":72,"Velocity":65,"Duration":110410,"SoundDuration":110410,"Delta":55315645},{"NoteNumber":63,"Velocity":65,"Duration":110410,"SoundDuration":110410,"Delta":55315645},{"NoteNumber":74,"Velocity":67,"Duration":110213,"SoundDuration":110213,"Delta":55410283},{"NoteNumber":65,"Velocity":63,"Duration":110213,"SoundDuration":110213,"Delta":55410283},{"NoteNumber":75,"Velocity":71,"Duration":109034,"SoundDuration":109034,"Delta":55504920},{"NoteNumber":67,"Velocity":71,"Duration":109034,"SoundDuration":109034,"Delta":55504920},{"NoteNumber":72,"Velocity":65,"Duration":109034,"SoundDuration":109034,"Delta":55598378},{"NoteNumber":63,"Velocity":63,"Duration":109034,"SoundDuration":109034,"Delta":55598378},{"NoteNumber":71,"Velocity":65,"Duration":110124,"SoundDuration":110124,"Delta":55691836},{"NoteNumber":62,"Velocity":62,"Duration":110124,"SoundDuration":110124,"Delta":55691836},{"NoteNumber":72,"Velocity":65,"Duration":100000,"SoundDuration":100000,"Delta":55785294},{"NoteNumber":63,"Velocity":62,"Duration":100000,"SoundDuration":100000,"Delta":55785294},{"NoteNumber":67,"Velocity":75,"Duration":117720,"SoundDuration":117720,"Delta":55885294},{"NoteNumber":60,"Velocity":74,"Duration":117720,"SoundDuration":117720,"Delta":55885294},{"NoteNumber":72,"Velocity":67,"Duration":112179,"SoundDuration":112179,"Delta":55986989},{"NoteNumber":63,"Velocity":63,"Duration":112179,"SoundDuration":112179,"Delta":55986989},{"NoteNumber":71,"Velocity":64,"Duration":112179,"SoundDuration":112179,"Delta":56083143},{"NoteNumber":62,"Velocity":63,"Duration":112179,"SoundDuration":112179,"Delta":56083143},{"NoteNumber":72,"Velocity":65,"Duration":112077,"SoundDuration":112077,"Delta":56179296},{"NoteNumber":63,"Velocity":63,"Duration":112077,"SoundDuration":112077,"Delta":56179296},{"NoteNumber":68,"Velocity":80,"Duration":111465,"SoundDuration":111465,"Delta":56275450},{"NoteNumber":65,"Velocity":77,"Duration":111465,"SoundDuration":111465,"Delta":56275450},{"NoteNumber":77,"Velocity":65,"Duration":111465,"SoundDuration":111465,"Delta":56370992},{"NoteNumber":62,"Velocity":60,"Duration":111465,"SoundDuration":111465,"Delta":56370992},{"NoteNumber":75,"Velocity":65,"Duration":111775,"SoundDuration":111775,"Delta":56466533},{"NoteNumber":60,"Velocity":60,"Duration":111775,"SoundDuration":111775,"Delta":56466533},{"NoteNumber":77,"Velocity":64,"Duration":97402,"SoundDuration":97402,"Delta":56562075},{"NoteNumber":62,"Velocity":61,"Duration":97402,"SoundDuration":97402,"Delta":56562075},{"NoteNumber":67,"Velocity":80,"Duration":112179,"SoundDuration":112179,"Delta":56659477},{"NoteNumber":63,"Velocity":77,"Duration":112179,"SoundDuration":112179,"Delta":56659477},{"NoteNumber":75,"Velocity":67,"Duration":112179,"SoundDuration":112179,"Delta":56755631},{"NoteNumber":60,"Velocity":62,"Duration":112179,"SoundDuration":112179,"Delta":56755631},{"NoteNumber":74,"Velocity":65,"Duration":112179,"SoundDuration":112179,"Delta":56851785},{"NoteNumber":59,"Velocity":63,"Duration":112179,"SoundDuration":112179,"Delta":56851785},{"NoteNumber":75,"Velocity":67,"Duration":112077,"SoundDuration":112077,"Delta":56947938},{"NoteNumber":60,"Velocity":63,"Duration":112077,"SoundDuration":112077,"Delta":56947938},{"NoteNumber":65,"Velocity":81,"Duration":111465,"SoundDuration":111465,"Delta":57044092},{"NoteNumber":62,"Velocity":77,"Duration":111465,"SoundDuration":111465,"Delta":57044092},{"NoteNumber":74,"Velocity":65,"Duration":111465,"SoundDuration":111465,"Delta":57139634},{"NoteNumber":59,"Velocity":63,"Duration":111465,"SoundDuration":111465,"Delta":57139634},{"NoteNumber":72,"Velocity":65,"Duration":111881,"SoundDuration":111881,"Delta":57235175},{"NoteNumber":57,"Velocity":63,"Duration":111881,"SoundDuration":111881,"Delta":57235175},{"NoteNumber":74,"Velocity":65,"Duration":98039,"SoundDuration":98039,"Delta":57330717},{"NoteNumber":59,"Velocity":62,"Duration":98039,"SoundDuration":98039,"Delta":57330717},{"NoteNumber":63,"Velocity":81,"Duration":114379,"SoundDuration":114379,"Delta":57428756},{"NoteNumber":60,"Velocity":77,"Duration":114379,"SoundDuration":114379,"Delta":57428756},{"NoteNumber":72,"Velocity":67,"Duration":114379,"SoundDuration":114379,"Delta":57526795},{"NoteNumber":63,"Velocity":60,"Duration":114379,"SoundDuration":114379,"Delta":57526795},{"NoteNumber":71,"Velocity":65,"Duration":114379,"SoundDuration":114379,"Delta":57624834},{"NoteNumber":62,"Velocity":60,"Duration":114379,"SoundDuration":114379,"Delta":57624834},{"NoteNumber":72,"Velocity":67,"Duration":114379,"SoundDuration":114379,"Delta":57722874},{"NoteNumber":63,"Velocity":61,"Duration":114379,"SoundDuration":114379,"Delta":57722874},{"NoteNumber":68,"Velocity":81,"Duration":114379,"SoundDuration":114379,"Delta":57820913},{"NoteNumber":53,"Velocity":77,"Duration":114379,"SoundDuration":114379,"Delta":57820913},{"NoteNumber":65,"Velocity":66,"Duration":114379,"SoundDuration":114379,"Delta":57918952},{"NoteNumber":62,"Velocity":62,"Duration":114379,"SoundDuration":114379,"Delta":57918952},{"NoteNumber":63,"Velocity":66,"Duration":114379,"SoundDuration":114379,"Delta":58016991},{"NoteNumber":60,"Velocity":62,"Duration":114379,"SoundDuration":114379,"Delta":58016991},{"NoteNumber":65,"Velocity":66,"Duration":98039,"SoundDuration":98039,"Delta":58115031},{"NoteNumber":62,"Velocity":62,"Duration":98039,"SoundDuration":98039,"Delta":58115031},{"NoteNumber":67,"Velocity":81,"Duration":121107,"SoundDuration":121107,"Delta":58213070},{"NoteNumber":51,"Velocity":77,"Duration":121107,"SoundDuration":121107,"Delta":58213070},{"NoteNumber":63,"Velocity":67,"Duration":121107,"SoundDuration":121107,"Delta":58316876},{"NoteNumber":60,"Velocity":62,"Duration":121107,"SoundDuration":121107,"Delta":58316876},{"NoteNumber":62,"Velocity":65,"Duration":121107,"SoundDuration":121107,"Delta":58420682},{"NoteNumber":59,"Velocity":62,"Duration":121107,"SoundDuration":121107,"Delta":58420682},{"NoteNumber":63,"Velocity":65,"Duration":122256,"SoundDuration":122256,"Delta":58524489},{"NoteNumber":60,"Velocity":62,"Duration":122256,"SoundDuration":122256,"Delta":58524489},{"NoteNumber":65,"Velocity":81,"Duration":129151,"SoundDuration":129151,"Delta":58628295},{"NoteNumber":50,"Velocity":77,"Duration":129151,"SoundDuration":129151,"Delta":58628295},{"NoteNumber":62,"Velocity":66,"Duration":129151,"SoundDuration":129151,"Delta":58738996},{"NoteNumber":59,"Velocity":61,"Duration":129151,"SoundDuration":129151,"Delta":58738996},{"NoteNumber":60,"Velocity":66,"Duration":129151,"SoundDuration":129151,"Delta":58849697},{"NoteNumber":57,"Velocity":61,"Duration":129151,"SoundDuration":129151,"Delta":58849697},{"NoteNumber":62,"Velocity":67,"Duration":110700,"SoundDuration":110700,"Delta":58960398},{"NoteNumber":59,"Velocity":61,"Duration":110700,"SoundDuration":110700,"Delta":58960398},{"NoteNumber":48,"Velocity":67,"Duration":1967213,"SoundDuration":1967213,"Delta":59071099},{"NoteNumber":55,"Velocity":67,"Duration":1905737,"SoundDuration":1905737,"Delta":59132574},{"NoteNumber":58,"Velocity":67,"Duration":1844262,"SoundDuration":1844262,"Delta":59194050},{"NoteNumber":60,"Velocity":67,"Duration":1290983,"SoundDuration":1290983,"Delta":59255525},{"NoteNumber":64,"Velocity":67,"Duration":983606,"SoundDuration":983606,"Delta":59317001},{"NoteNumber":60,"Velocity":58,"Duration":737704,"SoundDuration":737704,"Delta":60300607},{"NoteNumber":62,"Velocity":60,"Duration":245901,"SoundDuration":245901,"Delta":60546509},{"NoteNumber":64,"Velocity":63,"Duration":245901,"SoundDuration":245901,"Delta":60792410},{"NoteNumber":65,"Velocity":66,"Duration":122950,"SoundDuration":122950,"Delta":61038312},{"NoteNumber":67,"Velocity":67,"Duration":122950,"SoundDuration":122950,"Delta":61161263},{"NoteNumber":68,"Velocity":68,"Duration":122950,"SoundDuration":122950,"Delta":61284214},{"NoteNumber":70,"Velocity":68,"Duration":122950,"SoundDuration":122950,"Delta":61407164},{"NoteNumber":72,"Velocity":66,"Duration":122950,"SoundDuration":122950,"Delta":61530115},{"NoteNumber":70,"Velocity":65,"Duration":122950,"SoundDuration":122950,"Delta":61653066},{"NoteNumber":68,"Velocity":64,"Duration":122950,"SoundDuration":122950,"Delta":61776017},{"NoteNumber":67,"Velocity":63,"Duration":122950,"SoundDuration":122950,"Delta":61898968},{"NoteNumber":65,"Velocity":62,"Duration":491803,"SoundDuration":491803,"Delta":62021918},{"NoteNumber":67,"Velocity":67,"Duration":245901,"SoundDuration":245901,"Delta":62513722},{"NoteNumber":64,"Velocity":67,"Duration":245901,"SoundDuration":245901,"Delta":62759623},{"NoteNumber":48,"Velocity":67,"Duration":1967212,"SoundDuration":1967212,"Delta":63005525},{"NoteNumber":53,"Velocity":67,"Duration":1905737,"SoundDuration":1905737,"Delta":63067000},{"NoteNumber":56,"Velocity":67,"Duration":1844262,"SoundDuration":1844262,"Delta":63128476},{"NoteNumber":60,"Velocity":67,"Duration":1782786,"SoundDuration":1782786,"Delta":63189951},{"NoteNumber":65,"Velocity":80,"Duration":81967,"SoundDuration":81967,"Delta":63251427},{"NoteNumber":64,"Velocity":70,"Duration":81967,"SoundDuration":81967,"Delta":63333394},{"NoteNumber":65,"Velocity":78,"Duration":819672,"SoundDuration":819672,"Delta":63415361},{"NoteNumber":67,"Velocity":67,"Duration":245901,"SoundDuration":245901,"Delta":64235033},{"NoteNumber":65,"Velocity":64,"Duration":245901,"SoundDuration":245901,"Delta":64480935},{"NoteNumber":64,"Velocity":64,"Duration":245901,"SoundDuration":245901,"Delta":64726836},{"NoteNumber":65,"Velocity":65,"Duration":245901,"SoundDuration":245901,"Delta":64972738},{"NoteNumber":67,"Velocity":65,"Duration":245901,"SoundDuration":245901,"Delta":65218640},{"NoteNumber":68,"Velocity":67,"Duration":245901,"SoundDuration":245901,"Delta":65464541},{"NoteNumber":67,"Velocity":67,"Duration":245901,"SoundDuration":245901,"Delta":65710443},{"NoteNumber":65,"Velocity":66,"Duration":122950,"SoundDuration":122950,"Delta":65956344},{"NoteNumber":63,"Velocity":65,"Duration":122950,"SoundDuration":122950,"Delta":66079295},{"NoteNumber":62,"Velocity":64,"Duration":122950,"SoundDuration":122950,"Delta":66202246},{"NoteNumber":63,"Velocity":65,"Duration":122950,"SoundDuration":122950,"Delta":66325197},{"NoteNumber":65,"Velocity":68,"Duration":122950,"SoundDuration":122950,"Delta":66448148},{"NoteNumber":62,"Velocity":63,"Duration":122950,"SoundDuration":122950,"Delta":66571098},{"NoteNumber":63,"Velocity":65,"Duration":122950,"SoundDuration":122950,"Delta":66694049},{"NoteNumber":65,"Velocity":67,"Duration":122950,"SoundDuration":122950,"Delta":66817000},{"NoteNumber":59,"Velocity":67,"Duration":342205,"SoundDuration":342205,"Delta":66939951},{"NoteNumber":36,"Velocity":60,"Duration":133079,"SoundDuration":133079,"Delta":67054019},{"NoteNumber":47,"Velocity":65,"Duration":1508221,"SoundDuration":1508221,"Delta":67168088},{"NoteNumber":50,"Velocity":69,"Duration":131862,"SoundDuration":131862,"Delta":67282156},{"NoteNumber":53,"Velocity":69,"Duration":124555,"SoundDuration":124555,"Delta":67396225},{"NoteNumber":56,"Velocity":72,"Duration":124555,"SoundDuration":124555,"Delta":67502986},{"NoteNumber":55,"Velocity":71,"Duration":124555,"SoundDuration":124555,"Delta":67609748},{"NoteNumber":53,"Velocity":69,"Duration":124555,"SoundDuration":124555,"Delta":67716509},{"NoteNumber":59,"Velocity":72,"Duration":124555,"SoundDuration":124555,"Delta":67823271},{"NoteNumber":53,"Velocity":67,"Duration":124555,"SoundDuration":124555,"Delta":67930032},{"NoteNumber":62,"Velocity":74,"Duration":124555,"SoundDuration":124555,"Delta":68036794},{"NoteNumber":53,"Velocity":67,"Duration":124367,"SoundDuration":124367,"Delta":68143555},{"NoteNumber":59,"Velocity":70,"Duration":123239,"SoundDuration":123239,"Delta":68250317},{"NoteNumber":56,"Velocity":69,"Duration":123239,"SoundDuration":123239,"Delta":68355951},{"NoteNumber":55,"Velocity":68,"Duration":123815,"SoundDuration":123815,"Delta":68461584},{"NoteNumber":53,"Velocity":67,"Duration":109091,"SoundDuration":109091,"Delta":68567218},{"NoteNumber":52,"Velocity":72,"Duration":134136,"SoundDuration":134136,"Delta":68676309},{"NoteNumber":61,"Velocity":67,"Duration":124999,"SoundDuration":124999,"Delta":68792588},{"NoteNumber":58,"Velocity":67,"Duration":124999,"SoundDuration":124999,"Delta":68899731},{"NoteNumber":55,"Velocity":67,"Duration":124746,"SoundDuration":124746,"Delta":69006874},{"NoteNumber":60,"Velocity":72,"Duration":124113,"SoundDuration":124113,"Delta":69113890},{"NoteNumber":56,"Velocity":67,"Duration":124113,"SoundDuration":124113,"Delta":69220273},{"NoteNumber":53,"Velocity":67,"Duration":124433,"SoundDuration":124433,"Delta":69326656},{"NoteNumber":56,"Velocity":67,"Duration":126160,"SoundDuration":126160,"Delta":69433039},{"NoteNumber":55,"Velocity":72,"Duration":124999,"SoundDuration":124999,"Delta":69541342},{"NoteNumber":58,"Velocity":67,"Duration":124625,"SoundDuration":124625,"Delta":69648485},{"NoteNumber":55,"Velocity":67,"Duration":123143,"SoundDuration":123143,"Delta":69755628},{"NoteNumber":52,"Velocity":67,"Duration":128076,"SoundDuration":128076,"Delta":69860523},{"NoteNumber":56,"Velocity":72,"Duration":129381,"SoundDuration":129381,"Delta":69970012},{"NoteNumber":53,"Velocity":67,"Duration":124625,"SoundDuration":124625,"Delta":70081536},{"NoteNumber":50,"Velocity":67,"Duration":123143,"SoundDuration":123143,"Delta":70188679},{"NoteNumber":53,"Velocity":67,"Duration":127737,"SoundDuration":127737,"Delta":70293574},{"NoteNumber":52,"Velocity":71,"Duration":127346,"SoundDuration":127346,"Delta":70403063},{"NoteNumber":55,"Velocity":67,"Duration":124625,"SoundDuration":124625,"Delta":70512552},{"NoteNumber":52,"Velocity":67,"Duration":123210,"SoundDuration":123210,"Delta":70619694},{"NoteNumber":48,"Velocity":67,"Duration":127747,"SoundDuration":127747,"Delta":70724589},{"NoteNumber":53,"Velocity":73,"Duration":124999,"SoundDuration":124999,"Delta":70834479},{"NoteNumber":50,"Velocity":67,"Duration":124564,"SoundDuration":124564,"Delta":70941622},{"NoteNumber":47,"Velocity":67,"Duration":122777,"SoundDuration":122777,"Delta":71048765},{"NoteNumber":50,"Velocity":67,"Duration":109488,"SoundDuration":109488,"Delta":71153294},{"NoteNumber":36,"Velocity":72,"Duration":4683190,"SoundDuration":4683190,"Delta":71262783},{"NoteNumber":43,"Velocity":67,"Duration":129861,"SoundDuration":129861,"Delta":71374724},{"NoteNumber":48,"Velocity":67,"Duration":4459310,"SoundDuration":4459310,"Delta":71486664},{"NoteNumber":50,"Velocity":67,"Duration":125448,"SoundDuration":125448,"Delta":71594191},{"NoteNumber":52,"Velocity":68,"Duration":125448,"SoundDuration":125448,"Delta":71701718},{"NoteNumber":55,"Velocity":67,"Duration":125448,"SoundDuration":125448,"Delta":71809245},{"NoteNumber":58,"Velocity":71,"Duration":125448,"SoundDuration":125448,"Delta":71916772},{"NoteNumber":55,"Velocity":67,"Duration":125842,"SoundDuration":125842,"Delta":72024299},{"NoteNumber":56,"Velocity":68,"Duration":128204,"SoundDuration":128204,"Delta":72131826},{"NoteNumber":60,"Velocity":65,"Duration":129120,"SoundDuration":129120,"Delta":72241716},{"NoteNumber":65,"Velocity":68,"Duration":134615,"SoundDuration":134615,"Delta":72351606},{"NoteNumber":62,"Velocity":67,"Duration":136936,"SoundDuration":136936,"Delta":72466990},{"NoteNumber":65,"Velocity":64,"Duration":150861,"SoundDuration":150861,"Delta":72582375},{"NoteNumber":68,"Velocity":59,"Duration":153006,"SoundDuration":153006,"Delta":72711685},{"NoteNumber":72,"Velocity":62,"Duration":165876,"SoundDuration":165876,"Delta":72840995},{"NoteNumber":71,"Velocity":57,"Duration":169502,"SoundDuration":169502,"Delta":72983175},{"NoteNumber":72,"Velocity":59,"Duration":194237,"SoundDuration":194237,"Delta":73125355},{"NoteNumber":67,"Velocity":54,"Duration":214930,"SoundDuration":214930,"Delta":73289290},{"NoteNumber":65,"Velocity":52,"Duration":278040,"SoundDuration":278040,"Delta":73471108},{"NoteNumber":62,"Velocity":49,"Duration":576190,"SoundDuration":576190,"Delta":73669784},{"NoteNumber":64,"Velocity":42,"Duration":1799999,"SoundDuration":1799999,"Delta":74145974},{"NoteNumber":72,"Velocity":81,"Duration":206754,"SoundDuration":206754,"Delta":78234482},{"NoteNumber":71,"Velocity":81,"Duration":206754,"SoundDuration":206754,"Delta":78441236},{"NoteNumber":72,"Velocity":86,"Duration":206754,"SoundDuration":206754,"Delta":78647990},{"NoteNumber":67,"Velocity":71,"Duration":426439,"SoundDuration":426439,"Delta":79061498},{"NoteNumber":68,"Velocity":72,"Duration":206754,"SoundDuration":206754,"Delta":79487937},{"NoteNumber":72,"Velocity":81,"Duration":206754,"SoundDuration":206754,"Delta":79901445},{"NoteNumber":71,"Velocity":81,"Duration":206754,"SoundDuration":206754,"Delta":80108199},{"NoteNumber":72,"Velocity":86,"Duration":206754,"SoundDuration":206754,"Delta":80314953},{"NoteNumber":74,"Velocity":76,"Duration":413508,"SoundDuration":413508,"Delta":80728461},{"NoteNumber":67,"Velocity":73,"Duration":206754,"SoundDuration":206754,"Delta":81141969},{"NoteNumber":72,"Velocity":81,"Duration":206754,"SoundDuration":206754,"Delta":81555477},{"NoteNumber":71,"Velocity":81,"Duration":206754,"SoundDuration":206754,"Delta":81762231},{"NoteNumber":72,"Velocity":86,"Duration":206754,"SoundDuration":206754,"Delta":81968985},{"NoteNumber":74,"Velocity":77,"Duration":206754,"SoundDuration":206754,"Delta":82382493},{"NoteNumber":65,"Velocity":75,"Duration":211864,"SoundDuration":211864,"Delta":82796001},{"NoteNumber":67,"Velocity":75,"Duration":211864,"SoundDuration":211864,"Delta":83007866},{"NoteNumber":68,"Velocity":81,"Duration":837237,"SoundDuration":837237,"Delta":83219730},{"NoteNumber":67,"Velocity":73,"Duration":206754,"SoundDuration":206754,"Delta":84056967},{"NoteNumber":65,"Velocity":71,"Duration":206753,"SoundDuration":206753,"Delta":84263721},{"NoteNumber":63,"Velocity":75,"Duration":103377,"SoundDuration":103377,"Delta":84470475},{"NoteNumber":72,"Velocity":71,"Duration":206754,"SoundDuration":206754,"Delta":84677229},{"NoteNumber":79,"Velocity":81,"Duration":206754,"SoundDuration":206754,"Delta":84883983},{"NoteNumber":71,"Velocity":62,"Duration":206754,"SoundDuration":206754,"Delta":84883983},{"NoteNumber":78,"Velocity":81,"Duration":206753,"SoundDuration":206753,"Delta":85090737},{"NoteNumber":68,"Velocity":62,"Duration":206753,"SoundDuration":206753,"Delta":85090737},{"NoteNumber":79,"Velocity":86,"Duration":206754,"SoundDuration":206754,"Delta":85297491},{"NoteNumber":67,"Velocity":62,"Duration":206754,"SoundDuration":206754,"Delta":85297491},{"NoteNumber":65,"Velocity":62,"Duration":206754,"SoundDuration":206754,"Delta":85504245},{"NoteNumber":72,"Velocity":71,"Duration":413507,"SoundDuration":413507,"Delta":85710999},{"NoteNumber":63,"Velocity":62,"Duration":206754,"SoundDuration":206754,"Delta":85710999},{"NoteNumber":62,"Velocity":62,"Duration":206753,"SoundDuration":206753,"Delta":85917753},{"NoteNumber":75,"Velocity":72,"Duration":206754,"SoundDuration":206754,"Delta":86124507},{"NoteNumber":60,"Velocity":67,"Duration":206754,"SoundDuration":206754,"Delta":86124507},{"NoteNumber":79,"Velocity":81,"Duration":206754,"SoundDuration":206754,"Delta":86538015},{"NoteNumber":75,"Velocity":65,"Duration":413507,"SoundDuration":413507,"Delta":86538015},{"NoteNumber":78,"Velocity":81,"Duration":206753,"SoundDuration":206753,"Delta":86744769},{"NoteNumber":79,"Velocity":86,"Duration":206754,"SoundDuration":206754,"Delta":86951523},{"NoteNumber":74,"Velocity":65,"Duration":413508,"SoundDuration":413508,"Delta":86951523},{"NoteNumber":81,"Velocity":76,"Duration":413507,"SoundDuration":413507,"Delta":87365031},{"NoteNumber":72,"Velocity":65,"Duration":413507,"SoundDuration":413507,"Delta":87365031},{"NoteNumber":74,"Velocity":73,"Duration":206754,"SoundDuration":206754,"Delta":87778539},{"NoteNumber":70,"Velocity":68,"Duration":206754,"SoundDuration":206754,"Delta":87778539},{"NoteNumber":79,"Velocity":81,"Duration":206754,"SoundDuration":206754,"Delta":88192047},{"NoteNumber":69,"Velocity":63,"Duration":413507,"SoundDuration":413507,"Delta":88192047},{"NoteNumber":78,"Velocity":81,"Duration":206753,"SoundDuration":206753,"Delta":88398801},{"NoteNumber":79,"Velocity":86,"Duration":206754,"SoundDuration":206754,"Delta":88605555},{"NoteNumber":70,"Velocity":67,"Duration":413508,"SoundDuration":413508,"Delta":88605555},{"NoteNumber":81,"Velocity":77,"Duration":413507,"SoundDuration":413507,"Delta":89019063},{"NoteNumber":72,"Velocity":62,"Duration":410062,"SoundDuration":410062,"Delta":89019063},{"NoteNumber":72,"Velocity":75,"Duration":214530,"SoundDuration":214530,"Delta":89432571},{"NoteNumber":66,"Velocity":67,"Duration":429062,"SoundDuration":429062,"Delta":89432571},{"NoteNumber":74,"Velocity":75,"Duration":214531,"SoundDuration":214531,"Delta":89647102},{"NoteNumber":75,"Velocity":81,"Duration":842569,"SoundDuration":842569,"Delta":89861633},{"NoteNumber":67,"Velocity":62,"Duration":429062,"SoundDuration":429062,"Delta":89861633},{"NoteNumber":69,"Velocity":66,"Duration":413507,"SoundDuration":413507,"Delta":90290695},{"NoteNumber":74,"Velocity":73,"Duration":206754,"SoundDuration":206754,"Delta":90704203},{"NoteNumber":66,"Velocity":63,"Duration":413507,"SoundDuration":413507,"Delta":90704203},{"NoteNumber":72,"Velocity":73,"Duration":206753,"SoundDuration":206753,"Delta":90910957},{"NoteNumber":70,"Velocity":78,"Duration":206754,"SoundDuration":206754,"Delta":91117711},{"NoteNumber":67,"Velocity":69,"Duration":827016,"SoundDuration":827016,"Delta":91117711},{"NoteNumber":75,"Velocity":81,"Duration":206754,"SoundDuration":206754,"Delta":91531219},{"NoteNumber":74,"Velocity":81,"Duration":206753,"SoundDuration":206753,"Delta":91737973},{"NoteNumber":75,"Velocity":86,"Duration":206754,"SoundDuration":206754,"Delta":91944727},{"NoteNumber":60,"Velocity":70,"Duration":206754,"SoundDuration":206754,"Delta":92151481},{"NoteNumber":67,"Velocity":71,"Duration":413507,"SoundDuration":413507,"Delta":92358235},{"NoteNumber":62,"Velocity":72,"Duration":206754,"SoundDuration":206754,"Delta":92358235},{"NoteNumber":63,"Velocity":74,"Duration":206753,"SoundDuration":206753,"Delta":92564989},{"NoteNumber":68,"Velocity":72,"Duration":206754,"SoundDuration":206754,"Delta":92771743},{"NoteNumber":65,"Velocity":75,"Duration":206754,"SoundDuration":206754,"Delta":92771743},{"NoteNumber":67,"Velocity":75,"Duration":206754,"SoundDuration":206754,"Delta":92978497},{"NoteNumber":77,"Velocity":81,"Duration":206754,"SoundDuration":206754,"Delta":93185251},{"NoteNumber":68,"Velocity":79,"Duration":620261,"SoundDuration":620261,"Delta":93185251},{"NoteNumber":75,"Velocity":81,"Duration":206753,"SoundDuration":206753,"Delta":93392005},{"NoteNumber":77,"Velocity":86,"Duration":206754,"SoundDuration":206754,"Delta":93598759},{"NoteNumber":62,"Velocity":71,"Duration":206754,"SoundDuration":206754,"Delta":93805513},{"NoteNumber":69,"Velocity":76,"Duration":413507,"SoundDuration":413507,"Delta":94012267},{"NoteNumber":63,"Velocity":73,"Duration":206754,"SoundDuration":206754,"Delta":94012267},{"NoteNumber":65,"Velocity":74,"Duration":206753,"SoundDuration":206753,"Delta":94219021},{"NoteNumber":70,"Velocity":78,"Duration":206754,"SoundDuration":206754,"Delta":94425775},{"NoteNumber":67,"Velocity":76,"Duration":206754,"SoundDuration":206754,"Delta":94425775},{"NoteNumber":69,"Velocity":77,"Duration":206754,"SoundDuration":206754,"Delta":94632529},{"NoteNumber":79,"Velocity":81,"Duration":206754,"SoundDuration":206754,"Delta":94839283},{"NoteNumber":70,"Velocity":79,"Duration":620261,"SoundDuration":620261,"Delta":94839283},{"NoteNumber":77,"Velocity":81,"Duration":206753,"SoundDuration":206753,"Delta":95046037},{"NoteNumber":79,"Velocity":86,"Duration":206754,"SoundDuration":206754,"Delta":95252791},{"NoteNumber":63,"Velocity":69,"Duration":206754,"SoundDuration":206754,"Delta":95459545},{"NoteNumber":71,"Velocity":71,"Duration":413507,"SoundDuration":413507,"Delta":95666299},{"NoteNumber":65,"Velocity":71,"Duration":206754,"SoundDuration":206754,"Delta":95666299},{"NoteNumber":67,"Velocity":73,"Duration":206753,"SoundDuration":206753,"Delta":95873053},{"NoteNumber":72,"Velocity":72,"Duration":206754,"SoundDuration":206754,"Delta":96079807},{"NoteNumber":68,"Velocity":74,"Duration":206754,"SoundDuration":206754,"Delta":96079807},{"NoteNumber":67,"Velocity":73,"Duration":206754,"SoundDuration":206754,"Delta":96286561},{"NoteNumber":74,"Velocity":81,"Duration":206754,"SoundDuration":206754,"Delta":96493315},{"NoteNumber":65,"Velocity":72,"Duration":206754,"SoundDuration":206754,"Delta":96493315},{"NoteNumber":75,"Velocity":81,"Duration":206753,"SoundDuration":206753,"Delta":96700069},{"NoteNumber":63,"Velocity":71,"Duration":206753,"SoundDuration":206753,"Delta":96700069},{"NoteNumber":77,"Velocity":86,"Duration":1240524,"SoundDuration":1240524,"Delta":96906823},{"NoteNumber":62,"Velocity":70,"Duration":206754,"SoundDuration":206754,"Delta":96906823},{"NoteNumber":72,"Velocity":78,"Duration":206754,"SoundDuration":206754,"Delta":97320331},{"NoteNumber":71,"Velocity":78,"Duration":206753,"SoundDuration":206753,"Delta":97527085},{"NoteNumber":72,"Velocity":83,"Duration":206754,"SoundDuration":206754,"Delta":97733839},{"NoteNumber":75,"Velocity":71,"Duration":206754,"SoundDuration":206754,"Delta":98147347},{"NoteNumber":60,"Velocity":81,"Duration":206754,"SoundDuration":206754,"Delta":98147347},{"NoteNumber":74,"Velocity":71,"Duration":206753,"SoundDuration":206753,"Delta":98354101},{"NoteNumber":59,"Velocity":81,"Duration":206753,"SoundDuration":206753,"Delta":98354101},{"NoteNumber":72,"Velocity":70,"Duration":206754,"SoundDuration":206754,"Delta":98560855},{"NoteNumber":60,"Velocity":86,"Duration":206754,"SoundDuration":206754,"Delta":98560855},{"NoteNumber":70,"Velocity":69,"Duration":206754,"SoundDuration":206754,"Delta":98767609},{"NoteNumber":68,"Velocity":69,"Duration":215920,"SoundDuration":215920,"Delta":98974363},{"NoteNumber":55,"Velocity":71,"Duration":431841,"SoundDuration":431841,"Delta":98974363},{"NoteNumber":67,"Velocity":68,"Duration":215920,"SoundDuration":215920,"Delta":99190284},{"NoteNumber":65,"Velocity":68,"Duration":206754,"SoundDuration":206754,"Delta":99406204},{"NoteNumber":56,"Velocity":72,"Duration":206754,"SoundDuration":206754,"Delta":99406204},{"NoteNumber":80,"Velocity":74,"Duration":413508,"SoundDuration":413508,"Delta":99819712},{"NoteNumber":77,"Velocity":74,"Duration":413508,"SoundDuration":413508,"Delta":99819712},{"NoteNumber":60,"Velocity":81,"Duration":206754,"SoundDuration":206754,"Delta":99819712},{"NoteNumber":59,"Velocity":81,"Duration":206754,"SoundDuration":206754,"Delta":100026466},{"NoteNumber":79,"Velocity":73,"Duration":413507,"SoundDuration":413507,"Delta":100233220},{"NoteNumber":75,"Velocity":73,"Duration":413507,"SoundDuration":413507,"Delta":100233220},{"NoteNumber":60,"Velocity":86,"Duration":206754,"SoundDuration":206754,"Delta":100233220},{"NoteNumber":77,"Velocity":73,"Duration":413508,"SoundDuration":413508,"Delta":100646728},{"NoteNumber":74,"Velocity":72,"Duration":413508,"SoundDuration":413508,"Delta":100646728},{"NoteNumber":62,"Velocity":76,"Duration":413508,"SoundDuration":413508,"Delta":100646728},{"NoteNumber":75,"Velocity":72,"Duration":206754,"SoundDuration":206754,"Delta":101060236},{"NoteNumber":55,"Velocity":73,"Duration":206754,"SoundDuration":206754,"Delta":101060236},{"NoteNumber":74,"Velocity":74,"Duration":413508,"SoundDuration":413508,"Delta":101473744},{"NoteNumber":68,"Velocity":73,"Duration":413508,"SoundDuration":413508,"Delta":101473744},{"NoteNumber":60,"Velocity":81,"Duration":206754,"SoundDuration":206754,"Delta":101473744},{"NoteNumber":59,"Velocity":81,"Duration":206754,"SoundDuration":206754,"Delta":101680498},{"NoteNumber":75,"Velocity":74,"Duration":413507,"SoundDuration":413507,"Delta":101887252},{"NoteNumber":67,"Velocity":73,"Duration":413507,"SoundDuration":413507,"Delta":101887252},{"NoteNumber":60,"Velocity":86,"Duration":206754,"SoundDuration":206754,"Delta":101887252},{"NoteNumber":77,"Velocity":74,"Duration":413508,"SoundDuration":413508,"Delta":102300760},{"NoteNumber":65,"Velocity":73,"Duration":413508,"SoundDuration":413508,"Delta":102300760},{"NoteNumber":62,"Velocity":77,"Duration":206754,"SoundDuration":206754,"Delta":102300760},{"NoteNumber":71,"Velocity":81,"Duration":214530,"SoundDuration":214530,"Delta":102714268},{"NoteNumber":67,"Velocity":75,"Duration":214530,"SoundDuration":214530,"Delta":102714268},{"NoteNumber":53,"Velocity":72,"Duration":214530,"SoundDuration":214530,"Delta":102714268},{"NoteNumber":55,"Velocity":72,"Duration":214531,"SoundDuration":214531,"Delta":102928799},{"NoteNumber":72,"Velocity":77,"Duration":429062,"SoundDuration":429062,"Delta":103143330},{"NoteNumber":65,"Velocity":78,"Duration":214530,"SoundDuration":214530,"Delta":103143330},{"NoteNumber":56,"Velocity":74,"Duration":842569,"SoundDuration":842569,"Delta":103143330},{"NoteNumber":63,"Velocity":78,"Duration":214531,"SoundDuration":214531,"Delta":103357861},{"NoteNumber":74,"Velocity":77,"Duration":413507,"SoundDuration":413507,"Delta":103572392},{"NoteNumber":65,"Velocity":84,"Duration":206754,"SoundDuration":206754,"Delta":103572392},{"NoteNumber":71,"Velocity":77,"Duration":413507,"SoundDuration":413507,"Delta":103985900},{"NoteNumber":62,"Velocity":76,"Duration":413507,"SoundDuration":413507,"Delta":103985900},{"NoteNumber":55,"Velocity":73,"Duration":206754,"SoundDuration":206754,"Delta":103985900},{"NoteNumber":53,"Velocity":73,"Duration":206753,"SoundDuration":206753,"Delta":104192654},{"NoteNumber":72,"Velocity":81,"Duration":413508,"SoundDuration":413508,"Delta":104399408},{"NoteNumber":67,"Velocity":82,"Duration":827016,"SoundDuration":827016,"Delta":104399408},{"NoteNumber":51,"Velocity":72,"Duration":103377,"SoundDuration":103377,"Delta":104399408},{"NoteNumber":60,"Velocity":75,"Duration":206754,"SoundDuration":206754,"Delta":104606162},{"NoteNumber":79,"Velocity":81,"Duration":206754,"SoundDuration":206754,"Delta":104812916},{"NoteNumber":59,"Velocity":74,"Duration":206754,"SoundDuration":206754,"Delta":104812916},{"NoteNumber":78,"Velocity":81,"Duration":206753,"SoundDuration":206753,"Delta":105019670},{"NoteNumber":57,"Velocity":73,"Duration":206753,"SoundDuration":206753,"Delta":105019670},{"NoteNumber":79,"Velocity":86,"Duration":206754,"SoundDuration":206754,"Delta":105226424},{"NoteNumber":55,"Velocity":72,"Duration":206754,"SoundDuration":206754,"Delta":105226424},{"NoteNumber":53,"Velocity":70,"Duration":206754,"SoundDuration":206754,"Delta":105433178},{"NoteNumber":74,"Velocity":71,"Duration":423728,"SoundDuration":423728,"Delta":105639932},{"NoteNumber":71,"Velocity":72,"Duration":423728,"SoundDuration":423728,"Delta":105639932},{"NoteNumber":51,"Velocity":69,"Duration":211864,"SoundDuration":211864,"Delta":105639932},{"NoteNumber":50,"Velocity":68,"Duration":211864,"SoundDuration":211864,"Delta":105851797},{"NoteNumber":75,"Velocity":72,"Duration":837237,"SoundDuration":837237,"Delta":106063661},{"NoteNumber":72,"Velocity":72,"Duration":211864,"SoundDuration":211864,"Delta":106063661},{"NoteNumber":48,"Velocity":67,"Duration":211864,"SoundDuration":211864,"Delta":106063661},{"NoteNumber":50,"Velocity":70,"Duration":211864,"SoundDuration":211864,"Delta":106275526},{"NoteNumber":72,"Velocity":82,"Duration":206754,"SoundDuration":206754,"Delta":106487390},{"NoteNumber":51,"Velocity":71,"Duration":206754,"SoundDuration":206754,"Delta":106487390},{"NoteNumber":71,"Velocity":82,"Duration":206753,"SoundDuration":206753,"Delta":106694144},{"NoteNumber":50,"Velocity":70,"Duration":206753,"SoundDuration":206753,"Delta":106694144},{"NoteNumber":72,"Velocity":87,"Duration":206754,"SoundDuration":206754,"Delta":106900898},{"NoteNumber":48,"Velocity":67,"Duration":206754,"SoundDuration":206754,"Delta":106900898},{"NoteNumber":46,"Velocity":71,"Duration":206754,"SoundDuration":206754,"Delta":107107652},{"NoteNumber":76,"Velocity":72,"Duration":429062,"SoundDuration":429062,"Delta":107314406},{"NoteNumber":67,"Velocity":73,"Duration":429062,"SoundDuration":429062,"Delta":107314406},{"NoteNumber":44,"Velocity":70,"Duration":214530,"SoundDuration":214530,"Delta":107314406},{"NoteNumber":43,"Velocity":68,"Duration":214531,"SoundDuration":214531,"Delta":107528937},{"NoteNumber":77,"Velocity":81,"Duration":214530,"SoundDuration":214530,"Delta":107743468},{"NoteNumber":68,"Velocity":73,"Duration":842569,"SoundDuration":842569,"Delta":107743468},{"NoteNumber":41,"Velocity":67,"Duration":107265,"SoundDuration":107265,"Delta":107743468},{"NoteNumber":58,"Velocity":74,"Duration":214531,"SoundDuration":214531,"Delta":107957999},{"NoteNumber":77,"Velocity":81,"Duration":206754,"SoundDuration":206754,"Delta":108172530},{"NoteNumber":56,"Velocity":74,"Duration":206754,"SoundDuration":206754,"Delta":108172530},{"NoteNumber":76,"Velocity":81,"Duration":206753,"SoundDuration":206753,"Delta":108379284},{"NoteNumber":55,"Velocity":73,"Duration":206753,"SoundDuration":206753,"Delta":108379284},{"NoteNumber":77,"Velocity":86,"Duration":206754,"SoundDuration":206754,"Delta":108586038},{"NoteNumber":53,"Velocity":72,"Duration":206754,"SoundDuration":206754,"Delta":108586038},{"NoteNumber":51,"Velocity":72,"Duration":206754,"SoundDuration":206754,"Delta":108792792},{"NoteNumber":72,"Velocity":71,"Duration":413507,"SoundDuration":413507,"Delta":108999546},{"NoteNumber":69,"Velocity":71,"Duration":413507,"SoundDuration":413507,"Delta":108999546},{"NoteNumber":50,"Velocity":71,"Duration":206754,"SoundDuration":206754,"Delta":108999546},{"NoteNumber":48,"Velocity":70,"Duration":206753,"SoundDuration":206753,"Delta":109206300},{"NoteNumber":74,"Velocity":72,"Duration":827016,"SoundDuration":827016,"Delta":109413054},{"NoteNumber":70,"Velocity":71,"Duration":206754,"SoundDuration":206754,"Delta":109413054},{"NoteNumber":46,"Velocity":70,"Duration":206754,"SoundDuration":206754,"Delta":109413054},{"NoteNumber":48,"Velocity":71,"Duration":206754,"SoundDuration":206754,"Delta":109619808},{"NoteNumber":70,"Velocity":82,"Duration":206754,"SoundDuration":206754,"Delta":109826562},{"NoteNumber":50,"Velocity":71,"Duration":206754,"SoundDuration":206754,"Delta":109826562},{"NoteNumber":69,"Velocity":82,"Duration":206753,"SoundDuration":206753,"Delta":110033316},{"NoteNumber":48,"Velocity":73,"Duration":206753,"SoundDuration":206753,"Delta":110033316},{"NoteNumber":70,"Velocity":86,"Duration":206754,"SoundDuration":206754,"Delta":110240070},{"NoteNumber":46,"Velocity":71,"Duration":206754,"SoundDuration":206754,"Delta":110240070},{"NoteNumber":44,"Velocity":70,"Duration":206754,"SoundDuration":206754,"Delta":110446824},{"NoteNumber":74,"Velocity":72,"Duration":429062,"SoundDuration":429062,"Delta":110653578},{"NoteNumber":65,"Velocity":75,"Duration":429062,"SoundDuration":429062,"Delta":110653578},{"NoteNumber":43,"Velocity":68,"Duration":214530,"SoundDuration":214530,"Delta":110653578},{"NoteNumber":41,"Velocity":66,"Duration":214531,"SoundDuration":214531,"Delta":110868109},{"NoteNumber":75,"Velocity":81,"Duration":214530,"SoundDuration":214530,"Delta":111082640},{"NoteNumber":67,"Velocity":75,"Duration":842569,"SoundDuration":842569,"Delta":111082640},{"NoteNumber":39,"Velocity":65,"Duration":107265,"SoundDuration":107265,"Delta":111082640},{"NoteNumber":56,"Velocity":75,"Duration":214531,"SoundDuration":214531,"Delta":111297171},{"NoteNumber":75,"Velocity":81,"Duration":206754,"SoundDuration":206754,"Delta":111511702},{"NoteNumber":55,"Velocity":74,"Duration":206754,"SoundDuration":206754,"Delta":111511702},{"NoteNumber":74,"Velocity":81,"Duration":206753,"SoundDuration":206753,"Delta":111718456},{"NoteNumber":53,"Velocity":73,"Duration":206753,"SoundDuration":206753,"Delta":111718456},{"NoteNumber":75,"Velocity":86,"Duration":206754,"SoundDuration":206754,"Delta":111925210},{"NoteNumber":51,"Velocity":72,"Duration":206754,"SoundDuration":206754,"Delta":111925210},{"NoteNumber":49,"Velocity":71,"Duration":206754,"SoundDuration":206754,"Delta":112131964},{"NoteNumber":70,"Velocity":71,"Duration":413507,"SoundDuration":413507,"Delta":112338718},{"NoteNumber":67,"Velocity":74,"Duration":413507,"SoundDuration":413507,"Delta":112338718},{"NoteNumber":48,"Velocity":70,"Duration":206754,"SoundDuration":206754,"Delta":112338718},{"NoteNumber":46,"Velocity":69,"Duration":206753,"SoundDuration":206753,"Delta":112545472},{"NoteNumber":72,"Velocity":76,"Duration":206754,"SoundDuration":206754,"Delta":112752226},{"NoteNumber":68,"Velocity":74,"Duration":206754,"SoundDuration":206754,"Delta":112752226},{"NoteNumber":44,"Velocity":68,"Duration":206754,"SoundDuration":206754,"Delta":112752226},{"NoteNumber":75,"Velocity":81,"Duration":210585,"SoundDuration":210585,"Delta":113165734},{"NoteNumber":68,"Velocity":75,"Duration":421171,"SoundDuration":421171,"Delta":113165734},{"NoteNumber":60,"Velocity":75,"Duration":421171,"SoundDuration":421171,"Delta":113165734},{"NoteNumber":74,"Velocity":81,"Duration":210585,"SoundDuration":210585,"Delta":113376320},{"NoteNumber":75,"Velocity":86,"Duration":210585,"SoundDuration":210585,"Delta":113586905},{"NoteNumber":67,"Velocity":74,"Duration":421171,"SoundDuration":421171,"Delta":113586905},{"NoteNumber":58,"Velocity":74,"Duration":421171,"SoundDuration":421171,"Delta":113586905},{"NoteNumber":77,"Velocity":81,"Duration":421171,"SoundDuration":421171,"Delta":114008076},{"NoteNumber":65,"Velocity":72,"Duration":421171,"SoundDuration":421171,"Delta":114008076},{"NoteNumber":56,"Velocity":72,"Duration":421171,"SoundDuration":421171,"Delta":114008076},{"NoteNumber":70,"Velocity":81,"Duration":210585,"SoundDuration":210585,"Delta":114429247},{"NoteNumber":55,"Velocity":72,"Duration":210585,"SoundDuration":210585,"Delta":114429247},{"NoteNumber":75,"Velocity":81,"Duration":210585,"SoundDuration":210585,"Delta":114850418},{"NoteNumber":56,"Velocity":66,"Duration":421171,"SoundDuration":421171,"Delta":114850418},{"NoteNumber":53,"Velocity":66,"Duration":421171,"SoundDuration":421171,"Delta":114850418},{"NoteNumber":74,"Velocity":81,"Duration":210585,"SoundDuration":210585,"Delta":115061004},{"NoteNumber":75,"Velocity":86,"Duration":421171,"SoundDuration":421171,"Delta":115271589},{"NoteNumber":58,"Velocity":69,"Duration":421171,"SoundDuration":421171,"Delta":115271589},{"NoteNumber":55,"Velocity":69,"Duration":421171,"SoundDuration":421171,"Delta":115271589},{"NoteNumber":77,"Velocity":81,"Duration":315878,"SoundDuration":315878,"Delta":115692760},{"NoteNumber":60,"Velocity":71,"Duration":315878,"SoundDuration":315878,"Delta":115692760},{"NoteNumber":56,"Velocity":71,"Duration":315878,"SoundDuration":315878,"Delta":115692760},{"NoteNumber":68,"Velocity":75,"Duration":214530,"SoundDuration":214530,"Delta":116113931},{"NoteNumber":50,"Velocity":65,"Duration":429062,"SoundDuration":429062,"Delta":116113931},{"NoteNumber":70,"Velocity":75,"Duration":214531,"SoundDuration":214531,"Delta":116328462},{"NoteNumber":72,"Velocity":81,"Duration":847705,"SoundDuration":847705,"Delta":116542993},{"NoteNumber":56,"Velocity":73,"Duration":214530,"SoundDuration":214530,"Delta":116542993},{"NoteNumber":51,"Velocity":69,"Duration":429062,"SoundDuration":429062,"Delta":116542993},{"NoteNumber":55,"Velocity":73,"Duration":214531,"SoundDuration":214531,"Delta":116757524},{"NoteNumber":56,"Velocity":78,"Duration":209321,"SoundDuration":209321,"Delta":116972055},{"NoteNumber":53,"Velocity":72,"Duration":418643,"SoundDuration":418643,"Delta":116972055},{"NoteNumber":70,"Velocity":76,"Duration":209321,"SoundDuration":209321,"Delta":117390699},{"NoteNumber":53,"Velocity":72,"Duration":418643,"SoundDuration":418643,"Delta":117390699},{"NoteNumber":50,"Velocity":68,"Duration":418643,"SoundDuration":418643,"Delta":117390699},{"NoteNumber":68,"Velocity":76,"Duration":209321,"SoundDuration":209321,"Delta":117600020},{"NoteNumber":67,"Velocity":72,"Duration":104660,"SoundDuration":104660,"Delta":117809342},{"NoteNumber":58,"Velocity":71,"Duration":209321,"SoundDuration":209321,"Delta":117809342},{"NoteNumber":51,"Velocity":67,"Duration":209321,"SoundDuration":209321,"Delta":117809342},{"NoteNumber":63,"Velocity":69,"Duration":209321,"SoundDuration":209321,"Delta":118018664},{"NoteNumber":65,"Velocity":70,"Duration":206754,"SoundDuration":206754,"Delta":118227986},{"NoteNumber":60,"Velocity":65,"Duration":413507,"SoundDuration":413507,"Delta":118227986},{"NoteNumber":56,"Velocity":56,"Duration":413507,"SoundDuration":413507,"Delta":118227986},{"NoteNumber":67,"Velocity":71,"Duration":206753,"SoundDuration":206753,"Delta":118434740},{"NoteNumber":68,"Velocity":72,"Duration":206754,"SoundDuration":206754,"Delta":118641494},{"NoteNumber":58,"Velocity":63,"Duration":413508,"SoundDuration":413508,"Delta":118641494},{"NoteNumber":55,"Velocity":55,"Duration":413508,"SoundDuration":413508,"Delta":118641494},{"NoteNumber":70,"Velocity":74,"Duration":206754,"SoundDuration":206754,"Delta":118848248},{"NoteNumber":72,"Velocity":75,"Duration":206754,"SoundDuration":206754,"Delta":119055002},{"NoteNumber":56,"Velocity":61,"Duration":413507,"SoundDuration":413507,"Delta":119055002},{"NoteNumber":53,"Velocity":53,"Duration":413507,"SoundDuration":413507,"Delta":119055002},{"NoteNumber":74,"Velocity":76,"Duration":206753,"SoundDuration":206753,"Delta":119261756},{"NoteNumber":75,"Velocity":77,"Duration":206754,"SoundDuration":206754,"Delta":119468510},{"NoteNumber":58,"Velocity":57,"Duration":206754,"SoundDuration":206754,"Delta":119468510},{"NoteNumber":55,"Velocity":55,"Duration":206754,"SoundDuration":206754,"Delta":119468510},{"NoteNumber":74,"Velocity":76,"Duration":206754,"SoundDuration":206754,"Delta":119675264},{"NoteNumber":72,"Velocity":75,"Duration":206754,"SoundDuration":206754,"Delta":119882018},{"NoteNumber":55,"Velocity":68,"Duration":413507,"SoundDuration":413507,"Delta":119882018},{"NoteNumber":53,"Velocity":56,"Duration":413507,"SoundDuration":413507,"Delta":119882018},{"NoteNumber":74,"Velocity":75,"Duration":206753,"SoundDuration":206753,"Delta":120088772},{"NoteNumber":75,"Velocity":77,"Duration":206754,"SoundDuration":206754,"Delta":120295526},{"NoteNumber":53,"Velocity":66,"Duration":413508,"SoundDuration":413508,"Delta":120295526},{"NoteNumber":50,"Velocity":55,"Duration":413508,"SoundDuration":413508,"Delta":120295526},{"NoteNumber":77,"Velocity":80,"Duration":206754,"SoundDuration":206754,"Delta":120502280},{"NoteNumber":79,"Velocity":82,"Duration":206754,"SoundDuration":206754,"Delta":120709034},{"NoteNumber":51,"Velocity":65,"Duration":413507,"SoundDuration":413507,"Delta":120709034},{"NoteNumber":48,"Velocity":52,"Duration":413507,"SoundDuration":413507,"Delta":120709034},{"NoteNumber":81,"Velocity":85,"Duration":206753,"SoundDuration":206753,"Delta":120915788},{"NoteNumber":82,"Velocity":88,"Duration":103377,"SoundDuration":103377,"Delta":121122542},{"NoteNumber":53,"Velocity":63,"Duration":206754,"SoundDuration":206754,"Delta":121122542},{"NoteNumber":50,"Velocity":50,"Duration":206754,"SoundDuration":206754,"Delta":121122542},{"NoteNumber":65,"Velocity":67,"Duration":206754,"SoundDuration":206754,"Delta":121329296},{"NoteNumber":67,"Velocity":68,"Duration":206754,"SoundDuration":206754,"Delta":121536050},{"NoteNumber":61,"Velocity":71,"Duration":413507,"SoundDuration":413507,"Delta":121536050},{"NoteNumber":58,"Velocity":54,"Duration":413507,"SoundDuration":413507,"Delta":121536050},{"NoteNumber":68,"Velocity":69,"Duration":206753,"SoundDuration":206753,"Delta":121742804},{"NoteNumber":70,"Velocity":71,"Duration":206754,"SoundDuration":206754,"Delta":121949558},{"NoteNumber":60,"Velocity":69,"Duration":413508,"SoundDuration":413508,"Delta":121949558},{"NoteNumber":56,"Velocity":52,"Duration":413508,"SoundDuration":413508,"Delta":121949558},{"NoteNumber":72,"Velocity":72,"Duration":206754,"SoundDuration":206754,"Delta":122156312},{"NoteNumber":74,"Velocity":73,"Duration":206754,"SoundDuration":206754,"Delta":122363066},{"NoteNumber":58,"Velocity":67,"Duration":413507,"SoundDuration":413507,"Delta":122363066},{"NoteNumber":55,"Velocity":51,"Duration":413507,"SoundDuration":413507,"Delta":122363066},{"NoteNumber":76,"Velocity":74,"Duration":206753,"SoundDuration":206753,"Delta":122569820},{"NoteNumber":77,"Velocity":76,"Duration":206754,"SoundDuration":206754,"Delta":122776574},{"NoteNumber":60,"Velocity":65,"Duration":206754,"SoundDuration":206754,"Delta":122776574},{"NoteNumber":56,"Velocity":54,"Duration":206754,"SoundDuration":206754,"Delta":122776574},{"NoteNumber":75,"Velocity":75,"Duration":206754,"SoundDuration":206754,"Delta":122983328},{"NoteNumber":74,"Velocity":73,"Duration":206754,"SoundDuration":206754,"Delta":123190082},{"NoteNumber":56,"Velocity":68,"Duration":413507,"SoundDuration":413507,"Delta":123190082},{"NoteNumber":53,"Velocity":55,"Duration":413507,"SoundDuration":413507,"Delta":123190082},{"NoteNumber":75,"Velocity":76,"Duration":206753,"SoundDuration":206753,"Delta":123396836},{"NoteNumber":77,"Velocity":75,"Duration":206754,"SoundDuration":206754,"Delta":123603590},{"NoteNumber":55,"Velocity":67,"Duration":413508,"SoundDuration":413508,"Delta":123603590},{"NoteNumber":51,"Velocity":52,"Duration":413508,"SoundDuration":413508,"Delta":123603590},{"NoteNumber":79,"Velocity":78,"Duration":206754,"SoundDuration":206754,"Delta":123810344},{"NoteNumber":81,"Velocity":81,"Duration":206754,"SoundDuration":206754,"Delta":124017098},{"NoteNumber":53,"Velocity":65,"Duration":413507,"SoundDuration":413507,"Delta":124017098},{"NoteNumber":50,"Velocity":48,"Duration":413507,"SoundDuration":413507,"Delta":124017098},{"NoteNumber":83,"Velocity":84,"Duration":206753,"SoundDuration":206753,"Delta":124223852},{"NoteNumber":84,"Velocity":87,"Duration":206754,"SoundDuration":206754,"Delta":124430606},{"NoteNumber":55,"Velocity":64,"Duration":206754,"SoundDuration":206754,"Delta":124430606},{"NoteNumber":51,"Velocity":63,"Duration":206754,"SoundDuration":206754,"Delta":124430606},{"NoteNumber":83,"Velocity":82,"Duration":206754,"SoundDuration":206754,"Delta":124844114},{"NoteNumber":67,"Velocity":80,"Duration":206754,"SoundDuration":206754,"Delta":124844114},{"NoteNumber":81,"Velocity":80,"Duration":206753,"SoundDuration":206753,"Delta":125050868},{"NoteNumber":66,"Velocity":80,"Duration":206753,"SoundDuration":206753,"Delta":125050868},{"NoteNumber":79,"Velocity":79,"Duration":206754,"SoundDuration":206754,"Delta":125257622},{"NoteNumber":67,"Velocity":88,"Duration":206754,"SoundDuration":206754,"Delta":125257622},{"NoteNumber":77,"Velocity":78,"Duration":206754,"SoundDuration":206754,"Delta":125464376},{"NoteNumber":75,"Velocity":77,"Duration":206754,"SoundDuration":206754,"Delta":125671130},{"NoteNumber":60,"Velocity":74,"Duration":413507,"SoundDuration":413507,"Delta":125671130},{"NoteNumber":74,"Velocity":76,"Duration":206753,"SoundDuration":206753,"Delta":125877884},{"NoteNumber":72,"Velocity":75,"Duration":206754,"SoundDuration":206754,"Delta":126084638},{"NoteNumber":63,"Velocity":74,"Duration":206754,"SoundDuration":206754,"Delta":126084638},{"NoteNumber":75,"Velocity":73,"Duration":426439,"SoundDuration":426439,"Delta":126498146},{"NoteNumber":67,"Velocity":80,"Duration":213219,"SoundDuration":213219,"Delta":126498146},{"NoteNumber":48,"Velocity":59,"Duration":426439,"SoundDuration":426439,"Delta":126498146},{"NoteNumber":66,"Velocity":80,"Duration":213219,"SoundDuration":213219,"Delta":126711365},{"NoteNumber":74,"Velocity":71,"Duration":426439,"SoundDuration":426439,"Delta":126924585},{"NoteNumber":67,"Velocity":87,"Duration":426439,"SoundDuration":426439,"Delta":126924585},{"NoteNumber":46,"Velocity":58,"Duration":426439,"SoundDuration":426439,"Delta":126924585},{"NoteNumber":72,"Velocity":70,"Duration":426439,"SoundDuration":426439,"Delta":127351024},{"NoteNumber":69,"Velocity":77,"Duration":426439,"SoundDuration":426439,"Delta":127351024},{"NoteNumber":45,"Velocity":56,"Duration":426439,"SoundDuration":426439,"Delta":127351024},{"NoteNumber":70,"Velocity":68,"Duration":213219,"SoundDuration":213219,"Delta":127777463},{"NoteNumber":62,"Velocity":76,"Duration":213219,"SoundDuration":213219,"Delta":127777463},{"NoteNumber":69,"Velocity":67,"Duration":426438,"SoundDuration":426438,"Delta":128203902},{"NoteNumber":67,"Velocity":80,"Duration":213219,"SoundDuration":213219,"Delta":128203902},{"NoteNumber":51,"Velocity":57,"Duration":426438,"SoundDuration":426438,"Delta":128203902},{"NoteNumber":66,"Velocity":80,"Duration":213219,"SoundDuration":213219,"Delta":128417121},{"NoteNumber":70,"Velocity":68,"Duration":426439,"SoundDuration":426439,"Delta":128630341},{"NoteNumber":67,"Velocity":86,"Duration":426439,"SoundDuration":426439,"Delta":128630341},{"NoteNumber":50,"Velocity":56,"Duration":426439,"SoundDuration":426439,"Delta":128630341},{"NoteNumber":72,"Velocity":72,"Duration":319829,"SoundDuration":319829,"Delta":129056780},{"NoteNumber":69,"Velocity":79,"Duration":319829,"SoundDuration":319829,"Delta":129056780},{"NoteNumber":48,"Velocity":55,"Duration":319829,"SoundDuration":319829,"Delta":129056780},{"NoteNumber":66,"Velocity":67,"Duration":434782,"SoundDuration":434782,"Delta":129483219},{"NoteNumber":60,"Velocity":73,"Duration":217391,"SoundDuration":217391,"Delta":129483219},{"NoteNumber":50,"Velocity":59,"Duration":434782,"SoundDuration":434782,"Delta":129483219},{"NoteNumber":62,"Velocity":73,"Duration":217391,"SoundDuration":217391,"Delta":129700610},{"NoteNumber":67,"Velocity":67,"Duration":434782,"SoundDuration":434782,"Delta":129918001},{"NoteNumber":63,"Velocity":80,"Duration":866436,"SoundDuration":866436,"Delta":129918001},{"NoteNumber":48,"Velocity":58,"Duration":217391,"SoundDuration":217391,"Delta":129918001},{"NoteNumber":46,"Velocity":58,"Duration":217391,"SoundDuration":217391,"Delta":130135392},{"NoteNumber":69,"Velocity":70,"Duration":431654,"SoundDuration":431654,"Delta":130352784},{"NoteNumber":48,"Velocity":58,"Duration":431654,"SoundDuration":431654,"Delta":130352784},{"NoteNumber":66,"Velocity":65,"Duration":429061,"SoundDuration":429061,"Delta":130784438},{"NoteNumber":62,"Velocity":77,"Duration":214530,"SoundDuration":214530,"Delta":130784438},{"NoteNumber":50,"Velocity":56,"Duration":429061,"SoundDuration":429061,"Delta":130784438},{"NoteNumber":60,"Velocity":77,"Duration":214530,"SoundDuration":214530,"Delta":130998969},{"NoteNumber":67,"Velocity":71,"Duration":214531,"SoundDuration":214531,"Delta":131213500},{"NoteNumber":58,"Velocity":75,"Duration":214531,"SoundDuration":214531,"Delta":131213500},{"NoteNumber":43,"Velocity":63,"Duration":214531,"SoundDuration":214531,"Delta":131213500},{"NoteNumber":74,"Velocity":72,"Duration":206753,"SoundDuration":206753,"Delta":131642562},{"NoteNumber":58,"Velocity":70,"Duration":206753,"SoundDuration":206753,"Delta":131642562},{"NoteNumber":72,"Velocity":72,"Duration":206754,"SoundDuration":206754,"Delta":131849316},{"NoteNumber":57,"Velocity":70,"Duration":206754,"SoundDuration":206754,"Delta":131849316},{"NoteNumber":74,"Velocity":76,"Duration":413507,"SoundDuration":413507,"Delta":132056070},{"NoteNumber":58,"Velocity":73,"Duration":206753,"SoundDuration":206753,"Delta":132056070},{"NoteNumber":62,"Velocity":67,"Duration":206753,"SoundDuration":206753,"Delta":132262824},{"NoteNumber":64,"Velocity":69,"Duration":210585,"SoundDuration":210585,"Delta":132469578},{"NoteNumber":50,"Velocity":58,"Duration":210585,"SoundDuration":210585,"Delta":132469578},{"NoteNumber":66,"Velocity":71,"Duration":210585,"SoundDuration":210585,"Delta":132680164},{"NoteNumber":67,"Velocity":73,"Duration":210585,"SoundDuration":210585,"Delta":132890749},{"NoteNumber":51,"Velocity":63,"Duration":210585,"SoundDuration":210585,"Delta":132890749},{"NoteNumber":69,"Velocity":75,"Duration":210585,"SoundDuration":210585,"Delta":133101335},{"NoteNumber":76,"Velocity":77,"Duration":206753,"SoundDuration":206753,"Delta":133311920},{"NoteNumber":70,"Velocity":77,"Duration":620261,"SoundDuration":620261,"Delta":133311920},{"NoteNumber":60,"Velocity":69,"Duration":206753,"SoundDuration":206753,"Delta":133311920},{"NoteNumber":74,"Velocity":77,"Duration":206754,"SoundDuration":206754,"Delta":133518674},{"NoteNumber":59,"Velocity":69,"Duration":206754,"SoundDuration":206754,"Delta":133518674},{"NoteNumber":76,"Velocity":81,"Duration":413507,"SoundDuration":413507,"Delta":133725428},{"NoteNumber":60,"Velocity":73,"Duration":206753,"SoundDuration":206753,"Delta":133725428},{"NoteNumber":64,"Velocity":73,"Duration":206753,"SoundDuration":206753,"Delta":133932182},{"NoteNumber":65,"Velocity":75,"Duration":213219,"SoundDuration":213219,"Delta":134138936},{"NoteNumber":52,"Velocity":58,"Duration":213219,"SoundDuration":213219,"Delta":134138936},{"NoteNumber":67,"Velocity":77,"Duration":213219,"SoundDuration":213219,"Delta":134352156},{"NoteNumber":69,"Velocity":79,"Duration":213219,"SoundDuration":213219,"Delta":134565375},{"NoteNumber":53,"Velocity":63,"Duration":213219,"SoundDuration":213219,"Delta":134565375},{"NoteNumber":70,"Velocity":79,"Duration":213219,"SoundDuration":213219,"Delta":134778595},{"NoteNumber":78,"Velocity":84,"Duration":206753,"SoundDuration":206753,"Delta":134991814},{"NoteNumber":72,"Velocity":83,"Duration":620261,"SoundDuration":620261,"Delta":134991814},{"NoteNumber":62,"Velocity":75,"Duration":206753,"SoundDuration":206753,"Delta":134991814},{"NoteNumber":76,"Velocity":84,"Duration":206754,"SoundDuration":206754,"Delta":135198568},{"NoteNumber":60,"Velocity":75,"Duration":206754,"SoundDuration":206754,"Delta":135198568},{"NoteNumber":78,"Velocity":89,"Duration":413507,"SoundDuration":413507,"Delta":135405322},{"NoteNumber":62,"Velocity":80,"Duration":206753,"SoundDuration":206753,"Delta":135405322},{"NoteNumber":66,"Velocity":75,"Duration":206753,"SoundDuration":206753,"Delta":135612076},{"NoteNumber":67,"Velocity":78,"Duration":210585,"SoundDuration":210585,"Delta":135818830},{"NoteNumber":54,"Velocity":63,"Duration":210585,"SoundDuration":210585,"Delta":135818830},{"NoteNumber":69,"Velocity":80,"Duration":210585,"SoundDuration":210585,"Delta":136029416},{"NoteNumber":70,"Velocity":83,"Duration":421171,"SoundDuration":421171,"Delta":136240001},{"NoteNumber":55,"Velocity":65,"Duration":210585,"SoundDuration":210585,"Delta":136240001},{"NoteNumber":67,"Velocity":72,"Duration":206753,"SoundDuration":206753,"Delta":136661172},{"NoteNumber":63,"Velocity":71,"Duration":206753,"SoundDuration":206753,"Delta":136661172},{"NoteNumber":65,"Velocity":72,"Duration":206754,"SoundDuration":206754,"Delta":136867926},{"NoteNumber":62,"Velocity":71,"Duration":206754,"SoundDuration":206754,"Delta":136867926},{"NoteNumber":67,"Velocity":77,"Duration":206753,"SoundDuration":206753,"Delta":137074680},{"NoteNumber":63,"Velocity":74,"Duration":206753,"SoundDuration":206753,"Delta":137074680},{"NoteNumber":43,"Velocity":54,"Duration":206753,"SoundDuration":206753,"Delta":137281434},{"NoteNumber":55,"Velocity":64,"Duration":209321,"SoundDuration":209321,"Delta":137488188},{"NoteNumber":45,"Velocity":57,"Duration":209321,"SoundDuration":209321,"Delta":137488188},{"NoteNumber":47,"Velocity":59,"Duration":209321,"SoundDuration":209321,"Delta":137697510},{"NoteNumber":56,"Velocity":64,"Duration":209321,"SoundDuration":209321,"Delta":137906832},{"NoteNumber":48,"Velocity":62,"Duration":209321,"SoundDuration":209321,"Delta":137906832},{"NoteNumber":50,"Velocity":64,"Duration":209321,"SoundDuration":209321,"Delta":138116153},{"NoteNumber":69,"Velocity":71,"Duration":206753,"SoundDuration":206753,"Delta":138325475},{"NoteNumber":65,"Velocity":72,"Duration":206753,"SoundDuration":206753,"Delta":138325475},{"NoteNumber":51,"Velocity":66,"Duration":620261,"SoundDuration":620261,"Delta":138325475},{"NoteNumber":67,"Velocity":71,"Duration":206754,"SoundDuration":206754,"Delta":138532229},{"NoteNumber":63,"Velocity":72,"Duration":206754,"SoundDuration":206754,"Delta":138532229},{"NoteNumber":69,"Velocity":76,"Duration":206753,"SoundDuration":206753,"Delta":138738983},{"NoteNumber":65,"Velocity":76,"Duration":206753,"SoundDuration":206753,"Delta":138738983},{"NoteNumber":45,"Velocity":58,"Duration":206753,"SoundDuration":206753,"Delta":138945737},{"NoteNumber":57,"Velocity":64,"Duration":206754,"SoundDuration":206754,"Delta":139152491},{"NoteNumber":46,"Velocity":60,"Duration":206754,"SoundDuration":206754,"Delta":139152491},{"NoteNumber":48,"Velocity":63,"Duration":206753,"SoundDuration":206753,"Delta":139359245},{"NoteNumber":58,"Velocity":64,"Duration":206754,"SoundDuration":206754,"Delta":139565999},{"NoteNumber":50,"Velocity":65,"Duration":206754,"SoundDuration":206754,"Delta":139565999},{"NoteNumber":51,"Velocity":67,"Duration":206753,"SoundDuration":206753,"Delta":139772753},{"NoteNumber":71,"Velocity":71,"Duration":206753,"SoundDuration":206753,"Delta":139979507},{"NoteNumber":67,"Velocity":72,"Duration":206753,"SoundDuration":206753,"Delta":139979507},{"NoteNumber":53,"Velocity":70,"Duration":620261,"SoundDuration":620261,"Delta":139979507},{"NoteNumber":69,"Velocity":71,"Duration":206754,"SoundDuration":206754,"Delta":140186261},{"NoteNumber":65,"Velocity":72,"Duration":206754,"SoundDuration":206754,"Delta":140186261},{"NoteNumber":71,"Velocity":76,"Duration":206753,"SoundDuration":206753,"Delta":140393015},{"NoteNumber":67,"Velocity":75,"Duration":206753,"SoundDuration":206753,"Delta":140393015},{"NoteNumber":47,"Velocity":59,"Duration":206753,"SoundDuration":206753,"Delta":140599769},{"NoteNumber":59,"Velocity":64,"Duration":211864,"SoundDuration":211864,"Delta":140806523},{"NoteNumber":48,"Velocity":62,"Duration":211864,"SoundDuration":211864,"Delta":140806523},{"NoteNumber":50,"Velocity":64,"Duration":211864,"SoundDuration":211864,"Delta":141018388},{"NoteNumber":60,"Velocity":69,"Duration":105932,"SoundDuration":105932,"Delta":141230252},{"NoteNumber":51,"Velocity":67,"Duration":211864,"SoundDuration":211864,"Delta":141230252},{"NoteNumber":65,"Velocity":68,"Duration":211864,"SoundDuration":211864,"Delta":141442117},{"NoteNumber":72,"Velocity":81,"Duration":206753,"SoundDuration":206753,"Delta":141653981},{"NoteNumber":63,"Velocity":67,"Duration":206753,"SoundDuration":206753,"Delta":141653981},{"NoteNumber":71,"Velocity":81,"Duration":206754,"SoundDuration":206754,"Delta":141860735},{"NoteNumber":62,"Velocity":66,"Duration":206754,"SoundDuration":206754,"Delta":141860735},{"NoteNumber":72,"Velocity":86,"Duration":206753,"SoundDuration":206753,"Delta":142067489},{"NoteNumber":60,"Velocity":66,"Duration":206753,"SoundDuration":206753,"Delta":142067489},{"NoteNumber":58,"Velocity":65,"Duration":206753,"SoundDuration":206753,"Delta":142274243},{"NoteNumber":67,"Velocity":71,"Duration":413508,"SoundDuration":413508,"Delta":142480997},{"NoteNumber":56,"Velocity":64,"Duration":206754,"SoundDuration":206754,"Delta":142480997},{"NoteNumber":52,"Velocity":61,"Duration":413508,"SoundDuration":413508,"Delta":142480997},{"NoteNumber":55,"Velocity":63,"Duration":206753,"SoundDuration":206753,"Delta":142687751},{"NoteNumber":68,"Velocity":72,"Duration":206754,"SoundDuration":206754,"Delta":142894505},{"NoteNumber":53,"Velocity":62,"Duration":206754,"SoundDuration":206754,"Delta":142894505},{"NoteNumber":56,"Velocity":66,"Duration":206754,"SoundDuration":206754,"Delta":142894505},{"NoteNumber":72,"Velocity":81,"Duration":206753,"SoundDuration":206753,"Delta":143308013},{"NoteNumber":68,"Velocity":64,"Duration":413508,"SoundDuration":413508,"Delta":143308013},{"NoteNumber":41,"Velocity":60,"Duration":413508,"SoundDuration":413508,"Delta":143308013},{"NoteNumber":71,"Velocity":81,"Duration":206754,"SoundDuration":206754,"Delta":143514767},{"NoteNumber":72,"Velocity":86,"Duration":206753,"SoundDuration":206753,"Delta":143721521},{"NoteNumber":67,"Velocity":68,"Duration":413507,"SoundDuration":413507,"Delta":143721521},{"NoteNumber":39,"Velocity":59,"Duration":413507,"SoundDuration":413507,"Delta":143721521},{"NoteNumber":74,"Velocity":76,"Duration":426438,"SoundDuration":426438,"Delta":144135029},{"NoteNumber":65,"Velocity":68,"Duration":426438,"SoundDuration":426438,"Delta":144135029},{"NoteNumber":38,"Velocity":58,"Duration":426438,"SoundDuration":426438,"Delta":144135029},{"NoteNumber":67,"Velocity":73,"Duration":213219,"SoundDuration":213219,"Delta":144561468},{"NoteNumber":63,"Velocity":66,"Duration":213219,"SoundDuration":213219,"Delta":144561468},{"NoteNumber":72,"Velocity":81,"Duration":206753,"SoundDuration":206753,"Delta":144987907},{"NoteNumber":62,"Velocity":64,"Duration":413508,"SoundDuration":413508,"Delta":144987907},{"NoteNumber":44,"Velocity":61,"Duration":413508,"SoundDuration":413508,"Delta":144987907},{"NoteNumber":71,"Velocity":81,"Duration":206754,"SoundDuration":206754,"Delta":145194661},{"NoteNumber":72,"Velocity":86,"Duration":206753,"SoundDuration":206753,"Delta":145401415},{"NoteNumber":63,"Velocity":64,"Duration":413507,"SoundDuration":413507,"Delta":145401415},{"NoteNumber":43,"Velocity":59,"Duration":413507,"SoundDuration":413507,"Delta":145401415},{"NoteNumber":74,"Velocity":77,"Duration":206754,"SoundDuration":206754,"Delta":145814923},{"NoteNumber":65,"Velocity":64,"Duration":410062,"SoundDuration":410062,"Delta":145814923},{"NoteNumber":41,"Velocity":57,"Duration":413508,"SoundDuration":413508,"Delta":145814923},{"NoteNumber":65,"Velocity":75,"Duration":210585,"SoundDuration":210585,"Delta":146228431},{"NoteNumber":59,"Velocity":69,"Duration":210585,"SoundDuration":210585,"Delta":146228431},{"NoteNumber":43,"Velocity":56,"Duration":210585,"SoundDuration":210585,"Delta":146228431},{"NoteNumber":67,"Velocity":75,"Duration":210585,"SoundDuration":210585,"Delta":146439017},{"NoteNumber":68,"Velocity":81,"Duration":834679,"SoundDuration":834679,"Delta":146649602},{"NoteNumber":60,"Velocity":64,"Duration":421171,"SoundDuration":421171,"Delta":146649602},{"NoteNumber":41,"Velocity":62,"Duration":210585,"SoundDuration":210585,"Delta":146649602},{"NoteNumber":39,"Velocity":62,"Duration":210585,"SoundDuration":210585,"Delta":146860188},{"NoteNumber":62,"Velocity":67,"Duration":413508,"SoundDuration":413508,"Delta":147070773},{"NoteNumber":41,"Velocity":67,"Duration":206753,"SoundDuration":206753,"Delta":147070773},{"NoteNumber":67,"Velocity":73,"Duration":206753,"SoundDuration":206753,"Delta":147484281},{"NoteNumber":59,"Velocity":59,"Duration":413507,"SoundDuration":413507,"Delta":147484281},{"NoteNumber":43,"Velocity":55,"Duration":206753,"SoundDuration":206753,"Delta":147484281},{"NoteNumber":65,"Velocity":73,"Duration":206753,"SoundDuration":206753,"Delta":147691035},{"NoteNumber":63,"Velocity":73,"Duration":206754,"SoundDuration":206754,"Delta":147897789},{"NoteNumber":60,"Velocity":66,"Duration":827016,"SoundDuration":827016,"Delta":147897789},{"NoteNumber":48,"Velocity":58,"Duration":206754,"SoundDuration":206754,"Delta":147897789},{"NoteNumber":50,"Velocity":58,"Duration":206753,"SoundDuration":206753,"Delta":148104543},{"NoteNumber":72,"Velocity":81,"Duration":206754,"SoundDuration":206754,"Delta":148311297},{"NoteNumber":51,"Velocity":59,"Duration":206754,"SoundDuration":206754,"Delta":148311297},{"NoteNumber":71,"Velocity":81,"Duration":206753,"SoundDuration":206753,"Delta":148518051},{"NoteNumber":50,"Velocity":58,"Duration":206753,"SoundDuration":206753,"Delta":148518051},{"NoteNumber":72,"Velocity":86,"Duration":213219,"SoundDuration":213219,"Delta":148724805},{"NoteNumber":48,"Velocity":57,"Duration":213219,"SoundDuration":213219,"Delta":148724805},{"NoteNumber":46,"Velocity":57,"Duration":213219,"SoundDuration":213219,"Delta":148938025},{"NoteNumber":67,"Velocity":71,"Duration":413508,"SoundDuration":413508,"Delta":149151244},{"NoteNumber":64,"Velocity":64,"Duration":413508,"SoundDuration":413508,"Delta":149151244},{"NoteNumber":44,"Velocity":56,"Duration":206753,"SoundDuration":206753,"Delta":149151244},{"NoteNumber":43,"Velocity":55,"Duration":206754,"SoundDuration":206754,"Delta":149357998},{"NoteNumber":68,"Velocity":72,"Duration":827015,"SoundDuration":827015,"Delta":149564752},{"NoteNumber":65,"Velocity":64,"Duration":206753,"SoundDuration":206753,"Delta":149564752},{"NoteNumber":41,"Velocity":54,"Duration":103376,"SoundDuration":103376,"Delta":149564752},{"NoteNumber":58,"Velocity":59,"Duration":206753,"SoundDuration":206753,"Delta":149771506},{"NoteNumber":65,"Velocity":82,"Duration":206754,"SoundDuration":206754,"Delta":149978260},{"NoteNumber":56,"Velocity":59,"Duration":206754,"SoundDuration":206754,"Delta":149978260},{"NoteNumber":64,"Velocity":82,"Duration":206753,"SoundDuration":206753,"Delta":150185014},{"NoteNumber":55,"Velocity":58,"Duration":206753,"SoundDuration":206753,"Delta":150185014},{"NoteNumber":65,"Velocity":84,"Duration":206754,"SoundDuration":206754,"Delta":150391768},{"NoteNumber":53,"Velocity":57,"Duration":206754,"SoundDuration":206754,"Delta":150391768},{"NoteNumber":51,"Velocity":57,"Duration":206753,"SoundDuration":206753,"Delta":150598522},{"NoteNumber":69,"Velocity":72,"Duration":413508,"SoundDuration":413508,"Delta":150805276},{"NoteNumber":60,"Velocity":72,"Duration":413508,"SoundDuration":413508,"Delta":150805276},{"NoteNumber":50,"Velocity":56,"Duration":206753,"SoundDuration":206753,"Delta":150805276},{"NoteNumber":48,"Velocity":55,"Duration":206754,"SoundDuration":206754,"Delta":151012030},{"NoteNumber":70,"Velocity":73,"Duration":206753,"SoundDuration":206753,"Delta":151218784},{"NoteNumber":62,"Velocity":72,"Duration":827015,"SoundDuration":827015,"Delta":151218784},{"NoteNumber":46,"Velocity":55,"Duration":206753,"SoundDuration":206753,"Delta":151218784},{"NoteNumber":48,"Velocity":57,"Duration":206753,"SoundDuration":206753,"Delta":151425538},{"NoteNumber":70,"Velocity":81,"Duration":206754,"SoundDuration":206754,"Delta":151632292},{"NoteNumber":50,"Velocity":60,"Duration":206754,"SoundDuration":206754,"Delta":151632292},{"NoteNumber":69,"Velocity":81,"Duration":206753,"SoundDuration":206753,"Delta":151839046},{"NoteNumber":48,"Velocity":59,"Duration":206753,"SoundDuration":206753,"Delta":151839046},{"NoteNumber":70,"Velocity":86,"Duration":213219,"SoundDuration":213219,"Delta":152045800},{"NoteNumber":46,"Velocity":58,"Duration":213219,"SoundDuration":213219,"Delta":152045800},{"NoteNumber":44,"Velocity":57,"Duration":213219,"SoundDuration":213219,"Delta":152259020},{"NoteNumber":65,"Velocity":71,"Duration":413508,"SoundDuration":413508,"Delta":152472239},{"NoteNumber":62,"Velocity":69,"Duration":413508,"SoundDuration":413508,"Delta":152472239},{"NoteNumber":43,"Velocity":57,"Duration":206753,"SoundDuration":206753,"Delta":152472239},{"NoteNumber":41,"Velocity":56,"Duration":206754,"SoundDuration":206754,"Delta":152678993},{"NoteNumber":67,"Velocity":72,"Duration":827015,"SoundDuration":827015,"Delta":152885747},{"NoteNumber":63,"Velocity":69,"Duration":206753,"SoundDuration":206753,"Delta":152885747},{"NoteNumber":39,"Velocity":55,"Duration":103376,"SoundDuration":103376,"Delta":152885747},{"NoteNumber":56,"Velocity":61,"Duration":206753,"SoundDuration":206753,"Delta":153092501},{"NoteNumber":63,"Velocity":79,"Duration":206754,"SoundDuration":206754,"Delta":153299255},{"NoteNumber":55,"Velocity":60,"Duration":206754,"SoundDuration":206754,"Delta":153299255},{"NoteNumber":62,"Velocity":79,"Duration":206753,"SoundDuration":206753,"Delta":153506009},{"NoteNumber":53,"Velocity":60,"Duration":206753,"SoundDuration":206753,"Delta":153506009},{"NoteNumber":63,"Velocity":84,"Duration":206754,"SoundDuration":206754,"Delta":153712763},{"NoteNumber":51,"Velocity":59,"Duration":206754,"SoundDuration":206754,"Delta":153712763},{"NoteNumber":50,"Velocity":58,"Duration":206753,"SoundDuration":206753,"Delta":153919517},{"NoteNumber":67,"Velocity":72,"Duration":827015,"SoundDuration":827015,"Delta":154126271},{"NoteNumber":58,"Velocity":73,"Duration":413508,"SoundDuration":413508,"Delta":154126271},{"NoteNumber":48,"Velocity":57,"Duration":206753,"SoundDuration":206753,"Delta":154126271},{"NoteNumber":46,"Velocity":57,"Duration":206754,"SoundDuration":206754,"Delta":154333025},{"NoteNumber":60,"Velocity":73,"Duration":2067539,"SoundDuration":2067539,"Delta":154539779},{"NoteNumber":44,"Velocity":56,"Duration":206753,"SoundDuration":206753,"Delta":154539779},{"NoteNumber":46,"Velocity":57,"Duration":206753,"SoundDuration":206753,"Delta":154746533},{"NoteNumber":68,"Velocity":71,"Duration":206754,"SoundDuration":206754,"Delta":154953287},{"NoteNumber":48,"Velocity":60,"Duration":206754,"SoundDuration":206754,"Delta":154953287},{"NoteNumber":70,"Velocity":72,"Duration":206753,"SoundDuration":206753,"Delta":155160041},{"NoteNumber":46,"Velocity":58,"Duration":206753,"SoundDuration":206753,"Delta":155160041},{"NoteNumber":72,"Velocity":74,"Duration":206754,"SoundDuration":206754,"Delta":155366795},{"NoteNumber":44,"Velocity":58,"Duration":206754,"SoundDuration":206754,"Delta":155366795},{"NoteNumber":71,"Velocity":72,"Duration":206753,"SoundDuration":206753,"Delta":155573549},{"NoteNumber":43,"Velocity":57,"Duration":206753,"SoundDuration":206753,"Delta":155573549},{"NoteNumber":72,"Velocity":76,"Duration":206753,"SoundDuration":206753,"Delta":155780303},{"NoteNumber":41,"Velocity":57,"Duration":206753,"SoundDuration":206753,"Delta":155780303},{"NoteNumber":68,"Velocity":72,"Duration":206754,"SoundDuration":206754,"Delta":155987057},{"NoteNumber":39,"Velocity":56,"Duration":206754,"SoundDuration":206754,"Delta":155987057},{"NoteNumber":65,"Velocity":76,"Duration":1033770,"SoundDuration":1033770,"Delta":156193811},{"NoteNumber":38,"Velocity":56,"Duration":103376,"SoundDuration":103376,"Delta":156193811},{"NoteNumber":55,"Velocity":56,"Duration":206753,"SoundDuration":206753,"Delta":156400565},{"NoteNumber":62,"Velocity":72,"Duration":206754,"SoundDuration":206754,"Delta":156607319},{"NoteNumber":53,"Velocity":60,"Duration":206754,"SoundDuration":206754,"Delta":156607319},{"NoteNumber":63,"Velocity":73,"Duration":206753,"SoundDuration":206753,"Delta":156814073},{"NoteNumber":51,"Velocity":59,"Duration":206753,"SoundDuration":206753,"Delta":156814073},{"NoteNumber":65,"Velocity":75,"Duration":620261,"SoundDuration":620261,"Delta":157020827},{"NoteNumber":50,"Velocity":59,"Duration":206754,"SoundDuration":206754,"Delta":157020827},{"NoteNumber":63,"Velocity":73,"Duration":206753,"SoundDuration":206753,"Delta":157227581},{"NoteNumber":48,"Velocity":58,"Duration":206753,"SoundDuration":206753,"Delta":157227581},{"NoteNumber":65,"Velocity":75,"Duration":827015,"SoundDuration":827015,"Delta":157434335},{"NoteNumber":47,"Velocity":57,"Duration":206753,"SoundDuration":206753,"Delta":157434335},{"NoteNumber":62,"Velocity":73,"Duration":206754,"SoundDuration":206754,"Delta":157641089},{"NoteNumber":45,"Velocity":56,"Duration":206754,"SoundDuration":206754,"Delta":157641089},{"NoteNumber":59,"Velocity":75,"Duration":206753,"SoundDuration":206753,"Delta":157847843},{"NoteNumber":43,"Velocity":55,"Duration":827015,"SoundDuration":827015,"Delta":157847843},{"NoteNumber":74,"Velocity":80,"Duration":206754,"SoundDuration":206754,"Delta":158261351},{"NoteNumber":72,"Velocity":80,"Duration":206753,"SoundDuration":206753,"Delta":158468105},{"NoteNumber":74,"Velocity":86,"Duration":206754,"SoundDuration":206754,"Delta":158674859},{"NoteNumber":65,"Velocity":73,"Duration":429061,"SoundDuration":429061,"Delta":159088367},{"NoteNumber":59,"Velocity":63,"Duration":429061,"SoundDuration":429061,"Delta":159088367},{"NoteNumber":63,"Velocity":73,"Duration":206753,"SoundDuration":206753,"Delta":159517429},{"NoteNumber":60,"Velocity":63,"Duration":206753,"SoundDuration":206753,"Delta":159517429},{"NoteNumber":43,"Velocity":49,"Duration":206754,"SoundDuration":206754,"Delta":159724183},{"NoteNumber":75,"Velocity":80,"Duration":206753,"SoundDuration":206753,"Delta":159930937},{"NoteNumber":45,"Velocity":51,"Duration":206753,"SoundDuration":206753,"Delta":159930937},{"NoteNumber":74,"Velocity":80,"Duration":206753,"SoundDuration":206753,"Delta":160137691},{"NoteNumber":47,"Velocity":52,"Duration":206753,"SoundDuration":206753,"Delta":160137691},{"NoteNumber":75,"Velocity":84,"Duration":206754,"SoundDuration":206754,"Delta":160344445},{"NoteNumber":48,"Velocity":54,"Duration":206754,"SoundDuration":206754,"Delta":160344445},{"NoteNumber":50,"Velocity":55,"Duration":206753,"SoundDuration":206753,"Delta":160551199},{"NoteNumber":67,"Velocity":73,"Duration":413508,"SoundDuration":413508,"Delta":160757953},{"NoteNumber":63,"Velocity":65,"Duration":413508,"SoundDuration":413508,"Delta":160757953},{"NoteNumber":51,"Velocity":57,"Duration":206754,"SoundDuration":206754,"Delta":160757953},{"NoteNumber":53,"Velocity":58,"Duration":206753,"SoundDuration":206753,"Delta":160964707},{"NoteNumber":65,"Velocity":73,"Duration":206753,"SoundDuration":206753,"Delta":161171461},{"NoteNumber":62,"Velocity":65,"Duration":206753,"SoundDuration":206753,"Delta":161171461},{"NoteNumber":55,"Velocity":60,"Duration":206753,"SoundDuration":206753,"Delta":161171461},{"NoteNumber":53,"Velocity":57,"Duration":206754,"SoundDuration":206754,"Delta":161378215},{"NoteNumber":77,"Velocity":82,"Duration":206753,"SoundDuration":206753,"Delta":161584969},{"NoteNumber":56,"Velocity":62,"Duration":206753,"SoundDuration":206753,"Delta":161584969},{"NoteNumber":75,"Velocity":82,"Duration":206753,"SoundDuration":206753,"Delta":161791723},{"NoteNumber":55,"Velocity":61,"Duration":206753,"SoundDuration":206753,"Delta":161791723},{"NoteNumber":77,"Velocity":88,"Duration":206754,"SoundDuration":206754,"Delta":161998477},{"NoteNumber":53,"Velocity":60,"Duration":206754,"SoundDuration":206754,"Delta":161998477},{"NoteNumber":51,"Velocity":59,"Duration":206753,"SoundDuration":206753,"Delta":162205231},{"NoteNumber":68,"Velocity":77,"Duration":413508,"SoundDuration":413508,"Delta":162411985},{"NoteNumber":65,"Velocity":70,"Duration":827016,"SoundDuration":827016,"Delta":162411985},{"NoteNumber":50,"Velocity":58,"Duration":206754,"SoundDuration":206754,"Delta":162411985},{"NoteNumber":48,"Velocity":57,"Duration":206753,"SoundDuration":206753,"Delta":162618739},{"NoteNumber":67,"Velocity":77,"Duration":103376,"SoundDuration":103376,"Delta":162825493},{"NoteNumber":47,"Velocity":56,"Duration":206753,"SoundDuration":206753,"Delta":162825493},{"NoteNumber":77,"Velocity":81,"Duration":206754,"SoundDuration":206754,"Delta":163032247},{"NoteNumber":75,"Velocity":80,"Duration":206753,"SoundDuration":206753,"Delta":163239001},{"NoteNumber":48,"Velocity":77,"Duration":206753,"SoundDuration":206753,"Delta":163239001},{"NoteNumber":74,"Velocity":79,"Duration":206753,"SoundDuration":206753,"Delta":163445755},{"NoteNumber":47,"Velocity":77,"Duration":206753,"SoundDuration":206753,"Delta":163445755},{"NoteNumber":72,"Velocity":78,"Duration":206754,"SoundDuration":206754,"Delta":163652509},{"NoteNumber":48,"Velocity":80,"Duration":206754,"SoundDuration":206754,"Delta":163652509},{"NoteNumber":71,"Velocity":77,"Duration":206753,"SoundDuration":206753,"Delta":163859263},{"NoteNumber":69,"Velocity":76,"Duration":206754,"SoundDuration":206754,"Delta":164066017},{"NoteNumber":65,"Velocity":67,"Duration":413508,"SoundDuration":413508,"Delta":164066017},{"NoteNumber":43,"Velocity":71,"Duration":413508,"SoundDuration":413508,"Delta":164066017},{"NoteNumber":67,"Velocity":75,"Duration":206753,"SoundDuration":206753,"Delta":164272771},{"NoteNumber":72,"Velocity":73,"Duration":218659,"SoundDuration":218659,"Delta":164479525},{"NoteNumber":63,"Velocity":65,"Duration":218659,"SoundDuration":218659,"Delta":164479525},{"NoteNumber":44,"Velocity":71,"Duration":218659,"SoundDuration":218659,"Delta":164479525},{"NoteNumber":77,"Velocity":78,"Duration":437318,"SoundDuration":437318,"Delta":164916843},{"NoteNumber":68,"Velocity":66,"Duration":437318,"SoundDuration":437318,"Delta":164916843},{"NoteNumber":48,"Velocity":78,"Duration":218659,"SoundDuration":218659,"Delta":164916843},{"NoteNumber":47,"Velocity":78,"Duration":218659,"SoundDuration":218659,"Delta":165135502},{"NoteNumber":75,"Velocity":76,"Duration":437318,"SoundDuration":437318,"Delta":165354161},{"NoteNumber":67,"Velocity":65,"Duration":437318,"SoundDuration":437318,"Delta":165354161},{"NoteNumber":48,"Velocity":81,"Duration":218659,"SoundDuration":218659,"Delta":165354161},{"NoteNumber":74,"Velocity":73,"Duration":437317,"SoundDuration":437317,"Delta":165791479},{"NoteNumber":65,"Velocity":64,"Duration":437317,"SoundDuration":437317,"Delta":165791479},{"NoteNumber":50,"Velocity":75,"Duration":437317,"SoundDuration":437317,"Delta":165791479},{"NoteNumber":63,"Velocity":71,"Duration":233681,"SoundDuration":233681,"Delta":166228797},{"NoteNumber":43,"Velocity":71,"Duration":233681,"SoundDuration":233681,"Delta":166228797},{"NoteNumber":68,"Velocity":76,"Duration":451875,"SoundDuration":451875,"Delta":166696160},{"NoteNumber":62,"Velocity":69,"Duration":451875,"SoundDuration":451875,"Delta":166696160},{"NoteNumber":48,"Velocity":77,"Duration":225937,"SoundDuration":225937,"Delta":166696160},{"NoteNumber":47,"Velocity":77,"Duration":225937,"SoundDuration":225937,"Delta":166922097},{"NoteNumber":67,"Velocity":74,"Duration":473709,"SoundDuration":473709,"Delta":167148035},{"NoteNumber":63,"Velocity":67,"Duration":473709,"SoundDuration":473709,"Delta":167148035},{"NoteNumber":48,"Velocity":80,"Duration":236854,"SoundDuration":236854,"Delta":167148035},{"NoteNumber":65,"Velocity":71,"Duration":473708,"SoundDuration":473708,"Delta":167621744},{"NoteNumber":50,"Velocity":71,"Duration":236854,"SoundDuration":236854,"Delta":167621744},{"NoteNumber":67,"Velocity":73,"Duration":249004,"SoundDuration":249004,"Delta":168095453},{"NoteNumber":59,"Velocity":69,"Duration":249004,"SoundDuration":249004,"Delta":168095453},{"NoteNumber":41,"Velocity":74,"Duration":249004,"SoundDuration":249004,"Delta":168095453},{"NoteNumber":43,"Velocity":74,"Duration":249003,"SoundDuration":249003,"Delta":168344457},{"NoteNumber":65,"Velocity":76,"Duration":256541,"SoundDuration":256541,"Delta":168593461},{"NoteNumber":60,"Velocity":65,"Duration":513083,"SoundDuration":513083,"Delta":168593461},{"NoteNumber":44,"Velocity":78,"Duration":1026166,"SoundDuration":1026166,"Delta":168593461},{"NoteNumber":63,"Velocity":76,"Duration":256541,"SoundDuration":256541,"Delta":168850003},{"NoteNumber":65,"Velocity":81,"Duration":256541,"SoundDuration":256541,"Delta":169106545},{"NoteNumber":62,"Velocity":69,"Duration":256541,"SoundDuration":256541,"Delta":169106545},{"NoteNumber":62,"Velocity":73,"Duration":554733,"SoundDuration":554733,"Delta":169619628},{"NoteNumber":59,"Velocity":65,"Duration":554733,"SoundDuration":554733,"Delta":169619628},{"NoteNumber":43,"Velocity":73,"Duration":277366,"SoundDuration":277366,"Delta":169619628},{"NoteNumber":41,"Velocity":73,"Duration":277366,"SoundDuration":277366,"Delta":169896995},{"NoteNumber":68,"Velocity":89,"Duration":609261,"SoundDuration":609261,"Delta":170174362},{"NoteNumber":59,"Velocity":88,"Duration":609261,"SoundDuration":609261,"Delta":170174362},{"NoteNumber":39,"Velocity":69,"Duration":1218522,"SoundDuration":1218522,"Delta":170174362},{"NoteNumber":67,"Velocity":76,"Duration":609261,"SoundDuration":609261,"Delta":170783623},{"NoteNumber":60,"Velocity":62,"Duration":609261,"SoundDuration":609261,"Delta":170783623},{"NoteNumber":69,"Velocity":78,"Duration":609260,"SoundDuration":609260,"Delta":172002145},{"NoteNumber":60,"Velocity":68,"Duration":609260,"SoundDuration":609260,"Delta":172002145},{"NoteNumber":51,"Velocity":57,"Duration":609260,"SoundDuration":609260,"Delta":172002145},{"NoteNumber":71,"Velocity":82,"Duration":609261,"SoundDuration":609261,"Delta":172611406},{"NoteNumber":65,"Velocity":75,"Duration":304630,"SoundDuration":304630,"Delta":172611406},{"NoteNumber":50,"Velocity":61,"Duration":609261,"SoundDuration":609261,"Delta":172611406},{"NoteNumber":62,"Velocity":72,"Duration":304630,"SoundDuration":304630,"Delta":172916036},{"NoteNumber":72,"Velocity":80,"Duration":609261,"SoundDuration":609261,"Delta":173220667},{"NoteNumber":63,"Velocity":77,"Duration":304630,"SoundDuration":304630,"Delta":173220667},{"NoteNumber":48,"Velocity":57,"Duration":609261,"SoundDuration":609261,"Delta":173220667},{"NoteNumber":60,"Velocity":71,"Duration":946611,"SoundDuration":946611,"Delta":173525297},{"NoteNumber":65,"Velocity":76,"Duration":315963,"SoundDuration":315963,"Delta":173829928},{"NoteNumber":55,"Velocity":69,"Duration":641980,"SoundDuration":641980,"Delta":173829928},{"NoteNumber":63,"Velocity":75,"Duration":326017,"SoundDuration":326017,"Delta":174145891},{"NoteNumber":62,"Velocity":75,"Duration":336752,"SoundDuration":336752,"Delta":174471908},{"NoteNumber":59,"Velocity":74,"Duration":768780,"SoundDuration":768780,"Delta":174471908},{"NoteNumber":43,"Velocity":64,"Duration":768780,"SoundDuration":768780,"Delta":174471908},{"NoteNumber":60,"Velocity":74,"Duration":432027,"SoundDuration":432027,"Delta":174808661},{"NoteNumber":60,"Velocity":81,"Duration":588120,"SoundDuration":588120,"Delta":175240689},{"NoteNumber":48,"Velocity":82,"Duration":14510435,"SoundDuration":14510435,"Delta":175240689},{"NoteNumber":36,"Velocity":82,"Duration":14510435,"SoundDuration":14510435,"Delta":175240689},{"NoteNumber":72,"Velocity":81,"Duration":264456,"SoundDuration":264456,"Delta":175828809},{"NoteNumber":71,"Velocity":81,"Duration":264456,"SoundDuration":264456,"Delta":176093266},{"NoteNumber":72,"Velocity":87,"Duration":241935,"SoundDuration":241935,"Delta":176357723},{"NoteNumber":67,"Velocity":77,"Duration":483870,"SoundDuration":483870,"Delta":176841594},{"NoteNumber":64,"Velocity":65,"Duration":483870,"SoundDuration":483870,"Delta":176841594},{"NoteNumber":68,"Velocity":77,"Duration":241935,"SoundDuration":241935,"Delta":177325465},{"NoteNumber":65,"Velocity":66,"Duration":241935,"SoundDuration":241935,"Delta":177325465},{"NoteNumber":72,"Velocity":80,"Duration":247279,"SoundDuration":247279,"Delta":177809336},{"NoteNumber":71,"Velocity":80,"Duration":247280,"SoundDuration":247280,"Delta":178056616},{"NoteNumber":72,"Velocity":86,"Duration":494560,"SoundDuration":494560,"Delta":178303896},{"NoteNumber":74,"Velocity":74,"Duration":494559,"SoundDuration":494559,"Delta":178798456},{"NoteNumber":71,"Velocity":45,"Duration":494559,"SoundDuration":494559,"Delta":178798456},{"NoteNumber":68,"Velocity":45,"Duration":494559,"SoundDuration":494559,"Delta":178798456},{"NoteNumber":65,"Velocity":45,"Duration":494559,"SoundDuration":494559,"Delta":178798456},{"NoteNumber":67,"Velocity":76,"Duration":247279,"SoundDuration":247279,"Delta":179293016},{"NoteNumber":65,"Velocity":60,"Duration":247279,"SoundDuration":247279,"Delta":179293016},{"NoteNumber":72,"Velocity":79,"Duration":254582,"SoundDuration":254582,"Delta":179787576},{"NoteNumber":63,"Velocity":64,"Duration":254582,"SoundDuration":254582,"Delta":179787576},{"NoteNumber":71,"Velocity":79,"Duration":254582,"SoundDuration":254582,"Delta":180042158},{"NoteNumber":62,"Velocity":64,"Duration":254582,"SoundDuration":254582,"Delta":180042158},{"NoteNumber":72,"Velocity":86,"Duration":524842,"SoundDuration":524842,"Delta":180296741},{"NoteNumber":63,"Velocity":69,"Duration":524842,"SoundDuration":524842,"Delta":180296741},{"NoteNumber":74,"Velocity":78,"Duration":481105,"SoundDuration":481105,"Delta":180821583},{"NoteNumber":68,"Velocity":57,"Duration":481105,"SoundDuration":481105,"Delta":180821583},{"NoteNumber":65,"Velocity":57,"Duration":481105,"SoundDuration":481105,"Delta":180821583},{"NoteNumber":65,"Velocity":56,"Duration":315922,"SoundDuration":315922,"Delta":181350472},{"NoteNumber":59,"Velocity":53,"Duration":631844,"SoundDuration":631844,"Delta":181350472},{"NoteNumber":62,"Velocity":53,"Duration":631844,"SoundDuration":631844,"Delta":181350472},{"NoteNumber":67,"Velocity":56,"Duration":315922,"SoundDuration":315922,"Delta":181666394},{"NoteNumber":68,"Velocity":60,"Duration":1312684,"SoundDuration":1312684,"Delta":181982317},{"NoteNumber":59,"Velocity":46,"Duration":669045,"SoundDuration":669045,"Delta":182625955},{"NoteNumber":62,"Velocity":46,"Duration":669045,"SoundDuration":669045,"Delta":182625955},{"NoteNumber":67,"Velocity":47,"Duration":432027,"SoundDuration":432027,"Delta":183295001},{"NoteNumber":65,"Velocity":45,"Duration":669343,"SoundDuration":669343,"Delta":183727029},{"NoteNumber":64,"Velocity":43,"Duration":5354752,"SoundDuration":5354752,"Delta":184396373},{"NoteNumber":55,"Velocity":36,"Duration":5354752,"SoundDuration":5354752,"Delta":184396373},{"NoteNumber":60,"Velocity":36,"Duration":5354752,"SoundDuration":5354752,"Delta":184396373}],"license":{"name":"Creative Commons Attribution-ShareAlike 3.0 Germany","url":"http://creativecommons.org/licenses/by-sa/3.0/de/deed.en","text":"The MIDI files in this folder were downloaded from http://www.piano-midi.de and are licensed under the Creative Commons Attribution-ShareAlike 3.0 Germany license by Bernd Krueger.\n\nThe MIDI, audio(MP3, OGG) and video files of Bernd Krueger are licensed under the cc-by-sa Germany License . This means, that you can use and adapt the files, as long as you attribute to the copyright holder Name: Bernd Krueger Source: http://www.piano-midi.de The distribution or public playback of the files is only allowed under identical license conditions . The scores are open source.","attribution":"Bernd Krueger","attributionUrl":"http://www.piano-midi.de"}}