{"title":"1. Satz","artist":"Klaviersonate in G","durationMs":392648,"midiSha256":"f9db6da3ef9ab4259589011c7c4373362c15dcf44f52d1ca84d35ef7a8c02a91","midiObject":[{"NoteNumber":67,"Velocity":46,"Duration":335195,"SoundDuration":335195,"Delta":0},{"NoteNumber":59,"Velocity":38,"Duration":335195,"SoundDuration":335195,"Delta":0},{"NoteNumber":55,"Velocity":38,"Duration":335195,"SoundDuration":335195,"Delta":0},{"NoteNumber":67,"Velocity":49,"Duration":552631,"SoundDuration":552631,"Delta":335196},{"NoteNumber":55,"Velocity":40,"Duration":631579,"SoundDuration":631579,"Delta":335196},{"NoteNumber":59,"Velocity":40,"Duration":631579,"SoundDuration":631579,"Delta":335196},{"NoteNumber":71,"Velocity":47,"Duration":78947,"SoundDuration":78947,"Delta":887827},{"NoteNumber":69,"Velocity":47,"Duration":322580,"SoundDuration":322580,"Delta":966775},{"NoteNumber":55,"Velocity":38,"Duration":322580,"SoundDuration":322580,"Delta":966775},{"NoteNumber":60,"Velocity":38,"Duration":322580,"SoundDuration":322580,"Delta":966775},{"NoteNumber":62,"Velocity":49,"Duration":312500,"SoundDuration":312500,"Delta":1289355},{"NoteNumber":55,"Velocity":40,"Duration":625000,"SoundDuration":625000,"Delta":1289355},{"NoteNumber":60,"Velocity":40,"Duration":625000,"SoundDuration":625000,"Delta":1289355},{"NoteNumber":64,"Velocity":45,"Duration":312500,"SoundDuration":312500,"Delta":1601855},{"NoteNumber":66,"Velocity":45,"Duration":156250,"SoundDuration":156250,"Delta":1914355},{"NoteNumber":55,"Velocity":38,"Duration":312500,"SoundDuration":312500,"Delta":1914355},{"NoteNumber":60,"Velocity":38,"Duration":312500,"SoundDuration":312500,"Delta":1914355},{"NoteNumber":67,"Velocity":45,"Duration":39062,"SoundDuration":39062,"Delta":2070605},{"NoteNumber":66,"Velocity":45,"Duration":39062,"SoundDuration":39062,"Delta":2109668},{"NoteNumber":64,"Velocity":45,"Duration":39062,"SoundDuration":39062,"Delta":2148730},{"NoteNumber":66,"Velocity":45,"Duration":39062,"SoundDuration":39062,"Delta":2187793},{"NoteNumber":67,"Velocity":46,"Duration":118421,"SoundDuration":118421,"Delta":2226855},{"NoteNumber":55,"Velocity":37,"Duration":118421,"SoundDuration":118421,"Delta":2226855},{"NoteNumber":59,"Velocity":37,"Duration":118421,"SoundDuration":118421,"Delta":2226855},{"NoteNumber":67,"Velocity":45,"Duration":118421,"SoundDuration":118421,"Delta":2542644},{"NoteNumber":55,"Velocity":36,"Duration":118421,"SoundDuration":118421,"Delta":2542644},{"NoteNumber":59,"Velocity":36,"Duration":118421,"SoundDuration":118421,"Delta":2542644},{"NoteNumber":67,"Velocity":45,"Duration":118421,"SoundDuration":118421,"Delta":2858434},{"NoteNumber":55,"Velocity":36,"Duration":118421,"SoundDuration":118421,"Delta":2858434},{"NoteNumber":59,"Velocity":36,"Duration":118421,"SoundDuration":118421,"Delta":2858434},{"NoteNumber":67,"Velocity":45,"Duration":640114,"SoundDuration":640114,"Delta":3174224},{"NoteNumber":55,"Velocity":36,"Duration":640114,"SoundDuration":640114,"Delta":3174224},{"NoteNumber":59,"Velocity":36,"Duration":640114,"SoundDuration":640114,"Delta":3174224},{"NoteNumber":62,"Velocity":45,"Duration":312500,"SoundDuration":312500,"Delta":3814338},{"NoteNumber":69,"Velocity":45,"Duration":234375,"SoundDuration":234375,"Delta":3814338},{"NoteNumber":54,"Velocity":36,"Duration":234375,"SoundDuration":234375,"Delta":3814338},{"NoteNumber":72,"Velocity":45,"Duration":78125,"SoundDuration":78125,"Delta":4048713},{"NoteNumber":57,"Velocity":36,"Duration":78125,"SoundDuration":78125,"Delta":4048713},{"NoteNumber":62,"Velocity":41,"Duration":916813,"SoundDuration":916813,"Delta":4126838},{"NoteNumber":71,"Velocity":49,"Duration":306122,"SoundDuration":306122,"Delta":4126838},{"NoteNumber":55,"Velocity":39,"Duration":306122,"SoundDuration":306122,"Delta":4126838},{"NoteNumber":69,"Velocity":45,"Duration":306122,"SoundDuration":306122,"Delta":4432960},{"NoteNumber":54,"Velocity":36,"Duration":306122,"SoundDuration":306122,"Delta":4432960},{"NoteNumber":71,"Velocity":45,"Duration":304568,"SoundDuration":304568,"Delta":4739083},{"NoteNumber":55,"Velocity":36,"Duration":304568,"SoundDuration":304568,"Delta":4739083},{"NoteNumber":66,"Velocity":44,"Duration":615268,"SoundDuration":615268,"Delta":5043651},{"NoteNumber":62,"Velocity":36,"Duration":931058,"SoundDuration":931058,"Delta":5043651},{"NoteNumber":74,"Velocity":49,"Duration":306122,"SoundDuration":306122,"Delta":5043651},{"NoteNumber":57,"Velocity":38,"Duration":615268,"SoundDuration":615268,"Delta":5043651},{"NoteNumber":72,"Velocity":45,"Duration":309146,"SoundDuration":309146,"Delta":5349774},{"NoteNumber":67,"Velocity":45,"Duration":315789,"SoundDuration":315789,"Delta":5658920},{"NoteNumber":71,"Velocity":45,"Duration":315789,"SoundDuration":315789,"Delta":5658920},{"NoteNumber":55,"Velocity":36,"Duration":315789,"SoundDuration":315789,"Delta":5658920},{"NoteNumber":67,"Velocity":47,"Duration":306122,"SoundDuration":306122,"Delta":5974709},{"NoteNumber":71,"Velocity":47,"Duration":306122,"SoundDuration":306122,"Delta":5974709},{"NoteNumber":50,"Velocity":38,"Duration":306122,"SoundDuration":306122,"Delta":5974709},{"NoteNumber":66,"Velocity":45,"Duration":304568,"SoundDuration":304568,"Delta":6280832},{"NoteNumber":69,"Velocity":45,"Duration":304568,"SoundDuration":304568,"Delta":6280832},{"NoteNumber":62,"Velocity":36,"Duration":304568,"SoundDuration":304568,"Delta":6280832},{"NoteNumber":66,"Velocity":45,"Duration":304568,"SoundDuration":304568,"Delta":6585400},{"NoteNumber":69,"Velocity":45,"Duration":304568,"SoundDuration":304568,"Delta":6585400},{"NoteNumber":62,"Velocity":36,"Duration":304568,"SoundDuration":304568,"Delta":6585400},{"NoteNumber":66,"Velocity":45,"Duration":621762,"SoundDuration":621762,"Delta":6889969},{"NoteNumber":69,"Velocity":45,"Duration":621762,"SoundDuration":621762,"Delta":6889969},{"NoteNumber":62,"Velocity":36,"Duration":310881,"SoundDuration":310881,"Delta":6889969},{"NoteNumber":60,"Velocity":36,"Duration":310881,"SoundDuration":310881,"Delta":7200850},{"NoteNumber":68,"Velocity":46,"Duration":307692,"SoundDuration":307692,"Delta":7511731},{"NoteNumber":71,"Velocity":46,"Duration":307692,"SoundDuration":307692,"Delta":7511731},{"NoteNumber":59,"Velocity":37,"Duration":307692,"SoundDuration":307692,"Delta":7511731},{"NoteNumber":69,"Velocity":49,"Duration":307692,"SoundDuration":307692,"Delta":7819423},{"NoteNumber":72,"Velocity":49,"Duration":307692,"SoundDuration":307692,"Delta":7819423},{"NoteNumber":57,"Velocity":40,"Duration":615384,"SoundDuration":615384,"Delta":7819423},{"NoteNumber":71,"Velocity":51,"Duration":307692,"SoundDuration":307692,"Delta":8127116},{"NoteNumber":74,"Velocity":51,"Duration":307692,"SoundDuration":307692,"Delta":8127116},{"NoteNumber":72,"Velocity":51,"Duration":312500,"SoundDuration":312500,"Delta":8434808},{"NoteNumber":76,"Velocity":51,"Duration":312500,"SoundDuration":312500,"Delta":8434808},{"NoteNumber":55,"Velocity":39,"Duration":312500,"SoundDuration":312500,"Delta":8434808},{"NoteNumber":72,"Velocity":51,"Duration":634921,"SoundDuration":634921,"Delta":8747308},{"NoteNumber":76,"Velocity":51,"Duration":634921,"SoundDuration":634921,"Delta":8747308},{"NoteNumber":54,"Velocity":40,"Duration":317460,"SoundDuration":317460,"Delta":8747308},{"NoteNumber":57,"Velocity":39,"Duration":317460,"SoundDuration":317460,"Delta":9064769},{"NoteNumber":72,"Velocity":52,"Duration":102040,"SoundDuration":102040,"Delta":9382229},{"NoteNumber":69,"Velocity":52,"Duration":319020,"SoundDuration":319020,"Delta":9382229},{"NoteNumber":62,"Velocity":39,"Duration":319020,"SoundDuration":319020,"Delta":9382229},{"NoteNumber":71,"Velocity":42,"Duration":104620,"SoundDuration":104620,"Delta":9484270},{"NoteNumber":72,"Velocity":44,"Duration":112359,"SoundDuration":112359,"Delta":9588891},{"NoteNumber":67,"Velocity":50,"Duration":306122,"SoundDuration":306122,"Delta":9701250},{"NoteNumber":71,"Velocity":50,"Duration":306122,"SoundDuration":306122,"Delta":9701250},{"NoteNumber":55,"Velocity":46,"Duration":2142905,"SoundDuration":2142905,"Delta":9701250},{"NoteNumber":69,"Velocity":49,"Duration":306122,"SoundDuration":306122,"Delta":10007373},{"NoteNumber":72,"Velocity":49,"Duration":306122,"SoundDuration":306122,"Delta":10007373},{"NoteNumber":71,"Velocity":49,"Duration":306122,"SoundDuration":306122,"Delta":10313495},{"NoteNumber":74,"Velocity":49,"Duration":306122,"SoundDuration":306122,"Delta":10313495},{"NoteNumber":65,"Velocity":46,"Duration":306122,"SoundDuration":306122,"Delta":10313495},{"NoteNumber":67,"Velocity":51,"Duration":1224537,"SoundDuration":1224537,"Delta":10619618},{"NoteNumber":72,"Velocity":51,"Duration":306122,"SoundDuration":306122,"Delta":10619618},{"NoteNumber":64,"Velocity":46,"Duration":306122,"SoundDuration":306122,"Delta":10619618},{"NoteNumber":74,"Velocity":51,"Duration":304568,"SoundDuration":304568,"Delta":10925740},{"NoteNumber":62,"Velocity":46,"Duration":304568,"SoundDuration":304568,"Delta":10925740},{"NoteNumber":76,"Velocity":51,"Duration":304568,"SoundDuration":304568,"Delta":11230309},{"NoteNumber":60,"Velocity":46,"Duration":304568,"SoundDuration":304568,"Delta":11230309},{"NoteNumber":74,"Velocity":53,"Duration":309278,"SoundDuration":309278,"Delta":11534877},{"NoteNumber":59,"Velocity":42,"Duration":309278,"SoundDuration":309278,"Delta":11534877},{"NoteNumber":79,"Velocity":57,"Duration":309278,"SoundDuration":309278,"Delta":11844156},{"NoteNumber":54,"Velocity":40,"Duration":309278,"SoundDuration":309278,"Delta":11844156},{"NoteNumber":57,"Velocity":40,"Duration":309278,"SoundDuration":309278,"Delta":11844156},{"NoteNumber":79,"Velocity":57,"Duration":309278,"SoundDuration":309278,"Delta":12153434},{"NoteNumber":52,"Velocity":40,"Duration":309278,"SoundDuration":309278,"Delta":12153434},{"NoteNumber":55,"Velocity":40,"Duration":309278,"SoundDuration":309278,"Delta":12153434},{"NoteNumber":81,"Velocity":60,"Duration":153061,"SoundDuration":153061,"Delta":12462713},{"NoteNumber":52,"Velocity":43,"Duration":612244,"SoundDuration":612244,"Delta":12462713},{"NoteNumber":55,"Velocity":43,"Duration":306122,"SoundDuration":306122,"Delta":12462713},{"NoteNumber":79,"Velocity":53,"Duration":153061,"SoundDuration":153061,"Delta":12615774},{"NoteNumber":78,"Velocity":57,"Duration":153061,"SoundDuration":153061,"Delta":12768835},{"NoteNumber":59,"Velocity":42,"Duration":306122,"SoundDuration":306122,"Delta":12768835},{"NoteNumber":76,"Velocity":50,"Duration":153061,"SoundDuration":153061,"Delta":12921896},{"NoteNumber":74,"Velocity":55,"Duration":153061,"SoundDuration":153061,"Delta":13074958},{"NoteNumber":57,"Velocity":40,"Duration":324489,"SoundDuration":324489,"Delta":13074958},{"NoteNumber":67,"Velocity":40,"Duration":654160,"SoundDuration":654160,"Delta":13074958},{"NoteNumber":73,"Velocity":49,"Duration":171428,"SoundDuration":171428,"Delta":13228019},{"NoteNumber":76,"Velocity":47,"Duration":329670,"SoundDuration":329670,"Delta":13399447},{"NoteNumber":62,"Velocity":40,"Duration":992653,"SoundDuration":992653,"Delta":13399447},{"NoteNumber":74,"Velocity":44,"Duration":331491,"SoundDuration":331491,"Delta":13729118},{"NoteNumber":66,"Velocity":36,"Duration":331491,"SoundDuration":331491,"Delta":13729118},{"NoteNumber":74,"Velocity":44,"Duration":331491,"SoundDuration":331491,"Delta":14060609},{"NoteNumber":66,"Velocity":36,"Duration":331491,"SoundDuration":331491,"Delta":14060609},{"NoteNumber":74,"Velocity":44,"Duration":497237,"SoundDuration":497237,"Delta":14392101},{"NoteNumber":62,"Velocity":32,"Duration":662982,"SoundDuration":662982,"Delta":14392101},{"NoteNumber":66,"Velocity":32,"Duration":662982,"SoundDuration":662982,"Delta":14392101},{"NoteNumber":71,"Velocity":44,"Duration":165745,"SoundDuration":165745,"Delta":14889338},{"NoteNumber":72,"Velocity":44,"Duration":165745,"SoundDuration":165745,"Delta":15055084},{"NoteNumber":69,"Velocity":44,"Duration":165745,"SoundDuration":165745,"Delta":15220830},{"NoteNumber":67,"Velocity":49,"Duration":552631,"SoundDuration":552631,"Delta":15386575},{"NoteNumber":55,"Velocity":40,"Duration":631578,"SoundDuration":631578,"Delta":15386575},{"NoteNumber":59,"Velocity":40,"Duration":631578,"SoundDuration":631578,"Delta":15386575},{"NoteNumber":71,"Velocity":47,"Duration":78947,"SoundDuration":78947,"Delta":15939207},{"NoteNumber":69,"Velocity":47,"Duration":322580,"SoundDuration":322580,"Delta":16018154},{"NoteNumber":55,"Velocity":38,"Duration":322580,"SoundDuration":322580,"Delta":16018154},{"NoteNumber":60,"Velocity":38,"Duration":322580,"SoundDuration":322580,"Delta":16018154},{"NoteNumber":62,"Velocity":49,"Duration":312500,"SoundDuration":312500,"Delta":16340735},{"NoteNumber":55,"Velocity":40,"Duration":625000,"SoundDuration":625000,"Delta":16340735},{"NoteNumber":60,"Velocity":40,"Duration":625000,"SoundDuration":625000,"Delta":16340735},{"NoteNumber":64,"Velocity":45,"Duration":312500,"SoundDuration":312500,"Delta":16653235},{"NoteNumber":66,"Velocity":45,"Duration":156250,"SoundDuration":156250,"Delta":16965735},{"NoteNumber":55,"Velocity":38,"Duration":312500,"SoundDuration":312500,"Delta":16965735},{"NoteNumber":60,"Velocity":38,"Duration":312500,"SoundDuration":312500,"Delta":16965735},{"NoteNumber":67,"Velocity":45,"Duration":39062,"SoundDuration":39062,"Delta":17121985},{"NoteNumber":66,"Velocity":45,"Duration":39062,"SoundDuration":39062,"Delta":17161047},{"NoteNumber":64,"Velocity":45,"Duration":39062,"SoundDuration":39062,"Delta":17200110},{"NoteNumber":66,"Velocity":45,"Duration":39062,"SoundDuration":39062,"Delta":17239172},{"NoteNumber":67,"Velocity":46,"Duration":118421,"SoundDuration":118421,"Delta":17278235},{"NoteNumber":55,"Velocity":37,"Duration":118421,"SoundDuration":118421,"Delta":17278235},{"NoteNumber":59,"Velocity":37,"Duration":118421,"SoundDuration":118421,"Delta":17278235},{"NoteNumber":67,"Velocity":45,"Duration":118421,"SoundDuration":118421,"Delta":17594024},{"NoteNumber":55,"Velocity":36,"Duration":118421,"SoundDuration":118421,"Delta":17594024},{"NoteNumber":59,"Velocity":36,"Duration":118421,"SoundDuration":118421,"Delta":17594024},{"NoteNumber":67,"Velocity":45,"Duration":118421,"SoundDuration":118421,"Delta":17909814},{"NoteNumber":55,"Velocity":36,"Duration":118421,"SoundDuration":118421,"Delta":17909814},{"NoteNumber":59,"Velocity":36,"Duration":118421,"SoundDuration":118421,"Delta":17909814},{"NoteNumber":67,"Velocity":45,"Duration":640114,"SoundDuration":640114,"Delta":18225603},{"NoteNumber":55,"Velocity":36,"Duration":640114,"SoundDuration":640114,"Delta":18225603},{"NoteNumber":59,"Velocity":36,"Duration":640114,"SoundDuration":640114,"Delta":18225603},{"NoteNumber":62,"Velocity":45,"Duration":312500,"SoundDuration":312500,"Delta":18865717},{"NoteNumber":69,"Velocity":45,"Duration":234375,"SoundDuration":234375,"Delta":18865717},{"NoteNumber":54,"Velocity":36,"Duration":234375,"SoundDuration":234375,"Delta":18865717},{"NoteNumber":72,"Velocity":45,"Duration":78125,"SoundDuration":78125,"Delta":19100092},{"NoteNumber":57,"Velocity":36,"Duration":78125,"SoundDuration":78125,"Delta":19100092},{"NoteNumber":62,"Velocity":41,"Duration":916813,"SoundDuration":916813,"Delta":19178217},{"NoteNumber":71,"Velocity":49,"Duration":306122,"SoundDuration":306122,"Delta":19178217},{"NoteNumber":55,"Velocity":39,"Duration":306122,"SoundDuration":306122,"Delta":19178217},{"NoteNumber":69,"Velocity":45,"Duration":306122,"SoundDuration":306122,"Delta":19484340},{"NoteNumber":54,"Velocity":36,"Duration":306122,"SoundDuration":306122,"Delta":19484340},{"NoteNumber":71,"Velocity":45,"Duration":304568,"SoundDuration":304568,"Delta":19790462},{"NoteNumber":55,"Velocity":36,"Duration":304568,"SoundDuration":304568,"Delta":19790462},{"NoteNumber":66,"Velocity":44,"Duration":615268,"SoundDuration":615268,"Delta":20095031},{"NoteNumber":62,"Velocity":36,"Duration":929404,"SoundDuration":929404,"Delta":20095031},{"NoteNumber":74,"Velocity":49,"Duration":306122,"SoundDuration":306122,"Delta":20095031},{"NoteNumber":57,"Velocity":38,"Duration":615268,"SoundDuration":615268,"Delta":20095031},{"NoteNumber":72,"Velocity":45,"Duration":309146,"SoundDuration":309146,"Delta":20401153},{"NoteNumber":67,"Velocity":45,"Duration":314136,"SoundDuration":314136,"Delta":20710300},{"NoteNumber":71,"Velocity":45,"Duration":314136,"SoundDuration":314136,"Delta":20710300},{"NoteNumber":55,"Velocity":36,"Duration":314136,"SoundDuration":314136,"Delta":20710300},{"NoteNumber":67,"Velocity":47,"Duration":306122,"SoundDuration":306122,"Delta":21024436},{"NoteNumber":71,"Velocity":47,"Duration":306122,"SoundDuration":306122,"Delta":21024436},{"NoteNumber":50,"Velocity":38,"Duration":306122,"SoundDuration":306122,"Delta":21024436},{"NoteNumber":66,"Velocity":45,"Duration":304568,"SoundDuration":304568,"Delta":21330558},{"NoteNumber":69,"Velocity":45,"Duration":304568,"SoundDuration":304568,"Delta":21330558},{"NoteNumber":62,"Velocity":36,"Duration":304568,"SoundDuration":304568,"Delta":21330558},{"NoteNumber":66,"Velocity":45,"Duration":304568,"SoundDuration":304568,"Delta":21635127},{"NoteNumber":69,"Velocity":45,"Duration":304568,"SoundDuration":304568,"Delta":21635127},{"NoteNumber":62,"Velocity":36,"Duration":304568,"SoundDuration":304568,"Delta":21635127},{"NoteNumber":66,"Velocity":45,"Duration":621762,"SoundDuration":621762,"Delta":21939695},{"NoteNumber":69,"Velocity":45,"Duration":621762,"SoundDuration":621762,"Delta":21939695},{"NoteNumber":62,"Velocity":36,"Duration":310880,"SoundDuration":310880,"Delta":21939695},{"NoteNumber":60,"Velocity":36,"Duration":310881,"SoundDuration":310881,"Delta":22250576},{"NoteNumber":68,"Velocity":46,"Duration":307692,"SoundDuration":307692,"Delta":22561457},{"NoteNumber":71,"Velocity":46,"Duration":307692,"SoundDuration":307692,"Delta":22561457},{"NoteNumber":59,"Velocity":37,"Duration":307692,"SoundDuration":307692,"Delta":22561457},{"NoteNumber":69,"Velocity":49,"Duration":307692,"SoundDuration":307692,"Delta":22869150},{"NoteNumber":72,"Velocity":49,"Duration":307692,"SoundDuration":307692,"Delta":22869150},{"NoteNumber":57,"Velocity":40,"Duration":615384,"SoundDuration":615384,"Delta":22869150},{"NoteNumber":71,"Velocity":51,"Duration":307692,"SoundDuration":307692,"Delta":23176842},{"NoteNumber":74,"Velocity":51,"Duration":307692,"SoundDuration":307692,"Delta":23176842},{"NoteNumber":72,"Velocity":51,"Duration":312500,"SoundDuration":312500,"Delta":23484535},{"NoteNumber":76,"Velocity":51,"Duration":312500,"SoundDuration":312500,"Delta":23484535},{"NoteNumber":55,"Velocity":39,"Duration":312500,"SoundDuration":312500,"Delta":23484535},{"NoteNumber":72,"Velocity":51,"Duration":634920,"SoundDuration":634920,"Delta":23797035},{"NoteNumber":76,"Velocity":51,"Duration":634920,"SoundDuration":634920,"Delta":23797035},{"NoteNumber":54,"Velocity":40,"Duration":317460,"SoundDuration":317460,"Delta":23797035},{"NoteNumber":57,"Velocity":39,"Duration":317460,"SoundDuration":317460,"Delta":24114495},{"NoteNumber":72,"Velocity":53,"Duration":102564,"SoundDuration":102564,"Delta":24431956},{"NoteNumber":69,"Velocity":53,"Duration":322385,"SoundDuration":322385,"Delta":24431956},{"NoteNumber":62,"Velocity":39,"Duration":322385,"SoundDuration":322385,"Delta":24431956},{"NoteNumber":71,"Velocity":46,"Duration":107461,"SoundDuration":107461,"Delta":24534520},{"NoteNumber":72,"Velocity":46,"Duration":112359,"SoundDuration":112359,"Delta":24641982},{"NoteNumber":67,"Velocity":50,"Duration":306122,"SoundDuration":306122,"Delta":24754341},{"NoteNumber":71,"Velocity":50,"Duration":306122,"SoundDuration":306122,"Delta":24754341},{"NoteNumber":55,"Velocity":46,"Duration":2142905,"SoundDuration":2142905,"Delta":24754341},{"NoteNumber":69,"Velocity":49,"Duration":306122,"SoundDuration":306122,"Delta":25060464},{"NoteNumber":72,"Velocity":49,"Duration":306122,"SoundDuration":306122,"Delta":25060464},{"NoteNumber":71,"Velocity":49,"Duration":306122,"SoundDuration":306122,"Delta":25366586},{"NoteNumber":74,"Velocity":49,"Duration":306122,"SoundDuration":306122,"Delta":25366586},{"NoteNumber":65,"Velocity":46,"Duration":306122,"SoundDuration":306122,"Delta":25366586},{"NoteNumber":67,"Velocity":51,"Duration":1224538,"SoundDuration":1224538,"Delta":25672709},{"NoteNumber":72,"Velocity":51,"Duration":306122,"SoundDuration":306122,"Delta":25672709},{"NoteNumber":64,"Velocity":46,"Duration":306122,"SoundDuration":306122,"Delta":25672709},{"NoteNumber":74,"Velocity":51,"Duration":304568,"SoundDuration":304568,"Delta":25978831},{"NoteNumber":62,"Velocity":46,"Duration":304568,"SoundDuration":304568,"Delta":25978831},{"NoteNumber":76,"Velocity":51,"Duration":304568,"SoundDuration":304568,"Delta":26283400},{"NoteNumber":60,"Velocity":46,"Duration":304568,"SoundDuration":304568,"Delta":26283400},{"NoteNumber":74,"Velocity":53,"Duration":309278,"SoundDuration":309278,"Delta":26587968},{"NoteNumber":59,"Velocity":42,"Duration":309278,"SoundDuration":309278,"Delta":26587968},{"NoteNumber":79,"Velocity":57,"Duration":309278,"SoundDuration":309278,"Delta":26897247},{"NoteNumber":54,"Velocity":40,"Duration":309278,"SoundDuration":309278,"Delta":26897247},{"NoteNumber":57,"Velocity":40,"Duration":309278,"SoundDuration":309278,"Delta":26897247},{"NoteNumber":79,"Velocity":57,"Duration":309278,"SoundDuration":309278,"Delta":27206525},{"NoteNumber":52,"Velocity":40,"Duration":309278,"SoundDuration":309278,"Delta":27206525},{"NoteNumber":55,"Velocity":40,"Duration":309278,"SoundDuration":309278,"Delta":27206525},{"NoteNumber":81,"Velocity":60,"Duration":153061,"SoundDuration":153061,"Delta":27515804},{"NoteNumber":52,"Velocity":43,"Duration":612245,"SoundDuration":612245,"Delta":27515804},{"NoteNumber":55,"Velocity":43,"Duration":306122,"SoundDuration":306122,"Delta":27515804},{"NoteNumber":79,"Velocity":53,"Duration":153061,"SoundDuration":153061,"Delta":27668865},{"NoteNumber":78,"Velocity":57,"Duration":153061,"SoundDuration":153061,"Delta":27821926},{"NoteNumber":59,"Velocity":42,"Duration":306122,"SoundDuration":306122,"Delta":27821926},{"NoteNumber":76,"Velocity":52,"Duration":153061,"SoundDuration":153061,"Delta":27974988},{"NoteNumber":74,"Velocity":55,"Duration":153061,"SoundDuration":153061,"Delta":28128049},{"NoteNumber":57,"Velocity":40,"Duration":324489,"SoundDuration":324489,"Delta":28128049},{"NoteNumber":67,"Velocity":40,"Duration":654160,"SoundDuration":654160,"Delta":28128049},{"NoteNumber":73,"Velocity":47,"Duration":171428,"SoundDuration":171428,"Delta":28281110},{"NoteNumber":76,"Velocity":47,"Duration":329670,"SoundDuration":329670,"Delta":28452539},{"NoteNumber":62,"Velocity":40,"Duration":992653,"SoundDuration":992653,"Delta":28452539},{"NoteNumber":74,"Velocity":44,"Duration":331491,"SoundDuration":331491,"Delta":28782209},{"NoteNumber":66,"Velocity":36,"Duration":331491,"SoundDuration":331491,"Delta":28782209},{"NoteNumber":74,"Velocity":44,"Duration":331491,"SoundDuration":331491,"Delta":29113701},{"NoteNumber":66,"Velocity":36,"Duration":331491,"SoundDuration":331491,"Delta":29113701},{"NoteNumber":74,"Velocity":44,"Duration":750000,"SoundDuration":750000,"Delta":29445192},{"NoteNumber":62,"Velocity":32,"Duration":750000,"SoundDuration":750000,"Delta":29445192},{"NoteNumber":66,"Velocity":32,"Duration":750000,"SoundDuration":750000,"Delta":29445192},{"NoteNumber":79,"Velocity":53,"Duration":394736,"SoundDuration":394736,"Delta":30195192},{"NoteNumber":62,"Velocity":34,"Duration":394736,"SoundDuration":394736,"Delta":30195192},{"NoteNumber":59,"Velocity":34,"Duration":394736,"SoundDuration":394736,"Delta":30195192},{"NoteNumber":79,"Velocity":53,"Duration":576923,"SoundDuration":576923,"Delta":30589929},{"NoteNumber":62,"Velocity":36,"Duration":659340,"SoundDuration":659340,"Delta":30589929},{"NoteNumber":59,"Velocity":36,"Duration":659340,"SoundDuration":659340,"Delta":30589929},{"NoteNumber":83,"Velocity":47,"Duration":82417,"SoundDuration":82417,"Delta":31166852},{"NoteNumber":81,"Velocity":51,"Duration":335195,"SoundDuration":335195,"Delta":31249270},{"NoteNumber":64,"Velocity":34,"Duration":335195,"SoundDuration":335195,"Delta":31249270},{"NoteNumber":60,"Velocity":34,"Duration":335195,"SoundDuration":335195,"Delta":31249270},{"NoteNumber":79,"Velocity":53,"Duration":306122,"SoundDuration":306122,"Delta":31584466},{"NoteNumber":59,"Velocity":36,"Duration":306122,"SoundDuration":306122,"Delta":31584466},{"NoteNumber":62,"Velocity":36,"Duration":306122,"SoundDuration":306122,"Delta":31584466},{"NoteNumber":78,"Velocity":49,"Duration":306122,"SoundDuration":306122,"Delta":31890588},{"NoteNumber":60,"Velocity":36,"Duration":306122,"SoundDuration":306122,"Delta":31890588},{"NoteNumber":57,"Velocity":36,"Duration":306122,"SoundDuration":306122,"Delta":31890588},{"NoteNumber":76,"Velocity":49,"Duration":310881,"SoundDuration":310881,"Delta":32196711},{"NoteNumber":55,"Velocity":34,"Duration":310881,"SoundDuration":310881,"Delta":32196711},{"NoteNumber":59,"Velocity":34,"Duration":310881,"SoundDuration":310881,"Delta":32196711},{"NoteNumber":74,"Velocity":50,"Duration":119680,"SoundDuration":119680,"Delta":32507592},{"NoteNumber":54,"Velocity":33,"Duration":119680,"SoundDuration":119680,"Delta":32507592},{"NoteNumber":57,"Velocity":33,"Duration":119680,"SoundDuration":119680,"Delta":32507592},{"NoteNumber":74,"Velocity":47,"Duration":119680,"SoundDuration":119680,"Delta":32826741},{"NoteNumber":54,"Velocity":32,"Duration":119680,"SoundDuration":119680,"Delta":32826741},{"NoteNumber":57,"Velocity":32,"Duration":119680,"SoundDuration":119680,"Delta":32826741},{"NoteNumber":74,"Velocity":47,"Duration":119680,"SoundDuration":119680,"Delta":33145890},{"NoteNumber":54,"Velocity":32,"Duration":119680,"SoundDuration":119680,"Delta":33145890},{"NoteNumber":57,"Velocity":32,"Duration":119680,"SoundDuration":119680,"Delta":33145890},{"NoteNumber":74,"Velocity":47,"Duration":638297,"SoundDuration":638297,"Delta":33465039},{"NoteNumber":54,"Velocity":32,"Duration":950797,"SoundDuration":950797,"Delta":33465039},{"NoteNumber":57,"Velocity":32,"Duration":319148,"SoundDuration":319148,"Delta":33465039},{"NoteNumber":59,"Velocity":39,"Duration":319149,"SoundDuration":319149,"Delta":33784188},{"NoteNumber":75,"Velocity":51,"Duration":312500,"SoundDuration":312500,"Delta":34103337},{"NoteNumber":60,"Velocity":43,"Duration":312500,"SoundDuration":312500,"Delta":34103337},{"NoteNumber":76,"Velocity":52,"Duration":319149,"SoundDuration":319149,"Delta":34415837},{"NoteNumber":55,"Velocity":36,"Duration":319149,"SoundDuration":319149,"Delta":34415837},{"NoteNumber":59,"Velocity":36,"Duration":319149,"SoundDuration":319149,"Delta":34415837},{"NoteNumber":78,"Velocity":54,"Duration":159574,"SoundDuration":159574,"Delta":34734986},{"NoteNumber":54,"Velocity":37,"Duration":319148,"SoundDuration":319148,"Delta":34734986},{"NoteNumber":57,"Velocity":37,"Duration":319148,"SoundDuration":319148,"Delta":34734986},{"NoteNumber":79,"Velocity":45,"Duration":39893,"SoundDuration":39893,"Delta":34894560},{"NoteNumber":78,"Velocity":45,"Duration":39893,"SoundDuration":39893,"Delta":34934454},{"NoteNumber":76,"Velocity":45,"Duration":39893,"SoundDuration":39893,"Delta":34974347},{"NoteNumber":78,"Velocity":45,"Duration":39893,"SoundDuration":39893,"Delta":35014241},{"NoteNumber":79,"Velocity":57,"Duration":319149,"SoundDuration":319149,"Delta":35054135},{"NoteNumber":52,"Velocity":37,"Duration":319149,"SoundDuration":319149,"Delta":35054135},{"NoteNumber":55,"Velocity":37,"Duration":319149,"SoundDuration":319149,"Delta":35054135},{"NoteNumber":69,"Velocity":52,"Duration":324324,"SoundDuration":324324,"Delta":35373284},{"NoteNumber":67,"Velocity":33,"Duration":324324,"SoundDuration":324324,"Delta":35373284},{"NoteNumber":57,"Velocity":33,"Duration":980140,"SoundDuration":980140,"Delta":35373284},{"NoteNumber":71,"Velocity":50,"Duration":324324,"SoundDuration":324324,"Delta":35697608},{"NoteNumber":66,"Velocity":33,"Duration":324324,"SoundDuration":324324,"Delta":35697608},{"NoteNumber":73,"Velocity":46,"Duration":165745,"SoundDuration":165745,"Delta":36021933},{"NoteNumber":64,"Velocity":33,"Duration":331491,"SoundDuration":331491,"Delta":36021933},{"NoteNumber":74,"Velocity":39,"Duration":41436,"SoundDuration":41436,"Delta":36187678},{"NoteNumber":73,"Velocity":39,"Duration":41436,"SoundDuration":41436,"Delta":36229115},{"NoteNumber":71,"Velocity":39,"Duration":41436,"SoundDuration":41436,"Delta":36270551},{"NoteNumber":73,"Velocity":39,"Duration":41436,"SoundDuration":41436,"Delta":36311988},{"NoteNumber":74,"Velocity":46,"Duration":165745,"SoundDuration":165745,"Delta":36353424},{"NoteNumber":50,"Velocity":20,"Duration":324324,"SoundDuration":324324,"Delta":36684916},{"NoteNumber":54,"Velocity":26,"Duration":324324,"SoundDuration":324324,"Delta":36684916},{"NoteNumber":74,"Velocity":42,"Duration":162162,"SoundDuration":162162,"Delta":37009240},{"NoteNumber":52,"Velocity":20,"Duration":243243,"SoundDuration":243243,"Delta":37009240},{"NoteNumber":55,"Velocity":26,"Duration":243243,"SoundDuration":243243,"Delta":37009240},{"NoteNumber":74,"Velocity":43,"Duration":162162,"SoundDuration":162162,"Delta":37333565},{"NoteNumber":54,"Velocity":21,"Duration":324324,"SoundDuration":324324,"Delta":37657889},{"NoteNumber":57,"Velocity":27,"Duration":324324,"SoundDuration":324324,"Delta":37657889},{"NoteNumber":74,"Velocity":42,"Duration":162162,"SoundDuration":162162,"Delta":37982214},{"NoteNumber":55,"Velocity":21,"Duration":243243,"SoundDuration":243243,"Delta":37982214},{"NoteNumber":59,"Velocity":27,"Duration":243243,"SoundDuration":243243,"Delta":37982214},{"NoteNumber":74,"Velocity":45,"Duration":162162,"SoundDuration":162162,"Delta":38306538},{"NoteNumber":57,"Velocity":27,"Duration":324324,"SoundDuration":324324,"Delta":38630863},{"NoteNumber":60,"Velocity":34,"Duration":324324,"SoundDuration":324324,"Delta":38630863},{"NoteNumber":74,"Velocity":44,"Duration":162162,"SoundDuration":162162,"Delta":38955187},{"NoteNumber":55,"Velocity":25,"Duration":243243,"SoundDuration":243243,"Delta":38955187},{"NoteNumber":59,"Velocity":32,"Duration":243243,"SoundDuration":243243,"Delta":38955187},{"NoteNumber":74,"Velocity":45,"Duration":162162,"SoundDuration":162162,"Delta":39279512},{"NoteNumber":54,"Velocity":25,"Duration":324324,"SoundDuration":324324,"Delta":39603836},{"NoteNumber":57,"Velocity":31,"Duration":324324,"SoundDuration":324324,"Delta":39603836},{"NoteNumber":74,"Velocity":41,"Duration":162162,"SoundDuration":162162,"Delta":39928161},{"NoteNumber":52,"Velocity":23,"Duration":243243,"SoundDuration":243243,"Delta":39928161},{"NoteNumber":55,"Velocity":29,"Duration":243243,"SoundDuration":243243,"Delta":39928161},{"NoteNumber":74,"Velocity":43,"Duration":162162,"SoundDuration":162162,"Delta":40252485},{"NoteNumber":50,"Velocity":32,"Duration":324324,"SoundDuration":324324,"Delta":40252485},{"NoteNumber":54,"Velocity":32,"Duration":324324,"SoundDuration":324324,"Delta":40252485},{"NoteNumber":74,"Velocity":37,"Duration":324324,"SoundDuration":324324,"Delta":40576810},{"NoteNumber":78,"Velocity":37,"Duration":324324,"SoundDuration":324324,"Delta":40576810},{"NoteNumber":76,"Velocity":36,"Duration":324324,"SoundDuration":324324,"Delta":40901134},{"NoteNumber":79,"Velocity":36,"Duration":324324,"SoundDuration":324324,"Delta":40901134},{"NoteNumber":62,"Velocity":35,"Duration":162162,"SoundDuration":162162,"Delta":40901134},{"NoteNumber":62,"Velocity":36,"Duration":162162,"SoundDuration":162162,"Delta":41225459},{"NoteNumber":81,"Velocity":37,"Duration":324324,"SoundDuration":324324,"Delta":41549783},{"NoteNumber":78,"Velocity":37,"Duration":324324,"SoundDuration":324324,"Delta":41549783},{"NoteNumber":79,"Velocity":36,"Duration":324324,"SoundDuration":324324,"Delta":41874108},{"NoteNumber":83,"Velocity":36,"Duration":324324,"SoundDuration":324324,"Delta":41874108},{"NoteNumber":62,"Velocity":35,"Duration":162162,"SoundDuration":162162,"Delta":41874108},{"NoteNumber":62,"Velocity":36,"Duration":162162,"SoundDuration":162162,"Delta":42198432},{"NoteNumber":81,"Velocity":40,"Duration":324324,"SoundDuration":324324,"Delta":42522757},{"NoteNumber":84,"Velocity":40,"Duration":324324,"SoundDuration":324324,"Delta":42522757},{"NoteNumber":83,"Velocity":36,"Duration":324324,"SoundDuration":324324,"Delta":42847081},{"NoteNumber":79,"Velocity":36,"Duration":324324,"SoundDuration":324324,"Delta":42847081},{"NoteNumber":62,"Velocity":36,"Duration":162162,"SoundDuration":162162,"Delta":42847081},{"NoteNumber":62,"Velocity":48,"Duration":499762,"SoundDuration":499762,"Delta":43171406},{"NoteNumber":72,"Velocity":47,"Duration":350876,"SoundDuration":350876,"Delta":43495730},{"NoteNumber":81,"Velocity":47,"Duration":350876,"SoundDuration":350876,"Delta":43495730},{"NoteNumber":66,"Velocity":43,"Duration":350876,"SoundDuration":350876,"Delta":43495730},{"NoteNumber":71,"Velocity":47,"Duration":476190,"SoundDuration":476190,"Delta":43846607},{"NoteNumber":79,"Velocity":47,"Duration":476190,"SoundDuration":476190,"Delta":43846607},{"NoteNumber":67,"Velocity":43,"Duration":476190,"SoundDuration":476190,"Delta":43846607},{"NoteNumber":72,"Velocity":45,"Duration":2142857,"SoundDuration":2142857,"Delta":44322798},{"NoteNumber":78,"Velocity":45,"Duration":2142857,"SoundDuration":2142857,"Delta":44322798},{"NoteNumber":62,"Velocity":41,"Duration":2142857,"SoundDuration":2142857,"Delta":44322798},{"NoteNumber":69,"Velocity":41,"Duration":2142857,"SoundDuration":2142857,"Delta":44322798},{"NoteNumber":71,"Velocity":43,"Duration":113351,"SoundDuration":113351,"Delta":46465655},{"NoteNumber":72,"Velocity":45,"Duration":111663,"SoundDuration":111663,"Delta":46579006},{"NoteNumber":74,"Velocity":47,"Duration":110294,"SoundDuration":110294,"Delta":46690670},{"NoteNumber":72,"Velocity":45,"Duration":110294,"SoundDuration":110294,"Delta":46800964},{"NoteNumber":71,"Velocity":45,"Duration":110294,"SoundDuration":110294,"Delta":46911258},{"NoteNumber":69,"Velocity":44,"Duration":110294,"SoundDuration":110294,"Delta":47021553},{"NoteNumber":67,"Velocity":49,"Duration":552631,"SoundDuration":552631,"Delta":47131847},{"NoteNumber":55,"Velocity":40,"Duration":631579,"SoundDuration":631579,"Delta":47131847},{"NoteNumber":59,"Velocity":40,"Duration":631579,"SoundDuration":631579,"Delta":47131847},{"NoteNumber":71,"Velocity":47,"Duration":78947,"SoundDuration":78947,"Delta":47684478},{"NoteNumber":69,"Velocity":47,"Duration":322580,"SoundDuration":322580,"Delta":47763426},{"NoteNumber":55,"Velocity":38,"Duration":322580,"SoundDuration":322580,"Delta":47763426},{"NoteNumber":60,"Velocity":38,"Duration":322580,"SoundDuration":322580,"Delta":47763426},{"NoteNumber":62,"Velocity":49,"Duration":312500,"SoundDuration":312500,"Delta":48086006},{"NoteNumber":55,"Velocity":40,"Duration":625000,"SoundDuration":625000,"Delta":48086006},{"NoteNumber":60,"Velocity":40,"Duration":625000,"SoundDuration":625000,"Delta":48086006},{"NoteNumber":64,"Velocity":45,"Duration":312500,"SoundDuration":312500,"Delta":48398506},{"NoteNumber":66,"Velocity":45,"Duration":156250,"SoundDuration":156250,"Delta":48711006},{"NoteNumber":55,"Velocity":38,"Duration":312500,"SoundDuration":312500,"Delta":48711006},{"NoteNumber":60,"Velocity":38,"Duration":312500,"SoundDuration":312500,"Delta":48711006},{"NoteNumber":67,"Velocity":45,"Duration":52083,"SoundDuration":52083,"Delta":48867256},{"NoteNumber":66,"Velocity":45,"Duration":52083,"SoundDuration":52083,"Delta":48906319},{"NoteNumber":64,"Velocity":45,"Duration":52083,"SoundDuration":52083,"Delta":48945381},{"NoteNumber":66,"Velocity":45,"Duration":39062,"SoundDuration":39062,"Delta":48984444},{"NoteNumber":67,"Velocity":46,"Duration":118421,"SoundDuration":118421,"Delta":49023506},{"NoteNumber":55,"Velocity":37,"Duration":118421,"SoundDuration":118421,"Delta":49023506},{"NoteNumber":59,"Velocity":37,"Duration":118421,"SoundDuration":118421,"Delta":49023506},{"NoteNumber":67,"Velocity":45,"Duration":118421,"SoundDuration":118421,"Delta":49339296},{"NoteNumber":55,"Velocity":36,"Duration":118421,"SoundDuration":118421,"Delta":49339296},{"NoteNumber":59,"Velocity":36,"Duration":118421,"SoundDuration":118421,"Delta":49339296},{"NoteNumber":67,"Velocity":45,"Duration":118421,"SoundDuration":118421,"Delta":49655085},{"NoteNumber":55,"Velocity":36,"Duration":118421,"SoundDuration":118421,"Delta":49655085},{"NoteNumber":59,"Velocity":36,"Duration":118421,"SoundDuration":118421,"Delta":49655085},{"NoteNumber":67,"Velocity":45,"Duration":640113,"SoundDuration":640113,"Delta":49970875},{"NoteNumber":55,"Velocity":36,"Duration":640113,"SoundDuration":640113,"Delta":49970875},{"NoteNumber":59,"Velocity":36,"Duration":640113,"SoundDuration":640113,"Delta":49970875},{"NoteNumber":62,"Velocity":45,"Duration":312500,"SoundDuration":312500,"Delta":50610989},{"NoteNumber":69,"Velocity":45,"Duration":234375,"SoundDuration":234375,"Delta":50610989},{"NoteNumber":54,"Velocity":36,"Duration":234375,"SoundDuration":234375,"Delta":50610989},{"NoteNumber":72,"Velocity":45,"Duration":78125,"SoundDuration":78125,"Delta":50845364},{"NoteNumber":57,"Velocity":36,"Duration":78125,"SoundDuration":78125,"Delta":50845364},{"NoteNumber":62,"Velocity":41,"Duration":916813,"SoundDuration":916813,"Delta":50923489},{"NoteNumber":71,"Velocity":49,"Duration":306122,"SoundDuration":306122,"Delta":50923489},{"NoteNumber":55,"Velocity":39,"Duration":306122,"SoundDuration":306122,"Delta":50923489},{"NoteNumber":69,"Velocity":45,"Duration":306122,"SoundDuration":306122,"Delta":51229611},{"NoteNumber":54,"Velocity":36,"Duration":306122,"SoundDuration":306122,"Delta":51229611},{"NoteNumber":71,"Velocity":45,"Duration":304568,"SoundDuration":304568,"Delta":51535734},{"NoteNumber":55,"Velocity":36,"Duration":304568,"SoundDuration":304568,"Delta":51535734},{"NoteNumber":66,"Velocity":44,"Duration":615268,"SoundDuration":615268,"Delta":51840302},{"NoteNumber":62,"Velocity":36,"Duration":931058,"SoundDuration":931058,"Delta":51840302},{"NoteNumber":74,"Velocity":49,"Duration":306122,"SoundDuration":306122,"Delta":51840302},{"NoteNumber":57,"Velocity":38,"Duration":615268,"SoundDuration":615268,"Delta":51840302},{"NoteNumber":72,"Velocity":45,"Duration":309146,"SoundDuration":309146,"Delta":52146425},{"NoteNumber":67,"Velocity":45,"Duration":315789,"SoundDuration":315789,"Delta":52455571},{"NoteNumber":71,"Velocity":45,"Duration":315789,"SoundDuration":315789,"Delta":52455571},{"NoteNumber":55,"Velocity":36,"Duration":315789,"SoundDuration":315789,"Delta":52455571},{"NoteNumber":67,"Velocity":47,"Duration":306122,"SoundDuration":306122,"Delta":52771361},{"NoteNumber":71,"Velocity":47,"Duration":306122,"SoundDuration":306122,"Delta":52771361},{"NoteNumber":50,"Velocity":38,"Duration":306122,"SoundDuration":306122,"Delta":52771361},{"NoteNumber":66,"Velocity":45,"Duration":304568,"SoundDuration":304568,"Delta":53077483},{"NoteNumber":69,"Velocity":45,"Duration":304568,"SoundDuration":304568,"Delta":53077483},{"NoteNumber":62,"Velocity":36,"Duration":304568,"SoundDuration":304568,"Delta":53077483},{"NoteNumber":66,"Velocity":45,"Duration":304568,"SoundDuration":304568,"Delta":53382052},{"NoteNumber":69,"Velocity":45,"Duration":304568,"SoundDuration":304568,"Delta":53382052},{"NoteNumber":62,"Velocity":36,"Duration":304568,"SoundDuration":304568,"Delta":53382052},{"NoteNumber":66,"Velocity":45,"Duration":621761,"SoundDuration":621761,"Delta":53686620},{"NoteNumber":69,"Velocity":45,"Duration":621761,"SoundDuration":621761,"Delta":53686620},{"NoteNumber":62,"Velocity":36,"Duration":310881,"SoundDuration":310881,"Delta":53686620},{"NoteNumber":60,"Velocity":36,"Duration":310880,"SoundDuration":310880,"Delta":53997501},{"NoteNumber":68,"Velocity":46,"Duration":307692,"SoundDuration":307692,"Delta":54308382},{"NoteNumber":71,"Velocity":46,"Duration":307692,"SoundDuration":307692,"Delta":54308382},{"NoteNumber":59,"Velocity":37,"Duration":307692,"SoundDuration":307692,"Delta":54308382},{"NoteNumber":69,"Velocity":49,"Duration":307692,"SoundDuration":307692,"Delta":54616075},{"NoteNumber":72,"Velocity":49,"Duration":307692,"SoundDuration":307692,"Delta":54616075},{"NoteNumber":57,"Velocity":40,"Duration":615384,"SoundDuration":615384,"Delta":54616075},{"NoteNumber":71,"Velocity":51,"Duration":307692,"SoundDuration":307692,"Delta":54923767},{"NoteNumber":74,"Velocity":51,"Duration":307692,"SoundDuration":307692,"Delta":54923767},{"NoteNumber":72,"Velocity":51,"Duration":312500,"SoundDuration":312500,"Delta":55231460},{"NoteNumber":76,"Velocity":51,"Duration":312500,"SoundDuration":312500,"Delta":55231460},{"NoteNumber":55,"Velocity":39,"Duration":312500,"SoundDuration":312500,"Delta":55231460},{"NoteNumber":72,"Velocity":51,"Duration":634920,"SoundDuration":634920,"Delta":55543960},{"NoteNumber":76,"Velocity":51,"Duration":634920,"SoundDuration":634920,"Delta":55543960},{"NoteNumber":54,"Velocity":40,"Duration":317460,"SoundDuration":317460,"Delta":55543960},{"NoteNumber":57,"Velocity":39,"Duration":317460,"SoundDuration":317460,"Delta":55861420},{"NoteNumber":72,"Velocity":45,"Duration":155440,"SoundDuration":155440,"Delta":56178881},{"NoteNumber":69,"Velocity":45,"Duration":310881,"SoundDuration":310881,"Delta":56178881},{"NoteNumber":62,"Velocity":39,"Duration":310881,"SoundDuration":310881,"Delta":56178881},{"NoteNumber":74,"Velocity":43,"Duration":51813,"SoundDuration":51813,"Delta":56334321},{"NoteNumber":72,"Velocity":43,"Duration":51813,"SoundDuration":51813,"Delta":56373181},{"NoteNumber":71,"Velocity":43,"Duration":51813,"SoundDuration":51813,"Delta":56412041},{"NoteNumber":72,"Velocity":43,"Duration":51615,"SoundDuration":51615,"Delta":56450901},{"NoteNumber":67,"Velocity":46,"Duration":306122,"SoundDuration":306122,"Delta":56489762},{"NoteNumber":71,"Velocity":46,"Duration":306122,"SoundDuration":306122,"Delta":56489762},{"NoteNumber":55,"Velocity":39,"Duration":939588,"SoundDuration":939588,"Delta":56489762},{"NoteNumber":69,"Velocity":45,"Duration":306122,"SoundDuration":306122,"Delta":56795884},{"NoteNumber":72,"Velocity":45,"Duration":306122,"SoundDuration":306122,"Delta":56795884},{"NoteNumber":71,"Velocity":45,"Duration":159574,"SoundDuration":159574,"Delta":57102007},{"NoteNumber":74,"Velocity":45,"Duration":159574,"SoundDuration":159574,"Delta":57102007},{"NoteNumber":73,"Velocity":45,"Duration":54644,"SoundDuration":54644,"Delta":57261581},{"NoteNumber":74,"Velocity":45,"Duration":54644,"SoundDuration":54644,"Delta":57316226},{"NoteNumber":76,"Velocity":45,"Duration":58479,"SoundDuration":58479,"Delta":57370871},{"NoteNumber":71,"Velocity":47,"Duration":612245,"SoundDuration":612245,"Delta":57429350},{"NoteNumber":74,"Velocity":47,"Duration":612245,"SoundDuration":612245,"Delta":57429350},{"NoteNumber":43,"Velocity":41,"Duration":306122,"SoundDuration":306122,"Delta":57429350},{"NoteNumber":47,"Velocity":40,"Duration":306122,"SoundDuration":306122,"Delta":57735473},{"NoteNumber":59,"Velocity":40,"Duration":306122,"SoundDuration":306122,"Delta":58041595},{"NoteNumber":67,"Velocity":40,"Duration":153061,"SoundDuration":153061,"Delta":58041595},{"NoteNumber":52,"Velocity":36,"Duration":306122,"SoundDuration":306122,"Delta":58041595},{"NoteNumber":69,"Velocity":36,"Duration":51020,"SoundDuration":51020,"Delta":58194656},{"NoteNumber":67,"Velocity":36,"Duration":51020,"SoundDuration":51020,"Delta":58232922},{"NoteNumber":66,"Velocity":36,"Duration":51020,"SoundDuration":51020,"Delta":58271187},{"NoteNumber":67,"Velocity":36,"Duration":38265,"SoundDuration":38265,"Delta":58309452},{"NoteNumber":60,"Velocity":44,"Duration":306122,"SoundDuration":306122,"Delta":58347718},{"NoteNumber":69,"Velocity":44,"Duration":306122,"SoundDuration":306122,"Delta":58347718},{"NoteNumber":48,"Velocity":39,"Duration":918367,"SoundDuration":918367,"Delta":58347718},{"NoteNumber":64,"Velocity":41,"Duration":306122,"SoundDuration":306122,"Delta":58653840},{"NoteNumber":72,"Velocity":41,"Duration":306122,"SoundDuration":306122,"Delta":58653840},{"NoteNumber":62,"Velocity":41,"Duration":306122,"SoundDuration":306122,"Delta":58959963},{"NoteNumber":71,"Velocity":41,"Duration":306122,"SoundDuration":306122,"Delta":58959963},{"NoteNumber":60,"Velocity":44,"Duration":310881,"SoundDuration":310881,"Delta":59266085},{"NoteNumber":69,"Velocity":44,"Duration":155440,"SoundDuration":155440,"Delta":59266085},{"NoteNumber":50,"Velocity":37,"Duration":1020940,"SoundDuration":1020940,"Delta":59266085},{"NoteNumber":71,"Velocity":36,"Duration":38860,"SoundDuration":38860,"Delta":59421526},{"NoteNumber":69,"Velocity":36,"Duration":38860,"SoundDuration":38860,"Delta":59460386},{"NoteNumber":67,"Velocity":36,"Duration":38860,"SoundDuration":38860,"Delta":59499246},{"NoteNumber":69,"Velocity":36,"Duration":38860,"SoundDuration":38860,"Delta":59538106},{"NoteNumber":59,"Velocity":40,"Duration":355029,"SoundDuration":355029,"Delta":59576966},{"NoteNumber":67,"Velocity":40,"Duration":355029,"SoundDuration":355029,"Delta":59576966},{"NoteNumber":57,"Velocity":35,"Duration":355029,"SoundDuration":355029,"Delta":59931996},{"NoteNumber":66,"Velocity":35,"Duration":177514,"SoundDuration":177514,"Delta":59931996},{"NoteNumber":67,"Velocity":35,"Duration":59171,"SoundDuration":59171,"Delta":60109510},{"NoteNumber":66,"Velocity":35,"Duration":59171,"SoundDuration":59171,"Delta":60153889},{"NoteNumber":64,"Velocity":35,"Duration":59171,"SoundDuration":59171,"Delta":60198268},{"NoteNumber":66,"Velocity":35,"Duration":60612,"SoundDuration":60612,"Delta":60242647},{"NoteNumber":60,"Velocity":39,"Duration":389610,"SoundDuration":389610,"Delta":60287025},{"NoteNumber":69,"Velocity":39,"Duration":389610,"SoundDuration":389610,"Delta":60287025},{"NoteNumber":43,"Velocity":32,"Duration":389610,"SoundDuration":389610,"Delta":60287025},{"NoteNumber":59,"Velocity":30,"Duration":389610,"SoundDuration":389610,"Delta":60676636},{"NoteNumber":67,"Velocity":30,"Duration":389610,"SoundDuration":389610,"Delta":60676636},{"NoteNumber":47,"Velocity":26,"Duration":389610,"SoundDuration":389610,"Delta":60676636},{"NoteNumber":59,"Velocity":30,"Duration":389610,"SoundDuration":389610,"Delta":61066246},{"NoteNumber":67,"Velocity":30,"Duration":389610,"SoundDuration":389610,"Delta":61066246},{"NoteNumber":50,"Velocity":26,"Duration":389610,"SoundDuration":389610,"Delta":61066246},{"NoteNumber":59,"Velocity":30,"Duration":779220,"SoundDuration":779220,"Delta":61455857},{"NoteNumber":67,"Velocity":30,"Duration":779220,"SoundDuration":779220,"Delta":61455857},{"NoteNumber":55,"Velocity":26,"Duration":779220,"SoundDuration":779220,"Delta":61455857},{"NoteNumber":79,"Velocity":53,"Duration":428571,"SoundDuration":428571,"Delta":62235078},{"NoteNumber":62,"Velocity":34,"Duration":428571,"SoundDuration":428571,"Delta":62235078},{"NoteNumber":59,"Velocity":34,"Duration":428571,"SoundDuration":428571,"Delta":62235078},{"NoteNumber":79,"Velocity":53,"Duration":576923,"SoundDuration":576923,"Delta":62663649},{"NoteNumber":62,"Velocity":36,"Duration":659340,"SoundDuration":659340,"Delta":62663649},{"NoteNumber":59,"Velocity":36,"Duration":659340,"SoundDuration":659340,"Delta":62663649},{"NoteNumber":83,"Velocity":51,"Duration":82417,"SoundDuration":82417,"Delta":63240573},{"NoteNumber":81,"Velocity":51,"Duration":335195,"SoundDuration":335195,"Delta":63322990},{"NoteNumber":64,"Velocity":34,"Duration":335195,"SoundDuration":335195,"Delta":63322990},{"NoteNumber":60,"Velocity":34,"Duration":335195,"SoundDuration":335195,"Delta":63322990},{"NoteNumber":79,"Velocity":53,"Duration":306122,"SoundDuration":306122,"Delta":63658186},{"NoteNumber":59,"Velocity":36,"Duration":306122,"SoundDuration":306122,"Delta":63658186},{"NoteNumber":62,"Velocity":36,"Duration":306122,"SoundDuration":306122,"Delta":63658186},{"NoteNumber":78,"Velocity":49,"Duration":306122,"SoundDuration":306122,"Delta":63964308},{"NoteNumber":60,"Velocity":36,"Duration":306122,"SoundDuration":306122,"Delta":63964308},{"NoteNumber":57,"Velocity":36,"Duration":306122,"SoundDuration":306122,"Delta":63964308},{"NoteNumber":76,"Velocity":49,"Duration":310880,"SoundDuration":310880,"Delta":64270431},{"NoteNumber":55,"Velocity":34,"Duration":310880,"SoundDuration":310880,"Delta":64270431},{"NoteNumber":59,"Velocity":34,"Duration":310880,"SoundDuration":310880,"Delta":64270431},{"NoteNumber":74,"Velocity":50,"Duration":119680,"SoundDuration":119680,"Delta":64581312},{"NoteNumber":54,"Velocity":33,"Duration":119680,"SoundDuration":119680,"Delta":64581312},{"NoteNumber":57,"Velocity":33,"Duration":119680,"SoundDuration":119680,"Delta":64581312},{"NoteNumber":74,"Velocity":47,"Duration":119680,"SoundDuration":119680,"Delta":64900461},{"NoteNumber":54,"Velocity":32,"Duration":119680,"SoundDuration":119680,"Delta":64900461},{"NoteNumber":57,"Velocity":32,"Duration":119680,"SoundDuration":119680,"Delta":64900461},{"NoteNumber":74,"Velocity":47,"Duration":119680,"SoundDuration":119680,"Delta":65219610},{"NoteNumber":54,"Velocity":32,"Duration":119680,"SoundDuration":119680,"Delta":65219610},{"NoteNumber":57,"Velocity":32,"Duration":119680,"SoundDuration":119680,"Delta":65219610},{"NoteNumber":74,"Velocity":47,"Duration":638297,"SoundDuration":638297,"Delta":65538759},{"NoteNumber":54,"Velocity":32,"Duration":950797,"SoundDuration":950797,"Delta":65538759},{"NoteNumber":57,"Velocity":32,"Duration":319148,"SoundDuration":319148,"Delta":65538759},{"NoteNumber":59,"Velocity":39,"Duration":319148,"SoundDuration":319148,"Delta":65857908},{"NoteNumber":75,"Velocity":51,"Duration":312500,"SoundDuration":312500,"Delta":66177057},{"NoteNumber":60,"Velocity":43,"Duration":312500,"SoundDuration":312500,"Delta":66177057},{"NoteNumber":76,"Velocity":52,"Duration":319148,"SoundDuration":319148,"Delta":66489557},{"NoteNumber":55,"Velocity":36,"Duration":319148,"SoundDuration":319148,"Delta":66489557},{"NoteNumber":59,"Velocity":36,"Duration":319148,"SoundDuration":319148,"Delta":66489557},{"NoteNumber":78,"Velocity":54,"Duration":159574,"SoundDuration":159574,"Delta":66808706},{"NoteNumber":54,"Velocity":37,"Duration":319149,"SoundDuration":319149,"Delta":66808706},{"NoteNumber":57,"Velocity":37,"Duration":319149,"SoundDuration":319149,"Delta":66808706},{"NoteNumber":79,"Velocity":45,"Duration":53191,"SoundDuration":53191,"Delta":66968280},{"NoteNumber":78,"Velocity":45,"Duration":53191,"SoundDuration":53191,"Delta":67008174},{"NoteNumber":76,"Velocity":45,"Duration":53191,"SoundDuration":53191,"Delta":67048067},{"NoteNumber":78,"Velocity":45,"Duration":53191,"SoundDuration":53191,"Delta":67087961},{"NoteNumber":79,"Velocity":57,"Duration":319148,"SoundDuration":319148,"Delta":67127855},{"NoteNumber":52,"Velocity":37,"Duration":319148,"SoundDuration":319148,"Delta":67127855},{"NoteNumber":55,"Velocity":37,"Duration":319148,"SoundDuration":319148,"Delta":67127855},{"NoteNumber":69,"Velocity":52,"Duration":324324,"SoundDuration":324324,"Delta":67447004},{"NoteNumber":67,"Velocity":33,"Duration":324324,"SoundDuration":324324,"Delta":67447004},{"NoteNumber":57,"Velocity":33,"Duration":980140,"SoundDuration":980140,"Delta":67447004},{"NoteNumber":71,"Velocity":50,"Duration":324324,"SoundDuration":324324,"Delta":67771328},{"NoteNumber":66,"Velocity":33,"Duration":324324,"SoundDuration":324324,"Delta":67771328},{"NoteNumber":73,"Velocity":46,"Duration":165745,"SoundDuration":165745,"Delta":68095653},{"NoteNumber":64,"Velocity":33,"Duration":331491,"SoundDuration":331491,"Delta":68095653},{"NoteNumber":74,"Velocity":39,"Duration":55248,"SoundDuration":55248,"Delta":68261398},{"NoteNumber":73,"Velocity":39,"Duration":55248,"SoundDuration":55248,"Delta":68302835},{"NoteNumber":71,"Velocity":39,"Duration":55248,"SoundDuration":55248,"Delta":68344271},{"NoteNumber":73,"Velocity":39,"Duration":55248,"SoundDuration":55248,"Delta":68385708},{"NoteNumber":74,"Velocity":46,"Duration":165745,"SoundDuration":165745,"Delta":68427144},{"NoteNumber":50,"Velocity":21,"Duration":324324,"SoundDuration":324324,"Delta":68758636},{"NoteNumber":54,"Velocity":27,"Duration":324324,"SoundDuration":324324,"Delta":68758636},{"NoteNumber":74,"Velocity":42,"Duration":162162,"SoundDuration":162162,"Delta":69082960},{"NoteNumber":52,"Velocity":21,"Duration":243243,"SoundDuration":243243,"Delta":69082960},{"NoteNumber":55,"Velocity":27,"Duration":243243,"SoundDuration":243243,"Delta":69082960},{"NoteNumber":74,"Velocity":43,"Duration":162162,"SoundDuration":162162,"Delta":69407285},{"NoteNumber":54,"Velocity":23,"Duration":324324,"SoundDuration":324324,"Delta":69731609},{"NoteNumber":57,"Velocity":29,"Duration":324324,"SoundDuration":324324,"Delta":69731609},{"NoteNumber":74,"Velocity":42,"Duration":162162,"SoundDuration":162162,"Delta":70055934},{"NoteNumber":55,"Velocity":21,"Duration":243243,"SoundDuration":243243,"Delta":70055934},{"NoteNumber":59,"Velocity":27,"Duration":243243,"SoundDuration":243243,"Delta":70055934},{"NoteNumber":74,"Velocity":45,"Duration":162162,"SoundDuration":162162,"Delta":70380258},{"NoteNumber":57,"Velocity":27,"Duration":324324,"SoundDuration":324324,"Delta":70704583},{"NoteNumber":60,"Velocity":34,"Duration":324324,"SoundDuration":324324,"Delta":70704583},{"NoteNumber":74,"Velocity":44,"Duration":162162,"SoundDuration":162162,"Delta":71028907},{"NoteNumber":55,"Velocity":25,"Duration":243243,"SoundDuration":243243,"Delta":71028907},{"NoteNumber":59,"Velocity":32,"Duration":243243,"SoundDuration":243243,"Delta":71028907},{"NoteNumber":74,"Velocity":45,"Duration":162162,"SoundDuration":162162,"Delta":71353232},{"NoteNumber":54,"Velocity":25,"Duration":324324,"SoundDuration":324324,"Delta":71677556},{"NoteNumber":57,"Velocity":32,"Duration":324324,"SoundDuration":324324,"Delta":71677556},{"NoteNumber":74,"Velocity":41,"Duration":162162,"SoundDuration":162162,"Delta":72001881},{"NoteNumber":52,"Velocity":25,"Duration":243243,"SoundDuration":243243,"Delta":72001881},{"NoteNumber":55,"Velocity":32,"Duration":243243,"SoundDuration":243243,"Delta":72001881},{"NoteNumber":74,"Velocity":43,"Duration":162162,"SoundDuration":162162,"Delta":72326205},{"NoteNumber":50,"Velocity":32,"Duration":324324,"SoundDuration":324324,"Delta":72326205},{"NoteNumber":54,"Velocity":32,"Duration":324324,"SoundDuration":324324,"Delta":72326205},{"NoteNumber":74,"Velocity":37,"Duration":324324,"SoundDuration":324324,"Delta":72650530},{"NoteNumber":78,"Velocity":37,"Duration":324324,"SoundDuration":324324,"Delta":72650530},{"NoteNumber":76,"Velocity":36,"Duration":324324,"SoundDuration":324324,"Delta":72974854},{"NoteNumber":79,"Velocity":36,"Duration":324324,"SoundDuration":324324,"Delta":72974854},{"NoteNumber":62,"Velocity":35,"Duration":162162,"SoundDuration":162162,"Delta":72974854},{"NoteNumber":62,"Velocity":36,"Duration":162162,"SoundDuration":162162,"Delta":73299179},{"NoteNumber":81,"Velocity":37,"Duration":324324,"SoundDuration":324324,"Delta":73623503},{"NoteNumber":78,"Velocity":37,"Duration":324324,"SoundDuration":324324,"Delta":73623503},{"NoteNumber":79,"Velocity":36,"Duration":324324,"SoundDuration":324324,"Delta":73947828},{"NoteNumber":83,"Velocity":36,"Duration":324324,"SoundDuration":324324,"Delta":73947828},{"NoteNumber":62,"Velocity":35,"Duration":162162,"SoundDuration":162162,"Delta":73947828},{"NoteNumber":62,"Velocity":36,"Duration":162162,"SoundDuration":162162,"Delta":74272152},{"NoteNumber":81,"Velocity":40,"Duration":324324,"SoundDuration":324324,"Delta":74596477},{"NoteNumber":84,"Velocity":40,"Duration":324324,"SoundDuration":324324,"Delta":74596477},{"NoteNumber":83,"Velocity":36,"Duration":324324,"SoundDuration":324324,"Delta":74920801},{"NoteNumber":79,"Velocity":36,"Duration":324324,"SoundDuration":324324,"Delta":74920801},{"NoteNumber":62,"Velocity":36,"Duration":162162,"SoundDuration":162162,"Delta":74920801},{"NoteNumber":62,"Velocity":48,"Duration":499763,"SoundDuration":499763,"Delta":75245126},{"NoteNumber":72,"Velocity":47,"Duration":350876,"SoundDuration":350876,"Delta":75569450},{"NoteNumber":81,"Velocity":47,"Duration":350876,"SoundDuration":350876,"Delta":75569450},{"NoteNumber":66,"Velocity":43,"Duration":350876,"SoundDuration":350876,"Delta":75569450},{"NoteNumber":71,"Velocity":47,"Duration":476190,"SoundDuration":476190,"Delta":75920327},{"NoteNumber":79,"Velocity":47,"Duration":476190,"SoundDuration":476190,"Delta":75920327},{"NoteNumber":67,"Velocity":43,"Duration":476190,"SoundDuration":476190,"Delta":75920327},{"NoteNumber":72,"Velocity":45,"Duration":2142857,"SoundDuration":2142857,"Delta":76396518},{"NoteNumber":78,"Velocity":45,"Duration":2142857,"SoundDuration":2142857,"Delta":76396518},{"NoteNumber":62,"Velocity":41,"Duration":2142857,"SoundDuration":2142857,"Delta":76396518},{"NoteNumber":69,"Velocity":41,"Duration":2142857,"SoundDuration":2142857,"Delta":76396518},{"NoteNumber":71,"Velocity":43,"Duration":113351,"SoundDuration":113351,"Delta":78539375},{"NoteNumber":72,"Velocity":45,"Duration":111663,"SoundDuration":111663,"Delta":78652727},{"NoteNumber":74,"Velocity":47,"Duration":110294,"SoundDuration":110294,"Delta":78764390},{"NoteNumber":72,"Velocity":45,"Duration":110294,"SoundDuration":110294,"Delta":78874685},{"NoteNumber":71,"Velocity":45,"Duration":110294,"SoundDuration":110294,"Delta":78984979},{"NoteNumber":69,"Velocity":44,"Duration":110294,"SoundDuration":110294,"Delta":79095273},{"NoteNumber":67,"Velocity":49,"Duration":552631,"SoundDuration":552631,"Delta":79205567},{"NoteNumber":55,"Velocity":40,"Duration":631579,"SoundDuration":631579,"Delta":79205567},{"NoteNumber":59,"Velocity":40,"Duration":631579,"SoundDuration":631579,"Delta":79205567},{"NoteNumber":71,"Velocity":47,"Duration":78947,"SoundDuration":78947,"Delta":79758199},{"NoteNumber":69,"Velocity":47,"Duration":322580,"SoundDuration":322580,"Delta":79837146},{"NoteNumber":55,"Velocity":38,"Duration":322580,"SoundDuration":322580,"Delta":79837146},{"NoteNumber":60,"Velocity":38,"Duration":322580,"SoundDuration":322580,"Delta":79837146},{"NoteNumber":62,"Velocity":49,"Duration":312500,"SoundDuration":312500,"Delta":80159726},{"NoteNumber":55,"Velocity":40,"Duration":625000,"SoundDuration":625000,"Delta":80159726},{"NoteNumber":60,"Velocity":40,"Duration":625000,"SoundDuration":625000,"Delta":80159726},{"NoteNumber":64,"Velocity":45,"Duration":312500,"SoundDuration":312500,"Delta":80472226},{"NoteNumber":66,"Velocity":45,"Duration":156250,"SoundDuration":156250,"Delta":80784726},{"NoteNumber":55,"Velocity":38,"Duration":312500,"SoundDuration":312500,"Delta":80784726},{"NoteNumber":60,"Velocity":38,"Duration":312500,"SoundDuration":312500,"Delta":80784726},{"NoteNumber":67,"Velocity":45,"Duration":52083,"SoundDuration":52083,"Delta":80940976},{"NoteNumber":66,"Velocity":45,"Duration":52083,"SoundDuration":52083,"Delta":80980039},{"NoteNumber":64,"Velocity":45,"Duration":52083,"SoundDuration":52083,"Delta":81019101},{"NoteNumber":66,"Velocity":45,"Duration":52220,"SoundDuration":52220,"Delta":81058164},{"NoteNumber":67,"Velocity":46,"Duration":118421,"SoundDuration":118421,"Delta":81097226},{"NoteNumber":55,"Velocity":37,"Duration":118421,"SoundDuration":118421,"Delta":81097226},{"NoteNumber":59,"Velocity":37,"Duration":118421,"SoundDuration":118421,"Delta":81097226},{"NoteNumber":67,"Velocity":45,"Duration":118421,"SoundDuration":118421,"Delta":81413016},{"NoteNumber":55,"Velocity":36,"Duration":118421,"SoundDuration":118421,"Delta":81413016},{"NoteNumber":59,"Velocity":36,"Duration":118421,"SoundDuration":118421,"Delta":81413016},{"NoteNumber":67,"Velocity":45,"Duration":118421,"SoundDuration":118421,"Delta":81728805},{"NoteNumber":55,"Velocity":36,"Duration":118421,"SoundDuration":118421,"Delta":81728805},{"NoteNumber":59,"Velocity":36,"Duration":118421,"SoundDuration":118421,"Delta":81728805},{"NoteNumber":67,"Velocity":45,"Duration":640114,"SoundDuration":640114,"Delta":82044595},{"NoteNumber":55,"Velocity":36,"Duration":640114,"SoundDuration":640114,"Delta":82044595},{"NoteNumber":59,"Velocity":36,"Duration":640114,"SoundDuration":640114,"Delta":82044595},{"NoteNumber":62,"Velocity":45,"Duration":312500,"SoundDuration":312500,"Delta":82684709},{"NoteNumber":69,"Velocity":45,"Duration":234375,"SoundDuration":234375,"Delta":82684709},{"NoteNumber":54,"Velocity":36,"Duration":234375,"SoundDuration":234375,"Delta":82684709},{"NoteNumber":72,"Velocity":45,"Duration":78125,"SoundDuration":78125,"Delta":82919084},{"NoteNumber":57,"Velocity":36,"Duration":78125,"SoundDuration":78125,"Delta":82919084},{"NoteNumber":62,"Velocity":41,"Duration":916813,"SoundDuration":916813,"Delta":82997209},{"NoteNumber":71,"Velocity":49,"Duration":306122,"SoundDuration":306122,"Delta":82997209},{"NoteNumber":55,"Velocity":39,"Duration":306122,"SoundDuration":306122,"Delta":82997209},{"NoteNumber":69,"Velocity":45,"Duration":306122,"SoundDuration":306122,"Delta":83303331},{"NoteNumber":54,"Velocity":36,"Duration":306122,"SoundDuration":306122,"Delta":83303331},{"NoteNumber":71,"Velocity":45,"Duration":304568,"SoundDuration":304568,"Delta":83609454},{"NoteNumber":55,"Velocity":36,"Duration":304568,"SoundDuration":304568,"Delta":83609454},{"NoteNumber":66,"Velocity":44,"Duration":615268,"SoundDuration":615268,"Delta":83914022},{"NoteNumber":62,"Velocity":36,"Duration":931058,"SoundDuration":931058,"Delta":83914022},{"NoteNumber":74,"Velocity":49,"Duration":306122,"SoundDuration":306122,"Delta":83914022},{"NoteNumber":57,"Velocity":38,"Duration":615268,"SoundDuration":615268,"Delta":83914022},{"NoteNumber":72,"Velocity":45,"Duration":309146,"SoundDuration":309146,"Delta":84220145},{"NoteNumber":67,"Velocity":45,"Duration":315789,"SoundDuration":315789,"Delta":84529291},{"NoteNumber":71,"Velocity":45,"Duration":315789,"SoundDuration":315789,"Delta":84529291},{"NoteNumber":55,"Velocity":36,"Duration":315789,"SoundDuration":315789,"Delta":84529291},{"NoteNumber":67,"Velocity":47,"Duration":306122,"SoundDuration":306122,"Delta":84845081},{"NoteNumber":71,"Velocity":47,"Duration":306122,"SoundDuration":306122,"Delta":84845081},{"NoteNumber":50,"Velocity":38,"Duration":306122,"SoundDuration":306122,"Delta":84845081},{"NoteNumber":66,"Velocity":45,"Duration":304568,"SoundDuration":304568,"Delta":85151203},{"NoteNumber":69,"Velocity":45,"Duration":304568,"SoundDuration":304568,"Delta":85151203},{"NoteNumber":62,"Velocity":36,"Duration":304568,"SoundDuration":304568,"Delta":85151203},{"NoteNumber":66,"Velocity":45,"Duration":304568,"SoundDuration":304568,"Delta":85455772},{"NoteNumber":69,"Velocity":45,"Duration":304568,"SoundDuration":304568,"Delta":85455772},{"NoteNumber":62,"Velocity":36,"Duration":304568,"SoundDuration":304568,"Delta":85455772},{"NoteNumber":66,"Velocity":45,"Duration":621762,"SoundDuration":621762,"Delta":85760340},{"NoteNumber":69,"Velocity":45,"Duration":621762,"SoundDuration":621762,"Delta":85760340},{"NoteNumber":62,"Velocity":36,"Duration":310880,"SoundDuration":310880,"Delta":85760340},{"NoteNumber":60,"Velocity":36,"Duration":310881,"SoundDuration":310881,"Delta":86071221},{"NoteNumber":68,"Velocity":46,"Duration":307692,"SoundDuration":307692,"Delta":86382102},{"NoteNumber":71,"Velocity":46,"Duration":307692,"SoundDuration":307692,"Delta":86382102},{"NoteNumber":59,"Velocity":37,"Duration":307692,"SoundDuration":307692,"Delta":86382102},{"NoteNumber":69,"Velocity":49,"Duration":307692,"SoundDuration":307692,"Delta":86689795},{"NoteNumber":72,"Velocity":49,"Duration":307692,"SoundDuration":307692,"Delta":86689795},{"NoteNumber":57,"Velocity":40,"Duration":615385,"SoundDuration":615385,"Delta":86689795},{"NoteNumber":71,"Velocity":51,"Duration":307692,"SoundDuration":307692,"Delta":86997487},{"NoteNumber":74,"Velocity":51,"Duration":307692,"SoundDuration":307692,"Delta":86997487},{"NoteNumber":72,"Velocity":51,"Duration":312500,"SoundDuration":312500,"Delta":87305180},{"NoteNumber":76,"Velocity":51,"Duration":312500,"SoundDuration":312500,"Delta":87305180},{"NoteNumber":55,"Velocity":39,"Duration":312500,"SoundDuration":312500,"Delta":87305180},{"NoteNumber":72,"Velocity":51,"Duration":634921,"SoundDuration":634921,"Delta":87617680},{"NoteNumber":76,"Velocity":51,"Duration":634921,"SoundDuration":634921,"Delta":87617680},{"NoteNumber":54,"Velocity":40,"Duration":317460,"SoundDuration":317460,"Delta":87617680},{"NoteNumber":57,"Velocity":39,"Duration":317460,"SoundDuration":317460,"Delta":87935140},{"NoteNumber":72,"Velocity":45,"Duration":155440,"SoundDuration":155440,"Delta":88252601},{"NoteNumber":69,"Velocity":45,"Duration":310880,"SoundDuration":310880,"Delta":88252601},{"NoteNumber":62,"Velocity":39,"Duration":310880,"SoundDuration":310880,"Delta":88252601},{"NoteNumber":74,"Velocity":43,"Duration":51813,"SoundDuration":51813,"Delta":88408041},{"NoteNumber":72,"Velocity":43,"Duration":51813,"SoundDuration":51813,"Delta":88446901},{"NoteNumber":71,"Velocity":43,"Duration":51813,"SoundDuration":51813,"Delta":88485762},{"NoteNumber":72,"Velocity":43,"Duration":51615,"SoundDuration":51615,"Delta":88524622},{"NoteNumber":67,"Velocity":46,"Duration":306122,"SoundDuration":306122,"Delta":88563482},{"NoteNumber":71,"Velocity":46,"Duration":306122,"SoundDuration":306122,"Delta":88563482},{"NoteNumber":55,"Velocity":39,"Duration":939588,"SoundDuration":939588,"Delta":88563482},{"NoteNumber":69,"Velocity":45,"Duration":306122,"SoundDuration":306122,"Delta":88869604},{"NoteNumber":72,"Velocity":45,"Duration":306122,"SoundDuration":306122,"Delta":88869604},{"NoteNumber":71,"Velocity":45,"Duration":159574,"SoundDuration":159574,"Delta":89175727},{"NoteNumber":74,"Velocity":45,"Duration":159574,"SoundDuration":159574,"Delta":89175727},{"NoteNumber":73,"Velocity":45,"Duration":54644,"SoundDuration":54644,"Delta":89335301},{"NoteNumber":74,"Velocity":45,"Duration":54644,"SoundDuration":54644,"Delta":89389946},{"NoteNumber":76,"Velocity":45,"Duration":58479,"SoundDuration":58479,"Delta":89444591},{"NoteNumber":71,"Velocity":47,"Duration":612245,"SoundDuration":612245,"Delta":89503070},{"NoteNumber":74,"Velocity":47,"Duration":612245,"SoundDuration":612245,"Delta":89503070},{"NoteNumber":43,"Velocity":41,"Duration":306122,"SoundDuration":306122,"Delta":89503070},{"NoteNumber":47,"Velocity":40,"Duration":306122,"SoundDuration":306122,"Delta":89809193},{"NoteNumber":59,"Velocity":40,"Duration":306122,"SoundDuration":306122,"Delta":90115315},{"NoteNumber":67,"Velocity":40,"Duration":153061,"SoundDuration":153061,"Delta":90115315},{"NoteNumber":52,"Velocity":36,"Duration":306122,"SoundDuration":306122,"Delta":90115315},{"NoteNumber":69,"Velocity":36,"Duration":51020,"SoundDuration":51020,"Delta":90268377},{"NoteNumber":67,"Velocity":36,"Duration":51020,"SoundDuration":51020,"Delta":90306642},{"NoteNumber":66,"Velocity":36,"Duration":51020,"SoundDuration":51020,"Delta":90344907},{"NoteNumber":67,"Velocity":36,"Duration":51020,"SoundDuration":51020,"Delta":90383173},{"NoteNumber":60,"Velocity":44,"Duration":306122,"SoundDuration":306122,"Delta":90421438},{"NoteNumber":69,"Velocity":44,"Duration":306122,"SoundDuration":306122,"Delta":90421438},{"NoteNumber":48,"Velocity":39,"Duration":918367,"SoundDuration":918367,"Delta":90421438},{"NoteNumber":64,"Velocity":41,"Duration":306122,"SoundDuration":306122,"Delta":90727560},{"NoteNumber":72,"Velocity":41,"Duration":306122,"SoundDuration":306122,"Delta":90727560},{"NoteNumber":62,"Velocity":41,"Duration":306122,"SoundDuration":306122,"Delta":91033683},{"NoteNumber":71,"Velocity":41,"Duration":306122,"SoundDuration":306122,"Delta":91033683},{"NoteNumber":60,"Velocity":44,"Duration":310880,"SoundDuration":310880,"Delta":91339805},{"NoteNumber":69,"Velocity":44,"Duration":155440,"SoundDuration":155440,"Delta":91339805},{"NoteNumber":50,"Velocity":37,"Duration":1020939,"SoundDuration":1020939,"Delta":91339805},{"NoteNumber":71,"Velocity":36,"Duration":38860,"SoundDuration":38860,"Delta":91495246},{"NoteNumber":69,"Velocity":36,"Duration":38860,"SoundDuration":38860,"Delta":91534106},{"NoteNumber":67,"Velocity":36,"Duration":38860,"SoundDuration":38860,"Delta":91572966},{"NoteNumber":69,"Velocity":36,"Duration":38860,"SoundDuration":38860,"Delta":91611826},{"NoteNumber":59,"Velocity":40,"Duration":355029,"SoundDuration":355029,"Delta":91650686},{"NoteNumber":67,"Velocity":40,"Duration":355029,"SoundDuration":355029,"Delta":91650686},{"NoteNumber":57,"Velocity":35,"Duration":355029,"SoundDuration":355029,"Delta":92005716},{"NoteNumber":66,"Velocity":35,"Duration":177514,"SoundDuration":177514,"Delta":92005716},{"NoteNumber":67,"Velocity":35,"Duration":59171,"SoundDuration":59171,"Delta":92183231},{"NoteNumber":66,"Velocity":35,"Duration":59171,"SoundDuration":59171,"Delta":92227609},{"NoteNumber":64,"Velocity":35,"Duration":59171,"SoundDuration":59171,"Delta":92271988},{"NoteNumber":66,"Velocity":35,"Duration":60612,"SoundDuration":60612,"Delta":92316367},{"NoteNumber":60,"Velocity":39,"Duration":389610,"SoundDuration":389610,"Delta":92360745},{"NoteNumber":69,"Velocity":39,"Duration":389610,"SoundDuration":389610,"Delta":92360745},{"NoteNumber":43,"Velocity":32,"Duration":389610,"SoundDuration":389610,"Delta":92360745},{"NoteNumber":59,"Velocity":30,"Duration":389610,"SoundDuration":389610,"Delta":92750356},{"NoteNumber":67,"Velocity":30,"Duration":389610,"SoundDuration":389610,"Delta":92750356},{"NoteNumber":47,"Velocity":26,"Duration":389610,"SoundDuration":389610,"Delta":92750356},{"NoteNumber":59,"Velocity":30,"Duration":389610,"SoundDuration":389610,"Delta":93139966},{"NoteNumber":67,"Velocity":30,"Duration":389610,"SoundDuration":389610,"Delta":93139966},{"NoteNumber":50,"Velocity":26,"Duration":389610,"SoundDuration":389610,"Delta":93139966},{"NoteNumber":59,"Velocity":30,"Duration":779221,"SoundDuration":779221,"Delta":93529577},{"NoteNumber":67,"Velocity":30,"Duration":779221,"SoundDuration":779221,"Delta":93529577},{"NoteNumber":55,"Velocity":26,"Duration":779221,"SoundDuration":779221,"Delta":93529577},{"NoteNumber":74,"Velocity":41,"Duration":164835,"SoundDuration":164835,"Delta":94308798},{"NoteNumber":74,"Velocity":41,"Duration":164835,"SoundDuration":164835,"Delta":94638468},{"NoteNumber":55,"Velocity":24,"Duration":329670,"SoundDuration":329670,"Delta":94968139},{"NoteNumber":58,"Velocity":28,"Duration":329670,"SoundDuration":329670,"Delta":94968139},{"NoteNumber":75,"Velocity":44,"Duration":164835,"SoundDuration":164835,"Delta":95297809},{"NoteNumber":75,"Velocity":44,"Duration":164835,"SoundDuration":164835,"Delta":95627480},{"NoteNumber":60,"Velocity":32,"Duration":329670,"SoundDuration":329670,"Delta":95957150},{"NoteNumber":55,"Velocity":27,"Duration":329670,"SoundDuration":329670,"Delta":95957150},{"NoteNumber":78,"Velocity":46,"Duration":164835,"SoundDuration":164835,"Delta":96286821},{"NoteNumber":78,"Velocity":46,"Duration":164835,"SoundDuration":164835,"Delta":96616491},{"NoteNumber":55,"Velocity":28,"Duration":329670,"SoundDuration":329670,"Delta":96946162},{"NoteNumber":60,"Velocity":34,"Duration":329670,"SoundDuration":329670,"Delta":96946162},{"NoteNumber":79,"Velocity":56,"Duration":164835,"SoundDuration":164835,"Delta":97275832},{"NoteNumber":79,"Velocity":56,"Duration":159574,"SoundDuration":159574,"Delta":97605503},{"NoteNumber":55,"Velocity":45,"Duration":338982,"SoundDuration":338982,"Delta":97924652},{"NoteNumber":58,"Velocity":54,"Duration":338982,"SoundDuration":338982,"Delta":97924652},{"NoteNumber":82,"Velocity":72,"Duration":638298,"SoundDuration":638298,"Delta":98263635},{"NoteNumber":73,"Velocity":72,"Duration":319148,"SoundDuration":319148,"Delta":98263635},{"NoteNumber":55,"Velocity":57,"Duration":319148,"SoundDuration":319148,"Delta":98263635},{"NoteNumber":64,"Velocity":57,"Duration":319148,"SoundDuration":319148,"Delta":98263635},{"NoteNumber":74,"Velocity":72,"Duration":647018,"SoundDuration":647018,"Delta":98582784},{"NoteNumber":65,"Velocity":52,"Duration":647018,"SoundDuration":647018,"Delta":98582784},{"NoteNumber":53,"Velocity":52,"Duration":647018,"SoundDuration":647018,"Delta":98582784},{"NoteNumber":81,"Velocity":69,"Duration":327869,"SoundDuration":327869,"Delta":98901933},{"NoteNumber":73,"Velocity":72,"Duration":319148,"SoundDuration":319148,"Delta":99229802},{"NoteNumber":82,"Velocity":72,"Duration":638298,"SoundDuration":638298,"Delta":99229802},{"NoteNumber":64,"Velocity":57,"Duration":319148,"SoundDuration":319148,"Delta":99229802},{"NoteNumber":55,"Velocity":57,"Duration":319148,"SoundDuration":319148,"Delta":99229802},{"NoteNumber":74,"Velocity":72,"Duration":650640,"SoundDuration":650640,"Delta":99548951},{"NoteNumber":53,"Velocity":51,"Duration":650640,"SoundDuration":650640,"Delta":99548951},{"NoteNumber":65,"Velocity":51,"Duration":650640,"SoundDuration":650640,"Delta":99548951},{"NoteNumber":81,"Velocity":68,"Duration":331491,"SoundDuration":331491,"Delta":99868100},{"NoteNumber":80,"Velocity":77,"Duration":159574,"SoundDuration":159574,"Delta":100199591},{"NoteNumber":62,"Velocity":54,"Duration":319148,"SoundDuration":319148,"Delta":100199591},{"NoteNumber":58,"Velocity":54,"Duration":319148,"SoundDuration":319148,"Delta":100199591},{"NoteNumber":65,"Velocity":54,"Duration":319148,"SoundDuration":319148,"Delta":100199591},{"NoteNumber":81,"Velocity":67,"Duration":66489,"SoundDuration":66489,"Delta":100359166},{"NoteNumber":80,"Velocity":69,"Duration":66489,"SoundDuration":66489,"Delta":100412357},{"NoteNumber":78,"Velocity":69,"Duration":66489,"SoundDuration":66489,"Delta":100465549},{"NoteNumber":80,"Velocity":79,"Duration":319149,"SoundDuration":319149,"Delta":100518740},{"NoteNumber":65,"Velocity":52,"Duration":950728,"SoundDuration":950728,"Delta":100518740},{"NoteNumber":62,"Velocity":52,"Duration":950728,"SoundDuration":950728,"Delta":100518740},{"NoteNumber":57,"Velocity":52,"Duration":950728,"SoundDuration":950728,"Delta":100518740},{"NoteNumber":81,"Velocity":69,"Duration":157894,"SoundDuration":157894,"Delta":100837889},{"NoteNumber":81,"Velocity":69,"Duration":157894,"SoundDuration":157894,"Delta":101153679},{"NoteNumber":65,"Velocity":51,"Duration":944148,"SoundDuration":944148,"Delta":101469468},{"NoteNumber":62,"Velocity":51,"Duration":944148,"SoundDuration":944148,"Delta":101469468},{"NoteNumber":56,"Velocity":51,"Duration":944148,"SoundDuration":944148,"Delta":101469468},{"NoteNumber":83,"Velocity":69,"Duration":156250,"SoundDuration":156250,"Delta":101788617},{"NoteNumber":83,"Velocity":69,"Duration":156250,"SoundDuration":156250,"Delta":102101117},{"NoteNumber":65,"Velocity":40,"Duration":1012790,"SoundDuration":1012790,"Delta":102413617},{"NoteNumber":62,"Velocity":40,"Duration":1012790,"SoundDuration":1012790,"Delta":102413617},{"NoteNumber":57,"Velocity":40,"Duration":1012790,"SoundDuration":1012790,"Delta":102413617},{"NoteNumber":69,"Velocity":44,"Duration":346821,"SoundDuration":346821,"Delta":102732766},{"NoteNumber":69,"Velocity":44,"Duration":346820,"SoundDuration":346820,"Delta":103079587},{"NoteNumber":69,"Velocity":45,"Duration":342856,"SoundDuration":342856,"Delta":103426408},{"NoteNumber":71,"Velocity":39,"Duration":342857,"SoundDuration":342857,"Delta":103769265},{"NoteNumber":67,"Velocity":31,"Duration":342857,"SoundDuration":342857,"Delta":103769265},{"NoteNumber":73,"Velocity":39,"Duration":392156,"SoundDuration":392156,"Delta":104112122},{"NoteNumber":67,"Velocity":31,"Duration":392156,"SoundDuration":392156,"Delta":104112122},{"NoteNumber":73,"Velocity":35,"Duration":1139240,"SoundDuration":1139240,"Delta":104504279},{"NoteNumber":67,"Velocity":28,"Duration":379746,"SoundDuration":379746,"Delta":104504279},{"NoteNumber":65,"Velocity":22,"Duration":379747,"SoundDuration":379747,"Delta":104884026},{"NoteNumber":64,"Velocity":21,"Duration":379746,"SoundDuration":379746,"Delta":105263773},{"NoteNumber":74,"Velocity":33,"Duration":379746,"SoundDuration":379746,"Delta":105643520},{"NoteNumber":62,"Velocity":22,"Duration":379746,"SoundDuration":379746,"Delta":105643520},{"NoteNumber":74,"Velocity":41,"Duration":189873,"SoundDuration":189873,"Delta":106403014},{"NoteNumber":74,"Velocity":41,"Duration":164835,"SoundDuration":164835,"Delta":106757723},{"NoteNumber":55,"Velocity":24,"Duration":329670,"SoundDuration":329670,"Delta":107087394},{"NoteNumber":58,"Velocity":28,"Duration":329670,"SoundDuration":329670,"Delta":107087394},{"NoteNumber":75,"Velocity":44,"Duration":164835,"SoundDuration":164835,"Delta":107417064},{"NoteNumber":75,"Velocity":44,"Duration":164835,"SoundDuration":164835,"Delta":107746735},{"NoteNumber":60,"Velocity":30,"Duration":329670,"SoundDuration":329670,"Delta":108076405},{"NoteNumber":55,"Velocity":25,"Duration":329670,"SoundDuration":329670,"Delta":108076405},{"NoteNumber":78,"Velocity":46,"Duration":164835,"SoundDuration":164835,"Delta":108406076},{"NoteNumber":78,"Velocity":46,"Duration":164835,"SoundDuration":164835,"Delta":108735746},{"NoteNumber":55,"Velocity":26,"Duration":329670,"SoundDuration":329670,"Delta":109065417},{"NoteNumber":60,"Velocity":31,"Duration":329670,"SoundDuration":329670,"Delta":109065417},{"NoteNumber":79,"Velocity":56,"Duration":164835,"SoundDuration":164835,"Delta":109395087},{"NoteNumber":79,"Velocity":56,"Duration":159574,"SoundDuration":159574,"Delta":109724758},{"NoteNumber":55,"Velocity":45,"Duration":338982,"SoundDuration":338982,"Delta":110043907},{"NoteNumber":58,"Velocity":54,"Duration":338982,"SoundDuration":338982,"Delta":110043907},{"NoteNumber":82,"Velocity":72,"Duration":638298,"SoundDuration":638298,"Delta":110382890},{"NoteNumber":73,"Velocity":72,"Duration":319148,"SoundDuration":319148,"Delta":110382890},{"NoteNumber":55,"Velocity":57,"Duration":319148,"SoundDuration":319148,"Delta":110382890},{"NoteNumber":64,"Velocity":57,"Duration":319148,"SoundDuration":319148,"Delta":110382890},{"NoteNumber":74,"Velocity":72,"Duration":647018,"SoundDuration":647018,"Delta":110702039},{"NoteNumber":65,"Velocity":52,"Duration":647018,"SoundDuration":647018,"Delta":110702039},{"NoteNumber":53,"Velocity":52,"Duration":647018,"SoundDuration":647018,"Delta":110702039},{"NoteNumber":81,"Velocity":66,"Duration":327869,"SoundDuration":327869,"Delta":111021188},{"NoteNumber":73,"Velocity":72,"Duration":319148,"SoundDuration":319148,"Delta":111349057},{"NoteNumber":82,"Velocity":72,"Duration":638298,"SoundDuration":638298,"Delta":111349057},{"NoteNumber":64,"Velocity":57,"Duration":319148,"SoundDuration":319148,"Delta":111349057},{"NoteNumber":55,"Velocity":57,"Duration":319148,"SoundDuration":319148,"Delta":111349057},{"NoteNumber":74,"Velocity":72,"Duration":650640,"SoundDuration":650640,"Delta":111668206},{"NoteNumber":53,"Velocity":51,"Duration":650640,"SoundDuration":650640,"Delta":111668206},{"NoteNumber":65,"Velocity":51,"Duration":650640,"SoundDuration":650640,"Delta":111668206},{"NoteNumber":81,"Velocity":66,"Duration":331491,"SoundDuration":331491,"Delta":111987355},{"NoteNumber":80,"Velocity":77,"Duration":159574,"SoundDuration":159574,"Delta":112318846},{"NoteNumber":62,"Velocity":54,"Duration":319148,"SoundDuration":319148,"Delta":112318846},{"NoteNumber":58,"Velocity":54,"Duration":319148,"SoundDuration":319148,"Delta":112318846},{"NoteNumber":65,"Velocity":54,"Duration":319148,"SoundDuration":319148,"Delta":112318846},{"NoteNumber":81,"Velocity":64,"Duration":66489,"SoundDuration":66489,"Delta":112478421},{"NoteNumber":80,"Velocity":64,"Duration":66489,"SoundDuration":66489,"Delta":112531612},{"NoteNumber":78,"Velocity":65,"Duration":66489,"SoundDuration":66489,"Delta":112584804},{"NoteNumber":80,"Velocity":81,"Duration":319149,"SoundDuration":319149,"Delta":112637995},{"NoteNumber":65,"Velocity":52,"Duration":950728,"SoundDuration":950728,"Delta":112637995},{"NoteNumber":62,"Velocity":52,"Duration":950728,"SoundDuration":950728,"Delta":112637995},{"NoteNumber":57,"Velocity":52,"Duration":950728,"SoundDuration":950728,"Delta":112637995},{"NoteNumber":81,"Velocity":67,"Duration":157894,"SoundDuration":157894,"Delta":112957144},{"NoteNumber":81,"Velocity":67,"Duration":157894,"SoundDuration":157894,"Delta":113272934},{"NoteNumber":65,"Velocity":51,"Duration":944148,"SoundDuration":944148,"Delta":113588723},{"NoteNumber":62,"Velocity":51,"Duration":944148,"SoundDuration":944148,"Delta":113588723},{"NoteNumber":56,"Velocity":51,"Duration":944148,"SoundDuration":944148,"Delta":113588723},{"NoteNumber":83,"Velocity":77,"Duration":156250,"SoundDuration":156250,"Delta":113907872},{"NoteNumber":83,"Velocity":77,"Duration":156250,"SoundDuration":156250,"Delta":114220372},{"NoteNumber":65,"Velocity":40,"Duration":1012790,"SoundDuration":1012790,"Delta":114532872},{"NoteNumber":62,"Velocity":40,"Duration":1012790,"SoundDuration":1012790,"Delta":114532872},{"NoteNumber":57,"Velocity":40,"Duration":1012790,"SoundDuration":1012790,"Delta":114532872},{"NoteNumber":69,"Velocity":44,"Duration":346821,"SoundDuration":346821,"Delta":114852021},{"NoteNumber":69,"Velocity":44,"Duration":346820,"SoundDuration":346820,"Delta":115198842},{"NoteNumber":69,"Velocity":45,"Duration":342856,"SoundDuration":342856,"Delta":115545663},{"NoteNumber":71,"Velocity":39,"Duration":342857,"SoundDuration":342857,"Delta":115888520},{"NoteNumber":67,"Velocity":31,"Duration":342857,"SoundDuration":342857,"Delta":115888520},{"NoteNumber":73,"Velocity":39,"Duration":392156,"SoundDuration":392156,"Delta":116231377},{"NoteNumber":67,"Velocity":31,"Duration":392156,"SoundDuration":392156,"Delta":116231377},{"NoteNumber":73,"Velocity":35,"Duration":1139240,"SoundDuration":1139240,"Delta":116623534},{"NoteNumber":67,"Velocity":29,"Duration":379746,"SoundDuration":379746,"Delta":116623534},{"NoteNumber":65,"Velocity":24,"Duration":379747,"SoundDuration":379747,"Delta":117003281},{"NoteNumber":64,"Velocity":22,"Duration":379746,"SoundDuration":379746,"Delta":117383028},{"NoteNumber":74,"Velocity":33,"Duration":379746,"SoundDuration":379746,"Delta":117762775},{"NoteNumber":62,"Velocity":22,"Duration":379746,"SoundDuration":379746,"Delta":117762775},{"NoteNumber":74,"Velocity":36,"Duration":389610,"SoundDuration":389610,"Delta":118522269},{"NoteNumber":74,"Velocity":37,"Duration":357142,"SoundDuration":357142,"Delta":118911880},{"NoteNumber":58,"Velocity":23,"Duration":357143,"SoundDuration":357143,"Delta":119269023},{"NoteNumber":62,"Velocity":23,"Duration":357143,"SoundDuration":357143,"Delta":119269023},{"NoteNumber":67,"Velocity":37,"Duration":338982,"SoundDuration":338982,"Delta":119626166},{"NoteNumber":72,"Velocity":39,"Duration":338982,"SoundDuration":338982,"Delta":119965149},{"NoteNumber":63,"Velocity":27,"Duration":357142,"SoundDuration":357142,"Delta":120304132},{"NoteNumber":57,"Velocity":27,"Duration":357142,"SoundDuration":357142,"Delta":120304132},{"NoteNumber":66,"Velocity":37,"Duration":338982,"SoundDuration":338982,"Delta":120661275},{"NoteNumber":70,"Velocity":39,"Duration":338982,"SoundDuration":338982,"Delta":121000258},{"NoteNumber":55,"Velocity":27,"Duration":359281,"SoundDuration":359281,"Delta":121339241},{"NoteNumber":58,"Velocity":27,"Duration":359281,"SoundDuration":359281,"Delta":121339241},{"NoteNumber":61,"Velocity":44,"Duration":340908,"SoundDuration":340908,"Delta":121698522},{"NoteNumber":62,"Velocity":45,"Duration":340909,"SoundDuration":340909,"Delta":122039431},{"NoteNumber":50,"Velocity":45,"Duration":327869,"SoundDuration":327869,"Delta":122380340},{"NoteNumber":38,"Velocity":45,"Duration":327869,"SoundDuration":327869,"Delta":122380340},{"NoteNumber":79,"Velocity":70,"Duration":638298,"SoundDuration":638298,"Delta":122708209},{"NoteNumber":67,"Velocity":70,"Duration":319148,"SoundDuration":319148,"Delta":122708209},{"NoteNumber":58,"Velocity":45,"Duration":319148,"SoundDuration":319148,"Delta":122708209},{"NoteNumber":62,"Velocity":55,"Duration":319148,"SoundDuration":319148,"Delta":122708209},{"NoteNumber":69,"Velocity":58,"Duration":647018,"SoundDuration":647018,"Delta":123027358},{"NoteNumber":63,"Velocity":50,"Duration":647018,"SoundDuration":647018,"Delta":123027358},{"NoteNumber":60,"Velocity":42,"Duration":647018,"SoundDuration":647018,"Delta":123027358},{"NoteNumber":78,"Velocity":69,"Duration":327869,"SoundDuration":327869,"Delta":123346507},{"NoteNumber":67,"Velocity":58,"Duration":319148,"SoundDuration":319148,"Delta":123674376},{"NoteNumber":79,"Velocity":70,"Duration":638298,"SoundDuration":638298,"Delta":123674376},{"NoteNumber":62,"Velocity":55,"Duration":319148,"SoundDuration":319148,"Delta":123674376},{"NoteNumber":58,"Velocity":45,"Duration":319148,"SoundDuration":319148,"Delta":123674376},{"NoteNumber":69,"Velocity":58,"Duration":650640,"SoundDuration":650640,"Delta":123993525},{"NoteNumber":60,"Velocity":41,"Duration":650640,"SoundDuration":650640,"Delta":123993525},{"NoteNumber":63,"Velocity":49,"Duration":650640,"SoundDuration":650640,"Delta":123993525},{"NoteNumber":78,"Velocity":67,"Duration":331491,"SoundDuration":331491,"Delta":124312674},{"NoteNumber":67,"Velocity":58,"Duration":402684,"SoundDuration":402684,"Delta":124644166},{"NoteNumber":79,"Velocity":73,"Duration":402684,"SoundDuration":402684,"Delta":124644166},{"NoteNumber":62,"Velocity":52,"Duration":402684,"SoundDuration":402684,"Delta":124644166},{"NoteNumber":58,"Velocity":44,"Duration":402684,"SoundDuration":402684,"Delta":124644166},{"NoteNumber":72,"Velocity":63,"Duration":1403508,"SoundDuration":1403508,"Delta":125046850},{"NoteNumber":75,"Velocity":63,"Duration":1403508,"SoundDuration":1403508,"Delta":125046850},{"NoteNumber":78,"Velocity":74,"Duration":1403508,"SoundDuration":1403508,"Delta":125046850},{"NoteNumber":81,"Velocity":74,"Duration":1403508,"SoundDuration":1403508,"Delta":125046850},{"NoteNumber":63,"Velocity":46,"Duration":1052631,"SoundDuration":1052631,"Delta":125046850},{"NoteNumber":60,"Velocity":46,"Duration":1052631,"SoundDuration":1052631,"Delta":125046850},{"NoteNumber":54,"Velocity":39,"Duration":1052631,"SoundDuration":1052631,"Delta":125046850},{"NoteNumber":57,"Velocity":39,"Duration":1052631,"SoundDuration":1052631,"Delta":125046850},{"NoteNumber":55,"Velocity":36,"Duration":1036590,"SoundDuration":1036590,"Delta":126099481},{"NoteNumber":74,"Velocity":44,"Duration":342857,"SoundDuration":342857,"Delta":126450358},{"NoteNumber":82,"Velocity":44,"Duration":342857,"SoundDuration":342857,"Delta":126450358},{"NoteNumber":82,"Velocity":44,"Duration":693733,"SoundDuration":693733,"Delta":126793215},{"NoteNumber":74,"Velocity":44,"Duration":342856,"SoundDuration":342856,"Delta":126793215},{"NoteNumber":75,"Velocity":44,"Duration":1387467,"SoundDuration":1387467,"Delta":127136072},{"NoteNumber":60,"Velocity":38,"Duration":1036590,"SoundDuration":1036590,"Delta":127136072},{"NoteNumber":81,"Velocity":44,"Duration":342857,"SoundDuration":342857,"Delta":127486949},{"NoteNumber":72,"Velocity":33,"Duration":342857,"SoundDuration":342857,"Delta":127486949},{"NoteNumber":81,"Velocity":44,"Duration":693733,"SoundDuration":693733,"Delta":127829806},{"NoteNumber":72,"Velocity":33,"Duration":693733,"SoundDuration":693733,"Delta":127829806},{"NoteNumber":62,"Velocity":38,"Duration":1120107,"SoundDuration":1120107,"Delta":128172663},{"NoteNumber":74,"Velocity":41,"Duration":384615,"SoundDuration":384615,"Delta":128523540},{"NoteNumber":79,"Velocity":41,"Duration":384615,"SoundDuration":384615,"Delta":128523540},{"NoteNumber":70,"Velocity":36,"Duration":384615,"SoundDuration":384615,"Delta":128523540},{"NoteNumber":72,"Velocity":37,"Duration":384615,"SoundDuration":384615,"Delta":128908156},{"NoteNumber":78,"Velocity":37,"Duration":384615,"SoundDuration":384615,"Delta":128908156},{"NoteNumber":69,"Velocity":34,"Duration":384615,"SoundDuration":384615,"Delta":128908156},{"NoteNumber":72,"Velocity":35,"Duration":1199999,"SoundDuration":1199999,"Delta":129292771},{"NoteNumber":78,"Velocity":35,"Duration":1199999,"SoundDuration":1199999,"Delta":129292771},{"NoteNumber":55,"Velocity":26,"Duration":1577358,"SoundDuration":1577358,"Delta":129292771},{"NoteNumber":69,"Velocity":26,"Duration":1199999,"SoundDuration":1199999,"Delta":129292771},{"NoteNumber":70,"Velocity":33,"Duration":377358,"SoundDuration":377358,"Delta":130492771},{"NoteNumber":79,"Velocity":33,"Duration":377358,"SoundDuration":377358,"Delta":130492771},{"NoteNumber":67,"Velocity":27,"Duration":377358,"SoundDuration":377358,"Delta":130492771},{"NoteNumber":74,"Velocity":36,"Duration":389610,"SoundDuration":389610,"Delta":131247488},{"NoteNumber":74,"Velocity":37,"Duration":357143,"SoundDuration":357143,"Delta":131637099},{"NoteNumber":58,"Velocity":24,"Duration":357142,"SoundDuration":357142,"Delta":131994242},{"NoteNumber":62,"Velocity":24,"Duration":357142,"SoundDuration":357142,"Delta":131994242},{"NoteNumber":67,"Velocity":37,"Duration":338983,"SoundDuration":338983,"Delta":132351385},{"NoteNumber":72,"Velocity":39,"Duration":338982,"SoundDuration":338982,"Delta":132690368},{"NoteNumber":63,"Velocity":27,"Duration":357143,"SoundDuration":357143,"Delta":133029351},{"NoteNumber":57,"Velocity":27,"Duration":357143,"SoundDuration":357143,"Delta":133029351},{"NoteNumber":66,"Velocity":37,"Duration":338983,"SoundDuration":338983,"Delta":133386494},{"NoteNumber":70,"Velocity":39,"Duration":338982,"SoundDuration":338982,"Delta":133725477},{"NoteNumber":55,"Velocity":27,"Duration":359281,"SoundDuration":359281,"Delta":134064460},{"NoteNumber":58,"Velocity":27,"Duration":359281,"SoundDuration":359281,"Delta":134064460},{"NoteNumber":61,"Velocity":44,"Duration":340909,"SoundDuration":340909,"Delta":134423741},{"NoteNumber":62,"Velocity":45,"Duration":340908,"SoundDuration":340908,"Delta":134764650},{"NoteNumber":50,"Velocity":45,"Duration":327868,"SoundDuration":327868,"Delta":135105559},{"NoteNumber":38,"Velocity":45,"Duration":327868,"SoundDuration":327868,"Delta":135105559},{"NoteNumber":79,"Velocity":70,"Duration":631596,"SoundDuration":631596,"Delta":135433428},{"NoteNumber":67,"Velocity":58,"Duration":314135,"SoundDuration":314135,"Delta":135433428},{"NoteNumber":58,"Velocity":45,"Duration":314135,"SoundDuration":314135,"Delta":135433428},{"NoteNumber":62,"Velocity":55,"Duration":314135,"SoundDuration":314135,"Delta":135433428},{"NoteNumber":69,"Velocity":58,"Duration":645329,"SoundDuration":645329,"Delta":135747564},{"NoteNumber":63,"Velocity":50,"Duration":645329,"SoundDuration":645329,"Delta":135747564},{"NoteNumber":60,"Velocity":42,"Duration":645329,"SoundDuration":645329,"Delta":135747564},{"NoteNumber":78,"Velocity":69,"Duration":327868,"SoundDuration":327868,"Delta":136065025},{"NoteNumber":67,"Velocity":58,"Duration":319149,"SoundDuration":319149,"Delta":136392894},{"NoteNumber":79,"Velocity":70,"Duration":631649,"SoundDuration":631649,"Delta":136392894},{"NoteNumber":62,"Velocity":55,"Duration":319149,"SoundDuration":319149,"Delta":136392894},{"NoteNumber":58,"Velocity":45,"Duration":319149,"SoundDuration":319149,"Delta":136392894},{"NoteNumber":69,"Velocity":58,"Duration":643991,"SoundDuration":643991,"Delta":136712043},{"NoteNumber":60,"Velocity":41,"Duration":643991,"SoundDuration":643991,"Delta":136712043},{"NoteNumber":63,"Velocity":49,"Duration":643991,"SoundDuration":643991,"Delta":136712043},{"NoteNumber":78,"Velocity":67,"Duration":331491,"SoundDuration":331491,"Delta":137024543},{"NoteNumber":67,"Velocity":58,"Duration":402684,"SoundDuration":402684,"Delta":137356034},{"NoteNumber":79,"Velocity":73,"Duration":402684,"SoundDuration":402684,"Delta":137356034},{"NoteNumber":62,"Velocity":52,"Duration":402684,"SoundDuration":402684,"Delta":137356034},{"NoteNumber":58,"Velocity":44,"Duration":402684,"SoundDuration":402684,"Delta":137356034},{"NoteNumber":72,"Velocity":63,"Duration":1403507,"SoundDuration":1403507,"Delta":137758719},{"NoteNumber":75,"Velocity":63,"Duration":1403507,"SoundDuration":1403507,"Delta":137758719},{"NoteNumber":78,"Velocity":74,"Duration":1403507,"SoundDuration":1403507,"Delta":137758719},{"NoteNumber":81,"Velocity":74,"Duration":1403507,"SoundDuration":1403507,"Delta":137758719},{"NoteNumber":63,"Velocity":46,"Duration":1052630,"SoundDuration":1052630,"Delta":137758719},{"NoteNumber":60,"Velocity":46,"Duration":1052630,"SoundDuration":1052630,"Delta":137758719},{"NoteNumber":54,"Velocity":39,"Duration":1052630,"SoundDuration":1052630,"Delta":137758719},{"NoteNumber":57,"Velocity":39,"Duration":1052630,"SoundDuration":1052630,"Delta":137758719},{"NoteNumber":55,"Velocity":36,"Duration":1036590,"SoundDuration":1036590,"Delta":138811350},{"NoteNumber":74,"Velocity":44,"Duration":342857,"SoundDuration":342857,"Delta":139162227},{"NoteNumber":82,"Velocity":44,"Duration":342857,"SoundDuration":342857,"Delta":139162227},{"NoteNumber":82,"Velocity":44,"Duration":693733,"SoundDuration":693733,"Delta":139505084},{"NoteNumber":74,"Velocity":44,"Duration":342856,"SoundDuration":342856,"Delta":139505084},{"NoteNumber":75,"Velocity":44,"Duration":1387467,"SoundDuration":1387467,"Delta":139847941},{"NoteNumber":60,"Velocity":38,"Duration":1036590,"SoundDuration":1036590,"Delta":139847941},{"NoteNumber":81,"Velocity":44,"Duration":342857,"SoundDuration":342857,"Delta":140198818},{"NoteNumber":72,"Velocity":33,"Duration":342857,"SoundDuration":342857,"Delta":140198818},{"NoteNumber":81,"Velocity":44,"Duration":693733,"SoundDuration":693733,"Delta":140541675},{"NoteNumber":72,"Velocity":33,"Duration":693733,"SoundDuration":693733,"Delta":140541675},{"NoteNumber":62,"Velocity":38,"Duration":1161024,"SoundDuration":1161024,"Delta":140884532},{"NoteNumber":74,"Velocity":41,"Duration":384615,"SoundDuration":384615,"Delta":141235409},{"NoteNumber":79,"Velocity":41,"Duration":384615,"SoundDuration":384615,"Delta":141235409},{"NoteNumber":70,"Velocity":36,"Duration":384615,"SoundDuration":384615,"Delta":141235409},{"NoteNumber":72,"Velocity":37,"Duration":425532,"SoundDuration":425532,"Delta":141620024},{"NoteNumber":78,"Velocity":37,"Duration":425532,"SoundDuration":425532,"Delta":141620024},{"NoteNumber":69,"Velocity":34,"Duration":425532,"SoundDuration":425532,"Delta":141620024},{"NoteNumber":72,"Velocity":35,"Duration":1199999,"SoundDuration":1199999,"Delta":142045556},{"NoteNumber":78,"Velocity":35,"Duration":1199999,"SoundDuration":1199999,"Delta":142045556},{"NoteNumber":55,"Velocity":26,"Duration":1599999,"SoundDuration":1599999,"Delta":142045556},{"NoteNumber":69,"Velocity":26,"Duration":1199999,"SoundDuration":1199999,"Delta":142045556},{"NoteNumber":70,"Velocity":33,"Duration":400000,"SoundDuration":400000,"Delta":143245556},{"NoteNumber":79,"Velocity":33,"Duration":400000,"SoundDuration":400000,"Delta":143245556},{"NoteNumber":67,"Velocity":27,"Duration":400000,"SoundDuration":400000,"Delta":143245556},{"NoteNumber":67,"Velocity":46,"Duration":400000,"SoundDuration":400000,"Delta":144045556},{"NoteNumber":59,"Velocity":38,"Duration":400000,"SoundDuration":400000,"Delta":144045556},{"NoteNumber":55,"Velocity":38,"Duration":400000,"SoundDuration":400000,"Delta":144045556},{"NoteNumber":67,"Velocity":49,"Duration":552631,"SoundDuration":552631,"Delta":144445556},{"NoteNumber":55,"Velocity":40,"Duration":631578,"SoundDuration":631578,"Delta":144445556},{"NoteNumber":59,"Velocity":40,"Duration":631578,"SoundDuration":631578,"Delta":144445556},{"NoteNumber":71,"Velocity":47,"Duration":78947,"SoundDuration":78947,"Delta":144998188},{"NoteNumber":69,"Velocity":47,"Duration":320855,"SoundDuration":320855,"Delta":145077135},{"NoteNumber":55,"Velocity":38,"Duration":320855,"SoundDuration":320855,"Delta":145077135},{"NoteNumber":60,"Velocity":38,"Duration":320855,"SoundDuration":320855,"Delta":145077135},{"NoteNumber":62,"Velocity":49,"Duration":307692,"SoundDuration":307692,"Delta":145397991},{"NoteNumber":55,"Velocity":40,"Duration":599446,"SoundDuration":599446,"Delta":145397991},{"NoteNumber":60,"Velocity":40,"Duration":599446,"SoundDuration":599446,"Delta":145397991},{"NoteNumber":63,"Velocity":45,"Duration":146708,"SoundDuration":146708,"Delta":145705683},{"NoteNumber":64,"Velocity":45,"Duration":145045,"SoundDuration":145045,"Delta":145852392},{"NoteNumber":65,"Velocity":45,"Duration":145288,"SoundDuration":145288,"Delta":145997437},{"NoteNumber":55,"Velocity":38,"Duration":295804,"SoundDuration":295804,"Delta":145997437},{"NoteNumber":60,"Velocity":38,"Duration":295804,"SoundDuration":295804,"Delta":145997437},{"NoteNumber":66,"Velocity":45,"Duration":150516,"SoundDuration":150516,"Delta":146142726},{"NoteNumber":67,"Velocity":46,"Duration":310079,"SoundDuration":310079,"Delta":146293242},{"NoteNumber":55,"Velocity":34,"Duration":1511592,"SoundDuration":1511592,"Delta":146293242},{"NoteNumber":59,"Velocity":34,"Duration":167592,"SoundDuration":167592,"Delta":146293242},{"NoteNumber":58,"Velocity":30,"Duration":155440,"SoundDuration":155440,"Delta":146447882},{"NoteNumber":67,"Velocity":45,"Duration":313318,"SoundDuration":313318,"Delta":146603322},{"NoteNumber":59,"Velocity":33,"Duration":169339,"SoundDuration":169339,"Delta":146603322},{"NoteNumber":58,"Velocity":30,"Duration":157068,"SoundDuration":157068,"Delta":146759572},{"NoteNumber":67,"Velocity":45,"Duration":316765,"SoundDuration":316765,"Delta":146916640},{"NoteNumber":59,"Velocity":32,"Duration":171122,"SoundDuration":171122,"Delta":146916640},{"NoteNumber":58,"Velocity":31,"Duration":158870,"SoundDuration":158870,"Delta":147074535},{"NoteNumber":67,"Velocity":45,"Duration":571428,"SoundDuration":571428,"Delta":147233406},{"NoteNumber":59,"Velocity":36,"Duration":571428,"SoundDuration":571428,"Delta":147233406},{"NoteNumber":62,"Velocity":45,"Duration":289854,"SoundDuration":289854,"Delta":147804835},{"NoteNumber":69,"Velocity":45,"Duration":217391,"SoundDuration":217391,"Delta":147804835},{"NoteNumber":54,"Velocity":36,"Duration":217391,"SoundDuration":217391,"Delta":147804835},{"NoteNumber":72,"Velocity":45,"Duration":72463,"SoundDuration":72463,"Delta":148022226},{"NoteNumber":57,"Velocity":41,"Duration":72463,"SoundDuration":72463,"Delta":148022226},{"NoteNumber":62,"Velocity":49,"Duration":875403,"SoundDuration":875403,"Delta":148094690},{"NoteNumber":71,"Velocity":49,"Duration":143540,"SoundDuration":143540,"Delta":148094690},{"NoteNumber":55,"Velocity":39,"Duration":143540,"SoundDuration":143540,"Delta":148094690},{"NoteNumber":70,"Velocity":47,"Duration":143540,"SoundDuration":143540,"Delta":148238231},{"NoteNumber":54,"Velocity":36,"Duration":143540,"SoundDuration":143540,"Delta":148238231},{"NoteNumber":71,"Velocity":49,"Duration":142857,"SoundDuration":142857,"Delta":148381771},{"NoteNumber":55,"Velocity":39,"Duration":142857,"SoundDuration":142857,"Delta":148381771},{"NoteNumber":70,"Velocity":46,"Duration":142857,"SoundDuration":142857,"Delta":148524629},{"NoteNumber":54,"Velocity":36,"Duration":142857,"SoundDuration":142857,"Delta":148524629},{"NoteNumber":71,"Velocity":49,"Duration":142179,"SoundDuration":142179,"Delta":148667486},{"NoteNumber":55,"Velocity":39,"Duration":142179,"SoundDuration":142179,"Delta":148667486},{"NoteNumber":74,"Velocity":46,"Duration":160427,"SoundDuration":160427,"Delta":148809666},{"NoteNumber":59,"Velocity":36,"Duration":160427,"SoundDuration":160427,"Delta":148809666},{"NoteNumber":66,"Velocity":44,"Duration":614136,"SoundDuration":614136,"Delta":148970094},{"NoteNumber":62,"Velocity":44,"Duration":914135,"SoundDuration":914135,"Delta":148970094},{"NoteNumber":74,"Velocity":49,"Duration":314135,"SoundDuration":314135,"Delta":148970094},{"NoteNumber":57,"Velocity":38,"Duration":614136,"SoundDuration":614136,"Delta":148970094},{"NoteNumber":72,"Velocity":45,"Duration":300000,"SoundDuration":300000,"Delta":149284230},{"NoteNumber":67,"Velocity":45,"Duration":299999,"SoundDuration":299999,"Delta":149584230},{"NoteNumber":71,"Velocity":45,"Duration":299999,"SoundDuration":299999,"Delta":149584230},{"NoteNumber":55,"Velocity":36,"Duration":299999,"SoundDuration":299999,"Delta":149584230},{"NoteNumber":67,"Velocity":47,"Duration":306122,"SoundDuration":306122,"Delta":149884230},{"NoteNumber":71,"Velocity":47,"Duration":306122,"SoundDuration":306122,"Delta":149884230},{"NoteNumber":50,"Velocity":38,"Duration":153061,"SoundDuration":153061,"Delta":149884230},{"NoteNumber":61,"Velocity":32,"Duration":153061,"SoundDuration":153061,"Delta":150037291},{"NoteNumber":66,"Velocity":45,"Duration":306122,"SoundDuration":306122,"Delta":150190352},{"NoteNumber":69,"Velocity":45,"Duration":306122,"SoundDuration":306122,"Delta":150190352},{"NoteNumber":62,"Velocity":37,"Duration":153061,"SoundDuration":153061,"Delta":150190352},{"NoteNumber":61,"Velocity":33,"Duration":153061,"SoundDuration":153061,"Delta":150343413},{"NoteNumber":66,"Velocity":45,"Duration":306122,"SoundDuration":306122,"Delta":150496475},{"NoteNumber":69,"Velocity":45,"Duration":306122,"SoundDuration":306122,"Delta":150496475},{"NoteNumber":62,"Velocity":37,"Duration":153061,"SoundDuration":153061,"Delta":150496475},{"NoteNumber":61,"Velocity":33,"Duration":153061,"SoundDuration":153061,"Delta":150649536},{"NoteNumber":66,"Velocity":45,"Duration":594058,"SoundDuration":594058,"Delta":150802597},{"NoteNumber":69,"Velocity":45,"Duration":594058,"SoundDuration":594058,"Delta":150802597},{"NoteNumber":62,"Velocity":38,"Duration":148514,"SoundDuration":148514,"Delta":150802597},{"NoteNumber":64,"Velocity":36,"Duration":148514,"SoundDuration":148514,"Delta":150951112},{"NoteNumber":60,"Velocity":38,"Duration":148514,"SoundDuration":148514,"Delta":151099627},{"NoteNumber":62,"Velocity":36,"Duration":148514,"SoundDuration":148514,"Delta":151248141},{"NoteNumber":68,"Velocity":46,"Duration":312500,"SoundDuration":312500,"Delta":151396656},{"NoteNumber":71,"Velocity":46,"Duration":312500,"SoundDuration":312500,"Delta":151396656},{"NoteNumber":59,"Velocity":39,"Duration":156250,"SoundDuration":156250,"Delta":151396656},{"NoteNumber":60,"Velocity":36,"Duration":156250,"SoundDuration":156250,"Delta":151552906},{"NoteNumber":69,"Velocity":49,"Duration":312500,"SoundDuration":312500,"Delta":151709156},{"NoteNumber":72,"Velocity":49,"Duration":312500,"SoundDuration":312500,"Delta":151709156},{"NoteNumber":57,"Velocity":40,"Duration":156250,"SoundDuration":156250,"Delta":151709156},{"NoteNumber":64,"Velocity":37,"Duration":156250,"SoundDuration":156250,"Delta":151865406},{"NoteNumber":71,"Velocity":51,"Duration":312500,"SoundDuration":312500,"Delta":152021656},{"NoteNumber":74,"Velocity":51,"Duration":312500,"SoundDuration":312500,"Delta":152021656},{"NoteNumber":60,"Velocity":37,"Duration":156250,"SoundDuration":156250,"Delta":152021656},{"NoteNumber":59,"Velocity":36,"Duration":156250,"SoundDuration":156250,"Delta":152177906},{"NoteNumber":72,"Velocity":51,"Duration":315789,"SoundDuration":315789,"Delta":152334156},{"NoteNumber":76,"Velocity":51,"Duration":315789,"SoundDuration":315789,"Delta":152334156},{"NoteNumber":57,"Velocity":36,"Duration":157894,"SoundDuration":157894,"Delta":152334156},{"NoteNumber":55,"Velocity":36,"Duration":157894,"SoundDuration":157894,"Delta":152492051},{"NoteNumber":72,"Velocity":51,"Duration":591262,"SoundDuration":591262,"Delta":152649946},{"NoteNumber":76,"Velocity":51,"Duration":591262,"SoundDuration":591262,"Delta":152649946},{"NoteNumber":54,"Velocity":36,"Duration":145631,"SoundDuration":145631,"Delta":152649946},{"NoteNumber":57,"Velocity":35,"Duration":145630,"SoundDuration":145630,"Delta":152795577},{"NoteNumber":60,"Velocity":36,"Duration":150000,"SoundDuration":150000,"Delta":152941208},{"NoteNumber":62,"Velocity":37,"Duration":150000,"SoundDuration":150000,"Delta":153091208},{"NoteNumber":71,"Velocity":47,"Duration":147783,"SoundDuration":147783,"Delta":153241208},{"NoteNumber":74,"Velocity":47,"Duration":147783,"SoundDuration":147783,"Delta":153241208},{"NoteNumber":64,"Velocity":39,"Duration":147783,"SoundDuration":147783,"Delta":153241208},{"NoteNumber":69,"Velocity":47,"Duration":147542,"SoundDuration":147542,"Delta":153388991},{"NoteNumber":72,"Velocity":47,"Duration":147542,"SoundDuration":147542,"Delta":153388991},{"NoteNumber":66,"Velocity":40,"Duration":147542,"SoundDuration":147542,"Delta":153388991},{"NoteNumber":71,"Velocity":49,"Duration":147783,"SoundDuration":147783,"Delta":153536534},{"NoteNumber":67,"Velocity":46,"Duration":587529,"SoundDuration":587529,"Delta":153536534},{"NoteNumber":72,"Velocity":45,"Duration":147179,"SoundDuration":147179,"Delta":153684317},{"NoteNumber":71,"Velocity":49,"Duration":146580,"SoundDuration":146580,"Delta":153831496},{"NoteNumber":72,"Velocity":45,"Duration":145986,"SoundDuration":145986,"Delta":153978077},{"NoteNumber":71,"Velocity":49,"Duration":145396,"SoundDuration":145396,"Delta":154124063},{"NoteNumber":65,"Velocity":45,"Duration":290207,"SoundDuration":290207,"Delta":154124063},{"NoteNumber":74,"Velocity":45,"Duration":144811,"SoundDuration":144811,"Delta":154269460},{"NoteNumber":72,"Velocity":51,"Duration":301507,"SoundDuration":301507,"Delta":154414271},{"NoteNumber":64,"Velocity":45,"Duration":150753,"SoundDuration":150753,"Delta":154414271},{"NoteNumber":67,"Velocity":42,"Duration":150753,"SoundDuration":150753,"Delta":154565025},{"NoteNumber":74,"Velocity":51,"Duration":309278,"SoundDuration":309278,"Delta":154715779},{"NoteNumber":62,"Velocity":44,"Duration":154639,"SoundDuration":154639,"Delta":154715779},{"NoteNumber":65,"Velocity":40,"Duration":154639,"SoundDuration":154639,"Delta":154870418},{"NoteNumber":76,"Velocity":51,"Duration":309278,"SoundDuration":309278,"Delta":155025057},{"NoteNumber":60,"Velocity":43,"Duration":154639,"SoundDuration":154639,"Delta":155025057},{"NoteNumber":64,"Velocity":38,"Duration":154639,"SoundDuration":154639,"Delta":155179696},{"NoteNumber":74,"Velocity":53,"Duration":314135,"SoundDuration":314135,"Delta":155334336},{"NoteNumber":59,"Velocity":42,"Duration":157068,"SoundDuration":157068,"Delta":155334336},{"NoteNumber":62,"Velocity":39,"Duration":157067,"SoundDuration":157067,"Delta":155491404},{"NoteNumber":79,"Velocity":57,"Duration":305737,"SoundDuration":305737,"Delta":155648472},{"NoteNumber":55,"Velocity":42,"Duration":152676,"SoundDuration":152676,"Delta":155648472},{"NoteNumber":59,"Velocity":39,"Duration":153061,"SoundDuration":153061,"Delta":155801148},{"NoteNumber":79,"Velocity":57,"Duration":306122,"SoundDuration":306122,"Delta":155954210},{"NoteNumber":54,"Velocity":42,"Duration":153061,"SoundDuration":153061,"Delta":155954210},{"NoteNumber":57,"Velocity":39,"Duration":153061,"SoundDuration":153061,"Delta":156107271},{"NoteNumber":81,"Velocity":60,"Duration":155440,"SoundDuration":155440,"Delta":156260332},{"NoteNumber":52,"Velocity":43,"Duration":155440,"SoundDuration":155440,"Delta":156260332},{"NoteNumber":79,"Velocity":59,"Duration":155440,"SoundDuration":155440,"Delta":156415773},{"NoteNumber":55,"Velocity":42,"Duration":155440,"SoundDuration":155440,"Delta":156415773},{"NoteNumber":78,"Velocity":57,"Duration":155440,"SoundDuration":155440,"Delta":156571213},{"NoteNumber":57,"Velocity":41,"Duration":155440,"SoundDuration":155440,"Delta":156571213},{"NoteNumber":76,"Velocity":56,"Duration":155440,"SoundDuration":155440,"Delta":156726654},{"NoteNumber":61,"Velocity":41,"Duration":155440,"SoundDuration":155440,"Delta":156726654},{"NoteNumber":74,"Velocity":55,"Duration":155440,"SoundDuration":155440,"Delta":156882094},{"NoteNumber":64,"Velocity":40,"Duration":155440,"SoundDuration":155440,"Delta":156882094},{"NoteNumber":73,"Velocity":54,"Duration":163043,"SoundDuration":163043,"Delta":157037535},{"NoteNumber":67,"Velocity":39,"Duration":492713,"SoundDuration":492713,"Delta":157037535},{"NoteNumber":76,"Velocity":47,"Duration":329670,"SoundDuration":329670,"Delta":157200578},{"NoteNumber":62,"Velocity":40,"Duration":664865,"SoundDuration":664865,"Delta":157200578},{"NoteNumber":74,"Velocity":44,"Duration":335195,"SoundDuration":335195,"Delta":157530249},{"NoteNumber":62,"Velocity":34,"Duration":670390,"SoundDuration":670390,"Delta":157530249},{"NoteNumber":66,"Velocity":34,"Duration":335195,"SoundDuration":335195,"Delta":157530249},{"NoteNumber":74,"Velocity":41,"Duration":335195,"SoundDuration":335195,"Delta":157865444},{"NoteNumber":62,"Velocity":34,"Duration":335195,"SoundDuration":335195,"Delta":157865444},{"NoteNumber":66,"Velocity":34,"Duration":335195,"SoundDuration":335195,"Delta":157865444},{"NoteNumber":74,"Velocity":41,"Duration":502793,"SoundDuration":502793,"Delta":158200640},{"NoteNumber":62,"Velocity":32,"Duration":666727,"SoundDuration":666727,"Delta":158200640},{"NoteNumber":66,"Velocity":32,"Duration":666727,"SoundDuration":666727,"Delta":158200640},{"NoteNumber":71,"Velocity":44,"Duration":163934,"SoundDuration":163934,"Delta":158703433},{"NoteNumber":72,"Velocity":44,"Duration":163934,"SoundDuration":163934,"Delta":158867367},{"NoteNumber":69,"Velocity":44,"Duration":163934,"SoundDuration":163934,"Delta":159031302},{"NoteNumber":67,"Velocity":49,"Duration":552631,"SoundDuration":552631,"Delta":159195236},{"NoteNumber":55,"Velocity":40,"Duration":631578,"SoundDuration":631578,"Delta":159195236},{"NoteNumber":59,"Velocity":40,"Duration":631578,"SoundDuration":631578,"Delta":159195236},{"NoteNumber":71,"Velocity":47,"Duration":78947,"SoundDuration":78947,"Delta":159747868},{"NoteNumber":69,"Velocity":47,"Duration":320855,"SoundDuration":320855,"Delta":159826815},{"NoteNumber":55,"Velocity":38,"Duration":320855,"SoundDuration":320855,"Delta":159826815},{"NoteNumber":60,"Velocity":38,"Duration":320855,"SoundDuration":320855,"Delta":159826815},{"NoteNumber":62,"Velocity":49,"Duration":307692,"SoundDuration":307692,"Delta":160147671},{"NoteNumber":55,"Velocity":40,"Duration":599446,"SoundDuration":599446,"Delta":160147671},{"NoteNumber":60,"Velocity":40,"Duration":599446,"SoundDuration":599446,"Delta":160147671},{"NoteNumber":63,"Velocity":45,"Duration":146708,"SoundDuration":146708,"Delta":160455363},{"NoteNumber":64,"Velocity":45,"Duration":145045,"SoundDuration":145045,"Delta":160602072},{"NoteNumber":65,"Velocity":45,"Duration":146480,"SoundDuration":146480,"Delta":160747118},{"NoteNumber":55,"Velocity":38,"Duration":299570,"SoundDuration":299570,"Delta":160747118},{"NoteNumber":60,"Velocity":38,"Duration":299570,"SoundDuration":299570,"Delta":160747118},{"NoteNumber":66,"Velocity":45,"Duration":153089,"SoundDuration":153089,"Delta":160893599},{"NoteNumber":67,"Velocity":46,"Duration":314135,"SoundDuration":314135,"Delta":161046688},{"NoteNumber":55,"Velocity":37,"Duration":1513836,"SoundDuration":1513836,"Delta":161046688},{"NoteNumber":59,"Velocity":37,"Duration":170156,"SoundDuration":170156,"Delta":161046688},{"NoteNumber":58,"Velocity":32,"Duration":157067,"SoundDuration":157067,"Delta":161203756},{"NoteNumber":67,"Velocity":45,"Duration":314136,"SoundDuration":314136,"Delta":161360824},{"NoteNumber":59,"Velocity":36,"Duration":170157,"SoundDuration":170157,"Delta":161360824},{"NoteNumber":58,"Velocity":33,"Duration":157068,"SoundDuration":157068,"Delta":161517892},{"NoteNumber":67,"Velocity":45,"Duration":314135,"SoundDuration":314135,"Delta":161674960},{"NoteNumber":59,"Velocity":35,"Duration":170156,"SoundDuration":170156,"Delta":161674960},{"NoteNumber":58,"Velocity":32,"Duration":157068,"SoundDuration":157068,"Delta":161832028},{"NoteNumber":67,"Velocity":45,"Duration":571428,"SoundDuration":571428,"Delta":161989096},{"NoteNumber":59,"Velocity":36,"Duration":571428,"SoundDuration":571428,"Delta":161989096},{"NoteNumber":62,"Velocity":45,"Duration":289854,"SoundDuration":289854,"Delta":162560525},{"NoteNumber":69,"Velocity":45,"Duration":217391,"SoundDuration":217391,"Delta":162560525},{"NoteNumber":54,"Velocity":36,"Duration":217391,"SoundDuration":217391,"Delta":162560525},{"NoteNumber":72,"Velocity":45,"Duration":72463,"SoundDuration":72463,"Delta":162777916},{"NoteNumber":57,"Velocity":41,"Duration":72463,"SoundDuration":72463,"Delta":162777916},{"NoteNumber":62,"Velocity":49,"Duration":875403,"SoundDuration":875403,"Delta":162850380},{"NoteNumber":71,"Velocity":49,"Duration":143540,"SoundDuration":143540,"Delta":162850380},{"NoteNumber":55,"Velocity":39,"Duration":143540,"SoundDuration":143540,"Delta":162850380},{"NoteNumber":70,"Velocity":47,"Duration":143540,"SoundDuration":143540,"Delta":162993920},{"NoteNumber":54,"Velocity":36,"Duration":143540,"SoundDuration":143540,"Delta":162993920},{"NoteNumber":71,"Velocity":49,"Duration":142857,"SoundDuration":142857,"Delta":163137461},{"NoteNumber":55,"Velocity":39,"Duration":142857,"SoundDuration":142857,"Delta":163137461},{"NoteNumber":70,"Velocity":46,"Duration":142857,"SoundDuration":142857,"Delta":163280318},{"NoteNumber":54,"Velocity":36,"Duration":142857,"SoundDuration":142857,"Delta":163280318},{"NoteNumber":71,"Velocity":49,"Duration":142179,"SoundDuration":142179,"Delta":163423176},{"NoteNumber":55,"Velocity":39,"Duration":142179,"SoundDuration":142179,"Delta":163423176},{"NoteNumber":74,"Velocity":46,"Duration":160427,"SoundDuration":160427,"Delta":163565356},{"NoteNumber":59,"Velocity":36,"Duration":160427,"SoundDuration":160427,"Delta":163565356},{"NoteNumber":66,"Velocity":44,"Duration":609702,"SoundDuration":609702,"Delta":163725783},{"NoteNumber":62,"Velocity":44,"Duration":911210,"SoundDuration":911210,"Delta":163725783},{"NoteNumber":74,"Velocity":49,"Duration":314135,"SoundDuration":314135,"Delta":163725783},{"NoteNumber":57,"Velocity":38,"Duration":609702,"SoundDuration":609702,"Delta":163725783},{"NoteNumber":72,"Velocity":45,"Duration":295566,"SoundDuration":295566,"Delta":164039919},{"NoteNumber":67,"Velocity":45,"Duration":301507,"SoundDuration":301507,"Delta":164335486},{"NoteNumber":71,"Velocity":45,"Duration":301507,"SoundDuration":301507,"Delta":164335486},{"NoteNumber":55,"Velocity":36,"Duration":301507,"SoundDuration":301507,"Delta":164335486},{"NoteNumber":67,"Velocity":47,"Duration":310880,"SoundDuration":310880,"Delta":164636993},{"NoteNumber":71,"Velocity":47,"Duration":310880,"SoundDuration":310880,"Delta":164636993},{"NoteNumber":50,"Velocity":38,"Duration":155440,"SoundDuration":155440,"Delta":164636993},{"NoteNumber":61,"Velocity":36,"Duration":155440,"SoundDuration":155440,"Delta":164792434},{"NoteNumber":66,"Velocity":45,"Duration":310880,"SoundDuration":310880,"Delta":164947874},{"NoteNumber":69,"Velocity":45,"Duration":310880,"SoundDuration":310880,"Delta":164947874},{"NoteNumber":62,"Velocity":37,"Duration":155440,"SoundDuration":155440,"Delta":164947874},{"NoteNumber":61,"Velocity":36,"Duration":155440,"SoundDuration":155440,"Delta":165103315},{"NoteNumber":66,"Velocity":45,"Duration":310881,"SoundDuration":310881,"Delta":165258755},{"NoteNumber":69,"Velocity":45,"Duration":310881,"SoundDuration":310881,"Delta":165258755},{"NoteNumber":62,"Velocity":37,"Duration":155440,"SoundDuration":155440,"Delta":165258755},{"NoteNumber":61,"Velocity":36,"Duration":155440,"SoundDuration":155440,"Delta":165414196},{"NoteNumber":66,"Velocity":45,"Duration":591133,"SoundDuration":591133,"Delta":165569636},{"NoteNumber":69,"Velocity":45,"Duration":591133,"SoundDuration":591133,"Delta":165569636},{"NoteNumber":62,"Velocity":38,"Duration":147783,"SoundDuration":147783,"Delta":165569636},{"NoteNumber":64,"Velocity":36,"Duration":147783,"SoundDuration":147783,"Delta":165717420},{"NoteNumber":60,"Velocity":38,"Duration":147783,"SoundDuration":147783,"Delta":165865203},{"NoteNumber":62,"Velocity":36,"Duration":147783,"SoundDuration":147783,"Delta":166012986},{"NoteNumber":68,"Velocity":46,"Duration":310880,"SoundDuration":310880,"Delta":166160769},{"NoteNumber":71,"Velocity":46,"Duration":310880,"SoundDuration":310880,"Delta":166160769},{"NoteNumber":59,"Velocity":39,"Duration":155440,"SoundDuration":155440,"Delta":166160769},{"NoteNumber":60,"Velocity":36,"Duration":155440,"SoundDuration":155440,"Delta":166316210},{"NoteNumber":69,"Velocity":49,"Duration":310880,"SoundDuration":310880,"Delta":166471650},{"NoteNumber":72,"Velocity":49,"Duration":310880,"SoundDuration":310880,"Delta":166471650},{"NoteNumber":57,"Velocity":40,"Duration":155440,"SoundDuration":155440,"Delta":166471650},{"NoteNumber":64,"Velocity":37,"Duration":155440,"SoundDuration":155440,"Delta":166627091},{"NoteNumber":71,"Velocity":51,"Duration":310881,"SoundDuration":310881,"Delta":166782531},{"NoteNumber":74,"Velocity":51,"Duration":310881,"SoundDuration":310881,"Delta":166782531},{"NoteNumber":60,"Velocity":37,"Duration":155440,"SoundDuration":155440,"Delta":166782531},{"NoteNumber":59,"Velocity":36,"Duration":155440,"SoundDuration":155440,"Delta":166937972},{"NoteNumber":72,"Velocity":51,"Duration":317460,"SoundDuration":317460,"Delta":167093412},{"NoteNumber":76,"Velocity":51,"Duration":317460,"SoundDuration":317460,"Delta":167093412},{"NoteNumber":57,"Velocity":36,"Duration":158730,"SoundDuration":158730,"Delta":167093412},{"NoteNumber":55,"Velocity":36,"Duration":158730,"SoundDuration":158730,"Delta":167252143},{"NoteNumber":72,"Velocity":51,"Duration":589769,"SoundDuration":589769,"Delta":167410873},{"NoteNumber":76,"Velocity":51,"Duration":589769,"SoundDuration":589769,"Delta":167410873},{"NoteNumber":54,"Velocity":36,"Duration":145631,"SoundDuration":145631,"Delta":167410873},{"NoteNumber":57,"Velocity":35,"Duration":145630,"SoundDuration":145630,"Delta":167556504},{"NoteNumber":60,"Velocity":36,"Duration":149253,"SoundDuration":149253,"Delta":167702135},{"NoteNumber":62,"Velocity":37,"Duration":149253,"SoundDuration":149253,"Delta":167851389},{"NoteNumber":71,"Velocity":47,"Duration":147058,"SoundDuration":147058,"Delta":168000642},{"NoteNumber":74,"Velocity":47,"Duration":147058,"SoundDuration":147058,"Delta":168000642},{"NoteNumber":64,"Velocity":39,"Duration":147058,"SoundDuration":147058,"Delta":168000642},{"NoteNumber":69,"Velocity":47,"Duration":147058,"SoundDuration":147058,"Delta":168147701},{"NoteNumber":72,"Velocity":47,"Duration":147058,"SoundDuration":147058,"Delta":168147701},{"NoteNumber":66,"Velocity":40,"Duration":147058,"SoundDuration":147058,"Delta":168147701},{"NoteNumber":71,"Velocity":49,"Duration":147783,"SoundDuration":147783,"Delta":168294760},{"NoteNumber":67,"Velocity":46,"Duration":586814,"SoundDuration":586814,"Delta":168294760},{"NoteNumber":72,"Velocity":45,"Duration":147058,"SoundDuration":147058,"Delta":168442543},{"NoteNumber":71,"Velocity":49,"Duration":146341,"SoundDuration":146341,"Delta":168589602},{"NoteNumber":72,"Velocity":45,"Duration":145631,"SoundDuration":145631,"Delta":168735943},{"NoteNumber":71,"Velocity":49,"Duration":144927,"SoundDuration":144927,"Delta":168881574},{"NoteNumber":65,"Velocity":45,"Duration":289854,"SoundDuration":289854,"Delta":168881574},{"NoteNumber":74,"Velocity":45,"Duration":144927,"SoundDuration":144927,"Delta":169026502},{"NoteNumber":72,"Velocity":51,"Duration":295566,"SoundDuration":295566,"Delta":169171429},{"NoteNumber":64,"Velocity":45,"Duration":147783,"SoundDuration":147783,"Delta":169171429},{"NoteNumber":67,"Velocity":42,"Duration":147783,"SoundDuration":147783,"Delta":169319213},{"NoteNumber":74,"Velocity":51,"Duration":298507,"SoundDuration":298507,"Delta":169466996},{"NoteNumber":62,"Velocity":44,"Duration":149253,"SoundDuration":149253,"Delta":169466996},{"NoteNumber":65,"Velocity":40,"Duration":149253,"SoundDuration":149253,"Delta":169616250},{"NoteNumber":76,"Velocity":51,"Duration":304568,"SoundDuration":304568,"Delta":169765503},{"NoteNumber":60,"Velocity":43,"Duration":152284,"SoundDuration":152284,"Delta":169765503},{"NoteNumber":64,"Velocity":38,"Duration":152284,"SoundDuration":152284,"Delta":169917788},{"NoteNumber":74,"Velocity":53,"Duration":307692,"SoundDuration":307692,"Delta":170070072},{"NoteNumber":59,"Velocity":42,"Duration":153846,"SoundDuration":153846,"Delta":170070072},{"NoteNumber":62,"Velocity":39,"Duration":153846,"SoundDuration":153846,"Delta":170223918},{"NoteNumber":79,"Velocity":57,"Duration":303030,"SoundDuration":303030,"Delta":170377764},{"NoteNumber":55,"Velocity":42,"Duration":151515,"SoundDuration":151515,"Delta":170377764},{"NoteNumber":59,"Velocity":39,"Duration":151515,"SoundDuration":151515,"Delta":170529280},{"NoteNumber":79,"Velocity":57,"Duration":303030,"SoundDuration":303030,"Delta":170680795},{"NoteNumber":54,"Velocity":42,"Duration":151515,"SoundDuration":151515,"Delta":170680795},{"NoteNumber":57,"Velocity":39,"Duration":151515,"SoundDuration":151515,"Delta":170832310},{"NoteNumber":81,"Velocity":60,"Duration":152284,"SoundDuration":152284,"Delta":170983825},{"NoteNumber":52,"Velocity":43,"Duration":152284,"SoundDuration":152284,"Delta":170983825},{"NoteNumber":79,"Velocity":59,"Duration":152284,"SoundDuration":152284,"Delta":171136110},{"NoteNumber":55,"Velocity":42,"Duration":152284,"SoundDuration":152284,"Delta":171136110},{"NoteNumber":78,"Velocity":57,"Duration":152284,"SoundDuration":152284,"Delta":171288394},{"NoteNumber":57,"Velocity":41,"Duration":152284,"SoundDuration":152284,"Delta":171288394},{"NoteNumber":76,"Velocity":56,"Duration":152284,"SoundDuration":152284,"Delta":171440678},{"NoteNumber":61,"Velocity":41,"Duration":152284,"SoundDuration":152284,"Delta":171440678},{"NoteNumber":74,"Velocity":55,"Duration":152284,"SoundDuration":152284,"Delta":171592962},{"NoteNumber":64,"Velocity":40,"Duration":152284,"SoundDuration":152284,"Delta":171592962},{"NoteNumber":73,"Velocity":54,"Duration":163043,"SoundDuration":163043,"Delta":171745247},{"NoteNumber":67,"Velocity":39,"Duration":494534,"SoundDuration":494534,"Delta":171745247},{"NoteNumber":76,"Velocity":47,"Duration":331491,"SoundDuration":331491,"Delta":171908290},{"NoteNumber":62,"Velocity":40,"Duration":661161,"SoundDuration":661161,"Delta":171908290},{"NoteNumber":74,"Velocity":44,"Duration":329670,"SoundDuration":329670,"Delta":172239782},{"NoteNumber":62,"Velocity":34,"Duration":659341,"SoundDuration":659341,"Delta":172239782},{"NoteNumber":66,"Velocity":34,"Duration":329670,"SoundDuration":329670,"Delta":172239782},{"NoteNumber":74,"Velocity":41,"Duration":329670,"SoundDuration":329670,"Delta":172569452},{"NoteNumber":62,"Velocity":34,"Duration":329670,"SoundDuration":329670,"Delta":172569452},{"NoteNumber":66,"Velocity":34,"Duration":329670,"SoundDuration":329670,"Delta":172569452},{"NoteNumber":74,"Velocity":41,"Duration":329670,"SoundDuration":329670,"Delta":172899123},{"NoteNumber":62,"Velocity":32,"Duration":659340,"SoundDuration":659340,"Delta":172899123},{"NoteNumber":66,"Velocity":32,"Duration":659340,"SoundDuration":659340,"Delta":172899123},{"NoteNumber":79,"Velocity":53,"Duration":333333,"SoundDuration":333333,"Delta":173558464},{"NoteNumber":71,"Velocity":34,"Duration":166666,"SoundDuration":166666,"Delta":173558464},{"NoteNumber":74,"Velocity":34,"Duration":166666,"SoundDuration":166666,"Delta":173725130},{"NoteNumber":79,"Velocity":53,"Duration":546875,"SoundDuration":546875,"Delta":173891797},{"NoteNumber":71,"Velocity":34,"Duration":156250,"SoundDuration":156250,"Delta":173891797},{"NoteNumber":74,"Velocity":32,"Duration":156250,"SoundDuration":156250,"Delta":174048047},{"NoteNumber":71,"Velocity":34,"Duration":156250,"SoundDuration":156250,"Delta":174204297},{"NoteNumber":74,"Velocity":31,"Duration":156250,"SoundDuration":156250,"Delta":174360547},{"NoteNumber":83,"Velocity":51,"Duration":78125,"SoundDuration":78125,"Delta":174438672},{"NoteNumber":81,"Velocity":51,"Duration":319149,"SoundDuration":319149,"Delta":174516797},{"NoteNumber":72,"Velocity":34,"Duration":159574,"SoundDuration":159574,"Delta":174516797},{"NoteNumber":76,"Velocity":31,"Duration":159574,"SoundDuration":159574,"Delta":174676372},{"NoteNumber":79,"Velocity":53,"Duration":297029,"SoundDuration":297029,"Delta":174835946},{"NoteNumber":71,"Velocity":34,"Duration":148514,"SoundDuration":148514,"Delta":174835946},{"NoteNumber":74,"Velocity":32,"Duration":148514,"SoundDuration":148514,"Delta":174984461},{"NoteNumber":78,"Velocity":49,"Duration":297029,"SoundDuration":297029,"Delta":175132976},{"NoteNumber":69,"Velocity":34,"Duration":148514,"SoundDuration":148514,"Delta":175132976},{"NoteNumber":72,"Velocity":32,"Duration":148514,"SoundDuration":148514,"Delta":175281490},{"NoteNumber":76,"Velocity":49,"Duration":304568,"SoundDuration":304568,"Delta":175430005},{"NoteNumber":67,"Velocity":34,"Duration":152284,"SoundDuration":152284,"Delta":175430005},{"NoteNumber":71,"Velocity":31,"Duration":152284,"SoundDuration":152284,"Delta":175582289},{"NoteNumber":74,"Velocity":50,"Duration":314135,"SoundDuration":314135,"Delta":175734574},{"NoteNumber":66,"Velocity":33,"Duration":157068,"SoundDuration":157068,"Delta":175734574},{"NoteNumber":69,"Velocity":31,"Duration":157067,"SoundDuration":157067,"Delta":175891642},{"NoteNumber":74,"Velocity":47,"Duration":314136,"SoundDuration":314136,"Delta":176048710},{"NoteNumber":66,"Velocity":33,"Duration":157068,"SoundDuration":157068,"Delta":176048710},{"NoteNumber":69,"Velocity":32,"Duration":157068,"SoundDuration":157068,"Delta":176205778},{"NoteNumber":74,"Velocity":47,"Duration":314135,"SoundDuration":314135,"Delta":176362846},{"NoteNumber":66,"Velocity":33,"Duration":157067,"SoundDuration":157067,"Delta":176362846},{"NoteNumber":69,"Velocity":31,"Duration":157068,"SoundDuration":157068,"Delta":176519914},{"NoteNumber":74,"Velocity":47,"Duration":614136,"SoundDuration":614136,"Delta":176676982},{"NoteNumber":66,"Velocity":33,"Duration":157068,"SoundDuration":157068,"Delta":176676982},{"NoteNumber":69,"Velocity":31,"Duration":157067,"SoundDuration":157067,"Delta":176834050},{"NoteNumber":66,"Velocity":33,"Duration":150000,"SoundDuration":150000,"Delta":176991118},{"NoteNumber":69,"Velocity":32,"Duration":150000,"SoundDuration":150000,"Delta":177141118},{"NoteNumber":75,"Velocity":51,"Duration":307692,"SoundDuration":307692,"Delta":177291118},{"NoteNumber":66,"Velocity":33,"Duration":153846,"SoundDuration":153846,"Delta":177291118},{"NoteNumber":69,"Velocity":31,"Duration":153846,"SoundDuration":153846,"Delta":177444964},{"NoteNumber":76,"Velocity":52,"Duration":147058,"SoundDuration":147058,"Delta":177598810},{"NoteNumber":67,"Velocity":36,"Duration":588234,"SoundDuration":588234,"Delta":177598810},{"NoteNumber":75,"Velocity":50,"Duration":147058,"SoundDuration":147058,"Delta":177745869},{"NoteNumber":78,"Velocity":52,"Duration":147058,"SoundDuration":147058,"Delta":177892928},{"NoteNumber":76,"Velocity":51,"Duration":147058,"SoundDuration":147058,"Delta":178039986},{"NoteNumber":79,"Velocity":52,"Duration":147058,"SoundDuration":147058,"Delta":178187045},{"NoteNumber":78,"Velocity":51,"Duration":147058,"SoundDuration":147058,"Delta":178334104},{"NoteNumber":81,"Velocity":52,"Duration":147058,"SoundDuration":147058,"Delta":178481163},{"NoteNumber":67,"Velocity":33,"Duration":588234,"SoundDuration":588234,"Delta":178481163},{"NoteNumber":64,"Velocity":33,"Duration":588234,"SoundDuration":588234,"Delta":178481163},{"NoteNumber":61,"Velocity":33,"Duration":588234,"SoundDuration":588234,"Delta":178481163},{"NoteNumber":57,"Velocity":33,"Duration":588234,"SoundDuration":588234,"Delta":178481163},{"NoteNumber":79,"Velocity":51,"Duration":147058,"SoundDuration":147058,"Delta":178628221},{"NoteNumber":78,"Velocity":51,"Duration":147058,"SoundDuration":147058,"Delta":178775280},{"NoteNumber":76,"Velocity":50,"Duration":147058,"SoundDuration":147058,"Delta":178922339},{"NoteNumber":74,"Velocity":49,"Duration":147058,"SoundDuration":147058,"Delta":179069398},{"NoteNumber":73,"Velocity":47,"Duration":147058,"SoundDuration":147058,"Delta":179216456},{"NoteNumber":74,"Velocity":53,"Duration":303030,"SoundDuration":303030,"Delta":179363515},{"NoteNumber":50,"Velocity":32,"Duration":151515,"SoundDuration":151515,"Delta":179515030},{"NoteNumber":54,"Velocity":33,"Duration":151515,"SoundDuration":151515,"Delta":179666546},{"NoteNumber":50,"Velocity":31,"Duration":151515,"SoundDuration":151515,"Delta":179818061},{"NoteNumber":74,"Velocity":46,"Duration":309278,"SoundDuration":309278,"Delta":179969576},{"NoteNumber":52,"Velocity":32,"Duration":154639,"SoundDuration":154639,"Delta":179969576},{"NoteNumber":55,"Velocity":35,"Duration":154639,"SoundDuration":154639,"Delta":180124215},{"NoteNumber":74,"Velocity":51,"Duration":309278,"SoundDuration":309278,"Delta":180278855},{"NoteNumber":54,"Velocity":35,"Duration":154639,"SoundDuration":154639,"Delta":180433494},{"NoteNumber":57,"Velocity":38,"Duration":154639,"SoundDuration":154639,"Delta":180588133},{"NoteNumber":54,"Velocity":33,"Duration":154639,"SoundDuration":154639,"Delta":180742772},{"NoteNumber":74,"Velocity":46,"Duration":309278,"SoundDuration":309278,"Delta":180897412},{"NoteNumber":55,"Velocity":35,"Duration":154639,"SoundDuration":154639,"Delta":180897412},{"NoteNumber":59,"Velocity":37,"Duration":154639,"SoundDuration":154639,"Delta":181052051},{"NoteNumber":74,"Velocity":53,"Duration":309278,"SoundDuration":309278,"Delta":181206690},{"NoteNumber":57,"Velocity":36,"Duration":154639,"SoundDuration":154639,"Delta":181361329},{"NoteNumber":60,"Velocity":39,"Duration":154639,"SoundDuration":154639,"Delta":181515969},{"NoteNumber":57,"Velocity":36,"Duration":154639,"SoundDuration":154639,"Delta":181670608},{"NoteNumber":74,"Velocity":46,"Duration":309278,"SoundDuration":309278,"Delta":181825247},{"NoteNumber":59,"Velocity":38,"Duration":154639,"SoundDuration":154639,"Delta":181825247},{"NoteNumber":55,"Velocity":36,"Duration":154639,"SoundDuration":154639,"Delta":181979886},{"NoteNumber":74,"Velocity":50,"Duration":309278,"SoundDuration":309278,"Delta":182134526},{"NoteNumber":54,"Velocity":33,"Duration":154639,"SoundDuration":154639,"Delta":182289165},{"NoteNumber":57,"Velocity":36,"Duration":154639,"SoundDuration":154639,"Delta":182443804},{"NoteNumber":54,"Velocity":33,"Duration":154639,"SoundDuration":154639,"Delta":182598443},{"NoteNumber":74,"Velocity":41,"Duration":309278,"SoundDuration":309278,"Delta":182753083},{"NoteNumber":55,"Velocity":36,"Duration":154639,"SoundDuration":154639,"Delta":182753083},{"NoteNumber":52,"Velocity":33,"Duration":154639,"SoundDuration":154639,"Delta":182907722},{"NoteNumber":50,"Velocity":34,"Duration":309278,"SoundDuration":309278,"Delta":183062361},{"NoteNumber":74,"Velocity":41,"Duration":154639,"SoundDuration":154639,"Delta":183217000},{"NoteNumber":78,"Velocity":43,"Duration":151515,"SoundDuration":151515,"Delta":183371640},{"NoteNumber":74,"Velocity":39,"Duration":151515,"SoundDuration":151515,"Delta":183523155},{"NoteNumber":76,"Velocity":41,"Duration":151515,"SoundDuration":151515,"Delta":183674670},{"NoteNumber":50,"Velocity":32,"Duration":303030,"SoundDuration":303030,"Delta":183674670},{"NoteNumber":79,"Velocity":43,"Duration":151515,"SoundDuration":151515,"Delta":183826185},{"NoteNumber":50,"Velocity":34,"Duration":303030,"SoundDuration":303030,"Delta":183977701},{"NoteNumber":78,"Velocity":41,"Duration":151515,"SoundDuration":151515,"Delta":184129216},{"NoteNumber":81,"Velocity":43,"Duration":151515,"SoundDuration":151515,"Delta":184280731},{"NoteNumber":78,"Velocity":40,"Duration":151515,"SoundDuration":151515,"Delta":184432246},{"NoteNumber":79,"Velocity":42,"Duration":151515,"SoundDuration":151515,"Delta":184583762},{"NoteNumber":38,"Velocity":50,"Duration":303030,"SoundDuration":303030,"Delta":184583762},{"NoteNumber":83,"Velocity":44,"Duration":151515,"SoundDuration":151515,"Delta":184735277},{"NoteNumber":38,"Velocity":57,"Duration":1797222,"SoundDuration":1797222,"Delta":184886792},{"NoteNumber":81,"Velocity":57,"Duration":151515,"SoundDuration":151515,"Delta":185038307},{"NoteNumber":84,"Velocity":59,"Duration":146341,"SoundDuration":146341,"Delta":185189823},{"NoteNumber":78,"Velocity":54,"Duration":146341,"SoundDuration":146341,"Delta":185336164},{"NoteNumber":81,"Velocity":57,"Duration":146341,"SoundDuration":146341,"Delta":185482506},{"NoteNumber":72,"Velocity":53,"Duration":146341,"SoundDuration":146341,"Delta":185628847},{"NoteNumber":78,"Velocity":56,"Duration":146341,"SoundDuration":146341,"Delta":185775189},{"NoteNumber":69,"Velocity":51,"Duration":146341,"SoundDuration":146341,"Delta":185921530},{"NoteNumber":72,"Velocity":54,"Duration":148514,"SoundDuration":148514,"Delta":186067872},{"NoteNumber":66,"Velocity":49,"Duration":148514,"SoundDuration":148514,"Delta":186216386},{"NoteNumber":69,"Velocity":52,"Duration":151515,"SoundDuration":151515,"Delta":186364901},{"NoteNumber":60,"Velocity":48,"Duration":167597,"SoundDuration":167597,"Delta":186516416},{"NoteNumber":76,"Velocity":50,"Duration":1906932,"SoundDuration":1906932,"Delta":186684014},{"NoteNumber":48,"Velocity":39,"Duration":153585,"SoundDuration":153585,"Delta":186835786},{"NoteNumber":57,"Velocity":42,"Duration":155443,"SoundDuration":155443,"Delta":186989372},{"NoteNumber":54,"Velocity":36,"Duration":157484,"SoundDuration":157484,"Delta":187144815},{"NoteNumber":60,"Velocity":37,"Duration":169491,"SoundDuration":169491,"Delta":187302299},{"NoteNumber":57,"Velocity":33,"Duration":196078,"SoundDuration":196078,"Delta":187471791},{"NoteNumber":66,"Velocity":36,"Duration":1252747,"SoundDuration":1252747,"Delta":187667869},{"NoteNumber":74,"Velocity":44,"Duration":82417,"SoundDuration":82417,"Delta":188590946},{"NoteNumber":72,"Velocity":44,"Duration":82417,"SoundDuration":82417,"Delta":188673364},{"NoteNumber":71,"Velocity":44,"Duration":82417,"SoundDuration":82417,"Delta":188755781},{"NoteNumber":69,"Velocity":44,"Duration":82417,"SoundDuration":82417,"Delta":188838199},{"NoteNumber":67,"Velocity":49,"Duration":552631,"SoundDuration":552631,"Delta":188920617},{"NoteNumber":55,"Velocity":40,"Duration":631578,"SoundDuration":631578,"Delta":188920617},{"NoteNumber":59,"Velocity":40,"Duration":631578,"SoundDuration":631578,"Delta":188920617},{"NoteNumber":71,"Velocity":47,"Duration":78947,"SoundDuration":78947,"Delta":189473248},{"NoteNumber":69,"Velocity":47,"Duration":320855,"SoundDuration":320855,"Delta":189552196},{"NoteNumber":55,"Velocity":38,"Duration":320855,"SoundDuration":320855,"Delta":189552196},{"NoteNumber":60,"Velocity":38,"Duration":320855,"SoundDuration":320855,"Delta":189552196},{"NoteNumber":62,"Velocity":49,"Duration":307692,"SoundDuration":307692,"Delta":189873051},{"NoteNumber":55,"Velocity":40,"Duration":599446,"SoundDuration":599446,"Delta":189873051},{"NoteNumber":60,"Velocity":40,"Duration":599446,"SoundDuration":599446,"Delta":189873051},{"NoteNumber":63,"Velocity":45,"Duration":146708,"SoundDuration":146708,"Delta":190180744},{"NoteNumber":64,"Velocity":45,"Duration":145045,"SoundDuration":145045,"Delta":190327452},{"NoteNumber":65,"Velocity":45,"Duration":146480,"SoundDuration":146480,"Delta":190472498},{"NoteNumber":55,"Velocity":38,"Duration":299570,"SoundDuration":299570,"Delta":190472498},{"NoteNumber":60,"Velocity":38,"Duration":299570,"SoundDuration":299570,"Delta":190472498},{"NoteNumber":66,"Velocity":45,"Duration":153089,"SoundDuration":153089,"Delta":190618979},{"NoteNumber":67,"Velocity":46,"Duration":314135,"SoundDuration":314135,"Delta":190772068},{"NoteNumber":55,"Velocity":37,"Duration":1513836,"SoundDuration":1513836,"Delta":190772068},{"NoteNumber":59,"Velocity":37,"Duration":170156,"SoundDuration":170156,"Delta":190772068},{"NoteNumber":58,"Velocity":33,"Duration":157067,"SoundDuration":157067,"Delta":190929136},{"NoteNumber":67,"Velocity":45,"Duration":314136,"SoundDuration":314136,"Delta":191086204},{"NoteNumber":59,"Velocity":36,"Duration":170157,"SoundDuration":170157,"Delta":191086204},{"NoteNumber":58,"Velocity":33,"Duration":157068,"SoundDuration":157068,"Delta":191243272},{"NoteNumber":67,"Velocity":45,"Duration":314135,"SoundDuration":314135,"Delta":191400340},{"NoteNumber":59,"Velocity":36,"Duration":170156,"SoundDuration":170156,"Delta":191400340},{"NoteNumber":58,"Velocity":33,"Duration":157068,"SoundDuration":157068,"Delta":191557408},{"NoteNumber":67,"Velocity":45,"Duration":571428,"SoundDuration":571428,"Delta":191714476},{"NoteNumber":59,"Velocity":36,"Duration":571428,"SoundDuration":571428,"Delta":191714476},{"NoteNumber":62,"Velocity":45,"Duration":289854,"SoundDuration":289854,"Delta":192285905},{"NoteNumber":69,"Velocity":45,"Duration":217391,"SoundDuration":217391,"Delta":192285905},{"NoteNumber":54,"Velocity":36,"Duration":217391,"SoundDuration":217391,"Delta":192285905},{"NoteNumber":72,"Velocity":45,"Duration":72463,"SoundDuration":72463,"Delta":192503296},{"NoteNumber":57,"Velocity":41,"Duration":72463,"SoundDuration":72463,"Delta":192503296},{"NoteNumber":62,"Velocity":49,"Duration":875403,"SoundDuration":875403,"Delta":192575760},{"NoteNumber":71,"Velocity":49,"Duration":143540,"SoundDuration":143540,"Delta":192575760},{"NoteNumber":55,"Velocity":39,"Duration":143540,"SoundDuration":143540,"Delta":192575760},{"NoteNumber":70,"Velocity":47,"Duration":143540,"SoundDuration":143540,"Delta":192719301},{"NoteNumber":54,"Velocity":36,"Duration":143540,"SoundDuration":143540,"Delta":192719301},{"NoteNumber":71,"Velocity":49,"Duration":142857,"SoundDuration":142857,"Delta":192862842},{"NoteNumber":55,"Velocity":39,"Duration":142857,"SoundDuration":142857,"Delta":192862842},{"NoteNumber":70,"Velocity":46,"Duration":142857,"SoundDuration":142857,"Delta":193005699},{"NoteNumber":54,"Velocity":36,"Duration":142857,"SoundDuration":142857,"Delta":193005699},{"NoteNumber":71,"Velocity":49,"Duration":142179,"SoundDuration":142179,"Delta":193148556},{"NoteNumber":55,"Velocity":39,"Duration":142179,"SoundDuration":142179,"Delta":193148556},{"NoteNumber":74,"Velocity":46,"Duration":160427,"SoundDuration":160427,"Delta":193290736},{"NoteNumber":59,"Velocity":36,"Duration":160427,"SoundDuration":160427,"Delta":193290736},{"NoteNumber":66,"Velocity":44,"Duration":609702,"SoundDuration":609702,"Delta":193451164},{"NoteNumber":62,"Velocity":44,"Duration":905269,"SoundDuration":905269,"Delta":193451164},{"NoteNumber":74,"Velocity":49,"Duration":314135,"SoundDuration":314135,"Delta":193451164},{"NoteNumber":57,"Velocity":38,"Duration":609702,"SoundDuration":609702,"Delta":193451164},{"NoteNumber":72,"Velocity":45,"Duration":295566,"SoundDuration":295566,"Delta":193765300},{"NoteNumber":67,"Velocity":45,"Duration":295566,"SoundDuration":295566,"Delta":194060866},{"NoteNumber":71,"Velocity":45,"Duration":295566,"SoundDuration":295566,"Delta":194060866},{"NoteNumber":55,"Velocity":36,"Duration":295566,"SoundDuration":295566,"Delta":194060866},{"NoteNumber":67,"Velocity":47,"Duration":306122,"SoundDuration":306122,"Delta":194356433},{"NoteNumber":71,"Velocity":47,"Duration":306122,"SoundDuration":306122,"Delta":194356433},{"NoteNumber":50,"Velocity":38,"Duration":153061,"SoundDuration":153061,"Delta":194356433},{"NoteNumber":61,"Velocity":36,"Duration":153061,"SoundDuration":153061,"Delta":194509494},{"NoteNumber":66,"Velocity":45,"Duration":306122,"SoundDuration":306122,"Delta":194662555},{"NoteNumber":69,"Velocity":45,"Duration":306122,"SoundDuration":306122,"Delta":194662555},{"NoteNumber":62,"Velocity":37,"Duration":153061,"SoundDuration":153061,"Delta":194662555},{"NoteNumber":61,"Velocity":36,"Duration":153061,"SoundDuration":153061,"Delta":194815617},{"NoteNumber":66,"Velocity":45,"Duration":306122,"SoundDuration":306122,"Delta":194968678},{"NoteNumber":69,"Velocity":45,"Duration":306122,"SoundDuration":306122,"Delta":194968678},{"NoteNumber":62,"Velocity":37,"Duration":153061,"SoundDuration":153061,"Delta":194968678},{"NoteNumber":61,"Velocity":36,"Duration":153061,"SoundDuration":153061,"Delta":195121739},{"NoteNumber":66,"Velocity":45,"Duration":594058,"SoundDuration":594058,"Delta":195274800},{"NoteNumber":69,"Velocity":45,"Duration":594058,"SoundDuration":594058,"Delta":195274800},{"NoteNumber":62,"Velocity":38,"Duration":148514,"SoundDuration":148514,"Delta":195274800},{"NoteNumber":64,"Velocity":36,"Duration":148514,"SoundDuration":148514,"Delta":195423315},{"NoteNumber":60,"Velocity":38,"Duration":148514,"SoundDuration":148514,"Delta":195571830},{"NoteNumber":62,"Velocity":36,"Duration":148514,"SoundDuration":148514,"Delta":195720345},{"NoteNumber":68,"Velocity":46,"Duration":309278,"SoundDuration":309278,"Delta":195868859},{"NoteNumber":71,"Velocity":46,"Duration":309278,"SoundDuration":309278,"Delta":195868859},{"NoteNumber":59,"Velocity":39,"Duration":154639,"SoundDuration":154639,"Delta":195868859},{"NoteNumber":60,"Velocity":36,"Duration":154639,"SoundDuration":154639,"Delta":196023499},{"NoteNumber":69,"Velocity":49,"Duration":309278,"SoundDuration":309278,"Delta":196178138},{"NoteNumber":72,"Velocity":49,"Duration":309278,"SoundDuration":309278,"Delta":196178138},{"NoteNumber":57,"Velocity":40,"Duration":154639,"SoundDuration":154639,"Delta":196178138},{"NoteNumber":64,"Velocity":37,"Duration":154639,"SoundDuration":154639,"Delta":196332777},{"NoteNumber":71,"Velocity":51,"Duration":309278,"SoundDuration":309278,"Delta":196487416},{"NoteNumber":74,"Velocity":51,"Duration":309278,"SoundDuration":309278,"Delta":196487416},{"NoteNumber":60,"Velocity":37,"Duration":154639,"SoundDuration":154639,"Delta":196487416},{"NoteNumber":59,"Velocity":36,"Duration":154639,"SoundDuration":154639,"Delta":196642056},{"NoteNumber":72,"Velocity":51,"Duration":314135,"SoundDuration":314135,"Delta":196796695},{"NoteNumber":76,"Velocity":51,"Duration":314135,"SoundDuration":314135,"Delta":196796695},{"NoteNumber":57,"Velocity":36,"Duration":157068,"SoundDuration":157068,"Delta":196796695},{"NoteNumber":55,"Velocity":36,"Duration":157067,"SoundDuration":157067,"Delta":196953763},{"NoteNumber":72,"Velocity":51,"Duration":607393,"SoundDuration":607393,"Delta":197110831},{"NoteNumber":76,"Velocity":51,"Duration":607393,"SoundDuration":607393,"Delta":197110831},{"NoteNumber":54,"Velocity":36,"Duration":149253,"SoundDuration":149253,"Delta":197110831},{"NoteNumber":55,"Velocity":35,"Duration":149253,"SoundDuration":149253,"Delta":197260085},{"NoteNumber":57,"Velocity":36,"Duration":154246,"SoundDuration":154246,"Delta":197409338},{"NoteNumber":50,"Velocity":37,"Duration":154639,"SoundDuration":154639,"Delta":197563585},{"NoteNumber":71,"Velocity":47,"Duration":150753,"SoundDuration":150753,"Delta":197718224},{"NoteNumber":74,"Velocity":47,"Duration":150753,"SoundDuration":150753,"Delta":197718224},{"NoteNumber":52,"Velocity":39,"Duration":150753,"SoundDuration":150753,"Delta":197718224},{"NoteNumber":69,"Velocity":47,"Duration":150753,"SoundDuration":150753,"Delta":197868978},{"NoteNumber":72,"Velocity":47,"Duration":150753,"SoundDuration":150753,"Delta":197868978},{"NoteNumber":54,"Velocity":40,"Duration":150753,"SoundDuration":150753,"Delta":197868978},{"NoteNumber":67,"Velocity":49,"Duration":309278,"SoundDuration":309278,"Delta":198019732},{"NoteNumber":71,"Velocity":49,"Duration":309278,"SoundDuration":309278,"Delta":198019732},{"NoteNumber":55,"Velocity":39,"Duration":154639,"SoundDuration":154639,"Delta":198019732},{"NoteNumber":54,"Velocity":38,"Duration":154639,"SoundDuration":154639,"Delta":198174371},{"NoteNumber":69,"Velocity":46,"Duration":309278,"SoundDuration":309278,"Delta":198329010},{"NoteNumber":72,"Velocity":46,"Duration":309278,"SoundDuration":309278,"Delta":198329010},{"NoteNumber":52,"Velocity":37,"Duration":154639,"SoundDuration":154639,"Delta":198329010},{"NoteNumber":50,"Velocity":36,"Duration":154639,"SoundDuration":154639,"Delta":198483650},{"NoteNumber":71,"Velocity":46,"Duration":319149,"SoundDuration":319149,"Delta":198638289},{"NoteNumber":74,"Velocity":46,"Duration":319149,"SoundDuration":319149,"Delta":198638289},{"NoteNumber":48,"Velocity":35,"Duration":159574,"SoundDuration":159574,"Delta":198638289},{"NoteNumber":47,"Velocity":34,"Duration":159574,"SoundDuration":159574,"Delta":198797863},{"NoteNumber":59,"Velocity":47,"Duration":306122,"SoundDuration":306122,"Delta":198957438},{"NoteNumber":67,"Velocity":47,"Duration":306122,"SoundDuration":306122,"Delta":198957438},{"NoteNumber":52,"Velocity":38,"Duration":153061,"SoundDuration":153061,"Delta":198957438},{"NoteNumber":50,"Velocity":37,"Duration":153061,"SoundDuration":153061,"Delta":199110499},{"NoteNumber":60,"Velocity":45,"Duration":306122,"SoundDuration":306122,"Delta":199263560},{"NoteNumber":69,"Velocity":45,"Duration":306122,"SoundDuration":306122,"Delta":199263560},{"NoteNumber":48,"Velocity":36,"Duration":153061,"SoundDuration":153061,"Delta":199263560},{"NoteNumber":47,"Velocity":35,"Duration":153061,"SoundDuration":153061,"Delta":199416622},{"NoteNumber":62,"Velocity":45,"Duration":306122,"SoundDuration":306122,"Delta":199569683},{"NoteNumber":71,"Velocity":45,"Duration":306122,"SoundDuration":306122,"Delta":199569683},{"NoteNumber":45,"Velocity":33,"Duration":153061,"SoundDuration":153061,"Delta":199569683},{"NoteNumber":43,"Velocity":32,"Duration":153061,"SoundDuration":153061,"Delta":199722744},{"NoteNumber":69,"Velocity":46,"Duration":306122,"SoundDuration":306122,"Delta":199875805},{"NoteNumber":48,"Velocity":39,"Duration":306122,"SoundDuration":306122,"Delta":199875805},{"NoteNumber":64,"Velocity":46,"Duration":300844,"SoundDuration":300844,"Delta":200028867},{"NoteNumber":71,"Velocity":45,"Duration":295566,"SoundDuration":295566,"Delta":200181928},{"NoteNumber":47,"Velocity":36,"Duration":295566,"SoundDuration":295566,"Delta":200181928},{"NoteNumber":62,"Velocity":45,"Duration":309073,"SoundDuration":309073,"Delta":200329711},{"NoteNumber":72,"Velocity":45,"Duration":322580,"SoundDuration":322580,"Delta":200477494},{"NoteNumber":45,"Velocity":36,"Duration":322580,"SoundDuration":322580,"Delta":200477494},{"NoteNumber":60,"Velocity":45,"Duration":316730,"SoundDuration":316730,"Delta":200638785},{"NoteNumber":72,"Velocity":45,"Duration":310880,"SoundDuration":310880,"Delta":200800075},{"NoteNumber":50,"Velocity":39,"Duration":946086,"SoundDuration":946086,"Delta":200800075},{"NoteNumber":60,"Velocity":45,"Duration":310880,"SoundDuration":310880,"Delta":200955515},{"NoteNumber":69,"Velocity":45,"Duration":310880,"SoundDuration":310880,"Delta":201110956},{"NoteNumber":60,"Velocity":45,"Duration":317602,"SoundDuration":317602,"Delta":201266396},{"NoteNumber":66,"Velocity":43,"Duration":324324,"SoundDuration":324324,"Delta":201421837},{"NoteNumber":60,"Velocity":45,"Duration":1235883,"SoundDuration":1235883,"Delta":201583999},{"NoteNumber":69,"Velocity":41,"Duration":1073721,"SoundDuration":1073721,"Delta":201746161},{"NoteNumber":43,"Velocity":32,"Duration":168542,"SoundDuration":168542,"Delta":201746161},{"NoteNumber":54,"Velocity":29,"Duration":171432,"SoundDuration":171432,"Delta":201914704},{"NoteNumber":55,"Velocity":32,"Duration":174932,"SoundDuration":174932,"Delta":202086136},{"NoteNumber":54,"Velocity":29,"Duration":178047,"SoundDuration":178047,"Delta":202261069},{"NoteNumber":55,"Velocity":30,"Duration":180766,"SoundDuration":180766,"Delta":202439116},{"NoteNumber":54,"Velocity":27,"Duration":199999,"SoundDuration":199999,"Delta":202619883},{"NoteNumber":59,"Velocity":31,"Duration":400000,"SoundDuration":400000,"Delta":202819883},{"NoteNumber":67,"Velocity":31,"Duration":400000,"SoundDuration":400000,"Delta":202819883},{"NoteNumber":55,"Velocity":26,"Duration":400000,"SoundDuration":400000,"Delta":202819883},{"NoteNumber":79,"Velocity":53,"Duration":333333,"SoundDuration":333333,"Delta":203619883},{"NoteNumber":71,"Velocity":34,"Duration":166666,"SoundDuration":166666,"Delta":203619883},{"NoteNumber":74,"Velocity":34,"Duration":166666,"SoundDuration":166666,"Delta":203786550},{"NoteNumber":79,"Velocity":53,"Duration":546875,"SoundDuration":546875,"Delta":203953216},{"NoteNumber":71,"Velocity":34,"Duration":156250,"SoundDuration":156250,"Delta":203953216},{"NoteNumber":74,"Velocity":32,"Duration":156250,"SoundDuration":156250,"Delta":204109466},{"NoteNumber":71,"Velocity":34,"Duration":156250,"SoundDuration":156250,"Delta":204265716},{"NoteNumber":74,"Velocity":31,"Duration":156250,"SoundDuration":156250,"Delta":204421966},{"NoteNumber":83,"Velocity":51,"Duration":78125,"SoundDuration":78125,"Delta":204500091},{"NoteNumber":81,"Velocity":51,"Duration":319149,"SoundDuration":319149,"Delta":204578216},{"NoteNumber":72,"Velocity":34,"Duration":159574,"SoundDuration":159574,"Delta":204578216},{"NoteNumber":76,"Velocity":31,"Duration":159574,"SoundDuration":159574,"Delta":204737791},{"NoteNumber":79,"Velocity":53,"Duration":300000,"SoundDuration":300000,"Delta":204897365},{"NoteNumber":71,"Velocity":34,"Duration":150000,"SoundDuration":150000,"Delta":204897365},{"NoteNumber":74,"Velocity":32,"Duration":150000,"SoundDuration":150000,"Delta":205047365},{"NoteNumber":78,"Velocity":49,"Duration":299999,"SoundDuration":299999,"Delta":205197365},{"NoteNumber":69,"Velocity":34,"Duration":149999,"SoundDuration":149999,"Delta":205197365},{"NoteNumber":72,"Velocity":32,"Duration":150000,"SoundDuration":150000,"Delta":205347365},{"NoteNumber":76,"Velocity":49,"Duration":309278,"SoundDuration":309278,"Delta":205497365},{"NoteNumber":67,"Velocity":34,"Duration":154639,"SoundDuration":154639,"Delta":205497365},{"NoteNumber":71,"Velocity":31,"Duration":154639,"SoundDuration":154639,"Delta":205652005},{"NoteNumber":74,"Velocity":50,"Duration":312500,"SoundDuration":312500,"Delta":205806644},{"NoteNumber":66,"Velocity":33,"Duration":156250,"SoundDuration":156250,"Delta":205806644},{"NoteNumber":69,"Velocity":31,"Duration":156250,"SoundDuration":156250,"Delta":205962894},{"NoteNumber":74,"Velocity":47,"Duration":312500,"SoundDuration":312500,"Delta":206119144},{"NoteNumber":66,"Velocity":33,"Duration":156250,"SoundDuration":156250,"Delta":206119144},{"NoteNumber":69,"Velocity":32,"Duration":156250,"SoundDuration":156250,"Delta":206275394},{"NoteNumber":74,"Velocity":47,"Duration":312500,"SoundDuration":312500,"Delta":206431644},{"NoteNumber":66,"Velocity":33,"Duration":156250,"SoundDuration":156250,"Delta":206431644},{"NoteNumber":69,"Velocity":31,"Duration":156250,"SoundDuration":156250,"Delta":206587894},{"NoteNumber":74,"Velocity":47,"Duration":612500,"SoundDuration":612500,"Delta":206744144},{"NoteNumber":66,"Velocity":33,"Duration":156250,"SoundDuration":156250,"Delta":206744144},{"NoteNumber":69,"Velocity":31,"Duration":156250,"SoundDuration":156250,"Delta":206900394},{"NoteNumber":66,"Velocity":33,"Duration":150000,"SoundDuration":150000,"Delta":207056644},{"NoteNumber":69,"Velocity":32,"Duration":150000,"SoundDuration":150000,"Delta":207206644},{"NoteNumber":75,"Velocity":51,"Duration":304568,"SoundDuration":304568,"Delta":207356644},{"NoteNumber":66,"Velocity":33,"Duration":152284,"SoundDuration":152284,"Delta":207356644},{"NoteNumber":69,"Velocity":31,"Duration":152284,"SoundDuration":152284,"Delta":207508928},{"NoteNumber":76,"Velocity":52,"Duration":147058,"SoundDuration":147058,"Delta":207661212},{"NoteNumber":67,"Velocity":36,"Duration":588234,"SoundDuration":588234,"Delta":207661212},{"NoteNumber":75,"Velocity":50,"Duration":147058,"SoundDuration":147058,"Delta":207808271},{"NoteNumber":78,"Velocity":52,"Duration":147058,"SoundDuration":147058,"Delta":207955330},{"NoteNumber":76,"Velocity":51,"Duration":147058,"SoundDuration":147058,"Delta":208102389},{"NoteNumber":79,"Velocity":52,"Duration":147058,"SoundDuration":147058,"Delta":208249447},{"NoteNumber":78,"Velocity":51,"Duration":147058,"SoundDuration":147058,"Delta":208396506},{"NoteNumber":81,"Velocity":52,"Duration":147058,"SoundDuration":147058,"Delta":208543565},{"NoteNumber":67,"Velocity":33,"Duration":588234,"SoundDuration":588234,"Delta":208543565},{"NoteNumber":64,"Velocity":33,"Duration":588234,"SoundDuration":588234,"Delta":208543565},{"NoteNumber":61,"Velocity":33,"Duration":588234,"SoundDuration":588234,"Delta":208543565},{"NoteNumber":57,"Velocity":33,"Duration":588234,"SoundDuration":588234,"Delta":208543565},{"NoteNumber":79,"Velocity":51,"Duration":147058,"SoundDuration":147058,"Delta":208690624},{"NoteNumber":78,"Velocity":51,"Duration":147058,"SoundDuration":147058,"Delta":208837682},{"NoteNumber":76,"Velocity":50,"Duration":147058,"SoundDuration":147058,"Delta":208984741},{"NoteNumber":74,"Velocity":49,"Duration":147058,"SoundDuration":147058,"Delta":209131800},{"NoteNumber":73,"Velocity":47,"Duration":147058,"SoundDuration":147058,"Delta":209278859},{"NoteNumber":74,"Velocity":52,"Duration":303030,"SoundDuration":303030,"Delta":209425917},{"NoteNumber":50,"Velocity":32,"Duration":151515,"SoundDuration":151515,"Delta":209577433},{"NoteNumber":54,"Velocity":33,"Duration":151515,"SoundDuration":151515,"Delta":209728948},{"NoteNumber":50,"Velocity":31,"Duration":151515,"SoundDuration":151515,"Delta":209880463},{"NoteNumber":74,"Velocity":45,"Duration":309278,"SoundDuration":309278,"Delta":210031978},{"NoteNumber":52,"Velocity":32,"Duration":154639,"SoundDuration":154639,"Delta":210031978},{"NoteNumber":55,"Velocity":35,"Duration":154639,"SoundDuration":154639,"Delta":210186618},{"NoteNumber":74,"Velocity":49,"Duration":309278,"SoundDuration":309278,"Delta":210341257},{"NoteNumber":54,"Velocity":35,"Duration":154639,"SoundDuration":154639,"Delta":210495896},{"NoteNumber":57,"Velocity":38,"Duration":154639,"SoundDuration":154639,"Delta":210650535},{"NoteNumber":54,"Velocity":33,"Duration":154639,"SoundDuration":154639,"Delta":210805175},{"NoteNumber":74,"Velocity":46,"Duration":309278,"SoundDuration":309278,"Delta":210959814},{"NoteNumber":55,"Velocity":35,"Duration":154639,"SoundDuration":154639,"Delta":210959814},{"NoteNumber":59,"Velocity":37,"Duration":154639,"SoundDuration":154639,"Delta":211114453},{"NoteNumber":74,"Velocity":51,"Duration":309278,"SoundDuration":309278,"Delta":211269092},{"NoteNumber":57,"Velocity":36,"Duration":154639,"SoundDuration":154639,"Delta":211423732},{"NoteNumber":60,"Velocity":39,"Duration":154639,"SoundDuration":154639,"Delta":211578371},{"NoteNumber":57,"Velocity":36,"Duration":154639,"SoundDuration":154639,"Delta":211733010},{"NoteNumber":74,"Velocity":45,"Duration":309278,"SoundDuration":309278,"Delta":211887649},{"NoteNumber":59,"Velocity":38,"Duration":154639,"SoundDuration":154639,"Delta":211887649},{"NoteNumber":55,"Velocity":36,"Duration":154639,"SoundDuration":154639,"Delta":212042289},{"NoteNumber":74,"Velocity":50,"Duration":309278,"SoundDuration":309278,"Delta":212196928},{"NoteNumber":54,"Velocity":33,"Duration":154639,"SoundDuration":154639,"Delta":212351567},{"NoteNumber":57,"Velocity":36,"Duration":154639,"SoundDuration":154639,"Delta":212506206},{"NoteNumber":54,"Velocity":33,"Duration":154639,"SoundDuration":154639,"Delta":212660846},{"NoteNumber":74,"Velocity":41,"Duration":309278,"SoundDuration":309278,"Delta":212815485},{"NoteNumber":55,"Velocity":36,"Duration":154639,"SoundDuration":154639,"Delta":212815485},{"NoteNumber":52,"Velocity":33,"Duration":154639,"SoundDuration":154639,"Delta":212970124},{"NoteNumber":50,"Velocity":34,"Duration":309278,"SoundDuration":309278,"Delta":213124763},{"NoteNumber":74,"Velocity":41,"Duration":154639,"SoundDuration":154639,"Delta":213279403},{"NoteNumber":78,"Velocity":43,"Duration":151515,"SoundDuration":151515,"Delta":213434042},{"NoteNumber":74,"Velocity":39,"Duration":151515,"SoundDuration":151515,"Delta":213585557},{"NoteNumber":76,"Velocity":41,"Duration":151515,"SoundDuration":151515,"Delta":213737072},{"NoteNumber":50,"Velocity":32,"Duration":303030,"SoundDuration":303030,"Delta":213737072},{"NoteNumber":79,"Velocity":43,"Duration":151515,"SoundDuration":151515,"Delta":213888588},{"NoteNumber":50,"Velocity":34,"Duration":303030,"SoundDuration":303030,"Delta":214040103},{"NoteNumber":78,"Velocity":41,"Duration":151515,"SoundDuration":151515,"Delta":214191618},{"NoteNumber":81,"Velocity":43,"Duration":151515,"SoundDuration":151515,"Delta":214343133},{"NoteNumber":78,"Velocity":40,"Duration":151515,"SoundDuration":151515,"Delta":214494649},{"NoteNumber":79,"Velocity":42,"Duration":151515,"SoundDuration":151515,"Delta":214646164},{"NoteNumber":38,"Velocity":51,"Duration":303030,"SoundDuration":303030,"Delta":214646164},{"NoteNumber":83,"Velocity":44,"Duration":151515,"SoundDuration":151515,"Delta":214797679},{"NoteNumber":38,"Velocity":62,"Duration":1797222,"SoundDuration":1797222,"Delta":214949194},{"NoteNumber":81,"Velocity":57,"Duration":151515,"SoundDuration":151515,"Delta":215100710},{"NoteNumber":84,"Velocity":59,"Duration":146341,"SoundDuration":146341,"Delta":215252225},{"NoteNumber":78,"Velocity":54,"Duration":146341,"SoundDuration":146341,"Delta":215398566},{"NoteNumber":81,"Velocity":57,"Duration":146341,"SoundDuration":146341,"Delta":215544908},{"NoteNumber":72,"Velocity":53,"Duration":146341,"SoundDuration":146341,"Delta":215691249},{"NoteNumber":78,"Velocity":56,"Duration":146341,"SoundDuration":146341,"Delta":215837591},{"NoteNumber":69,"Velocity":51,"Duration":146341,"SoundDuration":146341,"Delta":215983932},{"NoteNumber":72,"Velocity":54,"Duration":148514,"SoundDuration":148514,"Delta":216130274},{"NoteNumber":66,"Velocity":49,"Duration":148514,"SoundDuration":148514,"Delta":216278789},{"NoteNumber":69,"Velocity":52,"Duration":151515,"SoundDuration":151515,"Delta":216427303},{"NoteNumber":60,"Velocity":48,"Duration":167597,"SoundDuration":167597,"Delta":216578819},{"NoteNumber":76,"Velocity":50,"Duration":1906932,"SoundDuration":1906932,"Delta":216746416},{"NoteNumber":48,"Velocity":39,"Duration":153585,"SoundDuration":153585,"Delta":216898188},{"NoteNumber":57,"Velocity":42,"Duration":155443,"SoundDuration":155443,"Delta":217051774},{"NoteNumber":54,"Velocity":36,"Duration":157484,"SoundDuration":157484,"Delta":217207217},{"NoteNumber":60,"Velocity":37,"Duration":169491,"SoundDuration":169491,"Delta":217364701},{"NoteNumber":57,"Velocity":33,"Duration":196078,"SoundDuration":196078,"Delta":217534193},{"NoteNumber":66,"Velocity":36,"Duration":1252747,"SoundDuration":1252747,"Delta":217730271},{"NoteNumber":74,"Velocity":44,"Duration":82417,"SoundDuration":82417,"Delta":218653348},{"NoteNumber":72,"Velocity":44,"Duration":82417,"SoundDuration":82417,"Delta":218735766},{"NoteNumber":71,"Velocity":44,"Duration":82417,"SoundDuration":82417,"Delta":218818184},{"NoteNumber":69,"Velocity":44,"Duration":82417,"SoundDuration":82417,"Delta":218900601},{"NoteNumber":67,"Velocity":49,"Duration":552631,"SoundDuration":552631,"Delta":218983019},{"NoteNumber":55,"Velocity":40,"Duration":631578,"SoundDuration":631578,"Delta":218983019},{"NoteNumber":59,"Velocity":40,"Duration":631578,"SoundDuration":631578,"Delta":218983019},{"NoteNumber":71,"Velocity":47,"Duration":78947,"SoundDuration":78947,"Delta":219535651},{"NoteNumber":69,"Velocity":47,"Duration":320855,"SoundDuration":320855,"Delta":219614598},{"NoteNumber":55,"Velocity":38,"Duration":320855,"SoundDuration":320855,"Delta":219614598},{"NoteNumber":60,"Velocity":38,"Duration":320855,"SoundDuration":320855,"Delta":219614598},{"NoteNumber":62,"Velocity":49,"Duration":307692,"SoundDuration":307692,"Delta":219935453},{"NoteNumber":55,"Velocity":40,"Duration":599446,"SoundDuration":599446,"Delta":219935453},{"NoteNumber":60,"Velocity":40,"Duration":599446,"SoundDuration":599446,"Delta":219935453},{"NoteNumber":63,"Velocity":45,"Duration":146708,"SoundDuration":146708,"Delta":220243146},{"NoteNumber":64,"Velocity":45,"Duration":145045,"SoundDuration":145045,"Delta":220389854},{"NoteNumber":65,"Velocity":45,"Duration":146480,"SoundDuration":146480,"Delta":220534900},{"NoteNumber":55,"Velocity":38,"Duration":299177,"SoundDuration":299177,"Delta":220534900},{"NoteNumber":60,"Velocity":38,"Duration":299177,"SoundDuration":299177,"Delta":220534900},{"NoteNumber":66,"Velocity":45,"Duration":152696,"SoundDuration":152696,"Delta":220681381},{"NoteNumber":67,"Velocity":46,"Duration":314135,"SoundDuration":314135,"Delta":220834078},{"NoteNumber":55,"Velocity":37,"Duration":1513836,"SoundDuration":1513836,"Delta":220834078},{"NoteNumber":59,"Velocity":37,"Duration":170156,"SoundDuration":170156,"Delta":220834078},{"NoteNumber":58,"Velocity":34,"Duration":157067,"SoundDuration":157067,"Delta":220991146},{"NoteNumber":67,"Velocity":45,"Duration":314136,"SoundDuration":314136,"Delta":221148214},{"NoteNumber":59,"Velocity":36,"Duration":170157,"SoundDuration":170157,"Delta":221148214},{"NoteNumber":58,"Velocity":32,"Duration":157068,"SoundDuration":157068,"Delta":221305282},{"NoteNumber":67,"Velocity":45,"Duration":314135,"SoundDuration":314135,"Delta":221462350},{"NoteNumber":59,"Velocity":36,"Duration":170156,"SoundDuration":170156,"Delta":221462350},{"NoteNumber":58,"Velocity":33,"Duration":157068,"SoundDuration":157068,"Delta":221619418},{"NoteNumber":67,"Velocity":45,"Duration":571428,"SoundDuration":571428,"Delta":221776486},{"NoteNumber":59,"Velocity":36,"Duration":571428,"SoundDuration":571428,"Delta":221776486},{"NoteNumber":62,"Velocity":45,"Duration":289854,"SoundDuration":289854,"Delta":222347915},{"NoteNumber":69,"Velocity":45,"Duration":217391,"SoundDuration":217391,"Delta":222347915},{"NoteNumber":54,"Velocity":36,"Duration":217391,"SoundDuration":217391,"Delta":222347915},{"NoteNumber":72,"Velocity":45,"Duration":72463,"SoundDuration":72463,"Delta":222565306},{"NoteNumber":57,"Velocity":41,"Duration":72463,"SoundDuration":72463,"Delta":222565306},{"NoteNumber":62,"Velocity":49,"Duration":875403,"SoundDuration":875403,"Delta":222637770},{"NoteNumber":71,"Velocity":49,"Duration":143540,"SoundDuration":143540,"Delta":222637770},{"NoteNumber":55,"Velocity":39,"Duration":143540,"SoundDuration":143540,"Delta":222637770},{"NoteNumber":70,"Velocity":47,"Duration":143540,"SoundDuration":143540,"Delta":222781310},{"NoteNumber":54,"Velocity":36,"Duration":143540,"SoundDuration":143540,"Delta":222781310},{"NoteNumber":71,"Velocity":49,"Duration":142857,"SoundDuration":142857,"Delta":222924851},{"NoteNumber":55,"Velocity":39,"Duration":142857,"SoundDuration":142857,"Delta":222924851},{"NoteNumber":70,"Velocity":46,"Duration":142857,"SoundDuration":142857,"Delta":223067708},{"NoteNumber":54,"Velocity":36,"Duration":142857,"SoundDuration":142857,"Delta":223067708},{"NoteNumber":71,"Velocity":49,"Duration":142179,"SoundDuration":142179,"Delta":223210566},{"NoteNumber":55,"Velocity":39,"Duration":142179,"SoundDuration":142179,"Delta":223210566},{"NoteNumber":74,"Velocity":46,"Duration":160427,"SoundDuration":160427,"Delta":223352746},{"NoteNumber":59,"Velocity":36,"Duration":160427,"SoundDuration":160427,"Delta":223352746},{"NoteNumber":66,"Velocity":44,"Duration":609702,"SoundDuration":609702,"Delta":223513173},{"NoteNumber":62,"Velocity":44,"Duration":905269,"SoundDuration":905269,"Delta":223513173},{"NoteNumber":74,"Velocity":49,"Duration":314135,"SoundDuration":314135,"Delta":223513173},{"NoteNumber":57,"Velocity":38,"Duration":609702,"SoundDuration":609702,"Delta":223513173},{"NoteNumber":72,"Velocity":45,"Duration":295566,"SoundDuration":295566,"Delta":223827309},{"NoteNumber":67,"Velocity":45,"Duration":295566,"SoundDuration":295566,"Delta":224122876},{"NoteNumber":71,"Velocity":45,"Duration":295566,"SoundDuration":295566,"Delta":224122876},{"NoteNumber":55,"Velocity":36,"Duration":295566,"SoundDuration":295566,"Delta":224122876},{"NoteNumber":67,"Velocity":47,"Duration":307692,"SoundDuration":307692,"Delta":224418442},{"NoteNumber":71,"Velocity":47,"Duration":307692,"SoundDuration":307692,"Delta":224418442},{"NoteNumber":50,"Velocity":38,"Duration":153846,"SoundDuration":153846,"Delta":224418442},{"NoteNumber":61,"Velocity":36,"Duration":153846,"SoundDuration":153846,"Delta":224572289},{"NoteNumber":66,"Velocity":45,"Duration":307692,"SoundDuration":307692,"Delta":224726135},{"NoteNumber":69,"Velocity":45,"Duration":307692,"SoundDuration":307692,"Delta":224726135},{"NoteNumber":62,"Velocity":37,"Duration":153846,"SoundDuration":153846,"Delta":224726135},{"NoteNumber":61,"Velocity":36,"Duration":153846,"SoundDuration":153846,"Delta":224879981},{"NoteNumber":66,"Velocity":45,"Duration":307692,"SoundDuration":307692,"Delta":225033827},{"NoteNumber":69,"Velocity":45,"Duration":307692,"SoundDuration":307692,"Delta":225033827},{"NoteNumber":62,"Velocity":37,"Duration":153846,"SoundDuration":153846,"Delta":225033827},{"NoteNumber":61,"Velocity":36,"Duration":153846,"SoundDuration":153846,"Delta":225187674},{"NoteNumber":66,"Velocity":45,"Duration":597014,"SoundDuration":597014,"Delta":225341520},{"NoteNumber":69,"Velocity":45,"Duration":597014,"SoundDuration":597014,"Delta":225341520},{"NoteNumber":62,"Velocity":38,"Duration":149253,"SoundDuration":149253,"Delta":225341520},{"NoteNumber":64,"Velocity":36,"Duration":149253,"SoundDuration":149253,"Delta":225490774},{"NoteNumber":60,"Velocity":38,"Duration":149253,"SoundDuration":149253,"Delta":225640027},{"NoteNumber":62,"Velocity":36,"Duration":149253,"SoundDuration":149253,"Delta":225789281},{"NoteNumber":68,"Velocity":46,"Duration":309278,"SoundDuration":309278,"Delta":225938535},{"NoteNumber":71,"Velocity":46,"Duration":309278,"SoundDuration":309278,"Delta":225938535},{"NoteNumber":59,"Velocity":39,"Duration":154639,"SoundDuration":154639,"Delta":225938535},{"NoteNumber":60,"Velocity":36,"Duration":154639,"SoundDuration":154639,"Delta":226093174},{"NoteNumber":69,"Velocity":49,"Duration":309278,"SoundDuration":309278,"Delta":226247813},{"NoteNumber":72,"Velocity":49,"Duration":309278,"SoundDuration":309278,"Delta":226247813},{"NoteNumber":57,"Velocity":40,"Duration":154639,"SoundDuration":154639,"Delta":226247813},{"NoteNumber":64,"Velocity":37,"Duration":154639,"SoundDuration":154639,"Delta":226402453},{"NoteNumber":71,"Velocity":51,"Duration":309278,"SoundDuration":309278,"Delta":226557092},{"NoteNumber":74,"Velocity":51,"Duration":309278,"SoundDuration":309278,"Delta":226557092},{"NoteNumber":60,"Velocity":37,"Duration":154639,"SoundDuration":154639,"Delta":226557092},{"NoteNumber":59,"Velocity":36,"Duration":154639,"SoundDuration":154639,"Delta":226711731},{"NoteNumber":72,"Velocity":51,"Duration":317460,"SoundDuration":317460,"Delta":226866370},{"NoteNumber":76,"Velocity":51,"Duration":317460,"SoundDuration":317460,"Delta":226866370},{"NoteNumber":57,"Velocity":36,"Duration":158730,"SoundDuration":158730,"Delta":226866370},{"NoteNumber":55,"Velocity":36,"Duration":158730,"SoundDuration":158730,"Delta":227025101},{"NoteNumber":72,"Velocity":51,"Duration":588291,"SoundDuration":588291,"Delta":227183831},{"NoteNumber":76,"Velocity":51,"Duration":588291,"SoundDuration":588291,"Delta":227183831},{"NoteNumber":54,"Velocity":36,"Duration":145631,"SoundDuration":145631,"Delta":227183831},{"NoteNumber":55,"Velocity":35,"Duration":145630,"SoundDuration":145630,"Delta":227329462},{"NoteNumber":57,"Velocity":36,"Duration":148514,"SoundDuration":148514,"Delta":227475093},{"NoteNumber":50,"Velocity":37,"Duration":148514,"SoundDuration":148514,"Delta":227623608},{"NoteNumber":71,"Velocity":47,"Duration":147058,"SoundDuration":147058,"Delta":227772122},{"NoteNumber":74,"Velocity":47,"Duration":147058,"SoundDuration":147058,"Delta":227772122},{"NoteNumber":52,"Velocity":39,"Duration":147058,"SoundDuration":147058,"Delta":227772122},{"NoteNumber":69,"Velocity":47,"Duration":147058,"SoundDuration":147058,"Delta":227919181},{"NoteNumber":72,"Velocity":47,"Duration":147058,"SoundDuration":147058,"Delta":227919181},{"NoteNumber":54,"Velocity":40,"Duration":147058,"SoundDuration":147058,"Delta":227919181},{"NoteNumber":67,"Velocity":49,"Duration":309278,"SoundDuration":309278,"Delta":228066240},{"NoteNumber":71,"Velocity":49,"Duration":309278,"SoundDuration":309278,"Delta":228066240},{"NoteNumber":55,"Velocity":39,"Duration":154639,"SoundDuration":154639,"Delta":228066240},{"NoteNumber":54,"Velocity":38,"Duration":154639,"SoundDuration":154639,"Delta":228220879},{"NoteNumber":69,"Velocity":46,"Duration":309278,"SoundDuration":309278,"Delta":228375518},{"NoteNumber":72,"Velocity":46,"Duration":309278,"SoundDuration":309278,"Delta":228375518},{"NoteNumber":52,"Velocity":37,"Duration":154639,"SoundDuration":154639,"Delta":228375518},{"NoteNumber":50,"Velocity":36,"Duration":154639,"SoundDuration":154639,"Delta":228530158},{"NoteNumber":71,"Velocity":46,"Duration":317460,"SoundDuration":317460,"Delta":228684797},{"NoteNumber":74,"Velocity":46,"Duration":317460,"SoundDuration":317460,"Delta":228684797},{"NoteNumber":48,"Velocity":35,"Duration":158730,"SoundDuration":158730,"Delta":228684797},{"NoteNumber":47,"Velocity":34,"Duration":158730,"SoundDuration":158730,"Delta":228843527},{"NoteNumber":59,"Velocity":47,"Duration":304568,"SoundDuration":304568,"Delta":229002257},{"NoteNumber":67,"Velocity":47,"Duration":304568,"SoundDuration":304568,"Delta":229002257},{"NoteNumber":52,"Velocity":38,"Duration":152284,"SoundDuration":152284,"Delta":229002257},{"NoteNumber":50,"Velocity":37,"Duration":152284,"SoundDuration":152284,"Delta":229154542},{"NoteNumber":60,"Velocity":45,"Duration":304568,"SoundDuration":304568,"Delta":229306826},{"NoteNumber":69,"Velocity":45,"Duration":304568,"SoundDuration":304568,"Delta":229306826},{"NoteNumber":48,"Velocity":36,"Duration":152284,"SoundDuration":152284,"Delta":229306826},{"NoteNumber":47,"Velocity":35,"Duration":152284,"SoundDuration":152284,"Delta":229459110},{"NoteNumber":62,"Velocity":45,"Duration":317460,"SoundDuration":317460,"Delta":229611394},{"NoteNumber":71,"Velocity":45,"Duration":317460,"SoundDuration":317460,"Delta":229611394},{"NoteNumber":45,"Velocity":33,"Duration":158730,"SoundDuration":158730,"Delta":229611394},{"NoteNumber":43,"Velocity":32,"Duration":158730,"SoundDuration":158730,"Delta":229770125},{"NoteNumber":69,"Velocity":46,"Duration":304568,"SoundDuration":304568,"Delta":229928855},{"NoteNumber":48,"Velocity":39,"Duration":304568,"SoundDuration":304568,"Delta":229928855},{"NoteNumber":64,"Velocity":46,"Duration":300798,"SoundDuration":300798,"Delta":230081139},{"NoteNumber":71,"Velocity":45,"Duration":297029,"SoundDuration":297029,"Delta":230233423},{"NoteNumber":47,"Velocity":36,"Duration":297029,"SoundDuration":297029,"Delta":230233423},{"NoteNumber":62,"Velocity":45,"Duration":307244,"SoundDuration":307244,"Delta":230381938},{"NoteNumber":72,"Velocity":45,"Duration":317460,"SoundDuration":317460,"Delta":230530453},{"NoteNumber":45,"Velocity":36,"Duration":317460,"SoundDuration":317460,"Delta":230530453},{"NoteNumber":60,"Velocity":45,"Duration":313369,"SoundDuration":313369,"Delta":230689183},{"NoteNumber":72,"Velocity":45,"Duration":309278,"SoundDuration":309278,"Delta":230847913},{"NoteNumber":50,"Velocity":39,"Duration":953752,"SoundDuration":953752,"Delta":230847913},{"NoteNumber":60,"Velocity":45,"Duration":309278,"SoundDuration":309278,"Delta":231002553},{"NoteNumber":69,"Velocity":45,"Duration":309278,"SoundDuration":309278,"Delta":231157192},{"NoteNumber":60,"Velocity":45,"Duration":322237,"SoundDuration":322237,"Delta":231311831},{"NoteNumber":66,"Velocity":43,"Duration":335195,"SoundDuration":335195,"Delta":231466470},{"NoteNumber":60,"Velocity":45,"Duration":1244295,"SoundDuration":1244295,"Delta":231634068},{"NoteNumber":69,"Velocity":41,"Duration":1076697,"SoundDuration":1076697,"Delta":231801666},{"NoteNumber":43,"Velocity":32,"Duration":169495,"SoundDuration":169495,"Delta":231801666},{"NoteNumber":54,"Velocity":29,"Duration":172417,"SoundDuration":172417,"Delta":231971161},{"NoteNumber":55,"Velocity":32,"Duration":175442,"SoundDuration":175442,"Delta":232143578},{"NoteNumber":54,"Velocity":29,"Duration":178575,"SoundDuration":178575,"Delta":232319021},{"NoteNumber":55,"Velocity":30,"Duration":180766,"SoundDuration":180766,"Delta":232497597},{"NoteNumber":54,"Velocity":27,"Duration":199999,"SoundDuration":199999,"Delta":232678363},{"NoteNumber":59,"Velocity":31,"Duration":400000,"SoundDuration":400000,"Delta":232878363},{"NoteNumber":67,"Velocity":31,"Duration":400000,"SoundDuration":400000,"Delta":232878363},{"NoteNumber":55,"Velocity":26,"Duration":400000,"SoundDuration":400000,"Delta":232878363},{"NoteNumber":74,"Velocity":41,"Duration":164835,"SoundDuration":164835,"Delta":233678363},{"NoteNumber":74,"Velocity":41,"Duration":164835,"SoundDuration":164835,"Delta":234008034},{"NoteNumber":55,"Velocity":19,"Duration":329670,"SoundDuration":329670,"Delta":234337704},{"NoteNumber":58,"Velocity":24,"Duration":329670,"SoundDuration":329670,"Delta":234337704},{"NoteNumber":74,"Velocity":44,"Duration":164835,"SoundDuration":164835,"Delta":234667375},{"NoteNumber":75,"Velocity":44,"Duration":164835,"SoundDuration":164835,"Delta":234832210},{"NoteNumber":75,"Velocity":45,"Duration":164835,"SoundDuration":164835,"Delta":234997045},{"NoteNumber":60,"Velocity":26,"Duration":329670,"SoundDuration":329670,"Delta":235326716},{"NoteNumber":55,"Velocity":21,"Duration":329670,"SoundDuration":329670,"Delta":235326716},{"NoteNumber":79,"Velocity":49,"Duration":164835,"SoundDuration":164835,"Delta":235656386},{"NoteNumber":78,"Velocity":46,"Duration":164835,"SoundDuration":164835,"Delta":235821222},{"NoteNumber":78,"Velocity":46,"Duration":164835,"SoundDuration":164835,"Delta":235986057},{"NoteNumber":55,"Velocity":24,"Duration":329670,"SoundDuration":329670,"Delta":236315727},{"NoteNumber":60,"Velocity":28,"Duration":329670,"SoundDuration":329670,"Delta":236315727},{"NoteNumber":82,"Velocity":59,"Duration":164835,"SoundDuration":164835,"Delta":236645398},{"NoteNumber":78,"Velocity":56,"Duration":164835,"SoundDuration":164835,"Delta":236810233},{"NoteNumber":79,"Velocity":56,"Duration":159574,"SoundDuration":159574,"Delta":236975068},{"NoteNumber":55,"Velocity":38,"Duration":327868,"SoundDuration":327868,"Delta":237294217},{"NoteNumber":58,"Velocity":45,"Duration":327868,"SoundDuration":327868,"Delta":237294217},{"NoteNumber":82,"Velocity":63,"Duration":160427,"SoundDuration":160427,"Delta":237622086},{"NoteNumber":81,"Velocity":66,"Duration":160427,"SoundDuration":160427,"Delta":237782514},{"NoteNumber":84,"Velocity":74,"Duration":466321,"SoundDuration":466321,"Delta":237942942},{"NoteNumber":82,"Velocity":62,"Duration":155440,"SoundDuration":155440,"Delta":238409263},{"NoteNumber":81,"Velocity":62,"Duration":77720,"SoundDuration":77720,"Delta":238564704},{"NoteNumber":79,"Velocity":62,"Duration":77720,"SoundDuration":77720,"Delta":238642424},{"NoteNumber":77,"Velocity":62,"Duration":77720,"SoundDuration":77720,"Delta":238720144},{"NoteNumber":76,"Velocity":62,"Duration":38860,"SoundDuration":38860,"Delta":238797865},{"NoteNumber":74,"Velocity":62,"Duration":38860,"SoundDuration":38860,"Delta":238836725},{"NoteNumber":67,"Velocity":59,"Duration":932642,"SoundDuration":932642,"Delta":238875585},{"NoteNumber":70,"Velocity":59,"Duration":932642,"SoundDuration":932642,"Delta":238875585},{"NoteNumber":73,"Velocity":59,"Duration":932642,"SoundDuration":932642,"Delta":238875585},{"NoteNumber":88,"Velocity":88,"Duration":621761,"SoundDuration":621761,"Delta":239186466},{"NoteNumber":85,"Velocity":88,"Duration":621761,"SoundDuration":621761,"Delta":239186466},{"NoteNumber":82,"Velocity":74,"Duration":621761,"SoundDuration":621761,"Delta":239186466},{"NoteNumber":79,"Velocity":74,"Duration":621761,"SoundDuration":621761,"Delta":239186466},{"NoteNumber":65,"Velocity":61,"Duration":620091,"SoundDuration":620091,"Delta":239808228},{"NoteNumber":69,"Velocity":61,"Duration":620091,"SoundDuration":620091,"Delta":239808228},{"NoteNumber":77,"Velocity":67,"Duration":76661,"SoundDuration":76661,"Delta":239885547},{"NoteNumber":81,"Velocity":70,"Duration":78816,"SoundDuration":78816,"Delta":239962209},{"NoteNumber":85,"Velocity":71,"Duration":77991,"SoundDuration":77991,"Delta":240041026},{"NoteNumber":86,"Velocity":72,"Duration":76794,"SoundDuration":76794,"Delta":240119017},{"NoteNumber":79,"Velocity":71,"Duration":76924,"SoundDuration":76924,"Delta":240195812},{"NoteNumber":85,"Velocity":72,"Duration":78261,"SoundDuration":78261,"Delta":240272737},{"NoteNumber":86,"Velocity":74,"Duration":77321,"SoundDuration":77321,"Delta":240350998},{"NoteNumber":88,"Velocity":76,"Duration":76274,"SoundDuration":76274,"Delta":240428319},{"NoteNumber":64,"Velocity":58,"Duration":308372,"SoundDuration":308372,"Delta":240428319},{"NoteNumber":67,"Velocity":58,"Duration":308372,"SoundDuration":308372,"Delta":240428319},{"NoteNumber":81,"Velocity":73,"Duration":77586,"SoundDuration":77586,"Delta":240504593},{"NoteNumber":86,"Velocity":75,"Duration":77323,"SoundDuration":77323,"Delta":240582180},{"NoteNumber":88,"Velocity":77,"Duration":77187,"SoundDuration":77187,"Delta":240659504},{"NoteNumber":89,"Velocity":89,"Duration":379747,"SoundDuration":379747,"Delta":240736691},{"NoteNumber":62,"Velocity":58,"Duration":379747,"SoundDuration":379747,"Delta":240736691},{"NoteNumber":65,"Velocity":58,"Duration":379747,"SoundDuration":379747,"Delta":240736691},{"NoteNumber":74,"Velocity":71,"Duration":736196,"SoundDuration":736196,"Delta":241116438},{"NoteNumber":77,"Velocity":83,"Duration":736196,"SoundDuration":736196,"Delta":241116438},{"NoteNumber":83,"Velocity":83,"Duration":736196,"SoundDuration":736196,"Delta":241116438},{"NoteNumber":68,"Velocity":62,"Duration":736196,"SoundDuration":736196,"Delta":241116438},{"NoteNumber":71,"Velocity":62,"Duration":736196,"SoundDuration":736196,"Delta":241116438},{"NoteNumber":57,"Velocity":58,"Duration":1025034,"SoundDuration":1025034,"Delta":241852634},{"NoteNumber":62,"Velocity":58,"Duration":1025034,"SoundDuration":1025034,"Delta":241852634},{"NoteNumber":65,"Velocity":58,"Duration":1025034,"SoundDuration":1025034,"Delta":241852634},{"NoteNumber":69,"Velocity":58,"Duration":337078,"SoundDuration":337078,"Delta":242203511},{"NoteNumber":81,"Velocity":69,"Duration":337078,"SoundDuration":337078,"Delta":242203511},{"NoteNumber":77,"Velocity":57,"Duration":168539,"SoundDuration":168539,"Delta":242540590},{"NoteNumber":74,"Velocity":57,"Duration":168539,"SoundDuration":168539,"Delta":242709129},{"NoteNumber":57,"Velocity":49,"Duration":1035816,"SoundDuration":1035816,"Delta":242877668},{"NoteNumber":64,"Velocity":49,"Duration":1035816,"SoundDuration":1035816,"Delta":242877668},{"NoteNumber":67,"Velocity":49,"Duration":1035816,"SoundDuration":1035816,"Delta":242877668},{"NoteNumber":69,"Velocity":55,"Duration":342857,"SoundDuration":342857,"Delta":243212864},{"NoteNumber":79,"Velocity":65,"Duration":342857,"SoundDuration":342857,"Delta":243212864},{"NoteNumber":76,"Velocity":54,"Duration":171428,"SoundDuration":171428,"Delta":243555721},{"NoteNumber":73,"Velocity":46,"Duration":155279,"SoundDuration":155279,"Delta":243727149},{"NoteNumber":73,"Velocity":53,"Duration":794702,"SoundDuration":794702,"Delta":243913485},{"NoteNumber":74,"Velocity":36,"Duration":310344,"SoundDuration":310344,"Delta":244708187},{"NoteNumber":50,"Velocity":27,"Duration":310344,"SoundDuration":310344,"Delta":244708187},{"NoteNumber":62,"Velocity":27,"Duration":310344,"SoundDuration":310344,"Delta":244708187},{"NoteNumber":74,"Velocity":36,"Duration":413792,"SoundDuration":413792,"Delta":245121980},{"NoteNumber":50,"Velocity":27,"Duration":413792,"SoundDuration":413792,"Delta":245121980},{"NoteNumber":62,"Velocity":27,"Duration":413792,"SoundDuration":413792,"Delta":245121980},{"NoteNumber":74,"Velocity":41,"Duration":164835,"SoundDuration":164835,"Delta":245949566},{"NoteNumber":74,"Velocity":41,"Duration":164835,"SoundDuration":164835,"Delta":246279236},{"NoteNumber":55,"Velocity":19,"Duration":329670,"SoundDuration":329670,"Delta":246608907},{"NoteNumber":58,"Velocity":24,"Duration":329670,"SoundDuration":329670,"Delta":246608907},{"NoteNumber":74,"Velocity":44,"Duration":164835,"SoundDuration":164835,"Delta":246938577},{"NoteNumber":75,"Velocity":44,"Duration":164835,"SoundDuration":164835,"Delta":247103412},{"NoteNumber":75,"Velocity":45,"Duration":164835,"SoundDuration":164835,"Delta":247268248},{"NoteNumber":60,"Velocity":28,"Duration":329670,"SoundDuration":329670,"Delta":247597918},{"NoteNumber":55,"Velocity":24,"Duration":329670,"SoundDuration":329670,"Delta":247597918},{"NoteNumber":79,"Velocity":49,"Duration":164835,"SoundDuration":164835,"Delta":247927589},{"NoteNumber":78,"Velocity":46,"Duration":164835,"SoundDuration":164835,"Delta":248092424},{"NoteNumber":78,"Velocity":46,"Duration":164835,"SoundDuration":164835,"Delta":248257259},{"NoteNumber":55,"Velocity":25,"Duration":329670,"SoundDuration":329670,"Delta":248586930},{"NoteNumber":60,"Velocity":30,"Duration":329670,"SoundDuration":329670,"Delta":248586930},{"NoteNumber":82,"Velocity":59,"Duration":164835,"SoundDuration":164835,"Delta":248916600},{"NoteNumber":78,"Velocity":56,"Duration":164835,"SoundDuration":164835,"Delta":249081435},{"NoteNumber":79,"Velocity":56,"Duration":159574,"SoundDuration":159574,"Delta":249246271},{"NoteNumber":55,"Velocity":38,"Duration":327868,"SoundDuration":327868,"Delta":249565420},{"NoteNumber":58,"Velocity":45,"Duration":327868,"SoundDuration":327868,"Delta":249565420},{"NoteNumber":82,"Velocity":63,"Duration":160427,"SoundDuration":160427,"Delta":249893289},{"NoteNumber":81,"Velocity":66,"Duration":160427,"SoundDuration":160427,"Delta":250053716},{"NoteNumber":84,"Velocity":74,"Duration":466321,"SoundDuration":466321,"Delta":250214144},{"NoteNumber":82,"Velocity":62,"Duration":155440,"SoundDuration":155440,"Delta":250680466},{"NoteNumber":81,"Velocity":62,"Duration":77720,"SoundDuration":77720,"Delta":250835906},{"NoteNumber":79,"Velocity":62,"Duration":77720,"SoundDuration":77720,"Delta":250913626},{"NoteNumber":77,"Velocity":62,"Duration":77720,"SoundDuration":77720,"Delta":250991347},{"NoteNumber":76,"Velocity":62,"Duration":38860,"SoundDuration":38860,"Delta":251069067},{"NoteNumber":74,"Velocity":62,"Duration":38860,"SoundDuration":38860,"Delta":251107927},{"NoteNumber":67,"Velocity":59,"Duration":932642,"SoundDuration":932642,"Delta":251146787},{"NoteNumber":70,"Velocity":59,"Duration":932642,"SoundDuration":932642,"Delta":251146787},{"NoteNumber":73,"Velocity":59,"Duration":932642,"SoundDuration":932642,"Delta":251146787},{"NoteNumber":88,"Velocity":88,"Duration":621761,"SoundDuration":621761,"Delta":251457668},{"NoteNumber":85,"Velocity":88,"Duration":621761,"SoundDuration":621761,"Delta":251457668},{"NoteNumber":82,"Velocity":73,"Duration":621761,"SoundDuration":621761,"Delta":251457668},{"NoteNumber":79,"Velocity":73,"Duration":621761,"SoundDuration":621761,"Delta":251457668},{"NoteNumber":65,"Velocity":61,"Duration":619053,"SoundDuration":619053,"Delta":252079430},{"NoteNumber":69,"Velocity":61,"Duration":619053,"SoundDuration":619053,"Delta":252079430},{"NoteNumber":77,"Velocity":67,"Duration":76924,"SoundDuration":76924,"Delta":252156885},{"NoteNumber":81,"Velocity":70,"Duration":78809,"SoundDuration":78809,"Delta":252233809},{"NoteNumber":85,"Velocity":71,"Duration":76664,"SoundDuration":76664,"Delta":252312619},{"NoteNumber":86,"Velocity":72,"Duration":76146,"SoundDuration":76146,"Delta":252389283},{"NoteNumber":79,"Velocity":71,"Duration":77990,"SoundDuration":77990,"Delta":252465429},{"NoteNumber":85,"Velocity":72,"Duration":77190,"SoundDuration":77190,"Delta":252543419},{"NoteNumber":86,"Velocity":74,"Duration":77874,"SoundDuration":77874,"Delta":252620609},{"NoteNumber":88,"Velocity":76,"Duration":79365,"SoundDuration":79365,"Delta":252698484},{"NoteNumber":64,"Velocity":58,"Duration":310310,"SoundDuration":310310,"Delta":252698484},{"NoteNumber":67,"Velocity":58,"Duration":310310,"SoundDuration":310310,"Delta":252698484},{"NoteNumber":81,"Velocity":73,"Duration":78267,"SoundDuration":78267,"Delta":252777849},{"NoteNumber":86,"Velocity":75,"Duration":76015,"SoundDuration":76015,"Delta":252856116},{"NoteNumber":88,"Velocity":77,"Duration":76662,"SoundDuration":76662,"Delta":252932131},{"NoteNumber":89,"Velocity":89,"Duration":379747,"SoundDuration":379747,"Delta":253008794},{"NoteNumber":62,"Velocity":58,"Duration":379747,"SoundDuration":379747,"Delta":253008794},{"NoteNumber":65,"Velocity":58,"Duration":379747,"SoundDuration":379747,"Delta":253008794},{"NoteNumber":74,"Velocity":71,"Duration":736196,"SoundDuration":736196,"Delta":253388541},{"NoteNumber":77,"Velocity":83,"Duration":736196,"SoundDuration":736196,"Delta":253388541},{"NoteNumber":83,"Velocity":83,"Duration":736196,"SoundDuration":736196,"Delta":253388541},{"NoteNumber":68,"Velocity":62,"Duration":736196,"SoundDuration":736196,"Delta":253388541},{"NoteNumber":71,"Velocity":62,"Duration":736196,"SoundDuration":736196,"Delta":253388541},{"NoteNumber":57,"Velocity":57,"Duration":1026803,"SoundDuration":1026803,"Delta":254124737},{"NoteNumber":62,"Velocity":57,"Duration":1026803,"SoundDuration":1026803,"Delta":254124737},{"NoteNumber":65,"Velocity":57,"Duration":1026803,"SoundDuration":1026803,"Delta":254124737},{"NoteNumber":69,"Velocity":59,"Duration":338982,"SoundDuration":338982,"Delta":254473574},{"NoteNumber":81,"Velocity":70,"Duration":338982,"SoundDuration":338982,"Delta":254473574},{"NoteNumber":77,"Velocity":57,"Duration":169491,"SoundDuration":169491,"Delta":254812557},{"NoteNumber":74,"Velocity":57,"Duration":169491,"SoundDuration":169491,"Delta":254982048},{"NoteNumber":57,"Velocity":45,"Duration":1041530,"SoundDuration":1041530,"Delta":255151540},{"NoteNumber":64,"Velocity":45,"Duration":1041530,"SoundDuration":1041530,"Delta":255151540},{"NoteNumber":67,"Velocity":45,"Duration":1041530,"SoundDuration":1041530,"Delta":255151540},{"NoteNumber":69,"Velocity":54,"Duration":342856,"SoundDuration":342856,"Delta":255492449},{"NoteNumber":79,"Velocity":64,"Duration":342856,"SoundDuration":342856,"Delta":255492449},{"NoteNumber":76,"Velocity":54,"Duration":171428,"SoundDuration":171428,"Delta":255835306},{"NoteNumber":73,"Velocity":48,"Duration":186335,"SoundDuration":186335,"Delta":256006734},{"NoteNumber":73,"Velocity":55,"Duration":794701,"SoundDuration":794701,"Delta":256193070},{"NoteNumber":74,"Velocity":36,"Duration":310344,"SoundDuration":310344,"Delta":256987772},{"NoteNumber":50,"Velocity":27,"Duration":310344,"SoundDuration":310344,"Delta":256987772},{"NoteNumber":62,"Velocity":27,"Duration":310344,"SoundDuration":310344,"Delta":256987772},{"NoteNumber":74,"Velocity":36,"Duration":413792,"SoundDuration":413792,"Delta":257401565},{"NoteNumber":50,"Velocity":27,"Duration":413792,"SoundDuration":413792,"Delta":257401565},{"NoteNumber":62,"Velocity":27,"Duration":413792,"SoundDuration":413792,"Delta":257401565},{"NoteNumber":74,"Velocity":36,"Duration":194805,"SoundDuration":194805,"Delta":258229151},{"NoteNumber":74,"Velocity":37,"Duration":178571,"SoundDuration":178571,"Delta":258618761},{"NoteNumber":58,"Velocity":22,"Duration":357143,"SoundDuration":357143,"Delta":258975904},{"NoteNumber":62,"Velocity":27,"Duration":357143,"SoundDuration":357143,"Delta":258975904},{"NoteNumber":67,"Velocity":37,"Duration":338982,"SoundDuration":338982,"Delta":259333047},{"NoteNumber":72,"Velocity":39,"Duration":338983,"SoundDuration":338983,"Delta":259672030},{"NoteNumber":63,"Velocity":29,"Duration":357143,"SoundDuration":357143,"Delta":260011013},{"NoteNumber":57,"Velocity":25,"Duration":357143,"SoundDuration":357143,"Delta":260011013},{"NoteNumber":66,"Velocity":37,"Duration":338982,"SoundDuration":338982,"Delta":260368156},{"NoteNumber":70,"Velocity":39,"Duration":338983,"SoundDuration":338983,"Delta":260707139},{"NoteNumber":55,"Velocity":25,"Duration":359281,"SoundDuration":359281,"Delta":261046122},{"NoteNumber":58,"Velocity":29,"Duration":359281,"SoundDuration":359281,"Delta":261046122},{"NoteNumber":61,"Velocity":44,"Duration":340909,"SoundDuration":340909,"Delta":261405404},{"NoteNumber":62,"Velocity":45,"Duration":340909,"SoundDuration":340909,"Delta":261746313},{"NoteNumber":50,"Velocity":45,"Duration":327869,"SoundDuration":327869,"Delta":262087222},{"NoteNumber":38,"Velocity":45,"Duration":327869,"SoundDuration":327869,"Delta":262087222},{"NoteNumber":67,"Velocity":70,"Duration":157894,"SoundDuration":157894,"Delta":262415091},{"NoteNumber":58,"Velocity":55,"Duration":315789,"SoundDuration":315789,"Delta":262415091},{"NoteNumber":62,"Velocity":55,"Duration":315789,"SoundDuration":315789,"Delta":262415091},{"NoteNumber":79,"Velocity":63,"Duration":157894,"SoundDuration":157894,"Delta":262572986},{"NoteNumber":69,"Velocity":68,"Duration":153061,"SoundDuration":153061,"Delta":262730880},{"NoteNumber":63,"Velocity":50,"Duration":620258,"SoundDuration":620258,"Delta":262730880},{"NoteNumber":60,"Velocity":50,"Duration":620258,"SoundDuration":620258,"Delta":262730880},{"NoteNumber":79,"Velocity":63,"Duration":153061,"SoundDuration":153061,"Delta":262883942},{"NoteNumber":78,"Velocity":63,"Duration":157067,"SoundDuration":157067,"Delta":263037003},{"NoteNumber":69,"Velocity":63,"Duration":157067,"SoundDuration":157067,"Delta":263194071},{"NoteNumber":67,"Velocity":67,"Duration":157068,"SoundDuration":157068,"Delta":263351139},{"NoteNumber":62,"Velocity":55,"Duration":314136,"SoundDuration":314136,"Delta":263351139},{"NoteNumber":58,"Velocity":55,"Duration":314136,"SoundDuration":314136,"Delta":263351139},{"NoteNumber":79,"Velocity":63,"Duration":157067,"SoundDuration":157067,"Delta":263508207},{"NoteNumber":69,"Velocity":64,"Duration":153846,"SoundDuration":153846,"Delta":263665275},{"NoteNumber":60,"Velocity":49,"Duration":623482,"SoundDuration":623482,"Delta":263665275},{"NoteNumber":63,"Velocity":49,"Duration":623482,"SoundDuration":623482,"Delta":263665275},{"NoteNumber":79,"Velocity":64,"Duration":153846,"SoundDuration":153846,"Delta":263819121},{"NoteNumber":78,"Velocity":64,"Duration":157894,"SoundDuration":157894,"Delta":263972967},{"NoteNumber":69,"Velocity":64,"Duration":157894,"SoundDuration":157894,"Delta":264130862},{"NoteNumber":67,"Velocity":70,"Duration":160427,"SoundDuration":160427,"Delta":264288757},{"NoteNumber":62,"Velocity":52,"Duration":320855,"SoundDuration":320855,"Delta":264288757},{"NoteNumber":58,"Velocity":52,"Duration":320855,"SoundDuration":320855,"Delta":264288757},{"NoteNumber":79,"Velocity":70,"Duration":160427,"SoundDuration":160427,"Delta":264449185},{"NoteNumber":75,"Velocity":77,"Duration":158312,"SoundDuration":158312,"Delta":264609612},{"NoteNumber":60,"Velocity":55,"Duration":314971,"SoundDuration":314971,"Delta":264609612},{"NoteNumber":54,"Velocity":46,"Duration":947660,"SoundDuration":947660,"Delta":264609612},{"NoteNumber":87,"Velocity":69,"Duration":156658,"SoundDuration":156658,"Delta":264767925},{"NoteNumber":74,"Velocity":74,"Duration":155039,"SoundDuration":155039,"Delta":264924584},{"NoteNumber":62,"Velocity":44,"Duration":308364,"SoundDuration":308364,"Delta":264924584},{"NoteNumber":86,"Velocity":66,"Duration":153324,"SoundDuration":153324,"Delta":265079624},{"NoteNumber":72,"Velocity":66,"Duration":162162,"SoundDuration":162162,"Delta":265232948},{"NoteNumber":63,"Velocity":44,"Duration":324324,"SoundDuration":324324,"Delta":265232948},{"NoteNumber":84,"Velocity":63,"Duration":324324,"SoundDuration":324324,"Delta":265395110},{"NoteNumber":55,"Velocity":45,"Duration":324324,"SoundDuration":324324,"Delta":265557273},{"NoteNumber":62,"Velocity":45,"Duration":964347,"SoundDuration":964347,"Delta":265557273},{"NoteNumber":82,"Velocity":61,"Duration":162162,"SoundDuration":162162,"Delta":265719435},{"NoteNumber":81,"Velocity":61,"Duration":158730,"SoundDuration":158730,"Delta":265881597},{"NoteNumber":57,"Velocity":36,"Duration":318304,"SoundDuration":318304,"Delta":265881597},{"NoteNumber":79,"Velocity":61,"Duration":159574,"SoundDuration":159574,"Delta":266040327},{"NoteNumber":78,"Velocity":61,"Duration":160427,"SoundDuration":160427,"Delta":266199902},{"NoteNumber":58,"Velocity":37,"Duration":321717,"SoundDuration":321717,"Delta":266199902},{"NoteNumber":79,"Velocity":59,"Duration":161290,"SoundDuration":161290,"Delta":266360330},{"NoteNumber":77,"Velocity":57,"Duration":159577,"SoundDuration":159577,"Delta":266521620},{"NoteNumber":63,"Velocity":38,"Duration":1009612,"SoundDuration":1009612,"Delta":266521620},{"NoteNumber":60,"Velocity":38,"Duration":1009612,"SoundDuration":1009612,"Delta":266521620},{"NoteNumber":75,"Velocity":54,"Duration":162165,"SoundDuration":162165,"Delta":266681197},{"NoteNumber":74,"Velocity":53,"Duration":165293,"SoundDuration":165293,"Delta":266843363},{"NoteNumber":72,"Velocity":51,"Duration":168072,"SoundDuration":168072,"Delta":267008657},{"NoteNumber":70,"Velocity":48,"Duration":170454,"SoundDuration":170454,"Delta":267176729},{"NoteNumber":69,"Velocity":46,"Duration":184049,"SoundDuration":184049,"Delta":267347183},{"NoteNumber":67,"Velocity":42,"Duration":543184,"SoundDuration":543184,"Delta":267531232},{"NoteNumber":58,"Velocity":35,"Duration":735492,"SoundDuration":735492,"Delta":267531232},{"NoteNumber":50,"Velocity":35,"Duration":1120108,"SoundDuration":1120108,"Delta":267531232},{"NoteNumber":69,"Velocity":39,"Duration":192307,"SoundDuration":192307,"Delta":268074417},{"NoteNumber":66,"Velocity":39,"Duration":384615,"SoundDuration":384615,"Delta":268266725},{"NoteNumber":57,"Velocity":29,"Duration":384615,"SoundDuration":384615,"Delta":268266725},{"NoteNumber":67,"Velocity":31,"Duration":199999,"SoundDuration":199999,"Delta":269451340},{"NoteNumber":43,"Velocity":26,"Duration":199999,"SoundDuration":199999,"Delta":269451340},{"NoteNumber":55,"Velocity":26,"Duration":199999,"SoundDuration":199999,"Delta":269451340},{"NoteNumber":67,"Velocity":31,"Duration":188679,"SoundDuration":188679,"Delta":269851340},{"NoteNumber":43,"Velocity":26,"Duration":188679,"SoundDuration":188679,"Delta":269851340},{"NoteNumber":55,"Velocity":26,"Duration":188679,"SoundDuration":188679,"Delta":269851340},{"NoteNumber":74,"Velocity":36,"Duration":194805,"SoundDuration":194805,"Delta":270606057},{"NoteNumber":74,"Velocity":37,"Duration":178571,"SoundDuration":178571,"Delta":270995668},{"NoteNumber":58,"Velocity":22,"Duration":357143,"SoundDuration":357143,"Delta":271352811},{"NoteNumber":62,"Velocity":27,"Duration":357143,"SoundDuration":357143,"Delta":271352811},{"NoteNumber":67,"Velocity":37,"Duration":338982,"SoundDuration":338982,"Delta":271709954},{"NoteNumber":72,"Velocity":39,"Duration":338983,"SoundDuration":338983,"Delta":272048937},{"NoteNumber":63,"Velocity":29,"Duration":357143,"SoundDuration":357143,"Delta":272387920},{"NoteNumber":57,"Velocity":25,"Duration":357143,"SoundDuration":357143,"Delta":272387920},{"NoteNumber":66,"Velocity":37,"Duration":338982,"SoundDuration":338982,"Delta":272745063},{"NoteNumber":70,"Velocity":39,"Duration":338983,"SoundDuration":338983,"Delta":273084046},{"NoteNumber":55,"Velocity":25,"Duration":359281,"SoundDuration":359281,"Delta":273423029},{"NoteNumber":58,"Velocity":29,"Duration":359281,"SoundDuration":359281,"Delta":273423029},{"NoteNumber":61,"Velocity":44,"Duration":340909,"SoundDuration":340909,"Delta":273782310},{"NoteNumber":62,"Velocity":45,"Duration":340909,"SoundDuration":340909,"Delta":274123219},{"NoteNumber":50,"Velocity":45,"Duration":327869,"SoundDuration":327869,"Delta":274464128},{"NoteNumber":38,"Velocity":45,"Duration":327869,"SoundDuration":327869,"Delta":274464128},{"NoteNumber":67,"Velocity":70,"Duration":157894,"SoundDuration":157894,"Delta":274791997},{"NoteNumber":58,"Velocity":55,"Duration":315789,"SoundDuration":315789,"Delta":274791997},{"NoteNumber":62,"Velocity":55,"Duration":315789,"SoundDuration":315789,"Delta":274791997},{"NoteNumber":79,"Velocity":63,"Duration":157894,"SoundDuration":157894,"Delta":274949892},{"NoteNumber":69,"Velocity":68,"Duration":153061,"SoundDuration":153061,"Delta":275107787},{"NoteNumber":63,"Velocity":50,"Duration":620258,"SoundDuration":620258,"Delta":275107787},{"NoteNumber":60,"Velocity":50,"Duration":620258,"SoundDuration":620258,"Delta":275107787},{"NoteNumber":79,"Velocity":63,"Duration":153061,"SoundDuration":153061,"Delta":275260848},{"NoteNumber":78,"Velocity":63,"Duration":157067,"SoundDuration":157067,"Delta":275413909},{"NoteNumber":69,"Velocity":63,"Duration":157067,"SoundDuration":157067,"Delta":275570977},{"NoteNumber":67,"Velocity":67,"Duration":157068,"SoundDuration":157068,"Delta":275728045},{"NoteNumber":62,"Velocity":55,"Duration":314136,"SoundDuration":314136,"Delta":275728045},{"NoteNumber":58,"Velocity":55,"Duration":314136,"SoundDuration":314136,"Delta":275728045},{"NoteNumber":79,"Velocity":67,"Duration":157067,"SoundDuration":157067,"Delta":275885113},{"NoteNumber":69,"Velocity":64,"Duration":153846,"SoundDuration":153846,"Delta":276042181},{"NoteNumber":60,"Velocity":49,"Duration":623482,"SoundDuration":623482,"Delta":276042181},{"NoteNumber":63,"Velocity":49,"Duration":623482,"SoundDuration":623482,"Delta":276042181},{"NoteNumber":79,"Velocity":64,"Duration":153846,"SoundDuration":153846,"Delta":276196027},{"NoteNumber":78,"Velocity":64,"Duration":157894,"SoundDuration":157894,"Delta":276349874},{"NoteNumber":69,"Velocity":64,"Duration":157894,"SoundDuration":157894,"Delta":276507768},{"NoteNumber":67,"Velocity":70,"Duration":163934,"SoundDuration":163934,"Delta":276665663},{"NoteNumber":62,"Velocity":52,"Duration":327869,"SoundDuration":327869,"Delta":276665663},{"NoteNumber":58,"Velocity":52,"Duration":327869,"SoundDuration":327869,"Delta":276665663},{"NoteNumber":79,"Velocity":70,"Duration":163934,"SoundDuration":163934,"Delta":276829598},{"NoteNumber":75,"Velocity":75,"Duration":158312,"SoundDuration":158312,"Delta":276993532},{"NoteNumber":60,"Velocity":57,"Duration":314971,"SoundDuration":314971,"Delta":276993532},{"NoteNumber":54,"Velocity":48,"Duration":947660,"SoundDuration":947660,"Delta":276993532},{"NoteNumber":87,"Velocity":67,"Duration":156658,"SoundDuration":156658,"Delta":277151845},{"NoteNumber":74,"Velocity":74,"Duration":155039,"SoundDuration":155039,"Delta":277308504},{"NoteNumber":62,"Velocity":45,"Duration":308364,"SoundDuration":308364,"Delta":277308504},{"NoteNumber":86,"Velocity":64,"Duration":153324,"SoundDuration":153324,"Delta":277463543},{"NoteNumber":72,"Velocity":64,"Duration":162162,"SoundDuration":162162,"Delta":277616868},{"NoteNumber":63,"Velocity":45,"Duration":324324,"SoundDuration":324324,"Delta":277616868},{"NoteNumber":84,"Velocity":60,"Duration":324324,"SoundDuration":324324,"Delta":277779030},{"NoteNumber":55,"Velocity":46,"Duration":324324,"SoundDuration":324324,"Delta":277941192},{"NoteNumber":62,"Velocity":46,"Duration":964347,"SoundDuration":964347,"Delta":277941192},{"NoteNumber":82,"Velocity":57,"Duration":162162,"SoundDuration":162162,"Delta":278103354},{"NoteNumber":81,"Velocity":57,"Duration":158730,"SoundDuration":158730,"Delta":278265517},{"NoteNumber":57,"Velocity":36,"Duration":318304,"SoundDuration":318304,"Delta":278265517},{"NoteNumber":79,"Velocity":57,"Duration":159574,"SoundDuration":159574,"Delta":278424247},{"NoteNumber":78,"Velocity":57,"Duration":160427,"SoundDuration":160427,"Delta":278583821},{"NoteNumber":58,"Velocity":36,"Duration":321717,"SoundDuration":321717,"Delta":278583821},{"NoteNumber":79,"Velocity":56,"Duration":161290,"SoundDuration":161290,"Delta":278744249},{"NoteNumber":77,"Velocity":55,"Duration":159577,"SoundDuration":159577,"Delta":278905539},{"NoteNumber":63,"Velocity":38,"Duration":1019111,"SoundDuration":1019111,"Delta":278905539},{"NoteNumber":60,"Velocity":38,"Duration":1019111,"SoundDuration":1019111,"Delta":278905539},{"NoteNumber":75,"Velocity":54,"Duration":162165,"SoundDuration":162165,"Delta":279065117},{"NoteNumber":74,"Velocity":52,"Duration":165293,"SoundDuration":165293,"Delta":279227282},{"NoteNumber":72,"Velocity":49,"Duration":168072,"SoundDuration":168072,"Delta":279392576},{"NoteNumber":70,"Velocity":45,"Duration":170454,"SoundDuration":170454,"Delta":279560648},{"NoteNumber":69,"Velocity":44,"Duration":193548,"SoundDuration":193548,"Delta":279731103},{"NoteNumber":67,"Velocity":42,"Duration":543184,"SoundDuration":543184,"Delta":279924651},{"NoteNumber":58,"Velocity":35,"Duration":735492,"SoundDuration":735492,"Delta":279924651},{"NoteNumber":50,"Velocity":35,"Duration":1120108,"SoundDuration":1120108,"Delta":279924651},{"NoteNumber":69,"Velocity":39,"Duration":192307,"SoundDuration":192307,"Delta":280467836},{"NoteNumber":66,"Velocity":39,"Duration":384615,"SoundDuration":384615,"Delta":280660144},{"NoteNumber":57,"Velocity":29,"Duration":384615,"SoundDuration":384615,"Delta":280660144},{"NoteNumber":67,"Velocity":31,"Duration":199999,"SoundDuration":199999,"Delta":281844759},{"NoteNumber":43,"Velocity":26,"Duration":199999,"SoundDuration":199999,"Delta":281844759},{"NoteNumber":55,"Velocity":26,"Duration":199999,"SoundDuration":199999,"Delta":281844759},{"NoteNumber":67,"Velocity":31,"Duration":188679,"SoundDuration":188679,"Delta":282244759},{"NoteNumber":43,"Velocity":26,"Duration":188679,"SoundDuration":188679,"Delta":282244759},{"NoteNumber":55,"Velocity":26,"Duration":188679,"SoundDuration":188679,"Delta":282244759},{"NoteNumber":67,"Velocity":44,"Duration":335195,"SoundDuration":335195,"Delta":282999476},{"NoteNumber":55,"Velocity":34,"Duration":335195,"SoundDuration":335195,"Delta":282999476},{"NoteNumber":59,"Velocity":34,"Duration":335195,"SoundDuration":335195,"Delta":282999476},{"NoteNumber":67,"Velocity":45,"Duration":552631,"SoundDuration":552631,"Delta":283334672},{"NoteNumber":55,"Velocity":36,"Duration":631578,"SoundDuration":631578,"Delta":283334672},{"NoteNumber":59,"Velocity":36,"Duration":631578,"SoundDuration":631578,"Delta":283334672},{"NoteNumber":71,"Velocity":42,"Duration":78947,"SoundDuration":78947,"Delta":283887303},{"NoteNumber":69,"Velocity":45,"Duration":322580,"SoundDuration":322580,"Delta":283966251},{"NoteNumber":55,"Velocity":32,"Duration":322580,"SoundDuration":322580,"Delta":283966251},{"NoteNumber":60,"Velocity":32,"Duration":322580,"SoundDuration":322580,"Delta":283966251},{"NoteNumber":62,"Velocity":45,"Duration":309278,"SoundDuration":309278,"Delta":284288831},{"NoteNumber":55,"Velocity":34,"Duration":605827,"SoundDuration":605827,"Delta":284288831},{"NoteNumber":60,"Velocity":34,"Duration":605827,"SoundDuration":605827,"Delta":284288831},{"NoteNumber":66,"Velocity":48,"Duration":148514,"SoundDuration":148514,"Delta":284598110},{"NoteNumber":64,"Velocity":43,"Duration":135898,"SoundDuration":135898,"Delta":284746624},{"NoteNumber":67,"Velocity":50,"Duration":147783,"SoundDuration":147783,"Delta":284894659},{"NoteNumber":55,"Velocity":36,"Duration":297036,"SoundDuration":297036,"Delta":284894659},{"NoteNumber":60,"Velocity":36,"Duration":297036,"SoundDuration":297036,"Delta":284894659},{"NoteNumber":66,"Velocity":45,"Duration":136815,"SoundDuration":136815,"Delta":285042442},{"NoteNumber":69,"Velocity":52,"Duration":146341,"SoundDuration":146341,"Delta":285191696},{"NoteNumber":55,"Velocity":37,"Duration":583979,"SoundDuration":583979,"Delta":285191696},{"NoteNumber":59,"Velocity":37,"Duration":583979,"SoundDuration":583979,"Delta":285191696},{"NoteNumber":67,"Velocity":48,"Duration":135467,"SoundDuration":135467,"Delta":285338037},{"NoteNumber":72,"Velocity":54,"Duration":144927,"SoundDuration":144927,"Delta":285485820},{"NoteNumber":71,"Velocity":50,"Duration":132850,"SoundDuration":132850,"Delta":285630748},{"NoteNumber":74,"Velocity":55,"Duration":145630,"SoundDuration":145630,"Delta":285775675},{"NoteNumber":55,"Velocity":30,"Duration":298692,"SoundDuration":298692,"Delta":285775675},{"NoteNumber":59,"Velocity":30,"Duration":298692,"SoundDuration":298692,"Delta":285775675},{"NoteNumber":71,"Velocity":51,"Duration":140306,"SoundDuration":140306,"Delta":285921306},{"NoteNumber":67,"Velocity":49,"Duration":597014,"SoundDuration":597014,"Delta":286074368},{"NoteNumber":55,"Velocity":33,"Duration":597014,"SoundDuration":597014,"Delta":286074368},{"NoteNumber":59,"Velocity":33,"Duration":597014,"SoundDuration":597014,"Delta":286074368},{"NoteNumber":62,"Velocity":51,"Duration":292216,"SoundDuration":292216,"Delta":286671383},{"NoteNumber":69,"Velocity":51,"Duration":292216,"SoundDuration":292216,"Delta":286671383},{"NoteNumber":54,"Velocity":44,"Duration":292216,"SoundDuration":292216,"Delta":286671383},{"NoteNumber":62,"Velocity":51,"Duration":905290,"SoundDuration":905290,"Delta":286963599},{"NoteNumber":70,"Velocity":51,"Duration":143714,"SoundDuration":143714,"Delta":286963599},{"NoteNumber":55,"Velocity":40,"Duration":143714,"SoundDuration":143714,"Delta":286963599},{"NoteNumber":71,"Velocity":54,"Duration":142013,"SoundDuration":142013,"Delta":287107314},{"NoteNumber":56,"Velocity":44,"Duration":142013,"SoundDuration":142013,"Delta":287107314},{"NoteNumber":72,"Velocity":58,"Duration":140210,"SoundDuration":140210,"Delta":287249327},{"NoteNumber":57,"Velocity":47,"Duration":140210,"SoundDuration":140210,"Delta":287249327},{"NoteNumber":73,"Velocity":61,"Duration":138442,"SoundDuration":138442,"Delta":287389538},{"NoteNumber":58,"Velocity":50,"Duration":138442,"SoundDuration":138442,"Delta":287389538},{"NoteNumber":74,"Velocity":64,"Duration":340909,"SoundDuration":340909,"Delta":287527980},{"NoteNumber":59,"Velocity":55,"Duration":340909,"SoundDuration":340909,"Delta":287527980},{"NoteNumber":66,"Velocity":55,"Duration":628295,"SoundDuration":628295,"Delta":287868889},{"NoteNumber":62,"Velocity":55,"Duration":944084,"SoundDuration":944084,"Delta":287868889},{"NoteNumber":74,"Velocity":55,"Duration":319148,"SoundDuration":319148,"Delta":287868889},{"NoteNumber":57,"Velocity":50,"Duration":628295,"SoundDuration":628295,"Delta":287868889},{"NoteNumber":72,"Velocity":56,"Duration":309146,"SoundDuration":309146,"Delta":288188038},{"NoteNumber":67,"Velocity":50,"Duration":315789,"SoundDuration":315789,"Delta":288497184},{"NoteNumber":71,"Velocity":50,"Duration":315789,"SoundDuration":315789,"Delta":288497184},{"NoteNumber":55,"Velocity":48,"Duration":315789,"SoundDuration":315789,"Delta":288497184},{"NoteNumber":67,"Velocity":56,"Duration":306122,"SoundDuration":306122,"Delta":288812974},{"NoteNumber":71,"Velocity":56,"Duration":306122,"SoundDuration":306122,"Delta":288812974},{"NoteNumber":50,"Velocity":51,"Duration":458406,"SoundDuration":458406,"Delta":288812974},{"NoteNumber":66,"Velocity":54,"Duration":304568,"SoundDuration":304568,"Delta":289119096},{"NoteNumber":69,"Velocity":54,"Duration":304568,"SoundDuration":304568,"Delta":289119096},{"NoteNumber":52,"Velocity":50,"Duration":76142,"SoundDuration":76142,"Delta":289271381},{"NoteNumber":54,"Velocity":51,"Duration":76142,"SoundDuration":76142,"Delta":289347523},{"NoteNumber":66,"Velocity":54,"Duration":304568,"SoundDuration":304568,"Delta":289423665},{"NoteNumber":69,"Velocity":54,"Duration":304568,"SoundDuration":304568,"Delta":289423665},{"NoteNumber":55,"Velocity":54,"Duration":76142,"SoundDuration":76142,"Delta":289423665},{"NoteNumber":57,"Velocity":54,"Duration":76142,"SoundDuration":76142,"Delta":289499807},{"NoteNumber":59,"Velocity":55,"Duration":76142,"SoundDuration":76142,"Delta":289575949},{"NoteNumber":61,"Velocity":56,"Duration":76142,"SoundDuration":76142,"Delta":289652091},{"NoteNumber":66,"Velocity":54,"Duration":621761,"SoundDuration":621761,"Delta":289728233},{"NoteNumber":69,"Velocity":54,"Duration":621761,"SoundDuration":621761,"Delta":289728233},{"NoteNumber":62,"Velocity":59,"Duration":310880,"SoundDuration":310880,"Delta":289728233},{"NoteNumber":60,"Velocity":52,"Duration":310880,"SoundDuration":310880,"Delta":290039114},{"NoteNumber":68,"Velocity":55,"Duration":307692,"SoundDuration":307692,"Delta":290349995},{"NoteNumber":71,"Velocity":55,"Duration":307692,"SoundDuration":307692,"Delta":290349995},{"NoteNumber":59,"Velocity":52,"Duration":307692,"SoundDuration":307692,"Delta":290349995},{"NoteNumber":72,"Velocity":57,"Duration":76923,"SoundDuration":76923,"Delta":290657688},{"NoteNumber":57,"Velocity":48,"Duration":615385,"SoundDuration":615385,"Delta":290657688},{"NoteNumber":69,"Velocity":59,"Duration":76923,"SoundDuration":76923,"Delta":290734611},{"NoteNumber":71,"Velocity":60,"Duration":76923,"SoundDuration":76923,"Delta":290811534},{"NoteNumber":72,"Velocity":61,"Duration":76923,"SoundDuration":76923,"Delta":290888457},{"NoteNumber":74,"Velocity":63,"Duration":76923,"SoundDuration":76923,"Delta":290965380},{"NoteNumber":76,"Velocity":63,"Duration":76923,"SoundDuration":76923,"Delta":291042304},{"NoteNumber":78,"Velocity":65,"Duration":76923,"SoundDuration":76923,"Delta":291119227},{"NoteNumber":80,"Velocity":66,"Duration":76923,"SoundDuration":76923,"Delta":291196150},{"NoteNumber":81,"Velocity":67,"Duration":78125,"SoundDuration":78125,"Delta":291273073},{"NoteNumber":55,"Velocity":46,"Duration":312500,"SoundDuration":312500,"Delta":291273073},{"NoteNumber":83,"Velocity":68,"Duration":78125,"SoundDuration":78125,"Delta":291351198},{"NoteNumber":84,"Velocity":70,"Duration":78125,"SoundDuration":78125,"Delta":291429323},{"NoteNumber":86,"Velocity":71,"Duration":78125,"SoundDuration":78125,"Delta":291507448},{"NoteNumber":84,"Velocity":72,"Duration":317460,"SoundDuration":317460,"Delta":291585573},{"NoteNumber":88,"Velocity":72,"Duration":317460,"SoundDuration":317460,"Delta":291585573},{"NoteNumber":54,"Velocity":48,"Duration":945802,"SoundDuration":945802,"Delta":291585573},{"NoteNumber":83,"Velocity":61,"Duration":317460,"SoundDuration":317460,"Delta":291903033},{"NoteNumber":86,"Velocity":61,"Duration":317460,"SoundDuration":317460,"Delta":291903033},{"NoteNumber":81,"Velocity":61,"Duration":617003,"SoundDuration":617003,"Delta":292220494},{"NoteNumber":84,"Velocity":61,"Duration":155440,"SoundDuration":155440,"Delta":292220494},{"NoteNumber":62,"Velocity":46,"Duration":923125,"SoundDuration":923125,"Delta":292220494},{"NoteNumber":86,"Velocity":61,"Duration":51813,"SoundDuration":51813,"Delta":292375934},{"NoteNumber":84,"Velocity":61,"Duration":51813,"SoundDuration":51813,"Delta":292427748},{"NoteNumber":83,"Velocity":61,"Duration":51813,"SoundDuration":51813,"Delta":292479561},{"NoteNumber":84,"Velocity":63,"Duration":306122,"SoundDuration":306122,"Delta":292531375},{"NoteNumber":55,"Velocity":48,"Duration":1844755,"SoundDuration":1844755,"Delta":292531375},{"NoteNumber":79,"Velocity":60,"Duration":306122,"SoundDuration":306122,"Delta":292837497},{"NoteNumber":83,"Velocity":60,"Duration":306122,"SoundDuration":306122,"Delta":292837497},{"NoteNumber":86,"Velocity":59,"Duration":229591,"SoundDuration":229591,"Delta":293143620},{"NoteNumber":65,"Velocity":44,"Duration":306122,"SoundDuration":306122,"Delta":293143620},{"NoteNumber":88,"Velocity":50,"Duration":76530,"SoundDuration":76530,"Delta":293373212},{"NoteNumber":86,"Velocity":59,"Duration":153061,"SoundDuration":153061,"Delta":293449742},{"NoteNumber":64,"Velocity":41,"Duration":310129,"SoundDuration":310129,"Delta":293449742},{"NoteNumber":84,"Velocity":55,"Duration":58900,"SoundDuration":58900,"Delta":293602804},{"NoteNumber":86,"Velocity":49,"Duration":78533,"SoundDuration":78533,"Delta":293681338},{"NoteNumber":84,"Velocity":59,"Duration":152284,"SoundDuration":152284,"Delta":293759872},{"NoteNumber":62,"Velocity":41,"Duration":307724,"SoundDuration":307724,"Delta":293759872},{"NoteNumber":83,"Velocity":55,"Duration":58290,"SoundDuration":58290,"Delta":293912156},{"NoteNumber":84,"Velocity":50,"Duration":77720,"SoundDuration":77720,"Delta":293989876},{"NoteNumber":83,"Velocity":59,"Duration":152284,"SoundDuration":152284,"Delta":294067596},{"NoteNumber":60,"Velocity":41,"Duration":308534,"SoundDuration":308534,"Delta":294067596},{"NoteNumber":81,"Velocity":55,"Duration":58593,"SoundDuration":58593,"Delta":294219881},{"NoteNumber":83,"Velocity":50,"Duration":78125,"SoundDuration":78125,"Delta":294298006},{"NoteNumber":81,"Velocity":59,"Duration":154639,"SoundDuration":154639,"Delta":294376131},{"NoteNumber":55,"Velocity":41,"Duration":1610346,"SoundDuration":1610346,"Delta":294376131},{"NoteNumber":59,"Velocity":41,"Duration":313369,"SoundDuration":313369,"Delta":294376131},{"NoteNumber":79,"Velocity":55,"Duration":59523,"SoundDuration":59523,"Delta":294530770},{"NoteNumber":81,"Velocity":50,"Duration":79365,"SoundDuration":79365,"Delta":294610135},{"NoteNumber":79,"Velocity":59,"Duration":154639,"SoundDuration":154639,"Delta":294689500},{"NoteNumber":57,"Velocity":39,"Duration":313369,"SoundDuration":313369,"Delta":294689500},{"NoteNumber":78,"Velocity":54,"Duration":322664,"SoundDuration":322664,"Delta":294844139},{"NoteNumber":60,"Velocity":39,"Duration":327869,"SoundDuration":327869,"Delta":295002870},{"NoteNumber":81,"Velocity":59,"Duration":327869,"SoundDuration":327869,"Delta":295166804},{"NoteNumber":59,"Velocity":36,"Duration":327868,"SoundDuration":327868,"Delta":295330739},{"NoteNumber":79,"Velocity":56,"Duration":327869,"SoundDuration":327869,"Delta":295494673},{"NoteNumber":67,"Velocity":35,"Duration":998745,"SoundDuration":998745,"Delta":295658608},{"NoteNumber":76,"Velocity":52,"Duration":328019,"SoundDuration":328019,"Delta":295822542},{"NoteNumber":57,"Velocity":32,"Duration":335513,"SoundDuration":335513,"Delta":295986477},{"NoteNumber":73,"Velocity":47,"Duration":342856,"SoundDuration":342856,"Delta":296150561},{"NoteNumber":62,"Velocity":34,"Duration":1350421,"SoundDuration":1350421,"Delta":296321990},{"NoteNumber":74,"Velocity":39,"Duration":163934,"SoundDuration":163934,"Delta":296493418},{"NoteNumber":76,"Velocity":43,"Duration":163934,"SoundDuration":163934,"Delta":296657353},{"NoteNumber":66,"Velocity":32,"Duration":327869,"SoundDuration":327869,"Delta":296657353},{"NoteNumber":74,"Velocity":39,"Duration":163934,"SoundDuration":163934,"Delta":296821287},{"NoteNumber":76,"Velocity":43,"Duration":163934,"SoundDuration":163934,"Delta":296985222},{"NoteNumber":66,"Velocity":32,"Duration":338352,"SoundDuration":338352,"Delta":296985222},{"NoteNumber":74,"Velocity":39,"Duration":174418,"SoundDuration":174418,"Delta":297149156},{"NoteNumber":74,"Velocity":39,"Duration":348837,"SoundDuration":348837,"Delta":297323575},{"NoteNumber":66,"Velocity":29,"Duration":348837,"SoundDuration":348837,"Delta":297323575},{"NoteNumber":67,"Velocity":44,"Duration":335195,"SoundDuration":335195,"Delta":298021249},{"NoteNumber":55,"Velocity":34,"Duration":335195,"SoundDuration":335195,"Delta":298021249},{"NoteNumber":59,"Velocity":34,"Duration":335195,"SoundDuration":335195,"Delta":298021249},{"NoteNumber":67,"Velocity":45,"Duration":552631,"SoundDuration":552631,"Delta":298356444},{"NoteNumber":55,"Velocity":36,"Duration":631578,"SoundDuration":631578,"Delta":298356444},{"NoteNumber":59,"Velocity":36,"Duration":631578,"SoundDuration":631578,"Delta":298356444},{"NoteNumber":71,"Velocity":42,"Duration":78947,"SoundDuration":78947,"Delta":298909076},{"NoteNumber":69,"Velocity":45,"Duration":322580,"SoundDuration":322580,"Delta":298988023},{"NoteNumber":55,"Velocity":32,"Duration":322580,"SoundDuration":322580,"Delta":298988023},{"NoteNumber":60,"Velocity":32,"Duration":322580,"SoundDuration":322580,"Delta":298988023},{"NoteNumber":62,"Velocity":45,"Duration":309278,"SoundDuration":309278,"Delta":299310604},{"NoteNumber":55,"Velocity":34,"Duration":605827,"SoundDuration":605827,"Delta":299310604},{"NoteNumber":60,"Velocity":34,"Duration":605827,"SoundDuration":605827,"Delta":299310604},{"NoteNumber":66,"Velocity":48,"Duration":148514,"SoundDuration":148514,"Delta":299619882},{"NoteNumber":64,"Velocity":45,"Duration":135898,"SoundDuration":135898,"Delta":299768397},{"NoteNumber":67,"Velocity":52,"Duration":147783,"SoundDuration":147783,"Delta":299916431},{"NoteNumber":55,"Velocity":36,"Duration":297036,"SoundDuration":297036,"Delta":299916431},{"NoteNumber":60,"Velocity":36,"Duration":297036,"SoundDuration":297036,"Delta":299916431},{"NoteNumber":66,"Velocity":46,"Duration":136815,"SoundDuration":136815,"Delta":300064214},{"NoteNumber":69,"Velocity":52,"Duration":146341,"SoundDuration":146341,"Delta":300213468},{"NoteNumber":55,"Velocity":37,"Duration":583979,"SoundDuration":583979,"Delta":300213468},{"NoteNumber":59,"Velocity":37,"Duration":583979,"SoundDuration":583979,"Delta":300213468},{"NoteNumber":67,"Velocity":46,"Duration":135467,"SoundDuration":135467,"Delta":300359810},{"NoteNumber":72,"Velocity":54,"Duration":144927,"SoundDuration":144927,"Delta":300507593},{"NoteNumber":71,"Velocity":51,"Duration":132850,"SoundDuration":132850,"Delta":300652520},{"NoteNumber":74,"Velocity":55,"Duration":145630,"SoundDuration":145630,"Delta":300797448},{"NoteNumber":55,"Velocity":30,"Duration":298692,"SoundDuration":298692,"Delta":300797448},{"NoteNumber":59,"Velocity":30,"Duration":298692,"SoundDuration":298692,"Delta":300797448},{"NoteNumber":71,"Velocity":51,"Duration":140306,"SoundDuration":140306,"Delta":300943079},{"NoteNumber":67,"Velocity":49,"Duration":597014,"SoundDuration":597014,"Delta":301096140},{"NoteNumber":55,"Velocity":33,"Duration":597014,"SoundDuration":597014,"Delta":301096140},{"NoteNumber":59,"Velocity":33,"Duration":597014,"SoundDuration":597014,"Delta":301096140},{"NoteNumber":62,"Velocity":51,"Duration":292216,"SoundDuration":292216,"Delta":301693155},{"NoteNumber":69,"Velocity":51,"Duration":292216,"SoundDuration":292216,"Delta":301693155},{"NoteNumber":54,"Velocity":44,"Duration":292216,"SoundDuration":292216,"Delta":301693155},{"NoteNumber":62,"Velocity":51,"Duration":914122,"SoundDuration":914122,"Delta":301985371},{"NoteNumber":70,"Velocity":51,"Duration":148538,"SoundDuration":148538,"Delta":301985371},{"NoteNumber":55,"Velocity":40,"Duration":148538,"SoundDuration":148538,"Delta":301985371},{"NoteNumber":71,"Velocity":54,"Duration":145058,"SoundDuration":145058,"Delta":302133910},{"NoteNumber":56,"Velocity":44,"Duration":145058,"SoundDuration":145058,"Delta":302133910},{"NoteNumber":72,"Velocity":58,"Duration":141501,"SoundDuration":141501,"Delta":302278969},{"NoteNumber":57,"Velocity":47,"Duration":141501,"SoundDuration":141501,"Delta":302278969},{"NoteNumber":73,"Velocity":61,"Duration":138114,"SoundDuration":138114,"Delta":302420471},{"NoteNumber":58,"Velocity":50,"Duration":138114,"SoundDuration":138114,"Delta":302420471},{"NoteNumber":74,"Velocity":64,"Duration":340909,"SoundDuration":340909,"Delta":302558585},{"NoteNumber":59,"Velocity":55,"Duration":340909,"SoundDuration":340909,"Delta":302558585},{"NoteNumber":66,"Velocity":55,"Duration":628295,"SoundDuration":628295,"Delta":302899494},{"NoteNumber":62,"Velocity":55,"Duration":944084,"SoundDuration":944084,"Delta":302899494},{"NoteNumber":74,"Velocity":55,"Duration":319148,"SoundDuration":319148,"Delta":302899494},{"NoteNumber":57,"Velocity":50,"Duration":628295,"SoundDuration":628295,"Delta":302899494},{"NoteNumber":72,"Velocity":56,"Duration":309146,"SoundDuration":309146,"Delta":303218643},{"NoteNumber":67,"Velocity":51,"Duration":315789,"SoundDuration":315789,"Delta":303527790},{"NoteNumber":71,"Velocity":51,"Duration":315789,"SoundDuration":315789,"Delta":303527790},{"NoteNumber":55,"Velocity":48,"Duration":315789,"SoundDuration":315789,"Delta":303527790},{"NoteNumber":67,"Velocity":56,"Duration":306122,"SoundDuration":306122,"Delta":303843579},{"NoteNumber":71,"Velocity":56,"Duration":306122,"SoundDuration":306122,"Delta":303843579},{"NoteNumber":50,"Velocity":51,"Duration":458406,"SoundDuration":458406,"Delta":303843579},{"NoteNumber":66,"Velocity":54,"Duration":304568,"SoundDuration":304568,"Delta":304149702},{"NoteNumber":69,"Velocity":54,"Duration":304568,"SoundDuration":304568,"Delta":304149702},{"NoteNumber":52,"Velocity":49,"Duration":76142,"SoundDuration":76142,"Delta":304301986},{"NoteNumber":54,"Velocity":50,"Duration":76142,"SoundDuration":76142,"Delta":304378128},{"NoteNumber":66,"Velocity":54,"Duration":304568,"SoundDuration":304568,"Delta":304454270},{"NoteNumber":69,"Velocity":54,"Duration":304568,"SoundDuration":304568,"Delta":304454270},{"NoteNumber":55,"Velocity":52,"Duration":76142,"SoundDuration":76142,"Delta":304454270},{"NoteNumber":57,"Velocity":54,"Duration":76142,"SoundDuration":76142,"Delta":304530412},{"NoteNumber":59,"Velocity":55,"Duration":76142,"SoundDuration":76142,"Delta":304606554},{"NoteNumber":61,"Velocity":55,"Duration":76142,"SoundDuration":76142,"Delta":304682696},{"NoteNumber":66,"Velocity":54,"Duration":621761,"SoundDuration":621761,"Delta":304758839},{"NoteNumber":69,"Velocity":54,"Duration":621761,"SoundDuration":621761,"Delta":304758839},{"NoteNumber":62,"Velocity":57,"Duration":310880,"SoundDuration":310880,"Delta":304758839},{"NoteNumber":60,"Velocity":52,"Duration":310880,"SoundDuration":310880,"Delta":305069720},{"NoteNumber":68,"Velocity":55,"Duration":307692,"SoundDuration":307692,"Delta":305380601},{"NoteNumber":71,"Velocity":55,"Duration":307692,"SoundDuration":307692,"Delta":305380601},{"NoteNumber":59,"Velocity":52,"Duration":307692,"SoundDuration":307692,"Delta":305380601},{"NoteNumber":72,"Velocity":61,"Duration":76923,"SoundDuration":76923,"Delta":305688293},{"NoteNumber":57,"Velocity":48,"Duration":615385,"SoundDuration":615385,"Delta":305688293},{"NoteNumber":69,"Velocity":61,"Duration":76923,"SoundDuration":76923,"Delta":305765216},{"NoteNumber":71,"Velocity":62,"Duration":76923,"SoundDuration":76923,"Delta":305842139},{"NoteNumber":72,"Velocity":63,"Duration":76923,"SoundDuration":76923,"Delta":305919062},{"NoteNumber":74,"Velocity":64,"Duration":76923,"SoundDuration":76923,"Delta":305995986},{"NoteNumber":76,"Velocity":65,"Duration":76923,"SoundDuration":76923,"Delta":306072909},{"NoteNumber":78,"Velocity":66,"Duration":76923,"SoundDuration":76923,"Delta":306149832},{"NoteNumber":80,"Velocity":66,"Duration":76923,"SoundDuration":76923,"Delta":306226755},{"NoteNumber":81,"Velocity":67,"Duration":78125,"SoundDuration":78125,"Delta":306303678},{"NoteNumber":55,"Velocity":46,"Duration":312500,"SoundDuration":312500,"Delta":306303678},{"NoteNumber":83,"Velocity":68,"Duration":78125,"SoundDuration":78125,"Delta":306381803},{"NoteNumber":84,"Velocity":70,"Duration":78125,"SoundDuration":78125,"Delta":306459928},{"NoteNumber":86,"Velocity":71,"Duration":78125,"SoundDuration":78125,"Delta":306538053},{"NoteNumber":84,"Velocity":72,"Duration":317460,"SoundDuration":317460,"Delta":306616178},{"NoteNumber":88,"Velocity":72,"Duration":317460,"SoundDuration":317460,"Delta":306616178},{"NoteNumber":54,"Velocity":48,"Duration":945802,"SoundDuration":945802,"Delta":306616178},{"NoteNumber":83,"Velocity":61,"Duration":317460,"SoundDuration":317460,"Delta":306933639},{"NoteNumber":86,"Velocity":61,"Duration":317460,"SoundDuration":317460,"Delta":306933639},{"NoteNumber":81,"Velocity":61,"Duration":617003,"SoundDuration":617003,"Delta":307251099},{"NoteNumber":84,"Velocity":61,"Duration":155440,"SoundDuration":155440,"Delta":307251099},{"NoteNumber":62,"Velocity":46,"Duration":923125,"SoundDuration":923125,"Delta":307251099},{"NoteNumber":86,"Velocity":61,"Duration":51813,"SoundDuration":51813,"Delta":307406540},{"NoteNumber":84,"Velocity":61,"Duration":51813,"SoundDuration":51813,"Delta":307458353},{"NoteNumber":83,"Velocity":61,"Duration":51813,"SoundDuration":51813,"Delta":307510167},{"NoteNumber":84,"Velocity":63,"Duration":306122,"SoundDuration":306122,"Delta":307561980},{"NoteNumber":55,"Velocity":48,"Duration":1844755,"SoundDuration":1844755,"Delta":307561980},{"NoteNumber":79,"Velocity":60,"Duration":306122,"SoundDuration":306122,"Delta":307868103},{"NoteNumber":83,"Velocity":60,"Duration":306122,"SoundDuration":306122,"Delta":307868103},{"NoteNumber":86,"Velocity":59,"Duration":229591,"SoundDuration":229591,"Delta":308174225},{"NoteNumber":65,"Velocity":44,"Duration":306122,"SoundDuration":306122,"Delta":308174225},{"NoteNumber":88,"Velocity":50,"Duration":76530,"SoundDuration":76530,"Delta":308403817},{"NoteNumber":86,"Velocity":59,"Duration":153061,"SoundDuration":153061,"Delta":308480348},{"NoteNumber":64,"Velocity":41,"Duration":310129,"SoundDuration":310129,"Delta":308480348},{"NoteNumber":84,"Velocity":55,"Duration":58900,"SoundDuration":58900,"Delta":308633409},{"NoteNumber":86,"Velocity":49,"Duration":78533,"SoundDuration":78533,"Delta":308711943},{"NoteNumber":84,"Velocity":59,"Duration":152284,"SoundDuration":152284,"Delta":308790477},{"NoteNumber":62,"Velocity":41,"Duration":307724,"SoundDuration":307724,"Delta":308790477},{"NoteNumber":83,"Velocity":55,"Duration":58290,"SoundDuration":58290,"Delta":308942761},{"NoteNumber":84,"Velocity":50,"Duration":77720,"SoundDuration":77720,"Delta":309020481},{"NoteNumber":83,"Velocity":59,"Duration":152284,"SoundDuration":152284,"Delta":309098202},{"NoteNumber":60,"Velocity":41,"Duration":308534,"SoundDuration":308534,"Delta":309098202},{"NoteNumber":81,"Velocity":55,"Duration":58593,"SoundDuration":58593,"Delta":309250486},{"NoteNumber":83,"Velocity":50,"Duration":78125,"SoundDuration":78125,"Delta":309328611},{"NoteNumber":81,"Velocity":59,"Duration":154639,"SoundDuration":154639,"Delta":309406736},{"NoteNumber":55,"Velocity":41,"Duration":1610346,"SoundDuration":1610346,"Delta":309406736},{"NoteNumber":59,"Velocity":41,"Duration":313369,"SoundDuration":313369,"Delta":309406736},{"NoteNumber":79,"Velocity":55,"Duration":59523,"SoundDuration":59523,"Delta":309561375},{"NoteNumber":81,"Velocity":50,"Duration":79365,"SoundDuration":79365,"Delta":309640740},{"NoteNumber":79,"Velocity":59,"Duration":154639,"SoundDuration":154639,"Delta":309720105},{"NoteNumber":57,"Velocity":39,"Duration":313369,"SoundDuration":313369,"Delta":309720105},{"NoteNumber":78,"Velocity":54,"Duration":322664,"SoundDuration":322664,"Delta":309874745},{"NoteNumber":60,"Velocity":39,"Duration":327869,"SoundDuration":327869,"Delta":310033475},{"NoteNumber":81,"Velocity":59,"Duration":327869,"SoundDuration":327869,"Delta":310197409},{"NoteNumber":59,"Velocity":36,"Duration":327868,"SoundDuration":327868,"Delta":310361344},{"NoteNumber":79,"Velocity":56,"Duration":327869,"SoundDuration":327869,"Delta":310525278},{"NoteNumber":67,"Velocity":35,"Duration":998745,"SoundDuration":998745,"Delta":310689213},{"NoteNumber":76,"Velocity":52,"Duration":328019,"SoundDuration":328019,"Delta":310853147},{"NoteNumber":57,"Velocity":32,"Duration":335513,"SoundDuration":335513,"Delta":311017082},{"NoteNumber":73,"Velocity":47,"Duration":342856,"SoundDuration":342856,"Delta":311181166},{"NoteNumber":62,"Velocity":34,"Duration":1350421,"SoundDuration":1350421,"Delta":311352595},{"NoteNumber":74,"Velocity":39,"Duration":163934,"SoundDuration":163934,"Delta":311524023},{"NoteNumber":76,"Velocity":43,"Duration":163934,"SoundDuration":163934,"Delta":311687958},{"NoteNumber":66,"Velocity":32,"Duration":327869,"SoundDuration":327869,"Delta":311687958},{"NoteNumber":74,"Velocity":39,"Duration":163934,"SoundDuration":163934,"Delta":311851892},{"NoteNumber":76,"Velocity":43,"Duration":163934,"SoundDuration":163934,"Delta":312015827},{"NoteNumber":66,"Velocity":32,"Duration":338352,"SoundDuration":338352,"Delta":312015827},{"NoteNumber":74,"Velocity":39,"Duration":174418,"SoundDuration":174418,"Delta":312179761},{"NoteNumber":74,"Velocity":39,"Duration":348837,"SoundDuration":348837,"Delta":312354180},{"NoteNumber":66,"Velocity":29,"Duration":348837,"SoundDuration":348837,"Delta":312354180},{"NoteNumber":79,"Velocity":43,"Duration":368097,"SoundDuration":368097,"Delta":313051854},{"NoteNumber":71,"Velocity":36,"Duration":368097,"SoundDuration":368097,"Delta":313051854},{"NoteNumber":74,"Velocity":36,"Duration":368097,"SoundDuration":368097,"Delta":313051854},{"NoteNumber":78,"Velocity":43,"Duration":161290,"SoundDuration":161290,"Delta":313419952},{"NoteNumber":71,"Velocity":39,"Duration":645160,"SoundDuration":645160,"Delta":313419952},{"NoteNumber":74,"Velocity":39,"Duration":645160,"SoundDuration":645160,"Delta":313419952},{"NoteNumber":79,"Velocity":43,"Duration":120967,"SoundDuration":120967,"Delta":313581242},{"NoteNumber":81,"Velocity":45,"Duration":161290,"SoundDuration":161290,"Delta":313742532},{"NoteNumber":79,"Velocity":43,"Duration":120967,"SoundDuration":120967,"Delta":313903823},{"NoteNumber":81,"Velocity":46,"Duration":157894,"SoundDuration":157894,"Delta":314065113},{"NoteNumber":72,"Velocity":36,"Duration":315789,"SoundDuration":315789,"Delta":314065113},{"NoteNumber":76,"Velocity":36,"Duration":315789,"SoundDuration":315789,"Delta":314065113},{"NoteNumber":79,"Velocity":43,"Duration":118421,"SoundDuration":118421,"Delta":314223008},{"NoteNumber":81,"Velocity":46,"Duration":157894,"SoundDuration":157894,"Delta":314380902},{"NoteNumber":71,"Velocity":40,"Duration":315789,"SoundDuration":315789,"Delta":314380902},{"NoteNumber":74,"Velocity":40,"Duration":315789,"SoundDuration":315789,"Delta":314380902},{"NoteNumber":79,"Velocity":43,"Duration":118421,"SoundDuration":118421,"Delta":314538797},{"NoteNumber":79,"Velocity":46,"Duration":156250,"SoundDuration":156250,"Delta":314696692},{"NoteNumber":69,"Velocity":36,"Duration":312500,"SoundDuration":312500,"Delta":314696692},{"NoteNumber":72,"Velocity":36,"Duration":312500,"SoundDuration":312500,"Delta":314696692},{"NoteNumber":78,"Velocity":43,"Duration":117187,"SoundDuration":117187,"Delta":314852942},{"NoteNumber":78,"Velocity":45,"Duration":156250,"SoundDuration":156250,"Delta":315009192},{"NoteNumber":67,"Velocity":36,"Duration":312500,"SoundDuration":312500,"Delta":315009192},{"NoteNumber":71,"Velocity":36,"Duration":312500,"SoundDuration":312500,"Delta":315009192},{"NoteNumber":76,"Velocity":43,"Duration":117187,"SoundDuration":117187,"Delta":315165442},{"NoteNumber":76,"Velocity":47,"Duration":157894,"SoundDuration":157894,"Delta":315321692},{"NoteNumber":66,"Velocity":41,"Duration":626670,"SoundDuration":626670,"Delta":315321692},{"NoteNumber":69,"Velocity":41,"Duration":626670,"SoundDuration":626670,"Delta":315321692},{"NoteNumber":74,"Velocity":45,"Duration":118421,"SoundDuration":118421,"Delta":315479587},{"NoteNumber":74,"Velocity":44,"Duration":77720,"SoundDuration":77720,"Delta":315637481},{"NoteNumber":74,"Velocity":45,"Duration":77720,"SoundDuration":77720,"Delta":315792922},{"NoteNumber":74,"Velocity":45,"Duration":77720,"SoundDuration":77720,"Delta":315948362},{"NoteNumber":66,"Velocity":36,"Duration":310880,"SoundDuration":310880,"Delta":315948362},{"NoteNumber":69,"Velocity":36,"Duration":310880,"SoundDuration":310880,"Delta":315948362},{"NoteNumber":74,"Velocity":46,"Duration":77720,"SoundDuration":77720,"Delta":316103803},{"NoteNumber":76,"Velocity":51,"Duration":155440,"SoundDuration":155440,"Delta":316259243},{"NoteNumber":66,"Velocity":45,"Duration":618573,"SoundDuration":618573,"Delta":316259243},{"NoteNumber":69,"Velocity":45,"Duration":618573,"SoundDuration":618573,"Delta":316259243},{"NoteNumber":75,"Velocity":47,"Duration":155440,"SoundDuration":155440,"Delta":316414684},{"NoteNumber":75,"Velocity":47,"Duration":76923,"SoundDuration":76923,"Delta":316570124},{"NoteNumber":75,"Velocity":47,"Duration":76923,"SoundDuration":76923,"Delta":316723971},{"NoteNumber":75,"Velocity":47,"Duration":76923,"SoundDuration":76923,"Delta":316877817},{"NoteNumber":66,"Velocity":43,"Duration":307692,"SoundDuration":307692,"Delta":316877817},{"NoteNumber":69,"Velocity":43,"Duration":307692,"SoundDuration":307692,"Delta":316877817},{"NoteNumber":75,"Velocity":47,"Duration":76923,"SoundDuration":76923,"Delta":317031663},{"NoteNumber":75,"Velocity":52,"Duration":156250,"SoundDuration":156250,"Delta":317185509},{"NoteNumber":67,"Velocity":49,"Duration":947916,"SoundDuration":947916,"Delta":317185509},{"NoteNumber":71,"Velocity":49,"Duration":947916,"SoundDuration":947916,"Delta":317185509},{"NoteNumber":76,"Velocity":49,"Duration":156250,"SoundDuration":156250,"Delta":317341759},{"NoteNumber":78,"Velocity":49,"Duration":156250,"SoundDuration":156250,"Delta":317498009},{"NoteNumber":76,"Velocity":49,"Duration":156250,"SoundDuration":156250,"Delta":317654259},{"NoteNumber":79,"Velocity":52,"Duration":156250,"SoundDuration":156250,"Delta":317810509},{"NoteNumber":78,"Velocity":49,"Duration":166666,"SoundDuration":166666,"Delta":317966759},{"NoteNumber":81,"Velocity":50,"Duration":156250,"SoundDuration":156250,"Delta":318133426},{"NoteNumber":57,"Velocity":44,"Duration":938741,"SoundDuration":938741,"Delta":318133426},{"NoteNumber":64,"Velocity":44,"Duration":938741,"SoundDuration":938741,"Delta":318133426},{"NoteNumber":67,"Velocity":44,"Duration":938741,"SoundDuration":938741,"Delta":318133426},{"NoteNumber":79,"Velocity":51,"Duration":154639,"SoundDuration":154639,"Delta":318289676},{"NoteNumber":78,"Velocity":53,"Duration":154639,"SoundDuration":154639,"Delta":318444315},{"NoteNumber":76,"Velocity":54,"Duration":154639,"SoundDuration":154639,"Delta":318598955},{"NoteNumber":74,"Velocity":56,"Duration":154639,"SoundDuration":154639,"Delta":318753594},{"NoteNumber":73,"Velocity":59,"Duration":163934,"SoundDuration":163934,"Delta":318908233},{"NoteNumber":74,"Velocity":79,"Duration":154639,"SoundDuration":154639,"Delta":319072168},{"NoteNumber":86,"Velocity":65,"Duration":154639,"SoundDuration":154639,"Delta":319226807},{"NoteNumber":74,"Velocity":60,"Duration":77319,"SoundDuration":77319,"Delta":319381446},{"NoteNumber":54,"Velocity":46,"Duration":309278,"SoundDuration":309278,"Delta":319381446},{"NoteNumber":50,"Velocity":46,"Duration":309278,"SoundDuration":309278,"Delta":319381446},{"NoteNumber":74,"Velocity":60,"Duration":77319,"SoundDuration":77319,"Delta":319536085},{"NoteNumber":74,"Velocity":60,"Duration":77319,"SoundDuration":77319,"Delta":319690725},{"NoteNumber":55,"Velocity":47,"Duration":154639,"SoundDuration":154639,"Delta":319690725},{"NoteNumber":52,"Velocity":47,"Duration":154639,"SoundDuration":154639,"Delta":319690725},{"NoteNumber":74,"Velocity":60,"Duration":77319,"SoundDuration":77319,"Delta":319845364},{"NoteNumber":74,"Velocity":81,"Duration":154639,"SoundDuration":154639,"Delta":320000003},{"NoteNumber":86,"Velocity":65,"Duration":154639,"SoundDuration":154639,"Delta":320154642},{"NoteNumber":74,"Velocity":60,"Duration":77319,"SoundDuration":77319,"Delta":320309282},{"NoteNumber":57,"Velocity":45,"Duration":309278,"SoundDuration":309278,"Delta":320309282},{"NoteNumber":54,"Velocity":45,"Duration":309278,"SoundDuration":309278,"Delta":320309282},{"NoteNumber":74,"Velocity":60,"Duration":77319,"SoundDuration":77319,"Delta":320463921},{"NoteNumber":74,"Velocity":60,"Duration":77319,"SoundDuration":77319,"Delta":320618560},{"NoteNumber":55,"Velocity":46,"Duration":154639,"SoundDuration":154639,"Delta":320618560},{"NoteNumber":59,"Velocity":46,"Duration":154639,"SoundDuration":154639,"Delta":320618560},{"NoteNumber":74,"Velocity":60,"Duration":77319,"SoundDuration":77319,"Delta":320773199},{"NoteNumber":74,"Velocity":79,"Duration":83379,"SoundDuration":83379,"Delta":320927839},{"NoteNumber":78,"Velocity":57,"Duration":83379,"SoundDuration":83379,"Delta":321011218},{"NoteNumber":81,"Velocity":61,"Duration":83379,"SoundDuration":83379,"Delta":321094598},{"NoteNumber":86,"Velocity":55,"Duration":83379,"SoundDuration":83379,"Delta":321177978},{"NoteNumber":74,"Velocity":62,"Duration":77319,"SoundDuration":77319,"Delta":321261357},{"NoteNumber":57,"Velocity":46,"Duration":309278,"SoundDuration":309278,"Delta":321261357},{"NoteNumber":60,"Velocity":46,"Duration":309278,"SoundDuration":309278,"Delta":321261357},{"NoteNumber":74,"Velocity":57,"Duration":77319,"SoundDuration":77319,"Delta":321415996},{"NoteNumber":74,"Velocity":57,"Duration":77319,"SoundDuration":77319,"Delta":321570636},{"NoteNumber":55,"Velocity":47,"Duration":154639,"SoundDuration":154639,"Delta":321570636},{"NoteNumber":59,"Velocity":47,"Duration":154639,"SoundDuration":154639,"Delta":321570636},{"NoteNumber":74,"Velocity":57,"Duration":77319,"SoundDuration":77319,"Delta":321725275},{"NoteNumber":74,"Velocity":76,"Duration":83379,"SoundDuration":83379,"Delta":321879914},{"NoteNumber":78,"Velocity":54,"Duration":83379,"SoundDuration":83379,"Delta":321963294},{"NoteNumber":81,"Velocity":59,"Duration":83379,"SoundDuration":83379,"Delta":322046673},{"NoteNumber":86,"Velocity":52,"Duration":83379,"SoundDuration":83379,"Delta":322130053},{"NoteNumber":74,"Velocity":57,"Duration":77319,"SoundDuration":77319,"Delta":322213433},{"NoteNumber":54,"Velocity":44,"Duration":309278,"SoundDuration":309278,"Delta":322213433},{"NoteNumber":57,"Velocity":44,"Duration":309278,"SoundDuration":309278,"Delta":322213433},{"NoteNumber":74,"Velocity":57,"Duration":77319,"SoundDuration":77319,"Delta":322368072},{"NoteNumber":74,"Velocity":57,"Duration":77319,"SoundDuration":77319,"Delta":322522711},{"NoteNumber":55,"Velocity":44,"Duration":154639,"SoundDuration":154639,"Delta":322522711},{"NoteNumber":52,"Velocity":44,"Duration":154639,"SoundDuration":154639,"Delta":322522711},{"NoteNumber":74,"Velocity":57,"Duration":77319,"SoundDuration":77319,"Delta":322677350},{"NoteNumber":74,"Velocity":75,"Duration":154639,"SoundDuration":154639,"Delta":322831990},{"NoteNumber":50,"Velocity":44,"Duration":309278,"SoundDuration":309278,"Delta":322831990},{"NoteNumber":54,"Velocity":44,"Duration":309278,"SoundDuration":309278,"Delta":322831990},{"NoteNumber":86,"Velocity":59,"Duration":154639,"SoundDuration":154639,"Delta":322986629},{"NoteNumber":86,"Velocity":57,"Duration":77319,"SoundDuration":77319,"Delta":323141268},{"NoteNumber":66,"Velocity":43,"Duration":309278,"SoundDuration":309278,"Delta":323141268},{"NoteNumber":62,"Velocity":43,"Duration":309278,"SoundDuration":309278,"Delta":323141268},{"NoteNumber":86,"Velocity":57,"Duration":77319,"SoundDuration":77319,"Delta":323295907},{"NoteNumber":86,"Velocity":57,"Duration":77319,"SoundDuration":77319,"Delta":323450547},{"NoteNumber":67,"Velocity":41,"Duration":309278,"SoundDuration":309278,"Delta":323450547},{"NoteNumber":64,"Velocity":41,"Duration":309278,"SoundDuration":309278,"Delta":323450547},{"NoteNumber":86,"Velocity":57,"Duration":77319,"SoundDuration":77319,"Delta":323605186},{"NoteNumber":85,"Velocity":68,"Duration":154639,"SoundDuration":154639,"Delta":323759825},{"NoteNumber":86,"Velocity":59,"Duration":154639,"SoundDuration":154639,"Delta":323914464},{"NoteNumber":86,"Velocity":57,"Duration":77319,"SoundDuration":77319,"Delta":324069104},{"NoteNumber":69,"Velocity":42,"Duration":309278,"SoundDuration":309278,"Delta":324069104},{"NoteNumber":66,"Velocity":42,"Duration":309278,"SoundDuration":309278,"Delta":324069104},{"NoteNumber":86,"Velocity":57,"Duration":77319,"SoundDuration":77319,"Delta":324223743},{"NoteNumber":86,"Velocity":57,"Duration":77319,"SoundDuration":77319,"Delta":324378382},{"NoteNumber":67,"Velocity":41,"Duration":309278,"SoundDuration":309278,"Delta":324378382},{"NoteNumber":70,"Velocity":41,"Duration":309278,"SoundDuration":309278,"Delta":324378382},{"NoteNumber":86,"Velocity":57,"Duration":77319,"SoundDuration":77319,"Delta":324533021},{"NoteNumber":87,"Velocity":73,"Duration":154639,"SoundDuration":154639,"Delta":324687661},{"NoteNumber":86,"Velocity":59,"Duration":154639,"SoundDuration":154639,"Delta":324842300},{"NoteNumber":86,"Velocity":57,"Duration":76530,"SoundDuration":76530,"Delta":324996939},{"NoteNumber":72,"Velocity":40,"Duration":306122,"SoundDuration":306122,"Delta":324996939},{"NoteNumber":69,"Velocity":40,"Duration":306122,"SoundDuration":306122,"Delta":324996939},{"NoteNumber":86,"Velocity":57,"Duration":76530,"SoundDuration":76530,"Delta":325150000},{"NoteNumber":86,"Velocity":57,"Duration":76530,"SoundDuration":76530,"Delta":325303062},{"NoteNumber":70,"Velocity":36,"Duration":306122,"SoundDuration":306122,"Delta":325303062},{"NoteNumber":67,"Velocity":36,"Duration":306122,"SoundDuration":306122,"Delta":325303062},{"NoteNumber":86,"Velocity":57,"Duration":76530,"SoundDuration":76530,"Delta":325456123},{"NoteNumber":85,"Velocity":67,"Duration":154639,"SoundDuration":154639,"Delta":325609184},{"NoteNumber":86,"Velocity":59,"Duration":154639,"SoundDuration":154639,"Delta":325763823},{"NoteNumber":86,"Velocity":57,"Duration":77319,"SoundDuration":77319,"Delta":325918463},{"NoteNumber":69,"Velocity":37,"Duration":309278,"SoundDuration":309278,"Delta":325918463},{"NoteNumber":66,"Velocity":37,"Duration":309278,"SoundDuration":309278,"Delta":325918463},{"NoteNumber":86,"Velocity":57,"Duration":77319,"SoundDuration":77319,"Delta":326073102},{"NoteNumber":86,"Velocity":57,"Duration":77319,"SoundDuration":77319,"Delta":326227741},{"NoteNumber":64,"Velocity":36,"Duration":309278,"SoundDuration":309278,"Delta":326227741},{"NoteNumber":67,"Velocity":36,"Duration":309278,"SoundDuration":309278,"Delta":326227741},{"NoteNumber":86,"Velocity":57,"Duration":77319,"SoundDuration":77319,"Delta":326382380},{"NoteNumber":86,"Velocity":58,"Duration":78533,"SoundDuration":78533,"Delta":326537020},{"NoteNumber":62,"Velocity":37,"Duration":628271,"SoundDuration":628271,"Delta":326537020},{"NoteNumber":66,"Velocity":37,"Duration":628271,"SoundDuration":628271,"Delta":326537020},{"NoteNumber":86,"Velocity":58,"Duration":78533,"SoundDuration":78533,"Delta":326694088},{"NoteNumber":86,"Velocity":58,"Duration":78533,"SoundDuration":78533,"Delta":326851156},{"NoteNumber":86,"Velocity":57,"Duration":78533,"SoundDuration":78533,"Delta":327008224},{"NoteNumber":86,"Velocity":55,"Duration":78533,"SoundDuration":78533,"Delta":327165292},{"NoteNumber":86,"Velocity":55,"Duration":78533,"SoundDuration":78533,"Delta":327322360},{"NoteNumber":86,"Velocity":54,"Duration":162162,"SoundDuration":162162,"Delta":327479428},{"NoteNumber":86,"Velocity":52,"Duration":162162,"SoundDuration":162162,"Delta":327803752},{"NoteNumber":86,"Velocity":52,"Duration":162162,"SoundDuration":162162,"Delta":328128077},{"NoteNumber":84,"Velocity":51,"Duration":168539,"SoundDuration":168539,"Delta":328452401},{"NoteNumber":86,"Velocity":51,"Duration":168539,"SoundDuration":168539,"Delta":328452401},{"NoteNumber":84,"Velocity":49,"Duration":168539,"SoundDuration":168539,"Delta":328789480},{"NoteNumber":86,"Velocity":49,"Duration":168539,"SoundDuration":168539,"Delta":328789480},{"NoteNumber":84,"Velocity":49,"Duration":168539,"SoundDuration":168539,"Delta":329126558},{"NoteNumber":86,"Velocity":49,"Duration":168539,"SoundDuration":168539,"Delta":329126558},{"NoteNumber":84,"Velocity":46,"Duration":266272,"SoundDuration":266272,"Delta":329463637},{"NoteNumber":86,"Velocity":46,"Duration":266272,"SoundDuration":266272,"Delta":329463637},{"NoteNumber":81,"Velocity":33,"Duration":266272,"SoundDuration":266272,"Delta":329463637},{"NoteNumber":84,"Velocity":45,"Duration":266272,"SoundDuration":266272,"Delta":329818666},{"NoteNumber":86,"Velocity":45,"Duration":266272,"SoundDuration":266272,"Delta":329818666},{"NoteNumber":81,"Velocity":31,"Duration":266272,"SoundDuration":266272,"Delta":329818666},{"NoteNumber":84,"Velocity":45,"Duration":266272,"SoundDuration":266272,"Delta":330173696},{"NoteNumber":86,"Velocity":45,"Duration":266272,"SoundDuration":266272,"Delta":330173696},{"NoteNumber":81,"Velocity":31,"Duration":266272,"SoundDuration":266272,"Delta":330173696},{"NoteNumber":84,"Velocity":42,"Duration":370370,"SoundDuration":370370,"Delta":330528725},{"NoteNumber":86,"Velocity":42,"Duration":370370,"SoundDuration":370370,"Delta":330528725},{"NoteNumber":78,"Velocity":26,"Duration":370370,"SoundDuration":370370,"Delta":330528725},{"NoteNumber":81,"Velocity":26,"Duration":370370,"SoundDuration":370370,"Delta":330528725},{"NoteNumber":84,"Velocity":40,"Duration":370370,"SoundDuration":370370,"Delta":330899096},{"NoteNumber":86,"Velocity":40,"Duration":370370,"SoundDuration":370370,"Delta":330899096},{"NoteNumber":78,"Velocity":25,"Duration":370370,"SoundDuration":370370,"Delta":330899096},{"NoteNumber":81,"Velocity":25,"Duration":370370,"SoundDuration":370370,"Delta":330899096},{"NoteNumber":84,"Velocity":37,"Duration":483871,"SoundDuration":483871,"Delta":331269466},{"NoteNumber":86,"Velocity":37,"Duration":483871,"SoundDuration":483871,"Delta":331269466},{"NoteNumber":78,"Velocity":23,"Duration":483871,"SoundDuration":483871,"Delta":331269466},{"NoteNumber":81,"Velocity":23,"Duration":483871,"SoundDuration":483871,"Delta":331269466},{"NoteNumber":84,"Velocity":36,"Duration":1451612,"SoundDuration":1451612,"Delta":331753337},{"NoteNumber":86,"Velocity":36,"Duration":1451612,"SoundDuration":1451612,"Delta":331753337},{"NoteNumber":78,"Velocity":21,"Duration":1451612,"SoundDuration":1451612,"Delta":331753337},{"NoteNumber":81,"Velocity":21,"Duration":1451612,"SoundDuration":1451612,"Delta":331753337},{"NoteNumber":72,"Velocity":31,"Duration":512820,"SoundDuration":512820,"Delta":334316061},{"NoteNumber":74,"Velocity":31,"Duration":512820,"SoundDuration":512820,"Delta":334316061},{"NoteNumber":66,"Velocity":21,"Duration":512820,"SoundDuration":512820,"Delta":334316061},{"NoteNumber":69,"Velocity":21,"Duration":512820,"SoundDuration":512820,"Delta":334316061},{"NoteNumber":74,"Velocity":31,"Duration":1666666,"SoundDuration":1666666,"Delta":334828882},{"NoteNumber":72,"Velocity":31,"Duration":1666666,"SoundDuration":1666666,"Delta":334828882},{"NoteNumber":66,"Velocity":21,"Duration":1666666,"SoundDuration":1666666,"Delta":334828882},{"NoteNumber":69,"Velocity":21,"Duration":1666666,"SoundDuration":1666666,"Delta":334828882},{"NoteNumber":67,"Velocity":46,"Duration":346820,"SoundDuration":346820,"Delta":336495548},{"NoteNumber":55,"Velocity":38,"Duration":346820,"SoundDuration":346820,"Delta":336495548},{"NoteNumber":59,"Velocity":38,"Duration":346820,"SoundDuration":346820,"Delta":336495548},{"NoteNumber":67,"Velocity":49,"Duration":561497,"SoundDuration":561497,"Delta":336842369},{"NoteNumber":55,"Velocity":40,"Duration":641710,"SoundDuration":641710,"Delta":336842369},{"NoteNumber":59,"Velocity":40,"Duration":641710,"SoundDuration":641710,"Delta":336842369},{"NoteNumber":71,"Velocity":47,"Duration":80213,"SoundDuration":80213,"Delta":337403866},{"NoteNumber":69,"Velocity":47,"Duration":322580,"SoundDuration":322580,"Delta":337484080},{"NoteNumber":55,"Velocity":38,"Duration":322580,"SoundDuration":322580,"Delta":337484080},{"NoteNumber":60,"Velocity":38,"Duration":322580,"SoundDuration":322580,"Delta":337484080},{"NoteNumber":62,"Velocity":49,"Duration":314136,"SoundDuration":314136,"Delta":337806661},{"NoteNumber":55,"Velocity":40,"Duration":649331,"SoundDuration":649331,"Delta":337806661},{"NoteNumber":60,"Velocity":40,"Duration":649331,"SoundDuration":649331,"Delta":337806661},{"NoteNumber":64,"Velocity":45,"Duration":335195,"SoundDuration":335195,"Delta":338120797},{"NoteNumber":66,"Velocity":45,"Duration":167597,"SoundDuration":167597,"Delta":338455992},{"NoteNumber":55,"Velocity":38,"Duration":335195,"SoundDuration":335195,"Delta":338455992},{"NoteNumber":60,"Velocity":38,"Duration":335195,"SoundDuration":335195,"Delta":338455992},{"NoteNumber":67,"Velocity":45,"Duration":55865,"SoundDuration":55865,"Delta":338623590},{"NoteNumber":66,"Velocity":45,"Duration":55865,"SoundDuration":55865,"Delta":338665489},{"NoteNumber":64,"Velocity":45,"Duration":55865,"SoundDuration":55865,"Delta":338707389},{"NoteNumber":66,"Velocity":45,"Duration":55057,"SoundDuration":55057,"Delta":338749288},{"NoteNumber":67,"Velocity":46,"Duration":118421,"SoundDuration":118421,"Delta":338791188},{"NoteNumber":55,"Velocity":37,"Duration":118421,"SoundDuration":118421,"Delta":338791188},{"NoteNumber":59,"Velocity":37,"Duration":118421,"SoundDuration":118421,"Delta":338791188},{"NoteNumber":67,"Velocity":45,"Duration":118421,"SoundDuration":118421,"Delta":339106977},{"NoteNumber":55,"Velocity":36,"Duration":118421,"SoundDuration":118421,"Delta":339106977},{"NoteNumber":59,"Velocity":36,"Duration":118421,"SoundDuration":118421,"Delta":339106977},{"NoteNumber":67,"Velocity":45,"Duration":118421,"SoundDuration":118421,"Delta":339422767},{"NoteNumber":55,"Velocity":36,"Duration":118421,"SoundDuration":118421,"Delta":339422767},{"NoteNumber":59,"Velocity":36,"Duration":118421,"SoundDuration":118421,"Delta":339422767},{"NoteNumber":67,"Velocity":45,"Duration":636644,"SoundDuration":636644,"Delta":339738556},{"NoteNumber":55,"Velocity":36,"Duration":636644,"SoundDuration":636644,"Delta":339738556},{"NoteNumber":59,"Velocity":36,"Duration":636644,"SoundDuration":636644,"Delta":339738556},{"NoteNumber":62,"Velocity":56,"Duration":310880,"SoundDuration":310880,"Delta":340375201},{"NoteNumber":66,"Velocity":56,"Duration":310880,"SoundDuration":310880,"Delta":340375201},{"NoteNumber":69,"Velocity":56,"Duration":310880,"SoundDuration":310880,"Delta":340375201},{"NoteNumber":50,"Velocity":52,"Duration":310880,"SoundDuration":310880,"Delta":340375201},{"NoteNumber":62,"Velocity":60,"Duration":310880,"SoundDuration":310880,"Delta":340686082},{"NoteNumber":67,"Velocity":60,"Duration":310880,"SoundDuration":310880,"Delta":340686082},{"NoteNumber":71,"Velocity":60,"Duration":310880,"SoundDuration":310880,"Delta":340686082},{"NoteNumber":55,"Velocity":55,"Duration":310880,"SoundDuration":310880,"Delta":340686082},{"NoteNumber":59,"Velocity":55,"Duration":310880,"SoundDuration":310880,"Delta":340686082},{"NoteNumber":43,"Velocity":40,"Duration":400181,"SoundDuration":400181,"Delta":341238119},{"NoteNumber":47,"Velocity":43,"Duration":380020,"SoundDuration":380020,"Delta":341258280},{"NoteNumber":50,"Velocity":45,"Duration":359858,"SoundDuration":359858,"Delta":341278441},{"NoteNumber":55,"Velocity":49,"Duration":339697,"SoundDuration":339697,"Delta":341298603},{"NoteNumber":62,"Velocity":52,"Duration":319536,"SoundDuration":319536,"Delta":341318764},{"NoteNumber":67,"Velocity":54,"Duration":299374,"SoundDuration":299374,"Delta":341338925},{"NoteNumber":71,"Velocity":56,"Duration":279213,"SoundDuration":279213,"Delta":341359087},{"NoteNumber":74,"Velocity":60,"Duration":259052,"SoundDuration":259052,"Delta":341379248},{"NoteNumber":45,"Velocity":41,"Duration":745855,"SoundDuration":745855,"Delta":341638300},{"NoteNumber":48,"Velocity":44,"Duration":726324,"SoundDuration":726324,"Delta":341657831},{"NoteNumber":54,"Velocity":45,"Duration":706793,"SoundDuration":706793,"Delta":341677363},{"NoteNumber":57,"Velocity":49,"Duration":687261,"SoundDuration":687261,"Delta":341696894},{"NoteNumber":62,"Velocity":54,"Duration":667730,"SoundDuration":667730,"Delta":341716425},{"NoteNumber":66,"Velocity":56,"Duration":648199,"SoundDuration":648199,"Delta":341735956},{"NoteNumber":69,"Velocity":59,"Duration":628668,"SoundDuration":628668,"Delta":341755488},{"NoteNumber":72,"Velocity":61,"Duration":609136,"SoundDuration":609136,"Delta":341775019},{"NoteNumber":62,"Velocity":54,"Duration":310880,"SoundDuration":310880,"Delta":342384156},{"NoteNumber":67,"Velocity":54,"Duration":310880,"SoundDuration":310880,"Delta":342384156},{"NoteNumber":71,"Velocity":54,"Duration":310880,"SoundDuration":310880,"Delta":342384156},{"NoteNumber":47,"Velocity":48,"Duration":310880,"SoundDuration":310880,"Delta":342384156},{"NoteNumber":50,"Velocity":48,"Duration":310880,"SoundDuration":310880,"Delta":342384156},{"NoteNumber":55,"Velocity":48,"Duration":310880,"SoundDuration":310880,"Delta":342384156},{"NoteNumber":62,"Velocity":54,"Duration":77720,"SoundDuration":77720,"Delta":342695037},{"NoteNumber":64,"Velocity":54,"Duration":77720,"SoundDuration":77720,"Delta":342772757},{"NoteNumber":66,"Velocity":54,"Duration":77720,"SoundDuration":77720,"Delta":342850477},{"NoteNumber":67,"Velocity":54,"Duration":77720,"SoundDuration":77720,"Delta":342928198},{"NoteNumber":69,"Velocity":56,"Duration":77720,"SoundDuration":77720,"Delta":343005918},{"NoteNumber":71,"Velocity":59,"Duration":77720,"SoundDuration":77720,"Delta":343083638},{"NoteNumber":73,"Velocity":60,"Duration":77720,"SoundDuration":77720,"Delta":343161358},{"NoteNumber":74,"Velocity":61,"Duration":77720,"SoundDuration":77720,"Delta":343239079},{"NoteNumber":76,"Velocity":63,"Duration":86208,"SoundDuration":86208,"Delta":343316799},{"NoteNumber":78,"Velocity":63,"Duration":88067,"SoundDuration":88067,"Delta":343403008},{"NoteNumber":79,"Velocity":64,"Duration":44731,"SoundDuration":44731,"Delta":343491075},{"NoteNumber":81,"Velocity":65,"Duration":45273,"SoundDuration":45273,"Delta":343535807},{"NoteNumber":83,"Velocity":66,"Duration":45825,"SoundDuration":45825,"Delta":343581080},{"NoteNumber":85,"Velocity":69,"Duration":46393,"SoundDuration":46393,"Delta":343626905},{"NoteNumber":86,"Velocity":84,"Duration":944882,"SoundDuration":944882,"Delta":343673299},{"NoteNumber":38,"Velocity":45,"Duration":944882,"SoundDuration":944882,"Delta":343673299},{"NoteNumber":42,"Velocity":45,"Duration":944882,"SoundDuration":944882,"Delta":343673299},{"NoteNumber":45,"Velocity":45,"Duration":944882,"SoundDuration":944882,"Delta":343673299},{"NoteNumber":50,"Velocity":53,"Duration":944882,"SoundDuration":944882,"Delta":343673299},{"NoteNumber":68,"Velocity":43,"Duration":344827,"SoundDuration":344827,"Delta":344618181},{"NoteNumber":71,"Velocity":43,"Duration":344827,"SoundDuration":344827,"Delta":344618181},{"NoteNumber":64,"Velocity":26,"Duration":344827,"SoundDuration":344827,"Delta":344618181},{"NoteNumber":69,"Velocity":45,"Duration":340909,"SoundDuration":340909,"Delta":344963008},{"NoteNumber":72,"Velocity":45,"Duration":340909,"SoundDuration":340909,"Delta":344963008},{"NoteNumber":60,"Velocity":27,"Duration":340909,"SoundDuration":340909,"Delta":344963008},{"NoteNumber":71,"Velocity":45,"Duration":315789,"SoundDuration":315789,"Delta":345303917},{"NoteNumber":74,"Velocity":45,"Duration":315789,"SoundDuration":315789,"Delta":345303917},{"NoteNumber":59,"Velocity":27,"Duration":315789,"SoundDuration":315789,"Delta":345303917},{"NoteNumber":72,"Velocity":40,"Duration":177514,"SoundDuration":177514,"Delta":345619707},{"NoteNumber":76,"Velocity":40,"Duration":177514,"SoundDuration":177514,"Delta":345619707},{"NoteNumber":57,"Velocity":27,"Duration":177514,"SoundDuration":177514,"Delta":345619707},{"NoteNumber":72,"Velocity":36,"Duration":361446,"SoundDuration":361446,"Delta":345974736},{"NoteNumber":76,"Velocity":36,"Duration":361446,"SoundDuration":361446,"Delta":345974736},{"NoteNumber":57,"Velocity":25,"Duration":361446,"SoundDuration":361446,"Delta":345974736},{"NoteNumber":66,"Velocity":45,"Duration":346820,"SoundDuration":346820,"Delta":346708853},{"NoteNumber":69,"Velocity":45,"Duration":346820,"SoundDuration":346820,"Delta":346708853},{"NoteNumber":62,"Velocity":28,"Duration":346820,"SoundDuration":346820,"Delta":346708853},{"NoteNumber":67,"Velocity":47,"Duration":338206,"SoundDuration":338206,"Delta":347055674},{"NoteNumber":71,"Velocity":47,"Duration":338206,"SoundDuration":338206,"Delta":347055674},{"NoteNumber":59,"Velocity":29,"Duration":338206,"SoundDuration":338206,"Delta":347055674},{"NoteNumber":69,"Velocity":46,"Duration":315789,"SoundDuration":315789,"Delta":347393881},{"NoteNumber":72,"Velocity":46,"Duration":315789,"SoundDuration":315789,"Delta":347393881},{"NoteNumber":57,"Velocity":29,"Duration":315789,"SoundDuration":315789,"Delta":347393881},{"NoteNumber":71,"Velocity":41,"Duration":178571,"SoundDuration":178571,"Delta":347709670},{"NoteNumber":74,"Velocity":41,"Duration":178571,"SoundDuration":178571,"Delta":347709670},{"NoteNumber":55,"Velocity":26,"Duration":178571,"SoundDuration":178571,"Delta":347709670},{"NoteNumber":71,"Velocity":37,"Duration":359281,"SoundDuration":359281,"Delta":348066813},{"NoteNumber":74,"Velocity":37,"Duration":359281,"SoundDuration":359281,"Delta":348066813},{"NoteNumber":55,"Velocity":26,"Duration":359281,"SoundDuration":359281,"Delta":348066813},{"NoteNumber":67,"Velocity":39,"Duration":334144,"SoundDuration":334144,"Delta":348785376},{"NoteNumber":52,"Velocity":31,"Duration":334144,"SoundDuration":334144,"Delta":348785376},{"NoteNumber":69,"Velocity":43,"Duration":161146,"SoundDuration":161146,"Delta":349119521},{"NoteNumber":48,"Velocity":31,"Duration":161146,"SoundDuration":161146,"Delta":349119521},{"NoteNumber":71,"Velocity":44,"Duration":159433,"SoundDuration":159433,"Delta":349440953},{"NoteNumber":72,"Velocity":44,"Duration":157894,"SoundDuration":157894,"Delta":349758978},{"NoteNumber":62,"Velocity":44,"Duration":157894,"SoundDuration":157894,"Delta":350074767},{"NoteNumber":50,"Velocity":27,"Duration":157894,"SoundDuration":157894,"Delta":350074767},{"NoteNumber":64,"Velocity":42,"Duration":157894,"SoundDuration":157894,"Delta":350390557},{"NoteNumber":66,"Velocity":42,"Duration":157894,"SoundDuration":157894,"Delta":350706346},{"NoteNumber":55,"Velocity":36,"Duration":170454,"SoundDuration":170454,"Delta":351022136},{"NoteNumber":50,"Velocity":33,"Duration":170454,"SoundDuration":170454,"Delta":351363045},{"NoteNumber":47,"Velocity":33,"Duration":218977,"SoundDuration":218977,"Delta":351703954},{"NoteNumber":43,"Velocity":39,"Duration":547445,"SoundDuration":547445,"Delta":352032421},{"NoteNumber":47,"Velocity":42,"Duration":529196,"SoundDuration":529196,"Delta":352050669},{"NoteNumber":50,"Velocity":45,"Duration":364963,"SoundDuration":364963,"Delta":352068917},{"NoteNumber":55,"Velocity":47,"Duration":492700,"SoundDuration":492700,"Delta":352087165},{"NoteNumber":59,"Velocity":47,"Duration":474452,"SoundDuration":474452,"Delta":352105413},{"NoteNumber":62,"Velocity":51,"Duration":456204,"SoundDuration":456204,"Delta":352123661},{"NoteNumber":67,"Velocity":54,"Duration":437956,"SoundDuration":437956,"Delta":352141910},{"NoteNumber":79,"Velocity":43,"Duration":379747,"SoundDuration":379747,"Delta":353052307},{"NoteNumber":71,"Velocity":36,"Duration":379747,"SoundDuration":379747,"Delta":353052307},{"NoteNumber":74,"Velocity":36,"Duration":379747,"SoundDuration":379747,"Delta":353052307},{"NoteNumber":78,"Velocity":43,"Duration":161290,"SoundDuration":161290,"Delta":353432054},{"NoteNumber":71,"Velocity":39,"Duration":645160,"SoundDuration":645160,"Delta":353432054},{"NoteNumber":74,"Velocity":39,"Duration":645160,"SoundDuration":645160,"Delta":353432054},{"NoteNumber":79,"Velocity":43,"Duration":120967,"SoundDuration":120967,"Delta":353593344},{"NoteNumber":81,"Velocity":45,"Duration":161290,"SoundDuration":161290,"Delta":353754634},{"NoteNumber":79,"Velocity":43,"Duration":120967,"SoundDuration":120967,"Delta":353915924},{"NoteNumber":81,"Velocity":46,"Duration":157894,"SoundDuration":157894,"Delta":354077215},{"NoteNumber":72,"Velocity":36,"Duration":315789,"SoundDuration":315789,"Delta":354077215},{"NoteNumber":76,"Velocity":36,"Duration":315789,"SoundDuration":315789,"Delta":354077215},{"NoteNumber":79,"Velocity":43,"Duration":118421,"SoundDuration":118421,"Delta":354235109},{"NoteNumber":81,"Velocity":46,"Duration":157894,"SoundDuration":157894,"Delta":354393004},{"NoteNumber":71,"Velocity":40,"Duration":315789,"SoundDuration":315789,"Delta":354393004},{"NoteNumber":74,"Velocity":40,"Duration":315789,"SoundDuration":315789,"Delta":354393004},{"NoteNumber":79,"Velocity":43,"Duration":118421,"SoundDuration":118421,"Delta":354550899},{"NoteNumber":79,"Velocity":46,"Duration":156250,"SoundDuration":156250,"Delta":354708794},{"NoteNumber":69,"Velocity":36,"Duration":312500,"SoundDuration":312500,"Delta":354708794},{"NoteNumber":72,"Velocity":36,"Duration":312500,"SoundDuration":312500,"Delta":354708794},{"NoteNumber":78,"Velocity":43,"Duration":117187,"SoundDuration":117187,"Delta":354865044},{"NoteNumber":78,"Velocity":45,"Duration":156250,"SoundDuration":156250,"Delta":355021294},{"NoteNumber":67,"Velocity":36,"Duration":312500,"SoundDuration":312500,"Delta":355021294},{"NoteNumber":71,"Velocity":36,"Duration":312500,"SoundDuration":312500,"Delta":355021294},{"NoteNumber":76,"Velocity":43,"Duration":117187,"SoundDuration":117187,"Delta":355177544},{"NoteNumber":76,"Velocity":47,"Duration":157894,"SoundDuration":157894,"Delta":355333794},{"NoteNumber":66,"Velocity":41,"Duration":626670,"SoundDuration":626670,"Delta":355333794},{"NoteNumber":69,"Velocity":41,"Duration":626670,"SoundDuration":626670,"Delta":355333794},{"NoteNumber":74,"Velocity":45,"Duration":118421,"SoundDuration":118421,"Delta":355491688},{"NoteNumber":74,"Velocity":44,"Duration":77720,"SoundDuration":77720,"Delta":355649583},{"NoteNumber":74,"Velocity":45,"Duration":77720,"SoundDuration":77720,"Delta":355805024},{"NoteNumber":74,"Velocity":45,"Duration":77720,"SoundDuration":77720,"Delta":355960464},{"NoteNumber":66,"Velocity":36,"Duration":310880,"SoundDuration":310880,"Delta":355960464},{"NoteNumber":69,"Velocity":36,"Duration":310880,"SoundDuration":310880,"Delta":355960464},{"NoteNumber":74,"Velocity":46,"Duration":77720,"SoundDuration":77720,"Delta":356115905},{"NoteNumber":76,"Velocity":51,"Duration":155440,"SoundDuration":155440,"Delta":356271345},{"NoteNumber":66,"Velocity":45,"Duration":618573,"SoundDuration":618573,"Delta":356271345},{"NoteNumber":69,"Velocity":45,"Duration":618573,"SoundDuration":618573,"Delta":356271345},{"NoteNumber":75,"Velocity":47,"Duration":155440,"SoundDuration":155440,"Delta":356426786},{"NoteNumber":75,"Velocity":47,"Duration":76923,"SoundDuration":76923,"Delta":356582226},{"NoteNumber":75,"Velocity":47,"Duration":76923,"SoundDuration":76923,"Delta":356736072},{"NoteNumber":75,"Velocity":47,"Duration":76923,"SoundDuration":76923,"Delta":356889919},{"NoteNumber":66,"Velocity":43,"Duration":307692,"SoundDuration":307692,"Delta":356889919},{"NoteNumber":69,"Velocity":43,"Duration":307692,"SoundDuration":307692,"Delta":356889919},{"NoteNumber":75,"Velocity":47,"Duration":76923,"SoundDuration":76923,"Delta":357043765},{"NoteNumber":75,"Velocity":52,"Duration":156250,"SoundDuration":156250,"Delta":357197611},{"NoteNumber":67,"Velocity":49,"Duration":947916,"SoundDuration":947916,"Delta":357197611},{"NoteNumber":71,"Velocity":49,"Duration":947916,"SoundDuration":947916,"Delta":357197611},{"NoteNumber":76,"Velocity":49,"Duration":156250,"SoundDuration":156250,"Delta":357353861},{"NoteNumber":78,"Velocity":49,"Duration":156250,"SoundDuration":156250,"Delta":357510111},{"NoteNumber":76,"Velocity":49,"Duration":156250,"SoundDuration":156250,"Delta":357666361},{"NoteNumber":79,"Velocity":52,"Duration":156250,"SoundDuration":156250,"Delta":357822611},{"NoteNumber":78,"Velocity":49,"Duration":166666,"SoundDuration":166666,"Delta":357978861},{"NoteNumber":81,"Velocity":50,"Duration":156250,"SoundDuration":156250,"Delta":358145528},{"NoteNumber":57,"Velocity":44,"Duration":938741,"SoundDuration":938741,"Delta":358145528},{"NoteNumber":64,"Velocity":44,"Duration":938741,"SoundDuration":938741,"Delta":358145528},{"NoteNumber":67,"Velocity":44,"Duration":938741,"SoundDuration":938741,"Delta":358145528},{"NoteNumber":79,"Velocity":51,"Duration":154639,"SoundDuration":154639,"Delta":358301778},{"NoteNumber":78,"Velocity":52,"Duration":154639,"SoundDuration":154639,"Delta":358456417},{"NoteNumber":76,"Velocity":52,"Duration":154639,"SoundDuration":154639,"Delta":358611056},{"NoteNumber":74,"Velocity":53,"Duration":154639,"SoundDuration":154639,"Delta":358765696},{"NoteNumber":73,"Velocity":54,"Duration":163934,"SoundDuration":163934,"Delta":358920335},{"NoteNumber":74,"Velocity":76,"Duration":154639,"SoundDuration":154639,"Delta":359084269},{"NoteNumber":86,"Velocity":61,"Duration":154639,"SoundDuration":154639,"Delta":359238909},{"NoteNumber":74,"Velocity":57,"Duration":77319,"SoundDuration":77319,"Delta":359393548},{"NoteNumber":54,"Velocity":46,"Duration":309278,"SoundDuration":309278,"Delta":359393548},{"NoteNumber":50,"Velocity":46,"Duration":309278,"SoundDuration":309278,"Delta":359393548},{"NoteNumber":74,"Velocity":57,"Duration":77319,"SoundDuration":77319,"Delta":359548187},{"NoteNumber":74,"Velocity":57,"Duration":77319,"SoundDuration":77319,"Delta":359702826},{"NoteNumber":55,"Velocity":47,"Duration":154639,"SoundDuration":154639,"Delta":359702826},{"NoteNumber":52,"Velocity":47,"Duration":154639,"SoundDuration":154639,"Delta":359702826},{"NoteNumber":74,"Velocity":57,"Duration":77319,"SoundDuration":77319,"Delta":359857466},{"NoteNumber":74,"Velocity":77,"Duration":154639,"SoundDuration":154639,"Delta":360012105},{"NoteNumber":86,"Velocity":61,"Duration":154639,"SoundDuration":154639,"Delta":360166744},{"NoteNumber":74,"Velocity":57,"Duration":77319,"SoundDuration":77319,"Delta":360321383},{"NoteNumber":57,"Velocity":45,"Duration":309278,"SoundDuration":309278,"Delta":360321383},{"NoteNumber":54,"Velocity":45,"Duration":309278,"SoundDuration":309278,"Delta":360321383},{"NoteNumber":74,"Velocity":57,"Duration":77319,"SoundDuration":77319,"Delta":360476023},{"NoteNumber":74,"Velocity":57,"Duration":77319,"SoundDuration":77319,"Delta":360630662},{"NoteNumber":55,"Velocity":46,"Duration":154639,"SoundDuration":154639,"Delta":360630662},{"NoteNumber":59,"Velocity":46,"Duration":154639,"SoundDuration":154639,"Delta":360630662},{"NoteNumber":74,"Velocity":57,"Duration":77319,"SoundDuration":77319,"Delta":360785301},{"NoteNumber":74,"Velocity":75,"Duration":84316,"SoundDuration":84316,"Delta":360939940},{"NoteNumber":78,"Velocity":55,"Duration":84316,"SoundDuration":84316,"Delta":361024257},{"NoteNumber":81,"Velocity":61,"Duration":84316,"SoundDuration":84316,"Delta":361108574},{"NoteNumber":86,"Velocity":55,"Duration":84316,"SoundDuration":84316,"Delta":361192891},{"NoteNumber":74,"Velocity":57,"Duration":79652,"SoundDuration":79652,"Delta":361277208},{"NoteNumber":57,"Velocity":46,"Duration":311610,"SoundDuration":311610,"Delta":361277208},{"NoteNumber":60,"Velocity":46,"Duration":311610,"SoundDuration":311610,"Delta":361277208},{"NoteNumber":74,"Velocity":57,"Duration":77319,"SoundDuration":77319,"Delta":361434180},{"NoteNumber":74,"Velocity":57,"Duration":77319,"SoundDuration":77319,"Delta":361588819},{"NoteNumber":55,"Velocity":47,"Duration":154639,"SoundDuration":154639,"Delta":361588819},{"NoteNumber":59,"Velocity":47,"Duration":154639,"SoundDuration":154639,"Delta":361588819},{"NoteNumber":74,"Velocity":57,"Duration":77319,"SoundDuration":77319,"Delta":361743459},{"NoteNumber":74,"Velocity":73,"Duration":83845,"SoundDuration":83845,"Delta":361898098},{"NoteNumber":78,"Velocity":54,"Duration":83845,"SoundDuration":83845,"Delta":361981944},{"NoteNumber":81,"Velocity":60,"Duration":83845,"SoundDuration":83845,"Delta":362065789},{"NoteNumber":86,"Velocity":54,"Duration":83845,"SoundDuration":83845,"Delta":362149635},{"NoteNumber":74,"Velocity":57,"Duration":77319,"SoundDuration":77319,"Delta":362233481},{"NoteNumber":54,"Velocity":44,"Duration":309278,"SoundDuration":309278,"Delta":362233481},{"NoteNumber":57,"Velocity":44,"Duration":309278,"SoundDuration":309278,"Delta":362233481},{"NoteNumber":74,"Velocity":57,"Duration":77319,"SoundDuration":77319,"Delta":362388120},{"NoteNumber":74,"Velocity":57,"Duration":77319,"SoundDuration":77319,"Delta":362542759},{"NoteNumber":55,"Velocity":44,"Duration":154639,"SoundDuration":154639,"Delta":362542759},{"NoteNumber":52,"Velocity":44,"Duration":154639,"SoundDuration":154639,"Delta":362542759},{"NoteNumber":74,"Velocity":57,"Duration":77319,"SoundDuration":77319,"Delta":362697399},{"NoteNumber":74,"Velocity":72,"Duration":154639,"SoundDuration":154639,"Delta":362852038},{"NoteNumber":50,"Velocity":44,"Duration":309278,"SoundDuration":309278,"Delta":362852038},{"NoteNumber":54,"Velocity":44,"Duration":309278,"SoundDuration":309278,"Delta":362852038},{"NoteNumber":86,"Velocity":59,"Duration":154639,"SoundDuration":154639,"Delta":363006677},{"NoteNumber":86,"Velocity":57,"Duration":77319,"SoundDuration":77319,"Delta":363161316},{"NoteNumber":66,"Velocity":43,"Duration":309278,"SoundDuration":309278,"Delta":363161316},{"NoteNumber":62,"Velocity":43,"Duration":309278,"SoundDuration":309278,"Delta":363161316},{"NoteNumber":86,"Velocity":57,"Duration":77319,"SoundDuration":77319,"Delta":363315956},{"NoteNumber":86,"Velocity":57,"Duration":77319,"SoundDuration":77319,"Delta":363470595},{"NoteNumber":67,"Velocity":41,"Duration":309278,"SoundDuration":309278,"Delta":363470595},{"NoteNumber":64,"Velocity":41,"Duration":309278,"SoundDuration":309278,"Delta":363470595},{"NoteNumber":86,"Velocity":57,"Duration":77319,"SoundDuration":77319,"Delta":363625234},{"NoteNumber":85,"Velocity":65,"Duration":154639,"SoundDuration":154639,"Delta":363779873},{"NoteNumber":86,"Velocity":59,"Duration":154639,"SoundDuration":154639,"Delta":363934513},{"NoteNumber":86,"Velocity":57,"Duration":77319,"SoundDuration":77319,"Delta":364089152},{"NoteNumber":69,"Velocity":42,"Duration":309278,"SoundDuration":309278,"Delta":364089152},{"NoteNumber":66,"Velocity":42,"Duration":309278,"SoundDuration":309278,"Delta":364089152},{"NoteNumber":86,"Velocity":57,"Duration":77319,"SoundDuration":77319,"Delta":364243791},{"NoteNumber":86,"Velocity":57,"Duration":77319,"SoundDuration":77319,"Delta":364398430},{"NoteNumber":67,"Velocity":41,"Duration":309278,"SoundDuration":309278,"Delta":364398430},{"NoteNumber":70,"Velocity":41,"Duration":309278,"SoundDuration":309278,"Delta":364398430},{"NoteNumber":86,"Velocity":57,"Duration":77319,"SoundDuration":77319,"Delta":364553070},{"NoteNumber":87,"Velocity":72,"Duration":154639,"SoundDuration":154639,"Delta":364707709},{"NoteNumber":86,"Velocity":59,"Duration":154639,"SoundDuration":154639,"Delta":364862348},{"NoteNumber":86,"Velocity":57,"Duration":76530,"SoundDuration":76530,"Delta":365016987},{"NoteNumber":72,"Velocity":40,"Duration":306122,"SoundDuration":306122,"Delta":365016987},{"NoteNumber":69,"Velocity":40,"Duration":306122,"SoundDuration":306122,"Delta":365016987},{"NoteNumber":86,"Velocity":57,"Duration":76530,"SoundDuration":76530,"Delta":365170049},{"NoteNumber":86,"Velocity":57,"Duration":76530,"SoundDuration":76530,"Delta":365323110},{"NoteNumber":70,"Velocity":36,"Duration":306122,"SoundDuration":306122,"Delta":365323110},{"NoteNumber":67,"Velocity":36,"Duration":306122,"SoundDuration":306122,"Delta":365323110},{"NoteNumber":86,"Velocity":57,"Duration":76530,"SoundDuration":76530,"Delta":365476171},{"NoteNumber":85,"Velocity":68,"Duration":154639,"SoundDuration":154639,"Delta":365629232},{"NoteNumber":86,"Velocity":59,"Duration":154639,"SoundDuration":154639,"Delta":365783872},{"NoteNumber":86,"Velocity":57,"Duration":77319,"SoundDuration":77319,"Delta":365938511},{"NoteNumber":69,"Velocity":37,"Duration":309278,"SoundDuration":309278,"Delta":365938511},{"NoteNumber":66,"Velocity":37,"Duration":309278,"SoundDuration":309278,"Delta":365938511},{"NoteNumber":86,"Velocity":57,"Duration":77319,"SoundDuration":77319,"Delta":366093150},{"NoteNumber":86,"Velocity":57,"Duration":77319,"SoundDuration":77319,"Delta":366247789},{"NoteNumber":64,"Velocity":36,"Duration":309278,"SoundDuration":309278,"Delta":366247789},{"NoteNumber":67,"Velocity":36,"Duration":309278,"SoundDuration":309278,"Delta":366247789},{"NoteNumber":86,"Velocity":57,"Duration":77319,"SoundDuration":77319,"Delta":366402429},{"NoteNumber":86,"Velocity":58,"Duration":78533,"SoundDuration":78533,"Delta":366557068},{"NoteNumber":62,"Velocity":37,"Duration":628271,"SoundDuration":628271,"Delta":366557068},{"NoteNumber":66,"Velocity":37,"Duration":628271,"SoundDuration":628271,"Delta":366557068},{"NoteNumber":86,"Velocity":57,"Duration":78533,"SoundDuration":78533,"Delta":366714136},{"NoteNumber":86,"Velocity":56,"Duration":78533,"SoundDuration":78533,"Delta":366871204},{"NoteNumber":86,"Velocity":55,"Duration":78533,"SoundDuration":78533,"Delta":367028272},{"NoteNumber":86,"Velocity":54,"Duration":78533,"SoundDuration":78533,"Delta":367185340},{"NoteNumber":86,"Velocity":54,"Duration":78533,"SoundDuration":78533,"Delta":367342408},{"NoteNumber":86,"Velocity":54,"Duration":162162,"SoundDuration":162162,"Delta":367499476},{"NoteNumber":86,"Velocity":52,"Duration":162162,"SoundDuration":162162,"Delta":367823800},{"NoteNumber":86,"Velocity":52,"Duration":162162,"SoundDuration":162162,"Delta":368148125},{"NoteNumber":84,"Velocity":51,"Duration":168539,"SoundDuration":168539,"Delta":368472449},{"NoteNumber":86,"Velocity":51,"Duration":168539,"SoundDuration":168539,"Delta":368472449},{"NoteNumber":84,"Velocity":49,"Duration":168539,"SoundDuration":168539,"Delta":368809528},{"NoteNumber":86,"Velocity":49,"Duration":168539,"SoundDuration":168539,"Delta":368809528},{"NoteNumber":84,"Velocity":49,"Duration":168539,"SoundDuration":168539,"Delta":369146606},{"NoteNumber":86,"Velocity":49,"Duration":168539,"SoundDuration":168539,"Delta":369146606},{"NoteNumber":84,"Velocity":46,"Duration":266272,"SoundDuration":266272,"Delta":369483685},{"NoteNumber":86,"Velocity":46,"Duration":266272,"SoundDuration":266272,"Delta":369483685},{"NoteNumber":81,"Velocity":33,"Duration":266272,"SoundDuration":266272,"Delta":369483685},{"NoteNumber":84,"Velocity":45,"Duration":266272,"SoundDuration":266272,"Delta":369838714},{"NoteNumber":86,"Velocity":45,"Duration":266272,"SoundDuration":266272,"Delta":369838714},{"NoteNumber":81,"Velocity":31,"Duration":266272,"SoundDuration":266272,"Delta":369838714},{"NoteNumber":84,"Velocity":45,"Duration":266272,"SoundDuration":266272,"Delta":370193744},{"NoteNumber":86,"Velocity":45,"Duration":266272,"SoundDuration":266272,"Delta":370193744},{"NoteNumber":81,"Velocity":31,"Duration":266272,"SoundDuration":266272,"Delta":370193744},{"NoteNumber":84,"Velocity":42,"Duration":370370,"SoundDuration":370370,"Delta":370548773},{"NoteNumber":86,"Velocity":42,"Duration":370370,"SoundDuration":370370,"Delta":370548773},{"NoteNumber":78,"Velocity":26,"Duration":370370,"SoundDuration":370370,"Delta":370548773},{"NoteNumber":81,"Velocity":26,"Duration":370370,"SoundDuration":370370,"Delta":370548773},{"NoteNumber":84,"Velocity":40,"Duration":370370,"SoundDuration":370370,"Delta":370919144},{"NoteNumber":86,"Velocity":40,"Duration":370370,"SoundDuration":370370,"Delta":370919144},{"NoteNumber":78,"Velocity":25,"Duration":370370,"SoundDuration":370370,"Delta":370919144},{"NoteNumber":81,"Velocity":25,"Duration":370370,"SoundDuration":370370,"Delta":370919144},{"NoteNumber":84,"Velocity":37,"Duration":483871,"SoundDuration":483871,"Delta":371289514},{"NoteNumber":86,"Velocity":37,"Duration":483871,"SoundDuration":483871,"Delta":371289514},{"NoteNumber":78,"Velocity":23,"Duration":483871,"SoundDuration":483871,"Delta":371289514},{"NoteNumber":81,"Velocity":23,"Duration":483871,"SoundDuration":483871,"Delta":371289514},{"NoteNumber":84,"Velocity":36,"Duration":1451612,"SoundDuration":1451612,"Delta":371773385},{"NoteNumber":86,"Velocity":36,"Duration":1451612,"SoundDuration":1451612,"Delta":371773385},{"NoteNumber":78,"Velocity":21,"Duration":1451612,"SoundDuration":1451612,"Delta":371773385},{"NoteNumber":81,"Velocity":21,"Duration":1451612,"SoundDuration":1451612,"Delta":371773385},{"NoteNumber":72,"Velocity":31,"Duration":512820,"SoundDuration":512820,"Delta":374336109},{"NoteNumber":74,"Velocity":31,"Duration":512820,"SoundDuration":512820,"Delta":374336109},{"NoteNumber":66,"Velocity":21,"Duration":512820,"SoundDuration":512820,"Delta":374336109},{"NoteNumber":69,"Velocity":21,"Duration":512820,"SoundDuration":512820,"Delta":374336109},{"NoteNumber":74,"Velocity":31,"Duration":1666666,"SoundDuration":1666666,"Delta":374848930},{"NoteNumber":72,"Velocity":31,"Duration":1666666,"SoundDuration":1666666,"Delta":374848930},{"NoteNumber":66,"Velocity":21,"Duration":1666666,"SoundDuration":1666666,"Delta":374848930},{"NoteNumber":69,"Velocity":21,"Duration":1666666,"SoundDuration":1666666,"Delta":374848930},{"NoteNumber":67,"Velocity":46,"Duration":346820,"SoundDuration":346820,"Delta":376515596},{"NoteNumber":55,"Velocity":38,"Duration":346820,"SoundDuration":346820,"Delta":376515596},{"NoteNumber":59,"Velocity":38,"Duration":346820,"SoundDuration":346820,"Delta":376515596},{"NoteNumber":67,"Velocity":49,"Duration":561497,"SoundDuration":561497,"Delta":376862417},{"NoteNumber":55,"Velocity":40,"Duration":641710,"SoundDuration":641710,"Delta":376862417},{"NoteNumber":59,"Velocity":40,"Duration":641710,"SoundDuration":641710,"Delta":376862417},{"NoteNumber":71,"Velocity":47,"Duration":80213,"SoundDuration":80213,"Delta":377423914},{"NoteNumber":69,"Velocity":47,"Duration":322580,"SoundDuration":322580,"Delta":377504128},{"NoteNumber":55,"Velocity":38,"Duration":322580,"SoundDuration":322580,"Delta":377504128},{"NoteNumber":60,"Velocity":38,"Duration":322580,"SoundDuration":322580,"Delta":377504128},{"NoteNumber":62,"Velocity":49,"Duration":314136,"SoundDuration":314136,"Delta":377826709},{"NoteNumber":55,"Velocity":40,"Duration":649331,"SoundDuration":649331,"Delta":377826709},{"NoteNumber":60,"Velocity":40,"Duration":649331,"SoundDuration":649331,"Delta":377826709},{"NoteNumber":64,"Velocity":45,"Duration":335195,"SoundDuration":335195,"Delta":378140845},{"NoteNumber":66,"Velocity":45,"Duration":167597,"SoundDuration":167597,"Delta":378476040},{"NoteNumber":55,"Velocity":38,"Duration":335195,"SoundDuration":335195,"Delta":378476040},{"NoteNumber":60,"Velocity":38,"Duration":335195,"SoundDuration":335195,"Delta":378476040},{"NoteNumber":67,"Velocity":45,"Duration":41899,"SoundDuration":41899,"Delta":378643638},{"NoteNumber":66,"Velocity":45,"Duration":41899,"SoundDuration":41899,"Delta":378685537},{"NoteNumber":64,"Velocity":45,"Duration":41899,"SoundDuration":41899,"Delta":378727437},{"NoteNumber":66,"Velocity":45,"Duration":41899,"SoundDuration":41899,"Delta":378769336},{"NoteNumber":67,"Velocity":46,"Duration":118421,"SoundDuration":118421,"Delta":378811236},{"NoteNumber":55,"Velocity":37,"Duration":118421,"SoundDuration":118421,"Delta":378811236},{"NoteNumber":59,"Velocity":37,"Duration":118421,"SoundDuration":118421,"Delta":378811236},{"NoteNumber":67,"Velocity":45,"Duration":118421,"SoundDuration":118421,"Delta":379127025},{"NoteNumber":55,"Velocity":36,"Duration":118421,"SoundDuration":118421,"Delta":379127025},{"NoteNumber":59,"Velocity":36,"Duration":118421,"SoundDuration":118421,"Delta":379127025},{"NoteNumber":67,"Velocity":45,"Duration":118421,"SoundDuration":118421,"Delta":379442815},{"NoteNumber":55,"Velocity":36,"Duration":118421,"SoundDuration":118421,"Delta":379442815},{"NoteNumber":59,"Velocity":36,"Duration":118421,"SoundDuration":118421,"Delta":379442815},{"NoteNumber":67,"Velocity":45,"Duration":636644,"SoundDuration":636644,"Delta":379758604},{"NoteNumber":55,"Velocity":36,"Duration":636644,"SoundDuration":636644,"Delta":379758604},{"NoteNumber":59,"Velocity":36,"Duration":636644,"SoundDuration":636644,"Delta":379758604},{"NoteNumber":62,"Velocity":56,"Duration":310880,"SoundDuration":310880,"Delta":380395249},{"NoteNumber":66,"Velocity":56,"Duration":310880,"SoundDuration":310880,"Delta":380395249},{"NoteNumber":69,"Velocity":56,"Duration":310880,"SoundDuration":310880,"Delta":380395249},{"NoteNumber":50,"Velocity":52,"Duration":310880,"SoundDuration":310880,"Delta":380395249},{"NoteNumber":62,"Velocity":60,"Duration":310880,"SoundDuration":310880,"Delta":380706130},{"NoteNumber":67,"Velocity":60,"Duration":310880,"SoundDuration":310880,"Delta":380706130},{"NoteNumber":71,"Velocity":60,"Duration":310880,"SoundDuration":310880,"Delta":380706130},{"NoteNumber":55,"Velocity":55,"Duration":310880,"SoundDuration":310880,"Delta":380706130},{"NoteNumber":59,"Velocity":55,"Duration":310880,"SoundDuration":310880,"Delta":380706130},{"NoteNumber":43,"Velocity":43,"Duration":399224,"SoundDuration":399224,"Delta":381258167},{"NoteNumber":47,"Velocity":45,"Duration":379063,"SoundDuration":379063,"Delta":381278328},{"NoteNumber":50,"Velocity":47,"Duration":358901,"SoundDuration":358901,"Delta":381298489},{"NoteNumber":55,"Velocity":51,"Duration":338740,"SoundDuration":338740,"Delta":381318651},{"NoteNumber":62,"Velocity":52,"Duration":318579,"SoundDuration":318579,"Delta":381338812},{"NoteNumber":67,"Velocity":54,"Duration":298417,"SoundDuration":298417,"Delta":381358973},{"NoteNumber":71,"Velocity":57,"Duration":278256,"SoundDuration":278256,"Delta":381379135},{"NoteNumber":74,"Velocity":61,"Duration":258095,"SoundDuration":258095,"Delta":381399296},{"NoteNumber":45,"Velocity":42,"Duration":749136,"SoundDuration":749136,"Delta":381657391},{"NoteNumber":48,"Velocity":45,"Duration":729136,"SoundDuration":729136,"Delta":381677391},{"NoteNumber":54,"Velocity":46,"Duration":709136,"SoundDuration":709136,"Delta":381697391},{"NoteNumber":57,"Velocity":51,"Duration":689136,"SoundDuration":689136,"Delta":381717391},{"NoteNumber":62,"Velocity":53,"Duration":669136,"SoundDuration":669136,"Delta":381737391},{"NoteNumber":66,"Velocity":55,"Duration":649136,"SoundDuration":649136,"Delta":381757391},{"NoteNumber":69,"Velocity":57,"Duration":629136,"SoundDuration":629136,"Delta":381777391},{"NoteNumber":72,"Velocity":61,"Duration":609136,"SoundDuration":609136,"Delta":381797391},{"NoteNumber":62,"Velocity":54,"Duration":310880,"SoundDuration":310880,"Delta":382406528},{"NoteNumber":67,"Velocity":54,"Duration":310880,"SoundDuration":310880,"Delta":382406528},{"NoteNumber":71,"Velocity":54,"Duration":310880,"SoundDuration":310880,"Delta":382406528},{"NoteNumber":47,"Velocity":48,"Duration":310880,"SoundDuration":310880,"Delta":382406528},{"NoteNumber":50,"Velocity":48,"Duration":310880,"SoundDuration":310880,"Delta":382406528},{"NoteNumber":55,"Velocity":48,"Duration":310880,"SoundDuration":310880,"Delta":382406528},{"NoteNumber":62,"Velocity":54,"Duration":77720,"SoundDuration":77720,"Delta":382717409},{"NoteNumber":64,"Velocity":54,"Duration":77720,"SoundDuration":77720,"Delta":382795130},{"NoteNumber":66,"Velocity":54,"Duration":77720,"SoundDuration":77720,"Delta":382872850},{"NoteNumber":67,"Velocity":54,"Duration":77720,"SoundDuration":77720,"Delta":382950570},{"NoteNumber":69,"Velocity":56,"Duration":77720,"SoundDuration":77720,"Delta":383028290},{"NoteNumber":71,"Velocity":59,"Duration":77720,"SoundDuration":77720,"Delta":383106011},{"NoteNumber":73,"Velocity":60,"Duration":77720,"SoundDuration":77720,"Delta":383183731},{"NoteNumber":74,"Velocity":61,"Duration":77720,"SoundDuration":77720,"Delta":383261451},{"NoteNumber":76,"Velocity":63,"Duration":85393,"SoundDuration":85393,"Delta":383339171},{"NoteNumber":78,"Velocity":63,"Duration":88243,"SoundDuration":88243,"Delta":383424565},{"NoteNumber":79,"Velocity":64,"Duration":45091,"SoundDuration":45091,"Delta":383512808},{"NoteNumber":81,"Velocity":65,"Duration":45826,"SoundDuration":45826,"Delta":383557900},{"NoteNumber":83,"Velocity":66,"Duration":46779,"SoundDuration":46779,"Delta":383603726},{"NoteNumber":85,"Velocity":69,"Duration":47570,"SoundDuration":47570,"Delta":383650505},{"NoteNumber":86,"Velocity":84,"Duration":944882,"SoundDuration":944882,"Delta":383698076},{"NoteNumber":38,"Velocity":45,"Duration":944882,"SoundDuration":944882,"Delta":383698076},{"NoteNumber":42,"Velocity":45,"Duration":944882,"SoundDuration":944882,"Delta":383698076},{"NoteNumber":45,"Velocity":45,"Duration":944882,"SoundDuration":944882,"Delta":383698076},{"NoteNumber":50,"Velocity":53,"Duration":944882,"SoundDuration":944882,"Delta":383698076},{"NoteNumber":68,"Velocity":43,"Duration":344827,"SoundDuration":344827,"Delta":384642958},{"NoteNumber":71,"Velocity":43,"Duration":344827,"SoundDuration":344827,"Delta":384642958},{"NoteNumber":64,"Velocity":26,"Duration":344827,"SoundDuration":344827,"Delta":384642958},{"NoteNumber":69,"Velocity":45,"Duration":340909,"SoundDuration":340909,"Delta":384987785},{"NoteNumber":72,"Velocity":45,"Duration":340909,"SoundDuration":340909,"Delta":384987785},{"NoteNumber":60,"Velocity":27,"Duration":340909,"SoundDuration":340909,"Delta":384987785},{"NoteNumber":71,"Velocity":45,"Duration":319148,"SoundDuration":319148,"Delta":385328694},{"NoteNumber":74,"Velocity":45,"Duration":319148,"SoundDuration":319148,"Delta":385328694},{"NoteNumber":59,"Velocity":27,"Duration":319148,"SoundDuration":319148,"Delta":385328694},{"NoteNumber":72,"Velocity":40,"Duration":177514,"SoundDuration":177514,"Delta":385647843},{"NoteNumber":76,"Velocity":40,"Duration":177514,"SoundDuration":177514,"Delta":385647843},{"NoteNumber":57,"Velocity":27,"Duration":177514,"SoundDuration":177514,"Delta":385647843},{"NoteNumber":72,"Velocity":36,"Duration":361446,"SoundDuration":361446,"Delta":386002873},{"NoteNumber":76,"Velocity":36,"Duration":361446,"SoundDuration":361446,"Delta":386002873},{"NoteNumber":57,"Velocity":25,"Duration":361446,"SoundDuration":361446,"Delta":386002873},{"NoteNumber":66,"Velocity":45,"Duration":346820,"SoundDuration":346820,"Delta":386736990},{"NoteNumber":69,"Velocity":45,"Duration":346820,"SoundDuration":346820,"Delta":386736990},{"NoteNumber":62,"Velocity":28,"Duration":346820,"SoundDuration":346820,"Delta":386736990},{"NoteNumber":67,"Velocity":47,"Duration":338206,"SoundDuration":338206,"Delta":387083811},{"NoteNumber":71,"Velocity":47,"Duration":338206,"SoundDuration":338206,"Delta":387083811},{"NoteNumber":59,"Velocity":29,"Duration":338206,"SoundDuration":338206,"Delta":387083811},{"NoteNumber":69,"Velocity":46,"Duration":319148,"SoundDuration":319148,"Delta":387422018},{"NoteNumber":72,"Velocity":46,"Duration":319148,"SoundDuration":319148,"Delta":387422018},{"NoteNumber":57,"Velocity":29,"Duration":319148,"SoundDuration":319148,"Delta":387422018},{"NoteNumber":71,"Velocity":41,"Duration":178571,"SoundDuration":178571,"Delta":387741167},{"NoteNumber":74,"Velocity":41,"Duration":178571,"SoundDuration":178571,"Delta":387741167},{"NoteNumber":55,"Velocity":26,"Duration":178571,"SoundDuration":178571,"Delta":387741167},{"NoteNumber":71,"Velocity":37,"Duration":359281,"SoundDuration":359281,"Delta":388098310},{"NoteNumber":74,"Velocity":37,"Duration":359281,"SoundDuration":359281,"Delta":388098310},{"NoteNumber":55,"Velocity":26,"Duration":359281,"SoundDuration":359281,"Delta":388098310},{"NoteNumber":67,"Velocity":39,"Duration":334144,"SoundDuration":334144,"Delta":388816873},{"NoteNumber":52,"Velocity":31,"Duration":334144,"SoundDuration":334144,"Delta":388816873},{"NoteNumber":69,"Velocity":43,"Duration":161290,"SoundDuration":161290,"Delta":389151017},{"NoteNumber":48,"Velocity":31,"Duration":161290,"SoundDuration":161290,"Delta":389151017},{"NoteNumber":71,"Velocity":44,"Duration":159574,"SoundDuration":159574,"Delta":389472735},{"NoteNumber":72,"Velocity":44,"Duration":157894,"SoundDuration":157894,"Delta":389791040},{"NoteNumber":62,"Velocity":44,"Duration":161290,"SoundDuration":161290,"Delta":390106829},{"NoteNumber":50,"Velocity":27,"Duration":161290,"SoundDuration":161290,"Delta":390106829},{"NoteNumber":64,"Velocity":42,"Duration":161290,"SoundDuration":161290,"Delta":390429410},{"NoteNumber":66,"Velocity":42,"Duration":161290,"SoundDuration":161290,"Delta":390751990},{"NoteNumber":55,"Velocity":36,"Duration":178571,"SoundDuration":178571,"Delta":391074571},{"NoteNumber":50,"Velocity":33,"Duration":178571,"SoundDuration":178571,"Delta":391431714},{"NoteNumber":47,"Velocity":33,"Duration":240000,"SoundDuration":240000,"Delta":391788857},{"NoteNumber":43,"Velocity":39,"Duration":499747,"SoundDuration":499747,"Delta":392148857},{"NoteNumber":47,"Velocity":40,"Duration":479747,"SoundDuration":479747,"Delta":392168857},{"NoteNumber":50,"Velocity":45,"Duration":333164,"SoundDuration":333164,"Delta":392188857},{"NoteNumber":55,"Velocity":47,"Duration":439747,"SoundDuration":439747,"Delta":392208857},{"NoteNumber":59,"Velocity":50,"Duration":419747,"SoundDuration":419747,"Delta":392228857},{"NoteNumber":62,"Velocity":50,"Duration":399747,"SoundDuration":399747,"Delta":392248857},{"NoteNumber":67,"Velocity":55,"Duration":379747,"SoundDuration":379747,"Delta":392268857}]}