{"title":"Rhapsodie Nr. 9 - Pesther Karneval","artist":"Rhapsodie Nr. 9","durationMs":629045,"midiSha256":"fe11190fa2e39c2ba71e1a3c5f035f74dc45a7d4632d889abd80edc79f406ad7","midiObject":[{"NoteNumber":46,"Velocity":77,"Duration":133037,"SoundDuration":133037,"Delta":0},{"NoteNumber":34,"Velocity":61,"Duration":133037,"SoundDuration":133037,"Delta":0},{"NoteNumber":51,"Velocity":89,"Duration":931264,"SoundDuration":931264,"Delta":133038},{"NoteNumber":39,"Velocity":70,"Duration":931264,"SoundDuration":931264,"Delta":133038},{"NoteNumber":27,"Velocity":59,"Duration":931264,"SoundDuration":931264,"Delta":133038},{"NoteNumber":55,"Velocity":77,"Duration":133037,"SoundDuration":133037,"Delta":1064302},{"NoteNumber":43,"Velocity":61,"Duration":133037,"SoundDuration":133037,"Delta":1064302},{"NoteNumber":31,"Velocity":51,"Duration":133037,"SoundDuration":133037,"Delta":1064302},{"NoteNumber":56,"Velocity":83,"Duration":134831,"SoundDuration":134831,"Delta":1197340},{"NoteNumber":44,"Velocity":66,"Duration":134831,"SoundDuration":134831,"Delta":1197340},{"NoteNumber":32,"Velocity":56,"Duration":134831,"SoundDuration":134831,"Delta":1197340},{"NoteNumber":57,"Velocity":81,"Duration":138170,"SoundDuration":138170,"Delta":1736666},{"NoteNumber":45,"Velocity":64,"Duration":138170,"SoundDuration":138170,"Delta":1736666},{"NoteNumber":33,"Velocity":55,"Duration":138170,"SoundDuration":138170,"Delta":1736666},{"NoteNumber":58,"Velocity":89,"Duration":1035482,"SoundDuration":1035482,"Delta":2299364},{"NoteNumber":46,"Velocity":70,"Duration":1035482,"SoundDuration":1035482,"Delta":2299364},{"NoteNumber":34,"Velocity":59,"Duration":1035482,"SoundDuration":1035482,"Delta":2299364},{"NoteNumber":87,"Velocity":84,"Duration":129589,"SoundDuration":129589,"Delta":3334847},{"NoteNumber":82,"Velocity":70,"Duration":129589,"SoundDuration":129589,"Delta":3334847},{"NoteNumber":79,"Velocity":70,"Duration":129589,"SoundDuration":129589,"Delta":3334847},{"NoteNumber":75,"Velocity":70,"Duration":129589,"SoundDuration":129589,"Delta":3334847},{"NoteNumber":67,"Velocity":67,"Duration":129589,"SoundDuration":129589,"Delta":3334847},{"NoteNumber":63,"Velocity":56,"Duration":129589,"SoundDuration":129589,"Delta":3334847},{"NoteNumber":58,"Velocity":56,"Duration":129589,"SoundDuration":129589,"Delta":3334847},{"NoteNumber":55,"Velocity":56,"Duration":129589,"SoundDuration":129589,"Delta":3334847},{"NoteNumber":46,"Velocity":77,"Duration":129183,"SoundDuration":129183,"Delta":4241975},{"NoteNumber":34,"Velocity":61,"Duration":129183,"SoundDuration":129183,"Delta":4241975},{"NoteNumber":51,"Velocity":89,"Duration":925109,"SoundDuration":925109,"Delta":4371158},{"NoteNumber":39,"Velocity":70,"Duration":925109,"SoundDuration":925109,"Delta":4371158},{"NoteNumber":27,"Velocity":59,"Duration":925109,"SoundDuration":925109,"Delta":4371158},{"NoteNumber":55,"Velocity":77,"Duration":133952,"SoundDuration":133952,"Delta":5296268},{"NoteNumber":43,"Velocity":61,"Duration":133952,"SoundDuration":133952,"Delta":5296268},{"NoteNumber":31,"Velocity":50,"Duration":133952,"SoundDuration":133952,"Delta":5296268},{"NoteNumber":58,"Velocity":83,"Duration":135746,"SoundDuration":135746,"Delta":5430220},{"NoteNumber":46,"Velocity":67,"Duration":135746,"SoundDuration":135746,"Delta":5430220},{"NoteNumber":34,"Velocity":56,"Duration":135746,"SoundDuration":135746,"Delta":5430220},{"NoteNumber":60,"Velocity":81,"Duration":138568,"SoundDuration":138568,"Delta":5973206},{"NoteNumber":48,"Velocity":66,"Duration":138568,"SoundDuration":138568,"Delta":5973206},{"NoteNumber":36,"Velocity":55,"Duration":138568,"SoundDuration":138568,"Delta":5973206},{"NoteNumber":61,"Velocity":89,"Duration":1036717,"SoundDuration":1036717,"Delta":6527479},{"NoteNumber":49,"Velocity":70,"Duration":1036717,"SoundDuration":1036717,"Delta":6527479},{"NoteNumber":37,"Velocity":59,"Duration":1036717,"SoundDuration":1036717,"Delta":6527479},{"NoteNumber":91,"Velocity":85,"Duration":129589,"SoundDuration":129589,"Delta":7564197},{"NoteNumber":87,"Velocity":70,"Duration":129589,"SoundDuration":129589,"Delta":7564197},{"NoteNumber":82,"Velocity":70,"Duration":129589,"SoundDuration":129589,"Delta":7564197},{"NoteNumber":79,"Velocity":70,"Duration":129589,"SoundDuration":129589,"Delta":7564197},{"NoteNumber":70,"Velocity":67,"Duration":129589,"SoundDuration":129589,"Delta":7564197},{"NoteNumber":67,"Velocity":56,"Duration":129589,"SoundDuration":129589,"Delta":7564197},{"NoteNumber":63,"Velocity":56,"Duration":129589,"SoundDuration":129589,"Delta":7564197},{"NoteNumber":58,"Velocity":56,"Duration":129589,"SoundDuration":129589,"Delta":7564197},{"NoteNumber":48,"Velocity":77,"Duration":127931,"SoundDuration":127931,"Delta":8471326},{"NoteNumber":24,"Velocity":49,"Duration":127931,"SoundDuration":127931,"Delta":8471326},{"NoteNumber":36,"Velocity":61,"Duration":127931,"SoundDuration":127931,"Delta":8471326},{"NoteNumber":51,"Velocity":89,"Duration":917357,"SoundDuration":917357,"Delta":8599258},{"NoteNumber":39,"Velocity":70,"Duration":917357,"SoundDuration":917357,"Delta":8599258},{"NoteNumber":27,"Velocity":59,"Duration":917357,"SoundDuration":917357,"Delta":8599258},{"NoteNumber":56,"Velocity":64,"Duration":132164,"SoundDuration":132164,"Delta":9516615},{"NoteNumber":44,"Velocity":52,"Duration":132164,"SoundDuration":132164,"Delta":9516615},{"NoteNumber":32,"Velocity":44,"Duration":132164,"SoundDuration":132164,"Delta":9516615},{"NoteNumber":60,"Velocity":72,"Duration":352758,"SoundDuration":352758,"Delta":9648779},{"NoteNumber":48,"Velocity":56,"Duration":352758,"SoundDuration":352758,"Delta":9648779},{"NoteNumber":36,"Velocity":47,"Duration":352758,"SoundDuration":352758,"Delta":9648779},{"NoteNumber":61,"Velocity":75,"Duration":376851,"SoundDuration":376851,"Delta":10001538},{"NoteNumber":49,"Velocity":59,"Duration":376851,"SoundDuration":376851,"Delta":10001538},{"NoteNumber":37,"Velocity":49,"Duration":376851,"SoundDuration":376851,"Delta":10001538},{"NoteNumber":62,"Velocity":79,"Duration":403022,"SoundDuration":403022,"Delta":10378389},{"NoteNumber":50,"Velocity":63,"Duration":403022,"SoundDuration":403022,"Delta":10378389},{"NoteNumber":38,"Velocity":53,"Duration":403022,"SoundDuration":403022,"Delta":10378389},{"NoteNumber":63,"Velocity":89,"Duration":1041820,"SoundDuration":1041820,"Delta":10781411},{"NoteNumber":51,"Velocity":70,"Duration":1041820,"SoundDuration":1041820,"Delta":10781411},{"NoteNumber":39,"Velocity":59,"Duration":1041820,"SoundDuration":1041820,"Delta":10781411},{"NoteNumber":92,"Velocity":84,"Duration":130434,"SoundDuration":130434,"Delta":11823231},{"NoteNumber":87,"Velocity":70,"Duration":130434,"SoundDuration":130434,"Delta":11823231},{"NoteNumber":84,"Velocity":70,"Duration":130434,"SoundDuration":130434,"Delta":11823231},{"NoteNumber":80,"Velocity":70,"Duration":130434,"SoundDuration":130434,"Delta":11823231},{"NoteNumber":72,"Velocity":67,"Duration":130434,"SoundDuration":130434,"Delta":11823231},{"NoteNumber":68,"Velocity":56,"Duration":130434,"SoundDuration":130434,"Delta":11823231},{"NoteNumber":63,"Velocity":56,"Duration":130434,"SoundDuration":130434,"Delta":11823231},{"NoteNumber":60,"Velocity":56,"Duration":130434,"SoundDuration":130434,"Delta":11823231},{"NoteNumber":48,"Velocity":77,"Duration":128760,"SoundDuration":128760,"Delta":12736275},{"NoteNumber":24,"Velocity":49,"Duration":128760,"SoundDuration":128760,"Delta":12736275},{"NoteNumber":36,"Velocity":61,"Duration":128760,"SoundDuration":128760,"Delta":12736275},{"NoteNumber":51,"Velocity":89,"Duration":895522,"SoundDuration":895522,"Delta":12865035},{"NoteNumber":39,"Velocity":70,"Duration":895522,"SoundDuration":895522,"Delta":12865035},{"NoteNumber":27,"Velocity":59,"Duration":895522,"SoundDuration":895522,"Delta":12865035},{"NoteNumber":56,"Velocity":70,"Duration":127931,"SoundDuration":127931,"Delta":13760558},{"NoteNumber":44,"Velocity":56,"Duration":127931,"SoundDuration":127931,"Delta":13760558},{"NoteNumber":32,"Velocity":56,"Duration":127931,"SoundDuration":127931,"Delta":13760558},{"NoteNumber":60,"Velocity":68,"Duration":258644,"SoundDuration":258644,"Delta":13888489},{"NoteNumber":48,"Velocity":53,"Duration":258644,"SoundDuration":258644,"Delta":13888489},{"NoteNumber":36,"Velocity":45,"Duration":258644,"SoundDuration":258644,"Delta":13888489},{"NoteNumber":63,"Velocity":70,"Duration":270928,"SoundDuration":270928,"Delta":14147134},{"NoteNumber":51,"Velocity":58,"Duration":270928,"SoundDuration":270928,"Delta":14147134},{"NoteNumber":39,"Velocity":49,"Duration":270928,"SoundDuration":270928,"Delta":14147134},{"NoteNumber":64,"Velocity":74,"Duration":294284,"SoundDuration":294284,"Delta":14418063},{"NoteNumber":52,"Velocity":62,"Duration":294284,"SoundDuration":294284,"Delta":14418063},{"NoteNumber":40,"Velocity":52,"Duration":294284,"SoundDuration":294284,"Delta":14418063},{"NoteNumber":65,"Velocity":79,"Duration":299999,"SoundDuration":299999,"Delta":14712347},{"NoteNumber":53,"Velocity":68,"Duration":299999,"SoundDuration":299999,"Delta":14712347},{"NoteNumber":41,"Velocity":57,"Duration":299999,"SoundDuration":299999,"Delta":14712347},{"NoteNumber":66,"Velocity":89,"Duration":1050328,"SoundDuration":1050328,"Delta":15012347},{"NoteNumber":54,"Velocity":70,"Duration":1050328,"SoundDuration":1050328,"Delta":15012347},{"NoteNumber":42,"Velocity":59,"Duration":1050328,"SoundDuration":1050328,"Delta":15012347},{"NoteNumber":93,"Velocity":84,"Duration":152284,"SoundDuration":152284,"Delta":16062675},{"NoteNumber":90,"Velocity":70,"Duration":152284,"SoundDuration":152284,"Delta":16062675},{"NoteNumber":84,"Velocity":70,"Duration":152284,"SoundDuration":152284,"Delta":16062675},{"NoteNumber":81,"Velocity":70,"Duration":152284,"SoundDuration":152284,"Delta":16062675},{"NoteNumber":75,"Velocity":67,"Duration":152284,"SoundDuration":152284,"Delta":16062675},{"NoteNumber":72,"Velocity":56,"Duration":152284,"SoundDuration":152284,"Delta":16062675},{"NoteNumber":66,"Velocity":56,"Duration":152284,"SoundDuration":152284,"Delta":16062675},{"NoteNumber":63,"Velocity":56,"Duration":152284,"SoundDuration":152284,"Delta":16062675},{"NoteNumber":63,"Velocity":36,"Duration":94503,"SoundDuration":94503,"Delta":17595959},{"NoteNumber":68,"Velocity":36,"Duration":94503,"SoundDuration":94503,"Delta":17595959},{"NoteNumber":54,"Velocity":28,"Duration":94503,"SoundDuration":94503,"Delta":17595959},{"NoteNumber":60,"Velocity":28,"Duration":94503,"SoundDuration":94503,"Delta":17595959},{"NoteNumber":65,"Velocity":36,"Duration":94539,"SoundDuration":94539,"Delta":17908846},{"NoteNumber":71,"Velocity":36,"Duration":94539,"SoundDuration":94539,"Delta":17908846},{"NoteNumber":56,"Velocity":29,"Duration":94539,"SoundDuration":94539,"Delta":17908846},{"NoteNumber":62,"Velocity":29,"Duration":94539,"SoundDuration":94539,"Delta":17908846},{"NoteNumber":66,"Velocity":40,"Duration":87335,"SoundDuration":87335,"Delta":18215157},{"NoteNumber":72,"Velocity":40,"Duration":87335,"SoundDuration":87335,"Delta":18215157},{"NoteNumber":57,"Velocity":33,"Duration":87335,"SoundDuration":87335,"Delta":18215157},{"NoteNumber":63,"Velocity":33,"Duration":87335,"SoundDuration":87335,"Delta":18215157},{"NoteNumber":68,"Velocity":37,"Duration":80861,"SoundDuration":80861,"Delta":18498473},{"NoteNumber":74,"Velocity":37,"Duration":80861,"SoundDuration":80861,"Delta":18498473},{"NoteNumber":59,"Velocity":30,"Duration":80861,"SoundDuration":80861,"Delta":18498473},{"NoteNumber":65,"Velocity":30,"Duration":80861,"SoundDuration":80861,"Delta":18498473},{"NoteNumber":69,"Velocity":37,"Duration":75909,"SoundDuration":75909,"Delta":18761730},{"NoteNumber":75,"Velocity":37,"Duration":75909,"SoundDuration":75909,"Delta":18761730},{"NoteNumber":60,"Velocity":30,"Duration":75909,"SoundDuration":75909,"Delta":18761730},{"NoteNumber":66,"Velocity":30,"Duration":75909,"SoundDuration":75909,"Delta":18761730},{"NoteNumber":71,"Velocity":41,"Duration":74999,"SoundDuration":74999,"Delta":19012916},{"NoteNumber":77,"Velocity":41,"Duration":74999,"SoundDuration":74999,"Delta":19012916},{"NoteNumber":62,"Velocity":34,"Duration":74999,"SoundDuration":74999,"Delta":19012916},{"NoteNumber":68,"Velocity":34,"Duration":74999,"SoundDuration":74999,"Delta":19012916},{"NoteNumber":72,"Velocity":37,"Duration":71733,"SoundDuration":71733,"Delta":19258608},{"NoteNumber":78,"Velocity":37,"Duration":71733,"SoundDuration":71733,"Delta":19258608},{"NoteNumber":63,"Velocity":29,"Duration":71733,"SoundDuration":71733,"Delta":19258608},{"NoteNumber":69,"Velocity":29,"Duration":71733,"SoundDuration":71733,"Delta":19258608},{"NoteNumber":74,"Velocity":38,"Duration":69099,"SoundDuration":69099,"Delta":19494662},{"NoteNumber":80,"Velocity":38,"Duration":69099,"SoundDuration":69099,"Delta":19494662},{"NoteNumber":65,"Velocity":30,"Duration":69099,"SoundDuration":69099,"Delta":19494662},{"NoteNumber":71,"Velocity":30,"Duration":69099,"SoundDuration":69099,"Delta":19494662},{"NoteNumber":75,"Velocity":42,"Duration":66666,"SoundDuration":66666,"Delta":19722217},{"NoteNumber":81,"Velocity":42,"Duration":66666,"SoundDuration":66666,"Delta":19722217},{"NoteNumber":66,"Velocity":35,"Duration":66666,"SoundDuration":66666,"Delta":19722217},{"NoteNumber":72,"Velocity":35,"Duration":66666,"SoundDuration":66666,"Delta":19722217},{"NoteNumber":77,"Velocity":40,"Duration":65844,"SoundDuration":65844,"Delta":19942119},{"NoteNumber":83,"Velocity":40,"Duration":65844,"SoundDuration":65844,"Delta":19942119},{"NoteNumber":68,"Velocity":33,"Duration":65844,"SoundDuration":65844,"Delta":19942119},{"NoteNumber":74,"Velocity":33,"Duration":65844,"SoundDuration":65844,"Delta":19942119},{"NoteNumber":78,"Velocity":40,"Duration":64777,"SoundDuration":64777,"Delta":20160110},{"NoteNumber":84,"Velocity":40,"Duration":64777,"SoundDuration":64777,"Delta":20160110},{"NoteNumber":69,"Velocity":33,"Duration":64777,"SoundDuration":64777,"Delta":20160110},{"NoteNumber":75,"Velocity":33,"Duration":64777,"SoundDuration":64777,"Delta":20160110},{"NoteNumber":80,"Velocity":42,"Duration":63745,"SoundDuration":63745,"Delta":20374594},{"NoteNumber":86,"Velocity":42,"Duration":63745,"SoundDuration":63745,"Delta":20374594},{"NoteNumber":71,"Velocity":38,"Duration":63745,"SoundDuration":63745,"Delta":20374594},{"NoteNumber":77,"Velocity":38,"Duration":63745,"SoundDuration":63745,"Delta":20374594},{"NoteNumber":81,"Velocity":44,"Duration":61381,"SoundDuration":61381,"Delta":20584882},{"NoteNumber":87,"Velocity":44,"Duration":61381,"SoundDuration":61381,"Delta":20584882},{"NoteNumber":72,"Velocity":38,"Duration":61381,"SoundDuration":61381,"Delta":20584882},{"NoteNumber":78,"Velocity":38,"Duration":61381,"SoundDuration":61381,"Delta":20584882},{"NoteNumber":83,"Velocity":45,"Duration":60913,"SoundDuration":60913,"Delta":20789116},{"NoteNumber":89,"Velocity":45,"Duration":60913,"SoundDuration":60913,"Delta":20789116},{"NoteNumber":74,"Velocity":39,"Duration":60913,"SoundDuration":60913,"Delta":20789116},{"NoteNumber":80,"Velocity":39,"Duration":60913,"SoundDuration":60913,"Delta":20789116},{"NoteNumber":84,"Velocity":46,"Duration":59398,"SoundDuration":59398,"Delta":20991711},{"NoteNumber":90,"Velocity":46,"Duration":59398,"SoundDuration":59398,"Delta":20991711},{"NoteNumber":75,"Velocity":39,"Duration":59398,"SoundDuration":59398,"Delta":20991711},{"NoteNumber":81,"Velocity":39,"Duration":59398,"SoundDuration":59398,"Delta":20991711},{"NoteNumber":86,"Velocity":47,"Duration":57623,"SoundDuration":57623,"Delta":21186635},{"NoteNumber":92,"Velocity":47,"Duration":57623,"SoundDuration":57623,"Delta":21186635},{"NoteNumber":77,"Velocity":40,"Duration":57623,"SoundDuration":57623,"Delta":21186635},{"NoteNumber":83,"Velocity":40,"Duration":57623,"SoundDuration":57623,"Delta":21186635},{"NoteNumber":87,"Velocity":48,"Duration":56449,"SoundDuration":56449,"Delta":21377121},{"NoteNumber":93,"Velocity":48,"Duration":56449,"SoundDuration":56449,"Delta":21377121},{"NoteNumber":78,"Velocity":41,"Duration":56449,"SoundDuration":56449,"Delta":21377121},{"NoteNumber":84,"Velocity":41,"Duration":56449,"SoundDuration":56449,"Delta":21377121},{"NoteNumber":89,"Velocity":51,"Duration":55555,"SoundDuration":55555,"Delta":21564141},{"NoteNumber":95,"Velocity":51,"Duration":55555,"SoundDuration":55555,"Delta":21564141},{"NoteNumber":80,"Velocity":42,"Duration":55555,"SoundDuration":55555,"Delta":21564141},{"NoteNumber":86,"Velocity":42,"Duration":55555,"SoundDuration":55555,"Delta":21564141},{"NoteNumber":90,"Velocity":53,"Duration":54484,"SoundDuration":54484,"Delta":21747814},{"NoteNumber":96,"Velocity":53,"Duration":54484,"SoundDuration":54484,"Delta":21747814},{"NoteNumber":81,"Velocity":43,"Duration":54484,"SoundDuration":54484,"Delta":21747814},{"NoteNumber":87,"Velocity":43,"Duration":54484,"SoundDuration":54484,"Delta":21747814},{"NoteNumber":91,"Velocity":55,"Duration":53571,"SoundDuration":53571,"Delta":21928002},{"NoteNumber":97,"Velocity":55,"Duration":53571,"SoundDuration":53571,"Delta":21928002},{"NoteNumber":82,"Velocity":47,"Duration":53571,"SoundDuration":53571,"Delta":21928002},{"NoteNumber":88,"Velocity":47,"Duration":53571,"SoundDuration":53571,"Delta":21928002},{"NoteNumber":92,"Velocity":58,"Duration":39716,"SoundDuration":39716,"Delta":22105823},{"NoteNumber":98,"Velocity":58,"Duration":39716,"SoundDuration":39716,"Delta":22105823},{"NoteNumber":83,"Velocity":48,"Duration":39716,"SoundDuration":39716,"Delta":22105823},{"NoteNumber":89,"Velocity":48,"Duration":39716,"SoundDuration":39716,"Delta":22105823},{"NoteNumber":93,"Velocity":61,"Duration":39187,"SoundDuration":39187,"Delta":22237645},{"NoteNumber":99,"Velocity":61,"Duration":39187,"SoundDuration":39187,"Delta":22237645},{"NoteNumber":84,"Velocity":49,"Duration":39187,"SoundDuration":39187,"Delta":22237645},{"NoteNumber":90,"Velocity":49,"Duration":39187,"SoundDuration":39187,"Delta":22237645},{"NoteNumber":94,"Velocity":62,"Duration":38793,"SoundDuration":38793,"Delta":22368015},{"NoteNumber":100,"Velocity":62,"Duration":38793,"SoundDuration":38793,"Delta":22368015},{"NoteNumber":85,"Velocity":51,"Duration":38793,"SoundDuration":38793,"Delta":22368015},{"NoteNumber":91,"Velocity":51,"Duration":38793,"SoundDuration":38793,"Delta":22368015},{"NoteNumber":95,"Velocity":64,"Duration":38461,"SoundDuration":38461,"Delta":22497030},{"NoteNumber":101,"Velocity":64,"Duration":38461,"SoundDuration":38461,"Delta":22497030},{"NoteNumber":86,"Velocity":52,"Duration":38461,"SoundDuration":38461,"Delta":22497030},{"NoteNumber":92,"Velocity":52,"Duration":38461,"SoundDuration":38461,"Delta":22497030},{"NoteNumber":102,"Velocity":67,"Duration":37815,"SoundDuration":37815,"Delta":22624551},{"NoteNumber":96,"Velocity":67,"Duration":37815,"SoundDuration":37815,"Delta":22624551},{"NoteNumber":93,"Velocity":57,"Duration":37815,"SoundDuration":37815,"Delta":22624551},{"NoteNumber":87,"Velocity":57,"Duration":37815,"SoundDuration":37815,"Delta":22624551},{"NoteNumber":75,"Velocity":50,"Duration":919982,"SoundDuration":919982,"Delta":25007413},{"NoteNumber":69,"Velocity":40,"Duration":1510829,"SoundDuration":1510829,"Delta":25383588},{"NoteNumber":66,"Velocity":33,"Duration":725076,"SoundDuration":725076,"Delta":25383588},{"NoteNumber":77,"Velocity":46,"Duration":90634,"SoundDuration":90634,"Delta":25927395},{"NoteNumber":75,"Velocity":47,"Duration":90634,"SoundDuration":90634,"Delta":26018030},{"NoteNumber":74,"Velocity":50,"Duration":362537,"SoundDuration":362537,"Delta":26108664},{"NoteNumber":65,"Velocity":38,"Duration":362537,"SoundDuration":362537,"Delta":26108664},{"NoteNumber":72,"Velocity":41,"Duration":255305,"SoundDuration":255305,"Delta":26471202},{"NoteNumber":63,"Velocity":38,"Duration":255305,"SoundDuration":255305,"Delta":26471202},{"NoteNumber":62,"Velocity":26,"Duration":508819,"SoundDuration":508819,"Delta":26726508},{"NoteNumber":65,"Velocity":31,"Duration":452849,"SoundDuration":452849,"Delta":26782478},{"NoteNumber":72,"Velocity":30,"Duration":396879,"SoundDuration":396879,"Delta":26838448},{"NoteNumber":77,"Velocity":47,"Duration":340908,"SoundDuration":340908,"Delta":26894418},{"NoteNumber":69,"Velocity":37,"Duration":376175,"SoundDuration":376175,"Delta":27235327},{"NoteNumber":70,"Velocity":37,"Duration":376175,"SoundDuration":376175,"Delta":27611503},{"NoteNumber":70,"Velocity":50,"Duration":1262370,"SoundDuration":1262370,"Delta":29063562},{"NoteNumber":64,"Velocity":40,"Duration":1510829,"SoundDuration":1510829,"Delta":29782125},{"NoteNumber":61,"Velocity":36,"Duration":725076,"SoundDuration":725076,"Delta":29782125},{"NoteNumber":72,"Velocity":46,"Duration":90634,"SoundDuration":90634,"Delta":30325932},{"NoteNumber":70,"Velocity":47,"Duration":90634,"SoundDuration":90634,"Delta":30416566},{"NoteNumber":68,"Velocity":50,"Duration":362538,"SoundDuration":362538,"Delta":30507201},{"NoteNumber":60,"Velocity":38,"Duration":362538,"SoundDuration":362538,"Delta":30507201},{"NoteNumber":67,"Velocity":41,"Duration":255305,"SoundDuration":255305,"Delta":30869739},{"NoteNumber":58,"Velocity":38,"Duration":255305,"SoundDuration":255305,"Delta":30869739},{"NoteNumber":57,"Velocity":26,"Duration":508819,"SoundDuration":508819,"Delta":31125045},{"NoteNumber":60,"Velocity":31,"Duration":1581375,"SoundDuration":1581375,"Delta":31181015},{"NoteNumber":67,"Velocity":30,"Duration":396879,"SoundDuration":396879,"Delta":31236985},{"NoteNumber":72,"Velocity":47,"Duration":340909,"SoundDuration":340909,"Delta":31292955},{"NoteNumber":64,"Velocity":37,"Duration":376175,"SoundDuration":376175,"Delta":31633864},{"NoteNumber":65,"Velocity":37,"Duration":376175,"SoundDuration":376175,"Delta":32010039},{"NoteNumber":56,"Velocity":30,"Duration":376175,"SoundDuration":376175,"Delta":32010039},{"NoteNumber":65,"Velocity":50,"Duration":1246432,"SoundDuration":1246432,"Delta":33514741},{"NoteNumber":63,"Velocity":40,"Duration":1463368,"SoundDuration":1463368,"Delta":34220623},{"NoteNumber":59,"Velocity":36,"Duration":1463368,"SoundDuration":1463368,"Delta":34220623},{"NoteNumber":44,"Velocity":30,"Duration":1463368,"SoundDuration":1463368,"Delta":34220623},{"NoteNumber":67,"Velocity":46,"Duration":89820,"SoundDuration":89820,"Delta":34761174},{"NoteNumber":65,"Velocity":47,"Duration":89820,"SoundDuration":89820,"Delta":34850994},{"NoteNumber":64,"Velocity":50,"Duration":338028,"SoundDuration":338028,"Delta":34940815},{"NoteNumber":65,"Velocity":41,"Duration":237239,"SoundDuration":237239,"Delta":35278843},{"NoteNumber":58,"Velocity":36,"Duration":829024,"SoundDuration":829024,"Delta":35572052},{"NoteNumber":65,"Velocity":41,"Duration":396879,"SoundDuration":396879,"Delta":35628022},{"NoteNumber":70,"Velocity":45,"Duration":340909,"SoundDuration":340909,"Delta":35683992},{"NoteNumber":55,"Velocity":31,"Duration":1487331,"SoundDuration":1487331,"Delta":35683992},{"NoteNumber":46,"Velocity":26,"Duration":1487331,"SoundDuration":1487331,"Delta":35683992},{"NoteNumber":62,"Velocity":37,"Duration":376175,"SoundDuration":376175,"Delta":36024901},{"NoteNumber":63,"Velocity":37,"Duration":376175,"SoundDuration":376175,"Delta":36401077},{"NoteNumber":58,"Velocity":36,"Duration":829024,"SoundDuration":829024,"Delta":37059384},{"NoteNumber":63,"Velocity":35,"Duration":396879,"SoundDuration":396879,"Delta":37115354},{"NoteNumber":71,"Velocity":45,"Duration":340909,"SoundDuration":340909,"Delta":37171324},{"NoteNumber":54,"Velocity":31,"Duration":1518502,"SoundDuration":1518502,"Delta":37171324},{"NoteNumber":46,"Velocity":26,"Duration":1518502,"SoundDuration":1518502,"Delta":37171324},{"NoteNumber":62,"Velocity":37,"Duration":376175,"SoundDuration":376175,"Delta":37512233},{"NoteNumber":63,"Velocity":37,"Duration":376175,"SoundDuration":376175,"Delta":37888409},{"NoteNumber":63,"Velocity":31,"Duration":98814,"SoundDuration":98814,"Delta":38571249},{"NoteNumber":53,"Velocity":37,"Duration":1504702,"SoundDuration":1504702,"Delta":38689826},{"NoteNumber":56,"Velocity":37,"Duration":1504702,"SoundDuration":1504702,"Delta":38689826},{"NoteNumber":63,"Velocity":37,"Duration":376175,"SoundDuration":376175,"Delta":38689826},{"NoteNumber":47,"Velocity":31,"Duration":752350,"SoundDuration":752350,"Delta":38689826},{"NoteNumber":34,"Velocity":26,"Duration":1504702,"SoundDuration":1504702,"Delta":38689826},{"NoteNumber":59,"Velocity":31,"Duration":376175,"SoundDuration":376175,"Delta":39066002},{"NoteNumber":63,"Velocity":37,"Duration":376175,"SoundDuration":376175,"Delta":39442177},{"NoteNumber":46,"Velocity":31,"Duration":752351,"SoundDuration":752351,"Delta":39442177},{"NoteNumber":60,"Velocity":31,"Duration":376175,"SoundDuration":376175,"Delta":39818353},{"NoteNumber":63,"Velocity":39,"Duration":501567,"SoundDuration":501567,"Delta":40194528},{"NoteNumber":61,"Velocity":33,"Duration":501567,"SoundDuration":501567,"Delta":40696095},{"NoteNumber":63,"Velocity":33,"Duration":501567,"SoundDuration":501567,"Delta":41197663},{"NoteNumber":62,"Velocity":35,"Duration":458015,"SoundDuration":458015,"Delta":41699230},{"NoteNumber":63,"Velocity":28,"Duration":118577,"SoundDuration":118577,"Delta":42157246},{"NoteNumber":62,"Velocity":28,"Duration":118577,"SoundDuration":118577,"Delta":42275823},{"NoteNumber":61,"Velocity":28,"Duration":118577,"SoundDuration":118577,"Delta":42394400},{"NoteNumber":62,"Velocity":28,"Duration":118577,"SoundDuration":118577,"Delta":42512977},{"NoteNumber":58,"Velocity":32,"Duration":1586019,"SoundDuration":1586019,"Delta":42631554},{"NoteNumber":62,"Velocity":35,"Duration":1526731,"SoundDuration":1526731,"Delta":42690843},{"NoteNumber":67,"Velocity":38,"Duration":1467442,"SoundDuration":1467442,"Delta":42750131},{"NoteNumber":56,"Velocity":35,"Duration":207612,"SoundDuration":207612,"Delta":44217574},{"NoteNumber":65,"Velocity":35,"Duration":207612,"SoundDuration":207612,"Delta":44217574},{"NoteNumber":39,"Velocity":35,"Duration":189033,"SoundDuration":189033,"Delta":44425186},{"NoteNumber":46,"Velocity":33,"Duration":160793,"SoundDuration":160793,"Delta":45040356},{"NoteNumber":55,"Velocity":34,"Duration":118180,"SoundDuration":118180,"Delta":45082970},{"NoteNumber":63,"Velocity":35,"Duration":75566,"SoundDuration":75566,"Delta":45125583},{"NoteNumber":46,"Velocity":33,"Duration":140361,"SoundDuration":140361,"Delta":46259085},{"NoteNumber":55,"Velocity":34,"Duration":102578,"SoundDuration":102578,"Delta":46296868},{"NoteNumber":63,"Velocity":36,"Duration":64794,"SoundDuration":64794,"Delta":46334651},{"NoteNumber":39,"Velocity":35,"Duration":152258,"SoundDuration":152258,"Delta":46853010},{"NoteNumber":46,"Velocity":33,"Duration":163030,"SoundDuration":163030,"Delta":47442586},{"NoteNumber":55,"Velocity":34,"Duration":119298,"SoundDuration":119298,"Delta":47486318},{"NoteNumber":63,"Velocity":36,"Duration":75566,"SoundDuration":75566,"Delta":47530050},{"NoteNumber":46,"Velocity":35,"Duration":145334,"SoundDuration":145334,"Delta":48663551},{"NoteNumber":55,"Velocity":37,"Duration":107550,"SoundDuration":107550,"Delta":48701334},{"NoteNumber":63,"Velocity":38,"Duration":69767,"SoundDuration":69767,"Delta":48739118},{"NoteNumber":58,"Velocity":60,"Duration":138568,"SoundDuration":138568,"Delta":49155306},{"NoteNumber":63,"Velocity":68,"Duration":718745,"SoundDuration":718745,"Delta":49293874},{"NoteNumber":39,"Velocity":38,"Duration":163487,"SoundDuration":163487,"Delta":49293874},{"NoteNumber":46,"Velocity":37,"Duration":146538,"SoundDuration":146538,"Delta":49866081},{"NoteNumber":55,"Velocity":38,"Duration":105666,"SoundDuration":105666,"Delta":49906953},{"NoteNumber":63,"Velocity":39,"Duration":388769,"SoundDuration":388769,"Delta":49947825},{"NoteNumber":67,"Velocity":57,"Duration":129589,"SoundDuration":129589,"Delta":50336594},{"NoteNumber":68,"Velocity":57,"Duration":72289,"SoundDuration":72289,"Delta":50466184},{"NoteNumber":46,"Velocity":37,"Duration":143043,"SoundDuration":143043,"Delta":50972208},{"NoteNumber":55,"Velocity":38,"Duration":106899,"SoundDuration":106899,"Delta":51008353},{"NoteNumber":69,"Velocity":66,"Duration":70754,"SoundDuration":70754,"Delta":51044497},{"NoteNumber":63,"Velocity":39,"Duration":70754,"SoundDuration":70754,"Delta":51044497},{"NoteNumber":70,"Velocity":71,"Duration":1135336,"SoundDuration":1135336,"Delta":51617645},{"NoteNumber":39,"Velocity":38,"Duration":158311,"SoundDuration":158311,"Delta":51617645},{"NoteNumber":46,"Velocity":36,"Duration":141917,"SoundDuration":141917,"Delta":52171734},{"NoteNumber":55,"Velocity":38,"Duration":102339,"SoundDuration":102339,"Delta":52211312},{"NoteNumber":63,"Velocity":40,"Duration":62761,"SoundDuration":62761,"Delta":52250890},{"NoteNumber":75,"Velocity":68,"Duration":75000,"SoundDuration":75000,"Delta":52752982},{"NoteNumber":46,"Velocity":38,"Duration":144767,"SoundDuration":144767,"Delta":53277982},{"NoteNumber":55,"Velocity":39,"Duration":107267,"SoundDuration":107267,"Delta":53315482},{"NoteNumber":67,"Velocity":49,"Duration":418604,"SoundDuration":418604,"Delta":53352982},{"NoteNumber":70,"Velocity":63,"Duration":418604,"SoundDuration":418604,"Delta":53352982},{"NoteNumber":63,"Velocity":41,"Duration":69767,"SoundDuration":69767,"Delta":53352982},{"NoteNumber":65,"Velocity":46,"Duration":69767,"SoundDuration":69767,"Delta":53771587},{"NoteNumber":68,"Velocity":59,"Duration":69767,"SoundDuration":69767,"Delta":53771587},{"NoteNumber":67,"Velocity":47,"Duration":69767,"SoundDuration":69767,"Delta":53841354},{"NoteNumber":70,"Velocity":59,"Duration":69767,"SoundDuration":69767,"Delta":53841354},{"NoteNumber":65,"Velocity":54,"Duration":304568,"SoundDuration":304568,"Delta":53911122},{"NoteNumber":68,"Velocity":69,"Duration":304568,"SoundDuration":304568,"Delta":53911122},{"NoteNumber":39,"Velocity":38,"Duration":152284,"SoundDuration":152284,"Delta":53911122},{"NoteNumber":46,"Velocity":35,"Duration":176196,"SoundDuration":176196,"Delta":54406045},{"NoteNumber":53,"Velocity":37,"Duration":138125,"SoundDuration":138125,"Delta":54444116},{"NoteNumber":56,"Velocity":39,"Duration":100054,"SoundDuration":100054,"Delta":54482188},{"NoteNumber":62,"Velocity":40,"Duration":61983,"SoundDuration":61983,"Delta":54520259},{"NoteNumber":67,"Velocity":60,"Duration":247934,"SoundDuration":247934,"Delta":54768193},{"NoteNumber":64,"Velocity":50,"Duration":247934,"SoundDuration":247934,"Delta":54768193},{"NoteNumber":68,"Velocity":66,"Duration":71770,"SoundDuration":71770,"Delta":55016127},{"NoteNumber":65,"Velocity":51,"Duration":71770,"SoundDuration":71770,"Delta":55016127},{"NoteNumber":53,"Velocity":38,"Duration":144585,"SoundDuration":144585,"Delta":55518519},{"NoteNumber":46,"Velocity":38,"Duration":144585,"SoundDuration":144585,"Delta":55518519},{"NoteNumber":56,"Velocity":39,"Duration":108700,"SoundDuration":108700,"Delta":55554404},{"NoteNumber":67,"Velocity":50,"Duration":72815,"SoundDuration":72815,"Delta":55590290},{"NoteNumber":70,"Velocity":64,"Duration":72815,"SoundDuration":72815,"Delta":55590290},{"NoteNumber":62,"Velocity":40,"Duration":72815,"SoundDuration":72815,"Delta":55590290},{"NoteNumber":67,"Velocity":68,"Duration":1208224,"SoundDuration":1208224,"Delta":56172814},{"NoteNumber":63,"Velocity":54,"Duration":723235,"SoundDuration":723235,"Delta":56172814},{"NoteNumber":39,"Velocity":38,"Duration":163487,"SoundDuration":163487,"Delta":56172814},{"NoteNumber":46,"Velocity":39,"Duration":151028,"SoundDuration":151028,"Delta":56745021},{"NoteNumber":55,"Velocity":41,"Duration":110156,"SoundDuration":110156,"Delta":56785893},{"NoteNumber":63,"Velocity":42,"Duration":554273,"SoundDuration":554273,"Delta":56826765},{"NoteNumber":58,"Velocity":58,"Duration":207792,"SoundDuration":207792,"Delta":57588830},{"NoteNumber":59,"Velocity":50,"Duration":207792,"SoundDuration":207792,"Delta":57796622},{"NoteNumber":46,"Velocity":37,"Duration":148676,"SoundDuration":148676,"Delta":57926492},{"NoteNumber":55,"Velocity":39,"Duration":109715,"SoundDuration":109715,"Delta":57965454},{"NoteNumber":60,"Velocity":51,"Duration":190372,"SoundDuration":190372,"Delta":58004415},{"NoteNumber":63,"Velocity":40,"Duration":70754,"SoundDuration":70754,"Delta":58004415},{"NoteNumber":61,"Velocity":55,"Duration":191387,"SoundDuration":191387,"Delta":58194787},{"NoteNumber":62,"Velocity":58,"Duration":191387,"SoundDuration":191387,"Delta":58386174},{"NoteNumber":63,"Velocity":68,"Duration":718745,"SoundDuration":718745,"Delta":58577562},{"NoteNumber":39,"Velocity":38,"Duration":163487,"SoundDuration":163487,"Delta":58577562},{"NoteNumber":46,"Velocity":38,"Duration":146538,"SoundDuration":146538,"Delta":59149769},{"NoteNumber":55,"Velocity":39,"Duration":105666,"SoundDuration":105666,"Delta":59190641},{"NoteNumber":63,"Velocity":41,"Duration":388769,"SoundDuration":388769,"Delta":59231513},{"NoteNumber":67,"Velocity":57,"Duration":129589,"SoundDuration":129589,"Delta":59620282},{"NoteNumber":68,"Velocity":57,"Duration":72289,"SoundDuration":72289,"Delta":59749872},{"NoteNumber":46,"Velocity":38,"Duration":143043,"SoundDuration":143043,"Delta":60255896},{"NoteNumber":55,"Velocity":40,"Duration":106899,"SoundDuration":106899,"Delta":60292040},{"NoteNumber":69,"Velocity":66,"Duration":70754,"SoundDuration":70754,"Delta":60328185},{"NoteNumber":63,"Velocity":41,"Duration":70754,"SoundDuration":70754,"Delta":60328185},{"NoteNumber":69,"Velocity":49,"Duration":47846,"SoundDuration":47846,"Delta":60757792},{"NoteNumber":70,"Velocity":44,"Duration":47846,"SoundDuration":47846,"Delta":60805639},{"NoteNumber":72,"Velocity":47,"Duration":47846,"SoundDuration":47846,"Delta":60853485},{"NoteNumber":70,"Velocity":54,"Duration":63324,"SoundDuration":63324,"Delta":60901332},{"NoteNumber":39,"Velocity":38,"Duration":158311,"SoundDuration":158311,"Delta":60901332},{"NoteNumber":72,"Velocity":49,"Duration":63324,"SoundDuration":63324,"Delta":60964657},{"NoteNumber":70,"Velocity":50,"Duration":63324,"SoundDuration":63324,"Delta":61027981},{"NoteNumber":72,"Velocity":47,"Duration":63324,"SoundDuration":63324,"Delta":61091306},{"NoteNumber":70,"Velocity":50,"Duration":63324,"SoundDuration":63324,"Delta":61154630},{"NoteNumber":72,"Velocity":47,"Duration":63324,"SoundDuration":63324,"Delta":61217955},{"NoteNumber":70,"Velocity":50,"Duration":63324,"SoundDuration":63324,"Delta":61281279},{"NoteNumber":72,"Velocity":47,"Duration":63324,"SoundDuration":63324,"Delta":61344604},{"NoteNumber":70,"Velocity":50,"Duration":63324,"SoundDuration":63324,"Delta":61407928},{"NoteNumber":46,"Velocity":38,"Duration":141917,"SoundDuration":141917,"Delta":61455422},{"NoteNumber":72,"Velocity":45,"Duration":63324,"SoundDuration":63324,"Delta":61471253},{"NoteNumber":55,"Velocity":39,"Duration":102339,"SoundDuration":102339,"Delta":61495000},{"NoteNumber":70,"Velocity":50,"Duration":50209,"SoundDuration":50209,"Delta":61534577},{"NoteNumber":63,"Velocity":41,"Duration":62761,"SoundDuration":62761,"Delta":61534577},{"NoteNumber":72,"Velocity":46,"Duration":50209,"SoundDuration":50209,"Delta":61584787},{"NoteNumber":70,"Velocity":50,"Duration":50209,"SoundDuration":50209,"Delta":61634996},{"NoteNumber":72,"Velocity":45,"Duration":50209,"SoundDuration":50209,"Delta":61685205},{"NoteNumber":70,"Velocity":50,"Duration":50209,"SoundDuration":50209,"Delta":61735414},{"NoteNumber":72,"Velocity":47,"Duration":62761,"SoundDuration":62761,"Delta":61785623},{"NoteNumber":70,"Velocity":53,"Duration":62761,"SoundDuration":62761,"Delta":61848385},{"NoteNumber":69,"Velocity":50,"Duration":62761,"SoundDuration":62761,"Delta":61911146},{"NoteNumber":70,"Velocity":50,"Duration":62761,"SoundDuration":62761,"Delta":61973908},{"NoteNumber":79,"Velocity":68,"Duration":75000,"SoundDuration":75000,"Delta":62036669},{"NoteNumber":75,"Velocity":58,"Duration":75000,"SoundDuration":75000,"Delta":62036669},{"NoteNumber":46,"Velocity":38,"Duration":144767,"SoundDuration":144767,"Delta":62561669},{"NoteNumber":55,"Velocity":40,"Duration":107267,"SoundDuration":107267,"Delta":62599169},{"NoteNumber":63,"Velocity":42,"Duration":69767,"SoundDuration":69767,"Delta":62636669},{"NoteNumber":67,"Velocity":49,"Duration":139534,"SoundDuration":139534,"Delta":62915739},{"NoteNumber":70,"Velocity":63,"Duration":139534,"SoundDuration":139534,"Delta":62915739},{"NoteNumber":65,"Velocity":46,"Duration":69767,"SoundDuration":69767,"Delta":63055274},{"NoteNumber":68,"Velocity":59,"Duration":69767,"SoundDuration":69767,"Delta":63055274},{"NoteNumber":67,"Velocity":47,"Duration":69767,"SoundDuration":69767,"Delta":63125042},{"NoteNumber":70,"Velocity":59,"Duration":69767,"SoundDuration":69767,"Delta":63125042},{"NoteNumber":65,"Velocity":54,"Duration":304568,"SoundDuration":304568,"Delta":63194809},{"NoteNumber":68,"Velocity":69,"Duration":304568,"SoundDuration":304568,"Delta":63194809},{"NoteNumber":39,"Velocity":38,"Duration":152284,"SoundDuration":152284,"Delta":63194809},{"NoteNumber":46,"Velocity":37,"Duration":176196,"SoundDuration":176196,"Delta":63689733},{"NoteNumber":53,"Velocity":38,"Duration":138125,"SoundDuration":138125,"Delta":63727804},{"NoteNumber":56,"Velocity":39,"Duration":100054,"SoundDuration":100054,"Delta":63765875},{"NoteNumber":62,"Velocity":41,"Duration":61983,"SoundDuration":61983,"Delta":63803946},{"NoteNumber":64,"Velocity":50,"Duration":247934,"SoundDuration":247934,"Delta":64051880},{"NoteNumber":67,"Velocity":60,"Duration":247934,"SoundDuration":247934,"Delta":64051880},{"NoteNumber":68,"Velocity":66,"Duration":71770,"SoundDuration":71770,"Delta":64299814},{"NoteNumber":65,"Velocity":51,"Duration":71770,"SoundDuration":71770,"Delta":64299814},{"NoteNumber":46,"Velocity":36,"Duration":144585,"SoundDuration":144585,"Delta":64802207},{"NoteNumber":53,"Velocity":38,"Duration":108700,"SoundDuration":108700,"Delta":64838092},{"NoteNumber":62,"Velocity":50,"Duration":72815,"SoundDuration":72815,"Delta":64873977},{"NoteNumber":70,"Velocity":64,"Duration":72815,"SoundDuration":72815,"Delta":64873977},{"NoteNumber":56,"Velocity":39,"Duration":72815,"SoundDuration":72815,"Delta":64873977},{"NoteNumber":63,"Velocity":68,"Duration":723235,"SoundDuration":723235,"Delta":65456501},{"NoteNumber":39,"Velocity":38,"Duration":163487,"SoundDuration":163487,"Delta":65456501},{"NoteNumber":46,"Velocity":35,"Duration":151027,"SoundDuration":151027,"Delta":66028708},{"NoteNumber":55,"Velocity":38,"Duration":110156,"SoundDuration":110156,"Delta":66069580},{"NoteNumber":63,"Velocity":41,"Duration":554272,"SoundDuration":554272,"Delta":66110452},{"NoteNumber":46,"Velocity":34,"Duration":148676,"SoundDuration":148676,"Delta":67210180},{"NoteNumber":55,"Velocity":37,"Duration":109715,"SoundDuration":109715,"Delta":67249141},{"NoteNumber":63,"Velocity":39,"Duration":70754,"SoundDuration":70754,"Delta":67288102},{"NoteNumber":39,"Velocity":38,"Duration":152258,"SoundDuration":152258,"Delta":67861250},{"NoteNumber":46,"Velocity":36,"Duration":163030,"SoundDuration":163030,"Delta":68450826},{"NoteNumber":55,"Velocity":39,"Duration":119298,"SoundDuration":119298,"Delta":68494557},{"NoteNumber":63,"Velocity":42,"Duration":75566,"SoundDuration":75566,"Delta":68538289},{"NoteNumber":46,"Velocity":36,"Duration":145334,"SoundDuration":145334,"Delta":69671790},{"NoteNumber":55,"Velocity":38,"Duration":107550,"SoundDuration":107550,"Delta":69709574},{"NoteNumber":63,"Velocity":41,"Duration":69767,"SoundDuration":69767,"Delta":69747357},{"NoteNumber":70,"Velocity":60,"Duration":138568,"SoundDuration":138568,"Delta":70163545},{"NoteNumber":63,"Velocity":62,"Duration":676180,"SoundDuration":676180,"Delta":70302113},{"NoteNumber":75,"Velocity":74,"Duration":988030,"SoundDuration":988030,"Delta":70302113},{"NoteNumber":39,"Velocity":48,"Duration":153452,"SoundDuration":153452,"Delta":70302113},{"NoteNumber":46,"Velocity":42,"Duration":139096,"SoundDuration":139096,"Delta":70839198},{"NoteNumber":55,"Velocity":46,"Duration":100733,"SoundDuration":100733,"Delta":70877561},{"NoteNumber":63,"Velocity":48,"Duration":374219,"SoundDuration":374219,"Delta":70915924},{"NoteNumber":67,"Velocity":52,"Duration":124740,"SoundDuration":124740,"Delta":71290144},{"NoteNumber":79,"Velocity":62,"Duration":124740,"SoundDuration":124740,"Delta":71290144},{"NoteNumber":68,"Velocity":52,"Duration":69767,"SoundDuration":69767,"Delta":71414884},{"NoteNumber":80,"Velocity":62,"Duration":69767,"SoundDuration":69767,"Delta":71414884},{"NoteNumber":46,"Velocity":39,"Duration":144209,"SoundDuration":144209,"Delta":71903257},{"NoteNumber":55,"Velocity":41,"Duration":109325,"SoundDuration":109325,"Delta":71938141},{"NoteNumber":69,"Velocity":56,"Duration":74441,"SoundDuration":74441,"Delta":71973024},{"NoteNumber":81,"Velocity":67,"Duration":74441,"SoundDuration":74441,"Delta":71973024},{"NoteNumber":63,"Velocity":44,"Duration":74441,"SoundDuration":74441,"Delta":71973024},{"NoteNumber":70,"Velocity":44,"Duration":74441,"SoundDuration":74441,"Delta":72419674},{"NoteNumber":75,"Velocity":46,"Duration":74441,"SoundDuration":74441,"Delta":72494116},{"NoteNumber":82,"Velocity":53,"Duration":79128,"SoundDuration":79128,"Delta":72568557},{"NoteNumber":39,"Velocity":38,"Duration":137614,"SoundDuration":137614,"Delta":72568557},{"NoteNumber":84,"Velocity":41,"Duration":77981,"SoundDuration":77981,"Delta":72647686},{"NoteNumber":82,"Velocity":41,"Duration":79128,"SoundDuration":79128,"Delta":72725668},{"NoteNumber":81,"Velocity":41,"Duration":79128,"SoundDuration":79128,"Delta":72803649},{"NoteNumber":82,"Velocity":41,"Duration":77981,"SoundDuration":77981,"Delta":72882778},{"NoteNumber":84,"Velocity":48,"Duration":79128,"SoundDuration":79128,"Delta":72960760},{"NoteNumber":82,"Velocity":41,"Duration":77981,"SoundDuration":77981,"Delta":73039888},{"NoteNumber":46,"Velocity":39,"Duration":131568,"SoundDuration":131568,"Delta":73050209},{"NoteNumber":55,"Velocity":42,"Duration":97165,"SoundDuration":97165,"Delta":73084613},{"NoteNumber":75,"Velocity":48,"Duration":83681,"SoundDuration":83681,"Delta":73119016},{"NoteNumber":63,"Velocity":46,"Duration":62761,"SoundDuration":62761,"Delta":73119016},{"NoteNumber":70,"Velocity":42,"Duration":83682,"SoundDuration":83682,"Delta":73202698},{"NoteNumber":63,"Velocity":46,"Duration":83681,"SoundDuration":83681,"Delta":73286380},{"NoteNumber":70,"Velocity":52,"Duration":83681,"SoundDuration":83681,"Delta":73370062},{"NoteNumber":75,"Velocity":63,"Duration":83681,"SoundDuration":83681,"Delta":73453744},{"NoteNumber":82,"Velocity":73,"Duration":83682,"SoundDuration":83682,"Delta":73537426},{"NoteNumber":87,"Velocity":81,"Duration":73349,"SoundDuration":73349,"Delta":73621108},{"NoteNumber":46,"Velocity":35,"Duration":141222,"SoundDuration":141222,"Delta":74134556},{"NoteNumber":55,"Velocity":37,"Duration":104548,"SoundDuration":104548,"Delta":74171231},{"NoteNumber":63,"Velocity":38,"Duration":67873,"SoundDuration":67873,"Delta":74207905},{"NoteNumber":67,"Velocity":54,"Duration":124434,"SoundDuration":124434,"Delta":74479398},{"NoteNumber":70,"Velocity":54,"Duration":124434,"SoundDuration":124434,"Delta":74479398},{"NoteNumber":67,"Velocity":33,"Duration":67873,"SoundDuration":67873,"Delta":74615145},{"NoteNumber":70,"Velocity":40,"Duration":67873,"SoundDuration":67873,"Delta":74615145},{"NoteNumber":66,"Velocity":33,"Duration":67873,"SoundDuration":67873,"Delta":74683018},{"NoteNumber":69,"Velocity":40,"Duration":67873,"SoundDuration":67873,"Delta":74683018},{"NoteNumber":65,"Velocity":39,"Duration":65645,"SoundDuration":65645,"Delta":74750891},{"NoteNumber":68,"Velocity":49,"Duration":65645,"SoundDuration":65645,"Delta":74750891},{"NoteNumber":39,"Velocity":35,"Duration":131291,"SoundDuration":131291,"Delta":74750891},{"NoteNumber":82,"Velocity":42,"Duration":65645,"SoundDuration":65645,"Delta":75144764},{"NoteNumber":79,"Velocity":36,"Duration":65645,"SoundDuration":65645,"Delta":75144764},{"NoteNumber":46,"Velocity":31,"Duration":160451,"SoundDuration":160451,"Delta":75177587},{"NoteNumber":81,"Velocity":43,"Duration":65645,"SoundDuration":65645,"Delta":75210410},{"NoteNumber":78,"Velocity":37,"Duration":65645,"SoundDuration":65645,"Delta":75210410},{"NoteNumber":53,"Velocity":33,"Duration":127628,"SoundDuration":127628,"Delta":75210410},{"NoteNumber":56,"Velocity":34,"Duration":94806,"SoundDuration":94806,"Delta":75243233},{"NoteNumber":77,"Velocity":44,"Duration":61983,"SoundDuration":61983,"Delta":75276055},{"NoteNumber":80,"Velocity":50,"Duration":61983,"SoundDuration":61983,"Delta":75276055},{"NoteNumber":62,"Velocity":36,"Duration":61983,"SoundDuration":61983,"Delta":75276055},{"NoteNumber":94,"Velocity":41,"Duration":61983,"SoundDuration":61983,"Delta":75647956},{"NoteNumber":91,"Velocity":36,"Duration":61983,"SoundDuration":61983,"Delta":75647956},{"NoteNumber":90,"Velocity":37,"Duration":61983,"SoundDuration":61983,"Delta":75709940},{"NoteNumber":93,"Velocity":41,"Duration":61983,"SoundDuration":61983,"Delta":75709940},{"NoteNumber":92,"Velocity":48,"Duration":66964,"SoundDuration":66964,"Delta":75771923},{"NoteNumber":89,"Velocity":44,"Duration":66964,"SoundDuration":66964,"Delta":75771923},{"NoteNumber":64,"Velocity":36,"Duration":133928,"SoundDuration":133928,"Delta":76173709},{"NoteNumber":67,"Velocity":42,"Duration":133928,"SoundDuration":133928,"Delta":76173709},{"NoteNumber":46,"Velocity":32,"Duration":135771,"SoundDuration":135771,"Delta":76240673},{"NoteNumber":53,"Velocity":32,"Duration":135771,"SoundDuration":135771,"Delta":76240673},{"NoteNumber":56,"Velocity":34,"Duration":102289,"SoundDuration":102289,"Delta":76274155},{"NoteNumber":65,"Velocity":43,"Duration":68807,"SoundDuration":68807,"Delta":76307637},{"NoteNumber":68,"Velocity":49,"Duration":68807,"SoundDuration":68807,"Delta":76307637},{"NoteNumber":62,"Velocity":36,"Duration":68807,"SoundDuration":68807,"Delta":76307637},{"NoteNumber":67,"Velocity":38,"Duration":73891,"SoundDuration":73891,"Delta":76582867},{"NoteNumber":70,"Velocity":44,"Duration":73891,"SoundDuration":73891,"Delta":76582867},{"NoteNumber":67,"Velocity":52,"Duration":1208224,"SoundDuration":1208224,"Delta":76878433},{"NoteNumber":63,"Velocity":44,"Duration":723235,"SoundDuration":723235,"Delta":76878433},{"NoteNumber":39,"Velocity":35,"Duration":163487,"SoundDuration":163487,"Delta":76878433},{"NoteNumber":46,"Velocity":35,"Duration":151027,"SoundDuration":151027,"Delta":77450641},{"NoteNumber":55,"Velocity":37,"Duration":110156,"SoundDuration":110156,"Delta":77491513},{"NoteNumber":63,"Velocity":39,"Duration":554272,"SoundDuration":554272,"Delta":77532384},{"NoteNumber":70,"Velocity":52,"Duration":233766,"SoundDuration":233766,"Delta":78294450},{"NoteNumber":58,"Velocity":52,"Duration":207792,"SoundDuration":207792,"Delta":78294450},{"NoteNumber":71,"Velocity":52,"Duration":231377,"SoundDuration":231377,"Delta":78502242},{"NoteNumber":59,"Velocity":52,"Duration":207792,"SoundDuration":207792,"Delta":78502242},{"NoteNumber":46,"Velocity":37,"Duration":148676,"SoundDuration":148676,"Delta":78632112},{"NoteNumber":55,"Velocity":39,"Duration":109715,"SoundDuration":109715,"Delta":78671073},{"NoteNumber":72,"Velocity":50,"Duration":214295,"SoundDuration":214295,"Delta":78710034},{"NoteNumber":60,"Velocity":50,"Duration":190372,"SoundDuration":190372,"Delta":78710034},{"NoteNumber":63,"Velocity":41,"Duration":70754,"SoundDuration":70754,"Delta":78710034},{"NoteNumber":73,"Velocity":56,"Duration":215311,"SoundDuration":215311,"Delta":78900407},{"NoteNumber":61,"Velocity":56,"Duration":191387,"SoundDuration":191387,"Delta":78900407},{"NoteNumber":74,"Velocity":60,"Duration":216963,"SoundDuration":216963,"Delta":79091794},{"NoteNumber":62,"Velocity":60,"Duration":191387,"SoundDuration":191387,"Delta":79091794},{"NoteNumber":75,"Velocity":84,"Duration":992758,"SoundDuration":992758,"Delta":79283182},{"NoteNumber":63,"Velocity":71,"Duration":676968,"SoundDuration":676968,"Delta":79283182},{"NoteNumber":39,"Velocity":53,"Duration":153452,"SoundDuration":153452,"Delta":79283182},{"NoteNumber":46,"Velocity":42,"Duration":139884,"SoundDuration":139884,"Delta":79820266},{"NoteNumber":55,"Velocity":45,"Duration":101521,"SoundDuration":101521,"Delta":79858630},{"NoteNumber":63,"Velocity":48,"Duration":378947,"SoundDuration":378947,"Delta":79896993},{"NoteNumber":79,"Velocity":66,"Duration":126315,"SoundDuration":126315,"Delta":80275940},{"NoteNumber":67,"Velocity":56,"Duration":126315,"SoundDuration":126315,"Delta":80275940},{"NoteNumber":80,"Velocity":73,"Duration":69767,"SoundDuration":69767,"Delta":80402256},{"NoteNumber":68,"Velocity":61,"Duration":69767,"SoundDuration":69767,"Delta":80402256},{"NoteNumber":46,"Velocity":44,"Duration":139534,"SoundDuration":139534,"Delta":80890628},{"NoteNumber":55,"Velocity":46,"Duration":104651,"SoundDuration":104651,"Delta":80925512},{"NoteNumber":81,"Velocity":78,"Duration":69767,"SoundDuration":69767,"Delta":80960396},{"NoteNumber":69,"Velocity":66,"Duration":69767,"SoundDuration":69767,"Delta":80960396},{"NoteNumber":63,"Velocity":47,"Duration":69767,"SoundDuration":69767,"Delta":80960396},{"NoteNumber":70,"Velocity":44,"Duration":71770,"SoundDuration":71770,"Delta":81389015},{"NoteNumber":75,"Velocity":46,"Duration":71770,"SoundDuration":71770,"Delta":81460786},{"NoteNumber":82,"Velocity":60,"Duration":77528,"SoundDuration":77528,"Delta":81532556},{"NoteNumber":39,"Velocity":48,"Duration":134831,"SoundDuration":134831,"Delta":81532556},{"NoteNumber":84,"Velocity":45,"Duration":76404,"SoundDuration":76404,"Delta":81610084},{"NoteNumber":82,"Velocity":45,"Duration":77528,"SoundDuration":77528,"Delta":81686489},{"NoteNumber":81,"Velocity":45,"Duration":77528,"SoundDuration":77528,"Delta":81762893},{"NoteNumber":82,"Velocity":45,"Duration":76404,"SoundDuration":76404,"Delta":81840421},{"NoteNumber":84,"Velocity":52,"Duration":77528,"SoundDuration":77528,"Delta":81916826},{"NoteNumber":82,"Velocity":45,"Duration":76404,"SoundDuration":76404,"Delta":81994354},{"NoteNumber":46,"Velocity":36,"Duration":130177,"SoundDuration":130177,"Delta":82004466},{"NoteNumber":55,"Velocity":38,"Duration":96469,"SoundDuration":96469,"Delta":82038174},{"NoteNumber":75,"Velocity":52,"Duration":73221,"SoundDuration":73221,"Delta":82071882},{"NoteNumber":63,"Velocity":40,"Duration":62761,"SoundDuration":62761,"Delta":82071882},{"NoteNumber":70,"Velocity":47,"Duration":72175,"SoundDuration":72175,"Delta":82145104},{"NoteNumber":63,"Velocity":51,"Duration":73221,"SoundDuration":73221,"Delta":82217279},{"NoteNumber":70,"Velocity":58,"Duration":73221,"SoundDuration":73221,"Delta":82290501},{"NoteNumber":75,"Velocity":62,"Duration":72175,"SoundDuration":72175,"Delta":82363723},{"NoteNumber":82,"Velocity":68,"Duration":62761,"SoundDuration":62761,"Delta":82435899},{"NoteNumber":82,"Velocity":74,"Duration":65899,"SoundDuration":65899,"Delta":82508074},{"NoteNumber":91,"Velocity":85,"Duration":75000,"SoundDuration":75000,"Delta":82573974},{"NoteNumber":87,"Velocity":75,"Duration":75000,"SoundDuration":75000,"Delta":82573974},{"NoteNumber":46,"Velocity":35,"Duration":143807,"SoundDuration":143807,"Delta":83098974},{"NoteNumber":55,"Velocity":37,"Duration":106307,"SoundDuration":106307,"Delta":83136474},{"NoteNumber":63,"Velocity":38,"Duration":68807,"SoundDuration":68807,"Delta":83173974},{"NoteNumber":67,"Velocity":54,"Duration":126146,"SoundDuration":126146,"Delta":83449203},{"NoteNumber":70,"Velocity":54,"Duration":126146,"SoundDuration":126146,"Delta":83449203},{"NoteNumber":67,"Velocity":33,"Duration":68807,"SoundDuration":68807,"Delta":83586818},{"NoteNumber":70,"Velocity":40,"Duration":68807,"SoundDuration":68807,"Delta":83586818},{"NoteNumber":66,"Velocity":33,"Duration":68807,"SoundDuration":68807,"Delta":83655626},{"NoteNumber":69,"Velocity":40,"Duration":68807,"SoundDuration":68807,"Delta":83655626},{"NoteNumber":65,"Velocity":39,"Duration":66518,"SoundDuration":66518,"Delta":83724433},{"NoteNumber":68,"Velocity":49,"Duration":66518,"SoundDuration":66518,"Delta":83724433},{"NoteNumber":39,"Velocity":35,"Duration":133037,"SoundDuration":133037,"Delta":83724433},{"NoteNumber":82,"Velocity":42,"Duration":66518,"SoundDuration":66518,"Delta":84123546},{"NoteNumber":79,"Velocity":36,"Duration":66518,"SoundDuration":66518,"Delta":84123546},{"NoteNumber":46,"Velocity":31,"Duration":161761,"SoundDuration":161761,"Delta":84156806},{"NoteNumber":81,"Velocity":43,"Duration":66518,"SoundDuration":66518,"Delta":84190065},{"NoteNumber":78,"Velocity":37,"Duration":66518,"SoundDuration":66518,"Delta":84190065},{"NoteNumber":53,"Velocity":33,"Duration":128502,"SoundDuration":128502,"Delta":84190065},{"NoteNumber":56,"Velocity":34,"Duration":95242,"SoundDuration":95242,"Delta":84223325},{"NoteNumber":77,"Velocity":44,"Duration":61983,"SoundDuration":61983,"Delta":84256584},{"NoteNumber":80,"Velocity":50,"Duration":61983,"SoundDuration":61983,"Delta":84256584},{"NoteNumber":62,"Velocity":36,"Duration":61983,"SoundDuration":61983,"Delta":84256584},{"NoteNumber":94,"Velocity":41,"Duration":61983,"SoundDuration":61983,"Delta":84628485},{"NoteNumber":91,"Velocity":36,"Duration":61983,"SoundDuration":61983,"Delta":84628485},{"NoteNumber":90,"Velocity":37,"Duration":61983,"SoundDuration":61983,"Delta":84690468},{"NoteNumber":93,"Velocity":41,"Duration":61983,"SoundDuration":61983,"Delta":84690468},{"NoteNumber":92,"Velocity":48,"Duration":66964,"SoundDuration":66964,"Delta":84752452},{"NoteNumber":89,"Velocity":44,"Duration":66964,"SoundDuration":66964,"Delta":84752452},{"NoteNumber":64,"Velocity":36,"Duration":133928,"SoundDuration":133928,"Delta":85154237},{"NoteNumber":67,"Velocity":42,"Duration":133928,"SoundDuration":133928,"Delta":85154237},{"NoteNumber":46,"Velocity":32,"Duration":135301,"SoundDuration":135301,"Delta":85221202},{"NoteNumber":53,"Velocity":32,"Duration":135301,"SoundDuration":135301,"Delta":85221202},{"NoteNumber":56,"Velocity":34,"Duration":101819,"SoundDuration":101819,"Delta":85254684},{"NoteNumber":65,"Velocity":41,"Duration":182232,"SoundDuration":182232,"Delta":85288166},{"NoteNumber":68,"Velocity":49,"Duration":182232,"SoundDuration":182232,"Delta":85288166},{"NoteNumber":62,"Velocity":36,"Duration":68337,"SoundDuration":68337,"Delta":85288166},{"NoteNumber":68,"Velocity":38,"Duration":311821,"SoundDuration":311821,"Delta":85470398},{"NoteNumber":72,"Velocity":44,"Duration":311821,"SoundDuration":311821,"Delta":85470398},{"NoteNumber":67,"Velocity":38,"Duration":117647,"SoundDuration":117647,"Delta":85782220},{"NoteNumber":70,"Velocity":44,"Duration":117647,"SoundDuration":117647,"Delta":85782220},{"NoteNumber":67,"Velocity":52,"Duration":653951,"SoundDuration":653951,"Delta":85899867},{"NoteNumber":63,"Velocity":44,"Duration":653951,"SoundDuration":653951,"Delta":85899867},{"NoteNumber":39,"Velocity":35,"Duration":163487,"SoundDuration":163487,"Delta":85899867},{"NoteNumber":46,"Velocity":35,"Duration":149617,"SoundDuration":149617,"Delta":86472074},{"NoteNumber":55,"Velocity":37,"Duration":108745,"SoundDuration":108745,"Delta":86512946},{"NoteNumber":63,"Velocity":39,"Duration":67873,"SoundDuration":67873,"Delta":86553818},{"NoteNumber":46,"Velocity":35,"Duration":129856,"SoundDuration":129856,"Delta":87571917},{"NoteNumber":55,"Velocity":37,"Duration":95920,"SoundDuration":95920,"Delta":87605853},{"NoteNumber":85,"Velocity":69,"Duration":495868,"SoundDuration":495868,"Delta":87639790},{"NoteNumber":82,"Velocity":55,"Duration":495868,"SoundDuration":495868,"Delta":87639790},{"NoteNumber":63,"Velocity":39,"Duration":61983,"SoundDuration":61983,"Delta":87639790},{"NoteNumber":84,"Velocity":58,"Duration":404494,"SoundDuration":404494,"Delta":88135658},{"NoteNumber":80,"Velocity":48,"Duration":404494,"SoundDuration":404494,"Delta":88135658},{"NoteNumber":39,"Velocity":36,"Duration":134831,"SoundDuration":134831,"Delta":88135658},{"NoteNumber":86,"Velocity":43,"Duration":63559,"SoundDuration":63559,"Delta":88540152},{"NoteNumber":84,"Velocity":49,"Duration":63559,"SoundDuration":63559,"Delta":88603712},{"NoteNumber":48,"Velocity":36,"Duration":128354,"SoundDuration":128354,"Delta":88603712},{"NoteNumber":56,"Velocity":38,"Duration":96574,"SoundDuration":96574,"Delta":88635492},{"NoteNumber":82,"Velocity":54,"Duration":64794,"SoundDuration":64794,"Delta":88667271},{"NoteNumber":79,"Velocity":46,"Duration":64794,"SoundDuration":64794,"Delta":88667271},{"NoteNumber":63,"Velocity":40,"Duration":64794,"SoundDuration":64794,"Delta":88667271},{"NoteNumber":80,"Velocity":49,"Duration":64794,"SoundDuration":64794,"Delta":88926451},{"NoteNumber":77,"Velocity":40,"Duration":64794,"SoundDuration":64794,"Delta":88926451},{"NoteNumber":79,"Velocity":51,"Duration":65645,"SoundDuration":65645,"Delta":89185630},{"NoteNumber":75,"Velocity":43,"Duration":65645,"SoundDuration":65645,"Delta":89185630},{"NoteNumber":77,"Velocity":46,"Duration":65645,"SoundDuration":65645,"Delta":89448212},{"NoteNumber":70,"Velocity":38,"Duration":65645,"SoundDuration":65645,"Delta":89448212},{"NoteNumber":51,"Velocity":35,"Duration":133518,"SoundDuration":133518,"Delta":89645149},{"NoteNumber":58,"Velocity":37,"Duration":100696,"SoundDuration":100696,"Delta":89677971},{"NoteNumber":75,"Velocity":54,"Duration":67873,"SoundDuration":67873,"Delta":89710794},{"NoteNumber":67,"Velocity":46,"Duration":67873,"SoundDuration":67873,"Delta":89710794},{"NoteNumber":63,"Velocity":39,"Duration":67873,"SoundDuration":67873,"Delta":89710794},{"NoteNumber":67,"Velocity":48,"Duration":145630,"SoundDuration":145630,"Delta":90118034},{"NoteNumber":63,"Velocity":40,"Duration":145630,"SoundDuration":145630,"Delta":90118034},{"NoteNumber":68,"Velocity":61,"Duration":266075,"SoundDuration":266075,"Delta":90263665},{"NoteNumber":65,"Velocity":52,"Duration":266075,"SoundDuration":266075,"Delta":90263665},{"NoteNumber":39,"Velocity":36,"Duration":133037,"SoundDuration":133037,"Delta":90263665},{"NoteNumber":70,"Velocity":45,"Duration":66518,"SoundDuration":66518,"Delta":90529740},{"NoteNumber":68,"Velocity":45,"Duration":66518,"SoundDuration":66518,"Delta":90596259},{"NoteNumber":67,"Velocity":51,"Duration":133037,"SoundDuration":133037,"Delta":90662778},{"NoteNumber":64,"Velocity":43,"Duration":133037,"SoundDuration":133037,"Delta":90662778},{"NoteNumber":46,"Velocity":36,"Duration":164155,"SoundDuration":164155,"Delta":90696037},{"NoteNumber":53,"Velocity":38,"Duration":130896,"SoundDuration":130896,"Delta":90729297},{"NoteNumber":56,"Velocity":38,"Duration":97637,"SoundDuration":97637,"Delta":90762556},{"NoteNumber":68,"Velocity":56,"Duration":64377,"SoundDuration":64377,"Delta":90795816},{"NoteNumber":65,"Velocity":47,"Duration":64377,"SoundDuration":64377,"Delta":90795816},{"NoteNumber":62,"Velocity":40,"Duration":64377,"SoundDuration":64377,"Delta":90795816},{"NoteNumber":69,"Velocity":54,"Duration":68337,"SoundDuration":68337,"Delta":91053326},{"NoteNumber":66,"Velocity":46,"Duration":68337,"SoundDuration":68337,"Delta":91053326},{"NoteNumber":70,"Velocity":59,"Duration":281030,"SoundDuration":281030,"Delta":91326675},{"NoteNumber":67,"Velocity":50,"Duration":281030,"SoundDuration":281030,"Delta":91326675},{"NoteNumber":51,"Velocity":35,"Duration":132241,"SoundDuration":132241,"Delta":91818478},{"NoteNumber":55,"Velocity":37,"Duration":97112,"SoundDuration":97112,"Delta":91853607},{"NoteNumber":85,"Velocity":69,"Duration":495868,"SoundDuration":495868,"Delta":91888736},{"NoteNumber":82,"Velocity":55,"Duration":495868,"SoundDuration":495868,"Delta":91888736},{"NoteNumber":63,"Velocity":39,"Duration":61983,"SoundDuration":61983,"Delta":91888736},{"NoteNumber":84,"Velocity":58,"Duration":404494,"SoundDuration":404494,"Delta":92384604},{"NoteNumber":80,"Velocity":48,"Duration":404494,"SoundDuration":404494,"Delta":92384604},{"NoteNumber":39,"Velocity":36,"Duration":134831,"SoundDuration":134831,"Delta":92384604},{"NoteNumber":86,"Velocity":43,"Duration":63559,"SoundDuration":63559,"Delta":92789098},{"NoteNumber":84,"Velocity":49,"Duration":63559,"SoundDuration":63559,"Delta":92852658},{"NoteNumber":48,"Velocity":36,"Duration":125929,"SoundDuration":125929,"Delta":92852658},{"NoteNumber":56,"Velocity":38,"Duration":94149,"SoundDuration":94149,"Delta":92884437},{"NoteNumber":82,"Velocity":54,"Duration":62370,"SoundDuration":62370,"Delta":92916217},{"NoteNumber":79,"Velocity":46,"Duration":62370,"SoundDuration":62370,"Delta":92916217},{"NoteNumber":63,"Velocity":40,"Duration":62370,"SoundDuration":62370,"Delta":92916217},{"NoteNumber":80,"Velocity":49,"Duration":62370,"SoundDuration":62370,"Delta":93165697},{"NoteNumber":77,"Velocity":40,"Duration":62370,"SoundDuration":62370,"Delta":93165697},{"NoteNumber":79,"Velocity":51,"Duration":65645,"SoundDuration":65645,"Delta":93415177},{"NoteNumber":75,"Velocity":43,"Duration":65645,"SoundDuration":65645,"Delta":93415177},{"NoteNumber":77,"Velocity":46,"Duration":65645,"SoundDuration":65645,"Delta":93677759},{"NoteNumber":70,"Velocity":38,"Duration":65645,"SoundDuration":65645,"Delta":93677759},{"NoteNumber":51,"Velocity":35,"Duration":133518,"SoundDuration":133518,"Delta":93874695},{"NoteNumber":58,"Velocity":37,"Duration":100696,"SoundDuration":100696,"Delta":93907518},{"NoteNumber":75,"Velocity":54,"Duration":67873,"SoundDuration":67873,"Delta":93940341},{"NoteNumber":67,"Velocity":46,"Duration":67873,"SoundDuration":67873,"Delta":93940341},{"NoteNumber":63,"Velocity":39,"Duration":67873,"SoundDuration":67873,"Delta":93940341},{"NoteNumber":67,"Velocity":48,"Duration":145630,"SoundDuration":145630,"Delta":94347580},{"NoteNumber":63,"Velocity":40,"Duration":145630,"SoundDuration":145630,"Delta":94347580},{"NoteNumber":68,"Velocity":61,"Duration":266075,"SoundDuration":266075,"Delta":94493211},{"NoteNumber":65,"Velocity":52,"Duration":266075,"SoundDuration":266075,"Delta":94493211},{"NoteNumber":39,"Velocity":36,"Duration":133037,"SoundDuration":133037,"Delta":94493211},{"NoteNumber":70,"Velocity":45,"Duration":66518,"SoundDuration":66518,"Delta":94759287},{"NoteNumber":68,"Velocity":45,"Duration":66518,"SoundDuration":66518,"Delta":94825806},{"NoteNumber":67,"Velocity":51,"Duration":133037,"SoundDuration":133037,"Delta":94892325},{"NoteNumber":64,"Velocity":43,"Duration":133037,"SoundDuration":133037,"Delta":94892325},{"NoteNumber":46,"Velocity":36,"Duration":164155,"SoundDuration":164155,"Delta":94925584},{"NoteNumber":53,"Velocity":38,"Duration":130896,"SoundDuration":130896,"Delta":94958844},{"NoteNumber":56,"Velocity":38,"Duration":97637,"SoundDuration":97637,"Delta":94992103},{"NoteNumber":68,"Velocity":56,"Duration":64377,"SoundDuration":64377,"Delta":95025362},{"NoteNumber":65,"Velocity":47,"Duration":64377,"SoundDuration":64377,"Delta":95025362},{"NoteNumber":62,"Velocity":40,"Duration":64377,"SoundDuration":64377,"Delta":95025362},{"NoteNumber":70,"Velocity":54,"Duration":68337,"SoundDuration":68337,"Delta":95282873},{"NoteNumber":62,"Velocity":46,"Duration":68337,"SoundDuration":68337,"Delta":95282873},{"NoteNumber":63,"Velocity":59,"Duration":281030,"SoundDuration":281030,"Delta":95556221},{"NoteNumber":51,"Velocity":35,"Duration":137673,"SoundDuration":137673,"Delta":96048025},{"NoteNumber":55,"Velocity":37,"Duration":102544,"SoundDuration":102544,"Delta":96083154},{"NoteNumber":82,"Velocity":63,"Duration":471910,"SoundDuration":471910,"Delta":96118282},{"NoteNumber":63,"Velocity":39,"Duration":67415,"SoundDuration":67415,"Delta":96118282},{"NoteNumber":87,"Velocity":67,"Duration":438202,"SoundDuration":438202,"Delta":96151990},{"NoteNumber":97,"Velocity":71,"Duration":404494,"SoundDuration":404494,"Delta":96185698},{"NoteNumber":80,"Velocity":64,"Duration":471910,"SoundDuration":471910,"Delta":96590193},{"NoteNumber":87,"Velocity":66,"Duration":438202,"SoundDuration":438202,"Delta":96623901},{"NoteNumber":96,"Velocity":69,"Duration":404494,"SoundDuration":404494,"Delta":96657608},{"NoteNumber":39,"Velocity":36,"Duration":134831,"SoundDuration":134831,"Delta":96657608},{"NoteNumber":94,"Velocity":40,"Duration":63559,"SoundDuration":63559,"Delta":97062103},{"NoteNumber":98,"Velocity":48,"Duration":63559,"SoundDuration":63559,"Delta":97062103},{"NoteNumber":92,"Velocity":42,"Duration":63559,"SoundDuration":63559,"Delta":97125662},{"NoteNumber":96,"Velocity":55,"Duration":63559,"SoundDuration":63559,"Delta":97125662},{"NoteNumber":48,"Velocity":36,"Duration":125929,"SoundDuration":125929,"Delta":97125662},{"NoteNumber":56,"Velocity":38,"Duration":94149,"SoundDuration":94149,"Delta":97157442},{"NoteNumber":94,"Velocity":61,"Duration":124740,"SoundDuration":124740,"Delta":97189222},{"NoteNumber":91,"Velocity":61,"Duration":124740,"SoundDuration":124740,"Delta":97189222},{"NoteNumber":63,"Velocity":40,"Duration":62370,"SoundDuration":62370,"Delta":97189222},{"NoteNumber":92,"Velocity":51,"Duration":62370,"SoundDuration":62370,"Delta":97438702},{"NoteNumber":89,"Velocity":51,"Duration":62370,"SoundDuration":62370,"Delta":97438702},{"NoteNumber":91,"Velocity":56,"Duration":65645,"SoundDuration":65645,"Delta":97688182},{"NoteNumber":87,"Velocity":56,"Duration":65645,"SoundDuration":65645,"Delta":97688182},{"NoteNumber":89,"Velocity":49,"Duration":65645,"SoundDuration":65645,"Delta":97950764},{"NoteNumber":82,"Velocity":49,"Duration":65645,"SoundDuration":65645,"Delta":97950764},{"NoteNumber":51,"Velocity":35,"Duration":133518,"SoundDuration":133518,"Delta":98147700},{"NoteNumber":58,"Velocity":37,"Duration":100696,"SoundDuration":100696,"Delta":98180523},{"NoteNumber":87,"Velocity":55,"Duration":67873,"SoundDuration":67873,"Delta":98213346},{"NoteNumber":79,"Velocity":55,"Duration":67873,"SoundDuration":67873,"Delta":98213346},{"NoteNumber":63,"Velocity":39,"Duration":67873,"SoundDuration":67873,"Delta":98213346},{"NoteNumber":63,"Velocity":40,"Duration":72815,"SoundDuration":72815,"Delta":98693401},{"NoteNumber":67,"Velocity":48,"Duration":72815,"SoundDuration":72815,"Delta":98693401},{"NoteNumber":68,"Velocity":61,"Duration":266075,"SoundDuration":266075,"Delta":98766216},{"NoteNumber":65,"Velocity":52,"Duration":266075,"SoundDuration":266075,"Delta":98766216},{"NoteNumber":39,"Velocity":36,"Duration":133037,"SoundDuration":133037,"Delta":98766216},{"NoteNumber":70,"Velocity":45,"Duration":66518,"SoundDuration":66518,"Delta":99032292},{"NoteNumber":68,"Velocity":45,"Duration":66518,"SoundDuration":66518,"Delta":99098811},{"NoteNumber":67,"Velocity":51,"Duration":133037,"SoundDuration":133037,"Delta":99165329},{"NoteNumber":64,"Velocity":43,"Duration":133037,"SoundDuration":133037,"Delta":99165329},{"NoteNumber":46,"Velocity":36,"Duration":164155,"SoundDuration":164155,"Delta":99198589},{"NoteNumber":53,"Velocity":38,"Duration":130896,"SoundDuration":130896,"Delta":99231848},{"NoteNumber":56,"Velocity":38,"Duration":97637,"SoundDuration":97637,"Delta":99265108},{"NoteNumber":68,"Velocity":56,"Duration":64377,"SoundDuration":64377,"Delta":99298367},{"NoteNumber":65,"Velocity":47,"Duration":64377,"SoundDuration":64377,"Delta":99298367},{"NoteNumber":62,"Velocity":40,"Duration":64377,"SoundDuration":64377,"Delta":99298367},{"NoteNumber":69,"Velocity":54,"Duration":68337,"SoundDuration":68337,"Delta":99555878},{"NoteNumber":66,"Velocity":46,"Duration":68337,"SoundDuration":68337,"Delta":99555878},{"NoteNumber":70,"Velocity":59,"Duration":281030,"SoundDuration":281030,"Delta":99829226},{"NoteNumber":67,"Velocity":50,"Duration":281030,"SoundDuration":281030,"Delta":99829226},{"NoteNumber":51,"Velocity":35,"Duration":138130,"SoundDuration":138130,"Delta":100321030},{"NoteNumber":55,"Velocity":37,"Duration":103002,"SoundDuration":103002,"Delta":100356158},{"NoteNumber":82,"Velocity":61,"Duration":407239,"SoundDuration":407239,"Delta":100391287},{"NoteNumber":63,"Velocity":39,"Duration":67873,"SoundDuration":67873,"Delta":100391287},{"NoteNumber":87,"Velocity":65,"Duration":441176,"SoundDuration":441176,"Delta":100425224},{"NoteNumber":97,"Velocity":68,"Duration":407239,"SoundDuration":407239,"Delta":100459160},{"NoteNumber":80,"Velocity":61,"Duration":472367,"SoundDuration":472367,"Delta":100866400},{"NoteNumber":87,"Velocity":64,"Duration":438431,"SoundDuration":438431,"Delta":100900337},{"NoteNumber":96,"Velocity":67,"Duration":404494,"SoundDuration":404494,"Delta":100934273},{"NoteNumber":39,"Velocity":36,"Duration":134831,"SoundDuration":134831,"Delta":100934273},{"NoteNumber":94,"Velocity":31,"Duration":63559,"SoundDuration":63559,"Delta":101338768},{"NoteNumber":98,"Velocity":51,"Duration":63559,"SoundDuration":63559,"Delta":101338768},{"NoteNumber":92,"Velocity":42,"Duration":63559,"SoundDuration":63559,"Delta":101402327},{"NoteNumber":96,"Velocity":55,"Duration":63559,"SoundDuration":63559,"Delta":101402327},{"NoteNumber":48,"Velocity":36,"Duration":125929,"SoundDuration":125929,"Delta":101402327},{"NoteNumber":56,"Velocity":38,"Duration":94149,"SoundDuration":94149,"Delta":101434107},{"NoteNumber":94,"Velocity":60,"Duration":124740,"SoundDuration":124740,"Delta":101465886},{"NoteNumber":91,"Velocity":60,"Duration":124740,"SoundDuration":124740,"Delta":101465886},{"NoteNumber":63,"Velocity":40,"Duration":62370,"SoundDuration":62370,"Delta":101465886},{"NoteNumber":92,"Velocity":54,"Duration":62370,"SoundDuration":62370,"Delta":101715366},{"NoteNumber":89,"Velocity":54,"Duration":62370,"SoundDuration":62370,"Delta":101715366},{"NoteNumber":91,"Velocity":58,"Duration":65645,"SoundDuration":65645,"Delta":101964846},{"NoteNumber":87,"Velocity":58,"Duration":65645,"SoundDuration":65645,"Delta":101964846},{"NoteNumber":89,"Velocity":54,"Duration":65645,"SoundDuration":65645,"Delta":102227428},{"NoteNumber":82,"Velocity":54,"Duration":65645,"SoundDuration":65645,"Delta":102227428},{"NoteNumber":51,"Velocity":35,"Duration":135739,"SoundDuration":135739,"Delta":102424365},{"NoteNumber":58,"Velocity":37,"Duration":102916,"SoundDuration":102916,"Delta":102457188},{"NoteNumber":87,"Velocity":63,"Duration":70093,"SoundDuration":70093,"Delta":102490010},{"NoteNumber":79,"Velocity":63,"Duration":70093,"SoundDuration":70093,"Delta":102490010},{"NoteNumber":63,"Velocity":39,"Duration":70093,"SoundDuration":70093,"Delta":102490010},{"NoteNumber":67,"Velocity":48,"Duration":145630,"SoundDuration":145630,"Delta":102910571},{"NoteNumber":63,"Velocity":40,"Duration":145630,"SoundDuration":145630,"Delta":102910571},{"NoteNumber":68,"Velocity":61,"Duration":844156,"SoundDuration":844156,"Delta":103056202},{"NoteNumber":65,"Velocity":52,"Duration":844156,"SoundDuration":844156,"Delta":103056202},{"NoteNumber":39,"Velocity":36,"Duration":142857,"SoundDuration":142857,"Delta":103056202},{"NoteNumber":46,"Velocity":36,"Duration":175324,"SoundDuration":175324,"Delta":103520489},{"NoteNumber":53,"Velocity":38,"Duration":139610,"SoundDuration":139610,"Delta":103556203},{"NoteNumber":56,"Velocity":38,"Duration":103896,"SoundDuration":103896,"Delta":103591917},{"NoteNumber":62,"Velocity":40,"Duration":68181,"SoundDuration":68181,"Delta":103627631},{"NoteNumber":64,"Velocity":43,"Duration":312500,"SoundDuration":312500,"Delta":103900359},{"NoteNumber":67,"Velocity":51,"Duration":324862,"SoundDuration":324862,"Delta":103900359},{"NoteNumber":65,"Velocity":47,"Duration":82417,"SoundDuration":82417,"Delta":104212859},{"NoteNumber":68,"Velocity":56,"Duration":82417,"SoundDuration":82417,"Delta":104212859},{"NoteNumber":62,"Velocity":46,"Duration":92592,"SoundDuration":92592,"Delta":104872200},{"NoteNumber":70,"Velocity":54,"Duration":92592,"SoundDuration":92592,"Delta":104872200},{"NoteNumber":34,"Velocity":61,"Duration":78125,"SoundDuration":78125,"Delta":105505881},{"NoteNumber":39,"Velocity":68,"Duration":775308,"SoundDuration":775308,"Delta":105584006},{"NoteNumber":58,"Velocity":40,"Duration":179078,"SoundDuration":179078,"Delta":106067876},{"NoteNumber":63,"Velocity":42,"Duration":141857,"SoundDuration":141857,"Delta":106105097},{"NoteNumber":67,"Velocity":44,"Duration":104636,"SoundDuration":104636,"Delta":106142318},{"NoteNumber":70,"Velocity":46,"Duration":67415,"SoundDuration":67415,"Delta":106179539},{"NoteNumber":43,"Velocity":64,"Duration":89887,"SoundDuration":89887,"Delta":106359314},{"NoteNumber":44,"Velocity":64,"Duration":89887,"SoundDuration":89887,"Delta":106539089},{"NoteNumber":45,"Velocity":68,"Duration":93676,"SoundDuration":93676,"Delta":106718865},{"NoteNumber":46,"Velocity":64,"Duration":93676,"SoundDuration":93676,"Delta":106906218},{"NoteNumber":51,"Velocity":64,"Duration":93676,"SoundDuration":93676,"Delta":107093572},{"NoteNumber":67,"Velocity":40,"Duration":173723,"SoundDuration":173723,"Delta":107175539},{"NoteNumber":70,"Velocity":42,"Duration":138594,"SoundDuration":138594,"Delta":107210668},{"NoteNumber":75,"Velocity":44,"Duration":103465,"SoundDuration":103465,"Delta":107245797},{"NoteNumber":79,"Velocity":46,"Duration":68337,"SoundDuration":68337,"Delta":107280926},{"NoteNumber":55,"Velocity":68,"Duration":91116,"SoundDuration":91116,"Delta":107280926},{"NoteNumber":56,"Velocity":64,"Duration":91116,"SoundDuration":91116,"Delta":107463158},{"NoteNumber":57,"Velocity":64,"Duration":34168,"SoundDuration":34168,"Delta":107645390},{"NoteNumber":57,"Velocity":56,"Duration":45558,"SoundDuration":45558,"Delta":107690948},{"NoteNumber":58,"Velocity":50,"Duration":45558,"SoundDuration":45558,"Delta":107736507},{"NoteNumber":60,"Velocity":46,"Duration":45846,"SoundDuration":45846,"Delta":107782065},{"NoteNumber":58,"Velocity":58,"Duration":56206,"SoundDuration":56206,"Delta":107827911},{"NoteNumber":60,"Velocity":50,"Duration":55969,"SoundDuration":55969,"Delta":107884117},{"NoteNumber":58,"Velocity":57,"Duration":55797,"SoundDuration":55797,"Delta":107940086},{"NoteNumber":60,"Velocity":50,"Duration":55427,"SoundDuration":55427,"Delta":107995884},{"NoteNumber":58,"Velocity":56,"Duration":55252,"SoundDuration":55252,"Delta":108051311},{"NoteNumber":60,"Velocity":49,"Duration":55045,"SoundDuration":55045,"Delta":108106564},{"NoteNumber":58,"Velocity":55,"Duration":54716,"SoundDuration":54716,"Delta":108161610},{"NoteNumber":60,"Velocity":50,"Duration":54561,"SoundDuration":54561,"Delta":108216326},{"NoteNumber":58,"Velocity":56,"Duration":54298,"SoundDuration":54298,"Delta":108270888},{"NoteNumber":79,"Velocity":42,"Duration":164312,"SoundDuration":164312,"Delta":108277675},{"NoteNumber":82,"Velocity":44,"Duration":130375,"SoundDuration":130375,"Delta":108311612},{"NoteNumber":60,"Velocity":48,"Duration":54039,"SoundDuration":54039,"Delta":108325186},{"NoteNumber":87,"Velocity":45,"Duration":96469,"SoundDuration":96469,"Delta":108345518},{"NoteNumber":91,"Velocity":47,"Duration":62761,"SoundDuration":62761,"Delta":108379226},{"NoteNumber":58,"Velocity":55,"Duration":50209,"SoundDuration":50209,"Delta":108379226},{"NoteNumber":60,"Velocity":50,"Duration":50209,"SoundDuration":50209,"Delta":108429435},{"NoteNumber":58,"Velocity":58,"Duration":50209,"SoundDuration":50209,"Delta":108479644},{"NoteNumber":60,"Velocity":51,"Duration":50209,"SoundDuration":50209,"Delta":108529853},{"NoteNumber":58,"Velocity":60,"Duration":50209,"SoundDuration":50209,"Delta":108580063},{"NoteNumber":60,"Velocity":56,"Duration":62761,"SoundDuration":62761,"Delta":108630272},{"NoteNumber":58,"Velocity":63,"Duration":62761,"SoundDuration":62761,"Delta":108693033},{"NoteNumber":57,"Velocity":60,"Duration":62761,"SoundDuration":62761,"Delta":108755795},{"NoteNumber":58,"Velocity":60,"Duration":62761,"SoundDuration":62761,"Delta":108818556},{"NoteNumber":63,"Velocity":74,"Duration":140515,"SoundDuration":140515,"Delta":108881318},{"NoteNumber":46,"Velocity":52,"Duration":140515,"SoundDuration":140515,"Delta":109373121},{"NoteNumber":55,"Velocity":56,"Duration":105386,"SoundDuration":105386,"Delta":109408250},{"NoteNumber":63,"Velocity":58,"Duration":70257,"SoundDuration":70257,"Delta":109443379},{"NoteNumber":70,"Velocity":40,"Duration":140515,"SoundDuration":140515,"Delta":109864925},{"NoteNumber":67,"Velocity":34,"Duration":140515,"SoundDuration":140515,"Delta":109864925},{"NoteNumber":68,"Velocity":45,"Duration":136674,"SoundDuration":136674,"Delta":110005440},{"NoteNumber":65,"Velocity":38,"Duration":136674,"SoundDuration":136674,"Delta":110005440},{"NoteNumber":39,"Velocity":35,"Duration":136674,"SoundDuration":136674,"Delta":110005440},{"NoteNumber":75,"Velocity":40,"Duration":136674,"SoundDuration":136674,"Delta":110142114},{"NoteNumber":72,"Velocity":34,"Duration":136674,"SoundDuration":136674,"Delta":110142114},{"NoteNumber":74,"Velocity":45,"Duration":136674,"SoundDuration":136674,"Delta":110278788},{"NoteNumber":70,"Velocity":38,"Duration":136674,"SoundDuration":136674,"Delta":110278788},{"NoteNumber":79,"Velocity":41,"Duration":136674,"SoundDuration":136674,"Delta":110415463},{"NoteNumber":75,"Velocity":34,"Duration":136674,"SoundDuration":136674,"Delta":110415463},{"NoteNumber":46,"Velocity":31,"Duration":164489,"SoundDuration":164489,"Delta":110449631},{"NoteNumber":53,"Velocity":33,"Duration":130320,"SoundDuration":130320,"Delta":110483800},{"NoteNumber":56,"Velocity":34,"Duration":96152,"SoundDuration":96152,"Delta":110517968},{"NoteNumber":77,"Velocity":48,"Duration":123966,"SoundDuration":123966,"Delta":110552137},{"NoteNumber":74,"Velocity":40,"Duration":123966,"SoundDuration":123966,"Delta":110552137},{"NoteNumber":62,"Velocity":36,"Duration":61983,"SoundDuration":61983,"Delta":110552137},{"NoteNumber":84,"Velocity":43,"Duration":123967,"SoundDuration":123967,"Delta":110676104},{"NoteNumber":80,"Velocity":36,"Duration":123967,"SoundDuration":123967,"Delta":110676104},{"NoteNumber":82,"Velocity":43,"Duration":132158,"SoundDuration":132158,"Delta":110800071},{"NoteNumber":79,"Velocity":36,"Duration":132158,"SoundDuration":132158,"Delta":110800071},{"NoteNumber":80,"Velocity":43,"Duration":132158,"SoundDuration":132158,"Delta":110932229},{"NoteNumber":77,"Velocity":36,"Duration":132158,"SoundDuration":132158,"Delta":110932229},{"NoteNumber":79,"Velocity":49,"Duration":133928,"SoundDuration":133928,"Delta":111064388},{"NoteNumber":75,"Velocity":49,"Duration":133928,"SoundDuration":133928,"Delta":111064388},{"NoteNumber":77,"Velocity":44,"Duration":133928,"SoundDuration":133928,"Delta":111198316},{"NoteNumber":74,"Velocity":37,"Duration":133928,"SoundDuration":133928,"Delta":111198316},{"NoteNumber":75,"Velocity":44,"Duration":133928,"SoundDuration":133928,"Delta":111332245},{"NoteNumber":72,"Velocity":37,"Duration":133928,"SoundDuration":133928,"Delta":111332245},{"NoteNumber":74,"Velocity":44,"Duration":133928,"SoundDuration":133928,"Delta":111466173},{"NoteNumber":70,"Velocity":37,"Duration":133928,"SoundDuration":133928,"Delta":111466173},{"NoteNumber":46,"Velocity":32,"Duration":135771,"SoundDuration":135771,"Delta":111533138},{"NoteNumber":53,"Velocity":32,"Duration":135771,"SoundDuration":135771,"Delta":111533138},{"NoteNumber":56,"Velocity":34,"Duration":102289,"SoundDuration":102289,"Delta":111566620},{"NoteNumber":72,"Velocity":47,"Duration":137614,"SoundDuration":137614,"Delta":111600102},{"NoteNumber":68,"Velocity":39,"Duration":137614,"SoundDuration":137614,"Delta":111600102},{"NoteNumber":62,"Velocity":36,"Duration":68807,"SoundDuration":68807,"Delta":111600102},{"NoteNumber":70,"Velocity":45,"Duration":137614,"SoundDuration":137614,"Delta":111737717},{"NoteNumber":67,"Velocity":38,"Duration":137614,"SoundDuration":137614,"Delta":111737717},{"NoteNumber":69,"Velocity":43,"Duration":94043,"SoundDuration":94043,"Delta":111875331},{"NoteNumber":66,"Velocity":36,"Duration":94043,"SoundDuration":94043,"Delta":111875331},{"NoteNumber":68,"Velocity":40,"Duration":79155,"SoundDuration":79155,"Delta":112142575},{"NoteNumber":65,"Velocity":34,"Duration":79155,"SoundDuration":79155,"Delta":112142575},{"NoteNumber":67,"Velocity":45,"Duration":653951,"SoundDuration":653951,"Delta":112221730},{"NoteNumber":63,"Velocity":38,"Duration":653951,"SoundDuration":653951,"Delta":112221730},{"NoteNumber":39,"Velocity":35,"Duration":163487,"SoundDuration":163487,"Delta":112221730},{"NoteNumber":46,"Velocity":32,"Duration":151027,"SoundDuration":151027,"Delta":112793937},{"NoteNumber":55,"Velocity":35,"Duration":110156,"SoundDuration":110156,"Delta":112834809},{"NoteNumber":63,"Velocity":38,"Duration":69284,"SoundDuration":69284,"Delta":112875681},{"NoteNumber":46,"Velocity":31,"Duration":148676,"SoundDuration":148676,"Delta":113975409},{"NoteNumber":55,"Velocity":34,"Duration":109715,"SoundDuration":109715,"Delta":114014370},{"NoteNumber":63,"Velocity":36,"Duration":70754,"SoundDuration":70754,"Delta":114053331},{"NoteNumber":34,"Velocity":61,"Duration":77319,"SoundDuration":77319,"Delta":114548615},{"NoteNumber":39,"Velocity":68,"Duration":763519,"SoundDuration":763519,"Delta":114625934},{"NoteNumber":58,"Velocity":40,"Duration":177096,"SoundDuration":177096,"Delta":115099235},{"NoteNumber":63,"Velocity":42,"Duration":140688,"SoundDuration":140688,"Delta":115135643},{"NoteNumber":67,"Velocity":44,"Duration":104281,"SoundDuration":104281,"Delta":115172050},{"NoteNumber":70,"Velocity":46,"Duration":67873,"SoundDuration":67873,"Delta":115208458},{"NoteNumber":43,"Velocity":64,"Duration":90497,"SoundDuration":90497,"Delta":115389454},{"NoteNumber":44,"Velocity":64,"Duration":90497,"SoundDuration":90497,"Delta":115570449},{"NoteNumber":45,"Velocity":68,"Duration":95011,"SoundDuration":95011,"Delta":115751444},{"NoteNumber":46,"Velocity":64,"Duration":95011,"SoundDuration":95011,"Delta":115941468},{"NoteNumber":51,"Velocity":64,"Duration":95011,"SoundDuration":95011,"Delta":116131492},{"NoteNumber":67,"Velocity":40,"Duration":176172,"SoundDuration":176172,"Delta":116214627},{"NoteNumber":70,"Velocity":42,"Duration":140542,"SoundDuration":140542,"Delta":116250256},{"NoteNumber":75,"Velocity":44,"Duration":104913,"SoundDuration":104913,"Delta":116285886},{"NoteNumber":79,"Velocity":46,"Duration":69284,"SoundDuration":69284,"Delta":116321515},{"NoteNumber":55,"Velocity":68,"Duration":92378,"SoundDuration":92378,"Delta":116321515},{"NoteNumber":56,"Velocity":64,"Duration":92378,"SoundDuration":92378,"Delta":116506273},{"NoteNumber":57,"Velocity":64,"Duration":34642,"SoundDuration":34642,"Delta":116691031},{"NoteNumber":57,"Velocity":56,"Duration":46189,"SoundDuration":46189,"Delta":116737220},{"NoteNumber":58,"Velocity":50,"Duration":46189,"SoundDuration":46189,"Delta":116783409},{"NoteNumber":60,"Velocity":46,"Duration":46335,"SoundDuration":46335,"Delta":116829599},{"NoteNumber":58,"Velocity":58,"Duration":56206,"SoundDuration":56206,"Delta":116875934},{"NoteNumber":60,"Velocity":50,"Duration":55969,"SoundDuration":55969,"Delta":116932140},{"NoteNumber":58,"Velocity":57,"Duration":55797,"SoundDuration":55797,"Delta":116988110},{"NoteNumber":60,"Velocity":50,"Duration":55427,"SoundDuration":55427,"Delta":117043907},{"NoteNumber":58,"Velocity":56,"Duration":55252,"SoundDuration":55252,"Delta":117099335},{"NoteNumber":60,"Velocity":49,"Duration":55045,"SoundDuration":55045,"Delta":117154587},{"NoteNumber":58,"Velocity":55,"Duration":54716,"SoundDuration":54716,"Delta":117209633},{"NoteNumber":60,"Velocity":50,"Duration":54561,"SoundDuration":54561,"Delta":117264350},{"NoteNumber":58,"Velocity":56,"Duration":54298,"SoundDuration":54298,"Delta":117318911},{"NoteNumber":79,"Velocity":42,"Duration":164312,"SoundDuration":164312,"Delta":117325699},{"NoteNumber":82,"Velocity":44,"Duration":130375,"SoundDuration":130375,"Delta":117359635},{"NoteNumber":60,"Velocity":48,"Duration":54039,"SoundDuration":54039,"Delta":117373210},{"NoteNumber":87,"Velocity":45,"Duration":96469,"SoundDuration":96469,"Delta":117393541},{"NoteNumber":91,"Velocity":47,"Duration":62761,"SoundDuration":62761,"Delta":117427249},{"NoteNumber":58,"Velocity":55,"Duration":50209,"SoundDuration":50209,"Delta":117427249},{"NoteNumber":60,"Velocity":50,"Duration":50209,"SoundDuration":50209,"Delta":117477458},{"NoteNumber":58,"Velocity":58,"Duration":50209,"SoundDuration":50209,"Delta":117527668},{"NoteNumber":60,"Velocity":51,"Duration":50209,"SoundDuration":50209,"Delta":117577877},{"NoteNumber":58,"Velocity":60,"Duration":50209,"SoundDuration":50209,"Delta":117628086},{"NoteNumber":60,"Velocity":56,"Duration":62761,"SoundDuration":62761,"Delta":117678295},{"NoteNumber":58,"Velocity":63,"Duration":62761,"SoundDuration":62761,"Delta":117741057},{"NoteNumber":57,"Velocity":60,"Duration":62761,"SoundDuration":62761,"Delta":117803818},{"NoteNumber":58,"Velocity":60,"Duration":62761,"SoundDuration":62761,"Delta":117866580},{"NoteNumber":67,"Velocity":74,"Duration":140515,"SoundDuration":140515,"Delta":117929341},{"NoteNumber":63,"Velocity":68,"Duration":140515,"SoundDuration":140515,"Delta":117929341},{"NoteNumber":46,"Velocity":57,"Duration":140515,"SoundDuration":140515,"Delta":118421145},{"NoteNumber":55,"Velocity":61,"Duration":105386,"SoundDuration":105386,"Delta":118456273},{"NoteNumber":63,"Velocity":63,"Duration":70257,"SoundDuration":70257,"Delta":118491402},{"NoteNumber":70,"Velocity":40,"Duration":140515,"SoundDuration":140515,"Delta":118912948},{"NoteNumber":67,"Velocity":34,"Duration":140515,"SoundDuration":140515,"Delta":118912948},{"NoteNumber":67,"Velocity":40,"Duration":112675,"SoundDuration":112675,"Delta":119053463},{"NoteNumber":70,"Velocity":45,"Duration":112675,"SoundDuration":112675,"Delta":119053463},{"NoteNumber":39,"Velocity":35,"Duration":169014,"SoundDuration":169014,"Delta":119053463},{"NoteNumber":66,"Velocity":36,"Duration":112676,"SoundDuration":112676,"Delta":119166139},{"NoteNumber":69,"Velocity":41,"Duration":112676,"SoundDuration":112676,"Delta":119166139},{"NoteNumber":65,"Velocity":36,"Duration":121951,"SoundDuration":121951,"Delta":119278815},{"NoteNumber":68,"Velocity":41,"Duration":121951,"SoundDuration":121951,"Delta":119278815},{"NoteNumber":72,"Velocity":40,"Duration":112675,"SoundDuration":112675,"Delta":119400766},{"NoteNumber":75,"Velocity":45,"Duration":225352,"SoundDuration":225352,"Delta":119400766},{"NoteNumber":71,"Velocity":40,"Duration":112676,"SoundDuration":112676,"Delta":119513442},{"NoteNumber":46,"Velocity":31,"Duration":213465,"SoundDuration":213465,"Delta":119612034},{"NoteNumber":70,"Velocity":34,"Duration":112675,"SoundDuration":112675,"Delta":119626118},{"NoteNumber":74,"Velocity":40,"Duration":112675,"SoundDuration":112675,"Delta":119626118},{"NoteNumber":53,"Velocity":33,"Duration":171212,"SoundDuration":171212,"Delta":119654287},{"NoteNumber":56,"Velocity":34,"Duration":128958,"SoundDuration":128958,"Delta":119696541},{"NoteNumber":75,"Velocity":44,"Duration":237308,"SoundDuration":237308,"Delta":119738794},{"NoteNumber":79,"Velocity":51,"Duration":115606,"SoundDuration":115606,"Delta":119738794},{"NoteNumber":62,"Velocity":36,"Duration":86705,"SoundDuration":86705,"Delta":119738794},{"NoteNumber":78,"Velocity":49,"Duration":121701,"SoundDuration":121701,"Delta":119854401},{"NoteNumber":74,"Velocity":42,"Duration":127795,"SoundDuration":127795,"Delta":119976103},{"NoteNumber":77,"Velocity":49,"Duration":127795,"SoundDuration":127795,"Delta":119976103},{"NoteNumber":84,"Velocity":60,"Duration":118577,"SoundDuration":118577,"Delta":120103898},{"NoteNumber":80,"Velocity":53,"Duration":118577,"SoundDuration":118577,"Delta":120103898},{"NoteNumber":79,"Velocity":45,"Duration":177854,"SoundDuration":177854,"Delta":121180796},{"NoteNumber":76,"Velocity":45,"Duration":177854,"SoundDuration":177854,"Delta":121180796},{"NoteNumber":80,"Velocity":45,"Duration":168710,"SoundDuration":168710,"Delta":121358650},{"NoteNumber":77,"Velocity":45,"Duration":168710,"SoundDuration":168710,"Delta":121358650},{"NoteNumber":76,"Velocity":45,"Duration":157386,"SoundDuration":157386,"Delta":121527361},{"NoteNumber":73,"Velocity":45,"Duration":157386,"SoundDuration":157386,"Delta":121527361},{"NoteNumber":74,"Velocity":45,"Duration":147142,"SoundDuration":147142,"Delta":121684748},{"NoteNumber":77,"Velocity":45,"Duration":147142,"SoundDuration":147142,"Delta":121684748},{"NoteNumber":73,"Velocity":45,"Duration":139462,"SoundDuration":139462,"Delta":121831890},{"NoteNumber":69,"Velocity":45,"Duration":139462,"SoundDuration":139462,"Delta":121831890},{"NoteNumber":70,"Velocity":45,"Duration":138135,"SoundDuration":138135,"Delta":121971353},{"NoteNumber":74,"Velocity":45,"Duration":138135,"SoundDuration":138135,"Delta":121971353},{"NoteNumber":67,"Velocity":45,"Duration":134270,"SoundDuration":134270,"Delta":122109488},{"NoteNumber":71,"Velocity":45,"Duration":134270,"SoundDuration":134270,"Delta":122109488},{"NoteNumber":46,"Velocity":25,"Duration":180730,"SoundDuration":180730,"Delta":122143457},{"NoteNumber":53,"Velocity":28,"Duration":147098,"SoundDuration":147098,"Delta":122177089},{"NoteNumber":56,"Velocity":34,"Duration":113614,"SoundDuration":113614,"Delta":122210573},{"NoteNumber":68,"Velocity":45,"Duration":80428,"SoundDuration":80428,"Delta":122243759},{"NoteNumber":72,"Velocity":45,"Duration":80428,"SoundDuration":80428,"Delta":122243759},{"NoteNumber":62,"Velocity":36,"Duration":80428,"SoundDuration":80428,"Delta":122243759},{"NoteNumber":64,"Velocity":45,"Duration":75000,"SoundDuration":75000,"Delta":122404617},{"NoteNumber":67,"Velocity":45,"Duration":75000,"SoundDuration":75000,"Delta":122404617},{"NoteNumber":67,"Velocity":45,"Duration":77922,"SoundDuration":77922,"Delta":122554617},{"NoteNumber":70,"Velocity":45,"Duration":77922,"SoundDuration":77922,"Delta":122554617},{"NoteNumber":65,"Velocity":45,"Duration":77922,"SoundDuration":77922,"Delta":122710461},{"NoteNumber":68,"Velocity":45,"Duration":77922,"SoundDuration":77922,"Delta":122710461},{"NoteNumber":67,"Velocity":45,"Duration":653951,"SoundDuration":653951,"Delta":122866305},{"NoteNumber":63,"Velocity":38,"Duration":653951,"SoundDuration":653951,"Delta":122866305},{"NoteNumber":39,"Velocity":35,"Duration":163487,"SoundDuration":163487,"Delta":122866305},{"NoteNumber":46,"Velocity":32,"Duration":151027,"SoundDuration":151027,"Delta":123438512},{"NoteNumber":55,"Velocity":35,"Duration":110156,"SoundDuration":110156,"Delta":123479384},{"NoteNumber":63,"Velocity":38,"Duration":69284,"SoundDuration":69284,"Delta":123520256},{"NoteNumber":46,"Velocity":31,"Duration":148676,"SoundDuration":148676,"Delta":124619984},{"NoteNumber":55,"Velocity":34,"Duration":109715,"SoundDuration":109715,"Delta":124658945},{"NoteNumber":63,"Velocity":36,"Duration":70754,"SoundDuration":70754,"Delta":124697906},{"NoteNumber":58,"Velocity":38,"Duration":69284,"SoundDuration":69284,"Delta":125191719},{"NoteNumber":63,"Velocity":52,"Duration":490463,"SoundDuration":490463,"Delta":125261003},{"NoteNumber":39,"Velocity":35,"Duration":163487,"SoundDuration":163487,"Delta":125261003},{"NoteNumber":67,"Velocity":39,"Duration":61307,"SoundDuration":61307,"Delta":125751466},{"NoteNumber":67,"Velocity":36,"Duration":61307,"SoundDuration":61307,"Delta":125833210},{"NoteNumber":46,"Velocity":34,"Duration":158972,"SoundDuration":158972,"Delta":125833210},{"NoteNumber":55,"Velocity":35,"Duration":118100,"SoundDuration":118100,"Delta":125874082},{"NoteNumber":68,"Velocity":39,"Duration":58441,"SoundDuration":58441,"Delta":125914381},{"NoteNumber":63,"Velocity":36,"Duration":77801,"SoundDuration":77801,"Delta":125914381},{"NoteNumber":68,"Velocity":36,"Duration":57811,"SoundDuration":57811,"Delta":125992182},{"NoteNumber":69,"Velocity":39,"Duration":57340,"SoundDuration":57340,"Delta":126069176},{"NoteNumber":69,"Velocity":36,"Duration":56666,"SoundDuration":56666,"Delta":126145551},{"NoteNumber":70,"Velocity":39,"Duration":56194,"SoundDuration":56194,"Delta":126220967},{"NoteNumber":70,"Velocity":36,"Duration":55574,"SoundDuration":55574,"Delta":126295772},{"NoteNumber":75,"Velocity":39,"Duration":55012,"SoundDuration":55012,"Delta":126369774},{"NoteNumber":75,"Velocity":36,"Duration":54488,"SoundDuration":54488,"Delta":126443062},{"NoteNumber":79,"Velocity":39,"Duration":53914,"SoundDuration":53914,"Delta":126515623},{"NoteNumber":79,"Velocity":35,"Duration":54374,"SoundDuration":54374,"Delta":126587583},{"NoteNumber":80,"Velocity":39,"Duration":54985,"SoundDuration":54985,"Delta":126660162},{"NoteNumber":80,"Velocity":35,"Duration":55629,"SoundDuration":55629,"Delta":126733621},{"NoteNumber":81,"Velocity":39,"Duration":56306,"SoundDuration":56306,"Delta":126807861},{"NoteNumber":81,"Velocity":34,"Duration":56943,"SoundDuration":56943,"Delta":126883059},{"NoteNumber":82,"Velocity":39,"Duration":57653,"SoundDuration":57653,"Delta":126959087},{"NoteNumber":82,"Velocity":34,"Duration":58321,"SoundDuration":58321,"Delta":127036070},{"NoteNumber":46,"Velocity":34,"Duration":159545,"SoundDuration":159545,"Delta":127036070},{"NoteNumber":55,"Velocity":35,"Duration":120704,"SoundDuration":120704,"Delta":127074911},{"NoteNumber":87,"Velocity":39,"Duration":61307,"SoundDuration":61307,"Delta":127113872},{"NoteNumber":63,"Velocity":36,"Duration":81743,"SoundDuration":81743,"Delta":127113872},{"NoteNumber":87,"Velocity":34,"Duration":61307,"SoundDuration":61307,"Delta":127195616},{"NoteNumber":91,"Velocity":39,"Duration":61307,"SoundDuration":61307,"Delta":127277360},{"NoteNumber":91,"Velocity":35,"Duration":61307,"SoundDuration":61307,"Delta":127359103},{"NoteNumber":92,"Velocity":41,"Duration":61307,"SoundDuration":61307,"Delta":127440847},{"NoteNumber":92,"Velocity":36,"Duration":61307,"SoundDuration":61307,"Delta":127522591},{"NoteNumber":93,"Velocity":42,"Duration":61307,"SoundDuration":61307,"Delta":127604335},{"NoteNumber":93,"Velocity":37,"Duration":61307,"SoundDuration":61307,"Delta":127686079},{"NoteNumber":93,"Velocity":43,"Duration":87463,"SoundDuration":87463,"Delta":127767823},{"NoteNumber":39,"Velocity":35,"Duration":174926,"SoundDuration":174926,"Delta":127767823},{"NoteNumber":94,"Velocity":38,"Duration":87463,"SoundDuration":87463,"Delta":127855286},{"NoteNumber":96,"Velocity":38,"Duration":87463,"SoundDuration":87463,"Delta":127942750},{"NoteNumber":94,"Velocity":34,"Duration":87463,"SoundDuration":87463,"Delta":128030213},{"NoteNumber":91,"Velocity":42,"Duration":79787,"SoundDuration":79787,"Delta":128117677},{"NoteNumber":87,"Velocity":35,"Duration":79787,"SoundDuration":79787,"Delta":128197464},{"NoteNumber":84,"Velocity":41,"Duration":79787,"SoundDuration":79787,"Delta":128277251},{"NoteNumber":82,"Velocity":34,"Duration":79787,"SoundDuration":79787,"Delta":128357039},{"NoteNumber":46,"Velocity":33,"Duration":153678,"SoundDuration":153678,"Delta":128357039},{"NoteNumber":55,"Velocity":37,"Duration":113785,"SoundDuration":113785,"Delta":128396932},{"NoteNumber":79,"Velocity":40,"Duration":73891,"SoundDuration":73891,"Delta":128436826},{"NoteNumber":63,"Velocity":35,"Duration":110837,"SoundDuration":110837,"Delta":128436826},{"NoteNumber":75,"Velocity":33,"Duration":73891,"SoundDuration":73891,"Delta":128510717},{"NoteNumber":72,"Velocity":38,"Duration":73891,"SoundDuration":73891,"Delta":128584609},{"NoteNumber":70,"Velocity":32,"Duration":73891,"SoundDuration":73891,"Delta":128658501},{"NoteNumber":67,"Velocity":38,"Duration":73891,"SoundDuration":73891,"Delta":128732392},{"NoteNumber":63,"Velocity":33,"Duration":73891,"SoundDuration":73891,"Delta":128806284},{"NoteNumber":62,"Velocity":37,"Duration":73891,"SoundDuration":73891,"Delta":128880176},{"NoteNumber":63,"Velocity":34,"Duration":74057,"SoundDuration":74057,"Delta":128954067},{"NoteNumber":67,"Velocity":33,"Duration":75113,"SoundDuration":75113,"Delta":129028125},{"NoteNumber":70,"Velocity":34,"Duration":75701,"SoundDuration":75701,"Delta":129103238},{"NoteNumber":75,"Velocity":35,"Duration":76307,"SoundDuration":76307,"Delta":129178939},{"NoteNumber":79,"Velocity":36,"Duration":76914,"SoundDuration":76914,"Delta":129255247},{"NoteNumber":82,"Velocity":38,"Duration":77731,"SoundDuration":77731,"Delta":129332161},{"NoteNumber":87,"Velocity":39,"Duration":78360,"SoundDuration":78360,"Delta":129409893},{"NoteNumber":91,"Velocity":40,"Duration":79000,"SoundDuration":79000,"Delta":129488253},{"NoteNumber":94,"Velocity":41,"Duration":79757,"SoundDuration":79757,"Delta":129567254},{"NoteNumber":46,"Velocity":35,"Duration":155323,"SoundDuration":155323,"Delta":129567254},{"NoteNumber":55,"Velocity":36,"Duration":115556,"SoundDuration":115556,"Delta":129607021},{"NoteNumber":99,"Velocity":47,"Duration":302267,"SoundDuration":302267,"Delta":129647011},{"NoteNumber":63,"Velocity":38,"Duration":75566,"SoundDuration":75566,"Delta":129647011},{"NoteNumber":70,"Velocity":39,"Duration":75566,"SoundDuration":75566,"Delta":130100411},{"NoteNumber":67,"Velocity":33,"Duration":75566,"SoundDuration":75566,"Delta":130100411},{"NoteNumber":68,"Velocity":47,"Duration":91332,"SoundDuration":91332,"Delta":130251545},{"NoteNumber":65,"Velocity":39,"Duration":91332,"SoundDuration":91332,"Delta":130251545},{"NoteNumber":39,"Velocity":35,"Duration":136998,"SoundDuration":136998,"Delta":130251545},{"NoteNumber":82,"Velocity":39,"Duration":105540,"SoundDuration":105540,"Delta":130441314},{"NoteNumber":67,"Velocity":39,"Duration":105540,"SoundDuration":105540,"Delta":130652396},{"NoteNumber":64,"Velocity":33,"Duration":105540,"SoundDuration":105540,"Delta":130652396},{"NoteNumber":46,"Velocity":31,"Duration":185819,"SoundDuration":185819,"Delta":130744744},{"NoteNumber":53,"Velocity":33,"Duration":146241,"SoundDuration":146241,"Delta":130784322},{"NoteNumber":56,"Velocity":34,"Duration":106663,"SoundDuration":106663,"Delta":130823899},{"NoteNumber":68,"Velocity":46,"Duration":89694,"SoundDuration":89694,"Delta":130863292},{"NoteNumber":65,"Velocity":39,"Duration":89694,"SoundDuration":89694,"Delta":130863292},{"NoteNumber":62,"Velocity":36,"Duration":67270,"SoundDuration":67270,"Delta":130863292},{"NoteNumber":94,"Velocity":41,"Duration":99999,"SoundDuration":99999,"Delta":131047833},{"NoteNumber":70,"Velocity":41,"Duration":103619,"SoundDuration":103619,"Delta":131247833},{"NoteNumber":67,"Velocity":34,"Duration":103619,"SoundDuration":103619,"Delta":131247833},{"NoteNumber":72,"Velocity":47,"Duration":91751,"SoundDuration":91751,"Delta":131458691},{"NoteNumber":68,"Velocity":39,"Duration":91751,"SoundDuration":91751,"Delta":131458691},{"NoteNumber":82,"Velocity":41,"Duration":102301,"SoundDuration":102301,"Delta":131647470},{"NoteNumber":74,"Velocity":41,"Duration":102301,"SoundDuration":102301,"Delta":131852073},{"NoteNumber":70,"Velocity":34,"Duration":102301,"SoundDuration":102301,"Delta":131852073},{"NoteNumber":46,"Velocity":25,"Duration":125424,"SoundDuration":125424,"Delta":131999132},{"NoteNumber":53,"Velocity":28,"Duration":106242,"SoundDuration":106242,"Delta":132018314},{"NoteNumber":56,"Velocity":34,"Duration":87061,"SoundDuration":87061,"Delta":132037495},{"NoteNumber":75,"Velocity":45,"Duration":90506,"SoundDuration":90506,"Delta":132056677},{"NoteNumber":72,"Velocity":38,"Duration":90506,"SoundDuration":90506,"Delta":132056677},{"NoteNumber":62,"Velocity":36,"Duration":67879,"SoundDuration":67879,"Delta":132056677},{"NoteNumber":94,"Velocity":40,"Duration":101522,"SoundDuration":101522,"Delta":132243197},{"NoteNumber":77,"Velocity":40,"Duration":125399,"SoundDuration":125399,"Delta":132446243},{"NoteNumber":74,"Velocity":34,"Duration":125399,"SoundDuration":125399,"Delta":132446243},{"NoteNumber":79,"Velocity":46,"Duration":110438,"SoundDuration":110438,"Delta":132706641},{"NoteNumber":75,"Velocity":39,"Duration":110438,"SoundDuration":110438,"Delta":132706641},{"NoteNumber":39,"Velocity":35,"Duration":164746,"SoundDuration":164746,"Delta":132706641},{"NoteNumber":77,"Velocity":40,"Duration":108014,"SoundDuration":108014,"Delta":132817079},{"NoteNumber":70,"Velocity":34,"Duration":108014,"SoundDuration":108014,"Delta":132817079},{"NoteNumber":75,"Velocity":40,"Duration":106093,"SoundDuration":106093,"Delta":132925094},{"NoteNumber":67,"Velocity":34,"Duration":106093,"SoundDuration":106093,"Delta":132925094},{"NoteNumber":77,"Velocity":40,"Duration":104049,"SoundDuration":104049,"Delta":133031187},{"NoteNumber":70,"Velocity":34,"Duration":104049,"SoundDuration":104049,"Delta":133031187},{"NoteNumber":79,"Velocity":40,"Duration":103896,"SoundDuration":103896,"Delta":133135236},{"NoteNumber":75,"Velocity":34,"Duration":103896,"SoundDuration":103896,"Delta":133135236},{"NoteNumber":77,"Velocity":34,"Duration":103675,"SoundDuration":103675,"Delta":133237834},{"NoteNumber":82,"Velocity":41,"Duration":103665,"SoundDuration":103665,"Delta":133239133},{"NoteNumber":46,"Velocity":33,"Duration":155091,"SoundDuration":155091,"Delta":133265107},{"NoteNumber":55,"Velocity":37,"Duration":116130,"SoundDuration":116130,"Delta":133304068},{"NoteNumber":87,"Velocity":43,"Duration":103374,"SoundDuration":103374,"Delta":133342798},{"NoteNumber":79,"Velocity":36,"Duration":103374,"SoundDuration":103374,"Delta":133342798},{"NoteNumber":63,"Velocity":35,"Duration":116361,"SoundDuration":116361,"Delta":133342798},{"NoteNumber":89,"Velocity":44,"Duration":104549,"SoundDuration":104549,"Delta":133446172},{"NoteNumber":82,"Velocity":37,"Duration":104549,"SoundDuration":104549,"Delta":133446172},{"NoteNumber":91,"Velocity":45,"Duration":105919,"SoundDuration":105919,"Delta":133550722},{"NoteNumber":87,"Velocity":38,"Duration":105919,"SoundDuration":105919,"Delta":133550722},{"NoteNumber":94,"Velocity":45,"Duration":107241,"SoundDuration":107241,"Delta":133656641},{"NoteNumber":89,"Velocity":38,"Duration":107241,"SoundDuration":107241,"Delta":133656641},{"NoteNumber":99,"Velocity":46,"Duration":108594,"SoundDuration":108594,"Delta":133763883},{"NoteNumber":91,"Velocity":39,"Duration":108594,"SoundDuration":108594,"Delta":133763883},{"NoteNumber":101,"Velocity":47,"Duration":109396,"SoundDuration":109396,"Delta":133872477},{"NoteNumber":94,"Velocity":39,"Duration":109396,"SoundDuration":109396,"Delta":133872477},{"NoteNumber":99,"Velocity":57,"Duration":152284,"SoundDuration":152284,"Delta":133981873},{"NoteNumber":103,"Velocity":57,"Duration":152284,"SoundDuration":152284,"Delta":133981873},{"NoteNumber":46,"Velocity":35,"Duration":152284,"SoundDuration":152284,"Delta":134514868},{"NoteNumber":55,"Velocity":36,"Duration":114213,"SoundDuration":114213,"Delta":134552939},{"NoteNumber":63,"Velocity":38,"Duration":76142,"SoundDuration":76142,"Delta":134591010},{"NoteNumber":58,"Velocity":38,"Duration":138568,"SoundDuration":138568,"Delta":135047863},{"NoteNumber":63,"Velocity":52,"Duration":490463,"SoundDuration":490463,"Delta":135186431},{"NoteNumber":39,"Velocity":35,"Duration":163487,"SoundDuration":163487,"Delta":135186431},{"NoteNumber":67,"Velocity":39,"Duration":61307,"SoundDuration":61307,"Delta":135676894},{"NoteNumber":67,"Velocity":36,"Duration":61307,"SoundDuration":61307,"Delta":135758638},{"NoteNumber":46,"Velocity":34,"Duration":158972,"SoundDuration":158972,"Delta":135758638},{"NoteNumber":55,"Velocity":35,"Duration":118100,"SoundDuration":118100,"Delta":135799510},{"NoteNumber":68,"Velocity":39,"Duration":58441,"SoundDuration":58441,"Delta":135839809},{"NoteNumber":63,"Velocity":36,"Duration":77801,"SoundDuration":77801,"Delta":135839809},{"NoteNumber":68,"Velocity":36,"Duration":57811,"SoundDuration":57811,"Delta":135917610},{"NoteNumber":69,"Velocity":39,"Duration":57340,"SoundDuration":57340,"Delta":135994604},{"NoteNumber":69,"Velocity":36,"Duration":56666,"SoundDuration":56666,"Delta":136070980},{"NoteNumber":70,"Velocity":39,"Duration":56194,"SoundDuration":56194,"Delta":136146396},{"NoteNumber":70,"Velocity":36,"Duration":55574,"SoundDuration":55574,"Delta":136221200},{"NoteNumber":75,"Velocity":39,"Duration":55012,"SoundDuration":55012,"Delta":136295202},{"NoteNumber":75,"Velocity":36,"Duration":54488,"SoundDuration":54488,"Delta":136368490},{"NoteNumber":79,"Velocity":39,"Duration":53914,"SoundDuration":53914,"Delta":136441051},{"NoteNumber":79,"Velocity":35,"Duration":54374,"SoundDuration":54374,"Delta":136513011},{"NoteNumber":80,"Velocity":39,"Duration":54985,"SoundDuration":54985,"Delta":136585590},{"NoteNumber":80,"Velocity":35,"Duration":55629,"SoundDuration":55629,"Delta":136659049},{"NoteNumber":81,"Velocity":39,"Duration":56306,"SoundDuration":56306,"Delta":136733289},{"NoteNumber":81,"Velocity":34,"Duration":56943,"SoundDuration":56943,"Delta":136808487},{"NoteNumber":82,"Velocity":39,"Duration":57653,"SoundDuration":57653,"Delta":136884515},{"NoteNumber":82,"Velocity":34,"Duration":58321,"SoundDuration":58321,"Delta":136961498},{"NoteNumber":46,"Velocity":34,"Duration":159545,"SoundDuration":159545,"Delta":136961498},{"NoteNumber":55,"Velocity":35,"Duration":120704,"SoundDuration":120704,"Delta":137000339},{"NoteNumber":87,"Velocity":39,"Duration":61307,"SoundDuration":61307,"Delta":137039300},{"NoteNumber":63,"Velocity":36,"Duration":81743,"SoundDuration":81743,"Delta":137039300},{"NoteNumber":87,"Velocity":34,"Duration":61307,"SoundDuration":61307,"Delta":137121044},{"NoteNumber":91,"Velocity":39,"Duration":61307,"SoundDuration":61307,"Delta":137202788},{"NoteNumber":91,"Velocity":35,"Duration":61307,"SoundDuration":61307,"Delta":137284532},{"NoteNumber":92,"Velocity":41,"Duration":61307,"SoundDuration":61307,"Delta":137366275},{"NoteNumber":92,"Velocity":36,"Duration":61307,"SoundDuration":61307,"Delta":137448019},{"NoteNumber":93,"Velocity":42,"Duration":61307,"SoundDuration":61307,"Delta":137529763},{"NoteNumber":93,"Velocity":37,"Duration":61307,"SoundDuration":61307,"Delta":137611507},{"NoteNumber":93,"Velocity":43,"Duration":87463,"SoundDuration":87463,"Delta":137693251},{"NoteNumber":39,"Velocity":35,"Duration":174926,"SoundDuration":174926,"Delta":137693251},{"NoteNumber":94,"Velocity":38,"Duration":87463,"SoundDuration":87463,"Delta":137780714},{"NoteNumber":96,"Velocity":38,"Duration":87463,"SoundDuration":87463,"Delta":137868178},{"NoteNumber":94,"Velocity":34,"Duration":87463,"SoundDuration":87463,"Delta":137955641},{"NoteNumber":91,"Velocity":42,"Duration":79787,"SoundDuration":79787,"Delta":138043105},{"NoteNumber":87,"Velocity":35,"Duration":79787,"SoundDuration":79787,"Delta":138122892},{"NoteNumber":84,"Velocity":41,"Duration":79787,"SoundDuration":79787,"Delta":138202679},{"NoteNumber":82,"Velocity":34,"Duration":79787,"SoundDuration":79787,"Delta":138282467},{"NoteNumber":46,"Velocity":33,"Duration":153678,"SoundDuration":153678,"Delta":138282467},{"NoteNumber":55,"Velocity":37,"Duration":113785,"SoundDuration":113785,"Delta":138322360},{"NoteNumber":79,"Velocity":40,"Duration":73891,"SoundDuration":73891,"Delta":138362254},{"NoteNumber":63,"Velocity":35,"Duration":110837,"SoundDuration":110837,"Delta":138362254},{"NoteNumber":75,"Velocity":33,"Duration":73891,"SoundDuration":73891,"Delta":138436146},{"NoteNumber":72,"Velocity":38,"Duration":73891,"SoundDuration":73891,"Delta":138510037},{"NoteNumber":70,"Velocity":32,"Duration":73891,"SoundDuration":73891,"Delta":138583929},{"NoteNumber":67,"Velocity":38,"Duration":73891,"SoundDuration":73891,"Delta":138657820},{"NoteNumber":63,"Velocity":33,"Duration":73891,"SoundDuration":73891,"Delta":138731712},{"NoteNumber":62,"Velocity":37,"Duration":73891,"SoundDuration":73891,"Delta":138805604},{"NoteNumber":63,"Velocity":34,"Duration":74057,"SoundDuration":74057,"Delta":138879495},{"NoteNumber":67,"Velocity":33,"Duration":75113,"SoundDuration":75113,"Delta":138953553},{"NoteNumber":70,"Velocity":34,"Duration":75701,"SoundDuration":75701,"Delta":139028667},{"NoteNumber":75,"Velocity":36,"Duration":76307,"SoundDuration":76307,"Delta":139104368},{"NoteNumber":79,"Velocity":38,"Duration":76914,"SoundDuration":76914,"Delta":139180675},{"NoteNumber":82,"Velocity":41,"Duration":77731,"SoundDuration":77731,"Delta":139257589},{"NoteNumber":87,"Velocity":43,"Duration":78360,"SoundDuration":78360,"Delta":139335321},{"NoteNumber":91,"Velocity":45,"Duration":79000,"SoundDuration":79000,"Delta":139413681},{"NoteNumber":94,"Velocity":47,"Duration":79757,"SoundDuration":79757,"Delta":139492682},{"NoteNumber":46,"Velocity":35,"Duration":155323,"SoundDuration":155323,"Delta":139492682},{"NoteNumber":55,"Velocity":36,"Duration":115556,"SoundDuration":115556,"Delta":139532449},{"NoteNumber":99,"Velocity":46,"Duration":302267,"SoundDuration":302267,"Delta":139572439},{"NoteNumber":103,"Velocity":54,"Duration":302267,"SoundDuration":302267,"Delta":139572439},{"NoteNumber":63,"Velocity":38,"Duration":75566,"SoundDuration":75566,"Delta":139572439},{"NoteNumber":67,"Velocity":33,"Duration":56675,"SoundDuration":56675,"Delta":140101406},{"NoteNumber":70,"Velocity":39,"Duration":56675,"SoundDuration":56675,"Delta":140101406},{"NoteNumber":68,"Velocity":47,"Duration":93676,"SoundDuration":93676,"Delta":140176973},{"NoteNumber":65,"Velocity":39,"Duration":93676,"SoundDuration":93676,"Delta":140176973},{"NoteNumber":39,"Velocity":35,"Duration":140515,"SoundDuration":140515,"Delta":140176973},{"NoteNumber":82,"Velocity":39,"Duration":105540,"SoundDuration":105540,"Delta":140370258},{"NoteNumber":67,"Velocity":39,"Duration":105540,"SoundDuration":105540,"Delta":140581340},{"NoteNumber":64,"Velocity":33,"Duration":105540,"SoundDuration":105540,"Delta":140581340},{"NoteNumber":46,"Velocity":31,"Duration":187355,"SoundDuration":187355,"Delta":140673688},{"NoteNumber":53,"Velocity":33,"Duration":147777,"SoundDuration":147777,"Delta":140713266},{"NoteNumber":56,"Velocity":34,"Duration":108200,"SoundDuration":108200,"Delta":140752844},{"NoteNumber":68,"Velocity":46,"Duration":91743,"SoundDuration":91743,"Delta":140792237},{"NoteNumber":65,"Velocity":39,"Duration":91743,"SoundDuration":91743,"Delta":140792237},{"NoteNumber":62,"Velocity":36,"Duration":68807,"SoundDuration":68807,"Delta":140792237},{"NoteNumber":94,"Velocity":41,"Duration":99999,"SoundDuration":99999,"Delta":140979852},{"NoteNumber":70,"Velocity":41,"Duration":103619,"SoundDuration":103619,"Delta":141179852},{"NoteNumber":67,"Velocity":34,"Duration":103619,"SoundDuration":103619,"Delta":141179852},{"NoteNumber":72,"Velocity":47,"Duration":93676,"SoundDuration":93676,"Delta":141390710},{"NoteNumber":68,"Velocity":39,"Duration":93676,"SoundDuration":93676,"Delta":141390710},{"NoteNumber":82,"Velocity":41,"Duration":102301,"SoundDuration":102301,"Delta":141582376},{"NoteNumber":67,"Velocity":34,"Duration":102301,"SoundDuration":102301,"Delta":141786979},{"NoteNumber":70,"Velocity":41,"Duration":102301,"SoundDuration":102301,"Delta":141786979},{"NoteNumber":46,"Velocity":25,"Duration":126828,"SoundDuration":126828,"Delta":141934038},{"NoteNumber":53,"Velocity":28,"Duration":107647,"SoundDuration":107647,"Delta":141953220},{"NoteNumber":56,"Velocity":34,"Duration":88465,"SoundDuration":88465,"Delta":141972401},{"NoteNumber":68,"Velocity":45,"Duration":92378,"SoundDuration":92378,"Delta":141991583},{"NoteNumber":65,"Velocity":38,"Duration":92378,"SoundDuration":92378,"Delta":141991583},{"NoteNumber":62,"Velocity":36,"Duration":69284,"SoundDuration":69284,"Delta":141991583},{"NoteNumber":94,"Velocity":40,"Duration":101522,"SoundDuration":101522,"Delta":142180913},{"NoteNumber":58,"Velocity":34,"Duration":111737,"SoundDuration":111737,"Delta":142383958},{"NoteNumber":65,"Velocity":40,"Duration":111737,"SoundDuration":111737,"Delta":142383958},{"NoteNumber":55,"Velocity":40,"Duration":616270,"SoundDuration":616270,"Delta":142613274},{"NoteNumber":63,"Velocity":40,"Duration":616270,"SoundDuration":616270,"Delta":142613274},{"NoteNumber":39,"Velocity":35,"Duration":160753,"SoundDuration":160753,"Delta":142613274},{"NoteNumber":46,"Velocity":36,"Duration":152293,"SoundDuration":152293,"Delta":143153978},{"NoteNumber":55,"Velocity":38,"Duration":114509,"SoundDuration":114509,"Delta":143191762},{"NoteNumber":63,"Velocity":39,"Duration":115089,"SoundDuration":115089,"Delta":143229545},{"NoteNumber":51,"Velocity":35,"Duration":140107,"SoundDuration":140107,"Delta":144390523},{"NoteNumber":58,"Velocity":36,"Duration":102036,"SoundDuration":102036,"Delta":144428594},{"NoteNumber":82,"Velocity":46,"Duration":85287,"SoundDuration":85287,"Delta":144466665},{"NoteNumber":67,"Velocity":38,"Duration":63965,"SoundDuration":63965,"Delta":144466665},{"NoteNumber":87,"Velocity":45,"Duration":85287,"SoundDuration":85287,"Delta":144551953},{"NoteNumber":97,"Velocity":60,"Duration":85287,"SoundDuration":85287,"Delta":144637241},{"NoteNumber":87,"Velocity":45,"Duration":85287,"SoundDuration":85287,"Delta":144722529},{"NoteNumber":89,"Velocity":45,"Duration":85287,"SoundDuration":85287,"Delta":144807816},{"NoteNumber":87,"Velocity":45,"Duration":85287,"SoundDuration":85287,"Delta":144893104},{"NoteNumber":80,"Velocity":53,"Duration":88105,"SoundDuration":88105,"Delta":144978392},{"NoteNumber":39,"Velocity":35,"Duration":132158,"SoundDuration":132158,"Delta":144978392},{"NoteNumber":87,"Velocity":46,"Duration":88105,"SoundDuration":88105,"Delta":145066498},{"NoteNumber":96,"Velocity":46,"Duration":88105,"SoundDuration":88105,"Delta":145154603},{"NoteNumber":87,"Velocity":57,"Duration":88105,"SoundDuration":88105,"Delta":145242709},{"NoteNumber":89,"Velocity":46,"Duration":88105,"SoundDuration":88105,"Delta":145330815},{"NoteNumber":87,"Velocity":46,"Duration":88105,"SoundDuration":88105,"Delta":145418920},{"NoteNumber":48,"Velocity":34,"Duration":130187,"SoundDuration":130187,"Delta":145440947},{"NoteNumber":56,"Velocity":36,"Duration":97147,"SoundDuration":97147,"Delta":145473986},{"NoteNumber":79,"Velocity":48,"Duration":96161,"SoundDuration":96161,"Delta":145507026},{"NoteNumber":63,"Velocity":38,"Duration":96161,"SoundDuration":96161,"Delta":145507026},{"NoteNumber":94,"Velocity":52,"Duration":96161,"SoundDuration":96161,"Delta":145635242},{"NoteNumber":77,"Velocity":44,"Duration":96162,"SoundDuration":96162,"Delta":145763458},{"NoteNumber":92,"Velocity":52,"Duration":96161,"SoundDuration":96161,"Delta":145891674},{"NoteNumber":75,"Velocity":44,"Duration":93555,"SoundDuration":93555,"Delta":146019890},{"NoteNumber":91,"Velocity":47,"Duration":93555,"SoundDuration":93555,"Delta":146144630},{"NoteNumber":74,"Velocity":41,"Duration":93554,"SoundDuration":93554,"Delta":146269370},{"NoteNumber":90,"Velocity":45,"Duration":93554,"SoundDuration":93554,"Delta":146394110},{"NoteNumber":51,"Velocity":35,"Duration":124740,"SoundDuration":124740,"Delta":146456480},{"NoteNumber":58,"Velocity":36,"Duration":93555,"SoundDuration":93555,"Delta":146487665},{"NoteNumber":75,"Velocity":40,"Duration":93555,"SoundDuration":93555,"Delta":146518850},{"NoteNumber":67,"Velocity":38,"Duration":62369,"SoundDuration":62369,"Delta":146518850},{"NoteNumber":91,"Velocity":45,"Duration":93555,"SoundDuration":93555,"Delta":146643590},{"NoteNumber":76,"Velocity":41,"Duration":93554,"SoundDuration":93554,"Delta":146768330},{"NoteNumber":91,"Velocity":45,"Duration":93554,"SoundDuration":93554,"Delta":146893070},{"NoteNumber":77,"Velocity":42,"Duration":97192,"SoundDuration":97192,"Delta":147017810},{"NoteNumber":39,"Velocity":35,"Duration":129589,"SoundDuration":129589,"Delta":147017810},{"NoteNumber":92,"Velocity":47,"Duration":97192,"SoundDuration":97192,"Delta":147147400},{"NoteNumber":76,"Velocity":43,"Duration":97192,"SoundDuration":97192,"Delta":147276990},{"NoteNumber":91,"Velocity":49,"Duration":97192,"SoundDuration":97192,"Delta":147406579},{"NoteNumber":46,"Velocity":33,"Duration":129589,"SoundDuration":129589,"Delta":147471374},{"NoteNumber":56,"Velocity":35,"Duration":97192,"SoundDuration":97192,"Delta":147503772},{"NoteNumber":77,"Velocity":46,"Duration":97192,"SoundDuration":97192,"Delta":147536169},{"NoteNumber":62,"Velocity":36,"Duration":97192,"SoundDuration":97192,"Delta":147536169},{"NoteNumber":92,"Velocity":52,"Duration":97192,"SoundDuration":97192,"Delta":147665759},{"NoteNumber":78,"Velocity":43,"Duration":97192,"SoundDuration":97192,"Delta":147795349},{"NoteNumber":93,"Velocity":46,"Duration":97192,"SoundDuration":97192,"Delta":147924938},{"NoteNumber":79,"Velocity":47,"Duration":97192,"SoundDuration":97192,"Delta":148054528},{"NoteNumber":94,"Velocity":55,"Duration":97192,"SoundDuration":97192,"Delta":148184118},{"NoteNumber":51,"Velocity":31,"Duration":127164,"SoundDuration":127164,"Delta":148508092},{"NoteNumber":58,"Velocity":34,"Duration":94767,"SoundDuration":94767,"Delta":148540490},{"NoteNumber":70,"Velocity":45,"Duration":83159,"SoundDuration":83159,"Delta":148572887},{"NoteNumber":67,"Velocity":37,"Duration":62369,"SoundDuration":62369,"Delta":148572887},{"NoteNumber":75,"Velocity":38,"Duration":83160,"SoundDuration":83160,"Delta":148656047},{"NoteNumber":85,"Velocity":58,"Duration":83159,"SoundDuration":83159,"Delta":148739207},{"NoteNumber":75,"Velocity":42,"Duration":83159,"SoundDuration":83159,"Delta":148822367},{"NoteNumber":77,"Velocity":38,"Duration":83159,"SoundDuration":83159,"Delta":148905527},{"NoteNumber":75,"Velocity":40,"Duration":83160,"SoundDuration":83160,"Delta":148988687},{"NoteNumber":68,"Velocity":45,"Duration":85113,"SoundDuration":85113,"Delta":149071847},{"NoteNumber":39,"Velocity":35,"Duration":127670,"SoundDuration":127670,"Delta":149071847},{"NoteNumber":75,"Velocity":35,"Duration":85113,"SoundDuration":85113,"Delta":149156961},{"NoteNumber":84,"Velocity":51,"Duration":85113,"SoundDuration":85113,"Delta":149242074},{"NoteNumber":75,"Velocity":35,"Duration":85113,"SoundDuration":85113,"Delta":149327188},{"NoteNumber":77,"Velocity":35,"Duration":85113,"SoundDuration":85113,"Delta":149412302},{"NoteNumber":75,"Velocity":35,"Duration":85113,"SoundDuration":85113,"Delta":149497415},{"NoteNumber":48,"Velocity":32,"Duration":127131,"SoundDuration":127131,"Delta":149518694},{"NoteNumber":56,"Velocity":34,"Duration":95214,"SoundDuration":95214,"Delta":149550611},{"NoteNumber":67,"Velocity":42,"Duration":94944,"SoundDuration":94944,"Delta":149582529},{"NoteNumber":63,"Velocity":35,"Duration":94944,"SoundDuration":94944,"Delta":149582529},{"NoteNumber":82,"Velocity":48,"Duration":94944,"SoundDuration":94944,"Delta":149709122},{"NoteNumber":65,"Velocity":44,"Duration":94944,"SoundDuration":94944,"Delta":149835715},{"NoteNumber":80,"Velocity":48,"Duration":94944,"SoundDuration":94944,"Delta":149962308},{"NoteNumber":63,"Velocity":40,"Duration":93555,"SoundDuration":93555,"Delta":150088901},{"NoteNumber":79,"Velocity":47,"Duration":93555,"SoundDuration":93555,"Delta":150213641},{"NoteNumber":62,"Velocity":39,"Duration":93554,"SoundDuration":93554,"Delta":150338381},{"NoteNumber":78,"Velocity":46,"Duration":93554,"SoundDuration":93554,"Delta":150463121},{"NoteNumber":51,"Velocity":32,"Duration":124740,"SoundDuration":124740,"Delta":150525491},{"NoteNumber":58,"Velocity":34,"Duration":93555,"SoundDuration":93555,"Delta":150556676},{"NoteNumber":63,"Velocity":38,"Duration":93555,"SoundDuration":93555,"Delta":150587861},{"NoteNumber":67,"Velocity":35,"Duration":46777,"SoundDuration":46777,"Delta":150587861},{"NoteNumber":79,"Velocity":45,"Duration":93555,"SoundDuration":93555,"Delta":150712601},{"NoteNumber":64,"Velocity":38,"Duration":93554,"SoundDuration":93554,"Delta":150837341},{"NoteNumber":79,"Velocity":47,"Duration":93554,"SoundDuration":93554,"Delta":150962081},{"NoteNumber":65,"Velocity":41,"Duration":97192,"SoundDuration":97192,"Delta":151086821},{"NoteNumber":39,"Velocity":33,"Duration":129589,"SoundDuration":129589,"Delta":151086821},{"NoteNumber":80,"Velocity":44,"Duration":97192,"SoundDuration":97192,"Delta":151216411},{"NoteNumber":64,"Velocity":38,"Duration":97192,"SoundDuration":97192,"Delta":151346001},{"NoteNumber":79,"Velocity":46,"Duration":97192,"SoundDuration":97192,"Delta":151475590},{"NoteNumber":46,"Velocity":27,"Duration":129589,"SoundDuration":129589,"Delta":151540385},{"NoteNumber":56,"Velocity":28,"Duration":97192,"SoundDuration":97192,"Delta":151572783},{"NoteNumber":65,"Velocity":40,"Duration":97192,"SoundDuration":97192,"Delta":151605180},{"NoteNumber":62,"Velocity":29,"Duration":97192,"SoundDuration":97192,"Delta":151605180},{"NoteNumber":80,"Velocity":45,"Duration":97192,"SoundDuration":97192,"Delta":151734770},{"NoteNumber":61,"Velocity":38,"Duration":97192,"SoundDuration":97192,"Delta":151864360},{"NoteNumber":76,"Velocity":44,"Duration":97192,"SoundDuration":97192,"Delta":151993949},{"NoteNumber":62,"Velocity":40,"Duration":97192,"SoundDuration":97192,"Delta":152123539},{"NoteNumber":77,"Velocity":46,"Duration":97192,"SoundDuration":97192,"Delta":152253129},{"NoteNumber":51,"Velocity":31,"Duration":128760,"SoundDuration":128760,"Delta":152577103},{"NoteNumber":58,"Velocity":33,"Duration":96363,"SoundDuration":96363,"Delta":152609501},{"NoteNumber":82,"Velocity":50,"Duration":85287,"SoundDuration":85287,"Delta":152641898},{"NoteNumber":67,"Velocity":35,"Duration":63965,"SoundDuration":63965,"Delta":152641898},{"NoteNumber":87,"Velocity":45,"Duration":85287,"SoundDuration":85287,"Delta":152727186},{"NoteNumber":97,"Velocity":54,"Duration":85287,"SoundDuration":85287,"Delta":152812474},{"NoteNumber":87,"Velocity":45,"Duration":85287,"SoundDuration":85287,"Delta":152897762},{"NoteNumber":89,"Velocity":45,"Duration":85287,"SoundDuration":85287,"Delta":152983049},{"NoteNumber":87,"Velocity":45,"Duration":85287,"SoundDuration":85287,"Delta":153068337},{"NoteNumber":80,"Velocity":50,"Duration":88105,"SoundDuration":88105,"Delta":153153625},{"NoteNumber":39,"Velocity":35,"Duration":132158,"SoundDuration":132158,"Delta":153153625},{"NoteNumber":87,"Velocity":46,"Duration":88105,"SoundDuration":88105,"Delta":153241731},{"NoteNumber":96,"Velocity":54,"Duration":88105,"SoundDuration":88105,"Delta":153329836},{"NoteNumber":87,"Velocity":46,"Duration":88105,"SoundDuration":88105,"Delta":153417942},{"NoteNumber":89,"Velocity":46,"Duration":86609,"SoundDuration":86609,"Delta":153506048},{"NoteNumber":87,"Velocity":46,"Duration":85113,"SoundDuration":85113,"Delta":153592657},{"NoteNumber":48,"Velocity":34,"Duration":127670,"SoundDuration":127670,"Delta":153613936},{"NoteNumber":56,"Velocity":36,"Duration":95752,"SoundDuration":95752,"Delta":153645853},{"NoteNumber":79,"Velocity":42,"Duration":95752,"SoundDuration":95752,"Delta":153677771},{"NoteNumber":63,"Velocity":38,"Duration":95752,"SoundDuration":95752,"Delta":153677771},{"NoteNumber":94,"Velocity":49,"Duration":95752,"SoundDuration":95752,"Delta":153805442},{"NoteNumber":77,"Velocity":44,"Duration":95752,"SoundDuration":95752,"Delta":153933112},{"NoteNumber":92,"Velocity":47,"Duration":95752,"SoundDuration":95752,"Delta":154060783},{"NoteNumber":75,"Velocity":41,"Duration":93555,"SoundDuration":93555,"Delta":154188453},{"NoteNumber":91,"Velocity":48,"Duration":93555,"SoundDuration":93555,"Delta":154313193},{"NoteNumber":74,"Velocity":41,"Duration":93554,"SoundDuration":93554,"Delta":154437933},{"NoteNumber":90,"Velocity":46,"Duration":93554,"SoundDuration":93554,"Delta":154562673},{"NoteNumber":51,"Velocity":35,"Duration":124740,"SoundDuration":124740,"Delta":154625043},{"NoteNumber":58,"Velocity":36,"Duration":93555,"SoundDuration":93555,"Delta":154656228},{"NoteNumber":75,"Velocity":41,"Duration":93555,"SoundDuration":93555,"Delta":154687413},{"NoteNumber":67,"Velocity":38,"Duration":62369,"SoundDuration":62369,"Delta":154687413},{"NoteNumber":91,"Velocity":46,"Duration":93555,"SoundDuration":93555,"Delta":154812153},{"NoteNumber":76,"Velocity":40,"Duration":93554,"SoundDuration":93554,"Delta":154936893},{"NoteNumber":91,"Velocity":45,"Duration":93554,"SoundDuration":93554,"Delta":155061633},{"NoteNumber":77,"Velocity":39,"Duration":97192,"SoundDuration":97192,"Delta":155186373},{"NoteNumber":39,"Velocity":35,"Duration":129589,"SoundDuration":129589,"Delta":155186373},{"NoteNumber":92,"Velocity":47,"Duration":97192,"SoundDuration":97192,"Delta":155315963},{"NoteNumber":76,"Velocity":40,"Duration":97192,"SoundDuration":97192,"Delta":155445553},{"NoteNumber":91,"Velocity":46,"Duration":97192,"SoundDuration":97192,"Delta":155575142},{"NoteNumber":46,"Velocity":34,"Duration":129589,"SoundDuration":129589,"Delta":155639937},{"NoteNumber":56,"Velocity":35,"Duration":97192,"SoundDuration":97192,"Delta":155672335},{"NoteNumber":77,"Velocity":43,"Duration":97192,"SoundDuration":97192,"Delta":155704732},{"NoteNumber":62,"Velocity":38,"Duration":97192,"SoundDuration":97192,"Delta":155704732},{"NoteNumber":92,"Velocity":48,"Duration":97192,"SoundDuration":97192,"Delta":155834322},{"NoteNumber":78,"Velocity":45,"Duration":97192,"SoundDuration":97192,"Delta":155963912},{"NoteNumber":93,"Velocity":51,"Duration":97192,"SoundDuration":97192,"Delta":156093501},{"NoteNumber":79,"Velocity":47,"Duration":97192,"SoundDuration":97192,"Delta":156223091},{"NoteNumber":94,"Velocity":52,"Duration":97192,"SoundDuration":97192,"Delta":156352681},{"NoteNumber":51,"Velocity":30,"Duration":127164,"SoundDuration":127164,"Delta":156676655},{"NoteNumber":58,"Velocity":33,"Duration":94767,"SoundDuration":94767,"Delta":156709053},{"NoteNumber":70,"Velocity":45,"Duration":83159,"SoundDuration":83159,"Delta":156741450},{"NoteNumber":67,"Velocity":37,"Duration":62369,"SoundDuration":62369,"Delta":156741450},{"NoteNumber":75,"Velocity":38,"Duration":83160,"SoundDuration":83160,"Delta":156824610},{"NoteNumber":85,"Velocity":50,"Duration":83159,"SoundDuration":83159,"Delta":156907770},{"NoteNumber":75,"Velocity":38,"Duration":83159,"SoundDuration":83159,"Delta":156990930},{"NoteNumber":77,"Velocity":38,"Duration":83159,"SoundDuration":83159,"Delta":157074090},{"NoteNumber":75,"Velocity":40,"Duration":83160,"SoundDuration":83160,"Delta":157157250},{"NoteNumber":68,"Velocity":45,"Duration":86393,"SoundDuration":86393,"Delta":157240410},{"NoteNumber":39,"Velocity":35,"Duration":129589,"SoundDuration":129589,"Delta":157240410},{"NoteNumber":75,"Velocity":38,"Duration":86393,"SoundDuration":86393,"Delta":157326803},{"NoteNumber":84,"Velocity":48,"Duration":86393,"SoundDuration":86393,"Delta":157413196},{"NoteNumber":75,"Velocity":38,"Duration":86393,"SoundDuration":86393,"Delta":157499590},{"NoteNumber":77,"Velocity":38,"Duration":86393,"SoundDuration":86393,"Delta":157585983},{"NoteNumber":75,"Velocity":38,"Duration":86393,"SoundDuration":86393,"Delta":157672376},{"NoteNumber":48,"Velocity":31,"Duration":128091,"SoundDuration":128091,"Delta":157693974},{"NoteNumber":56,"Velocity":34,"Duration":95693,"SoundDuration":95693,"Delta":157726372},{"NoteNumber":67,"Velocity":40,"Duration":94944,"SoundDuration":94944,"Delta":157758769},{"NoteNumber":63,"Velocity":36,"Duration":94944,"SoundDuration":94944,"Delta":157758769},{"NoteNumber":82,"Velocity":46,"Duration":94944,"SoundDuration":94944,"Delta":157885362},{"NoteNumber":65,"Velocity":39,"Duration":94944,"SoundDuration":94944,"Delta":158011955},{"NoteNumber":80,"Velocity":47,"Duration":94944,"SoundDuration":94944,"Delta":158138548},{"NoteNumber":63,"Velocity":39,"Duration":93555,"SoundDuration":93555,"Delta":158265141},{"NoteNumber":79,"Velocity":45,"Duration":93555,"SoundDuration":93555,"Delta":158389881},{"NoteNumber":62,"Velocity":40,"Duration":93554,"SoundDuration":93554,"Delta":158514621},{"NoteNumber":78,"Velocity":45,"Duration":93554,"SoundDuration":93554,"Delta":158639361},{"NoteNumber":51,"Velocity":32,"Duration":124740,"SoundDuration":124740,"Delta":158701731},{"NoteNumber":58,"Velocity":34,"Duration":93555,"SoundDuration":93555,"Delta":158732916},{"NoteNumber":63,"Velocity":39,"Duration":93555,"SoundDuration":93555,"Delta":158764101},{"NoteNumber":67,"Velocity":36,"Duration":62369,"SoundDuration":62369,"Delta":158764101},{"NoteNumber":79,"Velocity":43,"Duration":93555,"SoundDuration":93555,"Delta":158888841},{"NoteNumber":64,"Velocity":38,"Duration":93554,"SoundDuration":93554,"Delta":159013581},{"NoteNumber":79,"Velocity":37,"Duration":93649,"SoundDuration":93649,"Delta":159138321},{"NoteNumber":65,"Velocity":44,"Duration":130434,"SoundDuration":130434,"Delta":159264580},{"NoteNumber":39,"Velocity":35,"Duration":130434,"SoundDuration":130434,"Delta":159264580},{"NoteNumber":80,"Velocity":37,"Duration":130300,"SoundDuration":130300,"Delta":159395014},{"NoteNumber":67,"Velocity":47,"Duration":129589,"SoundDuration":129589,"Delta":159525315},{"NoteNumber":82,"Velocity":38,"Duration":129541,"SoundDuration":129541,"Delta":159654905},{"NoteNumber":68,"Velocity":47,"Duration":128755,"SoundDuration":128755,"Delta":159784446},{"NoteNumber":59,"Velocity":30,"Duration":1020059,"SoundDuration":1020059,"Delta":159784446},{"NoteNumber":56,"Velocity":25,"Duration":1020059,"SoundDuration":1020059,"Delta":159784446},{"NoteNumber":47,"Velocity":25,"Duration":1020059,"SoundDuration":1020059,"Delta":159784446},{"NoteNumber":51,"Velocity":25,"Duration":1020059,"SoundDuration":1020059,"Delta":159784446},{"NoteNumber":83,"Velocity":38,"Duration":128624,"SoundDuration":128624,"Delta":159913201},{"NoteNumber":71,"Velocity":45,"Duration":127931,"SoundDuration":127931,"Delta":160041826},{"NoteNumber":88,"Velocity":33,"Duration":127884,"SoundDuration":127884,"Delta":160169758},{"NoteNumber":74,"Velocity":47,"Duration":127118,"SoundDuration":127118,"Delta":160297642},{"NoteNumber":89,"Velocity":37,"Duration":127118,"SoundDuration":127118,"Delta":160424761},{"NoteNumber":76,"Velocity":45,"Duration":126355,"SoundDuration":126355,"Delta":160551880},{"NoteNumber":91,"Velocity":33,"Duration":126269,"SoundDuration":126269,"Delta":160678236},{"NoteNumber":77,"Velocity":45,"Duration":125522,"SoundDuration":125522,"Delta":160804505},{"NoteNumber":59,"Velocity":30,"Duration":996388,"SoundDuration":996388,"Delta":160804505},{"NoteNumber":47,"Velocity":25,"Duration":996388,"SoundDuration":996388,"Delta":160804505},{"NoteNumber":51,"Velocity":25,"Duration":996388,"SoundDuration":996388,"Delta":160804505},{"NoteNumber":56,"Velocity":25,"Duration":996388,"SoundDuration":996388,"Delta":160804505},{"NoteNumber":92,"Velocity":33,"Duration":125522,"SoundDuration":125522,"Delta":160930028},{"NoteNumber":79,"Velocity":47,"Duration":124779,"SoundDuration":124779,"Delta":161055551},{"NoteNumber":94,"Velocity":34,"Duration":124694,"SoundDuration":124694,"Delta":161180330},{"NoteNumber":80,"Velocity":52,"Duration":123967,"SoundDuration":123967,"Delta":161305025},{"NoteNumber":95,"Velocity":37,"Duration":123966,"SoundDuration":123966,"Delta":161428992},{"NoteNumber":83,"Velocity":50,"Duration":123966,"SoundDuration":123966,"Delta":161552959},{"NoteNumber":100,"Velocity":37,"Duration":123966,"SoundDuration":123966,"Delta":161676926},{"NoteNumber":86,"Velocity":57,"Duration":123966,"SoundDuration":123966,"Delta":161800893},{"NoteNumber":59,"Velocity":30,"Duration":496074,"SoundDuration":496074,"Delta":161800893},{"NoteNumber":47,"Velocity":25,"Duration":496074,"SoundDuration":496074,"Delta":161800893},{"NoteNumber":51,"Velocity":25,"Duration":496074,"SoundDuration":496074,"Delta":161800893},{"NoteNumber":56,"Velocity":25,"Duration":496074,"SoundDuration":496074,"Delta":161800893},{"NoteNumber":101,"Velocity":43,"Duration":123967,"SoundDuration":123967,"Delta":161924860},{"NoteNumber":85,"Velocity":53,"Duration":123966,"SoundDuration":123966,"Delta":162048827},{"NoteNumber":100,"Velocity":44,"Duration":124173,"SoundDuration":124173,"Delta":162172794},{"NoteNumber":86,"Velocity":58,"Duration":125407,"SoundDuration":125407,"Delta":162296967},{"NoteNumber":59,"Velocity":30,"Duration":511690,"SoundDuration":511690,"Delta":162296967},{"NoteNumber":47,"Velocity":25,"Duration":511690,"SoundDuration":511690,"Delta":162296967},{"NoteNumber":51,"Velocity":25,"Duration":511690,"SoundDuration":511690,"Delta":162296967},{"NoteNumber":56,"Velocity":25,"Duration":511690,"SoundDuration":511690,"Delta":162296967},{"NoteNumber":101,"Velocity":44,"Duration":127080,"SoundDuration":127080,"Delta":162422375},{"NoteNumber":85,"Velocity":53,"Duration":128806,"SoundDuration":128806,"Delta":162549455},{"NoteNumber":100,"Velocity":44,"Duration":130395,"SoundDuration":130395,"Delta":162678262},{"NoteNumber":86,"Velocity":62,"Duration":132211,"SoundDuration":132211,"Delta":162808658},{"NoteNumber":59,"Velocity":30,"Duration":1811269,"SoundDuration":1811269,"Delta":162808658},{"NoteNumber":47,"Velocity":25,"Duration":1811269,"SoundDuration":1811269,"Delta":162808658},{"NoteNumber":51,"Velocity":25,"Duration":1811269,"SoundDuration":1811269,"Delta":162808658},{"NoteNumber":56,"Velocity":25,"Duration":1811269,"SoundDuration":1811269,"Delta":162808658},{"NoteNumber":101,"Velocity":51,"Duration":134081,"SoundDuration":134081,"Delta":162940869},{"NoteNumber":85,"Velocity":60,"Duration":135803,"SoundDuration":135803,"Delta":163074951},{"NoteNumber":100,"Velocity":57,"Duration":138554,"SoundDuration":138554,"Delta":163210755},{"NoteNumber":86,"Velocity":46,"Duration":87172,"SoundDuration":87172,"Delta":163349309},{"NoteNumber":92,"Velocity":50,"Duration":86608,"SoundDuration":86608,"Delta":163436482},{"NoteNumber":95,"Velocity":54,"Duration":85521,"SoundDuration":85521,"Delta":163523090},{"NoteNumber":98,"Velocity":59,"Duration":84329,"SoundDuration":84329,"Delta":163608612},{"NoteNumber":103,"Velocity":66,"Duration":82944,"SoundDuration":82944,"Delta":163692942},{"NoteNumber":102,"Velocity":49,"Duration":81936,"SoundDuration":81936,"Delta":163775886},{"NoteNumber":98,"Velocity":49,"Duration":80885,"SoundDuration":80885,"Delta":163857823},{"NoteNumber":95,"Velocity":48,"Duration":79567,"SoundDuration":79567,"Delta":163938708},{"NoteNumber":102,"Velocity":59,"Duration":78649,"SoundDuration":78649,"Delta":164018276},{"NoteNumber":101,"Velocity":46,"Duration":77711,"SoundDuration":77711,"Delta":164096926},{"NoteNumber":98,"Velocity":45,"Duration":76464,"SoundDuration":76464,"Delta":164174637},{"NoteNumber":95,"Velocity":45,"Duration":75616,"SoundDuration":75616,"Delta":164251101},{"NoteNumber":101,"Velocity":57,"Duration":74776,"SoundDuration":74776,"Delta":164326718},{"NoteNumber":100,"Velocity":41,"Duration":73593,"SoundDuration":73593,"Delta":164401494},{"NoteNumber":95,"Velocity":41,"Duration":72808,"SoundDuration":72808,"Delta":164475088},{"NoteNumber":92,"Velocity":41,"Duration":72029,"SoundDuration":72029,"Delta":164547897},{"NoteNumber":100,"Velocity":55,"Duration":70947,"SoundDuration":70947,"Delta":164619927},{"NoteNumber":99,"Velocity":40,"Duration":70193,"SoundDuration":70193,"Delta":164690875},{"NoteNumber":95,"Velocity":40,"Duration":69478,"SoundDuration":69478,"Delta":164761069},{"NoteNumber":92,"Velocity":40,"Duration":68493,"SoundDuration":68493,"Delta":164830547},{"NoteNumber":99,"Velocity":53,"Duration":67767,"SoundDuration":67767,"Delta":164899041},{"NoteNumber":98,"Velocity":40,"Duration":67093,"SoundDuration":67093,"Delta":164966808},{"NoteNumber":92,"Velocity":40,"Duration":66203,"SoundDuration":66203,"Delta":165033901},{"NoteNumber":89,"Velocity":40,"Duration":65417,"SoundDuration":65417,"Delta":165100105},{"NoteNumber":98,"Velocity":52,"Duration":65083,"SoundDuration":65083,"Delta":165165523},{"NoteNumber":97,"Velocity":38,"Duration":64794,"SoundDuration":64794,"Delta":165230607},{"NoteNumber":92,"Velocity":38,"Duration":64384,"SoundDuration":64384,"Delta":165295401},{"NoteNumber":89,"Velocity":38,"Duration":64109,"SoundDuration":64109,"Delta":165359786},{"NoteNumber":97,"Velocity":50,"Duration":63837,"SoundDuration":63837,"Delta":165423896},{"NoteNumber":96,"Velocity":38,"Duration":63559,"SoundDuration":63559,"Delta":165487733},{"NoteNumber":92,"Velocity":38,"Duration":63039,"SoundDuration":63039,"Delta":165551293},{"NoteNumber":89,"Velocity":38,"Duration":63515,"SoundDuration":63515,"Delta":165614332},{"NoteNumber":96,"Velocity":53,"Duration":62369,"SoundDuration":62369,"Delta":165677847},{"NoteNumber":95,"Velocity":35,"Duration":62370,"SoundDuration":62370,"Delta":165740217},{"NoteNumber":92,"Velocity":35,"Duration":62369,"SoundDuration":62369,"Delta":165802587},{"NoteNumber":89,"Velocity":35,"Duration":62370,"SoundDuration":62370,"Delta":165864957},{"NoteNumber":95,"Velocity":52,"Duration":62369,"SoundDuration":62369,"Delta":165927327},{"NoteNumber":94,"Velocity":35,"Duration":62370,"SoundDuration":62370,"Delta":165989697},{"NoteNumber":89,"Velocity":35,"Duration":62369,"SoundDuration":62369,"Delta":166052067},{"NoteNumber":86,"Velocity":35,"Duration":62370,"SoundDuration":62370,"Delta":166114437},{"NoteNumber":94,"Velocity":51,"Duration":62369,"SoundDuration":62369,"Delta":166176807},{"NoteNumber":93,"Velocity":35,"Duration":62370,"SoundDuration":62370,"Delta":166239177},{"NoteNumber":89,"Velocity":35,"Duration":62369,"SoundDuration":62369,"Delta":166301547},{"NoteNumber":86,"Velocity":35,"Duration":62369,"SoundDuration":62369,"Delta":166363917},{"NoteNumber":93,"Velocity":52,"Duration":62370,"SoundDuration":62370,"Delta":166426287},{"NoteNumber":92,"Velocity":35,"Duration":62369,"SoundDuration":62369,"Delta":166488657},{"NoteNumber":89,"Velocity":35,"Duration":70257,"SoundDuration":70257,"Delta":166551027},{"NoteNumber":86,"Velocity":35,"Duration":70257,"SoundDuration":70257,"Delta":166621285},{"NoteNumber":92,"Velocity":54,"Duration":66377,"SoundDuration":66377,"Delta":166691543},{"NoteNumber":91,"Velocity":38,"Duration":63162,"SoundDuration":63162,"Delta":166757920},{"NoteNumber":86,"Velocity":35,"Duration":62761,"SoundDuration":62761,"Delta":166821083},{"NoteNumber":83,"Velocity":35,"Duration":62761,"SoundDuration":62761,"Delta":166883845},{"NoteNumber":91,"Velocity":53,"Duration":62761,"SoundDuration":62761,"Delta":166946606},{"NoteNumber":90,"Velocity":35,"Duration":62761,"SoundDuration":62761,"Delta":167009368},{"NoteNumber":86,"Velocity":35,"Duration":62761,"SoundDuration":62761,"Delta":167072129},{"NoteNumber":83,"Velocity":35,"Duration":62761,"SoundDuration":62761,"Delta":167134891},{"NoteNumber":90,"Velocity":54,"Duration":63157,"SoundDuration":63157,"Delta":167197652},{"NoteNumber":89,"Velocity":35,"Duration":63157,"SoundDuration":63157,"Delta":167260810},{"NoteNumber":86,"Velocity":35,"Duration":63157,"SoundDuration":63157,"Delta":167323968},{"NoteNumber":83,"Velocity":35,"Duration":63157,"SoundDuration":63157,"Delta":167387126},{"NoteNumber":89,"Velocity":53,"Duration":63157,"SoundDuration":63157,"Delta":167450284},{"NoteNumber":88,"Velocity":35,"Duration":63157,"SoundDuration":63157,"Delta":167513442},{"NoteNumber":83,"Velocity":35,"Duration":69767,"SoundDuration":69767,"Delta":167576599},{"NoteNumber":80,"Velocity":35,"Duration":69767,"SoundDuration":69767,"Delta":167646367},{"NoteNumber":88,"Velocity":55,"Duration":68525,"SoundDuration":68525,"Delta":167716134},{"NoteNumber":87,"Velocity":35,"Duration":63027,"SoundDuration":63027,"Delta":167784660},{"NoteNumber":83,"Velocity":35,"Duration":62761,"SoundDuration":62761,"Delta":167847688},{"NoteNumber":80,"Velocity":35,"Duration":62761,"SoundDuration":62761,"Delta":167910449},{"NoteNumber":87,"Velocity":55,"Duration":62761,"SoundDuration":62761,"Delta":167973211},{"NoteNumber":86,"Velocity":35,"Duration":62761,"SoundDuration":62761,"Delta":168035972},{"NoteNumber":80,"Velocity":35,"Duration":62761,"SoundDuration":62761,"Delta":168098734},{"NoteNumber":77,"Velocity":35,"Duration":62761,"SoundDuration":62761,"Delta":168161495},{"NoteNumber":86,"Velocity":56,"Duration":62761,"SoundDuration":62761,"Delta":168224257},{"NoteNumber":85,"Velocity":35,"Duration":62761,"SoundDuration":62761,"Delta":168287018},{"NoteNumber":80,"Velocity":35,"Duration":62761,"SoundDuration":62761,"Delta":168349780},{"NoteNumber":77,"Velocity":35,"Duration":62761,"SoundDuration":62761,"Delta":168412541},{"NoteNumber":85,"Velocity":51,"Duration":62761,"SoundDuration":62761,"Delta":168475303},{"NoteNumber":84,"Velocity":35,"Duration":62761,"SoundDuration":62761,"Delta":168538064},{"NoteNumber":80,"Velocity":35,"Duration":70754,"SoundDuration":70754,"Delta":168600826},{"NoteNumber":77,"Velocity":35,"Duration":70528,"SoundDuration":70528,"Delta":168671581},{"NoteNumber":84,"Velocity":55,"Duration":63965,"SoundDuration":63965,"Delta":168742109},{"NoteNumber":83,"Velocity":35,"Duration":63965,"SoundDuration":63965,"Delta":168806075},{"NoteNumber":80,"Velocity":35,"Duration":63965,"SoundDuration":63965,"Delta":168870041},{"NoteNumber":77,"Velocity":35,"Duration":63965,"SoundDuration":63965,"Delta":168934007},{"NoteNumber":83,"Velocity":53,"Duration":63965,"SoundDuration":63965,"Delta":168997972},{"NoteNumber":82,"Velocity":35,"Duration":63965,"SoundDuration":63965,"Delta":169061938},{"NoteNumber":77,"Velocity":35,"Duration":63965,"SoundDuration":63965,"Delta":169125904},{"NoteNumber":74,"Velocity":35,"Duration":63965,"SoundDuration":63965,"Delta":169189870},{"NoteNumber":82,"Velocity":55,"Duration":63965,"SoundDuration":63965,"Delta":169253836},{"NoteNumber":81,"Velocity":35,"Duration":63965,"SoundDuration":63965,"Delta":169317802},{"NoteNumber":77,"Velocity":35,"Duration":63965,"SoundDuration":63965,"Delta":169381768},{"NoteNumber":74,"Velocity":35,"Duration":63965,"SoundDuration":63965,"Delta":169445734},{"NoteNumber":81,"Velocity":53,"Duration":63965,"SoundDuration":63965,"Delta":169509699},{"NoteNumber":80,"Velocity":35,"Duration":63965,"SoundDuration":63965,"Delta":169573665},{"NoteNumber":77,"Velocity":35,"Duration":71770,"SoundDuration":71770,"Delta":169637631},{"NoteNumber":74,"Velocity":35,"Duration":71770,"SoundDuration":71770,"Delta":169709402},{"NoteNumber":80,"Velocity":56,"Duration":64377,"SoundDuration":64377,"Delta":169781172},{"NoteNumber":79,"Velocity":37,"Duration":64377,"SoundDuration":64377,"Delta":169845550},{"NoteNumber":74,"Velocity":34,"Duration":64377,"SoundDuration":64377,"Delta":169909927},{"NoteNumber":71,"Velocity":35,"Duration":64377,"SoundDuration":64377,"Delta":169974305},{"NoteNumber":79,"Velocity":56,"Duration":64377,"SoundDuration":64377,"Delta":170038682},{"NoteNumber":78,"Velocity":38,"Duration":64377,"SoundDuration":64377,"Delta":170103060},{"NoteNumber":74,"Velocity":36,"Duration":64377,"SoundDuration":64377,"Delta":170167438},{"NoteNumber":71,"Velocity":36,"Duration":64377,"SoundDuration":64377,"Delta":170231815},{"NoteNumber":78,"Velocity":57,"Duration":64412,"SoundDuration":64412,"Delta":170296193},{"NoteNumber":77,"Velocity":40,"Duration":64794,"SoundDuration":64794,"Delta":170360605},{"NoteNumber":74,"Velocity":35,"Duration":64794,"SoundDuration":64794,"Delta":170425400},{"NoteNumber":71,"Velocity":35,"Duration":64794,"SoundDuration":64794,"Delta":170490195},{"NoteNumber":77,"Velocity":55,"Duration":64921,"SoundDuration":64921,"Delta":170554990},{"NoteNumber":76,"Velocity":40,"Duration":65217,"SoundDuration":65217,"Delta":170619912},{"NoteNumber":71,"Velocity":36,"Duration":65217,"SoundDuration":65217,"Delta":170685129},{"NoteNumber":68,"Velocity":36,"Duration":65217,"SoundDuration":65217,"Delta":170750346},{"NoteNumber":76,"Velocity":58,"Duration":65431,"SoundDuration":65431,"Delta":170815564},{"NoteNumber":75,"Velocity":39,"Duration":65645,"SoundDuration":65645,"Delta":170880995},{"NoteNumber":71,"Velocity":35,"Duration":65645,"SoundDuration":65645,"Delta":170946641},{"NoteNumber":68,"Velocity":36,"Duration":65645,"SoundDuration":65645,"Delta":171012286},{"NoteNumber":75,"Velocity":58,"Duration":65956,"SoundDuration":65956,"Delta":171077932},{"NoteNumber":74,"Velocity":39,"Duration":66079,"SoundDuration":66079,"Delta":171143888},{"NoteNumber":68,"Velocity":37,"Duration":66079,"SoundDuration":66079,"Delta":171209967},{"NoteNumber":65,"Velocity":37,"Duration":66079,"SoundDuration":66079,"Delta":171276047},{"NoteNumber":74,"Velocity":61,"Duration":66489,"SoundDuration":66489,"Delta":171342126},{"NoteNumber":73,"Velocity":45,"Duration":66518,"SoundDuration":66518,"Delta":171408615},{"NoteNumber":68,"Velocity":40,"Duration":66518,"SoundDuration":66518,"Delta":171475134},{"NoteNumber":65,"Velocity":40,"Duration":66578,"SoundDuration":66578,"Delta":171541653},{"NoteNumber":73,"Velocity":61,"Duration":66964,"SoundDuration":66964,"Delta":171608231},{"NoteNumber":72,"Velocity":45,"Duration":66964,"SoundDuration":66964,"Delta":171675196},{"NoteNumber":68,"Velocity":39,"Duration":66964,"SoundDuration":66964,"Delta":171742160},{"NoteNumber":65,"Velocity":39,"Duration":67122,"SoundDuration":67122,"Delta":171809124},{"NoteNumber":72,"Velocity":63,"Duration":67415,"SoundDuration":67415,"Delta":171876246},{"NoteNumber":71,"Velocity":47,"Duration":67415,"SoundDuration":67415,"Delta":171943662},{"NoteNumber":68,"Velocity":43,"Duration":67415,"SoundDuration":67415,"Delta":172011078},{"NoteNumber":65,"Velocity":44,"Duration":67415,"SoundDuration":67415,"Delta":172078494},{"NoteNumber":71,"Velocity":63,"Duration":67415,"SoundDuration":67415,"Delta":172145909},{"NoteNumber":70,"Velocity":49,"Duration":67415,"SoundDuration":67415,"Delta":172213325},{"NoteNumber":65,"Velocity":46,"Duration":67415,"SoundDuration":67415,"Delta":172280741},{"NoteNumber":62,"Velocity":39,"Duration":67415,"SoundDuration":67415,"Delta":172348157},{"NoteNumber":61,"Velocity":66,"Duration":89887,"SoundDuration":89887,"Delta":172415572},{"NoteNumber":62,"Velocity":39,"Duration":89669,"SoundDuration":89669,"Delta":172505460},{"NoteNumber":65,"Velocity":39,"Duration":84060,"SoundDuration":84060,"Delta":172595129},{"NoteNumber":68,"Velocity":40,"Duration":78045,"SoundDuration":78045,"Delta":172679190},{"NoteNumber":69,"Velocity":41,"Duration":72784,"SoundDuration":72784,"Delta":172757235},{"NoteNumber":70,"Velocity":42,"Duration":69686,"SoundDuration":69686,"Delta":172830019},{"NoteNumber":71,"Velocity":43,"Duration":69455,"SoundDuration":69455,"Delta":172899705},{"NoteNumber":74,"Velocity":43,"Duration":69301,"SoundDuration":69301,"Delta":172969161},{"NoteNumber":77,"Velocity":44,"Duration":68965,"SoundDuration":68965,"Delta":173038463},{"NoteNumber":80,"Velocity":45,"Duration":68681,"SoundDuration":68681,"Delta":173107428},{"NoteNumber":81,"Velocity":46,"Duration":68536,"SoundDuration":68536,"Delta":173176110},{"NoteNumber":82,"Velocity":47,"Duration":68259,"SoundDuration":68259,"Delta":173244646},{"NoteNumber":83,"Velocity":49,"Duration":67929,"SoundDuration":67929,"Delta":173312905},{"NoteNumber":86,"Velocity":50,"Duration":67782,"SoundDuration":67782,"Delta":173380834},{"NoteNumber":89,"Velocity":51,"Duration":67529,"SoundDuration":67529,"Delta":173448617},{"NoteNumber":92,"Velocity":53,"Duration":67226,"SoundDuration":67226,"Delta":173516146},{"NoteNumber":93,"Velocity":54,"Duration":67049,"SoundDuration":67049,"Delta":173583373},{"NoteNumber":94,"Velocity":56,"Duration":66889,"SoundDuration":66889,"Delta":173650422},{"NoteNumber":95,"Velocity":63,"Duration":66889,"SoundDuration":66889,"Delta":173717312},{"NoteNumber":98,"Velocity":51,"Duration":66889,"SoundDuration":66889,"Delta":173784202},{"NoteNumber":96,"Velocity":51,"Duration":66889,"SoundDuration":66889,"Delta":173851091},{"NoteNumber":93,"Velocity":57,"Duration":66889,"SoundDuration":66889,"Delta":173917981},{"NoteNumber":96,"Velocity":45,"Duration":66889,"SoundDuration":66889,"Delta":173984871},{"NoteNumber":94,"Velocity":45,"Duration":66889,"SoundDuration":66889,"Delta":174051760},{"NoteNumber":91,"Velocity":53,"Duration":66889,"SoundDuration":66889,"Delta":174118650},{"NoteNumber":94,"Velocity":43,"Duration":66889,"SoundDuration":66889,"Delta":174185540},{"NoteNumber":92,"Velocity":43,"Duration":66889,"SoundDuration":66889,"Delta":174252429},{"NoteNumber":88,"Velocity":47,"Duration":66889,"SoundDuration":66889,"Delta":174319319},{"NoteNumber":91,"Velocity":41,"Duration":66889,"SoundDuration":66889,"Delta":174386209},{"NoteNumber":89,"Velocity":41,"Duration":66889,"SoundDuration":66889,"Delta":174453098},{"NoteNumber":85,"Velocity":48,"Duration":66889,"SoundDuration":66889,"Delta":174519988},{"NoteNumber":87,"Velocity":38,"Duration":66889,"SoundDuration":66889,"Delta":174586878},{"NoteNumber":86,"Velocity":38,"Duration":66889,"SoundDuration":66889,"Delta":174653767},{"NoteNumber":83,"Velocity":48,"Duration":66889,"SoundDuration":66889,"Delta":174720657},{"NoteNumber":86,"Velocity":35,"Duration":66889,"SoundDuration":66889,"Delta":174787547},{"NoteNumber":84,"Velocity":35,"Duration":66889,"SoundDuration":66889,"Delta":174854436},{"NoteNumber":81,"Velocity":47,"Duration":66889,"SoundDuration":66889,"Delta":174921326},{"NoteNumber":84,"Velocity":35,"Duration":66889,"SoundDuration":66889,"Delta":174988216},{"NoteNumber":82,"Velocity":35,"Duration":66889,"SoundDuration":66889,"Delta":175055105},{"NoteNumber":79,"Velocity":44,"Duration":66889,"SoundDuration":66889,"Delta":175121995},{"NoteNumber":82,"Velocity":35,"Duration":66889,"SoundDuration":66889,"Delta":175188885},{"NoteNumber":80,"Velocity":35,"Duration":66889,"SoundDuration":66889,"Delta":175255774},{"NoteNumber":76,"Velocity":44,"Duration":66889,"SoundDuration":66889,"Delta":175322664},{"NoteNumber":79,"Velocity":35,"Duration":67243,"SoundDuration":67243,"Delta":175389554},{"NoteNumber":77,"Velocity":35,"Duration":67567,"SoundDuration":67567,"Delta":175456798},{"NoteNumber":73,"Velocity":41,"Duration":67838,"SoundDuration":67838,"Delta":175524365},{"NoteNumber":75,"Velocity":35,"Duration":68202,"SoundDuration":68202,"Delta":175592204},{"NoteNumber":74,"Velocity":35,"Duration":68461,"SoundDuration":68461,"Delta":175660407},{"NoteNumber":71,"Velocity":41,"Duration":68832,"SoundDuration":68832,"Delta":175728868},{"NoteNumber":74,"Velocity":34,"Duration":69212,"SoundDuration":69212,"Delta":175797700},{"NoteNumber":72,"Velocity":34,"Duration":69473,"SoundDuration":69473,"Delta":175866912},{"NoteNumber":68,"Velocity":41,"Duration":69860,"SoundDuration":69860,"Delta":175936386},{"NoteNumber":72,"Velocity":33,"Duration":70131,"SoundDuration":70131,"Delta":176006246},{"NoteNumber":70,"Velocity":33,"Duration":70520,"SoundDuration":70520,"Delta":176076377},{"NoteNumber":67,"Velocity":40,"Duration":70914,"SoundDuration":70914,"Delta":176146898},{"NoteNumber":70,"Velocity":31,"Duration":71193,"SoundDuration":71193,"Delta":176217813},{"NoteNumber":68,"Velocity":31,"Duration":71594,"SoundDuration":71594,"Delta":176289006},{"NoteNumber":64,"Velocity":40,"Duration":71942,"SoundDuration":71942,"Delta":176360601},{"NoteNumber":67,"Velocity":29,"Duration":72269,"SoundDuration":72269,"Delta":176432544},{"NoteNumber":65,"Velocity":29,"Duration":72682,"SoundDuration":72682,"Delta":176504813},{"NoteNumber":61,"Velocity":39,"Duration":73106,"SoundDuration":73106,"Delta":176577496},{"NoteNumber":63,"Velocity":30,"Duration":73403,"SoundDuration":73403,"Delta":176650602},{"NoteNumber":62,"Velocity":30,"Duration":73830,"SoundDuration":73830,"Delta":176724005},{"NoteNumber":59,"Velocity":39,"Duration":74133,"SoundDuration":74133,"Delta":176797835},{"NoteNumber":62,"Velocity":30,"Duration":74479,"SoundDuration":74479,"Delta":176871968},{"NoteNumber":60,"Velocity":30,"Duration":74277,"SoundDuration":74277,"Delta":176946448},{"NoteNumber":57,"Velocity":38,"Duration":75881,"SoundDuration":75881,"Delta":177020726},{"NoteNumber":58,"Velocity":31,"Duration":78855,"SoundDuration":78855,"Delta":177096607},{"NoteNumber":60,"Velocity":31,"Duration":82108,"SoundDuration":82108,"Delta":177175463},{"NoteNumber":58,"Velocity":39,"Duration":85630,"SoundDuration":85630,"Delta":177257572},{"NoteNumber":57,"Velocity":32,"Duration":89435,"SoundDuration":89435,"Delta":177343202},{"NoteNumber":58,"Velocity":47,"Duration":113636,"SoundDuration":113636,"Delta":177432637},{"NoteNumber":62,"Velocity":49,"Duration":47468,"SoundDuration":47468,"Delta":177546274},{"NoteNumber":53,"Velocity":39,"Duration":189873,"SoundDuration":189873,"Delta":177736147},{"NoteNumber":62,"Velocity":56,"Duration":340909,"SoundDuration":340909,"Delta":177926021},{"NoteNumber":46,"Velocity":41,"Duration":170454,"SoundDuration":170454,"Delta":177926021},{"NoteNumber":39,"Velocity":34,"Duration":328765,"SoundDuration":328765,"Delta":178096475},{"NoteNumber":60,"Velocity":52,"Duration":79155,"SoundDuration":79155,"Delta":178266930},{"NoteNumber":53,"Velocity":40,"Duration":158311,"SoundDuration":158311,"Delta":178425241},{"NoteNumber":60,"Velocity":56,"Duration":302267,"SoundDuration":302267,"Delta":178583552},{"NoteNumber":46,"Velocity":41,"Duration":151133,"SoundDuration":151133,"Delta":178583552},{"NoteNumber":39,"Velocity":35,"Duration":309444,"SoundDuration":309444,"Delta":178734686},{"NoteNumber":55,"Velocity":52,"Duration":79155,"SoundDuration":79155,"Delta":178885819},{"NoteNumber":51,"Velocity":37,"Duration":158311,"SoundDuration":158311,"Delta":179044131},{"NoteNumber":58,"Velocity":46,"Duration":115089,"SoundDuration":115089,"Delta":179202442},{"NoteNumber":46,"Velocity":41,"Duration":153452,"SoundDuration":153452,"Delta":179202442},{"NoteNumber":39,"Velocity":34,"Duration":306905,"SoundDuration":306905,"Delta":179355895},{"NoteNumber":60,"Velocity":48,"Duration":38363,"SoundDuration":38363,"Delta":179470984},{"NoteNumber":58,"Velocity":49,"Duration":115089,"SoundDuration":115089,"Delta":179509347},{"NoteNumber":51,"Velocity":40,"Duration":153452,"SoundDuration":153452,"Delta":179662800},{"NoteNumber":57,"Velocity":46,"Duration":76726,"SoundDuration":76726,"Delta":179739526},{"NoteNumber":58,"Velocity":52,"Duration":82417,"SoundDuration":82417,"Delta":179816253},{"NoteNumber":46,"Velocity":41,"Duration":164835,"SoundDuration":164835,"Delta":179816253},{"NoteNumber":39,"Velocity":37,"Duration":318287,"SoundDuration":318287,"Delta":179981088},{"NoteNumber":53,"Velocity":52,"Duration":76726,"SoundDuration":76726,"Delta":180145923},{"NoteNumber":55,"Velocity":49,"Duration":76726,"SoundDuration":76726,"Delta":180299376},{"NoteNumber":50,"Velocity":39,"Duration":153452,"SoundDuration":153452,"Delta":180299376},{"NoteNumber":56,"Velocity":50,"Duration":75566,"SoundDuration":75566,"Delta":180452829},{"NoteNumber":46,"Velocity":41,"Duration":151133,"SoundDuration":151133,"Delta":180452829},{"NoteNumber":60,"Velocity":50,"Duration":75566,"SoundDuration":75566,"Delta":180603962},{"NoteNumber":39,"Velocity":36,"Duration":302267,"SoundDuration":302267,"Delta":180603962},{"NoteNumber":58,"Velocity":52,"Duration":75566,"SoundDuration":75566,"Delta":180755096},{"NoteNumber":56,"Velocity":48,"Duration":75566,"SoundDuration":75566,"Delta":180906229},{"NoteNumber":50,"Velocity":39,"Duration":151133,"SoundDuration":151133,"Delta":180906229},{"NoteNumber":55,"Velocity":49,"Duration":75566,"SoundDuration":75566,"Delta":181057363},{"NoteNumber":46,"Velocity":41,"Duration":151133,"SoundDuration":151133,"Delta":181057363},{"NoteNumber":53,"Velocity":49,"Duration":56675,"SoundDuration":56675,"Delta":181208496},{"NoteNumber":39,"Velocity":36,"Duration":310708,"SoundDuration":310708,"Delta":181208496},{"NoteNumber":57,"Velocity":46,"Duration":37783,"SoundDuration":37783,"Delta":181321846},{"NoteNumber":58,"Velocity":52,"Duration":79787,"SoundDuration":79787,"Delta":181359630},{"NoteNumber":55,"Velocity":39,"Duration":159574,"SoundDuration":159574,"Delta":181519204},{"NoteNumber":58,"Velocity":46,"Duration":113350,"SoundDuration":113350,"Delta":181678779},{"NoteNumber":46,"Velocity":41,"Duration":151133,"SoundDuration":151133,"Delta":181678779},{"NoteNumber":58,"Velocity":48,"Duration":75566,"SoundDuration":75566,"Delta":181829912},{"NoteNumber":39,"Velocity":35,"Duration":302267,"SoundDuration":302267,"Delta":181829912},{"NoteNumber":60,"Velocity":48,"Duration":75566,"SoundDuration":75566,"Delta":181905479},{"NoteNumber":58,"Velocity":49,"Duration":56675,"SoundDuration":56675,"Delta":181981046},{"NoteNumber":55,"Velocity":39,"Duration":151133,"SoundDuration":151133,"Delta":182132179},{"NoteNumber":57,"Velocity":46,"Duration":75566,"SoundDuration":75566,"Delta":182207746},{"NoteNumber":58,"Velocity":52,"Duration":324324,"SoundDuration":324324,"Delta":182283313},{"NoteNumber":46,"Velocity":41,"Duration":162162,"SoundDuration":162162,"Delta":182283313},{"NoteNumber":39,"Velocity":36,"Duration":329759,"SoundDuration":329759,"Delta":182445475},{"NoteNumber":62,"Velocity":49,"Duration":41899,"SoundDuration":41899,"Delta":182607637},{"NoteNumber":53,"Velocity":39,"Duration":167597,"SoundDuration":167597,"Delta":182775235},{"NoteNumber":62,"Velocity":55,"Duration":316622,"SoundDuration":316622,"Delta":182942833},{"NoteNumber":46,"Velocity":41,"Duration":158311,"SoundDuration":158311,"Delta":182942833},{"NoteNumber":39,"Velocity":34,"Duration":316622,"SoundDuration":316622,"Delta":183101144},{"NoteNumber":60,"Velocity":52,"Duration":79155,"SoundDuration":79155,"Delta":183259455},{"NoteNumber":53,"Velocity":40,"Duration":158311,"SoundDuration":158311,"Delta":183417767},{"NoteNumber":60,"Velocity":56,"Duration":302267,"SoundDuration":302267,"Delta":183576078},{"NoteNumber":46,"Velocity":41,"Duration":151133,"SoundDuration":151133,"Delta":183576078},{"NoteNumber":39,"Velocity":35,"Duration":309444,"SoundDuration":309444,"Delta":183727211},{"NoteNumber":55,"Velocity":49,"Duration":79155,"SoundDuration":79155,"Delta":183878345},{"NoteNumber":51,"Velocity":37,"Duration":158311,"SoundDuration":158311,"Delta":184036656},{"NoteNumber":58,"Velocity":56,"Duration":115089,"SoundDuration":115089,"Delta":184194967},{"NoteNumber":46,"Velocity":41,"Duration":153452,"SoundDuration":153452,"Delta":184194967},{"NoteNumber":39,"Velocity":34,"Duration":306905,"SoundDuration":306905,"Delta":184348420},{"NoteNumber":60,"Velocity":48,"Duration":38363,"SoundDuration":38363,"Delta":184463510},{"NoteNumber":58,"Velocity":49,"Duration":115089,"SoundDuration":115089,"Delta":184501873},{"NoteNumber":51,"Velocity":40,"Duration":153452,"SoundDuration":153452,"Delta":184655326},{"NoteNumber":57,"Velocity":46,"Duration":76726,"SoundDuration":76726,"Delta":184732052},{"NoteNumber":58,"Velocity":52,"Duration":82417,"SoundDuration":82417,"Delta":184808778},{"NoteNumber":46,"Velocity":41,"Duration":164835,"SoundDuration":164835,"Delta":184808778},{"NoteNumber":39,"Velocity":37,"Duration":318287,"SoundDuration":318287,"Delta":184973614},{"NoteNumber":53,"Velocity":52,"Duration":76726,"SoundDuration":76726,"Delta":185138449},{"NoteNumber":55,"Velocity":49,"Duration":76726,"SoundDuration":76726,"Delta":185291902},{"NoteNumber":50,"Velocity":39,"Duration":153452,"SoundDuration":153452,"Delta":185291902},{"NoteNumber":56,"Velocity":50,"Duration":75566,"SoundDuration":75566,"Delta":185445354},{"NoteNumber":46,"Velocity":41,"Duration":151133,"SoundDuration":151133,"Delta":185445354},{"NoteNumber":60,"Velocity":50,"Duration":75566,"SoundDuration":75566,"Delta":185596488},{"NoteNumber":39,"Velocity":36,"Duration":302267,"SoundDuration":302267,"Delta":185596488},{"NoteNumber":58,"Velocity":52,"Duration":75566,"SoundDuration":75566,"Delta":185747621},{"NoteNumber":56,"Velocity":48,"Duration":75566,"SoundDuration":75566,"Delta":185898755},{"NoteNumber":50,"Velocity":39,"Duration":151133,"SoundDuration":151133,"Delta":185898755},{"NoteNumber":55,"Velocity":49,"Duration":75566,"SoundDuration":75566,"Delta":186049888},{"NoteNumber":46,"Velocity":41,"Duration":151133,"SoundDuration":151133,"Delta":186049888},{"NoteNumber":53,"Velocity":49,"Duration":75566,"SoundDuration":75566,"Delta":186201022},{"NoteNumber":39,"Velocity":36,"Duration":302267,"SoundDuration":302267,"Delta":186201022},{"NoteNumber":55,"Velocity":53,"Duration":75566,"SoundDuration":75566,"Delta":186352155},{"NoteNumber":46,"Velocity":39,"Duration":151133,"SoundDuration":151133,"Delta":186503289},{"NoteNumber":51,"Velocity":56,"Duration":604534,"SoundDuration":604534,"Delta":186654422},{"NoteNumber":39,"Velocity":41,"Duration":151133,"SoundDuration":151133,"Delta":186654422},{"NoteNumber":46,"Velocity":36,"Duration":302267,"SoundDuration":302267,"Delta":186805556},{"NoteNumber":46,"Velocity":39,"Duration":151133,"SoundDuration":151133,"Delta":187107823},{"NoteNumber":54,"Velocity":45,"Duration":75566,"SoundDuration":75566,"Delta":187258956},{"NoteNumber":39,"Velocity":41,"Duration":151133,"SoundDuration":151133,"Delta":187258956},{"NoteNumber":55,"Velocity":47,"Duration":75566,"SoundDuration":75566,"Delta":187334523},{"NoteNumber":57,"Velocity":49,"Duration":75566,"SoundDuration":75566,"Delta":187410090},{"NoteNumber":46,"Velocity":36,"Duration":151133,"SoundDuration":151133,"Delta":187410090},{"NoteNumber":58,"Velocity":51,"Duration":75566,"SoundDuration":75566,"Delta":187485657},{"NoteNumber":62,"Velocity":49,"Duration":40540,"SoundDuration":40540,"Delta":187561223},{"NoteNumber":53,"Velocity":39,"Duration":162162,"SoundDuration":162162,"Delta":187723386},{"NoteNumber":62,"Velocity":55,"Duration":321716,"SoundDuration":321716,"Delta":187885548},{"NoteNumber":46,"Velocity":41,"Duration":160857,"SoundDuration":160857,"Delta":187885548},{"NoteNumber":39,"Velocity":34,"Duration":319169,"SoundDuration":319169,"Delta":188046406},{"NoteNumber":60,"Velocity":51,"Duration":79155,"SoundDuration":79155,"Delta":188207264},{"NoteNumber":53,"Velocity":40,"Duration":158311,"SoundDuration":158311,"Delta":188365575},{"NoteNumber":60,"Velocity":56,"Duration":302267,"SoundDuration":302267,"Delta":188523886},{"NoteNumber":46,"Velocity":41,"Duration":151133,"SoundDuration":151133,"Delta":188523886},{"NoteNumber":39,"Velocity":35,"Duration":309444,"SoundDuration":309444,"Delta":188675020},{"NoteNumber":55,"Velocity":52,"Duration":79155,"SoundDuration":79155,"Delta":188826153},{"NoteNumber":51,"Velocity":37,"Duration":158311,"SoundDuration":158311,"Delta":188984465},{"NoteNumber":58,"Velocity":46,"Duration":115089,"SoundDuration":115089,"Delta":189142776},{"NoteNumber":46,"Velocity":41,"Duration":153452,"SoundDuration":153452,"Delta":189142776},{"NoteNumber":39,"Velocity":34,"Duration":306905,"SoundDuration":306905,"Delta":189296229},{"NoteNumber":60,"Velocity":48,"Duration":38363,"SoundDuration":38363,"Delta":189411318},{"NoteNumber":58,"Velocity":49,"Duration":115089,"SoundDuration":115089,"Delta":189449681},{"NoteNumber":51,"Velocity":40,"Duration":153452,"SoundDuration":153452,"Delta":189603134},{"NoteNumber":57,"Velocity":46,"Duration":76726,"SoundDuration":76726,"Delta":189679860},{"NoteNumber":58,"Velocity":52,"Duration":82417,"SoundDuration":82417,"Delta":189756587},{"NoteNumber":46,"Velocity":41,"Duration":164835,"SoundDuration":164835,"Delta":189756587},{"NoteNumber":39,"Velocity":37,"Duration":318287,"SoundDuration":318287,"Delta":189921422},{"NoteNumber":53,"Velocity":52,"Duration":76726,"SoundDuration":76726,"Delta":190086257},{"NoteNumber":55,"Velocity":49,"Duration":76726,"SoundDuration":76726,"Delta":190239710},{"NoteNumber":50,"Velocity":39,"Duration":153452,"SoundDuration":153452,"Delta":190239710},{"NoteNumber":56,"Velocity":50,"Duration":75566,"SoundDuration":75566,"Delta":190393163},{"NoteNumber":46,"Velocity":41,"Duration":151133,"SoundDuration":151133,"Delta":190393163},{"NoteNumber":60,"Velocity":50,"Duration":75566,"SoundDuration":75566,"Delta":190544296},{"NoteNumber":39,"Velocity":36,"Duration":302267,"SoundDuration":302267,"Delta":190544296},{"NoteNumber":58,"Velocity":52,"Duration":75566,"SoundDuration":75566,"Delta":190695430},{"NoteNumber":56,"Velocity":48,"Duration":75566,"SoundDuration":75566,"Delta":190846563},{"NoteNumber":50,"Velocity":39,"Duration":151133,"SoundDuration":151133,"Delta":190846563},{"NoteNumber":55,"Velocity":49,"Duration":75566,"SoundDuration":75566,"Delta":190997697},{"NoteNumber":46,"Velocity":41,"Duration":151133,"SoundDuration":151133,"Delta":190997697},{"NoteNumber":53,"Velocity":49,"Duration":56675,"SoundDuration":56675,"Delta":191148830},{"NoteNumber":39,"Velocity":36,"Duration":310708,"SoundDuration":310708,"Delta":191148830},{"NoteNumber":57,"Velocity":46,"Duration":37783,"SoundDuration":37783,"Delta":191262180},{"NoteNumber":58,"Velocity":52,"Duration":79787,"SoundDuration":79787,"Delta":191299964},{"NoteNumber":55,"Velocity":39,"Duration":159574,"SoundDuration":159574,"Delta":191459538},{"NoteNumber":58,"Velocity":46,"Duration":113350,"SoundDuration":113350,"Delta":191619113},{"NoteNumber":46,"Velocity":41,"Duration":151133,"SoundDuration":151133,"Delta":191619113},{"NoteNumber":58,"Velocity":48,"Duration":75566,"SoundDuration":75566,"Delta":191770246},{"NoteNumber":39,"Velocity":35,"Duration":302267,"SoundDuration":302267,"Delta":191770246},{"NoteNumber":60,"Velocity":48,"Duration":75566,"SoundDuration":75566,"Delta":191845813},{"NoteNumber":58,"Velocity":49,"Duration":113350,"SoundDuration":113350,"Delta":191921380},{"NoteNumber":55,"Velocity":39,"Duration":151133,"SoundDuration":151133,"Delta":192072513},{"NoteNumber":57,"Velocity":46,"Duration":75566,"SoundDuration":75566,"Delta":192148080},{"NoteNumber":58,"Velocity":52,"Duration":324324,"SoundDuration":324324,"Delta":192223647},{"NoteNumber":46,"Velocity":41,"Duration":162162,"SoundDuration":162162,"Delta":192223647},{"NoteNumber":39,"Velocity":36,"Duration":329759,"SoundDuration":329759,"Delta":192385809},{"NoteNumber":62,"Velocity":49,"Duration":41899,"SoundDuration":41899,"Delta":192547971},{"NoteNumber":53,"Velocity":39,"Duration":167597,"SoundDuration":167597,"Delta":192715569},{"NoteNumber":62,"Velocity":54,"Duration":316622,"SoundDuration":316622,"Delta":192883167},{"NoteNumber":46,"Velocity":41,"Duration":158311,"SoundDuration":158311,"Delta":192883167},{"NoteNumber":39,"Velocity":34,"Duration":316622,"SoundDuration":316622,"Delta":193041478},{"NoteNumber":60,"Velocity":49,"Duration":79155,"SoundDuration":79155,"Delta":193199789},{"NoteNumber":53,"Velocity":40,"Duration":158311,"SoundDuration":158311,"Delta":193358101},{"NoteNumber":60,"Velocity":55,"Duration":302267,"SoundDuration":302267,"Delta":193516412},{"NoteNumber":46,"Velocity":41,"Duration":151133,"SoundDuration":151133,"Delta":193516412},{"NoteNumber":39,"Velocity":35,"Duration":309444,"SoundDuration":309444,"Delta":193667545},{"NoteNumber":55,"Velocity":52,"Duration":79155,"SoundDuration":79155,"Delta":193818679},{"NoteNumber":51,"Velocity":37,"Duration":158311,"SoundDuration":158311,"Delta":193976990},{"NoteNumber":58,"Velocity":46,"Duration":115089,"SoundDuration":115089,"Delta":194135301},{"NoteNumber":46,"Velocity":41,"Duration":153452,"SoundDuration":153452,"Delta":194135301},{"NoteNumber":39,"Velocity":34,"Duration":306905,"SoundDuration":306905,"Delta":194288754},{"NoteNumber":60,"Velocity":48,"Duration":38363,"SoundDuration":38363,"Delta":194403844},{"NoteNumber":58,"Velocity":49,"Duration":115089,"SoundDuration":115089,"Delta":194442207},{"NoteNumber":51,"Velocity":40,"Duration":153452,"SoundDuration":153452,"Delta":194595660},{"NoteNumber":57,"Velocity":46,"Duration":76726,"SoundDuration":76726,"Delta":194672386},{"NoteNumber":58,"Velocity":52,"Duration":164835,"SoundDuration":164835,"Delta":194749112},{"NoteNumber":46,"Velocity":41,"Duration":164835,"SoundDuration":164835,"Delta":194749112},{"NoteNumber":39,"Velocity":37,"Duration":318287,"SoundDuration":318287,"Delta":194913948},{"NoteNumber":53,"Velocity":52,"Duration":76726,"SoundDuration":76726,"Delta":195078783},{"NoteNumber":55,"Velocity":49,"Duration":76726,"SoundDuration":76726,"Delta":195232236},{"NoteNumber":50,"Velocity":39,"Duration":153452,"SoundDuration":153452,"Delta":195232236},{"NoteNumber":56,"Velocity":50,"Duration":75566,"SoundDuration":75566,"Delta":195385688},{"NoteNumber":46,"Velocity":41,"Duration":151133,"SoundDuration":151133,"Delta":195385688},{"NoteNumber":60,"Velocity":50,"Duration":75566,"SoundDuration":75566,"Delta":195536822},{"NoteNumber":39,"Velocity":36,"Duration":302267,"SoundDuration":302267,"Delta":195536822},{"NoteNumber":58,"Velocity":52,"Duration":75566,"SoundDuration":75566,"Delta":195687955},{"NoteNumber":56,"Velocity":48,"Duration":75566,"SoundDuration":75566,"Delta":195839089},{"NoteNumber":50,"Velocity":39,"Duration":151133,"SoundDuration":151133,"Delta":195839089},{"NoteNumber":55,"Velocity":49,"Duration":75566,"SoundDuration":75566,"Delta":195990222},{"NoteNumber":46,"Velocity":41,"Duration":151133,"SoundDuration":151133,"Delta":195990222},{"NoteNumber":53,"Velocity":49,"Duration":75566,"SoundDuration":75566,"Delta":196141356},{"NoteNumber":39,"Velocity":36,"Duration":302267,"SoundDuration":302267,"Delta":196141356},{"NoteNumber":55,"Velocity":56,"Duration":75566,"SoundDuration":75566,"Delta":196292489},{"NoteNumber":46,"Velocity":39,"Duration":151133,"SoundDuration":151133,"Delta":196443623},{"NoteNumber":51,"Velocity":58,"Duration":604534,"SoundDuration":604534,"Delta":196594756},{"NoteNumber":39,"Velocity":41,"Duration":151133,"SoundDuration":151133,"Delta":196594756},{"NoteNumber":46,"Velocity":36,"Duration":302267,"SoundDuration":302267,"Delta":196745890},{"NoteNumber":51,"Velocity":39,"Duration":151133,"SoundDuration":151133,"Delta":197048157},{"NoteNumber":66,"Velocity":41,"Duration":75566,"SoundDuration":75566,"Delta":197123724},{"NoteNumber":69,"Velocity":49,"Duration":37783,"SoundDuration":37783,"Delta":197161507},{"NoteNumber":70,"Velocity":49,"Duration":302267,"SoundDuration":302267,"Delta":197199290},{"NoteNumber":67,"Velocity":41,"Duration":302267,"SoundDuration":302267,"Delta":197199290},{"NoteNumber":46,"Velocity":41,"Duration":151133,"SoundDuration":151133,"Delta":197199290},{"NoteNumber":39,"Velocity":36,"Duration":318731,"SoundDuration":318731,"Delta":197350424},{"NoteNumber":74,"Velocity":49,"Duration":83798,"SoundDuration":83798,"Delta":197501557},{"NoteNumber":65,"Velocity":41,"Duration":83798,"SoundDuration":83798,"Delta":197501557},{"NoteNumber":70,"Velocity":41,"Duration":83798,"SoundDuration":83798,"Delta":197501557},{"NoteNumber":53,"Velocity":39,"Duration":167597,"SoundDuration":167597,"Delta":197669155},{"NoteNumber":74,"Velocity":49,"Duration":316622,"SoundDuration":316622,"Delta":197836753},{"NoteNumber":65,"Velocity":41,"Duration":316622,"SoundDuration":316622,"Delta":197836753},{"NoteNumber":70,"Velocity":41,"Duration":316622,"SoundDuration":316622,"Delta":197836753},{"NoteNumber":46,"Velocity":41,"Duration":158311,"SoundDuration":158311,"Delta":197836753},{"NoteNumber":39,"Velocity":34,"Duration":316622,"SoundDuration":316622,"Delta":197995064},{"NoteNumber":72,"Velocity":52,"Duration":118733,"SoundDuration":118733,"Delta":198153375},{"NoteNumber":68,"Velocity":44,"Duration":118733,"SoundDuration":118733,"Delta":198153375},{"NoteNumber":53,"Velocity":40,"Duration":158311,"SoundDuration":158311,"Delta":198311687},{"NoteNumber":72,"Velocity":47,"Duration":302267,"SoundDuration":302267,"Delta":198469998},{"NoteNumber":62,"Velocity":39,"Duration":302267,"SoundDuration":302267,"Delta":198469998},{"NoteNumber":68,"Velocity":39,"Duration":302267,"SoundDuration":302267,"Delta":198469998},{"NoteNumber":46,"Velocity":41,"Duration":151133,"SoundDuration":151133,"Delta":198469998},{"NoteNumber":39,"Velocity":35,"Duration":309444,"SoundDuration":309444,"Delta":198621131},{"NoteNumber":67,"Velocity":52,"Duration":118733,"SoundDuration":118733,"Delta":198772265},{"NoteNumber":63,"Velocity":44,"Duration":118733,"SoundDuration":118733,"Delta":198772265},{"NoteNumber":55,"Velocity":37,"Duration":158311,"SoundDuration":158311,"Delta":198930576},{"NoteNumber":67,"Velocity":46,"Duration":115089,"SoundDuration":115089,"Delta":199088887},{"NoteNumber":70,"Velocity":46,"Duration":115089,"SoundDuration":115089,"Delta":199088887},{"NoteNumber":58,"Velocity":39,"Duration":115089,"SoundDuration":115089,"Delta":199088887},{"NoteNumber":46,"Velocity":41,"Duration":153452,"SoundDuration":153452,"Delta":199088887},{"NoteNumber":39,"Velocity":34,"Duration":306905,"SoundDuration":306905,"Delta":199242340},{"NoteNumber":72,"Velocity":48,"Duration":76726,"SoundDuration":76726,"Delta":199319066},{"NoteNumber":70,"Velocity":49,"Duration":115089,"SoundDuration":115089,"Delta":199395793},{"NoteNumber":67,"Velocity":41,"Duration":115089,"SoundDuration":115089,"Delta":199395793},{"NoteNumber":55,"Velocity":40,"Duration":153452,"SoundDuration":153452,"Delta":199549246},{"NoteNumber":69,"Velocity":46,"Duration":76726,"SoundDuration":76726,"Delta":199625972},{"NoteNumber":66,"Velocity":39,"Duration":76726,"SoundDuration":76726,"Delta":199625972},{"NoteNumber":70,"Velocity":52,"Duration":164835,"SoundDuration":164835,"Delta":199702698},{"NoteNumber":67,"Velocity":44,"Duration":164835,"SoundDuration":164835,"Delta":199702698},{"NoteNumber":46,"Velocity":41,"Duration":164835,"SoundDuration":164835,"Delta":199702698},{"NoteNumber":39,"Velocity":37,"Duration":318287,"SoundDuration":318287,"Delta":199867534},{"NoteNumber":65,"Velocity":52,"Duration":76726,"SoundDuration":76726,"Delta":200032369},{"NoteNumber":58,"Velocity":44,"Duration":609172,"SoundDuration":609172,"Delta":200032369},{"NoteNumber":67,"Velocity":49,"Duration":76726,"SoundDuration":76726,"Delta":200185822},{"NoteNumber":50,"Velocity":39,"Duration":153452,"SoundDuration":153452,"Delta":200185822},{"NoteNumber":68,"Velocity":50,"Duration":75566,"SoundDuration":75566,"Delta":200339274},{"NoteNumber":46,"Velocity":41,"Duration":151133,"SoundDuration":151133,"Delta":200339274},{"NoteNumber":72,"Velocity":50,"Duration":75566,"SoundDuration":75566,"Delta":200490408},{"NoteNumber":39,"Velocity":36,"Duration":302267,"SoundDuration":302267,"Delta":200490408},{"NoteNumber":70,"Velocity":52,"Duration":75566,"SoundDuration":75566,"Delta":200641541},{"NoteNumber":68,"Velocity":48,"Duration":75566,"SoundDuration":75566,"Delta":200792675},{"NoteNumber":50,"Velocity":39,"Duration":151133,"SoundDuration":151133,"Delta":200792675},{"NoteNumber":67,"Velocity":49,"Duration":75566,"SoundDuration":75566,"Delta":200943808},{"NoteNumber":46,"Velocity":41,"Duration":151133,"SoundDuration":151133,"Delta":200943808},{"NoteNumber":65,"Velocity":49,"Duration":75566,"SoundDuration":75566,"Delta":201094942},{"NoteNumber":39,"Velocity":36,"Duration":302267,"SoundDuration":302267,"Delta":201094942},{"NoteNumber":67,"Velocity":52,"Duration":113350,"SoundDuration":113350,"Delta":201246075},{"NoteNumber":70,"Velocity":52,"Duration":113350,"SoundDuration":113350,"Delta":201246075},{"NoteNumber":51,"Velocity":39,"Duration":151133,"SoundDuration":151133,"Delta":201397209},{"NoteNumber":67,"Velocity":46,"Duration":113350,"SoundDuration":113350,"Delta":201548342},{"NoteNumber":70,"Velocity":46,"Duration":113350,"SoundDuration":113350,"Delta":201548342},{"NoteNumber":58,"Velocity":39,"Duration":113350,"SoundDuration":113350,"Delta":201548342},{"NoteNumber":46,"Velocity":41,"Duration":151133,"SoundDuration":151133,"Delta":201548342},{"NoteNumber":39,"Velocity":36,"Duration":302267,"SoundDuration":302267,"Delta":201699476},{"NoteNumber":72,"Velocity":48,"Duration":37783,"SoundDuration":37783,"Delta":201812826},{"NoteNumber":70,"Velocity":49,"Duration":113350,"SoundDuration":113350,"Delta":201850609},{"NoteNumber":67,"Velocity":41,"Duration":113350,"SoundDuration":113350,"Delta":201850609},{"NoteNumber":51,"Velocity":39,"Duration":151133,"SoundDuration":151133,"Delta":202001743},{"NoteNumber":69,"Velocity":46,"Duration":75566,"SoundDuration":75566,"Delta":202077310},{"NoteNumber":66,"Velocity":39,"Duration":75566,"SoundDuration":75566,"Delta":202077310},{"NoteNumber":70,"Velocity":52,"Duration":151133,"SoundDuration":151133,"Delta":202152876},{"NoteNumber":67,"Velocity":44,"Duration":151133,"SoundDuration":151133,"Delta":202152876},{"NoteNumber":46,"Velocity":41,"Duration":151133,"SoundDuration":151133,"Delta":202152876},{"NoteNumber":39,"Velocity":36,"Duration":318731,"SoundDuration":318731,"Delta":202304010},{"NoteNumber":86,"Velocity":49,"Duration":83798,"SoundDuration":83798,"Delta":202455143},{"NoteNumber":77,"Velocity":41,"Duration":83798,"SoundDuration":83798,"Delta":202455143},{"NoteNumber":82,"Velocity":41,"Duration":83798,"SoundDuration":83798,"Delta":202455143},{"NoteNumber":53,"Velocity":39,"Duration":167597,"SoundDuration":167597,"Delta":202622741},{"NoteNumber":86,"Velocity":49,"Duration":316622,"SoundDuration":316622,"Delta":202790339},{"NoteNumber":77,"Velocity":41,"Duration":316622,"SoundDuration":316622,"Delta":202790339},{"NoteNumber":82,"Velocity":41,"Duration":316622,"SoundDuration":316622,"Delta":202790339},{"NoteNumber":46,"Velocity":41,"Duration":158311,"SoundDuration":158311,"Delta":202790339},{"NoteNumber":39,"Velocity":34,"Duration":316622,"SoundDuration":316622,"Delta":202948650},{"NoteNumber":84,"Velocity":52,"Duration":118733,"SoundDuration":118733,"Delta":203106961},{"NoteNumber":80,"Velocity":44,"Duration":118733,"SoundDuration":118733,"Delta":203106961},{"NoteNumber":53,"Velocity":40,"Duration":158311,"SoundDuration":158311,"Delta":203265273},{"NoteNumber":84,"Velocity":47,"Duration":302267,"SoundDuration":302267,"Delta":203423584},{"NoteNumber":74,"Velocity":39,"Duration":302267,"SoundDuration":302267,"Delta":203423584},{"NoteNumber":80,"Velocity":39,"Duration":302267,"SoundDuration":302267,"Delta":203423584},{"NoteNumber":46,"Velocity":41,"Duration":151133,"SoundDuration":151133,"Delta":203423584},{"NoteNumber":39,"Velocity":35,"Duration":309444,"SoundDuration":309444,"Delta":203574717},{"NoteNumber":79,"Velocity":52,"Duration":118733,"SoundDuration":118733,"Delta":203725851},{"NoteNumber":75,"Velocity":44,"Duration":118733,"SoundDuration":118733,"Delta":203725851},{"NoteNumber":55,"Velocity":37,"Duration":158311,"SoundDuration":158311,"Delta":203884162},{"NoteNumber":79,"Velocity":46,"Duration":115089,"SoundDuration":115089,"Delta":204042473},{"NoteNumber":82,"Velocity":46,"Duration":115089,"SoundDuration":115089,"Delta":204042473},{"NoteNumber":70,"Velocity":39,"Duration":115089,"SoundDuration":115089,"Delta":204042473},{"NoteNumber":46,"Velocity":41,"Duration":153452,"SoundDuration":153452,"Delta":204042473},{"NoteNumber":39,"Velocity":34,"Duration":306905,"SoundDuration":306905,"Delta":204195926},{"NoteNumber":84,"Velocity":48,"Duration":38363,"SoundDuration":38363,"Delta":204311016},{"NoteNumber":82,"Velocity":49,"Duration":115089,"SoundDuration":115089,"Delta":204349379},{"NoteNumber":79,"Velocity":41,"Duration":115089,"SoundDuration":115089,"Delta":204349379},{"NoteNumber":55,"Velocity":40,"Duration":153452,"SoundDuration":153452,"Delta":204502832},{"NoteNumber":81,"Velocity":46,"Duration":76726,"SoundDuration":76726,"Delta":204579558},{"NoteNumber":78,"Velocity":39,"Duration":76726,"SoundDuration":76726,"Delta":204579558},{"NoteNumber":82,"Velocity":52,"Duration":164835,"SoundDuration":164835,"Delta":204656284},{"NoteNumber":79,"Velocity":44,"Duration":164835,"SoundDuration":164835,"Delta":204656284},{"NoteNumber":46,"Velocity":41,"Duration":164835,"SoundDuration":164835,"Delta":204656284},{"NoteNumber":39,"Velocity":37,"Duration":318287,"SoundDuration":318287,"Delta":204821120},{"NoteNumber":77,"Velocity":52,"Duration":76726,"SoundDuration":76726,"Delta":204985955},{"NoteNumber":70,"Velocity":44,"Duration":609172,"SoundDuration":609172,"Delta":204985955},{"NoteNumber":79,"Velocity":49,"Duration":76726,"SoundDuration":76726,"Delta":205139408},{"NoteNumber":50,"Velocity":39,"Duration":153452,"SoundDuration":153452,"Delta":205139408},{"NoteNumber":80,"Velocity":50,"Duration":75566,"SoundDuration":75566,"Delta":205292860},{"NoteNumber":46,"Velocity":41,"Duration":151133,"SoundDuration":151133,"Delta":205292860},{"NoteNumber":84,"Velocity":50,"Duration":75566,"SoundDuration":75566,"Delta":205443994},{"NoteNumber":39,"Velocity":36,"Duration":302267,"SoundDuration":302267,"Delta":205443994},{"NoteNumber":70,"Velocity":44,"Duration":604534,"SoundDuration":604534,"Delta":205595127},{"NoteNumber":82,"Velocity":52,"Duration":75566,"SoundDuration":75566,"Delta":205595127},{"NoteNumber":80,"Velocity":48,"Duration":75566,"SoundDuration":75566,"Delta":205746261},{"NoteNumber":50,"Velocity":39,"Duration":151133,"SoundDuration":151133,"Delta":205746261},{"NoteNumber":79,"Velocity":49,"Duration":75566,"SoundDuration":75566,"Delta":205897394},{"NoteNumber":46,"Velocity":41,"Duration":151133,"SoundDuration":151133,"Delta":205897394},{"NoteNumber":77,"Velocity":49,"Duration":75566,"SoundDuration":75566,"Delta":206048528},{"NoteNumber":39,"Velocity":36,"Duration":302267,"SoundDuration":302267,"Delta":206048528},{"NoteNumber":70,"Velocity":52,"Duration":113350,"SoundDuration":113350,"Delta":206199661},{"NoteNumber":79,"Velocity":52,"Duration":113350,"SoundDuration":113350,"Delta":206199661},{"NoteNumber":51,"Velocity":39,"Duration":151133,"SoundDuration":151133,"Delta":206350795},{"NoteNumber":70,"Velocity":46,"Duration":528967,"SoundDuration":528967,"Delta":206501928},{"NoteNumber":75,"Velocity":46,"Duration":528967,"SoundDuration":528967,"Delta":206501928},{"NoteNumber":67,"Velocity":39,"Duration":528967,"SoundDuration":528967,"Delta":206501928},{"NoteNumber":46,"Velocity":41,"Duration":151133,"SoundDuration":151133,"Delta":206501928},{"NoteNumber":39,"Velocity":36,"Duration":302267,"SoundDuration":302267,"Delta":206653062},{"NoteNumber":51,"Velocity":39,"Duration":151133,"SoundDuration":151133,"Delta":206955329},{"NoteNumber":74,"Velocity":46,"Duration":37783,"SoundDuration":37783,"Delta":207068679},{"NoteNumber":67,"Velocity":36,"Duration":151133,"SoundDuration":151133,"Delta":207106462},{"NoteNumber":70,"Velocity":37,"Duration":151133,"SoundDuration":151133,"Delta":207106462},{"NoteNumber":75,"Velocity":43,"Duration":151133,"SoundDuration":151133,"Delta":207106462},{"NoteNumber":46,"Velocity":41,"Duration":151133,"SoundDuration":151133,"Delta":207106462},{"NoteNumber":39,"Velocity":36,"Duration":151133,"SoundDuration":151133,"Delta":207257596},{"NoteNumber":89,"Velocity":52,"Duration":76726,"SoundDuration":76726,"Delta":207408729},{"NoteNumber":82,"Velocity":44,"Duration":609172,"SoundDuration":609172,"Delta":207408729},{"NoteNumber":91,"Velocity":49,"Duration":76726,"SoundDuration":76726,"Delta":207562182},{"NoteNumber":68,"Velocity":39,"Duration":153452,"SoundDuration":153452,"Delta":207562182},{"NoteNumber":92,"Velocity":50,"Duration":75566,"SoundDuration":75566,"Delta":207715635},{"NoteNumber":62,"Velocity":41,"Duration":151133,"SoundDuration":151133,"Delta":207715635},{"NoteNumber":96,"Velocity":50,"Duration":75566,"SoundDuration":75566,"Delta":207866768},{"NoteNumber":58,"Velocity":36,"Duration":151133,"SoundDuration":151133,"Delta":207866768},{"NoteNumber":82,"Velocity":44,"Duration":604534,"SoundDuration":604534,"Delta":208017902},{"NoteNumber":94,"Velocity":52,"Duration":75566,"SoundDuration":75566,"Delta":208017902},{"NoteNumber":92,"Velocity":48,"Duration":75566,"SoundDuration":75566,"Delta":208169035},{"NoteNumber":50,"Velocity":39,"Duration":151133,"SoundDuration":151133,"Delta":208169035},{"NoteNumber":91,"Velocity":49,"Duration":75566,"SoundDuration":75566,"Delta":208320169},{"NoteNumber":46,"Velocity":41,"Duration":151133,"SoundDuration":151133,"Delta":208320169},{"NoteNumber":89,"Velocity":49,"Duration":75566,"SoundDuration":75566,"Delta":208471302},{"NoteNumber":39,"Velocity":36,"Duration":151133,"SoundDuration":151133,"Delta":208471302},{"NoteNumber":82,"Velocity":44,"Duration":118733,"SoundDuration":118733,"Delta":208622436},{"NoteNumber":94,"Velocity":52,"Duration":118733,"SoundDuration":118733,"Delta":208622436},{"NoteNumber":91,"Velocity":44,"Duration":118733,"SoundDuration":118733,"Delta":208622436},{"NoteNumber":67,"Velocity":37,"Duration":158311,"SoundDuration":158311,"Delta":208780747},{"NoteNumber":82,"Velocity":44,"Duration":306905,"SoundDuration":306905,"Delta":208939058},{"NoteNumber":94,"Velocity":49,"Duration":230179,"SoundDuration":230179,"Delta":208939058},{"NoteNumber":91,"Velocity":41,"Duration":230179,"SoundDuration":230179,"Delta":208939058},{"NoteNumber":63,"Velocity":41,"Duration":153452,"SoundDuration":153452,"Delta":208939058},{"NoteNumber":58,"Velocity":34,"Duration":153452,"SoundDuration":153452,"Delta":209092511},{"NoteNumber":93,"Velocity":46,"Duration":76726,"SoundDuration":76726,"Delta":209169237},{"NoteNumber":90,"Velocity":39,"Duration":76726,"SoundDuration":76726,"Delta":209169237},{"NoteNumber":82,"Velocity":44,"Duration":659341,"SoundDuration":659341,"Delta":209245964},{"NoteNumber":94,"Velocity":52,"Duration":659341,"SoundDuration":659341,"Delta":209245964},{"NoteNumber":91,"Velocity":44,"Duration":659341,"SoundDuration":659341,"Delta":209245964},{"NoteNumber":51,"Velocity":40,"Duration":164835,"SoundDuration":164835,"Delta":209410799},{"NoteNumber":46,"Velocity":41,"Duration":164835,"SoundDuration":164835,"Delta":209575634},{"NoteNumber":39,"Velocity":37,"Duration":164835,"SoundDuration":164835,"Delta":209740470},{"NoteNumber":77,"Velocity":52,"Duration":76726,"SoundDuration":76726,"Delta":209905305},{"NoteNumber":70,"Velocity":44,"Duration":609172,"SoundDuration":609172,"Delta":209905305},{"NoteNumber":79,"Velocity":49,"Duration":76726,"SoundDuration":76726,"Delta":210058758},{"NoteNumber":68,"Velocity":39,"Duration":153452,"SoundDuration":153452,"Delta":210058758},{"NoteNumber":80,"Velocity":50,"Duration":75566,"SoundDuration":75566,"Delta":210212210},{"NoteNumber":62,"Velocity":41,"Duration":151133,"SoundDuration":151133,"Delta":210212210},{"NoteNumber":84,"Velocity":50,"Duration":75566,"SoundDuration":75566,"Delta":210363344},{"NoteNumber":58,"Velocity":36,"Duration":151133,"SoundDuration":151133,"Delta":210363344},{"NoteNumber":70,"Velocity":44,"Duration":604534,"SoundDuration":604534,"Delta":210514477},{"NoteNumber":82,"Velocity":52,"Duration":75566,"SoundDuration":75566,"Delta":210514477},{"NoteNumber":80,"Velocity":48,"Duration":75566,"SoundDuration":75566,"Delta":210665611},{"NoteNumber":50,"Velocity":39,"Duration":151133,"SoundDuration":151133,"Delta":210665611},{"NoteNumber":79,"Velocity":49,"Duration":75566,"SoundDuration":75566,"Delta":210816744},{"NoteNumber":46,"Velocity":41,"Duration":151133,"SoundDuration":151133,"Delta":210816744},{"NoteNumber":77,"Velocity":49,"Duration":75566,"SoundDuration":75566,"Delta":210967878},{"NoteNumber":39,"Velocity":36,"Duration":151133,"SoundDuration":151133,"Delta":210967878},{"NoteNumber":70,"Velocity":52,"Duration":113350,"SoundDuration":113350,"Delta":211119011},{"NoteNumber":79,"Velocity":52,"Duration":113350,"SoundDuration":113350,"Delta":211119011},{"NoteNumber":63,"Velocity":39,"Duration":151133,"SoundDuration":151133,"Delta":211270145},{"NoteNumber":70,"Velocity":46,"Duration":528967,"SoundDuration":528967,"Delta":211421278},{"NoteNumber":75,"Velocity":46,"Duration":528967,"SoundDuration":528967,"Delta":211421278},{"NoteNumber":67,"Velocity":39,"Duration":528967,"SoundDuration":528967,"Delta":211421278},{"NoteNumber":58,"Velocity":41,"Duration":151133,"SoundDuration":151133,"Delta":211421278},{"NoteNumber":51,"Velocity":36,"Duration":151133,"SoundDuration":151133,"Delta":211572412},{"NoteNumber":51,"Velocity":39,"Duration":151133,"SoundDuration":151133,"Delta":211874679},{"NoteNumber":74,"Velocity":46,"Duration":37783,"SoundDuration":37783,"Delta":211988029},{"NoteNumber":67,"Velocity":36,"Duration":151133,"SoundDuration":151133,"Delta":212025812},{"NoteNumber":70,"Velocity":37,"Duration":151133,"SoundDuration":151133,"Delta":212025812},{"NoteNumber":75,"Velocity":43,"Duration":151133,"SoundDuration":151133,"Delta":212025812},{"NoteNumber":46,"Velocity":41,"Duration":151133,"SoundDuration":151133,"Delta":212025812},{"NoteNumber":39,"Velocity":36,"Duration":151133,"SoundDuration":151133,"Delta":212176946},{"NoteNumber":89,"Velocity":52,"Duration":76726,"SoundDuration":76726,"Delta":212328079},{"NoteNumber":82,"Velocity":44,"Duration":609172,"SoundDuration":609172,"Delta":212328079},{"NoteNumber":91,"Velocity":49,"Duration":76726,"SoundDuration":76726,"Delta":212481532},{"NoteNumber":68,"Velocity":39,"Duration":153452,"SoundDuration":153452,"Delta":212481532},{"NoteNumber":92,"Velocity":50,"Duration":75566,"SoundDuration":75566,"Delta":212634985},{"NoteNumber":62,"Velocity":41,"Duration":151133,"SoundDuration":151133,"Delta":212634985},{"NoteNumber":96,"Velocity":50,"Duration":75566,"SoundDuration":75566,"Delta":212786118},{"NoteNumber":58,"Velocity":36,"Duration":151133,"SoundDuration":151133,"Delta":212786118},{"NoteNumber":82,"Velocity":44,"Duration":604534,"SoundDuration":604534,"Delta":212937252},{"NoteNumber":94,"Velocity":52,"Duration":75566,"SoundDuration":75566,"Delta":212937252},{"NoteNumber":92,"Velocity":48,"Duration":75566,"SoundDuration":75566,"Delta":213088385},{"NoteNumber":50,"Velocity":39,"Duration":151133,"SoundDuration":151133,"Delta":213088385},{"NoteNumber":91,"Velocity":49,"Duration":75566,"SoundDuration":75566,"Delta":213239519},{"NoteNumber":46,"Velocity":41,"Duration":151133,"SoundDuration":151133,"Delta":213239519},{"NoteNumber":89,"Velocity":49,"Duration":75566,"SoundDuration":75566,"Delta":213390652},{"NoteNumber":39,"Velocity":36,"Duration":151133,"SoundDuration":151133,"Delta":213390652},{"NoteNumber":82,"Velocity":44,"Duration":118733,"SoundDuration":118733,"Delta":213541786},{"NoteNumber":94,"Velocity":52,"Duration":118733,"SoundDuration":118733,"Delta":213541786},{"NoteNumber":91,"Velocity":44,"Duration":118733,"SoundDuration":118733,"Delta":213541786},{"NoteNumber":67,"Velocity":37,"Duration":158311,"SoundDuration":158311,"Delta":213700097},{"NoteNumber":82,"Velocity":44,"Duration":306905,"SoundDuration":306905,"Delta":213858408},{"NoteNumber":94,"Velocity":49,"Duration":230179,"SoundDuration":230179,"Delta":213858408},{"NoteNumber":91,"Velocity":41,"Duration":230179,"SoundDuration":230179,"Delta":213858408},{"NoteNumber":63,"Velocity":41,"Duration":153452,"SoundDuration":153452,"Delta":213858408},{"NoteNumber":58,"Velocity":34,"Duration":153452,"SoundDuration":153452,"Delta":214011861},{"NoteNumber":93,"Velocity":46,"Duration":76726,"SoundDuration":76726,"Delta":214088587},{"NoteNumber":90,"Velocity":39,"Duration":76726,"SoundDuration":76726,"Delta":214088587},{"NoteNumber":82,"Velocity":44,"Duration":659341,"SoundDuration":659341,"Delta":214165314},{"NoteNumber":94,"Velocity":52,"Duration":659341,"SoundDuration":659341,"Delta":214165314},{"NoteNumber":91,"Velocity":44,"Duration":659341,"SoundDuration":659341,"Delta":214165314},{"NoteNumber":51,"Velocity":40,"Duration":164835,"SoundDuration":164835,"Delta":214330149},{"NoteNumber":46,"Velocity":41,"Duration":164835,"SoundDuration":164835,"Delta":214494984},{"NoteNumber":39,"Velocity":37,"Duration":164835,"SoundDuration":164835,"Delta":214659820},{"NoteNumber":77,"Velocity":52,"Duration":82417,"SoundDuration":82417,"Delta":214824655},{"NoteNumber":70,"Velocity":44,"Duration":641358,"SoundDuration":641358,"Delta":214824655},{"NoteNumber":79,"Velocity":49,"Duration":82417,"SoundDuration":82417,"Delta":214989490},{"NoteNumber":68,"Velocity":39,"Duration":164835,"SoundDuration":164835,"Delta":214989490},{"NoteNumber":80,"Velocity":50,"Duration":77922,"SoundDuration":77922,"Delta":215154325},{"NoteNumber":62,"Velocity":41,"Duration":155844,"SoundDuration":155844,"Delta":215154325},{"NoteNumber":84,"Velocity":50,"Duration":77922,"SoundDuration":77922,"Delta":215310170},{"NoteNumber":58,"Velocity":36,"Duration":155844,"SoundDuration":155844,"Delta":215310170},{"NoteNumber":70,"Velocity":44,"Duration":643473,"SoundDuration":643473,"Delta":215466014},{"NoteNumber":82,"Velocity":52,"Duration":79787,"SoundDuration":79787,"Delta":215466014},{"NoteNumber":80,"Velocity":48,"Duration":79787,"SoundDuration":79787,"Delta":215625588},{"NoteNumber":50,"Velocity":39,"Duration":159574,"SoundDuration":159574,"Delta":215625588},{"NoteNumber":79,"Velocity":49,"Duration":81081,"SoundDuration":81081,"Delta":215785163},{"NoteNumber":46,"Velocity":41,"Duration":162162,"SoundDuration":162162,"Delta":215785163},{"NoteNumber":77,"Velocity":49,"Duration":81081,"SoundDuration":81081,"Delta":215947325},{"NoteNumber":39,"Velocity":36,"Duration":162162,"SoundDuration":162162,"Delta":215947325},{"NoteNumber":78,"Velocity":49,"Duration":40540,"SoundDuration":40540,"Delta":216068947},{"NoteNumber":79,"Velocity":49,"Duration":86705,"SoundDuration":86705,"Delta":216109487},{"NoteNumber":70,"Velocity":44,"Duration":192332,"SoundDuration":192332,"Delta":216456308},{"NoteNumber":67,"Velocity":37,"Duration":384664,"SoundDuration":384664,"Delta":216456308},{"NoteNumber":55,"Velocity":38,"Duration":384664,"SoundDuration":384664,"Delta":216456308},{"NoteNumber":39,"Velocity":32,"Duration":384664,"SoundDuration":384664,"Delta":216456308},{"NoteNumber":75,"Velocity":49,"Duration":96166,"SoundDuration":96166,"Delta":216648641},{"NoteNumber":74,"Velocity":42,"Duration":192332,"SoundDuration":192332,"Delta":216840973},{"NoteNumber":68,"Velocity":35,"Duration":406648,"SoundDuration":406648,"Delta":216840973},{"NoteNumber":56,"Velocity":38,"Duration":406648,"SoundDuration":406648,"Delta":216840973},{"NoteNumber":41,"Velocity":32,"Duration":406648,"SoundDuration":406648,"Delta":216840973},{"NoteNumber":77,"Velocity":49,"Duration":107158,"SoundDuration":107158,"Delta":217033305},{"NoteNumber":65,"Velocity":42,"Duration":238133,"SoundDuration":238133,"Delta":217247621},{"NoteNumber":62,"Velocity":35,"Duration":476266,"SoundDuration":476266,"Delta":217247621},{"NoteNumber":59,"Velocity":38,"Duration":476266,"SoundDuration":476266,"Delta":217247621},{"NoteNumber":43,"Velocity":32,"Duration":476266,"SoundDuration":476266,"Delta":217247621},{"NoteNumber":71,"Velocity":49,"Duration":119066,"SoundDuration":119066,"Delta":217485754},{"NoteNumber":72,"Velocity":46,"Duration":1048034,"SoundDuration":1048034,"Delta":217723887},{"NoteNumber":67,"Velocity":39,"Duration":1048034,"SoundDuration":1048034,"Delta":217723887},{"NoteNumber":63,"Velocity":47,"Duration":2065553,"SoundDuration":2065553,"Delta":217723887},{"NoteNumber":48,"Velocity":39,"Duration":2065553,"SoundDuration":2065553,"Delta":217723887},{"NoteNumber":55,"Velocity":39,"Duration":2065553,"SoundDuration":2065553,"Delta":217723887},{"NoteNumber":71,"Velocity":47,"Duration":161943,"SoundDuration":161943,"Delta":218771922},{"NoteNumber":72,"Velocity":41,"Duration":161943,"SoundDuration":161943,"Delta":218933866},{"NoteNumber":74,"Velocity":41,"Duration":161214,"SoundDuration":161214,"Delta":219095809},{"NoteNumber":72,"Velocity":45,"Duration":166687,"SoundDuration":166687,"Delta":219257024},{"NoteNumber":71,"Velocity":40,"Duration":176834,"SoundDuration":176834,"Delta":219423711},{"NoteNumber":72,"Velocity":45,"Duration":188895,"SoundDuration":188895,"Delta":219600546},{"NoteNumber":44,"Velocity":37,"Duration":1925132,"SoundDuration":1925132,"Delta":219789441},{"NoteNumber":53,"Velocity":38,"Duration":1844919,"SoundDuration":1844919,"Delta":219869655},{"NoteNumber":60,"Velocity":39,"Duration":1764705,"SoundDuration":1764705,"Delta":219949868},{"NoteNumber":65,"Velocity":47,"Duration":1684491,"SoundDuration":1684491,"Delta":220030082},{"NoteNumber":72,"Velocity":49,"Duration":1604277,"SoundDuration":1604277,"Delta":220110296},{"NoteNumber":77,"Velocity":51,"Duration":1524063,"SoundDuration":1524063,"Delta":220190510},{"NoteNumber":75,"Velocity":49,"Duration":481283,"SoundDuration":481283,"Delta":221714574},{"NoteNumber":75,"Velocity":42,"Duration":160427,"SoundDuration":160427,"Delta":222195857},{"NoteNumber":46,"Velocity":37,"Duration":2370472,"SoundDuration":2370472,"Delta":222356285},{"NoteNumber":53,"Velocity":38,"Duration":2295095,"SoundDuration":2295095,"Delta":222431662},{"NoteNumber":58,"Velocity":39,"Duration":2219718,"SoundDuration":2219718,"Delta":222507038},{"NoteNumber":62,"Velocity":47,"Duration":2144341,"SoundDuration":2144341,"Delta":222582415},{"NoteNumber":68,"Velocity":49,"Duration":2068964,"SoundDuration":2068964,"Delta":222657792},{"NoteNumber":74,"Velocity":51,"Duration":1965516,"SoundDuration":1965516,"Delta":222761240},{"NoteNumber":62,"Velocity":46,"Duration":191489,"SoundDuration":191489,"Delta":224726757},{"NoteNumber":34,"Velocity":35,"Duration":191489,"SoundDuration":191489,"Delta":224726757},{"NoteNumber":68,"Velocity":50,"Duration":127659,"SoundDuration":127659,"Delta":224790587},{"NoteNumber":77,"Velocity":58,"Duration":63829,"SoundDuration":63829,"Delta":224854417},{"NoteNumber":75,"Velocity":56,"Duration":86695,"SoundDuration":86695,"Delta":225237396},{"NoteNumber":67,"Velocity":47,"Duration":86695,"SoundDuration":86695,"Delta":225237396},{"NoteNumber":39,"Velocity":43,"Duration":86695,"SoundDuration":86695,"Delta":225237396},{"NoteNumber":77,"Velocity":49,"Duration":80117,"SoundDuration":80117,"Delta":225407708},{"NoteNumber":70,"Velocity":41,"Duration":80117,"SoundDuration":80117,"Delta":225407708},{"NoteNumber":79,"Velocity":50,"Duration":79787,"SoundDuration":79787,"Delta":225567613},{"NoteNumber":75,"Velocity":42,"Duration":79787,"SoundDuration":79787,"Delta":225567613},{"NoteNumber":67,"Velocity":37,"Duration":79787,"SoundDuration":79787,"Delta":225567613},{"NoteNumber":63,"Velocity":31,"Duration":79787,"SoundDuration":79787,"Delta":225567613},{"NoteNumber":55,"Velocity":31,"Duration":79787,"SoundDuration":79787,"Delta":225567613},{"NoteNumber":80,"Velocity":44,"Duration":87463,"SoundDuration":87463,"Delta":225727188},{"NoteNumber":77,"Velocity":37,"Duration":87463,"SoundDuration":87463,"Delta":225727188},{"NoteNumber":84,"Velocity":56,"Duration":43731,"SoundDuration":43731,"Delta":225858383},{"NoteNumber":82,"Velocity":50,"Duration":81743,"SoundDuration":81743,"Delta":225902115},{"NoteNumber":79,"Velocity":42,"Duration":81743,"SoundDuration":81743,"Delta":225902115},{"NoteNumber":81,"Velocity":45,"Duration":81743,"SoundDuration":81743,"Delta":226147346},{"NoteNumber":78,"Velocity":38,"Duration":81743,"SoundDuration":81743,"Delta":226147346},{"NoteNumber":82,"Velocity":50,"Duration":86206,"SoundDuration":86206,"Delta":226229090},{"NoteNumber":79,"Velocity":50,"Duration":86206,"SoundDuration":86206,"Delta":226229090},{"NoteNumber":67,"Velocity":35,"Duration":86206,"SoundDuration":86206,"Delta":226229090},{"NoteNumber":63,"Velocity":29,"Duration":86206,"SoundDuration":86206,"Delta":226229090},{"NoteNumber":58,"Velocity":29,"Duration":86206,"SoundDuration":86206,"Delta":226229090},{"NoteNumber":56,"Velocity":97,"Duration":260115,"SoundDuration":260115,"Delta":226573918},{"NoteNumber":44,"Velocity":74,"Duration":260115,"SoundDuration":260115,"Delta":226573918},{"NoteNumber":32,"Velocity":63,"Duration":260115,"SoundDuration":260115,"Delta":226573918},{"NoteNumber":84,"Velocity":56,"Duration":82417,"SoundDuration":82417,"Delta":226920739},{"NoteNumber":72,"Velocity":47,"Duration":82417,"SoundDuration":82417,"Delta":226920739},{"NoteNumber":75,"Velocity":47,"Duration":82417,"SoundDuration":82417,"Delta":226920739},{"NoteNumber":68,"Velocity":48,"Duration":82417,"SoundDuration":82417,"Delta":226920739},{"NoteNumber":56,"Velocity":40,"Duration":82417,"SoundDuration":82417,"Delta":226920739},{"NoteNumber":63,"Velocity":40,"Duration":82417,"SoundDuration":82417,"Delta":226920739},{"NoteNumber":67,"Velocity":41,"Duration":73891,"SoundDuration":73891,"Delta":227167992},{"NoteNumber":55,"Velocity":35,"Duration":73891,"SoundDuration":73891,"Delta":227167992},{"NoteNumber":84,"Velocity":66,"Duration":85227,"SoundDuration":85227,"Delta":227241883},{"NoteNumber":80,"Velocity":56,"Duration":85227,"SoundDuration":85227,"Delta":227241883},{"NoteNumber":72,"Velocity":56,"Duration":85227,"SoundDuration":85227,"Delta":227241883},{"NoteNumber":68,"Velocity":55,"Duration":85227,"SoundDuration":85227,"Delta":227241883},{"NoteNumber":56,"Velocity":46,"Duration":85227,"SoundDuration":85227,"Delta":227241883},{"NoteNumber":63,"Velocity":46,"Duration":85227,"SoundDuration":85227,"Delta":227241883},{"NoteNumber":83,"Velocity":51,"Duration":81521,"SoundDuration":81521,"Delta":227493860},{"NoteNumber":71,"Velocity":42,"Duration":81521,"SoundDuration":81521,"Delta":227493860},{"NoteNumber":79,"Velocity":42,"Duration":81521,"SoundDuration":81521,"Delta":227493860},{"NoteNumber":84,"Velocity":51,"Duration":81521,"SoundDuration":81521,"Delta":227575381},{"NoteNumber":80,"Velocity":42,"Duration":81521,"SoundDuration":81521,"Delta":227575381},{"NoteNumber":72,"Velocity":42,"Duration":81521,"SoundDuration":81521,"Delta":227575381},{"NoteNumber":55,"Velocity":96,"Duration":260115,"SoundDuration":260115,"Delta":227914895},{"NoteNumber":43,"Velocity":74,"Duration":260115,"SoundDuration":260115,"Delta":227914895},{"NoteNumber":31,"Velocity":63,"Duration":260115,"SoundDuration":260115,"Delta":227914895},{"NoteNumber":82,"Velocity":56,"Duration":82417,"SoundDuration":82417,"Delta":228261716},{"NoteNumber":70,"Velocity":47,"Duration":82417,"SoundDuration":82417,"Delta":228261716},{"NoteNumber":75,"Velocity":47,"Duration":82417,"SoundDuration":82417,"Delta":228261716},{"NoteNumber":67,"Velocity":48,"Duration":82417,"SoundDuration":82417,"Delta":228261716},{"NoteNumber":55,"Velocity":40,"Duration":82417,"SoundDuration":82417,"Delta":228261716},{"NoteNumber":63,"Velocity":40,"Duration":82417,"SoundDuration":82417,"Delta":228261716},{"NoteNumber":66,"Velocity":41,"Duration":71770,"SoundDuration":71770,"Delta":228508969},{"NoteNumber":54,"Velocity":35,"Duration":71770,"SoundDuration":71770,"Delta":228508969},{"NoteNumber":82,"Velocity":66,"Duration":86705,"SoundDuration":86705,"Delta":228580740},{"NoteNumber":79,"Velocity":56,"Duration":86705,"SoundDuration":86705,"Delta":228580740},{"NoteNumber":70,"Velocity":56,"Duration":86705,"SoundDuration":86705,"Delta":228580740},{"NoteNumber":67,"Velocity":55,"Duration":86705,"SoundDuration":86705,"Delta":228580740},{"NoteNumber":55,"Velocity":46,"Duration":86705,"SoundDuration":86705,"Delta":228580740},{"NoteNumber":63,"Velocity":46,"Duration":86705,"SoundDuration":86705,"Delta":228580740},{"NoteNumber":81,"Velocity":51,"Duration":82417,"SoundDuration":82417,"Delta":228836568},{"NoteNumber":69,"Velocity":42,"Duration":82417,"SoundDuration":82417,"Delta":228836568},{"NoteNumber":78,"Velocity":42,"Duration":82417,"SoundDuration":82417,"Delta":228836568},{"NoteNumber":82,"Velocity":51,"Duration":82417,"SoundDuration":82417,"Delta":228918985},{"NoteNumber":79,"Velocity":42,"Duration":82417,"SoundDuration":82417,"Delta":228918985},{"NoteNumber":70,"Velocity":42,"Duration":82417,"SoundDuration":82417,"Delta":228918985},{"NoteNumber":53,"Velocity":95,"Duration":260115,"SoundDuration":260115,"Delta":229263461},{"NoteNumber":41,"Velocity":74,"Duration":260115,"SoundDuration":260115,"Delta":229263461},{"NoteNumber":29,"Velocity":63,"Duration":260115,"SoundDuration":260115,"Delta":229263461},{"NoteNumber":80,"Velocity":56,"Duration":82417,"SoundDuration":82417,"Delta":229610282},{"NoteNumber":68,"Velocity":47,"Duration":82417,"SoundDuration":82417,"Delta":229610282},{"NoteNumber":74,"Velocity":47,"Duration":82417,"SoundDuration":82417,"Delta":229610282},{"NoteNumber":65,"Velocity":48,"Duration":82417,"SoundDuration":82417,"Delta":229610282},{"NoteNumber":53,"Velocity":40,"Duration":82417,"SoundDuration":82417,"Delta":229610282},{"NoteNumber":62,"Velocity":40,"Duration":82417,"SoundDuration":82417,"Delta":229610282},{"NoteNumber":64,"Velocity":41,"Duration":71770,"SoundDuration":71770,"Delta":229857535},{"NoteNumber":52,"Velocity":35,"Duration":71770,"SoundDuration":71770,"Delta":229857535},{"NoteNumber":80,"Velocity":66,"Duration":85959,"SoundDuration":85959,"Delta":229929306},{"NoteNumber":77,"Velocity":56,"Duration":85959,"SoundDuration":85959,"Delta":229929306},{"NoteNumber":68,"Velocity":56,"Duration":85959,"SoundDuration":85959,"Delta":229929306},{"NoteNumber":65,"Velocity":55,"Duration":85959,"SoundDuration":85959,"Delta":229929306},{"NoteNumber":53,"Velocity":46,"Duration":85959,"SoundDuration":85959,"Delta":229929306},{"NoteNumber":62,"Velocity":46,"Duration":85959,"SoundDuration":85959,"Delta":229929306},{"NoteNumber":79,"Velocity":51,"Duration":82417,"SoundDuration":82417,"Delta":230183643},{"NoteNumber":67,"Velocity":42,"Duration":82417,"SoundDuration":82417,"Delta":230183643},{"NoteNumber":76,"Velocity":42,"Duration":82417,"SoundDuration":82417,"Delta":230183643},{"NoteNumber":80,"Velocity":51,"Duration":82417,"SoundDuration":82417,"Delta":230266061},{"NoteNumber":77,"Velocity":42,"Duration":82417,"SoundDuration":82417,"Delta":230266061},{"NoteNumber":68,"Velocity":42,"Duration":82417,"SoundDuration":82417,"Delta":230266061},{"NoteNumber":51,"Velocity":99,"Duration":260115,"SoundDuration":260115,"Delta":230610537},{"NoteNumber":39,"Velocity":74,"Duration":260115,"SoundDuration":260115,"Delta":230610537},{"NoteNumber":27,"Velocity":63,"Duration":260115,"SoundDuration":260115,"Delta":230610537},{"NoteNumber":79,"Velocity":56,"Duration":82417,"SoundDuration":82417,"Delta":230957358},{"NoteNumber":67,"Velocity":47,"Duration":82417,"SoundDuration":82417,"Delta":230957358},{"NoteNumber":70,"Velocity":47,"Duration":82417,"SoundDuration":82417,"Delta":230957358},{"NoteNumber":63,"Velocity":48,"Duration":82417,"SoundDuration":82417,"Delta":230957358},{"NoteNumber":51,"Velocity":40,"Duration":82417,"SoundDuration":82417,"Delta":230957358},{"NoteNumber":58,"Velocity":40,"Duration":82417,"SoundDuration":82417,"Delta":230957358},{"NoteNumber":62,"Velocity":41,"Duration":71770,"SoundDuration":71770,"Delta":231204610},{"NoteNumber":50,"Velocity":35,"Duration":71770,"SoundDuration":71770,"Delta":231204610},{"NoteNumber":79,"Velocity":66,"Duration":88235,"SoundDuration":88235,"Delta":231276381},{"NoteNumber":75,"Velocity":56,"Duration":88235,"SoundDuration":88235,"Delta":231276381},{"NoteNumber":67,"Velocity":56,"Duration":88235,"SoundDuration":88235,"Delta":231276381},{"NoteNumber":63,"Velocity":55,"Duration":88235,"SoundDuration":88235,"Delta":231276381},{"NoteNumber":51,"Velocity":46,"Duration":88235,"SoundDuration":88235,"Delta":231276381},{"NoteNumber":58,"Velocity":46,"Duration":88235,"SoundDuration":88235,"Delta":231276381},{"NoteNumber":78,"Velocity":51,"Duration":83333,"SoundDuration":83333,"Delta":231536185},{"NoteNumber":66,"Velocity":42,"Duration":83333,"SoundDuration":83333,"Delta":231536185},{"NoteNumber":74,"Velocity":42,"Duration":83333,"SoundDuration":83333,"Delta":231536185},{"NoteNumber":79,"Velocity":51,"Duration":82417,"SoundDuration":82417,"Delta":231619518},{"NoteNumber":75,"Velocity":42,"Duration":82417,"SoundDuration":82417,"Delta":231619518},{"NoteNumber":67,"Velocity":42,"Duration":82417,"SoundDuration":82417,"Delta":231619518},{"NoteNumber":80,"Velocity":52,"Duration":83798,"SoundDuration":83798,"Delta":231963994},{"NoteNumber":72,"Velocity":44,"Duration":83798,"SoundDuration":83798,"Delta":231963994},{"NoteNumber":34,"Velocity":48,"Duration":83798,"SoundDuration":83798,"Delta":231963994},{"NoteNumber":79,"Velocity":47,"Duration":83798,"SoundDuration":83798,"Delta":232131592},{"NoteNumber":70,"Velocity":39,"Duration":83798,"SoundDuration":83798,"Delta":232131592},{"NoteNumber":77,"Velocity":47,"Duration":81521,"SoundDuration":81521,"Delta":232299190},{"NoteNumber":68,"Velocity":39,"Duration":81521,"SoundDuration":81521,"Delta":232299190},{"NoteNumber":62,"Velocity":42,"Duration":81521,"SoundDuration":81521,"Delta":232299190},{"NoteNumber":56,"Velocity":35,"Duration":81521,"SoundDuration":81521,"Delta":232299190},{"NoteNumber":53,"Velocity":35,"Duration":81521,"SoundDuration":81521,"Delta":232299190},{"NoteNumber":75,"Velocity":47,"Duration":88235,"SoundDuration":88235,"Delta":232462233},{"NoteNumber":67,"Velocity":39,"Duration":88235,"SoundDuration":88235,"Delta":232462233},{"NoteNumber":74,"Velocity":52,"Duration":83798,"SoundDuration":83798,"Delta":232638704},{"NoteNumber":65,"Velocity":44,"Duration":83798,"SoundDuration":83798,"Delta":232638704},{"NoteNumber":46,"Velocity":47,"Duration":83798,"SoundDuration":83798,"Delta":232638704},{"NoteNumber":70,"Velocity":45,"Duration":83798,"SoundDuration":83798,"Delta":232806301},{"NoteNumber":62,"Velocity":38,"Duration":83798,"SoundDuration":83798,"Delta":232806301},{"NoteNumber":72,"Velocity":45,"Duration":89020,"SoundDuration":89020,"Delta":232973899},{"NoteNumber":63,"Velocity":38,"Duration":89020,"SoundDuration":89020,"Delta":232973899},{"NoteNumber":58,"Velocity":40,"Duration":89020,"SoundDuration":89020,"Delta":232973899},{"NoteNumber":53,"Velocity":34,"Duration":89020,"SoundDuration":89020,"Delta":232973899},{"NoteNumber":56,"Velocity":34,"Duration":89020,"SoundDuration":89020,"Delta":232973899},{"NoteNumber":74,"Velocity":45,"Duration":89020,"SoundDuration":89020,"Delta":233151941},{"NoteNumber":65,"Velocity":38,"Duration":89020,"SoundDuration":89020,"Delta":233151941},{"NoteNumber":75,"Velocity":56,"Duration":81743,"SoundDuration":81743,"Delta":233329982},{"NoteNumber":67,"Velocity":47,"Duration":81743,"SoundDuration":81743,"Delta":233329982},{"NoteNumber":39,"Velocity":43,"Duration":81743,"SoundDuration":81743,"Delta":233329982},{"NoteNumber":77,"Velocity":49,"Duration":81743,"SoundDuration":81743,"Delta":233493470},{"NoteNumber":70,"Velocity":41,"Duration":81743,"SoundDuration":81743,"Delta":233493470},{"NoteNumber":79,"Velocity":50,"Duration":78947,"SoundDuration":78947,"Delta":233656958},{"NoteNumber":75,"Velocity":42,"Duration":78947,"SoundDuration":78947,"Delta":233656958},{"NoteNumber":63,"Velocity":37,"Duration":78947,"SoundDuration":78947,"Delta":233656958},{"NoteNumber":58,"Velocity":31,"Duration":78947,"SoundDuration":78947,"Delta":233656958},{"NoteNumber":55,"Velocity":31,"Duration":78947,"SoundDuration":78947,"Delta":233656958},{"NoteNumber":80,"Velocity":44,"Duration":87463,"SoundDuration":87463,"Delta":233814852},{"NoteNumber":77,"Velocity":37,"Duration":87463,"SoundDuration":87463,"Delta":233814852},{"NoteNumber":84,"Velocity":56,"Duration":43731,"SoundDuration":43731,"Delta":233946048},{"NoteNumber":82,"Velocity":50,"Duration":81743,"SoundDuration":81743,"Delta":233989779},{"NoteNumber":79,"Velocity":42,"Duration":81743,"SoundDuration":81743,"Delta":233989779},{"NoteNumber":46,"Velocity":43,"Duration":81743,"SoundDuration":81743,"Delta":233989779},{"NoteNumber":81,"Velocity":45,"Duration":81743,"SoundDuration":81743,"Delta":234235011},{"NoteNumber":78,"Velocity":38,"Duration":81743,"SoundDuration":81743,"Delta":234235011},{"NoteNumber":82,"Velocity":50,"Duration":81743,"SoundDuration":81743,"Delta":234316755},{"NoteNumber":79,"Velocity":50,"Duration":81743,"SoundDuration":81743,"Delta":234316755},{"NoteNumber":63,"Velocity":35,"Duration":81743,"SoundDuration":81743,"Delta":234316755},{"NoteNumber":58,"Velocity":29,"Duration":81743,"SoundDuration":81743,"Delta":234316755},{"NoteNumber":55,"Velocity":29,"Duration":81743,"SoundDuration":81743,"Delta":234316755},{"NoteNumber":92,"Velocity":52,"Duration":83798,"SoundDuration":83798,"Delta":234656713},{"NoteNumber":84,"Velocity":44,"Duration":83798,"SoundDuration":83798,"Delta":234656713},{"NoteNumber":34,"Velocity":48,"Duration":83798,"SoundDuration":83798,"Delta":234656713},{"NoteNumber":91,"Velocity":47,"Duration":83798,"SoundDuration":83798,"Delta":234824311},{"NoteNumber":82,"Velocity":39,"Duration":83798,"SoundDuration":83798,"Delta":234824311},{"NoteNumber":89,"Velocity":47,"Duration":78947,"SoundDuration":78947,"Delta":234991909},{"NoteNumber":80,"Velocity":39,"Duration":78947,"SoundDuration":78947,"Delta":234991909},{"NoteNumber":62,"Velocity":42,"Duration":78947,"SoundDuration":78947,"Delta":234991909},{"NoteNumber":56,"Velocity":35,"Duration":78947,"SoundDuration":78947,"Delta":234991909},{"NoteNumber":53,"Velocity":35,"Duration":78947,"SoundDuration":78947,"Delta":234991909},{"NoteNumber":87,"Velocity":47,"Duration":88235,"SoundDuration":88235,"Delta":235149803},{"NoteNumber":79,"Velocity":39,"Duration":88235,"SoundDuration":88235,"Delta":235149803},{"NoteNumber":86,"Velocity":52,"Duration":83798,"SoundDuration":83798,"Delta":235326274},{"NoteNumber":77,"Velocity":44,"Duration":83798,"SoundDuration":83798,"Delta":235326274},{"NoteNumber":46,"Velocity":47,"Duration":83798,"SoundDuration":83798,"Delta":235326274},{"NoteNumber":82,"Velocity":45,"Duration":83798,"SoundDuration":83798,"Delta":235493872},{"NoteNumber":74,"Velocity":38,"Duration":83798,"SoundDuration":83798,"Delta":235493872},{"NoteNumber":84,"Velocity":45,"Duration":89020,"SoundDuration":89020,"Delta":235661469},{"NoteNumber":75,"Velocity":38,"Duration":89020,"SoundDuration":89020,"Delta":235661469},{"NoteNumber":58,"Velocity":40,"Duration":89020,"SoundDuration":89020,"Delta":235661469},{"NoteNumber":53,"Velocity":34,"Duration":89020,"SoundDuration":89020,"Delta":235661469},{"NoteNumber":56,"Velocity":34,"Duration":89020,"SoundDuration":89020,"Delta":235661469},{"NoteNumber":86,"Velocity":45,"Duration":89020,"SoundDuration":89020,"Delta":235839511},{"NoteNumber":77,"Velocity":38,"Duration":89020,"SoundDuration":89020,"Delta":235839511},{"NoteNumber":87,"Velocity":56,"Duration":81743,"SoundDuration":81743,"Delta":236017552},{"NoteNumber":79,"Velocity":47,"Duration":81743,"SoundDuration":81743,"Delta":236017552},{"NoteNumber":39,"Velocity":43,"Duration":81743,"SoundDuration":81743,"Delta":236017552},{"NoteNumber":89,"Velocity":49,"Duration":81743,"SoundDuration":81743,"Delta":236181040},{"NoteNumber":82,"Velocity":41,"Duration":81743,"SoundDuration":81743,"Delta":236181040},{"NoteNumber":91,"Velocity":50,"Duration":81743,"SoundDuration":81743,"Delta":236344528},{"NoteNumber":87,"Velocity":42,"Duration":81743,"SoundDuration":81743,"Delta":236344528},{"NoteNumber":63,"Velocity":37,"Duration":81743,"SoundDuration":81743,"Delta":236344528},{"NoteNumber":58,"Velocity":31,"Duration":81743,"SoundDuration":81743,"Delta":236344528},{"NoteNumber":55,"Velocity":31,"Duration":81743,"SoundDuration":81743,"Delta":236344528},{"NoteNumber":92,"Velocity":44,"Duration":87463,"SoundDuration":87463,"Delta":236508016},{"NoteNumber":89,"Velocity":37,"Duration":87463,"SoundDuration":87463,"Delta":236508016},{"NoteNumber":96,"Velocity":56,"Duration":43731,"SoundDuration":43731,"Delta":236639211},{"NoteNumber":94,"Velocity":50,"Duration":81743,"SoundDuration":81743,"Delta":236682943},{"NoteNumber":91,"Velocity":42,"Duration":81743,"SoundDuration":81743,"Delta":236682943},{"NoteNumber":46,"Velocity":43,"Duration":81743,"SoundDuration":81743,"Delta":236682943},{"NoteNumber":93,"Velocity":45,"Duration":81743,"SoundDuration":81743,"Delta":236928174},{"NoteNumber":90,"Velocity":38,"Duration":81743,"SoundDuration":81743,"Delta":236928174},{"NoteNumber":94,"Velocity":50,"Duration":85227,"SoundDuration":85227,"Delta":237009918},{"NoteNumber":91,"Velocity":50,"Duration":85227,"SoundDuration":85227,"Delta":237009918},{"NoteNumber":63,"Velocity":35,"Duration":85227,"SoundDuration":85227,"Delta":237009918},{"NoteNumber":58,"Velocity":29,"Duration":85227,"SoundDuration":85227,"Delta":237009918},{"NoteNumber":55,"Velocity":29,"Duration":85227,"SoundDuration":85227,"Delta":237009918},{"NoteNumber":56,"Velocity":93,"Duration":260115,"SoundDuration":260115,"Delta":237350827},{"NoteNumber":44,"Velocity":74,"Duration":260115,"SoundDuration":260115,"Delta":237350827},{"NoteNumber":32,"Velocity":63,"Duration":260115,"SoundDuration":260115,"Delta":237350827},{"NoteNumber":84,"Velocity":56,"Duration":82417,"SoundDuration":82417,"Delta":237697648},{"NoteNumber":72,"Velocity":47,"Duration":82417,"SoundDuration":82417,"Delta":237697648},{"NoteNumber":75,"Velocity":47,"Duration":82417,"SoundDuration":82417,"Delta":237697648},{"NoteNumber":68,"Velocity":48,"Duration":82417,"SoundDuration":82417,"Delta":237697648},{"NoteNumber":56,"Velocity":40,"Duration":82417,"SoundDuration":82417,"Delta":237697648},{"NoteNumber":63,"Velocity":40,"Duration":82417,"SoundDuration":82417,"Delta":237697648},{"NoteNumber":67,"Velocity":41,"Duration":73891,"SoundDuration":73891,"Delta":237944901},{"NoteNumber":55,"Velocity":35,"Duration":73891,"SoundDuration":73891,"Delta":237944901},{"NoteNumber":84,"Velocity":66,"Duration":90634,"SoundDuration":90634,"Delta":238018793},{"NoteNumber":80,"Velocity":56,"Duration":90634,"SoundDuration":90634,"Delta":238018793},{"NoteNumber":72,"Velocity":56,"Duration":90634,"SoundDuration":90634,"Delta":238018793},{"NoteNumber":68,"Velocity":55,"Duration":90634,"SoundDuration":90634,"Delta":238018793},{"NoteNumber":56,"Velocity":46,"Duration":90634,"SoundDuration":90634,"Delta":238018793},{"NoteNumber":63,"Velocity":46,"Duration":90634,"SoundDuration":90634,"Delta":238018793},{"NoteNumber":83,"Velocity":51,"Duration":83333,"SoundDuration":83333,"Delta":238283395},{"NoteNumber":71,"Velocity":42,"Duration":83333,"SoundDuration":83333,"Delta":238283395},{"NoteNumber":79,"Velocity":42,"Duration":83333,"SoundDuration":83333,"Delta":238283395},{"NoteNumber":84,"Velocity":51,"Duration":83333,"SoundDuration":83333,"Delta":238366728},{"NoteNumber":80,"Velocity":42,"Duration":83333,"SoundDuration":83333,"Delta":238366728},{"NoteNumber":72,"Velocity":42,"Duration":83333,"SoundDuration":83333,"Delta":238366728},{"NoteNumber":55,"Velocity":101,"Duration":260115,"SoundDuration":260115,"Delta":238709866},{"NoteNumber":43,"Velocity":74,"Duration":260115,"SoundDuration":260115,"Delta":238709866},{"NoteNumber":31,"Velocity":63,"Duration":260115,"SoundDuration":260115,"Delta":238709866},{"NoteNumber":82,"Velocity":56,"Duration":82417,"SoundDuration":82417,"Delta":239056687},{"NoteNumber":70,"Velocity":47,"Duration":82417,"SoundDuration":82417,"Delta":239056687},{"NoteNumber":75,"Velocity":47,"Duration":82417,"SoundDuration":82417,"Delta":239056687},{"NoteNumber":67,"Velocity":48,"Duration":82417,"SoundDuration":82417,"Delta":239056687},{"NoteNumber":55,"Velocity":40,"Duration":82417,"SoundDuration":82417,"Delta":239056687},{"NoteNumber":63,"Velocity":40,"Duration":82417,"SoundDuration":82417,"Delta":239056687},{"NoteNumber":66,"Velocity":41,"Duration":71770,"SoundDuration":71770,"Delta":239303939},{"NoteNumber":54,"Velocity":35,"Duration":71770,"SoundDuration":71770,"Delta":239303939},{"NoteNumber":82,"Velocity":66,"Duration":88235,"SoundDuration":88235,"Delta":239375710},{"NoteNumber":79,"Velocity":56,"Duration":88235,"SoundDuration":88235,"Delta":239375710},{"NoteNumber":70,"Velocity":56,"Duration":88235,"SoundDuration":88235,"Delta":239375710},{"NoteNumber":67,"Velocity":55,"Duration":88235,"SoundDuration":88235,"Delta":239375710},{"NoteNumber":55,"Velocity":46,"Duration":88235,"SoundDuration":88235,"Delta":239375710},{"NoteNumber":63,"Velocity":46,"Duration":88235,"SoundDuration":88235,"Delta":239375710},{"NoteNumber":81,"Velocity":51,"Duration":83333,"SoundDuration":83333,"Delta":239635514},{"NoteNumber":69,"Velocity":42,"Duration":83333,"SoundDuration":83333,"Delta":239635514},{"NoteNumber":78,"Velocity":42,"Duration":83333,"SoundDuration":83333,"Delta":239635514},{"NoteNumber":82,"Velocity":51,"Duration":83333,"SoundDuration":83333,"Delta":239718847},{"NoteNumber":79,"Velocity":42,"Duration":83333,"SoundDuration":83333,"Delta":239718847},{"NoteNumber":70,"Velocity":42,"Duration":83333,"SoundDuration":83333,"Delta":239718847},{"NoteNumber":53,"Velocity":96,"Duration":260115,"SoundDuration":260115,"Delta":240065155},{"NoteNumber":41,"Velocity":74,"Duration":260115,"SoundDuration":260115,"Delta":240065155},{"NoteNumber":29,"Velocity":63,"Duration":260115,"SoundDuration":260115,"Delta":240065155},{"NoteNumber":80,"Velocity":56,"Duration":82417,"SoundDuration":82417,"Delta":240411976},{"NoteNumber":68,"Velocity":47,"Duration":82417,"SoundDuration":82417,"Delta":240411976},{"NoteNumber":74,"Velocity":47,"Duration":82417,"SoundDuration":82417,"Delta":240411976},{"NoteNumber":65,"Velocity":48,"Duration":82417,"SoundDuration":82417,"Delta":240411976},{"NoteNumber":53,"Velocity":40,"Duration":82417,"SoundDuration":82417,"Delta":240411976},{"NoteNumber":62,"Velocity":40,"Duration":82417,"SoundDuration":82417,"Delta":240411976},{"NoteNumber":64,"Velocity":41,"Duration":71770,"SoundDuration":71770,"Delta":240659228},{"NoteNumber":52,"Velocity":35,"Duration":71770,"SoundDuration":71770,"Delta":240659228},{"NoteNumber":80,"Velocity":66,"Duration":89020,"SoundDuration":89020,"Delta":240730999},{"NoteNumber":77,"Velocity":56,"Duration":89020,"SoundDuration":89020,"Delta":240730999},{"NoteNumber":68,"Velocity":56,"Duration":89020,"SoundDuration":89020,"Delta":240730999},{"NoteNumber":65,"Velocity":55,"Duration":89020,"SoundDuration":89020,"Delta":240730999},{"NoteNumber":53,"Velocity":46,"Duration":89020,"SoundDuration":89020,"Delta":240730999},{"NoteNumber":62,"Velocity":46,"Duration":89020,"SoundDuration":89020,"Delta":240730999},{"NoteNumber":79,"Velocity":51,"Duration":81521,"SoundDuration":81521,"Delta":240990562},{"NoteNumber":67,"Velocity":42,"Duration":81521,"SoundDuration":81521,"Delta":240990562},{"NoteNumber":76,"Velocity":42,"Duration":81521,"SoundDuration":81521,"Delta":240990562},{"NoteNumber":80,"Velocity":51,"Duration":81521,"SoundDuration":81521,"Delta":241072084},{"NoteNumber":77,"Velocity":42,"Duration":81521,"SoundDuration":81521,"Delta":241072084},{"NoteNumber":68,"Velocity":42,"Duration":81521,"SoundDuration":81521,"Delta":241072084},{"NoteNumber":51,"Velocity":92,"Duration":260115,"SoundDuration":260115,"Delta":241414768},{"NoteNumber":39,"Velocity":74,"Duration":260115,"SoundDuration":260115,"Delta":241414768},{"NoteNumber":27,"Velocity":63,"Duration":260115,"SoundDuration":260115,"Delta":241414768},{"NoteNumber":79,"Velocity":56,"Duration":82417,"SoundDuration":82417,"Delta":241761589},{"NoteNumber":67,"Velocity":47,"Duration":82417,"SoundDuration":82417,"Delta":241761589},{"NoteNumber":70,"Velocity":47,"Duration":82417,"SoundDuration":82417,"Delta":241761589},{"NoteNumber":63,"Velocity":48,"Duration":82417,"SoundDuration":82417,"Delta":241761589},{"NoteNumber":51,"Velocity":40,"Duration":82417,"SoundDuration":82417,"Delta":241761589},{"NoteNumber":58,"Velocity":40,"Duration":82417,"SoundDuration":82417,"Delta":241761589},{"NoteNumber":62,"Velocity":41,"Duration":71770,"SoundDuration":71770,"Delta":242008842},{"NoteNumber":50,"Velocity":35,"Duration":71770,"SoundDuration":71770,"Delta":242008842},{"NoteNumber":79,"Velocity":66,"Duration":89020,"SoundDuration":89020,"Delta":242080612},{"NoteNumber":75,"Velocity":56,"Duration":89020,"SoundDuration":89020,"Delta":242080612},{"NoteNumber":67,"Velocity":56,"Duration":89020,"SoundDuration":89020,"Delta":242080612},{"NoteNumber":63,"Velocity":55,"Duration":89020,"SoundDuration":89020,"Delta":242080612},{"NoteNumber":51,"Velocity":46,"Duration":89020,"SoundDuration":89020,"Delta":242080612},{"NoteNumber":58,"Velocity":46,"Duration":89020,"SoundDuration":89020,"Delta":242080612},{"NoteNumber":78,"Velocity":51,"Duration":82417,"SoundDuration":82417,"Delta":242341071},{"NoteNumber":66,"Velocity":42,"Duration":82417,"SoundDuration":82417,"Delta":242341071},{"NoteNumber":74,"Velocity":42,"Duration":82417,"SoundDuration":82417,"Delta":242341071},{"NoteNumber":79,"Velocity":51,"Duration":82417,"SoundDuration":82417,"Delta":242423489},{"NoteNumber":75,"Velocity":42,"Duration":82417,"SoundDuration":82417,"Delta":242423489},{"NoteNumber":67,"Velocity":42,"Duration":82417,"SoundDuration":82417,"Delta":242423489},{"NoteNumber":92,"Velocity":52,"Duration":81521,"SoundDuration":81521,"Delta":242767965},{"NoteNumber":84,"Velocity":44,"Duration":81521,"SoundDuration":81521,"Delta":242767965},{"NoteNumber":34,"Velocity":48,"Duration":81521,"SoundDuration":81521,"Delta":242767965},{"NoteNumber":91,"Velocity":47,"Duration":81521,"SoundDuration":81521,"Delta":242931009},{"NoteNumber":82,"Velocity":39,"Duration":81521,"SoundDuration":81521,"Delta":242931009},{"NoteNumber":89,"Velocity":47,"Duration":83333,"SoundDuration":83333,"Delta":243094052},{"NoteNumber":80,"Velocity":39,"Duration":83333,"SoundDuration":83333,"Delta":243094052},{"NoteNumber":62,"Velocity":42,"Duration":83333,"SoundDuration":83333,"Delta":243094052},{"NoteNumber":56,"Velocity":35,"Duration":83333,"SoundDuration":83333,"Delta":243094052},{"NoteNumber":53,"Velocity":35,"Duration":83333,"SoundDuration":83333,"Delta":243094052},{"NoteNumber":87,"Velocity":47,"Duration":88235,"SoundDuration":88235,"Delta":243260719},{"NoteNumber":79,"Velocity":39,"Duration":88235,"SoundDuration":88235,"Delta":243260719},{"NoteNumber":86,"Velocity":52,"Duration":83798,"SoundDuration":83798,"Delta":243437189},{"NoteNumber":77,"Velocity":44,"Duration":83798,"SoundDuration":83798,"Delta":243437189},{"NoteNumber":46,"Velocity":47,"Duration":83798,"SoundDuration":83798,"Delta":243437189},{"NoteNumber":82,"Velocity":45,"Duration":83798,"SoundDuration":83798,"Delta":243604787},{"NoteNumber":74,"Velocity":38,"Duration":83798,"SoundDuration":83798,"Delta":243604787},{"NoteNumber":84,"Velocity":45,"Duration":83333,"SoundDuration":83333,"Delta":243772385},{"NoteNumber":75,"Velocity":38,"Duration":83333,"SoundDuration":83333,"Delta":243772385},{"NoteNumber":58,"Velocity":40,"Duration":83333,"SoundDuration":83333,"Delta":243772385},{"NoteNumber":53,"Velocity":34,"Duration":83333,"SoundDuration":83333,"Delta":243772385},{"NoteNumber":56,"Velocity":34,"Duration":83333,"SoundDuration":83333,"Delta":243772385},{"NoteNumber":86,"Velocity":45,"Duration":88235,"SoundDuration":88235,"Delta":243939052},{"NoteNumber":77,"Velocity":38,"Duration":88235,"SoundDuration":88235,"Delta":243939052},{"NoteNumber":87,"Velocity":56,"Duration":79787,"SoundDuration":79787,"Delta":244115522},{"NoteNumber":79,"Velocity":47,"Duration":79787,"SoundDuration":79787,"Delta":244115522},{"NoteNumber":39,"Velocity":43,"Duration":79787,"SoundDuration":79787,"Delta":244115522},{"NoteNumber":89,"Velocity":49,"Duration":79787,"SoundDuration":79787,"Delta":244275097},{"NoteNumber":82,"Velocity":41,"Duration":79787,"SoundDuration":79787,"Delta":244275097},{"NoteNumber":91,"Velocity":50,"Duration":81521,"SoundDuration":81521,"Delta":244434671},{"NoteNumber":87,"Velocity":42,"Duration":81521,"SoundDuration":81521,"Delta":244434671},{"NoteNumber":63,"Velocity":37,"Duration":81521,"SoundDuration":81521,"Delta":244434671},{"NoteNumber":58,"Velocity":31,"Duration":81521,"SoundDuration":81521,"Delta":244434671},{"NoteNumber":55,"Velocity":31,"Duration":81521,"SoundDuration":81521,"Delta":244434671},{"NoteNumber":92,"Velocity":44,"Duration":87463,"SoundDuration":87463,"Delta":244597715},{"NoteNumber":89,"Velocity":37,"Duration":87463,"SoundDuration":87463,"Delta":244597715},{"NoteNumber":96,"Velocity":56,"Duration":43731,"SoundDuration":43731,"Delta":244728910},{"NoteNumber":94,"Velocity":50,"Duration":80645,"SoundDuration":80645,"Delta":244772642},{"NoteNumber":91,"Velocity":42,"Duration":80645,"SoundDuration":80645,"Delta":244772642},{"NoteNumber":46,"Velocity":43,"Duration":80645,"SoundDuration":80645,"Delta":244772642},{"NoteNumber":90,"Velocity":38,"Duration":80645,"SoundDuration":80645,"Delta":244933932},{"NoteNumber":93,"Velocity":45,"Duration":80645,"SoundDuration":80645,"Delta":244933932},{"NoteNumber":96,"Velocity":50,"Duration":81521,"SoundDuration":81521,"Delta":245095222},{"NoteNumber":92,"Velocity":50,"Duration":81521,"SoundDuration":81521,"Delta":245095222},{"NoteNumber":63,"Velocity":35,"Duration":81521,"SoundDuration":81521,"Delta":245095222},{"NoteNumber":58,"Velocity":29,"Duration":81521,"SoundDuration":81521,"Delta":245095222},{"NoteNumber":55,"Velocity":29,"Duration":81521,"SoundDuration":81521,"Delta":245095222},{"NoteNumber":94,"Velocity":50,"Duration":81521,"SoundDuration":81521,"Delta":245258266},{"NoteNumber":91,"Velocity":50,"Duration":81521,"SoundDuration":81521,"Delta":245258266},{"NoteNumber":80,"Velocity":52,"Duration":83798,"SoundDuration":83798,"Delta":245421309},{"NoteNumber":72,"Velocity":44,"Duration":83798,"SoundDuration":83798,"Delta":245421309},{"NoteNumber":34,"Velocity":48,"Duration":83798,"SoundDuration":83798,"Delta":245421309},{"NoteNumber":79,"Velocity":47,"Duration":83798,"SoundDuration":83798,"Delta":245588907},{"NoteNumber":70,"Velocity":39,"Duration":83798,"SoundDuration":83798,"Delta":245588907},{"NoteNumber":77,"Velocity":47,"Duration":80645,"SoundDuration":80645,"Delta":245756505},{"NoteNumber":68,"Velocity":39,"Duration":80645,"SoundDuration":80645,"Delta":245756505},{"NoteNumber":62,"Velocity":42,"Duration":80645,"SoundDuration":80645,"Delta":245756505},{"NoteNumber":56,"Velocity":35,"Duration":80645,"SoundDuration":80645,"Delta":245756505},{"NoteNumber":53,"Velocity":35,"Duration":80645,"SoundDuration":80645,"Delta":245756505},{"NoteNumber":75,"Velocity":47,"Duration":84269,"SoundDuration":84269,"Delta":245917795},{"NoteNumber":67,"Velocity":39,"Duration":84269,"SoundDuration":84269,"Delta":245917795},{"NoteNumber":74,"Velocity":52,"Duration":83798,"SoundDuration":83798,"Delta":246086334},{"NoteNumber":65,"Velocity":44,"Duration":83798,"SoundDuration":83798,"Delta":246086334},{"NoteNumber":46,"Velocity":47,"Duration":83798,"SoundDuration":83798,"Delta":246086334},{"NoteNumber":70,"Velocity":45,"Duration":83798,"SoundDuration":83798,"Delta":246253932},{"NoteNumber":62,"Velocity":38,"Duration":83798,"SoundDuration":83798,"Delta":246253932},{"NoteNumber":72,"Velocity":45,"Duration":83333,"SoundDuration":83333,"Delta":246421530},{"NoteNumber":63,"Velocity":38,"Duration":83333,"SoundDuration":83333,"Delta":246421530},{"NoteNumber":58,"Velocity":40,"Duration":83333,"SoundDuration":83333,"Delta":246421530},{"NoteNumber":53,"Velocity":34,"Duration":83333,"SoundDuration":83333,"Delta":246421530},{"NoteNumber":56,"Velocity":34,"Duration":83333,"SoundDuration":83333,"Delta":246421530},{"NoteNumber":74,"Velocity":45,"Duration":88235,"SoundDuration":88235,"Delta":246588196},{"NoteNumber":65,"Velocity":38,"Duration":88235,"SoundDuration":88235,"Delta":246588196},{"NoteNumber":75,"Velocity":56,"Duration":81743,"SoundDuration":81743,"Delta":246764667},{"NoteNumber":67,"Velocity":47,"Duration":81743,"SoundDuration":81743,"Delta":246764667},{"NoteNumber":39,"Velocity":43,"Duration":81743,"SoundDuration":81743,"Delta":246764667},{"NoteNumber":77,"Velocity":49,"Duration":81743,"SoundDuration":81743,"Delta":246928155},{"NoteNumber":70,"Velocity":41,"Duration":81743,"SoundDuration":81743,"Delta":246928155},{"NoteNumber":79,"Velocity":50,"Duration":81743,"SoundDuration":81743,"Delta":247091642},{"NoteNumber":75,"Velocity":42,"Duration":81743,"SoundDuration":81743,"Delta":247091642},{"NoteNumber":63,"Velocity":37,"Duration":81743,"SoundDuration":81743,"Delta":247091642},{"NoteNumber":58,"Velocity":31,"Duration":81743,"SoundDuration":81743,"Delta":247091642},{"NoteNumber":55,"Velocity":31,"Duration":81743,"SoundDuration":81743,"Delta":247091642},{"NoteNumber":80,"Velocity":44,"Duration":87463,"SoundDuration":87463,"Delta":247255130},{"NoteNumber":77,"Velocity":37,"Duration":87463,"SoundDuration":87463,"Delta":247255130},{"NoteNumber":82,"Velocity":50,"Duration":81743,"SoundDuration":81743,"Delta":247430057},{"NoteNumber":79,"Velocity":42,"Duration":81743,"SoundDuration":81743,"Delta":247430057},{"NoteNumber":46,"Velocity":43,"Duration":81743,"SoundDuration":81743,"Delta":247430057},{"NoteNumber":78,"Velocity":38,"Duration":81743,"SoundDuration":81743,"Delta":247593545},{"NoteNumber":81,"Velocity":45,"Duration":81743,"SoundDuration":81743,"Delta":247593545},{"NoteNumber":84,"Velocity":50,"Duration":81743,"SoundDuration":81743,"Delta":247757033},{"NoteNumber":80,"Velocity":50,"Duration":81743,"SoundDuration":81743,"Delta":247757033},{"NoteNumber":63,"Velocity":35,"Duration":81743,"SoundDuration":81743,"Delta":247757033},{"NoteNumber":58,"Velocity":29,"Duration":81743,"SoundDuration":81743,"Delta":247757033},{"NoteNumber":55,"Velocity":29,"Duration":81743,"SoundDuration":81743,"Delta":247757033},{"NoteNumber":82,"Velocity":50,"Duration":81743,"SoundDuration":81743,"Delta":247920520},{"NoteNumber":79,"Velocity":50,"Duration":81743,"SoundDuration":81743,"Delta":247920520},{"NoteNumber":92,"Velocity":52,"Duration":83798,"SoundDuration":83798,"Delta":248084008},{"NoteNumber":84,"Velocity":44,"Duration":83798,"SoundDuration":83798,"Delta":248084008},{"NoteNumber":34,"Velocity":48,"Duration":83798,"SoundDuration":83798,"Delta":248084008},{"NoteNumber":91,"Velocity":47,"Duration":83798,"SoundDuration":83798,"Delta":248251606},{"NoteNumber":82,"Velocity":39,"Duration":83798,"SoundDuration":83798,"Delta":248251606},{"NoteNumber":89,"Velocity":47,"Duration":83798,"SoundDuration":83798,"Delta":248419204},{"NoteNumber":80,"Velocity":39,"Duration":83798,"SoundDuration":83798,"Delta":248419204},{"NoteNumber":62,"Velocity":42,"Duration":83798,"SoundDuration":83798,"Delta":248419204},{"NoteNumber":56,"Velocity":35,"Duration":83798,"SoundDuration":83798,"Delta":248419204},{"NoteNumber":53,"Velocity":35,"Duration":83798,"SoundDuration":83798,"Delta":248419204},{"NoteNumber":87,"Velocity":47,"Duration":88235,"SoundDuration":88235,"Delta":248586801},{"NoteNumber":79,"Velocity":39,"Duration":88235,"SoundDuration":88235,"Delta":248586801},{"NoteNumber":86,"Velocity":52,"Duration":83798,"SoundDuration":83798,"Delta":248763272},{"NoteNumber":77,"Velocity":44,"Duration":83798,"SoundDuration":83798,"Delta":248763272},{"NoteNumber":46,"Velocity":47,"Duration":83798,"SoundDuration":83798,"Delta":248763272},{"NoteNumber":82,"Velocity":45,"Duration":83798,"SoundDuration":83798,"Delta":248930870},{"NoteNumber":74,"Velocity":38,"Duration":83798,"SoundDuration":83798,"Delta":248930870},{"NoteNumber":84,"Velocity":45,"Duration":84269,"SoundDuration":84269,"Delta":249098467},{"NoteNumber":75,"Velocity":38,"Duration":84269,"SoundDuration":84269,"Delta":249098467},{"NoteNumber":62,"Velocity":40,"Duration":84269,"SoundDuration":84269,"Delta":249098467},{"NoteNumber":53,"Velocity":34,"Duration":84269,"SoundDuration":84269,"Delta":249098467},{"NoteNumber":56,"Velocity":34,"Duration":84269,"SoundDuration":84269,"Delta":249098467},{"NoteNumber":86,"Velocity":45,"Duration":84269,"SoundDuration":84269,"Delta":249267007},{"NoteNumber":77,"Velocity":38,"Duration":84269,"SoundDuration":84269,"Delta":249267007},{"NoteNumber":87,"Velocity":56,"Duration":81743,"SoundDuration":81743,"Delta":249435546},{"NoteNumber":79,"Velocity":47,"Duration":81743,"SoundDuration":81743,"Delta":249435546},{"NoteNumber":39,"Velocity":43,"Duration":81743,"SoundDuration":81743,"Delta":249435546},{"NoteNumber":89,"Velocity":49,"Duration":81743,"SoundDuration":81743,"Delta":249599034},{"NoteNumber":82,"Velocity":41,"Duration":81743,"SoundDuration":81743,"Delta":249599034},{"NoteNumber":91,"Velocity":50,"Duration":81743,"SoundDuration":81743,"Delta":249762521},{"NoteNumber":87,"Velocity":42,"Duration":81743,"SoundDuration":81743,"Delta":249762521},{"NoteNumber":63,"Velocity":37,"Duration":81743,"SoundDuration":81743,"Delta":249762521},{"NoteNumber":58,"Velocity":31,"Duration":81743,"SoundDuration":81743,"Delta":249762521},{"NoteNumber":55,"Velocity":31,"Duration":81743,"SoundDuration":81743,"Delta":249762521},{"NoteNumber":92,"Velocity":44,"Duration":84269,"SoundDuration":84269,"Delta":249926009},{"NoteNumber":89,"Velocity":37,"Duration":84269,"SoundDuration":84269,"Delta":249926009},{"NoteNumber":94,"Velocity":50,"Duration":81743,"SoundDuration":81743,"Delta":250094548},{"NoteNumber":91,"Velocity":42,"Duration":81743,"SoundDuration":81743,"Delta":250094548},{"NoteNumber":46,"Velocity":43,"Duration":81743,"SoundDuration":81743,"Delta":250094548},{"NoteNumber":90,"Velocity":38,"Duration":81743,"SoundDuration":81743,"Delta":250258036},{"NoteNumber":93,"Velocity":45,"Duration":81743,"SoundDuration":81743,"Delta":250258036},{"NoteNumber":96,"Velocity":50,"Duration":81743,"SoundDuration":81743,"Delta":250421524},{"NoteNumber":92,"Velocity":42,"Duration":81743,"SoundDuration":81743,"Delta":250421524},{"NoteNumber":63,"Velocity":35,"Duration":81743,"SoundDuration":81743,"Delta":250421524},{"NoteNumber":58,"Velocity":29,"Duration":81743,"SoundDuration":81743,"Delta":250421524},{"NoteNumber":55,"Velocity":29,"Duration":81743,"SoundDuration":81743,"Delta":250421524},{"NoteNumber":94,"Velocity":50,"Duration":91463,"SoundDuration":91463,"Delta":250585012},{"NoteNumber":91,"Velocity":42,"Duration":91463,"SoundDuration":91463,"Delta":250585012},{"NoteNumber":92,"Velocity":56,"Duration":81743,"SoundDuration":81743,"Delta":250767938},{"NoteNumber":84,"Velocity":47,"Duration":81743,"SoundDuration":81743,"Delta":250767938},{"NoteNumber":34,"Velocity":59,"Duration":81743,"SoundDuration":81743,"Delta":250767938},{"NoteNumber":91,"Velocity":53,"Duration":81743,"SoundDuration":81743,"Delta":250931426},{"NoteNumber":82,"Velocity":45,"Duration":81743,"SoundDuration":81743,"Delta":250931426},{"NoteNumber":89,"Velocity":53,"Duration":81743,"SoundDuration":81743,"Delta":251094914},{"NoteNumber":80,"Velocity":45,"Duration":81743,"SoundDuration":81743,"Delta":251094914},{"NoteNumber":53,"Velocity":29,"Duration":81743,"SoundDuration":81743,"Delta":251094914},{"NoteNumber":56,"Velocity":29,"Duration":81743,"SoundDuration":81743,"Delta":251094914},{"NoteNumber":62,"Velocity":35,"Duration":81743,"SoundDuration":81743,"Delta":251094914},{"NoteNumber":87,"Velocity":53,"Duration":81743,"SoundDuration":81743,"Delta":251258402},{"NoteNumber":79,"Velocity":45,"Duration":81743,"SoundDuration":81743,"Delta":251258402},{"NoteNumber":86,"Velocity":56,"Duration":81743,"SoundDuration":81743,"Delta":251421889},{"NoteNumber":77,"Velocity":47,"Duration":81743,"SoundDuration":81743,"Delta":251421889},{"NoteNumber":82,"Velocity":50,"Duration":91463,"SoundDuration":91463,"Delta":251585377},{"NoteNumber":74,"Velocity":42,"Duration":91463,"SoundDuration":91463,"Delta":251585377},{"NoteNumber":81,"Velocity":50,"Duration":81743,"SoundDuration":81743,"Delta":251768304},{"NoteNumber":73,"Velocity":42,"Duration":81743,"SoundDuration":81743,"Delta":251768304},{"NoteNumber":67,"Velocity":44,"Duration":81743,"SoundDuration":81743,"Delta":251768304},{"NoteNumber":64,"Velocity":37,"Duration":81743,"SoundDuration":81743,"Delta":251768304},{"NoteNumber":82,"Velocity":50,"Duration":81743,"SoundDuration":81743,"Delta":251931792},{"NoteNumber":74,"Velocity":42,"Duration":81743,"SoundDuration":81743,"Delta":251931792},{"NoteNumber":68,"Velocity":44,"Duration":81743,"SoundDuration":81743,"Delta":251931792},{"NoteNumber":65,"Velocity":37,"Duration":81743,"SoundDuration":81743,"Delta":251931792},{"NoteNumber":83,"Velocity":51,"Duration":82193,"SoundDuration":82193,"Delta":252095279},{"NoteNumber":75,"Velocity":43,"Duration":82193,"SoundDuration":82193,"Delta":252095279},{"NoteNumber":69,"Velocity":42,"Duration":82193,"SoundDuration":82193,"Delta":252095279},{"NoteNumber":66,"Velocity":35,"Duration":82193,"SoundDuration":82193,"Delta":252095279},{"NoteNumber":84,"Velocity":43,"Duration":82417,"SoundDuration":82417,"Delta":252259890},{"NoteNumber":76,"Velocity":36,"Duration":82417,"SoundDuration":82417,"Delta":252259890},{"NoteNumber":70,"Velocity":43,"Duration":82417,"SoundDuration":82417,"Delta":252259890},{"NoteNumber":67,"Velocity":36,"Duration":82417,"SoundDuration":82417,"Delta":252259890},{"NoteNumber":85,"Velocity":45,"Duration":82193,"SoundDuration":82193,"Delta":252424725},{"NoteNumber":77,"Velocity":38,"Duration":82193,"SoundDuration":82193,"Delta":252424725},{"NoteNumber":71,"Velocity":44,"Duration":82193,"SoundDuration":82193,"Delta":252424725},{"NoteNumber":68,"Velocity":37,"Duration":82193,"SoundDuration":82193,"Delta":252424725},{"NoteNumber":86,"Velocity":46,"Duration":81743,"SoundDuration":81743,"Delta":252588662},{"NoteNumber":78,"Velocity":39,"Duration":81743,"SoundDuration":81743,"Delta":252588662},{"NoteNumber":72,"Velocity":45,"Duration":81743,"SoundDuration":81743,"Delta":252588662},{"NoteNumber":69,"Velocity":38,"Duration":81743,"SoundDuration":81743,"Delta":252588662},{"NoteNumber":87,"Velocity":48,"Duration":81522,"SoundDuration":81522,"Delta":252752150},{"NoteNumber":79,"Velocity":40,"Duration":81522,"SoundDuration":81522,"Delta":252752150},{"NoteNumber":73,"Velocity":46,"Duration":81522,"SoundDuration":81522,"Delta":252752150},{"NoteNumber":70,"Velocity":39,"Duration":81522,"SoundDuration":81522,"Delta":252752150},{"NoteNumber":88,"Velocity":50,"Duration":81081,"SoundDuration":81081,"Delta":252914754},{"NoteNumber":80,"Velocity":42,"Duration":81081,"SoundDuration":81081,"Delta":252914754},{"NoteNumber":74,"Velocity":47,"Duration":81081,"SoundDuration":81081,"Delta":252914754},{"NoteNumber":71,"Velocity":39,"Duration":81081,"SoundDuration":81081,"Delta":252914754},{"NoteNumber":89,"Velocity":51,"Duration":80863,"SoundDuration":80863,"Delta":253076916},{"NoteNumber":81,"Velocity":43,"Duration":80863,"SoundDuration":80863,"Delta":253076916},{"NoteNumber":75,"Velocity":48,"Duration":80863,"SoundDuration":80863,"Delta":253076916},{"NoteNumber":72,"Velocity":40,"Duration":80863,"SoundDuration":80863,"Delta":253076916},{"NoteNumber":90,"Velocity":53,"Duration":80429,"SoundDuration":80429,"Delta":253238209},{"NoteNumber":82,"Velocity":45,"Duration":80429,"SoundDuration":80429,"Delta":253238209},{"NoteNumber":76,"Velocity":49,"Duration":80429,"SoundDuration":80429,"Delta":253238209},{"NoteNumber":73,"Velocity":41,"Duration":80429,"SoundDuration":80429,"Delta":253238209},{"NoteNumber":91,"Velocity":55,"Duration":80429,"SoundDuration":80429,"Delta":253399067},{"NoteNumber":83,"Velocity":46,"Duration":80429,"SoundDuration":80429,"Delta":253399067},{"NoteNumber":77,"Velocity":50,"Duration":80429,"SoundDuration":80429,"Delta":253399067},{"NoteNumber":74,"Velocity":42,"Duration":80429,"SoundDuration":80429,"Delta":253399067},{"NoteNumber":92,"Velocity":56,"Duration":79366,"SoundDuration":79366,"Delta":253559497},{"NoteNumber":84,"Velocity":47,"Duration":79366,"SoundDuration":79366,"Delta":253559497},{"NoteNumber":78,"Velocity":51,"Duration":79366,"SoundDuration":79366,"Delta":253559497},{"NoteNumber":75,"Velocity":43,"Duration":79366,"SoundDuration":79366,"Delta":253559497},{"NoteNumber":93,"Velocity":58,"Duration":78330,"SoundDuration":78330,"Delta":253717605},{"NoteNumber":85,"Velocity":49,"Duration":78330,"SoundDuration":78330,"Delta":253717605},{"NoteNumber":79,"Velocity":53,"Duration":78330,"SoundDuration":78330,"Delta":253717605},{"NoteNumber":76,"Velocity":45,"Duration":78330,"SoundDuration":78330,"Delta":253717605},{"NoteNumber":94,"Velocity":60,"Duration":77121,"SoundDuration":77121,"Delta":253873656},{"NoteNumber":86,"Velocity":51,"Duration":77121,"SoundDuration":77121,"Delta":253873656},{"NoteNumber":80,"Velocity":54,"Duration":77121,"SoundDuration":77121,"Delta":253873656},{"NoteNumber":77,"Velocity":45,"Duration":77121,"SoundDuration":77121,"Delta":253873656},{"NoteNumber":93,"Velocity":68,"Duration":78228,"SoundDuration":78228,"Delta":254028102},{"NoteNumber":85,"Velocity":57,"Duration":78228,"SoundDuration":78228,"Delta":254028102},{"NoteNumber":79,"Velocity":55,"Duration":78228,"SoundDuration":78228,"Delta":254028102},{"NoteNumber":76,"Velocity":46,"Duration":78228,"SoundDuration":78228,"Delta":254028102},{"NoteNumber":94,"Velocity":69,"Duration":80108,"SoundDuration":80108,"Delta":254185487},{"NoteNumber":86,"Velocity":58,"Duration":80108,"SoundDuration":80108,"Delta":254185487},{"NoteNumber":80,"Velocity":56,"Duration":80108,"SoundDuration":80108,"Delta":254185487},{"NoteNumber":77,"Velocity":47,"Duration":80108,"SoundDuration":80108,"Delta":254185487},{"NoteNumber":93,"Velocity":73,"Duration":81191,"SoundDuration":81191,"Delta":254346678},{"NoteNumber":81,"Velocity":62,"Duration":81191,"SoundDuration":81191,"Delta":254346678},{"NoteNumber":94,"Velocity":71,"Duration":96153,"SoundDuration":96153,"Delta":254508951},{"NoteNumber":82,"Velocity":60,"Duration":96153,"SoundDuration":96153,"Delta":254508951},{"NoteNumber":98,"Velocity":85,"Duration":176470,"SoundDuration":176470,"Delta":254701259},{"NoteNumber":86,"Velocity":72,"Duration":176470,"SoundDuration":176470,"Delta":254701259},{"NoteNumber":94,"Velocity":72,"Duration":176470,"SoundDuration":176470,"Delta":254701259},{"NoteNumber":44,"Velocity":71,"Duration":176470,"SoundDuration":176470,"Delta":254701259},{"NoteNumber":32,"Velocity":60,"Duration":176470,"SoundDuration":176470,"Delta":254701259},{"NoteNumber":98,"Velocity":78,"Duration":343839,"SoundDuration":343839,"Delta":255054200},{"NoteNumber":86,"Velocity":66,"Duration":343839,"SoundDuration":343839,"Delta":255054200},{"NoteNumber":94,"Velocity":66,"Duration":343839,"SoundDuration":343839,"Delta":255054200},{"NoteNumber":65,"Velocity":64,"Duration":343839,"SoundDuration":343839,"Delta":255054200},{"NoteNumber":60,"Velocity":54,"Duration":343839,"SoundDuration":343839,"Delta":255054200},{"NoteNumber":53,"Velocity":54,"Duration":343839,"SoundDuration":343839,"Delta":255054200},{"NoteNumber":96,"Velocity":85,"Duration":164835,"SoundDuration":164835,"Delta":255398039},{"NoteNumber":84,"Velocity":72,"Duration":164835,"SoundDuration":164835,"Delta":255398039},{"NoteNumber":92,"Velocity":72,"Duration":164835,"SoundDuration":164835,"Delta":255398039},{"NoteNumber":46,"Velocity":71,"Duration":164835,"SoundDuration":164835,"Delta":255398039},{"NoteNumber":34,"Velocity":60,"Duration":164835,"SoundDuration":164835,"Delta":255398039},{"NoteNumber":96,"Velocity":80,"Duration":340909,"SoundDuration":340909,"Delta":255727710},{"NoteNumber":84,"Velocity":68,"Duration":340909,"SoundDuration":340909,"Delta":255727710},{"NoteNumber":92,"Velocity":68,"Duration":340909,"SoundDuration":340909,"Delta":255727710},{"NoteNumber":65,"Velocity":65,"Duration":340909,"SoundDuration":340909,"Delta":255727710},{"NoteNumber":62,"Velocity":55,"Duration":340909,"SoundDuration":340909,"Delta":255727710},{"NoteNumber":53,"Velocity":55,"Duration":340909,"SoundDuration":340909,"Delta":255727710},{"NoteNumber":91,"Velocity":84,"Duration":164835,"SoundDuration":164835,"Delta":256068619},{"NoteNumber":79,"Velocity":71,"Duration":164835,"SoundDuration":164835,"Delta":256068619},{"NoteNumber":87,"Velocity":71,"Duration":164835,"SoundDuration":164835,"Delta":256068619},{"NoteNumber":51,"Velocity":71,"Duration":164835,"SoundDuration":164835,"Delta":256068619},{"NoteNumber":39,"Velocity":60,"Duration":164835,"SoundDuration":164835,"Delta":256068619},{"NoteNumber":94,"Velocity":76,"Duration":173410,"SoundDuration":173410,"Delta":256398289},{"NoteNumber":82,"Velocity":64,"Duration":173410,"SoundDuration":173410,"Delta":256398289},{"NoteNumber":91,"Velocity":64,"Duration":173410,"SoundDuration":173410,"Delta":256398289},{"NoteNumber":67,"Velocity":65,"Duration":173410,"SoundDuration":173410,"Delta":256398289},{"NoteNumber":63,"Velocity":55,"Duration":173410,"SoundDuration":173410,"Delta":256398289},{"NoteNumber":55,"Velocity":55,"Duration":173410,"SoundDuration":173410,"Delta":256398289},{"NoteNumber":94,"Velocity":81,"Duration":81743,"SoundDuration":81743,"Delta":256745110},{"NoteNumber":82,"Velocity":68,"Duration":81743,"SoundDuration":81743,"Delta":256745110},{"NoteNumber":91,"Velocity":68,"Duration":81743,"SoundDuration":81743,"Delta":256745110},{"NoteNumber":51,"Velocity":71,"Duration":163487,"SoundDuration":163487,"Delta":256745110},{"NoteNumber":39,"Velocity":60,"Duration":163487,"SoundDuration":163487,"Delta":256745110},{"NoteNumber":93,"Velocity":72,"Duration":81743,"SoundDuration":81743,"Delta":256990342},{"NoteNumber":81,"Velocity":61,"Duration":81743,"SoundDuration":81743,"Delta":256990342},{"NoteNumber":90,"Velocity":61,"Duration":81743,"SoundDuration":81743,"Delta":256990342},{"NoteNumber":94,"Velocity":80,"Duration":173410,"SoundDuration":173410,"Delta":257072086},{"NoteNumber":82,"Velocity":68,"Duration":173410,"SoundDuration":173410,"Delta":257072086},{"NoteNumber":91,"Velocity":68,"Duration":173410,"SoundDuration":173410,"Delta":257072086},{"NoteNumber":67,"Velocity":65,"Duration":173410,"SoundDuration":173410,"Delta":257072086},{"NoteNumber":63,"Velocity":55,"Duration":173410,"SoundDuration":173410,"Delta":257072086},{"NoteNumber":55,"Velocity":55,"Duration":173410,"SoundDuration":173410,"Delta":257072086},{"NoteNumber":89,"Velocity":75,"Duration":81743,"SoundDuration":81743,"Delta":257418907},{"NoteNumber":77,"Velocity":63,"Duration":81743,"SoundDuration":81743,"Delta":257418907},{"NoteNumber":80,"Velocity":63,"Duration":81743,"SoundDuration":81743,"Delta":257418907},{"NoteNumber":53,"Velocity":71,"Duration":163487,"SoundDuration":163487,"Delta":257418907},{"NoteNumber":41,"Velocity":60,"Duration":163487,"SoundDuration":163487,"Delta":257418907},{"NoteNumber":91,"Velocity":74,"Duration":81743,"SoundDuration":81743,"Delta":257582395},{"NoteNumber":79,"Velocity":62,"Duration":81743,"SoundDuration":81743,"Delta":257582395},{"NoteNumber":82,"Velocity":62,"Duration":81743,"SoundDuration":81743,"Delta":257582395},{"NoteNumber":92,"Velocity":74,"Duration":78947,"SoundDuration":78947,"Delta":257745882},{"NoteNumber":80,"Velocity":62,"Duration":78947,"SoundDuration":78947,"Delta":257745882},{"NoteNumber":84,"Velocity":62,"Duration":78947,"SoundDuration":78947,"Delta":257745882},{"NoteNumber":65,"Velocity":65,"Duration":157894,"SoundDuration":157894,"Delta":257745882},{"NoteNumber":60,"Velocity":55,"Duration":157894,"SoundDuration":157894,"Delta":257745882},{"NoteNumber":56,"Velocity":55,"Duration":157894,"SoundDuration":157894,"Delta":257745882},{"NoteNumber":87,"Velocity":74,"Duration":78947,"SoundDuration":78947,"Delta":257903777},{"NoteNumber":96,"Velocity":74,"Duration":78947,"SoundDuration":78947,"Delta":257903777},{"NoteNumber":84,"Velocity":62,"Duration":78947,"SoundDuration":78947,"Delta":257903777},{"NoteNumber":86,"Velocity":76,"Duration":81521,"SoundDuration":81521,"Delta":258061672},{"NoteNumber":94,"Velocity":76,"Duration":81521,"SoundDuration":81521,"Delta":258061672},{"NoteNumber":82,"Velocity":64,"Duration":81521,"SoundDuration":81521,"Delta":258061672},{"NoteNumber":46,"Velocity":71,"Duration":163043,"SoundDuration":163043,"Delta":258061672},{"NoteNumber":34,"Velocity":60,"Duration":163043,"SoundDuration":163043,"Delta":258061672},{"NoteNumber":92,"Velocity":73,"Duration":81521,"SoundDuration":81521,"Delta":258224715},{"NoteNumber":80,"Velocity":62,"Duration":81521,"SoundDuration":81521,"Delta":258224715},{"NoteNumber":84,"Velocity":62,"Duration":81521,"SoundDuration":81521,"Delta":258224715},{"NoteNumber":91,"Velocity":74,"Duration":81521,"SoundDuration":81521,"Delta":258387759},{"NoteNumber":79,"Velocity":62,"Duration":81521,"SoundDuration":81521,"Delta":258387759},{"NoteNumber":82,"Velocity":62,"Duration":81521,"SoundDuration":81521,"Delta":258387759},{"NoteNumber":65,"Velocity":65,"Duration":163043,"SoundDuration":163043,"Delta":258387759},{"NoteNumber":62,"Velocity":55,"Duration":163043,"SoundDuration":163043,"Delta":258387759},{"NoteNumber":56,"Velocity":55,"Duration":163043,"SoundDuration":163043,"Delta":258387759},{"NoteNumber":89,"Velocity":74,"Duration":81521,"SoundDuration":81521,"Delta":258550802},{"NoteNumber":77,"Velocity":62,"Duration":81521,"SoundDuration":81521,"Delta":258550802},{"NoteNumber":80,"Velocity":62,"Duration":81521,"SoundDuration":81521,"Delta":258550802},{"NoteNumber":94,"Velocity":84,"Duration":164835,"SoundDuration":164835,"Delta":258713846},{"NoteNumber":91,"Velocity":84,"Duration":164835,"SoundDuration":164835,"Delta":258713846},{"NoteNumber":82,"Velocity":71,"Duration":164835,"SoundDuration":164835,"Delta":258713846},{"NoteNumber":51,"Velocity":71,"Duration":164835,"SoundDuration":164835,"Delta":258713846},{"NoteNumber":39,"Velocity":60,"Duration":164835,"SoundDuration":164835,"Delta":258713846},{"NoteNumber":91,"Velocity":76,"Duration":173410,"SoundDuration":173410,"Delta":259043516},{"NoteNumber":94,"Velocity":76,"Duration":173410,"SoundDuration":173410,"Delta":259043516},{"NoteNumber":82,"Velocity":64,"Duration":173410,"SoundDuration":173410,"Delta":259043516},{"NoteNumber":67,"Velocity":65,"Duration":173410,"SoundDuration":173410,"Delta":259043516},{"NoteNumber":63,"Velocity":55,"Duration":173410,"SoundDuration":173410,"Delta":259043516},{"NoteNumber":55,"Velocity":55,"Duration":173410,"SoundDuration":173410,"Delta":259043516},{"NoteNumber":81,"Velocity":61,"Duration":86705,"SoundDuration":86705,"Delta":259303632},{"NoteNumber":90,"Velocity":72,"Duration":86705,"SoundDuration":86705,"Delta":259303632},{"NoteNumber":93,"Velocity":72,"Duration":86705,"SoundDuration":86705,"Delta":259303632},{"NoteNumber":94,"Velocity":81,"Duration":683058,"SoundDuration":683058,"Delta":259390337},{"NoteNumber":91,"Velocity":81,"Duration":683058,"SoundDuration":683058,"Delta":259390337},{"NoteNumber":82,"Velocity":68,"Duration":683058,"SoundDuration":683058,"Delta":259390337},{"NoteNumber":51,"Velocity":71,"Duration":163487,"SoundDuration":163487,"Delta":259390337},{"NoteNumber":39,"Velocity":60,"Duration":163487,"SoundDuration":163487,"Delta":259390337},{"NoteNumber":67,"Velocity":65,"Duration":178041,"SoundDuration":178041,"Delta":259717313},{"NoteNumber":63,"Velocity":55,"Duration":178041,"SoundDuration":178041,"Delta":259717313},{"NoteNumber":55,"Velocity":55,"Duration":178041,"SoundDuration":178041,"Delta":259717313},{"NoteNumber":98,"Velocity":85,"Duration":191693,"SoundDuration":191693,"Delta":260073396},{"NoteNumber":86,"Velocity":72,"Duration":191693,"SoundDuration":191693,"Delta":260073396},{"NoteNumber":94,"Velocity":72,"Duration":191693,"SoundDuration":191693,"Delta":260073396},{"NoteNumber":44,"Velocity":71,"Duration":191693,"SoundDuration":191693,"Delta":260073396},{"NoteNumber":32,"Velocity":60,"Duration":191693,"SoundDuration":191693,"Delta":260073396},{"NoteNumber":98,"Velocity":78,"Duration":372671,"SoundDuration":372671,"Delta":260456782},{"NoteNumber":86,"Velocity":66,"Duration":372671,"SoundDuration":372671,"Delta":260456782},{"NoteNumber":94,"Velocity":66,"Duration":372671,"SoundDuration":372671,"Delta":260456782},{"NoteNumber":65,"Velocity":64,"Duration":372671,"SoundDuration":372671,"Delta":260456782},{"NoteNumber":60,"Velocity":54,"Duration":372671,"SoundDuration":372671,"Delta":260456782},{"NoteNumber":53,"Velocity":54,"Duration":372671,"SoundDuration":372671,"Delta":260456782},{"NoteNumber":96,"Velocity":85,"Duration":170454,"SoundDuration":170454,"Delta":260829453},{"NoteNumber":84,"Velocity":72,"Duration":170454,"SoundDuration":170454,"Delta":260829453},{"NoteNumber":92,"Velocity":72,"Duration":170454,"SoundDuration":170454,"Delta":260829453},{"NoteNumber":46,"Velocity":71,"Duration":170454,"SoundDuration":170454,"Delta":260829453},{"NoteNumber":34,"Velocity":60,"Duration":170454,"SoundDuration":170454,"Delta":260829453},{"NoteNumber":96,"Velocity":80,"Duration":359281,"SoundDuration":359281,"Delta":261170362},{"NoteNumber":84,"Velocity":68,"Duration":359281,"SoundDuration":359281,"Delta":261170362},{"NoteNumber":92,"Velocity":68,"Duration":359281,"SoundDuration":359281,"Delta":261170362},{"NoteNumber":65,"Velocity":65,"Duration":359281,"SoundDuration":359281,"Delta":261170362},{"NoteNumber":62,"Velocity":55,"Duration":359281,"SoundDuration":359281,"Delta":261170362},{"NoteNumber":53,"Velocity":55,"Duration":359281,"SoundDuration":359281,"Delta":261170362},{"NoteNumber":91,"Velocity":84,"Duration":164835,"SoundDuration":164835,"Delta":261529644},{"NoteNumber":79,"Velocity":71,"Duration":164835,"SoundDuration":164835,"Delta":261529644},{"NoteNumber":87,"Velocity":71,"Duration":164835,"SoundDuration":164835,"Delta":261529644},{"NoteNumber":51,"Velocity":71,"Duration":164835,"SoundDuration":164835,"Delta":261529644},{"NoteNumber":39,"Velocity":60,"Duration":164835,"SoundDuration":164835,"Delta":261529644},{"NoteNumber":94,"Velocity":76,"Duration":173410,"SoundDuration":173410,"Delta":261859314},{"NoteNumber":82,"Velocity":64,"Duration":173410,"SoundDuration":173410,"Delta":261859314},{"NoteNumber":91,"Velocity":64,"Duration":173410,"SoundDuration":173410,"Delta":261859314},{"NoteNumber":67,"Velocity":65,"Duration":173410,"SoundDuration":173410,"Delta":261859314},{"NoteNumber":63,"Velocity":55,"Duration":173410,"SoundDuration":173410,"Delta":261859314},{"NoteNumber":55,"Velocity":55,"Duration":173410,"SoundDuration":173410,"Delta":261859314},{"NoteNumber":94,"Velocity":81,"Duration":81743,"SoundDuration":81743,"Delta":262206135},{"NoteNumber":82,"Velocity":68,"Duration":81743,"SoundDuration":81743,"Delta":262206135},{"NoteNumber":91,"Velocity":68,"Duration":81743,"SoundDuration":81743,"Delta":262206135},{"NoteNumber":51,"Velocity":71,"Duration":163487,"SoundDuration":163487,"Delta":262206135},{"NoteNumber":39,"Velocity":60,"Duration":163487,"SoundDuration":163487,"Delta":262206135},{"NoteNumber":93,"Velocity":72,"Duration":81743,"SoundDuration":81743,"Delta":262451367},{"NoteNumber":81,"Velocity":61,"Duration":81743,"SoundDuration":81743,"Delta":262451367},{"NoteNumber":90,"Velocity":61,"Duration":81743,"SoundDuration":81743,"Delta":262451367},{"NoteNumber":94,"Velocity":80,"Duration":173410,"SoundDuration":173410,"Delta":262533111},{"NoteNumber":82,"Velocity":68,"Duration":173410,"SoundDuration":173410,"Delta":262533111},{"NoteNumber":91,"Velocity":68,"Duration":173410,"SoundDuration":173410,"Delta":262533111},{"NoteNumber":67,"Velocity":65,"Duration":173410,"SoundDuration":173410,"Delta":262533111},{"NoteNumber":63,"Velocity":55,"Duration":173410,"SoundDuration":173410,"Delta":262533111},{"NoteNumber":55,"Velocity":55,"Duration":173410,"SoundDuration":173410,"Delta":262533111},{"NoteNumber":89,"Velocity":66,"Duration":81743,"SoundDuration":81743,"Delta":262879932},{"NoteNumber":77,"Velocity":56,"Duration":81743,"SoundDuration":81743,"Delta":262879932},{"NoteNumber":80,"Velocity":56,"Duration":81743,"SoundDuration":81743,"Delta":262879932},{"NoteNumber":53,"Velocity":71,"Duration":163487,"SoundDuration":163487,"Delta":262879932},{"NoteNumber":41,"Velocity":60,"Duration":163487,"SoundDuration":163487,"Delta":262879932},{"NoteNumber":91,"Velocity":68,"Duration":81743,"SoundDuration":81743,"Delta":263043420},{"NoteNumber":79,"Velocity":57,"Duration":81743,"SoundDuration":81743,"Delta":263043420},{"NoteNumber":82,"Velocity":57,"Duration":81743,"SoundDuration":81743,"Delta":263043420},{"NoteNumber":92,"Velocity":70,"Duration":78947,"SoundDuration":78947,"Delta":263206907},{"NoteNumber":80,"Velocity":59,"Duration":78947,"SoundDuration":78947,"Delta":263206907},{"NoteNumber":83,"Velocity":59,"Duration":78947,"SoundDuration":78947,"Delta":263206907},{"NoteNumber":65,"Velocity":65,"Duration":157894,"SoundDuration":157894,"Delta":263206907},{"NoteNumber":60,"Velocity":55,"Duration":157894,"SoundDuration":157894,"Delta":263206907},{"NoteNumber":56,"Velocity":55,"Duration":157894,"SoundDuration":157894,"Delta":263206907},{"NoteNumber":84,"Velocity":61,"Duration":78947,"SoundDuration":78947,"Delta":263364802},{"NoteNumber":93,"Velocity":72,"Duration":78947,"SoundDuration":78947,"Delta":263364802},{"NoteNumber":81,"Velocity":61,"Duration":78947,"SoundDuration":78947,"Delta":263364802},{"NoteNumber":94,"Velocity":74,"Duration":81521,"SoundDuration":81521,"Delta":263522697},{"NoteNumber":85,"Velocity":62,"Duration":81521,"SoundDuration":81521,"Delta":263522697},{"NoteNumber":82,"Velocity":62,"Duration":81521,"SoundDuration":81521,"Delta":263522697},{"NoteNumber":46,"Velocity":71,"Duration":163043,"SoundDuration":163043,"Delta":263522697},{"NoteNumber":34,"Velocity":60,"Duration":163043,"SoundDuration":163043,"Delta":263522697},{"NoteNumber":95,"Velocity":76,"Duration":81521,"SoundDuration":81521,"Delta":263685740},{"NoteNumber":83,"Velocity":64,"Duration":81521,"SoundDuration":81521,"Delta":263685740},{"NoteNumber":86,"Velocity":64,"Duration":81521,"SoundDuration":81521,"Delta":263685740},{"NoteNumber":96,"Velocity":78,"Duration":83333,"SoundDuration":83333,"Delta":263848784},{"NoteNumber":84,"Velocity":66,"Duration":83333,"SoundDuration":83333,"Delta":263848784},{"NoteNumber":87,"Velocity":66,"Duration":83333,"SoundDuration":83333,"Delta":263848784},{"NoteNumber":65,"Velocity":65,"Duration":166666,"SoundDuration":166666,"Delta":263848784},{"NoteNumber":62,"Velocity":55,"Duration":166666,"SoundDuration":166666,"Delta":263848784},{"NoteNumber":56,"Velocity":55,"Duration":166666,"SoundDuration":166666,"Delta":263848784},{"NoteNumber":98,"Velocity":79,"Duration":83333,"SoundDuration":83333,"Delta":264015451},{"NoteNumber":86,"Velocity":67,"Duration":83333,"SoundDuration":83333,"Delta":264015451},{"NoteNumber":89,"Velocity":67,"Duration":83333,"SoundDuration":83333,"Delta":264015451},{"NoteNumber":99,"Velocity":81,"Duration":81521,"SoundDuration":81521,"Delta":264182117},{"NoteNumber":87,"Velocity":68,"Duration":81521,"SoundDuration":81521,"Delta":264182117},{"NoteNumber":91,"Velocity":68,"Duration":81521,"SoundDuration":81521,"Delta":264182117},{"NoteNumber":39,"Velocity":60,"Duration":163043,"SoundDuration":163043,"Delta":264182117},{"NoteNumber":51,"Velocity":71,"Duration":163043,"SoundDuration":163043,"Delta":264182117},{"NoteNumber":75,"Velocity":68,"Duration":81521,"SoundDuration":81521,"Delta":264834291},{"NoteNumber":79,"Velocity":68,"Duration":81521,"SoundDuration":81521,"Delta":264834291},{"NoteNumber":82,"Velocity":68,"Duration":81521,"SoundDuration":81521,"Delta":264834291},{"NoteNumber":87,"Velocity":81,"Duration":81521,"SoundDuration":81521,"Delta":264834291},{"NoteNumber":63,"Velocity":60,"Duration":163043,"SoundDuration":163043,"Delta":264834291},{"NoteNumber":67,"Velocity":71,"Duration":163043,"SoundDuration":163043,"Delta":264834291},{"NoteNumber":55,"Velocity":60,"Duration":163043,"SoundDuration":163043,"Delta":264834291},{"NoteNumber":58,"Velocity":60,"Duration":163043,"SoundDuration":163043,"Delta":264839726},{"NoteNumber":58,"Velocity":57,"Duration":73170,"SoundDuration":73170,"Delta":266464726},{"NoteNumber":60,"Velocity":54,"Duration":73170,"SoundDuration":73170,"Delta":266537897},{"NoteNumber":58,"Velocity":55,"Duration":73170,"SoundDuration":73170,"Delta":266611068},{"NoteNumber":57,"Velocity":55,"Duration":73170,"SoundDuration":73170,"Delta":266684238},{"NoteNumber":58,"Velocity":55,"Duration":73170,"SoundDuration":73170,"Delta":266757409},{"NoteNumber":62,"Velocity":60,"Duration":79225,"SoundDuration":79225,"Delta":266830580},{"NoteNumber":61,"Velocity":53,"Duration":94043,"SoundDuration":94043,"Delta":267041847},{"NoteNumber":60,"Velocity":53,"Duration":89020,"SoundDuration":89020,"Delta":267229935},{"NoteNumber":46,"Velocity":34,"Duration":89020,"SoundDuration":89020,"Delta":267229935},{"NoteNumber":53,"Velocity":41,"Duration":89020,"SoundDuration":89020,"Delta":267229935},{"NoteNumber":59,"Velocity":53,"Duration":89020,"SoundDuration":89020,"Delta":267407977},{"NoteNumber":58,"Velocity":57,"Duration":93167,"SoundDuration":93167,"Delta":267586018},{"NoteNumber":39,"Velocity":45,"Duration":93167,"SoundDuration":93167,"Delta":267586018},{"NoteNumber":57,"Velocity":54,"Duration":87463,"SoundDuration":87463,"Delta":267772354},{"NoteNumber":56,"Velocity":54,"Duration":87463,"SoundDuration":87463,"Delta":267947281},{"NoteNumber":46,"Velocity":37,"Duration":87463,"SoundDuration":87463,"Delta":267947281},{"NoteNumber":53,"Velocity":44,"Duration":87463,"SoundDuration":87463,"Delta":267947281},{"NoteNumber":60,"Velocity":54,"Duration":87463,"SoundDuration":87463,"Delta":268122208},{"NoteNumber":55,"Velocity":57,"Duration":89020,"SoundDuration":89020,"Delta":268297135},{"NoteNumber":56,"Velocity":54,"Duration":89020,"SoundDuration":89020,"Delta":268475176},{"NoteNumber":57,"Velocity":54,"Duration":89020,"SoundDuration":89020,"Delta":268653218},{"NoteNumber":46,"Velocity":34,"Duration":89020,"SoundDuration":89020,"Delta":268653218},{"NoteNumber":51,"Velocity":40,"Duration":89020,"SoundDuration":89020,"Delta":268653218},{"NoteNumber":58,"Velocity":54,"Duration":47923,"SoundDuration":47923,"Delta":268831259},{"NoteNumber":57,"Velocity":49,"Duration":41493,"SoundDuration":41493,"Delta":268927106},{"NoteNumber":58,"Velocity":49,"Duration":41493,"SoundDuration":41493,"Delta":268968599},{"NoteNumber":60,"Velocity":49,"Duration":41493,"SoundDuration":41493,"Delta":269010093},{"NoteNumber":58,"Velocity":57,"Duration":80428,"SoundDuration":80428,"Delta":269051587},{"NoteNumber":39,"Velocity":45,"Duration":80428,"SoundDuration":80428,"Delta":269051587},{"NoteNumber":57,"Velocity":53,"Duration":80428,"SoundDuration":80428,"Delta":269212445},{"NoteNumber":58,"Velocity":57,"Duration":90634,"SoundDuration":90634,"Delta":269373303},{"NoteNumber":46,"Velocity":36,"Duration":90634,"SoundDuration":90634,"Delta":269373303},{"NoteNumber":51,"Velocity":43,"Duration":90634,"SoundDuration":90634,"Delta":269373303},{"NoteNumber":55,"Velocity":54,"Duration":90634,"SoundDuration":90634,"Delta":269554572},{"NoteNumber":53,"Velocity":57,"Duration":88235,"SoundDuration":88235,"Delta":269746901},{"NoteNumber":55,"Velocity":51,"Duration":88235,"SoundDuration":88235,"Delta":269923372},{"NoteNumber":56,"Velocity":51,"Duration":88235,"SoundDuration":88235,"Delta":270099842},{"NoteNumber":46,"Velocity":35,"Duration":88235,"SoundDuration":88235,"Delta":270099842},{"NoteNumber":50,"Velocity":42,"Duration":88235,"SoundDuration":88235,"Delta":270099842},{"NoteNumber":60,"Velocity":51,"Duration":88235,"SoundDuration":88235,"Delta":270276313},{"NoteNumber":58,"Velocity":54,"Duration":88235,"SoundDuration":88235,"Delta":270452783},{"NoteNumber":39,"Velocity":45,"Duration":88235,"SoundDuration":88235,"Delta":270452783},{"NoteNumber":56,"Velocity":51,"Duration":88235,"SoundDuration":88235,"Delta":270629254},{"NoteNumber":55,"Velocity":51,"Duration":88235,"SoundDuration":88235,"Delta":270805724},{"NoteNumber":46,"Velocity":36,"Duration":88235,"SoundDuration":88235,"Delta":270805724},{"NoteNumber":50,"Velocity":43,"Duration":88235,"SoundDuration":88235,"Delta":270805724},{"NoteNumber":53,"Velocity":51,"Duration":88235,"SoundDuration":88235,"Delta":270982195},{"NoteNumber":57,"Velocity":54,"Duration":88235,"SoundDuration":88235,"Delta":271163598},{"NoteNumber":58,"Velocity":45,"Duration":88235,"SoundDuration":88235,"Delta":271340068},{"NoteNumber":58,"Velocity":47,"Duration":88235,"SoundDuration":88235,"Delta":271516539},{"NoteNumber":46,"Velocity":34,"Duration":88235,"SoundDuration":88235,"Delta":271516539},{"NoteNumber":55,"Velocity":41,"Duration":88235,"SoundDuration":88235,"Delta":271516539},{"NoteNumber":59,"Velocity":48,"Duration":87412,"SoundDuration":87412,"Delta":271692701},{"NoteNumber":59,"Velocity":50,"Duration":86158,"SoundDuration":86158,"Delta":271866819},{"NoteNumber":39,"Velocity":45,"Duration":86158,"SoundDuration":86158,"Delta":271866819},{"NoteNumber":60,"Velocity":52,"Duration":85179,"SoundDuration":85179,"Delta":272038644},{"NoteNumber":60,"Velocity":54,"Duration":83987,"SoundDuration":83987,"Delta":272208331},{"NoteNumber":46,"Velocity":41,"Duration":83987,"SoundDuration":83987,"Delta":272208331},{"NoteNumber":55,"Velocity":49,"Duration":83987,"SoundDuration":83987,"Delta":272208331},{"NoteNumber":61,"Velocity":55,"Duration":83102,"SoundDuration":83102,"Delta":272375839},{"NoteNumber":62,"Velocity":58,"Duration":90634,"SoundDuration":90634,"Delta":272568430},{"NoteNumber":61,"Velocity":53,"Duration":91463,"SoundDuration":91463,"Delta":272749699},{"NoteNumber":60,"Velocity":53,"Duration":89020,"SoundDuration":89020,"Delta":272932626},{"NoteNumber":46,"Velocity":34,"Duration":89020,"SoundDuration":89020,"Delta":272932626},{"NoteNumber":53,"Velocity":41,"Duration":89020,"SoundDuration":89020,"Delta":272932626},{"NoteNumber":59,"Velocity":53,"Duration":89020,"SoundDuration":89020,"Delta":273110667},{"NoteNumber":58,"Velocity":57,"Duration":87463,"SoundDuration":87463,"Delta":273288709},{"NoteNumber":39,"Velocity":45,"Duration":87463,"SoundDuration":87463,"Delta":273288709},{"NoteNumber":57,"Velocity":54,"Duration":87463,"SoundDuration":87463,"Delta":273463636},{"NoteNumber":56,"Velocity":54,"Duration":87463,"SoundDuration":87463,"Delta":273638563},{"NoteNumber":46,"Velocity":37,"Duration":87463,"SoundDuration":87463,"Delta":273638563},{"NoteNumber":53,"Velocity":44,"Duration":87463,"SoundDuration":87463,"Delta":273638563},{"NoteNumber":60,"Velocity":54,"Duration":87463,"SoundDuration":87463,"Delta":273813490},{"NoteNumber":55,"Velocity":57,"Duration":92307,"SoundDuration":92307,"Delta":273988417},{"NoteNumber":56,"Velocity":54,"Duration":88235,"SoundDuration":88235,"Delta":274173032},{"NoteNumber":57,"Velocity":54,"Duration":88235,"SoundDuration":88235,"Delta":274349503},{"NoteNumber":46,"Velocity":34,"Duration":88235,"SoundDuration":88235,"Delta":274349503},{"NoteNumber":51,"Velocity":40,"Duration":88235,"SoundDuration":88235,"Delta":274349503},{"NoteNumber":58,"Velocity":54,"Duration":47923,"SoundDuration":47923,"Delta":274525973},{"NoteNumber":57,"Velocity":49,"Duration":41493,"SoundDuration":41493,"Delta":274621820},{"NoteNumber":58,"Velocity":49,"Duration":41493,"SoundDuration":41493,"Delta":274663314},{"NoteNumber":60,"Velocity":49,"Duration":41493,"SoundDuration":41493,"Delta":274704808},{"NoteNumber":58,"Velocity":57,"Duration":82417,"SoundDuration":82417,"Delta":274746301},{"NoteNumber":39,"Velocity":45,"Duration":82417,"SoundDuration":82417,"Delta":274746301},{"NoteNumber":57,"Velocity":53,"Duration":82417,"SoundDuration":82417,"Delta":274911137},{"NoteNumber":58,"Velocity":57,"Duration":88235,"SoundDuration":88235,"Delta":275075972},{"NoteNumber":46,"Velocity":36,"Duration":88235,"SoundDuration":88235,"Delta":275075972},{"NoteNumber":51,"Velocity":43,"Duration":88235,"SoundDuration":88235,"Delta":275075972},{"NoteNumber":55,"Velocity":54,"Duration":88235,"SoundDuration":88235,"Delta":275252442},{"NoteNumber":53,"Velocity":57,"Duration":88235,"SoundDuration":88235,"Delta":275442373},{"NoteNumber":55,"Velocity":51,"Duration":88235,"SoundDuration":88235,"Delta":275618843},{"NoteNumber":56,"Velocity":51,"Duration":88235,"SoundDuration":88235,"Delta":275795314},{"NoteNumber":46,"Velocity":35,"Duration":88235,"SoundDuration":88235,"Delta":275795314},{"NoteNumber":50,"Velocity":42,"Duration":88235,"SoundDuration":88235,"Delta":275795314},{"NoteNumber":60,"Velocity":51,"Duration":88235,"SoundDuration":88235,"Delta":275971784},{"NoteNumber":58,"Velocity":54,"Duration":88235,"SoundDuration":88235,"Delta":276148255},{"NoteNumber":39,"Velocity":45,"Duration":88235,"SoundDuration":88235,"Delta":276148255},{"NoteNumber":56,"Velocity":51,"Duration":88235,"SoundDuration":88235,"Delta":276324725},{"NoteNumber":55,"Velocity":51,"Duration":88235,"SoundDuration":88235,"Delta":276501196},{"NoteNumber":46,"Velocity":36,"Duration":88235,"SoundDuration":88235,"Delta":276501196},{"NoteNumber":50,"Velocity":43,"Duration":88235,"SoundDuration":88235,"Delta":276501196},{"NoteNumber":53,"Velocity":51,"Duration":88235,"SoundDuration":88235,"Delta":276677666},{"NoteNumber":55,"Velocity":54,"Duration":88235,"SoundDuration":88235,"Delta":276859069},{"NoteNumber":51,"Velocity":51,"Duration":88235,"SoundDuration":88235,"Delta":277035540},{"NoteNumber":55,"Velocity":53,"Duration":88235,"SoundDuration":88235,"Delta":277212010},{"NoteNumber":46,"Velocity":34,"Duration":88235,"SoundDuration":88235,"Delta":277212010},{"NoteNumber":51,"Velocity":41,"Duration":88235,"SoundDuration":88235,"Delta":277212010},{"NoteNumber":58,"Velocity":55,"Duration":87412,"SoundDuration":87412,"Delta":277388172},{"NoteNumber":63,"Velocity":57,"Duration":86158,"SoundDuration":86158,"Delta":277562290},{"NoteNumber":39,"Velocity":45,"Duration":86158,"SoundDuration":86158,"Delta":277562290},{"NoteNumber":66,"Velocity":52,"Duration":85179,"SoundDuration":85179,"Delta":277734116},{"NoteNumber":67,"Velocity":53,"Duration":83987,"SoundDuration":83987,"Delta":277903802},{"NoteNumber":70,"Velocity":55,"Duration":83102,"SoundDuration":83102,"Delta":278071310},{"NoteNumber":74,"Velocity":63,"Duration":71839,"SoundDuration":71839,"Delta":278263901},{"NoteNumber":65,"Velocity":55,"Duration":86206,"SoundDuration":86206,"Delta":278436315},{"NoteNumber":74,"Velocity":76,"Duration":326086,"SoundDuration":326086,"Delta":278608729},{"NoteNumber":46,"Velocity":54,"Duration":326086,"SoundDuration":326086,"Delta":278608729},{"NoteNumber":56,"Velocity":63,"Duration":326086,"SoundDuration":326086,"Delta":278608729},{"NoteNumber":82,"Velocity":55,"Duration":163043,"SoundDuration":163043,"Delta":278771772},{"NoteNumber":72,"Velocity":59,"Duration":82417,"SoundDuration":82417,"Delta":278934816},{"NoteNumber":39,"Velocity":47,"Duration":329670,"SoundDuration":329670,"Delta":278934816},{"NoteNumber":65,"Velocity":55,"Duration":82417,"SoundDuration":82417,"Delta":279099651},{"NoteNumber":72,"Velocity":76,"Duration":309278,"SoundDuration":309278,"Delta":279264486},{"NoteNumber":46,"Velocity":46,"Duration":309278,"SoundDuration":309278,"Delta":279264486},{"NoteNumber":56,"Velocity":56,"Duration":309278,"SoundDuration":309278,"Delta":279264486},{"NoteNumber":80,"Velocity":55,"Duration":154639,"SoundDuration":154639,"Delta":279419126},{"NoteNumber":67,"Velocity":63,"Duration":79787,"SoundDuration":79787,"Delta":279573765},{"NoteNumber":58,"Velocity":55,"Duration":79787,"SoundDuration":79787,"Delta":279733339},{"NoteNumber":67,"Velocity":75,"Duration":309278,"SoundDuration":309278,"Delta":279892914},{"NoteNumber":46,"Velocity":54,"Duration":309278,"SoundDuration":309278,"Delta":279892914},{"NoteNumber":55,"Velocity":63,"Duration":309278,"SoundDuration":309278,"Delta":279892914},{"NoteNumber":75,"Velocity":55,"Duration":154639,"SoundDuration":154639,"Delta":280047553},{"NoteNumber":70,"Velocity":59,"Duration":75757,"SoundDuration":75757,"Delta":280202192},{"NoteNumber":39,"Velocity":47,"Duration":303030,"SoundDuration":303030,"Delta":280202192},{"NoteNumber":63,"Velocity":55,"Duration":75757,"SoundDuration":75757,"Delta":280353708},{"NoteNumber":70,"Velocity":72,"Duration":303030,"SoundDuration":303030,"Delta":280505223},{"NoteNumber":46,"Velocity":46,"Duration":303030,"SoundDuration":303030,"Delta":280505223},{"NoteNumber":55,"Velocity":56,"Duration":303030,"SoundDuration":303030,"Delta":280505223},{"NoteNumber":79,"Velocity":55,"Duration":75757,"SoundDuration":75757,"Delta":280656738},{"NoteNumber":73,"Velocity":59,"Duration":37878,"SoundDuration":37878,"Delta":280770374},{"NoteNumber":74,"Velocity":63,"Duration":72815,"SoundDuration":72815,"Delta":280808253},{"NoteNumber":65,"Velocity":55,"Duration":72815,"SoundDuration":72815,"Delta":280953884},{"NoteNumber":74,"Velocity":77,"Duration":303030,"SoundDuration":303030,"Delta":281099515},{"NoteNumber":46,"Velocity":54,"Duration":303030,"SoundDuration":303030,"Delta":281099515},{"NoteNumber":56,"Velocity":63,"Duration":303030,"SoundDuration":303030,"Delta":281099515},{"NoteNumber":82,"Velocity":55,"Duration":37878,"SoundDuration":37878,"Delta":281288909},{"NoteNumber":76,"Velocity":56,"Duration":37878,"SoundDuration":37878,"Delta":281364667},{"NoteNumber":77,"Velocity":59,"Duration":70093,"SoundDuration":70093,"Delta":281402546},{"NoteNumber":39,"Velocity":47,"Duration":280373,"SoundDuration":280373,"Delta":281402546},{"NoteNumber":70,"Velocity":55,"Duration":70093,"SoundDuration":70093,"Delta":281542733},{"NoteNumber":77,"Velocity":79,"Duration":294117,"SoundDuration":294117,"Delta":281682920},{"NoteNumber":46,"Velocity":46,"Duration":294117,"SoundDuration":294117,"Delta":281682920},{"NoteNumber":56,"Velocity":56,"Duration":294117,"SoundDuration":294117,"Delta":281682920},{"NoteNumber":86,"Velocity":61,"Duration":73529,"SoundDuration":73529,"Delta":281829979},{"NoteNumber":78,"Velocity":60,"Duration":36764,"SoundDuration":36764,"Delta":281940273},{"NoteNumber":79,"Velocity":64,"Duration":69444,"SoundDuration":69444,"Delta":281977037},{"NoteNumber":70,"Velocity":56,"Duration":69444,"SoundDuration":69444,"Delta":282115926},{"NoteNumber":79,"Velocity":79,"Duration":288461,"SoundDuration":288461,"Delta":282254815},{"NoteNumber":46,"Velocity":55,"Duration":288461,"SoundDuration":288461,"Delta":282254815},{"NoteNumber":55,"Velocity":64,"Duration":288461,"SoundDuration":288461,"Delta":282254815},{"NoteNumber":87,"Velocity":58,"Duration":72115,"SoundDuration":72115,"Delta":282399046},{"NoteNumber":81,"Velocity":57,"Duration":36057,"SoundDuration":36057,"Delta":282507219},{"NoteNumber":82,"Velocity":61,"Duration":68181,"SoundDuration":68181,"Delta":282543277},{"NoteNumber":39,"Velocity":48,"Duration":272727,"SoundDuration":272727,"Delta":282543277},{"NoteNumber":75,"Velocity":57,"Duration":68181,"SoundDuration":68181,"Delta":282679641},{"NoteNumber":82,"Velocity":78,"Duration":288461,"SoundDuration":288461,"Delta":282816004},{"NoteNumber":46,"Velocity":48,"Duration":288461,"SoundDuration":288461,"Delta":282816004},{"NoteNumber":55,"Velocity":57,"Duration":288461,"SoundDuration":288461,"Delta":282816004},{"NoteNumber":91,"Velocity":57,"Duration":144230,"SoundDuration":144230,"Delta":282960235},{"NoteNumber":85,"Velocity":62,"Duration":36057,"SoundDuration":36057,"Delta":283068408},{"NoteNumber":86,"Velocity":66,"Duration":68181,"SoundDuration":68181,"Delta":283104466},{"NoteNumber":77,"Velocity":57,"Duration":68181,"SoundDuration":68181,"Delta":283240830},{"NoteNumber":86,"Velocity":81,"Duration":285714,"SoundDuration":285714,"Delta":283377193},{"NoteNumber":46,"Velocity":56,"Duration":285714,"SoundDuration":285714,"Delta":283377193},{"NoteNumber":56,"Velocity":67,"Duration":285714,"SoundDuration":285714,"Delta":283377193},{"NoteNumber":94,"Velocity":58,"Duration":71428,"SoundDuration":71428,"Delta":283520051},{"NoteNumber":83,"Velocity":58,"Duration":35714,"SoundDuration":35714,"Delta":283627193},{"NoteNumber":84,"Velocity":62,"Duration":67567,"SoundDuration":67567,"Delta":283662908},{"NoteNumber":39,"Velocity":49,"Duration":270270,"SoundDuration":270270,"Delta":283662908},{"NoteNumber":77,"Velocity":58,"Duration":67567,"SoundDuration":67567,"Delta":283798043},{"NoteNumber":84,"Velocity":83,"Duration":280373,"SoundDuration":280373,"Delta":283933178},{"NoteNumber":46,"Velocity":49,"Duration":280373,"SoundDuration":280373,"Delta":283933178},{"NoteNumber":56,"Velocity":60,"Duration":280373,"SoundDuration":280373,"Delta":283933178},{"NoteNumber":92,"Velocity":58,"Duration":140186,"SoundDuration":140186,"Delta":284073365},{"NoteNumber":78,"Velocity":63,"Duration":35046,"SoundDuration":35046,"Delta":284178506},{"NoteNumber":79,"Velocity":68,"Duration":67567,"SoundDuration":67567,"Delta":284213552},{"NoteNumber":70,"Velocity":59,"Duration":67567,"SoundDuration":67567,"Delta":284348688},{"NoteNumber":79,"Velocity":81,"Duration":280373,"SoundDuration":280373,"Delta":284483823},{"NoteNumber":46,"Velocity":57,"Duration":280373,"SoundDuration":280373,"Delta":284483823},{"NoteNumber":55,"Velocity":68,"Duration":280373,"SoundDuration":280373,"Delta":284483823},{"NoteNumber":87,"Velocity":59,"Duration":70093,"SoundDuration":70093,"Delta":284624010},{"NoteNumber":81,"Velocity":60,"Duration":35046,"SoundDuration":35046,"Delta":284729150},{"NoteNumber":82,"Velocity":64,"Duration":66371,"SoundDuration":66371,"Delta":284764197},{"NoteNumber":39,"Velocity":51,"Duration":265486,"SoundDuration":265486,"Delta":284764197},{"NoteNumber":75,"Velocity":59,"Duration":66371,"SoundDuration":66371,"Delta":284896940},{"NoteNumber":82,"Velocity":81,"Duration":280373,"SoundDuration":280373,"Delta":285029683},{"NoteNumber":46,"Velocity":50,"Duration":280373,"SoundDuration":280373,"Delta":285029683},{"NoteNumber":55,"Velocity":61,"Duration":280373,"SoundDuration":280373,"Delta":285029683},{"NoteNumber":91,"Velocity":60,"Duration":140186,"SoundDuration":140186,"Delta":285169870},{"NoteNumber":85,"Velocity":68,"Duration":35046,"SoundDuration":35046,"Delta":285275011},{"NoteNumber":86,"Velocity":69,"Duration":65789,"SoundDuration":65789,"Delta":285310057},{"NoteNumber":77,"Velocity":61,"Duration":65789,"SoundDuration":65789,"Delta":285441636},{"NoteNumber":86,"Velocity":87,"Duration":285714,"SoundDuration":285714,"Delta":285573215},{"NoteNumber":46,"Velocity":58,"Duration":285714,"SoundDuration":285714,"Delta":285573215},{"NoteNumber":56,"Velocity":69,"Duration":285714,"SoundDuration":285714,"Delta":285573215},{"NoteNumber":94,"Velocity":61,"Duration":71428,"SoundDuration":71428,"Delta":285716073},{"NoteNumber":88,"Velocity":70,"Duration":35714,"SoundDuration":35714,"Delta":285787501},{"NoteNumber":89,"Velocity":66,"Duration":65789,"SoundDuration":65789,"Delta":285858930},{"NoteNumber":39,"Velocity":52,"Duration":263157,"SoundDuration":263157,"Delta":285858930},{"NoteNumber":82,"Velocity":61,"Duration":65789,"SoundDuration":65789,"Delta":285990509},{"NoteNumber":89,"Velocity":84,"Duration":285714,"SoundDuration":285714,"Delta":286122088},{"NoteNumber":46,"Velocity":51,"Duration":285714,"SoundDuration":285714,"Delta":286122088},{"NoteNumber":56,"Velocity":62,"Duration":285714,"SoundDuration":285714,"Delta":286122088},{"NoteNumber":98,"Velocity":62,"Duration":142857,"SoundDuration":142857,"Delta":286264945},{"NoteNumber":90,"Velocity":64,"Duration":35714,"SoundDuration":35714,"Delta":286372088},{"NoteNumber":91,"Velocity":83,"Duration":65789,"SoundDuration":65789,"Delta":286407802},{"NoteNumber":82,"Velocity":62,"Duration":65789,"SoundDuration":65789,"Delta":286539381},{"NoteNumber":91,"Velocity":70,"Duration":294117,"SoundDuration":294117,"Delta":286670960},{"NoteNumber":46,"Velocity":51,"Duration":294117,"SoundDuration":294117,"Delta":286670960},{"NoteNumber":55,"Velocity":60,"Duration":294117,"SoundDuration":294117,"Delta":286670960},{"NoteNumber":99,"Velocity":62,"Duration":73529,"SoundDuration":73529,"Delta":286818019},{"NoteNumber":63,"Velocity":79,"Duration":514705,"SoundDuration":514705,"Delta":286965078},{"NoteNumber":39,"Velocity":47,"Duration":294117,"SoundDuration":294117,"Delta":286965078},{"NoteNumber":46,"Velocity":39,"Duration":294117,"SoundDuration":294117,"Delta":287259195},{"NoteNumber":55,"Velocity":47,"Duration":294117,"SoundDuration":294117,"Delta":287259195},{"NoteNumber":64,"Velocity":48,"Duration":73529,"SoundDuration":73529,"Delta":287479783},{"NoteNumber":65,"Velocity":48,"Duration":90090,"SoundDuration":90090,"Delta":287553313},{"NoteNumber":67,"Velocity":50,"Duration":90090,"SoundDuration":90090,"Delta":287643403},{"NoteNumber":68,"Velocity":52,"Duration":90090,"SoundDuration":90090,"Delta":287733493},{"NoteNumber":72,"Velocity":54,"Duration":95238,"SoundDuration":95238,"Delta":287823583},{"NoteNumber":46,"Velocity":42,"Duration":285714,"SoundDuration":285714,"Delta":287823583},{"NoteNumber":56,"Velocity":42,"Duration":285714,"SoundDuration":285714,"Delta":287823583},{"NoteNumber":70,"Velocity":53,"Duration":95238,"SoundDuration":95238,"Delta":287918821},{"NoteNumber":68,"Velocity":52,"Duration":95238,"SoundDuration":95238,"Delta":288014060},{"NoteNumber":67,"Velocity":51,"Duration":89285,"SoundDuration":89285,"Delta":288109298},{"NoteNumber":39,"Velocity":44,"Duration":267856,"SoundDuration":267856,"Delta":288109298},{"NoteNumber":65,"Velocity":50,"Duration":89285,"SoundDuration":89285,"Delta":288198583},{"NoteNumber":63,"Velocity":49,"Duration":89285,"SoundDuration":89285,"Delta":288287869},{"NoteNumber":62,"Velocity":48,"Duration":97087,"SoundDuration":97087,"Delta":288377155},{"NoteNumber":46,"Velocity":40,"Duration":291262,"SoundDuration":291262,"Delta":288377155},{"NoteNumber":56,"Velocity":40,"Duration":291262,"SoundDuration":291262,"Delta":288377155},{"NoteNumber":60,"Velocity":48,"Duration":97087,"SoundDuration":97087,"Delta":288474242},{"NoteNumber":58,"Velocity":47,"Duration":97087,"SoundDuration":97087,"Delta":288571329},{"NoteNumber":57,"Velocity":49,"Duration":90909,"SoundDuration":90909,"Delta":288668417},{"NoteNumber":58,"Velocity":50,"Duration":90909,"SoundDuration":90909,"Delta":288759326},{"NoteNumber":60,"Velocity":51,"Duration":90909,"SoundDuration":90909,"Delta":288850235},{"NoteNumber":62,"Velocity":51,"Duration":97087,"SoundDuration":97087,"Delta":288941144},{"NoteNumber":46,"Velocity":40,"Duration":291262,"SoundDuration":291262,"Delta":288941144},{"NoteNumber":55,"Velocity":40,"Duration":291262,"SoundDuration":291262,"Delta":288941144},{"NoteNumber":63,"Velocity":52,"Duration":97087,"SoundDuration":97087,"Delta":289038232},{"NoteNumber":66,"Velocity":53,"Duration":97087,"SoundDuration":97087,"Delta":289135319},{"NoteNumber":67,"Velocity":54,"Duration":89285,"SoundDuration":89285,"Delta":289232406},{"NoteNumber":39,"Velocity":44,"Duration":267856,"SoundDuration":267856,"Delta":289232406},{"NoteNumber":68,"Velocity":54,"Duration":89285,"SoundDuration":89285,"Delta":289321692},{"NoteNumber":70,"Velocity":55,"Duration":89285,"SoundDuration":89285,"Delta":289410978},{"NoteNumber":72,"Velocity":56,"Duration":94339,"SoundDuration":94339,"Delta":289500263},{"NoteNumber":46,"Velocity":41,"Duration":283019,"SoundDuration":283019,"Delta":289500263},{"NoteNumber":55,"Velocity":41,"Duration":283019,"SoundDuration":283019,"Delta":289500263},{"NoteNumber":74,"Velocity":57,"Duration":94339,"SoundDuration":94339,"Delta":289594603},{"NoteNumber":75,"Velocity":58,"Duration":58962,"SoundDuration":58962,"Delta":289688943},{"NoteNumber":74,"Velocity":56,"Duration":124663,"SoundDuration":124663,"Delta":289747905},{"NoteNumber":77,"Velocity":63,"Duration":89285,"SoundDuration":89285,"Delta":289783282},{"NoteNumber":79,"Velocity":58,"Duration":89285,"SoundDuration":89285,"Delta":289872568},{"NoteNumber":80,"Velocity":59,"Duration":89285,"SoundDuration":89285,"Delta":289961854},{"NoteNumber":84,"Velocity":64,"Duration":94339,"SoundDuration":94339,"Delta":290051139},{"NoteNumber":53,"Velocity":40,"Duration":283019,"SoundDuration":283019,"Delta":290051139},{"NoteNumber":56,"Velocity":40,"Duration":283019,"SoundDuration":283019,"Delta":290051139},{"NoteNumber":62,"Velocity":40,"Duration":283019,"SoundDuration":283019,"Delta":290051139},{"NoteNumber":82,"Velocity":63,"Duration":94339,"SoundDuration":94339,"Delta":290145479},{"NoteNumber":80,"Velocity":62,"Duration":94339,"SoundDuration":94339,"Delta":290239819},{"NoteNumber":79,"Velocity":60,"Duration":89285,"SoundDuration":89285,"Delta":290334158},{"NoteNumber":39,"Velocity":44,"Duration":267856,"SoundDuration":267856,"Delta":290334158},{"NoteNumber":77,"Velocity":59,"Duration":89285,"SoundDuration":89285,"Delta":290423444},{"NoteNumber":75,"Velocity":58,"Duration":89285,"SoundDuration":89285,"Delta":290512730},{"NoteNumber":74,"Velocity":57,"Duration":94339,"SoundDuration":94339,"Delta":290602015},{"NoteNumber":62,"Velocity":40,"Duration":283019,"SoundDuration":283019,"Delta":290602015},{"NoteNumber":56,"Velocity":40,"Duration":283019,"SoundDuration":283019,"Delta":290602015},{"NoteNumber":53,"Velocity":40,"Duration":283019,"SoundDuration":283019,"Delta":290602015},{"NoteNumber":72,"Velocity":55,"Duration":94339,"SoundDuration":94339,"Delta":290696355},{"NoteNumber":70,"Velocity":54,"Duration":94339,"SoundDuration":94339,"Delta":290790695},{"NoteNumber":69,"Velocity":55,"Duration":88495,"SoundDuration":88495,"Delta":290885034},{"NoteNumber":70,"Velocity":55,"Duration":88495,"SoundDuration":88495,"Delta":290973530},{"NoteNumber":72,"Velocity":56,"Duration":88495,"SoundDuration":88495,"Delta":291062025},{"NoteNumber":74,"Velocity":56,"Duration":92592,"SoundDuration":92592,"Delta":291150521},{"NoteNumber":55,"Velocity":41,"Duration":277778,"SoundDuration":277778,"Delta":291150521},{"NoteNumber":58,"Velocity":41,"Duration":277778,"SoundDuration":277778,"Delta":291150521},{"NoteNumber":63,"Velocity":41,"Duration":277778,"SoundDuration":277778,"Delta":291150521},{"NoteNumber":75,"Velocity":57,"Duration":92592,"SoundDuration":92592,"Delta":291243113},{"NoteNumber":78,"Velocity":58,"Duration":92592,"SoundDuration":92592,"Delta":291335706},{"NoteNumber":79,"Velocity":58,"Duration":88495,"SoundDuration":88495,"Delta":291428299},{"NoteNumber":39,"Velocity":44,"Duration":265486,"SoundDuration":265486,"Delta":291428299},{"NoteNumber":80,"Velocity":59,"Duration":88495,"SoundDuration":88495,"Delta":291516794},{"NoteNumber":82,"Velocity":60,"Duration":88495,"SoundDuration":88495,"Delta":291605290},{"NoteNumber":84,"Velocity":60,"Duration":93457,"SoundDuration":93457,"Delta":291693785},{"NoteNumber":63,"Velocity":42,"Duration":280373,"SoundDuration":280373,"Delta":291693785},{"NoteNumber":58,"Velocity":42,"Duration":280373,"SoundDuration":280373,"Delta":291693785},{"NoteNumber":55,"Velocity":42,"Duration":280373,"SoundDuration":280373,"Delta":291693785},{"NoteNumber":86,"Velocity":61,"Duration":93457,"SoundDuration":93457,"Delta":291787243},{"NoteNumber":87,"Velocity":63,"Duration":58411,"SoundDuration":58411,"Delta":291880701},{"NoteNumber":86,"Velocity":52,"Duration":122766,"SoundDuration":122766,"Delta":291939113},{"NoteNumber":89,"Velocity":63,"Duration":87719,"SoundDuration":87719,"Delta":291974159},{"NoteNumber":91,"Velocity":58,"Duration":87719,"SoundDuration":87719,"Delta":292061879},{"NoteNumber":92,"Velocity":59,"Duration":87719,"SoundDuration":87719,"Delta":292149598},{"NoteNumber":96,"Velocity":64,"Duration":93457,"SoundDuration":93457,"Delta":292237317},{"NoteNumber":56,"Velocity":40,"Duration":280373,"SoundDuration":280373,"Delta":292237317},{"NoteNumber":62,"Velocity":40,"Duration":280373,"SoundDuration":280373,"Delta":292237317},{"NoteNumber":65,"Velocity":40,"Duration":280373,"SoundDuration":280373,"Delta":292237317},{"NoteNumber":94,"Velocity":63,"Duration":93457,"SoundDuration":93457,"Delta":292330775},{"NoteNumber":92,"Velocity":62,"Duration":93457,"SoundDuration":93457,"Delta":292424233},{"NoteNumber":91,"Velocity":60,"Duration":87719,"SoundDuration":87719,"Delta":292517691},{"NoteNumber":39,"Velocity":44,"Duration":263157,"SoundDuration":263157,"Delta":292517691},{"NoteNumber":89,"Velocity":59,"Duration":87719,"SoundDuration":87719,"Delta":292605411},{"NoteNumber":87,"Velocity":58,"Duration":87719,"SoundDuration":87719,"Delta":292693130},{"NoteNumber":86,"Velocity":57,"Duration":92592,"SoundDuration":92592,"Delta":292780849},{"NoteNumber":65,"Velocity":40,"Duration":277778,"SoundDuration":277778,"Delta":292780849},{"NoteNumber":62,"Velocity":40,"Duration":277778,"SoundDuration":277778,"Delta":292780849},{"NoteNumber":56,"Velocity":40,"Duration":277778,"SoundDuration":277778,"Delta":292780849},{"NoteNumber":84,"Velocity":55,"Duration":92592,"SoundDuration":92592,"Delta":292873442},{"NoteNumber":82,"Velocity":54,"Duration":92592,"SoundDuration":92592,"Delta":292966035},{"NoteNumber":81,"Velocity":55,"Duration":87719,"SoundDuration":87719,"Delta":293058627},{"NoteNumber":82,"Velocity":55,"Duration":87719,"SoundDuration":87719,"Delta":293146347},{"NoteNumber":84,"Velocity":56,"Duration":87719,"SoundDuration":87719,"Delta":293234066},{"NoteNumber":86,"Velocity":56,"Duration":91743,"SoundDuration":91743,"Delta":293321785},{"NoteNumber":58,"Velocity":41,"Duration":275229,"SoundDuration":275229,"Delta":293321785},{"NoteNumber":63,"Velocity":41,"Duration":275229,"SoundDuration":275229,"Delta":293321785},{"NoteNumber":67,"Velocity":41,"Duration":275229,"SoundDuration":275229,"Delta":293321785},{"NoteNumber":87,"Velocity":57,"Duration":91743,"SoundDuration":91743,"Delta":293413528},{"NoteNumber":90,"Velocity":58,"Duration":91743,"SoundDuration":91743,"Delta":293505272},{"NoteNumber":91,"Velocity":58,"Duration":87719,"SoundDuration":87719,"Delta":293597015},{"NoteNumber":39,"Velocity":44,"Duration":263157,"SoundDuration":263157,"Delta":293597015},{"NoteNumber":92,"Velocity":58,"Duration":87719,"SoundDuration":87719,"Delta":293684734},{"NoteNumber":94,"Velocity":57,"Duration":87719,"SoundDuration":87719,"Delta":293772453},{"NoteNumber":96,"Velocity":56,"Duration":92592,"SoundDuration":92592,"Delta":293860173},{"NoteNumber":67,"Velocity":42,"Duration":277778,"SoundDuration":277778,"Delta":293860173},{"NoteNumber":63,"Velocity":42,"Duration":277778,"SoundDuration":277778,"Delta":293860173},{"NoteNumber":58,"Velocity":42,"Duration":277778,"SoundDuration":277778,"Delta":293860173},{"NoteNumber":98,"Velocity":56,"Duration":92592,"SoundDuration":92592,"Delta":293952765},{"NoteNumber":99,"Velocity":55,"Duration":92592,"SoundDuration":92592,"Delta":294045358},{"NoteNumber":100,"Velocity":55,"Duration":88495,"SoundDuration":88495,"Delta":294137951},{"NoteNumber":101,"Velocity":50,"Duration":88495,"SoundDuration":88495,"Delta":294226446},{"NoteNumber":94,"Velocity":54,"Duration":90931,"SoundDuration":90931,"Delta":294314942},{"NoteNumber":97,"Velocity":50,"Duration":95011,"SoundDuration":95011,"Delta":294405873},{"NoteNumber":68,"Velocity":32,"Duration":285035,"SoundDuration":285035,"Delta":294405873},{"NoteNumber":58,"Velocity":32,"Duration":285035,"SoundDuration":285035,"Delta":294405873},{"NoteNumber":62,"Velocity":32,"Duration":285035,"SoundDuration":285035,"Delta":294405873},{"NoteNumber":98,"Velocity":54,"Duration":95011,"SoundDuration":95011,"Delta":294500885},{"NoteNumber":89,"Velocity":50,"Duration":95011,"SoundDuration":95011,"Delta":294595897},{"NoteNumber":100,"Velocity":54,"Duration":87719,"SoundDuration":87719,"Delta":294690909},{"NoteNumber":39,"Velocity":35,"Duration":263157,"SoundDuration":263157,"Delta":294690909},{"NoteNumber":101,"Velocity":50,"Duration":87719,"SoundDuration":87719,"Delta":294778628},{"NoteNumber":94,"Velocity":54,"Duration":87719,"SoundDuration":87719,"Delta":294866347},{"NoteNumber":97,"Velocity":50,"Duration":92592,"SoundDuration":92592,"Delta":294954067},{"NoteNumber":68,"Velocity":33,"Duration":277778,"SoundDuration":277778,"Delta":294954067},{"NoteNumber":62,"Velocity":33,"Duration":277778,"SoundDuration":277778,"Delta":294954067},{"NoteNumber":58,"Velocity":33,"Duration":277778,"SoundDuration":277778,"Delta":294954067},{"NoteNumber":98,"Velocity":55,"Duration":92592,"SoundDuration":92592,"Delta":295046659},{"NoteNumber":89,"Velocity":50,"Duration":92592,"SoundDuration":92592,"Delta":295139252},{"NoteNumber":102,"Velocity":55,"Duration":87719,"SoundDuration":87719,"Delta":295231845},{"NoteNumber":103,"Velocity":50,"Duration":87719,"SoundDuration":87719,"Delta":295319564},{"NoteNumber":94,"Velocity":54,"Duration":87719,"SoundDuration":87719,"Delta":295407283},{"NoteNumber":98,"Velocity":50,"Duration":92592,"SoundDuration":92592,"Delta":295495003},{"NoteNumber":58,"Velocity":32,"Duration":277778,"SoundDuration":277778,"Delta":295495003},{"NoteNumber":63,"Velocity":32,"Duration":277778,"SoundDuration":277778,"Delta":295495003},{"NoteNumber":67,"Velocity":32,"Duration":277778,"SoundDuration":277778,"Delta":295495003},{"NoteNumber":99,"Velocity":54,"Duration":92592,"SoundDuration":92592,"Delta":295587595},{"NoteNumber":91,"Velocity":50,"Duration":92592,"SoundDuration":92592,"Delta":295680188},{"NoteNumber":102,"Velocity":54,"Duration":88495,"SoundDuration":88495,"Delta":295772781},{"NoteNumber":39,"Velocity":35,"Duration":267922,"SoundDuration":267922,"Delta":295772781},{"NoteNumber":103,"Velocity":50,"Duration":88495,"SoundDuration":88495,"Delta":295861276},{"NoteNumber":94,"Velocity":54,"Duration":90931,"SoundDuration":90931,"Delta":295949772},{"NoteNumber":98,"Velocity":50,"Duration":95011,"SoundDuration":95011,"Delta":296040703},{"NoteNumber":67,"Velocity":33,"Duration":285035,"SoundDuration":285035,"Delta":296040703},{"NoteNumber":63,"Velocity":33,"Duration":285035,"SoundDuration":285035,"Delta":296040703},{"NoteNumber":58,"Velocity":33,"Duration":285035,"SoundDuration":285035,"Delta":296040703},{"NoteNumber":99,"Velocity":55,"Duration":95011,"SoundDuration":95011,"Delta":296135715},{"NoteNumber":91,"Velocity":50,"Duration":95011,"SoundDuration":95011,"Delta":296230726},{"NoteNumber":100,"Velocity":55,"Duration":89285,"SoundDuration":89285,"Delta":296325738},{"NoteNumber":101,"Velocity":50,"Duration":89285,"SoundDuration":89285,"Delta":296415024},{"NoteNumber":94,"Velocity":54,"Duration":89285,"SoundDuration":89285,"Delta":296504310},{"NoteNumber":97,"Velocity":50,"Duration":95011,"SoundDuration":95011,"Delta":296593595},{"NoteNumber":68,"Velocity":32,"Duration":285035,"SoundDuration":285035,"Delta":296593595},{"NoteNumber":58,"Velocity":32,"Duration":285035,"SoundDuration":285035,"Delta":296593595},{"NoteNumber":62,"Velocity":32,"Duration":285035,"SoundDuration":285035,"Delta":296593595},{"NoteNumber":98,"Velocity":54,"Duration":95011,"SoundDuration":95011,"Delta":296688607},{"NoteNumber":89,"Velocity":50,"Duration":95011,"SoundDuration":95011,"Delta":296783619},{"NoteNumber":100,"Velocity":54,"Duration":89285,"SoundDuration":89285,"Delta":296878631},{"NoteNumber":39,"Velocity":35,"Duration":267856,"SoundDuration":267856,"Delta":296878631},{"NoteNumber":101,"Velocity":50,"Duration":89285,"SoundDuration":89285,"Delta":296967916},{"NoteNumber":94,"Velocity":54,"Duration":89285,"SoundDuration":89285,"Delta":297057202},{"NoteNumber":97,"Velocity":50,"Duration":94339,"SoundDuration":94339,"Delta":297146488},{"NoteNumber":68,"Velocity":33,"Duration":283019,"SoundDuration":283019,"Delta":297146488},{"NoteNumber":62,"Velocity":33,"Duration":283019,"SoundDuration":283019,"Delta":297146488},{"NoteNumber":58,"Velocity":33,"Duration":283019,"SoundDuration":283019,"Delta":297146488},{"NoteNumber":98,"Velocity":55,"Duration":94339,"SoundDuration":94339,"Delta":297240827},{"NoteNumber":89,"Velocity":50,"Duration":94339,"SoundDuration":94339,"Delta":297335167},{"NoteNumber":102,"Velocity":55,"Duration":89285,"SoundDuration":89285,"Delta":297429507},{"NoteNumber":103,"Velocity":50,"Duration":89285,"SoundDuration":89285,"Delta":297518792},{"NoteNumber":94,"Velocity":54,"Duration":89285,"SoundDuration":89285,"Delta":297608078},{"NoteNumber":98,"Velocity":50,"Duration":95011,"SoundDuration":95011,"Delta":297697364},{"NoteNumber":58,"Velocity":32,"Duration":285035,"SoundDuration":285035,"Delta":297697364},{"NoteNumber":63,"Velocity":32,"Duration":285035,"SoundDuration":285035,"Delta":297697364},{"NoteNumber":67,"Velocity":32,"Duration":285035,"SoundDuration":285035,"Delta":297697364},{"NoteNumber":99,"Velocity":54,"Duration":95011,"SoundDuration":95011,"Delta":297792376},{"NoteNumber":91,"Velocity":50,"Duration":95011,"SoundDuration":95011,"Delta":297887387},{"NoteNumber":102,"Velocity":54,"Duration":89285,"SoundDuration":89285,"Delta":297982399},{"NoteNumber":39,"Velocity":35,"Duration":267856,"SoundDuration":267856,"Delta":297982399},{"NoteNumber":103,"Velocity":50,"Duration":89285,"SoundDuration":89285,"Delta":298071685},{"NoteNumber":94,"Velocity":54,"Duration":89285,"SoundDuration":89285,"Delta":298160971},{"NoteNumber":98,"Velocity":50,"Duration":95011,"SoundDuration":95011,"Delta":298250256},{"NoteNumber":67,"Velocity":33,"Duration":285035,"SoundDuration":285035,"Delta":298250256},{"NoteNumber":63,"Velocity":33,"Duration":285035,"SoundDuration":285035,"Delta":298250256},{"NoteNumber":58,"Velocity":33,"Duration":285035,"SoundDuration":285035,"Delta":298250256},{"NoteNumber":99,"Velocity":55,"Duration":95011,"SoundDuration":95011,"Delta":298345268},{"NoteNumber":91,"Velocity":50,"Duration":95011,"SoundDuration":95011,"Delta":298440280},{"NoteNumber":100,"Velocity":55,"Duration":89285,"SoundDuration":89285,"Delta":298535292},{"NoteNumber":101,"Velocity":50,"Duration":89285,"SoundDuration":89285,"Delta":298624577},{"NoteNumber":94,"Velocity":54,"Duration":89285,"SoundDuration":89285,"Delta":298713863},{"NoteNumber":97,"Velocity":50,"Duration":93457,"SoundDuration":93457,"Delta":298803149},{"NoteNumber":68,"Velocity":32,"Duration":280373,"SoundDuration":280373,"Delta":298803149},{"NoteNumber":58,"Velocity":32,"Duration":280373,"SoundDuration":280373,"Delta":298803149},{"NoteNumber":62,"Velocity":32,"Duration":280373,"SoundDuration":280373,"Delta":298803149},{"NoteNumber":98,"Velocity":54,"Duration":93457,"SoundDuration":93457,"Delta":298896607},{"NoteNumber":89,"Velocity":50,"Duration":93457,"SoundDuration":93457,"Delta":298990065},{"NoteNumber":100,"Velocity":54,"Duration":90909,"SoundDuration":90909,"Delta":299083523},{"NoteNumber":39,"Velocity":35,"Duration":272727,"SoundDuration":272727,"Delta":299083523},{"NoteNumber":101,"Velocity":50,"Duration":90909,"SoundDuration":90909,"Delta":299174432},{"NoteNumber":94,"Velocity":54,"Duration":90909,"SoundDuration":90909,"Delta":299265341},{"NoteNumber":97,"Velocity":50,"Duration":94339,"SoundDuration":94339,"Delta":299356250},{"NoteNumber":68,"Velocity":33,"Duration":283019,"SoundDuration":283019,"Delta":299356250},{"NoteNumber":62,"Velocity":33,"Duration":283019,"SoundDuration":283019,"Delta":299356250},{"NoteNumber":58,"Velocity":33,"Duration":283019,"SoundDuration":283019,"Delta":299356250},{"NoteNumber":98,"Velocity":55,"Duration":94339,"SoundDuration":94339,"Delta":299450590},{"NoteNumber":89,"Velocity":50,"Duration":94339,"SoundDuration":94339,"Delta":299544930},{"NoteNumber":102,"Velocity":55,"Duration":91743,"SoundDuration":91743,"Delta":299639269},{"NoteNumber":103,"Velocity":50,"Duration":91743,"SoundDuration":91743,"Delta":299731012},{"NoteNumber":94,"Velocity":54,"Duration":91743,"SoundDuration":91743,"Delta":299822756},{"NoteNumber":98,"Velocity":50,"Duration":95011,"SoundDuration":95011,"Delta":299914499},{"NoteNumber":58,"Velocity":32,"Duration":285035,"SoundDuration":285035,"Delta":299914499},{"NoteNumber":63,"Velocity":32,"Duration":285035,"SoundDuration":285035,"Delta":299914499},{"NoteNumber":67,"Velocity":32,"Duration":285035,"SoundDuration":285035,"Delta":299914499},{"NoteNumber":99,"Velocity":54,"Duration":95011,"SoundDuration":95011,"Delta":300009511},{"NoteNumber":91,"Velocity":50,"Duration":95011,"SoundDuration":95011,"Delta":300104522},{"NoteNumber":102,"Velocity":54,"Duration":91743,"SoundDuration":91743,"Delta":300199534},{"NoteNumber":39,"Velocity":35,"Duration":275229,"SoundDuration":275229,"Delta":300199534},{"NoteNumber":103,"Velocity":50,"Duration":91743,"SoundDuration":91743,"Delta":300291277},{"NoteNumber":94,"Velocity":54,"Duration":91743,"SoundDuration":91743,"Delta":300383021},{"NoteNumber":98,"Velocity":50,"Duration":95011,"SoundDuration":95011,"Delta":300474764},{"NoteNumber":67,"Velocity":33,"Duration":285035,"SoundDuration":285035,"Delta":300474764},{"NoteNumber":63,"Velocity":33,"Duration":285035,"SoundDuration":285035,"Delta":300474764},{"NoteNumber":58,"Velocity":33,"Duration":285035,"SoundDuration":285035,"Delta":300474764},{"NoteNumber":99,"Velocity":55,"Duration":95011,"SoundDuration":95011,"Delta":300569776},{"NoteNumber":91,"Velocity":50,"Duration":95011,"SoundDuration":95011,"Delta":300664787},{"NoteNumber":100,"Velocity":55,"Duration":91743,"SoundDuration":91743,"Delta":300759799},{"NoteNumber":101,"Velocity":50,"Duration":91743,"SoundDuration":91743,"Delta":300851542},{"NoteNumber":94,"Velocity":54,"Duration":91743,"SoundDuration":91743,"Delta":300943286},{"NoteNumber":97,"Velocity":50,"Duration":95011,"SoundDuration":95011,"Delta":301035029},{"NoteNumber":68,"Velocity":32,"Duration":285035,"SoundDuration":285035,"Delta":301035029},{"NoteNumber":58,"Velocity":32,"Duration":285035,"SoundDuration":285035,"Delta":301035029},{"NoteNumber":62,"Velocity":32,"Duration":285035,"SoundDuration":285035,"Delta":301035029},{"NoteNumber":98,"Velocity":54,"Duration":95011,"SoundDuration":95011,"Delta":301130041},{"NoteNumber":89,"Velocity":50,"Duration":95011,"SoundDuration":95011,"Delta":301225052},{"NoteNumber":100,"Velocity":54,"Duration":91743,"SoundDuration":91743,"Delta":301320064},{"NoteNumber":39,"Velocity":35,"Duration":275229,"SoundDuration":275229,"Delta":301320064},{"NoteNumber":101,"Velocity":50,"Duration":91743,"SoundDuration":91743,"Delta":301411807},{"NoteNumber":94,"Velocity":54,"Duration":91743,"SoundDuration":91743,"Delta":301503551},{"NoteNumber":97,"Velocity":50,"Duration":94339,"SoundDuration":94339,"Delta":301595294},{"NoteNumber":68,"Velocity":33,"Duration":283019,"SoundDuration":283019,"Delta":301595294},{"NoteNumber":62,"Velocity":33,"Duration":283019,"SoundDuration":283019,"Delta":301595294},{"NoteNumber":58,"Velocity":33,"Duration":283019,"SoundDuration":283019,"Delta":301595294},{"NoteNumber":98,"Velocity":55,"Duration":94339,"SoundDuration":94339,"Delta":301689633},{"NoteNumber":89,"Velocity":50,"Duration":94339,"SoundDuration":94339,"Delta":301783973},{"NoteNumber":102,"Velocity":50,"Duration":72815,"SoundDuration":72815,"Delta":301878313},{"NoteNumber":93,"Velocity":50,"Duration":72815,"SoundDuration":72815,"Delta":301878313},{"NoteNumber":94,"Velocity":55,"Duration":145631,"SoundDuration":145631,"Delta":301951128},{"NoteNumber":103,"Velocity":55,"Duration":145631,"SoundDuration":145631,"Delta":301951128},{"NoteNumber":58,"Velocity":32,"Duration":659784,"SoundDuration":659784,"Delta":302424429},{"NoteNumber":74,"Velocity":47,"Duration":77922,"SoundDuration":77922,"Delta":302460837},{"NoteNumber":66,"Velocity":47,"Duration":77922,"SoundDuration":77922,"Delta":302460837},{"NoteNumber":39,"Velocity":33,"Duration":623377,"SoundDuration":623377,"Delta":302460837},{"NoteNumber":67,"Velocity":52,"Duration":155844,"SoundDuration":155844,"Delta":302538759},{"NoteNumber":75,"Velocity":52,"Duration":155844,"SoundDuration":155844,"Delta":302538759},{"NoteNumber":41,"Velocity":30,"Duration":805734,"SoundDuration":805734,"Delta":303045253},{"NoteNumber":86,"Velocity":45,"Duration":95846,"SoundDuration":95846,"Delta":303084214},{"NoteNumber":77,"Velocity":45,"Duration":95846,"SoundDuration":95846,"Delta":303084214},{"NoteNumber":56,"Velocity":33,"Duration":766773,"SoundDuration":766773,"Delta":303084214},{"NoteNumber":89,"Velocity":51,"Duration":191693,"SoundDuration":191693,"Delta":303180060},{"NoteNumber":80,"Velocity":51,"Duration":191693,"SoundDuration":191693,"Delta":303180060},{"NoteNumber":43,"Velocity":30,"Duration":806046,"SoundDuration":806046,"Delta":303803063},{"NoteNumber":62,"Velocity":46,"Duration":108303,"SoundDuration":108303,"Delta":303850987},{"NoteNumber":71,"Velocity":46,"Duration":108303,"SoundDuration":108303,"Delta":303850987},{"NoteNumber":59,"Velocity":33,"Duration":758122,"SoundDuration":758122,"Delta":303850987},{"NoteNumber":65,"Velocity":52,"Duration":216606,"SoundDuration":216606,"Delta":303959290},{"NoteNumber":74,"Velocity":52,"Duration":216606,"SoundDuration":216606,"Delta":303959290},{"NoteNumber":48,"Velocity":33,"Duration":1366764,"SoundDuration":1366764,"Delta":304609110},{"NoteNumber":55,"Velocity":33,"Duration":1312612,"SoundDuration":1312612,"Delta":304663261},{"NoteNumber":72,"Velocity":36,"Duration":89662,"SoundDuration":89662,"Delta":304717413},{"NoteNumber":63,"Velocity":33,"Duration":1258461,"SoundDuration":1258461,"Delta":304717413},{"NoteNumber":74,"Velocity":33,"Duration":83764,"SoundDuration":83764,"Delta":304807076},{"NoteNumber":72,"Velocity":37,"Duration":82634,"SoundDuration":82634,"Delta":304890840},{"NoteNumber":74,"Velocity":33,"Duration":81580,"SoundDuration":81580,"Delta":304973475},{"NoteNumber":72,"Velocity":37,"Duration":80604,"SoundDuration":80604,"Delta":305055055},{"NoteNumber":74,"Velocity":33,"Duration":79587,"SoundDuration":79587,"Delta":305135659},{"NoteNumber":72,"Velocity":37,"Duration":78575,"SoundDuration":78575,"Delta":305215246},{"NoteNumber":74,"Velocity":33,"Duration":77540,"SoundDuration":77540,"Delta":305293822},{"NoteNumber":72,"Velocity":37,"Duration":74999,"SoundDuration":74999,"Delta":305371363},{"NoteNumber":74,"Velocity":33,"Duration":74999,"SoundDuration":74999,"Delta":305446363},{"NoteNumber":72,"Velocity":37,"Duration":76142,"SoundDuration":76142,"Delta":305521363},{"NoteNumber":74,"Velocity":33,"Duration":76142,"SoundDuration":76142,"Delta":305597505},{"NoteNumber":72,"Velocity":37,"Duration":75566,"SoundDuration":75566,"Delta":305673647},{"NoteNumber":74,"Velocity":33,"Duration":75566,"SoundDuration":75566,"Delta":305749214},{"NoteNumber":72,"Velocity":37,"Duration":74999,"SoundDuration":74999,"Delta":305824781},{"NoteNumber":74,"Velocity":33,"Duration":76093,"SoundDuration":76093,"Delta":305899781},{"NoteNumber":71,"Velocity":38,"Duration":76726,"SoundDuration":76726,"Delta":305975874},{"NoteNumber":72,"Velocity":33,"Duration":76726,"SoundDuration":76726,"Delta":306052600},{"NoteNumber":74,"Velocity":34,"Duration":76327,"SoundDuration":76327,"Delta":306129327},{"NoteNumber":75,"Velocity":34,"Duration":76142,"SoundDuration":76142,"Delta":306205654},{"NoteNumber":74,"Velocity":41,"Duration":76055,"SoundDuration":76055,"Delta":306281796},{"NoteNumber":75,"Velocity":36,"Duration":75566,"SoundDuration":75566,"Delta":306357852},{"NoteNumber":78,"Velocity":37,"Duration":75566,"SoundDuration":75566,"Delta":306433419},{"NoteNumber":79,"Velocity":44,"Duration":75207,"SoundDuration":75207,"Delta":306508985},{"NoteNumber":78,"Velocity":38,"Duration":74999,"SoundDuration":74999,"Delta":306584193},{"NoteNumber":79,"Velocity":39,"Duration":74999,"SoundDuration":74999,"Delta":306659193},{"NoteNumber":83,"Velocity":39,"Duration":74618,"SoundDuration":74618,"Delta":306734193},{"NoteNumber":84,"Velocity":40,"Duration":74441,"SoundDuration":74441,"Delta":306808812},{"NoteNumber":83,"Velocity":47,"Duration":74359,"SoundDuration":74359,"Delta":306883253},{"NoteNumber":84,"Velocity":42,"Duration":73891,"SoundDuration":73891,"Delta":306957612},{"NoteNumber":86,"Velocity":42,"Duration":73891,"SoundDuration":73891,"Delta":307031504},{"NoteNumber":87,"Velocity":43,"Duration":73548,"SoundDuration":73548,"Delta":307105396},{"NoteNumber":86,"Velocity":51,"Duration":73349,"SoundDuration":73349,"Delta":307178944},{"NoteNumber":87,"Velocity":45,"Duration":73349,"SoundDuration":73349,"Delta":307252294},{"NoteNumber":90,"Velocity":45,"Duration":73349,"SoundDuration":73349,"Delta":307325643},{"NoteNumber":91,"Velocity":54,"Duration":73349,"SoundDuration":73349,"Delta":307398993},{"NoteNumber":90,"Velocity":47,"Duration":73349,"SoundDuration":73349,"Delta":307472343},{"NoteNumber":91,"Velocity":47,"Duration":73349,"SoundDuration":73349,"Delta":307545692},{"NoteNumber":95,"Velocity":48,"Duration":73349,"SoundDuration":73349,"Delta":307619042},{"NoteNumber":96,"Velocity":49,"Duration":73242,"SoundDuration":73242,"Delta":307692391},{"NoteNumber":95,"Velocity":57,"Duration":72815,"SoundDuration":72815,"Delta":307765634},{"NoteNumber":96,"Velocity":50,"Duration":72868,"SoundDuration":72868,"Delta":307838450},{"NoteNumber":98,"Velocity":51,"Duration":73349,"SoundDuration":73349,"Delta":307911319},{"NoteNumber":99,"Velocity":52,"Duration":73575,"SoundDuration":73575,"Delta":307984668},{"NoteNumber":98,"Velocity":61,"Duration":73891,"SoundDuration":73891,"Delta":308058244},{"NoteNumber":99,"Velocity":53,"Duration":74294,"SoundDuration":74294,"Delta":308132135},{"NoteNumber":102,"Velocity":54,"Duration":83798,"SoundDuration":83798,"Delta":308206430},{"NoteNumber":103,"Velocity":65,"Duration":83798,"SoundDuration":83798,"Delta":308290229},{"NoteNumber":95,"Velocity":61,"Duration":73349,"SoundDuration":73349,"Delta":308374028},{"NoteNumber":96,"Velocity":53,"Duration":73349,"SoundDuration":73349,"Delta":308447378},{"NoteNumber":98,"Velocity":53,"Duration":72984,"SoundDuration":72984,"Delta":308520727},{"NoteNumber":99,"Velocity":53,"Duration":72815,"SoundDuration":72815,"Delta":308593712},{"NoteNumber":90,"Velocity":54,"Duration":72289,"SoundDuration":72289,"Delta":308666527},{"NoteNumber":91,"Velocity":48,"Duration":72289,"SoundDuration":72289,"Delta":308738817},{"NoteNumber":95,"Velocity":49,"Duration":71805,"SoundDuration":71805,"Delta":308811106},{"NoteNumber":96,"Velocity":49,"Duration":71258,"SoundDuration":71258,"Delta":308882911},{"NoteNumber":86,"Velocity":51,"Duration":71446,"SoundDuration":71446,"Delta":308954170},{"NoteNumber":87,"Velocity":45,"Duration":71770,"SoundDuration":71770,"Delta":309025616},{"NoteNumber":90,"Velocity":45,"Duration":72124,"SoundDuration":72124,"Delta":309097387},{"NoteNumber":91,"Velocity":45,"Duration":72289,"SoundDuration":72289,"Delta":309169512},{"NoteNumber":83,"Velocity":47,"Duration":72815,"SoundDuration":72815,"Delta":309241801},{"NoteNumber":84,"Velocity":42,"Duration":73207,"SoundDuration":73207,"Delta":309314616},{"NoteNumber":86,"Velocity":42,"Duration":81081,"SoundDuration":81081,"Delta":309387823},{"NoteNumber":87,"Velocity":43,"Duration":81081,"SoundDuration":81081,"Delta":309468904},{"NoteNumber":78,"Velocity":44,"Duration":73349,"SoundDuration":73349,"Delta":309549986},{"NoteNumber":79,"Velocity":39,"Duration":73349,"SoundDuration":73349,"Delta":309623335},{"NoteNumber":83,"Velocity":40,"Duration":73349,"SoundDuration":73349,"Delta":309696685},{"NoteNumber":84,"Velocity":40,"Duration":73349,"SoundDuration":73349,"Delta":309770034},{"NoteNumber":74,"Velocity":40,"Duration":73349,"SoundDuration":73349,"Delta":309843384},{"NoteNumber":75,"Velocity":36,"Duration":73349,"SoundDuration":73349,"Delta":309916734},{"NoteNumber":78,"Velocity":37,"Duration":82417,"SoundDuration":82417,"Delta":309990083},{"NoteNumber":79,"Velocity":36,"Duration":82417,"SoundDuration":82417,"Delta":310072501},{"NoteNumber":71,"Velocity":41,"Duration":73349,"SoundDuration":73349,"Delta":310154919},{"NoteNumber":72,"Velocity":38,"Duration":73296,"SoundDuration":73296,"Delta":310228268},{"NoteNumber":74,"Velocity":40,"Duration":72815,"SoundDuration":72815,"Delta":310301564},{"NoteNumber":75,"Velocity":41,"Duration":72596,"SoundDuration":72596,"Delta":310374380},{"NoteNumber":66,"Velocity":43,"Duration":72211,"SoundDuration":72211,"Delta":310446976},{"NoteNumber":67,"Velocity":44,"Duration":71770,"SoundDuration":71770,"Delta":310519187},{"NoteNumber":71,"Velocity":46,"Duration":71531,"SoundDuration":71531,"Delta":310590958},{"NoteNumber":72,"Velocity":47,"Duration":71158,"SoundDuration":71158,"Delta":310662489},{"NoteNumber":71,"Velocity":49,"Duration":70939,"SoundDuration":70939,"Delta":310733648},{"NoteNumber":72,"Velocity":49,"Duration":71523,"SoundDuration":71523,"Delta":310804587},{"NoteNumber":74,"Velocity":51,"Duration":72124,"SoundDuration":72124,"Delta":310876110},{"NoteNumber":75,"Velocity":53,"Duration":72727,"SoundDuration":72727,"Delta":310948235},{"NoteNumber":74,"Velocity":55,"Duration":73430,"SoundDuration":73430,"Delta":311020963},{"NoteNumber":75,"Velocity":57,"Duration":74294,"SoundDuration":74294,"Delta":311094394},{"NoteNumber":78,"Velocity":59,"Duration":83102,"SoundDuration":83102,"Delta":311168689},{"NoteNumber":79,"Velocity":61,"Duration":76925,"SoundDuration":76925,"Delta":311251791},{"NoteNumber":71,"Velocity":41,"Duration":73349,"SoundDuration":73349,"Delta":311328717},{"NoteNumber":72,"Velocity":38,"Duration":73073,"SoundDuration":73073,"Delta":311402067},{"NoteNumber":74,"Velocity":40,"Duration":72815,"SoundDuration":72815,"Delta":311475140},{"NoteNumber":75,"Velocity":41,"Duration":72376,"SoundDuration":72376,"Delta":311547956},{"NoteNumber":66,"Velocity":43,"Duration":72211,"SoundDuration":72211,"Delta":311620333},{"NoteNumber":67,"Velocity":44,"Duration":71770,"SoundDuration":71770,"Delta":311692544},{"NoteNumber":71,"Velocity":46,"Duration":71531,"SoundDuration":71531,"Delta":311764314},{"NoteNumber":72,"Velocity":47,"Duration":71258,"SoundDuration":71258,"Delta":311835846},{"NoteNumber":71,"Velocity":49,"Duration":70863,"SoundDuration":70863,"Delta":311907105},{"NoteNumber":72,"Velocity":49,"Duration":71284,"SoundDuration":71284,"Delta":311977969},{"NoteNumber":74,"Velocity":51,"Duration":71908,"SoundDuration":71908,"Delta":312049254},{"NoteNumber":75,"Velocity":53,"Duration":72508,"SoundDuration":72508,"Delta":312121162},{"NoteNumber":74,"Velocity":55,"Duration":73127,"SoundDuration":73127,"Delta":312193671},{"NoteNumber":75,"Velocity":57,"Duration":73747,"SoundDuration":73747,"Delta":312266798},{"NoteNumber":78,"Velocity":59,"Duration":81743,"SoundDuration":81743,"Delta":312340545},{"NoteNumber":79,"Velocity":61,"Duration":81743,"SoundDuration":81743,"Delta":312422289},{"NoteNumber":71,"Velocity":54,"Duration":72815,"SoundDuration":72815,"Delta":312504033},{"NoteNumber":72,"Velocity":49,"Duration":72815,"SoundDuration":72815,"Delta":312576848},{"NoteNumber":74,"Velocity":47,"Duration":72815,"SoundDuration":72815,"Delta":312649664},{"NoteNumber":75,"Velocity":47,"Duration":72815,"SoundDuration":72815,"Delta":312722479},{"NoteNumber":66,"Velocity":47,"Duration":72815,"SoundDuration":72815,"Delta":312795295},{"NoteNumber":67,"Velocity":53,"Duration":72815,"SoundDuration":72815,"Delta":312868110},{"NoteNumber":71,"Velocity":45,"Duration":72815,"SoundDuration":72815,"Delta":312940926},{"NoteNumber":72,"Velocity":45,"Duration":72815,"SoundDuration":72815,"Delta":313013741},{"NoteNumber":62,"Velocity":50,"Duration":72815,"SoundDuration":72815,"Delta":313086557},{"NoteNumber":63,"Velocity":41,"Duration":73091,"SoundDuration":73091,"Delta":313159372},{"NoteNumber":66,"Velocity":41,"Duration":73349,"SoundDuration":73349,"Delta":313232464},{"NoteNumber":67,"Velocity":41,"Duration":73349,"SoundDuration":73349,"Delta":313305813},{"NoteNumber":66,"Velocity":46,"Duration":73891,"SoundDuration":73891,"Delta":313379163},{"NoteNumber":67,"Velocity":43,"Duration":73891,"SoundDuration":73891,"Delta":313453055},{"NoteNumber":71,"Velocity":43,"Duration":74148,"SoundDuration":74148,"Delta":313526946},{"NoteNumber":72,"Velocity":43,"Duration":74441,"SoundDuration":74441,"Delta":313601094},{"NoteNumber":44,"Velocity":43,"Duration":841089,"SoundDuration":841089,"Delta":313675536},{"NoteNumber":53,"Velocity":43,"Duration":789719,"SoundDuration":789719,"Delta":313726906},{"NoteNumber":60,"Velocity":43,"Duration":738350,"SoundDuration":738350,"Delta":313778276},{"NoteNumber":65,"Velocity":43,"Duration":686980,"SoundDuration":686980,"Delta":313829646},{"NoteNumber":72,"Velocity":43,"Duration":635610,"SoundDuration":635610,"Delta":313881016},{"NoteNumber":77,"Velocity":43,"Duration":292207,"SoundDuration":292207,"Delta":313940304},{"NoteNumber":76,"Velocity":43,"Duration":95659,"SoundDuration":95659,"Delta":314232512},{"NoteNumber":77,"Velocity":42,"Duration":94734,"SoundDuration":94734,"Delta":314328172},{"NoteNumber":79,"Velocity":43,"Duration":93719,"SoundDuration":93719,"Delta":314422906},{"NoteNumber":77,"Velocity":48,"Duration":69590,"SoundDuration":69590,"Delta":314516626},{"NoteNumber":79,"Velocity":43,"Duration":69037,"SoundDuration":69037,"Delta":314586216},{"NoteNumber":77,"Velocity":47,"Duration":68486,"SoundDuration":68486,"Delta":314655254},{"NoteNumber":79,"Velocity":43,"Duration":68337,"SoundDuration":68337,"Delta":314723740},{"NoteNumber":77,"Velocity":47,"Duration":68337,"SoundDuration":68337,"Delta":314792077},{"NoteNumber":79,"Velocity":43,"Duration":68337,"SoundDuration":68337,"Delta":314860414},{"NoteNumber":77,"Velocity":50,"Duration":68337,"SoundDuration":68337,"Delta":314928751},{"NoteNumber":79,"Velocity":43,"Duration":68337,"SoundDuration":68337,"Delta":314997089},{"NoteNumber":77,"Velocity":49,"Duration":67615,"SoundDuration":67615,"Delta":315065426},{"NoteNumber":79,"Velocity":43,"Duration":67652,"SoundDuration":67652,"Delta":315133041},{"NoteNumber":77,"Velocity":48,"Duration":68190,"SoundDuration":68190,"Delta":315200693},{"NoteNumber":79,"Velocity":43,"Duration":68533,"SoundDuration":68533,"Delta":315268883},{"NoteNumber":77,"Velocity":46,"Duration":69085,"SoundDuration":69085,"Delta":315337416},{"NoteNumber":79,"Velocity":43,"Duration":69437,"SoundDuration":69437,"Delta":315406502},{"NoteNumber":77,"Velocity":49,"Duration":69996,"SoundDuration":69996,"Delta":315475939},{"NoteNumber":79,"Velocity":43,"Duration":70572,"SoundDuration":70572,"Delta":315545935},{"NoteNumber":76,"Velocity":47,"Duration":287081,"SoundDuration":287081,"Delta":315616508},{"NoteNumber":77,"Velocity":47,"Duration":287081,"SoundDuration":287081,"Delta":315903589},{"NoteNumber":86,"Velocity":58,"Duration":127948,"SoundDuration":127948,"Delta":316190671},{"NoteNumber":85,"Velocity":56,"Duration":128817,"SoundDuration":128817,"Delta":316318620},{"NoteNumber":84,"Velocity":55,"Duration":132990,"SoundDuration":132990,"Delta":316445802},{"NoteNumber":83,"Velocity":54,"Duration":133961,"SoundDuration":133961,"Delta":316577125},{"NoteNumber":82,"Velocity":53,"Duration":136708,"SoundDuration":136708,"Delta":316711086},{"NoteNumber":81,"Velocity":52,"Duration":139570,"SoundDuration":139570,"Delta":316847795},{"NoteNumber":80,"Velocity":51,"Duration":142632,"SoundDuration":142632,"Delta":316990915},{"NoteNumber":79,"Velocity":50,"Duration":147523,"SoundDuration":147523,"Delta":317129922},{"NoteNumber":78,"Velocity":49,"Duration":149830,"SoundDuration":149830,"Delta":317281152},{"NoteNumber":77,"Velocity":49,"Duration":172413,"SoundDuration":172413,"Delta":317424517},{"NoteNumber":71,"Velocity":48,"Duration":196078,"SoundDuration":196078,"Delta":317596931},{"NoteNumber":72,"Velocity":46,"Duration":210070,"SoundDuration":210070,"Delta":317793010},{"NoteNumber":77,"Velocity":45,"Duration":252967,"SoundDuration":252967,"Delta":318003080},{"NoteNumber":76,"Velocity":44,"Duration":272616,"SoundDuration":272616,"Delta":318256047},{"NoteNumber":75,"Velocity":43,"Duration":156250,"SoundDuration":156250,"Delta":318528663},{"NoteNumber":75,"Velocity":43,"Duration":178404,"SoundDuration":178404,"Delta":318736997},{"NoteNumber":46,"Velocity":37,"Duration":2370472,"SoundDuration":2370472,"Delta":318915401},{"NoteNumber":53,"Velocity":38,"Duration":2295095,"SoundDuration":2295095,"Delta":318990778},{"NoteNumber":58,"Velocity":39,"Duration":2219718,"SoundDuration":2219718,"Delta":319066155},{"NoteNumber":62,"Velocity":47,"Duration":2144341,"SoundDuration":2144341,"Delta":319141532},{"NoteNumber":68,"Velocity":49,"Duration":2068964,"SoundDuration":2068964,"Delta":319216909},{"NoteNumber":74,"Velocity":51,"Duration":1965516,"SoundDuration":1965516,"Delta":319320357},{"NoteNumber":62,"Velocity":46,"Duration":191489,"SoundDuration":191489,"Delta":321285874},{"NoteNumber":34,"Velocity":35,"Duration":191489,"SoundDuration":191489,"Delta":321285874},{"NoteNumber":68,"Velocity":50,"Duration":127659,"SoundDuration":127659,"Delta":321349704},{"NoteNumber":77,"Velocity":58,"Duration":63829,"SoundDuration":63829,"Delta":321413533},{"NoteNumber":75,"Velocity":56,"Duration":81743,"SoundDuration":81743,"Delta":321796512},{"NoteNumber":67,"Velocity":47,"Duration":81743,"SoundDuration":81743,"Delta":321796512},{"NoteNumber":39,"Velocity":43,"Duration":81743,"SoundDuration":81743,"Delta":321796512},{"NoteNumber":77,"Velocity":49,"Duration":81743,"SoundDuration":81743,"Delta":321960000},{"NoteNumber":70,"Velocity":41,"Duration":81743,"SoundDuration":81743,"Delta":321960000},{"NoteNumber":79,"Velocity":50,"Duration":81743,"SoundDuration":81743,"Delta":322123488},{"NoteNumber":75,"Velocity":42,"Duration":81743,"SoundDuration":81743,"Delta":322123488},{"NoteNumber":46,"Velocity":46,"Duration":81743,"SoundDuration":81743,"Delta":322123488},{"NoteNumber":80,"Velocity":44,"Duration":87463,"SoundDuration":87463,"Delta":322286976},{"NoteNumber":77,"Velocity":37,"Duration":87463,"SoundDuration":87463,"Delta":322286976},{"NoteNumber":84,"Velocity":56,"Duration":43731,"SoundDuration":43731,"Delta":322418171},{"NoteNumber":82,"Velocity":50,"Duration":81743,"SoundDuration":81743,"Delta":322461903},{"NoteNumber":79,"Velocity":42,"Duration":81743,"SoundDuration":81743,"Delta":322461903},{"NoteNumber":55,"Velocity":51,"Duration":81743,"SoundDuration":81743,"Delta":322461903},{"NoteNumber":81,"Velocity":45,"Duration":81743,"SoundDuration":81743,"Delta":322707134},{"NoteNumber":78,"Velocity":38,"Duration":81743,"SoundDuration":81743,"Delta":322707134},{"NoteNumber":82,"Velocity":59,"Duration":81743,"SoundDuration":81743,"Delta":322788878},{"NoteNumber":79,"Velocity":50,"Duration":81743,"SoundDuration":81743,"Delta":322788878},{"NoteNumber":63,"Velocity":68,"Duration":81743,"SoundDuration":81743,"Delta":322788878},{"NoteNumber":56,"Velocity":68,"Duration":79155,"SoundDuration":79155,"Delta":323115854},{"NoteNumber":63,"Velocity":51,"Duration":79155,"SoundDuration":79155,"Delta":323274165},{"NoteNumber":72,"Velocity":51,"Duration":79155,"SoundDuration":79155,"Delta":323274165},{"NoteNumber":72,"Velocity":44,"Duration":82417,"SoundDuration":82417,"Delta":323432476},{"NoteNumber":68,"Velocity":37,"Duration":82417,"SoundDuration":82417,"Delta":323432476},{"NoteNumber":75,"Velocity":43,"Duration":82417,"SoundDuration":82417,"Delta":323597311},{"NoteNumber":84,"Velocity":51,"Duration":82417,"SoundDuration":82417,"Delta":323597311},{"NoteNumber":84,"Velocity":60,"Duration":83102,"SoundDuration":83102,"Delta":323753621},{"NoteNumber":75,"Velocity":51,"Duration":83102,"SoundDuration":83102,"Delta":323753621},{"NoteNumber":79,"Velocity":55,"Duration":78533,"SoundDuration":78533,"Delta":323919826},{"NoteNumber":83,"Velocity":55,"Duration":78533,"SoundDuration":78533,"Delta":323919826},{"NoteNumber":80,"Velocity":54,"Duration":78533,"SoundDuration":78533,"Delta":324076894},{"NoteNumber":84,"Velocity":64,"Duration":78533,"SoundDuration":78533,"Delta":324076894},{"NoteNumber":55,"Velocity":68,"Duration":79155,"SoundDuration":79155,"Delta":324410432},{"NoteNumber":63,"Velocity":51,"Duration":79155,"SoundDuration":79155,"Delta":324568743},{"NoteNumber":70,"Velocity":51,"Duration":79155,"SoundDuration":79155,"Delta":324568743},{"NoteNumber":70,"Velocity":44,"Duration":82417,"SoundDuration":82417,"Delta":324727055},{"NoteNumber":67,"Velocity":37,"Duration":82417,"SoundDuration":82417,"Delta":324727055},{"NoteNumber":75,"Velocity":43,"Duration":82417,"SoundDuration":82417,"Delta":324891890},{"NoteNumber":82,"Velocity":51,"Duration":82417,"SoundDuration":82417,"Delta":324891890},{"NoteNumber":82,"Velocity":60,"Duration":83102,"SoundDuration":83102,"Delta":325048199},{"NoteNumber":75,"Velocity":51,"Duration":83102,"SoundDuration":83102,"Delta":325048199},{"NoteNumber":78,"Velocity":55,"Duration":78533,"SoundDuration":78533,"Delta":325214404},{"NoteNumber":81,"Velocity":55,"Duration":78533,"SoundDuration":78533,"Delta":325214404},{"NoteNumber":79,"Velocity":54,"Duration":78533,"SoundDuration":78533,"Delta":325371472},{"NoteNumber":82,"Velocity":64,"Duration":78533,"SoundDuration":78533,"Delta":325371472},{"NoteNumber":53,"Velocity":68,"Duration":79155,"SoundDuration":79155,"Delta":325705011},{"NoteNumber":62,"Velocity":51,"Duration":79155,"SoundDuration":79155,"Delta":325863322},{"NoteNumber":68,"Velocity":51,"Duration":79155,"SoundDuration":79155,"Delta":325863322},{"NoteNumber":68,"Velocity":44,"Duration":82417,"SoundDuration":82417,"Delta":326021633},{"NoteNumber":65,"Velocity":37,"Duration":82417,"SoundDuration":82417,"Delta":326021633},{"NoteNumber":74,"Velocity":43,"Duration":82417,"SoundDuration":82417,"Delta":326186468},{"NoteNumber":80,"Velocity":51,"Duration":82417,"SoundDuration":82417,"Delta":326186468},{"NoteNumber":80,"Velocity":60,"Duration":83102,"SoundDuration":83102,"Delta":326342778},{"NoteNumber":74,"Velocity":51,"Duration":83102,"SoundDuration":83102,"Delta":326342778},{"NoteNumber":76,"Velocity":55,"Duration":78533,"SoundDuration":78533,"Delta":326508983},{"NoteNumber":79,"Velocity":55,"Duration":78533,"SoundDuration":78533,"Delta":326508983},{"NoteNumber":77,"Velocity":54,"Duration":78533,"SoundDuration":78533,"Delta":326666051},{"NoteNumber":80,"Velocity":64,"Duration":78533,"SoundDuration":78533,"Delta":326666051},{"NoteNumber":51,"Velocity":68,"Duration":79999,"SoundDuration":79999,"Delta":326999589},{"NoteNumber":63,"Velocity":51,"Duration":79999,"SoundDuration":79999,"Delta":327159589},{"NoteNumber":67,"Velocity":51,"Duration":79999,"SoundDuration":79999,"Delta":327159589},{"NoteNumber":67,"Velocity":44,"Duration":82417,"SoundDuration":82417,"Delta":327319589},{"NoteNumber":63,"Velocity":37,"Duration":82417,"SoundDuration":82417,"Delta":327319589},{"NoteNumber":75,"Velocity":43,"Duration":82417,"SoundDuration":82417,"Delta":327484424},{"NoteNumber":79,"Velocity":51,"Duration":82417,"SoundDuration":82417,"Delta":327484424},{"NoteNumber":79,"Velocity":60,"Duration":83102,"SoundDuration":83102,"Delta":327640734},{"NoteNumber":75,"Velocity":51,"Duration":83102,"SoundDuration":83102,"Delta":327640734},{"NoteNumber":74,"Velocity":55,"Duration":78533,"SoundDuration":78533,"Delta":327806939},{"NoteNumber":78,"Velocity":55,"Duration":78533,"SoundDuration":78533,"Delta":327806939},{"NoteNumber":75,"Velocity":54,"Duration":78533,"SoundDuration":78533,"Delta":327964007},{"NoteNumber":79,"Velocity":64,"Duration":78533,"SoundDuration":78533,"Delta":327964007},{"NoteNumber":80,"Velocity":52,"Duration":83798,"SoundDuration":83798,"Delta":328297545},{"NoteNumber":72,"Velocity":44,"Duration":83798,"SoundDuration":83798,"Delta":328297545},{"NoteNumber":46,"Velocity":48,"Duration":83798,"SoundDuration":83798,"Delta":328297545},{"NoteNumber":79,"Velocity":47,"Duration":83798,"SoundDuration":83798,"Delta":328465143},{"NoteNumber":70,"Velocity":39,"Duration":83798,"SoundDuration":83798,"Delta":328465143},{"NoteNumber":77,"Velocity":47,"Duration":83798,"SoundDuration":83798,"Delta":328632741},{"NoteNumber":68,"Velocity":39,"Duration":83798,"SoundDuration":83798,"Delta":328632741},{"NoteNumber":62,"Velocity":42,"Duration":83798,"SoundDuration":83798,"Delta":328632741},{"NoteNumber":75,"Velocity":47,"Duration":87463,"SoundDuration":87463,"Delta":328800338},{"NoteNumber":67,"Velocity":39,"Duration":87463,"SoundDuration":87463,"Delta":328800338},{"NoteNumber":74,"Velocity":52,"Duration":83798,"SoundDuration":83798,"Delta":328975265},{"NoteNumber":65,"Velocity":44,"Duration":83798,"SoundDuration":83798,"Delta":328975265},{"NoteNumber":46,"Velocity":47,"Duration":83798,"SoundDuration":83798,"Delta":328975265},{"NoteNumber":70,"Velocity":45,"Duration":83798,"SoundDuration":83798,"Delta":329142863},{"NoteNumber":62,"Velocity":38,"Duration":83798,"SoundDuration":83798,"Delta":329142863},{"NoteNumber":72,"Velocity":45,"Duration":89020,"SoundDuration":89020,"Delta":329310461},{"NoteNumber":63,"Velocity":38,"Duration":89020,"SoundDuration":89020,"Delta":329310461},{"NoteNumber":56,"Velocity":40,"Duration":89020,"SoundDuration":89020,"Delta":329310461},{"NoteNumber":74,"Velocity":45,"Duration":89020,"SoundDuration":89020,"Delta":329488502},{"NoteNumber":65,"Velocity":38,"Duration":89020,"SoundDuration":89020,"Delta":329488502},{"NoteNumber":75,"Velocity":56,"Duration":81743,"SoundDuration":81743,"Delta":329666544},{"NoteNumber":67,"Velocity":47,"Duration":81743,"SoundDuration":81743,"Delta":329666544},{"NoteNumber":39,"Velocity":43,"Duration":81743,"SoundDuration":81743,"Delta":329666544},{"NoteNumber":77,"Velocity":49,"Duration":81743,"SoundDuration":81743,"Delta":329830032},{"NoteNumber":70,"Velocity":41,"Duration":81743,"SoundDuration":81743,"Delta":329830032},{"NoteNumber":79,"Velocity":50,"Duration":81743,"SoundDuration":81743,"Delta":329993519},{"NoteNumber":75,"Velocity":42,"Duration":81743,"SoundDuration":81743,"Delta":329993519},{"NoteNumber":46,"Velocity":46,"Duration":81743,"SoundDuration":81743,"Delta":329993519},{"NoteNumber":80,"Velocity":44,"Duration":87463,"SoundDuration":87463,"Delta":330157007},{"NoteNumber":77,"Velocity":37,"Duration":87463,"SoundDuration":87463,"Delta":330157007},{"NoteNumber":84,"Velocity":56,"Duration":43731,"SoundDuration":43731,"Delta":330288202},{"NoteNumber":82,"Velocity":50,"Duration":81743,"SoundDuration":81743,"Delta":330331934},{"NoteNumber":79,"Velocity":42,"Duration":81743,"SoundDuration":81743,"Delta":330331934},{"NoteNumber":55,"Velocity":51,"Duration":81743,"SoundDuration":81743,"Delta":330331934},{"NoteNumber":78,"Velocity":38,"Duration":81743,"SoundDuration":81743,"Delta":330495422},{"NoteNumber":81,"Velocity":45,"Duration":81743,"SoundDuration":81743,"Delta":330495422},{"NoteNumber":82,"Velocity":59,"Duration":81743,"SoundDuration":81743,"Delta":330658910},{"NoteNumber":79,"Velocity":50,"Duration":81743,"SoundDuration":81743,"Delta":330658910},{"NoteNumber":63,"Velocity":68,"Duration":81743,"SoundDuration":81743,"Delta":330658910},{"NoteNumber":68,"Velocity":68,"Duration":80645,"SoundDuration":80645,"Delta":330985885},{"NoteNumber":75,"Velocity":51,"Duration":80645,"SoundDuration":80645,"Delta":331147175},{"NoteNumber":84,"Velocity":51,"Duration":80645,"SoundDuration":80645,"Delta":331147175},{"NoteNumber":84,"Velocity":44,"Duration":73898,"SoundDuration":73898,"Delta":331308466},{"NoteNumber":80,"Velocity":37,"Duration":73898,"SoundDuration":73898,"Delta":331308466},{"NoteNumber":87,"Velocity":43,"Duration":73177,"SoundDuration":73177,"Delta":331456263},{"NoteNumber":96,"Velocity":51,"Duration":73177,"SoundDuration":73177,"Delta":331456263},{"NoteNumber":96,"Velocity":60,"Duration":83102,"SoundDuration":83102,"Delta":331602619},{"NoteNumber":87,"Velocity":51,"Duration":83102,"SoundDuration":83102,"Delta":331602619},{"NoteNumber":91,"Velocity":55,"Duration":78125,"SoundDuration":78125,"Delta":331768824},{"NoteNumber":95,"Velocity":55,"Duration":78125,"SoundDuration":78125,"Delta":331768824},{"NoteNumber":92,"Velocity":54,"Duration":78125,"SoundDuration":78125,"Delta":331925074},{"NoteNumber":96,"Velocity":64,"Duration":78125,"SoundDuration":78125,"Delta":331925074},{"NoteNumber":67,"Velocity":68,"Duration":82417,"SoundDuration":82417,"Delta":332257795},{"NoteNumber":75,"Velocity":51,"Duration":82417,"SoundDuration":82417,"Delta":332422630},{"NoteNumber":82,"Velocity":51,"Duration":82417,"SoundDuration":82417,"Delta":332422630},{"NoteNumber":82,"Velocity":44,"Duration":73177,"SoundDuration":73177,"Delta":332587465},{"NoteNumber":79,"Velocity":37,"Duration":73177,"SoundDuration":73177,"Delta":332587465},{"NoteNumber":87,"Velocity":43,"Duration":73177,"SoundDuration":73177,"Delta":332733821},{"NoteNumber":94,"Velocity":51,"Duration":73177,"SoundDuration":73177,"Delta":332733821},{"NoteNumber":94,"Velocity":60,"Duration":83102,"SoundDuration":83102,"Delta":332880177},{"NoteNumber":87,"Velocity":51,"Duration":83102,"SoundDuration":83102,"Delta":332880177},{"NoteNumber":90,"Velocity":55,"Duration":77319,"SoundDuration":77319,"Delta":333046382},{"NoteNumber":93,"Velocity":55,"Duration":77319,"SoundDuration":77319,"Delta":333046382},{"NoteNumber":91,"Velocity":54,"Duration":77319,"SoundDuration":77319,"Delta":333201021},{"NoteNumber":94,"Velocity":64,"Duration":77319,"SoundDuration":77319,"Delta":333201021},{"NoteNumber":65,"Velocity":68,"Duration":80645,"SoundDuration":80645,"Delta":333532131},{"NoteNumber":74,"Velocity":51,"Duration":80645,"SoundDuration":80645,"Delta":333693421},{"NoteNumber":80,"Velocity":51,"Duration":80645,"SoundDuration":80645,"Delta":333693421},{"NoteNumber":80,"Velocity":44,"Duration":73536,"SoundDuration":73536,"Delta":333854711},{"NoteNumber":77,"Velocity":37,"Duration":73536,"SoundDuration":73536,"Delta":333854711},{"NoteNumber":86,"Velocity":43,"Duration":73536,"SoundDuration":73536,"Delta":334001784},{"NoteNumber":92,"Velocity":51,"Duration":73536,"SoundDuration":73536,"Delta":334001784},{"NoteNumber":92,"Velocity":60,"Duration":83102,"SoundDuration":83102,"Delta":334148858},{"NoteNumber":86,"Velocity":51,"Duration":83102,"SoundDuration":83102,"Delta":334148858},{"NoteNumber":88,"Velocity":55,"Duration":78533,"SoundDuration":78533,"Delta":334315063},{"NoteNumber":91,"Velocity":55,"Duration":78533,"SoundDuration":78533,"Delta":334315063},{"NoteNumber":89,"Velocity":54,"Duration":78533,"SoundDuration":78533,"Delta":334472131},{"NoteNumber":92,"Velocity":64,"Duration":78533,"SoundDuration":78533,"Delta":334472131},{"NoteNumber":63,"Velocity":68,"Duration":80645,"SoundDuration":80645,"Delta":334805669},{"NoteNumber":75,"Velocity":51,"Duration":80645,"SoundDuration":80645,"Delta":334966959},{"NoteNumber":79,"Velocity":51,"Duration":80645,"SoundDuration":80645,"Delta":334966959},{"NoteNumber":79,"Velocity":44,"Duration":73536,"SoundDuration":73536,"Delta":335128250},{"NoteNumber":75,"Velocity":37,"Duration":73536,"SoundDuration":73536,"Delta":335128250},{"NoteNumber":87,"Velocity":43,"Duration":73536,"SoundDuration":73536,"Delta":335275323},{"NoteNumber":91,"Velocity":51,"Duration":73536,"SoundDuration":73536,"Delta":335275323},{"NoteNumber":91,"Velocity":60,"Duration":83102,"SoundDuration":83102,"Delta":335422396},{"NoteNumber":87,"Velocity":51,"Duration":83102,"SoundDuration":83102,"Delta":335422396},{"NoteNumber":86,"Velocity":55,"Duration":78533,"SoundDuration":78533,"Delta":335588601},{"NoteNumber":90,"Velocity":55,"Duration":78533,"SoundDuration":78533,"Delta":335588601},{"NoteNumber":87,"Velocity":54,"Duration":78533,"SoundDuration":78533,"Delta":335745669},{"NoteNumber":91,"Velocity":64,"Duration":78533,"SoundDuration":78533,"Delta":335745669},{"NoteNumber":92,"Velocity":52,"Duration":80645,"SoundDuration":80645,"Delta":336079208},{"NoteNumber":84,"Velocity":44,"Duration":80645,"SoundDuration":80645,"Delta":336079208},{"NoteNumber":58,"Velocity":48,"Duration":80645,"SoundDuration":80645,"Delta":336079208},{"NoteNumber":91,"Velocity":47,"Duration":80645,"SoundDuration":80645,"Delta":336240498},{"NoteNumber":82,"Velocity":39,"Duration":80645,"SoundDuration":80645,"Delta":336240498},{"NoteNumber":89,"Velocity":47,"Duration":80645,"SoundDuration":80645,"Delta":336401788},{"NoteNumber":80,"Velocity":39,"Duration":80645,"SoundDuration":80645,"Delta":336401788},{"NoteNumber":74,"Velocity":42,"Duration":80645,"SoundDuration":80645,"Delta":336401788},{"NoteNumber":87,"Velocity":47,"Duration":87463,"SoundDuration":87463,"Delta":336563078},{"NoteNumber":79,"Velocity":39,"Duration":87463,"SoundDuration":87463,"Delta":336563078},{"NoteNumber":86,"Velocity":52,"Duration":80428,"SoundDuration":80428,"Delta":336738005},{"NoteNumber":77,"Velocity":44,"Duration":80428,"SoundDuration":80428,"Delta":336738005},{"NoteNumber":58,"Velocity":47,"Duration":80428,"SoundDuration":80428,"Delta":336738005},{"NoteNumber":82,"Velocity":45,"Duration":80428,"SoundDuration":80428,"Delta":336898863},{"NoteNumber":74,"Velocity":38,"Duration":80428,"SoundDuration":80428,"Delta":336898863},{"NoteNumber":84,"Velocity":45,"Duration":84985,"SoundDuration":84985,"Delta":337059721},{"NoteNumber":75,"Velocity":38,"Duration":84985,"SoundDuration":84985,"Delta":337059721},{"NoteNumber":68,"Velocity":40,"Duration":84985,"SoundDuration":84985,"Delta":337059721},{"NoteNumber":86,"Velocity":45,"Duration":84985,"SoundDuration":84985,"Delta":337229693},{"NoteNumber":77,"Velocity":38,"Duration":84985,"SoundDuration":84985,"Delta":337229693},{"NoteNumber":87,"Velocity":56,"Duration":79575,"SoundDuration":79575,"Delta":337399665},{"NoteNumber":79,"Velocity":47,"Duration":79575,"SoundDuration":79575,"Delta":337399665},{"NoteNumber":51,"Velocity":43,"Duration":79575,"SoundDuration":79575,"Delta":337399665},{"NoteNumber":89,"Velocity":49,"Duration":79575,"SoundDuration":79575,"Delta":337558816},{"NoteNumber":82,"Velocity":41,"Duration":79575,"SoundDuration":79575,"Delta":337558816},{"NoteNumber":91,"Velocity":50,"Duration":79575,"SoundDuration":79575,"Delta":337717967},{"NoteNumber":87,"Velocity":42,"Duration":79575,"SoundDuration":79575,"Delta":337717967},{"NoteNumber":58,"Velocity":41,"Duration":79575,"SoundDuration":79575,"Delta":337717967},{"NoteNumber":92,"Velocity":44,"Duration":82191,"SoundDuration":82191,"Delta":337877119},{"NoteNumber":89,"Velocity":37,"Duration":82191,"SoundDuration":82191,"Delta":337877119},{"NoteNumber":94,"Velocity":50,"Duration":78740,"SoundDuration":78740,"Delta":338041502},{"NoteNumber":91,"Velocity":42,"Duration":78740,"SoundDuration":78740,"Delta":338041502},{"NoteNumber":67,"Velocity":48,"Duration":78740,"SoundDuration":78740,"Delta":338041502},{"NoteNumber":90,"Velocity":38,"Duration":78740,"SoundDuration":78740,"Delta":338198982},{"NoteNumber":93,"Velocity":45,"Duration":78740,"SoundDuration":78740,"Delta":338198982},{"NoteNumber":96,"Velocity":50,"Duration":78740,"SoundDuration":78740,"Delta":338356463},{"NoteNumber":92,"Velocity":50,"Duration":78740,"SoundDuration":78740,"Delta":338356463},{"NoteNumber":75,"Velocity":51,"Duration":78740,"SoundDuration":78740,"Delta":338356463},{"NoteNumber":91,"Velocity":38,"Duration":84033,"SoundDuration":84033,"Delta":338513943},{"NoteNumber":94,"Velocity":45,"Duration":84033,"SoundDuration":84033,"Delta":338513943},{"NoteNumber":92,"Velocity":52,"Duration":81300,"SoundDuration":81300,"Delta":338682010},{"NoteNumber":84,"Velocity":44,"Duration":81300,"SoundDuration":81300,"Delta":338682010},{"NoteNumber":58,"Velocity":48,"Duration":81300,"SoundDuration":81300,"Delta":338682010},{"NoteNumber":91,"Velocity":47,"Duration":81300,"SoundDuration":81300,"Delta":338844612},{"NoteNumber":82,"Velocity":39,"Duration":81300,"SoundDuration":81300,"Delta":338844612},{"NoteNumber":89,"Velocity":47,"Duration":81300,"SoundDuration":81300,"Delta":339007214},{"NoteNumber":80,"Velocity":39,"Duration":81300,"SoundDuration":81300,"Delta":339007214},{"NoteNumber":74,"Velocity":42,"Duration":81300,"SoundDuration":81300,"Delta":339007214},{"NoteNumber":87,"Velocity":48,"Duration":84033,"SoundDuration":84033,"Delta":339169815},{"NoteNumber":79,"Velocity":40,"Duration":84033,"SoundDuration":84033,"Delta":339169815},{"NoteNumber":86,"Velocity":54,"Duration":80645,"SoundDuration":80645,"Delta":339337883},{"NoteNumber":77,"Velocity":45,"Duration":80645,"SoundDuration":80645,"Delta":339337883},{"NoteNumber":58,"Velocity":48,"Duration":80645,"SoundDuration":80645,"Delta":339337883},{"NoteNumber":82,"Velocity":47,"Duration":80645,"SoundDuration":80645,"Delta":339499173},{"NoteNumber":74,"Velocity":39,"Duration":80645,"SoundDuration":80645,"Delta":339499173},{"NoteNumber":84,"Velocity":48,"Duration":80428,"SoundDuration":80428,"Delta":339660463},{"NoteNumber":75,"Velocity":40,"Duration":80428,"SoundDuration":80428,"Delta":339660463},{"NoteNumber":68,"Velocity":42,"Duration":80428,"SoundDuration":80428,"Delta":339660463},{"NoteNumber":86,"Velocity":48,"Duration":80428,"SoundDuration":80428,"Delta":339821321},{"NoteNumber":77,"Velocity":41,"Duration":80428,"SoundDuration":80428,"Delta":339821321},{"NoteNumber":87,"Velocity":61,"Duration":76726,"SoundDuration":76726,"Delta":339982179},{"NoteNumber":79,"Velocity":51,"Duration":76726,"SoundDuration":76726,"Delta":339982179},{"NoteNumber":51,"Velocity":46,"Duration":76726,"SoundDuration":76726,"Delta":339982179},{"NoteNumber":89,"Velocity":53,"Duration":76726,"SoundDuration":76726,"Delta":340135632},{"NoteNumber":82,"Velocity":45,"Duration":76726,"SoundDuration":76726,"Delta":340135632},{"NoteNumber":91,"Velocity":55,"Duration":76726,"SoundDuration":76726,"Delta":340289085},{"NoteNumber":87,"Velocity":46,"Duration":76726,"SoundDuration":76726,"Delta":340289085},{"NoteNumber":58,"Velocity":46,"Duration":76726,"SoundDuration":76726,"Delta":340289085},{"NoteNumber":92,"Velocity":49,"Duration":80428,"SoundDuration":80428,"Delta":340442537},{"NoteNumber":89,"Velocity":41,"Duration":80428,"SoundDuration":80428,"Delta":340442537},{"NoteNumber":94,"Velocity":57,"Duration":77120,"SoundDuration":77120,"Delta":340603395},{"NoteNumber":91,"Velocity":47,"Duration":77120,"SoundDuration":77120,"Delta":340603395},{"NoteNumber":67,"Velocity":51,"Duration":77120,"SoundDuration":77120,"Delta":340603395},{"NoteNumber":90,"Velocity":43,"Duration":77120,"SoundDuration":77120,"Delta":340757637},{"NoteNumber":93,"Velocity":51,"Duration":77120,"SoundDuration":77120,"Delta":340757637},{"NoteNumber":96,"Velocity":58,"Duration":77120,"SoundDuration":77120,"Delta":340911879},{"NoteNumber":92,"Velocity":58,"Duration":77120,"SoundDuration":77120,"Delta":340911879},{"NoteNumber":75,"Velocity":57,"Duration":77120,"SoundDuration":77120,"Delta":340911879},{"NoteNumber":91,"Velocity":44,"Duration":77120,"SoundDuration":77120,"Delta":341066121},{"NoteNumber":94,"Velocity":52,"Duration":77120,"SoundDuration":77120,"Delta":341066121},{"NoteNumber":92,"Velocity":61,"Duration":79575,"SoundDuration":79575,"Delta":341220362},{"NoteNumber":84,"Velocity":52,"Duration":79575,"SoundDuration":79575,"Delta":341220362},{"NoteNumber":58,"Velocity":57,"Duration":79575,"SoundDuration":79575,"Delta":341220362},{"NoteNumber":91,"Velocity":56,"Duration":79575,"SoundDuration":79575,"Delta":341379514},{"NoteNumber":82,"Velocity":46,"Duration":79575,"SoundDuration":79575,"Delta":341379514},{"NoteNumber":89,"Velocity":56,"Duration":79575,"SoundDuration":79575,"Delta":341538665},{"NoteNumber":80,"Velocity":47,"Duration":79575,"SoundDuration":79575,"Delta":341538665},{"NoteNumber":65,"Velocity":43,"Duration":79575,"SoundDuration":79575,"Delta":341538665},{"NoteNumber":74,"Velocity":50,"Duration":79575,"SoundDuration":79575,"Delta":341538665},{"NoteNumber":87,"Velocity":57,"Duration":87463,"SoundDuration":87463,"Delta":341697816},{"NoteNumber":79,"Velocity":47,"Duration":87463,"SoundDuration":87463,"Delta":341697816},{"NoteNumber":86,"Velocity":63,"Duration":83798,"SoundDuration":83798,"Delta":341872743},{"NoteNumber":77,"Velocity":54,"Duration":83798,"SoundDuration":83798,"Delta":341872743},{"NoteNumber":70,"Velocity":51,"Duration":160858,"SoundDuration":160858,"Delta":342207939},{"NoteNumber":82,"Velocity":60,"Duration":160858,"SoundDuration":160858,"Delta":342207939},{"NoteNumber":56,"Velocity":41,"Duration":160858,"SoundDuration":160858,"Delta":342207939},{"NoteNumber":68,"Velocity":49,"Duration":160858,"SoundDuration":160858,"Delta":342207939},{"NoteNumber":71,"Velocity":51,"Duration":160857,"SoundDuration":160857,"Delta":342368797},{"NoteNumber":83,"Velocity":60,"Duration":160857,"SoundDuration":160857,"Delta":342368797},{"NoteNumber":67,"Velocity":49,"Duration":160857,"SoundDuration":160857,"Delta":342368797},{"NoteNumber":55,"Velocity":41,"Duration":160857,"SoundDuration":160857,"Delta":342368797},{"NoteNumber":72,"Velocity":53,"Duration":160858,"SoundDuration":160858,"Delta":342529655},{"NoteNumber":84,"Velocity":63,"Duration":160858,"SoundDuration":160858,"Delta":342529655},{"NoteNumber":66,"Velocity":57,"Duration":160858,"SoundDuration":160858,"Delta":342529655},{"NoteNumber":54,"Velocity":48,"Duration":160858,"SoundDuration":160858,"Delta":342529655},{"NoteNumber":73,"Velocity":49,"Duration":160857,"SoundDuration":160857,"Delta":342690513},{"NoteNumber":85,"Velocity":58,"Duration":160857,"SoundDuration":160857,"Delta":342690513},{"NoteNumber":65,"Velocity":52,"Duration":160857,"SoundDuration":160857,"Delta":342690513},{"NoteNumber":53,"Velocity":44,"Duration":160857,"SoundDuration":160857,"Delta":342690513},{"NoteNumber":74,"Velocity":49,"Duration":160858,"SoundDuration":160858,"Delta":342851371},{"NoteNumber":86,"Velocity":58,"Duration":160858,"SoundDuration":160858,"Delta":342851371},{"NoteNumber":64,"Velocity":52,"Duration":160858,"SoundDuration":160858,"Delta":342851371},{"NoteNumber":52,"Velocity":44,"Duration":160858,"SoundDuration":160858,"Delta":342851371},{"NoteNumber":75,"Velocity":49,"Duration":160858,"SoundDuration":160858,"Delta":343012229},{"NoteNumber":87,"Velocity":58,"Duration":160858,"SoundDuration":160858,"Delta":343012229},{"NoteNumber":63,"Velocity":52,"Duration":160858,"SoundDuration":160858,"Delta":343012229},{"NoteNumber":51,"Velocity":44,"Duration":160858,"SoundDuration":160858,"Delta":343012229},{"NoteNumber":86,"Velocity":63,"Duration":160857,"SoundDuration":160857,"Delta":343173087},{"NoteNumber":74,"Velocity":53,"Duration":160857,"SoundDuration":160857,"Delta":343173087},{"NoteNumber":62,"Velocity":58,"Duration":160857,"SoundDuration":160857,"Delta":343173087},{"NoteNumber":50,"Velocity":49,"Duration":160857,"SoundDuration":160857,"Delta":343173087},{"NoteNumber":87,"Velocity":59,"Duration":160858,"SoundDuration":160858,"Delta":343333945},{"NoteNumber":75,"Velocity":50,"Duration":160858,"SoundDuration":160858,"Delta":343333945},{"NoteNumber":61,"Velocity":53,"Duration":160858,"SoundDuration":160858,"Delta":343333945},{"NoteNumber":49,"Velocity":45,"Duration":160858,"SoundDuration":160858,"Delta":343333945},{"NoteNumber":88,"Velocity":59,"Duration":160858,"SoundDuration":160858,"Delta":343494803},{"NoteNumber":76,"Velocity":50,"Duration":160858,"SoundDuration":160858,"Delta":343494803},{"NoteNumber":60,"Velocity":53,"Duration":160858,"SoundDuration":160858,"Delta":343494803},{"NoteNumber":48,"Velocity":45,"Duration":160858,"SoundDuration":160858,"Delta":343494803},{"NoteNumber":77,"Velocity":50,"Duration":159855,"SoundDuration":159855,"Delta":343655661},{"NoteNumber":89,"Velocity":59,"Duration":159855,"SoundDuration":159855,"Delta":343655661},{"NoteNumber":47,"Velocity":45,"Duration":159855,"SoundDuration":159855,"Delta":343655661},{"NoteNumber":59,"Velocity":53,"Duration":159855,"SoundDuration":159855,"Delta":343655661},{"NoteNumber":76,"Velocity":58,"Duration":155844,"SoundDuration":155844,"Delta":343815516},{"NoteNumber":88,"Velocity":69,"Duration":155844,"SoundDuration":155844,"Delta":343815516},{"NoteNumber":58,"Velocity":59,"Duration":155844,"SoundDuration":155844,"Delta":343815516},{"NoteNumber":46,"Velocity":50,"Duration":155844,"SoundDuration":155844,"Delta":343815516},{"NoteNumber":77,"Velocity":52,"Duration":155844,"SoundDuration":155844,"Delta":343971360},{"NoteNumber":89,"Velocity":62,"Duration":155844,"SoundDuration":155844,"Delta":343971360},{"NoteNumber":57,"Velocity":54,"Duration":155844,"SoundDuration":155844,"Delta":343971360},{"NoteNumber":45,"Velocity":45,"Duration":155844,"SoundDuration":155844,"Delta":343971360},{"NoteNumber":78,"Velocity":52,"Duration":155844,"SoundDuration":155844,"Delta":344127204},{"NoteNumber":90,"Velocity":62,"Duration":155844,"SoundDuration":155844,"Delta":344127204},{"NoteNumber":44,"Velocity":46,"Duration":155844,"SoundDuration":155844,"Delta":344127204},{"NoteNumber":56,"Velocity":55,"Duration":155844,"SoundDuration":155844,"Delta":344127204},{"NoteNumber":79,"Velocity":52,"Duration":155844,"SoundDuration":155844,"Delta":344283049},{"NoteNumber":91,"Velocity":62,"Duration":155844,"SoundDuration":155844,"Delta":344283049},{"NoteNumber":55,"Velocity":55,"Duration":155844,"SoundDuration":155844,"Delta":344283049},{"NoteNumber":43,"Velocity":46,"Duration":155844,"SoundDuration":155844,"Delta":344283049},{"NoteNumber":78,"Velocity":59,"Duration":156472,"SoundDuration":156472,"Delta":344438893},{"NoteNumber":90,"Velocity":70,"Duration":156472,"SoundDuration":156472,"Delta":344438893},{"NoteNumber":42,"Velocity":46,"Duration":156472,"SoundDuration":156472,"Delta":344438893},{"NoteNumber":54,"Velocity":55,"Duration":156472,"SoundDuration":156472,"Delta":344438893},{"NoteNumber":79,"Velocity":54,"Duration":155844,"SoundDuration":155844,"Delta":344595366},{"NoteNumber":91,"Velocity":64,"Duration":155844,"SoundDuration":155844,"Delta":344595366},{"NoteNumber":41,"Velocity":53,"Duration":155844,"SoundDuration":155844,"Delta":344595366},{"NoteNumber":53,"Velocity":63,"Duration":155844,"SoundDuration":155844,"Delta":344595366},{"NoteNumber":80,"Velocity":54,"Duration":155844,"SoundDuration":155844,"Delta":344751210},{"NoteNumber":92,"Velocity":64,"Duration":155844,"SoundDuration":155844,"Delta":344751210},{"NoteNumber":40,"Velocity":48,"Duration":155844,"SoundDuration":155844,"Delta":344751210},{"NoteNumber":52,"Velocity":57,"Duration":155844,"SoundDuration":155844,"Delta":344751210},{"NoteNumber":81,"Velocity":54,"Duration":155844,"SoundDuration":155844,"Delta":344907054},{"NoteNumber":93,"Velocity":64,"Duration":155844,"SoundDuration":155844,"Delta":344907054},{"NoteNumber":39,"Velocity":48,"Duration":155844,"SoundDuration":155844,"Delta":344907054},{"NoteNumber":51,"Velocity":57,"Duration":155844,"SoundDuration":155844,"Delta":344907054},{"NoteNumber":80,"Velocity":62,"Duration":153092,"SoundDuration":153092,"Delta":345062899},{"NoteNumber":92,"Velocity":74,"Duration":153092,"SoundDuration":153092,"Delta":345062899},{"NoteNumber":38,"Velocity":56,"Duration":153092,"SoundDuration":153092,"Delta":345062899},{"NoteNumber":50,"Velocity":66,"Duration":153092,"SoundDuration":153092,"Delta":345062899},{"NoteNumber":81,"Velocity":53,"Duration":152671,"SoundDuration":152671,"Delta":345215991},{"NoteNumber":93,"Velocity":63,"Duration":152671,"SoundDuration":152671,"Delta":345215991},{"NoteNumber":37,"Velocity":50,"Duration":152671,"SoundDuration":152671,"Delta":345215991},{"NoteNumber":49,"Velocity":59,"Duration":152671,"SoundDuration":152671,"Delta":345215991},{"NoteNumber":82,"Velocity":54,"Duration":151236,"SoundDuration":151236,"Delta":345368663},{"NoteNumber":94,"Velocity":64,"Duration":151236,"SoundDuration":151236,"Delta":345368663},{"NoteNumber":36,"Velocity":51,"Duration":151236,"SoundDuration":151236,"Delta":345368663},{"NoteNumber":48,"Velocity":60,"Duration":151236,"SoundDuration":151236,"Delta":345368663},{"NoteNumber":83,"Velocity":54,"Duration":150831,"SoundDuration":150831,"Delta":345519899},{"NoteNumber":95,"Velocity":64,"Duration":150831,"SoundDuration":150831,"Delta":345519899},{"NoteNumber":35,"Velocity":51,"Duration":150831,"SoundDuration":150831,"Delta":345519899},{"NoteNumber":47,"Velocity":60,"Duration":150831,"SoundDuration":150831,"Delta":345519899},{"NoteNumber":82,"Velocity":64,"Duration":155830,"SoundDuration":155830,"Delta":345670731},{"NoteNumber":94,"Velocity":75,"Duration":155830,"SoundDuration":155830,"Delta":345670731},{"NoteNumber":34,"Velocity":59,"Duration":317021,"SoundDuration":317021,"Delta":345670731},{"NoteNumber":46,"Velocity":71,"Duration":317021,"SoundDuration":317021,"Delta":345670731},{"NoteNumber":83,"Velocity":59,"Duration":161191,"SoundDuration":161191,"Delta":345826562},{"NoteNumber":95,"Velocity":71,"Duration":161191,"SoundDuration":161191,"Delta":345826562},{"NoteNumber":84,"Velocity":64,"Duration":162272,"SoundDuration":162272,"Delta":345987753},{"NoteNumber":96,"Velocity":77,"Duration":162272,"SoundDuration":162272,"Delta":345987753},{"NoteNumber":33,"Velocity":60,"Duration":359667,"SoundDuration":359667,"Delta":345987753},{"NoteNumber":45,"Velocity":72,"Duration":359667,"SoundDuration":359667,"Delta":345987753},{"NoteNumber":85,"Velocity":69,"Duration":197394,"SoundDuration":197394,"Delta":346150025},{"NoteNumber":97,"Velocity":82,"Duration":197394,"SoundDuration":197394,"Delta":346150025},{"NoteNumber":98,"Velocity":93,"Duration":353982,"SoundDuration":353982,"Delta":346347420},{"NoteNumber":86,"Velocity":79,"Duration":353982,"SoundDuration":353982,"Delta":346347420},{"NoteNumber":94,"Velocity":79,"Duration":353982,"SoundDuration":353982,"Delta":346347420},{"NoteNumber":44,"Velocity":78,"Duration":353982,"SoundDuration":353982,"Delta":346347420},{"NoteNumber":32,"Velocity":66,"Duration":353982,"SoundDuration":353982,"Delta":346347420},{"NoteNumber":98,"Velocity":85,"Duration":330578,"SoundDuration":330578,"Delta":346701402},{"NoteNumber":86,"Velocity":72,"Duration":330578,"SoundDuration":330578,"Delta":346701402},{"NoteNumber":94,"Velocity":72,"Duration":330578,"SoundDuration":330578,"Delta":346701402},{"NoteNumber":65,"Velocity":70,"Duration":330578,"SoundDuration":330578,"Delta":346701402},{"NoteNumber":60,"Velocity":59,"Duration":330578,"SoundDuration":330578,"Delta":346701402},{"NoteNumber":53,"Velocity":59,"Duration":330578,"SoundDuration":330578,"Delta":346701402},{"NoteNumber":96,"Velocity":93,"Duration":326975,"SoundDuration":326975,"Delta":347031981},{"NoteNumber":84,"Velocity":79,"Duration":326975,"SoundDuration":326975,"Delta":347031981},{"NoteNumber":92,"Velocity":79,"Duration":326975,"SoundDuration":326975,"Delta":347031981},{"NoteNumber":46,"Velocity":78,"Duration":326975,"SoundDuration":326975,"Delta":347031981},{"NoteNumber":34,"Velocity":66,"Duration":326975,"SoundDuration":326975,"Delta":347031981},{"NoteNumber":96,"Velocity":88,"Duration":323449,"SoundDuration":323449,"Delta":347358956},{"NoteNumber":84,"Velocity":74,"Duration":323449,"SoundDuration":323449,"Delta":347358956},{"NoteNumber":92,"Velocity":74,"Duration":323449,"SoundDuration":323449,"Delta":347358956},{"NoteNumber":65,"Velocity":71,"Duration":323449,"SoundDuration":323449,"Delta":347358956},{"NoteNumber":62,"Velocity":60,"Duration":323449,"SoundDuration":323449,"Delta":347358956},{"NoteNumber":53,"Velocity":60,"Duration":323449,"SoundDuration":323449,"Delta":347358956},{"NoteNumber":91,"Velocity":92,"Duration":310077,"SoundDuration":310077,"Delta":347682406},{"NoteNumber":79,"Velocity":78,"Duration":310077,"SoundDuration":310077,"Delta":347682406},{"NoteNumber":87,"Velocity":78,"Duration":310077,"SoundDuration":310077,"Delta":347682406},{"NoteNumber":51,"Velocity":78,"Duration":310077,"SoundDuration":310077,"Delta":347682406},{"NoteNumber":39,"Velocity":66,"Duration":310077,"SoundDuration":310077,"Delta":347682406},{"NoteNumber":94,"Velocity":83,"Duration":330578,"SoundDuration":330578,"Delta":347992484},{"NoteNumber":82,"Velocity":70,"Duration":330578,"SoundDuration":330578,"Delta":347992484},{"NoteNumber":91,"Velocity":70,"Duration":330578,"SoundDuration":330578,"Delta":347992484},{"NoteNumber":67,"Velocity":71,"Duration":330578,"SoundDuration":330578,"Delta":347992484},{"NoteNumber":63,"Velocity":60,"Duration":330578,"SoundDuration":330578,"Delta":347992484},{"NoteNumber":55,"Velocity":60,"Duration":330578,"SoundDuration":330578,"Delta":347992484},{"NoteNumber":94,"Velocity":89,"Duration":155038,"SoundDuration":155038,"Delta":348323062},{"NoteNumber":82,"Velocity":74,"Duration":155038,"SoundDuration":155038,"Delta":348323062},{"NoteNumber":91,"Velocity":74,"Duration":155038,"SoundDuration":155038,"Delta":348323062},{"NoteNumber":51,"Velocity":78,"Duration":310077,"SoundDuration":310077,"Delta":348323062},{"NoteNumber":39,"Velocity":66,"Duration":310077,"SoundDuration":310077,"Delta":348323062},{"NoteNumber":81,"Velocity":67,"Duration":155038,"SoundDuration":155038,"Delta":348478101},{"NoteNumber":90,"Velocity":67,"Duration":155038,"SoundDuration":155038,"Delta":348478101},{"NoteNumber":93,"Velocity":79,"Duration":155038,"SoundDuration":155038,"Delta":348478101},{"NoteNumber":94,"Velocity":88,"Duration":334262,"SoundDuration":334262,"Delta":348633140},{"NoteNumber":82,"Velocity":74,"Duration":334262,"SoundDuration":334262,"Delta":348633140},{"NoteNumber":91,"Velocity":74,"Duration":334262,"SoundDuration":334262,"Delta":348633140},{"NoteNumber":67,"Velocity":71,"Duration":334262,"SoundDuration":334262,"Delta":348633140},{"NoteNumber":63,"Velocity":60,"Duration":334262,"SoundDuration":334262,"Delta":348633140},{"NoteNumber":55,"Velocity":60,"Duration":334262,"SoundDuration":334262,"Delta":348633140},{"NoteNumber":89,"Velocity":82,"Duration":156657,"SoundDuration":156657,"Delta":348967402},{"NoteNumber":77,"Velocity":69,"Duration":156657,"SoundDuration":156657,"Delta":348967402},{"NoteNumber":53,"Velocity":78,"Duration":313315,"SoundDuration":313315,"Delta":348967402},{"NoteNumber":41,"Velocity":66,"Duration":313315,"SoundDuration":313315,"Delta":348967402},{"NoteNumber":91,"Velocity":81,"Duration":156657,"SoundDuration":156657,"Delta":349124060},{"NoteNumber":79,"Velocity":68,"Duration":156657,"SoundDuration":156657,"Delta":349124060},{"NoteNumber":92,"Velocity":81,"Duration":156657,"SoundDuration":156657,"Delta":349280718},{"NoteNumber":80,"Velocity":68,"Duration":156657,"SoundDuration":156657,"Delta":349280718},{"NoteNumber":65,"Velocity":71,"Duration":313315,"SoundDuration":313315,"Delta":349280718},{"NoteNumber":60,"Velocity":60,"Duration":313315,"SoundDuration":313315,"Delta":349280718},{"NoteNumber":56,"Velocity":60,"Duration":313315,"SoundDuration":313315,"Delta":349280718},{"NoteNumber":96,"Velocity":81,"Duration":156657,"SoundDuration":156657,"Delta":349437376},{"NoteNumber":84,"Velocity":68,"Duration":156657,"SoundDuration":156657,"Delta":349437376},{"NoteNumber":94,"Velocity":83,"Duration":156658,"SoundDuration":156658,"Delta":349594034},{"NoteNumber":82,"Velocity":70,"Duration":156658,"SoundDuration":156658,"Delta":349594034},{"NoteNumber":46,"Velocity":78,"Duration":313316,"SoundDuration":313316,"Delta":349594034},{"NoteNumber":34,"Velocity":66,"Duration":313316,"SoundDuration":313316,"Delta":349594034},{"NoteNumber":92,"Velocity":80,"Duration":156657,"SoundDuration":156657,"Delta":349750692},{"NoteNumber":80,"Velocity":68,"Duration":156657,"SoundDuration":156657,"Delta":349750692},{"NoteNumber":91,"Velocity":81,"Duration":156657,"SoundDuration":156657,"Delta":349907350},{"NoteNumber":79,"Velocity":68,"Duration":156657,"SoundDuration":156657,"Delta":349907350},{"NoteNumber":65,"Velocity":71,"Duration":313315,"SoundDuration":313315,"Delta":349907350},{"NoteNumber":62,"Velocity":60,"Duration":313315,"SoundDuration":313315,"Delta":349907350},{"NoteNumber":56,"Velocity":60,"Duration":313315,"SoundDuration":313315,"Delta":349907350},{"NoteNumber":89,"Velocity":81,"Duration":156657,"SoundDuration":156657,"Delta":350064008},{"NoteNumber":77,"Velocity":68,"Duration":156657,"SoundDuration":156657,"Delta":350064008},{"NoteNumber":94,"Velocity":92,"Duration":306905,"SoundDuration":306905,"Delta":350220666},{"NoteNumber":91,"Velocity":92,"Duration":306905,"SoundDuration":306905,"Delta":350220666},{"NoteNumber":82,"Velocity":78,"Duration":306905,"SoundDuration":306905,"Delta":350220666},{"NoteNumber":51,"Velocity":78,"Duration":306905,"SoundDuration":306905,"Delta":350220666},{"NoteNumber":39,"Velocity":66,"Duration":306905,"SoundDuration":306905,"Delta":350220666},{"NoteNumber":91,"Velocity":83,"Duration":247933,"SoundDuration":247933,"Delta":350527571},{"NoteNumber":94,"Velocity":83,"Duration":247933,"SoundDuration":247933,"Delta":350527571},{"NoteNumber":82,"Velocity":70,"Duration":247933,"SoundDuration":247933,"Delta":350527571},{"NoteNumber":67,"Velocity":71,"Duration":330578,"SoundDuration":330578,"Delta":350527571},{"NoteNumber":63,"Velocity":60,"Duration":330578,"SoundDuration":330578,"Delta":350527571},{"NoteNumber":55,"Velocity":60,"Duration":330578,"SoundDuration":330578,"Delta":350527571},{"NoteNumber":81,"Velocity":67,"Duration":82644,"SoundDuration":82644,"Delta":350775505},{"NoteNumber":90,"Velocity":79,"Duration":82644,"SoundDuration":82644,"Delta":350775505},{"NoteNumber":93,"Velocity":79,"Duration":82644,"SoundDuration":82644,"Delta":350775505},{"NoteNumber":94,"Velocity":89,"Duration":640655,"SoundDuration":640655,"Delta":350858150},{"NoteNumber":91,"Velocity":89,"Duration":640655,"SoundDuration":640655,"Delta":350858150},{"NoteNumber":82,"Velocity":74,"Duration":640655,"SoundDuration":640655,"Delta":350858150},{"NoteNumber":51,"Velocity":78,"Duration":310077,"SoundDuration":310077,"Delta":350858150},{"NoteNumber":39,"Velocity":66,"Duration":310077,"SoundDuration":310077,"Delta":350858150},{"NoteNumber":67,"Velocity":71,"Duration":330578,"SoundDuration":330578,"Delta":351168227},{"NoteNumber":63,"Velocity":60,"Duration":330578,"SoundDuration":330578,"Delta":351168227},{"NoteNumber":55,"Velocity":60,"Duration":330578,"SoundDuration":330578,"Delta":351168227},{"NoteNumber":98,"Velocity":93,"Duration":375046,"SoundDuration":375046,"Delta":351498806},{"NoteNumber":86,"Velocity":79,"Duration":375046,"SoundDuration":375046,"Delta":351498806},{"NoteNumber":94,"Velocity":79,"Duration":375046,"SoundDuration":375046,"Delta":351498806},{"NoteNumber":44,"Velocity":78,"Duration":375046,"SoundDuration":375046,"Delta":351498806},{"NoteNumber":32,"Velocity":66,"Duration":375046,"SoundDuration":375046,"Delta":351498806},{"NoteNumber":98,"Velocity":85,"Duration":338028,"SoundDuration":338028,"Delta":351873853},{"NoteNumber":86,"Velocity":72,"Duration":338028,"SoundDuration":338028,"Delta":351873853},{"NoteNumber":94,"Velocity":72,"Duration":338028,"SoundDuration":338028,"Delta":351873853},{"NoteNumber":65,"Velocity":70,"Duration":338028,"SoundDuration":338028,"Delta":351873853},{"NoteNumber":60,"Velocity":59,"Duration":338028,"SoundDuration":338028,"Delta":351873853},{"NoteNumber":53,"Velocity":59,"Duration":338028,"SoundDuration":338028,"Delta":351873853},{"NoteNumber":96,"Velocity":93,"Duration":341880,"SoundDuration":341880,"Delta":352211881},{"NoteNumber":84,"Velocity":79,"Duration":341880,"SoundDuration":341880,"Delta":352211881},{"NoteNumber":92,"Velocity":79,"Duration":341880,"SoundDuration":341880,"Delta":352211881},{"NoteNumber":46,"Velocity":78,"Duration":341880,"SoundDuration":341880,"Delta":352211881},{"NoteNumber":34,"Velocity":66,"Duration":341880,"SoundDuration":341880,"Delta":352211881},{"NoteNumber":96,"Velocity":88,"Duration":345821,"SoundDuration":345821,"Delta":352553761},{"NoteNumber":84,"Velocity":74,"Duration":345821,"SoundDuration":345821,"Delta":352553761},{"NoteNumber":92,"Velocity":74,"Duration":345821,"SoundDuration":345821,"Delta":352553761},{"NoteNumber":65,"Velocity":71,"Duration":345821,"SoundDuration":345821,"Delta":352553761},{"NoteNumber":62,"Velocity":60,"Duration":345821,"SoundDuration":345821,"Delta":352553761},{"NoteNumber":53,"Velocity":60,"Duration":345821,"SoundDuration":345821,"Delta":352553761},{"NoteNumber":91,"Velocity":92,"Duration":313315,"SoundDuration":313315,"Delta":352899583},{"NoteNumber":79,"Velocity":78,"Duration":313315,"SoundDuration":313315,"Delta":352899583},{"NoteNumber":87,"Velocity":78,"Duration":313315,"SoundDuration":313315,"Delta":352899583},{"NoteNumber":51,"Velocity":78,"Duration":313315,"SoundDuration":313315,"Delta":352899583},{"NoteNumber":39,"Velocity":66,"Duration":313315,"SoundDuration":313315,"Delta":352899583},{"NoteNumber":94,"Velocity":83,"Duration":326975,"SoundDuration":326975,"Delta":353212899},{"NoteNumber":82,"Velocity":70,"Duration":326975,"SoundDuration":326975,"Delta":353212899},{"NoteNumber":91,"Velocity":70,"Duration":326975,"SoundDuration":326975,"Delta":353212899},{"NoteNumber":67,"Velocity":71,"Duration":326975,"SoundDuration":326975,"Delta":353212899},{"NoteNumber":63,"Velocity":60,"Duration":326975,"SoundDuration":326975,"Delta":353212899},{"NoteNumber":55,"Velocity":60,"Duration":326975,"SoundDuration":326975,"Delta":353212899},{"NoteNumber":94,"Velocity":89,"Duration":156657,"SoundDuration":156657,"Delta":353539874},{"NoteNumber":82,"Velocity":74,"Duration":156657,"SoundDuration":156657,"Delta":353539874},{"NoteNumber":91,"Velocity":74,"Duration":156657,"SoundDuration":156657,"Delta":353539874},{"NoteNumber":51,"Velocity":78,"Duration":313315,"SoundDuration":313315,"Delta":353539874},{"NoteNumber":39,"Velocity":66,"Duration":313315,"SoundDuration":313315,"Delta":353539874},{"NoteNumber":81,"Velocity":67,"Duration":156657,"SoundDuration":156657,"Delta":353696532},{"NoteNumber":90,"Velocity":67,"Duration":156657,"SoundDuration":156657,"Delta":353696532},{"NoteNumber":93,"Velocity":79,"Duration":156657,"SoundDuration":156657,"Delta":353696532},{"NoteNumber":94,"Velocity":88,"Duration":346820,"SoundDuration":346820,"Delta":353853190},{"NoteNumber":82,"Velocity":74,"Duration":346820,"SoundDuration":346820,"Delta":353853190},{"NoteNumber":91,"Velocity":74,"Duration":346820,"SoundDuration":346820,"Delta":353853190},{"NoteNumber":67,"Velocity":71,"Duration":346820,"SoundDuration":346820,"Delta":353853190},{"NoteNumber":63,"Velocity":60,"Duration":346820,"SoundDuration":346820,"Delta":353853190},{"NoteNumber":55,"Velocity":60,"Duration":346820,"SoundDuration":346820,"Delta":353853190},{"NoteNumber":89,"Velocity":72,"Duration":163487,"SoundDuration":163487,"Delta":354200011},{"NoteNumber":77,"Velocity":61,"Duration":163487,"SoundDuration":163487,"Delta":354200011},{"NoteNumber":80,"Velocity":61,"Duration":163487,"SoundDuration":163487,"Delta":354200011},{"NoteNumber":53,"Velocity":78,"Duration":326975,"SoundDuration":326975,"Delta":354200011},{"NoteNumber":41,"Velocity":66,"Duration":326975,"SoundDuration":326975,"Delta":354200011},{"NoteNumber":91,"Velocity":74,"Duration":163487,"SoundDuration":163487,"Delta":354363499},{"NoteNumber":79,"Velocity":62,"Duration":163487,"SoundDuration":163487,"Delta":354363499},{"NoteNumber":82,"Velocity":62,"Duration":163487,"SoundDuration":163487,"Delta":354363499},{"NoteNumber":92,"Velocity":77,"Duration":163487,"SoundDuration":163487,"Delta":354526987},{"NoteNumber":80,"Velocity":64,"Duration":163487,"SoundDuration":163487,"Delta":354526987},{"NoteNumber":83,"Velocity":64,"Duration":163487,"SoundDuration":163487,"Delta":354526987},{"NoteNumber":65,"Velocity":71,"Duration":326975,"SoundDuration":326975,"Delta":354526987},{"NoteNumber":60,"Velocity":60,"Duration":326975,"SoundDuration":326975,"Delta":354526987},{"NoteNumber":56,"Velocity":60,"Duration":326975,"SoundDuration":326975,"Delta":354526987},{"NoteNumber":84,"Velocity":67,"Duration":163487,"SoundDuration":163487,"Delta":354690475},{"NoteNumber":93,"Velocity":79,"Duration":163487,"SoundDuration":163487,"Delta":354690475},{"NoteNumber":81,"Velocity":67,"Duration":163487,"SoundDuration":163487,"Delta":354690475},{"NoteNumber":94,"Velocity":81,"Duration":156657,"SoundDuration":156657,"Delta":354853962},{"NoteNumber":85,"Velocity":68,"Duration":156657,"SoundDuration":156657,"Delta":354853962},{"NoteNumber":82,"Velocity":68,"Duration":156657,"SoundDuration":156657,"Delta":354853962},{"NoteNumber":46,"Velocity":78,"Duration":313315,"SoundDuration":313315,"Delta":354853962},{"NoteNumber":34,"Velocity":66,"Duration":313315,"SoundDuration":313315,"Delta":354853962},{"NoteNumber":95,"Velocity":83,"Duration":156657,"SoundDuration":156657,"Delta":355010620},{"NoteNumber":83,"Velocity":70,"Duration":156657,"SoundDuration":156657,"Delta":355010620},{"NoteNumber":86,"Velocity":70,"Duration":156657,"SoundDuration":156657,"Delta":355010620},{"NoteNumber":96,"Velocity":85,"Duration":156657,"SoundDuration":156657,"Delta":355167278},{"NoteNumber":84,"Velocity":72,"Duration":156657,"SoundDuration":156657,"Delta":355167278},{"NoteNumber":87,"Velocity":72,"Duration":156657,"SoundDuration":156657,"Delta":355167278},{"NoteNumber":65,"Velocity":71,"Duration":313315,"SoundDuration":313315,"Delta":355167278},{"NoteNumber":62,"Velocity":60,"Duration":313315,"SoundDuration":313315,"Delta":355167278},{"NoteNumber":56,"Velocity":60,"Duration":313315,"SoundDuration":313315,"Delta":355167278},{"NoteNumber":98,"Velocity":86,"Duration":156657,"SoundDuration":156657,"Delta":355323936},{"NoteNumber":86,"Velocity":73,"Duration":156657,"SoundDuration":156657,"Delta":355323936},{"NoteNumber":89,"Velocity":73,"Duration":156657,"SoundDuration":156657,"Delta":355323936},{"NoteNumber":99,"Velocity":89,"Duration":81743,"SoundDuration":81743,"Delta":355480594},{"NoteNumber":87,"Velocity":74,"Duration":81743,"SoundDuration":81743,"Delta":355480594},{"NoteNumber":91,"Velocity":74,"Duration":81743,"SoundDuration":81743,"Delta":355480594},{"NoteNumber":39,"Velocity":66,"Duration":163487,"SoundDuration":163487,"Delta":355480594},{"NoteNumber":51,"Velocity":78,"Duration":163487,"SoundDuration":163487,"Delta":355480594},{"NoteNumber":75,"Velocity":68,"Duration":653951,"SoundDuration":653951,"Delta":355807570},{"NoteNumber":79,"Velocity":68,"Duration":653951,"SoundDuration":653951,"Delta":355807570},{"NoteNumber":87,"Velocity":81,"Duration":653951,"SoundDuration":653951,"Delta":355807570},{"NoteNumber":55,"Velocity":60,"Duration":653951,"SoundDuration":653951,"Delta":355807570},{"NoteNumber":58,"Velocity":60,"Duration":653951,"SoundDuration":653951,"Delta":355807570},{"NoteNumber":63,"Velocity":60,"Duration":653951,"SoundDuration":653951,"Delta":355807570},{"NoteNumber":67,"Velocity":71,"Duration":653951,"SoundDuration":653951,"Delta":355807570},{"NoteNumber":75,"Velocity":61,"Duration":163487,"SoundDuration":163487,"Delta":356461521},{"NoteNumber":79,"Velocity":61,"Duration":163487,"SoundDuration":163487,"Delta":356461521},{"NoteNumber":87,"Velocity":72,"Duration":163487,"SoundDuration":163487,"Delta":356461521},{"NoteNumber":55,"Velocity":54,"Duration":81743,"SoundDuration":81743,"Delta":356461521},{"NoteNumber":58,"Velocity":54,"Duration":81743,"SoundDuration":81743,"Delta":356461521},{"NoteNumber":63,"Velocity":54,"Duration":81743,"SoundDuration":81743,"Delta":356461521},{"NoteNumber":67,"Velocity":63,"Duration":81743,"SoundDuration":81743,"Delta":356461521},{"NoteNumber":62,"Velocity":51,"Duration":156657,"SoundDuration":156657,"Delta":356788496},{"NoteNumber":65,"Velocity":63,"Duration":78328,"SoundDuration":78328,"Delta":356788496},{"NoteNumber":56,"Velocity":36,"Duration":156657,"SoundDuration":156657,"Delta":356788496},{"NoteNumber":58,"Velocity":43,"Duration":156657,"SoundDuration":156657,"Delta":356788496},{"NoteNumber":51,"Velocity":36,"Duration":156657,"SoundDuration":156657,"Delta":356788496},{"NoteNumber":67,"Velocity":59,"Duration":78328,"SoundDuration":78328,"Delta":356945154},{"NoteNumber":62,"Velocity":52,"Duration":608156,"SoundDuration":608156,"Delta":357101812},{"NoteNumber":68,"Velocity":59,"Duration":78328,"SoundDuration":78328,"Delta":357101812},{"NoteNumber":58,"Velocity":39,"Duration":608156,"SoundDuration":608156,"Delta":357101812},{"NoteNumber":56,"Velocity":33,"Duration":608156,"SoundDuration":608156,"Delta":357101812},{"NoteNumber":51,"Velocity":33,"Duration":608156,"SoundDuration":608156,"Delta":357101812},{"NoteNumber":72,"Velocity":59,"Duration":78328,"SoundDuration":78328,"Delta":357258470},{"NoteNumber":70,"Velocity":64,"Duration":73710,"SoundDuration":73710,"Delta":357415128},{"NoteNumber":68,"Velocity":55,"Duration":73710,"SoundDuration":73710,"Delta":357562549},{"NoteNumber":62,"Velocity":50,"Duration":155038,"SoundDuration":155038,"Delta":357709969},{"NoteNumber":67,"Velocity":56,"Duration":77519,"SoundDuration":77519,"Delta":357709969},{"NoteNumber":58,"Velocity":39,"Duration":155038,"SoundDuration":155038,"Delta":357709969},{"NoteNumber":56,"Velocity":33,"Duration":155038,"SoundDuration":155038,"Delta":357709969},{"NoteNumber":51,"Velocity":33,"Duration":155038,"SoundDuration":155038,"Delta":357709969},{"NoteNumber":65,"Velocity":57,"Duration":77519,"SoundDuration":77519,"Delta":357865008},{"NoteNumber":70,"Velocity":63,"Duration":73710,"SoundDuration":73710,"Delta":358020046},{"NoteNumber":67,"Velocity":53,"Duration":73710,"SoundDuration":73710,"Delta":358020046},{"NoteNumber":61,"Velocity":51,"Duration":73710,"SoundDuration":73710,"Delta":358020046},{"NoteNumber":51,"Velocity":51,"Duration":73710,"SoundDuration":73710,"Delta":358020046},{"NoteNumber":72,"Velocity":57,"Duration":36855,"SoundDuration":36855,"Delta":358278032},{"NoteNumber":67,"Velocity":53,"Duration":75188,"SoundDuration":75188,"Delta":358314887},{"NoteNumber":70,"Velocity":63,"Duration":75188,"SoundDuration":75188,"Delta":358314887},{"NoteNumber":61,"Velocity":39,"Duration":589908,"SoundDuration":589908,"Delta":358314887},{"NoteNumber":51,"Velocity":33,"Duration":589908,"SoundDuration":589908,"Delta":358314887},{"NoteNumber":66,"Velocity":47,"Duration":75187,"SoundDuration":75187,"Delta":358540451},{"NoteNumber":69,"Velocity":56,"Duration":75187,"SoundDuration":75187,"Delta":358540451},{"NoteNumber":67,"Velocity":52,"Duration":612606,"SoundDuration":612606,"Delta":358615639},{"NoteNumber":70,"Velocity":62,"Duration":612606,"SoundDuration":612606,"Delta":358615639},{"NoteNumber":61,"Velocity":43,"Duration":161724,"SoundDuration":161724,"Delta":358904795},{"NoteNumber":51,"Velocity":40,"Duration":161724,"SoundDuration":161724,"Delta":358904795},{"NoteNumber":60,"Velocity":51,"Duration":153452,"SoundDuration":153452,"Delta":359228245},{"NoteNumber":65,"Velocity":63,"Duration":76726,"SoundDuration":76726,"Delta":359228245},{"NoteNumber":56,"Velocity":43,"Duration":153452,"SoundDuration":153452,"Delta":359228245},{"NoteNumber":51,"Velocity":36,"Duration":153452,"SoundDuration":153452,"Delta":359228245},{"NoteNumber":67,"Velocity":59,"Duration":76726,"SoundDuration":76726,"Delta":359381698},{"NoteNumber":60,"Velocity":52,"Duration":589680,"SoundDuration":589680,"Delta":359535151},{"NoteNumber":68,"Velocity":59,"Duration":73710,"SoundDuration":73710,"Delta":359535151},{"NoteNumber":56,"Velocity":39,"Duration":589680,"SoundDuration":589680,"Delta":359535151},{"NoteNumber":51,"Velocity":33,"Duration":589680,"SoundDuration":589680,"Delta":359535151},{"NoteNumber":72,"Velocity":59,"Duration":73710,"SoundDuration":73710,"Delta":359682571},{"NoteNumber":70,"Velocity":64,"Duration":73710,"SoundDuration":73710,"Delta":359829991},{"NoteNumber":68,"Velocity":55,"Duration":73710,"SoundDuration":73710,"Delta":359977412},{"NoteNumber":62,"Velocity":50,"Duration":155038,"SoundDuration":155038,"Delta":360124832},{"NoteNumber":67,"Velocity":56,"Duration":77519,"SoundDuration":77519,"Delta":360124832},{"NoteNumber":59,"Velocity":43,"Duration":155038,"SoundDuration":155038,"Delta":360124832},{"NoteNumber":51,"Velocity":33,"Duration":155038,"SoundDuration":155038,"Delta":360124832},{"NoteNumber":65,"Velocity":57,"Duration":77519,"SoundDuration":77519,"Delta":360279871},{"NoteNumber":67,"Velocity":63,"Duration":84506,"SoundDuration":84506,"Delta":360434909},{"NoteNumber":63,"Velocity":53,"Duration":84506,"SoundDuration":84506,"Delta":360434909},{"NoteNumber":58,"Velocity":51,"Duration":84506,"SoundDuration":84506,"Delta":360434909},{"NoteNumber":51,"Velocity":51,"Duration":84506,"SoundDuration":84506,"Delta":360434909},{"NoteNumber":58,"Velocity":46,"Duration":576675,"SoundDuration":576675,"Delta":360772937},{"NoteNumber":63,"Velocity":52,"Duration":576675,"SoundDuration":576675,"Delta":360772937},{"NoteNumber":55,"Velocity":39,"Duration":513517,"SoundDuration":513517,"Delta":360772937},{"NoteNumber":51,"Velocity":33,"Duration":513517,"SoundDuration":513517,"Delta":360772937},{"NoteNumber":62,"Velocity":46,"Duration":31578,"SoundDuration":31578,"Delta":361318034},{"NoteNumber":54,"Velocity":37,"Duration":31578,"SoundDuration":31578,"Delta":361318034},{"NoteNumber":58,"Velocity":53,"Duration":150375,"SoundDuration":150375,"Delta":361349613},{"NoteNumber":63,"Velocity":63,"Duration":150375,"SoundDuration":150375,"Delta":361349613},{"NoteNumber":55,"Velocity":43,"Duration":150375,"SoundDuration":150375,"Delta":361349613},{"NoteNumber":51,"Velocity":40,"Duration":150375,"SoundDuration":150375,"Delta":361349613},{"NoteNumber":65,"Velocity":53,"Duration":73710,"SoundDuration":73710,"Delta":361650365},{"NoteNumber":77,"Velocity":63,"Duration":73710,"SoundDuration":73710,"Delta":361650365},{"NoteNumber":39,"Velocity":43,"Duration":147420,"SoundDuration":147420,"Delta":361650365},{"NoteNumber":67,"Velocity":50,"Duration":73710,"SoundDuration":73710,"Delta":361797786},{"NoteNumber":79,"Velocity":59,"Duration":73710,"SoundDuration":73710,"Delta":361797786},{"NoteNumber":68,"Velocity":50,"Duration":73710,"SoundDuration":73710,"Delta":361945206},{"NoteNumber":80,"Velocity":59,"Duration":73710,"SoundDuration":73710,"Delta":361945206},{"NoteNumber":56,"Velocity":39,"Duration":589680,"SoundDuration":589680,"Delta":361945206},{"NoteNumber":50,"Velocity":33,"Duration":589680,"SoundDuration":589680,"Delta":361945206},{"NoteNumber":46,"Velocity":33,"Duration":589680,"SoundDuration":589680,"Delta":361945206},{"NoteNumber":72,"Velocity":50,"Duration":73710,"SoundDuration":73710,"Delta":362092626},{"NoteNumber":84,"Velocity":59,"Duration":73710,"SoundDuration":73710,"Delta":362092626},{"NoteNumber":70,"Velocity":54,"Duration":73710,"SoundDuration":73710,"Delta":362240046},{"NoteNumber":82,"Velocity":64,"Duration":73710,"SoundDuration":73710,"Delta":362240046},{"NoteNumber":68,"Velocity":46,"Duration":73710,"SoundDuration":73710,"Delta":362387467},{"NoteNumber":80,"Velocity":55,"Duration":73710,"SoundDuration":73710,"Delta":362387467},{"NoteNumber":67,"Velocity":47,"Duration":73710,"SoundDuration":73710,"Delta":362534887},{"NoteNumber":79,"Velocity":56,"Duration":73710,"SoundDuration":73710,"Delta":362534887},{"NoteNumber":56,"Velocity":39,"Duration":147420,"SoundDuration":147420,"Delta":362534887},{"NoteNumber":50,"Velocity":33,"Duration":147420,"SoundDuration":147420,"Delta":362534887},{"NoteNumber":46,"Velocity":33,"Duration":147420,"SoundDuration":147420,"Delta":362534887},{"NoteNumber":65,"Velocity":48,"Duration":73710,"SoundDuration":73710,"Delta":362682307},{"NoteNumber":77,"Velocity":57,"Duration":73710,"SoundDuration":73710,"Delta":362682307},{"NoteNumber":82,"Velocity":63,"Duration":70921,"SoundDuration":70921,"Delta":362829727},{"NoteNumber":70,"Velocity":53,"Duration":70921,"SoundDuration":70921,"Delta":362829727},{"NoteNumber":39,"Velocity":51,"Duration":70921,"SoundDuration":70921,"Delta":362829727},{"NoteNumber":84,"Velocity":57,"Duration":35460,"SoundDuration":35460,"Delta":363077954},{"NoteNumber":70,"Velocity":53,"Duration":75188,"SoundDuration":75188,"Delta":363113415},{"NoteNumber":82,"Velocity":63,"Duration":75188,"SoundDuration":75188,"Delta":363113415},{"NoteNumber":55,"Velocity":33,"Duration":589908,"SoundDuration":589908,"Delta":363113415},{"NoteNumber":58,"Velocity":39,"Duration":589908,"SoundDuration":589908,"Delta":363113415},{"NoteNumber":49,"Velocity":33,"Duration":589908,"SoundDuration":589908,"Delta":363113415},{"NoteNumber":69,"Velocity":47,"Duration":75187,"SoundDuration":75187,"Delta":363338979},{"NoteNumber":81,"Velocity":56,"Duration":75187,"SoundDuration":75187,"Delta":363338979},{"NoteNumber":70,"Velocity":52,"Duration":612606,"SoundDuration":612606,"Delta":363414167},{"NoteNumber":82,"Velocity":62,"Duration":612606,"SoundDuration":612606,"Delta":363414167},{"NoteNumber":55,"Velocity":40,"Duration":161724,"SoundDuration":161724,"Delta":363703324},{"NoteNumber":58,"Velocity":43,"Duration":161724,"SoundDuration":161724,"Delta":363703324},{"NoteNumber":49,"Velocity":40,"Duration":161724,"SoundDuration":161724,"Delta":363703324},{"NoteNumber":65,"Velocity":53,"Duration":76726,"SoundDuration":76726,"Delta":364026774},{"NoteNumber":77,"Velocity":63,"Duration":76726,"SoundDuration":76726,"Delta":364026774},{"NoteNumber":39,"Velocity":43,"Duration":153452,"SoundDuration":153452,"Delta":364026774},{"NoteNumber":67,"Velocity":50,"Duration":76726,"SoundDuration":76726,"Delta":364180227},{"NoteNumber":79,"Velocity":59,"Duration":76726,"SoundDuration":76726,"Delta":364180227},{"NoteNumber":68,"Velocity":50,"Duration":73710,"SoundDuration":73710,"Delta":364333679},{"NoteNumber":80,"Velocity":59,"Duration":73710,"SoundDuration":73710,"Delta":364333679},{"NoteNumber":48,"Velocity":33,"Duration":589680,"SoundDuration":589680,"Delta":364333679},{"NoteNumber":56,"Velocity":39,"Duration":589680,"SoundDuration":589680,"Delta":364333679},{"NoteNumber":51,"Velocity":33,"Duration":589680,"SoundDuration":589680,"Delta":364333679},{"NoteNumber":72,"Velocity":50,"Duration":73710,"SoundDuration":73710,"Delta":364481100},{"NoteNumber":84,"Velocity":59,"Duration":73710,"SoundDuration":73710,"Delta":364481100},{"NoteNumber":70,"Velocity":54,"Duration":73710,"SoundDuration":73710,"Delta":364628520},{"NoteNumber":82,"Velocity":64,"Duration":73710,"SoundDuration":73710,"Delta":364628520},{"NoteNumber":68,"Velocity":46,"Duration":73710,"SoundDuration":73710,"Delta":364775940},{"NoteNumber":80,"Velocity":55,"Duration":73710,"SoundDuration":73710,"Delta":364775940},{"NoteNumber":67,"Velocity":47,"Duration":77519,"SoundDuration":77519,"Delta":364923360},{"NoteNumber":79,"Velocity":56,"Duration":77519,"SoundDuration":77519,"Delta":364923360},{"NoteNumber":47,"Velocity":33,"Duration":155038,"SoundDuration":155038,"Delta":364923360},{"NoteNumber":56,"Velocity":43,"Duration":155038,"SoundDuration":155038,"Delta":364923360},{"NoteNumber":51,"Velocity":33,"Duration":155038,"SoundDuration":155038,"Delta":364923360},{"NoteNumber":65,"Velocity":48,"Duration":77519,"SoundDuration":77519,"Delta":365078399},{"NoteNumber":77,"Velocity":57,"Duration":77519,"SoundDuration":77519,"Delta":365078399},{"NoteNumber":79,"Velocity":63,"Duration":84506,"SoundDuration":84506,"Delta":365233438},{"NoteNumber":67,"Velocity":53,"Duration":84506,"SoundDuration":84506,"Delta":365233438},{"NoteNumber":39,"Velocity":51,"Duration":84506,"SoundDuration":84506,"Delta":365233438},{"NoteNumber":63,"Velocity":46,"Duration":576675,"SoundDuration":576675,"Delta":365571466},{"NoteNumber":75,"Velocity":52,"Duration":576675,"SoundDuration":576675,"Delta":365571466},{"NoteNumber":55,"Velocity":39,"Duration":576675,"SoundDuration":576675,"Delta":365571466},{"NoteNumber":46,"Velocity":33,"Duration":576675,"SoundDuration":576675,"Delta":365571466},{"NoteNumber":74,"Velocity":46,"Duration":31578,"SoundDuration":31578,"Delta":366116563},{"NoteNumber":63,"Velocity":53,"Duration":161724,"SoundDuration":161724,"Delta":366148142},{"NoteNumber":75,"Velocity":63,"Duration":161724,"SoundDuration":161724,"Delta":366148142},{"NoteNumber":55,"Velocity":43,"Duration":161724,"SoundDuration":161724,"Delta":366148142},{"NoteNumber":46,"Velocity":40,"Duration":161724,"SoundDuration":161724,"Delta":366148142},{"NoteNumber":66,"Velocity":36,"Duration":31847,"SoundDuration":31847,"Delta":366422576},{"NoteNumber":67,"Velocity":50,"Duration":84506,"SoundDuration":84506,"Delta":366454423},{"NoteNumber":59,"Velocity":42,"Duration":84506,"SoundDuration":84506,"Delta":366454423},{"NoteNumber":43,"Velocity":32,"Duration":84506,"SoundDuration":84506,"Delta":366454423},{"NoteNumber":50,"Velocity":40,"Duration":84506,"SoundDuration":84506,"Delta":366454423},{"NoteNumber":60,"Velocity":36,"Duration":576675,"SoundDuration":576675,"Delta":366792451},{"NoteNumber":63,"Velocity":41,"Duration":576675,"SoundDuration":576675,"Delta":366792451},{"NoteNumber":55,"Velocity":31,"Duration":576675,"SoundDuration":576675,"Delta":366792451},{"NoteNumber":48,"Velocity":26,"Duration":576675,"SoundDuration":576675,"Delta":366792451},{"NoteNumber":62,"Velocity":36,"Duration":31578,"SoundDuration":31578,"Delta":367337548},{"NoteNumber":59,"Velocity":42,"Duration":150375,"SoundDuration":150375,"Delta":367369127},{"NoteNumber":63,"Velocity":50,"Duration":150375,"SoundDuration":150375,"Delta":367369127},{"NoteNumber":51,"Velocity":34,"Duration":150375,"SoundDuration":150375,"Delta":367369127},{"NoteNumber":44,"Velocity":32,"Duration":150375,"SoundDuration":150375,"Delta":367369127},{"NoteNumber":91,"Velocity":50,"Duration":84506,"SoundDuration":84506,"Delta":367669879},{"NoteNumber":79,"Velocity":42,"Duration":84506,"SoundDuration":84506,"Delta":367669879},{"NoteNumber":39,"Velocity":40,"Duration":84506,"SoundDuration":84506,"Delta":367669879},{"NoteNumber":75,"Velocity":36,"Duration":576675,"SoundDuration":576675,"Delta":368007907},{"NoteNumber":87,"Velocity":41,"Duration":576675,"SoundDuration":576675,"Delta":368007907},{"NoteNumber":55,"Velocity":31,"Duration":576675,"SoundDuration":576675,"Delta":368007907},{"NoteNumber":46,"Velocity":26,"Duration":576675,"SoundDuration":576675,"Delta":368007907},{"NoteNumber":86,"Velocity":36,"Duration":31578,"SoundDuration":31578,"Delta":368553004},{"NoteNumber":75,"Velocity":42,"Duration":161724,"SoundDuration":161724,"Delta":368584583},{"NoteNumber":87,"Velocity":50,"Duration":161724,"SoundDuration":161724,"Delta":368584583},{"NoteNumber":55,"Velocity":34,"Duration":161724,"SoundDuration":161724,"Delta":368584583},{"NoteNumber":46,"Velocity":32,"Duration":161724,"SoundDuration":161724,"Delta":368584583},{"NoteNumber":66,"Velocity":36,"Duration":31847,"SoundDuration":31847,"Delta":368859018},{"NoteNumber":67,"Velocity":50,"Duration":84506,"SoundDuration":84506,"Delta":368890865},{"NoteNumber":59,"Velocity":42,"Duration":84506,"SoundDuration":84506,"Delta":368890865},{"NoteNumber":43,"Velocity":32,"Duration":84506,"SoundDuration":84506,"Delta":368890865},{"NoteNumber":50,"Velocity":40,"Duration":84506,"SoundDuration":84506,"Delta":368890865},{"NoteNumber":60,"Velocity":36,"Duration":576675,"SoundDuration":576675,"Delta":369228893},{"NoteNumber":63,"Velocity":41,"Duration":576675,"SoundDuration":576675,"Delta":369228893},{"NoteNumber":55,"Velocity":31,"Duration":576675,"SoundDuration":576675,"Delta":369228893},{"NoteNumber":48,"Velocity":26,"Duration":576675,"SoundDuration":576675,"Delta":369228893},{"NoteNumber":62,"Velocity":36,"Duration":31578,"SoundDuration":31578,"Delta":369773990},{"NoteNumber":59,"Velocity":42,"Duration":156657,"SoundDuration":156657,"Delta":369805569},{"NoteNumber":63,"Velocity":50,"Duration":156657,"SoundDuration":156657,"Delta":369805569},{"NoteNumber":51,"Velocity":34,"Duration":156657,"SoundDuration":156657,"Delta":369805569},{"NoteNumber":44,"Velocity":32,"Duration":156657,"SoundDuration":156657,"Delta":369805569},{"NoteNumber":55,"Velocity":42,"Duration":90634,"SoundDuration":90634,"Delta":370118885},{"NoteNumber":67,"Velocity":50,"Duration":90634,"SoundDuration":90634,"Delta":370118885},{"NoteNumber":58,"Velocity":42,"Duration":90634,"SoundDuration":90634,"Delta":370118885},{"NoteNumber":39,"Velocity":32,"Duration":90634,"SoundDuration":90634,"Delta":370118885},{"NoteNumber":51,"Velocity":40,"Duration":90634,"SoundDuration":90634,"Delta":370118885},{"NoteNumber":55,"Velocity":36,"Duration":612171,"SoundDuration":612171,"Delta":370481423},{"NoteNumber":60,"Velocity":36,"Duration":612171,"SoundDuration":612171,"Delta":370481423},{"NoteNumber":63,"Velocity":41,"Duration":612171,"SoundDuration":612171,"Delta":370481423},{"NoteNumber":48,"Velocity":31,"Duration":612171,"SoundDuration":612171,"Delta":370481423},{"NoteNumber":36,"Velocity":26,"Duration":612171,"SoundDuration":612171,"Delta":370481423},{"NoteNumber":62,"Velocity":36,"Duration":31578,"SoundDuration":31578,"Delta":371062016},{"NoteNumber":56,"Velocity":42,"Duration":158311,"SoundDuration":158311,"Delta":371093595},{"NoteNumber":59,"Velocity":42,"Duration":158311,"SoundDuration":158311,"Delta":371093595},{"NoteNumber":63,"Velocity":50,"Duration":158311,"SoundDuration":158311,"Delta":371093595},{"NoteNumber":44,"Velocity":34,"Duration":158311,"SoundDuration":158311,"Delta":371093595},{"NoteNumber":32,"Velocity":32,"Duration":158311,"SoundDuration":158311,"Delta":371093595},{"NoteNumber":55,"Velocity":42,"Duration":90634,"SoundDuration":90634,"Delta":371410217},{"NoteNumber":67,"Velocity":50,"Duration":90634,"SoundDuration":90634,"Delta":371410217},{"NoteNumber":58,"Velocity":42,"Duration":90634,"SoundDuration":90634,"Delta":371410217},{"NoteNumber":39,"Velocity":32,"Duration":90634,"SoundDuration":90634,"Delta":371410217},{"NoteNumber":51,"Velocity":40,"Duration":90634,"SoundDuration":90634,"Delta":371410217},{"NoteNumber":55,"Velocity":36,"Duration":608721,"SoundDuration":608721,"Delta":371772755},{"NoteNumber":60,"Velocity":36,"Duration":608721,"SoundDuration":608721,"Delta":371772755},{"NoteNumber":63,"Velocity":41,"Duration":608721,"SoundDuration":608721,"Delta":371772755},{"NoteNumber":48,"Velocity":31,"Duration":608721,"SoundDuration":608721,"Delta":371772755},{"NoteNumber":36,"Velocity":26,"Duration":608721,"SoundDuration":608721,"Delta":371772755},{"NoteNumber":62,"Velocity":36,"Duration":31578,"SoundDuration":31578,"Delta":372349898},{"NoteNumber":56,"Velocity":42,"Duration":176991,"SoundDuration":176991,"Delta":372381477},{"NoteNumber":59,"Velocity":42,"Duration":176991,"SoundDuration":176991,"Delta":372381477},{"NoteNumber":63,"Velocity":50,"Duration":176991,"SoundDuration":176991,"Delta":372381477},{"NoteNumber":44,"Velocity":34,"Duration":176991,"SoundDuration":176991,"Delta":372381477},{"NoteNumber":32,"Velocity":32,"Duration":176991,"SoundDuration":176991,"Delta":372381477},{"NoteNumber":55,"Velocity":39,"Duration":676056,"SoundDuration":676056,"Delta":372735460},{"NoteNumber":67,"Velocity":46,"Duration":676056,"SoundDuration":676056,"Delta":372735460},{"NoteNumber":58,"Velocity":39,"Duration":676056,"SoundDuration":676056,"Delta":372735460},{"NoteNumber":39,"Velocity":33,"Duration":676056,"SoundDuration":676056,"Delta":372735460},{"NoteNumber":51,"Velocity":39,"Duration":676056,"SoundDuration":676056,"Delta":372735460},{"NoteNumber":55,"Velocity":33,"Duration":676055,"SoundDuration":676055,"Delta":373411516},{"NoteNumber":60,"Velocity":33,"Duration":676055,"SoundDuration":676055,"Delta":373411516},{"NoteNumber":63,"Velocity":39,"Duration":676055,"SoundDuration":676055,"Delta":373411516},{"NoteNumber":36,"Velocity":22,"Duration":676055,"SoundDuration":676055,"Delta":373411516},{"NoteNumber":48,"Velocity":31,"Duration":676055,"SoundDuration":676055,"Delta":373411516},{"NoteNumber":62,"Velocity":36,"Duration":33557,"SoundDuration":33557,"Delta":374712678},{"NoteNumber":56,"Velocity":33,"Duration":591548,"SoundDuration":591548,"Delta":374746235},{"NoteNumber":59,"Velocity":33,"Duration":591548,"SoundDuration":591548,"Delta":374746235},{"NoteNumber":63,"Velocity":39,"Duration":591548,"SoundDuration":591548,"Delta":374746235},{"NoteNumber":32,"Velocity":22,"Duration":676056,"SoundDuration":676056,"Delta":374746235},{"NoteNumber":44,"Velocity":31,"Duration":676056,"SoundDuration":676056,"Delta":374746235},{"NoteNumber":55,"Velocity":37,"Duration":1302222,"SoundDuration":1302222,"Delta":375337784},{"NoteNumber":63,"Velocity":39,"Duration":1259968,"SoundDuration":1259968,"Delta":375380037},{"NoteNumber":70,"Velocity":40,"Duration":1217715,"SoundDuration":1217715,"Delta":375422291},{"NoteNumber":27,"Velocity":22,"Duration":639402,"SoundDuration":639402,"Delta":375422291},{"NoteNumber":39,"Velocity":31,"Duration":338028,"SoundDuration":338028,"Delta":375422291},{"NoteNumber":43,"Velocity":31,"Duration":156796,"SoundDuration":156796,"Delta":375760319},{"NoteNumber":44,"Velocity":30,"Duration":144578,"SoundDuration":144578,"Delta":375917115},{"NoteNumber":45,"Velocity":30,"Duration":144578,"SoundDuration":144578,"Delta":376061693},{"NoteNumber":46,"Velocity":30,"Duration":144578,"SoundDuration":144578,"Delta":376206271},{"NoteNumber":51,"Velocity":30,"Duration":144578,"SoundDuration":144578,"Delta":376350850},{"NoteNumber":55,"Velocity":30,"Duration":144578,"SoundDuration":144578,"Delta":376495428},{"NoteNumber":56,"Velocity":30,"Duration":143382,"SoundDuration":143382,"Delta":376640006},{"NoteNumber":57,"Velocity":30,"Duration":142475,"SoundDuration":142475,"Delta":376783388},{"NoteNumber":58,"Velocity":30,"Duration":141578,"SoundDuration":141578,"Delta":376925864},{"NoteNumber":63,"Velocity":28,"Duration":140515,"SoundDuration":140515,"Delta":377067442},{"NoteNumber":67,"Velocity":28,"Duration":139211,"SoundDuration":139211,"Delta":377207958},{"NoteNumber":68,"Velocity":27,"Duration":138357,"SoundDuration":138357,"Delta":377347169},{"NoteNumber":69,"Velocity":26,"Duration":137512,"SoundDuration":137512,"Delta":377485527},{"NoteNumber":70,"Velocity":25,"Duration":136509,"SoundDuration":136509,"Delta":377623039},{"NoteNumber":75,"Velocity":27,"Duration":135440,"SoundDuration":135440,"Delta":377759548},{"NoteNumber":79,"Velocity":27,"Duration":135440,"SoundDuration":135440,"Delta":377894989},{"NoteNumber":80,"Velocity":27,"Duration":135440,"SoundDuration":135440,"Delta":378030429},{"NoteNumber":81,"Velocity":27,"Duration":135604,"SoundDuration":135604,"Delta":378165869},{"NoteNumber":82,"Velocity":27,"Duration":137093,"SoundDuration":137093,"Delta":378301474},{"NoteNumber":87,"Velocity":27,"Duration":138613,"SoundDuration":138613,"Delta":378438567},{"NoteNumber":91,"Velocity":27,"Duration":140167,"SoundDuration":140167,"Delta":378577181},{"NoteNumber":92,"Velocity":27,"Duration":142116,"SoundDuration":142116,"Delta":378717348},{"NoteNumber":93,"Velocity":27,"Duration":143842,"SoundDuration":143842,"Delta":378859465},{"NoteNumber":94,"Velocity":27,"Duration":145516,"SoundDuration":145516,"Delta":379003307},{"NoteNumber":99,"Velocity":33,"Duration":147326,"SoundDuration":147326,"Delta":379148823},{"NoteNumber":70,"Velocity":81,"Duration":257569,"SoundDuration":257569,"Delta":381250142},{"NoteNumber":82,"Velocity":96,"Duration":257569,"SoundDuration":257569,"Delta":381250142},{"NoteNumber":46,"Velocity":61,"Duration":257569,"SoundDuration":257569,"Delta":381250142},{"NoteNumber":58,"Velocity":72,"Duration":257569,"SoundDuration":257569,"Delta":381250142},{"NoteNumber":70,"Velocity":77,"Duration":62171,"SoundDuration":62171,"Delta":381593568},{"NoteNumber":82,"Velocity":91,"Duration":62171,"SoundDuration":62171,"Delta":381593568},{"NoteNumber":46,"Velocity":57,"Duration":62171,"SoundDuration":62171,"Delta":381593568},{"NoteNumber":58,"Velocity":68,"Duration":62171,"SoundDuration":62171,"Delta":381593568},{"NoteNumber":70,"Velocity":77,"Duration":62171,"SoundDuration":62171,"Delta":381759360},{"NoteNumber":82,"Velocity":91,"Duration":62171,"SoundDuration":62171,"Delta":381759360},{"NoteNumber":46,"Velocity":57,"Duration":62171,"SoundDuration":62171,"Delta":381759360},{"NoteNumber":58,"Velocity":68,"Duration":62171,"SoundDuration":62171,"Delta":381759360},{"NoteNumber":75,"Velocity":85,"Duration":527704,"SoundDuration":527704,"Delta":381925151},{"NoteNumber":87,"Velocity":101,"Duration":527704,"SoundDuration":527704,"Delta":381925151},{"NoteNumber":51,"Velocity":63,"Duration":527704,"SoundDuration":527704,"Delta":381925151},{"NoteNumber":63,"Velocity":75,"Duration":527704,"SoundDuration":527704,"Delta":381925151},{"NoteNumber":75,"Velocity":74,"Duration":65963,"SoundDuration":65963,"Delta":382452856},{"NoteNumber":87,"Velocity":89,"Duration":65963,"SoundDuration":65963,"Delta":382452856},{"NoteNumber":51,"Velocity":55,"Duration":65963,"SoundDuration":65963,"Delta":382452856},{"NoteNumber":63,"Velocity":66,"Duration":65963,"SoundDuration":65963,"Delta":382452856},{"NoteNumber":73,"Velocity":79,"Duration":60435,"SoundDuration":60435,"Delta":382628757},{"NoteNumber":85,"Velocity":93,"Duration":60435,"SoundDuration":60435,"Delta":382628757},{"NoteNumber":49,"Velocity":58,"Duration":60435,"SoundDuration":60435,"Delta":382628757},{"NoteNumber":61,"Velocity":69,"Duration":60435,"SoundDuration":60435,"Delta":382628757},{"NoteNumber":71,"Velocity":79,"Duration":60435,"SoundDuration":60435,"Delta":382789918},{"NoteNumber":83,"Velocity":93,"Duration":60435,"SoundDuration":60435,"Delta":382789918},{"NoteNumber":47,"Velocity":58,"Duration":60435,"SoundDuration":60435,"Delta":382789918},{"NoteNumber":59,"Velocity":69,"Duration":60435,"SoundDuration":60435,"Delta":382789918},{"NoteNumber":70,"Velocity":78,"Duration":62894,"SoundDuration":62894,"Delta":382951078},{"NoteNumber":82,"Velocity":92,"Duration":62894,"SoundDuration":62894,"Delta":382951078},{"NoteNumber":46,"Velocity":57,"Duration":62894,"SoundDuration":62894,"Delta":382951078},{"NoteNumber":58,"Velocity":68,"Duration":62894,"SoundDuration":62894,"Delta":382951078},{"NoteNumber":68,"Velocity":81,"Duration":62894,"SoundDuration":62894,"Delta":383118798},{"NoteNumber":80,"Velocity":96,"Duration":62894,"SoundDuration":62894,"Delta":383118798},{"NoteNumber":44,"Velocity":61,"Duration":62894,"SoundDuration":62894,"Delta":383118798},{"NoteNumber":56,"Velocity":72,"Duration":62894,"SoundDuration":62894,"Delta":383118798},{"NoteNumber":70,"Velocity":80,"Duration":65963,"SoundDuration":65963,"Delta":383286517},{"NoteNumber":82,"Velocity":94,"Duration":65963,"SoundDuration":65963,"Delta":383286517},{"NoteNumber":46,"Velocity":60,"Duration":65963,"SoundDuration":65963,"Delta":383286517},{"NoteNumber":58,"Velocity":70,"Duration":65963,"SoundDuration":65963,"Delta":383286517},{"NoteNumber":63,"Velocity":75,"Duration":65963,"SoundDuration":65963,"Delta":383462419},{"NoteNumber":75,"Velocity":90,"Duration":65963,"SoundDuration":65963,"Delta":383462419},{"NoteNumber":39,"Velocity":56,"Duration":65963,"SoundDuration":65963,"Delta":383462419},{"NoteNumber":51,"Velocity":67,"Duration":65963,"SoundDuration":65963,"Delta":383462419},{"NoteNumber":63,"Velocity":75,"Duration":395178,"SoundDuration":395178,"Delta":383638320},{"NoteNumber":75,"Velocity":90,"Duration":395178,"SoundDuration":395178,"Delta":383638320},{"NoteNumber":39,"Velocity":56,"Duration":395178,"SoundDuration":395178,"Delta":383638320},{"NoteNumber":51,"Velocity":67,"Duration":395178,"SoundDuration":395178,"Delta":383638320},{"NoteNumber":67,"Velocity":57,"Duration":262253,"SoundDuration":262253,"Delta":384033499},{"NoteNumber":70,"Velocity":68,"Duration":262253,"SoundDuration":262253,"Delta":384033499},{"NoteNumber":63,"Velocity":51,"Duration":262253,"SoundDuration":262253,"Delta":384033499},{"NoteNumber":67,"Velocity":54,"Duration":62171,"SoundDuration":62171,"Delta":384383170},{"NoteNumber":70,"Velocity":64,"Duration":62171,"SoundDuration":62171,"Delta":384383170},{"NoteNumber":61,"Velocity":40,"Duration":62171,"SoundDuration":62171,"Delta":384383170},{"NoteNumber":63,"Velocity":48,"Duration":62171,"SoundDuration":62171,"Delta":384385933},{"NoteNumber":70,"Velocity":64,"Duration":62171,"SoundDuration":62171,"Delta":384548962},{"NoteNumber":67,"Velocity":54,"Duration":62171,"SoundDuration":62171,"Delta":384548962},{"NoteNumber":61,"Velocity":40,"Duration":62171,"SoundDuration":62171,"Delta":384548962},{"NoteNumber":63,"Velocity":48,"Duration":62171,"SoundDuration":62171,"Delta":384548962},{"NoteNumber":66,"Velocity":60,"Duration":521345,"SoundDuration":521345,"Delta":384714753},{"NoteNumber":75,"Velocity":71,"Duration":521345,"SoundDuration":521345,"Delta":384714753},{"NoteNumber":59,"Velocity":45,"Duration":521345,"SoundDuration":521345,"Delta":384714753},{"NoteNumber":63,"Velocity":53,"Duration":521345,"SoundDuration":521345,"Delta":384714753},{"NoteNumber":75,"Velocity":62,"Duration":65168,"SoundDuration":65168,"Delta":385236099},{"NoteNumber":66,"Velocity":52,"Duration":65168,"SoundDuration":65168,"Delta":385236099},{"NoteNumber":59,"Velocity":39,"Duration":65168,"SoundDuration":65168,"Delta":385236099},{"NoteNumber":63,"Velocity":46,"Duration":65168,"SoundDuration":65168,"Delta":385236099},{"NoteNumber":67,"Velocity":56,"Duration":161160,"SoundDuration":161160,"Delta":385409881},{"NoteNumber":73,"Velocity":66,"Duration":60435,"SoundDuration":60435,"Delta":385409881},{"NoteNumber":63,"Velocity":55,"Duration":161160,"SoundDuration":161160,"Delta":385409881},{"NoteNumber":58,"Velocity":49,"Duration":60435,"SoundDuration":60435,"Delta":385409881},{"NoteNumber":70,"Velocity":66,"Duration":60435,"SoundDuration":60435,"Delta":385571042},{"NoteNumber":61,"Velocity":49,"Duration":60435,"SoundDuration":60435,"Delta":385571042},{"NoteNumber":63,"Velocity":55,"Duration":167719,"SoundDuration":167719,"Delta":385732202},{"NoteNumber":71,"Velocity":65,"Duration":62894,"SoundDuration":62894,"Delta":385732202},{"NoteNumber":56,"Velocity":48,"Duration":62894,"SoundDuration":62894,"Delta":385732202},{"NoteNumber":68,"Velocity":68,"Duration":63634,"SoundDuration":63634,"Delta":385899922},{"NoteNumber":59,"Velocity":51,"Duration":63634,"SoundDuration":63634,"Delta":385899922},{"NoteNumber":63,"Velocity":56,"Duration":175505,"SoundDuration":175505,"Delta":386069615},{"NoteNumber":70,"Velocity":67,"Duration":66367,"SoundDuration":66367,"Delta":386069615},{"NoteNumber":55,"Velocity":50,"Duration":66367,"SoundDuration":66367,"Delta":386069615},{"NoteNumber":63,"Velocity":63,"Duration":66367,"SoundDuration":66367,"Delta":386246595},{"NoteNumber":58,"Velocity":47,"Duration":66367,"SoundDuration":66367,"Delta":386246595},{"NoteNumber":63,"Velocity":57,"Duration":392490,"SoundDuration":392490,"Delta":386423576},{"NoteNumber":67,"Velocity":57,"Duration":260672,"SoundDuration":260672,"Delta":386816066},{"NoteNumber":70,"Velocity":68,"Duration":260672,"SoundDuration":260672,"Delta":386816066},{"NoteNumber":63,"Velocity":51,"Duration":260672,"SoundDuration":260672,"Delta":386816066},{"NoteNumber":67,"Velocity":54,"Duration":62171,"SoundDuration":62171,"Delta":387163630},{"NoteNumber":70,"Velocity":64,"Duration":62171,"SoundDuration":62171,"Delta":387163630},{"NoteNumber":61,"Velocity":40,"Duration":62171,"SoundDuration":62171,"Delta":387163630},{"NoteNumber":63,"Velocity":48,"Duration":62171,"SoundDuration":62171,"Delta":387166393},{"NoteNumber":70,"Velocity":64,"Duration":62171,"SoundDuration":62171,"Delta":387329421},{"NoteNumber":67,"Velocity":54,"Duration":62171,"SoundDuration":62171,"Delta":387329421},{"NoteNumber":61,"Velocity":40,"Duration":62171,"SoundDuration":62171,"Delta":387329421},{"NoteNumber":63,"Velocity":48,"Duration":62171,"SoundDuration":62171,"Delta":387329421},{"NoteNumber":66,"Velocity":60,"Duration":345483,"SoundDuration":345483,"Delta":387495213},{"NoteNumber":75,"Velocity":71,"Duration":518224,"SoundDuration":518224,"Delta":387495213},{"NoteNumber":59,"Velocity":45,"Duration":518224,"SoundDuration":518224,"Delta":387495213},{"NoteNumber":63,"Velocity":53,"Duration":518224,"SoundDuration":518224,"Delta":387495213},{"NoteNumber":67,"Velocity":60,"Duration":172741,"SoundDuration":172741,"Delta":387835657},{"NoteNumber":75,"Velocity":62,"Duration":64778,"SoundDuration":64778,"Delta":388013437},{"NoteNumber":68,"Velocity":52,"Duration":64778,"SoundDuration":64778,"Delta":388013437},{"NoteNumber":59,"Velocity":39,"Duration":64778,"SoundDuration":64778,"Delta":388013437},{"NoteNumber":63,"Velocity":46,"Duration":64778,"SoundDuration":64778,"Delta":388013437},{"NoteNumber":64,"Velocity":56,"Duration":161160,"SoundDuration":161160,"Delta":388186179},{"NoteNumber":68,"Velocity":56,"Duration":161160,"SoundDuration":161160,"Delta":388186179},{"NoteNumber":73,"Velocity":66,"Duration":60435,"SoundDuration":60435,"Delta":388186179},{"NoteNumber":58,"Velocity":49,"Duration":60435,"SoundDuration":60435,"Delta":388186179},{"NoteNumber":71,"Velocity":66,"Duration":60435,"SoundDuration":60435,"Delta":388347339},{"NoteNumber":61,"Velocity":49,"Duration":60435,"SoundDuration":60435,"Delta":388347339},{"NoteNumber":61,"Velocity":55,"Duration":173782,"SoundDuration":173782,"Delta":388508500},{"NoteNumber":67,"Velocity":55,"Duration":173782,"SoundDuration":173782,"Delta":388508500},{"NoteNumber":70,"Velocity":65,"Duration":65168,"SoundDuration":65168,"Delta":388508500},{"NoteNumber":51,"Velocity":48,"Duration":65168,"SoundDuration":65168,"Delta":388508500},{"NoteNumber":63,"Velocity":68,"Duration":65168,"SoundDuration":65168,"Delta":388682282},{"NoteNumber":55,"Velocity":51,"Duration":65168,"SoundDuration":65168,"Delta":388682282},{"NoteNumber":63,"Velocity":58,"Duration":66777,"SoundDuration":66777,"Delta":388856064},{"NoteNumber":68,"Velocity":70,"Duration":66777,"SoundDuration":66777,"Delta":388856064},{"NoteNumber":56,"Velocity":43,"Duration":44518,"SoundDuration":44518,"Delta":388856064},{"NoteNumber":59,"Velocity":52,"Duration":66777,"SoundDuration":66777,"Delta":388856064},{"NoteNumber":63,"Velocity":66,"Duration":66777,"SoundDuration":66777,"Delta":389034137},{"NoteNumber":59,"Velocity":49,"Duration":66777,"SoundDuration":66777,"Delta":389034137},{"NoteNumber":63,"Velocity":60,"Duration":267109,"SoundDuration":267109,"Delta":389212210},{"NoteNumber":68,"Velocity":70,"Duration":267109,"SoundDuration":267109,"Delta":389212210},{"NoteNumber":56,"Velocity":47,"Duration":267109,"SoundDuration":267109,"Delta":389212210},{"NoteNumber":59,"Velocity":56,"Duration":267109,"SoundDuration":267109,"Delta":389212210},{"NoteNumber":70,"Velocity":81,"Duration":257569,"SoundDuration":257569,"Delta":389568356},{"NoteNumber":82,"Velocity":96,"Duration":257569,"SoundDuration":257569,"Delta":389568356},{"NoteNumber":46,"Velocity":61,"Duration":257569,"SoundDuration":257569,"Delta":389568356},{"NoteNumber":58,"Velocity":72,"Duration":257569,"SoundDuration":257569,"Delta":389568356},{"NoteNumber":70,"Velocity":77,"Duration":62171,"SoundDuration":62171,"Delta":389911782},{"NoteNumber":82,"Velocity":91,"Duration":62171,"SoundDuration":62171,"Delta":389911782},{"NoteNumber":46,"Velocity":57,"Duration":62171,"SoundDuration":62171,"Delta":389911782},{"NoteNumber":58,"Velocity":68,"Duration":62171,"SoundDuration":62171,"Delta":389911782},{"NoteNumber":70,"Velocity":77,"Duration":62171,"SoundDuration":62171,"Delta":390077573},{"NoteNumber":82,"Velocity":91,"Duration":62171,"SoundDuration":62171,"Delta":390077573},{"NoteNumber":46,"Velocity":57,"Duration":62171,"SoundDuration":62171,"Delta":390077573},{"NoteNumber":58,"Velocity":68,"Duration":62171,"SoundDuration":62171,"Delta":390077573},{"NoteNumber":75,"Velocity":85,"Duration":527704,"SoundDuration":527704,"Delta":390243365},{"NoteNumber":87,"Velocity":101,"Duration":527704,"SoundDuration":527704,"Delta":390243365},{"NoteNumber":51,"Velocity":63,"Duration":527704,"SoundDuration":527704,"Delta":390243365},{"NoteNumber":63,"Velocity":75,"Duration":527704,"SoundDuration":527704,"Delta":390243365},{"NoteNumber":75,"Velocity":74,"Duration":65963,"SoundDuration":65963,"Delta":390771069},{"NoteNumber":87,"Velocity":89,"Duration":65963,"SoundDuration":65963,"Delta":390771069},{"NoteNumber":51,"Velocity":55,"Duration":65963,"SoundDuration":65963,"Delta":390771069},{"NoteNumber":63,"Velocity":66,"Duration":65963,"SoundDuration":65963,"Delta":390771069},{"NoteNumber":73,"Velocity":79,"Duration":60774,"SoundDuration":60774,"Delta":390946971},{"NoteNumber":85,"Velocity":93,"Duration":60774,"SoundDuration":60774,"Delta":390946971},{"NoteNumber":49,"Velocity":58,"Duration":60774,"SoundDuration":60774,"Delta":390946971},{"NoteNumber":61,"Velocity":69,"Duration":60774,"SoundDuration":60774,"Delta":390946971},{"NoteNumber":71,"Velocity":79,"Duration":60774,"SoundDuration":60774,"Delta":391109037},{"NoteNumber":83,"Velocity":93,"Duration":60774,"SoundDuration":60774,"Delta":391109037},{"NoteNumber":47,"Velocity":58,"Duration":60774,"SoundDuration":60774,"Delta":391109037},{"NoteNumber":59,"Velocity":69,"Duration":60774,"SoundDuration":60774,"Delta":391109037},{"NoteNumber":70,"Velocity":78,"Duration":62894,"SoundDuration":62894,"Delta":391271103},{"NoteNumber":82,"Velocity":92,"Duration":62894,"SoundDuration":62894,"Delta":391271103},{"NoteNumber":46,"Velocity":57,"Duration":62894,"SoundDuration":62894,"Delta":391271103},{"NoteNumber":58,"Velocity":68,"Duration":62894,"SoundDuration":62894,"Delta":391271103},{"NoteNumber":68,"Velocity":81,"Duration":62894,"SoundDuration":62894,"Delta":391438822},{"NoteNumber":80,"Velocity":96,"Duration":62894,"SoundDuration":62894,"Delta":391438822},{"NoteNumber":44,"Velocity":61,"Duration":62894,"SoundDuration":62894,"Delta":391438822},{"NoteNumber":56,"Velocity":72,"Duration":62894,"SoundDuration":62894,"Delta":391438822},{"NoteNumber":70,"Velocity":80,"Duration":66777,"SoundDuration":66777,"Delta":391606542},{"NoteNumber":82,"Velocity":94,"Duration":66777,"SoundDuration":66777,"Delta":391606542},{"NoteNumber":46,"Velocity":60,"Duration":66777,"SoundDuration":66777,"Delta":391606542},{"NoteNumber":58,"Velocity":70,"Duration":66777,"SoundDuration":66777,"Delta":391606542},{"NoteNumber":63,"Velocity":75,"Duration":66777,"SoundDuration":66777,"Delta":391784615},{"NoteNumber":75,"Velocity":90,"Duration":66777,"SoundDuration":66777,"Delta":391784615},{"NoteNumber":39,"Velocity":56,"Duration":66777,"SoundDuration":66777,"Delta":391784615},{"NoteNumber":51,"Velocity":67,"Duration":66777,"SoundDuration":66777,"Delta":391784615},{"NoteNumber":63,"Velocity":75,"Duration":395178,"SoundDuration":395178,"Delta":391962688},{"NoteNumber":75,"Velocity":90,"Duration":395178,"SoundDuration":395178,"Delta":391962688},{"NoteNumber":39,"Velocity":56,"Duration":395178,"SoundDuration":395178,"Delta":391962688},{"NoteNumber":51,"Velocity":67,"Duration":395178,"SoundDuration":395178,"Delta":391962688},{"NoteNumber":67,"Velocity":57,"Duration":262253,"SoundDuration":262253,"Delta":392357867},{"NoteNumber":70,"Velocity":68,"Duration":262253,"SoundDuration":262253,"Delta":392357867},{"NoteNumber":63,"Velocity":51,"Duration":262253,"SoundDuration":262253,"Delta":392357867},{"NoteNumber":67,"Velocity":54,"Duration":62171,"SoundDuration":62171,"Delta":392707538},{"NoteNumber":70,"Velocity":64,"Duration":62171,"SoundDuration":62171,"Delta":392707538},{"NoteNumber":61,"Velocity":40,"Duration":62171,"SoundDuration":62171,"Delta":392707538},{"NoteNumber":63,"Velocity":48,"Duration":62171,"SoundDuration":62171,"Delta":392710301},{"NoteNumber":70,"Velocity":64,"Duration":62171,"SoundDuration":62171,"Delta":392873329},{"NoteNumber":67,"Velocity":54,"Duration":62171,"SoundDuration":62171,"Delta":392873329},{"NoteNumber":61,"Velocity":40,"Duration":62171,"SoundDuration":62171,"Delta":392873329},{"NoteNumber":63,"Velocity":48,"Duration":62171,"SoundDuration":62171,"Delta":392873329},{"NoteNumber":66,"Velocity":60,"Duration":521345,"SoundDuration":521345,"Delta":393039121},{"NoteNumber":75,"Velocity":71,"Duration":521345,"SoundDuration":521345,"Delta":393039121},{"NoteNumber":59,"Velocity":45,"Duration":521345,"SoundDuration":521345,"Delta":393039121},{"NoteNumber":63,"Velocity":53,"Duration":521345,"SoundDuration":521345,"Delta":393039121},{"NoteNumber":75,"Velocity":62,"Duration":65168,"SoundDuration":65168,"Delta":393560467},{"NoteNumber":66,"Velocity":52,"Duration":65168,"SoundDuration":65168,"Delta":393560467},{"NoteNumber":59,"Velocity":39,"Duration":65168,"SoundDuration":65168,"Delta":393560467},{"NoteNumber":63,"Velocity":46,"Duration":65168,"SoundDuration":65168,"Delta":393560467},{"NoteNumber":67,"Velocity":56,"Duration":161160,"SoundDuration":161160,"Delta":393734249},{"NoteNumber":73,"Velocity":66,"Duration":60435,"SoundDuration":60435,"Delta":393734249},{"NoteNumber":63,"Velocity":55,"Duration":161160,"SoundDuration":161160,"Delta":393734249},{"NoteNumber":58,"Velocity":49,"Duration":60435,"SoundDuration":60435,"Delta":393734249},{"NoteNumber":70,"Velocity":66,"Duration":60435,"SoundDuration":60435,"Delta":393895409},{"NoteNumber":61,"Velocity":49,"Duration":60435,"SoundDuration":60435,"Delta":393895409},{"NoteNumber":63,"Velocity":55,"Duration":167719,"SoundDuration":167719,"Delta":394056570},{"NoteNumber":71,"Velocity":65,"Duration":62894,"SoundDuration":62894,"Delta":394056570},{"NoteNumber":56,"Velocity":48,"Duration":62894,"SoundDuration":62894,"Delta":394056570},{"NoteNumber":68,"Velocity":68,"Duration":62894,"SoundDuration":62894,"Delta":394224289},{"NoteNumber":59,"Velocity":51,"Duration":62894,"SoundDuration":62894,"Delta":394224289},{"NoteNumber":63,"Velocity":56,"Duration":174435,"SoundDuration":174435,"Delta":394392009},{"NoteNumber":70,"Velocity":67,"Duration":65963,"SoundDuration":65963,"Delta":394392009},{"NoteNumber":55,"Velocity":50,"Duration":65963,"SoundDuration":65963,"Delta":394392009},{"NoteNumber":63,"Velocity":63,"Duration":65963,"SoundDuration":65963,"Delta":394567910},{"NoteNumber":58,"Velocity":47,"Duration":65963,"SoundDuration":65963,"Delta":394567910},{"NoteNumber":63,"Velocity":57,"Duration":392490,"SoundDuration":392490,"Delta":394743812},{"NoteNumber":67,"Velocity":57,"Duration":260672,"SoundDuration":260672,"Delta":395136302},{"NoteNumber":70,"Velocity":68,"Duration":260672,"SoundDuration":260672,"Delta":395136302},{"NoteNumber":63,"Velocity":51,"Duration":260672,"SoundDuration":260672,"Delta":395136302},{"NoteNumber":67,"Velocity":54,"Duration":60435,"SoundDuration":60435,"Delta":395483866},{"NoteNumber":70,"Velocity":64,"Duration":60435,"SoundDuration":60435,"Delta":395483866},{"NoteNumber":61,"Velocity":40,"Duration":60435,"SoundDuration":60435,"Delta":395483866},{"NoteNumber":63,"Velocity":48,"Duration":60435,"SoundDuration":60435,"Delta":395486552},{"NoteNumber":70,"Velocity":64,"Duration":60435,"SoundDuration":60435,"Delta":395645026},{"NoteNumber":67,"Velocity":54,"Duration":60435,"SoundDuration":60435,"Delta":395645026},{"NoteNumber":61,"Velocity":40,"Duration":60435,"SoundDuration":60435,"Delta":395645026},{"NoteNumber":63,"Velocity":48,"Duration":60435,"SoundDuration":60435,"Delta":395645026},{"NoteNumber":66,"Velocity":60,"Duration":343426,"SoundDuration":343426,"Delta":395806187},{"NoteNumber":75,"Velocity":71,"Duration":520406,"SoundDuration":520406,"Delta":395806187},{"NoteNumber":59,"Velocity":45,"Duration":520406,"SoundDuration":520406,"Delta":395806187},{"NoteNumber":63,"Velocity":53,"Duration":520406,"SoundDuration":520406,"Delta":395806187},{"NoteNumber":67,"Velocity":60,"Duration":176826,"SoundDuration":176826,"Delta":396144604},{"NoteNumber":75,"Velocity":62,"Duration":66367,"SoundDuration":66367,"Delta":396326593},{"NoteNumber":68,"Velocity":52,"Duration":66367,"SoundDuration":66367,"Delta":396326593},{"NoteNumber":59,"Velocity":39,"Duration":66367,"SoundDuration":66367,"Delta":396326593},{"NoteNumber":63,"Velocity":46,"Duration":66367,"SoundDuration":66367,"Delta":396326593},{"NoteNumber":64,"Velocity":56,"Duration":165791,"SoundDuration":165791,"Delta":396503574},{"NoteNumber":68,"Velocity":56,"Duration":165791,"SoundDuration":165791,"Delta":396503574},{"NoteNumber":73,"Velocity":66,"Duration":62171,"SoundDuration":62171,"Delta":396503574},{"NoteNumber":58,"Velocity":49,"Duration":62171,"SoundDuration":62171,"Delta":396503574},{"NoteNumber":71,"Velocity":66,"Duration":62171,"SoundDuration":62171,"Delta":396669365},{"NoteNumber":61,"Velocity":49,"Duration":62171,"SoundDuration":62171,"Delta":396669365},{"NoteNumber":61,"Velocity":55,"Duration":181433,"SoundDuration":181433,"Delta":396835157},{"NoteNumber":67,"Velocity":55,"Duration":181433,"SoundDuration":181433,"Delta":396835157},{"NoteNumber":70,"Velocity":65,"Duration":68037,"SoundDuration":68037,"Delta":396835157},{"NoteNumber":51,"Velocity":48,"Duration":68037,"SoundDuration":68037,"Delta":396835157},{"NoteNumber":63,"Velocity":68,"Duration":68037,"SoundDuration":68037,"Delta":397016590},{"NoteNumber":55,"Velocity":51,"Duration":68037,"SoundDuration":68037,"Delta":397016590},{"NoteNumber":63,"Velocity":58,"Duration":185763,"SoundDuration":185763,"Delta":397198024},{"NoteNumber":68,"Velocity":70,"Duration":70246,"SoundDuration":70246,"Delta":397198024},{"NoteNumber":56,"Velocity":43,"Duration":46831,"SoundDuration":46831,"Delta":397198024},{"NoteNumber":59,"Velocity":52,"Duration":70246,"SoundDuration":70246,"Delta":397198024},{"NoteNumber":63,"Velocity":66,"Duration":70246,"SoundDuration":70246,"Delta":397385348},{"NoteNumber":59,"Velocity":49,"Duration":70246,"SoundDuration":70246,"Delta":397385348},{"NoteNumber":63,"Velocity":60,"Duration":280986,"SoundDuration":280986,"Delta":397572673},{"NoteNumber":68,"Velocity":70,"Duration":280986,"SoundDuration":280986,"Delta":397572673},{"NoteNumber":56,"Velocity":47,"Duration":280986,"SoundDuration":280986,"Delta":397572673},{"NoteNumber":59,"Velocity":56,"Duration":280986,"SoundDuration":280986,"Delta":397572673},{"NoteNumber":63,"Velocity":55,"Duration":91290,"SoundDuration":91290,"Delta":397947322},{"NoteNumber":65,"Velocity":49,"Duration":91290,"SoundDuration":91290,"Delta":398129903},{"NoteNumber":67,"Velocity":48,"Duration":91290,"SoundDuration":91290,"Delta":398312485},{"NoteNumber":68,"Velocity":47,"Duration":91290,"SoundDuration":91290,"Delta":398495066},{"NoteNumber":39,"Velocity":33,"Duration":378145,"SoundDuration":378145,"Delta":398654825},{"NoteNumber":61,"Velocity":51,"Duration":182581,"SoundDuration":182581,"Delta":398677648},{"NoteNumber":63,"Velocity":51,"Duration":182581,"SoundDuration":182581,"Delta":398677648},{"NoteNumber":70,"Velocity":60,"Duration":182581,"SoundDuration":182581,"Delta":398677648},{"NoteNumber":55,"Velocity":41,"Duration":91290,"SoundDuration":91290,"Delta":398677648},{"NoteNumber":51,"Velocity":37,"Duration":86370,"SoundDuration":86370,"Delta":398860229},{"NoteNumber":61,"Velocity":44,"Duration":83374,"SoundDuration":83374,"Delta":399032971},{"NoteNumber":70,"Velocity":52,"Duration":83374,"SoundDuration":83374,"Delta":399032971},{"NoteNumber":63,"Velocity":44,"Duration":94274,"SoundDuration":94274,"Delta":399199721},{"NoteNumber":72,"Velocity":52,"Duration":94274,"SoundDuration":94274,"Delta":399199721},{"NoteNumber":44,"Velocity":32,"Duration":379714,"SoundDuration":379714,"Delta":399364701},{"NoteNumber":60,"Velocity":49,"Duration":178072,"SoundDuration":178072,"Delta":399388270},{"NoteNumber":63,"Velocity":49,"Duration":178072,"SoundDuration":178072,"Delta":399388270},{"NoteNumber":68,"Velocity":58,"Duration":178072,"SoundDuration":178072,"Delta":399388270},{"NoteNumber":56,"Velocity":43,"Duration":89036,"SoundDuration":89036,"Delta":399388270},{"NoteNumber":51,"Velocity":35,"Duration":89036,"SoundDuration":89036,"Delta":399566343},{"NoteNumber":63,"Velocity":42,"Duration":89036,"SoundDuration":89036,"Delta":399744416},{"NoteNumber":56,"Velocity":36,"Duration":89036,"SoundDuration":89036,"Delta":399922489},{"NoteNumber":39,"Velocity":33,"Duration":371029,"SoundDuration":371029,"Delta":400078303},{"NoteNumber":61,"Velocity":51,"Duration":178072,"SoundDuration":178072,"Delta":400100562},{"NoteNumber":63,"Velocity":51,"Duration":178072,"SoundDuration":178072,"Delta":400100562},{"NoteNumber":70,"Velocity":60,"Duration":178072,"SoundDuration":178072,"Delta":400100562},{"NoteNumber":55,"Velocity":41,"Duration":89036,"SoundDuration":89036,"Delta":400100562},{"NoteNumber":51,"Velocity":37,"Duration":85348,"SoundDuration":85348,"Delta":400278635},{"NoteNumber":61,"Velocity":44,"Duration":82422,"SoundDuration":82422,"Delta":400449332},{"NoteNumber":70,"Velocity":52,"Duration":82422,"SoundDuration":82422,"Delta":400449332},{"NoteNumber":63,"Velocity":44,"Duration":91872,"SoundDuration":91872,"Delta":400614176},{"NoteNumber":72,"Velocity":52,"Duration":91872,"SoundDuration":91872,"Delta":400614176},{"NoteNumber":44,"Velocity":32,"Duration":379114,"SoundDuration":379114,"Delta":400774952},{"NoteNumber":60,"Velocity":49,"Duration":178072,"SoundDuration":178072,"Delta":400797920},{"NoteNumber":63,"Velocity":49,"Duration":178072,"SoundDuration":178072,"Delta":400797920},{"NoteNumber":68,"Velocity":58,"Duration":178072,"SoundDuration":178072,"Delta":400797920},{"NoteNumber":56,"Velocity":43,"Duration":89036,"SoundDuration":89036,"Delta":400797920},{"NoteNumber":51,"Velocity":35,"Duration":89036,"SoundDuration":89036,"Delta":400975993},{"NoteNumber":63,"Velocity":42,"Duration":89036,"SoundDuration":89036,"Delta":401154066},{"NoteNumber":56,"Velocity":36,"Duration":89036,"SoundDuration":89036,"Delta":401332139},{"NoteNumber":63,"Velocity":51,"Duration":263421,"SoundDuration":263421,"Delta":401510212},{"NoteNumber":67,"Velocity":51,"Duration":348770,"SoundDuration":348770,"Delta":401510212},{"NoteNumber":70,"Velocity":60,"Duration":348770,"SoundDuration":348770,"Delta":401510212},{"NoteNumber":51,"Velocity":43,"Duration":89036,"SoundDuration":89036,"Delta":401510212},{"NoteNumber":63,"Velocity":33,"Duration":170697,"SoundDuration":170697,"Delta":401688285},{"NoteNumber":67,"Velocity":44,"Duration":81953,"SoundDuration":81953,"Delta":401858982},{"NoteNumber":63,"Velocity":44,"Duration":81953,"SoundDuration":81953,"Delta":401858982},{"NoteNumber":70,"Velocity":52,"Duration":81953,"SoundDuration":81953,"Delta":401858982},{"NoteNumber":49,"Velocity":43,"Duration":81953,"SoundDuration":81953,"Delta":401858982},{"NoteNumber":67,"Velocity":44,"Duration":91872,"SoundDuration":91872,"Delta":402022890},{"NoteNumber":63,"Velocity":44,"Duration":91872,"SoundDuration":91872,"Delta":402022890},{"NoteNumber":70,"Velocity":52,"Duration":91872,"SoundDuration":91872,"Delta":402022890},{"NoteNumber":61,"Velocity":37,"Duration":91872,"SoundDuration":91872,"Delta":402022890},{"NoteNumber":63,"Velocity":51,"Duration":348770,"SoundDuration":348770,"Delta":402206634},{"NoteNumber":66,"Velocity":51,"Duration":348770,"SoundDuration":348770,"Delta":402206634},{"NoteNumber":75,"Velocity":60,"Duration":348770,"SoundDuration":348770,"Delta":402206634},{"NoteNumber":47,"Velocity":43,"Duration":89036,"SoundDuration":89036,"Delta":402206634},{"NoteNumber":59,"Velocity":33,"Duration":85348,"SoundDuration":85348,"Delta":402384707},{"NoteNumber":71,"Velocity":44,"Duration":82895,"SoundDuration":82895,"Delta":402555404},{"NoteNumber":63,"Velocity":44,"Duration":82895,"SoundDuration":82895,"Delta":402555404},{"NoteNumber":75,"Velocity":52,"Duration":82895,"SoundDuration":82895,"Delta":402555404},{"NoteNumber":42,"Velocity":43,"Duration":82895,"SoundDuration":82895,"Delta":402555404},{"NoteNumber":71,"Velocity":44,"Duration":91872,"SoundDuration":91872,"Delta":402721196},{"NoteNumber":63,"Velocity":44,"Duration":91872,"SoundDuration":91872,"Delta":402721196},{"NoteNumber":75,"Velocity":52,"Duration":91872,"SoundDuration":91872,"Delta":402721196},{"NoteNumber":54,"Velocity":37,"Duration":91872,"SoundDuration":91872,"Delta":402721196},{"NoteNumber":64,"Velocity":50,"Duration":83859,"SoundDuration":83859,"Delta":402904940},{"NoteNumber":73,"Velocity":59,"Duration":83859,"SoundDuration":83859,"Delta":402904940},{"NoteNumber":43,"Velocity":43,"Duration":83859,"SoundDuration":83859,"Delta":402904940},{"NoteNumber":63,"Velocity":43,"Duration":86370,"SoundDuration":86370,"Delta":403072660},{"NoteNumber":71,"Velocity":51,"Duration":86370,"SoundDuration":86370,"Delta":403072660},{"NoteNumber":51,"Velocity":38,"Duration":86370,"SoundDuration":86370,"Delta":403072660},{"NoteNumber":61,"Velocity":43,"Duration":86370,"SoundDuration":86370,"Delta":403245401},{"NoteNumber":70,"Velocity":51,"Duration":86370,"SoundDuration":86370,"Delta":403245401},{"NoteNumber":44,"Velocity":43,"Duration":86370,"SoundDuration":86370,"Delta":403245401},{"NoteNumber":59,"Velocity":43,"Duration":86370,"SoundDuration":86370,"Delta":403418143},{"NoteNumber":68,"Velocity":51,"Duration":86370,"SoundDuration":86370,"Delta":403418143},{"NoteNumber":51,"Velocity":40,"Duration":86370,"SoundDuration":86370,"Delta":403418143},{"NoteNumber":58,"Velocity":51,"Duration":346773,"SoundDuration":346773,"Delta":403590884},{"NoteNumber":63,"Velocity":51,"Duration":346773,"SoundDuration":346773,"Delta":403590884},{"NoteNumber":70,"Velocity":60,"Duration":346773,"SoundDuration":346773,"Delta":403590884},{"NoteNumber":39,"Velocity":43,"Duration":89036,"SoundDuration":89036,"Delta":403590884},{"NoteNumber":46,"Velocity":33,"Duration":84350,"SoundDuration":84350,"Delta":403768957},{"NoteNumber":63,"Velocity":44,"Duration":82422,"SoundDuration":82422,"Delta":403937658},{"NoteNumber":58,"Velocity":44,"Duration":82422,"SoundDuration":82422,"Delta":403937658},{"NoteNumber":70,"Velocity":52,"Duration":82422,"SoundDuration":82422,"Delta":403937658},{"NoteNumber":51,"Velocity":43,"Duration":82422,"SoundDuration":82422,"Delta":403937658},{"NoteNumber":63,"Velocity":44,"Duration":91872,"SoundDuration":91872,"Delta":404102502},{"NoteNumber":58,"Velocity":44,"Duration":91872,"SoundDuration":91872,"Delta":404102502},{"NoteNumber":70,"Velocity":52,"Duration":91872,"SoundDuration":91872,"Delta":404102502},{"NoteNumber":46,"Velocity":37,"Duration":91872,"SoundDuration":91872,"Delta":404102502},{"NoteNumber":55,"Velocity":50,"Duration":86370,"SoundDuration":86370,"Delta":404286246},{"NoteNumber":61,"Velocity":50,"Duration":86370,"SoundDuration":86370,"Delta":404286246},{"NoteNumber":63,"Velocity":59,"Duration":86370,"SoundDuration":86370,"Delta":404286246},{"NoteNumber":39,"Velocity":43,"Duration":86370,"SoundDuration":86370,"Delta":404286246},{"NoteNumber":56,"Velocity":43,"Duration":86370,"SoundDuration":86370,"Delta":404458988},{"NoteNumber":65,"Velocity":51,"Duration":86370,"SoundDuration":86370,"Delta":404458988},{"NoteNumber":46,"Velocity":38,"Duration":86370,"SoundDuration":86370,"Delta":404458988},{"NoteNumber":58,"Velocity":43,"Duration":86370,"SoundDuration":86370,"Delta":404631729},{"NoteNumber":61,"Velocity":43,"Duration":86370,"SoundDuration":86370,"Delta":404631729},{"NoteNumber":67,"Velocity":51,"Duration":86370,"SoundDuration":86370,"Delta":404631729},{"NoteNumber":51,"Velocity":43,"Duration":86370,"SoundDuration":86370,"Delta":404631729},{"NoteNumber":55,"Velocity":43,"Duration":91290,"SoundDuration":91290,"Delta":404804471},{"NoteNumber":63,"Velocity":51,"Duration":91290,"SoundDuration":91290,"Delta":404804471},{"NoteNumber":46,"Velocity":40,"Duration":91290,"SoundDuration":91290,"Delta":404804471},{"NoteNumber":56,"Velocity":51,"Duration":171713,"SoundDuration":171713,"Delta":404987052},{"NoteNumber":60,"Velocity":51,"Duration":171713,"SoundDuration":171713,"Delta":404987052},{"NoteNumber":68,"Velocity":60,"Duration":171713,"SoundDuration":171713,"Delta":404987052},{"NoteNumber":44,"Velocity":47,"Duration":85856,"SoundDuration":85856,"Delta":404987052},{"NoteNumber":51,"Velocity":47,"Duration":85856,"SoundDuration":85856,"Delta":404987052},{"NoteNumber":39,"Velocity":38,"Duration":90149,"SoundDuration":90149,"Delta":405158765},{"NoteNumber":32,"Velocity":43,"Duration":90149,"SoundDuration":90149,"Delta":405339065},{"NoteNumber":63,"Velocity":52,"Duration":91290,"SoundDuration":91290,"Delta":405699664},{"NoteNumber":75,"Velocity":63,"Duration":91290,"SoundDuration":91290,"Delta":405699664},{"NoteNumber":65,"Velocity":47,"Duration":91290,"SoundDuration":91290,"Delta":405882245},{"NoteNumber":77,"Velocity":56,"Duration":91290,"SoundDuration":91290,"Delta":405882245},{"NoteNumber":67,"Velocity":46,"Duration":86890,"SoundDuration":86890,"Delta":406064827},{"NoteNumber":79,"Velocity":55,"Duration":86890,"SoundDuration":86890,"Delta":406064827},{"NoteNumber":68,"Velocity":44,"Duration":86890,"SoundDuration":86890,"Delta":406238609},{"NoteNumber":80,"Velocity":54,"Duration":86890,"SoundDuration":86890,"Delta":406238609},{"NoteNumber":39,"Velocity":37,"Duration":86890,"SoundDuration":86890,"Delta":406238609},{"NoteNumber":70,"Velocity":58,"Duration":173782,"SoundDuration":173782,"Delta":406412391},{"NoteNumber":73,"Velocity":58,"Duration":173782,"SoundDuration":173782,"Delta":406412391},{"NoteNumber":82,"Velocity":69,"Duration":173782,"SoundDuration":173782,"Delta":406412391},{"NoteNumber":55,"Velocity":47,"Duration":86891,"SoundDuration":86891,"Delta":406412391},{"NoteNumber":51,"Velocity":42,"Duration":86890,"SoundDuration":86890,"Delta":406586173},{"NoteNumber":70,"Velocity":50,"Duration":83374,"SoundDuration":83374,"Delta":406759955},{"NoteNumber":73,"Velocity":50,"Duration":83374,"SoundDuration":83374,"Delta":406759955},{"NoteNumber":82,"Velocity":59,"Duration":83374,"SoundDuration":83374,"Delta":406759955},{"NoteNumber":63,"Velocity":47,"Duration":83374,"SoundDuration":83374,"Delta":406759955},{"NoteNumber":72,"Velocity":50,"Duration":94274,"SoundDuration":94274,"Delta":406926705},{"NoteNumber":75,"Velocity":50,"Duration":94274,"SoundDuration":94274,"Delta":406926705},{"NoteNumber":84,"Velocity":59,"Duration":94274,"SoundDuration":94274,"Delta":406926705},{"NoteNumber":44,"Velocity":36,"Duration":94274,"SoundDuration":94274,"Delta":406926705},{"NoteNumber":68,"Velocity":56,"Duration":178072,"SoundDuration":178072,"Delta":407115254},{"NoteNumber":72,"Velocity":56,"Duration":178072,"SoundDuration":178072,"Delta":407115254},{"NoteNumber":80,"Velocity":66,"Duration":178072,"SoundDuration":178072,"Delta":407115254},{"NoteNumber":56,"Velocity":49,"Duration":89036,"SoundDuration":89036,"Delta":407115254},{"NoteNumber":51,"Velocity":40,"Duration":89036,"SoundDuration":89036,"Delta":407293327},{"NoteNumber":63,"Velocity":48,"Duration":83374,"SoundDuration":83374,"Delta":407471400},{"NoteNumber":39,"Velocity":41,"Duration":92461,"SoundDuration":92461,"Delta":407638150},{"NoteNumber":70,"Velocity":58,"Duration":178072,"SoundDuration":178072,"Delta":407823072},{"NoteNumber":73,"Velocity":58,"Duration":178072,"SoundDuration":178072,"Delta":407823072},{"NoteNumber":82,"Velocity":69,"Duration":178072,"SoundDuration":178072,"Delta":407823072},{"NoteNumber":55,"Velocity":47,"Duration":89036,"SoundDuration":89036,"Delta":407823072},{"NoteNumber":51,"Velocity":42,"Duration":84846,"SoundDuration":84846,"Delta":408001145},{"NoteNumber":70,"Velocity":50,"Duration":82422,"SoundDuration":82422,"Delta":408170838},{"NoteNumber":73,"Velocity":50,"Duration":82422,"SoundDuration":82422,"Delta":408170838},{"NoteNumber":82,"Velocity":59,"Duration":82422,"SoundDuration":82422,"Delta":408170838},{"NoteNumber":63,"Velocity":47,"Duration":82422,"SoundDuration":82422,"Delta":408170838},{"NoteNumber":72,"Velocity":50,"Duration":91872,"SoundDuration":91872,"Delta":408335682},{"NoteNumber":75,"Velocity":50,"Duration":91872,"SoundDuration":91872,"Delta":408335682},{"NoteNumber":84,"Velocity":59,"Duration":91872,"SoundDuration":91872,"Delta":408335682},{"NoteNumber":44,"Velocity":36,"Duration":91872,"SoundDuration":91872,"Delta":408335682},{"NoteNumber":68,"Velocity":56,"Duration":178072,"SoundDuration":178072,"Delta":408519427},{"NoteNumber":72,"Velocity":56,"Duration":178072,"SoundDuration":178072,"Delta":408519427},{"NoteNumber":80,"Velocity":66,"Duration":178072,"SoundDuration":178072,"Delta":408519427},{"NoteNumber":56,"Velocity":49,"Duration":89036,"SoundDuration":89036,"Delta":408519427},{"NoteNumber":51,"Velocity":40,"Duration":89036,"SoundDuration":89036,"Delta":408697500},{"NoteNumber":63,"Velocity":48,"Duration":82422,"SoundDuration":82422,"Delta":408875573},{"NoteNumber":56,"Velocity":41,"Duration":93057,"SoundDuration":93057,"Delta":409040417},{"NoteNumber":70,"Velocity":58,"Duration":352908,"SoundDuration":352908,"Delta":409226533},{"NoteNumber":75,"Velocity":58,"Duration":352908,"SoundDuration":352908,"Delta":409226533},{"NoteNumber":79,"Velocity":58,"Duration":352908,"SoundDuration":352908,"Delta":409226533},{"NoteNumber":82,"Velocity":69,"Duration":352908,"SoundDuration":352908,"Delta":409226533},{"NoteNumber":51,"Velocity":49,"Duration":89036,"SoundDuration":89036,"Delta":409226533},{"NoteNumber":63,"Velocity":37,"Duration":87417,"SoundDuration":87417,"Delta":409404606},{"NoteNumber":70,"Velocity":50,"Duration":81953,"SoundDuration":81953,"Delta":409579441},{"NoteNumber":79,"Velocity":50,"Duration":81953,"SoundDuration":81953,"Delta":409579441},{"NoteNumber":75,"Velocity":50,"Duration":81953,"SoundDuration":81953,"Delta":409579441},{"NoteNumber":82,"Velocity":59,"Duration":81953,"SoundDuration":81953,"Delta":409579441},{"NoteNumber":49,"Velocity":49,"Duration":81953,"SoundDuration":81953,"Delta":409579441},{"NoteNumber":70,"Velocity":50,"Duration":97459,"SoundDuration":97459,"Delta":409743349},{"NoteNumber":79,"Velocity":50,"Duration":97459,"SoundDuration":97459,"Delta":409743349},{"NoteNumber":75,"Velocity":50,"Duration":97459,"SoundDuration":97459,"Delta":409743349},{"NoteNumber":82,"Velocity":59,"Duration":97459,"SoundDuration":97459,"Delta":409743349},{"NoteNumber":61,"Velocity":42,"Duration":97459,"SoundDuration":97459,"Delta":409743349},{"NoteNumber":75,"Velocity":58,"Duration":349671,"SoundDuration":349671,"Delta":409938268},{"NoteNumber":78,"Velocity":58,"Duration":349671,"SoundDuration":349671,"Delta":409938268},{"NoteNumber":87,"Velocity":69,"Duration":349671,"SoundDuration":349671,"Delta":409938268},{"NoteNumber":47,"Velocity":49,"Duration":87417,"SoundDuration":87417,"Delta":409938268},{"NoteNumber":59,"Velocity":37,"Duration":87417,"SoundDuration":87417,"Delta":410113103},{"NoteNumber":83,"Velocity":50,"Duration":85856,"SoundDuration":85856,"Delta":410287939},{"NoteNumber":75,"Velocity":50,"Duration":85856,"SoundDuration":85856,"Delta":410287939},{"NoteNumber":87,"Velocity":59,"Duration":85856,"SoundDuration":85856,"Delta":410287939},{"NoteNumber":42,"Velocity":49,"Duration":85856,"SoundDuration":85856,"Delta":410287939},{"NoteNumber":83,"Velocity":50,"Duration":93057,"SoundDuration":93057,"Delta":410459652},{"NoteNumber":75,"Velocity":50,"Duration":93057,"SoundDuration":93057,"Delta":410459652},{"NoteNumber":87,"Velocity":59,"Duration":93057,"SoundDuration":93057,"Delta":410459652},{"NoteNumber":54,"Velocity":42,"Duration":93057,"SoundDuration":93057,"Delta":410459652},{"NoteNumber":73,"Velocity":57,"Duration":82895,"SoundDuration":82895,"Delta":410645768},{"NoteNumber":76,"Velocity":57,"Duration":82895,"SoundDuration":82895,"Delta":410645768},{"NoteNumber":85,"Velocity":67,"Duration":82895,"SoundDuration":82895,"Delta":410645768},{"NoteNumber":43,"Velocity":49,"Duration":82895,"SoundDuration":82895,"Delta":410645768},{"NoteNumber":71,"Velocity":49,"Duration":82895,"SoundDuration":82895,"Delta":410811559},{"NoteNumber":75,"Velocity":49,"Duration":82895,"SoundDuration":82895,"Delta":410811559},{"NoteNumber":83,"Velocity":58,"Duration":82895,"SoundDuration":82895,"Delta":410811559},{"NoteNumber":51,"Velocity":36,"Duration":82895,"SoundDuration":82895,"Delta":410811559},{"NoteNumber":55,"Velocity":43,"Duration":82895,"SoundDuration":82895,"Delta":410811559},{"NoteNumber":70,"Velocity":49,"Duration":84846,"SoundDuration":84846,"Delta":410977351},{"NoteNumber":73,"Velocity":49,"Duration":84846,"SoundDuration":84846,"Delta":410977351},{"NoteNumber":82,"Velocity":58,"Duration":84846,"SoundDuration":84846,"Delta":410977351},{"NoteNumber":44,"Velocity":49,"Duration":84846,"SoundDuration":84846,"Delta":410977351},{"NoteNumber":68,"Velocity":49,"Duration":86890,"SoundDuration":86890,"Delta":411147044},{"NoteNumber":71,"Velocity":49,"Duration":86890,"SoundDuration":86890,"Delta":411147044},{"NoteNumber":80,"Velocity":58,"Duration":86890,"SoundDuration":86890,"Delta":411147044},{"NoteNumber":51,"Velocity":39,"Duration":86890,"SoundDuration":86890,"Delta":411147044},{"NoteNumber":56,"Velocity":46,"Duration":86890,"SoundDuration":86890,"Delta":411147044},{"NoteNumber":70,"Velocity":58,"Duration":350814,"SoundDuration":350814,"Delta":411320826},{"NoteNumber":75,"Velocity":58,"Duration":350814,"SoundDuration":350814,"Delta":411320826},{"NoteNumber":82,"Velocity":69,"Duration":350814,"SoundDuration":350814,"Delta":411320826},{"NoteNumber":39,"Velocity":49,"Duration":89036,"SoundDuration":89036,"Delta":411320826},{"NoteNumber":46,"Velocity":37,"Duration":86370,"SoundDuration":86370,"Delta":411498899},{"NoteNumber":75,"Velocity":50,"Duration":82895,"SoundDuration":82895,"Delta":411671640},{"NoteNumber":70,"Velocity":50,"Duration":82895,"SoundDuration":82895,"Delta":411671640},{"NoteNumber":82,"Velocity":59,"Duration":82895,"SoundDuration":82895,"Delta":411671640},{"NoteNumber":51,"Velocity":49,"Duration":82895,"SoundDuration":82895,"Delta":411671640},{"NoteNumber":75,"Velocity":50,"Duration":91872,"SoundDuration":91872,"Delta":411837432},{"NoteNumber":70,"Velocity":50,"Duration":91872,"SoundDuration":91872,"Delta":411837432},{"NoteNumber":82,"Velocity":59,"Duration":91872,"SoundDuration":91872,"Delta":411837432},{"NoteNumber":58,"Velocity":42,"Duration":91872,"SoundDuration":91872,"Delta":411837432},{"NoteNumber":67,"Velocity":57,"Duration":86370,"SoundDuration":86370,"Delta":412021176},{"NoteNumber":73,"Velocity":57,"Duration":86370,"SoundDuration":86370,"Delta":412021176},{"NoteNumber":75,"Velocity":67,"Duration":86370,"SoundDuration":86370,"Delta":412021176},{"NoteNumber":63,"Velocity":49,"Duration":86370,"SoundDuration":86370,"Delta":412021176},{"NoteNumber":68,"Velocity":49,"Duration":86370,"SoundDuration":86370,"Delta":412193918},{"NoteNumber":77,"Velocity":58,"Duration":86370,"SoundDuration":86370,"Delta":412193918},{"NoteNumber":58,"Velocity":43,"Duration":86370,"SoundDuration":86370,"Delta":412193918},{"NoteNumber":70,"Velocity":49,"Duration":86370,"SoundDuration":86370,"Delta":412366659},{"NoteNumber":73,"Velocity":49,"Duration":86370,"SoundDuration":86370,"Delta":412366659},{"NoteNumber":79,"Velocity":58,"Duration":86370,"SoundDuration":86370,"Delta":412366659},{"NoteNumber":51,"Velocity":49,"Duration":86370,"SoundDuration":86370,"Delta":412366659},{"NoteNumber":67,"Velocity":49,"Duration":91290,"SoundDuration":91290,"Delta":412539401},{"NoteNumber":75,"Velocity":58,"Duration":91290,"SoundDuration":91290,"Delta":412539401},{"NoteNumber":61,"Velocity":46,"Duration":91290,"SoundDuration":91290,"Delta":412539401},{"NoteNumber":68,"Velocity":58,"Duration":171713,"SoundDuration":171713,"Delta":412721982},{"NoteNumber":75,"Velocity":58,"Duration":171713,"SoundDuration":171713,"Delta":412721982},{"NoteNumber":80,"Velocity":69,"Duration":171713,"SoundDuration":171713,"Delta":412721982},{"NoteNumber":60,"Velocity":54,"Duration":85856,"SoundDuration":85856,"Delta":412721982},{"NoteNumber":51,"Velocity":43,"Duration":90149,"SoundDuration":90149,"Delta":412893695},{"NoteNumber":44,"Velocity":49,"Duration":90149,"SoundDuration":90149,"Delta":413073995},{"NoteNumber":70,"Velocity":66,"Duration":351855,"SoundDuration":351855,"Delta":413448897},{"NoteNumber":75,"Velocity":66,"Duration":351855,"SoundDuration":351855,"Delta":413448897},{"NoteNumber":79,"Velocity":66,"Duration":351855,"SoundDuration":351855,"Delta":413448897},{"NoteNumber":82,"Velocity":79,"Duration":351855,"SoundDuration":351855,"Delta":413448897},{"NoteNumber":39,"Velocity":54,"Duration":89036,"SoundDuration":89036,"Delta":413448897},{"NoteNumber":51,"Velocity":64,"Duration":89036,"SoundDuration":89036,"Delta":413448897},{"NoteNumber":40,"Velocity":46,"Duration":86890,"SoundDuration":86890,"Delta":413626970},{"NoteNumber":52,"Velocity":55,"Duration":86890,"SoundDuration":86890,"Delta":413626970},{"NoteNumber":70,"Velocity":57,"Duration":82895,"SoundDuration":82895,"Delta":413800752},{"NoteNumber":79,"Velocity":57,"Duration":82895,"SoundDuration":82895,"Delta":413800752},{"NoteNumber":75,"Velocity":57,"Duration":82895,"SoundDuration":82895,"Delta":413800752},{"NoteNumber":82,"Velocity":67,"Duration":82895,"SoundDuration":82895,"Delta":413800752},{"NoteNumber":37,"Velocity":56,"Duration":82895,"SoundDuration":82895,"Delta":413800752},{"NoteNumber":49,"Velocity":67,"Duration":82895,"SoundDuration":82895,"Delta":413800752},{"NoteNumber":70,"Velocity":57,"Duration":91872,"SoundDuration":91872,"Delta":413966544},{"NoteNumber":79,"Velocity":57,"Duration":91872,"SoundDuration":91872,"Delta":413966544},{"NoteNumber":75,"Velocity":57,"Duration":91872,"SoundDuration":91872,"Delta":413966544},{"NoteNumber":82,"Velocity":67,"Duration":91872,"SoundDuration":91872,"Delta":413966544},{"NoteNumber":39,"Velocity":50,"Duration":91872,"SoundDuration":91872,"Delta":413966544},{"NoteNumber":51,"Velocity":59,"Duration":91872,"SoundDuration":91872,"Delta":413966544},{"NoteNumber":75,"Velocity":66,"Duration":356146,"SoundDuration":356146,"Delta":414150288},{"NoteNumber":78,"Velocity":66,"Duration":356146,"SoundDuration":356146,"Delta":414150288},{"NoteNumber":87,"Velocity":79,"Duration":356146,"SoundDuration":356146,"Delta":414150288},{"NoteNumber":35,"Velocity":58,"Duration":89036,"SoundDuration":89036,"Delta":414150288},{"NoteNumber":47,"Velocity":69,"Duration":89036,"SoundDuration":89036,"Delta":414150288},{"NoteNumber":37,"Velocity":51,"Duration":89036,"SoundDuration":89036,"Delta":414328361},{"NoteNumber":49,"Velocity":60,"Duration":89036,"SoundDuration":89036,"Delta":414328361},{"NoteNumber":78,"Velocity":57,"Duration":83859,"SoundDuration":83859,"Delta":414506434},{"NoteNumber":75,"Velocity":57,"Duration":83859,"SoundDuration":83859,"Delta":414506434},{"NoteNumber":87,"Velocity":67,"Duration":83859,"SoundDuration":83859,"Delta":414506434},{"NoteNumber":33,"Velocity":56,"Duration":83859,"SoundDuration":83859,"Delta":414506434},{"NoteNumber":45,"Velocity":66,"Duration":83859,"SoundDuration":83859,"Delta":414506434},{"NoteNumber":78,"Velocity":57,"Duration":91872,"SoundDuration":91872,"Delta":414674154},{"NoteNumber":75,"Velocity":57,"Duration":91872,"SoundDuration":91872,"Delta":414674154},{"NoteNumber":87,"Velocity":67,"Duration":91872,"SoundDuration":91872,"Delta":414674154},{"NoteNumber":35,"Velocity":50,"Duration":91872,"SoundDuration":91872,"Delta":414674154},{"NoteNumber":47,"Velocity":59,"Duration":91872,"SoundDuration":91872,"Delta":414674154},{"NoteNumber":73,"Velocity":65,"Duration":83374,"SoundDuration":83374,"Delta":414857898},{"NoteNumber":76,"Velocity":65,"Duration":83374,"SoundDuration":83374,"Delta":414857898},{"NoteNumber":85,"Velocity":77,"Duration":83374,"SoundDuration":83374,"Delta":414857898},{"NoteNumber":31,"Velocity":59,"Duration":338462,"SoundDuration":338462,"Delta":414857898},{"NoteNumber":43,"Velocity":70,"Duration":338462,"SoundDuration":338462,"Delta":414857898},{"NoteNumber":71,"Velocity":56,"Duration":85856,"SoundDuration":85856,"Delta":415024648},{"NoteNumber":75,"Velocity":56,"Duration":85856,"SoundDuration":85856,"Delta":415024648},{"NoteNumber":83,"Velocity":66,"Duration":85856,"SoundDuration":85856,"Delta":415024648},{"NoteNumber":70,"Velocity":56,"Duration":85856,"SoundDuration":85856,"Delta":415196361},{"NoteNumber":73,"Velocity":56,"Duration":85856,"SoundDuration":85856,"Delta":415196361},{"NoteNumber":82,"Velocity":66,"Duration":85856,"SoundDuration":85856,"Delta":415196361},{"NoteNumber":32,"Velocity":60,"Duration":369302,"SoundDuration":369302,"Delta":415196361},{"NoteNumber":44,"Velocity":71,"Duration":369302,"SoundDuration":369302,"Delta":415196361},{"NoteNumber":68,"Velocity":56,"Duration":98794,"SoundDuration":98794,"Delta":415368074},{"NoteNumber":71,"Velocity":56,"Duration":98794,"SoundDuration":98794,"Delta":415368074},{"NoteNumber":80,"Velocity":66,"Duration":98794,"SoundDuration":98794,"Delta":415368074},{"NoteNumber":70,"Velocity":66,"Duration":356146,"SoundDuration":356146,"Delta":415565664},{"NoteNumber":75,"Velocity":66,"Duration":356146,"SoundDuration":356146,"Delta":415565664},{"NoteNumber":82,"Velocity":79,"Duration":356146,"SoundDuration":356146,"Delta":415565664},{"NoteNumber":39,"Velocity":67,"Duration":89036,"SoundDuration":89036,"Delta":415565664},{"NoteNumber":46,"Velocity":59,"Duration":89036,"SoundDuration":89036,"Delta":415743737},{"NoteNumber":75,"Velocity":57,"Duration":85856,"SoundDuration":85856,"Delta":415921810},{"NoteNumber":70,"Velocity":57,"Duration":85856,"SoundDuration":85856,"Delta":415921810},{"NoteNumber":82,"Velocity":67,"Duration":85856,"SoundDuration":85856,"Delta":415921810},{"NoteNumber":51,"Velocity":67,"Duration":85856,"SoundDuration":85856,"Delta":415921810},{"NoteNumber":75,"Velocity":57,"Duration":91872,"SoundDuration":91872,"Delta":416093523},{"NoteNumber":70,"Velocity":57,"Duration":91872,"SoundDuration":91872,"Delta":416093523},{"NoteNumber":82,"Velocity":67,"Duration":91872,"SoundDuration":91872,"Delta":416093523},{"NoteNumber":58,"Velocity":61,"Duration":91872,"SoundDuration":91872,"Delta":416093523},{"NoteNumber":67,"Velocity":65,"Duration":86370,"SoundDuration":86370,"Delta":416277267},{"NoteNumber":73,"Velocity":65,"Duration":86370,"SoundDuration":86370,"Delta":416277267},{"NoteNumber":75,"Velocity":77,"Duration":86370,"SoundDuration":86370,"Delta":416277267},{"NoteNumber":63,"Velocity":69,"Duration":86370,"SoundDuration":86370,"Delta":416277267},{"NoteNumber":68,"Velocity":56,"Duration":86370,"SoundDuration":86370,"Delta":416450009},{"NoteNumber":77,"Velocity":66,"Duration":86370,"SoundDuration":86370,"Delta":416450009},{"NoteNumber":58,"Velocity":57,"Duration":86370,"SoundDuration":86370,"Delta":416450009},{"NoteNumber":70,"Velocity":56,"Duration":86370,"SoundDuration":86370,"Delta":416622750},{"NoteNumber":73,"Velocity":56,"Duration":86370,"SoundDuration":86370,"Delta":416622750},{"NoteNumber":79,"Velocity":66,"Duration":86370,"SoundDuration":86370,"Delta":416622750},{"NoteNumber":51,"Velocity":67,"Duration":86370,"SoundDuration":86370,"Delta":416622750},{"NoteNumber":67,"Velocity":56,"Duration":98794,"SoundDuration":98794,"Delta":416795492},{"NoteNumber":75,"Velocity":66,"Duration":98794,"SoundDuration":98794,"Delta":416795492},{"NoteNumber":61,"Velocity":61,"Duration":98794,"SoundDuration":98794,"Delta":416795492},{"NoteNumber":68,"Velocity":66,"Duration":171713,"SoundDuration":171713,"Delta":416993081},{"NoteNumber":75,"Velocity":66,"Duration":171713,"SoundDuration":171713,"Delta":416993081},{"NoteNumber":80,"Velocity":79,"Duration":171713,"SoundDuration":171713,"Delta":416993081},{"NoteNumber":60,"Velocity":76,"Duration":85856,"SoundDuration":85856,"Delta":416993081},{"NoteNumber":51,"Velocity":64,"Duration":90149,"SoundDuration":90149,"Delta":417164794},{"NoteNumber":44,"Velocity":71,"Duration":90149,"SoundDuration":90149,"Delta":417345094},{"NoteNumber":71,"Velocity":35,"Duration":869292,"SoundDuration":869292,"Delta":417791251},{"NoteNumber":81,"Velocity":50,"Duration":338066,"SoundDuration":338066,"Delta":417791251},{"NoteNumber":63,"Velocity":34,"Duration":112688,"SoundDuration":112688,"Delta":417791251},{"NoteNumber":73,"Velocity":25,"Duration":112688,"SoundDuration":112688,"Delta":417903940},{"NoteNumber":66,"Velocity":25,"Duration":112688,"SoundDuration":112688,"Delta":418016629},{"NoteNumber":83,"Velocity":36,"Duration":50335,"SoundDuration":50335,"Delta":418129317},{"NoteNumber":73,"Velocity":25,"Duration":100671,"SoundDuration":100671,"Delta":418129317},{"NoteNumber":81,"Velocity":36,"Duration":50335,"SoundDuration":50335,"Delta":418179653},{"NoteNumber":80,"Velocity":50,"Duration":222221,"SoundDuration":222221,"Delta":418229989},{"NoteNumber":59,"Velocity":31,"Duration":111110,"SoundDuration":111110,"Delta":418229989},{"NoteNumber":73,"Velocity":25,"Duration":111110,"SoundDuration":111110,"Delta":418341100},{"NoteNumber":78,"Velocity":41,"Duration":208333,"SoundDuration":208333,"Delta":418452211},{"NoteNumber":66,"Velocity":25,"Duration":104166,"SoundDuration":104166,"Delta":418452211},{"NoteNumber":73,"Velocity":25,"Duration":104166,"SoundDuration":104166,"Delta":418556377},{"NoteNumber":71,"Velocity":29,"Duration":894876,"SoundDuration":894876,"Delta":418660544},{"NoteNumber":83,"Velocity":43,"Duration":229007,"SoundDuration":229007,"Delta":418660544},{"NoteNumber":64,"Velocity":34,"Duration":114503,"SoundDuration":114503,"Delta":418660544},{"NoteNumber":73,"Velocity":25,"Duration":114503,"SoundDuration":114503,"Delta":418775048},{"NoteNumber":75,"Velocity":45,"Duration":171755,"SoundDuration":171755,"Delta":418889552},{"NoteNumber":68,"Velocity":25,"Duration":114503,"SoundDuration":114503,"Delta":418889552},{"NoteNumber":73,"Velocity":25,"Duration":106920,"SoundDuration":106920,"Delta":419004055},{"NoteNumber":78,"Velocity":35,"Duration":49668,"SoundDuration":49668,"Delta":419061307},{"NoteNumber":76,"Velocity":43,"Duration":444443,"SoundDuration":444443,"Delta":419110976},{"NoteNumber":59,"Velocity":31,"Duration":111110,"SoundDuration":111110,"Delta":419110976},{"NoteNumber":73,"Velocity":25,"Duration":111110,"SoundDuration":111110,"Delta":419222087},{"NoteNumber":68,"Velocity":25,"Duration":111110,"SoundDuration":111110,"Delta":419333198},{"NoteNumber":73,"Velocity":25,"Duration":111110,"SoundDuration":111110,"Delta":419444309},{"NoteNumber":71,"Velocity":35,"Duration":862549,"SoundDuration":862549,"Delta":419555420},{"NoteNumber":81,"Velocity":50,"Duration":343511,"SoundDuration":343511,"Delta":419555420},{"NoteNumber":63,"Velocity":34,"Duration":114503,"SoundDuration":114503,"Delta":419555420},{"NoteNumber":73,"Velocity":25,"Duration":114503,"SoundDuration":114503,"Delta":419669924},{"NoteNumber":66,"Velocity":25,"Duration":114503,"SoundDuration":114503,"Delta":419784428},{"NoteNumber":83,"Velocity":36,"Duration":50335,"SoundDuration":50335,"Delta":419898931},{"NoteNumber":73,"Velocity":25,"Duration":100671,"SoundDuration":100671,"Delta":419898931},{"NoteNumber":81,"Velocity":36,"Duration":50335,"SoundDuration":50335,"Delta":419949267},{"NoteNumber":80,"Velocity":50,"Duration":214285,"SoundDuration":214285,"Delta":419999603},{"NoteNumber":59,"Velocity":31,"Duration":107142,"SoundDuration":107142,"Delta":419999603},{"NoteNumber":73,"Velocity":25,"Duration":107142,"SoundDuration":107142,"Delta":420106745},{"NoteNumber":78,"Velocity":41,"Duration":204081,"SoundDuration":204081,"Delta":420213888},{"NoteNumber":66,"Velocity":25,"Duration":102040,"SoundDuration":102040,"Delta":420213888},{"NoteNumber":73,"Velocity":25,"Duration":102040,"SoundDuration":102040,"Delta":420315929},{"NoteNumber":71,"Velocity":29,"Duration":916556,"SoundDuration":916556,"Delta":420417970},{"NoteNumber":83,"Velocity":44,"Duration":229007,"SoundDuration":229007,"Delta":420417970},{"NoteNumber":64,"Velocity":34,"Duration":114503,"SoundDuration":114503,"Delta":420417970},{"NoteNumber":73,"Velocity":25,"Duration":114503,"SoundDuration":114503,"Delta":420532473},{"NoteNumber":75,"Velocity":45,"Duration":171755,"SoundDuration":171755,"Delta":420646977},{"NoteNumber":68,"Velocity":25,"Duration":114503,"SoundDuration":114503,"Delta":420646977},{"NoteNumber":73,"Velocity":25,"Duration":106920,"SoundDuration":106920,"Delta":420761481},{"NoteNumber":78,"Velocity":35,"Duration":49668,"SoundDuration":49668,"Delta":420818733},{"NoteNumber":76,"Velocity":43,"Duration":466124,"SoundDuration":466124,"Delta":420868402},{"NoteNumber":59,"Velocity":31,"Duration":111110,"SoundDuration":111110,"Delta":420868402},{"NoteNumber":73,"Velocity":25,"Duration":111110,"SoundDuration":111110,"Delta":420979513},{"NoteNumber":68,"Velocity":25,"Duration":121951,"SoundDuration":121951,"Delta":421090624},{"NoteNumber":64,"Velocity":25,"Duration":121951,"SoundDuration":121951,"Delta":421212575},{"NoteNumber":37,"Velocity":44,"Duration":434088,"SoundDuration":434088,"Delta":421334526},{"NoteNumber":49,"Velocity":52,"Duration":105633,"SoundDuration":105633,"Delta":421334526},{"NoteNumber":54,"Velocity":36,"Duration":105633,"SoundDuration":105633,"Delta":421440160},{"NoteNumber":42,"Velocity":47,"Duration":328455,"SoundDuration":328455,"Delta":421440160},{"NoteNumber":58,"Velocity":41,"Duration":105633,"SoundDuration":105633,"Delta":421545794},{"NoteNumber":66,"Velocity":36,"Duration":117187,"SoundDuration":117187,"Delta":421651427},{"NoteNumber":64,"Velocity":28,"Duration":117187,"SoundDuration":117187,"Delta":421651427},{"NoteNumber":35,"Velocity":32,"Duration":536512,"SoundDuration":536512,"Delta":421768615},{"NoteNumber":47,"Velocity":38,"Duration":110294,"SoundDuration":110294,"Delta":421768615},{"NoteNumber":54,"Velocity":24,"Duration":110294,"SoundDuration":110294,"Delta":421878909},{"NoteNumber":42,"Velocity":35,"Duration":426218,"SoundDuration":426218,"Delta":421878909},{"NoteNumber":59,"Velocity":27,"Duration":126050,"SoundDuration":126050,"Delta":421989203},{"NoteNumber":66,"Velocity":24,"Duration":189873,"SoundDuration":189873,"Delta":422115253},{"NoteNumber":63,"Velocity":19,"Duration":189873,"SoundDuration":189873,"Delta":422115253},{"NoteNumber":71,"Velocity":35,"Duration":870600,"SoundDuration":870600,"Delta":422305127},{"NoteNumber":81,"Velocity":50,"Duration":351562,"SoundDuration":351562,"Delta":422305127},{"NoteNumber":63,"Velocity":34,"Duration":117187,"SoundDuration":117187,"Delta":422305127},{"NoteNumber":73,"Velocity":25,"Duration":117187,"SoundDuration":117187,"Delta":422422314},{"NoteNumber":66,"Velocity":25,"Duration":117187,"SoundDuration":117187,"Delta":422539502},{"NoteNumber":83,"Velocity":36,"Duration":50335,"SoundDuration":50335,"Delta":422656689},{"NoteNumber":73,"Velocity":25,"Duration":100671,"SoundDuration":100671,"Delta":422656689},{"NoteNumber":81,"Velocity":36,"Duration":50335,"SoundDuration":50335,"Delta":422707025},{"NoteNumber":80,"Velocity":50,"Duration":214285,"SoundDuration":214285,"Delta":422757361},{"NoteNumber":59,"Velocity":31,"Duration":107142,"SoundDuration":107142,"Delta":422757361},{"NoteNumber":73,"Velocity":25,"Duration":107142,"SoundDuration":107142,"Delta":422864503},{"NoteNumber":78,"Velocity":41,"Duration":204081,"SoundDuration":204081,"Delta":422971646},{"NoteNumber":66,"Velocity":25,"Duration":102040,"SoundDuration":102040,"Delta":422971646},{"NoteNumber":73,"Velocity":25,"Duration":102040,"SoundDuration":102040,"Delta":423073687},{"NoteNumber":71,"Velocity":29,"Duration":894876,"SoundDuration":894876,"Delta":423175728},{"NoteNumber":83,"Velocity":43,"Duration":229007,"SoundDuration":229007,"Delta":423175728},{"NoteNumber":64,"Velocity":34,"Duration":114503,"SoundDuration":114503,"Delta":423175728},{"NoteNumber":73,"Velocity":25,"Duration":114503,"SoundDuration":114503,"Delta":423290231},{"NoteNumber":75,"Velocity":45,"Duration":171755,"SoundDuration":171755,"Delta":423404735},{"NoteNumber":68,"Velocity":25,"Duration":114503,"SoundDuration":114503,"Delta":423404735},{"NoteNumber":73,"Velocity":25,"Duration":106920,"SoundDuration":106920,"Delta":423519239},{"NoteNumber":78,"Velocity":35,"Duration":49668,"SoundDuration":49668,"Delta":423576491},{"NoteNumber":76,"Velocity":43,"Duration":444443,"SoundDuration":444443,"Delta":423626160},{"NoteNumber":59,"Velocity":31,"Duration":111110,"SoundDuration":111110,"Delta":423626160},{"NoteNumber":73,"Velocity":25,"Duration":111110,"SoundDuration":111110,"Delta":423737271},{"NoteNumber":68,"Velocity":25,"Duration":111110,"SoundDuration":111110,"Delta":423848382},{"NoteNumber":73,"Velocity":25,"Duration":111110,"SoundDuration":111110,"Delta":423959493},{"NoteNumber":71,"Velocity":35,"Duration":870600,"SoundDuration":870600,"Delta":424070604},{"NoteNumber":81,"Velocity":50,"Duration":351562,"SoundDuration":351562,"Delta":424070604},{"NoteNumber":63,"Velocity":34,"Duration":117187,"SoundDuration":117187,"Delta":424070604},{"NoteNumber":73,"Velocity":25,"Duration":117187,"SoundDuration":117187,"Delta":424187791},{"NoteNumber":66,"Velocity":25,"Duration":117187,"SoundDuration":117187,"Delta":424304979},{"NoteNumber":83,"Velocity":36,"Duration":50335,"SoundDuration":50335,"Delta":424422166},{"NoteNumber":73,"Velocity":25,"Duration":100671,"SoundDuration":100671,"Delta":424422166},{"NoteNumber":81,"Velocity":36,"Duration":50335,"SoundDuration":50335,"Delta":424472502},{"NoteNumber":80,"Velocity":50,"Duration":214285,"SoundDuration":214285,"Delta":424522837},{"NoteNumber":59,"Velocity":31,"Duration":107142,"SoundDuration":107142,"Delta":424522837},{"NoteNumber":73,"Velocity":25,"Duration":107142,"SoundDuration":107142,"Delta":424629980},{"NoteNumber":78,"Velocity":41,"Duration":204081,"SoundDuration":204081,"Delta":424737123},{"NoteNumber":66,"Velocity":25,"Duration":102040,"SoundDuration":102040,"Delta":424737123},{"NoteNumber":73,"Velocity":25,"Duration":102040,"SoundDuration":102040,"Delta":424839164},{"NoteNumber":71,"Velocity":29,"Duration":916556,"SoundDuration":916556,"Delta":424941204},{"NoteNumber":83,"Velocity":44,"Duration":229007,"SoundDuration":229007,"Delta":424941204},{"NoteNumber":64,"Velocity":34,"Duration":114503,"SoundDuration":114503,"Delta":424941204},{"NoteNumber":73,"Velocity":25,"Duration":114503,"SoundDuration":114503,"Delta":425055708},{"NoteNumber":75,"Velocity":45,"Duration":171755,"SoundDuration":171755,"Delta":425170212},{"NoteNumber":68,"Velocity":25,"Duration":114503,"SoundDuration":114503,"Delta":425170212},{"NoteNumber":73,"Velocity":25,"Duration":106920,"SoundDuration":106920,"Delta":425284716},{"NoteNumber":78,"Velocity":35,"Duration":49668,"SoundDuration":49668,"Delta":425341968},{"NoteNumber":76,"Velocity":43,"Duration":466124,"SoundDuration":466124,"Delta":425391636},{"NoteNumber":59,"Velocity":31,"Duration":111110,"SoundDuration":111110,"Delta":425391636},{"NoteNumber":73,"Velocity":25,"Duration":111110,"SoundDuration":111110,"Delta":425502747},{"NoteNumber":68,"Velocity":25,"Duration":121951,"SoundDuration":121951,"Delta":425613858},{"NoteNumber":64,"Velocity":25,"Duration":121951,"SoundDuration":121951,"Delta":425735810},{"NoteNumber":37,"Velocity":44,"Duration":429683,"SoundDuration":429683,"Delta":425857761},{"NoteNumber":49,"Velocity":52,"Duration":105633,"SoundDuration":105633,"Delta":425857761},{"NoteNumber":54,"Velocity":36,"Duration":105633,"SoundDuration":105633,"Delta":425963395},{"NoteNumber":42,"Velocity":47,"Duration":324049,"SoundDuration":324049,"Delta":425963395},{"NoteNumber":58,"Velocity":41,"Duration":105633,"SoundDuration":105633,"Delta":426069028},{"NoteNumber":66,"Velocity":36,"Duration":112781,"SoundDuration":112781,"Delta":426174662},{"NoteNumber":64,"Velocity":28,"Duration":112781,"SoundDuration":112781,"Delta":426174662},{"NoteNumber":35,"Velocity":32,"Duration":554516,"SoundDuration":554516,"Delta":426287444},{"NoteNumber":47,"Velocity":38,"Duration":110294,"SoundDuration":110294,"Delta":426287444},{"NoteNumber":54,"Velocity":24,"Duration":118172,"SoundDuration":118172,"Delta":426397738},{"NoteNumber":42,"Velocity":35,"Duration":444222,"SoundDuration":444222,"Delta":426397738},{"NoteNumber":59,"Velocity":27,"Duration":126050,"SoundDuration":126050,"Delta":426515910},{"NoteNumber":66,"Velocity":24,"Duration":199999,"SoundDuration":199999,"Delta":426641961},{"NoteNumber":63,"Velocity":19,"Duration":199999,"SoundDuration":199999,"Delta":426641961},{"NoteNumber":71,"Velocity":35,"Duration":870600,"SoundDuration":870600,"Delta":426841961},{"NoteNumber":78,"Velocity":50,"Duration":351562,"SoundDuration":351562,"Delta":426841961},{"NoteNumber":62,"Velocity":34,"Duration":117187,"SoundDuration":117187,"Delta":426841961},{"NoteNumber":73,"Velocity":25,"Duration":117187,"SoundDuration":117187,"Delta":426959148},{"NoteNumber":66,"Velocity":25,"Duration":117187,"SoundDuration":117187,"Delta":427076336},{"NoteNumber":80,"Velocity":36,"Duration":50335,"SoundDuration":50335,"Delta":427193523},{"NoteNumber":73,"Velocity":25,"Duration":100671,"SoundDuration":100671,"Delta":427193523},{"NoteNumber":78,"Velocity":36,"Duration":50335,"SoundDuration":50335,"Delta":427243859},{"NoteNumber":77,"Velocity":50,"Duration":214285,"SoundDuration":214285,"Delta":427294195},{"NoteNumber":62,"Velocity":31,"Duration":107142,"SoundDuration":107142,"Delta":427294195},{"NoteNumber":73,"Velocity":25,"Duration":107142,"SoundDuration":107142,"Delta":427401337},{"NoteNumber":78,"Velocity":41,"Duration":153061,"SoundDuration":153061,"Delta":427508480},{"NoteNumber":66,"Velocity":25,"Duration":102040,"SoundDuration":102040,"Delta":427508480},{"NoteNumber":73,"Velocity":25,"Duration":102040,"SoundDuration":102040,"Delta":427610521},{"NoteNumber":81,"Velocity":35,"Duration":51020,"SoundDuration":51020,"Delta":427661541},{"NoteNumber":71,"Velocity":29,"Duration":450432,"SoundDuration":450432,"Delta":427712562},{"NoteNumber":80,"Velocity":43,"Duration":400763,"SoundDuration":400763,"Delta":427712562},{"NoteNumber":64,"Velocity":34,"Duration":114503,"SoundDuration":114503,"Delta":427712562},{"NoteNumber":73,"Velocity":25,"Duration":114503,"SoundDuration":114503,"Delta":427827065},{"NoteNumber":68,"Velocity":25,"Duration":114503,"SoundDuration":114503,"Delta":427941569},{"NoteNumber":73,"Velocity":25,"Duration":106920,"SoundDuration":106920,"Delta":428056073},{"NoteNumber":80,"Velocity":35,"Duration":49668,"SoundDuration":49668,"Delta":428113325},{"NoteNumber":71,"Velocity":29,"Duration":444443,"SoundDuration":444443,"Delta":428162994},{"NoteNumber":78,"Velocity":43,"Duration":444443,"SoundDuration":444443,"Delta":428162994},{"NoteNumber":62,"Velocity":31,"Duration":111110,"SoundDuration":111110,"Delta":428162994},{"NoteNumber":73,"Velocity":25,"Duration":111110,"SoundDuration":111110,"Delta":428274105},{"NoteNumber":66,"Velocity":25,"Duration":111110,"SoundDuration":111110,"Delta":428385216},{"NoteNumber":73,"Velocity":25,"Duration":111110,"SoundDuration":111110,"Delta":428496327},{"NoteNumber":37,"Velocity":44,"Duration":430537,"SoundDuration":430537,"Delta":428607438},{"NoteNumber":49,"Velocity":52,"Duration":105633,"SoundDuration":105633,"Delta":428607438},{"NoteNumber":54,"Velocity":36,"Duration":105633,"SoundDuration":105633,"Delta":428713071},{"NoteNumber":42,"Velocity":47,"Duration":324903,"SoundDuration":324903,"Delta":428713071},{"NoteNumber":58,"Velocity":41,"Duration":105633,"SoundDuration":105633,"Delta":428818705},{"NoteNumber":66,"Velocity":36,"Duration":113636,"SoundDuration":113636,"Delta":428924339},{"NoteNumber":64,"Velocity":28,"Duration":113636,"SoundDuration":113636,"Delta":428924339},{"NoteNumber":35,"Velocity":32,"Duration":555046,"SoundDuration":555046,"Delta":429037975},{"NoteNumber":47,"Velocity":38,"Duration":110294,"SoundDuration":110294,"Delta":429037975},{"NoteNumber":54,"Velocity":24,"Duration":118172,"SoundDuration":118172,"Delta":429148269},{"NoteNumber":42,"Velocity":35,"Duration":444752,"SoundDuration":444752,"Delta":429148269},{"NoteNumber":59,"Velocity":27,"Duration":126050,"SoundDuration":126050,"Delta":429266441},{"NoteNumber":66,"Velocity":24,"Duration":153061,"SoundDuration":153061,"Delta":429392492},{"NoteNumber":63,"Velocity":19,"Duration":153061,"SoundDuration":153061,"Delta":429392492},{"NoteNumber":81,"Velocity":37,"Duration":47468,"SoundDuration":47468,"Delta":429545553},{"NoteNumber":80,"Velocity":50,"Duration":110294,"SoundDuration":110294,"Delta":429593022},{"NoteNumber":62,"Velocity":34,"Duration":110294,"SoundDuration":110294,"Delta":429593022},{"NoteNumber":73,"Velocity":25,"Duration":102316,"SoundDuration":102316,"Delta":429703316},{"NoteNumber":80,"Velocity":37,"Duration":47169,"SoundDuration":47169,"Delta":429758463},{"NoteNumber":78,"Velocity":50,"Duration":107913,"SoundDuration":107913,"Delta":429805632},{"NoteNumber":66,"Velocity":25,"Duration":107913,"SoundDuration":107913,"Delta":429805632},{"NoteNumber":73,"Velocity":25,"Duration":100741,"SoundDuration":100741,"Delta":429913546},{"NoteNumber":78,"Velocity":37,"Duration":47169,"SoundDuration":47169,"Delta":429967117},{"NoteNumber":77,"Velocity":50,"Duration":111940,"SoundDuration":111940,"Delta":430014287},{"NoteNumber":62,"Velocity":31,"Duration":111940,"SoundDuration":111940,"Delta":430014287},{"NoteNumber":71,"Velocity":25,"Duration":103438,"SoundDuration":103438,"Delta":430126227},{"NoteNumber":77,"Velocity":37,"Duration":47468,"SoundDuration":47468,"Delta":430182198},{"NoteNumber":74,"Velocity":50,"Duration":118110,"SoundDuration":118110,"Delta":430229666},{"NoteNumber":66,"Velocity":25,"Duration":118110,"SoundDuration":118110,"Delta":430229666},{"NoteNumber":71,"Velocity":25,"Duration":118110,"SoundDuration":118110,"Delta":430347776},{"NoteNumber":73,"Velocity":50,"Duration":114503,"SoundDuration":114503,"Delta":430465886},{"NoteNumber":65,"Velocity":34,"Duration":114503,"SoundDuration":114503,"Delta":430465886},{"NoteNumber":71,"Velocity":25,"Duration":114503,"SoundDuration":114503,"Delta":430580390},{"NoteNumber":85,"Velocity":50,"Duration":114503,"SoundDuration":114503,"Delta":430694894},{"NoteNumber":68,"Velocity":25,"Duration":114503,"SoundDuration":114503,"Delta":430694894},{"NoteNumber":71,"Velocity":25,"Duration":114503,"SoundDuration":114503,"Delta":430809398},{"NoteNumber":85,"Velocity":50,"Duration":114503,"SoundDuration":114503,"Delta":430923901},{"NoteNumber":66,"Velocity":31,"Duration":114503,"SoundDuration":114503,"Delta":430923901},{"NoteNumber":76,"Velocity":25,"Duration":114503,"SoundDuration":114503,"Delta":431038405},{"NoteNumber":97,"Velocity":50,"Duration":114503,"SoundDuration":114503,"Delta":431152909},{"NoteNumber":70,"Velocity":25,"Duration":114503,"SoundDuration":114503,"Delta":431152909},{"NoteNumber":76,"Velocity":25,"Duration":126050,"SoundDuration":126050,"Delta":431267413},{"NoteNumber":42,"Velocity":46,"Duration":430259,"SoundDuration":430259,"Delta":431393463},{"NoteNumber":54,"Velocity":32,"Duration":106382,"SoundDuration":106382,"Delta":431499846},{"NoteNumber":49,"Velocity":42,"Duration":323876,"SoundDuration":323876,"Delta":431499846},{"NoteNumber":58,"Velocity":36,"Duration":106382,"SoundDuration":106382,"Delta":431606229},{"NoteNumber":66,"Velocity":32,"Duration":111110,"SoundDuration":111110,"Delta":431712612},{"NoteNumber":64,"Velocity":25,"Duration":111110,"SoundDuration":111110,"Delta":431712612},{"NoteNumber":35,"Velocity":34,"Duration":554516,"SoundDuration":554516,"Delta":431823723},{"NoteNumber":54,"Velocity":21,"Duration":118172,"SoundDuration":118172,"Delta":431934017},{"NoteNumber":47,"Velocity":31,"Duration":444222,"SoundDuration":444222,"Delta":431934017},{"NoteNumber":59,"Velocity":24,"Duration":126050,"SoundDuration":126050,"Delta":432052189},{"NoteNumber":66,"Velocity":21,"Duration":199999,"SoundDuration":199999,"Delta":432178240},{"NoteNumber":63,"Velocity":17,"Duration":199999,"SoundDuration":199999,"Delta":432178240},{"NoteNumber":71,"Velocity":35,"Duration":870600,"SoundDuration":870600,"Delta":432378240},{"NoteNumber":78,"Velocity":50,"Duration":351562,"SoundDuration":351562,"Delta":432378240},{"NoteNumber":62,"Velocity":34,"Duration":117187,"SoundDuration":117187,"Delta":432378240},{"NoteNumber":73,"Velocity":25,"Duration":117187,"SoundDuration":117187,"Delta":432495427},{"NoteNumber":66,"Velocity":25,"Duration":117187,"SoundDuration":117187,"Delta":432612615},{"NoteNumber":80,"Velocity":36,"Duration":50335,"SoundDuration":50335,"Delta":432729802},{"NoteNumber":73,"Velocity":25,"Duration":100671,"SoundDuration":100671,"Delta":432729802},{"NoteNumber":78,"Velocity":36,"Duration":50335,"SoundDuration":50335,"Delta":432780138},{"NoteNumber":77,"Velocity":50,"Duration":214285,"SoundDuration":214285,"Delta":432830474},{"NoteNumber":62,"Velocity":31,"Duration":107142,"SoundDuration":107142,"Delta":432830474},{"NoteNumber":73,"Velocity":25,"Duration":107142,"SoundDuration":107142,"Delta":432937616},{"NoteNumber":78,"Velocity":41,"Duration":153061,"SoundDuration":153061,"Delta":433044759},{"NoteNumber":66,"Velocity":25,"Duration":102040,"SoundDuration":102040,"Delta":433044759},{"NoteNumber":73,"Velocity":25,"Duration":102040,"SoundDuration":102040,"Delta":433146800},{"NoteNumber":81,"Velocity":35,"Duration":51020,"SoundDuration":51020,"Delta":433197820},{"NoteNumber":71,"Velocity":29,"Duration":450432,"SoundDuration":450432,"Delta":433248841},{"NoteNumber":80,"Velocity":43,"Duration":400763,"SoundDuration":400763,"Delta":433248841},{"NoteNumber":64,"Velocity":34,"Duration":114503,"SoundDuration":114503,"Delta":433248841},{"NoteNumber":73,"Velocity":25,"Duration":114503,"SoundDuration":114503,"Delta":433363344},{"NoteNumber":68,"Velocity":25,"Duration":114503,"SoundDuration":114503,"Delta":433477848},{"NoteNumber":73,"Velocity":25,"Duration":106920,"SoundDuration":106920,"Delta":433592352},{"NoteNumber":80,"Velocity":35,"Duration":49668,"SoundDuration":49668,"Delta":433649604},{"NoteNumber":71,"Velocity":29,"Duration":444443,"SoundDuration":444443,"Delta":433699273},{"NoteNumber":78,"Velocity":43,"Duration":444443,"SoundDuration":444443,"Delta":433699273},{"NoteNumber":62,"Velocity":31,"Duration":111110,"SoundDuration":111110,"Delta":433699273},{"NoteNumber":73,"Velocity":25,"Duration":111110,"SoundDuration":111110,"Delta":433810384},{"NoteNumber":66,"Velocity":25,"Duration":111110,"SoundDuration":111110,"Delta":433921495},{"NoteNumber":73,"Velocity":25,"Duration":111110,"SoundDuration":111110,"Delta":434032606},{"NoteNumber":37,"Velocity":39,"Duration":428012,"SoundDuration":428012,"Delta":434143717},{"NoteNumber":49,"Velocity":46,"Duration":105633,"SoundDuration":105633,"Delta":434143717},{"NoteNumber":54,"Velocity":32,"Duration":105633,"SoundDuration":105633,"Delta":434249350},{"NoteNumber":42,"Velocity":42,"Duration":322378,"SoundDuration":322378,"Delta":434249350},{"NoteNumber":58,"Velocity":36,"Duration":105633,"SoundDuration":105633,"Delta":434354984},{"NoteNumber":66,"Velocity":32,"Duration":111110,"SoundDuration":111110,"Delta":434460618},{"NoteNumber":64,"Velocity":25,"Duration":111110,"SoundDuration":111110,"Delta":434460618},{"NoteNumber":35,"Velocity":28,"Duration":555046,"SoundDuration":555046,"Delta":434571729},{"NoteNumber":47,"Velocity":34,"Duration":110294,"SoundDuration":110294,"Delta":434571729},{"NoteNumber":54,"Velocity":21,"Duration":118172,"SoundDuration":118172,"Delta":434682023},{"NoteNumber":42,"Velocity":31,"Duration":444752,"SoundDuration":444752,"Delta":434682023},{"NoteNumber":59,"Velocity":24,"Duration":126050,"SoundDuration":126050,"Delta":434800195},{"NoteNumber":66,"Velocity":24,"Duration":153061,"SoundDuration":153061,"Delta":434926246},{"NoteNumber":63,"Velocity":19,"Duration":153061,"SoundDuration":153061,"Delta":434926246},{"NoteNumber":81,"Velocity":37,"Duration":47468,"SoundDuration":47468,"Delta":435079307},{"NoteNumber":80,"Velocity":50,"Duration":108695,"SoundDuration":108695,"Delta":435126775},{"NoteNumber":62,"Velocity":34,"Duration":108695,"SoundDuration":108695,"Delta":435126775},{"NoteNumber":73,"Velocity":25,"Duration":101517,"SoundDuration":101517,"Delta":435235471},{"NoteNumber":80,"Velocity":37,"Duration":47169,"SoundDuration":47169,"Delta":435289819},{"NoteNumber":78,"Velocity":50,"Duration":111110,"SoundDuration":111110,"Delta":435336989},{"NoteNumber":66,"Velocity":25,"Duration":111110,"SoundDuration":111110,"Delta":435336989},{"NoteNumber":73,"Velocity":25,"Duration":102725,"SoundDuration":102725,"Delta":435448100},{"NoteNumber":78,"Velocity":37,"Duration":47169,"SoundDuration":47169,"Delta":435503655},{"NoteNumber":77,"Velocity":50,"Duration":112781,"SoundDuration":112781,"Delta":435550825},{"NoteNumber":62,"Velocity":31,"Duration":112781,"SoundDuration":112781,"Delta":435550825},{"NoteNumber":71,"Velocity":25,"Duration":103859,"SoundDuration":103859,"Delta":435663607},{"NoteNumber":77,"Velocity":37,"Duration":47468,"SoundDuration":47468,"Delta":435719998},{"NoteNumber":74,"Velocity":50,"Duration":113636,"SoundDuration":113636,"Delta":435767466},{"NoteNumber":66,"Velocity":25,"Duration":113636,"SoundDuration":113636,"Delta":435767466},{"NoteNumber":71,"Velocity":25,"Duration":113636,"SoundDuration":113636,"Delta":435881103},{"NoteNumber":73,"Velocity":50,"Duration":114503,"SoundDuration":114503,"Delta":435994739},{"NoteNumber":65,"Velocity":34,"Duration":114503,"SoundDuration":114503,"Delta":435994739},{"NoteNumber":71,"Velocity":25,"Duration":114503,"SoundDuration":114503,"Delta":436109243},{"NoteNumber":85,"Velocity":50,"Duration":114503,"SoundDuration":114503,"Delta":436223746},{"NoteNumber":68,"Velocity":25,"Duration":114503,"SoundDuration":114503,"Delta":436223746},{"NoteNumber":71,"Velocity":25,"Duration":114503,"SoundDuration":114503,"Delta":436338250},{"NoteNumber":85,"Velocity":50,"Duration":114503,"SoundDuration":114503,"Delta":436452754},{"NoteNumber":66,"Velocity":31,"Duration":114503,"SoundDuration":114503,"Delta":436452754},{"NoteNumber":76,"Velocity":25,"Duration":114503,"SoundDuration":114503,"Delta":436567258},{"NoteNumber":97,"Velocity":50,"Duration":131578,"SoundDuration":131578,"Delta":436681761},{"NoteNumber":70,"Velocity":25,"Duration":131578,"SoundDuration":131578,"Delta":436681761},{"NoteNumber":76,"Velocity":25,"Duration":131578,"SoundDuration":131578,"Delta":436813340},{"NoteNumber":42,"Velocity":44,"Duration":536246,"SoundDuration":536246,"Delta":436944919},{"NoteNumber":54,"Velocity":30,"Duration":131578,"SoundDuration":131578,"Delta":437076498},{"NoteNumber":49,"Velocity":39,"Duration":404667,"SoundDuration":404667,"Delta":437076498},{"NoteNumber":58,"Velocity":34,"Duration":131579,"SoundDuration":131579,"Delta":437208077},{"NoteNumber":66,"Velocity":30,"Duration":141509,"SoundDuration":141509,"Delta":437339656},{"NoteNumber":64,"Velocity":23,"Duration":141509,"SoundDuration":141509,"Delta":437339656},{"NoteNumber":35,"Velocity":32,"Duration":735294,"SoundDuration":735294,"Delta":437481166},{"NoteNumber":54,"Velocity":20,"Duration":147058,"SoundDuration":147058,"Delta":437628225},{"NoteNumber":47,"Velocity":29,"Duration":588235,"SoundDuration":588235,"Delta":437628225},{"NoteNumber":59,"Velocity":22,"Duration":147058,"SoundDuration":147058,"Delta":437775283},{"NoteNumber":66,"Velocity":20,"Duration":294117,"SoundDuration":294117,"Delta":437922342},{"NoteNumber":63,"Velocity":16,"Duration":294117,"SoundDuration":294117,"Delta":437922342},{"NoteNumber":81,"Velocity":42,"Duration":452233,"SoundDuration":452233,"Delta":438216460},{"NoteNumber":93,"Velocity":50,"Duration":351562,"SoundDuration":351562,"Delta":438216460},{"NoteNumber":51,"Velocity":34,"Duration":156250,"SoundDuration":156250,"Delta":438216460},{"NoteNumber":61,"Velocity":25,"Duration":156250,"SoundDuration":156250,"Delta":438372710},{"NoteNumber":59,"Velocity":25,"Duration":139733,"SoundDuration":139733,"Delta":438528960},{"NoteNumber":95,"Velocity":36,"Duration":50335,"SoundDuration":50335,"Delta":438568022},{"NoteNumber":93,"Velocity":36,"Duration":50335,"SoundDuration":50335,"Delta":438618358},{"NoteNumber":80,"Velocity":42,"Duration":222221,"SoundDuration":222221,"Delta":438668694},{"NoteNumber":92,"Velocity":50,"Duration":222221,"SoundDuration":222221,"Delta":438668694},{"NoteNumber":69,"Velocity":31,"Duration":111110,"SoundDuration":111110,"Delta":438668694},{"NoteNumber":66,"Velocity":25,"Duration":111110,"SoundDuration":111110,"Delta":438779805},{"NoteNumber":78,"Velocity":34,"Duration":208333,"SoundDuration":208333,"Delta":438890916},{"NoteNumber":90,"Velocity":41,"Duration":208333,"SoundDuration":208333,"Delta":438890916},{"NoteNumber":61,"Velocity":25,"Duration":104166,"SoundDuration":104166,"Delta":438890916},{"NoteNumber":59,"Velocity":25,"Duration":104166,"SoundDuration":104166,"Delta":438995082},{"NoteNumber":83,"Velocity":36,"Duration":229007,"SoundDuration":229007,"Delta":439099249},{"NoteNumber":95,"Velocity":43,"Duration":229007,"SoundDuration":229007,"Delta":439099249},{"NoteNumber":52,"Velocity":34,"Duration":152671,"SoundDuration":152671,"Delta":439099249},{"NoteNumber":61,"Velocity":25,"Duration":152671,"SoundDuration":152671,"Delta":439251921},{"NoteNumber":75,"Velocity":38,"Duration":221424,"SoundDuration":221424,"Delta":439328257},{"NoteNumber":87,"Velocity":45,"Duration":171755,"SoundDuration":171755,"Delta":439328257},{"NoteNumber":59,"Velocity":25,"Duration":145088,"SoundDuration":145088,"Delta":439404592},{"NoteNumber":90,"Velocity":35,"Duration":49668,"SoundDuration":49668,"Delta":439500012},{"NoteNumber":76,"Velocity":36,"Duration":444443,"SoundDuration":444443,"Delta":439549681},{"NoteNumber":88,"Velocity":43,"Duration":444443,"SoundDuration":444443,"Delta":439549681},{"NoteNumber":68,"Velocity":31,"Duration":111110,"SoundDuration":111110,"Delta":439549681},{"NoteNumber":64,"Velocity":25,"Duration":111110,"SoundDuration":111110,"Delta":439660792},{"NoteNumber":61,"Velocity":25,"Duration":111110,"SoundDuration":111110,"Delta":439771903},{"NoteNumber":59,"Velocity":25,"Duration":111110,"SoundDuration":111110,"Delta":439883014},{"NoteNumber":81,"Velocity":42,"Duration":444182,"SoundDuration":444182,"Delta":439994125},{"NoteNumber":93,"Velocity":50,"Duration":343511,"SoundDuration":343511,"Delta":439994125},{"NoteNumber":51,"Velocity":34,"Duration":152671,"SoundDuration":152671,"Delta":439994125},{"NoteNumber":61,"Velocity":25,"Duration":152671,"SoundDuration":152671,"Delta":440146797},{"NoteNumber":59,"Velocity":25,"Duration":138839,"SoundDuration":138839,"Delta":440299468},{"NoteNumber":95,"Velocity":36,"Duration":50335,"SoundDuration":50335,"Delta":440337636},{"NoteNumber":93,"Velocity":36,"Duration":50335,"SoundDuration":50335,"Delta":440387972},{"NoteNumber":80,"Velocity":42,"Duration":214285,"SoundDuration":214285,"Delta":440438308},{"NoteNumber":92,"Velocity":50,"Duration":214285,"SoundDuration":214285,"Delta":440438308},{"NoteNumber":69,"Velocity":31,"Duration":107142,"SoundDuration":107142,"Delta":440438308},{"NoteNumber":66,"Velocity":25,"Duration":107142,"SoundDuration":107142,"Delta":440545450},{"NoteNumber":78,"Velocity":34,"Duration":204081,"SoundDuration":204081,"Delta":440652593},{"NoteNumber":90,"Velocity":41,"Duration":204081,"SoundDuration":204081,"Delta":440652593},{"NoteNumber":61,"Velocity":25,"Duration":102040,"SoundDuration":102040,"Delta":440652593},{"NoteNumber":59,"Velocity":25,"Duration":102040,"SoundDuration":102040,"Delta":440754634},{"NoteNumber":83,"Velocity":37,"Duration":229007,"SoundDuration":229007,"Delta":440856675},{"NoteNumber":95,"Velocity":44,"Duration":229007,"SoundDuration":229007,"Delta":440856675},{"NoteNumber":52,"Velocity":34,"Duration":152671,"SoundDuration":152671,"Delta":440856675},{"NoteNumber":61,"Velocity":25,"Duration":152671,"SoundDuration":152671,"Delta":441009346},{"NoteNumber":75,"Velocity":38,"Duration":221424,"SoundDuration":221424,"Delta":441085682},{"NoteNumber":87,"Velocity":45,"Duration":171755,"SoundDuration":171755,"Delta":441085682},{"NoteNumber":59,"Velocity":25,"Duration":145088,"SoundDuration":145088,"Delta":441162018},{"NoteNumber":90,"Velocity":35,"Duration":49668,"SoundDuration":49668,"Delta":441257438},{"NoteNumber":76,"Velocity":36,"Duration":466124,"SoundDuration":466124,"Delta":441307107},{"NoteNumber":88,"Velocity":43,"Duration":466124,"SoundDuration":466124,"Delta":441307107},{"NoteNumber":68,"Velocity":31,"Duration":111110,"SoundDuration":111110,"Delta":441307107},{"NoteNumber":64,"Velocity":25,"Duration":111110,"SoundDuration":111110,"Delta":441418218},{"NoteNumber":61,"Velocity":25,"Duration":121951,"SoundDuration":121951,"Delta":441529329},{"NoteNumber":59,"Velocity":25,"Duration":121951,"SoundDuration":121951,"Delta":441651280},{"NoteNumber":37,"Velocity":41,"Duration":434088,"SoundDuration":434088,"Delta":441773231},{"NoteNumber":49,"Velocity":49,"Duration":105633,"SoundDuration":105633,"Delta":441773231},{"NoteNumber":54,"Velocity":34,"Duration":105633,"SoundDuration":105633,"Delta":441878865},{"NoteNumber":42,"Velocity":44,"Duration":328455,"SoundDuration":328455,"Delta":441878865},{"NoteNumber":58,"Velocity":38,"Duration":105633,"SoundDuration":105633,"Delta":441984499},{"NoteNumber":66,"Velocity":34,"Duration":117187,"SoundDuration":117187,"Delta":442090132},{"NoteNumber":64,"Velocity":26,"Duration":117187,"SoundDuration":117187,"Delta":442090132},{"NoteNumber":35,"Velocity":30,"Duration":536512,"SoundDuration":536512,"Delta":442207320},{"NoteNumber":47,"Velocity":36,"Duration":110294,"SoundDuration":110294,"Delta":442207320},{"NoteNumber":54,"Velocity":22,"Duration":110294,"SoundDuration":110294,"Delta":442317614},{"NoteNumber":42,"Velocity":33,"Duration":426218,"SoundDuration":426218,"Delta":442317614},{"NoteNumber":59,"Velocity":25,"Duration":126050,"SoundDuration":126050,"Delta":442427908},{"NoteNumber":66,"Velocity":22,"Duration":189873,"SoundDuration":189873,"Delta":442553958},{"NoteNumber":63,"Velocity":18,"Duration":189873,"SoundDuration":189873,"Delta":442553958},{"NoteNumber":81,"Velocity":42,"Duration":452233,"SoundDuration":452233,"Delta":442743832},{"NoteNumber":93,"Velocity":50,"Duration":351562,"SoundDuration":351562,"Delta":442743832},{"NoteNumber":51,"Velocity":34,"Duration":156250,"SoundDuration":156250,"Delta":442743832},{"NoteNumber":61,"Velocity":25,"Duration":156250,"SoundDuration":156250,"Delta":442900082},{"NoteNumber":59,"Velocity":25,"Duration":139733,"SoundDuration":139733,"Delta":443056332},{"NoteNumber":95,"Velocity":36,"Duration":50335,"SoundDuration":50335,"Delta":443095394},{"NoteNumber":93,"Velocity":36,"Duration":50335,"SoundDuration":50335,"Delta":443145730},{"NoteNumber":80,"Velocity":42,"Duration":222221,"SoundDuration":222221,"Delta":443196066},{"NoteNumber":92,"Velocity":50,"Duration":222221,"SoundDuration":222221,"Delta":443196066},{"NoteNumber":69,"Velocity":31,"Duration":111110,"SoundDuration":111110,"Delta":443196066},{"NoteNumber":66,"Velocity":25,"Duration":111110,"SoundDuration":111110,"Delta":443307177},{"NoteNumber":78,"Velocity":34,"Duration":208333,"SoundDuration":208333,"Delta":443418288},{"NoteNumber":90,"Velocity":41,"Duration":208333,"SoundDuration":208333,"Delta":443418288},{"NoteNumber":61,"Velocity":25,"Duration":104166,"SoundDuration":104166,"Delta":443418288},{"NoteNumber":59,"Velocity":25,"Duration":104166,"SoundDuration":104166,"Delta":443522454},{"NoteNumber":83,"Velocity":36,"Duration":229007,"SoundDuration":229007,"Delta":443626621},{"NoteNumber":95,"Velocity":43,"Duration":229007,"SoundDuration":229007,"Delta":443626621},{"NoteNumber":52,"Velocity":34,"Duration":152671,"SoundDuration":152671,"Delta":443626621},{"NoteNumber":61,"Velocity":25,"Duration":152671,"SoundDuration":152671,"Delta":443779293},{"NoteNumber":75,"Velocity":38,"Duration":221424,"SoundDuration":221424,"Delta":443855629},{"NoteNumber":87,"Velocity":45,"Duration":171755,"SoundDuration":171755,"Delta":443855629},{"NoteNumber":59,"Velocity":25,"Duration":145088,"SoundDuration":145088,"Delta":443931964},{"NoteNumber":90,"Velocity":35,"Duration":49668,"SoundDuration":49668,"Delta":444027384},{"NoteNumber":76,"Velocity":36,"Duration":444443,"SoundDuration":444443,"Delta":444077053},{"NoteNumber":88,"Velocity":43,"Duration":444443,"SoundDuration":444443,"Delta":444077053},{"NoteNumber":68,"Velocity":31,"Duration":111110,"SoundDuration":111110,"Delta":444077053},{"NoteNumber":64,"Velocity":25,"Duration":111110,"SoundDuration":111110,"Delta":444188164},{"NoteNumber":61,"Velocity":25,"Duration":111110,"SoundDuration":111110,"Delta":444299275},{"NoteNumber":59,"Velocity":25,"Duration":111110,"SoundDuration":111110,"Delta":444410386},{"NoteNumber":81,"Velocity":42,"Duration":444182,"SoundDuration":444182,"Delta":444521497},{"NoteNumber":93,"Velocity":50,"Duration":343511,"SoundDuration":343511,"Delta":444521497},{"NoteNumber":51,"Velocity":34,"Duration":152671,"SoundDuration":152671,"Delta":444521497},{"NoteNumber":61,"Velocity":25,"Duration":152671,"SoundDuration":152671,"Delta":444674169},{"NoteNumber":59,"Velocity":25,"Duration":138839,"SoundDuration":138839,"Delta":444826840},{"NoteNumber":95,"Velocity":36,"Duration":50335,"SoundDuration":50335,"Delta":444865008},{"NoteNumber":93,"Velocity":36,"Duration":50335,"SoundDuration":50335,"Delta":444915344},{"NoteNumber":80,"Velocity":42,"Duration":214285,"SoundDuration":214285,"Delta":444965680},{"NoteNumber":92,"Velocity":50,"Duration":214285,"SoundDuration":214285,"Delta":444965680},{"NoteNumber":69,"Velocity":31,"Duration":107142,"SoundDuration":107142,"Delta":444965680},{"NoteNumber":66,"Velocity":25,"Duration":107142,"SoundDuration":107142,"Delta":445072822},{"NoteNumber":78,"Velocity":34,"Duration":204081,"SoundDuration":204081,"Delta":445179965},{"NoteNumber":90,"Velocity":41,"Duration":204081,"SoundDuration":204081,"Delta":445179965},{"NoteNumber":61,"Velocity":25,"Duration":102040,"SoundDuration":102040,"Delta":445179965},{"NoteNumber":59,"Velocity":25,"Duration":102040,"SoundDuration":102040,"Delta":445282006},{"NoteNumber":83,"Velocity":37,"Duration":229007,"SoundDuration":229007,"Delta":445384047},{"NoteNumber":95,"Velocity":44,"Duration":229007,"SoundDuration":229007,"Delta":445384047},{"NoteNumber":52,"Velocity":34,"Duration":152671,"SoundDuration":152671,"Delta":445384047},{"NoteNumber":61,"Velocity":25,"Duration":152671,"SoundDuration":152671,"Delta":445536718},{"NoteNumber":75,"Velocity":38,"Duration":221424,"SoundDuration":221424,"Delta":445613054},{"NoteNumber":87,"Velocity":45,"Duration":171755,"SoundDuration":171755,"Delta":445613054},{"NoteNumber":59,"Velocity":25,"Duration":145088,"SoundDuration":145088,"Delta":445689390},{"NoteNumber":90,"Velocity":35,"Duration":49668,"SoundDuration":49668,"Delta":445784810},{"NoteNumber":76,"Velocity":36,"Duration":466124,"SoundDuration":466124,"Delta":445834479},{"NoteNumber":88,"Velocity":43,"Duration":466124,"SoundDuration":466124,"Delta":445834479},{"NoteNumber":68,"Velocity":31,"Duration":111110,"SoundDuration":111110,"Delta":445834479},{"NoteNumber":64,"Velocity":25,"Duration":111110,"SoundDuration":111110,"Delta":445945590},{"NoteNumber":61,"Velocity":25,"Duration":121951,"SoundDuration":121951,"Delta":446056701},{"NoteNumber":59,"Velocity":25,"Duration":121951,"SoundDuration":121951,"Delta":446178652},{"NoteNumber":37,"Velocity":41,"Duration":434088,"SoundDuration":434088,"Delta":446300603},{"NoteNumber":49,"Velocity":49,"Duration":105633,"SoundDuration":105633,"Delta":446300603},{"NoteNumber":54,"Velocity":34,"Duration":105633,"SoundDuration":105633,"Delta":446406237},{"NoteNumber":42,"Velocity":44,"Duration":328455,"SoundDuration":328455,"Delta":446406237},{"NoteNumber":58,"Velocity":38,"Duration":105633,"SoundDuration":105633,"Delta":446511871},{"NoteNumber":66,"Velocity":34,"Duration":117187,"SoundDuration":117187,"Delta":446617504},{"NoteNumber":64,"Velocity":26,"Duration":117187,"SoundDuration":117187,"Delta":446617504},{"NoteNumber":35,"Velocity":30,"Duration":536512,"SoundDuration":536512,"Delta":446734692},{"NoteNumber":47,"Velocity":36,"Duration":110294,"SoundDuration":110294,"Delta":446734692},{"NoteNumber":54,"Velocity":22,"Duration":110294,"SoundDuration":110294,"Delta":446844986},{"NoteNumber":42,"Velocity":33,"Duration":426218,"SoundDuration":426218,"Delta":446844986},{"NoteNumber":59,"Velocity":25,"Duration":126050,"SoundDuration":126050,"Delta":446955280},{"NoteNumber":66,"Velocity":22,"Duration":189873,"SoundDuration":189873,"Delta":447081330},{"NoteNumber":63,"Velocity":18,"Duration":189873,"SoundDuration":189873,"Delta":447081330},{"NoteNumber":78,"Velocity":42,"Duration":452233,"SoundDuration":452233,"Delta":447271204},{"NoteNumber":90,"Velocity":50,"Duration":351562,"SoundDuration":351562,"Delta":447271204},{"NoteNumber":50,"Velocity":34,"Duration":156250,"SoundDuration":156250,"Delta":447271204},{"NoteNumber":61,"Velocity":25,"Duration":156250,"SoundDuration":156250,"Delta":447427454},{"NoteNumber":59,"Velocity":25,"Duration":139733,"SoundDuration":139733,"Delta":447583704},{"NoteNumber":92,"Velocity":36,"Duration":50335,"SoundDuration":50335,"Delta":447622766},{"NoteNumber":90,"Velocity":36,"Duration":50335,"SoundDuration":50335,"Delta":447673102},{"NoteNumber":77,"Velocity":42,"Duration":214285,"SoundDuration":214285,"Delta":447723438},{"NoteNumber":89,"Velocity":50,"Duration":214285,"SoundDuration":214285,"Delta":447723438},{"NoteNumber":66,"Velocity":34,"Duration":142856,"SoundDuration":142856,"Delta":447723438},{"NoteNumber":61,"Velocity":25,"Duration":139455,"SoundDuration":139455,"Delta":447866295},{"NoteNumber":78,"Velocity":34,"Duration":204081,"SoundDuration":204081,"Delta":447937723},{"NoteNumber":90,"Velocity":41,"Duration":153061,"SoundDuration":153061,"Delta":447937723},{"NoteNumber":59,"Velocity":25,"Duration":136054,"SoundDuration":136054,"Delta":448005750},{"NoteNumber":93,"Velocity":35,"Duration":51020,"SoundDuration":51020,"Delta":448090784},{"NoteNumber":80,"Velocity":36,"Duration":450432,"SoundDuration":450432,"Delta":448141805},{"NoteNumber":92,"Velocity":43,"Duration":400763,"SoundDuration":400763,"Delta":448141805},{"NoteNumber":52,"Velocity":34,"Duration":152671,"SoundDuration":152671,"Delta":448141805},{"NoteNumber":59,"Velocity":29,"Duration":152671,"SoundDuration":152671,"Delta":448294476},{"NoteNumber":68,"Velocity":28,"Duration":145088,"SoundDuration":145088,"Delta":448447148},{"NoteNumber":92,"Velocity":35,"Duration":49668,"SoundDuration":49668,"Delta":448542568},{"NoteNumber":78,"Velocity":24,"Duration":444443,"SoundDuration":444443,"Delta":448592237},{"NoteNumber":90,"Velocity":43,"Duration":444443,"SoundDuration":444443,"Delta":448592237},{"NoteNumber":50,"Velocity":34,"Duration":148147,"SoundDuration":148147,"Delta":448592237},{"NoteNumber":59,"Velocity":27,"Duration":148147,"SoundDuration":148147,"Delta":448740385},{"NoteNumber":66,"Velocity":27,"Duration":148147,"SoundDuration":148147,"Delta":448888533},{"NoteNumber":37,"Velocity":44,"Duration":434088,"SoundDuration":434088,"Delta":449036681},{"NoteNumber":49,"Velocity":52,"Duration":105633,"SoundDuration":105633,"Delta":449036681},{"NoteNumber":54,"Velocity":36,"Duration":105633,"SoundDuration":105633,"Delta":449142314},{"NoteNumber":42,"Velocity":47,"Duration":328455,"SoundDuration":328455,"Delta":449142314},{"NoteNumber":58,"Velocity":41,"Duration":105633,"SoundDuration":105633,"Delta":449247948},{"NoteNumber":66,"Velocity":36,"Duration":117187,"SoundDuration":117187,"Delta":449353582},{"NoteNumber":64,"Velocity":28,"Duration":117187,"SoundDuration":117187,"Delta":449353582},{"NoteNumber":35,"Velocity":32,"Duration":489043,"SoundDuration":489043,"Delta":449470769},{"NoteNumber":47,"Velocity":38,"Duration":110294,"SoundDuration":110294,"Delta":449470769},{"NoteNumber":54,"Velocity":24,"Duration":110294,"SoundDuration":110294,"Delta":449581063},{"NoteNumber":42,"Velocity":35,"Duration":378749,"SoundDuration":378749,"Delta":449581063},{"NoteNumber":59,"Velocity":27,"Duration":126050,"SoundDuration":126050,"Delta":449691357},{"NoteNumber":66,"Velocity":24,"Duration":94936,"SoundDuration":94936,"Delta":449817408},{"NoteNumber":63,"Velocity":19,"Duration":94936,"SoundDuration":94936,"Delta":449817408},{"NoteNumber":93,"Velocity":37,"Duration":47468,"SoundDuration":47468,"Delta":449912345},{"NoteNumber":80,"Velocity":42,"Duration":108695,"SoundDuration":108695,"Delta":449959813},{"NoteNumber":92,"Velocity":50,"Duration":108695,"SoundDuration":108695,"Delta":449959813},{"NoteNumber":50,"Velocity":34,"Duration":144927,"SoundDuration":144927,"Delta":449959813},{"NoteNumber":61,"Velocity":25,"Duration":139359,"SoundDuration":139359,"Delta":450104741},{"NoteNumber":92,"Velocity":37,"Duration":47169,"SoundDuration":47169,"Delta":450122857},{"NoteNumber":78,"Velocity":42,"Duration":111110,"SoundDuration":111110,"Delta":450170026},{"NoteNumber":90,"Velocity":50,"Duration":111110,"SoundDuration":111110,"Delta":450170026},{"NoteNumber":59,"Velocity":25,"Duration":139762,"SoundDuration":139762,"Delta":450244100},{"NoteNumber":90,"Velocity":37,"Duration":47169,"SoundDuration":47169,"Delta":450336693},{"NoteNumber":76,"Velocity":42,"Duration":112781,"SoundDuration":112781,"Delta":450383863},{"NoteNumber":88,"Velocity":50,"Duration":112781,"SoundDuration":112781,"Delta":450383863},{"NoteNumber":66,"Velocity":34,"Duration":150375,"SoundDuration":150375,"Delta":450383863},{"NoteNumber":61,"Velocity":25,"Duration":142022,"SoundDuration":142022,"Delta":450534239},{"NoteNumber":88,"Velocity":37,"Duration":47468,"SoundDuration":47468,"Delta":450553036},{"NoteNumber":74,"Velocity":42,"Duration":113636,"SoundDuration":113636,"Delta":450600504},{"NoteNumber":86,"Velocity":50,"Duration":113636,"SoundDuration":113636,"Delta":450600504},{"NoteNumber":59,"Velocity":25,"Duration":151515,"SoundDuration":151515,"Delta":450676261},{"NoteNumber":73,"Velocity":50,"Duration":114503,"SoundDuration":114503,"Delta":450827776},{"NoteNumber":53,"Velocity":34,"Duration":152671,"SoundDuration":152671,"Delta":450827776},{"NoteNumber":59,"Velocity":29,"Duration":152671,"SoundDuration":152671,"Delta":450980448},{"NoteNumber":85,"Velocity":50,"Duration":114503,"SoundDuration":114503,"Delta":451056784},{"NoteNumber":68,"Velocity":28,"Duration":152671,"SoundDuration":152671,"Delta":451133120},{"NoteNumber":85,"Velocity":50,"Duration":114503,"SoundDuration":114503,"Delta":451285791},{"NoteNumber":54,"Velocity":34,"Duration":152671,"SoundDuration":152671,"Delta":451285791},{"NoteNumber":64,"Velocity":27,"Duration":170675,"SoundDuration":170675,"Delta":451438463},{"NoteNumber":97,"Velocity":50,"Duration":141509,"SoundDuration":141509,"Delta":451514799},{"NoteNumber":70,"Velocity":27,"Duration":188679,"SoundDuration":188679,"Delta":451609139},{"NoteNumber":42,"Velocity":44,"Duration":510084,"SoundDuration":510084,"Delta":451797818},{"NoteNumber":54,"Velocity":30,"Duration":121951,"SoundDuration":121951,"Delta":451919769},{"NoteNumber":49,"Velocity":39,"Duration":388133,"SoundDuration":388133,"Delta":451919769},{"NoteNumber":58,"Velocity":34,"Duration":121951,"SoundDuration":121951,"Delta":452041720},{"NoteNumber":66,"Velocity":30,"Duration":144230,"SoundDuration":144230,"Delta":452163672},{"NoteNumber":64,"Velocity":23,"Duration":144230,"SoundDuration":144230,"Delta":452163672},{"NoteNumber":35,"Velocity":32,"Duration":565923,"SoundDuration":565923,"Delta":452307902},{"NoteNumber":54,"Velocity":20,"Duration":125000,"SoundDuration":125000,"Delta":452432902},{"NoteNumber":47,"Velocity":29,"Duration":440923,"SoundDuration":440923,"Delta":452432902},{"NoteNumber":59,"Velocity":22,"Duration":126050,"SoundDuration":126050,"Delta":452557902},{"NoteNumber":66,"Velocity":20,"Duration":189873,"SoundDuration":189873,"Delta":452683953},{"NoteNumber":63,"Velocity":16,"Duration":189873,"SoundDuration":189873,"Delta":452683953},{"NoteNumber":78,"Velocity":42,"Duration":455729,"SoundDuration":455729,"Delta":452873826},{"NoteNumber":90,"Velocity":50,"Duration":351562,"SoundDuration":351562,"Delta":452873826},{"NoteNumber":50,"Velocity":34,"Duration":156250,"SoundDuration":156250,"Delta":452873826},{"NoteNumber":61,"Velocity":25,"Duration":156250,"SoundDuration":156250,"Delta":453030076},{"NoteNumber":59,"Velocity":25,"Duration":143229,"SoundDuration":143229,"Delta":453186326},{"NoteNumber":92,"Velocity":36,"Duration":52083,"SoundDuration":52083,"Delta":453225389},{"NoteNumber":90,"Velocity":36,"Duration":52083,"SoundDuration":52083,"Delta":453277472},{"NoteNumber":77,"Velocity":42,"Duration":220588,"SoundDuration":220588,"Delta":453329556},{"NoteNumber":89,"Velocity":50,"Duration":220588,"SoundDuration":220588,"Delta":453329556},{"NoteNumber":66,"Velocity":34,"Duration":147058,"SoundDuration":147058,"Delta":453329556},{"NoteNumber":61,"Velocity":25,"Duration":142973,"SoundDuration":142973,"Delta":453476614},{"NoteNumber":78,"Velocity":34,"Duration":208333,"SoundDuration":208333,"Delta":453550144},{"NoteNumber":90,"Velocity":41,"Duration":156250,"SoundDuration":156250,"Delta":453550144},{"NoteNumber":59,"Velocity":25,"Duration":138889,"SoundDuration":138889,"Delta":453619588},{"NoteNumber":93,"Velocity":35,"Duration":52083,"SoundDuration":52083,"Delta":453706394},{"NoteNumber":80,"Velocity":36,"Duration":466335,"SoundDuration":466335,"Delta":453758477},{"NoteNumber":92,"Velocity":43,"Duration":416666,"SoundDuration":416666,"Delta":453758477},{"NoteNumber":52,"Velocity":34,"Duration":158729,"SoundDuration":158729,"Delta":453758477},{"NoteNumber":59,"Velocity":29,"Duration":158729,"SoundDuration":158729,"Delta":453917207},{"NoteNumber":68,"Velocity":28,"Duration":148875,"SoundDuration":148875,"Delta":454075937},{"NoteNumber":92,"Velocity":35,"Duration":49668,"SoundDuration":49668,"Delta":454175143},{"NoteNumber":78,"Velocity":24,"Duration":444443,"SoundDuration":444443,"Delta":454224812},{"NoteNumber":90,"Velocity":43,"Duration":444443,"SoundDuration":444443,"Delta":454224812},{"NoteNumber":50,"Velocity":34,"Duration":148147,"SoundDuration":148147,"Delta":454224812},{"NoteNumber":59,"Velocity":27,"Duration":148147,"SoundDuration":148147,"Delta":454372960},{"NoteNumber":66,"Velocity":27,"Duration":148147,"SoundDuration":148147,"Delta":454521108},{"NoteNumber":37,"Velocity":44,"Duration":450054,"SoundDuration":450054,"Delta":454669256},{"NoteNumber":49,"Velocity":52,"Duration":108695,"SoundDuration":108695,"Delta":454669256},{"NoteNumber":54,"Velocity":36,"Duration":108695,"SoundDuration":108695,"Delta":454777952},{"NoteNumber":42,"Velocity":47,"Duration":341358,"SoundDuration":341358,"Delta":454777952},{"NoteNumber":58,"Velocity":41,"Duration":108695,"SoundDuration":108695,"Delta":454886648},{"NoteNumber":66,"Velocity":36,"Duration":123966,"SoundDuration":123966,"Delta":454995344},{"NoteNumber":64,"Velocity":28,"Duration":123966,"SoundDuration":123966,"Delta":454995344},{"NoteNumber":35,"Velocity":32,"Duration":488321,"SoundDuration":488321,"Delta":455119311},{"NoteNumber":47,"Velocity":38,"Duration":118110,"SoundDuration":118110,"Delta":455119311},{"NoteNumber":54,"Velocity":24,"Duration":118110,"SoundDuration":118110,"Delta":455237421},{"NoteNumber":42,"Velocity":35,"Duration":370211,"SoundDuration":370211,"Delta":455237421},{"NoteNumber":59,"Velocity":27,"Duration":126050,"SoundDuration":126050,"Delta":455355531},{"NoteNumber":63,"Velocity":19,"Duration":126050,"SoundDuration":126050,"Delta":455481582},{"NoteNumber":66,"Velocity":24,"Duration":126050,"SoundDuration":126050,"Delta":455481582},{"NoteNumber":93,"Velocity":45,"Duration":79101,"SoundDuration":79101,"Delta":455607632},{"NoteNumber":50,"Velocity":34,"Duration":156250,"SoundDuration":156250,"Delta":455607632},{"NoteNumber":92,"Velocity":44,"Duration":78125,"SoundDuration":78125,"Delta":455686734},{"NoteNumber":90,"Velocity":44,"Duration":78125,"SoundDuration":78125,"Delta":455763882},{"NoteNumber":61,"Velocity":25,"Duration":156250,"SoundDuration":156250,"Delta":455763882},{"NoteNumber":88,"Velocity":43,"Duration":78125,"SoundDuration":78125,"Delta":455842007},{"NoteNumber":86,"Velocity":43,"Duration":73784,"SoundDuration":73784,"Delta":455920132},{"NoteNumber":59,"Velocity":25,"Duration":143229,"SoundDuration":143229,"Delta":455920132},{"NoteNumber":85,"Velocity":42,"Duration":69444,"SoundDuration":69444,"Delta":455993917},{"NoteNumber":83,"Velocity":42,"Duration":73529,"SoundDuration":73529,"Delta":456063361},{"NoteNumber":66,"Velocity":34,"Duration":147058,"SoundDuration":147058,"Delta":456063361},{"NoteNumber":81,"Velocity":41,"Duration":73529,"SoundDuration":73529,"Delta":456136891},{"NoteNumber":80,"Velocity":41,"Duration":73529,"SoundDuration":73529,"Delta":456210420},{"NoteNumber":61,"Velocity":25,"Duration":142973,"SoundDuration":142973,"Delta":456210420},{"NoteNumber":78,"Velocity":40,"Duration":69444,"SoundDuration":69444,"Delta":456283949},{"NoteNumber":76,"Velocity":39,"Duration":69444,"SoundDuration":69444,"Delta":456353394},{"NoteNumber":59,"Velocity":25,"Duration":138889,"SoundDuration":138889,"Delta":456353394},{"NoteNumber":74,"Velocity":39,"Duration":69444,"SoundDuration":69444,"Delta":456422838},{"NoteNumber":73,"Velocity":40,"Duration":59523,"SoundDuration":59523,"Delta":456492283},{"NoteNumber":53,"Velocity":34,"Duration":158729,"SoundDuration":158729,"Delta":456492283},{"NoteNumber":85,"Velocity":36,"Duration":59523,"SoundDuration":59523,"Delta":456611330},{"NoteNumber":59,"Velocity":29,"Duration":158729,"SoundDuration":158729,"Delta":456651013},{"NoteNumber":85,"Velocity":36,"Duration":59523,"SoundDuration":59523,"Delta":456730378},{"NoteNumber":68,"Velocity":28,"Duration":148875,"SoundDuration":148875,"Delta":456809743},{"NoteNumber":97,"Velocity":38,"Duration":59523,"SoundDuration":59523,"Delta":456849425},{"NoteNumber":97,"Velocity":39,"Duration":49668,"SoundDuration":49668,"Delta":456958618},{"NoteNumber":85,"Velocity":36,"Duration":49668,"SoundDuration":49668,"Delta":457057956},{"NoteNumber":85,"Velocity":36,"Duration":49668,"SoundDuration":49668,"Delta":457157293},{"NoteNumber":73,"Velocity":37,"Duration":57692,"SoundDuration":57692,"Delta":457256631},{"NoteNumber":73,"Velocity":44,"Duration":49668,"SoundDuration":49668,"Delta":457372016},{"NoteNumber":85,"Velocity":36,"Duration":49668,"SoundDuration":49668,"Delta":457471353},{"NoteNumber":85,"Velocity":36,"Duration":49668,"SoundDuration":49668,"Delta":457570691},{"NoteNumber":97,"Velocity":41,"Duration":49668,"SoundDuration":49668,"Delta":457670029},{"NoteNumber":97,"Velocity":41,"Duration":49668,"SoundDuration":49668,"Delta":457769367},{"NoteNumber":85,"Velocity":36,"Duration":49668,"SoundDuration":49668,"Delta":457868704},{"NoteNumber":85,"Velocity":36,"Duration":49668,"SoundDuration":49668,"Delta":457968042},{"NoteNumber":73,"Velocity":36,"Duration":57251,"SoundDuration":57251,"Delta":458067380},{"NoteNumber":73,"Velocity":42,"Duration":50000,"SoundDuration":50000,"Delta":458181884},{"NoteNumber":85,"Velocity":37,"Duration":49999,"SoundDuration":49999,"Delta":458281884},{"NoteNumber":85,"Velocity":37,"Duration":50000,"SoundDuration":50000,"Delta":458381884},{"NoteNumber":97,"Velocity":40,"Duration":50000,"SoundDuration":50000,"Delta":458481884},{"NoteNumber":97,"Velocity":40,"Duration":50000,"SoundDuration":50000,"Delta":458581884},{"NoteNumber":85,"Velocity":37,"Duration":50000,"SoundDuration":50000,"Delta":458681884},{"NoteNumber":85,"Velocity":37,"Duration":49999,"SoundDuration":49999,"Delta":458781884},{"NoteNumber":97,"Velocity":37,"Duration":58139,"SoundDuration":58139,"Delta":458881884},{"NoteNumber":97,"Velocity":42,"Duration":50000,"SoundDuration":50000,"Delta":458998163},{"NoteNumber":85,"Velocity":37,"Duration":49999,"SoundDuration":49999,"Delta":459098163},{"NoteNumber":85,"Velocity":37,"Duration":50000,"SoundDuration":50000,"Delta":459198163},{"NoteNumber":97,"Velocity":39,"Duration":50000,"SoundDuration":50000,"Delta":459298163},{"NoteNumber":97,"Velocity":39,"Duration":50837,"SoundDuration":50837,"Delta":459398319},{"NoteNumber":85,"Velocity":37,"Duration":52473,"SoundDuration":52473,"Delta":459500763},{"NoteNumber":85,"Velocity":37,"Duration":54140,"SoundDuration":54140,"Delta":459606505},{"NoteNumber":97,"Velocity":37,"Duration":92592,"SoundDuration":92592,"Delta":459715768},{"NoteNumber":64,"Velocity":37,"Duration":915207,"SoundDuration":915207,"Delta":459808360},{"NoteNumber":68,"Velocity":42,"Duration":888421,"SoundDuration":888421,"Delta":459835146},{"NoteNumber":98,"Velocity":39,"Duration":75188,"SoundDuration":75188,"Delta":459861932},{"NoteNumber":74,"Velocity":49,"Duration":439017,"SoundDuration":439017,"Delta":459861932},{"NoteNumber":100,"Velocity":38,"Duration":75187,"SoundDuration":75187,"Delta":459937120},{"NoteNumber":98,"Velocity":37,"Duration":75188,"SoundDuration":75188,"Delta":460012308},{"NoteNumber":97,"Velocity":36,"Duration":75187,"SoundDuration":75187,"Delta":460087496},{"NoteNumber":95,"Velocity":36,"Duration":71151,"SoundDuration":71151,"Delta":460162684},{"NoteNumber":93,"Velocity":36,"Duration":67114,"SoundDuration":67114,"Delta":460233835},{"NoteNumber":92,"Velocity":35,"Duration":71428,"SoundDuration":71428,"Delta":460300949},{"NoteNumber":73,"Velocity":47,"Duration":214285,"SoundDuration":214285,"Delta":460300949},{"NoteNumber":90,"Velocity":34,"Duration":71428,"SoundDuration":71428,"Delta":460372378},{"NoteNumber":88,"Velocity":33,"Duration":71428,"SoundDuration":71428,"Delta":460443806},{"NoteNumber":86,"Velocity":32,"Duration":69444,"SoundDuration":69444,"Delta":460515235},{"NoteNumber":71,"Velocity":41,"Duration":208333,"SoundDuration":208333,"Delta":460515235},{"NoteNumber":85,"Velocity":31,"Duration":69444,"SoundDuration":69444,"Delta":460584679},{"NoteNumber":83,"Velocity":30,"Duration":69444,"SoundDuration":69444,"Delta":460654124},{"NoteNumber":81,"Velocity":29,"Duration":74626,"SoundDuration":74626,"Delta":460723568},{"NoteNumber":64,"Velocity":38,"Duration":921338,"SoundDuration":921338,"Delta":460723568},{"NoteNumber":73,"Velocity":38,"Duration":921338,"SoundDuration":921338,"Delta":460723568},{"NoteNumber":76,"Velocity":45,"Duration":223880,"SoundDuration":223880,"Delta":460723568},{"NoteNumber":80,"Velocity":28,"Duration":74626,"SoundDuration":74626,"Delta":460798195},{"NoteNumber":81,"Velocity":29,"Duration":74626,"SoundDuration":74626,"Delta":460872822},{"NoteNumber":83,"Velocity":31,"Duration":74626,"SoundDuration":74626,"Delta":460947449},{"NoteNumber":68,"Velocity":39,"Duration":223880,"SoundDuration":223880,"Delta":460947449},{"NoteNumber":85,"Velocity":32,"Duration":74626,"SoundDuration":74626,"Delta":461022075},{"NoteNumber":86,"Velocity":33,"Duration":74626,"SoundDuration":74626,"Delta":461096702},{"NoteNumber":88,"Velocity":34,"Duration":70921,"SoundDuration":70921,"Delta":461171329},{"NoteNumber":69,"Velocity":45,"Duration":418833,"SoundDuration":418833,"Delta":461171329},{"NoteNumber":90,"Velocity":35,"Duration":70921,"SoundDuration":70921,"Delta":461242251},{"NoteNumber":92,"Velocity":36,"Duration":71277,"SoundDuration":71277,"Delta":461313173},{"NoteNumber":93,"Velocity":36,"Duration":73320,"SoundDuration":73320,"Delta":461384451},{"NoteNumber":95,"Velocity":37,"Duration":100745,"SoundDuration":100745,"Delta":461457771},{"NoteNumber":97,"Velocity":38,"Duration":86390,"SoundDuration":86390,"Delta":461558517},{"NoteNumber":64,"Velocity":37,"Duration":916380,"SoundDuration":916380,"Delta":461590162},{"NoteNumber":68,"Velocity":42,"Duration":889008,"SoundDuration":889008,"Delta":461617534},{"NoteNumber":98,"Velocity":39,"Duration":75188,"SoundDuration":75188,"Delta":461644907},{"NoteNumber":74,"Velocity":49,"Duration":439017,"SoundDuration":439017,"Delta":461644907},{"NoteNumber":100,"Velocity":38,"Duration":75187,"SoundDuration":75187,"Delta":461720095},{"NoteNumber":98,"Velocity":37,"Duration":75188,"SoundDuration":75188,"Delta":461795283},{"NoteNumber":97,"Velocity":36,"Duration":75187,"SoundDuration":75187,"Delta":461870471},{"NoteNumber":95,"Velocity":36,"Duration":71151,"SoundDuration":71151,"Delta":461945659},{"NoteNumber":93,"Velocity":36,"Duration":67114,"SoundDuration":67114,"Delta":462016810},{"NoteNumber":92,"Velocity":35,"Duration":71428,"SoundDuration":71428,"Delta":462083924},{"NoteNumber":73,"Velocity":47,"Duration":214285,"SoundDuration":214285,"Delta":462083924},{"NoteNumber":90,"Velocity":34,"Duration":71428,"SoundDuration":71428,"Delta":462155352},{"NoteNumber":88,"Velocity":33,"Duration":71428,"SoundDuration":71428,"Delta":462226781},{"NoteNumber":86,"Velocity":32,"Duration":69444,"SoundDuration":69444,"Delta":462298209},{"NoteNumber":71,"Velocity":41,"Duration":208333,"SoundDuration":208333,"Delta":462298209},{"NoteNumber":85,"Velocity":31,"Duration":69444,"SoundDuration":69444,"Delta":462367654},{"NoteNumber":83,"Velocity":30,"Duration":69444,"SoundDuration":69444,"Delta":462437098},{"NoteNumber":81,"Velocity":29,"Duration":74626,"SoundDuration":74626,"Delta":462506543},{"NoteNumber":64,"Velocity":38,"Duration":918268,"SoundDuration":918268,"Delta":462506543},{"NoteNumber":73,"Velocity":38,"Duration":918268,"SoundDuration":918268,"Delta":462506543},{"NoteNumber":76,"Velocity":45,"Duration":223880,"SoundDuration":223880,"Delta":462506543},{"NoteNumber":80,"Velocity":28,"Duration":74626,"SoundDuration":74626,"Delta":462581170},{"NoteNumber":81,"Velocity":29,"Duration":74626,"SoundDuration":74626,"Delta":462655797},{"NoteNumber":83,"Velocity":31,"Duration":74626,"SoundDuration":74626,"Delta":462730423},{"NoteNumber":68,"Velocity":39,"Duration":223880,"SoundDuration":223880,"Delta":462730423},{"NoteNumber":85,"Velocity":32,"Duration":74626,"SoundDuration":74626,"Delta":462805050},{"NoteNumber":86,"Velocity":33,"Duration":74626,"SoundDuration":74626,"Delta":462879677},{"NoteNumber":88,"Velocity":34,"Duration":70921,"SoundDuration":70921,"Delta":462954304},{"NoteNumber":69,"Velocity":45,"Duration":416936,"SoundDuration":416936,"Delta":462954304},{"NoteNumber":90,"Velocity":35,"Duration":70921,"SoundDuration":70921,"Delta":463025226},{"NoteNumber":92,"Velocity":36,"Duration":71277,"SoundDuration":71277,"Delta":463096148},{"NoteNumber":93,"Velocity":36,"Duration":72916,"SoundDuration":72916,"Delta":463167426},{"NoteNumber":95,"Velocity":37,"Duration":99647,"SoundDuration":99647,"Delta":463240342},{"NoteNumber":97,"Velocity":38,"Duration":84821,"SoundDuration":84821,"Delta":463339990},{"NoteNumber":64,"Velocity":37,"Duration":915207,"SoundDuration":915207,"Delta":463371240},{"NoteNumber":68,"Velocity":42,"Duration":888421,"SoundDuration":888421,"Delta":463398026},{"NoteNumber":98,"Velocity":39,"Duration":75188,"SoundDuration":75188,"Delta":463424811},{"NoteNumber":74,"Velocity":49,"Duration":439017,"SoundDuration":439017,"Delta":463424811},{"NoteNumber":100,"Velocity":38,"Duration":75187,"SoundDuration":75187,"Delta":463499999},{"NoteNumber":98,"Velocity":37,"Duration":75188,"SoundDuration":75188,"Delta":463575187},{"NoteNumber":97,"Velocity":36,"Duration":75187,"SoundDuration":75187,"Delta":463650375},{"NoteNumber":95,"Velocity":36,"Duration":71151,"SoundDuration":71151,"Delta":463725563},{"NoteNumber":93,"Velocity":36,"Duration":67114,"SoundDuration":67114,"Delta":463796715},{"NoteNumber":92,"Velocity":35,"Duration":71428,"SoundDuration":71428,"Delta":463863829},{"NoteNumber":73,"Velocity":47,"Duration":214285,"SoundDuration":214285,"Delta":463863829},{"NoteNumber":90,"Velocity":34,"Duration":71428,"SoundDuration":71428,"Delta":463935257},{"NoteNumber":88,"Velocity":33,"Duration":71428,"SoundDuration":71428,"Delta":464006686},{"NoteNumber":86,"Velocity":32,"Duration":69444,"SoundDuration":69444,"Delta":464078114},{"NoteNumber":71,"Velocity":41,"Duration":208333,"SoundDuration":208333,"Delta":464078114},{"NoteNumber":85,"Velocity":31,"Duration":69444,"SoundDuration":69444,"Delta":464147559},{"NoteNumber":83,"Velocity":30,"Duration":69444,"SoundDuration":69444,"Delta":464217003},{"NoteNumber":81,"Velocity":29,"Duration":74626,"SoundDuration":74626,"Delta":464286448},{"NoteNumber":64,"Velocity":38,"Duration":879333,"SoundDuration":879333,"Delta":464286448},{"NoteNumber":73,"Velocity":38,"Duration":879333,"SoundDuration":879333,"Delta":464286448},{"NoteNumber":76,"Velocity":45,"Duration":223880,"SoundDuration":223880,"Delta":464286448},{"NoteNumber":80,"Velocity":28,"Duration":74626,"SoundDuration":74626,"Delta":464361075},{"NoteNumber":81,"Velocity":29,"Duration":74626,"SoundDuration":74626,"Delta":464435701},{"NoteNumber":83,"Velocity":31,"Duration":74626,"SoundDuration":74626,"Delta":464510328},{"NoteNumber":68,"Velocity":39,"Duration":223880,"SoundDuration":223880,"Delta":464510328},{"NoteNumber":85,"Velocity":32,"Duration":74626,"SoundDuration":74626,"Delta":464584955},{"NoteNumber":86,"Velocity":33,"Duration":74626,"SoundDuration":74626,"Delta":464659582},{"NoteNumber":88,"Velocity":34,"Duration":70921,"SoundDuration":70921,"Delta":464734209},{"NoteNumber":69,"Velocity":45,"Duration":431572,"SoundDuration":431572,"Delta":464734209},{"NoteNumber":90,"Velocity":35,"Duration":70921,"SoundDuration":70921,"Delta":464805131},{"NoteNumber":92,"Velocity":36,"Duration":70921,"SoundDuration":70921,"Delta":464876053},{"NoteNumber":93,"Velocity":36,"Duration":71278,"SoundDuration":71278,"Delta":464946975},{"NoteNumber":95,"Velocity":37,"Duration":72890,"SoundDuration":72890,"Delta":465018253},{"NoteNumber":97,"Velocity":38,"Duration":74637,"SoundDuration":74637,"Delta":465091144},{"NoteNumber":98,"Velocity":41,"Duration":71711,"SoundDuration":71711,"Delta":465165781},{"NoteNumber":64,"Velocity":39,"Duration":2139277,"SoundDuration":2139277,"Delta":465165781},{"NoteNumber":68,"Velocity":39,"Duration":2139277,"SoundDuration":2139277,"Delta":465165781},{"NoteNumber":71,"Velocity":39,"Duration":2139277,"SoundDuration":2139277,"Delta":465165781},{"NoteNumber":74,"Velocity":49,"Duration":2139277,"SoundDuration":2139277,"Delta":465165781},{"NoteNumber":99,"Velocity":44,"Duration":70873,"SoundDuration":70873,"Delta":465237493},{"NoteNumber":100,"Velocity":46,"Duration":70003,"SoundDuration":70003,"Delta":465308366},{"NoteNumber":101,"Velocity":49,"Duration":69954,"SoundDuration":69954,"Delta":465378370},{"NoteNumber":100,"Velocity":49,"Duration":70422,"SoundDuration":70422,"Delta":465448324},{"NoteNumber":99,"Velocity":47,"Duration":70647,"SoundDuration":70647,"Delta":465518747},{"NoteNumber":98,"Velocity":46,"Duration":70921,"SoundDuration":70921,"Delta":465589394},{"NoteNumber":97,"Velocity":45,"Duration":71352,"SoundDuration":71352,"Delta":465660316},{"NoteNumber":96,"Velocity":44,"Duration":71556,"SoundDuration":71556,"Delta":465731668},{"NoteNumber":95,"Velocity":43,"Duration":71942,"SoundDuration":71942,"Delta":465803225},{"NoteNumber":94,"Velocity":41,"Duration":72281,"SoundDuration":72281,"Delta":465875168},{"NoteNumber":93,"Velocity":40,"Duration":72490,"SoundDuration":72490,"Delta":465947449},{"NoteNumber":92,"Velocity":39,"Duration":72860,"SoundDuration":72860,"Delta":466019940},{"NoteNumber":93,"Velocity":44,"Duration":72099,"SoundDuration":72099,"Delta":466092800},{"NoteNumber":94,"Velocity":46,"Duration":71200,"SoundDuration":71200,"Delta":466164899},{"NoteNumber":95,"Velocity":48,"Duration":70497,"SoundDuration":70497,"Delta":466236100},{"NoteNumber":94,"Velocity":49,"Duration":70547,"SoundDuration":70547,"Delta":466306597},{"NoteNumber":93,"Velocity":48,"Duration":70921,"SoundDuration":70921,"Delta":466377145},{"NoteNumber":92,"Velocity":47,"Duration":71352,"SoundDuration":71352,"Delta":466448067},{"NoteNumber":91,"Velocity":46,"Duration":71659,"SoundDuration":71659,"Delta":466519419},{"NoteNumber":90,"Velocity":45,"Duration":71968,"SoundDuration":71968,"Delta":466591079},{"NoteNumber":89,"Velocity":45,"Duration":72463,"SoundDuration":72463,"Delta":466663048},{"NoteNumber":88,"Velocity":44,"Duration":72807,"SoundDuration":72807,"Delta":466735511},{"NoteNumber":87,"Velocity":43,"Duration":73126,"SoundDuration":73126,"Delta":466808319},{"NoteNumber":86,"Velocity":41,"Duration":71711,"SoundDuration":71711,"Delta":466881446},{"NoteNumber":87,"Velocity":44,"Duration":70873,"SoundDuration":70873,"Delta":466953157},{"NoteNumber":88,"Velocity":46,"Duration":70003,"SoundDuration":70003,"Delta":467024030},{"NoteNumber":89,"Velocity":49,"Duration":69954,"SoundDuration":69954,"Delta":467094034},{"NoteNumber":88,"Velocity":49,"Duration":70422,"SoundDuration":70422,"Delta":467163989},{"NoteNumber":87,"Velocity":47,"Duration":70647,"SoundDuration":70647,"Delta":467234411},{"NoteNumber":86,"Velocity":46,"Duration":70921,"SoundDuration":70921,"Delta":467305058},{"NoteNumber":85,"Velocity":45,"Duration":71352,"SoundDuration":71352,"Delta":467375980},{"NoteNumber":84,"Velocity":44,"Duration":71556,"SoundDuration":71556,"Delta":467447333},{"NoteNumber":83,"Velocity":43,"Duration":71942,"SoundDuration":71942,"Delta":467518890},{"NoteNumber":82,"Velocity":41,"Duration":72281,"SoundDuration":72281,"Delta":467590832},{"NoteNumber":81,"Velocity":40,"Duration":72490,"SoundDuration":72490,"Delta":467663114},{"NoteNumber":80,"Velocity":39,"Duration":72860,"SoundDuration":72860,"Delta":467735604},{"NoteNumber":81,"Velocity":44,"Duration":72099,"SoundDuration":72099,"Delta":467808465},{"NoteNumber":82,"Velocity":46,"Duration":71200,"SoundDuration":71200,"Delta":467880564},{"NoteNumber":83,"Velocity":48,"Duration":70497,"SoundDuration":70497,"Delta":467951764},{"NoteNumber":82,"Velocity":49,"Duration":70547,"SoundDuration":70547,"Delta":468022262},{"NoteNumber":81,"Velocity":48,"Duration":70921,"SoundDuration":70921,"Delta":468092809},{"NoteNumber":80,"Velocity":47,"Duration":71352,"SoundDuration":71352,"Delta":468163731},{"NoteNumber":79,"Velocity":46,"Duration":71659,"SoundDuration":71659,"Delta":468235084},{"NoteNumber":78,"Velocity":45,"Duration":71968,"SoundDuration":71968,"Delta":468306744},{"NoteNumber":77,"Velocity":45,"Duration":72463,"SoundDuration":72463,"Delta":468378712},{"NoteNumber":76,"Velocity":44,"Duration":72807,"SoundDuration":72807,"Delta":468451176},{"NoteNumber":75,"Velocity":43,"Duration":73126,"SoundDuration":73126,"Delta":468523984},{"NoteNumber":74,"Velocity":41,"Duration":73287,"SoundDuration":73287,"Delta":468597110},{"NoteNumber":75,"Velocity":44,"Duration":72648,"SoundDuration":72648,"Delta":468670398},{"NoteNumber":76,"Velocity":46,"Duration":71994,"SoundDuration":71994,"Delta":468743047},{"NoteNumber":77,"Velocity":49,"Duration":71428,"SoundDuration":71428,"Delta":468815042},{"NoteNumber":76,"Velocity":49,"Duration":71556,"SoundDuration":71556,"Delta":468886471},{"NoteNumber":75,"Velocity":47,"Duration":71942,"SoundDuration":71942,"Delta":468958028},{"NoteNumber":74,"Velocity":46,"Duration":72177,"SoundDuration":72177,"Delta":469029970},{"NoteNumber":73,"Velocity":45,"Duration":72463,"SoundDuration":72463,"Delta":469102147},{"NoteNumber":72,"Velocity":44,"Duration":72807,"SoundDuration":72807,"Delta":469174611},{"NoteNumber":71,"Velocity":43,"Duration":72992,"SoundDuration":72992,"Delta":469247419},{"NoteNumber":70,"Velocity":41,"Duration":73448,"SoundDuration":73448,"Delta":469320411},{"NoteNumber":69,"Velocity":40,"Duration":73665,"SoundDuration":73665,"Delta":469393860},{"NoteNumber":68,"Velocity":39,"Duration":73828,"SoundDuration":73828,"Delta":469467526},{"NoteNumber":69,"Velocity":44,"Duration":72940,"SoundDuration":72940,"Delta":469541355},{"NoteNumber":70,"Velocity":46,"Duration":72099,"SoundDuration":72099,"Delta":469614295},{"NoteNumber":71,"Velocity":48,"Duration":71200,"SoundDuration":71200,"Delta":469686395},{"NoteNumber":70,"Velocity":49,"Duration":71481,"SoundDuration":71481,"Delta":469757595},{"NoteNumber":69,"Velocity":48,"Duration":72413,"SoundDuration":72413,"Delta":469829076},{"NoteNumber":68,"Velocity":45,"Duration":54959,"SoundDuration":54959,"Delta":469901490},{"NoteNumber":67,"Velocity":45,"Duration":55446,"SoundDuration":55446,"Delta":469956449},{"NoteNumber":66,"Velocity":47,"Duration":56110,"SoundDuration":56110,"Delta":470011896},{"NoteNumber":65,"Velocity":49,"Duration":56647,"SoundDuration":56647,"Delta":470068006},{"NoteNumber":64,"Velocity":50,"Duration":114857,"SoundDuration":114857,"Delta":470124654},{"NoteNumber":67,"Velocity":45,"Duration":256849,"SoundDuration":256849,"Delta":470415982},{"NoteNumber":70,"Velocity":54,"Duration":256849,"SoundDuration":256849,"Delta":470415982},{"NoteNumber":63,"Velocity":40,"Duration":64212,"SoundDuration":64212,"Delta":470415982},{"NoteNumber":64,"Velocity":38,"Duration":64212,"SoundDuration":64212,"Delta":470587215},{"NoteNumber":67,"Velocity":43,"Duration":60893,"SoundDuration":60893,"Delta":470758448},{"NoteNumber":70,"Velocity":51,"Duration":60893,"SoundDuration":60893,"Delta":470758448},{"NoteNumber":61,"Velocity":38,"Duration":60893,"SoundDuration":60893,"Delta":470758448},{"NoteNumber":67,"Velocity":43,"Duration":60893,"SoundDuration":60893,"Delta":470920829},{"NoteNumber":63,"Velocity":38,"Duration":60893,"SoundDuration":60893,"Delta":470920829},{"NoteNumber":70,"Velocity":51,"Duration":60893,"SoundDuration":60893,"Delta":470923535},{"NoteNumber":66,"Velocity":48,"Duration":498587,"SoundDuration":498587,"Delta":471083211},{"NoteNumber":75,"Velocity":56,"Duration":498587,"SoundDuration":498587,"Delta":471083211},{"NoteNumber":59,"Velocity":40,"Duration":62323,"SoundDuration":62323,"Delta":471083211},{"NoteNumber":61,"Velocity":38,"Duration":62323,"SoundDuration":62323,"Delta":471249407},{"NoteNumber":57,"Velocity":38,"Duration":62323,"SoundDuration":62323,"Delta":471415603},{"NoteNumber":75,"Velocity":49,"Duration":62323,"SoundDuration":62323,"Delta":471581799},{"NoteNumber":66,"Velocity":41,"Duration":62323,"SoundDuration":62323,"Delta":471581799},{"NoteNumber":59,"Velocity":38,"Duration":62323,"SoundDuration":62323,"Delta":471581799},{"NoteNumber":64,"Velocity":44,"Duration":158729,"SoundDuration":158729,"Delta":471747995},{"NoteNumber":73,"Velocity":52,"Duration":59523,"SoundDuration":59523,"Delta":471747995},{"NoteNumber":55,"Velocity":44,"Duration":59523,"SoundDuration":59523,"Delta":471747995},{"NoteNumber":70,"Velocity":52,"Duration":59523,"SoundDuration":59523,"Delta":471906725},{"NoteNumber":61,"Velocity":39,"Duration":59523,"SoundDuration":59523,"Delta":471906725},{"NoteNumber":63,"Velocity":44,"Duration":162381,"SoundDuration":162381,"Delta":472065455},{"NoteNumber":71,"Velocity":52,"Duration":60893,"SoundDuration":60893,"Delta":472065455},{"NoteNumber":56,"Velocity":38,"Duration":60893,"SoundDuration":60893,"Delta":472065455},{"NoteNumber":68,"Velocity":54,"Duration":60893,"SoundDuration":60893,"Delta":472227836},{"NoteNumber":59,"Velocity":40,"Duration":60893,"SoundDuration":60893,"Delta":472227836},{"NoteNumber":67,"Velocity":44,"Duration":171895,"SoundDuration":171895,"Delta":472390218},{"NoteNumber":70,"Velocity":53,"Duration":65002,"SoundDuration":65002,"Delta":472390218},{"NoteNumber":51,"Velocity":40,"Duration":65002,"SoundDuration":65002,"Delta":472390218},{"NoteNumber":63,"Velocity":50,"Duration":65002,"SoundDuration":65002,"Delta":472563558},{"NoteNumber":58,"Velocity":37,"Duration":65002,"SoundDuration":65002,"Delta":472563558},{"NoteNumber":63,"Velocity":45,"Duration":359928,"SoundDuration":359928,"Delta":472736899},{"NoteNumber":67,"Velocity":49,"Duration":256849,"SoundDuration":256849,"Delta":473096827},{"NoteNumber":70,"Velocity":59,"Duration":256849,"SoundDuration":256849,"Delta":473096827},{"NoteNumber":63,"Velocity":44,"Duration":64212,"SoundDuration":64212,"Delta":473096827},{"NoteNumber":64,"Velocity":41,"Duration":64212,"SoundDuration":64212,"Delta":473268060},{"NoteNumber":67,"Velocity":47,"Duration":60893,"SoundDuration":60893,"Delta":473439293},{"NoteNumber":70,"Velocity":56,"Duration":60893,"SoundDuration":60893,"Delta":473439293},{"NoteNumber":61,"Velocity":41,"Duration":60893,"SoundDuration":60893,"Delta":473439293},{"NoteNumber":70,"Velocity":56,"Duration":60893,"SoundDuration":60893,"Delta":473601674},{"NoteNumber":67,"Velocity":47,"Duration":60893,"SoundDuration":60893,"Delta":473601674},{"NoteNumber":63,"Velocity":41,"Duration":60893,"SoundDuration":60893,"Delta":473601674},{"NoteNumber":66,"Velocity":52,"Duration":498587,"SoundDuration":498587,"Delta":473764056},{"NoteNumber":75,"Velocity":61,"Duration":498587,"SoundDuration":498587,"Delta":473764056},{"NoteNumber":59,"Velocity":44,"Duration":62323,"SoundDuration":62323,"Delta":473764056},{"NoteNumber":61,"Velocity":41,"Duration":62323,"SoundDuration":62323,"Delta":473930252},{"NoteNumber":57,"Velocity":41,"Duration":62323,"SoundDuration":62323,"Delta":474096448},{"NoteNumber":75,"Velocity":53,"Duration":62323,"SoundDuration":62323,"Delta":474262644},{"NoteNumber":66,"Velocity":45,"Duration":62323,"SoundDuration":62323,"Delta":474262644},{"NoteNumber":59,"Velocity":41,"Duration":62323,"SoundDuration":62323,"Delta":474262644},{"NoteNumber":64,"Velocity":48,"Duration":158729,"SoundDuration":158729,"Delta":474428840},{"NoteNumber":73,"Velocity":57,"Duration":59523,"SoundDuration":59523,"Delta":474428840},{"NoteNumber":56,"Velocity":48,"Duration":59523,"SoundDuration":59523,"Delta":474428840},{"NoteNumber":71,"Velocity":57,"Duration":59523,"SoundDuration":59523,"Delta":474587570},{"NoteNumber":61,"Velocity":39,"Duration":59523,"SoundDuration":59523,"Delta":474587570},{"NoteNumber":67,"Velocity":48,"Duration":162381,"SoundDuration":162381,"Delta":474746300},{"NoteNumber":70,"Velocity":58,"Duration":60893,"SoundDuration":60893,"Delta":474746300},{"NoteNumber":51,"Velocity":41,"Duration":60893,"SoundDuration":60893,"Delta":474746300},{"NoteNumber":63,"Velocity":61,"Duration":60893,"SoundDuration":60893,"Delta":474908681},{"NoteNumber":55,"Velocity":39,"Duration":60893,"SoundDuration":60893,"Delta":474908681},{"NoteNumber":61,"Velocity":45,"Duration":60893,"SoundDuration":60893,"Delta":474908681},{"NoteNumber":68,"Velocity":60,"Duration":65002,"SoundDuration":65002,"Delta":475071063},{"NoteNumber":56,"Velocity":46,"Duration":65002,"SoundDuration":65002,"Delta":475071063},{"NoteNumber":63,"Velocity":58,"Duration":65002,"SoundDuration":65002,"Delta":475244403},{"NoteNumber":59,"Velocity":42,"Duration":65002,"SoundDuration":65002,"Delta":475244403},{"NoteNumber":63,"Velocity":55,"Duration":72078,"SoundDuration":72078,"Delta":475417744},{"NoteNumber":68,"Velocity":62,"Duration":72078,"SoundDuration":72078,"Delta":475417744},{"NoteNumber":56,"Velocity":48,"Duration":72078,"SoundDuration":72078,"Delta":475417744},{"NoteNumber":59,"Velocity":52,"Duration":72078,"SoundDuration":72078,"Delta":475417744},{"NoteNumber":70,"Velocity":58,"Duration":256849,"SoundDuration":256849,"Delta":475802162},{"NoteNumber":75,"Velocity":58,"Duration":256849,"SoundDuration":256849,"Delta":475802162},{"NoteNumber":79,"Velocity":58,"Duration":256849,"SoundDuration":256849,"Delta":475802162},{"NoteNumber":82,"Velocity":70,"Duration":256849,"SoundDuration":256849,"Delta":475802162},{"NoteNumber":51,"Velocity":44,"Duration":64212,"SoundDuration":64212,"Delta":475802162},{"NoteNumber":63,"Velocity":52,"Duration":64212,"SoundDuration":64212,"Delta":475802162},{"NoteNumber":52,"Velocity":41,"Duration":64212,"SoundDuration":64212,"Delta":475973395},{"NoteNumber":64,"Velocity":49,"Duration":64212,"SoundDuration":64212,"Delta":475973395},{"NoteNumber":70,"Velocity":55,"Duration":60893,"SoundDuration":60893,"Delta":476144628},{"NoteNumber":75,"Velocity":55,"Duration":60893,"SoundDuration":60893,"Delta":476144628},{"NoteNumber":79,"Velocity":55,"Duration":60893,"SoundDuration":60893,"Delta":476144628},{"NoteNumber":82,"Velocity":66,"Duration":60893,"SoundDuration":60893,"Delta":476144628},{"NoteNumber":49,"Velocity":41,"Duration":60893,"SoundDuration":60893,"Delta":476144628},{"NoteNumber":61,"Velocity":49,"Duration":60893,"SoundDuration":60893,"Delta":476144628},{"NoteNumber":82,"Velocity":66,"Duration":60893,"SoundDuration":60893,"Delta":476307009},{"NoteNumber":70,"Velocity":55,"Duration":60893,"SoundDuration":60893,"Delta":476307009},{"NoteNumber":75,"Velocity":55,"Duration":60893,"SoundDuration":60893,"Delta":476307009},{"NoteNumber":79,"Velocity":55,"Duration":60893,"SoundDuration":60893,"Delta":476307009},{"NoteNumber":51,"Velocity":41,"Duration":60893,"SoundDuration":60893,"Delta":476307009},{"NoteNumber":63,"Velocity":49,"Duration":60893,"SoundDuration":60893,"Delta":476307009},{"NoteNumber":75,"Velocity":62,"Duration":498587,"SoundDuration":498587,"Delta":476469391},{"NoteNumber":78,"Velocity":62,"Duration":498587,"SoundDuration":498587,"Delta":476469391},{"NoteNumber":87,"Velocity":72,"Duration":498587,"SoundDuration":498587,"Delta":476469391},{"NoteNumber":47,"Velocity":44,"Duration":62323,"SoundDuration":62323,"Delta":476469391},{"NoteNumber":59,"Velocity":52,"Duration":62323,"SoundDuration":62323,"Delta":476469391},{"NoteNumber":49,"Velocity":41,"Duration":62323,"SoundDuration":62323,"Delta":476635587},{"NoteNumber":61,"Velocity":49,"Duration":62323,"SoundDuration":62323,"Delta":476635587},{"NoteNumber":45,"Velocity":41,"Duration":62323,"SoundDuration":62323,"Delta":476801783},{"NoteNumber":57,"Velocity":49,"Duration":62323,"SoundDuration":62323,"Delta":476801783},{"NoteNumber":75,"Velocity":53,"Duration":62323,"SoundDuration":62323,"Delta":476967979},{"NoteNumber":87,"Velocity":63,"Duration":62323,"SoundDuration":62323,"Delta":476967979},{"NoteNumber":78,"Velocity":53,"Duration":62323,"SoundDuration":62323,"Delta":476967979},{"NoteNumber":47,"Velocity":41,"Duration":62323,"SoundDuration":62323,"Delta":476967979},{"NoteNumber":59,"Velocity":49,"Duration":62323,"SoundDuration":62323,"Delta":476967979},{"NoteNumber":73,"Velocity":57,"Duration":59523,"SoundDuration":59523,"Delta":477134175},{"NoteNumber":76,"Velocity":57,"Duration":59523,"SoundDuration":59523,"Delta":477134175},{"NoteNumber":85,"Velocity":67,"Duration":59523,"SoundDuration":59523,"Delta":477134175},{"NoteNumber":43,"Velocity":48,"Duration":317459,"SoundDuration":317459,"Delta":477134175},{"NoteNumber":55,"Velocity":57,"Duration":317459,"SoundDuration":317459,"Delta":477134175},{"NoteNumber":70,"Velocity":67,"Duration":59523,"SoundDuration":59523,"Delta":477292905},{"NoteNumber":82,"Velocity":67,"Duration":59523,"SoundDuration":59523,"Delta":477292905},{"NoteNumber":71,"Velocity":57,"Duration":60893,"SoundDuration":60893,"Delta":477451635},{"NoteNumber":75,"Velocity":57,"Duration":60893,"SoundDuration":60893,"Delta":477451635},{"NoteNumber":83,"Velocity":67,"Duration":60893,"SoundDuration":60893,"Delta":477451635},{"NoteNumber":44,"Velocity":41,"Duration":324763,"SoundDuration":324763,"Delta":477451635},{"NoteNumber":56,"Velocity":49,"Duration":324763,"SoundDuration":324763,"Delta":477451635},{"NoteNumber":68,"Velocity":70,"Duration":60893,"SoundDuration":60893,"Delta":477614016},{"NoteNumber":80,"Velocity":70,"Duration":60893,"SoundDuration":60893,"Delta":477614016},{"NoteNumber":70,"Velocity":57,"Duration":62695,"SoundDuration":62695,"Delta":477776398},{"NoteNumber":75,"Velocity":57,"Duration":62695,"SoundDuration":62695,"Delta":477776398},{"NoteNumber":82,"Velocity":68,"Duration":62695,"SoundDuration":62695,"Delta":477776398},{"NoteNumber":39,"Velocity":44,"Duration":62695,"SoundDuration":62695,"Delta":477776398},{"NoteNumber":51,"Velocity":52,"Duration":62695,"SoundDuration":62695,"Delta":477776398},{"NoteNumber":63,"Velocity":57,"Duration":62695,"SoundDuration":62695,"Delta":477943585},{"NoteNumber":75,"Velocity":65,"Duration":62695,"SoundDuration":62695,"Delta":477943585},{"NoteNumber":43,"Velocity":40,"Duration":62695,"SoundDuration":62695,"Delta":477943585},{"NoteNumber":55,"Velocity":48,"Duration":62695,"SoundDuration":62695,"Delta":477943585},{"NoteNumber":63,"Velocity":57,"Duration":63067,"SoundDuration":63067,"Delta":478110772},{"NoteNumber":75,"Velocity":68,"Duration":63067,"SoundDuration":63067,"Delta":478110772},{"NoteNumber":46,"Velocity":40,"Duration":63067,"SoundDuration":63067,"Delta":478110772},{"NoteNumber":58,"Velocity":48,"Duration":63067,"SoundDuration":63067,"Delta":478110772},{"NoteNumber":50,"Velocity":40,"Duration":65808,"SoundDuration":65808,"Delta":478278952},{"NoteNumber":62,"Velocity":48,"Duration":65808,"SoundDuration":65808,"Delta":478278952},{"NoteNumber":70,"Velocity":60,"Duration":256849,"SoundDuration":256849,"Delta":478454442},{"NoteNumber":75,"Velocity":60,"Duration":256849,"SoundDuration":256849,"Delta":478454442},{"NoteNumber":79,"Velocity":60,"Duration":256849,"SoundDuration":256849,"Delta":478454442},{"NoteNumber":82,"Velocity":73,"Duration":256849,"SoundDuration":256849,"Delta":478454442},{"NoteNumber":51,"Velocity":46,"Duration":64212,"SoundDuration":64212,"Delta":478454442},{"NoteNumber":63,"Velocity":54,"Duration":64212,"SoundDuration":64212,"Delta":478454442},{"NoteNumber":52,"Velocity":43,"Duration":64212,"SoundDuration":64212,"Delta":478625675},{"NoteNumber":64,"Velocity":51,"Duration":64212,"SoundDuration":64212,"Delta":478625675},{"NoteNumber":70,"Velocity":57,"Duration":60893,"SoundDuration":60893,"Delta":478796908},{"NoteNumber":75,"Velocity":57,"Duration":60893,"SoundDuration":60893,"Delta":478796908},{"NoteNumber":79,"Velocity":57,"Duration":60893,"SoundDuration":60893,"Delta":478796908},{"NoteNumber":82,"Velocity":69,"Duration":60893,"SoundDuration":60893,"Delta":478796908},{"NoteNumber":49,"Velocity":43,"Duration":60893,"SoundDuration":60893,"Delta":478796908},{"NoteNumber":61,"Velocity":51,"Duration":60893,"SoundDuration":60893,"Delta":478796908},{"NoteNumber":82,"Velocity":69,"Duration":60893,"SoundDuration":60893,"Delta":478959290},{"NoteNumber":70,"Velocity":57,"Duration":60893,"SoundDuration":60893,"Delta":478959290},{"NoteNumber":75,"Velocity":57,"Duration":60893,"SoundDuration":60893,"Delta":478959290},{"NoteNumber":79,"Velocity":57,"Duration":60893,"SoundDuration":60893,"Delta":478959290},{"NoteNumber":51,"Velocity":43,"Duration":60893,"SoundDuration":60893,"Delta":478959290},{"NoteNumber":63,"Velocity":51,"Duration":60893,"SoundDuration":60893,"Delta":478959290},{"NoteNumber":75,"Velocity":65,"Duration":664783,"SoundDuration":664783,"Delta":479121671},{"NoteNumber":78,"Velocity":65,"Duration":664783,"SoundDuration":664783,"Delta":479121671},{"NoteNumber":87,"Velocity":75,"Duration":664783,"SoundDuration":664783,"Delta":479121671},{"NoteNumber":47,"Velocity":46,"Duration":62323,"SoundDuration":62323,"Delta":479121671},{"NoteNumber":59,"Velocity":54,"Duration":62323,"SoundDuration":62323,"Delta":479121671},{"NoteNumber":49,"Velocity":43,"Duration":62323,"SoundDuration":62323,"Delta":479287867},{"NoteNumber":61,"Velocity":51,"Duration":62323,"SoundDuration":62323,"Delta":479287867},{"NoteNumber":45,"Velocity":43,"Duration":62323,"SoundDuration":62323,"Delta":479454063},{"NoteNumber":57,"Velocity":51,"Duration":62323,"SoundDuration":62323,"Delta":479454063},{"NoteNumber":47,"Velocity":43,"Duration":62323,"SoundDuration":62323,"Delta":479620259},{"NoteNumber":59,"Velocity":51,"Duration":62323,"SoundDuration":62323,"Delta":479620259},{"NoteNumber":74,"Velocity":63,"Duration":256849,"SoundDuration":256849,"Delta":479786455},{"NoteNumber":79,"Velocity":63,"Duration":256849,"SoundDuration":256849,"Delta":479786455},{"NoteNumber":83,"Velocity":63,"Duration":256849,"SoundDuration":256849,"Delta":479786455},{"NoteNumber":86,"Velocity":76,"Duration":256849,"SoundDuration":256849,"Delta":479786455},{"NoteNumber":43,"Velocity":48,"Duration":64212,"SoundDuration":64212,"Delta":479786455},{"NoteNumber":55,"Velocity":56,"Duration":64212,"SoundDuration":64212,"Delta":479786455},{"NoteNumber":45,"Velocity":45,"Duration":64212,"SoundDuration":64212,"Delta":479957688},{"NoteNumber":57,"Velocity":53,"Duration":64212,"SoundDuration":64212,"Delta":479957688},{"NoteNumber":74,"Velocity":59,"Duration":60893,"SoundDuration":60893,"Delta":480128921},{"NoteNumber":79,"Velocity":59,"Duration":60893,"SoundDuration":60893,"Delta":480128921},{"NoteNumber":83,"Velocity":59,"Duration":60893,"SoundDuration":60893,"Delta":480128921},{"NoteNumber":86,"Velocity":72,"Duration":60893,"SoundDuration":60893,"Delta":480128921},{"NoteNumber":41,"Velocity":45,"Duration":60893,"SoundDuration":60893,"Delta":480128921},{"NoteNumber":53,"Velocity":53,"Duration":60893,"SoundDuration":60893,"Delta":480128921},{"NoteNumber":86,"Velocity":72,"Duration":60893,"SoundDuration":60893,"Delta":480291303},{"NoteNumber":74,"Velocity":59,"Duration":60893,"SoundDuration":60893,"Delta":480291303},{"NoteNumber":79,"Velocity":59,"Duration":60893,"SoundDuration":60893,"Delta":480291303},{"NoteNumber":83,"Velocity":59,"Duration":60893,"SoundDuration":60893,"Delta":480291303},{"NoteNumber":43,"Velocity":45,"Duration":60893,"SoundDuration":60893,"Delta":480291303},{"NoteNumber":55,"Velocity":53,"Duration":60893,"SoundDuration":60893,"Delta":480291303},{"NoteNumber":79,"Velocity":68,"Duration":664783,"SoundDuration":664783,"Delta":480453684},{"NoteNumber":82,"Velocity":68,"Duration":664783,"SoundDuration":664783,"Delta":480453684},{"NoteNumber":87,"Velocity":68,"Duration":664783,"SoundDuration":664783,"Delta":480453684},{"NoteNumber":91,"Velocity":78,"Duration":664783,"SoundDuration":664783,"Delta":480453684},{"NoteNumber":39,"Velocity":48,"Duration":62323,"SoundDuration":62323,"Delta":480453684},{"NoteNumber":51,"Velocity":56,"Duration":62323,"SoundDuration":62323,"Delta":480453684},{"NoteNumber":41,"Velocity":45,"Duration":62323,"SoundDuration":62323,"Delta":480619880},{"NoteNumber":53,"Velocity":53,"Duration":62323,"SoundDuration":62323,"Delta":480619880},{"NoteNumber":37,"Velocity":45,"Duration":62323,"SoundDuration":62323,"Delta":480786076},{"NoteNumber":49,"Velocity":53,"Duration":62323,"SoundDuration":62323,"Delta":480786076},{"NoteNumber":39,"Velocity":45,"Duration":62323,"SoundDuration":62323,"Delta":480952272},{"NoteNumber":51,"Velocity":53,"Duration":62323,"SoundDuration":62323,"Delta":480952272},{"NoteNumber":79,"Velocity":66,"Duration":256849,"SoundDuration":256849,"Delta":481118468},{"NoteNumber":84,"Velocity":66,"Duration":256849,"SoundDuration":256849,"Delta":481118468},{"NoteNumber":88,"Velocity":66,"Duration":256849,"SoundDuration":256849,"Delta":481118468},{"NoteNumber":91,"Velocity":79,"Duration":256849,"SoundDuration":256849,"Delta":481118468},{"NoteNumber":36,"Velocity":67,"Duration":342466,"SoundDuration":342466,"Delta":481118468},{"NoteNumber":48,"Velocity":55,"Duration":64212,"SoundDuration":64212,"Delta":481289701},{"NoteNumber":79,"Velocity":61,"Duration":60893,"SoundDuration":60893,"Delta":481460934},{"NoteNumber":84,"Velocity":61,"Duration":60893,"SoundDuration":60893,"Delta":481460934},{"NoteNumber":88,"Velocity":61,"Duration":60893,"SoundDuration":60893,"Delta":481460934},{"NoteNumber":91,"Velocity":75,"Duration":60893,"SoundDuration":60893,"Delta":481460934},{"NoteNumber":35,"Velocity":64,"Duration":324763,"SoundDuration":324763,"Delta":481460934},{"NoteNumber":91,"Velocity":75,"Duration":60893,"SoundDuration":60893,"Delta":481623316},{"NoteNumber":79,"Velocity":61,"Duration":60893,"SoundDuration":60893,"Delta":481623316},{"NoteNumber":84,"Velocity":61,"Duration":60893,"SoundDuration":60893,"Delta":481623316},{"NoteNumber":88,"Velocity":61,"Duration":60893,"SoundDuration":60893,"Delta":481623316},{"NoteNumber":47,"Velocity":55,"Duration":60893,"SoundDuration":60893,"Delta":481623316},{"NoteNumber":84,"Velocity":71,"Duration":664783,"SoundDuration":664783,"Delta":481785697},{"NoteNumber":88,"Velocity":71,"Duration":664783,"SoundDuration":664783,"Delta":481785697},{"NoteNumber":91,"Velocity":71,"Duration":664783,"SoundDuration":664783,"Delta":481785697},{"NoteNumber":96,"Velocity":81,"Duration":664783,"SoundDuration":664783,"Delta":481785697},{"NoteNumber":33,"Velocity":70,"Duration":332392,"SoundDuration":332392,"Delta":481785697},{"NoteNumber":45,"Velocity":55,"Duration":62323,"SoundDuration":62323,"Delta":481951893},{"NoteNumber":31,"Velocity":67,"Duration":332391,"SoundDuration":332391,"Delta":482118089},{"NoteNumber":43,"Velocity":56,"Duration":62323,"SoundDuration":62323,"Delta":482284285},{"NoteNumber":67,"Velocity":67,"Duration":256849,"SoundDuration":256849,"Delta":482450481},{"NoteNumber":72,"Velocity":67,"Duration":256849,"SoundDuration":256849,"Delta":482450481},{"NoteNumber":76,"Velocity":67,"Duration":256849,"SoundDuration":256849,"Delta":482450481},{"NoteNumber":79,"Velocity":80,"Duration":256849,"SoundDuration":256849,"Delta":482450481},{"NoteNumber":36,"Velocity":68,"Duration":342466,"SoundDuration":342466,"Delta":482450481},{"NoteNumber":48,"Velocity":56,"Duration":64212,"SoundDuration":64212,"Delta":482621714},{"NoteNumber":67,"Velocity":62,"Duration":60893,"SoundDuration":60893,"Delta":482792947},{"NoteNumber":72,"Velocity":62,"Duration":60893,"SoundDuration":60893,"Delta":482792947},{"NoteNumber":76,"Velocity":62,"Duration":60893,"SoundDuration":60893,"Delta":482792947},{"NoteNumber":79,"Velocity":77,"Duration":60893,"SoundDuration":60893,"Delta":482792947},{"NoteNumber":38,"Velocity":65,"Duration":324763,"SoundDuration":324763,"Delta":482792947},{"NoteNumber":79,"Velocity":77,"Duration":60893,"SoundDuration":60893,"Delta":482955329},{"NoteNumber":67,"Velocity":62,"Duration":60893,"SoundDuration":60893,"Delta":482955329},{"NoteNumber":72,"Velocity":62,"Duration":60893,"SoundDuration":60893,"Delta":482955329},{"NoteNumber":76,"Velocity":62,"Duration":60893,"SoundDuration":60893,"Delta":482955329},{"NoteNumber":50,"Velocity":56,"Duration":60893,"SoundDuration":60893,"Delta":482955329},{"NoteNumber":72,"Velocity":73,"Duration":664783,"SoundDuration":664783,"Delta":483117710},{"NoteNumber":76,"Velocity":73,"Duration":664783,"SoundDuration":664783,"Delta":483117710},{"NoteNumber":79,"Velocity":73,"Duration":664783,"SoundDuration":664783,"Delta":483117710},{"NoteNumber":84,"Velocity":83,"Duration":664783,"SoundDuration":664783,"Delta":483117710},{"NoteNumber":40,"Velocity":72,"Duration":664783,"SoundDuration":664783,"Delta":483117710},{"NoteNumber":52,"Velocity":75,"Duration":498587,"SoundDuration":498587,"Delta":483283906},{"NoteNumber":79,"Velocity":69,"Duration":256849,"SoundDuration":256849,"Delta":483782494},{"NoteNumber":84,"Velocity":69,"Duration":256849,"SoundDuration":256849,"Delta":483782494},{"NoteNumber":88,"Velocity":69,"Duration":256849,"SoundDuration":256849,"Delta":483782494},{"NoteNumber":91,"Velocity":82,"Duration":256849,"SoundDuration":256849,"Delta":483782494},{"NoteNumber":36,"Velocity":58,"Duration":64212,"SoundDuration":64212,"Delta":483782494},{"NoteNumber":48,"Velocity":70,"Duration":64212,"SoundDuration":64212,"Delta":483782494},{"NoteNumber":48,"Velocity":48,"Duration":64212,"SoundDuration":64212,"Delta":483953727},{"NoteNumber":60,"Velocity":57,"Duration":64212,"SoundDuration":64212,"Delta":483953727},{"NoteNumber":79,"Velocity":64,"Duration":60893,"SoundDuration":60893,"Delta":484124960},{"NoteNumber":84,"Velocity":64,"Duration":60893,"SoundDuration":60893,"Delta":484124960},{"NoteNumber":88,"Velocity":64,"Duration":60893,"SoundDuration":60893,"Delta":484124960},{"NoteNumber":91,"Velocity":78,"Duration":60893,"SoundDuration":60893,"Delta":484124960},{"NoteNumber":35,"Velocity":56,"Duration":60893,"SoundDuration":60893,"Delta":484124960},{"NoteNumber":47,"Velocity":67,"Duration":60893,"SoundDuration":60893,"Delta":484124960},{"NoteNumber":91,"Velocity":78,"Duration":60893,"SoundDuration":60893,"Delta":484287342},{"NoteNumber":79,"Velocity":64,"Duration":60893,"SoundDuration":60893,"Delta":484287342},{"NoteNumber":84,"Velocity":64,"Duration":60893,"SoundDuration":60893,"Delta":484287342},{"NoteNumber":88,"Velocity":64,"Duration":60893,"SoundDuration":60893,"Delta":484287342},{"NoteNumber":59,"Velocity":57,"Duration":60893,"SoundDuration":60893,"Delta":484287342},{"NoteNumber":47,"Velocity":48,"Duration":60893,"SoundDuration":60893,"Delta":484287342},{"NoteNumber":84,"Velocity":75,"Duration":664783,"SoundDuration":664783,"Delta":484449723},{"NoteNumber":88,"Velocity":75,"Duration":664783,"SoundDuration":664783,"Delta":484449723},{"NoteNumber":91,"Velocity":75,"Duration":664783,"SoundDuration":664783,"Delta":484449723},{"NoteNumber":96,"Velocity":85,"Duration":664783,"SoundDuration":664783,"Delta":484449723},{"NoteNumber":45,"Velocity":74,"Duration":62323,"SoundDuration":62323,"Delta":484449723},{"NoteNumber":33,"Velocity":62,"Duration":62323,"SoundDuration":62323,"Delta":484449723},{"NoteNumber":57,"Velocity":58,"Duration":62323,"SoundDuration":62323,"Delta":484615919},{"NoteNumber":45,"Velocity":48,"Duration":62323,"SoundDuration":62323,"Delta":484615919},{"NoteNumber":43,"Velocity":71,"Duration":62323,"SoundDuration":62323,"Delta":484782115},{"NoteNumber":31,"Velocity":59,"Duration":62323,"SoundDuration":62323,"Delta":484782115},{"NoteNumber":55,"Velocity":58,"Duration":62323,"SoundDuration":62323,"Delta":484948311},{"NoteNumber":43,"Velocity":49,"Duration":62323,"SoundDuration":62323,"Delta":484948311},{"NoteNumber":67,"Velocity":70,"Duration":256849,"SoundDuration":256849,"Delta":485114507},{"NoteNumber":72,"Velocity":70,"Duration":256849,"SoundDuration":256849,"Delta":485114507},{"NoteNumber":76,"Velocity":70,"Duration":256849,"SoundDuration":256849,"Delta":485114507},{"NoteNumber":79,"Velocity":84,"Duration":256849,"SoundDuration":256849,"Delta":485114507},{"NoteNumber":36,"Velocity":59,"Duration":64212,"SoundDuration":64212,"Delta":485114507},{"NoteNumber":48,"Velocity":71,"Duration":64212,"SoundDuration":64212,"Delta":485114507},{"NoteNumber":48,"Velocity":49,"Duration":64212,"SoundDuration":64212,"Delta":485285740},{"NoteNumber":60,"Velocity":58,"Duration":64212,"SoundDuration":64212,"Delta":485285740},{"NoteNumber":67,"Velocity":65,"Duration":60893,"SoundDuration":60893,"Delta":485456973},{"NoteNumber":72,"Velocity":65,"Duration":60893,"SoundDuration":60893,"Delta":485456973},{"NoteNumber":76,"Velocity":65,"Duration":60893,"SoundDuration":60893,"Delta":485456973},{"NoteNumber":79,"Velocity":81,"Duration":60893,"SoundDuration":60893,"Delta":485456973},{"NoteNumber":38,"Velocity":58,"Duration":60893,"SoundDuration":60893,"Delta":485456973},{"NoteNumber":50,"Velocity":69,"Duration":60893,"SoundDuration":60893,"Delta":485456973},{"NoteNumber":79,"Velocity":81,"Duration":60893,"SoundDuration":60893,"Delta":485619355},{"NoteNumber":67,"Velocity":65,"Duration":60893,"SoundDuration":60893,"Delta":485619355},{"NoteNumber":72,"Velocity":65,"Duration":60893,"SoundDuration":60893,"Delta":485619355},{"NoteNumber":76,"Velocity":65,"Duration":60893,"SoundDuration":60893,"Delta":485619355},{"NoteNumber":62,"Velocity":59,"Duration":60893,"SoundDuration":60893,"Delta":485619355},{"NoteNumber":50,"Velocity":49,"Duration":60893,"SoundDuration":60893,"Delta":485619355},{"NoteNumber":72,"Velocity":76,"Duration":684472,"SoundDuration":684472,"Delta":485781736},{"NoteNumber":76,"Velocity":76,"Duration":684472,"SoundDuration":684472,"Delta":485781736},{"NoteNumber":79,"Velocity":76,"Duration":684472,"SoundDuration":684472,"Delta":485781736},{"NoteNumber":84,"Velocity":87,"Duration":684472,"SoundDuration":684472,"Delta":485781736},{"NoteNumber":52,"Velocity":75,"Duration":62323,"SoundDuration":62323,"Delta":485781736},{"NoteNumber":40,"Velocity":63,"Duration":62323,"SoundDuration":62323,"Delta":485781736},{"NoteNumber":64,"Velocity":80,"Duration":518276,"SoundDuration":518276,"Delta":485947932},{"NoteNumber":52,"Velocity":65,"Duration":518276,"SoundDuration":518276,"Delta":485947932},{"NoteNumber":85,"Velocity":72,"Duration":261612,"SoundDuration":261612,"Delta":486466209},{"NoteNumber":93,"Velocity":72,"Duration":261612,"SoundDuration":261612,"Delta":486466209},{"NoteNumber":97,"Velocity":86,"Duration":261612,"SoundDuration":261612,"Delta":486466209},{"NoteNumber":33,"Velocity":61,"Duration":65403,"SoundDuration":65403,"Delta":486466209},{"NoteNumber":45,"Velocity":73,"Duration":65403,"SoundDuration":65403,"Delta":486466209},{"NoteNumber":45,"Velocity":50,"Duration":65403,"SoundDuration":65403,"Delta":486640618},{"NoteNumber":57,"Velocity":60,"Duration":65403,"SoundDuration":65403,"Delta":486640618},{"NoteNumber":85,"Velocity":67,"Duration":61599,"SoundDuration":61599,"Delta":486815026},{"NoteNumber":93,"Velocity":67,"Duration":61599,"SoundDuration":61599,"Delta":486815026},{"NoteNumber":97,"Velocity":82,"Duration":61599,"SoundDuration":61599,"Delta":486815026},{"NoteNumber":32,"Velocity":59,"Duration":61599,"SoundDuration":61599,"Delta":486815026},{"NoteNumber":44,"Velocity":70,"Duration":61599,"SoundDuration":61599,"Delta":486815026},{"NoteNumber":97,"Velocity":82,"Duration":61599,"SoundDuration":61599,"Delta":486979293},{"NoteNumber":85,"Velocity":67,"Duration":61599,"SoundDuration":61599,"Delta":486979293},{"NoteNumber":93,"Velocity":67,"Duration":61599,"SoundDuration":61599,"Delta":486979293},{"NoteNumber":56,"Velocity":60,"Duration":61599,"SoundDuration":61599,"Delta":486979293},{"NoteNumber":44,"Velocity":50,"Duration":61599,"SoundDuration":61599,"Delta":486979293},{"NoteNumber":97,"Velocity":78,"Duration":676741,"SoundDuration":676741,"Delta":487143559},{"NoteNumber":88,"Velocity":78,"Duration":676741,"SoundDuration":676741,"Delta":487143559},{"NoteNumber":93,"Velocity":78,"Duration":676741,"SoundDuration":676741,"Delta":487143559},{"NoteNumber":100,"Velocity":89,"Duration":676741,"SoundDuration":676741,"Delta":487143559},{"NoteNumber":42,"Velocity":77,"Duration":63444,"SoundDuration":63444,"Delta":487143559},{"NoteNumber":30,"Velocity":64,"Duration":63444,"SoundDuration":63444,"Delta":487143559},{"NoteNumber":54,"Velocity":60,"Duration":63444,"SoundDuration":63444,"Delta":487312745},{"NoteNumber":42,"Velocity":50,"Duration":63444,"SoundDuration":63444,"Delta":487312745},{"NoteNumber":40,"Velocity":73,"Duration":63444,"SoundDuration":63444,"Delta":487481930},{"NoteNumber":28,"Velocity":61,"Duration":63444,"SoundDuration":63444,"Delta":487481930},{"NoteNumber":52,"Velocity":60,"Duration":63444,"SoundDuration":63444,"Delta":487651116},{"NoteNumber":40,"Velocity":50,"Duration":63444,"SoundDuration":63444,"Delta":487651116},{"NoteNumber":73,"Velocity":72,"Duration":266256,"SoundDuration":266256,"Delta":487820301},{"NoteNumber":81,"Velocity":72,"Duration":266256,"SoundDuration":266256,"Delta":487820301},{"NoteNumber":85,"Velocity":86,"Duration":266256,"SoundDuration":266256,"Delta":487820301},{"NoteNumber":33,"Velocity":61,"Duration":66564,"SoundDuration":66564,"Delta":487820301},{"NoteNumber":45,"Velocity":73,"Duration":66564,"SoundDuration":66564,"Delta":487820301},{"NoteNumber":45,"Velocity":50,"Duration":66564,"SoundDuration":66564,"Delta":487997806},{"NoteNumber":57,"Velocity":60,"Duration":66564,"SoundDuration":66564,"Delta":487997806},{"NoteNumber":73,"Velocity":67,"Duration":63198,"SoundDuration":63198,"Delta":488175310},{"NoteNumber":81,"Velocity":67,"Duration":63198,"SoundDuration":63198,"Delta":488175310},{"NoteNumber":85,"Velocity":82,"Duration":63198,"SoundDuration":63198,"Delta":488175310},{"NoteNumber":35,"Velocity":59,"Duration":63198,"SoundDuration":63198,"Delta":488175310},{"NoteNumber":47,"Velocity":70,"Duration":63198,"SoundDuration":63198,"Delta":488175310},{"NoteNumber":85,"Velocity":82,"Duration":63198,"SoundDuration":63198,"Delta":488343840},{"NoteNumber":73,"Velocity":67,"Duration":63198,"SoundDuration":63198,"Delta":488343840},{"NoteNumber":81,"Velocity":67,"Duration":63198,"SoundDuration":63198,"Delta":488343840},{"NoteNumber":59,"Velocity":60,"Duration":63198,"SoundDuration":63198,"Delta":488343840},{"NoteNumber":47,"Velocity":50,"Duration":63198,"SoundDuration":63198,"Delta":488343840},{"NoteNumber":85,"Velocity":78,"Duration":689616,"SoundDuration":689616,"Delta":488512370},{"NoteNumber":76,"Velocity":78,"Duration":689616,"SoundDuration":689616,"Delta":488512370},{"NoteNumber":81,"Velocity":78,"Duration":689616,"SoundDuration":689616,"Delta":488512370},{"NoteNumber":88,"Velocity":89,"Duration":689616,"SoundDuration":689616,"Delta":488512370},{"NoteNumber":49,"Velocity":77,"Duration":64651,"SoundDuration":64651,"Delta":488512370},{"NoteNumber":37,"Velocity":64,"Duration":64651,"SoundDuration":64651,"Delta":488512370},{"NoteNumber":61,"Velocity":81,"Duration":517212,"SoundDuration":517212,"Delta":488684774},{"NoteNumber":49,"Velocity":66,"Duration":517212,"SoundDuration":517212,"Delta":488684774},{"NoteNumber":85,"Velocity":72,"Duration":264877,"SoundDuration":264877,"Delta":489201986},{"NoteNumber":93,"Velocity":72,"Duration":264877,"SoundDuration":264877,"Delta":489201986},{"NoteNumber":97,"Velocity":86,"Duration":264877,"SoundDuration":264877,"Delta":489201986},{"NoteNumber":33,"Velocity":61,"Duration":66219,"SoundDuration":66219,"Delta":489201986},{"NoteNumber":45,"Velocity":73,"Duration":66219,"SoundDuration":66219,"Delta":489201986},{"NoteNumber":45,"Velocity":50,"Duration":66219,"SoundDuration":66219,"Delta":489378571},{"NoteNumber":57,"Velocity":60,"Duration":66219,"SoundDuration":66219,"Delta":489378571},{"NoteNumber":85,"Velocity":67,"Duration":62323,"SoundDuration":62323,"Delta":489555156},{"NoteNumber":93,"Velocity":67,"Duration":62323,"SoundDuration":62323,"Delta":489555156},{"NoteNumber":97,"Velocity":82,"Duration":62323,"SoundDuration":62323,"Delta":489555156},{"NoteNumber":32,"Velocity":59,"Duration":62323,"SoundDuration":62323,"Delta":489555156},{"NoteNumber":44,"Velocity":70,"Duration":62323,"SoundDuration":62323,"Delta":489555156},{"NoteNumber":97,"Velocity":82,"Duration":62323,"SoundDuration":62323,"Delta":489721352},{"NoteNumber":85,"Velocity":67,"Duration":62323,"SoundDuration":62323,"Delta":489721352},{"NoteNumber":93,"Velocity":67,"Duration":62323,"SoundDuration":62323,"Delta":489721352},{"NoteNumber":56,"Velocity":60,"Duration":62323,"SoundDuration":62323,"Delta":489721352},{"NoteNumber":44,"Velocity":50,"Duration":62323,"SoundDuration":62323,"Delta":489721352},{"NoteNumber":97,"Velocity":78,"Duration":703772,"SoundDuration":703772,"Delta":489887548},{"NoteNumber":88,"Velocity":78,"Duration":703772,"SoundDuration":703772,"Delta":489887548},{"NoteNumber":93,"Velocity":78,"Duration":703772,"SoundDuration":703772,"Delta":489887548},{"NoteNumber":100,"Velocity":89,"Duration":703772,"SoundDuration":703772,"Delta":489887548},{"NoteNumber":42,"Velocity":77,"Duration":65978,"SoundDuration":65978,"Delta":489887548},{"NoteNumber":30,"Velocity":64,"Duration":65978,"SoundDuration":65978,"Delta":489887548},{"NoteNumber":54,"Velocity":60,"Duration":65978,"SoundDuration":65978,"Delta":490063491},{"NoteNumber":42,"Velocity":50,"Duration":65978,"SoundDuration":65978,"Delta":490063491},{"NoteNumber":40,"Velocity":73,"Duration":65978,"SoundDuration":65978,"Delta":490239434},{"NoteNumber":28,"Velocity":61,"Duration":65978,"SoundDuration":65978,"Delta":490239434},{"NoteNumber":52,"Velocity":60,"Duration":65978,"SoundDuration":65978,"Delta":490415377},{"NoteNumber":40,"Velocity":50,"Duration":65978,"SoundDuration":65978,"Delta":490415377},{"NoteNumber":73,"Velocity":72,"Duration":282113,"SoundDuration":282113,"Delta":490591320},{"NoteNumber":81,"Velocity":72,"Duration":282113,"SoundDuration":282113,"Delta":490591320},{"NoteNumber":85,"Velocity":86,"Duration":282113,"SoundDuration":282113,"Delta":490591320},{"NoteNumber":33,"Velocity":61,"Duration":70528,"SoundDuration":70528,"Delta":490591320},{"NoteNumber":45,"Velocity":73,"Duration":70528,"SoundDuration":70528,"Delta":490591320},{"NoteNumber":45,"Velocity":50,"Duration":70528,"SoundDuration":70528,"Delta":490779396},{"NoteNumber":57,"Velocity":60,"Duration":70528,"SoundDuration":70528,"Delta":490779396},{"NoteNumber":73,"Velocity":67,"Duration":66960,"SoundDuration":66960,"Delta":490967472},{"NoteNumber":81,"Velocity":67,"Duration":66960,"SoundDuration":66960,"Delta":490967472},{"NoteNumber":85,"Velocity":82,"Duration":66960,"SoundDuration":66960,"Delta":490967472},{"NoteNumber":35,"Velocity":59,"Duration":66960,"SoundDuration":66960,"Delta":490967472},{"NoteNumber":47,"Velocity":70,"Duration":66960,"SoundDuration":66960,"Delta":490967472},{"NoteNumber":85,"Velocity":82,"Duration":66960,"SoundDuration":66960,"Delta":491146033},{"NoteNumber":73,"Velocity":67,"Duration":66960,"SoundDuration":66960,"Delta":491146033},{"NoteNumber":81,"Velocity":67,"Duration":66960,"SoundDuration":66960,"Delta":491146033},{"NoteNumber":59,"Velocity":60,"Duration":66960,"SoundDuration":66960,"Delta":491146033},{"NoteNumber":47,"Velocity":50,"Duration":66960,"SoundDuration":66960,"Delta":491146033},{"NoteNumber":85,"Velocity":78,"Duration":753691,"SoundDuration":753691,"Delta":491324594},{"NoteNumber":76,"Velocity":78,"Duration":753691,"SoundDuration":753691,"Delta":491324594},{"NoteNumber":81,"Velocity":78,"Duration":753691,"SoundDuration":753691,"Delta":491324594},{"NoteNumber":88,"Velocity":89,"Duration":753691,"SoundDuration":753691,"Delta":491324594},{"NoteNumber":49,"Velocity":77,"Duration":76224,"SoundDuration":76224,"Delta":491324594},{"NoteNumber":37,"Velocity":64,"Duration":76224,"SoundDuration":76224,"Delta":491324594},{"NoteNumber":61,"Velocity":81,"Duration":504556,"SoundDuration":504556,"Delta":491527860},{"NoteNumber":49,"Velocity":66,"Duration":504556,"SoundDuration":504556,"Delta":491527860},{"NoteNumber":54,"Velocity":73,"Duration":353169,"SoundDuration":353169,"Delta":492078285},{"NoteNumber":58,"Velocity":73,"Duration":353169,"SoundDuration":353169,"Delta":492078285},{"NoteNumber":61,"Velocity":73,"Duration":353169,"SoundDuration":353169,"Delta":492078285},{"NoteNumber":66,"Velocity":87,"Duration":353169,"SoundDuration":353169,"Delta":492078285},{"NoteNumber":30,"Velocity":55,"Duration":353169,"SoundDuration":353169,"Delta":492078285},{"NoteNumber":34,"Velocity":55,"Duration":353169,"SoundDuration":353169,"Delta":492078285},{"NoteNumber":37,"Velocity":55,"Duration":353169,"SoundDuration":353169,"Delta":492078285},{"NoteNumber":42,"Velocity":65,"Duration":353169,"SoundDuration":353169,"Delta":492078285},{"NoteNumber":58,"Velocity":68,"Duration":353170,"SoundDuration":353170,"Delta":492431455},{"NoteNumber":61,"Velocity":68,"Duration":353170,"SoundDuration":353170,"Delta":492431455},{"NoteNumber":65,"Velocity":80,"Duration":353170,"SoundDuration":353170,"Delta":492431455},{"NoteNumber":53,"Velocity":68,"Duration":353170,"SoundDuration":353170,"Delta":492431455},{"NoteNumber":29,"Velocity":51,"Duration":353170,"SoundDuration":353170,"Delta":492431455},{"NoteNumber":34,"Velocity":51,"Duration":353170,"SoundDuration":353170,"Delta":492431455},{"NoteNumber":37,"Velocity":51,"Duration":353170,"SoundDuration":353170,"Delta":492431455},{"NoteNumber":41,"Velocity":60,"Duration":353170,"SoundDuration":353170,"Delta":492431455},{"NoteNumber":51,"Velocity":72,"Duration":353169,"SoundDuration":353169,"Delta":492784625},{"NoteNumber":54,"Velocity":72,"Duration":353169,"SoundDuration":353169,"Delta":492784625},{"NoteNumber":58,"Velocity":72,"Duration":353169,"SoundDuration":353169,"Delta":492784625},{"NoteNumber":63,"Velocity":85,"Duration":353169,"SoundDuration":353169,"Delta":492784625},{"NoteNumber":27,"Velocity":55,"Duration":353169,"SoundDuration":353169,"Delta":492784625},{"NoteNumber":30,"Velocity":55,"Duration":353169,"SoundDuration":353169,"Delta":492784625},{"NoteNumber":34,"Velocity":55,"Duration":353169,"SoundDuration":353169,"Delta":492784625},{"NoteNumber":39,"Velocity":65,"Duration":353169,"SoundDuration":353169,"Delta":492784625},{"NoteNumber":54,"Velocity":68,"Duration":389610,"SoundDuration":389610,"Delta":493137795},{"NoteNumber":58,"Velocity":68,"Duration":389610,"SoundDuration":389610,"Delta":493137795},{"NoteNumber":61,"Velocity":80,"Duration":389610,"SoundDuration":389610,"Delta":493137795},{"NoteNumber":49,"Velocity":68,"Duration":389610,"SoundDuration":389610,"Delta":493137795},{"NoteNumber":25,"Velocity":51,"Duration":389610,"SoundDuration":389610,"Delta":493137795},{"NoteNumber":30,"Velocity":51,"Duration":389610,"SoundDuration":389610,"Delta":493137795},{"NoteNumber":34,"Velocity":51,"Duration":389610,"SoundDuration":389610,"Delta":493137795},{"NoteNumber":37,"Velocity":51,"Duration":389610,"SoundDuration":389610,"Delta":493137795},{"NoteNumber":54,"Velocity":73,"Duration":165644,"SoundDuration":165644,"Delta":493527405},{"NoteNumber":58,"Velocity":73,"Duration":165644,"SoundDuration":165644,"Delta":493527405},{"NoteNumber":61,"Velocity":73,"Duration":165644,"SoundDuration":165644,"Delta":493527405},{"NoteNumber":66,"Velocity":86,"Duration":165644,"SoundDuration":165644,"Delta":493527405},{"NoteNumber":30,"Velocity":55,"Duration":165644,"SoundDuration":165644,"Delta":493527405},{"NoteNumber":34,"Velocity":55,"Duration":165644,"SoundDuration":165644,"Delta":493527405},{"NoteNumber":37,"Velocity":55,"Duration":165644,"SoundDuration":165644,"Delta":493527405},{"NoteNumber":42,"Velocity":65,"Duration":165644,"SoundDuration":165644,"Delta":493527405},{"NoteNumber":54,"Velocity":68,"Duration":165644,"SoundDuration":165644,"Delta":493711454},{"NoteNumber":58,"Velocity":68,"Duration":165644,"SoundDuration":165644,"Delta":493711454},{"NoteNumber":61,"Velocity":68,"Duration":165644,"SoundDuration":165644,"Delta":493711454},{"NoteNumber":66,"Velocity":80,"Duration":165644,"SoundDuration":165644,"Delta":493711454},{"NoteNumber":30,"Velocity":51,"Duration":165644,"SoundDuration":165644,"Delta":493711454},{"NoteNumber":34,"Velocity":51,"Duration":165644,"SoundDuration":165644,"Delta":493711454},{"NoteNumber":37,"Velocity":51,"Duration":165644,"SoundDuration":165644,"Delta":493711454},{"NoteNumber":42,"Velocity":60,"Duration":165644,"SoundDuration":165644,"Delta":493711454},{"NoteNumber":56,"Velocity":73,"Duration":382165,"SoundDuration":382165,"Delta":493895503},{"NoteNumber":61,"Velocity":73,"Duration":382165,"SoundDuration":382165,"Delta":493895503},{"NoteNumber":68,"Velocity":86,"Duration":382165,"SoundDuration":382165,"Delta":493895503},{"NoteNumber":32,"Velocity":55,"Duration":382165,"SoundDuration":382165,"Delta":493895503},{"NoteNumber":37,"Velocity":55,"Duration":382165,"SoundDuration":382165,"Delta":493895503},{"NoteNumber":44,"Velocity":65,"Duration":382165,"SoundDuration":382165,"Delta":493895503},{"NoteNumber":58,"Velocity":75,"Duration":375000,"SoundDuration":375000,"Delta":494277669},{"NoteNumber":61,"Velocity":75,"Duration":375000,"SoundDuration":375000,"Delta":494277669},{"NoteNumber":66,"Velocity":75,"Duration":375000,"SoundDuration":375000,"Delta":494277669},{"NoteNumber":70,"Velocity":89,"Duration":375000,"SoundDuration":375000,"Delta":494277669},{"NoteNumber":34,"Velocity":57,"Duration":375000,"SoundDuration":375000,"Delta":494277669},{"NoteNumber":37,"Velocity":57,"Duration":375000,"SoundDuration":375000,"Delta":494277669},{"NoteNumber":42,"Velocity":57,"Duration":375000,"SoundDuration":375000,"Delta":494277669},{"NoteNumber":46,"Velocity":68,"Duration":375000,"SoundDuration":375000,"Delta":494277669},{"NoteNumber":54,"Velocity":73,"Duration":365854,"SoundDuration":365854,"Delta":495030027},{"NoteNumber":58,"Velocity":73,"Duration":365854,"SoundDuration":365854,"Delta":495030027},{"NoteNumber":61,"Velocity":73,"Duration":365854,"SoundDuration":365854,"Delta":495030027},{"NoteNumber":66,"Velocity":87,"Duration":365854,"SoundDuration":365854,"Delta":495030027},{"NoteNumber":30,"Velocity":55,"Duration":365854,"SoundDuration":365854,"Delta":495030027},{"NoteNumber":34,"Velocity":55,"Duration":365854,"SoundDuration":365854,"Delta":495030027},{"NoteNumber":37,"Velocity":55,"Duration":365854,"SoundDuration":365854,"Delta":495030027},{"NoteNumber":42,"Velocity":65,"Duration":365854,"SoundDuration":365854,"Delta":495030027},{"NoteNumber":58,"Velocity":68,"Duration":365854,"SoundDuration":365854,"Delta":495395881},{"NoteNumber":61,"Velocity":68,"Duration":365854,"SoundDuration":365854,"Delta":495395881},{"NoteNumber":65,"Velocity":80,"Duration":365854,"SoundDuration":365854,"Delta":495395881},{"NoteNumber":53,"Velocity":68,"Duration":365854,"SoundDuration":365854,"Delta":495395881},{"NoteNumber":29,"Velocity":51,"Duration":365854,"SoundDuration":365854,"Delta":495395881},{"NoteNumber":34,"Velocity":51,"Duration":365854,"SoundDuration":365854,"Delta":495395881},{"NoteNumber":37,"Velocity":51,"Duration":365854,"SoundDuration":365854,"Delta":495395881},{"NoteNumber":41,"Velocity":60,"Duration":365854,"SoundDuration":365854,"Delta":495395881},{"NoteNumber":51,"Velocity":72,"Duration":359281,"SoundDuration":359281,"Delta":495761735},{"NoteNumber":54,"Velocity":72,"Duration":359281,"SoundDuration":359281,"Delta":495761735},{"NoteNumber":58,"Velocity":72,"Duration":359281,"SoundDuration":359281,"Delta":495761735},{"NoteNumber":63,"Velocity":85,"Duration":359281,"SoundDuration":359281,"Delta":495761735},{"NoteNumber":27,"Velocity":55,"Duration":359281,"SoundDuration":359281,"Delta":495761735},{"NoteNumber":30,"Velocity":55,"Duration":359281,"SoundDuration":359281,"Delta":495761735},{"NoteNumber":34,"Velocity":55,"Duration":359281,"SoundDuration":359281,"Delta":495761735},{"NoteNumber":39,"Velocity":65,"Duration":359281,"SoundDuration":359281,"Delta":495761735},{"NoteNumber":54,"Velocity":68,"Duration":384614,"SoundDuration":384614,"Delta":496121016},{"NoteNumber":58,"Velocity":68,"Duration":384614,"SoundDuration":384614,"Delta":496121016},{"NoteNumber":61,"Velocity":80,"Duration":384614,"SoundDuration":384614,"Delta":496121016},{"NoteNumber":49,"Velocity":68,"Duration":384614,"SoundDuration":384614,"Delta":496121016},{"NoteNumber":25,"Velocity":51,"Duration":384614,"SoundDuration":384614,"Delta":496121016},{"NoteNumber":30,"Velocity":51,"Duration":384614,"SoundDuration":384614,"Delta":496121016},{"NoteNumber":34,"Velocity":51,"Duration":384614,"SoundDuration":384614,"Delta":496121016},{"NoteNumber":37,"Velocity":51,"Duration":384614,"SoundDuration":384614,"Delta":496121016},{"NoteNumber":54,"Velocity":73,"Duration":160714,"SoundDuration":160714,"Delta":496505631},{"NoteNumber":58,"Velocity":73,"Duration":160714,"SoundDuration":160714,"Delta":496505631},{"NoteNumber":61,"Velocity":73,"Duration":160714,"SoundDuration":160714,"Delta":496505631},{"NoteNumber":66,"Velocity":86,"Duration":160714,"SoundDuration":160714,"Delta":496505631},{"NoteNumber":30,"Velocity":55,"Duration":160714,"SoundDuration":160714,"Delta":496505631},{"NoteNumber":34,"Velocity":55,"Duration":160714,"SoundDuration":160714,"Delta":496505631},{"NoteNumber":37,"Velocity":55,"Duration":160714,"SoundDuration":160714,"Delta":496505631},{"NoteNumber":42,"Velocity":65,"Duration":160714,"SoundDuration":160714,"Delta":496505631},{"NoteNumber":54,"Velocity":68,"Duration":160714,"SoundDuration":160714,"Delta":496684203},{"NoteNumber":58,"Velocity":68,"Duration":160714,"SoundDuration":160714,"Delta":496684203},{"NoteNumber":61,"Velocity":68,"Duration":160714,"SoundDuration":160714,"Delta":496684203},{"NoteNumber":66,"Velocity":80,"Duration":160714,"SoundDuration":160714,"Delta":496684203},{"NoteNumber":30,"Velocity":51,"Duration":160714,"SoundDuration":160714,"Delta":496684203},{"NoteNumber":34,"Velocity":51,"Duration":160714,"SoundDuration":160714,"Delta":496684203},{"NoteNumber":37,"Velocity":51,"Duration":160714,"SoundDuration":160714,"Delta":496684203},{"NoteNumber":42,"Velocity":60,"Duration":160714,"SoundDuration":160714,"Delta":496684203},{"NoteNumber":56,"Velocity":73,"Duration":382165,"SoundDuration":382165,"Delta":496862774},{"NoteNumber":61,"Velocity":73,"Duration":382165,"SoundDuration":382165,"Delta":496862774},{"NoteNumber":68,"Velocity":86,"Duration":382165,"SoundDuration":382165,"Delta":496862774},{"NoteNumber":32,"Velocity":55,"Duration":382165,"SoundDuration":382165,"Delta":496862774},{"NoteNumber":37,"Velocity":55,"Duration":382165,"SoundDuration":382165,"Delta":496862774},{"NoteNumber":44,"Velocity":65,"Duration":382165,"SoundDuration":382165,"Delta":496862774},{"NoteNumber":58,"Velocity":75,"Duration":375000,"SoundDuration":375000,"Delta":497244940},{"NoteNumber":61,"Velocity":75,"Duration":375000,"SoundDuration":375000,"Delta":497244940},{"NoteNumber":66,"Velocity":75,"Duration":375000,"SoundDuration":375000,"Delta":497244940},{"NoteNumber":70,"Velocity":89,"Duration":375000,"SoundDuration":375000,"Delta":497244940},{"NoteNumber":34,"Velocity":57,"Duration":375000,"SoundDuration":375000,"Delta":497244940},{"NoteNumber":37,"Velocity":57,"Duration":375000,"SoundDuration":375000,"Delta":497244940},{"NoteNumber":42,"Velocity":57,"Duration":375000,"SoundDuration":375000,"Delta":497244940},{"NoteNumber":46,"Velocity":68,"Duration":375000,"SoundDuration":375000,"Delta":497244940},{"NoteNumber":61,"Velocity":77,"Duration":560243,"SoundDuration":560243,"Delta":497994940},{"NoteNumber":66,"Velocity":77,"Duration":560243,"SoundDuration":560243,"Delta":497994940},{"NoteNumber":70,"Velocity":77,"Duration":560243,"SoundDuration":560243,"Delta":497994940},{"NoteNumber":73,"Velocity":91,"Duration":560243,"SoundDuration":560243,"Delta":497994940},{"NoteNumber":42,"Velocity":62,"Duration":560243,"SoundDuration":560243,"Delta":497994940},{"NoteNumber":46,"Velocity":62,"Duration":560243,"SoundDuration":560243,"Delta":497994940},{"NoteNumber":49,"Velocity":62,"Duration":560243,"SoundDuration":560243,"Delta":497994940},{"NoteNumber":54,"Velocity":73,"Duration":560243,"SoundDuration":560243,"Delta":497994940},{"NoteNumber":61,"Velocity":72,"Duration":189873,"SoundDuration":189873,"Delta":498555184},{"NoteNumber":66,"Velocity":72,"Duration":189873,"SoundDuration":189873,"Delta":498555184},{"NoteNumber":70,"Velocity":72,"Duration":189873,"SoundDuration":189873,"Delta":498555184},{"NoteNumber":73,"Velocity":85,"Duration":189873,"SoundDuration":189873,"Delta":498555184},{"NoteNumber":42,"Velocity":57,"Duration":189873,"SoundDuration":189873,"Delta":498555184},{"NoteNumber":46,"Velocity":57,"Duration":189873,"SoundDuration":189873,"Delta":498555184},{"NoteNumber":49,"Velocity":57,"Duration":189873,"SoundDuration":189873,"Delta":498555184},{"NoteNumber":54,"Velocity":68,"Duration":189873,"SoundDuration":189873,"Delta":498555184},{"NoteNumber":63,"Velocity":78,"Duration":375000,"SoundDuration":375000,"Delta":498745057},{"NoteNumber":66,"Velocity":78,"Duration":375000,"SoundDuration":375000,"Delta":498745057},{"NoteNumber":71,"Velocity":78,"Duration":375000,"SoundDuration":375000,"Delta":498745057},{"NoteNumber":75,"Velocity":92,"Duration":375000,"SoundDuration":375000,"Delta":498745057},{"NoteNumber":47,"Velocity":62,"Duration":375000,"SoundDuration":375000,"Delta":498745057},{"NoteNumber":51,"Velocity":62,"Duration":375000,"SoundDuration":375000,"Delta":498745057},{"NoteNumber":54,"Velocity":62,"Duration":375000,"SoundDuration":375000,"Delta":498745057},{"NoteNumber":59,"Velocity":73,"Duration":375000,"SoundDuration":375000,"Delta":498745057},{"NoteNumber":61,"Velocity":73,"Duration":382165,"SoundDuration":382165,"Delta":499120057},{"NoteNumber":66,"Velocity":73,"Duration":382165,"SoundDuration":382165,"Delta":499120057},{"NoteNumber":70,"Velocity":73,"Duration":382165,"SoundDuration":382165,"Delta":499120057},{"NoteNumber":73,"Velocity":86,"Duration":382165,"SoundDuration":382165,"Delta":499120057},{"NoteNumber":42,"Velocity":59,"Duration":382165,"SoundDuration":382165,"Delta":499120057},{"NoteNumber":46,"Velocity":59,"Duration":382165,"SoundDuration":382165,"Delta":499120057},{"NoteNumber":49,"Velocity":59,"Duration":382165,"SoundDuration":382165,"Delta":499120057},{"NoteNumber":54,"Velocity":70,"Duration":382165,"SoundDuration":382165,"Delta":499120057},{"NoteNumber":58,"Velocity":79,"Duration":559006,"SoundDuration":559006,"Delta":499502223},{"NoteNumber":70,"Velocity":93,"Duration":559006,"SoundDuration":559006,"Delta":499502223},{"NoteNumber":34,"Velocity":62,"Duration":559006,"SoundDuration":559006,"Delta":499502223},{"NoteNumber":46,"Velocity":74,"Duration":559006,"SoundDuration":559006,"Delta":499502223},{"NoteNumber":58,"Velocity":73,"Duration":186335,"SoundDuration":186335,"Delta":500061230},{"NoteNumber":68,"Velocity":87,"Duration":186335,"SoundDuration":186335,"Delta":500061230},{"NoteNumber":38,"Velocity":56,"Duration":186335,"SoundDuration":186335,"Delta":500061230},{"NoteNumber":46,"Velocity":67,"Duration":186335,"SoundDuration":186335,"Delta":500061230},{"NoteNumber":58,"Velocity":77,"Duration":90909,"SoundDuration":90909,"Delta":500247565},{"NoteNumber":66,"Velocity":91,"Duration":90909,"SoundDuration":90909,"Delta":500247565},{"NoteNumber":39,"Velocity":61,"Duration":90909,"SoundDuration":90909,"Delta":500247565},{"NoteNumber":46,"Velocity":72,"Duration":90909,"SoundDuration":90909,"Delta":500247565},{"NoteNumber":58,"Velocity":72,"Duration":90908,"SoundDuration":90908,"Delta":500429383},{"NoteNumber":65,"Velocity":85,"Duration":90908,"SoundDuration":90908,"Delta":500429383},{"NoteNumber":41,"Velocity":58,"Duration":90908,"SoundDuration":90908,"Delta":500429383},{"NoteNumber":46,"Velocity":69,"Duration":90908,"SoundDuration":90908,"Delta":500429383},{"NoteNumber":58,"Velocity":71,"Duration":187500,"SoundDuration":187500,"Delta":500611201},{"NoteNumber":63,"Velocity":84,"Duration":187500,"SoundDuration":187500,"Delta":500611201},{"NoteNumber":42,"Velocity":58,"Duration":187500,"SoundDuration":187500,"Delta":500611201},{"NoteNumber":46,"Velocity":69,"Duration":187500,"SoundDuration":187500,"Delta":500611201},{"NoteNumber":66,"Velocity":66,"Duration":349833,"SoundDuration":349833,"Delta":500986201},{"NoteNumber":70,"Velocity":78,"Duration":69966,"SoundDuration":69966,"Delta":500986201},{"NoteNumber":54,"Velocity":66,"Duration":349833,"SoundDuration":349833,"Delta":500986201},{"NoteNumber":58,"Velocity":78,"Duration":349833,"SoundDuration":349833,"Delta":500986201},{"NoteNumber":71,"Velocity":73,"Duration":69966,"SoundDuration":69966,"Delta":501056168},{"NoteNumber":70,"Velocity":73,"Duration":69966,"SoundDuration":69966,"Delta":501126135},{"NoteNumber":69,"Velocity":73,"Duration":69966,"SoundDuration":69966,"Delta":501196102},{"NoteNumber":70,"Velocity":73,"Duration":69966,"SoundDuration":69966,"Delta":501266068},{"NoteNumber":68,"Velocity":62,"Duration":90084,"SoundDuration":90084,"Delta":501336035},{"NoteNumber":71,"Velocity":73,"Duration":90084,"SoundDuration":90084,"Delta":501336035},{"NoteNumber":56,"Velocity":58,"Duration":90084,"SoundDuration":90084,"Delta":501336035},{"NoteNumber":59,"Velocity":69,"Duration":90084,"SoundDuration":90084,"Delta":501336035},{"NoteNumber":66,"Velocity":59,"Duration":100671,"SoundDuration":100671,"Delta":501516205},{"NoteNumber":70,"Velocity":70,"Duration":100671,"SoundDuration":100671,"Delta":501516205},{"NoteNumber":54,"Velocity":58,"Duration":100671,"SoundDuration":100671,"Delta":501516205},{"NoteNumber":58,"Velocity":69,"Duration":100671,"SoundDuration":100671,"Delta":501516205},{"NoteNumber":65,"Velocity":68,"Duration":93167,"SoundDuration":93167,"Delta":501717547},{"NoteNumber":68,"Velocity":80,"Duration":93167,"SoundDuration":93167,"Delta":501717547},{"NoteNumber":53,"Velocity":62,"Duration":93167,"SoundDuration":93167,"Delta":501717547},{"NoteNumber":56,"Velocity":74,"Duration":93167,"SoundDuration":93167,"Delta":501717547},{"NoteNumber":63,"Velocity":62,"Duration":93167,"SoundDuration":93167,"Delta":501903883},{"NoteNumber":66,"Velocity":73,"Duration":93167,"SoundDuration":93167,"Delta":501903883},{"NoteNumber":51,"Velocity":58,"Duration":93167,"SoundDuration":93167,"Delta":501903883},{"NoteNumber":54,"Velocity":69,"Duration":93167,"SoundDuration":93167,"Delta":501903883},{"NoteNumber":58,"Velocity":62,"Duration":193548,"SoundDuration":193548,"Delta":502090218},{"NoteNumber":65,"Velocity":73,"Duration":193548,"SoundDuration":193548,"Delta":502090218},{"NoteNumber":46,"Velocity":58,"Duration":193548,"SoundDuration":193548,"Delta":502090218},{"NoteNumber":53,"Velocity":69,"Duration":193548,"SoundDuration":193548,"Delta":502090218},{"NoteNumber":54,"Velocity":75,"Duration":186335,"SoundDuration":186335,"Delta":502477315},{"NoteNumber":58,"Velocity":75,"Duration":186335,"SoundDuration":186335,"Delta":502477315},{"NoteNumber":63,"Velocity":89,"Duration":186335,"SoundDuration":186335,"Delta":502477315},{"NoteNumber":39,"Velocity":64,"Duration":186335,"SoundDuration":186335,"Delta":502477315},{"NoteNumber":46,"Velocity":64,"Duration":186335,"SoundDuration":186335,"Delta":502477315},{"NoteNumber":51,"Velocity":76,"Duration":186335,"SoundDuration":186335,"Delta":502477315},{"NoteNumber":73,"Velocity":77,"Duration":560243,"SoundDuration":560243,"Delta":503222657},{"NoteNumber":78,"Velocity":77,"Duration":560243,"SoundDuration":560243,"Delta":503222657},{"NoteNumber":82,"Velocity":77,"Duration":560243,"SoundDuration":560243,"Delta":503222657},{"NoteNumber":85,"Velocity":91,"Duration":560243,"SoundDuration":560243,"Delta":503222657},{"NoteNumber":42,"Velocity":62,"Duration":560243,"SoundDuration":560243,"Delta":503222657},{"NoteNumber":46,"Velocity":62,"Duration":560243,"SoundDuration":560243,"Delta":503222657},{"NoteNumber":49,"Velocity":62,"Duration":560243,"SoundDuration":560243,"Delta":503222657},{"NoteNumber":54,"Velocity":73,"Duration":560243,"SoundDuration":560243,"Delta":503222657},{"NoteNumber":73,"Velocity":72,"Duration":189873,"SoundDuration":189873,"Delta":503782901},{"NoteNumber":78,"Velocity":72,"Duration":189873,"SoundDuration":189873,"Delta":503782901},{"NoteNumber":82,"Velocity":72,"Duration":189873,"SoundDuration":189873,"Delta":503782901},{"NoteNumber":85,"Velocity":85,"Duration":189873,"SoundDuration":189873,"Delta":503782901},{"NoteNumber":42,"Velocity":57,"Duration":189873,"SoundDuration":189873,"Delta":503782901},{"NoteNumber":46,"Velocity":57,"Duration":189873,"SoundDuration":189873,"Delta":503782901},{"NoteNumber":49,"Velocity":57,"Duration":189873,"SoundDuration":189873,"Delta":503782901},{"NoteNumber":54,"Velocity":68,"Duration":189873,"SoundDuration":189873,"Delta":503782901},{"NoteNumber":75,"Velocity":78,"Duration":375000,"SoundDuration":375000,"Delta":503972774},{"NoteNumber":78,"Velocity":78,"Duration":375000,"SoundDuration":375000,"Delta":503972774},{"NoteNumber":83,"Velocity":78,"Duration":375000,"SoundDuration":375000,"Delta":503972774},{"NoteNumber":87,"Velocity":92,"Duration":375000,"SoundDuration":375000,"Delta":503972774},{"NoteNumber":47,"Velocity":62,"Duration":375000,"SoundDuration":375000,"Delta":503972774},{"NoteNumber":51,"Velocity":62,"Duration":375000,"SoundDuration":375000,"Delta":503972774},{"NoteNumber":54,"Velocity":62,"Duration":375000,"SoundDuration":375000,"Delta":503972774},{"NoteNumber":59,"Velocity":73,"Duration":375000,"SoundDuration":375000,"Delta":503972774},{"NoteNumber":73,"Velocity":73,"Duration":382165,"SoundDuration":382165,"Delta":504347774},{"NoteNumber":78,"Velocity":73,"Duration":382165,"SoundDuration":382165,"Delta":504347774},{"NoteNumber":82,"Velocity":73,"Duration":382165,"SoundDuration":382165,"Delta":504347774},{"NoteNumber":85,"Velocity":86,"Duration":382165,"SoundDuration":382165,"Delta":504347774},{"NoteNumber":42,"Velocity":59,"Duration":382165,"SoundDuration":382165,"Delta":504347774},{"NoteNumber":46,"Velocity":59,"Duration":382165,"SoundDuration":382165,"Delta":504347774},{"NoteNumber":49,"Velocity":59,"Duration":382165,"SoundDuration":382165,"Delta":504347774},{"NoteNumber":54,"Velocity":70,"Duration":382165,"SoundDuration":382165,"Delta":504347774},{"NoteNumber":70,"Velocity":79,"Duration":559006,"SoundDuration":559006,"Delta":504729940},{"NoteNumber":82,"Velocity":93,"Duration":559006,"SoundDuration":559006,"Delta":504729940},{"NoteNumber":34,"Velocity":62,"Duration":559006,"SoundDuration":559006,"Delta":504729940},{"NoteNumber":46,"Velocity":74,"Duration":559006,"SoundDuration":559006,"Delta":504729940},{"NoteNumber":68,"Velocity":73,"Duration":186335,"SoundDuration":186335,"Delta":505288947},{"NoteNumber":80,"Velocity":87,"Duration":186335,"SoundDuration":186335,"Delta":505288947},{"NoteNumber":46,"Velocity":56,"Duration":186335,"SoundDuration":186335,"Delta":505288947},{"NoteNumber":38,"Velocity":56,"Duration":186335,"SoundDuration":186335,"Delta":505288947},{"NoteNumber":50,"Velocity":67,"Duration":186335,"SoundDuration":186335,"Delta":505288947},{"NoteNumber":66,"Velocity":77,"Duration":90909,"SoundDuration":90909,"Delta":505475282},{"NoteNumber":78,"Velocity":91,"Duration":90909,"SoundDuration":90909,"Delta":505475282},{"NoteNumber":46,"Velocity":61,"Duration":90909,"SoundDuration":90909,"Delta":505475282},{"NoteNumber":39,"Velocity":61,"Duration":90909,"SoundDuration":90909,"Delta":505475282},{"NoteNumber":51,"Velocity":72,"Duration":90909,"SoundDuration":90909,"Delta":505475282},{"NoteNumber":65,"Velocity":72,"Duration":90908,"SoundDuration":90908,"Delta":505657100},{"NoteNumber":77,"Velocity":85,"Duration":90908,"SoundDuration":90908,"Delta":505657100},{"NoteNumber":46,"Velocity":58,"Duration":90908,"SoundDuration":90908,"Delta":505657100},{"NoteNumber":41,"Velocity":58,"Duration":90908,"SoundDuration":90908,"Delta":505657100},{"NoteNumber":53,"Velocity":69,"Duration":90908,"SoundDuration":90908,"Delta":505657100},{"NoteNumber":63,"Velocity":71,"Duration":187500,"SoundDuration":187500,"Delta":505838918},{"NoteNumber":75,"Velocity":84,"Duration":187500,"SoundDuration":187500,"Delta":505838918},{"NoteNumber":46,"Velocity":58,"Duration":187500,"SoundDuration":187500,"Delta":505838918},{"NoteNumber":42,"Velocity":58,"Duration":187500,"SoundDuration":187500,"Delta":505838918},{"NoteNumber":54,"Velocity":69,"Duration":187500,"SoundDuration":187500,"Delta":505838918},{"NoteNumber":78,"Velocity":66,"Duration":346820,"SoundDuration":346820,"Delta":506213918},{"NoteNumber":82,"Velocity":78,"Duration":69364,"SoundDuration":69364,"Delta":506213918},{"NoteNumber":58,"Velocity":66,"Duration":346820,"SoundDuration":346820,"Delta":506213918},{"NoteNumber":54,"Velocity":66,"Duration":346820,"SoundDuration":346820,"Delta":506213918},{"NoteNumber":66,"Velocity":78,"Duration":346820,"SoundDuration":346820,"Delta":506213918},{"NoteNumber":83,"Velocity":73,"Duration":69364,"SoundDuration":69364,"Delta":506283282},{"NoteNumber":82,"Velocity":73,"Duration":69364,"SoundDuration":69364,"Delta":506352647},{"NoteNumber":81,"Velocity":73,"Duration":69364,"SoundDuration":69364,"Delta":506422011},{"NoteNumber":82,"Velocity":73,"Duration":69364,"SoundDuration":69364,"Delta":506491375},{"NoteNumber":71,"Velocity":62,"Duration":90361,"SoundDuration":90361,"Delta":506560739},{"NoteNumber":83,"Velocity":73,"Duration":90361,"SoundDuration":90361,"Delta":506560739},{"NoteNumber":56,"Velocity":58,"Duration":90361,"SoundDuration":90361,"Delta":506560739},{"NoteNumber":68,"Velocity":69,"Duration":90361,"SoundDuration":90361,"Delta":506560739},{"NoteNumber":70,"Velocity":59,"Duration":100671,"SoundDuration":100671,"Delta":506741462},{"NoteNumber":82,"Velocity":70,"Duration":100671,"SoundDuration":100671,"Delta":506741462},{"NoteNumber":54,"Velocity":58,"Duration":100671,"SoundDuration":100671,"Delta":506741462},{"NoteNumber":66,"Velocity":69,"Duration":100671,"SoundDuration":100671,"Delta":506741462},{"NoteNumber":68,"Velocity":68,"Duration":89820,"SoundDuration":89820,"Delta":506942805},{"NoteNumber":80,"Velocity":80,"Duration":89820,"SoundDuration":89820,"Delta":506942805},{"NoteNumber":53,"Velocity":62,"Duration":89820,"SoundDuration":89820,"Delta":506942805},{"NoteNumber":65,"Velocity":74,"Duration":89820,"SoundDuration":89820,"Delta":506942805},{"NoteNumber":66,"Velocity":62,"Duration":89820,"SoundDuration":89820,"Delta":507122445},{"NoteNumber":78,"Velocity":73,"Duration":89820,"SoundDuration":89820,"Delta":507122445},{"NoteNumber":51,"Velocity":58,"Duration":89820,"SoundDuration":89820,"Delta":507122445},{"NoteNumber":63,"Velocity":69,"Duration":89820,"SoundDuration":89820,"Delta":507122445},{"NoteNumber":65,"Velocity":62,"Duration":193548,"SoundDuration":193548,"Delta":507302086},{"NoteNumber":77,"Velocity":73,"Duration":193548,"SoundDuration":193548,"Delta":507302086},{"NoteNumber":46,"Velocity":58,"Duration":193548,"SoundDuration":193548,"Delta":507302086},{"NoteNumber":58,"Velocity":69,"Duration":193548,"SoundDuration":193548,"Delta":507302086},{"NoteNumber":63,"Velocity":75,"Duration":185184,"SoundDuration":185184,"Delta":507689183},{"NoteNumber":70,"Velocity":75,"Duration":185184,"SoundDuration":185184,"Delta":507689183},{"NoteNumber":75,"Velocity":89,"Duration":185184,"SoundDuration":185184,"Delta":507689183},{"NoteNumber":51,"Velocity":64,"Duration":185184,"SoundDuration":185184,"Delta":507689183},{"NoteNumber":54,"Velocity":64,"Duration":185184,"SoundDuration":185184,"Delta":507689183},{"NoteNumber":58,"Velocity":76,"Duration":185184,"SoundDuration":185184,"Delta":507689183},{"NoteNumber":54,"Velocity":65,"Duration":132352,"SoundDuration":132352,"Delta":508429923},{"NoteNumber":58,"Velocity":65,"Duration":132352,"SoundDuration":132352,"Delta":508429923},{"NoteNumber":61,"Velocity":65,"Duration":132352,"SoundDuration":132352,"Delta":508429923},{"NoteNumber":66,"Velocity":78,"Duration":132352,"SoundDuration":132352,"Delta":508429923},{"NoteNumber":30,"Velocity":66,"Duration":352940,"SoundDuration":352940,"Delta":508429923},{"NoteNumber":34,"Velocity":66,"Duration":352940,"SoundDuration":352940,"Delta":508429923},{"NoteNumber":37,"Velocity":66,"Duration":352940,"SoundDuration":352940,"Delta":508429923},{"NoteNumber":42,"Velocity":78,"Duration":352940,"SoundDuration":352940,"Delta":508429923},{"NoteNumber":54,"Velocity":55,"Duration":132352,"SoundDuration":132352,"Delta":508606393},{"NoteNumber":58,"Velocity":55,"Duration":132352,"SoundDuration":132352,"Delta":508606393},{"NoteNumber":61,"Velocity":55,"Duration":132352,"SoundDuration":132352,"Delta":508606393},{"NoteNumber":66,"Velocity":65,"Duration":132352,"SoundDuration":132352,"Delta":508606393},{"NoteNumber":29,"Velocity":61,"Duration":363635,"SoundDuration":363635,"Delta":508782864},{"NoteNumber":34,"Velocity":61,"Duration":363635,"SoundDuration":363635,"Delta":508782864},{"NoteNumber":37,"Velocity":61,"Duration":363635,"SoundDuration":363635,"Delta":508782864},{"NoteNumber":41,"Velocity":72,"Duration":363635,"SoundDuration":363635,"Delta":508782864},{"NoteNumber":58,"Velocity":54,"Duration":136363,"SoundDuration":136363,"Delta":508964682},{"NoteNumber":61,"Velocity":54,"Duration":136363,"SoundDuration":136363,"Delta":508964682},{"NoteNumber":65,"Velocity":64,"Duration":136363,"SoundDuration":136363,"Delta":508964682},{"NoteNumber":53,"Velocity":54,"Duration":136363,"SoundDuration":136363,"Delta":508964682},{"NoteNumber":27,"Velocity":66,"Duration":363636,"SoundDuration":363636,"Delta":509146500},{"NoteNumber":30,"Velocity":66,"Duration":363636,"SoundDuration":363636,"Delta":509146500},{"NoteNumber":34,"Velocity":66,"Duration":363636,"SoundDuration":363636,"Delta":509146500},{"NoteNumber":39,"Velocity":78,"Duration":363636,"SoundDuration":363636,"Delta":509146500},{"NoteNumber":51,"Velocity":57,"Duration":136363,"SoundDuration":136363,"Delta":509328318},{"NoteNumber":54,"Velocity":57,"Duration":136363,"SoundDuration":136363,"Delta":509328318},{"NoteNumber":58,"Velocity":57,"Duration":136363,"SoundDuration":136363,"Delta":509328318},{"NoteNumber":63,"Velocity":68,"Duration":136363,"SoundDuration":136363,"Delta":509328318},{"NoteNumber":25,"Velocity":61,"Duration":379747,"SoundDuration":379747,"Delta":509510136},{"NoteNumber":30,"Velocity":61,"Duration":379747,"SoundDuration":379747,"Delta":509510136},{"NoteNumber":34,"Velocity":61,"Duration":379747,"SoundDuration":379747,"Delta":509510136},{"NoteNumber":37,"Velocity":61,"Duration":379747,"SoundDuration":379747,"Delta":509510136},{"NoteNumber":54,"Velocity":54,"Duration":142405,"SoundDuration":142405,"Delta":509700009},{"NoteNumber":58,"Velocity":54,"Duration":142405,"SoundDuration":142405,"Delta":509700009},{"NoteNumber":61,"Velocity":64,"Duration":142405,"SoundDuration":142405,"Delta":509700009},{"NoteNumber":49,"Velocity":54,"Duration":142405,"SoundDuration":142405,"Delta":509700009},{"NoteNumber":30,"Velocity":66,"Duration":361446,"SoundDuration":361446,"Delta":509889883},{"NoteNumber":34,"Velocity":66,"Duration":361446,"SoundDuration":361446,"Delta":509889883},{"NoteNumber":37,"Velocity":66,"Duration":361446,"SoundDuration":361446,"Delta":509889883},{"NoteNumber":42,"Velocity":78,"Duration":361446,"SoundDuration":361446,"Delta":509889883},{"NoteNumber":54,"Velocity":54,"Duration":121988,"SoundDuration":121988,"Delta":510070606},{"NoteNumber":58,"Velocity":54,"Duration":121988,"SoundDuration":121988,"Delta":510070606},{"NoteNumber":61,"Velocity":54,"Duration":121988,"SoundDuration":121988,"Delta":510070606},{"NoteNumber":66,"Velocity":64,"Duration":121988,"SoundDuration":121988,"Delta":510070606},{"NoteNumber":32,"Velocity":66,"Duration":377358,"SoundDuration":377358,"Delta":510251329},{"NoteNumber":37,"Velocity":66,"Duration":377358,"SoundDuration":377358,"Delta":510251329},{"NoteNumber":44,"Velocity":78,"Duration":377358,"SoundDuration":377358,"Delta":510251329},{"NoteNumber":56,"Velocity":58,"Duration":141509,"SoundDuration":141509,"Delta":510440008},{"NoteNumber":61,"Velocity":58,"Duration":141509,"SoundDuration":141509,"Delta":510440008},{"NoteNumber":68,"Velocity":69,"Duration":141509,"SoundDuration":141509,"Delta":510440008},{"NoteNumber":34,"Velocity":68,"Duration":365854,"SoundDuration":365854,"Delta":510628687},{"NoteNumber":37,"Velocity":68,"Duration":365854,"SoundDuration":365854,"Delta":510628687},{"NoteNumber":42,"Velocity":68,"Duration":365854,"SoundDuration":365854,"Delta":510628687},{"NoteNumber":46,"Velocity":81,"Duration":365854,"SoundDuration":365854,"Delta":510628687},{"NoteNumber":58,"Velocity":60,"Duration":137195,"SoundDuration":137195,"Delta":510811614},{"NoteNumber":61,"Velocity":60,"Duration":137195,"SoundDuration":137195,"Delta":510811614},{"NoteNumber":66,"Velocity":60,"Duration":137195,"SoundDuration":137195,"Delta":510811614},{"NoteNumber":70,"Velocity":72,"Duration":137195,"SoundDuration":137195,"Delta":510811614},{"NoteNumber":54,"Velocity":65,"Duration":131578,"SoundDuration":131578,"Delta":511371899},{"NoteNumber":58,"Velocity":65,"Duration":131578,"SoundDuration":131578,"Delta":511371899},{"NoteNumber":61,"Velocity":65,"Duration":131578,"SoundDuration":131578,"Delta":511371899},{"NoteNumber":66,"Velocity":78,"Duration":131578,"SoundDuration":131578,"Delta":511371899},{"NoteNumber":30,"Velocity":66,"Duration":350876,"SoundDuration":350876,"Delta":511371899},{"NoteNumber":34,"Velocity":66,"Duration":350876,"SoundDuration":350876,"Delta":511371899},{"NoteNumber":37,"Velocity":66,"Duration":350876,"SoundDuration":350876,"Delta":511371899},{"NoteNumber":42,"Velocity":78,"Duration":350876,"SoundDuration":350876,"Delta":511371899},{"NoteNumber":54,"Velocity":55,"Duration":131578,"SoundDuration":131578,"Delta":511547337},{"NoteNumber":58,"Velocity":55,"Duration":131578,"SoundDuration":131578,"Delta":511547337},{"NoteNumber":61,"Velocity":55,"Duration":131578,"SoundDuration":131578,"Delta":511547337},{"NoteNumber":66,"Velocity":65,"Duration":131578,"SoundDuration":131578,"Delta":511547337},{"NoteNumber":29,"Velocity":61,"Duration":361446,"SoundDuration":361446,"Delta":511722776},{"NoteNumber":34,"Velocity":61,"Duration":361446,"SoundDuration":361446,"Delta":511722776},{"NoteNumber":37,"Velocity":61,"Duration":361446,"SoundDuration":361446,"Delta":511722776},{"NoteNumber":41,"Velocity":72,"Duration":361446,"SoundDuration":361446,"Delta":511722776},{"NoteNumber":58,"Velocity":54,"Duration":135542,"SoundDuration":135542,"Delta":511903499},{"NoteNumber":61,"Velocity":54,"Duration":135542,"SoundDuration":135542,"Delta":511903499},{"NoteNumber":65,"Velocity":64,"Duration":135542,"SoundDuration":135542,"Delta":511903499},{"NoteNumber":53,"Velocity":54,"Duration":135542,"SoundDuration":135542,"Delta":511903499},{"NoteNumber":27,"Velocity":66,"Duration":361446,"SoundDuration":361446,"Delta":512084222},{"NoteNumber":30,"Velocity":66,"Duration":361446,"SoundDuration":361446,"Delta":512084222},{"NoteNumber":34,"Velocity":66,"Duration":361446,"SoundDuration":361446,"Delta":512084222},{"NoteNumber":39,"Velocity":78,"Duration":361446,"SoundDuration":361446,"Delta":512084222},{"NoteNumber":51,"Velocity":57,"Duration":135542,"SoundDuration":135542,"Delta":512264945},{"NoteNumber":54,"Velocity":57,"Duration":135542,"SoundDuration":135542,"Delta":512264945},{"NoteNumber":58,"Velocity":57,"Duration":135542,"SoundDuration":135542,"Delta":512264945},{"NoteNumber":63,"Velocity":68,"Duration":135542,"SoundDuration":135542,"Delta":512264945},{"NoteNumber":25,"Velocity":61,"Duration":379746,"SoundDuration":379746,"Delta":512445668},{"NoteNumber":30,"Velocity":61,"Duration":379746,"SoundDuration":379746,"Delta":512445668},{"NoteNumber":34,"Velocity":61,"Duration":379746,"SoundDuration":379746,"Delta":512445668},{"NoteNumber":37,"Velocity":61,"Duration":379746,"SoundDuration":379746,"Delta":512445668},{"NoteNumber":54,"Velocity":54,"Duration":142405,"SoundDuration":142405,"Delta":512635541},{"NoteNumber":58,"Velocity":54,"Duration":142405,"SoundDuration":142405,"Delta":512635541},{"NoteNumber":61,"Velocity":64,"Duration":142405,"SoundDuration":142405,"Delta":512635541},{"NoteNumber":49,"Velocity":54,"Duration":142405,"SoundDuration":142405,"Delta":512635541},{"NoteNumber":30,"Velocity":66,"Duration":361446,"SoundDuration":361446,"Delta":512825415},{"NoteNumber":34,"Velocity":66,"Duration":361446,"SoundDuration":361446,"Delta":512825415},{"NoteNumber":37,"Velocity":66,"Duration":361446,"SoundDuration":361446,"Delta":512825415},{"NoteNumber":42,"Velocity":78,"Duration":361446,"SoundDuration":361446,"Delta":512825415},{"NoteNumber":54,"Velocity":54,"Duration":121988,"SoundDuration":121988,"Delta":513006138},{"NoteNumber":58,"Velocity":54,"Duration":121988,"SoundDuration":121988,"Delta":513006138},{"NoteNumber":61,"Velocity":54,"Duration":121988,"SoundDuration":121988,"Delta":513006138},{"NoteNumber":66,"Velocity":64,"Duration":121988,"SoundDuration":121988,"Delta":513006138},{"NoteNumber":32,"Velocity":66,"Duration":377357,"SoundDuration":377357,"Delta":513186861},{"NoteNumber":37,"Velocity":66,"Duration":377357,"SoundDuration":377357,"Delta":513186861},{"NoteNumber":44,"Velocity":78,"Duration":377357,"SoundDuration":377357,"Delta":513186861},{"NoteNumber":56,"Velocity":58,"Duration":141509,"SoundDuration":141509,"Delta":513375540},{"NoteNumber":61,"Velocity":58,"Duration":141509,"SoundDuration":141509,"Delta":513375540},{"NoteNumber":68,"Velocity":69,"Duration":141509,"SoundDuration":141509,"Delta":513375540},{"NoteNumber":34,"Velocity":68,"Duration":365854,"SoundDuration":365854,"Delta":513564219},{"NoteNumber":37,"Velocity":68,"Duration":365854,"SoundDuration":365854,"Delta":513564219},{"NoteNumber":42,"Velocity":68,"Duration":365854,"SoundDuration":365854,"Delta":513564219},{"NoteNumber":46,"Velocity":81,"Duration":365854,"SoundDuration":365854,"Delta":513564219},{"NoteNumber":58,"Velocity":60,"Duration":137195,"SoundDuration":137195,"Delta":513747146},{"NoteNumber":61,"Velocity":60,"Duration":137195,"SoundDuration":137195,"Delta":513747146},{"NoteNumber":66,"Velocity":60,"Duration":137195,"SoundDuration":137195,"Delta":513747146},{"NoteNumber":70,"Velocity":72,"Duration":137195,"SoundDuration":137195,"Delta":513747146},{"NoteNumber":61,"Velocity":77,"Duration":560243,"SoundDuration":560243,"Delta":514307431},{"NoteNumber":66,"Velocity":77,"Duration":560243,"SoundDuration":560243,"Delta":514307431},{"NoteNumber":70,"Velocity":77,"Duration":560243,"SoundDuration":560243,"Delta":514307431},{"NoteNumber":73,"Velocity":91,"Duration":560243,"SoundDuration":560243,"Delta":514307431},{"NoteNumber":42,"Velocity":62,"Duration":560243,"SoundDuration":560243,"Delta":514307431},{"NoteNumber":46,"Velocity":62,"Duration":560243,"SoundDuration":560243,"Delta":514307431},{"NoteNumber":49,"Velocity":62,"Duration":560243,"SoundDuration":560243,"Delta":514307431},{"NoteNumber":54,"Velocity":73,"Duration":560243,"SoundDuration":560243,"Delta":514307431},{"NoteNumber":61,"Velocity":72,"Duration":189873,"SoundDuration":189873,"Delta":514867674},{"NoteNumber":66,"Velocity":72,"Duration":189873,"SoundDuration":189873,"Delta":514867674},{"NoteNumber":70,"Velocity":72,"Duration":189873,"SoundDuration":189873,"Delta":514867674},{"NoteNumber":73,"Velocity":85,"Duration":189873,"SoundDuration":189873,"Delta":514867674},{"NoteNumber":42,"Velocity":57,"Duration":189873,"SoundDuration":189873,"Delta":514867674},{"NoteNumber":46,"Velocity":57,"Duration":189873,"SoundDuration":189873,"Delta":514867674},{"NoteNumber":49,"Velocity":57,"Duration":189873,"SoundDuration":189873,"Delta":514867674},{"NoteNumber":54,"Velocity":68,"Duration":189873,"SoundDuration":189873,"Delta":514867674},{"NoteNumber":63,"Velocity":78,"Duration":375000,"SoundDuration":375000,"Delta":515057548},{"NoteNumber":66,"Velocity":78,"Duration":375000,"SoundDuration":375000,"Delta":515057548},{"NoteNumber":71,"Velocity":78,"Duration":375000,"SoundDuration":375000,"Delta":515057548},{"NoteNumber":75,"Velocity":92,"Duration":375000,"SoundDuration":375000,"Delta":515057548},{"NoteNumber":47,"Velocity":62,"Duration":375000,"SoundDuration":375000,"Delta":515057548},{"NoteNumber":51,"Velocity":62,"Duration":375000,"SoundDuration":375000,"Delta":515057548},{"NoteNumber":54,"Velocity":62,"Duration":375000,"SoundDuration":375000,"Delta":515057548},{"NoteNumber":59,"Velocity":73,"Duration":375000,"SoundDuration":375000,"Delta":515057548},{"NoteNumber":61,"Velocity":73,"Duration":382165,"SoundDuration":382165,"Delta":515432548},{"NoteNumber":66,"Velocity":73,"Duration":382165,"SoundDuration":382165,"Delta":515432548},{"NoteNumber":70,"Velocity":73,"Duration":382165,"SoundDuration":382165,"Delta":515432548},{"NoteNumber":73,"Velocity":86,"Duration":382165,"SoundDuration":382165,"Delta":515432548},{"NoteNumber":42,"Velocity":59,"Duration":382165,"SoundDuration":382165,"Delta":515432548},{"NoteNumber":46,"Velocity":59,"Duration":382165,"SoundDuration":382165,"Delta":515432548},{"NoteNumber":49,"Velocity":59,"Duration":382165,"SoundDuration":382165,"Delta":515432548},{"NoteNumber":54,"Velocity":70,"Duration":382165,"SoundDuration":382165,"Delta":515432548},{"NoteNumber":58,"Velocity":79,"Duration":552146,"SoundDuration":552146,"Delta":515814714},{"NoteNumber":70,"Velocity":93,"Duration":552146,"SoundDuration":552146,"Delta":515814714},{"NoteNumber":34,"Velocity":62,"Duration":552146,"SoundDuration":552146,"Delta":515814714},{"NoteNumber":46,"Velocity":74,"Duration":552146,"SoundDuration":552146,"Delta":515814714},{"NoteNumber":58,"Velocity":73,"Duration":184048,"SoundDuration":184048,"Delta":516366861},{"NoteNumber":68,"Velocity":87,"Duration":184048,"SoundDuration":184048,"Delta":516366861},{"NoteNumber":38,"Velocity":56,"Duration":184048,"SoundDuration":184048,"Delta":516366861},{"NoteNumber":46,"Velocity":67,"Duration":184048,"SoundDuration":184048,"Delta":516366861},{"NoteNumber":58,"Velocity":77,"Duration":88235,"SoundDuration":88235,"Delta":516550910},{"NoteNumber":66,"Velocity":91,"Duration":88235,"SoundDuration":88235,"Delta":516550910},{"NoteNumber":39,"Velocity":61,"Duration":88235,"SoundDuration":88235,"Delta":516550910},{"NoteNumber":46,"Velocity":72,"Duration":88235,"SoundDuration":88235,"Delta":516550910},{"NoteNumber":58,"Velocity":72,"Duration":88235,"SoundDuration":88235,"Delta":516727380},{"NoteNumber":65,"Velocity":85,"Duration":88235,"SoundDuration":88235,"Delta":516727380},{"NoteNumber":41,"Velocity":58,"Duration":88235,"SoundDuration":88235,"Delta":516727380},{"NoteNumber":46,"Velocity":69,"Duration":88235,"SoundDuration":88235,"Delta":516727380},{"NoteNumber":58,"Velocity":71,"Duration":186342,"SoundDuration":186342,"Delta":516903851},{"NoteNumber":63,"Velocity":84,"Duration":186342,"SoundDuration":186342,"Delta":516903851},{"NoteNumber":42,"Velocity":58,"Duration":186342,"SoundDuration":186342,"Delta":516903851},{"NoteNumber":46,"Velocity":69,"Duration":186342,"SoundDuration":186342,"Delta":516903851},{"NoteNumber":66,"Velocity":66,"Duration":352940,"SoundDuration":352940,"Delta":517275378},{"NoteNumber":70,"Velocity":78,"Duration":70588,"SoundDuration":70588,"Delta":517275378},{"NoteNumber":54,"Velocity":66,"Duration":352940,"SoundDuration":352940,"Delta":517275378},{"NoteNumber":58,"Velocity":78,"Duration":352940,"SoundDuration":352940,"Delta":517275378},{"NoteNumber":71,"Velocity":73,"Duration":70588,"SoundDuration":70588,"Delta":517345966},{"NoteNumber":70,"Velocity":73,"Duration":70588,"SoundDuration":70588,"Delta":517416555},{"NoteNumber":69,"Velocity":73,"Duration":70588,"SoundDuration":70588,"Delta":517487143},{"NoteNumber":70,"Velocity":73,"Duration":70588,"SoundDuration":70588,"Delta":517557731},{"NoteNumber":68,"Velocity":62,"Duration":92024,"SoundDuration":92024,"Delta":517628319},{"NoteNumber":71,"Velocity":73,"Duration":92024,"SoundDuration":92024,"Delta":517628319},{"NoteNumber":56,"Velocity":58,"Duration":92024,"SoundDuration":92024,"Delta":517628319},{"NoteNumber":59,"Velocity":69,"Duration":92024,"SoundDuration":92024,"Delta":517628319},{"NoteNumber":66,"Velocity":59,"Duration":100671,"SoundDuration":100671,"Delta":517812368},{"NoteNumber":70,"Velocity":70,"Duration":100671,"SoundDuration":100671,"Delta":517812368},{"NoteNumber":54,"Velocity":58,"Duration":100671,"SoundDuration":100671,"Delta":517812368},{"NoteNumber":58,"Velocity":69,"Duration":100671,"SoundDuration":100671,"Delta":517812368},{"NoteNumber":65,"Velocity":68,"Duration":93167,"SoundDuration":93167,"Delta":518013711},{"NoteNumber":68,"Velocity":80,"Duration":93167,"SoundDuration":93167,"Delta":518013711},{"NoteNumber":53,"Velocity":62,"Duration":93167,"SoundDuration":93167,"Delta":518013711},{"NoteNumber":56,"Velocity":74,"Duration":93167,"SoundDuration":93167,"Delta":518013711},{"NoteNumber":63,"Velocity":62,"Duration":93167,"SoundDuration":93167,"Delta":518200046},{"NoteNumber":66,"Velocity":73,"Duration":93167,"SoundDuration":93167,"Delta":518200046},{"NoteNumber":51,"Velocity":58,"Duration":93167,"SoundDuration":93167,"Delta":518200046},{"NoteNumber":54,"Velocity":69,"Duration":93167,"SoundDuration":93167,"Delta":518200046},{"NoteNumber":58,"Velocity":62,"Duration":194804,"SoundDuration":194804,"Delta":518386382},{"NoteNumber":65,"Velocity":73,"Duration":194804,"SoundDuration":194804,"Delta":518386382},{"NoteNumber":46,"Velocity":58,"Duration":194804,"SoundDuration":194804,"Delta":518386382},{"NoteNumber":53,"Velocity":69,"Duration":194804,"SoundDuration":194804,"Delta":518386382},{"NoteNumber":54,"Velocity":75,"Duration":187500,"SoundDuration":187500,"Delta":518775992},{"NoteNumber":58,"Velocity":75,"Duration":187500,"SoundDuration":187500,"Delta":518775992},{"NoteNumber":63,"Velocity":89,"Duration":187500,"SoundDuration":187500,"Delta":518775992},{"NoteNumber":39,"Velocity":64,"Duration":187500,"SoundDuration":187500,"Delta":518775992},{"NoteNumber":46,"Velocity":64,"Duration":187500,"SoundDuration":187500,"Delta":518775992},{"NoteNumber":51,"Velocity":76,"Duration":187500,"SoundDuration":187500,"Delta":518775992},{"NoteNumber":73,"Velocity":77,"Duration":547016,"SoundDuration":547016,"Delta":519525992},{"NoteNumber":78,"Velocity":77,"Duration":547016,"SoundDuration":547016,"Delta":519525992},{"NoteNumber":82,"Velocity":77,"Duration":547016,"SoundDuration":547016,"Delta":519525992},{"NoteNumber":85,"Velocity":91,"Duration":547016,"SoundDuration":547016,"Delta":519525992},{"NoteNumber":42,"Velocity":62,"Duration":547016,"SoundDuration":547016,"Delta":519525992},{"NoteNumber":46,"Velocity":62,"Duration":547016,"SoundDuration":547016,"Delta":519525992},{"NoteNumber":49,"Velocity":62,"Duration":547016,"SoundDuration":547016,"Delta":519525992},{"NoteNumber":54,"Velocity":73,"Duration":547016,"SoundDuration":547016,"Delta":519525992},{"NoteNumber":73,"Velocity":72,"Duration":189873,"SoundDuration":189873,"Delta":520073008},{"NoteNumber":78,"Velocity":72,"Duration":189873,"SoundDuration":189873,"Delta":520073008},{"NoteNumber":82,"Velocity":72,"Duration":189873,"SoundDuration":189873,"Delta":520073008},{"NoteNumber":85,"Velocity":85,"Duration":189873,"SoundDuration":189873,"Delta":520073008},{"NoteNumber":42,"Velocity":57,"Duration":189873,"SoundDuration":189873,"Delta":520073008},{"NoteNumber":46,"Velocity":57,"Duration":189873,"SoundDuration":189873,"Delta":520073008},{"NoteNumber":49,"Velocity":57,"Duration":189873,"SoundDuration":189873,"Delta":520073008},{"NoteNumber":54,"Velocity":68,"Duration":189873,"SoundDuration":189873,"Delta":520073008},{"NoteNumber":75,"Velocity":78,"Duration":359281,"SoundDuration":359281,"Delta":520262882},{"NoteNumber":78,"Velocity":78,"Duration":359281,"SoundDuration":359281,"Delta":520262882},{"NoteNumber":83,"Velocity":78,"Duration":359281,"SoundDuration":359281,"Delta":520262882},{"NoteNumber":87,"Velocity":92,"Duration":359281,"SoundDuration":359281,"Delta":520262882},{"NoteNumber":47,"Velocity":62,"Duration":359281,"SoundDuration":359281,"Delta":520262882},{"NoteNumber":51,"Velocity":62,"Duration":359281,"SoundDuration":359281,"Delta":520262882},{"NoteNumber":54,"Velocity":62,"Duration":359281,"SoundDuration":359281,"Delta":520262882},{"NoteNumber":59,"Velocity":73,"Duration":359281,"SoundDuration":359281,"Delta":520262882},{"NoteNumber":73,"Velocity":73,"Duration":375000,"SoundDuration":375000,"Delta":520622163},{"NoteNumber":78,"Velocity":73,"Duration":375000,"SoundDuration":375000,"Delta":520622163},{"NoteNumber":82,"Velocity":73,"Duration":375000,"SoundDuration":375000,"Delta":520622163},{"NoteNumber":85,"Velocity":86,"Duration":375000,"SoundDuration":375000,"Delta":520622163},{"NoteNumber":42,"Velocity":59,"Duration":375000,"SoundDuration":375000,"Delta":520622163},{"NoteNumber":46,"Velocity":59,"Duration":375000,"SoundDuration":375000,"Delta":520622163},{"NoteNumber":49,"Velocity":59,"Duration":375000,"SoundDuration":375000,"Delta":520622163},{"NoteNumber":54,"Velocity":70,"Duration":375000,"SoundDuration":375000,"Delta":520622163},{"NoteNumber":70,"Velocity":79,"Duration":552311,"SoundDuration":552311,"Delta":520997163},{"NoteNumber":82,"Velocity":93,"Duration":552311,"SoundDuration":552311,"Delta":520997163},{"NoteNumber":34,"Velocity":62,"Duration":552311,"SoundDuration":552311,"Delta":520997163},{"NoteNumber":46,"Velocity":74,"Duration":552311,"SoundDuration":552311,"Delta":520997163},{"NoteNumber":68,"Velocity":73,"Duration":179640,"SoundDuration":179640,"Delta":521549474},{"NoteNumber":80,"Velocity":87,"Duration":179640,"SoundDuration":179640,"Delta":521549474},{"NoteNumber":46,"Velocity":56,"Duration":179640,"SoundDuration":179640,"Delta":521549474},{"NoteNumber":38,"Velocity":56,"Duration":179640,"SoundDuration":179640,"Delta":521549474},{"NoteNumber":50,"Velocity":67,"Duration":179640,"SoundDuration":179640,"Delta":521549474},{"NoteNumber":66,"Velocity":77,"Duration":87209,"SoundDuration":87209,"Delta":521729115},{"NoteNumber":78,"Velocity":91,"Duration":87209,"SoundDuration":87209,"Delta":521729115},{"NoteNumber":46,"Velocity":61,"Duration":87209,"SoundDuration":87209,"Delta":521729115},{"NoteNumber":39,"Velocity":61,"Duration":87209,"SoundDuration":87209,"Delta":521729115},{"NoteNumber":51,"Velocity":72,"Duration":87209,"SoundDuration":87209,"Delta":521729115},{"NoteNumber":65,"Velocity":72,"Duration":87209,"SoundDuration":87209,"Delta":521903533},{"NoteNumber":77,"Velocity":85,"Duration":87209,"SoundDuration":87209,"Delta":521903533},{"NoteNumber":46,"Velocity":58,"Duration":87209,"SoundDuration":87209,"Delta":521903533},{"NoteNumber":41,"Velocity":58,"Duration":87209,"SoundDuration":87209,"Delta":521903533},{"NoteNumber":53,"Velocity":69,"Duration":87209,"SoundDuration":87209,"Delta":521903533},{"NoteNumber":63,"Velocity":71,"Duration":184048,"SoundDuration":184048,"Delta":522077952},{"NoteNumber":75,"Velocity":84,"Duration":184048,"SoundDuration":184048,"Delta":522077952},{"NoteNumber":46,"Velocity":58,"Duration":184048,"SoundDuration":184048,"Delta":522077952},{"NoteNumber":42,"Velocity":58,"Duration":184048,"SoundDuration":184048,"Delta":522077952},{"NoteNumber":54,"Velocity":69,"Duration":184048,"SoundDuration":184048,"Delta":522077952},{"NoteNumber":78,"Velocity":66,"Duration":368097,"SoundDuration":368097,"Delta":522446050},{"NoteNumber":82,"Velocity":78,"Duration":73619,"SoundDuration":73619,"Delta":522446050},{"NoteNumber":58,"Velocity":66,"Duration":368097,"SoundDuration":368097,"Delta":522446050},{"NoteNumber":54,"Velocity":66,"Duration":368097,"SoundDuration":368097,"Delta":522446050},{"NoteNumber":66,"Velocity":78,"Duration":368097,"SoundDuration":368097,"Delta":522446050},{"NoteNumber":83,"Velocity":73,"Duration":73619,"SoundDuration":73619,"Delta":522519669},{"NoteNumber":82,"Velocity":73,"Duration":73619,"SoundDuration":73619,"Delta":522593289},{"NoteNumber":81,"Velocity":73,"Duration":73619,"SoundDuration":73619,"Delta":522666908},{"NoteNumber":82,"Velocity":73,"Duration":73619,"SoundDuration":73619,"Delta":522740528},{"NoteNumber":71,"Velocity":62,"Duration":92024,"SoundDuration":92024,"Delta":522814148},{"NoteNumber":83,"Velocity":73,"Duration":92024,"SoundDuration":92024,"Delta":522814148},{"NoteNumber":56,"Velocity":58,"Duration":92024,"SoundDuration":92024,"Delta":522814148},{"NoteNumber":68,"Velocity":69,"Duration":92024,"SoundDuration":92024,"Delta":522814148},{"NoteNumber":70,"Velocity":59,"Duration":100671,"SoundDuration":100671,"Delta":522998197},{"NoteNumber":82,"Velocity":70,"Duration":100671,"SoundDuration":100671,"Delta":522998197},{"NoteNumber":54,"Velocity":58,"Duration":100671,"SoundDuration":100671,"Delta":522998197},{"NoteNumber":66,"Velocity":69,"Duration":100671,"SoundDuration":100671,"Delta":522998197},{"NoteNumber":68,"Velocity":68,"Duration":89285,"SoundDuration":89285,"Delta":523199539},{"NoteNumber":80,"Velocity":80,"Duration":89285,"SoundDuration":89285,"Delta":523199539},{"NoteNumber":53,"Velocity":62,"Duration":89285,"SoundDuration":89285,"Delta":523199539},{"NoteNumber":65,"Velocity":74,"Duration":89285,"SoundDuration":89285,"Delta":523199539},{"NoteNumber":66,"Velocity":62,"Duration":89285,"SoundDuration":89285,"Delta":523378111},{"NoteNumber":78,"Velocity":73,"Duration":89285,"SoundDuration":89285,"Delta":523378111},{"NoteNumber":51,"Velocity":58,"Duration":89285,"SoundDuration":89285,"Delta":523378111},{"NoteNumber":63,"Velocity":69,"Duration":89285,"SoundDuration":89285,"Delta":523378111},{"NoteNumber":65,"Velocity":62,"Duration":189262,"SoundDuration":189262,"Delta":523556682},{"NoteNumber":77,"Velocity":73,"Duration":189262,"SoundDuration":189262,"Delta":523556682},{"NoteNumber":46,"Velocity":58,"Duration":189262,"SoundDuration":189262,"Delta":523556682},{"NoteNumber":58,"Velocity":69,"Duration":189262,"SoundDuration":189262,"Delta":523556682},{"NoteNumber":66,"Velocity":66,"Duration":362516,"SoundDuration":362516,"Delta":523935207},{"NoteNumber":70,"Velocity":78,"Duration":72503,"SoundDuration":72503,"Delta":523935207},{"NoteNumber":54,"Velocity":66,"Duration":362516,"SoundDuration":362516,"Delta":523935207},{"NoteNumber":58,"Velocity":78,"Duration":362516,"SoundDuration":362516,"Delta":523935207},{"NoteNumber":71,"Velocity":73,"Duration":72503,"SoundDuration":72503,"Delta":524007710},{"NoteNumber":70,"Velocity":73,"Duration":72503,"SoundDuration":72503,"Delta":524080214},{"NoteNumber":69,"Velocity":73,"Duration":72503,"SoundDuration":72503,"Delta":524152717},{"NoteNumber":70,"Velocity":73,"Duration":72503,"SoundDuration":72503,"Delta":524225220},{"NoteNumber":68,"Velocity":62,"Duration":94037,"SoundDuration":94037,"Delta":524297723},{"NoteNumber":71,"Velocity":73,"Duration":94037,"SoundDuration":94037,"Delta":524297723},{"NoteNumber":56,"Velocity":58,"Duration":94037,"SoundDuration":94037,"Delta":524297723},{"NoteNumber":59,"Velocity":69,"Duration":94037,"SoundDuration":94037,"Delta":524297723},{"NoteNumber":66,"Velocity":59,"Duration":100671,"SoundDuration":100671,"Delta":524485799},{"NoteNumber":70,"Velocity":70,"Duration":100671,"SoundDuration":100671,"Delta":524485799},{"NoteNumber":54,"Velocity":58,"Duration":100671,"SoundDuration":100671,"Delta":524485799},{"NoteNumber":58,"Velocity":69,"Duration":100671,"SoundDuration":100671,"Delta":524485799},{"NoteNumber":65,"Velocity":68,"Duration":100671,"SoundDuration":100671,"Delta":524687142},{"NoteNumber":68,"Velocity":80,"Duration":100671,"SoundDuration":100671,"Delta":524687142},{"NoteNumber":53,"Velocity":62,"Duration":100671,"SoundDuration":100671,"Delta":524687142},{"NoteNumber":56,"Velocity":74,"Duration":100671,"SoundDuration":100671,"Delta":524687142},{"NoteNumber":63,"Velocity":62,"Duration":100671,"SoundDuration":100671,"Delta":524888484},{"NoteNumber":66,"Velocity":73,"Duration":100671,"SoundDuration":100671,"Delta":524888484},{"NoteNumber":51,"Velocity":58,"Duration":100671,"SoundDuration":100671,"Delta":524888484},{"NoteNumber":54,"Velocity":69,"Duration":100671,"SoundDuration":100671,"Delta":524888484},{"NoteNumber":58,"Velocity":62,"Duration":217391,"SoundDuration":217391,"Delta":525089827},{"NoteNumber":65,"Velocity":73,"Duration":217391,"SoundDuration":217391,"Delta":525089827},{"NoteNumber":46,"Velocity":58,"Duration":217391,"SoundDuration":217391,"Delta":525089827},{"NoteNumber":53,"Velocity":69,"Duration":217391,"SoundDuration":217391,"Delta":525089827},{"NoteNumber":54,"Velocity":66,"Duration":437955,"SoundDuration":437955,"Delta":525524610},{"NoteNumber":58,"Velocity":78,"Duration":87591,"SoundDuration":87591,"Delta":525524610},{"NoteNumber":42,"Velocity":66,"Duration":437955,"SoundDuration":437955,"Delta":525524610},{"NoteNumber":46,"Velocity":78,"Duration":437955,"SoundDuration":437955,"Delta":525524610},{"NoteNumber":59,"Velocity":73,"Duration":87591,"SoundDuration":87591,"Delta":525612201},{"NoteNumber":58,"Velocity":73,"Duration":87591,"SoundDuration":87591,"Delta":525699792},{"NoteNumber":57,"Velocity":73,"Duration":87591,"SoundDuration":87591,"Delta":525787383},{"NoteNumber":58,"Velocity":73,"Duration":87591,"SoundDuration":87591,"Delta":525874974},{"NoteNumber":56,"Velocity":62,"Duration":110293,"SoundDuration":110293,"Delta":525962566},{"NoteNumber":59,"Velocity":73,"Duration":110293,"SoundDuration":110293,"Delta":525962566},{"NoteNumber":44,"Velocity":58,"Duration":110293,"SoundDuration":110293,"Delta":525962566},{"NoteNumber":47,"Velocity":69,"Duration":110293,"SoundDuration":110293,"Delta":525962566},{"NoteNumber":54,"Velocity":59,"Duration":117187,"SoundDuration":117187,"Delta":526183154},{"NoteNumber":58,"Velocity":70,"Duration":117187,"SoundDuration":117187,"Delta":526183154},{"NoteNumber":42,"Velocity":58,"Duration":117187,"SoundDuration":117187,"Delta":526183154},{"NoteNumber":46,"Velocity":69,"Duration":117187,"SoundDuration":117187,"Delta":526183154},{"NoteNumber":53,"Velocity":68,"Duration":120967,"SoundDuration":120967,"Delta":526417529},{"NoteNumber":56,"Velocity":80,"Duration":120967,"SoundDuration":120967,"Delta":526417529},{"NoteNumber":41,"Velocity":62,"Duration":120967,"SoundDuration":120967,"Delta":526417529},{"NoteNumber":44,"Velocity":74,"Duration":120967,"SoundDuration":120967,"Delta":526417529},{"NoteNumber":51,"Velocity":62,"Duration":133928,"SoundDuration":133928,"Delta":526659464},{"NoteNumber":54,"Velocity":73,"Duration":133928,"SoundDuration":133928,"Delta":526659464},{"NoteNumber":39,"Velocity":58,"Duration":133928,"SoundDuration":133928,"Delta":526659464},{"NoteNumber":42,"Velocity":69,"Duration":133928,"SoundDuration":133928,"Delta":526659464},{"NoteNumber":46,"Velocity":62,"Duration":283018,"SoundDuration":283018,"Delta":526927321},{"NoteNumber":53,"Velocity":73,"Duration":283018,"SoundDuration":283018,"Delta":526927321},{"NoteNumber":34,"Velocity":58,"Duration":283018,"SoundDuration":283018,"Delta":526927321},{"NoteNumber":41,"Velocity":69,"Duration":283018,"SoundDuration":283018,"Delta":526927321},{"NoteNumber":27,"Velocity":58,"Duration":324992,"SoundDuration":324992,"Delta":527422604},{"NoteNumber":31,"Velocity":58,"Duration":301407,"SoundDuration":301407,"Delta":527446189},{"NoteNumber":34,"Velocity":58,"Duration":277822,"SoundDuration":277822,"Delta":527469774},{"NoteNumber":51,"Velocity":86,"Duration":508474,"SoundDuration":508474,"Delta":527493359},{"NoteNumber":39,"Velocity":69,"Duration":254237,"SoundDuration":254237,"Delta":527493359},{"NoteNumber":39,"Velocity":58,"Duration":254237,"SoundDuration":254237,"Delta":527747597},{"NoteNumber":46,"Velocity":58,"Duration":254237,"SoundDuration":254237,"Delta":527747597},{"NoteNumber":51,"Velocity":69,"Duration":254237,"SoundDuration":254237,"Delta":527747597},{"NoteNumber":55,"Velocity":56,"Duration":254237,"SoundDuration":254237,"Delta":528001834},{"NoteNumber":58,"Velocity":56,"Duration":254237,"SoundDuration":254237,"Delta":528001834},{"NoteNumber":63,"Velocity":56,"Duration":254237,"SoundDuration":254237,"Delta":528001834},{"NoteNumber":67,"Velocity":66,"Duration":254237,"SoundDuration":254237,"Delta":528001834},{"NoteNumber":79,"Velocity":66,"Duration":254237,"SoundDuration":254237,"Delta":528256072},{"NoteNumber":75,"Velocity":56,"Duration":254237,"SoundDuration":254237,"Delta":528256072},{"NoteNumber":70,"Velocity":56,"Duration":254237,"SoundDuration":254237,"Delta":528256072},{"NoteNumber":67,"Velocity":56,"Duration":254237,"SoundDuration":254237,"Delta":528256072},{"NoteNumber":43,"Velocity":79,"Duration":127118,"SoundDuration":127118,"Delta":528383190},{"NoteNumber":55,"Velocity":79,"Duration":127118,"SoundDuration":127118,"Delta":528383190},{"NoteNumber":91,"Velocity":71,"Duration":263157,"SoundDuration":263157,"Delta":528510309},{"NoteNumber":87,"Velocity":71,"Duration":263157,"SoundDuration":263157,"Delta":528510309},{"NoteNumber":82,"Velocity":60,"Duration":263157,"SoundDuration":263157,"Delta":528510309},{"NoteNumber":79,"Velocity":60,"Duration":263157,"SoundDuration":263157,"Delta":528510309},{"NoteNumber":44,"Velocity":85,"Duration":526315,"SoundDuration":526315,"Delta":528510309},{"NoteNumber":56,"Velocity":85,"Duration":526315,"SoundDuration":526315,"Delta":528510309},{"NoteNumber":103,"Velocity":78,"Duration":263157,"SoundDuration":263157,"Delta":528773467},{"NoteNumber":99,"Velocity":78,"Duration":263157,"SoundDuration":263157,"Delta":528773467},{"NoteNumber":94,"Velocity":66,"Duration":263157,"SoundDuration":263157,"Delta":528773467},{"NoteNumber":91,"Velocity":66,"Duration":263157,"SoundDuration":263157,"Delta":528773467},{"NoteNumber":45,"Velocity":84,"Duration":460526,"SoundDuration":460526,"Delta":529036625},{"NoteNumber":57,"Velocity":84,"Duration":460526,"SoundDuration":460526,"Delta":529036625},{"NoteNumber":27,"Velocity":58,"Duration":320027,"SoundDuration":320027,"Delta":529497152},{"NoteNumber":31,"Velocity":58,"Duration":298097,"SoundDuration":298097,"Delta":529519081},{"NoteNumber":34,"Velocity":58,"Duration":276167,"SoundDuration":276167,"Delta":529541011},{"NoteNumber":46,"Velocity":82,"Duration":248940,"SoundDuration":248940,"Delta":529562941},{"NoteNumber":58,"Velocity":86,"Duration":508474,"SoundDuration":508474,"Delta":529562941},{"NoteNumber":39,"Velocity":69,"Duration":254237,"SoundDuration":254237,"Delta":529562941},{"NoteNumber":39,"Velocity":58,"Duration":254237,"SoundDuration":254237,"Delta":529817179},{"NoteNumber":46,"Velocity":58,"Duration":254237,"SoundDuration":254237,"Delta":529817179},{"NoteNumber":51,"Velocity":69,"Duration":254237,"SoundDuration":254237,"Delta":529817179},{"NoteNumber":55,"Velocity":56,"Duration":254237,"SoundDuration":254237,"Delta":530071416},{"NoteNumber":58,"Velocity":56,"Duration":254237,"SoundDuration":254237,"Delta":530071416},{"NoteNumber":63,"Velocity":56,"Duration":254237,"SoundDuration":254237,"Delta":530071416},{"NoteNumber":67,"Velocity":66,"Duration":254237,"SoundDuration":254237,"Delta":530071416},{"NoteNumber":79,"Velocity":66,"Duration":254237,"SoundDuration":254237,"Delta":530325654},{"NoteNumber":75,"Velocity":56,"Duration":254237,"SoundDuration":254237,"Delta":530325654},{"NoteNumber":70,"Velocity":56,"Duration":254237,"SoundDuration":254237,"Delta":530325654},{"NoteNumber":67,"Velocity":56,"Duration":254237,"SoundDuration":254237,"Delta":530325654},{"NoteNumber":91,"Velocity":72,"Duration":263157,"SoundDuration":263157,"Delta":530579891},{"NoteNumber":87,"Velocity":72,"Duration":263157,"SoundDuration":263157,"Delta":530579891},{"NoteNumber":82,"Velocity":61,"Duration":263157,"SoundDuration":263157,"Delta":530579891},{"NoteNumber":79,"Velocity":61,"Duration":263157,"SoundDuration":263157,"Delta":530579891},{"NoteNumber":51,"Velocity":68,"Duration":534626,"SoundDuration":534626,"Delta":530579891},{"NoteNumber":63,"Velocity":85,"Duration":534626,"SoundDuration":534626,"Delta":530579891},{"NoteNumber":103,"Velocity":77,"Duration":271468,"SoundDuration":271468,"Delta":530843049},{"NoteNumber":99,"Velocity":77,"Duration":271468,"SoundDuration":271468,"Delta":530843049},{"NoteNumber":94,"Velocity":65,"Duration":271468,"SoundDuration":271468,"Delta":530843049},{"NoteNumber":91,"Velocity":65,"Duration":271468,"SoundDuration":271468,"Delta":530843049},{"NoteNumber":43,"Velocity":79,"Duration":131567,"SoundDuration":131567,"Delta":531509220},{"NoteNumber":55,"Velocity":79,"Duration":131567,"SoundDuration":131567,"Delta":531509220},{"NoteNumber":27,"Velocity":58,"Duration":322194,"SoundDuration":322194,"Delta":531575004},{"NoteNumber":34,"Velocity":58,"Duration":289302,"SoundDuration":289302,"Delta":531607896},{"NoteNumber":44,"Velocity":75,"Duration":512821,"SoundDuration":512821,"Delta":531640788},{"NoteNumber":56,"Velocity":86,"Duration":512821,"SoundDuration":512821,"Delta":531640788},{"NoteNumber":38,"Velocity":69,"Duration":256410,"SoundDuration":256410,"Delta":531640788},{"NoteNumber":41,"Velocity":58,"Duration":256410,"SoundDuration":256410,"Delta":531897198},{"NoteNumber":46,"Velocity":58,"Duration":256410,"SoundDuration":256410,"Delta":531897198},{"NoteNumber":50,"Velocity":69,"Duration":256410,"SoundDuration":256410,"Delta":531897198},{"NoteNumber":53,"Velocity":56,"Duration":256410,"SoundDuration":256410,"Delta":532153609},{"NoteNumber":58,"Velocity":56,"Duration":256410,"SoundDuration":256410,"Delta":532153609},{"NoteNumber":62,"Velocity":56,"Duration":256410,"SoundDuration":256410,"Delta":532153609},{"NoteNumber":65,"Velocity":66,"Duration":256410,"SoundDuration":256410,"Delta":532153609},{"NoteNumber":44,"Velocity":72,"Duration":384615,"SoundDuration":384615,"Delta":532153609},{"NoteNumber":56,"Velocity":82,"Duration":384615,"SoundDuration":384615,"Delta":532153609},{"NoteNumber":77,"Velocity":66,"Duration":256410,"SoundDuration":256410,"Delta":532410019},{"NoteNumber":74,"Velocity":56,"Duration":256410,"SoundDuration":256410,"Delta":532410019},{"NoteNumber":70,"Velocity":56,"Duration":256410,"SoundDuration":256410,"Delta":532410019},{"NoteNumber":65,"Velocity":56,"Duration":256410,"SoundDuration":256410,"Delta":532410019},{"NoteNumber":43,"Velocity":79,"Duration":128205,"SoundDuration":128205,"Delta":532538224},{"NoteNumber":55,"Velocity":79,"Duration":128205,"SoundDuration":128205,"Delta":532538224},{"NoteNumber":89,"Velocity":72,"Duration":265486,"SoundDuration":265486,"Delta":532666430},{"NoteNumber":86,"Velocity":61,"Duration":265486,"SoundDuration":265486,"Delta":532666430},{"NoteNumber":82,"Velocity":61,"Duration":265486,"SoundDuration":265486,"Delta":532666430},{"NoteNumber":77,"Velocity":61,"Duration":265486,"SoundDuration":265486,"Delta":532666430},{"NoteNumber":44,"Velocity":85,"Duration":530973,"SoundDuration":530973,"Delta":532666430},{"NoteNumber":56,"Velocity":85,"Duration":530973,"SoundDuration":530973,"Delta":532666430},{"NoteNumber":101,"Velocity":81,"Duration":265486,"SoundDuration":265486,"Delta":532931916},{"NoteNumber":98,"Velocity":81,"Duration":265486,"SoundDuration":265486,"Delta":532931916},{"NoteNumber":94,"Velocity":68,"Duration":265486,"SoundDuration":265486,"Delta":532931916},{"NoteNumber":89,"Velocity":68,"Duration":265486,"SoundDuration":265486,"Delta":532931916},{"NoteNumber":45,"Velocity":84,"Duration":464601,"SoundDuration":464601,"Delta":533197403},{"NoteNumber":57,"Velocity":84,"Duration":464601,"SoundDuration":464601,"Delta":533197403},{"NoteNumber":27,"Velocity":58,"Duration":320609,"SoundDuration":320609,"Delta":533662004},{"NoteNumber":34,"Velocity":58,"Duration":287423,"SoundDuration":287423,"Delta":533695190},{"NoteNumber":46,"Velocity":86,"Duration":508474,"SoundDuration":508474,"Delta":533728376},{"NoteNumber":58,"Velocity":86,"Duration":508474,"SoundDuration":508474,"Delta":533728376},{"NoteNumber":39,"Velocity":69,"Duration":254237,"SoundDuration":254237,"Delta":533728376},{"NoteNumber":39,"Velocity":58,"Duration":254237,"SoundDuration":254237,"Delta":533982613},{"NoteNumber":46,"Velocity":58,"Duration":254237,"SoundDuration":254237,"Delta":533982613},{"NoteNumber":51,"Velocity":69,"Duration":254237,"SoundDuration":254237,"Delta":533982613},{"NoteNumber":55,"Velocity":56,"Duration":254237,"SoundDuration":254237,"Delta":534236851},{"NoteNumber":58,"Velocity":56,"Duration":254237,"SoundDuration":254237,"Delta":534236851},{"NoteNumber":63,"Velocity":56,"Duration":254237,"SoundDuration":254237,"Delta":534236851},{"NoteNumber":67,"Velocity":66,"Duration":254237,"SoundDuration":254237,"Delta":534236851},{"NoteNumber":79,"Velocity":66,"Duration":254237,"SoundDuration":254237,"Delta":534491088},{"NoteNumber":75,"Velocity":56,"Duration":254237,"SoundDuration":254237,"Delta":534491088},{"NoteNumber":70,"Velocity":56,"Duration":254237,"SoundDuration":254237,"Delta":534491088},{"NoteNumber":67,"Velocity":56,"Duration":254237,"SoundDuration":254237,"Delta":534491088},{"NoteNumber":91,"Velocity":73,"Duration":263157,"SoundDuration":263157,"Delta":534745326},{"NoteNumber":87,"Velocity":73,"Duration":263157,"SoundDuration":263157,"Delta":534745326},{"NoteNumber":82,"Velocity":62,"Duration":263157,"SoundDuration":263157,"Delta":534745326},{"NoteNumber":79,"Velocity":62,"Duration":263157,"SoundDuration":263157,"Delta":534745326},{"NoteNumber":103,"Velocity":81,"Duration":272702,"SoundDuration":272702,"Delta":535008484},{"NoteNumber":99,"Velocity":81,"Duration":272702,"SoundDuration":272702,"Delta":535008484},{"NoteNumber":94,"Velocity":68,"Duration":272702,"SoundDuration":272702,"Delta":535008484},{"NoteNumber":91,"Velocity":68,"Duration":272702,"SoundDuration":272702,"Delta":535008484},{"NoteNumber":46,"Velocity":71,"Duration":87711,"SoundDuration":87711,"Delta":535544321},{"NoteNumber":34,"Velocity":62,"Duration":87711,"SoundDuration":87711,"Delta":535544321},{"NoteNumber":48,"Velocity":73,"Duration":87711,"SoundDuration":87711,"Delta":535632033},{"NoteNumber":36,"Velocity":65,"Duration":87711,"SoundDuration":87711,"Delta":535632033},{"NoteNumber":50,"Velocity":75,"Duration":52919,"SoundDuration":52919,"Delta":535719744},{"NoteNumber":38,"Velocity":68,"Duration":52919,"SoundDuration":52919,"Delta":535719744},{"NoteNumber":27,"Velocity":58,"Duration":285229,"SoundDuration":285229,"Delta":535772664},{"NoteNumber":31,"Velocity":58,"Duration":274898,"SoundDuration":274898,"Delta":535782995},{"NoteNumber":34,"Velocity":58,"Duration":264568,"SoundDuration":264568,"Delta":535793325},{"NoteNumber":51,"Velocity":86,"Duration":508474,"SoundDuration":508474,"Delta":535803656},{"NoteNumber":39,"Velocity":69,"Duration":254237,"SoundDuration":254237,"Delta":535803656},{"NoteNumber":39,"Velocity":58,"Duration":254237,"SoundDuration":254237,"Delta":536057893},{"NoteNumber":46,"Velocity":58,"Duration":254237,"SoundDuration":254237,"Delta":536057893},{"NoteNumber":51,"Velocity":69,"Duration":254237,"SoundDuration":254237,"Delta":536057893},{"NoteNumber":63,"Velocity":56,"Duration":245901,"SoundDuration":245901,"Delta":536312131},{"NoteNumber":58,"Velocity":56,"Duration":245901,"SoundDuration":245901,"Delta":536312131},{"NoteNumber":55,"Velocity":56,"Duration":245901,"SoundDuration":245901,"Delta":536312131},{"NoteNumber":67,"Velocity":66,"Duration":245901,"SoundDuration":245901,"Delta":536312131},{"NoteNumber":67,"Velocity":56,"Duration":245901,"SoundDuration":245901,"Delta":536558032},{"NoteNumber":70,"Velocity":56,"Duration":245901,"SoundDuration":245901,"Delta":536558032},{"NoteNumber":79,"Velocity":66,"Duration":245901,"SoundDuration":245901,"Delta":536558032},{"NoteNumber":75,"Velocity":56,"Duration":245901,"SoundDuration":245901,"Delta":536558032},{"NoteNumber":43,"Velocity":79,"Duration":122950,"SoundDuration":122950,"Delta":536680983},{"NoteNumber":55,"Velocity":79,"Duration":122950,"SoundDuration":122950,"Delta":536680983},{"NoteNumber":82,"Velocity":60,"Duration":263157,"SoundDuration":263157,"Delta":536803934},{"NoteNumber":79,"Velocity":60,"Duration":263157,"SoundDuration":263157,"Delta":536803934},{"NoteNumber":91,"Velocity":71,"Duration":263157,"SoundDuration":263157,"Delta":536803934},{"NoteNumber":87,"Velocity":71,"Duration":263157,"SoundDuration":263157,"Delta":536803934},{"NoteNumber":44,"Velocity":85,"Duration":526315,"SoundDuration":526315,"Delta":536803934},{"NoteNumber":56,"Velocity":85,"Duration":526315,"SoundDuration":526315,"Delta":536803934},{"NoteNumber":91,"Velocity":66,"Duration":263157,"SoundDuration":263157,"Delta":537067092},{"NoteNumber":99,"Velocity":78,"Duration":263157,"SoundDuration":263157,"Delta":537067092},{"NoteNumber":103,"Velocity":78,"Duration":263157,"SoundDuration":263157,"Delta":537067092},{"NoteNumber":94,"Velocity":66,"Duration":263157,"SoundDuration":263157,"Delta":537067092},{"NoteNumber":45,"Velocity":84,"Duration":460526,"SoundDuration":460526,"Delta":537330250},{"NoteNumber":57,"Velocity":84,"Duration":460526,"SoundDuration":460526,"Delta":537330250},{"NoteNumber":27,"Velocity":58,"Duration":320027,"SoundDuration":320027,"Delta":537790776},{"NoteNumber":31,"Velocity":58,"Duration":298097,"SoundDuration":298097,"Delta":537812706},{"NoteNumber":34,"Velocity":58,"Duration":276167,"SoundDuration":276167,"Delta":537834636},{"NoteNumber":58,"Velocity":86,"Duration":508474,"SoundDuration":508474,"Delta":537856566},{"NoteNumber":46,"Velocity":86,"Duration":248940,"SoundDuration":248940,"Delta":537856566},{"NoteNumber":39,"Velocity":69,"Duration":254237,"SoundDuration":254237,"Delta":537856566},{"NoteNumber":39,"Velocity":58,"Duration":254237,"SoundDuration":254237,"Delta":538110803},{"NoteNumber":46,"Velocity":58,"Duration":254237,"SoundDuration":254237,"Delta":538110803},{"NoteNumber":51,"Velocity":69,"Duration":254237,"SoundDuration":254237,"Delta":538110803},{"NoteNumber":67,"Velocity":66,"Duration":254237,"SoundDuration":254237,"Delta":538365041},{"NoteNumber":55,"Velocity":56,"Duration":254237,"SoundDuration":254237,"Delta":538365041},{"NoteNumber":58,"Velocity":56,"Duration":254237,"SoundDuration":254237,"Delta":538365041},{"NoteNumber":63,"Velocity":56,"Duration":254237,"SoundDuration":254237,"Delta":538365041},{"NoteNumber":67,"Velocity":56,"Duration":254237,"SoundDuration":254237,"Delta":538619278},{"NoteNumber":79,"Velocity":66,"Duration":254237,"SoundDuration":254237,"Delta":538619278},{"NoteNumber":75,"Velocity":56,"Duration":254237,"SoundDuration":254237,"Delta":538619278},{"NoteNumber":70,"Velocity":56,"Duration":254237,"SoundDuration":254237,"Delta":538619278},{"NoteNumber":91,"Velocity":72,"Duration":263157,"SoundDuration":263157,"Delta":538873516},{"NoteNumber":82,"Velocity":61,"Duration":263157,"SoundDuration":263157,"Delta":538873516},{"NoteNumber":87,"Velocity":72,"Duration":263157,"SoundDuration":263157,"Delta":538873516},{"NoteNumber":79,"Velocity":61,"Duration":263157,"SoundDuration":263157,"Delta":538873516},{"NoteNumber":51,"Velocity":71,"Duration":543505,"SoundDuration":543505,"Delta":538873516},{"NoteNumber":63,"Velocity":85,"Duration":543505,"SoundDuration":543505,"Delta":538873516},{"NoteNumber":103,"Velocity":77,"Duration":280347,"SoundDuration":280347,"Delta":539136674},{"NoteNumber":94,"Velocity":65,"Duration":280347,"SoundDuration":280347,"Delta":539136674},{"NoteNumber":99,"Velocity":77,"Duration":280347,"SoundDuration":280347,"Delta":539136674},{"NoteNumber":91,"Velocity":65,"Duration":280347,"SoundDuration":280347,"Delta":539136674},{"NoteNumber":55,"Velocity":79,"Duration":131567,"SoundDuration":131567,"Delta":539811724},{"NoteNumber":43,"Velocity":79,"Duration":131567,"SoundDuration":131567,"Delta":539811724},{"NoteNumber":27,"Velocity":58,"Duration":322194,"SoundDuration":322194,"Delta":539877508},{"NoteNumber":34,"Velocity":58,"Duration":289302,"SoundDuration":289302,"Delta":539910399},{"NoteNumber":44,"Velocity":75,"Duration":512821,"SoundDuration":512821,"Delta":539943291},{"NoteNumber":56,"Velocity":86,"Duration":512821,"SoundDuration":512821,"Delta":539943291},{"NoteNumber":38,"Velocity":69,"Duration":256410,"SoundDuration":256410,"Delta":539943291},{"NoteNumber":41,"Velocity":58,"Duration":256410,"SoundDuration":256410,"Delta":540199702},{"NoteNumber":46,"Velocity":58,"Duration":256410,"SoundDuration":256410,"Delta":540199702},{"NoteNumber":50,"Velocity":69,"Duration":256410,"SoundDuration":256410,"Delta":540199702},{"NoteNumber":53,"Velocity":56,"Duration":256410,"SoundDuration":256410,"Delta":540456112},{"NoteNumber":58,"Velocity":56,"Duration":256410,"SoundDuration":256410,"Delta":540456112},{"NoteNumber":62,"Velocity":56,"Duration":256410,"SoundDuration":256410,"Delta":540456112},{"NoteNumber":65,"Velocity":66,"Duration":256410,"SoundDuration":256410,"Delta":540456112},{"NoteNumber":44,"Velocity":72,"Duration":384615,"SoundDuration":384615,"Delta":540456112},{"NoteNumber":56,"Velocity":82,"Duration":384615,"SoundDuration":384615,"Delta":540456112},{"NoteNumber":77,"Velocity":66,"Duration":256410,"SoundDuration":256410,"Delta":540712523},{"NoteNumber":74,"Velocity":56,"Duration":256410,"SoundDuration":256410,"Delta":540712523},{"NoteNumber":70,"Velocity":56,"Duration":256410,"SoundDuration":256410,"Delta":540712523},{"NoteNumber":65,"Velocity":56,"Duration":256410,"SoundDuration":256410,"Delta":540712523},{"NoteNumber":43,"Velocity":79,"Duration":128205,"SoundDuration":128205,"Delta":540840728},{"NoteNumber":55,"Velocity":79,"Duration":128205,"SoundDuration":128205,"Delta":540840728},{"NoteNumber":89,"Velocity":72,"Duration":265486,"SoundDuration":265486,"Delta":540968933},{"NoteNumber":86,"Velocity":61,"Duration":265486,"SoundDuration":265486,"Delta":540968933},{"NoteNumber":82,"Velocity":61,"Duration":265486,"SoundDuration":265486,"Delta":540968933},{"NoteNumber":77,"Velocity":61,"Duration":265486,"SoundDuration":265486,"Delta":540968933},{"NoteNumber":44,"Velocity":85,"Duration":530973,"SoundDuration":530973,"Delta":540968933},{"NoteNumber":56,"Velocity":85,"Duration":530973,"SoundDuration":530973,"Delta":540968933},{"NoteNumber":101,"Velocity":81,"Duration":265486,"SoundDuration":265486,"Delta":541234420},{"NoteNumber":98,"Velocity":81,"Duration":265486,"SoundDuration":265486,"Delta":541234420},{"NoteNumber":94,"Velocity":68,"Duration":265486,"SoundDuration":265486,"Delta":541234420},{"NoteNumber":89,"Velocity":68,"Duration":265486,"SoundDuration":265486,"Delta":541234420},{"NoteNumber":41,"Velocity":84,"Duration":464601,"SoundDuration":464601,"Delta":541499906},{"NoteNumber":53,"Velocity":84,"Duration":464601,"SoundDuration":464601,"Delta":541499906},{"NoteNumber":27,"Velocity":58,"Duration":320609,"SoundDuration":320609,"Delta":541964508},{"NoteNumber":31,"Velocity":58,"Duration":298485,"SoundDuration":298485,"Delta":541986632},{"NoteNumber":34,"Velocity":58,"Duration":276361,"SoundDuration":276361,"Delta":542008755},{"NoteNumber":51,"Velocity":86,"Duration":508474,"SoundDuration":508474,"Delta":542030879},{"NoteNumber":39,"Velocity":69,"Duration":254237,"SoundDuration":254237,"Delta":542030879},{"NoteNumber":39,"Velocity":58,"Duration":254237,"SoundDuration":254237,"Delta":542285117},{"NoteNumber":46,"Velocity":58,"Duration":254237,"SoundDuration":254237,"Delta":542285117},{"NoteNumber":51,"Velocity":69,"Duration":762712,"SoundDuration":762712,"Delta":542285117},{"NoteNumber":55,"Velocity":56,"Duration":254237,"SoundDuration":254237,"Delta":542539354},{"NoteNumber":58,"Velocity":56,"Duration":254237,"SoundDuration":254237,"Delta":542539354},{"NoteNumber":63,"Velocity":66,"Duration":254237,"SoundDuration":254237,"Delta":542539354},{"NoteNumber":75,"Velocity":66,"Duration":254237,"SoundDuration":254237,"Delta":542793592},{"NoteNumber":70,"Velocity":56,"Duration":254237,"SoundDuration":254237,"Delta":542793592},{"NoteNumber":67,"Velocity":56,"Duration":254237,"SoundDuration":254237,"Delta":542793592},{"NoteNumber":87,"Velocity":73,"Duration":263157,"SoundDuration":263157,"Delta":543047829},{"NoteNumber":82,"Velocity":73,"Duration":263157,"SoundDuration":263157,"Delta":543047829},{"NoteNumber":79,"Velocity":62,"Duration":263157,"SoundDuration":263157,"Delta":543047829},{"NoteNumber":99,"Velocity":81,"Duration":263157,"SoundDuration":263157,"Delta":543310987},{"NoteNumber":94,"Velocity":81,"Duration":263157,"SoundDuration":263157,"Delta":543310987},{"NoteNumber":91,"Velocity":68,"Duration":263157,"SoundDuration":263157,"Delta":543310987},{"NoteNumber":46,"Velocity":80,"Duration":394737,"SoundDuration":394737,"Delta":543574145},{"NoteNumber":58,"Velocity":80,"Duration":394737,"SoundDuration":394737,"Delta":543574145},{"NoteNumber":27,"Velocity":58,"Duration":324992,"SoundDuration":324992,"Delta":544034672},{"NoteNumber":31,"Velocity":58,"Duration":301407,"SoundDuration":301407,"Delta":544058257},{"NoteNumber":34,"Velocity":58,"Duration":277822,"SoundDuration":277822,"Delta":544081842},{"NoteNumber":63,"Velocity":82,"Duration":508474,"SoundDuration":508474,"Delta":544105427},{"NoteNumber":51,"Velocity":75,"Duration":248940,"SoundDuration":248940,"Delta":544105427},{"NoteNumber":39,"Velocity":69,"Duration":254237,"SoundDuration":254237,"Delta":544105427},{"NoteNumber":39,"Velocity":58,"Duration":254237,"SoundDuration":254237,"Delta":544359664},{"NoteNumber":46,"Velocity":58,"Duration":254237,"SoundDuration":254237,"Delta":544359664},{"NoteNumber":51,"Velocity":69,"Duration":254237,"SoundDuration":254237,"Delta":544359664},{"NoteNumber":55,"Velocity":62,"Duration":127118,"SoundDuration":127118,"Delta":544486783},{"NoteNumber":58,"Velocity":53,"Duration":123446,"SoundDuration":123446,"Delta":544613902},{"NoteNumber":63,"Velocity":53,"Duration":123446,"SoundDuration":123446,"Delta":544613902},{"NoteNumber":67,"Velocity":62,"Duration":123446,"SoundDuration":123446,"Delta":544613902},{"NoteNumber":67,"Velocity":57,"Duration":123446,"SoundDuration":123446,"Delta":544737348},{"NoteNumber":79,"Velocity":62,"Duration":123446,"SoundDuration":123446,"Delta":544860795},{"NoteNumber":75,"Velocity":53,"Duration":123446,"SoundDuration":123446,"Delta":544860795},{"NoteNumber":70,"Velocity":53,"Duration":123446,"SoundDuration":123446,"Delta":544860795},{"NoteNumber":79,"Velocity":56,"Duration":123446,"SoundDuration":123446,"Delta":544984242},{"NoteNumber":55,"Velocity":76,"Duration":123446,"SoundDuration":123446,"Delta":544984242},{"NoteNumber":67,"Velocity":76,"Duration":123446,"SoundDuration":123446,"Delta":544984242},{"NoteNumber":91,"Velocity":67,"Duration":131578,"SoundDuration":131578,"Delta":545107689},{"NoteNumber":87,"Velocity":67,"Duration":131578,"SoundDuration":131578,"Delta":545107689},{"NoteNumber":82,"Velocity":57,"Duration":131578,"SoundDuration":131578,"Delta":545107689},{"NoteNumber":56,"Velocity":81,"Duration":526315,"SoundDuration":526315,"Delta":545107689},{"NoteNumber":68,"Velocity":81,"Duration":526315,"SoundDuration":526315,"Delta":545107689},{"NoteNumber":79,"Velocity":60,"Duration":131578,"SoundDuration":131578,"Delta":545239268},{"NoteNumber":91,"Velocity":70,"Duration":131578,"SoundDuration":131578,"Delta":545370847},{"NoteNumber":87,"Velocity":58,"Duration":131578,"SoundDuration":131578,"Delta":545370847},{"NoteNumber":82,"Velocity":58,"Duration":131578,"SoundDuration":131578,"Delta":545370847},{"NoteNumber":91,"Velocity":62,"Duration":131578,"SoundDuration":131578,"Delta":545502426},{"NoteNumber":103,"Velocity":81,"Duration":263158,"SoundDuration":263158,"Delta":545634005},{"NoteNumber":99,"Velocity":78,"Duration":263158,"SoundDuration":263158,"Delta":545634005},{"NoteNumber":94,"Velocity":62,"Duration":263158,"SoundDuration":263158,"Delta":545634005},{"NoteNumber":57,"Velocity":80,"Duration":460526,"SoundDuration":460526,"Delta":545634005},{"NoteNumber":69,"Velocity":80,"Duration":460526,"SoundDuration":460526,"Delta":545634005},{"NoteNumber":27,"Velocity":58,"Duration":324992,"SoundDuration":324992,"Delta":546094531},{"NoteNumber":31,"Velocity":58,"Duration":301407,"SoundDuration":301407,"Delta":546118116},{"NoteNumber":34,"Velocity":58,"Duration":277822,"SoundDuration":277822,"Delta":546141701},{"NoteNumber":70,"Velocity":82,"Duration":754322,"SoundDuration":754322,"Delta":546165286},{"NoteNumber":58,"Velocity":73,"Duration":632431,"SoundDuration":632431,"Delta":546165286},{"NoteNumber":39,"Velocity":69,"Duration":254237,"SoundDuration":254237,"Delta":546165286},{"NoteNumber":39,"Velocity":58,"Duration":254237,"SoundDuration":254237,"Delta":546419523},{"NoteNumber":46,"Velocity":58,"Duration":254237,"SoundDuration":254237,"Delta":546419523},{"NoteNumber":51,"Velocity":69,"Duration":254237,"SoundDuration":254237,"Delta":546419523},{"NoteNumber":55,"Velocity":62,"Duration":127118,"SoundDuration":127118,"Delta":546546642},{"NoteNumber":58,"Velocity":53,"Duration":245847,"SoundDuration":245847,"Delta":546673761},{"NoteNumber":63,"Velocity":53,"Duration":123956,"SoundDuration":123956,"Delta":546673761},{"NoteNumber":67,"Velocity":62,"Duration":123956,"SoundDuration":123956,"Delta":546673761},{"NoteNumber":67,"Velocity":57,"Duration":123956,"SoundDuration":123956,"Delta":546797718},{"NoteNumber":79,"Velocity":62,"Duration":123956,"SoundDuration":123956,"Delta":546921674},{"NoteNumber":75,"Velocity":53,"Duration":123956,"SoundDuration":123956,"Delta":546921674},{"NoteNumber":70,"Velocity":53,"Duration":123956,"SoundDuration":123956,"Delta":546921674},{"NoteNumber":79,"Velocity":56,"Duration":123956,"SoundDuration":123956,"Delta":547045631},{"NoteNumber":91,"Velocity":67,"Duration":131578,"SoundDuration":131578,"Delta":547169588},{"NoteNumber":87,"Velocity":67,"Duration":131578,"SoundDuration":131578,"Delta":547169588},{"NoteNumber":82,"Velocity":57,"Duration":131578,"SoundDuration":131578,"Delta":547169588},{"NoteNumber":63,"Velocity":81,"Duration":526315,"SoundDuration":526315,"Delta":547169588},{"NoteNumber":75,"Velocity":84,"Duration":526315,"SoundDuration":526315,"Delta":547169588},{"NoteNumber":79,"Velocity":60,"Duration":131578,"SoundDuration":131578,"Delta":547301167},{"NoteNumber":91,"Velocity":70,"Duration":131578,"SoundDuration":131578,"Delta":547432746},{"NoteNumber":87,"Velocity":58,"Duration":131578,"SoundDuration":131578,"Delta":547432746},{"NoteNumber":82,"Velocity":58,"Duration":131578,"SoundDuration":131578,"Delta":547432746},{"NoteNumber":91,"Velocity":62,"Duration":131578,"SoundDuration":131578,"Delta":547564325},{"NoteNumber":103,"Velocity":81,"Duration":263158,"SoundDuration":263158,"Delta":547695904},{"NoteNumber":99,"Velocity":78,"Duration":263158,"SoundDuration":263158,"Delta":547695904},{"NoteNumber":94,"Velocity":62,"Duration":263158,"SoundDuration":263158,"Delta":547695904},{"NoteNumber":55,"Velocity":76,"Duration":136544,"SoundDuration":136544,"Delta":548090641},{"NoteNumber":67,"Velocity":76,"Duration":136544,"SoundDuration":136544,"Delta":548090641},{"NoteNumber":27,"Velocity":58,"Duration":324992,"SoundDuration":324992,"Delta":548156430},{"NoteNumber":34,"Velocity":58,"Duration":289614,"SoundDuration":289614,"Delta":548191808},{"NoteNumber":68,"Velocity":82,"Duration":508474,"SoundDuration":508474,"Delta":548227185},{"NoteNumber":56,"Velocity":73,"Duration":508474,"SoundDuration":508474,"Delta":548227185},{"NoteNumber":38,"Velocity":69,"Duration":254237,"SoundDuration":254237,"Delta":548227185},{"NoteNumber":41,"Velocity":58,"Duration":254237,"SoundDuration":254237,"Delta":548481423},{"NoteNumber":46,"Velocity":58,"Duration":254237,"SoundDuration":254237,"Delta":548481423},{"NoteNumber":50,"Velocity":69,"Duration":254237,"SoundDuration":254237,"Delta":548481423},{"NoteNumber":53,"Velocity":62,"Duration":127118,"SoundDuration":127118,"Delta":548608541},{"NoteNumber":58,"Velocity":53,"Duration":124470,"SoundDuration":124470,"Delta":548735660},{"NoteNumber":62,"Velocity":53,"Duration":124470,"SoundDuration":124470,"Delta":548735660},{"NoteNumber":65,"Velocity":62,"Duration":124470,"SoundDuration":124470,"Delta":548735660},{"NoteNumber":65,"Velocity":57,"Duration":124471,"SoundDuration":124471,"Delta":548860131},{"NoteNumber":77,"Velocity":62,"Duration":124470,"SoundDuration":124470,"Delta":548984602},{"NoteNumber":74,"Velocity":53,"Duration":124470,"SoundDuration":124470,"Delta":548984602},{"NoteNumber":70,"Velocity":53,"Duration":124470,"SoundDuration":124470,"Delta":548984602},{"NoteNumber":77,"Velocity":56,"Duration":124470,"SoundDuration":124470,"Delta":549109073},{"NoteNumber":55,"Velocity":76,"Duration":124470,"SoundDuration":124470,"Delta":549109073},{"NoteNumber":67,"Velocity":76,"Duration":124470,"SoundDuration":124470,"Delta":549109073},{"NoteNumber":89,"Velocity":67,"Duration":131578,"SoundDuration":131578,"Delta":549233544},{"NoteNumber":86,"Velocity":67,"Duration":131578,"SoundDuration":131578,"Delta":549233544},{"NoteNumber":82,"Velocity":57,"Duration":131578,"SoundDuration":131578,"Delta":549233544},{"NoteNumber":56,"Velocity":81,"Duration":526315,"SoundDuration":526315,"Delta":549233544},{"NoteNumber":68,"Velocity":81,"Duration":526315,"SoundDuration":526315,"Delta":549233544},{"NoteNumber":77,"Velocity":60,"Duration":131578,"SoundDuration":131578,"Delta":549365123},{"NoteNumber":89,"Velocity":70,"Duration":131578,"SoundDuration":131578,"Delta":549496702},{"NoteNumber":86,"Velocity":58,"Duration":131578,"SoundDuration":131578,"Delta":549496702},{"NoteNumber":82,"Velocity":58,"Duration":131578,"SoundDuration":131578,"Delta":549496702},{"NoteNumber":89,"Velocity":62,"Duration":131578,"SoundDuration":131578,"Delta":549628281},{"NoteNumber":101,"Velocity":81,"Duration":263158,"SoundDuration":263158,"Delta":549759860},{"NoteNumber":98,"Velocity":74,"Duration":263158,"SoundDuration":263158,"Delta":549759860},{"NoteNumber":94,"Velocity":62,"Duration":263158,"SoundDuration":263158,"Delta":549759860},{"NoteNumber":57,"Velocity":80,"Duration":460526,"SoundDuration":460526,"Delta":549759860},{"NoteNumber":69,"Velocity":80,"Duration":460526,"SoundDuration":460526,"Delta":549759860},{"NoteNumber":27,"Velocity":58,"Duration":324992,"SoundDuration":324992,"Delta":550220387},{"NoteNumber":31,"Velocity":58,"Duration":301407,"SoundDuration":301407,"Delta":550243972},{"NoteNumber":34,"Velocity":58,"Duration":277822,"SoundDuration":277822,"Delta":550267556},{"NoteNumber":70,"Velocity":82,"Duration":754322,"SoundDuration":754322,"Delta":550291141},{"NoteNumber":58,"Velocity":73,"Duration":632431,"SoundDuration":632431,"Delta":550291141},{"NoteNumber":39,"Velocity":69,"Duration":254237,"SoundDuration":254237,"Delta":550291141},{"NoteNumber":39,"Velocity":58,"Duration":254237,"SoundDuration":254237,"Delta":550545379},{"NoteNumber":46,"Velocity":58,"Duration":254237,"SoundDuration":254237,"Delta":550545379},{"NoteNumber":51,"Velocity":69,"Duration":254237,"SoundDuration":254237,"Delta":550545379},{"NoteNumber":55,"Velocity":62,"Duration":127118,"SoundDuration":127118,"Delta":550672498},{"NoteNumber":58,"Velocity":53,"Duration":245847,"SoundDuration":245847,"Delta":550799616},{"NoteNumber":63,"Velocity":53,"Duration":123956,"SoundDuration":123956,"Delta":550799616},{"NoteNumber":67,"Velocity":62,"Duration":123956,"SoundDuration":123956,"Delta":550799616},{"NoteNumber":67,"Velocity":57,"Duration":123956,"SoundDuration":123956,"Delta":550923573},{"NoteNumber":79,"Velocity":62,"Duration":123956,"SoundDuration":123956,"Delta":551047530},{"NoteNumber":75,"Velocity":53,"Duration":123956,"SoundDuration":123956,"Delta":551047530},{"NoteNumber":70,"Velocity":53,"Duration":123956,"SoundDuration":123956,"Delta":551047530},{"NoteNumber":79,"Velocity":56,"Duration":123956,"SoundDuration":123956,"Delta":551171487},{"NoteNumber":91,"Velocity":67,"Duration":131578,"SoundDuration":131578,"Delta":551295443},{"NoteNumber":87,"Velocity":67,"Duration":131578,"SoundDuration":131578,"Delta":551295443},{"NoteNumber":82,"Velocity":57,"Duration":131578,"SoundDuration":131578,"Delta":551295443},{"NoteNumber":55,"Velocity":81,"Duration":263157,"SoundDuration":263157,"Delta":551295443},{"NoteNumber":67,"Velocity":84,"Duration":263157,"SoundDuration":263157,"Delta":551295443},{"NoteNumber":79,"Velocity":60,"Duration":131578,"SoundDuration":131578,"Delta":551427022},{"NoteNumber":91,"Velocity":70,"Duration":131578,"SoundDuration":131578,"Delta":551558601},{"NoteNumber":87,"Velocity":58,"Duration":131578,"SoundDuration":131578,"Delta":551558601},{"NoteNumber":82,"Velocity":58,"Duration":131578,"SoundDuration":131578,"Delta":551558601},{"NoteNumber":91,"Velocity":62,"Duration":138875,"SoundDuration":138875,"Delta":551690180},{"NoteNumber":103,"Velocity":81,"Duration":270443,"SoundDuration":270443,"Delta":551829056},{"NoteNumber":99,"Velocity":78,"Duration":270443,"SoundDuration":270443,"Delta":551829056},{"NoteNumber":94,"Velocity":62,"Duration":270443,"SoundDuration":270443,"Delta":551829056},{"NoteNumber":46,"Velocity":76,"Duration":136538,"SoundDuration":136538,"Delta":552231067},{"NoteNumber":58,"Velocity":76,"Duration":136538,"SoundDuration":136538,"Delta":552231067},{"NoteNumber":27,"Velocity":58,"Duration":324992,"SoundDuration":324992,"Delta":552296851},{"NoteNumber":31,"Velocity":58,"Duration":301407,"SoundDuration":301407,"Delta":552320436},{"NoteNumber":34,"Velocity":58,"Duration":277822,"SoundDuration":277822,"Delta":552344021},{"NoteNumber":63,"Velocity":82,"Duration":508474,"SoundDuration":508474,"Delta":552367606},{"NoteNumber":51,"Velocity":75,"Duration":248940,"SoundDuration":248940,"Delta":552367606},{"NoteNumber":39,"Velocity":69,"Duration":254237,"SoundDuration":254237,"Delta":552367606},{"NoteNumber":39,"Velocity":58,"Duration":254237,"SoundDuration":254237,"Delta":552621843},{"NoteNumber":46,"Velocity":58,"Duration":254237,"SoundDuration":254237,"Delta":552621843},{"NoteNumber":51,"Velocity":69,"Duration":254237,"SoundDuration":254237,"Delta":552621843},{"NoteNumber":55,"Velocity":62,"Duration":127118,"SoundDuration":127118,"Delta":552748962},{"NoteNumber":58,"Velocity":53,"Duration":127118,"SoundDuration":127118,"Delta":552876081},{"NoteNumber":63,"Velocity":53,"Duration":127118,"SoundDuration":127118,"Delta":552876081},{"NoteNumber":67,"Velocity":62,"Duration":127118,"SoundDuration":127118,"Delta":552876081},{"NoteNumber":67,"Velocity":57,"Duration":124470,"SoundDuration":124470,"Delta":553003200},{"NoteNumber":79,"Velocity":62,"Duration":124471,"SoundDuration":124471,"Delta":553127671},{"NoteNumber":75,"Velocity":53,"Duration":124471,"SoundDuration":124471,"Delta":553127671},{"NoteNumber":70,"Velocity":53,"Duration":124471,"SoundDuration":124471,"Delta":553127671},{"NoteNumber":79,"Velocity":56,"Duration":124470,"SoundDuration":124470,"Delta":553252142},{"NoteNumber":55,"Velocity":76,"Duration":124470,"SoundDuration":124470,"Delta":553252142},{"NoteNumber":67,"Velocity":72,"Duration":124470,"SoundDuration":124470,"Delta":553252142},{"NoteNumber":91,"Velocity":67,"Duration":131578,"SoundDuration":131578,"Delta":553376613},{"NoteNumber":87,"Velocity":67,"Duration":131578,"SoundDuration":131578,"Delta":553376613},{"NoteNumber":82,"Velocity":57,"Duration":131578,"SoundDuration":131578,"Delta":553376613},{"NoteNumber":56,"Velocity":81,"Duration":526315,"SoundDuration":526315,"Delta":553376613},{"NoteNumber":68,"Velocity":76,"Duration":526315,"SoundDuration":526315,"Delta":553376613},{"NoteNumber":79,"Velocity":60,"Duration":131578,"SoundDuration":131578,"Delta":553508192},{"NoteNumber":91,"Velocity":70,"Duration":131578,"SoundDuration":131578,"Delta":553639771},{"NoteNumber":87,"Velocity":58,"Duration":131578,"SoundDuration":131578,"Delta":553639771},{"NoteNumber":82,"Velocity":58,"Duration":131578,"SoundDuration":131578,"Delta":553639771},{"NoteNumber":91,"Velocity":62,"Duration":131578,"SoundDuration":131578,"Delta":553771350},{"NoteNumber":103,"Velocity":81,"Duration":263158,"SoundDuration":263158,"Delta":553902929},{"NoteNumber":99,"Velocity":78,"Duration":263158,"SoundDuration":263158,"Delta":553902929},{"NoteNumber":94,"Velocity":62,"Duration":263158,"SoundDuration":263158,"Delta":553902929},{"NoteNumber":57,"Velocity":80,"Duration":460526,"SoundDuration":460526,"Delta":553902929},{"NoteNumber":69,"Velocity":80,"Duration":460526,"SoundDuration":460526,"Delta":553902929},{"NoteNumber":27,"Velocity":58,"Duration":324992,"SoundDuration":324992,"Delta":554363455},{"NoteNumber":31,"Velocity":58,"Duration":301407,"SoundDuration":301407,"Delta":554387040},{"NoteNumber":34,"Velocity":58,"Duration":277822,"SoundDuration":277822,"Delta":554410625},{"NoteNumber":70,"Velocity":82,"Duration":754322,"SoundDuration":754322,"Delta":554434210},{"NoteNumber":58,"Velocity":73,"Duration":632431,"SoundDuration":632431,"Delta":554434210},{"NoteNumber":39,"Velocity":69,"Duration":254237,"SoundDuration":254237,"Delta":554434210},{"NoteNumber":39,"Velocity":58,"Duration":254237,"SoundDuration":254237,"Delta":554688447},{"NoteNumber":46,"Velocity":58,"Duration":254237,"SoundDuration":254237,"Delta":554688447},{"NoteNumber":51,"Velocity":69,"Duration":254237,"SoundDuration":254237,"Delta":554688447},{"NoteNumber":55,"Velocity":62,"Duration":127118,"SoundDuration":127118,"Delta":554815566},{"NoteNumber":58,"Velocity":53,"Duration":245847,"SoundDuration":245847,"Delta":554942685},{"NoteNumber":63,"Velocity":53,"Duration":123956,"SoundDuration":123956,"Delta":554942685},{"NoteNumber":67,"Velocity":62,"Duration":123956,"SoundDuration":123956,"Delta":554942685},{"NoteNumber":67,"Velocity":57,"Duration":123956,"SoundDuration":123956,"Delta":555066642},{"NoteNumber":79,"Velocity":62,"Duration":123956,"SoundDuration":123956,"Delta":555190598},{"NoteNumber":75,"Velocity":53,"Duration":123956,"SoundDuration":123956,"Delta":555190598},{"NoteNumber":70,"Velocity":53,"Duration":123956,"SoundDuration":123956,"Delta":555190598},{"NoteNumber":79,"Velocity":56,"Duration":123956,"SoundDuration":123956,"Delta":555314555},{"NoteNumber":91,"Velocity":67,"Duration":131578,"SoundDuration":131578,"Delta":555438512},{"NoteNumber":87,"Velocity":67,"Duration":131578,"SoundDuration":131578,"Delta":555438512},{"NoteNumber":82,"Velocity":57,"Duration":131578,"SoundDuration":131578,"Delta":555438512},{"NoteNumber":63,"Velocity":81,"Duration":526315,"SoundDuration":526315,"Delta":555438512},{"NoteNumber":75,"Velocity":84,"Duration":526315,"SoundDuration":526315,"Delta":555438512},{"NoteNumber":79,"Velocity":60,"Duration":131578,"SoundDuration":131578,"Delta":555570091},{"NoteNumber":91,"Velocity":70,"Duration":131578,"SoundDuration":131578,"Delta":555701670},{"NoteNumber":87,"Velocity":58,"Duration":131578,"SoundDuration":131578,"Delta":555701670},{"NoteNumber":82,"Velocity":58,"Duration":131578,"SoundDuration":131578,"Delta":555701670},{"NoteNumber":91,"Velocity":62,"Duration":131578,"SoundDuration":131578,"Delta":555833249},{"NoteNumber":103,"Velocity":81,"Duration":263158,"SoundDuration":263158,"Delta":555964828},{"NoteNumber":99,"Velocity":78,"Duration":263158,"SoundDuration":263158,"Delta":555964828},{"NoteNumber":94,"Velocity":62,"Duration":263158,"SoundDuration":263158,"Delta":555964828},{"NoteNumber":55,"Velocity":76,"Duration":136544,"SoundDuration":136544,"Delta":556359565},{"NoteNumber":67,"Velocity":76,"Duration":136544,"SoundDuration":136544,"Delta":556359565},{"NoteNumber":27,"Velocity":58,"Duration":324992,"SoundDuration":324992,"Delta":556425354},{"NoteNumber":34,"Velocity":58,"Duration":289614,"SoundDuration":289614,"Delta":556460732},{"NoteNumber":68,"Velocity":82,"Duration":508474,"SoundDuration":508474,"Delta":556496109},{"NoteNumber":56,"Velocity":73,"Duration":508474,"SoundDuration":508474,"Delta":556496109},{"NoteNumber":38,"Velocity":69,"Duration":254237,"SoundDuration":254237,"Delta":556496109},{"NoteNumber":41,"Velocity":58,"Duration":254237,"SoundDuration":254237,"Delta":556750347},{"NoteNumber":46,"Velocity":58,"Duration":254237,"SoundDuration":254237,"Delta":556750347},{"NoteNumber":50,"Velocity":69,"Duration":254237,"SoundDuration":254237,"Delta":556750347},{"NoteNumber":53,"Velocity":62,"Duration":127118,"SoundDuration":127118,"Delta":556877465},{"NoteNumber":58,"Velocity":53,"Duration":127118,"SoundDuration":127118,"Delta":557004584},{"NoteNumber":62,"Velocity":53,"Duration":127118,"SoundDuration":127118,"Delta":557004584},{"NoteNumber":65,"Velocity":62,"Duration":127118,"SoundDuration":127118,"Delta":557004584},{"NoteNumber":65,"Velocity":57,"Duration":123956,"SoundDuration":123956,"Delta":557131703},{"NoteNumber":77,"Velocity":62,"Duration":123956,"SoundDuration":123956,"Delta":557255660},{"NoteNumber":74,"Velocity":53,"Duration":123956,"SoundDuration":123956,"Delta":557255660},{"NoteNumber":70,"Velocity":53,"Duration":123956,"SoundDuration":123956,"Delta":557255660},{"NoteNumber":77,"Velocity":56,"Duration":123956,"SoundDuration":123956,"Delta":557379616},{"NoteNumber":55,"Velocity":76,"Duration":123956,"SoundDuration":123956,"Delta":557379616},{"NoteNumber":67,"Velocity":76,"Duration":123956,"SoundDuration":123956,"Delta":557379616},{"NoteNumber":89,"Velocity":67,"Duration":131578,"SoundDuration":131578,"Delta":557503573},{"NoteNumber":86,"Velocity":67,"Duration":131578,"SoundDuration":131578,"Delta":557503573},{"NoteNumber":82,"Velocity":57,"Duration":131578,"SoundDuration":131578,"Delta":557503573},{"NoteNumber":56,"Velocity":81,"Duration":526315,"SoundDuration":526315,"Delta":557503573},{"NoteNumber":68,"Velocity":81,"Duration":526315,"SoundDuration":526315,"Delta":557503573},{"NoteNumber":77,"Velocity":60,"Duration":131578,"SoundDuration":131578,"Delta":557635152},{"NoteNumber":89,"Velocity":70,"Duration":131578,"SoundDuration":131578,"Delta":557766731},{"NoteNumber":86,"Velocity":58,"Duration":131578,"SoundDuration":131578,"Delta":557766731},{"NoteNumber":82,"Velocity":58,"Duration":131578,"SoundDuration":131578,"Delta":557766731},{"NoteNumber":89,"Velocity":62,"Duration":131578,"SoundDuration":131578,"Delta":557898310},{"NoteNumber":101,"Velocity":81,"Duration":263158,"SoundDuration":263158,"Delta":558029889},{"NoteNumber":98,"Velocity":74,"Duration":263158,"SoundDuration":263158,"Delta":558029889},{"NoteNumber":94,"Velocity":62,"Duration":263158,"SoundDuration":263158,"Delta":558029889},{"NoteNumber":53,"Velocity":80,"Duration":460526,"SoundDuration":460526,"Delta":558029889},{"NoteNumber":65,"Velocity":80,"Duration":460526,"SoundDuration":460526,"Delta":558029889},{"NoteNumber":27,"Velocity":58,"Duration":324992,"SoundDuration":324992,"Delta":558490416},{"NoteNumber":31,"Velocity":58,"Duration":301407,"SoundDuration":301407,"Delta":558514001},{"NoteNumber":34,"Velocity":58,"Duration":277822,"SoundDuration":277822,"Delta":558537585},{"NoteNumber":63,"Velocity":82,"Duration":508474,"SoundDuration":508474,"Delta":558561170},{"NoteNumber":51,"Velocity":73,"Duration":248940,"SoundDuration":248940,"Delta":558561170},{"NoteNumber":39,"Velocity":69,"Duration":254237,"SoundDuration":254237,"Delta":558561170},{"NoteNumber":39,"Velocity":58,"Duration":254237,"SoundDuration":254237,"Delta":558815408},{"NoteNumber":46,"Velocity":58,"Duration":254237,"SoundDuration":254237,"Delta":558815408},{"NoteNumber":51,"Velocity":69,"Duration":254237,"SoundDuration":254237,"Delta":558815408},{"NoteNumber":55,"Velocity":62,"Duration":127118,"SoundDuration":127118,"Delta":558942527},{"NoteNumber":58,"Velocity":53,"Duration":127118,"SoundDuration":127118,"Delta":559069645},{"NoteNumber":63,"Velocity":62,"Duration":127118,"SoundDuration":127118,"Delta":559069645},{"NoteNumber":67,"Velocity":57,"Duration":123956,"SoundDuration":123956,"Delta":559196764},{"NoteNumber":75,"Velocity":62,"Duration":123956,"SoundDuration":123956,"Delta":559320721},{"NoteNumber":70,"Velocity":53,"Duration":123956,"SoundDuration":123956,"Delta":559320721},{"NoteNumber":79,"Velocity":56,"Duration":123956,"SoundDuration":123956,"Delta":559444678},{"NoteNumber":87,"Velocity":70,"Duration":131578,"SoundDuration":131578,"Delta":559568634},{"NoteNumber":82,"Velocity":58,"Duration":131578,"SoundDuration":131578,"Delta":559568634},{"NoteNumber":79,"Velocity":60,"Duration":131578,"SoundDuration":131578,"Delta":559700213},{"NoteNumber":87,"Velocity":76,"Duration":131578,"SoundDuration":131578,"Delta":559831792},{"NoteNumber":82,"Velocity":64,"Duration":131578,"SoundDuration":131578,"Delta":559831792},{"NoteNumber":91,"Velocity":62,"Duration":131578,"SoundDuration":131578,"Delta":559963371},{"NoteNumber":99,"Velocity":86,"Duration":247933,"SoundDuration":247933,"Delta":560094950},{"NoteNumber":94,"Velocity":69,"Duration":247933,"SoundDuration":247933,"Delta":560094950},{"NoteNumber":63,"Velocity":68,"Duration":495867,"SoundDuration":495867,"Delta":560094950},{"NoteNumber":67,"Velocity":68,"Duration":495867,"SoundDuration":495867,"Delta":560094950},{"NoteNumber":73,"Velocity":80,"Duration":495867,"SoundDuration":495867,"Delta":560094950},{"NoteNumber":68,"Velocity":65,"Duration":468750,"SoundDuration":468750,"Delta":560590818},{"NoteNumber":72,"Velocity":77,"Duration":468750,"SoundDuration":468750,"Delta":560590818},{"NoteNumber":75,"Velocity":60,"Duration":117187,"SoundDuration":117187,"Delta":560708006},{"NoteNumber":87,"Velocity":62,"Duration":117187,"SoundDuration":117187,"Delta":560825193},{"NoteNumber":80,"Velocity":52,"Duration":117187,"SoundDuration":117187,"Delta":560825193},{"NoteNumber":87,"Velocity":64,"Duration":117187,"SoundDuration":117187,"Delta":560942381},{"NoteNumber":99,"Velocity":65,"Duration":112782,"SoundDuration":112782,"Delta":561059568},{"NoteNumber":92,"Velocity":55,"Duration":112782,"SoundDuration":112782,"Delta":561059568},{"NoteNumber":67,"Velocity":63,"Duration":112782,"SoundDuration":112782,"Delta":561059568},{"NoteNumber":70,"Velocity":75,"Duration":112782,"SoundDuration":112782,"Delta":561059568},{"NoteNumber":87,"Velocity":60,"Duration":112781,"SoundDuration":112781,"Delta":561172350},{"NoteNumber":99,"Velocity":64,"Duration":112782,"SoundDuration":112782,"Delta":561285132},{"NoteNumber":92,"Velocity":54,"Duration":112782,"SoundDuration":112782,"Delta":561285132},{"NoteNumber":65,"Velocity":63,"Duration":112782,"SoundDuration":112782,"Delta":561285132},{"NoteNumber":68,"Velocity":75,"Duration":112782,"SoundDuration":112782,"Delta":561285132},{"NoteNumber":87,"Velocity":60,"Duration":112782,"SoundDuration":112782,"Delta":561397914},{"NoteNumber":63,"Velocity":67,"Duration":116278,"SoundDuration":116278,"Delta":561510696},{"NoteNumber":67,"Velocity":79,"Duration":116278,"SoundDuration":116278,"Delta":561510696},{"NoteNumber":70,"Velocity":60,"Duration":116279,"SoundDuration":116279,"Delta":561626975},{"NoteNumber":82,"Velocity":63,"Duration":116278,"SoundDuration":116278,"Delta":561743254},{"NoteNumber":75,"Velocity":53,"Duration":116278,"SoundDuration":116278,"Delta":561743254},{"NoteNumber":58,"Velocity":63,"Duration":116278,"SoundDuration":116278,"Delta":561743254},{"NoteNumber":65,"Velocity":75,"Duration":116278,"SoundDuration":116278,"Delta":561743254},{"NoteNumber":82,"Velocity":60,"Duration":116278,"SoundDuration":116278,"Delta":561859533},{"NoteNumber":94,"Velocity":64,"Duration":120967,"SoundDuration":120967,"Delta":561975812},{"NoteNumber":87,"Velocity":54,"Duration":120967,"SoundDuration":120967,"Delta":561975812},{"NoteNumber":55,"Velocity":63,"Duration":120967,"SoundDuration":120967,"Delta":561975812},{"NoteNumber":63,"Velocity":75,"Duration":120967,"SoundDuration":120967,"Delta":561975812},{"NoteNumber":82,"Velocity":60,"Duration":120967,"SoundDuration":120967,"Delta":562096780},{"NoteNumber":94,"Velocity":64,"Duration":120967,"SoundDuration":120967,"Delta":562217748},{"NoteNumber":87,"Velocity":54,"Duration":120967,"SoundDuration":120967,"Delta":562217748},{"NoteNumber":63,"Velocity":64,"Duration":120967,"SoundDuration":120967,"Delta":562217748},{"NoteNumber":67,"Velocity":76,"Duration":120967,"SoundDuration":120967,"Delta":562217748},{"NoteNumber":82,"Velocity":60,"Duration":120967,"SoundDuration":120967,"Delta":562338716},{"NoteNumber":65,"Velocity":68,"Duration":348837,"SoundDuration":348837,"Delta":562459683},{"NoteNumber":68,"Velocity":80,"Duration":348837,"SoundDuration":348837,"Delta":562459683},{"NoteNumber":70,"Velocity":60,"Duration":116279,"SoundDuration":116279,"Delta":562575962},{"NoteNumber":82,"Velocity":63,"Duration":116278,"SoundDuration":116278,"Delta":562692241},{"NoteNumber":74,"Velocity":53,"Duration":116278,"SoundDuration":116278,"Delta":562692241},{"NoteNumber":82,"Velocity":60,"Duration":116278,"SoundDuration":116278,"Delta":562808520},{"NoteNumber":64,"Velocity":63,"Duration":116278,"SoundDuration":116278,"Delta":562808520},{"NoteNumber":67,"Velocity":75,"Duration":116278,"SoundDuration":116278,"Delta":562808520},{"NoteNumber":94,"Velocity":64,"Duration":112782,"SoundDuration":112782,"Delta":562924799},{"NoteNumber":86,"Velocity":54,"Duration":112782,"SoundDuration":112782,"Delta":562924799},{"NoteNumber":65,"Velocity":63,"Duration":112782,"SoundDuration":112782,"Delta":562924799},{"NoteNumber":68,"Velocity":75,"Duration":112782,"SoundDuration":112782,"Delta":562924799},{"NoteNumber":82,"Velocity":60,"Duration":112351,"SoundDuration":112351,"Delta":563037581},{"NoteNumber":94,"Velocity":64,"Duration":112351,"SoundDuration":112351,"Delta":563149933},{"NoteNumber":86,"Velocity":54,"Duration":112351,"SoundDuration":112351,"Delta":563149933},{"NoteNumber":66,"Velocity":66,"Duration":112351,"SoundDuration":112351,"Delta":563149933},{"NoteNumber":69,"Velocity":78,"Duration":112351,"SoundDuration":112351,"Delta":563149933},{"NoteNumber":82,"Velocity":60,"Duration":112351,"SoundDuration":112351,"Delta":563262284},{"NoteNumber":67,"Velocity":68,"Duration":118110,"SoundDuration":118110,"Delta":563374635},{"NoteNumber":70,"Velocity":80,"Duration":118110,"SoundDuration":118110,"Delta":563374635},{"NoteNumber":70,"Velocity":60,"Duration":118110,"SoundDuration":118110,"Delta":563492745},{"NoteNumber":82,"Velocity":63,"Duration":118110,"SoundDuration":118110,"Delta":563610856},{"NoteNumber":75,"Velocity":53,"Duration":118110,"SoundDuration":118110,"Delta":563610856},{"NoteNumber":82,"Velocity":60,"Duration":118110,"SoundDuration":118110,"Delta":563728966},{"NoteNumber":94,"Velocity":64,"Duration":118110,"SoundDuration":118110,"Delta":563847076},{"NoteNumber":87,"Velocity":54,"Duration":118110,"SoundDuration":118110,"Delta":563847076},{"NoteNumber":63,"Velocity":68,"Duration":472441,"SoundDuration":472441,"Delta":563847076},{"NoteNumber":67,"Velocity":68,"Duration":472441,"SoundDuration":472441,"Delta":563847076},{"NoteNumber":73,"Velocity":80,"Duration":472441,"SoundDuration":472441,"Delta":563847076},{"NoteNumber":82,"Velocity":60,"Duration":118110,"SoundDuration":118110,"Delta":563965186},{"NoteNumber":94,"Velocity":64,"Duration":118110,"SoundDuration":118110,"Delta":564083297},{"NoteNumber":87,"Velocity":54,"Duration":118110,"SoundDuration":118110,"Delta":564083297},{"NoteNumber":82,"Velocity":60,"Duration":118110,"SoundDuration":118110,"Delta":564201407},{"NoteNumber":68,"Velocity":65,"Duration":466890,"SoundDuration":466890,"Delta":564319517},{"NoteNumber":72,"Velocity":77,"Duration":466890,"SoundDuration":466890,"Delta":564319517},{"NoteNumber":75,"Velocity":60,"Duration":116722,"SoundDuration":116722,"Delta":564436240},{"NoteNumber":87,"Velocity":62,"Duration":116722,"SoundDuration":116722,"Delta":564552962},{"NoteNumber":80,"Velocity":52,"Duration":116722,"SoundDuration":116722,"Delta":564552962},{"NoteNumber":87,"Velocity":64,"Duration":116722,"SoundDuration":116722,"Delta":564669685},{"NoteNumber":99,"Velocity":65,"Duration":112773,"SoundDuration":112773,"Delta":564786407},{"NoteNumber":92,"Velocity":55,"Duration":112773,"SoundDuration":112773,"Delta":564786407},{"NoteNumber":67,"Velocity":63,"Duration":112773,"SoundDuration":112773,"Delta":564786407},{"NoteNumber":70,"Velocity":75,"Duration":112773,"SoundDuration":112773,"Delta":564786407},{"NoteNumber":87,"Velocity":60,"Duration":111932,"SoundDuration":111932,"Delta":564899181},{"NoteNumber":99,"Velocity":64,"Duration":111932,"SoundDuration":111932,"Delta":565011113},{"NoteNumber":92,"Velocity":54,"Duration":111932,"SoundDuration":111932,"Delta":565011113},{"NoteNumber":65,"Velocity":63,"Duration":111932,"SoundDuration":111932,"Delta":565011113},{"NoteNumber":68,"Velocity":75,"Duration":111932,"SoundDuration":111932,"Delta":565011113},{"NoteNumber":87,"Velocity":60,"Duration":111931,"SoundDuration":111931,"Delta":565123045},{"NoteNumber":63,"Velocity":67,"Duration":118110,"SoundDuration":118110,"Delta":565234977},{"NoteNumber":67,"Velocity":79,"Duration":118110,"SoundDuration":118110,"Delta":565234977},{"NoteNumber":70,"Velocity":60,"Duration":118110,"SoundDuration":118110,"Delta":565353087},{"NoteNumber":82,"Velocity":63,"Duration":118110,"SoundDuration":118110,"Delta":565471197},{"NoteNumber":75,"Velocity":53,"Duration":118110,"SoundDuration":118110,"Delta":565471197},{"NoteNumber":58,"Velocity":63,"Duration":118110,"SoundDuration":118110,"Delta":565471197},{"NoteNumber":65,"Velocity":75,"Duration":118110,"SoundDuration":118110,"Delta":565471197},{"NoteNumber":82,"Velocity":60,"Duration":118110,"SoundDuration":118110,"Delta":565589307},{"NoteNumber":94,"Velocity":64,"Duration":120967,"SoundDuration":120967,"Delta":565707418},{"NoteNumber":87,"Velocity":54,"Duration":120967,"SoundDuration":120967,"Delta":565707418},{"NoteNumber":55,"Velocity":63,"Duration":120967,"SoundDuration":120967,"Delta":565707418},{"NoteNumber":63,"Velocity":75,"Duration":120967,"SoundDuration":120967,"Delta":565707418},{"NoteNumber":82,"Velocity":60,"Duration":120967,"SoundDuration":120967,"Delta":565828385},{"NoteNumber":94,"Velocity":64,"Duration":120967,"SoundDuration":120967,"Delta":565949353},{"NoteNumber":87,"Velocity":54,"Duration":120967,"SoundDuration":120967,"Delta":565949353},{"NoteNumber":63,"Velocity":64,"Duration":120967,"SoundDuration":120967,"Delta":565949353},{"NoteNumber":67,"Velocity":76,"Duration":120967,"SoundDuration":120967,"Delta":565949353},{"NoteNumber":82,"Velocity":60,"Duration":120967,"SoundDuration":120967,"Delta":566070321},{"NoteNumber":65,"Velocity":68,"Duration":346146,"SoundDuration":346146,"Delta":566191289},{"NoteNumber":68,"Velocity":80,"Duration":346146,"SoundDuration":346146,"Delta":566191289},{"NoteNumber":70,"Velocity":60,"Duration":114933,"SoundDuration":114933,"Delta":566307568},{"NoteNumber":82,"Velocity":63,"Duration":114933,"SoundDuration":114933,"Delta":566422501},{"NoteNumber":74,"Velocity":53,"Duration":114933,"SoundDuration":114933,"Delta":566422501},{"NoteNumber":82,"Velocity":60,"Duration":114933,"SoundDuration":114933,"Delta":566537435},{"NoteNumber":64,"Velocity":63,"Duration":114933,"SoundDuration":114933,"Delta":566537435},{"NoteNumber":67,"Velocity":75,"Duration":114933,"SoundDuration":114933,"Delta":566537435},{"NoteNumber":94,"Velocity":64,"Duration":112351,"SoundDuration":112351,"Delta":566652369},{"NoteNumber":86,"Velocity":54,"Duration":112351,"SoundDuration":112351,"Delta":566652369},{"NoteNumber":65,"Velocity":63,"Duration":112351,"SoundDuration":112351,"Delta":566652369},{"NoteNumber":68,"Velocity":75,"Duration":112351,"SoundDuration":112351,"Delta":566652369},{"NoteNumber":82,"Velocity":60,"Duration":112351,"SoundDuration":112351,"Delta":566764720},{"NoteNumber":94,"Velocity":64,"Duration":112351,"SoundDuration":112351,"Delta":566877071},{"NoteNumber":86,"Velocity":54,"Duration":112351,"SoundDuration":112351,"Delta":566877071},{"NoteNumber":58,"Velocity":66,"Duration":112351,"SoundDuration":112351,"Delta":566877071},{"NoteNumber":65,"Velocity":78,"Duration":112351,"SoundDuration":112351,"Delta":566877071},{"NoteNumber":82,"Velocity":60,"Duration":112351,"SoundDuration":112351,"Delta":566989423},{"NoteNumber":87,"Velocity":53,"Duration":118110,"SoundDuration":118110,"Delta":567101774},{"NoteNumber":94,"Velocity":63,"Duration":118110,"SoundDuration":118110,"Delta":567101774},{"NoteNumber":55,"Velocity":68,"Duration":118110,"SoundDuration":118110,"Delta":567101774},{"NoteNumber":63,"Velocity":80,"Duration":118110,"SoundDuration":118110,"Delta":567101774},{"NoteNumber":82,"Velocity":75,"Duration":115384,"SoundDuration":115384,"Delta":567574215},{"NoteNumber":39,"Velocity":65,"Duration":230769,"SoundDuration":230769,"Delta":567574215},{"NoteNumber":51,"Velocity":77,"Duration":230769,"SoundDuration":230769,"Delta":567574215},{"NoteNumber":97,"Velocity":60,"Duration":115384,"SoundDuration":115384,"Delta":567689599},{"NoteNumber":87,"Velocity":67,"Duration":115384,"SoundDuration":115384,"Delta":567804984},{"NoteNumber":43,"Velocity":61,"Duration":230769,"SoundDuration":230769,"Delta":567804984},{"NoteNumber":55,"Velocity":72,"Duration":230769,"SoundDuration":230769,"Delta":567804984},{"NoteNumber":97,"Velocity":60,"Duration":115384,"SoundDuration":115384,"Delta":567920368},{"NoteNumber":80,"Velocity":72,"Duration":113627,"SoundDuration":113627,"Delta":568035753},{"NoteNumber":44,"Velocity":68,"Duration":227255,"SoundDuration":227255,"Delta":568035753},{"NoteNumber":56,"Velocity":80,"Duration":227255,"SoundDuration":227255,"Delta":568035753},{"NoteNumber":96,"Velocity":57,"Duration":113627,"SoundDuration":113627,"Delta":568149381},{"NoteNumber":87,"Velocity":57,"Duration":113627,"SoundDuration":113627,"Delta":568263008},{"NoteNumber":48,"Velocity":62,"Duration":227255,"SoundDuration":227255,"Delta":568263008},{"NoteNumber":60,"Velocity":73,"Duration":227255,"SoundDuration":227255,"Delta":568263008},{"NoteNumber":96,"Velocity":57,"Duration":113627,"SoundDuration":113627,"Delta":568376636},{"NoteNumber":79,"Velocity":69,"Duration":110293,"SoundDuration":110293,"Delta":568490264},{"NoteNumber":51,"Velocity":62,"Duration":220588,"SoundDuration":220588,"Delta":568490264},{"NoteNumber":63,"Velocity":73,"Duration":220588,"SoundDuration":220588,"Delta":568490264},{"NoteNumber":94,"Velocity":56,"Duration":110294,"SoundDuration":110294,"Delta":568600558},{"NoteNumber":77,"Velocity":67,"Duration":110293,"SoundDuration":110293,"Delta":568710852},{"NoteNumber":56,"Velocity":62,"Duration":224797,"SoundDuration":224797,"Delta":568710852},{"NoteNumber":68,"Velocity":73,"Duration":224797,"SoundDuration":224797,"Delta":568710852},{"NoteNumber":92,"Velocity":56,"Duration":114503,"SoundDuration":114503,"Delta":568821146},{"NoteNumber":75,"Velocity":67,"Duration":113636,"SoundDuration":113636,"Delta":568935650},{"NoteNumber":58,"Velocity":62,"Duration":454545,"SoundDuration":454545,"Delta":568935650},{"NoteNumber":70,"Velocity":73,"Duration":454545,"SoundDuration":454545,"Delta":568935650},{"NoteNumber":91,"Velocity":56,"Duration":113636,"SoundDuration":113636,"Delta":569049286},{"NoteNumber":74,"Velocity":66,"Duration":113636,"SoundDuration":113636,"Delta":569162922},{"NoteNumber":90,"Velocity":56,"Duration":113636,"SoundDuration":113636,"Delta":569276558},{"NoteNumber":75,"Velocity":67,"Duration":116278,"SoundDuration":116278,"Delta":569390195},{"NoteNumber":39,"Velocity":65,"Duration":232558,"SoundDuration":232558,"Delta":569390195},{"NoteNumber":51,"Velocity":77,"Duration":232558,"SoundDuration":232558,"Delta":569390195},{"NoteNumber":91,"Velocity":56,"Duration":116279,"SoundDuration":116279,"Delta":569506474},{"NoteNumber":76,"Velocity":68,"Duration":116278,"SoundDuration":116278,"Delta":569622753},{"NoteNumber":43,"Velocity":61,"Duration":232557,"SoundDuration":232557,"Delta":569622753},{"NoteNumber":55,"Velocity":72,"Duration":232557,"SoundDuration":232557,"Delta":569622753},{"NoteNumber":91,"Velocity":57,"Duration":116278,"SoundDuration":116278,"Delta":569739032},{"NoteNumber":77,"Velocity":67,"Duration":114059,"SoundDuration":114059,"Delta":569855311},{"NoteNumber":46,"Velocity":68,"Duration":228119,"SoundDuration":228119,"Delta":569855311},{"NoteNumber":58,"Velocity":80,"Duration":228119,"SoundDuration":228119,"Delta":569855311},{"NoteNumber":92,"Velocity":60,"Duration":114059,"SoundDuration":114059,"Delta":569969370},{"NoteNumber":76,"Velocity":66,"Duration":114059,"SoundDuration":114059,"Delta":570083430},{"NoteNumber":50,"Velocity":58,"Duration":228119,"SoundDuration":228119,"Delta":570083430},{"NoteNumber":62,"Velocity":69,"Duration":228119,"SoundDuration":228119,"Delta":570083430},{"NoteNumber":91,"Velocity":60,"Duration":114059,"SoundDuration":114059,"Delta":570197490},{"NoteNumber":77,"Velocity":67,"Duration":110293,"SoundDuration":110293,"Delta":570311550},{"NoteNumber":53,"Velocity":62,"Duration":220588,"SoundDuration":220588,"Delta":570311550},{"NoteNumber":65,"Velocity":73,"Duration":220588,"SoundDuration":220588,"Delta":570311550},{"NoteNumber":92,"Velocity":57,"Duration":110294,"SoundDuration":110294,"Delta":570421844},{"NoteNumber":78,"Velocity":65,"Duration":110293,"SoundDuration":110293,"Delta":570532138},{"NoteNumber":66,"Velocity":65,"Duration":225678,"SoundDuration":225678,"Delta":570532138},{"NoteNumber":57,"Velocity":65,"Duration":225678,"SoundDuration":225678,"Delta":570532138},{"NoteNumber":69,"Velocity":77,"Duration":225678,"SoundDuration":225678,"Delta":570532138},{"NoteNumber":93,"Velocity":57,"Duration":115384,"SoundDuration":115384,"Delta":570642432},{"NoteNumber":79,"Velocity":70,"Duration":114503,"SoundDuration":114503,"Delta":570757816},{"NoteNumber":67,"Velocity":69,"Duration":459790,"SoundDuration":459790,"Delta":570757816},{"NoteNumber":58,"Velocity":69,"Duration":459790,"SoundDuration":459790,"Delta":570757816},{"NoteNumber":70,"Velocity":82,"Duration":459790,"SoundDuration":459790,"Delta":570757816},{"NoteNumber":94,"Velocity":58,"Duration":114503,"SoundDuration":114503,"Delta":570872320},{"NoteNumber":87,"Velocity":58,"Duration":114503,"SoundDuration":114503,"Delta":570986824},{"NoteNumber":94,"Velocity":58,"Duration":116278,"SoundDuration":116278,"Delta":571101327},{"NoteNumber":82,"Velocity":75,"Duration":118110,"SoundDuration":118110,"Delta":571217606},{"NoteNumber":39,"Velocity":65,"Duration":236220,"SoundDuration":236220,"Delta":571217606},{"NoteNumber":51,"Velocity":77,"Duration":236220,"SoundDuration":236220,"Delta":571217606},{"NoteNumber":97,"Velocity":60,"Duration":118110,"SoundDuration":118110,"Delta":571335717},{"NoteNumber":87,"Velocity":67,"Duration":118110,"SoundDuration":118110,"Delta":571453827},{"NoteNumber":43,"Velocity":61,"Duration":236220,"SoundDuration":236220,"Delta":571453827},{"NoteNumber":55,"Velocity":72,"Duration":236220,"SoundDuration":236220,"Delta":571453827},{"NoteNumber":97,"Velocity":60,"Duration":118110,"SoundDuration":118110,"Delta":571571937},{"NoteNumber":80,"Velocity":72,"Duration":114503,"SoundDuration":114503,"Delta":571690047},{"NoteNumber":44,"Velocity":68,"Duration":227702,"SoundDuration":227702,"Delta":571690047},{"NoteNumber":56,"Velocity":80,"Duration":227702,"SoundDuration":227702,"Delta":571690047},{"NoteNumber":96,"Velocity":57,"Duration":113199,"SoundDuration":113199,"Delta":571804551},{"NoteNumber":87,"Velocity":57,"Duration":113199,"SoundDuration":113199,"Delta":571917750},{"NoteNumber":48,"Velocity":62,"Duration":226398,"SoundDuration":226398,"Delta":571917750},{"NoteNumber":60,"Velocity":73,"Duration":226398,"SoundDuration":226398,"Delta":571917750},{"NoteNumber":96,"Velocity":57,"Duration":113199,"SoundDuration":113199,"Delta":572030949},{"NoteNumber":79,"Velocity":69,"Duration":110293,"SoundDuration":110293,"Delta":572144148},{"NoteNumber":51,"Velocity":62,"Duration":219774,"SoundDuration":219774,"Delta":572144148},{"NoteNumber":63,"Velocity":73,"Duration":219774,"SoundDuration":219774,"Delta":572144148},{"NoteNumber":94,"Velocity":56,"Duration":109480,"SoundDuration":109480,"Delta":572254442},{"NoteNumber":77,"Velocity":67,"Duration":109481,"SoundDuration":109481,"Delta":572363923},{"NoteNumber":56,"Velocity":62,"Duration":218962,"SoundDuration":218962,"Delta":572363923},{"NoteNumber":68,"Velocity":73,"Duration":218962,"SoundDuration":218962,"Delta":572363923},{"NoteNumber":92,"Velocity":56,"Duration":109480,"SoundDuration":109480,"Delta":572473404},{"NoteNumber":75,"Velocity":67,"Duration":113636,"SoundDuration":113636,"Delta":572582885},{"NoteNumber":58,"Velocity":62,"Duration":454545,"SoundDuration":454545,"Delta":572582885},{"NoteNumber":70,"Velocity":73,"Duration":454545,"SoundDuration":454545,"Delta":572582885},{"NoteNumber":91,"Velocity":56,"Duration":113636,"SoundDuration":113636,"Delta":572696521},{"NoteNumber":74,"Velocity":66,"Duration":113636,"SoundDuration":113636,"Delta":572810158},{"NoteNumber":90,"Velocity":56,"Duration":113636,"SoundDuration":113636,"Delta":572923794},{"NoteNumber":75,"Velocity":67,"Duration":116278,"SoundDuration":116278,"Delta":573037430},{"NoteNumber":39,"Velocity":65,"Duration":232558,"SoundDuration":232558,"Delta":573037430},{"NoteNumber":51,"Velocity":77,"Duration":232558,"SoundDuration":232558,"Delta":573037430},{"NoteNumber":91,"Velocity":56,"Duration":116279,"SoundDuration":116279,"Delta":573153709},{"NoteNumber":76,"Velocity":68,"Duration":116278,"SoundDuration":116278,"Delta":573269988},{"NoteNumber":43,"Velocity":61,"Duration":232557,"SoundDuration":232557,"Delta":573269988},{"NoteNumber":55,"Velocity":72,"Duration":232557,"SoundDuration":232557,"Delta":573269988},{"NoteNumber":91,"Velocity":57,"Duration":116278,"SoundDuration":116278,"Delta":573386267},{"NoteNumber":77,"Velocity":67,"Duration":115384,"SoundDuration":115384,"Delta":573502546},{"NoteNumber":46,"Velocity":68,"Duration":229012,"SoundDuration":229012,"Delta":573502546},{"NoteNumber":58,"Velocity":80,"Duration":229012,"SoundDuration":229012,"Delta":573502546},{"NoteNumber":92,"Velocity":60,"Duration":113627,"SoundDuration":113627,"Delta":573617931},{"NoteNumber":76,"Velocity":66,"Duration":113627,"SoundDuration":113627,"Delta":573731558},{"NoteNumber":50,"Velocity":58,"Duration":227255,"SoundDuration":227255,"Delta":573731558},{"NoteNumber":62,"Velocity":69,"Duration":227255,"SoundDuration":227255,"Delta":573731558},{"NoteNumber":91,"Velocity":60,"Duration":113627,"SoundDuration":113627,"Delta":573845186},{"NoteNumber":77,"Velocity":67,"Duration":110293,"SoundDuration":110293,"Delta":573958814},{"NoteNumber":53,"Velocity":62,"Duration":220588,"SoundDuration":220588,"Delta":573958814},{"NoteNumber":65,"Velocity":73,"Duration":220588,"SoundDuration":220588,"Delta":573958814},{"NoteNumber":92,"Velocity":57,"Duration":110294,"SoundDuration":110294,"Delta":574069108},{"NoteNumber":78,"Velocity":65,"Duration":110293,"SoundDuration":110293,"Delta":574179402},{"NoteNumber":66,"Velocity":65,"Duration":220588,"SoundDuration":220588,"Delta":574179402},{"NoteNumber":57,"Velocity":65,"Duration":220588,"SoundDuration":220588,"Delta":574179402},{"NoteNumber":69,"Velocity":77,"Duration":220588,"SoundDuration":220588,"Delta":574179402},{"NoteNumber":93,"Velocity":57,"Duration":110294,"SoundDuration":110294,"Delta":574289696},{"NoteNumber":79,"Velocity":70,"Duration":114503,"SoundDuration":114503,"Delta":574399990},{"NoteNumber":67,"Velocity":69,"Duration":458015,"SoundDuration":458015,"Delta":574399990},{"NoteNumber":58,"Velocity":69,"Duration":458015,"SoundDuration":458015,"Delta":574399990},{"NoteNumber":70,"Velocity":82,"Duration":458015,"SoundDuration":458015,"Delta":574399990},{"NoteNumber":94,"Velocity":58,"Duration":114503,"SoundDuration":114503,"Delta":574514494},{"NoteNumber":87,"Velocity":58,"Duration":114503,"SoundDuration":114503,"Delta":574628997},{"NoteNumber":94,"Velocity":58,"Duration":114503,"SoundDuration":114503,"Delta":574743501},{"NoteNumber":82,"Velocity":75,"Duration":116278,"SoundDuration":116278,"Delta":574858005},{"NoteNumber":39,"Velocity":65,"Duration":232558,"SoundDuration":232558,"Delta":574858005},{"NoteNumber":51,"Velocity":77,"Duration":232558,"SoundDuration":232558,"Delta":574858005},{"NoteNumber":97,"Velocity":60,"Duration":116279,"SoundDuration":116279,"Delta":574974284},{"NoteNumber":87,"Velocity":67,"Duration":116278,"SoundDuration":116278,"Delta":575090563},{"NoteNumber":43,"Velocity":61,"Duration":232557,"SoundDuration":232557,"Delta":575090563},{"NoteNumber":55,"Velocity":72,"Duration":232557,"SoundDuration":232557,"Delta":575090563},{"NoteNumber":97,"Velocity":60,"Duration":116278,"SoundDuration":116278,"Delta":575206842},{"NoteNumber":80,"Velocity":72,"Duration":115384,"SoundDuration":115384,"Delta":575323121},{"NoteNumber":44,"Velocity":68,"Duration":230769,"SoundDuration":230769,"Delta":575323121},{"NoteNumber":56,"Velocity":80,"Duration":230769,"SoundDuration":230769,"Delta":575323121},{"NoteNumber":96,"Velocity":57,"Duration":115384,"SoundDuration":115384,"Delta":575438505},{"NoteNumber":87,"Velocity":57,"Duration":115384,"SoundDuration":115384,"Delta":575553890},{"NoteNumber":48,"Velocity":62,"Duration":230769,"SoundDuration":230769,"Delta":575553890},{"NoteNumber":60,"Velocity":73,"Duration":230769,"SoundDuration":230769,"Delta":575553890},{"NoteNumber":96,"Velocity":57,"Duration":115384,"SoundDuration":115384,"Delta":575669274},{"NoteNumber":79,"Velocity":69,"Duration":111111,"SoundDuration":111111,"Delta":575784659},{"NoteNumber":51,"Velocity":62,"Duration":222221,"SoundDuration":222221,"Delta":575784659},{"NoteNumber":63,"Velocity":73,"Duration":222221,"SoundDuration":222221,"Delta":575784659},{"NoteNumber":94,"Velocity":56,"Duration":111110,"SoundDuration":111110,"Delta":575895770},{"NoteNumber":77,"Velocity":67,"Duration":111111,"SoundDuration":111111,"Delta":576006881},{"NoteNumber":56,"Velocity":62,"Duration":222221,"SoundDuration":222221,"Delta":576006881},{"NoteNumber":68,"Velocity":73,"Duration":222221,"SoundDuration":222221,"Delta":576006881},{"NoteNumber":92,"Velocity":56,"Duration":111110,"SoundDuration":111110,"Delta":576117992},{"NoteNumber":75,"Velocity":67,"Duration":115384,"SoundDuration":115384,"Delta":576229103},{"NoteNumber":58,"Velocity":62,"Duration":461538,"SoundDuration":461538,"Delta":576229103},{"NoteNumber":70,"Velocity":73,"Duration":461538,"SoundDuration":461538,"Delta":576229103},{"NoteNumber":91,"Velocity":56,"Duration":115384,"SoundDuration":115384,"Delta":576344487},{"NoteNumber":74,"Velocity":66,"Duration":115384,"SoundDuration":115384,"Delta":576459872},{"NoteNumber":90,"Velocity":56,"Duration":115384,"SoundDuration":115384,"Delta":576575256},{"NoteNumber":75,"Velocity":67,"Duration":111111,"SoundDuration":111111,"Delta":576690641},{"NoteNumber":91,"Velocity":56,"Duration":111110,"SoundDuration":111110,"Delta":576801752},{"NoteNumber":63,"Velocity":54,"Duration":222221,"SoundDuration":222221,"Delta":576912863},{"NoteNumber":75,"Velocity":64,"Duration":222221,"SoundDuration":222221,"Delta":576912863},{"NoteNumber":79,"Velocity":48,"Duration":111110,"SoundDuration":111110,"Delta":577023974},{"NoteNumber":91,"Velocity":57,"Duration":111110,"SoundDuration":111110,"Delta":577023974},{"NoteNumber":62,"Velocity":51,"Duration":105633,"SoundDuration":105633,"Delta":577135085},{"NoteNumber":74,"Velocity":72,"Duration":105633,"SoundDuration":105633,"Delta":577135085},{"NoteNumber":80,"Velocity":51,"Duration":105633,"SoundDuration":105633,"Delta":577240719},{"NoteNumber":92,"Velocity":61,"Duration":105633,"SoundDuration":105633,"Delta":577240719},{"NoteNumber":65,"Velocity":44,"Duration":110293,"SoundDuration":110293,"Delta":577346352},{"NoteNumber":77,"Velocity":62,"Duration":110293,"SoundDuration":110293,"Delta":577346352},{"NoteNumber":79,"Velocity":49,"Duration":110294,"SoundDuration":110294,"Delta":577456646},{"NoteNumber":91,"Velocity":58,"Duration":110294,"SoundDuration":110294,"Delta":577456646},{"NoteNumber":61,"Velocity":59,"Duration":105633,"SoundDuration":105633,"Delta":577566940},{"NoteNumber":73,"Velocity":70,"Duration":105633,"SoundDuration":105633,"Delta":577566940},{"NoteNumber":80,"Velocity":50,"Duration":105633,"SoundDuration":105633,"Delta":577672574},{"NoteNumber":92,"Velocity":59,"Duration":105633,"SoundDuration":105633,"Delta":577672574},{"NoteNumber":65,"Velocity":55,"Duration":110293,"SoundDuration":110293,"Delta":577778208},{"NoteNumber":77,"Velocity":65,"Duration":110293,"SoundDuration":110293,"Delta":577778208},{"NoteNumber":79,"Velocity":46,"Duration":109153,"SoundDuration":109153,"Delta":577888502},{"NoteNumber":91,"Velocity":55,"Duration":109153,"SoundDuration":109153,"Delta":577888502},{"NoteNumber":60,"Velocity":51,"Duration":104895,"SoundDuration":104895,"Delta":577997655},{"NoteNumber":72,"Velocity":72,"Duration":104895,"SoundDuration":104895,"Delta":577997655},{"NoteNumber":80,"Velocity":50,"Duration":104894,"SoundDuration":104894,"Delta":578102550},{"NoteNumber":92,"Velocity":59,"Duration":104894,"SoundDuration":104894,"Delta":578102550},{"NoteNumber":65,"Velocity":44,"Duration":109489,"SoundDuration":109489,"Delta":578207445},{"NoteNumber":77,"Velocity":62,"Duration":109489,"SoundDuration":109489,"Delta":578207445},{"NoteNumber":79,"Velocity":47,"Duration":109488,"SoundDuration":109488,"Delta":578316934},{"NoteNumber":91,"Velocity":56,"Duration":109488,"SoundDuration":109488,"Delta":578316934},{"NoteNumber":59,"Velocity":59,"Duration":104895,"SoundDuration":104895,"Delta":578426423},{"NoteNumber":71,"Velocity":70,"Duration":104895,"SoundDuration":104895,"Delta":578426423},{"NoteNumber":80,"Velocity":49,"Duration":104894,"SoundDuration":104894,"Delta":578531318},{"NoteNumber":92,"Velocity":58,"Duration":104894,"SoundDuration":104894,"Delta":578531318},{"NoteNumber":62,"Velocity":55,"Duration":107142,"SoundDuration":107142,"Delta":578636213},{"NoteNumber":74,"Velocity":65,"Duration":107142,"SoundDuration":107142,"Delta":578636213},{"NoteNumber":82,"Velocity":47,"Duration":107142,"SoundDuration":107142,"Delta":578743356},{"NoteNumber":79,"Velocity":47,"Duration":107142,"SoundDuration":107142,"Delta":578743356},{"NoteNumber":91,"Velocity":56,"Duration":107142,"SoundDuration":107142,"Delta":578743356},{"NoteNumber":56,"Velocity":61,"Duration":102508,"SoundDuration":102508,"Delta":578850498},{"NoteNumber":68,"Velocity":72,"Duration":102508,"SoundDuration":102508,"Delta":578850498},{"NoteNumber":83,"Velocity":50,"Duration":102739,"SoundDuration":102739,"Delta":578953007},{"NoteNumber":80,"Velocity":50,"Duration":102739,"SoundDuration":102739,"Delta":578953007},{"NoteNumber":92,"Velocity":59,"Duration":102739,"SoundDuration":102739,"Delta":578953007},{"NoteNumber":59,"Velocity":52,"Duration":104895,"SoundDuration":104895,"Delta":579055746},{"NoteNumber":71,"Velocity":62,"Duration":104895,"SoundDuration":104895,"Delta":579055746},{"NoteNumber":82,"Velocity":45,"Duration":104894,"SoundDuration":104894,"Delta":579160641},{"NoteNumber":79,"Velocity":45,"Duration":104894,"SoundDuration":104894,"Delta":579160641},{"NoteNumber":91,"Velocity":54,"Duration":104894,"SoundDuration":104894,"Delta":579160641},{"NoteNumber":54,"Velocity":71,"Duration":100671,"SoundDuration":100671,"Delta":579265536},{"NoteNumber":66,"Velocity":71,"Duration":100671,"SoundDuration":100671,"Delta":579265536},{"NoteNumber":83,"Velocity":60,"Duration":100671,"SoundDuration":100671,"Delta":579366208},{"NoteNumber":80,"Velocity":51,"Duration":100671,"SoundDuration":100671,"Delta":579366208},{"NoteNumber":92,"Velocity":60,"Duration":100671,"SoundDuration":100671,"Delta":579366208},{"NoteNumber":59,"Velocity":66,"Duration":103448,"SoundDuration":103448,"Delta":579466879},{"NoteNumber":71,"Velocity":66,"Duration":103448,"SoundDuration":103448,"Delta":579466879},{"NoteNumber":82,"Velocity":48,"Duration":103448,"SoundDuration":103448,"Delta":579570327},{"NoteNumber":79,"Velocity":48,"Duration":103448,"SoundDuration":103448,"Delta":579570327},{"NoteNumber":91,"Velocity":57,"Duration":103448,"SoundDuration":103448,"Delta":579570327},{"NoteNumber":52,"Velocity":63,"Duration":101356,"SoundDuration":101356,"Delta":579673775},{"NoteNumber":64,"Velocity":74,"Duration":101356,"SoundDuration":101356,"Delta":579673775},{"NoteNumber":83,"Velocity":63,"Duration":102040,"SoundDuration":102040,"Delta":579775131},{"NoteNumber":80,"Velocity":53,"Duration":102040,"SoundDuration":102040,"Delta":579775131},{"NoteNumber":92,"Velocity":63,"Duration":102040,"SoundDuration":102040,"Delta":579775131},{"NoteNumber":56,"Velocity":54,"Duration":104166,"SoundDuration":104166,"Delta":579877172},{"NoteNumber":68,"Velocity":65,"Duration":104166,"SoundDuration":104166,"Delta":579877172},{"NoteNumber":82,"Velocity":51,"Duration":104166,"SoundDuration":104166,"Delta":579981339},{"NoteNumber":79,"Velocity":51,"Duration":104166,"SoundDuration":104166,"Delta":579981339},{"NoteNumber":91,"Velocity":60,"Duration":104166,"SoundDuration":104166,"Delta":579981339},{"NoteNumber":51,"Velocity":74,"Duration":100671,"SoundDuration":100671,"Delta":580085506},{"NoteNumber":63,"Velocity":74,"Duration":100671,"SoundDuration":100671,"Delta":580085506},{"NoteNumber":83,"Velocity":54,"Duration":100671,"SoundDuration":100671,"Delta":580186177},{"NoteNumber":80,"Velocity":54,"Duration":100671,"SoundDuration":100671,"Delta":580186177},{"NoteNumber":92,"Velocity":63,"Duration":100671,"SoundDuration":100671,"Delta":580186177},{"NoteNumber":56,"Velocity":69,"Duration":103448,"SoundDuration":103448,"Delta":580286848},{"NoteNumber":68,"Velocity":69,"Duration":103448,"SoundDuration":103448,"Delta":580286848},{"NoteNumber":88,"Velocity":52,"Duration":103448,"SoundDuration":103448,"Delta":580390296},{"NoteNumber":79,"Velocity":52,"Duration":103448,"SoundDuration":103448,"Delta":580390296},{"NoteNumber":91,"Velocity":62,"Duration":103448,"SoundDuration":103448,"Delta":580390296},{"NoteNumber":52,"Velocity":65,"Duration":100671,"SoundDuration":100671,"Delta":580493745},{"NoteNumber":64,"Velocity":77,"Duration":100671,"SoundDuration":100671,"Delta":580493745},{"NoteNumber":89,"Velocity":65,"Duration":100327,"SoundDuration":100327,"Delta":580594416},{"NoteNumber":80,"Velocity":55,"Duration":100327,"SoundDuration":100327,"Delta":580594416},{"NoteNumber":92,"Velocity":65,"Duration":100327,"SoundDuration":100327,"Delta":580594416},{"NoteNumber":56,"Velocity":56,"Duration":103448,"SoundDuration":103448,"Delta":580694744},{"NoteNumber":68,"Velocity":67,"Duration":103448,"SoundDuration":103448,"Delta":580694744},{"NoteNumber":88,"Velocity":53,"Duration":102985,"SoundDuration":102985,"Delta":580798192},{"NoteNumber":79,"Velocity":53,"Duration":102985,"SoundDuration":102985,"Delta":580798192},{"NoteNumber":91,"Velocity":63,"Duration":102985,"SoundDuration":102985,"Delta":580798192},{"NoteNumber":48,"Velocity":77,"Duration":99337,"SoundDuration":99337,"Delta":580901177},{"NoteNumber":60,"Velocity":77,"Duration":99337,"SoundDuration":99337,"Delta":580901177},{"NoteNumber":89,"Velocity":56,"Duration":98677,"SoundDuration":98677,"Delta":581000515},{"NoteNumber":80,"Velocity":56,"Duration":98677,"SoundDuration":98677,"Delta":581000515},{"NoteNumber":92,"Velocity":66,"Duration":98677,"SoundDuration":98677,"Delta":581000515},{"NoteNumber":56,"Velocity":72,"Duration":102283,"SoundDuration":102283,"Delta":581099193},{"NoteNumber":68,"Velocity":72,"Duration":102283,"SoundDuration":102283,"Delta":581099193},{"NoteNumber":88,"Velocity":54,"Duration":100000,"SoundDuration":100000,"Delta":581201476},{"NoteNumber":79,"Velocity":54,"Duration":100000,"SoundDuration":100000,"Delta":581201476},{"NoteNumber":91,"Velocity":64,"Duration":100000,"SoundDuration":100000,"Delta":581201476},{"NoteNumber":47,"Velocity":68,"Duration":97402,"SoundDuration":97402,"Delta":581301476},{"NoteNumber":59,"Velocity":80,"Duration":97402,"SoundDuration":97402,"Delta":581301476},{"NoteNumber":89,"Velocity":68,"Duration":97725,"SoundDuration":97725,"Delta":581398879},{"NoteNumber":80,"Velocity":57,"Duration":97725,"SoundDuration":97725,"Delta":581398879},{"NoteNumber":92,"Velocity":68,"Duration":97725,"SoundDuration":97725,"Delta":581398879},{"NoteNumber":50,"Velocity":58,"Duration":101351,"SoundDuration":101351,"Delta":581496604},{"NoteNumber":62,"Velocity":70,"Duration":101351,"SoundDuration":101351,"Delta":581496604},{"NoteNumber":88,"Velocity":55,"Duration":101351,"SoundDuration":101351,"Delta":581597955},{"NoteNumber":79,"Velocity":55,"Duration":101351,"SoundDuration":101351,"Delta":581597955},{"NoteNumber":91,"Velocity":65,"Duration":101351,"SoundDuration":101351,"Delta":581597955},{"NoteNumber":44,"Velocity":79,"Duration":97092,"SoundDuration":97092,"Delta":581699306},{"NoteNumber":56,"Velocity":79,"Duration":97092,"SoundDuration":97092,"Delta":581699306},{"NoteNumber":89,"Velocity":58,"Duration":98684,"SoundDuration":98684,"Delta":581796399},{"NoteNumber":80,"Velocity":58,"Duration":98684,"SoundDuration":98684,"Delta":581796399},{"NoteNumber":92,"Velocity":68,"Duration":98684,"SoundDuration":98684,"Delta":581796399},{"NoteNumber":47,"Velocity":74,"Duration":100671,"SoundDuration":100671,"Delta":581895083},{"NoteNumber":59,"Velocity":74,"Duration":100671,"SoundDuration":100671,"Delta":581895083},{"NoteNumber":88,"Velocity":56,"Duration":100671,"SoundDuration":100671,"Delta":581995754},{"NoteNumber":79,"Velocity":56,"Duration":100671,"SoundDuration":100671,"Delta":581995754},{"NoteNumber":91,"Velocity":66,"Duration":100671,"SoundDuration":100671,"Delta":581995754},{"NoteNumber":41,"Velocity":70,"Duration":96153,"SoundDuration":96153,"Delta":582096425},{"NoteNumber":53,"Velocity":83,"Duration":96153,"SoundDuration":96153,"Delta":582096425},{"NoteNumber":89,"Velocity":70,"Duration":96153,"SoundDuration":96153,"Delta":582192579},{"NoteNumber":80,"Velocity":59,"Duration":96153,"SoundDuration":96153,"Delta":582192579},{"NoteNumber":92,"Velocity":70,"Duration":96153,"SoundDuration":96153,"Delta":582192579},{"NoteNumber":44,"Velocity":60,"Duration":99567,"SoundDuration":99567,"Delta":582288733},{"NoteNumber":56,"Velocity":72,"Duration":99567,"SoundDuration":99567,"Delta":582288733},{"NoteNumber":88,"Velocity":57,"Duration":97402,"SoundDuration":97402,"Delta":582388300},{"NoteNumber":79,"Velocity":57,"Duration":97402,"SoundDuration":97402,"Delta":582388300},{"NoteNumber":91,"Velocity":67,"Duration":97402,"SoundDuration":97402,"Delta":582388300},{"NoteNumber":38,"Velocity":83,"Duration":95541,"SoundDuration":95541,"Delta":582485702},{"NoteNumber":50,"Velocity":83,"Duration":95541,"SoundDuration":95541,"Delta":582485702},{"NoteNumber":89,"Velocity":61,"Duration":95746,"SoundDuration":95746,"Delta":582581244},{"NoteNumber":80,"Velocity":61,"Duration":95746,"SoundDuration":95746,"Delta":582581244},{"NoteNumber":92,"Velocity":72,"Duration":95746,"SoundDuration":95746,"Delta":582581244},{"NoteNumber":41,"Velocity":79,"Duration":100000,"SoundDuration":100000,"Delta":582676991},{"NoteNumber":53,"Velocity":79,"Duration":100000,"SoundDuration":100000,"Delta":582676991},{"NoteNumber":88,"Velocity":60,"Duration":100000,"SoundDuration":100000,"Delta":582776991},{"NoteNumber":79,"Velocity":60,"Duration":100000,"SoundDuration":100000,"Delta":582776991},{"NoteNumber":91,"Velocity":71,"Duration":100000,"SoundDuration":100000,"Delta":582776991},{"NoteNumber":37,"Velocity":76,"Duration":95139,"SoundDuration":95139,"Delta":582876991},{"NoteNumber":49,"Velocity":90,"Duration":95139,"SoundDuration":95139,"Delta":582876991},{"NoteNumber":89,"Velocity":76,"Duration":96153,"SoundDuration":96153,"Delta":582972131},{"NoteNumber":80,"Velocity":64,"Duration":96153,"SoundDuration":96153,"Delta":582972131},{"NoteNumber":92,"Velocity":76,"Duration":96153,"SoundDuration":96153,"Delta":582972131},{"NoteNumber":41,"Velocity":65,"Duration":98684,"SoundDuration":98684,"Delta":583068284},{"NoteNumber":53,"Velocity":79,"Duration":98684,"SoundDuration":98684,"Delta":583068284},{"NoteNumber":88,"Velocity":62,"Duration":98160,"SoundDuration":98160,"Delta":583166969},{"NoteNumber":79,"Velocity":62,"Duration":98160,"SoundDuration":98160,"Delta":583166969},{"NoteNumber":91,"Velocity":74,"Duration":98160,"SoundDuration":98160,"Delta":583166969},{"NoteNumber":35,"Velocity":90,"Duration":104858,"SoundDuration":104858,"Delta":583265129},{"NoteNumber":47,"Velocity":90,"Duration":104858,"SoundDuration":104858,"Delta":583265129},{"NoteNumber":89,"Velocity":66,"Duration":107672,"SoundDuration":107672,"Delta":583369988},{"NoteNumber":80,"Velocity":66,"Duration":107672,"SoundDuration":107672,"Delta":583369988},{"NoteNumber":92,"Velocity":78,"Duration":107672,"SoundDuration":107672,"Delta":583369988},{"NoteNumber":41,"Velocity":85,"Duration":117219,"SoundDuration":117219,"Delta":583477660},{"NoteNumber":53,"Velocity":85,"Duration":117219,"SoundDuration":117219,"Delta":583477660},{"NoteNumber":87,"Velocity":65,"Duration":128398,"SoundDuration":128398,"Delta":583594880},{"NoteNumber":79,"Velocity":65,"Duration":128398,"SoundDuration":128398,"Delta":583594880},{"NoteNumber":91,"Velocity":77,"Duration":128398,"SoundDuration":128398,"Delta":583594880},{"NoteNumber":80,"Velocity":77,"Duration":314685,"SoundDuration":314685,"Delta":583723278},{"NoteNumber":86,"Velocity":77,"Duration":314685,"SoundDuration":314685,"Delta":583723278},{"NoteNumber":92,"Velocity":91,"Duration":314685,"SoundDuration":314685,"Delta":583723278},{"NoteNumber":34,"Velocity":72,"Duration":209789,"SoundDuration":209789,"Delta":583723278},{"NoteNumber":46,"Velocity":85,"Duration":209789,"SoundDuration":209789,"Delta":583723278},{"NoteNumber":65,"Velocity":72,"Duration":209789,"SoundDuration":209789,"Delta":583933068},{"NoteNumber":62,"Velocity":61,"Duration":209789,"SoundDuration":209789,"Delta":583933068},{"NoteNumber":56,"Velocity":61,"Duration":209789,"SoundDuration":209789,"Delta":583933068},{"NoteNumber":94,"Velocity":78,"Duration":52447,"SoundDuration":52447,"Delta":584037963},{"NoteNumber":92,"Velocity":78,"Duration":52447,"SoundDuration":52447,"Delta":584090410},{"NoteNumber":79,"Velocity":74,"Duration":107142,"SoundDuration":107142,"Delta":584142858},{"NoteNumber":91,"Velocity":88,"Duration":107142,"SoundDuration":107142,"Delta":584142858},{"NoteNumber":46,"Velocity":66,"Duration":107142,"SoundDuration":107142,"Delta":584142858},{"NoteNumber":58,"Velocity":78,"Duration":107142,"SoundDuration":107142,"Delta":584142858},{"NoteNumber":77,"Velocity":69,"Duration":112782,"SoundDuration":112782,"Delta":584357143},{"NoteNumber":89,"Velocity":82,"Duration":112782,"SoundDuration":112782,"Delta":584357143},{"NoteNumber":65,"Velocity":73,"Duration":112782,"SoundDuration":112782,"Delta":584357143},{"NoteNumber":62,"Velocity":61,"Duration":112782,"SoundDuration":112782,"Delta":584357143},{"NoteNumber":56,"Velocity":61,"Duration":112782,"SoundDuration":112782,"Delta":584357143},{"NoteNumber":82,"Velocity":75,"Duration":107913,"SoundDuration":107913,"Delta":584582707},{"NoteNumber":94,"Velocity":90,"Duration":107913,"SoundDuration":107913,"Delta":584582707},{"NoteNumber":34,"Velocity":69,"Duration":107913,"SoundDuration":107913,"Delta":584582707},{"NoteNumber":46,"Velocity":82,"Duration":107913,"SoundDuration":107913,"Delta":584582707},{"NoteNumber":74,"Velocity":68,"Duration":107913,"SoundDuration":107913,"Delta":584798535},{"NoteNumber":86,"Velocity":81,"Duration":107913,"SoundDuration":107913,"Delta":584798535},{"NoteNumber":67,"Velocity":72,"Duration":107913,"SoundDuration":107913,"Delta":584798535},{"NoteNumber":63,"Velocity":61,"Duration":107913,"SoundDuration":107913,"Delta":584798535},{"NoteNumber":55,"Velocity":61,"Duration":107913,"SoundDuration":107913,"Delta":584798535},{"NoteNumber":75,"Velocity":74,"Duration":431654,"SoundDuration":431654,"Delta":585014362},{"NoteNumber":87,"Velocity":88,"Duration":431654,"SoundDuration":431654,"Delta":585014362},{"NoteNumber":46,"Velocity":68,"Duration":215827,"SoundDuration":215827,"Delta":585014362},{"NoteNumber":58,"Velocity":80,"Duration":215827,"SoundDuration":215827,"Delta":585014362},{"NoteNumber":67,"Velocity":74,"Duration":215827,"SoundDuration":215827,"Delta":585230190},{"NoteNumber":63,"Velocity":62,"Duration":215827,"SoundDuration":215827,"Delta":585230190},{"NoteNumber":55,"Velocity":62,"Duration":215827,"SoundDuration":215827,"Delta":585230190},{"NoteNumber":80,"Velocity":77,"Duration":314685,"SoundDuration":314685,"Delta":585446017},{"NoteNumber":86,"Velocity":77,"Duration":314685,"SoundDuration":314685,"Delta":585446017},{"NoteNumber":92,"Velocity":91,"Duration":314685,"SoundDuration":314685,"Delta":585446017},{"NoteNumber":34,"Velocity":72,"Duration":209789,"SoundDuration":209789,"Delta":585446017},{"NoteNumber":46,"Velocity":85,"Duration":209789,"SoundDuration":209789,"Delta":585446017},{"NoteNumber":65,"Velocity":72,"Duration":209789,"SoundDuration":209789,"Delta":585655807},{"NoteNumber":62,"Velocity":61,"Duration":209789,"SoundDuration":209789,"Delta":585655807},{"NoteNumber":56,"Velocity":61,"Duration":209789,"SoundDuration":209789,"Delta":585655807},{"NoteNumber":94,"Velocity":78,"Duration":52447,"SoundDuration":52447,"Delta":585760702},{"NoteNumber":92,"Velocity":78,"Duration":52447,"SoundDuration":52447,"Delta":585813150},{"NoteNumber":79,"Velocity":74,"Duration":107142,"SoundDuration":107142,"Delta":585865597},{"NoteNumber":91,"Velocity":88,"Duration":107142,"SoundDuration":107142,"Delta":585865597},{"NoteNumber":46,"Velocity":66,"Duration":107142,"SoundDuration":107142,"Delta":585865597},{"NoteNumber":58,"Velocity":78,"Duration":107142,"SoundDuration":107142,"Delta":585865597},{"NoteNumber":77,"Velocity":69,"Duration":112782,"SoundDuration":112782,"Delta":586079883},{"NoteNumber":89,"Velocity":82,"Duration":112782,"SoundDuration":112782,"Delta":586079883},{"NoteNumber":65,"Velocity":73,"Duration":112782,"SoundDuration":112782,"Delta":586079883},{"NoteNumber":62,"Velocity":61,"Duration":112782,"SoundDuration":112782,"Delta":586079883},{"NoteNumber":56,"Velocity":61,"Duration":112782,"SoundDuration":112782,"Delta":586079883},{"NoteNumber":82,"Velocity":75,"Duration":107913,"SoundDuration":107913,"Delta":586305447},{"NoteNumber":94,"Velocity":90,"Duration":107913,"SoundDuration":107913,"Delta":586305447},{"NoteNumber":34,"Velocity":69,"Duration":107913,"SoundDuration":107913,"Delta":586305447},{"NoteNumber":46,"Velocity":82,"Duration":107913,"SoundDuration":107913,"Delta":586305447},{"NoteNumber":74,"Velocity":68,"Duration":107913,"SoundDuration":107913,"Delta":586521274},{"NoteNumber":86,"Velocity":81,"Duration":107913,"SoundDuration":107913,"Delta":586521274},{"NoteNumber":67,"Velocity":72,"Duration":107913,"SoundDuration":107913,"Delta":586521274},{"NoteNumber":63,"Velocity":61,"Duration":107913,"SoundDuration":107913,"Delta":586521274},{"NoteNumber":55,"Velocity":61,"Duration":107913,"SoundDuration":107913,"Delta":586521274},{"NoteNumber":75,"Velocity":74,"Duration":465827,"SoundDuration":465827,"Delta":586737102},{"NoteNumber":87,"Velocity":88,"Duration":465827,"SoundDuration":465827,"Delta":586737102},{"NoteNumber":46,"Velocity":68,"Duration":215827,"SoundDuration":215827,"Delta":586737102},{"NoteNumber":58,"Velocity":80,"Duration":215827,"SoundDuration":215827,"Delta":586737102},{"NoteNumber":67,"Velocity":74,"Duration":250000,"SoundDuration":250000,"Delta":586952929},{"NoteNumber":63,"Velocity":62,"Duration":250000,"SoundDuration":250000,"Delta":586952929},{"NoteNumber":55,"Velocity":62,"Duration":250000,"SoundDuration":250000,"Delta":586952929},{"NoteNumber":36,"Velocity":71,"Duration":120967,"SoundDuration":120967,"Delta":587202929},{"NoteNumber":48,"Velocity":84,"Duration":120967,"SoundDuration":120967,"Delta":587202929},{"NoteNumber":53,"Velocity":61,"Duration":131578,"SoundDuration":131578,"Delta":587444865},{"NoteNumber":57,"Velocity":61,"Duration":131578,"SoundDuration":131578,"Delta":587444865},{"NoteNumber":63,"Velocity":72,"Duration":131578,"SoundDuration":131578,"Delta":587444865},{"NoteNumber":65,"Velocity":72,"Duration":131578,"SoundDuration":131578,"Delta":587444865},{"NoteNumber":35,"Velocity":66,"Duration":131578,"SoundDuration":131578,"Delta":587444865},{"NoteNumber":47,"Velocity":78,"Duration":131578,"SoundDuration":131578,"Delta":587444865},{"NoteNumber":58,"Velocity":63,"Duration":126050,"SoundDuration":126050,"Delta":587708023},{"NoteNumber":53,"Velocity":63,"Duration":126050,"SoundDuration":126050,"Delta":587708023},{"NoteNumber":62,"Velocity":75,"Duration":126050,"SoundDuration":126050,"Delta":587708023},{"NoteNumber":65,"Velocity":75,"Duration":126050,"SoundDuration":126050,"Delta":587708023},{"NoteNumber":34,"Velocity":70,"Duration":126050,"SoundDuration":126050,"Delta":587708023},{"NoteNumber":46,"Velocity":83,"Duration":126050,"SoundDuration":126050,"Delta":587708023},{"NoteNumber":56,"Velocity":77,"Duration":409790,"SoundDuration":409790,"Delta":588212225},{"NoteNumber":68,"Velocity":91,"Duration":409790,"SoundDuration":409790,"Delta":588212225},{"NoteNumber":86,"Velocity":77,"Duration":209789,"SoundDuration":209789,"Delta":588412225},{"NoteNumber":82,"Velocity":77,"Duration":209789,"SoundDuration":209789,"Delta":588412225},{"NoteNumber":74,"Velocity":64,"Duration":209789,"SoundDuration":209789,"Delta":588412225},{"NoteNumber":77,"Velocity":64,"Duration":209789,"SoundDuration":209789,"Delta":588412225},{"NoteNumber":55,"Velocity":74,"Duration":101351,"SoundDuration":101351,"Delta":588622015},{"NoteNumber":67,"Velocity":88,"Duration":101351,"SoundDuration":101351,"Delta":588622015},{"NoteNumber":98,"Velocity":77,"Duration":112782,"SoundDuration":112782,"Delta":588824717},{"NoteNumber":94,"Velocity":77,"Duration":112782,"SoundDuration":112782,"Delta":588824717},{"NoteNumber":89,"Velocity":64,"Duration":112782,"SoundDuration":112782,"Delta":588824717},{"NoteNumber":86,"Velocity":64,"Duration":112782,"SoundDuration":112782,"Delta":588824717},{"NoteNumber":53,"Velocity":69,"Duration":112782,"SoundDuration":112782,"Delta":588824717},{"NoteNumber":65,"Velocity":82,"Duration":112782,"SoundDuration":112782,"Delta":588824717},{"NoteNumber":58,"Velocity":75,"Duration":102739,"SoundDuration":102739,"Delta":589050281},{"NoteNumber":70,"Velocity":90,"Duration":102739,"SoundDuration":102739,"Delta":589050281},{"NoteNumber":91,"Velocity":77,"Duration":104895,"SoundDuration":104895,"Delta":589255761},{"NoteNumber":87,"Velocity":77,"Duration":104895,"SoundDuration":104895,"Delta":589255761},{"NoteNumber":79,"Velocity":64,"Duration":104895,"SoundDuration":104895,"Delta":589255761},{"NoteNumber":82,"Velocity":64,"Duration":104895,"SoundDuration":104895,"Delta":589255761},{"NoteNumber":50,"Velocity":68,"Duration":104895,"SoundDuration":104895,"Delta":589255761},{"NoteNumber":62,"Velocity":81,"Duration":104895,"SoundDuration":104895,"Delta":589255761},{"NoteNumber":51,"Velocity":74,"Duration":419579,"SoundDuration":419579,"Delta":589465551},{"NoteNumber":63,"Velocity":88,"Duration":419579,"SoundDuration":419579,"Delta":589465551},{"NoteNumber":103,"Velocity":77,"Duration":209789,"SoundDuration":209789,"Delta":589675341},{"NoteNumber":99,"Velocity":77,"Duration":209789,"SoundDuration":209789,"Delta":589675341},{"NoteNumber":94,"Velocity":64,"Duration":209789,"SoundDuration":209789,"Delta":589675341},{"NoteNumber":91,"Velocity":64,"Duration":209789,"SoundDuration":209789,"Delta":589675341},{"NoteNumber":44,"Velocity":77,"Duration":409675,"SoundDuration":409675,"Delta":589885131},{"NoteNumber":56,"Velocity":91,"Duration":409675,"SoundDuration":409675,"Delta":589885131},{"NoteNumber":74,"Velocity":77,"Duration":208333,"SoundDuration":208333,"Delta":590086473},{"NoteNumber":70,"Velocity":77,"Duration":208333,"SoundDuration":208333,"Delta":590086473},{"NoteNumber":62,"Velocity":64,"Duration":208333,"SoundDuration":208333,"Delta":590086473},{"NoteNumber":65,"Velocity":64,"Duration":208333,"SoundDuration":208333,"Delta":590086473},{"NoteNumber":43,"Velocity":74,"Duration":102739,"SoundDuration":102739,"Delta":590294807},{"NoteNumber":55,"Velocity":88,"Duration":102739,"SoundDuration":102739,"Delta":590294807},{"NoteNumber":86,"Velocity":77,"Duration":112782,"SoundDuration":112782,"Delta":590500286},{"NoteNumber":82,"Velocity":77,"Duration":112782,"SoundDuration":112782,"Delta":590500286},{"NoteNumber":77,"Velocity":64,"Duration":112782,"SoundDuration":112782,"Delta":590500286},{"NoteNumber":74,"Velocity":64,"Duration":112782,"SoundDuration":112782,"Delta":590500286},{"NoteNumber":41,"Velocity":69,"Duration":112782,"SoundDuration":112782,"Delta":590500286},{"NoteNumber":53,"Velocity":82,"Duration":112782,"SoundDuration":112782,"Delta":590500286},{"NoteNumber":46,"Velocity":75,"Duration":103448,"SoundDuration":103448,"Delta":590725850},{"NoteNumber":58,"Velocity":90,"Duration":103448,"SoundDuration":103448,"Delta":590725850},{"NoteNumber":79,"Velocity":77,"Duration":104895,"SoundDuration":104895,"Delta":590932747},{"NoteNumber":75,"Velocity":77,"Duration":104895,"SoundDuration":104895,"Delta":590932747},{"NoteNumber":67,"Velocity":64,"Duration":104895,"SoundDuration":104895,"Delta":590932747},{"NoteNumber":70,"Velocity":64,"Duration":104895,"SoundDuration":104895,"Delta":590932747},{"NoteNumber":38,"Velocity":68,"Duration":104895,"SoundDuration":104895,"Delta":590932747},{"NoteNumber":50,"Velocity":81,"Duration":104895,"SoundDuration":104895,"Delta":590932747},{"NoteNumber":39,"Velocity":74,"Duration":457723,"SoundDuration":457723,"Delta":591142537},{"NoteNumber":51,"Velocity":88,"Duration":457723,"SoundDuration":457723,"Delta":591142537},{"NoteNumber":91,"Velocity":77,"Duration":247933,"SoundDuration":247933,"Delta":591352327},{"NoteNumber":87,"Velocity":77,"Duration":247933,"SoundDuration":247933,"Delta":591352327},{"NoteNumber":82,"Velocity":64,"Duration":247933,"SoundDuration":247933,"Delta":591352327},{"NoteNumber":79,"Velocity":64,"Duration":247933,"SoundDuration":247933,"Delta":591352327},{"NoteNumber":36,"Velocity":71,"Duration":121951,"SoundDuration":121951,"Delta":591600261},{"NoteNumber":48,"Velocity":84,"Duration":121951,"SoundDuration":121951,"Delta":591600261},{"NoteNumber":53,"Velocity":61,"Duration":131578,"SoundDuration":131578,"Delta":591844163},{"NoteNumber":57,"Velocity":61,"Duration":131578,"SoundDuration":131578,"Delta":591844163},{"NoteNumber":63,"Velocity":72,"Duration":131578,"SoundDuration":131578,"Delta":591844163},{"NoteNumber":65,"Velocity":72,"Duration":131578,"SoundDuration":131578,"Delta":591844163},{"NoteNumber":35,"Velocity":66,"Duration":131578,"SoundDuration":131578,"Delta":591844163},{"NoteNumber":47,"Velocity":78,"Duration":131578,"SoundDuration":131578,"Delta":591844163},{"NoteNumber":53,"Velocity":63,"Duration":126050,"SoundDuration":126050,"Delta":592107321},{"NoteNumber":62,"Velocity":75,"Duration":126050,"SoundDuration":126050,"Delta":592107321},{"NoteNumber":65,"Velocity":75,"Duration":126050,"SoundDuration":126050,"Delta":592107321},{"NoteNumber":34,"Velocity":70,"Duration":126050,"SoundDuration":126050,"Delta":592107321},{"NoteNumber":46,"Velocity":83,"Duration":126050,"SoundDuration":126050,"Delta":592107321},{"NoteNumber":58,"Velocity":63,"Duration":126050,"SoundDuration":126050,"Delta":592111523},{"NoteNumber":85,"Velocity":77,"Duration":434783,"SoundDuration":434783,"Delta":592611523},{"NoteNumber":77,"Velocity":77,"Duration":434783,"SoundDuration":434783,"Delta":592611523},{"NoteNumber":82,"Velocity":77,"Duration":434783,"SoundDuration":434783,"Delta":592611523},{"NoteNumber":37,"Velocity":72,"Duration":217391,"SoundDuration":217391,"Delta":592611523},{"NoteNumber":49,"Velocity":85,"Duration":217391,"SoundDuration":217391,"Delta":592611523},{"NoteNumber":89,"Velocity":91,"Duration":434744,"SoundDuration":434744,"Delta":592614241},{"NoteNumber":65,"Velocity":72,"Duration":217391,"SoundDuration":217391,"Delta":592828915},{"NoteNumber":61,"Velocity":61,"Duration":217391,"SoundDuration":217391,"Delta":592828915},{"NoteNumber":58,"Velocity":61,"Duration":217391,"SoundDuration":217391,"Delta":592828915},{"NoteNumber":76,"Velocity":74,"Duration":107142,"SoundDuration":107142,"Delta":593046306},{"NoteNumber":88,"Velocity":88,"Duration":107142,"SoundDuration":107142,"Delta":593046306},{"NoteNumber":46,"Velocity":66,"Duration":107142,"SoundDuration":107142,"Delta":593046306},{"NoteNumber":58,"Velocity":78,"Duration":107142,"SoundDuration":107142,"Delta":593046306},{"NoteNumber":77,"Velocity":69,"Duration":112782,"SoundDuration":112782,"Delta":593260592},{"NoteNumber":89,"Velocity":82,"Duration":112782,"SoundDuration":112782,"Delta":593260592},{"NoteNumber":65,"Velocity":73,"Duration":112782,"SoundDuration":112782,"Delta":593260592},{"NoteNumber":61,"Velocity":61,"Duration":112782,"SoundDuration":112782,"Delta":593260592},{"NoteNumber":58,"Velocity":61,"Duration":112782,"SoundDuration":112782,"Delta":593260592},{"NoteNumber":91,"Velocity":91,"Duration":437955,"SoundDuration":437955,"Delta":593486156},{"NoteNumber":79,"Velocity":77,"Duration":437955,"SoundDuration":437955,"Delta":593486156},{"NoteNumber":82,"Velocity":77,"Duration":437955,"SoundDuration":437955,"Delta":593486156},{"NoteNumber":39,"Velocity":72,"Duration":218977,"SoundDuration":218977,"Delta":593486156},{"NoteNumber":51,"Velocity":85,"Duration":218977,"SoundDuration":218977,"Delta":593486156},{"NoteNumber":67,"Velocity":72,"Duration":164233,"SoundDuration":164233,"Delta":593705134},{"NoteNumber":63,"Velocity":61,"Duration":164233,"SoundDuration":164233,"Delta":593705134},{"NoteNumber":58,"Velocity":61,"Duration":164233,"SoundDuration":164233,"Delta":593705134},{"NoteNumber":82,"Velocity":74,"Duration":476459,"SoundDuration":476459,"Delta":593924112},{"NoteNumber":77,"Velocity":74,"Duration":476459,"SoundDuration":476459,"Delta":593924112},{"NoteNumber":89,"Velocity":88,"Duration":476459,"SoundDuration":476459,"Delta":593924112},{"NoteNumber":37,"Velocity":72,"Duration":222221,"SoundDuration":222221,"Delta":593924112},{"NoteNumber":49,"Velocity":85,"Duration":222221,"SoundDuration":222221,"Delta":593924112},{"NoteNumber":58,"Velocity":61,"Duration":190678,"SoundDuration":190678,"Delta":594146334},{"NoteNumber":65,"Velocity":72,"Duration":190678,"SoundDuration":190678,"Delta":594146334},{"NoteNumber":61,"Velocity":61,"Duration":190678,"SoundDuration":190678,"Delta":594146334},{"NoteNumber":36,"Velocity":71,"Duration":119047,"SoundDuration":119047,"Delta":594400571},{"NoteNumber":48,"Velocity":84,"Duration":119047,"SoundDuration":119047,"Delta":594400571},{"NoteNumber":53,"Velocity":61,"Duration":131578,"SoundDuration":131578,"Delta":594638666},{"NoteNumber":57,"Velocity":61,"Duration":131578,"SoundDuration":131578,"Delta":594638666},{"NoteNumber":63,"Velocity":72,"Duration":131578,"SoundDuration":131578,"Delta":594638666},{"NoteNumber":65,"Velocity":72,"Duration":131578,"SoundDuration":131578,"Delta":594638666},{"NoteNumber":35,"Velocity":66,"Duration":131578,"SoundDuration":131578,"Delta":594638666},{"NoteNumber":47,"Velocity":78,"Duration":131578,"SoundDuration":131578,"Delta":594638666},{"NoteNumber":53,"Velocity":63,"Duration":128205,"SoundDuration":128205,"Delta":594901824},{"NoteNumber":62,"Velocity":75,"Duration":128205,"SoundDuration":128205,"Delta":594901824},{"NoteNumber":65,"Velocity":75,"Duration":128205,"SoundDuration":128205,"Delta":594901824},{"NoteNumber":34,"Velocity":70,"Duration":128205,"SoundDuration":128205,"Delta":594901824},{"NoteNumber":46,"Velocity":83,"Duration":128205,"SoundDuration":128205,"Delta":594901824},{"NoteNumber":58,"Velocity":63,"Duration":128205,"SoundDuration":128205,"Delta":594906098},{"NoteNumber":82,"Velocity":68,"Duration":152671,"SoundDuration":152671,"Delta":595414645},{"NoteNumber":79,"Velocity":68,"Duration":152671,"SoundDuration":152671,"Delta":595414645},{"NoteNumber":91,"Velocity":81,"Duration":152671,"SoundDuration":152671,"Delta":595414645},{"NoteNumber":37,"Velocity":72,"Duration":227298,"SoundDuration":227298,"Delta":595414645},{"NoteNumber":49,"Velocity":85,"Duration":227298,"SoundDuration":227298,"Delta":595414645},{"NoteNumber":77,"Velocity":57,"Duration":149253,"SoundDuration":149253,"Delta":595567317},{"NoteNumber":89,"Velocity":68,"Duration":149253,"SoundDuration":149253,"Delta":595567317},{"NoteNumber":65,"Velocity":72,"Duration":223880,"SoundDuration":223880,"Delta":595641944},{"NoteNumber":61,"Velocity":61,"Duration":223880,"SoundDuration":223880,"Delta":595641944},{"NoteNumber":58,"Velocity":61,"Duration":223880,"SoundDuration":223880,"Delta":595641944},{"NoteNumber":76,"Velocity":57,"Duration":149253,"SoundDuration":149253,"Delta":595716571},{"NoteNumber":88,"Velocity":68,"Duration":149253,"SoundDuration":149253,"Delta":595716571},{"NoteNumber":75,"Velocity":63,"Duration":142857,"SoundDuration":142857,"Delta":595865824},{"NoteNumber":87,"Velocity":75,"Duration":142857,"SoundDuration":142857,"Delta":595865824},{"NoteNumber":37,"Velocity":66,"Duration":107142,"SoundDuration":107142,"Delta":595865824},{"NoteNumber":49,"Velocity":78,"Duration":107142,"SoundDuration":107142,"Delta":595865824},{"NoteNumber":74,"Velocity":59,"Duration":148351,"SoundDuration":148351,"Delta":596008681},{"NoteNumber":86,"Velocity":70,"Duration":148351,"SoundDuration":148351,"Delta":596008681},{"NoteNumber":65,"Velocity":73,"Duration":115384,"SoundDuration":115384,"Delta":596080110},{"NoteNumber":61,"Velocity":61,"Duration":115384,"SoundDuration":115384,"Delta":596080110},{"NoteNumber":58,"Velocity":61,"Duration":115384,"SoundDuration":115384,"Delta":596080110},{"NoteNumber":73,"Velocity":59,"Duration":153846,"SoundDuration":153846,"Delta":596157033},{"NoteNumber":85,"Velocity":70,"Duration":153846,"SoundDuration":153846,"Delta":596157033},{"NoteNumber":72,"Velocity":71,"Duration":112782,"SoundDuration":112782,"Delta":596310879},{"NoteNumber":84,"Velocity":84,"Duration":112782,"SoundDuration":112782,"Delta":596310879},{"NoteNumber":36,"Velocity":72,"Duration":112782,"SoundDuration":112782,"Delta":596310879},{"NoteNumber":48,"Velocity":85,"Duration":112782,"SoundDuration":112782,"Delta":596310879},{"NoteNumber":84,"Velocity":64,"Duration":112782,"SoundDuration":112782,"Delta":596536443},{"NoteNumber":96,"Velocity":77,"Duration":112782,"SoundDuration":112782,"Delta":596536443},{"NoteNumber":64,"Velocity":72,"Duration":112782,"SoundDuration":112782,"Delta":596536443},{"NoteNumber":58,"Velocity":61,"Duration":112782,"SoundDuration":112782,"Delta":596536443},{"NoteNumber":55,"Velocity":61,"Duration":112782,"SoundDuration":112782,"Delta":596536443},{"NoteNumber":72,"Velocity":70,"Duration":112781,"SoundDuration":112781,"Delta":596762007},{"NoteNumber":84,"Velocity":83,"Duration":112781,"SoundDuration":112781,"Delta":596762007},{"NoteNumber":53,"Velocity":78,"Duration":112781,"SoundDuration":112781,"Delta":596762007},{"NoteNumber":41,"Velocity":66,"Duration":112781,"SoundDuration":112781,"Delta":596762007},{"NoteNumber":84,"Velocity":64,"Duration":112782,"SoundDuration":112782,"Delta":596987571},{"NoteNumber":96,"Velocity":77,"Duration":112782,"SoundDuration":112782,"Delta":596987571},{"NoteNumber":65,"Velocity":73,"Duration":112782,"SoundDuration":112782,"Delta":596987571},{"NoteNumber":63,"Velocity":61,"Duration":112782,"SoundDuration":112782,"Delta":596987571},{"NoteNumber":57,"Velocity":61,"Duration":112782,"SoundDuration":112782,"Delta":596987571},{"NoteNumber":36,"Velocity":71,"Duration":120967,"SoundDuration":120967,"Delta":597213135},{"NoteNumber":48,"Velocity":84,"Duration":120967,"SoundDuration":120967,"Delta":597213135},{"NoteNumber":53,"Velocity":61,"Duration":126050,"SoundDuration":126050,"Delta":597455070},{"NoteNumber":57,"Velocity":61,"Duration":126050,"SoundDuration":126050,"Delta":597455070},{"NoteNumber":63,"Velocity":72,"Duration":126050,"SoundDuration":126050,"Delta":597455070},{"NoteNumber":65,"Velocity":72,"Duration":126050,"SoundDuration":126050,"Delta":597455070},{"NoteNumber":35,"Velocity":66,"Duration":126050,"SoundDuration":126050,"Delta":597455070},{"NoteNumber":47,"Velocity":78,"Duration":126050,"SoundDuration":126050,"Delta":597455070},{"NoteNumber":53,"Velocity":63,"Duration":126050,"SoundDuration":126050,"Delta":597707171},{"NoteNumber":62,"Velocity":75,"Duration":126050,"SoundDuration":126050,"Delta":597707171},{"NoteNumber":65,"Velocity":75,"Duration":126050,"SoundDuration":126050,"Delta":597707171},{"NoteNumber":34,"Velocity":70,"Duration":126050,"SoundDuration":126050,"Delta":597707171},{"NoteNumber":46,"Velocity":83,"Duration":126050,"SoundDuration":126050,"Delta":597707171},{"NoteNumber":58,"Velocity":63,"Duration":126050,"SoundDuration":126050,"Delta":597711373},{"NoteNumber":65,"Velocity":91,"Duration":434783,"SoundDuration":434783,"Delta":598211373},{"NoteNumber":61,"Velocity":77,"Duration":434783,"SoundDuration":434783,"Delta":598211373},{"NoteNumber":53,"Velocity":77,"Duration":434783,"SoundDuration":434783,"Delta":598211373},{"NoteNumber":58,"Velocity":77,"Duration":434783,"SoundDuration":434783,"Delta":598211373},{"NoteNumber":82,"Velocity":82,"Duration":108695,"SoundDuration":108695,"Delta":598428765},{"NoteNumber":73,"Velocity":69,"Duration":108695,"SoundDuration":108695,"Delta":598428765},{"NoteNumber":70,"Velocity":69,"Duration":108695,"SoundDuration":108695,"Delta":598428765},{"NoteNumber":52,"Velocity":74,"Duration":107142,"SoundDuration":107142,"Delta":598646156},{"NoteNumber":64,"Velocity":88,"Duration":107142,"SoundDuration":107142,"Delta":598646156},{"NoteNumber":94,"Velocity":81,"Duration":112782,"SoundDuration":112782,"Delta":598860442},{"NoteNumber":85,"Velocity":68,"Duration":112782,"SoundDuration":112782,"Delta":598860442},{"NoteNumber":82,"Velocity":68,"Duration":112782,"SoundDuration":112782,"Delta":598860442},{"NoteNumber":53,"Velocity":69,"Duration":112782,"SoundDuration":112782,"Delta":598860442},{"NoteNumber":65,"Velocity":82,"Duration":112782,"SoundDuration":112782,"Delta":598860442},{"NoteNumber":63,"Velocity":77,"Duration":437955,"SoundDuration":437955,"Delta":599086006},{"NoteNumber":67,"Velocity":91,"Duration":437955,"SoundDuration":437955,"Delta":599086006},{"NoteNumber":55,"Velocity":77,"Duration":437955,"SoundDuration":437955,"Delta":599086006},{"NoteNumber":58,"Velocity":77,"Duration":437955,"SoundDuration":437955,"Delta":599086006},{"NoteNumber":82,"Velocity":82,"Duration":109489,"SoundDuration":109489,"Delta":599304984},{"NoteNumber":75,"Velocity":69,"Duration":109489,"SoundDuration":109489,"Delta":599304984},{"NoteNumber":70,"Velocity":69,"Duration":109489,"SoundDuration":109489,"Delta":599304984},{"NoteNumber":61,"Velocity":74,"Duration":462221,"SoundDuration":462221,"Delta":599523962},{"NoteNumber":53,"Velocity":74,"Duration":462221,"SoundDuration":462221,"Delta":599523962},{"NoteNumber":58,"Velocity":74,"Duration":462221,"SoundDuration":462221,"Delta":599523962},{"NoteNumber":65,"Velocity":88,"Duration":462221,"SoundDuration":462221,"Delta":599523962},{"NoteNumber":94,"Velocity":81,"Duration":120000,"SoundDuration":120000,"Delta":599746184},{"NoteNumber":85,"Velocity":68,"Duration":120000,"SoundDuration":120000,"Delta":599746184},{"NoteNumber":82,"Velocity":68,"Duration":120000,"SoundDuration":120000,"Delta":599746184},{"NoteNumber":36,"Velocity":71,"Duration":125000,"SoundDuration":125000,"Delta":599986184},{"NoteNumber":48,"Velocity":84,"Duration":125000,"SoundDuration":125000,"Delta":599986184},{"NoteNumber":53,"Velocity":61,"Duration":130434,"SoundDuration":130434,"Delta":600236184},{"NoteNumber":57,"Velocity":61,"Duration":130434,"SoundDuration":130434,"Delta":600236184},{"NoteNumber":63,"Velocity":72,"Duration":130434,"SoundDuration":130434,"Delta":600236184},{"NoteNumber":65,"Velocity":72,"Duration":130434,"SoundDuration":130434,"Delta":600236184},{"NoteNumber":35,"Velocity":66,"Duration":130434,"SoundDuration":130434,"Delta":600236184},{"NoteNumber":47,"Velocity":78,"Duration":130434,"SoundDuration":130434,"Delta":600236184},{"NoteNumber":53,"Velocity":63,"Duration":130434,"SoundDuration":130434,"Delta":600497053},{"NoteNumber":62,"Velocity":75,"Duration":130434,"SoundDuration":130434,"Delta":600497053},{"NoteNumber":65,"Velocity":75,"Duration":130434,"SoundDuration":130434,"Delta":600497053},{"NoteNumber":34,"Velocity":70,"Duration":130434,"SoundDuration":130434,"Delta":600497053},{"NoteNumber":46,"Velocity":83,"Duration":130434,"SoundDuration":130434,"Delta":600497053},{"NoteNumber":58,"Velocity":63,"Duration":130434,"SoundDuration":130434,"Delta":600501401},{"NoteNumber":55,"Velocity":68,"Duration":156250,"SoundDuration":156250,"Delta":601018792},{"NoteNumber":67,"Velocity":81,"Duration":156250,"SoundDuration":156250,"Delta":601018792},{"NoteNumber":53,"Velocity":57,"Duration":149253,"SoundDuration":149253,"Delta":601175042},{"NoteNumber":65,"Velocity":68,"Duration":149253,"SoundDuration":149253,"Delta":601175042},{"NoteNumber":73,"Velocity":69,"Duration":111940,"SoundDuration":111940,"Delta":601249669},{"NoteNumber":70,"Velocity":69,"Duration":111940,"SoundDuration":111940,"Delta":601249669},{"NoteNumber":77,"Velocity":69,"Duration":111940,"SoundDuration":111940,"Delta":601249669},{"NoteNumber":82,"Velocity":82,"Duration":111940,"SoundDuration":111940,"Delta":601249669},{"NoteNumber":52,"Velocity":57,"Duration":149253,"SoundDuration":149253,"Delta":601324296},{"NoteNumber":64,"Velocity":68,"Duration":149253,"SoundDuration":149253,"Delta":601324296},{"NoteNumber":51,"Velocity":63,"Duration":142857,"SoundDuration":142857,"Delta":601473550},{"NoteNumber":63,"Velocity":75,"Duration":142857,"SoundDuration":142857,"Delta":601473550},{"NoteNumber":50,"Velocity":59,"Duration":148351,"SoundDuration":148351,"Delta":601616407},{"NoteNumber":62,"Velocity":70,"Duration":148351,"SoundDuration":148351,"Delta":601616407},{"NoteNumber":82,"Velocity":68,"Duration":115384,"SoundDuration":115384,"Delta":601687835},{"NoteNumber":89,"Velocity":68,"Duration":115384,"SoundDuration":115384,"Delta":601687835},{"NoteNumber":85,"Velocity":68,"Duration":115384,"SoundDuration":115384,"Delta":601687835},{"NoteNumber":94,"Velocity":81,"Duration":115384,"SoundDuration":115384,"Delta":601687835},{"NoteNumber":49,"Velocity":59,"Duration":153846,"SoundDuration":153846,"Delta":601764758},{"NoteNumber":61,"Velocity":70,"Duration":153846,"SoundDuration":153846,"Delta":601764758},{"NoteNumber":55,"Velocity":77,"Duration":437955,"SoundDuration":437955,"Delta":601918604},{"NoteNumber":60,"Velocity":91,"Duration":437955,"SoundDuration":437955,"Delta":601918604},{"NoteNumber":48,"Velocity":77,"Duration":437955,"SoundDuration":437955,"Delta":601918604},{"NoteNumber":52,"Velocity":77,"Duration":437955,"SoundDuration":437955,"Delta":601918604},{"NoteNumber":79,"Velocity":69,"Duration":109489,"SoundDuration":109489,"Delta":602137582},{"NoteNumber":84,"Velocity":82,"Duration":109489,"SoundDuration":109489,"Delta":602137582},{"NoteNumber":76,"Velocity":69,"Duration":109489,"SoundDuration":109489,"Delta":602137582},{"NoteNumber":72,"Velocity":69,"Duration":109489,"SoundDuration":109489,"Delta":602137582},{"NoteNumber":48,"Velocity":74,"Duration":476459,"SoundDuration":476459,"Delta":602356560},{"NoteNumber":41,"Velocity":74,"Duration":476459,"SoundDuration":476459,"Delta":602356560},{"NoteNumber":45,"Velocity":74,"Duration":476459,"SoundDuration":476459,"Delta":602356560},{"NoteNumber":53,"Velocity":88,"Duration":476459,"SoundDuration":476459,"Delta":602356560},{"NoteNumber":96,"Velocity":68,"Duration":127118,"SoundDuration":127118,"Delta":602578782},{"NoteNumber":101,"Velocity":81,"Duration":127118,"SoundDuration":127118,"Delta":602578782},{"NoteNumber":93,"Velocity":68,"Duration":127118,"SoundDuration":127118,"Delta":602578782},{"NoteNumber":89,"Velocity":68,"Duration":127118,"SoundDuration":127118,"Delta":602578782},{"NoteNumber":36,"Velocity":71,"Duration":125000,"SoundDuration":125000,"Delta":602833020},{"NoteNumber":48,"Velocity":84,"Duration":125000,"SoundDuration":125000,"Delta":602833020},{"NoteNumber":53,"Velocity":61,"Duration":131578,"SoundDuration":131578,"Delta":603083020},{"NoteNumber":57,"Velocity":61,"Duration":131578,"SoundDuration":131578,"Delta":603083020},{"NoteNumber":63,"Velocity":72,"Duration":131578,"SoundDuration":131578,"Delta":603083020},{"NoteNumber":65,"Velocity":72,"Duration":131578,"SoundDuration":131578,"Delta":603083020},{"NoteNumber":35,"Velocity":66,"Duration":131578,"SoundDuration":131578,"Delta":603083020},{"NoteNumber":47,"Velocity":78,"Duration":131578,"SoundDuration":131578,"Delta":603083020},{"NoteNumber":53,"Velocity":63,"Duration":120967,"SoundDuration":120967,"Delta":603346178},{"NoteNumber":62,"Velocity":75,"Duration":120967,"SoundDuration":120967,"Delta":603346178},{"NoteNumber":65,"Velocity":75,"Duration":120967,"SoundDuration":120967,"Delta":603346178},{"NoteNumber":34,"Velocity":70,"Duration":120967,"SoundDuration":120967,"Delta":603346178},{"NoteNumber":46,"Velocity":83,"Duration":120967,"SoundDuration":120967,"Delta":603346178},{"NoteNumber":58,"Velocity":63,"Duration":120967,"SoundDuration":120967,"Delta":603350210},{"NoteNumber":68,"Velocity":64,"Duration":51724,"SoundDuration":51724,"Delta":603709081},{"NoteNumber":70,"Velocity":64,"Duration":51724,"SoundDuration":51724,"Delta":603760805},{"NoteNumber":68,"Velocity":73,"Duration":414126,"SoundDuration":414126,"Delta":603812529},{"NoteNumber":74,"Velocity":52,"Duration":68614,"SoundDuration":68614,"Delta":604024941},{"NoteNumber":77,"Velocity":54,"Duration":67082,"SoundDuration":67082,"Delta":604093555},{"NoteNumber":82,"Velocity":55,"Duration":66018,"SoundDuration":66018,"Delta":604160637},{"NoteNumber":86,"Velocity":57,"Duration":70921,"SoundDuration":70921,"Delta":604226656},{"NoteNumber":67,"Velocity":69,"Duration":106383,"SoundDuration":106383,"Delta":604226656},{"NoteNumber":89,"Velocity":59,"Duration":70921,"SoundDuration":70921,"Delta":604297578},{"NoteNumber":94,"Velocity":60,"Duration":69747,"SoundDuration":69747,"Delta":604368500},{"NoteNumber":98,"Velocity":62,"Duration":110293,"SoundDuration":110293,"Delta":604438248},{"NoteNumber":65,"Velocity":62,"Duration":110293,"SoundDuration":110293,"Delta":604438248},{"NoteNumber":70,"Velocity":70,"Duration":104895,"SoundDuration":104895,"Delta":604655772},{"NoteNumber":79,"Velocity":53,"Duration":72906,"SoundDuration":72906,"Delta":604865562},{"NoteNumber":62,"Velocity":63,"Duration":109832,"SoundDuration":109832,"Delta":604865562},{"NoteNumber":82,"Velocity":55,"Duration":72893,"SoundDuration":72893,"Delta":604938469},{"NoteNumber":87,"Velocity":57,"Duration":69585,"SoundDuration":69585,"Delta":605011363},{"NoteNumber":91,"Velocity":59,"Duration":70921,"SoundDuration":70921,"Delta":605080948},{"NoteNumber":63,"Velocity":71,"Duration":351654,"SoundDuration":351654,"Delta":605080948},{"NoteNumber":94,"Velocity":61,"Duration":70921,"SoundDuration":70921,"Delta":605151870},{"NoteNumber":99,"Velocity":64,"Duration":70921,"SoundDuration":70921,"Delta":605222792},{"NoteNumber":103,"Velocity":66,"Duration":138888,"SoundDuration":138888,"Delta":605293714},{"NoteNumber":64,"Velocity":64,"Duration":59055,"SoundDuration":59055,"Delta":605432603},{"NoteNumber":66,"Velocity":64,"Duration":57093,"SoundDuration":57093,"Delta":605491658},{"NoteNumber":64,"Velocity":73,"Duration":412217,"SoundDuration":412217,"Delta":605548752},{"NoteNumber":70,"Velocity":52,"Duration":67913,"SoundDuration":67913,"Delta":605760091},{"NoteNumber":73,"Velocity":54,"Duration":66740,"SoundDuration":66740,"Delta":605828004},{"NoteNumber":78,"Velocity":56,"Duration":66224,"SoundDuration":66224,"Delta":605894745},{"NoteNumber":82,"Velocity":58,"Duration":70921,"SoundDuration":70921,"Delta":605960969},{"NoteNumber":63,"Velocity":69,"Duration":106383,"SoundDuration":106383,"Delta":605960969},{"NoteNumber":85,"Velocity":60,"Duration":70921,"SoundDuration":70921,"Delta":606031891},{"NoteNumber":90,"Velocity":61,"Duration":69747,"SoundDuration":69747,"Delta":606102813},{"NoteNumber":94,"Velocity":63,"Duration":110293,"SoundDuration":110293,"Delta":606172561},{"NoteNumber":61,"Velocity":62,"Duration":110293,"SoundDuration":110293,"Delta":606172561},{"NoteNumber":66,"Velocity":70,"Duration":104895,"SoundDuration":104895,"Delta":606390086},{"NoteNumber":71,"Velocity":54,"Duration":70965,"SoundDuration":70965,"Delta":606599876},{"NoteNumber":58,"Velocity":63,"Duration":108002,"SoundDuration":108002,"Delta":606599876},{"NoteNumber":75,"Velocity":55,"Duration":74073,"SoundDuration":74073,"Delta":606670842},{"NoteNumber":78,"Velocity":57,"Duration":71264,"SoundDuration":71264,"Delta":606744916},{"NoteNumber":83,"Velocity":58,"Duration":68611,"SoundDuration":68611,"Delta":606816180},{"NoteNumber":59,"Velocity":71,"Duration":455763,"SoundDuration":455763,"Delta":606816180},{"NoteNumber":87,"Velocity":60,"Duration":67797,"SoundDuration":67797,"Delta":606884791},{"NoteNumber":90,"Velocity":61,"Duration":67227,"SoundDuration":67227,"Delta":606952589},{"NoteNumber":95,"Velocity":63,"Duration":140186,"SoundDuration":140186,"Delta":607019816},{"NoteNumber":60,"Velocity":64,"Duration":55970,"SoundDuration":55970,"Delta":607160003},{"NoteNumber":62,"Velocity":64,"Duration":55970,"SoundDuration":55970,"Delta":607215973},{"NoteNumber":60,"Velocity":73,"Duration":418847,"SoundDuration":418847,"Delta":607271944},{"NoteNumber":66,"Velocity":54,"Duration":68926,"SoundDuration":68926,"Delta":607488290},{"NoteNumber":69,"Velocity":56,"Duration":67456,"SoundDuration":67456,"Delta":607557217},{"NoteNumber":74,"Velocity":57,"Duration":66117,"SoundDuration":66117,"Delta":607624673},{"NoteNumber":78,"Velocity":58,"Duration":69444,"SoundDuration":69444,"Delta":607690791},{"NoteNumber":59,"Velocity":69,"Duration":104166,"SoundDuration":104166,"Delta":607690791},{"NoteNumber":81,"Velocity":59,"Duration":69444,"SoundDuration":69444,"Delta":607760235},{"NoteNumber":86,"Velocity":60,"Duration":68787,"SoundDuration":68787,"Delta":607829680},{"NoteNumber":90,"Velocity":62,"Duration":110293,"SoundDuration":110293,"Delta":607898467},{"NoteNumber":57,"Velocity":62,"Duration":110293,"SoundDuration":110293,"Delta":607898467},{"NoteNumber":62,"Velocity":70,"Duration":104895,"SoundDuration":104895,"Delta":608115992},{"NoteNumber":67,"Velocity":54,"Duration":70965,"SoundDuration":70965,"Delta":608325782},{"NoteNumber":54,"Velocity":63,"Duration":108002,"SoundDuration":108002,"Delta":608325782},{"NoteNumber":71,"Velocity":55,"Duration":74073,"SoundDuration":74073,"Delta":608396748},{"NoteNumber":74,"Velocity":57,"Duration":71264,"SoundDuration":71264,"Delta":608470822},{"NoteNumber":79,"Velocity":58,"Duration":68611,"SoundDuration":68611,"Delta":608542086},{"NoteNumber":55,"Velocity":71,"Duration":320823,"SoundDuration":320823,"Delta":608542086},{"NoteNumber":83,"Velocity":59,"Duration":67797,"SoundDuration":67797,"Delta":608610697},{"NoteNumber":86,"Velocity":60,"Duration":67227,"SoundDuration":67227,"Delta":608678495},{"NoteNumber":91,"Velocity":62,"Duration":117187,"SoundDuration":117187,"Delta":608745722},{"NoteNumber":44,"Velocity":55,"Duration":107875,"SoundDuration":107875,"Delta":608979170},{"NoteNumber":56,"Velocity":65,"Duration":107875,"SoundDuration":107875,"Delta":608979170},{"NoteNumber":59,"Velocity":45,"Duration":106984,"SoundDuration":106984,"Delta":609087045},{"NoteNumber":71,"Velocity":54,"Duration":106984,"SoundDuration":106984,"Delta":609087045},{"NoteNumber":50,"Velocity":46,"Duration":106108,"SoundDuration":106108,"Delta":609194030},{"NoteNumber":62,"Velocity":55,"Duration":106108,"SoundDuration":106108,"Delta":609194030},{"NoteNumber":77,"Velocity":55,"Duration":105101,"SoundDuration":105101,"Delta":609300138},{"NoteNumber":65,"Velocity":46,"Duration":105101,"SoundDuration":105101,"Delta":609300138},{"NoteNumber":45,"Velocity":55,"Duration":103111,"SoundDuration":103111,"Delta":609405239},{"NoteNumber":57,"Velocity":65,"Duration":103111,"SoundDuration":103111,"Delta":609405239},{"NoteNumber":72,"Velocity":56,"Duration":101864,"SoundDuration":101864,"Delta":609508351},{"NoteNumber":60,"Velocity":47,"Duration":101864,"SoundDuration":101864,"Delta":609508351},{"NoteNumber":63,"Velocity":56,"Duration":100566,"SoundDuration":100566,"Delta":609610215},{"NoteNumber":51,"Velocity":47,"Duration":100566,"SoundDuration":100566,"Delta":609610215},{"NoteNumber":78,"Velocity":56,"Duration":99189,"SoundDuration":99189,"Delta":609710782},{"NoteNumber":66,"Velocity":47,"Duration":99189,"SoundDuration":99189,"Delta":609710782},{"NoteNumber":46,"Velocity":59,"Duration":101351,"SoundDuration":101351,"Delta":609809971},{"NoteNumber":58,"Velocity":70,"Duration":101351,"SoundDuration":101351,"Delta":609809971},{"NoteNumber":75,"Velocity":60,"Duration":101351,"SoundDuration":101351,"Delta":609911322},{"NoteNumber":63,"Velocity":51,"Duration":101351,"SoundDuration":101351,"Delta":609911322},{"NoteNumber":67,"Velocity":60,"Duration":101351,"SoundDuration":101351,"Delta":610012674},{"NoteNumber":55,"Velocity":51,"Duration":101351,"SoundDuration":101351,"Delta":610012674},{"NoteNumber":82,"Velocity":60,"Duration":101351,"SoundDuration":101351,"Delta":610114025},{"NoteNumber":70,"Velocity":51,"Duration":101351,"SoundDuration":101351,"Delta":610114025},{"NoteNumber":63,"Velocity":72,"Duration":101351,"SoundDuration":101351,"Delta":610215376},{"NoteNumber":51,"Velocity":61,"Duration":101351,"SoundDuration":101351,"Delta":610215376},{"NoteNumber":79,"Velocity":61,"Duration":101351,"SoundDuration":101351,"Delta":610316727},{"NoteNumber":67,"Velocity":51,"Duration":101351,"SoundDuration":101351,"Delta":610316727},{"NoteNumber":70,"Velocity":61,"Duration":103923,"SoundDuration":103923,"Delta":610418079},{"NoteNumber":58,"Velocity":51,"Duration":103923,"SoundDuration":103923,"Delta":610418079},{"NoteNumber":87,"Velocity":61,"Duration":112557,"SoundDuration":112557,"Delta":610522002},{"NoteNumber":75,"Velocity":51,"Duration":112557,"SoundDuration":112557,"Delta":610522002},{"NoteNumber":53,"Velocity":61,"Duration":99337,"SoundDuration":99337,"Delta":610634560},{"NoteNumber":65,"Velocity":72,"Duration":99337,"SoundDuration":99337,"Delta":610634560},{"NoteNumber":82,"Velocity":62,"Duration":99337,"SoundDuration":99337,"Delta":610733897},{"NoteNumber":70,"Velocity":52,"Duration":99337,"SoundDuration":99337,"Delta":610733897},{"NoteNumber":74,"Velocity":62,"Duration":99337,"SoundDuration":99337,"Delta":610833235},{"NoteNumber":62,"Velocity":52,"Duration":99337,"SoundDuration":99337,"Delta":610833235},{"NoteNumber":89,"Velocity":62,"Duration":99337,"SoundDuration":99337,"Delta":610932573},{"NoteNumber":77,"Velocity":52,"Duration":99337,"SoundDuration":99337,"Delta":610932573},{"NoteNumber":70,"Velocity":75,"Duration":99337,"SoundDuration":99337,"Delta":611031911},{"NoteNumber":58,"Velocity":63,"Duration":99337,"SoundDuration":99337,"Delta":611031911},{"NoteNumber":86,"Velocity":63,"Duration":99337,"SoundDuration":99337,"Delta":611131248},{"NoteNumber":74,"Velocity":53,"Duration":99337,"SoundDuration":99337,"Delta":611131248},{"NoteNumber":77,"Velocity":63,"Duration":100273,"SoundDuration":100273,"Delta":611230586},{"NoteNumber":65,"Velocity":53,"Duration":100273,"SoundDuration":100273,"Delta":611230586},{"NoteNumber":94,"Velocity":63,"Duration":115384,"SoundDuration":115384,"Delta":611330860},{"NoteNumber":82,"Velocity":53,"Duration":115384,"SoundDuration":115384,"Delta":611330860},{"NoteNumber":56,"Velocity":62,"Duration":414126,"SoundDuration":414126,"Delta":611446244},{"NoteNumber":68,"Velocity":73,"Duration":414126,"SoundDuration":414126,"Delta":611446244},{"NoteNumber":74,"Velocity":52,"Duration":68614,"SoundDuration":68614,"Delta":611658656},{"NoteNumber":77,"Velocity":54,"Duration":67082,"SoundDuration":67082,"Delta":611727270},{"NoteNumber":82,"Velocity":55,"Duration":66018,"SoundDuration":66018,"Delta":611794352},{"NoteNumber":86,"Velocity":57,"Duration":70921,"SoundDuration":70921,"Delta":611860371},{"NoteNumber":55,"Velocity":58,"Duration":106383,"SoundDuration":106383,"Delta":611860371},{"NoteNumber":67,"Velocity":69,"Duration":106383,"SoundDuration":106383,"Delta":611860371},{"NoteNumber":89,"Velocity":59,"Duration":70921,"SoundDuration":70921,"Delta":611931293},{"NoteNumber":94,"Velocity":60,"Duration":69747,"SoundDuration":69747,"Delta":612002215},{"NoteNumber":98,"Velocity":62,"Duration":110293,"SoundDuration":110293,"Delta":612071963},{"NoteNumber":53,"Velocity":52,"Duration":110293,"SoundDuration":110293,"Delta":612071963},{"NoteNumber":65,"Velocity":62,"Duration":110293,"SoundDuration":110293,"Delta":612071963},{"NoteNumber":58,"Velocity":59,"Duration":104895,"SoundDuration":104895,"Delta":612289487},{"NoteNumber":70,"Velocity":70,"Duration":104895,"SoundDuration":104895,"Delta":612289487},{"NoteNumber":79,"Velocity":53,"Duration":72906,"SoundDuration":72906,"Delta":612499277},{"NoteNumber":50,"Velocity":53,"Duration":109832,"SoundDuration":109832,"Delta":612499277},{"NoteNumber":62,"Velocity":63,"Duration":109832,"SoundDuration":109832,"Delta":612499277},{"NoteNumber":82,"Velocity":55,"Duration":72893,"SoundDuration":72893,"Delta":612572184},{"NoteNumber":87,"Velocity":57,"Duration":69585,"SoundDuration":69585,"Delta":612645078},{"NoteNumber":91,"Velocity":59,"Duration":70921,"SoundDuration":70921,"Delta":612714663},{"NoteNumber":51,"Velocity":60,"Duration":351654,"SoundDuration":351654,"Delta":612714663},{"NoteNumber":63,"Velocity":71,"Duration":351654,"SoundDuration":351654,"Delta":612714663},{"NoteNumber":94,"Velocity":61,"Duration":70921,"SoundDuration":70921,"Delta":612785585},{"NoteNumber":99,"Velocity":64,"Duration":70921,"SoundDuration":70921,"Delta":612856507},{"NoteNumber":103,"Velocity":66,"Duration":138888,"SoundDuration":138888,"Delta":612927429},{"NoteNumber":52,"Velocity":62,"Duration":412217,"SoundDuration":412217,"Delta":613182467},{"NoteNumber":64,"Velocity":73,"Duration":412217,"SoundDuration":412217,"Delta":613182467},{"NoteNumber":70,"Velocity":52,"Duration":67913,"SoundDuration":67913,"Delta":613393806},{"NoteNumber":73,"Velocity":54,"Duration":66740,"SoundDuration":66740,"Delta":613461719},{"NoteNumber":78,"Velocity":56,"Duration":66224,"SoundDuration":66224,"Delta":613528460},{"NoteNumber":82,"Velocity":58,"Duration":70921,"SoundDuration":70921,"Delta":613594685},{"NoteNumber":51,"Velocity":58,"Duration":106383,"SoundDuration":106383,"Delta":613594685},{"NoteNumber":63,"Velocity":69,"Duration":106383,"SoundDuration":106383,"Delta":613594685},{"NoteNumber":85,"Velocity":60,"Duration":70921,"SoundDuration":70921,"Delta":613665607},{"NoteNumber":90,"Velocity":61,"Duration":69747,"SoundDuration":69747,"Delta":613736529},{"NoteNumber":94,"Velocity":63,"Duration":110293,"SoundDuration":110293,"Delta":613806276},{"NoteNumber":49,"Velocity":52,"Duration":110293,"SoundDuration":110293,"Delta":613806276},{"NoteNumber":61,"Velocity":62,"Duration":110293,"SoundDuration":110293,"Delta":613806276},{"NoteNumber":54,"Velocity":59,"Duration":104895,"SoundDuration":104895,"Delta":614023801},{"NoteNumber":66,"Velocity":70,"Duration":104895,"SoundDuration":104895,"Delta":614023801},{"NoteNumber":71,"Velocity":54,"Duration":70965,"SoundDuration":70965,"Delta":614233591},{"NoteNumber":46,"Velocity":53,"Duration":108002,"SoundDuration":108002,"Delta":614233591},{"NoteNumber":58,"Velocity":63,"Duration":108002,"SoundDuration":108002,"Delta":614233591},{"NoteNumber":75,"Velocity":55,"Duration":74073,"SoundDuration":74073,"Delta":614304557},{"NoteNumber":78,"Velocity":57,"Duration":71264,"SoundDuration":71264,"Delta":614378631},{"NoteNumber":83,"Velocity":58,"Duration":68611,"SoundDuration":68611,"Delta":614449895},{"NoteNumber":47,"Velocity":60,"Duration":343823,"SoundDuration":343823,"Delta":614449895},{"NoteNumber":59,"Velocity":71,"Duration":343823,"SoundDuration":343823,"Delta":614449895},{"NoteNumber":87,"Velocity":60,"Duration":67797,"SoundDuration":67797,"Delta":614518506},{"NoteNumber":90,"Velocity":61,"Duration":67227,"SoundDuration":67227,"Delta":614586304},{"NoteNumber":95,"Velocity":63,"Duration":140186,"SoundDuration":140186,"Delta":614653532},{"NoteNumber":48,"Velocity":62,"Duration":418847,"SoundDuration":418847,"Delta":614905659},{"NoteNumber":60,"Velocity":73,"Duration":418847,"SoundDuration":418847,"Delta":614905659},{"NoteNumber":66,"Velocity":54,"Duration":68926,"SoundDuration":68926,"Delta":615122006},{"NoteNumber":68,"Velocity":56,"Duration":67456,"SoundDuration":67456,"Delta":615190932},{"NoteNumber":74,"Velocity":57,"Duration":66117,"SoundDuration":66117,"Delta":615258389},{"NoteNumber":78,"Velocity":58,"Duration":69444,"SoundDuration":69444,"Delta":615324506},{"NoteNumber":47,"Velocity":58,"Duration":104166,"SoundDuration":104166,"Delta":615324506},{"NoteNumber":59,"Velocity":69,"Duration":104166,"SoundDuration":104166,"Delta":615324506},{"NoteNumber":80,"Velocity":59,"Duration":69444,"SoundDuration":69444,"Delta":615393951},{"NoteNumber":86,"Velocity":60,"Duration":68787,"SoundDuration":68787,"Delta":615463395},{"NoteNumber":90,"Velocity":62,"Duration":110293,"SoundDuration":110293,"Delta":615532183},{"NoteNumber":45,"Velocity":52,"Duration":110293,"SoundDuration":110293,"Delta":615532183},{"NoteNumber":57,"Velocity":62,"Duration":110293,"SoundDuration":110293,"Delta":615532183},{"NoteNumber":50,"Velocity":59,"Duration":104895,"SoundDuration":104895,"Delta":615749707},{"NoteNumber":62,"Velocity":70,"Duration":104895,"SoundDuration":104895,"Delta":615749707},{"NoteNumber":67,"Velocity":54,"Duration":70965,"SoundDuration":70965,"Delta":615959497},{"NoteNumber":42,"Velocity":53,"Duration":108002,"SoundDuration":108002,"Delta":615959497},{"NoteNumber":54,"Velocity":63,"Duration":108002,"SoundDuration":108002,"Delta":615959497},{"NoteNumber":71,"Velocity":55,"Duration":74073,"SoundDuration":74073,"Delta":616030463},{"NoteNumber":74,"Velocity":57,"Duration":71264,"SoundDuration":71264,"Delta":616104537},{"NoteNumber":79,"Velocity":58,"Duration":68611,"SoundDuration":68611,"Delta":616175801},{"NoteNumber":43,"Velocity":60,"Duration":320823,"SoundDuration":320823,"Delta":616175801},{"NoteNumber":55,"Velocity":71,"Duration":320823,"SoundDuration":320823,"Delta":616175801},{"NoteNumber":83,"Velocity":59,"Duration":67797,"SoundDuration":67797,"Delta":616244413},{"NoteNumber":86,"Velocity":60,"Duration":67227,"SoundDuration":67227,"Delta":616312210},{"NoteNumber":91,"Velocity":62,"Duration":117187,"SoundDuration":117187,"Delta":616379438},{"NoteNumber":44,"Velocity":55,"Duration":107875,"SoundDuration":107875,"Delta":616612885},{"NoteNumber":56,"Velocity":65,"Duration":107875,"SoundDuration":107875,"Delta":616612885},{"NoteNumber":59,"Velocity":45,"Duration":106984,"SoundDuration":106984,"Delta":616720761},{"NoteNumber":71,"Velocity":54,"Duration":106984,"SoundDuration":106984,"Delta":616720761},{"NoteNumber":50,"Velocity":46,"Duration":106108,"SoundDuration":106108,"Delta":616827745},{"NoteNumber":62,"Velocity":55,"Duration":106108,"SoundDuration":106108,"Delta":616827745},{"NoteNumber":77,"Velocity":55,"Duration":103570,"SoundDuration":103570,"Delta":616933853},{"NoteNumber":65,"Velocity":46,"Duration":103570,"SoundDuration":103570,"Delta":616933853},{"NoteNumber":45,"Velocity":55,"Duration":102036,"SoundDuration":102036,"Delta":617037423},{"NoteNumber":57,"Velocity":65,"Duration":102036,"SoundDuration":102036,"Delta":617037423},{"NoteNumber":72,"Velocity":56,"Duration":100666,"SoundDuration":100666,"Delta":617139460},{"NoteNumber":60,"Velocity":47,"Duration":100666,"SoundDuration":100666,"Delta":617139460},{"NoteNumber":63,"Velocity":56,"Duration":99442,"SoundDuration":99442,"Delta":617240126},{"NoteNumber":51,"Velocity":47,"Duration":99442,"SoundDuration":99442,"Delta":617240126},{"NoteNumber":78,"Velocity":56,"Duration":98141,"SoundDuration":98141,"Delta":617339569},{"NoteNumber":66,"Velocity":47,"Duration":98141,"SoundDuration":98141,"Delta":617339569},{"NoteNumber":46,"Velocity":58,"Duration":101351,"SoundDuration":101351,"Delta":617437710},{"NoteNumber":58,"Velocity":69,"Duration":101351,"SoundDuration":101351,"Delta":617437710},{"NoteNumber":75,"Velocity":57,"Duration":101351,"SoundDuration":101351,"Delta":617539062},{"NoteNumber":63,"Velocity":48,"Duration":101351,"SoundDuration":101351,"Delta":617539062},{"NoteNumber":67,"Velocity":57,"Duration":101351,"SoundDuration":101351,"Delta":617640413},{"NoteNumber":55,"Velocity":48,"Duration":101351,"SoundDuration":101351,"Delta":617640413},{"NoteNumber":82,"Velocity":57,"Duration":101351,"SoundDuration":101351,"Delta":617741764},{"NoteNumber":70,"Velocity":48,"Duration":101351,"SoundDuration":101351,"Delta":617741764},{"NoteNumber":63,"Velocity":69,"Duration":101351,"SoundDuration":101351,"Delta":617843115},{"NoteNumber":51,"Velocity":58,"Duration":101351,"SoundDuration":101351,"Delta":617843115},{"NoteNumber":79,"Velocity":57,"Duration":101351,"SoundDuration":101351,"Delta":617944467},{"NoteNumber":67,"Velocity":48,"Duration":101351,"SoundDuration":101351,"Delta":617944467},{"NoteNumber":70,"Velocity":57,"Duration":103923,"SoundDuration":103923,"Delta":618045818},{"NoteNumber":58,"Velocity":48,"Duration":103923,"SoundDuration":103923,"Delta":618045818},{"NoteNumber":87,"Velocity":58,"Duration":112557,"SoundDuration":112557,"Delta":618149741},{"NoteNumber":75,"Velocity":49,"Duration":112557,"SoundDuration":112557,"Delta":618149741},{"NoteNumber":55,"Velocity":60,"Duration":98677,"SoundDuration":98677,"Delta":618262299},{"NoteNumber":67,"Velocity":71,"Duration":98677,"SoundDuration":98677,"Delta":618262299},{"NoteNumber":82,"Velocity":59,"Duration":98677,"SoundDuration":98677,"Delta":618360977},{"NoteNumber":70,"Velocity":50,"Duration":98677,"SoundDuration":98677,"Delta":618360977},{"NoteNumber":75,"Velocity":59,"Duration":98677,"SoundDuration":98677,"Delta":618459654},{"NoteNumber":63,"Velocity":50,"Duration":98677,"SoundDuration":98677,"Delta":618459654},{"NoteNumber":91,"Velocity":59,"Duration":98677,"SoundDuration":98677,"Delta":618558332},{"NoteNumber":79,"Velocity":50,"Duration":98677,"SoundDuration":98677,"Delta":618558332},{"NoteNumber":70,"Velocity":72,"Duration":98677,"SoundDuration":98677,"Delta":618657010},{"NoteNumber":58,"Velocity":61,"Duration":98677,"SoundDuration":98677,"Delta":618657010},{"NoteNumber":87,"Velocity":55,"Duration":98677,"SoundDuration":98677,"Delta":618755688},{"NoteNumber":75,"Velocity":55,"Duration":98677,"SoundDuration":98677,"Delta":618755688},{"NoteNumber":79,"Velocity":55,"Duration":99652,"SoundDuration":99652,"Delta":618854365},{"NoteNumber":67,"Velocity":55,"Duration":99652,"SoundDuration":99652,"Delta":618854365},{"NoteNumber":94,"Velocity":55,"Duration":115384,"SoundDuration":115384,"Delta":618954018},{"NoteNumber":82,"Velocity":55,"Duration":115384,"SoundDuration":115384,"Delta":618954018},{"NoteNumber":65,"Velocity":64,"Duration":99331,"SoundDuration":99331,"Delta":619069402},{"NoteNumber":77,"Velocity":64,"Duration":99331,"SoundDuration":99331,"Delta":619069402},{"NoteNumber":92,"Velocity":50,"Duration":99331,"SoundDuration":99331,"Delta":619168733},{"NoteNumber":80,"Velocity":50,"Duration":99331,"SoundDuration":99331,"Delta":619168733},{"NoteNumber":62,"Velocity":58,"Duration":99331,"SoundDuration":99331,"Delta":619268065},{"NoteNumber":74,"Velocity":58,"Duration":99331,"SoundDuration":99331,"Delta":619268065},{"NoteNumber":89,"Velocity":50,"Duration":99331,"SoundDuration":99331,"Delta":619367396},{"NoteNumber":77,"Velocity":50,"Duration":99331,"SoundDuration":99331,"Delta":619367396},{"NoteNumber":58,"Velocity":57,"Duration":99331,"SoundDuration":99331,"Delta":619466727},{"NoteNumber":70,"Velocity":57,"Duration":99331,"SoundDuration":99331,"Delta":619466727},{"NoteNumber":86,"Velocity":50,"Duration":99331,"SoundDuration":99331,"Delta":619566058},{"NoteNumber":74,"Velocity":50,"Duration":99331,"SoundDuration":99331,"Delta":619566058},{"NoteNumber":56,"Velocity":57,"Duration":99331,"SoundDuration":99331,"Delta":619665390},{"NoteNumber":68,"Velocity":57,"Duration":99331,"SoundDuration":99331,"Delta":619665390},{"NoteNumber":82,"Velocity":50,"Duration":107913,"SoundDuration":107913,"Delta":619764721},{"NoteNumber":70,"Velocity":50,"Duration":107913,"SoundDuration":107913,"Delta":619764721},{"NoteNumber":53,"Velocity":64,"Duration":99337,"SoundDuration":99337,"Delta":619872635},{"NoteNumber":65,"Velocity":64,"Duration":99337,"SoundDuration":99337,"Delta":619872635},{"NoteNumber":80,"Velocity":50,"Duration":99337,"SoundDuration":99337,"Delta":619971972},{"NoteNumber":68,"Velocity":50,"Duration":99337,"SoundDuration":99337,"Delta":619971972},{"NoteNumber":50,"Velocity":58,"Duration":99337,"SoundDuration":99337,"Delta":620071310},{"NoteNumber":62,"Velocity":58,"Duration":99337,"SoundDuration":99337,"Delta":620071310},{"NoteNumber":77,"Velocity":50,"Duration":99337,"SoundDuration":99337,"Delta":620170648},{"NoteNumber":65,"Velocity":50,"Duration":99337,"SoundDuration":99337,"Delta":620170648},{"NoteNumber":46,"Velocity":57,"Duration":99337,"SoundDuration":99337,"Delta":620269986},{"NoteNumber":58,"Velocity":57,"Duration":99337,"SoundDuration":99337,"Delta":620269986},{"NoteNumber":74,"Velocity":51,"Duration":99337,"SoundDuration":99337,"Delta":620369323},{"NoteNumber":62,"Velocity":51,"Duration":99337,"SoundDuration":99337,"Delta":620369323},{"NoteNumber":44,"Velocity":59,"Duration":99337,"SoundDuration":99337,"Delta":620468661},{"NoteNumber":56,"Velocity":59,"Duration":99337,"SoundDuration":99337,"Delta":620468661},{"NoteNumber":65,"Velocity":53,"Duration":116278,"SoundDuration":116278,"Delta":620567999},{"NoteNumber":77,"Velocity":53,"Duration":116278,"SoundDuration":116278,"Delta":620567999},{"NoteNumber":41,"Velocity":70,"Duration":100000,"SoundDuration":100000,"Delta":620684278},{"NoteNumber":53,"Velocity":70,"Duration":100000,"SoundDuration":100000,"Delta":620684278},{"NoteNumber":80,"Velocity":56,"Duration":100000,"SoundDuration":100000,"Delta":620784278},{"NoteNumber":68,"Velocity":56,"Duration":100000,"SoundDuration":100000,"Delta":620784278},{"NoteNumber":38,"Velocity":66,"Duration":99999,"SoundDuration":99999,"Delta":620884278},{"NoteNumber":50,"Velocity":66,"Duration":99999,"SoundDuration":99999,"Delta":620884278},{"NoteNumber":82,"Velocity":58,"Duration":100000,"SoundDuration":100000,"Delta":620984278},{"NoteNumber":70,"Velocity":58,"Duration":100000,"SoundDuration":100000,"Delta":620984278},{"NoteNumber":34,"Velocity":68,"Duration":100000,"SoundDuration":100000,"Delta":621084278},{"NoteNumber":46,"Velocity":68,"Duration":100000,"SoundDuration":100000,"Delta":621084278},{"NoteNumber":86,"Velocity":61,"Duration":100000,"SoundDuration":100000,"Delta":621184278},{"NoteNumber":74,"Velocity":61,"Duration":100000,"SoundDuration":100000,"Delta":621184278},{"NoteNumber":33,"Velocity":71,"Duration":100000,"SoundDuration":100000,"Delta":621284278},{"NoteNumber":45,"Velocity":71,"Duration":100000,"SoundDuration":100000,"Delta":621284278},{"NoteNumber":77,"Velocity":64,"Duration":99999,"SoundDuration":99999,"Delta":621384278},{"NoteNumber":89,"Velocity":64,"Duration":99999,"SoundDuration":99999,"Delta":621384278},{"NoteNumber":32,"Velocity":84,"Duration":98677,"SoundDuration":98677,"Delta":621484278},{"NoteNumber":44,"Velocity":84,"Duration":98677,"SoundDuration":98677,"Delta":621484278},{"NoteNumber":92,"Velocity":67,"Duration":98677,"SoundDuration":98677,"Delta":621582956},{"NoteNumber":80,"Velocity":67,"Duration":98677,"SoundDuration":98677,"Delta":621582956},{"NoteNumber":31,"Velocity":80,"Duration":98677,"SoundDuration":98677,"Delta":621681633},{"NoteNumber":43,"Velocity":80,"Duration":98677,"SoundDuration":98677,"Delta":621681633},{"NoteNumber":94,"Velocity":70,"Duration":98812,"SoundDuration":98812,"Delta":621780311},{"NoteNumber":82,"Velocity":70,"Duration":98812,"SoundDuration":98812,"Delta":621780311},{"NoteNumber":29,"Velocity":81,"Duration":100097,"SoundDuration":100097,"Delta":621879124},{"NoteNumber":41,"Velocity":81,"Duration":100097,"SoundDuration":100097,"Delta":621879124},{"NoteNumber":96,"Velocity":73,"Duration":102026,"SoundDuration":102026,"Delta":621979221},{"NoteNumber":84,"Velocity":73,"Duration":102026,"SoundDuration":102026,"Delta":621979221},{"NoteNumber":34,"Velocity":85,"Duration":103731,"SoundDuration":103731,"Delta":622081248},{"NoteNumber":46,"Velocity":85,"Duration":103731,"SoundDuration":103731,"Delta":622081248},{"NoteNumber":86,"Velocity":75,"Duration":105510,"SoundDuration":105510,"Delta":622184979},{"NoteNumber":98,"Velocity":75,"Duration":105510,"SoundDuration":105510,"Delta":622184979},{"NoteNumber":27,"Velocity":79,"Duration":100000,"SoundDuration":100000,"Delta":622290490},{"NoteNumber":39,"Velocity":94,"Duration":100000,"SoundDuration":100000,"Delta":622290490},{"NoteNumber":99,"Velocity":82,"Duration":100000,"SoundDuration":100000,"Delta":622390490},{"NoteNumber":87,"Velocity":70,"Duration":100000,"SoundDuration":100000,"Delta":622390490},{"NoteNumber":34,"Velocity":73,"Duration":99999,"SoundDuration":99999,"Delta":622490490},{"NoteNumber":46,"Velocity":87,"Duration":99999,"SoundDuration":99999,"Delta":622490490},{"NoteNumber":101,"Velocity":73,"Duration":100000,"SoundDuration":100000,"Delta":622590490},{"NoteNumber":98,"Velocity":73,"Duration":100000,"SoundDuration":100000,"Delta":622590490},{"NoteNumber":94,"Velocity":62,"Duration":100000,"SoundDuration":100000,"Delta":622590490},{"NoteNumber":89,"Velocity":62,"Duration":100000,"SoundDuration":100000,"Delta":622590490},{"NoteNumber":39,"Velocity":78,"Duration":100000,"SoundDuration":100000,"Delta":622690490},{"NoteNumber":51,"Velocity":93,"Duration":100000,"SoundDuration":100000,"Delta":622690490},{"NoteNumber":103,"Velocity":77,"Duration":99331,"SoundDuration":99331,"Delta":622790490},{"NoteNumber":99,"Velocity":77,"Duration":99331,"SoundDuration":99331,"Delta":622790490},{"NoteNumber":94,"Velocity":66,"Duration":99331,"SoundDuration":99331,"Delta":622790490},{"NoteNumber":91,"Velocity":66,"Duration":99331,"SoundDuration":99331,"Delta":622790490},{"NoteNumber":46,"Velocity":73,"Duration":99331,"SoundDuration":99331,"Delta":622889821},{"NoteNumber":58,"Velocity":87,"Duration":99331,"SoundDuration":99331,"Delta":622889821},{"NoteNumber":101,"Velocity":77,"Duration":105633,"SoundDuration":105633,"Delta":622989152},{"NoteNumber":98,"Velocity":77,"Duration":105633,"SoundDuration":105633,"Delta":622989152},{"NoteNumber":94,"Velocity":66,"Duration":105633,"SoundDuration":105633,"Delta":622989152},{"NoteNumber":89,"Velocity":66,"Duration":105633,"SoundDuration":105633,"Delta":622989152},{"NoteNumber":51,"Velocity":78,"Duration":100000,"SoundDuration":100000,"Delta":623094786},{"NoteNumber":63,"Velocity":93,"Duration":100000,"SoundDuration":100000,"Delta":623094786},{"NoteNumber":103,"Velocity":77,"Duration":100000,"SoundDuration":100000,"Delta":623194786},{"NoteNumber":99,"Velocity":77,"Duration":100000,"SoundDuration":100000,"Delta":623194786},{"NoteNumber":94,"Velocity":66,"Duration":100000,"SoundDuration":100000,"Delta":623194786},{"NoteNumber":91,"Velocity":66,"Duration":100000,"SoundDuration":100000,"Delta":623194786},{"NoteNumber":46,"Velocity":69,"Duration":99999,"SoundDuration":99999,"Delta":623294786},{"NoteNumber":58,"Velocity":81,"Duration":99999,"SoundDuration":99999,"Delta":623294786},{"NoteNumber":101,"Velocity":77,"Duration":98677,"SoundDuration":98677,"Delta":623394786},{"NoteNumber":98,"Velocity":77,"Duration":98677,"SoundDuration":98677,"Delta":623394786},{"NoteNumber":94,"Velocity":66,"Duration":98677,"SoundDuration":98677,"Delta":623394786},{"NoteNumber":89,"Velocity":66,"Duration":98677,"SoundDuration":98677,"Delta":623394786},{"NoteNumber":39,"Velocity":74,"Duration":98354,"SoundDuration":98354,"Delta":623493464},{"NoteNumber":51,"Velocity":88,"Duration":98354,"SoundDuration":98354,"Delta":623493464},{"NoteNumber":103,"Velocity":77,"Duration":98354,"SoundDuration":98354,"Delta":623591818},{"NoteNumber":99,"Velocity":77,"Duration":98354,"SoundDuration":98354,"Delta":623591818},{"NoteNumber":91,"Velocity":66,"Duration":98354,"SoundDuration":98354,"Delta":623591818},{"NoteNumber":94,"Velocity":66,"Duration":98354,"SoundDuration":98354,"Delta":623591818},{"NoteNumber":34,"Velocity":71,"Duration":98354,"SoundDuration":98354,"Delta":623690172},{"NoteNumber":46,"Velocity":84,"Duration":98354,"SoundDuration":98354,"Delta":623690172},{"NoteNumber":101,"Velocity":77,"Duration":107142,"SoundDuration":107142,"Delta":623788526},{"NoteNumber":98,"Velocity":77,"Duration":107142,"SoundDuration":107142,"Delta":623788526},{"NoteNumber":94,"Velocity":66,"Duration":107142,"SoundDuration":107142,"Delta":623788526},{"NoteNumber":89,"Velocity":66,"Duration":107142,"SoundDuration":107142,"Delta":623788526},{"NoteNumber":39,"Velocity":78,"Duration":99003,"SoundDuration":99003,"Delta":623895669},{"NoteNumber":51,"Velocity":93,"Duration":99003,"SoundDuration":99003,"Delta":623895669},{"NoteNumber":103,"Velocity":77,"Duration":99003,"SoundDuration":99003,"Delta":623994672},{"NoteNumber":99,"Velocity":77,"Duration":99003,"SoundDuration":99003,"Delta":623994672},{"NoteNumber":94,"Velocity":66,"Duration":99003,"SoundDuration":99003,"Delta":623994672},{"NoteNumber":91,"Velocity":66,"Duration":99003,"SoundDuration":99003,"Delta":623994672},{"NoteNumber":46,"Velocity":69,"Duration":99003,"SoundDuration":99003,"Delta":624093676},{"NoteNumber":58,"Velocity":81,"Duration":99003,"SoundDuration":99003,"Delta":624093676},{"NoteNumber":101,"Velocity":77,"Duration":99003,"SoundDuration":99003,"Delta":624192679},{"NoteNumber":98,"Velocity":77,"Duration":99003,"SoundDuration":99003,"Delta":624192679},{"NoteNumber":94,"Velocity":66,"Duration":99003,"SoundDuration":99003,"Delta":624192679},{"NoteNumber":89,"Velocity":66,"Duration":99003,"SoundDuration":99003,"Delta":624192679},{"NoteNumber":51,"Velocity":74,"Duration":99003,"SoundDuration":99003,"Delta":624291682},{"NoteNumber":63,"Velocity":88,"Duration":99003,"SoundDuration":99003,"Delta":624291682},{"NoteNumber":103,"Velocity":77,"Duration":99003,"SoundDuration":99003,"Delta":624390685},{"NoteNumber":99,"Velocity":77,"Duration":99003,"SoundDuration":99003,"Delta":624390685},{"NoteNumber":91,"Velocity":66,"Duration":99003,"SoundDuration":99003,"Delta":624390685},{"NoteNumber":94,"Velocity":66,"Duration":99003,"SoundDuration":99003,"Delta":624390685},{"NoteNumber":46,"Velocity":71,"Duration":99003,"SoundDuration":99003,"Delta":624489689},{"NoteNumber":58,"Velocity":84,"Duration":99003,"SoundDuration":99003,"Delta":624489689},{"NoteNumber":101,"Velocity":77,"Duration":109489,"SoundDuration":109489,"Delta":624588692},{"NoteNumber":98,"Velocity":77,"Duration":109489,"SoundDuration":109489,"Delta":624588692},{"NoteNumber":94,"Velocity":66,"Duration":109489,"SoundDuration":109489,"Delta":624588692},{"NoteNumber":89,"Velocity":66,"Duration":109489,"SoundDuration":109489,"Delta":624588692},{"NoteNumber":39,"Velocity":78,"Duration":100000,"SoundDuration":100000,"Delta":624698181},{"NoteNumber":51,"Velocity":93,"Duration":100000,"SoundDuration":100000,"Delta":624698181},{"NoteNumber":103,"Velocity":77,"Duration":100000,"SoundDuration":100000,"Delta":624798181},{"NoteNumber":99,"Velocity":77,"Duration":100000,"SoundDuration":100000,"Delta":624798181},{"NoteNumber":94,"Velocity":66,"Duration":100000,"SoundDuration":100000,"Delta":624798181},{"NoteNumber":91,"Velocity":66,"Duration":100000,"SoundDuration":100000,"Delta":624798181},{"NoteNumber":34,"Velocity":69,"Duration":99999,"SoundDuration":99999,"Delta":624898181},{"NoteNumber":46,"Velocity":81,"Duration":99999,"SoundDuration":99999,"Delta":624898181},{"NoteNumber":101,"Velocity":77,"Duration":100000,"SoundDuration":100000,"Delta":624998181},{"NoteNumber":98,"Velocity":77,"Duration":100000,"SoundDuration":100000,"Delta":624998181},{"NoteNumber":94,"Velocity":66,"Duration":100000,"SoundDuration":100000,"Delta":624998181},{"NoteNumber":89,"Velocity":66,"Duration":100000,"SoundDuration":100000,"Delta":624998181},{"NoteNumber":39,"Velocity":74,"Duration":100769,"SoundDuration":100769,"Delta":625098181},{"NoteNumber":51,"Velocity":88,"Duration":100769,"SoundDuration":100769,"Delta":625098181},{"NoteNumber":103,"Velocity":77,"Duration":102580,"SoundDuration":102580,"Delta":625198950},{"NoteNumber":99,"Velocity":77,"Duration":102580,"SoundDuration":102580,"Delta":625198950},{"NoteNumber":91,"Velocity":66,"Duration":102580,"SoundDuration":102580,"Delta":625198950},{"NoteNumber":94,"Velocity":66,"Duration":102580,"SoundDuration":102580,"Delta":625198950},{"NoteNumber":46,"Velocity":71,"Duration":104453,"SoundDuration":104453,"Delta":625301530},{"NoteNumber":58,"Velocity":84,"Duration":104453,"SoundDuration":104453,"Delta":625301530},{"NoteNumber":101,"Velocity":77,"Duration":106418,"SoundDuration":106418,"Delta":625405984},{"NoteNumber":98,"Velocity":77,"Duration":106418,"SoundDuration":106418,"Delta":625405984},{"NoteNumber":94,"Velocity":66,"Duration":106418,"SoundDuration":106418,"Delta":625405984},{"NoteNumber":89,"Velocity":66,"Duration":106418,"SoundDuration":106418,"Delta":625405984},{"NoteNumber":91,"Velocity":77,"Duration":214285,"SoundDuration":214285,"Delta":625512403},{"NoteNumber":94,"Velocity":77,"Duration":214285,"SoundDuration":214285,"Delta":625512403},{"NoteNumber":99,"Velocity":77,"Duration":214285,"SoundDuration":214285,"Delta":625512403},{"NoteNumber":103,"Velocity":93,"Duration":214285,"SoundDuration":214285,"Delta":625512403},{"NoteNumber":51,"Velocity":78,"Duration":107142,"SoundDuration":107142,"Delta":625512403},{"NoteNumber":63,"Velocity":93,"Duration":107142,"SoundDuration":107142,"Delta":625512403},{"NoteNumber":70,"Velocity":68,"Duration":103798,"SoundDuration":103798,"Delta":625833831},{"NoteNumber":67,"Velocity":68,"Duration":103798,"SoundDuration":103798,"Delta":625833831},{"NoteNumber":75,"Velocity":68,"Duration":103798,"SoundDuration":103798,"Delta":625833831},{"NoteNumber":79,"Velocity":80,"Duration":103798,"SoundDuration":103798,"Delta":625833831},{"NoteNumber":55,"Velocity":64,"Duration":103798,"SoundDuration":103798,"Delta":625833831},{"NoteNumber":51,"Velocity":64,"Duration":103798,"SoundDuration":103798,"Delta":625833831},{"NoteNumber":58,"Velocity":64,"Duration":103798,"SoundDuration":103798,"Delta":625833831},{"NoteNumber":63,"Velocity":75,"Duration":103798,"SoundDuration":103798,"Delta":625833831},{"NoteNumber":67,"Velocity":75,"Duration":107135,"SoundDuration":107135,"Delta":625937630},{"NoteNumber":70,"Velocity":75,"Duration":107135,"SoundDuration":107135,"Delta":625937630},{"NoteNumber":75,"Velocity":75,"Duration":107135,"SoundDuration":107135,"Delta":625937630},{"NoteNumber":79,"Velocity":89,"Duration":107135,"SoundDuration":107135,"Delta":625937630},{"NoteNumber":51,"Velocity":68,"Duration":107135,"SoundDuration":107135,"Delta":625937630},{"NoteNumber":55,"Velocity":68,"Duration":107135,"SoundDuration":107135,"Delta":625937630},{"NoteNumber":58,"Velocity":68,"Duration":107135,"SoundDuration":107135,"Delta":625937630},{"NoteNumber":63,"Velocity":80,"Duration":107135,"SoundDuration":107135,"Delta":625937630},{"NoteNumber":55,"Velocity":70,"Duration":107135,"SoundDuration":107135,"Delta":626259036},{"NoteNumber":58,"Velocity":70,"Duration":107135,"SoundDuration":107135,"Delta":626259036},{"NoteNumber":63,"Velocity":82,"Duration":107135,"SoundDuration":107135,"Delta":626259036},{"NoteNumber":39,"Velocity":65,"Duration":107135,"SoundDuration":107135,"Delta":626259036},{"NoteNumber":46,"Velocity":65,"Duration":107135,"SoundDuration":107135,"Delta":626259036},{"NoteNumber":51,"Velocity":76,"Duration":107135,"SoundDuration":107135,"Delta":626259036},{"NoteNumber":55,"Velocity":76,"Duration":107135,"SoundDuration":107135,"Delta":626366171},{"NoteNumber":58,"Velocity":76,"Duration":107135,"SoundDuration":107135,"Delta":626366171},{"NoteNumber":63,"Velocity":91,"Duration":107135,"SoundDuration":107135,"Delta":626366171},{"NoteNumber":39,"Velocity":68,"Duration":107135,"SoundDuration":107135,"Delta":626366171},{"NoteNumber":46,"Velocity":68,"Duration":107135,"SoundDuration":107135,"Delta":626366171},{"NoteNumber":51,"Velocity":80,"Duration":107135,"SoundDuration":107135,"Delta":626366171},{"NoteNumber":70,"Velocity":68,"Duration":104522,"SoundDuration":104522,"Delta":626684964},{"NoteNumber":75,"Velocity":68,"Duration":104522,"SoundDuration":104522,"Delta":626684964},{"NoteNumber":82,"Velocity":80,"Duration":104522,"SoundDuration":104522,"Delta":626684964},{"NoteNumber":55,"Velocity":64,"Duration":104522,"SoundDuration":104522,"Delta":626684964},{"NoteNumber":58,"Velocity":64,"Duration":104522,"SoundDuration":104522,"Delta":626684964},{"NoteNumber":63,"Velocity":64,"Duration":104522,"SoundDuration":104522,"Delta":626684964},{"NoteNumber":67,"Velocity":75,"Duration":104522,"SoundDuration":104522,"Delta":626684964},{"NoteNumber":70,"Velocity":75,"Duration":106754,"SoundDuration":106754,"Delta":626789486},{"NoteNumber":75,"Velocity":75,"Duration":106754,"SoundDuration":106754,"Delta":626789486},{"NoteNumber":82,"Velocity":89,"Duration":106754,"SoundDuration":106754,"Delta":626789486},{"NoteNumber":58,"Velocity":68,"Duration":106754,"SoundDuration":106754,"Delta":626789486},{"NoteNumber":55,"Velocity":68,"Duration":106754,"SoundDuration":106754,"Delta":626789486},{"NoteNumber":63,"Velocity":68,"Duration":106754,"SoundDuration":106754,"Delta":626789486},{"NoteNumber":67,"Velocity":80,"Duration":106754,"SoundDuration":106754,"Delta":626789486},{"NoteNumber":55,"Velocity":70,"Duration":106754,"SoundDuration":106754,"Delta":627109748},{"NoteNumber":58,"Velocity":70,"Duration":106754,"SoundDuration":106754,"Delta":627109748},{"NoteNumber":63,"Velocity":82,"Duration":106754,"SoundDuration":106754,"Delta":627109748},{"NoteNumber":39,"Velocity":65,"Duration":106754,"SoundDuration":106754,"Delta":627109748},{"NoteNumber":46,"Velocity":65,"Duration":106754,"SoundDuration":106754,"Delta":627109748},{"NoteNumber":51,"Velocity":76,"Duration":106754,"SoundDuration":106754,"Delta":627109748},{"NoteNumber":55,"Velocity":76,"Duration":106754,"SoundDuration":106754,"Delta":627216502},{"NoteNumber":58,"Velocity":76,"Duration":106754,"SoundDuration":106754,"Delta":627216502},{"NoteNumber":63,"Velocity":91,"Duration":106754,"SoundDuration":106754,"Delta":627216502},{"NoteNumber":39,"Velocity":68,"Duration":106754,"SoundDuration":106754,"Delta":627216502},{"NoteNumber":46,"Velocity":68,"Duration":106754,"SoundDuration":106754,"Delta":627216502},{"NoteNumber":51,"Velocity":80,"Duration":106754,"SoundDuration":106754,"Delta":627216502},{"NoteNumber":75,"Velocity":84,"Duration":108295,"SoundDuration":108295,"Delta":628070534},{"NoteNumber":79,"Velocity":84,"Duration":108295,"SoundDuration":108295,"Delta":628070534},{"NoteNumber":87,"Velocity":99,"Duration":108295,"SoundDuration":108295,"Delta":628070534},{"NoteNumber":55,"Velocity":74,"Duration":108295,"SoundDuration":108295,"Delta":628070534},{"NoteNumber":58,"Velocity":74,"Duration":108295,"SoundDuration":108295,"Delta":628070534},{"NoteNumber":63,"Velocity":74,"Duration":108295,"SoundDuration":108295,"Delta":628070534},{"NoteNumber":67,"Velocity":88,"Duration":108295,"SoundDuration":108295,"Delta":628070534},{"NoteNumber":87,"Velocity":84,"Duration":108295,"SoundDuration":108295,"Delta":628936898},{"NoteNumber":91,"Velocity":84,"Duration":108295,"SoundDuration":108295,"Delta":628936898},{"NoteNumber":99,"Velocity":99,"Duration":108295,"SoundDuration":108295,"Delta":628936898},{"NoteNumber":67,"Velocity":74,"Duration":108295,"SoundDuration":108295,"Delta":628936898},{"NoteNumber":70,"Velocity":74,"Duration":108295,"SoundDuration":108295,"Delta":628936898},{"NoteNumber":75,"Velocity":74,"Duration":108295,"SoundDuration":108295,"Delta":628936898},{"NoteNumber":79,"Velocity":88,"Duration":108295,"SoundDuration":108295,"Delta":628936898}],"license":{"name":"Creative Commons Attribution-ShareAlike 3.0 Germany","url":"http://creativecommons.org/licenses/by-sa/3.0/de/deed.en","text":"The MIDI, audio (MP3, OGG) and video files of Bernd Krueger are licensed under the cc-by-sa Germany License. This means that you can use and adapt the files, as long as you attribute the copyright holder.\n\nName: Bernd Krueger\nSource: http://www.piano-midi.de\n\nThe distribution or public playback of the files is only allowed under identical license conditions.\n\nThe scores are open source.","attribution":"MIDI files by Bernd Krueger (piano-midi.de)","attributionUrl":"http://www.piano-midi.de"}}