{
  "title": "New romantics",
  "artist": "Taylor Swift",
  "durationMs": 226179.63500833334,
  "midiSha256": "65d4623774b1cbf6312c172c898056693db8f3c28d18b21cb8c42140ef355f94",
  "midiObject": [
    {
      "NoteNumber": 46,
      "Velocity": 33,
      "Duration": 1867830,
      "SoundDuration": 1867830,
      "Delta": 0
    },
    {
      "NoteNumber": 50,
      "Velocity": 33,
      "Duration": 1867830,
      "SoundDuration": 1867830,
      "Delta": 0
    },
    {
      "NoteNumber": 53,
      "Velocity": 33,
      "Duration": 1867830,
      "SoundDuration": 1867830,
      "Delta": 0
    },
    {
      "NoteNumber": 69,
      "Velocity": 33,
      "Duration": 466189,
      "SoundDuration": 466189,
      "Delta": 491804
    },
    {
      "NoteNumber": 65,
      "Velocity": 33,
      "Duration": 699796,
      "SoundDuration": 699796,
      "Delta": 983608
    },
    {
      "NoteNumber": 70,
      "Velocity": 35,
      "Duration": 232582,
      "SoundDuration": 232582,
      "Delta": 1721314
    },
    {
      "NoteNumber": 50,
      "Velocity": 36,
      "Duration": 1867830,
      "SoundDuration": 1867830,
      "Delta": 1967216
    },
    {
      "NoteNumber": 53,
      "Velocity": 36,
      "Duration": 1867830,
      "SoundDuration": 1867830,
      "Delta": 1967216
    },
    {
      "NoteNumber": 69,
      "Velocity": 36,
      "Duration": 466189,
      "SoundDuration": 466189,
      "Delta": 1967216
    },
    {
      "NoteNumber": 57,
      "Velocity": 36,
      "Duration": 1867830,
      "SoundDuration": 1867830,
      "Delta": 1967216
    },
    {
      "NoteNumber": 65,
      "Velocity": 38,
      "Duration": 933403,
      "SoundDuration": 933403,
      "Delta": 2459020
    },
    {
      "NoteNumber": 48,
      "Velocity": 43,
      "Duration": 1867830,
      "SoundDuration": 1867830,
      "Delta": 3934432
    },
    {
      "NoteNumber": 52,
      "Velocity": 43,
      "Duration": 1867830,
      "SoundDuration": 1867830,
      "Delta": 3934432
    },
    {
      "NoteNumber": 55,
      "Velocity": 43,
      "Duration": 1867830,
      "SoundDuration": 1867830,
      "Delta": 3934432
    },
    {
      "NoteNumber": 69,
      "Velocity": 45,
      "Duration": 466189,
      "SoundDuration": 466189,
      "Delta": 4426236
    },
    {
      "NoteNumber": 65,
      "Velocity": 46,
      "Duration": 699796,
      "SoundDuration": 699796,
      "Delta": 4918040
    },
    {
      "NoteNumber": 70,
      "Velocity": 49,
      "Duration": 232582,
      "SoundDuration": 232582,
      "Delta": 5655746
    },
    {
      "NoteNumber": 46,
      "Velocity": 50,
      "Duration": 1867830,
      "SoundDuration": 1867830,
      "Delta": 5901648
    },
    {
      "NoteNumber": 50,
      "Velocity": 50,
      "Duration": 1867830,
      "SoundDuration": 1867830,
      "Delta": 5901648
    },
    {
      "NoteNumber": 69,
      "Velocity": 50,
      "Duration": 466189,
      "SoundDuration": 466189,
      "Delta": 5901648
    },
    {
      "NoteNumber": 55,
      "Velocity": 50,
      "Duration": 1867830,
      "SoundDuration": 1867830,
      "Delta": 5901648
    },
    {
      "NoteNumber": 65,
      "Velocity": 52,
      "Duration": 933403,
      "SoundDuration": 933403,
      "Delta": 6393452
    },
    {
      "NoteNumber": 46,
      "Velocity": 57,
      "Duration": 1867830,
      "SoundDuration": 1867830,
      "Delta": 7868864
    },
    {
      "NoteNumber": 50,
      "Velocity": 57,
      "Duration": 1867830,
      "SoundDuration": 1867830,
      "Delta": 7868864
    },
    {
      "NoteNumber": 53,
      "Velocity": 57,
      "Duration": 1867830,
      "SoundDuration": 1867830,
      "Delta": 7868864
    },
    {
      "NoteNumber": 69,
      "Velocity": 59,
      "Duration": 466189,
      "SoundDuration": 466189,
      "Delta": 8360668
    },
    {
      "NoteNumber": 65,
      "Velocity": 60,
      "Duration": 699796,
      "SoundDuration": 699796,
      "Delta": 8852472
    },
    {
      "NoteNumber": 70,
      "Velocity": 63,
      "Duration": 232582,
      "SoundDuration": 232582,
      "Delta": 9590178
    },
    {
      "NoteNumber": 50,
      "Velocity": 64,
      "Duration": 1867830,
      "SoundDuration": 1867830,
      "Delta": 9836080
    },
    {
      "NoteNumber": 53,
      "Velocity": 64,
      "Duration": 1867830,
      "SoundDuration": 1867830,
      "Delta": 9836080
    },
    {
      "NoteNumber": 69,
      "Velocity": 64,
      "Duration": 466189,
      "SoundDuration": 466189,
      "Delta": 9836080
    },
    {
      "NoteNumber": 57,
      "Velocity": 64,
      "Duration": 1867830,
      "SoundDuration": 1867830,
      "Delta": 9836080
    },
    {
      "NoteNumber": 65,
      "Velocity": 66,
      "Duration": 933403,
      "SoundDuration": 933403,
      "Delta": 10327884
    },
    {
      "NoteNumber": 48,
      "Velocity": 71,
      "Duration": 3736685,
      "SoundDuration": 3736685,
      "Delta": 11803296
    },
    {
      "NoteNumber": 52,
      "Velocity": 71,
      "Duration": 3736685,
      "SoundDuration": 3736685,
      "Delta": 11803296
    },
    {
      "NoteNumber": 55,
      "Velocity": 71,
      "Duration": 3736685,
      "SoundDuration": 3736685,
      "Delta": 11803296
    },
    {
      "NoteNumber": 69,
      "Velocity": 73,
      "Duration": 466189,
      "SoundDuration": 466189,
      "Delta": 12295100
    },
    {
      "NoteNumber": 65,
      "Velocity": 74,
      "Duration": 699796,
      "SoundDuration": 699796,
      "Delta": 12786904
    },
    {
      "NoteNumber": 70,
      "Velocity": 77,
      "Duration": 232582,
      "SoundDuration": 232582,
      "Delta": 13524610
    },
    {
      "NoteNumber": 69,
      "Velocity": 78,
      "Duration": 466189,
      "SoundDuration": 466189,
      "Delta": 13770512
    },
    {
      "NoteNumber": 65,
      "Velocity": 80,
      "Duration": 933403,
      "SoundDuration": 933403,
      "Delta": 14262316
    },
    {
      "NoteNumber": 65,
      "Velocity": 80,
      "Duration": 232582,
      "SoundDuration": 232582,
      "Delta": 15491826
    },
    {
      "NoteNumber": 46,
      "Velocity": 80,
      "Duration": 466189,
      "SoundDuration": 466189,
      "Delta": 15737728
    },
    {
      "NoteNumber": 67,
      "Velocity": 80,
      "Duration": 466189,
      "SoundDuration": 466189,
      "Delta": 15737728
    },
    {
      "NoteNumber": 50,
      "Velocity": 80,
      "Duration": 466189,
      "SoundDuration": 466189,
      "Delta": 16229531
    },
    {
      "NoteNumber": 53,
      "Velocity": 80,
      "Duration": 466189,
      "SoundDuration": 466189,
      "Delta": 16229531
    },
    {
      "NoteNumber": 69,
      "Velocity": 80,
      "Duration": 232582,
      "SoundDuration": 232582,
      "Delta": 16229531
    },
    {
      "NoteNumber": 67,
      "Velocity": 80,
      "Duration": 466189,
      "SoundDuration": 466189,
      "Delta": 16475434
    },
    {
      "NoteNumber": 46,
      "Velocity": 80,
      "Duration": 195902,
      "SoundDuration": 195902,
      "Delta": 16721336
    },
    {
      "NoteNumber": 46,
      "Velocity": 80,
      "Duration": 232582,
      "SoundDuration": 232582,
      "Delta": 16967238
    },
    {
      "NoteNumber": 50,
      "Velocity": 80,
      "Duration": 441804,
      "SoundDuration": 441804,
      "Delta": 17213140
    },
    {
      "NoteNumber": 53,
      "Velocity": 80,
      "Duration": 466189,
      "SoundDuration": 466189,
      "Delta": 17213140
    },
    {
      "NoteNumber": 65,
      "Velocity": 80,
      "Duration": 232582,
      "SoundDuration": 232582,
      "Delta": 17459042
    },
    {
      "NoteNumber": 50,
      "Velocity": 80,
      "Duration": 232582,
      "SoundDuration": 232582,
      "Delta": 17704944
    },
    {
      "NoteNumber": 67,
      "Velocity": 80,
      "Duration": 232582,
      "SoundDuration": 232582,
      "Delta": 17704944
    },
    {
      "NoteNumber": 65,
      "Velocity": 80,
      "Duration": 232582,
      "SoundDuration": 232582,
      "Delta": 17950846
    },
    {
      "NoteNumber": 45,
      "Velocity": 80,
      "Duration": 232582,
      "SoundDuration": 232582,
      "Delta": 17950846
    },
    {
      "NoteNumber": 53,
      "Velocity": 80,
      "Duration": 466189,
      "SoundDuration": 466189,
      "Delta": 18196748
    },
    {
      "NoteNumber": 57,
      "Velocity": 80,
      "Duration": 466189,
      "SoundDuration": 466189,
      "Delta": 18196748
    },
    {
      "NoteNumber": 67,
      "Velocity": 80,
      "Duration": 232582,
      "SoundDuration": 232582,
      "Delta": 18196748
    },
    {
      "NoteNumber": 69,
      "Velocity": 80,
      "Duration": 232582,
      "SoundDuration": 232582,
      "Delta": 18442650
    },
    {
      "NoteNumber": 67,
      "Velocity": 80,
      "Duration": 232582,
      "SoundDuration": 232582,
      "Delta": 18688552
    },
    {
      "NoteNumber": 45,
      "Velocity": 80,
      "Duration": 195902,
      "SoundDuration": 195902,
      "Delta": 18688552
    },
    {
      "NoteNumber": 65,
      "Velocity": 80,
      "Duration": 72951,
      "SoundDuration": 72951,
      "Delta": 18934454
    },
    {
      "NoteNumber": 45,
      "Velocity": 80,
      "Duration": 232582,
      "SoundDuration": 232582,
      "Delta": 18934454
    },
    {
      "NoteNumber": 65,
      "Velocity": 80,
      "Duration": 115778,
      "SoundDuration": 115778,
      "Delta": 19057405
    },
    {
      "NoteNumber": 53,
      "Velocity": 80,
      "Duration": 466189,
      "SoundDuration": 466189,
      "Delta": 19180356
    },
    {
      "NoteNumber": 57,
      "Velocity": 80,
      "Duration": 466189,
      "SoundDuration": 466189,
      "Delta": 19180356
    },
    {
      "NoteNumber": 65,
      "Velocity": 80,
      "Duration": 232582,
      "SoundDuration": 232582,
      "Delta": 19426258
    },
    {
      "NoteNumber": 48,
      "Velocity": 80,
      "Duration": 466189,
      "SoundDuration": 466189,
      "Delta": 19672160
    },
    {
      "NoteNumber": 67,
      "Velocity": 80,
      "Duration": 466189,
      "SoundDuration": 466189,
      "Delta": 19672160
    },
    {
      "NoteNumber": 69,
      "Velocity": 80,
      "Duration": 232582,
      "SoundDuration": 232582,
      "Delta": 20163964
    },
    {
      "NoteNumber": 52,
      "Velocity": 80,
      "Duration": 466189,
      "SoundDuration": 466189,
      "Delta": 20163964
    },
    {
      "NoteNumber": 55,
      "Velocity": 80,
      "Duration": 466189,
      "SoundDuration": 466189,
      "Delta": 20163964
    },
    {
      "NoteNumber": 60,
      "Velocity": 80,
      "Duration": 466189,
      "SoundDuration": 466189,
      "Delta": 20163964
    },
    {
      "NoteNumber": 67,
      "Velocity": 80,
      "Duration": 466189,
      "SoundDuration": 466189,
      "Delta": 20409866
    },
    {
      "NoteNumber": 48,
      "Velocity": 80,
      "Duration": 195902,
      "SoundDuration": 195902,
      "Delta": 20655768
    },
    {
      "NoteNumber": 48,
      "Velocity": 80,
      "Duration": 232582,
      "SoundDuration": 232582,
      "Delta": 20901670
    },
    {
      "NoteNumber": 52,
      "Velocity": 80,
      "Duration": 466189,
      "SoundDuration": 466189,
      "Delta": 21147572
    },
    {
      "NoteNumber": 55,
      "Velocity": 80,
      "Duration": 466189,
      "SoundDuration": 466189,
      "Delta": 21147572
    },
    {
      "NoteNumber": 60,
      "Velocity": 80,
      "Duration": 466189,
      "SoundDuration": 466189,
      "Delta": 21147572
    },
    {
      "NoteNumber": 65,
      "Velocity": 80,
      "Duration": 232582,
      "SoundDuration": 232582,
      "Delta": 21393474
    },
    {
      "NoteNumber": 67,
      "Velocity": 80,
      "Duration": 232582,
      "SoundDuration": 232582,
      "Delta": 21639376
    },
    {
      "NoteNumber": 43,
      "Velocity": 80,
      "Duration": 232582,
      "SoundDuration": 232582,
      "Delta": 21639376
    },
    {
      "NoteNumber": 50,
      "Velocity": 80,
      "Duration": 195902,
      "SoundDuration": 195902,
      "Delta": 21885278
    },
    {
      "NoteNumber": 65,
      "Velocity": 80,
      "Duration": 232582,
      "SoundDuration": 232582,
      "Delta": 21885278
    },
    {
      "NoteNumber": 50,
      "Velocity": 80,
      "Duration": 195902,
      "SoundDuration": 195902,
      "Delta": 22131180
    },
    {
      "NoteNumber": 53,
      "Velocity": 80,
      "Duration": 232582,
      "SoundDuration": 232582,
      "Delta": 22131180
    },
    {
      "NoteNumber": 67,
      "Velocity": 80,
      "Duration": 232582,
      "SoundDuration": 232582,
      "Delta": 22131180
    },
    {
      "NoteNumber": 50,
      "Velocity": 80,
      "Duration": 232582,
      "SoundDuration": 232582,
      "Delta": 22377082
    },
    {
      "NoteNumber": 69,
      "Velocity": 80,
      "Duration": 232582,
      "SoundDuration": 232582,
      "Delta": 22377082
    },
    {
      "NoteNumber": 67,
      "Velocity": 80,
      "Duration": 232582,
      "SoundDuration": 232582,
      "Delta": 22622984
    },
    {
      "NoteNumber": 43,
      "Velocity": 80,
      "Duration": 232582,
      "SoundDuration": 232582,
      "Delta": 22622984
    },
    {
      "NoteNumber": 50,
      "Velocity": 80,
      "Duration": 195902,
      "SoundDuration": 195902,
      "Delta": 22868886
    },
    {
      "NoteNumber": 65,
      "Velocity": 80,
      "Duration": 72951,
      "SoundDuration": 72951,
      "Delta": 22868886
    },
    {
      "NoteNumber": 65,
      "Velocity": 80,
      "Duration": 115778,
      "SoundDuration": 115778,
      "Delta": 22991837
    },
    {
      "NoteNumber": 50,
      "Velocity": 80,
      "Duration": 195902,
      "SoundDuration": 195902,
      "Delta": 23114788
    },
    {
      "NoteNumber": 53,
      "Velocity": 80,
      "Duration": 232582,
      "SoundDuration": 232582,
      "Delta": 23114788
    },
    {
      "NoteNumber": 50,
      "Velocity": 80,
      "Duration": 232582,
      "SoundDuration": 232582,
      "Delta": 23360690
    },
    {
      "NoteNumber": 65,
      "Velocity": 80,
      "Duration": 232582,
      "SoundDuration": 232582,
      "Delta": 23360690
    },
    {
      "NoteNumber": 46,
      "Velocity": 80,
      "Duration": 466189,
      "SoundDuration": 466189,
      "Delta": 23606592
    },
    {
      "NoteNumber": 72,
      "Velocity": 80,
      "Duration": 466189,
      "SoundDuration": 466189,
      "Delta": 23606592
    },
    {
      "NoteNumber": 50,
      "Velocity": 80,
      "Duration": 466189,
      "SoundDuration": 466189,
      "Delta": 24098396
    },
    {
      "NoteNumber": 53,
      "Velocity": 80,
      "Duration": 466189,
      "SoundDuration": 466189,
      "Delta": 24098396
    },
    {
      "NoteNumber": 69,
      "Velocity": 80,
      "Duration": 232582,
      "SoundDuration": 232582,
      "Delta": 24098396
    },
    {
      "NoteNumber": 67,
      "Velocity": 80,
      "Duration": 466189,
      "SoundDuration": 466189,
      "Delta": 24344298
    },
    {
      "NoteNumber": 46,
      "Velocity": 80,
      "Duration": 195902,
      "SoundDuration": 195902,
      "Delta": 24590200
    },
    {
      "NoteNumber": 46,
      "Velocity": 80,
      "Duration": 232582,
      "SoundDuration": 232582,
      "Delta": 24836102
    },
    {
      "NoteNumber": 50,
      "Velocity": 80,
      "Duration": 441804,
      "SoundDuration": 441804,
      "Delta": 25082004
    },
    {
      "NoteNumber": 53,
      "Velocity": 80,
      "Duration": 466189,
      "SoundDuration": 466189,
      "Delta": 25082004
    },
    {
      "NoteNumber": 65,
      "Velocity": 80,
      "Duration": 232582,
      "SoundDuration": 232582,
      "Delta": 25327906
    },
    {
      "NoteNumber": 50,
      "Velocity": 80,
      "Duration": 232582,
      "SoundDuration": 232582,
      "Delta": 25573808
    },
    {
      "NoteNumber": 67,
      "Velocity": 80,
      "Duration": 232582,
      "SoundDuration": 232582,
      "Delta": 25573808
    },
    {
      "NoteNumber": 65,
      "Velocity": 80,
      "Duration": 232582,
      "SoundDuration": 232582,
      "Delta": 25819710
    },
    {
      "NoteNumber": 45,
      "Velocity": 80,
      "Duration": 232582,
      "SoundDuration": 232582,
      "Delta": 25819710
    },
    {
      "NoteNumber": 53,
      "Velocity": 80,
      "Duration": 466189,
      "SoundDuration": 466189,
      "Delta": 26065612
    },
    {
      "NoteNumber": 57,
      "Velocity": 80,
      "Duration": 466189,
      "SoundDuration": 466189,
      "Delta": 26065612
    },
    {
      "NoteNumber": 67,
      "Velocity": 80,
      "Duration": 232582,
      "SoundDuration": 232582,
      "Delta": 26065612
    },
    {
      "NoteNumber": 69,
      "Velocity": 80,
      "Duration": 232582,
      "SoundDuration": 232582,
      "Delta": 26311514
    },
    {
      "NoteNumber": 67,
      "Velocity": 80,
      "Duration": 232582,
      "SoundDuration": 232582,
      "Delta": 26557416
    },
    {
      "NoteNumber": 45,
      "Velocity": 80,
      "Duration": 195902,
      "SoundDuration": 195902,
      "Delta": 26557416
    },
    {
      "NoteNumber": 65,
      "Velocity": 80,
      "Duration": 466189,
      "SoundDuration": 466189,
      "Delta": 26803318
    },
    {
      "NoteNumber": 45,
      "Velocity": 80,
      "Duration": 232582,
      "SoundDuration": 232582,
      "Delta": 26803318
    },
    {
      "NoteNumber": 53,
      "Velocity": 80,
      "Duration": 466189,
      "SoundDuration": 466189,
      "Delta": 27049220
    },
    {
      "NoteNumber": 57,
      "Velocity": 80,
      "Duration": 466189,
      "SoundDuration": 466189,
      "Delta": 27049220
    },
    {
      "NoteNumber": 48,
      "Velocity": 80,
      "Duration": 466189,
      "SoundDuration": 466189,
      "Delta": 27541024
    },
    {
      "NoteNumber": 67,
      "Velocity": 80,
      "Duration": 232582,
      "SoundDuration": 232582,
      "Delta": 27541024
    },
    {
      "NoteNumber": 65,
      "Velocity": 80,
      "Duration": 232582,
      "SoundDuration": 232582,
      "Delta": 27786926
    },
    {
      "NoteNumber": 52,
      "Velocity": 80,
      "Duration": 466189,
      "SoundDuration": 466189,
      "Delta": 28032828
    },
    {
      "NoteNumber": 55,
      "Velocity": 80,
      "Duration": 466189,
      "SoundDuration": 466189,
      "Delta": 28032828
    },
    {
      "NoteNumber": 67,
      "Velocity": 80,
      "Duration": 232582,
      "SoundDuration": 232582,
      "Delta": 28032828
    },
    {
      "NoteNumber": 60,
      "Velocity": 80,
      "Duration": 466189,
      "SoundDuration": 466189,
      "Delta": 28032828
    },
    {
      "NoteNumber": 69,
      "Velocity": 80,
      "Duration": 232582,
      "SoundDuration": 232582,
      "Delta": 28278730
    },
    {
      "NoteNumber": 48,
      "Velocity": 80,
      "Duration": 195902,
      "SoundDuration": 195902,
      "Delta": 28524632
    },
    {
      "NoteNumber": 67,
      "Velocity": 80,
      "Duration": 232582,
      "SoundDuration": 232582,
      "Delta": 28524632
    },
    {
      "NoteNumber": 65,
      "Velocity": 80,
      "Duration": 699796,
      "SoundDuration": 699796,
      "Delta": 28770534
    },
    {
      "NoteNumber": 48,
      "Velocity": 80,
      "Duration": 232582,
      "SoundDuration": 232582,
      "Delta": 28770534
    },
    {
      "NoteNumber": 52,
      "Velocity": 80,
      "Duration": 466189,
      "SoundDuration": 466189,
      "Delta": 29016436
    },
    {
      "NoteNumber": 55,
      "Velocity": 80,
      "Duration": 466189,
      "SoundDuration": 466189,
      "Delta": 29016436
    },
    {
      "NoteNumber": 60,
      "Velocity": 80,
      "Duration": 466189,
      "SoundDuration": 466189,
      "Delta": 29016436
    },
    {
      "NoteNumber": 48,
      "Velocity": 80,
      "Duration": 466189,
      "SoundDuration": 466189,
      "Delta": 29508240
    },
    {
      "NoteNumber": 52,
      "Velocity": 80,
      "Duration": 466189,
      "SoundDuration": 466189,
      "Delta": 30000044
    },
    {
      "NoteNumber": 55,
      "Velocity": 80,
      "Duration": 466189,
      "SoundDuration": 466189,
      "Delta": 30000044
    },
    {
      "NoteNumber": 60,
      "Velocity": 80,
      "Duration": 466189,
      "SoundDuration": 466189,
      "Delta": 30000044
    },
    {
      "NoteNumber": 48,
      "Velocity": 80,
      "Duration": 195902,
      "SoundDuration": 195902,
      "Delta": 30491848
    },
    {
      "NoteNumber": 48,
      "Velocity": 80,
      "Duration": 232582,
      "SoundDuration": 232582,
      "Delta": 30737750
    },
    {
      "NoteNumber": 52,
      "Velocity": 80,
      "Duration": 466189,
      "SoundDuration": 466189,
      "Delta": 30983652
    },
    {
      "NoteNumber": 55,
      "Velocity": 80,
      "Duration": 466189,
      "SoundDuration": 466189,
      "Delta": 30983652
    },
    {
      "NoteNumber": 60,
      "Velocity": 80,
      "Duration": 466189,
      "SoundDuration": 466189,
      "Delta": 30983652
    },
    {
      "NoteNumber": 65,
      "Velocity": 80,
      "Duration": 232582,
      "SoundDuration": 232582,
      "Delta": 31229554
    },
    {
      "NoteNumber": 77,
      "Velocity": 80,
      "Duration": 232582,
      "SoundDuration": 232582,
      "Delta": 31229554
    },
    {
      "NoteNumber": 46,
      "Velocity": 80,
      "Duration": 232582,
      "SoundDuration": 232582,
      "Delta": 31475456
    },
    {
      "NoteNumber": 67,
      "Velocity": 80,
      "Duration": 466189,
      "SoundDuration": 466189,
      "Delta": 31475456
    },
    {
      "NoteNumber": 79,
      "Velocity": 80,
      "Duration": 466189,
      "SoundDuration": 466189,
      "Delta": 31475456
    },
    {
      "NoteNumber": 53,
      "Velocity": 80,
      "Duration": 195902,
      "SoundDuration": 195902,
      "Delta": 31721358
    },
    {
      "NoteNumber": 53,
      "Velocity": 80,
      "Duration": 232582,
      "SoundDuration": 232582,
      "Delta": 31967260
    },
    {
      "NoteNumber": 69,
      "Velocity": 80,
      "Duration": 232582,
      "SoundDuration": 232582,
      "Delta": 31967260
    },
    {
      "NoteNumber": 81,
      "Velocity": 80,
      "Duration": 232582,
      "SoundDuration": 232582,
      "Delta": 31967260
    },
    {
      "NoteNumber": 58,
      "Velocity": 80,
      "Duration": 232582,
      "SoundDuration": 232582,
      "Delta": 31967260
    },
    {
      "NoteNumber": 46,
      "Velocity": 80,
      "Duration": 232582,
      "SoundDuration": 232582,
      "Delta": 32213162
    },
    {
      "NoteNumber": 67,
      "Velocity": 80,
      "Duration": 466189,
      "SoundDuration": 466189,
      "Delta": 32213162
    },
    {
      "NoteNumber": 79,
      "Velocity": 80,
      "Duration": 466189,
      "SoundDuration": 466189,
      "Delta": 32213162
    },
    {
      "NoteNumber": 53,
      "Velocity": 80,
      "Duration": 232582,
      "SoundDuration": 232582,
      "Delta": 32459063
    },
    {
      "NoteNumber": 46,
      "Velocity": 80,
      "Duration": 232582,
      "SoundDuration": 232582,
      "Delta": 32704966
    },
    {
      "NoteNumber": 53,
      "Velocity": 80,
      "Duration": 466189,
      "SoundDuration": 466189,
      "Delta": 32950868
    },
    {
      "NoteNumber": 58,
      "Velocity": 80,
      "Duration": 466189,
      "SoundDuration": 466189,
      "Delta": 32950868
    },
    {
      "NoteNumber": 65,
      "Velocity": 80,
      "Duration": 232582,
      "SoundDuration": 232582,
      "Delta": 33196770
    },
    {
      "NoteNumber": 50,
      "Velocity": 80,
      "Duration": 232582,
      "SoundDuration": 232582,
      "Delta": 33442672
    },
    {
      "NoteNumber": 67,
      "Velocity": 80,
      "Duration": 232582,
      "SoundDuration": 232582,
      "Delta": 33442672
    },
    {
      "NoteNumber": 65,
      "Velocity": 80,
      "Duration": 232582,
      "SoundDuration": 232582,
      "Delta": 33688574
    },
    {
      "NoteNumber": 45,
      "Velocity": 80,
      "Duration": 232582,
      "SoundDuration": 232582,
      "Delta": 33688574
    },
    {
      "NoteNumber": 53,
      "Velocity": 80,
      "Duration": 232582,
      "SoundDuration": 232582,
      "Delta": 33934476
    },
    {
      "NoteNumber": 57,
      "Velocity": 80,
      "Duration": 232582,
      "SoundDuration": 232582,
      "Delta": 33934476
    },
    {
      "NoteNumber": 67,
      "Velocity": 80,
      "Duration": 232582,
      "SoundDuration": 232582,
      "Delta": 33934476
    },
    {
      "NoteNumber": 69,
      "Velocity": 80,
      "Duration": 232582,
      "SoundDuration": 232582,
      "Delta": 34180378
    },
    {
      "NoteNumber": 45,
      "Velocity": 80,
      "Duration": 232582,
      "SoundDuration": 232582,
      "Delta": 34180378
    },
    {
      "NoteNumber": 50,
      "Velocity": 80,
      "Duration": 195902,
      "SoundDuration": 195902,
      "Delta": 34426280
    },
    {
      "NoteNumber": 67,
      "Velocity": 80,
      "Duration": 232582,
      "SoundDuration": 232582,
      "Delta": 34426280
    },
    {
      "NoteNumber": 50,
      "Velocity": 80,
      "Duration": 232582,
      "SoundDuration": 232582,
      "Delta": 34672182
    },
    {
      "NoteNumber": 65,
      "Velocity": 80,
      "Duration": 441804,
      "SoundDuration": 441804,
      "Delta": 34672182
    },
    {
      "NoteNumber": 53,
      "Velocity": 80,
      "Duration": 466189,
      "SoundDuration": 466189,
      "Delta": 34918084
    },
    {
      "NoteNumber": 57,
      "Velocity": 80,
      "Duration": 466189,
      "SoundDuration": 466189,
      "Delta": 34918084
    },
    {
      "NoteNumber": 65,
      "Velocity": 80,
      "Duration": 232582,
      "SoundDuration": 232582,
      "Delta": 35163986
    },
    {
      "NoteNumber": 77,
      "Velocity": 80,
      "Duration": 232582,
      "SoundDuration": 232582,
      "Delta": 35163986
    },
    {
      "NoteNumber": 48,
      "Velocity": 80,
      "Duration": 195902,
      "SoundDuration": 195902,
      "Delta": 35409888
    },
    {
      "NoteNumber": 67,
      "Velocity": 80,
      "Duration": 466189,
      "SoundDuration": 466189,
      "Delta": 35409888
    },
    {
      "NoteNumber": 79,
      "Velocity": 80,
      "Duration": 466189,
      "SoundDuration": 466189,
      "Delta": 35409888
    },
    {
      "NoteNumber": 48,
      "Velocity": 80,
      "Duration": 232582,
      "SoundDuration": 232582,
      "Delta": 35655790
    },
    {
      "NoteNumber": 69,
      "Velocity": 80,
      "Duration": 232582,
      "SoundDuration": 232582,
      "Delta": 35901692
    },
    {
      "NoteNumber": 52,
      "Velocity": 80,
      "Duration": 232582,
      "SoundDuration": 232582,
      "Delta": 35901692
    },
    {
      "NoteNumber": 55,
      "Velocity": 80,
      "Duration": 232582,
      "SoundDuration": 232582,
      "Delta": 35901692
    },
    {
      "NoteNumber": 81,
      "Velocity": 80,
      "Duration": 232582,
      "SoundDuration": 232582,
      "Delta": 35901692
    },
    {
      "NoteNumber": 67,
      "Velocity": 80,
      "Duration": 232582,
      "SoundDuration": 232582,
      "Delta": 36147594
    },
    {
      "NoteNumber": 43,
      "Velocity": 80,
      "Duration": 232582,
      "SoundDuration": 232582,
      "Delta": 36147594
    },
    {
      "NoteNumber": 79,
      "Velocity": 80,
      "Duration": 232582,
      "SoundDuration": 232582,
      "Delta": 36147594
    },
    {
      "NoteNumber": 48,
      "Velocity": 80,
      "Duration": 232582,
      "SoundDuration": 232582,
      "Delta": 36393496
    },
    {
      "NoteNumber": 60,
      "Velocity": 80,
      "Duration": 232582,
      "SoundDuration": 232582,
      "Delta": 36393496
    },
    {
      "NoteNumber": 67,
      "Velocity": 80,
      "Duration": 195902,
      "SoundDuration": 195902,
      "Delta": 36639398
    },
    {
      "NoteNumber": 43,
      "Velocity": 80,
      "Duration": 232582,
      "SoundDuration": 232582,
      "Delta": 36639398
    },
    {
      "NoteNumber": 52,
      "Velocity": 80,
      "Duration": 466189,
      "SoundDuration": 466189,
      "Delta": 36885300
    },
    {
      "NoteNumber": 55,
      "Velocity": 80,
      "Duration": 466189,
      "SoundDuration": 466189,
      "Delta": 36885300
    },
    {
      "NoteNumber": 67,
      "Velocity": 80,
      "Duration": 195902,
      "SoundDuration": 195902,
      "Delta": 36885300
    },
    {
      "NoteNumber": 67,
      "Velocity": 80,
      "Duration": 195902,
      "SoundDuration": 195902,
      "Delta": 37131202
    },
    {
      "NoteNumber": 67,
      "Velocity": 80,
      "Duration": 232582,
      "SoundDuration": 232582,
      "Delta": 37377104
    },
    {
      "NoteNumber": 43,
      "Velocity": 80,
      "Duration": 232582,
      "SoundDuration": 232582,
      "Delta": 37377104
    },
    {
      "NoteNumber": 46,
      "Velocity": 80,
      "Duration": 195902,
      "SoundDuration": 195902,
      "Delta": 37623006
    },
    {
      "NoteNumber": 65,
      "Velocity": 80,
      "Duration": 232582,
      "SoundDuration": 232582,
      "Delta": 37623006
    },
    {
      "NoteNumber": 46,
      "Velocity": 80,
      "Duration": 195902,
      "SoundDuration": 195902,
      "Delta": 37868908
    },
    {
      "NoteNumber": 53,
      "Velocity": 80,
      "Duration": 232582,
      "SoundDuration": 232582,
      "Delta": 37868908
    },
    {
      "NoteNumber": 67,
      "Velocity": 80,
      "Duration": 232582,
      "SoundDuration": 232582,
      "Delta": 37868908
    },
    {
      "NoteNumber": 46,
      "Velocity": 80,
      "Duration": 195902,
      "SoundDuration": 195902,
      "Delta": 38114810
    },
    {
      "NoteNumber": 69,
      "Velocity": 80,
      "Duration": 232582,
      "SoundDuration": 232582,
      "Delta": 38114810
    },
    {
      "NoteNumber": 46,
      "Velocity": 80,
      "Duration": 195902,
      "SoundDuration": 195902,
      "Delta": 38360712
    },
    {
      "NoteNumber": 67,
      "Velocity": 80,
      "Duration": 115778,
      "SoundDuration": 115778,
      "Delta": 38360712
    },
    {
      "NoteNumber": 65,
      "Velocity": 80,
      "Duration": 349385,
      "SoundDuration": 349385,
      "Delta": 38483663
    },
    {
      "NoteNumber": 46,
      "Velocity": 80,
      "Duration": 195902,
      "SoundDuration": 195902,
      "Delta": 38606614
    },
    {
      "NoteNumber": 46,
      "Velocity": 80,
      "Duration": 441804,
      "SoundDuration": 441804,
      "Delta": 38852516
    },
    {
      "NoteNumber": 53,
      "Velocity": 80,
      "Duration": 466189,
      "SoundDuration": 466189,
      "Delta": 38852516
    },
    {
      "NoteNumber": 65,
      "Velocity": 80,
      "Duration": 232582,
      "SoundDuration": 232582,
      "Delta": 39098418
    },
    {
      "NoteNumber": 77,
      "Velocity": 80,
      "Duration": 232582,
      "SoundDuration": 232582,
      "Delta": 39098418
    },
    {
      "NoteNumber": 46,
      "Velocity": 80,
      "Duration": 232582,
      "SoundDuration": 232582,
      "Delta": 39344320
    },
    {
      "NoteNumber": 72,
      "Velocity": 80,
      "Duration": 466189,
      "SoundDuration": 466189,
      "Delta": 39344320
    },
    {
      "NoteNumber": 84,
      "Velocity": 80,
      "Duration": 466189,
      "SoundDuration": 466189,
      "Delta": 39344320
    },
    {
      "NoteNumber": 53,
      "Velocity": 80,
      "Duration": 195902,
      "SoundDuration": 195902,
      "Delta": 39590222
    },
    {
      "NoteNumber": 53,
      "Velocity": 80,
      "Duration": 232582,
      "SoundDuration": 232582,
      "Delta": 39836124
    },
    {
      "NoteNumber": 69,
      "Velocity": 80,
      "Duration": 232582,
      "SoundDuration": 232582,
      "Delta": 39836124
    },
    {
      "NoteNumber": 81,
      "Velocity": 80,
      "Duration": 232582,
      "SoundDuration": 232582,
      "Delta": 39836124
    },
    {
      "NoteNumber": 58,
      "Velocity": 80,
      "Duration": 232582,
      "SoundDuration": 232582,
      "Delta": 39836124
    },
    {
      "NoteNumber": 46,
      "Velocity": 80,
      "Duration": 232582,
      "SoundDuration": 232582,
      "Delta": 40082026
    },
    {
      "NoteNumber": 67,
      "Velocity": 80,
      "Duration": 466189,
      "SoundDuration": 466189,
      "Delta": 40082026
    },
    {
      "NoteNumber": 79,
      "Velocity": 80,
      "Duration": 466189,
      "SoundDuration": 466189,
      "Delta": 40082026
    },
    {
      "NoteNumber": 53,
      "Velocity": 80,
      "Duration": 232582,
      "SoundDuration": 232582,
      "Delta": 40327928
    },
    {
      "NoteNumber": 46,
      "Velocity": 80,
      "Duration": 232582,
      "SoundDuration": 232582,
      "Delta": 40573830
    },
    {
      "NoteNumber": 53,
      "Velocity": 80,
      "Duration": 466189,
      "SoundDuration": 466189,
      "Delta": 40819732
    },
    {
      "NoteNumber": 65,
      "Velocity": 80,
      "Duration": 232582,
      "SoundDuration": 232582,
      "Delta": 40819732
    },
    {
      "NoteNumber": 58,
      "Velocity": 80,
      "Duration": 466189,
      "SoundDuration": 466189,
      "Delta": 40819732
    },
    {
      "NoteNumber": 67,
      "Velocity": 80,
      "Duration": 195902,
      "SoundDuration": 195902,
      "Delta": 41065634
    },
    {
      "NoteNumber": 50,
      "Velocity": 80,
      "Duration": 232582,
      "SoundDuration": 232582,
      "Delta": 41311536
    },
    {
      "NoteNumber": 67,
      "Velocity": 80,
      "Duration": 232582,
      "SoundDuration": 232582,
      "Delta": 41311536
    },
    {
      "NoteNumber": 65,
      "Velocity": 80,
      "Duration": 232582,
      "SoundDuration": 232582,
      "Delta": 41557438
    },
    {
      "NoteNumber": 45,
      "Velocity": 80,
      "Duration": 232582,
      "SoundDuration": 232582,
      "Delta": 41557438
    },
    {
      "NoteNumber": 53,
      "Velocity": 80,
      "Duration": 232582,
      "SoundDuration": 232582,
      "Delta": 41803340
    },
    {
      "NoteNumber": 57,
      "Velocity": 80,
      "Duration": 232582,
      "SoundDuration": 232582,
      "Delta": 41803340
    },
    {
      "NoteNumber": 67,
      "Velocity": 80,
      "Duration": 232582,
      "SoundDuration": 232582,
      "Delta": 41803340
    },
    {
      "NoteNumber": 69,
      "Velocity": 80,
      "Duration": 232582,
      "SoundDuration": 232582,
      "Delta": 42049242
    },
    {
      "NoteNumber": 45,
      "Velocity": 80,
      "Duration": 232582,
      "SoundDuration": 232582,
      "Delta": 42049242
    },
    {
      "NoteNumber": 50,
      "Velocity": 80,
      "Duration": 195902,
      "SoundDuration": 195902,
      "Delta": 42295144
    },
    {
      "NoteNumber": 67,
      "Velocity": 80,
      "Duration": 232582,
      "SoundDuration": 232582,
      "Delta": 42295144
    },
    {
      "NoteNumber": 50,
      "Velocity": 80,
      "Duration": 232582,
      "SoundDuration": 232582,
      "Delta": 42541046
    },
    {
      "NoteNumber": 65,
      "Velocity": 80,
      "Duration": 232582,
      "SoundDuration": 232582,
      "Delta": 42541046
    },
    {
      "NoteNumber": 53,
      "Velocity": 80,
      "Duration": 466189,
      "SoundDuration": 466189,
      "Delta": 42786948
    },
    {
      "NoteNumber": 57,
      "Velocity": 80,
      "Duration": 466189,
      "SoundDuration": 466189,
      "Delta": 42786948
    },
    {
      "NoteNumber": 62,
      "Velocity": 80,
      "Duration": 232582,
      "SoundDuration": 232582,
      "Delta": 42786948
    },
    {
      "NoteNumber": 74,
      "Velocity": 80,
      "Duration": 232582,
      "SoundDuration": 232582,
      "Delta": 42786948
    },
    {
      "NoteNumber": 65,
      "Velocity": 80,
      "Duration": 232582,
      "SoundDuration": 232582,
      "Delta": 43032850
    },
    {
      "NoteNumber": 77,
      "Velocity": 80,
      "Duration": 232582,
      "SoundDuration": 232582,
      "Delta": 43032850
    },
    {
      "NoteNumber": 48,
      "Velocity": 80,
      "Duration": 195902,
      "SoundDuration": 195902,
      "Delta": 43278752
    },
    {
      "NoteNumber": 67,
      "Velocity": 80,
      "Duration": 232582,
      "SoundDuration": 232582,
      "Delta": 43278752
    },
    {
      "NoteNumber": 79,
      "Velocity": 80,
      "Duration": 232582,
      "SoundDuration": 232582,
      "Delta": 43278752
    },
    {
      "NoteNumber": 65,
      "Velocity": 80,
      "Duration": 232582,
      "SoundDuration": 232582,
      "Delta": 43524654
    },
    {
      "NoteNumber": 48,
      "Velocity": 80,
      "Duration": 232582,
      "SoundDuration": 232582,
      "Delta": 43524654
    },
    {
      "NoteNumber": 77,
      "Velocity": 80,
      "Duration": 232582,
      "SoundDuration": 232582,
      "Delta": 43524654
    },
    {
      "NoteNumber": 52,
      "Velocity": 80,
      "Duration": 232582,
      "SoundDuration": 232582,
      "Delta": 43770556
    },
    {
      "NoteNumber": 55,
      "Velocity": 80,
      "Duration": 232582,
      "SoundDuration": 232582,
      "Delta": 43770556
    },
    {
      "NoteNumber": 67,
      "Velocity": 80,
      "Duration": 232582,
      "SoundDuration": 232582,
      "Delta": 43770556
    },
    {
      "NoteNumber": 79,
      "Velocity": 80,
      "Duration": 232582,
      "SoundDuration": 232582,
      "Delta": 43770556
    },
    {
      "NoteNumber": 69,
      "Velocity": 80,
      "Duration": 232582,
      "SoundDuration": 232582,
      "Delta": 44016458
    },
    {
      "NoteNumber": 43,
      "Velocity": 80,
      "Duration": 232582,
      "SoundDuration": 232582,
      "Delta": 44016458
    },
    {
      "NoteNumber": 81,
      "Velocity": 80,
      "Duration": 232582,
      "SoundDuration": 232582,
      "Delta": 44016458
    },
    {
      "NoteNumber": 48,
      "Velocity": 80,
      "Duration": 232582,
      "SoundDuration": 232582,
      "Delta": 44262360
    },
    {
      "NoteNumber": 67,
      "Velocity": 80,
      "Duration": 232582,
      "SoundDuration": 232582,
      "Delta": 44262360
    },
    {
      "NoteNumber": 79,
      "Velocity": 80,
      "Duration": 232582,
      "SoundDuration": 232582,
      "Delta": 44262360
    },
    {
      "NoteNumber": 65,
      "Velocity": 80,
      "Duration": 699796,
      "SoundDuration": 699796,
      "Delta": 44508262
    },
    {
      "NoteNumber": 43,
      "Velocity": 80,
      "Duration": 232582,
      "SoundDuration": 232582,
      "Delta": 44508262
    },
    {
      "NoteNumber": 77,
      "Velocity": 80,
      "Duration": 699796,
      "SoundDuration": 699796,
      "Delta": 44508262
    },
    {
      "NoteNumber": 52,
      "Velocity": 80,
      "Duration": 466189,
      "SoundDuration": 466189,
      "Delta": 44754164
    },
    {
      "NoteNumber": 55,
      "Velocity": 80,
      "Duration": 466189,
      "SoundDuration": 466189,
      "Delta": 44754164
    },
    {
      "NoteNumber": 48,
      "Velocity": 80,
      "Duration": 933403,
      "SoundDuration": 933403,
      "Delta": 45245968
    },
    {
      "NoteNumber": 62,
      "Velocity": 80,
      "Duration": 232582,
      "SoundDuration": 232582,
      "Delta": 45491870
    },
    {
      "NoteNumber": 74,
      "Velocity": 80,
      "Duration": 232582,
      "SoundDuration": 232582,
      "Delta": 45491870
    },
    {
      "NoteNumber": 65,
      "Velocity": 80,
      "Duration": 232582,
      "SoundDuration": 232582,
      "Delta": 45737772
    },
    {
      "NoteNumber": 77,
      "Velocity": 80,
      "Duration": 232582,
      "SoundDuration": 232582,
      "Delta": 45737772
    },
    {
      "NoteNumber": 62,
      "Velocity": 80,
      "Duration": 232582,
      "SoundDuration": 232582,
      "Delta": 45983674
    },
    {
      "NoteNumber": 74,
      "Velocity": 80,
      "Duration": 232582,
      "SoundDuration": 232582,
      "Delta": 45983674
    },
    {
      "NoteNumber": 67,
      "Velocity": 80,
      "Duration": 232582,
      "SoundDuration": 232582,
      "Delta": 46229576
    },
    {
      "NoteNumber": 79,
      "Velocity": 80,
      "Duration": 232582,
      "SoundDuration": 232582,
      "Delta": 46229576
    },
    {
      "NoteNumber": 69,
      "Velocity": 80,
      "Duration": 466189,
      "SoundDuration": 466189,
      "Delta": 46475478
    },
    {
      "NoteNumber": 48,
      "Velocity": 80,
      "Duration": 195902,
      "SoundDuration": 195902,
      "Delta": 46475478
    },
    {
      "NoteNumber": 60,
      "Velocity": 80,
      "Duration": 195902,
      "SoundDuration": 195902,
      "Delta": 46475478
    },
    {
      "NoteNumber": 81,
      "Velocity": 80,
      "Duration": 466189,
      "SoundDuration": 466189,
      "Delta": 46475478
    },
    {
      "NoteNumber": 48,
      "Velocity": 80,
      "Duration": 195902,
      "SoundDuration": 195902,
      "Delta": 46721380
    },
    {
      "NoteNumber": 60,
      "Velocity": 80,
      "Duration": 195902,
      "SoundDuration": 195902,
      "Delta": 46721380
    },
    {
      "NoteNumber": 48,
      "Velocity": 80,
      "Duration": 232582,
      "SoundDuration": 232582,
      "Delta": 46967282
    },
    {
      "NoteNumber": 60,
      "Velocity": 80,
      "Duration": 232582,
      "SoundDuration": 232582,
      "Delta": 46967282
    },
    {
      "NoteNumber": 72,
      "Velocity": 80,
      "Duration": 232582,
      "SoundDuration": 232582,
      "Delta": 46967282
    },
    {
      "NoteNumber": 84,
      "Velocity": 80,
      "Duration": 232582,
      "SoundDuration": 232582,
      "Delta": 46967282
    },
    {
      "NoteNumber": 70,
      "Velocity": 96,
      "Duration": 232582,
      "SoundDuration": 232582,
      "Delta": 47213184
    },
    {
      "NoteNumber": 67,
      "Velocity": 96,
      "Duration": 195902,
      "SoundDuration": 195902,
      "Delta": 47213184
    },
    {
      "NoteNumber": 43,
      "Velocity": 96,
      "Duration": 195902,
      "SoundDuration": 195902,
      "Delta": 47213184
    },
    {
      "NoteNumber": 74,
      "Velocity": 96,
      "Duration": 232582,
      "SoundDuration": 232582,
      "Delta": 47213184
    },
    {
      "NoteNumber": 31,
      "Velocity": 96,
      "Duration": 232582,
      "SoundDuration": 232582,
      "Delta": 47213184
    },
    {
      "NoteNumber": 67,
      "Velocity": 96,
      "Duration": 232582,
      "SoundDuration": 232582,
      "Delta": 47459086
    },
    {
      "NoteNumber": 43,
      "Velocity": 96,
      "Duration": 232582,
      "SoundDuration": 232582,
      "Delta": 47459086
    },
    {
      "NoteNumber": 50,
      "Velocity": 96,
      "Duration": 232582,
      "SoundDuration": 232582,
      "Delta": 47704988
    },
    {
      "NoteNumber": 70,
      "Velocity": 96,
      "Duration": 232582,
      "SoundDuration": 232582,
      "Delta": 47704988
    },
    {
      "NoteNumber": 67,
      "Velocity": 96,
      "Duration": 232582,
      "SoundDuration": 232582,
      "Delta": 47950890
    },
    {
      "NoteNumber": 43,
      "Velocity": 96,
      "Duration": 232582,
      "SoundDuration": 232582,
      "Delta": 47950890
    },
    {
      "NoteNumber": 53,
      "Velocity": 96,
      "Duration": 232582,
      "SoundDuration": 232582,
      "Delta": 48196792
    },
    {
      "NoteNumber": 70,
      "Velocity": 96,
      "Duration": 232582,
      "SoundDuration": 232582,
      "Delta": 48196792
    },
    {
      "NoteNumber": 58,
      "Velocity": 96,
      "Duration": 232582,
      "SoundDuration": 232582,
      "Delta": 48196792
    },
    {
      "NoteNumber": 50,
      "Velocity": 96,
      "Duration": 232582,
      "SoundDuration": 232582,
      "Delta": 48442694
    },
    {
      "NoteNumber": 77,
      "Velocity": 96,
      "Duration": 195902,
      "SoundDuration": 195902,
      "Delta": 48442694
    },
    {
      "NoteNumber": 84,
      "Velocity": 96,
      "Duration": 195902,
      "SoundDuration": 195902,
      "Delta": 48442694
    },
    {
      "NoteNumber": 53,
      "Velocity": 96,
      "Duration": 232582,
      "SoundDuration": 232582,
      "Delta": 48688596
    },
    {
      "NoteNumber": 77,
      "Velocity": 96,
      "Duration": 195902,
      "SoundDuration": 195902,
      "Delta": 48688596
    },
    {
      "NoteNumber": 58,
      "Velocity": 96,
      "Duration": 232582,
      "SoundDuration": 232582,
      "Delta": 48688596
    },
    {
      "NoteNumber": 84,
      "Velocity": 96,
      "Duration": 195902,
      "SoundDuration": 195902,
      "Delta": 48688596
    },
    {
      "NoteNumber": 50,
      "Velocity": 96,
      "Duration": 232582,
      "SoundDuration": 232582,
      "Delta": 48934498
    },
    {
      "NoteNumber": 77,
      "Velocity": 96,
      "Duration": 195902,
      "SoundDuration": 195902,
      "Delta": 48934498
    },
    {
      "NoteNumber": 84,
      "Velocity": 96,
      "Duration": 195902,
      "SoundDuration": 195902,
      "Delta": 48934498
    },
    {
      "NoteNumber": 46,
      "Velocity": 96,
      "Duration": 195902,
      "SoundDuration": 195902,
      "Delta": 49180400
    },
    {
      "NoteNumber": 77,
      "Velocity": 96,
      "Duration": 195902,
      "SoundDuration": 195902,
      "Delta": 49180400
    },
    {
      "NoteNumber": 84,
      "Velocity": 96,
      "Duration": 232582,
      "SoundDuration": 232582,
      "Delta": 49180400
    },
    {
      "NoteNumber": 34,
      "Velocity": 96,
      "Duration": 232582,
      "SoundDuration": 232582,
      "Delta": 49180400
    },
    {
      "NoteNumber": 46,
      "Velocity": 96,
      "Duration": 232582,
      "SoundDuration": 232582,
      "Delta": 49426302
    },
    {
      "NoteNumber": 77,
      "Velocity": 96,
      "Duration": 195902,
      "SoundDuration": 195902,
      "Delta": 49426302
    },
    {
      "NoteNumber": 81,
      "Velocity": 96,
      "Duration": 195902,
      "SoundDuration": 195902,
      "Delta": 49426302
    },
    {
      "NoteNumber": 53,
      "Velocity": 96,
      "Duration": 232582,
      "SoundDuration": 232582,
      "Delta": 49672204
    },
    {
      "NoteNumber": 77,
      "Velocity": 96,
      "Duration": 232582,
      "SoundDuration": 232582,
      "Delta": 49672204
    },
    {
      "NoteNumber": 81,
      "Velocity": 96,
      "Duration": 232582,
      "SoundDuration": 232582,
      "Delta": 49672204
    },
    {
      "NoteNumber": 58,
      "Velocity": 96,
      "Duration": 232582,
      "SoundDuration": 232582,
      "Delta": 49672204
    },
    {
      "NoteNumber": 46,
      "Velocity": 96,
      "Duration": 232582,
      "SoundDuration": 232582,
      "Delta": 49918106
    },
    {
      "NoteNumber": 79,
      "Velocity": 96,
      "Duration": 195902,
      "SoundDuration": 195902,
      "Delta": 49918106
    },
    {
      "NoteNumber": 76,
      "Velocity": 96,
      "Duration": 195902,
      "SoundDuration": 195902,
      "Delta": 49918106
    },
    {
      "NoteNumber": 79,
      "Velocity": 96,
      "Duration": 232582,
      "SoundDuration": 232582,
      "Delta": 50164008
    },
    {
      "NoteNumber": 34,
      "Velocity": 96,
      "Duration": 232582,
      "SoundDuration": 232582,
      "Delta": 50164008
    },
    {
      "NoteNumber": 76,
      "Velocity": 96,
      "Duration": 195902,
      "SoundDuration": 195902,
      "Delta": 50164008
    },
    {
      "NoteNumber": 46,
      "Velocity": 96,
      "Duration": 232582,
      "SoundDuration": 232582,
      "Delta": 50409910
    },
    {
      "NoteNumber": 76,
      "Velocity": 96,
      "Duration": 232582,
      "SoundDuration": 232582,
      "Delta": 50409910
    },
    {
      "NoteNumber": 53,
      "Velocity": 96,
      "Duration": 232582,
      "SoundDuration": 232582,
      "Delta": 50655812
    },
    {
      "NoteNumber": 77,
      "Velocity": 96,
      "Duration": 195902,
      "SoundDuration": 195902,
      "Delta": 50655812
    },
    {
      "NoteNumber": 81,
      "Velocity": 96,
      "Duration": 232582,
      "SoundDuration": 232582,
      "Delta": 50655812
    },
    {
      "NoteNumber": 58,
      "Velocity": 96,
      "Duration": 232582,
      "SoundDuration": 232582,
      "Delta": 50655812
    },
    {
      "NoteNumber": 46,
      "Velocity": 96,
      "Duration": 232582,
      "SoundDuration": 232582,
      "Delta": 50901714
    },
    {
      "NoteNumber": 77,
      "Velocity": 96,
      "Duration": 195902,
      "SoundDuration": 195902,
      "Delta": 50901714
    },
    {
      "NoteNumber": 77,
      "Velocity": 96,
      "Duration": 232582,
      "SoundDuration": 232582,
      "Delta": 51147616
    },
    {
      "NoteNumber": 41,
      "Velocity": 96,
      "Duration": 232582,
      "SoundDuration": 232582,
      "Delta": 51147616
    },
    {
      "NoteNumber": 53,
      "Velocity": 96,
      "Duration": 195902,
      "SoundDuration": 195902,
      "Delta": 51393518
    },
    {
      "NoteNumber": 69,
      "Velocity": 96,
      "Duration": 232582,
      "SoundDuration": 232582,
      "Delta": 51393518
    },
    {
      "NoteNumber": 53,
      "Velocity": 96,
      "Duration": 195902,
      "SoundDuration": 195902,
      "Delta": 51639420
    },
    {
      "NoteNumber": 57,
      "Velocity": 96,
      "Duration": 232582,
      "SoundDuration": 232582,
      "Delta": 51639420
    },
    {
      "NoteNumber": 72,
      "Velocity": 96,
      "Duration": 232582,
      "SoundDuration": 232582,
      "Delta": 51639420
    },
    {
      "NoteNumber": 53,
      "Velocity": 96,
      "Duration": 195902,
      "SoundDuration": 195902,
      "Delta": 51885322
    },
    {
      "NoteNumber": 69,
      "Velocity": 96,
      "Duration": 232582,
      "SoundDuration": 232582,
      "Delta": 51885322
    },
    {
      "NoteNumber": 53,
      "Velocity": 96,
      "Duration": 232582,
      "SoundDuration": 232582,
      "Delta": 52131224
    },
    {
      "NoteNumber": 72,
      "Velocity": 96,
      "Duration": 232582,
      "SoundDuration": 232582,
      "Delta": 52131224
    },
    {
      "NoteNumber": 69,
      "Velocity": 96,
      "Duration": 232582,
      "SoundDuration": 232582,
      "Delta": 52377126
    },
    {
      "NoteNumber": 41,
      "Velocity": 96,
      "Duration": 232582,
      "SoundDuration": 232582,
      "Delta": 52377126
    },
    {
      "NoteNumber": 53,
      "Velocity": 96,
      "Duration": 232582,
      "SoundDuration": 232582,
      "Delta": 52623028
    },
    {
      "NoteNumber": 57,
      "Velocity": 96,
      "Duration": 232582,
      "SoundDuration": 232582,
      "Delta": 52623028
    },
    {
      "NoteNumber": 77,
      "Velocity": 96,
      "Duration": 195902,
      "SoundDuration": 195902,
      "Delta": 52623028
    },
    {
      "NoteNumber": 84,
      "Velocity": 96,
      "Duration": 195902,
      "SoundDuration": 195902,
      "Delta": 52623028
    },
    {
      "NoteNumber": 48,
      "Velocity": 96,
      "Duration": 195902,
      "SoundDuration": 195902,
      "Delta": 52868930
    },
    {
      "NoteNumber": 77,
      "Velocity": 96,
      "Duration": 195902,
      "SoundDuration": 195902,
      "Delta": 52868930
    },
    {
      "NoteNumber": 84,
      "Velocity": 96,
      "Duration": 195902,
      "SoundDuration": 195902,
      "Delta": 52868930
    },
    {
      "NoteNumber": 48,
      "Velocity": 96,
      "Duration": 195902,
      "SoundDuration": 195902,
      "Delta": 53114832
    },
    {
      "NoteNumber": 77,
      "Velocity": 96,
      "Duration": 195902,
      "SoundDuration": 195902,
      "Delta": 53114832
    },
    {
      "NoteNumber": 84,
      "Velocity": 96,
      "Duration": 232582,
      "SoundDuration": 232582,
      "Delta": 53114832
    },
    {
      "NoteNumber": 48,
      "Velocity": 96,
      "Duration": 232582,
      "SoundDuration": 232582,
      "Delta": 53360734
    },
    {
      "NoteNumber": 77,
      "Velocity": 96,
      "Duration": 195902,
      "SoundDuration": 195902,
      "Delta": 53360734
    },
    {
      "NoteNumber": 81,
      "Velocity": 96,
      "Duration": 195902,
      "SoundDuration": 195902,
      "Delta": 53360734
    },
    {
      "NoteNumber": 55,
      "Velocity": 96,
      "Duration": 232582,
      "SoundDuration": 232582,
      "Delta": 53606636
    },
    {
      "NoteNumber": 60,
      "Velocity": 96,
      "Duration": 232582,
      "SoundDuration": 232582,
      "Delta": 53606636
    },
    {
      "NoteNumber": 77,
      "Velocity": 96,
      "Duration": 232582,
      "SoundDuration": 232582,
      "Delta": 53606636
    },
    {
      "NoteNumber": 81,
      "Velocity": 96,
      "Duration": 232582,
      "SoundDuration": 232582,
      "Delta": 53606636
    },
    {
      "NoteNumber": 79,
      "Velocity": 96,
      "Duration": 195902,
      "SoundDuration": 195902,
      "Delta": 53852538
    },
    {
      "NoteNumber": 76,
      "Velocity": 96,
      "Duration": 195902,
      "SoundDuration": 195902,
      "Delta": 53852538
    },
    {
      "NoteNumber": 36,
      "Velocity": 96,
      "Duration": 232582,
      "SoundDuration": 232582,
      "Delta": 53852538
    },
    {
      "NoteNumber": 48,
      "Velocity": 96,
      "Duration": 232582,
      "SoundDuration": 232582,
      "Delta": 54098440
    },
    {
      "NoteNumber": 79,
      "Velocity": 96,
      "Duration": 195902,
      "SoundDuration": 195902,
      "Delta": 54098440
    },
    {
      "NoteNumber": 76,
      "Velocity": 96,
      "Duration": 195902,
      "SoundDuration": 195902,
      "Delta": 54098440
    },
    {
      "NoteNumber": 43,
      "Velocity": 96,
      "Duration": 232582,
      "SoundDuration": 232582,
      "Delta": 54344342
    },
    {
      "NoteNumber": 79,
      "Velocity": 96,
      "Duration": 232582,
      "SoundDuration": 232582,
      "Delta": 54344342
    },
    {
      "NoteNumber": 76,
      "Velocity": 96,
      "Duration": 232582,
      "SoundDuration": 232582,
      "Delta": 54344342
    },
    {
      "NoteNumber": 55,
      "Velocity": 96,
      "Duration": 232582,
      "SoundDuration": 232582,
      "Delta": 54590244
    },
    {
      "NoteNumber": 60,
      "Velocity": 96,
      "Duration": 232582,
      "SoundDuration": 232582,
      "Delta": 54590244
    },
    {
      "NoteNumber": 77,
      "Velocity": 96,
      "Duration": 232582,
      "SoundDuration": 232582,
      "Delta": 54590244
    },
    {
      "NoteNumber": 74,
      "Velocity": 96,
      "Duration": 232582,
      "SoundDuration": 232582,
      "Delta": 54590244
    },
    {
      "NoteNumber": 48,
      "Velocity": 96,
      "Duration": 232582,
      "SoundDuration": 232582,
      "Delta": 54836146
    },
    {
      "NoteNumber": 76,
      "Velocity": 96,
      "Duration": 232582,
      "SoundDuration": 232582,
      "Delta": 54836146
    },
    {
      "NoteNumber": 70,
      "Velocity": 96,
      "Duration": 232582,
      "SoundDuration": 232582,
      "Delta": 55082048
    },
    {
      "NoteNumber": 67,
      "Velocity": 96,
      "Duration": 195902,
      "SoundDuration": 195902,
      "Delta": 55082048
    },
    {
      "NoteNumber": 43,
      "Velocity": 96,
      "Duration": 195902,
      "SoundDuration": 195902,
      "Delta": 55082048
    },
    {
      "NoteNumber": 74,
      "Velocity": 96,
      "Duration": 232582,
      "SoundDuration": 232582,
      "Delta": 55082048
    },
    {
      "NoteNumber": 31,
      "Velocity": 96,
      "Duration": 232582,
      "SoundDuration": 232582,
      "Delta": 55082048
    },
    {
      "NoteNumber": 67,
      "Velocity": 96,
      "Duration": 232582,
      "SoundDuration": 232582,
      "Delta": 55327950
    },
    {
      "NoteNumber": 43,
      "Velocity": 96,
      "Duration": 232582,
      "SoundDuration": 232582,
      "Delta": 55327950
    },
    {
      "NoteNumber": 50,
      "Velocity": 96,
      "Duration": 232582,
      "SoundDuration": 232582,
      "Delta": 55573852
    },
    {
      "NoteNumber": 70,
      "Velocity": 96,
      "Duration": 232582,
      "SoundDuration": 232582,
      "Delta": 55573852
    },
    {
      "NoteNumber": 67,
      "Velocity": 96,
      "Duration": 232582,
      "SoundDuration": 232582,
      "Delta": 55819754
    },
    {
      "NoteNumber": 43,
      "Velocity": 96,
      "Duration": 232582,
      "SoundDuration": 232582,
      "Delta": 55819754
    },
    {
      "NoteNumber": 53,
      "Velocity": 96,
      "Duration": 232582,
      "SoundDuration": 232582,
      "Delta": 56065656
    },
    {
      "NoteNumber": 70,
      "Velocity": 96,
      "Duration": 232582,
      "SoundDuration": 232582,
      "Delta": 56065656
    },
    {
      "NoteNumber": 58,
      "Velocity": 96,
      "Duration": 232582,
      "SoundDuration": 232582,
      "Delta": 56065656
    },
    {
      "NoteNumber": 50,
      "Velocity": 96,
      "Duration": 232582,
      "SoundDuration": 232582,
      "Delta": 56311558
    },
    {
      "NoteNumber": 77,
      "Velocity": 96,
      "Duration": 195902,
      "SoundDuration": 195902,
      "Delta": 56311558
    },
    {
      "NoteNumber": 84,
      "Velocity": 96,
      "Duration": 195902,
      "SoundDuration": 195902,
      "Delta": 56311558
    },
    {
      "NoteNumber": 53,
      "Velocity": 96,
      "Duration": 232582,
      "SoundDuration": 232582,
      "Delta": 56557460
    },
    {
      "NoteNumber": 77,
      "Velocity": 96,
      "Duration": 195902,
      "SoundDuration": 195902,
      "Delta": 56557460
    },
    {
      "NoteNumber": 58,
      "Velocity": 96,
      "Duration": 232582,
      "SoundDuration": 232582,
      "Delta": 56557460
    },
    {
      "NoteNumber": 84,
      "Velocity": 96,
      "Duration": 195902,
      "SoundDuration": 195902,
      "Delta": 56557460
    },
    {
      "NoteNumber": 50,
      "Velocity": 96,
      "Duration": 232582,
      "SoundDuration": 232582,
      "Delta": 56803362
    },
    {
      "NoteNumber": 77,
      "Velocity": 96,
      "Duration": 195902,
      "SoundDuration": 195902,
      "Delta": 56803362
    },
    {
      "NoteNumber": 84,
      "Velocity": 96,
      "Duration": 195902,
      "SoundDuration": 195902,
      "Delta": 56803362
    },
    {
      "NoteNumber": 46,
      "Velocity": 96,
      "Duration": 195902,
      "SoundDuration": 195902,
      "Delta": 57049264
    },
    {
      "NoteNumber": 77,
      "Velocity": 96,
      "Duration": 195902,
      "SoundDuration": 195902,
      "Delta": 57049264
    },
    {
      "NoteNumber": 84,
      "Velocity": 96,
      "Duration": 232582,
      "SoundDuration": 232582,
      "Delta": 57049264
    },
    {
      "NoteNumber": 34,
      "Velocity": 96,
      "Duration": 232582,
      "SoundDuration": 232582,
      "Delta": 57049264
    },
    {
      "NoteNumber": 46,
      "Velocity": 96,
      "Duration": 232582,
      "SoundDuration": 232582,
      "Delta": 57295166
    },
    {
      "NoteNumber": 77,
      "Velocity": 96,
      "Duration": 195902,
      "SoundDuration": 195902,
      "Delta": 57295166
    },
    {
      "NoteNumber": 81,
      "Velocity": 96,
      "Duration": 195902,
      "SoundDuration": 195902,
      "Delta": 57295166
    },
    {
      "NoteNumber": 53,
      "Velocity": 96,
      "Duration": 232582,
      "SoundDuration": 232582,
      "Delta": 57541068
    },
    {
      "NoteNumber": 77,
      "Velocity": 96,
      "Duration": 232582,
      "SoundDuration": 232582,
      "Delta": 57541068
    },
    {
      "NoteNumber": 81,
      "Velocity": 96,
      "Duration": 232582,
      "SoundDuration": 232582,
      "Delta": 57541068
    },
    {
      "NoteNumber": 58,
      "Velocity": 96,
      "Duration": 232582,
      "SoundDuration": 232582,
      "Delta": 57541068
    },
    {
      "NoteNumber": 46,
      "Velocity": 96,
      "Duration": 232582,
      "SoundDuration": 232582,
      "Delta": 57786970
    },
    {
      "NoteNumber": 79,
      "Velocity": 96,
      "Duration": 195902,
      "SoundDuration": 195902,
      "Delta": 57786970
    },
    {
      "NoteNumber": 76,
      "Velocity": 96,
      "Duration": 195902,
      "SoundDuration": 195902,
      "Delta": 57786970
    },
    {
      "NoteNumber": 79,
      "Velocity": 96,
      "Duration": 232582,
      "SoundDuration": 232582,
      "Delta": 58032872
    },
    {
      "NoteNumber": 34,
      "Velocity": 96,
      "Duration": 232582,
      "SoundDuration": 232582,
      "Delta": 58032872
    },
    {
      "NoteNumber": 76,
      "Velocity": 96,
      "Duration": 195902,
      "SoundDuration": 195902,
      "Delta": 58032872
    },
    {
      "NoteNumber": 46,
      "Velocity": 96,
      "Duration": 232582,
      "SoundDuration": 232582,
      "Delta": 58278774
    },
    {
      "NoteNumber": 76,
      "Velocity": 96,
      "Duration": 232582,
      "SoundDuration": 232582,
      "Delta": 58278774
    },
    {
      "NoteNumber": 53,
      "Velocity": 96,
      "Duration": 232582,
      "SoundDuration": 232582,
      "Delta": 58524676
    },
    {
      "NoteNumber": 77,
      "Velocity": 96,
      "Duration": 195902,
      "SoundDuration": 195902,
      "Delta": 58524676
    },
    {
      "NoteNumber": 81,
      "Velocity": 96,
      "Duration": 232582,
      "SoundDuration": 232582,
      "Delta": 58524676
    },
    {
      "NoteNumber": 58,
      "Velocity": 96,
      "Duration": 232582,
      "SoundDuration": 232582,
      "Delta": 58524676
    },
    {
      "NoteNumber": 46,
      "Velocity": 96,
      "Duration": 232582,
      "SoundDuration": 232582,
      "Delta": 58770578
    },
    {
      "NoteNumber": 77,
      "Velocity": 96,
      "Duration": 195902,
      "SoundDuration": 195902,
      "Delta": 58770578
    },
    {
      "NoteNumber": 77,
      "Velocity": 96,
      "Duration": 232582,
      "SoundDuration": 232582,
      "Delta": 59016480
    },
    {
      "NoteNumber": 41,
      "Velocity": 96,
      "Duration": 232582,
      "SoundDuration": 232582,
      "Delta": 59016480
    },
    {
      "NoteNumber": 53,
      "Velocity": 96,
      "Duration": 195902,
      "SoundDuration": 195902,
      "Delta": 59262382
    },
    {
      "NoteNumber": 69,
      "Velocity": 96,
      "Duration": 232582,
      "SoundDuration": 232582,
      "Delta": 59262382
    },
    {
      "NoteNumber": 53,
      "Velocity": 96,
      "Duration": 195902,
      "SoundDuration": 195902,
      "Delta": 59508284
    },
    {
      "NoteNumber": 57,
      "Velocity": 96,
      "Duration": 232582,
      "SoundDuration": 232582,
      "Delta": 59508284
    },
    {
      "NoteNumber": 72,
      "Velocity": 96,
      "Duration": 232582,
      "SoundDuration": 232582,
      "Delta": 59508284
    },
    {
      "NoteNumber": 53,
      "Velocity": 96,
      "Duration": 195902,
      "SoundDuration": 195902,
      "Delta": 59754186
    },
    {
      "NoteNumber": 69,
      "Velocity": 96,
      "Duration": 232582,
      "SoundDuration": 232582,
      "Delta": 59754186
    },
    {
      "NoteNumber": 53,
      "Velocity": 96,
      "Duration": 232582,
      "SoundDuration": 232582,
      "Delta": 60000088
    },
    {
      "NoteNumber": 72,
      "Velocity": 96,
      "Duration": 232582,
      "SoundDuration": 232582,
      "Delta": 60000088
    },
    {
      "NoteNumber": 69,
      "Velocity": 96,
      "Duration": 232582,
      "SoundDuration": 232582,
      "Delta": 60245990
    },
    {
      "NoteNumber": 41,
      "Velocity": 96,
      "Duration": 232582,
      "SoundDuration": 232582,
      "Delta": 60245990
    },
    {
      "NoteNumber": 53,
      "Velocity": 96,
      "Duration": 232582,
      "SoundDuration": 232582,
      "Delta": 60491892
    },
    {
      "NoteNumber": 57,
      "Velocity": 96,
      "Duration": 232582,
      "SoundDuration": 232582,
      "Delta": 60491892
    },
    {
      "NoteNumber": 77,
      "Velocity": 96,
      "Duration": 195902,
      "SoundDuration": 195902,
      "Delta": 60491892
    },
    {
      "NoteNumber": 84,
      "Velocity": 96,
      "Duration": 195902,
      "SoundDuration": 195902,
      "Delta": 60491892
    },
    {
      "NoteNumber": 48,
      "Velocity": 96,
      "Duration": 195902,
      "SoundDuration": 195902,
      "Delta": 60737794
    },
    {
      "NoteNumber": 77,
      "Velocity": 96,
      "Duration": 195902,
      "SoundDuration": 195902,
      "Delta": 60737794
    },
    {
      "NoteNumber": 84,
      "Velocity": 96,
      "Duration": 195902,
      "SoundDuration": 195902,
      "Delta": 60737794
    },
    {
      "NoteNumber": 48,
      "Velocity": 96,
      "Duration": 195902,
      "SoundDuration": 195902,
      "Delta": 60983696
    },
    {
      "NoteNumber": 77,
      "Velocity": 96,
      "Duration": 195902,
      "SoundDuration": 195902,
      "Delta": 60983696
    },
    {
      "NoteNumber": 84,
      "Velocity": 96,
      "Duration": 232582,
      "SoundDuration": 232582,
      "Delta": 60983696
    },
    {
      "NoteNumber": 48,
      "Velocity": 96,
      "Duration": 232582,
      "SoundDuration": 232582,
      "Delta": 61229598
    },
    {
      "NoteNumber": 77,
      "Velocity": 96,
      "Duration": 195902,
      "SoundDuration": 195902,
      "Delta": 61229598
    },
    {
      "NoteNumber": 81,
      "Velocity": 96,
      "Duration": 195902,
      "SoundDuration": 195902,
      "Delta": 61229598
    },
    {
      "NoteNumber": 55,
      "Velocity": 96,
      "Duration": 232582,
      "SoundDuration": 232582,
      "Delta": 61475500
    },
    {
      "NoteNumber": 60,
      "Velocity": 96,
      "Duration": 232582,
      "SoundDuration": 232582,
      "Delta": 61475500
    },
    {
      "NoteNumber": 77,
      "Velocity": 96,
      "Duration": 232582,
      "SoundDuration": 232582,
      "Delta": 61475500
    },
    {
      "NoteNumber": 81,
      "Velocity": 96,
      "Duration": 232582,
      "SoundDuration": 232582,
      "Delta": 61475500
    },
    {
      "NoteNumber": 79,
      "Velocity": 96,
      "Duration": 195902,
      "SoundDuration": 195902,
      "Delta": 61721402
    },
    {
      "NoteNumber": 76,
      "Velocity": 96,
      "Duration": 195902,
      "SoundDuration": 195902,
      "Delta": 61721402
    },
    {
      "NoteNumber": 36,
      "Velocity": 96,
      "Duration": 232582,
      "SoundDuration": 232582,
      "Delta": 61721402
    },
    {
      "NoteNumber": 48,
      "Velocity": 96,
      "Duration": 232582,
      "SoundDuration": 232582,
      "Delta": 61967304
    },
    {
      "NoteNumber": 79,
      "Velocity": 96,
      "Duration": 195902,
      "SoundDuration": 195902,
      "Delta": 61967304
    },
    {
      "NoteNumber": 76,
      "Velocity": 96,
      "Duration": 195902,
      "SoundDuration": 195902,
      "Delta": 61967304
    },
    {
      "NoteNumber": 43,
      "Velocity": 96,
      "Duration": 232582,
      "SoundDuration": 232582,
      "Delta": 62213206
    },
    {
      "NoteNumber": 79,
      "Velocity": 96,
      "Duration": 232582,
      "SoundDuration": 232582,
      "Delta": 62213206
    },
    {
      "NoteNumber": 76,
      "Velocity": 96,
      "Duration": 232582,
      "SoundDuration": 232582,
      "Delta": 62213206
    },
    {
      "NoteNumber": 55,
      "Velocity": 96,
      "Duration": 232582,
      "SoundDuration": 232582,
      "Delta": 62459108
    },
    {
      "NoteNumber": 60,
      "Velocity": 96,
      "Duration": 232582,
      "SoundDuration": 232582,
      "Delta": 62459108
    },
    {
      "NoteNumber": 77,
      "Velocity": 96,
      "Duration": 232582,
      "SoundDuration": 232582,
      "Delta": 62459108
    },
    {
      "NoteNumber": 74,
      "Velocity": 96,
      "Duration": 232582,
      "SoundDuration": 232582,
      "Delta": 62459108
    },
    {
      "NoteNumber": 48,
      "Velocity": 96,
      "Duration": 232582,
      "SoundDuration": 232582,
      "Delta": 62705010
    },
    {
      "NoteNumber": 76,
      "Velocity": 96,
      "Duration": 232582,
      "SoundDuration": 232582,
      "Delta": 62705010
    },
    {
      "NoteNumber": 70,
      "Velocity": 96,
      "Duration": 232582,
      "SoundDuration": 232582,
      "Delta": 62950912
    },
    {
      "NoteNumber": 43,
      "Velocity": 96,
      "Duration": 195902,
      "SoundDuration": 195902,
      "Delta": 62950912
    },
    {
      "NoteNumber": 74,
      "Velocity": 96,
      "Duration": 232582,
      "SoundDuration": 232582,
      "Delta": 62950912
    },
    {
      "NoteNumber": 31,
      "Velocity": 96,
      "Duration": 232582,
      "SoundDuration": 232582,
      "Delta": 62950912
    },
    {
      "NoteNumber": 67,
      "Velocity": 96,
      "Duration": 232582,
      "SoundDuration": 232582,
      "Delta": 63196814
    },
    {
      "NoteNumber": 43,
      "Velocity": 96,
      "Duration": 232582,
      "SoundDuration": 232582,
      "Delta": 63196814
    },
    {
      "NoteNumber": 50,
      "Velocity": 96,
      "Duration": 232582,
      "SoundDuration": 232582,
      "Delta": 63442716
    },
    {
      "NoteNumber": 77,
      "Velocity": 96,
      "Duration": 72951,
      "SoundDuration": 72951,
      "Delta": 63442716
    },
    {
      "NoteNumber": 77,
      "Velocity": 96,
      "Duration": 72951,
      "SoundDuration": 72951,
      "Delta": 63565667
    },
    {
      "NoteNumber": 43,
      "Velocity": 96,
      "Duration": 232582,
      "SoundDuration": 232582,
      "Delta": 63688618
    },
    {
      "NoteNumber": 77,
      "Velocity": 96,
      "Duration": 72951,
      "SoundDuration": 72951,
      "Delta": 63688618
    },
    {
      "NoteNumber": 77,
      "Velocity": 96,
      "Duration": 72951,
      "SoundDuration": 72951,
      "Delta": 63811569
    },
    {
      "NoteNumber": 53,
      "Velocity": 96,
      "Duration": 232582,
      "SoundDuration": 232582,
      "Delta": 63934520
    },
    {
      "NoteNumber": 77,
      "Velocity": 96,
      "Duration": 232582,
      "SoundDuration": 232582,
      "Delta": 63934520
    },
    {
      "NoteNumber": 58,
      "Velocity": 96,
      "Duration": 232582,
      "SoundDuration": 232582,
      "Delta": 63934520
    },
    {
      "NoteNumber": 50,
      "Velocity": 96,
      "Duration": 232582,
      "SoundDuration": 232582,
      "Delta": 64180422
    },
    {
      "NoteNumber": 74,
      "Velocity": 96,
      "Duration": 232582,
      "SoundDuration": 232582,
      "Delta": 64180422
    },
    {
      "NoteNumber": 53,
      "Velocity": 96,
      "Duration": 232582,
      "SoundDuration": 232582,
      "Delta": 64426324
    },
    {
      "NoteNumber": 81,
      "Velocity": 96,
      "Duration": 232582,
      "SoundDuration": 232582,
      "Delta": 64426324
    },
    {
      "NoteNumber": 58,
      "Velocity": 96,
      "Duration": 232582,
      "SoundDuration": 232582,
      "Delta": 64426324
    },
    {
      "NoteNumber": 50,
      "Velocity": 96,
      "Duration": 232582,
      "SoundDuration": 232582,
      "Delta": 64672226
    },
    {
      "NoteNumber": 79,
      "Velocity": 96,
      "Duration": 232582,
      "SoundDuration": 232582,
      "Delta": 64672226
    },
    {
      "NoteNumber": 46,
      "Velocity": 96,
      "Duration": 195903,
      "SoundDuration": 195903,
      "Delta": 64918127
    },
    {
      "NoteNumber": 70,
      "Velocity": 96,
      "Duration": 232582,
      "SoundDuration": 232582,
      "Delta": 64918127
    },
    {
      "NoteNumber": 34,
      "Velocity": 96,
      "Duration": 232582,
      "SoundDuration": 232582,
      "Delta": 64918127
    },
    {
      "NoteNumber": 46,
      "Velocity": 96,
      "Duration": 232582,
      "SoundDuration": 232582,
      "Delta": 65164030
    },
    {
      "NoteNumber": 74,
      "Velocity": 96,
      "Duration": 232582,
      "SoundDuration": 232582,
      "Delta": 65164030
    },
    {
      "NoteNumber": 53,
      "Velocity": 96,
      "Duration": 232582,
      "SoundDuration": 232582,
      "Delta": 65409932
    },
    {
      "NoteNumber": 77,
      "Velocity": 96,
      "Duration": 72951,
      "SoundDuration": 72951,
      "Delta": 65409932
    },
    {
      "NoteNumber": 58,
      "Velocity": 96,
      "Duration": 232582,
      "SoundDuration": 232582,
      "Delta": 65409932
    },
    {
      "NoteNumber": 77,
      "Velocity": 96,
      "Duration": 72951,
      "SoundDuration": 72951,
      "Delta": 65532883
    },
    {
      "NoteNumber": 46,
      "Velocity": 96,
      "Duration": 232582,
      "SoundDuration": 232582,
      "Delta": 65655834
    },
    {
      "NoteNumber": 77,
      "Velocity": 96,
      "Duration": 72951,
      "SoundDuration": 72951,
      "Delta": 65655834
    },
    {
      "NoteNumber": 77,
      "Velocity": 96,
      "Duration": 72951,
      "SoundDuration": 72951,
      "Delta": 65778785
    },
    {
      "NoteNumber": 77,
      "Velocity": 96,
      "Duration": 232582,
      "SoundDuration": 232582,
      "Delta": 65901736
    },
    {
      "NoteNumber": 34,
      "Velocity": 96,
      "Duration": 232582,
      "SoundDuration": 232582,
      "Delta": 65901736
    },
    {
      "NoteNumber": 46,
      "Velocity": 96,
      "Duration": 232582,
      "SoundDuration": 232582,
      "Delta": 66147638
    },
    {
      "NoteNumber": 74,
      "Velocity": 96,
      "Duration": 232582,
      "SoundDuration": 232582,
      "Delta": 66147638
    },
    {
      "NoteNumber": 53,
      "Velocity": 96,
      "Duration": 232582,
      "SoundDuration": 232582,
      "Delta": 66393540
    },
    {
      "NoteNumber": 77,
      "Velocity": 96,
      "Duration": 232582,
      "SoundDuration": 232582,
      "Delta": 66393540
    },
    {
      "NoteNumber": 58,
      "Velocity": 96,
      "Duration": 232582,
      "SoundDuration": 232582,
      "Delta": 66393540
    },
    {
      "NoteNumber": 46,
      "Velocity": 96,
      "Duration": 232582,
      "SoundDuration": 232582,
      "Delta": 66639442
    },
    {
      "NoteNumber": 79,
      "Velocity": 96,
      "Duration": 232582,
      "SoundDuration": 232582,
      "Delta": 66639442
    },
    {
      "NoteNumber": 41,
      "Velocity": 96,
      "Duration": 232582,
      "SoundDuration": 232582,
      "Delta": 66885344
    },
    {
      "NoteNumber": 53,
      "Velocity": 96,
      "Duration": 195902,
      "SoundDuration": 195902,
      "Delta": 67131246
    },
    {
      "NoteNumber": 77,
      "Velocity": 96,
      "Duration": 195902,
      "SoundDuration": 195902,
      "Delta": 67131246
    },
    {
      "NoteNumber": 53,
      "Velocity": 96,
      "Duration": 195902,
      "SoundDuration": 195902,
      "Delta": 67377148
    },
    {
      "NoteNumber": 57,
      "Velocity": 96,
      "Duration": 232582,
      "SoundDuration": 232582,
      "Delta": 67377148
    },
    {
      "NoteNumber": 77,
      "Velocity": 96,
      "Duration": 195902,
      "SoundDuration": 195902,
      "Delta": 67377148
    },
    {
      "NoteNumber": 53,
      "Velocity": 96,
      "Duration": 195902,
      "SoundDuration": 195902,
      "Delta": 67623050
    },
    {
      "NoteNumber": 77,
      "Velocity": 96,
      "Duration": 195902,
      "SoundDuration": 195902,
      "Delta": 67623050
    },
    {
      "NoteNumber": 53,
      "Velocity": 96,
      "Duration": 232582,
      "SoundDuration": 232582,
      "Delta": 67868952
    },
    {
      "NoteNumber": 77,
      "Velocity": 96,
      "Duration": 72951,
      "SoundDuration": 72951,
      "Delta": 67868952
    },
    {
      "NoteNumber": 77,
      "Velocity": 96,
      "Duration": 115778,
      "SoundDuration": 115778,
      "Delta": 67991903
    },
    {
      "NoteNumber": 74,
      "Velocity": 96,
      "Duration": 232582,
      "SoundDuration": 232582,
      "Delta": 68114854
    },
    {
      "NoteNumber": 41,
      "Velocity": 96,
      "Duration": 232582,
      "SoundDuration": 232582,
      "Delta": 68114854
    },
    {
      "NoteNumber": 53,
      "Velocity": 96,
      "Duration": 232582,
      "SoundDuration": 232582,
      "Delta": 68360756
    },
    {
      "NoteNumber": 57,
      "Velocity": 96,
      "Duration": 232582,
      "SoundDuration": 232582,
      "Delta": 68360756
    },
    {
      "NoteNumber": 81,
      "Velocity": 96,
      "Duration": 232582,
      "SoundDuration": 232582,
      "Delta": 68360756
    },
    {
      "NoteNumber": 48,
      "Velocity": 96,
      "Duration": 195902,
      "SoundDuration": 195902,
      "Delta": 68606658
    },
    {
      "NoteNumber": 79,
      "Velocity": 96,
      "Duration": 232582,
      "SoundDuration": 232582,
      "Delta": 68606658
    },
    {
      "NoteNumber": 48,
      "Velocity": 96,
      "Duration": 195902,
      "SoundDuration": 195902,
      "Delta": 68852560
    },
    {
      "NoteNumber": 67,
      "Velocity": 96,
      "Duration": 232582,
      "SoundDuration": 232582,
      "Delta": 68852560
    },
    {
      "NoteNumber": 48,
      "Velocity": 96,
      "Duration": 232582,
      "SoundDuration": 232582,
      "Delta": 69098462
    },
    {
      "NoteNumber": 79,
      "Velocity": 96,
      "Duration": 195902,
      "SoundDuration": 195902,
      "Delta": 69098462
    },
    {
      "NoteNumber": 84,
      "Velocity": 96,
      "Duration": 195902,
      "SoundDuration": 195902,
      "Delta": 69098462
    },
    {
      "NoteNumber": 55,
      "Velocity": 96,
      "Duration": 232582,
      "SoundDuration": 232582,
      "Delta": 69344364
    },
    {
      "NoteNumber": 60,
      "Velocity": 96,
      "Duration": 232582,
      "SoundDuration": 232582,
      "Delta": 69344364
    },
    {
      "NoteNumber": 79,
      "Velocity": 96,
      "Duration": 195902,
      "SoundDuration": 195902,
      "Delta": 69344364
    },
    {
      "NoteNumber": 84,
      "Velocity": 96,
      "Duration": 195902,
      "SoundDuration": 195902,
      "Delta": 69344364
    },
    {
      "NoteNumber": 79,
      "Velocity": 96,
      "Duration": 195902,
      "SoundDuration": 195902,
      "Delta": 69590266
    },
    {
      "NoteNumber": 84,
      "Velocity": 96,
      "Duration": 195902,
      "SoundDuration": 195902,
      "Delta": 69590266
    },
    {
      "NoteNumber": 36,
      "Velocity": 96,
      "Duration": 232582,
      "SoundDuration": 232582,
      "Delta": 69590266
    },
    {
      "NoteNumber": 48,
      "Velocity": 96,
      "Duration": 232582,
      "SoundDuration": 232582,
      "Delta": 69836168
    },
    {
      "NoteNumber": 79,
      "Velocity": 96,
      "Duration": 195902,
      "SoundDuration": 195902,
      "Delta": 69836168
    },
    {
      "NoteNumber": 84,
      "Velocity": 96,
      "Duration": 232582,
      "SoundDuration": 232582,
      "Delta": 69836168
    },
    {
      "NoteNumber": 43,
      "Velocity": 96,
      "Duration": 232582,
      "SoundDuration": 232582,
      "Delta": 70082070
    },
    {
      "NoteNumber": 79,
      "Velocity": 96,
      "Duration": 195902,
      "SoundDuration": 195902,
      "Delta": 70082070
    },
    {
      "NoteNumber": 55,
      "Velocity": 96,
      "Duration": 232582,
      "SoundDuration": 232582,
      "Delta": 70327972
    },
    {
      "NoteNumber": 60,
      "Velocity": 96,
      "Duration": 232582,
      "SoundDuration": 232582,
      "Delta": 70327972
    },
    {
      "NoteNumber": 79,
      "Velocity": 96,
      "Duration": 195902,
      "SoundDuration": 195902,
      "Delta": 70327972
    },
    {
      "NoteNumber": 84,
      "Velocity": 96,
      "Duration": 232582,
      "SoundDuration": 232582,
      "Delta": 70327972
    },
    {
      "NoteNumber": 48,
      "Velocity": 96,
      "Duration": 232582,
      "SoundDuration": 232582,
      "Delta": 70573874
    },
    {
      "NoteNumber": 79,
      "Velocity": 96,
      "Duration": 232582,
      "SoundDuration": 232582,
      "Delta": 70573874
    },
    {
      "NoteNumber": 43,
      "Velocity": 96,
      "Duration": 195902,
      "SoundDuration": 195902,
      "Delta": 70819776
    },
    {
      "NoteNumber": 31,
      "Velocity": 96,
      "Duration": 232582,
      "SoundDuration": 232582,
      "Delta": 70819776
    },
    {
      "NoteNumber": 43,
      "Velocity": 96,
      "Duration": 232582,
      "SoundDuration": 232582,
      "Delta": 71065678
    },
    {
      "NoteNumber": 50,
      "Velocity": 96,
      "Duration": 232582,
      "SoundDuration": 232582,
      "Delta": 71311580
    },
    {
      "NoteNumber": 77,
      "Velocity": 96,
      "Duration": 72951,
      "SoundDuration": 72951,
      "Delta": 71311580
    },
    {
      "NoteNumber": 77,
      "Velocity": 96,
      "Duration": 72951,
      "SoundDuration": 72951,
      "Delta": 71434531
    },
    {
      "NoteNumber": 43,
      "Velocity": 96,
      "Duration": 232582,
      "SoundDuration": 232582,
      "Delta": 71557482
    },
    {
      "NoteNumber": 77,
      "Velocity": 96,
      "Duration": 72951,
      "SoundDuration": 72951,
      "Delta": 71557482
    },
    {
      "NoteNumber": 77,
      "Velocity": 96,
      "Duration": 72951,
      "SoundDuration": 72951,
      "Delta": 71680433
    },
    {
      "NoteNumber": 53,
      "Velocity": 96,
      "Duration": 232582,
      "SoundDuration": 232582,
      "Delta": 71803384
    },
    {
      "NoteNumber": 77,
      "Velocity": 96,
      "Duration": 232582,
      "SoundDuration": 232582,
      "Delta": 71803384
    },
    {
      "NoteNumber": 58,
      "Velocity": 96,
      "Duration": 232582,
      "SoundDuration": 232582,
      "Delta": 71803384
    },
    {
      "NoteNumber": 50,
      "Velocity": 96,
      "Duration": 232582,
      "SoundDuration": 232582,
      "Delta": 72049286
    },
    {
      "NoteNumber": 74,
      "Velocity": 96,
      "Duration": 232582,
      "SoundDuration": 232582,
      "Delta": 72049286
    },
    {
      "NoteNumber": 53,
      "Velocity": 96,
      "Duration": 232582,
      "SoundDuration": 232582,
      "Delta": 72295188
    },
    {
      "NoteNumber": 81,
      "Velocity": 96,
      "Duration": 232582,
      "SoundDuration": 232582,
      "Delta": 72295188
    },
    {
      "NoteNumber": 58,
      "Velocity": 96,
      "Duration": 232582,
      "SoundDuration": 232582,
      "Delta": 72295188
    },
    {
      "NoteNumber": 50,
      "Velocity": 96,
      "Duration": 232582,
      "SoundDuration": 232582,
      "Delta": 72541090
    },
    {
      "NoteNumber": 79,
      "Velocity": 96,
      "Duration": 232582,
      "SoundDuration": 232582,
      "Delta": 72541090
    },
    {
      "NoteNumber": 46,
      "Velocity": 96,
      "Duration": 195902,
      "SoundDuration": 195902,
      "Delta": 72786992
    },
    {
      "NoteNumber": 70,
      "Velocity": 96,
      "Duration": 232582,
      "SoundDuration": 232582,
      "Delta": 72786992
    },
    {
      "NoteNumber": 34,
      "Velocity": 96,
      "Duration": 232582,
      "SoundDuration": 232582,
      "Delta": 72786992
    },
    {
      "NoteNumber": 46,
      "Velocity": 96,
      "Duration": 232582,
      "SoundDuration": 232582,
      "Delta": 73032894
    },
    {
      "NoteNumber": 74,
      "Velocity": 96,
      "Duration": 232582,
      "SoundDuration": 232582,
      "Delta": 73032894
    },
    {
      "NoteNumber": 53,
      "Velocity": 96,
      "Duration": 232582,
      "SoundDuration": 232582,
      "Delta": 73278796
    },
    {
      "NoteNumber": 77,
      "Velocity": 96,
      "Duration": 72951,
      "SoundDuration": 72951,
      "Delta": 73278796
    },
    {
      "NoteNumber": 58,
      "Velocity": 96,
      "Duration": 232582,
      "SoundDuration": 232582,
      "Delta": 73278796
    },
    {
      "NoteNumber": 77,
      "Velocity": 96,
      "Duration": 72951,
      "SoundDuration": 72951,
      "Delta": 73401747
    },
    {
      "NoteNumber": 46,
      "Velocity": 96,
      "Duration": 232582,
      "SoundDuration": 232582,
      "Delta": 73524698
    },
    {
      "NoteNumber": 77,
      "Velocity": 96,
      "Duration": 72951,
      "SoundDuration": 72951,
      "Delta": 73524698
    },
    {
      "NoteNumber": 77,
      "Velocity": 96,
      "Duration": 72951,
      "SoundDuration": 72951,
      "Delta": 73647649
    },
    {
      "NoteNumber": 77,
      "Velocity": 96,
      "Duration": 232582,
      "SoundDuration": 232582,
      "Delta": 73770600
    },
    {
      "NoteNumber": 34,
      "Velocity": 96,
      "Duration": 232582,
      "SoundDuration": 232582,
      "Delta": 73770600
    },
    {
      "NoteNumber": 46,
      "Velocity": 96,
      "Duration": 232582,
      "SoundDuration": 232582,
      "Delta": 74016502
    },
    {
      "NoteNumber": 74,
      "Velocity": 96,
      "Duration": 232582,
      "SoundDuration": 232582,
      "Delta": 74016502
    },
    {
      "NoteNumber": 53,
      "Velocity": 96,
      "Duration": 232582,
      "SoundDuration": 232582,
      "Delta": 74262404
    },
    {
      "NoteNumber": 77,
      "Velocity": 96,
      "Duration": 232582,
      "SoundDuration": 232582,
      "Delta": 74262404
    },
    {
      "NoteNumber": 58,
      "Velocity": 96,
      "Duration": 232582,
      "SoundDuration": 232582,
      "Delta": 74262404
    },
    {
      "NoteNumber": 46,
      "Velocity": 96,
      "Duration": 232582,
      "SoundDuration": 232582,
      "Delta": 74508306
    },
    {
      "NoteNumber": 79,
      "Velocity": 96,
      "Duration": 232582,
      "SoundDuration": 232582,
      "Delta": 74508306
    },
    {
      "NoteNumber": 41,
      "Velocity": 96,
      "Duration": 232582,
      "SoundDuration": 232582,
      "Delta": 74754208
    },
    {
      "NoteNumber": 53,
      "Velocity": 96,
      "Duration": 195902,
      "SoundDuration": 195902,
      "Delta": 75000110
    },
    {
      "NoteNumber": 77,
      "Velocity": 96,
      "Duration": 195902,
      "SoundDuration": 195902,
      "Delta": 75000110
    },
    {
      "NoteNumber": 53,
      "Velocity": 96,
      "Duration": 195902,
      "SoundDuration": 195902,
      "Delta": 75246012
    },
    {
      "NoteNumber": 57,
      "Velocity": 96,
      "Duration": 232582,
      "SoundDuration": 232582,
      "Delta": 75246012
    },
    {
      "NoteNumber": 77,
      "Velocity": 96,
      "Duration": 195902,
      "SoundDuration": 195902,
      "Delta": 75246012
    },
    {
      "NoteNumber": 53,
      "Velocity": 96,
      "Duration": 195902,
      "SoundDuration": 195902,
      "Delta": 75491914
    },
    {
      "NoteNumber": 77,
      "Velocity": 96,
      "Duration": 195902,
      "SoundDuration": 195902,
      "Delta": 75491914
    },
    {
      "NoteNumber": 53,
      "Velocity": 96,
      "Duration": 232582,
      "SoundDuration": 232582,
      "Delta": 75737816
    },
    {
      "NoteNumber": 77,
      "Velocity": 96,
      "Duration": 72951,
      "SoundDuration": 72951,
      "Delta": 75737816
    },
    {
      "NoteNumber": 77,
      "Velocity": 96,
      "Duration": 115778,
      "SoundDuration": 115778,
      "Delta": 75860767
    },
    {
      "NoteNumber": 74,
      "Velocity": 96,
      "Duration": 232582,
      "SoundDuration": 232582,
      "Delta": 75983718
    },
    {
      "NoteNumber": 41,
      "Velocity": 96,
      "Duration": 232582,
      "SoundDuration": 232582,
      "Delta": 75983718
    },
    {
      "NoteNumber": 53,
      "Velocity": 96,
      "Duration": 232582,
      "SoundDuration": 232582,
      "Delta": 76229620
    },
    {
      "NoteNumber": 57,
      "Velocity": 96,
      "Duration": 232582,
      "SoundDuration": 232582,
      "Delta": 76229620
    },
    {
      "NoteNumber": 81,
      "Velocity": 96,
      "Duration": 232582,
      "SoundDuration": 232582,
      "Delta": 76229620
    },
    {
      "NoteNumber": 48,
      "Velocity": 96,
      "Duration": 195902,
      "SoundDuration": 195902,
      "Delta": 76475522
    },
    {
      "NoteNumber": 79,
      "Velocity": 96,
      "Duration": 232582,
      "SoundDuration": 232582,
      "Delta": 76475522
    },
    {
      "NoteNumber": 48,
      "Velocity": 96,
      "Duration": 195902,
      "SoundDuration": 195902,
      "Delta": 76721424
    },
    {
      "NoteNumber": 67,
      "Velocity": 96,
      "Duration": 232582,
      "SoundDuration": 232582,
      "Delta": 76721424
    },
    {
      "NoteNumber": 48,
      "Velocity": 96,
      "Duration": 232582,
      "SoundDuration": 232582,
      "Delta": 76967326
    },
    {
      "NoteNumber": 79,
      "Velocity": 96,
      "Duration": 195902,
      "SoundDuration": 195902,
      "Delta": 76967326
    },
    {
      "NoteNumber": 55,
      "Velocity": 96,
      "Duration": 232582,
      "SoundDuration": 232582,
      "Delta": 77213228
    },
    {
      "NoteNumber": 60,
      "Velocity": 96,
      "Duration": 232582,
      "SoundDuration": 232582,
      "Delta": 77213228
    },
    {
      "NoteNumber": 72,
      "Velocity": 96,
      "Duration": 195902,
      "SoundDuration": 195902,
      "Delta": 77213228
    },
    {
      "NoteNumber": 79,
      "Velocity": 96,
      "Duration": 232582,
      "SoundDuration": 232582,
      "Delta": 77213228
    },
    {
      "NoteNumber": 72,
      "Velocity": 96,
      "Duration": 195902,
      "SoundDuration": 195902,
      "Delta": 77459130
    },
    {
      "NoteNumber": 36,
      "Velocity": 96,
      "Duration": 232582,
      "SoundDuration": 232582,
      "Delta": 77459130
    },
    {
      "NoteNumber": 48,
      "Velocity": 96,
      "Duration": 232582,
      "SoundDuration": 232582,
      "Delta": 77705032
    },
    {
      "NoteNumber": 72,
      "Velocity": 96,
      "Duration": 195902,
      "SoundDuration": 195902,
      "Delta": 77705032
    },
    {
      "NoteNumber": 79,
      "Velocity": 96,
      "Duration": 195902,
      "SoundDuration": 195902,
      "Delta": 77705032
    },
    {
      "NoteNumber": 43,
      "Velocity": 96,
      "Duration": 232582,
      "SoundDuration": 232582,
      "Delta": 77950934
    },
    {
      "NoteNumber": 72,
      "Velocity": 96,
      "Duration": 232582,
      "SoundDuration": 232582,
      "Delta": 77950934
    },
    {
      "NoteNumber": 79,
      "Velocity": 96,
      "Duration": 232582,
      "SoundDuration": 232582,
      "Delta": 77950934
    },
    {
      "NoteNumber": 55,
      "Velocity": 96,
      "Duration": 232582,
      "SoundDuration": 232582,
      "Delta": 78196836
    },
    {
      "NoteNumber": 60,
      "Velocity": 96,
      "Duration": 232582,
      "SoundDuration": 232582,
      "Delta": 78196836
    },
    {
      "NoteNumber": 77,
      "Velocity": 96,
      "Duration": 232582,
      "SoundDuration": 232582,
      "Delta": 78196836
    },
    {
      "NoteNumber": 48,
      "Velocity": 96,
      "Duration": 195902,
      "SoundDuration": 195902,
      "Delta": 78442738
    },
    {
      "NoteNumber": 81,
      "Velocity": 96,
      "Duration": 466189,
      "SoundDuration": 466189,
      "Delta": 78442738
    },
    {
      "NoteNumber": 48,
      "Velocity": 96,
      "Duration": 466189,
      "SoundDuration": 466189,
      "Delta": 78688640
    },
    {
      "NoteNumber": 74,
      "Velocity": 96,
      "Duration": 232582,
      "SoundDuration": 232582,
      "Delta": 78934542
    },
    {
      "NoteNumber": 60,
      "Velocity": 96,
      "Duration": 466189,
      "SoundDuration": 466189,
      "Delta": 79180444
    },
    {
      "NoteNumber": 77,
      "Velocity": 96,
      "Duration": 232582,
      "SoundDuration": 232582,
      "Delta": 79180444
    },
    {
      "NoteNumber": 76,
      "Velocity": 96,
      "Duration": 232582,
      "SoundDuration": 232582,
      "Delta": 79426346
    },
    {
      "NoteNumber": 48,
      "Velocity": 96,
      "Duration": 318853,
      "SoundDuration": 318853,
      "Delta": 79672248
    },
    {
      "NoteNumber": 74,
      "Velocity": 96,
      "Duration": 466189,
      "SoundDuration": 466189,
      "Delta": 79672248
    },
    {
      "NoteNumber": 48,
      "Velocity": 96,
      "Duration": 115778,
      "SoundDuration": 115778,
      "Delta": 80041101
    },
    {
      "NoteNumber": 60,
      "Velocity": 96,
      "Duration": 466189,
      "SoundDuration": 466189,
      "Delta": 80164052
    },
    {
      "NoteNumber": 65,
      "Velocity": 80,
      "Duration": 232582,
      "SoundDuration": 232582,
      "Delta": 80409954
    },
    {
      "NoteNumber": 77,
      "Velocity": 80,
      "Duration": 232582,
      "SoundDuration": 232582,
      "Delta": 80409954
    },
    {
      "NoteNumber": 46,
      "Velocity": 80,
      "Duration": 232582,
      "SoundDuration": 232582,
      "Delta": 80655856
    },
    {
      "NoteNumber": 67,
      "Velocity": 80,
      "Duration": 466189,
      "SoundDuration": 466189,
      "Delta": 80655856
    },
    {
      "NoteNumber": 79,
      "Velocity": 80,
      "Duration": 466189,
      "SoundDuration": 466189,
      "Delta": 80655856
    },
    {
      "NoteNumber": 41,
      "Velocity": 80,
      "Duration": 232582,
      "SoundDuration": 232582,
      "Delta": 80901758
    },
    {
      "NoteNumber": 46,
      "Velocity": 80,
      "Duration": 232582,
      "SoundDuration": 232582,
      "Delta": 81147660
    },
    {
      "NoteNumber": 53,
      "Velocity": 80,
      "Duration": 232582,
      "SoundDuration": 232582,
      "Delta": 81147660
    },
    {
      "NoteNumber": 69,
      "Velocity": 80,
      "Duration": 232582,
      "SoundDuration": 232582,
      "Delta": 81147660
    },
    {
      "NoteNumber": 81,
      "Velocity": 80,
      "Duration": 232582,
      "SoundDuration": 232582,
      "Delta": 81147660
    },
    {
      "NoteNumber": 67,
      "Velocity": 80,
      "Duration": 466189,
      "SoundDuration": 466189,
      "Delta": 81393562
    },
    {
      "NoteNumber": 79,
      "Velocity": 80,
      "Duration": 466189,
      "SoundDuration": 466189,
      "Delta": 81393562
    },
    {
      "NoteNumber": 41,
      "Velocity": 80,
      "Duration": 232582,
      "SoundDuration": 232582,
      "Delta": 81393562
    },
    {
      "NoteNumber": 46,
      "Velocity": 80,
      "Duration": 232582,
      "SoundDuration": 232582,
      "Delta": 81639464
    },
    {
      "NoteNumber": 41,
      "Velocity": 80,
      "Duration": 232582,
      "SoundDuration": 232582,
      "Delta": 81885366
    },
    {
      "NoteNumber": 46,
      "Velocity": 80,
      "Duration": 466189,
      "SoundDuration": 466189,
      "Delta": 82131268
    },
    {
      "NoteNumber": 53,
      "Velocity": 80,
      "Duration": 466189,
      "SoundDuration": 466189,
      "Delta": 82131268
    },
    {
      "NoteNumber": 65,
      "Velocity": 80,
      "Duration": 232582,
      "SoundDuration": 232582,
      "Delta": 82377170
    },
    {
      "NoteNumber": 67,
      "Velocity": 80,
      "Duration": 232582,
      "SoundDuration": 232582,
      "Delta": 82623072
    },
    {
      "NoteNumber": 45,
      "Velocity": 80,
      "Duration": 232582,
      "SoundDuration": 232582,
      "Delta": 82623072
    },
    {
      "NoteNumber": 65,
      "Velocity": 80,
      "Duration": 232582,
      "SoundDuration": 232582,
      "Delta": 82868974
    },
    {
      "NoteNumber": 48,
      "Velocity": 80,
      "Duration": 232582,
      "SoundDuration": 232582,
      "Delta": 82868974
    },
    {
      "NoteNumber": 50,
      "Velocity": 80,
      "Duration": 232582,
      "SoundDuration": 232582,
      "Delta": 83114876
    },
    {
      "NoteNumber": 57,
      "Velocity": 80,
      "Duration": 232582,
      "SoundDuration": 232582,
      "Delta": 83114876
    },
    {
      "NoteNumber": 67,
      "Velocity": 80,
      "Duration": 232582,
      "SoundDuration": 232582,
      "Delta": 83114876
    },
    {
      "NoteNumber": 69,
      "Velocity": 80,
      "Duration": 232582,
      "SoundDuration": 232582,
      "Delta": 83360778
    },
    {
      "NoteNumber": 41,
      "Velocity": 80,
      "Duration": 232582,
      "SoundDuration": 232582,
      "Delta": 83360778
    },
    {
      "NoteNumber": 67,
      "Velocity": 80,
      "Duration": 232582,
      "SoundDuration": 232582,
      "Delta": 83606680
    },
    {
      "NoteNumber": 45,
      "Velocity": 80,
      "Duration": 232582,
      "SoundDuration": 232582,
      "Delta": 83606680
    },
    {
      "NoteNumber": 65,
      "Velocity": 80,
      "Duration": 441804,
      "SoundDuration": 441804,
      "Delta": 83852582
    },
    {
      "NoteNumber": 48,
      "Velocity": 80,
      "Duration": 232582,
      "SoundDuration": 232582,
      "Delta": 83852582
    },
    {
      "NoteNumber": 50,
      "Velocity": 80,
      "Duration": 466189,
      "SoundDuration": 466189,
      "Delta": 84098484
    },
    {
      "NoteNumber": 57,
      "Velocity": 80,
      "Duration": 466189,
      "SoundDuration": 466189,
      "Delta": 84098484
    },
    {
      "NoteNumber": 65,
      "Velocity": 80,
      "Duration": 232582,
      "SoundDuration": 232582,
      "Delta": 84344386
    },
    {
      "NoteNumber": 77,
      "Velocity": 80,
      "Duration": 232582,
      "SoundDuration": 232582,
      "Delta": 84344386
    },
    {
      "NoteNumber": 48,
      "Velocity": 80,
      "Duration": 195902,
      "SoundDuration": 195902,
      "Delta": 84590288
    },
    {
      "NoteNumber": 67,
      "Velocity": 80,
      "Duration": 466189,
      "SoundDuration": 466189,
      "Delta": 84590288
    },
    {
      "NoteNumber": 79,
      "Velocity": 80,
      "Duration": 466189,
      "SoundDuration": 466189,
      "Delta": 84590288
    },
    {
      "NoteNumber": 48,
      "Velocity": 80,
      "Duration": 232582,
      "SoundDuration": 232582,
      "Delta": 84836190
    },
    {
      "NoteNumber": 69,
      "Velocity": 80,
      "Duration": 232582,
      "SoundDuration": 232582,
      "Delta": 85082092
    },
    {
      "NoteNumber": 55,
      "Velocity": 80,
      "Duration": 232582,
      "SoundDuration": 232582,
      "Delta": 85082092
    },
    {
      "NoteNumber": 60,
      "Velocity": 80,
      "Duration": 232582,
      "SoundDuration": 232582,
      "Delta": 85082092
    },
    {
      "NoteNumber": 81,
      "Velocity": 80,
      "Duration": 232582,
      "SoundDuration": 232582,
      "Delta": 85082092
    },
    {
      "NoteNumber": 67,
      "Velocity": 80,
      "Duration": 232582,
      "SoundDuration": 232582,
      "Delta": 85327994
    },
    {
      "NoteNumber": 43,
      "Velocity": 80,
      "Duration": 232582,
      "SoundDuration": 232582,
      "Delta": 85327994
    },
    {
      "NoteNumber": 79,
      "Velocity": 80,
      "Duration": 232582,
      "SoundDuration": 232582,
      "Delta": 85327994
    },
    {
      "NoteNumber": 48,
      "Velocity": 80,
      "Duration": 195902,
      "SoundDuration": 195902,
      "Delta": 85573896
    },
    {
      "NoteNumber": 48,
      "Velocity": 80,
      "Duration": 232582,
      "SoundDuration": 232582,
      "Delta": 85819798
    },
    {
      "NoteNumber": 67,
      "Velocity": 80,
      "Duration": 195902,
      "SoundDuration": 195902,
      "Delta": 85819798
    },
    {
      "NoteNumber": 55,
      "Velocity": 80,
      "Duration": 232582,
      "SoundDuration": 232582,
      "Delta": 86065700
    },
    {
      "NoteNumber": 67,
      "Velocity": 80,
      "Duration": 195902,
      "SoundDuration": 195902,
      "Delta": 86065700
    },
    {
      "NoteNumber": 60,
      "Velocity": 80,
      "Duration": 232582,
      "SoundDuration": 232582,
      "Delta": 86065700
    },
    {
      "NoteNumber": 48,
      "Velocity": 80,
      "Duration": 232582,
      "SoundDuration": 232582,
      "Delta": 86311602
    },
    {
      "NoteNumber": 67,
      "Velocity": 80,
      "Duration": 195902,
      "SoundDuration": 195902,
      "Delta": 86311602
    },
    {
      "NoteNumber": 46,
      "Velocity": 80,
      "Duration": 232582,
      "SoundDuration": 232582,
      "Delta": 86557504
    },
    {
      "NoteNumber": 67,
      "Velocity": 80,
      "Duration": 232582,
      "SoundDuration": 232582,
      "Delta": 86557504
    },
    {
      "NoteNumber": 65,
      "Velocity": 80,
      "Duration": 232582,
      "SoundDuration": 232582,
      "Delta": 86803406
    },
    {
      "NoteNumber": 41,
      "Velocity": 80,
      "Duration": 232582,
      "SoundDuration": 232582,
      "Delta": 86803406
    },
    {
      "NoteNumber": 50,
      "Velocity": 80,
      "Duration": 232582,
      "SoundDuration": 232582,
      "Delta": 87049308
    },
    {
      "NoteNumber": 53,
      "Velocity": 80,
      "Duration": 232582,
      "SoundDuration": 232582,
      "Delta": 87049308
    },
    {
      "NoteNumber": 67,
      "Velocity": 80,
      "Duration": 232582,
      "SoundDuration": 232582,
      "Delta": 87049308
    },
    {
      "NoteNumber": 69,
      "Velocity": 80,
      "Duration": 232582,
      "SoundDuration": 232582,
      "Delta": 87295210
    },
    {
      "NoteNumber": 41,
      "Velocity": 80,
      "Duration": 232582,
      "SoundDuration": 232582,
      "Delta": 87295210
    },
    {
      "NoteNumber": 46,
      "Velocity": 80,
      "Duration": 195902,
      "SoundDuration": 195902,
      "Delta": 87541112
    },
    {
      "NoteNumber": 67,
      "Velocity": 80,
      "Duration": 115778,
      "SoundDuration": 115778,
      "Delta": 87541112
    },
    {
      "NoteNumber": 65,
      "Velocity": 80,
      "Duration": 349385,
      "SoundDuration": 349385,
      "Delta": 87664063
    },
    {
      "NoteNumber": 46,
      "Velocity": 80,
      "Duration": 232582,
      "SoundDuration": 232582,
      "Delta": 87787014
    },
    {
      "NoteNumber": 50,
      "Velocity": 80,
      "Duration": 232582,
      "SoundDuration": 232582,
      "Delta": 88032916
    },
    {
      "NoteNumber": 53,
      "Velocity": 80,
      "Duration": 232582,
      "SoundDuration": 232582,
      "Delta": 88032916
    },
    {
      "NoteNumber": 46,
      "Velocity": 80,
      "Duration": 195902,
      "SoundDuration": 195902,
      "Delta": 88278818
    },
    {
      "NoteNumber": 65,
      "Velocity": 80,
      "Duration": 232582,
      "SoundDuration": 232582,
      "Delta": 88278818
    },
    {
      "NoteNumber": 77,
      "Velocity": 80,
      "Duration": 232582,
      "SoundDuration": 232582,
      "Delta": 88278818
    },
    {
      "NoteNumber": 46,
      "Velocity": 80,
      "Duration": 232582,
      "SoundDuration": 232582,
      "Delta": 88524720
    },
    {
      "NoteNumber": 72,
      "Velocity": 80,
      "Duration": 466189,
      "SoundDuration": 466189,
      "Delta": 88524720
    },
    {
      "NoteNumber": 84,
      "Velocity": 80,
      "Duration": 466189,
      "SoundDuration": 466189,
      "Delta": 88524720
    },
    {
      "NoteNumber": 41,
      "Velocity": 80,
      "Duration": 232582,
      "SoundDuration": 232582,
      "Delta": 88770622
    },
    {
      "NoteNumber": 46,
      "Velocity": 80,
      "Duration": 232582,
      "SoundDuration": 232582,
      "Delta": 89016524
    },
    {
      "NoteNumber": 53,
      "Velocity": 80,
      "Duration": 232582,
      "SoundDuration": 232582,
      "Delta": 89016524
    },
    {
      "NoteNumber": 69,
      "Velocity": 80,
      "Duration": 232582,
      "SoundDuration": 232582,
      "Delta": 89016524
    },
    {
      "NoteNumber": 81,
      "Velocity": 80,
      "Duration": 232582,
      "SoundDuration": 232582,
      "Delta": 89016524
    },
    {
      "NoteNumber": 67,
      "Velocity": 80,
      "Duration": 466189,
      "SoundDuration": 466189,
      "Delta": 89262426
    },
    {
      "NoteNumber": 79,
      "Velocity": 80,
      "Duration": 466189,
      "SoundDuration": 466189,
      "Delta": 89262426
    },
    {
      "NoteNumber": 41,
      "Velocity": 80,
      "Duration": 232582,
      "SoundDuration": 232582,
      "Delta": 89262426
    },
    {
      "NoteNumber": 46,
      "Velocity": 80,
      "Duration": 232582,
      "SoundDuration": 232582,
      "Delta": 89508328
    },
    {
      "NoteNumber": 41,
      "Velocity": 80,
      "Duration": 232582,
      "SoundDuration": 232582,
      "Delta": 89754230
    },
    {
      "NoteNumber": 46,
      "Velocity": 80,
      "Duration": 466189,
      "SoundDuration": 466189,
      "Delta": 90000132
    },
    {
      "NoteNumber": 53,
      "Velocity": 80,
      "Duration": 466189,
      "SoundDuration": 466189,
      "Delta": 90000132
    },
    {
      "NoteNumber": 65,
      "Velocity": 80,
      "Duration": 232582,
      "SoundDuration": 232582,
      "Delta": 90000132
    },
    {
      "NoteNumber": 67,
      "Velocity": 80,
      "Duration": 195902,
      "SoundDuration": 195902,
      "Delta": 90246034
    },
    {
      "NoteNumber": 67,
      "Velocity": 80,
      "Duration": 232582,
      "SoundDuration": 232582,
      "Delta": 90491936
    },
    {
      "NoteNumber": 45,
      "Velocity": 80,
      "Duration": 232582,
      "SoundDuration": 232582,
      "Delta": 90491936
    },
    {
      "NoteNumber": 65,
      "Velocity": 80,
      "Duration": 232582,
      "SoundDuration": 232582,
      "Delta": 90737838
    },
    {
      "NoteNumber": 48,
      "Velocity": 80,
      "Duration": 232582,
      "SoundDuration": 232582,
      "Delta": 90737838
    },
    {
      "NoteNumber": 50,
      "Velocity": 80,
      "Duration": 232582,
      "SoundDuration": 232582,
      "Delta": 90983740
    },
    {
      "NoteNumber": 57,
      "Velocity": 80,
      "Duration": 232582,
      "SoundDuration": 232582,
      "Delta": 90983740
    },
    {
      "NoteNumber": 67,
      "Velocity": 80,
      "Duration": 232582,
      "SoundDuration": 232582,
      "Delta": 90983740
    },
    {
      "NoteNumber": 69,
      "Velocity": 80,
      "Duration": 232582,
      "SoundDuration": 232582,
      "Delta": 91229642
    },
    {
      "NoteNumber": 41,
      "Velocity": 80,
      "Duration": 232582,
      "SoundDuration": 232582,
      "Delta": 91229642
    },
    {
      "NoteNumber": 67,
      "Velocity": 80,
      "Duration": 232582,
      "SoundDuration": 232582,
      "Delta": 91475544
    },
    {
      "NoteNumber": 45,
      "Velocity": 80,
      "Duration": 232582,
      "SoundDuration": 232582,
      "Delta": 91475544
    },
    {
      "NoteNumber": 65,
      "Velocity": 80,
      "Duration": 232582,
      "SoundDuration": 232582,
      "Delta": 91721446
    },
    {
      "NoteNumber": 48,
      "Velocity": 80,
      "Duration": 232582,
      "SoundDuration": 232582,
      "Delta": 91721446
    },
    {
      "NoteNumber": 50,
      "Velocity": 80,
      "Duration": 466189,
      "SoundDuration": 466189,
      "Delta": 91967348
    },
    {
      "NoteNumber": 57,
      "Velocity": 80,
      "Duration": 466189,
      "SoundDuration": 466189,
      "Delta": 91967348
    },
    {
      "NoteNumber": 62,
      "Velocity": 80,
      "Duration": 232582,
      "SoundDuration": 232582,
      "Delta": 91967348
    },
    {
      "NoteNumber": 74,
      "Velocity": 80,
      "Duration": 232582,
      "SoundDuration": 232582,
      "Delta": 91967348
    },
    {
      "NoteNumber": 65,
      "Velocity": 80,
      "Duration": 232582,
      "SoundDuration": 232582,
      "Delta": 92213250
    },
    {
      "NoteNumber": 77,
      "Velocity": 80,
      "Duration": 232582,
      "SoundDuration": 232582,
      "Delta": 92213250
    },
    {
      "NoteNumber": 48,
      "Velocity": 80,
      "Duration": 195902,
      "SoundDuration": 195902,
      "Delta": 92459152
    },
    {
      "NoteNumber": 67,
      "Velocity": 80,
      "Duration": 232582,
      "SoundDuration": 232582,
      "Delta": 92459152
    },
    {
      "NoteNumber": 79,
      "Velocity": 80,
      "Duration": 232582,
      "SoundDuration": 232582,
      "Delta": 92459152
    },
    {
      "NoteNumber": 65,
      "Velocity": 80,
      "Duration": 232582,
      "SoundDuration": 232582,
      "Delta": 92705054
    },
    {
      "NoteNumber": 48,
      "Velocity": 80,
      "Duration": 232582,
      "SoundDuration": 232582,
      "Delta": 92705054
    },
    {
      "NoteNumber": 77,
      "Velocity": 80,
      "Duration": 232582,
      "SoundDuration": 232582,
      "Delta": 92705054
    },
    {
      "NoteNumber": 55,
      "Velocity": 80,
      "Duration": 232582,
      "SoundDuration": 232582,
      "Delta": 92950956
    },
    {
      "NoteNumber": 67,
      "Velocity": 80,
      "Duration": 232582,
      "SoundDuration": 232582,
      "Delta": 92950956
    },
    {
      "NoteNumber": 60,
      "Velocity": 80,
      "Duration": 232582,
      "SoundDuration": 232582,
      "Delta": 92950956
    },
    {
      "NoteNumber": 79,
      "Velocity": 80,
      "Duration": 232582,
      "SoundDuration": 232582,
      "Delta": 92950956
    },
    {
      "NoteNumber": 69,
      "Velocity": 80,
      "Duration": 232582,
      "SoundDuration": 232582,
      "Delta": 93196858
    },
    {
      "NoteNumber": 43,
      "Velocity": 80,
      "Duration": 232582,
      "SoundDuration": 232582,
      "Delta": 93196858
    },
    {
      "NoteNumber": 81,
      "Velocity": 80,
      "Duration": 232582,
      "SoundDuration": 232582,
      "Delta": 93196858
    },
    {
      "NoteNumber": 48,
      "Velocity": 80,
      "Duration": 195902,
      "SoundDuration": 195902,
      "Delta": 93442760
    },
    {
      "NoteNumber": 67,
      "Velocity": 80,
      "Duration": 466189,
      "SoundDuration": 466189,
      "Delta": 93442760
    },
    {
      "NoteNumber": 79,
      "Velocity": 80,
      "Duration": 466189,
      "SoundDuration": 466189,
      "Delta": 93442760
    },
    {
      "NoteNumber": 48,
      "Velocity": 80,
      "Duration": 232582,
      "SoundDuration": 232582,
      "Delta": 93688662
    },
    {
      "NoteNumber": 55,
      "Velocity": 80,
      "Duration": 232582,
      "SoundDuration": 232582,
      "Delta": 93934564
    },
    {
      "NoteNumber": 60,
      "Velocity": 80,
      "Duration": 232582,
      "SoundDuration": 232582,
      "Delta": 93934564
    },
    {
      "NoteNumber": 48,
      "Velocity": 80,
      "Duration": 195902,
      "SoundDuration": 195902,
      "Delta": 94180466
    },
    {
      "NoteNumber": 48,
      "Velocity": 80,
      "Duration": 195902,
      "SoundDuration": 195902,
      "Delta": 94426368
    },
    {
      "NoteNumber": 48,
      "Velocity": 80,
      "Duration": 232582,
      "SoundDuration": 232582,
      "Delta": 94672270
    },
    {
      "NoteNumber": 55,
      "Velocity": 80,
      "Duration": 232582,
      "SoundDuration": 232582,
      "Delta": 94918172
    },
    {
      "NoteNumber": 60,
      "Velocity": 80,
      "Duration": 232582,
      "SoundDuration": 232582,
      "Delta": 94918172
    },
    {
      "NoteNumber": 43,
      "Velocity": 80,
      "Duration": 232582,
      "SoundDuration": 232582,
      "Delta": 95164074
    },
    {
      "NoteNumber": 48,
      "Velocity": 80,
      "Duration": 195902,
      "SoundDuration": 195902,
      "Delta": 95409976
    },
    {
      "NoteNumber": 48,
      "Velocity": 80,
      "Duration": 232582,
      "SoundDuration": 232582,
      "Delta": 95655878
    },
    {
      "NoteNumber": 55,
      "Velocity": 80,
      "Duration": 232582,
      "SoundDuration": 232582,
      "Delta": 95901780
    },
    {
      "NoteNumber": 60,
      "Velocity": 80,
      "Duration": 232582,
      "SoundDuration": 232582,
      "Delta": 95901780
    },
    {
      "NoteNumber": 48,
      "Velocity": 80,
      "Duration": 232582,
      "SoundDuration": 232582,
      "Delta": 96147682
    },
    {
      "NoteNumber": 77,
      "Velocity": 80,
      "Duration": 232582,
      "SoundDuration": 232582,
      "Delta": 96147682
    },
    {
      "NoteNumber": 81,
      "Velocity": 80,
      "Duration": 232582,
      "SoundDuration": 232582,
      "Delta": 96147682
    },
    {
      "NoteNumber": 46,
      "Velocity": 80,
      "Duration": 232582,
      "SoundDuration": 232582,
      "Delta": 96393584
    },
    {
      "NoteNumber": 79,
      "Velocity": 80,
      "Duration": 195902,
      "SoundDuration": 195902,
      "Delta": 96393584
    },
    {
      "NoteNumber": 82,
      "Velocity": 80,
      "Duration": 232582,
      "SoundDuration": 232582,
      "Delta": 96393584
    },
    {
      "NoteNumber": 53,
      "Velocity": 80,
      "Duration": 195902,
      "SoundDuration": 195902,
      "Delta": 96639486
    },
    {
      "NoteNumber": 79,
      "Velocity": 80,
      "Duration": 232582,
      "SoundDuration": 232582,
      "Delta": 96639486
    },
    {
      "NoteNumber": 53,
      "Velocity": 80,
      "Duration": 232582,
      "SoundDuration": 232582,
      "Delta": 96885388
    },
    {
      "NoteNumber": 81,
      "Velocity": 80,
      "Duration": 195902,
      "SoundDuration": 195902,
      "Delta": 96885388
    },
    {
      "NoteNumber": 58,
      "Velocity": 80,
      "Duration": 232582,
      "SoundDuration": 232582,
      "Delta": 96885388
    },
    {
      "NoteNumber": 84,
      "Velocity": 80,
      "Duration": 232582,
      "SoundDuration": 232582,
      "Delta": 96885388
    },
    {
      "NoteNumber": 46,
      "Velocity": 80,
      "Duration": 232582,
      "SoundDuration": 232582,
      "Delta": 97131290
    },
    {
      "NoteNumber": 81,
      "Velocity": 80,
      "Duration": 195902,
      "SoundDuration": 195902,
      "Delta": 97131290
    },
    {
      "NoteNumber": 53,
      "Velocity": 80,
      "Duration": 232582,
      "SoundDuration": 232582,
      "Delta": 97377192
    },
    {
      "NoteNumber": 81,
      "Velocity": 80,
      "Duration": 195902,
      "SoundDuration": 195902,
      "Delta": 97377192
    },
    {
      "NoteNumber": 46,
      "Velocity": 80,
      "Duration": 232582,
      "SoundDuration": 232582,
      "Delta": 97623094
    },
    {
      "NoteNumber": 81,
      "Velocity": 80,
      "Duration": 195902,
      "SoundDuration": 195902,
      "Delta": 97623094
    },
    {
      "NoteNumber": 53,
      "Velocity": 80,
      "Duration": 466189,
      "SoundDuration": 466189,
      "Delta": 97868996
    },
    {
      "NoteNumber": 81,
      "Velocity": 80,
      "Duration": 232582,
      "SoundDuration": 232582,
      "Delta": 97868996
    },
    {
      "NoteNumber": 58,
      "Velocity": 80,
      "Duration": 466189,
      "SoundDuration": 466189,
      "Delta": 97868996
    },
    {
      "NoteNumber": 65,
      "Velocity": 80,
      "Duration": 232582,
      "SoundDuration": 232582,
      "Delta": 98114898
    },
    {
      "NoteNumber": 77,
      "Velocity": 80,
      "Duration": 232582,
      "SoundDuration": 232582,
      "Delta": 98114898
    },
    {
      "NoteNumber": 50,
      "Velocity": 80,
      "Duration": 232582,
      "SoundDuration": 232582,
      "Delta": 98360800
    },
    {
      "NoteNumber": 67,
      "Velocity": 80,
      "Duration": 232582,
      "SoundDuration": 232582,
      "Delta": 98360800
    },
    {
      "NoteNumber": 79,
      "Velocity": 80,
      "Duration": 232582,
      "SoundDuration": 232582,
      "Delta": 98360800
    },
    {
      "NoteNumber": 65,
      "Velocity": 80,
      "Duration": 232582,
      "SoundDuration": 232582,
      "Delta": 98606702
    },
    {
      "NoteNumber": 45,
      "Velocity": 80,
      "Duration": 232582,
      "SoundDuration": 232582,
      "Delta": 98606702
    },
    {
      "NoteNumber": 77,
      "Velocity": 80,
      "Duration": 232582,
      "SoundDuration": 232582,
      "Delta": 98606702
    },
    {
      "NoteNumber": 53,
      "Velocity": 80,
      "Duration": 232582,
      "SoundDuration": 232582,
      "Delta": 98852604
    },
    {
      "NoteNumber": 57,
      "Velocity": 80,
      "Duration": 232582,
      "SoundDuration": 232582,
      "Delta": 98852604
    },
    {
      "NoteNumber": 67,
      "Velocity": 80,
      "Duration": 232582,
      "SoundDuration": 232582,
      "Delta": 98852604
    },
    {
      "NoteNumber": 79,
      "Velocity": 80,
      "Duration": 232582,
      "SoundDuration": 232582,
      "Delta": 98852604
    },
    {
      "NoteNumber": 69,
      "Velocity": 80,
      "Duration": 232582,
      "SoundDuration": 232582,
      "Delta": 99098506
    },
    {
      "NoteNumber": 45,
      "Velocity": 80,
      "Duration": 232582,
      "SoundDuration": 232582,
      "Delta": 99098506
    },
    {
      "NoteNumber": 81,
      "Velocity": 80,
      "Duration": 232582,
      "SoundDuration": 232582,
      "Delta": 99098506
    },
    {
      "NoteNumber": 50,
      "Velocity": 80,
      "Duration": 195902,
      "SoundDuration": 195902,
      "Delta": 99344408
    },
    {
      "NoteNumber": 67,
      "Velocity": 80,
      "Duration": 232582,
      "SoundDuration": 232582,
      "Delta": 99344408
    },
    {
      "NoteNumber": 79,
      "Velocity": 80,
      "Duration": 232582,
      "SoundDuration": 232582,
      "Delta": 99344408
    },
    {
      "NoteNumber": 50,
      "Velocity": 80,
      "Duration": 232582,
      "SoundDuration": 232582,
      "Delta": 99590310
    },
    {
      "NoteNumber": 65,
      "Velocity": 80,
      "Duration": 195902,
      "SoundDuration": 195902,
      "Delta": 99590310
    },
    {
      "NoteNumber": 77,
      "Velocity": 80,
      "Duration": 232582,
      "SoundDuration": 232582,
      "Delta": 99590310
    },
    {
      "NoteNumber": 53,
      "Velocity": 80,
      "Duration": 466189,
      "SoundDuration": 466189,
      "Delta": 99836212
    },
    {
      "NoteNumber": 65,
      "Velocity": 80,
      "Duration": 232582,
      "SoundDuration": 232582,
      "Delta": 99836212
    },
    {
      "NoteNumber": 57,
      "Velocity": 80,
      "Duration": 466189,
      "SoundDuration": 466189,
      "Delta": 99836212
    },
    {
      "NoteNumber": 77,
      "Velocity": 80,
      "Duration": 232582,
      "SoundDuration": 232582,
      "Delta": 100082114
    },
    {
      "NoteNumber": 84,
      "Velocity": 80,
      "Duration": 195902,
      "SoundDuration": 195902,
      "Delta": 100082114
    },
    {
      "NoteNumber": 48,
      "Velocity": 80,
      "Duration": 195902,
      "SoundDuration": 195902,
      "Delta": 100328016
    },
    {
      "NoteNumber": 79,
      "Velocity": 80,
      "Duration": 195902,
      "SoundDuration": 195902,
      "Delta": 100328016
    },
    {
      "NoteNumber": 84,
      "Velocity": 80,
      "Duration": 232582,
      "SoundDuration": 232582,
      "Delta": 100328016
    },
    {
      "NoteNumber": 48,
      "Velocity": 80,
      "Duration": 232582,
      "SoundDuration": 232582,
      "Delta": 100573918
    },
    {
      "NoteNumber": 79,
      "Velocity": 80,
      "Duration": 232582,
      "SoundDuration": 232582,
      "Delta": 100573918
    },
    {
      "NoteNumber": 52,
      "Velocity": 80,
      "Duration": 232582,
      "SoundDuration": 232582,
      "Delta": 100819820
    },
    {
      "NoteNumber": 55,
      "Velocity": 80,
      "Duration": 232582,
      "SoundDuration": 232582,
      "Delta": 100819820
    },
    {
      "NoteNumber": 81,
      "Velocity": 80,
      "Duration": 195902,
      "SoundDuration": 195902,
      "Delta": 100819820
    },
    {
      "NoteNumber": 84,
      "Velocity": 80,
      "Duration": 232582,
      "SoundDuration": 232582,
      "Delta": 100819820
    },
    {
      "NoteNumber": 43,
      "Velocity": 80,
      "Duration": 232582,
      "SoundDuration": 232582,
      "Delta": 101065722
    },
    {
      "NoteNumber": 81,
      "Velocity": 80,
      "Duration": 195902,
      "SoundDuration": 195902,
      "Delta": 101065722
    },
    {
      "NoteNumber": 48,
      "Velocity": 80,
      "Duration": 232582,
      "SoundDuration": 232582,
      "Delta": 101311624
    },
    {
      "NoteNumber": 81,
      "Velocity": 80,
      "Duration": 232582,
      "SoundDuration": 232582,
      "Delta": 101311624
    },
    {
      "NoteNumber": 67,
      "Velocity": 80,
      "Duration": 195902,
      "SoundDuration": 195902,
      "Delta": 101557526
    },
    {
      "NoteNumber": 43,
      "Velocity": 80,
      "Duration": 232582,
      "SoundDuration": 232582,
      "Delta": 101557526
    },
    {
      "NoteNumber": 79,
      "Velocity": 80,
      "Duration": 195902,
      "SoundDuration": 195902,
      "Delta": 101557526
    },
    {
      "NoteNumber": 52,
      "Velocity": 80,
      "Duration": 466189,
      "SoundDuration": 466189,
      "Delta": 101803428
    },
    {
      "NoteNumber": 55,
      "Velocity": 80,
      "Duration": 466189,
      "SoundDuration": 466189,
      "Delta": 101803428
    },
    {
      "NoteNumber": 67,
      "Velocity": 80,
      "Duration": 195902,
      "SoundDuration": 195902,
      "Delta": 101803428
    },
    {
      "NoteNumber": 79,
      "Velocity": 80,
      "Duration": 195902,
      "SoundDuration": 195902,
      "Delta": 101803428
    },
    {
      "NoteNumber": 67,
      "Velocity": 80,
      "Duration": 195902,
      "SoundDuration": 195902,
      "Delta": 102049330
    },
    {
      "NoteNumber": 79,
      "Velocity": 80,
      "Duration": 195902,
      "SoundDuration": 195902,
      "Delta": 102049330
    },
    {
      "NoteNumber": 67,
      "Velocity": 80,
      "Duration": 232582,
      "SoundDuration": 232582,
      "Delta": 102295232
    },
    {
      "NoteNumber": 43,
      "Velocity": 80,
      "Duration": 232582,
      "SoundDuration": 232582,
      "Delta": 102295232
    },
    {
      "NoteNumber": 79,
      "Velocity": 80,
      "Duration": 232582,
      "SoundDuration": 232582,
      "Delta": 102295232
    },
    {
      "NoteNumber": 46,
      "Velocity": 80,
      "Duration": 195902,
      "SoundDuration": 195902,
      "Delta": 102541134
    },
    {
      "NoteNumber": 65,
      "Velocity": 80,
      "Duration": 232582,
      "SoundDuration": 232582,
      "Delta": 102541134
    },
    {
      "NoteNumber": 77,
      "Velocity": 80,
      "Duration": 232582,
      "SoundDuration": 232582,
      "Delta": 102541134
    },
    {
      "NoteNumber": 46,
      "Velocity": 80,
      "Duration": 195902,
      "SoundDuration": 195902,
      "Delta": 102787036
    },
    {
      "NoteNumber": 53,
      "Velocity": 80,
      "Duration": 232582,
      "SoundDuration": 232582,
      "Delta": 102787036
    },
    {
      "NoteNumber": 67,
      "Velocity": 80,
      "Duration": 232582,
      "SoundDuration": 232582,
      "Delta": 102787036
    },
    {
      "NoteNumber": 79,
      "Velocity": 80,
      "Duration": 232582,
      "SoundDuration": 232582,
      "Delta": 102787036
    },
    {
      "NoteNumber": 46,
      "Velocity": 80,
      "Duration": 195902,
      "SoundDuration": 195902,
      "Delta": 103032938
    },
    {
      "NoteNumber": 69,
      "Velocity": 80,
      "Duration": 232582,
      "SoundDuration": 232582,
      "Delta": 103032938
    },
    {
      "NoteNumber": 81,
      "Velocity": 80,
      "Duration": 232582,
      "SoundDuration": 232582,
      "Delta": 103032938
    },
    {
      "NoteNumber": 46,
      "Velocity": 80,
      "Duration": 195902,
      "SoundDuration": 195902,
      "Delta": 103278840
    },
    {
      "NoteNumber": 67,
      "Velocity": 80,
      "Duration": 232582,
      "SoundDuration": 232582,
      "Delta": 103278840
    },
    {
      "NoteNumber": 79,
      "Velocity": 80,
      "Duration": 232582,
      "SoundDuration": 232582,
      "Delta": 103278840
    },
    {
      "NoteNumber": 46,
      "Velocity": 80,
      "Duration": 195902,
      "SoundDuration": 195902,
      "Delta": 103524742
    },
    {
      "NoteNumber": 65,
      "Velocity": 80,
      "Duration": 195902,
      "SoundDuration": 195902,
      "Delta": 103524742
    },
    {
      "NoteNumber": 77,
      "Velocity": 80,
      "Duration": 232582,
      "SoundDuration": 232582,
      "Delta": 103524742
    },
    {
      "NoteNumber": 46,
      "Velocity": 80,
      "Duration": 441804,
      "SoundDuration": 441804,
      "Delta": 103770644
    },
    {
      "NoteNumber": 53,
      "Velocity": 80,
      "Duration": 466189,
      "SoundDuration": 466189,
      "Delta": 103770644
    },
    {
      "NoteNumber": 65,
      "Velocity": 80,
      "Duration": 195902,
      "SoundDuration": 195902,
      "Delta": 103770644
    },
    {
      "NoteNumber": 65,
      "Velocity": 80,
      "Duration": 232582,
      "SoundDuration": 232582,
      "Delta": 104016546
    },
    {
      "NoteNumber": 77,
      "Velocity": 80,
      "Duration": 232582,
      "SoundDuration": 232582,
      "Delta": 104016546
    },
    {
      "NoteNumber": 46,
      "Velocity": 80,
      "Duration": 232582,
      "SoundDuration": 232582,
      "Delta": 104262448
    },
    {
      "NoteNumber": 84,
      "Velocity": 80,
      "Duration": 232582,
      "SoundDuration": 232582,
      "Delta": 104262448
    },
    {
      "NoteNumber": 89,
      "Velocity": 80,
      "Duration": 195902,
      "SoundDuration": 195902,
      "Delta": 104262448
    },
    {
      "NoteNumber": 53,
      "Velocity": 80,
      "Duration": 195902,
      "SoundDuration": 195902,
      "Delta": 104508350
    },
    {
      "NoteNumber": 89,
      "Velocity": 80,
      "Duration": 232582,
      "SoundDuration": 232582,
      "Delta": 104508350
    },
    {
      "NoteNumber": 53,
      "Velocity": 80,
      "Duration": 232582,
      "SoundDuration": 232582,
      "Delta": 104754252
    },
    {
      "NoteNumber": 81,
      "Velocity": 80,
      "Duration": 232582,
      "SoundDuration": 232582,
      "Delta": 104754252
    },
    {
      "NoteNumber": 58,
      "Velocity": 80,
      "Duration": 232582,
      "SoundDuration": 232582,
      "Delta": 104754252
    },
    {
      "NoteNumber": 86,
      "Velocity": 80,
      "Duration": 232582,
      "SoundDuration": 232582,
      "Delta": 104754252
    },
    {
      "NoteNumber": 46,
      "Velocity": 80,
      "Duration": 232582,
      "SoundDuration": 232582,
      "Delta": 105000154
    },
    {
      "NoteNumber": 79,
      "Velocity": 80,
      "Duration": 466189,
      "SoundDuration": 466189,
      "Delta": 105000154
    },
    {
      "NoteNumber": 84,
      "Velocity": 80,
      "Duration": 466189,
      "SoundDuration": 466189,
      "Delta": 105000154
    },
    {
      "NoteNumber": 53,
      "Velocity": 80,
      "Duration": 232582,
      "SoundDuration": 232582,
      "Delta": 105246056
    },
    {
      "NoteNumber": 46,
      "Velocity": 80,
      "Duration": 232582,
      "SoundDuration": 232582,
      "Delta": 105491958
    },
    {
      "NoteNumber": 53,
      "Velocity": 80,
      "Duration": 466189,
      "SoundDuration": 466189,
      "Delta": 105737860
    },
    {
      "NoteNumber": 58,
      "Velocity": 80,
      "Duration": 466189,
      "SoundDuration": 466189,
      "Delta": 105737860
    },
    {
      "NoteNumber": 65,
      "Velocity": 80,
      "Duration": 232582,
      "SoundDuration": 232582,
      "Delta": 105983762
    },
    {
      "NoteNumber": 77,
      "Velocity": 80,
      "Duration": 232582,
      "SoundDuration": 232582,
      "Delta": 105983762
    },
    {
      "NoteNumber": 50,
      "Velocity": 80,
      "Duration": 232582,
      "SoundDuration": 232582,
      "Delta": 106229664
    },
    {
      "NoteNumber": 67,
      "Velocity": 80,
      "Duration": 232582,
      "SoundDuration": 232582,
      "Delta": 106229664
    },
    {
      "NoteNumber": 79,
      "Velocity": 80,
      "Duration": 232582,
      "SoundDuration": 232582,
      "Delta": 106229664
    },
    {
      "NoteNumber": 65,
      "Velocity": 80,
      "Duration": 232582,
      "SoundDuration": 232582,
      "Delta": 106475566
    },
    {
      "NoteNumber": 45,
      "Velocity": 80,
      "Duration": 232582,
      "SoundDuration": 232582,
      "Delta": 106475566
    },
    {
      "NoteNumber": 77,
      "Velocity": 80,
      "Duration": 232582,
      "SoundDuration": 232582,
      "Delta": 106475566
    },
    {
      "NoteNumber": 53,
      "Velocity": 80,
      "Duration": 232582,
      "SoundDuration": 232582,
      "Delta": 106721468
    },
    {
      "NoteNumber": 57,
      "Velocity": 80,
      "Duration": 232582,
      "SoundDuration": 232582,
      "Delta": 106721468
    },
    {
      "NoteNumber": 67,
      "Velocity": 80,
      "Duration": 232582,
      "SoundDuration": 232582,
      "Delta": 106721468
    },
    {
      "NoteNumber": 79,
      "Velocity": 80,
      "Duration": 232582,
      "SoundDuration": 232582,
      "Delta": 106721468
    },
    {
      "NoteNumber": 69,
      "Velocity": 80,
      "Duration": 232582,
      "SoundDuration": 232582,
      "Delta": 106967370
    },
    {
      "NoteNumber": 45,
      "Velocity": 80,
      "Duration": 232582,
      "SoundDuration": 232582,
      "Delta": 106967370
    },
    {
      "NoteNumber": 81,
      "Velocity": 80,
      "Duration": 232582,
      "SoundDuration": 232582,
      "Delta": 106967370
    },
    {
      "NoteNumber": 50,
      "Velocity": 80,
      "Duration": 195902,
      "SoundDuration": 195902,
      "Delta": 107213272
    },
    {
      "NoteNumber": 67,
      "Velocity": 80,
      "Duration": 232582,
      "SoundDuration": 232582,
      "Delta": 107213272
    },
    {
      "NoteNumber": 79,
      "Velocity": 80,
      "Duration": 232582,
      "SoundDuration": 232582,
      "Delta": 107213272
    },
    {
      "NoteNumber": 50,
      "Velocity": 80,
      "Duration": 232582,
      "SoundDuration": 232582,
      "Delta": 107459174
    },
    {
      "NoteNumber": 65,
      "Velocity": 80,
      "Duration": 232582,
      "SoundDuration": 232582,
      "Delta": 107459174
    },
    {
      "NoteNumber": 77,
      "Velocity": 80,
      "Duration": 232582,
      "SoundDuration": 232582,
      "Delta": 107459174
    },
    {
      "NoteNumber": 53,
      "Velocity": 80,
      "Duration": 466189,
      "SoundDuration": 466189,
      "Delta": 107705076
    },
    {
      "NoteNumber": 57,
      "Velocity": 80,
      "Duration": 466189,
      "SoundDuration": 466189,
      "Delta": 107705076
    },
    {
      "NoteNumber": 62,
      "Velocity": 80,
      "Duration": 232582,
      "SoundDuration": 232582,
      "Delta": 107705076
    },
    {
      "NoteNumber": 74,
      "Velocity": 80,
      "Duration": 232582,
      "SoundDuration": 232582,
      "Delta": 107705076
    },
    {
      "NoteNumber": 65,
      "Velocity": 80,
      "Duration": 232582,
      "SoundDuration": 232582,
      "Delta": 107950978
    },
    {
      "NoteNumber": 77,
      "Velocity": 80,
      "Duration": 232582,
      "SoundDuration": 232582,
      "Delta": 107950978
    },
    {
      "NoteNumber": 48,
      "Velocity": 80,
      "Duration": 195902,
      "SoundDuration": 195902,
      "Delta": 108196880
    },
    {
      "NoteNumber": 67,
      "Velocity": 80,
      "Duration": 232582,
      "SoundDuration": 232582,
      "Delta": 108196880
    },
    {
      "NoteNumber": 79,
      "Velocity": 80,
      "Duration": 232582,
      "SoundDuration": 232582,
      "Delta": 108196880
    },
    {
      "NoteNumber": 65,
      "Velocity": 80,
      "Duration": 232582,
      "SoundDuration": 232582,
      "Delta": 108442782
    },
    {
      "NoteNumber": 48,
      "Velocity": 80,
      "Duration": 232582,
      "SoundDuration": 232582,
      "Delta": 108442782
    },
    {
      "NoteNumber": 77,
      "Velocity": 80,
      "Duration": 232582,
      "SoundDuration": 232582,
      "Delta": 108442782
    },
    {
      "NoteNumber": 52,
      "Velocity": 80,
      "Duration": 232582,
      "SoundDuration": 232582,
      "Delta": 108688684
    },
    {
      "NoteNumber": 55,
      "Velocity": 80,
      "Duration": 232582,
      "SoundDuration": 232582,
      "Delta": 108688684
    },
    {
      "NoteNumber": 67,
      "Velocity": 80,
      "Duration": 232582,
      "SoundDuration": 232582,
      "Delta": 108688684
    },
    {
      "NoteNumber": 79,
      "Velocity": 80,
      "Duration": 232582,
      "SoundDuration": 232582,
      "Delta": 108688684
    },
    {
      "NoteNumber": 69,
      "Velocity": 80,
      "Duration": 232582,
      "SoundDuration": 232582,
      "Delta": 108934586
    },
    {
      "NoteNumber": 43,
      "Velocity": 80,
      "Duration": 232582,
      "SoundDuration": 232582,
      "Delta": 108934586
    },
    {
      "NoteNumber": 81,
      "Velocity": 80,
      "Duration": 232582,
      "SoundDuration": 232582,
      "Delta": 108934586
    },
    {
      "NoteNumber": 48,
      "Velocity": 80,
      "Duration": 232582,
      "SoundDuration": 232582,
      "Delta": 109180488
    },
    {
      "NoteNumber": 67,
      "Velocity": 80,
      "Duration": 933403,
      "SoundDuration": 933403,
      "Delta": 109180488
    },
    {
      "NoteNumber": 79,
      "Velocity": 80,
      "Duration": 933403,
      "SoundDuration": 933403,
      "Delta": 109180488
    },
    {
      "NoteNumber": 43,
      "Velocity": 80,
      "Duration": 232582,
      "SoundDuration": 232582,
      "Delta": 109426390
    },
    {
      "NoteNumber": 52,
      "Velocity": 80,
      "Duration": 466189,
      "SoundDuration": 466189,
      "Delta": 109672292
    },
    {
      "NoteNumber": 55,
      "Velocity": 80,
      "Duration": 466189,
      "SoundDuration": 466189,
      "Delta": 109672292
    },
    {
      "NoteNumber": 48,
      "Velocity": 80,
      "Duration": 933403,
      "SoundDuration": 933403,
      "Delta": 110164096
    },
    {
      "NoteNumber": 62,
      "Velocity": 80,
      "Duration": 232582,
      "SoundDuration": 232582,
      "Delta": 110409998
    },
    {
      "NoteNumber": 74,
      "Velocity": 80,
      "Duration": 232582,
      "SoundDuration": 232582,
      "Delta": 110409998
    },
    {
      "NoteNumber": 65,
      "Velocity": 80,
      "Duration": 232582,
      "SoundDuration": 232582,
      "Delta": 110655900
    },
    {
      "NoteNumber": 77,
      "Velocity": 80,
      "Duration": 232582,
      "SoundDuration": 232582,
      "Delta": 110655900
    },
    {
      "NoteNumber": 62,
      "Velocity": 80,
      "Duration": 232582,
      "SoundDuration": 232582,
      "Delta": 110901802
    },
    {
      "NoteNumber": 74,
      "Velocity": 80,
      "Duration": 232582,
      "SoundDuration": 232582,
      "Delta": 110901802
    },
    {
      "NoteNumber": 67,
      "Velocity": 80,
      "Duration": 232582,
      "SoundDuration": 232582,
      "Delta": 111147704
    },
    {
      "NoteNumber": 79,
      "Velocity": 80,
      "Duration": 232582,
      "SoundDuration": 232582,
      "Delta": 111147704
    },
    {
      "NoteNumber": 69,
      "Velocity": 80,
      "Duration": 466189,
      "SoundDuration": 466189,
      "Delta": 111393606
    },
    {
      "NoteNumber": 48,
      "Velocity": 80,
      "Duration": 195902,
      "SoundDuration": 195902,
      "Delta": 111393606
    },
    {
      "NoteNumber": 60,
      "Velocity": 80,
      "Duration": 195902,
      "SoundDuration": 195902,
      "Delta": 111393606
    },
    {
      "NoteNumber": 81,
      "Velocity": 80,
      "Duration": 466189,
      "SoundDuration": 466189,
      "Delta": 111393606
    },
    {
      "NoteNumber": 48,
      "Velocity": 80,
      "Duration": 195902,
      "SoundDuration": 195902,
      "Delta": 111639508
    },
    {
      "NoteNumber": 60,
      "Velocity": 80,
      "Duration": 195902,
      "SoundDuration": 195902,
      "Delta": 111639508
    },
    {
      "NoteNumber": 48,
      "Velocity": 80,
      "Duration": 232582,
      "SoundDuration": 232582,
      "Delta": 111885410
    },
    {
      "NoteNumber": 60,
      "Velocity": 80,
      "Duration": 232582,
      "SoundDuration": 232582,
      "Delta": 111885410
    },
    {
      "NoteNumber": 72,
      "Velocity": 80,
      "Duration": 232582,
      "SoundDuration": 232582,
      "Delta": 111885410
    },
    {
      "NoteNumber": 84,
      "Velocity": 80,
      "Duration": 232582,
      "SoundDuration": 232582,
      "Delta": 111885410
    },
    {
      "NoteNumber": 70,
      "Velocity": 96,
      "Duration": 195902,
      "SoundDuration": 195902,
      "Delta": 112131312
    },
    {
      "NoteNumber": 43,
      "Velocity": 96,
      "Duration": 232582,
      "SoundDuration": 232582,
      "Delta": 112131312
    },
    {
      "NoteNumber": 79,
      "Velocity": 96,
      "Duration": 232582,
      "SoundDuration": 232582,
      "Delta": 112131312
    },
    {
      "NoteNumber": 74,
      "Velocity": 96,
      "Duration": 232582,
      "SoundDuration": 232582,
      "Delta": 112131312
    },
    {
      "NoteNumber": 31,
      "Velocity": 96,
      "Duration": 232582,
      "SoundDuration": 232582,
      "Delta": 112131312
    },
    {
      "NoteNumber": 50,
      "Velocity": 96,
      "Duration": 232582,
      "SoundDuration": 232582,
      "Delta": 112377214
    },
    {
      "NoteNumber": 70,
      "Velocity": 96,
      "Duration": 232582,
      "SoundDuration": 232582,
      "Delta": 112377214
    },
    {
      "NoteNumber": 55,
      "Velocity": 96,
      "Duration": 232582,
      "SoundDuration": 232582,
      "Delta": 112623116
    },
    {
      "NoteNumber": 62,
      "Velocity": 96,
      "Duration": 232582,
      "SoundDuration": 232582,
      "Delta": 112623116
    },
    {
      "NoteNumber": 74,
      "Velocity": 96,
      "Duration": 232582,
      "SoundDuration": 232582,
      "Delta": 112623116
    },
    {
      "NoteNumber": 50,
      "Velocity": 96,
      "Duration": 232582,
      "SoundDuration": 232582,
      "Delta": 112869018
    },
    {
      "NoteNumber": 70,
      "Velocity": 96,
      "Duration": 232582,
      "SoundDuration": 232582,
      "Delta": 112869018
    },
    {
      "NoteNumber": 55,
      "Velocity": 96,
      "Duration": 232582,
      "SoundDuration": 232582,
      "Delta": 113114920
    },
    {
      "NoteNumber": 62,
      "Velocity": 96,
      "Duration": 232582,
      "SoundDuration": 232582,
      "Delta": 113114920
    },
    {
      "NoteNumber": 74,
      "Velocity": 96,
      "Duration": 232582,
      "SoundDuration": 232582,
      "Delta": 113114920
    },
    {
      "NoteNumber": 50,
      "Velocity": 96,
      "Duration": 232582,
      "SoundDuration": 232582,
      "Delta": 113360822
    },
    {
      "NoteNumber": 72,
      "Velocity": 96,
      "Duration": 232582,
      "SoundDuration": 232582,
      "Delta": 113360822
    },
    {
      "NoteNumber": 84,
      "Velocity": 96,
      "Duration": 195902,
      "SoundDuration": 195902,
      "Delta": 113360822
    },
    {
      "NoteNumber": 55,
      "Velocity": 96,
      "Duration": 232582,
      "SoundDuration": 232582,
      "Delta": 113606724
    },
    {
      "NoteNumber": 77,
      "Velocity": 96,
      "Duration": 232582,
      "SoundDuration": 232582,
      "Delta": 113606724
    },
    {
      "NoteNumber": 84,
      "Velocity": 96,
      "Duration": 195902,
      "SoundDuration": 195902,
      "Delta": 113606724
    },
    {
      "NoteNumber": 62,
      "Velocity": 96,
      "Duration": 232582,
      "SoundDuration": 232582,
      "Delta": 113606724
    },
    {
      "NoteNumber": 50,
      "Velocity": 96,
      "Duration": 232582,
      "SoundDuration": 232582,
      "Delta": 113852626
    },
    {
      "NoteNumber": 72,
      "Velocity": 96,
      "Duration": 232582,
      "SoundDuration": 232582,
      "Delta": 113852626
    },
    {
      "NoteNumber": 84,
      "Velocity": 96,
      "Duration": 195902,
      "SoundDuration": 195902,
      "Delta": 113852626
    },
    {
      "NoteNumber": 46,
      "Velocity": 96,
      "Duration": 195902,
      "SoundDuration": 195902,
      "Delta": 114098528
    },
    {
      "NoteNumber": 77,
      "Velocity": 96,
      "Duration": 195902,
      "SoundDuration": 195902,
      "Delta": 114098528
    },
    {
      "NoteNumber": 84,
      "Velocity": 96,
      "Duration": 232582,
      "SoundDuration": 232582,
      "Delta": 114098528
    },
    {
      "NoteNumber": 34,
      "Velocity": 96,
      "Duration": 232582,
      "SoundDuration": 232582,
      "Delta": 114098528
    },
    {
      "NoteNumber": 46,
      "Velocity": 96,
      "Duration": 232582,
      "SoundDuration": 232582,
      "Delta": 114344430
    },
    {
      "NoteNumber": 77,
      "Velocity": 96,
      "Duration": 232582,
      "SoundDuration": 232582,
      "Delta": 114344430
    },
    {
      "NoteNumber": 81,
      "Velocity": 96,
      "Duration": 195902,
      "SoundDuration": 195902,
      "Delta": 114344430
    },
    {
      "NoteNumber": 53,
      "Velocity": 96,
      "Duration": 232582,
      "SoundDuration": 232582,
      "Delta": 114590332
    },
    {
      "NoteNumber": 72,
      "Velocity": 96,
      "Duration": 195902,
      "SoundDuration": 195902,
      "Delta": 114590332
    },
    {
      "NoteNumber": 81,
      "Velocity": 96,
      "Duration": 232582,
      "SoundDuration": 232582,
      "Delta": 114590332
    },
    {
      "NoteNumber": 58,
      "Velocity": 96,
      "Duration": 232582,
      "SoundDuration": 232582,
      "Delta": 114590332
    },
    {
      "NoteNumber": 46,
      "Velocity": 96,
      "Duration": 232582,
      "SoundDuration": 232582,
      "Delta": 114836234
    },
    {
      "NoteNumber": 72,
      "Velocity": 96,
      "Duration": 195902,
      "SoundDuration": 195902,
      "Delta": 114836234
    },
    {
      "NoteNumber": 53,
      "Velocity": 96,
      "Duration": 232582,
      "SoundDuration": 232582,
      "Delta": 115082136
    },
    {
      "NoteNumber": 72,
      "Velocity": 96,
      "Duration": 232582,
      "SoundDuration": 232582,
      "Delta": 115082136
    },
    {
      "NoteNumber": 79,
      "Velocity": 96,
      "Duration": 232582,
      "SoundDuration": 232582,
      "Delta": 115082136
    },
    {
      "NoteNumber": 58,
      "Velocity": 96,
      "Duration": 232582,
      "SoundDuration": 232582,
      "Delta": 115082136
    },
    {
      "NoteNumber": 76,
      "Velocity": 96,
      "Duration": 195902,
      "SoundDuration": 195902,
      "Delta": 115082136
    },
    {
      "NoteNumber": 46,
      "Velocity": 96,
      "Duration": 232582,
      "SoundDuration": 232582,
      "Delta": 115328038
    },
    {
      "NoteNumber": 76,
      "Velocity": 96,
      "Duration": 232582,
      "SoundDuration": 232582,
      "Delta": 115328038
    },
    {
      "NoteNumber": 53,
      "Velocity": 96,
      "Duration": 232582,
      "SoundDuration": 232582,
      "Delta": 115573940
    },
    {
      "NoteNumber": 72,
      "Velocity": 96,
      "Duration": 195902,
      "SoundDuration": 195902,
      "Delta": 115573940
    },
    {
      "NoteNumber": 77,
      "Velocity": 96,
      "Duration": 232582,
      "SoundDuration": 232582,
      "Delta": 115573940
    },
    {
      "NoteNumber": 81,
      "Velocity": 96,
      "Duration": 232582,
      "SoundDuration": 232582,
      "Delta": 115573940
    },
    {
      "NoteNumber": 58,
      "Velocity": 96,
      "Duration": 232582,
      "SoundDuration": 232582,
      "Delta": 115573940
    },
    {
      "NoteNumber": 46,
      "Velocity": 96,
      "Duration": 232582,
      "SoundDuration": 232582,
      "Delta": 115819842
    },
    {
      "NoteNumber": 72,
      "Velocity": 96,
      "Duration": 195902,
      "SoundDuration": 195902,
      "Delta": 115819842
    },
    {
      "NoteNumber": 69,
      "Velocity": 96,
      "Duration": 232582,
      "SoundDuration": 232582,
      "Delta": 116065744
    },
    {
      "NoteNumber": 72,
      "Velocity": 96,
      "Duration": 195902,
      "SoundDuration": 195902,
      "Delta": 116065744
    },
    {
      "NoteNumber": 77,
      "Velocity": 96,
      "Duration": 232582,
      "SoundDuration": 232582,
      "Delta": 116065744
    },
    {
      "NoteNumber": 41,
      "Velocity": 96,
      "Duration": 195902,
      "SoundDuration": 195902,
      "Delta": 116065744
    },
    {
      "NoteNumber": 29,
      "Velocity": 96,
      "Duration": 232582,
      "SoundDuration": 232582,
      "Delta": 116065744
    },
    {
      "NoteNumber": 72,
      "Velocity": 96,
      "Duration": 232582,
      "SoundDuration": 232582,
      "Delta": 116311646
    },
    {
      "NoteNumber": 41,
      "Velocity": 96,
      "Duration": 232582,
      "SoundDuration": 232582,
      "Delta": 116311646
    },
    {
      "NoteNumber": 53,
      "Velocity": 96,
      "Duration": 232582,
      "SoundDuration": 232582,
      "Delta": 116557548
    },
    {
      "NoteNumber": 48,
      "Velocity": 96,
      "Duration": 232582,
      "SoundDuration": 232582,
      "Delta": 116557548
    },
    {
      "NoteNumber": 77,
      "Velocity": 96,
      "Duration": 232582,
      "SoundDuration": 232582,
      "Delta": 116557548
    },
    {
      "NoteNumber": 69,
      "Velocity": 96,
      "Duration": 195902,
      "SoundDuration": 195902,
      "Delta": 116803450
    },
    {
      "NoteNumber": 41,
      "Velocity": 96,
      "Duration": 232582,
      "SoundDuration": 232582,
      "Delta": 116803450
    },
    {
      "NoteNumber": 53,
      "Velocity": 96,
      "Duration": 232582,
      "SoundDuration": 232582,
      "Delta": 117049352
    },
    {
      "NoteNumber": 69,
      "Velocity": 96,
      "Duration": 195902,
      "SoundDuration": 195902,
      "Delta": 117049352
    },
    {
      "NoteNumber": 48,
      "Velocity": 96,
      "Duration": 232582,
      "SoundDuration": 232582,
      "Delta": 117049352
    },
    {
      "NoteNumber": 72,
      "Velocity": 96,
      "Duration": 232582,
      "SoundDuration": 232582,
      "Delta": 117049352
    },
    {
      "NoteNumber": 69,
      "Velocity": 96,
      "Duration": 232582,
      "SoundDuration": 232582,
      "Delta": 117295254
    },
    {
      "NoteNumber": 41,
      "Velocity": 96,
      "Duration": 232582,
      "SoundDuration": 232582,
      "Delta": 117295254
    },
    {
      "NoteNumber": 53,
      "Velocity": 96,
      "Duration": 232582,
      "SoundDuration": 232582,
      "Delta": 117541156
    },
    {
      "NoteNumber": 48,
      "Velocity": 96,
      "Duration": 232582,
      "SoundDuration": 232582,
      "Delta": 117541156
    },
    {
      "NoteNumber": 72,
      "Velocity": 96,
      "Duration": 195902,
      "SoundDuration": 195902,
      "Delta": 117541156
    },
    {
      "NoteNumber": 77,
      "Velocity": 96,
      "Duration": 195902,
      "SoundDuration": 195902,
      "Delta": 117541156
    },
    {
      "NoteNumber": 84,
      "Velocity": 96,
      "Duration": 195902,
      "SoundDuration": 195902,
      "Delta": 117541156
    },
    {
      "NoteNumber": 72,
      "Velocity": 96,
      "Duration": 232582,
      "SoundDuration": 232582,
      "Delta": 117787058
    },
    {
      "NoteNumber": 77,
      "Velocity": 96,
      "Duration": 232582,
      "SoundDuration": 232582,
      "Delta": 117787058
    },
    {
      "NoteNumber": 84,
      "Velocity": 96,
      "Duration": 195902,
      "SoundDuration": 195902,
      "Delta": 117787058
    },
    {
      "NoteNumber": 41,
      "Velocity": 96,
      "Duration": 232582,
      "SoundDuration": 232582,
      "Delta": 117787058
    },
    {
      "NoteNumber": 48,
      "Velocity": 96,
      "Duration": 232582,
      "SoundDuration": 232582,
      "Delta": 118032960
    },
    {
      "NoteNumber": 84,
      "Velocity": 96,
      "Duration": 232582,
      "SoundDuration": 232582,
      "Delta": 118032960
    },
    {
      "NoteNumber": 76,
      "Velocity": 96,
      "Duration": 232582,
      "SoundDuration": 232582,
      "Delta": 118032960
    },
    {
      "NoteNumber": 36,
      "Velocity": 96,
      "Duration": 232582,
      "SoundDuration": 232582,
      "Delta": 118032960
    },
    {
      "NoteNumber": 43,
      "Velocity": 96,
      "Duration": 232582,
      "SoundDuration": 232582,
      "Delta": 118278862
    },
    {
      "NoteNumber": 77,
      "Velocity": 96,
      "Duration": 232582,
      "SoundDuration": 232582,
      "Delta": 118278862
    },
    {
      "NoteNumber": 48,
      "Velocity": 96,
      "Duration": 232582,
      "SoundDuration": 232582,
      "Delta": 118524764
    },
    {
      "NoteNumber": 55,
      "Velocity": 96,
      "Duration": 232582,
      "SoundDuration": 232582,
      "Delta": 118524764
    },
    {
      "NoteNumber": 79,
      "Velocity": 96,
      "Duration": 232582,
      "SoundDuration": 232582,
      "Delta": 118524764
    },
    {
      "NoteNumber": 74,
      "Velocity": 96,
      "Duration": 232582,
      "SoundDuration": 232582,
      "Delta": 118524764
    },
    {
      "NoteNumber": 43,
      "Velocity": 96,
      "Duration": 232582,
      "SoundDuration": 232582,
      "Delta": 118770666
    },
    {
      "NoteNumber": 76,
      "Velocity": 96,
      "Duration": 232582,
      "SoundDuration": 232582,
      "Delta": 118770666
    },
    {
      "NoteNumber": 48,
      "Velocity": 96,
      "Duration": 232582,
      "SoundDuration": 232582,
      "Delta": 119016568
    },
    {
      "NoteNumber": 55,
      "Velocity": 96,
      "Duration": 232582,
      "SoundDuration": 232582,
      "Delta": 119016568
    },
    {
      "NoteNumber": 77,
      "Velocity": 96,
      "Duration": 232582,
      "SoundDuration": 232582,
      "Delta": 119016568
    },
    {
      "NoteNumber": 43,
      "Velocity": 96,
      "Duration": 232582,
      "SoundDuration": 232582,
      "Delta": 119262470
    },
    {
      "NoteNumber": 76,
      "Velocity": 96,
      "Duration": 232582,
      "SoundDuration": 232582,
      "Delta": 119262470
    },
    {
      "NoteNumber": 48,
      "Velocity": 96,
      "Duration": 232582,
      "SoundDuration": 232582,
      "Delta": 119508372
    },
    {
      "NoteNumber": 55,
      "Velocity": 96,
      "Duration": 232582,
      "SoundDuration": 232582,
      "Delta": 119508372
    },
    {
      "NoteNumber": 77,
      "Velocity": 96,
      "Duration": 232582,
      "SoundDuration": 232582,
      "Delta": 119508372
    },
    {
      "NoteNumber": 43,
      "Velocity": 96,
      "Duration": 195902,
      "SoundDuration": 195902,
      "Delta": 119754274
    },
    {
      "NoteNumber": 76,
      "Velocity": 96,
      "Duration": 232582,
      "SoundDuration": 232582,
      "Delta": 119754274
    },
    {
      "NoteNumber": 70,
      "Velocity": 96,
      "Duration": 195902,
      "SoundDuration": 195902,
      "Delta": 120000176
    },
    {
      "NoteNumber": 43,
      "Velocity": 96,
      "Duration": 232582,
      "SoundDuration": 232582,
      "Delta": 120000176
    },
    {
      "NoteNumber": 79,
      "Velocity": 96,
      "Duration": 232582,
      "SoundDuration": 232582,
      "Delta": 120000176
    },
    {
      "NoteNumber": 74,
      "Velocity": 96,
      "Duration": 232582,
      "SoundDuration": 232582,
      "Delta": 120000176
    },
    {
      "NoteNumber": 31,
      "Velocity": 96,
      "Duration": 232582,
      "SoundDuration": 232582,
      "Delta": 120000176
    },
    {
      "NoteNumber": 50,
      "Velocity": 96,
      "Duration": 232582,
      "SoundDuration": 232582,
      "Delta": 120246078
    },
    {
      "NoteNumber": 70,
      "Velocity": 96,
      "Duration": 232582,
      "SoundDuration": 232582,
      "Delta": 120246078
    },
    {
      "NoteNumber": 55,
      "Velocity": 96,
      "Duration": 232582,
      "SoundDuration": 232582,
      "Delta": 120491980
    },
    {
      "NoteNumber": 62,
      "Velocity": 96,
      "Duration": 232582,
      "SoundDuration": 232582,
      "Delta": 120491980
    },
    {
      "NoteNumber": 74,
      "Velocity": 96,
      "Duration": 232582,
      "SoundDuration": 232582,
      "Delta": 120491980
    },
    {
      "NoteNumber": 50,
      "Velocity": 96,
      "Duration": 232582,
      "SoundDuration": 232582,
      "Delta": 120737882
    },
    {
      "NoteNumber": 70,
      "Velocity": 96,
      "Duration": 232582,
      "SoundDuration": 232582,
      "Delta": 120737882
    },
    {
      "NoteNumber": 55,
      "Velocity": 96,
      "Duration": 232582,
      "SoundDuration": 232582,
      "Delta": 120983784
    },
    {
      "NoteNumber": 62,
      "Velocity": 96,
      "Duration": 232582,
      "SoundDuration": 232582,
      "Delta": 120983784
    },
    {
      "NoteNumber": 74,
      "Velocity": 96,
      "Duration": 232582,
      "SoundDuration": 232582,
      "Delta": 120983784
    },
    {
      "NoteNumber": 50,
      "Velocity": 96,
      "Duration": 232582,
      "SoundDuration": 232582,
      "Delta": 121229686
    },
    {
      "NoteNumber": 72,
      "Velocity": 96,
      "Duration": 232582,
      "SoundDuration": 232582,
      "Delta": 121229686
    },
    {
      "NoteNumber": 84,
      "Velocity": 96,
      "Duration": 195902,
      "SoundDuration": 195902,
      "Delta": 121229686
    },
    {
      "NoteNumber": 55,
      "Velocity": 96,
      "Duration": 232582,
      "SoundDuration": 232582,
      "Delta": 121475588
    },
    {
      "NoteNumber": 77,
      "Velocity": 96,
      "Duration": 232582,
      "SoundDuration": 232582,
      "Delta": 121475588
    },
    {
      "NoteNumber": 84,
      "Velocity": 96,
      "Duration": 195902,
      "SoundDuration": 195902,
      "Delta": 121475588
    },
    {
      "NoteNumber": 62,
      "Velocity": 96,
      "Duration": 232582,
      "SoundDuration": 232582,
      "Delta": 121475588
    },
    {
      "NoteNumber": 50,
      "Velocity": 96,
      "Duration": 232582,
      "SoundDuration": 232582,
      "Delta": 121721490
    },
    {
      "NoteNumber": 72,
      "Velocity": 96,
      "Duration": 232582,
      "SoundDuration": 232582,
      "Delta": 121721490
    },
    {
      "NoteNumber": 84,
      "Velocity": 96,
      "Duration": 195902,
      "SoundDuration": 195902,
      "Delta": 121721490
    },
    {
      "NoteNumber": 46,
      "Velocity": 96,
      "Duration": 195902,
      "SoundDuration": 195902,
      "Delta": 121967392
    },
    {
      "NoteNumber": 77,
      "Velocity": 96,
      "Duration": 195902,
      "SoundDuration": 195902,
      "Delta": 121967392
    },
    {
      "NoteNumber": 84,
      "Velocity": 96,
      "Duration": 232582,
      "SoundDuration": 232582,
      "Delta": 121967392
    },
    {
      "NoteNumber": 34,
      "Velocity": 96,
      "Duration": 232582,
      "SoundDuration": 232582,
      "Delta": 121967392
    },
    {
      "NoteNumber": 46,
      "Velocity": 96,
      "Duration": 232582,
      "SoundDuration": 232582,
      "Delta": 122213294
    },
    {
      "NoteNumber": 77,
      "Velocity": 96,
      "Duration": 232582,
      "SoundDuration": 232582,
      "Delta": 122213294
    },
    {
      "NoteNumber": 81,
      "Velocity": 96,
      "Duration": 195902,
      "SoundDuration": 195902,
      "Delta": 122213294
    },
    {
      "NoteNumber": 53,
      "Velocity": 96,
      "Duration": 232582,
      "SoundDuration": 232582,
      "Delta": 122459196
    },
    {
      "NoteNumber": 72,
      "Velocity": 96,
      "Duration": 195902,
      "SoundDuration": 195902,
      "Delta": 122459196
    },
    {
      "NoteNumber": 81,
      "Velocity": 96,
      "Duration": 232582,
      "SoundDuration": 232582,
      "Delta": 122459196
    },
    {
      "NoteNumber": 58,
      "Velocity": 96,
      "Duration": 232582,
      "SoundDuration": 232582,
      "Delta": 122459196
    },
    {
      "NoteNumber": 46,
      "Velocity": 96,
      "Duration": 232582,
      "SoundDuration": 232582,
      "Delta": 122705098
    },
    {
      "NoteNumber": 72,
      "Velocity": 96,
      "Duration": 195902,
      "SoundDuration": 195902,
      "Delta": 122705098
    },
    {
      "NoteNumber": 53,
      "Velocity": 96,
      "Duration": 232582,
      "SoundDuration": 232582,
      "Delta": 122951000
    },
    {
      "NoteNumber": 72,
      "Velocity": 96,
      "Duration": 232582,
      "SoundDuration": 232582,
      "Delta": 122951000
    },
    {
      "NoteNumber": 79,
      "Velocity": 96,
      "Duration": 232582,
      "SoundDuration": 232582,
      "Delta": 122951000
    },
    {
      "NoteNumber": 58,
      "Velocity": 96,
      "Duration": 232582,
      "SoundDuration": 232582,
      "Delta": 122951000
    },
    {
      "NoteNumber": 76,
      "Velocity": 96,
      "Duration": 195902,
      "SoundDuration": 195902,
      "Delta": 122951000
    },
    {
      "NoteNumber": 46,
      "Velocity": 96,
      "Duration": 232582,
      "SoundDuration": 232582,
      "Delta": 123196902
    },
    {
      "NoteNumber": 76,
      "Velocity": 96,
      "Duration": 232582,
      "SoundDuration": 232582,
      "Delta": 123196902
    },
    {
      "NoteNumber": 53,
      "Velocity": 96,
      "Duration": 232582,
      "SoundDuration": 232582,
      "Delta": 123442804
    },
    {
      "NoteNumber": 72,
      "Velocity": 96,
      "Duration": 195902,
      "SoundDuration": 195902,
      "Delta": 123442804
    },
    {
      "NoteNumber": 77,
      "Velocity": 96,
      "Duration": 232582,
      "SoundDuration": 232582,
      "Delta": 123442804
    },
    {
      "NoteNumber": 81,
      "Velocity": 96,
      "Duration": 232582,
      "SoundDuration": 232582,
      "Delta": 123442804
    },
    {
      "NoteNumber": 58,
      "Velocity": 96,
      "Duration": 232582,
      "SoundDuration": 232582,
      "Delta": 123442804
    },
    {
      "NoteNumber": 46,
      "Velocity": 96,
      "Duration": 232582,
      "SoundDuration": 232582,
      "Delta": 123688706
    },
    {
      "NoteNumber": 72,
      "Velocity": 96,
      "Duration": 195902,
      "SoundDuration": 195902,
      "Delta": 123688706
    },
    {
      "NoteNumber": 69,
      "Velocity": 96,
      "Duration": 232582,
      "SoundDuration": 232582,
      "Delta": 123934608
    },
    {
      "NoteNumber": 72,
      "Velocity": 96,
      "Duration": 195902,
      "SoundDuration": 195902,
      "Delta": 123934608
    },
    {
      "NoteNumber": 77,
      "Velocity": 96,
      "Duration": 232582,
      "SoundDuration": 232582,
      "Delta": 123934608
    },
    {
      "NoteNumber": 41,
      "Velocity": 96,
      "Duration": 195902,
      "SoundDuration": 195902,
      "Delta": 123934608
    },
    {
      "NoteNumber": 29,
      "Velocity": 96,
      "Duration": 232582,
      "SoundDuration": 232582,
      "Delta": 123934608
    },
    {
      "NoteNumber": 72,
      "Velocity": 96,
      "Duration": 232582,
      "SoundDuration": 232582,
      "Delta": 124180510
    },
    {
      "NoteNumber": 41,
      "Velocity": 96,
      "Duration": 232582,
      "SoundDuration": 232582,
      "Delta": 124180510
    },
    {
      "NoteNumber": 53,
      "Velocity": 96,
      "Duration": 232582,
      "SoundDuration": 232582,
      "Delta": 124426412
    },
    {
      "NoteNumber": 48,
      "Velocity": 96,
      "Duration": 232582,
      "SoundDuration": 232582,
      "Delta": 124426412
    },
    {
      "NoteNumber": 77,
      "Velocity": 96,
      "Duration": 232582,
      "SoundDuration": 232582,
      "Delta": 124426412
    },
    {
      "NoteNumber": 69,
      "Velocity": 96,
      "Duration": 195902,
      "SoundDuration": 195902,
      "Delta": 124672314
    },
    {
      "NoteNumber": 41,
      "Velocity": 96,
      "Duration": 232582,
      "SoundDuration": 232582,
      "Delta": 124672314
    },
    {
      "NoteNumber": 53,
      "Velocity": 96,
      "Duration": 232582,
      "SoundDuration": 232582,
      "Delta": 124918216
    },
    {
      "NoteNumber": 69,
      "Velocity": 96,
      "Duration": 195902,
      "SoundDuration": 195902,
      "Delta": 124918216
    },
    {
      "NoteNumber": 48,
      "Velocity": 96,
      "Duration": 232582,
      "SoundDuration": 232582,
      "Delta": 124918216
    },
    {
      "NoteNumber": 72,
      "Velocity": 96,
      "Duration": 232582,
      "SoundDuration": 232582,
      "Delta": 124918216
    },
    {
      "NoteNumber": 69,
      "Velocity": 96,
      "Duration": 232582,
      "SoundDuration": 232582,
      "Delta": 125164118
    },
    {
      "NoteNumber": 41,
      "Velocity": 96,
      "Duration": 232582,
      "SoundDuration": 232582,
      "Delta": 125164118
    },
    {
      "NoteNumber": 53,
      "Velocity": 96,
      "Duration": 232582,
      "SoundDuration": 232582,
      "Delta": 125410020
    },
    {
      "NoteNumber": 48,
      "Velocity": 96,
      "Duration": 232582,
      "SoundDuration": 232582,
      "Delta": 125410020
    },
    {
      "NoteNumber": 72,
      "Velocity": 96,
      "Duration": 195902,
      "SoundDuration": 195902,
      "Delta": 125410020
    },
    {
      "NoteNumber": 77,
      "Velocity": 96,
      "Duration": 195902,
      "SoundDuration": 195902,
      "Delta": 125410020
    },
    {
      "NoteNumber": 84,
      "Velocity": 96,
      "Duration": 195902,
      "SoundDuration": 195902,
      "Delta": 125410020
    },
    {
      "NoteNumber": 72,
      "Velocity": 96,
      "Duration": 232582,
      "SoundDuration": 232582,
      "Delta": 125655922
    },
    {
      "NoteNumber": 77,
      "Velocity": 96,
      "Duration": 232582,
      "SoundDuration": 232582,
      "Delta": 125655922
    },
    {
      "NoteNumber": 84,
      "Velocity": 96,
      "Duration": 195902,
      "SoundDuration": 195902,
      "Delta": 125655922
    },
    {
      "NoteNumber": 41,
      "Velocity": 96,
      "Duration": 232582,
      "SoundDuration": 232582,
      "Delta": 125655922
    },
    {
      "NoteNumber": 48,
      "Velocity": 96,
      "Duration": 232582,
      "SoundDuration": 232582,
      "Delta": 125901824
    },
    {
      "NoteNumber": 84,
      "Velocity": 96,
      "Duration": 232582,
      "SoundDuration": 232582,
      "Delta": 125901824
    },
    {
      "NoteNumber": 76,
      "Velocity": 96,
      "Duration": 232582,
      "SoundDuration": 232582,
      "Delta": 125901824
    },
    {
      "NoteNumber": 36,
      "Velocity": 96,
      "Duration": 232582,
      "SoundDuration": 232582,
      "Delta": 125901824
    },
    {
      "NoteNumber": 43,
      "Velocity": 96,
      "Duration": 232582,
      "SoundDuration": 232582,
      "Delta": 126147726
    },
    {
      "NoteNumber": 77,
      "Velocity": 96,
      "Duration": 232582,
      "SoundDuration": 232582,
      "Delta": 126147726
    },
    {
      "NoteNumber": 48,
      "Velocity": 96,
      "Duration": 232582,
      "SoundDuration": 232582,
      "Delta": 126393628
    },
    {
      "NoteNumber": 55,
      "Velocity": 96,
      "Duration": 232582,
      "SoundDuration": 232582,
      "Delta": 126393628
    },
    {
      "NoteNumber": 79,
      "Velocity": 96,
      "Duration": 232582,
      "SoundDuration": 232582,
      "Delta": 126393628
    },
    {
      "NoteNumber": 74,
      "Velocity": 96,
      "Duration": 232582,
      "SoundDuration": 232582,
      "Delta": 126393628
    },
    {
      "NoteNumber": 43,
      "Velocity": 96,
      "Duration": 232582,
      "SoundDuration": 232582,
      "Delta": 126639530
    },
    {
      "NoteNumber": 76,
      "Velocity": 96,
      "Duration": 232582,
      "SoundDuration": 232582,
      "Delta": 126639530
    },
    {
      "NoteNumber": 48,
      "Velocity": 96,
      "Duration": 232582,
      "SoundDuration": 232582,
      "Delta": 126885432
    },
    {
      "NoteNumber": 55,
      "Velocity": 96,
      "Duration": 232582,
      "SoundDuration": 232582,
      "Delta": 126885432
    },
    {
      "NoteNumber": 77,
      "Velocity": 96,
      "Duration": 232582,
      "SoundDuration": 232582,
      "Delta": 126885432
    },
    {
      "NoteNumber": 43,
      "Velocity": 96,
      "Duration": 232582,
      "SoundDuration": 232582,
      "Delta": 127131334
    },
    {
      "NoteNumber": 76,
      "Velocity": 96,
      "Duration": 232582,
      "SoundDuration": 232582,
      "Delta": 127131334
    },
    {
      "NoteNumber": 48,
      "Velocity": 96,
      "Duration": 232582,
      "SoundDuration": 232582,
      "Delta": 127377236
    },
    {
      "NoteNumber": 55,
      "Velocity": 96,
      "Duration": 232582,
      "SoundDuration": 232582,
      "Delta": 127377236
    },
    {
      "NoteNumber": 77,
      "Velocity": 96,
      "Duration": 232582,
      "SoundDuration": 232582,
      "Delta": 127377236
    },
    {
      "NoteNumber": 43,
      "Velocity": 96,
      "Duration": 195902,
      "SoundDuration": 195902,
      "Delta": 127623138
    },
    {
      "NoteNumber": 76,
      "Velocity": 96,
      "Duration": 232582,
      "SoundDuration": 232582,
      "Delta": 127623138
    },
    {
      "NoteNumber": 67,
      "Velocity": 96,
      "Duration": 232582,
      "SoundDuration": 232582,
      "Delta": 127869040
    },
    {
      "NoteNumber": 43,
      "Velocity": 96,
      "Duration": 232582,
      "SoundDuration": 232582,
      "Delta": 127869040
    },
    {
      "NoteNumber": 31,
      "Velocity": 96,
      "Duration": 232582,
      "SoundDuration": 232582,
      "Delta": 127869040
    },
    {
      "NoteNumber": 50,
      "Velocity": 96,
      "Duration": 232582,
      "SoundDuration": 232582,
      "Delta": 128114942
    },
    {
      "NoteNumber": 74,
      "Velocity": 96,
      "Duration": 195902,
      "SoundDuration": 195902,
      "Delta": 128114942
    },
    {
      "NoteNumber": 55,
      "Velocity": 96,
      "Duration": 232582,
      "SoundDuration": 232582,
      "Delta": 128360844
    },
    {
      "NoteNumber": 77,
      "Velocity": 96,
      "Duration": 72951,
      "SoundDuration": 72951,
      "Delta": 128360844
    },
    {
      "NoteNumber": 62,
      "Velocity": 96,
      "Duration": 232582,
      "SoundDuration": 232582,
      "Delta": 128360844
    },
    {
      "NoteNumber": 74,
      "Velocity": 96,
      "Duration": 72951,
      "SoundDuration": 72951,
      "Delta": 128360844
    },
    {
      "NoteNumber": 77,
      "Velocity": 96,
      "Duration": 72951,
      "SoundDuration": 72951,
      "Delta": 128483795
    },
    {
      "NoteNumber": 74,
      "Velocity": 96,
      "Duration": 72951,
      "SoundDuration": 72951,
      "Delta": 128483795
    },
    {
      "NoteNumber": 50,
      "Velocity": 96,
      "Duration": 232582,
      "SoundDuration": 232582,
      "Delta": 128606746
    },
    {
      "NoteNumber": 77,
      "Velocity": 96,
      "Duration": 72951,
      "SoundDuration": 72951,
      "Delta": 128606746
    },
    {
      "NoteNumber": 74,
      "Velocity": 96,
      "Duration": 72951,
      "SoundDuration": 72951,
      "Delta": 128606746
    },
    {
      "NoteNumber": 77,
      "Velocity": 96,
      "Duration": 72951,
      "SoundDuration": 72951,
      "Delta": 128729697
    },
    {
      "NoteNumber": 74,
      "Velocity": 96,
      "Duration": 115778,
      "SoundDuration": 115778,
      "Delta": 128729697
    },
    {
      "NoteNumber": 55,
      "Velocity": 96,
      "Duration": 232582,
      "SoundDuration": 232582,
      "Delta": 128852648
    },
    {
      "NoteNumber": 77,
      "Velocity": 96,
      "Duration": 232582,
      "SoundDuration": 232582,
      "Delta": 128852648
    },
    {
      "NoteNumber": 62,
      "Velocity": 96,
      "Duration": 232582,
      "SoundDuration": 232582,
      "Delta": 128852648
    },
    {
      "NoteNumber": 50,
      "Velocity": 96,
      "Duration": 232582,
      "SoundDuration": 232582,
      "Delta": 129098550
    },
    {
      "NoteNumber": 74,
      "Velocity": 96,
      "Duration": 195902,
      "SoundDuration": 195902,
      "Delta": 129098550
    },
    {
      "NoteNumber": 55,
      "Velocity": 96,
      "Duration": 232582,
      "SoundDuration": 232582,
      "Delta": 129344452
    },
    {
      "NoteNumber": 77,
      "Velocity": 96,
      "Duration": 232582,
      "SoundDuration": 232582,
      "Delta": 129344452
    },
    {
      "NoteNumber": 81,
      "Velocity": 96,
      "Duration": 232582,
      "SoundDuration": 232582,
      "Delta": 129344452
    },
    {
      "NoteNumber": 62,
      "Velocity": 96,
      "Duration": 232582,
      "SoundDuration": 232582,
      "Delta": 129344452
    },
    {
      "NoteNumber": 74,
      "Velocity": 96,
      "Duration": 232582,
      "SoundDuration": 232582,
      "Delta": 129344452
    },
    {
      "NoteNumber": 50,
      "Velocity": 96,
      "Duration": 232582,
      "SoundDuration": 232582,
      "Delta": 129590354
    },
    {
      "NoteNumber": 79,
      "Velocity": 96,
      "Duration": 232582,
      "SoundDuration": 232582,
      "Delta": 129590354
    },
    {
      "NoteNumber": 46,
      "Velocity": 96,
      "Duration": 195903,
      "SoundDuration": 195903,
      "Delta": 129836255
    },
    {
      "NoteNumber": 77,
      "Velocity": 96,
      "Duration": 232582,
      "SoundDuration": 232582,
      "Delta": 129836255
    },
    {
      "NoteNumber": 34,
      "Velocity": 96,
      "Duration": 232582,
      "SoundDuration": 232582,
      "Delta": 129836255
    },
    {
      "NoteNumber": 46,
      "Velocity": 96,
      "Duration": 232582,
      "SoundDuration": 232582,
      "Delta": 130082158
    },
    {
      "NoteNumber": 72,
      "Velocity": 96,
      "Duration": 232582,
      "SoundDuration": 232582,
      "Delta": 130082158
    },
    {
      "NoteNumber": 53,
      "Velocity": 96,
      "Duration": 232582,
      "SoundDuration": 232582,
      "Delta": 130328060
    },
    {
      "NoteNumber": 77,
      "Velocity": 96,
      "Duration": 72951,
      "SoundDuration": 72951,
      "Delta": 130328060
    },
    {
      "NoteNumber": 58,
      "Velocity": 96,
      "Duration": 232582,
      "SoundDuration": 232582,
      "Delta": 130328060
    },
    {
      "NoteNumber": 74,
      "Velocity": 96,
      "Duration": 72951,
      "SoundDuration": 72951,
      "Delta": 130328060
    },
    {
      "NoteNumber": 77,
      "Velocity": 96,
      "Duration": 72951,
      "SoundDuration": 72951,
      "Delta": 130451011
    },
    {
      "NoteNumber": 74,
      "Velocity": 96,
      "Duration": 72951,
      "SoundDuration": 72951,
      "Delta": 130451011
    },
    {
      "NoteNumber": 46,
      "Velocity": 96,
      "Duration": 232582,
      "SoundDuration": 232582,
      "Delta": 130573962
    },
    {
      "NoteNumber": 77,
      "Velocity": 96,
      "Duration": 72951,
      "SoundDuration": 72951,
      "Delta": 130573962
    },
    {
      "NoteNumber": 74,
      "Velocity": 96,
      "Duration": 72951,
      "SoundDuration": 72951,
      "Delta": 130573962
    },
    {
      "NoteNumber": 77,
      "Velocity": 96,
      "Duration": 349385,
      "SoundDuration": 349385,
      "Delta": 130696913
    },
    {
      "NoteNumber": 74,
      "Velocity": 96,
      "Duration": 318853,
      "SoundDuration": 318853,
      "Delta": 130696913
    },
    {
      "NoteNumber": 53,
      "Velocity": 96,
      "Duration": 232582,
      "SoundDuration": 232582,
      "Delta": 130819864
    },
    {
      "NoteNumber": 58,
      "Velocity": 96,
      "Duration": 232582,
      "SoundDuration": 232582,
      "Delta": 130819864
    },
    {
      "NoteNumber": 46,
      "Velocity": 96,
      "Duration": 232582,
      "SoundDuration": 232582,
      "Delta": 131065766
    },
    {
      "NoteNumber": 74,
      "Velocity": 96,
      "Duration": 195902,
      "SoundDuration": 195902,
      "Delta": 131065766
    },
    {
      "NoteNumber": 53,
      "Velocity": 96,
      "Duration": 232582,
      "SoundDuration": 232582,
      "Delta": 131311668
    },
    {
      "NoteNumber": 77,
      "Velocity": 96,
      "Duration": 195902,
      "SoundDuration": 195902,
      "Delta": 131311668
    },
    {
      "NoteNumber": 58,
      "Velocity": 96,
      "Duration": 232582,
      "SoundDuration": 232582,
      "Delta": 131311668
    },
    {
      "NoteNumber": 74,
      "Velocity": 96,
      "Duration": 195902,
      "SoundDuration": 195902,
      "Delta": 131311668
    },
    {
      "NoteNumber": 46,
      "Velocity": 96,
      "Duration": 232582,
      "SoundDuration": 232582,
      "Delta": 131557570
    },
    {
      "NoteNumber": 77,
      "Velocity": 96,
      "Duration": 232582,
      "SoundDuration": 232582,
      "Delta": 131557570
    },
    {
      "NoteNumber": 79,
      "Velocity": 96,
      "Duration": 232582,
      "SoundDuration": 232582,
      "Delta": 131557570
    },
    {
      "NoteNumber": 74,
      "Velocity": 96,
      "Duration": 232582,
      "SoundDuration": 232582,
      "Delta": 131557570
    },
    {
      "NoteNumber": 65,
      "Velocity": 96,
      "Duration": 232582,
      "SoundDuration": 232582,
      "Delta": 131803472
    },
    {
      "NoteNumber": 41,
      "Velocity": 96,
      "Duration": 195902,
      "SoundDuration": 195902,
      "Delta": 131803472
    },
    {
      "NoteNumber": 29,
      "Velocity": 96,
      "Duration": 232582,
      "SoundDuration": 232582,
      "Delta": 131803472
    },
    {
      "NoteNumber": 77,
      "Velocity": 96,
      "Duration": 195902,
      "SoundDuration": 195902,
      "Delta": 132049374
    },
    {
      "NoteNumber": 41,
      "Velocity": 96,
      "Duration": 232582,
      "SoundDuration": 232582,
      "Delta": 132049374
    },
    {
      "NoteNumber": 53,
      "Velocity": 96,
      "Duration": 232582,
      "SoundDuration": 232582,
      "Delta": 132295276
    },
    {
      "NoteNumber": 48,
      "Velocity": 96,
      "Duration": 232582,
      "SoundDuration": 232582,
      "Delta": 132295276
    },
    {
      "NoteNumber": 77,
      "Velocity": 96,
      "Duration": 72951,
      "SoundDuration": 72951,
      "Delta": 132295276
    },
    {
      "NoteNumber": 74,
      "Velocity": 96,
      "Duration": 72951,
      "SoundDuration": 72951,
      "Delta": 132295276
    },
    {
      "NoteNumber": 77,
      "Velocity": 96,
      "Duration": 72951,
      "SoundDuration": 72951,
      "Delta": 132418227
    },
    {
      "NoteNumber": 74,
      "Velocity": 96,
      "Duration": 72951,
      "SoundDuration": 72951,
      "Delta": 132418227
    },
    {
      "NoteNumber": 77,
      "Velocity": 96,
      "Duration": 72951,
      "SoundDuration": 72951,
      "Delta": 132541178
    },
    {
      "NoteNumber": 74,
      "Velocity": 96,
      "Duration": 72951,
      "SoundDuration": 72951,
      "Delta": 132541178
    },
    {
      "NoteNumber": 41,
      "Velocity": 96,
      "Duration": 232582,
      "SoundDuration": 232582,
      "Delta": 132541178
    },
    {
      "NoteNumber": 77,
      "Velocity": 96,
      "Duration": 72951,
      "SoundDuration": 72951,
      "Delta": 132664129
    },
    {
      "NoteNumber": 74,
      "Velocity": 96,
      "Duration": 115778,
      "SoundDuration": 115778,
      "Delta": 132664129
    },
    {
      "NoteNumber": 53,
      "Velocity": 96,
      "Duration": 232582,
      "SoundDuration": 232582,
      "Delta": 132787080
    },
    {
      "NoteNumber": 48,
      "Velocity": 96,
      "Duration": 232582,
      "SoundDuration": 232582,
      "Delta": 132787080
    },
    {
      "NoteNumber": 77,
      "Velocity": 96,
      "Duration": 232582,
      "SoundDuration": 232582,
      "Delta": 132787080
    },
    {
      "NoteNumber": 74,
      "Velocity": 96,
      "Duration": 195902,
      "SoundDuration": 195902,
      "Delta": 133032982
    },
    {
      "NoteNumber": 41,
      "Velocity": 96,
      "Duration": 232582,
      "SoundDuration": 232582,
      "Delta": 133032982
    },
    {
      "NoteNumber": 53,
      "Velocity": 96,
      "Duration": 232582,
      "SoundDuration": 232582,
      "Delta": 133278884
    },
    {
      "NoteNumber": 48,
      "Velocity": 96,
      "Duration": 232582,
      "SoundDuration": 232582,
      "Delta": 133278884
    },
    {
      "NoteNumber": 77,
      "Velocity": 96,
      "Duration": 232582,
      "SoundDuration": 232582,
      "Delta": 133278884
    },
    {
      "NoteNumber": 81,
      "Velocity": 96,
      "Duration": 232582,
      "SoundDuration": 232582,
      "Delta": 133278884
    },
    {
      "NoteNumber": 74,
      "Velocity": 96,
      "Duration": 232582,
      "SoundDuration": 232582,
      "Delta": 133278884
    },
    {
      "NoteNumber": 79,
      "Velocity": 96,
      "Duration": 232582,
      "SoundDuration": 232582,
      "Delta": 133524786
    },
    {
      "NoteNumber": 41,
      "Velocity": 96,
      "Duration": 232582,
      "SoundDuration": 232582,
      "Delta": 133524786
    },
    {
      "NoteNumber": 48,
      "Velocity": 96,
      "Duration": 232582,
      "SoundDuration": 232582,
      "Delta": 133770688
    },
    {
      "NoteNumber": 72,
      "Velocity": 96,
      "Duration": 195902,
      "SoundDuration": 195902,
      "Delta": 133770688
    },
    {
      "NoteNumber": 36,
      "Velocity": 96,
      "Duration": 232582,
      "SoundDuration": 232582,
      "Delta": 133770688
    },
    {
      "NoteNumber": 43,
      "Velocity": 96,
      "Duration": 232582,
      "SoundDuration": 232582,
      "Delta": 134016590
    },
    {
      "NoteNumber": 72,
      "Velocity": 96,
      "Duration": 195902,
      "SoundDuration": 195902,
      "Delta": 134016590
    },
    {
      "NoteNumber": 79,
      "Velocity": 96,
      "Duration": 195902,
      "SoundDuration": 195902,
      "Delta": 134016590
    },
    {
      "NoteNumber": 76,
      "Velocity": 96,
      "Duration": 195902,
      "SoundDuration": 195902,
      "Delta": 134016590
    },
    {
      "NoteNumber": 48,
      "Velocity": 96,
      "Duration": 232582,
      "SoundDuration": 232582,
      "Delta": 134262492
    },
    {
      "NoteNumber": 55,
      "Velocity": 96,
      "Duration": 232582,
      "SoundDuration": 232582,
      "Delta": 134262492
    },
    {
      "NoteNumber": 72,
      "Velocity": 96,
      "Duration": 195902,
      "SoundDuration": 195902,
      "Delta": 134262492
    },
    {
      "NoteNumber": 79,
      "Velocity": 96,
      "Duration": 232582,
      "SoundDuration": 232582,
      "Delta": 134262492
    },
    {
      "NoteNumber": 76,
      "Velocity": 96,
      "Duration": 232582,
      "SoundDuration": 232582,
      "Delta": 134262492
    },
    {
      "NoteNumber": 43,
      "Velocity": 96,
      "Duration": 232582,
      "SoundDuration": 232582,
      "Delta": 134508394
    },
    {
      "NoteNumber": 72,
      "Velocity": 96,
      "Duration": 232582,
      "SoundDuration": 232582,
      "Delta": 134508394
    },
    {
      "NoteNumber": 48,
      "Velocity": 96,
      "Duration": 232582,
      "SoundDuration": 232582,
      "Delta": 134754296
    },
    {
      "NoteNumber": 55,
      "Velocity": 96,
      "Duration": 232582,
      "SoundDuration": 232582,
      "Delta": 134754296
    },
    {
      "NoteNumber": 79,
      "Velocity": 96,
      "Duration": 232582,
      "SoundDuration": 232582,
      "Delta": 134754296
    },
    {
      "NoteNumber": 76,
      "Velocity": 96,
      "Duration": 195902,
      "SoundDuration": 195902,
      "Delta": 134754296
    },
    {
      "NoteNumber": 43,
      "Velocity": 96,
      "Duration": 232582,
      "SoundDuration": 232582,
      "Delta": 135000198
    },
    {
      "NoteNumber": 72,
      "Velocity": 96,
      "Duration": 195902,
      "SoundDuration": 195902,
      "Delta": 135000198
    },
    {
      "NoteNumber": 76,
      "Velocity": 96,
      "Duration": 195902,
      "SoundDuration": 195902,
      "Delta": 135000198
    },
    {
      "NoteNumber": 48,
      "Velocity": 96,
      "Duration": 232582,
      "SoundDuration": 232582,
      "Delta": 135246100
    },
    {
      "NoteNumber": 55,
      "Velocity": 96,
      "Duration": 232582,
      "SoundDuration": 232582,
      "Delta": 135246100
    },
    {
      "NoteNumber": 72,
      "Velocity": 96,
      "Duration": 195902,
      "SoundDuration": 195902,
      "Delta": 135246100
    },
    {
      "NoteNumber": 79,
      "Velocity": 96,
      "Duration": 232582,
      "SoundDuration": 232582,
      "Delta": 135246100
    },
    {
      "NoteNumber": 76,
      "Velocity": 96,
      "Duration": 232582,
      "SoundDuration": 232582,
      "Delta": 135246100
    },
    {
      "NoteNumber": 43,
      "Velocity": 96,
      "Duration": 195902,
      "SoundDuration": 195902,
      "Delta": 135492002
    },
    {
      "NoteNumber": 72,
      "Velocity": 96,
      "Duration": 232582,
      "SoundDuration": 232582,
      "Delta": 135492002
    },
    {
      "NoteNumber": 65,
      "Velocity": 96,
      "Duration": 232582,
      "SoundDuration": 232582,
      "Delta": 135737904
    },
    {
      "NoteNumber": 43,
      "Velocity": 96,
      "Duration": 232582,
      "SoundDuration": 232582,
      "Delta": 135737904
    },
    {
      "NoteNumber": 31,
      "Velocity": 96,
      "Duration": 232582,
      "SoundDuration": 232582,
      "Delta": 135737904
    },
    {
      "NoteNumber": 50,
      "Velocity": 96,
      "Duration": 232582,
      "SoundDuration": 232582,
      "Delta": 135983806
    },
    {
      "NoteNumber": 77,
      "Velocity": 96,
      "Duration": 195902,
      "SoundDuration": 195902,
      "Delta": 135983806
    },
    {
      "NoteNumber": 55,
      "Velocity": 96,
      "Duration": 232582,
      "SoundDuration": 232582,
      "Delta": 136229708
    },
    {
      "NoteNumber": 77,
      "Velocity": 96,
      "Duration": 72951,
      "SoundDuration": 72951,
      "Delta": 136229708
    },
    {
      "NoteNumber": 62,
      "Velocity": 96,
      "Duration": 232582,
      "SoundDuration": 232582,
      "Delta": 136229708
    },
    {
      "NoteNumber": 74,
      "Velocity": 96,
      "Duration": 72951,
      "SoundDuration": 72951,
      "Delta": 136229708
    },
    {
      "NoteNumber": 77,
      "Velocity": 96,
      "Duration": 72951,
      "SoundDuration": 72951,
      "Delta": 136352659
    },
    {
      "NoteNumber": 74,
      "Velocity": 96,
      "Duration": 72951,
      "SoundDuration": 72951,
      "Delta": 136352659
    },
    {
      "NoteNumber": 50,
      "Velocity": 96,
      "Duration": 232582,
      "SoundDuration": 232582,
      "Delta": 136475610
    },
    {
      "NoteNumber": 77,
      "Velocity": 96,
      "Duration": 72951,
      "SoundDuration": 72951,
      "Delta": 136475610
    },
    {
      "NoteNumber": 74,
      "Velocity": 96,
      "Duration": 72951,
      "SoundDuration": 72951,
      "Delta": 136475610
    },
    {
      "NoteNumber": 77,
      "Velocity": 96,
      "Duration": 72951,
      "SoundDuration": 72951,
      "Delta": 136598561
    },
    {
      "NoteNumber": 74,
      "Velocity": 96,
      "Duration": 115778,
      "SoundDuration": 115778,
      "Delta": 136598561
    },
    {
      "NoteNumber": 55,
      "Velocity": 96,
      "Duration": 232582,
      "SoundDuration": 232582,
      "Delta": 136721512
    },
    {
      "NoteNumber": 77,
      "Velocity": 96,
      "Duration": 232582,
      "SoundDuration": 232582,
      "Delta": 136721512
    },
    {
      "NoteNumber": 62,
      "Velocity": 96,
      "Duration": 232582,
      "SoundDuration": 232582,
      "Delta": 136721512
    },
    {
      "NoteNumber": 50,
      "Velocity": 96,
      "Duration": 232582,
      "SoundDuration": 232582,
      "Delta": 136967414
    },
    {
      "NoteNumber": 74,
      "Velocity": 96,
      "Duration": 195902,
      "SoundDuration": 195902,
      "Delta": 136967414
    },
    {
      "NoteNumber": 55,
      "Velocity": 96,
      "Duration": 232582,
      "SoundDuration": 232582,
      "Delta": 137213316
    },
    {
      "NoteNumber": 77,
      "Velocity": 96,
      "Duration": 232582,
      "SoundDuration": 232582,
      "Delta": 137213316
    },
    {
      "NoteNumber": 81,
      "Velocity": 96,
      "Duration": 232582,
      "SoundDuration": 232582,
      "Delta": 137213316
    },
    {
      "NoteNumber": 62,
      "Velocity": 96,
      "Duration": 232582,
      "SoundDuration": 232582,
      "Delta": 137213316
    },
    {
      "NoteNumber": 74,
      "Velocity": 96,
      "Duration": 232582,
      "SoundDuration": 232582,
      "Delta": 137213316
    },
    {
      "NoteNumber": 50,
      "Velocity": 96,
      "Duration": 232582,
      "SoundDuration": 232582,
      "Delta": 137459218
    },
    {
      "NoteNumber": 79,
      "Velocity": 96,
      "Duration": 232582,
      "SoundDuration": 232582,
      "Delta": 137459218
    },
    {
      "NoteNumber": 46,
      "Velocity": 96,
      "Duration": 195902,
      "SoundDuration": 195902,
      "Delta": 137705120
    },
    {
      "NoteNumber": 77,
      "Velocity": 96,
      "Duration": 232582,
      "SoundDuration": 232582,
      "Delta": 137705120
    },
    {
      "NoteNumber": 34,
      "Velocity": 96,
      "Duration": 232582,
      "SoundDuration": 232582,
      "Delta": 137705120
    },
    {
      "NoteNumber": 46,
      "Velocity": 96,
      "Duration": 232582,
      "SoundDuration": 232582,
      "Delta": 137951022
    },
    {
      "NoteNumber": 72,
      "Velocity": 96,
      "Duration": 232582,
      "SoundDuration": 232582,
      "Delta": 137951022
    },
    {
      "NoteNumber": 53,
      "Velocity": 96,
      "Duration": 232582,
      "SoundDuration": 232582,
      "Delta": 138196924
    },
    {
      "NoteNumber": 77,
      "Velocity": 96,
      "Duration": 72951,
      "SoundDuration": 72951,
      "Delta": 138196924
    },
    {
      "NoteNumber": 58,
      "Velocity": 96,
      "Duration": 232582,
      "SoundDuration": 232582,
      "Delta": 138196924
    },
    {
      "NoteNumber": 74,
      "Velocity": 96,
      "Duration": 72951,
      "SoundDuration": 72951,
      "Delta": 138196924
    },
    {
      "NoteNumber": 77,
      "Velocity": 96,
      "Duration": 72951,
      "SoundDuration": 72951,
      "Delta": 138319875
    },
    {
      "NoteNumber": 74,
      "Velocity": 96,
      "Duration": 72951,
      "SoundDuration": 72951,
      "Delta": 138319875
    },
    {
      "NoteNumber": 46,
      "Velocity": 96,
      "Duration": 232582,
      "SoundDuration": 232582,
      "Delta": 138442826
    },
    {
      "NoteNumber": 77,
      "Velocity": 96,
      "Duration": 72951,
      "SoundDuration": 72951,
      "Delta": 138442826
    },
    {
      "NoteNumber": 74,
      "Velocity": 96,
      "Duration": 72951,
      "SoundDuration": 72951,
      "Delta": 138442826
    },
    {
      "NoteNumber": 77,
      "Velocity": 96,
      "Duration": 349385,
      "SoundDuration": 349385,
      "Delta": 138565777
    },
    {
      "NoteNumber": 74,
      "Velocity": 96,
      "Duration": 318853,
      "SoundDuration": 318853,
      "Delta": 138565777
    },
    {
      "NoteNumber": 53,
      "Velocity": 96,
      "Duration": 232582,
      "SoundDuration": 232582,
      "Delta": 138688728
    },
    {
      "NoteNumber": 58,
      "Velocity": 96,
      "Duration": 232582,
      "SoundDuration": 232582,
      "Delta": 138688728
    },
    {
      "NoteNumber": 46,
      "Velocity": 96,
      "Duration": 232582,
      "SoundDuration": 232582,
      "Delta": 138934630
    },
    {
      "NoteNumber": 74,
      "Velocity": 96,
      "Duration": 195902,
      "SoundDuration": 195902,
      "Delta": 138934630
    },
    {
      "NoteNumber": 53,
      "Velocity": 96,
      "Duration": 232582,
      "SoundDuration": 232582,
      "Delta": 139180532
    },
    {
      "NoteNumber": 77,
      "Velocity": 96,
      "Duration": 195902,
      "SoundDuration": 195902,
      "Delta": 139180532
    },
    {
      "NoteNumber": 58,
      "Velocity": 96,
      "Duration": 232582,
      "SoundDuration": 232582,
      "Delta": 139180532
    },
    {
      "NoteNumber": 74,
      "Velocity": 96,
      "Duration": 195902,
      "SoundDuration": 195902,
      "Delta": 139180532
    },
    {
      "NoteNumber": 46,
      "Velocity": 96,
      "Duration": 232582,
      "SoundDuration": 232582,
      "Delta": 139426434
    },
    {
      "NoteNumber": 77,
      "Velocity": 96,
      "Duration": 232582,
      "SoundDuration": 232582,
      "Delta": 139426434
    },
    {
      "NoteNumber": 79,
      "Velocity": 96,
      "Duration": 232582,
      "SoundDuration": 232582,
      "Delta": 139426434
    },
    {
      "NoteNumber": 74,
      "Velocity": 96,
      "Duration": 232582,
      "SoundDuration": 232582,
      "Delta": 139426434
    },
    {
      "NoteNumber": 65,
      "Velocity": 96,
      "Duration": 232582,
      "SoundDuration": 232582,
      "Delta": 139672336
    },
    {
      "NoteNumber": 41,
      "Velocity": 96,
      "Duration": 195902,
      "SoundDuration": 195902,
      "Delta": 139672336
    },
    {
      "NoteNumber": 29,
      "Velocity": 96,
      "Duration": 232582,
      "SoundDuration": 232582,
      "Delta": 139672336
    },
    {
      "NoteNumber": 77,
      "Velocity": 96,
      "Duration": 195902,
      "SoundDuration": 195902,
      "Delta": 139918238
    },
    {
      "NoteNumber": 41,
      "Velocity": 96,
      "Duration": 232582,
      "SoundDuration": 232582,
      "Delta": 139918238
    },
    {
      "NoteNumber": 53,
      "Velocity": 96,
      "Duration": 232582,
      "SoundDuration": 232582,
      "Delta": 140164140
    },
    {
      "NoteNumber": 48,
      "Velocity": 96,
      "Duration": 232582,
      "SoundDuration": 232582,
      "Delta": 140164140
    },
    {
      "NoteNumber": 77,
      "Velocity": 96,
      "Duration": 72951,
      "SoundDuration": 72951,
      "Delta": 140164140
    },
    {
      "NoteNumber": 74,
      "Velocity": 96,
      "Duration": 72951,
      "SoundDuration": 72951,
      "Delta": 140164140
    },
    {
      "NoteNumber": 77,
      "Velocity": 96,
      "Duration": 72951,
      "SoundDuration": 72951,
      "Delta": 140287091
    },
    {
      "NoteNumber": 74,
      "Velocity": 96,
      "Duration": 72951,
      "SoundDuration": 72951,
      "Delta": 140287091
    },
    {
      "NoteNumber": 77,
      "Velocity": 96,
      "Duration": 72951,
      "SoundDuration": 72951,
      "Delta": 140410042
    },
    {
      "NoteNumber": 74,
      "Velocity": 96,
      "Duration": 72951,
      "SoundDuration": 72951,
      "Delta": 140410042
    },
    {
      "NoteNumber": 41,
      "Velocity": 96,
      "Duration": 232582,
      "SoundDuration": 232582,
      "Delta": 140410042
    },
    {
      "NoteNumber": 77,
      "Velocity": 96,
      "Duration": 72951,
      "SoundDuration": 72951,
      "Delta": 140532993
    },
    {
      "NoteNumber": 74,
      "Velocity": 96,
      "Duration": 115778,
      "SoundDuration": 115778,
      "Delta": 140532993
    },
    {
      "NoteNumber": 53,
      "Velocity": 96,
      "Duration": 232582,
      "SoundDuration": 232582,
      "Delta": 140655944
    },
    {
      "NoteNumber": 48,
      "Velocity": 96,
      "Duration": 232582,
      "SoundDuration": 232582,
      "Delta": 140655944
    },
    {
      "NoteNumber": 77,
      "Velocity": 96,
      "Duration": 232582,
      "SoundDuration": 232582,
      "Delta": 140655944
    },
    {
      "NoteNumber": 74,
      "Velocity": 96,
      "Duration": 195902,
      "SoundDuration": 195902,
      "Delta": 140901846
    },
    {
      "NoteNumber": 41,
      "Velocity": 96,
      "Duration": 232582,
      "SoundDuration": 232582,
      "Delta": 140901846
    },
    {
      "NoteNumber": 53,
      "Velocity": 96,
      "Duration": 232582,
      "SoundDuration": 232582,
      "Delta": 141147748
    },
    {
      "NoteNumber": 48,
      "Velocity": 96,
      "Duration": 232582,
      "SoundDuration": 232582,
      "Delta": 141147748
    },
    {
      "NoteNumber": 77,
      "Velocity": 96,
      "Duration": 232582,
      "SoundDuration": 232582,
      "Delta": 141147748
    },
    {
      "NoteNumber": 81,
      "Velocity": 96,
      "Duration": 232582,
      "SoundDuration": 232582,
      "Delta": 141147748
    },
    {
      "NoteNumber": 74,
      "Velocity": 96,
      "Duration": 232582,
      "SoundDuration": 232582,
      "Delta": 141147748
    },
    {
      "NoteNumber": 79,
      "Velocity": 96,
      "Duration": 232582,
      "SoundDuration": 232582,
      "Delta": 141393650
    },
    {
      "NoteNumber": 41,
      "Velocity": 96,
      "Duration": 232582,
      "SoundDuration": 232582,
      "Delta": 141393650
    },
    {
      "NoteNumber": 48,
      "Velocity": 96,
      "Duration": 232582,
      "SoundDuration": 232582,
      "Delta": 141639552
    },
    {
      "NoteNumber": 72,
      "Velocity": 96,
      "Duration": 195902,
      "SoundDuration": 195902,
      "Delta": 141639552
    },
    {
      "NoteNumber": 36,
      "Velocity": 96,
      "Duration": 232582,
      "SoundDuration": 232582,
      "Delta": 141639552
    },
    {
      "NoteNumber": 43,
      "Velocity": 96,
      "Duration": 232582,
      "SoundDuration": 232582,
      "Delta": 141885454
    },
    {
      "NoteNumber": 72,
      "Velocity": 96,
      "Duration": 195902,
      "SoundDuration": 195902,
      "Delta": 141885454
    },
    {
      "NoteNumber": 48,
      "Velocity": 96,
      "Duration": 232582,
      "SoundDuration": 232582,
      "Delta": 142131356
    },
    {
      "NoteNumber": 55,
      "Velocity": 96,
      "Duration": 232582,
      "SoundDuration": 232582,
      "Delta": 142131356
    },
    {
      "NoteNumber": 72,
      "Velocity": 96,
      "Duration": 195902,
      "SoundDuration": 195902,
      "Delta": 142131356
    },
    {
      "NoteNumber": 79,
      "Velocity": 96,
      "Duration": 232582,
      "SoundDuration": 232582,
      "Delta": 142131356
    },
    {
      "NoteNumber": 76,
      "Velocity": 96,
      "Duration": 232582,
      "SoundDuration": 232582,
      "Delta": 142131356
    },
    {
      "NoteNumber": 43,
      "Velocity": 96,
      "Duration": 232582,
      "SoundDuration": 232582,
      "Delta": 142377258
    },
    {
      "NoteNumber": 72,
      "Velocity": 96,
      "Duration": 195902,
      "SoundDuration": 195902,
      "Delta": 142377258
    },
    {
      "NoteNumber": 48,
      "Velocity": 96,
      "Duration": 232582,
      "SoundDuration": 232582,
      "Delta": 142623160
    },
    {
      "NoteNumber": 55,
      "Velocity": 96,
      "Duration": 232582,
      "SoundDuration": 232582,
      "Delta": 142623160
    },
    {
      "NoteNumber": 72,
      "Velocity": 96,
      "Duration": 195902,
      "SoundDuration": 195902,
      "Delta": 142623160
    },
    {
      "NoteNumber": 79,
      "Velocity": 96,
      "Duration": 195902,
      "SoundDuration": 195902,
      "Delta": 142623160
    },
    {
      "NoteNumber": 76,
      "Velocity": 96,
      "Duration": 195902,
      "SoundDuration": 195902,
      "Delta": 142623160
    },
    {
      "NoteNumber": 43,
      "Velocity": 96,
      "Duration": 232582,
      "SoundDuration": 232582,
      "Delta": 142869062
    },
    {
      "NoteNumber": 72,
      "Velocity": 96,
      "Duration": 232582,
      "SoundDuration": 232582,
      "Delta": 142869062
    },
    {
      "NoteNumber": 79,
      "Velocity": 96,
      "Duration": 232582,
      "SoundDuration": 232582,
      "Delta": 142869062
    },
    {
      "NoteNumber": 76,
      "Velocity": 96,
      "Duration": 232582,
      "SoundDuration": 232582,
      "Delta": 142869062
    },
    {
      "NoteNumber": 48,
      "Velocity": 96,
      "Duration": 232582,
      "SoundDuration": 232582,
      "Delta": 143114964
    },
    {
      "NoteNumber": 55,
      "Velocity": 96,
      "Duration": 232582,
      "SoundDuration": 232582,
      "Delta": 143114964
    },
    {
      "NoteNumber": 77,
      "Velocity": 96,
      "Duration": 195902,
      "SoundDuration": 195902,
      "Delta": 143114964
    },
    {
      "NoteNumber": 43,
      "Velocity": 96,
      "Duration": 195902,
      "SoundDuration": 195902,
      "Delta": 143360866
    },
    {
      "NoteNumber": 77,
      "Velocity": 96,
      "Duration": 232582,
      "SoundDuration": 232582,
      "Delta": 143360866
    },
    {
      "NoteNumber": 81,
      "Velocity": 96,
      "Duration": 232582,
      "SoundDuration": 232582,
      "Delta": 143360866
    },
    {
      "NoteNumber": 67,
      "Velocity": 96,
      "Duration": 232582,
      "SoundDuration": 232582,
      "Delta": 143606768
    },
    {
      "NoteNumber": 43,
      "Velocity": 96,
      "Duration": 232582,
      "SoundDuration": 232582,
      "Delta": 143606768
    },
    {
      "NoteNumber": 31,
      "Velocity": 96,
      "Duration": 232582,
      "SoundDuration": 232582,
      "Delta": 143606768
    },
    {
      "NoteNumber": 50,
      "Velocity": 96,
      "Duration": 232582,
      "SoundDuration": 232582,
      "Delta": 143852670
    },
    {
      "NoteNumber": 74,
      "Velocity": 96,
      "Duration": 232582,
      "SoundDuration": 232582,
      "Delta": 143852670
    },
    {
      "NoteNumber": 65,
      "Velocity": 96,
      "Duration": 232582,
      "SoundDuration": 232582,
      "Delta": 144098572
    },
    {
      "NoteNumber": 55,
      "Velocity": 96,
      "Duration": 232582,
      "SoundDuration": 232582,
      "Delta": 144098572
    },
    {
      "NoteNumber": 77,
      "Velocity": 96,
      "Duration": 232582,
      "SoundDuration": 232582,
      "Delta": 144098572
    },
    {
      "NoteNumber": 62,
      "Velocity": 96,
      "Duration": 232582,
      "SoundDuration": 232582,
      "Delta": 144098572
    },
    {
      "NoteNumber": 50,
      "Velocity": 96,
      "Duration": 232582,
      "SoundDuration": 232582,
      "Delta": 144344474
    },
    {
      "NoteNumber": 76,
      "Velocity": 96,
      "Duration": 232582,
      "SoundDuration": 232582,
      "Delta": 144344474
    },
    {
      "NoteNumber": 64,
      "Velocity": 96,
      "Duration": 232582,
      "SoundDuration": 232582,
      "Delta": 144344474
    },
    {
      "NoteNumber": 55,
      "Velocity": 96,
      "Duration": 232582,
      "SoundDuration": 232582,
      "Delta": 144590376
    },
    {
      "NoteNumber": 62,
      "Velocity": 96,
      "Duration": 195902,
      "SoundDuration": 195902,
      "Delta": 144590376
    },
    {
      "NoteNumber": 74,
      "Velocity": 96,
      "Duration": 232582,
      "SoundDuration": 232582,
      "Delta": 144590376
    },
    {
      "NoteNumber": 50,
      "Velocity": 96,
      "Duration": 232582,
      "SoundDuration": 232582,
      "Delta": 144836278
    },
    {
      "NoteNumber": 62,
      "Velocity": 96,
      "Duration": 195902,
      "SoundDuration": 195902,
      "Delta": 144836278
    },
    {
      "NoteNumber": 69,
      "Velocity": 96,
      "Duration": 232582,
      "SoundDuration": 232582,
      "Delta": 145082180
    },
    {
      "NoteNumber": 55,
      "Velocity": 96,
      "Duration": 232582,
      "SoundDuration": 232582,
      "Delta": 145082180
    },
    {
      "NoteNumber": 62,
      "Velocity": 96,
      "Duration": 232582,
      "SoundDuration": 232582,
      "Delta": 145082180
    },
    {
      "NoteNumber": 50,
      "Velocity": 96,
      "Duration": 232582,
      "SoundDuration": 232582,
      "Delta": 145328082
    },
    {
      "NoteNumber": 77,
      "Velocity": 96,
      "Duration": 195902,
      "SoundDuration": 195902,
      "Delta": 145328082
    },
    {
      "NoteNumber": 74,
      "Velocity": 96,
      "Duration": 195902,
      "SoundDuration": 195902,
      "Delta": 145328082
    },
    {
      "NoteNumber": 82,
      "Velocity": 96,
      "Duration": 232582,
      "SoundDuration": 232582,
      "Delta": 145328082
    },
    {
      "NoteNumber": 46,
      "Velocity": 96,
      "Duration": 195902,
      "SoundDuration": 195902,
      "Delta": 145573984
    },
    {
      "NoteNumber": 77,
      "Velocity": 96,
      "Duration": 232582,
      "SoundDuration": 232582,
      "Delta": 145573984
    },
    {
      "NoteNumber": 81,
      "Velocity": 96,
      "Duration": 232582,
      "SoundDuration": 232582,
      "Delta": 145573984
    },
    {
      "NoteNumber": 74,
      "Velocity": 96,
      "Duration": 195902,
      "SoundDuration": 195902,
      "Delta": 145573984
    },
    {
      "NoteNumber": 34,
      "Velocity": 96,
      "Duration": 232582,
      "SoundDuration": 232582,
      "Delta": 145573984
    },
    {
      "NoteNumber": 46,
      "Velocity": 96,
      "Duration": 232582,
      "SoundDuration": 232582,
      "Delta": 145819886
    },
    {
      "NoteNumber": 74,
      "Velocity": 96,
      "Duration": 195902,
      "SoundDuration": 195902,
      "Delta": 145819886
    },
    {
      "NoteNumber": 53,
      "Velocity": 96,
      "Duration": 232582,
      "SoundDuration": 232582,
      "Delta": 146065788
    },
    {
      "NoteNumber": 77,
      "Velocity": 96,
      "Duration": 232582,
      "SoundDuration": 232582,
      "Delta": 146065788
    },
    {
      "NoteNumber": 58,
      "Velocity": 96,
      "Duration": 232582,
      "SoundDuration": 232582,
      "Delta": 146065788
    },
    {
      "NoteNumber": 74,
      "Velocity": 96,
      "Duration": 232582,
      "SoundDuration": 232582,
      "Delta": 146065788
    },
    {
      "NoteNumber": 46,
      "Velocity": 96,
      "Duration": 232582,
      "SoundDuration": 232582,
      "Delta": 146311690
    },
    {
      "NoteNumber": 72,
      "Velocity": 96,
      "Duration": 232582,
      "SoundDuration": 232582,
      "Delta": 146311690
    },
    {
      "NoteNumber": 53,
      "Velocity": 96,
      "Duration": 232582,
      "SoundDuration": 232582,
      "Delta": 146557592
    },
    {
      "NoteNumber": 77,
      "Velocity": 96,
      "Duration": 232582,
      "SoundDuration": 232582,
      "Delta": 146557592
    },
    {
      "NoteNumber": 58,
      "Velocity": 96,
      "Duration": 232582,
      "SoundDuration": 232582,
      "Delta": 146557592
    },
    {
      "NoteNumber": 46,
      "Velocity": 96,
      "Duration": 232582,
      "SoundDuration": 232582,
      "Delta": 146803494
    },
    {
      "NoteNumber": 72,
      "Velocity": 96,
      "Duration": 232582,
      "SoundDuration": 232582,
      "Delta": 146803494
    },
    {
      "NoteNumber": 53,
      "Velocity": 96,
      "Duration": 232582,
      "SoundDuration": 232582,
      "Delta": 147049396
    },
    {
      "NoteNumber": 69,
      "Velocity": 96,
      "Duration": 232582,
      "SoundDuration": 232582,
      "Delta": 147049396
    },
    {
      "NoteNumber": 81,
      "Velocity": 96,
      "Duration": 232582,
      "SoundDuration": 232582,
      "Delta": 147049396
    },
    {
      "NoteNumber": 58,
      "Velocity": 96,
      "Duration": 232582,
      "SoundDuration": 232582,
      "Delta": 147049396
    },
    {
      "NoteNumber": 46,
      "Velocity": 96,
      "Duration": 232582,
      "SoundDuration": 232582,
      "Delta": 147295298
    },
    {
      "NoteNumber": 67,
      "Velocity": 96,
      "Duration": 195902,
      "SoundDuration": 195902,
      "Delta": 147295298
    },
    {
      "NoteNumber": 79,
      "Velocity": 96,
      "Duration": 232582,
      "SoundDuration": 232582,
      "Delta": 147295298
    },
    {
      "NoteNumber": 67,
      "Velocity": 96,
      "Duration": 232582,
      "SoundDuration": 232582,
      "Delta": 147541200
    },
    {
      "NoteNumber": 41,
      "Velocity": 96,
      "Duration": 195902,
      "SoundDuration": 195902,
      "Delta": 147541200
    },
    {
      "NoteNumber": 29,
      "Velocity": 96,
      "Duration": 232582,
      "SoundDuration": 232582,
      "Delta": 147541200
    },
    {
      "NoteNumber": 69,
      "Velocity": 96,
      "Duration": 195902,
      "SoundDuration": 195902,
      "Delta": 147787102
    },
    {
      "NoteNumber": 81,
      "Velocity": 96,
      "Duration": 195902,
      "SoundDuration": 195902,
      "Delta": 147787102
    },
    {
      "NoteNumber": 41,
      "Velocity": 96,
      "Duration": 232582,
      "SoundDuration": 232582,
      "Delta": 147787102
    },
    {
      "NoteNumber": 53,
      "Velocity": 96,
      "Duration": 232582,
      "SoundDuration": 232582,
      "Delta": 148033004
    },
    {
      "NoteNumber": 69,
      "Velocity": 96,
      "Duration": 195902,
      "SoundDuration": 195902,
      "Delta": 148033004
    },
    {
      "NoteNumber": 48,
      "Velocity": 96,
      "Duration": 232582,
      "SoundDuration": 232582,
      "Delta": 148033004
    },
    {
      "NoteNumber": 81,
      "Velocity": 96,
      "Duration": 232582,
      "SoundDuration": 232582,
      "Delta": 148033004
    },
    {
      "NoteNumber": 69,
      "Velocity": 96,
      "Duration": 232582,
      "SoundDuration": 232582,
      "Delta": 148278906
    },
    {
      "NoteNumber": 41,
      "Velocity": 96,
      "Duration": 232582,
      "SoundDuration": 232582,
      "Delta": 148278906
    },
    {
      "NoteNumber": 53,
      "Velocity": 96,
      "Duration": 232582,
      "SoundDuration": 232582,
      "Delta": 148524808
    },
    {
      "NoteNumber": 65,
      "Velocity": 96,
      "Duration": 195902,
      "SoundDuration": 195902,
      "Delta": 148524808
    },
    {
      "NoteNumber": 48,
      "Velocity": 96,
      "Duration": 232582,
      "SoundDuration": 232582,
      "Delta": 148524808
    },
    {
      "NoteNumber": 72,
      "Velocity": 96,
      "Duration": 232582,
      "SoundDuration": 232582,
      "Delta": 148524808
    },
    {
      "NoteNumber": 77,
      "Velocity": 96,
      "Duration": 232582,
      "SoundDuration": 232582,
      "Delta": 148524808
    },
    {
      "NoteNumber": 65,
      "Velocity": 96,
      "Duration": 232582,
      "SoundDuration": 232582,
      "Delta": 148770710
    },
    {
      "NoteNumber": 41,
      "Velocity": 96,
      "Duration": 232582,
      "SoundDuration": 232582,
      "Delta": 148770710
    },
    {
      "NoteNumber": 53,
      "Velocity": 96,
      "Duration": 232582,
      "SoundDuration": 232582,
      "Delta": 149016612
    },
    {
      "NoteNumber": 48,
      "Velocity": 96,
      "Duration": 232582,
      "SoundDuration": 232582,
      "Delta": 149016612
    },
    {
      "NoteNumber": 72,
      "Velocity": 96,
      "Duration": 232582,
      "SoundDuration": 232582,
      "Delta": 149016612
    },
    {
      "NoteNumber": 70,
      "Velocity": 96,
      "Duration": 232582,
      "SoundDuration": 232582,
      "Delta": 149262514
    },
    {
      "NoteNumber": 41,
      "Velocity": 96,
      "Duration": 232582,
      "SoundDuration": 232582,
      "Delta": 149262514
    },
    {
      "NoteNumber": 82,
      "Velocity": 96,
      "Duration": 232582,
      "SoundDuration": 232582,
      "Delta": 149262514
    },
    {
      "NoteNumber": 69,
      "Velocity": 96,
      "Duration": 195902,
      "SoundDuration": 195902,
      "Delta": 149508416
    },
    {
      "NoteNumber": 48,
      "Velocity": 96,
      "Duration": 232582,
      "SoundDuration": 232582,
      "Delta": 149508416
    },
    {
      "NoteNumber": 81,
      "Velocity": 96,
      "Duration": 232582,
      "SoundDuration": 232582,
      "Delta": 149508416
    },
    {
      "NoteNumber": 36,
      "Velocity": 96,
      "Duration": 232582,
      "SoundDuration": 232582,
      "Delta": 149508416
    },
    {
      "NoteNumber": 69,
      "Velocity": 96,
      "Duration": 232582,
      "SoundDuration": 232582,
      "Delta": 149754318
    },
    {
      "NoteNumber": 43,
      "Velocity": 96,
      "Duration": 232582,
      "SoundDuration": 232582,
      "Delta": 149754318
    },
    {
      "NoteNumber": 48,
      "Velocity": 96,
      "Duration": 232582,
      "SoundDuration": 232582,
      "Delta": 150000220
    },
    {
      "NoteNumber": 55,
      "Velocity": 96,
      "Duration": 232582,
      "SoundDuration": 232582,
      "Delta": 150000220
    },
    {
      "NoteNumber": 67,
      "Velocity": 96,
      "Duration": 232582,
      "SoundDuration": 232582,
      "Delta": 150000220
    },
    {
      "NoteNumber": 43,
      "Velocity": 96,
      "Duration": 232582,
      "SoundDuration": 232582,
      "Delta": 150246122
    },
    {
      "NoteNumber": 74,
      "Velocity": 96,
      "Duration": 232582,
      "SoundDuration": 232582,
      "Delta": 150246122
    },
    {
      "NoteNumber": 48,
      "Velocity": 96,
      "Duration": 232582,
      "SoundDuration": 232582,
      "Delta": 150492024
    },
    {
      "NoteNumber": 55,
      "Velocity": 96,
      "Duration": 232582,
      "SoundDuration": 232582,
      "Delta": 150492024
    },
    {
      "NoteNumber": 67,
      "Velocity": 96,
      "Duration": 195902,
      "SoundDuration": 195902,
      "Delta": 150492024
    },
    {
      "NoteNumber": 79,
      "Velocity": 96,
      "Duration": 195902,
      "SoundDuration": 195902,
      "Delta": 150492024
    },
    {
      "NoteNumber": 67,
      "Velocity": 96,
      "Duration": 232582,
      "SoundDuration": 232582,
      "Delta": 150737926
    },
    {
      "NoteNumber": 43,
      "Velocity": 96,
      "Duration": 232582,
      "SoundDuration": 232582,
      "Delta": 150737926
    },
    {
      "NoteNumber": 79,
      "Velocity": 96,
      "Duration": 232582,
      "SoundDuration": 232582,
      "Delta": 150737926
    },
    {
      "NoteNumber": 65,
      "Velocity": 96,
      "Duration": 232582,
      "SoundDuration": 232582,
      "Delta": 150983828
    },
    {
      "NoteNumber": 48,
      "Velocity": 96,
      "Duration": 232582,
      "SoundDuration": 232582,
      "Delta": 150983828
    },
    {
      "NoteNumber": 55,
      "Velocity": 96,
      "Duration": 232582,
      "SoundDuration": 232582,
      "Delta": 150983828
    },
    {
      "NoteNumber": 77,
      "Velocity": 96,
      "Duration": 232582,
      "SoundDuration": 232582,
      "Delta": 150983828
    },
    {
      "NoteNumber": 69,
      "Velocity": 96,
      "Duration": 232582,
      "SoundDuration": 232582,
      "Delta": 151229730
    },
    {
      "NoteNumber": 43,
      "Velocity": 96,
      "Duration": 195902,
      "SoundDuration": 195902,
      "Delta": 151229730
    },
    {
      "NoteNumber": 81,
      "Velocity": 96,
      "Duration": 232582,
      "SoundDuration": 232582,
      "Delta": 151229730
    },
    {
      "NoteNumber": 67,
      "Velocity": 96,
      "Duration": 232582,
      "SoundDuration": 232582,
      "Delta": 151475632
    },
    {
      "NoteNumber": 43,
      "Velocity": 96,
      "Duration": 232582,
      "SoundDuration": 232582,
      "Delta": 151475632
    },
    {
      "NoteNumber": 31,
      "Velocity": 96,
      "Duration": 232582,
      "SoundDuration": 232582,
      "Delta": 151475632
    },
    {
      "NoteNumber": 50,
      "Velocity": 96,
      "Duration": 232582,
      "SoundDuration": 232582,
      "Delta": 151721534
    },
    {
      "NoteNumber": 72,
      "Velocity": 96,
      "Duration": 195902,
      "SoundDuration": 195902,
      "Delta": 151721534
    },
    {
      "NoteNumber": 69,
      "Velocity": 96,
      "Duration": 195902,
      "SoundDuration": 195902,
      "Delta": 151967436
    },
    {
      "NoteNumber": 55,
      "Velocity": 96,
      "Duration": 232582,
      "SoundDuration": 232582,
      "Delta": 151967436
    },
    {
      "NoteNumber": 72,
      "Velocity": 96,
      "Duration": 195902,
      "SoundDuration": 195902,
      "Delta": 151967436
    },
    {
      "NoteNumber": 77,
      "Velocity": 96,
      "Duration": 232582,
      "SoundDuration": 232582,
      "Delta": 151967436
    },
    {
      "NoteNumber": 62,
      "Velocity": 96,
      "Duration": 232582,
      "SoundDuration": 232582,
      "Delta": 151967436
    },
    {
      "NoteNumber": 50,
      "Velocity": 96,
      "Duration": 232582,
      "SoundDuration": 232582,
      "Delta": 152213338
    },
    {
      "NoteNumber": 69,
      "Velocity": 96,
      "Duration": 195902,
      "SoundDuration": 195902,
      "Delta": 152213338
    },
    {
      "NoteNumber": 72,
      "Velocity": 96,
      "Duration": 232582,
      "SoundDuration": 232582,
      "Delta": 152213338
    },
    {
      "NoteNumber": 76,
      "Velocity": 96,
      "Duration": 232582,
      "SoundDuration": 232582,
      "Delta": 152213338
    },
    {
      "NoteNumber": 69,
      "Velocity": 96,
      "Duration": 195902,
      "SoundDuration": 195902,
      "Delta": 152459240
    },
    {
      "NoteNumber": 55,
      "Velocity": 96,
      "Duration": 232582,
      "SoundDuration": 232582,
      "Delta": 152459240
    },
    {
      "NoteNumber": 62,
      "Velocity": 96,
      "Duration": 232582,
      "SoundDuration": 232582,
      "Delta": 152459240
    },
    {
      "NoteNumber": 74,
      "Velocity": 96,
      "Duration": 232582,
      "SoundDuration": 232582,
      "Delta": 152459240
    },
    {
      "NoteNumber": 50,
      "Velocity": 96,
      "Duration": 232582,
      "SoundDuration": 232582,
      "Delta": 152705142
    },
    {
      "NoteNumber": 69,
      "Velocity": 96,
      "Duration": 232582,
      "SoundDuration": 232582,
      "Delta": 152705142
    },
    {
      "NoteNumber": 55,
      "Velocity": 96,
      "Duration": 232582,
      "SoundDuration": 232582,
      "Delta": 152951044
    },
    {
      "NoteNumber": 72,
      "Velocity": 96,
      "Duration": 232582,
      "SoundDuration": 232582,
      "Delta": 152951044
    },
    {
      "NoteNumber": 62,
      "Velocity": 96,
      "Duration": 232582,
      "SoundDuration": 232582,
      "Delta": 152951044
    },
    {
      "NoteNumber": 50,
      "Velocity": 96,
      "Duration": 232582,
      "SoundDuration": 232582,
      "Delta": 153196946
    },
    {
      "NoteNumber": 70,
      "Velocity": 96,
      "Duration": 232582,
      "SoundDuration": 232582,
      "Delta": 153196946
    },
    {
      "NoteNumber": 82,
      "Velocity": 96,
      "Duration": 232582,
      "SoundDuration": 232582,
      "Delta": 153196946
    },
    {
      "NoteNumber": 46,
      "Velocity": 96,
      "Duration": 195902,
      "SoundDuration": 195902,
      "Delta": 153442848
    },
    {
      "NoteNumber": 69,
      "Velocity": 96,
      "Duration": 195902,
      "SoundDuration": 195902,
      "Delta": 153442848
    },
    {
      "NoteNumber": 81,
      "Velocity": 96,
      "Duration": 232582,
      "SoundDuration": 232582,
      "Delta": 153442848
    },
    {
      "NoteNumber": 34,
      "Velocity": 96,
      "Duration": 232582,
      "SoundDuration": 232582,
      "Delta": 153442848
    },
    {
      "NoteNumber": 46,
      "Velocity": 96,
      "Duration": 232582,
      "SoundDuration": 232582,
      "Delta": 153688750
    },
    {
      "NoteNumber": 69,
      "Velocity": 96,
      "Duration": 232582,
      "SoundDuration": 232582,
      "Delta": 153688750
    },
    {
      "NoteNumber": 53,
      "Velocity": 96,
      "Duration": 232582,
      "SoundDuration": 232582,
      "Delta": 153934652
    },
    {
      "NoteNumber": 72,
      "Velocity": 96,
      "Duration": 195902,
      "SoundDuration": 195902,
      "Delta": 153934652
    },
    {
      "NoteNumber": 79,
      "Velocity": 96,
      "Duration": 232582,
      "SoundDuration": 232582,
      "Delta": 153934652
    },
    {
      "NoteNumber": 58,
      "Velocity": 96,
      "Duration": 232582,
      "SoundDuration": 232582,
      "Delta": 153934652
    },
    {
      "NoteNumber": 76,
      "Velocity": 96,
      "Duration": 232582,
      "SoundDuration": 232582,
      "Delta": 153934652
    },
    {
      "NoteNumber": 46,
      "Velocity": 96,
      "Duration": 232582,
      "SoundDuration": 232582,
      "Delta": 154180554
    },
    {
      "NoteNumber": 72,
      "Velocity": 96,
      "Duration": 195902,
      "SoundDuration": 195902,
      "Delta": 154180554
    },
    {
      "NoteNumber": 53,
      "Velocity": 96,
      "Duration": 232582,
      "SoundDuration": 232582,
      "Delta": 154426456
    },
    {
      "NoteNumber": 72,
      "Velocity": 96,
      "Duration": 195902,
      "SoundDuration": 195902,
      "Delta": 154426456
    },
    {
      "NoteNumber": 79,
      "Velocity": 96,
      "Duration": 195902,
      "SoundDuration": 195902,
      "Delta": 154426456
    },
    {
      "NoteNumber": 58,
      "Velocity": 96,
      "Duration": 232582,
      "SoundDuration": 232582,
      "Delta": 154426456
    },
    {
      "NoteNumber": 76,
      "Velocity": 96,
      "Duration": 195902,
      "SoundDuration": 195902,
      "Delta": 154426456
    },
    {
      "NoteNumber": 46,
      "Velocity": 96,
      "Duration": 232582,
      "SoundDuration": 232582,
      "Delta": 154672358
    },
    {
      "NoteNumber": 72,
      "Velocity": 96,
      "Duration": 195902,
      "SoundDuration": 195902,
      "Delta": 154672358
    },
    {
      "NoteNumber": 79,
      "Velocity": 96,
      "Duration": 232582,
      "SoundDuration": 232582,
      "Delta": 154672358
    },
    {
      "NoteNumber": 76,
      "Velocity": 96,
      "Duration": 232582,
      "SoundDuration": 232582,
      "Delta": 154672358
    },
    {
      "NoteNumber": 53,
      "Velocity": 96,
      "Duration": 232582,
      "SoundDuration": 232582,
      "Delta": 154918260
    },
    {
      "NoteNumber": 72,
      "Velocity": 96,
      "Duration": 195902,
      "SoundDuration": 195902,
      "Delta": 154918260
    },
    {
      "NoteNumber": 77,
      "Velocity": 96,
      "Duration": 232582,
      "SoundDuration": 232582,
      "Delta": 154918260
    },
    {
      "NoteNumber": 58,
      "Velocity": 96,
      "Duration": 232582,
      "SoundDuration": 232582,
      "Delta": 154918260
    },
    {
      "NoteNumber": 46,
      "Velocity": 96,
      "Duration": 232582,
      "SoundDuration": 232582,
      "Delta": 155164162
    },
    {
      "NoteNumber": 72,
      "Velocity": 96,
      "Duration": 232582,
      "SoundDuration": 232582,
      "Delta": 155164162
    },
    {
      "NoteNumber": 84,
      "Velocity": 96,
      "Duration": 232582,
      "SoundDuration": 232582,
      "Delta": 155164162
    },
    {
      "NoteNumber": 67,
      "Velocity": 96,
      "Duration": 232582,
      "SoundDuration": 232582,
      "Delta": 155410064
    },
    {
      "NoteNumber": 41,
      "Velocity": 96,
      "Duration": 195902,
      "SoundDuration": 195902,
      "Delta": 155410064
    },
    {
      "NoteNumber": 29,
      "Velocity": 96,
      "Duration": 232582,
      "SoundDuration": 232582,
      "Delta": 155410064
    },
    {
      "NoteNumber": 72,
      "Velocity": 96,
      "Duration": 232582,
      "SoundDuration": 232582,
      "Delta": 155655966
    },
    {
      "NoteNumber": 41,
      "Velocity": 96,
      "Duration": 232582,
      "SoundDuration": 232582,
      "Delta": 155655966
    },
    {
      "NoteNumber": 53,
      "Velocity": 96,
      "Duration": 232582,
      "SoundDuration": 232582,
      "Delta": 155901868
    },
    {
      "NoteNumber": 65,
      "Velocity": 96,
      "Duration": 232582,
      "SoundDuration": 232582,
      "Delta": 155901868
    },
    {
      "NoteNumber": 48,
      "Velocity": 96,
      "Duration": 232582,
      "SoundDuration": 232582,
      "Delta": 155901868
    },
    {
      "NoteNumber": 77,
      "Velocity": 96,
      "Duration": 232582,
      "SoundDuration": 232582,
      "Delta": 155901868
    },
    {
      "NoteNumber": 70,
      "Velocity": 96,
      "Duration": 232582,
      "SoundDuration": 232582,
      "Delta": 156147770
    },
    {
      "NoteNumber": 41,
      "Velocity": 96,
      "Duration": 232582,
      "SoundDuration": 232582,
      "Delta": 156147770
    },
    {
      "NoteNumber": 53,
      "Velocity": 96,
      "Duration": 232582,
      "SoundDuration": 232582,
      "Delta": 156393672
    },
    {
      "NoteNumber": 65,
      "Velocity": 96,
      "Duration": 232582,
      "SoundDuration": 232582,
      "Delta": 156393672
    },
    {
      "NoteNumber": 48,
      "Velocity": 96,
      "Duration": 232582,
      "SoundDuration": 232582,
      "Delta": 156393672
    },
    {
      "NoteNumber": 72,
      "Velocity": 96,
      "Duration": 195902,
      "SoundDuration": 195902,
      "Delta": 156639574
    },
    {
      "NoteNumber": 41,
      "Velocity": 96,
      "Duration": 232582,
      "SoundDuration": 232582,
      "Delta": 156639574
    },
    {
      "NoteNumber": 53,
      "Velocity": 96,
      "Duration": 232582,
      "SoundDuration": 232582,
      "Delta": 156885476
    },
    {
      "NoteNumber": 69,
      "Velocity": 96,
      "Duration": 232582,
      "SoundDuration": 232582,
      "Delta": 156885476
    },
    {
      "NoteNumber": 65,
      "Velocity": 96,
      "Duration": 195902,
      "SoundDuration": 195902,
      "Delta": 156885476
    },
    {
      "NoteNumber": 48,
      "Velocity": 96,
      "Duration": 232582,
      "SoundDuration": 232582,
      "Delta": 156885476
    },
    {
      "NoteNumber": 72,
      "Velocity": 96,
      "Duration": 232582,
      "SoundDuration": 232582,
      "Delta": 156885476
    },
    {
      "NoteNumber": 65,
      "Velocity": 96,
      "Duration": 232582,
      "SoundDuration": 232582,
      "Delta": 157131378
    },
    {
      "NoteNumber": 41,
      "Velocity": 96,
      "Duration": 232582,
      "SoundDuration": 232582,
      "Delta": 157131378
    },
    {
      "NoteNumber": 48,
      "Velocity": 96,
      "Duration": 232582,
      "SoundDuration": 232582,
      "Delta": 157377280
    },
    {
      "NoteNumber": 72,
      "Velocity": 96,
      "Duration": 232582,
      "SoundDuration": 232582,
      "Delta": 157377280
    },
    {
      "NoteNumber": 36,
      "Velocity": 96,
      "Duration": 232582,
      "SoundDuration": 232582,
      "Delta": 157377280
    },
    {
      "NoteNumber": 65,
      "Velocity": 96,
      "Duration": 195902,
      "SoundDuration": 195902,
      "Delta": 157623182
    },
    {
      "NoteNumber": 43,
      "Velocity": 96,
      "Duration": 232582,
      "SoundDuration": 232582,
      "Delta": 157623182
    },
    {
      "NoteNumber": 69,
      "Velocity": 96,
      "Duration": 195902,
      "SoundDuration": 195902,
      "Delta": 157869084
    },
    {
      "NoteNumber": 65,
      "Velocity": 96,
      "Duration": 232582,
      "SoundDuration": 232582,
      "Delta": 157869084
    },
    {
      "NoteNumber": 48,
      "Velocity": 96,
      "Duration": 232582,
      "SoundDuration": 232582,
      "Delta": 157869084
    },
    {
      "NoteNumber": 55,
      "Velocity": 96,
      "Duration": 232582,
      "SoundDuration": 232582,
      "Delta": 157869084
    },
    {
      "NoteNumber": 72,
      "Velocity": 96,
      "Duration": 232582,
      "SoundDuration": 232582,
      "Delta": 157869084
    },
    {
      "NoteNumber": 69,
      "Velocity": 96,
      "Duration": 232582,
      "SoundDuration": 232582,
      "Delta": 158114986
    },
    {
      "NoteNumber": 43,
      "Velocity": 96,
      "Duration": 232582,
      "SoundDuration": 232582,
      "Delta": 158114986
    },
    {
      "NoteNumber": 70,
      "Velocity": 96,
      "Duration": 232582,
      "SoundDuration": 232582,
      "Delta": 158360888
    },
    {
      "NoteNumber": 48,
      "Velocity": 96,
      "Duration": 232582,
      "SoundDuration": 232582,
      "Delta": 158360888
    },
    {
      "NoteNumber": 55,
      "Velocity": 96,
      "Duration": 232582,
      "SoundDuration": 232582,
      "Delta": 158360888
    },
    {
      "NoteNumber": 43,
      "Velocity": 96,
      "Duration": 232582,
      "SoundDuration": 232582,
      "Delta": 158606790
    },
    {
      "NoteNumber": 77,
      "Velocity": 96,
      "Duration": 232582,
      "SoundDuration": 232582,
      "Delta": 158606790
    },
    {
      "NoteNumber": 48,
      "Velocity": 96,
      "Duration": 232582,
      "SoundDuration": 232582,
      "Delta": 158852692
    },
    {
      "NoteNumber": 55,
      "Velocity": 96,
      "Duration": 232582,
      "SoundDuration": 232582,
      "Delta": 158852692
    },
    {
      "NoteNumber": 79,
      "Velocity": 96,
      "Duration": 195902,
      "SoundDuration": 195902,
      "Delta": 158852692
    },
    {
      "NoteNumber": 43,
      "Velocity": 96,
      "Duration": 232582,
      "SoundDuration": 232582,
      "Delta": 159098594
    },
    {
      "NoteNumber": 79,
      "Velocity": 96,
      "Duration": 232582,
      "SoundDuration": 232582,
      "Delta": 159098594
    },
    {
      "NoteNumber": 46,
      "Velocity": 64,
      "Duration": 1867830,
      "SoundDuration": 1867830,
      "Delta": 159344496
    },
    {
      "NoteNumber": 50,
      "Velocity": 64,
      "Duration": 1867830,
      "SoundDuration": 1867830,
      "Delta": 159344496
    },
    {
      "NoteNumber": 53,
      "Velocity": 64,
      "Duration": 1867830,
      "SoundDuration": 1867830,
      "Delta": 159344496
    },
    {
      "NoteNumber": 69,
      "Velocity": 64,
      "Duration": 466189,
      "SoundDuration": 466189,
      "Delta": 159836300
    },
    {
      "NoteNumber": 65,
      "Velocity": 64,
      "Duration": 699796,
      "SoundDuration": 699796,
      "Delta": 160328104
    },
    {
      "NoteNumber": 70,
      "Velocity": 64,
      "Duration": 232582,
      "SoundDuration": 232582,
      "Delta": 161065810
    },
    {
      "NoteNumber": 50,
      "Velocity": 64,
      "Duration": 1867830,
      "SoundDuration": 1867830,
      "Delta": 161311712
    },
    {
      "NoteNumber": 53,
      "Velocity": 64,
      "Duration": 1867830,
      "SoundDuration": 1867830,
      "Delta": 161311712
    },
    {
      "NoteNumber": 69,
      "Velocity": 64,
      "Duration": 466189,
      "SoundDuration": 466189,
      "Delta": 161311712
    },
    {
      "NoteNumber": 57,
      "Velocity": 64,
      "Duration": 1867830,
      "SoundDuration": 1867830,
      "Delta": 161311712
    },
    {
      "NoteNumber": 65,
      "Velocity": 64,
      "Duration": 933403,
      "SoundDuration": 933403,
      "Delta": 161803516
    },
    {
      "NoteNumber": 48,
      "Velocity": 64,
      "Duration": 1867830,
      "SoundDuration": 1867830,
      "Delta": 163278928
    },
    {
      "NoteNumber": 52,
      "Velocity": 64,
      "Duration": 1867830,
      "SoundDuration": 1867830,
      "Delta": 163278928
    },
    {
      "NoteNumber": 55,
      "Velocity": 64,
      "Duration": 1867830,
      "SoundDuration": 1867830,
      "Delta": 163278928
    },
    {
      "NoteNumber": 69,
      "Velocity": 64,
      "Duration": 466189,
      "SoundDuration": 466189,
      "Delta": 163770732
    },
    {
      "NoteNumber": 65,
      "Velocity": 64,
      "Duration": 699796,
      "SoundDuration": 699796,
      "Delta": 164262536
    },
    {
      "NoteNumber": 70,
      "Velocity": 64,
      "Duration": 232582,
      "SoundDuration": 232582,
      "Delta": 165000242
    },
    {
      "NoteNumber": 46,
      "Velocity": 64,
      "Duration": 1867830,
      "SoundDuration": 1867830,
      "Delta": 165246144
    },
    {
      "NoteNumber": 50,
      "Velocity": 64,
      "Duration": 1867830,
      "SoundDuration": 1867830,
      "Delta": 165246144
    },
    {
      "NoteNumber": 69,
      "Velocity": 64,
      "Duration": 466189,
      "SoundDuration": 466189,
      "Delta": 165246144
    },
    {
      "NoteNumber": 55,
      "Velocity": 64,
      "Duration": 1867830,
      "SoundDuration": 1867830,
      "Delta": 165246144
    },
    {
      "NoteNumber": 65,
      "Velocity": 64,
      "Duration": 933403,
      "SoundDuration": 933403,
      "Delta": 165737948
    },
    {
      "NoteNumber": 62,
      "Velocity": 64,
      "Duration": 232582,
      "SoundDuration": 232582,
      "Delta": 166721556
    },
    {
      "NoteNumber": 60,
      "Velocity": 64,
      "Duration": 232582,
      "SoundDuration": 232582,
      "Delta": 166967458
    },
    {
      "NoteNumber": 46,
      "Velocity": 64,
      "Duration": 1867830,
      "SoundDuration": 1867830,
      "Delta": 167213360
    },
    {
      "NoteNumber": 50,
      "Velocity": 64,
      "Duration": 1867830,
      "SoundDuration": 1867830,
      "Delta": 167213360
    },
    {
      "NoteNumber": 53,
      "Velocity": 64,
      "Duration": 1867830,
      "SoundDuration": 1867830,
      "Delta": 167213360
    },
    {
      "NoteNumber": 69,
      "Velocity": 64,
      "Duration": 466189,
      "SoundDuration": 466189,
      "Delta": 167705164
    },
    {
      "NoteNumber": 65,
      "Velocity": 64,
      "Duration": 699796,
      "SoundDuration": 699796,
      "Delta": 168196968
    },
    {
      "NoteNumber": 70,
      "Velocity": 64,
      "Duration": 232582,
      "SoundDuration": 232582,
      "Delta": 168934674
    },
    {
      "NoteNumber": 50,
      "Velocity": 64,
      "Duration": 1867830,
      "SoundDuration": 1867830,
      "Delta": 169180576
    },
    {
      "NoteNumber": 53,
      "Velocity": 64,
      "Duration": 1867830,
      "SoundDuration": 1867830,
      "Delta": 169180576
    },
    {
      "NoteNumber": 69,
      "Velocity": 64,
      "Duration": 466189,
      "SoundDuration": 466189,
      "Delta": 169180576
    },
    {
      "NoteNumber": 57,
      "Velocity": 64,
      "Duration": 1867830,
      "SoundDuration": 1867830,
      "Delta": 169180576
    },
    {
      "NoteNumber": 65,
      "Velocity": 64,
      "Duration": 466189,
      "SoundDuration": 466189,
      "Delta": 169672380
    },
    {
      "NoteNumber": 62,
      "Velocity": 64,
      "Duration": 232582,
      "SoundDuration": 232582,
      "Delta": 170164184
    },
    {
      "NoteNumber": 60,
      "Velocity": 64,
      "Duration": 466189,
      "SoundDuration": 466189,
      "Delta": 170410086
    },
    {
      "NoteNumber": 70,
      "Velocity": 64,
      "Duration": 232582,
      "SoundDuration": 232582,
      "Delta": 170901890
    },
    {
      "NoteNumber": 69,
      "Velocity": 64,
      "Duration": 466189,
      "SoundDuration": 466189,
      "Delta": 171147792
    },
    {
      "NoteNumber": 48,
      "Velocity": 64,
      "Duration": 3736685,
      "SoundDuration": 3736685,
      "Delta": 171147792
    },
    {
      "NoteNumber": 52,
      "Velocity": 64,
      "Duration": 3736685,
      "SoundDuration": 3736685,
      "Delta": 171147792
    },
    {
      "NoteNumber": 55,
      "Velocity": 64,
      "Duration": 3736685,
      "SoundDuration": 3736685,
      "Delta": 171147792
    },
    {
      "NoteNumber": 65,
      "Velocity": 64,
      "Duration": 466189,
      "SoundDuration": 466189,
      "Delta": 171639596
    },
    {
      "NoteNumber": 62,
      "Velocity": 33,
      "Duration": 232582,
      "SoundDuration": 232582,
      "Delta": 172131400
    },
    {
      "NoteNumber": 60,
      "Velocity": 33,
      "Duration": 466189,
      "SoundDuration": 466189,
      "Delta": 172377302
    },
    {
      "NoteNumber": 70,
      "Velocity": 33,
      "Duration": 232582,
      "SoundDuration": 232582,
      "Delta": 172869106
    },
    {
      "NoteNumber": 69,
      "Velocity": 33,
      "Duration": 933403,
      "SoundDuration": 933403,
      "Delta": 173115008
    },
    {
      "NoteNumber": 65,
      "Velocity": 33,
      "Duration": 933403,
      "SoundDuration": 933403,
      "Delta": 174098616
    },
    {
      "NoteNumber": 62,
      "Velocity": 96,
      "Duration": 232582,
      "SoundDuration": 232582,
      "Delta": 175328126
    },
    {
      "NoteNumber": 74,
      "Velocity": 96,
      "Duration": 232582,
      "SoundDuration": 232582,
      "Delta": 175328126
    },
    {
      "NoteNumber": 65,
      "Velocity": 96,
      "Duration": 232582,
      "SoundDuration": 232582,
      "Delta": 175574028
    },
    {
      "NoteNumber": 77,
      "Velocity": 96,
      "Duration": 232582,
      "SoundDuration": 232582,
      "Delta": 175574028
    },
    {
      "NoteNumber": 62,
      "Velocity": 96,
      "Duration": 232582,
      "SoundDuration": 232582,
      "Delta": 175819930
    },
    {
      "NoteNumber": 74,
      "Velocity": 96,
      "Duration": 232582,
      "SoundDuration": 232582,
      "Delta": 175819930
    },
    {
      "NoteNumber": 67,
      "Velocity": 96,
      "Duration": 232582,
      "SoundDuration": 232582,
      "Delta": 176065832
    },
    {
      "NoteNumber": 79,
      "Velocity": 96,
      "Duration": 232582,
      "SoundDuration": 232582,
      "Delta": 176065832
    },
    {
      "NoteNumber": 69,
      "Velocity": 96,
      "Duration": 466189,
      "SoundDuration": 466189,
      "Delta": 176311734
    },
    {
      "NoteNumber": 81,
      "Velocity": 96,
      "Duration": 466189,
      "SoundDuration": 466189,
      "Delta": 176311734
    },
    {
      "NoteNumber": 72,
      "Velocity": 96,
      "Duration": 232582,
      "SoundDuration": 232582,
      "Delta": 176803538
    },
    {
      "NoteNumber": 84,
      "Velocity": 96,
      "Duration": 232582,
      "SoundDuration": 232582,
      "Delta": 176803538
    },
    {
      "NoteNumber": 70,
      "Velocity": 126,
      "Duration": 195902,
      "SoundDuration": 195902,
      "Delta": 177049440
    },
    {
      "NoteNumber": 55,
      "Velocity": 126,
      "Duration": 232582,
      "SoundDuration": 232582,
      "Delta": 177049440
    },
    {
      "NoteNumber": 43,
      "Velocity": 126,
      "Duration": 195902,
      "SoundDuration": 195902,
      "Delta": 177049440
    },
    {
      "NoteNumber": 79,
      "Velocity": 126,
      "Duration": 232582,
      "SoundDuration": 232582,
      "Delta": 177049440
    },
    {
      "NoteNumber": 74,
      "Velocity": 126,
      "Duration": 232582,
      "SoundDuration": 232582,
      "Delta": 177049440
    },
    {
      "NoteNumber": 70,
      "Velocity": 126,
      "Duration": 232582,
      "SoundDuration": 232582,
      "Delta": 177295342
    },
    {
      "NoteNumber": 43,
      "Velocity": 126,
      "Duration": 232582,
      "SoundDuration": 232582,
      "Delta": 177295342
    },
    {
      "NoteNumber": 74,
      "Velocity": 126,
      "Duration": 232582,
      "SoundDuration": 232582,
      "Delta": 177541244
    },
    {
      "NoteNumber": 31,
      "Velocity": 126,
      "Duration": 232582,
      "SoundDuration": 232582,
      "Delta": 177541244
    },
    {
      "NoteNumber": 70,
      "Velocity": 126,
      "Duration": 232582,
      "SoundDuration": 232582,
      "Delta": 177787146
    },
    {
      "NoteNumber": 43,
      "Velocity": 126,
      "Duration": 232582,
      "SoundDuration": 232582,
      "Delta": 177787146
    },
    {
      "NoteNumber": 50,
      "Velocity": 126,
      "Duration": 195902,
      "SoundDuration": 195902,
      "Delta": 178033048
    },
    {
      "NoteNumber": 55,
      "Velocity": 126,
      "Duration": 232582,
      "SoundDuration": 232582,
      "Delta": 178033048
    },
    {
      "NoteNumber": 74,
      "Velocity": 126,
      "Duration": 232582,
      "SoundDuration": 232582,
      "Delta": 178033048
    },
    {
      "NoteNumber": 50,
      "Velocity": 126,
      "Duration": 232582,
      "SoundDuration": 232582,
      "Delta": 178278950
    },
    {
      "NoteNumber": 72,
      "Velocity": 126,
      "Duration": 232582,
      "SoundDuration": 232582,
      "Delta": 178278950
    },
    {
      "NoteNumber": 84,
      "Velocity": 126,
      "Duration": 195902,
      "SoundDuration": 195902,
      "Delta": 178278950
    },
    {
      "NoteNumber": 43,
      "Velocity": 126,
      "Duration": 232582,
      "SoundDuration": 232582,
      "Delta": 178524852
    },
    {
      "NoteNumber": 77,
      "Velocity": 126,
      "Duration": 232582,
      "SoundDuration": 232582,
      "Delta": 178524852
    },
    {
      "NoteNumber": 84,
      "Velocity": 126,
      "Duration": 195902,
      "SoundDuration": 195902,
      "Delta": 178524852
    },
    {
      "NoteNumber": 50,
      "Velocity": 126,
      "Duration": 232582,
      "SoundDuration": 232582,
      "Delta": 178770754
    },
    {
      "NoteNumber": 72,
      "Velocity": 126,
      "Duration": 232582,
      "SoundDuration": 232582,
      "Delta": 178770754
    },
    {
      "NoteNumber": 84,
      "Velocity": 126,
      "Duration": 195902,
      "SoundDuration": 195902,
      "Delta": 178770754
    },
    {
      "NoteNumber": 77,
      "Velocity": 126,
      "Duration": 195902,
      "SoundDuration": 195902,
      "Delta": 179016656
    },
    {
      "NoteNumber": 84,
      "Velocity": 126,
      "Duration": 232582,
      "SoundDuration": 232582,
      "Delta": 179016656
    },
    {
      "NoteNumber": 34,
      "Velocity": 126,
      "Duration": 232582,
      "SoundDuration": 232582,
      "Delta": 179016656
    },
    {
      "NoteNumber": 46,
      "Velocity": 126,
      "Duration": 232582,
      "SoundDuration": 232582,
      "Delta": 179262558
    },
    {
      "NoteNumber": 77,
      "Velocity": 126,
      "Duration": 232582,
      "SoundDuration": 232582,
      "Delta": 179262558
    },
    {
      "NoteNumber": 81,
      "Velocity": 126,
      "Duration": 195902,
      "SoundDuration": 195902,
      "Delta": 179262558
    },
    {
      "NoteNumber": 53,
      "Velocity": 126,
      "Duration": 232582,
      "SoundDuration": 232582,
      "Delta": 179508460
    },
    {
      "NoteNumber": 72,
      "Velocity": 126,
      "Duration": 195902,
      "SoundDuration": 195902,
      "Delta": 179508460
    },
    {
      "NoteNumber": 81,
      "Velocity": 126,
      "Duration": 232582,
      "SoundDuration": 232582,
      "Delta": 179508460
    },
    {
      "NoteNumber": 58,
      "Velocity": 126,
      "Duration": 232582,
      "SoundDuration": 232582,
      "Delta": 179508460
    },
    {
      "NoteNumber": 46,
      "Velocity": 126,
      "Duration": 195902,
      "SoundDuration": 195902,
      "Delta": 179754362
    },
    {
      "NoteNumber": 72,
      "Velocity": 126,
      "Duration": 195902,
      "SoundDuration": 195902,
      "Delta": 179754362
    },
    {
      "NoteNumber": 46,
      "Velocity": 126,
      "Duration": 195902,
      "SoundDuration": 195902,
      "Delta": 180000264
    },
    {
      "NoteNumber": 72,
      "Velocity": 126,
      "Duration": 232582,
      "SoundDuration": 232582,
      "Delta": 180000264
    },
    {
      "NoteNumber": 79,
      "Velocity": 126,
      "Duration": 232582,
      "SoundDuration": 232582,
      "Delta": 180000264
    },
    {
      "NoteNumber": 34,
      "Velocity": 126,
      "Duration": 232582,
      "SoundDuration": 232582,
      "Delta": 180000264
    },
    {
      "NoteNumber": 76,
      "Velocity": 126,
      "Duration": 195902,
      "SoundDuration": 195902,
      "Delta": 180000264
    },
    {
      "NoteNumber": 46,
      "Velocity": 126,
      "Duration": 232582,
      "SoundDuration": 232582,
      "Delta": 180246166
    },
    {
      "NoteNumber": 76,
      "Velocity": 126,
      "Duration": 232582,
      "SoundDuration": 232582,
      "Delta": 180246166
    },
    {
      "NoteNumber": 53,
      "Velocity": 126,
      "Duration": 232582,
      "SoundDuration": 232582,
      "Delta": 180492068
    },
    {
      "NoteNumber": 72,
      "Velocity": 126,
      "Duration": 195902,
      "SoundDuration": 195902,
      "Delta": 180492068
    },
    {
      "NoteNumber": 77,
      "Velocity": 126,
      "Duration": 232582,
      "SoundDuration": 232582,
      "Delta": 180492068
    },
    {
      "NoteNumber": 81,
      "Velocity": 126,
      "Duration": 232582,
      "SoundDuration": 232582,
      "Delta": 180492068
    },
    {
      "NoteNumber": 58,
      "Velocity": 126,
      "Duration": 232582,
      "SoundDuration": 232582,
      "Delta": 180492068
    },
    {
      "NoteNumber": 46,
      "Velocity": 126,
      "Duration": 232582,
      "SoundDuration": 232582,
      "Delta": 180737970
    },
    {
      "NoteNumber": 72,
      "Velocity": 126,
      "Duration": 195902,
      "SoundDuration": 195902,
      "Delta": 180737970
    },
    {
      "NoteNumber": 69,
      "Velocity": 126,
      "Duration": 232582,
      "SoundDuration": 232582,
      "Delta": 180983872
    },
    {
      "NoteNumber": 72,
      "Velocity": 126,
      "Duration": 195902,
      "SoundDuration": 195902,
      "Delta": 180983872
    },
    {
      "NoteNumber": 77,
      "Velocity": 126,
      "Duration": 232582,
      "SoundDuration": 232582,
      "Delta": 180983872
    },
    {
      "NoteNumber": 41,
      "Velocity": 126,
      "Duration": 195902,
      "SoundDuration": 195902,
      "Delta": 180983872
    },
    {
      "NoteNumber": 29,
      "Velocity": 126,
      "Duration": 232582,
      "SoundDuration": 232582,
      "Delta": 180983872
    },
    {
      "NoteNumber": 72,
      "Velocity": 126,
      "Duration": 232582,
      "SoundDuration": 232582,
      "Delta": 181229774
    },
    {
      "NoteNumber": 41,
      "Velocity": 126,
      "Duration": 232582,
      "SoundDuration": 232582,
      "Delta": 181229774
    },
    {
      "NoteNumber": 53,
      "Velocity": 126,
      "Duration": 232582,
      "SoundDuration": 232582,
      "Delta": 181475676
    },
    {
      "NoteNumber": 48,
      "Velocity": 126,
      "Duration": 232582,
      "SoundDuration": 232582,
      "Delta": 181475676
    },
    {
      "NoteNumber": 77,
      "Velocity": 126,
      "Duration": 232582,
      "SoundDuration": 232582,
      "Delta": 181475676
    },
    {
      "NoteNumber": 69,
      "Velocity": 126,
      "Duration": 195902,
      "SoundDuration": 195902,
      "Delta": 181721578
    },
    {
      "NoteNumber": 41,
      "Velocity": 126,
      "Duration": 232582,
      "SoundDuration": 232582,
      "Delta": 181721578
    },
    {
      "NoteNumber": 69,
      "Velocity": 126,
      "Duration": 195902,
      "SoundDuration": 195902,
      "Delta": 181967480
    },
    {
      "NoteNumber": 48,
      "Velocity": 126,
      "Duration": 232582,
      "SoundDuration": 232582,
      "Delta": 181967480
    },
    {
      "NoteNumber": 72,
      "Velocity": 126,
      "Duration": 232582,
      "SoundDuration": 232582,
      "Delta": 181967480
    },
    {
      "NoteNumber": 69,
      "Velocity": 126,
      "Duration": 232582,
      "SoundDuration": 232582,
      "Delta": 182213382
    },
    {
      "NoteNumber": 41,
      "Velocity": 126,
      "Duration": 232582,
      "SoundDuration": 232582,
      "Delta": 182213382
    },
    {
      "NoteNumber": 53,
      "Velocity": 126,
      "Duration": 232582,
      "SoundDuration": 232582,
      "Delta": 182459284
    },
    {
      "NoteNumber": 48,
      "Velocity": 126,
      "Duration": 232582,
      "SoundDuration": 232582,
      "Delta": 182459284
    },
    {
      "NoteNumber": 72,
      "Velocity": 126,
      "Duration": 195902,
      "SoundDuration": 195902,
      "Delta": 182459284
    },
    {
      "NoteNumber": 77,
      "Velocity": 126,
      "Duration": 195902,
      "SoundDuration": 195902,
      "Delta": 182459284
    },
    {
      "NoteNumber": 84,
      "Velocity": 126,
      "Duration": 195902,
      "SoundDuration": 195902,
      "Delta": 182459284
    },
    {
      "NoteNumber": 72,
      "Velocity": 126,
      "Duration": 232582,
      "SoundDuration": 232582,
      "Delta": 182705186
    },
    {
      "NoteNumber": 77,
      "Velocity": 126,
      "Duration": 232582,
      "SoundDuration": 232582,
      "Delta": 182705186
    },
    {
      "NoteNumber": 84,
      "Velocity": 126,
      "Duration": 195902,
      "SoundDuration": 195902,
      "Delta": 182705186
    },
    {
      "NoteNumber": 41,
      "Velocity": 126,
      "Duration": 232582,
      "SoundDuration": 232582,
      "Delta": 182705186
    },
    {
      "NoteNumber": 84,
      "Velocity": 126,
      "Duration": 232582,
      "SoundDuration": 232582,
      "Delta": 182951088
    },
    {
      "NoteNumber": 76,
      "Velocity": 126,
      "Duration": 232582,
      "SoundDuration": 232582,
      "Delta": 182951088
    },
    {
      "NoteNumber": 36,
      "Velocity": 126,
      "Duration": 195902,
      "SoundDuration": 195902,
      "Delta": 182951088
    },
    {
      "NoteNumber": 24,
      "Velocity": 126,
      "Duration": 232582,
      "SoundDuration": 232582,
      "Delta": 182951088
    },
    {
      "NoteNumber": 77,
      "Velocity": 126,
      "Duration": 232582,
      "SoundDuration": 232582,
      "Delta": 183196990
    },
    {
      "NoteNumber": 36,
      "Velocity": 126,
      "Duration": 195902,
      "SoundDuration": 195902,
      "Delta": 183196990
    },
    {
      "NoteNumber": 48,
      "Velocity": 126,
      "Duration": 232582,
      "SoundDuration": 232582,
      "Delta": 183442892
    },
    {
      "NoteNumber": 43,
      "Velocity": 126,
      "Duration": 195902,
      "SoundDuration": 195902,
      "Delta": 183442892
    },
    {
      "NoteNumber": 79,
      "Velocity": 126,
      "Duration": 232582,
      "SoundDuration": 232582,
      "Delta": 183442892
    },
    {
      "NoteNumber": 74,
      "Velocity": 126,
      "Duration": 232582,
      "SoundDuration": 232582,
      "Delta": 183442892
    },
    {
      "NoteNumber": 36,
      "Velocity": 126,
      "Duration": 232582,
      "SoundDuration": 232582,
      "Delta": 183442892
    },
    {
      "NoteNumber": 43,
      "Velocity": 126,
      "Duration": 232582,
      "SoundDuration": 232582,
      "Delta": 183688794
    },
    {
      "NoteNumber": 76,
      "Velocity": 126,
      "Duration": 232582,
      "SoundDuration": 232582,
      "Delta": 183688794
    },
    {
      "NoteNumber": 48,
      "Velocity": 126,
      "Duration": 195902,
      "SoundDuration": 195902,
      "Delta": 183934696
    },
    {
      "NoteNumber": 77,
      "Velocity": 126,
      "Duration": 232582,
      "SoundDuration": 232582,
      "Delta": 183934696
    },
    {
      "NoteNumber": 48,
      "Velocity": 126,
      "Duration": 232582,
      "SoundDuration": 232582,
      "Delta": 184180598
    },
    {
      "NoteNumber": 76,
      "Velocity": 126,
      "Duration": 232582,
      "SoundDuration": 232582,
      "Delta": 184180598
    },
    {
      "NoteNumber": 55,
      "Velocity": 126,
      "Duration": 232582,
      "SoundDuration": 232582,
      "Delta": 184426500
    },
    {
      "NoteNumber": 60,
      "Velocity": 126,
      "Duration": 232582,
      "SoundDuration": 232582,
      "Delta": 184426500
    },
    {
      "NoteNumber": 77,
      "Velocity": 126,
      "Duration": 232582,
      "SoundDuration": 232582,
      "Delta": 184426500
    },
    {
      "NoteNumber": 48,
      "Velocity": 126,
      "Duration": 232582,
      "SoundDuration": 232582,
      "Delta": 184672402
    },
    {
      "NoteNumber": 76,
      "Velocity": 126,
      "Duration": 232582,
      "SoundDuration": 232582,
      "Delta": 184672402
    },
    {
      "NoteNumber": 70,
      "Velocity": 126,
      "Duration": 195902,
      "SoundDuration": 195902,
      "Delta": 184918304
    },
    {
      "NoteNumber": 55,
      "Velocity": 126,
      "Duration": 232582,
      "SoundDuration": 232582,
      "Delta": 184918304
    },
    {
      "NoteNumber": 43,
      "Velocity": 126,
      "Duration": 195902,
      "SoundDuration": 195902,
      "Delta": 184918304
    },
    {
      "NoteNumber": 79,
      "Velocity": 126,
      "Duration": 232582,
      "SoundDuration": 232582,
      "Delta": 184918304
    },
    {
      "NoteNumber": 74,
      "Velocity": 126,
      "Duration": 232582,
      "SoundDuration": 232582,
      "Delta": 184918304
    },
    {
      "NoteNumber": 70,
      "Velocity": 126,
      "Duration": 232582,
      "SoundDuration": 232582,
      "Delta": 185164206
    },
    {
      "NoteNumber": 43,
      "Velocity": 126,
      "Duration": 232582,
      "SoundDuration": 232582,
      "Delta": 185164206
    },
    {
      "NoteNumber": 74,
      "Velocity": 126,
      "Duration": 232582,
      "SoundDuration": 232582,
      "Delta": 185410108
    },
    {
      "NoteNumber": 31,
      "Velocity": 126,
      "Duration": 232582,
      "SoundDuration": 232582,
      "Delta": 185410108
    },
    {
      "NoteNumber": 70,
      "Velocity": 126,
      "Duration": 232582,
      "SoundDuration": 232582,
      "Delta": 185656010
    },
    {
      "NoteNumber": 43,
      "Velocity": 126,
      "Duration": 232582,
      "SoundDuration": 232582,
      "Delta": 185656010
    },
    {
      "NoteNumber": 50,
      "Velocity": 126,
      "Duration": 195902,
      "SoundDuration": 195902,
      "Delta": 185901912
    },
    {
      "NoteNumber": 55,
      "Velocity": 126,
      "Duration": 232582,
      "SoundDuration": 232582,
      "Delta": 185901912
    },
    {
      "NoteNumber": 74,
      "Velocity": 126,
      "Duration": 232582,
      "SoundDuration": 232582,
      "Delta": 185901912
    },
    {
      "NoteNumber": 50,
      "Velocity": 126,
      "Duration": 232582,
      "SoundDuration": 232582,
      "Delta": 186147814
    },
    {
      "NoteNumber": 72,
      "Velocity": 126,
      "Duration": 232582,
      "SoundDuration": 232582,
      "Delta": 186147814
    },
    {
      "NoteNumber": 84,
      "Velocity": 126,
      "Duration": 195902,
      "SoundDuration": 195902,
      "Delta": 186147814
    },
    {
      "NoteNumber": 43,
      "Velocity": 126,
      "Duration": 232582,
      "SoundDuration": 232582,
      "Delta": 186393716
    },
    {
      "NoteNumber": 77,
      "Velocity": 126,
      "Duration": 232582,
      "SoundDuration": 232582,
      "Delta": 186393716
    },
    {
      "NoteNumber": 84,
      "Velocity": 126,
      "Duration": 195902,
      "SoundDuration": 195902,
      "Delta": 186393716
    },
    {
      "NoteNumber": 50,
      "Velocity": 126,
      "Duration": 232582,
      "SoundDuration": 232582,
      "Delta": 186639618
    },
    {
      "NoteNumber": 72,
      "Velocity": 126,
      "Duration": 232582,
      "SoundDuration": 232582,
      "Delta": 186639618
    },
    {
      "NoteNumber": 84,
      "Velocity": 126,
      "Duration": 195902,
      "SoundDuration": 195902,
      "Delta": 186639618
    },
    {
      "NoteNumber": 77,
      "Velocity": 126,
      "Duration": 195902,
      "SoundDuration": 195902,
      "Delta": 186885520
    },
    {
      "NoteNumber": 84,
      "Velocity": 126,
      "Duration": 232582,
      "SoundDuration": 232582,
      "Delta": 186885520
    },
    {
      "NoteNumber": 34,
      "Velocity": 126,
      "Duration": 232582,
      "SoundDuration": 232582,
      "Delta": 186885520
    },
    {
      "NoteNumber": 46,
      "Velocity": 126,
      "Duration": 232582,
      "SoundDuration": 232582,
      "Delta": 187131422
    },
    {
      "NoteNumber": 77,
      "Velocity": 126,
      "Duration": 232582,
      "SoundDuration": 232582,
      "Delta": 187131422
    },
    {
      "NoteNumber": 81,
      "Velocity": 126,
      "Duration": 195902,
      "SoundDuration": 195902,
      "Delta": 187131422
    },
    {
      "NoteNumber": 53,
      "Velocity": 126,
      "Duration": 232582,
      "SoundDuration": 232582,
      "Delta": 187377324
    },
    {
      "NoteNumber": 72,
      "Velocity": 126,
      "Duration": 195902,
      "SoundDuration": 195902,
      "Delta": 187377324
    },
    {
      "NoteNumber": 81,
      "Velocity": 126,
      "Duration": 232582,
      "SoundDuration": 232582,
      "Delta": 187377324
    },
    {
      "NoteNumber": 58,
      "Velocity": 126,
      "Duration": 232582,
      "SoundDuration": 232582,
      "Delta": 187377324
    },
    {
      "NoteNumber": 46,
      "Velocity": 126,
      "Duration": 195902,
      "SoundDuration": 195902,
      "Delta": 187623226
    },
    {
      "NoteNumber": 72,
      "Velocity": 126,
      "Duration": 195902,
      "SoundDuration": 195902,
      "Delta": 187623226
    },
    {
      "NoteNumber": 46,
      "Velocity": 126,
      "Duration": 195902,
      "SoundDuration": 195902,
      "Delta": 187869128
    },
    {
      "NoteNumber": 72,
      "Velocity": 126,
      "Duration": 232582,
      "SoundDuration": 232582,
      "Delta": 187869128
    },
    {
      "NoteNumber": 79,
      "Velocity": 126,
      "Duration": 232582,
      "SoundDuration": 232582,
      "Delta": 187869128
    },
    {
      "NoteNumber": 34,
      "Velocity": 126,
      "Duration": 232582,
      "SoundDuration": 232582,
      "Delta": 187869128
    },
    {
      "NoteNumber": 76,
      "Velocity": 126,
      "Duration": 195902,
      "SoundDuration": 195902,
      "Delta": 187869128
    },
    {
      "NoteNumber": 46,
      "Velocity": 126,
      "Duration": 232582,
      "SoundDuration": 232582,
      "Delta": 188115030
    },
    {
      "NoteNumber": 76,
      "Velocity": 126,
      "Duration": 232582,
      "SoundDuration": 232582,
      "Delta": 188115030
    },
    {
      "NoteNumber": 53,
      "Velocity": 126,
      "Duration": 232582,
      "SoundDuration": 232582,
      "Delta": 188360932
    },
    {
      "NoteNumber": 72,
      "Velocity": 126,
      "Duration": 195902,
      "SoundDuration": 195902,
      "Delta": 188360932
    },
    {
      "NoteNumber": 77,
      "Velocity": 126,
      "Duration": 232582,
      "SoundDuration": 232582,
      "Delta": 188360932
    },
    {
      "NoteNumber": 81,
      "Velocity": 126,
      "Duration": 232582,
      "SoundDuration": 232582,
      "Delta": 188360932
    },
    {
      "NoteNumber": 58,
      "Velocity": 126,
      "Duration": 232582,
      "SoundDuration": 232582,
      "Delta": 188360932
    },
    {
      "NoteNumber": 46,
      "Velocity": 126,
      "Duration": 232582,
      "SoundDuration": 232582,
      "Delta": 188606834
    },
    {
      "NoteNumber": 72,
      "Velocity": 126,
      "Duration": 232582,
      "SoundDuration": 232582,
      "Delta": 188606834
    },
    {
      "NoteNumber": 67,
      "Velocity": 126,
      "Duration": 232582,
      "SoundDuration": 232582,
      "Delta": 188852736
    },
    {
      "NoteNumber": 79,
      "Velocity": 126,
      "Duration": 232582,
      "SoundDuration": 232582,
      "Delta": 188852736
    },
    {
      "NoteNumber": 41,
      "Velocity": 126,
      "Duration": 195902,
      "SoundDuration": 195902,
      "Delta": 188852736
    },
    {
      "NoteNumber": 29,
      "Velocity": 126,
      "Duration": 232582,
      "SoundDuration": 232582,
      "Delta": 188852736
    },
    {
      "NoteNumber": 69,
      "Velocity": 126,
      "Duration": 195902,
      "SoundDuration": 195902,
      "Delta": 189098638
    },
    {
      "NoteNumber": 81,
      "Velocity": 126,
      "Duration": 232582,
      "SoundDuration": 232582,
      "Delta": 189098638
    },
    {
      "NoteNumber": 41,
      "Velocity": 126,
      "Duration": 232582,
      "SoundDuration": 232582,
      "Delta": 189098638
    },
    {
      "NoteNumber": 53,
      "Velocity": 126,
      "Duration": 232582,
      "SoundDuration": 232582,
      "Delta": 189344540
    },
    {
      "NoteNumber": 69,
      "Velocity": 126,
      "Duration": 195902,
      "SoundDuration": 195902,
      "Delta": 189344540
    },
    {
      "NoteNumber": 48,
      "Velocity": 126,
      "Duration": 232582,
      "SoundDuration": 232582,
      "Delta": 189344540
    },
    {
      "NoteNumber": 69,
      "Velocity": 126,
      "Duration": 195902,
      "SoundDuration": 195902,
      "Delta": 189590442
    },
    {
      "NoteNumber": 81,
      "Velocity": 126,
      "Duration": 232582,
      "SoundDuration": 232582,
      "Delta": 189590442
    },
    {
      "NoteNumber": 41,
      "Velocity": 126,
      "Duration": 232582,
      "SoundDuration": 232582,
      "Delta": 189590442
    },
    {
      "NoteNumber": 69,
      "Velocity": 126,
      "Duration": 195902,
      "SoundDuration": 195902,
      "Delta": 189836344
    },
    {
      "NoteNumber": 48,
      "Velocity": 126,
      "Duration": 232582,
      "SoundDuration": 232582,
      "Delta": 189836344
    },
    {
      "NoteNumber": 72,
      "Velocity": 126,
      "Duration": 232582,
      "SoundDuration": 232582,
      "Delta": 189836344
    },
    {
      "NoteNumber": 69,
      "Velocity": 126,
      "Duration": 232582,
      "SoundDuration": 232582,
      "Delta": 190082246
    },
    {
      "NoteNumber": 41,
      "Velocity": 126,
      "Duration": 232582,
      "SoundDuration": 232582,
      "Delta": 190082246
    },
    {
      "NoteNumber": 53,
      "Velocity": 126,
      "Duration": 232582,
      "SoundDuration": 232582,
      "Delta": 190328148
    },
    {
      "NoteNumber": 48,
      "Velocity": 126,
      "Duration": 232582,
      "SoundDuration": 232582,
      "Delta": 190328148
    },
    {
      "NoteNumber": 72,
      "Velocity": 126,
      "Duration": 195902,
      "SoundDuration": 195902,
      "Delta": 190328148
    },
    {
      "NoteNumber": 77,
      "Velocity": 126,
      "Duration": 195902,
      "SoundDuration": 195902,
      "Delta": 190328148
    },
    {
      "NoteNumber": 84,
      "Velocity": 126,
      "Duration": 195902,
      "SoundDuration": 195902,
      "Delta": 190328148
    },
    {
      "NoteNumber": 72,
      "Velocity": 126,
      "Duration": 232582,
      "SoundDuration": 232582,
      "Delta": 190574050
    },
    {
      "NoteNumber": 77,
      "Velocity": 126,
      "Duration": 232582,
      "SoundDuration": 232582,
      "Delta": 190574050
    },
    {
      "NoteNumber": 84,
      "Velocity": 126,
      "Duration": 195902,
      "SoundDuration": 195902,
      "Delta": 190574050
    },
    {
      "NoteNumber": 41,
      "Velocity": 126,
      "Duration": 232582,
      "SoundDuration": 232582,
      "Delta": 190574050
    },
    {
      "NoteNumber": 84,
      "Velocity": 126,
      "Duration": 232582,
      "SoundDuration": 232582,
      "Delta": 190819952
    },
    {
      "NoteNumber": 76,
      "Velocity": 126,
      "Duration": 232582,
      "SoundDuration": 232582,
      "Delta": 190819952
    },
    {
      "NoteNumber": 36,
      "Velocity": 126,
      "Duration": 195902,
      "SoundDuration": 195902,
      "Delta": 190819952
    },
    {
      "NoteNumber": 24,
      "Velocity": 126,
      "Duration": 232582,
      "SoundDuration": 232582,
      "Delta": 190819952
    },
    {
      "NoteNumber": 77,
      "Velocity": 126,
      "Duration": 232582,
      "SoundDuration": 232582,
      "Delta": 191065854
    },
    {
      "NoteNumber": 36,
      "Velocity": 126,
      "Duration": 195902,
      "SoundDuration": 195902,
      "Delta": 191065854
    },
    {
      "NoteNumber": 48,
      "Velocity": 126,
      "Duration": 232582,
      "SoundDuration": 232582,
      "Delta": 191311756
    },
    {
      "NoteNumber": 43,
      "Velocity": 126,
      "Duration": 195902,
      "SoundDuration": 195902,
      "Delta": 191311756
    },
    {
      "NoteNumber": 79,
      "Velocity": 126,
      "Duration": 232582,
      "SoundDuration": 232582,
      "Delta": 191311756
    },
    {
      "NoteNumber": 74,
      "Velocity": 126,
      "Duration": 232582,
      "SoundDuration": 232582,
      "Delta": 191311756
    },
    {
      "NoteNumber": 36,
      "Velocity": 126,
      "Duration": 232582,
      "SoundDuration": 232582,
      "Delta": 191311756
    },
    {
      "NoteNumber": 43,
      "Velocity": 126,
      "Duration": 232582,
      "SoundDuration": 232582,
      "Delta": 191557658
    },
    {
      "NoteNumber": 76,
      "Velocity": 126,
      "Duration": 232582,
      "SoundDuration": 232582,
      "Delta": 191557658
    },
    {
      "NoteNumber": 48,
      "Velocity": 126,
      "Duration": 195902,
      "SoundDuration": 195902,
      "Delta": 191803560
    },
    {
      "NoteNumber": 77,
      "Velocity": 126,
      "Duration": 232582,
      "SoundDuration": 232582,
      "Delta": 191803560
    },
    {
      "NoteNumber": 48,
      "Velocity": 126,
      "Duration": 232582,
      "SoundDuration": 232582,
      "Delta": 192049462
    },
    {
      "NoteNumber": 76,
      "Velocity": 126,
      "Duration": 232582,
      "SoundDuration": 232582,
      "Delta": 192049462
    },
    {
      "NoteNumber": 55,
      "Velocity": 126,
      "Duration": 232582,
      "SoundDuration": 232582,
      "Delta": 192295364
    },
    {
      "NoteNumber": 60,
      "Velocity": 126,
      "Duration": 232582,
      "SoundDuration": 232582,
      "Delta": 192295364
    },
    {
      "NoteNumber": 77,
      "Velocity": 126,
      "Duration": 232582,
      "SoundDuration": 232582,
      "Delta": 192295364
    },
    {
      "NoteNumber": 48,
      "Velocity": 126,
      "Duration": 232582,
      "SoundDuration": 232582,
      "Delta": 192541266
    },
    {
      "NoteNumber": 76,
      "Velocity": 126,
      "Duration": 232582,
      "SoundDuration": 232582,
      "Delta": 192541266
    },
    {
      "NoteNumber": 70,
      "Velocity": 126,
      "Duration": 195902,
      "SoundDuration": 195902,
      "Delta": 192787168
    },
    {
      "NoteNumber": 55,
      "Velocity": 126,
      "Duration": 232582,
      "SoundDuration": 232582,
      "Delta": 192787168
    },
    {
      "NoteNumber": 43,
      "Velocity": 126,
      "Duration": 195902,
      "SoundDuration": 195902,
      "Delta": 192787168
    },
    {
      "NoteNumber": 79,
      "Velocity": 126,
      "Duration": 232582,
      "SoundDuration": 232582,
      "Delta": 192787168
    },
    {
      "NoteNumber": 70,
      "Velocity": 126,
      "Duration": 232582,
      "SoundDuration": 232582,
      "Delta": 193033070
    },
    {
      "NoteNumber": 43,
      "Velocity": 126,
      "Duration": 232582,
      "SoundDuration": 232582,
      "Delta": 193033070
    },
    {
      "NoteNumber": 72,
      "Velocity": 126,
      "Duration": 232582,
      "SoundDuration": 232582,
      "Delta": 193278972
    },
    {
      "NoteNumber": 77,
      "Velocity": 126,
      "Duration": 232582,
      "SoundDuration": 232582,
      "Delta": 193278972
    },
    {
      "NoteNumber": 31,
      "Velocity": 126,
      "Duration": 232582,
      "SoundDuration": 232582,
      "Delta": 193278972
    },
    {
      "NoteNumber": 43,
      "Velocity": 126,
      "Duration": 232582,
      "SoundDuration": 232582,
      "Delta": 193524874
    },
    {
      "NoteNumber": 74,
      "Velocity": 126,
      "Duration": 232582,
      "SoundDuration": 232582,
      "Delta": 193524874
    },
    {
      "NoteNumber": 50,
      "Velocity": 126,
      "Duration": 195902,
      "SoundDuration": 195902,
      "Delta": 193770776
    },
    {
      "NoteNumber": 70,
      "Velocity": 126,
      "Duration": 232582,
      "SoundDuration": 232582,
      "Delta": 193770776
    },
    {
      "NoteNumber": 55,
      "Velocity": 126,
      "Duration": 232582,
      "SoundDuration": 232582,
      "Delta": 193770776
    },
    {
      "NoteNumber": 50,
      "Velocity": 126,
      "Duration": 232582,
      "SoundDuration": 232582,
      "Delta": 194016678
    },
    {
      "NoteNumber": 72,
      "Velocity": 126,
      "Duration": 232582,
      "SoundDuration": 232582,
      "Delta": 194016678
    },
    {
      "NoteNumber": 84,
      "Velocity": 126,
      "Duration": 195902,
      "SoundDuration": 195902,
      "Delta": 194016678
    },
    {
      "NoteNumber": 43,
      "Velocity": 126,
      "Duration": 232582,
      "SoundDuration": 232582,
      "Delta": 194262580
    },
    {
      "NoteNumber": 77,
      "Velocity": 126,
      "Duration": 232582,
      "SoundDuration": 232582,
      "Delta": 194262580
    },
    {
      "NoteNumber": 84,
      "Velocity": 126,
      "Duration": 195902,
      "SoundDuration": 195902,
      "Delta": 194262580
    },
    {
      "NoteNumber": 50,
      "Velocity": 126,
      "Duration": 232582,
      "SoundDuration": 232582,
      "Delta": 194508482
    },
    {
      "NoteNumber": 72,
      "Velocity": 126,
      "Duration": 232582,
      "SoundDuration": 232582,
      "Delta": 194508482
    },
    {
      "NoteNumber": 84,
      "Velocity": 126,
      "Duration": 195902,
      "SoundDuration": 195902,
      "Delta": 194508482
    },
    {
      "NoteNumber": 77,
      "Velocity": 126,
      "Duration": 195902,
      "SoundDuration": 195902,
      "Delta": 194754384
    },
    {
      "NoteNumber": 84,
      "Velocity": 126,
      "Duration": 232582,
      "SoundDuration": 232582,
      "Delta": 194754384
    },
    {
      "NoteNumber": 34,
      "Velocity": 126,
      "Duration": 232582,
      "SoundDuration": 232582,
      "Delta": 194754384
    },
    {
      "NoteNumber": 46,
      "Velocity": 126,
      "Duration": 232582,
      "SoundDuration": 232582,
      "Delta": 195000286
    },
    {
      "NoteNumber": 77,
      "Velocity": 126,
      "Duration": 232582,
      "SoundDuration": 232582,
      "Delta": 195000286
    },
    {
      "NoteNumber": 81,
      "Velocity": 126,
      "Duration": 195902,
      "SoundDuration": 195902,
      "Delta": 195000286
    },
    {
      "NoteNumber": 53,
      "Velocity": 126,
      "Duration": 232582,
      "SoundDuration": 232582,
      "Delta": 195246188
    },
    {
      "NoteNumber": 72,
      "Velocity": 126,
      "Duration": 195902,
      "SoundDuration": 195902,
      "Delta": 195246188
    },
    {
      "NoteNumber": 81,
      "Velocity": 126,
      "Duration": 232582,
      "SoundDuration": 232582,
      "Delta": 195246188
    },
    {
      "NoteNumber": 58,
      "Velocity": 126,
      "Duration": 232582,
      "SoundDuration": 232582,
      "Delta": 195246188
    },
    {
      "NoteNumber": 46,
      "Velocity": 126,
      "Duration": 195902,
      "SoundDuration": 195902,
      "Delta": 195492090
    },
    {
      "NoteNumber": 72,
      "Velocity": 126,
      "Duration": 195902,
      "SoundDuration": 195902,
      "Delta": 195492090
    },
    {
      "NoteNumber": 46,
      "Velocity": 126,
      "Duration": 195902,
      "SoundDuration": 195902,
      "Delta": 195737992
    },
    {
      "NoteNumber": 72,
      "Velocity": 126,
      "Duration": 232582,
      "SoundDuration": 232582,
      "Delta": 195737992
    },
    {
      "NoteNumber": 79,
      "Velocity": 126,
      "Duration": 232582,
      "SoundDuration": 232582,
      "Delta": 195737992
    },
    {
      "NoteNumber": 34,
      "Velocity": 126,
      "Duration": 232582,
      "SoundDuration": 232582,
      "Delta": 195737992
    },
    {
      "NoteNumber": 76,
      "Velocity": 126,
      "Duration": 195902,
      "SoundDuration": 195902,
      "Delta": 195737992
    },
    {
      "NoteNumber": 46,
      "Velocity": 126,
      "Duration": 232582,
      "SoundDuration": 232582,
      "Delta": 195983894
    },
    {
      "NoteNumber": 76,
      "Velocity": 126,
      "Duration": 232582,
      "SoundDuration": 232582,
      "Delta": 195983894
    },
    {
      "NoteNumber": 53,
      "Velocity": 126,
      "Duration": 232582,
      "SoundDuration": 232582,
      "Delta": 196229796
    },
    {
      "NoteNumber": 72,
      "Velocity": 126,
      "Duration": 195902,
      "SoundDuration": 195902,
      "Delta": 196229796
    },
    {
      "NoteNumber": 77,
      "Velocity": 126,
      "Duration": 232582,
      "SoundDuration": 232582,
      "Delta": 196229796
    },
    {
      "NoteNumber": 81,
      "Velocity": 126,
      "Duration": 232582,
      "SoundDuration": 232582,
      "Delta": 196229796
    },
    {
      "NoteNumber": 58,
      "Velocity": 126,
      "Duration": 232582,
      "SoundDuration": 232582,
      "Delta": 196229796
    },
    {
      "NoteNumber": 46,
      "Velocity": 126,
      "Duration": 232582,
      "SoundDuration": 232582,
      "Delta": 196475698
    },
    {
      "NoteNumber": 72,
      "Velocity": 126,
      "Duration": 232582,
      "SoundDuration": 232582,
      "Delta": 196475698
    },
    {
      "NoteNumber": 67,
      "Velocity": 126,
      "Duration": 232582,
      "SoundDuration": 232582,
      "Delta": 196721600
    },
    {
      "NoteNumber": 79,
      "Velocity": 126,
      "Duration": 232582,
      "SoundDuration": 232582,
      "Delta": 196721600
    },
    {
      "NoteNumber": 41,
      "Velocity": 126,
      "Duration": 195902,
      "SoundDuration": 195902,
      "Delta": 196721600
    },
    {
      "NoteNumber": 29,
      "Velocity": 126,
      "Duration": 232582,
      "SoundDuration": 232582,
      "Delta": 196721600
    },
    {
      "NoteNumber": 72,
      "Velocity": 126,
      "Duration": 232582,
      "SoundDuration": 232582,
      "Delta": 196967502
    },
    {
      "NoteNumber": 41,
      "Velocity": 126,
      "Duration": 232582,
      "SoundDuration": 232582,
      "Delta": 196967502
    },
    {
      "NoteNumber": 53,
      "Velocity": 126,
      "Duration": 232582,
      "SoundDuration": 232582,
      "Delta": 197213404
    },
    {
      "NoteNumber": 69,
      "Velocity": 126,
      "Duration": 195902,
      "SoundDuration": 195902,
      "Delta": 197213404
    },
    {
      "NoteNumber": 48,
      "Velocity": 126,
      "Duration": 232582,
      "SoundDuration": 232582,
      "Delta": 197213404
    },
    {
      "NoteNumber": 81,
      "Velocity": 126,
      "Duration": 232582,
      "SoundDuration": 232582,
      "Delta": 197213404
    },
    {
      "NoteNumber": 69,
      "Velocity": 126,
      "Duration": 195902,
      "SoundDuration": 195902,
      "Delta": 197459306
    },
    {
      "NoteNumber": 41,
      "Velocity": 126,
      "Duration": 232582,
      "SoundDuration": 232582,
      "Delta": 197459306
    },
    {
      "NoteNumber": 69,
      "Velocity": 126,
      "Duration": 195902,
      "SoundDuration": 195902,
      "Delta": 197705208
    },
    {
      "NoteNumber": 48,
      "Velocity": 126,
      "Duration": 232582,
      "SoundDuration": 232582,
      "Delta": 197705208
    },
    {
      "NoteNumber": 72,
      "Velocity": 126,
      "Duration": 232582,
      "SoundDuration": 232582,
      "Delta": 197705208
    },
    {
      "NoteNumber": 69,
      "Velocity": 126,
      "Duration": 232582,
      "SoundDuration": 232582,
      "Delta": 197951110
    },
    {
      "NoteNumber": 41,
      "Velocity": 126,
      "Duration": 232582,
      "SoundDuration": 232582,
      "Delta": 197951110
    },
    {
      "NoteNumber": 53,
      "Velocity": 126,
      "Duration": 232582,
      "SoundDuration": 232582,
      "Delta": 198197012
    },
    {
      "NoteNumber": 48,
      "Velocity": 126,
      "Duration": 232582,
      "SoundDuration": 232582,
      "Delta": 198197012
    },
    {
      "NoteNumber": 72,
      "Velocity": 126,
      "Duration": 195902,
      "SoundDuration": 195902,
      "Delta": 198197012
    },
    {
      "NoteNumber": 77,
      "Velocity": 126,
      "Duration": 195902,
      "SoundDuration": 195902,
      "Delta": 198197012
    },
    {
      "NoteNumber": 84,
      "Velocity": 126,
      "Duration": 195902,
      "SoundDuration": 195902,
      "Delta": 198197012
    },
    {
      "NoteNumber": 72,
      "Velocity": 126,
      "Duration": 232582,
      "SoundDuration": 232582,
      "Delta": 198442914
    },
    {
      "NoteNumber": 77,
      "Velocity": 126,
      "Duration": 232582,
      "SoundDuration": 232582,
      "Delta": 198442914
    },
    {
      "NoteNumber": 84,
      "Velocity": 126,
      "Duration": 195902,
      "SoundDuration": 195902,
      "Delta": 198442914
    },
    {
      "NoteNumber": 41,
      "Velocity": 126,
      "Duration": 232582,
      "SoundDuration": 232582,
      "Delta": 198442914
    },
    {
      "NoteNumber": 84,
      "Velocity": 126,
      "Duration": 232582,
      "SoundDuration": 232582,
      "Delta": 198688816
    },
    {
      "NoteNumber": 76,
      "Velocity": 126,
      "Duration": 232582,
      "SoundDuration": 232582,
      "Delta": 198688816
    },
    {
      "NoteNumber": 36,
      "Velocity": 126,
      "Duration": 195902,
      "SoundDuration": 195902,
      "Delta": 198688816
    },
    {
      "NoteNumber": 24,
      "Velocity": 126,
      "Duration": 232582,
      "SoundDuration": 232582,
      "Delta": 198688816
    },
    {
      "NoteNumber": 77,
      "Velocity": 126,
      "Duration": 232582,
      "SoundDuration": 232582,
      "Delta": 198934718
    },
    {
      "NoteNumber": 36,
      "Velocity": 126,
      "Duration": 195902,
      "SoundDuration": 195902,
      "Delta": 198934718
    },
    {
      "NoteNumber": 48,
      "Velocity": 126,
      "Duration": 232582,
      "SoundDuration": 232582,
      "Delta": 199180620
    },
    {
      "NoteNumber": 43,
      "Velocity": 126,
      "Duration": 195902,
      "SoundDuration": 195902,
      "Delta": 199180620
    },
    {
      "NoteNumber": 79,
      "Velocity": 126,
      "Duration": 232582,
      "SoundDuration": 232582,
      "Delta": 199180620
    },
    {
      "NoteNumber": 74,
      "Velocity": 126,
      "Duration": 232582,
      "SoundDuration": 232582,
      "Delta": 199180620
    },
    {
      "NoteNumber": 36,
      "Velocity": 126,
      "Duration": 232582,
      "SoundDuration": 232582,
      "Delta": 199180620
    },
    {
      "NoteNumber": 43,
      "Velocity": 126,
      "Duration": 232582,
      "SoundDuration": 232582,
      "Delta": 199426522
    },
    {
      "NoteNumber": 76,
      "Velocity": 126,
      "Duration": 232582,
      "SoundDuration": 232582,
      "Delta": 199426522
    },
    {
      "NoteNumber": 48,
      "Velocity": 126,
      "Duration": 195902,
      "SoundDuration": 195902,
      "Delta": 199672424
    },
    {
      "NoteNumber": 77,
      "Velocity": 126,
      "Duration": 232582,
      "SoundDuration": 232582,
      "Delta": 199672424
    },
    {
      "NoteNumber": 48,
      "Velocity": 126,
      "Duration": 232582,
      "SoundDuration": 232582,
      "Delta": 199918326
    },
    {
      "NoteNumber": 76,
      "Velocity": 126,
      "Duration": 232582,
      "SoundDuration": 232582,
      "Delta": 199918326
    },
    {
      "NoteNumber": 55,
      "Velocity": 126,
      "Duration": 232582,
      "SoundDuration": 232582,
      "Delta": 200164228
    },
    {
      "NoteNumber": 60,
      "Velocity": 126,
      "Duration": 232582,
      "SoundDuration": 232582,
      "Delta": 200164228
    },
    {
      "NoteNumber": 77,
      "Velocity": 126,
      "Duration": 232582,
      "SoundDuration": 232582,
      "Delta": 200164228
    },
    {
      "NoteNumber": 48,
      "Velocity": 126,
      "Duration": 232582,
      "SoundDuration": 232582,
      "Delta": 200410130
    },
    {
      "NoteNumber": 76,
      "Velocity": 126,
      "Duration": 232582,
      "SoundDuration": 232582,
      "Delta": 200410130
    },
    {
      "NoteNumber": 70,
      "Velocity": 126,
      "Duration": 195902,
      "SoundDuration": 195902,
      "Delta": 200656032
    },
    {
      "NoteNumber": 55,
      "Velocity": 126,
      "Duration": 232582,
      "SoundDuration": 232582,
      "Delta": 200656032
    },
    {
      "NoteNumber": 43,
      "Velocity": 126,
      "Duration": 195902,
      "SoundDuration": 195902,
      "Delta": 200656032
    },
    {
      "NoteNumber": 79,
      "Velocity": 126,
      "Duration": 232582,
      "SoundDuration": 232582,
      "Delta": 200656032
    },
    {
      "NoteNumber": 74,
      "Velocity": 126,
      "Duration": 232582,
      "SoundDuration": 232582,
      "Delta": 200656032
    },
    {
      "NoteNumber": 70,
      "Velocity": 126,
      "Duration": 232582,
      "SoundDuration": 232582,
      "Delta": 200901934
    },
    {
      "NoteNumber": 43,
      "Velocity": 126,
      "Duration": 232582,
      "SoundDuration": 232582,
      "Delta": 200901934
    },
    {
      "NoteNumber": 74,
      "Velocity": 126,
      "Duration": 232582,
      "SoundDuration": 232582,
      "Delta": 201147836
    },
    {
      "NoteNumber": 31,
      "Velocity": 126,
      "Duration": 232582,
      "SoundDuration": 232582,
      "Delta": 201147836
    },
    {
      "NoteNumber": 70,
      "Velocity": 126,
      "Duration": 232582,
      "SoundDuration": 232582,
      "Delta": 201393738
    },
    {
      "NoteNumber": 43,
      "Velocity": 126,
      "Duration": 232582,
      "SoundDuration": 232582,
      "Delta": 201393738
    },
    {
      "NoteNumber": 50,
      "Velocity": 126,
      "Duration": 195902,
      "SoundDuration": 195902,
      "Delta": 201639640
    },
    {
      "NoteNumber": 55,
      "Velocity": 126,
      "Duration": 232582,
      "SoundDuration": 232582,
      "Delta": 201639640
    },
    {
      "NoteNumber": 74,
      "Velocity": 126,
      "Duration": 232582,
      "SoundDuration": 232582,
      "Delta": 201639640
    },
    {
      "NoteNumber": 50,
      "Velocity": 126,
      "Duration": 232582,
      "SoundDuration": 232582,
      "Delta": 201885542
    },
    {
      "NoteNumber": 72,
      "Velocity": 126,
      "Duration": 232582,
      "SoundDuration": 232582,
      "Delta": 201885542
    },
    {
      "NoteNumber": 84,
      "Velocity": 126,
      "Duration": 195902,
      "SoundDuration": 195902,
      "Delta": 201885542
    },
    {
      "NoteNumber": 43,
      "Velocity": 126,
      "Duration": 232582,
      "SoundDuration": 232582,
      "Delta": 202131444
    },
    {
      "NoteNumber": 77,
      "Velocity": 126,
      "Duration": 232582,
      "SoundDuration": 232582,
      "Delta": 202131444
    },
    {
      "NoteNumber": 84,
      "Velocity": 126,
      "Duration": 195902,
      "SoundDuration": 195902,
      "Delta": 202131444
    },
    {
      "NoteNumber": 50,
      "Velocity": 126,
      "Duration": 232582,
      "SoundDuration": 232582,
      "Delta": 202377346
    },
    {
      "NoteNumber": 72,
      "Velocity": 126,
      "Duration": 232582,
      "SoundDuration": 232582,
      "Delta": 202377346
    },
    {
      "NoteNumber": 84,
      "Velocity": 126,
      "Duration": 195902,
      "SoundDuration": 195902,
      "Delta": 202377346
    },
    {
      "NoteNumber": 77,
      "Velocity": 126,
      "Duration": 195902,
      "SoundDuration": 195902,
      "Delta": 202623248
    },
    {
      "NoteNumber": 84,
      "Velocity": 126,
      "Duration": 232582,
      "SoundDuration": 232582,
      "Delta": 202623248
    },
    {
      "NoteNumber": 34,
      "Velocity": 126,
      "Duration": 232582,
      "SoundDuration": 232582,
      "Delta": 202623248
    },
    {
      "NoteNumber": 46,
      "Velocity": 126,
      "Duration": 232582,
      "SoundDuration": 232582,
      "Delta": 202869150
    },
    {
      "NoteNumber": 77,
      "Velocity": 126,
      "Duration": 232582,
      "SoundDuration": 232582,
      "Delta": 202869150
    },
    {
      "NoteNumber": 81,
      "Velocity": 126,
      "Duration": 195902,
      "SoundDuration": 195902,
      "Delta": 202869150
    },
    {
      "NoteNumber": 53,
      "Velocity": 126,
      "Duration": 232582,
      "SoundDuration": 232582,
      "Delta": 203115052
    },
    {
      "NoteNumber": 72,
      "Velocity": 126,
      "Duration": 195902,
      "SoundDuration": 195902,
      "Delta": 203115052
    },
    {
      "NoteNumber": 81,
      "Velocity": 126,
      "Duration": 232582,
      "SoundDuration": 232582,
      "Delta": 203115052
    },
    {
      "NoteNumber": 58,
      "Velocity": 126,
      "Duration": 232582,
      "SoundDuration": 232582,
      "Delta": 203115052
    },
    {
      "NoteNumber": 46,
      "Velocity": 126,
      "Duration": 195902,
      "SoundDuration": 195902,
      "Delta": 203360954
    },
    {
      "NoteNumber": 72,
      "Velocity": 126,
      "Duration": 195902,
      "SoundDuration": 195902,
      "Delta": 203360954
    },
    {
      "NoteNumber": 46,
      "Velocity": 126,
      "Duration": 195902,
      "SoundDuration": 195902,
      "Delta": 203606856
    },
    {
      "NoteNumber": 72,
      "Velocity": 126,
      "Duration": 232582,
      "SoundDuration": 232582,
      "Delta": 203606856
    },
    {
      "NoteNumber": 79,
      "Velocity": 126,
      "Duration": 232582,
      "SoundDuration": 232582,
      "Delta": 203606856
    },
    {
      "NoteNumber": 34,
      "Velocity": 126,
      "Duration": 232582,
      "SoundDuration": 232582,
      "Delta": 203606856
    },
    {
      "NoteNumber": 76,
      "Velocity": 126,
      "Duration": 195902,
      "SoundDuration": 195902,
      "Delta": 203606856
    },
    {
      "NoteNumber": 46,
      "Velocity": 126,
      "Duration": 232582,
      "SoundDuration": 232582,
      "Delta": 203852758
    },
    {
      "NoteNumber": 76,
      "Velocity": 126,
      "Duration": 232582,
      "SoundDuration": 232582,
      "Delta": 203852758
    },
    {
      "NoteNumber": 53,
      "Velocity": 126,
      "Duration": 232582,
      "SoundDuration": 232582,
      "Delta": 204098660
    },
    {
      "NoteNumber": 72,
      "Velocity": 126,
      "Duration": 195902,
      "SoundDuration": 195902,
      "Delta": 204098660
    },
    {
      "NoteNumber": 77,
      "Velocity": 126,
      "Duration": 232582,
      "SoundDuration": 232582,
      "Delta": 204098660
    },
    {
      "NoteNumber": 81,
      "Velocity": 126,
      "Duration": 232582,
      "SoundDuration": 232582,
      "Delta": 204098660
    },
    {
      "NoteNumber": 58,
      "Velocity": 126,
      "Duration": 232582,
      "SoundDuration": 232582,
      "Delta": 204098660
    },
    {
      "NoteNumber": 46,
      "Velocity": 126,
      "Duration": 232582,
      "SoundDuration": 232582,
      "Delta": 204344562
    },
    {
      "NoteNumber": 72,
      "Velocity": 126,
      "Duration": 195902,
      "SoundDuration": 195902,
      "Delta": 204344562
    },
    {
      "NoteNumber": 69,
      "Velocity": 126,
      "Duration": 232582,
      "SoundDuration": 232582,
      "Delta": 204590464
    },
    {
      "NoteNumber": 72,
      "Velocity": 126,
      "Duration": 195902,
      "SoundDuration": 195902,
      "Delta": 204590464
    },
    {
      "NoteNumber": 77,
      "Velocity": 126,
      "Duration": 232582,
      "SoundDuration": 232582,
      "Delta": 204590464
    },
    {
      "NoteNumber": 41,
      "Velocity": 126,
      "Duration": 195902,
      "SoundDuration": 195902,
      "Delta": 204590464
    },
    {
      "NoteNumber": 29,
      "Velocity": 126,
      "Duration": 232582,
      "SoundDuration": 232582,
      "Delta": 204590464
    },
    {
      "NoteNumber": 72,
      "Velocity": 126,
      "Duration": 232582,
      "SoundDuration": 232582,
      "Delta": 204836366
    },
    {
      "NoteNumber": 41,
      "Velocity": 126,
      "Duration": 232582,
      "SoundDuration": 232582,
      "Delta": 204836366
    },
    {
      "NoteNumber": 53,
      "Velocity": 126,
      "Duration": 232582,
      "SoundDuration": 232582,
      "Delta": 205082268
    },
    {
      "NoteNumber": 48,
      "Velocity": 126,
      "Duration": 232582,
      "SoundDuration": 232582,
      "Delta": 205082268
    },
    {
      "NoteNumber": 77,
      "Velocity": 126,
      "Duration": 232582,
      "SoundDuration": 232582,
      "Delta": 205082268
    },
    {
      "NoteNumber": 69,
      "Velocity": 126,
      "Duration": 195902,
      "SoundDuration": 195902,
      "Delta": 205328170
    },
    {
      "NoteNumber": 41,
      "Velocity": 126,
      "Duration": 232582,
      "SoundDuration": 232582,
      "Delta": 205328170
    },
    {
      "NoteNumber": 69,
      "Velocity": 126,
      "Duration": 195902,
      "SoundDuration": 195902,
      "Delta": 205574072
    },
    {
      "NoteNumber": 48,
      "Velocity": 126,
      "Duration": 232582,
      "SoundDuration": 232582,
      "Delta": 205574072
    },
    {
      "NoteNumber": 72,
      "Velocity": 126,
      "Duration": 232582,
      "SoundDuration": 232582,
      "Delta": 205574072
    },
    {
      "NoteNumber": 69,
      "Velocity": 126,
      "Duration": 232582,
      "SoundDuration": 232582,
      "Delta": 205819974
    },
    {
      "NoteNumber": 41,
      "Velocity": 126,
      "Duration": 232582,
      "SoundDuration": 232582,
      "Delta": 205819974
    },
    {
      "NoteNumber": 53,
      "Velocity": 126,
      "Duration": 232582,
      "SoundDuration": 232582,
      "Delta": 206065876
    },
    {
      "NoteNumber": 48,
      "Velocity": 126,
      "Duration": 232582,
      "SoundDuration": 232582,
      "Delta": 206065876
    },
    {
      "NoteNumber": 72,
      "Velocity": 126,
      "Duration": 195902,
      "SoundDuration": 195902,
      "Delta": 206065876
    },
    {
      "NoteNumber": 77,
      "Velocity": 126,
      "Duration": 195902,
      "SoundDuration": 195902,
      "Delta": 206065876
    },
    {
      "NoteNumber": 84,
      "Velocity": 126,
      "Duration": 195902,
      "SoundDuration": 195902,
      "Delta": 206065876
    },
    {
      "NoteNumber": 72,
      "Velocity": 126,
      "Duration": 232582,
      "SoundDuration": 232582,
      "Delta": 206311778
    },
    {
      "NoteNumber": 77,
      "Velocity": 126,
      "Duration": 232582,
      "SoundDuration": 232582,
      "Delta": 206311778
    },
    {
      "NoteNumber": 84,
      "Velocity": 126,
      "Duration": 195902,
      "SoundDuration": 195902,
      "Delta": 206311778
    },
    {
      "NoteNumber": 41,
      "Velocity": 126,
      "Duration": 232582,
      "SoundDuration": 232582,
      "Delta": 206311778
    },
    {
      "NoteNumber": 84,
      "Velocity": 126,
      "Duration": 232582,
      "SoundDuration": 232582,
      "Delta": 206557680
    },
    {
      "NoteNumber": 76,
      "Velocity": 126,
      "Duration": 232582,
      "SoundDuration": 232582,
      "Delta": 206557680
    },
    {
      "NoteNumber": 36,
      "Velocity": 126,
      "Duration": 195902,
      "SoundDuration": 195902,
      "Delta": 206557680
    },
    {
      "NoteNumber": 24,
      "Velocity": 126,
      "Duration": 232582,
      "SoundDuration": 232582,
      "Delta": 206557680
    },
    {
      "NoteNumber": 77,
      "Velocity": 126,
      "Duration": 232582,
      "SoundDuration": 232582,
      "Delta": 206803582
    },
    {
      "NoteNumber": 36,
      "Velocity": 126,
      "Duration": 195902,
      "SoundDuration": 195902,
      "Delta": 206803582
    },
    {
      "NoteNumber": 48,
      "Velocity": 126,
      "Duration": 232582,
      "SoundDuration": 232582,
      "Delta": 207049484
    },
    {
      "NoteNumber": 43,
      "Velocity": 126,
      "Duration": 195902,
      "SoundDuration": 195902,
      "Delta": 207049484
    },
    {
      "NoteNumber": 79,
      "Velocity": 126,
      "Duration": 232582,
      "SoundDuration": 232582,
      "Delta": 207049484
    },
    {
      "NoteNumber": 74,
      "Velocity": 126,
      "Duration": 232582,
      "SoundDuration": 232582,
      "Delta": 207049484
    },
    {
      "NoteNumber": 36,
      "Velocity": 126,
      "Duration": 232582,
      "SoundDuration": 232582,
      "Delta": 207049484
    },
    {
      "NoteNumber": 43,
      "Velocity": 126,
      "Duration": 232582,
      "SoundDuration": 232582,
      "Delta": 207295386
    },
    {
      "NoteNumber": 76,
      "Velocity": 126,
      "Duration": 232582,
      "SoundDuration": 232582,
      "Delta": 207295386
    },
    {
      "NoteNumber": 48,
      "Velocity": 126,
      "Duration": 195902,
      "SoundDuration": 195902,
      "Delta": 207541288
    },
    {
      "NoteNumber": 77,
      "Velocity": 126,
      "Duration": 232582,
      "SoundDuration": 232582,
      "Delta": 207541288
    },
    {
      "NoteNumber": 48,
      "Velocity": 126,
      "Duration": 232582,
      "SoundDuration": 232582,
      "Delta": 207787190
    },
    {
      "NoteNumber": 76,
      "Velocity": 126,
      "Duration": 232582,
      "SoundDuration": 232582,
      "Delta": 207787190
    },
    {
      "NoteNumber": 55,
      "Velocity": 126,
      "Duration": 232582,
      "SoundDuration": 232582,
      "Delta": 208033092
    },
    {
      "NoteNumber": 60,
      "Velocity": 126,
      "Duration": 232582,
      "SoundDuration": 232582,
      "Delta": 208033092
    },
    {
      "NoteNumber": 77,
      "Velocity": 126,
      "Duration": 232582,
      "SoundDuration": 232582,
      "Delta": 208033092
    },
    {
      "NoteNumber": 48,
      "Velocity": 126,
      "Duration": 232582,
      "SoundDuration": 232582,
      "Delta": 208278994
    },
    {
      "NoteNumber": 76,
      "Velocity": 126,
      "Duration": 232582,
      "SoundDuration": 232582,
      "Delta": 208278994
    },
    {
      "NoteNumber": 55,
      "Velocity": 126,
      "Duration": 232582,
      "SoundDuration": 232582,
      "Delta": 208524896
    },
    {
      "NoteNumber": 67,
      "Velocity": 126,
      "Duration": 232582,
      "SoundDuration": 232582,
      "Delta": 208524896
    },
    {
      "NoteNumber": 43,
      "Velocity": 126,
      "Duration": 195902,
      "SoundDuration": 195902,
      "Delta": 208524896
    },
    {
      "NoteNumber": 43,
      "Velocity": 126,
      "Duration": 232582,
      "SoundDuration": 232582,
      "Delta": 208770798
    },
    {
      "NoteNumber": 74,
      "Velocity": 126,
      "Duration": 195902,
      "SoundDuration": 195902,
      "Delta": 208770798
    },
    {
      "NoteNumber": 77,
      "Velocity": 126,
      "Duration": 72951,
      "SoundDuration": 72951,
      "Delta": 209016700
    },
    {
      "NoteNumber": 74,
      "Velocity": 126,
      "Duration": 72951,
      "SoundDuration": 72951,
      "Delta": 209016700
    },
    {
      "NoteNumber": 31,
      "Velocity": 126,
      "Duration": 232582,
      "SoundDuration": 232582,
      "Delta": 209016700
    },
    {
      "NoteNumber": 77,
      "Velocity": 126,
      "Duration": 72951,
      "SoundDuration": 72951,
      "Delta": 209139651
    },
    {
      "NoteNumber": 74,
      "Velocity": 126,
      "Duration": 72951,
      "SoundDuration": 72951,
      "Delta": 209139651
    },
    {
      "NoteNumber": 43,
      "Velocity": 126,
      "Duration": 232582,
      "SoundDuration": 232582,
      "Delta": 209262602
    },
    {
      "NoteNumber": 77,
      "Velocity": 126,
      "Duration": 72951,
      "SoundDuration": 72951,
      "Delta": 209262602
    },
    {
      "NoteNumber": 74,
      "Velocity": 126,
      "Duration": 72951,
      "SoundDuration": 72951,
      "Delta": 209262602
    },
    {
      "NoteNumber": 77,
      "Velocity": 126,
      "Duration": 72951,
      "SoundDuration": 72951,
      "Delta": 209385553
    },
    {
      "NoteNumber": 74,
      "Velocity": 126,
      "Duration": 115778,
      "SoundDuration": 115778,
      "Delta": 209385553
    },
    {
      "NoteNumber": 50,
      "Velocity": 126,
      "Duration": 195902,
      "SoundDuration": 195902,
      "Delta": 209508504
    },
    {
      "NoteNumber": 55,
      "Velocity": 126,
      "Duration": 232582,
      "SoundDuration": 232582,
      "Delta": 209508504
    },
    {
      "NoteNumber": 77,
      "Velocity": 126,
      "Duration": 232582,
      "SoundDuration": 232582,
      "Delta": 209508504
    },
    {
      "NoteNumber": 50,
      "Velocity": 126,
      "Duration": 232582,
      "SoundDuration": 232582,
      "Delta": 209754406
    },
    {
      "NoteNumber": 74,
      "Velocity": 126,
      "Duration": 195902,
      "SoundDuration": 195902,
      "Delta": 209754406
    },
    {
      "NoteNumber": 43,
      "Velocity": 126,
      "Duration": 232582,
      "SoundDuration": 232582,
      "Delta": 210000308
    },
    {
      "NoteNumber": 77,
      "Velocity": 126,
      "Duration": 232582,
      "SoundDuration": 232582,
      "Delta": 210000308
    },
    {
      "NoteNumber": 81,
      "Velocity": 126,
      "Duration": 232582,
      "SoundDuration": 232582,
      "Delta": 210000308
    },
    {
      "NoteNumber": 74,
      "Velocity": 126,
      "Duration": 232582,
      "SoundDuration": 232582,
      "Delta": 210000308
    },
    {
      "NoteNumber": 50,
      "Velocity": 126,
      "Duration": 232582,
      "SoundDuration": 232582,
      "Delta": 210246210
    },
    {
      "NoteNumber": 79,
      "Velocity": 126,
      "Duration": 232582,
      "SoundDuration": 232582,
      "Delta": 210246210
    },
    {
      "NoteNumber": 77,
      "Velocity": 126,
      "Duration": 232582,
      "SoundDuration": 232582,
      "Delta": 210492112
    },
    {
      "NoteNumber": 34,
      "Velocity": 126,
      "Duration": 232582,
      "SoundDuration": 232582,
      "Delta": 210492112
    },
    {
      "NoteNumber": 46,
      "Velocity": 126,
      "Duration": 232582,
      "SoundDuration": 232582,
      "Delta": 210738014
    },
    {
      "NoteNumber": 72,
      "Velocity": 126,
      "Duration": 232582,
      "SoundDuration": 232582,
      "Delta": 210738014
    },
    {
      "NoteNumber": 53,
      "Velocity": 126,
      "Duration": 232582,
      "SoundDuration": 232582,
      "Delta": 210983916
    },
    {
      "NoteNumber": 77,
      "Velocity": 126,
      "Duration": 72951,
      "SoundDuration": 72951,
      "Delta": 210983916
    },
    {
      "NoteNumber": 58,
      "Velocity": 126,
      "Duration": 232582,
      "SoundDuration": 232582,
      "Delta": 210983916
    },
    {
      "NoteNumber": 74,
      "Velocity": 126,
      "Duration": 72951,
      "SoundDuration": 72951,
      "Delta": 210983916
    },
    {
      "NoteNumber": 77,
      "Velocity": 126,
      "Duration": 72951,
      "SoundDuration": 72951,
      "Delta": 211106867
    },
    {
      "NoteNumber": 74,
      "Velocity": 126,
      "Duration": 72951,
      "SoundDuration": 72951,
      "Delta": 211106867
    },
    {
      "NoteNumber": 46,
      "Velocity": 126,
      "Duration": 195902,
      "SoundDuration": 195902,
      "Delta": 211229818
    },
    {
      "NoteNumber": 77,
      "Velocity": 126,
      "Duration": 72951,
      "SoundDuration": 72951,
      "Delta": 211229818
    },
    {
      "NoteNumber": 74,
      "Velocity": 126,
      "Duration": 72951,
      "SoundDuration": 72951,
      "Delta": 211229818
    },
    {
      "NoteNumber": 77,
      "Velocity": 126,
      "Duration": 349385,
      "SoundDuration": 349385,
      "Delta": 211352769
    },
    {
      "NoteNumber": 74,
      "Velocity": 126,
      "Duration": 318853,
      "SoundDuration": 318853,
      "Delta": 211352769
    },
    {
      "NoteNumber": 46,
      "Velocity": 126,
      "Duration": 195902,
      "SoundDuration": 195902,
      "Delta": 211475720
    },
    {
      "NoteNumber": 34,
      "Velocity": 126,
      "Duration": 232582,
      "SoundDuration": 232582,
      "Delta": 211475720
    },
    {
      "NoteNumber": 46,
      "Velocity": 126,
      "Duration": 232582,
      "SoundDuration": 232582,
      "Delta": 211721622
    },
    {
      "NoteNumber": 74,
      "Velocity": 126,
      "Duration": 195902,
      "SoundDuration": 195902,
      "Delta": 211721622
    },
    {
      "NoteNumber": 53,
      "Velocity": 126,
      "Duration": 232582,
      "SoundDuration": 232582,
      "Delta": 211967524
    },
    {
      "NoteNumber": 77,
      "Velocity": 126,
      "Duration": 195902,
      "SoundDuration": 195902,
      "Delta": 211967524
    },
    {
      "NoteNumber": 58,
      "Velocity": 126,
      "Duration": 232582,
      "SoundDuration": 232582,
      "Delta": 211967524
    },
    {
      "NoteNumber": 74,
      "Velocity": 126,
      "Duration": 195902,
      "SoundDuration": 195902,
      "Delta": 211967524
    },
    {
      "NoteNumber": 46,
      "Velocity": 126,
      "Duration": 232582,
      "SoundDuration": 232582,
      "Delta": 212213426
    },
    {
      "NoteNumber": 77,
      "Velocity": 126,
      "Duration": 232582,
      "SoundDuration": 232582,
      "Delta": 212213426
    },
    {
      "NoteNumber": 79,
      "Velocity": 126,
      "Duration": 232582,
      "SoundDuration": 232582,
      "Delta": 212213426
    },
    {
      "NoteNumber": 74,
      "Velocity": 126,
      "Duration": 232582,
      "SoundDuration": 232582,
      "Delta": 212213426
    },
    {
      "NoteNumber": 65,
      "Velocity": 126,
      "Duration": 232582,
      "SoundDuration": 232582,
      "Delta": 212459328
    },
    {
      "NoteNumber": 41,
      "Velocity": 126,
      "Duration": 195902,
      "SoundDuration": 195902,
      "Delta": 212459328
    },
    {
      "NoteNumber": 29,
      "Velocity": 126,
      "Duration": 232582,
      "SoundDuration": 232582,
      "Delta": 212459328
    },
    {
      "NoteNumber": 77,
      "Velocity": 126,
      "Duration": 195902,
      "SoundDuration": 195902,
      "Delta": 212705230
    },
    {
      "NoteNumber": 41,
      "Velocity": 126,
      "Duration": 232582,
      "SoundDuration": 232582,
      "Delta": 212705230
    },
    {
      "NoteNumber": 53,
      "Velocity": 126,
      "Duration": 232582,
      "SoundDuration": 232582,
      "Delta": 212951132
    },
    {
      "NoteNumber": 48,
      "Velocity": 126,
      "Duration": 232582,
      "SoundDuration": 232582,
      "Delta": 212951132
    },
    {
      "NoteNumber": 77,
      "Velocity": 126,
      "Duration": 72951,
      "SoundDuration": 72951,
      "Delta": 212951132
    },
    {
      "NoteNumber": 74,
      "Velocity": 126,
      "Duration": 72951,
      "SoundDuration": 72951,
      "Delta": 212951132
    },
    {
      "NoteNumber": 77,
      "Velocity": 126,
      "Duration": 72951,
      "SoundDuration": 72951,
      "Delta": 213074083
    },
    {
      "NoteNumber": 74,
      "Velocity": 126,
      "Duration": 72951,
      "SoundDuration": 72951,
      "Delta": 213074083
    },
    {
      "NoteNumber": 77,
      "Velocity": 126,
      "Duration": 72951,
      "SoundDuration": 72951,
      "Delta": 213197034
    },
    {
      "NoteNumber": 74,
      "Velocity": 126,
      "Duration": 72951,
      "SoundDuration": 72951,
      "Delta": 213197034
    },
    {
      "NoteNumber": 41,
      "Velocity": 126,
      "Duration": 232582,
      "SoundDuration": 232582,
      "Delta": 213197034
    },
    {
      "NoteNumber": 77,
      "Velocity": 126,
      "Duration": 72951,
      "SoundDuration": 72951,
      "Delta": 213319985
    },
    {
      "NoteNumber": 74,
      "Velocity": 126,
      "Duration": 115778,
      "SoundDuration": 115778,
      "Delta": 213319985
    },
    {
      "NoteNumber": 48,
      "Velocity": 126,
      "Duration": 232582,
      "SoundDuration": 232582,
      "Delta": 213442936
    },
    {
      "NoteNumber": 77,
      "Velocity": 126,
      "Duration": 232582,
      "SoundDuration": 232582,
      "Delta": 213442936
    },
    {
      "NoteNumber": 74,
      "Velocity": 126,
      "Duration": 195902,
      "SoundDuration": 195902,
      "Delta": 213688838
    },
    {
      "NoteNumber": 41,
      "Velocity": 126,
      "Duration": 232582,
      "SoundDuration": 232582,
      "Delta": 213688838
    },
    {
      "NoteNumber": 53,
      "Velocity": 126,
      "Duration": 232582,
      "SoundDuration": 232582,
      "Delta": 213934740
    },
    {
      "NoteNumber": 48,
      "Velocity": 126,
      "Duration": 232582,
      "SoundDuration": 232582,
      "Delta": 213934740
    },
    {
      "NoteNumber": 77,
      "Velocity": 126,
      "Duration": 232582,
      "SoundDuration": 232582,
      "Delta": 213934740
    },
    {
      "NoteNumber": 81,
      "Velocity": 126,
      "Duration": 232582,
      "SoundDuration": 232582,
      "Delta": 213934740
    },
    {
      "NoteNumber": 74,
      "Velocity": 126,
      "Duration": 232582,
      "SoundDuration": 232582,
      "Delta": 213934740
    },
    {
      "NoteNumber": 79,
      "Velocity": 126,
      "Duration": 232582,
      "SoundDuration": 232582,
      "Delta": 214180642
    },
    {
      "NoteNumber": 41,
      "Velocity": 126,
      "Duration": 232582,
      "SoundDuration": 232582,
      "Delta": 214180642
    },
    {
      "NoteNumber": 72,
      "Velocity": 126,
      "Duration": 195902,
      "SoundDuration": 195902,
      "Delta": 214426544
    },
    {
      "NoteNumber": 36,
      "Velocity": 126,
      "Duration": 195902,
      "SoundDuration": 195902,
      "Delta": 214426544
    },
    {
      "NoteNumber": 24,
      "Velocity": 126,
      "Duration": 232582,
      "SoundDuration": 232582,
      "Delta": 214426544
    },
    {
      "NoteNumber": 72,
      "Velocity": 126,
      "Duration": 195902,
      "SoundDuration": 195902,
      "Delta": 214672446
    },
    {
      "NoteNumber": 79,
      "Velocity": 126,
      "Duration": 195902,
      "SoundDuration": 195902,
      "Delta": 214672446
    },
    {
      "NoteNumber": 76,
      "Velocity": 126,
      "Duration": 195902,
      "SoundDuration": 195902,
      "Delta": 214672446
    },
    {
      "NoteNumber": 36,
      "Velocity": 126,
      "Duration": 195902,
      "SoundDuration": 195902,
      "Delta": 214672446
    },
    {
      "NoteNumber": 48,
      "Velocity": 126,
      "Duration": 232582,
      "SoundDuration": 232582,
      "Delta": 214918348
    },
    {
      "NoteNumber": 43,
      "Velocity": 126,
      "Duration": 195902,
      "SoundDuration": 195902,
      "Delta": 214918348
    },
    {
      "NoteNumber": 72,
      "Velocity": 126,
      "Duration": 195902,
      "SoundDuration": 195902,
      "Delta": 214918348
    },
    {
      "NoteNumber": 79,
      "Velocity": 126,
      "Duration": 232582,
      "SoundDuration": 232582,
      "Delta": 214918348
    },
    {
      "NoteNumber": 76,
      "Velocity": 126,
      "Duration": 232582,
      "SoundDuration": 232582,
      "Delta": 214918348
    },
    {
      "NoteNumber": 36,
      "Velocity": 126,
      "Duration": 232582,
      "SoundDuration": 232582,
      "Delta": 214918348
    },
    {
      "NoteNumber": 43,
      "Velocity": 126,
      "Duration": 232582,
      "SoundDuration": 232582,
      "Delta": 215164250
    },
    {
      "NoteNumber": 72,
      "Velocity": 126,
      "Duration": 232582,
      "SoundDuration": 232582,
      "Delta": 215164250
    },
    {
      "NoteNumber": 48,
      "Velocity": 126,
      "Duration": 195902,
      "SoundDuration": 195902,
      "Delta": 215410152
    },
    {
      "NoteNumber": 79,
      "Velocity": 126,
      "Duration": 232582,
      "SoundDuration": 232582,
      "Delta": 215410152
    },
    {
      "NoteNumber": 76,
      "Velocity": 126,
      "Duration": 195902,
      "SoundDuration": 195902,
      "Delta": 215410152
    },
    {
      "NoteNumber": 48,
      "Velocity": 126,
      "Duration": 232582,
      "SoundDuration": 232582,
      "Delta": 215656054
    },
    {
      "NoteNumber": 72,
      "Velocity": 126,
      "Duration": 195902,
      "SoundDuration": 195902,
      "Delta": 215656054
    },
    {
      "NoteNumber": 76,
      "Velocity": 126,
      "Duration": 195902,
      "SoundDuration": 195902,
      "Delta": 215656054
    },
    {
      "NoteNumber": 55,
      "Velocity": 126,
      "Duration": 232582,
      "SoundDuration": 232582,
      "Delta": 215901956
    },
    {
      "NoteNumber": 60,
      "Velocity": 126,
      "Duration": 232582,
      "SoundDuration": 232582,
      "Delta": 215901956
    },
    {
      "NoteNumber": 72,
      "Velocity": 126,
      "Duration": 195902,
      "SoundDuration": 195902,
      "Delta": 215901956
    },
    {
      "NoteNumber": 79,
      "Velocity": 126,
      "Duration": 232582,
      "SoundDuration": 232582,
      "Delta": 215901956
    },
    {
      "NoteNumber": 76,
      "Velocity": 126,
      "Duration": 232582,
      "SoundDuration": 232582,
      "Delta": 215901956
    },
    {
      "NoteNumber": 48,
      "Velocity": 126,
      "Duration": 232582,
      "SoundDuration": 232582,
      "Delta": 216147858
    },
    {
      "NoteNumber": 72,
      "Velocity": 126,
      "Duration": 232582,
      "SoundDuration": 232582,
      "Delta": 216147858
    },
    {
      "NoteNumber": 65,
      "Velocity": 126,
      "Duration": 232582,
      "SoundDuration": 232582,
      "Delta": 216393760
    },
    {
      "NoteNumber": 55,
      "Velocity": 126,
      "Duration": 232582,
      "SoundDuration": 232582,
      "Delta": 216393760
    },
    {
      "NoteNumber": 43,
      "Velocity": 126,
      "Duration": 195902,
      "SoundDuration": 195902,
      "Delta": 216393760
    },
    {
      "NoteNumber": 43,
      "Velocity": 126,
      "Duration": 232582,
      "SoundDuration": 232582,
      "Delta": 216639662
    },
    {
      "NoteNumber": 77,
      "Velocity": 126,
      "Duration": 195902,
      "SoundDuration": 195902,
      "Delta": 216639662
    },
    {
      "NoteNumber": 77,
      "Velocity": 126,
      "Duration": 72951,
      "SoundDuration": 72951,
      "Delta": 216885564
    },
    {
      "NoteNumber": 74,
      "Velocity": 126,
      "Duration": 72951,
      "SoundDuration": 72951,
      "Delta": 216885564
    },
    {
      "NoteNumber": 31,
      "Velocity": 126,
      "Duration": 232582,
      "SoundDuration": 232582,
      "Delta": 216885564
    },
    {
      "NoteNumber": 77,
      "Velocity": 126,
      "Duration": 72951,
      "SoundDuration": 72951,
      "Delta": 217008515
    },
    {
      "NoteNumber": 74,
      "Velocity": 126,
      "Duration": 72951,
      "SoundDuration": 72951,
      "Delta": 217008515
    },
    {
      "NoteNumber": 43,
      "Velocity": 126,
      "Duration": 232582,
      "SoundDuration": 232582,
      "Delta": 217131466
    },
    {
      "NoteNumber": 77,
      "Velocity": 126,
      "Duration": 72951,
      "SoundDuration": 72951,
      "Delta": 217131466
    },
    {
      "NoteNumber": 74,
      "Velocity": 126,
      "Duration": 72951,
      "SoundDuration": 72951,
      "Delta": 217131466
    },
    {
      "NoteNumber": 77,
      "Velocity": 126,
      "Duration": 72951,
      "SoundDuration": 72951,
      "Delta": 217254417
    },
    {
      "NoteNumber": 74,
      "Velocity": 126,
      "Duration": 115778,
      "SoundDuration": 115778,
      "Delta": 217254417
    },
    {
      "NoteNumber": 50,
      "Velocity": 126,
      "Duration": 195902,
      "SoundDuration": 195902,
      "Delta": 217377368
    },
    {
      "NoteNumber": 55,
      "Velocity": 126,
      "Duration": 232582,
      "SoundDuration": 232582,
      "Delta": 217377368
    },
    {
      "NoteNumber": 77,
      "Velocity": 126,
      "Duration": 232582,
      "SoundDuration": 232582,
      "Delta": 217377368
    },
    {
      "NoteNumber": 50,
      "Velocity": 126,
      "Duration": 232582,
      "SoundDuration": 232582,
      "Delta": 217623270
    },
    {
      "NoteNumber": 74,
      "Velocity": 126,
      "Duration": 195902,
      "SoundDuration": 195902,
      "Delta": 217623270
    },
    {
      "NoteNumber": 43,
      "Velocity": 126,
      "Duration": 232582,
      "SoundDuration": 232582,
      "Delta": 217869172
    },
    {
      "NoteNumber": 77,
      "Velocity": 126,
      "Duration": 232582,
      "SoundDuration": 232582,
      "Delta": 217869172
    },
    {
      "NoteNumber": 81,
      "Velocity": 126,
      "Duration": 232582,
      "SoundDuration": 232582,
      "Delta": 217869172
    },
    {
      "NoteNumber": 74,
      "Velocity": 126,
      "Duration": 232582,
      "SoundDuration": 232582,
      "Delta": 217869172
    },
    {
      "NoteNumber": 50,
      "Velocity": 126,
      "Duration": 232582,
      "SoundDuration": 232582,
      "Delta": 218115074
    },
    {
      "NoteNumber": 79,
      "Velocity": 126,
      "Duration": 232582,
      "SoundDuration": 232582,
      "Delta": 218115074
    },
    {
      "NoteNumber": 77,
      "Velocity": 126,
      "Duration": 232582,
      "SoundDuration": 232582,
      "Delta": 218360976
    },
    {
      "NoteNumber": 34,
      "Velocity": 126,
      "Duration": 232582,
      "SoundDuration": 232582,
      "Delta": 218360976
    },
    {
      "NoteNumber": 46,
      "Velocity": 126,
      "Duration": 232582,
      "SoundDuration": 232582,
      "Delta": 218606878
    },
    {
      "NoteNumber": 72,
      "Velocity": 126,
      "Duration": 232582,
      "SoundDuration": 232582,
      "Delta": 218606878
    },
    {
      "NoteNumber": 53,
      "Velocity": 126,
      "Duration": 232582,
      "SoundDuration": 232582,
      "Delta": 218852780
    },
    {
      "NoteNumber": 77,
      "Velocity": 126,
      "Duration": 72951,
      "SoundDuration": 72951,
      "Delta": 218852780
    },
    {
      "NoteNumber": 58,
      "Velocity": 126,
      "Duration": 232582,
      "SoundDuration": 232582,
      "Delta": 218852780
    },
    {
      "NoteNumber": 74,
      "Velocity": 126,
      "Duration": 72951,
      "SoundDuration": 72951,
      "Delta": 218852780
    },
    {
      "NoteNumber": 77,
      "Velocity": 126,
      "Duration": 72951,
      "SoundDuration": 72951,
      "Delta": 218975731
    },
    {
      "NoteNumber": 74,
      "Velocity": 126,
      "Duration": 72951,
      "SoundDuration": 72951,
      "Delta": 218975731
    },
    {
      "NoteNumber": 46,
      "Velocity": 126,
      "Duration": 195902,
      "SoundDuration": 195902,
      "Delta": 219098682
    },
    {
      "NoteNumber": 77,
      "Velocity": 126,
      "Duration": 72951,
      "SoundDuration": 72951,
      "Delta": 219098682
    },
    {
      "NoteNumber": 74,
      "Velocity": 126,
      "Duration": 72951,
      "SoundDuration": 72951,
      "Delta": 219098682
    },
    {
      "NoteNumber": 77,
      "Velocity": 126,
      "Duration": 349385,
      "SoundDuration": 349385,
      "Delta": 219221633
    },
    {
      "NoteNumber": 74,
      "Velocity": 126,
      "Duration": 318853,
      "SoundDuration": 318853,
      "Delta": 219221633
    },
    {
      "NoteNumber": 46,
      "Velocity": 126,
      "Duration": 195902,
      "SoundDuration": 195902,
      "Delta": 219344584
    },
    {
      "NoteNumber": 34,
      "Velocity": 126,
      "Duration": 232582,
      "SoundDuration": 232582,
      "Delta": 219344584
    },
    {
      "NoteNumber": 46,
      "Velocity": 126,
      "Duration": 232582,
      "SoundDuration": 232582,
      "Delta": 219590486
    },
    {
      "NoteNumber": 74,
      "Velocity": 126,
      "Duration": 195902,
      "SoundDuration": 195902,
      "Delta": 219590486
    },
    {
      "NoteNumber": 53,
      "Velocity": 126,
      "Duration": 232582,
      "SoundDuration": 232582,
      "Delta": 219836388
    },
    {
      "NoteNumber": 77,
      "Velocity": 126,
      "Duration": 195902,
      "SoundDuration": 195902,
      "Delta": 219836388
    },
    {
      "NoteNumber": 58,
      "Velocity": 126,
      "Duration": 232582,
      "SoundDuration": 232582,
      "Delta": 219836388
    },
    {
      "NoteNumber": 74,
      "Velocity": 126,
      "Duration": 195902,
      "SoundDuration": 195902,
      "Delta": 219836388
    },
    {
      "NoteNumber": 46,
      "Velocity": 126,
      "Duration": 232582,
      "SoundDuration": 232582,
      "Delta": 220082290
    },
    {
      "NoteNumber": 77,
      "Velocity": 126,
      "Duration": 232582,
      "SoundDuration": 232582,
      "Delta": 220082290
    },
    {
      "NoteNumber": 79,
      "Velocity": 126,
      "Duration": 232582,
      "SoundDuration": 232582,
      "Delta": 220082290
    },
    {
      "NoteNumber": 74,
      "Velocity": 126,
      "Duration": 232582,
      "SoundDuration": 232582,
      "Delta": 220082290
    },
    {
      "NoteNumber": 65,
      "Velocity": 126,
      "Duration": 232582,
      "SoundDuration": 232582,
      "Delta": 220328192
    },
    {
      "NoteNumber": 41,
      "Velocity": 126,
      "Duration": 195902,
      "SoundDuration": 195902,
      "Delta": 220328192
    },
    {
      "NoteNumber": 29,
      "Velocity": 126,
      "Duration": 232582,
      "SoundDuration": 232582,
      "Delta": 220328192
    },
    {
      "NoteNumber": 77,
      "Velocity": 126,
      "Duration": 195902,
      "SoundDuration": 195902,
      "Delta": 220574094
    },
    {
      "NoteNumber": 41,
      "Velocity": 126,
      "Duration": 232582,
      "SoundDuration": 232582,
      "Delta": 220574094
    },
    {
      "NoteNumber": 53,
      "Velocity": 126,
      "Duration": 232582,
      "SoundDuration": 232582,
      "Delta": 220819996
    },
    {
      "NoteNumber": 48,
      "Velocity": 126,
      "Duration": 232582,
      "SoundDuration": 232582,
      "Delta": 220819996
    },
    {
      "NoteNumber": 77,
      "Velocity": 126,
      "Duration": 72951,
      "SoundDuration": 72951,
      "Delta": 220819996
    },
    {
      "NoteNumber": 74,
      "Velocity": 126,
      "Duration": 72951,
      "SoundDuration": 72951,
      "Delta": 220819996
    },
    {
      "NoteNumber": 77,
      "Velocity": 126,
      "Duration": 72951,
      "SoundDuration": 72951,
      "Delta": 220942947
    },
    {
      "NoteNumber": 74,
      "Velocity": 126,
      "Duration": 72951,
      "SoundDuration": 72951,
      "Delta": 220942947
    },
    {
      "NoteNumber": 77,
      "Velocity": 126,
      "Duration": 72951,
      "SoundDuration": 72951,
      "Delta": 221065898
    },
    {
      "NoteNumber": 74,
      "Velocity": 126,
      "Duration": 72951,
      "SoundDuration": 72951,
      "Delta": 221065898
    },
    {
      "NoteNumber": 41,
      "Velocity": 126,
      "Duration": 232582,
      "SoundDuration": 232582,
      "Delta": 221065898
    },
    {
      "NoteNumber": 77,
      "Velocity": 126,
      "Duration": 72951,
      "SoundDuration": 72951,
      "Delta": 221188849
    },
    {
      "NoteNumber": 74,
      "Velocity": 126,
      "Duration": 115778,
      "SoundDuration": 115778,
      "Delta": 221188849
    },
    {
      "NoteNumber": 48,
      "Velocity": 126,
      "Duration": 232582,
      "SoundDuration": 232582,
      "Delta": 221311800
    },
    {
      "NoteNumber": 77,
      "Velocity": 126,
      "Duration": 232582,
      "SoundDuration": 232582,
      "Delta": 221311800
    },
    {
      "NoteNumber": 74,
      "Velocity": 126,
      "Duration": 195902,
      "SoundDuration": 195902,
      "Delta": 221557702
    },
    {
      "NoteNumber": 41,
      "Velocity": 126,
      "Duration": 232582,
      "SoundDuration": 232582,
      "Delta": 221557702
    },
    {
      "NoteNumber": 53,
      "Velocity": 126,
      "Duration": 232582,
      "SoundDuration": 232582,
      "Delta": 221803604
    },
    {
      "NoteNumber": 48,
      "Velocity": 126,
      "Duration": 232582,
      "SoundDuration": 232582,
      "Delta": 221803604
    },
    {
      "NoteNumber": 77,
      "Velocity": 126,
      "Duration": 232582,
      "SoundDuration": 232582,
      "Delta": 221803604
    },
    {
      "NoteNumber": 81,
      "Velocity": 126,
      "Duration": 232582,
      "SoundDuration": 232582,
      "Delta": 221803604
    },
    {
      "NoteNumber": 74,
      "Velocity": 126,
      "Duration": 232582,
      "SoundDuration": 232582,
      "Delta": 221803604
    },
    {
      "NoteNumber": 79,
      "Velocity": 126,
      "Duration": 232582,
      "SoundDuration": 232582,
      "Delta": 222049506
    },
    {
      "NoteNumber": 41,
      "Velocity": 126,
      "Duration": 232582,
      "SoundDuration": 232582,
      "Delta": 222049506
    },
    {
      "NoteNumber": 72,
      "Velocity": 126,
      "Duration": 195902,
      "SoundDuration": 195902,
      "Delta": 222295408
    },
    {
      "NoteNumber": 36,
      "Velocity": 126,
      "Duration": 195902,
      "SoundDuration": 195902,
      "Delta": 222295408
    },
    {
      "NoteNumber": 24,
      "Velocity": 126,
      "Duration": 232582,
      "SoundDuration": 232582,
      "Delta": 222295408
    },
    {
      "NoteNumber": 72,
      "Velocity": 126,
      "Duration": 195902,
      "SoundDuration": 195902,
      "Delta": 222541310
    },
    {
      "NoteNumber": 36,
      "Velocity": 126,
      "Duration": 195902,
      "SoundDuration": 195902,
      "Delta": 222541310
    },
    {
      "NoteNumber": 48,
      "Velocity": 126,
      "Duration": 232582,
      "SoundDuration": 232582,
      "Delta": 222787212
    },
    {
      "NoteNumber": 43,
      "Velocity": 126,
      "Duration": 195902,
      "SoundDuration": 195902,
      "Delta": 222787212
    },
    {
      "NoteNumber": 72,
      "Velocity": 126,
      "Duration": 195902,
      "SoundDuration": 195902,
      "Delta": 222787212
    },
    {
      "NoteNumber": 79,
      "Velocity": 126,
      "Duration": 232582,
      "SoundDuration": 232582,
      "Delta": 222787212
    },
    {
      "NoteNumber": 76,
      "Velocity": 126,
      "Duration": 232582,
      "SoundDuration": 232582,
      "Delta": 222787212
    },
    {
      "NoteNumber": 36,
      "Velocity": 126,
      "Duration": 232582,
      "SoundDuration": 232582,
      "Delta": 222787212
    },
    {
      "NoteNumber": 43,
      "Velocity": 126,
      "Duration": 232582,
      "SoundDuration": 232582,
      "Delta": 223033114
    },
    {
      "NoteNumber": 72,
      "Velocity": 126,
      "Duration": 195902,
      "SoundDuration": 195902,
      "Delta": 223033114
    },
    {
      "NoteNumber": 48,
      "Velocity": 126,
      "Duration": 195902,
      "SoundDuration": 195902,
      "Delta": 223279016
    },
    {
      "NoteNumber": 72,
      "Velocity": 126,
      "Duration": 195902,
      "SoundDuration": 195902,
      "Delta": 223279016
    },
    {
      "NoteNumber": 79,
      "Velocity": 126,
      "Duration": 195902,
      "SoundDuration": 195902,
      "Delta": 223279016
    },
    {
      "NoteNumber": 76,
      "Velocity": 126,
      "Duration": 195902,
      "SoundDuration": 195902,
      "Delta": 223279016
    },
    {
      "NoteNumber": 48,
      "Velocity": 126,
      "Duration": 232582,
      "SoundDuration": 232582,
      "Delta": 223524918
    },
    {
      "NoteNumber": 72,
      "Velocity": 126,
      "Duration": 232582,
      "SoundDuration": 232582,
      "Delta": 223524918
    },
    {
      "NoteNumber": 79,
      "Velocity": 126,
      "Duration": 232582,
      "SoundDuration": 232582,
      "Delta": 223524918
    },
    {
      "NoteNumber": 76,
      "Velocity": 126,
      "Duration": 232582,
      "SoundDuration": 232582,
      "Delta": 223524918
    },
    {
      "NoteNumber": 55,
      "Velocity": 126,
      "Duration": 232582,
      "SoundDuration": 232582,
      "Delta": 223770820
    },
    {
      "NoteNumber": 60,
      "Velocity": 126,
      "Duration": 232582,
      "SoundDuration": 232582,
      "Delta": 223770820
    },
    {
      "NoteNumber": 77,
      "Velocity": 126,
      "Duration": 195902,
      "SoundDuration": 195902,
      "Delta": 223770820
    },
    {
      "NoteNumber": 48,
      "Velocity": 126,
      "Duration": 2101437,
      "SoundDuration": 2101437,
      "Delta": 224016722
    },
    {
      "NoteNumber": 77,
      "Velocity": 126,
      "Duration": 232582,
      "SoundDuration": 232582,
      "Delta": 224016722
    },
    {
      "NoteNumber": 81,
      "Velocity": 126,
      "Duration": 466189,
      "SoundDuration": 466189,
      "Delta": 224016722
    },
    {
      "NoteNumber": 74,
      "Velocity": 126,
      "Duration": 232582,
      "SoundDuration": 232582,
      "Delta": 224508526
    },
    {
      "NoteNumber": 77,
      "Velocity": 126,
      "Duration": 232582,
      "SoundDuration": 232582,
      "Delta": 224754428
    },
    {
      "NoteNumber": 76,
      "Velocity": 126,
      "Duration": 232582,
      "SoundDuration": 232582,
      "Delta": 225000330
    },
    {
      "NoteNumber": 74,
      "Velocity": 126,
      "Duration": 933403,
      "SoundDuration": 933403,
      "Delta": 225246232
    }
  ]
}