{"title":"Divertimento","artist":"Haydn","durationMs":63068,"midiSha256":"cb41ccd29827feda9137fff56043e699e5d6fc34f2acdd4b3ffc399d7b2a1d8e","midiObject":[{"NoteNumber":64,"Velocity":67,"Duration":675143,"SoundDuration":675143,"Delta":0},{"NoteNumber":67,"Velocity":67,"Duration":675143,"SoundDuration":675143,"Delta":0},{"NoteNumber":72,"Velocity":80,"Duration":675143,"SoundDuration":675143,"Delta":0},{"NoteNumber":60,"Velocity":66,"Duration":675143,"SoundDuration":675143,"Delta":0},{"NoteNumber":48,"Velocity":56,"Duration":675143,"SoundDuration":675143,"Delta":0},{"NoteNumber":74,"Velocity":74,"Duration":84392,"SoundDuration":84392,"Delta":675143},{"NoteNumber":71,"Velocity":63,"Duration":675143,"SoundDuration":675143,"Delta":675143},{"NoteNumber":67,"Velocity":63,"Duration":675143,"SoundDuration":675143,"Delta":675143},{"NoteNumber":55,"Velocity":58,"Duration":675143,"SoundDuration":675143,"Delta":675143},{"NoteNumber":43,"Velocity":49,"Duration":675143,"SoundDuration":675143,"Delta":675143},{"NoteNumber":76,"Velocity":66,"Duration":84392,"SoundDuration":84392,"Delta":759535},{"NoteNumber":74,"Velocity":71,"Duration":84392,"SoundDuration":84392,"Delta":843928},{"NoteNumber":76,"Velocity":63,"Duration":84392,"SoundDuration":84392,"Delta":928321},{"NoteNumber":74,"Velocity":70,"Duration":84392,"SoundDuration":84392,"Delta":1012714},{"NoteNumber":76,"Velocity":62,"Duration":84392,"SoundDuration":84392,"Delta":1097107},{"NoteNumber":74,"Velocity":64,"Duration":56261,"SoundDuration":56261,"Delta":1181500},{"NoteNumber":76,"Velocity":64,"Duration":56261,"SoundDuration":56261,"Delta":1237762},{"NoteNumber":74,"Velocity":64,"Duration":56261,"SoundDuration":56261,"Delta":1294024},{"NoteNumber":76,"Velocity":82,"Duration":675142,"SoundDuration":675142,"Delta":1350286},{"NoteNumber":72,"Velocity":70,"Duration":675142,"SoundDuration":675142,"Delta":1350286},{"NoteNumber":67,"Velocity":70,"Duration":675142,"SoundDuration":675142,"Delta":1350286},{"NoteNumber":48,"Velocity":65,"Duration":675142,"SoundDuration":675142,"Delta":1350286},{"NoteNumber":36,"Velocity":55,"Duration":675142,"SoundDuration":675142,"Delta":1350286},{"NoteNumber":72,"Velocity":55,"Duration":84392,"SoundDuration":84392,"Delta":2363000},{"NoteNumber":74,"Velocity":56,"Duration":84392,"SoundDuration":84392,"Delta":2447393},{"NoteNumber":76,"Velocity":58,"Duration":84392,"SoundDuration":84392,"Delta":2531786},{"NoteNumber":77,"Velocity":61,"Duration":84392,"SoundDuration":84392,"Delta":2616179},{"NoteNumber":79,"Velocity":68,"Duration":337571,"SoundDuration":337571,"Delta":2700572},{"NoteNumber":64,"Velocity":42,"Duration":337571,"SoundDuration":337571,"Delta":2700572},{"NoteNumber":60,"Velocity":35,"Duration":678713,"SoundDuration":678713,"Delta":2700572},{"NoteNumber":84,"Velocity":54,"Duration":341141,"SoundDuration":341141,"Delta":3038143},{"NoteNumber":69,"Velocity":30,"Duration":341141,"SoundDuration":341141,"Delta":3038143},{"NoteNumber":83,"Velocity":61,"Duration":341141,"SoundDuration":341141,"Delta":3379285},{"NoteNumber":67,"Velocity":38,"Duration":341141,"SoundDuration":341141,"Delta":3379285},{"NoteNumber":81,"Velocity":54,"Duration":341141,"SoundDuration":341141,"Delta":3720426},{"NoteNumber":65,"Velocity":33,"Duration":341141,"SoundDuration":341141,"Delta":3720426},{"NoteNumber":79,"Velocity":65,"Duration":669622,"SoundDuration":669622,"Delta":4061568},{"NoteNumber":64,"Velocity":53,"Duration":334113,"SoundDuration":334113,"Delta":4061568},{"NoteNumber":60,"Velocity":32,"Duration":335509,"SoundDuration":335509,"Delta":4395681},{"NoteNumber":77,"Velocity":54,"Duration":84960,"SoundDuration":84960,"Delta":4731190},{"NoteNumber":62,"Velocity":47,"Duration":334698,"SoundDuration":334698,"Delta":4731190},{"NoteNumber":79,"Velocity":51,"Duration":84045,"SoundDuration":84045,"Delta":4816151},{"NoteNumber":77,"Velocity":54,"Duration":83019,"SoundDuration":83019,"Delta":4900197},{"NoteNumber":79,"Velocity":50,"Duration":82672,"SoundDuration":82672,"Delta":4983216},{"NoteNumber":77,"Velocity":54,"Duration":82671,"SoundDuration":82671,"Delta":5065888},{"NoteNumber":55,"Velocity":32,"Duration":330687,"SoundDuration":330687,"Delta":5065888},{"NoteNumber":79,"Velocity":48,"Duration":82672,"SoundDuration":82672,"Delta":5148560},{"NoteNumber":77,"Velocity":53,"Duration":55114,"SoundDuration":55114,"Delta":5231232},{"NoteNumber":79,"Velocity":49,"Duration":55114,"SoundDuration":55114,"Delta":5286347},{"NoteNumber":77,"Velocity":50,"Duration":55114,"SoundDuration":55114,"Delta":5341462},{"NoteNumber":76,"Velocity":66,"Duration":664746,"SoundDuration":664746,"Delta":5396576},{"NoteNumber":60,"Velocity":46,"Duration":332372,"SoundDuration":332372,"Delta":5396576},{"NoteNumber":48,"Velocity":35,"Duration":332373,"SoundDuration":332373,"Delta":5728949},{"NoteNumber":76,"Velocity":59,"Duration":166186,"SoundDuration":166186,"Delta":6061322},{"NoteNumber":72,"Velocity":49,"Duration":174236,"SoundDuration":174236,"Delta":6227509},{"NoteNumber":79,"Velocity":59,"Duration":166186,"SoundDuration":166186,"Delta":6401745},{"NoteNumber":60,"Velocity":40,"Duration":332372,"SoundDuration":332372,"Delta":6401745},{"NoteNumber":76,"Velocity":51,"Duration":83093,"SoundDuration":83093,"Delta":6567932},{"NoteNumber":76,"Velocity":59,"Duration":165344,"SoundDuration":165344,"Delta":6734118},{"NoteNumber":59,"Velocity":46,"Duration":338654,"SoundDuration":338654,"Delta":6734118},{"NoteNumber":74,"Velocity":51,"Duration":173310,"SoundDuration":173310,"Delta":6899462},{"NoteNumber":79,"Velocity":56,"Duration":165344,"SoundDuration":165344,"Delta":7072772},{"NoteNumber":55,"Velocity":38,"Duration":330688,"SoundDuration":330688,"Delta":7072772},{"NoteNumber":74,"Velocity":47,"Duration":82671,"SoundDuration":82671,"Delta":7238116},{"NoteNumber":74,"Velocity":59,"Duration":165343,"SoundDuration":165343,"Delta":7403460},{"NoteNumber":57,"Velocity":46,"Duration":339580,"SoundDuration":339580,"Delta":7403460},{"NoteNumber":72,"Velocity":48,"Duration":174236,"SoundDuration":174236,"Delta":7568804},{"NoteNumber":81,"Velocity":57,"Duration":164509,"SoundDuration":164509,"Delta":7743041},{"NoteNumber":50,"Velocity":42,"Duration":329019,"SoundDuration":329019,"Delta":7743041},{"NoteNumber":72,"Velocity":49,"Duration":82254,"SoundDuration":82254,"Delta":7907550},{"NoteNumber":71,"Velocity":56,"Duration":167916,"SoundDuration":167916,"Delta":8072060},{"NoteNumber":55,"Velocity":45,"Duration":335768,"SoundDuration":335768,"Delta":8072060},{"NoteNumber":67,"Velocity":47,"Duration":167852,"SoundDuration":167852,"Delta":8239977},{"NoteNumber":72,"Velocity":56,"Duration":167056,"SoundDuration":167056,"Delta":8407829},{"NoteNumber":57,"Velocity":45,"Duration":333975,"SoundDuration":333975,"Delta":8407829},{"NoteNumber":67,"Velocity":48,"Duration":166918,"SoundDuration":166918,"Delta":8574886},{"NoteNumber":74,"Velocity":57,"Duration":166186,"SoundDuration":166186,"Delta":8741804},{"NoteNumber":59,"Velocity":45,"Duration":332036,"SoundDuration":332036,"Delta":8741804},{"NoteNumber":67,"Velocity":52,"Duration":165849,"SoundDuration":165849,"Delta":8907991},{"NoteNumber":76,"Velocity":62,"Duration":165344,"SoundDuration":165344,"Delta":9073840},{"NoteNumber":60,"Velocity":47,"Duration":338654,"SoundDuration":338654,"Delta":9073840},{"NoteNumber":67,"Velocity":55,"Duration":173310,"SoundDuration":173310,"Delta":9239184},{"NoteNumber":74,"Velocity":63,"Duration":167056,"SoundDuration":167056,"Delta":9412495},{"NoteNumber":59,"Velocity":53,"Duration":678265,"SoundDuration":678265,"Delta":9412495},{"NoteNumber":79,"Velocity":55,"Duration":83528,"SoundDuration":83528,"Delta":9579551},{"NoteNumber":79,"Velocity":55,"Duration":83528,"SoundDuration":83528,"Delta":9746608},{"NoteNumber":79,"Velocity":55,"Duration":88547,"SoundDuration":88547,"Delta":9913664},{"NoteNumber":78,"Velocity":59,"Duration":166186,"SoundDuration":166186,"Delta":10090760},{"NoteNumber":57,"Velocity":46,"Duration":332373,"SoundDuration":332373,"Delta":10090760},{"NoteNumber":84,"Velocity":58,"Duration":83093,"SoundDuration":83093,"Delta":10256946},{"NoteNumber":84,"Velocity":60,"Duration":83093,"SoundDuration":83093,"Delta":10423133},{"NoteNumber":50,"Velocity":40,"Duration":344249,"SoundDuration":344249,"Delta":10423133},{"NoteNumber":84,"Velocity":54,"Duration":89031,"SoundDuration":89031,"Delta":10589319},{"NoteNumber":84,"Velocity":63,"Duration":166186,"SoundDuration":166186,"Delta":10767382},{"NoteNumber":55,"Velocity":46,"Duration":332373,"SoundDuration":332373,"Delta":10767382},{"NoteNumber":83,"Velocity":59,"Duration":166186,"SoundDuration":166186,"Delta":10933569},{"NoteNumber":81,"Velocity":56,"Duration":166186,"SoundDuration":166186,"Delta":11099755},{"NoteNumber":59,"Velocity":39,"Duration":339496,"SoundDuration":339496,"Delta":11099755},{"NoteNumber":79,"Velocity":49,"Duration":173310,"SoundDuration":173310,"Delta":11265942},{"NoteNumber":81,"Velocity":54,"Duration":84678,"SoundDuration":84678,"Delta":11439252},{"NoteNumber":60,"Velocity":46,"Duration":333409,"SoundDuration":333409,"Delta":11439252},{"NoteNumber":83,"Velocity":51,"Duration":83909,"SoundDuration":83909,"Delta":11523930},{"NoteNumber":81,"Velocity":54,"Duration":83019,"SoundDuration":83019,"Delta":11607840},{"NoteNumber":83,"Velocity":50,"Duration":81802,"SoundDuration":81802,"Delta":11690859},{"NoteNumber":81,"Velocity":54,"Duration":82150,"SoundDuration":82150,"Delta":11772661},{"NoteNumber":62,"Velocity":41,"Duration":338795,"SoundDuration":338795,"Delta":11772661},{"NoteNumber":83,"Velocity":48,"Duration":83815,"SoundDuration":83815,"Delta":11854812},{"NoteNumber":81,"Velocity":53,"Duration":56902,"SoundDuration":56902,"Delta":11938627},{"NoteNumber":83,"Velocity":49,"Duration":57568,"SoundDuration":57568,"Delta":11995529},{"NoteNumber":81,"Velocity":50,"Duration":58359,"SoundDuration":58359,"Delta":12053097},{"NoteNumber":79,"Velocity":66,"Duration":765575,"SoundDuration":765575,"Delta":12111457},{"NoteNumber":55,"Velocity":46,"Duration":370370,"SoundDuration":370370,"Delta":12111457},{"NoteNumber":50,"Velocity":39,"Duration":395205,"SoundDuration":395205,"Delta":12481827},{"NoteNumber":43,"Velocity":46,"Duration":691608,"SoundDuration":691608,"Delta":12877032},{"NoteNumber":64,"Velocity":67,"Duration":675143,"SoundDuration":675143,"Delta":13667442},{"NoteNumber":67,"Velocity":67,"Duration":675143,"SoundDuration":675143,"Delta":13667442},{"NoteNumber":72,"Velocity":80,"Duration":675143,"SoundDuration":675143,"Delta":13667442},{"NoteNumber":60,"Velocity":66,"Duration":675143,"SoundDuration":675143,"Delta":13667442},{"NoteNumber":48,"Velocity":56,"Duration":675143,"SoundDuration":675143,"Delta":13667442},{"NoteNumber":74,"Velocity":74,"Duration":84392,"SoundDuration":84392,"Delta":14342585},{"NoteNumber":71,"Velocity":63,"Duration":675143,"SoundDuration":675143,"Delta":14342585},{"NoteNumber":67,"Velocity":63,"Duration":675143,"SoundDuration":675143,"Delta":14342585},{"NoteNumber":55,"Velocity":58,"Duration":675143,"SoundDuration":675143,"Delta":14342585},{"NoteNumber":43,"Velocity":49,"Duration":675143,"SoundDuration":675143,"Delta":14342585},{"NoteNumber":76,"Velocity":66,"Duration":84392,"SoundDuration":84392,"Delta":14426978},{"NoteNumber":74,"Velocity":71,"Duration":84392,"SoundDuration":84392,"Delta":14511371},{"NoteNumber":76,"Velocity":63,"Duration":84392,"SoundDuration":84392,"Delta":14595764},{"NoteNumber":74,"Velocity":70,"Duration":84392,"SoundDuration":84392,"Delta":14680157},{"NoteNumber":76,"Velocity":62,"Duration":84392,"SoundDuration":84392,"Delta":14764550},{"NoteNumber":74,"Velocity":64,"Duration":56261,"SoundDuration":56261,"Delta":14848943},{"NoteNumber":76,"Velocity":64,"Duration":56261,"SoundDuration":56261,"Delta":14905205},{"NoteNumber":74,"Velocity":64,"Duration":56261,"SoundDuration":56261,"Delta":14961467},{"NoteNumber":76,"Velocity":82,"Duration":675142,"SoundDuration":675142,"Delta":15017728},{"NoteNumber":72,"Velocity":70,"Duration":675142,"SoundDuration":675142,"Delta":15017728},{"NoteNumber":67,"Velocity":70,"Duration":675142,"SoundDuration":675142,"Delta":15017728},{"NoteNumber":48,"Velocity":65,"Duration":675142,"SoundDuration":675142,"Delta":15017728},{"NoteNumber":36,"Velocity":55,"Duration":675142,"SoundDuration":675142,"Delta":15017728},{"NoteNumber":72,"Velocity":55,"Duration":84392,"SoundDuration":84392,"Delta":16030443},{"NoteNumber":74,"Velocity":56,"Duration":84392,"SoundDuration":84392,"Delta":16114836},{"NoteNumber":76,"Velocity":58,"Duration":84392,"SoundDuration":84392,"Delta":16199229},{"NoteNumber":77,"Velocity":61,"Duration":84392,"SoundDuration":84392,"Delta":16283622},{"NoteNumber":79,"Velocity":68,"Duration":337571,"SoundDuration":337571,"Delta":16368014},{"NoteNumber":64,"Velocity":42,"Duration":337571,"SoundDuration":337571,"Delta":16368014},{"NoteNumber":60,"Velocity":35,"Duration":680428,"SoundDuration":680428,"Delta":16368014},{"NoteNumber":84,"Velocity":54,"Duration":342856,"SoundDuration":342856,"Delta":16705586},{"NoteNumber":69,"Velocity":30,"Duration":342856,"SoundDuration":342856,"Delta":16705586},{"NoteNumber":83,"Velocity":61,"Duration":342857,"SoundDuration":342857,"Delta":17048443},{"NoteNumber":67,"Velocity":38,"Duration":342857,"SoundDuration":342857,"Delta":17048443},{"NoteNumber":81,"Velocity":54,"Duration":342856,"SoundDuration":342856,"Delta":17391300},{"NoteNumber":65,"Velocity":33,"Duration":342856,"SoundDuration":342856,"Delta":17391300},{"NoteNumber":79,"Velocity":65,"Duration":669622,"SoundDuration":669622,"Delta":17734157},{"NoteNumber":64,"Velocity":53,"Duration":334112,"SoundDuration":334112,"Delta":17734157},{"NoteNumber":60,"Velocity":32,"Duration":335509,"SoundDuration":335509,"Delta":18068270},{"NoteNumber":77,"Velocity":54,"Duration":84960,"SoundDuration":84960,"Delta":18403780},{"NoteNumber":62,"Velocity":47,"Duration":334698,"SoundDuration":334698,"Delta":18403780},{"NoteNumber":79,"Velocity":51,"Duration":84045,"SoundDuration":84045,"Delta":18488741},{"NoteNumber":77,"Velocity":54,"Duration":83019,"SoundDuration":83019,"Delta":18572786},{"NoteNumber":79,"Velocity":50,"Duration":82671,"SoundDuration":82671,"Delta":18655806},{"NoteNumber":77,"Velocity":54,"Duration":82672,"SoundDuration":82672,"Delta":18738478},{"NoteNumber":55,"Velocity":32,"Duration":330688,"SoundDuration":330688,"Delta":18738478},{"NoteNumber":79,"Velocity":48,"Duration":82671,"SoundDuration":82671,"Delta":18821150},{"NoteNumber":77,"Velocity":53,"Duration":55114,"SoundDuration":55114,"Delta":18903822},{"NoteNumber":79,"Velocity":49,"Duration":55114,"SoundDuration":55114,"Delta":18958937},{"NoteNumber":77,"Velocity":50,"Duration":55114,"SoundDuration":55114,"Delta":19014051},{"NoteNumber":76,"Velocity":66,"Duration":664746,"SoundDuration":664746,"Delta":19069166},{"NoteNumber":60,"Velocity":46,"Duration":332373,"SoundDuration":332373,"Delta":19069166},{"NoteNumber":48,"Velocity":35,"Duration":332373,"SoundDuration":332373,"Delta":19401539},{"NoteNumber":76,"Velocity":59,"Duration":163934,"SoundDuration":163934,"Delta":19733912},{"NoteNumber":72,"Velocity":49,"Duration":174236,"SoundDuration":174236,"Delta":19897846},{"NoteNumber":79,"Velocity":59,"Duration":166186,"SoundDuration":166186,"Delta":20072083},{"NoteNumber":60,"Velocity":40,"Duration":332373,"SoundDuration":332373,"Delta":20072083},{"NoteNumber":76,"Velocity":51,"Duration":83093,"SoundDuration":83093,"Delta":20238269},{"NoteNumber":76,"Velocity":59,"Duration":163043,"SoundDuration":163043,"Delta":20404456},{"NoteNumber":59,"Velocity":46,"Duration":336353,"SoundDuration":336353,"Delta":20404456},{"NoteNumber":74,"Velocity":51,"Duration":173310,"SoundDuration":173310,"Delta":20567499},{"NoteNumber":79,"Velocity":56,"Duration":165344,"SoundDuration":165344,"Delta":20740809},{"NoteNumber":55,"Velocity":38,"Duration":330687,"SoundDuration":330687,"Delta":20740809},{"NoteNumber":74,"Velocity":47,"Duration":82671,"SoundDuration":82671,"Delta":20906153},{"NoteNumber":74,"Velocity":59,"Duration":165344,"SoundDuration":165344,"Delta":21071497},{"NoteNumber":57,"Velocity":46,"Duration":339580,"SoundDuration":339580,"Delta":21071497},{"NoteNumber":72,"Velocity":48,"Duration":174236,"SoundDuration":174236,"Delta":21236841},{"NoteNumber":81,"Velocity":57,"Duration":164509,"SoundDuration":164509,"Delta":21411078},{"NoteNumber":50,"Velocity":42,"Duration":329019,"SoundDuration":329019,"Delta":21411078},{"NoteNumber":72,"Velocity":49,"Duration":82254,"SoundDuration":82254,"Delta":21575587},{"NoteNumber":71,"Velocity":56,"Duration":167916,"SoundDuration":167916,"Delta":21740097},{"NoteNumber":55,"Velocity":45,"Duration":335768,"SoundDuration":335768,"Delta":21740097},{"NoteNumber":67,"Velocity":47,"Duration":167852,"SoundDuration":167852,"Delta":21908014},{"NoteNumber":72,"Velocity":56,"Duration":165372,"SoundDuration":165372,"Delta":22075866},{"NoteNumber":57,"Velocity":45,"Duration":329779,"SoundDuration":329779,"Delta":22075866},{"NoteNumber":67,"Velocity":48,"Duration":164407,"SoundDuration":164407,"Delta":22241238},{"NoteNumber":74,"Velocity":57,"Duration":163756,"SoundDuration":163756,"Delta":22405646},{"NoteNumber":59,"Velocity":45,"Duration":326799,"SoundDuration":326799,"Delta":22405646},{"NoteNumber":67,"Velocity":52,"Duration":163043,"SoundDuration":163043,"Delta":22569402},{"NoteNumber":76,"Velocity":62,"Duration":162235,"SoundDuration":162235,"Delta":22732445},{"NoteNumber":60,"Velocity":47,"Duration":335545,"SoundDuration":335545,"Delta":22732445},{"NoteNumber":67,"Velocity":55,"Duration":173310,"SoundDuration":173310,"Delta":22894681},{"NoteNumber":74,"Velocity":63,"Duration":167056,"SoundDuration":167056,"Delta":23067991},{"NoteNumber":59,"Velocity":53,"Duration":678265,"SoundDuration":678265,"Delta":23067991},{"NoteNumber":79,"Velocity":55,"Duration":83528,"SoundDuration":83528,"Delta":23235048},{"NoteNumber":79,"Velocity":55,"Duration":83528,"SoundDuration":83528,"Delta":23402104},{"NoteNumber":79,"Velocity":55,"Duration":88547,"SoundDuration":88547,"Delta":23569161},{"NoteNumber":78,"Velocity":59,"Duration":166186,"SoundDuration":166186,"Delta":23746257},{"NoteNumber":57,"Velocity":46,"Duration":332373,"SoundDuration":332373,"Delta":23746257},{"NoteNumber":84,"Velocity":58,"Duration":83093,"SoundDuration":83093,"Delta":23912443},{"NoteNumber":84,"Velocity":60,"Duration":83093,"SoundDuration":83093,"Delta":24078630},{"NoteNumber":50,"Velocity":40,"Duration":352521,"SoundDuration":352521,"Delta":24078630},{"NoteNumber":84,"Velocity":54,"Duration":93167,"SoundDuration":93167,"Delta":24244816},{"NoteNumber":84,"Velocity":63,"Duration":166186,"SoundDuration":166186,"Delta":24431152},{"NoteNumber":55,"Velocity":46,"Duration":332373,"SoundDuration":332373,"Delta":24431152},{"NoteNumber":83,"Velocity":59,"Duration":166186,"SoundDuration":166186,"Delta":24597338},{"NoteNumber":81,"Velocity":56,"Duration":166186,"SoundDuration":166186,"Delta":24763525},{"NoteNumber":59,"Velocity":39,"Duration":339496,"SoundDuration":339496,"Delta":24763525},{"NoteNumber":79,"Velocity":49,"Duration":173310,"SoundDuration":173310,"Delta":24929711},{"NoteNumber":81,"Velocity":54,"Duration":84678,"SoundDuration":84678,"Delta":25103021},{"NoteNumber":60,"Velocity":46,"Duration":333409,"SoundDuration":333409,"Delta":25103021},{"NoteNumber":83,"Velocity":51,"Duration":83909,"SoundDuration":83909,"Delta":25187700},{"NoteNumber":81,"Velocity":54,"Duration":83019,"SoundDuration":83019,"Delta":25271609},{"NoteNumber":83,"Velocity":50,"Duration":81802,"SoundDuration":81802,"Delta":25354629},{"NoteNumber":81,"Velocity":54,"Duration":82150,"SoundDuration":82150,"Delta":25436431},{"NoteNumber":62,"Velocity":41,"Duration":338795,"SoundDuration":338795,"Delta":25436431},{"NoteNumber":83,"Velocity":48,"Duration":83815,"SoundDuration":83815,"Delta":25518581},{"NoteNumber":81,"Velocity":53,"Duration":56902,"SoundDuration":56902,"Delta":25602397},{"NoteNumber":83,"Velocity":49,"Duration":57568,"SoundDuration":57568,"Delta":25659299},{"NoteNumber":81,"Velocity":50,"Duration":58359,"SoundDuration":58359,"Delta":25716867},{"NoteNumber":79,"Velocity":66,"Duration":765575,"SoundDuration":765575,"Delta":25775226},{"NoteNumber":55,"Velocity":46,"Duration":370370,"SoundDuration":370370,"Delta":25775226},{"NoteNumber":50,"Velocity":39,"Duration":395205,"SoundDuration":395205,"Delta":26145597},{"NoteNumber":43,"Velocity":46,"Duration":691608,"SoundDuration":691608,"Delta":26540802},{"NoteNumber":79,"Velocity":82,"Duration":675142,"SoundDuration":675142,"Delta":27331212},{"NoteNumber":74,"Velocity":70,"Duration":675142,"SoundDuration":675142,"Delta":27331212},{"NoteNumber":71,"Velocity":70,"Duration":675142,"SoundDuration":675142,"Delta":27331212},{"NoteNumber":55,"Velocity":65,"Duration":675142,"SoundDuration":675142,"Delta":27331212},{"NoteNumber":43,"Velocity":55,"Duration":675142,"SoundDuration":675142,"Delta":27331212},{"NoteNumber":67,"Velocity":60,"Duration":168785,"SoundDuration":168785,"Delta":28006355},{"NoteNumber":69,"Velocity":53,"Duration":84627,"SoundDuration":84627,"Delta":28175141},{"NoteNumber":71,"Velocity":55,"Duration":86982,"SoundDuration":86982,"Delta":28259768},{"NoteNumber":72,"Velocity":60,"Duration":86224,"SoundDuration":86224,"Delta":28346751},{"NoteNumber":74,"Velocity":61,"Duration":85462,"SoundDuration":85462,"Delta":28432975},{"NoteNumber":76,"Velocity":63,"Duration":84682,"SoundDuration":84682,"Delta":28518438},{"NoteNumber":78,"Velocity":67,"Duration":83855,"SoundDuration":83855,"Delta":28603121},{"NoteNumber":79,"Velocity":74,"Duration":344827,"SoundDuration":344827,"Delta":28686976},{"NoteNumber":55,"Velocity":38,"Duration":1358634,"SoundDuration":1358634,"Delta":28686976},{"NoteNumber":84,"Velocity":58,"Duration":164835,"SoundDuration":164835,"Delta":29031803},{"NoteNumber":64,"Velocity":30,"Duration":339253,"SoundDuration":339253,"Delta":29031803},{"NoteNumber":79,"Velocity":46,"Duration":87209,"SoundDuration":87209,"Delta":29196639},{"NoteNumber":79,"Velocity":59,"Duration":163934,"SoundDuration":163934,"Delta":29371057},{"NoteNumber":62,"Velocity":38,"Duration":334389,"SoundDuration":334389,"Delta":29371057},{"NoteNumber":77,"Velocity":49,"Duration":85227,"SoundDuration":85227,"Delta":29534992},{"NoteNumber":77,"Velocity":54,"Duration":165745,"SoundDuration":165745,"Delta":29705446},{"NoteNumber":60,"Velocity":33,"Duration":340164,"SoundDuration":340164,"Delta":29705446},{"NoteNumber":76,"Velocity":47,"Duration":174418,"SoundDuration":174418,"Delta":29871192},{"NoteNumber":77,"Velocity":68,"Duration":675142,"SoundDuration":675142,"Delta":30045610},{"NoteNumber":62,"Velocity":51,"Duration":675142,"SoundDuration":675142,"Delta":30045610},{"NoteNumber":55,"Velocity":51,"Duration":675142,"SoundDuration":675142,"Delta":30045610},{"NoteNumber":67,"Velocity":60,"Duration":177688,"SoundDuration":177688,"Delta":30720753},{"NoteNumber":69,"Velocity":53,"Duration":88028,"SoundDuration":88028,"Delta":30898442},{"NoteNumber":71,"Velocity":55,"Duration":87269,"SoundDuration":87269,"Delta":30986471},{"NoteNumber":72,"Velocity":60,"Duration":86622,"SoundDuration":86622,"Delta":31073740},{"NoteNumber":74,"Velocity":61,"Duration":85952,"SoundDuration":85952,"Delta":31160363},{"NoteNumber":76,"Velocity":63,"Duration":85438,"SoundDuration":85438,"Delta":31246315},{"NoteNumber":78,"Velocity":67,"Duration":84650,"SoundDuration":84650,"Delta":31331753},{"NoteNumber":79,"Velocity":69,"Duration":348836,"SoundDuration":348836,"Delta":31416404},{"NoteNumber":86,"Velocity":62,"Duration":164835,"SoundDuration":164835,"Delta":31765241},{"NoteNumber":55,"Velocity":30,"Duration":339253,"SoundDuration":339253,"Delta":31765241},{"NoteNumber":84,"Velocity":51,"Duration":174418,"SoundDuration":174418,"Delta":31930076},{"NoteNumber":83,"Velocity":58,"Duration":164835,"SoundDuration":164835,"Delta":32104495},{"NoteNumber":57,"Velocity":35,"Duration":339253,"SoundDuration":339253,"Delta":32104495},{"NoteNumber":81,"Velocity":50,"Duration":174418,"SoundDuration":174418,"Delta":32269330},{"NoteNumber":79,"Velocity":56,"Duration":167597,"SoundDuration":167597,"Delta":32443749},{"NoteNumber":59,"Velocity":33,"Duration":342016,"SoundDuration":342016,"Delta":32443749},{"NoteNumber":77,"Velocity":49,"Duration":174418,"SoundDuration":174418,"Delta":32611346},{"NoteNumber":76,"Velocity":59,"Duration":165343,"SoundDuration":165343,"Delta":32785765},{"NoteNumber":60,"Velocity":46,"Duration":338654,"SoundDuration":338654,"Delta":32785765},{"NoteNumber":72,"Velocity":51,"Duration":173310,"SoundDuration":173310,"Delta":32951109},{"NoteNumber":79,"Velocity":56,"Duration":165343,"SoundDuration":165343,"Delta":33124419},{"NoteNumber":52,"Velocity":38,"Duration":330688,"SoundDuration":330688,"Delta":33124419},{"NoteNumber":76,"Velocity":53,"Duration":165344,"SoundDuration":165344,"Delta":33289763},{"NoteNumber":81,"Velocity":59,"Duration":165343,"SoundDuration":165343,"Delta":33455107},{"NoteNumber":53,"Velocity":46,"Duration":339580,"SoundDuration":339580,"Delta":33455107},{"NoteNumber":69,"Velocity":51,"Duration":174236,"SoundDuration":174236,"Delta":33620451},{"NoteNumber":77,"Velocity":55,"Duration":164509,"SoundDuration":164509,"Delta":33794687},{"NoteNumber":50,"Velocity":42,"Duration":329019,"SoundDuration":329019,"Delta":33794687},{"NoteNumber":74,"Velocity":49,"Duration":164509,"SoundDuration":164509,"Delta":33959197},{"NoteNumber":72,"Velocity":57,"Duration":705882,"SoundDuration":705882,"Delta":34123707},{"NoteNumber":55,"Velocity":46,"Duration":352941,"SoundDuration":352941,"Delta":34123707},{"NoteNumber":43,"Velocity":38,"Duration":352941,"SoundDuration":352941,"Delta":34476648},{"NoteNumber":71,"Velocity":53,"Duration":689842,"SoundDuration":689842,"Delta":34829589},{"NoteNumber":55,"Velocity":49,"Duration":174752,"SoundDuration":174752,"Delta":34829589},{"NoteNumber":53,"Velocity":47,"Duration":173028,"SoundDuration":173028,"Delta":35004341},{"NoteNumber":52,"Velocity":46,"Duration":171839,"SoundDuration":171839,"Delta":35177370},{"NoteNumber":50,"Velocity":38,"Duration":170222,"SoundDuration":170222,"Delta":35349209},{"NoteNumber":64,"Velocity":67,"Duration":675142,"SoundDuration":675142,"Delta":35519431},{"NoteNumber":67,"Velocity":67,"Duration":675142,"SoundDuration":675142,"Delta":35519431},{"NoteNumber":72,"Velocity":80,"Duration":675142,"SoundDuration":675142,"Delta":35519431},{"NoteNumber":48,"Velocity":66,"Duration":675142,"SoundDuration":675142,"Delta":35519431},{"NoteNumber":74,"Velocity":74,"Duration":84392,"SoundDuration":84392,"Delta":36194574},{"NoteNumber":71,"Velocity":63,"Duration":675142,"SoundDuration":675142,"Delta":36194574},{"NoteNumber":67,"Velocity":63,"Duration":675142,"SoundDuration":675142,"Delta":36194574},{"NoteNumber":55,"Velocity":58,"Duration":675142,"SoundDuration":675142,"Delta":36194574},{"NoteNumber":76,"Velocity":66,"Duration":84392,"SoundDuration":84392,"Delta":36278967},{"NoteNumber":74,"Velocity":71,"Duration":84392,"SoundDuration":84392,"Delta":36363360},{"NoteNumber":76,"Velocity":63,"Duration":84392,"SoundDuration":84392,"Delta":36447753},{"NoteNumber":74,"Velocity":70,"Duration":84392,"SoundDuration":84392,"Delta":36532146},{"NoteNumber":76,"Velocity":62,"Duration":84392,"SoundDuration":84392,"Delta":36616538},{"NoteNumber":74,"Velocity":64,"Duration":56261,"SoundDuration":56261,"Delta":36700931},{"NoteNumber":76,"Velocity":64,"Duration":56261,"SoundDuration":56261,"Delta":36757193},{"NoteNumber":74,"Velocity":64,"Duration":56261,"SoundDuration":56261,"Delta":36813455},{"NoteNumber":76,"Velocity":82,"Duration":675143,"SoundDuration":675143,"Delta":36869717},{"NoteNumber":72,"Velocity":70,"Duration":675143,"SoundDuration":675143,"Delta":36869717},{"NoteNumber":67,"Velocity":70,"Duration":675143,"SoundDuration":675143,"Delta":36869717},{"NoteNumber":60,"Velocity":65,"Duration":675143,"SoundDuration":675143,"Delta":36869717},{"NoteNumber":72,"Velocity":55,"Duration":84392,"SoundDuration":84392,"Delta":37882432},{"NoteNumber":74,"Velocity":56,"Duration":84392,"SoundDuration":84392,"Delta":37966824},{"NoteNumber":76,"Velocity":58,"Duration":84392,"SoundDuration":84392,"Delta":38051217},{"NoteNumber":77,"Velocity":61,"Duration":84392,"SoundDuration":84392,"Delta":38135610},{"NoteNumber":79,"Velocity":68,"Duration":337571,"SoundDuration":337571,"Delta":38220003},{"NoteNumber":64,"Velocity":42,"Duration":337571,"SoundDuration":337571,"Delta":38220003},{"NoteNumber":60,"Velocity":35,"Duration":678713,"SoundDuration":678713,"Delta":38220003},{"NoteNumber":84,"Velocity":54,"Duration":341141,"SoundDuration":341141,"Delta":38557575},{"NoteNumber":69,"Velocity":30,"Duration":341141,"SoundDuration":341141,"Delta":38557575},{"NoteNumber":83,"Velocity":61,"Duration":341141,"SoundDuration":341141,"Delta":38898716},{"NoteNumber":67,"Velocity":38,"Duration":341141,"SoundDuration":341141,"Delta":38898716},{"NoteNumber":81,"Velocity":54,"Duration":341141,"SoundDuration":341141,"Delta":39239858},{"NoteNumber":65,"Velocity":33,"Duration":341141,"SoundDuration":341141,"Delta":39239858},{"NoteNumber":79,"Velocity":65,"Duration":669622,"SoundDuration":669622,"Delta":39580999},{"NoteNumber":64,"Velocity":53,"Duration":334113,"SoundDuration":334113,"Delta":39580999},{"NoteNumber":60,"Velocity":32,"Duration":335509,"SoundDuration":335509,"Delta":39915112},{"NoteNumber":77,"Velocity":54,"Duration":84960,"SoundDuration":84960,"Delta":40250622},{"NoteNumber":62,"Velocity":47,"Duration":334698,"SoundDuration":334698,"Delta":40250622},{"NoteNumber":79,"Velocity":51,"Duration":84045,"SoundDuration":84045,"Delta":40335583},{"NoteNumber":77,"Velocity":54,"Duration":83019,"SoundDuration":83019,"Delta":40419629},{"NoteNumber":79,"Velocity":50,"Duration":82672,"SoundDuration":82672,"Delta":40502648},{"NoteNumber":77,"Velocity":54,"Duration":82671,"SoundDuration":82671,"Delta":40585320},{"NoteNumber":55,"Velocity":32,"Duration":330687,"SoundDuration":330687,"Delta":40585320},{"NoteNumber":79,"Velocity":48,"Duration":82672,"SoundDuration":82672,"Delta":40667992},{"NoteNumber":77,"Velocity":53,"Duration":55114,"SoundDuration":55114,"Delta":40750664},{"NoteNumber":79,"Velocity":49,"Duration":55114,"SoundDuration":55114,"Delta":40805779},{"NoteNumber":77,"Velocity":50,"Duration":55114,"SoundDuration":55114,"Delta":40860893},{"NoteNumber":76,"Velocity":59,"Duration":165343,"SoundDuration":165343,"Delta":40916008},{"NoteNumber":60,"Velocity":46,"Duration":338654,"SoundDuration":338654,"Delta":40916008},{"NoteNumber":72,"Velocity":51,"Duration":173310,"SoundDuration":173310,"Delta":41081352},{"NoteNumber":79,"Velocity":56,"Duration":165343,"SoundDuration":165343,"Delta":41254662},{"NoteNumber":52,"Velocity":38,"Duration":330688,"SoundDuration":330688,"Delta":41254662},{"NoteNumber":76,"Velocity":54,"Duration":165344,"SoundDuration":165344,"Delta":41420006},{"NoteNumber":81,"Velocity":59,"Duration":165343,"SoundDuration":165343,"Delta":41585350},{"NoteNumber":53,"Velocity":46,"Duration":668599,"SoundDuration":668599,"Delta":41585350},{"NoteNumber":77,"Velocity":50,"Duration":173717,"SoundDuration":173717,"Delta":41741049},{"NoteNumber":76,"Velocity":57,"Duration":164509,"SoundDuration":164509,"Delta":41924931},{"NoteNumber":74,"Velocity":49,"Duration":164509,"SoundDuration":164509,"Delta":42089440},{"NoteNumber":72,"Velocity":63,"Duration":669622,"SoundDuration":669622,"Delta":42253950},{"NoteNumber":52,"Velocity":53,"Duration":334113,"SoundDuration":334113,"Delta":42253950},{"NoteNumber":57,"Velocity":32,"Duration":335509,"SoundDuration":335509,"Delta":42588063},{"NoteNumber":74,"Velocity":51,"Duration":84960,"SoundDuration":84960,"Delta":42923573},{"NoteNumber":53,"Velocity":47,"Duration":334698,"SoundDuration":334698,"Delta":42923573},{"NoteNumber":76,"Velocity":48,"Duration":84045,"SoundDuration":84045,"Delta":43008534},{"NoteNumber":74,"Velocity":51,"Duration":83019,"SoundDuration":83019,"Delta":43092580},{"NoteNumber":76,"Velocity":47,"Duration":82672,"SoundDuration":82672,"Delta":43175599},{"NoteNumber":74,"Velocity":51,"Duration":82671,"SoundDuration":82671,"Delta":43258271},{"NoteNumber":55,"Velocity":32,"Duration":330687,"SoundDuration":330687,"Delta":43258271},{"NoteNumber":76,"Velocity":45,"Duration":82672,"SoundDuration":82672,"Delta":43340943},{"NoteNumber":74,"Velocity":50,"Duration":55114,"SoundDuration":55114,"Delta":43423615},{"NoteNumber":76,"Velocity":46,"Duration":55114,"SoundDuration":55114,"Delta":43478730},{"NoteNumber":74,"Velocity":47,"Duration":55114,"SoundDuration":55114,"Delta":43533844},{"NoteNumber":72,"Velocity":66,"Duration":791666,"SoundDuration":791666,"Delta":43588959},{"NoteNumber":48,"Velocity":46,"Duration":375000,"SoundDuration":375000,"Delta":43588959},{"NoteNumber":43,"Velocity":35,"Duration":416666,"SoundDuration":416666,"Delta":43963959},{"NoteNumber":36,"Velocity":46,"Duration":548548,"SoundDuration":548548,"Delta":44356320},{"NoteNumber":79,"Velocity":82,"Duration":675142,"SoundDuration":675142,"Delta":45107898},{"NoteNumber":74,"Velocity":70,"Duration":675142,"SoundDuration":675142,"Delta":45107898},{"NoteNumber":71,"Velocity":70,"Duration":675142,"SoundDuration":675142,"Delta":45107898},{"NoteNumber":55,"Velocity":65,"Duration":675142,"SoundDuration":675142,"Delta":45107898},{"NoteNumber":43,"Velocity":55,"Duration":675142,"SoundDuration":675142,"Delta":45107898},{"NoteNumber":67,"Velocity":60,"Duration":168785,"SoundDuration":168785,"Delta":45783041},{"NoteNumber":69,"Velocity":53,"Duration":84627,"SoundDuration":84627,"Delta":45951827},{"NoteNumber":71,"Velocity":55,"Duration":86982,"SoundDuration":86982,"Delta":46036455},{"NoteNumber":72,"Velocity":60,"Duration":86224,"SoundDuration":86224,"Delta":46123437},{"NoteNumber":74,"Velocity":61,"Duration":85462,"SoundDuration":85462,"Delta":46209662},{"NoteNumber":76,"Velocity":63,"Duration":84682,"SoundDuration":84682,"Delta":46295124},{"NoteNumber":78,"Velocity":67,"Duration":83855,"SoundDuration":83855,"Delta":46379807},{"NoteNumber":79,"Velocity":74,"Duration":344827,"SoundDuration":344827,"Delta":46463663},{"NoteNumber":55,"Velocity":38,"Duration":1358375,"SoundDuration":1358375,"Delta":46463663},{"NoteNumber":84,"Velocity":58,"Duration":159574,"SoundDuration":159574,"Delta":46808490},{"NoteNumber":64,"Velocity":30,"Duration":333992,"SoundDuration":333992,"Delta":46808490},{"NoteNumber":79,"Velocity":46,"Duration":87209,"SoundDuration":87209,"Delta":46968065},{"NoteNumber":79,"Velocity":59,"Duration":160427,"SoundDuration":160427,"Delta":47142483},{"NoteNumber":62,"Velocity":38,"Duration":330882,"SoundDuration":330882,"Delta":47142483},{"NoteNumber":77,"Velocity":49,"Duration":85227,"SoundDuration":85227,"Delta":47302911},{"NoteNumber":77,"Velocity":54,"Duration":165745,"SoundDuration":165745,"Delta":47473365},{"NoteNumber":60,"Velocity":33,"Duration":348672,"SoundDuration":348672,"Delta":47473365},{"NoteNumber":76,"Velocity":47,"Duration":182926,"SoundDuration":182926,"Delta":47639111},{"NoteNumber":77,"Velocity":70,"Duration":675142,"SoundDuration":675142,"Delta":47822038},{"NoteNumber":62,"Velocity":49,"Duration":675142,"SoundDuration":675142,"Delta":47822038},{"NoteNumber":55,"Velocity":49,"Duration":675142,"SoundDuration":675142,"Delta":47822038},{"NoteNumber":67,"Velocity":60,"Duration":177688,"SoundDuration":177688,"Delta":48497181},{"NoteNumber":69,"Velocity":53,"Duration":88028,"SoundDuration":88028,"Delta":48674869},{"NoteNumber":71,"Velocity":55,"Duration":87269,"SoundDuration":87269,"Delta":48762898},{"NoteNumber":72,"Velocity":60,"Duration":86622,"SoundDuration":86622,"Delta":48850168},{"NoteNumber":74,"Velocity":61,"Duration":85952,"SoundDuration":85952,"Delta":48936790},{"NoteNumber":76,"Velocity":63,"Duration":85438,"SoundDuration":85438,"Delta":49022742},{"NoteNumber":78,"Velocity":67,"Duration":84650,"SoundDuration":84650,"Delta":49108180},{"NoteNumber":79,"Velocity":69,"Duration":348837,"SoundDuration":348837,"Delta":49192831},{"NoteNumber":86,"Velocity":62,"Duration":162162,"SoundDuration":162162,"Delta":49541668},{"NoteNumber":55,"Velocity":30,"Duration":336580,"SoundDuration":336580,"Delta":49541668},{"NoteNumber":84,"Velocity":51,"Duration":174418,"SoundDuration":174418,"Delta":49703831},{"NoteNumber":83,"Velocity":58,"Duration":161290,"SoundDuration":161290,"Delta":49878249},{"NoteNumber":57,"Velocity":35,"Duration":335708,"SoundDuration":335708,"Delta":49878249},{"NoteNumber":81,"Velocity":50,"Duration":174418,"SoundDuration":174418,"Delta":50039539},{"NoteNumber":79,"Velocity":56,"Duration":164835,"SoundDuration":164835,"Delta":50213958},{"NoteNumber":59,"Velocity":33,"Duration":339253,"SoundDuration":339253,"Delta":50213958},{"NoteNumber":77,"Velocity":49,"Duration":174418,"SoundDuration":174418,"Delta":50378793},{"NoteNumber":76,"Velocity":59,"Duration":165343,"SoundDuration":165343,"Delta":50553212},{"NoteNumber":60,"Velocity":46,"Duration":338654,"SoundDuration":338654,"Delta":50553212},{"NoteNumber":72,"Velocity":51,"Duration":173310,"SoundDuration":173310,"Delta":50718556},{"NoteNumber":79,"Velocity":56,"Duration":165343,"SoundDuration":165343,"Delta":50891866},{"NoteNumber":52,"Velocity":38,"Duration":330688,"SoundDuration":330688,"Delta":50891866},{"NoteNumber":76,"Velocity":49,"Duration":165344,"SoundDuration":165344,"Delta":51057210},{"NoteNumber":81,"Velocity":59,"Duration":165343,"SoundDuration":165343,"Delta":51222554},{"NoteNumber":53,"Velocity":46,"Duration":339580,"SoundDuration":339580,"Delta":51222554},{"NoteNumber":69,"Velocity":42,"Duration":174236,"SoundDuration":174236,"Delta":51387898},{"NoteNumber":77,"Velocity":53,"Duration":164509,"SoundDuration":164509,"Delta":51562134},{"NoteNumber":50,"Velocity":42,"Duration":345232,"SoundDuration":345232,"Delta":51562134},{"NoteNumber":74,"Velocity":49,"Duration":180723,"SoundDuration":180723,"Delta":51726644},{"NoteNumber":72,"Velocity":57,"Duration":705882,"SoundDuration":705882,"Delta":51907367},{"NoteNumber":55,"Velocity":46,"Duration":352941,"SoundDuration":352941,"Delta":51907367},{"NoteNumber":43,"Velocity":38,"Duration":352941,"SoundDuration":352941,"Delta":52260308},{"NoteNumber":71,"Velocity":53,"Duration":689842,"SoundDuration":689842,"Delta":52613249},{"NoteNumber":55,"Velocity":49,"Duration":174752,"SoundDuration":174752,"Delta":52613249},{"NoteNumber":53,"Velocity":47,"Duration":173028,"SoundDuration":173028,"Delta":52788001},{"NoteNumber":52,"Velocity":46,"Duration":171839,"SoundDuration":171839,"Delta":52961030},{"NoteNumber":50,"Velocity":38,"Duration":170222,"SoundDuration":170222,"Delta":53132869},{"NoteNumber":64,"Velocity":67,"Duration":675142,"SoundDuration":675142,"Delta":53303091},{"NoteNumber":67,"Velocity":67,"Duration":675142,"SoundDuration":675142,"Delta":53303091},{"NoteNumber":72,"Velocity":80,"Duration":675142,"SoundDuration":675142,"Delta":53303091},{"NoteNumber":48,"Velocity":66,"Duration":675142,"SoundDuration":675142,"Delta":53303091},{"NoteNumber":74,"Velocity":74,"Duration":84392,"SoundDuration":84392,"Delta":53978234},{"NoteNumber":71,"Velocity":63,"Duration":675142,"SoundDuration":675142,"Delta":53978234},{"NoteNumber":67,"Velocity":63,"Duration":675142,"SoundDuration":675142,"Delta":53978234},{"NoteNumber":55,"Velocity":58,"Duration":675142,"SoundDuration":675142,"Delta":53978234},{"NoteNumber":76,"Velocity":66,"Duration":84392,"SoundDuration":84392,"Delta":54062627},{"NoteNumber":74,"Velocity":71,"Duration":84392,"SoundDuration":84392,"Delta":54147020},{"NoteNumber":76,"Velocity":63,"Duration":84392,"SoundDuration":84392,"Delta":54231413},{"NoteNumber":74,"Velocity":70,"Duration":84392,"SoundDuration":84392,"Delta":54315806},{"NoteNumber":76,"Velocity":62,"Duration":84392,"SoundDuration":84392,"Delta":54400199},{"NoteNumber":74,"Velocity":64,"Duration":56261,"SoundDuration":56261,"Delta":54484591},{"NoteNumber":76,"Velocity":64,"Duration":56261,"SoundDuration":56261,"Delta":54540853},{"NoteNumber":74,"Velocity":64,"Duration":56261,"SoundDuration":56261,"Delta":54597115},{"NoteNumber":76,"Velocity":82,"Duration":675143,"SoundDuration":675143,"Delta":54653377},{"NoteNumber":72,"Velocity":70,"Duration":675143,"SoundDuration":675143,"Delta":54653377},{"NoteNumber":67,"Velocity":70,"Duration":675143,"SoundDuration":675143,"Delta":54653377},{"NoteNumber":60,"Velocity":65,"Duration":675143,"SoundDuration":675143,"Delta":54653377},{"NoteNumber":72,"Velocity":55,"Duration":84392,"SoundDuration":84392,"Delta":55666092},{"NoteNumber":74,"Velocity":56,"Duration":84392,"SoundDuration":84392,"Delta":55750485},{"NoteNumber":76,"Velocity":58,"Duration":84392,"SoundDuration":84392,"Delta":55834877},{"NoteNumber":77,"Velocity":61,"Duration":84392,"SoundDuration":84392,"Delta":55919270},{"NoteNumber":79,"Velocity":68,"Duration":337571,"SoundDuration":337571,"Delta":56003663},{"NoteNumber":64,"Velocity":42,"Duration":337571,"SoundDuration":337571,"Delta":56003663},{"NoteNumber":60,"Velocity":35,"Duration":678712,"SoundDuration":678712,"Delta":56003663},{"NoteNumber":84,"Velocity":54,"Duration":341141,"SoundDuration":341141,"Delta":56341235},{"NoteNumber":69,"Velocity":30,"Duration":341141,"SoundDuration":341141,"Delta":56341235},{"NoteNumber":83,"Velocity":61,"Duration":341141,"SoundDuration":341141,"Delta":56682376},{"NoteNumber":67,"Velocity":38,"Duration":341141,"SoundDuration":341141,"Delta":56682376},{"NoteNumber":81,"Velocity":54,"Duration":341141,"SoundDuration":341141,"Delta":57023518},{"NoteNumber":65,"Velocity":33,"Duration":341141,"SoundDuration":341141,"Delta":57023518},{"NoteNumber":79,"Velocity":65,"Duration":669622,"SoundDuration":669622,"Delta":57364659},{"NoteNumber":64,"Velocity":53,"Duration":334113,"SoundDuration":334113,"Delta":57364659},{"NoteNumber":60,"Velocity":32,"Duration":335509,"SoundDuration":335509,"Delta":57698772},{"NoteNumber":77,"Velocity":54,"Duration":84960,"SoundDuration":84960,"Delta":58034282},{"NoteNumber":62,"Velocity":47,"Duration":334698,"SoundDuration":334698,"Delta":58034282},{"NoteNumber":79,"Velocity":51,"Duration":84045,"SoundDuration":84045,"Delta":58119243},{"NoteNumber":77,"Velocity":54,"Duration":83019,"SoundDuration":83019,"Delta":58203289},{"NoteNumber":79,"Velocity":50,"Duration":82672,"SoundDuration":82672,"Delta":58286308},{"NoteNumber":77,"Velocity":54,"Duration":82671,"SoundDuration":82671,"Delta":58368980},{"NoteNumber":55,"Velocity":32,"Duration":330687,"SoundDuration":330687,"Delta":58368980},{"NoteNumber":79,"Velocity":48,"Duration":82672,"SoundDuration":82672,"Delta":58451652},{"NoteNumber":77,"Velocity":53,"Duration":55114,"SoundDuration":55114,"Delta":58534324},{"NoteNumber":79,"Velocity":49,"Duration":55114,"SoundDuration":55114,"Delta":58589439},{"NoteNumber":77,"Velocity":50,"Duration":55114,"SoundDuration":55114,"Delta":58644553},{"NoteNumber":76,"Velocity":59,"Duration":167597,"SoundDuration":167597,"Delta":58699668},{"NoteNumber":60,"Velocity":46,"Duration":340907,"SoundDuration":340907,"Delta":58699668},{"NoteNumber":72,"Velocity":51,"Duration":173310,"SoundDuration":173310,"Delta":58867266},{"NoteNumber":79,"Velocity":56,"Duration":163043,"SoundDuration":163043,"Delta":59040576},{"NoteNumber":52,"Velocity":38,"Duration":330641,"SoundDuration":330641,"Delta":59040576},{"NoteNumber":76,"Velocity":47,"Duration":167597,"SoundDuration":167597,"Delta":59203620},{"NoteNumber":81,"Velocity":62,"Duration":167597,"SoundDuration":167597,"Delta":59371217},{"NoteNumber":53,"Velocity":46,"Duration":673325,"SoundDuration":673325,"Delta":59371217},{"NoteNumber":77,"Velocity":54,"Duration":173849,"SoundDuration":173849,"Delta":59529039},{"NoteNumber":76,"Velocity":58,"Duration":165745,"SoundDuration":165745,"Delta":59713051},{"NoteNumber":74,"Velocity":49,"Duration":165745,"SoundDuration":165745,"Delta":59878797},{"NoteNumber":72,"Velocity":65,"Duration":682138,"SoundDuration":682138,"Delta":60044543},{"NoteNumber":52,"Velocity":53,"Duration":340909,"SoundDuration":340909,"Delta":60044543},{"NoteNumber":57,"Velocity":32,"Duration":341229,"SoundDuration":341229,"Delta":60385452},{"NoteNumber":74,"Velocity":51,"Duration":84960,"SoundDuration":84960,"Delta":60726682},{"NoteNumber":53,"Velocity":47,"Duration":334698,"SoundDuration":334698,"Delta":60726682},{"NoteNumber":76,"Velocity":48,"Duration":84045,"SoundDuration":84045,"Delta":60811643},{"NoteNumber":74,"Velocity":51,"Duration":83019,"SoundDuration":83019,"Delta":60895688},{"NoteNumber":76,"Velocity":47,"Duration":82672,"SoundDuration":82672,"Delta":60978708},{"NoteNumber":74,"Velocity":51,"Duration":82677,"SoundDuration":82677,"Delta":61061380},{"NoteNumber":55,"Velocity":32,"Duration":340031,"SoundDuration":340031,"Delta":61061380},{"NoteNumber":76,"Velocity":45,"Duration":83911,"SoundDuration":83911,"Delta":61144057},{"NoteNumber":74,"Velocity":50,"Duration":57070,"SoundDuration":57070,"Delta":61227968},{"NoteNumber":76,"Velocity":46,"Duration":57754,"SoundDuration":57754,"Delta":61285038},{"NoteNumber":74,"Velocity":47,"Duration":58618,"SoundDuration":58618,"Delta":61342793},{"NoteNumber":72,"Velocity":66,"Duration":961246,"SoundDuration":961246,"Delta":61401411},{"NoteNumber":48,"Velocity":46,"Duration":425531,"SoundDuration":425531,"Delta":61401411},{"NoteNumber":43,"Velocity":35,"Duration":535714,"SoundDuration":535714,"Delta":61826943},{"NoteNumber":36,"Velocity":46,"Duration":737310,"SoundDuration":737310,"Delta":62331408}]}