{"title":"Finale","artist":"Haydn","durationMs":90397,"midiSha256":"3754252472d72acddae0087c285dfc58faea7828e9363070dc0266250d8c5931","midiObject":[{"NoteNumber":72,"Velocity":60,"Duration":530786,"SoundDuration":530786,"Delta":0},{"NoteNumber":60,"Velocity":40,"Duration":132696,"SoundDuration":132696,"Delta":0},{"NoteNumber":67,"Velocity":32,"Duration":132696,"SoundDuration":132696,"Delta":132696},{"NoteNumber":64,"Velocity":40,"Duration":132696,"SoundDuration":132696,"Delta":265393},{"NoteNumber":67,"Velocity":32,"Duration":132696,"SoundDuration":132696,"Delta":398089},{"NoteNumber":76,"Velocity":55,"Duration":88464,"SoundDuration":88464,"Delta":530786},{"NoteNumber":60,"Velocity":40,"Duration":132696,"SoundDuration":132696,"Delta":530786},{"NoteNumber":74,"Velocity":49,"Duration":88464,"SoundDuration":88464,"Delta":619250},{"NoteNumber":67,"Velocity":33,"Duration":143507,"SoundDuration":143507,"Delta":663482},{"NoteNumber":72,"Velocity":49,"Duration":99275,"SoundDuration":99275,"Delta":707714},{"NoteNumber":79,"Velocity":60,"Duration":538450,"SoundDuration":538450,"Delta":806990},{"NoteNumber":59,"Velocity":40,"Duration":132473,"SoundDuration":132473,"Delta":806990},{"NoteNumber":67,"Velocity":32,"Duration":132473,"SoundDuration":132473,"Delta":939463},{"NoteNumber":62,"Velocity":37,"Duration":132473,"SoundDuration":132473,"Delta":1071937},{"NoteNumber":67,"Velocity":33,"Duration":141028,"SoundDuration":141028,"Delta":1204411},{"NoteNumber":77,"Velocity":52,"Duration":264947,"SoundDuration":264947,"Delta":1345440},{"NoteNumber":59,"Velocity":40,"Duration":132473,"SoundDuration":132473,"Delta":1345440},{"NoteNumber":67,"Velocity":35,"Duration":132473,"SoundDuration":132473,"Delta":1477913},{"NoteNumber":76,"Velocity":60,"Duration":541859,"SoundDuration":541859,"Delta":1610387},{"NoteNumber":60,"Velocity":40,"Duration":541859,"SoundDuration":541859,"Delta":1610387},{"NoteNumber":76,"Velocity":60,"Duration":132473,"SoundDuration":132473,"Delta":2152246},{"NoteNumber":60,"Velocity":36,"Duration":264947,"SoundDuration":264947,"Delta":2152246},{"NoteNumber":67,"Velocity":40,"Duration":132473,"SoundDuration":132473,"Delta":2284720},{"NoteNumber":74,"Velocity":60,"Duration":132473,"SoundDuration":132473,"Delta":2417194},{"NoteNumber":59,"Velocity":40,"Duration":528729,"SoundDuration":528729,"Delta":2417194},{"NoteNumber":67,"Velocity":35,"Duration":132473,"SoundDuration":132473,"Delta":2549667},{"NoteNumber":74,"Velocity":60,"Duration":131891,"SoundDuration":131891,"Delta":2682141},{"NoteNumber":67,"Velocity":39,"Duration":131891,"SoundDuration":131891,"Delta":2814032},{"NoteNumber":76,"Velocity":61,"Duration":131891,"SoundDuration":131891,"Delta":2945924},{"NoteNumber":60,"Velocity":43,"Duration":263782,"SoundDuration":263782,"Delta":2945924},{"NoteNumber":67,"Velocity":38,"Duration":131891,"SoundDuration":131891,"Delta":3077815},{"NoteNumber":77,"Velocity":63,"Duration":131891,"SoundDuration":131891,"Delta":3209706},{"NoteNumber":62,"Velocity":48,"Duration":263782,"SoundDuration":263782,"Delta":3209706},{"NoteNumber":67,"Velocity":37,"Duration":131891,"SoundDuration":131891,"Delta":3341597},{"NoteNumber":76,"Velocity":60,"Duration":131891,"SoundDuration":131891,"Delta":3473489},{"NoteNumber":60,"Velocity":45,"Duration":263782,"SoundDuration":263782,"Delta":3473489},{"NoteNumber":67,"Velocity":38,"Duration":131891,"SoundDuration":131891,"Delta":3605380},{"NoteNumber":74,"Velocity":58,"Duration":133653,"SoundDuration":133653,"Delta":3737271},{"NoteNumber":59,"Velocity":40,"Duration":267307,"SoundDuration":267307,"Delta":3737271},{"NoteNumber":67,"Velocity":38,"Duration":133653,"SoundDuration":133653,"Delta":3870925},{"NoteNumber":76,"Velocity":60,"Duration":534615,"SoundDuration":534615,"Delta":4004579},{"NoteNumber":60,"Velocity":43,"Duration":534615,"SoundDuration":534615,"Delta":4004579},{"NoteNumber":67,"Velocity":55,"Duration":91132,"SoundDuration":91132,"Delta":4539195},{"NoteNumber":69,"Velocity":55,"Duration":91132,"SoundDuration":91132,"Delta":4630328},{"NoteNumber":71,"Velocity":55,"Duration":100270,"SoundDuration":100270,"Delta":4721461},{"NoteNumber":72,"Velocity":60,"Duration":534615,"SoundDuration":534615,"Delta":4821731},{"NoteNumber":60,"Velocity":40,"Duration":133653,"SoundDuration":133653,"Delta":4821731},{"NoteNumber":67,"Velocity":32,"Duration":133653,"SoundDuration":133653,"Delta":4955385},{"NoteNumber":64,"Velocity":40,"Duration":133653,"SoundDuration":133653,"Delta":5089039},{"NoteNumber":67,"Velocity":32,"Duration":133653,"SoundDuration":133653,"Delta":5222693},{"NoteNumber":76,"Velocity":55,"Duration":89102,"SoundDuration":89102,"Delta":5356347},{"NoteNumber":60,"Velocity":40,"Duration":133653,"SoundDuration":133653,"Delta":5356347},{"NoteNumber":74,"Velocity":49,"Duration":89102,"SoundDuration":89102,"Delta":5445450},{"NoteNumber":67,"Velocity":33,"Duration":141422,"SoundDuration":141422,"Delta":5490001},{"NoteNumber":72,"Velocity":49,"Duration":96870,"SoundDuration":96870,"Delta":5534553},{"NoteNumber":79,"Velocity":60,"Duration":534615,"SoundDuration":534615,"Delta":5631424},{"NoteNumber":59,"Velocity":40,"Duration":133653,"SoundDuration":133653,"Delta":5631424},{"NoteNumber":67,"Velocity":32,"Duration":133653,"SoundDuration":133653,"Delta":5765078},{"NoteNumber":62,"Velocity":37,"Duration":133653,"SoundDuration":133653,"Delta":5898732},{"NoteNumber":67,"Velocity":33,"Duration":133653,"SoundDuration":133653,"Delta":6032386},{"NoteNumber":77,"Velocity":52,"Duration":279772,"SoundDuration":279772,"Delta":6166040},{"NoteNumber":59,"Velocity":40,"Duration":139886,"SoundDuration":139886,"Delta":6166040},{"NoteNumber":67,"Velocity":35,"Duration":139886,"SoundDuration":139886,"Delta":6305926},{"NoteNumber":76,"Velocity":60,"Duration":534615,"SoundDuration":534615,"Delta":6445812},{"NoteNumber":60,"Velocity":40,"Duration":534615,"SoundDuration":534615,"Delta":6445812},{"NoteNumber":76,"Velocity":60,"Duration":133653,"SoundDuration":133653,"Delta":6980428},{"NoteNumber":60,"Velocity":36,"Duration":267307,"SoundDuration":267307,"Delta":6980428},{"NoteNumber":67,"Velocity":40,"Duration":133653,"SoundDuration":133653,"Delta":7114082},{"NoteNumber":74,"Velocity":60,"Duration":132473,"SoundDuration":132473,"Delta":7247736},{"NoteNumber":59,"Velocity":40,"Duration":529894,"SoundDuration":529894,"Delta":7247736},{"NoteNumber":67,"Velocity":35,"Duration":132473,"SoundDuration":132473,"Delta":7380210},{"NoteNumber":74,"Velocity":60,"Duration":132473,"SoundDuration":132473,"Delta":7512684},{"NoteNumber":67,"Velocity":39,"Duration":132473,"SoundDuration":132473,"Delta":7645158},{"NoteNumber":76,"Velocity":61,"Duration":132473,"SoundDuration":132473,"Delta":7777631},{"NoteNumber":60,"Velocity":43,"Duration":264947,"SoundDuration":264947,"Delta":7777631},{"NoteNumber":67,"Velocity":38,"Duration":132473,"SoundDuration":132473,"Delta":7910105},{"NoteNumber":74,"Velocity":63,"Duration":133653,"SoundDuration":133653,"Delta":8042579},{"NoteNumber":59,"Velocity":48,"Duration":534615,"SoundDuration":534615,"Delta":8042579},{"NoteNumber":67,"Velocity":37,"Duration":133653,"SoundDuration":133653,"Delta":8176233},{"NoteNumber":74,"Velocity":60,"Duration":133653,"SoundDuration":133653,"Delta":8309887},{"NoteNumber":67,"Velocity":38,"Duration":133653,"SoundDuration":133653,"Delta":8443541},{"NoteNumber":72,"Velocity":58,"Duration":136079,"SoundDuration":136079,"Delta":8577195},{"NoteNumber":52,"Velocity":40,"Duration":272157,"SoundDuration":272157,"Delta":8577195},{"NoteNumber":67,"Velocity":38,"Duration":136078,"SoundDuration":136078,"Delta":8713274},{"NoteNumber":71,"Velocity":63,"Duration":133653,"SoundDuration":133653,"Delta":8849353},{"NoteNumber":50,"Velocity":50,"Duration":534615,"SoundDuration":534615,"Delta":8849353},{"NoteNumber":74,"Velocity":51,"Duration":133653,"SoundDuration":133653,"Delta":8983007},{"NoteNumber":71,"Velocity":58,"Duration":133653,"SoundDuration":133653,"Delta":9116661},{"NoteNumber":67,"Velocity":50,"Duration":133653,"SoundDuration":133653,"Delta":9250315},{"NoteNumber":69,"Velocity":57,"Duration":133653,"SoundDuration":133653,"Delta":9383969},{"NoteNumber":38,"Velocity":40,"Duration":284328,"SoundDuration":284328,"Delta":9383969},{"NoteNumber":66,"Velocity":53,"Duration":150674,"SoundDuration":150674,"Delta":9517623},{"NoteNumber":67,"Velocity":63,"Duration":537008,"SoundDuration":537008,"Delta":9668297},{"NoteNumber":43,"Velocity":62,"Duration":134252,"SoundDuration":134252,"Delta":9668297},{"NoteNumber":55,"Velocity":48,"Duration":134252,"SoundDuration":134252,"Delta":9802550},{"NoteNumber":45,"Velocity":57,"Duration":134252,"SoundDuration":134252,"Delta":9936802},{"NoteNumber":57,"Velocity":49,"Duration":134252,"SoundDuration":134252,"Delta":10071054},{"NoteNumber":47,"Velocity":60,"Duration":134252,"SoundDuration":134252,"Delta":10205306},{"NoteNumber":59,"Velocity":50,"Duration":143050,"SoundDuration":143050,"Delta":10339559},{"NoteNumber":45,"Velocity":62,"Duration":132473,"SoundDuration":132473,"Delta":10482609},{"NoteNumber":57,"Velocity":51,"Duration":132473,"SoundDuration":132473,"Delta":10615083},{"NoteNumber":47,"Velocity":62,"Duration":132473,"SoundDuration":132473,"Delta":10747556},{"NoteNumber":59,"Velocity":52,"Duration":132473,"SoundDuration":132473,"Delta":10880030},{"NoteNumber":48,"Velocity":66,"Duration":132473,"SoundDuration":132473,"Delta":11012504},{"NoteNumber":60,"Velocity":55,"Duration":141500,"SoundDuration":141500,"Delta":11144978},{"NoteNumber":47,"Velocity":66,"Duration":132473,"SoundDuration":132473,"Delta":11286478},{"NoteNumber":59,"Velocity":55,"Duration":132473,"SoundDuration":132473,"Delta":11418952},{"NoteNumber":48,"Velocity":66,"Duration":132473,"SoundDuration":132473,"Delta":11551426},{"NoteNumber":60,"Velocity":57,"Duration":132473,"SoundDuration":132473,"Delta":11683899},{"NoteNumber":50,"Velocity":69,"Duration":132473,"SoundDuration":132473,"Delta":11816373},{"NoteNumber":62,"Velocity":62,"Duration":156227,"SoundDuration":156227,"Delta":11948847},{"NoteNumber":52,"Velocity":62,"Duration":545033,"SoundDuration":545033,"Delta":12105075},{"NoteNumber":64,"Velocity":71,"Duration":545033,"SoundDuration":545033,"Delta":12105075},{"NoteNumber":84,"Velocity":63,"Duration":87542,"SoundDuration":87542,"Delta":12387481},{"NoteNumber":83,"Velocity":57,"Duration":87542,"SoundDuration":87542,"Delta":12475023},{"NoteNumber":81,"Velocity":57,"Duration":87542,"SoundDuration":87542,"Delta":12562566},{"NoteNumber":79,"Velocity":63,"Duration":90309,"SoundDuration":90309,"Delta":12650109},{"NoteNumber":78,"Velocity":57,"Duration":90309,"SoundDuration":90309,"Delta":12740419},{"NoteNumber":76,"Velocity":56,"Duration":97818,"SoundDuration":97818,"Delta":12830728},{"NoteNumber":74,"Velocity":63,"Duration":133061,"SoundDuration":133061,"Delta":12928547},{"NoteNumber":54,"Velocity":50,"Duration":532244,"SoundDuration":532244,"Delta":12928547},{"NoteNumber":81,"Velocity":55,"Duration":133061,"SoundDuration":133061,"Delta":13061608},{"NoteNumber":84,"Velocity":59,"Duration":133061,"SoundDuration":133061,"Delta":13194670},{"NoteNumber":81,"Velocity":52,"Duration":133061,"SoundDuration":133061,"Delta":13327731},{"NoteNumber":83,"Velocity":61,"Duration":133061,"SoundDuration":133061,"Delta":13460792},{"NoteNumber":55,"Velocity":46,"Duration":275233,"SoundDuration":275233,"Delta":13460792},{"NoteNumber":79,"Velocity":56,"Duration":142172,"SoundDuration":142172,"Delta":13593853},{"NoteNumber":81,"Velocity":63,"Duration":287824,"SoundDuration":287824,"Delta":13736026},{"NoteNumber":60,"Velocity":50,"Duration":287824,"SoundDuration":287824,"Delta":13736026},{"NoteNumber":79,"Velocity":58,"Duration":287824,"SoundDuration":287824,"Delta":14023851},{"NoteNumber":62,"Velocity":42,"Duration":287824,"SoundDuration":287824,"Delta":14023851},{"NoteNumber":78,"Velocity":53,"Duration":57565,"SoundDuration":57565,"Delta":14311676},{"NoteNumber":50,"Velocity":42,"Duration":297446,"SoundDuration":297446,"Delta":14311676},{"NoteNumber":79,"Velocity":48,"Duration":57565,"SoundDuration":57565,"Delta":14369241},{"NoteNumber":78,"Velocity":53,"Duration":57565,"SoundDuration":57565,"Delta":14426806},{"NoteNumber":79,"Velocity":48,"Duration":61413,"SoundDuration":61413,"Delta":14484371},{"NoteNumber":78,"Velocity":48,"Duration":63337,"SoundDuration":63337,"Delta":14545784},{"NoteNumber":71,"Velocity":63,"Duration":537008,"SoundDuration":537008,"Delta":14609122},{"NoteNumber":74,"Velocity":63,"Duration":537008,"SoundDuration":537008,"Delta":14609122},{"NoteNumber":79,"Velocity":63,"Duration":537008,"SoundDuration":537008,"Delta":14609122},{"NoteNumber":43,"Velocity":62,"Duration":134252,"SoundDuration":134252,"Delta":14609122},{"NoteNumber":55,"Velocity":48,"Duration":134252,"SoundDuration":134252,"Delta":14743375},{"NoteNumber":45,"Velocity":57,"Duration":134252,"SoundDuration":134252,"Delta":14877627},{"NoteNumber":57,"Velocity":49,"Duration":134252,"SoundDuration":134252,"Delta":15011879},{"NoteNumber":47,"Velocity":60,"Duration":134252,"SoundDuration":134252,"Delta":15146131},{"NoteNumber":59,"Velocity":50,"Duration":146037,"SoundDuration":146037,"Delta":15280384},{"NoteNumber":45,"Velocity":62,"Duration":132473,"SoundDuration":132473,"Delta":15426421},{"NoteNumber":57,"Velocity":51,"Duration":132473,"SoundDuration":132473,"Delta":15558894},{"NoteNumber":47,"Velocity":62,"Duration":132473,"SoundDuration":132473,"Delta":15691368},{"NoteNumber":59,"Velocity":52,"Duration":132473,"SoundDuration":132473,"Delta":15823842},{"NoteNumber":48,"Velocity":66,"Duration":132473,"SoundDuration":132473,"Delta":15956316},{"NoteNumber":60,"Velocity":55,"Duration":138293,"SoundDuration":138293,"Delta":16088789},{"NoteNumber":47,"Velocity":66,"Duration":130741,"SoundDuration":130741,"Delta":16227083},{"NoteNumber":59,"Velocity":55,"Duration":130741,"SoundDuration":130741,"Delta":16357824},{"NoteNumber":48,"Velocity":66,"Duration":130741,"SoundDuration":130741,"Delta":16488566},{"NoteNumber":60,"Velocity":57,"Duration":130741,"SoundDuration":130741,"Delta":16619308},{"NoteNumber":50,"Velocity":69,"Duration":130741,"SoundDuration":130741,"Delta":16750050},{"NoteNumber":62,"Velocity":62,"Duration":150842,"SoundDuration":150842,"Delta":16880791},{"NoteNumber":52,"Velocity":62,"Duration":549718,"SoundDuration":549718,"Delta":17031634},{"NoteNumber":64,"Velocity":71,"Duration":549718,"SoundDuration":549718,"Delta":17031634},{"NoteNumber":84,"Velocity":63,"Duration":84940,"SoundDuration":84940,"Delta":17326532},{"NoteNumber":83,"Velocity":57,"Duration":84940,"SoundDuration":84940,"Delta":17411472},{"NoteNumber":81,"Velocity":57,"Duration":84940,"SoundDuration":84940,"Delta":17496412},{"NoteNumber":79,"Velocity":63,"Duration":89102,"SoundDuration":89102,"Delta":17581353},{"NoteNumber":78,"Velocity":57,"Duration":89102,"SoundDuration":89102,"Delta":17670455},{"NoteNumber":76,"Velocity":56,"Duration":89102,"SoundDuration":89102,"Delta":17759558},{"NoteNumber":74,"Velocity":63,"Duration":133653,"SoundDuration":133653,"Delta":17848661},{"NoteNumber":54,"Velocity":50,"Duration":534615,"SoundDuration":534615,"Delta":17848661},{"NoteNumber":81,"Velocity":55,"Duration":133653,"SoundDuration":133653,"Delta":17982315},{"NoteNumber":84,"Velocity":59,"Duration":133653,"SoundDuration":133653,"Delta":18115969},{"NoteNumber":81,"Velocity":52,"Duration":133653,"SoundDuration":133653,"Delta":18249623},{"NoteNumber":83,"Velocity":61,"Duration":137325,"SoundDuration":137325,"Delta":18383277},{"NoteNumber":55,"Velocity":46,"Duration":284386,"SoundDuration":284386,"Delta":18383277},{"NoteNumber":79,"Velocity":56,"Duration":147061,"SoundDuration":147061,"Delta":18520602},{"NoteNumber":81,"Velocity":63,"Duration":290613,"SoundDuration":290613,"Delta":18667663},{"NoteNumber":60,"Velocity":50,"Duration":290613,"SoundDuration":290613,"Delta":18667663},{"NoteNumber":79,"Velocity":58,"Duration":290613,"SoundDuration":290613,"Delta":18958276},{"NoteNumber":62,"Velocity":42,"Duration":290613,"SoundDuration":290613,"Delta":18958276},{"NoteNumber":78,"Velocity":53,"Duration":60162,"SoundDuration":60162,"Delta":19248889},{"NoteNumber":50,"Velocity":42,"Duration":300812,"SoundDuration":300812,"Delta":19248889},{"NoteNumber":79,"Velocity":48,"Duration":60162,"SoundDuration":60162,"Delta":19309051},{"NoteNumber":78,"Velocity":53,"Duration":60162,"SoundDuration":60162,"Delta":19369214},{"NoteNumber":79,"Velocity":48,"Duration":60162,"SoundDuration":60162,"Delta":19429376},{"NoteNumber":78,"Velocity":48,"Duration":60162,"SoundDuration":60162,"Delta":19489539},{"NoteNumber":71,"Velocity":63,"Duration":603597,"SoundDuration":603597,"Delta":19549701},{"NoteNumber":74,"Velocity":63,"Duration":603597,"SoundDuration":603597,"Delta":19549701},{"NoteNumber":79,"Velocity":63,"Duration":603597,"SoundDuration":603597,"Delta":19549701},{"NoteNumber":55,"Velocity":50,"Duration":293455,"SoundDuration":293455,"Delta":19549701},{"NoteNumber":50,"Velocity":38,"Duration":310141,"SoundDuration":310141,"Delta":19843157},{"NoteNumber":43,"Velocity":46,"Duration":356167,"SoundDuration":356167,"Delta":20153298},{"NoteNumber":72,"Velocity":60,"Duration":530785,"SoundDuration":530785,"Delta":20509466},{"NoteNumber":60,"Velocity":40,"Duration":132696,"SoundDuration":132696,"Delta":20509466},{"NoteNumber":67,"Velocity":32,"Duration":132696,"SoundDuration":132696,"Delta":20642162},{"NoteNumber":64,"Velocity":40,"Duration":132696,"SoundDuration":132696,"Delta":20774859},{"NoteNumber":67,"Velocity":32,"Duration":132696,"SoundDuration":132696,"Delta":20907555},{"NoteNumber":76,"Velocity":55,"Duration":88464,"SoundDuration":88464,"Delta":21040252},{"NoteNumber":60,"Velocity":40,"Duration":132696,"SoundDuration":132696,"Delta":21040252},{"NoteNumber":74,"Velocity":49,"Duration":88464,"SoundDuration":88464,"Delta":21128716},{"NoteNumber":67,"Velocity":33,"Duration":143507,"SoundDuration":143507,"Delta":21172948},{"NoteNumber":72,"Velocity":49,"Duration":99275,"SoundDuration":99275,"Delta":21217181},{"NoteNumber":79,"Velocity":60,"Duration":538450,"SoundDuration":538450,"Delta":21316456},{"NoteNumber":59,"Velocity":40,"Duration":132473,"SoundDuration":132473,"Delta":21316456},{"NoteNumber":67,"Velocity":32,"Duration":132473,"SoundDuration":132473,"Delta":21448930},{"NoteNumber":62,"Velocity":37,"Duration":132473,"SoundDuration":132473,"Delta":21581403},{"NoteNumber":67,"Velocity":33,"Duration":141028,"SoundDuration":141028,"Delta":21713877},{"NoteNumber":77,"Velocity":52,"Duration":264947,"SoundDuration":264947,"Delta":21854906},{"NoteNumber":59,"Velocity":40,"Duration":132473,"SoundDuration":132473,"Delta":21854906},{"NoteNumber":67,"Velocity":35,"Duration":132473,"SoundDuration":132473,"Delta":21987380},{"NoteNumber":76,"Velocity":60,"Duration":537009,"SoundDuration":537009,"Delta":22119854},{"NoteNumber":60,"Velocity":40,"Duration":537009,"SoundDuration":537009,"Delta":22119854},{"NoteNumber":76,"Velocity":60,"Duration":134252,"SoundDuration":134252,"Delta":22656863},{"NoteNumber":60,"Velocity":36,"Duration":268504,"SoundDuration":268504,"Delta":22656863},{"NoteNumber":67,"Velocity":40,"Duration":134252,"SoundDuration":134252,"Delta":22791115},{"NoteNumber":74,"Velocity":60,"Duration":132473,"SoundDuration":132473,"Delta":22925367},{"NoteNumber":59,"Velocity":40,"Duration":528730,"SoundDuration":528730,"Delta":22925367},{"NoteNumber":67,"Velocity":35,"Duration":132473,"SoundDuration":132473,"Delta":23057841},{"NoteNumber":74,"Velocity":60,"Duration":131891,"SoundDuration":131891,"Delta":23190315},{"NoteNumber":67,"Velocity":39,"Duration":131891,"SoundDuration":131891,"Delta":23322206},{"NoteNumber":76,"Velocity":61,"Duration":131891,"SoundDuration":131891,"Delta":23454097},{"NoteNumber":60,"Velocity":43,"Duration":263782,"SoundDuration":263782,"Delta":23454097},{"NoteNumber":67,"Velocity":38,"Duration":131891,"SoundDuration":131891,"Delta":23585988},{"NoteNumber":77,"Velocity":63,"Duration":131891,"SoundDuration":131891,"Delta":23717880},{"NoteNumber":62,"Velocity":48,"Duration":263782,"SoundDuration":263782,"Delta":23717880},{"NoteNumber":67,"Velocity":37,"Duration":131891,"SoundDuration":131891,"Delta":23849771},{"NoteNumber":76,"Velocity":60,"Duration":131891,"SoundDuration":131891,"Delta":23981662},{"NoteNumber":60,"Velocity":45,"Duration":263782,"SoundDuration":263782,"Delta":23981662},{"NoteNumber":67,"Velocity":38,"Duration":131891,"SoundDuration":131891,"Delta":24113553},{"NoteNumber":74,"Velocity":58,"Duration":133653,"SoundDuration":133653,"Delta":24245445},{"NoteNumber":59,"Velocity":40,"Duration":267307,"SoundDuration":267307,"Delta":24245445},{"NoteNumber":67,"Velocity":38,"Duration":133653,"SoundDuration":133653,"Delta":24379099},{"NoteNumber":76,"Velocity":60,"Duration":544315,"SoundDuration":544315,"Delta":24512753},{"NoteNumber":60,"Velocity":43,"Duration":544315,"SoundDuration":544315,"Delta":24512753},{"NoteNumber":67,"Velocity":55,"Duration":91132,"SoundDuration":91132,"Delta":25057069},{"NoteNumber":69,"Velocity":55,"Duration":91132,"SoundDuration":91132,"Delta":25148201},{"NoteNumber":71,"Velocity":55,"Duration":100270,"SoundDuration":100270,"Delta":25239334},{"NoteNumber":72,"Velocity":60,"Duration":534615,"SoundDuration":534615,"Delta":25339605},{"NoteNumber":60,"Velocity":40,"Duration":133653,"SoundDuration":133653,"Delta":25339605},{"NoteNumber":67,"Velocity":32,"Duration":133653,"SoundDuration":133653,"Delta":25473259},{"NoteNumber":64,"Velocity":40,"Duration":133653,"SoundDuration":133653,"Delta":25606913},{"NoteNumber":67,"Velocity":32,"Duration":133653,"SoundDuration":133653,"Delta":25740567},{"NoteNumber":76,"Velocity":55,"Duration":89102,"SoundDuration":89102,"Delta":25874221},{"NoteNumber":60,"Velocity":40,"Duration":133653,"SoundDuration":133653,"Delta":25874221},{"NoteNumber":74,"Velocity":49,"Duration":89102,"SoundDuration":89102,"Delta":25963324},{"NoteNumber":67,"Velocity":33,"Duration":141422,"SoundDuration":141422,"Delta":26007875},{"NoteNumber":72,"Velocity":49,"Duration":96871,"SoundDuration":96871,"Delta":26052426},{"NoteNumber":79,"Velocity":60,"Duration":534615,"SoundDuration":534615,"Delta":26149297},{"NoteNumber":59,"Velocity":40,"Duration":133653,"SoundDuration":133653,"Delta":26149297},{"NoteNumber":67,"Velocity":32,"Duration":133653,"SoundDuration":133653,"Delta":26282951},{"NoteNumber":62,"Velocity":37,"Duration":133653,"SoundDuration":133653,"Delta":26416605},{"NoteNumber":67,"Velocity":33,"Duration":133653,"SoundDuration":133653,"Delta":26550259},{"NoteNumber":77,"Velocity":52,"Duration":273398,"SoundDuration":273398,"Delta":26683913},{"NoteNumber":59,"Velocity":40,"Duration":136699,"SoundDuration":136699,"Delta":26683913},{"NoteNumber":67,"Velocity":35,"Duration":136699,"SoundDuration":136699,"Delta":26820613},{"NoteNumber":76,"Velocity":60,"Duration":534615,"SoundDuration":534615,"Delta":26957312},{"NoteNumber":60,"Velocity":40,"Duration":534615,"SoundDuration":534615,"Delta":26957312},{"NoteNumber":76,"Velocity":60,"Duration":133653,"SoundDuration":133653,"Delta":27491928},{"NoteNumber":60,"Velocity":36,"Duration":267307,"SoundDuration":267307,"Delta":27491928},{"NoteNumber":67,"Velocity":40,"Duration":133653,"SoundDuration":133653,"Delta":27625582},{"NoteNumber":74,"Velocity":60,"Duration":132473,"SoundDuration":132473,"Delta":27759236},{"NoteNumber":59,"Velocity":40,"Duration":529894,"SoundDuration":529894,"Delta":27759236},{"NoteNumber":67,"Velocity":35,"Duration":132473,"SoundDuration":132473,"Delta":27891710},{"NoteNumber":74,"Velocity":60,"Duration":132473,"SoundDuration":132473,"Delta":28024183},{"NoteNumber":67,"Velocity":39,"Duration":132473,"SoundDuration":132473,"Delta":28156657},{"NoteNumber":76,"Velocity":61,"Duration":132473,"SoundDuration":132473,"Delta":28289131},{"NoteNumber":60,"Velocity":43,"Duration":264947,"SoundDuration":264947,"Delta":28289131},{"NoteNumber":67,"Velocity":38,"Duration":132473,"SoundDuration":132473,"Delta":28421605},{"NoteNumber":74,"Velocity":63,"Duration":133653,"SoundDuration":133653,"Delta":28554078},{"NoteNumber":59,"Velocity":48,"Duration":534615,"SoundDuration":534615,"Delta":28554078},{"NoteNumber":67,"Velocity":37,"Duration":133653,"SoundDuration":133653,"Delta":28687732},{"NoteNumber":74,"Velocity":60,"Duration":133653,"SoundDuration":133653,"Delta":28821386},{"NoteNumber":67,"Velocity":38,"Duration":133653,"SoundDuration":133653,"Delta":28955040},{"NoteNumber":72,"Velocity":58,"Duration":136078,"SoundDuration":136078,"Delta":29088694},{"NoteNumber":52,"Velocity":40,"Duration":272158,"SoundDuration":272158,"Delta":29088694},{"NoteNumber":67,"Velocity":38,"Duration":136079,"SoundDuration":136079,"Delta":29224773},{"NoteNumber":71,"Velocity":63,"Duration":133653,"SoundDuration":133653,"Delta":29360852},{"NoteNumber":50,"Velocity":50,"Duration":534615,"SoundDuration":534615,"Delta":29360852},{"NoteNumber":74,"Velocity":51,"Duration":133653,"SoundDuration":133653,"Delta":29494506},{"NoteNumber":71,"Velocity":58,"Duration":133653,"SoundDuration":133653,"Delta":29628160},{"NoteNumber":67,"Velocity":50,"Duration":133653,"SoundDuration":133653,"Delta":29761814},{"NoteNumber":69,"Velocity":57,"Duration":133653,"SoundDuration":133653,"Delta":29895468},{"NoteNumber":38,"Velocity":40,"Duration":284328,"SoundDuration":284328,"Delta":29895468},{"NoteNumber":66,"Velocity":53,"Duration":150674,"SoundDuration":150674,"Delta":30029122},{"NoteNumber":67,"Velocity":63,"Duration":537009,"SoundDuration":537009,"Delta":30179797},{"NoteNumber":43,"Velocity":62,"Duration":134252,"SoundDuration":134252,"Delta":30179797},{"NoteNumber":55,"Velocity":48,"Duration":134252,"SoundDuration":134252,"Delta":30314049},{"NoteNumber":45,"Velocity":57,"Duration":134252,"SoundDuration":134252,"Delta":30448302},{"NoteNumber":57,"Velocity":49,"Duration":134252,"SoundDuration":134252,"Delta":30582554},{"NoteNumber":47,"Velocity":60,"Duration":134252,"SoundDuration":134252,"Delta":30716806},{"NoteNumber":59,"Velocity":50,"Duration":143050,"SoundDuration":143050,"Delta":30851058},{"NoteNumber":45,"Velocity":62,"Duration":132473,"SoundDuration":132473,"Delta":30994109},{"NoteNumber":57,"Velocity":51,"Duration":132473,"SoundDuration":132473,"Delta":31126582},{"NoteNumber":47,"Velocity":62,"Duration":132473,"SoundDuration":132473,"Delta":31259056},{"NoteNumber":59,"Velocity":52,"Duration":132473,"SoundDuration":132473,"Delta":31391530},{"NoteNumber":48,"Velocity":66,"Duration":132473,"SoundDuration":132473,"Delta":31524004},{"NoteNumber":60,"Velocity":55,"Duration":141500,"SoundDuration":141500,"Delta":31656477},{"NoteNumber":47,"Velocity":66,"Duration":132473,"SoundDuration":132473,"Delta":31797978},{"NoteNumber":59,"Velocity":55,"Duration":132473,"SoundDuration":132473,"Delta":31930451},{"NoteNumber":48,"Velocity":66,"Duration":132473,"SoundDuration":132473,"Delta":32062925},{"NoteNumber":60,"Velocity":57,"Duration":132473,"SoundDuration":132473,"Delta":32195399},{"NoteNumber":50,"Velocity":69,"Duration":132473,"SoundDuration":132473,"Delta":32327873},{"NoteNumber":62,"Velocity":62,"Duration":156227,"SoundDuration":156227,"Delta":32460346},{"NoteNumber":52,"Velocity":62,"Duration":545034,"SoundDuration":545034,"Delta":32616574},{"NoteNumber":64,"Velocity":71,"Duration":545034,"SoundDuration":545034,"Delta":32616574},{"NoteNumber":84,"Velocity":63,"Duration":87542,"SoundDuration":87542,"Delta":32898980},{"NoteNumber":83,"Velocity":57,"Duration":87542,"SoundDuration":87542,"Delta":32986523},{"NoteNumber":81,"Velocity":57,"Duration":87542,"SoundDuration":87542,"Delta":33074066},{"NoteNumber":79,"Velocity":63,"Duration":90309,"SoundDuration":90309,"Delta":33161608},{"NoteNumber":78,"Velocity":57,"Duration":90309,"SoundDuration":90309,"Delta":33251918},{"NoteNumber":76,"Velocity":56,"Duration":97818,"SoundDuration":97818,"Delta":33342228},{"NoteNumber":74,"Velocity":63,"Duration":133061,"SoundDuration":133061,"Delta":33440047},{"NoteNumber":54,"Velocity":50,"Duration":532245,"SoundDuration":532245,"Delta":33440047},{"NoteNumber":81,"Velocity":55,"Duration":133061,"SoundDuration":133061,"Delta":33573108},{"NoteNumber":84,"Velocity":59,"Duration":133061,"SoundDuration":133061,"Delta":33706169},{"NoteNumber":81,"Velocity":52,"Duration":133061,"SoundDuration":133061,"Delta":33839230},{"NoteNumber":83,"Velocity":61,"Duration":133061,"SoundDuration":133061,"Delta":33972292},{"NoteNumber":55,"Velocity":46,"Duration":275233,"SoundDuration":275233,"Delta":33972292},{"NoteNumber":79,"Velocity":56,"Duration":142172,"SoundDuration":142172,"Delta":34105353},{"NoteNumber":81,"Velocity":63,"Duration":287824,"SoundDuration":287824,"Delta":34247525},{"NoteNumber":60,"Velocity":50,"Duration":287824,"SoundDuration":287824,"Delta":34247525},{"NoteNumber":79,"Velocity":58,"Duration":287825,"SoundDuration":287825,"Delta":34535350},{"NoteNumber":62,"Velocity":42,"Duration":287825,"SoundDuration":287825,"Delta":34535350},{"NoteNumber":78,"Velocity":53,"Duration":59862,"SoundDuration":59862,"Delta":34823175},{"NoteNumber":50,"Velocity":42,"Duration":305104,"SoundDuration":305104,"Delta":34823175},{"NoteNumber":79,"Velocity":48,"Duration":59862,"SoundDuration":59862,"Delta":34883038},{"NoteNumber":78,"Velocity":53,"Duration":59862,"SoundDuration":59862,"Delta":34942900},{"NoteNumber":79,"Velocity":48,"Duration":62179,"SoundDuration":62179,"Delta":35002762},{"NoteNumber":78,"Velocity":48,"Duration":63337,"SoundDuration":63337,"Delta":35064942},{"NoteNumber":71,"Velocity":63,"Duration":537008,"SoundDuration":537008,"Delta":35128280},{"NoteNumber":74,"Velocity":63,"Duration":537008,"SoundDuration":537008,"Delta":35128280},{"NoteNumber":79,"Velocity":63,"Duration":537008,"SoundDuration":537008,"Delta":35128280},{"NoteNumber":43,"Velocity":62,"Duration":134252,"SoundDuration":134252,"Delta":35128280},{"NoteNumber":55,"Velocity":48,"Duration":134252,"SoundDuration":134252,"Delta":35262532},{"NoteNumber":45,"Velocity":57,"Duration":134252,"SoundDuration":134252,"Delta":35396784},{"NoteNumber":57,"Velocity":49,"Duration":134252,"SoundDuration":134252,"Delta":35531036},{"NoteNumber":47,"Velocity":60,"Duration":134252,"SoundDuration":134252,"Delta":35665289},{"NoteNumber":59,"Velocity":50,"Duration":146037,"SoundDuration":146037,"Delta":35799541},{"NoteNumber":45,"Velocity":62,"Duration":132473,"SoundDuration":132473,"Delta":35945578},{"NoteNumber":57,"Velocity":51,"Duration":132473,"SoundDuration":132473,"Delta":36078052},{"NoteNumber":47,"Velocity":62,"Duration":131314,"SoundDuration":131314,"Delta":36210525},{"NoteNumber":59,"Velocity":52,"Duration":131313,"SoundDuration":131313,"Delta":36341839},{"NoteNumber":48,"Velocity":66,"Duration":131314,"SoundDuration":131314,"Delta":36473153},{"NoteNumber":60,"Velocity":55,"Duration":137906,"SoundDuration":137906,"Delta":36604467},{"NoteNumber":47,"Velocity":66,"Duration":130741,"SoundDuration":130741,"Delta":36742374},{"NoteNumber":59,"Velocity":55,"Duration":130741,"SoundDuration":130741,"Delta":36873116},{"NoteNumber":48,"Velocity":66,"Duration":130174,"SoundDuration":130174,"Delta":37003857},{"NoteNumber":60,"Velocity":57,"Duration":130174,"SoundDuration":130174,"Delta":37134032},{"NoteNumber":50,"Velocity":69,"Duration":130174,"SoundDuration":130174,"Delta":37264206},{"NoteNumber":62,"Velocity":62,"Duration":150653,"SoundDuration":150653,"Delta":37394381},{"NoteNumber":52,"Velocity":62,"Duration":549719,"SoundDuration":549719,"Delta":37545034},{"NoteNumber":64,"Velocity":71,"Duration":549719,"SoundDuration":549719,"Delta":37545034},{"NoteNumber":84,"Velocity":63,"Duration":84940,"SoundDuration":84940,"Delta":37839933},{"NoteNumber":83,"Velocity":57,"Duration":84940,"SoundDuration":84940,"Delta":37924873},{"NoteNumber":81,"Velocity":57,"Duration":84940,"SoundDuration":84940,"Delta":38009813},{"NoteNumber":79,"Velocity":63,"Duration":89102,"SoundDuration":89102,"Delta":38094753},{"NoteNumber":78,"Velocity":57,"Duration":89102,"SoundDuration":89102,"Delta":38183856},{"NoteNumber":76,"Velocity":56,"Duration":89102,"SoundDuration":89102,"Delta":38272959},{"NoteNumber":74,"Velocity":63,"Duration":133653,"SoundDuration":133653,"Delta":38362061},{"NoteNumber":54,"Velocity":50,"Duration":534615,"SoundDuration":534615,"Delta":38362061},{"NoteNumber":81,"Velocity":55,"Duration":133653,"SoundDuration":133653,"Delta":38495715},{"NoteNumber":84,"Velocity":59,"Duration":133653,"SoundDuration":133653,"Delta":38629369},{"NoteNumber":81,"Velocity":52,"Duration":133653,"SoundDuration":133653,"Delta":38763023},{"NoteNumber":83,"Velocity":61,"Duration":137324,"SoundDuration":137324,"Delta":38896677},{"NoteNumber":55,"Velocity":46,"Duration":284386,"SoundDuration":284386,"Delta":38896677},{"NoteNumber":79,"Velocity":56,"Duration":147061,"SoundDuration":147061,"Delta":39034002},{"NoteNumber":81,"Velocity":63,"Duration":290613,"SoundDuration":290613,"Delta":39181064},{"NoteNumber":60,"Velocity":50,"Duration":290613,"SoundDuration":290613,"Delta":39181064},{"NoteNumber":79,"Velocity":58,"Duration":290613,"SoundDuration":290613,"Delta":39471677},{"NoteNumber":62,"Velocity":42,"Duration":290613,"SoundDuration":290613,"Delta":39471677},{"NoteNumber":78,"Velocity":53,"Duration":60771,"SoundDuration":60771,"Delta":39762290},{"NoteNumber":50,"Velocity":42,"Duration":303859,"SoundDuration":303859,"Delta":39762290},{"NoteNumber":79,"Velocity":48,"Duration":60771,"SoundDuration":60771,"Delta":39823061},{"NoteNumber":78,"Velocity":53,"Duration":60771,"SoundDuration":60771,"Delta":39883833},{"NoteNumber":79,"Velocity":48,"Duration":60771,"SoundDuration":60771,"Delta":39944605},{"NoteNumber":78,"Velocity":48,"Duration":60771,"SoundDuration":60771,"Delta":40005377},{"NoteNumber":71,"Velocity":63,"Duration":601866,"SoundDuration":601866,"Delta":40066149},{"NoteNumber":74,"Velocity":63,"Duration":601866,"SoundDuration":601866,"Delta":40066149},{"NoteNumber":79,"Velocity":63,"Duration":601866,"SoundDuration":601866,"Delta":40066149},{"NoteNumber":55,"Velocity":50,"Duration":294898,"SoundDuration":294898,"Delta":40066149},{"NoteNumber":50,"Velocity":38,"Duration":306967,"SoundDuration":306967,"Delta":40361047},{"NoteNumber":43,"Velocity":46,"Duration":354066,"SoundDuration":354066,"Delta":40668015},{"NoteNumber":79,"Velocity":69,"Duration":530785,"SoundDuration":530785,"Delta":41022081},{"NoteNumber":55,"Velocity":40,"Duration":132696,"SoundDuration":132696,"Delta":41022081},{"NoteNumber":62,"Velocity":32,"Duration":132696,"SoundDuration":132696,"Delta":41154778},{"NoteNumber":59,"Velocity":40,"Duration":132696,"SoundDuration":132696,"Delta":41287474},{"NoteNumber":62,"Velocity":32,"Duration":132696,"SoundDuration":132696,"Delta":41420171},{"NoteNumber":83,"Velocity":61,"Duration":88464,"SoundDuration":88464,"Delta":41552867},{"NoteNumber":55,"Velocity":40,"Duration":132696,"SoundDuration":132696,"Delta":41552867},{"NoteNumber":81,"Velocity":51,"Duration":88464,"SoundDuration":88464,"Delta":41641331},{"NoteNumber":62,"Velocity":33,"Duration":143507,"SoundDuration":143507,"Delta":41685564},{"NoteNumber":79,"Velocity":51,"Duration":99275,"SoundDuration":99275,"Delta":41729796},{"NoteNumber":86,"Velocity":69,"Duration":538827,"SoundDuration":538827,"Delta":41829071},{"NoteNumber":55,"Velocity":40,"Duration":132473,"SoundDuration":132473,"Delta":41829071},{"NoteNumber":62,"Velocity":32,"Duration":132473,"SoundDuration":132473,"Delta":41961545},{"NoteNumber":59,"Velocity":37,"Duration":134855,"SoundDuration":134855,"Delta":42094019},{"NoteNumber":62,"Velocity":33,"Duration":139024,"SoundDuration":139024,"Delta":42228874},{"NoteNumber":77,"Velocity":52,"Duration":281093,"SoundDuration":281093,"Delta":42367899},{"NoteNumber":55,"Velocity":40,"Duration":134855,"SoundDuration":134855,"Delta":42367899},{"NoteNumber":62,"Velocity":35,"Duration":146238,"SoundDuration":146238,"Delta":42502755},{"NoteNumber":76,"Velocity":60,"Duration":135464,"SoundDuration":135464,"Delta":42648993},{"NoteNumber":60,"Velocity":40,"Duration":270929,"SoundDuration":270929,"Delta":42648993},{"NoteNumber":67,"Velocity":35,"Duration":135464,"SoundDuration":135464,"Delta":42784458},{"NoteNumber":74,"Velocity":60,"Duration":135464,"SoundDuration":135464,"Delta":42919922},{"NoteNumber":59,"Velocity":45,"Duration":279404,"SoundDuration":279404,"Delta":42919922},{"NoteNumber":67,"Velocity":39,"Duration":143939,"SoundDuration":143939,"Delta":43055387},{"NoteNumber":77,"Velocity":60,"Duration":134855,"SoundDuration":134855,"Delta":43199327},{"NoteNumber":62,"Velocity":36,"Duration":269711,"SoundDuration":269711,"Delta":43199327},{"NoteNumber":67,"Velocity":40,"Duration":134855,"SoundDuration":134855,"Delta":43334183},{"NoteNumber":76,"Velocity":60,"Duration":133061,"SoundDuration":133061,"Delta":43469038},{"NoteNumber":60,"Velocity":40,"Duration":266122,"SoundDuration":266122,"Delta":43469038},{"NoteNumber":67,"Velocity":35,"Duration":133061,"SoundDuration":133061,"Delta":43602100},{"NoteNumber":74,"Velocity":60,"Duration":134339,"SoundDuration":134339,"Delta":43735161},{"NoteNumber":59,"Velocity":45,"Duration":289176,"SoundDuration":289176,"Delta":43735161},{"NoteNumber":67,"Velocity":39,"Duration":154836,"SoundDuration":154836,"Delta":43869501},{"NoteNumber":79,"Velocity":61,"Duration":136699,"SoundDuration":136699,"Delta":44024338},{"NoteNumber":64,"Velocity":43,"Duration":268841,"SoundDuration":268841,"Delta":44024338},{"NoteNumber":67,"Velocity":38,"Duration":136699,"SoundDuration":136699,"Delta":44161037},{"NoteNumber":79,"Velocity":63,"Duration":134252,"SoundDuration":134252,"Delta":44297736},{"NoteNumber":64,"Velocity":48,"Duration":268504,"SoundDuration":268504,"Delta":44297736},{"NoteNumber":67,"Velocity":37,"Duration":134252,"SoundDuration":134252,"Delta":44431989},{"NoteNumber":77,"Velocity":60,"Duration":136079,"SoundDuration":136079,"Delta":44566241},{"NoteNumber":62,"Velocity":45,"Duration":272157,"SoundDuration":272157,"Delta":44566241},{"NoteNumber":67,"Velocity":38,"Duration":136078,"SoundDuration":136078,"Delta":44702320},{"NoteNumber":76,"Velocity":58,"Duration":137956,"SoundDuration":137956,"Delta":44838399},{"NoteNumber":60,"Velocity":40,"Duration":272625,"SoundDuration":272625,"Delta":44838399},{"NoteNumber":67,"Velocity":38,"Duration":134669,"SoundDuration":134669,"Delta":44976355},{"NoteNumber":74,"Velocity":60,"Duration":544316,"SoundDuration":544316,"Delta":45111024},{"NoteNumber":55,"Velocity":40,"Duration":136079,"SoundDuration":136079,"Delta":45111024},{"NoteNumber":62,"Velocity":32,"Duration":136078,"SoundDuration":136078,"Delta":45247103},{"NoteNumber":59,"Velocity":40,"Duration":136079,"SoundDuration":136079,"Delta":45383182},{"NoteNumber":62,"Velocity":32,"Duration":136079,"SoundDuration":136079,"Delta":45519261},{"NoteNumber":55,"Velocity":40,"Duration":136078,"SoundDuration":136078,"Delta":45655340},{"NoteNumber":62,"Velocity":33,"Duration":152702,"SoundDuration":152702,"Delta":45791419},{"NoteNumber":79,"Velocity":69,"Duration":534711,"SoundDuration":534711,"Delta":45944122},{"NoteNumber":55,"Velocity":40,"Duration":135464,"SoundDuration":135464,"Delta":45944122},{"NoteNumber":62,"Velocity":32,"Duration":135464,"SoundDuration":135464,"Delta":46079587},{"NoteNumber":59,"Velocity":40,"Duration":131891,"SoundDuration":131891,"Delta":46215052},{"NoteNumber":62,"Velocity":32,"Duration":131891,"SoundDuration":131891,"Delta":46346943},{"NoteNumber":83,"Velocity":61,"Duration":87927,"SoundDuration":87927,"Delta":46478834},{"NoteNumber":55,"Velocity":40,"Duration":131891,"SoundDuration":131891,"Delta":46478834},{"NoteNumber":81,"Velocity":51,"Duration":87927,"SoundDuration":87927,"Delta":46566762},{"NoteNumber":62,"Velocity":33,"Duration":143239,"SoundDuration":143239,"Delta":46610725},{"NoteNumber":79,"Velocity":51,"Duration":99275,"SoundDuration":99275,"Delta":46654689},{"NoteNumber":86,"Velocity":69,"Duration":533974,"SoundDuration":533974,"Delta":46753964},{"NoteNumber":55,"Velocity":40,"Duration":132473,"SoundDuration":132473,"Delta":46753964},{"NoteNumber":62,"Velocity":32,"Duration":132473,"SoundDuration":132473,"Delta":46886438},{"NoteNumber":59,"Velocity":37,"Duration":132473,"SoundDuration":132473,"Delta":47018912},{"NoteNumber":62,"Velocity":33,"Duration":136553,"SoundDuration":136553,"Delta":47151386},{"NoteNumber":77,"Velocity":44,"Duration":280289,"SoundDuration":280289,"Delta":47287939},{"NoteNumber":55,"Velocity":34,"Duration":134252,"SoundDuration":134252,"Delta":47287939},{"NoteNumber":62,"Velocity":29,"Duration":146037,"SoundDuration":146037,"Delta":47422192},{"NoteNumber":75,"Velocity":51,"Duration":136079,"SoundDuration":136079,"Delta":47568229},{"NoteNumber":60,"Velocity":34,"Duration":272157,"SoundDuration":272157,"Delta":47568229},{"NoteNumber":67,"Velocity":29,"Duration":136078,"SoundDuration":136078,"Delta":47704308},{"NoteNumber":74,"Velocity":51,"Duration":136079,"SoundDuration":136079,"Delta":47840387},{"NoteNumber":59,"Velocity":38,"Duration":280223,"SoundDuration":280223,"Delta":47840387},{"NoteNumber":67,"Velocity":33,"Duration":144144,"SoundDuration":144144,"Delta":47976466},{"NoteNumber":77,"Velocity":51,"Duration":135464,"SoundDuration":135464,"Delta":48120610},{"NoteNumber":62,"Velocity":30,"Duration":270929,"SoundDuration":270929,"Delta":48120610},{"NoteNumber":67,"Velocity":34,"Duration":135464,"SoundDuration":135464,"Delta":48256075},{"NoteNumber":75,"Velocity":51,"Duration":134252,"SoundDuration":134252,"Delta":48391540},{"NoteNumber":60,"Velocity":34,"Duration":268504,"SoundDuration":268504,"Delta":48391540},{"NoteNumber":67,"Velocity":29,"Duration":134252,"SoundDuration":134252,"Delta":48525792},{"NoteNumber":74,"Velocity":51,"Duration":134339,"SoundDuration":134339,"Delta":48660044},{"NoteNumber":59,"Velocity":38,"Duration":290054,"SoundDuration":290054,"Delta":48660044},{"NoteNumber":67,"Velocity":33,"Duration":155714,"SoundDuration":155714,"Delta":48794384},{"NoteNumber":79,"Velocity":51,"Duration":139237,"SoundDuration":139237,"Delta":48950099},{"NoteNumber":63,"Velocity":36,"Duration":272672,"SoundDuration":272672,"Delta":48950099},{"NoteNumber":67,"Velocity":32,"Duration":139237,"SoundDuration":139237,"Delta":49089336},{"NoteNumber":79,"Velocity":53,"Duration":137324,"SoundDuration":137324,"Delta":49228573},{"NoteNumber":63,"Velocity":40,"Duration":274650,"SoundDuration":274650,"Delta":49228573},{"NoteNumber":67,"Velocity":31,"Duration":137325,"SoundDuration":137325,"Delta":49365898},{"NoteNumber":77,"Velocity":51,"Duration":137324,"SoundDuration":137324,"Delta":49503223},{"NoteNumber":62,"Velocity":38,"Duration":274650,"SoundDuration":274650,"Delta":49503223},{"NoteNumber":67,"Velocity":32,"Duration":137325,"SoundDuration":137325,"Delta":49640548},{"NoteNumber":75,"Velocity":49,"Duration":141202,"SoundDuration":141202,"Delta":49777873},{"NoteNumber":60,"Velocity":34,"Duration":278950,"SoundDuration":278950,"Delta":49777873},{"NoteNumber":67,"Velocity":32,"Duration":137747,"SoundDuration":137747,"Delta":49919076},{"NoteNumber":74,"Velocity":51,"Duration":556947,"SoundDuration":556947,"Delta":50056824},{"NoteNumber":55,"Velocity":34,"Duration":139237,"SoundDuration":139237,"Delta":50056824},{"NoteNumber":62,"Velocity":27,"Duration":139237,"SoundDuration":139237,"Delta":50196061},{"NoteNumber":59,"Velocity":34,"Duration":139236,"SoundDuration":139236,"Delta":50335298},{"NoteNumber":62,"Velocity":27,"Duration":139237,"SoundDuration":139237,"Delta":50474535},{"NoteNumber":55,"Velocity":34,"Duration":143912,"SoundDuration":143912,"Delta":50613772},{"NoteNumber":62,"Velocity":28,"Duration":171078,"SoundDuration":171078,"Delta":50757685},{"NoteNumber":72,"Velocity":60,"Duration":552397,"SoundDuration":552397,"Delta":50928763},{"NoteNumber":60,"Velocity":40,"Duration":142544,"SoundDuration":142544,"Delta":50928763},{"NoteNumber":67,"Velocity":32,"Duration":142544,"SoundDuration":142544,"Delta":51071308},{"NoteNumber":64,"Velocity":40,"Duration":133653,"SoundDuration":133653,"Delta":51213853},{"NoteNumber":67,"Velocity":32,"Duration":133653,"SoundDuration":133653,"Delta":51347507},{"NoteNumber":76,"Velocity":55,"Duration":89102,"SoundDuration":89102,"Delta":51481161},{"NoteNumber":60,"Velocity":40,"Duration":133653,"SoundDuration":133653,"Delta":51481161},{"NoteNumber":74,"Velocity":49,"Duration":89102,"SoundDuration":89102,"Delta":51570263},{"NoteNumber":67,"Velocity":33,"Duration":141422,"SoundDuration":141422,"Delta":51614815},{"NoteNumber":72,"Velocity":49,"Duration":96871,"SoundDuration":96871,"Delta":51659366},{"NoteNumber":79,"Velocity":60,"Duration":534615,"SoundDuration":534615,"Delta":51756237},{"NoteNumber":59,"Velocity":40,"Duration":133653,"SoundDuration":133653,"Delta":51756237},{"NoteNumber":67,"Velocity":32,"Duration":133653,"SoundDuration":133653,"Delta":51889891},{"NoteNumber":62,"Velocity":37,"Duration":133653,"SoundDuration":133653,"Delta":52023545},{"NoteNumber":67,"Velocity":33,"Duration":133653,"SoundDuration":133653,"Delta":52157199},{"NoteNumber":77,"Velocity":52,"Duration":281083,"SoundDuration":281083,"Delta":52290853},{"NoteNumber":59,"Velocity":40,"Duration":140541,"SoundDuration":140541,"Delta":52290853},{"NoteNumber":67,"Velocity":35,"Duration":140541,"SoundDuration":140541,"Delta":52431394},{"NoteNumber":76,"Velocity":60,"Duration":539422,"SoundDuration":539422,"Delta":52571936},{"NoteNumber":60,"Velocity":40,"Duration":539422,"SoundDuration":539422,"Delta":52571936},{"NoteNumber":76,"Velocity":60,"Duration":134855,"SoundDuration":134855,"Delta":53111359},{"NoteNumber":60,"Velocity":36,"Duration":269711,"SoundDuration":269711,"Delta":53111359},{"NoteNumber":67,"Velocity":40,"Duration":134855,"SoundDuration":134855,"Delta":53246215},{"NoteNumber":74,"Velocity":60,"Duration":132473,"SoundDuration":132473,"Delta":53381070},{"NoteNumber":59,"Velocity":40,"Duration":529895,"SoundDuration":529895,"Delta":53381070},{"NoteNumber":67,"Velocity":35,"Duration":132473,"SoundDuration":132473,"Delta":53513544},{"NoteNumber":74,"Velocity":60,"Duration":132473,"SoundDuration":132473,"Delta":53646018},{"NoteNumber":67,"Velocity":39,"Duration":132473,"SoundDuration":132473,"Delta":53778492},{"NoteNumber":76,"Velocity":61,"Duration":132473,"SoundDuration":132473,"Delta":53910965},{"NoteNumber":60,"Velocity":43,"Duration":264947,"SoundDuration":264947,"Delta":53910965},{"NoteNumber":67,"Velocity":38,"Duration":132473,"SoundDuration":132473,"Delta":54043439},{"NoteNumber":77,"Velocity":63,"Duration":133653,"SoundDuration":133653,"Delta":54175913},{"NoteNumber":62,"Velocity":48,"Duration":267307,"SoundDuration":267307,"Delta":54175913},{"NoteNumber":67,"Velocity":37,"Duration":133653,"SoundDuration":133653,"Delta":54309567},{"NoteNumber":76,"Velocity":60,"Duration":133653,"SoundDuration":133653,"Delta":54443221},{"NoteNumber":60,"Velocity":40,"Duration":267307,"SoundDuration":267307,"Delta":54443221},{"NoteNumber":67,"Velocity":38,"Duration":133653,"SoundDuration":133653,"Delta":54576875},{"NoteNumber":74,"Velocity":58,"Duration":136079,"SoundDuration":136079,"Delta":54710529},{"NoteNumber":59,"Velocity":40,"Duration":272157,"SoundDuration":272157,"Delta":54710529},{"NoteNumber":67,"Velocity":38,"Duration":136078,"SoundDuration":136078,"Delta":54846608},{"NoteNumber":76,"Velocity":60,"Duration":537008,"SoundDuration":537008,"Delta":54982687},{"NoteNumber":48,"Velocity":62,"Duration":134252,"SoundDuration":134252,"Delta":54982687},{"NoteNumber":60,"Velocity":48,"Duration":134252,"SoundDuration":134252,"Delta":55116939},{"NoteNumber":50,"Velocity":57,"Duration":134252,"SoundDuration":134252,"Delta":55251191},{"NoteNumber":62,"Velocity":49,"Duration":134252,"SoundDuration":134252,"Delta":55385444},{"NoteNumber":52,"Velocity":60,"Duration":134252,"SoundDuration":134252,"Delta":55519696},{"NoteNumber":64,"Velocity":50,"Duration":143050,"SoundDuration":143050,"Delta":55653948},{"NoteNumber":50,"Velocity":62,"Duration":132473,"SoundDuration":132473,"Delta":55796998},{"NoteNumber":62,"Velocity":51,"Duration":132473,"SoundDuration":132473,"Delta":55929472},{"NoteNumber":52,"Velocity":62,"Duration":132473,"SoundDuration":132473,"Delta":56061946},{"NoteNumber":64,"Velocity":52,"Duration":132473,"SoundDuration":132473,"Delta":56194420},{"NoteNumber":53,"Velocity":66,"Duration":132473,"SoundDuration":132473,"Delta":56326893},{"NoteNumber":65,"Velocity":55,"Duration":141500,"SoundDuration":141500,"Delta":56459367},{"NoteNumber":52,"Velocity":66,"Duration":132473,"SoundDuration":132473,"Delta":56600868},{"NoteNumber":64,"Velocity":55,"Duration":132473,"SoundDuration":132473,"Delta":56733341},{"NoteNumber":53,"Velocity":66,"Duration":132473,"SoundDuration":132473,"Delta":56865815},{"NoteNumber":65,"Velocity":57,"Duration":132473,"SoundDuration":132473,"Delta":56998289},{"NoteNumber":55,"Velocity":69,"Duration":132473,"SoundDuration":132473,"Delta":57130763},{"NoteNumber":67,"Velocity":62,"Duration":156227,"SoundDuration":156227,"Delta":57263236},{"NoteNumber":45,"Velocity":62,"Duration":545034,"SoundDuration":545034,"Delta":57419464},{"NoteNumber":57,"Velocity":71,"Duration":545034,"SoundDuration":545034,"Delta":57419464},{"NoteNumber":77,"Velocity":63,"Duration":87542,"SoundDuration":87542,"Delta":57701870},{"NoteNumber":76,"Velocity":57,"Duration":87542,"SoundDuration":87542,"Delta":57789413},{"NoteNumber":74,"Velocity":57,"Duration":87542,"SoundDuration":87542,"Delta":57876956},{"NoteNumber":72,"Velocity":63,"Duration":90309,"SoundDuration":90309,"Delta":57964498},{"NoteNumber":71,"Velocity":57,"Duration":90309,"SoundDuration":90309,"Delta":58054808},{"NoteNumber":69,"Velocity":56,"Duration":97818,"SoundDuration":97818,"Delta":58145118},{"NoteNumber":67,"Velocity":63,"Duration":133061,"SoundDuration":133061,"Delta":58242937},{"NoteNumber":59,"Velocity":50,"Duration":532245,"SoundDuration":532245,"Delta":58242937},{"NoteNumber":74,"Velocity":55,"Duration":133061,"SoundDuration":133061,"Delta":58375998},{"NoteNumber":77,"Velocity":59,"Duration":133061,"SoundDuration":133061,"Delta":58509059},{"NoteNumber":74,"Velocity":52,"Duration":133061,"SoundDuration":133061,"Delta":58642120},{"NoteNumber":76,"Velocity":61,"Duration":133061,"SoundDuration":133061,"Delta":58775182},{"NoteNumber":60,"Velocity":46,"Duration":275233,"SoundDuration":275233,"Delta":58775182},{"NoteNumber":72,"Velocity":56,"Duration":142172,"SoundDuration":142172,"Delta":58908243},{"NoteNumber":74,"Velocity":63,"Duration":287824,"SoundDuration":287824,"Delta":59050415},{"NoteNumber":53,"Velocity":50,"Duration":287824,"SoundDuration":287824,"Delta":59050415},{"NoteNumber":72,"Velocity":58,"Duration":287825,"SoundDuration":287825,"Delta":59338240},{"NoteNumber":55,"Velocity":42,"Duration":287825,"SoundDuration":287825,"Delta":59338240},{"NoteNumber":71,"Velocity":53,"Duration":57564,"SoundDuration":57564,"Delta":59626065},{"NoteNumber":43,"Velocity":42,"Duration":297446,"SoundDuration":297446,"Delta":59626065},{"NoteNumber":72,"Velocity":48,"Duration":57564,"SoundDuration":57564,"Delta":59683630},{"NoteNumber":71,"Velocity":53,"Duration":57565,"SoundDuration":57565,"Delta":59741195},{"NoteNumber":72,"Velocity":48,"Duration":61413,"SoundDuration":61413,"Delta":59798760},{"NoteNumber":71,"Velocity":48,"Duration":63337,"SoundDuration":63337,"Delta":59860174},{"NoteNumber":72,"Velocity":63,"Duration":537008,"SoundDuration":537008,"Delta":59923512},{"NoteNumber":48,"Velocity":62,"Duration":134252,"SoundDuration":134252,"Delta":59923512},{"NoteNumber":60,"Velocity":48,"Duration":134252,"SoundDuration":134252,"Delta":60057764},{"NoteNumber":50,"Velocity":57,"Duration":134252,"SoundDuration":134252,"Delta":60192016},{"NoteNumber":62,"Velocity":49,"Duration":134252,"SoundDuration":134252,"Delta":60326269},{"NoteNumber":52,"Velocity":60,"Duration":134252,"SoundDuration":134252,"Delta":60460521},{"NoteNumber":64,"Velocity":50,"Duration":146037,"SoundDuration":146037,"Delta":60594773},{"NoteNumber":50,"Velocity":62,"Duration":132473,"SoundDuration":132473,"Delta":60740810},{"NoteNumber":62,"Velocity":51,"Duration":132473,"SoundDuration":132473,"Delta":60873284},{"NoteNumber":52,"Velocity":62,"Duration":132473,"SoundDuration":132473,"Delta":61005758},{"NoteNumber":64,"Velocity":52,"Duration":132473,"SoundDuration":132473,"Delta":61138231},{"NoteNumber":53,"Velocity":66,"Duration":132473,"SoundDuration":132473,"Delta":61270705},{"NoteNumber":65,"Velocity":55,"Duration":138293,"SoundDuration":138293,"Delta":61403179},{"NoteNumber":52,"Velocity":66,"Duration":130741,"SoundDuration":130741,"Delta":61541472},{"NoteNumber":64,"Velocity":55,"Duration":130741,"SoundDuration":130741,"Delta":61672214},{"NoteNumber":53,"Velocity":66,"Duration":130741,"SoundDuration":130741,"Delta":61802956},{"NoteNumber":65,"Velocity":57,"Duration":130741,"SoundDuration":130741,"Delta":61933697},{"NoteNumber":55,"Velocity":69,"Duration":130741,"SoundDuration":130741,"Delta":62064439},{"NoteNumber":67,"Velocity":62,"Duration":150842,"SoundDuration":150842,"Delta":62195181},{"NoteNumber":45,"Velocity":62,"Duration":549719,"SoundDuration":549719,"Delta":62346023},{"NoteNumber":57,"Velocity":71,"Duration":549719,"SoundDuration":549719,"Delta":62346023},{"NoteNumber":77,"Velocity":63,"Duration":84940,"SoundDuration":84940,"Delta":62640922},{"NoteNumber":76,"Velocity":57,"Duration":84940,"SoundDuration":84940,"Delta":62725862},{"NoteNumber":74,"Velocity":57,"Duration":84940,"SoundDuration":84940,"Delta":62810802},{"NoteNumber":72,"Velocity":63,"Duration":89102,"SoundDuration":89102,"Delta":62895742},{"NoteNumber":71,"Velocity":57,"Duration":89102,"SoundDuration":89102,"Delta":62984845},{"NoteNumber":69,"Velocity":56,"Duration":89102,"SoundDuration":89102,"Delta":63073947},{"NoteNumber":67,"Velocity":63,"Duration":133653,"SoundDuration":133653,"Delta":63163050},{"NoteNumber":59,"Velocity":50,"Duration":534615,"SoundDuration":534615,"Delta":63163050},{"NoteNumber":74,"Velocity":55,"Duration":133653,"SoundDuration":133653,"Delta":63296704},{"NoteNumber":77,"Velocity":59,"Duration":133653,"SoundDuration":133653,"Delta":63430358},{"NoteNumber":74,"Velocity":52,"Duration":133653,"SoundDuration":133653,"Delta":63564012},{"NoteNumber":76,"Velocity":61,"Duration":137324,"SoundDuration":137324,"Delta":63697666},{"NoteNumber":60,"Velocity":46,"Duration":284386,"SoundDuration":284386,"Delta":63697666},{"NoteNumber":72,"Velocity":56,"Duration":147061,"SoundDuration":147061,"Delta":63834991},{"NoteNumber":74,"Velocity":63,"Duration":290612,"SoundDuration":290612,"Delta":63982052},{"NoteNumber":53,"Velocity":50,"Duration":290612,"SoundDuration":290612,"Delta":63982052},{"NoteNumber":72,"Velocity":58,"Duration":290613,"SoundDuration":290613,"Delta":64272665},{"NoteNumber":55,"Velocity":42,"Duration":290613,"SoundDuration":290613,"Delta":64272665},{"NoteNumber":71,"Velocity":53,"Duration":60162,"SoundDuration":60162,"Delta":64563278},{"NoteNumber":43,"Velocity":42,"Duration":300811,"SoundDuration":300811,"Delta":64563278},{"NoteNumber":72,"Velocity":48,"Duration":60162,"SoundDuration":60162,"Delta":64623441},{"NoteNumber":71,"Velocity":53,"Duration":60162,"SoundDuration":60162,"Delta":64683603},{"NoteNumber":72,"Velocity":48,"Duration":60162,"SoundDuration":60162,"Delta":64743766},{"NoteNumber":71,"Velocity":48,"Duration":60162,"SoundDuration":60162,"Delta":64803928},{"NoteNumber":72,"Velocity":63,"Duration":639198,"SoundDuration":639198,"Delta":64864090},{"NoteNumber":48,"Velocity":50,"Duration":308546,"SoundDuration":308546,"Delta":64864090},{"NoteNumber":36,"Velocity":38,"Duration":330651,"SoundDuration":330651,"Delta":65172637},{"NoteNumber":79,"Velocity":69,"Duration":530786,"SoundDuration":530786,"Delta":65833940},{"NoteNumber":55,"Velocity":40,"Duration":132696,"SoundDuration":132696,"Delta":65833940},{"NoteNumber":62,"Velocity":32,"Duration":132696,"SoundDuration":132696,"Delta":65966636},{"NoteNumber":59,"Velocity":40,"Duration":132696,"SoundDuration":132696,"Delta":66099333},{"NoteNumber":62,"Velocity":32,"Duration":132696,"SoundDuration":132696,"Delta":66232029},{"NoteNumber":83,"Velocity":61,"Duration":88464,"SoundDuration":88464,"Delta":66364726},{"NoteNumber":55,"Velocity":40,"Duration":132696,"SoundDuration":132696,"Delta":66364726},{"NoteNumber":81,"Velocity":51,"Duration":88464,"SoundDuration":88464,"Delta":66453190},{"NoteNumber":62,"Velocity":33,"Duration":143507,"SoundDuration":143507,"Delta":66497422},{"NoteNumber":79,"Velocity":51,"Duration":99275,"SoundDuration":99275,"Delta":66541655},{"NoteNumber":86,"Velocity":69,"Duration":537107,"SoundDuration":537107,"Delta":66640930},{"NoteNumber":55,"Velocity":40,"Duration":132473,"SoundDuration":132473,"Delta":66640930},{"NoteNumber":62,"Velocity":32,"Duration":132473,"SoundDuration":132473,"Delta":66773404},{"NoteNumber":59,"Velocity":37,"Duration":132473,"SoundDuration":132473,"Delta":66905877},{"NoteNumber":62,"Velocity":33,"Duration":139686,"SoundDuration":139686,"Delta":67038351},{"NoteNumber":77,"Velocity":52,"Duration":284386,"SoundDuration":284386,"Delta":67178037},{"NoteNumber":55,"Velocity":40,"Duration":137325,"SoundDuration":137325,"Delta":67178037},{"NoteNumber":62,"Velocity":35,"Duration":147061,"SoundDuration":147061,"Delta":67315362},{"NoteNumber":76,"Velocity":60,"Duration":136078,"SoundDuration":136078,"Delta":67462424},{"NoteNumber":60,"Velocity":40,"Duration":272158,"SoundDuration":272158,"Delta":67462424},{"NoteNumber":67,"Velocity":35,"Duration":136079,"SoundDuration":136079,"Delta":67598503},{"NoteNumber":74,"Velocity":60,"Duration":136078,"SoundDuration":136078,"Delta":67734582},{"NoteNumber":59,"Velocity":45,"Duration":280223,"SoundDuration":280223,"Delta":67734582},{"NoteNumber":67,"Velocity":39,"Duration":144144,"SoundDuration":144144,"Delta":67870661},{"NoteNumber":77,"Velocity":60,"Duration":136699,"SoundDuration":136699,"Delta":68014805},{"NoteNumber":62,"Velocity":36,"Duration":273398,"SoundDuration":273398,"Delta":68014805},{"NoteNumber":67,"Velocity":40,"Duration":136699,"SoundDuration":136699,"Delta":68151505},{"NoteNumber":76,"Velocity":60,"Duration":135464,"SoundDuration":135464,"Delta":68288204},{"NoteNumber":60,"Velocity":40,"Duration":270929,"SoundDuration":270929,"Delta":68288204},{"NoteNumber":67,"Velocity":35,"Duration":135464,"SoundDuration":135464,"Delta":68423669},{"NoteNumber":74,"Velocity":60,"Duration":134339,"SoundDuration":134339,"Delta":68559133},{"NoteNumber":59,"Velocity":45,"Duration":289176,"SoundDuration":289176,"Delta":68559133},{"NoteNumber":67,"Velocity":39,"Duration":154836,"SoundDuration":154836,"Delta":68693473},{"NoteNumber":79,"Velocity":61,"Duration":136078,"SoundDuration":136078,"Delta":68848310},{"NoteNumber":64,"Velocity":43,"Duration":267622,"SoundDuration":267622,"Delta":68848310},{"NoteNumber":67,"Velocity":38,"Duration":136079,"SoundDuration":136079,"Delta":68984389},{"NoteNumber":79,"Velocity":63,"Duration":133061,"SoundDuration":133061,"Delta":69120468},{"NoteNumber":64,"Velocity":48,"Duration":266122,"SoundDuration":266122,"Delta":69120468},{"NoteNumber":67,"Velocity":37,"Duration":133061,"SoundDuration":133061,"Delta":69253529},{"NoteNumber":77,"Velocity":60,"Duration":135464,"SoundDuration":135464,"Delta":69386591},{"NoteNumber":62,"Velocity":45,"Duration":270929,"SoundDuration":270929,"Delta":69386591},{"NoteNumber":67,"Velocity":38,"Duration":135464,"SoundDuration":135464,"Delta":69522055},{"NoteNumber":76,"Velocity":58,"Duration":137325,"SoundDuration":137325,"Delta":69657520},{"NoteNumber":60,"Velocity":40,"Duration":271787,"SoundDuration":271787,"Delta":69657520},{"NoteNumber":67,"Velocity":38,"Duration":134462,"SoundDuration":134462,"Delta":69794845},{"NoteNumber":74,"Velocity":60,"Duration":544315,"SoundDuration":544315,"Delta":69929307},{"NoteNumber":55,"Velocity":40,"Duration":136078,"SoundDuration":136078,"Delta":69929307},{"NoteNumber":62,"Velocity":32,"Duration":136079,"SoundDuration":136079,"Delta":70065386},{"NoteNumber":59,"Velocity":40,"Duration":136078,"SoundDuration":136078,"Delta":70201466},{"NoteNumber":62,"Velocity":32,"Duration":136078,"SoundDuration":136078,"Delta":70337544},{"NoteNumber":55,"Velocity":40,"Duration":136079,"SoundDuration":136079,"Delta":70473623},{"NoteNumber":62,"Velocity":33,"Duration":152702,"SoundDuration":152702,"Delta":70609703},{"NoteNumber":79,"Velocity":69,"Duration":534711,"SoundDuration":534711,"Delta":70762405},{"NoteNumber":55,"Velocity":40,"Duration":135464,"SoundDuration":135464,"Delta":70762405},{"NoteNumber":62,"Velocity":32,"Duration":135464,"SoundDuration":135464,"Delta":70897870},{"NoteNumber":59,"Velocity":40,"Duration":131891,"SoundDuration":131891,"Delta":71033335},{"NoteNumber":62,"Velocity":32,"Duration":131891,"SoundDuration":131891,"Delta":71165226},{"NoteNumber":83,"Velocity":61,"Duration":87927,"SoundDuration":87927,"Delta":71297117},{"NoteNumber":55,"Velocity":40,"Duration":131891,"SoundDuration":131891,"Delta":71297117},{"NoteNumber":81,"Velocity":51,"Duration":87927,"SoundDuration":87927,"Delta":71385045},{"NoteNumber":62,"Velocity":33,"Duration":143239,"SoundDuration":143239,"Delta":71429009},{"NoteNumber":79,"Velocity":51,"Duration":99275,"SoundDuration":99275,"Delta":71472972},{"NoteNumber":86,"Velocity":69,"Duration":541333,"SoundDuration":541333,"Delta":71572248},{"NoteNumber":55,"Velocity":40,"Duration":132473,"SoundDuration":132473,"Delta":71572248},{"NoteNumber":62,"Velocity":32,"Duration":132473,"SoundDuration":132473,"Delta":71704721},{"NoteNumber":59,"Velocity":37,"Duration":132473,"SoundDuration":132473,"Delta":71837195},{"NoteNumber":62,"Velocity":33,"Duration":143912,"SoundDuration":143912,"Delta":71969669},{"NoteNumber":77,"Velocity":44,"Duration":282724,"SoundDuration":282724,"Delta":72113581},{"NoteNumber":55,"Velocity":34,"Duration":136078,"SoundDuration":136078,"Delta":72113581},{"NoteNumber":62,"Velocity":29,"Duration":146646,"SoundDuration":146646,"Delta":72249660},{"NoteNumber":75,"Velocity":51,"Duration":134855,"SoundDuration":134855,"Delta":72396306},{"NoteNumber":60,"Velocity":34,"Duration":269711,"SoundDuration":269711,"Delta":72396306},{"NoteNumber":67,"Velocity":29,"Duration":134855,"SoundDuration":134855,"Delta":72531162},{"NoteNumber":74,"Velocity":51,"Duration":134855,"SoundDuration":134855,"Delta":72666018},{"NoteNumber":59,"Velocity":38,"Duration":278592,"SoundDuration":278592,"Delta":72666018},{"NoteNumber":67,"Velocity":33,"Duration":143736,"SoundDuration":143736,"Delta":72800874},{"NoteNumber":77,"Velocity":51,"Duration":135464,"SoundDuration":135464,"Delta":72944610},{"NoteNumber":62,"Velocity":30,"Duration":270929,"SoundDuration":270929,"Delta":72944610},{"NoteNumber":67,"Velocity":34,"Duration":135464,"SoundDuration":135464,"Delta":73080075},{"NoteNumber":75,"Velocity":51,"Duration":132473,"SoundDuration":132473,"Delta":73215540},{"NoteNumber":60,"Velocity":34,"Duration":264947,"SoundDuration":264947,"Delta":73215540},{"NoteNumber":67,"Velocity":29,"Duration":132473,"SoundDuration":132473,"Delta":73348014},{"NoteNumber":74,"Velocity":51,"Duration":134339,"SoundDuration":134339,"Delta":73480487},{"NoteNumber":59,"Velocity":38,"Duration":290054,"SoundDuration":290054,"Delta":73480487},{"NoteNumber":67,"Velocity":33,"Duration":155714,"SoundDuration":155714,"Delta":73614827},{"NoteNumber":79,"Velocity":51,"Duration":139236,"SoundDuration":139236,"Delta":73770542},{"NoteNumber":63,"Velocity":36,"Duration":272672,"SoundDuration":272672,"Delta":73770542},{"NoteNumber":67,"Velocity":32,"Duration":139237,"SoundDuration":139237,"Delta":73909779},{"NoteNumber":79,"Velocity":53,"Duration":136699,"SoundDuration":136699,"Delta":74049016},{"NoteNumber":63,"Velocity":40,"Duration":273398,"SoundDuration":273398,"Delta":74049016},{"NoteNumber":67,"Velocity":31,"Duration":136699,"SoundDuration":136699,"Delta":74185715},{"NoteNumber":77,"Velocity":51,"Duration":136699,"SoundDuration":136699,"Delta":74322415},{"NoteNumber":62,"Velocity":38,"Duration":273398,"SoundDuration":273398,"Delta":74322415},{"NoteNumber":67,"Velocity":32,"Duration":136699,"SoundDuration":136699,"Delta":74459114},{"NoteNumber":75,"Velocity":49,"Duration":139886,"SoundDuration":139886,"Delta":74595813},{"NoteNumber":60,"Velocity":34,"Duration":278064,"SoundDuration":278064,"Delta":74595813},{"NoteNumber":67,"Velocity":32,"Duration":138178,"SoundDuration":138178,"Delta":74735699},{"NoteNumber":74,"Velocity":51,"Duration":554374,"SoundDuration":554374,"Delta":74873878},{"NoteNumber":55,"Velocity":34,"Duration":138593,"SoundDuration":138593,"Delta":74873878},{"NoteNumber":62,"Velocity":27,"Duration":138593,"SoundDuration":138593,"Delta":75012472},{"NoteNumber":59,"Velocity":34,"Duration":138593,"SoundDuration":138593,"Delta":75151066},{"NoteNumber":62,"Velocity":27,"Duration":138593,"SoundDuration":138593,"Delta":75289659},{"NoteNumber":55,"Velocity":34,"Duration":143912,"SoundDuration":143912,"Delta":75428253},{"NoteNumber":62,"Velocity":28,"Duration":171077,"SoundDuration":171077,"Delta":75572166},{"NoteNumber":72,"Velocity":60,"Duration":552397,"SoundDuration":552397,"Delta":75743244},{"NoteNumber":60,"Velocity":40,"Duration":142544,"SoundDuration":142544,"Delta":75743244},{"NoteNumber":67,"Velocity":32,"Duration":142544,"SoundDuration":142544,"Delta":75885789},{"NoteNumber":64,"Velocity":40,"Duration":133654,"SoundDuration":133654,"Delta":76028334},{"NoteNumber":67,"Velocity":32,"Duration":133653,"SoundDuration":133653,"Delta":76161988},{"NoteNumber":76,"Velocity":55,"Duration":89102,"SoundDuration":89102,"Delta":76295642},{"NoteNumber":60,"Velocity":40,"Duration":133654,"SoundDuration":133654,"Delta":76295642},{"NoteNumber":74,"Velocity":49,"Duration":89102,"SoundDuration":89102,"Delta":76384744},{"NoteNumber":67,"Velocity":33,"Duration":141422,"SoundDuration":141422,"Delta":76429296},{"NoteNumber":72,"Velocity":49,"Duration":96870,"SoundDuration":96870,"Delta":76473847},{"NoteNumber":79,"Velocity":60,"Duration":534615,"SoundDuration":534615,"Delta":76570718},{"NoteNumber":59,"Velocity":40,"Duration":133654,"SoundDuration":133654,"Delta":76570718},{"NoteNumber":67,"Velocity":32,"Duration":133653,"SoundDuration":133653,"Delta":76704372},{"NoteNumber":62,"Velocity":37,"Duration":133654,"SoundDuration":133654,"Delta":76838026},{"NoteNumber":67,"Velocity":33,"Duration":133653,"SoundDuration":133653,"Delta":76971680},{"NoteNumber":77,"Velocity":52,"Duration":282405,"SoundDuration":282405,"Delta":77105334},{"NoteNumber":59,"Velocity":40,"Duration":141203,"SoundDuration":141203,"Delta":77105334},{"NoteNumber":67,"Velocity":35,"Duration":141202,"SoundDuration":141202,"Delta":77246537},{"NoteNumber":76,"Velocity":60,"Duration":544315,"SoundDuration":544315,"Delta":77387740},{"NoteNumber":60,"Velocity":40,"Duration":544315,"SoundDuration":544315,"Delta":77387740},{"NoteNumber":76,"Velocity":60,"Duration":136079,"SoundDuration":136079,"Delta":77932056},{"NoteNumber":60,"Velocity":36,"Duration":272158,"SoundDuration":272158,"Delta":77932056},{"NoteNumber":67,"Velocity":40,"Duration":136078,"SoundDuration":136078,"Delta":78068135},{"NoteNumber":74,"Velocity":60,"Duration":132473,"SoundDuration":132473,"Delta":78204214},{"NoteNumber":59,"Velocity":40,"Duration":529894,"SoundDuration":529894,"Delta":78204214},{"NoteNumber":67,"Velocity":35,"Duration":132473,"SoundDuration":132473,"Delta":78336688},{"NoteNumber":74,"Velocity":60,"Duration":132473,"SoundDuration":132473,"Delta":78469162},{"NoteNumber":67,"Velocity":39,"Duration":132473,"SoundDuration":132473,"Delta":78601635},{"NoteNumber":76,"Velocity":61,"Duration":132473,"SoundDuration":132473,"Delta":78734109},{"NoteNumber":60,"Velocity":43,"Duration":264947,"SoundDuration":264947,"Delta":78734109},{"NoteNumber":67,"Velocity":38,"Duration":132473,"SoundDuration":132473,"Delta":78866583},{"NoteNumber":77,"Velocity":63,"Duration":133654,"SoundDuration":133654,"Delta":78999057},{"NoteNumber":62,"Velocity":48,"Duration":267307,"SoundDuration":267307,"Delta":78999057},{"NoteNumber":67,"Velocity":37,"Duration":133653,"SoundDuration":133653,"Delta":79132711},{"NoteNumber":76,"Velocity":60,"Duration":133654,"SoundDuration":133654,"Delta":79266365},{"NoteNumber":60,"Velocity":40,"Duration":267307,"SoundDuration":267307,"Delta":79266365},{"NoteNumber":67,"Velocity":38,"Duration":133653,"SoundDuration":133653,"Delta":79400019},{"NoteNumber":74,"Velocity":58,"Duration":136078,"SoundDuration":136078,"Delta":79533673},{"NoteNumber":59,"Velocity":40,"Duration":272158,"SoundDuration":272158,"Delta":79533673},{"NoteNumber":67,"Velocity":38,"Duration":136079,"SoundDuration":136079,"Delta":79669752},{"NoteNumber":76,"Velocity":60,"Duration":537008,"SoundDuration":537008,"Delta":79805831},{"NoteNumber":48,"Velocity":62,"Duration":134252,"SoundDuration":134252,"Delta":79805831},{"NoteNumber":60,"Velocity":48,"Duration":134252,"SoundDuration":134252,"Delta":79940083},{"NoteNumber":50,"Velocity":57,"Duration":134252,"SoundDuration":134252,"Delta":80074335},{"NoteNumber":62,"Velocity":49,"Duration":134252,"SoundDuration":134252,"Delta":80208587},{"NoteNumber":52,"Velocity":60,"Duration":134252,"SoundDuration":134252,"Delta":80342840},{"NoteNumber":64,"Velocity":50,"Duration":143050,"SoundDuration":143050,"Delta":80477092},{"NoteNumber":50,"Velocity":62,"Duration":132473,"SoundDuration":132473,"Delta":80620142},{"NoteNumber":62,"Velocity":51,"Duration":132473,"SoundDuration":132473,"Delta":80752616},{"NoteNumber":52,"Velocity":62,"Duration":132473,"SoundDuration":132473,"Delta":80885090},{"NoteNumber":64,"Velocity":52,"Duration":132473,"SoundDuration":132473,"Delta":81017563},{"NoteNumber":53,"Velocity":66,"Duration":132473,"SoundDuration":132473,"Delta":81150037},{"NoteNumber":65,"Velocity":55,"Duration":141500,"SoundDuration":141500,"Delta":81282511},{"NoteNumber":52,"Velocity":66,"Duration":132473,"SoundDuration":132473,"Delta":81424011},{"NoteNumber":64,"Velocity":55,"Duration":132473,"SoundDuration":132473,"Delta":81556485},{"NoteNumber":53,"Velocity":66,"Duration":132473,"SoundDuration":132473,"Delta":81688959},{"NoteNumber":65,"Velocity":57,"Duration":132473,"SoundDuration":132473,"Delta":81821432},{"NoteNumber":55,"Velocity":69,"Duration":132473,"SoundDuration":132473,"Delta":81953906},{"NoteNumber":67,"Velocity":62,"Duration":156227,"SoundDuration":156227,"Delta":82086380},{"NoteNumber":45,"Velocity":62,"Duration":545034,"SoundDuration":545034,"Delta":82242608},{"NoteNumber":57,"Velocity":71,"Duration":545034,"SoundDuration":545034,"Delta":82242608},{"NoteNumber":77,"Velocity":63,"Duration":87542,"SoundDuration":87542,"Delta":82525014},{"NoteNumber":76,"Velocity":57,"Duration":87542,"SoundDuration":87542,"Delta":82612557},{"NoteNumber":74,"Velocity":57,"Duration":87542,"SoundDuration":87542,"Delta":82700099},{"NoteNumber":72,"Velocity":63,"Duration":90309,"SoundDuration":90309,"Delta":82787642},{"NoteNumber":71,"Velocity":57,"Duration":90309,"SoundDuration":90309,"Delta":82877952},{"NoteNumber":69,"Velocity":56,"Duration":97818,"SoundDuration":97818,"Delta":82968262},{"NoteNumber":67,"Velocity":63,"Duration":133061,"SoundDuration":133061,"Delta":83066080},{"NoteNumber":59,"Velocity":50,"Duration":532245,"SoundDuration":532245,"Delta":83066080},{"NoteNumber":74,"Velocity":55,"Duration":133061,"SoundDuration":133061,"Delta":83199141},{"NoteNumber":77,"Velocity":59,"Duration":133061,"SoundDuration":133061,"Delta":83332203},{"NoteNumber":74,"Velocity":52,"Duration":133061,"SoundDuration":133061,"Delta":83465264},{"NoteNumber":76,"Velocity":61,"Duration":133061,"SoundDuration":133061,"Delta":83598325},{"NoteNumber":60,"Velocity":46,"Duration":275233,"SoundDuration":275233,"Delta":83598325},{"NoteNumber":72,"Velocity":56,"Duration":142172,"SoundDuration":142172,"Delta":83731386},{"NoteNumber":74,"Velocity":63,"Duration":287824,"SoundDuration":287824,"Delta":83873559},{"NoteNumber":53,"Velocity":50,"Duration":287824,"SoundDuration":287824,"Delta":83873559},{"NoteNumber":72,"Velocity":58,"Duration":287824,"SoundDuration":287824,"Delta":84161384},{"NoteNumber":55,"Velocity":42,"Duration":287824,"SoundDuration":287824,"Delta":84161384},{"NoteNumber":71,"Velocity":53,"Duration":57565,"SoundDuration":57565,"Delta":84449209},{"NoteNumber":43,"Velocity":42,"Duration":297446,"SoundDuration":297446,"Delta":84449209},{"NoteNumber":72,"Velocity":48,"Duration":57564,"SoundDuration":57564,"Delta":84506774},{"NoteNumber":71,"Velocity":53,"Duration":57564,"SoundDuration":57564,"Delta":84564339},{"NoteNumber":72,"Velocity":48,"Duration":61413,"SoundDuration":61413,"Delta":84621904},{"NoteNumber":71,"Velocity":48,"Duration":63337,"SoundDuration":63337,"Delta":84683318},{"NoteNumber":72,"Velocity":63,"Duration":537008,"SoundDuration":537008,"Delta":84746655},{"NoteNumber":48,"Velocity":62,"Duration":134252,"SoundDuration":134252,"Delta":84746655},{"NoteNumber":60,"Velocity":48,"Duration":134252,"SoundDuration":134252,"Delta":84880908},{"NoteNumber":50,"Velocity":57,"Duration":134252,"SoundDuration":134252,"Delta":85015160},{"NoteNumber":62,"Velocity":49,"Duration":134252,"SoundDuration":134252,"Delta":85149412},{"NoteNumber":52,"Velocity":60,"Duration":134252,"SoundDuration":134252,"Delta":85283664},{"NoteNumber":64,"Velocity":50,"Duration":146037,"SoundDuration":146037,"Delta":85417917},{"NoteNumber":50,"Velocity":62,"Duration":132473,"SoundDuration":132473,"Delta":85563954},{"NoteNumber":62,"Velocity":51,"Duration":132473,"SoundDuration":132473,"Delta":85696427},{"NoteNumber":52,"Velocity":62,"Duration":132473,"SoundDuration":132473,"Delta":85828901},{"NoteNumber":64,"Velocity":52,"Duration":132473,"SoundDuration":132473,"Delta":85961375},{"NoteNumber":53,"Velocity":66,"Duration":132473,"SoundDuration":132473,"Delta":86093849},{"NoteNumber":65,"Velocity":55,"Duration":138293,"SoundDuration":138293,"Delta":86226322},{"NoteNumber":52,"Velocity":66,"Duration":130741,"SoundDuration":130741,"Delta":86364616},{"NoteNumber":64,"Velocity":55,"Duration":130741,"SoundDuration":130741,"Delta":86495357},{"NoteNumber":53,"Velocity":66,"Duration":130741,"SoundDuration":130741,"Delta":86626099},{"NoteNumber":65,"Velocity":57,"Duration":130741,"SoundDuration":130741,"Delta":86756841},{"NoteNumber":55,"Velocity":69,"Duration":130741,"SoundDuration":130741,"Delta":86887583},{"NoteNumber":67,"Velocity":62,"Duration":150842,"SoundDuration":150842,"Delta":87018324},{"NoteNumber":45,"Velocity":62,"Duration":549718,"SoundDuration":549718,"Delta":87169167},{"NoteNumber":57,"Velocity":71,"Duration":549718,"SoundDuration":549718,"Delta":87169167},{"NoteNumber":77,"Velocity":63,"Duration":84940,"SoundDuration":84940,"Delta":87464065},{"NoteNumber":76,"Velocity":57,"Duration":84940,"SoundDuration":84940,"Delta":87549005},{"NoteNumber":74,"Velocity":57,"Duration":84940,"SoundDuration":84940,"Delta":87633946},{"NoteNumber":72,"Velocity":63,"Duration":89102,"SoundDuration":89102,"Delta":87718886},{"NoteNumber":71,"Velocity":57,"Duration":89102,"SoundDuration":89102,"Delta":87807988},{"NoteNumber":69,"Velocity":56,"Duration":89102,"SoundDuration":89102,"Delta":87897091},{"NoteNumber":67,"Velocity":63,"Duration":133654,"SoundDuration":133654,"Delta":87986194},{"NoteNumber":59,"Velocity":50,"Duration":534615,"SoundDuration":534615,"Delta":87986194},{"NoteNumber":74,"Velocity":55,"Duration":133653,"SoundDuration":133653,"Delta":88119848},{"NoteNumber":77,"Velocity":59,"Duration":133654,"SoundDuration":133654,"Delta":88253502},{"NoteNumber":74,"Velocity":52,"Duration":133653,"SoundDuration":133653,"Delta":88387156},{"NoteNumber":76,"Velocity":61,"Duration":137325,"SoundDuration":137325,"Delta":88520810},{"NoteNumber":60,"Velocity":46,"Duration":297359,"SoundDuration":297359,"Delta":88520810},{"NoteNumber":72,"Velocity":56,"Duration":160034,"SoundDuration":160034,"Delta":88658135},{"NoteNumber":74,"Velocity":63,"Duration":297826,"SoundDuration":297826,"Delta":88818169},{"NoteNumber":53,"Velocity":50,"Duration":297826,"SoundDuration":297826,"Delta":88818169},{"NoteNumber":72,"Velocity":58,"Duration":297826,"SoundDuration":297826,"Delta":89115995},{"NoteNumber":55,"Velocity":42,"Duration":297826,"SoundDuration":297826,"Delta":89115995},{"NoteNumber":71,"Velocity":53,"Duration":61393,"SoundDuration":61393,"Delta":89413821},{"NoteNumber":43,"Velocity":42,"Duration":306967,"SoundDuration":306967,"Delta":89413821},{"NoteNumber":72,"Velocity":48,"Duration":61393,"SoundDuration":61393,"Delta":89475215},{"NoteNumber":71,"Velocity":53,"Duration":61393,"SoundDuration":61393,"Delta":89536608},{"NoteNumber":72,"Velocity":48,"Duration":61393,"SoundDuration":61393,"Delta":89598002},{"NoteNumber":71,"Velocity":48,"Duration":61393,"SoundDuration":61393,"Delta":89659395},{"NoteNumber":72,"Velocity":63,"Duration":676552,"SoundDuration":676552,"Delta":89720789},{"NoteNumber":48,"Velocity":50,"Duration":345900,"SoundDuration":345900,"Delta":89720789},{"NoteNumber":36,"Velocity":38,"Duration":330651,"SoundDuration":330651,"Delta":90066690}]}