{"title":"Piano Sonata, Hob. XVI:43, III","artist":"Haydn","durationMs":306280,"midiSha256":"082fab0004ac2a2b8ed5d894a2b2140ce63b35c903360a7a3f7b7421dd0bd381","midiObject":[{"NoteNumber":72,"Velocity":60,"Duration":110774,"SoundDuration":110774,"Delta":0},{"NoteNumber":73,"Velocity":55,"Duration":110774,"SoundDuration":110774,"Delta":110775},{"NoteNumber":75,"Velocity":60,"Duration":83081,"SoundDuration":83081,"Delta":221549},{"NoteNumber":75,"Velocity":61,"Duration":83081,"SoundDuration":83081,"Delta":443099},{"NoteNumber":75,"Velocity":63,"Duration":85818,"SoundDuration":85818,"Delta":664649},{"NoteNumber":80,"Velocity":69,"Duration":89087,"SoundDuration":89087,"Delta":893499},{"NoteNumber":75,"Velocity":61,"Duration":664665,"SoundDuration":664665,"Delta":1131067},{"NoteNumber":60,"Velocity":51,"Duration":220766,"SoundDuration":220766,"Delta":1351834},{"NoteNumber":58,"Velocity":51,"Duration":223131,"SoundDuration":223131,"Delta":1572601},{"NoteNumber":73,"Velocity":57,"Duration":103777,"SoundDuration":103777,"Delta":1795732},{"NoteNumber":56,"Velocity":48,"Duration":207555,"SoundDuration":207555,"Delta":1795732},{"NoteNumber":72,"Velocity":54,"Duration":103777,"SoundDuration":103777,"Delta":1899510},{"NoteNumber":70,"Velocity":60,"Duration":459417,"SoundDuration":459417,"Delta":2003287},{"NoteNumber":55,"Velocity":53,"Duration":229709,"SoundDuration":229709,"Delta":2003287},{"NoteNumber":51,"Velocity":47,"Duration":172281,"SoundDuration":172281,"Delta":2232996},{"NoteNumber":72,"Velocity":59,"Duration":466376,"SoundDuration":466376,"Delta":2462705},{"NoteNumber":56,"Velocity":49,"Duration":229709,"SoundDuration":229709,"Delta":2462705},{"NoteNumber":51,"Velocity":45,"Duration":177500,"SoundDuration":177500,"Delta":2692414},{"NoteNumber":75,"Velocity":59,"Duration":219218,"SoundDuration":219218,"Delta":2929082},{"NoteNumber":58,"Velocity":49,"Duration":219218,"SoundDuration":219218,"Delta":2929082},{"NoteNumber":73,"Velocity":51,"Duration":56591,"SoundDuration":56591,"Delta":3148300},{"NoteNumber":51,"Velocity":45,"Duration":169773,"SoundDuration":169773,"Delta":3148300},{"NoteNumber":75,"Velocity":46,"Duration":56591,"SoundDuration":56591,"Delta":3204891},{"NoteNumber":73,"Velocity":51,"Duration":113181,"SoundDuration":113181,"Delta":3261482},{"NoteNumber":72,"Velocity":59,"Duration":122991,"SoundDuration":122991,"Delta":3374664},{"NoteNumber":56,"Velocity":49,"Duration":245982,"SoundDuration":245982,"Delta":3374664},{"NoteNumber":72,"Velocity":60,"Duration":108845,"SoundDuration":108845,"Delta":3620646},{"NoteNumber":73,"Velocity":55,"Duration":108845,"SoundDuration":108845,"Delta":3729492},{"NoteNumber":75,"Velocity":60,"Duration":83736,"SoundDuration":83736,"Delta":3838337},{"NoteNumber":75,"Velocity":59,"Duration":82556,"SoundDuration":82556,"Delta":4061635},{"NoteNumber":75,"Velocity":64,"Duration":83973,"SoundDuration":83973,"Delta":4281786},{"NoteNumber":80,"Velocity":66,"Duration":87101,"SoundDuration":87101,"Delta":4505716},{"NoteNumber":75,"Velocity":61,"Duration":666230,"SoundDuration":666230,"Delta":4737986},{"NoteNumber":60,"Velocity":51,"Duration":221549,"SoundDuration":221549,"Delta":4959536},{"NoteNumber":58,"Velocity":51,"Duration":223131,"SoundDuration":223131,"Delta":5181085},{"NoteNumber":73,"Velocity":57,"Duration":103777,"SoundDuration":103777,"Delta":5404217},{"NoteNumber":56,"Velocity":48,"Duration":207555,"SoundDuration":207555,"Delta":5404217},{"NoteNumber":72,"Velocity":54,"Duration":103777,"SoundDuration":103777,"Delta":5507994},{"NoteNumber":70,"Velocity":60,"Duration":228850,"SoundDuration":228850,"Delta":5611772},{"NoteNumber":61,"Velocity":53,"Duration":228850,"SoundDuration":228850,"Delta":5611772},{"NoteNumber":73,"Velocity":51,"Duration":171637,"SoundDuration":171637,"Delta":5840622},{"NoteNumber":58,"Velocity":47,"Duration":171637,"SoundDuration":171637,"Delta":5840622},{"NoteNumber":67,"Velocity":59,"Duration":228850,"SoundDuration":228850,"Delta":6069473},{"NoteNumber":63,"Velocity":49,"Duration":228850,"SoundDuration":228850,"Delta":6069473},{"NoteNumber":70,"Velocity":50,"Duration":177500,"SoundDuration":177500,"Delta":6298323},{"NoteNumber":51,"Velocity":45,"Duration":177500,"SoundDuration":177500,"Delta":6298323},{"NoteNumber":68,"Velocity":60,"Duration":468018,"SoundDuration":468018,"Delta":6534991},{"NoteNumber":56,"Velocity":50,"Duration":234009,"SoundDuration":234009,"Delta":6534991},{"NoteNumber":51,"Velocity":42,"Duration":234009,"SoundDuration":234009,"Delta":6769000},{"NoteNumber":44,"Velocity":47,"Duration":234009,"SoundDuration":234009,"Delta":7003010},{"NoteNumber":72,"Velocity":60,"Duration":110774,"SoundDuration":110774,"Delta":7237019},{"NoteNumber":73,"Velocity":55,"Duration":110774,"SoundDuration":110774,"Delta":7347794},{"NoteNumber":75,"Velocity":60,"Duration":85259,"SoundDuration":85259,"Delta":7458569},{"NoteNumber":75,"Velocity":58,"Duration":82556,"SoundDuration":82556,"Delta":7685928},{"NoteNumber":75,"Velocity":64,"Duration":85194,"SoundDuration":85194,"Delta":7906079},{"NoteNumber":80,"Velocity":66,"Duration":89087,"SoundDuration":89087,"Delta":8133265},{"NoteNumber":75,"Velocity":61,"Duration":664665,"SoundDuration":664665,"Delta":8370833},{"NoteNumber":60,"Velocity":51,"Duration":220767,"SoundDuration":220767,"Delta":8591600},{"NoteNumber":58,"Velocity":51,"Duration":223131,"SoundDuration":223131,"Delta":8812367},{"NoteNumber":73,"Velocity":57,"Duration":103777,"SoundDuration":103777,"Delta":9035498},{"NoteNumber":56,"Velocity":48,"Duration":207554,"SoundDuration":207554,"Delta":9035498},{"NoteNumber":72,"Velocity":54,"Duration":103777,"SoundDuration":103777,"Delta":9139276},{"NoteNumber":70,"Velocity":60,"Duration":459417,"SoundDuration":459417,"Delta":9243053},{"NoteNumber":55,"Velocity":53,"Duration":229708,"SoundDuration":229708,"Delta":9243053},{"NoteNumber":51,"Velocity":47,"Duration":172281,"SoundDuration":172281,"Delta":9472762},{"NoteNumber":72,"Velocity":59,"Duration":466376,"SoundDuration":466376,"Delta":9702471},{"NoteNumber":56,"Velocity":49,"Duration":229709,"SoundDuration":229709,"Delta":9702471},{"NoteNumber":51,"Velocity":45,"Duration":177500,"SoundDuration":177500,"Delta":9932180},{"NoteNumber":75,"Velocity":59,"Duration":219217,"SoundDuration":219217,"Delta":10168848},{"NoteNumber":58,"Velocity":49,"Duration":219217,"SoundDuration":219217,"Delta":10168848},{"NoteNumber":73,"Velocity":51,"Duration":56590,"SoundDuration":56590,"Delta":10388066},{"NoteNumber":51,"Velocity":45,"Duration":169772,"SoundDuration":169772,"Delta":10388066},{"NoteNumber":75,"Velocity":46,"Duration":56591,"SoundDuration":56591,"Delta":10444657},{"NoteNumber":73,"Velocity":51,"Duration":113182,"SoundDuration":113182,"Delta":10501248},{"NoteNumber":72,"Velocity":59,"Duration":245982,"SoundDuration":245982,"Delta":10614430},{"NoteNumber":56,"Velocity":49,"Duration":245982,"SoundDuration":245982,"Delta":10614430},{"NoteNumber":72,"Velocity":60,"Duration":108845,"SoundDuration":108845,"Delta":10860412},{"NoteNumber":73,"Velocity":55,"Duration":108845,"SoundDuration":108845,"Delta":10969258},{"NoteNumber":75,"Velocity":60,"Duration":84643,"SoundDuration":84643,"Delta":11078103},{"NoteNumber":75,"Velocity":61,"Duration":82556,"SoundDuration":82556,"Delta":11303820},{"NoteNumber":75,"Velocity":61,"Duration":84580,"SoundDuration":84580,"Delta":11523971},{"NoteNumber":80,"Velocity":66,"Duration":87101,"SoundDuration":87101,"Delta":11749518},{"NoteNumber":75,"Velocity":61,"Duration":666230,"SoundDuration":666230,"Delta":11981788},{"NoteNumber":60,"Velocity":51,"Duration":221549,"SoundDuration":221549,"Delta":12203337},{"NoteNumber":58,"Velocity":51,"Duration":223131,"SoundDuration":223131,"Delta":12424887},{"NoteNumber":73,"Velocity":57,"Duration":103777,"SoundDuration":103777,"Delta":12648018},{"NoteNumber":56,"Velocity":48,"Duration":207554,"SoundDuration":207554,"Delta":12648018},{"NoteNumber":72,"Velocity":54,"Duration":103777,"SoundDuration":103777,"Delta":12751796},{"NoteNumber":70,"Velocity":60,"Duration":228850,"SoundDuration":228850,"Delta":12855573},{"NoteNumber":61,"Velocity":53,"Duration":228850,"SoundDuration":228850,"Delta":12855573},{"NoteNumber":73,"Velocity":51,"Duration":171637,"SoundDuration":171637,"Delta":13084424},{"NoteNumber":58,"Velocity":47,"Duration":171637,"SoundDuration":171637,"Delta":13084424},{"NoteNumber":67,"Velocity":59,"Duration":228850,"SoundDuration":228850,"Delta":13313274},{"NoteNumber":63,"Velocity":49,"Duration":228850,"SoundDuration":228850,"Delta":13313274},{"NoteNumber":70,"Velocity":50,"Duration":177500,"SoundDuration":177500,"Delta":13542125},{"NoteNumber":51,"Velocity":45,"Duration":177500,"SoundDuration":177500,"Delta":13542125},{"NoteNumber":68,"Velocity":60,"Duration":468018,"SoundDuration":468018,"Delta":13778792},{"NoteNumber":56,"Velocity":50,"Duration":234009,"SoundDuration":234009,"Delta":13778792},{"NoteNumber":51,"Velocity":42,"Duration":234009,"SoundDuration":234009,"Delta":14012802},{"NoteNumber":44,"Velocity":47,"Duration":241234,"SoundDuration":241234,"Delta":14246811},{"NoteNumber":75,"Velocity":53,"Duration":222337,"SoundDuration":222337,"Delta":14488046},{"NoteNumber":77,"Velocity":59,"Duration":222337,"SoundDuration":222337,"Delta":14710384},{"NoteNumber":75,"Velocity":56,"Duration":222337,"SoundDuration":222337,"Delta":14932721},{"NoteNumber":74,"Velocity":56,"Duration":171637,"SoundDuration":171637,"Delta":15155059},{"NoteNumber":83,"Velocity":59,"Duration":223297,"SoundDuration":223297,"Delta":15383909},{"NoteNumber":74,"Velocity":41,"Duration":223297,"SoundDuration":223297,"Delta":15383909},{"NoteNumber":68,"Velocity":34,"Duration":223297,"SoundDuration":223297,"Delta":15383909},{"NoteNumber":82,"Velocity":59,"Duration":222337,"SoundDuration":222337,"Delta":15607206},{"NoteNumber":67,"Velocity":38,"Duration":444675,"SoundDuration":444675,"Delta":15607206},{"NoteNumber":75,"Velocity":45,"Duration":441895,"SoundDuration":441895,"Delta":15607206},{"NoteNumber":79,"Velocity":53,"Duration":222337,"SoundDuration":222337,"Delta":15829544},{"NoteNumber":75,"Velocity":53,"Duration":226775,"SoundDuration":226775,"Delta":16051881},{"NoteNumber":72,"Velocity":59,"Duration":162701,"SoundDuration":162701,"Delta":16278657},{"NoteNumber":75,"Velocity":53,"Duration":54233,"SoundDuration":54233,"Delta":16441358},{"NoteNumber":73,"Velocity":61,"Duration":220766,"SoundDuration":220766,"Delta":16495592},{"NoteNumber":72,"Velocity":55,"Duration":220767,"SoundDuration":220767,"Delta":16716359},{"NoteNumber":71,"Velocity":55,"Duration":170389,"SoundDuration":170389,"Delta":16937126},{"NoteNumber":80,"Velocity":59,"Duration":222502,"SoundDuration":222502,"Delta":17164313},{"NoteNumber":71,"Velocity":41,"Duration":222502,"SoundDuration":222502,"Delta":17164313},{"NoteNumber":65,"Velocity":34,"Duration":222502,"SoundDuration":222502,"Delta":17164313},{"NoteNumber":79,"Velocity":59,"Duration":220766,"SoundDuration":220766,"Delta":17386815},{"NoteNumber":63,"Velocity":38,"Duration":441534,"SoundDuration":441534,"Delta":17386815},{"NoteNumber":72,"Velocity":45,"Duration":438774,"SoundDuration":438774,"Delta":17386815},{"NoteNumber":75,"Velocity":53,"Duration":220767,"SoundDuration":220767,"Delta":17607582},{"NoteNumber":72,"Velocity":53,"Duration":225546,"SoundDuration":225546,"Delta":17828349},{"NoteNumber":68,"Velocity":59,"Duration":162138,"SoundDuration":162138,"Delta":18053896},{"NoteNumber":72,"Velocity":53,"Duration":54046,"SoundDuration":54046,"Delta":18216035},{"NoteNumber":70,"Velocity":61,"Duration":220766,"SoundDuration":220766,"Delta":18270081},{"NoteNumber":68,"Velocity":53,"Duration":222337,"SoundDuration":222337,"Delta":18490848},{"NoteNumber":67,"Velocity":53,"Duration":173423,"SoundDuration":173423,"Delta":18713186},{"NoteNumber":77,"Velocity":59,"Duration":217690,"SoundDuration":217690,"Delta":18944417},{"NoteNumber":67,"Velocity":41,"Duration":217690,"SoundDuration":217690,"Delta":18944417},{"NoteNumber":61,"Velocity":34,"Duration":217690,"SoundDuration":217690,"Delta":18944417},{"NoteNumber":75,"Velocity":59,"Duration":220766,"SoundDuration":220766,"Delta":19162108},{"NoteNumber":60,"Velocity":38,"Duration":441534,"SoundDuration":441534,"Delta":19162108},{"NoteNumber":68,"Velocity":45,"Duration":439694,"SoundDuration":439694,"Delta":19162108},{"NoteNumber":72,"Velocity":53,"Duration":220767,"SoundDuration":220767,"Delta":19382875},{"NoteNumber":68,"Velocity":53,"Duration":170389,"SoundDuration":170389,"Delta":19603642},{"NoteNumber":75,"Velocity":59,"Duration":219989,"SoundDuration":219989,"Delta":19830829},{"NoteNumber":74,"Velocity":59,"Duration":222337,"SoundDuration":222337,"Delta":20050818},{"NoteNumber":58,"Velocity":38,"Duration":444675,"SoundDuration":444675,"Delta":20050818},{"NoteNumber":68,"Velocity":45,"Duration":444675,"SoundDuration":444675,"Delta":20050818},{"NoteNumber":77,"Velocity":51,"Duration":222337,"SoundDuration":222337,"Delta":20273156},{"NoteNumber":80,"Velocity":53,"Duration":222337,"SoundDuration":222337,"Delta":20495493},{"NoteNumber":74,"Velocity":50,"Duration":228015,"SoundDuration":228015,"Delta":20717831},{"NoteNumber":75,"Velocity":59,"Duration":222734,"SoundDuration":222734,"Delta":20945846},{"NoteNumber":63,"Velocity":38,"Duration":445866,"SoundDuration":445866,"Delta":20945846},{"NoteNumber":67,"Velocity":45,"Duration":445866,"SoundDuration":445866,"Delta":20945846},{"NoteNumber":77,"Velocity":49,"Duration":74377,"SoundDuration":74377,"Delta":21168581},{"NoteNumber":75,"Velocity":47,"Duration":74377,"SoundDuration":74377,"Delta":21242958},{"NoteNumber":74,"Velocity":47,"Duration":74377,"SoundDuration":74377,"Delta":21317335},{"NoteNumber":75,"Velocity":59,"Duration":83674,"SoundDuration":83674,"Delta":21391712},{"NoteNumber":75,"Velocity":56,"Duration":87426,"SoundDuration":87426,"Delta":21614844},{"NoteNumber":74,"Velocity":59,"Duration":235775,"SoundDuration":235775,"Delta":21847980},{"NoteNumber":58,"Velocity":38,"Duration":471550,"SoundDuration":471550,"Delta":21847980},{"NoteNumber":68,"Velocity":45,"Duration":471550,"SoundDuration":471550,"Delta":21847980},{"NoteNumber":77,"Velocity":48,"Duration":235775,"SoundDuration":235775,"Delta":22083755},{"NoteNumber":80,"Velocity":51,"Duration":235775,"SoundDuration":235775,"Delta":22319530},{"NoteNumber":74,"Velocity":43,"Duration":254000,"SoundDuration":254000,"Delta":22555305},{"NoteNumber":77,"Velocity":53,"Duration":328227,"SoundDuration":328227,"Delta":22809306},{"NoteNumber":75,"Velocity":47,"Duration":283929,"SoundDuration":283929,"Delta":23137533},{"NoteNumber":39,"Velocity":26,"Duration":567858,"SoundDuration":567858,"Delta":23137533},{"NoteNumber":72,"Velocity":60,"Duration":110774,"SoundDuration":110774,"Delta":24003811},{"NoteNumber":73,"Velocity":55,"Duration":110774,"SoundDuration":110774,"Delta":24114585},{"NoteNumber":75,"Velocity":60,"Duration":83081,"SoundDuration":83081,"Delta":24225360},{"NoteNumber":75,"Velocity":61,"Duration":83081,"SoundDuration":83081,"Delta":24446910},{"NoteNumber":75,"Velocity":63,"Duration":83081,"SoundDuration":83081,"Delta":24668459},{"NoteNumber":80,"Velocity":66,"Duration":89087,"SoundDuration":89087,"Delta":24890009},{"NoteNumber":75,"Velocity":61,"Duration":664665,"SoundDuration":664665,"Delta":25127576},{"NoteNumber":60,"Velocity":51,"Duration":220767,"SoundDuration":220767,"Delta":25348343},{"NoteNumber":58,"Velocity":51,"Duration":223131,"SoundDuration":223131,"Delta":25569110},{"NoteNumber":73,"Velocity":57,"Duration":103777,"SoundDuration":103777,"Delta":25792242},{"NoteNumber":56,"Velocity":48,"Duration":207554,"SoundDuration":207554,"Delta":25792242},{"NoteNumber":72,"Velocity":54,"Duration":103777,"SoundDuration":103777,"Delta":25896019},{"NoteNumber":70,"Velocity":60,"Duration":172281,"SoundDuration":172281,"Delta":25999797},{"NoteNumber":55,"Velocity":53,"Duration":229708,"SoundDuration":229708,"Delta":25999797},{"NoteNumber":70,"Velocity":53,"Duration":229708,"SoundDuration":229708,"Delta":26229506},{"NoteNumber":51,"Velocity":47,"Duration":172281,"SoundDuration":172281,"Delta":26229506},{"NoteNumber":72,"Velocity":59,"Duration":174716,"SoundDuration":174716,"Delta":26459215},{"NoteNumber":56,"Velocity":49,"Duration":232955,"SoundDuration":232955,"Delta":26459215},{"NoteNumber":72,"Velocity":53,"Duration":177500,"SoundDuration":177500,"Delta":26692170},{"NoteNumber":51,"Velocity":45,"Duration":177500,"SoundDuration":177500,"Delta":26692170},{"NoteNumber":75,"Velocity":59,"Duration":219218,"SoundDuration":219218,"Delta":26928838},{"NoteNumber":58,"Velocity":49,"Duration":219218,"SoundDuration":219218,"Delta":26928838},{"NoteNumber":73,"Velocity":51,"Duration":56591,"SoundDuration":56591,"Delta":27148056},{"NoteNumber":51,"Velocity":45,"Duration":169772,"SoundDuration":169772,"Delta":27148056},{"NoteNumber":75,"Velocity":46,"Duration":56590,"SoundDuration":56590,"Delta":27204647},{"NoteNumber":73,"Velocity":51,"Duration":113182,"SoundDuration":113182,"Delta":27261238},{"NoteNumber":72,"Velocity":59,"Duration":245982,"SoundDuration":245982,"Delta":27374420},{"NoteNumber":56,"Velocity":49,"Duration":245982,"SoundDuration":245982,"Delta":27374420},{"NoteNumber":72,"Velocity":60,"Duration":108845,"SoundDuration":108845,"Delta":27620402},{"NoteNumber":73,"Velocity":55,"Duration":108845,"SoundDuration":108845,"Delta":27729248},{"NoteNumber":75,"Velocity":60,"Duration":84643,"SoundDuration":84643,"Delta":27838093},{"NoteNumber":75,"Velocity":57,"Duration":82266,"SoundDuration":82266,"Delta":28063810},{"NoteNumber":75,"Velocity":59,"Duration":82266,"SoundDuration":82266,"Delta":28283188},{"NoteNumber":80,"Velocity":66,"Duration":87101,"SoundDuration":87101,"Delta":28502567},{"NoteNumber":75,"Velocity":61,"Duration":666230,"SoundDuration":666230,"Delta":28734837},{"NoteNumber":60,"Velocity":51,"Duration":221549,"SoundDuration":221549,"Delta":28956386},{"NoteNumber":58,"Velocity":51,"Duration":223131,"SoundDuration":223131,"Delta":29177936},{"NoteNumber":73,"Velocity":57,"Duration":103777,"SoundDuration":103777,"Delta":29401067},{"NoteNumber":56,"Velocity":48,"Duration":207554,"SoundDuration":207554,"Delta":29401067},{"NoteNumber":72,"Velocity":54,"Duration":103777,"SoundDuration":103777,"Delta":29504845},{"NoteNumber":70,"Velocity":62,"Duration":114425,"SoundDuration":114425,"Delta":29608622},{"NoteNumber":61,"Velocity":53,"Duration":228850,"SoundDuration":228850,"Delta":29608622},{"NoteNumber":73,"Velocity":43,"Duration":114425,"SoundDuration":114425,"Delta":29723047},{"NoteNumber":70,"Velocity":55,"Duration":114425,"SoundDuration":114425,"Delta":29837473},{"NoteNumber":58,"Velocity":47,"Duration":171637,"SoundDuration":171637,"Delta":29837473},{"NoteNumber":73,"Velocity":43,"Duration":114425,"SoundDuration":114425,"Delta":29951898},{"NoteNumber":67,"Velocity":59,"Duration":116045,"SoundDuration":116045,"Delta":30066323},{"NoteNumber":63,"Velocity":49,"Duration":232090,"SoundDuration":232090,"Delta":30066323},{"NoteNumber":70,"Velocity":50,"Duration":177500,"SoundDuration":177500,"Delta":30298414},{"NoteNumber":51,"Velocity":45,"Duration":177500,"SoundDuration":177500,"Delta":30298414},{"NoteNumber":68,"Velocity":60,"Duration":468019,"SoundDuration":468019,"Delta":30535081},{"NoteNumber":56,"Velocity":50,"Duration":234009,"SoundDuration":234009,"Delta":30535081},{"NoteNumber":51,"Velocity":42,"Duration":234009,"SoundDuration":234009,"Delta":30769091},{"NoteNumber":44,"Velocity":47,"Duration":234009,"SoundDuration":234009,"Delta":31003100},{"NoteNumber":75,"Velocity":53,"Duration":222337,"SoundDuration":222337,"Delta":31237110},{"NoteNumber":77,"Velocity":59,"Duration":222337,"SoundDuration":222337,"Delta":31459447},{"NoteNumber":75,"Velocity":56,"Duration":222337,"SoundDuration":222337,"Delta":31681785},{"NoteNumber":74,"Velocity":56,"Duration":171637,"SoundDuration":171637,"Delta":31904122},{"NoteNumber":83,"Velocity":59,"Duration":222502,"SoundDuration":222502,"Delta":32132973},{"NoteNumber":74,"Velocity":41,"Duration":222502,"SoundDuration":222502,"Delta":32132973},{"NoteNumber":68,"Velocity":34,"Duration":222502,"SoundDuration":222502,"Delta":32132973},{"NoteNumber":82,"Velocity":59,"Duration":222337,"SoundDuration":222337,"Delta":32355475},{"NoteNumber":67,"Velocity":38,"Duration":444674,"SoundDuration":444674,"Delta":32355475},{"NoteNumber":75,"Velocity":45,"Duration":441895,"SoundDuration":441895,"Delta":32355475},{"NoteNumber":79,"Velocity":53,"Duration":222337,"SoundDuration":222337,"Delta":32577813},{"NoteNumber":75,"Velocity":53,"Duration":226775,"SoundDuration":226775,"Delta":32800150},{"NoteNumber":72,"Velocity":59,"Duration":162701,"SoundDuration":162701,"Delta":33026925},{"NoteNumber":75,"Velocity":53,"Duration":54233,"SoundDuration":54233,"Delta":33189627},{"NoteNumber":73,"Velocity":61,"Duration":220767,"SoundDuration":220767,"Delta":33243861},{"NoteNumber":72,"Velocity":55,"Duration":220766,"SoundDuration":220766,"Delta":33464628},{"NoteNumber":71,"Velocity":55,"Duration":170389,"SoundDuration":170389,"Delta":33685395},{"NoteNumber":80,"Velocity":59,"Duration":220151,"SoundDuration":220151,"Delta":33912581},{"NoteNumber":71,"Velocity":41,"Duration":220151,"SoundDuration":220151,"Delta":33912581},{"NoteNumber":65,"Velocity":34,"Duration":220151,"SoundDuration":220151,"Delta":33912581},{"NoteNumber":79,"Velocity":59,"Duration":220767,"SoundDuration":220767,"Delta":34132732},{"NoteNumber":63,"Velocity":38,"Duration":441533,"SoundDuration":441533,"Delta":34132732},{"NoteNumber":72,"Velocity":45,"Duration":438774,"SoundDuration":438774,"Delta":34132732},{"NoteNumber":75,"Velocity":53,"Duration":220766,"SoundDuration":220766,"Delta":34353499},{"NoteNumber":72,"Velocity":53,"Duration":225546,"SoundDuration":225546,"Delta":34574266},{"NoteNumber":68,"Velocity":59,"Duration":162138,"SoundDuration":162138,"Delta":34799813},{"NoteNumber":72,"Velocity":53,"Duration":54046,"SoundDuration":54046,"Delta":34961952},{"NoteNumber":70,"Velocity":61,"Duration":220767,"SoundDuration":220767,"Delta":35015998},{"NoteNumber":68,"Velocity":53,"Duration":222337,"SoundDuration":222337,"Delta":35236765},{"NoteNumber":67,"Velocity":53,"Duration":173423,"SoundDuration":173423,"Delta":35459103},{"NoteNumber":77,"Velocity":59,"Duration":217691,"SoundDuration":217691,"Delta":35690334},{"NoteNumber":67,"Velocity":41,"Duration":217691,"SoundDuration":217691,"Delta":35690334},{"NoteNumber":61,"Velocity":34,"Duration":217691,"SoundDuration":217691,"Delta":35690334},{"NoteNumber":75,"Velocity":59,"Duration":220767,"SoundDuration":220767,"Delta":35908025},{"NoteNumber":60,"Velocity":38,"Duration":441533,"SoundDuration":441533,"Delta":35908025},{"NoteNumber":68,"Velocity":45,"Duration":439694,"SoundDuration":439694,"Delta":35908025},{"NoteNumber":72,"Velocity":53,"Duration":220766,"SoundDuration":220766,"Delta":36128792},{"NoteNumber":68,"Velocity":53,"Duration":170389,"SoundDuration":170389,"Delta":36349559},{"NoteNumber":75,"Velocity":59,"Duration":219989,"SoundDuration":219989,"Delta":36576746},{"NoteNumber":74,"Velocity":59,"Duration":222337,"SoundDuration":222337,"Delta":36796735},{"NoteNumber":58,"Velocity":38,"Duration":444674,"SoundDuration":444674,"Delta":36796735},{"NoteNumber":68,"Velocity":45,"Duration":444674,"SoundDuration":444674,"Delta":36796735},{"NoteNumber":77,"Velocity":51,"Duration":222337,"SoundDuration":222337,"Delta":37019073},{"NoteNumber":80,"Velocity":53,"Duration":222337,"SoundDuration":222337,"Delta":37241410},{"NoteNumber":74,"Velocity":50,"Duration":228015,"SoundDuration":228015,"Delta":37463748},{"NoteNumber":75,"Velocity":59,"Duration":222734,"SoundDuration":222734,"Delta":37691763},{"NoteNumber":63,"Velocity":38,"Duration":445865,"SoundDuration":445865,"Delta":37691763},{"NoteNumber":67,"Velocity":45,"Duration":445865,"SoundDuration":445865,"Delta":37691763},{"NoteNumber":77,"Velocity":49,"Duration":74377,"SoundDuration":74377,"Delta":37914498},{"NoteNumber":75,"Velocity":47,"Duration":74377,"SoundDuration":74377,"Delta":37988875},{"NoteNumber":74,"Velocity":47,"Duration":74377,"SoundDuration":74377,"Delta":38063252},{"NoteNumber":75,"Velocity":59,"Duration":83674,"SoundDuration":83674,"Delta":38137629},{"NoteNumber":75,"Velocity":56,"Duration":87426,"SoundDuration":87426,"Delta":38360761},{"NoteNumber":74,"Velocity":59,"Duration":235774,"SoundDuration":235774,"Delta":38593897},{"NoteNumber":58,"Velocity":38,"Duration":471550,"SoundDuration":471550,"Delta":38593897},{"NoteNumber":68,"Velocity":45,"Duration":471550,"SoundDuration":471550,"Delta":38593897},{"NoteNumber":77,"Velocity":48,"Duration":235775,"SoundDuration":235775,"Delta":38829672},{"NoteNumber":80,"Velocity":51,"Duration":235774,"SoundDuration":235774,"Delta":39065447},{"NoteNumber":74,"Velocity":43,"Duration":254000,"SoundDuration":254000,"Delta":39301222},{"NoteNumber":77,"Velocity":53,"Duration":328227,"SoundDuration":328227,"Delta":39555223},{"NoteNumber":75,"Velocity":47,"Duration":278862,"SoundDuration":278862,"Delta":39883450},{"NoteNumber":39,"Velocity":26,"Duration":557724,"SoundDuration":557724,"Delta":39883450},{"NoteNumber":72,"Velocity":60,"Duration":110774,"SoundDuration":110774,"Delta":40739593},{"NoteNumber":73,"Velocity":55,"Duration":110774,"SoundDuration":110774,"Delta":40850368},{"NoteNumber":75,"Velocity":60,"Duration":83081,"SoundDuration":83081,"Delta":40961143},{"NoteNumber":75,"Velocity":61,"Duration":83081,"SoundDuration":83081,"Delta":41182692},{"NoteNumber":75,"Velocity":63,"Duration":83081,"SoundDuration":83081,"Delta":41404242},{"NoteNumber":80,"Velocity":66,"Duration":89087,"SoundDuration":89087,"Delta":41625791},{"NoteNumber":75,"Velocity":61,"Duration":664665,"SoundDuration":664665,"Delta":41863359},{"NoteNumber":60,"Velocity":51,"Duration":220766,"SoundDuration":220766,"Delta":42084126},{"NoteNumber":58,"Velocity":51,"Duration":223131,"SoundDuration":223131,"Delta":42304893},{"NoteNumber":73,"Velocity":57,"Duration":103777,"SoundDuration":103777,"Delta":42528024},{"NoteNumber":56,"Velocity":48,"Duration":207554,"SoundDuration":207554,"Delta":42528024},{"NoteNumber":72,"Velocity":54,"Duration":103777,"SoundDuration":103777,"Delta":42631802},{"NoteNumber":70,"Velocity":60,"Duration":172281,"SoundDuration":172281,"Delta":42735579},{"NoteNumber":55,"Velocity":53,"Duration":229708,"SoundDuration":229708,"Delta":42735579},{"NoteNumber":70,"Velocity":53,"Duration":229708,"SoundDuration":229708,"Delta":42965288},{"NoteNumber":51,"Velocity":47,"Duration":172281,"SoundDuration":172281,"Delta":42965288},{"NoteNumber":72,"Velocity":59,"Duration":174716,"SoundDuration":174716,"Delta":43194997},{"NoteNumber":56,"Velocity":49,"Duration":232955,"SoundDuration":232955,"Delta":43194997},{"NoteNumber":72,"Velocity":53,"Duration":177500,"SoundDuration":177500,"Delta":43427953},{"NoteNumber":51,"Velocity":45,"Duration":177500,"SoundDuration":177500,"Delta":43427953},{"NoteNumber":75,"Velocity":59,"Duration":219217,"SoundDuration":219217,"Delta":43664620},{"NoteNumber":58,"Velocity":49,"Duration":219217,"SoundDuration":219217,"Delta":43664620},{"NoteNumber":73,"Velocity":51,"Duration":56590,"SoundDuration":56590,"Delta":43883838},{"NoteNumber":51,"Velocity":45,"Duration":169772,"SoundDuration":169772,"Delta":43883838},{"NoteNumber":75,"Velocity":46,"Duration":56591,"SoundDuration":56591,"Delta":43940429},{"NoteNumber":73,"Velocity":51,"Duration":113181,"SoundDuration":113181,"Delta":43997020},{"NoteNumber":72,"Velocity":59,"Duration":245982,"SoundDuration":245982,"Delta":44110202},{"NoteNumber":56,"Velocity":49,"Duration":245982,"SoundDuration":245982,"Delta":44110202},{"NoteNumber":72,"Velocity":60,"Duration":108845,"SoundDuration":108845,"Delta":44356185},{"NoteNumber":73,"Velocity":55,"Duration":108845,"SoundDuration":108845,"Delta":44465030},{"NoteNumber":75,"Velocity":60,"Duration":84339,"SoundDuration":84339,"Delta":44573876},{"NoteNumber":75,"Velocity":57,"Duration":82556,"SoundDuration":82556,"Delta":44798780},{"NoteNumber":75,"Velocity":59,"Duration":82556,"SoundDuration":82556,"Delta":45018931},{"NoteNumber":80,"Velocity":66,"Duration":87101,"SoundDuration":87101,"Delta":45239082},{"NoteNumber":75,"Velocity":61,"Duration":666230,"SoundDuration":666230,"Delta":45471352},{"NoteNumber":60,"Velocity":51,"Duration":221549,"SoundDuration":221549,"Delta":45692902},{"NoteNumber":58,"Velocity":51,"Duration":223131,"SoundDuration":223131,"Delta":45914451},{"NoteNumber":73,"Velocity":57,"Duration":103777,"SoundDuration":103777,"Delta":46137583},{"NoteNumber":56,"Velocity":48,"Duration":207554,"SoundDuration":207554,"Delta":46137583},{"NoteNumber":72,"Velocity":54,"Duration":103777,"SoundDuration":103777,"Delta":46241360},{"NoteNumber":70,"Velocity":62,"Duration":114425,"SoundDuration":114425,"Delta":46345138},{"NoteNumber":61,"Velocity":53,"Duration":228850,"SoundDuration":228850,"Delta":46345138},{"NoteNumber":73,"Velocity":43,"Duration":114425,"SoundDuration":114425,"Delta":46459563},{"NoteNumber":70,"Velocity":55,"Duration":114425,"SoundDuration":114425,"Delta":46573988},{"NoteNumber":58,"Velocity":47,"Duration":171637,"SoundDuration":171637,"Delta":46573988},{"NoteNumber":73,"Velocity":43,"Duration":114425,"SoundDuration":114425,"Delta":46688414},{"NoteNumber":67,"Velocity":59,"Duration":116045,"SoundDuration":116045,"Delta":46802839},{"NoteNumber":63,"Velocity":49,"Duration":232090,"SoundDuration":232090,"Delta":46802839},{"NoteNumber":70,"Velocity":50,"Duration":177500,"SoundDuration":177500,"Delta":47034929},{"NoteNumber":51,"Velocity":45,"Duration":177500,"SoundDuration":177500,"Delta":47034929},{"NoteNumber":68,"Velocity":60,"Duration":468018,"SoundDuration":468018,"Delta":47271597},{"NoteNumber":56,"Velocity":50,"Duration":234009,"SoundDuration":234009,"Delta":47271597},{"NoteNumber":51,"Velocity":42,"Duration":234009,"SoundDuration":234009,"Delta":47505606},{"NoteNumber":44,"Velocity":47,"Duration":234009,"SoundDuration":234009,"Delta":47739616},{"NoteNumber":60,"Velocity":57,"Duration":110774,"SoundDuration":110774,"Delta":47973625},{"NoteNumber":61,"Velocity":52,"Duration":110774,"SoundDuration":110774,"Delta":48084400},{"NoteNumber":63,"Velocity":57,"Duration":85259,"SoundDuration":85259,"Delta":48195175},{"NoteNumber":63,"Velocity":57,"Duration":82848,"SoundDuration":82848,"Delta":48422534},{"NoteNumber":63,"Velocity":59,"Duration":85818,"SoundDuration":85818,"Delta":48643463},{"NoteNumber":68,"Velocity":65,"Duration":89087,"SoundDuration":89087,"Delta":48872314},{"NoteNumber":63,"Velocity":57,"Duration":664665,"SoundDuration":664665,"Delta":49109881},{"NoteNumber":60,"Velocity":51,"Duration":220766,"SoundDuration":220766,"Delta":49330648},{"NoteNumber":58,"Velocity":51,"Duration":223131,"SoundDuration":223131,"Delta":49551415},{"NoteNumber":72,"Velocity":59,"Duration":217691,"SoundDuration":217691,"Delta":49774547},{"NoteNumber":56,"Velocity":48,"Duration":217691,"SoundDuration":217691,"Delta":49774547},{"NoteNumber":70,"Velocity":70,"Duration":220767,"SoundDuration":220767,"Delta":49992238},{"NoteNumber":55,"Velocity":45,"Duration":441533,"SoundDuration":441533,"Delta":49992238},{"NoteNumber":75,"Velocity":62,"Duration":220766,"SoundDuration":220766,"Delta":50213005},{"NoteNumber":79,"Velocity":68,"Duration":227186,"SoundDuration":227186,"Delta":50433772},{"NoteNumber":67,"Velocity":63,"Duration":219989,"SoundDuration":219989,"Delta":50660958},{"NoteNumber":51,"Velocity":48,"Duration":219989,"SoundDuration":219989,"Delta":50660958},{"NoteNumber":70,"Velocity":68,"Duration":222337,"SoundDuration":222337,"Delta":50880948},{"NoteNumber":53,"Velocity":45,"Duration":222337,"SoundDuration":222337,"Delta":50880948},{"NoteNumber":68,"Velocity":59,"Duration":222337,"SoundDuration":222337,"Delta":51103285},{"NoteNumber":56,"Velocity":51,"Duration":222337,"SoundDuration":222337,"Delta":51103285},{"NoteNumber":62,"Velocity":48,"Duration":222337,"SoundDuration":222337,"Delta":51325623},{"NoteNumber":65,"Velocity":59,"Duration":217691,"SoundDuration":217691,"Delta":51547960},{"NoteNumber":50,"Velocity":48,"Duration":217691,"SoundDuration":217691,"Delta":51547960},{"NoteNumber":67,"Velocity":70,"Duration":220767,"SoundDuration":220767,"Delta":51765651},{"NoteNumber":51,"Velocity":45,"Duration":220767,"SoundDuration":220767,"Delta":51765651},{"NoteNumber":70,"Velocity":62,"Duration":220766,"SoundDuration":220766,"Delta":51986418},{"NoteNumber":43,"Velocity":51,"Duration":220766,"SoundDuration":220766,"Delta":51986418},{"NoteNumber":72,"Velocity":70,"Duration":227186,"SoundDuration":227186,"Delta":52207185},{"NoteNumber":44,"Velocity":51,"Duration":227186,"SoundDuration":227186,"Delta":52207185},{"NoteNumber":63,"Velocity":66,"Duration":164992,"SoundDuration":164992,"Delta":52434372},{"NoteNumber":45,"Velocity":48,"Duration":219989,"SoundDuration":219989,"Delta":52434372},{"NoteNumber":63,"Velocity":72,"Duration":222337,"SoundDuration":222337,"Delta":52654361},{"NoteNumber":46,"Velocity":45,"Duration":444674,"SoundDuration":444674,"Delta":52654361},{"NoteNumber":62,"Velocity":62,"Duration":222337,"SoundDuration":222337,"Delta":52876699},{"NoteNumber":70,"Velocity":59,"Duration":217691,"SoundDuration":217691,"Delta":53321374},{"NoteNumber":67,"Velocity":48,"Duration":217691,"SoundDuration":217691,"Delta":53321374},{"NoteNumber":68,"Velocity":70,"Duration":109225,"SoundDuration":109225,"Delta":53539065},{"NoteNumber":65,"Velocity":45,"Duration":218451,"SoundDuration":218451,"Delta":53539065},{"NoteNumber":70,"Velocity":63,"Duration":109225,"SoundDuration":109225,"Delta":53648291},{"NoteNumber":67,"Velocity":70,"Duration":109225,"SoundDuration":109225,"Delta":53757517},{"NoteNumber":63,"Velocity":51,"Duration":218451,"SoundDuration":218451,"Delta":53757517},{"NoteNumber":70,"Velocity":62,"Duration":109225,"SoundDuration":109225,"Delta":53866743},{"NoteNumber":65,"Velocity":70,"Duration":227186,"SoundDuration":227186,"Delta":53975969},{"NoteNumber":62,"Velocity":51,"Duration":227186,"SoundDuration":227186,"Delta":53975969},{"NoteNumber":74,"Velocity":75,"Duration":224736,"SoundDuration":224736,"Delta":54203155},{"NoteNumber":56,"Velocity":56,"Duration":112367,"SoundDuration":112367,"Delta":54203155},{"NoteNumber":58,"Velocity":48,"Duration":112368,"SoundDuration":112368,"Delta":54315523},{"NoteNumber":75,"Velocity":81,"Duration":223131,"SoundDuration":223131,"Delta":54427891},{"NoteNumber":55,"Velocity":60,"Duration":111565,"SoundDuration":111565,"Delta":54427891},{"NoteNumber":58,"Velocity":48,"Duration":111565,"SoundDuration":111565,"Delta":54539457},{"NoteNumber":77,"Velocity":77,"Duration":223131,"SoundDuration":223131,"Delta":54651023},{"NoteNumber":53,"Velocity":58,"Duration":111565,"SoundDuration":111565,"Delta":54651023},{"NoteNumber":58,"Velocity":53,"Duration":111565,"SoundDuration":111565,"Delta":54762589},{"NoteNumber":79,"Velocity":82,"Duration":223131,"SoundDuration":223131,"Delta":54874154},{"NoteNumber":51,"Velocity":59,"Duration":223131,"SoundDuration":223131,"Delta":54874154},{"NoteNumber":70,"Velocity":75,"Duration":222337,"SoundDuration":222337,"Delta":55097286},{"NoteNumber":67,"Velocity":55,"Duration":222337,"SoundDuration":222337,"Delta":55097286},{"NoteNumber":68,"Velocity":70,"Duration":109225,"SoundDuration":109225,"Delta":55319623},{"NoteNumber":65,"Velocity":45,"Duration":218451,"SoundDuration":218451,"Delta":55319623},{"NoteNumber":70,"Velocity":63,"Duration":109225,"SoundDuration":109225,"Delta":55428849},{"NoteNumber":67,"Velocity":70,"Duration":109225,"SoundDuration":109225,"Delta":55538075},{"NoteNumber":63,"Velocity":51,"Duration":218451,"SoundDuration":218451,"Delta":55538075},{"NoteNumber":70,"Velocity":62,"Duration":109225,"SoundDuration":109225,"Delta":55647301},{"NoteNumber":65,"Velocity":70,"Duration":227186,"SoundDuration":227186,"Delta":55756527},{"NoteNumber":62,"Velocity":51,"Duration":227186,"SoundDuration":227186,"Delta":55756527},{"NoteNumber":74,"Velocity":75,"Duration":223930,"SoundDuration":223930,"Delta":55983714},{"NoteNumber":56,"Velocity":56,"Duration":111965,"SoundDuration":111965,"Delta":55983714},{"NoteNumber":58,"Velocity":48,"Duration":111965,"SoundDuration":111965,"Delta":56095679},{"NoteNumber":75,"Velocity":81,"Duration":220767,"SoundDuration":220767,"Delta":56207644},{"NoteNumber":55,"Velocity":60,"Duration":110383,"SoundDuration":110383,"Delta":56207644},{"NoteNumber":58,"Velocity":48,"Duration":110383,"SoundDuration":110383,"Delta":56318028},{"NoteNumber":77,"Velocity":77,"Duration":220766,"SoundDuration":220766,"Delta":56428411},{"NoteNumber":53,"Velocity":58,"Duration":110383,"SoundDuration":110383,"Delta":56428411},{"NoteNumber":58,"Velocity":53,"Duration":110383,"SoundDuration":110383,"Delta":56538795},{"NoteNumber":79,"Velocity":82,"Duration":229708,"SoundDuration":229708,"Delta":56649178},{"NoteNumber":51,"Velocity":59,"Duration":229708,"SoundDuration":229708,"Delta":56649178},{"NoteNumber":79,"Velocity":75,"Duration":109608,"SoundDuration":109608,"Delta":56878887},{"NoteNumber":63,"Velocity":51,"Duration":109608,"SoundDuration":109608,"Delta":56878887},{"NoteNumber":80,"Velocity":73,"Duration":109608,"SoundDuration":109608,"Delta":56988496},{"NoteNumber":65,"Velocity":49,"Duration":109608,"SoundDuration":109608,"Delta":56988496},{"NoteNumber":82,"Velocity":81,"Duration":113182,"SoundDuration":113182,"Delta":57098105},{"NoteNumber":67,"Velocity":54,"Duration":113182,"SoundDuration":113182,"Delta":57098105},{"NoteNumber":79,"Velocity":72,"Duration":109225,"SoundDuration":109225,"Delta":57324469},{"NoteNumber":63,"Velocity":48,"Duration":109225,"SoundDuration":109225,"Delta":57324469},{"NoteNumber":80,"Velocity":69,"Duration":109225,"SoundDuration":109225,"Delta":57433695},{"NoteNumber":65,"Velocity":46,"Duration":109225,"SoundDuration":109225,"Delta":57433695},{"NoteNumber":82,"Velocity":80,"Duration":111965,"SoundDuration":111965,"Delta":57542921},{"NoteNumber":67,"Velocity":54,"Duration":111965,"SoundDuration":111965,"Delta":57542921},{"NoteNumber":79,"Velocity":73,"Duration":108845,"SoundDuration":108845,"Delta":57766852},{"NoteNumber":63,"Velocity":49,"Duration":108845,"SoundDuration":108845,"Delta":57766852},{"NoteNumber":80,"Velocity":69,"Duration":108845,"SoundDuration":108845,"Delta":57875697},{"NoteNumber":65,"Velocity":46,"Duration":108845,"SoundDuration":108845,"Delta":57875697},{"NoteNumber":82,"Velocity":78,"Duration":440822,"SoundDuration":440822,"Delta":57984543},{"NoteNumber":67,"Velocity":52,"Duration":440822,"SoundDuration":440822,"Delta":57984543},{"NoteNumber":75,"Velocity":60,"Duration":109608,"SoundDuration":109608,"Delta":58643056},{"NoteNumber":67,"Velocity":40,"Duration":109608,"SoundDuration":109608,"Delta":58643056},{"NoteNumber":77,"Velocity":58,"Duration":109608,"SoundDuration":109608,"Delta":58752665},{"NoteNumber":68,"Velocity":39,"Duration":109608,"SoundDuration":109608,"Delta":58752665},{"NoteNumber":79,"Velocity":64,"Duration":113182,"SoundDuration":113182,"Delta":58862274},{"NoteNumber":70,"Velocity":43,"Duration":113182,"SoundDuration":113182,"Delta":58862274},{"NoteNumber":75,"Velocity":57,"Duration":109225,"SoundDuration":109225,"Delta":59088638},{"NoteNumber":67,"Velocity":38,"Duration":109225,"SoundDuration":109225,"Delta":59088638},{"NoteNumber":77,"Velocity":55,"Duration":109225,"SoundDuration":109225,"Delta":59197864},{"NoteNumber":68,"Velocity":36,"Duration":109225,"SoundDuration":109225,"Delta":59197864},{"NoteNumber":79,"Velocity":64,"Duration":111965,"SoundDuration":111965,"Delta":59307090},{"NoteNumber":70,"Velocity":43,"Duration":111965,"SoundDuration":111965,"Delta":59307090},{"NoteNumber":75,"Velocity":58,"Duration":108845,"SoundDuration":108845,"Delta":59531021},{"NoteNumber":67,"Velocity":39,"Duration":108845,"SoundDuration":108845,"Delta":59531021},{"NoteNumber":77,"Velocity":55,"Duration":108845,"SoundDuration":108845,"Delta":59639866},{"NoteNumber":68,"Velocity":36,"Duration":108845,"SoundDuration":108845,"Delta":59639866},{"NoteNumber":79,"Velocity":62,"Duration":446263,"SoundDuration":446263,"Delta":59748712},{"NoteNumber":70,"Velocity":41,"Duration":446263,"SoundDuration":446263,"Delta":59748712},{"NoteNumber":79,"Velocity":75,"Duration":109608,"SoundDuration":109608,"Delta":60418106},{"NoteNumber":63,"Velocity":51,"Duration":109608,"SoundDuration":109608,"Delta":60418106},{"NoteNumber":80,"Velocity":73,"Duration":109608,"SoundDuration":109608,"Delta":60527715},{"NoteNumber":65,"Velocity":49,"Duration":109608,"SoundDuration":109608,"Delta":60527715},{"NoteNumber":82,"Velocity":81,"Duration":113182,"SoundDuration":113182,"Delta":60637324},{"NoteNumber":67,"Velocity":54,"Duration":113182,"SoundDuration":113182,"Delta":60637324},{"NoteNumber":79,"Velocity":72,"Duration":109225,"SoundDuration":109225,"Delta":60863688},{"NoteNumber":63,"Velocity":48,"Duration":109225,"SoundDuration":109225,"Delta":60863688},{"NoteNumber":80,"Velocity":69,"Duration":109225,"SoundDuration":109225,"Delta":60972914},{"NoteNumber":65,"Velocity":46,"Duration":109225,"SoundDuration":109225,"Delta":60972914},{"NoteNumber":82,"Velocity":80,"Duration":111965,"SoundDuration":111965,"Delta":61082140},{"NoteNumber":67,"Velocity":54,"Duration":111965,"SoundDuration":111965,"Delta":61082140},{"NoteNumber":79,"Velocity":73,"Duration":108845,"SoundDuration":108845,"Delta":61306071},{"NoteNumber":63,"Velocity":49,"Duration":108845,"SoundDuration":108845,"Delta":61306071},{"NoteNumber":80,"Velocity":69,"Duration":108845,"SoundDuration":108845,"Delta":61414916},{"NoteNumber":65,"Velocity":46,"Duration":108845,"SoundDuration":108845,"Delta":61414916},{"NoteNumber":82,"Velocity":78,"Duration":235774,"SoundDuration":235774,"Delta":61523762},{"NoteNumber":67,"Velocity":52,"Duration":454840,"SoundDuration":454840,"Delta":61523762},{"NoteNumber":84,"Velocity":72,"Duration":109629,"SoundDuration":109629,"Delta":61759537},{"NoteNumber":82,"Velocity":65,"Duration":109436,"SoundDuration":109436,"Delta":61869166},{"NoteNumber":80,"Velocity":69,"Duration":110208,"SoundDuration":110208,"Delta":61978603},{"NoteNumber":79,"Velocity":64,"Duration":110991,"SoundDuration":110991,"Delta":62088812},{"NoteNumber":77,"Velocity":62,"Duration":111785,"SoundDuration":111785,"Delta":62199803},{"NoteNumber":55,"Velocity":49,"Duration":224376,"SoundDuration":224376,"Delta":62199803},{"NoteNumber":75,"Velocity":61,"Duration":112591,"SoundDuration":112591,"Delta":62311589},{"NoteNumber":77,"Velocity":78,"Duration":233393,"SoundDuration":233393,"Delta":62424180},{"NoteNumber":56,"Velocity":52,"Duration":453348,"SoundDuration":453348,"Delta":62424180},{"NoteNumber":82,"Velocity":72,"Duration":109590,"SoundDuration":109590,"Delta":62657573},{"NoteNumber":80,"Velocity":65,"Duration":110364,"SoundDuration":110364,"Delta":62767164},{"NoteNumber":79,"Velocity":69,"Duration":111149,"SoundDuration":111149,"Delta":62877529},{"NoteNumber":77,"Velocity":64,"Duration":111946,"SoundDuration":111946,"Delta":62988679},{"NoteNumber":75,"Velocity":62,"Duration":112754,"SoundDuration":112754,"Delta":63100625},{"NoteNumber":58,"Velocity":49,"Duration":226213,"SoundDuration":226213,"Delta":63100625},{"NoteNumber":74,"Velocity":61,"Duration":113459,"SoundDuration":113459,"Delta":63213379},{"NoteNumber":75,"Velocity":77,"Duration":236667,"SoundDuration":236667,"Delta":63326838},{"NoteNumber":60,"Velocity":52,"Duration":457358,"SoundDuration":457358,"Delta":63326838},{"NoteNumber":84,"Velocity":72,"Duration":110121,"SoundDuration":110121,"Delta":63563506},{"NoteNumber":82,"Velocity":65,"Duration":110569,"SoundDuration":110569,"Delta":63673627},{"NoteNumber":80,"Velocity":69,"Duration":111228,"SoundDuration":111228,"Delta":63784197},{"NoteNumber":79,"Velocity":64,"Duration":111755,"SoundDuration":111755,"Delta":63895425},{"NoteNumber":77,"Velocity":62,"Duration":112429,"SoundDuration":112429,"Delta":64007181},{"NoteNumber":55,"Velocity":49,"Duration":225478,"SoundDuration":225478,"Delta":64007181},{"NoteNumber":75,"Velocity":65,"Duration":113049,"SoundDuration":113049,"Delta":64119610},{"NoteNumber":77,"Velocity":73,"Duration":234301,"SoundDuration":234301,"Delta":64232659},{"NoteNumber":56,"Velocity":52,"Duration":454721,"SoundDuration":454721,"Delta":64232659},{"NoteNumber":82,"Velocity":64,"Duration":109821,"SoundDuration":109821,"Delta":64466961},{"NoteNumber":80,"Velocity":58,"Duration":110598,"SoundDuration":110598,"Delta":64576782},{"NoteNumber":79,"Velocity":62,"Duration":111387,"SoundDuration":111387,"Delta":64687381},{"NoteNumber":77,"Velocity":57,"Duration":112267,"SoundDuration":112267,"Delta":64798768},{"NoteNumber":75,"Velocity":56,"Duration":113080,"SoundDuration":113080,"Delta":64911036},{"NoteNumber":58,"Velocity":37,"Duration":227067,"SoundDuration":227067,"Delta":64911036},{"NoteNumber":74,"Velocity":55,"Duration":113987,"SoundDuration":113987,"Delta":65024116},{"NoteNumber":75,"Velocity":69,"Duration":1165094,"SoundDuration":1165094,"Delta":65138104},{"NoteNumber":63,"Velocity":44,"Duration":231409,"SoundDuration":231409,"Delta":65138104},{"NoteNumber":67,"Velocity":39,"Duration":231409,"SoundDuration":231409,"Delta":65369514},{"NoteNumber":70,"Velocity":43,"Duration":231410,"SoundDuration":231410,"Delta":65600924},{"NoteNumber":67,"Velocity":38,"Duration":240307,"SoundDuration":240307,"Delta":65832334},{"NoteNumber":63,"Velocity":44,"Duration":2794097,"SoundDuration":2794097,"Delta":66072641},{"NoteNumber":79,"Velocity":57,"Duration":230556,"SoundDuration":230556,"Delta":66303198},{"NoteNumber":82,"Velocity":63,"Duration":230556,"SoundDuration":230556,"Delta":66533754},{"NoteNumber":75,"Velocity":56,"Duration":240307,"SoundDuration":240307,"Delta":66764311},{"NoteNumber":74,"Velocity":69,"Duration":1160700,"SoundDuration":1160700,"Delta":67004618},{"NoteNumber":65,"Velocity":44,"Duration":230556,"SoundDuration":230556,"Delta":67004618},{"NoteNumber":68,"Velocity":39,"Duration":230556,"SoundDuration":230556,"Delta":67235175},{"NoteNumber":70,"Velocity":43,"Duration":230556,"SoundDuration":230556,"Delta":67465731},{"NoteNumber":68,"Velocity":38,"Duration":238473,"SoundDuration":238473,"Delta":67696288},{"NoteNumber":65,"Velocity":44,"Duration":931977,"SoundDuration":931977,"Delta":67934762},{"NoteNumber":77,"Velocity":57,"Duration":230556,"SoundDuration":230556,"Delta":68165318},{"NoteNumber":80,"Velocity":63,"Duration":230556,"SoundDuration":230556,"Delta":68395875},{"NoteNumber":74,"Velocity":56,"Duration":240307,"SoundDuration":240307,"Delta":68626431},{"NoteNumber":75,"Velocity":69,"Duration":1165094,"SoundDuration":1165094,"Delta":68866739},{"NoteNumber":63,"Velocity":44,"Duration":231409,"SoundDuration":231409,"Delta":68866739},{"NoteNumber":67,"Velocity":39,"Duration":231409,"SoundDuration":231409,"Delta":69098149},{"NoteNumber":70,"Velocity":43,"Duration":231410,"SoundDuration":231410,"Delta":69329559},{"NoteNumber":67,"Velocity":38,"Duration":240307,"SoundDuration":240307,"Delta":69560969},{"NoteNumber":63,"Velocity":44,"Duration":2794097,"SoundDuration":2794097,"Delta":69801276},{"NoteNumber":79,"Velocity":57,"Duration":230556,"SoundDuration":230556,"Delta":70031833},{"NoteNumber":82,"Velocity":63,"Duration":230556,"SoundDuration":230556,"Delta":70262389},{"NoteNumber":75,"Velocity":56,"Duration":240307,"SoundDuration":240307,"Delta":70492946},{"NoteNumber":74,"Velocity":69,"Duration":1160700,"SoundDuration":1160700,"Delta":70733253},{"NoteNumber":65,"Velocity":44,"Duration":230556,"SoundDuration":230556,"Delta":70733253},{"NoteNumber":68,"Velocity":39,"Duration":230556,"SoundDuration":230556,"Delta":70963810},{"NoteNumber":70,"Velocity":43,"Duration":230556,"SoundDuration":230556,"Delta":71194366},{"NoteNumber":68,"Velocity":38,"Duration":238473,"SoundDuration":238473,"Delta":71424923},{"NoteNumber":65,"Velocity":53,"Duration":931977,"SoundDuration":931977,"Delta":71663397},{"NoteNumber":77,"Velocity":62,"Duration":230556,"SoundDuration":230556,"Delta":71893953},{"NoteNumber":80,"Velocity":69,"Duration":230556,"SoundDuration":230556,"Delta":72124510},{"NoteNumber":74,"Velocity":70,"Duration":240307,"SoundDuration":240307,"Delta":72355066},{"NoteNumber":73,"Velocity":81,"Duration":2856675,"SoundDuration":2856675,"Delta":72595374},{"NoteNumber":63,"Velocity":54,"Duration":931582,"SoundDuration":931582,"Delta":72595374},{"NoteNumber":67,"Velocity":46,"Duration":451506,"SoundDuration":451506,"Delta":72825930},{"NoteNumber":70,"Velocity":55,"Duration":2395562,"SoundDuration":2395562,"Delta":73056487},{"NoteNumber":67,"Velocity":51,"Duration":2165005,"SoundDuration":2165005,"Delta":73287043},{"NoteNumber":63,"Velocity":60,"Duration":1919987,"SoundDuration":1919987,"Delta":73532061},{"NoteNumber":79,"Velocity":65,"Duration":249916,"SoundDuration":249916,"Delta":73781978},{"NoteNumber":82,"Velocity":70,"Duration":260349,"SoundDuration":260349,"Delta":74031894},{"NoteNumber":79,"Velocity":65,"Duration":343367,"SoundDuration":343367,"Delta":74292243},{"NoteNumber":85,"Velocity":74,"Duration":816438,"SoundDuration":816438,"Delta":74635611},{"NoteNumber":72,"Velocity":60,"Duration":110774,"SoundDuration":110774,"Delta":75860268},{"NoteNumber":73,"Velocity":55,"Duration":110774,"SoundDuration":110774,"Delta":75971042},{"NoteNumber":75,"Velocity":60,"Duration":83081,"SoundDuration":83081,"Delta":76081817},{"NoteNumber":75,"Velocity":61,"Duration":83081,"SoundDuration":83081,"Delta":76303367},{"NoteNumber":75,"Velocity":63,"Duration":85818,"SoundDuration":85818,"Delta":76524916},{"NoteNumber":80,"Velocity":69,"Duration":89087,"SoundDuration":89087,"Delta":76753767},{"NoteNumber":75,"Velocity":61,"Duration":664665,"SoundDuration":664665,"Delta":76991334},{"NoteNumber":60,"Velocity":51,"Duration":220767,"SoundDuration":220767,"Delta":77212101},{"NoteNumber":58,"Velocity":51,"Duration":223131,"SoundDuration":223131,"Delta":77432868},{"NoteNumber":73,"Velocity":57,"Duration":103777,"SoundDuration":103777,"Delta":77656000},{"NoteNumber":56,"Velocity":48,"Duration":207554,"SoundDuration":207554,"Delta":77656000},{"NoteNumber":72,"Velocity":54,"Duration":103777,"SoundDuration":103777,"Delta":77759777},{"NoteNumber":70,"Velocity":60,"Duration":172281,"SoundDuration":172281,"Delta":77863555},{"NoteNumber":55,"Velocity":53,"Duration":229708,"SoundDuration":229708,"Delta":77863555},{"NoteNumber":70,"Velocity":53,"Duration":229708,"SoundDuration":229708,"Delta":78093264},{"NoteNumber":51,"Velocity":47,"Duration":172281,"SoundDuration":172281,"Delta":78093264},{"NoteNumber":72,"Velocity":59,"Duration":172281,"SoundDuration":172281,"Delta":78322973},{"NoteNumber":56,"Velocity":49,"Duration":229708,"SoundDuration":229708,"Delta":78322973},{"NoteNumber":72,"Velocity":53,"Duration":177500,"SoundDuration":177500,"Delta":78552682},{"NoteNumber":51,"Velocity":45,"Duration":177500,"SoundDuration":177500,"Delta":78552682},{"NoteNumber":75,"Velocity":59,"Duration":219217,"SoundDuration":219217,"Delta":78789349},{"NoteNumber":58,"Velocity":49,"Duration":219217,"SoundDuration":219217,"Delta":78789349},{"NoteNumber":73,"Velocity":51,"Duration":56590,"SoundDuration":56590,"Delta":79008567},{"NoteNumber":51,"Velocity":45,"Duration":169773,"SoundDuration":169773,"Delta":79008567},{"NoteNumber":75,"Velocity":46,"Duration":56590,"SoundDuration":56590,"Delta":79065158},{"NoteNumber":73,"Velocity":51,"Duration":113182,"SoundDuration":113182,"Delta":79121749},{"NoteNumber":72,"Velocity":59,"Duration":245982,"SoundDuration":245982,"Delta":79234931},{"NoteNumber":56,"Velocity":49,"Duration":245982,"SoundDuration":245982,"Delta":79234931},{"NoteNumber":72,"Velocity":60,"Duration":108845,"SoundDuration":108845,"Delta":79480914},{"NoteNumber":73,"Velocity":55,"Duration":108845,"SoundDuration":108845,"Delta":79589759},{"NoteNumber":75,"Velocity":60,"Duration":83736,"SoundDuration":83736,"Delta":79698605},{"NoteNumber":75,"Velocity":59,"Duration":82556,"SoundDuration":82556,"Delta":79921902},{"NoteNumber":75,"Velocity":64,"Duration":83973,"SoundDuration":83973,"Delta":80142053},{"NoteNumber":80,"Velocity":66,"Duration":87101,"SoundDuration":87101,"Delta":80365984},{"NoteNumber":75,"Velocity":61,"Duration":666230,"SoundDuration":666230,"Delta":80598254},{"NoteNumber":60,"Velocity":51,"Duration":221549,"SoundDuration":221549,"Delta":80819803},{"NoteNumber":58,"Velocity":51,"Duration":223131,"SoundDuration":223131,"Delta":81041353},{"NoteNumber":73,"Velocity":57,"Duration":103777,"SoundDuration":103777,"Delta":81264484},{"NoteNumber":56,"Velocity":48,"Duration":207554,"SoundDuration":207554,"Delta":81264484},{"NoteNumber":72,"Velocity":54,"Duration":103777,"SoundDuration":103777,"Delta":81368262},{"NoteNumber":70,"Velocity":60,"Duration":228850,"SoundDuration":228850,"Delta":81472039},{"NoteNumber":61,"Velocity":53,"Duration":228850,"SoundDuration":228850,"Delta":81472039},{"NoteNumber":73,"Velocity":51,"Duration":171637,"SoundDuration":171637,"Delta":81700890},{"NoteNumber":58,"Velocity":47,"Duration":171637,"SoundDuration":171637,"Delta":81700890},{"NoteNumber":67,"Velocity":59,"Duration":228850,"SoundDuration":228850,"Delta":81929740},{"NoteNumber":63,"Velocity":49,"Duration":228850,"SoundDuration":228850,"Delta":81929740},{"NoteNumber":70,"Velocity":50,"Duration":177500,"SoundDuration":177500,"Delta":82158591},{"NoteNumber":51,"Velocity":45,"Duration":177500,"SoundDuration":177500,"Delta":82158591},{"NoteNumber":68,"Velocity":60,"Duration":468018,"SoundDuration":468018,"Delta":82395258},{"NoteNumber":56,"Velocity":50,"Duration":234009,"SoundDuration":234009,"Delta":82395258},{"NoteNumber":51,"Velocity":42,"Duration":234009,"SoundDuration":234009,"Delta":82629268},{"NoteNumber":44,"Velocity":47,"Duration":234009,"SoundDuration":234009,"Delta":82863277},{"NoteNumber":72,"Velocity":60,"Duration":110774,"SoundDuration":110774,"Delta":83097287},{"NoteNumber":73,"Velocity":55,"Duration":110774,"SoundDuration":110774,"Delta":83208061},{"NoteNumber":75,"Velocity":60,"Duration":87162,"SoundDuration":87162,"Delta":83318836},{"NoteNumber":80,"Velocity":61,"Duration":109969,"SoundDuration":109969,"Delta":83551217},{"NoteNumber":84,"Velocity":56,"Duration":110319,"SoundDuration":110319,"Delta":83661186},{"NoteNumber":82,"Velocity":63,"Duration":111500,"SoundDuration":111500,"Delta":83771506},{"NoteNumber":80,"Velocity":63,"Duration":112707,"SoundDuration":112707,"Delta":83883007},{"NoteNumber":79,"Velocity":59,"Duration":117970,"SoundDuration":117970,"Delta":83995714},{"NoteNumber":77,"Velocity":61,"Duration":117970,"SoundDuration":117970,"Delta":84113685},{"NoteNumber":75,"Velocity":61,"Duration":664665,"SoundDuration":664665,"Delta":84231656},{"NoteNumber":60,"Velocity":51,"Duration":220767,"SoundDuration":220767,"Delta":84452423},{"NoteNumber":58,"Velocity":51,"Duration":223131,"SoundDuration":223131,"Delta":84673190},{"NoteNumber":73,"Velocity":57,"Duration":103777,"SoundDuration":103777,"Delta":84896322},{"NoteNumber":56,"Velocity":48,"Duration":207554,"SoundDuration":207554,"Delta":84896322},{"NoteNumber":72,"Velocity":54,"Duration":103777,"SoundDuration":103777,"Delta":85000099},{"NoteNumber":70,"Velocity":60,"Duration":114854,"SoundDuration":114854,"Delta":85103877},{"NoteNumber":55,"Velocity":53,"Duration":229708,"SoundDuration":229708,"Delta":85103877},{"NoteNumber":75,"Velocity":50,"Duration":114854,"SoundDuration":114854,"Delta":85218731},{"NoteNumber":70,"Velocity":56,"Duration":114854,"SoundDuration":114854,"Delta":85333586},{"NoteNumber":51,"Velocity":47,"Duration":172281,"SoundDuration":172281,"Delta":85333586},{"NoteNumber":75,"Velocity":50,"Duration":114854,"SoundDuration":114854,"Delta":85448440},{"NoteNumber":72,"Velocity":56,"Duration":114854,"SoundDuration":114854,"Delta":85563295},{"NoteNumber":56,"Velocity":49,"Duration":229708,"SoundDuration":229708,"Delta":85563295},{"NoteNumber":75,"Velocity":47,"Duration":114854,"SoundDuration":114854,"Delta":85678149},{"NoteNumber":72,"Velocity":54,"Duration":118333,"SoundDuration":118333,"Delta":85793004},{"NoteNumber":51,"Velocity":45,"Duration":177500,"SoundDuration":177500,"Delta":85793004},{"NoteNumber":75,"Velocity":48,"Duration":88750,"SoundDuration":88750,"Delta":85911337},{"NoteNumber":75,"Velocity":59,"Duration":219217,"SoundDuration":219217,"Delta":86029671},{"NoteNumber":58,"Velocity":49,"Duration":219217,"SoundDuration":219217,"Delta":86029671},{"NoteNumber":73,"Velocity":51,"Duration":56590,"SoundDuration":56590,"Delta":86248889},{"NoteNumber":51,"Velocity":45,"Duration":169773,"SoundDuration":169773,"Delta":86248889},{"NoteNumber":75,"Velocity":46,"Duration":56590,"SoundDuration":56590,"Delta":86305480},{"NoteNumber":73,"Velocity":51,"Duration":113182,"SoundDuration":113182,"Delta":86362071},{"NoteNumber":72,"Velocity":59,"Duration":245982,"SoundDuration":245982,"Delta":86475253},{"NoteNumber":56,"Velocity":49,"Duration":245982,"SoundDuration":245982,"Delta":86475253},{"NoteNumber":72,"Velocity":60,"Duration":108845,"SoundDuration":108845,"Delta":86721236},{"NoteNumber":73,"Velocity":55,"Duration":108845,"SoundDuration":108845,"Delta":86830081},{"NoteNumber":75,"Velocity":60,"Duration":84950,"SoundDuration":84950,"Delta":86938927},{"NoteNumber":80,"Velocity":61,"Duration":109284,"SoundDuration":109284,"Delta":87165135},{"NoteNumber":84,"Velocity":56,"Duration":110241,"SoundDuration":110241,"Delta":87274420},{"NoteNumber":82,"Velocity":63,"Duration":111232,"SoundDuration":111232,"Delta":87384662},{"NoteNumber":80,"Velocity":63,"Duration":112190,"SoundDuration":112190,"Delta":87495894},{"NoteNumber":79,"Velocity":59,"Duration":116134,"SoundDuration":116134,"Delta":87608084},{"NoteNumber":77,"Velocity":61,"Duration":116134,"SoundDuration":116134,"Delta":87724219},{"NoteNumber":75,"Velocity":61,"Duration":666230,"SoundDuration":666230,"Delta":87840354},{"NoteNumber":60,"Velocity":51,"Duration":221549,"SoundDuration":221549,"Delta":88061904},{"NoteNumber":58,"Velocity":51,"Duration":223131,"SoundDuration":223131,"Delta":88283453},{"NoteNumber":73,"Velocity":57,"Duration":103777,"SoundDuration":103777,"Delta":88506585},{"NoteNumber":56,"Velocity":48,"Duration":207554,"SoundDuration":207554,"Delta":88506585},{"NoteNumber":72,"Velocity":54,"Duration":103777,"SoundDuration":103777,"Delta":88610362},{"NoteNumber":70,"Velocity":60,"Duration":114425,"SoundDuration":114425,"Delta":88714140},{"NoteNumber":61,"Velocity":53,"Duration":228850,"SoundDuration":228850,"Delta":88714140},{"NoteNumber":73,"Velocity":50,"Duration":114425,"SoundDuration":114425,"Delta":88828565},{"NoteNumber":70,"Velocity":56,"Duration":114425,"SoundDuration":114425,"Delta":88942990},{"NoteNumber":58,"Velocity":47,"Duration":171637,"SoundDuration":171637,"Delta":88942990},{"NoteNumber":73,"Velocity":50,"Duration":114425,"SoundDuration":114425,"Delta":89057416},{"NoteNumber":67,"Velocity":56,"Duration":114425,"SoundDuration":114425,"Delta":89171841},{"NoteNumber":63,"Velocity":49,"Duration":228850,"SoundDuration":228850,"Delta":89171841},{"NoteNumber":70,"Velocity":54,"Duration":177500,"SoundDuration":177500,"Delta":89400691},{"NoteNumber":51,"Velocity":45,"Duration":177500,"SoundDuration":177500,"Delta":89400691},{"NoteNumber":68,"Velocity":60,"Duration":480999,"SoundDuration":480999,"Delta":89637359},{"NoteNumber":56,"Velocity":50,"Duration":240499,"SoundDuration":240499,"Delta":89637359},{"NoteNumber":51,"Velocity":42,"Duration":240499,"SoundDuration":240499,"Delta":89877859},{"NoteNumber":44,"Velocity":47,"Duration":240500,"SoundDuration":240500,"Delta":90118359},{"NoteNumber":75,"Velocity":53,"Duration":222337,"SoundDuration":222337,"Delta":90358859},{"NoteNumber":77,"Velocity":59,"Duration":111168,"SoundDuration":111168,"Delta":90581196},{"NoteNumber":80,"Velocity":53,"Duration":111168,"SoundDuration":111168,"Delta":90692365},{"NoteNumber":77,"Velocity":55,"Duration":111168,"SoundDuration":111168,"Delta":90803534},{"NoteNumber":75,"Velocity":51,"Duration":111168,"SoundDuration":111168,"Delta":90914703},{"NoteNumber":74,"Velocity":56,"Duration":171637,"SoundDuration":171637,"Delta":91025871},{"NoteNumber":83,"Velocity":59,"Duration":220929,"SoundDuration":220929,"Delta":91254722},{"NoteNumber":68,"Velocity":34,"Duration":220929,"SoundDuration":220929,"Delta":91254722},{"NoteNumber":74,"Velocity":41,"Duration":220929,"SoundDuration":220929,"Delta":91254722},{"NoteNumber":75,"Velocity":45,"Duration":221411,"SoundDuration":221411,"Delta":91475651},{"NoteNumber":67,"Velocity":38,"Duration":222337,"SoundDuration":222337,"Delta":91475651},{"NoteNumber":82,"Velocity":59,"Duration":111168,"SoundDuration":111168,"Delta":91697989},{"NoteNumber":79,"Velocity":53,"Duration":111168,"SoundDuration":111168,"Delta":91809158},{"NoteNumber":75,"Velocity":53,"Duration":226775,"SoundDuration":226775,"Delta":91920326},{"NoteNumber":72,"Velocity":59,"Duration":216935,"SoundDuration":216935,"Delta":92147102},{"NoteNumber":73,"Velocity":59,"Duration":110383,"SoundDuration":110383,"Delta":92364037},{"NoteNumber":77,"Velocity":53,"Duration":110383,"SoundDuration":110383,"Delta":92474421},{"NoteNumber":73,"Velocity":55,"Duration":110383,"SoundDuration":110383,"Delta":92584804},{"NoteNumber":72,"Velocity":51,"Duration":110383,"SoundDuration":110383,"Delta":92695188},{"NoteNumber":71,"Velocity":55,"Duration":170389,"SoundDuration":170389,"Delta":92805571},{"NoteNumber":80,"Velocity":59,"Duration":220929,"SoundDuration":220929,"Delta":93032758},{"NoteNumber":65,"Velocity":34,"Duration":220929,"SoundDuration":220929,"Delta":93032758},{"NoteNumber":71,"Velocity":41,"Duration":220929,"SoundDuration":220929,"Delta":93032758},{"NoteNumber":63,"Velocity":38,"Duration":220766,"SoundDuration":220766,"Delta":93253687},{"NoteNumber":72,"Velocity":45,"Duration":219847,"SoundDuration":219847,"Delta":93253687},{"NoteNumber":79,"Velocity":59,"Duration":110383,"SoundDuration":110383,"Delta":93474454},{"NoteNumber":75,"Velocity":53,"Duration":110383,"SoundDuration":110383,"Delta":93584838},{"NoteNumber":72,"Velocity":53,"Duration":225547,"SoundDuration":225547,"Delta":93695221},{"NoteNumber":68,"Velocity":59,"Duration":216184,"SoundDuration":216184,"Delta":93920768},{"NoteNumber":70,"Velocity":59,"Duration":110383,"SoundDuration":110383,"Delta":94136953},{"NoteNumber":73,"Velocity":53,"Duration":110383,"SoundDuration":110383,"Delta":94247337},{"NoteNumber":70,"Velocity":55,"Duration":111168,"SoundDuration":111168,"Delta":94357720},{"NoteNumber":68,"Velocity":51,"Duration":111168,"SoundDuration":111168,"Delta":94468889},{"NoteNumber":67,"Velocity":53,"Duration":173423,"SoundDuration":173423,"Delta":94580058},{"NoteNumber":77,"Velocity":59,"Duration":218610,"SoundDuration":218610,"Delta":94811289},{"NoteNumber":67,"Velocity":41,"Duration":218610,"SoundDuration":218610,"Delta":94811289},{"NoteNumber":61,"Velocity":34,"Duration":218610,"SoundDuration":218610,"Delta":94811289},{"NoteNumber":60,"Velocity":38,"Duration":220766,"SoundDuration":220766,"Delta":95029900},{"NoteNumber":68,"Velocity":45,"Duration":220766,"SoundDuration":220766,"Delta":95029900},{"NoteNumber":75,"Velocity":59,"Duration":110383,"SoundDuration":110383,"Delta":95250667},{"NoteNumber":72,"Velocity":53,"Duration":110383,"SoundDuration":110383,"Delta":95361051},{"NoteNumber":68,"Velocity":53,"Duration":227186,"SoundDuration":227186,"Delta":95471434},{"NoteNumber":75,"Velocity":59,"Duration":222502,"SoundDuration":222502,"Delta":95698621},{"NoteNumber":58,"Velocity":38,"Duration":448478,"SoundDuration":448478,"Delta":95921123},{"NoteNumber":68,"Velocity":45,"Duration":448478,"SoundDuration":448478,"Delta":95921123},{"NoteNumber":74,"Velocity":59,"Duration":109305,"SoundDuration":109305,"Delta":96150991},{"NoteNumber":77,"Velocity":51,"Duration":109305,"SoundDuration":109305,"Delta":96260296},{"NoteNumber":80,"Velocity":53,"Duration":222502,"SoundDuration":222502,"Delta":96369602},{"NoteNumber":74,"Velocity":50,"Duration":231571,"SoundDuration":231571,"Delta":96592104},{"NoteNumber":67,"Velocity":45,"Duration":448162,"SoundDuration":448162,"Delta":96823675},{"NoteNumber":63,"Velocity":38,"Duration":448162,"SoundDuration":448162,"Delta":96823675},{"NoteNumber":75,"Velocity":59,"Duration":111251,"SoundDuration":111251,"Delta":97049335},{"NoteNumber":79,"Velocity":49,"Duration":111251,"SoundDuration":111251,"Delta":97160587},{"NoteNumber":82,"Velocity":59,"Duration":225716,"SoundDuration":225716,"Delta":97271838},{"NoteNumber":75,"Velocity":56,"Duration":237755,"SoundDuration":237755,"Delta":97497554},{"NoteNumber":58,"Velocity":38,"Duration":471549,"SoundDuration":471549,"Delta":97735310},{"NoteNumber":68,"Velocity":45,"Duration":471549,"SoundDuration":471549,"Delta":97735310},{"NoteNumber":74,"Velocity":59,"Duration":117887,"SoundDuration":117887,"Delta":97971085},{"NoteNumber":77,"Velocity":48,"Duration":117887,"SoundDuration":117887,"Delta":98088972},{"NoteNumber":80,"Velocity":51,"Duration":235775,"SoundDuration":235775,"Delta":98206860},{"NoteNumber":74,"Velocity":43,"Duration":254000,"SoundDuration":254000,"Delta":98442635},{"NoteNumber":77,"Velocity":53,"Duration":328227,"SoundDuration":328227,"Delta":98696635},{"NoteNumber":75,"Velocity":47,"Duration":291885,"SoundDuration":291885,"Delta":99024863},{"NoteNumber":39,"Velocity":26,"Duration":583770,"SoundDuration":583770,"Delta":99024863},{"NoteNumber":72,"Velocity":60,"Duration":110774,"SoundDuration":110774,"Delta":99907052},{"NoteNumber":73,"Velocity":55,"Duration":110774,"SoundDuration":110774,"Delta":100017827},{"NoteNumber":75,"Velocity":60,"Duration":85570,"SoundDuration":85570,"Delta":100128602},{"NoteNumber":80,"Velocity":61,"Duration":110251,"SoundDuration":110251,"Delta":100356791},{"NoteNumber":84,"Velocity":56,"Duration":110319,"SoundDuration":110319,"Delta":100467042},{"NoteNumber":82,"Velocity":63,"Duration":111500,"SoundDuration":111500,"Delta":100577362},{"NoteNumber":80,"Velocity":63,"Duration":112707,"SoundDuration":112707,"Delta":100688863},{"NoteNumber":79,"Velocity":59,"Duration":117970,"SoundDuration":117970,"Delta":100801570},{"NoteNumber":77,"Velocity":61,"Duration":117970,"SoundDuration":117970,"Delta":100919541},{"NoteNumber":75,"Velocity":61,"Duration":664665,"SoundDuration":664665,"Delta":101037512},{"NoteNumber":60,"Velocity":51,"Duration":220767,"SoundDuration":220767,"Delta":101258279},{"NoteNumber":58,"Velocity":51,"Duration":223131,"SoundDuration":223131,"Delta":101479046},{"NoteNumber":73,"Velocity":57,"Duration":103777,"SoundDuration":103777,"Delta":101702178},{"NoteNumber":56,"Velocity":48,"Duration":207554,"SoundDuration":207554,"Delta":101702178},{"NoteNumber":72,"Velocity":54,"Duration":103777,"SoundDuration":103777,"Delta":101805955},{"NoteNumber":70,"Velocity":60,"Duration":114854,"SoundDuration":114854,"Delta":101909733},{"NoteNumber":55,"Velocity":53,"Duration":229708,"SoundDuration":229708,"Delta":101909733},{"NoteNumber":75,"Velocity":50,"Duration":114854,"SoundDuration":114854,"Delta":102024587},{"NoteNumber":70,"Velocity":56,"Duration":114854,"SoundDuration":114854,"Delta":102139442},{"NoteNumber":51,"Velocity":47,"Duration":172281,"SoundDuration":172281,"Delta":102139442},{"NoteNumber":75,"Velocity":50,"Duration":114854,"SoundDuration":114854,"Delta":102254296},{"NoteNumber":72,"Velocity":56,"Duration":114854,"SoundDuration":114854,"Delta":102369151},{"NoteNumber":56,"Velocity":49,"Duration":229708,"SoundDuration":229708,"Delta":102369151},{"NoteNumber":75,"Velocity":47,"Duration":114854,"SoundDuration":114854,"Delta":102484005},{"NoteNumber":72,"Velocity":54,"Duration":118333,"SoundDuration":118333,"Delta":102598860},{"NoteNumber":51,"Velocity":45,"Duration":177500,"SoundDuration":177500,"Delta":102598860},{"NoteNumber":75,"Velocity":48,"Duration":88750,"SoundDuration":88750,"Delta":102717193},{"NoteNumber":75,"Velocity":59,"Duration":219217,"SoundDuration":219217,"Delta":102835527},{"NoteNumber":58,"Velocity":49,"Duration":219217,"SoundDuration":219217,"Delta":102835527},{"NoteNumber":73,"Velocity":51,"Duration":56590,"SoundDuration":56590,"Delta":103054745},{"NoteNumber":51,"Velocity":45,"Duration":169773,"SoundDuration":169773,"Delta":103054745},{"NoteNumber":75,"Velocity":46,"Duration":56590,"SoundDuration":56590,"Delta":103111336},{"NoteNumber":73,"Velocity":51,"Duration":113182,"SoundDuration":113182,"Delta":103167927},{"NoteNumber":72,"Velocity":59,"Duration":245982,"SoundDuration":245982,"Delta":103281109},{"NoteNumber":56,"Velocity":49,"Duration":245982,"SoundDuration":245982,"Delta":103281109},{"NoteNumber":72,"Velocity":60,"Duration":108845,"SoundDuration":108845,"Delta":103527092},{"NoteNumber":73,"Velocity":55,"Duration":108845,"SoundDuration":108845,"Delta":103635937},{"NoteNumber":75,"Velocity":60,"Duration":83736,"SoundDuration":83736,"Delta":103744783},{"NoteNumber":84,"Velocity":61,"Duration":109284,"SoundDuration":109284,"Delta":103967875},{"NoteNumber":80,"Velocity":56,"Duration":110241,"SoundDuration":110241,"Delta":104077160},{"NoteNumber":82,"Velocity":63,"Duration":111232,"SoundDuration":111232,"Delta":104187401},{"NoteNumber":79,"Velocity":63,"Duration":112190,"SoundDuration":112190,"Delta":104298634},{"NoteNumber":80,"Velocity":59,"Duration":116134,"SoundDuration":116134,"Delta":104410824},{"NoteNumber":77,"Velocity":61,"Duration":116134,"SoundDuration":116134,"Delta":104526959},{"NoteNumber":75,"Velocity":61,"Duration":666230,"SoundDuration":666230,"Delta":104643094},{"NoteNumber":60,"Velocity":51,"Duration":221549,"SoundDuration":221549,"Delta":104864644},{"NoteNumber":58,"Velocity":51,"Duration":223131,"SoundDuration":223131,"Delta":105086193},{"NoteNumber":73,"Velocity":57,"Duration":103777,"SoundDuration":103777,"Delta":105309325},{"NoteNumber":56,"Velocity":48,"Duration":207554,"SoundDuration":207554,"Delta":105309325},{"NoteNumber":72,"Velocity":54,"Duration":103777,"SoundDuration":103777,"Delta":105413102},{"NoteNumber":70,"Velocity":60,"Duration":114425,"SoundDuration":114425,"Delta":105516880},{"NoteNumber":61,"Velocity":53,"Duration":228850,"SoundDuration":228850,"Delta":105516880},{"NoteNumber":73,"Velocity":50,"Duration":114425,"SoundDuration":114425,"Delta":105631305},{"NoteNumber":70,"Velocity":56,"Duration":114425,"SoundDuration":114425,"Delta":105745730},{"NoteNumber":58,"Velocity":47,"Duration":171637,"SoundDuration":171637,"Delta":105745730},{"NoteNumber":73,"Velocity":50,"Duration":114425,"SoundDuration":114425,"Delta":105860155},{"NoteNumber":67,"Velocity":56,"Duration":114425,"SoundDuration":114425,"Delta":105974581},{"NoteNumber":63,"Velocity":49,"Duration":228850,"SoundDuration":228850,"Delta":105974581},{"NoteNumber":70,"Velocity":54,"Duration":177500,"SoundDuration":177500,"Delta":106203431},{"NoteNumber":51,"Velocity":45,"Duration":177500,"SoundDuration":177500,"Delta":106203431},{"NoteNumber":68,"Velocity":60,"Duration":480999,"SoundDuration":480999,"Delta":106440099},{"NoteNumber":56,"Velocity":50,"Duration":240499,"SoundDuration":240499,"Delta":106440099},{"NoteNumber":51,"Velocity":42,"Duration":240499,"SoundDuration":240499,"Delta":106680599},{"NoteNumber":44,"Velocity":47,"Duration":240500,"SoundDuration":240500,"Delta":106921099},{"NoteNumber":75,"Velocity":53,"Duration":222337,"SoundDuration":222337,"Delta":107161599},{"NoteNumber":77,"Velocity":59,"Duration":111168,"SoundDuration":111168,"Delta":107383936},{"NoteNumber":80,"Velocity":53,"Duration":111168,"SoundDuration":111168,"Delta":107495105},{"NoteNumber":77,"Velocity":55,"Duration":111168,"SoundDuration":111168,"Delta":107606274},{"NoteNumber":75,"Velocity":51,"Duration":111168,"SoundDuration":111168,"Delta":107717442},{"NoteNumber":74,"Velocity":56,"Duration":171637,"SoundDuration":171637,"Delta":107828611},{"NoteNumber":83,"Velocity":59,"Duration":222502,"SoundDuration":222502,"Delta":108057462},{"NoteNumber":74,"Velocity":41,"Duration":222502,"SoundDuration":222502,"Delta":108057462},{"NoteNumber":68,"Velocity":34,"Duration":222502,"SoundDuration":222502,"Delta":108057462},{"NoteNumber":67,"Velocity":38,"Duration":222337,"SoundDuration":222337,"Delta":108279964},{"NoteNumber":75,"Velocity":45,"Duration":221411,"SoundDuration":221411,"Delta":108279964},{"NoteNumber":82,"Velocity":59,"Duration":111168,"SoundDuration":111168,"Delta":108502302},{"NoteNumber":79,"Velocity":53,"Duration":111168,"SoundDuration":111168,"Delta":108613470},{"NoteNumber":75,"Velocity":53,"Duration":226775,"SoundDuration":226775,"Delta":108724639},{"NoteNumber":72,"Velocity":59,"Duration":216935,"SoundDuration":216935,"Delta":108951414},{"NoteNumber":73,"Velocity":59,"Duration":110383,"SoundDuration":110383,"Delta":109168350},{"NoteNumber":77,"Velocity":53,"Duration":110383,"SoundDuration":110383,"Delta":109278733},{"NoteNumber":73,"Velocity":55,"Duration":110383,"SoundDuration":110383,"Delta":109389117},{"NoteNumber":72,"Velocity":51,"Duration":110383,"SoundDuration":110383,"Delta":109499500},{"NoteNumber":71,"Velocity":55,"Duration":170389,"SoundDuration":170389,"Delta":109609884},{"NoteNumber":80,"Velocity":59,"Duration":217533,"SoundDuration":217533,"Delta":109837070},{"NoteNumber":71,"Velocity":41,"Duration":217533,"SoundDuration":217533,"Delta":109837070},{"NoteNumber":65,"Velocity":34,"Duration":217533,"SoundDuration":217533,"Delta":109837070},{"NoteNumber":63,"Velocity":38,"Duration":220766,"SoundDuration":220766,"Delta":110054603},{"NoteNumber":72,"Velocity":45,"Duration":219847,"SoundDuration":219847,"Delta":110054603},{"NoteNumber":79,"Velocity":59,"Duration":110383,"SoundDuration":110383,"Delta":110275370},{"NoteNumber":75,"Velocity":53,"Duration":110383,"SoundDuration":110383,"Delta":110385754},{"NoteNumber":72,"Velocity":53,"Duration":225547,"SoundDuration":225547,"Delta":110496137},{"NoteNumber":68,"Velocity":59,"Duration":216184,"SoundDuration":216184,"Delta":110721684},{"NoteNumber":70,"Velocity":59,"Duration":110383,"SoundDuration":110383,"Delta":110937869},{"NoteNumber":73,"Velocity":53,"Duration":110383,"SoundDuration":110383,"Delta":111048253},{"NoteNumber":70,"Velocity":55,"Duration":111168,"SoundDuration":111168,"Delta":111158636},{"NoteNumber":68,"Velocity":51,"Duration":111168,"SoundDuration":111168,"Delta":111269805},{"NoteNumber":67,"Velocity":53,"Duration":173423,"SoundDuration":173423,"Delta":111380974},{"NoteNumber":77,"Velocity":59,"Duration":224097,"SoundDuration":224097,"Delta":111612205},{"NoteNumber":67,"Velocity":41,"Duration":224097,"SoundDuration":224097,"Delta":111612205},{"NoteNumber":61,"Velocity":34,"Duration":224097,"SoundDuration":224097,"Delta":111612205},{"NoteNumber":60,"Velocity":38,"Duration":220766,"SoundDuration":220766,"Delta":111836303},{"NoteNumber":68,"Velocity":45,"Duration":219847,"SoundDuration":219847,"Delta":111836303},{"NoteNumber":75,"Velocity":59,"Duration":110383,"SoundDuration":110383,"Delta":112057070},{"NoteNumber":72,"Velocity":53,"Duration":110383,"SoundDuration":110383,"Delta":112167454},{"NoteNumber":68,"Velocity":53,"Duration":227186,"SoundDuration":227186,"Delta":112277837},{"NoteNumber":75,"Velocity":59,"Duration":222502,"SoundDuration":222502,"Delta":112505024},{"NoteNumber":58,"Velocity":38,"Duration":448478,"SoundDuration":448478,"Delta":112727526},{"NoteNumber":68,"Velocity":45,"Duration":448478,"SoundDuration":448478,"Delta":112727526},{"NoteNumber":74,"Velocity":59,"Duration":109305,"SoundDuration":109305,"Delta":112957394},{"NoteNumber":77,"Velocity":51,"Duration":109305,"SoundDuration":109305,"Delta":113066699},{"NoteNumber":80,"Velocity":53,"Duration":222502,"SoundDuration":222502,"Delta":113176005},{"NoteNumber":74,"Velocity":50,"Duration":231571,"SoundDuration":231571,"Delta":113398507},{"NoteNumber":63,"Velocity":38,"Duration":448162,"SoundDuration":448162,"Delta":113630078},{"NoteNumber":67,"Velocity":45,"Duration":448162,"SoundDuration":448162,"Delta":113630078},{"NoteNumber":75,"Velocity":59,"Duration":111251,"SoundDuration":111251,"Delta":113855739},{"NoteNumber":79,"Velocity":49,"Duration":111251,"SoundDuration":111251,"Delta":113966990},{"NoteNumber":82,"Velocity":59,"Duration":225716,"SoundDuration":225716,"Delta":114078241},{"NoteNumber":75,"Velocity":56,"Duration":237755,"SoundDuration":237755,"Delta":114303958},{"NoteNumber":58,"Velocity":38,"Duration":471549,"SoundDuration":471549,"Delta":114541713},{"NoteNumber":68,"Velocity":45,"Duration":471549,"SoundDuration":471549,"Delta":114541713},{"NoteNumber":74,"Velocity":59,"Duration":117887,"SoundDuration":117887,"Delta":114777488},{"NoteNumber":77,"Velocity":48,"Duration":117887,"SoundDuration":117887,"Delta":114895376},{"NoteNumber":80,"Velocity":51,"Duration":235775,"SoundDuration":235775,"Delta":115013263},{"NoteNumber":74,"Velocity":43,"Duration":254000,"SoundDuration":254000,"Delta":115249038},{"NoteNumber":77,"Velocity":53,"Duration":328227,"SoundDuration":328227,"Delta":115503039},{"NoteNumber":75,"Velocity":47,"Duration":283929,"SoundDuration":283929,"Delta":115831266},{"NoteNumber":39,"Velocity":26,"Duration":567858,"SoundDuration":567858,"Delta":115831266},{"NoteNumber":72,"Velocity":60,"Duration":110774,"SoundDuration":110774,"Delta":116697544},{"NoteNumber":73,"Velocity":55,"Duration":110774,"SoundDuration":110774,"Delta":116808318},{"NoteNumber":75,"Velocity":60,"Duration":86839,"SoundDuration":86839,"Delta":116919093},{"NoteNumber":80,"Velocity":61,"Duration":109969,"SoundDuration":109969,"Delta":117150664},{"NoteNumber":84,"Velocity":56,"Duration":110319,"SoundDuration":110319,"Delta":117260634},{"NoteNumber":82,"Velocity":63,"Duration":111500,"SoundDuration":111500,"Delta":117370953},{"NoteNumber":80,"Velocity":63,"Duration":112707,"SoundDuration":112707,"Delta":117482454},{"NoteNumber":79,"Velocity":59,"Duration":117970,"SoundDuration":117970,"Delta":117595161},{"NoteNumber":77,"Velocity":61,"Duration":117970,"SoundDuration":117970,"Delta":117713132},{"NoteNumber":75,"Velocity":61,"Duration":664665,"SoundDuration":664665,"Delta":117831103},{"NoteNumber":60,"Velocity":51,"Duration":220767,"SoundDuration":220767,"Delta":118051870},{"NoteNumber":58,"Velocity":51,"Duration":223131,"SoundDuration":223131,"Delta":118272637},{"NoteNumber":73,"Velocity":57,"Duration":103777,"SoundDuration":103777,"Delta":118495769},{"NoteNumber":56,"Velocity":48,"Duration":207554,"SoundDuration":207554,"Delta":118495769},{"NoteNumber":72,"Velocity":54,"Duration":103777,"SoundDuration":103777,"Delta":118599546},{"NoteNumber":70,"Velocity":60,"Duration":114854,"SoundDuration":114854,"Delta":118703324},{"NoteNumber":55,"Velocity":53,"Duration":229708,"SoundDuration":229708,"Delta":118703324},{"NoteNumber":75,"Velocity":50,"Duration":114854,"SoundDuration":114854,"Delta":118818178},{"NoteNumber":70,"Velocity":56,"Duration":114854,"SoundDuration":114854,"Delta":118933033},{"NoteNumber":51,"Velocity":47,"Duration":172281,"SoundDuration":172281,"Delta":118933033},{"NoteNumber":75,"Velocity":50,"Duration":114854,"SoundDuration":114854,"Delta":119047887},{"NoteNumber":72,"Velocity":56,"Duration":114854,"SoundDuration":114854,"Delta":119162742},{"NoteNumber":56,"Velocity":49,"Duration":229708,"SoundDuration":229708,"Delta":119162742},{"NoteNumber":75,"Velocity":47,"Duration":114854,"SoundDuration":114854,"Delta":119277596},{"NoteNumber":72,"Velocity":54,"Duration":118333,"SoundDuration":118333,"Delta":119392451},{"NoteNumber":51,"Velocity":45,"Duration":177500,"SoundDuration":177500,"Delta":119392451},{"NoteNumber":75,"Velocity":48,"Duration":88750,"SoundDuration":88750,"Delta":119510785},{"NoteNumber":75,"Velocity":59,"Duration":219217,"SoundDuration":219217,"Delta":119629118},{"NoteNumber":58,"Velocity":49,"Duration":219217,"SoundDuration":219217,"Delta":119629118},{"NoteNumber":73,"Velocity":51,"Duration":56590,"SoundDuration":56590,"Delta":119848336},{"NoteNumber":51,"Velocity":45,"Duration":169773,"SoundDuration":169773,"Delta":119848336},{"NoteNumber":75,"Velocity":46,"Duration":56590,"SoundDuration":56590,"Delta":119904927},{"NoteNumber":73,"Velocity":51,"Duration":113182,"SoundDuration":113182,"Delta":119961518},{"NoteNumber":72,"Velocity":59,"Duration":245982,"SoundDuration":245982,"Delta":120074700},{"NoteNumber":56,"Velocity":49,"Duration":245982,"SoundDuration":245982,"Delta":120074700},{"NoteNumber":72,"Velocity":60,"Duration":108845,"SoundDuration":108845,"Delta":120320683},{"NoteNumber":73,"Velocity":55,"Duration":108845,"SoundDuration":108845,"Delta":120429528},{"NoteNumber":75,"Velocity":60,"Duration":85884,"SoundDuration":85884,"Delta":120538374},{"NoteNumber":84,"Velocity":61,"Duration":109284,"SoundDuration":109284,"Delta":120766979},{"NoteNumber":80,"Velocity":56,"Duration":110241,"SoundDuration":110241,"Delta":120876264},{"NoteNumber":82,"Velocity":63,"Duration":111232,"SoundDuration":111232,"Delta":120986505},{"NoteNumber":79,"Velocity":63,"Duration":112190,"SoundDuration":112190,"Delta":121097738},{"NoteNumber":80,"Velocity":59,"Duration":116134,"SoundDuration":116134,"Delta":121209928},{"NoteNumber":77,"Velocity":61,"Duration":116134,"SoundDuration":116134,"Delta":121326063},{"NoteNumber":75,"Velocity":61,"Duration":666230,"SoundDuration":666230,"Delta":121442198},{"NoteNumber":60,"Velocity":51,"Duration":221549,"SoundDuration":221549,"Delta":121663748},{"NoteNumber":58,"Velocity":51,"Duration":223131,"SoundDuration":223131,"Delta":121885297},{"NoteNumber":73,"Velocity":57,"Duration":103777,"SoundDuration":103777,"Delta":122108429},{"NoteNumber":56,"Velocity":48,"Duration":207554,"SoundDuration":207554,"Delta":122108429},{"NoteNumber":72,"Velocity":54,"Duration":103777,"SoundDuration":103777,"Delta":122212206},{"NoteNumber":70,"Velocity":60,"Duration":114425,"SoundDuration":114425,"Delta":122315984},{"NoteNumber":61,"Velocity":53,"Duration":228850,"SoundDuration":228850,"Delta":122315984},{"NoteNumber":73,"Velocity":50,"Duration":114425,"SoundDuration":114425,"Delta":122430409},{"NoteNumber":70,"Velocity":56,"Duration":114425,"SoundDuration":114425,"Delta":122544834},{"NoteNumber":58,"Velocity":47,"Duration":171637,"SoundDuration":171637,"Delta":122544834},{"NoteNumber":73,"Velocity":50,"Duration":114425,"SoundDuration":114425,"Delta":122659259},{"NoteNumber":67,"Velocity":56,"Duration":114425,"SoundDuration":114425,"Delta":122773685},{"NoteNumber":63,"Velocity":49,"Duration":228850,"SoundDuration":228850,"Delta":122773685},{"NoteNumber":70,"Velocity":54,"Duration":177500,"SoundDuration":177500,"Delta":123002535},{"NoteNumber":51,"Velocity":45,"Duration":177500,"SoundDuration":177500,"Delta":123002535},{"NoteNumber":68,"Velocity":60,"Duration":480999,"SoundDuration":480999,"Delta":123239203},{"NoteNumber":56,"Velocity":50,"Duration":240499,"SoundDuration":240499,"Delta":123239203},{"NoteNumber":51,"Velocity":42,"Duration":240499,"SoundDuration":240499,"Delta":123479703},{"NoteNumber":44,"Velocity":47,"Duration":240500,"SoundDuration":240500,"Delta":123720203},{"NoteNumber":72,"Velocity":53,"Duration":235941,"SoundDuration":235941,"Delta":123960703},{"NoteNumber":77,"Velocity":60,"Duration":114854,"SoundDuration":114854,"Delta":124196645},{"NoteNumber":68,"Velocity":53,"Duration":229708,"SoundDuration":229708,"Delta":124196645},{"NoteNumber":72,"Velocity":50,"Duration":114854,"SoundDuration":114854,"Delta":124311499},{"NoteNumber":76,"Velocity":56,"Duration":114854,"SoundDuration":114854,"Delta":124426354},{"NoteNumber":67,"Velocity":47,"Duration":172281,"SoundDuration":172281,"Delta":124426354},{"NoteNumber":72,"Velocity":50,"Duration":114854,"SoundDuration":114854,"Delta":124541208},{"NoteNumber":77,"Velocity":56,"Duration":114854,"SoundDuration":114854,"Delta":124656063},{"NoteNumber":68,"Velocity":49,"Duration":229708,"SoundDuration":229708,"Delta":124656063},{"NoteNumber":72,"Velocity":47,"Duration":114854,"SoundDuration":114854,"Delta":124770917},{"NoteNumber":80,"Velocity":54,"Duration":118333,"SoundDuration":118333,"Delta":124885772},{"NoteNumber":65,"Velocity":45,"Duration":177500,"SoundDuration":177500,"Delta":124885772},{"NoteNumber":72,"Velocity":48,"Duration":88750,"SoundDuration":88750,"Delta":125004105},{"NoteNumber":79,"Velocity":60,"Duration":114854,"SoundDuration":114854,"Delta":125122439},{"NoteNumber":64,"Velocity":53,"Duration":459417,"SoundDuration":459417,"Delta":125122439},{"NoteNumber":72,"Velocity":50,"Duration":114854,"SoundDuration":114854,"Delta":125237294},{"NoteNumber":83,"Velocity":56,"Duration":114854,"SoundDuration":114854,"Delta":125352148},{"NoteNumber":72,"Velocity":50,"Duration":114854,"SoundDuration":114854,"Delta":125467003},{"NoteNumber":84,"Velocity":56,"Duration":114854,"SoundDuration":114854,"Delta":125581857},{"NoteNumber":72,"Velocity":47,"Duration":114854,"SoundDuration":114854,"Delta":125696712},{"NoteNumber":82,"Velocity":54,"Duration":118333,"SoundDuration":118333,"Delta":125811566},{"NoteNumber":72,"Velocity":48,"Duration":88750,"SoundDuration":88750,"Delta":125929900},{"NoteNumber":80,"Velocity":60,"Duration":114854,"SoundDuration":114854,"Delta":126048234},{"NoteNumber":65,"Velocity":53,"Duration":229708,"SoundDuration":229708,"Delta":126048234},{"NoteNumber":72,"Velocity":50,"Duration":114854,"SoundDuration":114854,"Delta":126163088},{"NoteNumber":79,"Velocity":56,"Duration":114854,"SoundDuration":114854,"Delta":126277943},{"NoteNumber":67,"Velocity":47,"Duration":229708,"SoundDuration":229708,"Delta":126277943},{"NoteNumber":72,"Velocity":50,"Duration":114854,"SoundDuration":114854,"Delta":126392797},{"NoteNumber":77,"Velocity":56,"Duration":114854,"SoundDuration":114854,"Delta":126507652},{"NoteNumber":68,"Velocity":49,"Duration":229708,"SoundDuration":229708,"Delta":126507652},{"NoteNumber":72,"Velocity":47,"Duration":114854,"SoundDuration":114854,"Delta":126622506},{"NoteNumber":79,"Velocity":54,"Duration":118333,"SoundDuration":118333,"Delta":126737361},{"NoteNumber":72,"Velocity":48,"Duration":88750,"SoundDuration":88750,"Delta":126855694},{"NoteNumber":76,"Velocity":60,"Duration":120278,"SoundDuration":120278,"Delta":126974028},{"NoteNumber":60,"Velocity":53,"Duration":240557,"SoundDuration":240557,"Delta":126974028},{"NoteNumber":72,"Velocity":50,"Duration":120278,"SoundDuration":120278,"Delta":127094307},{"NoteNumber":77,"Velocity":58,"Duration":120279,"SoundDuration":120279,"Delta":127214586},{"NoteNumber":62,"Velocity":47,"Duration":240558,"SoundDuration":240558,"Delta":127214586},{"NoteNumber":72,"Velocity":52,"Duration":120278,"SoundDuration":120278,"Delta":127334865},{"NoteNumber":79,"Velocity":56,"Duration":251214,"SoundDuration":251214,"Delta":127455144},{"NoteNumber":64,"Velocity":49,"Duration":251214,"SoundDuration":251214,"Delta":127455144},{"NoteNumber":72,"Velocity":68,"Duration":118906,"SoundDuration":118906,"Delta":127706358},{"NoteNumber":84,"Velocity":55,"Duration":89179,"SoundDuration":89179,"Delta":127825264},{"NoteNumber":73,"Velocity":70,"Duration":117527,"SoundDuration":117527,"Delta":127944170},{"NoteNumber":85,"Velocity":58,"Duration":117527,"SoundDuration":117527,"Delta":128061697},{"NoteNumber":72,"Velocity":69,"Duration":117527,"SoundDuration":117527,"Delta":128179225},{"NoteNumber":84,"Velocity":60,"Duration":117527,"SoundDuration":117527,"Delta":128296752},{"NoteNumber":70,"Velocity":70,"Duration":117527,"SoundDuration":117527,"Delta":128414279},{"NoteNumber":82,"Velocity":59,"Duration":117527,"SoundDuration":117527,"Delta":128531806},{"NoteNumber":68,"Velocity":69,"Duration":123092,"SoundDuration":123092,"Delta":128649334},{"NoteNumber":80,"Velocity":61,"Duration":123091,"SoundDuration":123091,"Delta":128772426},{"NoteNumber":67,"Velocity":74,"Duration":117971,"SoundDuration":117971,"Delta":128895518},{"NoteNumber":52,"Velocity":42,"Duration":954010,"SoundDuration":954010,"Delta":128895518},{"NoteNumber":55,"Velocity":42,"Duration":954010,"SoundDuration":954010,"Delta":128895518},{"NoteNumber":60,"Velocity":53,"Duration":954010,"SoundDuration":954010,"Delta":128895518},{"NoteNumber":79,"Velocity":64,"Duration":117970,"SoundDuration":117970,"Delta":129013489},{"NoteNumber":71,"Velocity":75,"Duration":117971,"SoundDuration":117971,"Delta":129131460},{"NoteNumber":83,"Velocity":64,"Duration":117970,"SoundDuration":117970,"Delta":129249431},{"NoteNumber":72,"Velocity":75,"Duration":117971,"SoundDuration":117971,"Delta":129367402},{"NoteNumber":84,"Velocity":64,"Duration":117971,"SoundDuration":117971,"Delta":129485373},{"NoteNumber":70,"Velocity":75,"Duration":123092,"SoundDuration":123092,"Delta":129603344},{"NoteNumber":82,"Velocity":64,"Duration":123091,"SoundDuration":123091,"Delta":129726436},{"NoteNumber":68,"Velocity":75,"Duration":114933,"SoundDuration":114933,"Delta":129849528},{"NoteNumber":53,"Velocity":45,"Duration":462290,"SoundDuration":462290,"Delta":129849528},{"NoteNumber":60,"Velocity":53,"Duration":462290,"SoundDuration":462290,"Delta":129849528},{"NoteNumber":80,"Velocity":64,"Duration":115785,"SoundDuration":115785,"Delta":129964461},{"NoteNumber":65,"Velocity":72,"Duration":115785,"SoundDuration":115785,"Delta":130080247},{"NoteNumber":77,"Velocity":64,"Duration":115785,"SoundDuration":115785,"Delta":130196032},{"NoteNumber":67,"Velocity":74,"Duration":118417,"SoundDuration":118417,"Delta":130311818},{"NoteNumber":60,"Velocity":46,"Duration":500711,"SoundDuration":500711,"Delta":130311818},{"NoteNumber":48,"Velocity":39,"Duration":500711,"SoundDuration":500711,"Delta":130311818},{"NoteNumber":79,"Velocity":64,"Duration":118418,"SoundDuration":118418,"Delta":130430236},{"NoteNumber":64,"Velocity":71,"Duration":131937,"SoundDuration":131937,"Delta":130548654},{"NoteNumber":76,"Velocity":64,"Duration":65968,"SoundDuration":65968,"Delta":130680592},{"NoteNumber":65,"Velocity":60,"Duration":65968,"SoundDuration":65968,"Delta":130746561},{"NoteNumber":77,"Velocity":80,"Duration":480999,"SoundDuration":480999,"Delta":130812529},{"NoteNumber":41,"Velocity":45,"Duration":480999,"SoundDuration":480999,"Delta":130812529},{"NoteNumber":53,"Velocity":53,"Duration":480999,"SoundDuration":480999,"Delta":130812529},{"NoteNumber":72,"Velocity":53,"Duration":235941,"SoundDuration":235941,"Delta":131534029},{"NoteNumber":77,"Velocity":60,"Duration":114854,"SoundDuration":114854,"Delta":131769971},{"NoteNumber":68,"Velocity":53,"Duration":229709,"SoundDuration":229709,"Delta":131769971},{"NoteNumber":72,"Velocity":50,"Duration":114854,"SoundDuration":114854,"Delta":131884826},{"NoteNumber":76,"Velocity":56,"Duration":114854,"SoundDuration":114854,"Delta":131999680},{"NoteNumber":67,"Velocity":47,"Duration":172281,"SoundDuration":172281,"Delta":131999680},{"NoteNumber":72,"Velocity":50,"Duration":114854,"SoundDuration":114854,"Delta":132114535},{"NoteNumber":77,"Velocity":56,"Duration":114854,"SoundDuration":114854,"Delta":132229389},{"NoteNumber":68,"Velocity":49,"Duration":229709,"SoundDuration":229709,"Delta":132229389},{"NoteNumber":72,"Velocity":47,"Duration":114854,"SoundDuration":114854,"Delta":132344244},{"NoteNumber":80,"Velocity":54,"Duration":118333,"SoundDuration":118333,"Delta":132459098},{"NoteNumber":65,"Velocity":45,"Duration":177500,"SoundDuration":177500,"Delta":132459098},{"NoteNumber":72,"Velocity":48,"Duration":88750,"SoundDuration":88750,"Delta":132577432},{"NoteNumber":79,"Velocity":60,"Duration":114854,"SoundDuration":114854,"Delta":132695766},{"NoteNumber":64,"Velocity":53,"Duration":459417,"SoundDuration":459417,"Delta":132695766},{"NoteNumber":72,"Velocity":50,"Duration":114854,"SoundDuration":114854,"Delta":132810620},{"NoteNumber":83,"Velocity":56,"Duration":114854,"SoundDuration":114854,"Delta":132925475},{"NoteNumber":72,"Velocity":50,"Duration":114854,"SoundDuration":114854,"Delta":133040329},{"NoteNumber":84,"Velocity":56,"Duration":114854,"SoundDuration":114854,"Delta":133155184},{"NoteNumber":72,"Velocity":47,"Duration":114854,"SoundDuration":114854,"Delta":133270038},{"NoteNumber":82,"Velocity":54,"Duration":118333,"SoundDuration":118333,"Delta":133384893},{"NoteNumber":72,"Velocity":48,"Duration":88750,"SoundDuration":88750,"Delta":133503227},{"NoteNumber":80,"Velocity":60,"Duration":114854,"SoundDuration":114854,"Delta":133621560},{"NoteNumber":65,"Velocity":53,"Duration":229709,"SoundDuration":229709,"Delta":133621560},{"NoteNumber":72,"Velocity":50,"Duration":114854,"SoundDuration":114854,"Delta":133736415},{"NoteNumber":79,"Velocity":56,"Duration":114854,"SoundDuration":114854,"Delta":133851269},{"NoteNumber":67,"Velocity":47,"Duration":229708,"SoundDuration":229708,"Delta":133851269},{"NoteNumber":72,"Velocity":50,"Duration":114854,"SoundDuration":114854,"Delta":133966124},{"NoteNumber":77,"Velocity":56,"Duration":114854,"SoundDuration":114854,"Delta":134080978},{"NoteNumber":68,"Velocity":49,"Duration":229709,"SoundDuration":229709,"Delta":134080978},{"NoteNumber":72,"Velocity":47,"Duration":114854,"SoundDuration":114854,"Delta":134195833},{"NoteNumber":79,"Velocity":54,"Duration":118333,"SoundDuration":118333,"Delta":134310687},{"NoteNumber":72,"Velocity":48,"Duration":88750,"SoundDuration":88750,"Delta":134429021},{"NoteNumber":76,"Velocity":60,"Duration":120279,"SoundDuration":120279,"Delta":134547355},{"NoteNumber":60,"Velocity":53,"Duration":240557,"SoundDuration":240557,"Delta":134547355},{"NoteNumber":72,"Velocity":50,"Duration":120278,"SoundDuration":120278,"Delta":134667634},{"NoteNumber":77,"Velocity":58,"Duration":120279,"SoundDuration":120279,"Delta":134787913},{"NoteNumber":62,"Velocity":47,"Duration":240557,"SoundDuration":240557,"Delta":134787913},{"NoteNumber":72,"Velocity":52,"Duration":120278,"SoundDuration":120278,"Delta":134908192},{"NoteNumber":79,"Velocity":56,"Duration":251214,"SoundDuration":251214,"Delta":135028471},{"NoteNumber":64,"Velocity":49,"Duration":251214,"SoundDuration":251214,"Delta":135028471},{"NoteNumber":72,"Velocity":68,"Duration":118906,"SoundDuration":118906,"Delta":135279685},{"NoteNumber":84,"Velocity":55,"Duration":89179,"SoundDuration":89179,"Delta":135398591},{"NoteNumber":73,"Velocity":70,"Duration":117527,"SoundDuration":117527,"Delta":135517497},{"NoteNumber":85,"Velocity":58,"Duration":117527,"SoundDuration":117527,"Delta":135635024},{"NoteNumber":72,"Velocity":69,"Duration":117527,"SoundDuration":117527,"Delta":135752551},{"NoteNumber":84,"Velocity":60,"Duration":117527,"SoundDuration":117527,"Delta":135870079},{"NoteNumber":70,"Velocity":70,"Duration":117527,"SoundDuration":117527,"Delta":135987606},{"NoteNumber":82,"Velocity":59,"Duration":117527,"SoundDuration":117527,"Delta":136105133},{"NoteNumber":68,"Velocity":69,"Duration":123092,"SoundDuration":123092,"Delta":136222660},{"NoteNumber":80,"Velocity":61,"Duration":123091,"SoundDuration":123091,"Delta":136345752},{"NoteNumber":67,"Velocity":74,"Duration":117971,"SoundDuration":117971,"Delta":136468844},{"NoteNumber":52,"Velocity":42,"Duration":954010,"SoundDuration":954010,"Delta":136468844},{"NoteNumber":55,"Velocity":42,"Duration":954010,"SoundDuration":954010,"Delta":136468844},{"NoteNumber":60,"Velocity":53,"Duration":954010,"SoundDuration":954010,"Delta":136468844},{"NoteNumber":79,"Velocity":64,"Duration":117970,"SoundDuration":117970,"Delta":136586815},{"NoteNumber":71,"Velocity":75,"Duration":117971,"SoundDuration":117971,"Delta":136704786},{"NoteNumber":83,"Velocity":64,"Duration":117970,"SoundDuration":117970,"Delta":136822757},{"NoteNumber":72,"Velocity":75,"Duration":117971,"SoundDuration":117971,"Delta":136940728},{"NoteNumber":84,"Velocity":64,"Duration":117971,"SoundDuration":117971,"Delta":137058699},{"NoteNumber":70,"Velocity":75,"Duration":123092,"SoundDuration":123092,"Delta":137176670},{"NoteNumber":82,"Velocity":64,"Duration":123091,"SoundDuration":123091,"Delta":137299762},{"NoteNumber":68,"Velocity":75,"Duration":114933,"SoundDuration":114933,"Delta":137422854},{"NoteNumber":53,"Velocity":45,"Duration":462290,"SoundDuration":462290,"Delta":137422854},{"NoteNumber":60,"Velocity":53,"Duration":462290,"SoundDuration":462290,"Delta":137422854},{"NoteNumber":80,"Velocity":64,"Duration":115785,"SoundDuration":115785,"Delta":137537788},{"NoteNumber":65,"Velocity":72,"Duration":115785,"SoundDuration":115785,"Delta":137653574},{"NoteNumber":77,"Velocity":64,"Duration":115785,"SoundDuration":115785,"Delta":137769359},{"NoteNumber":67,"Velocity":74,"Duration":118417,"SoundDuration":118417,"Delta":137885145},{"NoteNumber":60,"Velocity":46,"Duration":500711,"SoundDuration":500711,"Delta":137885145},{"NoteNumber":48,"Velocity":39,"Duration":500711,"SoundDuration":500711,"Delta":137885145},{"NoteNumber":79,"Velocity":64,"Duration":118418,"SoundDuration":118418,"Delta":138003563},{"NoteNumber":64,"Velocity":71,"Duration":131937,"SoundDuration":131937,"Delta":138121981},{"NoteNumber":76,"Velocity":64,"Duration":65968,"SoundDuration":65968,"Delta":138253918},{"NoteNumber":65,"Velocity":60,"Duration":65968,"SoundDuration":65968,"Delta":138319887},{"NoteNumber":77,"Velocity":80,"Duration":480999,"SoundDuration":480999,"Delta":138385856},{"NoteNumber":41,"Velocity":45,"Duration":480999,"SoundDuration":480999,"Delta":138385856},{"NoteNumber":53,"Velocity":53,"Duration":480999,"SoundDuration":480999,"Delta":138385856},{"NoteNumber":84,"Velocity":63,"Duration":240499,"SoundDuration":240499,"Delta":139107356},{"NoteNumber":82,"Velocity":69,"Duration":229709,"SoundDuration":229709,"Delta":139347856},{"NoteNumber":64,"Velocity":48,"Duration":114854,"SoundDuration":114854,"Delta":139347856},{"NoteNumber":72,"Velocity":40,"Duration":114854,"SoundDuration":114854,"Delta":139462711},{"NoteNumber":79,"Velocity":60,"Duration":229708,"SoundDuration":229708,"Delta":139577565},{"NoteNumber":64,"Velocity":44,"Duration":114854,"SoundDuration":114854,"Delta":139577565},{"NoteNumber":72,"Velocity":40,"Duration":114854,"SoundDuration":114854,"Delta":139692420},{"NoteNumber":80,"Velocity":66,"Duration":229709,"SoundDuration":229709,"Delta":139807274},{"NoteNumber":65,"Velocity":44,"Duration":114854,"SoundDuration":114854,"Delta":139807274},{"NoteNumber":72,"Velocity":37,"Duration":114854,"SoundDuration":114854,"Delta":139922129},{"NoteNumber":77,"Velocity":57,"Duration":236667,"SoundDuration":236667,"Delta":140036983},{"NoteNumber":65,"Velocity":43,"Duration":118333,"SoundDuration":118333,"Delta":140036983},{"NoteNumber":72,"Velocity":38,"Duration":88750,"SoundDuration":88750,"Delta":140155317},{"NoteNumber":76,"Velocity":68,"Duration":232504,"SoundDuration":232504,"Delta":140273651},{"NoteNumber":60,"Velocity":48,"Duration":116252,"SoundDuration":116252,"Delta":140273651},{"NoteNumber":72,"Velocity":40,"Duration":116252,"SoundDuration":116252,"Delta":140389903},{"NoteNumber":77,"Velocity":55,"Duration":58125,"SoundDuration":58125,"Delta":140506155},{"NoteNumber":62,"Velocity":44,"Duration":116252,"SoundDuration":116252,"Delta":140506155},{"NoteNumber":79,"Velocity":55,"Duration":58126,"SoundDuration":58126,"Delta":140564281},{"NoteNumber":77,"Velocity":55,"Duration":116252,"SoundDuration":116252,"Delta":140622407},{"NoteNumber":72,"Velocity":40,"Duration":116252,"SoundDuration":116252,"Delta":140622407},{"NoteNumber":79,"Velocity":62,"Duration":234247,"SoundDuration":234247,"Delta":140738659},{"NoteNumber":64,"Velocity":44,"Duration":234247,"SoundDuration":234247,"Delta":140738659},{"NoteNumber":84,"Velocity":63,"Duration":240499,"SoundDuration":240499,"Delta":140972906},{"NoteNumber":82,"Velocity":69,"Duration":229709,"SoundDuration":229709,"Delta":141213406},{"NoteNumber":64,"Velocity":48,"Duration":114854,"SoundDuration":114854,"Delta":141213406},{"NoteNumber":72,"Velocity":40,"Duration":114854,"SoundDuration":114854,"Delta":141328260},{"NoteNumber":79,"Velocity":60,"Duration":229708,"SoundDuration":229708,"Delta":141443115},{"NoteNumber":64,"Velocity":44,"Duration":114854,"SoundDuration":114854,"Delta":141443115},{"NoteNumber":72,"Velocity":40,"Duration":114854,"SoundDuration":114854,"Delta":141557969},{"NoteNumber":80,"Velocity":66,"Duration":235128,"SoundDuration":235128,"Delta":141672824},{"NoteNumber":65,"Velocity":44,"Duration":117563,"SoundDuration":117563,"Delta":141672824},{"NoteNumber":72,"Velocity":37,"Duration":117564,"SoundDuration":117564,"Delta":141790388},{"NoteNumber":77,"Velocity":57,"Duration":250208,"SoundDuration":250208,"Delta":141907952},{"NoteNumber":65,"Velocity":43,"Duration":125104,"SoundDuration":125104,"Delta":141907952},{"NoteNumber":72,"Velocity":38,"Duration":93828,"SoundDuration":93828,"Delta":142033056},{"NoteNumber":84,"Velocity":68,"Duration":516795,"SoundDuration":516795,"Delta":142158160},{"NoteNumber":60,"Velocity":48,"Duration":129198,"SoundDuration":129198,"Delta":142158160},{"NoteNumber":64,"Velocity":40,"Duration":129198,"SoundDuration":129198,"Delta":142287359},{"NoteNumber":67,"Velocity":44,"Duration":129198,"SoundDuration":129198,"Delta":142416558},{"NoteNumber":72,"Velocity":40,"Duration":129198,"SoundDuration":129198,"Delta":142545757},{"NoteNumber":60,"Velocity":44,"Duration":234247,"SoundDuration":234247,"Delta":142674956},{"NoteNumber":84,"Velocity":63,"Duration":240499,"SoundDuration":240499,"Delta":142909203},{"NoteNumber":82,"Velocity":69,"Duration":229709,"SoundDuration":229709,"Delta":143149703},{"NoteNumber":64,"Velocity":48,"Duration":114854,"SoundDuration":114854,"Delta":143149703},{"NoteNumber":72,"Velocity":40,"Duration":114854,"SoundDuration":114854,"Delta":143264558},{"NoteNumber":79,"Velocity":60,"Duration":229708,"SoundDuration":229708,"Delta":143379412},{"NoteNumber":64,"Velocity":44,"Duration":114854,"SoundDuration":114854,"Delta":143379412},{"NoteNumber":72,"Velocity":40,"Duration":114854,"SoundDuration":114854,"Delta":143494267},{"NoteNumber":80,"Velocity":66,"Duration":229709,"SoundDuration":229709,"Delta":143609121},{"NoteNumber":65,"Velocity":44,"Duration":114854,"SoundDuration":114854,"Delta":143609121},{"NoteNumber":72,"Velocity":37,"Duration":114854,"SoundDuration":114854,"Delta":143723976},{"NoteNumber":77,"Velocity":57,"Duration":236667,"SoundDuration":236667,"Delta":143838830},{"NoteNumber":65,"Velocity":43,"Duration":118333,"SoundDuration":118333,"Delta":143838830},{"NoteNumber":72,"Velocity":38,"Duration":88750,"SoundDuration":88750,"Delta":143957164},{"NoteNumber":76,"Velocity":68,"Duration":232504,"SoundDuration":232504,"Delta":144075498},{"NoteNumber":60,"Velocity":48,"Duration":116252,"SoundDuration":116252,"Delta":144075498},{"NoteNumber":72,"Velocity":40,"Duration":116252,"SoundDuration":116252,"Delta":144191750},{"NoteNumber":77,"Velocity":55,"Duration":58125,"SoundDuration":58125,"Delta":144308002},{"NoteNumber":62,"Velocity":44,"Duration":116252,"SoundDuration":116252,"Delta":144308002},{"NoteNumber":79,"Velocity":53,"Duration":58126,"SoundDuration":58126,"Delta":144366128},{"NoteNumber":77,"Velocity":55,"Duration":116252,"SoundDuration":116252,"Delta":144424254},{"NoteNumber":72,"Velocity":40,"Duration":116252,"SoundDuration":116252,"Delta":144424254},{"NoteNumber":79,"Velocity":62,"Duration":234247,"SoundDuration":234247,"Delta":144540506},{"NoteNumber":64,"Velocity":44,"Duration":234247,"SoundDuration":234247,"Delta":144540506},{"NoteNumber":84,"Velocity":63,"Duration":240499,"SoundDuration":240499,"Delta":144774753},{"NoteNumber":82,"Velocity":69,"Duration":229709,"SoundDuration":229709,"Delta":145015253},{"NoteNumber":64,"Velocity":48,"Duration":114854,"SoundDuration":114854,"Delta":145015253},{"NoteNumber":72,"Velocity":40,"Duration":114854,"SoundDuration":114854,"Delta":145130107},{"NoteNumber":79,"Velocity":60,"Duration":229708,"SoundDuration":229708,"Delta":145244962},{"NoteNumber":64,"Velocity":44,"Duration":114854,"SoundDuration":114854,"Delta":145244962},{"NoteNumber":72,"Velocity":40,"Duration":114854,"SoundDuration":114854,"Delta":145359816},{"NoteNumber":80,"Velocity":66,"Duration":241507,"SoundDuration":241507,"Delta":145474671},{"NoteNumber":65,"Velocity":44,"Duration":120753,"SoundDuration":120753,"Delta":145474671},{"NoteNumber":72,"Velocity":37,"Duration":120753,"SoundDuration":120753,"Delta":145595424},{"NoteNumber":77,"Velocity":57,"Duration":268504,"SoundDuration":268504,"Delta":145716178},{"NoteNumber":65,"Velocity":43,"Duration":134252,"SoundDuration":134252,"Delta":145716178},{"NoteNumber":72,"Velocity":38,"Duration":100689,"SoundDuration":100689,"Delta":145850430},{"NoteNumber":84,"Velocity":68,"Duration":508560,"SoundDuration":508560,"Delta":145984682},{"NoteNumber":60,"Velocity":48,"Duration":508560,"SoundDuration":508560,"Delta":145984682},{"NoteNumber":84,"Velocity":56,"Duration":238720,"SoundDuration":238720,"Delta":146747524},{"NoteNumber":80,"Velocity":47,"Duration":238720,"SoundDuration":238720,"Delta":146747524},{"NoteNumber":85,"Velocity":57,"Duration":235128,"SoundDuration":235128,"Delta":146986244},{"NoteNumber":82,"Velocity":48,"Duration":235128,"SoundDuration":235128,"Delta":146986244},{"NoteNumber":84,"Velocity":54,"Duration":236016,"SoundDuration":236016,"Delta":147221372},{"NoteNumber":80,"Velocity":45,"Duration":236016,"SoundDuration":236016,"Delta":147221372},{"NoteNumber":82,"Velocity":57,"Duration":236016,"SoundDuration":236016,"Delta":147457388},{"NoteNumber":79,"Velocity":48,"Duration":236016,"SoundDuration":236016,"Delta":147457388},{"NoteNumber":80,"Velocity":53,"Duration":248221,"SoundDuration":248221,"Delta":147693404},{"NoteNumber":77,"Velocity":45,"Duration":248221,"SoundDuration":248221,"Delta":147693404},{"NoteNumber":79,"Velocity":58,"Duration":238720,"SoundDuration":238720,"Delta":147941625},{"NoteNumber":76,"Velocity":49,"Duration":238720,"SoundDuration":238720,"Delta":147941625},{"NoteNumber":83,"Velocity":52,"Duration":244339,"SoundDuration":244339,"Delta":148180346},{"NoteNumber":84,"Velocity":52,"Duration":244339,"SoundDuration":244339,"Delta":148424685},{"NoteNumber":68,"Velocity":63,"Duration":122169,"SoundDuration":122169,"Delta":148669025},{"NoteNumber":72,"Velocity":53,"Duration":122169,"SoundDuration":122169,"Delta":148791194},{"NoteNumber":70,"Velocity":66,"Duration":118906,"SoundDuration":118906,"Delta":148913364},{"NoteNumber":73,"Velocity":56,"Duration":118905,"SoundDuration":118905,"Delta":149032270},{"NoteNumber":68,"Velocity":60,"Duration":118906,"SoundDuration":118906,"Delta":149151176},{"NoteNumber":72,"Velocity":51,"Duration":118906,"SoundDuration":118906,"Delta":149270082},{"NoteNumber":67,"Velocity":66,"Duration":121221,"SoundDuration":121221,"Delta":149388988},{"NoteNumber":70,"Velocity":56,"Duration":121222,"SoundDuration":121222,"Delta":149510210},{"NoteNumber":65,"Velocity":59,"Duration":123132,"SoundDuration":123132,"Delta":149631432},{"NoteNumber":68,"Velocity":50,"Duration":123132,"SoundDuration":123132,"Delta":149754565},{"NoteNumber":60,"Velocity":58,"Duration":487113,"SoundDuration":487113,"Delta":149877697},{"NoteNumber":64,"Velocity":66,"Duration":487113,"SoundDuration":487113,"Delta":149877697},{"NoteNumber":67,"Velocity":59,"Duration":119818,"SoundDuration":119818,"Delta":150005357},{"NoteNumber":68,"Velocity":69,"Duration":119817,"SoundDuration":119817,"Delta":150125175},{"NoteNumber":67,"Velocity":59,"Duration":119818,"SoundDuration":119818,"Delta":150244993},{"NoteNumber":72,"Velocity":67,"Duration":119818,"SoundDuration":119818,"Delta":150364811},{"NoteNumber":70,"Velocity":59,"Duration":119817,"SoundDuration":119817,"Delta":150484629},{"NoteNumber":68,"Velocity":65,"Duration":119818,"SoundDuration":119818,"Delta":150604447},{"NoteNumber":67,"Velocity":59,"Duration":125104,"SoundDuration":125104,"Delta":150724265},{"NoteNumber":60,"Velocity":58,"Duration":487113,"SoundDuration":487113,"Delta":150849369},{"NoteNumber":65,"Velocity":66,"Duration":487113,"SoundDuration":487113,"Delta":150849369},{"NoteNumber":68,"Velocity":59,"Duration":119818,"SoundDuration":119818,"Delta":150977028},{"NoteNumber":70,"Velocity":69,"Duration":119817,"SoundDuration":119817,"Delta":151096846},{"NoteNumber":68,"Velocity":59,"Duration":119818,"SoundDuration":119818,"Delta":151216664},{"NoteNumber":73,"Velocity":67,"Duration":119818,"SoundDuration":119818,"Delta":151336482},{"NoteNumber":72,"Velocity":59,"Duration":119817,"SoundDuration":119817,"Delta":151456300},{"NoteNumber":70,"Velocity":65,"Duration":119818,"SoundDuration":119818,"Delta":151576118},{"NoteNumber":68,"Velocity":59,"Duration":125104,"SoundDuration":125104,"Delta":151695936},{"NoteNumber":64,"Velocity":66,"Duration":487113,"SoundDuration":487113,"Delta":151821041},{"NoteNumber":60,"Velocity":58,"Duration":487113,"SoundDuration":487113,"Delta":151821041},{"NoteNumber":67,"Velocity":59,"Duration":119818,"SoundDuration":119818,"Delta":151948700},{"NoteNumber":68,"Velocity":69,"Duration":119817,"SoundDuration":119817,"Delta":152068518},{"NoteNumber":67,"Velocity":59,"Duration":119818,"SoundDuration":119818,"Delta":152188336},{"NoteNumber":72,"Velocity":67,"Duration":119818,"SoundDuration":119818,"Delta":152308154},{"NoteNumber":70,"Velocity":59,"Duration":119817,"SoundDuration":119817,"Delta":152427972},{"NoteNumber":68,"Velocity":65,"Duration":119818,"SoundDuration":119818,"Delta":152547790},{"NoteNumber":67,"Velocity":59,"Duration":125104,"SoundDuration":125104,"Delta":152667608},{"NoteNumber":65,"Velocity":66,"Duration":487113,"SoundDuration":487113,"Delta":152792712},{"NoteNumber":60,"Velocity":58,"Duration":487113,"SoundDuration":487113,"Delta":152792712},{"NoteNumber":68,"Velocity":59,"Duration":119818,"SoundDuration":119818,"Delta":152920372},{"NoteNumber":70,"Velocity":69,"Duration":119817,"SoundDuration":119817,"Delta":153040190},{"NoteNumber":68,"Velocity":59,"Duration":119818,"SoundDuration":119818,"Delta":153160008},{"NoteNumber":73,"Velocity":67,"Duration":119818,"SoundDuration":119818,"Delta":153279826},{"NoteNumber":72,"Velocity":59,"Duration":119817,"SoundDuration":119817,"Delta":153399644},{"NoteNumber":70,"Velocity":65,"Duration":119818,"SoundDuration":119818,"Delta":153519462},{"NoteNumber":68,"Velocity":59,"Duration":125104,"SoundDuration":125104,"Delta":153639280},{"NoteNumber":64,"Velocity":66,"Duration":487113,"SoundDuration":487113,"Delta":153764384},{"NoteNumber":60,"Velocity":58,"Duration":487113,"SoundDuration":487113,"Delta":153764384},{"NoteNumber":67,"Velocity":59,"Duration":119818,"SoundDuration":119818,"Delta":153892044},{"NoteNumber":68,"Velocity":69,"Duration":119817,"SoundDuration":119817,"Delta":154011862},{"NoteNumber":67,"Velocity":59,"Duration":119818,"SoundDuration":119818,"Delta":154131680},{"NoteNumber":72,"Velocity":67,"Duration":119818,"SoundDuration":119818,"Delta":154251498},{"NoteNumber":70,"Velocity":59,"Duration":119817,"SoundDuration":119817,"Delta":154371316},{"NoteNumber":68,"Velocity":65,"Duration":119818,"SoundDuration":119818,"Delta":154491134},{"NoteNumber":67,"Velocity":59,"Duration":125104,"SoundDuration":125104,"Delta":154610952},{"NoteNumber":68,"Velocity":73,"Duration":127659,"SoundDuration":127659,"Delta":154736056},{"NoteNumber":62,"Velocity":66,"Duration":483025,"SoundDuration":483025,"Delta":154736056},{"NoteNumber":59,"Velocity":58,"Duration":483025,"SoundDuration":483025,"Delta":154736056},{"NoteNumber":65,"Velocity":65,"Duration":118455,"SoundDuration":118455,"Delta":154863715},{"NoteNumber":68,"Velocity":75,"Duration":118455,"SoundDuration":118455,"Delta":154982171},{"NoteNumber":71,"Velocity":66,"Duration":118455,"SoundDuration":118455,"Delta":155100626},{"NoteNumber":74,"Velocity":75,"Duration":118455,"SoundDuration":118455,"Delta":155219081},{"NoteNumber":71,"Velocity":67,"Duration":118455,"SoundDuration":118455,"Delta":155337536},{"NoteNumber":74,"Velocity":74,"Duration":118455,"SoundDuration":118455,"Delta":155455992},{"NoteNumber":77,"Velocity":69,"Duration":118455,"SoundDuration":118455,"Delta":155574447},{"NoteNumber":80,"Velocity":78,"Duration":118455,"SoundDuration":118455,"Delta":155692902},{"NoteNumber":74,"Velocity":69,"Duration":118455,"SoundDuration":118455,"Delta":155811357},{"NoteNumber":77,"Velocity":80,"Duration":118455,"SoundDuration":118455,"Delta":155929813},{"NoteNumber":80,"Velocity":70,"Duration":118020,"SoundDuration":118020,"Delta":156048268},{"NoteNumber":83,"Velocity":81,"Duration":118603,"SoundDuration":118603,"Delta":156166288},{"NoteNumber":77,"Velocity":72,"Duration":119970,"SoundDuration":119970,"Delta":156284892},{"NoteNumber":80,"Velocity":86,"Duration":121376,"SoundDuration":121376,"Delta":156404862},{"NoteNumber":83,"Velocity":78,"Duration":122807,"SoundDuration":122807,"Delta":156526239},{"NoteNumber":86,"Velocity":101,"Duration":472032,"SoundDuration":472032,"Delta":156649047},{"NoteNumber":34,"Velocity":43,"Duration":487113,"SoundDuration":487113,"Delta":158537175},{"NoteNumber":46,"Velocity":49,"Duration":487113,"SoundDuration":487113,"Delta":158537175},{"NoteNumber":64,"Velocity":44,"Duration":119818,"SoundDuration":119818,"Delta":158664835},{"NoteNumber":67,"Velocity":51,"Duration":119817,"SoundDuration":119817,"Delta":158784653},{"NoteNumber":70,"Velocity":44,"Duration":119818,"SoundDuration":119818,"Delta":158904471},{"NoteNumber":73,"Velocity":50,"Duration":119818,"SoundDuration":119818,"Delta":159024289},{"NoteNumber":64,"Velocity":44,"Duration":119817,"SoundDuration":119817,"Delta":159144107},{"NoteNumber":67,"Velocity":48,"Duration":119818,"SoundDuration":119818,"Delta":159263925},{"NoteNumber":70,"Velocity":44,"Duration":119818,"SoundDuration":119818,"Delta":159383743},{"NoteNumber":73,"Velocity":50,"Duration":119817,"SoundDuration":119817,"Delta":159503561},{"NoteNumber":64,"Velocity":44,"Duration":119818,"SoundDuration":119818,"Delta":159623379},{"NoteNumber":67,"Velocity":48,"Duration":119818,"SoundDuration":119818,"Delta":159743197},{"NoteNumber":70,"Velocity":44,"Duration":119817,"SoundDuration":119817,"Delta":159863015},{"NoteNumber":73,"Velocity":50,"Duration":119818,"SoundDuration":119818,"Delta":159982833},{"NoteNumber":64,"Velocity":44,"Duration":119818,"SoundDuration":119818,"Delta":160102651},{"NoteNumber":67,"Velocity":48,"Duration":119817,"SoundDuration":119817,"Delta":160222469},{"NoteNumber":70,"Velocity":44,"Duration":125104,"SoundDuration":125104,"Delta":160342287},{"NoteNumber":73,"Velocity":65,"Duration":127659,"SoundDuration":127659,"Delta":160467391},{"NoteNumber":31,"Velocity":55,"Duration":483025,"SoundDuration":483025,"Delta":160467391},{"NoteNumber":43,"Velocity":63,"Duration":483025,"SoundDuration":483025,"Delta":160467391},{"NoteNumber":63,"Velocity":57,"Duration":118455,"SoundDuration":118455,"Delta":160595050},{"NoteNumber":67,"Velocity":66,"Duration":118455,"SoundDuration":118455,"Delta":160713506},{"NoteNumber":70,"Velocity":57,"Duration":118455,"SoundDuration":118455,"Delta":160831961},{"NoteNumber":73,"Velocity":65,"Duration":118455,"SoundDuration":118455,"Delta":160950416},{"NoteNumber":63,"Velocity":57,"Duration":118455,"SoundDuration":118455,"Delta":161068871},{"NoteNumber":67,"Velocity":62,"Duration":118455,"SoundDuration":118455,"Delta":161187327},{"NoteNumber":70,"Velocity":57,"Duration":125104,"SoundDuration":125104,"Delta":161305782},{"NoteNumber":73,"Velocity":65,"Duration":127659,"SoundDuration":127659,"Delta":161430886},{"NoteNumber":63,"Velocity":57,"Duration":120753,"SoundDuration":120753,"Delta":161558546},{"NoteNumber":67,"Velocity":67,"Duration":120753,"SoundDuration":120753,"Delta":161679299},{"NoteNumber":70,"Velocity":58,"Duration":120753,"SoundDuration":120753,"Delta":161800053},{"NoteNumber":73,"Velocity":74,"Duration":121817,"SoundDuration":121817,"Delta":161920806},{"NoteNumber":63,"Velocity":65,"Duration":124734,"SoundDuration":124734,"Delta":162042623},{"NoteNumber":67,"Velocity":73,"Duration":127646,"SoundDuration":127646,"Delta":162167358},{"NoteNumber":70,"Velocity":65,"Duration":165581,"SoundDuration":165581,"Delta":162295004},{"NoteNumber":73,"Velocity":84,"Duration":508560,"SoundDuration":508560,"Delta":162460585},{"NoteNumber":72,"Velocity":60,"Duration":110774,"SoundDuration":110774,"Delta":164155199},{"NoteNumber":73,"Velocity":55,"Duration":110774,"SoundDuration":110774,"Delta":164265973},{"NoteNumber":75,"Velocity":60,"Duration":85259,"SoundDuration":85259,"Delta":164376748},{"NoteNumber":75,"Velocity":58,"Duration":82556,"SoundDuration":82556,"Delta":164604107},{"NoteNumber":75,"Velocity":64,"Duration":85194,"SoundDuration":85194,"Delta":164824258},{"NoteNumber":80,"Velocity":66,"Duration":89087,"SoundDuration":89087,"Delta":165051445},{"NoteNumber":75,"Velocity":61,"Duration":664665,"SoundDuration":664665,"Delta":165289012},{"NoteNumber":60,"Velocity":51,"Duration":220766,"SoundDuration":220766,"Delta":165509779},{"NoteNumber":58,"Velocity":51,"Duration":223131,"SoundDuration":223131,"Delta":165730546},{"NoteNumber":73,"Velocity":57,"Duration":103777,"SoundDuration":103777,"Delta":165953678},{"NoteNumber":56,"Velocity":48,"Duration":207555,"SoundDuration":207555,"Delta":165953678},{"NoteNumber":72,"Velocity":54,"Duration":103777,"SoundDuration":103777,"Delta":166057455},{"NoteNumber":55,"Velocity":53,"Duration":229709,"SoundDuration":229709,"Delta":166161233},{"NoteNumber":70,"Velocity":60,"Duration":229708,"SoundDuration":229708,"Delta":166390942},{"NoteNumber":51,"Velocity":47,"Duration":172281,"SoundDuration":172281,"Delta":166390942},{"NoteNumber":56,"Velocity":49,"Duration":229709,"SoundDuration":229709,"Delta":166620651},{"NoteNumber":72,"Velocity":59,"Duration":236667,"SoundDuration":236667,"Delta":166850360},{"NoteNumber":51,"Velocity":45,"Duration":177500,"SoundDuration":177500,"Delta":166850360},{"NoteNumber":75,"Velocity":59,"Duration":219218,"SoundDuration":219218,"Delta":167087027},{"NoteNumber":58,"Velocity":49,"Duration":219218,"SoundDuration":219218,"Delta":167087027},{"NoteNumber":73,"Velocity":51,"Duration":56590,"SoundDuration":56590,"Delta":167306245},{"NoteNumber":51,"Velocity":45,"Duration":169772,"SoundDuration":169772,"Delta":167306245},{"NoteNumber":75,"Velocity":46,"Duration":56590,"SoundDuration":56590,"Delta":167362836},{"NoteNumber":73,"Velocity":51,"Duration":113181,"SoundDuration":113181,"Delta":167419427},{"NoteNumber":72,"Velocity":59,"Duration":245982,"SoundDuration":245982,"Delta":167532609},{"NoteNumber":56,"Velocity":49,"Duration":245982,"SoundDuration":245982,"Delta":167532609},{"NoteNumber":72,"Velocity":60,"Duration":108845,"SoundDuration":108845,"Delta":167778592},{"NoteNumber":73,"Velocity":55,"Duration":108845,"SoundDuration":108845,"Delta":167887437},{"NoteNumber":75,"Velocity":60,"Duration":84643,"SoundDuration":84643,"Delta":167996283},{"NoteNumber":77,"Velocity":61,"Duration":82556,"SoundDuration":82556,"Delta":168221999},{"NoteNumber":79,"Velocity":61,"Duration":84580,"SoundDuration":84580,"Delta":168442150},{"NoteNumber":80,"Velocity":66,"Duration":87101,"SoundDuration":87101,"Delta":168667697},{"NoteNumber":75,"Velocity":61,"Duration":666230,"SoundDuration":666230,"Delta":168899967},{"NoteNumber":60,"Velocity":51,"Duration":221549,"SoundDuration":221549,"Delta":169121517},{"NoteNumber":58,"Velocity":51,"Duration":223131,"SoundDuration":223131,"Delta":169343066},{"NoteNumber":73,"Velocity":57,"Duration":103777,"SoundDuration":103777,"Delta":169566198},{"NoteNumber":56,"Velocity":48,"Duration":207555,"SoundDuration":207555,"Delta":169566198},{"NoteNumber":72,"Velocity":54,"Duration":103777,"SoundDuration":103777,"Delta":169669975},{"NoteNumber":61,"Velocity":53,"Duration":228850,"SoundDuration":228850,"Delta":169773753},{"NoteNumber":70,"Velocity":60,"Duration":228850,"SoundDuration":228850,"Delta":170002603},{"NoteNumber":58,"Velocity":47,"Duration":171637,"SoundDuration":171637,"Delta":170002603},{"NoteNumber":63,"Velocity":49,"Duration":228850,"SoundDuration":228850,"Delta":170231454},{"NoteNumber":67,"Velocity":59,"Duration":236667,"SoundDuration":236667,"Delta":170460304},{"NoteNumber":51,"Velocity":45,"Duration":177500,"SoundDuration":177500,"Delta":170460304},{"NoteNumber":56,"Velocity":50,"Duration":234009,"SoundDuration":234009,"Delta":170696972},{"NoteNumber":68,"Velocity":60,"Duration":234009,"SoundDuration":234009,"Delta":170930981},{"NoteNumber":51,"Velocity":42,"Duration":234009,"SoundDuration":234009,"Delta":170930981},{"NoteNumber":44,"Velocity":47,"Duration":241234,"SoundDuration":241234,"Delta":171164991},{"NoteNumber":75,"Velocity":53,"Duration":222337,"SoundDuration":222337,"Delta":171406226},{"NoteNumber":77,"Velocity":59,"Duration":111168,"SoundDuration":111168,"Delta":171628563},{"NoteNumber":75,"Velocity":51,"Duration":111168,"SoundDuration":111168,"Delta":171739732},{"NoteNumber":74,"Velocity":56,"Duration":111168,"SoundDuration":111168,"Delta":171850901},{"NoteNumber":75,"Velocity":50,"Duration":111168,"SoundDuration":111168,"Delta":171962069},{"NoteNumber":74,"Velocity":56,"Duration":111168,"SoundDuration":111168,"Delta":172073238},{"NoteNumber":77,"Velocity":55,"Duration":111168,"SoundDuration":111168,"Delta":172184407},{"NoteNumber":80,"Velocity":55,"Duration":121182,"SoundDuration":121182,"Delta":172295576},{"NoteNumber":68,"Velocity":41,"Duration":242365,"SoundDuration":242365,"Delta":172295576},{"NoteNumber":83,"Velocity":55,"Duration":121182,"SoundDuration":121182,"Delta":172416758},{"NoteNumber":82,"Velocity":59,"Duration":222337,"SoundDuration":222337,"Delta":172537941},{"NoteNumber":67,"Velocity":45,"Duration":445871,"SoundDuration":445871,"Delta":172537941},{"NoteNumber":75,"Velocity":50,"Duration":169772,"SoundDuration":169772,"Delta":172760279},{"NoteNumber":75,"Velocity":56,"Duration":224367,"SoundDuration":224367,"Delta":172986643},{"NoteNumber":72,"Velocity":51,"Duration":231410,"SoundDuration":231410,"Delta":173211011},{"NoteNumber":73,"Velocity":59,"Duration":111168,"SoundDuration":111168,"Delta":173442421},{"NoteNumber":72,"Velocity":51,"Duration":111168,"SoundDuration":111168,"Delta":173553589},{"NoteNumber":71,"Velocity":56,"Duration":111168,"SoundDuration":111168,"Delta":173664758},{"NoteNumber":72,"Velocity":50,"Duration":111168,"SoundDuration":111168,"Delta":173775927},{"NoteNumber":71,"Velocity":56,"Duration":110774,"SoundDuration":110774,"Delta":173887096},{"NoteNumber":74,"Velocity":55,"Duration":114854,"SoundDuration":114854,"Delta":173997870},{"NoteNumber":77,"Velocity":55,"Duration":124069,"SoundDuration":124069,"Delta":174112725},{"NoteNumber":65,"Velocity":41,"Duration":248139,"SoundDuration":248139,"Delta":174112725},{"NoteNumber":80,"Velocity":55,"Duration":124069,"SoundDuration":124069,"Delta":174236794},{"NoteNumber":79,"Velocity":59,"Duration":222337,"SoundDuration":222337,"Delta":174360864},{"NoteNumber":63,"Velocity":45,"Duration":441895,"SoundDuration":441895,"Delta":174360864},{"NoteNumber":72,"Velocity":50,"Duration":166753,"SoundDuration":166753,"Delta":174583201},{"NoteNumber":72,"Velocity":56,"Duration":226775,"SoundDuration":226775,"Delta":174805539},{"NoteNumber":68,"Velocity":51,"Duration":234009,"SoundDuration":234009,"Delta":175032314},{"NoteNumber":70,"Velocity":59,"Duration":111168,"SoundDuration":111168,"Delta":175266324},{"NoteNumber":68,"Velocity":51,"Duration":111168,"SoundDuration":111168,"Delta":175377492},{"NoteNumber":67,"Velocity":56,"Duration":111168,"SoundDuration":111168,"Delta":175488661},{"NoteNumber":68,"Velocity":50,"Duration":111168,"SoundDuration":111168,"Delta":175599830},{"NoteNumber":67,"Velocity":56,"Duration":111168,"SoundDuration":111168,"Delta":175710999},{"NoteNumber":70,"Velocity":55,"Duration":111168,"SoundDuration":111168,"Delta":175822167},{"NoteNumber":73,"Velocity":55,"Duration":115704,"SoundDuration":115704,"Delta":175933336},{"NoteNumber":61,"Velocity":41,"Duration":237834,"SoundDuration":237834,"Delta":175933336},{"NoteNumber":77,"Velocity":55,"Duration":122129,"SoundDuration":122129,"Delta":176049041},{"NoteNumber":75,"Velocity":59,"Duration":223131,"SoundDuration":223131,"Delta":176171171},{"NoteNumber":60,"Velocity":45,"Duration":446665,"SoundDuration":446665,"Delta":176171171},{"NoteNumber":68,"Velocity":50,"Duration":169772,"SoundDuration":169772,"Delta":176394303},{"NoteNumber":68,"Velocity":56,"Duration":223131,"SoundDuration":223131,"Delta":176620667},{"NoteNumber":75,"Velocity":51,"Duration":228850,"SoundDuration":228850,"Delta":176843798},{"NoteNumber":74,"Velocity":59,"Duration":111565,"SoundDuration":111565,"Delta":177072649},{"NoteNumber":58,"Velocity":38,"Duration":446262,"SoundDuration":446262,"Delta":177072649},{"NoteNumber":68,"Velocity":45,"Duration":446262,"SoundDuration":446262,"Delta":177072649},{"NoteNumber":77,"Velocity":55,"Duration":111565,"SoundDuration":111565,"Delta":177184214},{"NoteNumber":80,"Velocity":62,"Duration":111565,"SoundDuration":111565,"Delta":177295780},{"NoteNumber":84,"Velocity":59,"Duration":111565,"SoundDuration":111565,"Delta":177407346},{"NoteNumber":82,"Velocity":62,"Duration":111565,"SoundDuration":111565,"Delta":177518912},{"NoteNumber":80,"Velocity":61,"Duration":111565,"SoundDuration":111565,"Delta":177630477},{"NoteNumber":79,"Velocity":56,"Duration":114007,"SoundDuration":114007,"Delta":177742043},{"NoteNumber":77,"Velocity":50,"Duration":114007,"SoundDuration":114007,"Delta":177856051},{"NoteNumber":75,"Velocity":59,"Duration":118877,"SoundDuration":118877,"Delta":177970059},{"NoteNumber":63,"Velocity":38,"Duration":452945,"SoundDuration":452945,"Delta":177970059},{"NoteNumber":67,"Velocity":45,"Duration":452945,"SoundDuration":452945,"Delta":177970059},{"NoteNumber":77,"Velocity":55,"Duration":111565,"SoundDuration":111565,"Delta":178088936},{"NoteNumber":75,"Velocity":56,"Duration":111251,"SoundDuration":111251,"Delta":178200502},{"NoteNumber":74,"Velocity":56,"Duration":111251,"SoundDuration":111251,"Delta":178311753},{"NoteNumber":75,"Velocity":59,"Duration":111251,"SoundDuration":111251,"Delta":178423005},{"NoteNumber":79,"Velocity":59,"Duration":111251,"SoundDuration":111251,"Delta":178534256},{"NoteNumber":77,"Velocity":54,"Duration":112368,"SoundDuration":112368,"Delta":178645507},{"NoteNumber":75,"Velocity":50,"Duration":123477,"SoundDuration":123477,"Delta":178757875},{"NoteNumber":74,"Velocity":59,"Duration":111168,"SoundDuration":111168,"Delta":178881352},{"NoteNumber":68,"Velocity":45,"Duration":444674,"SoundDuration":444674,"Delta":178881352},{"NoteNumber":58,"Velocity":38,"Duration":444674,"SoundDuration":444674,"Delta":178881352},{"NoteNumber":77,"Velocity":55,"Duration":111168,"SoundDuration":111168,"Delta":178992521},{"NoteNumber":80,"Velocity":62,"Duration":111168,"SoundDuration":111168,"Delta":179103690},{"NoteNumber":84,"Velocity":59,"Duration":111168,"SoundDuration":111168,"Delta":179214858},{"NoteNumber":82,"Velocity":62,"Duration":111168,"SoundDuration":111168,"Delta":179326027},{"NoteNumber":80,"Velocity":61,"Duration":111168,"SoundDuration":111168,"Delta":179437196},{"NoteNumber":79,"Velocity":56,"Duration":111965,"SoundDuration":111965,"Delta":179548365},{"NoteNumber":77,"Velocity":50,"Duration":124958,"SoundDuration":124958,"Delta":179660330},{"NoteNumber":75,"Velocity":59,"Duration":111168,"SoundDuration":111168,"Delta":179785288},{"NoteNumber":63,"Velocity":38,"Duration":445865,"SoundDuration":445865,"Delta":179785288},{"NoteNumber":67,"Velocity":45,"Duration":445865,"SoundDuration":445865,"Delta":179785288},{"NoteNumber":77,"Velocity":55,"Duration":111565,"SoundDuration":111565,"Delta":179896457},{"NoteNumber":75,"Velocity":56,"Duration":111565,"SoundDuration":111565,"Delta":180008023},{"NoteNumber":74,"Velocity":56,"Duration":111565,"SoundDuration":111565,"Delta":180119588},{"NoteNumber":75,"Velocity":59,"Duration":111565,"SoundDuration":111565,"Delta":180231154},{"NoteNumber":79,"Velocity":59,"Duration":111565,"SoundDuration":111565,"Delta":180342720},{"NoteNumber":77,"Velocity":54,"Duration":111565,"SoundDuration":111565,"Delta":180454286},{"NoteNumber":75,"Velocity":50,"Duration":122991,"SoundDuration":122991,"Delta":180565851},{"NoteNumber":74,"Velocity":59,"Duration":111168,"SoundDuration":111168,"Delta":180688843},{"NoteNumber":58,"Velocity":38,"Duration":444674,"SoundDuration":444674,"Delta":180688843},{"NoteNumber":68,"Velocity":45,"Duration":444674,"SoundDuration":444674,"Delta":180688843},{"NoteNumber":77,"Velocity":55,"Duration":111168,"SoundDuration":111168,"Delta":180800011},{"NoteNumber":80,"Velocity":62,"Duration":111168,"SoundDuration":111168,"Delta":180911180},{"NoteNumber":84,"Velocity":59,"Duration":111168,"SoundDuration":111168,"Delta":181022349},{"NoteNumber":82,"Velocity":62,"Duration":111168,"SoundDuration":111168,"Delta":181133518},{"NoteNumber":80,"Velocity":61,"Duration":111168,"SoundDuration":111168,"Delta":181244686},{"NoteNumber":79,"Velocity":56,"Duration":112368,"SoundDuration":112368,"Delta":181355855},{"NoteNumber":77,"Velocity":50,"Duration":123477,"SoundDuration":123477,"Delta":181468223},{"NoteNumber":75,"Velocity":59,"Duration":111168,"SoundDuration":111168,"Delta":181591700},{"NoteNumber":63,"Velocity":38,"Duration":445865,"SoundDuration":445865,"Delta":181591700},{"NoteNumber":67,"Velocity":45,"Duration":445865,"SoundDuration":445865,"Delta":181591700},{"NoteNumber":77,"Velocity":50,"Duration":111565,"SoundDuration":111565,"Delta":181702869},{"NoteNumber":74,"Velocity":56,"Duration":111565,"SoundDuration":111565,"Delta":181814435},{"NoteNumber":77,"Velocity":50,"Duration":111565,"SoundDuration":111565,"Delta":181926000},{"NoteNumber":75,"Velocity":56,"Duration":111565,"SoundDuration":111565,"Delta":182037566},{"NoteNumber":77,"Velocity":51,"Duration":111565,"SoundDuration":111565,"Delta":182149132},{"NoteNumber":74,"Velocity":54,"Duration":116568,"SoundDuration":116568,"Delta":182260698},{"NoteNumber":77,"Velocity":50,"Duration":116568,"SoundDuration":116568,"Delta":182377266},{"NoteNumber":75,"Velocity":59,"Duration":932546,"SoundDuration":932546,"Delta":182493834},{"NoteNumber":51,"Velocity":36,"Duration":233136,"SoundDuration":233136,"Delta":182726971},{"NoteNumber":55,"Velocity":38,"Duration":233136,"SoundDuration":233136,"Delta":182960107},{"NoteNumber":58,"Velocity":35,"Duration":233136,"SoundDuration":233136,"Delta":183193244},{"NoteNumber":73,"Velocity":47,"Duration":125976,"SoundDuration":125976,"Delta":183426380},{"NoteNumber":63,"Velocity":36,"Duration":503905,"SoundDuration":503905,"Delta":183426380},{"NoteNumber":75,"Velocity":40,"Duration":125976,"SoundDuration":125976,"Delta":183552356},{"NoteNumber":72,"Velocity":44,"Duration":125976,"SoundDuration":125976,"Delta":183678333},{"NoteNumber":75,"Velocity":40,"Duration":125976,"SoundDuration":125976,"Delta":183804309},{"NoteNumber":73,"Velocity":44,"Duration":125976,"SoundDuration":125976,"Delta":183930285},{"NoteNumber":75,"Velocity":40,"Duration":125976,"SoundDuration":125976,"Delta":184056261},{"NoteNumber":72,"Velocity":43,"Duration":132380,"SoundDuration":132380,"Delta":184182238},{"NoteNumber":75,"Velocity":40,"Duration":132380,"SoundDuration":132380,"Delta":184314618},{"NoteNumber":73,"Velocity":47,"Duration":1109558,"SoundDuration":1109558,"Delta":184446998},{"NoteNumber":72,"Velocity":60,"Duration":110774,"SoundDuration":110774,"Delta":185556557},{"NoteNumber":73,"Velocity":55,"Duration":110774,"SoundDuration":110774,"Delta":185667331},{"NoteNumber":75,"Velocity":60,"Duration":83081,"SoundDuration":83081,"Delta":185778106},{"NoteNumber":75,"Velocity":61,"Duration":83081,"SoundDuration":83081,"Delta":185999656},{"NoteNumber":75,"Velocity":63,"Duration":109226,"SoundDuration":109226,"Delta":186232560},{"NoteNumber":80,"Velocity":58,"Duration":109226,"SoundDuration":109226,"Delta":186341786},{"NoteNumber":84,"Velocity":66,"Duration":109225,"SoundDuration":109225,"Delta":186451012},{"NoteNumber":80,"Velocity":58,"Duration":113593,"SoundDuration":113593,"Delta":186560238},{"NoteNumber":75,"Velocity":61,"Duration":664665,"SoundDuration":664665,"Delta":186673832},{"NoteNumber":60,"Velocity":51,"Duration":220766,"SoundDuration":220766,"Delta":186894599},{"NoteNumber":58,"Velocity":51,"Duration":223131,"SoundDuration":223131,"Delta":187115366},{"NoteNumber":73,"Velocity":57,"Duration":103777,"SoundDuration":103777,"Delta":187338497},{"NoteNumber":56,"Velocity":48,"Duration":207555,"SoundDuration":207555,"Delta":187338497},{"NoteNumber":72,"Velocity":54,"Duration":103777,"SoundDuration":103777,"Delta":187442275},{"NoteNumber":55,"Velocity":53,"Duration":229709,"SoundDuration":229709,"Delta":187546052},{"NoteNumber":70,"Velocity":53,"Duration":229708,"SoundDuration":229708,"Delta":187775761},{"NoteNumber":51,"Velocity":47,"Duration":172281,"SoundDuration":172281,"Delta":187775761},{"NoteNumber":56,"Velocity":49,"Duration":232955,"SoundDuration":232955,"Delta":188005470},{"NoteNumber":72,"Velocity":53,"Duration":177500,"SoundDuration":177500,"Delta":188238426},{"NoteNumber":51,"Velocity":45,"Duration":177500,"SoundDuration":177500,"Delta":188238426},{"NoteNumber":75,"Velocity":59,"Duration":219218,"SoundDuration":219218,"Delta":188475093},{"NoteNumber":58,"Velocity":49,"Duration":219218,"SoundDuration":219218,"Delta":188475093},{"NoteNumber":73,"Velocity":51,"Duration":56590,"SoundDuration":56590,"Delta":188694311},{"NoteNumber":51,"Velocity":45,"Duration":169772,"SoundDuration":169772,"Delta":188694311},{"NoteNumber":75,"Velocity":46,"Duration":56590,"SoundDuration":56590,"Delta":188750902},{"NoteNumber":73,"Velocity":51,"Duration":113181,"SoundDuration":113181,"Delta":188807493},{"NoteNumber":72,"Velocity":59,"Duration":245982,"SoundDuration":245982,"Delta":188920675},{"NoteNumber":56,"Velocity":49,"Duration":245982,"SoundDuration":245982,"Delta":188920675},{"NoteNumber":72,"Velocity":60,"Duration":108845,"SoundDuration":108845,"Delta":189166658},{"NoteNumber":73,"Velocity":55,"Duration":108845,"SoundDuration":108845,"Delta":189275503},{"NoteNumber":75,"Velocity":60,"Duration":84643,"SoundDuration":84643,"Delta":189384349},{"NoteNumber":77,"Velocity":57,"Duration":82266,"SoundDuration":82266,"Delta":189610065},{"NoteNumber":79,"Velocity":59,"Duration":82266,"SoundDuration":82266,"Delta":189829444},{"NoteNumber":80,"Velocity":66,"Duration":87101,"SoundDuration":87101,"Delta":190048822},{"NoteNumber":75,"Velocity":61,"Duration":666230,"SoundDuration":666230,"Delta":190281092},{"NoteNumber":60,"Velocity":51,"Duration":221549,"SoundDuration":221549,"Delta":190502642},{"NoteNumber":58,"Velocity":51,"Duration":223131,"SoundDuration":223131,"Delta":190724191},{"NoteNumber":73,"Velocity":57,"Duration":103777,"SoundDuration":103777,"Delta":190947323},{"NoteNumber":56,"Velocity":48,"Duration":207555,"SoundDuration":207555,"Delta":190947323},{"NoteNumber":72,"Velocity":54,"Duration":103777,"SoundDuration":103777,"Delta":191051100},{"NoteNumber":61,"Velocity":53,"Duration":228850,"SoundDuration":228850,"Delta":191154878},{"NoteNumber":70,"Velocity":43,"Duration":171637,"SoundDuration":171637,"Delta":191383728},{"NoteNumber":58,"Velocity":47,"Duration":171637,"SoundDuration":171637,"Delta":191383728},{"NoteNumber":63,"Velocity":49,"Duration":232090,"SoundDuration":232090,"Delta":191612579},{"NoteNumber":67,"Velocity":50,"Duration":177500,"SoundDuration":177500,"Delta":191844669},{"NoteNumber":51,"Velocity":45,"Duration":177500,"SoundDuration":177500,"Delta":191844669},{"NoteNumber":56,"Velocity":50,"Duration":234009,"SoundDuration":234009,"Delta":192081337},{"NoteNumber":68,"Velocity":60,"Duration":234009,"SoundDuration":234009,"Delta":192315346},{"NoteNumber":51,"Velocity":42,"Duration":234009,"SoundDuration":234009,"Delta":192315346},{"NoteNumber":44,"Velocity":47,"Duration":234009,"SoundDuration":234009,"Delta":192549356},{"NoteNumber":75,"Velocity":53,"Duration":222337,"SoundDuration":222337,"Delta":192783365},{"NoteNumber":77,"Velocity":59,"Duration":111168,"SoundDuration":111168,"Delta":193005703},{"NoteNumber":75,"Velocity":51,"Duration":111168,"SoundDuration":111168,"Delta":193116871},{"NoteNumber":74,"Velocity":56,"Duration":111168,"SoundDuration":111168,"Delta":193228040},{"NoteNumber":75,"Velocity":50,"Duration":111168,"SoundDuration":111168,"Delta":193339209},{"NoteNumber":74,"Velocity":56,"Duration":111168,"SoundDuration":111168,"Delta":193450378},{"NoteNumber":77,"Velocity":55,"Duration":111168,"SoundDuration":111168,"Delta":193561546},{"NoteNumber":80,"Velocity":55,"Duration":117527,"SoundDuration":117527,"Delta":193672715},{"NoteNumber":68,"Velocity":41,"Duration":235054,"SoundDuration":235054,"Delta":193672715},{"NoteNumber":83,"Velocity":55,"Duration":117527,"SoundDuration":117527,"Delta":193790242},{"NoteNumber":82,"Velocity":59,"Duration":222337,"SoundDuration":222337,"Delta":193907770},{"NoteNumber":67,"Velocity":45,"Duration":445871,"SoundDuration":445871,"Delta":193907770},{"NoteNumber":75,"Velocity":50,"Duration":169772,"SoundDuration":169772,"Delta":194130107},{"NoteNumber":75,"Velocity":56,"Duration":224367,"SoundDuration":224367,"Delta":194356471},{"NoteNumber":72,"Velocity":51,"Duration":231410,"SoundDuration":231410,"Delta":194580839},{"NoteNumber":73,"Velocity":59,"Duration":111168,"SoundDuration":111168,"Delta":194812249},{"NoteNumber":72,"Velocity":51,"Duration":111168,"SoundDuration":111168,"Delta":194923418},{"NoteNumber":71,"Velocity":56,"Duration":111168,"SoundDuration":111168,"Delta":195034587},{"NoteNumber":72,"Velocity":50,"Duration":111168,"SoundDuration":111168,"Delta":195145755},{"NoteNumber":71,"Velocity":56,"Duration":110774,"SoundDuration":110774,"Delta":195256924},{"NoteNumber":74,"Velocity":55,"Duration":114854,"SoundDuration":114854,"Delta":195367699},{"NoteNumber":77,"Velocity":55,"Duration":118417,"SoundDuration":118417,"Delta":195482553},{"NoteNumber":65,"Velocity":41,"Duration":254373,"SoundDuration":254373,"Delta":195482553},{"NoteNumber":80,"Velocity":55,"Duration":135955,"SoundDuration":135955,"Delta":195600971},{"NoteNumber":79,"Velocity":59,"Duration":222337,"SoundDuration":222337,"Delta":195736927},{"NoteNumber":63,"Velocity":45,"Duration":441895,"SoundDuration":441895,"Delta":195736927},{"NoteNumber":72,"Velocity":50,"Duration":166753,"SoundDuration":166753,"Delta":195959265},{"NoteNumber":72,"Velocity":56,"Duration":226775,"SoundDuration":226775,"Delta":196181602},{"NoteNumber":68,"Velocity":51,"Duration":234009,"SoundDuration":234009,"Delta":196408377},{"NoteNumber":70,"Velocity":59,"Duration":111168,"SoundDuration":111168,"Delta":196642387},{"NoteNumber":68,"Velocity":51,"Duration":111168,"SoundDuration":111168,"Delta":196753556},{"NoteNumber":67,"Velocity":56,"Duration":111168,"SoundDuration":111168,"Delta":196864724},{"NoteNumber":68,"Velocity":50,"Duration":111168,"SoundDuration":111168,"Delta":196975893},{"NoteNumber":67,"Velocity":56,"Duration":111168,"SoundDuration":111168,"Delta":197087062},{"NoteNumber":70,"Velocity":55,"Duration":111168,"SoundDuration":111168,"Delta":197198231},{"NoteNumber":73,"Velocity":55,"Duration":115704,"SoundDuration":115704,"Delta":197309399},{"NoteNumber":61,"Velocity":41,"Duration":231410,"SoundDuration":231410,"Delta":197309399},{"NoteNumber":77,"Velocity":55,"Duration":115705,"SoundDuration":115705,"Delta":197425104},{"NoteNumber":75,"Velocity":59,"Duration":223131,"SoundDuration":223131,"Delta":197540809},{"NoteNumber":60,"Velocity":45,"Duration":446665,"SoundDuration":446665,"Delta":197540809},{"NoteNumber":68,"Velocity":50,"Duration":169772,"SoundDuration":169772,"Delta":197763941},{"NoteNumber":68,"Velocity":56,"Duration":223131,"SoundDuration":223131,"Delta":197990305},{"NoteNumber":75,"Velocity":51,"Duration":228850,"SoundDuration":228850,"Delta":198213436},{"NoteNumber":74,"Velocity":59,"Duration":111565,"SoundDuration":111565,"Delta":198442287},{"NoteNumber":58,"Velocity":38,"Duration":446262,"SoundDuration":446262,"Delta":198442287},{"NoteNumber":68,"Velocity":45,"Duration":446262,"SoundDuration":446262,"Delta":198442287},{"NoteNumber":77,"Velocity":55,"Duration":111565,"SoundDuration":111565,"Delta":198553853},{"NoteNumber":80,"Velocity":62,"Duration":111565,"SoundDuration":111565,"Delta":198665418},{"NoteNumber":84,"Velocity":59,"Duration":111565,"SoundDuration":111565,"Delta":198776984},{"NoteNumber":82,"Velocity":62,"Duration":111565,"SoundDuration":111565,"Delta":198888550},{"NoteNumber":80,"Velocity":61,"Duration":111565,"SoundDuration":111565,"Delta":199000116},{"NoteNumber":79,"Velocity":56,"Duration":114007,"SoundDuration":114007,"Delta":199111681},{"NoteNumber":77,"Velocity":50,"Duration":114007,"SoundDuration":114007,"Delta":199225689},{"NoteNumber":75,"Velocity":59,"Duration":111168,"SoundDuration":111168,"Delta":199339697},{"NoteNumber":63,"Velocity":38,"Duration":445865,"SoundDuration":445865,"Delta":199339697},{"NoteNumber":67,"Velocity":45,"Duration":445865,"SoundDuration":445865,"Delta":199339697},{"NoteNumber":77,"Velocity":55,"Duration":111565,"SoundDuration":111565,"Delta":199450866},{"NoteNumber":75,"Velocity":56,"Duration":111565,"SoundDuration":111565,"Delta":199562431},{"NoteNumber":74,"Velocity":56,"Duration":111565,"SoundDuration":111565,"Delta":199673997},{"NoteNumber":75,"Velocity":59,"Duration":111565,"SoundDuration":111565,"Delta":199785563},{"NoteNumber":79,"Velocity":59,"Duration":111565,"SoundDuration":111565,"Delta":199897129},{"NoteNumber":77,"Velocity":54,"Duration":112368,"SoundDuration":112368,"Delta":200008694},{"NoteNumber":75,"Velocity":50,"Duration":123477,"SoundDuration":123477,"Delta":200121062},{"NoteNumber":74,"Velocity":59,"Duration":111168,"SoundDuration":111168,"Delta":200244539},{"NoteNumber":68,"Velocity":45,"Duration":444674,"SoundDuration":444674,"Delta":200244539},{"NoteNumber":58,"Velocity":38,"Duration":444674,"SoundDuration":444674,"Delta":200244539},{"NoteNumber":77,"Velocity":55,"Duration":111168,"SoundDuration":111168,"Delta":200355708},{"NoteNumber":80,"Velocity":62,"Duration":111168,"SoundDuration":111168,"Delta":200466877},{"NoteNumber":84,"Velocity":59,"Duration":111168,"SoundDuration":111168,"Delta":200578046},{"NoteNumber":82,"Velocity":62,"Duration":111168,"SoundDuration":111168,"Delta":200689214},{"NoteNumber":80,"Velocity":61,"Duration":111168,"SoundDuration":111168,"Delta":200800383},{"NoteNumber":79,"Velocity":56,"Duration":111965,"SoundDuration":111965,"Delta":200911552},{"NoteNumber":77,"Velocity":50,"Duration":124958,"SoundDuration":124958,"Delta":201023517},{"NoteNumber":75,"Velocity":59,"Duration":111168,"SoundDuration":111168,"Delta":201148475},{"NoteNumber":63,"Velocity":38,"Duration":445865,"SoundDuration":445865,"Delta":201148475},{"NoteNumber":67,"Velocity":45,"Duration":445865,"SoundDuration":445865,"Delta":201148475},{"NoteNumber":77,"Velocity":55,"Duration":111565,"SoundDuration":111565,"Delta":201259644},{"NoteNumber":75,"Velocity":56,"Duration":111565,"SoundDuration":111565,"Delta":201371210},{"NoteNumber":74,"Velocity":56,"Duration":111565,"SoundDuration":111565,"Delta":201482776},{"NoteNumber":75,"Velocity":59,"Duration":111565,"SoundDuration":111565,"Delta":201594341},{"NoteNumber":79,"Velocity":59,"Duration":111565,"SoundDuration":111565,"Delta":201705907},{"NoteNumber":77,"Velocity":54,"Duration":111565,"SoundDuration":111565,"Delta":201817473},{"NoteNumber":75,"Velocity":50,"Duration":122991,"SoundDuration":122991,"Delta":201929039},{"NoteNumber":74,"Velocity":59,"Duration":111168,"SoundDuration":111168,"Delta":202052030},{"NoteNumber":58,"Velocity":38,"Duration":444674,"SoundDuration":444674,"Delta":202052030},{"NoteNumber":68,"Velocity":45,"Duration":444674,"SoundDuration":444674,"Delta":202052030},{"NoteNumber":77,"Velocity":55,"Duration":111168,"SoundDuration":111168,"Delta":202163199},{"NoteNumber":80,"Velocity":62,"Duration":111168,"SoundDuration":111168,"Delta":202274367},{"NoteNumber":84,"Velocity":59,"Duration":111168,"SoundDuration":111168,"Delta":202385536},{"NoteNumber":82,"Velocity":62,"Duration":111168,"SoundDuration":111168,"Delta":202496705},{"NoteNumber":80,"Velocity":61,"Duration":111168,"SoundDuration":111168,"Delta":202607874},{"NoteNumber":79,"Velocity":56,"Duration":112368,"SoundDuration":112368,"Delta":202719042},{"NoteNumber":77,"Velocity":50,"Duration":123477,"SoundDuration":123477,"Delta":202831410},{"NoteNumber":75,"Velocity":59,"Duration":111168,"SoundDuration":111168,"Delta":202954887},{"NoteNumber":63,"Velocity":38,"Duration":445865,"SoundDuration":445865,"Delta":202954887},{"NoteNumber":67,"Velocity":45,"Duration":445865,"SoundDuration":445865,"Delta":202954887},{"NoteNumber":77,"Velocity":50,"Duration":111565,"SoundDuration":111565,"Delta":203066056},{"NoteNumber":74,"Velocity":56,"Duration":111565,"SoundDuration":111565,"Delta":203177622},{"NoteNumber":77,"Velocity":50,"Duration":111565,"SoundDuration":111565,"Delta":203289188},{"NoteNumber":75,"Velocity":56,"Duration":111565,"SoundDuration":111565,"Delta":203400753},{"NoteNumber":77,"Velocity":51,"Duration":111565,"SoundDuration":111565,"Delta":203512319},{"NoteNumber":74,"Velocity":54,"Duration":116568,"SoundDuration":116568,"Delta":203623885},{"NoteNumber":77,"Velocity":50,"Duration":116568,"SoundDuration":116568,"Delta":203740453},{"NoteNumber":75,"Velocity":59,"Duration":932546,"SoundDuration":932546,"Delta":203857021},{"NoteNumber":51,"Velocity":36,"Duration":233136,"SoundDuration":233136,"Delta":204090158},{"NoteNumber":55,"Velocity":38,"Duration":233136,"SoundDuration":233136,"Delta":204323294},{"NoteNumber":58,"Velocity":35,"Duration":233136,"SoundDuration":233136,"Delta":204556431},{"NoteNumber":73,"Velocity":47,"Duration":125976,"SoundDuration":125976,"Delta":204789567},{"NoteNumber":63,"Velocity":36,"Duration":503905,"SoundDuration":503905,"Delta":204789567},{"NoteNumber":75,"Velocity":40,"Duration":125976,"SoundDuration":125976,"Delta":204915544},{"NoteNumber":72,"Velocity":44,"Duration":125976,"SoundDuration":125976,"Delta":205041520},{"NoteNumber":75,"Velocity":40,"Duration":125976,"SoundDuration":125976,"Delta":205167496},{"NoteNumber":73,"Velocity":44,"Duration":125976,"SoundDuration":125976,"Delta":205293472},{"NoteNumber":75,"Velocity":40,"Duration":125976,"SoundDuration":125976,"Delta":205419449},{"NoteNumber":72,"Velocity":43,"Duration":132380,"SoundDuration":132380,"Delta":205545425},{"NoteNumber":75,"Velocity":40,"Duration":132380,"SoundDuration":132380,"Delta":205677805},{"NoteNumber":73,"Velocity":47,"Duration":1125662,"SoundDuration":1125662,"Delta":205810185},{"NoteNumber":72,"Velocity":60,"Duration":110774,"SoundDuration":110774,"Delta":206935848},{"NoteNumber":73,"Velocity":55,"Duration":110774,"SoundDuration":110774,"Delta":207046623},{"NoteNumber":75,"Velocity":60,"Duration":83438,"SoundDuration":83438,"Delta":207157397},{"NoteNumber":75,"Velocity":61,"Duration":90187,"SoundDuration":90187,"Delta":207379900},{"NoteNumber":75,"Velocity":63,"Duration":109226,"SoundDuration":109226,"Delta":207620400},{"NoteNumber":80,"Velocity":58,"Duration":109226,"SoundDuration":109226,"Delta":207729626},{"NoteNumber":84,"Velocity":66,"Duration":109225,"SoundDuration":109225,"Delta":207838852},{"NoteNumber":80,"Velocity":58,"Duration":113593,"SoundDuration":113593,"Delta":207948078},{"NoteNumber":75,"Velocity":61,"Duration":664665,"SoundDuration":664665,"Delta":208061671},{"NoteNumber":60,"Velocity":51,"Duration":220766,"SoundDuration":220766,"Delta":208282438},{"NoteNumber":58,"Velocity":51,"Duration":223131,"SoundDuration":223131,"Delta":208503205},{"NoteNumber":73,"Velocity":57,"Duration":103777,"SoundDuration":103777,"Delta":208726337},{"NoteNumber":56,"Velocity":48,"Duration":207555,"SoundDuration":207555,"Delta":208726337},{"NoteNumber":72,"Velocity":54,"Duration":103777,"SoundDuration":103777,"Delta":208830114},{"NoteNumber":55,"Velocity":53,"Duration":229709,"SoundDuration":229709,"Delta":208933892},{"NoteNumber":70,"Velocity":53,"Duration":229708,"SoundDuration":229708,"Delta":209163601},{"NoteNumber":51,"Velocity":47,"Duration":172281,"SoundDuration":172281,"Delta":209163601},{"NoteNumber":56,"Velocity":49,"Duration":232955,"SoundDuration":232955,"Delta":209393310},{"NoteNumber":72,"Velocity":53,"Duration":177500,"SoundDuration":177500,"Delta":209626265},{"NoteNumber":51,"Velocity":45,"Duration":177500,"SoundDuration":177500,"Delta":209626265},{"NoteNumber":75,"Velocity":59,"Duration":219218,"SoundDuration":219218,"Delta":209862933},{"NoteNumber":58,"Velocity":49,"Duration":219218,"SoundDuration":219218,"Delta":209862933},{"NoteNumber":73,"Velocity":51,"Duration":56590,"SoundDuration":56590,"Delta":210082151},{"NoteNumber":51,"Velocity":45,"Duration":169772,"SoundDuration":169772,"Delta":210082151},{"NoteNumber":75,"Velocity":46,"Duration":56590,"SoundDuration":56590,"Delta":210138742},{"NoteNumber":73,"Velocity":51,"Duration":113181,"SoundDuration":113181,"Delta":210195333},{"NoteNumber":72,"Velocity":59,"Duration":245982,"SoundDuration":245982,"Delta":210308515},{"NoteNumber":56,"Velocity":49,"Duration":245982,"SoundDuration":245982,"Delta":210308515},{"NoteNumber":72,"Velocity":60,"Duration":108845,"SoundDuration":108845,"Delta":210554497},{"NoteNumber":73,"Velocity":55,"Duration":108845,"SoundDuration":108845,"Delta":210663343},{"NoteNumber":75,"Velocity":60,"Duration":84643,"SoundDuration":84643,"Delta":210772188},{"NoteNumber":77,"Velocity":57,"Duration":82266,"SoundDuration":82266,"Delta":210997905},{"NoteNumber":79,"Velocity":59,"Duration":82266,"SoundDuration":82266,"Delta":211217283},{"NoteNumber":80,"Velocity":66,"Duration":87101,"SoundDuration":87101,"Delta":211436662},{"NoteNumber":75,"Velocity":61,"Duration":666230,"SoundDuration":666230,"Delta":211668932},{"NoteNumber":60,"Velocity":51,"Duration":221549,"SoundDuration":221549,"Delta":211890481},{"NoteNumber":58,"Velocity":51,"Duration":223131,"SoundDuration":223131,"Delta":212112031},{"NoteNumber":73,"Velocity":57,"Duration":103777,"SoundDuration":103777,"Delta":212335162},{"NoteNumber":56,"Velocity":48,"Duration":207555,"SoundDuration":207555,"Delta":212335162},{"NoteNumber":72,"Velocity":54,"Duration":103777,"SoundDuration":103777,"Delta":212438940},{"NoteNumber":61,"Velocity":53,"Duration":228850,"SoundDuration":228850,"Delta":212542717},{"NoteNumber":70,"Velocity":43,"Duration":171637,"SoundDuration":171637,"Delta":212771568},{"NoteNumber":58,"Velocity":47,"Duration":171637,"SoundDuration":171637,"Delta":212771568},{"NoteNumber":63,"Velocity":49,"Duration":232090,"SoundDuration":232090,"Delta":213000418},{"NoteNumber":67,"Velocity":50,"Duration":177500,"SoundDuration":177500,"Delta":213232509},{"NoteNumber":51,"Velocity":45,"Duration":177500,"SoundDuration":177500,"Delta":213232509},{"NoteNumber":56,"Velocity":50,"Duration":234009,"SoundDuration":234009,"Delta":213469176},{"NoteNumber":68,"Velocity":60,"Duration":234009,"SoundDuration":234009,"Delta":213703186},{"NoteNumber":44,"Velocity":42,"Duration":234009,"SoundDuration":234009,"Delta":213703186},{"NoteNumber":77,"Velocity":63,"Duration":111168,"SoundDuration":111168,"Delta":213937195},{"NoteNumber":61,"Velocity":52,"Duration":111168,"SoundDuration":111168,"Delta":213937195},{"NoteNumber":56,"Velocity":44,"Duration":111168,"SoundDuration":111168,"Delta":213937195},{"NoteNumber":80,"Velocity":57,"Duration":111168,"SoundDuration":111168,"Delta":214048364},{"NoteNumber":77,"Velocity":63,"Duration":111168,"SoundDuration":111168,"Delta":214159533},{"NoteNumber":61,"Velocity":45,"Duration":111168,"SoundDuration":111168,"Delta":214159533},{"NoteNumber":56,"Velocity":37,"Duration":111168,"SoundDuration":111168,"Delta":214159533},{"NoteNumber":80,"Velocity":56,"Duration":111168,"SoundDuration":111168,"Delta":214270701},{"NoteNumber":75,"Velocity":63,"Duration":229709,"SoundDuration":229709,"Delta":214381870},{"NoteNumber":56,"Velocity":43,"Duration":114854,"SoundDuration":114854,"Delta":214381870},{"NoteNumber":60,"Velocity":51,"Duration":114854,"SoundDuration":114854,"Delta":214381870},{"NoteNumber":56,"Velocity":36,"Duration":114854,"SoundDuration":114854,"Delta":214611579},{"NoteNumber":60,"Velocity":44,"Duration":114854,"SoundDuration":114854,"Delta":214611579},{"NoteNumber":73,"Velocity":63,"Duration":111168,"SoundDuration":111168,"Delta":214841288},{"NoteNumber":65,"Velocity":52,"Duration":111168,"SoundDuration":111168,"Delta":214841288},{"NoteNumber":56,"Velocity":44,"Duration":111168,"SoundDuration":111168,"Delta":214841288},{"NoteNumber":80,"Velocity":57,"Duration":111168,"SoundDuration":111168,"Delta":214952457},{"NoteNumber":73,"Velocity":63,"Duration":111168,"SoundDuration":111168,"Delta":215063626},{"NoteNumber":65,"Velocity":45,"Duration":111168,"SoundDuration":111168,"Delta":215063626},{"NoteNumber":56,"Velocity":37,"Duration":111168,"SoundDuration":111168,"Delta":215063626},{"NoteNumber":80,"Velocity":56,"Duration":111168,"SoundDuration":111168,"Delta":215174794},{"NoteNumber":72,"Velocity":63,"Duration":229709,"SoundDuration":229709,"Delta":215285963},{"NoteNumber":56,"Velocity":43,"Duration":114854,"SoundDuration":114854,"Delta":215285963},{"NoteNumber":63,"Velocity":51,"Duration":114854,"SoundDuration":114854,"Delta":215285963},{"NoteNumber":56,"Velocity":36,"Duration":114854,"SoundDuration":114854,"Delta":215515672},{"NoteNumber":63,"Velocity":44,"Duration":114854,"SoundDuration":114854,"Delta":215515672},{"NoteNumber":77,"Velocity":63,"Duration":111168,"SoundDuration":111168,"Delta":215745381},{"NoteNumber":61,"Velocity":52,"Duration":111168,"SoundDuration":111168,"Delta":215745381},{"NoteNumber":56,"Velocity":44,"Duration":111168,"SoundDuration":111168,"Delta":215745381},{"NoteNumber":80,"Velocity":57,"Duration":111168,"SoundDuration":111168,"Delta":215856550},{"NoteNumber":77,"Velocity":63,"Duration":111168,"SoundDuration":111168,"Delta":215967719},{"NoteNumber":61,"Velocity":45,"Duration":111168,"SoundDuration":111168,"Delta":215967719},{"NoteNumber":56,"Velocity":37,"Duration":111168,"SoundDuration":111168,"Delta":215967719},{"NoteNumber":80,"Velocity":56,"Duration":111168,"SoundDuration":111168,"Delta":216078887},{"NoteNumber":75,"Velocity":63,"Duration":229709,"SoundDuration":229709,"Delta":216190056},{"NoteNumber":56,"Velocity":43,"Duration":229709,"SoundDuration":229709,"Delta":216190056},{"NoteNumber":60,"Velocity":51,"Duration":229709,"SoundDuration":229709,"Delta":216190056},{"NoteNumber":50,"Velocity":44,"Duration":457688,"SoundDuration":457688,"Delta":217095737},{"NoteNumber":58,"Velocity":51,"Duration":457688,"SoundDuration":457688,"Delta":217095737},{"NoteNumber":70,"Velocity":59,"Duration":111565,"SoundDuration":111565,"Delta":217207303},{"NoteNumber":69,"Velocity":66,"Duration":111565,"SoundDuration":111565,"Delta":217318869},{"NoteNumber":70,"Velocity":58,"Duration":122991,"SoundDuration":122991,"Delta":217430434},{"NoteNumber":77,"Velocity":67,"Duration":230556,"SoundDuration":230556,"Delta":217553426},{"NoteNumber":70,"Velocity":63,"Duration":115278,"SoundDuration":115278,"Delta":217783982},{"NoteNumber":50,"Velocity":44,"Duration":457688,"SoundDuration":457688,"Delta":218014539},{"NoteNumber":58,"Velocity":51,"Duration":457688,"SoundDuration":457688,"Delta":218014539},{"NoteNumber":68,"Velocity":59,"Duration":111565,"SoundDuration":111565,"Delta":218126104},{"NoteNumber":67,"Velocity":66,"Duration":111565,"SoundDuration":111565,"Delta":218237670},{"NoteNumber":68,"Velocity":58,"Duration":122991,"SoundDuration":122991,"Delta":218349236},{"NoteNumber":77,"Velocity":67,"Duration":230556,"SoundDuration":230556,"Delta":218472227},{"NoteNumber":68,"Velocity":63,"Duration":115278,"SoundDuration":115278,"Delta":218702784},{"NoteNumber":67,"Velocity":68,"Duration":112440,"SoundDuration":112440,"Delta":218933340},{"NoteNumber":51,"Velocity":48,"Duration":224496,"SoundDuration":224496,"Delta":218933340},{"NoteNumber":75,"Velocity":59,"Duration":112055,"SoundDuration":112055,"Delta":219045781},{"NoteNumber":68,"Velocity":65,"Duration":111735,"SoundDuration":111735,"Delta":219157837},{"NoteNumber":53,"Velocity":48,"Duration":223152,"SoundDuration":223152,"Delta":219157837},{"NoteNumber":75,"Velocity":59,"Duration":111416,"SoundDuration":111416,"Delta":219269572},{"NoteNumber":70,"Velocity":67,"Duration":111020,"SoundDuration":111020,"Delta":219380989},{"NoteNumber":55,"Velocity":48,"Duration":221727,"SoundDuration":221727,"Delta":219380989},{"NoteNumber":75,"Velocity":59,"Duration":110706,"SoundDuration":110706,"Delta":219492010},{"NoteNumber":72,"Velocity":67,"Duration":110383,"SoundDuration":110383,"Delta":219602716},{"NoteNumber":56,"Velocity":56,"Duration":230937,"SoundDuration":230937,"Delta":219602716},{"NoteNumber":75,"Velocity":59,"Duration":120553,"SoundDuration":120553,"Delta":219713100},{"NoteNumber":73,"Velocity":72,"Duration":113593,"SoundDuration":113593,"Delta":219833654},{"NoteNumber":58,"Velocity":61,"Duration":227186,"SoundDuration":227186,"Delta":219833654},{"NoteNumber":75,"Velocity":59,"Duration":113593,"SoundDuration":113593,"Delta":219947247},{"NoteNumber":72,"Velocity":65,"Duration":113593,"SoundDuration":113593,"Delta":220060840},{"NoteNumber":56,"Velocity":51,"Duration":227186,"SoundDuration":227186,"Delta":220060840},{"NoteNumber":75,"Velocity":59,"Duration":113593,"SoundDuration":113593,"Delta":220174434},{"NoteNumber":73,"Velocity":67,"Duration":113593,"SoundDuration":113593,"Delta":220288027},{"NoteNumber":58,"Velocity":58,"Duration":227186,"SoundDuration":227186,"Delta":220288027},{"NoteNumber":75,"Velocity":59,"Duration":113593,"SoundDuration":113593,"Delta":220401620},{"NoteNumber":70,"Velocity":65,"Duration":113593,"SoundDuration":113593,"Delta":220515213},{"NoteNumber":55,"Velocity":51,"Duration":231037,"SoundDuration":231037,"Delta":220515213},{"NoteNumber":75,"Velocity":59,"Duration":117444,"SoundDuration":117444,"Delta":220628807},{"NoteNumber":72,"Velocity":69,"Duration":113288,"SoundDuration":113288,"Delta":220746251},{"NoteNumber":56,"Velocity":53,"Duration":226153,"SoundDuration":226153,"Delta":220746251},{"NoteNumber":80,"Velocity":59,"Duration":112865,"SoundDuration":112865,"Delta":220859540},{"NoteNumber":73,"Velocity":69,"Duration":112459,"SoundDuration":112459,"Delta":220972405},{"NoteNumber":58,"Velocity":58,"Duration":224595,"SoundDuration":224595,"Delta":220972405},{"NoteNumber":80,"Velocity":60,"Duration":112136,"SoundDuration":112136,"Delta":221084864},{"NoteNumber":75,"Velocity":71,"Duration":111735,"SoundDuration":111735,"Delta":221197001},{"NoteNumber":60,"Velocity":59,"Duration":223152,"SoundDuration":223152,"Delta":221197001},{"NoteNumber":80,"Velocity":61,"Duration":111416,"SoundDuration":111416,"Delta":221308736},{"NoteNumber":77,"Velocity":71,"Duration":111020,"SoundDuration":111020,"Delta":221420153},{"NoteNumber":61,"Velocity":59,"Duration":232768,"SoundDuration":232768,"Delta":221420153},{"NoteNumber":80,"Velocity":64,"Duration":121747,"SoundDuration":121747,"Delta":221531174},{"NoteNumber":78,"Velocity":73,"Duration":113593,"SoundDuration":113593,"Delta":221652922},{"NoteNumber":63,"Velocity":64,"Duration":227186,"SoundDuration":227186,"Delta":221652922},{"NoteNumber":80,"Velocity":64,"Duration":113593,"SoundDuration":113593,"Delta":221766515},{"NoteNumber":77,"Velocity":69,"Duration":113593,"SoundDuration":113593,"Delta":221880108},{"NoteNumber":61,"Velocity":56,"Duration":227186,"SoundDuration":227186,"Delta":221880108},{"NoteNumber":80,"Velocity":59,"Duration":113593,"SoundDuration":113593,"Delta":221993701},{"NoteNumber":78,"Velocity":73,"Duration":113593,"SoundDuration":113593,"Delta":222107295},{"NoteNumber":63,"Velocity":67,"Duration":227186,"SoundDuration":227186,"Delta":222107295},{"NoteNumber":80,"Velocity":64,"Duration":113593,"SoundDuration":113593,"Delta":222220888},{"NoteNumber":75,"Velocity":67,"Duration":113593,"SoundDuration":113593,"Delta":222334481},{"NoteNumber":60,"Velocity":57,"Duration":234678,"SoundDuration":234678,"Delta":222334481},{"NoteNumber":80,"Velocity":59,"Duration":121084,"SoundDuration":121084,"Delta":222448074},{"NoteNumber":61,"Velocity":71,"Duration":457688,"SoundDuration":457688,"Delta":222569159},{"NoteNumber":77,"Velocity":68,"Duration":111565,"SoundDuration":111565,"Delta":222680725},{"NoteNumber":80,"Velocity":75,"Duration":111565,"SoundDuration":111565,"Delta":222792291},{"NoteNumber":77,"Velocity":67,"Duration":122991,"SoundDuration":122991,"Delta":222903857},{"NoteNumber":85,"Velocity":80,"Duration":115278,"SoundDuration":115278,"Delta":223026848},{"NoteNumber":77,"Velocity":66,"Duration":115278,"SoundDuration":115278,"Delta":223142126},{"NoteNumber":80,"Velocity":73,"Duration":115278,"SoundDuration":115278,"Delta":223257404},{"NoteNumber":77,"Velocity":66,"Duration":115278,"SoundDuration":115278,"Delta":223372683},{"NoteNumber":68,"Velocity":71,"Duration":223131,"SoundDuration":223131,"Delta":223487961},{"NoteNumber":75,"Velocity":68,"Duration":111565,"SoundDuration":111565,"Delta":223599527},{"NoteNumber":85,"Velocity":75,"Duration":111565,"SoundDuration":111565,"Delta":223711092},{"NoteNumber":75,"Velocity":67,"Duration":122991,"SoundDuration":122991,"Delta":223822658},{"NoteNumber":69,"Velocity":74,"Duration":223131,"SoundDuration":223131,"Delta":223945649},{"NoteNumber":75,"Velocity":68,"Duration":111565,"SoundDuration":111565,"Delta":224057215},{"NoteNumber":84,"Velocity":75,"Duration":111565,"SoundDuration":111565,"Delta":224168781},{"NoteNumber":75,"Velocity":67,"Duration":122991,"SoundDuration":122991,"Delta":224280347},{"NoteNumber":70,"Velocity":80,"Duration":457688,"SoundDuration":457688,"Delta":224403338},{"NoteNumber":73,"Velocity":68,"Duration":111565,"SoundDuration":111565,"Delta":224514904},{"NoteNumber":77,"Velocity":75,"Duration":111565,"SoundDuration":111565,"Delta":224626469},{"NoteNumber":73,"Velocity":67,"Duration":122991,"SoundDuration":122991,"Delta":224738035},{"NoteNumber":82,"Velocity":79,"Duration":115278,"SoundDuration":115278,"Delta":224861026},{"NoteNumber":73,"Velocity":66,"Duration":115278,"SoundDuration":115278,"Delta":224976305},{"NoteNumber":77,"Velocity":73,"Duration":115278,"SoundDuration":115278,"Delta":225091583},{"NoteNumber":73,"Velocity":66,"Duration":115278,"SoundDuration":115278,"Delta":225206861},{"NoteNumber":65,"Velocity":71,"Duration":223131,"SoundDuration":223131,"Delta":225322139},{"NoteNumber":72,"Velocity":68,"Duration":111565,"SoundDuration":111565,"Delta":225433705},{"NoteNumber":82,"Velocity":75,"Duration":111565,"SoundDuration":111565,"Delta":225545271},{"NoteNumber":72,"Velocity":67,"Duration":122991,"SoundDuration":122991,"Delta":225656837},{"NoteNumber":65,"Velocity":74,"Duration":224904,"SoundDuration":224904,"Delta":225779828},{"NoteNumber":71,"Velocity":68,"Duration":112452,"SoundDuration":112452,"Delta":225892280},{"NoteNumber":80,"Velocity":75,"Duration":112452,"SoundDuration":112452,"Delta":226004732},{"NoteNumber":71,"Velocity":67,"Duration":122991,"SoundDuration":122991,"Delta":226117185},{"NoteNumber":66,"Velocity":71,"Duration":226535,"SoundDuration":226535,"Delta":226240176},{"NoteNumber":70,"Velocity":68,"Duration":113267,"SoundDuration":113267,"Delta":226353443},{"NoteNumber":80,"Velocity":75,"Duration":113267,"SoundDuration":113267,"Delta":226466711},{"NoteNumber":70,"Velocity":67,"Duration":122991,"SoundDuration":122991,"Delta":226579978},{"NoteNumber":63,"Velocity":74,"Duration":227359,"SoundDuration":227359,"Delta":226702970},{"NoteNumber":70,"Velocity":68,"Duration":113679,"SoundDuration":113679,"Delta":226816649},{"NoteNumber":78,"Velocity":75,"Duration":113679,"SoundDuration":113679,"Delta":226930329},{"NoteNumber":70,"Velocity":67,"Duration":122991,"SoundDuration":122991,"Delta":227044008},{"NoteNumber":60,"Velocity":71,"Duration":226535,"SoundDuration":226535,"Delta":227166999},{"NoteNumber":68,"Velocity":68,"Duration":113267,"SoundDuration":113267,"Delta":227280267},{"NoteNumber":78,"Velocity":75,"Duration":113267,"SoundDuration":113267,"Delta":227393534},{"NoteNumber":68,"Velocity":67,"Duration":122991,"SoundDuration":122991,"Delta":227506802},{"NoteNumber":61,"Velocity":74,"Duration":226535,"SoundDuration":226535,"Delta":227629793},{"NoteNumber":68,"Velocity":68,"Duration":113267,"SoundDuration":113267,"Delta":227743061},{"NoteNumber":77,"Velocity":75,"Duration":113267,"SoundDuration":113267,"Delta":227856328},{"NoteNumber":68,"Velocity":67,"Duration":122991,"SoundDuration":122991,"Delta":227969596},{"NoteNumber":58,"Velocity":71,"Duration":226535,"SoundDuration":226535,"Delta":228092587},{"NoteNumber":66,"Velocity":68,"Duration":113267,"SoundDuration":113267,"Delta":228205854},{"NoteNumber":77,"Velocity":75,"Duration":113267,"SoundDuration":113267,"Delta":228319122},{"NoteNumber":66,"Velocity":67,"Duration":122991,"SoundDuration":122991,"Delta":228432389},{"NoteNumber":60,"Velocity":74,"Duration":226535,"SoundDuration":226535,"Delta":228555381},{"NoteNumber":66,"Velocity":68,"Duration":113267,"SoundDuration":113267,"Delta":228668648},{"NoteNumber":75,"Velocity":75,"Duration":113267,"SoundDuration":113267,"Delta":228781916},{"NoteNumber":66,"Velocity":67,"Duration":122991,"SoundDuration":122991,"Delta":228895183},{"NoteNumber":57,"Velocity":71,"Duration":227359,"SoundDuration":227359,"Delta":229018174},{"NoteNumber":65,"Velocity":68,"Duration":113679,"SoundDuration":113679,"Delta":229131854},{"NoteNumber":75,"Velocity":74,"Duration":113679,"SoundDuration":113679,"Delta":229245533},{"NoteNumber":65,"Velocity":66,"Duration":122991,"SoundDuration":122991,"Delta":229359213},{"NoteNumber":58,"Velocity":72,"Duration":228188,"SoundDuration":228188,"Delta":229482204},{"NoteNumber":65,"Velocity":66,"Duration":114094,"SoundDuration":114094,"Delta":229596299},{"NoteNumber":73,"Velocity":72,"Duration":114094,"SoundDuration":114094,"Delta":229710393},{"NoteNumber":65,"Velocity":63,"Duration":122991,"SoundDuration":122991,"Delta":229824488},{"NoteNumber":55,"Velocity":67,"Duration":227359,"SoundDuration":227359,"Delta":229947479},{"NoteNumber":63,"Velocity":63,"Duration":113679,"SoundDuration":113679,"Delta":230061158},{"NoteNumber":73,"Velocity":69,"Duration":113679,"SoundDuration":113679,"Delta":230174838},{"NoteNumber":63,"Velocity":62,"Duration":122991,"SoundDuration":122991,"Delta":230288517},{"NoteNumber":56,"Velocity":68,"Duration":228188,"SoundDuration":228188,"Delta":230411509},{"NoteNumber":63,"Velocity":62,"Duration":114094,"SoundDuration":114094,"Delta":230525603},{"NoteNumber":72,"Velocity":68,"Duration":114094,"SoundDuration":114094,"Delta":230639698},{"NoteNumber":63,"Velocity":59,"Duration":122991,"SoundDuration":122991,"Delta":230753792},{"NoteNumber":53,"Velocity":63,"Duration":227359,"SoundDuration":227359,"Delta":230876783},{"NoteNumber":62,"Velocity":59,"Duration":113679,"SoundDuration":113679,"Delta":230990463},{"NoteNumber":71,"Velocity":66,"Duration":113679,"SoundDuration":113679,"Delta":231104142},{"NoteNumber":62,"Velocity":58,"Duration":122991,"SoundDuration":122991,"Delta":231217822},{"NoteNumber":56,"Velocity":65,"Duration":225716,"SoundDuration":225716,"Delta":231340813},{"NoteNumber":62,"Velocity":59,"Duration":112858,"SoundDuration":112858,"Delta":231453671},{"NoteNumber":71,"Velocity":66,"Duration":112858,"SoundDuration":112858,"Delta":231566530},{"NoteNumber":62,"Velocity":58,"Duration":122991,"SoundDuration":122991,"Delta":231679388},{"NoteNumber":59,"Velocity":62,"Duration":223131,"SoundDuration":223131,"Delta":231802379},{"NoteNumber":62,"Velocity":59,"Duration":111565,"SoundDuration":111565,"Delta":231913945},{"NoteNumber":71,"Velocity":66,"Duration":111565,"SoundDuration":111565,"Delta":232025511},{"NoteNumber":62,"Velocity":57,"Duration":122991,"SoundDuration":122991,"Delta":232137076},{"NoteNumber":56,"Velocity":65,"Duration":223131,"SoundDuration":223131,"Delta":232260068},{"NoteNumber":62,"Velocity":58,"Duration":111565,"SoundDuration":111565,"Delta":232371633},{"NoteNumber":71,"Velocity":66,"Duration":111565,"SoundDuration":111565,"Delta":232483199},{"NoteNumber":62,"Velocity":57,"Duration":122991,"SoundDuration":122991,"Delta":232594765},{"NoteNumber":53,"Velocity":62,"Duration":223131,"SoundDuration":223131,"Delta":232717756},{"NoteNumber":62,"Velocity":58,"Duration":111565,"SoundDuration":111565,"Delta":232829322},{"NoteNumber":71,"Velocity":65,"Duration":111565,"SoundDuration":111565,"Delta":232940888},{"NoteNumber":62,"Velocity":57,"Duration":122991,"SoundDuration":122991,"Delta":233052453},{"NoteNumber":56,"Velocity":64,"Duration":223131,"SoundDuration":223131,"Delta":233175445},{"NoteNumber":62,"Velocity":58,"Duration":111565,"SoundDuration":111565,"Delta":233287010},{"NoteNumber":71,"Velocity":65,"Duration":111565,"SoundDuration":111565,"Delta":233398576},{"NoteNumber":62,"Velocity":57,"Duration":122991,"SoundDuration":122991,"Delta":233510142},{"NoteNumber":59,"Velocity":61,"Duration":223131,"SoundDuration":223131,"Delta":233633133},{"NoteNumber":62,"Velocity":58,"Duration":111565,"SoundDuration":111565,"Delta":233744699},{"NoteNumber":71,"Velocity":65,"Duration":111565,"SoundDuration":111565,"Delta":233856265},{"NoteNumber":62,"Velocity":56,"Duration":122991,"SoundDuration":122991,"Delta":233967830},{"NoteNumber":56,"Velocity":64,"Duration":223131,"SoundDuration":223131,"Delta":234090822},{"NoteNumber":62,"Velocity":57,"Duration":111565,"SoundDuration":111565,"Delta":234202387},{"NoteNumber":71,"Velocity":65,"Duration":111565,"SoundDuration":111565,"Delta":234313953},{"NoteNumber":62,"Velocity":56,"Duration":135244,"SoundDuration":135244,"Delta":234425519},{"NoteNumber":39,"Velocity":48,"Duration":226363,"SoundDuration":226363,"Delta":234560764},{"NoteNumber":51,"Velocity":54,"Duration":226363,"SoundDuration":226363,"Delta":234560764},{"NoteNumber":61,"Velocity":51,"Duration":113181,"SoundDuration":113181,"Delta":234673946},{"NoteNumber":70,"Velocity":57,"Duration":113182,"SoundDuration":113182,"Delta":234787128},{"NoteNumber":61,"Velocity":49,"Duration":122991,"SoundDuration":122991,"Delta":234900310},{"NoteNumber":55,"Velocity":56,"Duration":226363,"SoundDuration":226363,"Delta":235023301},{"NoteNumber":61,"Velocity":50,"Duration":113181,"SoundDuration":113181,"Delta":235136483},{"NoteNumber":70,"Velocity":57,"Duration":113182,"SoundDuration":113182,"Delta":235249665},{"NoteNumber":61,"Velocity":49,"Duration":122991,"SoundDuration":122991,"Delta":235362847},{"NoteNumber":58,"Velocity":54,"Duration":228015,"SoundDuration":228015,"Delta":235485838},{"NoteNumber":61,"Velocity":50,"Duration":114007,"SoundDuration":114007,"Delta":235599846},{"NoteNumber":70,"Velocity":57,"Duration":114007,"SoundDuration":114007,"Delta":235713854},{"NoteNumber":61,"Velocity":49,"Duration":122991,"SoundDuration":122991,"Delta":235827861},{"NoteNumber":55,"Velocity":55,"Duration":228850,"SoundDuration":228850,"Delta":235950853},{"NoteNumber":61,"Velocity":50,"Duration":114425,"SoundDuration":114425,"Delta":236065278},{"NoteNumber":70,"Velocity":56,"Duration":114425,"SoundDuration":114425,"Delta":236179703},{"NoteNumber":61,"Velocity":49,"Duration":122991,"SoundDuration":122991,"Delta":236294128},{"NoteNumber":39,"Velocity":47,"Duration":229709,"SoundDuration":229709,"Delta":236417120},{"NoteNumber":51,"Velocity":53,"Duration":229709,"SoundDuration":229709,"Delta":236417120},{"NoteNumber":61,"Velocity":49,"Duration":114854,"SoundDuration":114854,"Delta":236531974},{"NoteNumber":70,"Velocity":54,"Duration":114854,"SoundDuration":114854,"Delta":236646829},{"NoteNumber":61,"Velocity":47,"Duration":128567,"SoundDuration":128567,"Delta":236761683},{"NoteNumber":55,"Velocity":52,"Duration":231410,"SoundDuration":231410,"Delta":236890251},{"NoteNumber":61,"Velocity":46,"Duration":115705,"SoundDuration":115705,"Delta":237005956},{"NoteNumber":70,"Velocity":52,"Duration":115704,"SoundDuration":115704,"Delta":237121661},{"NoteNumber":61,"Velocity":44,"Duration":131821,"SoundDuration":131821,"Delta":237237366},{"NoteNumber":58,"Velocity":47,"Duration":240307,"SoundDuration":240307,"Delta":237369188},{"NoteNumber":61,"Velocity":44,"Duration":120153,"SoundDuration":120153,"Delta":237489341},{"NoteNumber":70,"Velocity":49,"Duration":120153,"SoundDuration":120153,"Delta":237609495},{"NoteNumber":61,"Velocity":42,"Duration":129072,"SoundDuration":129072,"Delta":237729649},{"NoteNumber":55,"Velocity":47,"Duration":256803,"SoundDuration":256803,"Delta":237858721},{"NoteNumber":61,"Velocity":42,"Duration":130717,"SoundDuration":130717,"Delta":237984807},{"NoteNumber":70,"Velocity":47,"Duration":135398,"SoundDuration":135398,"Delta":238115524},{"NoteNumber":61,"Velocity":40,"Duration":200080,"SoundDuration":200080,"Delta":238250923},{"NoteNumber":39,"Velocity":38,"Duration":516173,"SoundDuration":516173,"Delta":238451003},{"NoteNumber":51,"Velocity":43,"Duration":516173,"SoundDuration":516173,"Delta":238451003},{"NoteNumber":60,"Velocity":51,"Duration":110774,"SoundDuration":110774,"Delta":239999523},{"NoteNumber":61,"Velocity":46,"Duration":110774,"SoundDuration":110774,"Delta":240110298},{"NoteNumber":63,"Velocity":51,"Duration":83081,"SoundDuration":83081,"Delta":240221073},{"NoteNumber":63,"Velocity":51,"Duration":83081,"SoundDuration":83081,"Delta":240442622},{"NoteNumber":63,"Velocity":53,"Duration":85818,"SoundDuration":85818,"Delta":240664172},{"NoteNumber":68,"Velocity":58,"Duration":89087,"SoundDuration":89087,"Delta":240893022},{"NoteNumber":63,"Velocity":51,"Duration":664665,"SoundDuration":664665,"Delta":241130590},{"NoteNumber":48,"Velocity":43,"Duration":220766,"SoundDuration":220766,"Delta":241351357},{"NoteNumber":46,"Velocity":43,"Duration":223131,"SoundDuration":223131,"Delta":241572124},{"NoteNumber":61,"Velocity":48,"Duration":103777,"SoundDuration":103777,"Delta":241795255},{"NoteNumber":44,"Velocity":40,"Duration":207555,"SoundDuration":207555,"Delta":241795255},{"NoteNumber":60,"Velocity":45,"Duration":103777,"SoundDuration":103777,"Delta":241899033},{"NoteNumber":58,"Velocity":51,"Duration":459417,"SoundDuration":459417,"Delta":242002810},{"NoteNumber":43,"Velocity":45,"Duration":229709,"SoundDuration":229709,"Delta":242002810},{"NoteNumber":39,"Velocity":39,"Duration":172281,"SoundDuration":172281,"Delta":242232519},{"NoteNumber":60,"Velocity":50,"Duration":466376,"SoundDuration":466376,"Delta":242462228},{"NoteNumber":44,"Velocity":41,"Duration":229709,"SoundDuration":229709,"Delta":242462228},{"NoteNumber":39,"Velocity":38,"Duration":177500,"SoundDuration":177500,"Delta":242691937},{"NoteNumber":63,"Velocity":50,"Duration":219218,"SoundDuration":219218,"Delta":242928605},{"NoteNumber":46,"Velocity":41,"Duration":219218,"SoundDuration":219218,"Delta":242928605},{"NoteNumber":61,"Velocity":43,"Duration":56590,"SoundDuration":56590,"Delta":243147823},{"NoteNumber":39,"Velocity":38,"Duration":169772,"SoundDuration":169772,"Delta":243147823},{"NoteNumber":63,"Velocity":39,"Duration":56590,"SoundDuration":56590,"Delta":243204414},{"NoteNumber":61,"Velocity":43,"Duration":113181,"SoundDuration":113181,"Delta":243261005},{"NoteNumber":60,"Velocity":50,"Duration":245982,"SoundDuration":245982,"Delta":243374187},{"NoteNumber":44,"Velocity":41,"Duration":245982,"SoundDuration":245982,"Delta":243374187},{"NoteNumber":60,"Velocity":51,"Duration":108845,"SoundDuration":108845,"Delta":243620169},{"NoteNumber":61,"Velocity":46,"Duration":108845,"SoundDuration":108845,"Delta":243729015},{"NoteNumber":63,"Velocity":51,"Duration":83736,"SoundDuration":83736,"Delta":243837860},{"NoteNumber":63,"Velocity":50,"Duration":82556,"SoundDuration":82556,"Delta":244061158},{"NoteNumber":63,"Velocity":54,"Duration":83973,"SoundDuration":83973,"Delta":244281309},{"NoteNumber":68,"Velocity":56,"Duration":87101,"SoundDuration":87101,"Delta":244505239},{"NoteNumber":63,"Velocity":51,"Duration":666230,"SoundDuration":666230,"Delta":244737509},{"NoteNumber":48,"Velocity":43,"Duration":221549,"SoundDuration":221549,"Delta":244959059},{"NoteNumber":46,"Velocity":43,"Duration":223131,"SoundDuration":223131,"Delta":245180608},{"NoteNumber":61,"Velocity":48,"Duration":103777,"SoundDuration":103777,"Delta":245403740},{"NoteNumber":44,"Velocity":40,"Duration":207555,"SoundDuration":207555,"Delta":245403740},{"NoteNumber":60,"Velocity":45,"Duration":103777,"SoundDuration":103777,"Delta":245507517},{"NoteNumber":58,"Velocity":51,"Duration":228850,"SoundDuration":228850,"Delta":245611295},{"NoteNumber":49,"Velocity":45,"Duration":228850,"SoundDuration":228850,"Delta":245611295},{"NoteNumber":61,"Velocity":43,"Duration":171637,"SoundDuration":171637,"Delta":245840145},{"NoteNumber":46,"Velocity":39,"Duration":171637,"SoundDuration":171637,"Delta":245840145},{"NoteNumber":55,"Velocity":50,"Duration":228850,"SoundDuration":228850,"Delta":246068996},{"NoteNumber":51,"Velocity":41,"Duration":228850,"SoundDuration":228850,"Delta":246068996},{"NoteNumber":58,"Velocity":42,"Duration":177500,"SoundDuration":177500,"Delta":246297846},{"NoteNumber":39,"Velocity":38,"Duration":177500,"SoundDuration":177500,"Delta":246297846},{"NoteNumber":56,"Velocity":51,"Duration":468018,"SoundDuration":468018,"Delta":246534514},{"NoteNumber":44,"Velocity":42,"Duration":234009,"SoundDuration":234009,"Delta":246534514},{"NoteNumber":39,"Velocity":35,"Duration":234009,"SoundDuration":234009,"Delta":246768523},{"NoteNumber":32,"Velocity":39,"Duration":234009,"SoundDuration":234009,"Delta":247002533},{"NoteNumber":72,"Velocity":63,"Duration":110774,"SoundDuration":110774,"Delta":247236542},{"NoteNumber":73,"Velocity":57,"Duration":110774,"SoundDuration":110774,"Delta":247347317},{"NoteNumber":75,"Velocity":63,"Duration":83081,"SoundDuration":83081,"Delta":247458092},{"NoteNumber":75,"Velocity":64,"Duration":83081,"SoundDuration":83081,"Delta":247679641},{"NoteNumber":75,"Velocity":66,"Duration":85818,"SoundDuration":85818,"Delta":247901191},{"NoteNumber":87,"Velocity":82,"Duration":89087,"SoundDuration":89087,"Delta":248130041},{"NoteNumber":75,"Velocity":64,"Duration":664665,"SoundDuration":664665,"Delta":248367609},{"NoteNumber":60,"Velocity":53,"Duration":220766,"SoundDuration":220766,"Delta":248588376},{"NoteNumber":58,"Velocity":53,"Duration":223131,"SoundDuration":223131,"Delta":248809143},{"NoteNumber":73,"Velocity":59,"Duration":103777,"SoundDuration":103777,"Delta":249032274},{"NoteNumber":56,"Velocity":50,"Duration":207555,"SoundDuration":207555,"Delta":249032274},{"NoteNumber":72,"Velocity":56,"Duration":103777,"SoundDuration":103777,"Delta":249136052},{"NoteNumber":70,"Velocity":68,"Duration":229709,"SoundDuration":229709,"Delta":249239829},{"NoteNumber":55,"Velocity":55,"Duration":229709,"SoundDuration":229709,"Delta":249239829},{"NoteNumber":87,"Velocity":74,"Duration":228188,"SoundDuration":228188,"Delta":249469538},{"NoteNumber":51,"Velocity":49,"Duration":171141,"SoundDuration":171141,"Delta":249469538},{"NoteNumber":72,"Velocity":66,"Duration":228189,"SoundDuration":228189,"Delta":249697727},{"NoteNumber":56,"Velocity":51,"Duration":228189,"SoundDuration":228189,"Delta":249697727},{"NoteNumber":87,"Velocity":71,"Duration":236667,"SoundDuration":236667,"Delta":249925916},{"NoteNumber":51,"Velocity":47,"Duration":177500,"SoundDuration":177500,"Delta":249925916},{"NoteNumber":75,"Velocity":61,"Duration":219218,"SoundDuration":219218,"Delta":250162584},{"NoteNumber":58,"Velocity":51,"Duration":219218,"SoundDuration":219218,"Delta":250162584},{"NoteNumber":73,"Velocity":53,"Duration":56590,"SoundDuration":56590,"Delta":250381802},{"NoteNumber":51,"Velocity":47,"Duration":169772,"SoundDuration":169772,"Delta":250381802},{"NoteNumber":75,"Velocity":48,"Duration":56590,"SoundDuration":56590,"Delta":250438393},{"NoteNumber":73,"Velocity":53,"Duration":113181,"SoundDuration":113181,"Delta":250494984},{"NoteNumber":72,"Velocity":61,"Duration":245982,"SoundDuration":245982,"Delta":250608166},{"NoteNumber":56,"Velocity":51,"Duration":245982,"SoundDuration":245982,"Delta":250608166},{"NoteNumber":72,"Velocity":63,"Duration":108845,"SoundDuration":108845,"Delta":250854148},{"NoteNumber":73,"Velocity":57,"Duration":108845,"SoundDuration":108845,"Delta":250962994},{"NoteNumber":75,"Velocity":63,"Duration":83736,"SoundDuration":83736,"Delta":251071839},{"NoteNumber":75,"Velocity":61,"Duration":82556,"SoundDuration":82556,"Delta":251295137},{"NoteNumber":75,"Velocity":67,"Duration":83973,"SoundDuration":83973,"Delta":251515288},{"NoteNumber":87,"Velocity":82,"Duration":87101,"SoundDuration":87101,"Delta":251739218},{"NoteNumber":75,"Velocity":64,"Duration":666230,"SoundDuration":666230,"Delta":251971488},{"NoteNumber":60,"Velocity":53,"Duration":221549,"SoundDuration":221549,"Delta":252193038},{"NoteNumber":58,"Velocity":53,"Duration":223131,"SoundDuration":223131,"Delta":252414587},{"NoteNumber":73,"Velocity":59,"Duration":103777,"SoundDuration":103777,"Delta":252637719},{"NoteNumber":56,"Velocity":50,"Duration":207555,"SoundDuration":207555,"Delta":252637719},{"NoteNumber":72,"Velocity":56,"Duration":103777,"SoundDuration":103777,"Delta":252741496},{"NoteNumber":70,"Velocity":63,"Duration":228850,"SoundDuration":228850,"Delta":252845274},{"NoteNumber":61,"Velocity":55,"Duration":228850,"SoundDuration":228850,"Delta":252845274},{"NoteNumber":85,"Velocity":69,"Duration":171637,"SoundDuration":171637,"Delta":253074124},{"NoteNumber":58,"Velocity":49,"Duration":171637,"SoundDuration":171637,"Delta":253074124},{"NoteNumber":67,"Velocity":61,"Duration":228850,"SoundDuration":228850,"Delta":253302975},{"NoteNumber":63,"Velocity":51,"Duration":228850,"SoundDuration":228850,"Delta":253302975},{"NoteNumber":70,"Velocity":52,"Duration":177500,"SoundDuration":177500,"Delta":253531825},{"NoteNumber":51,"Velocity":47,"Duration":177500,"SoundDuration":177500,"Delta":253531825},{"NoteNumber":68,"Velocity":63,"Duration":468018,"SoundDuration":468018,"Delta":253768493},{"NoteNumber":56,"Velocity":52,"Duration":234009,"SoundDuration":234009,"Delta":253768493},{"NoteNumber":51,"Velocity":44,"Duration":234009,"SoundDuration":234009,"Delta":254002502},{"NoteNumber":44,"Velocity":49,"Duration":234009,"SoundDuration":234009,"Delta":254236512},{"NoteNumber":75,"Velocity":53,"Duration":222337,"SoundDuration":222337,"Delta":254470521},{"NoteNumber":77,"Velocity":59,"Duration":222337,"SoundDuration":222337,"Delta":254692859},{"NoteNumber":75,"Velocity":56,"Duration":222337,"SoundDuration":222337,"Delta":254915196},{"NoteNumber":74,"Velocity":56,"Duration":171637,"SoundDuration":171637,"Delta":255137534},{"NoteNumber":83,"Velocity":62,"Duration":447241,"SoundDuration":447241,"Delta":255366384},{"NoteNumber":68,"Velocity":34,"Duration":224904,"SoundDuration":224904,"Delta":255366384},{"NoteNumber":74,"Velocity":41,"Duration":224904,"SoundDuration":224904,"Delta":255366384},{"NoteNumber":75,"Velocity":45,"Duration":221411,"SoundDuration":221411,"Delta":255591289},{"NoteNumber":67,"Velocity":38,"Duration":222337,"SoundDuration":222337,"Delta":255591289},{"NoteNumber":81,"Velocity":53,"Duration":222337,"SoundDuration":222337,"Delta":255813626},{"NoteNumber":82,"Velocity":53,"Duration":226775,"SoundDuration":226775,"Delta":256035964},{"NoteNumber":72,"Velocity":59,"Duration":216935,"SoundDuration":216935,"Delta":256262739},{"NoteNumber":73,"Velocity":61,"Duration":220767,"SoundDuration":220767,"Delta":256479674},{"NoteNumber":72,"Velocity":55,"Duration":220766,"SoundDuration":220766,"Delta":256700441},{"NoteNumber":71,"Velocity":55,"Duration":170389,"SoundDuration":170389,"Delta":256921208},{"NoteNumber":80,"Velocity":63,"Duration":451482,"SoundDuration":451482,"Delta":257148395},{"NoteNumber":65,"Velocity":34,"Duration":230715,"SoundDuration":230715,"Delta":257148395},{"NoteNumber":71,"Velocity":41,"Duration":230715,"SoundDuration":230715,"Delta":257148395},{"NoteNumber":72,"Velocity":45,"Duration":438774,"SoundDuration":438774,"Delta":257379111},{"NoteNumber":63,"Velocity":38,"Duration":441533,"SoundDuration":441533,"Delta":257379111},{"NoteNumber":78,"Velocity":53,"Duration":220766,"SoundDuration":220766,"Delta":257599878},{"NoteNumber":79,"Velocity":53,"Duration":112773,"SoundDuration":112773,"Delta":257820645},{"NoteNumber":68,"Velocity":59,"Duration":216184,"SoundDuration":216184,"Delta":258046192},{"NoteNumber":70,"Velocity":61,"Duration":220767,"SoundDuration":220767,"Delta":258262377},{"NoteNumber":68,"Velocity":53,"Duration":222337,"SoundDuration":222337,"Delta":258483144},{"NoteNumber":67,"Velocity":53,"Duration":173423,"SoundDuration":173423,"Delta":258705481},{"NoteNumber":77,"Velocity":63,"Duration":447302,"SoundDuration":447302,"Delta":258936713},{"NoteNumber":61,"Velocity":34,"Duration":226535,"SoundDuration":226535,"Delta":258936713},{"NoteNumber":67,"Velocity":41,"Duration":226535,"SoundDuration":226535,"Delta":258936713},{"NoteNumber":68,"Velocity":45,"Duration":439694,"SoundDuration":439694,"Delta":259163248},{"NoteNumber":60,"Velocity":38,"Duration":441533,"SoundDuration":441533,"Delta":259163248},{"NoteNumber":74,"Velocity":56,"Duration":220766,"SoundDuration":220766,"Delta":259384015},{"NoteNumber":75,"Velocity":61,"Duration":113593,"SoundDuration":113593,"Delta":259604782},{"NoteNumber":75,"Velocity":64,"Duration":445214,"SoundDuration":445214,"Delta":259831968},{"NoteNumber":58,"Velocity":38,"Duration":450449,"SoundDuration":450449,"Delta":260051958},{"NoteNumber":65,"Velocity":45,"Duration":450449,"SoundDuration":450449,"Delta":260051958},{"NoteNumber":74,"Velocity":57,"Duration":225224,"SoundDuration":225224,"Delta":260277183},{"NoteNumber":80,"Velocity":61,"Duration":117527,"SoundDuration":117527,"Delta":260502408},{"NoteNumber":80,"Velocity":57,"Duration":467413,"SoundDuration":467413,"Delta":260737462},{"NoteNumber":63,"Velocity":38,"Duration":460405,"SoundDuration":460405,"Delta":260974673},{"NoteNumber":67,"Velocity":45,"Duration":460405,"SoundDuration":460405,"Delta":260974673},{"NoteNumber":79,"Velocity":49,"Duration":230202,"SoundDuration":230202,"Delta":261204875},{"NoteNumber":82,"Velocity":59,"Duration":230202,"SoundDuration":230202,"Delta":261435078},{"NoteNumber":75,"Velocity":56,"Duration":502042,"SoundDuration":502042,"Delta":261665280},{"NoteNumber":58,"Velocity":38,"Duration":543051,"SoundDuration":543051,"Delta":261905223},{"NoteNumber":65,"Velocity":45,"Duration":543051,"SoundDuration":543051,"Delta":261905223},{"NoteNumber":74,"Velocity":48,"Duration":280951,"SoundDuration":280951,"Delta":262167323},{"NoteNumber":80,"Velocity":51,"Duration":105356,"SoundDuration":105356,"Delta":262448275},{"NoteNumber":80,"Velocity":43,"Duration":2515391,"SoundDuration":2515391,"Delta":262729226},{"NoteNumber":63,"Velocity":35,"Duration":104094,"SoundDuration":104094,"Delta":263325403},{"NoteNumber":51,"Velocity":33,"Duration":124916,"SoundDuration":124916,"Delta":263741780},{"NoteNumber":39,"Velocity":33,"Duration":278862,"SoundDuration":278862,"Delta":264241447},{"NoteNumber":78,"Velocity":46,"Duration":364210,"SoundDuration":364210,"Delta":265244618},{"NoteNumber":79,"Velocity":53,"Duration":364210,"SoundDuration":364210,"Delta":265608828},{"NoteNumber":74,"Velocity":45,"Duration":406945,"SoundDuration":406945,"Delta":265973039},{"NoteNumber":77,"Velocity":50,"Duration":426378,"SoundDuration":426378,"Delta":266379984},{"NoteNumber":75,"Velocity":43,"Duration":435471,"SoundDuration":435471,"Delta":266806362},{"NoteNumber":75,"Velocity":43,"Duration":1221679,"SoundDuration":1221679,"Delta":267281422},{"NoteNumber":72,"Velocity":63,"Duration":110774,"SoundDuration":110774,"Delta":268614163},{"NoteNumber":73,"Velocity":57,"Duration":110774,"SoundDuration":110774,"Delta":268724937},{"NoteNumber":75,"Velocity":63,"Duration":83081,"SoundDuration":83081,"Delta":268835712},{"NoteNumber":75,"Velocity":64,"Duration":83081,"SoundDuration":83081,"Delta":269057262},{"NoteNumber":75,"Velocity":66,"Duration":85818,"SoundDuration":85818,"Delta":269278811},{"NoteNumber":87,"Velocity":82,"Duration":89087,"SoundDuration":89087,"Delta":269507662},{"NoteNumber":75,"Velocity":64,"Duration":664665,"SoundDuration":664665,"Delta":269745229},{"NoteNumber":60,"Velocity":53,"Duration":220766,"SoundDuration":220766,"Delta":269965996},{"NoteNumber":58,"Velocity":53,"Duration":223131,"SoundDuration":223131,"Delta":270186763},{"NoteNumber":73,"Velocity":59,"Duration":103777,"SoundDuration":103777,"Delta":270409895},{"NoteNumber":56,"Velocity":50,"Duration":207555,"SoundDuration":207555,"Delta":270409895},{"NoteNumber":72,"Velocity":56,"Duration":103777,"SoundDuration":103777,"Delta":270513672},{"NoteNumber":70,"Velocity":68,"Duration":229709,"SoundDuration":229709,"Delta":270617450},{"NoteNumber":55,"Velocity":55,"Duration":229709,"SoundDuration":229709,"Delta":270617450},{"NoteNumber":87,"Velocity":74,"Duration":229709,"SoundDuration":229709,"Delta":270847159},{"NoteNumber":51,"Velocity":49,"Duration":172281,"SoundDuration":172281,"Delta":270847159},{"NoteNumber":72,"Velocity":66,"Duration":229708,"SoundDuration":229708,"Delta":271076868},{"NoteNumber":56,"Velocity":51,"Duration":229708,"SoundDuration":229708,"Delta":271076868},{"NoteNumber":87,"Velocity":71,"Duration":236667,"SoundDuration":236667,"Delta":271306577},{"NoteNumber":51,"Velocity":47,"Duration":177500,"SoundDuration":177500,"Delta":271306577},{"NoteNumber":75,"Velocity":61,"Duration":219218,"SoundDuration":219218,"Delta":271543244},{"NoteNumber":58,"Velocity":51,"Duration":219218,"SoundDuration":219218,"Delta":271543244},{"NoteNumber":73,"Velocity":53,"Duration":56591,"SoundDuration":56591,"Delta":271762462},{"NoteNumber":51,"Velocity":47,"Duration":169773,"SoundDuration":169773,"Delta":271762462},{"NoteNumber":75,"Velocity":48,"Duration":56590,"SoundDuration":56590,"Delta":271819053},{"NoteNumber":73,"Velocity":53,"Duration":113181,"SoundDuration":113181,"Delta":271875644},{"NoteNumber":72,"Velocity":61,"Duration":245982,"SoundDuration":245982,"Delta":271988826},{"NoteNumber":56,"Velocity":51,"Duration":245982,"SoundDuration":245982,"Delta":271988826},{"NoteNumber":72,"Velocity":63,"Duration":108845,"SoundDuration":108845,"Delta":272234809},{"NoteNumber":73,"Velocity":57,"Duration":108845,"SoundDuration":108845,"Delta":272343654},{"NoteNumber":75,"Velocity":63,"Duration":83736,"SoundDuration":83736,"Delta":272452500},{"NoteNumber":75,"Velocity":61,"Duration":82556,"SoundDuration":82556,"Delta":272675797},{"NoteNumber":75,"Velocity":67,"Duration":83973,"SoundDuration":83973,"Delta":272895948},{"NoteNumber":87,"Velocity":82,"Duration":87101,"SoundDuration":87101,"Delta":273119879},{"NoteNumber":75,"Velocity":64,"Duration":666230,"SoundDuration":666230,"Delta":273352149},{"NoteNumber":60,"Velocity":53,"Duration":221549,"SoundDuration":221549,"Delta":273573698},{"NoteNumber":58,"Velocity":53,"Duration":223131,"SoundDuration":223131,"Delta":273795248},{"NoteNumber":73,"Velocity":59,"Duration":103777,"SoundDuration":103777,"Delta":274018379},{"NoteNumber":56,"Velocity":50,"Duration":207555,"SoundDuration":207555,"Delta":274018379},{"NoteNumber":72,"Velocity":56,"Duration":103777,"SoundDuration":103777,"Delta":274122157},{"NoteNumber":70,"Velocity":63,"Duration":228850,"SoundDuration":228850,"Delta":274225934},{"NoteNumber":61,"Velocity":55,"Duration":228850,"SoundDuration":228850,"Delta":274225934},{"NoteNumber":85,"Velocity":69,"Duration":171637,"SoundDuration":171637,"Delta":274454785},{"NoteNumber":58,"Velocity":49,"Duration":171637,"SoundDuration":171637,"Delta":274454785},{"NoteNumber":67,"Velocity":61,"Duration":228850,"SoundDuration":228850,"Delta":274683635},{"NoteNumber":63,"Velocity":51,"Duration":228850,"SoundDuration":228850,"Delta":274683635},{"NoteNumber":70,"Velocity":52,"Duration":177500,"SoundDuration":177500,"Delta":274912486},{"NoteNumber":51,"Velocity":47,"Duration":177500,"SoundDuration":177500,"Delta":274912486},{"NoteNumber":68,"Velocity":63,"Duration":468019,"SoundDuration":468019,"Delta":275149153},{"NoteNumber":56,"Velocity":52,"Duration":234009,"SoundDuration":234009,"Delta":275149153},{"NoteNumber":51,"Velocity":44,"Duration":234009,"SoundDuration":234009,"Delta":275383163},{"NoteNumber":44,"Velocity":49,"Duration":234009,"SoundDuration":234009,"Delta":275617172},{"NoteNumber":75,"Velocity":53,"Duration":222337,"SoundDuration":222337,"Delta":275851182},{"NoteNumber":77,"Velocity":59,"Duration":222337,"SoundDuration":222337,"Delta":276073519},{"NoteNumber":75,"Velocity":56,"Duration":222337,"SoundDuration":222337,"Delta":276295857},{"NoteNumber":74,"Velocity":56,"Duration":171637,"SoundDuration":171637,"Delta":276518194},{"NoteNumber":83,"Velocity":62,"Duration":457226,"SoundDuration":457226,"Delta":276747045},{"NoteNumber":74,"Velocity":41,"Duration":234889,"SoundDuration":234889,"Delta":276747045},{"NoteNumber":68,"Velocity":34,"Duration":234889,"SoundDuration":234889,"Delta":276747045},{"NoteNumber":67,"Velocity":38,"Duration":444675,"SoundDuration":444675,"Delta":276981934},{"NoteNumber":75,"Velocity":45,"Duration":441895,"SoundDuration":441895,"Delta":276981934},{"NoteNumber":81,"Velocity":53,"Duration":222337,"SoundDuration":222337,"Delta":277204271},{"NoteNumber":82,"Velocity":53,"Duration":226775,"SoundDuration":226775,"Delta":277426609},{"NoteNumber":72,"Velocity":59,"Duration":216935,"SoundDuration":216935,"Delta":277653384},{"NoteNumber":73,"Velocity":61,"Duration":220767,"SoundDuration":220767,"Delta":277870319},{"NoteNumber":72,"Velocity":55,"Duration":220766,"SoundDuration":220766,"Delta":278091086},{"NoteNumber":71,"Velocity":55,"Duration":170389,"SoundDuration":170389,"Delta":278311853},{"NoteNumber":80,"Velocity":63,"Duration":438300,"SoundDuration":438300,"Delta":278539040},{"NoteNumber":65,"Velocity":34,"Duration":217533,"SoundDuration":217533,"Delta":278539040},{"NoteNumber":71,"Velocity":41,"Duration":217533,"SoundDuration":217533,"Delta":278539040},{"NoteNumber":72,"Velocity":45,"Duration":438774,"SoundDuration":438774,"Delta":278756573},{"NoteNumber":63,"Velocity":38,"Duration":441533,"SoundDuration":441533,"Delta":278756573},{"NoteNumber":78,"Velocity":53,"Duration":220766,"SoundDuration":220766,"Delta":278977340},{"NoteNumber":79,"Velocity":53,"Duration":112773,"SoundDuration":112773,"Delta":279198107},{"NoteNumber":68,"Velocity":59,"Duration":216184,"SoundDuration":216184,"Delta":279423654},{"NoteNumber":70,"Velocity":61,"Duration":220767,"SoundDuration":220767,"Delta":279639839},{"NoteNumber":68,"Velocity":53,"Duration":222337,"SoundDuration":222337,"Delta":279860606},{"NoteNumber":67,"Velocity":53,"Duration":173423,"SoundDuration":173423,"Delta":280082943},{"NoteNumber":77,"Velocity":63,"Duration":447131,"SoundDuration":447131,"Delta":280314175},{"NoteNumber":61,"Velocity":34,"Duration":226363,"SoundDuration":226363,"Delta":280314175},{"NoteNumber":67,"Velocity":41,"Duration":226363,"SoundDuration":226363,"Delta":280314175},{"NoteNumber":60,"Velocity":38,"Duration":441533,"SoundDuration":441533,"Delta":280540539},{"NoteNumber":68,"Velocity":45,"Duration":439694,"SoundDuration":439694,"Delta":280540539},{"NoteNumber":74,"Velocity":56,"Duration":220766,"SoundDuration":220766,"Delta":280761306},{"NoteNumber":75,"Velocity":61,"Duration":113593,"SoundDuration":113593,"Delta":280982073},{"NoteNumber":75,"Velocity":64,"Duration":445214,"SoundDuration":445214,"Delta":281209259},{"NoteNumber":58,"Velocity":38,"Duration":450449,"SoundDuration":450449,"Delta":281429249},{"NoteNumber":65,"Velocity":45,"Duration":450449,"SoundDuration":450449,"Delta":281429249},{"NoteNumber":74,"Velocity":57,"Duration":225224,"SoundDuration":225224,"Delta":281654474},{"NoteNumber":80,"Velocity":61,"Duration":117527,"SoundDuration":117527,"Delta":281879699},{"NoteNumber":80,"Velocity":57,"Duration":467413,"SoundDuration":467413,"Delta":282114753},{"NoteNumber":63,"Velocity":38,"Duration":460405,"SoundDuration":460405,"Delta":282351964},{"NoteNumber":67,"Velocity":45,"Duration":460405,"SoundDuration":460405,"Delta":282351964},{"NoteNumber":79,"Velocity":49,"Duration":230202,"SoundDuration":230202,"Delta":282582166},{"NoteNumber":82,"Velocity":59,"Duration":230202,"SoundDuration":230202,"Delta":282812369},{"NoteNumber":75,"Velocity":56,"Duration":502042,"SoundDuration":502042,"Delta":283042571},{"NoteNumber":58,"Velocity":38,"Duration":543051,"SoundDuration":543051,"Delta":283282514},{"NoteNumber":65,"Velocity":45,"Duration":543051,"SoundDuration":543051,"Delta":283282514},{"NoteNumber":74,"Velocity":48,"Duration":280951,"SoundDuration":280951,"Delta":283544614},{"NoteNumber":80,"Velocity":51,"Duration":105356,"SoundDuration":105356,"Delta":283825566},{"NoteNumber":80,"Velocity":43,"Duration":2546100,"SoundDuration":2546100,"Delta":284106517},{"NoteNumber":63,"Velocity":35,"Duration":108069,"SoundDuration":108069,"Delta":284702694},{"NoteNumber":51,"Velocity":33,"Duration":130480,"SoundDuration":130480,"Delta":285134970},{"NoteNumber":39,"Velocity":33,"Duration":276395,"SoundDuration":276395,"Delta":285656891},{"NoteNumber":78,"Velocity":46,"Duration":364210,"SoundDuration":364210,"Delta":286652617},{"NoteNumber":79,"Velocity":53,"Duration":364210,"SoundDuration":364210,"Delta":287016828},{"NoteNumber":74,"Velocity":45,"Duration":406945,"SoundDuration":406945,"Delta":287381038},{"NoteNumber":77,"Velocity":50,"Duration":426378,"SoundDuration":426378,"Delta":287787983},{"NoteNumber":75,"Velocity":43,"Duration":435471,"SoundDuration":435471,"Delta":288214362},{"NoteNumber":75,"Velocity":43,"Duration":1458112,"SoundDuration":1458112,"Delta":288689421},{"NoteNumber":72,"Velocity":63,"Duration":110774,"SoundDuration":110774,"Delta":290280089},{"NoteNumber":73,"Velocity":57,"Duration":110774,"SoundDuration":110774,"Delta":290390864},{"NoteNumber":75,"Velocity":63,"Duration":83081,"SoundDuration":83081,"Delta":290501639},{"NoteNumber":75,"Velocity":64,"Duration":83081,"SoundDuration":83081,"Delta":290723188},{"NoteNumber":75,"Velocity":66,"Duration":85818,"SoundDuration":85818,"Delta":290944738},{"NoteNumber":87,"Velocity":82,"Duration":89087,"SoundDuration":89087,"Delta":291173588},{"NoteNumber":75,"Velocity":64,"Duration":664665,"SoundDuration":664665,"Delta":291411156},{"NoteNumber":60,"Velocity":53,"Duration":220766,"SoundDuration":220766,"Delta":291631923},{"NoteNumber":58,"Velocity":53,"Duration":223131,"SoundDuration":223131,"Delta":291852690},{"NoteNumber":73,"Velocity":59,"Duration":103777,"SoundDuration":103777,"Delta":292075821},{"NoteNumber":56,"Velocity":50,"Duration":207555,"SoundDuration":207555,"Delta":292075821},{"NoteNumber":72,"Velocity":56,"Duration":103777,"SoundDuration":103777,"Delta":292179599},{"NoteNumber":70,"Velocity":68,"Duration":229709,"SoundDuration":229709,"Delta":292283376},{"NoteNumber":55,"Velocity":55,"Duration":229709,"SoundDuration":229709,"Delta":292283376},{"NoteNumber":87,"Velocity":74,"Duration":229709,"SoundDuration":229709,"Delta":292513085},{"NoteNumber":51,"Velocity":49,"Duration":172281,"SoundDuration":172281,"Delta":292513085},{"NoteNumber":72,"Velocity":66,"Duration":229708,"SoundDuration":229708,"Delta":292742794},{"NoteNumber":56,"Velocity":51,"Duration":229708,"SoundDuration":229708,"Delta":292742794},{"NoteNumber":87,"Velocity":71,"Duration":236667,"SoundDuration":236667,"Delta":292972503},{"NoteNumber":51,"Velocity":47,"Duration":177500,"SoundDuration":177500,"Delta":292972503},{"NoteNumber":75,"Velocity":61,"Duration":219218,"SoundDuration":219218,"Delta":293209171},{"NoteNumber":58,"Velocity":51,"Duration":219218,"SoundDuration":219218,"Delta":293209171},{"NoteNumber":73,"Velocity":53,"Duration":56591,"SoundDuration":56591,"Delta":293428389},{"NoteNumber":51,"Velocity":47,"Duration":169773,"SoundDuration":169773,"Delta":293428389},{"NoteNumber":75,"Velocity":48,"Duration":56590,"SoundDuration":56590,"Delta":293484980},{"NoteNumber":73,"Velocity":53,"Duration":113181,"SoundDuration":113181,"Delta":293541571},{"NoteNumber":72,"Velocity":61,"Duration":245982,"SoundDuration":245982,"Delta":293654753},{"NoteNumber":56,"Velocity":51,"Duration":245982,"SoundDuration":245982,"Delta":293654753},{"NoteNumber":72,"Velocity":63,"Duration":108845,"SoundDuration":108845,"Delta":293900735},{"NoteNumber":73,"Velocity":57,"Duration":108845,"SoundDuration":108845,"Delta":294009581},{"NoteNumber":75,"Velocity":63,"Duration":83736,"SoundDuration":83736,"Delta":294118426},{"NoteNumber":75,"Velocity":61,"Duration":82556,"SoundDuration":82556,"Delta":294341724},{"NoteNumber":75,"Velocity":67,"Duration":83973,"SoundDuration":83973,"Delta":294561875},{"NoteNumber":87,"Velocity":82,"Duration":87101,"SoundDuration":87101,"Delta":294785805},{"NoteNumber":75,"Velocity":64,"Duration":666230,"SoundDuration":666230,"Delta":295018075},{"NoteNumber":60,"Velocity":53,"Duration":221549,"SoundDuration":221549,"Delta":295239625},{"NoteNumber":58,"Velocity":53,"Duration":223131,"SoundDuration":223131,"Delta":295461174},{"NoteNumber":73,"Velocity":59,"Duration":103777,"SoundDuration":103777,"Delta":295684306},{"NoteNumber":56,"Velocity":50,"Duration":207555,"SoundDuration":207555,"Delta":295684306},{"NoteNumber":72,"Velocity":56,"Duration":103777,"SoundDuration":103777,"Delta":295788083},{"NoteNumber":70,"Velocity":63,"Duration":228850,"SoundDuration":228850,"Delta":295891861},{"NoteNumber":61,"Velocity":55,"Duration":228850,"SoundDuration":228850,"Delta":295891861},{"NoteNumber":85,"Velocity":69,"Duration":171637,"SoundDuration":171637,"Delta":296120711},{"NoteNumber":58,"Velocity":49,"Duration":171637,"SoundDuration":171637,"Delta":296120711},{"NoteNumber":67,"Velocity":61,"Duration":228850,"SoundDuration":228850,"Delta":296349562},{"NoteNumber":63,"Velocity":51,"Duration":228850,"SoundDuration":228850,"Delta":296349562},{"NoteNumber":70,"Velocity":52,"Duration":177500,"SoundDuration":177500,"Delta":296578412},{"NoteNumber":51,"Velocity":47,"Duration":177500,"SoundDuration":177500,"Delta":296578412},{"NoteNumber":68,"Velocity":63,"Duration":489241,"SoundDuration":489241,"Delta":296815080},{"NoteNumber":56,"Velocity":52,"Duration":234009,"SoundDuration":234009,"Delta":296815080},{"NoteNumber":44,"Velocity":44,"Duration":255232,"SoundDuration":255232,"Delta":297049089},{"NoteNumber":77,"Velocity":69,"Duration":111168,"SoundDuration":111168,"Delta":297304322},{"NoteNumber":56,"Velocity":48,"Duration":111168,"SoundDuration":111168,"Delta":297304322},{"NoteNumber":61,"Velocity":57,"Duration":111168,"SoundDuration":111168,"Delta":297304322},{"NoteNumber":80,"Velocity":62,"Duration":111168,"SoundDuration":111168,"Delta":297415491},{"NoteNumber":77,"Velocity":69,"Duration":111168,"SoundDuration":111168,"Delta":297526659},{"NoteNumber":61,"Velocity":49,"Duration":111168,"SoundDuration":111168,"Delta":297526659},{"NoteNumber":56,"Velocity":40,"Duration":111168,"SoundDuration":111168,"Delta":297526659},{"NoteNumber":80,"Velocity":61,"Duration":111168,"SoundDuration":111168,"Delta":297637828},{"NoteNumber":75,"Velocity":69,"Duration":229709,"SoundDuration":229709,"Delta":297748997},{"NoteNumber":56,"Velocity":47,"Duration":114854,"SoundDuration":114854,"Delta":297748997},{"NoteNumber":60,"Velocity":56,"Duration":114854,"SoundDuration":114854,"Delta":297748997},{"NoteNumber":60,"Velocity":48,"Duration":114854,"SoundDuration":114854,"Delta":297978706},{"NoteNumber":56,"Velocity":39,"Duration":114854,"SoundDuration":114854,"Delta":297978706},{"NoteNumber":73,"Velocity":69,"Duration":111168,"SoundDuration":111168,"Delta":298208415},{"NoteNumber":65,"Velocity":57,"Duration":111168,"SoundDuration":111168,"Delta":298208415},{"NoteNumber":56,"Velocity":48,"Duration":111168,"SoundDuration":111168,"Delta":298208415},{"NoteNumber":80,"Velocity":62,"Duration":111168,"SoundDuration":111168,"Delta":298319584},{"NoteNumber":73,"Velocity":69,"Duration":111168,"SoundDuration":111168,"Delta":298430752},{"NoteNumber":56,"Velocity":40,"Duration":111168,"SoundDuration":111168,"Delta":298430752},{"NoteNumber":65,"Velocity":49,"Duration":111168,"SoundDuration":111168,"Delta":298430752},{"NoteNumber":80,"Velocity":61,"Duration":111168,"SoundDuration":111168,"Delta":298541921},{"NoteNumber":72,"Velocity":69,"Duration":229709,"SoundDuration":229709,"Delta":298653090},{"NoteNumber":56,"Velocity":47,"Duration":114854,"SoundDuration":114854,"Delta":298653090},{"NoteNumber":63,"Velocity":56,"Duration":114854,"SoundDuration":114854,"Delta":298653090},{"NoteNumber":56,"Velocity":39,"Duration":114854,"SoundDuration":114854,"Delta":298882799},{"NoteNumber":63,"Velocity":48,"Duration":114854,"SoundDuration":114854,"Delta":298882799},{"NoteNumber":77,"Velocity":69,"Duration":111168,"SoundDuration":111168,"Delta":299112508},{"NoteNumber":56,"Velocity":48,"Duration":111168,"SoundDuration":111168,"Delta":299112508},{"NoteNumber":61,"Velocity":57,"Duration":111168,"SoundDuration":111168,"Delta":299112508},{"NoteNumber":80,"Velocity":62,"Duration":111168,"SoundDuration":111168,"Delta":299223677},{"NoteNumber":77,"Velocity":69,"Duration":111168,"SoundDuration":111168,"Delta":299334845},{"NoteNumber":56,"Velocity":40,"Duration":111168,"SoundDuration":111168,"Delta":299334845},{"NoteNumber":61,"Velocity":49,"Duration":111168,"SoundDuration":111168,"Delta":299334845},{"NoteNumber":80,"Velocity":61,"Duration":111168,"SoundDuration":111168,"Delta":299446014},{"NoteNumber":75,"Velocity":69,"Duration":229709,"SoundDuration":229709,"Delta":299557183},{"NoteNumber":56,"Velocity":47,"Duration":229709,"SoundDuration":229709,"Delta":299557183},{"NoteNumber":60,"Velocity":56,"Duration":229709,"SoundDuration":229709,"Delta":299557183},{"NoteNumber":84,"Velocity":56,"Duration":153139,"SoundDuration":153139,"Delta":300169740},{"NoteNumber":82,"Velocity":56,"Duration":153139,"SoundDuration":153139,"Delta":300322879},{"NoteNumber":80,"Velocity":61,"Duration":148754,"SoundDuration":148754,"Delta":300476019},{"NoteNumber":36,"Velocity":25,"Duration":446262,"SoundDuration":446262,"Delta":300476019},{"NoteNumber":48,"Velocity":30,"Duration":446262,"SoundDuration":446262,"Delta":300476019},{"NoteNumber":79,"Velocity":56,"Duration":148754,"SoundDuration":148754,"Delta":300624773},{"NoteNumber":77,"Velocity":56,"Duration":148754,"SoundDuration":148754,"Delta":300773527},{"NoteNumber":75,"Velocity":61,"Duration":148754,"SoundDuration":148754,"Delta":300922282},{"NoteNumber":73,"Velocity":55,"Duration":148754,"SoundDuration":148754,"Delta":301071036},{"NoteNumber":72,"Velocity":55,"Duration":166611,"SoundDuration":166611,"Delta":301219790},{"NoteNumber":70,"Velocity":61,"Duration":225547,"SoundDuration":225547,"Delta":301386401},{"NoteNumber":37,"Velocity":25,"Duration":451094,"SoundDuration":451094,"Delta":301386401},{"NoteNumber":49,"Velocity":30,"Duration":451094,"SoundDuration":451094,"Delta":301386401},{"NoteNumber":70,"Velocity":47,"Duration":153139,"SoundDuration":153139,"Delta":301990635},{"NoteNumber":68,"Velocity":47,"Duration":153139,"SoundDuration":153139,"Delta":302143774},{"NoteNumber":67,"Velocity":51,"Duration":148754,"SoundDuration":148754,"Delta":302296913},{"NoteNumber":39,"Velocity":25,"Duration":446262,"SoundDuration":446262,"Delta":302296913},{"NoteNumber":51,"Velocity":30,"Duration":446262,"SoundDuration":446262,"Delta":302296913},{"NoteNumber":65,"Velocity":47,"Duration":148754,"SoundDuration":148754,"Delta":302445668},{"NoteNumber":63,"Velocity":47,"Duration":148754,"SoundDuration":148754,"Delta":302594422},{"NoteNumber":61,"Velocity":51,"Duration":148754,"SoundDuration":148754,"Delta":302743176},{"NoteNumber":60,"Velocity":46,"Duration":148754,"SoundDuration":148754,"Delta":302891931},{"NoteNumber":58,"Velocity":46,"Duration":166611,"SoundDuration":166611,"Delta":303040685},{"NoteNumber":56,"Velocity":43,"Duration":89356,"SoundDuration":89356,"Delta":303207296},{"NoteNumber":32,"Velocity":25,"Duration":476568,"SoundDuration":476568,"Delta":303207296},{"NoteNumber":44,"Velocity":30,"Duration":476568,"SoundDuration":476568,"Delta":303207296},{"NoteNumber":56,"Velocity":38,"Duration":89356,"SoundDuration":89356,"Delta":303445581},{"NoteNumber":56,"Velocity":43,"Duration":115189,"SoundDuration":115189,"Delta":303683865},{"NoteNumber":60,"Velocity":39,"Duration":115189,"SoundDuration":115189,"Delta":303799055},{"NoteNumber":63,"Velocity":42,"Duration":115189,"SoundDuration":115189,"Delta":303914245},{"NoteNumber":60,"Velocity":39,"Duration":126379,"SoundDuration":126379,"Delta":304029434},{"NoteNumber":56,"Velocity":43,"Duration":89017,"SoundDuration":89017,"Delta":304155814},{"NoteNumber":56,"Velocity":38,"Duration":89017,"SoundDuration":89017,"Delta":304393194},{"NoteNumber":56,"Velocity":43,"Duration":114766,"SoundDuration":114766,"Delta":304630573},{"NoteNumber":60,"Velocity":39,"Duration":114766,"SoundDuration":114766,"Delta":304745340},{"NoteNumber":63,"Velocity":42,"Duration":114766,"SoundDuration":114766,"Delta":304860107},{"NoteNumber":60,"Velocity":39,"Duration":127931,"SoundDuration":127931,"Delta":304974873},{"NoteNumber":56,"Velocity":49,"Duration":147246,"SoundDuration":147246,"Delta":305102805},{"NoteNumber":68,"Velocity":81,"Duration":588986,"SoundDuration":588986,"Delta":305691791},{"NoteNumber":63,"Velocity":67,"Duration":588986,"SoundDuration":588986,"Delta":305691791},{"NoteNumber":60,"Velocity":67,"Duration":588986,"SoundDuration":588986,"Delta":305691791},{"NoteNumber":32,"Velocity":50,"Duration":588986,"SoundDuration":588986,"Delta":305691791},{"NoteNumber":44,"Velocity":59,"Duration":588986,"SoundDuration":588986,"Delta":305691791}],"license":{"name":"Creative Commons Attribution-ShareAlike 3.0 Germany","url":"http://creativecommons.org/licenses/by-sa/3.0/de/deed.en","text":"The MIDI files in this folder were downloaded from http://www.piano-midi.de and are licensed under the Creative Commons Attribution-ShareAlike 3.0 Germany license by Bernd Krueger.\n\nThe MIDI, audio(MP3, OGG) and video files of Bernd Krueger are licensed under the cc-by-sa Germany License . This means, that you can use and adapt the files, as long as you attribute to the copyright holder Name: Bernd Krueger Source: http://www.piano-midi.de The distribution or public playback of the files is only allowed under identical license conditions . The scores are open source.","attribution":"Bernd Krueger","attributionUrl":"http://www.piano-midi.de"}}